{"ticks_per_beat": 840, "tracks": [[{"type": "track_name", "name": "Melody", "time": 0}, {"type": "set_tempo", "tempo": 512820, "time": 0}, {"type": "key_signature", "key": "F", "time": 0}, {"type": "time_signature", "numerator": 4, "denominator": 4, "clocks_per_click": 24, "notated_32nd_notes_per_beat": 8, "time": 0}, {"type": "note_on", "time": 23809, "note": 68, "velocity": 99, "channel": 0}, {"type": "note_off", "time": 240, "note": 68, "velocity": 99, "channel": 0}, {"type": "note_on", "time": 45, "note": 69, "velocity": 98, "channel": 0}, {"type": "note_off", "time": 1230, "note": 69, "velocity": 98, "channel": 0}, {"type": "note_on", "time": 53, "note": 68, "velocity": 104, "channel": 0}, {"type": "note_off", "time": 1016, "note": 68, "velocity": 104, "channel": 0}, {"type": "note_on", "time": 53, "note": 69, "velocity": 94, "channel": 0}, {"type": "note_off", "time": 1791, "note": 69, "velocity": 94, "channel": 0}, {"type": "note_on", "time": 133, "note": 68, "velocity": 106, "channel": 0}, {"type": "note_off", "time": 1236, "note": 68, "velocity": 106, "channel": 0}, {"type": "note_on", "time": 0, "note": 69, "velocity": 109, "channel": 0}, {"type": "note_off", "time": 380, "note": 69, "velocity": 109, "channel": 0}, {"type": "note_on", "time": 57, "note": 67, "velocity": 94, "channel": 0}, {"type": "note_off", "time": 266, "note": 67, "velocity": 94, "channel": 0}, {"type": "note_on", "time": 240, "note": 65, "velocity": 104, "channel": 0}, {"type": "note_off", "time": 1096, "note": 65, "velocity": 104, "channel": 0}, {"type": "note_on", "time": 32, "note": 65, "velocity": 83, "channel": 0}, {"type": "note_off", "time": 2453, "note": 65, "velocity": 83, "channel": 0}, {"type": "note_on", "time": 3143, "note": 71, "velocity": 115, "channel": 0}, {"type": "note_off", "time": 1243, "note": 71, "velocity": 115, "channel": 0}, {"type": "note_on", "time": 53, "note": 70, "velocity": 113, "channel": 0}, {"type": "note_off", "time": 2821, "note": 70, "velocity": 113, "channel": 0}, {"type": "note_on", "time": 66, "note": 69, "velocity": 111, "channel": 0}, {"type": "note_off", "time": 374, "note": 69, "velocity": 111, "channel": 0}, {"type": "note_on", "time": 26, "note": 68, "velocity": 106, "channel": 0}, {"type": "note_off", "time": 374, "note": 68, "velocity": 106, "channel": 0}, {"type": "note_on", "time": 53, "note": 69, "velocity": 110, "channel": 0}, {"type": "note_off", "time": 788, "note": 69, "velocity": 110, "channel": 0}, {"type": "note_on", "time": 0, "note": 68, "velocity": 102, "channel": 0}, {"type": "note_off", "time": 414, "note": 68, "velocity": 102, "channel": 0}, {"type": "note_on", "time": 53, "note": 69, "velocity": 93, "channel": 0}, {"type": "note_off", "time": 1163, "note": 69, "velocity": 93, "channel": 0}, {"type": "note_on", "time": 5923, "note": 70, "velocity": 113, "channel": 0}, {"type": "note_off", "time": 1190, "note": 70, "velocity": 113, "channel": 0}, {"type": "note_on", "time": 66, "note": 68, "velocity": 99, "channel": 0}, {"type": "note_off", "time": 120, "note": 68, "velocity": 99, "channel": 0}, {"type": "note_on", "time": 26, "note": 71, "velocity": 102, "channel": 0}, {"type": "note_off", "time": 1123, "note": 71, "velocity": 102, "channel": 0}, {"type": "note_on", "time": 762, "note": 68, "velocity": 99, "channel": 0}, {"type": "note_off", "time": 1297, "note": 68, "velocity": 99, "channel": 0}, {"type": "note_on", "time": 66, "note": 69, "velocity": 103, "channel": 0}, {"type": "note_off", "time": 2246, "note": 69, "velocity": 103, "channel": 0}, {"type": "note_on", "time": 446, "note": 68, "velocity": 91, "channel": 0}, {"type": "note_off", "time": 152, "note": 68, "velocity": 91, "channel": 0}, {"type": "note_on", "time": 70, "note": 69, "velocity": 110, "channel": 0}, {"type": "note_off", "time": 762, "note": 69, "velocity": 110, "channel": 0}, {"type": "note_on", "time": 105, "note": 69, "velocity": 111, "channel": 0}, {"type": "note_off", "time": 190, "note": 69, "velocity": 111, "channel": 0}, {"type": "note_on", "time": 25, "note": 70, "velocity": 112, "channel": 0}, {"type": "note_off", "time": 989, "note": 70, "velocity": 112, "channel": 0}, {"type": "note_on", "time": 26, "note": 68, "velocity": 96, "channel": 0}, {"type": "note_off", "time": 1524, "note": 68, "velocity": 96, "channel": 0}, {"type": "note_on", "time": 3008, "note": 68, "velocity": 115, "channel": 0}, {"type": "note_off", "time": 481, "note": 68, "velocity": 115, "channel": 0}, {"type": "note_on", "time": 160, "note": 70, "velocity": 111, "channel": 0}, {"type": "note_off", "time": 882, "note": 70, "velocity": 111, "channel": 0}, {"type": "note_on", "time": 0, "note": 70, "velocity": 80, "channel": 0}, {"type": "note_off", "time": 0, "note": 70, "velocity": 80, "channel": 0}, {"type": "note_on", "time": 1029, "note": 71, "velocity": 112, "channel": 0}, {"type": "note_off", "time": 1363, "note": 71, "velocity": 112, "channel": 0}, {"type": "note_on", "time": 40, "note": 72, "velocity": 114, "channel": 0}, {"type": "note_off", "time": 681, "note": 72, "velocity": 114, "channel": 0}, {"type": "note_on", "time": 40, "note": 73, "velocity": 111, "channel": 0}, {"type": "note_off", "time": 334, "note": 73, "velocity": 111, "channel": 0}, {"type": "note_on", "time": 53, "note": 65, "velocity": 95, "channel": 0}, {"type": "note_off", "time": 401, "note": 65, "velocity": 95, "channel": 0}, {"type": "note_on", "time": 53, "note": 66, "velocity": 100, "channel": 0}, {"type": "note_off", "time": 1938, "note": 66, "velocity": 100, "channel": 0}, {"type": "note_on", "time": 80, "note": 67, "velocity": 92, "channel": 0}, {"type": "note_off", "time": 1256, "note": 67, "velocity": 92, "channel": 0}, {"type": "note_on", "time": 40, "note": 65, "velocity": 96, "channel": 0}, {"type": "note_off", "time": 735, "note": 65, "velocity": 96, "channel": 0}, {"type": "note_on", "time": 508, "note": 68, "velocity": 110, "channel": 0}, {"type": "note_off", "time": 401, "note": 68, "velocity": 110, "channel": 0}, {"type": "note_on", "time": 40, "note": 67, "velocity": 113, "channel": 0}, {"type": "note_off", "time": 213, "note": 67, "velocity": 113, "channel": 0}, {"type": "note_on", "time": 53, "note": 68, "velocity": 104, "channel": 0}, {"type": "note_off", "time": 66, "note": 68, "velocity": 104, "channel": 0}, {"type": "note_on", "time": 26, "note": 65, "velocity": 113, "channel": 0}, {"type": "note_off", "time": 401, "note": 65, "velocity": 113, "channel": 0}, {"type": "note_on", "time": 93, "note": 60, "velocity": 103, "channel": 0}, {"type": "note_off", "time": 320, "note": 60, "velocity": 103, "channel": 0}, {"type": "note_on", "time": 26, "note": 53, "velocity": 102, "channel": 0}, {"type": "note_off", "time": 414, "note": 53, "velocity": 102, "channel": 0}, {"type": "note_on", "time": 5574, "note": 77, "velocity": 93, "channel": 0}, {"type": "note_off", "time": 304, "note": 77, "velocity": 93, "channel": 0}, {"type": "note_on", "time": 494, "note": 72, "velocity": 107, "channel": 0}, {"type": "note_off", "time": 370, "note": 72, "velocity": 107, "channel": 0}, {"type": "note_on", "time": 475, "note": 68, "velocity": 107, "channel": 0}, {"type": "note_off", "time": 408, "note": 68, "velocity": 107, "channel": 0}, {"type": "note_on", "time": 969, "note": 65, "velocity": 105, "channel": 0}, {"type": "note_off", "time": 342, "note": 65, "velocity": 105, "channel": 0}, {"type": "note_on", "time": 2510, "note": 68, "velocity": 109, "channel": 0}, {"type": "note_off", "time": 351, "note": 68, "velocity": 109, "channel": 0}, {"type": "note_on", "time": 9, "note": 68, "velocity": 105, "channel": 0}, {"type": "note_off", "time": 380, "note": 68, "velocity": 105, "channel": 0}, {"type": "note_on", "time": 9, "note": 69, "velocity": 106, "channel": 0}, {"type": "note_off", "time": 152, "note": 69, "velocity": 106, "channel": 0}, {"type": "note_on", "time": 9, "note": 68, "velocity": 99, "channel": 0}, {"type": "note_off", "time": 275, "note": 68, "velocity": 99, "channel": 0}, {"type": "note_on", "time": 85, "note": 68, "velocity": 102, "channel": 0}, {"type": "note_off", "time": 332, "note": 68, "velocity": 102, "channel": 0}, {"type": "note_on", "time": 76, "note": 69, "velocity": 104, "channel": 0}, {"type": "note_off", "time": 446, "note": 69, "velocity": 104, "channel": 0}, {"type": "note_on", "time": 351, "note": 65, "velocity": 96, "channel": 0}, {"type": "note_off", "time": 770, "note": 65, "velocity": 96, "channel": 0}, {"type": "note_on", "time": 47, "note": 65, "velocity": 89, "channel": 0}, {"type": "note_off", "time": 180, "note": 65, "velocity": 89, "channel": 0}, {"type": "note_on", "time": 209, "note": 65, "velocity": 86, "channel": 0}, {"type": "note_off", "time": 1207, "note": 65, "velocity": 86, "channel": 0}, {"type": "note_on", "time": 2747, "note": 62, "velocity": 92, "channel": 0}, {"type": "note_off", "time": 256, "note": 62, "velocity": 92, "channel": 0}, {"type": "note_on", "time": 47, "note": 63, "velocity": 9, "channel": 0}, {"type": "note_off", "time": 2776, "note": 63, "velocity": 9, "channel": 0}, {"type": "note_on", "time": 28, "note": 62, "velocity": 88, "channel": 0}, {"type": "note_off", "time": 465, "note": 62, "velocity": 88, "channel": 0}, {"type": "note_on", "time": 5562, "note": 61, "velocity": 93, "channel": 0}, {"type": "note_off", "time": 133, "note": 61, "velocity": 93, "channel": 0}, {"type": "note_on", "time": 66, "note": 63, "velocity": 108, "channel": 0}, {"type": "note_off", "time": 1369, "note": 63, "velocity": 108, "channel": 0}, {"type": "note_on", "time": 19, "note": 62, "velocity": 100, "channel": 0}, {"type": "note_off", "time": 484, "note": 62, "velocity": 100, "channel": 0}, {"type": "note_on", "time": 47, "note": 60, "velocity": 96, "channel": 0}, {"type": "note_off", "time": 1502, "note": 60, "velocity": 96, "channel": 0}, {"type": "note_on", "time": 1825, "note": 56, "velocity": 103, "channel": 0}, {"type": "note_off", "time": 361, "note": 56, "velocity": 103, "channel": 0}, {"type": "note_on", "time": 28, "note": 53, "velocity": 102, "channel": 0}, {"type": "note_off", "time": 380, "note": 53, "velocity": 102, "channel": 0}, {"type": "note_on", "time": 47, "note": 53, "velocity": 103, "channel": 0}, {"type": "note_off", "time": 313, "note": 53, "velocity": 103, "channel": 0}, {"type": "note_on", "time": 47, "note": 53, "velocity": 101, "channel": 0}, {"type": "note_off", "time": 323, "note": 53, "velocity": 101, "channel": 0}, {"type": "note_on", "time": 4716, "note": 72, "velocity": 88, "channel": 0}, {"type": "note_off", "time": 171, "note": 72, "velocity": 88, "channel": 0}, {"type": "note_on", "time": 9, "note": 77, "velocity": 93, "channel": 0}, {"type": "note_off", "time": 161, "note": 77, "velocity": 93, "channel": 0}, {"type": "note_on", "time": 541, "note": 77, "velocity": 107, "channel": 0}, {"type": "note_off", "time": 380, "note": 77, "velocity": 107, "channel": 0}, {"type": "note_on", "time": 19, "note": 79, "velocity": 105, "channel": 0}, {"type": "note_off", "time": 218, "note": 79, "velocity": 105, "channel": 0}, {"type": "note_on", "time": 152, "note": 77, "velocity": 105, "channel": 0}, {"type": "note_off", "time": 465, "note": 77, "velocity": 105, "channel": 0}, {"type": "note_on", "time": 0, "note": 79, "velocity": 105, "channel": 0}, {"type": "note_off", "time": 133, "note": 79, "velocity": 105, "channel": 0}, {"type": "note_on", "time": 5334, "note": 88, "velocity": 79, "channel": 0}, {"type": "note_off", "time": 95, "note": 88, "velocity": 79, "channel": 0}, {"type": "note_on", "time": 57, "note": 90, "velocity": 108, "channel": 0}, {"type": "note_off", "time": 275, "note": 90, "velocity": 108, "channel": 0}, {"type": "note_on", "time": 104, "note": 89, "velocity": 103, "channel": 0}, {"type": "note_off", "time": 561, "note": 89, "velocity": 103, "channel": 0}, {"type": "note_on", "time": 95, "note": 90, "velocity": 97, "channel": 0}, {"type": "note_off", "time": 285, "note": 90, "velocity": 97, "channel": 0}, {"type": "note_on", "time": 2665, "note": 80, "velocity": 104, "channel": 0}, {"type": "note_off", "time": 1270, "note": 80, "velocity": 104, "channel": 0}, {"type": "note_on", "time": 53, "note": 82, "velocity": 102, "channel": 0}, {"type": "note_off", "time": 267, "note": 82, "velocity": 102, "channel": 0}, {"type": "note_on", "time": 26, "note": 80, "velocity": 104, "channel": 0}, {"type": "note_off", "time": 173, "note": 80, "velocity": 104, "channel": 0}, {"type": "note_on", "time": 13, "note": 82, "velocity": 101, "channel": 0}, {"type": "note_off", "time": 227, "note": 82, "velocity": 101, "channel": 0}, {"type": "note_on", "time": 0, "note": 80, "velocity": 105, "channel": 0}, {"type": "note_off", "time": 254, "note": 80, "velocity": 105, "channel": 0}, {"type": "note_on", "time": 26, "note": 81, "velocity": 100, "channel": 0}, {"type": "note_off", "time": 200, "note": 81, "velocity": 100, "channel": 0}, {"type": "note_on", "time": 40, "note": 80, "velocity": 105, "channel": 0}, {"type": "note_off", "time": 133, "note": 80, "velocity": 105, "channel": 0}, {"type": "note_on", "time": 53, "note": 82, "velocity": 102, "channel": 0}, {"type": "note_off", "time": 93, "note": 82, "velocity": 102, "channel": 0}, {"type": "note_on", "time": 26, "note": 80, "velocity": 103, "channel": 0}, {"type": "note_off", "time": 173, "note": 80, "velocity": 103, "channel": 0}, {"type": "note_on", "time": 66, "note": 82, "velocity": 103, "channel": 0}, {"type": "note_off", "time": 454, "note": 82, "velocity": 103, "channel": 0}, {"type": "note_on", "time": 133, "note": 77, "velocity": 110, "channel": 0}, {"type": "note_off", "time": 588, "note": 77, "velocity": 110, "channel": 0}, {"type": "note_on", "time": 120, "note": 75, "velocity": 105, "channel": 0}, {"type": "note_off", "time": 320, "note": 75, "velocity": 105, "channel": 0}, {"type": "note_on", "time": 26, "note": 77, "velocity": 104, "channel": 0}, {"type": "note_off", "time": 160, "note": 77, "velocity": 104, "channel": 0}, {"type": "note_on", "time": 26, "note": 75, "velocity": 102, "channel": 0}, {"type": "note_off", "time": 213, "note": 75, "velocity": 102, "channel": 0}, {"type": "note_on", "time": 66, "note": 77, "velocity": 109, "channel": 0}, {"type": "note_off", "time": 187, "note": 77, "velocity": 109, "channel": 0}, {"type": "note_on", "time": 53, "note": 75, "velocity": 106, "channel": 0}, {"type": "note_off", "time": 160, "note": 75, "velocity": 106, "channel": 0}, {"type": "note_on", "time": 40, "note": 77, "velocity": 107, "channel": 0}, {"type": "note_off", "time": 120, "note": 77, "velocity": 107, "channel": 0}, {"type": "note_on", "time": 14, "note": 75, "velocity": 108, "channel": 0}, {"type": "note_off", "time": 93, "note": 75, "velocity": 108, "channel": 0}, {"type": "note_on", "time": 8, "note": 74, "velocity": 108, "channel": 0}, {"type": "note_off", "time": 95, "note": 74, "velocity": 108, "channel": 0}, {"type": "note_on", "time": 31, "note": 75, "velocity": 109, "channel": 0}, {"type": "note_off", "time": 112, "note": 75, "velocity": 109, "channel": 0}, {"type": "note_on", "time": 19, "note": 72, "velocity": 104, "channel": 0}, {"type": "note_off", "time": 534, "note": 72, "velocity": 104, "channel": 0}, {"type": "note_on", "time": 200, "note": 68, "velocity": 105, "channel": 0}, {"type": "note_off", "time": 4519, "note": 68, "velocity": 105, "channel": 0}, {"type": "note_on", "time": 80, "note": 69, "velocity": 100, "channel": 0}, {"type": "note_off", "time": 1831, "note": 69, "velocity": 100, "channel": 0}, {"type": "note_on", "time": 3214, "note": 68, "velocity": 96, "channel": 0}, {"type": "note_off", "time": 133, "note": 68, "velocity": 96, "channel": 0}, {"type": "note_on", "time": 28, "note": 72, "velocity": 108, "channel": 0}, {"type": "note_off", "time": 180, "note": 72, "velocity": 108, "channel": 0}, {"type": "note_on", "time": 28, "note": 69, "velocity": 112, "channel": 0}, {"type": "note_off", "time": 142, "note": 69, "velocity": 112, "channel": 0}, {"type": "note_on", "time": 19, "note": 68, "velocity": 105, "channel": 0}, {"type": "note_off", "time": 209, "note": 68, "velocity": 105, "channel": 0}, {"type": "note_on", "time": 19, "note": 69, "velocity": 106, "channel": 0}, {"type": "note_off", "time": 161, "note": 69, "velocity": 106, "channel": 0}, {"type": "note_on", "time": 9, "note": 71, "velocity": 111, "channel": 0}, {"type": "note_off", "time": 247, "note": 71, "velocity": 111, "channel": 0}, {"type": "note_on", "time": 28, "note": 73, "velocity": 113, "channel": 0}, {"type": "note_off", "time": 161, "note": 73, "velocity": 113, "channel": 0}, {"type": "note_on", "time": 19, "note": 75, "velocity": 112, "channel": 0}, {"type": "note_off", "time": 171, "note": 75, "velocity": 112, "channel": 0}, {"type": "note_on", "time": 28, "note": 77, "velocity": 107, "channel": 0}, {"type": "note_off", "time": 133, "note": 77, "velocity": 107, "channel": 0}, {"type": "note_on", "time": 47, "note": 78, "velocity": 112, "channel": 0}, {"type": "note_off", "time": 180, "note": 78, "velocity": 112, "channel": 0}, {"type": "note_on", "time": 28, "note": 80, "velocity": 109, "channel": 0}, {"type": "note_off", "time": 199, "note": 80, "velocity": 109, "channel": 0}, {"type": "note_on", "time": 0, "note": 83, "velocity": 114, "channel": 0}, {"type": "note_off", "time": 152, "note": 83, "velocity": 114, "channel": 0}, {"type": "note_on", "time": 45, "note": 85, "velocity": 115, "channel": 0}, {"type": "note_off", "time": 60, "note": 85, "velocity": 115, "channel": 0}, {"type": "note_on", "time": 13, "note": 84, "velocity": 117, "channel": 0}, {"type": "note_off", "time": 147, "note": 84, "velocity": 117, "channel": 0}, {"type": "note_on", "time": 6, "note": 86, "velocity": 117, "channel": 0}, {"type": "note_off", "time": 180, "note": 86, "velocity": 117, "channel": 0}, {"type": "note_on", "time": 13, "note": 83, "velocity": 113, "channel": 0}, {"type": "note_off", "time": 207, "note": 83, "velocity": 113, "channel": 0}, {"type": "note_on", "time": 6, "note": 84, "velocity": 116, "channel": 0}, {"type": "note_off", "time": 240, "note": 84, "velocity": 116, "channel": 0}, {"type": "note_on", "time": 2302, "note": 88, "velocity": 80, "channel": 0}, {"type": "note_off", "time": 73, "note": 88, "velocity": 80, "channel": 0}, {"type": "note_on", "time": 84, "note": 90, "velocity": 114, "channel": 0}, {"type": "note_off", "time": 267, "note": 90, "velocity": 114, "channel": 0}, {"type": "note_on", "time": 20, "note": 89, "velocity": 114, "channel": 0}, {"type": "note_off", "time": 167, "note": 89, "velocity": 114, "channel": 0}, {"type": "note_on", "time": 20, "note": 90, "velocity": 110, "channel": 0}, {"type": "note_off", "time": 254, "note": 90, "velocity": 110, "channel": 0}, {"type": "note_on", "time": 26, "note": 87, "velocity": 109, "channel": 0}, {"type": "note_off", "time": 86, "note": 87, "velocity": 109, "channel": 0}, {"type": "note_on", "time": 0, "note": 86, "velocity": 103, "channel": 0}, {"type": "note_off", "time": 86, "note": 86, "velocity": 103, "channel": 0}, {"type": "note_on", "time": 26, "note": 84, "velocity": 101, "channel": 0}, {"type": "note_off", "time": 213, "note": 84, "velocity": 101, "channel": 0}, {"type": "note_on", "time": 33, "note": 84, "velocity": 110, "channel": 0}, {"type": "note_off", "time": 80, "note": 84, "velocity": 110, "channel": 0}, {"type": "note_on", "time": 13, "note": 82, "velocity": 108, "channel": 0}, {"type": "note_off", "time": 113, "note": 82, "velocity": 108, "channel": 0}, {"type": "note_on", "time": 33, "note": 81, "velocity": 112, "channel": 0}, {"type": "note_off", "time": 207, "note": 81, "velocity": 112, "channel": 0}, {"type": "note_on", "time": 33, "note": 79, "velocity": 106, "channel": 0}, {"type": "note_off", "time": 160, "note": 79, "velocity": 106, "channel": 0}, {"type": "note_on", "time": 13, "note": 77, "velocity": 110, "channel": 0}, {"type": "note_off", "time": 200, "note": 77, "velocity": 110, "channel": 0}, {"type": "note_on", "time": 20, "note": 76, "velocity": 112, "channel": 0}, {"type": "note_off", "time": 193, "note": 76, "velocity": 112, "channel": 0}, {"type": "note_on", "time": 13, "note": 75, "velocity": 109, "channel": 0}, {"type": "note_off", "time": 167, "note": 75, "velocity": 109, "channel": 0}, {"type": "note_on", "time": 13, "note": 72, "velocity": 110, "channel": 0}, {"type": "note_off", "time": 220, "note": 72, "velocity": 110, "channel": 0}, {"type": "note_on", "time": 26, "note": 71, "velocity": 102, "channel": 0}, {"type": "note_off", "time": 180, "note": 71, "velocity": 102, "channel": 0}, {"type": "note_on", "time": 240, "note": 70, "velocity": 108, "channel": 0}, {"type": "note_off", "time": 187, "note": 70, "velocity": 108, "channel": 0}, {"type": "note_on", "time": 40, "note": 69, "velocity": 108, "channel": 0}, {"type": "note_off", "time": 106, "note": 69, "velocity": 108, "channel": 0}, {"type": "note_on", "time": 481, "note": 69, "velocity": 108, "channel": 0}, {"type": "note_off", "time": 153, "note": 69, "velocity": 108, "channel": 0}, {"type": "note_on", "time": 26, "note": 68, "velocity": 111, "channel": 0}, {"type": "note_off", "time": 227, "note": 68, "velocity": 111, "channel": 0}, {"type": "note_on", "time": 387, "note": 65, "velocity": 108, "channel": 0}, {"type": "note_off", "time": 427, "note": 65, "velocity": 108, "channel": 0}, {"type": "note_on", "time": 421, "note": 68, "velocity": 105, "channel": 0}, {"type": "note_off", "time": 2560, "note": 68, "velocity": 105, "channel": 0}, {"type": "note_on", "time": 26, "note": 69, "velocity": 103, "channel": 0}, {"type": "note_off", "time": 1203, "note": 69, "velocity": 103, "channel": 0}, {"type": "note_on", "time": 60, "note": 68, "velocity": 102, "channel": 0}, {"type": "note_off", "time": 1591, "note": 68, "velocity": 102, "channel": 0}, {"type": "note_on", "time": 40, "note": 69, "velocity": 99, "channel": 0}, {"type": "note_off", "time": 1878, "note": 69, "velocity": 99, "channel": 0}, {"type": "note_on", "time": 6, "note": 68, "velocity": 100, "channel": 0}, {"type": "note_off", "time": 1136, "note": 68, "velocity": 100, "channel": 0}, {"type": "note_on", "time": 33, "note": 69, "velocity": 101, "channel": 0}, {"type": "note_off", "time": 1149, "note": 69, "velocity": 101, "channel": 0}, {"type": "note_on", "time": 38, "note": 68, "velocity": 87, "channel": 0}, {"type": "note_off", "time": 12037, "note": 68, "velocity": 87, "channel": 0}, {"type": "note_on", "time": 4430, "note": 65, "velocity": 100, "channel": 0}, {"type": "note_off", "time": 342, "note": 65, "velocity": 100, "channel": 0}, {"type": "note_on", "time": 57, "note": 65, "velocity": 110, "channel": 0}, {"type": "note_off", "time": 342, "note": 65, "velocity": 110, "channel": 0}, {"type": "note_on", "time": 76, "note": 65, "velocity": 114, "channel": 0}, {"type": "note_off", "time": 361, "note": 65, "velocity": 114, "channel": 0}, {"type": "note_on", "time": 38, "note": 65, "velocity": 105, "channel": 0}, {"type": "note_off", "time": 361, "note": 65, "velocity": 105, "channel": 0}, {"type": "note_on", "time": 66, "note": 65, "velocity": 107, "channel": 0}, {"type": "note_off", "time": 342, "note": 65, "velocity": 107, "channel": 0}, {"type": "note_on", "time": 6399, "note": 77, "velocity": 73, "channel": 0}, {"type": "note_off", "time": 285, "note": 77, "velocity": 73, "channel": 0}, {"type": "note_on", "time": 969, "note": 70, "velocity": 107, "channel": 0}, {"type": "note_off", "time": 361, "note": 70, "velocity": 107, "channel": 0}, {"type": "note_on", "time": 903, "note": 71, "velocity": 107, "channel": 0}, {"type": "note_off", "time": 342, "note": 71, "velocity": 107, "channel": 0}, {"type": "note_on", "time": 865, "note": 72, "velocity": 106, "channel": 0}, {"type": "note_off", "time": 513, "note": 72, "velocity": 106, "channel": 0}, {"type": "note_on", "time": 76, "note": 69, "velocity": 97, "channel": 0}, {"type": "note_off", "time": 437, "note": 69, "velocity": 97, "channel": 0}, {"type": "note_on", "time": 133, "note": 65, "velocity": 99, "channel": 0}, {"type": "note_off", "time": 342, "note": 65, "velocity": 99, "channel": 0}, {"type": "note_on", "time": 57, "note": 63, "velocity": 9, "channel": 0}, {"type": "note_off", "time": 380, "note": 63, "velocity": 9, "channel": 0}, {"type": "note_on", "time": 57, "note": 60, "velocity": 89, "channel": 0}, {"type": "note_off", "time": 285, "note": 60, "velocity": 89, "channel": 0}, {"type": "note_on", "time": 190, "note": 65, "velocity": 98, "channel": 0}, {"type": "note_off", "time": 494, "note": 65, "velocity": 98, "channel": 0}, {"type": "note_on", "time": 19, "note": 63, "velocity": 88, "channel": 0}, {"type": "note_off", "time": 2491, "note": 63, "velocity": 88, "channel": 0}, {"type": "note_on", "time": 2472, "note": 61, "velocity": 104, "channel": 0}, {"type": "note_off", "time": 3689, "note": 61, "velocity": 104, "channel": 0}, {"type": "note_on", "time": 76, "note": 59, "velocity": 99, "channel": 0}, {"type": "note_off", "time": 1597, "note": 59, "velocity": 99, "channel": 0}, {"type": "note_on", "time": 2291, "note": 54, "velocity": 101, "channel": 0}, {"type": "note_off", "time": 209, "note": 54, "velocity": 101, "channel": 0}, {"type": "note_on", "time": 85, "note": 56, "velocity": 107, "channel": 0}, {"type": "note_off", "time": 2852, "note": 56, "velocity": 107, "channel": 0}, {"type": "note_on", "time": 38, "note": 55, "velocity": 100, "channel": 0}, {"type": "note_off", "time": 1312, "note": 55, "velocity": 100, "channel": 0}, {"type": "note_on", "time": 2072, "note": 53, "velocity": 105, "channel": 0}, {"type": "note_off", "time": 380, "note": 53, "velocity": 105, "channel": 0}, {"type": "note_on", "time": 76, "note": 52, "velocity": 106, "channel": 0}, {"type": "note_off", "time": 247, "note": 52, "velocity": 106, "channel": 0}, {"type": "note_on", "time": 57, "note": 53, "velocity": 105, "channel": 0}, {"type": "note_off", "time": 437, "note": 53, "velocity": 105, "channel": 0}, {"type": "note_on", "time": 7416, "note": 65, "velocity": 95, "channel": 0}, {"type": "note_off", "time": 361, "note": 65, "velocity": 95, "channel": 0}, {"type": "note_on", "time": 38, "note": 63, "velocity": 88, "channel": 0}, {"type": "note_off", "time": 2909, "note": 63, "velocity": 88, "channel": 0}, {"type": "note_on", "time": 57, "note": 60, "velocity": 83, "channel": 0}, {"type": "note_off", "time": 969, "note": 60, "velocity": 83, "channel": 0}, {"type": "note_on", "time": 209, "note": 55, "velocity": 87, "channel": 0}, {"type": "note_off", "time": 3175, "note": 55, "velocity": 87, "channel": 0}, {"type": "note_on", "time": 2719, "note": 68, "velocity": 115, "channel": 0}, {"type": "note_off", "time": 285, "note": 68, "velocity": 115, "channel": 0}, {"type": "note_on", "time": 38, "note": 68, "velocity": 112, "channel": 0}, {"type": "note_off", "time": 475, "note": 68, "velocity": 112, "channel": 0}, {"type": "note_on", "time": 57, "note": 68, "velocity": 112, "channel": 0}, {"type": "note_off", "time": 399, "note": 68, "velocity": 112, "channel": 0}, {"type": "note_on", "time": 19, "note": 67, "velocity": 90, "channel": 0}, {"type": "note_off", "time": 266, "note": 67, "velocity": 90, "channel": 0}, {"type": "note_on", "time": 532, "note": 65, "velocity": 88, "channel": 0}, {"type": "note_off", "time": 323, "note": 65, "velocity": 88, "channel": 0}, {"type": "note_on", "time": 76, "note": 65, "velocity": 92, "channel": 0}, {"type": "note_off", "time": 380, "note": 65, "velocity": 92, "channel": 0}, {"type": "note_on", "time": 6152, "note": 74, "velocity": 96, "channel": 0}, {"type": "note_off", "time": 123, "note": 74, "velocity": 96, "channel": 0}, {"type": "note_on", "time": 28, "note": 77, "velocity": 92, "channel": 0}, {"type": "note_off", "time": 171, "note": 77, "velocity": 92, "channel": 0}, {"type": "note_on", "time": 38, "note": 77, "velocity": 90, "channel": 0}, {"type": "note_off", "time": 190, "note": 77, "velocity": 90, "channel": 0}, {"type": "note_on", "time": 209, "note": 77, "velocity": 100, "channel": 0}, {"type": "note_off", "time": 152, "note": 77, "velocity": 100, "channel": 0}, {"type": "note_on", "time": 38, "note": 77, "velocity": 112, "channel": 0}, {"type": "note_off", "time": 427, "note": 77, "velocity": 112, "channel": 0}, {"type": "note_on", "time": 57, "note": 77, "velocity": 114, "channel": 0}, {"type": "note_off", "time": 142, "note": 77, "velocity": 114, "channel": 0}, {"type": "note_on", "time": 332, "note": 77, "velocity": 110, "channel": 0}, {"type": "note_off", "time": 209, "note": 77, "velocity": 110, "channel": 0}, {"type": "note_on", "time": 28, "note": 77, "velocity": 100, "channel": 0}, {"type": "note_off", "time": 161, "note": 77, "velocity": 100, "channel": 0}, {"type": "note_on", "time": 218, "note": 77, "velocity": 96, "channel": 0}, {"type": "note_off", "time": 180, "note": 77, "velocity": 96, "channel": 0}, {"type": "note_on", "time": 190, "note": 77, "velocity": 107, "channel": 0}, {"type": "note_off", "time": 199, "note": 77, "velocity": 107, "channel": 0}, {"type": "note_on", "time": 294, "note": 77, "velocity": 97, "channel": 0}, {"type": "note_off", "time": 209, "note": 77, "velocity": 97, "channel": 0}, {"type": "note_on", "time": 218, "note": 77, "velocity": 109, "channel": 0}, {"type": "note_off", "time": 161, "note": 77, "velocity": 109, "channel": 0}, {"type": "note_on", "time": 228, "note": 77, "velocity": 100, "channel": 0}, {"type": "note_off", "time": 218, "note": 77, "velocity": 100, "channel": 0}, {"type": "note_on", "time": 228, "note": 77, "velocity": 105, "channel": 0}, {"type": "note_off", "time": 199, "note": 77, "velocity": 105, "channel": 0}, {"type": "note_on", "time": 389, "note": 77, "velocity": 109, "channel": 0}, {"type": "note_off", "time": 228, "note": 77, "velocity": 109, "channel": 0}, {"type": "note_on", "time": 19, "note": 77, "velocity": 95, "channel": 0}, {"type": "note_off", "time": 123, "note": 77, "velocity": 95, "channel": 0}, {"type": "note_on", "time": 370, "note": 77, "velocity": 109, "channel": 0}, {"type": "note_off", "time": 171, "note": 77, "velocity": 109, "channel": 0}, {"type": "note_on", "time": 19, "note": 77, "velocity": 109, "channel": 0}, {"type": "note_off", "time": 142, "note": 77, "velocity": 109, "channel": 0}, {"type": "note_on", "time": 247, "note": 77, "velocity": 106, "channel": 0}, {"type": "note_off", "time": 161, "note": 77, "velocity": 106, "channel": 0}, {"type": "note_on", "time": 47, "note": 77, "velocity": 108, "channel": 0}, {"type": "note_off", "time": 161, "note": 77, "velocity": 108, "channel": 0}, {"type": "note_on", "time": 370, "note": 74, "velocity": 65, "channel": 0}, {"type": "note_off", "time": 228, "note": 74, "velocity": 65, "channel": 0}, {"type": "note_on", "time": 76, "note": 77, "velocity": 107, "channel": 0}, {"type": "note_off", "time": 209, "note": 77, "velocity": 107, "channel": 0}, {"type": "note_on", "time": 57, "note": 79, "velocity": 92, "channel": 0}, {"type": "note_off", "time": 190, "note": 79, "velocity": 92, "channel": 0}, {"type": "note_on", "time": 152, "note": 77, "velocity": 94, "channel": 0}, {"type": "note_off", "time": 199, "note": 77, "velocity": 94, "channel": 0}, {"type": "note_on", "time": 218, "note": 77, "velocity": 108, "channel": 0}, {"type": "note_off", "time": 171, "note": 77, "velocity": 108, "channel": 0}, {"type": "note_on", "time": 38, "note": 77, "velocity": 109, "channel": 0}, {"type": "note_off", "time": 142, "note": 77, "velocity": 109, "channel": 0}, {"type": "note_on", "time": 418, "note": 75, "velocity": 100, "channel": 0}, {"type": "note_off", "time": 199, "note": 75, "velocity": 100, "channel": 0}, {"type": "note_on", "time": 294, "note": 77, "velocity": 86, "channel": 0}, {"type": "note_off", "time": 142, "note": 77, "velocity": 86, "channel": 0}, {"type": "note_on", "time": 47, "note": 77, "velocity": 109, "channel": 0}, {"type": "note_off", "time": 199, "note": 77, "velocity": 109, "channel": 0}, {"type": "note_on", "time": 47, "note": 77, "velocity": 103, "channel": 0}, {"type": "note_off", "time": 114, "note": 77, "velocity": 103, "channel": 0}, {"type": "note_on", "time": 114, "note": 79, "velocity": 109, "channel": 0}, {"type": "note_off", "time": 199, "note": 79, "velocity": 109, "channel": 0}, {"type": "note_on", "time": 133, "note": 77, "velocity": 109, "channel": 0}, {"type": "note_off", "time": 218, "note": 77, "velocity": 109, "channel": 0}, {"type": "note_on", "time": 656, "note": 75, "velocity": 112, "channel": 0}, {"type": "note_off", "time": 161, "note": 75, "velocity": 112, "channel": 0}, {"type": "note_on", "time": 19, "note": 75, "velocity": 112, "channel": 0}, {"type": "note_off", "time": 171, "note": 75, "velocity": 112, "channel": 0}, {"type": "note_on", "time": 38, "note": 77, "velocity": 111, "channel": 0}, {"type": "note_off", "time": 190, "note": 77, "velocity": 111, "channel": 0}, {"type": "note_on", "time": 618, "note": 77, "velocity": 111, "channel": 0}, {"type": "note_off", "time": 180, "note": 77, "velocity": 111, "channel": 0}, {"type": "note_on", "time": 28, "note": 77, "velocity": 106, "channel": 0}, {"type": "note_off", "time": 180, "note": 77, "velocity": 106, "channel": 0}, {"type": "note_on", "time": 66, "note": 77, "velocity": 115, "channel": 0}, {"type": "note_off", "time": 123, "note": 77, "velocity": 115, "channel": 0}, {"type": "note_on", "time": 66, "note": 79, "velocity": 107, "channel": 0}, {"type": "note_off", "time": 171, "note": 79, "velocity": 107, "channel": 0}, {"type": "note_on", "time": 237, "note": 77, "velocity": 84, "channel": 0}, {"type": "note_off", "time": 209, "note": 77, "velocity": 84, "channel": 0}, {"type": "note_on", "time": 66, "note": 75, "velocity": 98, "channel": 0}, {"type": "note_off", "time": 190, "note": 75, "velocity": 98, "channel": 0}, {"type": "note_on", "time": 1093, "note": 70, "velocity": 95, "channel": 0}, {"type": "note_off", "time": 171, "note": 70, "velocity": 95, "channel": 0}, {"type": "note_on", "time": 57, "note": 77, "velocity": 108, "channel": 0}, {"type": "note_off", "time": 161, "note": 77, "velocity": 108, "channel": 0}, {"type": "note_on", "time": 0, "note": 77, "velocity": 80, "channel": 0}, {"type": "note_off", "time": 0, "note": 77, "velocity": 80, "channel": 0}, {"type": "note_on", "time": 47, "note": 77, "velocity": 110, "channel": 0}, {"type": "note_off", "time": 171, "note": 77, "velocity": 110, "channel": 0}, {"type": "note_on", "time": 19, "note": 79, "velocity": 106, "channel": 0}, {"type": "note_off", "time": 152, "note": 79, "velocity": 106, "channel": 0}, {"type": "note_on", "time": 998, "note": 72, "velocity": 97, "channel": 0}, {"type": "note_off", "time": 114, "note": 72, "velocity": 97, "channel": 0}, {"type": "note_on", "time": 76, "note": 75, "velocity": 110, "channel": 0}, {"type": "note_off", "time": 142, "note": 75, "velocity": 110, "channel": 0}, {"type": "note_on", "time": 627, "note": 77, "velocity": 110, "channel": 0}, {"type": "note_off", "time": 190, "note": 77, "velocity": 110, "channel": 0}, {"type": "note_on", "time": 47, "note": 79, "velocity": 106, "channel": 0}, {"type": "note_off", "time": 152, "note": 79, "velocity": 106, "channel": 0}, {"type": "note_on", "time": 199, "note": 79, "velocity": 107, "channel": 0}, {"type": "note_off", "time": 180, "note": 79, "velocity": 107, "channel": 0}, {"type": "note_on", "time": 38, "note": 77, "velocity": 109, "channel": 0}, {"type": "note_off", "time": 180, "note": 77, "velocity": 109, "channel": 0}, {"type": "note_on", "time": 675, "note": 75, "velocity": 109, "channel": 0}, {"type": "note_off", "time": 247, "note": 75, "velocity": 109, "channel": 0}, {"type": "note_on", "time": 28, "note": 75, "velocity": 113, "channel": 0}, {"type": "note_off", "time": 161, "note": 75, "velocity": 113, "channel": 0}, {"type": "note_on", "time": 817, "note": 77, "velocity": 101, "channel": 0}, {"type": "note_off", "time": 228, "note": 77, "velocity": 101, "channel": 0}, {"type": "note_on", "time": 28, "note": 79, "velocity": 105, "channel": 0}, {"type": "note_off", "time": 161, "note": 79, "velocity": 105, "channel": 0}, {"type": "note_on", "time": 228, "note": 77, "velocity": 110, "channel": 0}, {"type": "note_off", "time": 180, "note": 77, "velocity": 110, "channel": 0}, {"type": "note_on", "time": 9, "note": 75, "velocity": 112, "channel": 0}, {"type": "note_off", "time": 171, "note": 75, "velocity": 112, "channel": 0}, {"type": "note_on", "time": 1007, "note": 72, "velocity": 106, "channel": 0}, {"type": "note_off", "time": 190, "note": 72, "velocity": 106, "channel": 0}, {"type": "note_on", "time": 95, "note": 77, "velocity": 107, "channel": 0}, {"type": "note_off", "time": 180, "note": 77, "velocity": 107, "channel": 0}, {"type": "note_on", "time": 456, "note": 75, "velocity": 103, "channel": 0}, {"type": "note_off", "time": 161, "note": 75, "velocity": 103, "channel": 0}, {"type": "note_on", "time": 9, "note": 77, "velocity": 111, "channel": 0}, {"type": "note_off", "time": 152, "note": 77, "velocity": 111, "channel": 0}, {"type": "note_on", "time": 446, "note": 79, "velocity": 107, "channel": 0}, {"type": "note_off", "time": 171, "note": 79, "velocity": 107, "channel": 0}, {"type": "note_on", "time": 0, "note": 77, "velocity": 111, "channel": 0}, {"type": "note_off", "time": 209, "note": 77, "velocity": 111, "channel": 0}, {"type": "note_on", "time": 389, "note": 75, "velocity": 110, "channel": 0}, {"type": "note_off", "time": 190, "note": 75, "velocity": 110, "channel": 0}, {"type": "note_on", "time": 608, "note": 77, "velocity": 105, "channel": 0}, {"type": "note_off", "time": 209, "note": 77, "velocity": 105, "channel": 0}, {"type": "note_on", "time": 38, "note": 79, "velocity": 108, "channel": 0}, {"type": "note_off", "time": 171, "note": 79, "velocity": 108, "channel": 0}, {"type": "note_on", "time": 218, "note": 79, "velocity": 105, "channel": 0}, {"type": "note_off", "time": 180, "note": 79, "velocity": 105, "channel": 0}, {"type": "note_on", "time": 28, "note": 79, "velocity": 106, "channel": 0}, {"type": "note_off", "time": 171, "note": 79, "velocity": 106, "channel": 0}, {"type": "note_on", "time": 228, "note": 77, "velocity": 110, "channel": 0}, {"type": "note_off", "time": 199, "note": 77, "velocity": 110, "channel": 0}, {"type": "note_on", "time": 608, "note": 77, "velocity": 108, "channel": 0}, {"type": "note_off", "time": 180, "note": 77, "velocity": 108, "channel": 0}, {"type": "note_on", "time": 9, "note": 75, "velocity": 112, "channel": 0}, {"type": "note_off", "time": 237, "note": 75, "velocity": 112, "channel": 0}, {"type": "note_on", "time": 817, "note": 77, "velocity": 108, "channel": 0}, {"type": "note_off", "time": 199, "note": 77, "velocity": 108, "channel": 0}, {"type": "note_on", "time": 28, "note": 79, "velocity": 107, "channel": 0}, {"type": "note_off", "time": 171, "note": 79, "velocity": 107, "channel": 0}, {"type": "note_on", "time": 199, "note": 77, "velocity": 111, "channel": 0}, {"type": "note_off", "time": 180, "note": 77, "velocity": 111, "channel": 0}, {"type": "note_on", "time": 209, "note": 75, "velocity": 105, "channel": 0}, {"type": "note_off", "time": 199, "note": 75, "velocity": 105, "channel": 0}, {"type": "note_on", "time": 1064, "note": 72, "velocity": 85, "channel": 0}, {"type": "note_off", "time": 152, "note": 72, "velocity": 85, "channel": 0}, {"type": "note_on", "time": 85, "note": 77, "velocity": 107, "channel": 0}, {"type": "note_off", "time": 209, "note": 77, "velocity": 107, "channel": 0}, {"type": "note_on", "time": 9, "note": 79, "velocity": 106, "channel": 0}, {"type": "note_off", "time": 171, "note": 79, "velocity": 106, "channel": 0}, {"type": "note_on", "time": 418, "note": 77, "velocity": 106, "channel": 0}, {"type": "note_off", "time": 199, "note": 77, "velocity": 106, "channel": 0}, {"type": "note_on", "time": 28, "note": 75, "velocity": 112, "channel": 0}, {"type": "note_off", "time": 199, "note": 75, "velocity": 112, "channel": 0}, {"type": "note_on", "time": 684, "note": 75, "velocity": 109, "channel": 0}, {"type": "note_off", "time": 237, "note": 75, "velocity": 109, "channel": 0}, {"type": "note_on", "time": 0, "note": 77, "velocity": 109, "channel": 0}, {"type": "note_off", "time": 171, "note": 77, "velocity": 109, "channel": 0}, {"type": "note_on", "time": 237, "note": 79, "velocity": 103, "channel": 0}, {"type": "note_off", "time": 190, "note": 79, "velocity": 103, "channel": 0}, {"type": "note_on", "time": 237, "note": 79, "velocity": 109, "channel": 0}, {"type": "note_off", "time": 180, "note": 79, "velocity": 109, "channel": 0}, {"type": "note_on", "time": 47, "note": 79, "velocity": 109, "channel": 0}, {"type": "note_off", "time": 152, "note": 79, "velocity": 109, "channel": 0}, {"type": "note_on", "time": 47, "note": 79, "velocity": 109, "channel": 0}, {"type": "note_off", "time": 180, "note": 79, "velocity": 109, "channel": 0}, {"type": "note_on", "time": 38, "note": 79, "velocity": 91, "channel": 0}, {"type": "note_off", "time": 180, "note": 79, "velocity": 91, "channel": 0}, {"type": "note_on", "time": 1150, "note": 76, "velocity": 108, "channel": 0}, {"type": "note_off", "time": 152, "note": 76, "velocity": 108, "channel": 0}, {"type": "note_on", "time": 19, "note": 79, "velocity": 108, "channel": 0}, {"type": "note_off", "time": 199, "note": 79, "velocity": 108, "channel": 0}, {"type": "note_on", "time": 19, "note": 80, "velocity": 107, "channel": 0}, {"type": "note_off", "time": 104, "note": 80, "velocity": 107, "channel": 0}, {"type": "note_on", "time": 9, "note": 77, "velocity": 95, "channel": 0}, {"type": "note_off", "time": 171, "note": 77, "velocity": 95, "channel": 0}, {"type": "note_on", "time": 114, "note": 79, "velocity": 111, "channel": 0}, {"type": "note_off", "time": 180, "note": 79, "velocity": 111, "channel": 0}, {"type": "note_on", "time": 38, "note": 77, "velocity": 111, "channel": 0}, {"type": "note_off", "time": 199, "note": 77, "velocity": 111, "channel": 0}, {"type": "note_on", "time": 38, "note": 77, "velocity": 108, "channel": 0}, {"type": "note_off", "time": 218, "note": 77, "velocity": 108, "channel": 0}, {"type": "note_on", "time": 941, "note": 75, "velocity": 108, "channel": 0}, {"type": "note_off", "time": 199, "note": 75, "velocity": 108, "channel": 0}, {"type": "note_on", "time": 19, "note": 77, "velocity": 97, "channel": 0}, {"type": "note_off", "time": 190, "note": 77, "velocity": 97, "channel": 0}, {"type": "note_on", "time": 142, "note": 79, "velocity": 107, "channel": 0}, {"type": "note_off", "time": 171, "note": 79, "velocity": 107, "channel": 0}, {"type": "note_on", "time": 47, "note": 79, "velocity": 111, "channel": 0}, {"type": "note_off", "time": 199, "note": 79, "velocity": 111, "channel": 0}, {"type": "note_on", "time": 19, "note": 77, "velocity": 112, "channel": 0}, {"type": "note_off", "time": 180, "note": 77, "velocity": 112, "channel": 0}, {"type": "note_on", "time": 19, "note": 77, "velocity": 104, "channel": 0}, {"type": "note_off", "time": 199, "note": 77, "velocity": 104, "channel": 0}, {"type": "note_on", "time": 2766, "note": 89, "velocity": 109, "channel": 0}, {"type": "note_off", "time": 123, "note": 89, "velocity": 109, "channel": 0}, {"type": "note_on", "time": 19, "note": 90, "velocity": 113, "channel": 0}, {"type": "note_off", "time": 171, "note": 90, "velocity": 113, "channel": 0}, {"type": "note_on", "time": 646, "note": 78, "velocity": 113, "channel": 0}, {"type": "note_off", "time": 313, "note": 78, "velocity": 113, "channel": 0}, {"type": "note_on", "time": 95, "note": 80, "velocity": 113, "channel": 0}, {"type": "note_off", "time": 218, "note": 80, "velocity": 113, "channel": 0}, {"type": "note_on", "time": 85, "note": 81, "velocity": 117, "channel": 0}, {"type": "note_off", "time": 770, "note": 81, "velocity": 117, "channel": 0}, {"type": "note_on", "time": 47, "note": 79, "velocity": 110, "channel": 0}, {"type": "note_off", "time": 351, "note": 79, "velocity": 110, "channel": 0}, {"type": "note_on", "time": 19, "note": 77, "velocity": 112, "channel": 0}, {"type": "note_off", "time": 408, "note": 77, "velocity": 112, "channel": 0}, {"type": "note_on", "time": 66, "note": 72, "velocity": 110, "channel": 0}, {"type": "note_off", "time": 475, "note": 72, "velocity": 110, "channel": 0}, {"type": "note_on", "time": 9, "note": 67, "velocity": 110, "channel": 0}, {"type": "note_on", "time": 218, "note": 66, "velocity": 104, "channel": 0}, {"type": "note_off", "time": 0, "note": 67, "velocity": 110, "channel": 0}, {"type": "note_off", "time": 114, "note": 66, "velocity": 104, "channel": 0}, {"type": "note_on", "time": 133, "note": 69, "velocity": 102, "channel": 0}, {"type": "note_off", "time": 247, "note": 69, "velocity": 102, "channel": 0}, {"type": "note_on", "time": 66, "note": 65, "velocity": 112, "channel": 0}, {"type": "note_off", "time": 1217, "note": 65, "velocity": 112, "channel": 0}, {"type": "note_on", "time": 19, "note": 63, "velocity": 9, "channel": 0}, {"type": "note_off", "time": 789, "note": 63, "velocity": 9, "channel": 0}, {"type": "note_on", "time": 47, "note": 60, "velocity": 104, "channel": 0}, {"type": "note_off", "time": 342, "note": 60, "velocity": 104, "channel": 0}, {"type": "note_on", "time": 76, "note": 56, "velocity": 103, "channel": 0}, {"type": "note_off", "time": 5743, "note": 56, "velocity": 103, "channel": 0}, {"type": "note_on", "time": 1787, "note": 53, "velocity": 100, "channel": 0}, {"type": "note_off", "time": 285, "note": 53, "velocity": 100, "channel": 0}, {"type": "note_on", "time": 57, "note": 53, "velocity": 99, "channel": 0}, {"type": "note_off", "time": 361, "note": 53, "velocity": 99, "channel": 0}, {"type": "note_on", "time": 38, "note": 53, "velocity": 101, "channel": 0}, {"type": "note_off", "time": 370, "note": 53, "velocity": 101, "channel": 0}, {"type": "note_on", "time": 57, "note": 53, "velocity": 99, "channel": 0}, {"type": "note_off", "time": 817, "note": 53, "velocity": 99, "channel": 0}, {"type": "end_of_track", "time": 0}]]}