{"ticks_per_beat": 192, "tracks": [[{"type": "track_name", "name": "Melody", "time": 0}, {"type": "set_tempo", "tempo": 206185, "time": 0}, {"type": "key_signature", "key": "F", "time": 0}, {"type": "time_signature", "numerator": 4, "denominator": 4, "clocks_per_click": 24, "notated_32nd_notes_per_beat": 8, "time": 0}, {"type": "note_on", "time": 4595, "note": 67, "velocity": 95, "channel": 0}, {"type": "note_off", "time": 91, "note": 67, "velocity": 95, "channel": 0}, {"type": "note_on", "time": 7, "note": 68, "velocity": 93, "channel": 0}, {"type": "note_off", "time": 152, "note": 68, "velocity": 93, "channel": 0}, {"type": "note_on", "time": 167, "note": 67, "velocity": 102, "channel": 0}, {"type": "note_off", "time": 182, "note": 67, "velocity": 102, "channel": 0}, {"type": "note_on", "time": 30, "note": 66, "velocity": 86, "channel": 0}, {"type": "note_off", "time": 174, "note": 66, "velocity": 86, "channel": 0}, {"type": "note_on", "time": 3, "note": 64, "velocity": 85, "channel": 0}, {"type": "note_off", "time": 45, "note": 64, "velocity": 85, "channel": 0}, {"type": "note_on", "time": 15, "note": 65, "velocity": 88, "channel": 0}, {"type": "note_off", "time": 121, "note": 65, "velocity": 88, "channel": 0}, {"type": "note_on", "time": 49, "note": 67, "velocity": 98, "channel": 0}, {"type": "note_off", "time": 254, "note": 67, "velocity": 98, "channel": 0}, {"type": "note_on", "time": 335, "note": 65, "velocity": 72, "channel": 0}, {"type": "note_off", "time": 124, "note": 65, "velocity": 72, "channel": 0}, {"type": "note_on", "time": 106, "note": 67, "velocity": 103, "channel": 0}, {"type": "note_off", "time": 148, "note": 67, "velocity": 103, "channel": 0}, {"type": "note_on", "time": 11, "note": 66, "velocity": 93, "channel": 0}, {"type": "note_off", "time": 136, "note": 66, "velocity": 93, "channel": 0}, {"type": "note_on", "time": 15, "note": 67, "velocity": 93, "channel": 0}, {"type": "note_off", "time": 178, "note": 67, "velocity": 93, "channel": 0}, {"type": "note_on", "time": 7, "note": 64, "velocity": 80, "channel": 0}, {"type": "note_off", "time": 79, "note": 64, "velocity": 80, "channel": 0}, {"type": "note_on", "time": 15, "note": 65, "velocity": 102, "channel": 0}, {"type": "note_off", "time": 68, "note": 65, "velocity": 102, "channel": 0}, {"type": "note_on", "time": 30, "note": 67, "velocity": 92, "channel": 0}, {"type": "note_off", "time": 87, "note": 67, "velocity": 92, "channel": 0}, {"type": "note_on", "time": 110, "note": 68, "velocity": 93, "channel": 0}, {"type": "note_off", "time": 91, "note": 68, "velocity": 93, "channel": 0}, {"type": "note_on", "time": 79, "note": 64, "velocity": 96, "channel": 0}, {"type": "note_off", "time": 91, "note": 64, "velocity": 96, "channel": 0}, {"type": "note_on", "time": 117, "note": 67, "velocity": 105, "channel": 0}, {"type": "note_off", "time": 144, "note": 67, "velocity": 105, "channel": 0}, {"type": "note_on", "time": 15, "note": 66, "velocity": 93, "channel": 0}, {"type": "note_off", "time": 129, "note": 66, "velocity": 93, "channel": 0}, {"type": "note_on", "time": 11, "note": 67, "velocity": 91, "channel": 0}, {"type": "note_off", "time": 83, "note": 67, "velocity": 91, "channel": 0}, {"type": "note_on", "time": 0, "note": 64, "velocity": 83, "channel": 0}, {"type": "note_off", "time": 98, "note": 64, "velocity": 83, "channel": 0}, {"type": "note_on", "time": 6, "note": 65, "velocity": 93, "channel": 0}, {"type": "note_off", "time": 67, "note": 65, "velocity": 93, "channel": 0}, {"type": "note_on", "time": 66, "note": 67, "velocity": 97, "channel": 0}, {"type": "note_off", "time": 342, "note": 67, "velocity": 97, "channel": 0}, {"type": "note_on", "time": 494, "note": 63, "velocity": 92, "channel": 0}, {"type": "note_off", "time": 106, "note": 63, "velocity": 92, "channel": 0}, {"type": "note_on", "time": 3, "note": 62, "velocity": 90, "channel": 0}, {"type": "note_off", "time": 76, "note": 62, "velocity": 90, "channel": 0}, {"type": "note_on", "time": 7, "note": 63, "velocity": 96, "channel": 0}, {"type": "note_off", "time": 81, "note": 63, "velocity": 96, "channel": 0}, {"type": "note_on", "time": 1, "note": 65, "velocity": 92, "channel": 0}, {"type": "note_off", "time": 98, "note": 65, "velocity": 92, "channel": 0}, {"type": "note_on", "time": 0, "note": 67, "velocity": 97, "channel": 0}, {"type": "note_off", "time": 106, "note": 67, "velocity": 97, "channel": 0}, {"type": "note_on", "time": 7, "note": 69, "velocity": 102, "channel": 0}, {"type": "note_off", "time": 81, "note": 69, "velocity": 102, "channel": 0}, {"type": "note_on", "time": 5, "note": 70, "velocity": 107, "channel": 0}, {"type": "note_off", "time": 106, "note": 70, "velocity": 107, "channel": 0}, {"type": "note_on", "time": 3, "note": 69, "velocity": 109, "channel": 0}, {"type": "note_off", "time": 79, "note": 69, "velocity": 109, "channel": 0}, {"type": "note_on", "time": 3, "note": 68, "velocity": 105, "channel": 0}, {"type": "note_off", "time": 114, "note": 68, "velocity": 105, "channel": 0}, {"type": "note_on", "time": 3, "note": 70, "velocity": 108, "channel": 0}, {"type": "note_off", "time": 68, "note": 70, "velocity": 108, "channel": 0}, {"type": "note_on", "time": 11, "note": 71, "velocity": 103, "channel": 0}, {"type": "note_off", "time": 106, "note": 71, "velocity": 103, "channel": 0}, {"type": "note_on", "time": 7, "note": 72, "velocity": 106, "channel": 0}, {"type": "note_off", "time": 60, "note": 72, "velocity": 106, "channel": 0}, {"type": "note_on", "time": 0, "note": 74, "velocity": 108, "channel": 0}, {"type": "note_off", "time": 152, "note": 74, "velocity": 108, "channel": 0}, {"type": "note_on", "time": 57, "note": 74, "velocity": 112, "channel": 0}, {"type": "note_off", "time": 334, "note": 74, "velocity": 112, "channel": 0}, {"type": "note_on", "time": 0, "note": 75, "velocity": 111, "channel": 0}, {"type": "note_off", "time": 691, "note": 75, "velocity": 111, "channel": 0}, {"type": "note_on", "time": 15, "note": 74, "velocity": 100, "channel": 0}, {"type": "note_off", "time": 49, "note": 74, "velocity": 100, "channel": 0}, {"type": "note_on", "time": 26, "note": 69, "velocity": 100, "channel": 0}, {"type": "note_off", "time": 53, "note": 69, "velocity": 100, "channel": 0}, {"type": "note_on", "time": 19, "note": 68, "velocity": 95, "channel": 0}, {"type": "note_off", "time": 64, "note": 68, "velocity": 95, "channel": 0}, {"type": "note_on", "time": 509, "note": 76, "velocity": 113, "channel": 0}, {"type": "note_off", "time": 573, "note": 76, "velocity": 113, "channel": 0}, {"type": "note_on", "time": 11, "note": 72, "velocity": 80, "channel": 0}, {"type": "note_on", "time": 38, "note": 70, "velocity": 90, "channel": 0}, {"type": "note_off", "time": 0, "note": 72, "velocity": 80, "channel": 0}, {"type": "note_off", "time": 129, "note": 70, "velocity": 90, "channel": 0}, {"type": "note_on", "time": 729, "note": 67, "velocity": 83, "channel": 0}, {"type": "note_off", "time": 95, "note": 67, "velocity": 83, "channel": 0}, {"type": "note_on", "time": 26, "note": 69, "velocity": 100, "channel": 0}, {"type": "note_off", "time": 83, "note": 69, "velocity": 100, "channel": 0}, {"type": "note_on", "time": 12, "note": 70, "velocity": 100, "channel": 0}, {"type": "note_off", "time": 86, "note": 70, "velocity": 100, "channel": 0}, {"type": "note_on", "time": 2, "note": 71, "velocity": 101, "channel": 0}, {"type": "note_off", "time": 94, "note": 71, "velocity": 101, "channel": 0}, {"type": "note_on", "time": 2, "note": 72, "velocity": 105, "channel": 0}, {"type": "note_off", "time": 70, "note": 72, "velocity": 105, "channel": 0}, {"type": "note_on", "time": 10, "note": 73, "velocity": 97, "channel": 0}, {"type": "note_off", "time": 81, "note": 73, "velocity": 97, "channel": 0}, {"type": "note_on", "time": 13, "note": 74, "velocity": 97, "channel": 0}, {"type": "note_off", "time": 102, "note": 74, "velocity": 97, "channel": 0}, {"type": "note_on", "time": 8, "note": 76, "velocity": 106, "channel": 0}, {"type": "note_off", "time": 118, "note": 76, "velocity": 106, "channel": 0}, {"type": "note_on", "time": 5, "note": 73, "velocity": 105, "channel": 0}, {"type": "note_off", "time": 67, "note": 73, "velocity": 105, "channel": 0}, {"type": "note_on", "time": 5, "note": 74, "velocity": 102, "channel": 0}, {"type": "note_off", "time": 102, "note": 74, "velocity": 102, "channel": 0}, {"type": "note_on", "time": 35, "note": 72, "velocity": 101, "channel": 0}, {"type": "note_off", "time": 81, "note": 72, "velocity": 101, "channel": 0}, {"type": "note_on", "time": 8, "note": 71, "velocity": 94, "channel": 0}, {"type": "note_off", "time": 67, "note": 71, "velocity": 94, "channel": 0}, {"type": "note_on", "time": 16, "note": 69, "velocity": 102, "channel": 0}, {"type": "note_off", "time": 83, "note": 69, "velocity": 102, "channel": 0}, {"type": "note_on", "time": 13, "note": 67, "velocity": 92, "channel": 0}, {"type": "note_off", "time": 121, "note": 67, "velocity": 92, "channel": 0}, {"type": "note_on", "time": 21, "note": 69, "velocity": 92, "channel": 0}, {"type": "note_off", "time": 48, "note": 69, "velocity": 92, "channel": 0}, {"type": "note_on", "time": 18, "note": 70, "velocity": 95, "channel": 0}, {"type": "note_off", "time": 81, "note": 70, "velocity": 95, "channel": 0}, {"type": "note_on", "time": 27, "note": 71, "velocity": 72, "channel": 0}, {"type": "note_off", "time": 76, "note": 71, "velocity": 72, "channel": 0}, {"type": "note_on", "time": 7, "note": 69, "velocity": 97, "channel": 0}, {"type": "note_off", "time": 145, "note": 69, "velocity": 97, "channel": 0}, {"type": "note_on", "time": 18, "note": 67, "velocity": 99, "channel": 0}, {"type": "note_off", "time": 105, "note": 67, "velocity": 99, "channel": 0}, {"type": "note_on", "time": 13, "note": 64, "velocity": 91, "channel": 0}, {"type": "note_off", "time": 70, "note": 64, "velocity": 91, "channel": 0}, {"type": "note_on", "time": 13, "note": 65, "velocity": 100, "channel": 0}, {"type": "note_off", "time": 121, "note": 65, "velocity": 100, "channel": 0}, {"type": "note_on", "time": 21, "note": 63, "velocity": 82, "channel": 0}, {"type": "note_off", "time": 48, "note": 63, "velocity": 82, "channel": 0}, {"type": "note_on", "time": 8, "note": 64, "velocity": 88, "channel": 0}, {"type": "note_off", "time": 100, "note": 64, "velocity": 88, "channel": 0}, {"type": "note_on", "time": 5, "note": 67, "velocity": 83, "channel": 0}, {"type": "note_off", "time": 67, "note": 67, "velocity": 83, "channel": 0}, {"type": "note_on", "time": 27, "note": 70, "velocity": 102, "channel": 0}, {"type": "note_off", "time": 83, "note": 70, "velocity": 102, "channel": 0}, {"type": "note_on", "time": 21, "note": 72, "velocity": 88, "channel": 0}, {"type": "note_off", "time": 70, "note": 72, "velocity": 88, "channel": 0}, {"type": "note_on", "time": 21, "note": 73, "velocity": 100, "channel": 0}, {"type": "note_off", "time": 81, "note": 73, "velocity": 100, "channel": 0}, {"type": "note_on", "time": 8, "note": 71, "velocity": 101, "channel": 0}, {"type": "note_off", "time": 79, "note": 71, "velocity": 101, "channel": 0}, {"type": "note_on", "time": 8, "note": 72, "velocity": 97, "channel": 0}, {"type": "note_off", "time": 110, "note": 72, "velocity": 97, "channel": 0}, {"type": "note_on", "time": 0, "note": 71, "velocity": 104, "channel": 0}, {"type": "note_off", "time": 83, "note": 71, "velocity": 104, "channel": 0}, {"type": "note_on", "time": 8, "note": 70, "velocity": 98, "channel": 0}, {"type": "note_off", "time": 86, "note": 70, "velocity": 98, "channel": 0}, {"type": "note_on", "time": 5, "note": 69, "velocity": 103, "channel": 0}, {"type": "note_off", "time": 86, "note": 69, "velocity": 103, "channel": 0}, {"type": "note_on", "time": 9, "note": 68, "velocity": 95, "channel": 0}, {"type": "note_off", "time": 53, "note": 68, "velocity": 95, "channel": 0}, {"type": "note_on", "time": 42, "note": 64, "velocity": 86, "channel": 0}, {"type": "note_off", "time": 127, "note": 64, "velocity": 86, "channel": 0}, {"type": "note_on", "time": 751, "note": 62, "velocity": 93, "channel": 0}, {"type": "note_off", "time": 89, "note": 62, "velocity": 93, "channel": 0}, {"type": "note_on", "time": 5, "note": 63, "velocity": 88, "channel": 0}, {"type": "note_off", "time": 81, "note": 63, "velocity": 88, "channel": 0}, {"type": "note_on", "time": 16, "note": 64, "velocity": 95, "channel": 0}, {"type": "note_off", "time": 94, "note": 64, "velocity": 95, "channel": 0}, {"type": "note_on", "time": 5, "note": 65, "velocity": 91, "channel": 0}, {"type": "note_off", "time": 116, "note": 65, "velocity": 91, "channel": 0}, {"type": "note_on", "time": 91, "note": 67, "velocity": 100, "channel": 0}, {"type": "note_off", "time": 137, "note": 67, "velocity": 100, "channel": 0}, {"type": "note_on", "time": 0, "note": 66, "velocity": 93, "channel": 0}, {"type": "note_off", "time": 72, "note": 66, "velocity": 93, "channel": 0}, {"type": "note_on", "time": 21, "note": 64, "velocity": 89, "channel": 0}, {"type": "note_off", "time": 70, "note": 64, "velocity": 89, "channel": 0}, {"type": "note_on", "time": 11, "note": 65, "velocity": 89, "channel": 0}, {"type": "note_off", "time": 94, "note": 65, "velocity": 89, "channel": 0}, {"type": "note_on", "time": 0, "note": 67, "velocity": 95, "channel": 0}, {"type": "note_off", "time": 108, "note": 67, "velocity": 95, "channel": 0}, {"type": "note_on", "time": 18, "note": 71, "velocity": 91, "channel": 0}, {"type": "note_off", "time": 54, "note": 71, "velocity": 91, "channel": 0}, {"type": "note_on", "time": 2, "note": 69, "velocity": 104, "channel": 0}, {"type": "note_off", "time": 102, "note": 69, "velocity": 104, "channel": 0}, {"type": "note_on", "time": 0, "note": 67, "velocity": 99, "channel": 0}, {"type": "note_off", "time": 97, "note": 67, "velocity": 99, "channel": 0}, {"type": "note_on", "time": 8, "note": 69, "velocity": 94, "channel": 0}, {"type": "note_off", "time": 62, "note": 69, "velocity": 94, "channel": 0}, {"type": "note_on", "time": 16, "note": 70, "velocity": 109, "channel": 0}, {"type": "note_off", "time": 129, "note": 70, "velocity": 109, "channel": 0}, {"type": "note_on", "time": 3, "note": 68, "velocity": 99, "channel": 0}, {"type": "note_off", "time": 62, "note": 68, "velocity": 99, "channel": 0}, {"type": "note_on", "time": 7, "note": 69, "velocity": 105, "channel": 0}, {"type": "note_off", "time": 97, "note": 69, "velocity": 105, "channel": 0}, {"type": "note_on", "time": 10, "note": 67, "velocity": 100, "channel": 0}, {"type": "note_off", "time": 72, "note": 67, "velocity": 100, "channel": 0}, {"type": "note_on", "time": 13, "note": 68, "velocity": 104, "channel": 0}, {"type": "note_off", "time": 89, "note": 68, "velocity": 104, "channel": 0}, {"type": "note_on", "time": 8, "note": 70, "velocity": 107, "channel": 0}, {"type": "note_off", "time": 81, "note": 70, "velocity": 107, "channel": 0}, {"type": "note_on", "time": 5, "note": 71, "velocity": 105, "channel": 0}, {"type": "note_off", "time": 81, "note": 71, "velocity": 105, "channel": 0}, {"type": "note_on", "time": 8, "note": 72, "velocity": 108, "channel": 0}, {"type": "note_off", "time": 48, "note": 72, "velocity": 108, "channel": 0}, {"type": "note_on", "time": 13, "note": 73, "velocity": 105, "channel": 0}, {"type": "note_off", "time": 64, "note": 73, "velocity": 105, "channel": 0}, {"type": "note_on", "time": 0, "note": 74, "velocity": 110, "channel": 0}, {"type": "note_off", "time": 91, "note": 74, "velocity": 110, "channel": 0}, {"type": "note_on", "time": 13, "note": 75, "velocity": 111, "channel": 0}, {"type": "note_off", "time": 418, "note": 75, "velocity": 111, "channel": 0}, {"type": "note_on", "time": 978, "note": 68, "velocity": 89, "channel": 0}, {"type": "note_off", "time": 91, "note": 68, "velocity": 89, "channel": 0}, {"type": "note_on", "time": 8, "note": 70, "velocity": 109, "channel": 0}, {"type": "note_off", "time": 83, "note": 70, "velocity": 109, "channel": 0}, {"type": "note_on", "time": 8, "note": 71, "velocity": 100, "channel": 0}, {"type": "note_off", "time": 59, "note": 71, "velocity": 100, "channel": 0}, {"type": "note_on", "time": 32, "note": 77, "velocity": 113, "channel": 0}, {"type": "note_off", "time": 43, "note": 77, "velocity": 113, "channel": 0}, {"type": "note_on", "time": 5, "note": 78, "velocity": 112, "channel": 0}, {"type": "note_off", "time": 43, "note": 78, "velocity": 112, "channel": 0}, {"type": "note_on", "time": 13, "note": 79, "velocity": 105, "channel": 0}, {"type": "note_off", "time": 35, "note": 79, "velocity": 105, "channel": 0}, {"type": "note_on", "time": 21, "note": 80, "velocity": 109, "channel": 0}, {"type": "note_off", "time": 29, "note": 80, "velocity": 109, "channel": 0}, {"type": "note_on", "time": 13, "note": 82, "velocity": 104, "channel": 0}, {"type": "note_off", "time": 35, "note": 82, "velocity": 104, "channel": 0}, {"type": "note_on", "time": 0, "note": 84, "velocity": 115, "channel": 0}, {"type": "note_off", "time": 45, "note": 84, "velocity": 115, "channel": 0}, {"type": "note_on", "time": 0, "note": 85, "velocity": 113, "channel": 0}, {"type": "note_off", "time": 56, "note": 85, "velocity": 113, "channel": 0}, {"type": "note_on", "time": 21, "note": 87, "velocity": 112, "channel": 0}, {"type": "note_off", "time": 172, "note": 87, "velocity": 112, "channel": 0}, {"type": "note_on", "time": 551, "note": 85, "velocity": 110, "channel": 0}, {"type": "note_off", "time": 89, "note": 85, "velocity": 110, "channel": 0}, {"type": "note_on", "time": 21, "note": 86, "velocity": 118, "channel": 0}, {"type": "note_off", "time": 540, "note": 86, "velocity": 118, "channel": 0}, {"type": "note_on", "time": 27, "note": 87, "velocity": 111, "channel": 0}, {"type": "note_off", "time": 681, "note": 87, "velocity": 111, "channel": 0}, {"type": "note_on", "time": 40, "note": 88, "velocity": 112, "channel": 0}, {"type": "note_off", "time": 145, "note": 88, "velocity": 112, "channel": 0}, {"type": "note_on", "time": 0, "note": 87, "velocity": 111, "channel": 0}, {"type": "note_off", "time": 459, "note": 87, "velocity": 111, "channel": 0}, {"type": "note_on", "time": 732, "note": 86, "velocity": 106, "channel": 0}, {"type": "note_off", "time": 94, "note": 86, "velocity": 106, "channel": 0}, {"type": "note_on", "time": 13, "note": 87, "velocity": 115, "channel": 0}, {"type": "note_off", "time": 210, "note": 87, "velocity": 115, "channel": 0}, {"type": "note_on", "time": 5, "note": 85, "velocity": 109, "channel": 0}, {"type": "note_off", "time": 89, "note": 85, "velocity": 109, "channel": 0}, {"type": "note_on", "time": 18, "note": 85, "velocity": 110, "channel": 0}, {"type": "note_off", "time": 78, "note": 85, "velocity": 110, "channel": 0}, {"type": "note_on", "time": 0, "note": 84, "velocity": 97, "channel": 0}, {"type": "note_off", "time": 75, "note": 84, "velocity": 97, "channel": 0}, {"type": "note_on", "time": 2, "note": 81, "velocity": 103, "channel": 0}, {"type": "note_off", "time": 100, "note": 81, "velocity": 103, "channel": 0}, {"type": "note_on", "time": 3, "note": 79, "velocity": 107, "channel": 0}, {"type": "note_off", "time": 69, "note": 79, "velocity": 107, "channel": 0}, {"type": "note_on", "time": 0, "note": 76, "velocity": 99, "channel": 0}, {"type": "note_off", "time": 121, "note": 76, "velocity": 99, "channel": 0}, {"type": "note_on", "time": 67, "note": 83, "velocity": 92, "channel": 0}, {"type": "note_off", "time": 129, "note": 83, "velocity": 92, "channel": 0}, {"type": "note_on", "time": 13, "note": 79, "velocity": 105, "channel": 0}, {"type": "note_off", "time": 175, "note": 79, "velocity": 105, "channel": 0}, {"type": "note_on", "time": 62, "note": 76, "velocity": 95, "channel": 0}, {"type": "note_off", "time": 72, "note": 76, "velocity": 95, "channel": 0}, {"type": "note_on", "time": 18, "note": 74, "velocity": 98, "channel": 0}, {"type": "note_off", "time": 97, "note": 74, "velocity": 98, "channel": 0}, {"type": "note_on", "time": 16, "note": 76, "velocity": 102, "channel": 0}, {"type": "note_off", "time": 143, "note": 76, "velocity": 102, "channel": 0}, {"type": "note_on", "time": 10, "note": 77, "velocity": 101, "channel": 0}, {"type": "note_off", "time": 45, "note": 77, "velocity": 101, "channel": 0}, {"type": "note_on", "time": 0, "note": 75, "velocity": 106, "channel": 0}, {"type": "note_off", "time": 59, "note": 75, "velocity": 106, "channel": 0}, {"type": "note_on", "time": 8, "note": 72, "velocity": 100, "channel": 0}, {"type": "note_off", "time": 36, "note": 72, "velocity": 100, "channel": 0}, {"type": "note_on", "time": 6, "note": 76, "velocity": 96, "channel": 0}, {"type": "note_off", "time": 86, "note": 76, "velocity": 96, "channel": 0}, {"type": "note_on", "time": 5, "note": 74, "velocity": 111, "channel": 0}, {"type": "note_off", "time": 89, "note": 74, "velocity": 111, "channel": 0}, {"type": "note_on", "time": 18, "note": 72, "velocity": 102, "channel": 0}, {"type": "note_off", "time": 91, "note": 72, "velocity": 102, "channel": 0}, {"type": "note_on", "time": 0, "note": 73, "velocity": 92, "channel": 0}, {"type": "note_off", "time": 100, "note": 73, "velocity": 92, "channel": 0}, {"type": "note_on", "time": 2, "note": 71, "velocity": 102, "channel": 0}, {"type": "note_off", "time": 89, "note": 71, "velocity": 102, "channel": 0}, {"type": "note_on", "time": 0, "note": 72, "velocity": 101, "channel": 0}, {"type": "note_off", "time": 89, "note": 72, "velocity": 101, "channel": 0}, {"type": "note_on", "time": 0, "note": 70, "velocity": 108, "channel": 0}, {"type": "note_off", "time": 81, "note": 70, "velocity": 108, "channel": 0}, {"type": "note_on", "time": 0, "note": 71, "velocity": 102, "channel": 0}, {"type": "note_off", "time": 113, "note": 71, "velocity": 102, "channel": 0}, {"type": "note_on", "time": 0, "note": 69, "velocity": 95, "channel": 0}, {"type": "note_off", "time": 67, "note": 69, "velocity": 95, "channel": 0}, {"type": "note_on", "time": 13, "note": 70, "velocity": 107, "channel": 0}, {"type": "note_off", "time": 105, "note": 70, "velocity": 107, "channel": 0}, {"type": "note_on", "time": 2, "note": 68, "velocity": 94, "channel": 0}, {"type": "note_off", "time": 81, "note": 68, "velocity": 94, "channel": 0}, {"type": "note_on", "time": 8, "note": 69, "velocity": 103, "channel": 0}, {"type": "note_off", "time": 86, "note": 69, "velocity": 103, "channel": 0}, {"type": "note_on", "time": 0, "note": 67, "velocity": 96, "channel": 0}, {"type": "note_off", "time": 75, "note": 67, "velocity": 96, "channel": 0}, {"type": "note_on", "time": 8, "note": 68, "velocity": 98, "channel": 0}, {"type": "note_off", "time": 78, "note": 68, "velocity": 98, "channel": 0}, {"type": "note_on", "time": 21, "note": 65, "velocity": 96, "channel": 0}, {"type": "note_off", "time": 91, "note": 65, "velocity": 96, "channel": 0}, {"type": "note_on", "time": 5, "note": 67, "velocity": 89, "channel": 0}, {"type": "note_off", "time": 89, "note": 67, "velocity": 89, "channel": 0}, {"type": "note_on", "time": 51, "note": 64, "velocity": 91, "channel": 0}, {"type": "note_off", "time": 78, "note": 64, "velocity": 91, "channel": 0}, {"type": "note_on", "time": 10, "note": 65, "velocity": 98, "channel": 0}, {"type": "note_off", "time": 89, "note": 65, "velocity": 98, "channel": 0}, {"type": "note_on", "time": 178, "note": 62, "velocity": 85, "channel": 0}, {"type": "note_off", "time": 89, "note": 62, "velocity": 85, "channel": 0}, {"type": "note_on", "time": 5, "note": 63, "velocity": 86, "channel": 0}, {"type": "note_off", "time": 267, "note": 63, "velocity": 86, "channel": 0}, {"type": "note_on", "time": 218, "note": 67, "velocity": 104, "channel": 0}, {"type": "note_off", "time": 105, "note": 67, "velocity": 104, "channel": 0}, {"type": "note_on", "time": 18, "note": 66, "velocity": 95, "channel": 0}, {"type": "note_off", "time": 70, "note": 66, "velocity": 95, "channel": 0}, {"type": "note_on", "time": 18, "note": 64, "velocity": 80, "channel": 0}, {"type": "note_off", "time": 78, "note": 64, "velocity": 80, "channel": 0}, {"type": "note_on", "time": 8, "note": 65, "velocity": 89, "channel": 0}, {"type": "note_off", "time": 89, "note": 65, "velocity": 89, "channel": 0}, {"type": "note_on", "time": 5, "note": 67, "velocity": 94, "channel": 0}, {"type": "note_off", "time": 108, "note": 67, "velocity": 94, "channel": 0}, {"type": "note_on", "time": 0, "note": 68, "velocity": 93, "channel": 0}, {"type": "note_off", "time": 81, "note": 68, "velocity": 93, "channel": 0}, {"type": "note_on", "time": 0, "note": 70, "velocity": 99, "channel": 0}, {"type": "note_off", "time": 97, "note": 70, "velocity": 99, "channel": 0}, {"type": "note_on", "time": 8, "note": 71, "velocity": 98, "channel": 0}, {"type": "note_off", "time": 70, "note": 71, "velocity": 98, "channel": 0}, {"type": "note_on", "time": 2, "note": 72, "velocity": 104, "channel": 0}, {"type": "note_off", "time": 78, "note": 72, "velocity": 104, "channel": 0}, {"type": "note_on", "time": 2, "note": 73, "velocity": 100, "channel": 0}, {"type": "note_off", "time": 86, "note": 73, "velocity": 100, "channel": 0}, {"type": "note_on", "time": 8, "note": 74, "velocity": 107, "channel": 0}, {"type": "note_off", "time": 118, "note": 74, "velocity": 107, "channel": 0}, {"type": "note_on", "time": 18, "note": 75, "velocity": 106, "channel": 0}, {"type": "note_off", "time": 91, "note": 75, "velocity": 106, "channel": 0}, {"type": "note_on", "time": 175, "note": 76, "velocity": 98, "channel": 0}, {"type": "note_off", "time": 56, "note": 76, "velocity": 98, "channel": 0}, {"type": "note_on", "time": 2, "note": 77, "velocity": 109, "channel": 0}, {"type": "note_off", "time": 159, "note": 77, "velocity": 109, "channel": 0}, {"type": "note_on", "time": 254, "note": 79, "velocity": 108, "channel": 0}, {"type": "note_off", "time": 154, "note": 79, "velocity": 108, "channel": 0}, {"type": "note_on", "time": 5, "note": 78, "velocity": 107, "channel": 0}, {"type": "note_off", "time": 89, "note": 78, "velocity": 107, "channel": 0}, {"type": "note_on", "time": 0, "note": 79, "velocity": 82, "channel": 0}, {"type": "note_off", "time": 83, "note": 79, "velocity": 82, "channel": 0}, {"type": "note_on", "time": 378, "note": 76, "velocity": 102, "channel": 0}, {"type": "note_off", "time": 105, "note": 76, "velocity": 102, "channel": 0}, {"type": "note_on", "time": 8, "note": 75, "velocity": 97, "channel": 0}, {"type": "note_off", "time": 313, "note": 75, "velocity": 97, "channel": 0}, {"type": "note_on", "time": 27, "note": 68, "velocity": 87, "channel": 0}, {"type": "note_off", "time": 89, "note": 68, "velocity": 87, "channel": 0}, {"type": "note_on", "time": 105, "note": 64, "velocity": 87, "channel": 0}, {"type": "note_off", "time": 83, "note": 64, "velocity": 87, "channel": 0}, {"type": "note_on", "time": 113, "note": 59, "velocity": 76, "channel": 0}, {"type": "note_off", "time": 121, "note": 59, "velocity": 76, "channel": 0}, {"type": "note_on", "time": 172, "note": 67, "velocity": 94, "channel": 0}, {"type": "note_off", "time": 121, "note": 67, "velocity": 94, "channel": 0}, {"type": "note_on", "time": 2, "note": 66, "velocity": 87, "channel": 0}, {"type": "note_off", "time": 118, "note": 66, "velocity": 87, "channel": 0}, {"type": "note_on", "time": 129, "note": 62, "velocity": 72, "channel": 0}, {"type": "note_off", "time": 86, "note": 62, "velocity": 72, "channel": 0}, {"type": "note_on", "time": 2, "note": 65, "velocity": 85, "channel": 0}, {"type": "note_off", "time": 113, "note": 65, "velocity": 85, "channel": 0}, {"type": "note_on", "time": 27, "note": 62, "velocity": 82, "channel": 0}, {"type": "note_off", "time": 81, "note": 62, "velocity": 82, "channel": 0}, {"type": "note_on", "time": 2, "note": 63, "velocity": 83, "channel": 0}, {"type": "note_off", "time": 91, "note": 63, "velocity": 83, "channel": 0}, {"type": "note_on", "time": 1051, "note": 63, "velocity": 86, "channel": 0}, {"type": "note_off", "time": 97, "note": 63, "velocity": 86, "channel": 0}, {"type": "note_on", "time": 2, "note": 62, "velocity": 82, "channel": 0}, {"type": "note_off", "time": 94, "note": 62, "velocity": 82, "channel": 0}, {"type": "note_on", "time": 8, "note": 63, "velocity": 82, "channel": 0}, {"type": "note_off", "time": 100, "note": 63, "velocity": 82, "channel": 0}, {"type": "note_on", "time": 13, "note": 65, "velocity": 86, "channel": 0}, {"type": "note_off", "time": 67, "note": 65, "velocity": 86, "channel": 0}, {"type": "note_on", "time": 18, "note": 67, "velocity": 84, "channel": 0}, {"type": "note_off", "time": 94, "note": 67, "velocity": 84, "channel": 0}, {"type": "note_on", "time": 0, "note": 72, "velocity": 81, "channel": 0}, {"type": "note_off", "time": 81, "note": 72, "velocity": 81, "channel": 0}, {"type": "note_on", "time": 16, "note": 70, "velocity": 103, "channel": 0}, {"type": "note_off", "time": 86, "note": 70, "velocity": 103, "channel": 0}, {"type": "note_on", "time": 10, "note": 68, "velocity": 95, "channel": 0}, {"type": "note_off", "time": 83, "note": 68, "velocity": 95, "channel": 0}, {"type": "note_on", "time": 2, "note": 69, "velocity": 99, "channel": 0}, {"type": "note_off", "time": 102, "note": 69, "velocity": 99, "channel": 0}, {"type": "note_on", "time": 91, "note": 64, "velocity": 89, "channel": 0}, {"type": "note_off", "time": 197, "note": 64, "velocity": 89, "channel": 0}, {"type": "note_on", "time": 105, "note": 67, "velocity": 100, "channel": 0}, {"type": "note_off", "time": 127, "note": 67, "velocity": 100, "channel": 0}, {"type": "note_on", "time": 5, "note": 66, "velocity": 91, "channel": 0}, {"type": "note_off", "time": 64, "note": 66, "velocity": 91, "channel": 0}, {"type": "note_on", "time": 5, "note": 64, "velocity": 88, "channel": 0}, {"type": "note_off", "time": 72, "note": 64, "velocity": 88, "channel": 0}, {"type": "note_on", "time": 0, "note": 65, "velocity": 87, "channel": 0}, {"type": "note_off", "time": 94, "note": 65, "velocity": 87, "channel": 0}, {"type": "note_on", "time": 13, "note": 67, "velocity": 80, "channel": 0}, {"type": "note_off", "time": 83, "note": 67, "velocity": 80, "channel": 0}, {"type": "note_on", "time": 2, "note": 69, "velocity": 99, "channel": 0}, {"type": "note_off", "time": 137, "note": 69, "velocity": 99, "channel": 0}, {"type": "note_on", "time": 2, "note": 70, "velocity": 101, "channel": 0}, {"type": "note_off", "time": 456, "note": 70, "velocity": 101, "channel": 0}, {"type": "note_on", "time": 8, "note": 73, "velocity": 91, "channel": 0}, {"type": "note_off", "time": 110, "note": 73, "velocity": 91, "channel": 0}, {"type": "note_on", "time": 62, "note": 66, "velocity": 77, "channel": 0}, {"type": "note_off", "time": 262, "note": 66, "velocity": 77, "channel": 0}, {"type": "note_on", "time": 159, "note": 65, "velocity": 91, "channel": 0}, {"type": "note_off", "time": 105, "note": 65, "velocity": 91, "channel": 0}, {"type": "note_on", "time": 9, "note": 63, "velocity": 79, "channel": 0}, {"type": "note_off", "time": 72, "note": 63, "velocity": 79, "channel": 0}, {"type": "note_on", "time": 1, "note": 64, "velocity": 82, "channel": 0}, {"type": "note_off", "time": 108, "note": 64, "velocity": 82, "channel": 0}, {"type": "note_on", "time": 0, "note": 62, "velocity": 77, "channel": 0}, {"type": "note_off", "time": 78, "note": 62, "velocity": 77, "channel": 0}, {"type": "note_on", "time": 16, "note": 63, "velocity": 95, "channel": 0}, {"type": "note_off", "time": 57, "note": 63, "velocity": 95, "channel": 0}, {"type": "note_on", "time": 22, "note": 65, "velocity": 93, "channel": 0}, {"type": "note_off", "time": 76, "note": 65, "velocity": 93, "channel": 0}, {"type": "note_on", "time": 15, "note": 67, "velocity": 90, "channel": 0}, {"type": "note_off", "time": 72, "note": 67, "velocity": 90, "channel": 0}, {"type": "note_on", "time": 21, "note": 68, "velocity": 86, "channel": 0}, {"type": "note_off", "time": 56, "note": 68, "velocity": 86, "channel": 0}, {"type": "note_on", "time": 8, "note": 69, "velocity": 92, "channel": 0}, {"type": "note_off", "time": 100, "note": 69, "velocity": 92, "channel": 0}, {"type": "note_on", "time": 8, "note": 70, "velocity": 95, "channel": 0}, {"type": "note_off", "time": 89, "note": 70, "velocity": 95, "channel": 0}, {"type": "note_on", "time": 0, "note": 71, "velocity": 84, "channel": 0}, {"type": "note_off", "time": 83, "note": 71, "velocity": 84, "channel": 0}, {"type": "note_on", "time": 18, "note": 75, "velocity": 90, "channel": 0}, {"type": "note_off", "time": 105, "note": 75, "velocity": 90, "channel": 0}, {"type": "note_on", "time": 0, "note": 73, "velocity": 93, "channel": 0}, {"type": "note_off", "time": 81, "note": 73, "velocity": 93, "channel": 0}, {"type": "note_on", "time": 5, "note": 74, "velocity": 93, "channel": 0}, {"type": "note_off", "time": 89, "note": 74, "velocity": 93, "channel": 0}, {"type": "note_on", "time": 18, "note": 75, "velocity": 88, "channel": 0}, {"type": "note_off", "time": 89, "note": 75, "velocity": 88, "channel": 0}, {"type": "note_on", "time": 13, "note": 73, "velocity": 99, "channel": 0}, {"type": "note_off", "time": 75, "note": 73, "velocity": 99, "channel": 0}, {"type": "note_on", "time": 13, "note": 74, "velocity": 86, "channel": 0}, {"type": "note_off", "time": 108, "note": 74, "velocity": 86, "channel": 0}, {"type": "note_on", "time": 5, "note": 72, "velocity": 93, "channel": 0}, {"type": "note_off", "time": 70, "note": 72, "velocity": 93, "channel": 0}, {"type": "note_on", "time": 2, "note": 71, "velocity": 91, "channel": 0}, {"type": "note_off", "time": 86, "note": 71, "velocity": 91, "channel": 0}, {"type": "note_on", "time": 56, "note": 69, "velocity": 88, "channel": 0}, {"type": "note_off", "time": 62, "note": 69, "velocity": 88, "channel": 0}, {"type": "note_on", "time": 5, "note": 70, "velocity": 91, "channel": 0}, {"type": "note_off", "time": 135, "note": 70, "velocity": 91, "channel": 0}, {"type": "note_on", "time": 640, "note": 74, "velocity": 104, "channel": 0}, {"type": "note_off", "time": 97, "note": 74, "velocity": 104, "channel": 0}, {"type": "note_on", "time": 2, "note": 74, "velocity": 106, "channel": 0}, {"type": "note_off", "time": 89, "note": 74, "velocity": 106, "channel": 0}, {"type": "note_on", "time": 35, "note": 74, "velocity": 104, "channel": 0}, {"type": "note_off", "time": 91, "note": 74, "velocity": 104, "channel": 0}, {"type": "note_on", "time": 24, "note": 74, "velocity": 100, "channel": 0}, {"type": "note_off", "time": 97, "note": 74, "velocity": 100, "channel": 0}, {"type": "note_on", "time": 18, "note": 74, "velocity": 104, "channel": 0}, {"type": "note_off", "time": 62, "note": 74, "velocity": 104, "channel": 0}, {"type": "note_on", "time": 8, "note": 75, "velocity": 99, "channel": 0}, {"type": "note_off", "time": 83, "note": 75, "velocity": 99, "channel": 0}, {"type": "note_on", "time": 857, "note": 81, "velocity": 100, "channel": 0}, {"type": "note_off", "time": 136, "note": 81, "velocity": 100, "channel": 0}, {"type": "note_on", "time": 22, "note": 76, "velocity": 105, "channel": 0}, {"type": "note_off", "time": 102, "note": 76, "velocity": 105, "channel": 0}, {"type": "note_on", "time": 5, "note": 79, "velocity": 102, "channel": 0}, {"type": "note_off", "time": 119, "note": 79, "velocity": 102, "channel": 0}, {"type": "note_on", "time": 6, "note": 76, "velocity": 97, "channel": 0}, {"type": "note_off", "time": 72, "note": 76, "velocity": 97, "channel": 0}, {"type": "note_on", "time": 0, "note": 77, "velocity": 105, "channel": 0}, {"type": "note_off", "time": 97, "note": 77, "velocity": 105, "channel": 0}, {"type": "note_on", "time": 702, "note": 76, "velocity": 104, "channel": 0}, {"type": "note_off", "time": 102, "note": 76, "velocity": 104, "channel": 0}, {"type": "note_on", "time": 2, "note": 77, "velocity": 99, "channel": 0}, {"type": "note_off", "time": 83, "note": 77, "velocity": 99, "channel": 0}, {"type": "note_on", "time": 7, "note": 76, "velocity": 92, "channel": 0}, {"type": "note_off", "time": 72, "note": 76, "velocity": 92, "channel": 0}, {"type": "note_on", "time": 1, "note": 74, "velocity": 91, "channel": 0}, {"type": "note_on", "time": 100, "note": 72, "velocity": 89, "channel": 0}, {"type": "note_off", "time": 0, "note": 74, "velocity": 91, "channel": 0}, {"type": "note_off", "time": 91, "note": 72, "velocity": 89, "channel": 0}, {"type": "note_on", "time": 18, "note": 71, "velocity": 92, "channel": 0}, {"type": "note_off", "time": 75, "note": 71, "velocity": 92, "channel": 0}, {"type": "note_on", "time": 16, "note": 70, "velocity": 96, "channel": 0}, {"type": "note_off", "time": 83, "note": 70, "velocity": 96, "channel": 0}, {"type": "note_on", "time": 10, "note": 69, "velocity": 95, "channel": 0}, {"type": "note_off", "time": 72, "note": 69, "velocity": 95, "channel": 0}, {"type": "note_on", "time": 16, "note": 68, "velocity": 86, "channel": 0}, {"type": "note_off", "time": 116, "note": 68, "velocity": 86, "channel": 0}, {"type": "note_on", "time": 681, "note": 67, "velocity": 101, "channel": 0}, {"type": "note_off", "time": 81, "note": 67, "velocity": 101, "channel": 0}, {"type": "note_on", "time": 5, "note": 66, "velocity": 90, "channel": 0}, {"type": "note_off", "time": 35, "note": 66, "velocity": 90, "channel": 0}, {"type": "note_on", "time": 13, "note": 67, "velocity": 92, "channel": 0}, {"type": "note_off", "time": 37, "note": 67, "velocity": 92, "channel": 0}, {"type": "note_on", "time": 0, "note": 65, "velocity": 86, "channel": 0}, {"type": "note_off", "time": 75, "note": 65, "velocity": 86, "channel": 0}, {"type": "note_on", "time": 13, "note": 64, "velocity": 93, "channel": 0}, {"type": "note_off", "time": 89, "note": 64, "velocity": 93, "channel": 0}, {"type": "note_on", "time": 14, "note": 63, "velocity": 83, "channel": 0}, {"type": "note_off", "time": 85, "note": 63, "velocity": 83, "channel": 0}, {"type": "note_on", "time": 0, "note": 65, "velocity": 100, "channel": 0}, {"type": "note_off", "time": 81, "note": 65, "velocity": 100, "channel": 0}, {"type": "note_on", "time": 27, "note": 61, "velocity": 82, "channel": 0}, {"type": "note_off", "time": 83, "note": 61, "velocity": 82, "channel": 0}, {"type": "note_on", "time": 0, "note": 65, "velocity": 84, "channel": 0}, {"type": "note_off", "time": 100, "note": 65, "velocity": 84, "channel": 0}, {"type": "note_on", "time": 2, "note": 63, "velocity": 86, "channel": 0}, {"type": "note_off", "time": 83, "note": 63, "velocity": 86, "channel": 0}, {"type": "note_on", "time": 0, "note": 65, "velocity": 98, "channel": 0}, {"type": "note_off", "time": 86, "note": 65, "velocity": 98, "channel": 0}, {"type": "note_on", "time": 16, "note": 67, "velocity": 89, "channel": 0}, {"type": "note_off", "time": 110, "note": 67, "velocity": 89, "channel": 0}, {"type": "note_on", "time": 2, "note": 69, "velocity": 88, "channel": 0}, {"type": "note_off", "time": 91, "note": 69, "velocity": 88, "channel": 0}, {"type": "note_on", "time": 13, "note": 70, "velocity": 99, "channel": 0}, {"type": "note_off", "time": 116, "note": 70, "velocity": 99, "channel": 0}, {"type": "note_on", "time": 1391, "note": 69, "velocity": 98, "channel": 0}, {"type": "note_on", "time": 64, "note": 67, "velocity": 89, "channel": 0}, {"type": "note_off", "time": 0, "note": 69, "velocity": 98, "channel": 0}, {"type": "note_off", "time": 75, "note": 67, "velocity": 89, "channel": 0}, {"type": "note_on", "time": 8, "note": 65, "velocity": 91, "channel": 0}, {"type": "note_off", "time": 78, "note": 65, "velocity": 91, "channel": 0}, {"type": "note_on", "time": 16, "note": 63, "velocity": 81, "channel": 0}, {"type": "note_off", "time": 59, "note": 63, "velocity": 81, "channel": 0}, {"type": "note_on", "time": 43, "note": 63, "velocity": 83, "channel": 0}, {"type": "note_off", "time": 86, "note": 63, "velocity": 83, "channel": 0}, {"type": "note_on", "time": 10, "note": 68, "velocity": 92, "channel": 0}, {"type": "note_off", "time": 97, "note": 68, "velocity": 92, "channel": 0}, {"type": "note_on", "time": 824, "note": 67, "velocity": 75, "channel": 0}, {"type": "note_off", "time": 56, "note": 67, "velocity": 75, "channel": 0}, {"type": "note_on", "time": 24, "note": 67, "velocity": 81, "channel": 0}, {"type": "note_off", "time": 56, "note": 67, "velocity": 81, "channel": 0}, {"type": "note_on", "time": 16, "note": 69, "velocity": 97, "channel": 0}, {"type": "note_off", "time": 89, "note": 69, "velocity": 97, "channel": 0}, {"type": "note_on", "time": 3, "note": 70, "velocity": 107, "channel": 0}, {"type": "note_off", "time": 55, "note": 70, "velocity": 107, "channel": 0}, {"type": "note_on", "time": 6, "note": 71, "velocity": 99, "channel": 0}, {"type": "note_off", "time": 72, "note": 71, "velocity": 99, "channel": 0}, {"type": "note_on", "time": 38, "note": 72, "velocity": 103, "channel": 0}, {"type": "note_off", "time": 83, "note": 72, "velocity": 103, "channel": 0}, {"type": "note_on", "time": 4, "note": 73, "velocity": 98, "channel": 0}, {"type": "note_off", "time": 78, "note": 73, "velocity": 98, "channel": 0}, {"type": "note_on", "time": 0, "note": 74, "velocity": 102, "channel": 0}, {"type": "note_off", "time": 97, "note": 74, "velocity": 102, "channel": 0}, {"type": "note_on", "time": 5, "note": 75, "velocity": 96, "channel": 0}, {"type": "note_off", "time": 100, "note": 75, "velocity": 96, "channel": 0}, {"type": "note_on", "time": 5, "note": 72, "velocity": 96, "channel": 0}, {"type": "note_off", "time": 86, "note": 72, "velocity": 96, "channel": 0}, {"type": "note_on", "time": 10, "note": 73, "velocity": 91, "channel": 0}, {"type": "note_off", "time": 89, "note": 73, "velocity": 91, "channel": 0}, {"type": "note_on", "time": 5, "note": 71, "velocity": 87, "channel": 0}, {"type": "note_off", "time": 70, "note": 71, "velocity": 87, "channel": 0}, {"type": "note_on", "time": 16, "note": 72, "velocity": 94, "channel": 0}, {"type": "note_off", "time": 116, "note": 72, "velocity": 94, "channel": 0}, {"type": "note_on", "time": 619, "note": 69, "velocity": 77, "channel": 0}, {"type": "note_off", "time": 57, "note": 69, "velocity": 77, "channel": 0}, {"type": "note_on", "time": 12, "note": 70, "velocity": 100, "channel": 0}, {"type": "note_off", "time": 75, "note": 70, "velocity": 100, "channel": 0}, {"type": "note_on", "time": 16, "note": 72, "velocity": 98, "channel": 0}, {"type": "note_off", "time": 75, "note": 72, "velocity": 98, "channel": 0}, {"type": "note_on", "time": 29, "note": 74, "velocity": 98, "channel": 0}, {"type": "note_off", "time": 78, "note": 74, "velocity": 98, "channel": 0}, {"type": "note_on", "time": 8, "note": 77, "velocity": 106, "channel": 0}, {"type": "note_off", "time": 75, "note": 77, "velocity": 106, "channel": 0}, {"type": "note_on", "time": 2, "note": 76, "velocity": 102, "channel": 0}, {"type": "note_off", "time": 81, "note": 76, "velocity": 102, "channel": 0}, {"type": "note_on", "time": 27, "note": 79, "velocity": 107, "channel": 0}, {"type": "note_off", "time": 81, "note": 79, "velocity": 107, "channel": 0}, {"type": "note_on", "time": 8, "note": 81, "velocity": 106, "channel": 0}, {"type": "note_off", "time": 78, "note": 81, "velocity": 106, "channel": 0}, {"type": "note_on", "time": 27, "note": 80, "velocity": 102, "channel": 0}, {"type": "note_off", "time": 72, "note": 80, "velocity": 102, "channel": 0}, {"type": "note_on", "time": 18, "note": 79, "velocity": 104, "channel": 0}, {"type": "note_off", "time": 94, "note": 79, "velocity": 104, "channel": 0}, {"type": "note_on", "time": 2, "note": 78, "velocity": 100, "channel": 0}, {"type": "note_off", "time": 86, "note": 78, "velocity": 100, "channel": 0}, {"type": "note_on", "time": 8, "note": 77, "velocity": 102, "channel": 0}, {"type": "note_off", "time": 81, "note": 77, "velocity": 102, "channel": 0}, {"type": "note_on", "time": 18, "note": 76, "velocity": 104, "channel": 0}, {"type": "note_on", "time": 83, "note": 75, "velocity": 92, "channel": 0}, {"type": "note_off", "time": 0, "note": 76, "velocity": 104, "channel": 0}, {"type": "note_off", "time": 100, "note": 75, "velocity": 92, "channel": 0}, {"type": "note_on", "time": 843, "note": 74, "velocity": 104, "channel": 0}, {"type": "note_off", "time": 86, "note": 74, "velocity": 104, "channel": 0}, {"type": "note_on", "time": 8, "note": 77, "velocity": 107, "channel": 0}, {"type": "note_off", "time": 190, "note": 77, "velocity": 107, "channel": 0}, {"type": "note_on", "time": 13, "note": 79, "velocity": 102, "channel": 0}, {"type": "note_off", "time": 881, "note": 79, "velocity": 102, "channel": 0}, {"type": "note_on", "time": 35, "note": 75, "velocity": 76, "channel": 0}, {"type": "note_off", "time": 86, "note": 75, "velocity": 76, "channel": 0}, {"type": "note_on", "time": 70, "note": 72, "velocity": 94, "channel": 0}, {"type": "note_off", "time": 78, "note": 72, "velocity": 94, "channel": 0}, {"type": "note_on", "time": 840, "note": 79, "velocity": 9, "channel": 0}, {"type": "note_off", "time": 243, "note": 79, "velocity": 9, "channel": 0}, {"type": "note_on", "time": 10, "note": 80, "velocity": 93, "channel": 0}, {"type": "note_off", "time": 89, "note": 80, "velocity": 93, "channel": 0}, {"type": "note_on", "time": 8, "note": 76, "velocity": 92, "channel": 0}, {"type": "note_off", "time": 78, "note": 76, "velocity": 92, "channel": 0}, {"type": "note_on", "time": 0, "note": 75, "velocity": 95, "channel": 0}, {"type": "note_off", "time": 67, "note": 75, "velocity": 95, "channel": 0}, {"type": "note_on", "time": 94, "note": 72, "velocity": 92, "channel": 0}, {"type": "note_off", "time": 83, "note": 72, "velocity": 92, "channel": 0}, {"type": "note_on", "time": 711, "note": 65, "velocity": 99, "channel": 0}, {"type": "note_off", "time": 133, "note": 65, "velocity": 99, "channel": 0}, {"type": "note_on", "time": 11, "note": 62, "velocity": 91, "channel": 0}, {"type": "note_off", "time": 86, "note": 62, "velocity": 91, "channel": 0}, {"type": "note_on", "time": 27, "note": 63, "velocity": 84, "channel": 0}, {"type": "note_off", "time": 224, "note": 63, "velocity": 84, "channel": 0}, {"type": "note_on", "time": 35, "note": 65, "velocity": 90, "channel": 0}, {"type": "note_off", "time": 89, "note": 65, "velocity": 90, "channel": 0}, {"type": "note_on", "time": 10, "note": 67, "velocity": 90, "channel": 0}, {"type": "note_off", "time": 81, "note": 67, "velocity": 90, "channel": 0}, {"type": "note_on", "time": 0, "note": 69, "velocity": 89, "channel": 0}, {"type": "note_off", "time": 74, "note": 69, "velocity": 89, "channel": 0}, {"type": "note_on", "time": 3, "note": 70, "velocity": 99, "channel": 0}, {"type": "note_off", "time": 105, "note": 70, "velocity": 99, "channel": 0}, {"type": "note_on", "time": 0, "note": 69, "velocity": 94, "channel": 0}, {"type": "note_off", "time": 77, "note": 69, "velocity": 94, "channel": 0}, {"type": "note_on", "time": 5, "note": 68, "velocity": 91, "channel": 0}, {"type": "note_off", "time": 89, "note": 68, "velocity": 91, "channel": 0}, {"type": "note_on", "time": 2, "note": 70, "velocity": 97, "channel": 0}, {"type": "note_off", "time": 91, "note": 70, "velocity": 97, "channel": 0}, {"type": "note_on", "time": 5, "note": 71, "velocity": 95, "channel": 0}, {"type": "note_off", "time": 91, "note": 71, "velocity": 95, "channel": 0}, {"type": "note_on", "time": 16, "note": 72, "velocity": 101, "channel": 0}, {"type": "note_off", "time": 81, "note": 72, "velocity": 101, "channel": 0}, {"type": "note_on", "time": 2, "note": 73, "velocity": 98, "channel": 0}, {"type": "note_off", "time": 86, "note": 73, "velocity": 98, "channel": 0}, {"type": "note_on", "time": 2, "note": 74, "velocity": 103, "channel": 0}, {"type": "note_off", "time": 94, "note": 74, "velocity": 103, "channel": 0}, {"type": "note_on", "time": 2, "note": 75, "velocity": 100, "channel": 0}, {"type": "note_off", "time": 97, "note": 75, "velocity": 100, "channel": 0}, {"type": "note_on", "time": 2, "note": 72, "velocity": 99, "channel": 0}, {"type": "note_off", "time": 97, "note": 72, "velocity": 99, "channel": 0}, {"type": "note_on", "time": 2, "note": 73, "velocity": 94, "channel": 0}, {"type": "note_off", "time": 118, "note": 73, "velocity": 94, "channel": 0}, {"type": "note_on", "time": 9, "note": 71, "velocity": 93, "channel": 0}, {"type": "note_off", "time": 47, "note": 71, "velocity": 93, "channel": 0}, {"type": "note_on", "time": 10, "note": 72, "velocity": 95, "channel": 0}, {"type": "note_off", "time": 94, "note": 72, "velocity": 95, "channel": 0}, {"type": "note_on", "time": 5, "note": 71, "velocity": 91, "channel": 0}, {"type": "note_on", "time": 97, "note": 70, "velocity": 96, "channel": 0}, {"type": "note_off", "time": 0, "note": 71, "velocity": 91, "channel": 0}, {"type": "note_off", "time": 89, "note": 70, "velocity": 96, "channel": 0}, {"type": "note_on", "time": 4, "note": 69, "velocity": 84, "channel": 0}, {"type": "note_off", "time": 76, "note": 69, "velocity": 84, "channel": 0}, {"type": "note_on", "time": 5, "note": 68, "velocity": 89, "channel": 0}, {"type": "note_off", "time": 70, "note": 68, "velocity": 89, "channel": 0}, {"type": "note_on", "time": 35, "note": 65, "velocity": 88, "channel": 0}, {"type": "note_off", "time": 89, "note": 65, "velocity": 88, "channel": 0}, {"type": "note_on", "time": 16, "note": 67, "velocity": 82, "channel": 0}, {"type": "note_off", "time": 108, "note": 67, "velocity": 82, "channel": 0}, {"type": "note_on", "time": 5, "note": 64, "velocity": 83, "channel": 0}, {"type": "note_off", "time": 72, "note": 64, "velocity": 83, "channel": 0}, {"type": "note_on", "time": 5, "note": 65, "velocity": 97, "channel": 0}, {"type": "note_off", "time": 91, "note": 65, "velocity": 97, "channel": 0}, {"type": "note_on", "time": 121, "note": 67, "velocity": 96, "channel": 0}, {"type": "note_off", "time": 300, "note": 67, "velocity": 96, "channel": 0}, {"type": "note_on", "time": 10, "note": 68, "velocity": 93, "channel": 0}, {"type": "note_off", "time": 432, "note": 68, "velocity": 93, "channel": 0}, {"type": "note_on", "time": 32, "note": 64, "velocity": 78, "channel": 0}, {"type": "note_off", "time": 197, "note": 64, "velocity": 78, "channel": 0}, {"type": "note_on", "time": 0, "note": 65, "velocity": 100, "channel": 0}, {"type": "note_off", "time": 337, "note": 65, "velocity": 100, "channel": 0}, {"type": "note_on", "time": 5, "note": 67, "velocity": 96, "channel": 0}, {"type": "note_off", "time": 105, "note": 67, "velocity": 96, "channel": 0}, {"type": "note_on", "time": 2, "note": 68, "velocity": 103, "channel": 0}, {"type": "note_off", "time": 318, "note": 68, "velocity": 103, "channel": 0}, {"type": "note_on", "time": 10, "note": 69, "velocity": 93, "channel": 0}, {"type": "note_off", "time": 172, "note": 69, "velocity": 93, "channel": 0}, {"type": "note_on", "time": 8, "note": 70, "velocity": 107, "channel": 0}, {"type": "note_off", "time": 308, "note": 70, "velocity": 107, "channel": 0}, {"type": "note_on", "time": 10, "note": 71, "velocity": 103, "channel": 0}, {"type": "note_off", "time": 127, "note": 71, "velocity": 103, "channel": 0}, {"type": "note_on", "time": 21, "note": 70, "velocity": 91, "channel": 0}, {"type": "note_off", "time": 81, "note": 70, "velocity": 91, "channel": 0}, {"type": "note_on", "time": 8, "note": 71, "velocity": 84, "channel": 0}, {"type": "note_off", "time": 110, "note": 71, "velocity": 84, "channel": 0}, {"type": "note_on", "time": 681, "note": 67, "velocity": 83, "channel": 0}, {"type": "note_off", "time": 105, "note": 67, "velocity": 83, "channel": 0}, {"type": "note_on", "time": 81, "note": 67, "velocity": 89, "channel": 0}, {"type": "note_off", "time": 97, "note": 67, "velocity": 89, "channel": 0}, {"type": "note_on", "time": 108, "note": 67, "velocity": 89, "channel": 0}, {"type": "note_off", "time": 110, "note": 67, "velocity": 89, "channel": 0}, {"type": "note_on", "time": 91, "note": 67, "velocity": 87, "channel": 0}, {"type": "note_off", "time": 72, "note": 67, "velocity": 87, "channel": 0}, {"type": "note_on", "time": 5, "note": 69, "velocity": 90, "channel": 0}, {"type": "note_off", "time": 81, "note": 69, "velocity": 90, "channel": 0}, {"type": "note_on", "time": 9, "note": 68, "velocity": 89, "channel": 0}, {"type": "note_off", "time": 67, "note": 68, "velocity": 89, "channel": 0}, {"type": "note_on", "time": 17, "note": 72, "velocity": 92, "channel": 0}, {"type": "note_off", "time": 83, "note": 72, "velocity": 92, "channel": 0}, {"type": "note_on", "time": 18, "note": 73, "velocity": 85, "channel": 0}, {"type": "note_off", "time": 70, "note": 73, "velocity": 85, "channel": 0}, {"type": "note_on", "time": 10, "note": 74, "velocity": 91, "channel": 0}, {"type": "note_off", "time": 110, "note": 74, "velocity": 91, "channel": 0}, {"type": "note_on", "time": 0, "note": 76, "velocity": 104, "channel": 0}, {"type": "note_off", "time": 116, "note": 76, "velocity": 104, "channel": 0}, {"type": "note_on", "time": 2, "note": 73, "velocity": 98, "channel": 0}, {"type": "note_off", "time": 78, "note": 73, "velocity": 98, "channel": 0}, {"type": "note_on", "time": 10, "note": 74, "velocity": 95, "channel": 0}, {"type": "note_off", "time": 121, "note": 74, "velocity": 95, "channel": 0}, {"type": "note_on", "time": 10, "note": 72, "velocity": 93, "channel": 0}, {"type": "note_off", "time": 70, "note": 72, "velocity": 93, "channel": 0}, {"type": "note_on", "time": 10, "note": 71, "velocity": 86, "channel": 0}, {"type": "note_off", "time": 75, "note": 71, "velocity": 86, "channel": 0}, {"type": "note_on", "time": 29, "note": 69, "velocity": 83, "channel": 0}, {"type": "note_off", "time": 83, "note": 69, "velocity": 83, "channel": 0}, {"type": "note_on", "time": 8, "note": 70, "velocity": 91, "channel": 0}, {"type": "note_off", "time": 89, "note": 70, "velocity": 91, "channel": 0}, {"type": "note_on", "time": 5, "note": 72, "velocity": 84, "channel": 0}, {"type": "note_off", "time": 89, "note": 72, "velocity": 84, "channel": 0}, {"type": "note_on", "time": 0, "note": 73, "velocity": 89, "channel": 0}, {"type": "note_off", "time": 86, "note": 73, "velocity": 89, "channel": 0}, {"type": "note_on", "time": 10, "note": 70, "velocity": 91, "channel": 0}, {"type": "note_off", "time": 91, "note": 70, "velocity": 91, "channel": 0}, {"type": "note_on", "time": 824, "note": 64, "velocity": 76, "channel": 0}, {"type": "note_off", "time": 105, "note": 64, "velocity": 76, "channel": 0}, {"type": "note_on", "time": 8, "note": 67, "velocity": 79, "channel": 0}, {"type": "note_off", "time": 116, "note": 67, "velocity": 79, "channel": 0}, {"type": "note_on", "time": 1, "note": 69, "velocity": 87, "channel": 0}, {"type": "note_off", "time": 55, "note": 69, "velocity": 87, "channel": 0}, {"type": "note_on", "time": 14, "note": 70, "velocity": 93, "channel": 0}, {"type": "note_off", "time": 94, "note": 70, "velocity": 93, "channel": 0}, {"type": "note_on", "time": 24, "note": 74, "velocity": 105, "channel": 0}, {"type": "note_off", "time": 94, "note": 74, "velocity": 105, "channel": 0}, {"type": "note_on", "time": 8, "note": 75, "velocity": 99, "channel": 0}, {"type": "note_off", "time": 56, "note": 75, "velocity": 99, "channel": 0}, {"type": "note_on", "time": 502, "note": 74, "velocity": 93, "channel": 0}, {"type": "note_off", "time": 67, "note": 74, "velocity": 93, "channel": 0}, {"type": "note_on", "time": 10, "note": 75, "velocity": 104, "channel": 0}, {"type": "note_off", "time": 216, "note": 75, "velocity": 104, "channel": 0}, {"type": "note_on", "time": 10, "note": 77, "velocity": 105, "channel": 0}, {"type": "note_off", "time": 78, "note": 77, "velocity": 105, "channel": 0}, {"type": "note_on", "time": 5, "note": 75, "velocity": 107, "channel": 0}, {"type": "note_off", "time": 324, "note": 75, "velocity": 107, "channel": 0}, {"type": "note_on", "time": 8, "note": 73, "velocity": 98, "channel": 0}, {"type": "note_off", "time": 86, "note": 73, "velocity": 98, "channel": 0}, {"type": "note_on", "time": 8, "note": 72, "velocity": 83, "channel": 0}, {"type": "note_off", "time": 89, "note": 72, "velocity": 83, "channel": 0}, {"type": "note_on", "time": 2, "note": 71, "velocity": 99, "channel": 0}, {"type": "note_off", "time": 81, "note": 71, "velocity": 99, "channel": 0}, {"type": "note_on", "time": 10, "note": 70, "velocity": 102, "channel": 0}, {"type": "note_off", "time": 94, "note": 70, "velocity": 102, "channel": 0}, {"type": "note_on", "time": 0, "note": 69, "velocity": 102, "channel": 0}, {"type": "note_off", "time": 94, "note": 69, "velocity": 102, "channel": 0}, {"type": "note_on", "time": 13, "note": 68, "velocity": 94, "channel": 0}, {"type": "note_off", "time": 75, "note": 68, "velocity": 94, "channel": 0}, {"type": "note_on", "time": 2, "note": 63, "velocity": 93, "channel": 0}, {"type": "note_off", "time": 108, "note": 63, "velocity": 93, "channel": 0}, {"type": "note_on", "time": 781, "note": 67, "velocity": 100, "channel": 0}, {"type": "note_off", "time": 116, "note": 67, "velocity": 100, "channel": 0}, {"type": "note_on", "time": 8, "note": 64, "velocity": 96, "channel": 0}, {"type": "note_off", "time": 67, "note": 64, "velocity": 96, "channel": 0}, {"type": "note_on", "time": 16, "note": 65, "velocity": 89, "channel": 0}, {"type": "note_on", "time": 81, "note": 64, "velocity": 93, "channel": 0}, {"type": "note_off", "time": 0, "note": 65, "velocity": 89, "channel": 0}, {"type": "note_off", "time": 97, "note": 64, "velocity": 93, "channel": 0}, {"type": "note_on", "time": 11, "note": 64, "velocity": 83, "channel": 0}, {"type": "note_off", "time": 83, "note": 64, "velocity": 83, "channel": 0}, {"type": "note_on", "time": 1, "note": 65, "velocity": 102, "channel": 0}, {"type": "note_off", "time": 97, "note": 65, "velocity": 102, "channel": 0}, {"type": "note_on", "time": 12, "note": 61, "velocity": 81, "channel": 0}, {"type": "note_off", "time": 70, "note": 61, "velocity": 81, "channel": 0}, {"type": "note_on", "time": 0, "note": 64, "velocity": 83, "channel": 0}, {"type": "note_off", "time": 97, "note": 64, "velocity": 83, "channel": 0}, {"type": "note_on", "time": 2, "note": 63, "velocity": 89, "channel": 0}, {"type": "note_off", "time": 89, "note": 63, "velocity": 89, "channel": 0}, {"type": "note_on", "time": 5, "note": 65, "velocity": 97, "channel": 0}, {"type": "note_off", "time": 97, "note": 65, "velocity": 97, "channel": 0}, {"type": "note_on", "time": 2, "note": 67, "velocity": 97, "channel": 0}, {"type": "note_off", "time": 116, "note": 67, "velocity": 97, "channel": 0}, {"type": "note_on", "time": 0, "note": 69, "velocity": 95, "channel": 0}, {"type": "note_off", "time": 60, "note": 69, "velocity": 95, "channel": 0}, {"type": "note_on", "time": 8, "note": 70, "velocity": 105, "channel": 0}, {"type": "note_off", "time": 132, "note": 70, "velocity": 105, "channel": 0}, {"type": "note_on", "time": 5, "note": 68, "velocity": 93, "channel": 0}, {"type": "note_off", "time": 58, "note": 68, "velocity": 93, "channel": 0}, {"type": "note_on", "time": 7, "note": 69, "velocity": 103, "channel": 0}, {"type": "note_off", "time": 100, "note": 69, "velocity": 103, "channel": 0}, {"type": "note_on", "time": 5, "note": 67, "velocity": 93, "channel": 0}, {"type": "note_off", "time": 78, "note": 67, "velocity": 93, "channel": 0}, {"type": "note_on", "time": 0, "note": 68, "velocity": 98, "channel": 0}, {"type": "note_off", "time": 102, "note": 68, "velocity": 98, "channel": 0}, {"type": "note_on", "time": 3, "note": 70, "velocity": 101, "channel": 0}, {"type": "note_off", "time": 91, "note": 70, "velocity": 101, "channel": 0}, {"type": "note_on", "time": 5, "note": 71, "velocity": 96, "channel": 0}, {"type": "note_off", "time": 83, "note": 71, "velocity": 96, "channel": 0}, {"type": "note_on", "time": 2, "note": 72, "velocity": 101, "channel": 0}, {"type": "note_off", "time": 94, "note": 72, "velocity": 101, "channel": 0}, {"type": "note_on", "time": 2, "note": 73, "velocity": 102, "channel": 0}, {"type": "note_off", "time": 81, "note": 73, "velocity": 102, "channel": 0}, {"type": "note_on", "time": 13, "note": 74, "velocity": 107, "channel": 0}, {"type": "note_off", "time": 100, "note": 74, "velocity": 107, "channel": 0}, {"type": "note_on", "time": 2, "note": 75, "velocity": 104, "channel": 0}, {"type": "note_off", "time": 97, "note": 75, "velocity": 104, "channel": 0}, {"type": "note_on", "time": 0, "note": 72, "velocity": 105, "channel": 0}, {"type": "note_off", "time": 102, "note": 72, "velocity": 105, "channel": 0}, {"type": "note_on", "time": 10, "note": 73, "velocity": 98, "channel": 0}, {"type": "note_off", "time": 97, "note": 73, "velocity": 98, "channel": 0}, {"type": "note_on", "time": 0, "note": 71, "velocity": 95, "channel": 0}, {"type": "note_off", "time": 72, "note": 71, "velocity": 95, "channel": 0}, {"type": "note_on", "time": 8, "note": 72, "velocity": 103, "channel": 0}, {"type": "note_off", "time": 81, "note": 72, "velocity": 103, "channel": 0}, {"type": "note_on", "time": 2, "note": 71, "velocity": 92, "channel": 0}, {"type": "note_off", "time": 83, "note": 71, "velocity": 92, "channel": 0}, {"type": "note_on", "time": 5, "note": 70, "velocity": 104, "channel": 0}, {"type": "note_off", "time": 83, "note": 70, "velocity": 104, "channel": 0}, {"type": "note_on", "time": 8, "note": 71, "velocity": 103, "channel": 0}, {"type": "note_off", "time": 102, "note": 71, "velocity": 103, "channel": 0}, {"type": "note_on", "time": 10, "note": 70, "velocity": 93, "channel": 0}, {"type": "note_off", "time": 143, "note": 70, "velocity": 93, "channel": 0}, {"type": "note_on", "time": 327, "note": 66, "velocity": 87, "channel": 0}, {"type": "note_off", "time": 75, "note": 66, "velocity": 87, "channel": 0}, {"type": "note_on", "time": 16, "note": 71, "velocity": 99, "channel": 0}, {"type": "note_off", "time": 100, "note": 71, "velocity": 99, "channel": 0}, {"type": "note_on", "time": 13, "note": 72, "velocity": 107, "channel": 0}, {"type": "note_off", "time": 110, "note": 72, "velocity": 107, "channel": 0}, {"type": "note_on", "time": 18, "note": 71, "velocity": 102, "channel": 0}, {"type": "note_off", "time": 272, "note": 71, "velocity": 102, "channel": 0}, {"type": "note_on", "time": 5, "note": 71, "velocity": 94, "channel": 0}, {"type": "note_off", "time": 54, "note": 71, "velocity": 94, "channel": 0}, {"type": "note_on", "time": 21, "note": 72, "velocity": 95, "channel": 0}, {"type": "note_off", "time": 137, "note": 72, "velocity": 95, "channel": 0}, {"type": "note_on", "time": 30, "note": 73, "velocity": 100, "channel": 0}, {"type": "note_off", "time": 212, "note": 73, "velocity": 100, "channel": 0}, {"type": "note_on", "time": 151, "note": 74, "velocity": 99, "channel": 0}, {"type": "note_off", "time": 159, "note": 74, "velocity": 99, "channel": 0}, {"type": "note_on", "time": 29, "note": 70, "velocity": 85, "channel": 0}, {"type": "note_off", "time": 32, "note": 70, "velocity": 85, "channel": 0}, {"type": "note_on", "time": 10, "note": 75, "velocity": 97, "channel": 0}, {"type": "note_off", "time": 118, "note": 75, "velocity": 97, "channel": 0}, {"type": "note_on", "time": 2, "note": 72, "velocity": 75, "channel": 0}, {"type": "note_off", "time": 37, "note": 72, "velocity": 75, "channel": 0}, {"type": "note_on", "time": 37, "note": 76, "velocity": 106, "channel": 0}, {"type": "note_off", "time": 105, "note": 76, "velocity": 106, "channel": 0}, {"type": "note_on", "time": 21, "note": 73, "velocity": 82, "channel": 0}, {"type": "note_off", "time": 51, "note": 73, "velocity": 82, "channel": 0}, {"type": "note_on", "time": 5, "note": 77, "velocity": 108, "channel": 0}, {"type": "note_off", "time": 116, "note": 77, "velocity": 108, "channel": 0}, {"type": "note_on", "time": 27, "note": 74, "velocity": 86, "channel": 0}, {"type": "note_off", "time": 38, "note": 74, "velocity": 86, "channel": 0}, {"type": "note_on", "time": 0, "note": 78, "velocity": 106, "channel": 0}, {"type": "note_off", "time": 235, "note": 78, "velocity": 106, "channel": 0}, {"type": "note_on", "time": 1631, "note": 75, "velocity": 81, "channel": 0}, {"type": "note_off", "time": 48, "note": 75, "velocity": 81, "channel": 0}, {"type": "note_on", "time": 27, "note": 79, "velocity": 94, "channel": 0}, {"type": "note_off", "time": 54, "note": 79, "velocity": 94, "channel": 0}, {"type": "note_on", "time": 13, "note": 82, "velocity": 109, "channel": 0}, {"type": "note_off", "time": 67, "note": 82, "velocity": 109, "channel": 0}, {"type": "note_on", "time": 0, "note": 84, "velocity": 107, "channel": 0}, {"type": "note_off", "time": 45, "note": 84, "velocity": 107, "channel": 0}, {"type": "note_on", "time": 18, "note": 88, "velocity": 103, "channel": 0}, {"type": "note_off", "time": 113, "note": 88, "velocity": 103, "channel": 0}, {"type": "note_on", "time": 13, "note": 87, "velocity": 114, "channel": 0}, {"type": "note_off", "time": 151, "note": 87, "velocity": 114, "channel": 0}, {"type": "note_on", "time": 1148, "note": 84, "velocity": 94, "channel": 0}, {"type": "note_off", "time": 91, "note": 84, "velocity": 94, "channel": 0}, {"type": "note_on", "time": 8, "note": 87, "velocity": 103, "channel": 0}, {"type": "note_off", "time": 145, "note": 87, "velocity": 103, "channel": 0}, {"type": "note_on", "time": 43, "note": 86, "velocity": 110, "channel": 0}, {"type": "note_off", "time": 372, "note": 86, "velocity": 110, "channel": 0}, {"type": "note_on", "time": 5, "note": 85, "velocity": 99, "channel": 0}, {"type": "note_off", "time": 843, "note": 85, "velocity": 99, "channel": 0}, {"type": "note_on", "time": 18, "note": 84, "velocity": 101, "channel": 0}, {"type": "note_off", "time": 137, "note": 84, "velocity": 101, "channel": 0}, {"type": "note_on", "time": 5, "note": 85, "velocity": 102, "channel": 0}, {"type": "note_off", "time": 94, "note": 85, "velocity": 102, "channel": 0}, {"type": "note_on", "time": 24, "note": 84, "velocity": 99, "channel": 0}, {"type": "note_off", "time": 564, "note": 84, "velocity": 99, "channel": 0}, {"type": "note_on", "time": 5, "note": 83, "velocity": 101, "channel": 0}, {"type": "note_off", "time": 294, "note": 83, "velocity": 101, "channel": 0}, {"type": "note_on", "time": 518, "note": 82, "velocity": 96, "channel": 0}, {"type": "note_off", "time": 78, "note": 82, "velocity": 96, "channel": 0}, {"type": "note_on", "time": 13, "note": 86, "velocity": 106, "channel": 0}, {"type": "note_off", "time": 70, "note": 86, "velocity": 106, "channel": 0}, {"type": "note_on", "time": 5, "note": 87, "velocity": 108, "channel": 0}, {"type": "note_off", "time": 70, "note": 87, "velocity": 108, "channel": 0}, {"type": "note_on", "time": 16, "note": 86, "velocity": 106, "channel": 0}, {"type": "note_off", "time": 351, "note": 86, "velocity": 106, "channel": 0}, {"type": "note_on", "time": 2, "note": 85, "velocity": 101, "channel": 0}, {"type": "note_off", "time": 781, "note": 85, "velocity": 101, "channel": 0}, {"type": "note_on", "time": 5, "note": 84, "velocity": 100, "channel": 0}, {"type": "note_off", "time": 86, "note": 84, "velocity": 100, "channel": 0}, {"type": "note_on", "time": 13, "note": 85, "velocity": 97, "channel": 0}, {"type": "note_off", "time": 86, "note": 85, "velocity": 97, "channel": 0}, {"type": "note_on", "time": 5, "note": 84, "velocity": 99, "channel": 0}, {"type": "note_off", "time": 478, "note": 84, "velocity": 99, "channel": 0}, {"type": "note_on", "time": 5, "note": 83, "velocity": 94, "channel": 0}, {"type": "note_off", "time": 205, "note": 83, "velocity": 94, "channel": 0}, {"type": "note_on", "time": 1073, "note": 81, "velocity": 101, "channel": 0}, {"type": "note_off", "time": 116, "note": 81, "velocity": 101, "channel": 0}, {"type": "note_on", "time": 0, "note": 82, "velocity": 105, "channel": 0}, {"type": "note_off", "time": 83, "note": 82, "velocity": 105, "channel": 0}, {"type": "note_on", "time": 8, "note": 83, "velocity": 103, "channel": 0}, {"type": "note_off", "time": 118, "note": 83, "velocity": 103, "channel": 0}, {"type": "note_on", "time": 5, "note": 81, "velocity": 99, "channel": 0}, {"type": "note_off", "time": 62, "note": 81, "velocity": 99, "channel": 0}, {"type": "note_on", "time": 10, "note": 79, "velocity": 100, "channel": 0}, {"type": "note_off", "time": 151, "note": 79, "velocity": 100, "channel": 0}, {"type": "note_on", "time": 256, "note": 77, "velocity": 100, "channel": 0}, {"type": "note_off", "time": 127, "note": 77, "velocity": 100, "channel": 0}, {"type": "note_on", "time": 570, "note": 77, "velocity": 102, "channel": 0}, {"type": "note_off", "time": 97, "note": 77, "velocity": 102, "channel": 0}, {"type": "note_on", "time": 10, "note": 80, "velocity": 105, "channel": 0}, {"type": "note_off", "time": 89, "note": 80, "velocity": 105, "channel": 0}, {"type": "note_on", "time": 0, "note": 79, "velocity": 102, "channel": 0}, {"type": "note_off", "time": 102, "note": 79, "velocity": 102, "channel": 0}, {"type": "note_on", "time": 18, "note": 76, "velocity": 78, "channel": 0}, {"type": "note_off", "time": 64, "note": 76, "velocity": 78, "channel": 0}, {"type": "note_on", "time": 10, "note": 77, "velocity": 100, "channel": 0}, {"type": "note_off", "time": 121, "note": 77, "velocity": 100, "channel": 0}, {"type": "note_on", "time": 2, "note": 76, "velocity": 104, "channel": 0}, {"type": "note_off", "time": 62, "note": 76, "velocity": 104, "channel": 0}, {"type": "note_on", "time": 8, "note": 75, "velocity": 95, "channel": 0}, {"type": "note_off", "time": 97, "note": 75, "velocity": 95, "channel": 0}, {"type": "note_on", "time": 16, "note": 72, "velocity": 101, "channel": 0}, {"type": "note_off", "time": 83, "note": 72, "velocity": 101, "channel": 0}, {"type": "note_on", "time": 5, "note": 73, "velocity": 96, "channel": 0}, {"type": "note_off", "time": 86, "note": 73, "velocity": 96, "channel": 0}, {"type": "note_on", "time": 0, "note": 71, "velocity": 91, "channel": 0}, {"type": "note_off", "time": 86, "note": 71, "velocity": 91, "channel": 0}, {"type": "note_on", "time": 5, "note": 72, "velocity": 95, "channel": 0}, {"type": "note_off", "time": 75, "note": 72, "velocity": 95, "channel": 0}, {"type": "note_on", "time": 16, "note": 71, "velocity": 77, "channel": 0}, {"type": "note_off", "time": 78, "note": 71, "velocity": 77, "channel": 0}, {"type": "note_on", "time": 8, "note": 70, "velocity": 99, "channel": 0}, {"type": "note_off", "time": 78, "note": 70, "velocity": 99, "channel": 0}, {"type": "note_on", "time": 10, "note": 69, "velocity": 93, "channel": 0}, {"type": "note_off", "time": 89, "note": 69, "velocity": 93, "channel": 0}, {"type": "note_on", "time": 21, "note": 67, "velocity": 89, "channel": 0}, {"type": "note_off", "time": 156, "note": 67, "velocity": 89, "channel": 0}, {"type": "note_on", "time": 13, "note": 66, "velocity": 76, "channel": 0}, {"type": "note_off", "time": 89, "note": 66, "velocity": 76, "channel": 0}, {"type": "note_on", "time": 8, "note": 67, "velocity": 79, "channel": 0}, {"type": "note_off", "time": 194, "note": 67, "velocity": 79, "channel": 0}, {"type": "note_on", "time": 89, "note": 67, "velocity": 79, "channel": 0}, {"type": "note_off", "time": 105, "note": 67, "velocity": 79, "channel": 0}, {"type": "note_on", "time": 113, "note": 67, "velocity": 87, "channel": 0}, {"type": "note_off", "time": 110, "note": 67, "velocity": 87, "channel": 0}, {"type": "note_on", "time": 75, "note": 67, "velocity": 93, "channel": 0}, {"type": "note_off", "time": 86, "note": 67, "velocity": 93, "channel": 0}, {"type": "note_on", "time": 32, "note": 73, "velocity": 86, "channel": 0}, {"type": "note_off", "time": 59, "note": 73, "velocity": 86, "channel": 0}, {"type": "note_on", "time": 2, "note": 71, "velocity": 86, "channel": 0}, {"type": "note_off", "time": 94, "note": 71, "velocity": 86, "channel": 0}, {"type": "note_on", "time": 13, "note": 72, "velocity": 94, "channel": 0}, {"type": "note_off", "time": 70, "note": 72, "velocity": 94, "channel": 0}, {"type": "note_on", "time": 13, "note": 73, "velocity": 91, "channel": 0}, {"type": "note_off", "time": 83, "note": 73, "velocity": 91, "channel": 0}, {"type": "note_on", "time": 10, "note": 74, "velocity": 91, "channel": 0}, {"type": "note_off", "time": 67, "note": 74, "velocity": 91, "channel": 0}, {"type": "note_on", "time": 0, "note": 76, "velocity": 100, "channel": 0}, {"type": "note_off", "time": 75, "note": 76, "velocity": 100, "channel": 0}, {"type": "note_on", "time": 37, "note": 73, "velocity": 96, "channel": 0}, {"type": "note_off", "time": 94, "note": 73, "velocity": 96, "channel": 0}, {"type": "note_on", "time": 18, "note": 74, "velocity": 96, "channel": 0}, {"type": "note_off", "time": 108, "note": 74, "velocity": 96, "channel": 0}, {"type": "note_on", "time": 8, "note": 72, "velocity": 96, "channel": 0}, {"type": "note_off", "time": 64, "note": 72, "velocity": 96, "channel": 0}, {"type": "note_on", "time": 18, "note": 71, "velocity": 93, "channel": 0}, {"type": "note_off", "time": 94, "note": 71, "velocity": 93, "channel": 0}, {"type": "note_on", "time": 2, "note": 69, "velocity": 88, "channel": 0}, {"type": "note_off", "time": 72, "note": 69, "velocity": 88, "channel": 0}, {"type": "note_on", "time": 16, "note": 70, "velocity": 97, "channel": 0}, {"type": "note_off", "time": 89, "note": 70, "velocity": 97, "channel": 0}, {"type": "note_on", "time": 18, "note": 72, "velocity": 78, "channel": 0}, {"type": "note_off", "time": 81, "note": 72, "velocity": 78, "channel": 0}, {"type": "note_on", "time": 8, "note": 69, "velocity": 89, "channel": 0}, {"type": "note_off", "time": 94, "note": 69, "velocity": 89, "channel": 0}, {"type": "note_on", "time": 8, "note": 70, "velocity": 80, "channel": 0}, {"type": "note_on", "time": 8, "note": 70, "velocity": 98, "channel": 0}, {"type": "note_off", "time": 0, "note": 70, "velocity": 80, "channel": 0}, {"type": "note_off", "time": 94, "note": 70, "velocity": 98, "channel": 0}, {"type": "note_on", "time": 0, "note": 67, "velocity": 90, "channel": 0}, {"type": "note_off", "time": 86, "note": 67, "velocity": 90, "channel": 0}, {"type": "note_on", "time": 13, "note": 64, "velocity": 86, "channel": 0}, {"type": "note_off", "time": 62, "note": 64, "velocity": 86, "channel": 0}, {"type": "note_on", "time": 24, "note": 65, "velocity": 94, "channel": 0}, {"type": "note_off", "time": 116, "note": 65, "velocity": 94, "channel": 0}, {"type": "note_on", "time": 18, "note": 63, "velocity": 68, "channel": 0}, {"type": "note_off", "time": 59, "note": 63, "velocity": 68, "channel": 0}, {"type": "note_on", "time": 21, "note": 64, "velocity": 87, "channel": 0}, {"type": "note_off", "time": 105, "note": 64, "velocity": 87, "channel": 0}, {"type": "note_on", "time": 10, "note": 62, "velocity": 85, "channel": 0}, {"type": "note_off", "time": 70, "note": 62, "velocity": 85, "channel": 0}, {"type": "note_on", "time": 10, "note": 63, "velocity": 93, "channel": 0}, {"type": "note_off", "time": 56, "note": 63, "velocity": 93, "channel": 0}, {"type": "note_on", "time": 8, "note": 65, "velocity": 92, "channel": 0}, {"type": "note_off", "time": 75, "note": 65, "velocity": 92, "channel": 0}, {"type": "note_on", "time": 34, "note": 62, "velocity": 79, "channel": 0}, {"type": "note_off", "time": 87, "note": 62, "velocity": 79, "channel": 0}, {"type": "note_on", "time": 65, "note": 64, "velocity": 87, "channel": 0}, {"type": "note_off", "time": 110, "note": 64, "velocity": 87, "channel": 0}, {"type": "note_on", "time": 13, "note": 65, "velocity": 89, "channel": 0}, {"type": "note_off", "time": 91, "note": 65, "velocity": 89, "channel": 0}, {"type": "note_on", "time": 2, "note": 67, "velocity": 93, "channel": 0}, {"type": "note_off", "time": 124, "note": 67, "velocity": 93, "channel": 0}, {"type": "note_on", "time": 10, "note": 66, "velocity": 77, "channel": 0}, {"type": "note_off", "time": 54, "note": 66, "velocity": 77, "channel": 0}, {"type": "note_on", "time": 0, "note": 70, "velocity": 98, "channel": 0}, {"type": "note_off", "time": 118, "note": 70, "velocity": 98, "channel": 0}, {"type": "note_on", "time": 0, "note": 68, "velocity": 92, "channel": 0}, {"type": "note_off", "time": 54, "note": 68, "velocity": 92, "channel": 0}, {"type": "note_on", "time": 16, "note": 69, "velocity": 98, "channel": 0}, {"type": "note_off", "time": 105, "note": 69, "velocity": 98, "channel": 0}, {"type": "note_on", "time": 0, "note": 67, "velocity": 88, "channel": 0}, {"type": "note_off", "time": 75, "note": 67, "velocity": 88, "channel": 0}, {"type": "note_on", "time": 16, "note": 68, "velocity": 85, "channel": 0}, {"type": "note_off", "time": 91, "note": 68, "velocity": 85, "channel": 0}, {"type": "note_on", "time": 13, "note": 70, "velocity": 101, "channel": 0}, {"type": "note_off", "time": 100, "note": 70, "velocity": 101, "channel": 0}, {"type": "note_on", "time": 8, "note": 71, "velocity": 88, "channel": 0}, {"type": "note_off", "time": 72, "note": 71, "velocity": 88, "channel": 0}, {"type": "note_on", "time": 8, "note": 72, "velocity": 98, "channel": 0}, {"type": "note_off", "time": 83, "note": 72, "velocity": 98, "channel": 0}, {"type": "note_on", "time": 5, "note": 73, "velocity": 100, "channel": 0}, {"type": "note_off", "time": 81, "note": 73, "velocity": 100, "channel": 0}, {"type": "note_on", "time": 2, "note": 74, "velocity": 106, "channel": 0}, {"type": "note_off", "time": 118, "note": 74, "velocity": 106, "channel": 0}, {"type": "note_on", "time": 10, "note": 75, "velocity": 104, "channel": 0}, {"type": "note_off", "time": 110, "note": 75, "velocity": 104, "channel": 0}, {"type": "note_on", "time": 0, "note": 72, "velocity": 95, "channel": 0}, {"type": "note_off", "time": 64, "note": 72, "velocity": 95, "channel": 0}, {"type": "note_on", "time": 13, "note": 73, "velocity": 101, "channel": 0}, {"type": "note_off", "time": 110, "note": 73, "velocity": 101, "channel": 0}, {"type": "note_on", "time": 0, "note": 71, "velocity": 94, "channel": 0}, {"type": "note_off", "time": 78, "note": 71, "velocity": 94, "channel": 0}, {"type": "note_on", "time": 10, "note": 72, "velocity": 87, "channel": 0}, {"type": "note_off", "time": 113, "note": 72, "velocity": 87, "channel": 0}, {"type": "note_on", "time": 229, "note": 77, "velocity": 109, "channel": 0}, {"type": "note_off", "time": 137, "note": 77, "velocity": 109, "channel": 0}, {"type": "note_on", "time": 5, "note": 79, "velocity": 108, "channel": 0}, {"type": "note_off", "time": 559, "note": 79, "velocity": 108, "channel": 0}, {"type": "note_on", "time": 0, "note": 77, "velocity": 98, "channel": 0}, {"type": "note_off", "time": 64, "note": 77, "velocity": 98, "channel": 0}, {"type": "note_on", "time": 5, "note": 76, "velocity": 102, "channel": 0}, {"type": "note_off", "time": 86, "note": 76, "velocity": 102, "channel": 0}, {"type": "note_on", "time": 10, "note": 75, "velocity": 81, "channel": 0}, {"type": "note_off", "time": 89, "note": 75, "velocity": 81, "channel": 0}, {"type": "note_on", "time": 75, "note": 72, "velocity": 90, "channel": 0}, {"type": "note_off", "time": 83, "note": 72, "velocity": 90, "channel": 0}, {"type": "note_on", "time": 1129, "note": 67, "velocity": 90, "channel": 0}, {"type": "note_off", "time": 113, "note": 67, "velocity": 90, "channel": 0}, {"type": "note_on", "time": 5, "note": 65, "velocity": 91, "channel": 0}, {"type": "note_off", "time": 151, "note": 65, "velocity": 91, "channel": 0}, {"type": "note_on", "time": 8, "note": 64, "velocity": 91, "channel": 0}, {"type": "note_off", "time": 67, "note": 64, "velocity": 91, "channel": 0}, {"type": "note_on", "time": 20, "note": 63, "velocity": 87, "channel": 0}, {"type": "note_off", "time": 53, "note": 63, "velocity": 87, "channel": 0}, {"type": "note_on", "time": 15, "note": 64, "velocity": 95, "channel": 0}, {"type": "note_off", "time": 100, "note": 64, "velocity": 95, "channel": 0}, {"type": "note_on", "time": 2, "note": 61, "velocity": 77, "channel": 0}, {"type": "note_off", "time": 83, "note": 61, "velocity": 77, "channel": 0}, {"type": "note_on", "time": 102, "note": 63, "velocity": 89, "channel": 0}, {"type": "note_off", "time": 116, "note": 63, "velocity": 89, "channel": 0}, {"type": "note_on", "time": 5, "note": 65, "velocity": 95, "channel": 0}, {"type": "note_off", "time": 56, "note": 65, "velocity": 95, "channel": 0}, {"type": "note_on", "time": 8, "note": 67, "velocity": 83, "channel": 0}, {"type": "note_off", "time": 127, "note": 67, "velocity": 83, "channel": 0}, {"type": "note_on", "time": 13, "note": 65, "velocity": 79, "channel": 0}, {"type": "note_off", "time": 45, "note": 65, "velocity": 79, "channel": 0}, {"type": "note_on", "time": 21, "note": 69, "velocity": 98, "channel": 0}, {"type": "note_off", "time": 143, "note": 69, "velocity": 98, "channel": 0}, {"type": "note_on", "time": 372, "note": 70, "velocity": 97, "channel": 0}, {"type": "note_off", "time": 640, "note": 70, "velocity": 97, "channel": 0}, {"type": "note_on", "time": 10, "note": 71, "velocity": 94, "channel": 0}, {"type": "note_off", "time": 316, "note": 71, "velocity": 94, "channel": 0}, {"type": "note_on", "time": 35, "note": 70, "velocity": 82, "channel": 0}, {"type": "note_off", "time": 210, "note": 70, "velocity": 82, "channel": 0}, {"type": "note_on", "time": 10, "note": 72, "velocity": 87, "channel": 0}, {"type": "note_off", "time": 427, "note": 72, "velocity": 87, "channel": 0}, {"type": "note_on", "time": 1073, "note": 65, "velocity": 77, "channel": 0}, {"type": "note_off", "time": 129, "note": 65, "velocity": 77, "channel": 0}, {"type": "note_on", "time": 2, "note": 64, "velocity": 74, "channel": 0}, {"type": "note_off", "time": 70, "note": 64, "velocity": 74, "channel": 0}, {"type": "note_on", "time": 5, "note": 65, "velocity": 94, "channel": 0}, {"type": "note_off", "time": 81, "note": 65, "velocity": 94, "channel": 0}, {"type": "note_on", "time": 21, "note": 67, "velocity": 93, "channel": 0}, {"type": "note_off", "time": 86, "note": 67, "velocity": 93, "channel": 0}, {"type": "note_on", "time": 5, "note": 69, "velocity": 99, "channel": 0}, {"type": "note_off", "time": 89, "note": 69, "velocity": 99, "channel": 0}, {"type": "note_on", "time": 16, "note": 70, "velocity": 103, "channel": 0}, {"type": "note_off", "time": 94, "note": 70, "velocity": 103, "channel": 0}, {"type": "note_on", "time": 0, "note": 67, "velocity": 93, "channel": 0}, {"type": "note_off", "time": 75, "note": 67, "velocity": 93, "channel": 0}, {"type": "note_on", "time": 8, "note": 69, "velocity": 93, "channel": 0}, {"type": "note_off", "time": 86, "note": 69, "velocity": 93, "channel": 0}, {"type": "note_on", "time": 0, "note": 70, "velocity": 92, "channel": 0}, {"type": "note_off", "time": 86, "note": 70, "velocity": 92, "channel": 0}, {"type": "note_on", "time": 27, "note": 72, "velocity": 94, "channel": 0}, {"type": "note_off", "time": 94, "note": 72, "velocity": 94, "channel": 0}, {"type": "note_on", "time": 13, "note": 73, "velocity": 100, "channel": 0}, {"type": "note_off", "time": 81, "note": 73, "velocity": 100, "channel": 0}, {"type": "note_on", "time": 8, "note": 71, "velocity": 91, "channel": 0}, {"type": "note_off", "time": 72, "note": 71, "velocity": 91, "channel": 0}, {"type": "note_on", "time": 8, "note": 72, "velocity": 93, "channel": 0}, {"type": "note_off", "time": 91, "note": 72, "velocity": 93, "channel": 0}, {"type": "note_on", "time": 0, "note": 70, "velocity": 96, "channel": 0}, {"type": "note_off", "time": 89, "note": 70, "velocity": 96, "channel": 0}, {"type": "note_on", "time": 0, "note": 69, "velocity": 92, "channel": 0}, {"type": "note_off", "time": 72, "note": 69, "velocity": 92, "channel": 0}, {"type": "note_on", "time": 35, "note": 69, "velocity": 88, "channel": 0}, {"type": "note_off", "time": 70, "note": 69, "velocity": 88, "channel": 0}, {"type": "note_on", "time": 10, "note": 74, "velocity": 93, "channel": 0}, {"type": "note_off", "time": 81, "note": 74, "velocity": 93, "channel": 0}, {"type": "note_on", "time": 2, "note": 76, "velocity": 107, "channel": 0}, {"type": "note_off", "time": 83, "note": 76, "velocity": 107, "channel": 0}, {"type": "note_on", "time": 10, "note": 77, "velocity": 107, "channel": 0}, {"type": "note_off", "time": 102, "note": 77, "velocity": 107, "channel": 0}, {"type": "note_on", "time": 8, "note": 71, "velocity": 98, "channel": 0}, {"type": "note_off", "time": 86, "note": 71, "velocity": 98, "channel": 0}, {"type": "note_on", "time": 10, "note": 69, "velocity": 81, "channel": 0}, {"type": "note_off", "time": 75, "note": 69, "velocity": 81, "channel": 0}, {"type": "note_on", "time": 16, "note": 69, "velocity": 77, "channel": 0}, {"type": "note_off", "time": 75, "note": 69, "velocity": 77, "channel": 0}, {"type": "note_on", "time": 13, "note": 74, "velocity": 87, "channel": 0}, {"type": "note_off", "time": 121, "note": 74, "velocity": 87, "channel": 0}, {"type": "note_on", "time": 0, "note": 70, "velocity": 94, "channel": 0}, {"type": "note_off", "time": 89, "note": 70, "velocity": 94, "channel": 0}, {"type": "note_on", "time": 0, "note": 67, "velocity": 88, "channel": 0}, {"type": "note_off", "time": 64, "note": 67, "velocity": 88, "channel": 0}, {"type": "note_on", "time": 10, "note": 67, "velocity": 81, "channel": 0}, {"type": "note_off", "time": 62, "note": 67, "velocity": 81, "channel": 0}, {"type": "note_on", "time": 27, "note": 72, "velocity": 84, "channel": 0}, {"type": "note_off", "time": 94, "note": 72, "velocity": 84, "channel": 0}, {"type": "note_on", "time": 21, "note": 69, "velocity": 94, "channel": 0}, {"type": "note_off", "time": 91, "note": 69, "velocity": 94, "channel": 0}, {"type": "note_on", "time": 2, "note": 67, "velocity": 87, "channel": 0}, {"type": "note_off", "time": 97, "note": 67, "velocity": 87, "channel": 0}, {"type": "note_on", "time": 0, "note": 64, "velocity": 87, "channel": 0}, {"type": "note_off", "time": 40, "note": 64, "velocity": 87, "channel": 0}, {"type": "note_on", "time": 27, "note": 68, "velocity": 98, "channel": 0}, {"type": "note_off", "time": 116, "note": 68, "velocity": 98, "channel": 0}, {"type": "note_on", "time": 13, "note": 67, "velocity": 94, "channel": 0}, {"type": "note_off", "time": 83, "note": 67, "velocity": 94, "channel": 0}, {"type": "note_on", "time": 508, "note": 68, "velocity": 98, "channel": 0}, {"type": "note_off", "time": 262, "note": 68, "velocity": 98, "channel": 0}, {"type": "note_on", "time": 45, "note": 65, "velocity": 76, "channel": 0}, {"type": "note_off", "time": 86, "note": 65, "velocity": 76, "channel": 0}, {"type": "note_on", "time": 64, "note": 67, "velocity": 88, "channel": 0}, {"type": "note_off", "time": 97, "note": 67, "velocity": 88, "channel": 0}, {"type": "note_on", "time": 100, "note": 65, "velocity": 91, "channel": 0}, {"type": "note_off", "time": 100, "note": 65, "velocity": 91, "channel": 0}, {"type": "note_on", "time": 459, "note": 67, "velocity": 101, "channel": 0}, {"type": "note_off", "time": 127, "note": 67, "velocity": 101, "channel": 0}, {"type": "note_on", "time": 8, "note": 68, "velocity": 101, "channel": 0}, {"type": "note_off", "time": 54, "note": 68, "velocity": 101, "channel": 0}, {"type": "note_on", "time": 121, "note": 68, "velocity": 101, "channel": 0}, {"type": "note_off", "time": 121, "note": 68, "velocity": 101, "channel": 0}, {"type": "note_on", "time": 2, "note": 67, "velocity": 94, "channel": 0}, {"type": "note_off", "time": 97, "note": 67, "velocity": 94, "channel": 0}, {"type": "note_on", "time": 16, "note": 68, "velocity": 95, "channel": 0}, {"type": "note_off", "time": 102, "note": 68, "velocity": 95, "channel": 0}, {"type": "note_on", "time": 35, "note": 64, "velocity": 82, "channel": 0}, {"type": "note_off", "time": 59, "note": 64, "velocity": 82, "channel": 0}, {"type": "note_on", "time": 35, "note": 67, "velocity": 86, "channel": 0}, {"type": "note_off", "time": 110, "note": 67, "velocity": 86, "channel": 0}, {"type": "note_on", "time": 108, "note": 68, "velocity": 102, "channel": 0}, {"type": "note_off", "time": 78, "note": 68, "velocity": 102, "channel": 0}, {"type": "note_on", "time": 5, "note": 67, "velocity": 93, "channel": 0}, {"type": "note_off", "time": 67, "note": 67, "velocity": 93, "channel": 0}, {"type": "note_on", "time": 375, "note": 67, "velocity": 88, "channel": 0}, {"type": "note_off", "time": 124, "note": 67, "velocity": 88, "channel": 0}, {"type": "note_on", "time": 18, "note": 66, "velocity": 89, "channel": 0}, {"type": "note_off", "time": 89, "note": 66, "velocity": 89, "channel": 0}, {"type": "note_on", "time": 72, "note": 67, "velocity": 98, "channel": 0}, {"type": "note_off", "time": 108, "note": 67, "velocity": 98, "channel": 0}, {"type": "note_on", "time": 10, "note": 66, "velocity": 93, "channel": 0}, {"type": "note_off", "time": 210, "note": 66, "velocity": 93, "channel": 0}, {"type": "note_on", "time": 54, "note": 65, "velocity": 80, "channel": 0}, {"type": "note_off", "time": 89, "note": 65, "velocity": 80, "channel": 0}, {"type": "note_on", "time": 27, "note": 67, "velocity": 80, "channel": 0}, {"type": "note_off", "time": 86, "note": 67, "velocity": 80, "channel": 0}, {"type": "note_on", "time": 102, "note": 68, "velocity": 102, "channel": 0}, {"type": "note_off", "time": 83, "note": 68, "velocity": 102, "channel": 0}, {"type": "note_on", "time": 13, "note": 67, "velocity": 92, "channel": 0}, {"type": "note_off", "time": 54, "note": 67, "velocity": 92, "channel": 0}, {"type": "note_on", "time": 432, "note": 69, "velocity": 84, "channel": 0}, {"type": "note_off", "time": 94, "note": 69, "velocity": 84, "channel": 0}, {"type": "note_on", "time": 18, "note": 65, "velocity": 83, "channel": 0}, {"type": "note_off", "time": 64, "note": 65, "velocity": 83, "channel": 0}, {"type": "note_on", "time": 5, "note": 70, "velocity": 102, "channel": 0}, {"type": "note_off", "time": 100, "note": 70, "velocity": 102, "channel": 0}, {"type": "note_on", "time": 8, "note": 67, "velocity": 77, "channel": 0}, {"type": "note_off", "time": 64, "note": 67, "velocity": 77, "channel": 0}, {"type": "note_on", "time": 24, "note": 71, "velocity": 100, "channel": 0}, {"type": "note_off", "time": 81, "note": 71, "velocity": 100, "channel": 0}, {"type": "note_on", "time": 10, "note": 68, "velocity": 87, "channel": 0}, {"type": "note_off", "time": 83, "note": 68, "velocity": 87, "channel": 0}, {"type": "note_on", "time": 0, "note": 72, "velocity": 88, "channel": 0}, {"type": "note_off", "time": 108, "note": 72, "velocity": 88, "channel": 0}, {"type": "note_on", "time": 18, "note": 69, "velocity": 77, "channel": 0}, {"type": "note_off", "time": 45, "note": 69, "velocity": 77, "channel": 0}, {"type": "note_on", "time": 0, "note": 73, "velocity": 87, "channel": 0}, {"type": "note_off", "time": 132, "note": 73, "velocity": 87, "channel": 0}, {"type": "note_on", "time": 18, "note": 74, "velocity": 111, "channel": 0}, {"type": "note_off", "time": 132, "note": 74, "velocity": 111, "channel": 0}, {"type": "note_on", "time": 2, "note": 75, "velocity": 103, "channel": 0}, {"type": "note_off", "time": 448, "note": 75, "velocity": 103, "channel": 0}, {"type": "note_on", "time": 37, "note": 68, "velocity": 95, "channel": 0}, {"type": "note_off", "time": 97, "note": 68, "velocity": 95, "channel": 0}, {"type": "note_on", "time": 2, "note": 67, "velocity": 88, "channel": 0}, {"type": "note_off", "time": 64, "note": 67, "velocity": 88, "channel": 0}, {"type": "note_on", "time": 18, "note": 68, "velocity": 97, "channel": 0}, {"type": "note_off", "time": 78, "note": 68, "velocity": 97, "channel": 0}, {"type": "note_on", "time": 64, "note": 76, "velocity": 108, "channel": 0}, {"type": "note_off", "time": 275, "note": 76, "velocity": 108, "channel": 0}, {"type": "note_on", "time": 32, "note": 69, "velocity": 75, "channel": 0}, {"type": "note_off", "time": 108, "note": 69, "velocity": 75, "channel": 0}, {"type": "note_on", "time": 89, "note": 69, "velocity": 89, "channel": 0}, {"type": "note_off", "time": 89, "note": 69, "velocity": 89, "channel": 0}, {"type": "note_on", "time": 191, "note": 77, "velocity": 110, "channel": 0}, {"type": "note_off", "time": 405, "note": 77, "velocity": 110, "channel": 0}, {"type": "note_on", "time": 10, "note": 78, "velocity": 106, "channel": 0}, {"type": "note_off", "time": 259, "note": 78, "velocity": 106, "channel": 0}, {"type": "note_on", "time": 13, "note": 77, "velocity": 97, "channel": 0}, {"type": "note_off", "time": 48, "note": 77, "velocity": 97, "channel": 0}, {"type": "note_on", "time": 16, "note": 76, "velocity": 103, "channel": 0}, {"type": "note_off", "time": 83, "note": 76, "velocity": 103, "channel": 0}, {"type": "note_on", "time": 18, "note": 75, "velocity": 86, "channel": 0}, {"type": "note_off", "time": 78, "note": 75, "velocity": 86, "channel": 0}, {"type": "note_on", "time": 851, "note": 62, "velocity": 75, "channel": 0}, {"type": "note_off", "time": 62, "note": 62, "velocity": 75, "channel": 0}, {"type": "note_on", "time": 8, "note": 64, "velocity": 85, "channel": 0}, {"type": "note_off", "time": 70, "note": 64, "velocity": 85, "channel": 0}, {"type": "note_on", "time": 2, "note": 65, "velocity": 95, "channel": 0}, {"type": "note_off", "time": 91, "note": 65, "velocity": 95, "channel": 0}, {"type": "note_on", "time": 10, "note": 66, "velocity": 88, "channel": 0}, {"type": "note_off", "time": 59, "note": 66, "velocity": 88, "channel": 0}, {"type": "note_on", "time": 0, "note": 64, "velocity": 98, "channel": 0}, {"type": "note_off", "time": 97, "note": 64, "velocity": 98, "channel": 0}, {"type": "note_on", "time": 27, "note": 65, "velocity": 96, "channel": 0}, {"type": "note_off", "time": 89, "note": 65, "velocity": 96, "channel": 0}, {"type": "note_on", "time": 0, "note": 62, "velocity": 90, "channel": 0}, {"type": "note_off", "time": 100, "note": 62, "velocity": 90, "channel": 0}, {"type": "note_on", "time": 21, "note": 64, "velocity": 86, "channel": 0}, {"type": "note_off", "time": 67, "note": 64, "velocity": 86, "channel": 0}, {"type": "note_on", "time": 13, "note": 66, "velocity": 100, "channel": 0}, {"type": "note_off", "time": 91, "note": 66, "velocity": 100, "channel": 0}, {"type": "note_on", "time": 5, "note": 67, "velocity": 89, "channel": 0}, {"type": "note_off", "time": 86, "note": 67, "velocity": 89, "channel": 0}, {"type": "note_on", "time": 0, "note": 69, "velocity": 101, "channel": 0}, {"type": "note_off", "time": 86, "note": 69, "velocity": 101, "channel": 0}, {"type": "note_on", "time": 10, "note": 70, "velocity": 101, "channel": 0}, {"type": "note_off", "time": 89, "note": 70, "velocity": 101, "channel": 0}, {"type": "note_on", "time": 8, "note": 71, "velocity": 96, "channel": 0}, {"type": "note_off", "time": 78, "note": 71, "velocity": 96, "channel": 0}, {"type": "note_on", "time": 0, "note": 72, "velocity": 98, "channel": 0}, {"type": "note_off", "time": 89, "note": 72, "velocity": 98, "channel": 0}, {"type": "note_on", "time": 18, "note": 73, "velocity": 98, "channel": 0}, {"type": "note_off", "time": 75, "note": 73, "velocity": 98, "channel": 0}, {"type": "note_on", "time": 10, "note": 74, "velocity": 106, "channel": 0}, {"type": "note_off", "time": 97, "note": 74, "velocity": 106, "channel": 0}, {"type": "note_on", "time": 13, "note": 75, "velocity": 107, "channel": 0}, {"type": "note_off", "time": 81, "note": 75, "velocity": 107, "channel": 0}, {"type": "note_on", "time": 10, "note": 72, "velocity": 105, "channel": 0}, {"type": "note_off", "time": 62, "note": 72, "velocity": 105, "channel": 0}, {"type": "note_on", "time": 8, "note": 73, "velocity": 98, "channel": 0}, {"type": "note_off", "time": 116, "note": 73, "velocity": 98, "channel": 0}, {"type": "note_on", "time": 8, "note": 71, "velocity": 95, "channel": 0}, {"type": "note_off", "time": 81, "note": 71, "velocity": 95, "channel": 0}, {"type": "note_on", "time": 0, "note": 72, "velocity": 100, "channel": 0}, {"type": "note_off", "time": 89, "note": 72, "velocity": 100, "channel": 0}, {"type": "note_on", "time": 8, "note": 71, "velocity": 96, "channel": 0}, {"type": "note_off", "time": 100, "note": 71, "velocity": 96, "channel": 0}, {"type": "note_on", "time": 2, "note": 70, "velocity": 101, "channel": 0}, {"type": "note_off", "time": 70, "note": 70, "velocity": 101, "channel": 0}, {"type": "note_on", "time": 18, "note": 69, "velocity": 103, "channel": 0}, {"type": "note_off", "time": 81, "note": 69, "velocity": 103, "channel": 0}, {"type": "note_on", "time": 2, "note": 67, "velocity": 96, "channel": 0}, {"type": "note_off", "time": 97, "note": 67, "velocity": 96, "channel": 0}, {"type": "note_on", "time": 0, "note": 69, "velocity": 91, "channel": 0}, {"type": "note_off", "time": 83, "note": 69, "velocity": 91, "channel": 0}, {"type": "note_on", "time": 2, "note": 70, "velocity": 100, "channel": 0}, {"type": "note_off", "time": 124, "note": 70, "velocity": 100, "channel": 0}, {"type": "note_on", "time": 0, "note": 69, "velocity": 83, "channel": 0}, {"type": "note_off", "time": 64, "note": 69, "velocity": 83, "channel": 0}, {"type": "note_on", "time": 0, "note": 73, "velocity": 96, "channel": 0}, {"type": "note_on", "time": 108, "note": 71, "velocity": 97, "channel": 0}, {"type": "note_off", "time": 0, "note": 73, "velocity": 96, "channel": 0}, {"type": "note_off", "time": 89, "note": 71, "velocity": 97, "channel": 0}, {"type": "note_on", "time": 5, "note": 72, "velocity": 98, "channel": 0}, {"type": "note_off", "time": 97, "note": 72, "velocity": 98, "channel": 0}, {"type": "note_on", "time": 27, "note": 71, "velocity": 100, "channel": 0}, {"type": "note_off", "time": 54, "note": 71, "velocity": 100, "channel": 0}, {"type": "note_on", "time": 21, "note": 70, "velocity": 104, "channel": 0}, {"type": "note_off", "time": 70, "note": 70, "velocity": 104, "channel": 0}, {"type": "note_on", "time": 24, "note": 69, "velocity": 103, "channel": 0}, {"type": "note_off", "time": 86, "note": 69, "velocity": 103, "channel": 0}, {"type": "note_on", "time": 13, "note": 68, "velocity": 92, "channel": 0}, {"type": "note_off", "time": 83, "note": 68, "velocity": 92, "channel": 0}, {"type": "note_on", "time": 5, "note": 64, "velocity": 95, "channel": 0}, {"type": "note_off", "time": 97, "note": 64, "velocity": 95, "channel": 0}, {"type": "note_on", "time": 43, "note": 60, "velocity": 81, "channel": 0}, {"type": "note_off", "time": 43, "note": 60, "velocity": 81, "channel": 0}, {"type": "note_on", "time": 480, "note": 67, "velocity": 102, "channel": 0}, {"type": "note_on", "time": 108, "note": 64, "velocity": 91, "channel": 0}, {"type": "note_off", "time": 0, "note": 67, "velocity": 102, "channel": 0}, {"type": "note_off", "time": 72, "note": 64, "velocity": 91, "channel": 0}, {"type": "note_on", "time": 13, "note": 65, "velocity": 94, "channel": 0}, {"type": "note_off", "time": 91, "note": 65, "velocity": 94, "channel": 0}, {"type": "note_on", "time": 5, "note": 67, "velocity": 100, "channel": 0}, {"type": "note_off", "time": 83, "note": 67, "velocity": 100, "channel": 0}, {"type": "note_on", "time": 10, "note": 68, "velocity": 92, "channel": 0}, {"type": "note_off", "time": 75, "note": 68, "velocity": 92, "channel": 0}, {"type": "note_on", "time": 13, "note": 70, "velocity": 107, "channel": 0}, {"type": "note_off", "time": 86, "note": 70, "velocity": 107, "channel": 0}, {"type": "note_on", "time": 8, "note": 67, "velocity": 97, "channel": 0}, {"type": "note_off", "time": 70, "note": 67, "velocity": 97, "channel": 0}, {"type": "note_on", "time": 10, "note": 68, "velocity": 95, "channel": 0}, {"type": "note_off", "time": 81, "note": 68, "velocity": 95, "channel": 0}, {"type": "note_on", "time": 10, "note": 69, "velocity": 101, "channel": 0}, {"type": "note_off", "time": 91, "note": 69, "velocity": 101, "channel": 0}, {"type": "note_on", "time": 18, "note": 70, "velocity": 107, "channel": 0}, {"type": "note_off", "time": 70, "note": 70, "velocity": 107, "channel": 0}, {"type": "note_on", "time": 2, "note": 72, "velocity": 85, "channel": 0}, {"type": "note_off", "time": 81, "note": 72, "velocity": 85, "channel": 0}, {"type": "note_on", "time": 16, "note": 74, "velocity": 105, "channel": 0}, {"type": "note_off", "time": 129, "note": 74, "velocity": 105, "channel": 0}, {"type": "note_on", "time": 270, "note": 76, "velocity": 106, "channel": 0}, {"type": "note_off", "time": 89, "note": 76, "velocity": 106, "channel": 0}, {"type": "note_on", "time": 13, "note": 77, "velocity": 106, "channel": 0}, {"type": "note_off", "time": 135, "note": 77, "velocity": 106, "channel": 0}, {"type": "note_on", "time": 540, "note": 79, "velocity": 103, "channel": 0}, {"type": "note_off", "time": 72, "note": 79, "velocity": 103, "channel": 0}, {"type": "note_on", "time": 8, "note": 80, "velocity": 107, "channel": 0}, {"type": "note_off", "time": 86, "note": 80, "velocity": 107, "channel": 0}, {"type": "note_on", "time": 0, "note": 76, "velocity": 108, "channel": 0}, {"type": "note_off", "time": 75, "note": 76, "velocity": 108, "channel": 0}, {"type": "note_on", "time": 16, "note": 79, "velocity": 105, "channel": 0}, {"type": "note_off", "time": 91, "note": 79, "velocity": 105, "channel": 0}, {"type": "note_on", "time": 19, "note": 74, "velocity": 86, "channel": 0}, {"type": "note_off", "time": 87, "note": 74, "velocity": 86, "channel": 0}, {"type": "note_on", "time": 9, "note": 77, "velocity": 109, "channel": 0}, {"type": "note_off", "time": 91, "note": 77, "velocity": 109, "channel": 0}, {"type": "note_on", "time": 2, "note": 70, "velocity": 86, "channel": 0}, {"type": "note_off", "time": 72, "note": 70, "velocity": 86, "channel": 0}, {"type": "note_on", "time": 21, "note": 76, "velocity": 107, "channel": 0}, {"type": "note_off", "time": 91, "note": 76, "velocity": 107, "channel": 0}, {"type": "note_on", "time": 16, "note": 70, "velocity": 83, "channel": 0}, {"type": "note_off", "time": 70, "note": 70, "velocity": 83, "channel": 0}, {"type": "note_on", "time": 21, "note": 76, "velocity": 100, "channel": 0}, {"type": "note_off", "time": 89, "note": 76, "velocity": 100, "channel": 0}, {"type": "note_on", "time": 40, "note": 68, "velocity": 91, "channel": 0}, {"type": "note_on", "time": 51, "note": 74, "velocity": 109, "channel": 0}, {"type": "note_off", "time": 0, "note": 68, "velocity": 91, "channel": 0}, {"type": "note_off", "time": 91, "note": 74, "velocity": 109, "channel": 0}, {"type": "note_on", "time": 394, "note": 73, "velocity": 108, "channel": 0}, {"type": "note_off", "time": 91, "note": 73, "velocity": 108, "channel": 0}, {"type": "note_on", "time": 13, "note": 72, "velocity": 107, "channel": 0}, {"type": "note_off", "time": 291, "note": 72, "velocity": 107, "channel": 0}, {"type": "note_on", "time": 5, "note": 71, "velocity": 90, "channel": 0}, {"type": "note_off", "time": 78, "note": 71, "velocity": 90, "channel": 0}, {"type": "note_on", "time": 8, "note": 72, "velocity": 96, "channel": 0}, {"type": "note_off", "time": 81, "note": 72, "velocity": 96, "channel": 0}, {"type": "note_on", "time": 0, "note": 70, "velocity": 103, "channel": 0}, {"type": "note_off", "time": 62, "note": 70, "velocity": 103, "channel": 0}, {"type": "note_on", "time": 21, "note": 71, "velocity": 97, "channel": 0}, {"type": "note_off", "time": 89, "note": 71, "velocity": 97, "channel": 0}, {"type": "note_on", "time": 16, "note": 69, "velocity": 88, "channel": 0}, {"type": "note_off", "time": 64, "note": 69, "velocity": 88, "channel": 0}, {"type": "note_on", "time": 16, "note": 70, "velocity": 97, "channel": 0}, {"type": "note_off", "time": 113, "note": 70, "velocity": 97, "channel": 0}, {"type": "note_on", "time": 0, "note": 68, "velocity": 93, "channel": 0}, {"type": "note_off", "time": 75, "note": 68, "velocity": 93, "channel": 0}, {"type": "note_on", "time": 10, "note": 69, "velocity": 102, "channel": 0}, {"type": "note_off", "time": 81, "note": 69, "velocity": 102, "channel": 0}, {"type": "note_on", "time": 8, "note": 67, "velocity": 95, "channel": 0}, {"type": "note_off", "time": 67, "note": 67, "velocity": 95, "channel": 0}, {"type": "note_on", "time": 8, "note": 68, "velocity": 93, "channel": 0}, {"type": "note_off", "time": 91, "note": 68, "velocity": 93, "channel": 0}, {"type": "note_on", "time": 10, "note": 69, "velocity": 101, "channel": 0}, {"type": "note_off", "time": 78, "note": 69, "velocity": 101, "channel": 0}, {"type": "note_on", "time": 2, "note": 67, "velocity": 92, "channel": 0}, {"type": "note_off", "time": 102, "note": 67, "velocity": 92, "channel": 0}, {"type": "note_on", "time": 2, "note": 68, "velocity": 93, "channel": 0}, {"type": "note_off", "time": 75, "note": 68, "velocity": 93, "channel": 0}, {"type": "note_on", "time": 5, "note": 69, "velocity": 99, "channel": 0}, {"type": "note_off", "time": 100, "note": 69, "velocity": 99, "channel": 0}, {"type": "note_on", "time": 10, "note": 70, "velocity": 107, "channel": 0}, {"type": "note_off", "time": 102, "note": 70, "velocity": 107, "channel": 0}, {"type": "note_on", "time": 378, "note": 75, "velocity": 106, "channel": 0}, {"type": "note_off", "time": 86, "note": 75, "velocity": 106, "channel": 0}, {"type": "note_on", "time": 18, "note": 68, "velocity": 95, "channel": 0}, {"type": "note_off", "time": 75, "note": 68, "velocity": 95, "channel": 0}, {"type": "note_on", "time": 362, "note": 68, "velocity": 84, "channel": 0}, {"type": "note_off", "time": 94, "note": 68, "velocity": 84, "channel": 0}, {"type": "note_on", "time": 8, "note": 67, "velocity": 83, "channel": 0}, {"type": "note_off", "time": 70, "note": 67, "velocity": 83, "channel": 0}, {"type": "note_on", "time": 10, "note": 68, "velocity": 102, "channel": 0}, {"type": "note_off", "time": 83, "note": 68, "velocity": 102, "channel": 0}, {"type": "note_on", "time": 8, "note": 70, "velocity": 99, "channel": 0}, {"type": "note_off", "time": 62, "note": 70, "velocity": 99, "channel": 0}, {"type": "note_on", "time": 18, "note": 71, "velocity": 93, "channel": 0}, {"type": "note_off", "time": 70, "note": 71, "velocity": 93, "channel": 0}, {"type": "note_on", "time": 32, "note": 72, "velocity": 104, "channel": 0}, {"type": "note_off", "time": 70, "note": 72, "velocity": 104, "channel": 0}, {"type": "note_on", "time": 24, "note": 73, "velocity": 87, "channel": 0}, {"type": "note_off", "time": 67, "note": 73, "velocity": 87, "channel": 0}, {"type": "note_on", "time": 10, "note": 74, "velocity": 106, "channel": 0}, {"type": "note_off", "time": 89, "note": 74, "velocity": 106, "channel": 0}, {"type": "note_on", "time": 0, "note": 75, "velocity": 108, "channel": 0}, {"type": "note_off", "time": 89, "note": 75, "velocity": 108, "channel": 0}, {"type": "note_on", "time": 27, "note": 76, "velocity": 107, "channel": 0}, {"type": "note_off", "time": 264, "note": 76, "velocity": 107, "channel": 0}, {"type": "note_on", "time": 27, "note": 77, "velocity": 105, "channel": 0}, {"type": "note_off", "time": 110, "note": 77, "velocity": 105, "channel": 0}, {"type": "note_on", "time": 86, "note": 78, "velocity": 108, "channel": 0}, {"type": "note_off", "time": 124, "note": 78, "velocity": 108, "channel": 0}, {"type": "note_on", "time": 3043, "note": 79, "velocity": 101, "channel": 0}, {"type": "note_off", "time": 59, "note": 79, "velocity": 101, "channel": 0}, {"type": "note_on", "time": 0, "note": 80, "velocity": 108, "channel": 0}, {"type": "note_off", "time": 105, "note": 80, "velocity": 108, "channel": 0}, {"type": "note_on", "time": 5, "note": 79, "velocity": 105, "channel": 0}, {"type": "note_off", "time": 72, "note": 79, "velocity": 105, "channel": 0}, {"type": "note_on", "time": 13, "note": 80, "velocity": 106, "channel": 0}, {"type": "note_off", "time": 108, "note": 80, "velocity": 106, "channel": 0}, {"type": "note_on", "time": 2, "note": 79, "velocity": 106, "channel": 0}, {"type": "note_off", "time": 286, "note": 79, "velocity": 106, "channel": 0}, {"type": "note_on", "time": 8, "note": 80, "velocity": 104, "channel": 0}, {"type": "note_off", "time": 94, "note": 80, "velocity": 104, "channel": 0}, {"type": "note_on", "time": 8, "note": 79, "velocity": 103, "channel": 0}, {"type": "note_off", "time": 67, "note": 79, "velocity": 103, "channel": 0}, {"type": "note_on", "time": 8, "note": 80, "velocity": 107, "channel": 0}, {"type": "note_off", "time": 91, "note": 80, "velocity": 107, "channel": 0}, {"type": "note_on", "time": 10, "note": 79, "velocity": 105, "channel": 0}, {"type": "note_off", "time": 456, "note": 79, "velocity": 105, "channel": 0}, {"type": "note_on", "time": 121, "note": 77, "velocity": 102, "channel": 0}, {"type": "note_off", "time": 105, "note": 77, "velocity": 102, "channel": 0}, {"type": "note_on", "time": 167, "note": 88, "velocity": 103, "channel": 0}, {"type": "note_off", "time": 424, "note": 88, "velocity": 103, "channel": 0}, {"type": "note_on", "time": 0, "note": 86, "velocity": 100, "channel": 0}, {"type": "note_off", "time": 108, "note": 86, "velocity": 100, "channel": 0}, {"type": "note_on", "time": 10, "note": 85, "velocity": 101, "channel": 0}, {"type": "note_off", "time": 70, "note": 85, "velocity": 101, "channel": 0}, {"type": "note_on", "time": 21, "note": 82, "velocity": 99, "channel": 0}, {"type": "note_off", "time": 78, "note": 82, "velocity": 99, "channel": 0}, {"type": "note_on", "time": 13, "note": 81, "velocity": 107, "channel": 0}, {"type": "note_off", "time": 72, "note": 81, "velocity": 107, "channel": 0}, {"type": "note_on", "time": 0, "note": 79, "velocity": 102, "channel": 0}, {"type": "note_off", "time": 70, "note": 79, "velocity": 102, "channel": 0}, {"type": "note_on", "time": 5, "note": 77, "velocity": 96, "channel": 0}, {"type": "note_off", "time": 100, "note": 77, "velocity": 96, "channel": 0}, {"type": "note_on", "time": 8, "note": 76, "velocity": 101, "channel": 0}, {"type": "note_off", "time": 100, "note": 76, "velocity": 101, "channel": 0}, {"type": "note_on", "time": 2, "note": 75, "velocity": 90, "channel": 0}, {"type": "note_off", "time": 70, "note": 75, "velocity": 90, "channel": 0}, {"type": "note_on", "time": 510, "note": 73, "velocity": 97, "channel": 0}, {"type": "note_off", "time": 81, "note": 73, "velocity": 97, "channel": 0}, {"type": "note_on", "time": 5, "note": 71, "velocity": 86, "channel": 0}, {"type": "note_off", "time": 78, "note": 71, "velocity": 86, "channel": 0}, {"type": "note_on", "time": 18, "note": 72, "velocity": 97, "channel": 0}, {"type": "note_off", "time": 67, "note": 72, "velocity": 97, "channel": 0}, {"type": "note_on", "time": 16, "note": 74, "velocity": 101, "channel": 0}, {"type": "note_off", "time": 75, "note": 74, "velocity": 101, "channel": 0}, {"type": "note_on", "time": 8, "note": 75, "velocity": 98, "channel": 0}, {"type": "note_off", "time": 248, "note": 75, "velocity": 98, "channel": 0}, {"type": "note_on", "time": 43, "note": 77, "velocity": 104, "channel": 0}, {"type": "note_off", "time": 64, "note": 77, "velocity": 104, "channel": 0}, {"type": "note_on", "time": 5, "note": 79, "velocity": 91, "channel": 0}, {"type": "note_off", "time": 48, "note": 79, "velocity": 91, "channel": 0}, {"type": "note_on", "time": 18, "note": 80, "velocity": 104, "channel": 0}, {"type": "note_off", "time": 67, "note": 80, "velocity": 104, "channel": 0}, {"type": "note_on", "time": 37, "note": 83, "velocity": 95, "channel": 0}, {"type": "note_off", "time": 37, "note": 83, "velocity": 95, "channel": 0}, {"type": "note_on", "time": 24, "note": 84, "velocity": 102, "channel": 0}, {"type": "note_off", "time": 37, "note": 84, "velocity": 102, "channel": 0}, {"type": "note_on", "time": 16, "note": 86, "velocity": 109, "channel": 0}, {"type": "note_off", "time": 45, "note": 86, "velocity": 109, "channel": 0}, {"type": "note_on", "time": 18, "note": 87, "velocity": 111, "channel": 0}, {"type": "note_off", "time": 329, "note": 87, "velocity": 111, "channel": 0}, {"type": "note_on", "time": 5, "note": 85, "velocity": 103, "channel": 0}, {"type": "note_off", "time": 81, "note": 85, "velocity": 103, "channel": 0}, {"type": "note_on", "time": 18, "note": 84, "velocity": 101, "channel": 0}, {"type": "note_off", "time": 97, "note": 84, "velocity": 101, "channel": 0}, {"type": "note_on", "time": 10, "note": 82, "velocity": 90, "channel": 0}, {"type": "note_off", "time": 59, "note": 82, "velocity": 90, "channel": 0}, {"type": "note_on", "time": 37, "note": 81, "velocity": 91, "channel": 0}, {"type": "note_off", "time": 64, "note": 81, "velocity": 91, "channel": 0}, {"type": "note_on", "time": 13, "note": 79, "velocity": 98, "channel": 0}, {"type": "note_off", "time": 72, "note": 79, "velocity": 98, "channel": 0}, {"type": "note_on", "time": 8, "note": 77, "velocity": 94, "channel": 0}, {"type": "note_off", "time": 86, "note": 77, "velocity": 94, "channel": 0}, {"type": "note_on", "time": 18, "note": 76, "velocity": 101, "channel": 0}, {"type": "note_off", "time": 59, "note": 76, "velocity": 101, "channel": 0}, {"type": "note_on", "time": 13, "note": 75, "velocity": 92, "channel": 0}, {"type": "note_off", "time": 81, "note": 75, "velocity": 92, "channel": 0}, {"type": "note_on", "time": 2, "note": 72, "velocity": 90, "channel": 0}, {"type": "note_off", "time": 97, "note": 72, "velocity": 90, "channel": 0}, {"type": "note_on", "time": 5, "note": 73, "velocity": 99, "channel": 0}, {"type": "note_off", "time": 116, "note": 73, "velocity": 99, "channel": 0}, {"type": "note_on", "time": 21, "note": 71, "velocity": 93, "channel": 0}, {"type": "note_off", "time": 78, "note": 71, "velocity": 93, "channel": 0}, {"type": "note_on", "time": 8, "note": 72, "velocity": 93, "channel": 0}, {"type": "note_off", "time": 78, "note": 72, "velocity": 93, "channel": 0}, {"type": "note_on", "time": 5, "note": 71, "velocity": 98, "channel": 0}, {"type": "note_off", "time": 197, "note": 71, "velocity": 98, "channel": 0}, {"type": "note_on", "time": 16, "note": 70, "velocity": 81, "channel": 0}, {"type": "note_off", "time": 218, "note": 70, "velocity": 81, "channel": 0}, {"type": "note_on", "time": 40, "note": 70, "velocity": 96, "channel": 0}, {"type": "note_off", "time": 94, "note": 70, "velocity": 96, "channel": 0}, {"type": "note_on", "time": 8, "note": 65, "velocity": 86, "channel": 0}, {"type": "note_off", "time": 91, "note": 65, "velocity": 86, "channel": 0}, {"type": "note_on", "time": 21, "note": 71, "velocity": 92, "channel": 0}, {"type": "note_off", "time": 294, "note": 71, "velocity": 92, "channel": 0}, {"type": "note_on", "time": 18, "note": 72, "velocity": 99, "channel": 0}, {"type": "note_off", "time": 170, "note": 72, "velocity": 99, "channel": 0}, {"type": "note_on", "time": 2, "note": 71, "velocity": 96, "channel": 0}, {"type": "note_off", "time": 143, "note": 71, "velocity": 96, "channel": 0}, {"type": "note_on", "time": 118, "note": 72, "velocity": 101, "channel": 0}, {"type": "note_off", "time": 81, "note": 72, "velocity": 101, "channel": 0}, {"type": "note_on", "time": 5, "note": 73, "velocity": 100, "channel": 0}, {"type": "note_off", "time": 78, "note": 73, "velocity": 100, "channel": 0}, {"type": "note_on", "time": 21, "note": 72, "velocity": 98, "channel": 0}, {"type": "note_off", "time": 170, "note": 72, "velocity": 98, "channel": 0}, {"type": "note_on", "time": 164, "note": 75, "velocity": 87, "channel": 0}, {"type": "note_off", "time": 62, "note": 75, "velocity": 87, "channel": 0}, {"type": "note_on", "time": 16, "note": 70, "velocity": 89, "channel": 0}, {"type": "note_off", "time": 70, "note": 70, "velocity": 89, "channel": 0}, {"type": "note_on", "time": 48, "note": 72, "velocity": 98, "channel": 0}, {"type": "note_off", "time": 67, "note": 72, "velocity": 98, "channel": 0}, {"type": "note_on", "time": 1051, "note": 67, "velocity": 81, "channel": 0}, {"type": "note_off", "time": 70, "note": 67, "velocity": 81, "channel": 0}, {"type": "note_on", "time": 5, "note": 68, "velocity": 95, "channel": 0}, {"type": "note_off", "time": 83, "note": 68, "velocity": 95, "channel": 0}, {"type": "note_on", "time": 5, "note": 70, "velocity": 96, "channel": 0}, {"type": "note_off", "time": 81, "note": 70, "velocity": 96, "channel": 0}, {"type": "note_on", "time": 13, "note": 71, "velocity": 91, "channel": 0}, {"type": "note_off", "time": 78, "note": 71, "velocity": 91, "channel": 0}, {"type": "note_on", "time": 10, "note": 72, "velocity": 99, "channel": 0}, {"type": "note_off", "time": 78, "note": 72, "velocity": 99, "channel": 0}, {"type": "note_on", "time": 2, "note": 73, "velocity": 94, "channel": 0}, {"type": "note_off", "time": 89, "note": 73, "velocity": 94, "channel": 0}, {"type": "note_on", "time": 18, "note": 74, "velocity": 106, "channel": 0}, {"type": "note_off", "time": 70, "note": 74, "velocity": 106, "channel": 0}, {"type": "note_on", "time": 18, "note": 76, "velocity": 105, "channel": 0}, {"type": "note_off", "time": 89, "note": 76, "velocity": 105, "channel": 0}, {"type": "note_on", "time": 5, "note": 77, "velocity": 107, "channel": 0}, {"type": "note_off", "time": 75, "note": 77, "velocity": 107, "channel": 0}, {"type": "note_on", "time": 8, "note": 79, "velocity": 105, "channel": 0}, {"type": "note_off", "time": 75, "note": 79, "velocity": 105, "channel": 0}, {"type": "note_on", "time": 0, "note": 81, "velocity": 108, "channel": 0}, {"type": "note_off", "time": 124, "note": 81, "velocity": 108, "channel": 0}, {"type": "note_on", "time": 8, "note": 79, "velocity": 104, "channel": 0}, {"type": "note_on", "time": 86, "note": 78, "velocity": 99, "channel": 0}, {"type": "note_off", "time": 0, "note": 79, "velocity": 104, "channel": 0}, {"type": "note_off", "time": 105, "note": 78, "velocity": 99, "channel": 0}, {"type": "note_on", "time": 0, "note": 77, "velocity": 107, "channel": 0}, {"type": "note_off", "time": 86, "note": 77, "velocity": 107, "channel": 0}, {"type": "note_on", "time": 0, "note": 76, "velocity": 107, "channel": 0}, {"type": "note_off", "time": 67, "note": 76, "velocity": 107, "channel": 0}, {"type": "note_on", "time": 10, "note": 74, "velocity": 87, "channel": 0}, {"type": "note_off", "time": 81, "note": 74, "velocity": 87, "channel": 0}, {"type": "note_on", "time": 8, "note": 73, "velocity": 101, "channel": 0}, {"type": "note_off", "time": 91, "note": 73, "velocity": 101, "channel": 0}, {"type": "note_on", "time": 24, "note": 72, "velocity": 98, "channel": 0}, {"type": "note_off", "time": 81, "note": 72, "velocity": 98, "channel": 0}, {"type": "note_on", "time": 2, "note": 70, "velocity": 93, "channel": 0}, {"type": "note_off", "time": 86, "note": 70, "velocity": 93, "channel": 0}, {"type": "note_on", "time": 0, "note": 69, "velocity": 88, "channel": 0}, {"type": "note_off", "time": 78, "note": 69, "velocity": 88, "channel": 0}, {"type": "note_on", "time": 24, "note": 70, "velocity": 82, "channel": 0}, {"type": "note_off", "time": 75, "note": 70, "velocity": 82, "channel": 0}, {"type": "note_on", "time": 0, "note": 67, "velocity": 91, "channel": 0}, {"type": "note_off", "time": 91, "note": 67, "velocity": 91, "channel": 0}, {"type": "note_on", "time": 29, "note": 69, "velocity": 85, "channel": 0}, {"type": "note_off", "time": 83, "note": 69, "velocity": 85, "channel": 0}, {"type": "note_on", "time": 0, "note": 70, "velocity": 90, "channel": 0}, {"type": "note_on", "time": 91, "note": 72, "velocity": 96, "channel": 0}, {"type": "note_off", "time": 0, "note": 70, "velocity": 90, "channel": 0}, {"type": "note_off", "time": 78, "note": 72, "velocity": 96, "channel": 0}, {"type": "note_on", "time": 5, "note": 73, "velocity": 98, "channel": 0}, {"type": "note_off", "time": 116, "note": 73, "velocity": 98, "channel": 0}, {"type": "note_on", "time": 0, "note": 74, "velocity": 92, "channel": 0}, {"type": "note_off", "time": 94, "note": 74, "velocity": 92, "channel": 0}, {"type": "note_on", "time": 5, "note": 72, "velocity": 92, "channel": 0}, {"type": "note_off", "time": 70, "note": 72, "velocity": 92, "channel": 0}, {"type": "note_on", "time": 0, "note": 67, "velocity": 92, "channel": 0}, {"type": "note_off", "time": 86, "note": 67, "velocity": 92, "channel": 0}, {"type": "note_on", "time": 13, "note": 70, "velocity": 86, "channel": 0}, {"type": "note_off", "time": 97, "note": 70, "velocity": 86, "channel": 0}, {"type": "note_on", "time": 472, "note": 71, "velocity": 95, "channel": 0}, {"type": "note_off", "time": 143, "note": 71, "velocity": 95, "channel": 0}, {"type": "note_on", "time": 2, "note": 70, "velocity": 102, "channel": 0}, {"type": "note_off", "time": 45, "note": 70, "velocity": 102, "channel": 0}, {"type": "note_on", "time": 5, "note": 71, "velocity": 100, "channel": 0}, {"type": "note_off", "time": 102, "note": 71, "velocity": 100, "channel": 0}, {"type": "note_on", "time": 21, "note": 70, "velocity": 99, "channel": 0}, {"type": "note_off", "time": 467, "note": 70, "velocity": 99, "channel": 0}, {"type": "note_on", "time": 35, "note": 70, "velocity": 97, "channel": 0}, {"type": "note_off", "time": 175, "note": 70, "velocity": 97, "channel": 0}, {"type": "note_on", "time": 56, "note": 70, "velocity": 94, "channel": 0}, {"type": "note_off", "time": 497, "note": 70, "velocity": 94, "channel": 0}, {"type": "note_on", "time": 21, "note": 68, "velocity": 86, "channel": 0}, {"type": "note_off", "time": 72, "note": 68, "velocity": 86, "channel": 0}, {"type": "note_on", "time": 96, "note": 68, "velocity": 87, "channel": 0}, {"type": "note_off", "time": 239, "note": 68, "velocity": 87, "channel": 0}, {"type": "note_on", "time": 391, "note": 68, "velocity": 80, "channel": 0}, {"type": "note_off", "time": 97, "note": 68, "velocity": 80, "channel": 0}, {"type": "note_on", "time": 59, "note": 68, "velocity": 92, "channel": 0}, {"type": "note_off", "time": 89, "note": 68, "velocity": 92, "channel": 0}, {"type": "note_on", "time": 13, "note": 70, "velocity": 95, "channel": 0}, {"type": "note_off", "time": 89, "note": 70, "velocity": 95, "channel": 0}, {"type": "note_on", "time": 24, "note": 71, "velocity": 100, "channel": 0}, {"type": "note_off", "time": 248, "note": 71, "velocity": 100, "channel": 0}, {"type": "note_on", "time": 8, "note": 70, "velocity": 91, "channel": 0}, {"type": "note_off", "time": 424, "note": 70, "velocity": 91, "channel": 0}, {"type": "note_on", "time": 64, "note": 70, "velocity": 99, "channel": 0}, {"type": "note_on", "time": 129, "note": 69, "velocity": 90, "channel": 0}, {"type": "note_off", "time": 0, "note": 70, "velocity": 99, "channel": 0}, {"type": "note_off", "time": 83, "note": 69, "velocity": 90, "channel": 0}, {"type": "note_on", "time": 94, "note": 70, "velocity": 92, "channel": 0}, {"type": "note_off", "time": 202, "note": 70, "velocity": 92, "channel": 0}, {"type": "note_on", "time": 59, "note": 70, "velocity": 91, "channel": 0}, {"type": "note_off", "time": 335, "note": 70, "velocity": 91, "channel": 0}, {"type": "note_on", "time": 189, "note": 68, "velocity": 92, "channel": 0}, {"type": "note_off", "time": 67, "note": 68, "velocity": 92, "channel": 0}, {"type": "note_on", "time": 86, "note": 67, "velocity": 85, "channel": 0}, {"type": "note_off", "time": 228, "note": 67, "velocity": 85, "channel": 0}, {"type": "note_on", "time": 733, "note": 62, "velocity": 66, "channel": 0}, {"type": "note_off", "time": 83, "note": 62, "velocity": 66, "channel": 0}, {"type": "note_on", "time": 2, "note": 63, "velocity": 77, "channel": 0}, {"type": "note_off", "time": 91, "note": 63, "velocity": 77, "channel": 0}, {"type": "note_on", "time": 18, "note": 64, "velocity": 88, "channel": 0}, {"type": "note_off", "time": 91, "note": 64, "velocity": 88, "channel": 0}, {"type": "note_on", "time": 0, "note": 65, "velocity": 87, "channel": 0}, {"type": "note_off", "time": 89, "note": 65, "velocity": 87, "channel": 0}, {"type": "note_on", "time": 0, "note": 67, "velocity": 76, "channel": 0}, {"type": "note_off", "time": 94, "note": 67, "velocity": 76, "channel": 0}, {"type": "note_on", "time": 5, "note": 69, "velocity": 86, "channel": 0}, {"type": "note_off", "time": 89, "note": 69, "velocity": 86, "channel": 0}, {"type": "note_on", "time": 0, "note": 70, "velocity": 101, "channel": 0}, {"type": "note_off", "time": 118, "note": 70, "velocity": 101, "channel": 0}, {"type": "note_on", "time": 0, "note": 68, "velocity": 94, "channel": 0}, {"type": "note_off", "time": 91, "note": 68, "velocity": 94, "channel": 0}, {"type": "note_on", "time": 0, "note": 69, "velocity": 99, "channel": 0}, {"type": "note_off", "time": 94, "note": 69, "velocity": 99, "channel": 0}, {"type": "note_on", "time": 8, "note": 67, "velocity": 89, "channel": 0}, {"type": "note_off", "time": 62, "note": 67, "velocity": 89, "channel": 0}, {"type": "note_on", "time": 2, "note": 68, "velocity": 98, "channel": 0}, {"type": "note_off", "time": 81, "note": 68, "velocity": 98, "channel": 0}, {"type": "note_on", "time": 5, "note": 70, "velocity": 99, "channel": 0}, {"type": "note_off", "time": 86, "note": 70, "velocity": 99, "channel": 0}, {"type": "note_on", "time": 10, "note": 71, "velocity": 94, "channel": 0}, {"type": "note_off", "time": 83, "note": 71, "velocity": 94, "channel": 0}, {"type": "note_on", "time": 16, "note": 72, "velocity": 99, "channel": 0}, {"type": "note_off", "time": 83, "note": 72, "velocity": 99, "channel": 0}, {"type": "note_on", "time": 0, "note": 73, "velocity": 97, "channel": 0}, {"type": "note_off", "time": 67, "note": 73, "velocity": 97, "channel": 0}, {"type": "note_on", "time": 0, "note": 74, "velocity": 102, "channel": 0}, {"type": "note_off", "time": 105, "note": 74, "velocity": 102, "channel": 0}, {"type": "note_on", "time": 8, "note": 75, "velocity": 99, "channel": 0}, {"type": "note_off", "time": 94, "note": 75, "velocity": 99, "channel": 0}, {"type": "note_on", "time": 0, "note": 72, "velocity": 100, "channel": 0}, {"type": "note_off", "time": 81, "note": 72, "velocity": 100, "channel": 0}, {"type": "note_on", "time": 16, "note": 73, "velocity": 96, "channel": 0}, {"type": "note_off", "time": 105, "note": 73, "velocity": 96, "channel": 0}, {"type": "note_on", "time": 2, "note": 71, "velocity": 94, "channel": 0}, {"type": "note_off", "time": 86, "note": 71, "velocity": 94, "channel": 0}, {"type": "note_on", "time": 2, "note": 72, "velocity": 102, "channel": 0}, {"type": "note_off", "time": 67, "note": 72, "velocity": 102, "channel": 0}, {"type": "note_on", "time": 5, "note": 71, "velocity": 101, "channel": 0}, {"type": "note_off", "time": 75, "note": 71, "velocity": 101, "channel": 0}, {"type": "note_on", "time": 10, "note": 70, "velocity": 90, "channel": 0}, {"type": "note_off", "time": 105, "note": 70, "velocity": 90, "channel": 0}, {"type": "note_on", "time": 8, "note": 69, "velocity": 97, "channel": 0}, {"type": "note_off", "time": 94, "note": 69, "velocity": 97, "channel": 0}, {"type": "note_on", "time": 10, "note": 67, "velocity": 89, "channel": 0}, {"type": "note_off", "time": 91, "note": 67, "velocity": 89, "channel": 0}, {"type": "note_on", "time": 5, "note": 69, "velocity": 91, "channel": 0}, {"type": "note_off", "time": 78, "note": 69, "velocity": 91, "channel": 0}, {"type": "note_on", "time": 0, "note": 70, "velocity": 94, "channel": 0}, {"type": "note_off", "time": 105, "note": 70, "velocity": 94, "channel": 0}, {"type": "note_on", "time": 2, "note": 72, "velocity": 94, "channel": 0}, {"type": "note_off", "time": 86, "note": 72, "velocity": 94, "channel": 0}, {"type": "note_on", "time": 0, "note": 74, "velocity": 85, "channel": 0}, {"type": "note_off", "time": 59, "note": 74, "velocity": 85, "channel": 0}, {"type": "note_on", "time": 0, "note": 77, "velocity": 113, "channel": 0}, {"type": "note_off", "time": 110, "note": 77, "velocity": 113, "channel": 0}, {"type": "note_on", "time": 8, "note": 76, "velocity": 106, "channel": 0}, {"type": "note_off", "time": 75, "note": 76, "velocity": 106, "channel": 0}, {"type": "note_on", "time": 8, "note": 77, "velocity": 113, "channel": 0}, {"type": "note_off", "time": 100, "note": 77, "velocity": 113, "channel": 0}, {"type": "note_on", "time": 18, "note": 79, "velocity": 105, "channel": 0}, {"type": "note_off", "time": 81, "note": 79, "velocity": 105, "channel": 0}, {"type": "note_on", "time": 18, "note": 79, "velocity": 114, "channel": 0}, {"type": "note_off", "time": 56, "note": 79, "velocity": 114, "channel": 0}, {"type": "note_on", "time": 32, "note": 79, "velocity": 112, "channel": 0}, {"type": "note_off", "time": 86, "note": 79, "velocity": 112, "channel": 0}, {"type": "note_on", "time": 281, "note": 81, "velocity": 109, "channel": 0}, {"type": "note_off", "time": 159, "note": 81, "velocity": 109, "channel": 0}, {"type": "note_on", "time": 8, "note": 80, "velocity": 108, "channel": 0}, {"type": "note_off", "time": 286, "note": 80, "velocity": 108, "channel": 0}, {"type": "note_on", "time": 24, "note": 76, "velocity": 98, "channel": 0}, {"type": "note_off", "time": 105, "note": 76, "velocity": 98, "channel": 0}, {"type": "note_on", "time": 13, "note": 73, "velocity": 74, "channel": 0}, {"type": "note_off", "time": 62, "note": 73, "velocity": 74, "channel": 0}, {"type": "note_on", "time": 24, "note": 69, "velocity": 99, "channel": 0}, {"type": "note_off", "time": 78, "note": 69, "velocity": 99, "channel": 0}, {"type": "note_on", "time": 13, "note": 71, "velocity": 83, "channel": 0}, {"type": "note_off", "time": 86, "note": 71, "velocity": 83, "channel": 0}, {"type": "note_on", "time": 8, "note": 68, "velocity": 85, "channel": 0}, {"type": "note_off", "time": 72, "note": 68, "velocity": 85, "channel": 0}, {"type": "note_on", "time": 13, "note": 70, "velocity": 94, "channel": 0}, {"type": "note_off", "time": 91, "note": 70, "velocity": 94, "channel": 0}, {"type": "note_on", "time": 8, "note": 69, "velocity": 98, "channel": 0}, {"type": "note_off", "time": 67, "note": 69, "velocity": 98, "channel": 0}, {"type": "note_on", "time": 10, "note": 68, "velocity": 93, "channel": 0}, {"type": "note_off", "time": 89, "note": 68, "velocity": 93, "channel": 0}, {"type": "note_on", "time": 8, "note": 63, "velocity": 96, "channel": 0}, {"type": "note_off", "time": 94, "note": 63, "velocity": 96, "channel": 0}, {"type": "note_on", "time": 2, "note": 61, "velocity": 78, "channel": 0}, {"type": "note_off", "time": 78, "note": 61, "velocity": 78, "channel": 0}, {"type": "note_on", "time": 11, "note": 58, "velocity": 82, "channel": 0}, {"type": "note_off", "time": 106, "note": 58, "velocity": 82, "channel": 0}, {"type": "note_on", "time": 541, "note": 67, "velocity": 83, "channel": 0}, {"type": "note_off", "time": 108, "note": 67, "velocity": 83, "channel": 0}, {"type": "note_on", "time": 2, "note": 64, "velocity": 85, "channel": 0}, {"type": "note_off", "time": 83, "note": 64, "velocity": 85, "channel": 0}, {"type": "note_on", "time": 5, "note": 65, "velocity": 85, "channel": 0}, {"type": "note_off", "time": 67, "note": 65, "velocity": 85, "channel": 0}, {"type": "note_on", "time": 18, "note": 67, "velocity": 90, "channel": 0}, {"type": "note_off", "time": 94, "note": 67, "velocity": 90, "channel": 0}, {"type": "note_on", "time": 0, "note": 69, "velocity": 92, "channel": 0}, {"type": "note_off", "time": 86, "note": 69, "velocity": 92, "channel": 0}, {"type": "note_on", "time": 332, "note": 68, "velocity": 89, "channel": 0}, {"type": "note_off", "time": 102, "note": 68, "velocity": 89, "channel": 0}, {"type": "note_on", "time": 183, "note": 68, "velocity": 85, "channel": 0}, {"type": "note_off", "time": 402, "note": 68, "velocity": 85, "channel": 0}, {"type": "note_on", "time": 13, "note": 64, "velocity": 76, "channel": 0}, {"type": "note_off", "time": 318, "note": 64, "velocity": 76, "channel": 0}, {"type": "note_on", "time": 8, "note": 67, "velocity": 92, "channel": 0}, {"type": "note_off", "time": 100, "note": 67, "velocity": 92, "channel": 0}, {"type": "note_on", "time": 21, "note": 66, "velocity": 81, "channel": 0}, {"type": "note_off", "time": 110, "note": 66, "velocity": 81, "channel": 0}, {"type": "end_of_track", "time": 0}]]}