{"ticks_per_beat": 192, "tracks": [[{"type": "track_name", "name": "Melody", "time": 0}, {"type": "set_tempo", "tempo": 394736, "time": 0}, {"type": "key_signature", "key": "C", "time": 0}, {"type": "time_signature", "numerator": 4, "denominator": 4, "clocks_per_click": 24, "notated_32nd_notes_per_beat": 8, "time": 0}, {"type": "note_on", "time": 2632, "note": 71, "velocity": 88, "channel": 0}, {"type": "note_off", "time": 35, "note": 71, "velocity": 88, "channel": 0}, {"type": "note_on", "time": 19, "note": 72, "velocity": 98, "channel": 0}, {"type": "note_off", "time": 51, "note": 72, "velocity": 98, "channel": 0}, {"type": "note_on", "time": 0, "note": 76, "velocity": 106, "channel": 0}, {"type": "note_off", "time": 47, "note": 76, "velocity": 106, "channel": 0}, {"type": "note_on", "time": 3, "note": 79, "velocity": 119, "channel": 0}, {"type": "note_off", "time": 79, "note": 79, "velocity": 119, "channel": 0}, {"type": "note_on", "time": 11, "note": 84, "velocity": 106, "channel": 0}, {"type": "note_off", "time": 135, "note": 84, "velocity": 106, "channel": 0}, {"type": "note_on", "time": 75, "note": 81, "velocity": 106, "channel": 0}, {"type": "note_off", "time": 43, "note": 81, "velocity": 106, "channel": 0}, {"type": "note_on", "time": 15, "note": 82, "velocity": 119, "channel": 0}, {"type": "note_off", "time": 47, "note": 82, "velocity": 119, "channel": 0}, {"type": "note_on", "time": 11, "note": 81, "velocity": 118, "channel": 0}, {"type": "note_off", "time": 59, "note": 81, "velocity": 118, "channel": 0}, {"type": "note_on", "time": 7, "note": 80, "velocity": 102, "channel": 0}, {"type": "note_off", "time": 91, "note": 80, "velocity": 102, "channel": 0}, {"type": "note_on", "time": 7, "note": 77, "velocity": 105, "channel": 0}, {"type": "note_off", "time": 119, "note": 77, "velocity": 105, "channel": 0}, {"type": "note_on", "time": 11, "note": 75, "velocity": 119, "channel": 0}, {"type": "note_off", "time": 95, "note": 75, "velocity": 119, "channel": 0}, {"type": "note_on", "time": 0, "note": 72, "velocity": 98, "channel": 0}, {"type": "note_off", "time": 63, "note": 72, "velocity": 98, "channel": 0}, {"type": "note_on", "time": 15, "note": 70, "velocity": 86, "channel": 0}, {"type": "note_off", "time": 87, "note": 70, "velocity": 86, "channel": 0}, {"type": "note_on", "time": 15, "note": 68, "velocity": 105, "channel": 0}, {"type": "note_off", "time": 87, "note": 68, "velocity": 105, "channel": 0}, {"type": "note_on", "time": 11, "note": 67, "velocity": 89, "channel": 0}, {"type": "note_off", "time": 91, "note": 67, "velocity": 89, "channel": 0}, {"type": "note_on", "time": 0, "note": 69, "velocity": 91, "channel": 0}, {"type": "note_off", "time": 83, "note": 69, "velocity": 91, "channel": 0}, {"type": "note_on", "time": 0, "note": 72, "velocity": 84, "channel": 0}, {"type": "note_off", "time": 103, "note": 72, "velocity": 84, "channel": 0}, {"type": "note_on", "time": 0, "note": 75, "velocity": 120, "channel": 0}, {"type": "note_off", "time": 67, "note": 75, "velocity": 120, "channel": 0}, {"type": "note_on", "time": 11, "note": 76, "velocity": 105, "channel": 0}, {"type": "note_off", "time": 35, "note": 76, "velocity": 105, "channel": 0}, {"type": "note_on", "time": 7, "note": 75, "velocity": 100, "channel": 0}, {"type": "note_off", "time": 59, "note": 75, "velocity": 100, "channel": 0}, {"type": "note_on", "time": 7, "note": 74, "velocity": 109, "channel": 0}, {"type": "note_off", "time": 82, "note": 74, "velocity": 109, "channel": 0}, {"type": "note_on", "time": 0, "note": 72, "velocity": 91, "channel": 0}, {"type": "note_off", "time": 129, "note": 72, "velocity": 91, "channel": 0}, {"type": "note_on", "time": 9, "note": 67, "velocity": 86, "channel": 0}, {"type": "note_off", "time": 51, "note": 67, "velocity": 86, "channel": 0}, {"type": "note_on", "time": 19, "note": 69, "velocity": 97, "channel": 0}, {"type": "note_off", "time": 54, "note": 69, "velocity": 97, "channel": 0}, {"type": "note_on", "time": 0, "note": 70, "velocity": 101, "channel": 0}, {"type": "note_off", "time": 53, "note": 70, "velocity": 101, "channel": 0}, {"type": "note_on", "time": 8, "note": 71, "velocity": 109, "channel": 0}, {"type": "note_off", "time": 70, "note": 71, "velocity": 109, "channel": 0}, {"type": "note_on", "time": 8, "note": 68, "velocity": 98, "channel": 0}, {"type": "note_off", "time": 115, "note": 68, "velocity": 98, "channel": 0}, {"type": "note_on", "time": 0, "note": 65, "velocity": 92, "channel": 0}, {"type": "note_off", "time": 87, "note": 65, "velocity": 92, "channel": 0}, {"type": "note_on", "time": 2, "note": 67, "velocity": 100, "channel": 0}, {"type": "note_off", "time": 81, "note": 67, "velocity": 100, "channel": 0}, {"type": "note_on", "time": 5, "note": 65, "velocity": 102, "channel": 0}, {"type": "note_off", "time": 98, "note": 65, "velocity": 102, "channel": 0}, {"type": "note_on", "time": 11, "note": 62, "velocity": 98, "channel": 0}, {"type": "note_off", "time": 73, "note": 62, "velocity": 98, "channel": 0}, {"type": "note_on", "time": 11, "note": 63, "velocity": 99, "channel": 0}, {"type": "note_off", "time": 73, "note": 63, "velocity": 99, "channel": 0}, {"type": "note_on", "time": 5, "note": 60, "velocity": 100, "channel": 0}, {"type": "note_off", "time": 93, "note": 60, "velocity": 100, "channel": 0}, {"type": "note_on", "time": 28, "note": 71, "velocity": 100, "channel": 0}, {"type": "note_off", "time": 62, "note": 71, "velocity": 100, "channel": 0}, {"type": "note_on", "time": 8, "note": 72, "velocity": 94, "channel": 0}, {"type": "note_off", "time": 101, "note": 72, "velocity": 94, "channel": 0}, {"type": "note_on", "time": 2, "note": 74, "velocity": 118, "channel": 0}, {"type": "note_off", "time": 84, "note": 74, "velocity": 118, "channel": 0}, {"type": "note_on", "time": 5, "note": 76, "velocity": 112, "channel": 0}, {"type": "note_off", "time": 98, "note": 76, "velocity": 112, "channel": 0}, {"type": "note_on", "time": 0, "note": 77, "velocity": 111, "channel": 0}, {"type": "note_off", "time": 93, "note": 77, "velocity": 111, "channel": 0}, {"type": "note_on", "time": 0, "note": 79, "velocity": 111, "channel": 0}, {"type": "note_off", "time": 101, "note": 79, "velocity": 111, "channel": 0}, {"type": "note_on", "time": 101, "note": 77, "velocity": 108, "channel": 0}, {"type": "note_off", "time": 101, "note": 77, "velocity": 108, "channel": 0}, {"type": "note_on", "time": 16, "note": 75, "velocity": 120, "channel": 0}, {"type": "note_off", "time": 90, "note": 75, "velocity": 120, "channel": 0}, {"type": "note_on", "time": 0, "note": 72, "velocity": 82, "channel": 0}, {"type": "note_off", "time": 70, "note": 72, "velocity": 82, "channel": 0}, {"type": "note_on", "time": 8, "note": 70, "velocity": 99, "channel": 0}, {"type": "note_off", "time": 101, "note": 70, "velocity": 99, "channel": 0}, {"type": "note_on", "time": 8, "note": 68, "velocity": 93, "channel": 0}, {"type": "note_off", "time": 129, "note": 68, "velocity": 93, "channel": 0}, {"type": "note_on", "time": 42, "note": 67, "velocity": 100, "channel": 0}, {"type": "note_off", "time": 98, "note": 67, "velocity": 100, "channel": 0}, {"type": "note_on", "time": 5, "note": 65, "velocity": 94, "channel": 0}, {"type": "note_off", "time": 81, "note": 65, "velocity": 94, "channel": 0}, {"type": "note_on", "time": 2, "note": 64, "velocity": 76, "channel": 0}, {"type": "note_off", "time": 81, "note": 64, "velocity": 76, "channel": 0}, {"type": "note_on", "time": 8, "note": 67, "velocity": 104, "channel": 0}, {"type": "note_off", "time": 81, "note": 67, "velocity": 104, "channel": 0}, {"type": "note_on", "time": 19, "note": 69, "velocity": 91, "channel": 0}, {"type": "note_off", "time": 110, "note": 69, "velocity": 91, "channel": 0}, {"type": "note_on", "time": 0, "note": 72, "velocity": 101, "channel": 0}, {"type": "note_off", "time": 166, "note": 72, "velocity": 101, "channel": 0}, {"type": "note_on", "time": 770, "note": 72, "velocity": 107, "channel": 0}, {"type": "note_off", "time": 67, "note": 72, "velocity": 107, "channel": 0}, {"type": "note_on", "time": 5, "note": 77, "velocity": 106, "channel": 0}, {"type": "note_off", "time": 84, "note": 77, "velocity": 106, "channel": 0}, {"type": "note_on", "time": 16, "note": 81, "velocity": 110, "channel": 0}, {"type": "note_off", "time": 81, "note": 81, "velocity": 110, "channel": 0}, {"type": "note_on", "time": 14, "note": 82, "velocity": 116, "channel": 0}, {"type": "note_off", "time": 121, "note": 82, "velocity": 116, "channel": 0}, {"type": "note_on", "time": 5, "note": 81, "velocity": 112, "channel": 0}, {"type": "note_off", "time": 81, "note": 81, "velocity": 112, "channel": 0}, {"type": "note_on", "time": 0, "note": 77, "velocity": 101, "channel": 0}, {"type": "note_off", "time": 84, "note": 77, "velocity": 101, "channel": 0}, {"type": "note_on", "time": 8, "note": 72, "velocity": 88, "channel": 0}, {"type": "note_off", "time": 81, "note": 72, "velocity": 88, "channel": 0}, {"type": "note_on", "time": 0, "note": 77, "velocity": 106, "channel": 0}, {"type": "note_off", "time": 127, "note": 77, "velocity": 106, "channel": 0}, {"type": "note_on", "time": 194, "note": 77, "velocity": 107, "channel": 0}, {"type": "note_off", "time": 87, "note": 77, "velocity": 107, "channel": 0}, {"type": "note_on", "time": 36, "note": 79, "velocity": 105, "channel": 0}, {"type": "note_off", "time": 36, "note": 79, "velocity": 105, "channel": 0}, {"type": "note_on", "time": 8, "note": 80, "velocity": 108, "channel": 0}, {"type": "note_off", "time": 50, "note": 80, "velocity": 108, "channel": 0}, {"type": "note_on", "time": 11, "note": 79, "velocity": 111, "channel": 0}, {"type": "note_off", "time": 64, "note": 79, "velocity": 111, "channel": 0}, {"type": "note_on", "time": 5, "note": 77, "velocity": 108, "channel": 0}, {"type": "note_off", "time": 84, "note": 77, "velocity": 108, "channel": 0}, {"type": "note_on", "time": 5, "note": 73, "velocity": 117, "channel": 0}, {"type": "note_off", "time": 98, "note": 73, "velocity": 117, "channel": 0}, {"type": "note_on", "time": 8, "note": 70, "velocity": 91, "channel": 0}, {"type": "note_off", "time": 127, "note": 70, "velocity": 91, "channel": 0}, {"type": "note_on", "time": 42, "note": 72, "velocity": 96, "channel": 0}, {"type": "note_off", "time": 81, "note": 72, "velocity": 96, "channel": 0}, {"type": "note_on", "time": 14, "note": 70, "velocity": 92, "channel": 0}, {"type": "note_off", "time": 87, "note": 70, "velocity": 92, "channel": 0}, {"type": "note_on", "time": 2, "note": 69, "velocity": 83, "channel": 0}, {"type": "note_off", "time": 101, "note": 69, "velocity": 83, "channel": 0}, {"type": "note_on", "time": 93, "note": 74, "velocity": 101, "channel": 0}, {"type": "note_off", "time": 73, "note": 74, "velocity": 101, "channel": 0}, {"type": "note_on", "time": 16, "note": 76, "velocity": 114, "channel": 0}, {"type": "note_off", "time": 96, "note": 76, "velocity": 114, "channel": 0}, {"type": "note_on", "time": 11, "note": 77, "velocity": 109, "channel": 0}, {"type": "note_off", "time": 104, "note": 77, "velocity": 109, "channel": 0}, {"type": "note_on", "time": 0, "note": 72, "velocity": 92, "channel": 0}, {"type": "note_off", "time": 81, "note": 72, "velocity": 92, "channel": 0}, {"type": "note_on", "time": 8, "note": 69, "velocity": 97, "channel": 0}, {"type": "note_off", "time": 81, "note": 69, "velocity": 97, "channel": 0}, {"type": "note_on", "time": 115, "note": 73, "velocity": 103, "channel": 0}, {"type": "note_off", "time": 87, "note": 73, "velocity": 103, "channel": 0}, {"type": "note_on", "time": 14, "note": 74, "velocity": 113, "channel": 0}, {"type": "note_off", "time": 101, "note": 74, "velocity": 113, "channel": 0}, {"type": "note_on", "time": 0, "note": 70, "velocity": 82, "channel": 0}, {"type": "note_off", "time": 84, "note": 70, "velocity": 82, "channel": 0}, {"type": "note_on", "time": 2, "note": 69, "velocity": 113, "channel": 0}, {"type": "note_off", "time": 84, "note": 69, "velocity": 113, "channel": 0}, {"type": "note_on", "time": 0, "note": 68, "velocity": 100, "channel": 0}, {"type": "note_off", "time": 67, "note": 68, "velocity": 100, "channel": 0}, {"type": "note_on", "time": 0, "note": 75, "velocity": 115, "channel": 0}, {"type": "note_off", "time": 62, "note": 75, "velocity": 115, "channel": 0}, {"type": "note_on", "time": 2, "note": 73, "velocity": 104, "channel": 0}, {"type": "note_off", "time": 42, "note": 73, "velocity": 104, "channel": 0}, {"type": "note_on", "time": 8, "note": 72, "velocity": 98, "channel": 0}, {"type": "note_off", "time": 98, "note": 72, "velocity": 98, "channel": 0}, {"type": "note_on", "time": 2, "note": 70, "velocity": 97, "channel": 0}, {"type": "note_off", "time": 79, "note": 70, "velocity": 97, "channel": 0}, {"type": "note_on", "time": 2, "note": 71, "velocity": 95, "channel": 0}, {"type": "note_off", "time": 169, "note": 71, "velocity": 95, "channel": 0}, {"type": "note_on", "time": 240, "note": 60, "velocity": 98, "channel": 0}, {"type": "note_off", "time": 90, "note": 60, "velocity": 98, "channel": 0}, {"type": "note_on", "time": 5, "note": 62, "velocity": 96, "channel": 0}, {"type": "note_off", "time": 84, "note": 62, "velocity": 96, "channel": 0}, {"type": "note_on", "time": 19, "note": 64, "velocity": 96, "channel": 0}, {"type": "note_off", "time": 87, "note": 64, "velocity": 96, "channel": 0}, {"type": "note_on", "time": 14, "note": 65, "velocity": 107, "channel": 0}, {"type": "note_off", "time": 76, "note": 65, "velocity": 107, "channel": 0}, {"type": "note_on", "time": 11, "note": 67, "velocity": 92, "channel": 0}, {"type": "note_off", "time": 96, "note": 67, "velocity": 92, "channel": 0}, {"type": "note_on", "time": 5, "note": 70, "velocity": 97, "channel": 0}, {"type": "note_off", "time": 93, "note": 70, "velocity": 97, "channel": 0}, {"type": "note_on", "time": 0, "note": 68, "velocity": 107, "channel": 0}, {"type": "note_off", "time": 96, "note": 68, "velocity": 107, "channel": 0}, {"type": "note_on", "time": 16, "note": 67, "velocity": 95, "channel": 0}, {"type": "note_off", "time": 104, "note": 67, "velocity": 95, "channel": 0}, {"type": "note_on", "time": 0, "note": 65, "velocity": 89, "channel": 0}, {"type": "note_off", "time": 81, "note": 65, "velocity": 89, "channel": 0}, {"type": "note_on", "time": 0, "note": 67, "velocity": 97, "channel": 0}, {"type": "note_off", "time": 73, "note": 67, "velocity": 97, "channel": 0}, {"type": "note_on", "time": 19, "note": 68, "velocity": 107, "channel": 0}, {"type": "note_off", "time": 84, "note": 68, "velocity": 107, "channel": 0}, {"type": "note_on", "time": 5, "note": 70, "velocity": 112, "channel": 0}, {"type": "note_off", "time": 90, "note": 70, "velocity": 112, "channel": 0}, {"type": "note_on", "time": 11, "note": 66, "velocity": 93, "channel": 0}, {"type": "note_off", "time": 101, "note": 66, "velocity": 93, "channel": 0}, {"type": "note_on", "time": 11, "note": 67, "velocity": 102, "channel": 0}, {"type": "note_off", "time": 87, "note": 67, "velocity": 102, "channel": 0}, {"type": "note_on", "time": 98, "note": 60, "velocity": 92, "channel": 0}, {"type": "note_off", "time": 70, "note": 60, "velocity": 92, "channel": 0}, {"type": "note_on", "time": 28, "note": 65, "velocity": 92, "channel": 0}, {"type": "note_off", "time": 118, "note": 65, "velocity": 92, "channel": 0}, {"type": "note_on", "time": 0, "note": 64, "velocity": 92, "channel": 0}, {"type": "note_off", "time": 138, "note": 64, "velocity": 92, "channel": 0}, {"type": "note_on", "time": 403, "note": 67, "velocity": 96, "channel": 0}, {"type": "note_off", "time": 62, "note": 67, "velocity": 96, "channel": 0}, {"type": "note_on", "time": 11, "note": 72, "velocity": 108, "channel": 0}, {"type": "note_off", "time": 81, "note": 72, "velocity": 108, "channel": 0}, {"type": "note_on", "time": 5, "note": 75, "velocity": 105, "channel": 0}, {"type": "note_off", "time": 73, "note": 75, "velocity": 105, "channel": 0}, {"type": "note_on", "time": 14, "note": 77, "velocity": 101, "channel": 0}, {"type": "note_off", "time": 70, "note": 77, "velocity": 101, "channel": 0}, {"type": "note_on", "time": 19, "note": 79, "velocity": 117, "channel": 0}, {"type": "note_off", "time": 112, "note": 79, "velocity": 117, "channel": 0}, {"type": "note_on", "time": 8, "note": 84, "velocity": 112, "channel": 0}, {"type": "note_off", "time": 135, "note": 84, "velocity": 112, "channel": 0}, {"type": "note_on", "time": 31, "note": 84, "velocity": 112, "channel": 0}, {"type": "note_off", "time": 110, "note": 84, "velocity": 112, "channel": 0}, {"type": "note_on", "time": 16, "note": 79, "velocity": 113, "channel": 0}, {"type": "note_off", "time": 98, "note": 79, "velocity": 113, "channel": 0}, {"type": "note_on", "time": 8, "note": 77, "velocity": 105, "channel": 0}, {"type": "note_off", "time": 96, "note": 77, "velocity": 105, "channel": 0}, {"type": "note_on", "time": 2, "note": 76, "velocity": 104, "channel": 0}, {"type": "note_off", "time": 87, "note": 76, "velocity": 104, "channel": 0}, {"type": "note_on", "time": 5, "note": 72, "velocity": 106, "channel": 0}, {"type": "note_off", "time": 96, "note": 72, "velocity": 106, "channel": 0}, {"type": "note_on", "time": 110, "note": 81, "velocity": 106, "channel": 0}, {"type": "note_off", "time": 39, "note": 81, "velocity": 106, "channel": 0}, {"type": "note_on", "time": 16, "note": 82, "velocity": 114, "channel": 0}, {"type": "note_off", "time": 104, "note": 82, "velocity": 114, "channel": 0}, {"type": "note_on", "time": 8, "note": 80, "velocity": 100, "channel": 0}, {"type": "note_off", "time": 98, "note": 80, "velocity": 100, "channel": 0}, {"type": "note_on", "time": 5, "note": 77, "velocity": 109, "channel": 0}, {"type": "note_off", "time": 104, "note": 77, "velocity": 109, "channel": 0}, {"type": "note_on", "time": 0, "note": 75, "velocity": 105, "channel": 0}, {"type": "note_off", "time": 96, "note": 75, "velocity": 105, "channel": 0}, {"type": "note_on", "time": 8, "note": 72, "velocity": 104, "channel": 0}, {"type": "note_off", "time": 79, "note": 72, "velocity": 104, "channel": 0}, {"type": "note_on", "time": 0, "note": 70, "velocity": 96, "channel": 0}, {"type": "note_off", "time": 98, "note": 70, "velocity": 96, "channel": 0}, {"type": "note_on", "time": 5, "note": 66, "velocity": 102, "channel": 0}, {"type": "note_off", "time": 104, "note": 66, "velocity": 102, "channel": 0}, {"type": "note_on", "time": 112, "note": 69, "velocity": 88, "channel": 0}, {"type": "note_off", "time": 67, "note": 69, "velocity": 88, "channel": 0}, {"type": "note_on", "time": 16, "note": 72, "velocity": 103, "channel": 0}, {"type": "note_off", "time": 67, "note": 72, "velocity": 103, "channel": 0}, {"type": "note_on", "time": 31, "note": 75, "velocity": 126, "channel": 0}, {"type": "note_off", "time": 45, "note": 75, "velocity": 126, "channel": 0}, {"type": "note_on", "time": 8, "note": 76, "velocity": 99, "channel": 0}, {"type": "note_off", "time": 64, "note": 76, "velocity": 99, "channel": 0}, {"type": "note_on", "time": 5, "note": 79, "velocity": 92, "channel": 0}, {"type": "note_off", "time": 31, "note": 79, "velocity": 92, "channel": 0}, {"type": "note_on", "time": 16, "note": 81, "velocity": 113, "channel": 0}, {"type": "note_off", "time": 76, "note": 81, "velocity": 113, "channel": 0}, {"type": "note_on", "time": 5, "note": 84, "velocity": 101, "channel": 0}, {"type": "note_off", "time": 155, "note": 84, "velocity": 101, "channel": 0}, {"type": "note_on", "time": 262, "note": 86, "velocity": 106, "channel": 0}, {"type": "note_off", "time": 59, "note": 86, "velocity": 106, "channel": 0}, {"type": "note_on", "time": 2, "note": 83, "velocity": 112, "channel": 0}, {"type": "note_off", "time": 48, "note": 83, "velocity": 112, "channel": 0}, {"type": "note_on", "time": 11, "note": 86, "velocity": 110, "channel": 0}, {"type": "note_off", "time": 53, "note": 86, "velocity": 110, "channel": 0}, {"type": "note_on", "time": 0, "note": 83, "velocity": 107, "channel": 0}, {"type": "note_off", "time": 84, "note": 83, "velocity": 107, "channel": 0}, {"type": "note_on", "time": 2, "note": 82, "velocity": 125, "channel": 0}, {"type": "note_off", "time": 87, "note": 82, "velocity": 125, "channel": 0}, {"type": "note_on", "time": 14, "note": 81, "velocity": 105, "channel": 0}, {"type": "note_off", "time": 81, "note": 81, "velocity": 105, "channel": 0}, {"type": "note_on", "time": 11, "note": 77, "velocity": 93, "channel": 0}, {"type": "note_off", "time": 96, "note": 77, "velocity": 93, "channel": 0}, {"type": "note_on", "time": 8, "note": 78, "velocity": 95, "channel": 0}, {"type": "note_off", "time": 79, "note": 78, "velocity": 95, "channel": 0}, {"type": "note_on", "time": 5, "note": 79, "velocity": 113, "channel": 0}, {"type": "note_off", "time": 132, "note": 79, "velocity": 113, "channel": 0}, {"type": "note_on", "time": 48, "note": 79, "velocity": 120, "channel": 0}, {"type": "note_off", "time": 98, "note": 79, "velocity": 120, "channel": 0}, {"type": "note_on", "time": 5, "note": 78, "velocity": 94, "channel": 0}, {"type": "note_off", "time": 36, "note": 78, "velocity": 94, "channel": 0}, {"type": "note_on", "time": 8, "note": 77, "velocity": 102, "channel": 0}, {"type": "note_off", "time": 53, "note": 77, "velocity": 102, "channel": 0}, {"type": "note_on", "time": 0, "note": 75, "velocity": 118, "channel": 0}, {"type": "note_off", "time": 79, "note": 75, "velocity": 118, "channel": 0}, {"type": "note_on", "time": 5, "note": 72, "velocity": 91, "channel": 0}, {"type": "note_off", "time": 90, "note": 72, "velocity": 91, "channel": 0}, {"type": "note_on", "time": 25, "note": 74, "velocity": 99, "channel": 0}, {"type": "note_off", "time": 39, "note": 74, "velocity": 99, "channel": 0}, {"type": "note_on", "time": 8, "note": 75, "velocity": 116, "channel": 0}, {"type": "note_off", "time": 93, "note": 75, "velocity": 116, "channel": 0}, {"type": "note_on", "time": 16, "note": 73, "velocity": 114, "channel": 0}, {"type": "note_off", "time": 110, "note": 73, "velocity": 114, "channel": 0}, {"type": "note_on", "time": 5, "note": 72, "velocity": 94, "channel": 0}, {"type": "note_off", "time": 98, "note": 72, "velocity": 94, "channel": 0}, {"type": "note_on", "time": 5, "note": 70, "velocity": 95, "channel": 0}, {"type": "note_off", "time": 64, "note": 70, "velocity": 95, "channel": 0}, {"type": "note_on", "time": 11, "note": 68, "velocity": 100, "channel": 0}, {"type": "note_off", "time": 96, "note": 68, "velocity": 100, "channel": 0}, {"type": "note_on", "time": 0, "note": 66, "velocity": 104, "channel": 0}, {"type": "note_off", "time": 96, "note": 66, "velocity": 104, "channel": 0}, {"type": "note_on", "time": 16, "note": 67, "velocity": 99, "channel": 0}, {"type": "note_off", "time": 76, "note": 67, "velocity": 99, "channel": 0}, {"type": "note_on", "time": 22, "note": 65, "velocity": 98, "channel": 0}, {"type": "note_off", "time": 53, "note": 65, "velocity": 98, "channel": 0}, {"type": "note_on", "time": 8, "note": 64, "velocity": 100, "channel": 0}, {"type": "note_off", "time": 98, "note": 64, "velocity": 100, "channel": 0}, {"type": "note_on", "time": 11, "note": 67, "velocity": 83, "channel": 0}, {"type": "note_off", "time": 62, "note": 67, "velocity": 83, "channel": 0}, {"type": "note_on", "time": 5, "note": 69, "velocity": 91, "channel": 0}, {"type": "note_off", "time": 115, "note": 69, "velocity": 91, "channel": 0}, {"type": "note_on", "time": 5, "note": 70, "velocity": 96, "channel": 0}, {"type": "note_off", "time": 67, "note": 70, "velocity": 96, "channel": 0}, {"type": "note_on", "time": 14, "note": 72, "velocity": 82, "channel": 0}, {"type": "note_off", "time": 104, "note": 72, "velocity": 82, "channel": 0}, {"type": "note_on", "time": 5, "note": 73, "velocity": 122, "channel": 0}, {"type": "note_off", "time": 101, "note": 73, "velocity": 122, "channel": 0}, {"type": "note_on", "time": 2, "note": 74, "velocity": 110, "channel": 0}, {"type": "note_off", "time": 107, "note": 74, "velocity": 110, "channel": 0}, {"type": "note_on", "time": 2, "note": 70, "velocity": 90, "channel": 0}, {"type": "note_off", "time": 132, "note": 70, "velocity": 90, "channel": 0}, {"type": "note_on", "time": 118, "note": 72, "velocity": 98, "channel": 0}, {"type": "note_off", "time": 112, "note": 72, "velocity": 98, "channel": 0}, {"type": "note_on", "time": 2, "note": 71, "velocity": 104, "channel": 0}, {"type": "note_off", "time": 87, "note": 71, "velocity": 104, "channel": 0}, {"type": "note_on", "time": 5, "note": 70, "velocity": 101, "channel": 0}, {"type": "note_off", "time": 81, "note": 70, "velocity": 101, "channel": 0}, {"type": "note_on", "time": 2, "note": 72, "velocity": 104, "channel": 0}, {"type": "note_off", "time": 81, "note": 72, "velocity": 104, "channel": 0}, {"type": "note_on", "time": 5, "note": 73, "velocity": 104, "channel": 0}, {"type": "note_off", "time": 96, "note": 73, "velocity": 104, "channel": 0}, {"type": "note_on", "time": 14, "note": 72, "velocity": 97, "channel": 0}, {"type": "note_off", "time": 62, "note": 72, "velocity": 97, "channel": 0}, {"type": "note_on", "time": 14, "note": 77, "velocity": 108, "channel": 0}, {"type": "note_off", "time": 138, "note": 77, "velocity": 108, "channel": 0}, {"type": "note_on", "time": 50, "note": 77, "velocity": 100, "channel": 0}, {"type": "note_off", "time": 101, "note": 77, "velocity": 100, "channel": 0}, {"type": "note_on", "time": 14, "note": 79, "velocity": 106, "channel": 0}, {"type": "note_off", "time": 81, "note": 79, "velocity": 106, "channel": 0}, {"type": "note_on", "time": 2, "note": 81, "velocity": 112, "channel": 0}, {"type": "note_off", "time": 112, "note": 81, "velocity": 112, "channel": 0}, {"type": "note_on", "time": 2, "note": 79, "velocity": 108, "channel": 0}, {"type": "note_off", "time": 76, "note": 79, "velocity": 108, "channel": 0}, {"type": "note_on", "time": 0, "note": 77, "velocity": 101, "channel": 0}, {"type": "note_off", "time": 96, "note": 77, "velocity": 101, "channel": 0}, {"type": "note_on", "time": 14, "note": 75, "velocity": 104, "channel": 0}, {"type": "note_off", "time": 101, "note": 75, "velocity": 104, "channel": 0}, {"type": "note_on", "time": 8, "note": 73, "velocity": 114, "channel": 0}, {"type": "note_off", "time": 107, "note": 73, "velocity": 114, "channel": 0}, {"type": "note_on", "time": 8, "note": 74, "velocity": 105, "channel": 0}, {"type": "note_off", "time": 64, "note": 74, "velocity": 105, "channel": 0}, {"type": "note_on", "time": 8, "note": 70, "velocity": 86, "channel": 0}, {"type": "note_off", "time": 93, "note": 70, "velocity": 86, "channel": 0}, {"type": "note_on", "time": 8, "note": 69, "velocity": 90, "channel": 0}, {"type": "note_off", "time": 64, "note": 69, "velocity": 90, "channel": 0}, {"type": "note_on", "time": 11, "note": 68, "velocity": 97, "channel": 0}, {"type": "note_on", "time": 115, "note": 75, "velocity": 112, "channel": 0}, {"type": "note_off", "time": 0, "note": 68, "velocity": 97, "channel": 0}, {"type": "note_off", "time": 76, "note": 75, "velocity": 112, "channel": 0}, {"type": "note_on", "time": 8, "note": 73, "velocity": 96, "channel": 0}, {"type": "note_off", "time": 107, "note": 73, "velocity": 96, "channel": 0}, {"type": "note_on", "time": 11, "note": 71, "velocity": 76, "channel": 0}, {"type": "note_off", "time": 76, "note": 71, "velocity": 76, "channel": 0}, {"type": "note_on", "time": 19, "note": 72, "velocity": 90, "channel": 0}, {"type": "note_off", "time": 146, "note": 72, "velocity": 90, "channel": 0}, {"type": "note_on", "time": 42, "note": 65, "velocity": 89, "channel": 0}, {"type": "note_off", "time": 96, "note": 65, "velocity": 89, "channel": 0}, {"type": "note_on", "time": 0, "note": 69, "velocity": 98, "channel": 0}, {"type": "note_off", "time": 110, "note": 69, "velocity": 98, "channel": 0}, {"type": "note_on", "time": 5, "note": 67, "velocity": 86, "channel": 0}, {"type": "note_off", "time": 104, "note": 67, "velocity": 86, "channel": 0}, {"type": "note_on", "time": 352, "note": 65, "velocity": 109, "channel": 0}, {"type": "note_off", "time": 62, "note": 65, "velocity": 109, "channel": 0}, {"type": "note_on", "time": 2, "note": 67, "velocity": 97, "channel": 0}, {"type": "note_off", "time": 45, "note": 67, "velocity": 97, "channel": 0}, {"type": "note_on", "time": 5, "note": 68, "velocity": 99, "channel": 0}, {"type": "note_off", "time": 53, "note": 68, "velocity": 99, "channel": 0}, {"type": "note_on", "time": 16, "note": 70, "velocity": 107, "channel": 0}, {"type": "note_off", "time": 70, "note": 70, "velocity": 107, "channel": 0}, {"type": "note_on", "time": 14, "note": 71, "velocity": 116, "channel": 0}, {"type": "note_off", "time": 73, "note": 71, "velocity": 116, "channel": 0}, {"type": "note_on", "time": 0, "note": 72, "velocity": 99, "channel": 0}, {"type": "note_off", "time": 56, "note": 72, "velocity": 99, "channel": 0}, {"type": "note_on", "time": 0, "note": 71, "velocity": 114, "channel": 0}, {"type": "note_off", "time": 56, "note": 71, "velocity": 114, "channel": 0}, {"type": "note_on", "time": 14, "note": 70, "velocity": 112, "channel": 0}, {"type": "note_off", "time": 67, "note": 70, "velocity": 112, "channel": 0}, {"type": "note_on", "time": 19, "note": 68, "velocity": 97, "channel": 0}, {"type": "note_off", "time": 107, "note": 68, "velocity": 97, "channel": 0}, {"type": "note_on", "time": 14, "note": 67, "velocity": 89, "channel": 0}, {"type": "note_off", "time": 124, "note": 67, "velocity": 89, "channel": 0}, {"type": "note_on", "time": 50, "note": 72, "velocity": 100, "channel": 0}, {"type": "note_off", "time": 104, "note": 72, "velocity": 100, "channel": 0}, {"type": "note_on", "time": 8, "note": 71, "velocity": 100, "channel": 0}, {"type": "note_off", "time": 67, "note": 71, "velocity": 100, "channel": 0}, {"type": "note_on", "time": 22, "note": 72, "velocity": 107, "channel": 0}, {"type": "note_off", "time": 90, "note": 72, "velocity": 107, "channel": 0}, {"type": "note_on", "time": 22, "note": 67, "velocity": 98, "channel": 0}, {"type": "note_off", "time": 90, "note": 67, "velocity": 98, "channel": 0}, {"type": "note_on", "time": 11, "note": 64, "velocity": 89, "channel": 0}, {"type": "note_off", "time": 73, "note": 64, "velocity": 89, "channel": 0}, {"type": "note_on", "time": 5, "note": 60, "velocity": 89, "channel": 0}, {"type": "note_off", "time": 70, "note": 60, "velocity": 89, "channel": 0}, {"type": "note_on", "time": 33, "note": 65, "velocity": 99, "channel": 0}, {"type": "note_off", "time": 135, "note": 65, "velocity": 99, "channel": 0}, {"type": "note_on", "time": 16, "note": 64, "velocity": 95, "channel": 0}, {"type": "note_off", "time": 104, "note": 64, "velocity": 95, "channel": 0}, {"type": "note_on", "time": 16, "note": 62, "velocity": 93, "channel": 0}, {"type": "note_off", "time": 53, "note": 62, "velocity": 93, "channel": 0}, {"type": "note_on", "time": 5, "note": 63, "velocity": 90, "channel": 0}, {"type": "note_off", "time": 84, "note": 63, "velocity": 90, "channel": 0}, {"type": "note_on", "time": 62, "note": 60, "velocity": 107, "channel": 0}, {"type": "note_off", "time": 87, "note": 60, "velocity": 107, "channel": 0}, {"type": "note_on", "time": 5, "note": 59, "velocity": 88, "channel": 0}, {"type": "note_off", "time": 84, "note": 59, "velocity": 88, "channel": 0}, {"type": "note_on", "time": 2, "note": 62, "velocity": 99, "channel": 0}, {"type": "note_off", "time": 81, "note": 62, "velocity": 99, "channel": 0}, {"type": "note_on", "time": 25, "note": 55, "velocity": 99, "channel": 0}, {"type": "note_off", "time": 160, "note": 55, "velocity": 99, "channel": 0}, {"type": "note_on", "time": 550, "note": 71, "velocity": 99, "channel": 0}, {"type": "note_off", "time": 50, "note": 71, "velocity": 99, "channel": 0}, {"type": "note_on", "time": 8, "note": 72, "velocity": 108, "channel": 0}, {"type": "note_off", "time": 59, "note": 72, "velocity": 108, "channel": 0}, {"type": "note_on", "time": 14, "note": 72, "velocity": 117, "channel": 0}, {"type": "note_off", "time": 56, "note": 72, "velocity": 117, "channel": 0}, {"type": "note_on", "time": 2, "note": 72, "velocity": 110, "channel": 0}, {"type": "note_off", "time": 62, "note": 72, "velocity": 110, "channel": 0}, {"type": "note_on", "time": 16, "note": 72, "velocity": 105, "channel": 0}, {"type": "note_off", "time": 59, "note": 72, "velocity": 105, "channel": 0}, {"type": "note_on", "time": 19, "note": 72, "velocity": 111, "channel": 0}, {"type": "note_off", "time": 53, "note": 72, "velocity": 111, "channel": 0}, {"type": "note_on", "time": 8, "note": 72, "velocity": 103, "channel": 0}, {"type": "note_off", "time": 50, "note": 72, "velocity": 103, "channel": 0}, {"type": "note_on", "time": 16, "note": 72, "velocity": 110, "channel": 0}, {"type": "note_off", "time": 39, "note": 72, "velocity": 110, "channel": 0}, {"type": "note_on", "time": 11, "note": 72, "velocity": 108, "channel": 0}, {"type": "note_off", "time": 118, "note": 72, "velocity": 108, "channel": 0}, {"type": "note_on", "time": 31, "note": 72, "velocity": 104, "channel": 0}, {"type": "note_off", "time": 160, "note": 72, "velocity": 104, "channel": 0}, {"type": "note_on", "time": 19, "note": 67, "velocity": 118, "channel": 0}, {"type": "note_off", "time": 64, "note": 67, "velocity": 118, "channel": 0}, {"type": "note_on", "time": 0, "note": 72, "velocity": 111, "channel": 0}, {"type": "note_off", "time": 53, "note": 72, "velocity": 111, "channel": 0}, {"type": "note_on", "time": 0, "note": 76, "velocity": 112, "channel": 0}, {"type": "note_off", "time": 53, "note": 76, "velocity": 112, "channel": 0}, {"type": "note_on", "time": 0, "note": 81, "velocity": 113, "channel": 0}, {"type": "note_off", "time": 90, "note": 81, "velocity": 113, "channel": 0}, {"type": "note_on", "time": 2, "note": 79, "velocity": 115, "channel": 0}, {"type": "note_off", "time": 107, "note": 79, "velocity": 115, "channel": 0}, {"type": "note_on", "time": 2, "note": 76, "velocity": 108, "channel": 0}, {"type": "note_off", "time": 90, "note": 76, "velocity": 108, "channel": 0}, {"type": "note_on", "time": 5, "note": 72, "velocity": 98, "channel": 0}, {"type": "note_off", "time": 169, "note": 72, "velocity": 98, "channel": 0}, {"type": "note_on", "time": 33, "note": 76, "velocity": 118, "channel": 0}, {"type": "note_off", "time": 42, "note": 76, "velocity": 118, "channel": 0}, {"type": "note_on", "time": 14, "note": 77, "velocity": 114, "channel": 0}, {"type": "note_off", "time": 101, "note": 77, "velocity": 114, "channel": 0}, {"type": "note_on", "time": 8, "note": 76, "velocity": 114, "channel": 0}, {"type": "note_off", "time": 45, "note": 76, "velocity": 114, "channel": 0}, {"type": "note_on", "time": 14, "note": 77, "velocity": 109, "channel": 0}, {"type": "note_off", "time": 64, "note": 77, "velocity": 109, "channel": 0}, {"type": "note_on", "time": 11, "note": 76, "velocity": 113, "channel": 0}, {"type": "note_off", "time": 42, "note": 76, "velocity": 113, "channel": 0}, {"type": "note_on", "time": 8, "note": 77, "velocity": 109, "channel": 0}, {"type": "note_off", "time": 70, "note": 77, "velocity": 109, "channel": 0}, {"type": "note_on", "time": 5, "note": 75, "velocity": 95, "channel": 0}, {"type": "note_off", "time": 28, "note": 75, "velocity": 95, "channel": 0}, {"type": "note_on", "time": 16, "note": 72, "velocity": 90, "channel": 0}, {"type": "note_off", "time": 36, "note": 72, "velocity": 90, "channel": 0}, {"type": "note_on", "time": 8, "note": 70, "velocity": 100, "channel": 0}, {"type": "note_off", "time": 50, "note": 70, "velocity": 100, "channel": 0}, {"type": "note_on", "time": 8, "note": 68, "velocity": 101, "channel": 0}, {"type": "note_off", "time": 118, "note": 68, "velocity": 101, "channel": 0}, {"type": "note_on", "time": 11, "note": 67, "velocity": 92, "channel": 0}, {"type": "note_off", "time": 223, "note": 67, "velocity": 92, "channel": 0}, {"type": "note_on", "time": 135, "note": 72, "velocity": 108, "channel": 0}, {"type": "note_off", "time": 70, "note": 72, "velocity": 108, "channel": 0}, {"type": "note_on", "time": 14, "note": 76, "velocity": 104, "channel": 0}, {"type": "note_off", "time": 84, "note": 76, "velocity": 104, "channel": 0}, {"type": "note_on", "time": 11, "note": 79, "velocity": 122, "channel": 0}, {"type": "note_off", "time": 93, "note": 79, "velocity": 122, "channel": 0}, {"type": "note_on", "time": 5, "note": 83, "velocity": 112, "channel": 0}, {"type": "note_off", "time": 62, "note": 83, "velocity": 112, "channel": 0}, {"type": "note_on", "time": 11, "note": 84, "velocity": 9, "channel": 0}, {"type": "note_off", "time": 121, "note": 84, "velocity": 9, "channel": 0}, {"type": "note_on", "time": 101, "note": 81, "velocity": 115, "channel": 0}, {"type": "note_off", "time": 84, "note": 81, "velocity": 115, "channel": 0}, {"type": "note_on", "time": 5, "note": 77, "velocity": 115, "channel": 0}, {"type": "note_off", "time": 79, "note": 77, "velocity": 115, "channel": 0}, {"type": "note_on", "time": 8, "note": 76, "velocity": 107, "channel": 0}, {"type": "note_off", "time": 87, "note": 76, "velocity": 107, "channel": 0}, {"type": "note_on", "time": 14, "note": 75, "velocity": 122, "channel": 0}, {"type": "note_off", "time": 76, "note": 75, "velocity": 122, "channel": 0}, {"type": "note_on", "time": 0, "note": 82, "velocity": 111, "channel": 0}, {"type": "note_off", "time": 48, "note": 82, "velocity": 111, "channel": 0}, {"type": "note_on", "time": 11, "note": 80, "velocity": 109, "channel": 0}, {"type": "note_off", "time": 42, "note": 80, "velocity": 109, "channel": 0}, {"type": "note_on", "time": 0, "note": 79, "velocity": 113, "channel": 0}, {"type": "note_off", "time": 67, "note": 79, "velocity": 113, "channel": 0}, {"type": "note_on", "time": 22, "note": 77, "velocity": 92, "channel": 0}, {"type": "note_off", "time": 81, "note": 77, "velocity": 92, "channel": 0}, {"type": "note_on", "time": 11, "note": 76, "velocity": 109, "channel": 0}, {"type": "note_off", "time": 107, "note": 76, "velocity": 109, "channel": 0}, {"type": "note_on", "time": 0, "note": 79, "velocity": 107, "channel": 0}, {"type": "note_off", "time": 81, "note": 79, "velocity": 107, "channel": 0}, {"type": "note_on", "time": 11, "note": 84, "velocity": 105, "channel": 0}, {"type": "note_off", "time": 96, "note": 84, "velocity": 105, "channel": 0}, {"type": "note_on", "time": 5, "note": 83, "velocity": 91, "channel": 0}, {"type": "note_off", "time": 62, "note": 83, "velocity": 91, "channel": 0}, {"type": "note_on", "time": 0, "note": 84, "velocity": 120, "channel": 0}, {"type": "note_off", "time": 115, "note": 84, "velocity": 120, "channel": 0}, {"type": "note_on", "time": 14, "note": 79, "velocity": 115, "channel": 0}, {"type": "note_off", "time": 79, "note": 79, "velocity": 115, "channel": 0}, {"type": "note_on", "time": 2, "note": 76, "velocity": 102, "channel": 0}, {"type": "note_off", "time": 107, "note": 76, "velocity": 102, "channel": 0}, {"type": "note_on", "time": 5, "note": 74, "velocity": 94, "channel": 0}, {"type": "note_off", "time": 84, "note": 74, "velocity": 94, "channel": 0}, {"type": "note_on", "time": 45, "note": 82, "velocity": 116, "channel": 0}, {"type": "note_off", "time": 87, "note": 82, "velocity": 116, "channel": 0}, {"type": "note_on", "time": 11, "note": 80, "velocity": 95, "channel": 0}, {"type": "note_off", "time": 25, "note": 80, "velocity": 95, "channel": 0}, {"type": "note_on", "time": 22, "note": 82, "velocity": 112, "channel": 0}, {"type": "note_off", "time": 104, "note": 82, "velocity": 112, "channel": 0}, {"type": "note_on", "time": 2, "note": 80, "velocity": 109, "channel": 0}, {"type": "note_off", "time": 81, "note": 80, "velocity": 109, "channel": 0}, {"type": "note_on", "time": 8, "note": 77, "velocity": 97, "channel": 0}, {"type": "note_off", "time": 79, "note": 77, "velocity": 97, "channel": 0}, {"type": "note_on", "time": 33, "note": 72, "velocity": 94, "channel": 0}, {"type": "note_off", "time": 64, "note": 72, "velocity": 94, "channel": 0}, {"type": "note_on", "time": 14, "note": 70, "velocity": 91, "channel": 0}, {"type": "note_off", "time": 96, "note": 70, "velocity": 91, "channel": 0}, {"type": "note_on", "time": 0, "note": 69, "velocity": 97, "channel": 0}, {"type": "note_off", "time": 84, "note": 69, "velocity": 97, "channel": 0}, {"type": "note_on", "time": 0, "note": 68, "velocity": 102, "channel": 0}, {"type": "note_off", "time": 101, "note": 68, "velocity": 102, "channel": 0}, {"type": "note_on", "time": 14, "note": 69, "velocity": 100, "channel": 0}, {"type": "note_off", "time": 73, "note": 69, "velocity": 100, "channel": 0}, {"type": "note_on", "time": 14, "note": 72, "velocity": 100, "channel": 0}, {"type": "note_off", "time": 138, "note": 72, "velocity": 100, "channel": 0}, {"type": "note_on", "time": 437, "note": 85, "velocity": 109, "channel": 0}, {"type": "note_off", "time": 48, "note": 85, "velocity": 109, "channel": 0}, {"type": "note_on", "time": 8, "note": 86, "velocity": 116, "channel": 0}, {"type": "note_off", "time": 41, "note": 86, "velocity": 116, "channel": 0}, {"type": "note_on", "time": 5, "note": 87, "velocity": 123, "channel": 0}, {"type": "note_off", "time": 55, "note": 87, "velocity": 123, "channel": 0}, {"type": "note_on", "time": 11, "note": 84, "velocity": 108, "channel": 0}, {"type": "note_off", "time": 99, "note": 84, "velocity": 108, "channel": 0}, {"type": "note_on", "time": 1, "note": 82, "velocity": 109, "channel": 0}, {"type": "note_off", "time": 180, "note": 82, "velocity": 109, "channel": 0}, {"type": "note_on", "time": 1, "note": 80, "velocity": 106, "channel": 0}, {"type": "note_off", "time": 81, "note": 80, "velocity": 106, "channel": 0}, {"type": "note_on", "time": 9, "note": 78, "velocity": 101, "channel": 0}, {"type": "note_off", "time": 101, "note": 78, "velocity": 101, "channel": 0}, {"type": "note_on", "time": 1, "note": 76, "velocity": 107, "channel": 0}, {"type": "note_off", "time": 73, "note": 76, "velocity": 107, "channel": 0}, {"type": "note_on", "time": 9, "note": 77, "velocity": 110, "channel": 0}, {"type": "note_off", "time": 121, "note": 77, "velocity": 110, "channel": 0}, {"type": "note_on", "time": 0, "note": 72, "velocity": 91, "channel": 0}, {"type": "note_off", "time": 69, "note": 72, "velocity": 91, "channel": 0}, {"type": "note_on", "time": 3, "note": 77, "velocity": 99, "channel": 0}, {"type": "note_off", "time": 91, "note": 77, "velocity": 99, "channel": 0}, {"type": "note_on", "time": 11, "note": 79, "velocity": 118, "channel": 0}, {"type": "note_off", "time": 97, "note": 79, "velocity": 118, "channel": 0}, {"type": "note_on", "time": 3, "note": 81, "velocity": 116, "channel": 0}, {"type": "note_off", "time": 95, "note": 81, "velocity": 116, "channel": 0}, {"type": "note_on", "time": 0, "note": 82, "velocity": 109, "channel": 0}, {"type": "note_off", "time": 93, "note": 82, "velocity": 109, "channel": 0}, {"type": "note_on", "time": 1, "note": 84, "velocity": 110, "channel": 0}, {"type": "note_off", "time": 101, "note": 84, "velocity": 110, "channel": 0}, {"type": "note_on", "time": 0, "note": 82, "velocity": 115, "channel": 0}, {"type": "note_off", "time": 99, "note": 82, "velocity": 115, "channel": 0}, {"type": "note_on", "time": 17, "note": 80, "velocity": 92, "channel": 0}, {"type": "note_off", "time": 164, "note": 80, "velocity": 92, "channel": 0}, {"type": "note_on", "time": 95, "note": 77, "velocity": 116, "channel": 0}, {"type": "note_off", "time": 109, "note": 77, "velocity": 116, "channel": 0}, {"type": "note_on", "time": 13, "note": 78, "velocity": 105, "channel": 0}, {"type": "note_off", "time": 156, "note": 78, "velocity": 105, "channel": 0}, {"type": "note_on", "time": 87, "note": 73, "velocity": 112, "channel": 0}, {"type": "note_off", "time": 77, "note": 73, "velocity": 112, "channel": 0}, {"type": "note_on", "time": 29, "note": 72, "velocity": 97, "channel": 0}, {"type": "note_off", "time": 141, "note": 72, "velocity": 97, "channel": 0}, {"type": "note_on", "time": 3, "note": 76, "velocity": 114, "channel": 0}, {"type": "note_off", "time": 57, "note": 76, "velocity": 114, "channel": 0}, {"type": "note_on", "time": 11, "note": 77, "velocity": 112, "channel": 0}, {"type": "note_off", "time": 125, "note": 77, "velocity": 112, "channel": 0}, {"type": "note_on", "time": 45, "note": 80, "velocity": 92, "channel": 0}, {"type": "note_off", "time": 47, "note": 80, "velocity": 92, "channel": 0}, {"type": "note_on", "time": 3, "note": 81, "velocity": 101, "channel": 0}, {"type": "note_off", "time": 136, "note": 81, "velocity": 101, "channel": 0}, {"type": "note_on", "time": 7, "note": 79, "velocity": 105, "channel": 0}, {"type": "note_off", "time": 125, "note": 79, "velocity": 105, "channel": 0}, {"type": "note_on", "time": 13, "note": 77, "velocity": 102, "channel": 0}, {"type": "note_off", "time": 198, "note": 77, "velocity": 102, "channel": 0}, {"type": "note_on", "time": 75, "note": 74, "velocity": 105, "channel": 0}, {"type": "note_off", "time": 41, "note": 74, "velocity": 105, "channel": 0}, {"type": "note_on", "time": 17, "note": 75, "velocity": 116, "channel": 0}, {"type": "note_off", "time": 47, "note": 75, "velocity": 116, "channel": 0}, {"type": "note_on", "time": 5, "note": 74, "velocity": 120, "channel": 0}, {"type": "note_off", "time": 77, "note": 74, "velocity": 120, "channel": 0}, {"type": "note_on", "time": 11, "note": 73, "velocity": 106, "channel": 0}, {"type": "note_off", "time": 206, "note": 73, "velocity": 106, "channel": 0}, {"type": "note_on", "time": 85, "note": 68, "velocity": 114, "channel": 0}, {"type": "note_off", "time": 87, "note": 68, "velocity": 114, "channel": 0}, {"type": "note_on", "time": 9, "note": 67, "velocity": 104, "channel": 0}, {"type": "note_off", "time": 67, "note": 67, "velocity": 104, "channel": 0}, {"type": "note_on", "time": 19, "note": 72, "velocity": 95, "channel": 0}, {"type": "note_off", "time": 69, "note": 72, "velocity": 95, "channel": 0}, {"type": "note_on", "time": 3, "note": 76, "velocity": 106, "channel": 0}, {"type": "note_off", "time": 85, "note": 76, "velocity": 106, "channel": 0}, {"type": "note_on", "time": 17, "note": 81, "velocity": 116, "channel": 0}, {"type": "note_off", "time": 93, "note": 81, "velocity": 116, "channel": 0}, {"type": "note_on", "time": 3, "note": 79, "velocity": 108, "channel": 0}, {"type": "note_off", "time": 93, "note": 79, "velocity": 108, "channel": 0}, {"type": "note_on", "time": 1, "note": 76, "velocity": 102, "channel": 0}, {"type": "note_off", "time": 87, "note": 76, "velocity": 102, "channel": 0}, {"type": "note_on", "time": 7, "note": 72, "velocity": 96, "channel": 0}, {"type": "note_off", "time": 196, "note": 72, "velocity": 96, "channel": 0}, {"type": "note_on", "time": 17, "note": 77, "velocity": 107, "channel": 0}, {"type": "note_off", "time": 152, "note": 77, "velocity": 107, "channel": 0}, {"type": "note_on", "time": 3, "note": 76, "velocity": 110, "channel": 0}, {"type": "note_off", "time": 138, "note": 76, "velocity": 110, "channel": 0}, {"type": "note_on", "time": 19, "note": 74, "velocity": 102, "channel": 0}, {"type": "note_off", "time": 39, "note": 74, "velocity": 102, "channel": 0}, {"type": "note_on", "time": 11, "note": 75, "velocity": 119, "channel": 0}, {"type": "note_off", "time": 35, "note": 75, "velocity": 119, "channel": 0}, {"type": "note_on", "time": 7, "note": 76, "velocity": 103, "channel": 0}, {"type": "note_off", "time": 19, "note": 76, "velocity": 103, "channel": 0}, {"type": "note_on", "time": 3, "note": 75, "velocity": 97, "channel": 0}, {"type": "note_off", "time": 23, "note": 75, "velocity": 97, "channel": 0}, {"type": "note_on", "time": 1, "note": 72, "velocity": 96, "channel": 0}, {"type": "note_off", "time": 51, "note": 72, "velocity": 96, "channel": 0}, {"type": "note_on", "time": 5, "note": 68, "velocity": 106, "channel": 0}, {"type": "note_off", "time": 71, "note": 68, "velocity": 106, "channel": 0}, {"type": "note_on", "time": 13, "note": 67, "velocity": 105, "channel": 0}, {"type": "note_off", "time": 71, "note": 67, "velocity": 105, "channel": 0}, {"type": "note_on", "time": 9, "note": 65, "velocity": 92, "channel": 0}, {"type": "note_off", "time": 67, "note": 65, "velocity": 92, "channel": 0}, {"type": "note_on", "time": 17, "note": 64, "velocity": 88, "channel": 0}, {"type": "note_off", "time": 89, "note": 64, "velocity": 88, "channel": 0}, {"type": "note_on", "time": 15, "note": 67, "velocity": 100, "channel": 0}, {"type": "note_off", "time": 61, "note": 67, "velocity": 100, "channel": 0}, {"type": "note_on", "time": 5, "note": 69, "velocity": 99, "channel": 0}, {"type": "note_off", "time": 111, "note": 69, "velocity": 99, "channel": 0}, {"type": "note_on", "time": 37, "note": 72, "velocity": 109, "channel": 0}, {"type": "note_off", "time": 150, "note": 72, "velocity": 109, "channel": 0}, {"type": "note_on", "time": 591, "note": 67, "velocity": 117, "channel": 0}, {"type": "note_off", "time": 55, "note": 67, "velocity": 117, "channel": 0}, {"type": "note_on", "time": 11, "note": 72, "velocity": 112, "channel": 0}, {"type": "note_off", "time": 87, "note": 72, "velocity": 112, "channel": 0}, {"type": "note_on", "time": 0, "note": 76, "velocity": 115, "channel": 0}, {"type": "note_off", "time": 95, "note": 76, "velocity": 115, "channel": 0}, {"type": "note_on", "time": 11, "note": 77, "velocity": 100, "channel": 0}, {"type": "note_off", "time": 75, "note": 77, "velocity": 100, "channel": 0}, {"type": "note_on", "time": 21, "note": 76, "velocity": 106, "channel": 0}, {"type": "note_off", "time": 51, "note": 76, "velocity": 106, "channel": 0}, {"type": "note_on", "time": 49, "note": 79, "velocity": 116, "channel": 0}, {"type": "note_off", "time": 146, "note": 79, "velocity": 116, "channel": 0}, {"type": "note_on", "time": 11, "note": 76, "velocity": 109, "channel": 0}, {"type": "note_off", "time": 87, "note": 76, "velocity": 109, "channel": 0}, {"type": "note_on", "time": 27, "note": 74, "velocity": 121, "channel": 0}, {"type": "note_off", "time": 93, "note": 74, "velocity": 121, "channel": 0}, {"type": "note_on", "time": 7, "note": 72, "velocity": 101, "channel": 0}, {"type": "note_off", "time": 121, "note": 72, "velocity": 101, "channel": 0}, {"type": "note_on", "time": 49, "note": 81, "velocity": 127, "channel": 0}, {"type": "note_off", "time": 89, "note": 81, "velocity": 127, "channel": 0}, {"type": "note_on", "time": 21, "note": 80, "velocity": 96, "channel": 0}, {"type": "note_off", "time": 73, "note": 80, "velocity": 96, "channel": 0}, {"type": "note_on", "time": 11, "note": 79, "velocity": 108, "channel": 0}, {"type": "note_off", "time": 91, "note": 79, "velocity": 108, "channel": 0}, {"type": "note_on", "time": 19, "note": 78, "velocity": 109, "channel": 0}, {"type": "note_off", "time": 79, "note": 78, "velocity": 109, "channel": 0}, {"type": "note_on", "time": 5, "note": 76, "velocity": 113, "channel": 0}, {"type": "note_off", "time": 85, "note": 76, "velocity": 113, "channel": 0}, {"type": "note_on", "time": 17, "note": 75, "velocity": 113, "channel": 0}, {"type": "note_off", "time": 75, "note": 75, "velocity": 113, "channel": 0}, {"type": "note_on", "time": 15, "note": 73, "velocity": 116, "channel": 0}, {"type": "note_off", "time": 89, "note": 73, "velocity": 116, "channel": 0}, {"type": "note_on", "time": 11, "note": 71, "velocity": 109, "channel": 0}, {"type": "note_off", "time": 81, "note": 71, "velocity": 109, "channel": 0}, {"type": "note_on", "time": 15, "note": 70, "velocity": 89, "channel": 0}, {"type": "note_off", "time": 85, "note": 70, "velocity": 89, "channel": 0}, {"type": "note_on", "time": 15, "note": 68, "velocity": 102, "channel": 0}, {"type": "note_off", "time": 71, "note": 68, "velocity": 102, "channel": 0}, {"type": "note_on", "time": 25, "note": 67, "velocity": 91, "channel": 0}, {"type": "note_off", "time": 81, "note": 67, "velocity": 91, "channel": 0}, {"type": "note_on", "time": 25, "note": 69, "velocity": 99, "channel": 0}, {"type": "note_off", "time": 61, "note": 69, "velocity": 99, "channel": 0}, {"type": "note_on", "time": 29, "note": 72, "velocity": 95, "channel": 0}, {"type": "note_off", "time": 73, "note": 72, "velocity": 95, "channel": 0}, {"type": "note_on", "time": 13, "note": 75, "velocity": 117, "channel": 0}, {"type": "note_off", "time": 69, "note": 75, "velocity": 117, "channel": 0}, {"type": "note_on", "time": 19, "note": 76, "velocity": 110, "channel": 0}, {"type": "note_off", "time": 71, "note": 76, "velocity": 110, "channel": 0}, {"type": "note_on", "time": 21, "note": 79, "velocity": 110, "channel": 0}, {"type": "note_off", "time": 77, "note": 79, "velocity": 110, "channel": 0}, {"type": "note_on", "time": 21, "note": 81, "velocity": 108, "channel": 0}, {"type": "note_off", "time": 91, "note": 81, "velocity": 108, "channel": 0}, {"type": "note_on", "time": 25, "note": 84, "velocity": 95, "channel": 0}, {"type": "note_off", "time": 59, "note": 84, "velocity": 95, "channel": 0}, {"type": "note_on", "time": 21, "note": 86, "velocity": 125, "channel": 0}, {"type": "note_off", "time": 55, "note": 86, "velocity": 125, "channel": 0}, {"type": "note_on", "time": 13, "note": 87, "velocity": 112, "channel": 0}, {"type": "note_off", "time": 37, "note": 87, "velocity": 112, "channel": 0}, {"type": "note_on", "time": 5, "note": 86, "velocity": 120, "channel": 0}, {"type": "note_off", "time": 55, "note": 86, "velocity": 120, "channel": 0}, {"type": "note_on", "time": 21, "note": 84, "velocity": 110, "channel": 0}, {"type": "note_off", "time": 71, "note": 84, "velocity": 110, "channel": 0}, {"type": "note_on", "time": 21, "note": 82, "velocity": 119, "channel": 0}, {"type": "note_off", "time": 79, "note": 82, "velocity": 119, "channel": 0}, {"type": "note_on", "time": 23, "note": 80, "velocity": 105, "channel": 0}, {"type": "note_off", "time": 77, "note": 80, "velocity": 105, "channel": 0}, {"type": "note_on", "time": 17, "note": 78, "velocity": 93, "channel": 0}, {"type": "note_off", "time": 63, "note": 78, "velocity": 93, "channel": 0}, {"type": "note_on", "time": 17, "note": 79, "velocity": 108, "channel": 0}, {"type": "note_off", "time": 93, "note": 79, "velocity": 108, "channel": 0}, {"type": "note_on", "time": 19, "note": 77, "velocity": 100, "channel": 0}, {"type": "note_off", "time": 67, "note": 77, "velocity": 100, "channel": 0}, {"type": "note_on", "time": 31, "note": 76, "velocity": 114, "channel": 0}, {"type": "note_off", "time": 89, "note": 76, "velocity": 114, "channel": 0}, {"type": "note_on", "time": 11, "note": 79, "velocity": 109, "channel": 0}, {"type": "note_off", "time": 69, "note": 79, "velocity": 109, "channel": 0}, {"type": "note_on", "time": 27, "note": 83, "velocity": 104, "channel": 0}, {"type": "note_off", "time": 73, "note": 83, "velocity": 104, "channel": 0}, {"type": "note_on", "time": 17, "note": 84, "velocity": 109, "channel": 0}, {"type": "note_off", "time": 71, "note": 84, "velocity": 109, "channel": 0}, {"type": "note_on", "time": 15, "note": 83, "velocity": 98, "channel": 0}, {"type": "note_off", "time": 63, "note": 83, "velocity": 98, "channel": 0}, {"type": "note_on", "time": 31, "note": 81, "velocity": 116, "channel": 0}, {"type": "note_off", "time": 77, "note": 81, "velocity": 116, "channel": 0}, {"type": "note_on", "time": 19, "note": 81, "velocity": 125, "channel": 0}, {"type": "note_off", "time": 53, "note": 81, "velocity": 125, "channel": 0}, {"type": "note_on", "time": 19, "note": 82, "velocity": 115, "channel": 0}, {"type": "note_off", "time": 61, "note": 82, "velocity": 115, "channel": 0}, {"type": "note_on", "time": 5, "note": 81, "velocity": 115, "channel": 0}, {"type": "note_off", "time": 53, "note": 81, "velocity": 115, "channel": 0}, {"type": "note_on", "time": 9, "note": 80, "velocity": 101, "channel": 0}, {"type": "note_off", "time": 67, "note": 80, "velocity": 101, "channel": 0}, {"type": "note_on", "time": 11, "note": 77, "velocity": 104, "channel": 0}, {"type": "note_off", "time": 65, "note": 77, "velocity": 104, "channel": 0}, {"type": "note_on", "time": 33, "note": 75, "velocity": 117, "channel": 0}, {"type": "note_off", "time": 85, "note": 75, "velocity": 117, "channel": 0}, {"type": "note_on", "time": 17, "note": 72, "velocity": 101, "channel": 0}, {"type": "note_off", "time": 73, "note": 72, "velocity": 101, "channel": 0}, {"type": "note_on", "time": 25, "note": 70, "velocity": 90, "channel": 0}, {"type": "note_off", "time": 75, "note": 70, "velocity": 90, "channel": 0}, {"type": "note_on", "time": 17, "note": 68, "velocity": 110, "channel": 0}, {"type": "note_off", "time": 61, "note": 68, "velocity": 110, "channel": 0}, {"type": "note_on", "time": 37, "note": 67, "velocity": 104, "channel": 0}, {"type": "note_off", "time": 87, "note": 67, "velocity": 104, "channel": 0}, {"type": "note_on", "time": 27, "note": 65, "velocity": 88, "channel": 0}, {"type": "note_off", "time": 57, "note": 65, "velocity": 88, "channel": 0}, {"type": "note_on", "time": 7, "note": 64, "velocity": 97, "channel": 0}, {"type": "note_off", "time": 79, "note": 64, "velocity": 97, "channel": 0}, {"type": "note_on", "time": 11, "note": 65, "velocity": 99, "channel": 0}, {"type": "note_off", "time": 61, "note": 65, "velocity": 99, "channel": 0}, {"type": "note_on", "time": 25, "note": 67, "velocity": 97, "channel": 0}, {"type": "note_off", "time": 69, "note": 67, "velocity": 97, "channel": 0}, {"type": "note_on", "time": 25, "note": 69, "velocity": 105, "channel": 0}, {"type": "note_off", "time": 71, "note": 69, "velocity": 105, "channel": 0}, {"type": "note_on", "time": 3, "note": 70, "velocity": 95, "channel": 0}, {"type": "note_off", "time": 85, "note": 70, "velocity": 95, "channel": 0}, {"type": "note_on", "time": 15, "note": 72, "velocity": 97, "channel": 0}, {"type": "note_off", "time": 79, "note": 72, "velocity": 97, "channel": 0}, {"type": "note_on", "time": 17, "note": 74, "velocity": 114, "channel": 0}, {"type": "note_off", "time": 29, "note": 74, "velocity": 114, "channel": 0}, {"type": "note_on", "time": 17, "note": 75, "velocity": 122, "channel": 0}, {"type": "note_off", "time": 55, "note": 75, "velocity": 122, "channel": 0}, {"type": "note_on", "time": 7, "note": 74, "velocity": 116, "channel": 0}, {"type": "note_off", "time": 65, "note": 74, "velocity": 116, "channel": 0}, {"type": "note_on", "time": 9, "note": 73, "velocity": 113, "channel": 0}, {"type": "note_off", "time": 81, "note": 73, "velocity": 113, "channel": 0}, {"type": "note_on", "time": 29, "note": 70, "velocity": 92, "channel": 0}, {"type": "note_off", "time": 77, "note": 70, "velocity": 92, "channel": 0}, {"type": "note_on", "time": 15, "note": 72, "velocity": 97, "channel": 0}, {"type": "note_off", "time": 89, "note": 72, "velocity": 97, "channel": 0}, {"type": "note_on", "time": 1, "note": 73, "velocity": 109, "channel": 0}, {"type": "note_off", "time": 73, "note": 73, "velocity": 109, "channel": 0}, {"type": "note_on", "time": 3, "note": 75, "velocity": 111, "channel": 0}, {"type": "note_off", "time": 83, "note": 75, "velocity": 111, "channel": 0}, {"type": "note_on", "time": 15, "note": 76, "velocity": 111, "channel": 0}, {"type": "note_off", "time": 69, "note": 76, "velocity": 111, "channel": 0}, {"type": "note_on", "time": 33, "note": 85, "velocity": 97, "channel": 0}, {"type": "note_off", "time": 73, "note": 85, "velocity": 97, "channel": 0}, {"type": "note_on", "time": 23, "note": 83, "velocity": 99, "channel": 0}, {"type": "note_off", "time": 69, "note": 83, "velocity": 99, "channel": 0}, {"type": "note_on", "time": 23, "note": 84, "velocity": 109, "channel": 0}, {"type": "note_off", "time": 101, "note": 84, "velocity": 109, "channel": 0}, {"type": "note_on", "time": 9, "note": 81, "velocity": 107, "channel": 0}, {"type": "note_off", "time": 75, "note": 81, "velocity": 107, "channel": 0}, {"type": "note_on", "time": 17, "note": 77, "velocity": 112, "channel": 0}, {"type": "note_off", "time": 87, "note": 77, "velocity": 112, "channel": 0}, {"type": "note_on", "time": 29, "note": 72, "velocity": 81, "channel": 0}, {"type": "note_off", "time": 59, "note": 72, "velocity": 81, "channel": 0}, {"type": "note_on", "time": 11, "note": 82, "velocity": 122, "channel": 0}, {"type": "note_off", "time": 93, "note": 82, "velocity": 122, "channel": 0}, {"type": "note_on", "time": 25, "note": 81, "velocity": 118, "channel": 0}, {"type": "note_off", "time": 65, "note": 81, "velocity": 118, "channel": 0}, {"type": "note_on", "time": 15, "note": 77, "velocity": 112, "channel": 0}, {"type": "note_off", "time": 85, "note": 77, "velocity": 112, "channel": 0}, {"type": "note_on", "time": 131, "note": 77, "velocity": 101, "channel": 0}, {"type": "note_off", "time": 133, "note": 77, "velocity": 101, "channel": 0}, {"type": "note_on", "time": 41, "note": 74, "velocity": 109, "channel": 0}, {"type": "note_off", "time": 111, "note": 74, "velocity": 109, "channel": 0}, {"type": "note_on", "time": 23, "note": 75, "velocity": 114, "channel": 0}, {"type": "note_off", "time": 131, "note": 75, "velocity": 114, "channel": 0}, {"type": "note_on", "time": 27, "note": 73, "velocity": 114, "channel": 0}, {"type": "note_off", "time": 117, "note": 73, "velocity": 114, "channel": 0}, {"type": "note_on", "time": 3, "note": 70, "velocity": 79, "channel": 0}, {"type": "note_off", "time": 79, "note": 70, "velocity": 79, "channel": 0}, {"type": "note_on", "time": 27, "note": 72, "velocity": 96, "channel": 0}, {"type": "note_off", "time": 123, "note": 72, "velocity": 96, "channel": 0}, {"type": "note_on", "time": 57, "note": 69, "velocity": 90, "channel": 0}, {"type": "note_off", "time": 69, "note": 69, "velocity": 90, "channel": 0}, {"type": "note_on", "time": 1, "note": 70, "velocity": 91, "channel": 0}, {"type": "note_off", "time": 27, "note": 70, "velocity": 91, "channel": 0}, {"type": "note_on", "time": 11, "note": 72, "velocity": 96, "channel": 0}, {"type": "note_off", "time": 27, "note": 72, "velocity": 96, "channel": 0}, {"type": "note_on", "time": 17, "note": 74, "velocity": 115, "channel": 0}, {"type": "note_off", "time": 79, "note": 74, "velocity": 115, "channel": 0}, {"type": "note_on", "time": 31, "note": 76, "velocity": 124, "channel": 0}, {"type": "note_off", "time": 59, "note": 76, "velocity": 124, "channel": 0}, {"type": "note_on", "time": 5, "note": 77, "velocity": 110, "channel": 0}, {"type": "note_off", "time": 39, "note": 77, "velocity": 110, "channel": 0}, {"type": "note_on", "time": 11, "note": 76, "velocity": 123, "channel": 0}, {"type": "note_off", "time": 65, "note": 76, "velocity": 123, "channel": 0}, {"type": "note_on", "time": 5, "note": 75, "velocity": 110, "channel": 0}, {"type": "note_off", "time": 83, "note": 75, "velocity": 110, "channel": 0}, {"type": "note_on", "time": 17, "note": 72, "velocity": 105, "channel": 0}, {"type": "note_off", "time": 73, "note": 72, "velocity": 105, "channel": 0}, {"type": "note_on", "time": 31, "note": 68, "velocity": 107, "channel": 0}, {"type": "note_off", "time": 87, "note": 68, "velocity": 107, "channel": 0}, {"type": "note_on", "time": 1, "note": 72, "velocity": 95, "channel": 0}, {"type": "note_off", "time": 49, "note": 72, "velocity": 95, "channel": 0}, {"type": "note_on", "time": 17, "note": 75, "velocity": 119, "channel": 0}, {"type": "note_off", "time": 51, "note": 75, "velocity": 119, "channel": 0}, {"type": "note_on", "time": 15, "note": 79, "velocity": 107, "channel": 0}, {"type": "note_off", "time": 35, "note": 79, "velocity": 107, "channel": 0}, {"type": "note_on", "time": 19, "note": 82, "velocity": 119, "channel": 0}, {"type": "note_off", "time": 75, "note": 82, "velocity": 119, "channel": 0}, {"type": "note_on", "time": 19, "note": 80, "velocity": 114, "channel": 0}, {"type": "note_off", "time": 81, "note": 80, "velocity": 114, "channel": 0}, {"type": "note_on", "time": 11, "note": 77, "velocity": 90, "channel": 0}, {"type": "note_off", "time": 57, "note": 77, "velocity": 90, "channel": 0}, {"type": "note_on", "time": 25, "note": 79, "velocity": 116, "channel": 0}, {"type": "note_off", "time": 99, "note": 79, "velocity": 116, "channel": 0}, {"type": "note_on", "time": 21, "note": 77, "velocity": 108, "channel": 0}, {"type": "note_off", "time": 81, "note": 77, "velocity": 108, "channel": 0}, {"type": "note_on", "time": 5, "note": 76, "velocity": 108, "channel": 0}, {"type": "note_off", "time": 39, "note": 76, "velocity": 108, "channel": 0}, {"type": "note_on", "time": 7, "note": 79, "velocity": 106, "channel": 0}, {"type": "note_off", "time": 39, "note": 79, "velocity": 106, "channel": 0}, {"type": "note_on", "time": 15, "note": 81, "velocity": 105, "channel": 0}, {"type": "note_off", "time": 49, "note": 81, "velocity": 105, "channel": 0}, {"type": "note_on", "time": 25, "note": 84, "velocity": 102, "channel": 0}, {"type": "note_off", "time": 131, "note": 84, "velocity": 102, "channel": 0}, {"type": "note_on", "time": 5, "note": 82, "velocity": 112, "channel": 0}, {"type": "note_off", "time": 136, "note": 82, "velocity": 112, "channel": 0}, {"type": "note_on", "time": 23, "note": 79, "velocity": 102, "channel": 0}, {"type": "note_off", "time": 25, "note": 79, "velocity": 102, "channel": 0}, {"type": "note_on", "time": 17, "note": 81, "velocity": 97, "channel": 0}, {"type": "note_off", "time": 33, "note": 81, "velocity": 97, "channel": 0}, {"type": "note_on", "time": 25, "note": 79, "velocity": 119, "channel": 0}, {"type": "note_off", "time": 89, "note": 79, "velocity": 119, "channel": 0}, {"type": "note_on", "time": 25, "note": 77, "velocity": 102, "channel": 0}, {"type": "note_off", "time": 71, "note": 77, "velocity": 102, "channel": 0}, {"type": "note_on", "time": 21, "note": 76, "velocity": 83, "channel": 0}, {"type": "note_off", "time": 39, "note": 76, "velocity": 83, "channel": 0}, {"type": "note_on", "time": 9, "note": 75, "velocity": 114, "channel": 0}, {"type": "note_off", "time": 61, "note": 75, "velocity": 114, "channel": 0}, {"type": "note_on", "time": 7, "note": 74, "velocity": 104, "channel": 0}, {"type": "note_off", "time": 55, "note": 74, "velocity": 104, "channel": 0}, {"type": "note_on", "time": 21, "note": 72, "velocity": 94, "channel": 0}, {"type": "note_off", "time": 71, "note": 72, "velocity": 94, "channel": 0}, {"type": "note_on", "time": 9, "note": 70, "velocity": 100, "channel": 0}, {"type": "note_off", "time": 57, "note": 70, "velocity": 100, "channel": 0}, {"type": "note_on", "time": 17, "note": 68, "velocity": 98, "channel": 0}, {"type": "note_off", "time": 61, "note": 68, "velocity": 98, "channel": 0}, {"type": "note_on", "time": 61, "note": 68, "velocity": 97, "channel": 0}, {"type": "note_off", "time": 70, "note": 68, "velocity": 97, "channel": 0}, {"type": "note_on", "time": 5, "note": 67, "velocity": 98, "channel": 0}, {"type": "note_off", "time": 81, "note": 67, "velocity": 98, "channel": 0}, {"type": "note_on", "time": 39, "note": 65, "velocity": 96, "channel": 0}, {"type": "note_off", "time": 76, "note": 65, "velocity": 96, "channel": 0}, {"type": "note_on", "time": 25, "note": 64, "velocity": 88, "channel": 0}, {"type": "note_off", "time": 87, "note": 64, "velocity": 88, "channel": 0}, {"type": "note_on", "time": 8, "note": 67, "velocity": 89, "channel": 0}, {"type": "note_off", "time": 62, "note": 67, "velocity": 89, "channel": 0}, {"type": "note_on", "time": 31, "note": 69, "velocity": 87, "channel": 0}, {"type": "note_off", "time": 76, "note": 69, "velocity": 87, "channel": 0}, {"type": "note_on", "time": 22, "note": 72, "velocity": 96, "channel": 0}, {"type": "note_off", "time": 152, "note": 72, "velocity": 96, "channel": 0}, {"type": "note_on", "time": 420, "note": 67, "velocity": 108, "channel": 0}, {"type": "note_off", "time": 48, "note": 67, "velocity": 108, "channel": 0}, {"type": "note_on", "time": 14, "note": 72, "velocity": 103, "channel": 0}, {"type": "note_off", "time": 76, "note": 72, "velocity": 103, "channel": 0}, {"type": "note_on", "time": 19, "note": 76, "velocity": 125, "channel": 0}, {"type": "note_off", "time": 76, "note": 76, "velocity": 125, "channel": 0}, {"type": "note_on", "time": 25, "note": 77, "velocity": 112, "channel": 0}, {"type": "note_off", "time": 81, "note": 77, "velocity": 112, "channel": 0}, {"type": "note_on", "time": 2, "note": 76, "velocity": 100, "channel": 0}, {"type": "note_off", "time": 76, "note": 76, "velocity": 100, "channel": 0}, {"type": "note_on", "time": 5, "note": 77, "velocity": 106, "channel": 0}, {"type": "note_off", "time": 93, "note": 77, "velocity": 106, "channel": 0}, {"type": "note_on", "time": 22, "note": 76, "velocity": 111, "channel": 0}, {"type": "note_off", "time": 84, "note": 76, "velocity": 111, "channel": 0}, {"type": "note_on", "time": 8, "note": 77, "velocity": 114, "channel": 0}, {"type": "note_off", "time": 104, "note": 77, "velocity": 114, "channel": 0}, {"type": "note_on", "time": 5, "note": 76, "velocity": 105, "channel": 0}, {"type": "note_off", "time": 79, "note": 76, "velocity": 105, "channel": 0}, {"type": "note_on", "time": 8, "note": 72, "velocity": 101, "channel": 0}, {"type": "note_off", "time": 112, "note": 72, "velocity": 101, "channel": 0}, {"type": "note_on", "time": 59, "note": 72, "velocity": 97, "channel": 0}, {"type": "note_off", "time": 175, "note": 72, "velocity": 97, "channel": 0}, {"type": "note_on", "time": 25, "note": 76, "velocity": 118, "channel": 0}, {"type": "note_off", "time": 101, "note": 76, "velocity": 118, "channel": 0}, {"type": "note_on", "time": 22, "note": 77, "velocity": 112, "channel": 0}, {"type": "note_off", "time": 101, "note": 77, "velocity": 112, "channel": 0}, {"type": "note_on", "time": 96, "note": 77, "velocity": 117, "channel": 0}, {"type": "note_off", "time": 67, "note": 77, "velocity": 117, "channel": 0}, {"type": "note_on", "time": 8, "note": 75, "velocity": 116, "channel": 0}, {"type": "note_off", "time": 98, "note": 75, "velocity": 116, "channel": 0}, {"type": "note_on", "time": 19, "note": 72, "velocity": 91, "channel": 0}, {"type": "note_off", "time": 70, "note": 72, "velocity": 91, "channel": 0}, {"type": "note_on", "time": 0, "note": 70, "velocity": 94, "channel": 0}, {"type": "note_off", "time": 98, "note": 70, "velocity": 94, "channel": 0}, {"type": "note_on", "time": 19, "note": 68, "velocity": 111, "channel": 0}, {"type": "note_off", "time": 64, "note": 68, "velocity": 111, "channel": 0}, {"type": "note_on", "time": 220, "note": 67, "velocity": 95, "channel": 0}, {"type": "note_off", "time": 158, "note": 67, "velocity": 95, "channel": 0}, {"type": "note_on", "time": 208, "note": 72, "velocity": 110, "channel": 0}, {"type": "note_off", "time": 206, "note": 72, "velocity": 110, "channel": 0}, {"type": "note_on", "time": 677, "note": 71, "velocity": 98, "channel": 0}, {"type": "note_off", "time": 36, "note": 71, "velocity": 98, "channel": 0}, {"type": "note_on", "time": 11, "note": 72, "velocity": 103, "channel": 0}, {"type": "note_off", "time": 53, "note": 72, "velocity": 103, "channel": 0}, {"type": "note_on", "time": 11, "note": 76, "velocity": 107, "channel": 0}, {"type": "note_off", "time": 25, "note": 76, "velocity": 107, "channel": 0}, {"type": "note_on", "time": 11, "note": 81, "velocity": 108, "channel": 0}, {"type": "note_off", "time": 90, "note": 81, "velocity": 108, "channel": 0}, {"type": "note_on", "time": 8, "note": 79, "velocity": 104, "channel": 0}, {"type": "note_off", "time": 152, "note": 79, "velocity": 104, "channel": 0}, {"type": "note_on", "time": 28, "note": 81, "velocity": 109, "channel": 0}, {"type": "note_off", "time": 166, "note": 81, "velocity": 109, "channel": 0}, {"type": "note_on", "time": 42, "note": 72, "velocity": 85, "channel": 0}, {"type": "note_off", "time": 84, "note": 72, "velocity": 85, "channel": 0}, {"type": "note_on", "time": 16, "note": 75, "velocity": 109, "channel": 0}, {"type": "note_off", "time": 67, "note": 75, "velocity": 109, "channel": 0}, {"type": "note_on", "time": 11, "note": 76, "velocity": 113, "channel": 0}, {"type": "note_off", "time": 118, "note": 76, "velocity": 113, "channel": 0}, {"type": "note_on", "time": 8, "note": 72, "velocity": 82, "channel": 0}, {"type": "note_off", "time": 64, "note": 72, "velocity": 82, "channel": 0}, {"type": "note_on", "time": 16, "note": 73, "velocity": 106, "channel": 0}, {"type": "note_off", "time": 115, "note": 73, "velocity": 106, "channel": 0}, {"type": "note_on", "time": 2, "note": 72, "velocity": 99, "channel": 0}, {"type": "note_off", "time": 48, "note": 72, "velocity": 99, "channel": 0}, {"type": "note_on", "time": 39, "note": 70, "velocity": 79, "channel": 0}, {"type": "note_off", "time": 84, "note": 70, "velocity": 79, "channel": 0}, {"type": "note_on", "time": 22, "note": 68, "velocity": 102, "channel": 0}, {"type": "note_off", "time": 144, "note": 68, "velocity": 102, "channel": 0}, {"type": "note_on", "time": 36, "note": 65, "velocity": 84, "channel": 0}, {"type": "note_off", "time": 50, "note": 65, "velocity": 84, "channel": 0}, {"type": "note_on", "time": 16, "note": 67, "velocity": 92, "channel": 0}, {"type": "note_off", "time": 96, "note": 67, "velocity": 92, "channel": 0}, {"type": "note_on", "time": 16, "note": 65, "velocity": 96, "channel": 0}, {"type": "note_off", "time": 56, "note": 65, "velocity": 96, "channel": 0}, {"type": "note_on", "time": 16, "note": 64, "velocity": 85, "channel": 0}, {"type": "note_off", "time": 90, "note": 64, "velocity": 85, "channel": 0}, {"type": "note_on", "time": 25, "note": 67, "velocity": 104, "channel": 0}, {"type": "note_off", "time": 67, "note": 67, "velocity": 104, "channel": 0}, {"type": "note_on", "time": 5, "note": 69, "velocity": 105, "channel": 0}, {"type": "note_off", "time": 90, "note": 69, "velocity": 105, "channel": 0}, {"type": "note_on", "time": 28, "note": 72, "velocity": 96, "channel": 0}, {"type": "note_off", "time": 163, "note": 72, "velocity": 96, "channel": 0}, {"type": "note_on", "time": 121, "note": 72, "velocity": 108, "channel": 0}, {"type": "note_off", "time": 67, "note": 72, "velocity": 108, "channel": 0}, {"type": "note_on", "time": 19, "note": 71, "velocity": 121, "channel": 0}, {"type": "note_off", "time": 73, "note": 71, "velocity": 121, "channel": 0}, {"type": "note_on", "time": 19, "note": 70, "velocity": 108, "channel": 0}, {"type": "note_off", "time": 33, "note": 70, "velocity": 108, "channel": 0}, {"type": "note_on", "time": 2, "note": 74, "velocity": 101, "channel": 0}, {"type": "note_off", "time": 36, "note": 74, "velocity": 101, "channel": 0}, {"type": "note_on", "time": 11, "note": 77, "velocity": 106, "channel": 0}, {"type": "note_off", "time": 65, "note": 77, "velocity": 106, "channel": 0}, {"type": "note_on", "time": 21, "note": 81, "velocity": 116, "channel": 0}, {"type": "note_off", "time": 89, "note": 81, "velocity": 116, "channel": 0}, {"type": "note_on", "time": 15, "note": 80, "velocity": 102, "channel": 0}, {"type": "note_off", "time": 79, "note": 80, "velocity": 102, "channel": 0}, {"type": "note_on", "time": 0, "note": 78, "velocity": 94, "channel": 0}, {"type": "note_off", "time": 81, "note": 78, "velocity": 94, "channel": 0}, {"type": "note_on", "time": 28, "note": 76, "velocity": 107, "channel": 0}, {"type": "note_off", "time": 70, "note": 76, "velocity": 107, "channel": 0}, {"type": "note_on", "time": 11, "note": 75, "velocity": 108, "channel": 0}, {"type": "note_off", "time": 90, "note": 75, "velocity": 108, "channel": 0}, {"type": "note_on", "time": 19, "note": 73, "velocity": 106, "channel": 0}, {"type": "note_off", "time": 81, "note": 73, "velocity": 106, "channel": 0}, {"type": "note_on", "time": 19, "note": 72, "velocity": 100, "channel": 0}, {"type": "note_off", "time": 76, "note": 72, "velocity": 100, "channel": 0}, {"type": "note_on", "time": 14, "note": 77, "velocity": 109, "channel": 0}, {"type": "note_off", "time": 84, "note": 77, "velocity": 109, "channel": 0}, {"type": "note_on", "time": 16, "note": 77, "velocity": 108, "channel": 0}, {"type": "note_off", "time": 70, "note": 77, "velocity": 108, "channel": 0}, {"type": "note_on", "time": 11, "note": 77, "velocity": 105, "channel": 0}, {"type": "note_off", "time": 70, "note": 77, "velocity": 105, "channel": 0}, {"type": "note_on", "time": 33, "note": 72, "velocity": 102, "channel": 0}, {"type": "note_off", "time": 76, "note": 72, "velocity": 102, "channel": 0}, {"type": "note_on", "time": 22, "note": 69, "velocity": 105, "channel": 0}, {"type": "note_off", "time": 76, "note": 69, "velocity": 105, "channel": 0}, {"type": "note_on", "time": 16, "note": 65, "velocity": 89, "channel": 0}, {"type": "note_off", "time": 107, "note": 65, "velocity": 89, "channel": 0}, {"type": "note_on", "time": 96, "note": 71, "velocity": 117, "channel": 0}, {"type": "note_off", "time": 81, "note": 71, "velocity": 117, "channel": 0}, {"type": "note_on", "time": 22, "note": 72, "velocity": 103, "channel": 0}, {"type": "note_on", "time": 84, "note": 70, "velocity": 91, "channel": 0}, {"type": "note_off", "time": 0, "note": 72, "velocity": 103, "channel": 0}, {"type": "note_off", "time": 76, "note": 70, "velocity": 91, "channel": 0}, {"type": "note_on", "time": 16, "note": 69, "velocity": 101, "channel": 0}, {"type": "note_off", "time": 70, "note": 69, "velocity": 101, "channel": 0}, {"type": "note_on", "time": 14, "note": 68, "velocity": 107, "channel": 0}, {"type": "note_off", "time": 112, "note": 68, "velocity": 107, "channel": 0}, {"type": "note_on", "time": 355, "note": 65, "velocity": 100, "channel": 0}, {"type": "note_off", "time": 67, "note": 65, "velocity": 100, "channel": 0}, {"type": "note_on", "time": 14, "note": 67, "velocity": 96, "channel": 0}, {"type": "note_off", "time": 87, "note": 67, "velocity": 96, "channel": 0}, {"type": "note_on", "time": 25, "note": 69, "velocity": 119, "channel": 0}, {"type": "note_off", "time": 81, "note": 69, "velocity": 119, "channel": 0}, {"type": "note_on", "time": 11, "note": 70, "velocity": 93, "channel": 0}, {"type": "note_off", "time": 84, "note": 70, "velocity": 93, "channel": 0}, {"type": "note_on", "time": 22, "note": 72, "velocity": 104, "channel": 0}, {"type": "note_off", "time": 104, "note": 72, "velocity": 104, "channel": 0}, {"type": "note_on", "time": 48, "note": 70, "velocity": 102, "channel": 0}, {"type": "note_off", "time": 36, "note": 70, "velocity": 102, "channel": 0}, {"type": "note_on", "time": 8, "note": 69, "velocity": 110, "channel": 0}, {"type": "note_off", "time": 33, "note": 69, "velocity": 110, "channel": 0}, {"type": "note_on", "time": 16, "note": 68, "velocity": 105, "channel": 0}, {"type": "note_off", "time": 96, "note": 68, "velocity": 105, "channel": 0}, {"type": "note_on", "time": 11, "note": 72, "velocity": 111, "channel": 0}, {"type": "note_off", "time": 64, "note": 72, "velocity": 111, "channel": 0}, {"type": "note_on", "time": 19, "note": 75, "velocity": 124, "channel": 0}, {"type": "note_off", "time": 50, "note": 75, "velocity": 124, "channel": 0}, {"type": "note_on", "time": 19, "note": 79, "velocity": 112, "channel": 0}, {"type": "note_off", "time": 31, "note": 79, "velocity": 112, "channel": 0}, {"type": "note_on", "time": 5, "note": 80, "velocity": 118, "channel": 0}, {"type": "note_off", "time": 70, "note": 80, "velocity": 118, "channel": 0}, {"type": "note_on", "time": 22, "note": 82, "velocity": 115, "channel": 0}, {"type": "note_off", "time": 166, "note": 82, "velocity": 115, "channel": 0}, {"type": "note_on", "time": 19, "note": 80, "velocity": 106, "channel": 0}, {"type": "note_off", "time": 98, "note": 80, "velocity": 106, "channel": 0}, {"type": "note_on", "time": 19, "note": 79, "velocity": 113, "channel": 0}, {"type": "note_off", "time": 132, "note": 79, "velocity": 113, "channel": 0}, {"type": "note_on", "time": 31, "note": 81, "velocity": 122, "channel": 0}, {"type": "note_off", "time": 81, "note": 81, "velocity": 122, "channel": 0}, {"type": "note_on", "time": 19, "note": 84, "velocity": 103, "channel": 0}, {"type": "note_off", "time": 135, "note": 84, "velocity": 103, "channel": 0}, {"type": "note_on", "time": 73, "note": 81, "velocity": 118, "channel": 0}, {"type": "note_off", "time": 42, "note": 81, "velocity": 118, "channel": 0}, {"type": "note_on", "time": 17, "note": 82, "velocity": 126, "channel": 0}, {"type": "note_off", "time": 43, "note": 82, "velocity": 126, "channel": 0}, {"type": "note_on", "time": 9, "note": 81, "velocity": 121, "channel": 0}, {"type": "note_off", "time": 49, "note": 81, "velocity": 121, "channel": 0}, {"type": "note_on", "time": 17, "note": 80, "velocity": 109, "channel": 0}, {"type": "note_off", "time": 87, "note": 80, "velocity": 109, "channel": 0}, {"type": "note_on", "time": 21, "note": 77, "velocity": 96, "channel": 0}, {"type": "note_off", "time": 115, "note": 77, "velocity": 96, "channel": 0}, {"type": "note_on", "time": 61, "note": 75, "velocity": 119, "channel": 0}, {"type": "note_off", "time": 93, "note": 75, "velocity": 119, "channel": 0}, {"type": "note_on", "time": 13, "note": 72, "velocity": 94, "channel": 0}, {"type": "note_off", "time": 118, "note": 72, "velocity": 94, "channel": 0}, {"type": "note_on", "time": 53, "note": 70, "velocity": 91, "channel": 0}, {"type": "note_off", "time": 110, "note": 70, "velocity": 91, "channel": 0}, {"type": "note_on", "time": 25, "note": 68, "velocity": 107, "channel": 0}, {"type": "note_off", "time": 115, "note": 68, "velocity": 107, "channel": 0}, {"type": "note_on", "time": 0, "note": 67, "velocity": 99, "channel": 0}, {"type": "note_off", "time": 39, "note": 67, "velocity": 99, "channel": 0}, {"type": "note_on", "time": 2, "note": 65, "velocity": 85, "channel": 0}, {"type": "note_off", "time": 48, "note": 65, "velocity": 85, "channel": 0}, {"type": "note_on", "time": 19, "note": 64, "velocity": 94, "channel": 0}, {"type": "note_off", "time": 192, "note": 64, "velocity": 94, "channel": 0}, {"type": "note_on", "time": 279, "note": 67, "velocity": 104, "channel": 0}, {"type": "note_off", "time": 53, "note": 67, "velocity": 104, "channel": 0}, {"type": "note_on", "time": 16, "note": 72, "velocity": 102, "channel": 0}, {"type": "note_off", "time": 59, "note": 72, "velocity": 102, "channel": 0}, {"type": "note_on", "time": 11, "note": 76, "velocity": 103, "channel": 0}, {"type": "note_off", "time": 31, "note": 76, "velocity": 103, "channel": 0}, {"type": "note_on", "time": 14, "note": 77, "velocity": 119, "channel": 0}, {"type": "note_off", "time": 79, "note": 77, "velocity": 119, "channel": 0}, {"type": "note_on", "time": 16, "note": 75, "velocity": 118, "channel": 0}, {"type": "note_off", "time": 50, "note": 75, "velocity": 118, "channel": 0}, {"type": "note_on", "time": 19, "note": 76, "velocity": 93, "channel": 0}, {"type": "note_off", "time": 158, "note": 76, "velocity": 93, "channel": 0}, {"type": "note_on", "time": 53, "note": 72, "velocity": 105, "channel": 0}, {"type": "note_off", "time": 56, "note": 72, "velocity": 105, "channel": 0}, {"type": "note_on", "time": 16, "note": 73, "velocity": 105, "channel": 0}, {"type": "note_off", "time": 90, "note": 73, "velocity": 105, "channel": 0}, {"type": "note_on", "time": 25, "note": 68, "velocity": 105, "channel": 0}, {"type": "note_off", "time": 93, "note": 68, "velocity": 105, "channel": 0}, {"type": "note_on", "time": 11, "note": 67, "velocity": 95, "channel": 0}, {"type": "note_off", "time": 81, "note": 67, "velocity": 95, "channel": 0}, {"type": "note_on", "time": 5, "note": 65, "velocity": 88, "channel": 0}, {"type": "note_off", "time": 59, "note": 65, "velocity": 88, "channel": 0}, {"type": "note_on", "time": 16, "note": 64, "velocity": 101, "channel": 0}, {"type": "note_off", "time": 347, "note": 64, "velocity": 101, "channel": 0}, {"type": "note_on", "time": 2, "note": 60, "velocity": 95, "channel": 0}, {"type": "note_off", "time": 457, "note": 60, "velocity": 95, "channel": 0}, {"type": "end_of_track", "time": 0}]]}