{"ticks_per_beat": 840, "tracks": [[{"type": "track_name", "name": "Melody", "time": 0}, {"type": "set_tempo", "tempo": 437956, "time": 0}, {"type": "key_signature", "key": "Eb", "time": 0}, {"type": "time_signature", "numerator": 4, "denominator": 4, "clocks_per_click": 24, "notated_32nd_notes_per_beat": 8, "time": 0}, {"type": "note_on", "time": 3016, "note": 69, "velocity": 84, "channel": 0}, {"type": "note_off", "time": 180, "note": 69, "velocity": 84, "channel": 0}, {"type": "note_on", "time": 30, "note": 72, "velocity": 89, "channel": 0}, {"type": "note_off", "time": 192, "note": 72, "velocity": 89, "channel": 0}, {"type": "note_on", "time": 22, "note": 74, "velocity": 81, "channel": 0}, {"type": "note_off", "time": 228, "note": 74, "velocity": 81, "channel": 0}, {"type": "note_on", "time": 89, "note": 77, "velocity": 75, "channel": 0}, {"type": "note_off", "time": 150, "note": 77, "velocity": 75, "channel": 0}, {"type": "note_on", "time": 33, "note": 79, "velocity": 95, "channel": 0}, {"type": "note_off", "time": 186, "note": 79, "velocity": 95, "channel": 0}, {"type": "note_on", "time": 30, "note": 81, "velocity": 73, "channel": 0}, {"type": "note_off", "time": 136, "note": 81, "velocity": 73, "channel": 0}, {"type": "note_on", "time": 61, "note": 84, "velocity": 99, "channel": 0}, {"type": "note_off", "time": 183, "note": 84, "velocity": 99, "channel": 0}, {"type": "note_on", "time": 14, "note": 86, "velocity": 91, "channel": 0}, {"type": "note_off", "time": 180, "note": 86, "velocity": 91, "channel": 0}, {"type": "note_on", "time": 50, "note": 84, "velocity": 117, "channel": 0}, {"type": "note_off", "time": 410, "note": 84, "velocity": 117, "channel": 0}, {"type": "note_on", "time": 90, "note": 82, "velocity": 81, "channel": 0}, {"type": "note_off", "time": 86, "note": 82, "velocity": 81, "channel": 0}, {"type": "note_on", "time": 54, "note": 84, "velocity": 91, "channel": 0}, {"type": "note_off", "time": 168, "note": 84, "velocity": 91, "channel": 0}, {"type": "note_on", "time": 46, "note": 82, "velocity": 112, "channel": 0}, {"type": "note_off", "time": 450, "note": 82, "velocity": 112, "channel": 0}, {"type": "note_on", "time": 31, "note": 79, "velocity": 93, "channel": 0}, {"type": "note_off", "time": 133, "note": 79, "velocity": 93, "channel": 0}, {"type": "note_on", "time": 39, "note": 81, "velocity": 96, "channel": 0}, {"type": "note_off", "time": 168, "note": 81, "velocity": 96, "channel": 0}, {"type": "note_on", "time": 31, "note": 79, "velocity": 95, "channel": 0}, {"type": "note_off", "time": 152, "note": 79, "velocity": 95, "channel": 0}, {"type": "note_on", "time": 50, "note": 77, "velocity": 104, "channel": 0}, {"type": "note_off", "time": 183, "note": 77, "velocity": 104, "channel": 0}, {"type": "note_on", "time": 62, "note": 75, "velocity": 87, "channel": 0}, {"type": "note_off", "time": 156, "note": 75, "velocity": 87, "channel": 0}, {"type": "note_on", "time": 50, "note": 72, "velocity": 90, "channel": 0}, {"type": "note_off", "time": 191, "note": 72, "velocity": 90, "channel": 0}, {"type": "note_on", "time": 121, "note": 69, "velocity": 93, "channel": 0}, {"type": "note_off", "time": 254, "note": 69, "velocity": 93, "channel": 0}, {"type": "note_on", "time": 39, "note": 72, "velocity": 100, "channel": 0}, {"type": "note_off", "time": 160, "note": 72, "velocity": 100, "channel": 0}, {"type": "note_on", "time": 46, "note": 74, "velocity": 79, "channel": 0}, {"type": "note_off", "time": 121, "note": 74, "velocity": 79, "channel": 0}, {"type": "note_on", "time": 54, "note": 75, "velocity": 94, "channel": 0}, {"type": "note_off", "time": 101, "note": 75, "velocity": 94, "channel": 0}, {"type": "note_on", "time": 78, "note": 77, "velocity": 106, "channel": 0}, {"type": "note_off", "time": 223, "note": 77, "velocity": 106, "channel": 0}, {"type": "note_on", "time": 242, "note": 72, "velocity": 92, "channel": 0}, {"type": "note_off", "time": 187, "note": 72, "velocity": 92, "channel": 0}, {"type": "note_on", "time": 78, "note": 72, "velocity": 104, "channel": 0}, {"type": "note_off", "time": 313, "note": 72, "velocity": 104, "channel": 0}, {"type": "note_on", "time": 1851, "note": 67, "velocity": 91, "channel": 0}, {"type": "note_off", "time": 250, "note": 67, "velocity": 91, "channel": 0}, {"type": "note_on", "time": 97, "note": 72, "velocity": 88, "channel": 0}, {"type": "note_off", "time": 160, "note": 72, "velocity": 88, "channel": 0}, {"type": "note_on", "time": 39, "note": 75, "velocity": 69, "channel": 0}, {"type": "note_off", "time": 144, "note": 75, "velocity": 69, "channel": 0}, {"type": "note_on", "time": 46, "note": 77, "velocity": 93, "channel": 0}, {"type": "note_off", "time": 324, "note": 77, "velocity": 93, "channel": 0}, {"type": "note_on", "time": 180, "note": 78, "velocity": 69, "channel": 0}, {"type": "note_off", "time": 93, "note": 78, "velocity": 69, "channel": 0}, {"type": "note_on", "time": 31, "note": 77, "velocity": 104, "channel": 0}, {"type": "note_off", "time": 144, "note": 77, "velocity": 104, "channel": 0}, {"type": "note_on", "time": 31, "note": 75, "velocity": 97, "channel": 0}, {"type": "note_off", "time": 168, "note": 75, "velocity": 97, "channel": 0}, {"type": "note_on", "time": 219, "note": 72, "velocity": 90, "channel": 0}, {"type": "note_off", "time": 348, "note": 72, "velocity": 90, "channel": 0}, {"type": "note_on", "time": 109, "note": 70, "velocity": 105, "channel": 0}, {"type": "note_off", "time": 324, "note": 70, "velocity": 105, "channel": 0}, {"type": "note_on", "time": 82, "note": 67, "velocity": 85, "channel": 0}, {"type": "note_off", "time": 305, "note": 67, "velocity": 85, "channel": 0}, {"type": "note_on", "time": 90, "note": 65, "velocity": 89, "channel": 0}, {"type": "note_off", "time": 187, "note": 65, "velocity": 89, "channel": 0}, {"type": "note_on", "time": 195, "note": 63, "velocity": 77, "channel": 0}, {"type": "note_off", "time": 352, "note": 63, "velocity": 77, "channel": 0}, {"type": "note_on", "time": 191, "note": 66, "velocity": 102, "channel": 0}, {"type": "note_off", "time": 266, "note": 66, "velocity": 102, "channel": 0}, {"type": "note_on", "time": 39, "note": 65, "velocity": 89, "channel": 0}, {"type": "note_off", "time": 297, "note": 65, "velocity": 89, "channel": 0}, {"type": "note_on", "time": 125, "note": 66, "velocity": 108, "channel": 0}, {"type": "note_off", "time": 274, "note": 66, "velocity": 108, "channel": 0}, {"type": "note_on", "time": 78, "note": 65, "velocity": 83, "channel": 0}, {"type": "note_off", "time": 305, "note": 65, "velocity": 83, "channel": 0}, {"type": "note_on", "time": 113, "note": 66, "velocity": 85, "channel": 0}, {"type": "note_off", "time": 97, "note": 66, "velocity": 85, "channel": 0}, {"type": "note_on", "time": 101, "note": 72, "velocity": 82, "channel": 0}, {"type": "note_off", "time": 183, "note": 72, "velocity": 82, "channel": 0}, {"type": "note_on", "time": 74, "note": 63, "velocity": 119, "channel": 0}, {"type": "note_off", "time": 254, "note": 63, "velocity": 119, "channel": 0}, {"type": "note_on", "time": 31, "note": 65, "velocity": 111, "channel": 0}, {"type": "note_off", "time": 113, "note": 65, "velocity": 111, "channel": 0}, {"type": "note_on", "time": 46, "note": 63, "velocity": 115, "channel": 0}, {"type": "note_off", "time": 219, "note": 63, "velocity": 115, "channel": 0}, {"type": "note_on", "time": 35, "note": 60, "velocity": 78, "channel": 0}, {"type": "note_off", "time": 434, "note": 60, "velocity": 78, "channel": 0}, {"type": "note_on", "time": 1041, "note": 60, "velocity": 83, "channel": 0}, {"type": "note_off", "time": 270, "note": 60, "velocity": 83, "channel": 0}, {"type": "note_on", "time": 46, "note": 63, "velocity": 113, "channel": 0}, {"type": "note_off", "time": 254, "note": 63, "velocity": 113, "channel": 0}, {"type": "note_on", "time": 19, "note": 65, "velocity": 82, "channel": 0}, {"type": "note_off", "time": 203, "note": 65, "velocity": 82, "channel": 0}, {"type": "note_on", "time": 74, "note": 67, "velocity": 90, "channel": 0}, {"type": "note_off", "time": 246, "note": 67, "velocity": 90, "channel": 0}, {"type": "note_on", "time": 58, "note": 68, "velocity": 95, "channel": 0}, {"type": "note_off", "time": 266, "note": 68, "velocity": 95, "channel": 0}, {"type": "note_on", "time": 109, "note": 70, "velocity": 86, "channel": 0}, {"type": "note_off", "time": 168, "note": 70, "velocity": 86, "channel": 0}, {"type": "note_on", "time": 27, "note": 68, "velocity": 100, "channel": 0}, {"type": "note_off", "time": 129, "note": 68, "velocity": 100, "channel": 0}, {"type": "note_on", "time": 78, "note": 63, "velocity": 111, "channel": 0}, {"type": "note_off", "time": 277, "note": 63, "velocity": 111, "channel": 0}, {"type": "note_on", "time": 246, "note": 65, "velocity": 84, "channel": 0}, {"type": "note_off", "time": 230, "note": 65, "velocity": 84, "channel": 0}, {"type": "note_on", "time": 70, "note": 63, "velocity": 96, "channel": 0}, {"type": "note_off", "time": 199, "note": 63, "velocity": 96, "channel": 0}, {"type": "note_on", "time": 411, "note": 66, "velocity": 77, "channel": 0}, {"type": "note_off", "time": 207, "note": 66, "velocity": 77, "channel": 0}, {"type": "note_on", "time": 62, "note": 69, "velocity": 85, "channel": 0}, {"type": "note_off", "time": 238, "note": 69, "velocity": 85, "channel": 0}, {"type": "note_on", "time": 242, "note": 72, "velocity": 94, "channel": 0}, {"type": "note_off", "time": 195, "note": 72, "velocity": 94, "channel": 0}, {"type": "note_on", "time": 82, "note": 74, "velocity": 94, "channel": 0}, {"type": "note_off", "time": 285, "note": 74, "velocity": 94, "channel": 0}, {"type": "note_on", "time": 356, "note": 71, "velocity": 70, "channel": 0}, {"type": "note_off", "time": 227, "note": 71, "velocity": 70, "channel": 0}, {"type": "note_on", "time": 129, "note": 72, "velocity": 95, "channel": 0}, {"type": "note_off", "time": 266, "note": 72, "velocity": 95, "channel": 0}, {"type": "note_on", "time": 78, "note": 74, "velocity": 85, "channel": 0}, {"type": "note_off", "time": 332, "note": 74, "velocity": 85, "channel": 0}, {"type": "note_on", "time": 144, "note": 75, "velocity": 85, "channel": 0}, {"type": "note_off", "time": 328, "note": 75, "velocity": 85, "channel": 0}, {"type": "note_on", "time": 434, "note": 77, "velocity": 106, "channel": 0}, {"type": "note_off", "time": 356, "note": 77, "velocity": 106, "channel": 0}, {"type": "note_on", "time": 133, "note": 75, "velocity": 89, "channel": 0}, {"type": "note_off", "time": 246, "note": 75, "velocity": 89, "channel": 0}, {"type": "note_on", "time": 97, "note": 72, "velocity": 113, "channel": 0}, {"type": "note_off", "time": 219, "note": 72, "velocity": 113, "channel": 0}, {"type": "note_on", "time": 125, "note": 75, "velocity": 99, "channel": 0}, {"type": "note_off", "time": 156, "note": 75, "velocity": 99, "channel": 0}, {"type": "note_on", "time": 27, "note": 76, "velocity": 87, "channel": 0}, {"type": "note_off", "time": 187, "note": 76, "velocity": 87, "channel": 0}, {"type": "note_on", "time": 82, "note": 77, "velocity": 97, "channel": 0}, {"type": "note_off", "time": 383, "note": 77, "velocity": 97, "channel": 0}, {"type": "note_on", "time": 140, "note": 75, "velocity": 109, "channel": 0}, {"type": "note_off", "time": 320, "note": 75, "velocity": 109, "channel": 0}, {"type": "note_on", "time": 109, "note": 69, "velocity": 85, "channel": 0}, {"type": "note_off", "time": 246, "note": 69, "velocity": 85, "channel": 0}, {"type": "note_on", "time": 183, "note": 72, "velocity": 88, "channel": 0}, {"type": "note_off", "time": 317, "note": 72, "velocity": 88, "channel": 0}, {"type": "note_on", "time": 46, "note": 74, "velocity": 80, "channel": 0}, {"type": "note_off", "time": 383, "note": 74, "velocity": 80, "channel": 0}, {"type": "note_on", "time": 457, "note": 75, "velocity": 95, "channel": 0}, {"type": "note_off", "time": 324, "note": 75, "velocity": 95, "channel": 0}, {"type": "note_on", "time": 183, "note": 72, "velocity": 80, "channel": 0}, {"type": "note_off", "time": 176, "note": 72, "velocity": 80, "channel": 0}, {"type": "note_on", "time": 74, "note": 67, "velocity": 71, "channel": 0}, {"type": "note_off", "time": 461, "note": 67, "velocity": 71, "channel": 0}, {"type": "note_on", "time": 857, "note": 60, "velocity": 96, "channel": 0}, {"type": "note_off", "time": 274, "note": 60, "velocity": 96, "channel": 0}, {"type": "note_on", "time": 35, "note": 61, "velocity": 109, "channel": 0}, {"type": "note_off", "time": 219, "note": 61, "velocity": 109, "channel": 0}, {"type": "note_on", "time": 62, "note": 62, "velocity": 78, "channel": 0}, {"type": "note_off", "time": 191, "note": 62, "velocity": 78, "channel": 0}, {"type": "note_on", "time": 70, "note": 63, "velocity": 119, "channel": 0}, {"type": "note_off", "time": 230, "note": 63, "velocity": 119, "channel": 0}, {"type": "note_on", "time": 43, "note": 65, "velocity": 90, "channel": 0}, {"type": "note_off", "time": 215, "note": 65, "velocity": 90, "channel": 0}, {"type": "note_on", "time": 46, "note": 67, "velocity": 103, "channel": 0}, {"type": "note_off", "time": 183, "note": 67, "velocity": 103, "channel": 0}, {"type": "note_on", "time": 43, "note": 68, "velocity": 105, "channel": 0}, {"type": "note_off", "time": 254, "note": 68, "velocity": 105, "channel": 0}, {"type": "note_on", "time": 23, "note": 70, "velocity": 125, "channel": 0}, {"type": "note_off", "time": 281, "note": 70, "velocity": 125, "channel": 0}, {"type": "note_on", "time": 23, "note": 71, "velocity": 89, "channel": 0}, {"type": "note_off", "time": 144, "note": 71, "velocity": 89, "channel": 0}, {"type": "note_on", "time": 27, "note": 72, "velocity": 116, "channel": 0}, {"type": "note_off", "time": 332, "note": 72, "velocity": 116, "channel": 0}, {"type": "note_on", "time": 39, "note": 67, "velocity": 106, "channel": 0}, {"type": "note_off", "time": 399, "note": 67, "velocity": 106, "channel": 0}, {"type": "note_on", "time": 990, "note": 65, "velocity": 106, "channel": 0}, {"type": "note_off", "time": 215, "note": 65, "velocity": 106, "channel": 0}, {"type": "note_on", "time": 117, "note": 63, "velocity": 109, "channel": 0}, {"type": "note_off", "time": 446, "note": 63, "velocity": 109, "channel": 0}, {"type": "note_on", "time": 117, "note": 60, "velocity": 101, "channel": 0}, {"type": "note_off", "time": 348, "note": 60, "velocity": 101, "channel": 0}, {"type": "note_on", "time": 489, "note": 60, "velocity": 95, "channel": 0}, {"type": "note_off", "time": 176, "note": 60, "velocity": 95, "channel": 0}, {"type": "note_on", "time": 97, "note": 64, "velocity": 112, "channel": 0}, {"type": "note_off", "time": 117, "note": 64, "velocity": 112, "channel": 0}, {"type": "note_on", "time": 62, "note": 65, "velocity": 98, "channel": 0}, {"type": "note_off", "time": 207, "note": 65, "velocity": 98, "channel": 0}, {"type": "note_on", "time": 160, "note": 60, "velocity": 90, "channel": 0}, {"type": "note_off", "time": 144, "note": 60, "velocity": 90, "channel": 0}, {"type": "note_on", "time": 121, "note": 64, "velocity": 117, "channel": 0}, {"type": "note_off", "time": 160, "note": 64, "velocity": 117, "channel": 0}, {"type": "note_on", "time": 19, "note": 65, "velocity": 85, "channel": 0}, {"type": "note_off", "time": 172, "note": 65, "velocity": 85, "channel": 0}, {"type": "note_on", "time": 195, "note": 65, "velocity": 111, "channel": 0}, {"type": "note_off", "time": 270, "note": 65, "velocity": 111, "channel": 0}, {"type": "note_on", "time": 563, "note": 60, "velocity": 97, "channel": 0}, {"type": "note_off", "time": 168, "note": 60, "velocity": 97, "channel": 0}, {"type": "note_on", "time": 117, "note": 63, "velocity": 105, "channel": 0}, {"type": "note_off", "time": 320, "note": 63, "velocity": 105, "channel": 0}, {"type": "note_on", "time": 109, "note": 77, "velocity": 102, "channel": 0}, {"type": "note_off", "time": 238, "note": 77, "velocity": 102, "channel": 0}, {"type": "note_on", "time": 137, "note": 78, "velocity": 95, "channel": 0}, {"type": "note_off", "time": 187, "note": 78, "velocity": 95, "channel": 0}, {"type": "note_on", "time": 74, "note": 79, "velocity": 96, "channel": 0}, {"type": "note_off", "time": 199, "note": 79, "velocity": 96, "channel": 0}, {"type": "note_on", "time": 70, "note": 79, "velocity": 101, "channel": 0}, {"type": "note_off", "time": 137, "note": 79, "velocity": 101, "channel": 0}, {"type": "note_on", "time": 62, "note": 79, "velocity": 107, "channel": 0}, {"type": "note_off", "time": 219, "note": 79, "velocity": 107, "channel": 0}, {"type": "note_on", "time": 125, "note": 79, "velocity": 93, "channel": 0}, {"type": "note_off", "time": 133, "note": 79, "velocity": 93, "channel": 0}, {"type": "note_on", "time": 74, "note": 79, "velocity": 101, "channel": 0}, {"type": "note_off", "time": 281, "note": 79, "velocity": 101, "channel": 0}, {"type": "note_on", "time": 54, "note": 78, "velocity": 95, "channel": 0}, {"type": "note_off", "time": 219, "note": 78, "velocity": 95, "channel": 0}, {"type": "note_on", "time": 58, "note": 79, "velocity": 100, "channel": 0}, {"type": "note_off", "time": 140, "note": 79, "velocity": 100, "channel": 0}, {"type": "note_on", "time": 93, "note": 79, "velocity": 80, "channel": 0}, {"type": "note_off", "time": 125, "note": 79, "velocity": 80, "channel": 0}, {"type": "note_on", "time": 105, "note": 79, "velocity": 98, "channel": 0}, {"type": "note_off", "time": 219, "note": 79, "velocity": 98, "channel": 0}, {"type": "note_on", "time": 86, "note": 79, "velocity": 82, "channel": 0}, {"type": "note_off", "time": 160, "note": 79, "velocity": 82, "channel": 0}, {"type": "note_on", "time": 105, "note": 79, "velocity": 98, "channel": 0}, {"type": "note_off", "time": 195, "note": 79, "velocity": 98, "channel": 0}, {"type": "note_on", "time": 97, "note": 78, "velocity": 75, "channel": 0}, {"type": "note_off", "time": 113, "note": 78, "velocity": 75, "channel": 0}, {"type": "note_on", "time": 78, "note": 77, "velocity": 89, "channel": 0}, {"type": "note_off", "time": 148, "note": 77, "velocity": 89, "channel": 0}, {"type": "note_on", "time": 101, "note": 75, "velocity": 83, "channel": 0}, {"type": "note_off", "time": 113, "note": 75, "velocity": 83, "channel": 0}, {"type": "note_on", "time": 82, "note": 72, "velocity": 79, "channel": 0}, {"type": "note_off", "time": 156, "note": 72, "velocity": 79, "channel": 0}, {"type": "note_on", "time": 101, "note": 75, "velocity": 98, "channel": 0}, {"type": "note_off", "time": 230, "note": 75, "velocity": 98, "channel": 0}, {"type": "note_on", "time": 317, "note": 77, "velocity": 99, "channel": 0}, {"type": "note_off", "time": 305, "note": 77, "velocity": 99, "channel": 0}, {"type": "note_on", "time": 387, "note": 78, "velocity": 98, "channel": 0}, {"type": "note_off", "time": 78, "note": 78, "velocity": 98, "channel": 0}, {"type": "note_on", "time": 31, "note": 77, "velocity": 97, "channel": 0}, {"type": "note_off", "time": 93, "note": 77, "velocity": 97, "channel": 0}, {"type": "note_on", "time": 86, "note": 75, "velocity": 102, "channel": 0}, {"type": "note_off", "time": 148, "note": 75, "velocity": 102, "channel": 0}, {"type": "note_on", "time": 43, "note": 72, "velocity": 83, "channel": 0}, {"type": "note_off", "time": 207, "note": 72, "velocity": 83, "channel": 0}, {"type": "note_on", "time": 180, "note": 70, "velocity": 103, "channel": 0}, {"type": "note_off", "time": 191, "note": 70, "velocity": 103, "channel": 0}, {"type": "note_on", "time": 70, "note": 67, "velocity": 89, "channel": 0}, {"type": "note_off", "time": 289, "note": 67, "velocity": 89, "channel": 0}, {"type": "note_on", "time": 281, "note": 69, "velocity": 90, "channel": 0}, {"type": "note_off", "time": 223, "note": 69, "velocity": 90, "channel": 0}, {"type": "note_on", "time": 101, "note": 72, "velocity": 83, "channel": 0}, {"type": "note_off", "time": 305, "note": 72, "velocity": 83, "channel": 0}, {"type": "note_on", "time": 66, "note": 74, "velocity": 101, "channel": 0}, {"type": "note_off", "time": 156, "note": 74, "velocity": 101, "channel": 0}, {"type": "note_on", "time": 277, "note": 75, "velocity": 104, "channel": 0}, {"type": "note_off", "time": 270, "note": 75, "velocity": 104, "channel": 0}, {"type": "note_on", "time": 160, "note": 72, "velocity": 96, "channel": 0}, {"type": "note_off", "time": 317, "note": 72, "velocity": 96, "channel": 0}, {"type": "note_on", "time": 113, "note": 70, "velocity": 74, "channel": 0}, {"type": "note_off", "time": 328, "note": 70, "velocity": 74, "channel": 0}, {"type": "note_on", "time": 133, "note": 67, "velocity": 76, "channel": 0}, {"type": "note_off", "time": 242, "note": 67, "velocity": 76, "channel": 0}, {"type": "note_on", "time": 125, "note": 65, "velocity": 80, "channel": 0}, {"type": "note_off", "time": 164, "note": 65, "velocity": 80, "channel": 0}, {"type": "note_on", "time": 137, "note": 68, "velocity": 77, "channel": 0}, {"type": "note_off", "time": 133, "note": 68, "velocity": 77, "channel": 0}, {"type": "note_on", "time": 54, "note": 65, "velocity": 82, "channel": 0}, {"type": "note_off", "time": 219, "note": 65, "velocity": 82, "channel": 0}, {"type": "note_on", "time": 82, "note": 63, "velocity": 110, "channel": 0}, {"type": "note_off", "time": 317, "note": 63, "velocity": 110, "channel": 0}, {"type": "note_on", "time": 133, "note": 60, "velocity": 83, "channel": 0}, {"type": "note_off", "time": 219, "note": 60, "velocity": 83, "channel": 0}, {"type": "note_on", "time": 273, "note": 58, "velocity": 70, "channel": 0}, {"type": "note_off", "time": 164, "note": 58, "velocity": 70, "channel": 0}, {"type": "note_on", "time": 230, "note": 55, "velocity": 89, "channel": 0}, {"type": "note_off", "time": 172, "note": 55, "velocity": 89, "channel": 0}, {"type": "note_on", "time": 238, "note": 60, "velocity": 98, "channel": 0}, {"type": "note_off", "time": 254, "note": 60, "velocity": 98, "channel": 0}, {"type": "note_on", "time": 54, "note": 62, "velocity": 88, "channel": 0}, {"type": "note_off", "time": 227, "note": 62, "velocity": 88, "channel": 0}, {"type": "note_on", "time": 332, "note": 62, "velocity": 98, "channel": 0}, {"type": "note_off", "time": 203, "note": 62, "velocity": 98, "channel": 0}, {"type": "note_on", "time": 19, "note": 63, "velocity": 95, "channel": 0}, {"type": "note_off", "time": 137, "note": 63, "velocity": 95, "channel": 0}, {"type": "note_on", "time": 23, "note": 64, "velocity": 86, "channel": 0}, {"type": "note_off", "time": 121, "note": 64, "velocity": 86, "channel": 0}, {"type": "note_on", "time": 27, "note": 63, "velocity": 82, "channel": 0}, {"type": "note_off", "time": 125, "note": 63, "velocity": 82, "channel": 0}, {"type": "note_on", "time": 35, "note": 62, "velocity": 100, "channel": 0}, {"type": "note_off", "time": 375, "note": 62, "velocity": 100, "channel": 0}, {"type": "note_on", "time": 199, "note": 60, "velocity": 84, "channel": 0}, {"type": "note_off", "time": 172, "note": 60, "velocity": 84, "channel": 0}, {"type": "note_on", "time": 70, "note": 63, "velocity": 108, "channel": 0}, {"type": "note_off", "time": 407, "note": 63, "velocity": 108, "channel": 0}, {"type": "note_on", "time": 1597, "note": 65, "velocity": 100, "channel": 0}, {"type": "note_off", "time": 164, "note": 65, "velocity": 100, "channel": 0}, {"type": "note_on", "time": 43, "note": 69, "velocity": 101, "channel": 0}, {"type": "note_off", "time": 168, "note": 69, "velocity": 101, "channel": 0}, {"type": "note_on", "time": 19, "note": 68, "velocity": 95, "channel": 0}, {"type": "note_off", "time": 203, "note": 68, "velocity": 95, "channel": 0}, {"type": "note_on", "time": 46, "note": 70, "velocity": 83, "channel": 0}, {"type": "note_off", "time": 137, "note": 70, "velocity": 83, "channel": 0}, {"type": "note_on", "time": 35, "note": 71, "velocity": 94, "channel": 0}, {"type": "note_off", "time": 105, "note": 71, "velocity": 94, "channel": 0}, {"type": "note_on", "time": 50, "note": 73, "velocity": 94, "channel": 0}, {"type": "note_off", "time": 121, "note": 73, "velocity": 94, "channel": 0}, {"type": "note_on", "time": 109, "note": 76, "velocity": 98, "channel": 0}, {"type": "note_off", "time": 172, "note": 76, "velocity": 98, "channel": 0}, {"type": "note_on", "time": 39, "note": 83, "velocity": 100, "channel": 0}, {"type": "note_off", "time": 172, "note": 83, "velocity": 100, "channel": 0}, {"type": "note_on", "time": 43, "note": 80, "velocity": 96, "channel": 0}, {"type": "note_off", "time": 148, "note": 80, "velocity": 96, "channel": 0}, {"type": "note_on", "time": 43, "note": 81, "velocity": 114, "channel": 0}, {"type": "note_off", "time": 133, "note": 81, "velocity": 114, "channel": 0}, {"type": "note_on", "time": 46, "note": 82, "velocity": 116, "channel": 0}, {"type": "note_off", "time": 442, "note": 82, "velocity": 116, "channel": 0}, {"type": "note_on", "time": 39, "note": 75, "velocity": 100, "channel": 0}, {"type": "note_off", "time": 105, "note": 75, "velocity": 100, "channel": 0}, {"type": "note_on", "time": 101, "note": 80, "velocity": 96, "channel": 0}, {"type": "note_off", "time": 191, "note": 80, "velocity": 96, "channel": 0}, {"type": "note_on", "time": 35, "note": 77, "velocity": 84, "channel": 0}, {"type": "note_off", "time": 101, "note": 77, "velocity": 84, "channel": 0}, {"type": "note_on", "time": 23, "note": 78, "velocity": 102, "channel": 0}, {"type": "note_off", "time": 152, "note": 78, "velocity": 102, "channel": 0}, {"type": "note_on", "time": 82, "note": 79, "velocity": 93, "channel": 0}, {"type": "note_off", "time": 137, "note": 79, "velocity": 93, "channel": 0}, {"type": "note_on", "time": 54, "note": 77, "velocity": 106, "channel": 0}, {"type": "note_off", "time": 172, "note": 77, "velocity": 106, "channel": 0}, {"type": "note_on", "time": 90, "note": 75, "velocity": 89, "channel": 0}, {"type": "note_off", "time": 140, "note": 75, "velocity": 89, "channel": 0}, {"type": "note_on", "time": 39, "note": 74, "velocity": 93, "channel": 0}, {"type": "note_off", "time": 125, "note": 74, "velocity": 93, "channel": 0}, {"type": "note_on", "time": 90, "note": 73, "velocity": 101, "channel": 0}, {"type": "note_off", "time": 129, "note": 73, "velocity": 101, "channel": 0}, {"type": "note_on", "time": 66, "note": 75, "velocity": 86, "channel": 0}, {"type": "note_off", "time": 223, "note": 75, "velocity": 86, "channel": 0}, {"type": "note_on", "time": 137, "note": 74, "velocity": 82, "channel": 0}, {"type": "note_off", "time": 160, "note": 74, "velocity": 82, "channel": 0}, {"type": "note_on", "time": 23, "note": 73, "velocity": 66, "channel": 0}, {"type": "note_off", "time": 121, "note": 73, "velocity": 66, "channel": 0}, {"type": "note_on", "time": 70, "note": 70, "velocity": 91, "channel": 0}, {"type": "note_off", "time": 133, "note": 70, "velocity": 91, "channel": 0}, {"type": "note_on", "time": 19, "note": 67, "velocity": 77, "channel": 0}, {"type": "note_off", "time": 121, "note": 67, "velocity": 77, "channel": 0}, {"type": "note_on", "time": 62, "note": 68, "velocity": 96, "channel": 0}, {"type": "note_off", "time": 183, "note": 68, "velocity": 96, "channel": 0}, {"type": "note_on", "time": 62, "note": 66, "velocity": 104, "channel": 0}, {"type": "note_off", "time": 152, "note": 66, "velocity": 104, "channel": 0}, {"type": "note_on", "time": 23, "note": 67, "velocity": 88, "channel": 0}, {"type": "note_off", "time": 148, "note": 67, "velocity": 88, "channel": 0}, {"type": "note_on", "time": 54, "note": 65, "velocity": 87, "channel": 0}, {"type": "note_off", "time": 183, "note": 65, "velocity": 87, "channel": 0}, {"type": "note_on", "time": 46, "note": 63, "velocity": 101, "channel": 0}, {"type": "note_off", "time": 305, "note": 63, "velocity": 101, "channel": 0}, {"type": "note_on", "time": 66, "note": 62, "velocity": 85, "channel": 0}, {"type": "note_off", "time": 183, "note": 62, "velocity": 85, "channel": 0}, {"type": "note_on", "time": 54, "note": 63, "velocity": 81, "channel": 0}, {"type": "note_off", "time": 133, "note": 63, "velocity": 81, "channel": 0}, {"type": "note_on", "time": 39, "note": 65, "velocity": 87, "channel": 0}, {"type": "note_off", "time": 195, "note": 65, "velocity": 87, "channel": 0}, {"type": "note_on", "time": 35, "note": 67, "velocity": 94, "channel": 0}, {"type": "note_off", "time": 164, "note": 67, "velocity": 94, "channel": 0}, {"type": "note_on", "time": 15, "note": 68, "velocity": 86, "channel": 0}, {"type": "note_off", "time": 183, "note": 68, "velocity": 86, "channel": 0}, {"type": "note_on", "time": 54, "note": 70, "velocity": 88, "channel": 0}, {"type": "note_off", "time": 152, "note": 70, "velocity": 88, "channel": 0}, {"type": "note_on", "time": 27, "note": 77, "velocity": 81, "channel": 0}, {"type": "note_off", "time": 140, "note": 77, "velocity": 81, "channel": 0}, {"type": "note_on", "time": 35, "note": 75, "velocity": 96, "channel": 0}, {"type": "note_off", "time": 144, "note": 75, "velocity": 96, "channel": 0}, {"type": "note_on", "time": 50, "note": 73, "velocity": 68, "channel": 0}, {"type": "note_off", "time": 207, "note": 73, "velocity": 68, "channel": 0}, {"type": "note_on", "time": 50, "note": 70, "velocity": 92, "channel": 0}, {"type": "note_off", "time": 203, "note": 70, "velocity": 92, "channel": 0}, {"type": "note_on", "time": 27, "note": 68, "velocity": 83, "channel": 0}, {"type": "note_off", "time": 246, "note": 68, "velocity": 83, "channel": 0}, {"type": "note_on", "time": 180, "note": 67, "velocity": 93, "channel": 0}, {"type": "note_off", "time": 183, "note": 67, "velocity": 93, "channel": 0}, {"type": "note_on", "time": 46, "note": 68, "velocity": 102, "channel": 0}, {"type": "note_off", "time": 156, "note": 68, "velocity": 102, "channel": 0}, {"type": "note_on", "time": 39, "note": 67, "velocity": 103, "channel": 0}, {"type": "note_off", "time": 117, "note": 67, "velocity": 103, "channel": 0}, {"type": "note_on", "time": 39, "note": 65, "velocity": 93, "channel": 0}, {"type": "note_off", "time": 156, "note": 65, "velocity": 93, "channel": 0}, {"type": "note_on", "time": 78, "note": 63, "velocity": 93, "channel": 0}, {"type": "note_off", "time": 297, "note": 63, "velocity": 93, "channel": 0}, {"type": "note_on", "time": 133, "note": 64, "velocity": 93, "channel": 0}, {"type": "note_off", "time": 309, "note": 64, "velocity": 93, "channel": 0}, {"type": "note_on", "time": 164, "note": 64, "velocity": 84, "channel": 0}, {"type": "note_off", "time": 183, "note": 64, "velocity": 84, "channel": 0}, {"type": "note_on", "time": 19, "note": 65, "velocity": 84, "channel": 0}, {"type": "note_off", "time": 101, "note": 65, "velocity": 84, "channel": 0}, {"type": "note_on", "time": 62, "note": 67, "velocity": 95, "channel": 0}, {"type": "note_off", "time": 211, "note": 67, "velocity": 95, "channel": 0}, {"type": "note_on", "time": 19, "note": 68, "velocity": 86, "channel": 0}, {"type": "note_off", "time": 117, "note": 68, "velocity": 86, "channel": 0}, {"type": "note_on", "time": 39, "note": 70, "velocity": 101, "channel": 0}, {"type": "note_off", "time": 215, "note": 70, "velocity": 101, "channel": 0}, {"type": "note_on", "time": 43, "note": 72, "velocity": 89, "channel": 0}, {"type": "note_off", "time": 152, "note": 72, "velocity": 89, "channel": 0}, {"type": "note_on", "time": 35, "note": 73, "velocity": 101, "channel": 0}, {"type": "note_off", "time": 117, "note": 73, "velocity": 101, "channel": 0}, {"type": "note_on", "time": 50, "note": 75, "velocity": 80, "channel": 0}, {"type": "note_off", "time": 176, "note": 75, "velocity": 80, "channel": 0}, {"type": "note_on", "time": 39, "note": 76, "velocity": 80, "channel": 0}, {"type": "note_off", "time": 215, "note": 76, "velocity": 80, "channel": 0}, {"type": "note_on", "time": 575, "note": 76, "velocity": 97, "channel": 0}, {"type": "note_off", "time": 144, "note": 76, "velocity": 97, "channel": 0}, {"type": "note_on", "time": 39, "note": 77, "velocity": 105, "channel": 0}, {"type": "note_off", "time": 133, "note": 77, "velocity": 105, "channel": 0}, {"type": "note_on", "time": 27, "note": 79, "velocity": 97, "channel": 0}, {"type": "note_off", "time": 140, "note": 79, "velocity": 97, "channel": 0}, {"type": "note_on", "time": 46, "note": 81, "velocity": 112, "channel": 0}, {"type": "note_off", "time": 152, "note": 81, "velocity": 112, "channel": 0}, {"type": "note_on", "time": 43, "note": 82, "velocity": 86, "channel": 0}, {"type": "note_off", "time": 137, "note": 82, "velocity": 86, "channel": 0}, {"type": "note_on", "time": 46, "note": 84, "velocity": 106, "channel": 0}, {"type": "note_off", "time": 168, "note": 84, "velocity": 106, "channel": 0}, {"type": "note_on", "time": 23, "note": 85, "velocity": 95, "channel": 0}, {"type": "note_off", "time": 125, "note": 85, "velocity": 95, "channel": 0}, {"type": "note_on", "time": 97, "note": 87, "velocity": 75, "channel": 0}, {"type": "note_off", "time": 180, "note": 87, "velocity": 75, "channel": 0}, {"type": "note_on", "time": 70, "note": 85, "velocity": 89, "channel": 0}, {"type": "note_off", "time": 137, "note": 85, "velocity": 89, "channel": 0}, {"type": "note_on", "time": 54, "note": 84, "velocity": 101, "channel": 0}, {"type": "note_off", "time": 172, "note": 84, "velocity": 101, "channel": 0}, {"type": "note_on", "time": 62, "note": 82, "velocity": 112, "channel": 0}, {"type": "note_off", "time": 215, "note": 82, "velocity": 112, "channel": 0}, {"type": "note_on", "time": 23, "note": 84, "velocity": 111, "channel": 0}, {"type": "note_off", "time": 148, "note": 84, "velocity": 111, "channel": 0}, {"type": "note_on", "time": 66, "note": 82, "velocity": 79, "channel": 0}, {"type": "note_off", "time": 168, "note": 82, "velocity": 79, "channel": 0}, {"type": "note_on", "time": 27, "note": 79, "velocity": 90, "channel": 0}, {"type": "note_off", "time": 168, "note": 79, "velocity": 90, "channel": 0}, {"type": "note_on", "time": 43, "note": 80, "velocity": 107, "channel": 0}, {"type": "note_off", "time": 336, "note": 80, "velocity": 107, "channel": 0}, {"type": "note_on", "time": 174, "note": 77, "velocity": 108, "channel": 0}, {"type": "note_off", "time": 100, "note": 77, "velocity": 108, "channel": 0}, {"type": "note_on", "time": 52, "note": 79, "velocity": 95, "channel": 0}, {"type": "note_off", "time": 116, "note": 79, "velocity": 95, "channel": 0}, {"type": "note_on", "time": 55, "note": 80, "velocity": 108, "channel": 0}, {"type": "note_off", "time": 116, "note": 80, "velocity": 108, "channel": 0}, {"type": "note_on", "time": 40, "note": 82, "velocity": 112, "channel": 0}, {"type": "note_off", "time": 172, "note": 82, "velocity": 112, "channel": 0}, {"type": "note_on", "time": 50, "note": 84, "velocity": 106, "channel": 0}, {"type": "note_off", "time": 195, "note": 84, "velocity": 106, "channel": 0}, {"type": "note_on", "time": 35, "note": 82, "velocity": 119, "channel": 0}, {"type": "note_off", "time": 215, "note": 82, "velocity": 119, "channel": 0}, {"type": "note_on", "time": 58, "note": 80, "velocity": 106, "channel": 0}, {"type": "note_off", "time": 227, "note": 80, "velocity": 106, "channel": 0}, {"type": "note_on", "time": 43, "note": 77, "velocity": 111, "channel": 0}, {"type": "note_off", "time": 293, "note": 77, "velocity": 111, "channel": 0}, {"type": "note_on", "time": 270, "note": 77, "velocity": 120, "channel": 0}, {"type": "note_off", "time": 348, "note": 77, "velocity": 120, "channel": 0}, {"type": "note_on", "time": 129, "note": 77, "velocity": 107, "channel": 0}, {"type": "note_off", "time": 156, "note": 77, "velocity": 107, "channel": 0}, {"type": "note_on", "time": 27, "note": 78, "velocity": 97, "channel": 0}, {"type": "note_off", "time": 137, "note": 78, "velocity": 97, "channel": 0}, {"type": "note_on", "time": 23, "note": 77, "velocity": 84, "channel": 0}, {"type": "note_off", "time": 105, "note": 77, "velocity": 84, "channel": 0}, {"type": "note_on", "time": 66, "note": 75, "velocity": 92, "channel": 0}, {"type": "note_off", "time": 133, "note": 75, "velocity": 92, "channel": 0}, {"type": "note_on", "time": 39, "note": 72, "velocity": 93, "channel": 0}, {"type": "note_off", "time": 133, "note": 72, "velocity": 93, "channel": 0}, {"type": "note_on", "time": 46, "note": 70, "velocity": 87, "channel": 0}, {"type": "note_off", "time": 183, "note": 70, "velocity": 87, "channel": 0}, {"type": "note_on", "time": 144, "note": 69, "velocity": 106, "channel": 0}, {"type": "note_off", "time": 160, "note": 69, "velocity": 106, "channel": 0}, {"type": "note_on", "time": 305, "note": 71, "velocity": 83, "channel": 0}, {"type": "note_off", "time": 164, "note": 71, "velocity": 83, "channel": 0}, {"type": "note_on", "time": 262, "note": 72, "velocity": 86, "channel": 0}, {"type": "note_off", "time": 203, "note": 72, "velocity": 86, "channel": 0}, {"type": "note_on", "time": 227, "note": 75, "velocity": 102, "channel": 0}, {"type": "note_off", "time": 187, "note": 75, "velocity": 102, "channel": 0}, {"type": "note_on", "time": 195, "note": 72, "velocity": 92, "channel": 0}, {"type": "note_off", "time": 227, "note": 72, "velocity": 92, "channel": 0}, {"type": "note_on", "time": 164, "note": 73, "velocity": 107, "channel": 0}, {"type": "note_off", "time": 250, "note": 73, "velocity": 107, "channel": 0}, {"type": "note_on", "time": 215, "note": 74, "velocity": 82, "channel": 0}, {"type": "note_off", "time": 187, "note": 74, "velocity": 82, "channel": 0}, {"type": "note_on", "time": 156, "note": 76, "velocity": 99, "channel": 0}, {"type": "note_off", "time": 223, "note": 76, "velocity": 99, "channel": 0}, {"type": "note_on", "time": 113, "note": 77, "velocity": 109, "channel": 0}, {"type": "note_off", "time": 281, "note": 77, "velocity": 109, "channel": 0}, {"type": "note_on", "time": 137, "note": 79, "velocity": 115, "channel": 0}, {"type": "note_off", "time": 195, "note": 79, "velocity": 115, "channel": 0}, {"type": "note_on", "time": 238, "note": 80, "velocity": 124, "channel": 0}, {"type": "note_off", "time": 301, "note": 80, "velocity": 124, "channel": 0}, {"type": "note_on", "time": 183, "note": 77, "velocity": 99, "channel": 0}, {"type": "note_off", "time": 219, "note": 77, "velocity": 99, "channel": 0}, {"type": "note_on", "time": 199, "note": 72, "velocity": 95, "channel": 0}, {"type": "note_off", "time": 285, "note": 72, "velocity": 95, "channel": 0}, {"type": "note_on", "time": 70, "note": 68, "velocity": 102, "channel": 0}, {"type": "note_off", "time": 285, "note": 68, "velocity": 102, "channel": 0}, {"type": "note_on", "time": 140, "note": 79, "velocity": 109, "channel": 0}, {"type": "note_off", "time": 309, "note": 79, "velocity": 109, "channel": 0}, {"type": "note_on", "time": 148, "note": 78, "velocity": 111, "channel": 0}, {"type": "note_off", "time": 309, "note": 78, "velocity": 111, "channel": 0}, {"type": "note_on", "time": 66, "note": 77, "velocity": 106, "channel": 0}, {"type": "note_off", "time": 305, "note": 77, "velocity": 106, "channel": 0}, {"type": "note_on", "time": 121, "note": 76, "velocity": 111, "channel": 0}, {"type": "note_off", "time": 317, "note": 76, "velocity": 111, "channel": 0}, {"type": "note_on", "time": 23, "note": 74, "velocity": 81, "channel": 0}, {"type": "note_off", "time": 164, "note": 74, "velocity": 81, "channel": 0}, {"type": "note_on", "time": 313, "note": 75, "velocity": 96, "channel": 0}, {"type": "note_off", "time": 187, "note": 75, "velocity": 96, "channel": 0}, {"type": "note_on", "time": 43, "note": 74, "velocity": 104, "channel": 0}, {"type": "note_off", "time": 191, "note": 74, "velocity": 104, "channel": 0}, {"type": "note_on", "time": 46, "note": 71, "velocity": 92, "channel": 0}, {"type": "note_off", "time": 270, "note": 71, "velocity": 92, "channel": 0}, {"type": "note_on", "time": 536, "note": 72, "velocity": 88, "channel": 0}, {"type": "note_off", "time": 324, "note": 72, "velocity": 88, "channel": 0}, {"type": "note_on", "time": 46, "note": 73, "velocity": 79, "channel": 0}, {"type": "note_off", "time": 219, "note": 73, "velocity": 79, "channel": 0}, {"type": "note_on", "time": 90, "note": 75, "velocity": 78, "channel": 0}, {"type": "note_off", "time": 262, "note": 75, "velocity": 78, "channel": 0}, {"type": "note_on", "time": 242, "note": 77, "velocity": 110, "channel": 0}, {"type": "note_off", "time": 246, "note": 77, "velocity": 110, "channel": 0}, {"type": "note_on", "time": 66, "note": 78, "velocity": 88, "channel": 0}, {"type": "note_off", "time": 140, "note": 78, "velocity": 88, "channel": 0}, {"type": "note_on", "time": 54, "note": 79, "velocity": 104, "channel": 0}, {"type": "note_off", "time": 133, "note": 79, "velocity": 104, "channel": 0}, {"type": "note_on", "time": 129, "note": 84, "velocity": 104, "channel": 0}, {"type": "note_off", "time": 180, "note": 84, "velocity": 104, "channel": 0}, {"type": "note_on", "time": 144, "note": 79, "velocity": 88, "channel": 0}, {"type": "note_off", "time": 274, "note": 79, "velocity": 88, "channel": 0}, {"type": "note_on", "time": 661, "note": 77, "velocity": 112, "channel": 0}, {"type": "note_off", "time": 638, "note": 77, "velocity": 112, "channel": 0}, {"type": "note_on", "time": 728, "note": 77, "velocity": 86, "channel": 0}, {"type": "note_off", "time": 187, "note": 77, "velocity": 86, "channel": 0}, {"type": "note_on", "time": 140, "note": 80, "velocity": 75, "channel": 0}, {"type": "note_off", "time": 86, "note": 80, "velocity": 75, "channel": 0}, {"type": "note_on", "time": 70, "note": 77, "velocity": 79, "channel": 0}, {"type": "note_off", "time": 82, "note": 77, "velocity": 79, "channel": 0}, {"type": "note_on", "time": 82, "note": 75, "velocity": 78, "channel": 0}, {"type": "note_off", "time": 183, "note": 75, "velocity": 78, "channel": 0}, {"type": "note_on", "time": 43, "note": 72, "velocity": 70, "channel": 0}, {"type": "note_off", "time": 199, "note": 72, "velocity": 70, "channel": 0}, {"type": "note_on", "time": 39, "note": 70, "velocity": 73, "channel": 0}, {"type": "note_off", "time": 317, "note": 70, "velocity": 73, "channel": 0}, {"type": "note_on", "time": 215, "note": 67, "velocity": 70, "channel": 0}, {"type": "note_off", "time": 191, "note": 67, "velocity": 70, "channel": 0}, {"type": "note_on", "time": 105, "note": 67, "velocity": 85, "channel": 0}, {"type": "note_off", "time": 391, "note": 67, "velocity": 85, "channel": 0}, {"type": "note_on", "time": 391, "note": 60, "velocity": 72, "channel": 0}, {"type": "note_off", "time": 309, "note": 60, "velocity": 72, "channel": 0}, {"type": "note_on", "time": 140, "note": 60, "velocity": 79, "channel": 0}, {"type": "note_off", "time": 152, "note": 60, "velocity": 79, "channel": 0}, {"type": "note_on", "time": 54, "note": 62, "velocity": 101, "channel": 0}, {"type": "note_off", "time": 180, "note": 62, "velocity": 101, "channel": 0}, {"type": "note_on", "time": 43, "note": 63, "velocity": 102, "channel": 0}, {"type": "note_off", "time": 227, "note": 63, "velocity": 102, "channel": 0}, {"type": "note_on", "time": 324, "note": 60, "velocity": 81, "channel": 0}, {"type": "note_off", "time": 955, "note": 60, "velocity": 81, "channel": 0}, {"type": "note_on", "time": 215, "note": 54, "velocity": 77, "channel": 0}, {"type": "note_off", "time": 195, "note": 54, "velocity": 77, "channel": 0}, {"type": "note_on", "time": 133, "note": 56, "velocity": 68, "channel": 0}, {"type": "note_off", "time": 129, "note": 56, "velocity": 68, "channel": 0}, {"type": "note_on", "time": 82, "note": 53, "velocity": 83, "channel": 0}, {"type": "note_off", "time": 117, "note": 53, "velocity": 83, "channel": 0}, {"type": "note_on", "time": 39, "note": 54, "velocity": 101, "channel": 0}, {"type": "note_off", "time": 219, "note": 54, "velocity": 101, "channel": 0}, {"type": "note_on", "time": 2554, "note": 72, "velocity": 99, "channel": 0}, {"type": "note_off", "time": 130, "note": 72, "velocity": 99, "channel": 0}, {"type": "note_on", "time": 91, "note": 72, "velocity": 102, "channel": 0}, {"type": "note_off", "time": 91, "note": 72, "velocity": 102, "channel": 0}, {"type": "note_on", "time": 119, "note": 72, "velocity": 108, "channel": 0}, {"type": "note_off", "time": 158, "note": 72, "velocity": 108, "channel": 0}, {"type": "note_on", "time": 86, "note": 72, "velocity": 96, "channel": 0}, {"type": "note_off", "time": 153, "note": 72, "velocity": 96, "channel": 0}, {"type": "note_on", "time": 111, "note": 72, "velocity": 104, "channel": 0}, {"type": "note_off", "time": 222, "note": 72, "velocity": 104, "channel": 0}, {"type": "note_on", "time": 100, "note": 72, "velocity": 97, "channel": 0}, {"type": "note_off", "time": 155, "note": 72, "velocity": 97, "channel": 0}, {"type": "note_on", "time": 105, "note": 72, "velocity": 90, "channel": 0}, {"type": "note_off", "time": 105, "note": 72, "velocity": 90, "channel": 0}, {"type": "note_on", "time": 97, "note": 72, "velocity": 92, "channel": 0}, {"type": "note_off", "time": 125, "note": 72, "velocity": 92, "channel": 0}, {"type": "note_on", "time": 97, "note": 72, "velocity": 97, "channel": 0}, {"type": "note_off", "time": 102, "note": 72, "velocity": 97, "channel": 0}, {"type": "note_on", "time": 69, "note": 72, "velocity": 110, "channel": 0}, {"type": "note_off", "time": 197, "note": 72, "velocity": 110, "channel": 0}, {"type": "note_on", "time": 108, "note": 72, "velocity": 94, "channel": 0}, {"type": "note_off", "time": 133, "note": 72, "velocity": 94, "channel": 0}, {"type": "note_on", "time": 83, "note": 72, "velocity": 102, "channel": 0}, {"type": "note_off", "time": 189, "note": 72, "velocity": 102, "channel": 0}, {"type": "note_on", "time": 111, "note": 72, "velocity": 90, "channel": 0}, {"type": "note_off", "time": 230, "note": 72, "velocity": 90, "channel": 0}, {"type": "note_on", "time": 86, "note": 75, "velocity": 78, "channel": 0}, {"type": "note_off", "time": 217, "note": 75, "velocity": 78, "channel": 0}, {"type": "note_on", "time": 66, "note": 72, "velocity": 93, "channel": 0}, {"type": "note_off", "time": 114, "note": 72, "velocity": 93, "channel": 0}, {"type": "note_on", "time": 80, "note": 70, "velocity": 95, "channel": 0}, {"type": "note_off", "time": 114, "note": 70, "velocity": 95, "channel": 0}, {"type": "note_on", "time": 178, "note": 67, "velocity": 91, "channel": 0}, {"type": "note_off", "time": 180, "note": 67, "velocity": 91, "channel": 0}, {"type": "note_on", "time": 119, "note": 65, "velocity": 97, "channel": 0}, {"type": "note_off", "time": 175, "note": 65, "velocity": 97, "channel": 0}, {"type": "note_on", "time": 94, "note": 63, "velocity": 91, "channel": 0}, {"type": "note_off", "time": 219, "note": 63, "velocity": 91, "channel": 0}, {"type": "note_on", "time": 289, "note": 63, "velocity": 92, "channel": 0}, {"type": "note_off", "time": 200, "note": 63, "velocity": 92, "channel": 0}, {"type": "note_on", "time": 97, "note": 65, "velocity": 100, "channel": 0}, {"type": "note_off", "time": 239, "note": 65, "velocity": 100, "channel": 0}, {"type": "note_on", "time": 345, "note": 65, "velocity": 102, "channel": 0}, {"type": "note_off", "time": 130, "note": 65, "velocity": 102, "channel": 0}, {"type": "note_on", "time": 38, "note": 65, "velocity": 88, "channel": 0}, {"type": "note_off", "time": 253, "note": 65, "velocity": 88, "channel": 0}, {"type": "note_on", "time": 44, "note": 66, "velocity": 83, "channel": 0}, {"type": "note_off", "time": 161, "note": 66, "velocity": 83, "channel": 0}, {"type": "note_on", "time": 13, "note": 65, "velocity": 96, "channel": 0}, {"type": "note_off", "time": 155, "note": 65, "velocity": 96, "channel": 0}, {"type": "note_on", "time": 36, "note": 63, "velocity": 115, "channel": 0}, {"type": "note_off", "time": 225, "note": 63, "velocity": 115, "channel": 0}, {"type": "note_on", "time": 80, "note": 60, "velocity": 90, "channel": 0}, {"type": "note_off", "time": 272, "note": 60, "velocity": 90, "channel": 0}, {"type": "note_on", "time": 520, "note": 58, "velocity": 82, "channel": 0}, {"type": "note_off", "time": 283, "note": 58, "velocity": 82, "channel": 0}, {"type": "note_on", "time": 318, "note": 57, "velocity": 74, "channel": 0}, {"type": "note_off", "time": 720, "note": 57, "velocity": 74, "channel": 0}, {"type": "note_on", "time": 1468, "note": 72, "velocity": 94, "channel": 0}, {"type": "note_off", "time": 125, "note": 72, "velocity": 94, "channel": 0}, {"type": "note_on", "time": 133, "note": 72, "velocity": 99, "channel": 0}, {"type": "note_off", "time": 197, "note": 72, "velocity": 99, "channel": 0}, {"type": "note_on", "time": 111, "note": 72, "velocity": 100, "channel": 0}, {"type": "note_off", "time": 180, "note": 72, "velocity": 100, "channel": 0}, {"type": "note_on", "time": 86, "note": 72, "velocity": 86, "channel": 0}, {"type": "note_off", "time": 130, "note": 72, "velocity": 86, "channel": 0}, {"type": "note_on", "time": 86, "note": 72, "velocity": 103, "channel": 0}, {"type": "note_off", "time": 211, "note": 72, "velocity": 103, "channel": 0}, {"type": "note_on", "time": 38, "note": 72, "velocity": 104, "channel": 0}, {"type": "note_off", "time": 189, "note": 72, "velocity": 104, "channel": 0}, {"type": "note_on", "time": 616, "note": 72, "velocity": 102, "channel": 0}, {"type": "note_off", "time": 739, "note": 72, "velocity": 102, "channel": 0}, {"type": "note_on", "time": 129, "note": 75, "velocity": 88, "channel": 0}, {"type": "note_off", "time": 336, "note": 75, "velocity": 88, "channel": 0}, {"type": "note_on", "time": 512, "note": 77, "velocity": 112, "channel": 0}, {"type": "note_off", "time": 1248, "note": 77, "velocity": 112, "channel": 0}, {"type": "note_on", "time": 148, "note": 75, "velocity": 96, "channel": 0}, {"type": "note_off", "time": 281, "note": 75, "velocity": 96, "channel": 0}, {"type": "note_on", "time": 138, "note": 77, "velocity": 84, "channel": 0}, {"type": "note_off", "time": 86, "note": 77, "velocity": 84, "channel": 0}, {"type": "note_on", "time": 11, "note": 78, "velocity": 78, "channel": 0}, {"type": "note_off", "time": 99, "note": 78, "velocity": 78, "channel": 0}, {"type": "note_on", "time": 17, "note": 77, "velocity": 101, "channel": 0}, {"type": "note_off", "time": 125, "note": 77, "velocity": 101, "channel": 0}, {"type": "note_on", "time": 56, "note": 75, "velocity": 103, "channel": 0}, {"type": "note_off", "time": 228, "note": 75, "velocity": 103, "channel": 0}, {"type": "note_on", "time": 84, "note": 74, "velocity": 97, "channel": 0}, {"type": "note_off", "time": 207, "note": 74, "velocity": 97, "channel": 0}, {"type": "note_on", "time": 351, "note": 72, "velocity": 102, "channel": 0}, {"type": "note_off", "time": 197, "note": 72, "velocity": 102, "channel": 0}, {"type": "note_on", "time": 169, "note": 72, "velocity": 99, "channel": 0}, {"type": "note_off", "time": 662, "note": 72, "velocity": 99, "channel": 0}, {"type": "note_on", "time": 128, "note": 70, "velocity": 97, "channel": 0}, {"type": "note_off", "time": 375, "note": 70, "velocity": 97, "channel": 0}, {"type": "note_on", "time": 484, "note": 72, "velocity": 102, "channel": 0}, {"type": "note_off", "time": 475, "note": 72, "velocity": 102, "channel": 0}, {"type": "note_on", "time": 100, "note": 75, "velocity": 93, "channel": 0}, {"type": "note_off", "time": 595, "note": 75, "velocity": 93, "channel": 0}, {"type": "note_on", "time": 475, "note": 77, "velocity": 115, "channel": 0}, {"type": "note_off", "time": 1096, "note": 77, "velocity": 115, "channel": 0}, {"type": "note_on", "time": 264, "note": 75, "velocity": 92, "channel": 0}, {"type": "note_off", "time": 153, "note": 75, "velocity": 92, "channel": 0}, {"type": "note_on", "time": 55, "note": 77, "velocity": 102, "channel": 0}, {"type": "note_off", "time": 130, "note": 77, "velocity": 102, "channel": 0}, {"type": "note_on", "time": 66, "note": 80, "velocity": 105, "channel": 0}, {"type": "note_off", "time": 158, "note": 80, "velocity": 105, "channel": 0}, {"type": "note_on", "time": 38, "note": 77, "velocity": 97, "channel": 0}, {"type": "note_off", "time": 169, "note": 77, "velocity": 97, "channel": 0}, {"type": "note_on", "time": 55, "note": 75, "velocity": 94, "channel": 0}, {"type": "note_off", "time": 275, "note": 75, "velocity": 94, "channel": 0}, {"type": "note_on", "time": 77, "note": 72, "velocity": 86, "channel": 0}, {"type": "note_off", "time": 342, "note": 72, "velocity": 86, "channel": 0}, {"type": "note_on", "time": 311, "note": 72, "velocity": 99, "channel": 0}, {"type": "note_off", "time": 350, "note": 72, "velocity": 99, "channel": 0}, {"type": "note_on", "time": 364, "note": 72, "velocity": 90, "channel": 0}, {"type": "note_off", "time": 250, "note": 72, "velocity": 90, "channel": 0}, {"type": "note_on", "time": 52, "note": 75, "velocity": 105, "channel": 0}, {"type": "note_off", "time": 286, "note": 75, "velocity": 105, "channel": 0}, {"type": "note_on", "time": 175, "note": 76, "velocity": 99, "channel": 0}, {"type": "note_off", "time": 97, "note": 76, "velocity": 99, "channel": 0}, {"type": "note_on", "time": 75, "note": 77, "velocity": 111, "channel": 0}, {"type": "note_off", "time": 267, "note": 77, "velocity": 111, "channel": 0}, {"type": "note_on", "time": 375, "note": 76, "velocity": 97, "channel": 0}, {"type": "note_off", "time": 108, "note": 76, "velocity": 97, "channel": 0}, {"type": "note_on", "time": 25, "note": 77, "velocity": 113, "channel": 0}, {"type": "note_off", "time": 250, "note": 77, "velocity": 113, "channel": 0}, {"type": "note_on", "time": 311, "note": 76, "velocity": 98, "channel": 0}, {"type": "note_off", "time": 130, "note": 76, "velocity": 98, "channel": 0}, {"type": "note_on", "time": 13, "note": 77, "velocity": 96, "channel": 0}, {"type": "note_off", "time": 264, "note": 77, "velocity": 96, "channel": 0}, {"type": "note_on", "time": 133, "note": 76, "velocity": 98, "channel": 0}, {"type": "note_off", "time": 119, "note": 76, "velocity": 98, "channel": 0}, {"type": "note_on", "time": 36, "note": 77, "velocity": 94, "channel": 0}, {"type": "note_off", "time": 258, "note": 77, "velocity": 94, "channel": 0}, {"type": "note_on", "time": 13, "note": 75, "velocity": 89, "channel": 0}, {"type": "note_off", "time": 83, "note": 75, "velocity": 89, "channel": 0}, {"type": "note_on", "time": 50, "note": 72, "velocity": 96, "channel": 0}, {"type": "note_off", "time": 130, "note": 72, "velocity": 96, "channel": 0}, {"type": "note_on", "time": 38, "note": 70, "velocity": 101, "channel": 0}, {"type": "note_off", "time": 150, "note": 70, "velocity": 101, "channel": 0}, {"type": "note_on", "time": 459, "note": 72, "velocity": 103, "channel": 0}, {"type": "note_off", "time": 183, "note": 72, "velocity": 103, "channel": 0}, {"type": "note_on", "time": 58, "note": 72, "velocity": 97, "channel": 0}, {"type": "note_off", "time": 269, "note": 72, "velocity": 97, "channel": 0}, {"type": "note_on", "time": 150, "note": 67, "velocity": 91, "channel": 0}, {"type": "note_off", "time": 183, "note": 67, "velocity": 91, "channel": 0}, {"type": "note_on", "time": 50, "note": 65, "velocity": 93, "channel": 0}, {"type": "note_off", "time": 189, "note": 65, "velocity": 93, "channel": 0}, {"type": "note_on", "time": 97, "note": 63, "velocity": 89, "channel": 0}, {"type": "note_off", "time": 539, "note": 63, "velocity": 89, "channel": 0}, {"type": "note_on", "time": 47, "note": 60, "velocity": 74, "channel": 0}, {"type": "note_off", "time": 125, "note": 60, "velocity": 74, "channel": 0}, {"type": "note_on", "time": 222, "note": 63, "velocity": 79, "channel": 0}, {"type": "note_off", "time": 211, "note": 63, "velocity": 79, "channel": 0}, {"type": "note_on", "time": 153, "note": 65, "velocity": 94, "channel": 0}, {"type": "note_off", "time": 236, "note": 65, "velocity": 94, "channel": 0}, {"type": "note_on", "time": 128, "note": 66, "velocity": 86, "channel": 0}, {"type": "note_off", "time": 75, "note": 66, "velocity": 86, "channel": 0}, {"type": "note_on", "time": 13, "note": 67, "velocity": 73, "channel": 0}, {"type": "note_off", "time": 258, "note": 67, "velocity": 73, "channel": 0}, {"type": "note_on", "time": 144, "note": 65, "velocity": 88, "channel": 0}, {"type": "note_off", "time": 219, "note": 65, "velocity": 88, "channel": 0}, {"type": "note_on", "time": 125, "note": 63, "velocity": 98, "channel": 0}, {"type": "note_off", "time": 350, "note": 63, "velocity": 98, "channel": 0}, {"type": "note_on", "time": 144, "note": 60, "velocity": 94, "channel": 0}, {"type": "note_off", "time": 272, "note": 60, "velocity": 94, "channel": 0}, {"type": "note_on", "time": 111, "note": 63, "velocity": 107, "channel": 0}, {"type": "note_off", "time": 303, "note": 63, "velocity": 107, "channel": 0}, {"type": "note_on", "time": 506, "note": 60, "velocity": 97, "channel": 0}, {"type": "note_off", "time": 317, "note": 60, "velocity": 97, "channel": 0}, {"type": "note_on", "time": 300, "note": 62, "velocity": 107, "channel": 0}, {"type": "note_off", "time": 517, "note": 62, "velocity": 107, "channel": 0}, {"type": "note_on", "time": 2279, "note": 73, "velocity": 86, "channel": 0}, {"type": "note_off", "time": 164, "note": 73, "velocity": 86, "channel": 0}, {"type": "note_on", "time": 41, "note": 74, "velocity": 94, "channel": 0}, {"type": "note_off", "time": 172, "note": 74, "velocity": 94, "channel": 0}, {"type": "note_on", "time": 61, "note": 74, "velocity": 83, "channel": 0}, {"type": "note_off", "time": 158, "note": 74, "velocity": 83, "channel": 0}, {"type": "note_on", "time": 94, "note": 74, "velocity": 96, "channel": 0}, {"type": "note_off", "time": 342, "note": 74, "velocity": 96, "channel": 0}, {"type": "note_on", "time": 456, "note": 74, "velocity": 98, "channel": 0}, {"type": "note_off", "time": 571, "note": 74, "velocity": 98, "channel": 0}, {"type": "note_on", "time": 356, "note": 72, "velocity": 95, "channel": 0}, {"type": "note_off", "time": 340, "note": 72, "velocity": 95, "channel": 0}, {"type": "note_on", "time": 133, "note": 69, "velocity": 88, "channel": 0}, {"type": "note_off", "time": 277, "note": 69, "velocity": 88, "channel": 0}, {"type": "note_on", "time": 109, "note": 65, "velocity": 88, "channel": 0}, {"type": "note_off", "time": 450, "note": 65, "velocity": 88, "channel": 0}, {"type": "note_on", "time": 62, "note": 69, "velocity": 81, "channel": 0}, {"type": "note_off", "time": 215, "note": 69, "velocity": 81, "channel": 0}, {"type": "note_on", "time": 78, "note": 72, "velocity": 101, "channel": 0}, {"type": "note_off", "time": 367, "note": 72, "velocity": 101, "channel": 0}, {"type": "note_on", "time": 215, "note": 74, "velocity": 85, "channel": 0}, {"type": "note_off", "time": 461, "note": 74, "velocity": 85, "channel": 0}, {"type": "note_on", "time": 414, "note": 74, "velocity": 86, "channel": 0}, {"type": "note_off", "time": 242, "note": 74, "velocity": 86, "channel": 0}, {"type": "note_on", "time": 544, "note": 74, "velocity": 80, "channel": 0}, {"type": "note_off", "time": 152, "note": 74, "velocity": 80, "channel": 0}, {"type": "note_on", "time": 39, "note": 75, "velocity": 103, "channel": 0}, {"type": "note_off", "time": 203, "note": 75, "velocity": 103, "channel": 0}, {"type": "note_on", "time": 11, "note": 76, "velocity": 95, "channel": 0}, {"type": "note_off", "time": 215, "note": 76, "velocity": 95, "channel": 0}, {"type": "note_on", "time": 172, "note": 74, "velocity": 81, "channel": 0}, {"type": "note_off", "time": 230, "note": 74, "velocity": 81, "channel": 0}, {"type": "note_on", "time": 105, "note": 72, "velocity": 102, "channel": 0}, {"type": "note_off", "time": 234, "note": 72, "velocity": 102, "channel": 0}, {"type": "note_on", "time": 49, "note": 69, "velocity": 67, "channel": 0}, {"type": "note_off", "time": 169, "note": 69, "velocity": 67, "channel": 0}, {"type": "note_on", "time": 66, "note": 68, "velocity": 100, "channel": 0}, {"type": "note_off", "time": 244, "note": 68, "velocity": 100, "channel": 0}, {"type": "note_on", "time": 91, "note": 67, "velocity": 97, "channel": 0}, {"type": "note_off", "time": 384, "note": 67, "velocity": 97, "channel": 0}, {"type": "note_on", "time": 116, "note": 63, "velocity": 108, "channel": 0}, {"type": "note_off", "time": 261, "note": 63, "velocity": 108, "channel": 0}, {"type": "note_on", "time": 55, "note": 65, "velocity": 96, "channel": 0}, {"type": "note_off", "time": 364, "note": 65, "velocity": 96, "channel": 0}, {"type": "note_on", "time": 114, "note": 62, "velocity": 88, "channel": 0}, {"type": "note_off", "time": 264, "note": 62, "velocity": 88, "channel": 0}, {"type": "note_on", "time": 105, "note": 63, "velocity": 103, "channel": 0}, {"type": "note_off", "time": 434, "note": 63, "velocity": 103, "channel": 0}, {"type": "note_on", "time": 66, "note": 60, "velocity": 97, "channel": 0}, {"type": "note_off", "time": 264, "note": 60, "velocity": 97, "channel": 0}, {"type": "note_on", "time": 41, "note": 60, "velocity": 98, "channel": 0}, {"type": "note_off", "time": 384, "note": 60, "velocity": 98, "channel": 0}, {"type": "note_on", "time": 539, "note": 67, "velocity": 108, "channel": 0}, {"type": "note_off", "time": 244, "note": 67, "velocity": 108, "channel": 0}, {"type": "note_on", "time": 50, "note": 68, "velocity": 101, "channel": 0}, {"type": "note_off", "time": 105, "note": 68, "velocity": 101, "channel": 0}, {"type": "note_on", "time": 30, "note": 69, "velocity": 91, "channel": 0}, {"type": "note_off", "time": 144, "note": 69, "velocity": 91, "channel": 0}, {"type": "note_on", "time": 97, "note": 66, "velocity": 108, "channel": 0}, {"type": "note_off", "time": 214, "note": 66, "velocity": 108, "channel": 0}, {"type": "note_on", "time": 38, "note": 67, "velocity": 95, "channel": 0}, {"type": "note_off", "time": 183, "note": 67, "velocity": 95, "channel": 0}, {"type": "note_on", "time": 58, "note": 70, "velocity": 114, "channel": 0}, {"type": "note_off", "time": 306, "note": 70, "velocity": 114, "channel": 0}, {"type": "note_on", "time": 66, "note": 70, "velocity": 88, "channel": 0}, {"type": "note_off", "time": 331, "note": 70, "velocity": 88, "channel": 0}, {"type": "note_on", "time": 111, "note": 68, "velocity": 96, "channel": 0}, {"type": "note_off", "time": 336, "note": 68, "velocity": 96, "channel": 0}, {"type": "note_on", "time": 52, "note": 63, "velocity": 107, "channel": 0}, {"type": "note_off", "time": 122, "note": 63, "velocity": 107, "channel": 0}, {"type": "note_on", "time": 27, "note": 65, "velocity": 87, "channel": 0}, {"type": "note_off", "time": 161, "note": 65, "velocity": 87, "channel": 0}, {"type": "note_on", "time": 217, "note": 67, "velocity": 92, "channel": 0}, {"type": "note_off", "time": 267, "note": 67, "velocity": 92, "channel": 0}, {"type": "note_on", "time": 1082, "note": 62, "velocity": 103, "channel": 0}, {"type": "note_off", "time": 105, "note": 62, "velocity": 103, "channel": 0}, {"type": "note_on", "time": 19, "note": 65, "velocity": 94, "channel": 0}, {"type": "note_off", "time": 116, "note": 65, "velocity": 94, "channel": 0}, {"type": "note_on", "time": 61, "note": 70, "velocity": 110, "channel": 0}, {"type": "note_off", "time": 119, "note": 70, "velocity": 110, "channel": 0}, {"type": "note_on", "time": 75, "note": 74, "velocity": 95, "channel": 0}, {"type": "note_off", "time": 139, "note": 74, "velocity": 95, "channel": 0}, {"type": "note_on", "time": 153, "note": 71, "velocity": 107, "channel": 0}, {"type": "note_off", "time": 61, "note": 71, "velocity": 107, "channel": 0}, {"type": "note_on", "time": 13, "note": 72, "velocity": 89, "channel": 0}, {"type": "note_off", "time": 180, "note": 72, "velocity": 89, "channel": 0}, {"type": "note_on", "time": 219, "note": 72, "velocity": 115, "channel": 0}, {"type": "note_off", "time": 256, "note": 72, "velocity": 115, "channel": 0}, {"type": "note_on", "time": 89, "note": 67, "velocity": 85, "channel": 0}, {"type": "note_off", "time": 300, "note": 67, "velocity": 85, "channel": 0}, {"type": "note_on", "time": 954, "note": 63, "velocity": 100, "channel": 0}, {"type": "note_off", "time": 292, "note": 63, "velocity": 100, "channel": 0}, {"type": "note_on", "time": 77, "note": 67, "velocity": 92, "channel": 0}, {"type": "note_off", "time": 336, "note": 67, "velocity": 92, "channel": 0}, {"type": "note_on", "time": 94, "note": 63, "velocity": 98, "channel": 0}, {"type": "note_off", "time": 328, "note": 63, "velocity": 98, "channel": 0}, {"type": "note_on", "time": 38, "note": 62, "velocity": 105, "channel": 0}, {"type": "note_off", "time": 264, "note": 62, "velocity": 105, "channel": 0}, {"type": "note_on", "time": 222, "note": 60, "velocity": 88, "channel": 0}, {"type": "note_off", "time": 231, "note": 60, "velocity": 88, "channel": 0}, {"type": "note_on", "time": 155, "note": 59, "velocity": 93, "channel": 0}, {"type": "note_off", "time": 370, "note": 59, "velocity": 93, "channel": 0}, {"type": "note_on", "time": 456, "note": 62, "velocity": 99, "channel": 0}, {"type": "note_off", "time": 414, "note": 62, "velocity": 99, "channel": 0}, {"type": "note_on", "time": 963, "note": 62, "velocity": 80, "channel": 0}, {"type": "note_off", "time": 139, "note": 62, "velocity": 80, "channel": 0}, {"type": "note_on", "time": 153, "note": 63, "velocity": 101, "channel": 0}, {"type": "note_off", "time": 278, "note": 63, "velocity": 101, "channel": 0}, {"type": "note_on", "time": 292, "note": 67, "velocity": 84, "channel": 0}, {"type": "note_off", "time": 161, "note": 67, "velocity": 84, "channel": 0}, {"type": "note_on", "time": 3125, "note": 65, "velocity": 104, "channel": 0}, {"type": "note_off", "time": 69, "note": 65, "velocity": 104, "channel": 0}, {"type": "note_on", "time": 25, "note": 62, "velocity": 83, "channel": 0}, {"type": "note_off", "time": 200, "note": 62, "velocity": 83, "channel": 0}, {"type": "note_on", "time": 122, "note": 70, "velocity": 97, "channel": 0}, {"type": "note_off", "time": 208, "note": 70, "velocity": 97, "channel": 0}, {"type": "note_on", "time": 30, "note": 72, "velocity": 96, "channel": 0}, {"type": "note_off", "time": 197, "note": 72, "velocity": 96, "channel": 0}, {"type": "note_on", "time": 66, "note": 74, "velocity": 77, "channel": 0}, {"type": "note_off", "time": 180, "note": 74, "velocity": 77, "channel": 0}, {"type": "note_on", "time": 50, "note": 75, "velocity": 95, "channel": 0}, {"type": "note_off", "time": 275, "note": 75, "velocity": 95, "channel": 0}, {"type": "note_on", "time": 41, "note": 74, "velocity": 81, "channel": 0}, {"type": "note_off", "time": 155, "note": 74, "velocity": 81, "channel": 0}, {"type": "note_on", "time": 66, "note": 73, "velocity": 102, "channel": 0}, {"type": "note_off", "time": 197, "note": 73, "velocity": 102, "channel": 0}, {"type": "note_on", "time": 52, "note": 70, "velocity": 99, "channel": 0}, {"type": "note_off", "time": 295, "note": 70, "velocity": 99, "channel": 0}, {"type": "note_on", "time": 631, "note": 70, "velocity": 96, "channel": 0}, {"type": "note_off", "time": 395, "note": 70, "velocity": 96, "channel": 0}, {"type": "note_on", "time": 233, "note": 62, "velocity": 102, "channel": 0}, {"type": "note_off", "time": 144, "note": 62, "velocity": 102, "channel": 0}, {"type": "note_on", "time": 33, "note": 61, "velocity": 76, "channel": 0}, {"type": "note_off", "time": 158, "note": 61, "velocity": 76, "channel": 0}, {"type": "note_on", "time": 72, "note": 63, "velocity": 93, "channel": 0}, {"type": "note_off", "time": 172, "note": 63, "velocity": 93, "channel": 0}, {"type": "note_on", "time": 100, "note": 68, "velocity": 106, "channel": 0}, {"type": "note_off", "time": 314, "note": 68, "velocity": 106, "channel": 0}, {"type": "note_on", "time": 58, "note": 66, "velocity": 95, "channel": 0}, {"type": "note_off", "time": 194, "note": 66, "velocity": 95, "channel": 0}, {"type": "note_on", "time": 11, "note": 67, "velocity": 93, "channel": 0}, {"type": "note_off", "time": 236, "note": 67, "velocity": 93, "channel": 0}, {"type": "note_on", "time": 164, "note": 70, "velocity": 86, "channel": 0}, {"type": "note_off", "time": 139, "note": 70, "velocity": 86, "channel": 0}, {"type": "note_on", "time": 83, "note": 72, "velocity": 110, "channel": 0}, {"type": "note_off", "time": 306, "note": 72, "velocity": 110, "channel": 0}, {"type": "note_on", "time": 233, "note": 70, "velocity": 114, "channel": 0}, {"type": "note_off", "time": 303, "note": 70, "velocity": 114, "channel": 0}, {"type": "note_on", "time": 506, "note": 66, "velocity": 101, "channel": 0}, {"type": "note_off", "time": 203, "note": 66, "velocity": 101, "channel": 0}, {"type": "note_on", "time": 19, "note": 67, "velocity": 105, "channel": 0}, {"type": "note_off", "time": 175, "note": 67, "velocity": 105, "channel": 0}, {"type": "note_on", "time": 38, "note": 65, "velocity": 92, "channel": 0}, {"type": "note_off", "time": 172, "note": 65, "velocity": 92, "channel": 0}, {"type": "note_on", "time": 72, "note": 63, "velocity": 98, "channel": 0}, {"type": "note_off", "time": 250, "note": 63, "velocity": 98, "channel": 0}, {"type": "note_on", "time": 27, "note": 62, "velocity": 99, "channel": 0}, {"type": "note_off", "time": 161, "note": 62, "velocity": 99, "channel": 0}, {"type": "note_on", "time": 80, "note": 64, "velocity": 84, "channel": 0}, {"type": "note_off", "time": 192, "note": 64, "velocity": 84, "channel": 0}, {"type": "note_on", "time": 286, "note": 67, "velocity": 100, "channel": 0}, {"type": "note_off", "time": 91, "note": 67, "velocity": 100, "channel": 0}, {"type": "note_on", "time": 58, "note": 67, "velocity": 89, "channel": 0}, {"type": "note_off", "time": 83, "note": 67, "velocity": 89, "channel": 0}, {"type": "note_on", "time": 108, "note": 61, "velocity": 105, "channel": 0}, {"type": "note_off", "time": 222, "note": 61, "velocity": 105, "channel": 0}, {"type": "note_on", "time": 317, "note": 59, "velocity": 91, "channel": 0}, {"type": "note_off", "time": 208, "note": 59, "velocity": 91, "channel": 0}, {"type": "note_on", "time": 108, "note": 58, "velocity": 71, "channel": 0}, {"type": "note_off", "time": 407, "note": 58, "velocity": 71, "channel": 0}, {"type": "note_on", "time": 205, "note": 72, "velocity": 97, "channel": 0}, {"type": "note_off", "time": 3473, "note": 72, "velocity": 97, "channel": 0}, {"type": "note_on", "time": 439, "note": 70, "velocity": 99, "channel": 0}, {"type": "note_off", "time": 133, "note": 70, "velocity": 99, "channel": 0}, {"type": "note_on", "time": 19, "note": 68, "velocity": 90, "channel": 0}, {"type": "note_off", "time": 167, "note": 68, "velocity": 90, "channel": 0}, {"type": "note_on", "time": 50, "note": 65, "velocity": 100, "channel": 0}, {"type": "note_off", "time": 208, "note": 65, "velocity": 100, "channel": 0}, {"type": "note_on", "time": 33, "note": 60, "velocity": 99, "channel": 0}, {"type": "note_off", "time": 292, "note": 60, "velocity": 99, "channel": 0}, {"type": "note_on", "time": 36, "note": 62, "velocity": 88, "channel": 0}, {"type": "note_off", "time": 133, "note": 62, "velocity": 88, "channel": 0}, {"type": "note_on", "time": 27, "note": 65, "velocity": 90, "channel": 0}, {"type": "note_off", "time": 136, "note": 65, "velocity": 90, "channel": 0}, {"type": "note_on", "time": 47, "note": 68, "velocity": 91, "channel": 0}, {"type": "note_off", "time": 300, "note": 68, "velocity": 91, "channel": 0}, {"type": "note_on", "time": 66, "note": 68, "velocity": 99, "channel": 0}, {"type": "note_off", "time": 192, "note": 68, "velocity": 99, "channel": 0}, {"type": "note_on", "time": 38, "note": 67, "velocity": 89, "channel": 0}, {"type": "note_off", "time": 130, "note": 67, "velocity": 89, "channel": 0}, {"type": "note_on", "time": 72, "note": 65, "velocity": 85, "channel": 0}, {"type": "note_off", "time": 161, "note": 65, "velocity": 85, "channel": 0}, {"type": "note_on", "time": 13, "note": 67, "velocity": 85, "channel": 0}, {"type": "note_off", "time": 139, "note": 67, "velocity": 85, "channel": 0}, {"type": "note_on", "time": 44, "note": 68, "velocity": 91, "channel": 0}, {"type": "note_off", "time": 211, "note": 68, "velocity": 91, "channel": 0}, {"type": "note_on", "time": 47, "note": 70, "velocity": 81, "channel": 0}, {"type": "note_off", "time": 136, "note": 70, "velocity": 81, "channel": 0}, {"type": "note_on", "time": 44, "note": 71, "velocity": 97, "channel": 0}, {"type": "note_off", "time": 183, "note": 71, "velocity": 97, "channel": 0}, {"type": "note_on", "time": 119, "note": 72, "velocity": 104, "channel": 0}, {"type": "note_off", "time": 256, "note": 72, "velocity": 104, "channel": 0}, {"type": "note_on", "time": 38, "note": 72, "velocity": 101, "channel": 0}, {"type": "note_off", "time": 167, "note": 72, "velocity": 101, "channel": 0}, {"type": "note_on", "time": 16, "note": 73, "velocity": 91, "channel": 0}, {"type": "note_off", "time": 128, "note": 73, "velocity": 91, "channel": 0}, {"type": "note_on", "time": 47, "note": 75, "velocity": 81, "channel": 0}, {"type": "note_off", "time": 289, "note": 75, "velocity": 81, "channel": 0}, {"type": "note_on", "time": 108, "note": 75, "velocity": 105, "channel": 0}, {"type": "note_off", "time": 136, "note": 75, "velocity": 105, "channel": 0}, {"type": "note_on", "time": 50, "note": 77, "velocity": 111, "channel": 0}, {"type": "note_off", "time": 175, "note": 77, "velocity": 111, "channel": 0}, {"type": "note_on", "time": 58, "note": 78, "velocity": 107, "channel": 0}, {"type": "note_off", "time": 308, "note": 78, "velocity": 107, "channel": 0}, {"type": "note_on", "time": 80, "note": 78, "velocity": 105, "channel": 0}, {"type": "note_off", "time": 150, "note": 78, "velocity": 105, "channel": 0}, {"type": "note_on", "time": 33, "note": 77, "velocity": 105, "channel": 0}, {"type": "note_off", "time": 130, "note": 77, "velocity": 105, "channel": 0}, {"type": "note_on", "time": 66, "note": 75, "velocity": 93, "channel": 0}, {"type": "note_off", "time": 205, "note": 75, "velocity": 93, "channel": 0}, {"type": "note_on", "time": 136, "note": 72, "velocity": 86, "channel": 0}, {"type": "note_off", "time": 153, "note": 72, "velocity": 86, "channel": 0}, {"type": "note_on", "time": 47, "note": 74, "velocity": 81, "channel": 0}, {"type": "note_off", "time": 153, "note": 74, "velocity": 81, "channel": 0}, {"type": "note_on", "time": 69, "note": 75, "velocity": 85, "channel": 0}, {"type": "note_off", "time": 169, "note": 75, "velocity": 85, "channel": 0}, {"type": "note_on", "time": 55, "note": 77, "velocity": 108, "channel": 0}, {"type": "note_off", "time": 167, "note": 77, "velocity": 108, "channel": 0}, {"type": "note_on", "time": 33, "note": 75, "velocity": 99, "channel": 0}, {"type": "note_off", "time": 180, "note": 75, "velocity": 99, "channel": 0}, {"type": "note_on", "time": 89, "note": 73, "velocity": 74, "channel": 0}, {"type": "note_off", "time": 172, "note": 73, "velocity": 74, "channel": 0}, {"type": "note_on", "time": 27, "note": 74, "velocity": 95, "channel": 0}, {"type": "note_off", "time": 267, "note": 74, "velocity": 95, "channel": 0}, {"type": "note_on", "time": 670, "note": 75, "velocity": 81, "channel": 0}, {"type": "note_off", "time": 130, "note": 75, "velocity": 81, "channel": 0}, {"type": "note_on", "time": 19, "note": 76, "velocity": 100, "channel": 0}, {"type": "note_off", "time": 125, "note": 76, "velocity": 100, "channel": 0}, {"type": "note_on", "time": 25, "note": 77, "velocity": 114, "channel": 0}, {"type": "note_off", "time": 155, "note": 77, "velocity": 114, "channel": 0}, {"type": "note_on", "time": 47, "note": 79, "velocity": 104, "channel": 0}, {"type": "note_off", "time": 155, "note": 79, "velocity": 104, "channel": 0}, {"type": "note_on", "time": 41, "note": 80, "velocity": 112, "channel": 0}, {"type": "note_off", "time": 175, "note": 80, "velocity": 112, "channel": 0}, {"type": "note_on", "time": 22, "note": 82, "velocity": 111, "channel": 0}, {"type": "note_off", "time": 153, "note": 82, "velocity": 111, "channel": 0}, {"type": "note_on", "time": 69, "note": 80, "velocity": 117, "channel": 0}, {"type": "note_off", "time": 161, "note": 80, "velocity": 117, "channel": 0}, {"type": "note_on", "time": 25, "note": 79, "velocity": 115, "channel": 0}, {"type": "note_off", "time": 178, "note": 79, "velocity": 115, "channel": 0}, {"type": "note_on", "time": 38, "note": 77, "velocity": 106, "channel": 0}, {"type": "note_off", "time": 141, "note": 77, "velocity": 106, "channel": 0}, {"type": "note_on", "time": 44, "note": 79, "velocity": 111, "channel": 0}, {"type": "note_off", "time": 189, "note": 79, "velocity": 111, "channel": 0}, {"type": "note_on", "time": 44, "note": 77, "velocity": 104, "channel": 0}, {"type": "note_off", "time": 161, "note": 77, "velocity": 104, "channel": 0}, {"type": "note_on", "time": 47, "note": 75, "velocity": 90, "channel": 0}, {"type": "note_off", "time": 267, "note": 75, "velocity": 90, "channel": 0}, {"type": "note_on", "time": 44, "note": 74, "velocity": 96, "channel": 0}, {"type": "note_off", "time": 141, "note": 74, "velocity": 96, "channel": 0}, {"type": "note_on", "time": 16, "note": 75, "velocity": 90, "channel": 0}, {"type": "note_off", "time": 200, "note": 75, "velocity": 90, "channel": 0}, {"type": "note_on", "time": 44, "note": 74, "velocity": 96, "channel": 0}, {"type": "note_off", "time": 136, "note": 74, "velocity": 96, "channel": 0}, {"type": "note_on", "time": 16, "note": 72, "velocity": 91, "channel": 0}, {"type": "note_off", "time": 139, "note": 72, "velocity": 91, "channel": 0}, {"type": "note_on", "time": 25, "note": 71, "velocity": 95, "channel": 0}, {"type": "note_off", "time": 183, "note": 71, "velocity": 95, "channel": 0}, {"type": "note_on", "time": 38, "note": 70, "velocity": 111, "channel": 0}, {"type": "note_off", "time": 233, "note": 70, "velocity": 111, "channel": 0}, {"type": "note_on", "time": 19, "note": 69, "velocity": 87, "channel": 0}, {"type": "note_off", "time": 150, "note": 69, "velocity": 87, "channel": 0}, {"type": "note_on", "time": 44, "note": 68, "velocity": 99, "channel": 0}, {"type": "note_off", "time": 172, "note": 68, "velocity": 99, "channel": 0}, {"type": "note_on", "time": 38, "note": 65, "velocity": 94, "channel": 0}, {"type": "note_off", "time": 144, "note": 65, "velocity": 94, "channel": 0}, {"type": "note_on", "time": 38, "note": 67, "velocity": 93, "channel": 0}, {"type": "note_off", "time": 158, "note": 67, "velocity": 93, "channel": 0}, {"type": "note_on", "time": 50, "note": 68, "velocity": 101, "channel": 0}, {"type": "note_off", "time": 175, "note": 68, "velocity": 101, "channel": 0}, {"type": "note_on", "time": 27, "note": 70, "velocity": 101, "channel": 0}, {"type": "note_off", "time": 228, "note": 70, "velocity": 101, "channel": 0}, {"type": "note_on", "time": 19, "note": 68, "velocity": 98, "channel": 0}, {"type": "note_off", "time": 89, "note": 68, "velocity": 98, "channel": 0}, {"type": "note_on", "time": 41, "note": 75, "velocity": 114, "channel": 0}, {"type": "note_off", "time": 231, "note": 75, "velocity": 114, "channel": 0}, {"type": "note_on", "time": 52, "note": 71, "velocity": 75, "channel": 0}, {"type": "note_off", "time": 141, "note": 71, "velocity": 75, "channel": 0}, {"type": "note_on", "time": 30, "note": 72, "velocity": 98, "channel": 0}, {"type": "note_off", "time": 219, "note": 72, "velocity": 98, "channel": 0}, {"type": "note_on", "time": 36, "note": 74, "velocity": 90, "channel": 0}, {"type": "note_off", "time": 183, "note": 74, "velocity": 90, "channel": 0}, {"type": "note_on", "time": 41, "note": 71, "velocity": 87, "channel": 0}, {"type": "note_off", "time": 208, "note": 71, "velocity": 87, "channel": 0}, {"type": "note_on", "time": 36, "note": 72, "velocity": 95, "channel": 0}, {"type": "note_off", "time": 147, "note": 72, "velocity": 95, "channel": 0}, {"type": "note_on", "time": 41, "note": 73, "velocity": 92, "channel": 0}, {"type": "note_off", "time": 178, "note": 73, "velocity": 92, "channel": 0}, {"type": "note_on", "time": 19, "note": 75, "velocity": 88, "channel": 0}, {"type": "note_off", "time": 130, "note": 75, "velocity": 88, "channel": 0}, {"type": "note_on", "time": 16, "note": 77, "velocity": 112, "channel": 0}, {"type": "note_off", "time": 153, "note": 77, "velocity": 112, "channel": 0}, {"type": "note_on", "time": 38, "note": 81, "velocity": 98, "channel": 0}, {"type": "note_off", "time": 167, "note": 81, "velocity": 98, "channel": 0}, {"type": "note_on", "time": 72, "note": 83, "velocity": 86, "channel": 0}, {"type": "note_off", "time": 130, "note": 83, "velocity": 86, "channel": 0}, {"type": "note_on", "time": 33, "note": 86, "velocity": 113, "channel": 0}, {"type": "note_off", "time": 347, "note": 86, "velocity": 113, "channel": 0}, {"type": "note_on", "time": 66, "note": 86, "velocity": 102, "channel": 0}, {"type": "note_off", "time": 194, "note": 86, "velocity": 102, "channel": 0}, {"type": "note_on", "time": 72, "note": 84, "velocity": 116, "channel": 0}, {"type": "note_off", "time": 264, "note": 84, "velocity": 116, "channel": 0}, {"type": "note_on", "time": 211, "note": 79, "velocity": 101, "channel": 0}, {"type": "note_off", "time": 141, "note": 79, "velocity": 101, "channel": 0}, {"type": "note_on", "time": 47, "note": 75, "velocity": 83, "channel": 0}, {"type": "note_off", "time": 275, "note": 75, "velocity": 83, "channel": 0}, {"type": "note_on", "time": 200, "note": 77, "velocity": 97, "channel": 0}, {"type": "note_off", "time": 464, "note": 77, "velocity": 97, "channel": 0}, {"type": "note_on", "time": 784, "note": 81, "velocity": 89, "channel": 0}, {"type": "note_off", "time": 102, "note": 81, "velocity": 89, "channel": 0}, {"type": "note_on", "time": 19, "note": 82, "velocity": 94, "channel": 0}, {"type": "note_off", "time": 94, "note": 82, "velocity": 94, "channel": 0}, {"type": "note_on", "time": 19, "note": 81, "velocity": 104, "channel": 0}, {"type": "note_off", "time": 125, "note": 81, "velocity": 104, "channel": 0}, {"type": "note_on", "time": 25, "note": 82, "velocity": 102, "channel": 0}, {"type": "note_off", "time": 155, "note": 82, "velocity": 102, "channel": 0}, {"type": "note_on", "time": 27, "note": 81, "velocity": 103, "channel": 0}, {"type": "note_off", "time": 175, "note": 81, "velocity": 103, "channel": 0}, {"type": "note_on", "time": 52, "note": 75, "velocity": 96, "channel": 0}, {"type": "note_off", "time": 186, "note": 75, "velocity": 96, "channel": 0}, {"type": "note_on", "time": 55, "note": 73, "velocity": 85, "channel": 0}, {"type": "note_off", "time": 133, "note": 73, "velocity": 85, "channel": 0}, {"type": "note_on", "time": 50, "note": 71, "velocity": 85, "channel": 0}, {"type": "note_off", "time": 116, "note": 71, "velocity": 85, "channel": 0}, {"type": "note_on", "time": 36, "note": 70, "velocity": 96, "channel": 0}, {"type": "note_off", "time": 219, "note": 70, "velocity": 96, "channel": 0}, {"type": "note_on", "time": 27, "note": 68, "velocity": 96, "channel": 0}, {"type": "note_off", "time": 186, "note": 68, "velocity": 96, "channel": 0}, {"type": "note_on", "time": 33, "note": 66, "velocity": 93, "channel": 0}, {"type": "note_off", "time": 150, "note": 66, "velocity": 93, "channel": 0}, {"type": "note_on", "time": 16, "note": 67, "velocity": 100, "channel": 0}, {"type": "note_off", "time": 192, "note": 67, "velocity": 100, "channel": 0}, {"type": "note_on", "time": 33, "note": 63, "velocity": 101, "channel": 0}, {"type": "note_off", "time": 214, "note": 63, "velocity": 101, "channel": 0}, {"type": "note_on", "time": 52, "note": 70, "velocity": 99, "channel": 0}, {"type": "note_off", "time": 111, "note": 70, "velocity": 99, "channel": 0}, {"type": "note_on", "time": 50, "note": 74, "velocity": 94, "channel": 0}, {"type": "note_off", "time": 130, "note": 74, "velocity": 94, "channel": 0}, {"type": "note_on", "time": 8, "note": 70, "velocity": 98, "channel": 0}, {"type": "note_off", "time": 136, "note": 70, "velocity": 98, "channel": 0}, {"type": "note_on", "time": 158, "note": 72, "velocity": 94, "channel": 0}, {"type": "note_off", "time": 175, "note": 72, "velocity": 94, "channel": 0}, {"type": "note_on", "time": 33, "note": 73, "velocity": 80, "channel": 0}, {"type": "note_off", "time": 172, "note": 73, "velocity": 80, "channel": 0}, {"type": "note_on", "time": 27, "note": 75, "velocity": 84, "channel": 0}, {"type": "note_off", "time": 130, "note": 75, "velocity": 84, "channel": 0}, {"type": "note_on", "time": 69, "note": 77, "velocity": 107, "channel": 0}, {"type": "note_off", "time": 139, "note": 77, "velocity": 107, "channel": 0}, {"type": "note_on", "time": 94, "note": 79, "velocity": 115, "channel": 0}, {"type": "note_off", "time": 161, "note": 79, "velocity": 115, "channel": 0}, {"type": "note_on", "time": 36, "note": 80, "velocity": 99, "channel": 0}, {"type": "note_off", "time": 169, "note": 80, "velocity": 99, "channel": 0}, {"type": "note_on", "time": 44, "note": 82, "velocity": 110, "channel": 0}, {"type": "note_off", "time": 233, "note": 82, "velocity": 110, "channel": 0}, {"type": "note_on", "time": 25, "note": 83, "velocity": 97, "channel": 0}, {"type": "note_off", "time": 175, "note": 83, "velocity": 97, "channel": 0}, {"type": "note_on", "time": 22, "note": 84, "velocity": 117, "channel": 0}, {"type": "note_off", "time": 239, "note": 84, "velocity": 117, "channel": 0}, {"type": "note_on", "time": 30, "note": 79, "velocity": 87, "channel": 0}, {"type": "note_off", "time": 289, "note": 79, "velocity": 87, "channel": 0}, {"type": "note_on", "time": 167, "note": 77, "velocity": 103, "channel": 0}, {"type": "note_off", "time": 417, "note": 77, "velocity": 103, "channel": 0}, {"type": "note_on", "time": 1722, "note": 75, "velocity": 95, "channel": 0}, {"type": "note_off", "time": 147, "note": 75, "velocity": 95, "channel": 0}, {"type": "note_on", "time": 114, "note": 84, "velocity": 127, "channel": 0}, {"type": "note_off", "time": 353, "note": 84, "velocity": 127, "channel": 0}, {"type": "note_on", "time": 272, "note": 86, "velocity": 121, "channel": 0}, {"type": "note_off", "time": 214, "note": 86, "velocity": 121, "channel": 0}, {"type": "note_on", "time": 13, "note": 87, "velocity": 100, "channel": 0}, {"type": "note_off", "time": 183, "note": 87, "velocity": 100, "channel": 0}, {"type": "note_on", "time": 33, "note": 86, "velocity": 94, "channel": 0}, {"type": "note_off", "time": 114, "note": 86, "velocity": 94, "channel": 0}, {"type": "note_on", "time": 33, "note": 84, "velocity": 114, "channel": 0}, {"type": "note_off", "time": 139, "note": 84, "velocity": 114, "channel": 0}, {"type": "note_on", "time": 19, "note": 86, "velocity": 109, "channel": 0}, {"type": "note_off", "time": 225, "note": 86, "velocity": 109, "channel": 0}, {"type": "note_on", "time": 125, "note": 84, "velocity": 108, "channel": 0}, {"type": "note_off", "time": 261, "note": 84, "velocity": 108, "channel": 0}, {"type": "note_on", "time": 203, "note": 82, "velocity": 104, "channel": 0}, {"type": "note_off", "time": 242, "note": 82, "velocity": 104, "channel": 0}, {"type": "note_on", "time": 192, "note": 79, "velocity": 110, "channel": 0}, {"type": "note_off", "time": 289, "note": 79, "velocity": 110, "channel": 0}, {"type": "note_on", "time": 58, "note": 78, "velocity": 85, "channel": 0}, {"type": "note_off", "time": 139, "note": 78, "velocity": 85, "channel": 0}, {"type": "note_on", "time": 66, "note": 77, "velocity": 108, "channel": 0}, {"type": "note_off", "time": 164, "note": 77, "velocity": 108, "channel": 0}, {"type": "note_on", "time": 50, "note": 75, "velocity": 92, "channel": 0}, {"type": "note_off", "time": 339, "note": 75, "velocity": 92, "channel": 0}, {"type": "note_on", "time": 144, "note": 72, "velocity": 95, "channel": 0}, {"type": "note_off", "time": 295, "note": 72, "velocity": 95, "channel": 0}, {"type": "note_on", "time": 108, "note": 70, "velocity": 97, "channel": 0}, {"type": "note_off", "time": 403, "note": 70, "velocity": 97, "channel": 0}, {"type": "note_on", "time": 102, "note": 67, "velocity": 95, "channel": 0}, {"type": "note_off", "time": 256, "note": 67, "velocity": 95, "channel": 0}, {"type": "note_on", "time": 8, "note": 69, "velocity": 90, "channel": 0}, {"type": "note_off", "time": 244, "note": 69, "velocity": 90, "channel": 0}, {"type": "note_on", "time": 38, "note": 72, "velocity": 87, "channel": 0}, {"type": "note_off", "time": 197, "note": 72, "velocity": 87, "channel": 0}, {"type": "note_on", "time": 91, "note": 74, "velocity": 92, "channel": 0}, {"type": "note_off", "time": 186, "note": 74, "velocity": 92, "channel": 0}, {"type": "note_on", "time": 66, "note": 75, "velocity": 109, "channel": 0}, {"type": "note_off", "time": 297, "note": 75, "velocity": 109, "channel": 0}, {"type": "note_on", "time": 289, "note": 77, "velocity": 117, "channel": 0}, {"type": "note_off", "time": 431, "note": 77, "velocity": 117, "channel": 0}, {"type": "note_on", "time": 1586, "note": 78, "velocity": 123, "channel": 0}, {"type": "note_off", "time": 155, "note": 78, "velocity": 123, "channel": 0}, {"type": "note_on", "time": 69, "note": 79, "velocity": 121, "channel": 0}, {"type": "note_off", "time": 167, "note": 79, "velocity": 121, "channel": 0}, {"type": "note_on", "time": 72, "note": 79, "velocity": 106, "channel": 0}, {"type": "note_off", "time": 197, "note": 79, "velocity": 106, "channel": 0}, {"type": "note_on", "time": 97, "note": 79, "velocity": 112, "channel": 0}, {"type": "note_off", "time": 133, "note": 79, "velocity": 112, "channel": 0}, {"type": "note_on", "time": 77, "note": 79, "velocity": 104, "channel": 0}, {"type": "note_off", "time": 169, "note": 79, "velocity": 104, "channel": 0}, {"type": "note_on", "time": 86, "note": 79, "velocity": 106, "channel": 0}, {"type": "note_off", "time": 247, "note": 79, "velocity": 106, "channel": 0}, {"type": "note_on", "time": 66, "note": 78, "velocity": 103, "channel": 0}, {"type": "note_off", "time": 292, "note": 78, "velocity": 103, "channel": 0}, {"type": "note_on", "time": 27, "note": 79, "velocity": 104, "channel": 0}, {"type": "note_off", "time": 172, "note": 79, "velocity": 104, "channel": 0}, {"type": "note_on", "time": 55, "note": 79, "velocity": 111, "channel": 0}, {"type": "note_off", "time": 219, "note": 79, "velocity": 111, "channel": 0}, {"type": "note_on", "time": 33, "note": 79, "velocity": 110, "channel": 0}, {"type": "note_off", "time": 228, "note": 79, "velocity": 110, "channel": 0}, {"type": "note_on", "time": 58, "note": 79, "velocity": 109, "channel": 0}, {"type": "note_off", "time": 225, "note": 79, "velocity": 109, "channel": 0}, {"type": "note_on", "time": 91, "note": 79, "velocity": 120, "channel": 0}, {"type": "note_off", "time": 233, "note": 79, "velocity": 120, "channel": 0}, {"type": "note_on", "time": 136, "note": 78, "velocity": 119, "channel": 0}, {"type": "note_off", "time": 253, "note": 78, "velocity": 119, "channel": 0}, {"type": "note_on", "time": 25, "note": 79, "velocity": 120, "channel": 0}, {"type": "note_off", "time": 180, "note": 79, "velocity": 120, "channel": 0}, {"type": "note_on", "time": 72, "note": 79, "velocity": 108, "channel": 0}, {"type": "note_off", "time": 247, "note": 79, "velocity": 108, "channel": 0}, {"type": "note_on", "time": 52, "note": 79, "velocity": 112, "channel": 0}, {"type": "note_off", "time": 225, "note": 79, "velocity": 112, "channel": 0}, {"type": "note_on", "time": 69, "note": 79, "velocity": 109, "channel": 0}, {"type": "note_off", "time": 189, "note": 79, "velocity": 109, "channel": 0}, {"type": "note_on", "time": 58, "note": 79, "velocity": 112, "channel": 0}, {"type": "note_off", "time": 219, "note": 79, "velocity": 112, "channel": 0}, {"type": "note_on", "time": 55, "note": 78, "velocity": 118, "channel": 0}, {"type": "note_off", "time": 233, "note": 78, "velocity": 118, "channel": 0}, {"type": "note_on", "time": 38, "note": 79, "velocity": 103, "channel": 0}, {"type": "note_off", "time": 242, "note": 79, "velocity": 103, "channel": 0}, {"type": "note_on", "time": 47, "note": 79, "velocity": 119, "channel": 0}, {"type": "note_off", "time": 197, "note": 79, "velocity": 119, "channel": 0}, {"type": "note_on", "time": 66, "note": 79, "velocity": 112, "channel": 0}, {"type": "note_off", "time": 178, "note": 79, "velocity": 112, "channel": 0}, {"type": "note_on", "time": 125, "note": 79, "velocity": 111, "channel": 0}, {"type": "note_off", "time": 203, "note": 79, "velocity": 111, "channel": 0}, {"type": "note_on", "time": 47, "note": 79, "velocity": 112, "channel": 0}, {"type": "note_off", "time": 258, "note": 79, "velocity": 112, "channel": 0}, {"type": "note_on", "time": 41, "note": 77, "velocity": 94, "channel": 0}, {"type": "note_off", "time": 272, "note": 77, "velocity": 94, "channel": 0}, {"type": "note_on", "time": 311, "note": 75, "velocity": 97, "channel": 0}, {"type": "note_off", "time": 219, "note": 75, "velocity": 97, "channel": 0}, {"type": "note_on", "time": 61, "note": 72, "velocity": 93, "channel": 0}, {"type": "note_off", "time": 361, "note": 72, "velocity": 93, "channel": 0}, {"type": "note_on", "time": 667, "note": 72, "velocity": 109, "channel": 0}, {"type": "note_off", "time": 1377, "note": 72, "velocity": 109, "channel": 0}, {"type": "note_on", "time": 211, "note": 75, "velocity": 92, "channel": 0}, {"type": "note_off", "time": 450, "note": 75, "velocity": 92, "channel": 0}, {"type": "note_on", "time": 119, "note": 77, "velocity": 10, "channel": 0}, {"type": "note_off", "time": 478, "note": 77, "velocity": 10, "channel": 0}, {"type": "note_on", "time": 437, "note": 74, "velocity": 85, "channel": 0}, {"type": "note_off", "time": 153, "note": 74, "velocity": 85, "channel": 0}, {"type": "note_on", "time": 150, "note": 78, "velocity": 94, "channel": 0}, {"type": "note_off", "time": 225, "note": 78, "velocity": 94, "channel": 0}, {"type": "note_on", "time": 2, "note": 79, "velocity": 104, "channel": 0}, {"type": "note_off", "time": 222, "note": 79, "velocity": 104, "channel": 0}, {"type": "note_on", "time": 33, "note": 78, "velocity": 96, "channel": 0}, {"type": "note_off", "time": 217, "note": 78, "velocity": 96, "channel": 0}, {"type": "note_on", "time": 27, "note": 77, "velocity": 108, "channel": 0}, {"type": "note_off", "time": 295, "note": 77, "velocity": 108, "channel": 0}, {"type": "note_on", "time": 155, "note": 75, "velocity": 95, "channel": 0}, {"type": "note_off", "time": 322, "note": 75, "velocity": 95, "channel": 0}, {"type": "note_on", "time": 116, "note": 72, "velocity": 94, "channel": 0}, {"type": "note_off", "time": 345, "note": 72, "velocity": 94, "channel": 0}, {"type": "note_on", "time": 492, "note": 72, "velocity": 102, "channel": 0}, {"type": "note_off", "time": 467, "note": 72, "velocity": 102, "channel": 0}, {"type": "note_on", "time": 77, "note": 70, "velocity": 69, "channel": 0}, {"type": "note_off", "time": 189, "note": 70, "velocity": 69, "channel": 0}, {"type": "note_on", "time": 108, "note": 63, "velocity": 94, "channel": 0}, {"type": "note_off", "time": 211, "note": 63, "velocity": 94, "channel": 0}, {"type": "note_on", "time": 689, "note": 70, "velocity": 94, "channel": 0}, {"type": "note_off", "time": 450, "note": 70, "velocity": 94, "channel": 0}, {"type": "note_on", "time": 207, "note": 69, "velocity": 88, "channel": 0}, {"type": "note_off", "time": 93, "note": 69, "velocity": 88, "channel": 0}, {"type": "note_on", "time": 43, "note": 70, "velocity": 92, "channel": 0}, {"type": "note_off", "time": 387, "note": 70, "velocity": 92, "channel": 0}, {"type": "note_on", "time": 148, "note": 68, "velocity": 108, "channel": 0}, {"type": "note_off", "time": 317, "note": 68, "velocity": 108, "channel": 0}, {"type": "note_on", "time": 446, "note": 63, "velocity": 100, "channel": 0}, {"type": "note_off", "time": 297, "note": 63, "velocity": 100, "channel": 0}, {"type": "note_on", "time": 129, "note": 65, "velocity": 91, "channel": 0}, {"type": "note_off", "time": 266, "note": 65, "velocity": 91, "channel": 0}, {"type": "note_on", "time": 148, "note": 68, "velocity": 100, "channel": 0}, {"type": "note_off", "time": 223, "note": 68, "velocity": 100, "channel": 0}, {"type": "note_on", "time": 54, "note": 67, "velocity": 84, "channel": 0}, {"type": "note_off", "time": 367, "note": 67, "velocity": 84, "channel": 0}, {"type": "note_on", "time": 199, "note": 69, "velocity": 89, "channel": 0}, {"type": "note_off", "time": 360, "note": 69, "velocity": 89, "channel": 0}, {"type": "note_on", "time": 54, "note": 72, "velocity": 96, "channel": 0}, {"type": "note_off", "time": 301, "note": 72, "velocity": 96, "channel": 0}, {"type": "note_on", "time": 144, "note": 74, "velocity": 85, "channel": 0}, {"type": "note_off", "time": 289, "note": 74, "velocity": 85, "channel": 0}, {"type": "note_on", "time": 35, "note": 75, "velocity": 103, "channel": 0}, {"type": "note_off", "time": 274, "note": 75, "velocity": 103, "channel": 0}, {"type": "note_on", "time": 191, "note": 77, "velocity": 100, "channel": 0}, {"type": "note_off", "time": 317, "note": 77, "velocity": 100, "channel": 0}, {"type": "note_on", "time": 86, "note": 79, "velocity": 109, "channel": 0}, {"type": "note_off", "time": 367, "note": 79, "velocity": 109, "channel": 0}, {"type": "note_on", "time": 105, "note": 81, "velocity": 110, "channel": 0}, {"type": "note_off", "time": 289, "note": 81, "velocity": 110, "channel": 0}, {"type": "note_on", "time": 82, "note": 86, "velocity": 112, "channel": 0}, {"type": "note_off", "time": 411, "note": 86, "velocity": 112, "channel": 0}, {"type": "note_on", "time": 117, "note": 84, "velocity": 80, "channel": 0}, {"type": "note_off", "time": 230, "note": 84, "velocity": 80, "channel": 0}, {"type": "note_on", "time": 35, "note": 86, "velocity": 104, "channel": 0}, {"type": "note_off", "time": 246, "note": 86, "velocity": 104, "channel": 0}, {"type": "note_on", "time": 234, "note": 84, "velocity": 112, "channel": 0}, {"type": "note_off", "time": 332, "note": 84, "velocity": 112, "channel": 0}, {"type": "note_on", "time": 109, "note": 83, "velocity": 83, "channel": 0}, {"type": "note_off", "time": 258, "note": 83, "velocity": 83, "channel": 0}, {"type": "note_on", "time": 62, "note": 82, "velocity": 104, "channel": 0}, {"type": "note_off", "time": 133, "note": 82, "velocity": 104, "channel": 0}, {"type": "note_on", "time": 66, "note": 81, "velocity": 95, "channel": 0}, {"type": "note_off", "time": 191, "note": 81, "velocity": 95, "channel": 0}, {"type": "note_on", "time": 70, "note": 80, "velocity": 112, "channel": 0}, {"type": "note_off", "time": 348, "note": 80, "velocity": 112, "channel": 0}, {"type": "note_on", "time": 113, "note": 77, "velocity": 105, "channel": 0}, {"type": "note_off", "time": 281, "note": 77, "velocity": 105, "channel": 0}, {"type": "note_on", "time": 176, "note": 79, "velocity": 109, "channel": 0}, {"type": "note_off", "time": 344, "note": 79, "velocity": 109, "channel": 0}, {"type": "note_on", "time": 82, "note": 75, "velocity": 94, "channel": 0}, {"type": "note_off", "time": 125, "note": 75, "velocity": 94, "channel": 0}, {"type": "note_on", "time": 62, "note": 72, "velocity": 98, "channel": 0}, {"type": "note_off", "time": 352, "note": 72, "velocity": 98, "channel": 0}, {"type": "note_on", "time": 1416, "note": 72, "velocity": 94, "channel": 0}, {"type": "note_off", "time": 234, "note": 72, "velocity": 94, "channel": 0}, {"type": "note_on", "time": 109, "note": 72, "velocity": 86, "channel": 0}, {"type": "note_off", "time": 2027, "note": 72, "velocity": 86, "channel": 0}, {"type": "note_on", "time": 982, "note": 79, "velocity": 93, "channel": 0}, {"type": "note_off", "time": 129, "note": 79, "velocity": 93, "channel": 0}, {"type": "note_on", "time": 46, "note": 84, "velocity": 125, "channel": 0}, {"type": "note_off", "time": 465, "note": 84, "velocity": 125, "channel": 0}, {"type": "note_on", "time": 442, "note": 85, "velocity": 107, "channel": 0}, {"type": "note_off", "time": 246, "note": 85, "velocity": 107, "channel": 0}, {"type": "note_on", "time": 23, "note": 86, "velocity": 86, "channel": 0}, {"type": "note_off", "time": 215, "note": 86, "velocity": 86, "channel": 0}, {"type": "note_on", "time": 11, "note": 85, "velocity": 95, "channel": 0}, {"type": "note_off", "time": 199, "note": 85, "velocity": 95, "channel": 0}, {"type": "note_on", "time": 31, "note": 84, "velocity": 105, "channel": 0}, {"type": "note_off", "time": 254, "note": 84, "velocity": 105, "channel": 0}, {"type": "note_on", "time": 457, "note": 79, "velocity": 106, "channel": 0}, {"type": "note_off", "time": 391, "note": 79, "velocity": 106, "channel": 0}, {"type": "note_on", "time": 524, "note": 72, "velocity": 98, "channel": 0}, {"type": "note_off", "time": 168, "note": 72, "velocity": 98, "channel": 0}, {"type": "note_on", "time": 86, "note": 74, "velocity": 95, "channel": 0}, {"type": "note_off", "time": 270, "note": 74, "velocity": 95, "channel": 0}, {"type": "note_on", "time": 113, "note": 78, "velocity": 101, "channel": 0}, {"type": "note_off", "time": 82, "note": 78, "velocity": 101, "channel": 0}, {"type": "note_on", "time": 23, "note": 79, "velocity": 105, "channel": 0}, {"type": "note_off", "time": 297, "note": 79, "velocity": 105, "channel": 0}, {"type": "note_on", "time": 219, "note": 77, "velocity": 100, "channel": 0}, {"type": "note_off", "time": 274, "note": 77, "velocity": 100, "channel": 0}, {"type": "note_on", "time": 575, "note": 75, "velocity": 88, "channel": 0}, {"type": "note_off", "time": 152, "note": 75, "velocity": 88, "channel": 0}, {"type": "note_on", "time": 58, "note": 72, "velocity": 99, "channel": 0}, {"type": "note_off", "time": 113, "note": 72, "velocity": 99, "channel": 0}, {"type": "note_on", "time": 86, "note": 70, "velocity": 90, "channel": 0}, {"type": "note_off", "time": 242, "note": 70, "velocity": 90, "channel": 0}, {"type": "note_on", "time": 144, "note": 68, "velocity": 98, "channel": 0}, {"type": "note_off", "time": 281, "note": 68, "velocity": 98, "channel": 0}, {"type": "note_on", "time": 990, "note": 67, "velocity": 95, "channel": 0}, {"type": "note_off", "time": 324, "note": 67, "velocity": 95, "channel": 0}, {"type": "note_on", "time": 442, "note": 69, "velocity": 105, "channel": 0}, {"type": "note_off", "time": 297, "note": 69, "velocity": 105, "channel": 0}, {"type": "note_on", "time": 97, "note": 72, "velocity": 99, "channel": 0}, {"type": "note_off", "time": 262, "note": 72, "velocity": 99, "channel": 0}, {"type": "note_on", "time": 39, "note": 73, "velocity": 84, "channel": 0}, {"type": "note_off", "time": 176, "note": 73, "velocity": 84, "channel": 0}, {"type": "note_on", "time": 39, "note": 75, "velocity": 85, "channel": 0}, {"type": "note_off", "time": 238, "note": 75, "velocity": 85, "channel": 0}, {"type": "note_on", "time": 58, "note": 77, "velocity": 106, "channel": 0}, {"type": "note_off", "time": 161, "note": 77, "velocity": 106, "channel": 0}, {"type": "note_on", "time": 114, "note": 79, "velocity": 104, "channel": 0}, {"type": "note_off", "time": 189, "note": 79, "velocity": 104, "channel": 0}, {"type": "note_on", "time": 58, "note": 81, "velocity": 110, "channel": 0}, {"type": "note_off", "time": 228, "note": 81, "velocity": 110, "channel": 0}, {"type": "note_on", "time": 111, "note": 86, "velocity": 95, "channel": 0}, {"type": "note_off", "time": 275, "note": 86, "velocity": 95, "channel": 0}, {"type": "note_on", "time": 278, "note": 84, "velocity": 110, "channel": 0}, {"type": "note_off", "time": 281, "note": 84, "velocity": 110, "channel": 0}, {"type": "note_on", "time": 114, "note": 81, "velocity": 83, "channel": 0}, {"type": "note_off", "time": 225, "note": 81, "velocity": 83, "channel": 0}, {"type": "note_on", "time": 52, "note": 82, "velocity": 102, "channel": 0}, {"type": "note_off", "time": 155, "note": 82, "velocity": 102, "channel": 0}, {"type": "note_on", "time": 52, "note": 81, "velocity": 90, "channel": 0}, {"type": "note_off", "time": 205, "note": 81, "velocity": 90, "channel": 0}, {"type": "note_on", "time": 100, "note": 80, "velocity": 113, "channel": 0}, {"type": "note_off", "time": 334, "note": 80, "velocity": 113, "channel": 0}, {"type": "note_on", "time": 194, "note": 77, "velocity": 108, "channel": 0}, {"type": "note_off", "time": 250, "note": 77, "velocity": 108, "channel": 0}, {"type": "note_on", "time": 175, "note": 75, "velocity": 95, "channel": 0}, {"type": "note_off", "time": 359, "note": 75, "velocity": 95, "channel": 0}, {"type": "note_on", "time": 108, "note": 72, "velocity": 87, "channel": 0}, {"type": "note_off", "time": 211, "note": 72, "velocity": 87, "channel": 0}, {"type": "note_on", "time": 139, "note": 70, "velocity": 94, "channel": 0}, {"type": "note_off", "time": 311, "note": 70, "velocity": 94, "channel": 0}, {"type": "note_on", "time": 97, "note": 68, "velocity": 97, "channel": 0}, {"type": "note_off", "time": 320, "note": 68, "velocity": 97, "channel": 0}, {"type": "note_on", "time": 52, "note": 67, "velocity": 80, "channel": 0}, {"type": "note_off", "time": 364, "note": 67, "velocity": 80, "channel": 0}, {"type": "note_on", "time": 180, "note": 69, "velocity": 86, "channel": 0}, {"type": "note_off", "time": 253, "note": 69, "velocity": 86, "channel": 0}, {"type": "note_on", "time": 64, "note": 72, "velocity": 82, "channel": 0}, {"type": "note_off", "time": 308, "note": 72, "velocity": 82, "channel": 0}, {"type": "note_on", "time": 133, "note": 74, "velocity": 81, "channel": 0}, {"type": "note_off", "time": 295, "note": 74, "velocity": 81, "channel": 0}, {"type": "note_on", "time": 183, "note": 75, "velocity": 83, "channel": 0}, {"type": "note_off", "time": 283, "note": 75, "velocity": 83, "channel": 0}, {"type": "note_on", "time": 119, "note": 77, "velocity": 92, "channel": 0}, {"type": "note_off", "time": 300, "note": 77, "velocity": 92, "channel": 0}, {"type": "note_on", "time": 86, "note": 78, "velocity": 87, "channel": 0}, {"type": "note_off", "time": 384, "note": 78, "velocity": 87, "channel": 0}, {"type": "note_on", "time": 52, "note": 79, "velocity": 113, "channel": 0}, {"type": "note_off", "time": 342, "note": 79, "velocity": 113, "channel": 0}, {"type": "note_on", "time": 130, "note": 78, "velocity": 105, "channel": 0}, {"type": "note_off", "time": 328, "note": 78, "velocity": 105, "channel": 0}, {"type": "note_on", "time": 25, "note": 79, "velocity": 99, "channel": 0}, {"type": "note_off", "time": 398, "note": 79, "velocity": 99, "channel": 0}, {"type": "note_on", "time": 61, "note": 78, "velocity": 94, "channel": 0}, {"type": "note_off", "time": 261, "note": 78, "velocity": 94, "channel": 0}, {"type": "note_on", "time": 38, "note": 77, "velocity": 107, "channel": 0}, {"type": "note_off", "time": 167, "note": 77, "velocity": 107, "channel": 0}, {"type": "note_on", "time": 44, "note": 75, "velocity": 101, "channel": 0}, {"type": "note_off", "time": 128, "note": 75, "velocity": 101, "channel": 0}, {"type": "note_on", "time": 236, "note": 72, "velocity": 94, "channel": 0}, {"type": "note_off", "time": 308, "note": 72, "velocity": 94, "channel": 0}, {"type": "note_on", "time": 158, "note": 70, "velocity": 89, "channel": 0}, {"type": "note_off", "time": 275, "note": 70, "velocity": 89, "channel": 0}, {"type": "note_on", "time": 77, "note": 67, "velocity": 74, "channel": 0}, {"type": "note_off", "time": 347, "note": 67, "velocity": 74, "channel": 0}, {"type": "note_on", "time": 139, "note": 65, "velocity": 87, "channel": 0}, {"type": "note_off", "time": 183, "note": 65, "velocity": 87, "channel": 0}, {"type": "note_on", "time": 186, "note": 65, "velocity": 86, "channel": 0}, {"type": "note_off", "time": 423, "note": 65, "velocity": 86, "channel": 0}, {"type": "note_on", "time": 167, "note": 66, "velocity": 83, "channel": 0}, {"type": "note_off", "time": 183, "note": 66, "velocity": 83, "channel": 0}, {"type": "note_on", "time": 38, "note": 65, "velocity": 93, "channel": 0}, {"type": "note_off", "time": 272, "note": 65, "velocity": 93, "channel": 0}, {"type": "note_on", "time": 239, "note": 63, "velocity": 67, "channel": 0}, {"type": "note_off", "time": 247, "note": 63, "velocity": 67, "channel": 0}, {"type": "note_on", "time": 114, "note": 65, "velocity": 89, "channel": 0}, {"type": "note_off", "time": 286, "note": 65, "velocity": 89, "channel": 0}, {"type": "note_on", "time": 61, "note": 63, "velocity": 81, "channel": 0}, {"type": "note_off", "time": 119, "note": 63, "velocity": 81, "channel": 0}, {"type": "note_on", "time": 122, "note": 60, "velocity": 87, "channel": 0}, {"type": "note_off", "time": 203, "note": 60, "velocity": 87, "channel": 0}, {"type": "note_on", "time": 3106, "note": 66, "velocity": 104, "channel": 0}, {"type": "note_off", "time": 233, "note": 66, "velocity": 104, "channel": 0}, {"type": "note_on", "time": 30, "note": 67, "velocity": 95, "channel": 0}, {"type": "note_off", "time": 175, "note": 67, "velocity": 95, "channel": 0}, {"type": "note_on", "time": 133, "note": 70, "velocity": 99, "channel": 0}, {"type": "note_off", "time": 158, "note": 70, "velocity": 99, "channel": 0}, {"type": "note_on", "time": 52, "note": 72, "velocity": 86, "channel": 0}, {"type": "note_off", "time": 194, "note": 72, "velocity": 86, "channel": 0}, {"type": "note_on", "time": 189, "note": 75, "velocity": 109, "channel": 0}, {"type": "note_off", "time": 239, "note": 75, "velocity": 109, "channel": 0}, {"type": "note_on", "time": 289, "note": 72, "velocity": 84, "channel": 0}, {"type": "note_off", "time": 225, "note": 72, "velocity": 84, "channel": 0}, {"type": "note_on", "time": 94, "note": 77, "velocity": 89, "channel": 0}, {"type": "note_off", "time": 336, "note": 77, "velocity": 89, "channel": 0}, {"type": "note_on", "time": 94, "note": 78, "velocity": 111, "channel": 0}, {"type": "note_off", "time": 269, "note": 78, "velocity": 111, "channel": 0}, {"type": "note_on", "time": 125, "note": 79, "velocity": 109, "channel": 0}, {"type": "note_off", "time": 264, "note": 79, "velocity": 109, "channel": 0}, {"type": "note_on", "time": 203, "note": 75, "velocity": 93, "channel": 0}, {"type": "note_off", "time": 236, "note": 75, "velocity": 93, "channel": 0}, {"type": "note_on", "time": 11, "note": 72, "velocity": 77, "channel": 0}, {"type": "note_off", "time": 116, "note": 72, "velocity": 77, "channel": 0}, {"type": "note_on", "time": 33, "note": 80, "velocity": 83, "channel": 0}, {"type": "note_off", "time": 336, "note": 80, "velocity": 83, "channel": 0}, {"type": "note_on", "time": 64, "note": 81, "velocity": 92, "channel": 0}, {"type": "note_off", "time": 370, "note": 81, "velocity": 92, "channel": 0}, {"type": "note_on", "time": 72, "note": 82, "velocity": 87, "channel": 0}, {"type": "note_off", "time": 367, "note": 82, "velocity": 87, "channel": 0}, {"type": "note_on", "time": 100, "note": 80, "velocity": 88, "channel": 0}, {"type": "note_off", "time": 350, "note": 80, "velocity": 88, "channel": 0}, {"type": "note_on", "time": 36, "note": 77, "velocity": 96, "channel": 0}, {"type": "note_off", "time": 350, "note": 77, "velocity": 96, "channel": 0}, {"type": "note_on", "time": 114, "note": 78, "velocity": 105, "channel": 0}, {"type": "note_off", "time": 322, "note": 78, "velocity": 105, "channel": 0}, {"type": "note_on", "time": 30, "note": 79, "velocity": 99, "channel": 0}, {"type": "note_off", "time": 211, "note": 79, "velocity": 99, "channel": 0}, {"type": "note_on", "time": 36, "note": 80, "velocity": 116, "channel": 0}, {"type": "note_off", "time": 214, "note": 80, "velocity": 116, "channel": 0}, {"type": "note_on", "time": 36, "note": 79, "velocity": 92, "channel": 0}, {"type": "note_off", "time": 231, "note": 79, "velocity": 92, "channel": 0}, {"type": "note_on", "time": 77, "note": 77, "velocity": 102, "channel": 0}, {"type": "note_off", "time": 308, "note": 77, "velocity": 102, "channel": 0}, {"type": "note_on", "time": 217, "note": 75, "velocity": 95, "channel": 0}, {"type": "note_off", "time": 314, "note": 75, "velocity": 95, "channel": 0}, {"type": "note_on", "time": 50, "note": 72, "velocity": 82, "channel": 0}, {"type": "note_off", "time": 247, "note": 72, "velocity": 82, "channel": 0}, {"type": "note_on", "time": 353, "note": 79, "velocity": 97, "channel": 0}, {"type": "note_off", "time": 242, "note": 79, "velocity": 97, "channel": 0}, {"type": "note_on", "time": 80, "note": 73, "velocity": 86, "channel": 0}, {"type": "note_off", "time": 342, "note": 73, "velocity": 86, "channel": 0}, {"type": "note_on", "time": 114, "note": 71, "velocity": 66, "channel": 0}, {"type": "note_off", "time": 342, "note": 71, "velocity": 66, "channel": 0}, {"type": "note_on", "time": 58, "note": 72, "velocity": 80, "channel": 0}, {"type": "note_off", "time": 372, "note": 72, "velocity": 80, "channel": 0}, {"type": "note_on", "time": 231, "note": 70, "velocity": 78, "channel": 0}, {"type": "note_off", "time": 2936, "note": 70, "velocity": 78, "channel": 0}, {"type": "note_on", "time": 996, "note": 72, "velocity": 104, "channel": 0}, {"type": "note_off", "time": 239, "note": 72, "velocity": 104, "channel": 0}, {"type": "note_on", "time": 66, "note": 68, "velocity": 103, "channel": 0}, {"type": "note_off", "time": 217, "note": 68, "velocity": 103, "channel": 0}, {"type": "note_on", "time": 94, "note": 65, "velocity": 95, "channel": 0}, {"type": "note_off", "time": 406, "note": 65, "velocity": 95, "channel": 0}, {"type": "note_on", "time": 376, "note": 65, "velocity": 92, "channel": 0}, {"type": "note_off", "time": 313, "note": 65, "velocity": 92, "channel": 0}, {"type": "note_on", "time": 129, "note": 65, "velocity": 99, "channel": 0}, {"type": "note_off", "time": 332, "note": 65, "velocity": 99, "channel": 0}, {"type": "note_on", "time": 74, "note": 67, "velocity": 101, "channel": 0}, {"type": "note_off", "time": 187, "note": 67, "velocity": 101, "channel": 0}, {"type": "note_on", "time": 7, "note": 68, "velocity": 99, "channel": 0}, {"type": "note_off", "time": 199, "note": 68, "velocity": 99, "channel": 0}, {"type": "note_on", "time": 43, "note": 70, "velocity": 92, "channel": 0}, {"type": "note_off", "time": 340, "note": 70, "velocity": 92, "channel": 0}, {"type": "note_on", "time": 11, "note": 71, "velocity": 95, "channel": 0}, {"type": "note_off", "time": 219, "note": 71, "velocity": 95, "channel": 0}, {"type": "note_on", "time": 50, "note": 72, "velocity": 99, "channel": 0}, {"type": "note_off", "time": 258, "note": 72, "velocity": 99, "channel": 0}, {"type": "note_on", "time": 140, "note": 72, "velocity": 99, "channel": 0}, {"type": "note_off", "time": 160, "note": 72, "velocity": 99, "channel": 0}, {"type": "note_on", "time": 54, "note": 72, "velocity": 99, "channel": 0}, {"type": "note_off", "time": 342, "note": 72, "velocity": 99, "channel": 0}, {"type": "note_on", "time": 128, "note": 72, "velocity": 89, "channel": 0}, {"type": "note_off", "time": 186, "note": 72, "velocity": 89, "channel": 0}, {"type": "note_on", "time": 44, "note": 74, "velocity": 88, "channel": 0}, {"type": "note_off", "time": 192, "note": 74, "velocity": 88, "channel": 0}, {"type": "note_on", "time": 36, "note": 75, "velocity": 105, "channel": 0}, {"type": "note_off", "time": 247, "note": 75, "velocity": 105, "channel": 0}, {"type": "note_on", "time": 178, "note": 72, "velocity": 99, "channel": 0}, {"type": "note_off", "time": 364, "note": 72, "velocity": 99, "channel": 0}, {"type": "note_on", "time": 133, "note": 68, "velocity": 92, "channel": 0}, {"type": "note_off", "time": 222, "note": 68, "velocity": 92, "channel": 0}, {"type": "note_on", "time": 8, "note": 69, "velocity": 93, "channel": 0}, {"type": "note_off", "time": 231, "note": 69, "velocity": 93, "channel": 0}, {"type": "note_on", "time": 47, "note": 69, "velocity": 90, "channel": 0}, {"type": "note_off", "time": 139, "note": 69, "velocity": 90, "channel": 0}, {"type": "note_on", "time": 97, "note": 66, "velocity": 105, "channel": 0}, {"type": "note_off", "time": 219, "note": 66, "velocity": 105, "channel": 0}, {"type": "note_on", "time": 33, "note": 65, "velocity": 97, "channel": 0}, {"type": "note_off", "time": 125, "note": 65, "velocity": 97, "channel": 0}, {"type": "note_on", "time": 27, "note": 63, "velocity": 91, "channel": 0}, {"type": "note_off", "time": 303, "note": 63, "velocity": 91, "channel": 0}, {"type": "note_on", "time": 153, "note": 62, "velocity": 104, "channel": 0}, {"type": "note_off", "time": 428, "note": 62, "velocity": 104, "channel": 0}, {"type": "note_on", "time": 350, "note": 62, "velocity": 98, "channel": 0}, {"type": "note_off", "time": 189, "note": 62, "velocity": 98, "channel": 0}, {"type": "note_on", "time": 33, "note": 64, "velocity": 90, "channel": 0}, {"type": "note_off", "time": 161, "note": 64, "velocity": 90, "channel": 0}, {"type": "note_on", "time": 27, "note": 65, "velocity": 97, "channel": 0}, {"type": "note_off", "time": 139, "note": 65, "velocity": 97, "channel": 0}, {"type": "note_on", "time": 50, "note": 68, "velocity": 88, "channel": 0}, {"type": "note_off", "time": 300, "note": 68, "velocity": 88, "channel": 0}, {"type": "note_on", "time": 91, "note": 70, "velocity": 102, "channel": 0}, {"type": "note_off", "time": 217, "note": 70, "velocity": 102, "channel": 0}, {"type": "note_on", "time": 25, "note": 68, "velocity": 109, "channel": 0}, {"type": "note_off", "time": 175, "note": 68, "velocity": 109, "channel": 0}, {"type": "note_on", "time": 55, "note": 65, "velocity": 92, "channel": 0}, {"type": "note_off", "time": 194, "note": 65, "velocity": 92, "channel": 0}, {"type": "note_on", "time": 30, "note": 63, "velocity": 77, "channel": 0}, {"type": "note_off", "time": 250, "note": 63, "velocity": 77, "channel": 0}, {"type": "note_on", "time": 125, "note": 68, "velocity": 96, "channel": 0}, {"type": "note_off", "time": 172, "note": 68, "velocity": 96, "channel": 0}, {"type": "note_on", "time": 33, "note": 70, "velocity": 103, "channel": 0}, {"type": "note_off", "time": 272, "note": 70, "velocity": 103, "channel": 0}, {"type": "note_on", "time": 8, "note": 72, "velocity": 87, "channel": 0}, {"type": "note_off", "time": 133, "note": 72, "velocity": 87, "channel": 0}, {"type": "note_on", "time": 30, "note": 74, "velocity": 84, "channel": 0}, {"type": "note_off", "time": 128, "note": 74, "velocity": 84, "channel": 0}, {"type": "note_on", "time": 58, "note": 77, "velocity": 100, "channel": 0}, {"type": "note_off", "time": 141, "note": 77, "velocity": 100, "channel": 0}, {"type": "note_on", "time": 52, "note": 80, "velocity": 108, "channel": 0}, {"type": "note_off", "time": 378, "note": 80, "velocity": 108, "channel": 0}, {"type": "note_on", "time": 50, "note": 78, "velocity": 109, "channel": 0}, {"type": "note_off", "time": 183, "note": 78, "velocity": 109, "channel": 0}, {"type": "note_on", "time": 33, "note": 79, "velocity": 104, "channel": 0}, {"type": "note_off", "time": 172, "note": 79, "velocity": 104, "channel": 0}, {"type": "note_on", "time": 27, "note": 78, "velocity": 94, "channel": 0}, {"type": "note_off", "time": 155, "note": 78, "velocity": 94, "channel": 0}, {"type": "note_on", "time": 33, "note": 77, "velocity": 108, "channel": 0}, {"type": "note_off", "time": 194, "note": 77, "velocity": 108, "channel": 0}, {"type": "note_on", "time": 44, "note": 75, "velocity": 101, "channel": 0}, {"type": "note_off", "time": 283, "note": 75, "velocity": 101, "channel": 0}, {"type": "note_on", "time": 141, "note": 72, "velocity": 81, "channel": 0}, {"type": "note_off", "time": 203, "note": 72, "velocity": 81, "channel": 0}, {"type": "note_on", "time": 253, "note": 80, "velocity": 108, "channel": 0}, {"type": "note_off", "time": 336, "note": 80, "velocity": 108, "channel": 0}, {"type": "note_on", "time": 50, "note": 78, "velocity": 99, "channel": 0}, {"type": "note_off", "time": 192, "note": 78, "velocity": 99, "channel": 0}, {"type": "note_on", "time": 38, "note": 79, "velocity": 106, "channel": 0}, {"type": "note_off", "time": 217, "note": 79, "velocity": 106, "channel": 0}, {"type": "note_on", "time": 150, "note": 84, "velocity": 123, "channel": 0}, {"type": "note_off", "time": 183, "note": 84, "velocity": 123, "channel": 0}, {"type": "note_on", "time": 44, "note": 83, "velocity": 113, "channel": 0}, {"type": "note_off", "time": 141, "note": 83, "velocity": 113, "channel": 0}, {"type": "note_on", "time": 16, "note": 84, "velocity": 97, "channel": 0}, {"type": "note_off", "time": 161, "note": 84, "velocity": 97, "channel": 0}, {"type": "note_on", "time": 105, "note": 79, "velocity": 95, "channel": 0}, {"type": "note_off", "time": 167, "note": 79, "velocity": 95, "channel": 0}, {"type": "note_on", "time": 55, "note": 75, "velocity": 98, "channel": 0}, {"type": "note_off", "time": 247, "note": 75, "velocity": 98, "channel": 0}, {"type": "note_on", "time": 147, "note": 77, "velocity": 99, "channel": 0}, {"type": "note_off", "time": 153, "note": 77, "velocity": 99, "channel": 0}, {"type": "note_on", "time": 91, "note": 79, "velocity": 91, "channel": 0}, {"type": "note_off", "time": 125, "note": 79, "velocity": 91, "channel": 0}, {"type": "note_on", "time": 41, "note": 81, "velocity": 106, "channel": 0}, {"type": "note_off", "time": 189, "note": 81, "velocity": 106, "channel": 0}, {"type": "note_on", "time": 64, "note": 79, "velocity": 110, "channel": 0}, {"type": "note_off", "time": 283, "note": 79, "velocity": 110, "channel": 0}, {"type": "note_on", "time": 297, "note": 74, "velocity": 68, "channel": 0}, {"type": "note_off", "time": 345, "note": 74, "velocity": 68, "channel": 0}, {"type": "note_on", "time": 334, "note": 77, "velocity": 110, "channel": 0}, {"type": "note_off", "time": 506, "note": 77, "velocity": 110, "channel": 0}, {"type": "note_on", "time": 2407, "note": 79, "velocity": 93, "channel": 0}, {"type": "note_off", "time": 281, "note": 79, "velocity": 93, "channel": 0}, {"type": "note_on", "time": 102, "note": 84, "velocity": 97, "channel": 0}, {"type": "note_off", "time": 311, "note": 84, "velocity": 97, "channel": 0}, {"type": "note_on", "time": 58, "note": 86, "velocity": 98, "channel": 0}, {"type": "note_off", "time": 147, "note": 86, "velocity": 98, "channel": 0}, {"type": "note_on", "time": 30, "note": 84, "velocity": 111, "channel": 0}, {"type": "note_off", "time": 322, "note": 84, "velocity": 111, "channel": 0}, {"type": "note_on", "time": 36, "note": 82, "velocity": 107, "channel": 0}, {"type": "note_off", "time": 334, "note": 82, "velocity": 107, "channel": 0}, {"type": "note_on", "time": 133, "note": 79, "velocity": 98, "channel": 0}, {"type": "note_off", "time": 250, "note": 79, "velocity": 98, "channel": 0}, {"type": "note_on", "time": 80, "note": 84, "velocity": 108, "channel": 0}, {"type": "note_off", "time": 295, "note": 84, "velocity": 108, "channel": 0}, {"type": "note_on", "time": 116, "note": 86, "velocity": 94, "channel": 0}, {"type": "note_off", "time": 130, "note": 86, "velocity": 94, "channel": 0}, {"type": "note_on", "time": 47, "note": 84, "velocity": 104, "channel": 0}, {"type": "note_off", "time": 225, "note": 84, "velocity": 104, "channel": 0}, {"type": "note_on", "time": 94, "note": 82, "velocity": 111, "channel": 0}, {"type": "note_off", "time": 364, "note": 82, "velocity": 111, "channel": 0}, {"type": "note_on", "time": 75, "note": 79, "velocity": 101, "channel": 0}, {"type": "note_off", "time": 267, "note": 79, "velocity": 101, "channel": 0}, {"type": "note_on", "time": 128, "note": 84, "velocity": 104, "channel": 0}, {"type": "note_off", "time": 275, "note": 84, "velocity": 104, "channel": 0}, {"type": "note_on", "time": 83, "note": 86, "velocity": 86, "channel": 0}, {"type": "note_off", "time": 136, "note": 86, "velocity": 86, "channel": 0}, {"type": "note_on", "time": 33, "note": 84, "velocity": 107, "channel": 0}, {"type": "note_off", "time": 203, "note": 84, "velocity": 107, "channel": 0}, {"type": "note_on", "time": 83, "note": 82, "velocity": 104, "channel": 0}, {"type": "note_off", "time": 325, "note": 82, "velocity": 104, "channel": 0}, {"type": "note_on", "time": 150, "note": 79, "velocity": 109, "channel": 0}, {"type": "note_off", "time": 297, "note": 79, "velocity": 109, "channel": 0}, {"type": "note_on", "time": 548, "note": 84, "velocity": 93, "channel": 0}, {"type": "note_off", "time": 97, "note": 84, "velocity": 93, "channel": 0}, {"type": "note_on", "time": 55, "note": 82, "velocity": 102, "channel": 0}, {"type": "note_off", "time": 153, "note": 82, "velocity": 102, "channel": 0}, {"type": "note_on", "time": 33, "note": 79, "velocity": 114, "channel": 0}, {"type": "note_off", "time": 256, "note": 79, "velocity": 114, "channel": 0}, {"type": "note_on", "time": 256, "note": 77, "velocity": 98, "channel": 0}, {"type": "note_off", "time": 180, "note": 77, "velocity": 98, "channel": 0}, {"type": "note_on", "time": 186, "note": 79, "velocity": 100, "channel": 0}, {"type": "note_off", "time": 244, "note": 79, "velocity": 100, "channel": 0}, {"type": "note_on", "time": 100, "note": 80, "velocity": 113, "channel": 0}, {"type": "note_off", "time": 144, "note": 80, "velocity": 113, "channel": 0}, {"type": "note_on", "time": 27, "note": 79, "velocity": 89, "channel": 0}, {"type": "note_off", "time": 167, "note": 79, "velocity": 89, "channel": 0}, {"type": "note_on", "time": 136, "note": 78, "velocity": 104, "channel": 0}, {"type": "note_off", "time": 242, "note": 78, "velocity": 104, "channel": 0}, {"type": "note_on", "time": 214, "note": 77, "velocity": 100, "channel": 0}, {"type": "note_off", "time": 278, "note": 77, "velocity": 100, "channel": 0}, {"type": "note_on", "time": 136, "note": 77, "velocity": 94, "channel": 0}, {"type": "note_off", "time": 261, "note": 77, "velocity": 94, "channel": 0}, {"type": "note_on", "time": 94, "note": 78, "velocity": 100, "channel": 0}, {"type": "note_off", "time": 153, "note": 78, "velocity": 100, "channel": 0}, {"type": "note_on", "time": 27, "note": 77, "velocity": 91, "channel": 0}, {"type": "note_off", "time": 205, "note": 77, "velocity": 91, "channel": 0}, {"type": "note_on", "time": 158, "note": 75, "velocity": 93, "channel": 0}, {"type": "note_off", "time": 278, "note": 75, "velocity": 93, "channel": 0}, {"type": "note_on", "time": 141, "note": 72, "velocity": 85, "channel": 0}, {"type": "note_off", "time": 256, "note": 72, "velocity": 85, "channel": 0}, {"type": "note_on", "time": 72, "note": 74, "velocity": 84, "channel": 0}, {"type": "note_off", "time": 172, "note": 74, "velocity": 84, "channel": 0}, {"type": "note_on", "time": 52, "note": 75, "velocity": 97, "channel": 0}, {"type": "note_off", "time": 200, "note": 75, "velocity": 97, "channel": 0}, {"type": "note_on", "time": 52, "note": 74, "velocity": 75, "channel": 0}, {"type": "note_off", "time": 217, "note": 74, "velocity": 75, "channel": 0}, {"type": "note_on", "time": 116, "note": 72, "velocity": 84, "channel": 0}, {"type": "note_off", "time": 395, "note": 72, "velocity": 84, "channel": 0}, {"type": "note_on", "time": 58, "note": 69, "velocity": 90, "channel": 0}, {"type": "note_off", "time": 331, "note": 69, "velocity": 90, "channel": 0}, {"type": "note_on", "time": 97, "note": 68, "velocity": 89, "channel": 0}, {"type": "note_off", "time": 331, "note": 68, "velocity": 89, "channel": 0}, {"type": "note_on", "time": 66, "note": 77, "velocity": 100, "channel": 0}, {"type": "note_off", "time": 350, "note": 77, "velocity": 100, "channel": 0}, {"type": "note_on", "time": 89, "note": 75, "velocity": 83, "channel": 0}, {"type": "note_off", "time": 422, "note": 75, "velocity": 83, "channel": 0}, {"type": "note_on", "time": 414, "note": 74, "velocity": 85, "channel": 0}, {"type": "note_off", "time": 348, "note": 74, "velocity": 85, "channel": 0}, {"type": "note_on", "time": 603, "note": 72, "velocity": 76, "channel": 0}, {"type": "note_off", "time": 292, "note": 72, "velocity": 76, "channel": 0}, {"type": "note_on", "time": 38, "note": 74, "velocity": 89, "channel": 0}, {"type": "note_off", "time": 144, "note": 74, "velocity": 89, "channel": 0}, {"type": "note_on", "time": 16, "note": 75, "velocity": 74, "channel": 0}, {"type": "note_off", "time": 172, "note": 75, "velocity": 74, "channel": 0}, {"type": "note_on", "time": 116, "note": 75, "velocity": 96, "channel": 0}, {"type": "note_off", "time": 303, "note": 75, "velocity": 96, "channel": 0}, {"type": "note_on", "time": 194, "note": 74, "velocity": 84, "channel": 0}, {"type": "note_off", "time": 175, "note": 74, "velocity": 84, "channel": 0}, {"type": "note_on", "time": 77, "note": 67, "velocity": 82, "channel": 0}, {"type": "note_off", "time": 347, "note": 67, "velocity": 82, "channel": 0}, {"type": "note_on", "time": 164, "note": 63, "velocity": 71, "channel": 0}, {"type": "note_off", "time": 239, "note": 63, "velocity": 71, "channel": 0}, {"type": "note_on", "time": 125, "note": 65, "velocity": 60, "channel": 0}, {"type": "note_off", "time": 381, "note": 65, "velocity": 60, "channel": 0}, {"type": "note_on", "time": 147, "note": 65, "velocity": 89, "channel": 0}, {"type": "note_off", "time": 295, "note": 65, "velocity": 89, "channel": 0}, {"type": "note_on", "time": 437, "note": 65, "velocity": 92, "channel": 0}, {"type": "note_off", "time": 269, "note": 65, "velocity": 92, "channel": 0}, {"type": "note_on", "time": 167, "note": 65, "velocity": 81, "channel": 0}, {"type": "note_off", "time": 211, "note": 65, "velocity": 81, "channel": 0}, {"type": "note_on", "time": 44, "note": 63, "velocity": 86, "channel": 0}, {"type": "note_off", "time": 183, "note": 63, "velocity": 86, "channel": 0}, {"type": "note_on", "time": 13, "note": 60, "velocity": 88, "channel": 0}, {"type": "note_off", "time": 158, "note": 60, "velocity": 88, "channel": 0}, {"type": "note_on", "time": 272, "note": 58, "velocity": 81, "channel": 0}, {"type": "note_off", "time": 244, "note": 58, "velocity": 81, "channel": 0}, {"type": "note_on", "time": 158, "note": 55, "velocity": 79, "channel": 0}, {"type": "note_off", "time": 256, "note": 55, "velocity": 79, "channel": 0}, {"type": "note_on", "time": 114, "note": 72, "velocity": 85, "channel": 0}, {"type": "note_off", "time": 757, "note": 72, "velocity": 85, "channel": 0}, {"type": "end_of_track", "time": 0}]]}