{"ticks_per_beat": 192, "tracks": [[{"type": "track_name", "name": "Melody", "time": 0}, {"type": "set_tempo", "tempo": 387096, "time": 0}, {"type": "key_signature", "key": "Ab", "time": 0}, {"type": "time_signature", "numerator": 4, "denominator": 4, "clocks_per_click": 24, "notated_32nd_notes_per_beat": 8, "time": 0}, {"type": "note_on", "time": 1042, "note": 65, "velocity": 93, "channel": 0}, {"type": "note_off", "time": 57, "note": 65, "velocity": 93, "channel": 0}, {"type": "note_on", "time": 201, "note": 68, "velocity": 100, "channel": 0}, {"type": "note_off", "time": 100, "note": 68, "velocity": 100, "channel": 0}, {"type": "note_on", "time": 92, "note": 72, "velocity": 114, "channel": 0}, {"type": "note_off", "time": 106, "note": 72, "velocity": 114, "channel": 0}, {"type": "note_on", "time": 80, "note": 75, "velocity": 119, "channel": 0}, {"type": "note_off", "time": 120, "note": 75, "velocity": 119, "channel": 0}, {"type": "note_on", "time": 80, "note": 75, "velocity": 120, "channel": 0}, {"type": "note_off", "time": 132, "note": 75, "velocity": 120, "channel": 0}, {"type": "note_on", "time": 66, "note": 75, "velocity": 117, "channel": 0}, {"type": "note_off", "time": 244, "note": 75, "velocity": 117, "channel": 0}, {"type": "note_on", "time": 247, "note": 65, "velocity": 83, "channel": 0}, {"type": "note_off", "time": 83, "note": 65, "velocity": 83, "channel": 0}, {"type": "note_on", "time": 16, "note": 68, "velocity": 90, "channel": 0}, {"type": "note_off", "time": 68, "note": 68, "velocity": 90, "channel": 0}, {"type": "note_on", "time": 62, "note": 72, "velocity": 92, "channel": 0}, {"type": "note_off", "time": 46, "note": 72, "velocity": 92, "channel": 0}, {"type": "note_on", "time": 23, "note": 75, "velocity": 120, "channel": 0}, {"type": "note_off", "time": 129, "note": 75, "velocity": 120, "channel": 0}, {"type": "note_on", "time": 11, "note": 75, "velocity": 120, "channel": 0}, {"type": "note_off", "time": 46, "note": 75, "velocity": 120, "channel": 0}, {"type": "note_on", "time": 120, "note": 75, "velocity": 120, "channel": 0}, {"type": "note_off", "time": 244, "note": 75, "velocity": 120, "channel": 0}, {"type": "note_on", "time": 9, "note": 79, "velocity": 113, "channel": 0}, {"type": "note_off", "time": 35, "note": 79, "velocity": 113, "channel": 0}, {"type": "note_on", "time": 167, "note": 75, "velocity": 109, "channel": 0}, {"type": "note_off", "time": 120, "note": 75, "velocity": 109, "channel": 0}, {"type": "note_on", "time": 8, "note": 72, "velocity": 103, "channel": 0}, {"type": "note_off", "time": 60, "note": 72, "velocity": 103, "channel": 0}, {"type": "note_on", "time": 4, "note": 68, "velocity": 91, "channel": 0}, {"type": "note_off", "time": 46, "note": 68, "velocity": 91, "channel": 0}, {"type": "note_on", "time": 121, "note": 72, "velocity": 108, "channel": 0}, {"type": "note_off", "time": 131, "note": 72, "velocity": 108, "channel": 0}, {"type": "note_on", "time": 23, "note": 72, "velocity": 102, "channel": 0}, {"type": "note_off", "time": 43, "note": 72, "velocity": 102, "channel": 0}, {"type": "note_on", "time": 914, "note": 72, "velocity": 115, "channel": 0}, {"type": "note_off", "time": 54, "note": 72, "velocity": 115, "channel": 0}, {"type": "note_on", "time": 42, "note": 76, "velocity": 121, "channel": 0}, {"type": "note_off", "time": 89, "note": 76, "velocity": 121, "channel": 0}, {"type": "note_on", "time": 28, "note": 79, "velocity": 115, "channel": 0}, {"type": "note_off", "time": 77, "note": 79, "velocity": 115, "channel": 0}, {"type": "note_on", "time": 11, "note": 77, "velocity": 115, "channel": 0}, {"type": "note_off", "time": 123, "note": 77, "velocity": 115, "channel": 0}, {"type": "note_on", "time": 8, "note": 76, "velocity": 120, "channel": 0}, {"type": "note_off", "time": 89, "note": 76, "velocity": 120, "channel": 0}, {"type": "note_on", "time": 66, "note": 73, "velocity": 118, "channel": 0}, {"type": "note_off", "time": 80, "note": 73, "velocity": 118, "channel": 0}, {"type": "note_on", "time": 0, "note": 72, "velocity": 114, "channel": 0}, {"type": "note_off", "time": 92, "note": 72, "velocity": 114, "channel": 0}, {"type": "note_on", "time": 20, "note": 70, "velocity": 112, "channel": 0}, {"type": "note_off", "time": 54, "note": 70, "velocity": 112, "channel": 0}, {"type": "note_on", "time": 23, "note": 68, "velocity": 105, "channel": 0}, {"type": "note_off", "time": 40, "note": 68, "velocity": 105, "channel": 0}, {"type": "note_on", "time": 7, "note": 70, "velocity": 100, "channel": 0}, {"type": "note_off", "time": 39, "note": 70, "velocity": 100, "channel": 0}, {"type": "note_on", "time": 0, "note": 68, "velocity": 105, "channel": 0}, {"type": "note_off", "time": 42, "note": 68, "velocity": 105, "channel": 0}, {"type": "note_on", "time": 5, "note": 67, "velocity": 105, "channel": 0}, {"type": "note_off", "time": 38, "note": 67, "velocity": 105, "channel": 0}, {"type": "note_on", "time": 0, "note": 65, "velocity": 106, "channel": 0}, {"type": "note_off", "time": 101, "note": 65, "velocity": 106, "channel": 0}, {"type": "note_on", "time": 20, "note": 62, "velocity": 87, "channel": 0}, {"type": "note_off", "time": 56, "note": 62, "velocity": 87, "channel": 0}, {"type": "note_on", "time": 11, "note": 64, "velocity": 102, "channel": 0}, {"type": "note_off", "time": 70, "note": 64, "velocity": 102, "channel": 0}, {"type": "note_on", "time": 21, "note": 64, "velocity": 91, "channel": 0}, {"type": "note_off", "time": 58, "note": 64, "velocity": 91, "channel": 0}, {"type": "note_on", "time": 248, "note": 73, "velocity": 116, "channel": 0}, {"type": "note_off", "time": 109, "note": 73, "velocity": 116, "channel": 0}, {"type": "note_on", "time": 11, "note": 71, "velocity": 110, "channel": 0}, {"type": "note_off", "time": 54, "note": 71, "velocity": 110, "channel": 0}, {"type": "note_on", "time": 8, "note": 72, "velocity": 116, "channel": 0}, {"type": "note_off", "time": 115, "note": 72, "velocity": 116, "channel": 0}, {"type": "note_on", "time": 14, "note": 70, "velocity": 113, "channel": 0}, {"type": "note_off", "time": 60, "note": 70, "velocity": 113, "channel": 0}, {"type": "note_on", "time": 8, "note": 67, "velocity": 98, "channel": 0}, {"type": "note_off", "time": 43, "note": 67, "velocity": 98, "channel": 0}, {"type": "note_on", "time": 5, "note": 69, "velocity": 108, "channel": 0}, {"type": "note_off", "time": 42, "note": 69, "velocity": 108, "channel": 0}, {"type": "note_on", "time": 115, "note": 77, "velocity": 113, "channel": 0}, {"type": "note_off", "time": 524, "note": 77, "velocity": 113, "channel": 0}, {"type": "note_on", "time": 25, "note": 75, "velocity": 119, "channel": 0}, {"type": "note_off", "time": 126, "note": 75, "velocity": 119, "channel": 0}, {"type": "note_on", "time": 8, "note": 77, "velocity": 85, "channel": 0}, {"type": "note_off", "time": 71, "note": 77, "velocity": 85, "channel": 0}, {"type": "note_on", "time": 297, "note": 72, "velocity": 90, "channel": 0}, {"type": "note_off", "time": 51, "note": 72, "velocity": 90, "channel": 0}, {"type": "note_on", "time": 8, "note": 75, "velocity": 121, "channel": 0}, {"type": "note_off", "time": 135, "note": 75, "velocity": 121, "channel": 0}, {"type": "note_on", "time": 20, "note": 77, "velocity": 119, "channel": 0}, {"type": "note_off", "time": 234, "note": 77, "velocity": 119, "channel": 0}, {"type": "note_on", "time": 0, "note": 75, "velocity": 111, "channel": 0}, {"type": "note_off", "time": 108, "note": 75, "velocity": 111, "channel": 0}, {"type": "note_on", "time": 20, "note": 72, "velocity": 107, "channel": 0}, {"type": "note_off", "time": 70, "note": 72, "velocity": 107, "channel": 0}, {"type": "note_on", "time": 5, "note": 70, "velocity": 108, "channel": 0}, {"type": "note_off", "time": 53, "note": 70, "velocity": 108, "channel": 0}, {"type": "note_on", "time": 60, "note": 67, "velocity": 104, "channel": 0}, {"type": "note_off", "time": 45, "note": 67, "velocity": 104, "channel": 0}, {"type": "note_on", "time": 0, "note": 65, "velocity": 95, "channel": 0}, {"type": "note_off", "time": 122, "note": 65, "velocity": 95, "channel": 0}, {"type": "note_on", "time": 16, "note": 63, "velocity": 90, "channel": 0}, {"type": "note_off", "time": 47, "note": 63, "velocity": 90, "channel": 0}, {"type": "note_on", "time": 9, "note": 65, "velocity": 92, "channel": 0}, {"type": "note_off", "time": 202, "note": 65, "velocity": 92, "channel": 0}, {"type": "note_on", "time": 350, "note": 65, "velocity": 105, "channel": 0}, {"type": "note_off", "time": 74, "note": 65, "velocity": 105, "channel": 0}, {"type": "note_on", "time": 103, "note": 65, "velocity": 95, "channel": 0}, {"type": "note_off", "time": 62, "note": 65, "velocity": 95, "channel": 0}, {"type": "note_on", "time": 4, "note": 68, "velocity": 108, "channel": 0}, {"type": "note_off", "time": 44, "note": 68, "velocity": 108, "channel": 0}, {"type": "note_on", "time": 7, "note": 69, "velocity": 104, "channel": 0}, {"type": "note_off", "time": 54, "note": 69, "velocity": 104, "channel": 0}, {"type": "note_on", "time": 108, "note": 65, "velocity": 100, "channel": 0}, {"type": "note_off", "time": 92, "note": 65, "velocity": 100, "channel": 0}, {"type": "note_on", "time": 71, "note": 70, "velocity": 114, "channel": 0}, {"type": "note_off", "time": 118, "note": 70, "velocity": 114, "channel": 0}, {"type": "note_on", "time": 88, "note": 65, "velocity": 98, "channel": 0}, {"type": "note_off", "time": 148, "note": 65, "velocity": 98, "channel": 0}, {"type": "note_on", "time": 54, "note": 71, "velocity": 110, "channel": 0}, {"type": "note_off", "time": 115, "note": 71, "velocity": 110, "channel": 0}, {"type": "note_on", "time": 14, "note": 65, "velocity": 85, "channel": 0}, {"type": "note_off", "time": 49, "note": 65, "velocity": 85, "channel": 0}, {"type": "note_on", "time": 5, "note": 71, "velocity": 110, "channel": 0}, {"type": "note_off", "time": 123, "note": 71, "velocity": 110, "channel": 0}, {"type": "note_on", "time": 11, "note": 72, "velocity": 115, "channel": 0}, {"type": "note_off", "time": 54, "note": 72, "velocity": 115, "channel": 0}, {"type": "note_on", "time": 8, "note": 71, "velocity": 107, "channel": 0}, {"type": "note_off", "time": 51, "note": 71, "velocity": 107, "channel": 0}, {"type": "note_on", "time": 0, "note": 70, "velocity": 105, "channel": 0}, {"type": "note_off", "time": 57, "note": 70, "velocity": 105, "channel": 0}, {"type": "note_on", "time": 5, "note": 68, "velocity": 102, "channel": 0}, {"type": "note_off", "time": 83, "note": 68, "velocity": 102, "channel": 0}, {"type": "note_on", "time": 0, "note": 65, "velocity": 95, "channel": 0}, {"type": "note_off", "time": 102, "note": 65, "velocity": 95, "channel": 0}, {"type": "note_on", "time": 26, "note": 68, "velocity": 108, "channel": 0}, {"type": "note_off", "time": 46, "note": 68, "velocity": 108, "channel": 0}, {"type": "note_on", "time": 11, "note": 70, "velocity": 106, "channel": 0}, {"type": "note_off", "time": 129, "note": 70, "velocity": 106, "channel": 0}, {"type": "note_on", "time": 4, "note": 65, "velocity": 95, "channel": 0}, {"type": "note_off", "time": 42, "note": 65, "velocity": 95, "channel": 0}, {"type": "note_on", "time": 0, "note": 68, "velocity": 105, "channel": 0}, {"type": "note_off", "time": 35, "note": 68, "velocity": 105, "channel": 0}, {"type": "note_on", "time": 3, "note": 70, "velocity": 97, "channel": 0}, {"type": "note_off", "time": 43, "note": 70, "velocity": 97, "channel": 0}, {"type": "note_on", "time": 20, "note": 67, "velocity": 102, "channel": 0}, {"type": "note_off", "time": 38, "note": 67, "velocity": 102, "channel": 0}, {"type": "note_on", "time": 6, "note": 65, "velocity": 100, "channel": 0}, {"type": "note_off", "time": 33, "note": 65, "velocity": 100, "channel": 0}, {"type": "note_on", "time": 10, "note": 63, "velocity": 92, "channel": 0}, {"type": "note_off", "time": 101, "note": 63, "velocity": 92, "channel": 0}, {"type": "note_on", "time": 20, "note": 60, "velocity": 93, "channel": 0}, {"type": "note_off", "time": 31, "note": 60, "velocity": 93, "channel": 0}, {"type": "note_on", "time": 35, "note": 64, "velocity": 95, "channel": 0}, {"type": "note_off", "time": 141, "note": 64, "velocity": 95, "channel": 0}, {"type": "note_on", "time": 1, "note": 65, "velocity": 100, "channel": 0}, {"type": "note_off", "time": 97, "note": 65, "velocity": 100, "channel": 0}, {"type": "note_on", "time": 350, "note": 77, "velocity": 116, "channel": 0}, {"type": "note_off", "time": 135, "note": 77, "velocity": 116, "channel": 0}, {"type": "note_on", "time": 7, "note": 75, "velocity": 107, "channel": 0}, {"type": "note_off", "time": 47, "note": 75, "velocity": 107, "channel": 0}, {"type": "note_on", "time": 1, "note": 80, "velocity": 119, "channel": 0}, {"type": "note_off", "time": 123, "note": 80, "velocity": 119, "channel": 0}, {"type": "note_on", "time": 11, "note": 77, "velocity": 111, "channel": 0}, {"type": "note_off", "time": 244, "note": 77, "velocity": 111, "channel": 0}, {"type": "note_on", "time": 24, "note": 74, "velocity": 122, "channel": 0}, {"type": "note_off", "time": 123, "note": 74, "velocity": 122, "channel": 0}, {"type": "note_on", "time": 56, "note": 68, "velocity": 108, "channel": 0}, {"type": "note_off", "time": 107, "note": 68, "velocity": 108, "channel": 0}, {"type": "note_on", "time": 10, "note": 67, "velocity": 95, "channel": 0}, {"type": "note_off", "time": 73, "note": 67, "velocity": 95, "channel": 0}, {"type": "note_on", "time": 585, "note": 77, "velocity": 115, "channel": 0}, {"type": "note_off", "time": 138, "note": 77, "velocity": 115, "channel": 0}, {"type": "note_on", "time": 57, "note": 80, "velocity": 116, "channel": 0}, {"type": "note_off", "time": 166, "note": 80, "velocity": 116, "channel": 0}, {"type": "note_on", "time": 173, "note": 77, "velocity": 116, "channel": 0}, {"type": "note_off", "time": 69, "note": 77, "velocity": 116, "channel": 0}, {"type": "note_on", "time": 60, "note": 80, "velocity": 115, "channel": 0}, {"type": "note_off", "time": 100, "note": 80, "velocity": 115, "channel": 0}, {"type": "note_on", "time": 15, "note": 84, "velocity": 118, "channel": 0}, {"type": "note_off", "time": 71, "note": 84, "velocity": 118, "channel": 0}, {"type": "note_on", "time": 43, "note": 83, "velocity": 127, "channel": 0}, {"type": "note_off", "time": 48, "note": 83, "velocity": 127, "channel": 0}, {"type": "note_on", "time": 63, "note": 78, "velocity": 117, "channel": 0}, {"type": "note_off", "time": 37, "note": 78, "velocity": 117, "channel": 0}, {"type": "note_on", "time": 14, "note": 77, "velocity": 117, "channel": 0}, {"type": "note_off", "time": 83, "note": 77, "velocity": 117, "channel": 0}, {"type": "note_on", "time": 8, "note": 75, "velocity": 117, "channel": 0}, {"type": "note_on", "time": 77, "note": 72, "velocity": 111, "channel": 0}, {"type": "note_off", "time": 0, "note": 75, "velocity": 117, "channel": 0}, {"type": "note_off", "time": 83, "note": 72, "velocity": 111, "channel": 0}, {"type": "note_on", "time": 19, "note": 70, "velocity": 111, "channel": 0}, {"type": "note_off", "time": 32, "note": 70, "velocity": 111, "channel": 0}, {"type": "note_on", "time": 23, "note": 68, "velocity": 90, "channel": 0}, {"type": "note_off", "time": 40, "note": 68, "velocity": 90, "channel": 0}, {"type": "note_on", "time": 22, "note": 72, "velocity": 88, "channel": 0}, {"type": "note_off", "time": 41, "note": 72, "velocity": 88, "channel": 0}, {"type": "note_on", "time": 12, "note": 74, "velocity": 111, "channel": 0}, {"type": "note_off", "time": 52, "note": 74, "velocity": 111, "channel": 0}, {"type": "note_on", "time": 17, "note": 77, "velocity": 116, "channel": 0}, {"type": "note_off", "time": 100, "note": 77, "velocity": 116, "channel": 0}, {"type": "note_on", "time": 5, "note": 75, "velocity": 120, "channel": 0}, {"type": "note_off", "time": 69, "note": 75, "velocity": 120, "channel": 0}, {"type": "note_on", "time": 8, "note": 72, "velocity": 110, "channel": 0}, {"type": "note_off", "time": 112, "note": 72, "velocity": 110, "channel": 0}, {"type": "note_on", "time": 0, "note": 70, "velocity": 112, "channel": 0}, {"type": "note_off", "time": 46, "note": 70, "velocity": 112, "channel": 0}, {"type": "note_on", "time": 31, "note": 68, "velocity": 100, "channel": 0}, {"type": "note_off", "time": 111, "note": 68, "velocity": 100, "channel": 0}, {"type": "note_on", "time": 12, "note": 65, "velocity": 88, "channel": 0}, {"type": "note_off", "time": 92, "note": 65, "velocity": 88, "channel": 0}, {"type": "note_on", "time": 148, "note": 65, "velocity": 102, "channel": 0}, {"type": "note_off", "time": 48, "note": 65, "velocity": 102, "channel": 0}, {"type": "note_on", "time": 0, "note": 63, "velocity": 91, "channel": 0}, {"type": "note_off", "time": 33, "note": 63, "velocity": 91, "channel": 0}, {"type": "note_on", "time": 14, "note": 65, "velocity": 102, "channel": 0}, {"type": "note_off", "time": 43, "note": 65, "velocity": 102, "channel": 0}, {"type": "note_on", "time": 7, "note": 67, "velocity": 110, "channel": 0}, {"type": "note_off", "time": 28, "note": 67, "velocity": 110, "channel": 0}, {"type": "note_on", "time": 6, "note": 68, "velocity": 108, "channel": 0}, {"type": "note_off", "time": 46, "note": 68, "velocity": 108, "channel": 0}, {"type": "note_on", "time": 7, "note": 67, "velocity": 105, "channel": 0}, {"type": "note_off", "time": 43, "note": 67, "velocity": 105, "channel": 0}, {"type": "note_on", "time": 0, "note": 68, "velocity": 98, "channel": 0}, {"type": "note_off", "time": 37, "note": 68, "velocity": 98, "channel": 0}, {"type": "note_on", "time": 20, "note": 70, "velocity": 103, "channel": 0}, {"type": "note_off", "time": 28, "note": 70, "velocity": 103, "channel": 0}, {"type": "note_on", "time": 8, "note": 71, "velocity": 108, "channel": 0}, {"type": "note_off", "time": 34, "note": 71, "velocity": 108, "channel": 0}, {"type": "note_on", "time": 7, "note": 70, "velocity": 100, "channel": 0}, {"type": "note_off", "time": 33, "note": 70, "velocity": 100, "channel": 0}, {"type": "note_on", "time": 12, "note": 74, "velocity": 111, "channel": 0}, {"type": "note_off", "time": 37, "note": 74, "velocity": 111, "channel": 0}, {"type": "note_on", "time": 11, "note": 73, "velocity": 112, "channel": 0}, {"type": "note_off", "time": 40, "note": 73, "velocity": 112, "channel": 0}, {"type": "note_on", "time": 5, "note": 74, "velocity": 116, "channel": 0}, {"type": "note_off", "time": 48, "note": 74, "velocity": 116, "channel": 0}, {"type": "note_on", "time": 6, "note": 73, "velocity": 114, "channel": 0}, {"type": "note_off", "time": 40, "note": 73, "velocity": 114, "channel": 0}, {"type": "note_on", "time": 0, "note": 74, "velocity": 119, "channel": 0}, {"type": "note_off", "time": 36, "note": 74, "velocity": 119, "channel": 0}, {"type": "note_on", "time": 11, "note": 76, "velocity": 120, "channel": 0}, {"type": "note_off", "time": 37, "note": 76, "velocity": 120, "channel": 0}, {"type": "note_on", "time": 6, "note": 77, "velocity": 116, "channel": 0}, {"type": "note_off", "time": 40, "note": 77, "velocity": 116, "channel": 0}, {"type": "note_on", "time": 10, "note": 76, "velocity": 116, "channel": 0}, {"type": "note_off", "time": 34, "note": 76, "velocity": 116, "channel": 0}, {"type": "note_on", "time": 1, "note": 77, "velocity": 115, "channel": 0}, {"type": "note_off", "time": 40, "note": 77, "velocity": 115, "channel": 0}, {"type": "note_on", "time": 20, "note": 79, "velocity": 111, "channel": 0}, {"type": "note_off", "time": 34, "note": 79, "velocity": 111, "channel": 0}, {"type": "note_on", "time": 2, "note": 80, "velocity": 117, "channel": 0}, {"type": "note_off", "time": 35, "note": 80, "velocity": 117, "channel": 0}, {"type": "note_on", "time": 5, "note": 82, "velocity": 108, "channel": 0}, {"type": "note_off", "time": 49, "note": 82, "velocity": 108, "channel": 0}, {"type": "note_on", "time": 6, "note": 79, "velocity": 110, "channel": 0}, {"type": "note_off", "time": 43, "note": 79, "velocity": 110, "channel": 0}, {"type": "note_on", "time": 2, "note": 77, "velocity": 114, "channel": 0}, {"type": "note_off", "time": 35, "note": 77, "velocity": 114, "channel": 0}, {"type": "note_on", "time": 2, "note": 76, "velocity": 117, "channel": 0}, {"type": "note_off", "time": 48, "note": 76, "velocity": 117, "channel": 0}, {"type": "note_on", "time": 0, "note": 73, "velocity": 89, "channel": 0}, {"type": "note_off", "time": 63, "note": 73, "velocity": 89, "channel": 0}, {"type": "note_on", "time": 279, "note": 73, "velocity": 91, "channel": 0}, {"type": "note_off", "time": 30, "note": 73, "velocity": 91, "channel": 0}, {"type": "note_on", "time": 2, "note": 74, "velocity": 117, "channel": 0}, {"type": "note_off", "time": 52, "note": 74, "velocity": 117, "channel": 0}, {"type": "note_on", "time": 5, "note": 73, "velocity": 112, "channel": 0}, {"type": "note_off", "time": 37, "note": 73, "velocity": 112, "channel": 0}, {"type": "note_on", "time": 12, "note": 71, "velocity": 110, "channel": 0}, {"type": "note_off", "time": 47, "note": 71, "velocity": 110, "channel": 0}, {"type": "note_on", "time": 6, "note": 72, "velocity": 115, "channel": 0}, {"type": "note_off", "time": 92, "note": 72, "velocity": 115, "channel": 0}, {"type": "note_on", "time": 1, "note": 71, "velocity": 101, "channel": 0}, {"type": "note_off", "time": 36, "note": 71, "velocity": 101, "channel": 0}, {"type": "note_on", "time": 287, "note": 77, "velocity": 116, "channel": 0}, {"type": "note_off", "time": 97, "note": 77, "velocity": 116, "channel": 0}, {"type": "note_on", "time": 16, "note": 76, "velocity": 120, "channel": 0}, {"type": "note_off", "time": 46, "note": 76, "velocity": 120, "channel": 0}, {"type": "note_on", "time": 17, "note": 75, "velocity": 119, "channel": 0}, {"type": "note_off", "time": 138, "note": 75, "velocity": 119, "channel": 0}, {"type": "note_on", "time": 51, "note": 74, "velocity": 117, "channel": 0}, {"type": "note_off", "time": 126, "note": 74, "velocity": 117, "channel": 0}, {"type": "note_on", "time": 60, "note": 72, "velocity": 115, "channel": 0}, {"type": "note_off", "time": 129, "note": 72, "velocity": 115, "channel": 0}, {"type": "note_on", "time": 8, "note": 74, "velocity": 118, "channel": 0}, {"type": "note_off", "time": 48, "note": 74, "velocity": 118, "channel": 0}, {"type": "note_on", "time": 0, "note": 75, "velocity": 120, "channel": 0}, {"type": "note_off", "time": 152, "note": 75, "velocity": 120, "channel": 0}, {"type": "note_on", "time": 37, "note": 77, "velocity": 110, "channel": 0}, {"type": "note_off", "time": 195, "note": 77, "velocity": 110, "channel": 0}, {"type": "note_on", "time": 209, "note": 72, "velocity": 113, "channel": 0}, {"type": "note_off", "time": 106, "note": 72, "velocity": 113, "channel": 0}, {"type": "note_on", "time": 35, "note": 74, "velocity": 117, "channel": 0}, {"type": "note_off", "time": 46, "note": 74, "velocity": 117, "channel": 0}, {"type": "note_on", "time": 0, "note": 75, "velocity": 119, "channel": 0}, {"type": "note_off", "time": 141, "note": 75, "velocity": 119, "channel": 0}, {"type": "note_on", "time": 16, "note": 77, "velocity": 113, "channel": 0}, {"type": "note_off", "time": 103, "note": 77, "velocity": 113, "channel": 0}, {"type": "note_on", "time": 63, "note": 80, "velocity": 117, "channel": 0}, {"type": "note_off", "time": 89, "note": 80, "velocity": 117, "channel": 0}, {"type": "note_on", "time": 6, "note": 79, "velocity": 99, "channel": 0}, {"type": "note_off", "time": 111, "note": 79, "velocity": 99, "channel": 0}, {"type": "note_on", "time": 18, "note": 77, "velocity": 116, "channel": 0}, {"type": "note_off", "time": 230, "note": 77, "velocity": 116, "channel": 0}, {"type": "note_on", "time": 14, "note": 75, "velocity": 118, "channel": 0}, {"type": "note_off", "time": 100, "note": 75, "velocity": 118, "channel": 0}, {"type": "note_on", "time": 0, "note": 75, "velocity": 92, "channel": 0}, {"type": "note_off", "time": 14, "note": 75, "velocity": 92, "channel": 0}, {"type": "note_on", "time": 59, "note": 74, "velocity": 112, "channel": 0}, {"type": "note_off", "time": 93, "note": 74, "velocity": 112, "channel": 0}, {"type": "note_on", "time": 851, "note": 85, "velocity": 104, "channel": 0}, {"type": "note_off", "time": 35, "note": 85, "velocity": 104, "channel": 0}, {"type": "note_on", "time": 11, "note": 88, "velocity": 112, "channel": 0}, {"type": "note_off", "time": 59, "note": 88, "velocity": 112, "channel": 0}, {"type": "note_on", "time": 19, "note": 85, "velocity": 118, "channel": 0}, {"type": "note_off", "time": 100, "note": 85, "velocity": 118, "channel": 0}, {"type": "note_on", "time": 0, "note": 84, "velocity": 85, "channel": 0}, {"type": "note_off", "time": 97, "note": 84, "velocity": 85, "channel": 0}, {"type": "note_on", "time": 323, "note": 89, "velocity": 107, "channel": 0}, {"type": "note_off", "time": 40, "note": 89, "velocity": 107, "channel": 0}, {"type": "note_on", "time": 0, "note": 90, "velocity": 120, "channel": 0}, {"type": "note_off", "time": 470, "note": 90, "velocity": 120, "channel": 0}, {"type": "note_on", "time": 26, "note": 87, "velocity": 114, "channel": 0}, {"type": "note_off", "time": 86, "note": 87, "velocity": 114, "channel": 0}, {"type": "note_on", "time": 25, "note": 84, "velocity": 118, "channel": 0}, {"type": "note_off", "time": 63, "note": 84, "velocity": 118, "channel": 0}, {"type": "note_on", "time": 17, "note": 82, "velocity": 117, "channel": 0}, {"type": "note_off", "time": 97, "note": 82, "velocity": 117, "channel": 0}, {"type": "note_on", "time": 0, "note": 80, "velocity": 114, "channel": 0}, {"type": "note_off", "time": 63, "note": 80, "velocity": 114, "channel": 0}, {"type": "note_on", "time": 0, "note": 77, "velocity": 109, "channel": 0}, {"type": "note_off", "time": 135, "note": 77, "velocity": 109, "channel": 0}, {"type": "note_on", "time": 1, "note": 74, "velocity": 100, "channel": 0}, {"type": "note_off", "time": 38, "note": 74, "velocity": 100, "channel": 0}, {"type": "note_on", "time": 17, "note": 77, "velocity": 114, "channel": 0}, {"type": "note_off", "time": 135, "note": 77, "velocity": 114, "channel": 0}, {"type": "note_on", "time": 20, "note": 77, "velocity": 80, "channel": 0}, {"type": "note_off", "time": 66, "note": 77, "velocity": 80, "channel": 0}, {"type": "note_on", "time": 132, "note": 80, "velocity": 114, "channel": 0}, {"type": "note_off", "time": 135, "note": 80, "velocity": 114, "channel": 0}, {"type": "note_on", "time": 754, "note": 77, "velocity": 119, "channel": 0}, {"type": "note_off", "time": 66, "note": 77, "velocity": 119, "channel": 0}, {"type": "note_on", "time": 37, "note": 80, "velocity": 118, "channel": 0}, {"type": "note_off", "time": 86, "note": 80, "velocity": 118, "channel": 0}, {"type": "note_on", "time": 23, "note": 82, "velocity": 117, "channel": 0}, {"type": "note_off", "time": 86, "note": 82, "velocity": 117, "channel": 0}, {"type": "note_on", "time": 25, "note": 83, "velocity": 121, "channel": 0}, {"type": "note_off", "time": 83, "note": 83, "velocity": 121, "channel": 0}, {"type": "note_on", "time": 0, "note": 84, "velocity": 119, "channel": 0}, {"type": "note_off", "time": 244, "note": 84, "velocity": 119, "channel": 0}, {"type": "note_on", "time": 10, "note": 82, "velocity": 95, "channel": 0}, {"type": "note_off", "time": 27, "note": 82, "velocity": 95, "channel": 0}, {"type": "note_on", "time": 6, "note": 84, "velocity": 103, "channel": 0}, {"type": "note_off", "time": 32, "note": 84, "velocity": 103, "channel": 0}, {"type": "note_on", "time": 7, "note": 80, "velocity": 112, "channel": 0}, {"type": "note_off", "time": 27, "note": 80, "velocity": 112, "channel": 0}, {"type": "note_on", "time": 0, "note": 77, "velocity": 114, "channel": 0}, {"type": "note_off", "time": 16, "note": 77, "velocity": 114, "channel": 0}, {"type": "note_on", "time": 1, "note": 75, "velocity": 113, "channel": 0}, {"type": "note_off", "time": 63, "note": 75, "velocity": 113, "channel": 0}, {"type": "note_on", "time": 0, "note": 77, "velocity": 112, "channel": 0}, {"type": "note_off", "time": 89, "note": 77, "velocity": 112, "channel": 0}, {"type": "note_on", "time": 466, "note": 83, "velocity": 119, "channel": 0}, {"type": "note_off", "time": 120, "note": 83, "velocity": 119, "channel": 0}, {"type": "note_on", "time": 12, "note": 84, "velocity": 122, "channel": 0}, {"type": "note_off", "time": 321, "note": 84, "velocity": 122, "channel": 0}, {"type": "note_on", "time": 8, "note": 82, "velocity": 94, "channel": 0}, {"type": "note_off", "time": 40, "note": 82, "velocity": 94, "channel": 0}, {"type": "note_on", "time": 1, "note": 79, "velocity": 107, "channel": 0}, {"type": "note_off", "time": 46, "note": 79, "velocity": 107, "channel": 0}, {"type": "note_on", "time": 13, "note": 77, "velocity": 109, "channel": 0}, {"type": "note_off", "time": 49, "note": 77, "velocity": 109, "channel": 0}, {"type": "note_on", "time": 8, "note": 77, "velocity": 115, "channel": 0}, {"type": "note_off", "time": 40, "note": 77, "velocity": 115, "channel": 0}, {"type": "note_on", "time": 479, "note": 84, "velocity": 103, "channel": 0}, {"type": "note_off", "time": 72, "note": 84, "velocity": 103, "channel": 0}, {"type": "note_on", "time": 14, "note": 88, "velocity": 113, "channel": 0}, {"type": "note_off", "time": 87, "note": 88, "velocity": 113, "channel": 0}, {"type": "note_on", "time": 13, "note": 84, "velocity": 112, "channel": 0}, {"type": "note_off", "time": 118, "note": 84, "velocity": 112, "channel": 0}, {"type": "note_on", "time": 14, "note": 83, "velocity": 117, "channel": 0}, {"type": "note_off", "time": 66, "note": 83, "velocity": 117, "channel": 0}, {"type": "note_on", "time": 14, "note": 80, "velocity": 116, "channel": 0}, {"type": "note_off", "time": 92, "note": 80, "velocity": 116, "channel": 0}, {"type": "note_on", "time": 0, "note": 80, "velocity": 113, "channel": 0}, {"type": "note_off", "time": 83, "note": 80, "velocity": 113, "channel": 0}, {"type": "note_on", "time": 14, "note": 77, "velocity": 117, "channel": 0}, {"type": "note_off", "time": 86, "note": 77, "velocity": 117, "channel": 0}, {"type": "note_on", "time": 21, "note": 75, "velocity": 117, "channel": 0}, {"type": "note_off", "time": 31, "note": 75, "velocity": 117, "channel": 0}, {"type": "note_on", "time": 39, "note": 72, "velocity": 110, "channel": 0}, {"type": "note_off", "time": 95, "note": 72, "velocity": 110, "channel": 0}, {"type": "note_on", "time": 16, "note": 70, "velocity": 113, "channel": 0}, {"type": "note_off", "time": 32, "note": 70, "velocity": 113, "channel": 0}, {"type": "note_on", "time": 16, "note": 68, "velocity": 105, "channel": 0}, {"type": "note_off", "time": 115, "note": 68, "velocity": 105, "channel": 0}, {"type": "note_on", "time": 67, "note": 69, "velocity": 101, "channel": 0}, {"type": "note_off", "time": 100, "note": 69, "velocity": 101, "channel": 0}, {"type": "note_on", "time": 616, "note": 65, "velocity": 114, "channel": 0}, {"type": "note_off", "time": 47, "note": 65, "velocity": 114, "channel": 0}, {"type": "note_on", "time": 29, "note": 68, "velocity": 9, "channel": 0}, {"type": "note_off", "time": 74, "note": 68, "velocity": 9, "channel": 0}, {"type": "note_on", "time": 38, "note": 72, "velocity": 113, "channel": 0}, {"type": "note_off", "time": 47, "note": 72, "velocity": 113, "channel": 0}, {"type": "note_on", "time": 5, "note": 75, "velocity": 120, "channel": 0}, {"type": "note_off", "time": 119, "note": 75, "velocity": 120, "channel": 0}, {"type": "note_on", "time": 17, "note": 77, "velocity": 115, "channel": 0}, {"type": "note_off", "time": 174, "note": 77, "velocity": 115, "channel": 0}, {"type": "note_on", "time": 6, "note": 78, "velocity": 121, "channel": 0}, {"type": "note_off", "time": 59, "note": 78, "velocity": 121, "channel": 0}, {"type": "note_on", "time": 16, "note": 75, "velocity": 116, "channel": 0}, {"type": "note_off", "time": 92, "note": 75, "velocity": 116, "channel": 0}, {"type": "note_on", "time": 85, "note": 80, "velocity": 119, "channel": 0}, {"type": "note_off", "time": 123, "note": 80, "velocity": 119, "channel": 0}, {"type": "note_on", "time": 442, "note": 80, "velocity": 123, "channel": 0}, {"type": "note_off", "time": 53, "note": 80, "velocity": 123, "channel": 0}, {"type": "note_on", "time": 13, "note": 79, "velocity": 109, "channel": 0}, {"type": "note_off", "time": 35, "note": 79, "velocity": 109, "channel": 0}, {"type": "note_on", "time": 6, "note": 77, "velocity": 118, "channel": 0}, {"type": "note_off", "time": 74, "note": 77, "velocity": 118, "channel": 0}, {"type": "note_on", "time": 10, "note": 76, "velocity": 124, "channel": 0}, {"type": "note_off", "time": 109, "note": 76, "velocity": 124, "channel": 0}, {"type": "note_on", "time": 13, "note": 73, "velocity": 117, "channel": 0}, {"type": "note_off", "time": 51, "note": 73, "velocity": 117, "channel": 0}, {"type": "note_on", "time": 8, "note": 72, "velocity": 114, "channel": 0}, {"type": "note_off", "time": 120, "note": 72, "velocity": 114, "channel": 0}, {"type": "note_on", "time": 0, "note": 70, "velocity": 116, "channel": 0}, {"type": "note_off", "time": 47, "note": 70, "velocity": 116, "channel": 0}, {"type": "note_on", "time": 36, "note": 68, "velocity": 109, "channel": 0}, {"type": "note_off", "time": 100, "note": 68, "velocity": 109, "channel": 0}, {"type": "note_on", "time": 14, "note": 77, "velocity": 120, "channel": 0}, {"type": "note_off", "time": 54, "note": 77, "velocity": 120, "channel": 0}, {"type": "note_on", "time": 192, "note": 77, "velocity": 117, "channel": 0}, {"type": "note_off", "time": 89, "note": 77, "velocity": 117, "channel": 0}, {"type": "note_on", "time": 281, "note": 77, "velocity": 117, "channel": 0}, {"type": "note_off", "time": 118, "note": 77, "velocity": 117, "channel": 0}, {"type": "note_on", "time": 14, "note": 74, "velocity": 91, "channel": 0}, {"type": "note_off", "time": 44, "note": 74, "velocity": 91, "channel": 0}, {"type": "note_on", "time": 8, "note": 80, "velocity": 119, "channel": 0}, {"type": "note_off", "time": 126, "note": 80, "velocity": 119, "channel": 0}, {"type": "note_on", "time": 9, "note": 77, "velocity": 112, "channel": 0}, {"type": "note_off", "time": 210, "note": 77, "velocity": 112, "channel": 0}, {"type": "note_on", "time": 28, "note": 75, "velocity": 116, "channel": 0}, {"type": "note_off", "time": 83, "note": 75, "velocity": 116, "channel": 0}, {"type": "note_on", "time": 240, "note": 77, "velocity": 122, "channel": 0}, {"type": "note_off", "time": 43, "note": 77, "velocity": 122, "channel": 0}, {"type": "note_on", "time": 18, "note": 80, "velocity": 123, "channel": 0}, {"type": "note_off", "time": 49, "note": 80, "velocity": 123, "channel": 0}, {"type": "note_on", "time": 13, "note": 77, "velocity": 115, "channel": 0}, {"type": "note_off", "time": 51, "note": 77, "velocity": 115, "channel": 0}, {"type": "note_on", "time": 17, "note": 75, "velocity": 117, "channel": 0}, {"type": "note_off", "time": 69, "note": 75, "velocity": 117, "channel": 0}, {"type": "note_on", "time": 0, "note": 72, "velocity": 111, "channel": 0}, {"type": "note_off", "time": 120, "note": 72, "velocity": 111, "channel": 0}, {"type": "note_on", "time": 2, "note": 70, "velocity": 115, "channel": 0}, {"type": "note_off", "time": 47, "note": 70, "velocity": 115, "channel": 0}, {"type": "note_on", "time": 14, "note": 68, "velocity": 109, "channel": 0}, {"type": "note_off", "time": 48, "note": 68, "velocity": 109, "channel": 0}, {"type": "note_on", "time": 42, "note": 65, "velocity": 86, "channel": 0}, {"type": "note_off", "time": 48, "note": 65, "velocity": 86, "channel": 0}, {"type": "note_on", "time": 41, "note": 68, "velocity": 105, "channel": 0}, {"type": "note_off", "time": 100, "note": 68, "velocity": 105, "channel": 0}, {"type": "note_on", "time": 398, "note": 65, "velocity": 106, "channel": 0}, {"type": "note_off", "time": 57, "note": 65, "velocity": 106, "channel": 0}, {"type": "note_on", "time": 0, "note": 68, "velocity": 114, "channel": 0}, {"type": "note_off", "time": 112, "note": 68, "velocity": 114, "channel": 0}, {"type": "note_on", "time": 20, "note": 70, "velocity": 123, "channel": 0}, {"type": "note_off", "time": 46, "note": 70, "velocity": 123, "channel": 0}, {"type": "note_on", "time": 11, "note": 71, "velocity": 115, "channel": 0}, {"type": "note_off", "time": 57, "note": 71, "velocity": 115, "channel": 0}, {"type": "note_on", "time": 0, "note": 72, "velocity": 118, "channel": 0}, {"type": "note_off", "time": 48, "note": 72, "velocity": 118, "channel": 0}, {"type": "note_on", "time": 0, "note": 72, "velocity": 120, "channel": 0}, {"type": "note_off", "time": 69, "note": 72, "velocity": 120, "channel": 0}, {"type": "note_on", "time": 0, "note": 71, "velocity": 115, "channel": 0}, {"type": "note_off", "time": 69, "note": 71, "velocity": 115, "channel": 0}, {"type": "note_on", "time": 5, "note": 72, "velocity": 82, "channel": 0}, {"type": "note_off", "time": 31, "note": 72, "velocity": 82, "channel": 0}, {"type": "note_on", "time": 2, "note": 72, "velocity": 119, "channel": 0}, {"type": "note_off", "time": 63, "note": 72, "velocity": 119, "channel": 0}, {"type": "note_on", "time": 6, "note": 71, "velocity": 115, "channel": 0}, {"type": "note_off", "time": 71, "note": 71, "velocity": 115, "channel": 0}, {"type": "note_on", "time": 2, "note": 72, "velocity": 118, "channel": 0}, {"type": "note_off", "time": 54, "note": 72, "velocity": 118, "channel": 0}, {"type": "note_on", "time": 0, "note": 72, "velocity": 115, "channel": 0}, {"type": "note_off", "time": 57, "note": 72, "velocity": 115, "channel": 0}, {"type": "note_on", "time": 0, "note": 71, "velocity": 112, "channel": 0}, {"type": "note_off", "time": 54, "note": 71, "velocity": 112, "channel": 0}, {"type": "note_on", "time": 0, "note": 72, "velocity": 112, "channel": 0}, {"type": "note_off", "time": 74, "note": 72, "velocity": 112, "channel": 0}, {"type": "note_on", "time": 6, "note": 72, "velocity": 118, "channel": 0}, {"type": "note_off", "time": 60, "note": 72, "velocity": 118, "channel": 0}, {"type": "note_on", "time": 4, "note": 71, "velocity": 114, "channel": 0}, {"type": "note_off", "time": 54, "note": 71, "velocity": 114, "channel": 0}, {"type": "note_on", "time": 8, "note": 72, "velocity": 116, "channel": 0}, {"type": "note_off", "time": 60, "note": 72, "velocity": 116, "channel": 0}, {"type": "note_on", "time": 0, "note": 72, "velocity": 116, "channel": 0}, {"type": "note_off", "time": 74, "note": 72, "velocity": 116, "channel": 0}, {"type": "note_on", "time": 0, "note": 71, "velocity": 115, "channel": 0}, {"type": "note_off", "time": 54, "note": 71, "velocity": 115, "channel": 0}, {"type": "note_on", "time": 0, "note": 72, "velocity": 114, "channel": 0}, {"type": "note_off", "time": 66, "note": 72, "velocity": 114, "channel": 0}, {"type": "note_on", "time": 0, "note": 72, "velocity": 113, "channel": 0}, {"type": "note_off", "time": 71, "note": 72, "velocity": 113, "channel": 0}, {"type": "note_on", "time": 5, "note": 71, "velocity": 114, "channel": 0}, {"type": "note_off", "time": 54, "note": 71, "velocity": 114, "channel": 0}, {"type": "note_on", "time": 0, "note": 72, "velocity": 114, "channel": 0}, {"type": "note_on", "time": 63, "note": 72, "velocity": 113, "channel": 0}, {"type": "note_off", "time": 0, "note": 72, "velocity": 114, "channel": 0}, {"type": "note_off", "time": 37, "note": 72, "velocity": 113, "channel": 0}, {"type": "note_on", "time": 34, "note": 71, "velocity": 111, "channel": 0}, {"type": "note_off", "time": 51, "note": 71, "velocity": 111, "channel": 0}, {"type": "note_on", "time": 0, "note": 72, "velocity": 112, "channel": 0}, {"type": "note_off", "time": 57, "note": 72, "velocity": 112, "channel": 0}, {"type": "note_on", "time": 0, "note": 72, "velocity": 113, "channel": 0}, {"type": "note_off", "time": 74, "note": 72, "velocity": 113, "channel": 0}, {"type": "note_on", "time": 0, "note": 75, "velocity": 122, "channel": 0}, {"type": "note_off", "time": 129, "note": 75, "velocity": 122, "channel": 0}, {"type": "note_on", "time": 4, "note": 77, "velocity": 99, "channel": 0}, {"type": "note_off", "time": 51, "note": 77, "velocity": 99, "channel": 0}, {"type": "note_on", "time": 184, "note": 80, "velocity": 122, "channel": 0}, {"type": "note_off", "time": 120, "note": 80, "velocity": 122, "channel": 0}, {"type": "note_on", "time": 4, "note": 77, "velocity": 109, "channel": 0}, {"type": "note_off", "time": 31, "note": 77, "velocity": 109, "channel": 0}, {"type": "note_on", "time": 228, "note": 77, "velocity": 119, "channel": 0}, {"type": "note_off", "time": 120, "note": 77, "velocity": 119, "channel": 0}, {"type": "note_on", "time": 14, "note": 75, "velocity": 96, "channel": 0}, {"type": "note_off", "time": 43, "note": 75, "velocity": 96, "channel": 0}, {"type": "note_on", "time": 199, "note": 75, "velocity": 123, "channel": 0}, {"type": "note_off", "time": 118, "note": 75, "velocity": 123, "channel": 0}, {"type": "note_on", "time": 13, "note": 72, "velocity": 112, "channel": 0}, {"type": "note_off", "time": 38, "note": 72, "velocity": 112, "channel": 0}, {"type": "note_on", "time": 13, "note": 75, "velocity": 122, "channel": 0}, {"type": "note_off", "time": 184, "note": 75, "velocity": 122, "channel": 0}, {"type": "note_on", "time": 6, "note": 77, "velocity": 114, "channel": 0}, {"type": "note_off", "time": 151, "note": 77, "velocity": 114, "channel": 0}, {"type": "note_on", "time": 13, "note": 77, "velocity": 110, "channel": 0}, {"type": "note_off", "time": 274, "note": 77, "velocity": 110, "channel": 0}, {"type": "end_of_track", "time": 0}]]}