{"ticks_per_beat": 192, "tracks": [[{"type": "track_name", "name": "Melody", "time": 0}, {"type": "set_tempo", "tempo": 231660, "time": 0}, {"type": "time_signature", "numerator": 1, "denominator": 4, "clocks_per_click": 24, "notated_32nd_notes_per_beat": 8, "time": 0}, {"type": "note_on", "time": 3942, "note": 66, "velocity": 109, "channel": 0}, {"type": "note_off", "time": 75, "note": 66, "velocity": 109, "channel": 0}, {"type": "note_on", "time": 52, "note": 69, "velocity": 118, "channel": 0}, {"type": "note_off", "time": 90, "note": 69, "velocity": 118, "channel": 0}, {"type": "note_on", "time": 10, "note": 70, "velocity": 119, "channel": 0}, {"type": "note_off", "time": 61, "note": 70, "velocity": 119, "channel": 0}, {"type": "note_on", "time": 13, "note": 71, "velocity": 117, "channel": 0}, {"type": "note_off", "time": 66, "note": 71, "velocity": 117, "channel": 0}, {"type": "note_on", "time": 12, "note": 72, "velocity": 122, "channel": 0}, {"type": "note_off", "time": 183, "note": 72, "velocity": 122, "channel": 0}, {"type": "note_on", "time": 2, "note": 69, "velocity": 105, "channel": 0}, {"type": "note_off", "time": 59, "note": 69, "velocity": 105, "channel": 0}, {"type": "note_on", "time": 10, "note": 70, "velocity": 114, "channel": 0}, {"type": "note_off", "time": 86, "note": 70, "velocity": 114, "channel": 0}, {"type": "note_on", "time": 12, "note": 68, "velocity": 113, "channel": 0}, {"type": "note_off", "time": 86, "note": 68, "velocity": 113, "channel": 0}, {"type": "note_on", "time": 11, "note": 69, "velocity": 115, "channel": 0}, {"type": "note_off", "time": 103, "note": 69, "velocity": 115, "channel": 0}, {"type": "note_on", "time": 13, "note": 68, "velocity": 104, "channel": 0}, {"type": "note_off", "time": 84, "note": 68, "velocity": 104, "channel": 0}, {"type": "note_on", "time": 12, "note": 67, "velocity": 93, "channel": 0}, {"type": "note_off", "time": 104, "note": 67, "velocity": 93, "channel": 0}, {"type": "note_on", "time": 6, "note": 66, "velocity": 102, "channel": 0}, {"type": "note_off", "time": 72, "note": 66, "velocity": 102, "channel": 0}, {"type": "note_on", "time": 5, "note": 65, "velocity": 92, "channel": 0}, {"type": "note_off", "time": 62, "note": 65, "velocity": 92, "channel": 0}, {"type": "note_on", "time": 0, "note": 64, "velocity": 85, "channel": 0}, {"type": "note_off", "time": 50, "note": 64, "velocity": 85, "channel": 0}, {"type": "note_on", "time": 10, "note": 63, "velocity": 84, "channel": 0}, {"type": "note_off", "time": 53, "note": 63, "velocity": 84, "channel": 0}, {"type": "note_on", "time": 14, "note": 65, "velocity": 102, "channel": 0}, {"type": "note_off", "time": 53, "note": 65, "velocity": 102, "channel": 0}, {"type": "note_on", "time": 38, "note": 62, "velocity": 96, "channel": 0}, {"type": "note_off", "time": 78, "note": 62, "velocity": 96, "channel": 0}, {"type": "note_on", "time": 66, "note": 66, "velocity": 95, "channel": 0}, {"type": "note_off", "time": 49, "note": 66, "velocity": 95, "channel": 0}, {"type": "note_on", "time": 9, "note": 66, "velocity": 103, "channel": 0}, {"type": "note_off", "time": 52, "note": 66, "velocity": 103, "channel": 0}, {"type": "note_on", "time": 5, "note": 65, "velocity": 102, "channel": 0}, {"type": "note_off", "time": 37, "note": 65, "velocity": 102, "channel": 0}, {"type": "note_on", "time": 350, "note": 66, "velocity": 108, "channel": 0}, {"type": "note_off", "time": 53, "note": 66, "velocity": 108, "channel": 0}, {"type": "note_on", "time": 10, "note": 66, "velocity": 115, "channel": 0}, {"type": "note_off", "time": 45, "note": 66, "velocity": 115, "channel": 0}, {"type": "note_on", "time": 19, "note": 67, "velocity": 108, "channel": 0}, {"type": "note_off", "time": 49, "note": 67, "velocity": 108, "channel": 0}, {"type": "note_on", "time": 19, "note": 70, "velocity": 107, "channel": 0}, {"type": "note_off", "time": 88, "note": 70, "velocity": 107, "channel": 0}, {"type": "note_on", "time": 7, "note": 68, "velocity": 111, "channel": 0}, {"type": "note_off", "time": 76, "note": 68, "velocity": 111, "channel": 0}, {"type": "note_on", "time": 16, "note": 69, "velocity": 105, "channel": 0}, {"type": "note_off", "time": 36, "note": 69, "velocity": 105, "channel": 0}, {"type": "note_on", "time": 10, "note": 67, "velocity": 104, "channel": 0}, {"type": "note_off", "time": 45, "note": 67, "velocity": 104, "channel": 0}, {"type": "note_on", "time": 2, "note": 68, "velocity": 101, "channel": 0}, {"type": "note_off", "time": 32, "note": 68, "velocity": 101, "channel": 0}, {"type": "note_on", "time": 27, "note": 65, "velocity": 102, "channel": 0}, {"type": "note_off", "time": 54, "note": 65, "velocity": 102, "channel": 0}, {"type": "note_on", "time": 20, "note": 62, "velocity": 95, "channel": 0}, {"type": "note_off", "time": 83, "note": 62, "velocity": 95, "channel": 0}, {"type": "note_on", "time": 21, "note": 58, "velocity": 94, "channel": 0}, {"type": "note_off", "time": 61, "note": 58, "velocity": 94, "channel": 0}, {"type": "note_on", "time": 6, "note": 62, "velocity": 107, "channel": 0}, {"type": "note_off", "time": 96, "note": 62, "velocity": 107, "channel": 0}, {"type": "note_on", "time": 36, "note": 65, "velocity": 102, "channel": 0}, {"type": "note_off", "time": 82, "note": 65, "velocity": 102, "channel": 0}, {"type": "note_on", "time": 14, "note": 62, "velocity": 93, "channel": 0}, {"type": "note_off", "time": 73, "note": 62, "velocity": 93, "channel": 0}, {"type": "note_on", "time": 16, "note": 58, "velocity": 86, "channel": 0}, {"type": "note_off", "time": 70, "note": 58, "velocity": 86, "channel": 0}, {"type": "note_on", "time": 4, "note": 63, "velocity": 96, "channel": 0}, {"type": "note_off", "time": 82, "note": 63, "velocity": 96, "channel": 0}, {"type": "note_on", "time": 66, "note": 68, "velocity": 89, "channel": 0}, {"type": "note_off", "time": 35, "note": 68, "velocity": 89, "channel": 0}, {"type": "note_on", "time": 2, "note": 70, "velocity": 102, "channel": 0}, {"type": "note_off", "time": 82, "note": 70, "velocity": 102, "channel": 0}, {"type": "note_on", "time": 30, "note": 74, "velocity": 114, "channel": 0}, {"type": "note_off", "time": 99, "note": 74, "velocity": 114, "channel": 0}, {"type": "note_on", "time": 317, "note": 72, "velocity": 117, "channel": 0}, {"type": "note_off", "time": 93, "note": 72, "velocity": 117, "channel": 0}, {"type": "note_on", "time": 12, "note": 74, "velocity": 110, "channel": 0}, {"type": "note_off", "time": 64, "note": 74, "velocity": 110, "channel": 0}, {"type": "note_on", "time": 5, "note": 72, "velocity": 110, "channel": 0}, {"type": "note_off", "time": 37, "note": 72, "velocity": 110, "channel": 0}, {"type": "note_on", "time": 17, "note": 70, "velocity": 110, "channel": 0}, {"type": "note_off", "time": 56, "note": 70, "velocity": 110, "channel": 0}, {"type": "note_on", "time": 12, "note": 68, "velocity": 108, "channel": 0}, {"type": "note_off", "time": 79, "note": 68, "velocity": 108, "channel": 0}, {"type": "note_on", "time": 27, "note": 70, "velocity": 111, "channel": 0}, {"type": "note_off", "time": 92, "note": 70, "velocity": 111, "channel": 0}, {"type": "note_on", "time": 16, "note": 65, "velocity": 102, "channel": 0}, {"type": "note_off", "time": 76, "note": 65, "velocity": 102, "channel": 0}, {"type": "note_on", "time": 35, "note": 62, "velocity": 95, "channel": 0}, {"type": "note_off", "time": 57, "note": 62, "velocity": 95, "channel": 0}, {"type": "note_on", "time": 54, "note": 58, "velocity": 93, "channel": 0}, {"type": "note_off", "time": 65, "note": 58, "velocity": 93, "channel": 0}, {"type": "note_on", "time": 15, "note": 67, "velocity": 112, "channel": 0}, {"type": "note_off", "time": 89, "note": 67, "velocity": 112, "channel": 0}, {"type": "note_on", "time": 21, "note": 62, "velocity": 86, "channel": 0}, {"type": "note_off", "time": 33, "note": 62, "velocity": 86, "channel": 0}, {"type": "note_on", "time": 22, "note": 65, "velocity": 107, "channel": 0}, {"type": "note_off", "time": 104, "note": 65, "velocity": 107, "channel": 0}, {"type": "note_on", "time": 39, "note": 62, "velocity": 94, "channel": 0}, {"type": "note_off", "time": 146, "note": 62, "velocity": 94, "channel": 0}, {"type": "note_on", "time": 35, "note": 62, "velocity": 94, "channel": 0}, {"type": "note_off", "time": 48, "note": 62, "velocity": 94, "channel": 0}, {"type": "note_on", "time": 17, "note": 58, "velocity": 97, "channel": 0}, {"type": "note_off", "time": 97, "note": 58, "velocity": 97, "channel": 0}, {"type": "note_on", "time": 17, "note": 55, "velocity": 90, "channel": 0}, {"type": "note_off", "time": 58, "note": 55, "velocity": 90, "channel": 0}, {"type": "note_on", "time": 11, "note": 60, "velocity": 95, "channel": 0}, {"type": "note_off", "time": 109, "note": 60, "velocity": 95, "channel": 0}, {"type": "note_on", "time": 41, "note": 58, "velocity": 95, "channel": 0}, {"type": "note_off", "time": 96, "note": 58, "velocity": 95, "channel": 0}, {"type": "note_on", "time": 352, "note": 62, "velocity": 108, "channel": 0}, {"type": "note_off", "time": 130, "note": 62, "velocity": 108, "channel": 0}, {"type": "note_on", "time": 2, "note": 63, "velocity": 101, "channel": 0}, {"type": "note_off", "time": 67, "note": 63, "velocity": 101, "channel": 0}, {"type": "note_on", "time": 6, "note": 65, "velocity": 106, "channel": 0}, {"type": "note_off", "time": 93, "note": 65, "velocity": 106, "channel": 0}, {"type": "note_on", "time": 2, "note": 67, "velocity": 111, "channel": 0}, {"type": "note_off", "time": 64, "note": 67, "velocity": 111, "channel": 0}, {"type": "note_on", "time": 14, "note": 69, "velocity": 122, "channel": 0}, {"type": "note_off", "time": 101, "note": 69, "velocity": 122, "channel": 0}, {"type": "note_on", "time": 11, "note": 70, "velocity": 115, "channel": 0}, {"type": "note_off", "time": 90, "note": 70, "velocity": 115, "channel": 0}, {"type": "note_on", "time": 1, "note": 71, "velocity": 117, "channel": 0}, {"type": "note_off", "time": 90, "note": 71, "velocity": 117, "channel": 0}, {"type": "note_on", "time": 11, "note": 72, "velocity": 119, "channel": 0}, {"type": "note_off", "time": 171, "note": 72, "velocity": 119, "channel": 0}, {"type": "note_on", "time": 8, "note": 69, "velocity": 104, "channel": 0}, {"type": "note_off", "time": 48, "note": 69, "velocity": 104, "channel": 0}, {"type": "note_on", "time": 14, "note": 67, "velocity": 96, "channel": 0}, {"type": "note_off", "time": 56, "note": 67, "velocity": 96, "channel": 0}, {"type": "note_on", "time": 10, "note": 70, "velocity": 110, "channel": 0}, {"type": "note_off", "time": 108, "note": 70, "velocity": 110, "channel": 0}, {"type": "note_on", "time": 10, "note": 65, "velocity": 91, "channel": 0}, {"type": "note_off", "time": 712, "note": 65, "velocity": 91, "channel": 0}, {"type": "note_on", "time": 307, "note": 65, "velocity": 102, "channel": 0}, {"type": "note_off", "time": 46, "note": 65, "velocity": 102, "channel": 0}, {"type": "note_on", "time": 38, "note": 63, "velocity": 84, "channel": 0}, {"type": "note_off", "time": 93, "note": 63, "velocity": 84, "channel": 0}, {"type": "note_on", "time": 11, "note": 64, "velocity": 80, "channel": 0}, {"type": "note_off", "time": 38, "note": 64, "velocity": 80, "channel": 0}, {"type": "note_on", "time": 12, "note": 65, "velocity": 88, "channel": 0}, {"type": "note_off", "time": 87, "note": 65, "velocity": 88, "channel": 0}, {"type": "note_on", "time": 16, "note": 63, "velocity": 73, "channel": 0}, {"type": "note_off", "time": 51, "note": 63, "velocity": 73, "channel": 0}, {"type": "note_on", "time": 169, "note": 64, "velocity": 93, "channel": 0}, {"type": "note_off", "time": 100, "note": 64, "velocity": 93, "channel": 0}, {"type": "note_on", "time": 27, "note": 64, "velocity": 93, "channel": 0}, {"type": "note_off", "time": 90, "note": 64, "velocity": 93, "channel": 0}, {"type": "note_on", "time": 72, "note": 65, "velocity": 107, "channel": 0}, {"type": "note_off", "time": 72, "note": 65, "velocity": 107, "channel": 0}, {"type": "note_on", "time": 13, "note": 62, "velocity": 97, "channel": 0}, {"type": "note_off", "time": 69, "note": 62, "velocity": 97, "channel": 0}, {"type": "note_on", "time": 39, "note": 63, "velocity": 89, "channel": 0}, {"type": "note_off", "time": 52, "note": 63, "velocity": 89, "channel": 0}, {"type": "note_on", "time": 17, "note": 74, "velocity": 99, "channel": 0}, {"type": "note_off", "time": 127, "note": 74, "velocity": 99, "channel": 0}, {"type": "note_on", "time": 379, "note": 72, "velocity": 123, "channel": 0}, {"type": "note_off", "time": 105, "note": 72, "velocity": 123, "channel": 0}, {"type": "note_on", "time": 2, "note": 70, "velocity": 114, "channel": 0}, {"type": "note_off", "time": 93, "note": 70, "velocity": 114, "channel": 0}, {"type": "note_on", "time": 27, "note": 69, "velocity": 115, "channel": 0}, {"type": "note_off", "time": 107, "note": 69, "velocity": 115, "channel": 0}, {"type": "note_on", "time": 64, "note": 70, "velocity": 107, "channel": 0}, {"type": "note_off", "time": 101, "note": 70, "velocity": 107, "channel": 0}, {"type": "note_on", "time": 17, "note": 68, "velocity": 83, "channel": 0}, {"type": "note_off", "time": 65, "note": 68, "velocity": 83, "channel": 0}, {"type": "note_on", "time": 16, "note": 69, "velocity": 75, "channel": 0}, {"type": "note_off", "time": 50, "note": 69, "velocity": 75, "channel": 0}, {"type": "note_on", "time": 38, "note": 70, "velocity": 113, "channel": 0}, {"type": "note_off", "time": 86, "note": 70, "velocity": 113, "channel": 0}, {"type": "note_on", "time": 68, "note": 74, "velocity": 115, "channel": 0}, {"type": "note_off", "time": 102, "note": 74, "velocity": 115, "channel": 0}, {"type": "note_on", "time": 17, "note": 72, "velocity": 112, "channel": 0}, {"type": "note_off", "time": 69, "note": 72, "velocity": 112, "channel": 0}, {"type": "note_on", "time": 6, "note": 70, "velocity": 111, "channel": 0}, {"type": "note_off", "time": 113, "note": 70, "velocity": 111, "channel": 0}, {"type": "note_on", "time": 35, "note": 72, "velocity": 114, "channel": 0}, {"type": "note_off", "time": 119, "note": 72, "velocity": 114, "channel": 0}, {"type": "note_on", "time": 21, "note": 70, "velocity": 111, "channel": 0}, {"type": "note_off", "time": 96, "note": 70, "velocity": 111, "channel": 0}, {"type": "note_on", "time": 11, "note": 69, "velocity": 119, "channel": 0}, {"type": "note_off", "time": 130, "note": 69, "velocity": 119, "channel": 0}, {"type": "note_on", "time": 733, "note": 70, "velocity": 116, "channel": 0}, {"type": "note_off", "time": 89, "note": 70, "velocity": 116, "channel": 0}, {"type": "note_on", "time": 0, "note": 71, "velocity": 122, "channel": 0}, {"type": "note_off", "time": 53, "note": 71, "velocity": 122, "channel": 0}, {"type": "note_on", "time": 6, "note": 70, "velocity": 117, "channel": 0}, {"type": "note_off", "time": 52, "note": 70, "velocity": 117, "channel": 0}, {"type": "note_on", "time": 22, "note": 64, "velocity": 100, "channel": 0}, {"type": "note_off", "time": 31, "note": 64, "velocity": 100, "channel": 0}, {"type": "note_on", "time": 7, "note": 63, "velocity": 107, "channel": 0}, {"type": "note_off", "time": 36, "note": 63, "velocity": 107, "channel": 0}, {"type": "note_on", "time": 9, "note": 60, "velocity": 108, "channel": 0}, {"type": "note_off", "time": 43, "note": 60, "velocity": 108, "channel": 0}, {"type": "note_on", "time": 2, "note": 70, "velocity": 109, "channel": 0}, {"type": "note_off", "time": 61, "note": 70, "velocity": 109, "channel": 0}, {"type": "note_on", "time": 4, "note": 71, "velocity": 116, "channel": 0}, {"type": "note_off", "time": 47, "note": 71, "velocity": 116, "channel": 0}, {"type": "note_on", "time": 5, "note": 70, "velocity": 116, "channel": 0}, {"type": "note_off", "time": 59, "note": 70, "velocity": 116, "channel": 0}, {"type": "note_on", "time": 7, "note": 69, "velocity": 106, "channel": 0}, {"type": "note_off", "time": 85, "note": 69, "velocity": 106, "channel": 0}, {"type": "note_on", "time": 5, "note": 67, "velocity": 100, "channel": 0}, {"type": "note_off", "time": 67, "note": 67, "velocity": 100, "channel": 0}, {"type": "note_on", "time": 23, "note": 70, "velocity": 108, "channel": 0}, {"type": "note_off", "time": 120, "note": 70, "velocity": 108, "channel": 0}, {"type": "note_on", "time": 11, "note": 74, "velocity": 103, "channel": 0}, {"type": "note_off", "time": 76, "note": 74, "velocity": 103, "channel": 0}, {"type": "note_on", "time": 26, "note": 67, "velocity": 77, "channel": 0}, {"type": "note_off", "time": 89, "note": 67, "velocity": 77, "channel": 0}, {"type": "note_on", "time": 531, "note": 71, "velocity": 124, "channel": 0}, {"type": "note_off", "time": 57, "note": 71, "velocity": 124, "channel": 0}, {"type": "note_on", "time": 4, "note": 72, "velocity": 119, "channel": 0}, {"type": "note_off", "time": 81, "note": 72, "velocity": 119, "channel": 0}, {"type": "note_on", "time": 27, "note": 75, "velocity": 109, "channel": 0}, {"type": "note_off", "time": 104, "note": 75, "velocity": 109, "channel": 0}, {"type": "note_on", "time": 8, "note": 78, "velocity": 112, "channel": 0}, {"type": "note_off", "time": 649, "note": 78, "velocity": 112, "channel": 0}, {"type": "note_on", "time": 29, "note": 75, "velocity": 98, "channel": 0}, {"type": "note_off", "time": 243, "note": 75, "velocity": 98, "channel": 0}, {"type": "note_on", "time": 13, "note": 71, "velocity": 99, "channel": 0}, {"type": "note_off", "time": 32, "note": 71, "velocity": 99, "channel": 0}, {"type": "note_on", "time": 0, "note": 67, "velocity": 83, "channel": 0}, {"type": "note_off", "time": 134, "note": 67, "velocity": 83, "channel": 0}, {"type": "note_on", "time": 280, "note": 72, "velocity": 108, "channel": 0}, {"type": "note_off", "time": 63, "note": 72, "velocity": 108, "channel": 0}, {"type": "note_on", "time": 9, "note": 73, "velocity": 116, "channel": 0}, {"type": "note_off", "time": 87, "note": 73, "velocity": 116, "channel": 0}, {"type": "note_on", "time": 24, "note": 69, "velocity": 120, "channel": 0}, {"type": "note_off", "time": 63, "note": 69, "velocity": 120, "channel": 0}, {"type": "note_on", "time": 7, "note": 70, "velocity": 111, "channel": 0}, {"type": "note_off", "time": 28, "note": 70, "velocity": 111, "channel": 0}, {"type": "note_on", "time": 6, "note": 71, "velocity": 114, "channel": 0}, {"type": "note_off", "time": 51, "note": 71, "velocity": 114, "channel": 0}, {"type": "note_on", "time": 4, "note": 72, "velocity": 117, "channel": 0}, {"type": "note_off", "time": 52, "note": 72, "velocity": 117, "channel": 0}, {"type": "note_on", "time": 8, "note": 74, "velocity": 112, "channel": 0}, {"type": "note_off", "time": 63, "note": 74, "velocity": 112, "channel": 0}, {"type": "note_on", "time": 8, "note": 72, "velocity": 115, "channel": 0}, {"type": "note_off", "time": 104, "note": 72, "velocity": 115, "channel": 0}, {"type": "note_on", "time": 1, "note": 70, "velocity": 113, "channel": 0}, {"type": "note_off", "time": 75, "note": 70, "velocity": 113, "channel": 0}, {"type": "note_on", "time": 7, "note": 70, "velocity": 111, "channel": 0}, {"type": "note_off", "time": 48, "note": 70, "velocity": 111, "channel": 0}, {"type": "note_on", "time": 3, "note": 69, "velocity": 110, "channel": 0}, {"type": "note_off", "time": 120, "note": 69, "velocity": 110, "channel": 0}, {"type": "note_on", "time": 19, "note": 67, "velocity": 97, "channel": 0}, {"type": "note_off", "time": 68, "note": 67, "velocity": 97, "channel": 0}, {"type": "note_on", "time": 6, "note": 70, "velocity": 109, "channel": 0}, {"type": "note_off", "time": 85, "note": 70, "velocity": 109, "channel": 0}, {"type": "note_on", "time": 25, "note": 65, "velocity": 99, "channel": 0}, {"type": "note_off", "time": 71, "note": 65, "velocity": 99, "channel": 0}, {"type": "note_on", "time": 4, "note": 62, "velocity": 87, "channel": 0}, {"type": "note_off", "time": 93, "note": 62, "velocity": 87, "channel": 0}, {"type": "note_on", "time": 14, "note": 65, "velocity": 97, "channel": 0}, {"type": "note_off", "time": 72, "note": 65, "velocity": 97, "channel": 0}, {"type": "note_on", "time": 33, "note": 77, "velocity": 113, "channel": 0}, {"type": "note_off", "time": 99, "note": 77, "velocity": 113, "channel": 0}, {"type": "note_on", "time": 84, "note": 65, "velocity": 102, "channel": 0}, {"type": "note_off", "time": 69, "note": 65, "velocity": 102, "channel": 0}, {"type": "note_on", "time": 25, "note": 63, "velocity": 93, "channel": 0}, {"type": "note_off", "time": 90, "note": 63, "velocity": 93, "channel": 0}, {"type": "note_on", "time": 37, "note": 66, "velocity": 101, "channel": 0}, {"type": "note_off", "time": 72, "note": 66, "velocity": 101, "channel": 0}, {"type": "note_on", "time": 11, "note": 67, "velocity": 104, "channel": 0}, {"type": "note_off", "time": 93, "note": 67, "velocity": 104, "channel": 0}, {"type": "note_on", "time": 90, "note": 74, "velocity": 107, "channel": 0}, {"type": "note_off", "time": 111, "note": 74, "velocity": 107, "channel": 0}, {"type": "note_on", "time": 69, "note": 75, "velocity": 108, "channel": 0}, {"type": "note_off", "time": 111, "note": 75, "velocity": 108, "channel": 0}, {"type": "note_on", "time": 81, "note": 74, "velocity": 106, "channel": 0}, {"type": "note_off", "time": 126, "note": 74, "velocity": 106, "channel": 0}, {"type": "note_on", "time": 58, "note": 72, "velocity": 110, "channel": 0}, {"type": "note_off", "time": 63, "note": 72, "velocity": 110, "channel": 0}, {"type": "note_on", "time": 10, "note": 69, "velocity": 100, "channel": 0}, {"type": "note_off", "time": 79, "note": 69, "velocity": 100, "channel": 0}, {"type": "note_on", "time": 20, "note": 67, "velocity": 89, "channel": 0}, {"type": "note_off", "time": 92, "note": 67, "velocity": 89, "channel": 0}, {"type": "note_on", "time": 22, "note": 79, "velocity": 114, "channel": 0}, {"type": "note_off", "time": 93, "note": 79, "velocity": 114, "channel": 0}, {"type": "note_on", "time": 101, "note": 67, "velocity": 110, "channel": 0}, {"type": "note_off", "time": 99, "note": 67, "velocity": 110, "channel": 0}, {"type": "note_on", "time": 12, "note": 66, "velocity": 95, "channel": 0}, {"type": "note_off", "time": 93, "note": 66, "velocity": 95, "channel": 0}, {"type": "note_on", "time": 10, "note": 67, "velocity": 102, "channel": 0}, {"type": "note_off", "time": 100, "note": 67, "velocity": 102, "channel": 0}, {"type": "note_on", "time": 14, "note": 70, "velocity": 109, "channel": 0}, {"type": "note_off", "time": 86, "note": 70, "velocity": 109, "channel": 0}, {"type": "note_on", "time": 99, "note": 69, "velocity": 113, "channel": 0}, {"type": "note_off", "time": 99, "note": 69, "velocity": 113, "channel": 0}, {"type": "note_on", "time": 83, "note": 72, "velocity": 106, "channel": 0}, {"type": "note_off", "time": 36, "note": 72, "velocity": 106, "channel": 0}, {"type": "note_on", "time": 7, "note": 79, "velocity": 109, "channel": 0}, {"type": "note_off", "time": 58, "note": 79, "velocity": 109, "channel": 0}, {"type": "note_on", "time": 1079, "note": 77, "velocity": 118, "channel": 0}, {"type": "note_off", "time": 801, "note": 77, "velocity": 118, "channel": 0}, {"type": "note_on", "time": 20, "note": 74, "velocity": 105, "channel": 0}, {"type": "note_off", "time": 83, "note": 74, "velocity": 105, "channel": 0}, {"type": "note_on", "time": 18, "note": 70, "velocity": 95, "channel": 0}, {"type": "note_off", "time": 73, "note": 70, "velocity": 95, "channel": 0}, {"type": "note_on", "time": 20, "note": 75, "velocity": 107, "channel": 0}, {"type": "note_off", "time": 111, "note": 75, "velocity": 107, "channel": 0}, {"type": "note_on", "time": 6, "note": 77, "velocity": 113, "channel": 0}, {"type": "note_off", "time": 113, "note": 77, "velocity": 113, "channel": 0}, {"type": "note_on", "time": 83, "note": 74, "velocity": 108, "channel": 0}, {"type": "note_off", "time": 122, "note": 74, "velocity": 108, "channel": 0}, {"type": "note_on", "time": 81, "note": 70, "velocity": 107, "channel": 0}, {"type": "note_off", "time": 110, "note": 70, "velocity": 107, "channel": 0}, {"type": "note_on", "time": 62, "note": 72, "velocity": 100, "channel": 0}, {"type": "note_off", "time": 284, "note": 72, "velocity": 100, "channel": 0}, {"type": "note_on", "time": 694, "note": 78, "velocity": 108, "channel": 0}, {"type": "note_off", "time": 338, "note": 78, "velocity": 108, "channel": 0}, {"type": "note_on", "time": 15, "note": 74, "velocity": 107, "channel": 0}, {"type": "note_off", "time": 42, "note": 74, "velocity": 107, "channel": 0}, {"type": "note_on", "time": 11, "note": 74, "velocity": 110, "channel": 0}, {"type": "note_off", "time": 36, "note": 74, "velocity": 110, "channel": 0}, {"type": "note_on", "time": 16, "note": 70, "velocity": 103, "channel": 0}, {"type": "note_off", "time": 31, "note": 70, "velocity": 103, "channel": 0}, {"type": "note_on", "time": 4, "note": 67, "velocity": 98, "channel": 0}, {"type": "note_off", "time": 104, "note": 67, "velocity": 98, "channel": 0}, {"type": "note_on", "time": 3, "note": 70, "velocity": 94, "channel": 0}, {"type": "note_off", "time": 69, "note": 70, "velocity": 94, "channel": 0}, {"type": "note_on", "time": 8, "note": 72, "velocity": 109, "channel": 0}, {"type": "note_off", "time": 125, "note": 72, "velocity": 109, "channel": 0}, {"type": "note_on", "time": 429, "note": 75, "velocity": 115, "channel": 0}, {"type": "note_off", "time": 122, "note": 75, "velocity": 115, "channel": 0}, {"type": "note_on", "time": 9, "note": 74, "velocity": 114, "channel": 0}, {"type": "note_off", "time": 131, "note": 74, "velocity": 114, "channel": 0}, {"type": "note_on", "time": 48, "note": 70, "velocity": 114, "channel": 0}, {"type": "note_off", "time": 100, "note": 70, "velocity": 114, "channel": 0}, {"type": "note_on", "time": 3, "note": 65, "velocity": 90, "channel": 0}, {"type": "note_off", "time": 134, "note": 65, "velocity": 90, "channel": 0}, {"type": "note_on", "time": 4, "note": 60, "velocity": 102, "channel": 0}, {"type": "note_off", "time": 39, "note": 60, "velocity": 102, "channel": 0}, {"type": "note_on", "time": 10, "note": 70, "velocity": 109, "channel": 0}, {"type": "note_off", "time": 91, "note": 70, "velocity": 109, "channel": 0}, {"type": "note_on", "time": 27, "note": 63, "velocity": 96, "channel": 0}, {"type": "note_off", "time": 56, "note": 63, "velocity": 96, "channel": 0}, {"type": "note_on", "time": 7, "note": 69, "velocity": 120, "channel": 0}, {"type": "note_off", "time": 104, "note": 69, "velocity": 120, "channel": 0}, {"type": "note_on", "time": 10, "note": 70, "velocity": 108, "channel": 0}, {"type": "note_off", "time": 104, "note": 70, "velocity": 108, "channel": 0}, {"type": "note_on", "time": 7, "note": 68, "velocity": 113, "channel": 0}, {"type": "note_off", "time": 98, "note": 68, "velocity": 113, "channel": 0}, {"type": "note_on", "time": 19, "note": 67, "velocity": 94, "channel": 0}, {"type": "note_off", "time": 142, "note": 67, "velocity": 94, "channel": 0}, {"type": "note_on", "time": 45, "note": 66, "velocity": 101, "channel": 0}, {"type": "note_off", "time": 92, "note": 66, "velocity": 101, "channel": 0}, {"type": "note_on", "time": 15, "note": 65, "velocity": 96, "channel": 0}, {"type": "note_off", "time": 179, "note": 65, "velocity": 96, "channel": 0}, {"type": "note_on", "time": 69, "note": 64, "velocity": 93, "channel": 0}, {"type": "note_off", "time": 75, "note": 64, "velocity": 93, "channel": 0}, {"type": "note_on", "time": 3, "note": 63, "velocity": 94, "channel": 0}, {"type": "note_off", "time": 91, "note": 63, "velocity": 94, "channel": 0}, {"type": "note_on", "time": 18, "note": 62, "velocity": 102, "channel": 0}, {"type": "note_off", "time": 89, "note": 62, "velocity": 102, "channel": 0}, {"type": "note_on", "time": 26, "note": 58, "velocity": 102, "channel": 0}, {"type": "note_off", "time": 81, "note": 58, "velocity": 102, "channel": 0}, {"type": "note_on", "time": 4, "note": 57, "velocity": 98, "channel": 0}, {"type": "note_off", "time": 79, "note": 57, "velocity": 98, "channel": 0}, {"type": "note_on", "time": 17, "note": 60, "velocity": 105, "channel": 0}, {"type": "note_off", "time": 81, "note": 60, "velocity": 105, "channel": 0}, {"type": "note_on", "time": 43, "note": 58, "velocity": 100, "channel": 0}, {"type": "note_off", "time": 89, "note": 58, "velocity": 100, "channel": 0}, {"type": "note_on", "time": 45, "note": 54, "velocity": 92, "channel": 0}, {"type": "note_off", "time": 80, "note": 54, "velocity": 92, "channel": 0}, {"type": "note_on", "time": 12, "note": 55, "velocity": 89, "channel": 0}, {"type": "note_off", "time": 41, "note": 55, "velocity": 89, "channel": 0}, {"type": "note_on", "time": 12, "note": 71, "velocity": 120, "channel": 0}, {"type": "note_off", "time": 72, "note": 71, "velocity": 120, "channel": 0}, {"type": "note_on", "time": 9, "note": 72, "velocity": 115, "channel": 0}, {"type": "note_off", "time": 83, "note": 72, "velocity": 115, "channel": 0}, {"type": "note_on", "time": 3, "note": 69, "velocity": 111, "channel": 0}, {"type": "note_off", "time": 122, "note": 69, "velocity": 111, "channel": 0}, {"type": "note_on", "time": 20, "note": 67, "velocity": 97, "channel": 0}, {"type": "note_off", "time": 79, "note": 67, "velocity": 97, "channel": 0}, {"type": "note_on", "time": 14, "note": 70, "velocity": 103, "channel": 0}, {"type": "note_off", "time": 110, "note": 70, "velocity": 103, "channel": 0}, {"type": "note_on", "time": 13, "note": 63, "velocity": 97, "channel": 0}, {"type": "note_off", "time": 67, "note": 63, "velocity": 97, "channel": 0}, {"type": "note_on", "time": 11, "note": 61, "velocity": 84, "channel": 0}, {"type": "note_off", "time": 70, "note": 61, "velocity": 84, "channel": 0}, {"type": "note_on", "time": 16, "note": 58, "velocity": 96, "channel": 0}, {"type": "note_off", "time": 82, "note": 58, "velocity": 96, "channel": 0}, {"type": "note_on", "time": 40, "note": 68, "velocity": 116, "channel": 0}, {"type": "note_off", "time": 82, "note": 68, "velocity": 116, "channel": 0}, {"type": "note_on", "time": 27, "note": 63, "velocity": 93, "channel": 0}, {"type": "note_off", "time": 50, "note": 63, "velocity": 93, "channel": 0}, {"type": "note_on", "time": 0, "note": 67, "velocity": 108, "channel": 0}, {"type": "note_off", "time": 87, "note": 67, "velocity": 108, "channel": 0}, {"type": "note_on", "time": 16, "note": 69, "velocity": 100, "channel": 0}, {"type": "note_off", "time": 104, "note": 69, "velocity": 100, "channel": 0}, {"type": "note_on", "time": 3, "note": 65, "velocity": 101, "channel": 0}, {"type": "note_off", "time": 64, "note": 65, "velocity": 101, "channel": 0}, {"type": "note_on", "time": 20, "note": 60, "velocity": 92, "channel": 0}, {"type": "note_off", "time": 104, "note": 60, "velocity": 92, "channel": 0}, {"type": "note_on", "time": 10, "note": 59, "velocity": 92, "channel": 0}, {"type": "note_off", "time": 52, "note": 59, "velocity": 92, "channel": 0}, {"type": "note_on", "time": 12, "note": 55, "velocity": 88, "channel": 0}, {"type": "note_off", "time": 65, "note": 55, "velocity": 88, "channel": 0}, {"type": "note_on", "time": 62, "note": 60, "velocity": 87, "channel": 0}, {"type": "note_off", "time": 202, "note": 60, "velocity": 87, "channel": 0}, {"type": "note_on", "time": 978, "note": 61, "velocity": 105, "channel": 0}, {"type": "note_off", "time": 110, "note": 61, "velocity": 105, "channel": 0}, {"type": "note_on", "time": 6, "note": 58, "velocity": 98, "channel": 0}, {"type": "note_off", "time": 74, "note": 58, "velocity": 98, "channel": 0}, {"type": "note_on", "time": 3, "note": 61, "velocity": 98, "channel": 0}, {"type": "note_off", "time": 109, "note": 61, "velocity": 98, "channel": 0}, {"type": "note_on", "time": 12, "note": 57, "velocity": 99, "channel": 0}, {"type": "note_off", "time": 51, "note": 57, "velocity": 99, "channel": 0}, {"type": "note_on", "time": 7, "note": 58, "velocity": 105, "channel": 0}, {"type": "note_off", "time": 94, "note": 58, "velocity": 105, "channel": 0}, {"type": "note_on", "time": 12, "note": 61, "velocity": 91, "channel": 0}, {"type": "note_off", "time": 128, "note": 61, "velocity": 91, "channel": 0}, {"type": "note_on", "time": 27, "note": 62, "velocity": 100, "channel": 0}, {"type": "note_off", "time": 81, "note": 62, "velocity": 100, "channel": 0}, {"type": "note_on", "time": 16, "note": 63, "velocity": 95, "channel": 0}, {"type": "note_off", "time": 72, "note": 63, "velocity": 95, "channel": 0}, {"type": "note_on", "time": 19, "note": 64, "velocity": 89, "channel": 0}, {"type": "note_off", "time": 78, "note": 64, "velocity": 89, "channel": 0}, {"type": "note_on", "time": 16, "note": 65, "velocity": 102, "channel": 0}, {"type": "note_off", "time": 88, "note": 65, "velocity": 102, "channel": 0}, {"type": "note_on", "time": 24, "note": 62, "velocity": 92, "channel": 0}, {"type": "note_off", "time": 47, "note": 62, "velocity": 92, "channel": 0}, {"type": "note_on", "time": 4, "note": 58, "velocity": 88, "channel": 0}, {"type": "note_off", "time": 36, "note": 58, "velocity": 88, "channel": 0}, {"type": "note_on", "time": 48, "note": 66, "velocity": 111, "channel": 0}, {"type": "note_off", "time": 92, "note": 66, "velocity": 111, "channel": 0}, {"type": "note_on", "time": 14, "note": 61, "velocity": 96, "channel": 0}, {"type": "note_off", "time": 59, "note": 61, "velocity": 96, "channel": 0}, {"type": "note_on", "time": 24, "note": 67, "velocity": 117, "channel": 0}, {"type": "note_off", "time": 90, "note": 67, "velocity": 117, "channel": 0}, {"type": "note_on", "time": 6, "note": 69, "velocity": 118, "channel": 0}, {"type": "note_off", "time": 101, "note": 69, "velocity": 118, "channel": 0}, {"type": "note_on", "time": 12, "note": 70, "velocity": 109, "channel": 0}, {"type": "note_off", "time": 93, "note": 70, "velocity": 109, "channel": 0}, {"type": "note_on", "time": 9, "note": 71, "velocity": 114, "channel": 0}, {"type": "note_off", "time": 71, "note": 71, "velocity": 114, "channel": 0}, {"type": "note_on", "time": 10, "note": 72, "velocity": 106, "channel": 0}, {"type": "note_off", "time": 91, "note": 72, "velocity": 106, "channel": 0}, {"type": "note_on", "time": 18, "note": 70, "velocity": 109, "channel": 0}, {"type": "note_off", "time": 150, "note": 70, "velocity": 109, "channel": 0}, {"type": "note_on", "time": 18, "note": 69, "velocity": 113, "channel": 0}, {"type": "note_off", "time": 99, "note": 69, "velocity": 113, "channel": 0}, {"type": "note_on", "time": 11, "note": 65, "velocity": 85, "channel": 0}, {"type": "note_off", "time": 69, "note": 65, "velocity": 85, "channel": 0}, {"type": "note_on", "time": 17, "note": 60, "velocity": 88, "channel": 0}, {"type": "note_off", "time": 67, "note": 60, "velocity": 88, "channel": 0}, {"type": "note_on", "time": 6, "note": 70, "velocity": 104, "channel": 0}, {"type": "note_off", "time": 116, "note": 70, "velocity": 104, "channel": 0}, {"type": "note_on", "time": 8, "note": 63, "velocity": 91, "channel": 0}, {"type": "note_off", "time": 66, "note": 63, "velocity": 91, "channel": 0}, {"type": "note_on", "time": 7, "note": 68, "velocity": 115, "channel": 0}, {"type": "note_off", "time": 124, "note": 68, "velocity": 115, "channel": 0}, {"type": "note_on", "time": 13, "note": 70, "velocity": 104, "channel": 0}, {"type": "note_off", "time": 64, "note": 70, "velocity": 104, "channel": 0}, {"type": "note_on", "time": 4, "note": 67, "velocity": 94, "channel": 0}, {"type": "note_off", "time": 82, "note": 67, "velocity": 94, "channel": 0}, {"type": "note_on", "time": 19, "note": 65, "velocity": 99, "channel": 0}, {"type": "note_off", "time": 85, "note": 65, "velocity": 99, "channel": 0}, {"type": "note_on", "time": 4, "note": 63, "velocity": 91, "channel": 0}, {"type": "note_off", "time": 64, "note": 63, "velocity": 91, "channel": 0}, {"type": "note_on", "time": 6, "note": 61, "velocity": 91, "channel": 0}, {"type": "note_off", "time": 48, "note": 61, "velocity": 91, "channel": 0}, {"type": "note_on", "time": 6, "note": 58, "velocity": 98, "channel": 0}, {"type": "note_off", "time": 61, "note": 58, "velocity": 98, "channel": 0}, {"type": "note_on", "time": 8, "note": 62, "velocity": 100, "channel": 0}, {"type": "note_off", "time": 92, "note": 62, "velocity": 100, "channel": 0}, {"type": "note_on", "time": 19, "note": 63, "velocity": 93, "channel": 0}, {"type": "note_off", "time": 82, "note": 63, "velocity": 93, "channel": 0}, {"type": "note_on", "time": 11, "note": 64, "velocity": 86, "channel": 0}, {"type": "note_off", "time": 85, "note": 64, "velocity": 86, "channel": 0}, {"type": "note_on", "time": 30, "note": 65, "velocity": 103, "channel": 0}, {"type": "note_off", "time": 92, "note": 65, "velocity": 103, "channel": 0}, {"type": "note_on", "time": 76, "note": 66, "velocity": 107, "channel": 0}, {"type": "note_off", "time": 84, "note": 66, "velocity": 107, "channel": 0}, {"type": "note_on", "time": 7, "note": 62, "velocity": 87, "channel": 0}, {"type": "note_off", "time": 61, "note": 62, "velocity": 87, "channel": 0}, {"type": "note_on", "time": 29, "note": 58, "velocity": 94, "channel": 0}, {"type": "note_off", "time": 81, "note": 58, "velocity": 94, "channel": 0}, {"type": "note_on", "time": 10, "note": 65, "velocity": 111, "channel": 0}, {"type": "note_off", "time": 112, "note": 65, "velocity": 111, "channel": 0}, {"type": "note_on", "time": 4, "note": 62, "velocity": 105, "channel": 0}, {"type": "note_off", "time": 57, "note": 62, "velocity": 105, "channel": 0}, {"type": "note_on", "time": 3, "note": 60, "velocity": 90, "channel": 0}, {"type": "note_off", "time": 57, "note": 60, "velocity": 90, "channel": 0}, {"type": "note_on", "time": 13, "note": 58, "velocity": 89, "channel": 0}, {"type": "note_off", "time": 52, "note": 58, "velocity": 89, "channel": 0}, {"type": "note_on", "time": 15, "note": 61, "velocity": 85, "channel": 0}, {"type": "note_off", "time": 43, "note": 61, "velocity": 85, "channel": 0}, {"type": "note_on", "time": 12, "note": 63, "velocity": 98, "channel": 0}, {"type": "note_off", "time": 76, "note": 63, "velocity": 98, "channel": 0}, {"type": "note_on", "time": 270, "note": 58, "velocity": 99, "channel": 0}, {"type": "note_off", "time": 63, "note": 58, "velocity": 99, "channel": 0}, {"type": "note_on", "time": 211, "note": 62, "velocity": 106, "channel": 0}, {"type": "note_off", "time": 96, "note": 62, "velocity": 106, "channel": 0}, {"type": "note_on", "time": 25, "note": 58, "velocity": 96, "channel": 0}, {"type": "note_off", "time": 63, "note": 58, "velocity": 96, "channel": 0}, {"type": "note_on", "time": 12, "note": 60, "velocity": 95, "channel": 0}, {"type": "note_off", "time": 93, "note": 60, "velocity": 95, "channel": 0}, {"type": "note_on", "time": 11, "note": 62, "velocity": 108, "channel": 0}, {"type": "note_off", "time": 70, "note": 62, "velocity": 108, "channel": 0}, {"type": "note_on", "time": 18, "note": 63, "velocity": 96, "channel": 0}, {"type": "note_off", "time": 78, "note": 63, "velocity": 96, "channel": 0}, {"type": "note_on", "time": 3, "note": 65, "velocity": 106, "channel": 0}, {"type": "note_off", "time": 80, "note": 65, "velocity": 106, "channel": 0}, {"type": "note_on", "time": 9, "note": 63, "velocity": 101, "channel": 0}, {"type": "note_off", "time": 45, "note": 63, "velocity": 101, "channel": 0}, {"type": "note_on", "time": 13, "note": 58, "velocity": 98, "channel": 0}, {"type": "note_off", "time": 114, "note": 58, "velocity": 98, "channel": 0}, {"type": "note_on", "time": 752, "note": 59, "velocity": 99, "channel": 0}, {"type": "note_off", "time": 121, "note": 59, "velocity": 99, "channel": 0}, {"type": "note_on", "time": 4, "note": 64, "velocity": 103, "channel": 0}, {"type": "note_off", "time": 230, "note": 64, "velocity": 103, "channel": 0}, {"type": "note_on", "time": 10, "note": 59, "velocity": 108, "channel": 0}, {"type": "note_off", "time": 97, "note": 59, "velocity": 108, "channel": 0}, {"type": "note_on", "time": 9, "note": 64, "velocity": 95, "channel": 0}, {"type": "note_off", "time": 101, "note": 64, "velocity": 95, "channel": 0}, {"type": "note_on", "time": 10, "note": 59, "velocity": 94, "channel": 0}, {"type": "note_off", "time": 61, "note": 59, "velocity": 94, "channel": 0}, {"type": "note_on", "time": 15, "note": 64, "velocity": 100, "channel": 0}, {"type": "note_off", "time": 76, "note": 64, "velocity": 100, "channel": 0}, {"type": "note_on", "time": 7, "note": 59, "velocity": 88, "channel": 0}, {"type": "note_off", "time": 92, "note": 59, "velocity": 88, "channel": 0}, {"type": "note_on", "time": 24, "note": 64, "velocity": 97, "channel": 0}, {"type": "note_off", "time": 82, "note": 64, "velocity": 97, "channel": 0}, {"type": "note_on", "time": 19, "note": 59, "velocity": 92, "channel": 0}, {"type": "note_off", "time": 83, "note": 59, "velocity": 92, "channel": 0}, {"type": "note_on", "time": 18, "note": 64, "velocity": 100, "channel": 0}, {"type": "note_off", "time": 88, "note": 64, "velocity": 100, "channel": 0}, {"type": "note_on", "time": 11, "note": 59, "velocity": 92, "channel": 0}, {"type": "note_off", "time": 93, "note": 59, "velocity": 92, "channel": 0}, {"type": "note_on", "time": 13, "note": 64, "velocity": 96, "channel": 0}, {"type": "note_off", "time": 84, "note": 64, "velocity": 96, "channel": 0}, {"type": "note_on", "time": 10, "note": 66, "velocity": 110, "channel": 0}, {"type": "note_off", "time": 66, "note": 66, "velocity": 110, "channel": 0}, {"type": "note_on", "time": 19, "note": 67, "velocity": 106, "channel": 0}, {"type": "note_off", "time": 135, "note": 67, "velocity": 106, "channel": 0}, {"type": "note_on", "time": 15, "note": 66, "velocity": 115, "channel": 0}, {"type": "note_off", "time": 96, "note": 66, "velocity": 115, "channel": 0}, {"type": "note_on", "time": 59, "note": 64, "velocity": 96, "channel": 0}, {"type": "note_off", "time": 79, "note": 64, "velocity": 96, "channel": 0}, {"type": "note_on", "time": 8, "note": 59, "velocity": 89, "channel": 0}, {"type": "note_off", "time": 102, "note": 59, "velocity": 89, "channel": 0}, {"type": "note_on", "time": 25, "note": 62, "velocity": 89, "channel": 0}, {"type": "note_off", "time": 315, "note": 62, "velocity": 89, "channel": 0}, {"type": "note_on", "time": 803, "note": 59, "velocity": 97, "channel": 0}, {"type": "note_off", "time": 55, "note": 59, "velocity": 97, "channel": 0}, {"type": "note_on", "time": 18, "note": 64, "velocity": 100, "channel": 0}, {"type": "note_off", "time": 68, "note": 64, "velocity": 100, "channel": 0}, {"type": "note_on", "time": 21, "note": 66, "velocity": 112, "channel": 0}, {"type": "note_off", "time": 90, "note": 66, "velocity": 112, "channel": 0}, {"type": "note_on", "time": 16, "note": 67, "velocity": 108, "channel": 0}, {"type": "note_off", "time": 85, "note": 67, "velocity": 108, "channel": 0}, {"type": "note_on", "time": 6, "note": 66, "velocity": 113, "channel": 0}, {"type": "note_off", "time": 66, "note": 66, "velocity": 113, "channel": 0}, {"type": "note_on", "time": 9, "note": 65, "velocity": 109, "channel": 0}, {"type": "note_off", "time": 101, "note": 65, "velocity": 109, "channel": 0}, {"type": "note_on", "time": 15, "note": 64, "velocity": 100, "channel": 0}, {"type": "note_off", "time": 52, "note": 64, "velocity": 100, "channel": 0}, {"type": "note_on", "time": 7, "note": 62, "velocity": 106, "channel": 0}, {"type": "note_off", "time": 70, "note": 62, "velocity": 106, "channel": 0}, {"type": "note_on", "time": 9, "note": 60, "velocity": 97, "channel": 0}, {"type": "note_off", "time": 46, "note": 60, "velocity": 97, "channel": 0}, {"type": "note_on", "time": 10, "note": 59, "velocity": 100, "channel": 0}, {"type": "note_off", "time": 53, "note": 59, "velocity": 100, "channel": 0}, {"type": "note_on", "time": 12, "note": 58, "velocity": 100, "channel": 0}, {"type": "note_off", "time": 128, "note": 58, "velocity": 100, "channel": 0}, {"type": "note_on", "time": 477, "note": 69, "velocity": 121, "channel": 0}, {"type": "note_off", "time": 119, "note": 69, "velocity": 121, "channel": 0}, {"type": "note_on", "time": 15, "note": 72, "velocity": 107, "channel": 0}, {"type": "note_off", "time": 64, "note": 72, "velocity": 107, "channel": 0}, {"type": "note_on", "time": 9, "note": 70, "velocity": 109, "channel": 0}, {"type": "note_off", "time": 82, "note": 70, "velocity": 109, "channel": 0}, {"type": "note_on", "time": 15, "note": 69, "velocity": 113, "channel": 0}, {"type": "note_off", "time": 109, "note": 69, "velocity": 113, "channel": 0}, {"type": "note_on", "time": 13, "note": 67, "velocity": 99, "channel": 0}, {"type": "note_off", "time": 85, "note": 67, "velocity": 99, "channel": 0}, {"type": "note_on", "time": 14, "note": 66, "velocity": 101, "channel": 0}, {"type": "note_off", "time": 93, "note": 66, "velocity": 101, "channel": 0}, {"type": "note_on", "time": 8, "note": 65, "velocity": 97, "channel": 0}, {"type": "note_off", "time": 68, "note": 65, "velocity": 97, "channel": 0}, {"type": "note_on", "time": 9, "note": 64, "velocity": 97, "channel": 0}, {"type": "note_off", "time": 79, "note": 64, "velocity": 97, "channel": 0}, {"type": "note_on", "time": 18, "note": 62, "velocity": 100, "channel": 0}, {"type": "note_off", "time": 77, "note": 62, "velocity": 100, "channel": 0}, {"type": "note_on", "time": 4, "note": 58, "velocity": 92, "channel": 0}, {"type": "note_off", "time": 76, "note": 58, "velocity": 92, "channel": 0}, {"type": "note_on", "time": 16, "note": 63, "velocity": 99, "channel": 0}, {"type": "note_off", "time": 94, "note": 63, "velocity": 99, "channel": 0}, {"type": "note_on", "time": 19, "note": 65, "velocity": 105, "channel": 0}, {"type": "note_off", "time": 104, "note": 65, "velocity": 105, "channel": 0}, {"type": "note_on", "time": 98, "note": 60, "velocity": 92, "channel": 0}, {"type": "note_off", "time": 54, "note": 60, "velocity": 92, "channel": 0}, {"type": "note_on", "time": 27, "note": 65, "velocity": 111, "channel": 0}, {"type": "note_off", "time": 85, "note": 65, "velocity": 111, "channel": 0}, {"type": "note_on", "time": 18, "note": 62, "velocity": 102, "channel": 0}, {"type": "note_off", "time": 51, "note": 62, "velocity": 102, "channel": 0}, {"type": "note_on", "time": 22, "note": 69, "velocity": 125, "channel": 0}, {"type": "note_off", "time": 108, "note": 69, "velocity": 125, "channel": 0}, {"type": "note_on", "time": 8, "note": 72, "velocity": 117, "channel": 0}, {"type": "note_off", "time": 84, "note": 72, "velocity": 117, "channel": 0}, {"type": "note_on", "time": 10, "note": 70, "velocity": 116, "channel": 0}, {"type": "note_off", "time": 98, "note": 70, "velocity": 116, "channel": 0}, {"type": "note_on", "time": 3, "note": 69, "velocity": 115, "channel": 0}, {"type": "note_off", "time": 80, "note": 69, "velocity": 115, "channel": 0}, {"type": "note_on", "time": 8, "note": 67, "velocity": 112, "channel": 0}, {"type": "note_off", "time": 78, "note": 67, "velocity": 112, "channel": 0}, {"type": "note_on", "time": 17, "note": 63, "velocity": 87, "channel": 0}, {"type": "note_off", "time": 42, "note": 63, "velocity": 87, "channel": 0}, {"type": "note_on", "time": 6, "note": 60, "velocity": 89, "channel": 0}, {"type": "note_off", "time": 42, "note": 60, "velocity": 89, "channel": 0}, {"type": "note_on", "time": 17, "note": 68, "velocity": 112, "channel": 0}, {"type": "note_off", "time": 106, "note": 68, "velocity": 112, "channel": 0}, {"type": "note_on", "time": 579, "note": 66, "velocity": 105, "channel": 0}, {"type": "note_off", "time": 105, "note": 66, "velocity": 105, "channel": 0}, {"type": "note_on", "time": 10, "note": 67, "velocity": 109, "channel": 0}, {"type": "note_off", "time": 46, "note": 67, "velocity": 109, "channel": 0}, {"type": "note_on", "time": 6, "note": 69, "velocity": 120, "channel": 0}, {"type": "note_off", "time": 62, "note": 69, "velocity": 120, "channel": 0}, {"type": "note_on", "time": 12, "note": 70, "velocity": 110, "channel": 0}, {"type": "note_off", "time": 95, "note": 70, "velocity": 110, "channel": 0}, {"type": "note_on", "time": 17, "note": 71, "velocity": 113, "channel": 0}, {"type": "note_off", "time": 83, "note": 71, "velocity": 113, "channel": 0}, {"type": "note_on", "time": 13, "note": 70, "velocity": 101, "channel": 0}, {"type": "note_off", "time": 89, "note": 70, "velocity": 101, "channel": 0}, {"type": "note_on", "time": 15, "note": 69, "velocity": 110, "channel": 0}, {"type": "note_off", "time": 36, "note": 69, "velocity": 110, "channel": 0}, {"type": "note_on", "time": 6, "note": 67, "velocity": 107, "channel": 0}, {"type": "note_off", "time": 92, "note": 67, "velocity": 107, "channel": 0}, {"type": "note_on", "time": 6, "note": 63, "velocity": 83, "channel": 0}, {"type": "note_off", "time": 40, "note": 63, "velocity": 83, "channel": 0}, {"type": "note_on", "time": 36, "note": 60, "velocity": 99, "channel": 0}, {"type": "note_off", "time": 43, "note": 60, "velocity": 99, "channel": 0}, {"type": "note_on", "time": 13, "note": 69, "velocity": 120, "channel": 0}, {"type": "note_off", "time": 118, "note": 69, "velocity": 120, "channel": 0}, {"type": "note_on", "time": 0, "note": 65, "velocity": 108, "channel": 0}, {"type": "note_off", "time": 80, "note": 65, "velocity": 108, "channel": 0}, {"type": "note_on", "time": 4, "note": 63, "velocity": 96, "channel": 0}, {"type": "note_off", "time": 46, "note": 63, "velocity": 96, "channel": 0}, {"type": "note_on", "time": 12, "note": 60, "velocity": 89, "channel": 0}, {"type": "note_off", "time": 104, "note": 60, "velocity": 89, "channel": 0}, {"type": "note_on", "time": 8, "note": 67, "velocity": 113, "channel": 0}, {"type": "note_off", "time": 101, "note": 67, "velocity": 113, "channel": 0}, {"type": "note_on", "time": 16, "note": 63, "velocity": 92, "channel": 0}, {"type": "note_off", "time": 42, "note": 63, "velocity": 92, "channel": 0}, {"type": "note_on", "time": 19, "note": 68, "velocity": 127, "channel": 0}, {"type": "note_off", "time": 128, "note": 68, "velocity": 127, "channel": 0}, {"type": "note_on", "time": 9, "note": 69, "velocity": 116, "channel": 0}, {"type": "note_off", "time": 85, "note": 69, "velocity": 116, "channel": 0}, {"type": "note_on", "time": 8, "note": 72, "velocity": 104, "channel": 0}, {"type": "note_off", "time": 90, "note": 72, "velocity": 104, "channel": 0}, {"type": "note_on", "time": 23, "note": 64, "velocity": 99, "channel": 0}, {"type": "note_off", "time": 36, "note": 64, "velocity": 99, "channel": 0}, {"type": "note_on", "time": 10, "note": 63, "velocity": 97, "channel": 0}, {"type": "note_off", "time": 66, "note": 63, "velocity": 97, "channel": 0}, {"type": "note_on", "time": 39, "note": 60, "velocity": 94, "channel": 0}, {"type": "note_off", "time": 65, "note": 60, "velocity": 94, "channel": 0}, {"type": "note_on", "time": 19, "note": 62, "velocity": 100, "channel": 0}, {"type": "note_off", "time": 114, "note": 62, "velocity": 100, "channel": 0}, {"type": "note_on", "time": 28, "note": 63, "velocity": 87, "channel": 0}, {"type": "note_off", "time": 52, "note": 63, "velocity": 87, "channel": 0}, {"type": "note_on", "time": 28, "note": 68, "velocity": 9, "channel": 0}, {"type": "note_off", "time": 87, "note": 68, "velocity": 9, "channel": 0}, {"type": "note_on", "time": 18, "note": 70, "velocity": 95, "channel": 0}, {"type": "note_off", "time": 61, "note": 70, "velocity": 95, "channel": 0}, {"type": "note_on", "time": 14, "note": 74, "velocity": 105, "channel": 0}, {"type": "note_off", "time": 95, "note": 74, "velocity": 105, "channel": 0}, {"type": "note_on", "time": 7, "note": 72, "velocity": 113, "channel": 0}, {"type": "note_off", "time": 75, "note": 72, "velocity": 113, "channel": 0}, {"type": "note_on", "time": 11, "note": 70, "velocity": 104, "channel": 0}, {"type": "note_off", "time": 85, "note": 70, "velocity": 104, "channel": 0}, {"type": "note_on", "time": 15, "note": 68, "velocity": 107, "channel": 0}, {"type": "note_off", "time": 75, "note": 68, "velocity": 107, "channel": 0}, {"type": "note_on", "time": 28, "note": 69, "velocity": 109, "channel": 0}, {"type": "note_off", "time": 102, "note": 69, "velocity": 109, "channel": 0}, {"type": "note_on", "time": 39, "note": 76, "velocity": 112, "channel": 0}, {"type": "note_off", "time": 81, "note": 76, "velocity": 112, "channel": 0}, {"type": "note_on", "time": 13, "note": 80, "velocity": 115, "channel": 0}, {"type": "note_off", "time": 317, "note": 80, "velocity": 115, "channel": 0}, {"type": "note_on", "time": 10, "note": 67, "velocity": 99, "channel": 0}, {"type": "note_off", "time": 118, "note": 67, "velocity": 99, "channel": 0}, {"type": "note_on", "time": 1212, "note": 77, "velocity": 115, "channel": 0}, {"type": "note_off", "time": 609, "note": 77, "velocity": 115, "channel": 0}, {"type": "note_on", "time": 48, "note": 65, "velocity": 88, "channel": 0}, {"type": "note_off", "time": 125, "note": 65, "velocity": 88, "channel": 0}, {"type": "note_on", "time": 70, "note": 65, "velocity": 100, "channel": 0}, {"type": "note_off", "time": 71, "note": 65, "velocity": 100, "channel": 0}, {"type": "note_on", "time": 31, "note": 74, "velocity": 111, "channel": 0}, {"type": "note_off", "time": 119, "note": 74, "velocity": 111, "channel": 0}, {"type": "note_on", "time": 23, "note": 65, "velocity": 88, "channel": 0}, {"type": "note_off", "time": 48, "note": 65, "velocity": 88, "channel": 0}, {"type": "note_on", "time": 6, "note": 72, "velocity": 103, "channel": 0}, {"type": "note_off", "time": 113, "note": 72, "velocity": 103, "channel": 0}, {"type": "note_on", "time": 12, "note": 75, "velocity": 103, "channel": 0}, {"type": "note_off", "time": 102, "note": 75, "velocity": 103, "channel": 0}, {"type": "note_on", "time": 93, "note": 69, "velocity": 103, "channel": 0}, {"type": "note_off", "time": 98, "note": 69, "velocity": 103, "channel": 0}, {"type": "note_on", "time": 86, "note": 74, "velocity": 111, "channel": 0}, {"type": "note_off", "time": 100, "note": 74, "velocity": 111, "channel": 0}, {"type": "note_on", "time": 92, "note": 72, "velocity": 96, "channel": 0}, {"type": "note_off", "time": 90, "note": 72, "velocity": 96, "channel": 0}, {"type": "note_on", "time": 889, "note": 79, "velocity": 118, "channel": 0}, {"type": "note_off", "time": 234, "note": 79, "velocity": 118, "channel": 0}, {"type": "note_on", "time": 12, "note": 78, "velocity": 114, "channel": 0}, {"type": "note_off", "time": 54, "note": 78, "velocity": 114, "channel": 0}, {"type": "note_on", "time": 7, "note": 77, "velocity": 115, "channel": 0}, {"type": "note_off", "time": 78, "note": 77, "velocity": 115, "channel": 0}, {"type": "note_on", "time": 7, "note": 76, "velocity": 116, "channel": 0}, {"type": "note_off", "time": 44, "note": 76, "velocity": 116, "channel": 0}, {"type": "note_on", "time": 4, "note": 75, "velocity": 115, "channel": 0}, {"type": "note_off", "time": 93, "note": 75, "velocity": 115, "channel": 0}, {"type": "note_on", "time": 7, "note": 74, "velocity": 110, "channel": 0}, {"type": "note_off", "time": 91, "note": 74, "velocity": 110, "channel": 0}, {"type": "note_on", "time": 8, "note": 73, "velocity": 117, "channel": 0}, {"type": "note_off", "time": 92, "note": 73, "velocity": 117, "channel": 0}, {"type": "note_on", "time": 10, "note": 72, "velocity": 115, "channel": 0}, {"type": "note_off", "time": 119, "note": 72, "velocity": 115, "channel": 0}, {"type": "note_on", "time": 6, "note": 72, "velocity": 94, "channel": 0}, {"type": "note_off", "time": 91, "note": 72, "velocity": 94, "channel": 0}, {"type": "note_on", "time": 8, "note": 70, "velocity": 106, "channel": 0}, {"type": "note_off", "time": 172, "note": 70, "velocity": 106, "channel": 0}, {"type": "note_on", "time": 9, "note": 69, "velocity": 107, "channel": 0}, {"type": "note_off", "time": 104, "note": 69, "velocity": 107, "channel": 0}, {"type": "note_on", "time": 11, "note": 60, "velocity": 89, "channel": 0}, {"type": "note_off", "time": 57, "note": 60, "velocity": 89, "channel": 0}, {"type": "note_on", "time": 18, "note": 61, "velocity": 90, "channel": 0}, {"type": "note_off", "time": 74, "note": 61, "velocity": 90, "channel": 0}, {"type": "note_on", "time": 2, "note": 70, "velocity": 100, "channel": 0}, {"type": "note_off", "time": 89, "note": 70, "velocity": 100, "channel": 0}, {"type": "note_on", "time": 32, "note": 62, "velocity": 98, "channel": 0}, {"type": "note_off", "time": 67, "note": 62, "velocity": 98, "channel": 0}, {"type": "note_on", "time": 15, "note": 69, "velocity": 110, "channel": 0}, {"type": "note_off", "time": 58, "note": 69, "velocity": 110, "channel": 0}, {"type": "note_on", "time": 8, "note": 70, "velocity": 102, "channel": 0}, {"type": "note_off", "time": 60, "note": 70, "velocity": 102, "channel": 0}, {"type": "note_on", "time": 31, "note": 69, "velocity": 105, "channel": 0}, {"type": "note_off", "time": 107, "note": 69, "velocity": 105, "channel": 0}, {"type": "note_on", "time": 54, "note": 65, "velocity": 97, "channel": 0}, {"type": "note_off", "time": 61, "note": 65, "velocity": 97, "channel": 0}, {"type": "note_on", "time": 15, "note": 64, "velocity": 87, "channel": 0}, {"type": "note_off", "time": 66, "note": 64, "velocity": 87, "channel": 0}, {"type": "note_on", "time": 1051, "note": 74, "velocity": 100, "channel": 0}, {"type": "note_off", "time": 91, "note": 74, "velocity": 100, "channel": 0}, {"type": "note_on", "time": 98, "note": 72, "velocity": 101, "channel": 0}, {"type": "note_off", "time": 78, "note": 72, "velocity": 101, "channel": 0}, {"type": "note_on", "time": 108, "note": 70, "velocity": 90, "channel": 0}, {"type": "note_off", "time": 83, "note": 70, "velocity": 90, "channel": 0}, {"type": "note_on", "time": 123, "note": 69, "velocity": 107, "channel": 0}, {"type": "note_off", "time": 165, "note": 69, "velocity": 107, "channel": 0}, {"type": "note_on", "time": 31, "note": 67, "velocity": 102, "channel": 0}, {"type": "note_off", "time": 75, "note": 67, "velocity": 102, "channel": 0}, {"type": "note_on", "time": 51, "note": 70, "velocity": 111, "channel": 0}, {"type": "note_off", "time": 87, "note": 70, "velocity": 111, "channel": 0}, {"type": "note_on", "time": 98, "note": 72, "velocity": 108, "channel": 0}, {"type": "note_off", "time": 98, "note": 72, "velocity": 108, "channel": 0}, {"type": "note_on", "time": 98, "note": 70, "velocity": 107, "channel": 0}, {"type": "note_off", "time": 87, "note": 70, "velocity": 107, "channel": 0}, {"type": "note_on", "time": 93, "note": 69, "velocity": 113, "channel": 0}, {"type": "note_off", "time": 72, "note": 69, "velocity": 113, "channel": 0}, {"type": "note_on", "time": 34, "note": 63, "velocity": 89, "channel": 0}, {"type": "note_off", "time": 47, "note": 63, "velocity": 89, "channel": 0}, {"type": "note_on", "time": 40, "note": 60, "velocity": 86, "channel": 0}, {"type": "note_off", "time": 53, "note": 60, "velocity": 86, "channel": 0}, {"type": "note_on", "time": 33, "note": 70, "velocity": 109, "channel": 0}, {"type": "note_off", "time": 76, "note": 70, "velocity": 109, "channel": 0}, {"type": "note_on", "time": 112, "note": 69, "velocity": 112, "channel": 0}, {"type": "note_off", "time": 87, "note": 69, "velocity": 112, "channel": 0}, {"type": "note_on", "time": 46, "note": 65, "velocity": 94, "channel": 0}, {"type": "note_off", "time": 61, "note": 65, "velocity": 94, "channel": 0}, {"type": "note_on", "time": 19, "note": 67, "velocity": 105, "channel": 0}, {"type": "note_off", "time": 90, "note": 67, "velocity": 105, "channel": 0}, {"type": "note_on", "time": 46, "note": 63, "velocity": 93, "channel": 0}, {"type": "note_off", "time": 69, "note": 63, "velocity": 93, "channel": 0}, {"type": "note_on", "time": 110, "note": 62, "velocity": 102, "channel": 0}, {"type": "note_off", "time": 67, "note": 62, "velocity": 102, "channel": 0}, {"type": "note_on", "time": 92, "note": 67, "velocity": 111, "channel": 0}, {"type": "note_off", "time": 113, "note": 67, "velocity": 111, "channel": 0}, {"type": "note_on", "time": 44, "note": 62, "velocity": 92, "channel": 0}, {"type": "note_off", "time": 35, "note": 62, "velocity": 92, "channel": 0}, {"type": "note_on", "time": 13, "note": 58, "velocity": 91, "channel": 0}, {"type": "note_off", "time": 32, "note": 58, "velocity": 91, "channel": 0}, {"type": "note_on", "time": 40, "note": 65, "velocity": 93, "channel": 0}, {"type": "note_off", "time": 98, "note": 65, "velocity": 93, "channel": 0}, {"type": "note_on", "time": 84, "note": 74, "velocity": 113, "channel": 0}, {"type": "note_off", "time": 81, "note": 74, "velocity": 113, "channel": 0}, {"type": "note_on", "time": 304, "note": 72, "velocity": 105, "channel": 0}, {"type": "note_off", "time": 79, "note": 72, "velocity": 105, "channel": 0}, {"type": "note_on", "time": 60, "note": 68, "velocity": 89, "channel": 0}, {"type": "note_off", "time": 43, "note": 68, "velocity": 89, "channel": 0}, {"type": "note_on", "time": 57, "note": 69, "velocity": 95, "channel": 0}, {"type": "note_off", "time": 66, "note": 69, "velocity": 95, "channel": 0}, {"type": "note_on", "time": 88, "note": 74, "velocity": 116, "channel": 0}, {"type": "note_off", "time": 103, "note": 74, "velocity": 116, "channel": 0}, {"type": "note_on", "time": 6, "note": 72, "velocity": 93, "channel": 0}, {"type": "note_off", "time": 79, "note": 72, "velocity": 93, "channel": 0}, {"type": "note_on", "time": 24, "note": 67, "velocity": 91, "channel": 0}, {"type": "note_off", "time": 87, "note": 67, "velocity": 91, "channel": 0}, {"type": "note_on", "time": 38, "note": 63, "velocity": 100, "channel": 0}, {"type": "note_off", "time": 64, "note": 63, "velocity": 100, "channel": 0}, {"type": "note_on", "time": 13, "note": 60, "velocity": 90, "channel": 0}, {"type": "note_off", "time": 61, "note": 60, "velocity": 90, "channel": 0}, {"type": "note_on", "time": 578, "note": 67, "velocity": 115, "channel": 0}, {"type": "note_off", "time": 82, "note": 67, "velocity": 115, "channel": 0}, {"type": "note_on", "time": 12, "note": 75, "velocity": 114, "channel": 0}, {"type": "note_off", "time": 89, "note": 75, "velocity": 114, "channel": 0}, {"type": "note_on", "time": 24, "note": 78, "velocity": 110, "channel": 0}, {"type": "note_off", "time": 191, "note": 78, "velocity": 110, "channel": 0}, {"type": "note_on", "time": 39, "note": 72, "velocity": 99, "channel": 0}, {"type": "note_off", "time": 75, "note": 72, "velocity": 99, "channel": 0}, {"type": "note_on", "time": 1087, "note": 73, "velocity": 124, "channel": 0}, {"type": "note_off", "time": 113, "note": 73, "velocity": 124, "channel": 0}, {"type": "note_on", "time": 10, "note": 74, "velocity": 111, "channel": 0}, {"type": "note_off", "time": 82, "note": 74, "velocity": 111, "channel": 0}, {"type": "note_on", "time": 20, "note": 73, "velocity": 123, "channel": 0}, {"type": "note_off", "time": 108, "note": 73, "velocity": 123, "channel": 0}, {"type": "note_on", "time": 9, "note": 74, "velocity": 114, "channel": 0}, {"type": "note_off", "time": 50, "note": 74, "velocity": 114, "channel": 0}, {"type": "note_on", "time": 56, "note": 73, "velocity": 120, "channel": 0}, {"type": "note_off", "time": 101, "note": 73, "velocity": 120, "channel": 0}, {"type": "note_on", "time": 8, "note": 74, "velocity": 109, "channel": 0}, {"type": "note_off", "time": 58, "note": 74, "velocity": 109, "channel": 0}, {"type": "note_on", "time": 45, "note": 73, "velocity": 117, "channel": 0}, {"type": "note_off", "time": 94, "note": 73, "velocity": 117, "channel": 0}, {"type": "note_on", "time": 11, "note": 74, "velocity": 110, "channel": 0}, {"type": "note_off", "time": 89, "note": 74, "velocity": 110, "channel": 0}, {"type": "note_on", "time": 25, "note": 73, "velocity": 119, "channel": 0}, {"type": "note_off", "time": 81, "note": 73, "velocity": 119, "channel": 0}, {"type": "note_on", "time": 15, "note": 74, "velocity": 113, "channel": 0}, {"type": "note_off", "time": 68, "note": 74, "velocity": 113, "channel": 0}, {"type": "note_on", "time": 51, "note": 73, "velocity": 119, "channel": 0}, {"type": "note_off", "time": 70, "note": 73, "velocity": 119, "channel": 0}, {"type": "note_on", "time": 19, "note": 74, "velocity": 116, "channel": 0}, {"type": "note_off", "time": 67, "note": 74, "velocity": 116, "channel": 0}, {"type": "note_on", "time": 39, "note": 73, "velocity": 116, "channel": 0}, {"type": "note_off", "time": 93, "note": 73, "velocity": 116, "channel": 0}, {"type": "note_on", "time": 15, "note": 74, "velocity": 111, "channel": 0}, {"type": "note_off", "time": 65, "note": 74, "velocity": 111, "channel": 0}, {"type": "note_on", "time": 16, "note": 71, "velocity": 109, "channel": 0}, {"type": "note_off", "time": 116, "note": 71, "velocity": 109, "channel": 0}, {"type": "note_on", "time": 16, "note": 67, "velocity": 103, "channel": 0}, {"type": "note_off", "time": 75, "note": 67, "velocity": 103, "channel": 0}, {"type": "note_on", "time": 868, "note": 73, "velocity": 122, "channel": 0}, {"type": "note_off", "time": 125, "note": 73, "velocity": 122, "channel": 0}, {"type": "note_on", "time": 3, "note": 74, "velocity": 106, "channel": 0}, {"type": "note_off", "time": 76, "note": 74, "velocity": 106, "channel": 0}, {"type": "note_on", "time": 13, "note": 73, "velocity": 122, "channel": 0}, {"type": "note_off", "time": 105, "note": 73, "velocity": 122, "channel": 0}, {"type": "note_on", "time": 12, "note": 74, "velocity": 116, "channel": 0}, {"type": "note_off", "time": 76, "note": 74, "velocity": 116, "channel": 0}, {"type": "note_on", "time": 5, "note": 73, "velocity": 121, "channel": 0}, {"type": "note_off", "time": 91, "note": 73, "velocity": 121, "channel": 0}, {"type": "note_on", "time": 16, "note": 74, "velocity": 103, "channel": 0}, {"type": "note_off", "time": 87, "note": 74, "velocity": 103, "channel": 0}, {"type": "note_on", "time": 7, "note": 73, "velocity": 117, "channel": 0}, {"type": "note_off", "time": 95, "note": 73, "velocity": 117, "channel": 0}, {"type": "note_on", "time": 13, "note": 74, "velocity": 105, "channel": 0}, {"type": "note_off", "time": 81, "note": 74, "velocity": 105, "channel": 0}, {"type": "note_on", "time": 11, "note": 73, "velocity": 119, "channel": 0}, {"type": "note_off", "time": 89, "note": 73, "velocity": 119, "channel": 0}, {"type": "note_on", "time": 12, "note": 74, "velocity": 112, "channel": 0}, {"type": "note_off", "time": 68, "note": 74, "velocity": 112, "channel": 0}, {"type": "note_on", "time": 24, "note": 73, "velocity": 118, "channel": 0}, {"type": "note_off", "time": 99, "note": 73, "velocity": 118, "channel": 0}, {"type": "note_on", "time": 16, "note": 74, "velocity": 109, "channel": 0}, {"type": "note_off", "time": 65, "note": 74, "velocity": 109, "channel": 0}, {"type": "note_on", "time": 8, "note": 71, "velocity": 110, "channel": 0}, {"type": "note_off", "time": 110, "note": 71, "velocity": 110, "channel": 0}, {"type": "note_on", "time": 42, "note": 67, "velocity": 102, "channel": 0}, {"type": "note_off", "time": 60, "note": 67, "velocity": 102, "channel": 0}, {"type": "note_on", "time": 640, "note": 71, "velocity": 108, "channel": 0}, {"type": "note_off", "time": 74, "note": 71, "velocity": 108, "channel": 0}, {"type": "note_on", "time": 2, "note": 72, "velocity": 110, "channel": 0}, {"type": "note_off", "time": 108, "note": 72, "velocity": 110, "channel": 0}, {"type": "note_on", "time": 30, "note": 69, "velocity": 92, "channel": 0}, {"type": "note_off", "time": 252, "note": 69, "velocity": 92, "channel": 0}, {"type": "note_on", "time": 788, "note": 70, "velocity": 116, "channel": 0}, {"type": "note_off", "time": 557, "note": 70, "velocity": 116, "channel": 0}, {"type": "note_on", "time": 67, "note": 62, "velocity": 97, "channel": 0}, {"type": "note_off", "time": 94, "note": 62, "velocity": 97, "channel": 0}, {"type": "note_on", "time": 103, "note": 65, "velocity": 105, "channel": 0}, {"type": "note_off", "time": 122, "note": 65, "velocity": 105, "channel": 0}, {"type": "note_on", "time": 55, "note": 70, "velocity": 114, "channel": 0}, {"type": "note_off", "time": 105, "note": 70, "velocity": 114, "channel": 0}, {"type": "note_on", "time": 16, "note": 72, "velocity": 116, "channel": 0}, {"type": "note_off", "time": 106, "note": 72, "velocity": 116, "channel": 0}, {"type": "note_on", "time": 72, "note": 74, "velocity": 115, "channel": 0}, {"type": "note_off", "time": 114, "note": 74, "velocity": 115, "channel": 0}, {"type": "note_on", "time": 72, "note": 75, "velocity": 115, "channel": 0}, {"type": "note_off", "time": 104, "note": 75, "velocity": 115, "channel": 0}, {"type": "note_on", "time": 87, "note": 74, "velocity": 107, "channel": 0}, {"type": "note_off", "time": 97, "note": 74, "velocity": 107, "channel": 0}, {"type": "note_on", "time": 99, "note": 70, "velocity": 102, "channel": 0}, {"type": "note_off", "time": 99, "note": 70, "velocity": 102, "channel": 0}, {"type": "note_on", "time": 86, "note": 60, "velocity": 84, "channel": 0}, {"type": "note_off", "time": 66, "note": 60, "velocity": 84, "channel": 0}, {"type": "note_on", "time": 23, "note": 70, "velocity": 113, "channel": 0}, {"type": "note_off", "time": 95, "note": 70, "velocity": 113, "channel": 0}, {"type": "note_on", "time": 111, "note": 65, "velocity": 96, "channel": 0}, {"type": "note_off", "time": 77, "note": 65, "velocity": 96, "channel": 0}, {"type": "note_on", "time": 114, "note": 67, "velocity": 104, "channel": 0}, {"type": "note_off", "time": 119, "note": 67, "velocity": 104, "channel": 0}, {"type": "note_on", "time": 29, "note": 70, "velocity": 107, "channel": 0}, {"type": "note_off", "time": 85, "note": 70, "velocity": 107, "channel": 0}, {"type": "note_on", "time": 99, "note": 69, "velocity": 110, "channel": 0}, {"type": "note_off", "time": 79, "note": 69, "velocity": 110, "channel": 0}, {"type": "note_on", "time": 107, "note": 67, "velocity": 99, "channel": 0}, {"type": "note_off", "time": 77, "note": 67, "velocity": 99, "channel": 0}, {"type": "note_on", "time": 120, "note": 65, "velocity": 87, "channel": 0}, {"type": "note_off", "time": 68, "note": 65, "velocity": 87, "channel": 0}, {"type": "note_on", "time": 754, "note": 80, "velocity": 116, "channel": 0}, {"type": "note_off", "time": 843, "note": 80, "velocity": 116, "channel": 0}, {"type": "note_on", "time": 21, "note": 79, "velocity": 113, "channel": 0}, {"type": "note_off", "time": 115, "note": 79, "velocity": 113, "channel": 0}, {"type": "note_on", "time": 18, "note": 77, "velocity": 115, "channel": 0}, {"type": "note_off", "time": 138, "note": 77, "velocity": 115, "channel": 0}, {"type": "note_on", "time": 32, "note": 74, "velocity": 110, "channel": 0}, {"type": "note_off", "time": 201, "note": 74, "velocity": 110, "channel": 0}, {"type": "note_on", "time": 25, "note": 72, "velocity": 114, "channel": 0}, {"type": "note_off", "time": 140, "note": 72, "velocity": 114, "channel": 0}, {"type": "note_on", "time": 16, "note": 70, "velocity": 100, "channel": 0}, {"type": "note_off", "time": 244, "note": 70, "velocity": 100, "channel": 0}, {"type": "note_on", "time": 6, "note": 68, "velocity": 103, "channel": 0}, {"type": "note_off", "time": 125, "note": 68, "velocity": 103, "channel": 0}, {"type": "note_on", "time": 15, "note": 64, "velocity": 101, "channel": 0}, {"type": "note_off", "time": 236, "note": 64, "velocity": 101, "channel": 0}, {"type": "note_on", "time": 12, "note": 63, "velocity": 90, "channel": 0}, {"type": "note_off", "time": 105, "note": 63, "velocity": 90, "channel": 0}, {"type": "note_on", "time": 40, "note": 63, "velocity": 92, "channel": 0}, {"type": "note_off", "time": 184, "note": 63, "velocity": 92, "channel": 0}, {"type": "note_on", "time": 6, "note": 62, "velocity": 88, "channel": 0}, {"type": "note_off", "time": 46, "note": 62, "velocity": 88, "channel": 0}, {"type": "note_on", "time": 407, "note": 64, "velocity": 105, "channel": 0}, {"type": "note_off", "time": 100, "note": 64, "velocity": 105, "channel": 0}, {"type": "note_on", "time": 16, "note": 61, "velocity": 92, "channel": 0}, {"type": "note_off", "time": 285, "note": 61, "velocity": 92, "channel": 0}, {"type": "note_on", "time": 789, "note": 58, "velocity": 106, "channel": 0}, {"type": "note_off", "time": 84, "note": 58, "velocity": 106, "channel": 0}, {"type": "note_on", "time": 8, "note": 61, "velocity": 110, "channel": 0}, {"type": "note_off", "time": 82, "note": 61, "velocity": 110, "channel": 0}, {"type": "note_on", "time": 13, "note": 63, "velocity": 112, "channel": 0}, {"type": "note_off", "time": 84, "note": 63, "velocity": 112, "channel": 0}, {"type": "note_on", "time": 9, "note": 64, "velocity": 107, "channel": 0}, {"type": "note_off", "time": 39, "note": 64, "velocity": 107, "channel": 0}, {"type": "note_on", "time": 10, "note": 65, "velocity": 116, "channel": 0}, {"type": "note_off", "time": 97, "note": 65, "velocity": 116, "channel": 0}, {"type": "note_on", "time": 28, "note": 64, "velocity": 97, "channel": 0}, {"type": "note_off", "time": 49, "note": 64, "velocity": 97, "channel": 0}, {"type": "note_on", "time": 12, "note": 66, "velocity": 111, "channel": 0}, {"type": "note_off", "time": 107, "note": 66, "velocity": 111, "channel": 0}, {"type": "note_on", "time": 9, "note": 68, "velocity": 114, "channel": 0}, {"type": "note_off", "time": 85, "note": 68, "velocity": 114, "channel": 0}, {"type": "note_on", "time": 4, "note": 66, "velocity": 107, "channel": 0}, {"type": "note_off", "time": 45, "note": 66, "velocity": 107, "channel": 0}, {"type": "note_on", "time": 16, "note": 65, "velocity": 103, "channel": 0}, {"type": "note_off", "time": 184, "note": 65, "velocity": 103, "channel": 0}, {"type": "note_on", "time": 49, "note": 64, "velocity": 97, "channel": 0}, {"type": "note_off", "time": 85, "note": 64, "velocity": 97, "channel": 0}, {"type": "note_on", "time": 15, "note": 62, "velocity": 90, "channel": 0}, {"type": "note_off", "time": 125, "note": 62, "velocity": 90, "channel": 0}, {"type": "note_on", "time": 488, "note": 72, "velocity": 104, "channel": 0}, {"type": "note_off", "time": 84, "note": 72, "velocity": 104, "channel": 0}, {"type": "note_on", "time": 14, "note": 74, "velocity": 104, "channel": 0}, {"type": "note_off", "time": 83, "note": 74, "velocity": 104, "channel": 0}, {"type": "note_on", "time": 10, "note": 72, "velocity": 112, "channel": 0}, {"type": "note_off", "time": 110, "note": 72, "velocity": 112, "channel": 0}, {"type": "note_on", "time": 6, "note": 70, "velocity": 109, "channel": 0}, {"type": "note_off", "time": 98, "note": 70, "velocity": 109, "channel": 0}, {"type": "note_on", "time": 16, "note": 69, "velocity": 111, "channel": 0}, {"type": "note_off", "time": 87, "note": 69, "velocity": 111, "channel": 0}, {"type": "note_on", "time": 7, "note": 67, "velocity": 103, "channel": 0}, {"type": "note_off", "time": 51, "note": 67, "velocity": 103, "channel": 0}, {"type": "note_on", "time": 8, "note": 65, "velocity": 105, "channel": 0}, {"type": "note_off", "time": 131, "note": 65, "velocity": 105, "channel": 0}, {"type": "note_on", "time": 0, "note": 62, "velocity": 94, "channel": 0}, {"type": "note_off", "time": 62, "note": 62, "velocity": 94, "channel": 0}, {"type": "note_on", "time": 19, "note": 63, "velocity": 98, "channel": 0}, {"type": "note_off", "time": 91, "note": 63, "velocity": 98, "channel": 0}, {"type": "note_on", "time": 17, "note": 61, "velocity": 98, "channel": 0}, {"type": "note_off", "time": 84, "note": 61, "velocity": 98, "channel": 0}, {"type": "note_on", "time": 359, "note": 70, "velocity": 118, "channel": 0}, {"type": "note_off", "time": 69, "note": 70, "velocity": 118, "channel": 0}, {"type": "note_on", "time": 1, "note": 72, "velocity": 116, "channel": 0}, {"type": "note_off", "time": 111, "note": 72, "velocity": 116, "channel": 0}, {"type": "note_on", "time": 10, "note": 70, "velocity": 119, "channel": 0}, {"type": "note_off", "time": 100, "note": 70, "velocity": 119, "channel": 0}, {"type": "note_on", "time": 21, "note": 70, "velocity": 111, "channel": 0}, {"type": "note_off", "time": 37, "note": 70, "velocity": 111, "channel": 0}, {"type": "note_on", "time": 16, "note": 69, "velocity": 111, "channel": 0}, {"type": "note_off", "time": 106, "note": 69, "velocity": 111, "channel": 0}, {"type": "note_on", "time": 52, "note": 67, "velocity": 102, "channel": 0}, {"type": "note_off", "time": 106, "note": 67, "velocity": 102, "channel": 0}, {"type": "note_on", "time": 40, "note": 65, "velocity": 97, "channel": 0}, {"type": "note_off", "time": 117, "note": 65, "velocity": 97, "channel": 0}, {"type": "note_on", "time": 6, "note": 63, "velocity": 80, "channel": 0}, {"type": "note_off", "time": 92, "note": 63, "velocity": 80, "channel": 0}, {"type": "note_on", "time": 40, "note": 62, "velocity": 101, "channel": 0}, {"type": "note_off", "time": 89, "note": 62, "velocity": 101, "channel": 0}, {"type": "note_on", "time": 37, "note": 58, "velocity": 98, "channel": 0}, {"type": "note_off", "time": 101, "note": 58, "velocity": 98, "channel": 0}, {"type": "note_on", "time": 390, "note": 59, "velocity": 100, "channel": 0}, {"type": "note_off", "time": 107, "note": 59, "velocity": 100, "channel": 0}, {"type": "note_on", "time": 16, "note": 58, "velocity": 101, "channel": 0}, {"type": "note_off", "time": 224, "note": 58, "velocity": 101, "channel": 0}, {"type": "note_on", "time": 74, "note": 67, "velocity": 105, "channel": 0}, {"type": "note_off", "time": 128, "note": 67, "velocity": 105, "channel": 0}, {"type": "note_on", "time": 57, "note": 69, "velocity": 106, "channel": 0}, {"type": "note_off", "time": 104, "note": 69, "velocity": 106, "channel": 0}, {"type": "note_on", "time": 16, "note": 67, "velocity": 103, "channel": 0}, {"type": "note_off", "time": 83, "note": 67, "velocity": 103, "channel": 0}, {"type": "note_on", "time": 76, "note": 69, "velocity": 114, "channel": 0}, {"type": "note_off", "time": 126, "note": 69, "velocity": 114, "channel": 0}, {"type": "note_on", "time": 79, "note": 70, "velocity": 109, "channel": 0}, {"type": "note_off", "time": 100, "note": 70, "velocity": 109, "channel": 0}, {"type": "note_on", "time": 91, "note": 70, "velocity": 103, "channel": 0}, {"type": "note_off", "time": 73, "note": 70, "velocity": 103, "channel": 0}, {"type": "note_on", "time": 17, "note": 67, "velocity": 94, "channel": 0}, {"type": "note_off", "time": 130, "note": 67, "velocity": 94, "channel": 0}, {"type": "note_on", "time": 53, "note": 63, "velocity": 96, "channel": 0}, {"type": "note_off", "time": 105, "note": 63, "velocity": 96, "channel": 0}, {"type": "note_on", "time": 10, "note": 60, "velocity": 81, "channel": 0}, {"type": "note_off", "time": 52, "note": 60, "velocity": 81, "channel": 0}, {"type": "note_on", "time": 30, "note": 62, "velocity": 95, "channel": 0}, {"type": "note_off", "time": 67, "note": 62, "velocity": 95, "channel": 0}, {"type": "note_on", "time": 58, "note": 65, "velocity": 110, "channel": 0}, {"type": "note_off", "time": 66, "note": 65, "velocity": 110, "channel": 0}, {"type": "note_on", "time": 24, "note": 62, "velocity": 90, "channel": 0}, {"type": "note_off", "time": 65, "note": 62, "velocity": 90, "channel": 0}, {"type": "note_on", "time": 24, "note": 58, "velocity": 89, "channel": 0}, {"type": "note_off", "time": 60, "note": 58, "velocity": 89, "channel": 0}, {"type": "note_on", "time": 19, "note": 63, "velocity": 96, "channel": 0}, {"type": "note_off", "time": 82, "note": 63, "velocity": 96, "channel": 0}, {"type": "note_on", "time": 466, "note": 74, "velocity": 109, "channel": 0}, {"type": "note_off", "time": 226, "note": 74, "velocity": 109, "channel": 0}, {"type": "note_on", "time": 14, "note": 71, "velocity": 106, "channel": 0}, {"type": "note_off", "time": 41, "note": 71, "velocity": 106, "channel": 0}, {"type": "note_on", "time": 9, "note": 70, "velocity": 107, "channel": 0}, {"type": "note_off", "time": 48, "note": 70, "velocity": 107, "channel": 0}, {"type": "note_on", "time": 16, "note": 68, "velocity": 111, "channel": 0}, {"type": "note_off", "time": 64, "note": 68, "velocity": 111, "channel": 0}, {"type": "note_on", "time": 9, "note": 69, "velocity": 106, "channel": 0}, {"type": "note_off", "time": 31, "note": 69, "velocity": 106, "channel": 0}, {"type": "note_on", "time": 2, "note": 68, "velocity": 102, "channel": 0}, {"type": "note_off", "time": 30, "note": 68, "velocity": 102, "channel": 0}, {"type": "note_on", "time": 7, "note": 66, "velocity": 98, "channel": 0}, {"type": "note_off", "time": 39, "note": 66, "velocity": 98, "channel": 0}, {"type": "note_on", "time": 5, "note": 63, "velocity": 97, "channel": 0}, {"type": "note_off", "time": 51, "note": 63, "velocity": 97, "channel": 0}, {"type": "note_on", "time": 9, "note": 61, "velocity": 94, "channel": 0}, {"type": "note_off", "time": 33, "note": 61, "velocity": 94, "channel": 0}, {"type": "note_on", "time": 18, "note": 59, "velocity": 92, "channel": 0}, {"type": "note_off", "time": 63, "note": 59, "velocity": 92, "channel": 0}, {"type": "note_on", "time": 25, "note": 56, "velocity": 98, "channel": 0}, {"type": "note_off", "time": 62, "note": 56, "velocity": 98, "channel": 0}, {"type": "note_on", "time": 21, "note": 54, "velocity": 94, "channel": 0}, {"type": "note_off", "time": 87, "note": 54, "velocity": 94, "channel": 0}, {"type": "note_on", "time": 484, "note": 78, "velocity": 112, "channel": 0}, {"type": "note_off", "time": 328, "note": 78, "velocity": 112, "channel": 0}, {"type": "note_on", "time": 15, "note": 77, "velocity": 110, "channel": 0}, {"type": "note_off", "time": 24, "note": 77, "velocity": 110, "channel": 0}, {"type": "note_on", "time": 5, "note": 75, "velocity": 116, "channel": 0}, {"type": "note_off", "time": 31, "note": 75, "velocity": 116, "channel": 0}, {"type": "note_on", "time": 7, "note": 74, "velocity": 111, "channel": 0}, {"type": "note_off", "time": 37, "note": 74, "velocity": 111, "channel": 0}, {"type": "note_on", "time": 21, "note": 73, "velocity": 103, "channel": 0}, {"type": "note_off", "time": 42, "note": 73, "velocity": 103, "channel": 0}, {"type": "note_on", "time": 13, "note": 72, "velocity": 107, "channel": 0}, {"type": "note_off", "time": 40, "note": 72, "velocity": 107, "channel": 0}, {"type": "note_on", "time": 3, "note": 71, "velocity": 105, "channel": 0}, {"type": "note_off", "time": 19, "note": 71, "velocity": 105, "channel": 0}, {"type": "note_on", "time": 10, "note": 70, "velocity": 106, "channel": 0}, {"type": "note_off", "time": 79, "note": 70, "velocity": 106, "channel": 0}, {"type": "note_on", "time": 8, "note": 69, "velocity": 108, "channel": 0}, {"type": "note_off", "time": 36, "note": 69, "velocity": 108, "channel": 0}, {"type": "note_on", "time": 6, "note": 67, "velocity": 102, "channel": 0}, {"type": "note_off", "time": 16, "note": 67, "velocity": 102, "channel": 0}, {"type": "note_on", "time": 17, "note": 66, "velocity": 103, "channel": 0}, {"type": "note_off", "time": 29, "note": 66, "velocity": 103, "channel": 0}, {"type": "note_on", "time": 6, "note": 63, "velocity": 96, "channel": 0}, {"type": "note_off", "time": 49, "note": 63, "velocity": 96, "channel": 0}, {"type": "note_on", "time": 10, "note": 59, "velocity": 89, "channel": 0}, {"type": "note_off", "time": 52, "note": 59, "velocity": 89, "channel": 0}, {"type": "note_on", "time": 38, "note": 65, "velocity": 104, "channel": 0}, {"type": "note_off", "time": 53, "note": 65, "velocity": 104, "channel": 0}, {"type": "note_on", "time": 5, "note": 67, "velocity": 98, "channel": 0}, {"type": "note_off", "time": 48, "note": 67, "velocity": 98, "channel": 0}, {"type": "note_on", "time": 10, "note": 69, "velocity": 102, "channel": 0}, {"type": "note_off", "time": 32, "note": 69, "velocity": 102, "channel": 0}, {"type": "note_on", "time": 12, "note": 79, "velocity": 116, "channel": 0}, {"type": "note_off", "time": 77, "note": 79, "velocity": 116, "channel": 0}, {"type": "note_on", "time": 25, "note": 71, "velocity": 104, "channel": 0}, {"type": "note_off", "time": 68, "note": 71, "velocity": 104, "channel": 0}, {"type": "note_on", "time": 861, "note": 69, "velocity": 117, "channel": 0}, {"type": "note_off", "time": 96, "note": 69, "velocity": 117, "channel": 0}, {"type": "note_on", "time": 10, "note": 71, "velocity": 120, "channel": 0}, {"type": "note_off", "time": 140, "note": 71, "velocity": 120, "channel": 0}, {"type": "note_on", "time": 11, "note": 71, "velocity": 124, "channel": 0}, {"type": "note_off", "time": 92, "note": 71, "velocity": 124, "channel": 0}, {"type": "note_on", "time": 13, "note": 74, "velocity": 105, "channel": 0}, {"type": "note_off", "time": 40, "note": 74, "velocity": 105, "channel": 0}, {"type": "note_on", "time": 7, "note": 66, "velocity": 94, "channel": 0}, {"type": "note_off", "time": 34, "note": 66, "velocity": 94, "channel": 0}, {"type": "note_on", "time": 10, "note": 70, "velocity": 113, "channel": 0}, {"type": "note_off", "time": 83, "note": 70, "velocity": 113, "channel": 0}, {"type": "note_on", "time": 1, "note": 71, "velocity": 118, "channel": 0}, {"type": "note_off", "time": 79, "note": 71, "velocity": 118, "channel": 0}, {"type": "note_on", "time": 6, "note": 71, "velocity": 117, "channel": 0}, {"type": "note_off", "time": 98, "note": 71, "velocity": 117, "channel": 0}, {"type": "note_on", "time": 81, "note": 71, "velocity": 108, "channel": 0}, {"type": "note_off", "time": 156, "note": 71, "velocity": 108, "channel": 0}, {"type": "note_on", "time": 20, "note": 76, "velocity": 109, "channel": 0}, {"type": "note_off", "time": 277, "note": 76, "velocity": 109, "channel": 0}, {"type": "note_on", "time": 25, "note": 74, "velocity": 104, "channel": 0}, {"type": "note_off", "time": 122, "note": 74, "velocity": 104, "channel": 0}, {"type": "note_on", "time": 442, "note": 66, "velocity": 105, "channel": 0}, {"type": "note_off", "time": 55, "note": 66, "velocity": 105, "channel": 0}, {"type": "note_on", "time": 6, "note": 71, "velocity": 96, "channel": 0}, {"type": "note_off", "time": 96, "note": 71, "velocity": 96, "channel": 0}, {"type": "note_on", "time": 14, "note": 74, "velocity": 110, "channel": 0}, {"type": "note_off", "time": 114, "note": 74, "velocity": 110, "channel": 0}, {"type": "note_on", "time": 10, "note": 76, "velocity": 108, "channel": 0}, {"type": "note_off", "time": 67, "note": 76, "velocity": 108, "channel": 0}, {"type": "note_on", "time": 9, "note": 71, "velocity": 88, "channel": 0}, {"type": "note_off", "time": 59, "note": 71, "velocity": 88, "channel": 0}, {"type": "note_on", "time": 28, "note": 72, "velocity": 105, "channel": 0}, {"type": "note_off", "time": 173, "note": 72, "velocity": 105, "channel": 0}, {"type": "note_on", "time": 16, "note": 69, "velocity": 110, "channel": 0}, {"type": "note_off", "time": 116, "note": 69, "velocity": 110, "channel": 0}, {"type": "note_on", "time": 35, "note": 67, "velocity": 91, "channel": 0}, {"type": "note_off", "time": 174, "note": 67, "velocity": 91, "channel": 0}, {"type": "note_on", "time": 741, "note": 67, "velocity": 123, "channel": 0}, {"type": "note_off", "time": 95, "note": 67, "velocity": 123, "channel": 0}, {"type": "note_on", "time": 6, "note": 70, "velocity": 118, "channel": 0}, {"type": "note_off", "time": 76, "note": 70, "velocity": 118, "channel": 0}, {"type": "note_on", "time": 12, "note": 72, "velocity": 119, "channel": 0}, {"type": "note_off", "time": 118, "note": 72, "velocity": 119, "channel": 0}, {"type": "note_on", "time": 14, "note": 73, "velocity": 106, "channel": 0}, {"type": "note_off", "time": 37, "note": 73, "velocity": 106, "channel": 0}, {"type": "note_on", "time": 18, "note": 73, "velocity": 114, "channel": 0}, {"type": "note_off", "time": 41, "note": 73, "velocity": 114, "channel": 0}, {"type": "note_on", "time": 18, "note": 74, "velocity": 116, "channel": 0}, {"type": "note_off", "time": 87, "note": 74, "velocity": 116, "channel": 0}, {"type": "note_on", "time": 13, "note": 75, "velocity": 107, "channel": 0}, {"type": "note_off", "time": 90, "note": 75, "velocity": 107, "channel": 0}, {"type": "note_on", "time": 13, "note": 78, "velocity": 109, "channel": 0}, {"type": "note_off", "time": 62, "note": 78, "velocity": 109, "channel": 0}, {"type": "note_on", "time": 58, "note": 73, "velocity": 96, "channel": 0}, {"type": "note_off", "time": 86, "note": 73, "velocity": 96, "channel": 0}, {"type": "note_on", "time": 380, "note": 80, "velocity": 105, "channel": 0}, {"type": "note_off", "time": 158, "note": 80, "velocity": 105, "channel": 0}, {"type": "note_on", "time": 19, "note": 74, "velocity": 104, "channel": 0}, {"type": "note_off", "time": 87, "note": 74, "velocity": 104, "channel": 0}, {"type": "note_on", "time": 466, "note": 80, "velocity": 109, "channel": 0}, {"type": "note_off", "time": 722, "note": 80, "velocity": 109, "channel": 0}, {"type": "note_on", "time": 42, "note": 68, "velocity": 99, "channel": 0}, {"type": "note_off", "time": 37, "note": 68, "velocity": 99, "channel": 0}, {"type": "note_on", "time": 16, "note": 67, "velocity": 98, "channel": 0}, {"type": "note_off", "time": 55, "note": 67, "velocity": 98, "channel": 0}, {"type": "note_on", "time": 10, "note": 68, "velocity": 103, "channel": 0}, {"type": "note_off", "time": 74, "note": 68, "velocity": 103, "channel": 0}, {"type": "note_on", "time": 9, "note": 80, "velocity": 92, "channel": 0}, {"type": "note_off", "time": 165, "note": 80, "velocity": 92, "channel": 0}, {"type": "note_on", "time": 503, "note": 74, "velocity": 112, "channel": 0}, {"type": "note_off", "time": 132, "note": 74, "velocity": 112, "channel": 0}, {"type": "note_on", "time": 10, "note": 71, "velocity": 99, "channel": 0}, {"type": "note_off", "time": 73, "note": 71, "velocity": 99, "channel": 0}, {"type": "note_on", "time": 19, "note": 72, "velocity": 100, "channel": 0}, {"type": "note_off", "time": 66, "note": 72, "velocity": 100, "channel": 0}, {"type": "note_on", "time": 9, "note": 79, "velocity": 112, "channel": 0}, {"type": "note_off", "time": 183, "note": 79, "velocity": 112, "channel": 0}, {"type": "note_on", "time": 5, "note": 72, "velocity": 84, "channel": 0}, {"type": "note_off", "time": 101, "note": 72, "velocity": 84, "channel": 0}, {"type": "note_on", "time": 0, "note": 80, "velocity": 105, "channel": 0}, {"type": "note_off", "time": 222, "note": 80, "velocity": 105, "channel": 0}, {"type": "note_on", "time": 351, "note": 78, "velocity": 117, "channel": 0}, {"type": "note_off", "time": 98, "note": 78, "velocity": 117, "channel": 0}, {"type": "note_on", "time": 3, "note": 77, "velocity": 120, "channel": 0}, {"type": "note_off", "time": 133, "note": 77, "velocity": 120, "channel": 0}, {"type": "note_on", "time": 460, "note": 78, "velocity": 9, "channel": 0}, {"type": "note_off", "time": 816, "note": 78, "velocity": 9, "channel": 0}, {"type": "note_on", "time": 19, "note": 75, "velocity": 115, "channel": 0}, {"type": "note_off", "time": 115, "note": 75, "velocity": 115, "channel": 0}, {"type": "note_on", "time": 3, "note": 74, "velocity": 111, "channel": 0}, {"type": "note_off", "time": 52, "note": 74, "velocity": 111, "channel": 0}, {"type": "note_on", "time": 19, "note": 75, "velocity": 112, "channel": 0}, {"type": "note_off", "time": 105, "note": 75, "velocity": 112, "channel": 0}, {"type": "note_on", "time": 3, "note": 78, "velocity": 116, "channel": 0}, {"type": "note_off", "time": 347, "note": 78, "velocity": 116, "channel": 0}, {"type": "note_on", "time": 12, "note": 75, "velocity": 119, "channel": 0}, {"type": "note_off", "time": 78, "note": 75, "velocity": 119, "channel": 0}, {"type": "note_on", "time": 13, "note": 74, "velocity": 113, "channel": 0}, {"type": "note_off", "time": 76, "note": 74, "velocity": 113, "channel": 0}, {"type": "note_on", "time": 2, "note": 75, "velocity": 116, "channel": 0}, {"type": "note_off", "time": 108, "note": 75, "velocity": 116, "channel": 0}, {"type": "note_on", "time": 12, "note": 79, "velocity": 121, "channel": 0}, {"type": "note_off", "time": 228, "note": 79, "velocity": 121, "channel": 0}, {"type": "note_on", "time": 5, "note": 78, "velocity": 111, "channel": 0}, {"type": "note_off", "time": 56, "note": 78, "velocity": 111, "channel": 0}, {"type": "note_on", "time": 17, "note": 77, "velocity": 106, "channel": 0}, {"type": "note_off", "time": 67, "note": 77, "velocity": 106, "channel": 0}, {"type": "note_on", "time": 33, "note": 74, "velocity": 107, "channel": 0}, {"type": "note_off", "time": 25, "note": 74, "velocity": 107, "channel": 0}, {"type": "note_on", "time": 11, "note": 73, "velocity": 109, "channel": 0}, {"type": "note_off", "time": 61, "note": 73, "velocity": 109, "channel": 0}, {"type": "note_on", "time": 16, "note": 72, "velocity": 102, "channel": 0}, {"type": "note_off", "time": 60, "note": 72, "velocity": 102, "channel": 0}, {"type": "note_on", "time": 11, "note": 71, "velocity": 101, "channel": 0}, {"type": "note_off", "time": 109, "note": 71, "velocity": 101, "channel": 0}, {"type": "note_on", "time": 35, "note": 70, "velocity": 78, "channel": 0}, {"type": "note_off", "time": 62, "note": 70, "velocity": 78, "channel": 0}, {"type": "note_on", "time": 27, "note": 68, "velocity": 82, "channel": 0}, {"type": "note_off", "time": 72, "note": 68, "velocity": 82, "channel": 0}, {"type": "end_of_track", "time": 0}]]}