{"ticks_per_beat": 192, "tracks": [[{"type": "track_name", "name": "Melody", "time": 0}, {"type": "set_tempo", "tempo": 253164, "time": 0}, {"type": "time_signature", "numerator": 1, "denominator": 4, "clocks_per_click": 24, "notated_32nd_notes_per_beat": 8, "time": 0}, {"type": "note_on", "time": 3546, "note": 70, "velocity": 108, "channel": 0}, {"type": "note_off", "time": 55, "note": 70, "velocity": 108, "channel": 0}, {"type": "note_on", "time": 17, "note": 71, "velocity": 107, "channel": 0}, {"type": "note_off", "time": 110, "note": 71, "velocity": 107, "channel": 0}, {"type": "note_on", "time": 33, "note": 69, "velocity": 109, "channel": 0}, {"type": "note_off", "time": 114, "note": 69, "velocity": 109, "channel": 0}, {"type": "note_on", "time": 6, "note": 70, "velocity": 109, "channel": 0}, {"type": "note_off", "time": 103, "note": 70, "velocity": 109, "channel": 0}, {"type": "note_on", "time": 68, "note": 75, "velocity": 118, "channel": 0}, {"type": "note_off", "time": 39, "note": 75, "velocity": 118, "channel": 0}, {"type": "note_on", "time": 8, "note": 76, "velocity": 119, "channel": 0}, {"type": "note_off", "time": 118, "note": 76, "velocity": 119, "channel": 0}, {"type": "note_on", "time": 19, "note": 73, "velocity": 111, "channel": 0}, {"type": "note_off", "time": 88, "note": 73, "velocity": 111, "channel": 0}, {"type": "note_on", "time": 6, "note": 74, "velocity": 108, "channel": 0}, {"type": "note_off", "time": 121, "note": 74, "velocity": 108, "channel": 0}, {"type": "note_on", "time": 11, "note": 73, "velocity": 101, "channel": 0}, {"type": "note_off", "time": 66, "note": 73, "velocity": 101, "channel": 0}, {"type": "note_on", "time": 4, "note": 71, "velocity": 103, "channel": 0}, {"type": "note_off", "time": 61, "note": 71, "velocity": 103, "channel": 0}, {"type": "note_on", "time": 13, "note": 70, "velocity": 82, "channel": 0}, {"type": "note_off", "time": 59, "note": 70, "velocity": 82, "channel": 0}, {"type": "note_on", "time": 6, "note": 66, "velocity": 79, "channel": 0}, {"type": "note_off", "time": 66, "note": 66, "velocity": 79, "channel": 0}, {"type": "note_on", "time": 4, "note": 68, "velocity": 94, "channel": 0}, {"type": "note_off", "time": 92, "note": 68, "velocity": 94, "channel": 0}, {"type": "note_on", "time": 4, "note": 65, "velocity": 90, "channel": 0}, {"type": "note_off", "time": 66, "note": 65, "velocity": 90, "channel": 0}, {"type": "note_on", "time": 13, "note": 65, "velocity": 89, "channel": 0}, {"type": "note_off", "time": 96, "note": 65, "velocity": 89, "channel": 0}, {"type": "note_on", "time": 22, "note": 65, "velocity": 87, "channel": 0}, {"type": "note_off", "time": 105, "note": 65, "velocity": 87, "channel": 0}, {"type": "note_on", "time": 17, "note": 65, "velocity": 89, "channel": 0}, {"type": "note_off", "time": 114, "note": 65, "velocity": 89, "channel": 0}, {"type": "note_on", "time": 24, "note": 67, "velocity": 85, "channel": 0}, {"type": "note_off", "time": 288, "note": 67, "velocity": 85, "channel": 0}, {"type": "note_on", "time": 739, "note": 62, "velocity": 103, "channel": 0}, {"type": "note_off", "time": 92, "note": 62, "velocity": 103, "channel": 0}, {"type": "note_on", "time": 8, "note": 65, "velocity": 114, "channel": 0}, {"type": "note_off", "time": 70, "note": 65, "velocity": 114, "channel": 0}, {"type": "note_on", "time": 4, "note": 62, "velocity": 89, "channel": 0}, {"type": "note_off", "time": 136, "note": 62, "velocity": 89, "channel": 0}, {"type": "note_on", "time": 4, "note": 61, "velocity": 89, "channel": 0}, {"type": "note_off", "time": 57, "note": 61, "velocity": 89, "channel": 0}, {"type": "note_on", "time": 8, "note": 67, "velocity": 109, "channel": 0}, {"type": "note_off", "time": 79, "note": 67, "velocity": 109, "channel": 0}, {"type": "note_on", "time": 0, "note": 62, "velocity": 90, "channel": 0}, {"type": "note_off", "time": 96, "note": 62, "velocity": 90, "channel": 0}, {"type": "note_on", "time": 0, "note": 60, "velocity": 91, "channel": 0}, {"type": "note_off", "time": 92, "note": 60, "velocity": 91, "channel": 0}, {"type": "note_on", "time": 35, "note": 68, "velocity": 110, "channel": 0}, {"type": "note_off", "time": 96, "note": 68, "velocity": 110, "channel": 0}, {"type": "note_on", "time": 0, "note": 62, "velocity": 89, "channel": 0}, {"type": "note_off", "time": 70, "note": 62, "velocity": 89, "channel": 0}, {"type": "note_on", "time": 4, "note": 60, "velocity": 87, "channel": 0}, {"type": "note_off", "time": 70, "note": 60, "velocity": 87, "channel": 0}, {"type": "note_on", "time": 66, "note": 68, "velocity": 114, "channel": 0}, {"type": "note_off", "time": 88, "note": 68, "velocity": 114, "channel": 0}, {"type": "note_on", "time": 22, "note": 69, "velocity": 111, "channel": 0}, {"type": "note_off", "time": 92, "note": 69, "velocity": 111, "channel": 0}, {"type": "note_on", "time": 4, "note": 65, "velocity": 103, "channel": 0}, {"type": "note_off", "time": 79, "note": 65, "velocity": 103, "channel": 0}, {"type": "note_on", "time": 0, "note": 60, "velocity": 94, "channel": 0}, {"type": "note_off", "time": 88, "note": 60, "velocity": 94, "channel": 0}, {"type": "note_on", "time": 8, "note": 57, "velocity": 94, "channel": 0}, {"type": "note_off", "time": 103, "note": 57, "velocity": 94, "channel": 0}, {"type": "note_on", "time": 6, "note": 55, "velocity": 82, "channel": 0}, {"type": "note_off", "time": 92, "note": 55, "velocity": 82, "channel": 0}, {"type": "note_on", "time": 13, "note": 58, "velocity": 94, "channel": 0}, {"type": "note_off", "time": 96, "note": 58, "velocity": 94, "channel": 0}, {"type": "note_on", "time": 6, "note": 66, "velocity": 110, "channel": 0}, {"type": "note_on", "time": 77, "note": 64, "velocity": 94, "channel": 0}, {"type": "note_off", "time": 0, "note": 66, "velocity": 110, "channel": 0}, {"type": "note_off", "time": 83, "note": 64, "velocity": 94, "channel": 0}, {"type": "note_on", "time": 22, "note": 60, "velocity": 89, "channel": 0}, {"type": "note_off", "time": 61, "note": 60, "velocity": 89, "channel": 0}, {"type": "note_on", "time": 17, "note": 61, "velocity": 97, "channel": 0}, {"type": "note_off", "time": 92, "note": 61, "velocity": 97, "channel": 0}, {"type": "note_on", "time": 17, "note": 62, "velocity": 99, "channel": 0}, {"type": "note_off", "time": 123, "note": 62, "velocity": 99, "channel": 0}, {"type": "note_on", "time": 1025, "note": 62, "velocity": 102, "channel": 0}, {"type": "note_off", "time": 39, "note": 62, "velocity": 102, "channel": 0}, {"type": "note_on", "time": 4, "note": 64, "velocity": 96, "channel": 0}, {"type": "note_off", "time": 61, "note": 64, "velocity": 96, "channel": 0}, {"type": "note_on", "time": 4, "note": 65, "velocity": 89, "channel": 0}, {"type": "note_off", "time": 74, "note": 65, "velocity": 89, "channel": 0}, {"type": "note_on", "time": 8, "note": 69, "velocity": 95, "channel": 0}, {"type": "note_off", "time": 44, "note": 69, "velocity": 95, "channel": 0}, {"type": "note_on", "time": 11, "note": 76, "velocity": 102, "channel": 0}, {"type": "note_off", "time": 66, "note": 76, "velocity": 102, "channel": 0}, {"type": "note_on", "time": 15, "note": 70, "velocity": 104, "channel": 0}, {"type": "note_off", "time": 110, "note": 70, "velocity": 104, "channel": 0}, {"type": "note_on", "time": 13, "note": 71, "velocity": 105, "channel": 0}, {"type": "note_off", "time": 88, "note": 71, "velocity": 105, "channel": 0}, {"type": "note_on", "time": 8, "note": 69, "velocity": 104, "channel": 0}, {"type": "note_off", "time": 101, "note": 69, "velocity": 104, "channel": 0}, {"type": "note_on", "time": 8, "note": 67, "velocity": 95, "channel": 0}, {"type": "note_off", "time": 61, "note": 67, "velocity": 95, "channel": 0}, {"type": "note_on", "time": 4, "note": 70, "velocity": 104, "channel": 0}, {"type": "note_off", "time": 101, "note": 70, "velocity": 104, "channel": 0}, {"type": "note_on", "time": 13, "note": 60, "velocity": 95, "channel": 0}, {"type": "note_off", "time": 129, "note": 60, "velocity": 95, "channel": 0}, {"type": "note_on", "time": 101, "note": 61, "velocity": 85, "channel": 0}, {"type": "note_off", "time": 103, "note": 61, "velocity": 85, "channel": 0}, {"type": "note_on", "time": 103, "note": 62, "velocity": 85, "channel": 0}, {"type": "note_off", "time": 103, "note": 62, "velocity": 85, "channel": 0}, {"type": "note_on", "time": 68, "note": 58, "velocity": 94, "channel": 0}, {"type": "note_off", "time": 55, "note": 58, "velocity": 94, "channel": 0}, {"type": "note_on", "time": 4, "note": 60, "velocity": 85, "channel": 0}, {"type": "note_off", "time": 44, "note": 60, "velocity": 85, "channel": 0}, {"type": "note_on", "time": 341, "note": 70, "velocity": 101, "channel": 0}, {"type": "note_off", "time": 52, "note": 70, "velocity": 101, "channel": 0}, {"type": "note_on", "time": 22, "note": 69, "velocity": 100, "channel": 0}, {"type": "note_off", "time": 57, "note": 69, "velocity": 100, "channel": 0}, {"type": "note_on", "time": 6, "note": 68, "velocity": 91, "channel": 0}, {"type": "note_off", "time": 59, "note": 68, "velocity": 91, "channel": 0}, {"type": "note_on", "time": 33, "note": 69, "velocity": 104, "channel": 0}, {"type": "note_off", "time": 81, "note": 69, "velocity": 104, "channel": 0}, {"type": "note_on", "time": 0, "note": 67, "velocity": 99, "channel": 0}, {"type": "note_off", "time": 96, "note": 67, "velocity": 99, "channel": 0}, {"type": "note_on", "time": 4, "note": 65, "velocity": 95, "channel": 0}, {"type": "note_off", "time": 79, "note": 65, "velocity": 95, "channel": 0}, {"type": "note_on", "time": 11, "note": 61, "velocity": 87, "channel": 0}, {"type": "note_off", "time": 79, "note": 61, "velocity": 87, "channel": 0}, {"type": "note_on", "time": 343, "note": 70, "velocity": 95, "channel": 0}, {"type": "note_off", "time": 35, "note": 70, "velocity": 95, "channel": 0}, {"type": "note_on", "time": 13, "note": 72, "velocity": 104, "channel": 0}, {"type": "note_off", "time": 781, "note": 72, "velocity": 104, "channel": 0}, {"type": "note_on", "time": 11, "note": 74, "velocity": 99, "channel": 0}, {"type": "note_off", "time": 114, "note": 74, "velocity": 99, "channel": 0}, {"type": "note_on", "time": 0, "note": 70, "velocity": 86, "channel": 0}, {"type": "note_off", "time": 81, "note": 70, "velocity": 86, "channel": 0}, {"type": "note_on", "time": 13, "note": 72, "velocity": 98, "channel": 0}, {"type": "note_off", "time": 92, "note": 72, "velocity": 98, "channel": 0}, {"type": "note_on", "time": 24, "note": 69, "velocity": 102, "channel": 0}, {"type": "note_off", "time": 105, "note": 69, "velocity": 102, "channel": 0}, {"type": "note_on", "time": 88, "note": 70, "velocity": 101, "channel": 0}, {"type": "note_off", "time": 88, "note": 70, "velocity": 101, "channel": 0}, {"type": "note_on", "time": 136, "note": 70, "velocity": 96, "channel": 0}, {"type": "note_off", "time": 37, "note": 70, "velocity": 96, "channel": 0}, {"type": "note_on", "time": 6, "note": 72, "velocity": 91, "channel": 0}, {"type": "note_off", "time": 523, "note": 72, "velocity": 91, "channel": 0}, {"type": "note_on", "time": 6, "note": 69, "velocity": 96, "channel": 0}, {"type": "note_off", "time": 77, "note": 69, "velocity": 96, "channel": 0}, {"type": "note_on", "time": 13, "note": 67, "velocity": 99, "channel": 0}, {"type": "note_off", "time": 90, "note": 67, "velocity": 99, "channel": 0}, {"type": "note_on", "time": 8, "note": 65, "velocity": 88, "channel": 0}, {"type": "note_off", "time": 68, "note": 65, "velocity": 88, "channel": 0}, {"type": "note_on", "time": 8, "note": 67, "velocity": 90, "channel": 0}, {"type": "note_off", "time": 132, "note": 67, "velocity": 90, "channel": 0}, {"type": "note_on", "time": 6, "note": 69, "velocity": 81, "channel": 0}, {"type": "note_off", "time": 253, "note": 69, "velocity": 81, "channel": 0}, {"type": "note_on", "time": 706, "note": 70, "velocity": 106, "channel": 0}, {"type": "note_off", "time": 57, "note": 70, "velocity": 106, "channel": 0}, {"type": "note_on", "time": 8, "note": 72, "velocity": 106, "channel": 0}, {"type": "note_off", "time": 94, "note": 72, "velocity": 106, "channel": 0}, {"type": "note_on", "time": 6, "note": 73, "velocity": 102, "channel": 0}, {"type": "note_off", "time": 121, "note": 73, "velocity": 102, "channel": 0}, {"type": "note_on", "time": 13, "note": 74, "velocity": 100, "channel": 0}, {"type": "note_off", "time": 88, "note": 74, "velocity": 100, "channel": 0}, {"type": "note_on", "time": 0, "note": 72, "velocity": 105, "channel": 0}, {"type": "note_off", "time": 83, "note": 72, "velocity": 105, "channel": 0}, {"type": "note_on", "time": 6, "note": 70, "velocity": 103, "channel": 0}, {"type": "note_off", "time": 114, "note": 70, "velocity": 103, "channel": 0}, {"type": "note_on", "time": 8, "note": 68, "velocity": 103, "channel": 0}, {"type": "note_off", "time": 79, "note": 68, "velocity": 103, "channel": 0}, {"type": "note_on", "time": 8, "note": 67, "velocity": 106, "channel": 0}, {"type": "note_off", "time": 110, "note": 67, "velocity": 106, "channel": 0}, {"type": "note_on", "time": 2, "note": 61, "velocity": 89, "channel": 0}, {"type": "note_off", "time": 63, "note": 61, "velocity": 89, "channel": 0}, {"type": "note_on", "time": 4, "note": 66, "velocity": 103, "channel": 0}, {"type": "note_off", "time": 57, "note": 66, "velocity": 103, "channel": 0}, {"type": "note_on", "time": 4, "note": 67, "velocity": 98, "channel": 0}, {"type": "note_off", "time": 44, "note": 67, "velocity": 98, "channel": 0}, {"type": "note_on", "time": 15, "note": 68, "velocity": 91, "channel": 0}, {"type": "note_off", "time": 41, "note": 68, "velocity": 91, "channel": 0}, {"type": "note_on", "time": 6, "note": 65, "velocity": 93, "channel": 0}, {"type": "note_off", "time": 171, "note": 65, "velocity": 93, "channel": 0}, {"type": "note_on", "time": 11, "note": 63, "velocity": 90, "channel": 0}, {"type": "note_off", "time": 215, "note": 63, "velocity": 90, "channel": 0}, {"type": "note_on", "time": 193, "note": 74, "velocity": 101, "channel": 0}, {"type": "note_off", "time": 105, "note": 74, "velocity": 101, "channel": 0}, {"type": "note_on", "time": 0, "note": 73, "velocity": 97, "channel": 0}, {"type": "note_off", "time": 94, "note": 73, "velocity": 97, "channel": 0}, {"type": "note_on", "time": 8, "note": 71, "velocity": 94, "channel": 0}, {"type": "note_off", "time": 74, "note": 71, "velocity": 94, "channel": 0}, {"type": "note_on", "time": 0, "note": 72, "velocity": 103, "channel": 0}, {"type": "note_off", "time": 110, "note": 72, "velocity": 103, "channel": 0}, {"type": "note_on", "time": 268, "note": 70, "velocity": 105, "channel": 0}, {"type": "note_off", "time": 52, "note": 70, "velocity": 105, "channel": 0}, {"type": "note_on", "time": 6, "note": 71, "velocity": 105, "channel": 0}, {"type": "note_off", "time": 79, "note": 71, "velocity": 105, "channel": 0}, {"type": "note_on", "time": 6, "note": 72, "velocity": 98, "channel": 0}, {"type": "note_off", "time": 88, "note": 72, "velocity": 98, "channel": 0}, {"type": "note_on", "time": 11, "note": 67, "velocity": 99, "channel": 0}, {"type": "note_off", "time": 136, "note": 67, "velocity": 99, "channel": 0}, {"type": "note_on", "time": 290, "note": 67, "velocity": 115, "channel": 0}, {"type": "note_off", "time": 103, "note": 67, "velocity": 115, "channel": 0}, {"type": "note_on", "time": 107, "note": 64, "velocity": 98, "channel": 0}, {"type": "note_off", "time": 70, "note": 64, "velocity": 98, "channel": 0}, {"type": "note_on", "time": 107, "note": 67, "velocity": 109, "channel": 0}, {"type": "note_off", "time": 83, "note": 67, "velocity": 109, "channel": 0}, {"type": "note_on", "time": 22, "note": 66, "velocity": 107, "channel": 0}, {"type": "note_off", "time": 83, "note": 66, "velocity": 107, "channel": 0}, {"type": "note_on", "time": 110, "note": 62, "velocity": 99, "channel": 0}, {"type": "note_off", "time": 101, "note": 62, "velocity": 99, "channel": 0}, {"type": "note_on", "time": 0, "note": 58, "velocity": 91, "channel": 0}, {"type": "note_off", "time": 90, "note": 58, "velocity": 91, "channel": 0}, {"type": "note_on", "time": 15, "note": 64, "velocity": 109, "channel": 0}, {"type": "note_off", "time": 44, "note": 64, "velocity": 109, "channel": 0}, {"type": "note_on", "time": 0, "note": 65, "velocity": 105, "channel": 0}, {"type": "note_off", "time": 107, "note": 65, "velocity": 105, "channel": 0}, {"type": "note_on", "time": 8, "note": 67, "velocity": 105, "channel": 0}, {"type": "note_off", "time": 107, "note": 67, "velocity": 105, "channel": 0}, {"type": "note_on", "time": 61, "note": 64, "velocity": 86, "channel": 0}, {"type": "note_off", "time": 92, "note": 64, "velocity": 86, "channel": 0}, {"type": "note_on", "time": 149, "note": 65, "velocity": 103, "channel": 0}, {"type": "note_off", "time": 96, "note": 65, "velocity": 103, "channel": 0}, {"type": "note_on", "time": 2, "note": 67, "velocity": 104, "channel": 0}, {"type": "note_off", "time": 96, "note": 67, "velocity": 104, "channel": 0}, {"type": "note_on", "time": 11, "note": 69, "velocity": 101, "channel": 0}, {"type": "note_off", "time": 88, "note": 69, "velocity": 101, "channel": 0}, {"type": "note_on", "time": 6, "note": 70, "velocity": 106, "channel": 0}, {"type": "note_off", "time": 70, "note": 70, "velocity": 106, "channel": 0}, {"type": "note_on", "time": 13, "note": 72, "velocity": 104, "channel": 0}, {"type": "note_off", "time": 94, "note": 72, "velocity": 104, "channel": 0}, {"type": "note_on", "time": 33, "note": 67, "velocity": 91, "channel": 0}, {"type": "note_off", "time": 63, "note": 67, "velocity": 91, "channel": 0}, {"type": "note_on", "time": 4, "note": 68, "velocity": 103, "channel": 0}, {"type": "note_off", "time": 101, "note": 68, "velocity": 103, "channel": 0}, {"type": "note_on", "time": 6, "note": 66, "velocity": 102, "channel": 0}, {"type": "note_off", "time": 92, "note": 66, "velocity": 102, "channel": 0}, {"type": "note_on", "time": 33, "note": 62, "velocity": 92, "channel": 0}, {"type": "note_off", "time": 66, "note": 62, "velocity": 92, "channel": 0}, {"type": "note_on", "time": 6, "note": 58, "velocity": 89, "channel": 0}, {"type": "note_off", "time": 59, "note": 58, "velocity": 89, "channel": 0}, {"type": "note_on", "time": 41, "note": 61, "velocity": 92, "channel": 0}, {"type": "note_off", "time": 171, "note": 61, "velocity": 92, "channel": 0}, {"type": "note_on", "time": 0, "note": 62, "velocity": 93, "channel": 0}, {"type": "note_off", "time": 101, "note": 62, "velocity": 93, "channel": 0}, {"type": "note_on", "time": 26, "note": 59, "velocity": 90, "channel": 0}, {"type": "note_off", "time": 72, "note": 59, "velocity": 90, "channel": 0}, {"type": "note_on", "time": 191, "note": 71, "velocity": 103, "channel": 0}, {"type": "note_off", "time": 57, "note": 71, "velocity": 103, "channel": 0}, {"type": "note_on", "time": 0, "note": 72, "velocity": 111, "channel": 0}, {"type": "note_off", "time": 85, "note": 72, "velocity": 111, "channel": 0}, {"type": "note_on", "time": 6, "note": 78, "velocity": 101, "channel": 0}, {"type": "note_off", "time": 352, "note": 78, "velocity": 101, "channel": 0}, {"type": "note_on", "time": 373, "note": 72, "velocity": 109, "channel": 0}, {"type": "note_off", "time": 92, "note": 72, "velocity": 109, "channel": 0}, {"type": "note_on", "time": 2, "note": 69, "velocity": 111, "channel": 0}, {"type": "note_off", "time": 105, "note": 69, "velocity": 111, "channel": 0}, {"type": "note_on", "time": 2, "note": 67, "velocity": 106, "channel": 0}, {"type": "note_off", "time": 79, "note": 67, "velocity": 106, "channel": 0}, {"type": "note_on", "time": 13, "note": 70, "velocity": 97, "channel": 0}, {"type": "note_off", "time": 10, "note": 70, "velocity": 97, "channel": 0}, {"type": "note_on", "time": 0, "note": 74, "velocity": 98, "channel": 0}, {"type": "note_off", "time": 39, "note": 74, "velocity": 98, "channel": 0}, {"type": "note_on", "time": 74, "note": 60, "velocity": 85, "channel": 0}, {"type": "note_off", "time": 50, "note": 60, "velocity": 85, "channel": 0}, {"type": "note_on", "time": 13, "note": 69, "velocity": 105, "channel": 0}, {"type": "note_off", "time": 88, "note": 69, "velocity": 105, "channel": 0}, {"type": "note_on", "time": 24, "note": 67, "velocity": 103, "channel": 0}, {"type": "note_off", "time": 83, "note": 67, "velocity": 103, "channel": 0}, {"type": "note_on", "time": 266, "note": 76, "velocity": 104, "channel": 0}, {"type": "note_off", "time": 39, "note": 76, "velocity": 104, "channel": 0}, {"type": "note_on", "time": 11, "note": 79, "velocity": 105, "channel": 0}, {"type": "note_off", "time": 345, "note": 79, "velocity": 105, "channel": 0}, {"type": "note_on", "time": 981, "note": 78, "velocity": 101, "channel": 0}, {"type": "note_off", "time": 61, "note": 78, "velocity": 101, "channel": 0}, {"type": "note_on", "time": 8, "note": 80, "velocity": 105, "channel": 0}, {"type": "note_off", "time": 394, "note": 80, "velocity": 105, "channel": 0}, {"type": "note_on", "time": 2, "note": 76, "velocity": 88, "channel": 0}, {"type": "note_off", "time": 46, "note": 76, "velocity": 88, "channel": 0}, {"type": "note_on", "time": 6, "note": 74, "velocity": 96, "channel": 0}, {"type": "note_off", "time": 99, "note": 74, "velocity": 96, "channel": 0}, {"type": "note_on", "time": 8, "note": 72, "velocity": 94, "channel": 0}, {"type": "note_off", "time": 59, "note": 72, "velocity": 94, "channel": 0}, {"type": "note_on", "time": 367, "note": 69, "velocity": 95, "channel": 0}, {"type": "note_off", "time": 33, "note": 69, "velocity": 95, "channel": 0}, {"type": "note_on", "time": 2, "note": 70, "velocity": 101, "channel": 0}, {"type": "note_off", "time": 99, "note": 70, "velocity": 101, "channel": 0}, {"type": "note_on", "time": 15, "note": 69, "velocity": 98, "channel": 0}, {"type": "note_off", "time": 250, "note": 69, "velocity": 98, "channel": 0}, {"type": "note_on", "time": 6, "note": 65, "velocity": 96, "channel": 0}, {"type": "note_off", "time": 99, "note": 65, "velocity": 96, "channel": 0}, {"type": "note_on", "time": 231, "note": 76, "velocity": 90, "channel": 0}, {"type": "note_off", "time": 46, "note": 76, "velocity": 90, "channel": 0}, {"type": "note_on", "time": 8, "note": 79, "velocity": 107, "channel": 0}, {"type": "note_off", "time": 202, "note": 79, "velocity": 107, "channel": 0}, {"type": "note_on", "time": 6, "note": 76, "velocity": 82, "channel": 0}, {"type": "note_off", "time": 30, "note": 76, "velocity": 82, "channel": 0}, {"type": "note_on", "time": 4, "note": 74, "velocity": 96, "channel": 0}, {"type": "note_off", "time": 114, "note": 74, "velocity": 96, "channel": 0}, {"type": "note_on", "time": 6, "note": 72, "velocity": 97, "channel": 0}, {"type": "note_off", "time": 66, "note": 72, "velocity": 97, "channel": 0}, {"type": "note_on", "time": 867, "note": 76, "velocity": 101, "channel": 0}, {"type": "note_off", "time": 46, "note": 76, "velocity": 101, "channel": 0}, {"type": "note_on", "time": 6, "note": 77, "velocity": 105, "channel": 0}, {"type": "note_off", "time": 202, "note": 77, "velocity": 105, "channel": 0}, {"type": "note_on", "time": 0, "note": 72, "velocity": 94, "channel": 0}, {"type": "note_off", "time": 129, "note": 72, "velocity": 94, "channel": 0}, {"type": "note_on", "time": 11, "note": 69, "velocity": 89, "channel": 0}, {"type": "note_off", "time": 55, "note": 69, "velocity": 89, "channel": 0}, {"type": "note_on", "time": 2, "note": 70, "velocity": 99, "channel": 0}, {"type": "note_off", "time": 107, "note": 70, "velocity": 99, "channel": 0}, {"type": "note_on", "time": 0, "note": 67, "velocity": 106, "channel": 0}, {"type": "note_off", "time": 114, "note": 67, "velocity": 106, "channel": 0}, {"type": "note_on", "time": 4, "note": 65, "velocity": 97, "channel": 0}, {"type": "note_off", "time": 92, "note": 65, "velocity": 97, "channel": 0}, {"type": "note_on", "time": 13, "note": 62, "velocity": 89, "channel": 0}, {"type": "note_off", "time": 57, "note": 62, "velocity": 89, "channel": 0}, {"type": "note_on", "time": 4, "note": 69, "velocity": 92, "channel": 0}, {"type": "note_off", "time": 184, "note": 69, "velocity": 92, "channel": 0}, {"type": "note_on", "time": 290, "note": 72, "velocity": 100, "channel": 0}, {"type": "note_off", "time": 94, "note": 72, "velocity": 100, "channel": 0}, {"type": "note_on", "time": 8, "note": 70, "velocity": 106, "channel": 0}, {"type": "note_off", "time": 105, "note": 70, "velocity": 106, "channel": 0}, {"type": "note_on", "time": 19, "note": 70, "velocity": 102, "channel": 0}, {"type": "note_off", "time": 237, "note": 70, "velocity": 102, "channel": 0}, {"type": "note_on", "time": 11, "note": 69, "velocity": 102, "channel": 0}, {"type": "note_off", "time": 96, "note": 69, "velocity": 102, "channel": 0}, {"type": "note_on", "time": 2, "note": 65, "velocity": 89, "channel": 0}, {"type": "note_off", "time": 96, "note": 65, "velocity": 89, "channel": 0}, {"type": "note_on", "time": 2, "note": 67, "velocity": 101, "channel": 0}, {"type": "note_off", "time": 127, "note": 67, "velocity": 101, "channel": 0}, {"type": "note_on", "time": 239, "note": 69, "velocity": 107, "channel": 0}, {"type": "note_off", "time": 26, "note": 69, "velocity": 107, "channel": 0}, {"type": "note_on", "time": 4, "note": 70, "velocity": 105, "channel": 0}, {"type": "note_off", "time": 96, "note": 70, "velocity": 105, "channel": 0}, {"type": "note_on", "time": 125, "note": 72, "velocity": 96, "channel": 0}, {"type": "note_off", "time": 92, "note": 72, "velocity": 96, "channel": 0}, {"type": "note_on", "time": 6, "note": 71, "velocity": 102, "channel": 0}, {"type": "note_off", "time": 74, "note": 71, "velocity": 102, "channel": 0}, {"type": "note_on", "time": 8, "note": 72, "velocity": 98, "channel": 0}, {"type": "note_off", "time": 94, "note": 72, "velocity": 98, "channel": 0}, {"type": "note_on", "time": 13, "note": 70, "velocity": 96, "channel": 0}, {"type": "note_off", "time": 55, "note": 70, "velocity": 96, "channel": 0}, {"type": "note_on", "time": 15, "note": 70, "velocity": 99, "channel": 0}, {"type": "note_off", "time": 154, "note": 70, "velocity": 99, "channel": 0}, {"type": "note_on", "time": 2, "note": 67, "velocity": 89, "channel": 0}, {"type": "note_off", "time": 81, "note": 67, "velocity": 89, "channel": 0}, {"type": "note_on", "time": 0, "note": 68, "velocity": 99, "channel": 0}, {"type": "note_off", "time": 107, "note": 68, "velocity": 99, "channel": 0}, {"type": "note_on", "time": 11, "note": 75, "velocity": 93, "channel": 0}, {"type": "note_off", "time": 81, "note": 75, "velocity": 93, "channel": 0}, {"type": "note_on", "time": 190, "note": 72, "velocity": 97, "channel": 0}, {"type": "note_off", "time": 35, "note": 72, "velocity": 97, "channel": 0}, {"type": "note_on", "time": 2, "note": 73, "velocity": 95, "channel": 0}, {"type": "note_off", "time": 76, "note": 73, "velocity": 95, "channel": 0}, {"type": "note_on", "time": 60, "note": 72, "velocity": 96, "channel": 0}, {"type": "note_off", "time": 114, "note": 72, "velocity": 96, "channel": 0}, {"type": "note_on", "time": 9, "note": 71, "velocity": 99, "channel": 0}, {"type": "note_off", "time": 102, "note": 71, "velocity": 99, "channel": 0}, {"type": "note_on", "time": 66, "note": 68, "velocity": 100, "channel": 0}, {"type": "note_off", "time": 110, "note": 68, "velocity": 100, "channel": 0}, {"type": "note_on", "time": 19, "note": 63, "velocity": 80, "channel": 0}, {"type": "note_off", "time": 57, "note": 63, "velocity": 80, "channel": 0}, {"type": "note_on", "time": 4, "note": 60, "velocity": 83, "channel": 0}, {"type": "note_off", "time": 59, "note": 60, "velocity": 83, "channel": 0}, {"type": "note_on", "time": 13, "note": 68, "velocity": 98, "channel": 0}, {"type": "note_off", "time": 145, "note": 68, "velocity": 98, "channel": 0}, {"type": "note_on", "time": 68, "note": 68, "velocity": 95, "channel": 0}, {"type": "note_off", "time": 33, "note": 68, "velocity": 95, "channel": 0}, {"type": "note_on", "time": 2, "note": 69, "velocity": 98, "channel": 0}, {"type": "note_off", "time": 74, "note": 69, "velocity": 98, "channel": 0}, {"type": "note_on", "time": 35, "note": 60, "velocity": 79, "channel": 0}, {"type": "note_off", "time": 219, "note": 60, "velocity": 79, "channel": 0}, {"type": "note_on", "time": 14, "note": 62, "velocity": 98, "channel": 0}, {"type": "note_off", "time": 97, "note": 62, "velocity": 98, "channel": 0}, {"type": "note_on", "time": 5, "note": 60, "velocity": 83, "channel": 0}, {"type": "note_off", "time": 77, "note": 60, "velocity": 83, "channel": 0}, {"type": "note_on", "time": 2, "note": 64, "velocity": 90, "channel": 0}, {"type": "note_off", "time": 101, "note": 64, "velocity": 90, "channel": 0}, {"type": "note_on", "time": 20, "note": 65, "velocity": 86, "channel": 0}, {"type": "note_off", "time": 193, "note": 65, "velocity": 86, "channel": 0}, {"type": "note_on", "time": 758, "note": 62, "velocity": 103, "channel": 0}, {"type": "note_off", "time": 52, "note": 62, "velocity": 103, "channel": 0}, {"type": "note_on", "time": 25, "note": 64, "velocity": 97, "channel": 0}, {"type": "note_off", "time": 168, "note": 64, "velocity": 97, "channel": 0}, {"type": "note_on", "time": 11, "note": 65, "velocity": 104, "channel": 0}, {"type": "note_on", "time": 134, "note": 62, "velocity": 85, "channel": 0}, {"type": "note_off", "time": 0, "note": 65, "velocity": 104, "channel": 0}, {"type": "note_off", "time": 69, "note": 62, "velocity": 85, "channel": 0}, {"type": "note_on", "time": 0, "note": 66, "velocity": 103, "channel": 0}, {"type": "note_off", "time": 105, "note": 66, "velocity": 103, "channel": 0}, {"type": "note_on", "time": 16, "note": 67, "velocity": 106, "channel": 0}, {"type": "note_off", "time": 96, "note": 67, "velocity": 106, "channel": 0}, {"type": "note_on", "time": 6, "note": 68, "velocity": 98, "channel": 0}, {"type": "note_off", "time": 103, "note": 68, "velocity": 98, "channel": 0}, {"type": "note_on", "time": 9, "note": 69, "velocity": 104, "channel": 0}, {"type": "note_off", "time": 57, "note": 69, "velocity": 104, "channel": 0}, {"type": "note_on", "time": 12, "note": 70, "velocity": 100, "channel": 0}, {"type": "note_off", "time": 107, "note": 70, "velocity": 100, "channel": 0}, {"type": "note_on", "time": 6, "note": 71, "velocity": 103, "channel": 0}, {"type": "note_off", "time": 61, "note": 71, "velocity": 103, "channel": 0}, {"type": "note_on", "time": 2, "note": 72, "velocity": 96, "channel": 0}, {"type": "note_off", "time": 130, "note": 72, "velocity": 96, "channel": 0}, {"type": "note_on", "time": 6, "note": 69, "velocity": 91, "channel": 0}, {"type": "note_off", "time": 79, "note": 69, "velocity": 91, "channel": 0}, {"type": "note_on", "time": 2, "note": 70, "velocity": 104, "channel": 0}, {"type": "note_off", "time": 90, "note": 70, "velocity": 104, "channel": 0}, {"type": "note_on", "time": 9, "note": 68, "velocity": 94, "channel": 0}, {"type": "note_off", "time": 44, "note": 68, "velocity": 94, "channel": 0}, {"type": "note_on", "time": 6, "note": 69, "velocity": 96, "channel": 0}, {"type": "note_off", "time": 108, "note": 69, "velocity": 96, "channel": 0}, {"type": "note_on", "time": 34, "note": 65, "velocity": 83, "channel": 0}, {"type": "note_off", "time": 224, "note": 65, "velocity": 83, "channel": 0}, {"type": "note_on", "time": 28, "note": 62, "velocity": 96, "channel": 0}, {"type": "note_off", "time": 90, "note": 62, "velocity": 96, "channel": 0}, {"type": "note_on", "time": 5, "note": 60, "velocity": 79, "channel": 0}, {"type": "note_off", "time": 93, "note": 60, "velocity": 79, "channel": 0}, {"type": "note_on", "time": 0, "note": 66, "velocity": 96, "channel": 0}, {"type": "note_off", "time": 110, "note": 66, "velocity": 96, "channel": 0}, {"type": "note_on", "time": 8, "note": 67, "velocity": 95, "channel": 0}, {"type": "note_off", "time": 79, "note": 67, "velocity": 95, "channel": 0}, {"type": "note_on", "time": 0, "note": 63, "velocity": 90, "channel": 0}, {"type": "note_off", "time": 84, "note": 63, "velocity": 90, "channel": 0}, {"type": "note_on", "time": 19, "note": 60, "velocity": 79, "channel": 0}, {"type": "note_off", "time": 62, "note": 60, "velocity": 79, "channel": 0}, {"type": "note_on", "time": 3, "note": 61, "velocity": 88, "channel": 0}, {"type": "note_off", "time": 130, "note": 61, "velocity": 88, "channel": 0}, {"type": "note_on", "time": 20, "note": 62, "velocity": 95, "channel": 0}, {"type": "note_off", "time": 102, "note": 62, "velocity": 95, "channel": 0}, {"type": "note_on", "time": 435, "note": 72, "velocity": 98, "channel": 0}, {"type": "note_off", "time": 57, "note": 72, "velocity": 98, "channel": 0}, {"type": "note_on", "time": 11, "note": 74, "velocity": 100, "channel": 0}, {"type": "note_off", "time": 186, "note": 74, "velocity": 100, "channel": 0}, {"type": "note_on", "time": 25, "note": 73, "velocity": 87, "channel": 0}, {"type": "note_off", "time": 110, "note": 73, "velocity": 87, "channel": 0}, {"type": "note_on", "time": 0, "note": 72, "velocity": 83, "channel": 0}, {"type": "note_off", "time": 81, "note": 72, "velocity": 83, "channel": 0}, {"type": "note_on", "time": 26, "note": 71, "velocity": 92, "channel": 0}, {"type": "note_off", "time": 89, "note": 71, "velocity": 92, "channel": 0}, {"type": "note_on", "time": 596, "note": 72, "velocity": 90, "channel": 0}, {"type": "note_off", "time": 97, "note": 72, "velocity": 90, "channel": 0}, {"type": "note_on", "time": 81, "note": 69, "velocity": 106, "channel": 0}, {"type": "note_off", "time": 99, "note": 69, "velocity": 106, "channel": 0}, {"type": "note_on", "time": 79, "note": 60, "velocity": 85, "channel": 0}, {"type": "note_off", "time": 63, "note": 60, "velocity": 85, "channel": 0}, {"type": "note_on", "time": 25, "note": 72, "velocity": 92, "channel": 0}, {"type": "note_off", "time": 52, "note": 72, "velocity": 92, "channel": 0}, {"type": "note_on", "time": 0, "note": 74, "velocity": 97, "channel": 0}, {"type": "note_off", "time": 145, "note": 74, "velocity": 97, "channel": 0}, {"type": "note_on", "time": 12, "note": 77, "velocity": 103, "channel": 0}, {"type": "note_off", "time": 44, "note": 77, "velocity": 103, "channel": 0}, {"type": "note_on", "time": 9, "note": 78, "velocity": 108, "channel": 0}, {"type": "note_off", "time": 22, "note": 78, "velocity": 108, "channel": 0}, {"type": "note_on", "time": 0, "note": 77, "velocity": 102, "channel": 0}, {"type": "note_off", "time": 42, "note": 77, "velocity": 102, "channel": 0}, {"type": "note_on", "time": 0, "note": 76, "velocity": 98, "channel": 0}, {"type": "note_off", "time": 51, "note": 76, "velocity": 98, "channel": 0}, {"type": "note_on", "time": 10, "note": 72, "velocity": 91, "channel": 0}, {"type": "note_off", "time": 158, "note": 72, "velocity": 91, "channel": 0}, {"type": "note_on", "time": 5, "note": 77, "velocity": 100, "channel": 0}, {"type": "note_off", "time": 59, "note": 77, "velocity": 100, "channel": 0}, {"type": "note_on", "time": 24, "note": 71, "velocity": 96, "channel": 0}, {"type": "note_off", "time": 85, "note": 71, "velocity": 96, "channel": 0}, {"type": "note_on", "time": 15, "note": 70, "velocity": 89, "channel": 0}, {"type": "note_off", "time": 182, "note": 70, "velocity": 89, "channel": 0}, {"type": "note_on", "time": 571, "note": 68, "velocity": 99, "channel": 0}, {"type": "note_off", "time": 49, "note": 68, "velocity": 99, "channel": 0}, {"type": "note_on", "time": 26, "note": 69, "velocity": 99, "channel": 0}, {"type": "note_off", "time": 63, "note": 69, "velocity": 99, "channel": 0}, {"type": "note_on", "time": 36, "note": 74, "velocity": 95, "channel": 0}, {"type": "note_off", "time": 91, "note": 74, "velocity": 95, "channel": 0}, {"type": "note_on", "time": 15, "note": 71, "velocity": 103, "channel": 0}, {"type": "note_off", "time": 26, "note": 71, "velocity": 103, "channel": 0}, {"type": "note_on", "time": 7, "note": 69, "velocity": 100, "channel": 0}, {"type": "note_off", "time": 74, "note": 69, "velocity": 100, "channel": 0}, {"type": "note_on", "time": 0, "note": 67, "velocity": 87, "channel": 0}, {"type": "note_off", "time": 56, "note": 67, "velocity": 87, "channel": 0}, {"type": "note_on", "time": 28, "note": 74, "velocity": 85, "channel": 0}, {"type": "note_off", "time": 88, "note": 74, "velocity": 85, "channel": 0}, {"type": "note_on", "time": 104, "note": 74, "velocity": 97, "channel": 0}, {"type": "note_off", "time": 96, "note": 74, "velocity": 97, "channel": 0}, {"type": "note_on", "time": 40, "note": 67, "velocity": 90, "channel": 0}, {"type": "note_off", "time": 66, "note": 67, "velocity": 90, "channel": 0}, {"type": "note_on", "time": 2, "note": 69, "velocity": 94, "channel": 0}, {"type": "note_off", "time": 116, "note": 69, "velocity": 94, "channel": 0}, {"type": "note_on", "time": 9, "note": 74, "velocity": 96, "channel": 0}, {"type": "note_off", "time": 85, "note": 74, "velocity": 96, "channel": 0}, {"type": "note_on", "time": 461, "note": 67, "velocity": 94, "channel": 0}, {"type": "note_off", "time": 88, "note": 67, "velocity": 94, "channel": 0}, {"type": "note_on", "time": 0, "note": 74, "velocity": 108, "channel": 0}, {"type": "note_on", "time": 94, "note": 75, "velocity": 113, "channel": 0}, {"type": "note_off", "time": 0, "note": 74, "velocity": 108, "channel": 0}, {"type": "note_off", "time": 41, "note": 75, "velocity": 113, "channel": 0}, {"type": "note_on", "time": 0, "note": 76, "velocity": 103, "channel": 0}, {"type": "note_off", "time": 97, "note": 76, "velocity": 103, "channel": 0}, {"type": "note_on", "time": 9, "note": 75, "velocity": 99, "channel": 0}, {"type": "note_off", "time": 74, "note": 75, "velocity": 99, "channel": 0}, {"type": "note_on", "time": 18, "note": 76, "velocity": 103, "channel": 0}, {"type": "note_off", "time": 42, "note": 76, "velocity": 103, "channel": 0}, {"type": "note_on", "time": 0, "note": 74, "velocity": 101, "channel": 0}, {"type": "note_off", "time": 114, "note": 74, "velocity": 101, "channel": 0}, {"type": "note_on", "time": 0, "note": 75, "velocity": 99, "channel": 0}, {"type": "note_off", "time": 71, "note": 75, "velocity": 99, "channel": 0}, {"type": "note_on", "time": 19, "note": 67, "velocity": 101, "channel": 0}, {"type": "note_off", "time": 127, "note": 67, "velocity": 101, "channel": 0}, {"type": "note_on", "time": 0, "note": 66, "velocity": 87, "channel": 0}, {"type": "note_off", "time": 205, "note": 66, "velocity": 87, "channel": 0}, {"type": "note_on", "time": 559, "note": 67, "velocity": 111, "channel": 0}, {"type": "note_off", "time": 79, "note": 67, "velocity": 111, "channel": 0}, {"type": "note_on", "time": 2, "note": 66, "velocity": 109, "channel": 0}, {"type": "note_off", "time": 81, "note": 66, "velocity": 109, "channel": 0}, {"type": "note_on", "time": 10, "note": 67, "velocity": 107, "channel": 0}, {"type": "note_off", "time": 88, "note": 67, "velocity": 107, "channel": 0}, {"type": "note_on", "time": 0, "note": 77, "velocity": 107, "channel": 0}, {"type": "note_off", "time": 74, "note": 77, "velocity": 107, "channel": 0}, {"type": "note_on", "time": 0, "note": 79, "velocity": 109, "channel": 0}, {"type": "note_off", "time": 92, "note": 79, "velocity": 109, "channel": 0}, {"type": "note_on", "time": 0, "note": 78, "velocity": 108, "channel": 0}, {"type": "note_off", "time": 68, "note": 78, "velocity": 108, "channel": 0}, {"type": "note_on", "time": 0, "note": 76, "velocity": 104, "channel": 0}, {"type": "note_off", "time": 162, "note": 76, "velocity": 104, "channel": 0}, {"type": "note_on", "time": 394, "note": 73, "velocity": 100, "channel": 0}, {"type": "note_off", "time": 114, "note": 73, "velocity": 100, "channel": 0}, {"type": "note_on", "time": 8, "note": 74, "velocity": 98, "channel": 0}, {"type": "note_off", "time": 147, "note": 74, "velocity": 98, "channel": 0}, {"type": "note_on", "time": 39, "note": 71, "velocity": 99, "channel": 0}, {"type": "note_off", "time": 77, "note": 71, "velocity": 99, "channel": 0}, {"type": "note_on", "time": 83, "note": 62, "velocity": 90, "channel": 0}, {"type": "note_off", "time": 85, "note": 62, "velocity": 90, "channel": 0}, {"type": "note_on", "time": 44, "note": 71, "velocity": 98, "channel": 0}, {"type": "note_off", "time": 88, "note": 71, "velocity": 98, "channel": 0}, {"type": "note_on", "time": 2, "note": 72, "velocity": 71, "channel": 0}, {"type": "note_off", "time": 66, "note": 72, "velocity": 71, "channel": 0}, {"type": "note_on", "time": 6, "note": 69, "velocity": 103, "channel": 0}, {"type": "note_off", "time": 88, "note": 69, "velocity": 103, "channel": 0}, {"type": "note_on", "time": 39, "note": 67, "velocity": 95, "channel": 0}, {"type": "note_off", "time": 74, "note": 67, "velocity": 95, "channel": 0}, {"type": "note_on", "time": 15, "note": 68, "velocity": 98, "channel": 0}, {"type": "note_off", "time": 63, "note": 68, "velocity": 98, "channel": 0}, {"type": "note_on", "time": 39, "note": 79, "velocity": 106, "channel": 0}, {"type": "note_off", "time": 79, "note": 79, "velocity": 106, "channel": 0}, {"type": "note_on", "time": 6, "note": 80, "velocity": 95, "channel": 0}, {"type": "note_off", "time": 182, "note": 80, "velocity": 95, "channel": 0}, {"type": "note_on", "time": 697, "note": 71, "velocity": 111, "channel": 0}, {"type": "note_off", "time": 48, "note": 71, "velocity": 111, "channel": 0}, {"type": "note_on", "time": 4, "note": 72, "velocity": 113, "channel": 0}, {"type": "note_off", "time": 184, "note": 72, "velocity": 113, "channel": 0}, {"type": "note_on", "time": 30, "note": 69, "velocity": 109, "channel": 0}, {"type": "note_off", "time": 88, "note": 69, "velocity": 109, "channel": 0}, {"type": "note_on", "time": 118, "note": 70, "velocity": 111, "channel": 0}, {"type": "note_off", "time": 94, "note": 70, "velocity": 111, "channel": 0}, {"type": "note_on", "time": 40, "note": 72, "velocity": 104, "channel": 0}, {"type": "note_off", "time": 92, "note": 72, "velocity": 104, "channel": 0}, {"type": "note_on", "time": 269, "note": 60, "velocity": 92, "channel": 0}, {"type": "note_off", "time": 61, "note": 60, "velocity": 92, "channel": 0}, {"type": "note_on", "time": 0, "note": 62, "velocity": 101, "channel": 0}, {"type": "note_off", "time": 99, "note": 62, "velocity": 101, "channel": 0}, {"type": "note_on", "time": 19, "note": 64, "velocity": 93, "channel": 0}, {"type": "note_off", "time": 134, "note": 64, "velocity": 93, "channel": 0}, {"type": "note_on", "time": 45, "note": 65, "velocity": 105, "channel": 0}, {"type": "note_off", "time": 61, "note": 65, "velocity": 105, "channel": 0}, {"type": "note_on", "time": 7, "note": 67, "velocity": 109, "channel": 0}, {"type": "note_off", "time": 147, "note": 67, "velocity": 109, "channel": 0}, {"type": "note_on", "time": 17, "note": 62, "velocity": 93, "channel": 0}, {"type": "note_off", "time": 50, "note": 62, "velocity": 93, "channel": 0}, {"type": "note_on", "time": 1, "note": 68, "velocity": 104, "channel": 0}, {"type": "note_off", "time": 114, "note": 68, "velocity": 104, "channel": 0}, {"type": "note_on", "time": 0, "note": 69, "velocity": 96, "channel": 0}, {"type": "note_off", "time": 259, "note": 69, "velocity": 96, "channel": 0}, {"type": "note_on", "time": 1568, "note": 62, "velocity": 96, "channel": 0}, {"type": "note_off", "time": 68, "note": 62, "velocity": 96, "channel": 0}, {"type": "note_on", "time": 4, "note": 61, "velocity": 94, "channel": 0}, {"type": "note_off", "time": 26, "note": 61, "velocity": 94, "channel": 0}, {"type": "note_on", "time": 4, "note": 62, "velocity": 99, "channel": 0}, {"type": "note_off", "time": 96, "note": 62, "velocity": 99, "channel": 0}, {"type": "note_on", "time": 10, "note": 64, "velocity": 99, "channel": 0}, {"type": "note_off", "time": 88, "note": 64, "velocity": 99, "channel": 0}, {"type": "note_on", "time": 11, "note": 71, "velocity": 102, "channel": 0}, {"type": "note_off", "time": 81, "note": 71, "velocity": 102, "channel": 0}, {"type": "note_on", "time": 3, "note": 73, "velocity": 98, "channel": 0}, {"type": "note_off", "time": 100, "note": 73, "velocity": 98, "channel": 0}, {"type": "note_on", "time": 0, "note": 68, "velocity": 108, "channel": 0}, {"type": "note_off", "time": 79, "note": 68, "velocity": 108, "channel": 0}, {"type": "note_on", "time": 2, "note": 69, "velocity": 110, "channel": 0}, {"type": "note_off", "time": 83, "note": 69, "velocity": 110, "channel": 0}, {"type": "note_on", "time": 6, "note": 70, "velocity": 109, "channel": 0}, {"type": "note_off", "time": 96, "note": 70, "velocity": 109, "channel": 0}, {"type": "note_on", "time": 2, "note": 71, "velocity": 111, "channel": 0}, {"type": "note_off", "time": 81, "note": 71, "velocity": 111, "channel": 0}, {"type": "note_on", "time": 2, "note": 71, "velocity": 106, "channel": 0}, {"type": "note_off", "time": 74, "note": 71, "velocity": 106, "channel": 0}, {"type": "note_on", "time": 15, "note": 69, "velocity": 110, "channel": 0}, {"type": "note_off", "time": 94, "note": 69, "velocity": 110, "channel": 0}, {"type": "note_on", "time": 15, "note": 67, "velocity": 93, "channel": 0}, {"type": "note_off", "time": 94, "note": 67, "velocity": 93, "channel": 0}, {"type": "note_on", "time": 0, "note": 68, "velocity": 102, "channel": 0}, {"type": "note_off", "time": 79, "note": 68, "velocity": 102, "channel": 0}, {"type": "note_on", "time": 17, "note": 60, "velocity": 94, "channel": 0}, {"type": "note_off", "time": 46, "note": 60, "velocity": 94, "channel": 0}, {"type": "note_on", "time": 0, "note": 61, "velocity": 92, "channel": 0}, {"type": "note_off", "time": 48, "note": 61, "velocity": 92, "channel": 0}, {"type": "note_on", "time": 11, "note": 60, "velocity": 86, "channel": 0}, {"type": "note_off", "time": 112, "note": 60, "velocity": 86, "channel": 0}, {"type": "note_on", "time": 6, "note": 59, "velocity": 86, "channel": 0}, {"type": "note_off", "time": 55, "note": 59, "velocity": 86, "channel": 0}, {"type": "note_on", "time": 8, "note": 58, "velocity": 81, "channel": 0}, {"type": "note_off", "time": 228, "note": 58, "velocity": 81, "channel": 0}, {"type": "note_on", "time": 1025, "note": 57, "velocity": 100, "channel": 0}, {"type": "note_off", "time": 68, "note": 57, "velocity": 100, "channel": 0}, {"type": "note_on", "time": 11, "note": 58, "velocity": 104, "channel": 0}, {"type": "note_off", "time": 50, "note": 58, "velocity": 104, "channel": 0}, {"type": "note_on", "time": 19, "note": 60, "velocity": 102, "channel": 0}, {"type": "note_off", "time": 79, "note": 60, "velocity": 102, "channel": 0}, {"type": "note_on", "time": 0, "note": 62, "velocity": 104, "channel": 0}, {"type": "note_off", "time": 101, "note": 62, "velocity": 104, "channel": 0}, {"type": "note_on", "time": 17, "note": 62, "velocity": 107, "channel": 0}, {"type": "note_off", "time": 83, "note": 62, "velocity": 107, "channel": 0}, {"type": "note_on", "time": 6, "note": 64, "velocity": 98, "channel": 0}, {"type": "note_off", "time": 110, "note": 64, "velocity": 98, "channel": 0}, {"type": "note_on", "time": 11, "note": 67, "velocity": 113, "channel": 0}, {"type": "note_off", "time": 89, "note": 67, "velocity": 113, "channel": 0}, {"type": "note_on", "time": 0, "note": 65, "velocity": 101, "channel": 0}, {"type": "note_off", "time": 96, "note": 65, "velocity": 101, "channel": 0}, {"type": "note_on", "time": 13, "note": 62, "velocity": 101, "channel": 0}, {"type": "note_off", "time": 74, "note": 62, "velocity": 101, "channel": 0}, {"type": "note_on", "time": 5, "note": 58, "velocity": 97, "channel": 0}, {"type": "note_off", "time": 92, "note": 58, "velocity": 97, "channel": 0}, {"type": "note_on", "time": 8, "note": 55, "velocity": 93, "channel": 0}, {"type": "note_off", "time": 59, "note": 55, "velocity": 93, "channel": 0}, {"type": "note_on", "time": 6, "note": 57, "velocity": 96, "channel": 0}, {"type": "note_off", "time": 103, "note": 57, "velocity": 96, "channel": 0}, {"type": "note_on", "time": 44, "note": 53, "velocity": 88, "channel": 0}, {"type": "note_off", "time": 63, "note": 53, "velocity": 88, "channel": 0}, {"type": "note_on", "time": 210, "note": 62, "velocity": 95, "channel": 0}, {"type": "note_off", "time": 149, "note": 62, "velocity": 95, "channel": 0}, {"type": "note_on", "time": 144, "note": 63, "velocity": 100, "channel": 0}, {"type": "note_off", "time": 105, "note": 63, "velocity": 100, "channel": 0}, {"type": "note_on", "time": 4, "note": 62, "velocity": 96, "channel": 0}, {"type": "note_off", "time": 61, "note": 62, "velocity": 96, "channel": 0}, {"type": "note_on", "time": 24, "note": 58, "velocity": 91, "channel": 0}, {"type": "note_on", "time": 48, "note": 61, "velocity": 97, "channel": 0}, {"type": "note_off", "time": 0, "note": 58, "velocity": 91, "channel": 0}, {"type": "note_off", "time": 92, "note": 61, "velocity": 97, "channel": 0}, {"type": "note_on", "time": 215, "note": 71, "velocity": 103, "channel": 0}, {"type": "note_off", "time": 88, "note": 71, "velocity": 103, "channel": 0}, {"type": "note_on", "time": 52, "note": 63, "velocity": 85, "channel": 0}, {"type": "note_off", "time": 41, "note": 63, "velocity": 85, "channel": 0}, {"type": "note_on", "time": 19, "note": 60, "velocity": 84, "channel": 0}, {"type": "note_off", "time": 68, "note": 60, "velocity": 84, "channel": 0}, {"type": "note_on", "time": 2, "note": 70, "velocity": 102, "channel": 0}, {"type": "note_off", "time": 123, "note": 70, "velocity": 102, "channel": 0}, {"type": "note_on", "time": 61, "note": 69, "velocity": 104, "channel": 0}, {"type": "note_off", "time": 127, "note": 69, "velocity": 104, "channel": 0}, {"type": "note_on", "time": 2, "note": 67, "velocity": 92, "channel": 0}, {"type": "note_off", "time": 79, "note": 67, "velocity": 92, "channel": 0}, {"type": "note_on", "time": 5, "note": 68, "velocity": 98, "channel": 0}, {"type": "note_off", "time": 140, "note": 68, "velocity": 98, "channel": 0}, {"type": "note_on", "time": 146, "note": 67, "velocity": 103, "channel": 0}, {"type": "note_off", "time": 154, "note": 67, "velocity": 103, "channel": 0}, {"type": "note_on", "time": 30, "note": 60, "velocity": 93, "channel": 0}, {"type": "note_off", "time": 59, "note": 60, "velocity": 93, "channel": 0}, {"type": "note_on", "time": 11, "note": 66, "velocity": 106, "channel": 0}, {"type": "note_off", "time": 123, "note": 66, "velocity": 106, "channel": 0}, {"type": "note_on", "time": 0, "note": 62, "velocity": 84, "channel": 0}, {"type": "note_off", "time": 61, "note": 62, "velocity": 84, "channel": 0}, {"type": "note_on", "time": 11, "note": 66, "velocity": 104, "channel": 0}, {"type": "note_off", "time": 103, "note": 66, "velocity": 104, "channel": 0}, {"type": "note_on", "time": 16, "note": 65, "velocity": 95, "channel": 0}, {"type": "note_off", "time": 110, "note": 65, "velocity": 95, "channel": 0}, {"type": "note_on", "time": 27, "note": 61, "velocity": 77, "channel": 0}, {"type": "note_off", "time": 46, "note": 61, "velocity": 77, "channel": 0}, {"type": "note_on", "time": 0, "note": 60, "velocity": 88, "channel": 0}, {"type": "note_off", "time": 88, "note": 60, "velocity": 88, "channel": 0}, {"type": "note_on", "time": 116, "note": 70, "velocity": 98, "channel": 0}, {"type": "note_off", "time": 96, "note": 70, "velocity": 98, "channel": 0}, {"type": "note_on", "time": 19, "note": 62, "velocity": 91, "channel": 0}, {"type": "note_off", "time": 68, "note": 62, "velocity": 91, "channel": 0}, {"type": "note_on", "time": 2, "note": 60, "velocity": 91, "channel": 0}, {"type": "note_off", "time": 74, "note": 60, "velocity": 91, "channel": 0}, {"type": "note_on", "time": 200, "note": 70, "velocity": 110, "channel": 0}, {"type": "note_off", "time": 74, "note": 70, "velocity": 110, "channel": 0}, {"type": "note_on", "time": 4, "note": 68, "velocity": 89, "channel": 0}, {"type": "note_off", "time": 92, "note": 68, "velocity": 89, "channel": 0}, {"type": "note_on", "time": 6, "note": 69, "velocity": 104, "channel": 0}, {"type": "note_off", "time": 83, "note": 69, "velocity": 104, "channel": 0}, {"type": "note_on", "time": 44, "note": 58, "velocity": 93, "channel": 0}, {"type": "note_off", "time": 92, "note": 58, "velocity": 93, "channel": 0}, {"type": "note_on", "time": 265, "note": 67, "velocity": 110, "channel": 0}, {"type": "note_off", "time": 63, "note": 67, "velocity": 110, "channel": 0}, {"type": "note_on", "time": 0, "note": 65, "velocity": 104, "channel": 0}, {"type": "note_off", "time": 35, "note": 65, "velocity": 104, "channel": 0}, {"type": "note_on", "time": 0, "note": 64, "velocity": 93, "channel": 0}, {"type": "note_off", "time": 88, "note": 64, "velocity": 93, "channel": 0}, {"type": "note_on", "time": 11, "note": 65, "velocity": 94, "channel": 0}, {"type": "note_off", "time": 72, "note": 65, "velocity": 94, "channel": 0}, {"type": "note_on", "time": 481, "note": 65, "velocity": 109, "channel": 0}, {"type": "note_off", "time": 81, "note": 65, "velocity": 109, "channel": 0}, {"type": "note_on", "time": 8, "note": 66, "velocity": 106, "channel": 0}, {"type": "note_off", "time": 55, "note": 66, "velocity": 106, "channel": 0}, {"type": "note_on", "time": 28, "note": 68, "velocity": 108, "channel": 0}, {"type": "note_off", "time": 92, "note": 68, "velocity": 108, "channel": 0}, {"type": "note_on", "time": 8, "note": 69, "velocity": 103, "channel": 0}, {"type": "note_off", "time": 79, "note": 69, "velocity": 103, "channel": 0}, {"type": "note_on", "time": 22, "note": 70, "velocity": 104, "channel": 0}, {"type": "note_off", "time": 66, "note": 70, "velocity": 104, "channel": 0}, {"type": "note_on", "time": 13, "note": 71, "velocity": 104, "channel": 0}, {"type": "note_off", "time": 112, "note": 71, "velocity": 104, "channel": 0}, {"type": "note_on", "time": 8, "note": 71, "velocity": 95, "channel": 0}, {"type": "note_off", "time": 55, "note": 71, "velocity": 95, "channel": 0}, {"type": "note_on", "time": 6, "note": 69, "velocity": 96, "channel": 0}, {"type": "note_off", "time": 132, "note": 69, "velocity": 96, "channel": 0}, {"type": "note_on", "time": 8, "note": 70, "velocity": 99, "channel": 0}, {"type": "note_off", "time": 96, "note": 70, "velocity": 99, "channel": 0}, {"type": "note_on", "time": 88, "note": 67, "velocity": 106, "channel": 0}, {"type": "note_off", "time": 90, "note": 67, "velocity": 106, "channel": 0}, {"type": "note_on", "time": 123, "note": 68, "velocity": 103, "channel": 0}, {"type": "note_off", "time": 74, "note": 68, "velocity": 103, "channel": 0}, {"type": "note_on", "time": 99, "note": 60, "velocity": 91, "channel": 0}, {"type": "note_off", "time": 83, "note": 60, "velocity": 91, "channel": 0}, {"type": "note_on", "time": 19, "note": 67, "velocity": 106, "channel": 0}, {"type": "note_off", "time": 88, "note": 67, "velocity": 106, "channel": 0}, {"type": "note_on", "time": 84, "note": 65, "velocity": 100, "channel": 0}, {"type": "note_off", "time": 88, "note": 65, "velocity": 100, "channel": 0}, {"type": "note_on", "time": 17, "note": 62, "velocity": 84, "channel": 0}, {"type": "note_off", "time": 79, "note": 62, "velocity": 84, "channel": 0}, {"type": "note_on", "time": 0, "note": 63, "velocity": 96, "channel": 0}, {"type": "note_off", "time": 96, "note": 63, "velocity": 96, "channel": 0}, {"type": "note_on", "time": 35, "note": 67, "velocity": 101, "channel": 0}, {"type": "note_off", "time": 66, "note": 67, "velocity": 101, "channel": 0}, {"type": "note_on", "time": 11, "note": 70, "velocity": 100, "channel": 0}, {"type": "note_off", "time": 92, "note": 70, "velocity": 100, "channel": 0}, {"type": "note_on", "time": 11, "note": 74, "velocity": 102, "channel": 0}, {"type": "note_off", "time": 68, "note": 74, "velocity": 102, "channel": 0}, {"type": "note_on", "time": 6, "note": 72, "velocity": 101, "channel": 0}, {"type": "note_off", "time": 79, "note": 72, "velocity": 101, "channel": 0}, {"type": "note_on", "time": 0, "note": 73, "velocity": 97, "channel": 0}, {"type": "note_off", "time": 55, "note": 73, "velocity": 97, "channel": 0}, {"type": "note_on", "time": 0, "note": 71, "velocity": 100, "channel": 0}, {"type": "note_off", "time": 46, "note": 71, "velocity": 100, "channel": 0}, {"type": "note_on", "time": 13, "note": 70, "velocity": 98, "channel": 0}, {"type": "note_off", "time": 94, "note": 70, "velocity": 98, "channel": 0}, {"type": "note_on", "time": 11, "note": 68, "velocity": 81, "channel": 0}, {"type": "note_off", "time": 70, "note": 68, "velocity": 81, "channel": 0}, {"type": "note_on", "time": 21, "note": 69, "velocity": 91, "channel": 0}, {"type": "note_off", "time": 105, "note": 69, "velocity": 91, "channel": 0}, {"type": "note_on", "time": 596, "note": 74, "velocity": 104, "channel": 0}, {"type": "note_off", "time": 52, "note": 74, "velocity": 104, "channel": 0}, {"type": "note_on", "time": 6, "note": 76, "velocity": 103, "channel": 0}, {"type": "note_off", "time": 107, "note": 76, "velocity": 103, "channel": 0}, {"type": "note_on", "time": 8, "note": 77, "velocity": 108, "channel": 0}, {"type": "note_off", "time": 79, "note": 77, "velocity": 108, "channel": 0}, {"type": "note_on", "time": 13, "note": 77, "velocity": 100, "channel": 0}, {"type": "note_off", "time": 334, "note": 77, "velocity": 100, "channel": 0}, {"type": "note_on", "time": 0, "note": 74, "velocity": 98, "channel": 0}, {"type": "note_off", "time": 88, "note": 74, "velocity": 98, "channel": 0}, {"type": "note_on", "time": 61, "note": 72, "velocity": 95, "channel": 0}, {"type": "note_off", "time": 92, "note": 72, "velocity": 95, "channel": 0}, {"type": "note_on", "time": 94, "note": 67, "velocity": 105, "channel": 0}, {"type": "note_off", "time": 77, "note": 67, "velocity": 105, "channel": 0}, {"type": "note_on", "time": 57, "note": 62, "velocity": 79, "channel": 0}, {"type": "note_on", "time": 50, "note": 60, "velocity": 86, "channel": 0}, {"type": "note_off", "time": 0, "note": 62, "velocity": 79, "channel": 0}, {"type": "note_off", "time": 74, "note": 60, "velocity": 86, "channel": 0}, {"type": "note_on", "time": 6, "note": 68, "velocity": 102, "channel": 0}, {"type": "note_off", "time": 101, "note": 68, "velocity": 102, "channel": 0}, {"type": "note_on", "time": 4, "note": 69, "velocity": 93, "channel": 0}, {"type": "note_off", "time": 61, "note": 69, "velocity": 93, "channel": 0}, {"type": "note_on", "time": 0, "note": 65, "velocity": 97, "channel": 0}, {"type": "note_off", "time": 96, "note": 65, "velocity": 97, "channel": 0}, {"type": "note_on", "time": 17, "note": 60, "velocity": 88, "channel": 0}, {"type": "note_off", "time": 81, "note": 60, "velocity": 88, "channel": 0}, {"type": "note_on", "time": 8, "note": 59, "velocity": 93, "channel": 0}, {"type": "note_off", "time": 123, "note": 59, "velocity": 93, "channel": 0}, {"type": "note_on", "time": 0, "note": 67, "velocity": 94, "channel": 0}, {"type": "note_off", "time": 101, "note": 67, "velocity": 94, "channel": 0}, {"type": "note_on", "time": 96, "note": 64, "velocity": 88, "channel": 0}, {"type": "note_off", "time": 66, "note": 64, "velocity": 88, "channel": 0}, {"type": "note_on", "time": 121, "note": 65, "velocity": 84, "channel": 0}, {"type": "note_off", "time": 167, "note": 65, "velocity": 84, "channel": 0}, {"type": "note_on", "time": 948, "note": 61, "velocity": 101, "channel": 0}, {"type": "note_off", "time": 83, "note": 61, "velocity": 101, "channel": 0}, {"type": "note_on", "time": 15, "note": 58, "velocity": 103, "channel": 0}, {"type": "note_off", "time": 101, "note": 58, "velocity": 103, "channel": 0}, {"type": "note_on", "time": 22, "note": 60, "velocity": 101, "channel": 0}, {"type": "note_off", "time": 121, "note": 60, "velocity": 101, "channel": 0}, {"type": "note_on", "time": 52, "note": 61, "velocity": 103, "channel": 0}, {"type": "note_off", "time": 81, "note": 61, "velocity": 103, "channel": 0}, {"type": "note_on", "time": 19, "note": 63, "velocity": 98, "channel": 0}, {"type": "note_off", "time": 105, "note": 63, "velocity": 98, "channel": 0}, {"type": "note_on", "time": 4, "note": 66, "velocity": 108, "channel": 0}, {"type": "note_off", "time": 114, "note": 66, "velocity": 108, "channel": 0}, {"type": "note_on", "time": 63, "note": 68, "velocity": 110, "channel": 0}, {"type": "note_off", "time": 83, "note": 68, "velocity": 110, "channel": 0}, {"type": "note_on", "time": 8, "note": 66, "velocity": 105, "channel": 0}, {"type": "note_off", "time": 81, "note": 66, "velocity": 105, "channel": 0}, {"type": "note_on", "time": 4, "note": 61, "velocity": 92, "channel": 0}, {"type": "note_off", "time": 79, "note": 61, "velocity": 92, "channel": 0}, {"type": "note_on", "time": 30, "note": 70, "velocity": 106, "channel": 0}, {"type": "note_off", "time": 88, "note": 70, "velocity": 106, "channel": 0}, {"type": "note_on", "time": 85, "note": 72, "velocity": 107, "channel": 0}, {"type": "note_off", "time": 96, "note": 72, "velocity": 107, "channel": 0}, {"type": "note_on", "time": 19, "note": 66, "velocity": 82, "channel": 0}, {"type": "note_off", "time": 68, "note": 66, "velocity": 82, "channel": 0}, {"type": "note_on", "time": 10, "note": 68, "velocity": 102, "channel": 0}, {"type": "note_off", "time": 123, "note": 68, "velocity": 102, "channel": 0}, {"type": "note_on", "time": 13, "note": 66, "velocity": 101, "channel": 0}, {"type": "note_off", "time": 61, "note": 66, "velocity": 101, "channel": 0}, {"type": "note_on", "time": 4, "note": 63, "velocity": 96, "channel": 0}, {"type": "note_off", "time": 72, "note": 63, "velocity": 96, "channel": 0}, {"type": "note_on", "time": 13, "note": 58, "velocity": 93, "channel": 0}, {"type": "note_off", "time": 81, "note": 58, "velocity": 93, "channel": 0}, {"type": "note_on", "time": 17, "note": 61, "velocity": 94, "channel": 0}, {"type": "note_off", "time": 81, "note": 61, "velocity": 94, "channel": 0}, {"type": "note_on", "time": 0, "note": 61, "velocity": 80, "channel": 0}, {"type": "note_off", "time": 2, "note": 61, "velocity": 80, "channel": 0}, {"type": "note_on", "time": 4, "note": 66, "velocity": 95, "channel": 0}, {"type": "note_off", "time": 79, "note": 66, "velocity": 95, "channel": 0}, {"type": "note_on", "time": 24, "note": 61, "velocity": 88, "channel": 0}, {"type": "note_off", "time": 77, "note": 61, "velocity": 88, "channel": 0}, {"type": "note_on", "time": 8, "note": 59, "velocity": 93, "channel": 0}, {"type": "note_off", "time": 83, "note": 59, "velocity": 93, "channel": 0}, {"type": "note_on", "time": 484, "note": 73, "velocity": 102, "channel": 0}, {"type": "note_off", "time": 59, "note": 73, "velocity": 102, "channel": 0}, {"type": "note_on", "time": 4, "note": 71, "velocity": 103, "channel": 0}, {"type": "note_off", "time": 138, "note": 71, "velocity": 103, "channel": 0}, {"type": "note_on", "time": 4, "note": 73, "velocity": 99, "channel": 0}, {"type": "note_off", "time": 61, "note": 73, "velocity": 99, "channel": 0}, {"type": "note_on", "time": 101, "note": 68, "velocity": 104, "channel": 0}, {"type": "note_off", "time": 94, "note": 68, "velocity": 104, "channel": 0}, {"type": "note_on", "time": 33, "note": 63, "velocity": 86, "channel": 0}, {"type": "note_off", "time": 52, "note": 63, "velocity": 86, "channel": 0}, {"type": "note_on", "time": 0, "note": 63, "velocity": 80, "channel": 0}, {"type": "note_off", "time": 0, "note": 63, "velocity": 80, "channel": 0}, {"type": "note_on", "time": 8, "note": 60, "velocity": 86, "channel": 0}, {"type": "note_off", "time": 68, "note": 60, "velocity": 86, "channel": 0}, {"type": "note_on", "time": 33, "note": 68, "velocity": 105, "channel": 0}, {"type": "note_off", "time": 110, "note": 68, "velocity": 105, "channel": 0}, {"type": "note_on", "time": 94, "note": 66, "velocity": 103, "channel": 0}, {"type": "note_off", "time": 118, "note": 66, "velocity": 103, "channel": 0}, {"type": "note_on", "time": 545, "note": 68, "velocity": 108, "channel": 0}, {"type": "note_off", "time": 77, "note": 68, "velocity": 108, "channel": 0}, {"type": "note_on", "time": 8, "note": 66, "velocity": 103, "channel": 0}, {"type": "note_off", "time": 112, "note": 66, "velocity": 103, "channel": 0}, {"type": "note_on", "time": 2, "note": 64, "velocity": 90, "channel": 0}, {"type": "note_off", "time": 37, "note": 64, "velocity": 90, "channel": 0}, {"type": "note_on", "time": 46, "note": 73, "velocity": 97, "channel": 0}, {"type": "note_off", "time": 61, "note": 73, "velocity": 97, "channel": 0}, {"type": "note_on", "time": 6, "note": 74, "velocity": 101, "channel": 0}, {"type": "note_off", "time": 101, "note": 74, "velocity": 101, "channel": 0}, {"type": "note_on", "time": 2, "note": 70, "velocity": 107, "channel": 0}, {"type": "note_off", "time": 110, "note": 70, "velocity": 107, "channel": 0}, {"type": "note_on", "time": 11, "note": 66, "velocity": 91, "channel": 0}, {"type": "note_off", "time": 68, "note": 66, "velocity": 91, "channel": 0}, {"type": "note_on", "time": 4, "note": 69, "velocity": 110, "channel": 0}, {"type": "note_off", "time": 125, "note": 69, "velocity": 110, "channel": 0}, {"type": "note_on", "time": 28, "note": 65, "velocity": 99, "channel": 0}, {"type": "note_off", "time": 85, "note": 65, "velocity": 99, "channel": 0}, {"type": "note_on", "time": 484, "note": 63, "velocity": 101, "channel": 0}, {"type": "note_off", "time": 24, "note": 63, "velocity": 101, "channel": 0}, {"type": "note_on", "time": 13, "note": 65, "velocity": 98, "channel": 0}, {"type": "note_off", "time": 156, "note": 65, "velocity": 98, "channel": 0}, {"type": "note_on", "time": 8, "note": 70, "velocity": 79, "channel": 0}, {"type": "note_off", "time": 37, "note": 70, "velocity": 79, "channel": 0}, {"type": "note_on", "time": 6, "note": 72, "velocity": 89, "channel": 0}, {"type": "note_on", "time": 37, "note": 75, "velocity": 108, "channel": 0}, {"type": "note_off", "time": 0, "note": 72, "velocity": 89, "channel": 0}, {"type": "note_off", "time": 79, "note": 75, "velocity": 108, "channel": 0}, {"type": "note_on", "time": 2, "note": 72, "velocity": 88, "channel": 0}, {"type": "note_off", "time": 74, "note": 72, "velocity": 88, "channel": 0}, {"type": "note_on", "time": 19, "note": 74, "velocity": 99, "channel": 0}, {"type": "note_off", "time": 88, "note": 74, "velocity": 99, "channel": 0}, {"type": "note_on", "time": 17, "note": 69, "velocity": 109, "channel": 0}, {"type": "note_off", "time": 85, "note": 69, "velocity": 109, "channel": 0}, {"type": "note_on", "time": 11, "note": 65, "velocity": 96, "channel": 0}, {"type": "note_off", "time": 99, "note": 65, "velocity": 96, "channel": 0}, {"type": "note_on", "time": 6, "note": 62, "velocity": 93, "channel": 0}, {"type": "note_off", "time": 52, "note": 62, "velocity": 93, "channel": 0}, {"type": "note_on", "time": 11, "note": 67, "velocity": 113, "channel": 0}, {"type": "note_off", "time": 110, "note": 67, "velocity": 113, "channel": 0}, {"type": "note_on", "time": 15, "note": 70, "velocity": 104, "channel": 0}, {"type": "note_off", "time": 83, "note": 70, "velocity": 104, "channel": 0}, {"type": "note_on", "time": 112, "note": 63, "velocity": 94, "channel": 0}, {"type": "note_off", "time": 79, "note": 63, "velocity": 94, "channel": 0}, {"type": "note_on", "time": 94, "note": 68, "velocity": 103, "channel": 0}, {"type": "note_off", "time": 114, "note": 68, "velocity": 103, "channel": 0}, {"type": "note_on", "time": 8, "note": 63, "velocity": 85, "channel": 0}, {"type": "note_off", "time": 46, "note": 63, "velocity": 85, "channel": 0}, {"type": "note_on", "time": 0, "note": 60, "velocity": 83, "channel": 0}, {"type": "note_off", "time": 94, "note": 60, "velocity": 83, "channel": 0}, {"type": "note_on", "time": 4, "note": 67, "velocity": 105, "channel": 0}, {"type": "note_off", "time": 96, "note": 67, "velocity": 105, "channel": 0}, {"type": "note_on", "time": 52, "note": 61, "velocity": 85, "channel": 0}, {"type": "note_off", "time": 41, "note": 61, "velocity": 85, "channel": 0}, {"type": "note_on", "time": 11, "note": 68, "velocity": 99, "channel": 0}, {"type": "note_off", "time": 70, "note": 68, "velocity": 99, "channel": 0}, {"type": "note_on", "time": 4, "note": 69, "velocity": 90, "channel": 0}, {"type": "note_off", "time": 77, "note": 69, "velocity": 90, "channel": 0}, {"type": "note_on", "time": 8, "note": 67, "velocity": 96, "channel": 0}, {"type": "note_off", "time": 30, "note": 67, "velocity": 96, "channel": 0}, {"type": "note_on", "time": 8, "note": 65, "velocity": 93, "channel": 0}, {"type": "note_off", "time": 90, "note": 65, "velocity": 93, "channel": 0}, {"type": "note_on", "time": 15, "note": 63, "velocity": 95, "channel": 0}, {"type": "note_off", "time": 61, "note": 63, "velocity": 95, "channel": 0}, {"type": "note_on", "time": 4, "note": 60, "velocity": 90, "channel": 0}, {"type": "note_off", "time": 85, "note": 60, "velocity": 90, "channel": 0}, {"type": "note_on", "time": 6, "note": 61, "velocity": 95, "channel": 0}, {"type": "note_off", "time": 96, "note": 61, "velocity": 95, "channel": 0}, {"type": "note_on", "time": 13, "note": 62, "velocity": 101, "channel": 0}, {"type": "note_off", "time": 88, "note": 62, "velocity": 101, "channel": 0}, {"type": "note_on", "time": 30, "note": 67, "velocity": 106, "channel": 0}, {"type": "note_off", "time": 79, "note": 67, "velocity": 106, "channel": 0}, {"type": "note_on", "time": 2, "note": 70, "velocity": 108, "channel": 0}, {"type": "note_off", "time": 70, "note": 70, "velocity": 108, "channel": 0}, {"type": "note_on", "time": 26, "note": 68, "velocity": 93, "channel": 0}, {"type": "note_off", "time": 83, "note": 68, "velocity": 93, "channel": 0}, {"type": "note_on", "time": 8, "note": 69, "velocity": 88, "channel": 0}, {"type": "note_off", "time": 173, "note": 69, "velocity": 88, "channel": 0}, {"type": "note_on", "time": 310, "note": 69, "velocity": 114, "channel": 0}, {"type": "note_off", "time": 35, "note": 69, "velocity": 114, "channel": 0}, {"type": "note_on", "time": 8, "note": 71, "velocity": 108, "channel": 0}, {"type": "note_off", "time": 79, "note": 71, "velocity": 108, "channel": 0}, {"type": "note_on", "time": 19, "note": 72, "velocity": 102, "channel": 0}, {"type": "note_off", "time": 77, "note": 72, "velocity": 102, "channel": 0}, {"type": "note_on", "time": 8, "note": 73, "velocity": 109, "channel": 0}, {"type": "note_off", "time": 72, "note": 73, "velocity": 109, "channel": 0}, {"type": "note_on", "time": 11, "note": 74, "velocity": 96, "channel": 0}, {"type": "note_off", "time": 85, "note": 74, "velocity": 96, "channel": 0}, {"type": "note_on", "time": 30, "note": 67, "velocity": 109, "channel": 0}, {"type": "note_off", "time": 74, "note": 67, "velocity": 109, "channel": 0}, {"type": "note_on", "time": 0, "note": 66, "velocity": 102, "channel": 0}, {"type": "note_off", "time": 74, "note": 66, "velocity": 102, "channel": 0}, {"type": "note_on", "time": 28, "note": 63, "velocity": 86, "channel": 0}, {"type": "note_off", "time": 74, "note": 63, "velocity": 86, "channel": 0}, {"type": "note_on", "time": 6, "note": 65, "velocity": 100, "channel": 0}, {"type": "note_off", "time": 88, "note": 65, "velocity": 100, "channel": 0}, {"type": "note_on", "time": 15, "note": 73, "velocity": 94, "channel": 0}, {"type": "note_off", "time": 33, "note": 73, "velocity": 94, "channel": 0}, {"type": "note_on", "time": 0, "note": 77, "velocity": 111, "channel": 0}, {"type": "note_off", "time": 88, "note": 77, "velocity": 111, "channel": 0}, {"type": "note_on", "time": 1199, "note": 76, "velocity": 103, "channel": 0}, {"type": "note_off", "time": 37, "note": 76, "velocity": 103, "channel": 0}, {"type": "note_on", "time": 11, "note": 79, "velocity": 108, "channel": 0}, {"type": "note_off", "time": 966, "note": 79, "velocity": 108, "channel": 0}, {"type": "note_on", "time": 33, "note": 77, "velocity": 107, "channel": 0}, {"type": "note_off", "time": 158, "note": 77, "velocity": 107, "channel": 0}, {"type": "note_on", "time": 15, "note": 76, "velocity": 99, "channel": 0}, {"type": "note_off", "time": 200, "note": 76, "velocity": 99, "channel": 0}, {"type": "note_on", "time": 8, "note": 74, "velocity": 100, "channel": 0}, {"type": "note_off", "time": 154, "note": 74, "velocity": 100, "channel": 0}, {"type": "note_on", "time": 4, "note": 76, "velocity": 100, "channel": 0}, {"type": "note_off", "time": 39, "note": 76, "velocity": 100, "channel": 0}, {"type": "note_on", "time": 13, "note": 77, "velocity": 108, "channel": 0}, {"type": "note_off", "time": 336, "note": 77, "velocity": 108, "channel": 0}, {"type": "note_on", "time": 596, "note": 72, "velocity": 99, "channel": 0}, {"type": "note_off", "time": 41, "note": 72, "velocity": 99, "channel": 0}, {"type": "note_on", "time": 6, "note": 74, "velocity": 101, "channel": 0}, {"type": "note_off", "time": 127, "note": 74, "velocity": 101, "channel": 0}, {"type": "note_on", "time": 2, "note": 72, "velocity": 101, "channel": 0}, {"type": "note_off", "time": 187, "note": 72, "velocity": 101, "channel": 0}, {"type": "note_on", "time": 13, "note": 69, "velocity": 96, "channel": 0}, {"type": "note_off", "time": 90, "note": 69, "velocity": 96, "channel": 0}, {"type": "note_on", "time": 41, "note": 70, "velocity": 106, "channel": 0}, {"type": "note_off", "time": 158, "note": 70, "velocity": 106, "channel": 0}, {"type": "note_on", "time": 799, "note": 71, "velocity": 98, "channel": 0}, {"type": "note_off", "time": 39, "note": 71, "velocity": 98, "channel": 0}, {"type": "note_on", "time": 8, "note": 72, "velocity": 96, "channel": 0}, {"type": "note_off", "time": 217, "note": 72, "velocity": 96, "channel": 0}, {"type": "note_on", "time": 8, "note": 74, "velocity": 103, "channel": 0}, {"type": "note_off", "time": 118, "note": 74, "velocity": 103, "channel": 0}, {"type": "note_on", "time": 2, "note": 73, "velocity": 97, "channel": 0}, {"type": "note_off", "time": 68, "note": 73, "velocity": 97, "channel": 0}, {"type": "note_on", "time": 6, "note": 72, "velocity": 100, "channel": 0}, {"type": "note_off", "time": 105, "note": 72, "velocity": 100, "channel": 0}, {"type": "note_on", "time": 4, "note": 71, "velocity": 103, "channel": 0}, {"type": "note_off", "time": 70, "note": 71, "velocity": 103, "channel": 0}, {"type": "note_on", "time": 0, "note": 70, "velocity": 105, "channel": 0}, {"type": "note_off", "time": 105, "note": 70, "velocity": 105, "channel": 0}, {"type": "note_on", "time": 2, "note": 71, "velocity": 98, "channel": 0}, {"type": "note_off", "time": 94, "note": 71, "velocity": 98, "channel": 0}, {"type": "note_on", "time": 13, "note": 70, "velocity": 98, "channel": 0}, {"type": "note_off", "time": 52, "note": 70, "velocity": 98, "channel": 0}, {"type": "note_on", "time": 325, "note": 67, "velocity": 117, "channel": 0}, {"type": "note_off", "time": 112, "note": 67, "velocity": 117, "channel": 0}, {"type": "note_on", "time": 4, "note": 68, "velocity": 109, "channel": 0}, {"type": "note_off", "time": 182, "note": 68, "velocity": 109, "channel": 0}, {"type": "note_on", "time": 72, "note": 74, "velocity": 100, "channel": 0}, {"type": "note_off", "time": 63, "note": 74, "velocity": 100, "channel": 0}, {"type": "note_on", "time": 101, "note": 60, "velocity": 86, "channel": 0}, {"type": "note_off", "time": 46, "note": 60, "velocity": 86, "channel": 0}, {"type": "note_on", "time": 39, "note": 67, "velocity": 106, "channel": 0}, {"type": "note_off", "time": 250, "note": 67, "velocity": 106, "channel": 0}, {"type": "note_on", "time": 935, "note": 74, "velocity": 106, "channel": 0}, {"type": "note_off", "time": 114, "note": 74, "velocity": 106, "channel": 0}, {"type": "note_on", "time": 4, "note": 75, "velocity": 98, "channel": 0}, {"type": "note_off", "time": 63, "note": 75, "velocity": 98, "channel": 0}, {"type": "note_on", "time": 2, "note": 73, "velocity": 81, "channel": 0}, {"type": "note_off", "time": 24, "note": 73, "velocity": 81, "channel": 0}, {"type": "note_on", "time": 4, "note": 71, "velocity": 98, "channel": 0}, {"type": "note_off", "time": 30, "note": 71, "velocity": 98, "channel": 0}, {"type": "note_on", "time": 8, "note": 69, "velocity": 107, "channel": 0}, {"type": "note_off", "time": 88, "note": 69, "velocity": 107, "channel": 0}, {"type": "note_on", "time": 8, "note": 72, "velocity": 95, "channel": 0}, {"type": "note_off", "time": 52, "note": 72, "velocity": 95, "channel": 0}, {"type": "note_on", "time": 8, "note": 71, "velocity": 102, "channel": 0}, {"type": "note_off", "time": 39, "note": 71, "velocity": 102, "channel": 0}, {"type": "note_on", "time": 6, "note": 69, "velocity": 106, "channel": 0}, {"type": "note_off", "time": 35, "note": 69, "velocity": 106, "channel": 0}, {"type": "note_on", "time": 0, "note": 69, "velocity": 103, "channel": 0}, {"type": "note_off", "time": 6, "note": 69, "velocity": 103, "channel": 0}, {"type": "note_on", "time": 4, "note": 70, "velocity": 111, "channel": 0}, {"type": "note_off", "time": 116, "note": 70, "velocity": 111, "channel": 0}, {"type": "note_on", "time": 15, "note": 67, "velocity": 102, "channel": 0}, {"type": "note_off", "time": 74, "note": 67, "velocity": 102, "channel": 0}, {"type": "note_on", "time": 2, "note": 68, "velocity": 102, "channel": 0}, {"type": "note_off", "time": 94, "note": 68, "velocity": 102, "channel": 0}, {"type": "note_on", "time": 6, "note": 74, "velocity": 101, "channel": 0}, {"type": "note_off", "time": 79, "note": 74, "velocity": 101, "channel": 0}, {"type": "note_on", "time": 15, "note": 71, "velocity": 94, "channel": 0}, {"type": "note_off", "time": 94, "note": 71, "velocity": 94, "channel": 0}, {"type": "note_on", "time": 6, "note": 72, "velocity": 94, "channel": 0}, {"type": "note_off", "time": 79, "note": 72, "velocity": 94, "channel": 0}, {"type": "note_on", "time": 306, "note": 72, "velocity": 106, "channel": 0}, {"type": "note_off", "time": 77, "note": 72, "velocity": 106, "channel": 0}, {"type": "note_on", "time": 3, "note": 71, "velocity": 106, "channel": 0}, {"type": "note_off", "time": 95, "note": 71, "velocity": 106, "channel": 0}, {"type": "note_on", "time": 9, "note": 72, "velocity": 105, "channel": 0}, {"type": "note_off", "time": 77, "note": 72, "velocity": 105, "channel": 0}, {"type": "note_on", "time": 294, "note": 64, "velocity": 96, "channel": 0}, {"type": "note_off", "time": 58, "note": 64, "velocity": 96, "channel": 0}, {"type": "note_on", "time": 24, "note": 64, "velocity": 95, "channel": 0}, {"type": "note_off", "time": 83, "note": 64, "velocity": 95, "channel": 0}, {"type": "note_on", "time": 34, "note": 64, "velocity": 95, "channel": 0}, {"type": "note_off", "time": 123, "note": 64, "velocity": 95, "channel": 0}, {"type": "note_on", "time": 58, "note": 69, "velocity": 106, "channel": 0}, {"type": "note_off", "time": 86, "note": 69, "velocity": 106, "channel": 0}, {"type": "note_on", "time": 15, "note": 67, "velocity": 109, "channel": 0}, {"type": "note_off", "time": 95, "note": 67, "velocity": 109, "channel": 0}, {"type": "note_on", "time": 424, "note": 62, "velocity": 105, "channel": 0}, {"type": "note_off", "time": 86, "note": 62, "velocity": 105, "channel": 0}, {"type": "note_on", "time": 49, "note": 64, "velocity": 101, "channel": 0}, {"type": "note_off", "time": 812, "note": 64, "velocity": 101, "channel": 0}, {"type": "note_on", "time": 6, "note": 60, "velocity": 91, "channel": 0}, {"type": "note_off", "time": 123, "note": 60, "velocity": 91, "channel": 0}, {"type": "note_on", "time": 24, "note": 62, "velocity": 102, "channel": 0}, {"type": "note_off", "time": 92, "note": 62, "velocity": 102, "channel": 0}, {"type": "note_on", "time": 6, "note": 64, "velocity": 95, "channel": 0}, {"type": "note_off", "time": 55, "note": 64, "velocity": 95, "channel": 0}, {"type": "note_on", "time": 9, "note": 65, "velocity": 103, "channel": 0}, {"type": "note_off", "time": 95, "note": 65, "velocity": 103, "channel": 0}, {"type": "note_on", "time": 12, "note": 64, "velocity": 95, "channel": 0}, {"type": "note_off", "time": 71, "note": 64, "velocity": 95, "channel": 0}, {"type": "note_on", "time": 13, "note": 60, "velocity": 92, "channel": 0}, {"type": "note_off", "time": 96, "note": 60, "velocity": 92, "channel": 0}, {"type": "note_on", "time": 8, "note": 64, "velocity": 94, "channel": 0}, {"type": "note_off", "time": 96, "note": 64, "velocity": 94, "channel": 0}, {"type": "note_on", "time": 88, "note": 64, "velocity": 84, "channel": 0}, {"type": "note_off", "time": 277, "note": 64, "velocity": 84, "channel": 0}, {"type": "note_on", "time": 1342, "note": 61, "velocity": 104, "channel": 0}, {"type": "note_off", "time": 55, "note": 61, "velocity": 104, "channel": 0}, {"type": "note_on", "time": 2, "note": 62, "velocity": 110, "channel": 0}, {"type": "note_off", "time": 592, "note": 62, "velocity": 110, "channel": 0}, {"type": "note_on", "time": 2, "note": 60, "velocity": 94, "channel": 0}, {"type": "note_off", "time": 116, "note": 60, "velocity": 94, "channel": 0}, {"type": "note_on", "time": 6, "note": 63, "velocity": 9, "channel": 0}, {"type": "note_off", "time": 488, "note": 63, "velocity": 9, "channel": 0}, {"type": "note_on", "time": 308, "note": 61, "velocity": 98, "channel": 0}, {"type": "note_off", "time": 35, "note": 61, "velocity": 98, "channel": 0}, {"type": "note_on", "time": 0, "note": 62, "velocity": 108, "channel": 0}, {"type": "note_off", "time": 129, "note": 62, "velocity": 108, "channel": 0}, {"type": "note_on", "time": 22, "note": 62, "velocity": 105, "channel": 0}, {"type": "note_off", "time": 123, "note": 62, "velocity": 105, "channel": 0}, {"type": "note_on", "time": 6, "note": 60, "velocity": 88, "channel": 0}, {"type": "note_off", "time": 88, "note": 60, "velocity": 88, "channel": 0}, {"type": "note_on", "time": 22, "note": 63, "velocity": 98, "channel": 0}, {"type": "note_off", "time": 347, "note": 63, "velocity": 98, "channel": 0}, {"type": "note_on", "time": 781, "note": 62, "velocity": 101, "channel": 0}, {"type": "note_off", "time": 103, "note": 62, "velocity": 101, "channel": 0}, {"type": "note_on", "time": 2, "note": 59, "velocity": 93, "channel": 0}, {"type": "note_off", "time": 114, "note": 59, "velocity": 93, "channel": 0}, {"type": "note_on", "time": 4, "note": 62, "velocity": 102, "channel": 0}, {"type": "note_off", "time": 101, "note": 62, "velocity": 102, "channel": 0}, {"type": "note_on", "time": 2, "note": 59, "velocity": 83, "channel": 0}, {"type": "note_off", "time": 88, "note": 59, "velocity": 83, "channel": 0}, {"type": "note_on", "time": 24, "note": 62, "velocity": 100, "channel": 0}, {"type": "note_off", "time": 48, "note": 62, "velocity": 100, "channel": 0}, {"type": "note_on", "time": 33, "note": 67, "velocity": 103, "channel": 0}, {"type": "note_off", "time": 140, "note": 67, "velocity": 103, "channel": 0}, {"type": "note_on", "time": 39, "note": 70, "velocity": 108, "channel": 0}, {"type": "note_off", "time": 136, "note": 70, "velocity": 108, "channel": 0}, {"type": "note_on", "time": 61, "note": 70, "velocity": 106, "channel": 0}, {"type": "note_off", "time": 114, "note": 70, "velocity": 106, "channel": 0}, {"type": "note_on", "time": 8, "note": 71, "velocity": 93, "channel": 0}, {"type": "note_off", "time": 140, "note": 71, "velocity": 93, "channel": 0}, {"type": "note_on", "time": 268, "note": 62, "velocity": 106, "channel": 0}, {"type": "note_off", "time": 118, "note": 62, "velocity": 106, "channel": 0}, {"type": "note_on", "time": 4, "note": 59, "velocity": 88, "channel": 0}, {"type": "note_off", "time": 79, "note": 59, "velocity": 88, "channel": 0}, {"type": "note_on", "time": 8, "note": 60, "velocity": 92, "channel": 0}, {"type": "note_off", "time": 110, "note": 60, "velocity": 92, "channel": 0}, {"type": "note_on", "time": 13, "note": 67, "velocity": 109, "channel": 0}, {"type": "note_off", "time": 114, "note": 67, "velocity": 109, "channel": 0}, {"type": "note_on", "time": 88, "note": 69, "velocity": 100, "channel": 0}, {"type": "note_off", "time": 235, "note": 69, "velocity": 100, "channel": 0}, {"type": "note_on", "time": 1045, "note": 72, "velocity": 102, "channel": 0}, {"type": "note_off", "time": 79, "note": 72, "velocity": 102, "channel": 0}, {"type": "note_on", "time": 13, "note": 71, "velocity": 100, "channel": 0}, {"type": "note_off", "time": 92, "note": 71, "velocity": 100, "channel": 0}, {"type": "note_on", "time": 13, "note": 63, "velocity": 91, "channel": 0}, {"type": "note_off", "time": 48, "note": 63, "velocity": 91, "channel": 0}, {"type": "note_on", "time": 0, "note": 60, "velocity": 93, "channel": 0}, {"type": "note_off", "time": 52, "note": 60, "velocity": 93, "channel": 0}, {"type": "note_on", "time": 8, "note": 70, "velocity": 105, "channel": 0}, {"type": "note_off", "time": 129, "note": 70, "velocity": 105, "channel": 0}, {"type": "note_on", "time": 11, "note": 67, "velocity": 105, "channel": 0}, {"type": "note_off", "time": 88, "note": 67, "velocity": 105, "channel": 0}, {"type": "note_on", "time": 77, "note": 69, "velocity": 103, "channel": 0}, {"type": "note_off", "time": 171, "note": 69, "velocity": 103, "channel": 0}, {"type": "note_on", "time": 407, "note": 72, "velocity": 96, "channel": 0}, {"type": "note_off", "time": 41, "note": 72, "velocity": 96, "channel": 0}, {"type": "note_on", "time": 0, "note": 73, "velocity": 104, "channel": 0}, {"type": "note_off", "time": 55, "note": 73, "velocity": 104, "channel": 0}, {"type": "note_on", "time": 2, "note": 72, "velocity": 98, "channel": 0}, {"type": "note_off", "time": 70, "note": 72, "velocity": 98, "channel": 0}, {"type": "note_on", "time": 0, "note": 71, "velocity": 91, "channel": 0}, {"type": "note_off", "time": 55, "note": 71, "velocity": 91, "channel": 0}, {"type": "note_on", "time": 2, "note": 67, "velocity": 95, "channel": 0}, {"type": "note_off", "time": 52, "note": 67, "velocity": 95, "channel": 0}, {"type": "note_on", "time": 0, "note": 70, "velocity": 108, "channel": 0}, {"type": "note_off", "time": 136, "note": 70, "velocity": 108, "channel": 0}, {"type": "note_on", "time": 11, "note": 65, "velocity": 93, "channel": 0}, {"type": "note_off", "time": 63, "note": 65, "velocity": 93, "channel": 0}, {"type": "note_on", "time": 88, "note": 68, "velocity": 93, "channel": 0}, {"type": "note_off", "time": 244, "note": 68, "velocity": 93, "channel": 0}, {"type": "note_on", "time": 871, "note": 65, "velocity": 95, "channel": 0}, {"type": "note_off", "time": 66, "note": 65, "velocity": 95, "channel": 0}, {"type": "note_on", "time": 26, "note": 68, "velocity": 102, "channel": 0}, {"type": "note_off", "time": 132, "note": 68, "velocity": 102, "channel": 0}, {"type": "note_on", "time": 8, "note": 70, "velocity": 109, "channel": 0}, {"type": "note_off", "time": 83, "note": 70, "velocity": 109, "channel": 0}, {"type": "note_on", "time": 92, "note": 71, "velocity": 96, "channel": 0}, {"type": "note_off", "time": 35, "note": 71, "velocity": 96, "channel": 0}, {"type": "note_on", "time": 0, "note": 72, "velocity": 102, "channel": 0}, {"type": "note_off", "time": 620, "note": 72, "velocity": 102, "channel": 0}, {"type": "note_on", "time": 58, "note": 72, "velocity": 85, "channel": 0}, {"type": "note_off", "time": 55, "note": 72, "velocity": 85, "channel": 0}, {"type": "note_on", "time": 35, "note": 68, "velocity": 93, "channel": 0}, {"type": "note_off", "time": 105, "note": 68, "velocity": 93, "channel": 0}, {"type": "note_on", "time": 21, "note": 65, "velocity": 86, "channel": 0}, {"type": "note_off", "time": 338, "note": 65, "velocity": 86, "channel": 0}, {"type": "note_on", "time": 625, "note": 65, "velocity": 77, "channel": 0}, {"type": "note_off", "time": 46, "note": 65, "velocity": 77, "channel": 0}, {"type": "note_on", "time": 51, "note": 68, "velocity": 109, "channel": 0}, {"type": "note_off", "time": 115, "note": 68, "velocity": 109, "channel": 0}, {"type": "note_on", "time": 0, "note": 70, "velocity": 106, "channel": 0}, {"type": "note_off", "time": 79, "note": 70, "velocity": 106, "channel": 0}, {"type": "note_on", "time": 81, "note": 71, "velocity": 97, "channel": 0}, {"type": "note_off", "time": 24, "note": 71, "velocity": 97, "channel": 0}, {"type": "note_on", "time": 6, "note": 72, "velocity": 107, "channel": 0}, {"type": "note_off", "time": 99, "note": 72, "velocity": 107, "channel": 0}, {"type": "note_on", "time": 39, "note": 75, "velocity": 115, "channel": 0}, {"type": "note_off", "time": 68, "note": 75, "velocity": 115, "channel": 0}, {"type": "note_on", "time": 0, "note": 77, "velocity": 116, "channel": 0}, {"type": "note_off", "time": 541, "note": 77, "velocity": 116, "channel": 0}, {"type": "note_on", "time": 11, "note": 72, "velocity": 96, "channel": 0}, {"type": "note_off", "time": 140, "note": 72, "velocity": 96, "channel": 0}, {"type": "note_on", "time": 11, "note": 65, "velocity": 82, "channel": 0}, {"type": "note_off", "time": 81, "note": 65, "velocity": 82, "channel": 0}, {"type": "note_on", "time": 433, "note": 67, "velocity": 98, "channel": 0}, {"type": "note_off", "time": 92, "note": 67, "velocity": 98, "channel": 0}, {"type": "note_on", "time": 52, "note": 67, "velocity": 101, "channel": 0}, {"type": "note_off", "time": 39, "note": 67, "velocity": 101, "channel": 0}, {"type": "note_on", "time": 8, "note": 68, "velocity": 99, "channel": 0}, {"type": "note_off", "time": 105, "note": 68, "velocity": 99, "channel": 0}, {"type": "note_on", "time": 22, "note": 67, "velocity": 100, "channel": 0}, {"type": "note_off", "time": 44, "note": 67, "velocity": 100, "channel": 0}, {"type": "note_on", "time": 17, "note": 68, "velocity": 91, "channel": 0}, {"type": "note_off", "time": 105, "note": 68, "velocity": 91, "channel": 0}, {"type": "note_on", "time": 35, "note": 67, "velocity": 103, "channel": 0}, {"type": "note_off", "time": 105, "note": 67, "velocity": 103, "channel": 0}, {"type": "note_on", "time": 15, "note": 65, "velocity": 91, "channel": 0}, {"type": "note_off", "time": 92, "note": 65, "velocity": 91, "channel": 0}, {"type": "note_on", "time": 81, "note": 67, "velocity": 88, "channel": 0}, {"type": "note_off", "time": 215, "note": 67, "velocity": 88, "channel": 0}, {"type": "note_on", "time": 1038, "note": 66, "velocity": 106, "channel": 0}, {"type": "note_off", "time": 72, "note": 66, "velocity": 106, "channel": 0}, {"type": "note_on", "time": 1, "note": 67, "velocity": 106, "channel": 0}, {"type": "note_off", "time": 83, "note": 67, "velocity": 106, "channel": 0}, {"type": "note_on", "time": 7, "note": 63, "velocity": 97, "channel": 0}, {"type": "note_off", "time": 85, "note": 63, "velocity": 97, "channel": 0}, {"type": "note_on", "time": 0, "note": 60, "velocity": 85, "channel": 0}, {"type": "note_off", "time": 88, "note": 60, "velocity": 85, "channel": 0}, {"type": "note_on", "time": 13, "note": 68, "velocity": 107, "channel": 0}, {"type": "note_off", "time": 110, "note": 68, "velocity": 107, "channel": 0}, {"type": "note_on", "time": 2, "note": 69, "velocity": 100, "channel": 0}, {"type": "note_off", "time": 92, "note": 69, "velocity": 100, "channel": 0}, {"type": "note_on", "time": 94, "note": 65, "velocity": 98, "channel": 0}, {"type": "note_off", "time": 88, "note": 65, "velocity": 98, "channel": 0}, {"type": "note_on", "time": 79, "note": 60, "velocity": 92, "channel": 0}, {"type": "note_off", "time": 127, "note": 60, "velocity": 92, "channel": 0}, {"type": "note_on", "time": 90, "note": 55, "velocity": 88, "channel": 0}, {"type": "note_off", "time": 94, "note": 55, "velocity": 88, "channel": 0}, {"type": "note_on", "time": 4, "note": 58, "velocity": 94, "channel": 0}, {"type": "note_off", "time": 127, "note": 58, "velocity": 94, "channel": 0}, {"type": "note_on", "time": 35, "note": 67, "velocity": 105, "channel": 0}, {"type": "note_off", "time": 145, "note": 67, "velocity": 105, "channel": 0}, {"type": "note_on", "time": 74, "note": 64, "velocity": 94, "channel": 0}, {"type": "note_off", "time": 107, "note": 64, "velocity": 94, "channel": 0}, {"type": "note_on", "time": 11, "note": 65, "velocity": 91, "channel": 0}, {"type": "note_off", "time": 74, "note": 65, "velocity": 91, "channel": 0}, {"type": "note_on", "time": 752, "note": 52, "velocity": 82, "channel": 0}, {"type": "note_off", "time": 92, "note": 52, "velocity": 82, "channel": 0}, {"type": "note_on", "time": 8, "note": 53, "velocity": 86, "channel": 0}, {"type": "note_off", "time": 167, "note": 53, "velocity": 86, "channel": 0}, {"type": "note_on", "time": 112, "note": 57, "velocity": 88, "channel": 0}, {"type": "note_off", "time": 140, "note": 57, "velocity": 88, "channel": 0}, {"type": "note_on", "time": 68, "note": 57, "velocity": 97, "channel": 0}, {"type": "note_off", "time": 85, "note": 57, "velocity": 97, "channel": 0}, {"type": "note_on", "time": 6, "note": 60, "velocity": 94, "channel": 0}, {"type": "note_off", "time": 74, "note": 60, "velocity": 94, "channel": 0}, {"type": "note_on", "time": 26, "note": 60, "velocity": 95, "channel": 0}, {"type": "note_off", "time": 83, "note": 60, "velocity": 95, "channel": 0}, {"type": "note_on", "time": 17, "note": 57, "velocity": 83, "channel": 0}, {"type": "note_off", "time": 72, "note": 57, "velocity": 83, "channel": 0}, {"type": "note_on", "time": 11, "note": 58, "velocity": 92, "channel": 0}, {"type": "note_off", "time": 118, "note": 58, "velocity": 92, "channel": 0}, {"type": "note_on", "time": 24, "note": 58, "velocity": 91, "channel": 0}, {"type": "note_off", "time": 125, "note": 58, "velocity": 91, "channel": 0}, {"type": "note_on", "time": 50, "note": 58, "velocity": 91, "channel": 0}, {"type": "note_off", "time": 118, "note": 58, "velocity": 91, "channel": 0}, {"type": "note_on", "time": 37, "note": 62, "velocity": 100, "channel": 0}, {"type": "note_off", "time": 171, "note": 62, "velocity": 100, "channel": 0}, {"type": "note_on", "time": 4, "note": 59, "velocity": 89, "channel": 0}, {"type": "note_off", "time": 77, "note": 59, "velocity": 89, "channel": 0}, {"type": "note_on", "time": 17, "note": 60, "velocity": 88, "channel": 0}, {"type": "note_off", "time": 107, "note": 60, "velocity": 88, "channel": 0}, {"type": "note_on", "time": 70, "note": 69, "velocity": 96, "channel": 0}, {"type": "note_off", "time": 114, "note": 69, "velocity": 96, "channel": 0}, {"type": "note_on", "time": 92, "note": 65, "velocity": 93, "channel": 0}, {"type": "note_off", "time": 105, "note": 65, "velocity": 93, "channel": 0}, {"type": "note_on", "time": 40, "note": 67, "velocity": 101, "channel": 0}, {"type": "note_off", "time": 79, "note": 67, "velocity": 101, "channel": 0}, {"type": "note_on", "time": 80, "note": 62, "velocity": 92, "channel": 0}, {"type": "note_off", "time": 33, "note": 62, "velocity": 92, "channel": 0}, {"type": "note_on", "time": 4, "note": 60, "velocity": 87, "channel": 0}, {"type": "note_off", "time": 68, "note": 60, "velocity": 87, "channel": 0}, {"type": "note_on", "time": 266, "note": 70, "velocity": 108, "channel": 0}, {"type": "note_off", "time": 149, "note": 70, "velocity": 108, "channel": 0}, {"type": "note_on", "time": 37, "note": 68, "velocity": 99, "channel": 0}, {"type": "note_off", "time": 110, "note": 68, "velocity": 99, "channel": 0}, {"type": "note_on", "time": 92, "note": 60, "velocity": 82, "channel": 0}, {"type": "note_off", "time": 78, "note": 60, "velocity": 82, "channel": 0}, {"type": "note_on", "time": 0, "note": 65, "velocity": 91, "channel": 0}, {"type": "note_off", "time": 149, "note": 65, "velocity": 91, "channel": 0}, {"type": "note_on", "time": 258, "note": 72, "velocity": 100, "channel": 0}, {"type": "note_off", "time": 96, "note": 72, "velocity": 100, "channel": 0}, {"type": "note_on", "time": 202, "note": 70, "velocity": 106, "channel": 0}, {"type": "note_off", "time": 103, "note": 70, "velocity": 106, "channel": 0}, {"type": "note_on", "time": 105, "note": 67, "velocity": 83, "channel": 0}, {"type": "note_off", "time": 66, "note": 67, "velocity": 83, "channel": 0}, {"type": "note_on", "time": 0, "note": 74, "velocity": 99, "channel": 0}, {"type": "note_off", "time": 77, "note": 74, "velocity": 99, "channel": 0}, {"type": "note_on", "time": 228, "note": 72, "velocity": 99, "channel": 0}, {"type": "note_off", "time": 149, "note": 72, "velocity": 99, "channel": 0}, {"type": "note_on", "time": 26, "note": 70, "velocity": 75, "channel": 0}, {"type": "note_off", "time": 61, "note": 70, "velocity": 75, "channel": 0}, {"type": "note_on", "time": 103, "note": 77, "velocity": 104, "channel": 0}, {"type": "note_off", "time": 85, "note": 77, "velocity": 104, "channel": 0}, {"type": "note_on", "time": 8, "note": 77, "velocity": 106, "channel": 0}, {"type": "note_off", "time": 162, "note": 77, "velocity": 106, "channel": 0}, {"type": "note_on", "time": 39, "note": 74, "velocity": 97, "channel": 0}, {"type": "note_off", "time": 121, "note": 74, "velocity": 97, "channel": 0}, {"type": "note_on", "time": 2, "note": 72, "velocity": 88, "channel": 0}, {"type": "note_off", "time": 90, "note": 72, "velocity": 88, "channel": 0}, {"type": "note_on", "time": 81, "note": 67, "velocity": 84, "channel": 0}, {"type": "note_off", "time": 250, "note": 67, "velocity": 84, "channel": 0}, {"type": "note_on", "time": 647, "note": 67, "velocity": 114, "channel": 0}, {"type": "note_off", "time": 66, "note": 67, "velocity": 114, "channel": 0}, {"type": "note_on", "time": 24, "note": 68, "velocity": 104, "channel": 0}, {"type": "note_off", "time": 110, "note": 68, "velocity": 104, "channel": 0}, {"type": "note_on", "time": 239, "note": 64, "velocity": 99, "channel": 0}, {"type": "note_off", "time": 79, "note": 64, "velocity": 99, "channel": 0}, {"type": "note_on", "time": 4, "note": 63, "velocity": 93, "channel": 0}, {"type": "note_off", "time": 457, "note": 63, "velocity": 93, "channel": 0}, {"type": "note_on", "time": 517, "note": 67, "velocity": 112, "channel": 0}, {"type": "note_off", "time": 114, "note": 67, "velocity": 112, "channel": 0}, {"type": "note_on", "time": 0, "note": 68, "velocity": 101, "channel": 0}, {"type": "note_off", "time": 92, "note": 68, "velocity": 101, "channel": 0}, {"type": "note_on", "time": 55, "note": 63, "velocity": 97, "channel": 0}, {"type": "note_off", "time": 422, "note": 63, "velocity": 97, "channel": 0}, {"type": "note_on", "time": 834, "note": 67, "velocity": 103, "channel": 0}, {"type": "note_off", "time": 68, "note": 67, "velocity": 103, "channel": 0}, {"type": "note_on", "time": 15, "note": 66, "velocity": 108, "channel": 0}, {"type": "note_off", "time": 136, "note": 66, "velocity": 108, "channel": 0}, {"type": "note_on", "time": 24, "note": 62, "velocity": 98, "channel": 0}, {"type": "note_off", "time": 816, "note": 62, "velocity": 98, "channel": 0}, {"type": "note_on", "time": 468, "note": 67, "velocity": 112, "channel": 0}, {"type": "note_off", "time": 79, "note": 67, "velocity": 112, "channel": 0}, {"type": "note_on", "time": 17, "note": 66, "velocity": 112, "channel": 0}, {"type": "note_off", "time": 88, "note": 66, "velocity": 112, "channel": 0}, {"type": "note_on", "time": 52, "note": 59, "velocity": 87, "channel": 0}, {"type": "note_off", "time": 72, "note": 59, "velocity": 87, "channel": 0}, {"type": "note_on", "time": 22, "note": 62, "velocity": 84, "channel": 0}, {"type": "note_off", "time": 427, "note": 62, "velocity": 84, "channel": 0}, {"type": "note_on", "time": 592, "note": 59, "velocity": 105, "channel": 0}, {"type": "note_off", "time": 68, "note": 59, "velocity": 105, "channel": 0}, {"type": "note_on", "time": 8, "note": 60, "velocity": 94, "channel": 0}, {"type": "note_off", "time": 193, "note": 60, "velocity": 94, "channel": 0}, {"type": "note_on", "time": 28, "note": 57, "velocity": 89, "channel": 0}, {"type": "note_off", "time": 81, "note": 57, "velocity": 89, "channel": 0}, {"type": "note_on", "time": 261, "note": 69, "velocity": 107, "channel": 0}, {"type": "note_off", "time": 367, "note": 69, "velocity": 107, "channel": 0}, {"type": "note_on", "time": 338, "note": 68, "velocity": 100, "channel": 0}, {"type": "note_off", "time": 68, "note": 68, "velocity": 100, "channel": 0}, {"type": "note_on", "time": 6, "note": 69, "velocity": 99, "channel": 0}, {"type": "note_off", "time": 123, "note": 69, "velocity": 99, "channel": 0}, {"type": "note_on", "time": 48, "note": 60, "velocity": 93, "channel": 0}, {"type": "note_off", "time": 143, "note": 60, "velocity": 93, "channel": 0}, {"type": "note_on", "time": 462, "note": 67, "velocity": 92, "channel": 0}, {"type": "note_off", "time": 400, "note": 67, "velocity": 92, "channel": 0}, {"type": "note_on", "time": 312, "note": 64, "velocity": 91, "channel": 0}, {"type": "note_off", "time": 46, "note": 64, "velocity": 91, "channel": 0}, {"type": "note_on", "time": 0, "note": 65, "velocity": 101, "channel": 0}, {"type": "note_off", "time": 160, "note": 65, "velocity": 101, "channel": 0}, {"type": "note_on", "time": 37, "note": 58, "velocity": 89, "channel": 0}, {"type": "note_off", "time": 167, "note": 58, "velocity": 89, "channel": 0}, {"type": "note_on", "time": 440, "note": 67, "velocity": 110, "channel": 0}, {"type": "note_off", "time": 50, "note": 67, "velocity": 110, "channel": 0}, {"type": "note_on", "time": 4, "note": 68, "velocity": 98, "channel": 0}, {"type": "note_off", "time": 354, "note": 68, "velocity": 98, "channel": 0}, {"type": "note_on", "time": 303, "note": 68, "velocity": 101, "channel": 0}, {"type": "note_off", "time": 63, "note": 68, "velocity": 101, "channel": 0}, {"type": "note_on", "time": 8, "note": 69, "velocity": 103, "channel": 0}, {"type": "note_off", "time": 55, "note": 69, "velocity": 103, "channel": 0}, {"type": "note_on", "time": 129, "note": 72, "velocity": 100, "channel": 0}, {"type": "note_off", "time": 167, "note": 72, "velocity": 100, "channel": 0}, {"type": "note_on", "time": 319, "note": 67, "velocity": 98, "channel": 0}, {"type": "note_off", "time": 55, "note": 67, "velocity": 98, "channel": 0}, {"type": "note_on", "time": 4, "note": 69, "velocity": 100, "channel": 0}, {"type": "note_off", "time": 160, "note": 69, "velocity": 100, "channel": 0}, {"type": "note_on", "time": 48, "note": 65, "velocity": 92, "channel": 0}, {"type": "note_off", "time": 213, "note": 65, "velocity": 92, "channel": 0}, {"type": "end_of_track", "time": 0}]]}