{"ticks_per_beat": 192, "tracks": [[{"type": "track_name", "name": "Melody", "time": 0}, {"type": "set_tempo", "tempo": 258620, "time": 0}, {"type": "time_signature", "numerator": 1, "denominator": 4, "clocks_per_click": 24, "notated_32nd_notes_per_beat": 8, "time": 0}, {"type": "note_on", "time": 4118, "note": 74, "velocity": 118, "channel": 0}, {"type": "note_off", "time": 112, "note": 74, "velocity": 118, "channel": 0}, {"type": "note_on", "time": 7, "note": 70, "velocity": 111, "channel": 0}, {"type": "note_off", "time": 74, "note": 70, "velocity": 111, "channel": 0}, {"type": "note_on", "time": 10, "note": 67, "velocity": 111, "channel": 0}, {"type": "note_off", "time": 99, "note": 67, "velocity": 111, "channel": 0}, {"type": "note_on", "time": 16, "note": 62, "velocity": 90, "channel": 0}, {"type": "note_off", "time": 51, "note": 62, "velocity": 90, "channel": 0}, {"type": "note_on", "time": 7, "note": 67, "velocity": 111, "channel": 0}, {"type": "note_off", "time": 81, "note": 67, "velocity": 111, "channel": 0}, {"type": "note_on", "time": 16, "note": 70, "velocity": 110, "channel": 0}, {"type": "note_off", "time": 71, "note": 70, "velocity": 110, "channel": 0}, {"type": "note_on", "time": 25, "note": 74, "velocity": 106, "channel": 0}, {"type": "note_off", "time": 151, "note": 74, "velocity": 106, "channel": 0}, {"type": "note_on", "time": 387, "note": 74, "velocity": 127, "channel": 0}, {"type": "note_off", "time": 125, "note": 74, "velocity": 127, "channel": 0}, {"type": "note_on", "time": 31, "note": 72, "velocity": 108, "channel": 0}, {"type": "note_off", "time": 87, "note": 72, "velocity": 108, "channel": 0}, {"type": "note_on", "time": 344, "note": 62, "velocity": 102, "channel": 0}, {"type": "note_off", "time": 99, "note": 62, "velocity": 102, "channel": 0}, {"type": "note_on", "time": 12, "note": 63, "velocity": 88, "channel": 0}, {"type": "note_off", "time": 73, "note": 63, "velocity": 88, "channel": 0}, {"type": "note_on", "time": 16, "note": 67, "velocity": 109, "channel": 0}, {"type": "note_off", "time": 74, "note": 67, "velocity": 109, "channel": 0}, {"type": "note_on", "time": 12, "note": 70, "velocity": 104, "channel": 0}, {"type": "note_off", "time": 74, "note": 70, "velocity": 104, "channel": 0}, {"type": "note_on", "time": 9, "note": 74, "velocity": 114, "channel": 0}, {"type": "note_off", "time": 89, "note": 74, "velocity": 114, "channel": 0}, {"type": "note_on", "time": 6, "note": 72, "velocity": 110, "channel": 0}, {"type": "note_off", "time": 88, "note": 72, "velocity": 110, "channel": 0}, {"type": "note_on", "time": 23, "note": 70, "velocity": 113, "channel": 0}, {"type": "note_off", "time": 106, "note": 70, "velocity": 113, "channel": 0}, {"type": "note_on", "time": 349, "note": 69, "velocity": 118, "channel": 0}, {"type": "note_off", "time": 72, "note": 69, "velocity": 118, "channel": 0}, {"type": "note_on", "time": 14, "note": 67, "velocity": 107, "channel": 0}, {"type": "note_off", "time": 98, "note": 67, "velocity": 107, "channel": 0}, {"type": "note_on", "time": 22, "note": 65, "velocity": 100, "channel": 0}, {"type": "note_off", "time": 78, "note": 65, "velocity": 100, "channel": 0}, {"type": "note_on", "time": 38, "note": 60, "velocity": 92, "channel": 0}, {"type": "note_off", "time": 33, "note": 60, "velocity": 92, "channel": 0}, {"type": "note_on", "time": 12, "note": 70, "velocity": 100, "channel": 0}, {"type": "note_off", "time": 64, "note": 70, "velocity": 100, "channel": 0}, {"type": "note_on", "time": 7, "note": 75, "velocity": 106, "channel": 0}, {"type": "note_off", "time": 661, "note": 75, "velocity": 106, "channel": 0}, {"type": "note_on", "time": 14, "note": 74, "velocity": 111, "channel": 0}, {"type": "note_off", "time": 110, "note": 74, "velocity": 111, "channel": 0}, {"type": "note_on", "time": 9, "note": 72, "velocity": 105, "channel": 0}, {"type": "note_off", "time": 74, "note": 72, "velocity": 105, "channel": 0}, {"type": "note_on", "time": 13, "note": 70, "velocity": 109, "channel": 0}, {"type": "note_off", "time": 91, "note": 70, "velocity": 109, "channel": 0}, {"type": "note_on", "time": 10, "note": 69, "velocity": 108, "channel": 0}, {"type": "note_off", "time": 102, "note": 69, "velocity": 108, "channel": 0}, {"type": "note_on", "time": 4, "note": 67, "velocity": 95, "channel": 0}, {"type": "note_off", "time": 67, "note": 67, "velocity": 95, "channel": 0}, {"type": "note_on", "time": 13, "note": 70, "velocity": 110, "channel": 0}, {"type": "note_off", "time": 129, "note": 70, "velocity": 110, "channel": 0}, {"type": "note_on", "time": 71, "note": 65, "velocity": 100, "channel": 0}, {"type": "note_off", "time": 90, "note": 65, "velocity": 100, "channel": 0}, {"type": "note_on", "time": 17, "note": 63, "velocity": 89, "channel": 0}, {"type": "note_off", "time": 69, "note": 63, "velocity": 89, "channel": 0}, {"type": "note_on", "time": 8, "note": 69, "velocity": 108, "channel": 0}, {"type": "note_off", "time": 100, "note": 69, "velocity": 108, "channel": 0}, {"type": "note_on", "time": 11, "note": 67, "velocity": 100, "channel": 0}, {"type": "note_off", "time": 80, "note": 67, "velocity": 100, "channel": 0}, {"type": "note_on", "time": 22, "note": 65, "velocity": 106, "channel": 0}, {"type": "note_off", "time": 92, "note": 65, "velocity": 106, "channel": 0}, {"type": "note_on", "time": 5, "note": 63, "velocity": 93, "channel": 0}, {"type": "note_off", "time": 57, "note": 63, "velocity": 93, "channel": 0}, {"type": "note_on", "time": 40, "note": 67, "velocity": 92, "channel": 0}, {"type": "note_off", "time": 114, "note": 67, "velocity": 92, "channel": 0}, {"type": "note_on", "time": 11, "note": 63, "velocity": 90, "channel": 0}, {"type": "note_off", "time": 64, "note": 63, "velocity": 90, "channel": 0}, {"type": "note_on", "time": 1, "note": 64, "velocity": 89, "channel": 0}, {"type": "note_off", "time": 72, "note": 64, "velocity": 89, "channel": 0}, {"type": "note_on", "time": 8, "note": 65, "velocity": 105, "channel": 0}, {"type": "note_off", "time": 68, "note": 65, "velocity": 105, "channel": 0}, {"type": "note_on", "time": 24, "note": 62, "velocity": 86, "channel": 0}, {"type": "note_off", "time": 58, "note": 62, "velocity": 86, "channel": 0}, {"type": "note_on", "time": 24, "note": 60, "velocity": 88, "channel": 0}, {"type": "note_off", "time": 56, "note": 60, "velocity": 88, "channel": 0}, {"type": "note_on", "time": 22, "note": 63, "velocity": 98, "channel": 0}, {"type": "note_off", "time": 89, "note": 63, "velocity": 98, "channel": 0}, {"type": "note_on", "time": 22, "note": 60, "velocity": 92, "channel": 0}, {"type": "note_off", "time": 154, "note": 60, "velocity": 92, "channel": 0}, {"type": "note_on", "time": 1, "note": 62, "velocity": 96, "channel": 0}, {"type": "note_off", "time": 138, "note": 62, "velocity": 96, "channel": 0}, {"type": "note_on", "time": 95, "note": 58, "velocity": 84, "channel": 0}, {"type": "note_off", "time": 65, "note": 58, "velocity": 84, "channel": 0}, {"type": "note_on", "time": 21, "note": 60, "velocity": 102, "channel": 0}, {"type": "note_off", "time": 84, "note": 60, "velocity": 102, "channel": 0}, {"type": "note_on", "time": 332, "note": 62, "velocity": 102, "channel": 0}, {"type": "note_off", "time": 84, "note": 62, "velocity": 102, "channel": 0}, {"type": "note_on", "time": 9, "note": 63, "velocity": 96, "channel": 0}, {"type": "note_off", "time": 60, "note": 63, "velocity": 96, "channel": 0}, {"type": "note_on", "time": 10, "note": 65, "velocity": 110, "channel": 0}, {"type": "note_off", "time": 120, "note": 65, "velocity": 110, "channel": 0}, {"type": "note_on", "time": 7, "note": 66, "velocity": 99, "channel": 0}, {"type": "note_off", "time": 56, "note": 66, "velocity": 99, "channel": 0}, {"type": "note_on", "time": 9, "note": 67, "velocity": 109, "channel": 0}, {"type": "note_off", "time": 104, "note": 67, "velocity": 109, "channel": 0}, {"type": "note_on", "time": 12, "note": 65, "velocity": 104, "channel": 0}, {"type": "note_off", "time": 85, "note": 65, "velocity": 104, "channel": 0}, {"type": "note_on", "time": 13, "note": 63, "velocity": 97, "channel": 0}, {"type": "note_off", "time": 84, "note": 63, "velocity": 97, "channel": 0}, {"type": "note_on", "time": 22, "note": 60, "velocity": 100, "channel": 0}, {"type": "note_off", "time": 53, "note": 60, "velocity": 100, "channel": 0}, {"type": "note_on", "time": 13, "note": 61, "velocity": 89, "channel": 0}, {"type": "note_off", "time": 79, "note": 61, "velocity": 89, "channel": 0}, {"type": "note_on", "time": 41, "note": 62, "velocity": 96, "channel": 0}, {"type": "note_off", "time": 67, "note": 62, "velocity": 96, "channel": 0}, {"type": "note_on", "time": 134, "note": 63, "velocity": 98, "channel": 0}, {"type": "note_off", "time": 57, "note": 63, "velocity": 98, "channel": 0}, {"type": "note_on", "time": 125, "note": 61, "velocity": 88, "channel": 0}, {"type": "note_off", "time": 74, "note": 61, "velocity": 88, "channel": 0}, {"type": "note_on", "time": 134, "note": 56, "velocity": 89, "channel": 0}, {"type": "note_off", "time": 31, "note": 56, "velocity": 89, "channel": 0}, {"type": "note_on", "time": 11, "note": 58, "velocity": 95, "channel": 0}, {"type": "note_off", "time": 36, "note": 58, "velocity": 95, "channel": 0}, {"type": "note_on", "time": 7, "note": 59, "velocity": 99, "channel": 0}, {"type": "note_off", "time": 86, "note": 59, "velocity": 99, "channel": 0}, {"type": "note_on", "time": 14, "note": 61, "velocity": 89, "channel": 0}, {"type": "note_off", "time": 60, "note": 61, "velocity": 89, "channel": 0}, {"type": "note_on", "time": 15, "note": 63, "velocity": 91, "channel": 0}, {"type": "note_off", "time": 80, "note": 63, "velocity": 91, "channel": 0}, {"type": "note_on", "time": 20, "note": 58, "velocity": 98, "channel": 0}, {"type": "note_off", "time": 77, "note": 58, "velocity": 98, "channel": 0}, {"type": "note_on", "time": 18, "note": 56, "velocity": 93, "channel": 0}, {"type": "note_off", "time": 94, "note": 56, "velocity": 93, "channel": 0}, {"type": "note_on", "time": 47, "note": 64, "velocity": 93, "channel": 0}, {"type": "note_off", "time": 43, "note": 64, "velocity": 93, "channel": 0}, {"type": "note_on", "time": 331, "note": 68, "velocity": 107, "channel": 0}, {"type": "note_off", "time": 66, "note": 68, "velocity": 107, "channel": 0}, {"type": "note_on", "time": 30, "note": 66, "velocity": 102, "channel": 0}, {"type": "note_off", "time": 80, "note": 66, "velocity": 102, "channel": 0}, {"type": "note_on", "time": 23, "note": 71, "velocity": 97, "channel": 0}, {"type": "note_off", "time": 61, "note": 71, "velocity": 97, "channel": 0}, {"type": "note_on", "time": 317, "note": 72, "velocity": 109, "channel": 0}, {"type": "note_off", "time": 62, "note": 72, "velocity": 109, "channel": 0}, {"type": "note_on", "time": 13, "note": 71, "velocity": 117, "channel": 0}, {"type": "note_off", "time": 99, "note": 71, "velocity": 117, "channel": 0}, {"type": "note_on", "time": 4, "note": 72, "velocity": 92, "channel": 0}, {"type": "note_off", "time": 62, "note": 72, "velocity": 92, "channel": 0}, {"type": "note_on", "time": 17, "note": 74, "velocity": 117, "channel": 0}, {"type": "note_off", "time": 105, "note": 74, "velocity": 117, "channel": 0}, {"type": "note_on", "time": 13, "note": 72, "velocity": 95, "channel": 0}, {"type": "note_off", "time": 69, "note": 72, "velocity": 95, "channel": 0}, {"type": "note_on", "time": 10, "note": 71, "velocity": 111, "channel": 0}, {"type": "note_off", "time": 94, "note": 71, "velocity": 111, "channel": 0}, {"type": "note_on", "time": 26, "note": 68, "velocity": 108, "channel": 0}, {"type": "note_off", "time": 84, "note": 68, "velocity": 108, "channel": 0}, {"type": "note_on", "time": 35, "note": 66, "velocity": 95, "channel": 0}, {"type": "note_off", "time": 82, "note": 66, "velocity": 95, "channel": 0}, {"type": "note_on", "time": 9, "note": 63, "velocity": 84, "channel": 0}, {"type": "note_off", "time": 49, "note": 63, "velocity": 84, "channel": 0}, {"type": "note_on", "time": 11, "note": 69, "velocity": 105, "channel": 0}, {"type": "note_off", "time": 74, "note": 69, "velocity": 105, "channel": 0}, {"type": "note_on", "time": 4, "note": 70, "velocity": 111, "channel": 0}, {"type": "note_off", "time": 90, "note": 70, "velocity": 111, "channel": 0}, {"type": "note_on", "time": 7, "note": 71, "velocity": 112, "channel": 0}, {"type": "note_off", "time": 98, "note": 71, "velocity": 112, "channel": 0}, {"type": "note_on", "time": 209, "note": 71, "velocity": 104, "channel": 0}, {"type": "note_off", "time": 253, "note": 71, "velocity": 104, "channel": 0}, {"type": "note_on", "time": 9, "note": 73, "velocity": 106, "channel": 0}, {"type": "note_off", "time": 170, "note": 73, "velocity": 106, "channel": 0}, {"type": "note_on", "time": 4, "note": 70, "velocity": 116, "channel": 0}, {"type": "note_off", "time": 96, "note": 70, "velocity": 116, "channel": 0}, {"type": "note_on", "time": 14, "note": 69, "velocity": 110, "channel": 0}, {"type": "note_off", "time": 60, "note": 69, "velocity": 110, "channel": 0}, {"type": "note_on", "time": 7, "note": 65, "velocity": 89, "channel": 0}, {"type": "note_off", "time": 42, "note": 65, "velocity": 89, "channel": 0}, {"type": "note_on", "time": 6, "note": 66, "velocity": 90, "channel": 0}, {"type": "note_off", "time": 43, "note": 66, "velocity": 90, "channel": 0}, {"type": "note_on", "time": 1, "note": 67, "velocity": 109, "channel": 0}, {"type": "note_off", "time": 103, "note": 67, "velocity": 109, "channel": 0}, {"type": "note_on", "time": 14, "note": 63, "velocity": 97, "channel": 0}, {"type": "note_off", "time": 82, "note": 63, "velocity": 97, "channel": 0}, {"type": "note_on", "time": 21, "note": 60, "velocity": 94, "channel": 0}, {"type": "note_off", "time": 58, "note": 60, "velocity": 94, "channel": 0}, {"type": "note_on", "time": 13, "note": 58, "velocity": 90, "channel": 0}, {"type": "note_off", "time": 50, "note": 58, "velocity": 90, "channel": 0}, {"type": "note_on", "time": 45, "note": 62, "velocity": 96, "channel": 0}, {"type": "note_off", "time": 62, "note": 62, "velocity": 96, "channel": 0}, {"type": "note_on", "time": 19, "note": 63, "velocity": 95, "channel": 0}, {"type": "note_off", "time": 63, "note": 63, "velocity": 95, "channel": 0}, {"type": "note_on", "time": 25, "note": 64, "velocity": 93, "channel": 0}, {"type": "note_off", "time": 64, "note": 64, "velocity": 93, "channel": 0}, {"type": "note_on", "time": 47, "note": 64, "velocity": 94, "channel": 0}, {"type": "note_off", "time": 112, "note": 64, "velocity": 94, "channel": 0}, {"type": "note_on", "time": 41, "note": 65, "velocity": 103, "channel": 0}, {"type": "note_off", "time": 78, "note": 65, "velocity": 103, "channel": 0}, {"type": "note_on", "time": 48, "note": 62, "velocity": 89, "channel": 0}, {"type": "note_off", "time": 47, "note": 62, "velocity": 89, "channel": 0}, {"type": "note_on", "time": 19, "note": 58, "velocity": 94, "channel": 0}, {"type": "note_off", "time": 62, "note": 58, "velocity": 94, "channel": 0}, {"type": "note_on", "time": 21, "note": 63, "velocity": 100, "channel": 0}, {"type": "note_off", "time": 59, "note": 63, "velocity": 100, "channel": 0}, {"type": "note_on", "time": 88, "note": 70, "velocity": 109, "channel": 0}, {"type": "note_off", "time": 126, "note": 70, "velocity": 109, "channel": 0}, {"type": "note_on", "time": 10, "note": 73, "velocity": 111, "channel": 0}, {"type": "note_off", "time": 78, "note": 73, "velocity": 111, "channel": 0}, {"type": "note_on", "time": 16, "note": 74, "velocity": 114, "channel": 0}, {"type": "note_off", "time": 95, "note": 74, "velocity": 114, "channel": 0}, {"type": "note_on", "time": 14, "note": 76, "velocity": 115, "channel": 0}, {"type": "note_off", "time": 57, "note": 76, "velocity": 115, "channel": 0}, {"type": "note_on", "time": 11, "note": 77, "velocity": 116, "channel": 0}, {"type": "note_off", "time": 53, "note": 77, "velocity": 116, "channel": 0}, {"type": "note_on", "time": 11, "note": 78, "velocity": 113, "channel": 0}, {"type": "note_off", "time": 71, "note": 78, "velocity": 113, "channel": 0}, {"type": "note_on", "time": 32, "note": 76, "velocity": 106, "channel": 0}, {"type": "note_off", "time": 141, "note": 76, "velocity": 106, "channel": 0}, {"type": "note_on", "time": 548, "note": 72, "velocity": 111, "channel": 0}, {"type": "note_off", "time": 274, "note": 72, "velocity": 111, "channel": 0}, {"type": "note_on", "time": 4, "note": 69, "velocity": 103, "channel": 0}, {"type": "note_off", "time": 116, "note": 69, "velocity": 103, "channel": 0}, {"type": "note_on", "time": 9, "note": 65, "velocity": 94, "channel": 0}, {"type": "note_off", "time": 250, "note": 65, "velocity": 94, "channel": 0}, {"type": "note_on", "time": 1140, "note": 70, "velocity": 116, "channel": 0}, {"type": "note_off", "time": 978, "note": 70, "velocity": 116, "channel": 0}, {"type": "note_on", "time": 46, "note": 65, "velocity": 94, "channel": 0}, {"type": "note_off", "time": 137, "note": 65, "velocity": 94, "channel": 0}, {"type": "note_on", "time": 62, "note": 65, "velocity": 89, "channel": 0}, {"type": "note_off", "time": 96, "note": 65, "velocity": 89, "channel": 0}, {"type": "note_on", "time": 16, "note": 58, "velocity": 74, "channel": 0}, {"type": "note_off", "time": 71, "note": 58, "velocity": 74, "channel": 0}, {"type": "note_on", "time": 13, "note": 63, "velocity": 90, "channel": 0}, {"type": "note_off", "time": 78, "note": 63, "velocity": 90, "channel": 0}, {"type": "note_on", "time": 12, "note": 58, "velocity": 85, "channel": 0}, {"type": "note_off", "time": 49, "note": 58, "velocity": 85, "channel": 0}, {"type": "note_on", "time": 18, "note": 61, "velocity": 84, "channel": 0}, {"type": "note_off", "time": 128, "note": 61, "velocity": 84, "channel": 0}, {"type": "note_on", "time": 15, "note": 58, "velocity": 92, "channel": 0}, {"type": "note_off", "time": 53, "note": 58, "velocity": 92, "channel": 0}, {"type": "note_on", "time": 956, "note": 62, "velocity": 102, "channel": 0}, {"type": "note_off", "time": 106, "note": 62, "velocity": 102, "channel": 0}, {"type": "note_on", "time": 12, "note": 63, "velocity": 98, "channel": 0}, {"type": "note_off", "time": 81, "note": 63, "velocity": 98, "channel": 0}, {"type": "note_on", "time": 22, "note": 65, "velocity": 109, "channel": 0}, {"type": "note_off", "time": 309, "note": 65, "velocity": 109, "channel": 0}, {"type": "note_on", "time": 90, "note": 62, "velocity": 98, "channel": 0}, {"type": "note_off", "time": 134, "note": 62, "velocity": 98, "channel": 0}, {"type": "note_on", "time": 625, "note": 63, "velocity": 106, "channel": 0}, {"type": "note_off", "time": 113, "note": 63, "velocity": 106, "channel": 0}, {"type": "note_on", "time": 9, "note": 62, "velocity": 95, "channel": 0}, {"type": "note_off", "time": 75, "note": 62, "velocity": 95, "channel": 0}, {"type": "note_on", "time": 6, "note": 63, "velocity": 101, "channel": 0}, {"type": "note_off", "time": 79, "note": 63, "velocity": 101, "channel": 0}, {"type": "note_on", "time": 54, "note": 67, "velocity": 95, "channel": 0}, {"type": "note_off", "time": 54, "note": 67, "velocity": 95, "channel": 0}, {"type": "note_on", "time": 6, "note": 70, "velocity": 114, "channel": 0}, {"type": "note_off", "time": 106, "note": 70, "velocity": 114, "channel": 0}, {"type": "note_on", "time": 9, "note": 71, "velocity": 114, "channel": 0}, {"type": "note_off", "time": 84, "note": 71, "velocity": 114, "channel": 0}, {"type": "note_on", "time": 8, "note": 72, "velocity": 92, "channel": 0}, {"type": "note_off", "time": 88, "note": 72, "velocity": 92, "channel": 0}, {"type": "note_on", "time": 10, "note": 69, "velocity": 112, "channel": 0}, {"type": "note_off", "time": 102, "note": 69, "velocity": 112, "channel": 0}, {"type": "note_on", "time": 101, "note": 67, "velocity": 104, "channel": 0}, {"type": "note_off", "time": 71, "note": 67, "velocity": 104, "channel": 0}, {"type": "note_on", "time": 13, "note": 63, "velocity": 87, "channel": 0}, {"type": "note_off", "time": 82, "note": 63, "velocity": 87, "channel": 0}, {"type": "note_on", "time": 14, "note": 65, "velocity": 77, "channel": 0}, {"type": "note_off", "time": 57, "note": 65, "velocity": 77, "channel": 0}, {"type": "note_on", "time": 54, "note": 69, "velocity": 96, "channel": 0}, {"type": "note_off", "time": 98, "note": 69, "velocity": 96, "channel": 0}, {"type": "note_on", "time": 442, "note": 68, "velocity": 116, "channel": 0}, {"type": "note_off", "time": 138, "note": 68, "velocity": 116, "channel": 0}, {"type": "note_on", "time": 12, "note": 67, "velocity": 107, "channel": 0}, {"type": "note_off", "time": 92, "note": 67, "velocity": 107, "channel": 0}, {"type": "note_on", "time": 101, "note": 65, "velocity": 105, "channel": 0}, {"type": "note_off", "time": 73, "note": 65, "velocity": 105, "channel": 0}, {"type": "note_on", "time": 14, "note": 63, "velocity": 99, "channel": 0}, {"type": "note_off", "time": 66, "note": 63, "velocity": 99, "channel": 0}, {"type": "note_on", "time": 10, "note": 58, "velocity": 104, "channel": 0}, {"type": "note_off", "time": 77, "note": 58, "velocity": 104, "channel": 0}, {"type": "note_on", "time": 11, "note": 61, "velocity": 95, "channel": 0}, {"type": "note_off", "time": 81, "note": 61, "velocity": 95, "channel": 0}, {"type": "note_on", "time": 106, "note": 65, "velocity": 107, "channel": 0}, {"type": "note_off", "time": 58, "note": 65, "velocity": 107, "channel": 0}, {"type": "note_on", "time": 14, "note": 66, "velocity": 109, "channel": 0}, {"type": "note_off", "time": 87, "note": 66, "velocity": 109, "channel": 0}, {"type": "note_on", "time": 9, "note": 67, "velocity": 106, "channel": 0}, {"type": "note_off", "time": 63, "note": 67, "velocity": 106, "channel": 0}, {"type": "note_on", "time": 460, "note": 65, "velocity": 116, "channel": 0}, {"type": "note_off", "time": 82, "note": 65, "velocity": 116, "channel": 0}, {"type": "note_on", "time": 9, "note": 63, "velocity": 107, "channel": 0}, {"type": "note_off", "time": 73, "note": 63, "velocity": 107, "channel": 0}, {"type": "note_on", "time": 52, "note": 58, "velocity": 108, "channel": 0}, {"type": "note_off", "time": 71, "note": 58, "velocity": 108, "channel": 0}, {"type": "note_on", "time": 29, "note": 61, "velocity": 87, "channel": 0}, {"type": "note_off", "time": 115, "note": 61, "velocity": 87, "channel": 0}, {"type": "note_on", "time": 1034, "note": 52, "velocity": 109, "channel": 0}, {"type": "note_off", "time": 77, "note": 52, "velocity": 109, "channel": 0}, {"type": "note_on", "time": 2, "note": 54, "velocity": 108, "channel": 0}, {"type": "note_off", "time": 98, "note": 54, "velocity": 108, "channel": 0}, {"type": "note_on", "time": 17, "note": 58, "velocity": 113, "channel": 0}, {"type": "note_off", "time": 93, "note": 58, "velocity": 113, "channel": 0}, {"type": "note_on", "time": 13, "note": 60, "velocity": 115, "channel": 0}, {"type": "note_off", "time": 82, "note": 60, "velocity": 115, "channel": 0}, {"type": "note_on", "time": 11, "note": 61, "velocity": 111, "channel": 0}, {"type": "note_off", "time": 74, "note": 61, "velocity": 111, "channel": 0}, {"type": "note_on", "time": 30, "note": 62, "velocity": 105, "channel": 0}, {"type": "note_off", "time": 50, "note": 62, "velocity": 105, "channel": 0}, {"type": "note_on", "time": 14, "note": 62, "velocity": 112, "channel": 0}, {"type": "note_off", "time": 52, "note": 62, "velocity": 112, "channel": 0}, {"type": "note_on", "time": 5, "note": 63, "velocity": 104, "channel": 0}, {"type": "note_off", "time": 85, "note": 63, "velocity": 104, "channel": 0}, {"type": "note_on", "time": 24, "note": 64, "velocity": 102, "channel": 0}, {"type": "note_off", "time": 42, "note": 64, "velocity": 102, "channel": 0}, {"type": "note_on", "time": 22, "note": 65, "velocity": 113, "channel": 0}, {"type": "note_off", "time": 62, "note": 65, "velocity": 113, "channel": 0}, {"type": "note_on", "time": 28, "note": 67, "velocity": 110, "channel": 0}, {"type": "note_off", "time": 81, "note": 67, "velocity": 110, "channel": 0}, {"type": "note_on", "time": 14, "note": 68, "velocity": 116, "channel": 0}, {"type": "note_off", "time": 97, "note": 68, "velocity": 116, "channel": 0}, {"type": "note_on", "time": 10, "note": 67, "velocity": 114, "channel": 0}, {"type": "note_off", "time": 93, "note": 67, "velocity": 114, "channel": 0}, {"type": "note_on", "time": 18, "note": 65, "velocity": 102, "channel": 0}, {"type": "note_off", "time": 88, "note": 65, "velocity": 102, "channel": 0}, {"type": "note_on", "time": 4, "note": 63, "velocity": 101, "channel": 0}, {"type": "note_off", "time": 64, "note": 63, "velocity": 101, "channel": 0}, {"type": "note_on", "time": 18, "note": 60, "velocity": 100, "channel": 0}, {"type": "note_off", "time": 103, "note": 60, "velocity": 100, "channel": 0}, {"type": "note_on", "time": 16, "note": 61, "velocity": 95, "channel": 0}, {"type": "note_off", "time": 70, "note": 61, "velocity": 95, "channel": 0}, {"type": "note_on", "time": 15, "note": 62, "velocity": 100, "channel": 0}, {"type": "note_off", "time": 75, "note": 62, "velocity": 100, "channel": 0}, {"type": "note_on", "time": 50, "note": 67, "velocity": 115, "channel": 0}, {"type": "note_off", "time": 92, "note": 67, "velocity": 115, "channel": 0}, {"type": "note_on", "time": 10, "note": 64, "velocity": 94, "channel": 0}, {"type": "note_off", "time": 42, "note": 64, "velocity": 94, "channel": 0}, {"type": "note_on", "time": 11, "note": 62, "velocity": 95, "channel": 0}, {"type": "note_off", "time": 39, "note": 62, "velocity": 95, "channel": 0}, {"type": "note_on", "time": 16, "note": 60, "velocity": 94, "channel": 0}, {"type": "note_off", "time": 39, "note": 60, "velocity": 94, "channel": 0}, {"type": "note_on", "time": 14, "note": 70, "velocity": 105, "channel": 0}, {"type": "note_off", "time": 142, "note": 70, "velocity": 105, "channel": 0}, {"type": "note_on", "time": 7, "note": 68, "velocity": 106, "channel": 0}, {"type": "note_off", "time": 88, "note": 68, "velocity": 106, "channel": 0}, {"type": "note_on", "time": 45, "note": 69, "velocity": 114, "channel": 0}, {"type": "note_off", "time": 53, "note": 69, "velocity": 114, "channel": 0}, {"type": "note_on", "time": 165, "note": 68, "velocity": 110, "channel": 0}, {"type": "note_off", "time": 118, "note": 68, "velocity": 110, "channel": 0}, {"type": "note_on", "time": 345, "note": 66, "velocity": 109, "channel": 0}, {"type": "note_off", "time": 51, "note": 66, "velocity": 109, "channel": 0}, {"type": "note_on", "time": 12, "note": 67, "velocity": 111, "channel": 0}, {"type": "note_off", "time": 49, "note": 67, "velocity": 111, "channel": 0}, {"type": "note_on", "time": 7, "note": 68, "velocity": 121, "channel": 0}, {"type": "note_off", "time": 74, "note": 68, "velocity": 121, "channel": 0}, {"type": "note_on", "time": 11, "note": 69, "velocity": 117, "channel": 0}, {"type": "note_off", "time": 87, "note": 69, "velocity": 117, "channel": 0}, {"type": "note_on", "time": 7, "note": 70, "velocity": 113, "channel": 0}, {"type": "note_off", "time": 76, "note": 70, "velocity": 113, "channel": 0}, {"type": "note_on", "time": 5, "note": 72, "velocity": 106, "channel": 0}, {"type": "note_off", "time": 64, "note": 72, "velocity": 106, "channel": 0}, {"type": "note_on", "time": 9, "note": 73, "velocity": 107, "channel": 0}, {"type": "note_off", "time": 59, "note": 73, "velocity": 107, "channel": 0}, {"type": "note_on", "time": 6, "note": 75, "velocity": 113, "channel": 0}, {"type": "note_off", "time": 81, "note": 75, "velocity": 113, "channel": 0}, {"type": "note_on", "time": 8, "note": 76, "velocity": 109, "channel": 0}, {"type": "note_off", "time": 82, "note": 76, "velocity": 109, "channel": 0}, {"type": "note_on", "time": 18, "note": 67, "velocity": 116, "channel": 0}, {"type": "note_off", "time": 100, "note": 67, "velocity": 116, "channel": 0}, {"type": "note_on", "time": 8, "note": 62, "velocity": 90, "channel": 0}, {"type": "note_off", "time": 47, "note": 62, "velocity": 90, "channel": 0}, {"type": "note_on", "time": 35, "note": 60, "velocity": 95, "channel": 0}, {"type": "note_off", "time": 37, "note": 60, "velocity": 95, "channel": 0}, {"type": "note_on", "time": 7, "note": 63, "velocity": 89, "channel": 0}, {"type": "note_off", "time": 33, "note": 63, "velocity": 89, "channel": 0}, {"type": "note_on", "time": 23, "note": 66, "velocity": 100, "channel": 0}, {"type": "note_off", "time": 102, "note": 66, "velocity": 100, "channel": 0}, {"type": "note_on", "time": 282, "note": 53, "velocity": 108, "channel": 0}, {"type": "note_off", "time": 120, "note": 53, "velocity": 108, "channel": 0}, {"type": "note_on", "time": 546, "note": 67, "velocity": 113, "channel": 0}, {"type": "note_off", "time": 123, "note": 67, "velocity": 113, "channel": 0}, {"type": "note_on", "time": 80, "note": 71, "velocity": 114, "channel": 0}, {"type": "note_off", "time": 108, "note": 71, "velocity": 114, "channel": 0}, {"type": "note_on", "time": 56, "note": 67, "velocity": 119, "channel": 0}, {"type": "note_off", "time": 98, "note": 67, "velocity": 119, "channel": 0}, {"type": "note_on", "time": 11, "note": 66, "velocity": 103, "channel": 0}, {"type": "note_off", "time": 171, "note": 66, "velocity": 103, "channel": 0}, {"type": "note_on", "time": 14, "note": 69, "velocity": 114, "channel": 0}, {"type": "note_off", "time": 99, "note": 69, "velocity": 114, "channel": 0}, {"type": "note_on", "time": 9, "note": 65, "velocity": 107, "channel": 0}, {"type": "note_off", "time": 87, "note": 65, "velocity": 107, "channel": 0}, {"type": "note_on", "time": 9, "note": 64, "velocity": 99, "channel": 0}, {"type": "note_off", "time": 110, "note": 64, "velocity": 99, "channel": 0}, {"type": "note_on", "time": 15, "note": 65, "velocity": 112, "channel": 0}, {"type": "note_off", "time": 65, "note": 65, "velocity": 112, "channel": 0}, {"type": "note_on", "time": 21, "note": 63, "velocity": 101, "channel": 0}, {"type": "note_off", "time": 56, "note": 63, "velocity": 101, "channel": 0}, {"type": "note_on", "time": 27, "note": 60, "velocity": 99, "channel": 0}, {"type": "note_off", "time": 76, "note": 60, "velocity": 99, "channel": 0}, {"type": "note_on", "time": 12, "note": 61, "velocity": 92, "channel": 0}, {"type": "note_off", "time": 107, "note": 61, "velocity": 92, "channel": 0}, {"type": "note_on", "time": 14, "note": 65, "velocity": 107, "channel": 0}, {"type": "note_off", "time": 68, "note": 65, "velocity": 107, "channel": 0}, {"type": "note_on", "time": 8, "note": 61, "velocity": 85, "channel": 0}, {"type": "note_off", "time": 66, "note": 61, "velocity": 85, "channel": 0}, {"type": "note_on", "time": 40, "note": 58, "velocity": 99, "channel": 0}, {"type": "note_off", "time": 59, "note": 58, "velocity": 99, "channel": 0}, {"type": "note_on", "time": 24, "note": 63, "velocity": 97, "channel": 0}, {"type": "note_off", "time": 85, "note": 63, "velocity": 97, "channel": 0}, {"type": "note_on", "time": 18, "note": 67, "velocity": 105, "channel": 0}, {"type": "note_off", "time": 68, "note": 67, "velocity": 105, "channel": 0}, {"type": "note_on", "time": 10, "note": 63, "velocity": 99, "channel": 0}, {"type": "note_off", "time": 82, "note": 63, "velocity": 99, "channel": 0}, {"type": "note_on", "time": 22, "note": 58, "velocity": 98, "channel": 0}, {"type": "note_off", "time": 85, "note": 58, "velocity": 98, "channel": 0}, {"type": "note_on", "time": 19, "note": 64, "velocity": 100, "channel": 0}, {"type": "note_off", "time": 85, "note": 64, "velocity": 100, "channel": 0}, {"type": "note_on", "time": 16, "note": 65, "velocity": 114, "channel": 0}, {"type": "note_off", "time": 84, "note": 65, "velocity": 114, "channel": 0}, {"type": "note_on", "time": 15, "note": 61, "velocity": 82, "channel": 0}, {"type": "note_off", "time": 84, "note": 61, "velocity": 82, "channel": 0}, {"type": "note_on", "time": 459, "note": 63, "velocity": 108, "channel": 0}, {"type": "note_off", "time": 116, "note": 63, "velocity": 108, "channel": 0}, {"type": "note_on", "time": 11, "note": 65, "velocity": 113, "channel": 0}, {"type": "note_off", "time": 78, "note": 65, "velocity": 113, "channel": 0}, {"type": "note_on", "time": 18, "note": 61, "velocity": 100, "channel": 0}, {"type": "note_off", "time": 72, "note": 61, "velocity": 100, "channel": 0}, {"type": "note_on", "time": 13, "note": 65, "velocity": 104, "channel": 0}, {"type": "note_off", "time": 55, "note": 65, "velocity": 104, "channel": 0}, {"type": "note_on", "time": 12, "note": 70, "velocity": 118, "channel": 0}, {"type": "note_off", "time": 52, "note": 70, "velocity": 118, "channel": 0}, {"type": "note_on", "time": 14, "note": 69, "velocity": 112, "channel": 0}, {"type": "note_off", "time": 64, "note": 69, "velocity": 112, "channel": 0}, {"type": "note_on", "time": 8, "note": 71, "velocity": 116, "channel": 0}, {"type": "note_off", "time": 127, "note": 71, "velocity": 116, "channel": 0}, {"type": "note_on", "time": 67, "note": 70, "velocity": 116, "channel": 0}, {"type": "note_off", "time": 112, "note": 70, "velocity": 116, "channel": 0}, {"type": "note_on", "time": 91, "note": 65, "velocity": 108, "channel": 0}, {"type": "note_off", "time": 108, "note": 65, "velocity": 108, "channel": 0}, {"type": "note_on", "time": 6, "note": 63, "velocity": 91, "channel": 0}, {"type": "note_off", "time": 105, "note": 63, "velocity": 91, "channel": 0}, {"type": "note_on", "time": 5, "note": 58, "velocity": 91, "channel": 0}, {"type": "note_off", "time": 50, "note": 58, "velocity": 91, "channel": 0}, {"type": "note_on", "time": 17, "note": 61, "velocity": 87, "channel": 0}, {"type": "note_off", "time": 106, "note": 61, "velocity": 87, "channel": 0}, {"type": "note_on", "time": 599, "note": 66, "velocity": 114, "channel": 0}, {"type": "note_off", "time": 47, "note": 66, "velocity": 114, "channel": 0}, {"type": "note_on", "time": 21, "note": 67, "velocity": 114, "channel": 0}, {"type": "note_off", "time": 293, "note": 67, "velocity": 114, "channel": 0}, {"type": "note_on", "time": 21, "note": 68, "velocity": 118, "channel": 0}, {"type": "note_off", "time": 345, "note": 68, "velocity": 118, "channel": 0}, {"type": "note_on", "time": 42, "note": 65, "velocity": 97, "channel": 0}, {"type": "note_off", "time": 75, "note": 65, "velocity": 97, "channel": 0}, {"type": "note_on", "time": 875, "note": 67, "velocity": 124, "channel": 0}, {"type": "note_off", "time": 78, "note": 67, "velocity": 124, "channel": 0}, {"type": "note_on", "time": 16, "note": 68, "velocity": 117, "channel": 0}, {"type": "note_off", "time": 112, "note": 68, "velocity": 117, "channel": 0}, {"type": "note_on", "time": 57, "note": 64, "velocity": 94, "channel": 0}, {"type": "note_off", "time": 115, "note": 64, "velocity": 94, "channel": 0}, {"type": "note_on", "time": 92, "note": 63, "velocity": 94, "channel": 0}, {"type": "note_off", "time": 107, "note": 63, "velocity": 94, "channel": 0}, {"type": "note_on", "time": 95, "note": 61, "velocity": 85, "channel": 0}, {"type": "note_off", "time": 136, "note": 61, "velocity": 85, "channel": 0}, {"type": "note_on", "time": 66, "note": 61, "velocity": 87, "channel": 0}, {"type": "note_off", "time": 62, "note": 61, "velocity": 87, "channel": 0}, {"type": "note_on", "time": 43, "note": 63, "velocity": 95, "channel": 0}, {"type": "note_off", "time": 87, "note": 63, "velocity": 95, "channel": 0}, {"type": "note_on", "time": 228, "note": 58, "velocity": 84, "channel": 0}, {"type": "note_off", "time": 71, "note": 58, "velocity": 84, "channel": 0}, {"type": "note_on", "time": 11, "note": 61, "velocity": 88, "channel": 0}, {"type": "note_off", "time": 81, "note": 61, "velocity": 88, "channel": 0}, {"type": "note_on", "time": 19, "note": 62, "velocity": 94, "channel": 0}, {"type": "note_off", "time": 57, "note": 62, "velocity": 94, "channel": 0}, {"type": "note_on", "time": 11, "note": 63, "velocity": 104, "channel": 0}, {"type": "note_off", "time": 96, "note": 63, "velocity": 104, "channel": 0}, {"type": "note_on", "time": 19, "note": 64, "velocity": 96, "channel": 0}, {"type": "note_off", "time": 80, "note": 64, "velocity": 96, "channel": 0}, {"type": "note_on", "time": 12, "note": 65, "velocity": 113, "channel": 0}, {"type": "note_off", "time": 88, "note": 65, "velocity": 113, "channel": 0}, {"type": "note_on", "time": 6, "note": 67, "velocity": 118, "channel": 0}, {"type": "note_off", "time": 104, "note": 67, "velocity": 118, "channel": 0}, {"type": "note_on", "time": 15, "note": 71, "velocity": 100, "channel": 0}, {"type": "note_off", "time": 43, "note": 71, "velocity": 100, "channel": 0}, {"type": "note_on", "time": 21, "note": 68, "velocity": 109, "channel": 0}, {"type": "note_off", "time": 107, "note": 68, "velocity": 109, "channel": 0}, {"type": "note_on", "time": 26, "note": 69, "velocity": 93, "channel": 0}, {"type": "note_off", "time": 42, "note": 69, "velocity": 93, "channel": 0}, {"type": "note_on", "time": 1180, "note": 68, "velocity": 115, "channel": 0}, {"type": "note_off", "time": 121, "note": 68, "velocity": 115, "channel": 0}, {"type": "note_on", "time": 15, "note": 70, "velocity": 106, "channel": 0}, {"type": "note_off", "time": 50, "note": 70, "velocity": 106, "channel": 0}, {"type": "note_on", "time": 5, "note": 71, "velocity": 106, "channel": 0}, {"type": "note_off", "time": 123, "note": 71, "velocity": 106, "channel": 0}, {"type": "note_on", "time": 17, "note": 73, "velocity": 109, "channel": 0}, {"type": "note_off", "time": 50, "note": 73, "velocity": 109, "channel": 0}, {"type": "note_on", "time": 26, "note": 73, "velocity": 115, "channel": 0}, {"type": "note_off", "time": 61, "note": 73, "velocity": 115, "channel": 0}, {"type": "note_on", "time": 6, "note": 75, "velocity": 111, "channel": 0}, {"type": "note_off", "time": 69, "note": 75, "velocity": 111, "channel": 0}, {"type": "note_on", "time": 9, "note": 76, "velocity": 115, "channel": 0}, {"type": "note_off", "time": 63, "note": 76, "velocity": 115, "channel": 0}, {"type": "note_on", "time": 18, "note": 75, "velocity": 9, "channel": 0}, {"type": "note_off", "time": 80, "note": 75, "velocity": 9, "channel": 0}, {"type": "note_on", "time": 14, "note": 72, "velocity": 98, "channel": 0}, {"type": "note_off", "time": 66, "note": 72, "velocity": 98, "channel": 0}, {"type": "note_on", "time": 38, "note": 73, "velocity": 110, "channel": 0}, {"type": "note_off", "time": 62, "note": 73, "velocity": 110, "channel": 0}, {"type": "note_on", "time": 36, "note": 70, "velocity": 108, "channel": 0}, {"type": "note_off", "time": 59, "note": 70, "velocity": 108, "channel": 0}, {"type": "note_on", "time": 10, "note": 68, "velocity": 111, "channel": 0}, {"type": "note_off", "time": 96, "note": 68, "velocity": 111, "channel": 0}, {"type": "note_on", "time": 31, "note": 63, "velocity": 94, "channel": 0}, {"type": "note_off", "time": 49, "note": 63, "velocity": 94, "channel": 0}, {"type": "note_on", "time": 15, "note": 71, "velocity": 105, "channel": 0}, {"type": "note_off", "time": 82, "note": 71, "velocity": 105, "channel": 0}, {"type": "note_on", "time": 11, "note": 72, "velocity": 107, "channel": 0}, {"type": "note_off", "time": 40, "note": 72, "velocity": 107, "channel": 0}, {"type": "note_on", "time": 16, "note": 71, "velocity": 109, "channel": 0}, {"type": "note_off", "time": 26, "note": 71, "velocity": 109, "channel": 0}, {"type": "note_on", "time": 17, "note": 68, "velocity": 110, "channel": 0}, {"type": "note_off", "time": 81, "note": 68, "velocity": 110, "channel": 0}, {"type": "note_on", "time": 21, "note": 66, "velocity": 95, "channel": 0}, {"type": "note_off", "time": 62, "note": 66, "velocity": 95, "channel": 0}, {"type": "note_on", "time": 10, "note": 68, "velocity": 112, "channel": 0}, {"type": "note_off", "time": 112, "note": 68, "velocity": 112, "channel": 0}, {"type": "note_on", "time": 22, "note": 70, "velocity": 98, "channel": 0}, {"type": "note_off", "time": 187, "note": 70, "velocity": 98, "channel": 0}, {"type": "note_on", "time": 1131, "note": 79, "velocity": 107, "channel": 0}, {"type": "note_off", "time": 659, "note": 79, "velocity": 107, "channel": 0}, {"type": "note_on", "time": 11, "note": 76, "velocity": 104, "channel": 0}, {"type": "note_off", "time": 92, "note": 76, "velocity": 104, "channel": 0}, {"type": "note_on", "time": 20, "note": 74, "velocity": 109, "channel": 0}, {"type": "note_off", "time": 103, "note": 74, "velocity": 109, "channel": 0}, {"type": "note_on", "time": 23, "note": 74, "velocity": 108, "channel": 0}, {"type": "note_off", "time": 61, "note": 74, "velocity": 108, "channel": 0}, {"type": "note_on", "time": 22, "note": 73, "velocity": 98, "channel": 0}, {"type": "note_off", "time": 66, "note": 73, "velocity": 98, "channel": 0}, {"type": "note_on", "time": 11, "note": 72, "velocity": 111, "channel": 0}, {"type": "note_off", "time": 97, "note": 72, "velocity": 111, "channel": 0}, {"type": "note_on", "time": 21, "note": 71, "velocity": 108, "channel": 0}, {"type": "note_off", "time": 104, "note": 71, "velocity": 108, "channel": 0}, {"type": "note_on", "time": 6, "note": 70, "velocity": 106, "channel": 0}, {"type": "note_off", "time": 43, "note": 70, "velocity": 106, "channel": 0}, {"type": "note_on", "time": 16, "note": 65, "velocity": 102, "channel": 0}, {"type": "note_off", "time": 99, "note": 65, "velocity": 102, "channel": 0}, {"type": "note_on", "time": 117, "note": 60, "velocity": 92, "channel": 0}, {"type": "note_off", "time": 63, "note": 60, "velocity": 92, "channel": 0}, {"type": "note_on", "time": 19, "note": 69, "velocity": 97, "channel": 0}, {"type": "note_off", "time": 88, "note": 69, "velocity": 97, "channel": 0}, {"type": "note_on", "time": 68, "note": 68, "velocity": 108, "channel": 0}, {"type": "note_off", "time": 114, "note": 68, "velocity": 108, "channel": 0}, {"type": "note_on", "time": 31, "note": 66, "velocity": 94, "channel": 0}, {"type": "note_off", "time": 44, "note": 66, "velocity": 94, "channel": 0}, {"type": "note_on", "time": 12, "note": 67, "velocity": 99, "channel": 0}, {"type": "note_off", "time": 75, "note": 67, "velocity": 99, "channel": 0}, {"type": "note_on", "time": 29, "note": 63, "velocity": 94, "channel": 0}, {"type": "note_off", "time": 82, "note": 63, "velocity": 94, "channel": 0}, {"type": "note_on", "time": 16, "note": 60, "velocity": 98, "channel": 0}, {"type": "note_off", "time": 87, "note": 60, "velocity": 98, "channel": 0}, {"type": "note_on", "time": 16, "note": 59, "velocity": 102, "channel": 0}, {"type": "note_off", "time": 72, "note": 59, "velocity": 102, "channel": 0}, {"type": "note_on", "time": 12, "note": 58, "velocity": 96, "channel": 0}, {"type": "note_off", "time": 116, "note": 58, "velocity": 96, "channel": 0}, {"type": "note_on", "time": 423, "note": 74, "velocity": 112, "channel": 0}, {"type": "note_off", "time": 1166, "note": 74, "velocity": 112, "channel": 0}, {"type": "note_on", "time": 12, "note": 75, "velocity": 107, "channel": 0}, {"type": "note_off", "time": 146, "note": 75, "velocity": 107, "channel": 0}, {"type": "note_on", "time": 730, "note": 71, "velocity": 111, "channel": 0}, {"type": "note_off", "time": 88, "note": 71, "velocity": 111, "channel": 0}, {"type": "note_on", "time": 11, "note": 70, "velocity": 116, "channel": 0}, {"type": "note_off", "time": 91, "note": 70, "velocity": 116, "channel": 0}, {"type": "note_on", "time": 11, "note": 69, "velocity": 106, "channel": 0}, {"type": "note_off", "time": 123, "note": 69, "velocity": 106, "channel": 0}, {"type": "note_on", "time": 845, "note": 59, "velocity": 112, "channel": 0}, {"type": "note_off", "time": 365, "note": 59, "velocity": 112, "channel": 0}, {"type": "note_on", "time": 12, "note": 71, "velocity": 108, "channel": 0}, {"type": "note_off", "time": 61, "note": 71, "velocity": 108, "channel": 0}, {"type": "note_on", "time": 27, "note": 69, "velocity": 101, "channel": 0}, {"type": "note_off", "time": 100, "note": 69, "velocity": 101, "channel": 0}, {"type": "note_on", "time": 969, "note": 62, "velocity": 83, "channel": 0}, {"type": "note_off", "time": 47, "note": 62, "velocity": 83, "channel": 0}, {"type": "note_on", "time": 16, "note": 74, "velocity": 107, "channel": 0}, {"type": "note_off", "time": 93, "note": 74, "velocity": 107, "channel": 0}, {"type": "note_on", "time": 6, "note": 72, "velocity": 97, "channel": 0}, {"type": "note_off", "time": 29, "note": 72, "velocity": 97, "channel": 0}, {"type": "note_on", "time": 0, "note": 64, "velocity": 93, "channel": 0}, {"type": "note_off", "time": 50, "note": 64, "velocity": 93, "channel": 0}, {"type": "note_on", "time": 17, "note": 68, "velocity": 88, "channel": 0}, {"type": "note_off", "time": 102, "note": 68, "velocity": 88, "channel": 0}, {"type": "note_on", "time": 30, "note": 64, "velocity": 82, "channel": 0}, {"type": "note_off", "time": 42, "note": 64, "velocity": 82, "channel": 0}, {"type": "note_on", "time": 25, "note": 70, "velocity": 91, "channel": 0}, {"type": "note_off", "time": 122, "note": 70, "velocity": 91, "channel": 0}, {"type": "note_on", "time": 0, "note": 64, "velocity": 89, "channel": 0}, {"type": "note_off", "time": 60, "note": 64, "velocity": 89, "channel": 0}, {"type": "note_on", "time": 30, "note": 71, "velocity": 110, "channel": 0}, {"type": "note_off", "time": 80, "note": 71, "velocity": 110, "channel": 0}, {"type": "note_on", "time": 19, "note": 64, "velocity": 88, "channel": 0}, {"type": "note_off", "time": 60, "note": 64, "velocity": 88, "channel": 0}, {"type": "note_on", "time": 14, "note": 69, "velocity": 107, "channel": 0}, {"type": "note_off", "time": 117, "note": 69, "velocity": 107, "channel": 0}, {"type": "note_on", "time": 17, "note": 68, "velocity": 107, "channel": 0}, {"type": "note_off", "time": 67, "note": 68, "velocity": 107, "channel": 0}, {"type": "note_on", "time": 88, "note": 76, "velocity": 110, "channel": 0}, {"type": "note_off", "time": 88, "note": 76, "velocity": 110, "channel": 0}, {"type": "note_on", "time": 108, "note": 67, "velocity": 114, "channel": 0}, {"type": "note_off", "time": 82, "note": 67, "velocity": 114, "channel": 0}, {"type": "note_on", "time": 16, "note": 63, "velocity": 94, "channel": 0}, {"type": "note_off", "time": 44, "note": 63, "velocity": 94, "channel": 0}, {"type": "note_on", "time": 54, "note": 60, "velocity": 96, "channel": 0}, {"type": "note_off", "time": 56, "note": 60, "velocity": 96, "channel": 0}, {"type": "note_on", "time": 20, "note": 67, "velocity": 108, "channel": 0}, {"type": "note_off", "time": 75, "note": 67, "velocity": 108, "channel": 0}, {"type": "note_on", "time": 53, "note": 63, "velocity": 91, "channel": 0}, {"type": "note_off", "time": 37, "note": 63, "velocity": 91, "channel": 0}, {"type": "note_on", "time": 28, "note": 66, "velocity": 100, "channel": 0}, {"type": "note_off", "time": 88, "note": 66, "velocity": 100, "channel": 0}, {"type": "note_on", "time": 30, "note": 63, "velocity": 83, "channel": 0}, {"type": "note_off", "time": 39, "note": 63, "velocity": 83, "channel": 0}, {"type": "note_on", "time": 16, "note": 65, "velocity": 111, "channel": 0}, {"type": "note_off", "time": 101, "note": 65, "velocity": 111, "channel": 0}, {"type": "note_on", "time": 37, "note": 63, "velocity": 94, "channel": 0}, {"type": "note_off", "time": 92, "note": 63, "velocity": 94, "channel": 0}, {"type": "note_on", "time": 21, "note": 63, "velocity": 96, "channel": 0}, {"type": "note_off", "time": 140, "note": 63, "velocity": 96, "channel": 0}, {"type": "note_on", "time": 93, "note": 74, "velocity": 115, "channel": 0}, {"type": "note_off", "time": 96, "note": 74, "velocity": 115, "channel": 0}, {"type": "note_on", "time": 94, "note": 62, "velocity": 96, "channel": 0}, {"type": "note_off", "time": 92, "note": 62, "velocity": 96, "channel": 0}, {"type": "note_on", "time": 81, "note": 62, "velocity": 93, "channel": 0}, {"type": "note_off", "time": 100, "note": 62, "velocity": 93, "channel": 0}, {"type": "note_on", "time": 107, "note": 65, "velocity": 86, "channel": 0}, {"type": "note_off", "time": 49, "note": 65, "velocity": 86, "channel": 0}, {"type": "note_on", "time": 35, "note": 76, "velocity": 105, "channel": 0}, {"type": "note_off", "time": 124, "note": 76, "velocity": 105, "channel": 0}, {"type": "note_on", "time": 571, "note": 67, "velocity": 98, "channel": 0}, {"type": "note_off", "time": 104, "note": 67, "velocity": 98, "channel": 0}, {"type": "note_on", "time": 80, "note": 76, "velocity": 113, "channel": 0}, {"type": "note_off", "time": 105, "note": 76, "velocity": 113, "channel": 0}, {"type": "note_on", "time": 88, "note": 67, "velocity": 91, "channel": 0}, {"type": "note_off", "time": 54, "note": 67, "velocity": 91, "channel": 0}, {"type": "note_on", "time": 18, "note": 74, "velocity": 115, "channel": 0}, {"type": "note_off", "time": 113, "note": 74, "velocity": 115, "channel": 0}, {"type": "note_on", "time": 82, "note": 66, "velocity": 108, "channel": 0}, {"type": "note_off", "time": 77, "note": 66, "velocity": 108, "channel": 0}, {"type": "note_on", "time": 19, "note": 63, "velocity": 91, "channel": 0}, {"type": "note_off", "time": 37, "note": 63, "velocity": 91, "channel": 0}, {"type": "note_on", "time": 33, "note": 65, "velocity": 105, "channel": 0}, {"type": "note_off", "time": 70, "note": 65, "velocity": 105, "channel": 0}, {"type": "note_on", "time": 59, "note": 62, "velocity": 108, "channel": 0}, {"type": "note_off", "time": 77, "note": 62, "velocity": 108, "channel": 0}, {"type": "note_on", "time": 22, "note": 72, "velocity": 102, "channel": 0}, {"type": "note_off", "time": 112, "note": 72, "velocity": 102, "channel": 0}, {"type": "note_on", "time": 10, "note": 69, "velocity": 94, "channel": 0}, {"type": "note_off", "time": 65, "note": 69, "velocity": 94, "channel": 0}, {"type": "note_on", "time": 10, "note": 70, "velocity": 109, "channel": 0}, {"type": "note_off", "time": 77, "note": 70, "velocity": 109, "channel": 0}, {"type": "note_on", "time": 256, "note": 62, "velocity": 88, "channel": 0}, {"type": "note_off", "time": 120, "note": 62, "velocity": 88, "channel": 0}, {"type": "note_on", "time": 43, "note": 65, "velocity": 107, "channel": 0}, {"type": "note_off", "time": 86, "note": 65, "velocity": 107, "channel": 0}, {"type": "note_on", "time": 15, "note": 62, "velocity": 91, "channel": 0}, {"type": "note_off", "time": 74, "note": 62, "velocity": 91, "channel": 0}, {"type": "note_on", "time": 19, "note": 58, "velocity": 92, "channel": 0}, {"type": "note_off", "time": 49, "note": 58, "velocity": 92, "channel": 0}, {"type": "note_on", "time": 35, "note": 63, "velocity": 100, "channel": 0}, {"type": "note_off", "time": 119, "note": 63, "velocity": 100, "channel": 0}, {"type": "note_on", "time": 182, "note": 67, "velocity": 113, "channel": 0}, {"type": "note_off", "time": 116, "note": 67, "velocity": 113, "channel": 0}, {"type": "note_on", "time": 63, "note": 72, "velocity": 113, "channel": 0}, {"type": "note_off", "time": 128, "note": 72, "velocity": 113, "channel": 0}, {"type": "note_on", "time": 7, "note": 68, "velocity": 86, "channel": 0}, {"type": "note_off", "time": 37, "note": 68, "velocity": 86, "channel": 0}, {"type": "note_on", "time": 17, "note": 66, "velocity": 83, "channel": 0}, {"type": "note_off", "time": 19, "note": 66, "velocity": 83, "channel": 0}, {"type": "note_on", "time": 18, "note": 63, "velocity": 91, "channel": 0}, {"type": "note_off", "time": 43, "note": 63, "velocity": 91, "channel": 0}, {"type": "note_on", "time": 14, "note": 70, "velocity": 108, "channel": 0}, {"type": "note_off", "time": 98, "note": 70, "velocity": 108, "channel": 0}, {"type": "note_on", "time": 84, "note": 65, "velocity": 112, "channel": 0}, {"type": "note_off", "time": 110, "note": 65, "velocity": 112, "channel": 0}, {"type": "note_on", "time": 8, "note": 62, "velocity": 83, "channel": 0}, {"type": "note_off", "time": 66, "note": 62, "velocity": 83, "channel": 0}, {"type": "note_on", "time": 141, "note": 65, "velocity": 113, "channel": 0}, {"type": "note_off", "time": 81, "note": 65, "velocity": 113, "channel": 0}, {"type": "note_on", "time": 22, "note": 62, "velocity": 89, "channel": 0}, {"type": "note_off", "time": 61, "note": 62, "velocity": 89, "channel": 0}, {"type": "note_on", "time": 17, "note": 58, "velocity": 92, "channel": 0}, {"type": "note_off", "time": 48, "note": 58, "velocity": 92, "channel": 0}, {"type": "note_on", "time": 19, "note": 63, "velocity": 104, "channel": 0}, {"type": "note_off", "time": 93, "note": 63, "velocity": 104, "channel": 0}, {"type": "note_on", "time": 185, "note": 63, "velocity": 93, "channel": 0}, {"type": "note_off", "time": 105, "note": 63, "velocity": 93, "channel": 0}, {"type": "note_on", "time": 81, "note": 72, "velocity": 106, "channel": 0}, {"type": "note_off", "time": 122, "note": 72, "velocity": 106, "channel": 0}, {"type": "note_on", "time": 9, "note": 69, "velocity": 89, "channel": 0}, {"type": "note_off", "time": 54, "note": 69, "velocity": 89, "channel": 0}, {"type": "note_on", "time": 10, "note": 67, "velocity": 99, "channel": 0}, {"type": "note_off", "time": 54, "note": 67, "velocity": 99, "channel": 0}, {"type": "note_on", "time": 18, "note": 70, "velocity": 114, "channel": 0}, {"type": "note_off", "time": 87, "note": 70, "velocity": 114, "channel": 0}, {"type": "note_on", "time": 218, "note": 62, "velocity": 92, "channel": 0}, {"type": "note_off", "time": 113, "note": 62, "velocity": 92, "channel": 0}, {"type": "note_on", "time": 45, "note": 65, "velocity": 113, "channel": 0}, {"type": "note_off", "time": 93, "note": 65, "velocity": 113, "channel": 0}, {"type": "note_on", "time": 11, "note": 62, "velocity": 90, "channel": 0}, {"type": "note_off", "time": 64, "note": 62, "velocity": 90, "channel": 0}, {"type": "note_on", "time": 23, "note": 58, "velocity": 93, "channel": 0}, {"type": "note_off", "time": 57, "note": 58, "velocity": 93, "channel": 0}, {"type": "note_on", "time": 22, "note": 63, "velocity": 104, "channel": 0}, {"type": "note_off", "time": 91, "note": 63, "velocity": 104, "channel": 0}, {"type": "note_on", "time": 237, "note": 67, "velocity": 99, "channel": 0}, {"type": "note_off", "time": 79, "note": 67, "velocity": 99, "channel": 0}, {"type": "note_on", "time": 99, "note": 71, "velocity": 110, "channel": 0}, {"type": "note_off", "time": 116, "note": 71, "velocity": 110, "channel": 0}, {"type": "note_on", "time": 18, "note": 69, "velocity": 95, "channel": 0}, {"type": "note_off", "time": 39, "note": 69, "velocity": 95, "channel": 0}, {"type": "note_on", "time": 16, "note": 67, "velocity": 99, "channel": 0}, {"type": "note_off", "time": 64, "note": 67, "velocity": 99, "channel": 0}, {"type": "note_on", "time": 9, "note": 70, "velocity": 106, "channel": 0}, {"type": "note_off", "time": 110, "note": 70, "velocity": 106, "channel": 0}, {"type": "note_on", "time": 275, "note": 61, "velocity": 94, "channel": 0}, {"type": "note_off", "time": 247, "note": 61, "velocity": 94, "channel": 0}, {"type": "note_on", "time": 34, "note": 68, "velocity": 112, "channel": 0}, {"type": "note_off", "time": 663, "note": 68, "velocity": 112, "channel": 0}, {"type": "note_on", "time": 341, "note": 67, "velocity": 120, "channel": 0}, {"type": "note_off", "time": 111, "note": 67, "velocity": 120, "channel": 0}, {"type": "note_on", "time": 26, "note": 68, "velocity": 114, "channel": 0}, {"type": "note_off", "time": 113, "note": 68, "velocity": 114, "channel": 0}, {"type": "note_on", "time": 3, "note": 67, "velocity": 110, "channel": 0}, {"type": "note_off", "time": 84, "note": 67, "velocity": 110, "channel": 0}, {"type": "note_on", "time": 16, "note": 65, "velocity": 109, "channel": 0}, {"type": "note_off", "time": 72, "note": 65, "velocity": 109, "channel": 0}, {"type": "note_on", "time": 17, "note": 63, "velocity": 101, "channel": 0}, {"type": "note_off", "time": 74, "note": 63, "velocity": 101, "channel": 0}, {"type": "note_on", "time": 32, "note": 58, "velocity": 100, "channel": 0}, {"type": "note_off", "time": 53, "note": 58, "velocity": 100, "channel": 0}, {"type": "note_on", "time": 29, "note": 66, "velocity": 105, "channel": 0}, {"type": "note_off", "time": 104, "note": 66, "velocity": 105, "channel": 0}, {"type": "note_on", "time": 28, "note": 71, "velocity": 105, "channel": 0}, {"type": "note_off", "time": 236, "note": 71, "velocity": 105, "channel": 0}, {"type": "note_on", "time": 1086, "note": 66, "velocity": 104, "channel": 0}, {"type": "note_off", "time": 153, "note": 66, "velocity": 104, "channel": 0}, {"type": "note_on", "time": 9, "note": 70, "velocity": 113, "channel": 0}, {"type": "note_off", "time": 68, "note": 70, "velocity": 113, "channel": 0}, {"type": "note_on", "time": 18, "note": 73, "velocity": 106, "channel": 0}, {"type": "note_off", "time": 98, "note": 73, "velocity": 106, "channel": 0}, {"type": "note_on", "time": 14, "note": 66, "velocity": 79, "channel": 0}, {"type": "note_off", "time": 51, "note": 66, "velocity": 79, "channel": 0}, {"type": "note_on", "time": 5, "note": 70, "velocity": 112, "channel": 0}, {"type": "note_off", "time": 131, "note": 70, "velocity": 112, "channel": 0}, {"type": "note_on", "time": 64, "note": 65, "velocity": 109, "channel": 0}, {"type": "note_off", "time": 109, "note": 65, "velocity": 109, "channel": 0}, {"type": "note_on", "time": 11, "note": 63, "velocity": 88, "channel": 0}, {"type": "note_off", "time": 65, "note": 63, "velocity": 88, "channel": 0}, {"type": "note_on", "time": 4, "note": 69, "velocity": 105, "channel": 0}, {"type": "note_off", "time": 148, "note": 69, "velocity": 105, "channel": 0}, {"type": "note_on", "time": 27, "note": 65, "velocity": 89, "channel": 0}, {"type": "note_off", "time": 49, "note": 65, "velocity": 89, "channel": 0}, {"type": "note_on", "time": 65, "note": 68, "velocity": 116, "channel": 0}, {"type": "note_off", "time": 148, "note": 68, "velocity": 116, "channel": 0}, {"type": "note_on", "time": 102, "note": 67, "velocity": 98, "channel": 0}, {"type": "note_off", "time": 243, "note": 67, "velocity": 98, "channel": 0}, {"type": "note_on", "time": 46, "note": 71, "velocity": 111, "channel": 0}, {"type": "note_off", "time": 45, "note": 71, "velocity": 111, "channel": 0}, {"type": "note_on", "time": 12, "note": 67, "velocity": 113, "channel": 0}, {"type": "note_off", "time": 103, "note": 67, "velocity": 113, "channel": 0}, {"type": "note_on", "time": 15, "note": 63, "velocity": 95, "channel": 0}, {"type": "note_off", "time": 83, "note": 63, "velocity": 95, "channel": 0}, {"type": "note_on", "time": 30, "note": 70, "velocity": 110, "channel": 0}, {"type": "note_off", "time": 93, "note": 70, "velocity": 110, "channel": 0}, {"type": "note_on", "time": 93, "note": 65, "velocity": 105, "channel": 0}, {"type": "note_off", "time": 89, "note": 65, "velocity": 105, "channel": 0}, {"type": "note_on", "time": 28, "note": 62, "velocity": 85, "channel": 0}, {"type": "note_off", "time": 49, "note": 62, "velocity": 85, "channel": 0}, {"type": "note_on", "time": 32, "note": 69, "velocity": 107, "channel": 0}, {"type": "note_off", "time": 52, "note": 69, "velocity": 107, "channel": 0}, {"type": "note_on", "time": 828, "note": 71, "velocity": 103, "channel": 0}, {"type": "note_off", "time": 52, "note": 71, "velocity": 103, "channel": 0}, {"type": "note_on", "time": 11, "note": 74, "velocity": 110, "channel": 0}, {"type": "note_off", "time": 105, "note": 74, "velocity": 110, "channel": 0}, {"type": "note_on", "time": 87, "note": 70, "velocity": 113, "channel": 0}, {"type": "note_off", "time": 149, "note": 70, "velocity": 113, "channel": 0}, {"type": "note_on", "time": 240, "note": 65, "velocity": 104, "channel": 0}, {"type": "note_off", "time": 131, "note": 65, "velocity": 104, "channel": 0}, {"type": "note_on", "time": 56, "note": 67, "velocity": 111, "channel": 0}, {"type": "note_off", "time": 99, "note": 67, "velocity": 111, "channel": 0}, {"type": "note_on", "time": 27, "note": 65, "velocity": 107, "channel": 0}, {"type": "note_off", "time": 90, "note": 65, "velocity": 107, "channel": 0}, {"type": "note_on", "time": 81, "note": 65, "velocity": 93, "channel": 0}, {"type": "note_off", "time": 64, "note": 65, "velocity": 93, "channel": 0}, {"type": "note_on", "time": 6, "note": 62, "velocity": 99, "channel": 0}, {"type": "note_off", "time": 115, "note": 62, "velocity": 99, "channel": 0}, {"type": "note_on", "time": 254, "note": 63, "velocity": 101, "channel": 0}, {"type": "note_off", "time": 118, "note": 63, "velocity": 101, "channel": 0}, {"type": "note_on", "time": 137, "note": 60, "velocity": 96, "channel": 0}, {"type": "note_off", "time": 87, "note": 60, "velocity": 96, "channel": 0}, {"type": "note_on", "time": 276, "note": 62, "velocity": 96, "channel": 0}, {"type": "note_off", "time": 126, "note": 62, "velocity": 96, "channel": 0}, {"type": "note_on", "time": 31, "note": 58, "velocity": 91, "channel": 0}, {"type": "note_off", "time": 97, "note": 58, "velocity": 91, "channel": 0}, {"type": "note_on", "time": 15, "note": 60, "velocity": 105, "channel": 0}, {"type": "note_off", "time": 82, "note": 60, "velocity": 105, "channel": 0}, {"type": "note_on", "time": 109, "note": 57, "velocity": 93, "channel": 0}, {"type": "note_off", "time": 50, "note": 57, "velocity": 93, "channel": 0}, {"type": "note_on", "time": 12, "note": 58, "velocity": 104, "channel": 0}, {"type": "note_off", "time": 86, "note": 58, "velocity": 104, "channel": 0}, {"type": "note_on", "time": 783, "note": 65, "velocity": 101, "channel": 0}, {"type": "note_off", "time": 1540, "note": 65, "velocity": 101, "channel": 0}, {"type": "note_on", "time": 45, "note": 62, "velocity": 101, "channel": 0}, {"type": "note_off", "time": 178, "note": 62, "velocity": 101, "channel": 0}, {"type": "note_on", "time": 472, "note": 65, "velocity": 105, "channel": 0}, {"type": "note_off", "time": 231, "note": 65, "velocity": 105, "channel": 0}, {"type": "note_on", "time": 20, "note": 67, "velocity": 113, "channel": 0}, {"type": "note_off", "time": 109, "note": 67, "velocity": 113, "channel": 0}, {"type": "note_on", "time": 11, "note": 65, "velocity": 106, "channel": 0}, {"type": "note_off", "time": 56, "note": 65, "velocity": 106, "channel": 0}, {"type": "note_on", "time": 24, "note": 62, "velocity": 103, "channel": 0}, {"type": "note_off", "time": 112, "note": 62, "velocity": 103, "channel": 0}, {"type": "note_on", "time": 218, "note": 58, "velocity": 97, "channel": 0}, {"type": "note_off", "time": 212, "note": 58, "velocity": 97, "channel": 0}, {"type": "note_on", "time": 21, "note": 60, "velocity": 101, "channel": 0}, {"type": "note_off", "time": 109, "note": 60, "velocity": 101, "channel": 0}, {"type": "note_on", "time": 23, "note": 58, "velocity": 94, "channel": 0}, {"type": "note_off", "time": 53, "note": 58, "velocity": 94, "channel": 0}, {"type": "note_on", "time": 11, "note": 62, "velocity": 103, "channel": 0}, {"type": "note_off", "time": 93, "note": 62, "velocity": 103, "channel": 0}, {"type": "note_on", "time": 28, "note": 65, "velocity": 103, "channel": 0}, {"type": "note_off", "time": 59, "note": 65, "velocity": 103, "channel": 0}, {"type": "note_on", "time": 18, "note": 67, "velocity": 110, "channel": 0}, {"type": "note_off", "time": 88, "note": 67, "velocity": 110, "channel": 0}, {"type": "note_on", "time": 23, "note": 62, "velocity": 92, "channel": 0}, {"type": "note_off", "time": 58, "note": 62, "velocity": 92, "channel": 0}, {"type": "note_on", "time": 22, "note": 65, "velocity": 111, "channel": 0}, {"type": "note_off", "time": 84, "note": 65, "velocity": 111, "channel": 0}, {"type": "note_on", "time": 105, "note": 67, "velocity": 94, "channel": 0}, {"type": "note_off", "time": 63, "note": 67, "velocity": 94, "channel": 0}, {"type": "note_on", "time": 65, "note": 60, "velocity": 95, "channel": 0}, {"type": "note_off", "time": 51, "note": 60, "velocity": 95, "channel": 0}, {"type": "note_on", "time": 12, "note": 60, "velocity": 99, "channel": 0}, {"type": "note_off", "time": 65, "note": 60, "velocity": 99, "channel": 0}, {"type": "note_on", "time": 239, "note": 62, "velocity": 94, "channel": 0}, {"type": "note_off", "time": 33, "note": 62, "velocity": 94, "channel": 0}, {"type": "note_on", "time": 5, "note": 68, "velocity": 87, "channel": 0}, {"type": "note_off", "time": 35, "note": 68, "velocity": 87, "channel": 0}, {"type": "note_on", "time": 103, "note": 62, "velocity": 97, "channel": 0}, {"type": "note_off", "time": 112, "note": 62, "velocity": 97, "channel": 0}, {"type": "note_on", "time": 47, "note": 58, "velocity": 100, "channel": 0}, {"type": "note_off", "time": 53, "note": 58, "velocity": 100, "channel": 0}, {"type": "note_on", "time": 40, "note": 63, "velocity": 98, "channel": 0}, {"type": "note_off", "time": 93, "note": 63, "velocity": 98, "channel": 0}, {"type": "note_on", "time": 103, "note": 67, "velocity": 111, "channel": 0}, {"type": "note_off", "time": 93, "note": 67, "velocity": 111, "channel": 0}, {"type": "note_on", "time": 435, "note": 70, "velocity": 114, "channel": 0}, {"type": "note_off", "time": 119, "note": 70, "velocity": 114, "channel": 0}, {"type": "note_on", "time": 112, "note": 60, "velocity": 91, "channel": 0}, {"type": "note_off", "time": 79, "note": 60, "velocity": 91, "channel": 0}, {"type": "note_on", "time": 47, "note": 62, "velocity": 93, "channel": 0}, {"type": "note_off", "time": 62, "note": 62, "velocity": 93, "channel": 0}, {"type": "note_on", "time": 26, "note": 63, "velocity": 100, "channel": 0}, {"type": "note_off", "time": 124, "note": 63, "velocity": 100, "channel": 0}, {"type": "note_on", "time": 511, "note": 69, "velocity": 115, "channel": 0}, {"type": "note_off", "time": 149, "note": 69, "velocity": 115, "channel": 0}, {"type": "note_on", "time": 145, "note": 58, "velocity": 93, "channel": 0}, {"type": "note_off", "time": 93, "note": 58, "velocity": 93, "channel": 0}, {"type": "note_on", "time": 21, "note": 59, "velocity": 99, "channel": 0}, {"type": "note_off", "time": 56, "note": 59, "velocity": 99, "channel": 0}, {"type": "note_on", "time": 24, "note": 60, "velocity": 99, "channel": 0}, {"type": "note_off", "time": 109, "note": 60, "velocity": 99, "channel": 0}, {"type": "note_on", "time": 358, "note": 65, "velocity": 111, "channel": 0}, {"type": "note_off", "time": 62, "note": 65, "velocity": 111, "channel": 0}, {"type": "note_on", "time": 22, "note": 62, "velocity": 102, "channel": 0}, {"type": "note_off", "time": 68, "note": 62, "velocity": 102, "channel": 0}, {"type": "note_on", "time": 21, "note": 63, "velocity": 97, "channel": 0}, {"type": "note_off", "time": 155, "note": 63, "velocity": 97, "channel": 0}, {"type": "note_on", "time": 333, "note": 62, "velocity": 102, "channel": 0}, {"type": "note_off", "time": 77, "note": 62, "velocity": 102, "channel": 0}, {"type": "note_on", "time": 9, "note": 65, "velocity": 115, "channel": 0}, {"type": "note_off", "time": 76, "note": 65, "velocity": 115, "channel": 0}, {"type": "note_on", "time": 8, "note": 62, "velocity": 101, "channel": 0}, {"type": "note_off", "time": 76, "note": 62, "velocity": 101, "channel": 0}, {"type": "note_on", "time": 27, "note": 58, "velocity": 90, "channel": 0}, {"type": "note_off", "time": 57, "note": 58, "velocity": 90, "channel": 0}, {"type": "note_on", "time": 19, "note": 63, "velocity": 103, "channel": 0}, {"type": "note_off", "time": 78, "note": 63, "velocity": 103, "channel": 0}, {"type": "note_on", "time": 34, "note": 65, "velocity": 93, "channel": 0}, {"type": "note_off", "time": 48, "note": 65, "velocity": 93, "channel": 0}, {"type": "note_on", "time": 18, "note": 63, "velocity": 106, "channel": 0}, {"type": "note_off", "time": 89, "note": 63, "velocity": 106, "channel": 0}, {"type": "note_on", "time": 12, "note": 64, "velocity": 99, "channel": 0}, {"type": "note_off", "time": 59, "note": 64, "velocity": 99, "channel": 0}, {"type": "note_on", "time": 10, "note": 64, "velocity": 105, "channel": 0}, {"type": "note_off", "time": 106, "note": 64, "velocity": 105, "channel": 0}, {"type": "note_on", "time": 17, "note": 65, "velocity": 108, "channel": 0}, {"type": "note_off", "time": 58, "note": 65, "velocity": 108, "channel": 0}, {"type": "note_on", "time": 14, "note": 67, "velocity": 111, "channel": 0}, {"type": "note_off", "time": 89, "note": 67, "velocity": 111, "channel": 0}, {"type": "note_on", "time": 6, "note": 69, "velocity": 121, "channel": 0}, {"type": "note_off", "time": 79, "note": 69, "velocity": 121, "channel": 0}, {"type": "note_on", "time": 6, "note": 70, "velocity": 120, "channel": 0}, {"type": "note_off", "time": 40, "note": 70, "velocity": 120, "channel": 0}, {"type": "note_on", "time": 12, "note": 71, "velocity": 113, "channel": 0}, {"type": "note_off", "time": 70, "note": 71, "velocity": 113, "channel": 0}, {"type": "note_on", "time": 20, "note": 72, "velocity": 124, "channel": 0}, {"type": "note_off", "time": 127, "note": 72, "velocity": 124, "channel": 0}, {"type": "note_on", "time": 489, "note": 69, "velocity": 120, "channel": 0}, {"type": "note_off", "time": 129, "note": 69, "velocity": 120, "channel": 0}, {"type": "note_on", "time": 31, "note": 66, "velocity": 95, "channel": 0}, {"type": "note_off", "time": 57, "note": 66, "velocity": 95, "channel": 0}, {"type": "note_on", "time": 1, "note": 67, "velocity": 115, "channel": 0}, {"type": "note_off", "time": 88, "note": 67, "velocity": 115, "channel": 0}, {"type": "note_on", "time": 5, "note": 69, "velocity": 114, "channel": 0}, {"type": "note_off", "time": 92, "note": 69, "velocity": 114, "channel": 0}, {"type": "note_on", "time": 11, "note": 71, "velocity": 115, "channel": 0}, {"type": "note_off", "time": 89, "note": 71, "velocity": 115, "channel": 0}, {"type": "note_on", "time": 7, "note": 72, "velocity": 109, "channel": 0}, {"type": "note_off", "time": 87, "note": 72, "velocity": 109, "channel": 0}, {"type": "note_on", "time": 13, "note": 74, "velocity": 106, "channel": 0}, {"type": "note_off", "time": 68, "note": 74, "velocity": 106, "channel": 0}, {"type": "note_on", "time": 14, "note": 72, "velocity": 96, "channel": 0}, {"type": "note_off", "time": 36, "note": 72, "velocity": 96, "channel": 0}, {"type": "note_on", "time": 14, "note": 75, "velocity": 114, "channel": 0}, {"type": "note_off", "time": 106, "note": 75, "velocity": 114, "channel": 0}, {"type": "note_on", "time": 674, "note": 69, "velocity": 106, "channel": 0}, {"type": "note_off", "time": 145, "note": 69, "velocity": 106, "channel": 0}, {"type": "note_on", "time": 27, "note": 74, "velocity": 114, "channel": 0}, {"type": "note_off", "time": 82, "note": 74, "velocity": 114, "channel": 0}, {"type": "note_on", "time": 13, "note": 70, "velocity": 103, "channel": 0}, {"type": "note_off", "time": 26, "note": 70, "velocity": 103, "channel": 0}, {"type": "note_on", "time": 7, "note": 69, "velocity": 104, "channel": 0}, {"type": "note_off", "time": 33, "note": 69, "velocity": 104, "channel": 0}, {"type": "note_on", "time": 8, "note": 68, "velocity": 107, "channel": 0}, {"type": "note_off", "time": 60, "note": 68, "velocity": 107, "channel": 0}, {"type": "note_on", "time": 9, "note": 67, "velocity": 100, "channel": 0}, {"type": "note_off", "time": 71, "note": 67, "velocity": 100, "channel": 0}, {"type": "note_on", "time": 46, "note": 74, "velocity": 100, "channel": 0}, {"type": "note_off", "time": 54, "note": 74, "velocity": 100, "channel": 0}, {"type": "note_on", "time": 3, "note": 70, "velocity": 97, "channel": 0}, {"type": "note_off", "time": 28, "note": 70, "velocity": 97, "channel": 0}, {"type": "note_on", "time": 10, "note": 67, "velocity": 109, "channel": 0}, {"type": "note_off", "time": 63, "note": 67, "velocity": 109, "channel": 0}, {"type": "note_on", "time": 7, "note": 66, "velocity": 98, "channel": 0}, {"type": "note_off", "time": 58, "note": 66, "velocity": 98, "channel": 0}, {"type": "note_on", "time": 8, "note": 65, "velocity": 103, "channel": 0}, {"type": "note_off", "time": 65, "note": 65, "velocity": 103, "channel": 0}, {"type": "note_on", "time": 17, "note": 67, "velocity": 100, "channel": 0}, {"type": "note_off", "time": 33, "note": 67, "velocity": 100, "channel": 0}, {"type": "note_on", "time": 6, "note": 70, "velocity": 106, "channel": 0}, {"type": "note_off", "time": 62, "note": 70, "velocity": 106, "channel": 0}, {"type": "note_on", "time": 16, "note": 68, "velocity": 109, "channel": 0}, {"type": "note_off", "time": 20, "note": 68, "velocity": 109, "channel": 0}, {"type": "note_on", "time": 3, "note": 70, "velocity": 98, "channel": 0}, {"type": "note_off", "time": 39, "note": 70, "velocity": 98, "channel": 0}, {"type": "note_on", "time": 7, "note": 63, "velocity": 91, "channel": 0}, {"type": "note_off", "time": 61, "note": 63, "velocity": 91, "channel": 0}, {"type": "note_on", "time": 721, "note": 75, "velocity": 9, "channel": 0}, {"type": "note_off", "time": 1000, "note": 75, "velocity": 9, "channel": 0}, {"type": "note_on", "time": 5, "note": 77, "velocity": 108, "channel": 0}, {"type": "note_off", "time": 108, "note": 77, "velocity": 108, "channel": 0}, {"type": "note_on", "time": 14, "note": 74, "velocity": 111, "channel": 0}, {"type": "note_off", "time": 77, "note": 74, "velocity": 111, "channel": 0}, {"type": "note_on", "time": 15, "note": 72, "velocity": 88, "channel": 0}, {"type": "note_off", "time": 104, "note": 72, "velocity": 88, "channel": 0}, {"type": "note_on", "time": 4, "note": 69, "velocity": 106, "channel": 0}, {"type": "note_off", "time": 64, "note": 69, "velocity": 106, "channel": 0}, {"type": "note_on", "time": 10, "note": 67, "velocity": 103, "channel": 0}, {"type": "note_off", "time": 34, "note": 67, "velocity": 103, "channel": 0}, {"type": "note_on", "time": 7, "note": 65, "velocity": 91, "channel": 0}, {"type": "note_off", "time": 95, "note": 65, "velocity": 91, "channel": 0}, {"type": "note_on", "time": 17, "note": 62, "velocity": 94, "channel": 0}, {"type": "note_off", "time": 49, "note": 62, "velocity": 94, "channel": 0}, {"type": "note_on", "time": 17, "note": 70, "velocity": 101, "channel": 0}, {"type": "note_off", "time": 128, "note": 70, "velocity": 101, "channel": 0}, {"type": "note_on", "time": 68, "note": 67, "velocity": 106, "channel": 0}, {"type": "note_off", "time": 98, "note": 67, "velocity": 106, "channel": 0}, {"type": "note_on", "time": 0, "note": 62, "velocity": 93, "channel": 0}, {"type": "note_off", "time": 46, "note": 62, "velocity": 93, "channel": 0}, {"type": "note_on", "time": 7, "note": 64, "velocity": 80, "channel": 0}, {"type": "note_off", "time": 41, "note": 64, "velocity": 80, "channel": 0}, {"type": "note_on", "time": 8, "note": 70, "velocity": 106, "channel": 0}, {"type": "note_off", "time": 89, "note": 70, "velocity": 106, "channel": 0}, {"type": "note_on", "time": 10, "note": 69, "velocity": 106, "channel": 0}, {"type": "note_off", "time": 73, "note": 69, "velocity": 106, "channel": 0}, {"type": "note_on", "time": 9, "note": 67, "velocity": 109, "channel": 0}, {"type": "note_off", "time": 89, "note": 67, "velocity": 109, "channel": 0}, {"type": "note_on", "time": 36, "note": 72, "velocity": 104, "channel": 0}, {"type": "note_off", "time": 64, "note": 72, "velocity": 104, "channel": 0}, {"type": "note_on", "time": 112, "note": 69, "velocity": 104, "channel": 0}, {"type": "note_off", "time": 88, "note": 69, "velocity": 104, "channel": 0}, {"type": "note_on", "time": 9, "note": 67, "velocity": 108, "channel": 0}, {"type": "note_off", "time": 98, "note": 67, "velocity": 108, "channel": 0}, {"type": "note_on", "time": 16, "note": 62, "velocity": 94, "channel": 0}, {"type": "note_off", "time": 54, "note": 62, "velocity": 94, "channel": 0}, {"type": "note_on", "time": 37, "note": 70, "velocity": 98, "channel": 0}, {"type": "note_off", "time": 104, "note": 70, "velocity": 98, "channel": 0}, {"type": "note_on", "time": 1536, "note": 79, "velocity": 102, "channel": 0}, {"type": "note_off", "time": 2723, "note": 79, "velocity": 102, "channel": 0}, {"type": "note_on", "time": 49, "note": 77, "velocity": 110, "channel": 0}, {"type": "note_off", "time": 112, "note": 77, "velocity": 110, "channel": 0}, {"type": "note_on", "time": 452, "note": 79, "velocity": 111, "channel": 0}, {"type": "note_off", "time": 109, "note": 79, "velocity": 111, "channel": 0}, {"type": "note_on", "time": 145, "note": 75, "velocity": 112, "channel": 0}, {"type": "note_off", "time": 119, "note": 75, "velocity": 112, "channel": 0}, {"type": "note_on", "time": 113, "note": 74, "velocity": 108, "channel": 0}, {"type": "note_off", "time": 105, "note": 74, "velocity": 108, "channel": 0}, {"type": "note_on", "time": 116, "note": 72, "velocity": 111, "channel": 0}, {"type": "note_off", "time": 425, "note": 72, "velocity": 111, "channel": 0}, {"type": "note_on", "time": 730, "note": 67, "velocity": 121, "channel": 0}, {"type": "note_off", "time": 121, "note": 67, "velocity": 121, "channel": 0}, {"type": "note_on", "time": 120, "note": 63, "velocity": 107, "channel": 0}, {"type": "note_off", "time": 110, "note": 63, "velocity": 107, "channel": 0}, {"type": "note_on", "time": 147, "note": 62, "velocity": 105, "channel": 0}, {"type": "note_off", "time": 110, "note": 62, "velocity": 105, "channel": 0}, {"type": "note_on", "time": 114, "note": 60, "velocity": 103, "channel": 0}, {"type": "note_off", "time": 291, "note": 60, "velocity": 103, "channel": 0}, {"type": "note_on", "time": 53, "note": 67, "velocity": 118, "channel": 0}, {"type": "note_off", "time": 122, "note": 67, "velocity": 118, "channel": 0}, {"type": "note_on", "time": 112, "note": 63, "velocity": 102, "channel": 0}, {"type": "note_off", "time": 93, "note": 63, "velocity": 102, "channel": 0}, {"type": "note_on", "time": 129, "note": 62, "velocity": 104, "channel": 0}, {"type": "note_off", "time": 80, "note": 62, "velocity": 104, "channel": 0}, {"type": "note_on", "time": 146, "note": 60, "velocity": 101, "channel": 0}, {"type": "note_off", "time": 310, "note": 60, "velocity": 101, "channel": 0}, {"type": "note_on", "time": 457, "note": 70, "velocity": 112, "channel": 0}, {"type": "note_off", "time": 123, "note": 70, "velocity": 112, "channel": 0}, {"type": "note_on", "time": 94, "note": 65, "velocity": 103, "channel": 0}, {"type": "note_off", "time": 81, "note": 65, "velocity": 103, "channel": 0}, {"type": "note_on", "time": 12, "note": 65, "velocity": 108, "channel": 0}, {"type": "note_off", "time": 88, "note": 65, "velocity": 108, "channel": 0}, {"type": "note_on", "time": 22, "note": 66, "velocity": 105, "channel": 0}, {"type": "note_off", "time": 104, "note": 66, "velocity": 105, "channel": 0}, {"type": "note_on", "time": 16, "note": 65, "velocity": 110, "channel": 0}, {"type": "note_off", "time": 105, "note": 65, "velocity": 110, "channel": 0}, {"type": "note_on", "time": 61, "note": 67, "velocity": 115, "channel": 0}, {"type": "note_off", "time": 102, "note": 67, "velocity": 115, "channel": 0}, {"type": "note_on", "time": 79, "note": 69, "velocity": 110, "channel": 0}, {"type": "note_off", "time": 85, "note": 69, "velocity": 110, "channel": 0}, {"type": "note_on", "time": 87, "note": 72, "velocity": 109, "channel": 0}, {"type": "note_off", "time": 83, "note": 72, "velocity": 109, "channel": 0}, {"type": "note_on", "time": 87, "note": 69, "velocity": 110, "channel": 0}, {"type": "note_off", "time": 79, "note": 69, "velocity": 110, "channel": 0}, {"type": "note_on", "time": 9, "note": 67, "velocity": 107, "channel": 0}, {"type": "note_off", "time": 78, "note": 67, "velocity": 107, "channel": 0}, {"type": "note_on", "time": 17, "note": 63, "velocity": 91, "channel": 0}, {"type": "note_off", "time": 42, "note": 63, "velocity": 91, "channel": 0}, {"type": "note_on", "time": 10, "note": 60, "velocity": 93, "channel": 0}, {"type": "note_off", "time": 40, "note": 60, "velocity": 93, "channel": 0}, {"type": "note_on", "time": 22, "note": 70, "velocity": 108, "channel": 0}, {"type": "note_off", "time": 117, "note": 70, "velocity": 108, "channel": 0}, {"type": "note_on", "time": 61, "note": 65, "velocity": 108, "channel": 0}, {"type": "note_off", "time": 95, "note": 65, "velocity": 108, "channel": 0}, {"type": "note_on", "time": 18, "note": 62, "velocity": 93, "channel": 0}, {"type": "note_off", "time": 61, "note": 62, "velocity": 93, "channel": 0}, {"type": "note_on", "time": 11, "note": 70, "velocity": 109, "channel": 0}, {"type": "note_off", "time": 117, "note": 70, "velocity": 109, "channel": 0}, {"type": "note_on", "time": 464, "note": 65, "velocity": 117, "channel": 0}, {"type": "note_off", "time": 89, "note": 65, "velocity": 117, "channel": 0}, {"type": "note_on", "time": 10, "note": 67, "velocity": 118, "channel": 0}, {"type": "note_off", "time": 85, "note": 67, "velocity": 118, "channel": 0}, {"type": "note_on", "time": 7, "note": 69, "velocity": 114, "channel": 0}, {"type": "note_off", "time": 84, "note": 69, "velocity": 114, "channel": 0}, {"type": "note_on", "time": 11, "note": 70, "velocity": 115, "channel": 0}, {"type": "note_off", "time": 65, "note": 70, "velocity": 115, "channel": 0}, {"type": "note_on", "time": 12, "note": 72, "velocity": 119, "channel": 0}, {"type": "note_off", "time": 98, "note": 72, "velocity": 119, "channel": 0}, {"type": "note_on", "time": 8, "note": 70, "velocity": 114, "channel": 0}, {"type": "note_off", "time": 85, "note": 70, "velocity": 114, "channel": 0}, {"type": "note_on", "time": 9, "note": 69, "velocity": 110, "channel": 0}, {"type": "note_off", "time": 95, "note": 69, "velocity": 110, "channel": 0}, {"type": "note_on", "time": 7, "note": 67, "velocity": 115, "channel": 0}, {"type": "note_off", "time": 88, "note": 67, "velocity": 115, "channel": 0}, {"type": "note_on", "time": 7, "note": 65, "velocity": 105, "channel": 0}, {"type": "note_off", "time": 71, "note": 65, "velocity": 105, "channel": 0}, {"type": "note_on", "time": 10, "note": 63, "velocity": 98, "channel": 0}, {"type": "note_off", "time": 81, "note": 63, "velocity": 98, "channel": 0}, {"type": "note_on", "time": 15, "note": 62, "velocity": 100, "channel": 0}, {"type": "note_off", "time": 84, "note": 62, "velocity": 100, "channel": 0}, {"type": "note_on", "time": 292, "note": 62, "velocity": 104, "channel": 0}, {"type": "note_off", "time": 109, "note": 62, "velocity": 104, "channel": 0}, {"type": "note_on", "time": 61, "note": 58, "velocity": 107, "channel": 0}, {"type": "note_off", "time": 119, "note": 58, "velocity": 107, "channel": 0}, {"type": "note_on", "time": 11, "note": 58, "velocity": 107, "channel": 0}, {"type": "note_off", "time": 176, "note": 58, "velocity": 107, "channel": 0}, {"type": "note_on", "time": 47, "note": 60, "velocity": 102, "channel": 0}, {"type": "note_off", "time": 40, "note": 60, "velocity": 102, "channel": 0}, {"type": "note_on", "time": 9, "note": 62, "velocity": 103, "channel": 0}, {"type": "note_off", "time": 45, "note": 62, "velocity": 103, "channel": 0}, {"type": "note_on", "time": 8, "note": 63, "velocity": 99, "channel": 0}, {"type": "note_off", "time": 52, "note": 63, "velocity": 99, "channel": 0}, {"type": "note_on", "time": 9, "note": 67, "velocity": 98, "channel": 0}, {"type": "note_off", "time": 61, "note": 67, "velocity": 98, "channel": 0}, {"type": "note_on", "time": 5, "note": 69, "velocity": 94, "channel": 0}, {"type": "note_off", "time": 39, "note": 69, "velocity": 94, "channel": 0}, {"type": "note_on", "time": 11, "note": 71, "velocity": 98, "channel": 0}, {"type": "note_off", "time": 45, "note": 71, "velocity": 98, "channel": 0}, {"type": "note_on", "time": 52, "note": 74, "velocity": 115, "channel": 0}, {"type": "note_off", "time": 128, "note": 74, "velocity": 115, "channel": 0}, {"type": "note_on", "time": 58, "note": 70, "velocity": 116, "channel": 0}, {"type": "note_off", "time": 154, "note": 70, "velocity": 116, "channel": 0}, {"type": "note_on", "time": 16, "note": 70, "velocity": 113, "channel": 0}, {"type": "note_off", "time": 345, "note": 70, "velocity": 113, "channel": 0}, {"type": "note_on", "time": 693, "note": 71, "velocity": 117, "channel": 0}, {"type": "note_off", "time": 90, "note": 71, "velocity": 117, "channel": 0}, {"type": "note_on", "time": 12, "note": 73, "velocity": 103, "channel": 0}, {"type": "note_off", "time": 64, "note": 73, "velocity": 103, "channel": 0}, {"type": "note_on", "time": 17, "note": 69, "velocity": 116, "channel": 0}, {"type": "note_off", "time": 84, "note": 69, "velocity": 116, "channel": 0}, {"type": "note_on", "time": 14, "note": 67, "velocity": 109, "channel": 0}, {"type": "note_off", "time": 75, "note": 67, "velocity": 109, "channel": 0}, {"type": "note_on", "time": 9, "note": 65, "velocity": 107, "channel": 0}, {"type": "note_off", "time": 87, "note": 65, "velocity": 107, "channel": 0}, {"type": "note_on", "time": 14, "note": 63, "velocity": 101, "channel": 0}, {"type": "note_off", "time": 70, "note": 63, "velocity": 101, "channel": 0}, {"type": "note_on", "time": 14, "note": 62, "velocity": 102, "channel": 0}, {"type": "note_off", "time": 81, "note": 62, "velocity": 102, "channel": 0}, {"type": "note_on", "time": 13, "note": 60, "velocity": 103, "channel": 0}, {"type": "note_off", "time": 66, "note": 60, "velocity": 103, "channel": 0}, {"type": "note_on", "time": 9, "note": 59, "velocity": 103, "channel": 0}, {"type": "note_off", "time": 75, "note": 59, "velocity": 103, "channel": 0}, {"type": "note_on", "time": 56, "note": 68, "velocity": 109, "channel": 0}, {"type": "note_off", "time": 100, "note": 68, "velocity": 109, "channel": 0}, {"type": "note_on", "time": 9, "note": 63, "velocity": 88, "channel": 0}, {"type": "note_off", "time": 41, "note": 63, "velocity": 88, "channel": 0}, {"type": "note_on", "time": 39, "note": 60, "velocity": 95, "channel": 0}, {"type": "note_off", "time": 55, "note": 60, "velocity": 95, "channel": 0}, {"type": "note_on", "time": 12, "note": 67, "velocity": 111, "channel": 0}, {"type": "note_off", "time": 73, "note": 67, "velocity": 111, "channel": 0}, {"type": "note_on", "time": 6, "note": 62, "velocity": 95, "channel": 0}, {"type": "note_off", "time": 33, "note": 62, "velocity": 95, "channel": 0}, {"type": "note_on", "time": 4, "note": 64, "velocity": 93, "channel": 0}, {"type": "note_off", "time": 34, "note": 64, "velocity": 93, "channel": 0}, {"type": "note_on", "time": 10, "note": 66, "velocity": 105, "channel": 0}, {"type": "note_off", "time": 114, "note": 66, "velocity": 105, "channel": 0}, {"type": "note_on", "time": 12, "note": 67, "velocity": 110, "channel": 0}, {"type": "note_off", "time": 42, "note": 67, "velocity": 110, "channel": 0}, {"type": "note_on", "time": 7, "note": 68, "velocity": 113, "channel": 0}, {"type": "note_off", "time": 58, "note": 68, "velocity": 113, "channel": 0}, {"type": "note_on", "time": 11, "note": 69, "velocity": 111, "channel": 0}, {"type": "note_off", "time": 52, "note": 69, "velocity": 111, "channel": 0}, {"type": "note_on", "time": 11, "note": 71, "velocity": 113, "channel": 0}, {"type": "note_off", "time": 71, "note": 71, "velocity": 113, "channel": 0}, {"type": "note_on", "time": 12, "note": 72, "velocity": 112, "channel": 0}, {"type": "note_off", "time": 80, "note": 72, "velocity": 112, "channel": 0}, {"type": "note_on", "time": 13, "note": 74, "velocity": 112, "channel": 0}, {"type": "note_off", "time": 81, "note": 74, "velocity": 112, "channel": 0}, {"type": "note_on", "time": 14, "note": 75, "velocity": 117, "channel": 0}, {"type": "note_off", "time": 77, "note": 75, "velocity": 117, "channel": 0}, {"type": "note_on", "time": 25, "note": 67, "velocity": 96, "channel": 0}, {"type": "note_off", "time": 56, "note": 67, "velocity": 96, "channel": 0}, {"type": "note_on", "time": 18, "note": 74, "velocity": 111, "channel": 0}, {"type": "note_off", "time": 90, "note": 74, "velocity": 111, "channel": 0}, {"type": "note_on", "time": 13, "note": 75, "velocity": 103, "channel": 0}, {"type": "note_off", "time": 52, "note": 75, "velocity": 103, "channel": 0}, {"type": "note_on", "time": 19, "note": 72, "velocity": 94, "channel": 0}, {"type": "note_off", "time": 74, "note": 72, "velocity": 94, "channel": 0}, {"type": "note_on", "time": 972, "note": 79, "velocity": 103, "channel": 0}, {"type": "note_off", "time": 239, "note": 79, "velocity": 103, "channel": 0}, {"type": "note_on", "time": 10, "note": 77, "velocity": 120, "channel": 0}, {"type": "note_off", "time": 51, "note": 77, "velocity": 120, "channel": 0}, {"type": "note_on", "time": 21, "note": 77, "velocity": 118, "channel": 0}, {"type": "note_off", "time": 56, "note": 77, "velocity": 118, "channel": 0}, {"type": "note_on", "time": 8, "note": 76, "velocity": 107, "channel": 0}, {"type": "note_off", "time": 35, "note": 76, "velocity": 107, "channel": 0}, {"type": "note_on", "time": 14, "note": 76, "velocity": 109, "channel": 0}, {"type": "note_off", "time": 43, "note": 76, "velocity": 109, "channel": 0}, {"type": "note_on", "time": 23, "note": 75, "velocity": 121, "channel": 0}, {"type": "note_off", "time": 98, "note": 75, "velocity": 121, "channel": 0}, {"type": "note_on", "time": 15, "note": 74, "velocity": 113, "channel": 0}, {"type": "note_off", "time": 106, "note": 74, "velocity": 113, "channel": 0}, {"type": "note_on", "time": 7, "note": 73, "velocity": 98, "channel": 0}, {"type": "note_off", "time": 51, "note": 73, "velocity": 98, "channel": 0}, {"type": "note_on", "time": 15, "note": 72, "velocity": 112, "channel": 0}, {"type": "note_off", "time": 54, "note": 72, "velocity": 112, "channel": 0}, {"type": "note_on", "time": 4, "note": 71, "velocity": 111, "channel": 0}, {"type": "note_off", "time": 54, "note": 71, "velocity": 111, "channel": 0}, {"type": "note_on", "time": 24, "note": 70, "velocity": 111, "channel": 0}, {"type": "note_off", "time": 113, "note": 70, "velocity": 111, "channel": 0}, {"type": "note_on", "time": 18, "note": 69, "velocity": 105, "channel": 0}, {"type": "note_off", "time": 92, "note": 69, "velocity": 105, "channel": 0}, {"type": "note_on", "time": 20, "note": 67, "velocity": 99, "channel": 0}, {"type": "note_off", "time": 52, "note": 67, "velocity": 99, "channel": 0}, {"type": "note_on", "time": 21, "note": 69, "velocity": 107, "channel": 0}, {"type": "note_off", "time": 65, "note": 69, "velocity": 107, "channel": 0}, {"type": "note_on", "time": 25, "note": 62, "velocity": 95, "channel": 0}, {"type": "note_off", "time": 65, "note": 62, "velocity": 95, "channel": 0}, {"type": "note_on", "time": 18, "note": 64, "velocity": 89, "channel": 0}, {"type": "note_off", "time": 98, "note": 64, "velocity": 89, "channel": 0}, {"type": "note_on", "time": 22, "note": 69, "velocity": 107, "channel": 0}, {"type": "note_off", "time": 75, "note": 69, "velocity": 107, "channel": 0}, {"type": "note_on", "time": 96, "note": 60, "velocity": 91, "channel": 0}, {"type": "note_off", "time": 47, "note": 60, "velocity": 91, "channel": 0}, {"type": "note_on", "time": 22, "note": 67, "velocity": 104, "channel": 0}, {"type": "note_off", "time": 82, "note": 67, "velocity": 104, "channel": 0}, {"type": "note_on", "time": 240, "note": 65, "velocity": 106, "channel": 0}, {"type": "note_off", "time": 73, "note": 65, "velocity": 106, "channel": 0}, {"type": "note_on", "time": 17, "note": 63, "velocity": 94, "channel": 0}, {"type": "note_off", "time": 63, "note": 63, "velocity": 94, "channel": 0}, {"type": "note_on", "time": 11, "note": 60, "velocity": 98, "channel": 0}, {"type": "note_off", "time": 46, "note": 60, "velocity": 98, "channel": 0}, {"type": "note_on", "time": 10, "note": 61, "velocity": 92, "channel": 0}, {"type": "note_off", "time": 67, "note": 61, "velocity": 92, "channel": 0}, {"type": "note_on", "time": 19, "note": 62, "velocity": 94, "channel": 0}, {"type": "note_off", "time": 58, "note": 62, "velocity": 94, "channel": 0}, {"type": "note_on", "time": 23, "note": 58, "velocity": 100, "channel": 0}, {"type": "note_off", "time": 50, "note": 58, "velocity": 100, "channel": 0}, {"type": "note_on", "time": 13, "note": 57, "velocity": 89, "channel": 0}, {"type": "note_off", "time": 44, "note": 57, "velocity": 89, "channel": 0}, {"type": "note_on", "time": 121, "note": 58, "velocity": 98, "channel": 0}, {"type": "note_off", "time": 99, "note": 58, "velocity": 98, "channel": 0}, {"type": "note_on", "time": 72, "note": 53, "velocity": 94, "channel": 0}, {"type": "note_off", "time": 363, "note": 53, "velocity": 94, "channel": 0}, {"type": "note_on", "time": 1166, "note": 62, "velocity": 109, "channel": 0}, {"type": "note_off", "time": 112, "note": 62, "velocity": 109, "channel": 0}, {"type": "note_on", "time": 8, "note": 63, "velocity": 109, "channel": 0}, {"type": "note_off", "time": 71, "note": 63, "velocity": 109, "channel": 0}, {"type": "note_on", "time": 22, "note": 65, "velocity": 115, "channel": 0}, {"type": "note_off", "time": 84, "note": 65, "velocity": 115, "channel": 0}, {"type": "note_on", "time": 7, "note": 66, "velocity": 109, "channel": 0}, {"type": "note_off", "time": 67, "note": 66, "velocity": 109, "channel": 0}, {"type": "note_on", "time": 13, "note": 69, "velocity": 114, "channel": 0}, {"type": "note_off", "time": 98, "note": 69, "velocity": 114, "channel": 0}, {"type": "note_on", "time": 19, "note": 70, "velocity": 116, "channel": 0}, {"type": "note_off", "time": 80, "note": 70, "velocity": 116, "channel": 0}, {"type": "note_on", "time": 15, "note": 69, "velocity": 110, "channel": 0}, {"type": "note_off", "time": 91, "note": 69, "velocity": 110, "channel": 0}, {"type": "note_on", "time": 13, "note": 67, "velocity": 110, "channel": 0}, {"type": "note_off", "time": 75, "note": 67, "velocity": 110, "channel": 0}, {"type": "note_on", "time": 14, "note": 65, "velocity": 99, "channel": 0}, {"type": "note_off", "time": 84, "note": 65, "velocity": 99, "channel": 0}, {"type": "note_on", "time": 31, "note": 64, "velocity": 101, "channel": 0}, {"type": "note_off", "time": 55, "note": 64, "velocity": 101, "channel": 0}, {"type": "note_on", "time": 12, "note": 63, "velocity": 104, "channel": 0}, {"type": "note_off", "time": 63, "note": 63, "velocity": 104, "channel": 0}, {"type": "note_on", "time": 21, "note": 63, "velocity": 102, "channel": 0}, {"type": "note_off", "time": 33, "note": 63, "velocity": 102, "channel": 0}, {"type": "note_on", "time": 18, "note": 60, "velocity": 97, "channel": 0}, {"type": "note_off", "time": 63, "note": 60, "velocity": 97, "channel": 0}, {"type": "note_on", "time": 14, "note": 63, "velocity": 98, "channel": 0}, {"type": "note_off", "time": 164, "note": 63, "velocity": 98, "channel": 0}, {"type": "note_on", "time": 19, "note": 66, "velocity": 104, "channel": 0}, {"type": "note_off", "time": 109, "note": 66, "velocity": 104, "channel": 0}, {"type": "note_on", "time": 58, "note": 62, "velocity": 94, "channel": 0}, {"type": "note_off", "time": 137, "note": 62, "velocity": 94, "channel": 0}, {"type": "note_on", "time": 16, "note": 62, "velocity": 84, "channel": 0}, {"type": "note_off", "time": 242, "note": 62, "velocity": 84, "channel": 0}, {"type": "note_on", "time": 544, "note": 60, "velocity": 90, "channel": 0}, {"type": "note_off", "time": 84, "note": 60, "velocity": 90, "channel": 0}, {"type": "note_on", "time": 31, "note": 63, "velocity": 97, "channel": 0}, {"type": "note_off", "time": 65, "note": 63, "velocity": 97, "channel": 0}, {"type": "note_on", "time": 13, "note": 67, "velocity": 121, "channel": 0}, {"type": "note_off", "time": 76, "note": 67, "velocity": 121, "channel": 0}, {"type": "note_on", "time": 5, "note": 68, "velocity": 104, "channel": 0}, {"type": "note_off", "time": 32, "note": 68, "velocity": 104, "channel": 0}, {"type": "note_on", "time": 4, "note": 69, "velocity": 117, "channel": 0}, {"type": "note_off", "time": 72, "note": 69, "velocity": 117, "channel": 0}, {"type": "note_on", "time": 14, "note": 70, "velocity": 114, "channel": 0}, {"type": "note_off", "time": 93, "note": 70, "velocity": 114, "channel": 0}, {"type": "note_on", "time": 12, "note": 67, "velocity": 117, "channel": 0}, {"type": "note_off", "time": 111, "note": 67, "velocity": 117, "channel": 0}, {"type": "note_on", "time": 11, "note": 63, "velocity": 89, "channel": 0}, {"type": "note_off", "time": 66, "note": 63, "velocity": 89, "channel": 0}, {"type": "note_on", "time": 29, "note": 60, "velocity": 94, "channel": 0}, {"type": "note_off", "time": 71, "note": 60, "velocity": 94, "channel": 0}, {"type": "note_on", "time": 8, "note": 69, "velocity": 119, "channel": 0}, {"type": "note_off", "time": 102, "note": 69, "velocity": 119, "channel": 0}, {"type": "note_on", "time": 11, "note": 65, "velocity": 104, "channel": 0}, {"type": "note_off", "time": 54, "note": 65, "velocity": 104, "channel": 0}, {"type": "note_on", "time": 1242, "note": 74, "velocity": 113, "channel": 0}, {"type": "note_off", "time": 80, "note": 74, "velocity": 113, "channel": 0}, {"type": "note_on", "time": 11, "note": 71, "velocity": 113, "channel": 0}, {"type": "note_off", "time": 104, "note": 71, "velocity": 113, "channel": 0}, {"type": "note_on", "time": 6, "note": 72, "velocity": 116, "channel": 0}, {"type": "note_off", "time": 87, "note": 72, "velocity": 116, "channel": 0}, {"type": "note_on", "time": 7, "note": 71, "velocity": 116, "channel": 0}, {"type": "note_off", "time": 107, "note": 71, "velocity": 116, "channel": 0}, {"type": "note_on", "time": 8, "note": 72, "velocity": 118, "channel": 0}, {"type": "note_off", "time": 79, "note": 72, "velocity": 118, "channel": 0}, {"type": "note_on", "time": 8, "note": 71, "velocity": 114, "channel": 0}, {"type": "note_off", "time": 68, "note": 71, "velocity": 114, "channel": 0}, {"type": "note_on", "time": 3, "note": 72, "velocity": 108, "channel": 0}, {"type": "note_off", "time": 45, "note": 72, "velocity": 108, "channel": 0}, {"type": "note_on", "time": 22, "note": 73, "velocity": 110, "channel": 0}, {"type": "note_off", "time": 82, "note": 73, "velocity": 110, "channel": 0}, {"type": "note_on", "time": 20, "note": 74, "velocity": 121, "channel": 0}, {"type": "note_off", "time": 65, "note": 74, "velocity": 121, "channel": 0}, {"type": "note_on", "time": 10, "note": 75, "velocity": 110, "channel": 0}, {"type": "note_off", "time": 77, "note": 75, "velocity": 110, "channel": 0}, {"type": "note_on", "time": 21, "note": 69, "velocity": 97, "channel": 0}, {"type": "note_off", "time": 111, "note": 69, "velocity": 97, "channel": 0}, {"type": "note_on", "time": 1451, "note": 67, "velocity": 120, "channel": 0}, {"type": "note_off", "time": 84, "note": 67, "velocity": 120, "channel": 0}, {"type": "note_on", "time": 22, "note": 70, "velocity": 117, "channel": 0}, {"type": "note_off", "time": 101, "note": 70, "velocity": 117, "channel": 0}, {"type": "note_on", "time": 34, "note": 74, "velocity": 109, "channel": 0}, {"type": "note_off", "time": 1342, "note": 74, "velocity": 109, "channel": 0}, {"type": "note_on", "time": 23, "note": 72, "velocity": 101, "channel": 0}, {"type": "note_off", "time": 100, "note": 72, "velocity": 101, "channel": 0}, {"type": "note_on", "time": 12, "note": 70, "velocity": 106, "channel": 0}, {"type": "note_off", "time": 87, "note": 70, "velocity": 106, "channel": 0}, {"type": "note_on", "time": 18, "note": 69, "velocity": 101, "channel": 0}, {"type": "note_off", "time": 103, "note": 69, "velocity": 101, "channel": 0}, {"type": "note_on", "time": 5, "note": 67, "velocity": 103, "channel": 0}, {"type": "note_off", "time": 69, "note": 67, "velocity": 103, "channel": 0}, {"type": "note_on", "time": 17, "note": 65, "velocity": 100, "channel": 0}, {"type": "note_off", "time": 110, "note": 65, "velocity": 100, "channel": 0}, {"type": "note_on", "time": 13, "note": 64, "velocity": 89, "channel": 0}, {"type": "note_off", "time": 51, "note": 64, "velocity": 89, "channel": 0}, {"type": "note_on", "time": 9, "note": 63, "velocity": 96, "channel": 0}, {"type": "note_off", "time": 81, "note": 63, "velocity": 96, "channel": 0}, {"type": "note_on", "time": 32, "note": 67, "velocity": 106, "channel": 0}, {"type": "note_off", "time": 65, "note": 67, "velocity": 106, "channel": 0}, {"type": "note_on", "time": 19, "note": 65, "velocity": 96, "channel": 0}, {"type": "note_off", "time": 96, "note": 65, "velocity": 96, "channel": 0}, {"type": "note_on", "time": 21, "note": 63, "velocity": 95, "channel": 0}, {"type": "note_off", "time": 61, "note": 63, "velocity": 95, "channel": 0}, {"type": "note_on", "time": 25, "note": 62, "velocity": 94, "channel": 0}, {"type": "note_off", "time": 95, "note": 62, "velocity": 94, "channel": 0}, {"type": "note_on", "time": 31, "note": 58, "velocity": 94, "channel": 0}, {"type": "note_off", "time": 99, "note": 58, "velocity": 94, "channel": 0}, {"type": "note_on", "time": 1360, "note": 67, "velocity": 117, "channel": 0}, {"type": "note_off", "time": 77, "note": 67, "velocity": 117, "channel": 0}, {"type": "note_on", "time": 14, "note": 63, "velocity": 109, "channel": 0}, {"type": "note_off", "time": 118, "note": 63, "velocity": 109, "channel": 0}, {"type": "note_on", "time": 18, "note": 62, "velocity": 100, "channel": 0}, {"type": "note_off", "time": 139, "note": 62, "velocity": 100, "channel": 0}, {"type": "note_on", "time": 89, "note": 60, "velocity": 94, "channel": 0}, {"type": "note_off", "time": 91, "note": 60, "velocity": 94, "channel": 0}, {"type": "note_on", "time": 24, "note": 67, "velocity": 108, "channel": 0}, {"type": "note_off", "time": 39, "note": 67, "velocity": 108, "channel": 0}, {"type": "note_on", "time": 14, "note": 68, "velocity": 106, "channel": 0}, {"type": "note_off", "time": 72, "note": 68, "velocity": 106, "channel": 0}, {"type": "note_on", "time": 60, "note": 67, "velocity": 106, "channel": 0}, {"type": "note_off", "time": 50, "note": 67, "velocity": 106, "channel": 0}, {"type": "note_on", "time": 12, "note": 68, "velocity": 98, "channel": 0}, {"type": "note_off", "time": 81, "note": 68, "velocity": 98, "channel": 0}, {"type": "note_on", "time": 15, "note": 64, "velocity": 93, "channel": 0}, {"type": "note_off", "time": 73, "note": 64, "velocity": 93, "channel": 0}, {"type": "note_on", "time": 14, "note": 63, "velocity": 98, "channel": 0}, {"type": "note_off", "time": 91, "note": 63, "velocity": 98, "channel": 0}, {"type": "note_on", "time": 7, "note": 62, "velocity": 100, "channel": 0}, {"type": "note_off", "time": 27, "note": 62, "velocity": 100, "channel": 0}, {"type": "note_on", "time": 8, "note": 59, "velocity": 90, "channel": 0}, {"type": "note_off", "time": 45, "note": 59, "velocity": 90, "channel": 0}, {"type": "note_on", "time": 323, "note": 66, "velocity": 101, "channel": 0}, {"type": "note_off", "time": 56, "note": 66, "velocity": 101, "channel": 0}, {"type": "note_on", "time": 16, "note": 62, "velocity": 107, "channel": 0}, {"type": "note_off", "time": 112, "note": 62, "velocity": 107, "channel": 0}, {"type": "note_on", "time": 21, "note": 61, "velocity": 96, "channel": 0}, {"type": "note_off", "time": 133, "note": 61, "velocity": 96, "channel": 0}, {"type": "note_on", "time": 46, "note": 59, "velocity": 95, "channel": 0}, {"type": "note_off", "time": 62, "note": 59, "velocity": 95, "channel": 0}, {"type": "note_on", "time": 103, "note": 63, "velocity": 104, "channel": 0}, {"type": "note_off", "time": 45, "note": 63, "velocity": 104, "channel": 0}, {"type": "note_on", "time": 40, "note": 64, "velocity": 88, "channel": 0}, {"type": "note_off", "time": 52, "note": 64, "velocity": 88, "channel": 0}, {"type": "note_on", "time": 67, "note": 63, "velocity": 111, "channel": 0}, {"type": "note_off", "time": 30, "note": 63, "velocity": 111, "channel": 0}, {"type": "note_on", "time": 20, "note": 64, "velocity": 103, "channel": 0}, {"type": "note_off", "time": 76, "note": 64, "velocity": 103, "channel": 0}, {"type": "note_on", "time": 34, "note": 62, "velocity": 100, "channel": 0}, {"type": "note_off", "time": 70, "note": 62, "velocity": 100, "channel": 0}, {"type": "end_of_track", "time": 0}]]}