{"ticks_per_beat": 2520, "tracks": [[{"type": "track_name", "name": "Melody", "time": 0}, {"type": "set_tempo", "tempo": 476190, "time": 0}, {"type": "time_signature", "numerator": 1, "denominator": 4, "clocks_per_click": 24, "notated_32nd_notes_per_beat": 8, "time": 0}, {"type": "note_on", "time": 52488, "note": 61, "velocity": 105, "channel": 0}, {"type": "note_off", "time": 972, "note": 61, "velocity": 105, "channel": 0}, {"type": "note_on", "time": 660, "note": 58, "velocity": 108, "channel": 0}, {"type": "note_off", "time": 944, "note": 58, "velocity": 108, "channel": 0}, {"type": "note_on", "time": 84, "note": 56, "velocity": 99, "channel": 0}, {"type": "note_off", "time": 883, "note": 56, "velocity": 99, "channel": 0}, {"type": "note_on", "time": 299, "note": 54, "velocity": 90, "channel": 0}, {"type": "note_off", "time": 4108, "note": 54, "velocity": 90, "channel": 0}, {"type": "note_on", "time": 2250, "note": 56, "velocity": 101, "channel": 0}, {"type": "note_off", "time": 898, "note": 56, "velocity": 101, "channel": 0}, {"type": "note_on", "time": 898, "note": 58, "velocity": 107, "channel": 0}, {"type": "note_off", "time": 806, "note": 58, "velocity": 107, "channel": 0}, {"type": "note_on", "time": 76, "note": 61, "velocity": 99, "channel": 0}, {"type": "note_off", "time": 944, "note": 61, "velocity": 99, "channel": 0}, {"type": "note_on", "time": 330, "note": 64, "velocity": 104, "channel": 0}, {"type": "note_off", "time": 5575, "note": 64, "velocity": 104, "channel": 0}, {"type": "note_on", "time": 284, "note": 63, "velocity": 103, "channel": 0}, {"type": "note_off", "time": 1105, "note": 63, "velocity": 103, "channel": 0}, {"type": "note_on", "time": 453, "note": 63, "velocity": 102, "channel": 0}, {"type": "note_off", "time": 906, "note": 63, "velocity": 102, "channel": 0}, {"type": "note_on", "time": 46, "note": 58, "velocity": 99, "channel": 0}, {"type": "note_off", "time": 967, "note": 58, "velocity": 99, "channel": 0}, {"type": "note_on", "time": 61, "note": 61, "velocity": 95, "channel": 0}, {"type": "note_off", "time": 2457, "note": 61, "velocity": 95, "channel": 0}, {"type": "note_on", "time": 4592, "note": 59, "velocity": 106, "channel": 0}, {"type": "note_off", "time": 1873, "note": 59, "velocity": 106, "channel": 0}, {"type": "note_on", "time": 99, "note": 63, "velocity": 105, "channel": 0}, {"type": "note_off", "time": 683, "note": 63, "velocity": 105, "channel": 0}, {"type": "note_on", "time": 23, "note": 58, "velocity": 106, "channel": 0}, {"type": "note_off", "time": 821, "note": 58, "velocity": 106, "channel": 0}, {"type": "note_on", "time": 168, "note": 56, "velocity": 94, "channel": 0}, {"type": "note_off", "time": 2426, "note": 56, "velocity": 94, "channel": 0}, {"type": "note_on", "time": 3901, "note": 66, "velocity": 110, "channel": 0}, {"type": "note_off", "time": 1390, "note": 66, "velocity": 110, "channel": 0}, {"type": "note_on", "time": 614, "note": 63, "velocity": 105, "channel": 0}, {"type": "note_off", "time": 591, "note": 63, "velocity": 105, "channel": 0}, {"type": "note_on", "time": 161, "note": 58, "velocity": 99, "channel": 0}, {"type": "note_off", "time": 622, "note": 58, "velocity": 99, "channel": 0}, {"type": "note_on", "time": 230, "note": 61, "velocity": 98, "channel": 0}, {"type": "note_off", "time": 1374, "note": 61, "velocity": 98, "channel": 0}, {"type": "note_on", "time": 360, "note": 62, "velocity": 99, "channel": 0}, {"type": "note_off", "time": 2242, "note": 62, "velocity": 99, "channel": 0}, {"type": "note_on", "time": 2465, "note": 66, "velocity": 111, "channel": 0}, {"type": "note_off", "time": 1489, "note": 66, "velocity": 111, "channel": 0}, {"type": "note_on", "time": 522, "note": 62, "velocity": 101, "channel": 0}, {"type": "note_off", "time": 1052, "note": 62, "velocity": 101, "channel": 0}, {"type": "note_on", "time": 153, "note": 58, "velocity": 97, "channel": 0}, {"type": "note_off", "time": 514, "note": 58, "velocity": 97, "channel": 0}, {"type": "note_on", "time": 99, "note": 63, "velocity": 106, "channel": 0}, {"type": "note_off", "time": 1267, "note": 63, "velocity": 106, "channel": 0}, {"type": "note_on", "time": 76, "note": 58, "velocity": 88, "channel": 0}, {"type": "note_off", "time": 407, "note": 58, "velocity": 88, "channel": 0}, {"type": "note_on", "time": 552, "note": 64, "velocity": 103, "channel": 0}, {"type": "note_off", "time": 1497, "note": 64, "velocity": 103, "channel": 0}, {"type": "note_on", "time": 122, "note": 66, "velocity": 107, "channel": 0}, {"type": "note_off", "time": 1213, "note": 66, "velocity": 107, "channel": 0}, {"type": "note_on", "time": 1397, "note": 67, "velocity": 117, "channel": 0}, {"type": "note_off", "time": 1044, "note": 67, "velocity": 117, "channel": 0}, {"type": "note_on", "time": 284, "note": 67, "velocity": 112, "channel": 0}, {"type": "note_off", "time": 1021, "note": 67, "velocity": 112, "channel": 0}, {"type": "note_on", "time": 184, "note": 63, "velocity": 96, "channel": 0}, {"type": "note_off", "time": 675, "note": 63, "velocity": 96, "channel": 0}, {"type": "note_on", "time": 460, "note": 69, "velocity": 100, "channel": 0}, {"type": "note_off", "time": 936, "note": 69, "velocity": 100, "channel": 0}, {"type": "note_on", "time": 414, "note": 69, "velocity": 108, "channel": 0}, {"type": "note_off", "time": 959, "note": 69, "velocity": 108, "channel": 0}, {"type": "note_on", "time": 276, "note": 74, "velocity": 102, "channel": 0}, {"type": "note_off", "time": 775, "note": 74, "velocity": 102, "channel": 0}, {"type": "note_on", "time": 69, "note": 71, "velocity": 106, "channel": 0}, {"type": "note_off", "time": 545, "note": 71, "velocity": 106, "channel": 0}, {"type": "note_on", "time": 46, "note": 67, "velocity": 96, "channel": 0}, {"type": "note_off", "time": 2196, "note": 67, "velocity": 96, "channel": 0}, {"type": "note_on", "time": 2503, "note": 62, "velocity": 99, "channel": 0}, {"type": "note_off", "time": 576, "note": 62, "velocity": 99, "channel": 0}, {"type": "note_on", "time": 307, "note": 66, "velocity": 97, "channel": 0}, {"type": "note_off", "time": 1098, "note": 66, "velocity": 97, "channel": 0}, {"type": "note_on", "time": 337, "note": 66, "velocity": 105, "channel": 0}, {"type": "note_off", "time": 668, "note": 66, "velocity": 105, "channel": 0}, {"type": "note_on", "time": 330, "note": 66, "velocity": 101, "channel": 0}, {"type": "note_off", "time": 599, "note": 66, "velocity": 101, "channel": 0}, {"type": "note_on", "time": 107, "note": 69, "velocity": 99, "channel": 0}, {"type": "note_off", "time": 668, "note": 69, "velocity": 99, "channel": 0}, {"type": "note_on", "time": 241, "note": 64, "velocity": 93, "channel": 0}, {"type": "note_off", "time": 523, "note": 64, "velocity": 93, "channel": 0}, {"type": "note_on", "time": 405, "note": 62, "velocity": 89, "channel": 0}, {"type": "note_off", "time": 1663, "note": 62, "velocity": 89, "channel": 0}, {"type": "note_on", "time": 4762, "note": 72, "velocity": 120, "channel": 0}, {"type": "note_off", "time": 1501, "note": 72, "velocity": 120, "channel": 0}, {"type": "note_on", "time": 156, "note": 74, "velocity": 112, "channel": 0}, {"type": "note_off", "time": 734, "note": 74, "velocity": 112, "channel": 0}, {"type": "note_on", "time": 102, "note": 76, "velocity": 123, "channel": 0}, {"type": "note_off", "time": 388, "note": 76, "velocity": 123, "channel": 0}, {"type": "note_on", "time": 118, "note": 77, "velocity": 119, "channel": 0}, {"type": "note_off", "time": 755, "note": 77, "velocity": 119, "channel": 0}, {"type": "note_on", "time": 102, "note": 77, "velocity": 112, "channel": 0}, {"type": "note_off", "time": 178, "note": 77, "velocity": 112, "channel": 0}, {"type": "note_on", "time": 75, "note": 76, "velocity": 121, "channel": 0}, {"type": "note_off", "time": 1269, "note": 76, "velocity": 121, "channel": 0}, {"type": "note_on", "time": 43, "note": 74, "velocity": 106, "channel": 0}, {"type": "note_off", "time": 988, "note": 74, "velocity": 106, "channel": 0}, {"type": "note_on", "time": 58, "note": 72, "velocity": 117, "channel": 0}, {"type": "note_off", "time": 1044, "note": 72, "velocity": 117, "channel": 0}, {"type": "note_on", "time": 360, "note": 67, "velocity": 99, "channel": 0}, {"type": "note_off", "time": 960, "note": 67, "velocity": 99, "channel": 0}, {"type": "note_on", "time": 130, "note": 71, "velocity": 105, "channel": 0}, {"type": "note_off", "time": 1267, "note": 71, "velocity": 105, "channel": 0}, {"type": "note_on", "time": 76, "note": 69, "velocity": 101, "channel": 0}, {"type": "note_off", "time": 998, "note": 69, "velocity": 101, "channel": 0}, {"type": "note_on", "time": 115, "note": 67, "velocity": 96, "channel": 0}, {"type": "note_off", "time": 960, "note": 67, "velocity": 96, "channel": 0}, {"type": "note_on", "time": 192, "note": 64, "velocity": 87, "channel": 0}, {"type": "note_off", "time": 1056, "note": 64, "velocity": 87, "channel": 0}, {"type": "note_on", "time": 49, "note": 65, "velocity": 90, "channel": 0}, {"type": "note_off", "time": 1009, "note": 65, "velocity": 90, "channel": 0}, {"type": "note_on", "time": 2599, "note": 73, "velocity": 114, "channel": 0}, {"type": "note_off", "time": 794, "note": 73, "velocity": 114, "channel": 0}, {"type": "note_on", "time": 84, "note": 75, "velocity": 114, "channel": 0}, {"type": "note_off", "time": 560, "note": 75, "velocity": 114, "channel": 0}, {"type": "note_on", "time": 230, "note": 72, "velocity": 118, "channel": 0}, {"type": "note_off", "time": 1893, "note": 72, "velocity": 118, "channel": 0}, {"type": "note_on", "time": 207, "note": 68, "velocity": 108, "channel": 0}, {"type": "note_off", "time": 952, "note": 68, "velocity": 108, "channel": 0}, {"type": "note_on", "time": 798, "note": 60, "velocity": 97, "channel": 0}, {"type": "note_off", "time": 441, "note": 60, "velocity": 97, "channel": 0}, {"type": "note_on", "time": 226, "note": 67, "velocity": 93, "channel": 0}, {"type": "note_off", "time": 1251, "note": 67, "velocity": 93, "channel": 0}, {"type": "note_on", "time": 307, "note": 65, "velocity": 102, "channel": 0}, {"type": "note_off", "time": 614, "note": 65, "velocity": 102, "channel": 0}, {"type": "note_on", "time": 668, "note": 63, "velocity": 97, "channel": 0}, {"type": "note_off", "time": 576, "note": 63, "velocity": 97, "channel": 0}, {"type": "note_on", "time": 72, "note": 60, "velocity": 95, "channel": 0}, {"type": "note_off", "time": 1102, "note": 60, "velocity": 95, "channel": 0}, {"type": "note_on", "time": 126, "note": 55, "velocity": 92, "channel": 0}, {"type": "note_off", "time": 768, "note": 55, "velocity": 92, "channel": 0}, {"type": "note_on", "time": 182, "note": 59, "velocity": 93, "channel": 0}, {"type": "note_off", "time": 1490, "note": 59, "velocity": 93, "channel": 0}, {"type": "note_on", "time": 243, "note": 66, "velocity": 101, "channel": 0}, {"type": "note_off", "time": 929, "note": 66, "velocity": 101, "channel": 0}, {"type": "note_on", "time": 215, "note": 60, "velocity": 95, "channel": 0}, {"type": "note_off", "time": 288, "note": 60, "velocity": 95, "channel": 0}, {"type": "note_on", "time": 26, "note": 59, "velocity": 101, "channel": 0}, {"type": "note_off", "time": 218, "note": 59, "velocity": 101, "channel": 0}, {"type": "note_on", "time": 49, "note": 58, "velocity": 96, "channel": 0}, {"type": "note_off", "time": 222, "note": 58, "velocity": 96, "channel": 0}, {"type": "note_on", "time": 138, "note": 56, "velocity": 91, "channel": 0}, {"type": "note_off", "time": 864, "note": 56, "velocity": 91, "channel": 0}, {"type": "note_on", "time": 130, "note": 57, "velocity": 85, "channel": 0}, {"type": "note_off", "time": 1390, "note": 57, "velocity": 85, "channel": 0}, {"type": "note_on", "time": 165, "note": 65, "velocity": 96, "channel": 0}, {"type": "note_off", "time": 1754, "note": 65, "velocity": 96, "channel": 0}, {"type": "note_on", "time": 583, "note": 58, "velocity": 90, "channel": 0}, {"type": "note_off", "time": 380, "note": 58, "velocity": 90, "channel": 0}, {"type": "note_on", "time": 875, "note": 61, "velocity": 96, "channel": 0}, {"type": "note_off", "time": 280, "note": 61, "velocity": 96, "channel": 0}, {"type": "note_on", "time": 26, "note": 62, "velocity": 94, "channel": 0}, {"type": "note_off", "time": 464, "note": 62, "velocity": 94, "channel": 0}, {"type": "note_on", "time": 2807, "note": 65, "velocity": 125, "channel": 0}, {"type": "note_off", "time": 549, "note": 65, "velocity": 125, "channel": 0}, {"type": "note_on", "time": 72, "note": 68, "velocity": 120, "channel": 0}, {"type": "note_off", "time": 637, "note": 68, "velocity": 120, "channel": 0}, {"type": "note_on", "time": 257, "note": 72, "velocity": 127, "channel": 0}, {"type": "note_off", "time": 1301, "note": 72, "velocity": 127, "channel": 0}, {"type": "note_on", "time": 192, "note": 80, "velocity": 113, "channel": 0}, {"type": "note_off", "time": 4776, "note": 80, "velocity": 113, "channel": 0}, {"type": "note_on", "time": 5207, "note": 72, "velocity": 117, "channel": 0}, {"type": "note_off", "time": 1244, "note": 72, "velocity": 117, "channel": 0}, {"type": "note_on", "time": 522, "note": 75, "velocity": 111, "channel": 0}, {"type": "note_off", "time": 599, "note": 75, "velocity": 111, "channel": 0}, {"type": "note_on", "time": 122, "note": 77, "velocity": 113, "channel": 0}, {"type": "note_off", "time": 814, "note": 77, "velocity": 113, "channel": 0}, {"type": "note_on", "time": 330, "note": 79, "velocity": 119, "channel": 0}, {"type": "note_off", "time": 4799, "note": 79, "velocity": 119, "channel": 0}, {"type": "note_on", "time": 6274, "note": 70, "velocity": 118, "channel": 0}, {"type": "note_off", "time": 1075, "note": 70, "velocity": 118, "channel": 0}, {"type": "note_on", "time": 192, "note": 75, "velocity": 118, "channel": 0}, {"type": "note_off", "time": 1190, "note": 75, "velocity": 118, "channel": 0}, {"type": "note_on", "time": 122, "note": 77, "velocity": 114, "channel": 0}, {"type": "note_off", "time": 1328, "note": 77, "velocity": 114, "channel": 0}, {"type": "note_on", "time": 46, "note": 75, "velocity": 113, "channel": 0}, {"type": "note_off", "time": 2188, "note": 75, "velocity": 113, "channel": 0}, {"type": "note_on", "time": 2818, "note": 67, "velocity": 116, "channel": 0}, {"type": "note_off", "time": 1781, "note": 67, "velocity": 116, "channel": 0}, {"type": "note_on", "time": 1996, "note": 74, "velocity": 103, "channel": 0}, {"type": "note_off", "time": 2065, "note": 74, "velocity": 103, "channel": 0}, {"type": "note_on", "time": 560, "note": 72, "velocity": 119, "channel": 0}, {"type": "note_off", "time": 1113, "note": 72, "velocity": 119, "channel": 0}, {"type": "note_on", "time": 291, "note": 67, "velocity": 111, "channel": 0}, {"type": "note_off", "time": 1013, "note": 67, "velocity": 111, "channel": 0}, {"type": "note_on", "time": 514, "note": 60, "velocity": 88, "channel": 0}, {"type": "note_off", "time": 744, "note": 60, "velocity": 88, "channel": 0}, {"type": "note_on", "time": 360, "note": 70, "velocity": 110, "channel": 0}, {"type": "note_off", "time": 1113, "note": 70, "velocity": 110, "channel": 0}, {"type": "note_on", "time": 314, "note": 63, "velocity": 94, "channel": 0}, {"type": "note_off", "time": 752, "note": 63, "velocity": 94, "channel": 0}, {"type": "note_on", "time": 107, "note": 72, "velocity": 117, "channel": 0}, {"type": "note_off", "time": 4508, "note": 72, "velocity": 117, "channel": 0}, {"type": "note_on", "time": 215, "note": 67, "velocity": 99, "channel": 0}, {"type": "note_off", "time": 453, "note": 67, "velocity": 99, "channel": 0}, {"type": "note_on", "time": 53, "note": 68, "velocity": 105, "channel": 0}, {"type": "note_off", "time": 821, "note": 68, "velocity": 105, "channel": 0}, {"type": "note_on", "time": 537, "note": 65, "velocity": 86, "channel": 0}, {"type": "note_off", "time": 2611, "note": 65, "velocity": 86, "channel": 0}, {"type": "note_on", "time": 1781, "note": 67, "velocity": 100, "channel": 0}, {"type": "note_off", "time": 545, "note": 67, "velocity": 100, "channel": 0}, {"type": "note_on", "time": 76, "note": 65, "velocity": 106, "channel": 0}, {"type": "note_off", "time": 706, "note": 65, "velocity": 106, "channel": 0}, {"type": "note_on", "time": 222, "note": 63, "velocity": 98, "channel": 0}, {"type": "note_off", "time": 1113, "note": 63, "velocity": 98, "channel": 0}, {"type": "note_on", "time": 122, "note": 58, "velocity": 94, "channel": 0}, {"type": "note_off", "time": 2119, "note": 58, "velocity": 94, "channel": 0}, {"type": "note_on", "time": 7687, "note": 55, "velocity": 99, "channel": 0}, {"type": "note_off", "time": 1190, "note": 55, "velocity": 99, "channel": 0}, {"type": "note_on", "time": 806, "note": 56, "velocity": 100, "channel": 0}, {"type": "note_off", "time": 606, "note": 56, "velocity": 100, "channel": 0}, {"type": "note_on", "time": 76, "note": 58, "velocity": 103, "channel": 0}, {"type": "note_off", "time": 499, "note": 58, "velocity": 103, "channel": 0}, {"type": "note_on", "time": 691, "note": 54, "velocity": 101, "channel": 0}, {"type": "note_off", "time": 1343, "note": 54, "velocity": 101, "channel": 0}, {"type": "note_on", "time": 591, "note": 53, "velocity": 92, "channel": 0}, {"type": "note_off", "time": 1658, "note": 53, "velocity": 92, "channel": 0}, {"type": "note_on", "time": 2580, "note": 53, "velocity": 98, "channel": 0}, {"type": "note_off", "time": 744, "note": 53, "velocity": 98, "channel": 0}, {"type": "note_on", "time": 1190, "note": 53, "velocity": 98, "channel": 0}, {"type": "note_off", "time": 668, "note": 53, "velocity": 98, "channel": 0}, {"type": "note_on", "time": 92, "note": 55, "velocity": 97, "channel": 0}, {"type": "note_off", "time": 614, "note": 55, "velocity": 97, "channel": 0}, {"type": "note_on", "time": 545, "note": 52, "velocity": 90, "channel": 0}, {"type": "note_off", "time": 1459, "note": 52, "velocity": 90, "channel": 0}, {"type": "note_on", "time": 53, "note": 51, "velocity": 100, "channel": 0}, {"type": "note_off", "time": 1198, "note": 51, "velocity": 100, "channel": 0}, {"type": "note_on", "time": 3740, "note": 55, "velocity": 94, "channel": 0}, {"type": "note_off", "time": 1512, "note": 55, "velocity": 94, "channel": 0}, {"type": "note_on", "time": 245, "note": 58, "velocity": 104, "channel": 0}, {"type": "note_off", "time": 837, "note": 58, "velocity": 104, "channel": 0}, {"type": "note_on", "time": 122, "note": 62, "velocity": 107, "channel": 0}, {"type": "note_off", "time": 814, "note": 62, "velocity": 107, "channel": 0}, {"type": "note_on", "time": 467, "note": 67, "velocity": 120, "channel": 0}, {"type": "note_off", "time": 3175, "note": 67, "velocity": 120, "channel": 0}, {"type": "note_on", "time": 159, "note": 65, "velocity": 110, "channel": 0}, {"type": "note_off", "time": 783, "note": 65, "velocity": 110, "channel": 0}, {"type": "note_on", "time": 115, "note": 67, "velocity": 107, "channel": 0}, {"type": "note_off", "time": 791, "note": 67, "velocity": 107, "channel": 0}, {"type": "note_on", "time": 345, "note": 60, "velocity": 89, "channel": 0}, {"type": "note_off", "time": 2503, "note": 60, "velocity": 89, "channel": 0}, {"type": "note_on", "time": 8401, "note": 63, "velocity": 111, "channel": 0}, {"type": "note_off", "time": 1628, "note": 63, "velocity": 111, "channel": 0}, {"type": "note_on", "time": 38, "note": 60, "velocity": 105, "channel": 0}, {"type": "note_off", "time": 783, "note": 60, "velocity": 105, "channel": 0}, {"type": "note_on", "time": 161, "note": 62, "velocity": 107, "channel": 0}, {"type": "note_off", "time": 1098, "note": 62, "velocity": 107, "channel": 0}, {"type": "note_on", "time": 145, "note": 63, "velocity": 109, "channel": 0}, {"type": "note_off", "time": 1336, "note": 63, "velocity": 109, "channel": 0}, {"type": "note_on", "time": 115, "note": 65, "velocity": 117, "channel": 0}, {"type": "note_off", "time": 1144, "note": 65, "velocity": 117, "channel": 0}, {"type": "note_on", "time": 506, "note": 67, "velocity": 114, "channel": 0}, {"type": "note_off", "time": 875, "note": 67, "velocity": 114, "channel": 0}, {"type": "note_on", "time": 61, "note": 68, "velocity": 120, "channel": 0}, {"type": "note_off", "time": 668, "note": 68, "velocity": 120, "channel": 0}, {"type": "note_on", "time": 660, "note": 72, "velocity": 115, "channel": 0}, {"type": "note_off", "time": 6251, "note": 72, "velocity": 115, "channel": 0}, {"type": "note_on", "time": 3409, "note": 64, "velocity": 106, "channel": 0}, {"type": "note_off", "time": 1313, "note": 64, "velocity": 106, "channel": 0}, {"type": "note_on", "time": 407, "note": 66, "velocity": 93, "channel": 0}, {"type": "note_off", "time": 537, "note": 66, "velocity": 93, "channel": 0}, {"type": "note_on", "time": 192, "note": 68, "velocity": 119, "channel": 0}, {"type": "note_off", "time": 1075, "note": 68, "velocity": 119, "channel": 0}, {"type": "note_on", "time": 107, "note": 72, "velocity": 9, "channel": 0}, {"type": "note_off", "time": 1167, "note": 72, "velocity": 9, "channel": 0}, {"type": "note_on", "time": 476, "note": 74, "velocity": 106, "channel": 0}, {"type": "note_off", "time": 7503, "note": 74, "velocity": 106, "channel": 0}, {"type": "note_on", "time": 138, "note": 75, "velocity": 110, "channel": 0}, {"type": "note_off", "time": 1036, "note": 75, "velocity": 110, "channel": 0}, {"type": "note_on", "time": 814, "note": 72, "velocity": 78, "channel": 0}, {"type": "note_off", "time": 721, "note": 72, "velocity": 78, "channel": 0}, {"type": "note_on", "time": 1927, "note": 67, "velocity": 109, "channel": 0}, {"type": "note_off", "time": 1044, "note": 67, "velocity": 109, "channel": 0}, {"type": "note_on", "time": 76, "note": 68, "velocity": 75, "channel": 0}, {"type": "note_off", "time": 1082, "note": 68, "velocity": 75, "channel": 0}, {"type": "note_on", "time": 115, "note": 70, "velocity": 99, "channel": 0}, {"type": "note_off", "time": 952, "note": 70, "velocity": 99, "channel": 0}, {"type": "note_on", "time": 529, "note": 59, "velocity": 89, "channel": 0}, {"type": "note_off", "time": 3210, "note": 59, "velocity": 89, "channel": 0}, {"type": "note_on", "time": 675, "note": 58, "velocity": 91, "channel": 0}, {"type": "note_off", "time": 2242, "note": 58, "velocity": 91, "channel": 0}, {"type": "note_on", "time": 1912, "note": 67, "velocity": 103, "channel": 0}, {"type": "note_off", "time": 599, "note": 67, "velocity": 103, "channel": 0}, {"type": "note_on", "time": 46, "note": 65, "velocity": 90, "channel": 0}, {"type": "note_off", "time": 706, "note": 65, "velocity": 90, "channel": 0}, {"type": "note_on", "time": 215, "note": 57, "velocity": 77, "channel": 0}, {"type": "note_off", "time": 3563, "note": 57, "velocity": 77, "channel": 0}, {"type": "note_on", "time": 353, "note": 56, "velocity": 91, "channel": 0}, {"type": "note_off", "time": 2449, "note": 56, "velocity": 91, "channel": 0}, {"type": "note_on", "time": 2081, "note": 67, "velocity": 107, "channel": 0}, {"type": "note_off", "time": 760, "note": 67, "velocity": 107, "channel": 0}, {"type": "note_on", "time": 161, "note": 65, "velocity": 111, "channel": 0}, {"type": "note_off", "time": 821, "note": 65, "velocity": 111, "channel": 0}, {"type": "note_on", "time": 145, "note": 64, "velocity": 99, "channel": 0}, {"type": "note_off", "time": 1605, "note": 64, "velocity": 99, "channel": 0}, {"type": "note_on", "time": 38, "note": 72, "velocity": 115, "channel": 0}, {"type": "note_off", "time": 2972, "note": 72, "velocity": 115, "channel": 0}, {"type": "note_on", "time": 453, "note": 67, "velocity": 107, "channel": 0}, {"type": "note_off", "time": 944, "note": 67, "velocity": 107, "channel": 0}, {"type": "note_on", "time": 867, "note": 60, "velocity": 88, "channel": 0}, {"type": "note_off", "time": 407, "note": 60, "velocity": 88, "channel": 0}, {"type": "note_on", "time": 506, "note": 70, "velocity": 100, "channel": 0}, {"type": "note_off", "time": 1413, "note": 70, "velocity": 100, "channel": 0}, {"type": "note_on", "time": 30, "note": 68, "velocity": 95, "channel": 0}, {"type": "note_off", "time": 729, "note": 68, "velocity": 95, "channel": 0}, {"type": "note_on", "time": 552, "note": 65, "velocity": 76, "channel": 0}, {"type": "note_off", "time": 1927, "note": 65, "velocity": 76, "channel": 0}, {"type": "note_on", "time": 3440, "note": 74, "velocity": 112, "channel": 0}, {"type": "note_off", "time": 1167, "note": 74, "velocity": 112, "channel": 0}, {"type": "note_on", "time": 138, "note": 75, "velocity": 113, "channel": 0}, {"type": "note_off", "time": 1136, "note": 75, "velocity": 113, "channel": 0}, {"type": "note_on", "time": 69, "note": 72, "velocity": 114, "channel": 0}, {"type": "note_off", "time": 1428, "note": 72, "velocity": 114, "channel": 0}, {"type": "note_on", "time": 161, "note": 68, "velocity": 92, "channel": 0}, {"type": "note_off", "time": 875, "note": 68, "velocity": 92, "channel": 0}, {"type": "note_on", "time": 76, "note": 70, "velocity": 111, "channel": 0}, {"type": "note_off", "time": 1113, "note": 70, "velocity": 111, "channel": 0}, {"type": "note_on", "time": 883, "note": 68, "velocity": 88, "channel": 0}, {"type": "note_off", "time": 353, "note": 68, "velocity": 88, "channel": 0}, {"type": "note_on", "time": 162, "note": 79, "velocity": 115, "channel": 0}, {"type": "note_off", "time": 6642, "note": 79, "velocity": 115, "channel": 0}, {"type": "note_on", "time": 550, "note": 77, "velocity": 106, "channel": 0}, {"type": "note_off", "time": 1760, "note": 77, "velocity": 106, "channel": 0}, {"type": "note_on", "time": 129, "note": 75, "velocity": 111, "channel": 0}, {"type": "note_off", "time": 1252, "note": 75, "velocity": 111, "channel": 0}, {"type": "note_on", "time": 1069, "note": 70, "velocity": 99, "channel": 0}, {"type": "note_off", "time": 2181, "note": 70, "velocity": 99, "channel": 0}, {"type": "note_on", "time": 2667, "note": 63, "velocity": 94, "channel": 0}, {"type": "note_off", "time": 540, "note": 63, "velocity": 94, "channel": 0}, {"type": "note_on", "time": 712, "note": 68, "velocity": 105, "channel": 0}, {"type": "note_off", "time": 1360, "note": 68, "velocity": 105, "channel": 0}, {"type": "note_on", "time": 658, "note": 68, "velocity": 102, "channel": 0}, {"type": "note_off", "time": 2721, "note": 68, "velocity": 102, "channel": 0}, {"type": "note_on", "time": 442, "note": 67, "velocity": 97, "channel": 0}, {"type": "note_off", "time": 1533, "note": 67, "velocity": 97, "channel": 0}, {"type": "note_on", "time": 259, "note": 65, "velocity": 103, "channel": 0}, {"type": "note_off", "time": 1166, "note": 65, "velocity": 103, "channel": 0}, {"type": "note_on", "time": 1123, "note": 63, "velocity": 94, "channel": 0}, {"type": "note_off", "time": 2516, "note": 63, "velocity": 94, "channel": 0}, {"type": "note_on", "time": 6229, "note": 63, "velocity": 82, "channel": 0}, {"type": "note_off", "time": 1251, "note": 63, "velocity": 82, "channel": 0}, {"type": "note_on", "time": 215, "note": 67, "velocity": 112, "channel": 0}, {"type": "note_off", "time": 1221, "note": 67, "velocity": 112, "channel": 0}, {"type": "note_on", "time": 107, "note": 68, "velocity": 122, "channel": 0}, {"type": "note_off", "time": 1221, "note": 68, "velocity": 122, "channel": 0}, {"type": "note_on", "time": 99, "note": 70, "velocity": 119, "channel": 0}, {"type": "note_off", "time": 1059, "note": 70, "velocity": 119, "channel": 0}, {"type": "note_on", "time": 207, "note": 71, "velocity": 117, "channel": 0}, {"type": "note_off", "time": 1620, "note": 71, "velocity": 117, "channel": 0}, {"type": "note_on", "time": 384, "note": 70, "velocity": 103, "channel": 0}, {"type": "note_off", "time": 1666, "note": 70, "velocity": 103, "channel": 0}, {"type": "note_on", "time": 238, "note": 67, "velocity": 101, "channel": 0}, {"type": "note_off", "time": 1205, "note": 67, "velocity": 101, "channel": 0}, {"type": "note_on", "time": 130, "note": 63, "velocity": 94, "channel": 0}, {"type": "note_off", "time": 1236, "note": 63, "velocity": 94, "channel": 0}, {"type": "note_on", "time": 122, "note": 60, "velocity": 92, "channel": 0}, {"type": "note_off", "time": 691, "note": 60, "velocity": 92, "channel": 0}, {"type": "note_on", "time": 412, "note": 72, "velocity": 107, "channel": 0}, {"type": "note_off", "time": 1706, "note": 72, "velocity": 107, "channel": 0}, {"type": "note_on", "time": 423, "note": 75, "velocity": 111, "channel": 0}, {"type": "note_off", "time": 998, "note": 75, "velocity": 111, "channel": 0}, {"type": "note_on", "time": 2380, "note": 65, "velocity": 111, "channel": 0}, {"type": "note_off", "time": 1098, "note": 65, "velocity": 111, "channel": 0}, {"type": "note_on", "time": 1067, "note": 68, "velocity": 118, "channel": 0}, {"type": "note_off", "time": 1274, "note": 68, "velocity": 118, "channel": 0}, {"type": "note_on", "time": 76, "note": 65, "velocity": 93, "channel": 0}, {"type": "note_off", "time": 591, "note": 65, "velocity": 93, "channel": 0}, {"type": "note_on", "time": 299, "note": 72, "velocity": 115, "channel": 0}, {"type": "note_off", "time": 4723, "note": 72, "velocity": 115, "channel": 0}, {"type": "note_on", "time": 3271, "note": 74, "velocity": 103, "channel": 0}, {"type": "note_off", "time": 1029, "note": 74, "velocity": 103, "channel": 0}, {"type": "note_on", "time": 560, "note": 72, "velocity": 117, "channel": 0}, {"type": "note_off", "time": 1151, "note": 72, "velocity": 117, "channel": 0}, {"type": "note_on", "time": 284, "note": 67, "velocity": 110, "channel": 0}, {"type": "note_off", "time": 791, "note": 67, "velocity": 110, "channel": 0}, {"type": "note_on", "time": 207, "note": 70, "velocity": 103, "channel": 0}, {"type": "note_off", "time": 1743, "note": 70, "velocity": 103, "channel": 0}, {"type": "note_on", "time": 5568, "note": 67, "velocity": 124, "channel": 0}, {"type": "note_off", "time": 1359, "note": 67, "velocity": 124, "channel": 0}, {"type": "note_on", "time": 30, "note": 70, "velocity": 101, "channel": 0}, {"type": "note_off", "time": 499, "note": 70, "velocity": 101, "channel": 0}, {"type": "note_on", "time": 437, "note": 74, "velocity": 107, "channel": 0}, {"type": "note_off", "time": 1313, "note": 74, "velocity": 107, "channel": 0}, {"type": "note_on", "time": 84, "note": 72, "velocity": 119, "channel": 0}, {"type": "note_off", "time": 1067, "note": 72, "velocity": 119, "channel": 0}, {"type": "note_on", "time": 253, "note": 70, "velocity": 111, "channel": 0}, {"type": "note_off", "time": 1067, "note": 70, "velocity": 111, "channel": 0}, {"type": "note_on", "time": 122, "note": 68, "velocity": 116, "channel": 0}, {"type": "note_off", "time": 1021, "note": 68, "velocity": 116, "channel": 0}, {"type": "note_on", "time": 407, "note": 67, "velocity": 105, "channel": 0}, {"type": "note_off", "time": 952, "note": 67, "velocity": 105, "channel": 0}, {"type": "note_on", "time": 168, "note": 65, "velocity": 113, "channel": 0}, {"type": "note_off", "time": 936, "note": 65, "velocity": 113, "channel": 0}, {"type": "note_on", "time": 383, "note": 64, "velocity": 101, "channel": 0}, {"type": "note_off", "time": 3471, "note": 64, "velocity": 101, "channel": 0}, {"type": "note_on", "time": 522, "note": 76, "velocity": 115, "channel": 0}, {"type": "note_off", "time": 1536, "note": 76, "velocity": 115, "channel": 0}, {"type": "note_on", "time": 2979, "note": 72, "velocity": 113, "channel": 0}, {"type": "note_off", "time": 668, "note": 72, "velocity": 113, "channel": 0}, {"type": "note_on", "time": 76, "note": 69, "velocity": 108, "channel": 0}, {"type": "note_off", "time": 913, "note": 69, "velocity": 108, "channel": 0}, {"type": "note_on", "time": 130, "note": 68, "velocity": 112, "channel": 0}, {"type": "note_off", "time": 1274, "note": 68, "velocity": 112, "channel": 0}, {"type": "note_on", "time": 84, "note": 75, "velocity": 114, "channel": 0}, {"type": "note_off", "time": 2173, "note": 75, "velocity": 114, "channel": 0}, {"type": "note_on", "time": 9676, "note": 58, "velocity": 85, "channel": 0}, {"type": "note_off", "time": 4216, "note": 58, "velocity": 85, "channel": 0}, {"type": "note_on", "time": 360, "note": 62, "velocity": 103, "channel": 0}, {"type": "note_off", "time": 752, "note": 62, "velocity": 103, "channel": 0}, {"type": "note_on", "time": 92, "note": 65, "velocity": 94, "channel": 0}, {"type": "note_off", "time": 376, "note": 65, "velocity": 94, "channel": 0}, {"type": "note_on", "time": 814, "note": 63, "velocity": 103, "channel": 0}, {"type": "note_off", "time": 1628, "note": 63, "velocity": 103, "channel": 0}, {"type": "note_on", "time": 2181, "note": 58, "velocity": 93, "channel": 0}, {"type": "note_off", "time": 1367, "note": 58, "velocity": 93, "channel": 0}, {"type": "note_on", "time": 1850, "note": 62, "velocity": 100, "channel": 0}, {"type": "note_off", "time": 1466, "note": 62, "velocity": 100, "channel": 0}, {"type": "note_on", "time": 7, "note": 65, "velocity": 117, "channel": 0}, {"type": "note_off", "time": 975, "note": 65, "velocity": 117, "channel": 0}, {"type": "note_on", "time": 53, "note": 63, "velocity": 104, "channel": 0}, {"type": "note_off", "time": 1528, "note": 63, "velocity": 104, "channel": 0}, {"type": "note_on", "time": 299, "note": 55, "velocity": 93, "channel": 0}, {"type": "note_off", "time": 706, "note": 55, "velocity": 93, "channel": 0}, {"type": "note_on", "time": 92, "note": 56, "velocity": 93, "channel": 0}, {"type": "note_off", "time": 1589, "note": 56, "velocity": 93, "channel": 0}, {"type": "note_on", "time": 238, "note": 58, "velocity": 99, "channel": 0}, {"type": "note_off", "time": 1390, "note": 58, "velocity": 99, "channel": 0}, {"type": "note_on", "time": 1996, "note": 67, "velocity": 116, "channel": 0}, {"type": "note_off", "time": 1420, "note": 67, "velocity": 116, "channel": 0}, {"type": "note_on", "time": 145, "note": 64, "velocity": 88, "channel": 0}, {"type": "note_off", "time": 844, "note": 64, "velocity": 88, "channel": 0}, {"type": "note_on", "time": 284, "note": 65, "velocity": 97, "channel": 0}, {"type": "note_off", "time": 2058, "note": 65, "velocity": 97, "channel": 0}, {"type": "note_on", "time": 514, "note": 60, "velocity": 102, "channel": 0}, {"type": "note_off", "time": 1359, "note": 60, "velocity": 102, "channel": 0}, {"type": "note_on", "time": 230, "note": 55, "velocity": 86, "channel": 0}, {"type": "note_off", "time": 783, "note": 55, "velocity": 86, "channel": 0}, {"type": "note_on", "time": 330, "note": 58, "velocity": 102, "channel": 0}, {"type": "note_off", "time": 1320, "note": 58, "velocity": 102, "channel": 0}, {"type": "note_on", "time": 122, "note": 56, "velocity": 98, "channel": 0}, {"type": "note_off", "time": 1021, "note": 56, "velocity": 98, "channel": 0}, {"type": "note_on", "time": 3018, "note": 67, "velocity": 116, "channel": 0}, {"type": "note_off", "time": 698, "note": 67, "velocity": 116, "channel": 0}, {"type": "note_on", "time": 115, "note": 68, "velocity": 123, "channel": 0}, {"type": "note_off", "time": 5053, "note": 68, "velocity": 123, "channel": 0}, {"type": "note_on", "time": 614, "note": 67, "velocity": 99, "channel": 0}, {"type": "note_off", "time": 1850, "note": 67, "velocity": 99, "channel": 0}, {"type": "note_on", "time": 61, "note": 65, "velocity": 112, "channel": 0}, {"type": "note_off", "time": 729, "note": 65, "velocity": 112, "channel": 0}, {"type": "note_on", "time": 138, "note": 63, "velocity": 101, "channel": 0}, {"type": "note_off", "time": 768, "note": 63, "velocity": 101, "channel": 0}, {"type": "note_on", "time": 199, "note": 57, "velocity": 83, "channel": 0}, {"type": "note_off", "time": 6996, "note": 57, "velocity": 83, "channel": 0}, {"type": "note_on", "time": 468, "note": 58, "velocity": 94, "channel": 0}, {"type": "note_off", "time": 1374, "note": 58, "velocity": 94, "channel": 0}, {"type": "note_on", "time": 345, "note": 73, "velocity": 108, "channel": 0}, {"type": "note_off", "time": 1873, "note": 73, "velocity": 108, "channel": 0}, {"type": "note_on", "time": 4300, "note": 67, "velocity": 124, "channel": 0}, {"type": "note_off", "time": 1597, "note": 67, "velocity": 124, "channel": 0}, {"type": "note_on", "time": 69, "note": 66, "velocity": 95, "channel": 0}, {"type": "note_off", "time": 821, "note": 66, "velocity": 95, "channel": 0}, {"type": "note_on", "time": 76, "note": 67, "velocity": 113, "channel": 0}, {"type": "note_off", "time": 1144, "note": 67, "velocity": 113, "channel": 0}, {"type": "note_on", "time": 138, "note": 70, "velocity": 112, "channel": 0}, {"type": "note_off", "time": 898, "note": 70, "velocity": 112, "channel": 0}, {"type": "note_on", "time": 353, "note": 56, "velocity": 87, "channel": 0}, {"type": "note_off", "time": 6712, "note": 56, "velocity": 87, "channel": 0}, {"type": "note_on", "time": 3379, "note": 65, "velocity": 105, "channel": 0}, {"type": "note_off", "time": 1236, "note": 65, "velocity": 105, "channel": 0}, {"type": "note_on", "time": 138, "note": 64, "velocity": 91, "channel": 0}, {"type": "note_off", "time": 1044, "note": 64, "velocity": 91, "channel": 0}, {"type": "note_on", "time": 84, "note": 65, "velocity": 100, "channel": 0}, {"type": "note_off", "time": 1144, "note": 65, "velocity": 100, "channel": 0}, {"type": "note_on", "time": 107, "note": 67, "velocity": 109, "channel": 0}, {"type": "note_off", "time": 1044, "note": 67, "velocity": 109, "channel": 0}, {"type": "note_on", "time": 353, "note": 63, "velocity": 98, "channel": 0}, {"type": "note_off", "time": 1597, "note": 63, "velocity": 98, "channel": 0}, {"type": "note_on", "time": 3517, "note": 70, "velocity": 120, "channel": 0}, {"type": "note_off", "time": 1620, "note": 70, "velocity": 120, "channel": 0}, {"type": "note_on", "time": 760, "note": 72, "velocity": 122, "channel": 0}, {"type": "note_off", "time": 1370, "note": 72, "velocity": 122, "channel": 0}, {"type": "note_on", "time": 295, "note": 67, "velocity": 94, "channel": 0}, {"type": "note_off", "time": 514, "note": 67, "velocity": 94, "channel": 0}, {"type": "note_on", "time": 245, "note": 70, "velocity": 111, "channel": 0}, {"type": "note_off", "time": 1582, "note": 70, "velocity": 111, "channel": 0}, {"type": "note_on", "time": 3571, "note": 65, "velocity": 108, "channel": 0}, {"type": "note_off", "time": 1297, "note": 65, "velocity": 108, "channel": 0}, {"type": "note_on", "time": 1152, "note": 67, "velocity": 117, "channel": 0}, {"type": "note_off", "time": 1635, "note": 67, "velocity": 117, "channel": 0}, {"type": "note_on", "time": 165, "note": 64, "velocity": 87, "channel": 0}, {"type": "note_off", "time": 518, "note": 64, "velocity": 87, "channel": 0}, {"type": "note_on", "time": 216, "note": 65, "velocity": 97, "channel": 0}, {"type": "note_off", "time": 1339, "note": 65, "velocity": 97, "channel": 0}, {"type": "note_on", "time": 80, "note": 62, "velocity": 100, "channel": 0}, {"type": "note_off", "time": 913, "note": 62, "velocity": 100, "channel": 0}, {"type": "note_on", "time": 399, "note": 60, "velocity": 101, "channel": 0}, {"type": "note_off", "time": 1113, "note": 60, "velocity": 101, "channel": 0}, {"type": "note_on", "time": 529, "note": 58, "velocity": 94, "channel": 0}, {"type": "note_off", "time": 445, "note": 58, "velocity": 94, "channel": 0}, {"type": "note_on", "time": 514, "note": 63, "velocity": 99, "channel": 0}, {"type": "note_off", "time": 975, "note": 63, "velocity": 99, "channel": 0}, {"type": "note_on", "time": 1198, "note": 75, "velocity": 107, "channel": 0}, {"type": "note_off", "time": 7434, "note": 75, "velocity": 107, "channel": 0}, {"type": "note_on", "time": 7956, "note": 74, "velocity": 103, "channel": 0}, {"type": "note_off", "time": 1451, "note": 74, "velocity": 103, "channel": 0}, {"type": "note_on", "time": 99, "note": 77, "velocity": 118, "channel": 0}, {"type": "note_off", "time": 4823, "note": 77, "velocity": 118, "channel": 0}, {"type": "note_on", "time": 161, "note": 75, "velocity": 112, "channel": 0}, {"type": "note_off", "time": 929, "note": 75, "velocity": 112, "channel": 0}, {"type": "note_on", "time": 560, "note": 72, "velocity": 100, "channel": 0}, {"type": "note_off", "time": 1328, "note": 72, "velocity": 100, "channel": 0}, {"type": "note_on", "time": 414, "note": 70, "velocity": 100, "channel": 0}, {"type": "note_off", "time": 2311, "note": 70, "velocity": 100, "channel": 0}, {"type": "note_on", "time": 4369, "note": 66, "velocity": 113, "channel": 0}, {"type": "note_off", "time": 775, "note": 66, "velocity": 113, "channel": 0}, {"type": "note_on", "time": 76, "note": 67, "velocity": 104, "channel": 0}, {"type": "note_off", "time": 476, "note": 67, "velocity": 104, "channel": 0}, {"type": "note_on", "time": 399, "note": 63, "velocity": 9, "channel": 0}, {"type": "note_off", "time": 1029, "note": 63, "velocity": 9, "channel": 0}, {"type": "note_on", "time": 230, "note": 58, "velocity": 99, "channel": 0}, {"type": "note_off", "time": 714, "note": 58, "velocity": 99, "channel": 0}, {"type": "note_on", "time": 9208, "note": 58, "velocity": 109, "channel": 0}, {"type": "note_off", "time": 1205, "note": 58, "velocity": 109, "channel": 0}, {"type": "note_on", "time": 798, "note": 62, "velocity": 103, "channel": 0}, {"type": "note_off", "time": 729, "note": 62, "velocity": 103, "channel": 0}, {"type": "note_on", "time": 76, "note": 64, "velocity": 103, "channel": 0}, {"type": "note_off", "time": 576, "note": 64, "velocity": 103, "channel": 0}, {"type": "note_on", "time": 522, "note": 66, "velocity": 116, "channel": 0}, {"type": "note_off", "time": 1328, "note": 66, "velocity": 116, "channel": 0}, {"type": "note_on", "time": 192, "note": 62, "velocity": 87, "channel": 0}, {"type": "note_off", "time": 422, "note": 62, "velocity": 87, "channel": 0}, {"type": "note_on", "time": 499, "note": 67, "velocity": 115, "channel": 0}, {"type": "note_off", "time": 1313, "note": 67, "velocity": 115, "channel": 0}, {"type": "note_on", "time": 69, "note": 62, "velocity": 96, "channel": 0}, {"type": "note_off", "time": 583, "note": 62, "velocity": 96, "channel": 0}, {"type": "note_on", "time": 468, "note": 72, "velocity": 112, "channel": 0}, {"type": "note_off", "time": 1282, "note": 72, "velocity": 112, "channel": 0}, {"type": "note_on", "time": 184, "note": 75, "velocity": 111, "channel": 0}, {"type": "note_off", "time": 975, "note": 75, "velocity": 111, "channel": 0}, {"type": "note_on", "time": 215, "note": 74, "velocity": 102, "channel": 0}, {"type": "note_off", "time": 1259, "note": 74, "velocity": 102, "channel": 0}, {"type": "note_on", "time": 230, "note": 67, "velocity": 93, "channel": 0}, {"type": "note_off", "time": 698, "note": 67, "velocity": 93, "channel": 0}, {"type": "note_on", "time": 168, "note": 70, "velocity": 107, "channel": 0}, {"type": "note_off", "time": 1290, "note": 70, "velocity": 107, "channel": 0}, {"type": "note_on", "time": 230, "note": 68, "velocity": 109, "channel": 0}, {"type": "note_off", "time": 744, "note": 68, "velocity": 109, "channel": 0}, {"type": "note_on", "time": 468, "note": 62, "velocity": 90, "channel": 0}, {"type": "note_off", "time": 1128, "note": 62, "velocity": 90, "channel": 0}, {"type": "note_on", "time": 122, "note": 60, "velocity": 98, "channel": 0}, {"type": "note_off", "time": 960, "note": 60, "velocity": 98, "channel": 0}, {"type": "note_on", "time": 668, "note": 65, "velocity": 105, "channel": 0}, {"type": "note_off", "time": 499, "note": 65, "velocity": 105, "channel": 0}, {"type": "note_on", "time": 138, "note": 66, "velocity": 104, "channel": 0}, {"type": "note_off", "time": 752, "note": 66, "velocity": 104, "channel": 0}, {"type": "note_on", "time": 211, "note": 67, "velocity": 95, "channel": 0}, {"type": "note_off", "time": 264, "note": 67, "velocity": 95, "channel": 0}, {"type": "note_on", "time": 108, "note": 68, "velocity": 100, "channel": 0}, {"type": "note_off", "time": 491, "note": 68, "velocity": 100, "channel": 0}, {"type": "note_on", "time": 97, "note": 70, "velocity": 96, "channel": 0}, {"type": "note_off", "time": 896, "note": 70, "velocity": 96, "channel": 0}, {"type": "note_on", "time": 91, "note": 71, "velocity": 110, "channel": 0}, {"type": "note_off", "time": 545, "note": 71, "velocity": 110, "channel": 0}, {"type": "note_on", "time": 588, "note": 69, "velocity": 80, "channel": 0}, {"type": "note_off", "time": 923, "note": 69, "velocity": 80, "channel": 0}, {"type": "note_on", "time": 2516, "note": 68, "velocity": 104, "channel": 0}, {"type": "note_off", "time": 1225, "note": 68, "velocity": 104, "channel": 0}, {"type": "note_on", "time": 421, "note": 63, "velocity": 78, "channel": 0}, {"type": "note_off", "time": 3245, "note": 63, "velocity": 78, "channel": 0}, {"type": "note_on", "time": 12052, "note": 72, "velocity": 109, "channel": 0}, {"type": "note_off", "time": 1447, "note": 72, "velocity": 109, "channel": 0}, {"type": "note_on", "time": 55, "note": 74, "velocity": 112, "channel": 0}, {"type": "note_off", "time": 345, "note": 74, "velocity": 112, "channel": 0}, {"type": "note_on", "time": 61, "note": 72, "velocity": 105, "channel": 0}, {"type": "note_off", "time": 215, "note": 72, "velocity": 105, "channel": 0}, {"type": "note_on", "time": 3, "note": 74, "velocity": 117, "channel": 0}, {"type": "note_off", "time": 222, "note": 74, "velocity": 117, "channel": 0}, {"type": "note_on", "time": 23, "note": 75, "velocity": 120, "channel": 0}, {"type": "note_off", "time": 199, "note": 75, "velocity": 120, "channel": 0}, {"type": "note_on", "time": 46, "note": 74, "velocity": 116, "channel": 0}, {"type": "note_off", "time": 368, "note": 74, "velocity": 116, "channel": 0}, {"type": "note_on", "time": 69, "note": 73, "velocity": 109, "channel": 0}, {"type": "note_off", "time": 249, "note": 73, "velocity": 109, "channel": 0}, {"type": "note_on", "time": 61, "note": 71, "velocity": 110, "channel": 0}, {"type": "note_off", "time": 410, "note": 71, "velocity": 110, "channel": 0}, {"type": "note_on", "time": 49, "note": 70, "velocity": 108, "channel": 0}, {"type": "note_off", "time": 487, "note": 70, "velocity": 108, "channel": 0}, {"type": "note_on", "time": 57, "note": 69, "velocity": 105, "channel": 0}, {"type": "note_off", "time": 568, "note": 69, "velocity": 105, "channel": 0}, {"type": "note_on", "time": 153, "note": 68, "velocity": 103, "channel": 0}, {"type": "note_off", "time": 368, "note": 68, "velocity": 103, "channel": 0}, {"type": "note_on", "time": 43, "note": 67, "velocity": 96, "channel": 0}, {"type": "note_off", "time": 388, "note": 67, "velocity": 96, "channel": 0}, {"type": "note_on", "time": 47, "note": 66, "velocity": 104, "channel": 0}, {"type": "note_off", "time": 393, "note": 66, "velocity": 104, "channel": 0}, {"type": "note_on", "time": 73, "note": 65, "velocity": 99, "channel": 0}, {"type": "note_off", "time": 264, "note": 65, "velocity": 99, "channel": 0}, {"type": "note_on", "time": 47, "note": 63, "velocity": 104, "channel": 0}, {"type": "note_off", "time": 409, "note": 63, "velocity": 104, "channel": 0}, {"type": "note_on", "time": 44, "note": 64, "velocity": 101, "channel": 0}, {"type": "note_off", "time": 277, "note": 64, "velocity": 101, "channel": 0}, {"type": "note_on", "time": 102, "note": 66, "velocity": 111, "channel": 0}, {"type": "note_off", "time": 242, "note": 66, "velocity": 111, "channel": 0}, {"type": "note_on", "time": 44, "note": 65, "velocity": 105, "channel": 0}, {"type": "note_off", "time": 253, "note": 65, "velocity": 105, "channel": 0}, {"type": "note_on", "time": 42, "note": 67, "velocity": 101, "channel": 0}, {"type": "note_off", "time": 314, "note": 67, "velocity": 101, "channel": 0}, {"type": "note_on", "time": 47, "note": 68, "velocity": 101, "channel": 0}, {"type": "note_off", "time": 491, "note": 68, "velocity": 101, "channel": 0}, {"type": "note_on", "time": 121, "note": 69, "velocity": 101, "channel": 0}, {"type": "note_off", "time": 509, "note": 69, "velocity": 101, "channel": 0}, {"type": "note_on", "time": 89, "note": 71, "velocity": 78, "channel": 0}, {"type": "note_off", "time": 308, "note": 71, "velocity": 78, "channel": 0}, {"type": "note_on", "time": 139, "note": 62, "velocity": 92, "channel": 0}, {"type": "note_off", "time": 594, "note": 62, "velocity": 92, "channel": 0}, {"type": "note_on", "time": 10, "note": 65, "velocity": 99, "channel": 0}, {"type": "note_off", "time": 291, "note": 65, "velocity": 99, "channel": 0}, {"type": "note_on", "time": 41, "note": 64, "velocity": 101, "channel": 0}, {"type": "note_off", "time": 264, "note": 64, "velocity": 101, "channel": 0}, {"type": "note_on", "time": 34, "note": 63, "velocity": 86, "channel": 0}, {"type": "note_off", "time": 277, "note": 63, "velocity": 86, "channel": 0}, {"type": "note_on", "time": 116, "note": 59, "velocity": 98, "channel": 0}, {"type": "note_off", "time": 366, "note": 59, "velocity": 98, "channel": 0}, {"type": "note_on", "time": 100, "note": 63, "velocity": 94, "channel": 0}, {"type": "note_off", "time": 799, "note": 63, "velocity": 94, "channel": 0}, {"type": "note_on", "time": 193, "note": 60, "velocity": 99, "channel": 0}, {"type": "note_off", "time": 337, "note": 60, "velocity": 99, "channel": 0}, {"type": "note_on", "time": 111, "note": 62, "velocity": 96, "channel": 0}, {"type": "note_off", "time": 353, "note": 62, "velocity": 96, "channel": 0}, {"type": "note_on", "time": 153, "note": 63, "velocity": 80, "channel": 0}, {"type": "note_off", "time": 376, "note": 63, "velocity": 80, "channel": 0}, {"type": "note_on", "time": 138, "note": 67, "velocity": 86, "channel": 0}, {"type": "note_off", "time": 276, "note": 67, "velocity": 86, "channel": 0}, {"type": "note_on", "time": 1820, "note": 67, "velocity": 117, "channel": 0}, {"type": "note_off", "time": 211, "note": 67, "velocity": 117, "channel": 0}, {"type": "note_on", "time": 42, "note": 66, "velocity": 117, "channel": 0}, {"type": "note_off", "time": 495, "note": 66, "velocity": 117, "channel": 0}, {"type": "note_on", "time": 49, "note": 67, "velocity": 113, "channel": 0}, {"type": "note_off", "time": 238, "note": 67, "velocity": 113, "channel": 0}, {"type": "note_on", "time": 107, "note": 69, "velocity": 108, "channel": 0}, {"type": "note_off", "time": 353, "note": 69, "velocity": 108, "channel": 0}, {"type": "note_on", "time": 99, "note": 71, "velocity": 108, "channel": 0}, {"type": "note_off", "time": 226, "note": 71, "velocity": 108, "channel": 0}, {"type": "note_on", "time": 80, "note": 72, "velocity": 112, "channel": 0}, {"type": "note_off", "time": 272, "note": 72, "velocity": 112, "channel": 0}, {"type": "note_on", "time": 53, "note": 73, "velocity": 110, "channel": 0}, {"type": "note_off", "time": 211, "note": 73, "velocity": 110, "channel": 0}, {"type": "note_on", "time": 53, "note": 75, "velocity": 104, "channel": 0}, {"type": "note_off", "time": 215, "note": 75, "velocity": 104, "channel": 0}, {"type": "note_on", "time": 99, "note": 79, "velocity": 115, "channel": 0}, {"type": "note_off", "time": 422, "note": 79, "velocity": 115, "channel": 0}, {"type": "note_on", "time": 61, "note": 78, "velocity": 119, "channel": 0}, {"type": "note_off", "time": 165, "note": 78, "velocity": 119, "channel": 0}, {"type": "note_on", "time": 46, "note": 77, "velocity": 107, "channel": 0}, {"type": "note_off", "time": 211, "note": 77, "velocity": 107, "channel": 0}, {"type": "note_on", "time": 3, "note": 74, "velocity": 101, "channel": 0}, {"type": "note_off", "time": 341, "note": 74, "velocity": 101, "channel": 0}, {"type": "note_on", "time": 3148, "note": 79, "velocity": 90, "channel": 0}, {"type": "note_off", "time": 1839, "note": 79, "velocity": 90, "channel": 0}, {"type": "note_on", "time": 695, "note": 76, "velocity": 79, "channel": 0}, {"type": "note_off", "time": 933, "note": 76, "velocity": 79, "channel": 0}, {"type": "note_on", "time": 4677, "note": 79, "velocity": 121, "channel": 0}, {"type": "note_off", "time": 1493, "note": 79, "velocity": 121, "channel": 0}, {"type": "note_on", "time": 57, "note": 78, "velocity": 115, "channel": 0}, {"type": "note_off", "time": 560, "note": 78, "velocity": 115, "channel": 0}, {"type": "note_on", "time": 69, "note": 77, "velocity": 121, "channel": 0}, {"type": "note_off", "time": 349, "note": 77, "velocity": 121, "channel": 0}, {"type": "note_on", "time": 119, "note": 76, "velocity": 125, "channel": 0}, {"type": "note_off", "time": 353, "note": 76, "velocity": 125, "channel": 0}, {"type": "note_on", "time": 57, "note": 75, "velocity": 113, "channel": 0}, {"type": "note_off", "time": 480, "note": 75, "velocity": 113, "channel": 0}, {"type": "note_on", "time": 96, "note": 73, "velocity": 103, "channel": 0}, {"type": "note_off", "time": 280, "note": 73, "velocity": 103, "channel": 0}, {"type": "note_on", "time": 80, "note": 72, "velocity": 112, "channel": 0}, {"type": "note_off", "time": 384, "note": 72, "velocity": 112, "channel": 0}, {"type": "note_on", "time": 49, "note": 71, "velocity": 105, "channel": 0}, {"type": "note_off", "time": 422, "note": 71, "velocity": 105, "channel": 0}, {"type": "note_on", "time": 80, "note": 70, "velocity": 104, "channel": 0}, {"type": "note_off", "time": 414, "note": 70, "velocity": 104, "channel": 0}, {"type": "note_on", "time": 103, "note": 69, "velocity": 99, "channel": 0}, {"type": "note_off", "time": 714, "note": 69, "velocity": 99, "channel": 0}, {"type": "note_on", "time": 138, "note": 68, "velocity": 106, "channel": 0}, {"type": "note_off", "time": 568, "note": 68, "velocity": 106, "channel": 0}, {"type": "note_on", "time": 61, "note": 67, "velocity": 95, "channel": 0}, {"type": "note_off", "time": 302, "note": 67, "velocity": 95, "channel": 0}, {"type": "note_on", "time": 80, "note": 66, "velocity": 101, "channel": 0}, {"type": "note_off", "time": 523, "note": 66, "velocity": 101, "channel": 0}, {"type": "note_on", "time": 91, "note": 64, "velocity": 101, "channel": 0}, {"type": "note_off", "time": 210, "note": 64, "velocity": 101, "channel": 0}, {"type": "note_on", "time": 81, "note": 63, "velocity": 98, "channel": 0}, {"type": "note_off", "time": 356, "note": 63, "velocity": 98, "channel": 0}, {"type": "note_on", "time": 59, "note": 60, "velocity": 96, "channel": 0}, {"type": "note_off", "time": 577, "note": 60, "velocity": 96, "channel": 0}, {"type": "note_on", "time": 43, "note": 61, "velocity": 92, "channel": 0}, {"type": "note_off", "time": 318, "note": 61, "velocity": 92, "channel": 0}, {"type": "note_on", "time": 97, "note": 62, "velocity": 94, "channel": 0}, {"type": "note_off", "time": 540, "note": 62, "velocity": 94, "channel": 0}, {"type": "note_on", "time": 486, "note": 68, "velocity": 88, "channel": 0}, {"type": "note_off", "time": 410, "note": 68, "velocity": 88, "channel": 0}, {"type": "note_on", "time": 135, "note": 72, "velocity": 102, "channel": 0}, {"type": "note_off", "time": 178, "note": 72, "velocity": 102, "channel": 0}, {"type": "note_on", "time": 53, "note": 74, "velocity": 101, "channel": 0}, {"type": "note_off", "time": 491, "note": 74, "velocity": 101, "channel": 0}, {"type": "note_on", "time": 97, "note": 76, "velocity": 115, "channel": 0}, {"type": "note_off", "time": 286, "note": 76, "velocity": 115, "channel": 0}, {"type": "note_on", "time": 37, "note": 72, "velocity": 103, "channel": 0}, {"type": "note_off", "time": 691, "note": 72, "velocity": 103, "channel": 0}, {"type": "note_on", "time": 5491, "note": 67, "velocity": 85, "channel": 0}, {"type": "note_off", "time": 826, "note": 67, "velocity": 85, "channel": 0}, {"type": "note_on", "time": 1252, "note": 67, "velocity": 95, "channel": 0}, {"type": "note_off", "time": 610, "note": 67, "velocity": 95, "channel": 0}, {"type": "note_on", "time": 43, "note": 68, "velocity": 98, "channel": 0}, {"type": "note_off", "time": 799, "note": 68, "velocity": 98, "channel": 0}, {"type": "note_on", "time": 437, "note": 70, "velocity": 110, "channel": 0}, {"type": "note_off", "time": 1225, "note": 70, "velocity": 110, "channel": 0}, {"type": "note_on", "time": 518, "note": 71, "velocity": 99, "channel": 0}, {"type": "note_off", "time": 1312, "note": 71, "velocity": 99, "channel": 0}, {"type": "note_on", "time": 183, "note": 71, "velocity": 110, "channel": 0}, {"type": "note_off", "time": 907, "note": 71, "velocity": 110, "channel": 0}, {"type": "note_on", "time": 108, "note": 70, "velocity": 108, "channel": 0}, {"type": "note_off", "time": 405, "note": 70, "velocity": 108, "channel": 0}, {"type": "note_on", "time": 804, "note": 67, "velocity": 77, "channel": 0}, {"type": "note_off", "time": 1031, "note": 67, "velocity": 77, "channel": 0}, {"type": "note_on", "time": 594, "note": 67, "velocity": 76, "channel": 0}, {"type": "note_off", "time": 1063, "note": 67, "velocity": 76, "channel": 0}, {"type": "note_on", "time": 804, "note": 67, "velocity": 87, "channel": 0}, {"type": "note_off", "time": 399, "note": 67, "velocity": 87, "channel": 0}, {"type": "note_on", "time": 102, "note": 68, "velocity": 95, "channel": 0}, {"type": "note_off", "time": 815, "note": 68, "velocity": 95, "channel": 0}, {"type": "note_on", "time": 421, "note": 71, "velocity": 108, "channel": 0}, {"type": "note_off", "time": 1269, "note": 71, "velocity": 108, "channel": 0}, {"type": "note_on", "time": 577, "note": 71, "velocity": 101, "channel": 0}, {"type": "note_off", "time": 1225, "note": 71, "velocity": 101, "channel": 0}, {"type": "note_on", "time": 97, "note": 71, "velocity": 94, "channel": 0}, {"type": "note_off", "time": 809, "note": 71, "velocity": 94, "channel": 0}, {"type": "note_on", "time": 108, "note": 70, "velocity": 86, "channel": 0}, {"type": "note_off", "time": 783, "note": 70, "velocity": 86, "channel": 0}, {"type": "note_on", "time": 145, "note": 67, "velocity": 73, "channel": 0}, {"type": "note_off", "time": 2025, "note": 67, "velocity": 73, "channel": 0}, {"type": "note_on", "time": 4244, "note": 72, "velocity": 104, "channel": 0}, {"type": "note_off", "time": 1571, "note": 72, "velocity": 104, "channel": 0}, {"type": "note_on", "time": 162, "note": 72, "velocity": 109, "channel": 0}, {"type": "note_off", "time": 1236, "note": 72, "velocity": 109, "channel": 0}, {"type": "note_on", "time": 216, "note": 72, "velocity": 110, "channel": 0}, {"type": "note_off", "time": 799, "note": 72, "velocity": 110, "channel": 0}, {"type": "note_on", "time": 151, "note": 70, "velocity": 96, "channel": 0}, {"type": "note_off", "time": 934, "note": 70, "velocity": 96, "channel": 0}, {"type": "note_on", "time": 205, "note": 65, "velocity": 87, "channel": 0}, {"type": "note_off", "time": 1166, "note": 65, "velocity": 87, "channel": 0}, {"type": "note_on", "time": 3585, "note": 74, "velocity": 104, "channel": 0}, {"type": "note_off", "time": 7765, "note": 74, "velocity": 104, "channel": 0}, {"type": "note_on", "time": 3774, "note": 67, "velocity": 105, "channel": 0}, {"type": "note_off", "time": 1360, "note": 67, "velocity": 105, "channel": 0}, {"type": "note_on", "time": 1128, "note": 68, "velocity": 100, "channel": 0}, {"type": "note_off", "time": 2176, "note": 68, "velocity": 100, "channel": 0}, {"type": "note_on", "time": 199, "note": 70, "velocity": 106, "channel": 0}, {"type": "note_off", "time": 993, "note": 70, "velocity": 106, "channel": 0}, {"type": "note_on", "time": 304, "note": 70, "velocity": 107, "channel": 0}, {"type": "note_off", "time": 1063, "note": 70, "velocity": 107, "channel": 0}, {"type": "note_on", "time": 445, "note": 67, "velocity": 89, "channel": 0}, {"type": "note_off", "time": 729, "note": 67, "velocity": 89, "channel": 0}, {"type": "note_on", "time": 2035, "note": 68, "velocity": 102, "channel": 0}, {"type": "note_off", "time": 2488, "note": 68, "velocity": 102, "channel": 0}, {"type": "note_on", "time": 126, "note": 70, "velocity": 101, "channel": 0}, {"type": "note_off", "time": 2054, "note": 70, "velocity": 101, "channel": 0}, {"type": "note_on", "time": 199, "note": 74, "velocity": 109, "channel": 0}, {"type": "note_off", "time": 1163, "note": 74, "velocity": 109, "channel": 0}, {"type": "note_on", "time": 126, "note": 74, "velocity": 102, "channel": 0}, {"type": "note_off", "time": 1221, "note": 74, "velocity": 102, "channel": 0}, {"type": "note_on", "time": 84, "note": 72, "velocity": 109, "channel": 0}, {"type": "note_off", "time": 829, "note": 72, "velocity": 109, "channel": 0}, {"type": "note_on", "time": 1923, "note": 65, "velocity": 76, "channel": 0}, {"type": "note_off", "time": 1989, "note": 65, "velocity": 76, "channel": 0}, {"type": "note_on", "time": 184, "note": 68, "velocity": 94, "channel": 0}, {"type": "note_off", "time": 1966, "note": 68, "velocity": 94, "channel": 0}, {"type": "note_on", "time": 99, "note": 72, "velocity": 112, "channel": 0}, {"type": "note_off", "time": 1443, "note": 72, "velocity": 112, "channel": 0}, {"type": "note_on", "time": 153, "note": 72, "velocity": 113, "channel": 0}, {"type": "note_off", "time": 1102, "note": 72, "velocity": 113, "channel": 0}, {"type": "note_on", "time": 195, "note": 70, "velocity": 104, "channel": 0}, {"type": "note_off", "time": 837, "note": 70, "velocity": 104, "channel": 0}, {"type": "note_on", "time": 1850, "note": 62, "velocity": 81, "channel": 0}, {"type": "note_off", "time": 2231, "note": 62, "velocity": 81, "channel": 0}, {"type": "note_on", "time": 222, "note": 63, "velocity": 86, "channel": 0}, {"type": "note_off", "time": 2077, "note": 63, "velocity": 86, "channel": 0}, {"type": "note_on", "time": 115, "note": 67, "velocity": 90, "channel": 0}, {"type": "note_off", "time": 2058, "note": 67, "velocity": 90, "channel": 0}, {"type": "note_on", "time": 149, "note": 64, "velocity": 88, "channel": 0}, {"type": "note_off", "time": 1109, "note": 64, "velocity": 88, "channel": 0}, {"type": "note_on", "time": 99, "note": 65, "velocity": 86, "channel": 0}, {"type": "note_off", "time": 1543, "note": 65, "velocity": 86, "channel": 0}, {"type": "note_on", "time": 2592, "note": 67, "velocity": 99, "channel": 0}, {"type": "note_off", "time": 2088, "note": 67, "velocity": 99, "channel": 0}, {"type": "note_on", "time": 376, "note": 65, "velocity": 82, "channel": 0}, {"type": "note_off", "time": 852, "note": 65, "velocity": 82, "channel": 0}, {"type": "note_on", "time": 222, "note": 68, "velocity": 112, "channel": 0}, {"type": "note_off", "time": 1436, "note": 68, "velocity": 112, "channel": 0}, {"type": "note_on", "time": 2703, "note": 70, "velocity": 107, "channel": 0}, {"type": "note_off", "time": 2127, "note": 70, "velocity": 107, "channel": 0}, {"type": "note_on", "time": 145, "note": 68, "velocity": 89, "channel": 0}, {"type": "note_off", "time": 848, "note": 68, "velocity": 89, "channel": 0}, {"type": "note_on", "time": 122, "note": 74, "velocity": 97, "channel": 0}, {"type": "note_off", "time": 1274, "note": 74, "velocity": 97, "channel": 0}, {"type": "note_on", "time": 143, "note": 75, "velocity": 92, "channel": 0}, {"type": "note_off", "time": 20023, "note": 75, "velocity": 92, "channel": 0}, {"type": "note_on", "time": 2753, "note": 74, "velocity": 107, "channel": 0}, {"type": "note_off", "time": 502, "note": 74, "velocity": 107, "channel": 0}, {"type": "note_on", "time": 1323, "note": 78, "velocity": 106, "channel": 0}, {"type": "note_off", "time": 977, "note": 78, "velocity": 106, "channel": 0}, {"type": "note_on", "time": 54, "note": 76, "velocity": 114, "channel": 0}, {"type": "note_off", "time": 793, "note": 76, "velocity": 114, "channel": 0}, {"type": "note_on", "time": 3617, "note": 74, "velocity": 102, "channel": 0}, {"type": "note_off", "time": 1809, "note": 74, "velocity": 102, "channel": 0}, {"type": "note_on", "time": 5526, "note": 72, "velocity": 118, "channel": 0}, {"type": "note_off", "time": 1244, "note": 72, "velocity": 118, "channel": 0}, {"type": "note_on", "time": 215, "note": 71, "velocity": 85, "channel": 0}, {"type": "note_off", "time": 890, "note": 71, "velocity": 85, "channel": 0}, {"type": "note_on", "time": 215, "note": 72, "velocity": 97, "channel": 0}, {"type": "note_off", "time": 691, "note": 72, "velocity": 97, "channel": 0}, {"type": "note_on", "time": 491, "note": 79, "velocity": 117, "channel": 0}, {"type": "note_off", "time": 2073, "note": 79, "velocity": 117, "channel": 0}, {"type": "note_on", "time": 315, "note": 74, "velocity": 86, "channel": 0}, {"type": "note_off", "time": 1652, "note": 74, "velocity": 86, "channel": 0}, {"type": "note_on", "time": 685, "note": 72, "velocity": 75, "channel": 0}, {"type": "note_off", "time": 1846, "note": 72, "velocity": 75, "channel": 0}, {"type": "note_on", "time": 1852, "note": 77, "velocity": 99, "channel": 0}, {"type": "note_off", "time": 1036, "note": 77, "velocity": 99, "channel": 0}, {"type": "note_on", "time": 291, "note": 75, "velocity": 109, "channel": 0}, {"type": "note_off", "time": 2143, "note": 75, "velocity": 109, "channel": 0}, {"type": "note_on", "time": 156, "note": 72, "velocity": 108, "channel": 0}, {"type": "note_off", "time": 1106, "note": 72, "velocity": 108, "channel": 0}, {"type": "note_on", "time": 804, "note": 70, "velocity": 99, "channel": 0}, {"type": "note_off", "time": 675, "note": 70, "velocity": 99, "channel": 0}, {"type": "note_on", "time": 4109, "note": 67, "velocity": 111, "channel": 0}, {"type": "note_off", "time": 3412, "note": 67, "velocity": 111, "channel": 0}, {"type": "note_on", "time": 232, "note": 63, "velocity": 99, "channel": 0}, {"type": "note_off", "time": 1296, "note": 63, "velocity": 99, "channel": 0}, {"type": "note_on", "time": 84, "note": 58, "velocity": 85, "channel": 0}, {"type": "note_off", "time": 2419, "note": 58, "velocity": 85, "channel": 0}, {"type": "note_on", "time": 2507, "note": 63, "velocity": 92, "channel": 0}, {"type": "note_off", "time": 631, "note": 63, "velocity": 92, "channel": 0}, {"type": "note_on", "time": 512, "note": 70, "velocity": 111, "channel": 0}, {"type": "note_off", "time": 1479, "note": 70, "velocity": 111, "channel": 0}, {"type": "note_on", "time": 113, "note": 63, "velocity": 88, "channel": 0}, {"type": "note_off", "time": 615, "note": 63, "velocity": 88, "channel": 0}, {"type": "note_on", "time": 0, "note": 72, "velocity": 113, "channel": 0}, {"type": "note_off", "time": 2397, "note": 72, "velocity": 113, "channel": 0}, {"type": "note_on", "time": 259, "note": 75, "velocity": 111, "channel": 0}, {"type": "note_off", "time": 1474, "note": 75, "velocity": 111, "channel": 0}, {"type": "note_on", "time": 280, "note": 70, "velocity": 105, "channel": 0}, {"type": "note_off", "time": 1047, "note": 70, "velocity": 105, "channel": 0}, {"type": "note_on", "time": 2575, "note": 67, "velocity": 73, "channel": 0}, {"type": "note_off", "time": 3483, "note": 67, "velocity": 73, "channel": 0}, {"type": "note_on", "time": 540, "note": 65, "velocity": 78, "channel": 0}, {"type": "note_off", "time": 745, "note": 65, "velocity": 78, "channel": 0}, {"type": "note_on", "time": 448, "note": 62, "velocity": 92, "channel": 0}, {"type": "note_off", "time": 1609, "note": 62, "velocity": 92, "channel": 0}, {"type": "end_of_track", "time": 0}]]}