{"ticks_per_beat": 192, "tracks": [[{"type": "track_name", "name": "Melody", "time": 0}, {"type": "set_tempo", "tempo": 451127, "time": 0}, {"type": "key_signature", "key": "Ab", "time": 0}, {"type": "time_signature", "numerator": 4, "denominator": 4, "clocks_per_click": 24, "notated_32nd_notes_per_beat": 8, "time": 0}, {"type": "note_on", "time": 3112, "note": 60, "velocity": 110, "channel": 0}, {"type": "note_off", "time": 34, "note": 60, "velocity": 110, "channel": 0}, {"type": "note_on", "time": 16, "note": 63, "velocity": 108, "channel": 0}, {"type": "note_off", "time": 139, "note": 63, "velocity": 108, "channel": 0}, {"type": "note_on", "time": 31, "note": 60, "velocity": 102, "channel": 0}, {"type": "note_off", "time": 36, "note": 60, "velocity": 102, "channel": 0}, {"type": "note_on", "time": 4, "note": 63, "velocity": 120, "channel": 0}, {"type": "note_off", "time": 42, "note": 63, "velocity": 120, "channel": 0}, {"type": "note_on", "time": 8, "note": 60, "velocity": 110, "channel": 0}, {"type": "note_off", "time": 99, "note": 60, "velocity": 110, "channel": 0}, {"type": "note_on", "time": 11, "note": 56, "velocity": 107, "channel": 0}, {"type": "note_off", "time": 73, "note": 56, "velocity": 107, "channel": 0}, {"type": "note_on", "time": 9, "note": 53, "velocity": 121, "channel": 0}, {"type": "note_off", "time": 69, "note": 53, "velocity": 121, "channel": 0}, {"type": "note_on", "time": 383, "note": 61, "velocity": 115, "channel": 0}, {"type": "note_off", "time": 43, "note": 61, "velocity": 115, "channel": 0}, {"type": "note_on", "time": 53, "note": 64, "velocity": 117, "channel": 0}, {"type": "note_off", "time": 51, "note": 64, "velocity": 117, "channel": 0}, {"type": "note_on", "time": 46, "note": 61, "velocity": 111, "channel": 0}, {"type": "note_off", "time": 43, "note": 61, "velocity": 111, "channel": 0}, {"type": "note_on", "time": 5, "note": 57, "velocity": 108, "channel": 0}, {"type": "note_off", "time": 81, "note": 57, "velocity": 108, "channel": 0}, {"type": "note_on", "time": 16, "note": 54, "velocity": 104, "channel": 0}, {"type": "note_off", "time": 54, "note": 54, "velocity": 104, "channel": 0}, {"type": "note_on", "time": 33, "note": 60, "velocity": 111, "channel": 0}, {"type": "note_off", "time": 45, "note": 60, "velocity": 111, "channel": 0}, {"type": "note_on", "time": 3, "note": 63, "velocity": 120, "channel": 0}, {"type": "note_off", "time": 51, "note": 63, "velocity": 120, "channel": 0}, {"type": "note_on", "time": 5, "note": 60, "velocity": 113, "channel": 0}, {"type": "note_off", "time": 103, "note": 60, "velocity": 113, "channel": 0}, {"type": "note_on", "time": 486, "note": 60, "velocity": 118, "channel": 0}, {"type": "note_off", "time": 48, "note": 60, "velocity": 118, "channel": 0}, {"type": "note_on", "time": 245, "note": 54, "velocity": 104, "channel": 0}, {"type": "note_off", "time": 36, "note": 54, "velocity": 104, "channel": 0}, {"type": "note_on", "time": 10, "note": 57, "velocity": 112, "channel": 0}, {"type": "note_off", "time": 30, "note": 57, "velocity": 112, "channel": 0}, {"type": "note_on", "time": 9, "note": 61, "velocity": 119, "channel": 0}, {"type": "note_off", "time": 46, "note": 61, "velocity": 119, "channel": 0}, {"type": "note_on", "time": 6, "note": 60, "velocity": 116, "channel": 0}, {"type": "note_off", "time": 43, "note": 60, "velocity": 116, "channel": 0}, {"type": "note_on", "time": 7, "note": 59, "velocity": 104, "channel": 0}, {"type": "note_off", "time": 46, "note": 59, "velocity": 104, "channel": 0}, {"type": "note_on", "time": 6, "note": 61, "velocity": 116, "channel": 0}, {"type": "note_off", "time": 35, "note": 61, "velocity": 116, "channel": 0}, {"type": "note_on", "time": 7, "note": 62, "velocity": 109, "channel": 0}, {"type": "note_off", "time": 37, "note": 62, "velocity": 109, "channel": 0}, {"type": "note_on", "time": 10, "note": 64, "velocity": 120, "channel": 0}, {"type": "note_off", "time": 42, "note": 64, "velocity": 120, "channel": 0}, {"type": "note_on", "time": 5, "note": 65, "velocity": 118, "channel": 0}, {"type": "note_off", "time": 38, "note": 65, "velocity": 118, "channel": 0}, {"type": "note_on", "time": 11, "note": 67, "velocity": 127, "channel": 0}, {"type": "note_off", "time": 42, "note": 67, "velocity": 127, "channel": 0}, {"type": "note_on", "time": 8, "note": 64, "velocity": 109, "channel": 0}, {"type": "note_off", "time": 40, "note": 64, "velocity": 109, "channel": 0}, {"type": "note_on", "time": 11, "note": 62, "velocity": 111, "channel": 0}, {"type": "note_off", "time": 37, "note": 62, "velocity": 111, "channel": 0}, {"type": "note_on", "time": 16, "note": 60, "velocity": 84, "channel": 0}, {"type": "note_off", "time": 39, "note": 60, "velocity": 84, "channel": 0}, {"type": "note_on", "time": 9, "note": 61, "velocity": 97, "channel": 0}, {"type": "note_off", "time": 41, "note": 61, "velocity": 97, "channel": 0}, {"type": "note_on", "time": 55, "note": 66, "velocity": 103, "channel": 0}, {"type": "note_off", "time": 40, "note": 66, "velocity": 103, "channel": 0}, {"type": "note_on", "time": 56, "note": 69, "velocity": 117, "channel": 0}, {"type": "note_off", "time": 39, "note": 69, "velocity": 117, "channel": 0}, {"type": "note_on", "time": 6, "note": 68, "velocity": 115, "channel": 0}, {"type": "note_off", "time": 37, "note": 68, "velocity": 115, "channel": 0}, {"type": "note_on", "time": 13, "note": 66, "velocity": 122, "channel": 0}, {"type": "note_off", "time": 33, "note": 66, "velocity": 122, "channel": 0}, {"type": "note_on", "time": 11, "note": 64, "velocity": 105, "channel": 0}, {"type": "note_off", "time": 36, "note": 64, "velocity": 105, "channel": 0}, {"type": "note_on", "time": 13, "note": 61, "velocity": 115, "channel": 0}, {"type": "note_off", "time": 36, "note": 61, "velocity": 115, "channel": 0}, {"type": "note_on", "time": 14, "note": 59, "velocity": 98, "channel": 0}, {"type": "note_off", "time": 38, "note": 59, "velocity": 98, "channel": 0}, {"type": "note_on", "time": 9, "note": 57, "velocity": 110, "channel": 0}, {"type": "note_off", "time": 30, "note": 57, "velocity": 110, "channel": 0}, {"type": "note_on", "time": 8, "note": 56, "velocity": 105, "channel": 0}, {"type": "note_off", "time": 42, "note": 56, "velocity": 105, "channel": 0}, {"type": "note_on", "time": 9, "note": 54, "velocity": 119, "channel": 0}, {"type": "note_off", "time": 48, "note": 54, "velocity": 119, "channel": 0}, {"type": "note_on", "time": 13, "note": 52, "velocity": 104, "channel": 0}, {"type": "note_off", "time": 62, "note": 52, "velocity": 104, "channel": 0}, {"type": "note_on", "time": 120, "note": 71, "velocity": 106, "channel": 0}, {"type": "note_off", "time": 35, "note": 71, "velocity": 106, "channel": 0}, {"type": "note_on", "time": 13, "note": 69, "velocity": 114, "channel": 0}, {"type": "note_off", "time": 37, "note": 69, "velocity": 114, "channel": 0}, {"type": "note_on", "time": 12, "note": 68, "velocity": 109, "channel": 0}, {"type": "note_off", "time": 43, "note": 68, "velocity": 109, "channel": 0}, {"type": "note_on", "time": 13, "note": 66, "velocity": 96, "channel": 0}, {"type": "note_off", "time": 32, "note": 66, "velocity": 96, "channel": 0}, {"type": "note_on", "time": 68, "note": 61, "velocity": 95, "channel": 0}, {"type": "note_off", "time": 24, "note": 61, "velocity": 95, "channel": 0}, {"type": "note_on", "time": 9, "note": 63, "velocity": 114, "channel": 0}, {"type": "note_off", "time": 42, "note": 63, "velocity": 114, "channel": 0}, {"type": "note_on", "time": 12, "note": 61, "velocity": 109, "channel": 0}, {"type": "note_off", "time": 27, "note": 61, "velocity": 109, "channel": 0}, {"type": "note_on", "time": 22, "note": 58, "velocity": 87, "channel": 0}, {"type": "note_off", "time": 40, "note": 58, "velocity": 87, "channel": 0}, {"type": "note_on", "time": 11, "note": 59, "velocity": 106, "channel": 0}, {"type": "note_off", "time": 33, "note": 59, "velocity": 106, "channel": 0}, {"type": "note_on", "time": 11, "note": 60, "velocity": 98, "channel": 0}, {"type": "note_off", "time": 28, "note": 60, "velocity": 98, "channel": 0}, {"type": "note_on", "time": 11, "note": 63, "velocity": 118, "channel": 0}, {"type": "note_off", "time": 42, "note": 63, "velocity": 118, "channel": 0}, {"type": "note_on", "time": 6, "note": 66, "velocity": 103, "channel": 0}, {"type": "note_off", "time": 33, "note": 66, "velocity": 103, "channel": 0}, {"type": "note_on", "time": 15, "note": 67, "velocity": 120, "channel": 0}, {"type": "note_off", "time": 39, "note": 67, "velocity": 120, "channel": 0}, {"type": "note_on", "time": 5, "note": 66, "velocity": 113, "channel": 0}, {"type": "note_off", "time": 34, "note": 66, "velocity": 113, "channel": 0}, {"type": "note_on", "time": 13, "note": 64, "velocity": 117, "channel": 0}, {"type": "note_off", "time": 42, "note": 64, "velocity": 117, "channel": 0}, {"type": "note_on", "time": 8, "note": 62, "velocity": 110, "channel": 0}, {"type": "note_off", "time": 51, "note": 62, "velocity": 110, "channel": 0}, {"type": "note_on", "time": 7, "note": 59, "velocity": 94, "channel": 0}, {"type": "note_off", "time": 31, "note": 59, "velocity": 94, "channel": 0}, {"type": "note_on", "time": 5, "note": 57, "velocity": 95, "channel": 0}, {"type": "note_off", "time": 47, "note": 57, "velocity": 95, "channel": 0}, {"type": "note_on", "time": 11, "note": 55, "velocity": 98, "channel": 0}, {"type": "note_off", "time": 33, "note": 55, "velocity": 98, "channel": 0}, {"type": "note_on", "time": 16, "note": 54, "velocity": 102, "channel": 0}, {"type": "note_off", "time": 29, "note": 54, "velocity": 102, "channel": 0}, {"type": "note_on", "time": 17, "note": 52, "velocity": 100, "channel": 0}, {"type": "note_off", "time": 32, "note": 52, "velocity": 100, "channel": 0}, {"type": "note_on", "time": 9, "note": 59, "velocity": 109, "channel": 0}, {"type": "note_off", "time": 39, "note": 59, "velocity": 109, "channel": 0}, {"type": "note_on", "time": 13, "note": 59, "velocity": 108, "channel": 0}, {"type": "note_off", "time": 84, "note": 59, "velocity": 108, "channel": 0}, {"type": "note_on", "time": 336, "note": 69, "velocity": 117, "channel": 0}, {"type": "note_off", "time": 43, "note": 69, "velocity": 117, "channel": 0}, {"type": "note_on", "time": 10, "note": 67, "velocity": 105, "channel": 0}, {"type": "note_off", "time": 42, "note": 67, "velocity": 105, "channel": 0}, {"type": "note_on", "time": 12, "note": 66, "velocity": 106, "channel": 0}, {"type": "note_off", "time": 30, "note": 66, "velocity": 106, "channel": 0}, {"type": "note_on", "time": 7, "note": 64, "velocity": 116, "channel": 0}, {"type": "note_off", "time": 40, "note": 64, "velocity": 116, "channel": 0}, {"type": "note_on", "time": 12, "note": 62, "velocity": 103, "channel": 0}, {"type": "note_off", "time": 39, "note": 62, "velocity": 103, "channel": 0}, {"type": "note_on", "time": 16, "note": 59, "velocity": 93, "channel": 0}, {"type": "note_off", "time": 37, "note": 59, "velocity": 93, "channel": 0}, {"type": "note_on", "time": 3, "note": 61, "velocity": 115, "channel": 0}, {"type": "note_off", "time": 46, "note": 61, "velocity": 115, "channel": 0}, {"type": "note_on", "time": 9, "note": 59, "velocity": 109, "channel": 0}, {"type": "note_off", "time": 34, "note": 59, "velocity": 109, "channel": 0}, {"type": "note_on", "time": 10, "note": 56, "velocity": 103, "channel": 0}, {"type": "note_off", "time": 39, "note": 56, "velocity": 103, "channel": 0}, {"type": "note_on", "time": 12, "note": 57, "velocity": 103, "channel": 0}, {"type": "note_off", "time": 36, "note": 57, "velocity": 103, "channel": 0}, {"type": "note_on", "time": 12, "note": 52, "velocity": 109, "channel": 0}, {"type": "note_off", "time": 38, "note": 52, "velocity": 109, "channel": 0}, {"type": "note_on", "time": 4, "note": 53, "velocity": 109, "channel": 0}, {"type": "note_off", "time": 35, "note": 53, "velocity": 109, "channel": 0}, {"type": "note_on", "time": 8, "note": 57, "velocity": 107, "channel": 0}, {"type": "note_off", "time": 39, "note": 57, "velocity": 107, "channel": 0}, {"type": "note_on", "time": 6, "note": 62, "velocity": 124, "channel": 0}, {"type": "note_off", "time": 42, "note": 62, "velocity": 124, "channel": 0}, {"type": "note_on", "time": 5, "note": 61, "velocity": 113, "channel": 0}, {"type": "note_off", "time": 45, "note": 61, "velocity": 113, "channel": 0}, {"type": "note_on", "time": 6, "note": 59, "velocity": 105, "channel": 0}, {"type": "note_off", "time": 34, "note": 59, "velocity": 105, "channel": 0}, {"type": "note_on", "time": 12, "note": 57, "velocity": 94, "channel": 0}, {"type": "note_off", "time": 40, "note": 57, "velocity": 94, "channel": 0}, {"type": "note_on", "time": 9, "note": 53, "velocity": 96, "channel": 0}, {"type": "note_off", "time": 36, "note": 53, "velocity": 96, "channel": 0}, {"type": "note_on", "time": 9, "note": 56, "velocity": 102, "channel": 0}, {"type": "note_off", "time": 45, "note": 56, "velocity": 102, "channel": 0}, {"type": "note_on", "time": 11, "note": 53, "velocity": 112, "channel": 0}, {"type": "note_off", "time": 31, "note": 53, "velocity": 112, "channel": 0}, {"type": "note_on", "time": 6, "note": 54, "velocity": 95, "channel": 0}, {"type": "note_off", "time": 40, "note": 54, "velocity": 95, "channel": 0}, {"type": "note_on", "time": 6, "note": 56, "velocity": 120, "channel": 0}, {"type": "note_off", "time": 47, "note": 56, "velocity": 120, "channel": 0}, {"type": "note_on", "time": 6, "note": 57, "velocity": 97, "channel": 0}, {"type": "note_off", "time": 35, "note": 57, "velocity": 97, "channel": 0}, {"type": "note_on", "time": 11, "note": 59, "velocity": 110, "channel": 0}, {"type": "note_off", "time": 36, "note": 59, "velocity": 110, "channel": 0}, {"type": "note_on", "time": 9, "note": 61, "velocity": 103, "channel": 0}, {"type": "note_off", "time": 36, "note": 61, "velocity": 103, "channel": 0}, {"type": "note_on", "time": 12, "note": 64, "velocity": 108, "channel": 0}, {"type": "note_off", "time": 34, "note": 64, "velocity": 108, "channel": 0}, {"type": "note_on", "time": 4, "note": 67, "velocity": 117, "channel": 0}, {"type": "note_off", "time": 39, "note": 67, "velocity": 117, "channel": 0}, {"type": "note_on", "time": 12, "note": 68, "velocity": 122, "channel": 0}, {"type": "note_off", "time": 39, "note": 68, "velocity": 122, "channel": 0}, {"type": "note_on", "time": 8, "note": 66, "velocity": 109, "channel": 0}, {"type": "note_off", "time": 42, "note": 66, "velocity": 109, "channel": 0}, {"type": "note_on", "time": 10, "note": 64, "velocity": 97, "channel": 0}, {"type": "note_off", "time": 39, "note": 64, "velocity": 97, "channel": 0}, {"type": "note_on", "time": 8, "note": 68, "velocity": 108, "channel": 0}, {"type": "note_off", "time": 44, "note": 68, "velocity": 108, "channel": 0}, {"type": "note_on", "time": 6, "note": 69, "velocity": 112, "channel": 0}, {"type": "note_off", "time": 34, "note": 69, "velocity": 112, "channel": 0}, {"type": "note_on", "time": 6, "note": 67, "velocity": 117, "channel": 0}, {"type": "note_off", "time": 38, "note": 67, "velocity": 117, "channel": 0}, {"type": "note_on", "time": 10, "note": 65, "velocity": 121, "channel": 0}, {"type": "note_off", "time": 43, "note": 65, "velocity": 121, "channel": 0}, {"type": "note_on", "time": 6, "note": 64, "velocity": 98, "channel": 0}, {"type": "note_off", "time": 36, "note": 64, "velocity": 98, "channel": 0}, {"type": "note_on", "time": 9, "note": 62, "velocity": 123, "channel": 0}, {"type": "note_off", "time": 44, "note": 62, "velocity": 123, "channel": 0}, {"type": "note_on", "time": 8, "note": 60, "velocity": 105, "channel": 0}, {"type": "note_off", "time": 40, "note": 60, "velocity": 105, "channel": 0}, {"type": "note_on", "time": 7, "note": 57, "velocity": 107, "channel": 0}, {"type": "note_off", "time": 38, "note": 57, "velocity": 107, "channel": 0}, {"type": "note_on", "time": 5, "note": 58, "velocity": 100, "channel": 0}, {"type": "note_off", "time": 40, "note": 58, "velocity": 100, "channel": 0}, {"type": "note_on", "time": 4, "note": 62, "velocity": 116, "channel": 0}, {"type": "note_off", "time": 46, "note": 62, "velocity": 116, "channel": 0}, {"type": "note_on", "time": 99, "note": 62, "velocity": 113, "channel": 0}, {"type": "note_off", "time": 42, "note": 62, "velocity": 113, "channel": 0}, {"type": "note_on", "time": 12, "note": 64, "velocity": 114, "channel": 0}, {"type": "note_off", "time": 37, "note": 64, "velocity": 114, "channel": 0}, {"type": "note_on", "time": 5, "note": 61, "velocity": 114, "channel": 0}, {"type": "note_off", "time": 46, "note": 61, "velocity": 114, "channel": 0}, {"type": "note_on", "time": 7, "note": 59, "velocity": 113, "channel": 0}, {"type": "note_off", "time": 42, "note": 59, "velocity": 113, "channel": 0}, {"type": "note_on", "time": 6, "note": 57, "velocity": 96, "channel": 0}, {"type": "note_off", "time": 36, "note": 57, "velocity": 96, "channel": 0}, {"type": "note_on", "time": 7, "note": 61, "velocity": 106, "channel": 0}, {"type": "note_off", "time": 41, "note": 61, "velocity": 106, "channel": 0}, {"type": "note_on", "time": 6, "note": 64, "velocity": 89, "channel": 0}, {"type": "note_off", "time": 38, "note": 64, "velocity": 89, "channel": 0}, {"type": "note_on", "time": 11, "note": 68, "velocity": 79, "channel": 0}, {"type": "note_off", "time": 29, "note": 68, "velocity": 79, "channel": 0}, {"type": "note_on", "time": 9, "note": 71, "velocity": 112, "channel": 0}, {"type": "note_off", "time": 43, "note": 71, "velocity": 112, "channel": 0}, {"type": "note_on", "time": 3, "note": 70, "velocity": 96, "channel": 0}, {"type": "note_off", "time": 40, "note": 70, "velocity": 96, "channel": 0}, {"type": "note_on", "time": 7, "note": 69, "velocity": 118, "channel": 0}, {"type": "note_off", "time": 59, "note": 69, "velocity": 118, "channel": 0}, {"type": "note_on", "time": 9, "note": 61, "velocity": 104, "channel": 0}, {"type": "note_off", "time": 53, "note": 61, "velocity": 104, "channel": 0}, {"type": "note_on", "time": 660, "note": 72, "velocity": 107, "channel": 0}, {"type": "note_off", "time": 39, "note": 72, "velocity": 107, "channel": 0}, {"type": "note_on", "time": 9, "note": 71, "velocity": 94, "channel": 0}, {"type": "note_off", "time": 44, "note": 71, "velocity": 94, "channel": 0}, {"type": "note_on", "time": 5, "note": 70, "velocity": 107, "channel": 0}, {"type": "note_off", "time": 33, "note": 70, "velocity": 107, "channel": 0}, {"type": "note_on", "time": 7, "note": 69, "velocity": 102, "channel": 0}, {"type": "note_off", "time": 46, "note": 69, "velocity": 102, "channel": 0}, {"type": "note_on", "time": 4, "note": 67, "velocity": 107, "channel": 0}, {"type": "note_off", "time": 43, "note": 67, "velocity": 107, "channel": 0}, {"type": "note_on", "time": 9, "note": 65, "velocity": 110, "channel": 0}, {"type": "note_off", "time": 41, "note": 65, "velocity": 110, "channel": 0}, {"type": "note_on", "time": 7, "note": 64, "velocity": 94, "channel": 0}, {"type": "note_off", "time": 49, "note": 64, "velocity": 94, "channel": 0}, {"type": "note_on", "time": 5, "note": 62, "velocity": 108, "channel": 0}, {"type": "note_off", "time": 36, "note": 62, "velocity": 108, "channel": 0}, {"type": "note_on", "time": 6, "note": 60, "velocity": 92, "channel": 0}, {"type": "note_off", "time": 43, "note": 60, "velocity": 92, "channel": 0}, {"type": "note_on", "time": 8, "note": 58, "velocity": 100, "channel": 0}, {"type": "note_off", "time": 39, "note": 58, "velocity": 100, "channel": 0}, {"type": "note_on", "time": 13, "note": 57, "velocity": 93, "channel": 0}, {"type": "note_off", "time": 31, "note": 57, "velocity": 93, "channel": 0}, {"type": "note_on", "time": 18, "note": 57, "velocity": 87, "channel": 0}, {"type": "note_off", "time": 29, "note": 57, "velocity": 87, "channel": 0}, {"type": "note_on", "time": 19, "note": 60, "velocity": 100, "channel": 0}, {"type": "note_off", "time": 42, "note": 60, "velocity": 100, "channel": 0}, {"type": "note_on", "time": 6, "note": 62, "velocity": 94, "channel": 0}, {"type": "note_off", "time": 32, "note": 62, "velocity": 94, "channel": 0}, {"type": "note_on", "time": 6, "note": 64, "velocity": 116, "channel": 0}, {"type": "note_off", "time": 35, "note": 64, "velocity": 116, "channel": 0}, {"type": "note_on", "time": 14, "note": 64, "velocity": 110, "channel": 0}, {"type": "note_off", "time": 42, "note": 64, "velocity": 110, "channel": 0}, {"type": "note_on", "time": 63, "note": 62, "velocity": 93, "channel": 0}, {"type": "note_off", "time": 33, "note": 62, "velocity": 93, "channel": 0}, {"type": "note_on", "time": 5, "note": 64, "velocity": 109, "channel": 0}, {"type": "note_off", "time": 29, "note": 64, "velocity": 109, "channel": 0}, {"type": "note_on", "time": 15, "note": 64, "velocity": 109, "channel": 0}, {"type": "note_off", "time": 44, "note": 64, "velocity": 109, "channel": 0}, {"type": "note_on", "time": 7, "note": 62, "velocity": 105, "channel": 0}, {"type": "note_off", "time": 38, "note": 62, "velocity": 105, "channel": 0}, {"type": "note_on", "time": 4, "note": 64, "velocity": 114, "channel": 0}, {"type": "note_off", "time": 63, "note": 64, "velocity": 114, "channel": 0}, {"type": "note_on", "time": 257, "note": 67, "velocity": 121, "channel": 0}, {"type": "note_off", "time": 40, "note": 67, "velocity": 121, "channel": 0}, {"type": "note_on", "time": 13, "note": 65, "velocity": 106, "channel": 0}, {"type": "note_off", "time": 38, "note": 65, "velocity": 106, "channel": 0}, {"type": "note_on", "time": 15, "note": 64, "velocity": 97, "channel": 0}, {"type": "note_off", "time": 134, "note": 64, "velocity": 97, "channel": 0}, {"type": "note_on", "time": 20, "note": 62, "velocity": 98, "channel": 0}, {"type": "note_off", "time": 38, "note": 62, "velocity": 98, "channel": 0}, {"type": "note_on", "time": 8, "note": 61, "velocity": 109, "channel": 0}, {"type": "note_off", "time": 107, "note": 61, "velocity": 109, "channel": 0}, {"type": "note_on", "time": 21, "note": 70, "velocity": 108, "channel": 0}, {"type": "note_off", "time": 44, "note": 70, "velocity": 108, "channel": 0}, {"type": "note_on", "time": 14, "note": 69, "velocity": 106, "channel": 0}, {"type": "note_off", "time": 122, "note": 69, "velocity": 106, "channel": 0}, {"type": "note_on", "time": 23, "note": 67, "velocity": 113, "channel": 0}, {"type": "note_off", "time": 42, "note": 67, "velocity": 113, "channel": 0}, {"type": "note_on", "time": 9, "note": 65, "velocity": 112, "channel": 0}, {"type": "note_off", "time": 58, "note": 65, "velocity": 112, "channel": 0}, {"type": "note_on", "time": 56, "note": 57, "velocity": 80, "channel": 0}, {"type": "note_off", "time": 29, "note": 57, "velocity": 80, "channel": 0}, {"type": "note_on", "time": 3, "note": 62, "velocity": 104, "channel": 0}, {"type": "note_off", "time": 33, "note": 62, "velocity": 104, "channel": 0}, {"type": "note_on", "time": 9, "note": 64, "velocity": 108, "channel": 0}, {"type": "note_off", "time": 39, "note": 64, "velocity": 108, "channel": 0}, {"type": "note_on", "time": 9, "note": 67, "velocity": 117, "channel": 0}, {"type": "note_off", "time": 37, "note": 67, "velocity": 117, "channel": 0}, {"type": "note_on", "time": 5, "note": 64, "velocity": 112, "channel": 0}, {"type": "note_off", "time": 39, "note": 64, "velocity": 112, "channel": 0}, {"type": "note_on", "time": 9, "note": 63, "velocity": 113, "channel": 0}, {"type": "note_off", "time": 46, "note": 63, "velocity": 113, "channel": 0}, {"type": "note_on", "time": 6, "note": 62, "velocity": 107, "channel": 0}, {"type": "note_off", "time": 39, "note": 62, "velocity": 107, "channel": 0}, {"type": "note_on", "time": 9, "note": 60, "velocity": 95, "channel": 0}, {"type": "note_off", "time": 30, "note": 60, "velocity": 95, "channel": 0}, {"type": "note_on", "time": 9, "note": 57, "velocity": 95, "channel": 0}, {"type": "note_off", "time": 50, "note": 57, "velocity": 95, "channel": 0}, {"type": "note_on", "time": 7, "note": 58, "velocity": 97, "channel": 0}, {"type": "note_off", "time": 35, "note": 58, "velocity": 97, "channel": 0}, {"type": "note_on", "time": 11, "note": 59, "velocity": 100, "channel": 0}, {"type": "note_off", "time": 34, "note": 59, "velocity": 100, "channel": 0}, {"type": "note_on", "time": 8, "note": 62, "velocity": 119, "channel": 0}, {"type": "note_off", "time": 36, "note": 62, "velocity": 119, "channel": 0}, {"type": "note_on", "time": 3, "note": 65, "velocity": 103, "channel": 0}, {"type": "note_off", "time": 37, "note": 65, "velocity": 103, "channel": 0}, {"type": "note_on", "time": 9, "note": 69, "velocity": 112, "channel": 0}, {"type": "note_off", "time": 42, "note": 69, "velocity": 112, "channel": 0}, {"type": "note_on", "time": 6, "note": 67, "velocity": 103, "channel": 0}, {"type": "note_off", "time": 33, "note": 67, "velocity": 103, "channel": 0}, {"type": "note_on", "time": 12, "note": 64, "velocity": 113, "channel": 0}, {"type": "note_off", "time": 51, "note": 64, "velocity": 113, "channel": 0}, {"type": "note_on", "time": 53, "note": 55, "velocity": 97, "channel": 0}, {"type": "note_off", "time": 37, "note": 55, "velocity": 97, "channel": 0}, {"type": "note_on", "time": 9, "note": 57, "velocity": 105, "channel": 0}, {"type": "note_off", "time": 46, "note": 57, "velocity": 105, "channel": 0}, {"type": "note_on", "time": 3, "note": 53, "velocity": 112, "channel": 0}, {"type": "note_off", "time": 49, "note": 53, "velocity": 112, "channel": 0}, {"type": "note_on", "time": 48, "note": 50, "velocity": 103, "channel": 0}, {"type": "note_off", "time": 33, "note": 50, "velocity": 103, "channel": 0}, {"type": "note_on", "time": 9, "note": 52, "velocity": 107, "channel": 0}, {"type": "note_off", "time": 35, "note": 52, "velocity": 107, "channel": 0}, {"type": "note_on", "time": 8, "note": 53, "velocity": 109, "channel": 0}, {"type": "note_off", "time": 33, "note": 53, "velocity": 109, "channel": 0}, {"type": "note_on", "time": 9, "note": 50, "velocity": 105, "channel": 0}, {"type": "note_off", "time": 36, "note": 50, "velocity": 105, "channel": 0}, {"type": "note_on", "time": 10, "note": 52, "velocity": 105, "channel": 0}, {"type": "note_off", "time": 42, "note": 52, "velocity": 105, "channel": 0}, {"type": "note_on", "time": 7, "note": 50, "velocity": 105, "channel": 0}, {"type": "note_off", "time": 45, "note": 50, "velocity": 105, "channel": 0}, {"type": "note_on", "time": 8, "note": 53, "velocity": 111, "channel": 0}, {"type": "note_off", "time": 33, "note": 53, "velocity": 111, "channel": 0}, {"type": "note_on", "time": 6, "note": 57, "velocity": 103, "channel": 0}, {"type": "note_off", "time": 35, "note": 57, "velocity": 103, "channel": 0}, {"type": "note_on", "time": 6, "note": 60, "velocity": 111, "channel": 0}, {"type": "note_off", "time": 35, "note": 60, "velocity": 111, "channel": 0}, {"type": "note_on", "time": 12, "note": 58, "velocity": 97, "channel": 0}, {"type": "note_off", "time": 37, "note": 58, "velocity": 97, "channel": 0}, {"type": "note_on", "time": 8, "note": 59, "velocity": 106, "channel": 0}, {"type": "note_off", "time": 30, "note": 59, "velocity": 106, "channel": 0}, {"type": "note_on", "time": 6, "note": 62, "velocity": 117, "channel": 0}, {"type": "note_off", "time": 42, "note": 62, "velocity": 117, "channel": 0}, {"type": "note_on", "time": 9, "note": 68, "velocity": 118, "channel": 0}, {"type": "note_off", "time": 41, "note": 68, "velocity": 118, "channel": 0}, {"type": "note_on", "time": 9, "note": 67, "velocity": 113, "channel": 0}, {"type": "note_off", "time": 37, "note": 67, "velocity": 113, "channel": 0}, {"type": "note_on", "time": 6, "note": 63, "velocity": 108, "channel": 0}, {"type": "note_off", "time": 37, "note": 63, "velocity": 108, "channel": 0}, {"type": "note_on", "time": 6, "note": 62, "velocity": 100, "channel": 0}, {"type": "note_off", "time": 51, "note": 62, "velocity": 100, "channel": 0}, {"type": "note_on", "time": 50, "note": 65, "velocity": 114, "channel": 0}, {"type": "note_off", "time": 41, "note": 65, "velocity": 114, "channel": 0}, {"type": "note_on", "time": 2, "note": 64, "velocity": 109, "channel": 0}, {"type": "note_off", "time": 39, "note": 64, "velocity": 109, "channel": 0}, {"type": "note_on", "time": 3, "note": 63, "velocity": 107, "channel": 0}, {"type": "note_off", "time": 44, "note": 63, "velocity": 107, "channel": 0}, {"type": "note_on", "time": 6, "note": 65, "velocity": 117, "channel": 0}, {"type": "note_off", "time": 46, "note": 65, "velocity": 117, "channel": 0}, {"type": "note_on", "time": 3, "note": 62, "velocity": 111, "channel": 0}, {"type": "note_off", "time": 44, "note": 62, "velocity": 111, "channel": 0}, {"type": "note_on", "time": 2, "note": 60, "velocity": 99, "channel": 0}, {"type": "note_off", "time": 45, "note": 60, "velocity": 99, "channel": 0}, {"type": "note_on", "time": 6, "note": 58, "velocity": 95, "channel": 0}, {"type": "note_off", "time": 39, "note": 58, "velocity": 95, "channel": 0}, {"type": "note_on", "time": 4, "note": 55, "velocity": 98, "channel": 0}, {"type": "note_off", "time": 35, "note": 55, "velocity": 98, "channel": 0}, {"type": "note_on", "time": 13, "note": 57, "velocity": 102, "channel": 0}, {"type": "note_off", "time": 42, "note": 57, "velocity": 102, "channel": 0}, {"type": "note_on", "time": 8, "note": 60, "velocity": 121, "channel": 0}, {"type": "note_off", "time": 45, "note": 60, "velocity": 121, "channel": 0}, {"type": "note_on", "time": 6, "note": 53, "velocity": 98, "channel": 0}, {"type": "note_off", "time": 41, "note": 53, "velocity": 98, "channel": 0}, {"type": "note_on", "time": 5, "note": 52, "velocity": 114, "channel": 0}, {"type": "note_off", "time": 35, "note": 52, "velocity": 114, "channel": 0}, {"type": "note_on", "time": 9, "note": 51, "velocity": 103, "channel": 0}, {"type": "note_off", "time": 45, "note": 51, "velocity": 103, "channel": 0}, {"type": "note_on", "time": 437, "note": 74, "velocity": 112, "channel": 0}, {"type": "note_off", "time": 42, "note": 74, "velocity": 112, "channel": 0}, {"type": "note_on", "time": 6, "note": 73, "velocity": 102, "channel": 0}, {"type": "note_off", "time": 38, "note": 73, "velocity": 102, "channel": 0}, {"type": "note_on", "time": 8, "note": 72, "velocity": 101, "channel": 0}, {"type": "note_off", "time": 34, "note": 72, "velocity": 101, "channel": 0}, {"type": "note_on", "time": 10, "note": 70, "velocity": 117, "channel": 0}, {"type": "note_off", "time": 37, "note": 70, "velocity": 117, "channel": 0}, {"type": "note_on", "time": 7, "note": 69, "velocity": 117, "channel": 0}, {"type": "note_off", "time": 39, "note": 69, "velocity": 117, "channel": 0}, {"type": "note_on", "time": 9, "note": 67, "velocity": 118, "channel": 0}, {"type": "note_off", "time": 37, "note": 67, "velocity": 118, "channel": 0}, {"type": "note_on", "time": 8, "note": 66, "velocity": 105, "channel": 0}, {"type": "note_off", "time": 43, "note": 66, "velocity": 105, "channel": 0}, {"type": "note_on", "time": 9, "note": 63, "velocity": 102, "channel": 0}, {"type": "note_off", "time": 45, "note": 63, "velocity": 102, "channel": 0}, {"type": "note_on", "time": 6, "note": 62, "velocity": 95, "channel": 0}, {"type": "note_off", "time": 37, "note": 62, "velocity": 95, "channel": 0}, {"type": "note_on", "time": 6, "note": 60, "velocity": 108, "channel": 0}, {"type": "note_off", "time": 43, "note": 60, "velocity": 108, "channel": 0}, {"type": "note_on", "time": 5, "note": 57, "velocity": 91, "channel": 0}, {"type": "note_off", "time": 38, "note": 57, "velocity": 91, "channel": 0}, {"type": "note_on", "time": 4, "note": 55, "velocity": 109, "channel": 0}, {"type": "note_off", "time": 42, "note": 55, "velocity": 109, "channel": 0}, {"type": "note_on", "time": 76, "note": 53, "velocity": 107, "channel": 0}, {"type": "note_off", "time": 30, "note": 53, "velocity": 107, "channel": 0}, {"type": "note_on", "time": 9, "note": 57, "velocity": 98, "channel": 0}, {"type": "note_off", "time": 42, "note": 57, "velocity": 98, "channel": 0}, {"type": "note_on", "time": 5, "note": 60, "velocity": 91, "channel": 0}, {"type": "note_off", "time": 31, "note": 60, "velocity": 91, "channel": 0}, {"type": "note_on", "time": 7, "note": 62, "velocity": 92, "channel": 0}, {"type": "note_off", "time": 46, "note": 62, "velocity": 92, "channel": 0}, {"type": "note_on", "time": 3, "note": 63, "velocity": 108, "channel": 0}, {"type": "note_off", "time": 34, "note": 63, "velocity": 108, "channel": 0}, {"type": "note_on", "time": 4, "note": 62, "velocity": 102, "channel": 0}, {"type": "note_off", "time": 50, "note": 62, "velocity": 102, "channel": 0}, {"type": "note_on", "time": 3, "note": 60, "velocity": 111, "channel": 0}, {"type": "note_off", "time": 35, "note": 60, "velocity": 111, "channel": 0}, {"type": "note_on", "time": 10, "note": 59, "velocity": 100, "channel": 0}, {"type": "note_off", "time": 33, "note": 59, "velocity": 100, "channel": 0}, {"type": "note_on", "time": 17, "note": 57, "velocity": 104, "channel": 0}, {"type": "note_off", "time": 30, "note": 57, "velocity": 104, "channel": 0}, {"type": "note_on", "time": 4, "note": 58, "velocity": 97, "channel": 0}, {"type": "note_off", "time": 46, "note": 58, "velocity": 97, "channel": 0}, {"type": "note_on", "time": 8, "note": 62, "velocity": 116, "channel": 0}, {"type": "note_off", "time": 46, "note": 62, "velocity": 116, "channel": 0}, {"type": "note_on", "time": 4, "note": 64, "velocity": 102, "channel": 0}, {"type": "note_off", "time": 38, "note": 64, "velocity": 102, "channel": 0}, {"type": "note_on", "time": 5, "note": 66, "velocity": 104, "channel": 0}, {"type": "note_off", "time": 37, "note": 66, "velocity": 104, "channel": 0}, {"type": "note_on", "time": 5, "note": 69, "velocity": 120, "channel": 0}, {"type": "note_off", "time": 44, "note": 69, "velocity": 120, "channel": 0}, {"type": "note_on", "time": 7, "note": 66, "velocity": 117, "channel": 0}, {"type": "note_off", "time": 39, "note": 66, "velocity": 117, "channel": 0}, {"type": "note_on", "time": 4, "note": 67, "velocity": 110, "channel": 0}, {"type": "note_off", "time": 45, "note": 67, "velocity": 110, "channel": 0}, {"type": "note_on", "time": 7, "note": 69, "velocity": 115, "channel": 0}, {"type": "note_off", "time": 39, "note": 69, "velocity": 115, "channel": 0}, {"type": "note_on", "time": 7, "note": 70, "velocity": 115, "channel": 0}, {"type": "note_off", "time": 36, "note": 70, "velocity": 115, "channel": 0}, {"type": "note_on", "time": 12, "note": 72, "velocity": 101, "channel": 0}, {"type": "note_off", "time": 30, "note": 72, "velocity": 101, "channel": 0}, {"type": "note_on", "time": 10, "note": 74, "velocity": 109, "channel": 0}, {"type": "note_off", "time": 43, "note": 74, "velocity": 109, "channel": 0}, {"type": "note_on", "time": 10, "note": 73, "velocity": 110, "channel": 0}, {"type": "note_off", "time": 39, "note": 73, "velocity": 110, "channel": 0}, {"type": "note_on", "time": 5, "note": 72, "velocity": 107, "channel": 0}, {"type": "note_off", "time": 44, "note": 72, "velocity": 107, "channel": 0}, {"type": "note_on", "time": 7, "note": 69, "velocity": 116, "channel": 0}, {"type": "note_off", "time": 44, "note": 69, "velocity": 116, "channel": 0}, {"type": "note_on", "time": 5, "note": 64, "velocity": 98, "channel": 0}, {"type": "note_off", "time": 48, "note": 64, "velocity": 98, "channel": 0}, {"type": "note_on", "time": 5, "note": 60, "velocity": 105, "channel": 0}, {"type": "note_off", "time": 34, "note": 60, "velocity": 105, "channel": 0}, {"type": "note_on", "time": 6, "note": 62, "velocity": 107, "channel": 0}, {"type": "note_off", "time": 41, "note": 62, "velocity": 107, "channel": 0}, {"type": "note_on", "time": 2, "note": 58, "velocity": 116, "channel": 0}, {"type": "note_off", "time": 42, "note": 58, "velocity": 116, "channel": 0}, {"type": "note_on", "time": 5, "note": 57, "velocity": 97, "channel": 0}, {"type": "note_off", "time": 49, "note": 57, "velocity": 97, "channel": 0}, {"type": "note_on", "time": 2, "note": 56, "velocity": 108, "channel": 0}, {"type": "note_off", "time": 61, "note": 56, "velocity": 108, "channel": 0}, {"type": "note_on", "time": 28, "note": 57, "velocity": 101, "channel": 0}, {"type": "note_off", "time": 33, "note": 57, "velocity": 101, "channel": 0}, {"type": "note_on", "time": 5, "note": 58, "velocity": 107, "channel": 0}, {"type": "note_off", "time": 56, "note": 58, "velocity": 107, "channel": 0}, {"type": "note_on", "time": 7, "note": 60, "velocity": 112, "channel": 0}, {"type": "note_off", "time": 42, "note": 60, "velocity": 112, "channel": 0}, {"type": "note_on", "time": 2, "note": 61, "velocity": 97, "channel": 0}, {"type": "note_off", "time": 48, "note": 61, "velocity": 97, "channel": 0}, {"type": "note_on", "time": 4, "note": 62, "velocity": 98, "channel": 0}, {"type": "note_off", "time": 37, "note": 62, "velocity": 98, "channel": 0}, {"type": "note_on", "time": 1, "note": 65, "velocity": 116, "channel": 0}, {"type": "note_off", "time": 51, "note": 65, "velocity": 116, "channel": 0}, {"type": "note_on", "time": 4, "note": 62, "velocity": 92, "channel": 0}, {"type": "note_off", "time": 39, "note": 62, "velocity": 92, "channel": 0}, {"type": "note_on", "time": 1, "note": 64, "velocity": 112, "channel": 0}, {"type": "note_off", "time": 43, "note": 64, "velocity": 112, "channel": 0}, {"type": "note_on", "time": 7, "note": 62, "velocity": 113, "channel": 0}, {"type": "note_off", "time": 39, "note": 62, "velocity": 113, "channel": 0}, {"type": "note_on", "time": 5, "note": 60, "velocity": 108, "channel": 0}, {"type": "note_off", "time": 42, "note": 60, "velocity": 108, "channel": 0}, {"type": "note_on", "time": 9, "note": 59, "velocity": 112, "channel": 0}, {"type": "note_off", "time": 41, "note": 59, "velocity": 112, "channel": 0}, {"type": "note_on", "time": 7, "note": 58, "velocity": 108, "channel": 0}, {"type": "note_off", "time": 29, "note": 58, "velocity": 108, "channel": 0}, {"type": "note_on", "time": 55, "note": 57, "velocity": 108, "channel": 0}, {"type": "note_off", "time": 49, "note": 57, "velocity": 108, "channel": 0}, {"type": "note_on", "time": 9, "note": 54, "velocity": 108, "channel": 0}, {"type": "note_off", "time": 34, "note": 54, "velocity": 108, "channel": 0}, {"type": "note_on", "time": 3, "note": 55, "velocity": 100, "channel": 0}, {"type": "note_off", "time": 37, "note": 55, "velocity": 100, "channel": 0}, {"type": "note_on", "time": 17, "note": 57, "velocity": 107, "channel": 0}, {"type": "note_off", "time": 37, "note": 57, "velocity": 107, "channel": 0}, {"type": "note_on", "time": 6, "note": 58, "velocity": 97, "channel": 0}, {"type": "note_off", "time": 33, "note": 58, "velocity": 97, "channel": 0}, {"type": "note_on", "time": 17, "note": 60, "velocity": 103, "channel": 0}, {"type": "note_off", "time": 33, "note": 60, "velocity": 103, "channel": 0}, {"type": "note_on", "time": 8, "note": 62, "velocity": 114, "channel": 0}, {"type": "note_off", "time": 33, "note": 62, "velocity": 114, "channel": 0}, {"type": "note_on", "time": 18, "note": 65, "velocity": 108, "channel": 0}, {"type": "note_off", "time": 34, "note": 65, "velocity": 108, "channel": 0}, {"type": "note_on", "time": 6, "note": 64, "velocity": 94, "channel": 0}, {"type": "note_off", "time": 48, "note": 64, "velocity": 94, "channel": 0}, {"type": "note_on", "time": 245, "note": 69, "velocity": 117, "channel": 0}, {"type": "note_off", "time": 46, "note": 69, "velocity": 117, "channel": 0}, {"type": "note_on", "time": 5, "note": 70, "velocity": 92, "channel": 0}, {"type": "note_off", "time": 95, "note": 70, "velocity": 92, "channel": 0}, {"type": "note_on", "time": 6, "note": 69, "velocity": 105, "channel": 0}, {"type": "note_off", "time": 40, "note": 69, "velocity": 105, "channel": 0}, {"type": "note_on", "time": 11, "note": 68, "velocity": 116, "channel": 0}, {"type": "note_off", "time": 43, "note": 68, "velocity": 116, "channel": 0}, {"type": "note_on", "time": 6, "note": 67, "velocity": 102, "channel": 0}, {"type": "note_off", "time": 35, "note": 67, "velocity": 102, "channel": 0}, {"type": "note_on", "time": 6, "note": 65, "velocity": 113, "channel": 0}, {"type": "note_off", "time": 39, "note": 65, "velocity": 113, "channel": 0}, {"type": "note_on", "time": 9, "note": 63, "velocity": 113, "channel": 0}, {"type": "note_off", "time": 36, "note": 63, "velocity": 113, "channel": 0}, {"type": "note_on", "time": 10, "note": 62, "velocity": 110, "channel": 0}, {"type": "note_off", "time": 43, "note": 62, "velocity": 110, "channel": 0}, {"type": "note_on", "time": 7, "note": 60, "velocity": 101, "channel": 0}, {"type": "note_off", "time": 33, "note": 60, "velocity": 101, "channel": 0}, {"type": "note_on", "time": 6, "note": 58, "velocity": 91, "channel": 0}, {"type": "note_off", "time": 36, "note": 58, "velocity": 91, "channel": 0}, {"type": "note_on", "time": 19, "note": 56, "velocity": 107, "channel": 0}, {"type": "note_off", "time": 34, "note": 56, "velocity": 107, "channel": 0}, {"type": "note_on", "time": 6, "note": 55, "velocity": 99, "channel": 0}, {"type": "note_off", "time": 34, "note": 55, "velocity": 99, "channel": 0}, {"type": "note_on", "time": 17, "note": 50, "velocity": 102, "channel": 0}, {"type": "note_off", "time": 30, "note": 50, "velocity": 102, "channel": 0}, {"type": "note_on", "time": 7, "note": 53, "velocity": 97, "channel": 0}, {"type": "note_off", "time": 46, "note": 53, "velocity": 97, "channel": 0}, {"type": "note_on", "time": 18, "note": 50, "velocity": 104, "channel": 0}, {"type": "note_off", "time": 38, "note": 50, "velocity": 104, "channel": 0}, {"type": "note_on", "time": 5, "note": 53, "velocity": 105, "channel": 0}, {"type": "note_off", "time": 35, "note": 53, "velocity": 105, "channel": 0}, {"type": "note_on", "time": 1, "note": 55, "velocity": 112, "channel": 0}, {"type": "note_off", "time": 39, "note": 55, "velocity": 112, "channel": 0}, {"type": "note_on", "time": 3, "note": 56, "velocity": 108, "channel": 0}, {"type": "note_off", "time": 29, "note": 56, "velocity": 108, "channel": 0}, {"type": "note_on", "time": 12, "note": 58, "velocity": 111, "channel": 0}, {"type": "note_off", "time": 40, "note": 58, "velocity": 111, "channel": 0}, {"type": "note_on", "time": 4, "note": 59, "velocity": 106, "channel": 0}, {"type": "note_off", "time": 39, "note": 59, "velocity": 106, "channel": 0}, {"type": "note_on", "time": 10, "note": 61, "velocity": 106, "channel": 0}, {"type": "note_off", "time": 39, "note": 61, "velocity": 106, "channel": 0}, {"type": "note_on", "time": 8, "note": 62, "velocity": 111, "channel": 0}, {"type": "note_off", "time": 41, "note": 62, "velocity": 111, "channel": 0}, {"type": "note_on", "time": 15, "note": 64, "velocity": 103, "channel": 0}, {"type": "note_off", "time": 43, "note": 64, "velocity": 103, "channel": 0}, {"type": "note_on", "time": 3, "note": 65, "velocity": 111, "channel": 0}, {"type": "note_off", "time": 36, "note": 65, "velocity": 111, "channel": 0}, {"type": "note_on", "time": 10, "note": 67, "velocity": 120, "channel": 0}, {"type": "note_off", "time": 35, "note": 67, "velocity": 120, "channel": 0}, {"type": "note_on", "time": 10, "note": 68, "velocity": 119, "channel": 0}, {"type": "note_off", "time": 41, "note": 68, "velocity": 119, "channel": 0}, {"type": "note_on", "time": 7, "note": 70, "velocity": 107, "channel": 0}, {"type": "note_off", "time": 36, "note": 70, "velocity": 107, "channel": 0}, {"type": "note_on", "time": 5, "note": 72, "velocity": 110, "channel": 0}, {"type": "note_off", "time": 46, "note": 72, "velocity": 110, "channel": 0}, {"type": "note_on", "time": 7, "note": 72, "velocity": 113, "channel": 0}, {"type": "note_off", "time": 44, "note": 72, "velocity": 113, "channel": 0}, {"type": "note_on", "time": 7, "note": 70, "velocity": 102, "channel": 0}, {"type": "note_off", "time": 40, "note": 70, "velocity": 102, "channel": 0}, {"type": "note_on", "time": 11, "note": 68, "velocity": 115, "channel": 0}, {"type": "note_off", "time": 35, "note": 68, "velocity": 115, "channel": 0}, {"type": "note_on", "time": 9, "note": 67, "velocity": 109, "channel": 0}, {"type": "note_off", "time": 33, "note": 67, "velocity": 109, "channel": 0}, {"type": "note_on", "time": 16, "note": 65, "velocity": 109, "channel": 0}, {"type": "note_off", "time": 41, "note": 65, "velocity": 109, "channel": 0}, {"type": "note_on", "time": 7, "note": 63, "velocity": 99, "channel": 0}, {"type": "note_off", "time": 47, "note": 63, "velocity": 99, "channel": 0}, {"type": "note_on", "time": 5, "note": 60, "velocity": 111, "channel": 0}, {"type": "note_off", "time": 37, "note": 60, "velocity": 111, "channel": 0}, {"type": "note_on", "time": 4, "note": 61, "velocity": 99, "channel": 0}, {"type": "note_off", "time": 42, "note": 61, "velocity": 99, "channel": 0}, {"type": "note_on", "time": 9, "note": 65, "velocity": 113, "channel": 0}, {"type": "note_off", "time": 38, "note": 65, "velocity": 113, "channel": 0}, {"type": "note_on", "time": 6, "note": 60, "velocity": 98, "channel": 0}, {"type": "note_off", "time": 38, "note": 60, "velocity": 98, "channel": 0}, {"type": "note_on", "time": 8, "note": 59, "velocity": 112, "channel": 0}, {"type": "note_off", "time": 46, "note": 59, "velocity": 112, "channel": 0}, {"type": "note_on", "time": 5, "note": 58, "velocity": 105, "channel": 0}, {"type": "note_off", "time": 40, "note": 58, "velocity": 105, "channel": 0}, {"type": "note_on", "time": 6, "note": 55, "velocity": 109, "channel": 0}, {"type": "note_off", "time": 40, "note": 55, "velocity": 109, "channel": 0}, {"type": "note_on", "time": 8, "note": 53, "velocity": 106, "channel": 0}, {"type": "note_off", "time": 29, "note": 53, "velocity": 106, "channel": 0}, {"type": "note_on", "time": 11, "note": 48, "velocity": 103, "channel": 0}, {"type": "note_off", "time": 47, "note": 48, "velocity": 103, "channel": 0}, {"type": "note_on", "time": 10, "note": 47, "velocity": 99, "channel": 0}, {"type": "note_off", "time": 64, "note": 47, "velocity": 99, "channel": 0}, {"type": "note_on", "time": 79, "note": 61, "velocity": 98, "channel": 0}, {"type": "note_off", "time": 64, "note": 61, "velocity": 98, "channel": 0}, {"type": "note_on", "time": 355, "note": 52, "velocity": 110, "channel": 0}, {"type": "note_off", "time": 59, "note": 52, "velocity": 110, "channel": 0}, {"type": "note_on", "time": 16, "note": 57, "velocity": 96, "channel": 0}, {"type": "note_off", "time": 34, "note": 57, "velocity": 96, "channel": 0}, {"type": "note_on", "time": 6, "note": 61, "velocity": 113, "channel": 0}, {"type": "note_off", "time": 38, "note": 61, "velocity": 113, "channel": 0}, {"type": "note_on", "time": 13, "note": 59, "velocity": 104, "channel": 0}, {"type": "note_off", "time": 33, "note": 59, "velocity": 104, "channel": 0}, {"type": "note_on", "time": 6, "note": 60, "velocity": 119, "channel": 0}, {"type": "note_off", "time": 136, "note": 60, "velocity": 119, "channel": 0}, {"type": "note_on", "time": 6, "note": 56, "velocity": 103, "channel": 0}, {"type": "note_off", "time": 39, "note": 56, "velocity": 103, "channel": 0}, {"type": "note_on", "time": 79, "note": 53, "velocity": 108, "channel": 0}, {"type": "note_off", "time": 61, "note": 53, "velocity": 108, "channel": 0}, {"type": "note_on", "time": 14, "note": 49, "velocity": 105, "channel": 0}, {"type": "note_off", "time": 72, "note": 49, "velocity": 105, "channel": 0}, {"type": "note_on", "time": 33, "note": 49, "velocity": 109, "channel": 0}, {"type": "note_off", "time": 41, "note": 49, "velocity": 109, "channel": 0}, {"type": "note_on", "time": 1, "note": 53, "velocity": 106, "channel": 0}, {"type": "note_off", "time": 45, "note": 53, "velocity": 106, "channel": 0}, {"type": "note_on", "time": 1, "note": 56, "velocity": 100, "channel": 0}, {"type": "note_off", "time": 37, "note": 56, "velocity": 100, "channel": 0}, {"type": "note_on", "time": 2, "note": 60, "velocity": 111, "channel": 0}, {"type": "note_off", "time": 33, "note": 60, "velocity": 111, "channel": 0}, {"type": "note_on", "time": 21, "note": 60, "velocity": 116, "channel": 0}, {"type": "note_off", "time": 38, "note": 60, "velocity": 116, "channel": 0}, {"type": "note_on", "time": 14, "note": 58, "velocity": 102, "channel": 0}, {"type": "note_off", "time": 50, "note": 58, "velocity": 102, "channel": 0}, {"type": "note_on", "time": 186, "note": 57, "velocity": 106, "channel": 0}, {"type": "note_off", "time": 33, "note": 57, "velocity": 106, "channel": 0}, {"type": "note_on", "time": 7, "note": 61, "velocity": 113, "channel": 0}, {"type": "note_off", "time": 43, "note": 61, "velocity": 113, "channel": 0}, {"type": "note_on", "time": 11, "note": 60, "velocity": 108, "channel": 0}, {"type": "note_off", "time": 34, "note": 60, "velocity": 108, "channel": 0}, {"type": "note_on", "time": 14, "note": 59, "velocity": 102, "channel": 0}, {"type": "note_off", "time": 39, "note": 59, "velocity": 102, "channel": 0}, {"type": "note_on", "time": 10, "note": 57, "velocity": 108, "channel": 0}, {"type": "note_off", "time": 29, "note": 57, "velocity": 108, "channel": 0}, {"type": "note_on", "time": 60, "note": 56, "velocity": 100, "channel": 0}, {"type": "note_off", "time": 42, "note": 56, "velocity": 100, "channel": 0}, {"type": "note_on", "time": 6, "note": 60, "velocity": 98, "channel": 0}, {"type": "note_off", "time": 37, "note": 60, "velocity": 98, "channel": 0}, {"type": "note_on", "time": 6, "note": 62, "velocity": 106, "channel": 0}, {"type": "note_off", "time": 39, "note": 62, "velocity": 106, "channel": 0}, {"type": "note_on", "time": 10, "note": 66, "velocity": 121, "channel": 0}, {"type": "note_off", "time": 42, "note": 66, "velocity": 121, "channel": 0}, {"type": "note_on", "time": 6, "note": 68, "velocity": 125, "channel": 0}, {"type": "note_off", "time": 32, "note": 68, "velocity": 125, "channel": 0}, {"type": "note_on", "time": 7, "note": 65, "velocity": 100, "channel": 0}, {"type": "note_off", "time": 48, "note": 65, "velocity": 100, "channel": 0}, {"type": "note_on", "time": 7, "note": 63, "velocity": 93, "channel": 0}, {"type": "note_off", "time": 43, "note": 63, "velocity": 93, "channel": 0}, {"type": "note_on", "time": 2, "note": 61, "velocity": 95, "channel": 0}, {"type": "note_off", "time": 41, "note": 61, "velocity": 95, "channel": 0}, {"type": "note_on", "time": 11, "note": 62, "velocity": 99, "channel": 0}, {"type": "note_off", "time": 34, "note": 62, "velocity": 99, "channel": 0}, {"type": "note_on", "time": 5, "note": 65, "velocity": 109, "channel": 0}, {"type": "note_off", "time": 45, "note": 65, "velocity": 109, "channel": 0}, {"type": "note_on", "time": 6, "note": 71, "velocity": 104, "channel": 0}, {"type": "note_off", "time": 41, "note": 71, "velocity": 104, "channel": 0}, {"type": "note_on", "time": 7, "note": 70, "velocity": 107, "channel": 0}, {"type": "note_off", "time": 36, "note": 70, "velocity": 107, "channel": 0}, {"type": "note_on", "time": 7, "note": 68, "velocity": 121, "channel": 0}, {"type": "note_off", "time": 51, "note": 68, "velocity": 121, "channel": 0}, {"type": "note_on", "time": 5, "note": 67, "velocity": 112, "channel": 0}, {"type": "note_off", "time": 39, "note": 67, "velocity": 112, "channel": 0}, {"type": "note_on", "time": 9, "note": 65, "velocity": 104, "channel": 0}, {"type": "note_off", "time": 35, "note": 65, "velocity": 104, "channel": 0}, {"type": "note_on", "time": 16, "note": 66, "velocity": 114, "channel": 0}, {"type": "note_off", "time": 45, "note": 66, "velocity": 114, "channel": 0}, {"type": "note_on", "time": 6, "note": 58, "velocity": 103, "channel": 0}, {"type": "note_off", "time": 36, "note": 58, "velocity": 103, "channel": 0}, {"type": "note_on", "time": 2, "note": 61, "velocity": 95, "channel": 0}, {"type": "note_off", "time": 45, "note": 61, "velocity": 95, "channel": 0}, {"type": "note_on", "time": 4, "note": 63, "velocity": 91, "channel": 0}, {"type": "note_off", "time": 36, "note": 63, "velocity": 91, "channel": 0}, {"type": "note_on", "time": 7, "note": 65, "velocity": 115, "channel": 0}, {"type": "note_off", "time": 39, "note": 65, "velocity": 115, "channel": 0}, {"type": "note_on", "time": 8, "note": 68, "velocity": 125, "channel": 0}, {"type": "note_off", "time": 40, "note": 68, "velocity": 125, "channel": 0}, {"type": "note_on", "time": 6, "note": 65, "velocity": 111, "channel": 0}, {"type": "note_off", "time": 45, "note": 65, "velocity": 111, "channel": 0}, {"type": "note_on", "time": 13, "note": 64, "velocity": 115, "channel": 0}, {"type": "note_off", "time": 39, "note": 64, "velocity": 115, "channel": 0}, {"type": "note_on", "time": 8, "note": 63, "velocity": 107, "channel": 0}, {"type": "note_off", "time": 26, "note": 63, "velocity": 107, "channel": 0}, {"type": "note_on", "time": 14, "note": 61, "velocity": 101, "channel": 0}, {"type": "note_off", "time": 35, "note": 61, "velocity": 101, "channel": 0}, {"type": "note_on", "time": 12, "note": 58, "velocity": 90, "channel": 0}, {"type": "note_off", "time": 33, "note": 58, "velocity": 90, "channel": 0}, {"type": "note_on", "time": 20, "note": 59, "velocity": 99, "channel": 0}, {"type": "note_off", "time": 33, "note": 59, "velocity": 99, "channel": 0}, {"type": "note_on", "time": 2, "note": 60, "velocity": 94, "channel": 0}, {"type": "note_off", "time": 42, "note": 60, "velocity": 94, "channel": 0}, {"type": "note_on", "time": 10, "note": 63, "velocity": 114, "channel": 0}, {"type": "note_off", "time": 39, "note": 63, "velocity": 114, "channel": 0}, {"type": "note_on", "time": 4, "note": 66, "velocity": 117, "channel": 0}, {"type": "note_off", "time": 44, "note": 66, "velocity": 117, "channel": 0}, {"type": "note_on", "time": 8, "note": 68, "velocity": 110, "channel": 0}, {"type": "note_off", "time": 35, "note": 68, "velocity": 110, "channel": 0}, {"type": "note_on", "time": 10, "note": 71, "velocity": 112, "channel": 0}, {"type": "note_off", "time": 38, "note": 71, "velocity": 112, "channel": 0}, {"type": "note_on", "time": 9, "note": 69, "velocity": 109, "channel": 0}, {"type": "note_off", "time": 38, "note": 69, "velocity": 109, "channel": 0}, {"type": "note_on", "time": 3, "note": 68, "velocity": 107, "channel": 0}, {"type": "note_off", "time": 41, "note": 68, "velocity": 107, "channel": 0}, {"type": "note_on", "time": 8, "note": 66, "velocity": 118, "channel": 0}, {"type": "note_off", "time": 42, "note": 66, "velocity": 118, "channel": 0}, {"type": "note_on", "time": 3, "note": 64, "velocity": 105, "channel": 0}, {"type": "note_off", "time": 30, "note": 64, "velocity": 105, "channel": 0}, {"type": "note_on", "time": 16, "note": 60, "velocity": 116, "channel": 0}, {"type": "note_off", "time": 36, "note": 60, "velocity": 116, "channel": 0}, {"type": "note_on", "time": 4, "note": 59, "velocity": 105, "channel": 0}, {"type": "note_off", "time": 44, "note": 59, "velocity": 105, "channel": 0}, {"type": "note_on", "time": 10, "note": 57, "velocity": 98, "channel": 0}, {"type": "note_off", "time": 37, "note": 57, "velocity": 98, "channel": 0}, {"type": "note_on", "time": 8, "note": 55, "velocity": 97, "channel": 0}, {"type": "note_off", "time": 32, "note": 55, "velocity": 97, "channel": 0}, {"type": "note_on", "time": 6, "note": 56, "velocity": 92, "channel": 0}, {"type": "note_off", "time": 187, "note": 56, "velocity": 92, "channel": 0}, {"type": "note_on", "time": 155, "note": 61, "velocity": 109, "channel": 0}, {"type": "note_off", "time": 38, "note": 61, "velocity": 109, "channel": 0}, {"type": "note_on", "time": 5, "note": 63, "velocity": 112, "channel": 0}, {"type": "note_off", "time": 35, "note": 63, "velocity": 112, "channel": 0}, {"type": "note_on", "time": 4, "note": 64, "velocity": 104, "channel": 0}, {"type": "note_off", "time": 45, "note": 64, "velocity": 104, "channel": 0}, {"type": "note_on", "time": 15, "note": 66, "velocity": 104, "channel": 0}, {"type": "note_off", "time": 30, "note": 66, "velocity": 104, "channel": 0}, {"type": "note_on", "time": 9, "note": 68, "velocity": 113, "channel": 0}, {"type": "note_off", "time": 37, "note": 68, "velocity": 113, "channel": 0}, {"type": "note_on", "time": 7, "note": 71, "velocity": 115, "channel": 0}, {"type": "note_off", "time": 40, "note": 71, "velocity": 115, "channel": 0}, {"type": "note_on", "time": 2, "note": 70, "velocity": 99, "channel": 0}, {"type": "note_off", "time": 56, "note": 70, "velocity": 99, "channel": 0}, {"type": "note_on", "time": 11, "note": 66, "velocity": 98, "channel": 0}, {"type": "note_off", "time": 33, "note": 66, "velocity": 98, "channel": 0}, {"type": "note_on", "time": 6, "note": 68, "velocity": 116, "channel": 0}, {"type": "note_off", "time": 47, "note": 68, "velocity": 116, "channel": 0}, {"type": "note_on", "time": 6, "note": 64, "velocity": 112, "channel": 0}, {"type": "note_off", "time": 41, "note": 64, "velocity": 112, "channel": 0}, {"type": "note_on", "time": 3, "note": 63, "velocity": 98, "channel": 0}, {"type": "note_off", "time": 41, "note": 63, "velocity": 98, "channel": 0}, {"type": "note_on", "time": 16, "note": 61, "velocity": 87, "channel": 0}, {"type": "note_off", "time": 30, "note": 61, "velocity": 87, "channel": 0}, {"type": "note_on", "time": 5, "note": 66, "velocity": 111, "channel": 0}, {"type": "note_off", "time": 45, "note": 66, "velocity": 111, "channel": 0}, {"type": "note_on", "time": 10, "note": 65, "velocity": 110, "channel": 0}, {"type": "note_off", "time": 35, "note": 65, "velocity": 110, "channel": 0}, {"type": "note_on", "time": 7, "note": 64, "velocity": 101, "channel": 0}, {"type": "note_off", "time": 37, "note": 64, "velocity": 101, "channel": 0}, {"type": "note_on", "time": 12, "note": 63, "velocity": 109, "channel": 0}, {"type": "note_off", "time": 41, "note": 63, "velocity": 109, "channel": 0}, {"type": "note_on", "time": 10, "note": 61, "velocity": 102, "channel": 0}, {"type": "note_off", "time": 33, "note": 61, "velocity": 102, "channel": 0}, {"type": "note_on", "time": 7, "note": 59, "velocity": 108, "channel": 0}, {"type": "note_off", "time": 42, "note": 59, "velocity": 108, "channel": 0}, {"type": "note_on", "time": 10, "note": 58, "velocity": 97, "channel": 0}, {"type": "note_off", "time": 31, "note": 58, "velocity": 97, "channel": 0}, {"type": "note_on", "time": 16, "note": 56, "velocity": 107, "channel": 0}, {"type": "note_off", "time": 35, "note": 56, "velocity": 107, "channel": 0}, {"type": "note_on", "time": 24, "note": 54, "velocity": 99, "channel": 0}, {"type": "note_off", "time": 32, "note": 54, "velocity": 99, "channel": 0}, {"type": "note_on", "time": 3, "note": 55, "velocity": 97, "channel": 0}, {"type": "note_off", "time": 30, "note": 55, "velocity": 97, "channel": 0}, {"type": "note_on", "time": 6, "note": 59, "velocity": 105, "channel": 0}, {"type": "note_off", "time": 42, "note": 59, "velocity": 105, "channel": 0}, {"type": "note_on", "time": 7, "note": 64, "velocity": 115, "channel": 0}, {"type": "note_off", "time": 34, "note": 64, "velocity": 115, "channel": 0}, {"type": "note_on", "time": 8, "note": 63, "velocity": 107, "channel": 0}, {"type": "note_off", "time": 37, "note": 63, "velocity": 107, "channel": 0}, {"type": "note_on", "time": 17, "note": 60, "velocity": 112, "channel": 0}, {"type": "note_off", "time": 34, "note": 60, "velocity": 112, "channel": 0}, {"type": "note_on", "time": 71, "note": 56, "velocity": 109, "channel": 0}, {"type": "note_off", "time": 30, "note": 56, "velocity": 109, "channel": 0}, {"type": "note_on", "time": 7, "note": 55, "velocity": 92, "channel": 0}, {"type": "note_off", "time": 33, "note": 55, "velocity": 92, "channel": 0}, {"type": "note_on", "time": 105, "note": 63, "velocity": 102, "channel": 0}, {"type": "note_off", "time": 28, "note": 63, "velocity": 102, "channel": 0}, {"type": "note_on", "time": 5, "note": 67, "velocity": 113, "channel": 0}, {"type": "note_off", "time": 40, "note": 67, "velocity": 113, "channel": 0}, {"type": "note_on", "time": 14, "note": 68, "velocity": 108, "channel": 0}, {"type": "note_off", "time": 35, "note": 68, "velocity": 108, "channel": 0}, {"type": "note_on", "time": 13, "note": 67, "velocity": 105, "channel": 0}, {"type": "note_off", "time": 31, "note": 67, "velocity": 105, "channel": 0}, {"type": "note_on", "time": 5, "note": 65, "velocity": 111, "channel": 0}, {"type": "note_off", "time": 41, "note": 65, "velocity": 111, "channel": 0}, {"type": "note_on", "time": 22, "note": 63, "velocity": 86, "channel": 0}, {"type": "note_off", "time": 39, "note": 63, "velocity": 86, "channel": 0}, {"type": "note_on", "time": 7, "note": 60, "velocity": 106, "channel": 0}, {"type": "note_off", "time": 36, "note": 60, "velocity": 106, "channel": 0}, {"type": "note_on", "time": 9, "note": 58, "velocity": 94, "channel": 0}, {"type": "note_off", "time": 33, "note": 58, "velocity": 94, "channel": 0}, {"type": "note_on", "time": 8, "note": 56, "velocity": 108, "channel": 0}, {"type": "note_off", "time": 40, "note": 56, "velocity": 108, "channel": 0}, {"type": "note_on", "time": 21, "note": 49, "velocity": 103, "channel": 0}, {"type": "note_off", "time": 31, "note": 49, "velocity": 103, "channel": 0}, {"type": "note_on", "time": 19, "note": 50, "velocity": 99, "channel": 0}, {"type": "note_off", "time": 35, "note": 50, "velocity": 99, "channel": 0}, {"type": "note_on", "time": 12, "note": 54, "velocity": 113, "channel": 0}, {"type": "note_off", "time": 36, "note": 54, "velocity": 113, "channel": 0}, {"type": "note_on", "time": 7, "note": 57, "velocity": 96, "channel": 0}, {"type": "note_off", "time": 25, "note": 57, "velocity": 96, "channel": 0}, {"type": "note_on", "time": 9, "note": 61, "velocity": 111, "channel": 0}, {"type": "note_off", "time": 39, "note": 61, "velocity": 111, "channel": 0}, {"type": "note_on", "time": 4, "note": 62, "velocity": 109, "channel": 0}, {"type": "note_off", "time": 31, "note": 62, "velocity": 109, "channel": 0}, {"type": "note_on", "time": 21, "note": 59, "velocity": 96, "channel": 0}, {"type": "note_off", "time": 26, "note": 59, "velocity": 96, "channel": 0}, {"type": "note_on", "time": 8, "note": 61, "velocity": 95, "channel": 0}, {"type": "note_off", "time": 79, "note": 61, "velocity": 95, "channel": 0}, {"type": "note_on", "time": 26, "note": 64, "velocity": 106, "channel": 0}, {"type": "note_off", "time": 34, "note": 64, "velocity": 106, "channel": 0}, {"type": "note_on", "time": 12, "note": 65, "velocity": 91, "channel": 0}, {"type": "note_off", "time": 41, "note": 65, "velocity": 91, "channel": 0}, {"type": "note_on", "time": 6, "note": 66, "velocity": 101, "channel": 0}, {"type": "note_off", "time": 29, "note": 66, "velocity": 101, "channel": 0}, {"type": "note_on", "time": 9, "note": 69, "velocity": 113, "channel": 0}, {"type": "note_off", "time": 46, "note": 69, "velocity": 113, "channel": 0}, {"type": "note_on", "time": 5, "note": 66, "velocity": 117, "channel": 0}, {"type": "note_off", "time": 55, "note": 66, "velocity": 117, "channel": 0}, {"type": "note_on", "time": 271, "note": 72, "velocity": 109, "channel": 0}, {"type": "note_off", "time": 62, "note": 72, "velocity": 109, "channel": 0}, {"type": "note_on", "time": 231, "note": 75, "velocity": 105, "channel": 0}, {"type": "note_off", "time": 41, "note": 75, "velocity": 105, "channel": 0}, {"type": "note_on", "time": 86, "note": 72, "velocity": 105, "channel": 0}, {"type": "note_off", "time": 86, "note": 72, "velocity": 105, "channel": 0}, {"type": "note_on", "time": 16, "note": 68, "velocity": 121, "channel": 0}, {"type": "note_off", "time": 85, "note": 68, "velocity": 121, "channel": 0}, {"type": "note_on", "time": 6, "note": 76, "velocity": 88, "channel": 0}, {"type": "note_off", "time": 167, "note": 76, "velocity": 88, "channel": 0}, {"type": "note_on", "time": 33, "note": 73, "velocity": 114, "channel": 0}, {"type": "note_off", "time": 45, "note": 73, "velocity": 114, "channel": 0}, {"type": "note_on", "time": 11, "note": 71, "velocity": 103, "channel": 0}, {"type": "note_off", "time": 29, "note": 71, "velocity": 103, "channel": 0}, {"type": "note_on", "time": 15, "note": 68, "velocity": 116, "channel": 0}, {"type": "note_off", "time": 44, "note": 68, "velocity": 116, "channel": 0}, {"type": "note_on", "time": 3, "note": 66, "velocity": 110, "channel": 0}, {"type": "note_off", "time": 39, "note": 66, "velocity": 110, "channel": 0}, {"type": "note_on", "time": 6, "note": 64, "velocity": 96, "channel": 0}, {"type": "note_off", "time": 35, "note": 64, "velocity": 96, "channel": 0}, {"type": "note_on", "time": 5, "note": 63, "velocity": 109, "channel": 0}, {"type": "note_off", "time": 53, "note": 63, "velocity": 109, "channel": 0}, {"type": "note_on", "time": 2, "note": 62, "velocity": 102, "channel": 0}, {"type": "note_off", "time": 42, "note": 62, "velocity": 102, "channel": 0}, {"type": "note_on", "time": 18, "note": 59, "velocity": 93, "channel": 0}, {"type": "note_off", "time": 22, "note": 59, "velocity": 93, "channel": 0}, {"type": "note_on", "time": 6, "note": 61, "velocity": 108, "channel": 0}, {"type": "note_off", "time": 52, "note": 61, "velocity": 108, "channel": 0}, {"type": "note_on", "time": 6, "note": 58, "velocity": 102, "channel": 0}, {"type": "note_off", "time": 34, "note": 58, "velocity": 102, "channel": 0}, {"type": "note_on", "time": 6, "note": 59, "velocity": 102, "channel": 0}, {"type": "note_off", "time": 35, "note": 59, "velocity": 102, "channel": 0}, {"type": "note_on", "time": 10, "note": 61, "velocity": 114, "channel": 0}, {"type": "note_off", "time": 41, "note": 61, "velocity": 114, "channel": 0}, {"type": "note_on", "time": 10, "note": 58, "velocity": 89, "channel": 0}, {"type": "note_off", "time": 40, "note": 58, "velocity": 89, "channel": 0}, {"type": "note_on", "time": 2, "note": 66, "velocity": 119, "channel": 0}, {"type": "note_off", "time": 43, "note": 66, "velocity": 119, "channel": 0}, {"type": "note_on", "time": 8, "note": 65, "velocity": 110, "channel": 0}, {"type": "note_off", "time": 36, "note": 65, "velocity": 110, "channel": 0}, {"type": "note_on", "time": 7, "note": 63, "velocity": 98, "channel": 0}, {"type": "note_off", "time": 36, "note": 63, "velocity": 98, "channel": 0}, {"type": "note_on", "time": 10, "note": 61, "velocity": 95, "channel": 0}, {"type": "note_off", "time": 51, "note": 61, "velocity": 95, "channel": 0}, {"type": "note_on", "time": 9, "note": 57, "velocity": 93, "channel": 0}, {"type": "note_off", "time": 28, "note": 57, "velocity": 93, "channel": 0}, {"type": "note_on", "time": 14, "note": 60, "velocity": 110, "channel": 0}, {"type": "note_off", "time": 39, "note": 60, "velocity": 110, "channel": 0}, {"type": "note_on", "time": 9, "note": 57, "velocity": 106, "channel": 0}, {"type": "note_off", "time": 36, "note": 57, "velocity": 106, "channel": 0}, {"type": "note_on", "time": 6, "note": 58, "velocity": 103, "channel": 0}, {"type": "note_off", "time": 40, "note": 58, "velocity": 103, "channel": 0}, {"type": "note_on", "time": 14, "note": 60, "velocity": 110, "channel": 0}, {"type": "note_off", "time": 38, "note": 60, "velocity": 110, "channel": 0}, {"type": "note_on", "time": 55, "note": 63, "velocity": 101, "channel": 0}, {"type": "note_off", "time": 39, "note": 63, "velocity": 101, "channel": 0}, {"type": "note_on", "time": 3, "note": 65, "velocity": 105, "channel": 0}, {"type": "note_off", "time": 31, "note": 65, "velocity": 105, "channel": 0}, {"type": "note_on", "time": 19, "note": 68, "velocity": 104, "channel": 0}, {"type": "note_off", "time": 30, "note": 68, "velocity": 104, "channel": 0}, {"type": "note_on", "time": 13, "note": 72, "velocity": 107, "channel": 0}, {"type": "note_off", "time": 40, "note": 72, "velocity": 107, "channel": 0}, {"type": "note_on", "time": 4, "note": 73, "velocity": 111, "channel": 0}, {"type": "note_off", "time": 47, "note": 73, "velocity": 111, "channel": 0}, {"type": "note_on", "time": 9, "note": 71, "velocity": 88, "channel": 0}, {"type": "note_off", "time": 27, "note": 71, "velocity": 88, "channel": 0}, {"type": "note_on", "time": 12, "note": 69, "velocity": 119, "channel": 0}, {"type": "note_off", "time": 41, "note": 69, "velocity": 119, "channel": 0}, {"type": "note_on", "time": 3, "note": 68, "velocity": 115, "channel": 0}, {"type": "note_off", "time": 44, "note": 68, "velocity": 115, "channel": 0}, {"type": "note_on", "time": 12, "note": 66, "velocity": 112, "channel": 0}, {"type": "note_off", "time": 42, "note": 66, "velocity": 112, "channel": 0}, {"type": "note_on", "time": 7, "note": 64, "velocity": 98, "channel": 0}, {"type": "note_off", "time": 39, "note": 64, "velocity": 98, "channel": 0}, {"type": "note_on", "time": 10, "note": 61, "velocity": 109, "channel": 0}, {"type": "note_off", "time": 33, "note": 61, "velocity": 109, "channel": 0}, {"type": "note_on", "time": 6, "note": 62, "velocity": 106, "channel": 0}, {"type": "note_off", "time": 39, "note": 62, "velocity": 106, "channel": 0}, {"type": "note_on", "time": 9, "note": 66, "velocity": 121, "channel": 0}, {"type": "note_off", "time": 39, "note": 66, "velocity": 121, "channel": 0}, {"type": "note_on", "time": 9, "note": 61, "velocity": 109, "channel": 0}, {"type": "note_off", "time": 36, "note": 61, "velocity": 109, "channel": 0}, {"type": "note_on", "time": 7, "note": 60, "velocity": 119, "channel": 0}, {"type": "note_off", "time": 36, "note": 60, "velocity": 119, "channel": 0}, {"type": "note_on", "time": 5, "note": 59, "velocity": 111, "channel": 0}, {"type": "note_off", "time": 40, "note": 59, "velocity": 111, "channel": 0}, {"type": "note_on", "time": 13, "note": 57, "velocity": 100, "channel": 0}, {"type": "note_off", "time": 33, "note": 57, "velocity": 100, "channel": 0}, {"type": "note_on", "time": 106, "note": 60, "velocity": 104, "channel": 0}, {"type": "note_off", "time": 32, "note": 60, "velocity": 104, "channel": 0}, {"type": "note_on", "time": 12, "note": 66, "velocity": 120, "channel": 0}, {"type": "note_off", "time": 44, "note": 66, "velocity": 120, "channel": 0}, {"type": "note_on", "time": 6, "note": 64, "velocity": 106, "channel": 0}, {"type": "note_off", "time": 28, "note": 64, "velocity": 106, "channel": 0}, {"type": "note_on", "time": 18, "note": 64, "velocity": 109, "channel": 0}, {"type": "note_off", "time": 42, "note": 64, "velocity": 109, "channel": 0}, {"type": "note_on", "time": 69, "note": 61, "velocity": 104, "channel": 0}, {"type": "note_off", "time": 31, "note": 61, "velocity": 104, "channel": 0}, {"type": "note_on", "time": 14, "note": 59, "velocity": 108, "channel": 0}, {"type": "note_off", "time": 36, "note": 59, "velocity": 108, "channel": 0}, {"type": "note_on", "time": 13, "note": 59, "velocity": 115, "channel": 0}, {"type": "note_off", "time": 33, "note": 59, "velocity": 115, "channel": 0}, {"type": "note_on", "time": 67, "note": 57, "velocity": 97, "channel": 0}, {"type": "note_off", "time": 26, "note": 57, "velocity": 97, "channel": 0}, {"type": "note_on", "time": 14, "note": 59, "velocity": 107, "channel": 0}, {"type": "note_off", "time": 27, "note": 59, "velocity": 107, "channel": 0}, {"type": "note_on", "time": 8, "note": 59, "velocity": 113, "channel": 0}, {"type": "note_off", "time": 40, "note": 59, "velocity": 113, "channel": 0}, {"type": "note_on", "time": 10, "note": 57, "velocity": 102, "channel": 0}, {"type": "note_off", "time": 41, "note": 57, "velocity": 102, "channel": 0}, {"type": "note_on", "time": 7, "note": 59, "velocity": 115, "channel": 0}, {"type": "note_off", "time": 46, "note": 59, "velocity": 115, "channel": 0}, {"type": "note_on", "time": 46, "note": 59, "velocity": 111, "channel": 0}, {"type": "note_off", "time": 41, "note": 59, "velocity": 111, "channel": 0}, {"type": "note_on", "time": 53, "note": 66, "velocity": 122, "channel": 0}, {"type": "note_off", "time": 43, "note": 66, "velocity": 122, "channel": 0}, {"type": "note_on", "time": 3, "note": 64, "velocity": 106, "channel": 0}, {"type": "note_off", "time": 44, "note": 64, "velocity": 106, "channel": 0}, {"type": "note_on", "time": 6, "note": 61, "velocity": 111, "channel": 0}, {"type": "note_off", "time": 48, "note": 61, "velocity": 111, "channel": 0}, {"type": "note_on", "time": 105, "note": 60, "velocity": 110, "channel": 0}, {"type": "note_off", "time": 33, "note": 60, "velocity": 110, "channel": 0}, {"type": "note_on", "time": 16, "note": 60, "velocity": 109, "channel": 0}, {"type": "note_off", "time": 52, "note": 60, "velocity": 109, "channel": 0}, {"type": "note_on", "time": 52, "note": 57, "velocity": 98, "channel": 0}, {"type": "note_off", "time": 25, "note": 57, "velocity": 98, "channel": 0}, {"type": "note_on", "time": 17, "note": 59, "velocity": 110, "channel": 0}, {"type": "note_off", "time": 33, "note": 59, "velocity": 110, "channel": 0}, {"type": "note_on", "time": 15, "note": 59, "velocity": 109, "channel": 0}, {"type": "note_off", "time": 29, "note": 59, "velocity": 109, "channel": 0}, {"type": "note_on", "time": 18, "note": 57, "velocity": 108, "channel": 0}, {"type": "note_off", "time": 33, "note": 57, "velocity": 108, "channel": 0}, {"type": "note_on", "time": 10, "note": 59, "velocity": 113, "channel": 0}, {"type": "note_off", "time": 46, "note": 59, "velocity": 113, "channel": 0}, {"type": "note_on", "time": 45, "note": 59, "velocity": 104, "channel": 0}, {"type": "note_off", "time": 48, "note": 59, "velocity": 104, "channel": 0}, {"type": "note_on", "time": 12, "note": 56, "velocity": 96, "channel": 0}, {"type": "note_off", "time": 58, "note": 56, "velocity": 96, "channel": 0}, {"type": "note_on", "time": 16, "note": 55, "velocity": 101, "channel": 0}, {"type": "note_off", "time": 117, "note": 55, "velocity": 101, "channel": 0}, {"type": "note_on", "time": 349, "note": 69, "velocity": 115, "channel": 0}, {"type": "note_off", "time": 42, "note": 69, "velocity": 115, "channel": 0}, {"type": "note_on", "time": 7, "note": 67, "velocity": 104, "channel": 0}, {"type": "note_off", "time": 44, "note": 67, "velocity": 104, "channel": 0}, {"type": "note_on", "time": 8, "note": 66, "velocity": 98, "channel": 0}, {"type": "note_off", "time": 36, "note": 66, "velocity": 98, "channel": 0}, {"type": "note_on", "time": 13, "note": 64, "velocity": 107, "channel": 0}, {"type": "note_off", "time": 39, "note": 64, "velocity": 107, "channel": 0}, {"type": "note_on", "time": 10, "note": 62, "velocity": 103, "channel": 0}, {"type": "note_off", "time": 37, "note": 62, "velocity": 103, "channel": 0}, {"type": "note_on", "time": 11, "note": 59, "velocity": 101, "channel": 0}, {"type": "note_off", "time": 42, "note": 59, "velocity": 101, "channel": 0}, {"type": "note_on", "time": 8, "note": 57, "velocity": 95, "channel": 0}, {"type": "note_off", "time": 38, "note": 57, "velocity": 95, "channel": 0}, {"type": "note_on", "time": 13, "note": 58, "velocity": 97, "channel": 0}, {"type": "note_off", "time": 40, "note": 58, "velocity": 97, "channel": 0}, {"type": "note_on", "time": 4, "note": 61, "velocity": 107, "channel": 0}, {"type": "note_off", "time": 32, "note": 61, "velocity": 107, "channel": 0}, {"type": "note_on", "time": 12, "note": 64, "velocity": 103, "channel": 0}, {"type": "note_off", "time": 29, "note": 64, "velocity": 103, "channel": 0}, {"type": "note_on", "time": 12, "note": 67, "velocity": 117, "channel": 0}, {"type": "note_off", "time": 36, "note": 67, "velocity": 117, "channel": 0}, {"type": "note_on", "time": 13, "note": 69, "velocity": 114, "channel": 0}, {"type": "note_off", "time": 39, "note": 69, "velocity": 114, "channel": 0}, {"type": "note_on", "time": 9, "note": 66, "velocity": 102, "channel": 0}, {"type": "note_off", "time": 37, "note": 66, "velocity": 102, "channel": 0}, {"type": "note_on", "time": 11, "note": 64, "velocity": 109, "channel": 0}, {"type": "note_off", "time": 32, "note": 64, "velocity": 109, "channel": 0}, {"type": "note_on", "time": 8, "note": 61, "velocity": 103, "channel": 0}, {"type": "note_off", "time": 47, "note": 61, "velocity": 103, "channel": 0}, {"type": "note_on", "time": 9, "note": 59, "velocity": 96, "channel": 0}, {"type": "note_off", "time": 32, "note": 59, "velocity": 96, "channel": 0}, {"type": "note_on", "time": 16, "note": 56, "velocity": 102, "channel": 0}, {"type": "note_off", "time": 45, "note": 56, "velocity": 102, "channel": 0}, {"type": "note_on", "time": 5, "note": 57, "velocity": 102, "channel": 0}, {"type": "note_off", "time": 29, "note": 57, "velocity": 102, "channel": 0}, {"type": "note_on", "time": 6, "note": 58, "velocity": 99, "channel": 0}, {"type": "note_off", "time": 37, "note": 58, "velocity": 99, "channel": 0}, {"type": "note_on", "time": 9, "note": 55, "velocity": 107, "channel": 0}, {"type": "note_off", "time": 31, "note": 55, "velocity": 107, "channel": 0}, {"type": "note_on", "time": 12, "note": 54, "velocity": 104, "channel": 0}, {"type": "note_off", "time": 33, "note": 54, "velocity": 104, "channel": 0}, {"type": "note_on", "time": 7, "note": 52, "velocity": 111, "channel": 0}, {"type": "note_off", "time": 36, "note": 52, "velocity": 111, "channel": 0}, {"type": "note_on", "time": 25, "note": 49, "velocity": 103, "channel": 0}, {"type": "note_off", "time": 100, "note": 49, "velocity": 103, "channel": 0}, {"type": "note_on", "time": 5, "note": 51, "velocity": 101, "channel": 0}, {"type": "note_off", "time": 28, "note": 51, "velocity": 101, "channel": 0}, {"type": "note_on", "time": 12, "note": 53, "velocity": 99, "channel": 0}, {"type": "note_off", "time": 54, "note": 53, "velocity": 99, "channel": 0}, {"type": "note_on", "time": 1, "note": 56, "velocity": 100, "channel": 0}, {"type": "note_off", "time": 39, "note": 56, "velocity": 100, "channel": 0}, {"type": "note_on", "time": 9, "note": 53, "velocity": 110, "channel": 0}, {"type": "note_off", "time": 36, "note": 53, "velocity": 110, "channel": 0}, {"type": "note_on", "time": 3, "note": 54, "velocity": 100, "channel": 0}, {"type": "note_off", "time": 41, "note": 54, "velocity": 100, "channel": 0}, {"type": "note_on", "time": 8, "note": 56, "velocity": 107, "channel": 0}, {"type": "note_off", "time": 31, "note": 56, "velocity": 107, "channel": 0}, {"type": "note_on", "time": 12, "note": 57, "velocity": 108, "channel": 0}, {"type": "note_off", "time": 34, "note": 57, "velocity": 108, "channel": 0}, {"type": "note_on", "time": 7, "note": 59, "velocity": 112, "channel": 0}, {"type": "note_off", "time": 49, "note": 59, "velocity": 112, "channel": 0}, {"type": "note_on", "time": 10, "note": 61, "velocity": 93, "channel": 0}, {"type": "note_off", "time": 42, "note": 61, "velocity": 93, "channel": 0}, {"type": "note_on", "time": 4, "note": 59, "velocity": 81, "channel": 0}, {"type": "note_off", "time": 33, "note": 59, "velocity": 81, "channel": 0}, {"type": "note_on", "time": 4, "note": 64, "velocity": 114, "channel": 0}, {"type": "note_off", "time": 41, "note": 64, "velocity": 114, "channel": 0}, {"type": "note_on", "time": 6, "note": 61, "velocity": 107, "channel": 0}, {"type": "note_off", "time": 35, "note": 61, "velocity": 107, "channel": 0}, {"type": "note_on", "time": 13, "note": 63, "velocity": 111, "channel": 0}, {"type": "note_off", "time": 38, "note": 63, "velocity": 111, "channel": 0}, {"type": "note_on", "time": 8, "note": 61, "velocity": 111, "channel": 0}, {"type": "note_off", "time": 47, "note": 61, "velocity": 111, "channel": 0}, {"type": "note_on", "time": 3, "note": 55, "velocity": 94, "channel": 0}, {"type": "note_off", "time": 128, "note": 55, "velocity": 94, "channel": 0}, {"type": "note_on", "time": 1, "note": 62, "velocity": 96, "channel": 0}, {"type": "note_off", "time": 17, "note": 62, "velocity": 96, "channel": 0}, {"type": "note_on", "time": 4, "note": 65, "velocity": 120, "channel": 0}, {"type": "note_off", "time": 39, "note": 65, "velocity": 120, "channel": 0}, {"type": "note_on", "time": 4, "note": 64, "velocity": 106, "channel": 0}, {"type": "note_off", "time": 39, "note": 64, "velocity": 106, "channel": 0}, {"type": "note_on", "time": 3, "note": 62, "velocity": 111, "channel": 0}, {"type": "note_off", "time": 44, "note": 62, "velocity": 111, "channel": 0}, {"type": "note_on", "time": 6, "note": 60, "velocity": 101, "channel": 0}, {"type": "note_off", "time": 37, "note": 60, "velocity": 101, "channel": 0}, {"type": "note_on", "time": 8, "note": 59, "velocity": 113, "channel": 0}, {"type": "note_off", "time": 46, "note": 59, "velocity": 113, "channel": 0}, {"type": "note_on", "time": 8, "note": 58, "velocity": 105, "channel": 0}, {"type": "note_off", "time": 37, "note": 58, "velocity": 105, "channel": 0}, {"type": "note_on", "time": 6, "note": 54, "velocity": 91, "channel": 0}, {"type": "note_off", "time": 35, "note": 54, "velocity": 91, "channel": 0}, {"type": "note_on", "time": 4, "note": 57, "velocity": 107, "channel": 0}, {"type": "note_off", "time": 45, "note": 57, "velocity": 107, "channel": 0}, {"type": "note_on", "time": 7, "note": 54, "velocity": 107, "channel": 0}, {"type": "note_off", "time": 37, "note": 54, "velocity": 107, "channel": 0}, {"type": "note_on", "time": 8, "note": 55, "velocity": 99, "channel": 0}, {"type": "note_off", "time": 32, "note": 55, "velocity": 99, "channel": 0}, {"type": "note_on", "time": 18, "note": 52, "velocity": 98, "channel": 0}, {"type": "note_off", "time": 27, "note": 52, "velocity": 98, "channel": 0}, {"type": "note_on", "time": 5, "note": 53, "velocity": 100, "channel": 0}, {"type": "note_off", "time": 39, "note": 53, "velocity": 100, "channel": 0}, {"type": "note_on", "time": 7, "note": 62, "velocity": 122, "channel": 0}, {"type": "note_off", "time": 46, "note": 62, "velocity": 122, "channel": 0}, {"type": "note_on", "time": 4, "note": 61, "velocity": 115, "channel": 0}, {"type": "note_off", "time": 34, "note": 61, "velocity": 115, "channel": 0}, {"type": "note_on", "time": 27, "note": 59, "velocity": 106, "channel": 0}, {"type": "note_off", "time": 35, "note": 59, "velocity": 106, "channel": 0}, {"type": "note_on", "time": 8, "note": 57, "velocity": 96, "channel": 0}, {"type": "note_off", "time": 40, "note": 57, "velocity": 96, "channel": 0}, {"type": "note_on", "time": 15, "note": 52, "velocity": 91, "channel": 0}, {"type": "note_off", "time": 36, "note": 52, "velocity": 91, "channel": 0}, {"type": "note_on", "time": 8, "note": 56, "velocity": 103, "channel": 0}, {"type": "note_off", "time": 37, "note": 56, "velocity": 103, "channel": 0}, {"type": "note_on", "time": 9, "note": 53, "velocity": 106, "channel": 0}, {"type": "note_off", "time": 40, "note": 53, "velocity": 106, "channel": 0}, {"type": "note_on", "time": 8, "note": 54, "velocity": 102, "channel": 0}, {"type": "note_off", "time": 37, "note": 54, "velocity": 102, "channel": 0}, {"type": "note_on", "time": 13, "note": 56, "velocity": 105, "channel": 0}, {"type": "note_off", "time": 34, "note": 56, "velocity": 105, "channel": 0}, {"type": "note_on", "time": 4, "note": 57, "velocity": 101, "channel": 0}, {"type": "note_off", "time": 36, "note": 57, "velocity": 101, "channel": 0}, {"type": "note_on", "time": 12, "note": 59, "velocity": 109, "channel": 0}, {"type": "note_off", "time": 36, "note": 59, "velocity": 109, "channel": 0}, {"type": "note_on", "time": 7, "note": 61, "velocity": 108, "channel": 0}, {"type": "note_off", "time": 40, "note": 61, "velocity": 108, "channel": 0}, {"type": "note_on", "time": 14, "note": 64, "velocity": 98, "channel": 0}, {"type": "note_off", "time": 31, "note": 64, "velocity": 98, "channel": 0}, {"type": "note_on", "time": 9, "note": 67, "velocity": 115, "channel": 0}, {"type": "note_off", "time": 38, "note": 67, "velocity": 115, "channel": 0}, {"type": "note_on", "time": 15, "note": 68, "velocity": 114, "channel": 0}, {"type": "note_off", "time": 32, "note": 68, "velocity": 114, "channel": 0}, {"type": "note_on", "time": 8, "note": 66, "velocity": 109, "channel": 0}, {"type": "note_off", "time": 42, "note": 66, "velocity": 109, "channel": 0}, {"type": "note_on", "time": 19, "note": 64, "velocity": 95, "channel": 0}, {"type": "note_off", "time": 29, "note": 64, "velocity": 95, "channel": 0}, {"type": "note_on", "time": 8, "note": 68, "velocity": 104, "channel": 0}, {"type": "note_off", "time": 38, "note": 68, "velocity": 104, "channel": 0}, {"type": "note_on", "time": 8, "note": 69, "velocity": 109, "channel": 0}, {"type": "note_off", "time": 34, "note": 69, "velocity": 109, "channel": 0}, {"type": "note_on", "time": 11, "note": 67, "velocity": 112, "channel": 0}, {"type": "note_off", "time": 36, "note": 67, "velocity": 112, "channel": 0}, {"type": "note_on", "time": 10, "note": 65, "velocity": 118, "channel": 0}, {"type": "note_off", "time": 45, "note": 65, "velocity": 118, "channel": 0}, {"type": "note_on", "time": 4, "note": 64, "velocity": 100, "channel": 0}, {"type": "note_off", "time": 38, "note": 64, "velocity": 100, "channel": 0}, {"type": "note_on", "time": 11, "note": 62, "velocity": 114, "channel": 0}, {"type": "note_off", "time": 38, "note": 62, "velocity": 114, "channel": 0}, {"type": "note_on", "time": 11, "note": 60, "velocity": 104, "channel": 0}, {"type": "note_off", "time": 37, "note": 60, "velocity": 104, "channel": 0}, {"type": "note_on", "time": 8, "note": 57, "velocity": 99, "channel": 0}, {"type": "note_off", "time": 36, "note": 57, "velocity": 99, "channel": 0}, {"type": "note_on", "time": 4, "note": 58, "velocity": 101, "channel": 0}, {"type": "note_off", "time": 34, "note": 58, "velocity": 101, "channel": 0}, {"type": "note_on", "time": 12, "note": 62, "velocity": 112, "channel": 0}, {"type": "note_off", "time": 51, "note": 62, "velocity": 112, "channel": 0}, {"type": "note_on", "time": 94, "note": 63, "velocity": 97, "channel": 0}, {"type": "note_off", "time": 43, "note": 63, "velocity": 97, "channel": 0}, {"type": "note_on", "time": 5, "note": 64, "velocity": 88, "channel": 0}, {"type": "note_off", "time": 38, "note": 64, "velocity": 88, "channel": 0}, {"type": "note_on", "time": 2, "note": 67, "velocity": 106, "channel": 0}, {"type": "note_off", "time": 41, "note": 67, "velocity": 106, "channel": 0}, {"type": "note_on", "time": 8, "note": 74, "velocity": 114, "channel": 0}, {"type": "note_off", "time": 39, "note": 74, "velocity": 114, "channel": 0}, {"type": "note_on", "time": 4, "note": 72, "velocity": 105, "channel": 0}, {"type": "note_off", "time": 43, "note": 72, "velocity": 105, "channel": 0}, {"type": "note_on", "time": 6, "note": 69, "velocity": 116, "channel": 0}, {"type": "note_off", "time": 45, "note": 69, "velocity": 116, "channel": 0}, {"type": "note_on", "time": 7, "note": 67, "velocity": 97, "channel": 0}, {"type": "note_off", "time": 42, "note": 67, "velocity": 97, "channel": 0}, {"type": "note_on", "time": 7, "note": 65, "velocity": 99, "channel": 0}, {"type": "note_off", "time": 44, "note": 65, "velocity": 99, "channel": 0}, {"type": "note_on", "time": 4, "note": 64, "velocity": 93, "channel": 0}, {"type": "note_off", "time": 42, "note": 64, "velocity": 93, "channel": 0}, {"type": "note_on", "time": 5, "note": 65, "velocity": 106, "channel": 0}, {"type": "note_off", "time": 27, "note": 65, "velocity": 106, "channel": 0}, {"type": "note_on", "time": 8, "note": 69, "velocity": 111, "channel": 0}, {"type": "note_off", "time": 40, "note": 69, "velocity": 111, "channel": 0}, {"type": "note_on", "time": 13, "note": 72, "velocity": 103, "channel": 0}, {"type": "note_off", "time": 35, "note": 72, "velocity": 103, "channel": 0}, {"type": "note_on", "time": 15, "note": 76, "velocity": 103, "channel": 0}, {"type": "note_off", "time": 37, "note": 76, "velocity": 103, "channel": 0}, {"type": "note_on", "time": 9, "note": 75, "velocity": 101, "channel": 0}, {"type": "note_off", "time": 36, "note": 75, "velocity": 101, "channel": 0}, {"type": "note_on", "time": 4, "note": 74, "velocity": 107, "channel": 0}, {"type": "note_off", "time": 41, "note": 74, "velocity": 107, "channel": 0}, {"type": "note_on", "time": 8, "note": 73, "velocity": 116, "channel": 0}, {"type": "note_off", "time": 38, "note": 73, "velocity": 116, "channel": 0}, {"type": "note_on", "time": 4, "note": 72, "velocity": 100, "channel": 0}, {"type": "note_off", "time": 44, "note": 72, "velocity": 100, "channel": 0}, {"type": "note_on", "time": 10, "note": 69, "velocity": 118, "channel": 0}, {"type": "note_off", "time": 40, "note": 69, "velocity": 118, "channel": 0}, {"type": "note_on", "time": 12, "note": 67, "velocity": 105, "channel": 0}, {"type": "note_off", "time": 49, "note": 67, "velocity": 105, "channel": 0}, {"type": "note_on", "time": 4, "note": 66, "velocity": 99, "channel": 0}, {"type": "note_off", "time": 20, "note": 66, "velocity": 99, "channel": 0}, {"type": "note_on", "time": 0, "note": 64, "velocity": 85, "channel": 0}, {"type": "note_off", "time": 26, "note": 64, "velocity": 85, "channel": 0}, {"type": "note_on", "time": 3, "note": 61, "velocity": 79, "channel": 0}, {"type": "note_off", "time": 43, "note": 61, "velocity": 79, "channel": 0}, {"type": "note_on", "time": 4, "note": 63, "velocity": 91, "channel": 0}, {"type": "note_off", "time": 25, "note": 63, "velocity": 91, "channel": 0}, {"type": "note_on", "time": 9, "note": 64, "velocity": 113, "channel": 0}, {"type": "note_off", "time": 46, "note": 64, "velocity": 113, "channel": 0}, {"type": "note_on", "time": 2, "note": 62, "velocity": 107, "channel": 0}, {"type": "note_off", "time": 58, "note": 62, "velocity": 107, "channel": 0}, {"type": "note_on", "time": 37, "note": 61, "velocity": 107, "channel": 0}, {"type": "note_off", "time": 43, "note": 61, "velocity": 107, "channel": 0}, {"type": "note_on", "time": 9, "note": 64, "velocity": 104, "channel": 0}, {"type": "note_off", "time": 41, "note": 64, "velocity": 104, "channel": 0}, {"type": "note_on", "time": 10, "note": 67, "velocity": 107, "channel": 0}, {"type": "note_off", "time": 28, "note": 67, "velocity": 107, "channel": 0}, {"type": "note_on", "time": 12, "note": 70, "velocity": 108, "channel": 0}, {"type": "note_off", "time": 32, "note": 70, "velocity": 108, "channel": 0}, {"type": "note_on", "time": 15, "note": 70, "velocity": 108, "channel": 0}, {"type": "note_off", "time": 43, "note": 70, "velocity": 108, "channel": 0}, {"type": "note_on", "time": 5, "note": 69, "velocity": 108, "channel": 0}, {"type": "note_off", "time": 35, "note": 69, "velocity": 108, "channel": 0}, {"type": "note_on", "time": 7, "note": 67, "velocity": 108, "channel": 0}, {"type": "note_off", "time": 40, "note": 67, "velocity": 108, "channel": 0}, {"type": "note_on", "time": 2, "note": 64, "velocity": 105, "channel": 0}, {"type": "note_off", "time": 50, "note": 64, "velocity": 105, "channel": 0}, {"type": "note_on", "time": 4, "note": 62, "velocity": 104, "channel": 0}, {"type": "note_off", "time": 34, "note": 62, "velocity": 104, "channel": 0}, {"type": "note_on", "time": 7, "note": 61, "velocity": 104, "channel": 0}, {"type": "note_off", "time": 39, "note": 61, "velocity": 104, "channel": 0}, {"type": "note_on", "time": 16, "note": 58, "velocity": 107, "channel": 0}, {"type": "note_off", "time": 28, "note": 58, "velocity": 107, "channel": 0}, {"type": "note_on", "time": 9, "note": 57, "velocity": 103, "channel": 0}, {"type": "note_off", "time": 72, "note": 57, "velocity": 103, "channel": 0}, {"type": "note_on", "time": 27, "note": 59, "velocity": 96, "channel": 0}, {"type": "note_off", "time": 36, "note": 59, "velocity": 96, "channel": 0}, {"type": "note_on", "time": 12, "note": 61, "velocity": 104, "channel": 0}, {"type": "note_off", "time": 30, "note": 61, "velocity": 104, "channel": 0}, {"type": "note_on", "time": 14, "note": 64, "velocity": 104, "channel": 0}, {"type": "note_off", "time": 33, "note": 64, "velocity": 104, "channel": 0}, {"type": "note_on", "time": 13, "note": 61, "velocity": 111, "channel": 0}, {"type": "note_off", "time": 40, "note": 61, "velocity": 111, "channel": 0}, {"type": "note_on", "time": 6, "note": 62, "velocity": 97, "channel": 0}, {"type": "note_off", "time": 38, "note": 62, "velocity": 97, "channel": 0}, {"type": "note_on", "time": 5, "note": 64, "velocity": 102, "channel": 0}, {"type": "note_off", "time": 42, "note": 64, "velocity": 102, "channel": 0}, {"type": "note_on", "time": 4, "note": 65, "velocity": 99, "channel": 0}, {"type": "note_off", "time": 38, "note": 65, "velocity": 99, "channel": 0}, {"type": "note_on", "time": 4, "note": 67, "velocity": 115, "channel": 0}, {"type": "note_off", "time": 50, "note": 67, "velocity": 115, "channel": 0}, {"type": "note_on", "time": 5, "note": 68, "velocity": 99, "channel": 0}, {"type": "note_off", "time": 45, "note": 68, "velocity": 99, "channel": 0}, {"type": "note_on", "time": 10, "note": 69, "velocity": 100, "channel": 0}, {"type": "note_off", "time": 28, "note": 69, "velocity": 100, "channel": 0}, {"type": "note_on", "time": 12, "note": 72, "velocity": 103, "channel": 0}, {"type": "note_off", "time": 36, "note": 72, "velocity": 103, "channel": 0}, {"type": "note_on", "time": 55, "note": 71, "velocity": 109, "channel": 0}, {"type": "note_off", "time": 35, "note": 71, "velocity": 109, "channel": 0}, {"type": "note_on", "time": 11, "note": 69, "velocity": 121, "channel": 0}, {"type": "note_off", "time": 41, "note": 69, "velocity": 121, "channel": 0}, {"type": "note_on", "time": 6, "note": 67, "velocity": 95, "channel": 0}, {"type": "note_off", "time": 41, "note": 67, "velocity": 95, "channel": 0}, {"type": "note_on", "time": 7, "note": 66, "velocity": 118, "channel": 0}, {"type": "note_off", "time": 42, "note": 66, "velocity": 118, "channel": 0}, {"type": "note_on", "time": 7, "note": 65, "velocity": 100, "channel": 0}, {"type": "note_off", "time": 37, "note": 65, "velocity": 100, "channel": 0}, {"type": "note_on", "time": 151, "note": 64, "velocity": 111, "channel": 0}, {"type": "note_off", "time": 42, "note": 64, "velocity": 111, "channel": 0}, {"type": "note_on", "time": 10, "note": 63, "velocity": 110, "channel": 0}, {"type": "note_off", "time": 43, "note": 63, "velocity": 110, "channel": 0}, {"type": "note_on", "time": 8, "note": 62, "velocity": 106, "channel": 0}, {"type": "note_off", "time": 33, "note": 62, "velocity": 106, "channel": 0}, {"type": "note_on", "time": 17, "note": 60, "velocity": 100, "channel": 0}, {"type": "note_off", "time": 23, "note": 60, "velocity": 100, "channel": 0}, {"type": "note_on", "time": 20, "note": 57, "velocity": 102, "channel": 0}, {"type": "note_off", "time": 29, "note": 57, "velocity": 102, "channel": 0}, {"type": "note_on", "time": 21, "note": 58, "velocity": 101, "channel": 0}, {"type": "note_off", "time": 25, "note": 58, "velocity": 101, "channel": 0}, {"type": "note_on", "time": 12, "note": 59, "velocity": 96, "channel": 0}, {"type": "note_off", "time": 41, "note": 59, "velocity": 96, "channel": 0}, {"type": "note_on", "time": 12, "note": 55, "velocity": 102, "channel": 0}, {"type": "note_off", "time": 23, "note": 55, "velocity": 102, "channel": 0}, {"type": "note_on", "time": 12, "note": 57, "velocity": 96, "channel": 0}, {"type": "note_off", "time": 41, "note": 57, "velocity": 96, "channel": 0}, {"type": "note_on", "time": 5, "note": 53, "velocity": 109, "channel": 0}, {"type": "note_off", "time": 39, "note": 53, "velocity": 109, "channel": 0}, {"type": "note_on", "time": 13, "note": 51, "velocity": 102, "channel": 0}, {"type": "note_off", "time": 134, "note": 51, "velocity": 102, "channel": 0}, {"type": "note_on", "time": 7, "note": 61, "velocity": 120, "channel": 0}, {"type": "note_off", "time": 20, "note": 61, "velocity": 120, "channel": 0}, {"type": "note_on", "time": 5, "note": 62, "velocity": 111, "channel": 0}, {"type": "note_off", "time": 107, "note": 62, "velocity": 111, "channel": 0}, {"type": "note_on", "time": 399, "note": 55, "velocity": 91, "channel": 0}, {"type": "note_off", "time": 40, "note": 55, "velocity": 91, "channel": 0}, {"type": "note_on", "time": 6, "note": 58, "velocity": 98, "channel": 0}, {"type": "note_off", "time": 39, "note": 58, "velocity": 98, "channel": 0}, {"type": "note_on", "time": 6, "note": 62, "velocity": 107, "channel": 0}, {"type": "note_off", "time": 31, "note": 62, "velocity": 107, "channel": 0}, {"type": "note_on", "time": 20, "note": 63, "velocity": 107, "channel": 0}, {"type": "note_off", "time": 35, "note": 63, "velocity": 107, "channel": 0}, {"type": "note_on", "time": 6, "note": 60, "velocity": 107, "channel": 0}, {"type": "note_off", "time": 36, "note": 60, "velocity": 107, "channel": 0}, {"type": "note_on", "time": 13, "note": 62, "velocity": 114, "channel": 0}, {"type": "note_off", "time": 62, "note": 62, "velocity": 114, "channel": 0}, {"type": "note_on", "time": 285, "note": 55, "velocity": 94, "channel": 0}, {"type": "note_off", "time": 39, "note": 55, "velocity": 94, "channel": 0}, {"type": "note_on", "time": 10, "note": 58, "velocity": 95, "channel": 0}, {"type": "note_off", "time": 34, "note": 58, "velocity": 95, "channel": 0}, {"type": "note_on", "time": 10, "note": 62, "velocity": 105, "channel": 0}, {"type": "note_off", "time": 42, "note": 62, "velocity": 105, "channel": 0}, {"type": "note_on", "time": 15, "note": 63, "velocity": 98, "channel": 0}, {"type": "note_off", "time": 37, "note": 63, "velocity": 98, "channel": 0}, {"type": "note_on", "time": 10, "note": 62, "velocity": 105, "channel": 0}, {"type": "note_off", "time": 37, "note": 62, "velocity": 105, "channel": 0}, {"type": "note_on", "time": 8, "note": 61, "velocity": 108, "channel": 0}, {"type": "note_off", "time": 44, "note": 61, "velocity": 108, "channel": 0}, {"type": "note_on", "time": 6, "note": 60, "velocity": 102, "channel": 0}, {"type": "note_off", "time": 34, "note": 60, "velocity": 102, "channel": 0}, {"type": "note_on", "time": 8, "note": 58, "velocity": 106, "channel": 0}, {"type": "note_off", "time": 29, "note": 58, "velocity": 106, "channel": 0}, {"type": "note_on", "time": 13, "note": 57, "velocity": 96, "channel": 0}, {"type": "note_off", "time": 50, "note": 57, "velocity": 96, "channel": 0}, {"type": "note_on", "time": 4, "note": 55, "velocity": 99, "channel": 0}, {"type": "note_off", "time": 37, "note": 55, "velocity": 99, "channel": 0}, {"type": "note_on", "time": 6, "note": 54, "velocity": 105, "channel": 0}, {"type": "note_off", "time": 34, "note": 54, "velocity": 105, "channel": 0}, {"type": "note_on", "time": 12, "note": 51, "velocity": 99, "channel": 0}, {"type": "note_off", "time": 137, "note": 51, "velocity": 99, "channel": 0}, {"type": "note_on", "time": 19, "note": 49, "velocity": 111, "channel": 0}, {"type": "note_off", "time": 30, "note": 49, "velocity": 111, "channel": 0}, {"type": "note_on", "time": 16, "note": 50, "velocity": 103, "channel": 0}, {"type": "note_off", "time": 33, "note": 50, "velocity": 103, "channel": 0}, {"type": "note_on", "time": 56, "note": 54, "velocity": 100, "channel": 0}, {"type": "note_off", "time": 40, "note": 54, "velocity": 100, "channel": 0}, {"type": "note_on", "time": 8, "note": 57, "velocity": 106, "channel": 0}, {"type": "note_off", "time": 38, "note": 57, "velocity": 106, "channel": 0}, {"type": "note_on", "time": 9, "note": 54, "velocity": 103, "channel": 0}, {"type": "note_off", "time": 43, "note": 54, "velocity": 103, "channel": 0}, {"type": "note_on", "time": 5, "note": 55, "velocity": 91, "channel": 0}, {"type": "note_off", "time": 36, "note": 55, "velocity": 91, "channel": 0}, {"type": "note_on", "time": 8, "note": 57, "velocity": 111, "channel": 0}, {"type": "note_off", "time": 30, "note": 57, "velocity": 111, "channel": 0}, {"type": "note_on", "time": 14, "note": 58, "velocity": 103, "channel": 0}, {"type": "note_off", "time": 37, "note": 58, "velocity": 103, "channel": 0}, {"type": "note_on", "time": 9, "note": 60, "velocity": 117, "channel": 0}, {"type": "note_off", "time": 39, "note": 60, "velocity": 117, "channel": 0}, {"type": "note_on", "time": 6, "note": 61, "velocity": 98, "channel": 0}, {"type": "note_off", "time": 40, "note": 61, "velocity": 98, "channel": 0}, {"type": "note_on", "time": 11, "note": 62, "velocity": 102, "channel": 0}, {"type": "note_off", "time": 41, "note": 62, "velocity": 102, "channel": 0}, {"type": "note_on", "time": 4, "note": 65, "velocity": 115, "channel": 0}, {"type": "note_off", "time": 44, "note": 65, "velocity": 115, "channel": 0}, {"type": "note_on", "time": 5, "note": 62, "velocity": 109, "channel": 0}, {"type": "note_off", "time": 34, "note": 62, "velocity": 109, "channel": 0}, {"type": "note_on", "time": 10, "note": 64, "velocity": 111, "channel": 0}, {"type": "note_off", "time": 37, "note": 64, "velocity": 111, "channel": 0}, {"type": "note_on", "time": 6, "note": 62, "velocity": 114, "channel": 0}, {"type": "note_off", "time": 39, "note": 62, "velocity": 114, "channel": 0}, {"type": "note_on", "time": 7, "note": 60, "velocity": 109, "channel": 0}, {"type": "note_off", "time": 39, "note": 60, "velocity": 109, "channel": 0}, {"type": "note_on", "time": 5, "note": 59, "velocity": 113, "channel": 0}, {"type": "note_off", "time": 56, "note": 59, "velocity": 113, "channel": 0}, {"type": "note_on", "time": 4, "note": 58, "velocity": 102, "channel": 0}, {"type": "note_off", "time": 46, "note": 58, "velocity": 102, "channel": 0}, {"type": "note_on", "time": 7, "note": 55, "velocity": 96, "channel": 0}, {"type": "note_off", "time": 36, "note": 55, "velocity": 96, "channel": 0}, {"type": "note_on", "time": 8, "note": 57, "velocity": 103, "channel": 0}, {"type": "note_off", "time": 41, "note": 57, "velocity": 103, "channel": 0}, {"type": "note_on", "time": 11, "note": 50, "velocity": 117, "channel": 0}, {"type": "note_off", "time": 46, "note": 50, "velocity": 117, "channel": 0}, {"type": "note_on", "time": 88, "note": 57, "velocity": 101, "channel": 0}, {"type": "note_off", "time": 48, "note": 57, "velocity": 101, "channel": 0}, {"type": "note_on", "time": 3, "note": 54, "velocity": 108, "channel": 0}, {"type": "note_off", "time": 40, "note": 54, "velocity": 108, "channel": 0}, {"type": "note_on", "time": 12, "note": 55, "velocity": 94, "channel": 0}, {"type": "note_off", "time": 39, "note": 55, "velocity": 94, "channel": 0}, {"type": "note_on", "time": 9, "note": 57, "velocity": 107, "channel": 0}, {"type": "note_off", "time": 33, "note": 57, "velocity": 107, "channel": 0}, {"type": "note_on", "time": 5, "note": 58, "velocity": 93, "channel": 0}, {"type": "note_off", "time": 46, "note": 58, "velocity": 93, "channel": 0}, {"type": "note_on", "time": 4, "note": 54, "velocity": 110, "channel": 0}, {"type": "note_off", "time": 45, "note": 54, "velocity": 110, "channel": 0}, {"type": "note_on", "time": 6, "note": 55, "velocity": 94, "channel": 0}, {"type": "note_off", "time": 39, "note": 55, "velocity": 94, "channel": 0}, {"type": "note_on", "time": 8, "note": 57, "velocity": 107, "channel": 0}, {"type": "note_off", "time": 40, "note": 57, "velocity": 107, "channel": 0}, {"type": "note_on", "time": 5, "note": 58, "velocity": 98, "channel": 0}, {"type": "note_off", "time": 40, "note": 58, "velocity": 98, "channel": 0}, {"type": "note_on", "time": 7, "note": 60, "velocity": 111, "channel": 0}, {"type": "note_off", "time": 39, "note": 60, "velocity": 111, "channel": 0}, {"type": "note_on", "time": 5, "note": 62, "velocity": 119, "channel": 0}, {"type": "note_off", "time": 43, "note": 62, "velocity": 119, "channel": 0}, {"type": "note_on", "time": 6, "note": 64, "velocity": 112, "channel": 0}, {"type": "note_off", "time": 40, "note": 64, "velocity": 112, "channel": 0}, {"type": "note_on", "time": 5, "note": 65, "velocity": 112, "channel": 0}, {"type": "note_off", "time": 46, "note": 65, "velocity": 112, "channel": 0}, {"type": "note_on", "time": 10, "note": 57, "velocity": 95, "channel": 0}, {"type": "note_off", "time": 69, "note": 57, "velocity": 95, "channel": 0}, {"type": "note_on", "time": 18, "note": 60, "velocity": 88, "channel": 0}, {"type": "note_off", "time": 42, "note": 60, "velocity": 88, "channel": 0}, {"type": "note_on", "time": 10, "note": 62, "velocity": 108, "channel": 0}, {"type": "note_off", "time": 38, "note": 62, "velocity": 108, "channel": 0}, {"type": "note_on", "time": 8, "note": 64, "velocity": 110, "channel": 0}, {"type": "note_off", "time": 38, "note": 64, "velocity": 110, "channel": 0}, {"type": "note_on", "time": 7, "note": 65, "velocity": 115, "channel": 0}, {"type": "note_off", "time": 37, "note": 65, "velocity": 115, "channel": 0}, {"type": "note_on", "time": 15, "note": 67, "velocity": 106, "channel": 0}, {"type": "note_off", "time": 28, "note": 67, "velocity": 106, "channel": 0}, {"type": "note_on", "time": 7, "note": 69, "velocity": 111, "channel": 0}, {"type": "note_off", "time": 36, "note": 69, "velocity": 111, "channel": 0}, {"type": "note_on", "time": 16, "note": 69, "velocity": 117, "channel": 0}, {"type": "note_off", "time": 41, "note": 69, "velocity": 117, "channel": 0}, {"type": "note_on", "time": 1, "note": 67, "velocity": 104, "channel": 0}, {"type": "note_off", "time": 47, "note": 67, "velocity": 104, "channel": 0}, {"type": "note_on", "time": 2, "note": 65, "velocity": 112, "channel": 0}, {"type": "note_off", "time": 40, "note": 65, "velocity": 112, "channel": 0}, {"type": "note_on", "time": 9, "note": 64, "velocity": 98, "channel": 0}, {"type": "note_off", "time": 48, "note": 64, "velocity": 98, "channel": 0}, {"type": "note_on", "time": 7, "note": 63, "velocity": 105, "channel": 0}, {"type": "note_off", "time": 33, "note": 63, "velocity": 105, "channel": 0}, {"type": "note_on", "time": 9, "note": 62, "velocity": 104, "channel": 0}, {"type": "note_off", "time": 36, "note": 62, "velocity": 104, "channel": 0}, {"type": "note_on", "time": 6, "note": 61, "velocity": 92, "channel": 0}, {"type": "note_off", "time": 41, "note": 61, "velocity": 92, "channel": 0}, {"type": "note_on", "time": 13, "note": 60, "velocity": 89, "channel": 0}, {"type": "note_off", "time": 23, "note": 60, "velocity": 89, "channel": 0}, {"type": "note_on", "time": 5, "note": 61, "velocity": 110, "channel": 0}, {"type": "note_off", "time": 19, "note": 61, "velocity": 110, "channel": 0}, {"type": "note_on", "time": 7, "note": 58, "velocity": 114, "channel": 0}, {"type": "note_off", "time": 45, "note": 58, "velocity": 114, "channel": 0}, {"type": "note_on", "time": 2, "note": 57, "velocity": 86, "channel": 0}, {"type": "note_off", "time": 58, "note": 57, "velocity": 86, "channel": 0}, {"type": "note_on", "time": 90, "note": 52, "velocity": 122, "channel": 0}, {"type": "note_off", "time": 38, "note": 52, "velocity": 122, "channel": 0}, {"type": "note_on", "time": 7, "note": 53, "velocity": 114, "channel": 0}, {"type": "note_off", "time": 43, "note": 53, "velocity": 114, "channel": 0}, {"type": "note_on", "time": 8, "note": 55, "velocity": 104, "channel": 0}, {"type": "note_off", "time": 41, "note": 55, "velocity": 104, "channel": 0}, {"type": "note_on", "time": 4, "note": 56, "velocity": 94, "channel": 0}, {"type": "note_off", "time": 48, "note": 56, "velocity": 94, "channel": 0}, {"type": "note_on", "time": 5, "note": 58, "velocity": 95, "channel": 0}, {"type": "note_off", "time": 32, "note": 58, "velocity": 95, "channel": 0}, {"type": "note_on", "time": 8, "note": 60, "velocity": 107, "channel": 0}, {"type": "note_off", "time": 37, "note": 60, "velocity": 107, "channel": 0}, {"type": "note_on", "time": 9, "note": 63, "velocity": 111, "channel": 0}, {"type": "note_off", "time": 37, "note": 63, "velocity": 111, "channel": 0}, {"type": "note_on", "time": 6, "note": 60, "velocity": 105, "channel": 0}, {"type": "note_off", "time": 42, "note": 60, "velocity": 105, "channel": 0}, {"type": "note_on", "time": 8, "note": 61, "velocity": 95, "channel": 0}, {"type": "note_off", "time": 43, "note": 61, "velocity": 95, "channel": 0}, {"type": "note_on", "time": 5, "note": 62, "velocity": 105, "channel": 0}, {"type": "note_off", "time": 36, "note": 62, "velocity": 105, "channel": 0}, {"type": "note_on", "time": 7, "note": 65, "velocity": 113, "channel": 0}, {"type": "note_off", "time": 35, "note": 65, "velocity": 113, "channel": 0}, {"type": "note_on", "time": 5, "note": 68, "velocity": 120, "channel": 0}, {"type": "note_off", "time": 53, "note": 68, "velocity": 120, "channel": 0}, {"type": "note_on", "time": 4, "note": 72, "velocity": 111, "channel": 0}, {"type": "note_off", "time": 34, "note": 72, "velocity": 111, "channel": 0}, {"type": "note_on", "time": 6, "note": 71, "velocity": 109, "channel": 0}, {"type": "note_off", "time": 41, "note": 71, "velocity": 109, "channel": 0}, {"type": "note_on", "time": 7, "note": 67, "velocity": 113, "channel": 0}, {"type": "note_off", "time": 43, "note": 67, "velocity": 113, "channel": 0}, {"type": "note_on", "time": 5, "note": 70, "velocity": 108, "channel": 0}, {"type": "note_off", "time": 39, "note": 70, "velocity": 108, "channel": 0}, {"type": "note_on", "time": 3, "note": 67, "velocity": 119, "channel": 0}, {"type": "note_off", "time": 49, "note": 67, "velocity": 119, "channel": 0}, {"type": "note_on", "time": 4, "note": 62, "velocity": 102, "channel": 0}, {"type": "note_off", "time": 48, "note": 62, "velocity": 102, "channel": 0}, {"type": "note_on", "time": 9, "note": 58, "velocity": 98, "channel": 0}, {"type": "note_off", "time": 30, "note": 58, "velocity": 98, "channel": 0}, {"type": "note_on", "time": 5, "note": 60, "velocity": 113, "channel": 0}, {"type": "note_off", "time": 40, "note": 60, "velocity": 113, "channel": 0}, {"type": "note_on", "time": 6, "note": 60, "velocity": 117, "channel": 0}, {"type": "note_off", "time": 64, "note": 60, "velocity": 117, "channel": 0}, {"type": "note_on", "time": 374, "note": 75, "velocity": 105, "channel": 0}, {"type": "note_off", "time": 42, "note": 75, "velocity": 105, "channel": 0}, {"type": "note_on", "time": 14, "note": 74, "velocity": 94, "channel": 0}, {"type": "note_off", "time": 32, "note": 74, "velocity": 94, "channel": 0}, {"type": "note_on", "time": 5, "note": 73, "velocity": 111, "channel": 0}, {"type": "note_off", "time": 50, "note": 73, "velocity": 111, "channel": 0}, {"type": "note_on", "time": 7, "note": 65, "velocity": 101, "channel": 0}, {"type": "note_off", "time": 37, "note": 65, "velocity": 101, "channel": 0}, {"type": "note_on", "time": 5, "note": 67, "velocity": 86, "channel": 0}, {"type": "note_off", "time": 41, "note": 67, "velocity": 86, "channel": 0}, {"type": "note_on", "time": 9, "note": 70, "velocity": 110, "channel": 0}, {"type": "note_off", "time": 38, "note": 70, "velocity": 110, "channel": 0}, {"type": "note_on", "time": 10, "note": 72, "velocity": 106, "channel": 0}, {"type": "note_off", "time": 35, "note": 72, "velocity": 106, "channel": 0}, {"type": "note_on", "time": 17, "note": 75, "velocity": 99, "channel": 0}, {"type": "note_off", "time": 29, "note": 75, "velocity": 99, "channel": 0}, {"type": "note_on", "time": 11, "note": 72, "velocity": 106, "channel": 0}, {"type": "note_off", "time": 37, "note": 72, "velocity": 106, "channel": 0}, {"type": "note_on", "time": 13, "note": 71, "velocity": 109, "channel": 0}, {"type": "note_off", "time": 38, "note": 71, "velocity": 109, "channel": 0}, {"type": "note_on", "time": 5, "note": 70, "velocity": 98, "channel": 0}, {"type": "note_off", "time": 27, "note": 70, "velocity": 98, "channel": 0}, {"type": "note_on", "time": 21, "note": 68, "velocity": 112, "channel": 0}, {"type": "note_off", "time": 38, "note": 68, "velocity": 112, "channel": 0}, {"type": "note_on", "time": 13, "note": 67, "velocity": 110, "channel": 0}, {"type": "note_off", "time": 35, "note": 67, "velocity": 110, "channel": 0}, {"type": "note_on", "time": 10, "note": 65, "velocity": 106, "channel": 0}, {"type": "note_off", "time": 42, "note": 65, "velocity": 106, "channel": 0}, {"type": "note_on", "time": 9, "note": 63, "velocity": 98, "channel": 0}, {"type": "note_off", "time": 35, "note": 63, "velocity": 98, "channel": 0}, {"type": "note_on", "time": 14, "note": 60, "velocity": 106, "channel": 0}, {"type": "note_off", "time": 34, "note": 60, "velocity": 106, "channel": 0}, {"type": "note_on", "time": 7, "note": 61, "velocity": 108, "channel": 0}, {"type": "note_off", "time": 41, "note": 61, "velocity": 108, "channel": 0}, {"type": "note_on", "time": 6, "note": 66, "velocity": 111, "channel": 0}, {"type": "note_off", "time": 143, "note": 66, "velocity": 111, "channel": 0}, {"type": "note_on", "time": 89, "note": 61, "velocity": 97, "channel": 0}, {"type": "note_off", "time": 40, "note": 61, "velocity": 97, "channel": 0}, {"type": "note_on", "time": 2, "note": 58, "velocity": 115, "channel": 0}, {"type": "note_off", "time": 43, "note": 58, "velocity": 115, "channel": 0}, {"type": "note_on", "time": 7, "note": 59, "velocity": 111, "channel": 0}, {"type": "note_off", "time": 42, "note": 59, "velocity": 111, "channel": 0}, {"type": "note_on", "time": 8, "note": 61, "velocity": 93, "channel": 0}, {"type": "note_off", "time": 41, "note": 61, "velocity": 93, "channel": 0}, {"type": "note_on", "time": 10, "note": 62, "velocity": 91, "channel": 0}, {"type": "note_off", "time": 40, "note": 62, "velocity": 91, "channel": 0}, {"type": "note_on", "time": 5, "note": 64, "velocity": 98, "channel": 0}, {"type": "note_off", "time": 45, "note": 64, "velocity": 98, "channel": 0}, {"type": "note_on", "time": 3, "note": 66, "velocity": 99, "channel": 0}, {"type": "note_off", "time": 36, "note": 66, "velocity": 99, "channel": 0}, {"type": "note_on", "time": 10, "note": 69, "velocity": 112, "channel": 0}, {"type": "note_off", "time": 32, "note": 69, "velocity": 112, "channel": 0}, {"type": "note_on", "time": 8, "note": 72, "velocity": 107, "channel": 0}, {"type": "note_off", "time": 37, "note": 72, "velocity": 107, "channel": 0}, {"type": "note_on", "time": 9, "note": 73, "velocity": 104, "channel": 0}, {"type": "note_off", "time": 41, "note": 73, "velocity": 104, "channel": 0}, {"type": "note_on", "time": 9, "note": 71, "velocity": 97, "channel": 0}, {"type": "note_off", "time": 33, "note": 71, "velocity": 97, "channel": 0}, {"type": "note_on", "time": 16, "note": 69, "velocity": 88, "channel": 0}, {"type": "note_off", "time": 32, "note": 69, "velocity": 88, "channel": 0}, {"type": "note_on", "time": 7, "note": 71, "velocity": 102, "channel": 0}, {"type": "note_off", "time": 42, "note": 71, "velocity": 102, "channel": 0}, {"type": "note_on", "time": 12, "note": 72, "velocity": 106, "channel": 0}, {"type": "note_off", "time": 63, "note": 72, "velocity": 106, "channel": 0}, {"type": "note_on", "time": 41, "note": 72, "velocity": 96, "channel": 0}, {"type": "note_off", "time": 37, "note": 72, "velocity": 96, "channel": 0}, {"type": "note_on", "time": 4, "note": 68, "velocity": 119, "channel": 0}, {"type": "note_off", "time": 70, "note": 68, "velocity": 119, "channel": 0}, {"type": "note_on", "time": 28, "note": 68, "velocity": 116, "channel": 0}, {"type": "note_off", "time": 38, "note": 68, "velocity": 116, "channel": 0}, {"type": "note_on", "time": 12, "note": 65, "velocity": 103, "channel": 0}, {"type": "note_off", "time": 43, "note": 65, "velocity": 103, "channel": 0}, {"type": "note_on", "time": 52, "note": 65, "velocity": 101, "channel": 0}, {"type": "note_off", "time": 25, "note": 65, "velocity": 101, "channel": 0}, {"type": "note_on", "time": 16, "note": 61, "velocity": 96, "channel": 0}, {"type": "note_off", "time": 49, "note": 61, "velocity": 96, "channel": 0}, {"type": "note_on", "time": 48, "note": 61, "velocity": 98, "channel": 0}, {"type": "note_off", "time": 34, "note": 61, "velocity": 98, "channel": 0}, {"type": "note_on", "time": 14, "note": 72, "velocity": 111, "channel": 0}, {"type": "note_off", "time": 42, "note": 72, "velocity": 111, "channel": 0}, {"type": "note_on", "time": 56, "note": 72, "velocity": 97, "channel": 0}, {"type": "note_off", "time": 38, "note": 72, "velocity": 97, "channel": 0}, {"type": "note_on", "time": 4, "note": 73, "velocity": 109, "channel": 0}, {"type": "note_off", "time": 66, "note": 73, "velocity": 109, "channel": 0}, {"type": "note_on", "time": 27, "note": 73, "velocity": 103, "channel": 0}, {"type": "note_off", "time": 46, "note": 73, "velocity": 103, "channel": 0}, {"type": "note_on", "time": 5, "note": 69, "velocity": 117, "channel": 0}, {"type": "note_off", "time": 54, "note": 69, "velocity": 117, "channel": 0}, {"type": "note_on", "time": 40, "note": 69, "velocity": 106, "channel": 0}, {"type": "note_off", "time": 41, "note": 69, "velocity": 106, "channel": 0}, {"type": "note_on", "time": 6, "note": 66, "velocity": 113, "channel": 0}, {"type": "note_off", "time": 58, "note": 66, "velocity": 113, "channel": 0}, {"type": "note_on", "time": 37, "note": 66, "velocity": 107, "channel": 0}, {"type": "note_off", "time": 50, "note": 66, "velocity": 107, "channel": 0}, {"type": "note_on", "time": 4, "note": 62, "velocity": 104, "channel": 0}, {"type": "note_off", "time": 55, "note": 62, "velocity": 104, "channel": 0}, {"type": "note_on", "time": 37, "note": 62, "velocity": 105, "channel": 0}, {"type": "note_off", "time": 40, "note": 62, "velocity": 105, "channel": 0}, {"type": "note_on", "time": 12, "note": 61, "velocity": 114, "channel": 0}, {"type": "note_off", "time": 40, "note": 61, "velocity": 114, "channel": 0}, {"type": "note_on", "time": 60, "note": 61, "velocity": 100, "channel": 0}, {"type": "note_off", "time": 26, "note": 61, "velocity": 100, "channel": 0}, {"type": "note_on", "time": 8, "note": 59, "velocity": 108, "channel": 0}, {"type": "note_off", "time": 62, "note": 59, "velocity": 108, "channel": 0}, {"type": "note_on", "time": 181, "note": 72, "velocity": 108, "channel": 0}, {"type": "note_off", "time": 44, "note": 72, "velocity": 108, "channel": 0}, {"type": "note_on", "time": 3, "note": 73, "velocity": 108, "channel": 0}, {"type": "note_off", "time": 43, "note": 73, "velocity": 108, "channel": 0}, {"type": "note_on", "time": 10, "note": 72, "velocity": 106, "channel": 0}, {"type": "note_off", "time": 36, "note": 72, "velocity": 106, "channel": 0}, {"type": "note_on", "time": 17, "note": 71, "velocity": 99, "channel": 0}, {"type": "note_off", "time": 27, "note": 71, "velocity": 99, "channel": 0}, {"type": "note_on", "time": 16, "note": 70, "velocity": 101, "channel": 0}, {"type": "note_off", "time": 39, "note": 70, "velocity": 101, "channel": 0}, {"type": "note_on", "time": 4, "note": 66, "velocity": 116, "channel": 0}, {"type": "note_off", "time": 39, "note": 66, "velocity": 116, "channel": 0}, {"type": "note_on", "time": 8, "note": 65, "velocity": 108, "channel": 0}, {"type": "note_off", "time": 32, "note": 65, "velocity": 108, "channel": 0}, {"type": "note_on", "time": 15, "note": 64, "velocity": 108, "channel": 0}, {"type": "note_off", "time": 38, "note": 64, "velocity": 108, "channel": 0}, {"type": "note_on", "time": 4, "note": 63, "velocity": 97, "channel": 0}, {"type": "note_off", "time": 40, "note": 63, "velocity": 97, "channel": 0}, {"type": "note_on", "time": 9, "note": 61, "velocity": 93, "channel": 0}, {"type": "note_off", "time": 34, "note": 61, "velocity": 93, "channel": 0}, {"type": "note_on", "time": 8, "note": 58, "velocity": 96, "channel": 0}, {"type": "note_off", "time": 37, "note": 58, "velocity": 96, "channel": 0}, {"type": "note_on", "time": 5, "note": 59, "velocity": 103, "channel": 0}, {"type": "note_off", "time": 34, "note": 59, "velocity": 103, "channel": 0}, {"type": "note_on", "time": 2, "note": 60, "velocity": 96, "channel": 0}, {"type": "note_off", "time": 49, "note": 60, "velocity": 96, "channel": 0}, {"type": "note_on", "time": 11, "note": 63, "velocity": 105, "channel": 0}, {"type": "note_off", "time": 32, "note": 63, "velocity": 105, "channel": 0}, {"type": "note_on", "time": 8, "note": 66, "velocity": 110, "channel": 0}, {"type": "note_off", "time": 44, "note": 66, "velocity": 110, "channel": 0}, {"type": "note_on", "time": 13, "note": 68, "velocity": 102, "channel": 0}, {"type": "note_off", "time": 32, "note": 68, "velocity": 102, "channel": 0}, {"type": "note_on", "time": 11, "note": 71, "velocity": 104, "channel": 0}, {"type": "note_off", "time": 46, "note": 71, "velocity": 104, "channel": 0}, {"type": "note_on", "time": 5, "note": 69, "velocity": 85, "channel": 0}, {"type": "note_off", "time": 39, "note": 69, "velocity": 85, "channel": 0}, {"type": "note_on", "time": 5, "note": 71, "velocity": 108, "channel": 0}, {"type": "note_off", "time": 35, "note": 71, "velocity": 108, "channel": 0}, {"type": "note_on", "time": 14, "note": 69, "velocity": 104, "channel": 0}, {"type": "note_off", "time": 42, "note": 69, "velocity": 104, "channel": 0}, {"type": "note_on", "time": 6, "note": 68, "velocity": 104, "channel": 0}, {"type": "note_off", "time": 35, "note": 68, "velocity": 104, "channel": 0}, {"type": "note_on", "time": 9, "note": 66, "velocity": 107, "channel": 0}, {"type": "note_off", "time": 40, "note": 66, "velocity": 107, "channel": 0}, {"type": "note_on", "time": 7, "note": 64, "velocity": 96, "channel": 0}, {"type": "note_off", "time": 38, "note": 64, "velocity": 96, "channel": 0}, {"type": "note_on", "time": 19, "note": 61, "velocity": 101, "channel": 0}, {"type": "note_off", "time": 31, "note": 61, "velocity": 101, "channel": 0}, {"type": "note_on", "time": 7, "note": 63, "velocity": 112, "channel": 0}, {"type": "note_off", "time": 44, "note": 63, "velocity": 112, "channel": 0}, {"type": "note_on", "time": 2, "note": 60, "velocity": 115, "channel": 0}, {"type": "note_off", "time": 50, "note": 60, "velocity": 115, "channel": 0}, {"type": "note_on", "time": 4, "note": 57, "velocity": 94, "channel": 0}, {"type": "note_off", "time": 44, "note": 57, "velocity": 94, "channel": 0}, {"type": "note_on", "time": 5, "note": 55, "velocity": 95, "channel": 0}, {"type": "note_off", "time": 35, "note": 55, "velocity": 95, "channel": 0}, {"type": "note_on", "time": 5, "note": 56, "velocity": 105, "channel": 0}, {"type": "note_off", "time": 180, "note": 56, "velocity": 105, "channel": 0}, {"type": "note_on", "time": 14, "note": 61, "velocity": 96, "channel": 0}, {"type": "note_off", "time": 40, "note": 61, "velocity": 96, "channel": 0}, {"type": "note_on", "time": 5, "note": 63, "velocity": 100, "channel": 0}, {"type": "note_off", "time": 39, "note": 63, "velocity": 100, "channel": 0}, {"type": "note_on", "time": 7, "note": 64, "velocity": 99, "channel": 0}, {"type": "note_off", "time": 35, "note": 64, "velocity": 99, "channel": 0}, {"type": "note_on", "time": 11, "note": 66, "velocity": 98, "channel": 0}, {"type": "note_off", "time": 32, "note": 66, "velocity": 98, "channel": 0}, {"type": "note_on", "time": 10, "note": 68, "velocity": 112, "channel": 0}, {"type": "note_off", "time": 40, "note": 68, "velocity": 112, "channel": 0}, {"type": "note_on", "time": 6, "note": 71, "velocity": 108, "channel": 0}, {"type": "note_off", "time": 40, "note": 71, "velocity": 108, "channel": 0}, {"type": "note_on", "time": 7, "note": 70, "velocity": 107, "channel": 0}, {"type": "note_off", "time": 48, "note": 70, "velocity": 107, "channel": 0}, {"type": "note_on", "time": 9, "note": 66, "velocity": 112, "channel": 0}, {"type": "note_off", "time": 37, "note": 66, "velocity": 112, "channel": 0}, {"type": "note_on", "time": 3, "note": 68, "velocity": 112, "channel": 0}, {"type": "note_off", "time": 42, "note": 68, "velocity": 112, "channel": 0}, {"type": "note_on", "time": 8, "note": 64, "velocity": 103, "channel": 0}, {"type": "note_off", "time": 33, "note": 64, "velocity": 103, "channel": 0}, {"type": "note_on", "time": 5, "note": 63, "velocity": 107, "channel": 0}, {"type": "note_off", "time": 40, "note": 63, "velocity": 107, "channel": 0}, {"type": "note_on", "time": 12, "note": 62, "velocity": 114, "channel": 0}, {"type": "note_off", "time": 57, "note": 62, "velocity": 114, "channel": 0}, {"type": "note_on", "time": 2, "note": 61, "velocity": 110, "channel": 0}, {"type": "note_off", "time": 28, "note": 61, "velocity": 110, "channel": 0}, {"type": "note_on", "time": 17, "note": 63, "velocity": 97, "channel": 0}, {"type": "note_off", "time": 36, "note": 63, "velocity": 97, "channel": 0}, {"type": "note_on", "time": 4, "note": 64, "velocity": 105, "channel": 0}, {"type": "note_off", "time": 38, "note": 64, "velocity": 105, "channel": 0}, {"type": "note_on", "time": 14, "note": 66, "velocity": 105, "channel": 0}, {"type": "note_off", "time": 37, "note": 66, "velocity": 105, "channel": 0}, {"type": "note_on", "time": 5, "note": 63, "velocity": 109, "channel": 0}, {"type": "note_off", "time": 35, "note": 63, "velocity": 109, "channel": 0}, {"type": "note_on", "time": 11, "note": 61, "velocity": 120, "channel": 0}, {"type": "note_off", "time": 57, "note": 61, "velocity": 120, "channel": 0}, {"type": "note_on", "time": 97, "note": 66, "velocity": 111, "channel": 0}, {"type": "note_off", "time": 126, "note": 66, "velocity": 111, "channel": 0}, {"type": "note_on", "time": 14, "note": 64, "velocity": 99, "channel": 0}, {"type": "note_off", "time": 27, "note": 64, "velocity": 99, "channel": 0}, {"type": "note_on", "time": 12, "note": 63, "velocity": 108, "channel": 0}, {"type": "note_off", "time": 33, "note": 63, "velocity": 108, "channel": 0}, {"type": "note_on", "time": 13, "note": 61, "velocity": 108, "channel": 0}, {"type": "note_off", "time": 37, "note": 61, "velocity": 108, "channel": 0}, {"type": "note_on", "time": 8, "note": 59, "velocity": 94, "channel": 0}, {"type": "note_off", "time": 33, "note": 59, "velocity": 94, "channel": 0}, {"type": "note_on", "time": 13, "note": 55, "velocity": 91, "channel": 0}, {"type": "note_off", "time": 37, "note": 55, "velocity": 91, "channel": 0}, {"type": "note_on", "time": 9, "note": 58, "velocity": 101, "channel": 0}, {"type": "note_off", "time": 45, "note": 58, "velocity": 101, "channel": 0}, {"type": "note_on", "time": 9, "note": 55, "velocity": 95, "channel": 0}, {"type": "note_off", "time": 38, "note": 55, "velocity": 95, "channel": 0}, {"type": "note_on", "time": 6, "note": 57, "velocity": 93, "channel": 0}, {"type": "note_off", "time": 36, "note": 57, "velocity": 93, "channel": 0}, {"type": "note_on", "time": 9, "note": 58, "velocity": 101, "channel": 0}, {"type": "note_off", "time": 42, "note": 58, "velocity": 101, "channel": 0}, {"type": "note_on", "time": 8, "note": 60, "velocity": 105, "channel": 0}, {"type": "note_off", "time": 33, "note": 60, "velocity": 105, "channel": 0}, {"type": "note_on", "time": 7, "note": 63, "velocity": 110, "channel": 0}, {"type": "note_off", "time": 39, "note": 63, "velocity": 110, "channel": 0}, {"type": "note_on", "time": 7, "note": 67, "velocity": 113, "channel": 0}, {"type": "note_off", "time": 38, "note": 67, "velocity": 113, "channel": 0}, {"type": "note_on", "time": 8, "note": 65, "velocity": 114, "channel": 0}, {"type": "note_off", "time": 41, "note": 65, "velocity": 114, "channel": 0}, {"type": "note_on", "time": 11, "note": 63, "velocity": 104, "channel": 0}, {"type": "note_off", "time": 40, "note": 63, "velocity": 104, "channel": 0}, {"type": "note_on", "time": 6, "note": 60, "velocity": 110, "channel": 0}, {"type": "note_off", "time": 39, "note": 60, "velocity": 110, "channel": 0}, {"type": "note_on", "time": 8, "note": 58, "velocity": 98, "channel": 0}, {"type": "note_off", "time": 41, "note": 58, "velocity": 98, "channel": 0}, {"type": "note_on", "time": 2, "note": 56, "velocity": 104, "channel": 0}, {"type": "note_off", "time": 43, "note": 56, "velocity": 104, "channel": 0}, {"type": "note_on", "time": 8, "note": 55, "velocity": 90, "channel": 0}, {"type": "note_off", "time": 37, "note": 55, "velocity": 90, "channel": 0}, {"type": "note_on", "time": 5, "note": 53, "velocity": 101, "channel": 0}, {"type": "note_off", "time": 34, "note": 53, "velocity": 101, "channel": 0}, {"type": "note_on", "time": 13, "note": 51, "velocity": 99, "channel": 0}, {"type": "note_off", "time": 36, "note": 51, "velocity": 99, "channel": 0}, {"type": "note_on", "time": 4, "note": 49, "velocity": 103, "channel": 0}, {"type": "note_off", "time": 50, "note": 49, "velocity": 103, "channel": 0}, {"type": "note_on", "time": 7, "note": 50, "velocity": 105, "channel": 0}, {"type": "note_off", "time": 37, "note": 50, "velocity": 105, "channel": 0}, {"type": "note_on", "time": 11, "note": 54, "velocity": 105, "channel": 0}, {"type": "note_off", "time": 39, "note": 54, "velocity": 105, "channel": 0}, {"type": "note_on", "time": 4, "note": 57, "velocity": 103, "channel": 0}, {"type": "note_off", "time": 31, "note": 57, "velocity": 103, "channel": 0}, {"type": "note_on", "time": 10, "note": 61, "velocity": 116, "channel": 0}, {"type": "note_off", "time": 42, "note": 61, "velocity": 116, "channel": 0}, {"type": "note_on", "time": 4, "note": 59, "velocity": 105, "channel": 0}, {"type": "note_off", "time": 46, "note": 59, "velocity": 105, "channel": 0}, {"type": "note_on", "time": 7, "note": 61, "velocity": 110, "channel": 0}, {"type": "note_off", "time": 48, "note": 61, "velocity": 110, "channel": 0}, {"type": "note_on", "time": 4, "note": 62, "velocity": 103, "channel": 0}, {"type": "note_off", "time": 42, "note": 62, "velocity": 103, "channel": 0}, {"type": "note_on", "time": 6, "note": 64, "velocity": 105, "channel": 0}, {"type": "note_off", "time": 42, "note": 64, "velocity": 105, "channel": 0}, {"type": "note_on", "time": 4, "note": 61, "velocity": 101, "channel": 0}, {"type": "note_off", "time": 36, "note": 61, "velocity": 101, "channel": 0}, {"type": "note_on", "time": 6, "note": 57, "velocity": 104, "channel": 0}, {"type": "note_off", "time": 37, "note": 57, "velocity": 104, "channel": 0}, {"type": "note_on", "time": 16, "note": 54, "velocity": 96, "channel": 0}, {"type": "note_off", "time": 33, "note": 54, "velocity": 96, "channel": 0}, {"type": "note_on", "time": 84, "note": 50, "velocity": 111, "channel": 0}, {"type": "note_off", "time": 44, "note": 50, "velocity": 111, "channel": 0}, {"type": "note_on", "time": 7, "note": 49, "velocity": 97, "channel": 0}, {"type": "note_off", "time": 35, "note": 49, "velocity": 97, "channel": 0}, {"type": "note_on", "time": 11, "note": 47, "velocity": 111, "channel": 0}, {"type": "note_off", "time": 41, "note": 47, "velocity": 111, "channel": 0}, {"type": "end_of_track", "time": 0}]]}