{"ticks_per_beat": 840, "tracks": [[{"type": "track_name", "name": "Melody", "time": 0}, {"type": "set_tempo", "tempo": 468750, "time": 0}, {"type": "key_signature", "key": "Eb", "time": 0}, {"type": "time_signature", "numerator": 4, "denominator": 4, "clocks_per_click": 24, "notated_32nd_notes_per_beat": 8, "time": 0}, {"type": "note_on", "time": 10777, "note": 67, "velocity": 119, "channel": 0}, {"type": "note_off", "time": 696, "note": 67, "velocity": 119, "channel": 0}, {"type": "note_on", "time": 322, "note": 72, "velocity": 113, "channel": 0}, {"type": "note_off", "time": 436, "note": 72, "velocity": 113, "channel": 0}, {"type": "note_on", "time": 166, "note": 65, "velocity": 120, "channel": 0}, {"type": "note_off", "time": 140, "note": 65, "velocity": 120, "channel": 0}, {"type": "note_on", "time": 31, "note": 66, "velocity": 119, "channel": 0}, {"type": "note_off", "time": 176, "note": 66, "velocity": 119, "channel": 0}, {"type": "note_on", "time": 41, "note": 65, "velocity": 106, "channel": 0}, {"type": "note_off", "time": 483, "note": 65, "velocity": 106, "channel": 0}, {"type": "note_on", "time": 296, "note": 65, "velocity": 118, "channel": 0}, {"type": "note_off", "time": 639, "note": 65, "velocity": 118, "channel": 0}, {"type": "note_on", "time": 98, "note": 63, "velocity": 122, "channel": 0}, {"type": "note_off", "time": 228, "note": 63, "velocity": 122, "channel": 0}, {"type": "note_on", "time": 322, "note": 66, "velocity": 117, "channel": 0}, {"type": "note_off", "time": 93, "note": 66, "velocity": 117, "channel": 0}, {"type": "note_on", "time": 15, "note": 67, "velocity": 119, "channel": 0}, {"type": "note_off", "time": 187, "note": 67, "velocity": 119, "channel": 0}, {"type": "note_on", "time": 192, "note": 60, "velocity": 98, "channel": 0}, {"type": "note_off", "time": 353, "note": 60, "velocity": 98, "channel": 0}, {"type": "note_on", "time": 265, "note": 60, "velocity": 108, "channel": 0}, {"type": "note_off", "time": 369, "note": 60, "velocity": 108, "channel": 0}, {"type": "note_on", "time": 213, "note": 60, "velocity": 110, "channel": 0}, {"type": "note_off", "time": 171, "note": 60, "velocity": 110, "channel": 0}, {"type": "note_on", "time": 156, "note": 65, "velocity": 124, "channel": 0}, {"type": "note_off", "time": 109, "note": 65, "velocity": 124, "channel": 0}, {"type": "note_on", "time": 46, "note": 66, "velocity": 116, "channel": 0}, {"type": "note_off", "time": 104, "note": 66, "velocity": 116, "channel": 0}, {"type": "note_on", "time": 46, "note": 65, "velocity": 110, "channel": 0}, {"type": "note_off", "time": 223, "note": 65, "velocity": 110, "channel": 0}, {"type": "note_on", "time": 83, "note": 63, "velocity": 106, "channel": 0}, {"type": "note_off", "time": 189, "note": 63, "velocity": 106, "channel": 0}, {"type": "note_on", "time": 49, "note": 60, "velocity": 99, "channel": 0}, {"type": "note_off", "time": 379, "note": 60, "velocity": 99, "channel": 0}, {"type": "note_on", "time": 145, "note": 55, "velocity": 100, "channel": 0}, {"type": "note_off", "time": 223, "note": 55, "velocity": 100, "channel": 0}, {"type": "note_on", "time": 312, "note": 58, "velocity": 114, "channel": 0}, {"type": "note_off", "time": 286, "note": 58, "velocity": 114, "channel": 0}, {"type": "note_on", "time": 88, "note": 60, "velocity": 112, "channel": 0}, {"type": "note_off", "time": 369, "note": 60, "velocity": 112, "channel": 0}, {"type": "note_on", "time": 62, "note": 60, "velocity": 107, "channel": 0}, {"type": "note_off", "time": 332, "note": 60, "velocity": 107, "channel": 0}, {"type": "note_on", "time": 78, "note": 58, "velocity": 100, "channel": 0}, {"type": "note_off", "time": 150, "note": 58, "velocity": 100, "channel": 0}, {"type": "note_on", "time": 343, "note": 61, "velocity": 108, "channel": 0}, {"type": "note_off", "time": 254, "note": 61, "velocity": 108, "channel": 0}, {"type": "note_on", "time": 135, "note": 64, "velocity": 116, "channel": 0}, {"type": "note_off", "time": 275, "note": 64, "velocity": 116, "channel": 0}, {"type": "note_on", "time": 88, "note": 67, "velocity": 122, "channel": 0}, {"type": "note_off", "time": 265, "note": 67, "velocity": 122, "channel": 0}, {"type": "note_on", "time": 62, "note": 68, "velocity": 107, "channel": 0}, {"type": "note_off", "time": 197, "note": 68, "velocity": 107, "channel": 0}, {"type": "note_on", "time": 20, "note": 71, "velocity": 108, "channel": 0}, {"type": "note_off", "time": 218, "note": 71, "velocity": 108, "channel": 0}, {"type": "note_on", "time": 88, "note": 69, "velocity": 113, "channel": 0}, {"type": "note_off", "time": 436, "note": 69, "velocity": 113, "channel": 0}, {"type": "note_on", "time": 72, "note": 61, "velocity": 100, "channel": 0}, {"type": "note_off", "time": 104, "note": 61, "velocity": 100, "channel": 0}, {"type": "note_on", "time": 36, "note": 64, "velocity": 108, "channel": 0}, {"type": "note_off", "time": 530, "note": 64, "velocity": 108, "channel": 0}, {"type": "note_on", "time": 104, "note": 63, "velocity": 108, "channel": 0}, {"type": "note_off", "time": 431, "note": 63, "velocity": 108, "channel": 0}, {"type": "note_on", "time": 1607, "note": 68, "velocity": 113, "channel": 0}, {"type": "note_off", "time": 286, "note": 68, "velocity": 113, "channel": 0}, {"type": "note_on", "time": 114, "note": 66, "velocity": 118, "channel": 0}, {"type": "note_off", "time": 197, "note": 66, "velocity": 118, "channel": 0}, {"type": "note_on", "time": 41, "note": 66, "velocity": 118, "channel": 0}, {"type": "note_off", "time": 223, "note": 66, "velocity": 118, "channel": 0}, {"type": "note_on", "time": 57, "note": 65, "velocity": 119, "channel": 0}, {"type": "note_off", "time": 72, "note": 65, "velocity": 119, "channel": 0}, {"type": "note_on", "time": 67, "note": 65, "velocity": 117, "channel": 0}, {"type": "note_off", "time": 213, "note": 65, "velocity": 117, "channel": 0}, {"type": "note_on", "time": 52, "note": 63, "velocity": 109, "channel": 0}, {"type": "note_off", "time": 171, "note": 63, "velocity": 109, "channel": 0}, {"type": "note_on", "time": 52, "note": 61, "velocity": 100, "channel": 0}, {"type": "note_off", "time": 124, "note": 61, "velocity": 100, "channel": 0}, {"type": "note_on", "time": 83, "note": 62, "velocity": 106, "channel": 0}, {"type": "note_off", "time": 244, "note": 62, "velocity": 106, "channel": 0}, {"type": "note_on", "time": 36, "note": 62, "velocity": 86, "channel": 0}, {"type": "note_off", "time": 156, "note": 62, "velocity": 86, "channel": 0}, {"type": "note_on", "time": 67, "note": 61, "velocity": 113, "channel": 0}, {"type": "note_off", "time": 296, "note": 61, "velocity": 113, "channel": 0}, {"type": "note_on", "time": 31, "note": 60, "velocity": 104, "channel": 0}, {"type": "note_off", "time": 93, "note": 60, "velocity": 104, "channel": 0}, {"type": "note_on", "time": 83, "note": 58, "velocity": 93, "channel": 0}, {"type": "note_off", "time": 98, "note": 58, "velocity": 93, "channel": 0}, {"type": "note_on", "time": 20, "note": 59, "velocity": 109, "channel": 0}, {"type": "note_off", "time": 213, "note": 59, "velocity": 109, "channel": 0}, {"type": "note_on", "time": 46, "note": 56, "velocity": 109, "channel": 0}, {"type": "note_off", "time": 150, "note": 56, "velocity": 109, "channel": 0}, {"type": "note_on", "time": 226, "note": 55, "velocity": 109, "channel": 0}, {"type": "note_off", "time": 299, "note": 55, "velocity": 109, "channel": 0}, {"type": "note_on", "time": 364, "note": 55, "velocity": 116, "channel": 0}, {"type": "note_off", "time": 187, "note": 55, "velocity": 116, "channel": 0}, {"type": "note_on", "time": 46, "note": 54, "velocity": 101, "channel": 0}, {"type": "note_off", "time": 161, "note": 54, "velocity": 101, "channel": 0}, {"type": "note_on", "time": 244, "note": 53, "velocity": 108, "channel": 0}, {"type": "note_off", "time": 213, "note": 53, "velocity": 108, "channel": 0}, {"type": "note_on", "time": 150, "note": 51, "velocity": 100, "channel": 0}, {"type": "note_off", "time": 161, "note": 51, "velocity": 100, "channel": 0}, {"type": "note_on", "time": 109, "note": 48, "velocity": 102, "channel": 0}, {"type": "note_off", "time": 119, "note": 48, "velocity": 102, "channel": 0}, {"type": "note_on", "time": 57, "note": 48, "velocity": 104, "channel": 0}, {"type": "note_off", "time": 270, "note": 48, "velocity": 104, "channel": 0}, {"type": "note_on", "time": 57, "note": 46, "velocity": 103, "channel": 0}, {"type": "note_off", "time": 182, "note": 46, "velocity": 103, "channel": 0}, {"type": "note_on", "time": 62, "note": 48, "velocity": 101, "channel": 0}, {"type": "note_off", "time": 369, "note": 48, "velocity": 101, "channel": 0}, {"type": "note_on", "time": 1175, "note": 48, "velocity": 101, "channel": 0}, {"type": "note_off", "time": 83, "note": 48, "velocity": 101, "channel": 0}, {"type": "note_on", "time": 52, "note": 49, "velocity": 96, "channel": 0}, {"type": "note_off", "time": 114, "note": 49, "velocity": 96, "channel": 0}, {"type": "note_on", "time": 31, "note": 53, "velocity": 105, "channel": 0}, {"type": "note_off", "time": 114, "note": 53, "velocity": 105, "channel": 0}, {"type": "note_on", "time": 62, "note": 56, "velocity": 111, "channel": 0}, {"type": "note_off", "time": 130, "note": 56, "velocity": 111, "channel": 0}, {"type": "note_on", "time": 83, "note": 58, "velocity": 115, "channel": 0}, {"type": "note_off", "time": 140, "note": 58, "velocity": 115, "channel": 0}, {"type": "note_on", "time": 57, "note": 60, "velocity": 115, "channel": 0}, {"type": "note_off", "time": 130, "note": 60, "velocity": 115, "channel": 0}, {"type": "note_on", "time": 57, "note": 61, "velocity": 112, "channel": 0}, {"type": "note_off", "time": 124, "note": 61, "velocity": 112, "channel": 0}, {"type": "note_on", "time": 67, "note": 63, "velocity": 119, "channel": 0}, {"type": "note_off", "time": 156, "note": 63, "velocity": 119, "channel": 0}, {"type": "note_on", "time": 62, "note": 65, "velocity": 117, "channel": 0}, {"type": "note_off", "time": 192, "note": 65, "velocity": 117, "channel": 0}, {"type": "note_on", "time": 36, "note": 64, "velocity": 126, "channel": 0}, {"type": "note_off", "time": 182, "note": 64, "velocity": 126, "channel": 0}, {"type": "note_on", "time": 57, "note": 63, "velocity": 113, "channel": 0}, {"type": "note_off", "time": 156, "note": 63, "velocity": 113, "channel": 0}, {"type": "note_on", "time": 88, "note": 60, "velocity": 90, "channel": 0}, {"type": "note_off", "time": 150, "note": 60, "velocity": 90, "channel": 0}, {"type": "note_on", "time": 15, "note": 62, "velocity": 116, "channel": 0}, {"type": "note_off", "time": 150, "note": 62, "velocity": 116, "channel": 0}, {"type": "note_on", "time": 109, "note": 59, "velocity": 113, "channel": 0}, {"type": "note_off", "time": 145, "note": 59, "velocity": 113, "channel": 0}, {"type": "note_on", "time": 52, "note": 58, "velocity": 104, "channel": 0}, {"type": "note_off", "time": 132, "note": 58, "velocity": 104, "channel": 0}, {"type": "note_on", "time": 78, "note": 56, "velocity": 107, "channel": 0}, {"type": "note_off", "time": 135, "note": 56, "velocity": 107, "channel": 0}, {"type": "note_on", "time": 39, "note": 55, "velocity": 99, "channel": 0}, {"type": "note_off", "time": 176, "note": 55, "velocity": 99, "channel": 0}, {"type": "note_on", "time": 62, "note": 54, "velocity": 105, "channel": 0}, {"type": "note_off", "time": 202, "note": 54, "velocity": 105, "channel": 0}, {"type": "note_on", "time": 31, "note": 53, "velocity": 102, "channel": 0}, {"type": "note_off", "time": 223, "note": 53, "velocity": 102, "channel": 0}, {"type": "note_on", "time": 28, "note": 50, "velocity": 97, "channel": 0}, {"type": "note_off", "time": 80, "note": 50, "velocity": 97, "channel": 0}, {"type": "note_on", "time": 31, "note": 51, "velocity": 103, "channel": 0}, {"type": "note_off", "time": 213, "note": 51, "velocity": 103, "channel": 0}, {"type": "note_on", "time": 257, "note": 53, "velocity": 108, "channel": 0}, {"type": "note_off", "time": 317, "note": 53, "velocity": 108, "channel": 0}, {"type": "note_on", "time": 57, "note": 55, "velocity": 111, "channel": 0}, {"type": "note_off", "time": 286, "note": 55, "velocity": 111, "channel": 0}, {"type": "note_on", "time": 46, "note": 58, "velocity": 114, "channel": 0}, {"type": "note_off", "time": 335, "note": 58, "velocity": 114, "channel": 0}, {"type": "note_on", "time": 270, "note": 60, "velocity": 105, "channel": 0}, {"type": "note_off", "time": 135, "note": 60, "velocity": 105, "channel": 0}, {"type": "note_on", "time": 93, "note": 63, "velocity": 119, "channel": 0}, {"type": "note_off", "time": 358, "note": 63, "velocity": 119, "channel": 0}, {"type": "note_on", "time": 150, "note": 65, "velocity": 114, "channel": 0}, {"type": "note_off", "time": 176, "note": 65, "velocity": 114, "channel": 0}, {"type": "note_on", "time": 88, "note": 67, "velocity": 116, "channel": 0}, {"type": "note_off", "time": 218, "note": 67, "velocity": 116, "channel": 0}, {"type": "note_on", "time": 208, "note": 70, "velocity": 117, "channel": 0}, {"type": "note_off", "time": 187, "note": 70, "velocity": 117, "channel": 0}, {"type": "note_on", "time": 78, "note": 70, "velocity": 102, "channel": 0}, {"type": "note_off", "time": 301, "note": 70, "velocity": 102, "channel": 0}, {"type": "note_on", "time": 171, "note": 68, "velocity": 119, "channel": 0}, {"type": "note_off", "time": 244, "note": 68, "velocity": 119, "channel": 0}, {"type": "note_on", "time": 49, "note": 67, "velocity": 112, "channel": 0}, {"type": "note_off", "time": 205, "note": 67, "velocity": 112, "channel": 0}, {"type": "note_on", "time": 33, "note": 64, "velocity": 113, "channel": 0}, {"type": "note_off", "time": 182, "note": 64, "velocity": 113, "channel": 0}, {"type": "note_on", "time": 26, "note": 63, "velocity": 102, "channel": 0}, {"type": "note_off", "time": 174, "note": 63, "velocity": 102, "channel": 0}, {"type": "note_on", "time": 52, "note": 59, "velocity": 107, "channel": 0}, {"type": "note_off", "time": 249, "note": 59, "velocity": 107, "channel": 0}, {"type": "note_on", "time": 26, "note": 58, "velocity": 96, "channel": 0}, {"type": "note_off", "time": 117, "note": 58, "velocity": 96, "channel": 0}, {"type": "note_on", "time": 101, "note": 57, "velocity": 102, "channel": 0}, {"type": "note_off", "time": 218, "note": 57, "velocity": 102, "channel": 0}, {"type": "note_on", "time": 33, "note": 56, "velocity": 100, "channel": 0}, {"type": "note_off", "time": 143, "note": 56, "velocity": 100, "channel": 0}, {"type": "note_on", "time": 36, "note": 55, "velocity": 112, "channel": 0}, {"type": "note_off", "time": 145, "note": 55, "velocity": 112, "channel": 0}, {"type": "note_on", "time": 26, "note": 54, "velocity": 106, "channel": 0}, {"type": "note_off", "time": 109, "note": 54, "velocity": 106, "channel": 0}, {"type": "note_on", "time": 78, "note": 50, "velocity": 103, "channel": 0}, {"type": "note_off", "time": 161, "note": 50, "velocity": 103, "channel": 0}, {"type": "note_on", "time": 65, "note": 53, "velocity": 109, "channel": 0}, {"type": "note_off", "time": 119, "note": 53, "velocity": 109, "channel": 0}, {"type": "note_on", "time": 57, "note": 55, "velocity": 109, "channel": 0}, {"type": "note_off", "time": 128, "note": 55, "velocity": 109, "channel": 0}, {"type": "note_on", "time": 146, "note": 51, "velocity": 102, "channel": 0}, {"type": "note_off", "time": 146, "note": 51, "velocity": 102, "channel": 0}, {"type": "note_on", "time": 47, "note": 53, "velocity": 100, "channel": 0}, {"type": "note_off", "time": 208, "note": 53, "velocity": 100, "channel": 0}, {"type": "note_on", "time": 182, "note": 55, "velocity": 111, "channel": 0}, {"type": "note_off", "time": 168, "note": 55, "velocity": 111, "channel": 0}, {"type": "note_on", "time": 113, "note": 57, "velocity": 112, "channel": 0}, {"type": "note_off", "time": 186, "note": 57, "velocity": 112, "channel": 0}, {"type": "note_on", "time": 40, "note": 58, "velocity": 90, "channel": 0}, {"type": "note_off", "time": 281, "note": 58, "velocity": 90, "channel": 0}, {"type": "note_on", "time": 40, "note": 60, "velocity": 109, "channel": 0}, {"type": "note_off", "time": 248, "note": 60, "velocity": 109, "channel": 0}, {"type": "note_on", "time": 47, "note": 58, "velocity": 104, "channel": 0}, {"type": "note_off", "time": 245, "note": 58, "velocity": 104, "channel": 0}, {"type": "note_on", "time": 47, "note": 63, "velocity": 109, "channel": 0}, {"type": "note_off", "time": 146, "note": 63, "velocity": 109, "channel": 0}, {"type": "note_on", "time": 193, "note": 67, "velocity": 121, "channel": 0}, {"type": "note_off", "time": 226, "note": 67, "velocity": 121, "channel": 0}, {"type": "note_on", "time": 117, "note": 70, "velocity": 121, "channel": 0}, {"type": "note_off", "time": 219, "note": 70, "velocity": 121, "channel": 0}, {"type": "note_on", "time": 135, "note": 67, "velocity": 94, "channel": 0}, {"type": "note_off", "time": 168, "note": 67, "velocity": 94, "channel": 0}, {"type": "note_on", "time": 109, "note": 72, "velocity": 119, "channel": 0}, {"type": "note_off", "time": 146, "note": 72, "velocity": 119, "channel": 0}, {"type": "note_on", "time": 36, "note": 74, "velocity": 112, "channel": 0}, {"type": "note_off", "time": 402, "note": 74, "velocity": 112, "channel": 0}, {"type": "note_on", "time": 1356, "note": 72, "velocity": 118, "channel": 0}, {"type": "note_off", "time": 208, "note": 72, "velocity": 118, "channel": 0}, {"type": "note_on", "time": 70, "note": 71, "velocity": 118, "channel": 0}, {"type": "note_off", "time": 157, "note": 71, "velocity": 118, "channel": 0}, {"type": "note_on", "time": 54, "note": 67, "velocity": 124, "channel": 0}, {"type": "note_off", "time": 193, "note": 67, "velocity": 124, "channel": 0}, {"type": "note_on", "time": 21, "note": 66, "velocity": 111, "channel": 0}, {"type": "note_off", "time": 102, "note": 66, "velocity": 111, "channel": 0}, {"type": "note_on", "time": 51, "note": 64, "velocity": 110, "channel": 0}, {"type": "note_off", "time": 219, "note": 64, "velocity": 110, "channel": 0}, {"type": "note_on", "time": 32, "note": 62, "velocity": 105, "channel": 0}, {"type": "note_off", "time": 168, "note": 62, "velocity": 105, "channel": 0}, {"type": "note_on", "time": 32, "note": 58, "velocity": 98, "channel": 0}, {"type": "note_off", "time": 131, "note": 58, "velocity": 98, "channel": 0}, {"type": "note_on", "time": 18, "note": 61, "velocity": 101, "channel": 0}, {"type": "note_off", "time": 113, "note": 61, "velocity": 101, "channel": 0}, {"type": "note_on", "time": 91, "note": 66, "velocity": 118, "channel": 0}, {"type": "note_off", "time": 212, "note": 66, "velocity": 118, "channel": 0}, {"type": "note_on", "time": 47, "note": 65, "velocity": 112, "channel": 0}, {"type": "note_off", "time": 204, "note": 65, "velocity": 112, "channel": 0}, {"type": "note_on", "time": 138, "note": 64, "velocity": 117, "channel": 0}, {"type": "note_off", "time": 369, "note": 64, "velocity": 117, "channel": 0}, {"type": "note_on", "time": 43, "note": 63, "velocity": 117, "channel": 0}, {"type": "note_off", "time": 157, "note": 63, "velocity": 117, "channel": 0}, {"type": "note_on", "time": 69, "note": 65, "velocity": 120, "channel": 0}, {"type": "note_off", "time": 171, "note": 65, "velocity": 120, "channel": 0}, {"type": "note_on", "time": 58, "note": 66, "velocity": 115, "channel": 0}, {"type": "note_off", "time": 149, "note": 66, "velocity": 115, "channel": 0}, {"type": "note_on", "time": 36, "note": 68, "velocity": 116, "channel": 0}, {"type": "note_off", "time": 175, "note": 68, "velocity": 116, "channel": 0}, {"type": "note_on", "time": 43, "note": 65, "velocity": 119, "channel": 0}, {"type": "note_off", "time": 171, "note": 65, "velocity": 119, "channel": 0}, {"type": "note_on", "time": 32, "note": 64, "velocity": 122, "channel": 0}, {"type": "note_off", "time": 215, "note": 64, "velocity": 122, "channel": 0}, {"type": "note_on", "time": 40, "note": 63, "velocity": 115, "channel": 0}, {"type": "note_off", "time": 124, "note": 63, "velocity": 115, "channel": 0}, {"type": "note_on", "time": 17, "note": 61, "velocity": 92, "channel": 0}, {"type": "note_off", "time": 153, "note": 61, "velocity": 92, "channel": 0}, {"type": "note_on", "time": 48, "note": 62, "velocity": 116, "channel": 0}, {"type": "note_off", "time": 179, "note": 62, "velocity": 116, "channel": 0}, {"type": "note_on", "time": 32, "note": 60, "velocity": 106, "channel": 0}, {"type": "note_off", "time": 168, "note": 60, "velocity": 106, "channel": 0}, {"type": "note_on", "time": 87, "note": 59, "velocity": 99, "channel": 0}, {"type": "note_off", "time": 157, "note": 59, "velocity": 99, "channel": 0}, {"type": "note_on", "time": 29, "note": 62, "velocity": 119, "channel": 0}, {"type": "note_off", "time": 179, "note": 62, "velocity": 119, "channel": 0}, {"type": "note_on", "time": 58, "note": 56, "velocity": 105, "channel": 0}, {"type": "note_off", "time": 131, "note": 56, "velocity": 105, "channel": 0}, {"type": "note_on", "time": 62, "note": 59, "velocity": 105, "channel": 0}, {"type": "note_off", "time": 160, "note": 59, "velocity": 105, "channel": 0}, {"type": "note_on", "time": 76, "note": 53, "velocity": 100, "channel": 0}, {"type": "note_off", "time": 128, "note": 53, "velocity": 100, "channel": 0}, {"type": "note_on", "time": 43, "note": 56, "velocity": 108, "channel": 0}, {"type": "note_off", "time": 201, "note": 56, "velocity": 108, "channel": 0}, {"type": "note_on", "time": 36, "note": 50, "velocity": 98, "channel": 0}, {"type": "note_off", "time": 109, "note": 50, "velocity": 98, "channel": 0}, {"type": "note_on", "time": 43, "note": 53, "velocity": 111, "channel": 0}, {"type": "note_off", "time": 226, "note": 53, "velocity": 111, "channel": 0}, {"type": "note_on", "time": 37, "note": 47, "velocity": 101, "channel": 0}, {"type": "note_off", "time": 208, "note": 47, "velocity": 101, "channel": 0}, {"type": "note_on", "time": 62, "note": 50, "velocity": 112, "channel": 0}, {"type": "note_off", "time": 168, "note": 50, "velocity": 112, "channel": 0}, {"type": "note_on", "time": 68, "note": 44, "velocity": 99, "channel": 0}, {"type": "note_off", "time": 263, "note": 44, "velocity": 99, "channel": 0}, {"type": "note_on", "time": 80, "note": 43, "velocity": 111, "channel": 0}, {"type": "note_off", "time": 431, "note": 43, "velocity": 111, "channel": 0}, {"type": "note_on", "time": 124, "note": 44, "velocity": 105, "channel": 0}, {"type": "note_off", "time": 395, "note": 44, "velocity": 105, "channel": 0}, {"type": "note_on", "time": 24, "note": 43, "velocity": 101, "channel": 0}, {"type": "note_off", "time": 394, "note": 43, "velocity": 101, "channel": 0}, {"type": "note_on", "time": 98, "note": 43, "velocity": 105, "channel": 0}, {"type": "note_off", "time": 310, "note": 43, "velocity": 105, "channel": 0}, {"type": "note_on", "time": 80, "note": 48, "velocity": 107, "channel": 0}, {"type": "note_off", "time": 296, "note": 48, "velocity": 107, "channel": 0}, {"type": "note_on", "time": 113, "note": 48, "velocity": 108, "channel": 0}, {"type": "note_off", "time": 201, "note": 48, "velocity": 108, "channel": 0}, {"type": "note_on", "time": 120, "note": 51, "velocity": 108, "channel": 0}, {"type": "note_off", "time": 380, "note": 51, "velocity": 108, "channel": 0}, {"type": "note_on", "time": 87, "note": 51, "velocity": 111, "channel": 0}, {"type": "note_off", "time": 252, "note": 51, "velocity": 111, "channel": 0}, {"type": "note_on", "time": 223, "note": 54, "velocity": 103, "channel": 0}, {"type": "note_off", "time": 84, "note": 54, "velocity": 103, "channel": 0}, {"type": "note_on", "time": 36, "note": 55, "velocity": 103, "channel": 0}, {"type": "note_off", "time": 241, "note": 55, "velocity": 103, "channel": 0}, {"type": "note_on", "time": 91, "note": 60, "velocity": 108, "channel": 0}, {"type": "note_off", "time": 281, "note": 60, "velocity": 108, "channel": 0}, {"type": "note_on", "time": 182, "note": 63, "velocity": 115, "channel": 0}, {"type": "note_off", "time": 318, "note": 63, "velocity": 115, "channel": 0}, {"type": "note_on", "time": 73, "note": 63, "velocity": 120, "channel": 0}, {"type": "note_off", "time": 245, "note": 63, "velocity": 120, "channel": 0}, {"type": "note_on", "time": 80, "note": 65, "velocity": 110, "channel": 0}, {"type": "note_off", "time": 160, "note": 65, "velocity": 110, "channel": 0}, {"type": "note_on", "time": 36, "note": 67, "velocity": 112, "channel": 0}, {"type": "note_off", "time": 164, "note": 67, "velocity": 112, "channel": 0}, {"type": "note_on", "time": 62, "note": 67, "velocity": 123, "channel": 0}, {"type": "note_off", "time": 285, "note": 67, "velocity": 123, "channel": 0}, {"type": "note_on", "time": 29, "note": 68, "velocity": 93, "channel": 0}, {"type": "note_off", "time": 87, "note": 68, "velocity": 93, "channel": 0}, {"type": "note_on", "time": 17, "note": 70, "velocity": 91, "channel": 0}, {"type": "note_off", "time": 377, "note": 70, "velocity": 91, "channel": 0}, {"type": "note_on", "time": 37, "note": 72, "velocity": 116, "channel": 0}, {"type": "note_off", "time": 288, "note": 72, "velocity": 116, "channel": 0}, {"type": "note_on", "time": 149, "note": 75, "velocity": 113, "channel": 0}, {"type": "note_off", "time": 446, "note": 75, "velocity": 113, "channel": 0}, {"type": "note_on", "time": 0, "note": 77, "velocity": 112, "channel": 0}, {"type": "note_off", "time": 259, "note": 77, "velocity": 112, "channel": 0}, {"type": "note_on", "time": 138, "note": 78, "velocity": 118, "channel": 0}, {"type": "note_off", "time": 80, "note": 78, "velocity": 118, "channel": 0}, {"type": "note_on", "time": 18, "note": 79, "velocity": 109, "channel": 0}, {"type": "note_off", "time": 285, "note": 79, "velocity": 109, "channel": 0}, {"type": "note_on", "time": 106, "note": 80, "velocity": 109, "channel": 0}, {"type": "note_off", "time": 299, "note": 80, "velocity": 109, "channel": 0}, {"type": "note_on", "time": 51, "note": 79, "velocity": 109, "channel": 0}, {"type": "note_off", "time": 288, "note": 79, "velocity": 109, "channel": 0}, {"type": "note_on", "time": 58, "note": 77, "velocity": 119, "channel": 0}, {"type": "note_off", "time": 321, "note": 77, "velocity": 119, "channel": 0}, {"type": "note_on", "time": 168, "note": 75, "velocity": 113, "channel": 0}, {"type": "note_off", "time": 409, "note": 75, "velocity": 113, "channel": 0}, {"type": "note_on", "time": 131, "note": 72, "velocity": 89, "channel": 0}, {"type": "note_off", "time": 153, "note": 72, "velocity": 89, "channel": 0}, {"type": "note_on", "time": 80, "note": 75, "velocity": 116, "channel": 0}, {"type": "note_off", "time": 376, "note": 75, "velocity": 116, "channel": 0}, {"type": "note_on", "time": 117, "note": 77, "velocity": 121, "channel": 0}, {"type": "note_off", "time": 128, "note": 77, "velocity": 121, "channel": 0}, {"type": "note_on", "time": 37, "note": 79, "velocity": 105, "channel": 0}, {"type": "note_off", "time": 304, "note": 79, "velocity": 105, "channel": 0}, {"type": "note_on", "time": 12, "note": 77, "velocity": 113, "channel": 0}, {"type": "note_off", "time": 438, "note": 77, "velocity": 113, "channel": 0}, {"type": "note_on", "time": 153, "note": 72, "velocity": 117, "channel": 0}, {"type": "note_off", "time": 149, "note": 72, "velocity": 117, "channel": 0}, {"type": "note_on", "time": 51, "note": 74, "velocity": 113, "channel": 0}, {"type": "note_off", "time": 230, "note": 74, "velocity": 113, "channel": 0}, {"type": "note_on", "time": 186, "note": 70, "velocity": 112, "channel": 0}, {"type": "note_off", "time": 215, "note": 70, "velocity": 112, "channel": 0}, {"type": "note_on", "time": 53, "note": 69, "velocity": 104, "channel": 0}, {"type": "note_off", "time": 309, "note": 69, "velocity": 104, "channel": 0}, {"type": "note_on", "time": 42, "note": 67, "velocity": 107, "channel": 0}, {"type": "note_off", "time": 175, "note": 67, "velocity": 107, "channel": 0}, {"type": "note_on", "time": 47, "note": 70, "velocity": 117, "channel": 0}, {"type": "note_off", "time": 193, "note": 70, "velocity": 117, "channel": 0}, {"type": "note_on", "time": 98, "note": 75, "velocity": 119, "channel": 0}, {"type": "note_off", "time": 329, "note": 75, "velocity": 119, "channel": 0}, {"type": "note_on", "time": 43, "note": 74, "velocity": 114, "channel": 0}, {"type": "note_off", "time": 171, "note": 74, "velocity": 114, "channel": 0}, {"type": "note_on", "time": 54, "note": 75, "velocity": 117, "channel": 0}, {"type": "note_off", "time": 226, "note": 75, "velocity": 117, "channel": 0}, {"type": "note_on", "time": 25, "note": 74, "velocity": 115, "channel": 0}, {"type": "note_off", "time": 223, "note": 74, "velocity": 115, "channel": 0}, {"type": "note_on", "time": 65, "note": 72, "velocity": 100, "channel": 0}, {"type": "note_off", "time": 618, "note": 72, "velocity": 100, "channel": 0}, {"type": "note_on", "time": 1162, "note": 70, "velocity": 122, "channel": 0}, {"type": "note_off", "time": 182, "note": 70, "velocity": 122, "channel": 0}, {"type": "note_on", "time": 36, "note": 67, "velocity": 111, "channel": 0}, {"type": "note_off", "time": 120, "note": 67, "velocity": 111, "channel": 0}, {"type": "note_on", "time": 54, "note": 68, "velocity": 110, "channel": 0}, {"type": "note_off", "time": 176, "note": 68, "velocity": 110, "channel": 0}, {"type": "note_on", "time": 39, "note": 72, "velocity": 121, "channel": 0}, {"type": "note_off", "time": 208, "note": 72, "velocity": 121, "channel": 0}, {"type": "note_on", "time": 21, "note": 70, "velocity": 122, "channel": 0}, {"type": "note_off", "time": 190, "note": 70, "velocity": 122, "channel": 0}, {"type": "note_on", "time": 36, "note": 69, "velocity": 122, "channel": 0}, {"type": "note_off", "time": 292, "note": 69, "velocity": 122, "channel": 0}, {"type": "note_on", "time": 36, "note": 68, "velocity": 100, "channel": 0}, {"type": "note_off", "time": 164, "note": 68, "velocity": 100, "channel": 0}, {"type": "note_on", "time": 91, "note": 67, "velocity": 122, "channel": 0}, {"type": "note_off", "time": 234, "note": 67, "velocity": 122, "channel": 0}, {"type": "note_on", "time": 18, "note": 64, "velocity": 103, "channel": 0}, {"type": "note_off", "time": 128, "note": 64, "velocity": 103, "channel": 0}, {"type": "note_on", "time": 18, "note": 65, "velocity": 112, "channel": 0}, {"type": "note_off", "time": 171, "note": 65, "velocity": 112, "channel": 0}, {"type": "note_on", "time": 40, "note": 67, "velocity": 120, "channel": 0}, {"type": "note_off", "time": 164, "note": 67, "velocity": 120, "channel": 0}, {"type": "note_on", "time": 32, "note": 68, "velocity": 108, "channel": 0}, {"type": "note_off", "time": 171, "note": 68, "velocity": 108, "channel": 0}, {"type": "note_on", "time": 25, "note": 70, "velocity": 118, "channel": 0}, {"type": "note_off", "time": 160, "note": 70, "velocity": 118, "channel": 0}, {"type": "note_on", "time": 47, "note": 67, "velocity": 114, "channel": 0}, {"type": "note_off", "time": 190, "note": 67, "velocity": 114, "channel": 0}, {"type": "note_on", "time": 47, "note": 66, "velocity": 112, "channel": 0}, {"type": "note_off", "time": 193, "note": 66, "velocity": 112, "channel": 0}, {"type": "note_on", "time": 65, "note": 65, "velocity": 115, "channel": 0}, {"type": "note_off", "time": 179, "note": 65, "velocity": 115, "channel": 0}, {"type": "note_on", "time": 40, "note": 62, "velocity": 86, "channel": 0}, {"type": "note_off", "time": 117, "note": 62, "velocity": 86, "channel": 0}, {"type": "note_on", "time": 32, "note": 64, "velocity": 121, "channel": 0}, {"type": "note_off", "time": 179, "note": 64, "velocity": 121, "channel": 0}, {"type": "note_on", "time": 47, "note": 61, "velocity": 107, "channel": 0}, {"type": "note_off", "time": 201, "note": 61, "velocity": 107, "channel": 0}, {"type": "note_on", "time": 43, "note": 60, "velocity": 106, "channel": 0}, {"type": "note_off", "time": 98, "note": 60, "velocity": 106, "channel": 0}, {"type": "note_on", "time": 80, "note": 58, "velocity": 110, "channel": 0}, {"type": "note_off", "time": 157, "note": 58, "velocity": 110, "channel": 0}, {"type": "note_on", "time": 54, "note": 57, "velocity": 86, "channel": 0}, {"type": "note_off", "time": 164, "note": 57, "velocity": 86, "channel": 0}, {"type": "note_on", "time": 51, "note": 56, "velocity": 106, "channel": 0}, {"type": "note_off", "time": 186, "note": 56, "velocity": 106, "channel": 0}, {"type": "note_on", "time": 40, "note": 55, "velocity": 104, "channel": 0}, {"type": "note_off", "time": 270, "note": 55, "velocity": 104, "channel": 0}, {"type": "note_on", "time": 36, "note": 54, "velocity": 107, "channel": 0}, {"type": "note_off", "time": 157, "note": 54, "velocity": 107, "channel": 0}, {"type": "note_on", "time": 81, "note": 66, "velocity": 120, "channel": 0}, {"type": "note_off", "time": 270, "note": 66, "velocity": 120, "channel": 0}, {"type": "note_on", "time": 14, "note": 63, "velocity": 101, "channel": 0}, {"type": "note_off", "time": 142, "note": 63, "velocity": 101, "channel": 0}, {"type": "note_on", "time": 223, "note": 63, "velocity": 108, "channel": 0}, {"type": "note_off", "time": 471, "note": 63, "velocity": 108, "channel": 0}, {"type": "note_on", "time": 182, "note": 60, "velocity": 111, "channel": 0}, {"type": "note_off", "time": 164, "note": 60, "velocity": 111, "channel": 0}, {"type": "note_on", "time": 58, "note": 59, "velocity": 107, "channel": 0}, {"type": "note_off", "time": 164, "note": 59, "velocity": 107, "channel": 0}, {"type": "note_on", "time": 51, "note": 57, "velocity": 104, "channel": 0}, {"type": "note_off", "time": 175, "note": 57, "velocity": 104, "channel": 0}, {"type": "note_on", "time": 29, "note": 56, "velocity": 101, "channel": 0}, {"type": "note_off", "time": 193, "note": 56, "velocity": 101, "channel": 0}, {"type": "note_on", "time": 29, "note": 54, "velocity": 105, "channel": 0}, {"type": "note_off", "time": 135, "note": 54, "velocity": 105, "channel": 0}, {"type": "note_on", "time": 54, "note": 53, "velocity": 98, "channel": 0}, {"type": "note_off", "time": 493, "note": 53, "velocity": 98, "channel": 0}, {"type": "note_on", "time": 120, "note": 55, "velocity": 106, "channel": 0}, {"type": "note_off", "time": 164, "note": 55, "velocity": 106, "channel": 0}, {"type": "note_on", "time": 58, "note": 56, "velocity": 107, "channel": 0}, {"type": "note_off", "time": 138, "note": 56, "velocity": 107, "channel": 0}, {"type": "note_on", "time": 51, "note": 58, "velocity": 104, "channel": 0}, {"type": "note_off", "time": 168, "note": 58, "velocity": 104, "channel": 0}, {"type": "note_on", "time": 40, "note": 59, "velocity": 103, "channel": 0}, {"type": "note_off", "time": 135, "note": 59, "velocity": 103, "channel": 0}, {"type": "note_on", "time": 54, "note": 63, "velocity": 110, "channel": 0}, {"type": "note_off", "time": 124, "note": 63, "velocity": 110, "channel": 0}, {"type": "note_on", "time": 84, "note": 67, "velocity": 114, "channel": 0}, {"type": "note_off", "time": 149, "note": 67, "velocity": 114, "channel": 0}, {"type": "note_on", "time": 29, "note": 69, "velocity": 123, "channel": 0}, {"type": "note_off", "time": 168, "note": 69, "velocity": 123, "channel": 0}, {"type": "note_on", "time": 62, "note": 70, "velocity": 110, "channel": 0}, {"type": "note_off", "time": 175, "note": 70, "velocity": 110, "channel": 0}, {"type": "note_on", "time": 52, "note": 69, "velocity": 122, "channel": 0}, {"type": "note_off", "time": 247, "note": 69, "velocity": 122, "channel": 0}, {"type": "note_on", "time": 14, "note": 68, "velocity": 111, "channel": 0}, {"type": "note_off", "time": 131, "note": 68, "velocity": 111, "channel": 0}, {"type": "note_on", "time": 62, "note": 64, "velocity": 100, "channel": 0}, {"type": "note_off", "time": 109, "note": 64, "velocity": 100, "channel": 0}, {"type": "note_on", "time": 76, "note": 67, "velocity": 119, "channel": 0}, {"type": "note_off", "time": 153, "note": 67, "velocity": 119, "channel": 0}, {"type": "note_on", "time": 87, "note": 63, "velocity": 116, "channel": 0}, {"type": "note_off", "time": 208, "note": 63, "velocity": 116, "channel": 0}, {"type": "note_on", "time": 36, "note": 62, "velocity": 110, "channel": 0}, {"type": "note_off", "time": 109, "note": 62, "velocity": 110, "channel": 0}, {"type": "note_on", "time": 58, "note": 59, "velocity": 108, "channel": 0}, {"type": "note_off", "time": 212, "note": 59, "velocity": 108, "channel": 0}, {"type": "note_on", "time": 18, "note": 58, "velocity": 107, "channel": 0}, {"type": "note_off", "time": 109, "note": 58, "velocity": 107, "channel": 0}, {"type": "note_on", "time": 47, "note": 56, "velocity": 107, "channel": 0}, {"type": "note_off", "time": 175, "note": 56, "velocity": 107, "channel": 0}, {"type": "note_on", "time": 40, "note": 55, "velocity": 91, "channel": 0}, {"type": "note_off", "time": 179, "note": 55, "velocity": 91, "channel": 0}, {"type": "note_on", "time": 55, "note": 54, "velocity": 106, "channel": 0}, {"type": "note_off", "time": 254, "note": 54, "velocity": 106, "channel": 0}, {"type": "note_on", "time": 40, "note": 53, "velocity": 101, "channel": 0}, {"type": "note_off", "time": 131, "note": 53, "velocity": 101, "channel": 0}, {"type": "note_on", "time": 54, "note": 49, "velocity": 98, "channel": 0}, {"type": "note_off", "time": 161, "note": 49, "velocity": 98, "channel": 0}, {"type": "note_on", "time": 44, "note": 51, "velocity": 103, "channel": 0}, {"type": "note_off", "time": 446, "note": 51, "velocity": 103, "channel": 0}, {"type": "note_on", "time": 91, "note": 51, "velocity": 107, "channel": 0}, {"type": "note_off", "time": 275, "note": 51, "velocity": 107, "channel": 0}, {"type": "note_on", "time": 2, "note": 53, "velocity": 104, "channel": 0}, {"type": "note_off", "time": 231, "note": 53, "velocity": 104, "channel": 0}, {"type": "note_on", "time": 23, "note": 55, "velocity": 104, "channel": 0}, {"type": "note_off", "time": 257, "note": 55, "velocity": 104, "channel": 0}, {"type": "note_on", "time": 9, "note": 55, "velocity": 113, "channel": 0}, {"type": "note_off", "time": 204, "note": 55, "velocity": 113, "channel": 0}, {"type": "note_on", "time": 87, "note": 58, "velocity": 107, "channel": 0}, {"type": "note_off", "time": 273, "note": 58, "velocity": 107, "channel": 0}, {"type": "note_on", "time": 26, "note": 60, "velocity": 95, "channel": 0}, {"type": "note_off", "time": 306, "note": 60, "velocity": 95, "channel": 0}, {"type": "note_on", "time": 20, "note": 60, "velocity": 106, "channel": 0}, {"type": "note_off", "time": 223, "note": 60, "velocity": 106, "channel": 0}, {"type": "note_on", "time": 18, "note": 62, "velocity": 112, "channel": 0}, {"type": "note_off", "time": 228, "note": 62, "velocity": 112, "channel": 0}, {"type": "note_on", "time": 31, "note": 64, "velocity": 118, "channel": 0}, {"type": "note_off", "time": 195, "note": 64, "velocity": 118, "channel": 0}, {"type": "note_on", "time": 15, "note": 64, "velocity": 117, "channel": 0}, {"type": "note_off", "time": 215, "note": 64, "velocity": 117, "channel": 0}, {"type": "note_on", "time": 26, "note": 64, "velocity": 104, "channel": 0}, {"type": "note_off", "time": 156, "note": 64, "velocity": 104, "channel": 0}, {"type": "note_on", "time": 13, "note": 65, "velocity": 117, "channel": 0}, {"type": "note_off", "time": 158, "note": 65, "velocity": 117, "channel": 0}, {"type": "note_on", "time": 22, "note": 67, "velocity": 122, "channel": 0}, {"type": "note_off", "time": 160, "note": 67, "velocity": 122, "channel": 0}, {"type": "note_on", "time": 54, "note": 67, "velocity": 120, "channel": 0}, {"type": "note_off", "time": 245, "note": 67, "velocity": 120, "channel": 0}, {"type": "note_on", "time": 95, "note": 70, "velocity": 120, "channel": 0}, {"type": "note_off", "time": 120, "note": 70, "velocity": 120, "channel": 0}, {"type": "note_on", "time": 69, "note": 71, "velocity": 120, "channel": 0}, {"type": "note_off", "time": 76, "note": 71, "velocity": 120, "channel": 0}, {"type": "note_on", "time": 29, "note": 72, "velocity": 117, "channel": 0}, {"type": "note_off", "time": 241, "note": 72, "velocity": 117, "channel": 0}, {"type": "note_on", "time": 43, "note": 73, "velocity": 114, "channel": 0}, {"type": "note_off", "time": 212, "note": 73, "velocity": 114, "channel": 0}, {"type": "note_on", "time": 115, "note": 70, "velocity": 110, "channel": 0}, {"type": "note_off", "time": 175, "note": 70, "velocity": 110, "channel": 0}, {"type": "note_on", "time": 11, "note": 72, "velocity": 117, "channel": 0}, {"type": "note_off", "time": 252, "note": 72, "velocity": 117, "channel": 0}, {"type": "note_on", "time": 15, "note": 72, "velocity": 113, "channel": 0}, {"type": "note_off", "time": 124, "note": 72, "velocity": 113, "channel": 0}, {"type": "note_on", "time": 10, "note": 71, "velocity": 113, "channel": 0}, {"type": "note_off", "time": 58, "note": 71, "velocity": 113, "channel": 0}, {"type": "note_on", "time": 37, "note": 70, "velocity": 107, "channel": 0}, {"type": "note_off", "time": 296, "note": 70, "velocity": 107, "channel": 0}, {"type": "note_on", "time": 35, "note": 68, "velocity": 109, "channel": 0}, {"type": "note_off", "time": 230, "note": 68, "velocity": 109, "channel": 0}, {"type": "note_on", "time": 197, "note": 65, "velocity": 96, "channel": 0}, {"type": "note_off", "time": 248, "note": 65, "velocity": 96, "channel": 0}, {"type": "note_on", "time": 69, "note": 68, "velocity": 119, "channel": 0}, {"type": "note_off", "time": 208, "note": 68, "velocity": 119, "channel": 0}, {"type": "note_on", "time": 29, "note": 69, "velocity": 107, "channel": 0}, {"type": "note_off", "time": 95, "note": 69, "velocity": 107, "channel": 0}, {"type": "note_on", "time": 153, "note": 77, "velocity": 124, "channel": 0}, {"type": "note_off", "time": 131, "note": 77, "velocity": 124, "channel": 0}, {"type": "note_on", "time": 51, "note": 79, "velocity": 97, "channel": 0}, {"type": "note_off", "time": 190, "note": 79, "velocity": 97, "channel": 0}, {"type": "note_on", "time": 31, "note": 77, "velocity": 94, "channel": 0}, {"type": "note_off", "time": 371, "note": 77, "velocity": 94, "channel": 0}, {"type": "note_on", "time": 44, "note": 75, "velocity": 113, "channel": 0}, {"type": "note_off", "time": 416, "note": 75, "velocity": 113, "channel": 0}, {"type": "note_on", "time": 39, "note": 74, "velocity": 116, "channel": 0}, {"type": "note_off", "time": 303, "note": 74, "velocity": 116, "channel": 0}, {"type": "note_on", "time": 245, "note": 74, "velocity": 112, "channel": 0}, {"type": "note_off", "time": 347, "note": 74, "velocity": 112, "channel": 0}, {"type": "note_on", "time": 25, "note": 76, "velocity": 113, "channel": 0}, {"type": "note_off", "time": 69, "note": 76, "velocity": 113, "channel": 0}, {"type": "note_on", "time": 21, "note": 77, "velocity": 107, "channel": 0}, {"type": "note_off", "time": 95, "note": 77, "velocity": 107, "channel": 0}, {"type": "note_on", "time": 25, "note": 79, "velocity": 92, "channel": 0}, {"type": "note_off", "time": 277, "note": 79, "velocity": 92, "channel": 0}, {"type": "note_on", "time": 310, "note": 70, "velocity": 108, "channel": 0}, {"type": "note_off", "time": 245, "note": 70, "velocity": 108, "channel": 0}, {"type": "note_on", "time": 621, "note": 70, "velocity": 100, "channel": 0}, {"type": "note_off", "time": 193, "note": 70, "velocity": 100, "channel": 0}, {"type": "note_on", "time": 91, "note": 74, "velocity": 112, "channel": 0}, {"type": "note_off", "time": 277, "note": 74, "velocity": 112, "channel": 0}, {"type": "note_on", "time": 32, "note": 75, "velocity": 121, "channel": 0}, {"type": "note_off", "time": 384, "note": 75, "velocity": 121, "channel": 0}, {"type": "note_on", "time": 10, "note": 74, "velocity": 106, "channel": 0}, {"type": "note_off", "time": 190, "note": 74, "velocity": 106, "channel": 0}, {"type": "note_on", "time": 18, "note": 75, "velocity": 119, "channel": 0}, {"type": "note_off", "time": 245, "note": 75, "velocity": 119, "channel": 0}, {"type": "note_on", "time": 65, "note": 74, "velocity": 108, "channel": 0}, {"type": "note_off", "time": 171, "note": 74, "velocity": 108, "channel": 0}, {"type": "note_on", "time": 36, "note": 75, "velocity": 120, "channel": 0}, {"type": "note_off", "time": 204, "note": 75, "velocity": 120, "channel": 0}, {"type": "note_on", "time": 54, "note": 74, "velocity": 104, "channel": 0}, {"type": "note_off", "time": 179, "note": 74, "velocity": 104, "channel": 0}, {"type": "note_on", "time": 69, "note": 75, "velocity": 118, "channel": 0}, {"type": "note_off", "time": 270, "note": 75, "velocity": 118, "channel": 0}, {"type": "note_on", "time": 102, "note": 80, "velocity": 92, "channel": 0}, {"type": "note_off", "time": 146, "note": 80, "velocity": 92, "channel": 0}, {"type": "note_on", "time": 46, "note": 83, "velocity": 96, "channel": 0}, {"type": "note_off", "time": 101, "note": 83, "velocity": 96, "channel": 0}, {"type": "note_on", "time": 18, "note": 82, "velocity": 90, "channel": 0}, {"type": "note_off", "time": 119, "note": 82, "velocity": 90, "channel": 0}, {"type": "note_on", "time": 214, "note": 77, "velocity": 121, "channel": 0}, {"type": "note_off", "time": 138, "note": 77, "velocity": 121, "channel": 0}, {"type": "note_on", "time": 36, "note": 79, "velocity": 114, "channel": 0}, {"type": "note_off", "time": 226, "note": 79, "velocity": 114, "channel": 0}, {"type": "note_on", "time": 227, "note": 75, "velocity": 115, "channel": 0}, {"type": "note_off", "time": 119, "note": 75, "velocity": 115, "channel": 0}, {"type": "note_on", "time": 36, "note": 77, "velocity": 105, "channel": 0}, {"type": "note_off", "time": 572, "note": 77, "velocity": 105, "channel": 0}, {"type": "note_on", "time": 28, "note": 81, "velocity": 76, "channel": 0}, {"type": "note_off", "time": 163, "note": 81, "velocity": 76, "channel": 0}, {"type": "note_on", "time": 914, "note": 77, "velocity": 122, "channel": 0}, {"type": "note_off", "time": 91, "note": 77, "velocity": 122, "channel": 0}, {"type": "note_on", "time": 32, "note": 75, "velocity": 113, "channel": 0}, {"type": "note_off", "time": 212, "note": 75, "velocity": 113, "channel": 0}, {"type": "note_on", "time": 31, "note": 74, "velocity": 102, "channel": 0}, {"type": "note_off", "time": 210, "note": 74, "velocity": 102, "channel": 0}, {"type": "note_on", "time": 20, "note": 73, "velocity": 115, "channel": 0}, {"type": "note_off", "time": 267, "note": 73, "velocity": 115, "channel": 0}, {"type": "note_on", "time": 13, "note": 75, "velocity": 118, "channel": 0}, {"type": "note_off", "time": 186, "note": 75, "velocity": 118, "channel": 0}, {"type": "note_on", "time": 29, "note": 76, "velocity": 119, "channel": 0}, {"type": "note_off", "time": 201, "note": 76, "velocity": 119, "channel": 0}, {"type": "note_on", "time": 230, "note": 75, "velocity": 118, "channel": 0}, {"type": "note_off", "time": 164, "note": 75, "velocity": 118, "channel": 0}, {"type": "note_on", "time": 106, "note": 74, "velocity": 123, "channel": 0}, {"type": "note_off", "time": 204, "note": 74, "velocity": 123, "channel": 0}, {"type": "note_on", "time": 30, "note": 73, "velocity": 100, "channel": 0}, {"type": "note_off", "time": 309, "note": 73, "velocity": 100, "channel": 0}, {"type": "note_on", "time": 36, "note": 72, "velocity": 118, "channel": 0}, {"type": "note_off", "time": 236, "note": 72, "velocity": 118, "channel": 0}, {"type": "note_on", "time": 44, "note": 68, "velocity": 118, "channel": 0}, {"type": "note_off", "time": 247, "note": 68, "velocity": 118, "channel": 0}, {"type": "note_on", "time": 18, "note": 67, "velocity": 95, "channel": 0}, {"type": "note_off", "time": 267, "note": 67, "velocity": 95, "channel": 0}, {"type": "note_on", "time": 16, "note": 66, "velocity": 115, "channel": 0}, {"type": "note_off", "time": 219, "note": 66, "velocity": 115, "channel": 0}, {"type": "note_on", "time": 25, "note": 63, "velocity": 104, "channel": 0}, {"type": "note_off", "time": 109, "note": 63, "velocity": 104, "channel": 0}, {"type": "note_on", "time": 256, "note": 58, "velocity": 105, "channel": 0}, {"type": "note_off", "time": 226, "note": 58, "velocity": 105, "channel": 0}, {"type": "note_on", "time": 18, "note": 57, "velocity": 102, "channel": 0}, {"type": "note_off", "time": 117, "note": 57, "velocity": 102, "channel": 0}, {"type": "note_on", "time": 106, "note": 69, "velocity": 9, "channel": 0}, {"type": "note_off", "time": 347, "note": 69, "velocity": 9, "channel": 0}, {"type": "note_on", "time": 102, "note": 67, "velocity": 117, "channel": 0}, {"type": "note_off", "time": 168, "note": 67, "velocity": 117, "channel": 0}, {"type": "note_on", "time": 32, "note": 68, "velocity": 116, "channel": 0}, {"type": "note_off", "time": 146, "note": 68, "velocity": 116, "channel": 0}, {"type": "note_on", "time": 29, "note": 67, "velocity": 124, "channel": 0}, {"type": "note_off", "time": 234, "note": 67, "velocity": 124, "channel": 0}, {"type": "note_on", "time": 51, "note": 66, "velocity": 109, "channel": 0}, {"type": "note_off", "time": 179, "note": 66, "velocity": 109, "channel": 0}, {"type": "note_on", "time": 58, "note": 64, "velocity": 96, "channel": 0}, {"type": "note_off", "time": 75, "note": 64, "velocity": 96, "channel": 0}, {"type": "note_on", "time": 12, "note": 65, "velocity": 119, "channel": 0}, {"type": "note_off", "time": 175, "note": 65, "velocity": 119, "channel": 0}, {"type": "note_on", "time": 36, "note": 65, "velocity": 122, "channel": 0}, {"type": "note_off", "time": 215, "note": 65, "velocity": 122, "channel": 0}, {"type": "note_on", "time": 62, "note": 65, "velocity": 111, "channel": 0}, {"type": "note_off", "time": 223, "note": 65, "velocity": 111, "channel": 0}, {"type": "note_on", "time": 109, "note": 65, "velocity": 116, "channel": 0}, {"type": "note_off", "time": 259, "note": 65, "velocity": 116, "channel": 0}, {"type": "note_on", "time": 14, "note": 65, "velocity": 127, "channel": 0}, {"type": "note_off", "time": 117, "note": 65, "velocity": 127, "channel": 0}, {"type": "note_on", "time": 87, "note": 65, "velocity": 118, "channel": 0}, {"type": "note_off", "time": 263, "note": 65, "velocity": 118, "channel": 0}, {"type": "note_on", "time": 102, "note": 65, "velocity": 116, "channel": 0}, {"type": "note_off", "time": 140, "note": 65, "velocity": 116, "channel": 0}, {"type": "note_on", "time": 23, "note": 67, "velocity": 110, "channel": 0}, {"type": "note_off", "time": 119, "note": 67, "velocity": 110, "channel": 0}, {"type": "note_on", "time": 27, "note": 70, "velocity": 115, "channel": 0}, {"type": "note_off", "time": 380, "note": 70, "velocity": 115, "channel": 0}, {"type": "note_on", "time": 175, "note": 65, "velocity": 98, "channel": 0}, {"type": "note_off", "time": 76, "note": 65, "velocity": 98, "channel": 0}, {"type": "note_on", "time": 36, "note": 66, "velocity": 101, "channel": 0}, {"type": "note_off", "time": 32, "note": 66, "velocity": 101, "channel": 0}, {"type": "note_on", "time": 40, "note": 67, "velocity": 105, "channel": 0}, {"type": "note_off", "time": 95, "note": 67, "velocity": 105, "channel": 0}, {"type": "note_on", "time": 76, "note": 70, "velocity": 110, "channel": 0}, {"type": "note_off", "time": 354, "note": 70, "velocity": 110, "channel": 0}, {"type": "note_on", "time": 127, "note": 65, "velocity": 109, "channel": 0}, {"type": "note_off", "time": 95, "note": 65, "velocity": 109, "channel": 0}, {"type": "note_on", "time": 40, "note": 67, "velocity": 111, "channel": 0}, {"type": "note_off", "time": 153, "note": 67, "velocity": 111, "channel": 0}, {"type": "note_on", "time": 87, "note": 70, "velocity": 119, "channel": 0}, {"type": "note_off", "time": 245, "note": 70, "velocity": 119, "channel": 0}, {"type": "note_on", "time": 107, "note": 67, "velocity": 107, "channel": 0}, {"type": "note_off", "time": 210, "note": 67, "velocity": 107, "channel": 0}, {"type": "note_on", "time": 14, "note": 65, "velocity": 110, "channel": 0}, {"type": "note_off", "time": 219, "note": 65, "velocity": 110, "channel": 0}, {"type": "note_on", "time": 73, "note": 63, "velocity": 105, "channel": 0}, {"type": "note_off", "time": 245, "note": 63, "velocity": 105, "channel": 0}, {"type": "note_on", "time": 80, "note": 60, "velocity": 102, "channel": 0}, {"type": "note_off", "time": 475, "note": 60, "velocity": 102, "channel": 0}, {"type": "note_on", "time": 91, "note": 63, "velocity": 115, "channel": 0}, {"type": "note_off", "time": 292, "note": 63, "velocity": 115, "channel": 0}, {"type": "note_on", "time": 273, "note": 63, "velocity": 119, "channel": 0}, {"type": "note_off", "time": 109, "note": 63, "velocity": 119, "channel": 0}, {"type": "note_on", "time": 37, "note": 65, "velocity": 115, "channel": 0}, {"type": "note_off", "time": 446, "note": 65, "velocity": 115, "channel": 0}, {"type": "note_on", "time": 43, "note": 63, "velocity": 107, "channel": 0}, {"type": "note_off", "time": 347, "note": 63, "velocity": 107, "channel": 0}, {"type": "note_on", "time": 91, "note": 66, "velocity": 114, "channel": 0}, {"type": "note_off", "time": 215, "note": 66, "velocity": 114, "channel": 0}, {"type": "note_on", "time": 10, "note": 67, "velocity": 121, "channel": 0}, {"type": "note_off", "time": 226, "note": 67, "velocity": 121, "channel": 0}, {"type": "note_on", "time": 640, "note": 72, "velocity": 118, "channel": 0}, {"type": "note_off", "time": 398, "note": 72, "velocity": 118, "channel": 0}, {"type": "note_on", "time": 131, "note": 75, "velocity": 113, "channel": 0}, {"type": "note_off", "time": 263, "note": 75, "velocity": 113, "channel": 0}, {"type": "note_on", "time": 113, "note": 78, "velocity": 94, "channel": 0}, {"type": "note_off", "time": 76, "note": 78, "velocity": 94, "channel": 0}, {"type": "note_on", "time": 14, "note": 79, "velocity": 93, "channel": 0}, {"type": "note_off", "time": 563, "note": 79, "velocity": 93, "channel": 0}, {"type": "note_on", "time": 87, "note": 78, "velocity": 118, "channel": 0}, {"type": "note_off", "time": 80, "note": 78, "velocity": 118, "channel": 0}, {"type": "note_on", "time": 27, "note": 79, "velocity": 79, "channel": 0}, {"type": "note_off", "time": 1209, "note": 79, "velocity": 79, "channel": 0}, {"type": "note_on", "time": 511, "note": 72, "velocity": 109, "channel": 0}, {"type": "note_off", "time": 343, "note": 72, "velocity": 109, "channel": 0}, {"type": "note_on", "time": 175, "note": 75, "velocity": 114, "channel": 0}, {"type": "note_off", "time": 329, "note": 75, "velocity": 114, "channel": 0}, {"type": "note_on", "time": 206, "note": 76, "velocity": 122, "channel": 0}, {"type": "note_off", "time": 124, "note": 76, "velocity": 122, "channel": 0}, {"type": "note_on", "time": 23, "note": 77, "velocity": 111, "channel": 0}, {"type": "note_off", "time": 332, "note": 77, "velocity": 111, "channel": 0}, {"type": "note_on", "time": 69, "note": 75, "velocity": 120, "channel": 0}, {"type": "note_off", "time": 318, "note": 75, "velocity": 120, "channel": 0}, {"type": "note_on", "time": 171, "note": 78, "velocity": 110, "channel": 0}, {"type": "note_off", "time": 95, "note": 78, "velocity": 110, "channel": 0}, {"type": "note_on", "time": 21, "note": 79, "velocity": 108, "channel": 0}, {"type": "note_off", "time": 318, "note": 79, "velocity": 108, "channel": 0}, {"type": "note_on", "time": 157, "note": 67, "velocity": 107, "channel": 0}, {"type": "note_off", "time": 409, "note": 67, "velocity": 107, "channel": 0}, {"type": "note_on", "time": 142, "note": 72, "velocity": 109, "channel": 0}, {"type": "note_off", "time": 365, "note": 72, "velocity": 109, "channel": 0}, {"type": "note_on", "time": 135, "note": 75, "velocity": 120, "channel": 0}, {"type": "note_off", "time": 270, "note": 75, "velocity": 120, "channel": 0}, {"type": "note_on", "time": 194, "note": 78, "velocity": 117, "channel": 0}, {"type": "note_off", "time": 69, "note": 78, "velocity": 117, "channel": 0}, {"type": "note_on", "time": 24, "note": 79, "velocity": 91, "channel": 0}, {"type": "note_off", "time": 420, "note": 79, "velocity": 91, "channel": 0}, {"type": "note_on", "time": 65, "note": 78, "velocity": 121, "channel": 0}, {"type": "note_off", "time": 120, "note": 78, "velocity": 121, "channel": 0}, {"type": "note_on", "time": 39, "note": 79, "velocity": 79, "channel": 0}, {"type": "note_off", "time": 1102, "note": 79, "velocity": 79, "channel": 0}, {"type": "note_on", "time": 517, "note": 72, "velocity": 119, "channel": 0}, {"type": "note_off", "time": 201, "note": 72, "velocity": 119, "channel": 0}, {"type": "note_on", "time": 80, "note": 73, "velocity": 116, "channel": 0}, {"type": "note_off", "time": 234, "note": 73, "velocity": 116, "channel": 0}, {"type": "note_on", "time": 124, "note": 74, "velocity": 115, "channel": 0}, {"type": "note_off", "time": 292, "note": 74, "velocity": 115, "channel": 0}, {"type": "note_on", "time": 160, "note": 71, "velocity": 122, "channel": 0}, {"type": "note_off", "time": 270, "note": 71, "velocity": 122, "channel": 0}, {"type": "note_on", "time": 80, "note": 67, "velocity": 125, "channel": 0}, {"type": "note_off", "time": 274, "note": 67, "velocity": 125, "channel": 0}, {"type": "note_on", "time": 32, "note": 66, "velocity": 107, "channel": 0}, {"type": "note_off", "time": 128, "note": 66, "velocity": 107, "channel": 0}, {"type": "note_on", "time": 40, "note": 64, "velocity": 102, "channel": 0}, {"type": "note_off", "time": 153, "note": 64, "velocity": 102, "channel": 0}, {"type": "note_on", "time": 120, "note": 62, "velocity": 104, "channel": 0}, {"type": "note_off", "time": 179, "note": 62, "velocity": 104, "channel": 0}, {"type": "note_on", "time": 39, "note": 60, "velocity": 93, "channel": 0}, {"type": "note_off", "time": 93, "note": 60, "velocity": 93, "channel": 0}, {"type": "note_on", "time": 5, "note": 61, "velocity": 107, "channel": 0}, {"type": "note_off", "time": 219, "note": 61, "velocity": 107, "channel": 0}, {"type": "note_on", "time": 32, "note": 66, "velocity": 114, "channel": 0}, {"type": "note_off", "time": 219, "note": 66, "velocity": 114, "channel": 0}, {"type": "note_on", "time": 54, "note": 65, "velocity": 112, "channel": 0}, {"type": "note_off", "time": 175, "note": 65, "velocity": 112, "channel": 0}, {"type": "note_on", "time": 46, "note": 63, "velocity": 91, "channel": 0}, {"type": "note_off", "time": 83, "note": 63, "velocity": 91, "channel": 0}, {"type": "note_on", "time": 13, "note": 64, "velocity": 122, "channel": 0}, {"type": "note_off", "time": 135, "note": 64, "velocity": 122, "channel": 0}, {"type": "note_on", "time": 51, "note": 66, "velocity": 116, "channel": 0}, {"type": "note_off", "time": 190, "note": 66, "velocity": 116, "channel": 0}, {"type": "note_on", "time": 51, "note": 67, "velocity": 112, "channel": 0}, {"type": "note_off", "time": 179, "note": 67, "velocity": 112, "channel": 0}, {"type": "note_on", "time": 10, "note": 68, "velocity": 114, "channel": 0}, {"type": "note_off", "time": 171, "note": 68, "velocity": 114, "channel": 0}, {"type": "note_on", "time": 102, "note": 69, "velocity": 117, "channel": 0}, {"type": "note_off", "time": 160, "note": 69, "velocity": 117, "channel": 0}, {"type": "note_on", "time": 36, "note": 70, "velocity": 112, "channel": 0}, {"type": "note_off", "time": 113, "note": 70, "velocity": 112, "channel": 0}, {"type": "note_on", "time": 25, "note": 71, "velocity": 100, "channel": 0}, {"type": "note_off", "time": 149, "note": 71, "velocity": 100, "channel": 0}, {"type": "note_on", "time": 146, "note": 72, "velocity": 114, "channel": 0}, {"type": "note_off", "time": 263, "note": 72, "velocity": 114, "channel": 0}, {"type": "note_on", "time": 91, "note": 73, "velocity": 123, "channel": 0}, {"type": "note_off", "time": 285, "note": 73, "velocity": 123, "channel": 0}, {"type": "note_on", "time": 146, "note": 72, "velocity": 113, "channel": 0}, {"type": "note_off", "time": 241, "note": 72, "velocity": 113, "channel": 0}, {"type": "note_on", "time": 128, "note": 71, "velocity": 119, "channel": 0}, {"type": "note_off", "time": 245, "note": 71, "velocity": 119, "channel": 0}, {"type": "note_on", "time": 43, "note": 70, "velocity": 111, "channel": 0}, {"type": "note_off", "time": 204, "note": 70, "velocity": 111, "channel": 0}, {"type": "note_on", "time": 42, "note": 67, "velocity": 94, "channel": 0}, {"type": "note_off", "time": 88, "note": 67, "velocity": 94, "channel": 0}, {"type": "note_on", "time": 8, "note": 68, "velocity": 118, "channel": 0}, {"type": "note_off", "time": 241, "note": 68, "velocity": 118, "channel": 0}, {"type": "note_on", "time": 51, "note": 65, "velocity": 124, "channel": 0}, {"type": "note_off", "time": 212, "note": 65, "velocity": 124, "channel": 0}, {"type": "note_on", "time": 47, "note": 63, "velocity": 112, "channel": 0}, {"type": "note_off", "time": 234, "note": 63, "velocity": 112, "channel": 0}, {"type": "note_on", "time": 69, "note": 62, "velocity": 116, "channel": 0}, {"type": "note_off", "time": 171, "note": 62, "velocity": 116, "channel": 0}, {"type": "note_on", "time": 54, "note": 60, "velocity": 106, "channel": 0}, {"type": "note_off", "time": 142, "note": 60, "velocity": 106, "channel": 0}, {"type": "note_on", "time": 69, "note": 58, "velocity": 99, "channel": 0}, {"type": "note_off", "time": 106, "note": 58, "velocity": 99, "channel": 0}, {"type": "note_on", "time": 43, "note": 59, "velocity": 91, "channel": 0}, {"type": "note_off", "time": 149, "note": 59, "velocity": 91, "channel": 0}, {"type": "note_on", "time": 47, "note": 62, "velocity": 117, "channel": 0}, {"type": "note_off", "time": 193, "note": 62, "velocity": 117, "channel": 0}, {"type": "note_on", "time": 95, "note": 56, "velocity": 107, "channel": 0}, {"type": "note_off", "time": 201, "note": 56, "velocity": 107, "channel": 0}, {"type": "note_on", "time": 135, "note": 54, "velocity": 107, "channel": 0}, {"type": "note_off", "time": 179, "note": 54, "velocity": 107, "channel": 0}, {"type": "note_on", "time": 25, "note": 55, "velocity": 106, "channel": 0}, {"type": "note_off", "time": 384, "note": 55, "velocity": 106, "channel": 0}, {"type": "note_on", "time": 32, "note": 54, "velocity": 92, "channel": 0}, {"type": "note_off", "time": 109, "note": 54, "velocity": 92, "channel": 0}, {"type": "note_on", "time": 877, "note": 51, "velocity": 115, "channel": 0}, {"type": "note_off", "time": 234, "note": 51, "velocity": 115, "channel": 0}, {"type": "note_on", "time": 43, "note": 48, "velocity": 96, "channel": 0}, {"type": "note_off", "time": 570, "note": 48, "velocity": 96, "channel": 0}, {"type": "note_on", "time": 285, "note": 51, "velocity": 114, "channel": 0}, {"type": "note_off", "time": 493, "note": 51, "velocity": 114, "channel": 0}, {"type": "note_on", "time": 73, "note": 48, "velocity": 89, "channel": 0}, {"type": "note_off", "time": 215, "note": 48, "velocity": 89, "channel": 0}, {"type": "note_on", "time": 87, "note": 53, "velocity": 98, "channel": 0}, {"type": "note_off", "time": 106, "note": 53, "velocity": 98, "channel": 0}, {"type": "note_on", "time": 58, "note": 55, "velocity": 97, "channel": 0}, {"type": "note_off", "time": 482, "note": 55, "velocity": 97, "channel": 0}, {"type": "note_on", "time": 80, "note": 58, "velocity": 110, "channel": 0}, {"type": "note_off", "time": 694, "note": 58, "velocity": 110, "channel": 0}, {"type": "note_on", "time": 73, "note": 60, "velocity": 102, "channel": 0}, {"type": "note_off", "time": 687, "note": 60, "velocity": 102, "channel": 0}, {"type": "note_on", "time": 179, "note": 63, "velocity": 116, "channel": 0}, {"type": "note_off", "time": 526, "note": 63, "velocity": 116, "channel": 0}, {"type": "note_on", "time": 29, "note": 64, "velocity": 114, "channel": 0}, {"type": "note_off", "time": 138, "note": 64, "velocity": 114, "channel": 0}, {"type": "note_on", "time": 25, "note": 65, "velocity": 104, "channel": 0}, {"type": "note_off", "time": 91, "note": 65, "velocity": 104, "channel": 0}, {"type": "note_on", "time": 83, "note": 68, "velocity": 121, "channel": 0}, {"type": "note_off", "time": 67, "note": 68, "velocity": 121, "channel": 0}, {"type": "note_on", "time": 28, "note": 70, "velocity": 103, "channel": 0}, {"type": "note_off", "time": 1411, "note": 70, "velocity": 103, "channel": 0}, {"type": "note_on", "time": 18, "note": 67, "velocity": 100, "channel": 0}, {"type": "note_off", "time": 1759, "note": 67, "velocity": 100, "channel": 0}, {"type": "end_of_track", "time": 0}]]}