{"ticks_per_beat": 192, "tracks": [[{"type": "track_name", "name": "Melody", "time": 0}, {"type": "set_tempo", "tempo": 247933, "time": 0}, {"type": "key_signature", "key": "Bb", "time": 0}, {"type": "time_signature", "numerator": 4, "denominator": 4, "clocks_per_click": 24, "notated_32nd_notes_per_beat": 8, "time": 0}, {"type": "note_on", "time": 3041, "note": 55, "velocity": 86, "channel": 0}, {"type": "note_off", "time": 69, "note": 55, "velocity": 86, "channel": 0}, {"type": "note_on", "time": 15, "note": 57, "velocity": 94, "channel": 0}, {"type": "note_off", "time": 85, "note": 57, "velocity": 94, "channel": 0}, {"type": "note_on", "time": 13, "note": 58, "velocity": 93, "channel": 0}, {"type": "note_off", "time": 60, "note": 58, "velocity": 93, "channel": 0}, {"type": "note_on", "time": 35, "note": 60, "velocity": 108, "channel": 0}, {"type": "note_off", "time": 71, "note": 60, "velocity": 108, "channel": 0}, {"type": "note_on", "time": 20, "note": 62, "velocity": 115, "channel": 0}, {"type": "note_off", "time": 76, "note": 62, "velocity": 115, "channel": 0}, {"type": "note_on", "time": 26, "note": 62, "velocity": 111, "channel": 0}, {"type": "note_off", "time": 76, "note": 62, "velocity": 111, "channel": 0}, {"type": "note_on", "time": 11, "note": 60, "velocity": 106, "channel": 0}, {"type": "note_off", "time": 101, "note": 60, "velocity": 106, "channel": 0}, {"type": "note_on", "time": 17, "note": 56, "velocity": 92, "channel": 0}, {"type": "note_off", "time": 38, "note": 56, "velocity": 92, "channel": 0}, {"type": "note_on", "time": 39, "note": 58, "velocity": 109, "channel": 0}, {"type": "note_off", "time": 102, "note": 58, "velocity": 109, "channel": 0}, {"type": "note_on", "time": 74, "note": 60, "velocity": 109, "channel": 0}, {"type": "note_off", "time": 112, "note": 60, "velocity": 109, "channel": 0}, {"type": "note_on", "time": 109, "note": 56, "velocity": 103, "channel": 0}, {"type": "note_off", "time": 56, "note": 56, "velocity": 103, "channel": 0}, {"type": "note_on", "time": 26, "note": 57, "velocity": 96, "channel": 0}, {"type": "note_off", "time": 273, "note": 57, "velocity": 96, "channel": 0}, {"type": "note_on", "time": 45, "note": 57, "velocity": 107, "channel": 0}, {"type": "note_off", "time": 268, "note": 57, "velocity": 107, "channel": 0}, {"type": "note_on", "time": 22, "note": 55, "velocity": 95, "channel": 0}, {"type": "note_off", "time": 82, "note": 55, "velocity": 95, "channel": 0}, {"type": "note_on", "time": 4, "note": 57, "velocity": 116, "channel": 0}, {"type": "note_off", "time": 102, "note": 57, "velocity": 116, "channel": 0}, {"type": "note_on", "time": 25, "note": 55, "velocity": 108, "channel": 0}, {"type": "note_off", "time": 85, "note": 55, "velocity": 108, "channel": 0}, {"type": "note_on", "time": 13, "note": 52, "velocity": 90, "channel": 0}, {"type": "note_off", "time": 94, "note": 52, "velocity": 90, "channel": 0}, {"type": "note_on", "time": 8, "note": 50, "velocity": 95, "channel": 0}, {"type": "note_off", "time": 269, "note": 50, "velocity": 95, "channel": 0}, {"type": "note_on", "time": 15, "note": 53, "velocity": 109, "channel": 0}, {"type": "note_off", "time": 116, "note": 53, "velocity": 109, "channel": 0}, {"type": "note_on", "time": 460, "note": 55, "velocity": 111, "channel": 0}, {"type": "note_off", "time": 71, "note": 55, "velocity": 111, "channel": 0}, {"type": "note_on", "time": 38, "note": 55, "velocity": 105, "channel": 0}, {"type": "note_off", "time": 78, "note": 55, "velocity": 105, "channel": 0}, {"type": "note_on", "time": 40, "note": 53, "velocity": 89, "channel": 0}, {"type": "note_off", "time": 64, "note": 53, "velocity": 89, "channel": 0}, {"type": "note_on", "time": 108, "note": 55, "velocity": 96, "channel": 0}, {"type": "note_off", "time": 141, "note": 55, "velocity": 96, "channel": 0}, {"type": "note_on", "time": 17, "note": 52, "velocity": 106, "channel": 0}, {"type": "note_off", "time": 92, "note": 52, "velocity": 106, "channel": 0}, {"type": "note_on", "time": 114, "note": 48, "velocity": 99, "channel": 0}, {"type": "note_off", "time": 123, "note": 48, "velocity": 99, "channel": 0}, {"type": "note_on", "time": 92, "note": 45, "velocity": 96, "channel": 0}, {"type": "note_off", "time": 200, "note": 45, "velocity": 96, "channel": 0}, {"type": "note_on", "time": 282, "note": 45, "velocity": 102, "channel": 0}, {"type": "note_off", "time": 116, "note": 45, "velocity": 102, "channel": 0}, {"type": "note_on", "time": 70, "note": 48, "velocity": 95, "channel": 0}, {"type": "note_off", "time": 89, "note": 48, "velocity": 95, "channel": 0}, {"type": "note_on", "time": 4, "note": 52, "velocity": 107, "channel": 0}, {"type": "note_off", "time": 116, "note": 52, "velocity": 107, "channel": 0}, {"type": "note_on", "time": 110, "note": 52, "velocity": 106, "channel": 0}, {"type": "note_off", "time": 157, "note": 52, "velocity": 106, "channel": 0}, {"type": "note_on", "time": 8, "note": 53, "velocity": 94, "channel": 0}, {"type": "note_off", "time": 87, "note": 53, "velocity": 94, "channel": 0}, {"type": "note_on", "time": 116, "note": 50, "velocity": 98, "channel": 0}, {"type": "note_off", "time": 134, "note": 50, "velocity": 98, "channel": 0}, {"type": "note_on", "time": 51, "note": 46, "velocity": 86, "channel": 0}, {"type": "note_off", "time": 107, "note": 46, "velocity": 86, "channel": 0}, {"type": "note_on", "time": 382, "note": 45, "velocity": 95, "channel": 0}, {"type": "note_off", "time": 58, "note": 45, "velocity": 95, "channel": 0}, {"type": "note_on", "time": 9, "note": 46, "velocity": 87, "channel": 0}, {"type": "note_off", "time": 56, "note": 46, "velocity": 87, "channel": 0}, {"type": "note_on", "time": 63, "note": 50, "velocity": 86, "channel": 0}, {"type": "note_off", "time": 62, "note": 50, "velocity": 86, "channel": 0}, {"type": "note_on", "time": 8, "note": 53, "velocity": 90, "channel": 0}, {"type": "note_off", "time": 94, "note": 53, "velocity": 90, "channel": 0}, {"type": "note_on", "time": 6, "note": 56, "velocity": 111, "channel": 0}, {"type": "note_off", "time": 110, "note": 56, "velocity": 111, "channel": 0}, {"type": "note_on", "time": 6, "note": 55, "velocity": 105, "channel": 0}, {"type": "note_off", "time": 60, "note": 55, "velocity": 105, "channel": 0}, {"type": "note_on", "time": 359, "note": 47, "velocity": 89, "channel": 0}, {"type": "note_off", "time": 170, "note": 47, "velocity": 89, "channel": 0}, {"type": "note_on", "time": 17, "note": 50, "velocity": 107, "channel": 0}, {"type": "note_off", "time": 116, "note": 50, "velocity": 107, "channel": 0}, {"type": "note_on", "time": 12, "note": 49, "velocity": 97, "channel": 0}, {"type": "note_off", "time": 80, "note": 49, "velocity": 97, "channel": 0}, {"type": "note_on", "time": 289, "note": 48, "velocity": 99, "channel": 0}, {"type": "note_off", "time": 105, "note": 48, "velocity": 99, "channel": 0}, {"type": "note_on", "time": 78, "note": 51, "velocity": 104, "channel": 0}, {"type": "note_off", "time": 173, "note": 51, "velocity": 104, "channel": 0}, {"type": "note_on", "time": 105, "note": 53, "velocity": 101, "channel": 0}, {"type": "note_off", "time": 141, "note": 53, "velocity": 101, "channel": 0}, {"type": "note_on", "time": 67, "note": 53, "velocity": 101, "channel": 0}, {"type": "note_off", "time": 58, "note": 53, "velocity": 101, "channel": 0}, {"type": "note_on", "time": 121, "note": 55, "velocity": 108, "channel": 0}, {"type": "note_off", "time": 173, "note": 55, "velocity": 108, "channel": 0}, {"type": "note_on", "time": 37, "note": 58, "velocity": 102, "channel": 0}, {"type": "note_off", "time": 195, "note": 58, "velocity": 102, "channel": 0}, {"type": "note_on", "time": 367, "note": 55, "velocity": 101, "channel": 0}, {"type": "note_off", "time": 82, "note": 55, "velocity": 101, "channel": 0}, {"type": "note_on", "time": 4, "note": 58, "velocity": 101, "channel": 0}, {"type": "note_off", "time": 77, "note": 58, "velocity": 101, "channel": 0}, {"type": "note_on", "time": 9, "note": 60, "velocity": 114, "channel": 0}, {"type": "note_off", "time": 82, "note": 60, "velocity": 114, "channel": 0}, {"type": "note_on", "time": 18, "note": 61, "velocity": 107, "channel": 0}, {"type": "note_off", "time": 85, "note": 61, "velocity": 107, "channel": 0}, {"type": "note_on", "time": 14, "note": 62, "velocity": 108, "channel": 0}, {"type": "note_off", "time": 83, "note": 62, "velocity": 108, "channel": 0}, {"type": "note_on", "time": 28, "note": 61, "velocity": 111, "channel": 0}, {"type": "note_off", "time": 69, "note": 61, "velocity": 111, "channel": 0}, {"type": "note_on", "time": 17, "note": 60, "velocity": 107, "channel": 0}, {"type": "note_off", "time": 90, "note": 60, "velocity": 107, "channel": 0}, {"type": "note_on", "time": 30, "note": 56, "velocity": 98, "channel": 0}, {"type": "note_off", "time": 52, "note": 56, "velocity": 98, "channel": 0}, {"type": "note_on", "time": 6, "note": 58, "velocity": 109, "channel": 0}, {"type": "note_off", "time": 195, "note": 58, "velocity": 109, "channel": 0}, {"type": "note_on", "time": 19, "note": 55, "velocity": 97, "channel": 0}, {"type": "note_off", "time": 150, "note": 55, "velocity": 97, "channel": 0}, {"type": "note_on", "time": 137, "note": 50, "velocity": 101, "channel": 0}, {"type": "note_off", "time": 128, "note": 50, "velocity": 101, "channel": 0}, {"type": "note_on", "time": 62, "note": 53, "velocity": 105, "channel": 0}, {"type": "note_off", "time": 97, "note": 53, "velocity": 105, "channel": 0}, {"type": "note_on", "time": 93, "note": 55, "velocity": 110, "channel": 0}, {"type": "note_off", "time": 105, "note": 55, "velocity": 110, "channel": 0}, {"type": "note_on", "time": 77, "note": 50, "velocity": 93, "channel": 0}, {"type": "note_off", "time": 79, "note": 50, "velocity": 93, "channel": 0}, {"type": "note_on", "time": 9, "note": 53, "velocity": 107, "channel": 0}, {"type": "note_off", "time": 99, "note": 53, "velocity": 107, "channel": 0}, {"type": "note_on", "time": 93, "note": 55, "velocity": 113, "channel": 0}, {"type": "note_off", "time": 137, "note": 55, "velocity": 113, "channel": 0}, {"type": "note_on", "time": 63, "note": 50, "velocity": 100, "channel": 0}, {"type": "note_off", "time": 82, "note": 50, "velocity": 100, "channel": 0}, {"type": "note_on", "time": 12, "note": 53, "velocity": 109, "channel": 0}, {"type": "note_off", "time": 104, "note": 53, "velocity": 109, "channel": 0}, {"type": "note_on", "time": 88, "note": 55, "velocity": 110, "channel": 0}, {"type": "note_off", "time": 104, "note": 55, "velocity": 110, "channel": 0}, {"type": "note_on", "time": 104, "note": 50, "velocity": 107, "channel": 0}, {"type": "note_off", "time": 82, "note": 50, "velocity": 107, "channel": 0}, {"type": "note_on", "time": 15, "note": 49, "velocity": 94, "channel": 0}, {"type": "note_off", "time": 169, "note": 49, "velocity": 94, "channel": 0}, {"type": "note_on", "time": 9, "note": 53, "velocity": 109, "channel": 0}, {"type": "note_off", "time": 131, "note": 53, "velocity": 109, "channel": 0}, {"type": "note_on", "time": 55, "note": 55, "velocity": 113, "channel": 0}, {"type": "note_off", "time": 135, "note": 55, "velocity": 113, "channel": 0}, {"type": "note_on", "time": 64, "note": 50, "velocity": 106, "channel": 0}, {"type": "note_off", "time": 83, "note": 50, "velocity": 106, "channel": 0}, {"type": "note_on", "time": 116, "note": 53, "velocity": 114, "channel": 0}, {"type": "note_off", "time": 91, "note": 53, "velocity": 114, "channel": 0}, {"type": "note_on", "time": 82, "note": 55, "velocity": 111, "channel": 0}, {"type": "note_off", "time": 102, "note": 55, "velocity": 111, "channel": 0}, {"type": "note_on", "time": 23, "note": 49, "velocity": 100, "channel": 0}, {"type": "note_off", "time": 113, "note": 49, "velocity": 100, "channel": 0}, {"type": "note_on", "time": 50, "note": 53, "velocity": 109, "channel": 0}, {"type": "note_off", "time": 107, "note": 53, "velocity": 109, "channel": 0}, {"type": "note_on", "time": 96, "note": 55, "velocity": 110, "channel": 0}, {"type": "note_off", "time": 97, "note": 55, "velocity": 110, "channel": 0}, {"type": "note_on", "time": 9, "note": 54, "velocity": 99, "channel": 0}, {"type": "note_off", "time": 85, "note": 54, "velocity": 99, "channel": 0}, {"type": "note_on", "time": 28, "note": 49, "velocity": 91, "channel": 0}, {"type": "note_off", "time": 72, "note": 49, "velocity": 91, "channel": 0}, {"type": "note_on", "time": 3, "note": 53, "velocity": 110, "channel": 0}, {"type": "note_off", "time": 104, "note": 53, "velocity": 110, "channel": 0}, {"type": "note_on", "time": 82, "note": 55, "velocity": 103, "channel": 0}, {"type": "note_off", "time": 102, "note": 55, "velocity": 103, "channel": 0}, {"type": "note_on", "time": 93, "note": 49, "velocity": 103, "channel": 0}, {"type": "note_off", "time": 112, "note": 49, "velocity": 103, "channel": 0}, {"type": "note_on", "time": 77, "note": 53, "velocity": 104, "channel": 0}, {"type": "note_off", "time": 113, "note": 53, "velocity": 104, "channel": 0}, {"type": "note_on", "time": 69, "note": 60, "velocity": 99, "channel": 0}, {"type": "note_off", "time": 110, "note": 60, "velocity": 99, "channel": 0}, {"type": "note_on", "time": 10, "note": 58, "velocity": 82, "channel": 0}, {"type": "note_off", "time": 51, "note": 58, "velocity": 82, "channel": 0}, {"type": "note_on", "time": 8, "note": 60, "velocity": 105, "channel": 0}, {"type": "note_off", "time": 211, "note": 60, "velocity": 105, "channel": 0}, {"type": "note_on", "time": 390, "note": 60, "velocity": 103, "channel": 0}, {"type": "note_off", "time": 246, "note": 60, "velocity": 103, "channel": 0}, {"type": "note_on", "time": 36, "note": 58, "velocity": 99, "channel": 0}, {"type": "note_off", "time": 52, "note": 58, "velocity": 99, "channel": 0}, {"type": "note_on", "time": 45, "note": 61, "velocity": 99, "channel": 0}, {"type": "note_off", "time": 132, "note": 61, "velocity": 99, "channel": 0}, {"type": "note_on", "time": 4, "note": 58, "velocity": 85, "channel": 0}, {"type": "note_off", "time": 66, "note": 58, "velocity": 85, "channel": 0}, {"type": "note_on", "time": 3, "note": 55, "velocity": 94, "channel": 0}, {"type": "note_off", "time": 93, "note": 55, "velocity": 94, "channel": 0}, {"type": "note_on", "time": 22, "note": 53, "velocity": 106, "channel": 0}, {"type": "note_off", "time": 74, "note": 53, "velocity": 106, "channel": 0}, {"type": "note_on", "time": 20, "note": 50, "velocity": 105, "channel": 0}, {"type": "note_off", "time": 74, "note": 50, "velocity": 105, "channel": 0}, {"type": "note_on", "time": 14, "note": 49, "velocity": 106, "channel": 0}, {"type": "note_off", "time": 88, "note": 49, "velocity": 106, "channel": 0}, {"type": "note_on", "time": 22, "note": 48, "velocity": 108, "channel": 0}, {"type": "note_off", "time": 90, "note": 48, "velocity": 108, "channel": 0}, {"type": "note_on", "time": 96, "note": 46, "velocity": 101, "channel": 0}, {"type": "note_off", "time": 83, "note": 46, "velocity": 101, "channel": 0}, {"type": "note_on", "time": 11, "note": 48, "velocity": 107, "channel": 0}, {"type": "note_off", "time": 93, "note": 48, "velocity": 107, "channel": 0}, {"type": "note_on", "time": 80, "note": 50, "velocity": 109, "channel": 0}, {"type": "note_off", "time": 124, "note": 50, "velocity": 109, "channel": 0}, {"type": "note_on", "time": 6, "note": 49, "velocity": 101, "channel": 0}, {"type": "note_off", "time": 61, "note": 49, "velocity": 101, "channel": 0}, {"type": "note_on", "time": 6, "note": 53, "velocity": 107, "channel": 0}, {"type": "note_off", "time": 116, "note": 53, "velocity": 107, "channel": 0}, {"type": "note_on", "time": 4, "note": 52, "velocity": 99, "channel": 0}, {"type": "note_off", "time": 72, "note": 52, "velocity": 99, "channel": 0}, {"type": "note_on", "time": 7, "note": 55, "velocity": 108, "channel": 0}, {"type": "note_off", "time": 105, "note": 55, "velocity": 108, "channel": 0}, {"type": "note_on", "time": 11, "note": 54, "velocity": 88, "channel": 0}, {"type": "note_off", "time": 55, "note": 54, "velocity": 88, "channel": 0}, {"type": "note_on", "time": 26, "note": 58, "velocity": 104, "channel": 0}, {"type": "note_off", "time": 107, "note": 58, "velocity": 104, "channel": 0}, {"type": "note_on", "time": 80, "note": 60, "velocity": 107, "channel": 0}, {"type": "note_off", "time": 86, "note": 60, "velocity": 107, "channel": 0}, {"type": "note_on", "time": 12, "note": 59, "velocity": 93, "channel": 0}, {"type": "note_off", "time": 60, "note": 59, "velocity": 93, "channel": 0}, {"type": "note_on", "time": 23, "note": 62, "velocity": 100, "channel": 0}, {"type": "note_off", "time": 120, "note": 62, "velocity": 100, "channel": 0}, {"type": "note_on", "time": 47, "note": 65, "velocity": 109, "channel": 0}, {"type": "note_off", "time": 90, "note": 65, "velocity": 109, "channel": 0}, {"type": "note_on", "time": 14, "note": 64, "velocity": 94, "channel": 0}, {"type": "note_off", "time": 61, "note": 64, "velocity": 94, "channel": 0}, {"type": "note_on", "time": 41, "note": 67, "velocity": 101, "channel": 0}, {"type": "note_off", "time": 124, "note": 67, "velocity": 101, "channel": 0}, {"type": "note_on", "time": 60, "note": 70, "velocity": 118, "channel": 0}, {"type": "note_off", "time": 116, "note": 70, "velocity": 118, "channel": 0}, {"type": "note_on", "time": 82, "note": 72, "velocity": 113, "channel": 0}, {"type": "note_off", "time": 102, "note": 72, "velocity": 113, "channel": 0}, {"type": "note_on", "time": 82, "note": 73, "velocity": 112, "channel": 0}, {"type": "note_off", "time": 67, "note": 73, "velocity": 112, "channel": 0}, {"type": "note_on", "time": 12, "note": 74, "velocity": 111, "channel": 0}, {"type": "note_off", "time": 64, "note": 74, "velocity": 111, "channel": 0}, {"type": "note_on", "time": 58, "note": 77, "velocity": 91, "channel": 0}, {"type": "note_off", "time": 69, "note": 77, "velocity": 91, "channel": 0}, {"type": "note_on", "time": 188, "note": 78, "velocity": 113, "channel": 0}, {"type": "note_off", "time": 39, "note": 78, "velocity": 113, "channel": 0}, {"type": "note_on", "time": 17, "note": 79, "velocity": 92, "channel": 0}, {"type": "note_off", "time": 71, "note": 79, "velocity": 92, "channel": 0}, {"type": "note_on", "time": 63, "note": 77, "velocity": 101, "channel": 0}, {"type": "note_off", "time": 210, "note": 77, "velocity": 101, "channel": 0}, {"type": "note_on", "time": 203, "note": 74, "velocity": 112, "channel": 0}, {"type": "note_off", "time": 101, "note": 74, "velocity": 112, "channel": 0}, {"type": "note_on", "time": 4, "note": 72, "velocity": 114, "channel": 0}, {"type": "note_off", "time": 97, "note": 72, "velocity": 114, "channel": 0}, {"type": "note_on", "time": 6, "note": 70, "velocity": 100, "channel": 0}, {"type": "note_off", "time": 150, "note": 70, "velocity": 100, "channel": 0}, {"type": "note_on", "time": 224, "note": 70, "velocity": 115, "channel": 0}, {"type": "note_off", "time": 116, "note": 70, "velocity": 115, "channel": 0}, {"type": "note_on", "time": 4, "note": 72, "velocity": 96, "channel": 0}, {"type": "note_off", "time": 61, "note": 72, "velocity": 96, "channel": 0}, {"type": "note_on", "time": 14, "note": 74, "velocity": 105, "channel": 0}, {"type": "note_off", "time": 107, "note": 74, "velocity": 105, "channel": 0}, {"type": "note_on", "time": 107, "note": 69, "velocity": 101, "channel": 0}, {"type": "note_off", "time": 72, "note": 69, "velocity": 101, "channel": 0}, {"type": "note_on", "time": 1, "note": 68, "velocity": 94, "channel": 0}, {"type": "note_off", "time": 67, "note": 68, "velocity": 94, "channel": 0}, {"type": "note_on", "time": 225, "note": 69, "velocity": 118, "channel": 0}, {"type": "note_off", "time": 101, "note": 69, "velocity": 118, "channel": 0}, {"type": "note_on", "time": 85, "note": 69, "velocity": 117, "channel": 0}, {"type": "note_off", "time": 80, "note": 69, "velocity": 117, "channel": 0}, {"type": "note_on", "time": 20, "note": 70, "velocity": 116, "channel": 0}, {"type": "note_off", "time": 99, "note": 70, "velocity": 116, "channel": 0}, {"type": "note_on", "time": 14, "note": 69, "velocity": 116, "channel": 0}, {"type": "note_off", "time": 80, "note": 69, "velocity": 116, "channel": 0}, {"type": "note_on", "time": 4, "note": 67, "velocity": 113, "channel": 0}, {"type": "note_off", "time": 96, "note": 67, "velocity": 113, "channel": 0}, {"type": "note_on", "time": 0, "note": 65, "velocity": 99, "channel": 0}, {"type": "note_off", "time": 63, "note": 65, "velocity": 99, "channel": 0}, {"type": "note_on", "time": 37, "note": 62, "velocity": 108, "channel": 0}, {"type": "note_off", "time": 63, "note": 62, "velocity": 108, "channel": 0}, {"type": "note_on", "time": 18, "note": 60, "velocity": 98, "channel": 0}, {"type": "note_off", "time": 115, "note": 60, "velocity": 98, "channel": 0}, {"type": "note_on", "time": 79, "note": 62, "velocity": 111, "channel": 0}, {"type": "note_off", "time": 85, "note": 62, "velocity": 111, "channel": 0}, {"type": "note_on", "time": 112, "note": 58, "velocity": 97, "channel": 0}, {"type": "note_off", "time": 74, "note": 58, "velocity": 97, "channel": 0}, {"type": "note_on", "time": 4, "note": 57, "velocity": 87, "channel": 0}, {"type": "note_off", "time": 66, "note": 57, "velocity": 87, "channel": 0}, {"type": "note_on", "time": 251, "note": 57, "velocity": 95, "channel": 0}, {"type": "note_off", "time": 72, "note": 57, "velocity": 95, "channel": 0}, {"type": "note_on", "time": 20, "note": 58, "velocity": 103, "channel": 0}, {"type": "note_off", "time": 79, "note": 58, "velocity": 103, "channel": 0}, {"type": "note_on", "time": 18, "note": 60, "velocity": 102, "channel": 0}, {"type": "note_off", "time": 53, "note": 60, "velocity": 102, "channel": 0}, {"type": "note_on", "time": 20, "note": 62, "velocity": 98, "channel": 0}, {"type": "note_off", "time": 74, "note": 62, "velocity": 98, "channel": 0}, {"type": "note_on", "time": 4, "note": 63, "velocity": 104, "channel": 0}, {"type": "note_off", "time": 105, "note": 63, "velocity": 104, "channel": 0}, {"type": "note_on", "time": 12, "note": 64, "velocity": 110, "channel": 0}, {"type": "note_off", "time": 52, "note": 64, "velocity": 110, "channel": 0}, {"type": "note_on", "time": 30, "note": 65, "velocity": 106, "channel": 0}, {"type": "note_off", "time": 74, "note": 65, "velocity": 106, "channel": 0}, {"type": "note_on", "time": 25, "note": 64, "velocity": 112, "channel": 0}, {"type": "note_off", "time": 72, "note": 64, "velocity": 112, "channel": 0}, {"type": "note_on", "time": 34, "note": 63, "velocity": 99, "channel": 0}, {"type": "note_off", "time": 55, "note": 63, "velocity": 99, "channel": 0}, {"type": "note_on", "time": 39, "note": 59, "velocity": 93, "channel": 0}, {"type": "note_off", "time": 61, "note": 59, "velocity": 93, "channel": 0}, {"type": "note_on", "time": 28, "note": 62, "velocity": 108, "channel": 0}, {"type": "note_off", "time": 56, "note": 62, "velocity": 108, "channel": 0}, {"type": "note_on", "time": 36, "note": 60, "velocity": 112, "channel": 0}, {"type": "note_off", "time": 72, "note": 60, "velocity": 112, "channel": 0}, {"type": "note_on", "time": 109, "note": 58, "velocity": 105, "channel": 0}, {"type": "note_off", "time": 75, "note": 58, "velocity": 105, "channel": 0}, {"type": "note_on", "time": 11, "note": 59, "velocity": 98, "channel": 0}, {"type": "note_off", "time": 88, "note": 59, "velocity": 98, "channel": 0}, {"type": "note_on", "time": 22, "note": 62, "velocity": 112, "channel": 0}, {"type": "note_off", "time": 85, "note": 62, "velocity": 112, "channel": 0}, {"type": "note_on", "time": 31, "note": 59, "velocity": 105, "channel": 0}, {"type": "note_off", "time": 60, "note": 59, "velocity": 105, "channel": 0}, {"type": "note_on", "time": 20, "note": 63, "velocity": 109, "channel": 0}, {"type": "note_off", "time": 86, "note": 63, "velocity": 109, "channel": 0}, {"type": "note_on", "time": 28, "note": 62, "velocity": 105, "channel": 0}, {"type": "note_off", "time": 88, "note": 62, "velocity": 105, "channel": 0}, {"type": "note_on", "time": 18, "note": 58, "velocity": 97, "channel": 0}, {"type": "note_off", "time": 67, "note": 58, "velocity": 97, "channel": 0}, {"type": "note_on", "time": 18, "note": 61, "velocity": 108, "channel": 0}, {"type": "note_off", "time": 69, "note": 61, "velocity": 108, "channel": 0}, {"type": "note_on", "time": 23, "note": 59, "velocity": 111, "channel": 0}, {"type": "note_off", "time": 85, "note": 59, "velocity": 111, "channel": 0}, {"type": "note_on", "time": 31, "note": 56, "velocity": 97, "channel": 0}, {"type": "note_off", "time": 66, "note": 56, "velocity": 97, "channel": 0}, {"type": "note_on", "time": 33, "note": 54, "velocity": 89, "channel": 0}, {"type": "note_off", "time": 44, "note": 54, "velocity": 89, "channel": 0}, {"type": "note_on", "time": 10, "note": 55, "velocity": 104, "channel": 0}, {"type": "note_off", "time": 112, "note": 55, "velocity": 104, "channel": 0}, {"type": "note_on", "time": 31, "note": 51, "velocity": 96, "channel": 0}, {"type": "note_off", "time": 48, "note": 51, "velocity": 96, "channel": 0}, {"type": "note_on", "time": 23, "note": 54, "velocity": 111, "channel": 0}, {"type": "note_off", "time": 102, "note": 54, "velocity": 111, "channel": 0}, {"type": "note_on", "time": 20, "note": 50, "velocity": 99, "channel": 0}, {"type": "note_off", "time": 45, "note": 50, "velocity": 99, "channel": 0}, {"type": "note_on", "time": 11, "note": 53, "velocity": 110, "channel": 0}, {"type": "note_off", "time": 93, "note": 53, "velocity": 110, "channel": 0}, {"type": "note_on", "time": 23, "note": 49, "velocity": 99, "channel": 0}, {"type": "note_off", "time": 45, "note": 49, "velocity": 99, "channel": 0}, {"type": "note_on", "time": 23, "note": 52, "velocity": 99, "channel": 0}, {"type": "note_off", "time": 104, "note": 52, "velocity": 99, "channel": 0}, {"type": "note_on", "time": 11, "note": 51, "velocity": 91, "channel": 0}, {"type": "note_off", "time": 53, "note": 51, "velocity": 91, "channel": 0}, {"type": "note_on", "time": 121, "note": 55, "velocity": 107, "channel": 0}, {"type": "note_off", "time": 80, "note": 55, "velocity": 107, "channel": 0}, {"type": "note_on", "time": 112, "note": 58, "velocity": 107, "channel": 0}, {"type": "note_off", "time": 94, "note": 58, "velocity": 107, "channel": 0}, {"type": "note_on", "time": 93, "note": 60, "velocity": 112, "channel": 0}, {"type": "note_off", "time": 93, "note": 60, "velocity": 112, "channel": 0}, {"type": "note_on", "time": 80, "note": 62, "velocity": 118, "channel": 0}, {"type": "note_off", "time": 112, "note": 62, "velocity": 118, "channel": 0}, {"type": "note_on", "time": 17, "note": 61, "velocity": 109, "channel": 0}, {"type": "note_off", "time": 75, "note": 61, "velocity": 109, "channel": 0}, {"type": "note_on", "time": 9, "note": 62, "velocity": 110, "channel": 0}, {"type": "note_off", "time": 44, "note": 62, "velocity": 110, "channel": 0}, {"type": "note_on", "time": 42, "note": 60, "velocity": 107, "channel": 0}, {"type": "note_off", "time": 91, "note": 60, "velocity": 107, "channel": 0}, {"type": "note_on", "time": 17, "note": 58, "velocity": 95, "channel": 0}, {"type": "note_off", "time": 48, "note": 58, "velocity": 95, "channel": 0}, {"type": "note_on", "time": 22, "note": 60, "velocity": 110, "channel": 0}, {"type": "note_off", "time": 71, "note": 60, "velocity": 110, "channel": 0}, {"type": "note_on", "time": 33, "note": 60, "velocity": 109, "channel": 0}, {"type": "note_off", "time": 63, "note": 60, "velocity": 109, "channel": 0}, {"type": "note_on", "time": 22, "note": 58, "velocity": 105, "channel": 0}, {"type": "note_off", "time": 101, "note": 58, "velocity": 105, "channel": 0}, {"type": "note_on", "time": 80, "note": 61, "velocity": 108, "channel": 0}, {"type": "note_off", "time": 56, "note": 61, "velocity": 108, "channel": 0}, {"type": "note_on", "time": 4, "note": 62, "velocity": 111, "channel": 0}, {"type": "note_off", "time": 93, "note": 62, "velocity": 111, "channel": 0}, {"type": "note_on", "time": 71, "note": 55, "velocity": 96, "channel": 0}, {"type": "note_off", "time": 63, "note": 55, "velocity": 96, "channel": 0}, {"type": "note_on", "time": 23, "note": 58, "velocity": 108, "channel": 0}, {"type": "note_off", "time": 93, "note": 58, "velocity": 108, "channel": 0}, {"type": "note_on", "time": 75, "note": 60, "velocity": 110, "channel": 0}, {"type": "note_off", "time": 88, "note": 60, "velocity": 110, "channel": 0}, {"type": "note_on", "time": 109, "note": 55, "velocity": 107, "channel": 0}, {"type": "note_off", "time": 96, "note": 55, "velocity": 107, "channel": 0}, {"type": "note_on", "time": 9, "note": 54, "velocity": 100, "channel": 0}, {"type": "note_off", "time": 74, "note": 54, "velocity": 100, "channel": 0}, {"type": "note_on", "time": 279, "note": 50, "velocity": 90, "channel": 0}, {"type": "note_off", "time": 85, "note": 50, "velocity": 90, "channel": 0}, {"type": "note_on", "time": 15, "note": 53, "velocity": 104, "channel": 0}, {"type": "note_off", "time": 79, "note": 53, "velocity": 104, "channel": 0}, {"type": "note_on", "time": 15, "note": 55, "velocity": 99, "channel": 0}, {"type": "note_off", "time": 86, "note": 55, "velocity": 99, "channel": 0}, {"type": "note_on", "time": 26, "note": 58, "velocity": 104, "channel": 0}, {"type": "note_off", "time": 79, "note": 58, "velocity": 104, "channel": 0}, {"type": "note_on", "time": 17, "note": 60, "velocity": 113, "channel": 0}, {"type": "note_off", "time": 56, "note": 60, "velocity": 113, "channel": 0}, {"type": "note_on", "time": 30, "note": 61, "velocity": 101, "channel": 0}, {"type": "note_off", "time": 71, "note": 61, "velocity": 101, "channel": 0}, {"type": "note_on", "time": 17, "note": 62, "velocity": 103, "channel": 0}, {"type": "note_off", "time": 99, "note": 62, "velocity": 103, "channel": 0}, {"type": "note_on", "time": 22, "note": 61, "velocity": 106, "channel": 0}, {"type": "note_off", "time": 77, "note": 61, "velocity": 106, "channel": 0}, {"type": "note_on", "time": 12, "note": 60, "velocity": 101, "channel": 0}, {"type": "note_off", "time": 74, "note": 60, "velocity": 101, "channel": 0}, {"type": "note_on", "time": 26, "note": 56, "velocity": 96, "channel": 0}, {"type": "note_off", "time": 75, "note": 56, "velocity": 96, "channel": 0}, {"type": "note_on", "time": 14, "note": 59, "velocity": 109, "channel": 0}, {"type": "note_off", "time": 107, "note": 59, "velocity": 109, "channel": 0}, {"type": "note_on", "time": 17, "note": 55, "velocity": 92, "channel": 0}, {"type": "note_off", "time": 63, "note": 55, "velocity": 92, "channel": 0}, {"type": "note_on", "time": 15, "note": 58, "velocity": 110, "channel": 0}, {"type": "note_off", "time": 85, "note": 58, "velocity": 110, "channel": 0}, {"type": "note_on", "time": 22, "note": 55, "velocity": 107, "channel": 0}, {"type": "note_off", "time": 50, "note": 55, "velocity": 107, "channel": 0}, {"type": "note_on", "time": 20, "note": 53, "velocity": 101, "channel": 0}, {"type": "note_off", "time": 56, "note": 53, "velocity": 101, "channel": 0}, {"type": "note_on", "time": 47, "note": 50, "velocity": 104, "channel": 0}, {"type": "note_off", "time": 107, "note": 50, "velocity": 104, "channel": 0}, {"type": "note_on", "time": 23, "note": 49, "velocity": 100, "channel": 0}, {"type": "note_off", "time": 63, "note": 49, "velocity": 100, "channel": 0}, {"type": "note_on", "time": 64, "note": 53, "velocity": 109, "channel": 0}, {"type": "note_off", "time": 94, "note": 53, "velocity": 109, "channel": 0}, {"type": "note_on", "time": 23, "note": 49, "velocity": 94, "channel": 0}, {"type": "note_off", "time": 56, "note": 49, "velocity": 94, "channel": 0}, {"type": "note_on", "time": 39, "note": 55, "velocity": 105, "channel": 0}, {"type": "note_off", "time": 118, "note": 55, "velocity": 105, "channel": 0}, {"type": "note_on", "time": 52, "note": 58, "velocity": 106, "channel": 0}, {"type": "note_off", "time": 158, "note": 58, "velocity": 106, "channel": 0}, {"type": "note_on", "time": 39, "note": 61, "velocity": 103, "channel": 0}, {"type": "note_off", "time": 86, "note": 61, "velocity": 103, "channel": 0}, {"type": "note_on", "time": 15, "note": 62, "velocity": 104, "channel": 0}, {"type": "note_off", "time": 61, "note": 62, "velocity": 104, "channel": 0}, {"type": "note_on", "time": 26, "note": 65, "velocity": 111, "channel": 0}, {"type": "note_off", "time": 97, "note": 65, "velocity": 111, "channel": 0}, {"type": "note_on", "time": 109, "note": 67, "velocity": 120, "channel": 0}, {"type": "note_off", "time": 129, "note": 67, "velocity": 120, "channel": 0}, {"type": "note_on", "time": 44, "note": 70, "velocity": 107, "channel": 0}, {"type": "note_off", "time": 148, "note": 70, "velocity": 107, "channel": 0}, {"type": "note_on", "time": 23, "note": 72, "velocity": 124, "channel": 0}, {"type": "note_off", "time": 42, "note": 72, "velocity": 124, "channel": 0}, {"type": "note_on", "time": 17, "note": 74, "velocity": 111, "channel": 0}, {"type": "note_off", "time": 55, "note": 74, "velocity": 111, "channel": 0}, {"type": "note_on", "time": 99, "note": 70, "velocity": 116, "channel": 0}, {"type": "note_off", "time": 139, "note": 70, "velocity": 116, "channel": 0}, {"type": "note_on", "time": 7, "note": 69, "velocity": 112, "channel": 0}, {"type": "note_off", "time": 89, "note": 69, "velocity": 112, "channel": 0}, {"type": "note_on", "time": 214, "note": 67, "velocity": 123, "channel": 0}, {"type": "note_off", "time": 99, "note": 67, "velocity": 123, "channel": 0}, {"type": "note_on", "time": 18, "note": 65, "velocity": 111, "channel": 0}, {"type": "note_off", "time": 61, "note": 65, "velocity": 111, "channel": 0}, {"type": "note_on", "time": 20, "note": 63, "velocity": 108, "channel": 0}, {"type": "note_off", "time": 79, "note": 63, "velocity": 108, "channel": 0}, {"type": "note_on", "time": 22, "note": 61, "velocity": 103, "channel": 0}, {"type": "note_off", "time": 82, "note": 61, "velocity": 103, "channel": 0}, {"type": "note_on", "time": 22, "note": 58, "velocity": 108, "channel": 0}, {"type": "note_off", "time": 74, "note": 58, "velocity": 108, "channel": 0}, {"type": "note_on", "time": 22, "note": 56, "velocity": 107, "channel": 0}, {"type": "note_off", "time": 82, "note": 56, "velocity": 107, "channel": 0}, {"type": "note_on", "time": 15, "note": 52, "velocity": 101, "channel": 0}, {"type": "note_off", "time": 63, "note": 52, "velocity": 101, "channel": 0}, {"type": "note_on", "time": 36, "note": 55, "velocity": 107, "channel": 0}, {"type": "note_off", "time": 72, "note": 55, "velocity": 107, "channel": 0}, {"type": "note_on", "time": 17, "note": 57, "velocity": 104, "channel": 0}, {"type": "note_off", "time": 75, "note": 57, "velocity": 104, "channel": 0}, {"type": "note_on", "time": 14, "note": 58, "velocity": 101, "channel": 0}, {"type": "note_off", "time": 69, "note": 58, "velocity": 101, "channel": 0}, {"type": "note_on", "time": 41, "note": 60, "velocity": 107, "channel": 0}, {"type": "note_off", "time": 66, "note": 60, "velocity": 107, "channel": 0}, {"type": "note_on", "time": 15, "note": 61, "velocity": 84, "channel": 0}, {"type": "note_off", "time": 67, "note": 61, "velocity": 84, "channel": 0}, {"type": "note_on", "time": 25, "note": 65, "velocity": 112, "channel": 0}, {"type": "note_off", "time": 85, "note": 65, "velocity": 112, "channel": 0}, {"type": "note_on", "time": 20, "note": 64, "velocity": 105, "channel": 0}, {"type": "note_off", "time": 86, "note": 64, "velocity": 105, "channel": 0}, {"type": "note_on", "time": 23, "note": 61, "velocity": 96, "channel": 0}, {"type": "note_off", "time": 47, "note": 61, "velocity": 96, "channel": 0}, {"type": "note_on", "time": 37, "note": 63, "velocity": 111, "channel": 0}, {"type": "note_off", "time": 69, "note": 63, "velocity": 111, "channel": 0}, {"type": "note_on", "time": 39, "note": 60, "velocity": 104, "channel": 0}, {"type": "note_off", "time": 66, "note": 60, "velocity": 104, "channel": 0}, {"type": "note_on", "time": 28, "note": 57, "velocity": 99, "channel": 0}, {"type": "note_off", "time": 56, "note": 57, "velocity": 99, "channel": 0}, {"type": "note_on", "time": 26, "note": 55, "velocity": 105, "channel": 0}, {"type": "note_off", "time": 86, "note": 55, "velocity": 105, "channel": 0}, {"type": "note_on", "time": 23, "note": 54, "velocity": 104, "channel": 0}, {"type": "note_off", "time": 72, "note": 54, "velocity": 104, "channel": 0}, {"type": "note_on", "time": 15, "note": 63, "velocity": 109, "channel": 0}, {"type": "note_off", "time": 112, "note": 63, "velocity": 109, "channel": 0}, {"type": "note_on", "time": 77, "note": 61, "velocity": 105, "channel": 0}, {"type": "note_off", "time": 60, "note": 61, "velocity": 105, "channel": 0}, {"type": "note_on", "time": 17, "note": 62, "velocity": 104, "channel": 0}, {"type": "note_off", "time": 104, "note": 62, "velocity": 104, "channel": 0}, {"type": "note_on", "time": 4, "note": 61, "velocity": 109, "channel": 0}, {"type": "note_off", "time": 66, "note": 61, "velocity": 109, "channel": 0}, {"type": "note_on", "time": 18, "note": 60, "velocity": 102, "channel": 0}, {"type": "note_off", "time": 72, "note": 60, "velocity": 102, "channel": 0}, {"type": "note_on", "time": 42, "note": 56, "velocity": 101, "channel": 0}, {"type": "note_off", "time": 50, "note": 56, "velocity": 101, "channel": 0}, {"type": "note_on", "time": 31, "note": 59, "velocity": 106, "channel": 0}, {"type": "note_off", "time": 85, "note": 59, "velocity": 106, "channel": 0}, {"type": "note_on", "time": 26, "note": 55, "velocity": 101, "channel": 0}, {"type": "note_off", "time": 63, "note": 55, "velocity": 101, "channel": 0}, {"type": "note_on", "time": 22, "note": 58, "velocity": 97, "channel": 0}, {"type": "note_off", "time": 82, "note": 58, "velocity": 97, "channel": 0}, {"type": "note_on", "time": 17, "note": 60, "velocity": 102, "channel": 0}, {"type": "note_off", "time": 58, "note": 60, "velocity": 102, "channel": 0}, {"type": "note_on", "time": 14, "note": 62, "velocity": 109, "channel": 0}, {"type": "note_off", "time": 110, "note": 62, "velocity": 109, "channel": 0}, {"type": "note_on", "time": 37, "note": 60, "velocity": 97, "channel": 0}, {"type": "note_off", "time": 72, "note": 60, "velocity": 97, "channel": 0}, {"type": "note_on", "time": 71, "note": 62, "velocity": 109, "channel": 0}, {"type": "note_off", "time": 67, "note": 62, "velocity": 109, "channel": 0}, {"type": "note_on", "time": 7, "note": 65, "velocity": 108, "channel": 0}, {"type": "note_off", "time": 75, "note": 65, "velocity": 108, "channel": 0}, {"type": "note_on", "time": 44, "note": 62, "velocity": 91, "channel": 0}, {"type": "note_off", "time": 71, "note": 62, "velocity": 91, "channel": 0}, {"type": "note_on", "time": 101, "note": 65, "velocity": 106, "channel": 0}, {"type": "note_off", "time": 67, "note": 65, "velocity": 106, "channel": 0}, {"type": "note_on", "time": 23, "note": 67, "velocity": 114, "channel": 0}, {"type": "note_off", "time": 93, "note": 67, "velocity": 114, "channel": 0}, {"type": "note_on", "time": 28, "note": 61, "velocity": 92, "channel": 0}, {"type": "note_off", "time": 72, "note": 61, "velocity": 92, "channel": 0}, {"type": "note_on", "time": 79, "note": 67, "velocity": 115, "channel": 0}, {"type": "note_off", "time": 74, "note": 67, "velocity": 115, "channel": 0}, {"type": "note_on", "time": 30, "note": 70, "velocity": 120, "channel": 0}, {"type": "note_off", "time": 128, "note": 70, "velocity": 120, "channel": 0}, {"type": "note_on", "time": 12, "note": 67, "velocity": 106, "channel": 0}, {"type": "note_off", "time": 113, "note": 67, "velocity": 106, "channel": 0}, {"type": "note_on", "time": 33, "note": 70, "velocity": 117, "channel": 0}, {"type": "note_off", "time": 75, "note": 70, "velocity": 117, "channel": 0}, {"type": "note_on", "time": 14, "note": 72, "velocity": 118, "channel": 0}, {"type": "note_off", "time": 131, "note": 72, "velocity": 118, "channel": 0}, {"type": "note_on", "time": 18, "note": 70, "velocity": 103, "channel": 0}, {"type": "note_off", "time": 110, "note": 70, "velocity": 103, "channel": 0}, {"type": "note_on", "time": 39, "note": 72, "velocity": 114, "channel": 0}, {"type": "note_off", "time": 83, "note": 72, "velocity": 114, "channel": 0}, {"type": "note_on", "time": 85, "note": 73, "velocity": 112, "channel": 0}, {"type": "note_off", "time": 64, "note": 73, "velocity": 112, "channel": 0}, {"type": "note_on", "time": 6, "note": 74, "velocity": 110, "channel": 0}, {"type": "note_off", "time": 82, "note": 74, "velocity": 110, "channel": 0}, {"type": "note_on", "time": 39, "note": 77, "velocity": 107, "channel": 0}, {"type": "note_off", "time": 116, "note": 77, "velocity": 107, "channel": 0}, {"type": "note_on", "time": 42, "note": 77, "velocity": 75, "channel": 0}, {"type": "note_off", "time": 118, "note": 77, "velocity": 75, "channel": 0}, {"type": "note_on", "time": 7, "note": 78, "velocity": 102, "channel": 0}, {"type": "note_off", "time": 20, "note": 78, "velocity": 102, "channel": 0}, {"type": "note_on", "time": 25, "note": 79, "velocity": 98, "channel": 0}, {"type": "note_off", "time": 79, "note": 79, "velocity": 98, "channel": 0}, {"type": "note_on", "time": 62, "note": 77, "velocity": 107, "channel": 0}, {"type": "note_off", "time": 267, "note": 77, "velocity": 107, "channel": 0}, {"type": "note_on", "time": 170, "note": 74, "velocity": 116, "channel": 0}, {"type": "note_off", "time": 101, "note": 74, "velocity": 116, "channel": 0}, {"type": "note_on", "time": 52, "note": 74, "velocity": 116, "channel": 0}, {"type": "note_off", "time": 112, "note": 74, "velocity": 116, "channel": 0}, {"type": "note_on", "time": 56, "note": 74, "velocity": 92, "channel": 0}, {"type": "note_off", "time": 80, "note": 74, "velocity": 92, "channel": 0}, {"type": "note_on", "time": 37, "note": 74, "velocity": 103, "channel": 0}, {"type": "note_off", "time": 156, "note": 74, "velocity": 103, "channel": 0}, {"type": "note_on", "time": 75, "note": 74, "velocity": 115, "channel": 0}, {"type": "note_off", "time": 113, "note": 74, "velocity": 115, "channel": 0}, {"type": "note_on", "time": 44, "note": 74, "velocity": 122, "channel": 0}, {"type": "note_off", "time": 93, "note": 74, "velocity": 122, "channel": 0}, {"type": "note_on", "time": 18, "note": 72, "velocity": 125, "channel": 0}, {"type": "note_off", "time": 58, "note": 72, "velocity": 125, "channel": 0}, {"type": "note_on", "time": 9, "note": 73, "velocity": 112, "channel": 0}, {"type": "note_off", "time": 18, "note": 73, "velocity": 112, "channel": 0}, {"type": "note_on", "time": 9, "note": 75, "velocity": 97, "channel": 0}, {"type": "note_off", "time": 53, "note": 75, "velocity": 97, "channel": 0}, {"type": "note_on", "time": 30, "note": 74, "velocity": 118, "channel": 0}, {"type": "note_off", "time": 150, "note": 74, "velocity": 118, "channel": 0}, {"type": "note_on", "time": 222, "note": 74, "velocity": 119, "channel": 0}, {"type": "note_off", "time": 86, "note": 74, "velocity": 119, "channel": 0}, {"type": "note_on", "time": 48, "note": 74, "velocity": 95, "channel": 0}, {"type": "note_off", "time": 140, "note": 74, "velocity": 95, "channel": 0}, {"type": "note_on", "time": 56, "note": 74, "velocity": 109, "channel": 0}, {"type": "note_off", "time": 126, "note": 74, "velocity": 109, "channel": 0}, {"type": "note_on", "time": 30, "note": 74, "velocity": 111, "channel": 0}, {"type": "note_off", "time": 145, "note": 74, "velocity": 111, "channel": 0}, {"type": "note_on", "time": 42, "note": 74, "velocity": 116, "channel": 0}, {"type": "note_off", "time": 97, "note": 74, "velocity": 116, "channel": 0}, {"type": "note_on", "time": 53, "note": 74, "velocity": 101, "channel": 0}, {"type": "note_off", "time": 107, "note": 74, "velocity": 101, "channel": 0}, {"type": "note_on", "time": 34, "note": 72, "velocity": 109, "channel": 0}, {"type": "note_off", "time": 47, "note": 72, "velocity": 109, "channel": 0}, {"type": "note_on", "time": 28, "note": 74, "velocity": 83, "channel": 0}, {"type": "note_off", "time": 164, "note": 74, "velocity": 83, "channel": 0}, {"type": "note_on", "time": 28, "note": 74, "velocity": 106, "channel": 0}, {"type": "note_off", "time": 94, "note": 74, "velocity": 106, "channel": 0}, {"type": "note_on", "time": 63, "note": 72, "velocity": 108, "channel": 0}, {"type": "note_off", "time": 67, "note": 72, "velocity": 108, "channel": 0}, {"type": "note_on", "time": 13, "note": 74, "velocity": 92, "channel": 0}, {"type": "note_off", "time": 89, "note": 74, "velocity": 92, "channel": 0}, {"type": "note_on", "time": 92, "note": 74, "velocity": 109, "channel": 0}, {"type": "note_off", "time": 94, "note": 74, "velocity": 109, "channel": 0}, {"type": "note_on", "time": 69, "note": 74, "velocity": 110, "channel": 0}, {"type": "note_off", "time": 67, "note": 74, "velocity": 110, "channel": 0}, {"type": "note_on", "time": 20, "note": 72, "velocity": 95, "channel": 0}, {"type": "note_off", "time": 42, "note": 72, "velocity": 95, "channel": 0}, {"type": "note_on", "time": 58, "note": 74, "velocity": 96, "channel": 0}, {"type": "note_off", "time": 110, "note": 74, "velocity": 96, "channel": 0}, {"type": "note_on", "time": 85, "note": 72, "velocity": 70, "channel": 0}, {"type": "note_off", "time": 83, "note": 72, "velocity": 70, "channel": 0}, {"type": "note_on", "time": 24, "note": 74, "velocity": 97, "channel": 0}, {"type": "note_off", "time": 49, "note": 74, "velocity": 97, "channel": 0}, {"type": "note_on", "time": 96, "note": 74, "velocity": 108, "channel": 0}, {"type": "note_off", "time": 92, "note": 74, "velocity": 108, "channel": 0}, {"type": "note_on", "time": 38, "note": 72, "velocity": 109, "channel": 0}, {"type": "note_off", "time": 60, "note": 72, "velocity": 109, "channel": 0}, {"type": "note_on", "time": 44, "note": 74, "velocity": 100, "channel": 0}, {"type": "note_off", "time": 123, "note": 74, "velocity": 100, "channel": 0}, {"type": "note_on", "time": 123, "note": 74, "velocity": 107, "channel": 0}, {"type": "note_off", "time": 139, "note": 74, "velocity": 107, "channel": 0}, {"type": "note_on", "time": 42, "note": 74, "velocity": 9, "channel": 0}, {"type": "note_off", "time": 168, "note": 74, "velocity": 9, "channel": 0}, {"type": "note_on", "time": 69, "note": 74, "velocity": 109, "channel": 0}, {"type": "note_off", "time": 69, "note": 74, "velocity": 109, "channel": 0}, {"type": "note_on", "time": 40, "note": 78, "velocity": 70, "channel": 0}, {"type": "note_off", "time": 31, "note": 78, "velocity": 70, "channel": 0}, {"type": "note_on", "time": 13, "note": 79, "velocity": 107, "channel": 0}, {"type": "note_off", "time": 114, "note": 79, "velocity": 107, "channel": 0}, {"type": "note_on", "time": 69, "note": 80, "velocity": 111, "channel": 0}, {"type": "note_off", "time": 150, "note": 80, "velocity": 111, "channel": 0}, {"type": "note_on", "time": 40, "note": 79, "velocity": 105, "channel": 0}, {"type": "note_off", "time": 148, "note": 79, "velocity": 105, "channel": 0}, {"type": "note_on", "time": 58, "note": 77, "velocity": 119, "channel": 0}, {"type": "note_off", "time": 141, "note": 77, "velocity": 119, "channel": 0}, {"type": "note_on", "time": 17, "note": 77, "velocity": 112, "channel": 0}, {"type": "note_off", "time": 238, "note": 77, "velocity": 112, "channel": 0}, {"type": "note_on", "time": 42, "note": 75, "velocity": 111, "channel": 0}, {"type": "note_off", "time": 125, "note": 75, "velocity": 111, "channel": 0}, {"type": "note_on", "time": 58, "note": 75, "velocity": 118, "channel": 0}, {"type": "note_off", "time": 139, "note": 75, "velocity": 118, "channel": 0}, {"type": "note_on", "time": 23, "note": 74, "velocity": 115, "channel": 0}, {"type": "note_off", "time": 91, "note": 74, "velocity": 115, "channel": 0}, {"type": "note_on", "time": 69, "note": 72, "velocity": 110, "channel": 0}, {"type": "note_off", "time": 80, "note": 72, "velocity": 110, "channel": 0}, {"type": "note_on", "time": 26, "note": 71, "velocity": 101, "channel": 0}, {"type": "note_off", "time": 148, "note": 71, "velocity": 101, "channel": 0}, {"type": "note_on", "time": 197, "note": 70, "velocity": 118, "channel": 0}, {"type": "note_off", "time": 101, "note": 70, "velocity": 118, "channel": 0}, {"type": "note_on", "time": 15, "note": 67, "velocity": 108, "channel": 0}, {"type": "note_off", "time": 55, "note": 67, "velocity": 108, "channel": 0}, {"type": "note_on", "time": 15, "note": 69, "velocity": 113, "channel": 0}, {"type": "note_off", "time": 47, "note": 69, "velocity": 113, "channel": 0}, {"type": "note_on", "time": 25, "note": 72, "velocity": 124, "channel": 0}, {"type": "note_off", "time": 99, "note": 72, "velocity": 124, "channel": 0}, {"type": "note_on", "time": 26, "note": 69, "velocity": 118, "channel": 0}, {"type": "note_off", "time": 64, "note": 69, "velocity": 118, "channel": 0}, {"type": "note_on", "time": 14, "note": 68, "velocity": 123, "channel": 0}, {"type": "note_off", "time": 83, "note": 68, "velocity": 123, "channel": 0}, {"type": "note_on", "time": 15, "note": 67, "velocity": 108, "channel": 0}, {"type": "note_off", "time": 90, "note": 67, "velocity": 108, "channel": 0}, {"type": "note_on", "time": 12, "note": 68, "velocity": 95, "channel": 0}, {"type": "note_off", "time": 60, "note": 68, "velocity": 95, "channel": 0}, {"type": "note_on", "time": 17, "note": 66, "velocity": 120, "channel": 0}, {"type": "note_off", "time": 83, "note": 66, "velocity": 120, "channel": 0}, {"type": "note_on", "time": 34, "note": 65, "velocity": 106, "channel": 0}, {"type": "note_off", "time": 44, "note": 65, "velocity": 106, "channel": 0}, {"type": "note_on", "time": 42, "note": 62, "velocity": 99, "channel": 0}, {"type": "note_off", "time": 56, "note": 62, "velocity": 99, "channel": 0}, {"type": "note_on", "time": 12, "note": 60, "velocity": 112, "channel": 0}, {"type": "note_off", "time": 71, "note": 60, "velocity": 112, "channel": 0}, {"type": "note_on", "time": 31, "note": 57, "velocity": 106, "channel": 0}, {"type": "note_off", "time": 93, "note": 57, "velocity": 106, "channel": 0}, {"type": "note_on", "time": 18, "note": 53, "velocity": 105, "channel": 0}, {"type": "note_off", "time": 47, "note": 53, "velocity": 105, "channel": 0}, {"type": "note_on", "time": 22, "note": 56, "velocity": 113, "channel": 0}, {"type": "note_off", "time": 82, "note": 56, "velocity": 113, "channel": 0}, {"type": "note_on", "time": 14, "note": 58, "velocity": 108, "channel": 0}, {"type": "note_off", "time": 63, "note": 58, "velocity": 108, "channel": 0}, {"type": "note_on", "time": 14, "note": 59, "velocity": 106, "channel": 0}, {"type": "note_off", "time": 72, "note": 59, "velocity": 106, "channel": 0}, {"type": "note_on", "time": 30, "note": 61, "velocity": 106, "channel": 0}, {"type": "note_off", "time": 45, "note": 61, "velocity": 106, "channel": 0}, {"type": "note_on", "time": 39, "note": 63, "velocity": 104, "channel": 0}, {"type": "note_off", "time": 80, "note": 63, "velocity": 104, "channel": 0}, {"type": "note_on", "time": 20, "note": 66, "velocity": 111, "channel": 0}, {"type": "note_off", "time": 63, "note": 66, "velocity": 111, "channel": 0}, {"type": "note_on", "time": 34, "note": 70, "velocity": 118, "channel": 0}, {"type": "note_off", "time": 79, "note": 70, "velocity": 118, "channel": 0}, {"type": "note_on", "time": 15, "note": 71, "velocity": 116, "channel": 0}, {"type": "note_off", "time": 80, "note": 71, "velocity": 116, "channel": 0}, {"type": "note_on", "time": 11, "note": 72, "velocity": 112, "channel": 0}, {"type": "note_off", "time": 97, "note": 72, "velocity": 112, "channel": 0}, {"type": "note_on", "time": 17, "note": 71, "velocity": 125, "channel": 0}, {"type": "note_off", "time": 91, "note": 71, "velocity": 125, "channel": 0}, {"type": "note_on", "time": 17, "note": 70, "velocity": 119, "channel": 0}, {"type": "note_off", "time": 58, "note": 70, "velocity": 119, "channel": 0}, {"type": "note_on", "time": 28, "note": 69, "velocity": 124, "channel": 0}, {"type": "note_off", "time": 74, "note": 69, "velocity": 124, "channel": 0}, {"type": "note_on", "time": 6, "note": 68, "velocity": 100, "channel": 0}, {"type": "note_off", "time": 79, "note": 68, "velocity": 100, "channel": 0}, {"type": "note_on", "time": 30, "note": 67, "velocity": 127, "channel": 0}, {"type": "note_off", "time": 90, "note": 67, "velocity": 127, "channel": 0}, {"type": "note_on", "time": 17, "note": 66, "velocity": 109, "channel": 0}, {"type": "note_off", "time": 77, "note": 66, "velocity": 109, "channel": 0}, {"type": "note_on", "time": 23, "note": 63, "velocity": 93, "channel": 0}, {"type": "note_off", "time": 60, "note": 63, "velocity": 93, "channel": 0}, {"type": "note_on", "time": 17, "note": 65, "velocity": 118, "channel": 0}, {"type": "note_off", "time": 79, "note": 65, "velocity": 118, "channel": 0}, {"type": "note_on", "time": 20, "note": 64, "velocity": 113, "channel": 0}, {"type": "note_off", "time": 86, "note": 64, "velocity": 113, "channel": 0}, {"type": "note_on", "time": 20, "note": 61, "velocity": 99, "channel": 0}, {"type": "note_off", "time": 60, "note": 61, "velocity": 99, "channel": 0}, {"type": "note_on", "time": 22, "note": 59, "velocity": 114, "channel": 0}, {"type": "note_off", "time": 80, "note": 59, "velocity": 114, "channel": 0}, {"type": "note_on", "time": 22, "note": 56, "velocity": 107, "channel": 0}, {"type": "note_off", "time": 71, "note": 56, "velocity": 107, "channel": 0}, {"type": "note_on", "time": 20, "note": 52, "velocity": 104, "channel": 0}, {"type": "note_off", "time": 67, "note": 52, "velocity": 104, "channel": 0}, {"type": "note_on", "time": 26, "note": 55, "velocity": 99, "channel": 0}, {"type": "note_off", "time": 66, "note": 55, "velocity": 99, "channel": 0}, {"type": "note_on", "time": 15, "note": 57, "velocity": 104, "channel": 0}, {"type": "note_off", "time": 80, "note": 57, "velocity": 104, "channel": 0}, {"type": "note_on", "time": 12, "note": 58, "velocity": 103, "channel": 0}, {"type": "note_off", "time": 64, "note": 58, "velocity": 103, "channel": 0}, {"type": "note_on", "time": 12, "note": 60, "velocity": 103, "channel": 0}, {"type": "note_off", "time": 71, "note": 60, "velocity": 103, "channel": 0}, {"type": "note_on", "time": 17, "note": 61, "velocity": 100, "channel": 0}, {"type": "note_off", "time": 64, "note": 61, "velocity": 100, "channel": 0}, {"type": "note_on", "time": 41, "note": 65, "velocity": 105, "channel": 0}, {"type": "note_off", "time": 72, "note": 65, "velocity": 105, "channel": 0}, {"type": "note_on", "time": 15, "note": 68, "velocity": 117, "channel": 0}, {"type": "note_off", "time": 80, "note": 68, "velocity": 117, "channel": 0}, {"type": "note_on", "time": 18, "note": 69, "velocity": 117, "channel": 0}, {"type": "note_off", "time": 85, "note": 69, "velocity": 117, "channel": 0}, {"type": "note_on", "time": 14, "note": 70, "velocity": 109, "channel": 0}, {"type": "note_off", "time": 97, "note": 70, "velocity": 109, "channel": 0}, {"type": "note_on", "time": 1, "note": 69, "velocity": 119, "channel": 0}, {"type": "note_off", "time": 109, "note": 69, "velocity": 119, "channel": 0}, {"type": "note_on", "time": 18, "note": 68, "velocity": 116, "channel": 0}, {"type": "note_off", "time": 34, "note": 68, "velocity": 116, "channel": 0}, {"type": "note_on", "time": 7, "note": 67, "velocity": 101, "channel": 0}, {"type": "note_off", "time": 105, "note": 67, "velocity": 101, "channel": 0}, {"type": "note_on", "time": 12, "note": 66, "velocity": 101, "channel": 0}, {"type": "note_off", "time": 66, "note": 66, "velocity": 101, "channel": 0}, {"type": "note_on", "time": 22, "note": 65, "velocity": 111, "channel": 0}, {"type": "note_off", "time": 101, "note": 65, "velocity": 111, "channel": 0}, {"type": "note_on", "time": 6, "note": 64, "velocity": 104, "channel": 0}, {"type": "note_off", "time": 77, "note": 64, "velocity": 104, "channel": 0}, {"type": "note_on", "time": 26, "note": 61, "velocity": 101, "channel": 0}, {"type": "note_off", "time": 53, "note": 61, "velocity": 101, "channel": 0}, {"type": "note_on", "time": 11, "note": 63, "velocity": 114, "channel": 0}, {"type": "note_off", "time": 96, "note": 63, "velocity": 114, "channel": 0}, {"type": "note_on", "time": 30, "note": 57, "velocity": 103, "channel": 0}, {"type": "note_off", "time": 60, "note": 57, "velocity": 103, "channel": 0}, {"type": "note_on", "time": 18, "note": 60, "velocity": 99, "channel": 0}, {"type": "note_off", "time": 71, "note": 60, "velocity": 99, "channel": 0}, {"type": "note_on", "time": 31, "note": 63, "velocity": 117, "channel": 0}, {"type": "note_off", "time": 82, "note": 63, "velocity": 117, "channel": 0}, {"type": "note_on", "time": 14, "note": 64, "velocity": 113, "channel": 0}, {"type": "note_off", "time": 52, "note": 64, "velocity": 113, "channel": 0}, {"type": "note_on", "time": 25, "note": 58, "velocity": 100, "channel": 0}, {"type": "note_off", "time": 60, "note": 58, "velocity": 100, "channel": 0}, {"type": "note_on", "time": 37, "note": 61, "velocity": 100, "channel": 0}, {"type": "note_off", "time": 83, "note": 61, "velocity": 100, "channel": 0}, {"type": "note_on", "time": 20, "note": 64, "velocity": 119, "channel": 0}, {"type": "note_off", "time": 85, "note": 64, "velocity": 119, "channel": 0}, {"type": "note_on", "time": 11, "note": 65, "velocity": 113, "channel": 0}, {"type": "note_off", "time": 79, "note": 65, "velocity": 113, "channel": 0}, {"type": "note_on", "time": 20, "note": 59, "velocity": 102, "channel": 0}, {"type": "note_off", "time": 63, "note": 59, "velocity": 102, "channel": 0}, {"type": "note_on", "time": 25, "note": 62, "velocity": 101, "channel": 0}, {"type": "note_off", "time": 74, "note": 62, "velocity": 101, "channel": 0}, {"type": "note_on", "time": 37, "note": 65, "velocity": 113, "channel": 0}, {"type": "note_off", "time": 66, "note": 65, "velocity": 113, "channel": 0}, {"type": "note_on", "time": 15, "note": 66, "velocity": 113, "channel": 0}, {"type": "note_off", "time": 63, "note": 66, "velocity": 113, "channel": 0}, {"type": "note_on", "time": 34, "note": 60, "velocity": 105, "channel": 0}, {"type": "note_off", "time": 58, "note": 60, "velocity": 105, "channel": 0}, {"type": "note_on", "time": 30, "note": 63, "velocity": 99, "channel": 0}, {"type": "note_off", "time": 83, "note": 63, "velocity": 99, "channel": 0}, {"type": "note_on", "time": 12, "note": 66, "velocity": 102, "channel": 0}, {"type": "note_off", "time": 64, "note": 66, "velocity": 102, "channel": 0}, {"type": "note_on", "time": 37, "note": 69, "velocity": 123, "channel": 0}, {"type": "note_off", "time": 93, "note": 69, "velocity": 123, "channel": 0}, {"type": "note_on", "time": 23, "note": 67, "velocity": 113, "channel": 0}, {"type": "note_off", "time": 55, "note": 67, "velocity": 113, "channel": 0}, {"type": "note_on", "time": 15, "note": 69, "velocity": 114, "channel": 0}, {"type": "note_off", "time": 101, "note": 69, "velocity": 114, "channel": 0}, {"type": "note_on", "time": 12, "note": 69, "velocity": 122, "channel": 0}, {"type": "note_off", "time": 75, "note": 69, "velocity": 122, "channel": 0}, {"type": "note_on", "time": 20, "note": 67, "velocity": 121, "channel": 0}, {"type": "note_off", "time": 91, "note": 67, "velocity": 121, "channel": 0}, {"type": "note_on", "time": 18, "note": 64, "velocity": 91, "channel": 0}, {"type": "note_off", "time": 33, "note": 64, "velocity": 91, "channel": 0}, {"type": "note_on", "time": 17, "note": 66, "velocity": 121, "channel": 0}, {"type": "note_off", "time": 83, "note": 66, "velocity": 121, "channel": 0}, {"type": "note_on", "time": 23, "note": 63, "velocity": 108, "channel": 0}, {"type": "note_off", "time": 80, "note": 63, "velocity": 108, "channel": 0}, {"type": "note_on", "time": 7, "note": 62, "velocity": 103, "channel": 0}, {"type": "note_off", "time": 66, "note": 62, "velocity": 103, "channel": 0}, {"type": "note_on", "time": 45, "note": 58, "velocity": 104, "channel": 0}, {"type": "note_off", "time": 61, "note": 58, "velocity": 104, "channel": 0}, {"type": "note_on", "time": 22, "note": 57, "velocity": 102, "channel": 0}, {"type": "note_off", "time": 56, "note": 57, "velocity": 102, "channel": 0}, {"type": "note_on", "time": 36, "note": 55, "velocity": 102, "channel": 0}, {"type": "note_off", "time": 61, "note": 55, "velocity": 102, "channel": 0}, {"type": "note_on", "time": 15, "note": 54, "velocity": 105, "channel": 0}, {"type": "note_off", "time": 67, "note": 54, "velocity": 105, "channel": 0}, {"type": "note_on", "time": 12, "note": 51, "velocity": 113, "channel": 0}, {"type": "note_off", "time": 72, "note": 51, "velocity": 113, "channel": 0}, {"type": "note_on", "time": 22, "note": 50, "velocity": 107, "channel": 0}, {"type": "note_off", "time": 86, "note": 50, "velocity": 107, "channel": 0}, {"type": "note_on", "time": 30, "note": 48, "velocity": 105, "channel": 0}, {"type": "note_off", "time": 79, "note": 48, "velocity": 105, "channel": 0}, {"type": "note_on", "time": 18, "note": 46, "velocity": 104, "channel": 0}, {"type": "note_off", "time": 116, "note": 46, "velocity": 104, "channel": 0}, {"type": "note_on", "time": 39, "note": 48, "velocity": 103, "channel": 0}, {"type": "note_off", "time": 64, "note": 48, "velocity": 103, "channel": 0}, {"type": "note_on", "time": 36, "note": 50, "velocity": 105, "channel": 0}, {"type": "note_off", "time": 162, "note": 50, "velocity": 105, "channel": 0}, {"type": "note_on", "time": 42, "note": 53, "velocity": 108, "channel": 0}, {"type": "note_off", "time": 159, "note": 53, "velocity": 108, "channel": 0}, {"type": "note_on", "time": 225, "note": 58, "velocity": 110, "channel": 0}, {"type": "note_off", "time": 121, "note": 58, "velocity": 110, "channel": 0}, {"type": "note_on", "time": 55, "note": 60, "velocity": 101, "channel": 0}, {"type": "note_off", "time": 162, "note": 60, "velocity": 101, "channel": 0}, {"type": "note_on", "time": 44, "note": 62, "velocity": 104, "channel": 0}, {"type": "note_off", "time": 145, "note": 62, "velocity": 104, "channel": 0}, {"type": "note_on", "time": 20, "note": 65, "velocity": 114, "channel": 0}, {"type": "note_off", "time": 180, "note": 65, "velocity": 114, "channel": 0}, {"type": "note_on", "time": 25, "note": 67, "velocity": 110, "channel": 0}, {"type": "note_off", "time": 67, "note": 67, "velocity": 110, "channel": 0}, {"type": "note_on", "time": 33, "note": 69, "velocity": 95, "channel": 0}, {"type": "note_off", "time": 63, "note": 69, "velocity": 95, "channel": 0}, {"type": "note_on", "time": 20, "note": 70, "velocity": 122, "channel": 0}, {"type": "note_off", "time": 135, "note": 70, "velocity": 122, "channel": 0}, {"type": "note_on", "time": 75, "note": 60, "velocity": 101, "channel": 0}, {"type": "note_off", "time": 90, "note": 60, "velocity": 101, "channel": 0}, {"type": "note_on", "time": 77, "note": 60, "velocity": 108, "channel": 0}, {"type": "note_off", "time": 90, "note": 60, "velocity": 108, "channel": 0}, {"type": "note_on", "time": 17, "note": 59, "velocity": 102, "channel": 0}, {"type": "note_off", "time": 48, "note": 59, "velocity": 102, "channel": 0}, {"type": "note_on", "time": 281, "note": 60, "velocity": 87, "channel": 0}, {"type": "note_off", "time": 36, "note": 60, "velocity": 87, "channel": 0}, {"type": "note_on", "time": 9, "note": 61, "velocity": 114, "channel": 0}, {"type": "note_off", "time": 44, "note": 61, "velocity": 114, "channel": 0}, {"type": "note_on", "time": 14, "note": 60, "velocity": 105, "channel": 0}, {"type": "note_off", "time": 52, "note": 60, "velocity": 105, "channel": 0}, {"type": "note_on", "time": 80, "note": 53, "velocity": 84, "channel": 0}, {"type": "note_off", "time": 94, "note": 53, "velocity": 84, "channel": 0}, {"type": "note_on", "time": 34, "note": 55, "velocity": 94, "channel": 0}, {"type": "note_off", "time": 221, "note": 55, "velocity": 94, "channel": 0}, {"type": "note_on", "time": 72, "note": 58, "velocity": 83, "channel": 0}, {"type": "note_off", "time": 276, "note": 58, "velocity": 83, "channel": 0}, {"type": "end_of_track", "time": 0}]]}