{"ticks_per_beat": 192, "tracks": [[{"type": "track_name", "name": "Melody", "time": 0}, {"type": "set_tempo", "tempo": 397350, "time": 0}, {"type": "key_signature", "key": "Ab", "time": 0}, {"type": "time_signature", "numerator": 4, "denominator": 4, "clocks_per_click": 24, "notated_32nd_notes_per_beat": 8, "time": 0}, {"type": "note_on", "time": 1438, "note": 67, "velocity": 120, "channel": 0}, {"type": "note_off", "time": 85, "note": 67, "velocity": 120, "channel": 0}, {"type": "note_on", "time": 9, "note": 68, "velocity": 118, "channel": 0}, {"type": "note_off", "time": 89, "note": 68, "velocity": 118, "channel": 0}, {"type": "note_on", "time": 9, "note": 65, "velocity": 120, "channel": 0}, {"type": "note_off", "time": 79, "note": 65, "velocity": 120, "channel": 0}, {"type": "note_on", "time": 4, "note": 67, "velocity": 119, "channel": 0}, {"type": "note_off", "time": 88, "note": 67, "velocity": 119, "channel": 0}, {"type": "note_on", "time": 21, "note": 68, "velocity": 118, "channel": 0}, {"type": "note_off", "time": 82, "note": 68, "velocity": 118, "channel": 0}, {"type": "note_on", "time": 8, "note": 70, "velocity": 111, "channel": 0}, {"type": "note_off", "time": 81, "note": 70, "velocity": 111, "channel": 0}, {"type": "note_on", "time": 23, "note": 68, "velocity": 117, "channel": 0}, {"type": "note_off", "time": 72, "note": 68, "velocity": 117, "channel": 0}, {"type": "note_on", "time": 17, "note": 67, "velocity": 98, "channel": 0}, {"type": "note_off", "time": 647, "note": 67, "velocity": 98, "channel": 0}, {"type": "note_on", "time": 455, "note": 72, "velocity": 113, "channel": 0}, {"type": "note_off", "time": 82, "note": 72, "velocity": 113, "channel": 0}, {"type": "note_on", "time": 64, "note": 67, "velocity": 117, "channel": 0}, {"type": "note_off", "time": 75, "note": 67, "velocity": 117, "channel": 0}, {"type": "note_on", "time": 14, "note": 69, "velocity": 117, "channel": 0}, {"type": "note_off", "time": 37, "note": 69, "velocity": 117, "channel": 0}, {"type": "note_on", "time": 6, "note": 70, "velocity": 113, "channel": 0}, {"type": "note_off", "time": 475, "note": 70, "velocity": 113, "channel": 0}, {"type": "note_on", "time": 5, "note": 68, "velocity": 110, "channel": 0}, {"type": "note_off", "time": 27, "note": 68, "velocity": 110, "channel": 0}, {"type": "note_on", "time": 12, "note": 67, "velocity": 120, "channel": 0}, {"type": "note_off", "time": 41, "note": 67, "velocity": 120, "channel": 0}, {"type": "note_on", "time": 8, "note": 65, "velocity": 117, "channel": 0}, {"type": "note_off", "time": 88, "note": 65, "velocity": 117, "channel": 0}, {"type": "note_on", "time": 2, "note": 67, "velocity": 97, "channel": 0}, {"type": "note_off", "time": 292, "note": 67, "velocity": 97, "channel": 0}, {"type": "note_on", "time": 373, "note": 65, "velocity": 126, "channel": 0}, {"type": "note_off", "time": 85, "note": 65, "velocity": 126, "channel": 0}, {"type": "note_on", "time": 10, "note": 67, "velocity": 121, "channel": 0}, {"type": "note_off", "time": 88, "note": 67, "velocity": 121, "channel": 0}, {"type": "note_on", "time": 7, "note": 68, "velocity": 112, "channel": 0}, {"type": "note_off", "time": 476, "note": 68, "velocity": 112, "channel": 0}, {"type": "note_on", "time": 23, "note": 77, "velocity": 123, "channel": 0}, {"type": "note_off", "time": 89, "note": 77, "velocity": 123, "channel": 0}, {"type": "note_on", "time": 60, "note": 65, "velocity": 121, "channel": 0}, {"type": "note_off", "time": 78, "note": 65, "velocity": 121, "channel": 0}, {"type": "note_on", "time": 21, "note": 68, "velocity": 118, "channel": 0}, {"type": "note_off", "time": 159, "note": 68, "velocity": 118, "channel": 0}, {"type": "note_on", "time": 13, "note": 70, "velocity": 110, "channel": 0}, {"type": "note_off", "time": 119, "note": 70, "velocity": 110, "channel": 0}, {"type": "note_on", "time": 15, "note": 67, "velocity": 113, "channel": 0}, {"type": "note_off", "time": 256, "note": 67, "velocity": 113, "channel": 0}, {"type": "note_on", "time": 23, "note": 77, "velocity": 119, "channel": 0}, {"type": "note_off", "time": 177, "note": 77, "velocity": 119, "channel": 0}, {"type": "note_on", "time": 9, "note": 75, "velocity": 100, "channel": 0}, {"type": "note_off", "time": 230, "note": 75, "velocity": 100, "channel": 0}, {"type": "note_on", "time": 944, "note": 79, "velocity": 116, "channel": 0}, {"type": "note_off", "time": 81, "note": 79, "velocity": 116, "channel": 0}, {"type": "note_on", "time": 15, "note": 77, "velocity": 123, "channel": 0}, {"type": "note_off", "time": 79, "note": 77, "velocity": 123, "channel": 0}, {"type": "note_on", "time": 18, "note": 75, "velocity": 119, "channel": 0}, {"type": "note_off", "time": 83, "note": 75, "velocity": 119, "channel": 0}, {"type": "note_on", "time": 14, "note": 72, "velocity": 114, "channel": 0}, {"type": "note_off", "time": 70, "note": 72, "velocity": 114, "channel": 0}, {"type": "note_on", "time": 16, "note": 73, "velocity": 116, "channel": 0}, {"type": "note_off", "time": 96, "note": 73, "velocity": 116, "channel": 0}, {"type": "note_on", "time": 12, "note": 75, "velocity": 121, "channel": 0}, {"type": "note_off", "time": 71, "note": 75, "velocity": 121, "channel": 0}, {"type": "note_on", "time": 15, "note": 72, "velocity": 112, "channel": 0}, {"type": "note_off", "time": 93, "note": 72, "velocity": 112, "channel": 0}, {"type": "note_on", "time": 10, "note": 70, "velocity": 102, "channel": 0}, {"type": "note_off", "time": 63, "note": 70, "velocity": 102, "channel": 0}, {"type": "note_on", "time": 18, "note": 73, "velocity": 114, "channel": 0}, {"type": "note_off", "time": 165, "note": 73, "velocity": 114, "channel": 0}, {"type": "note_on", "time": 16, "note": 72, "velocity": 112, "channel": 0}, {"type": "note_off", "time": 106, "note": 72, "velocity": 112, "channel": 0}, {"type": "note_on", "time": 21, "note": 70, "velocity": 105, "channel": 0}, {"type": "note_off", "time": 241, "note": 70, "velocity": 105, "channel": 0}, {"type": "note_on", "time": 16, "note": 66, "velocity": 115, "channel": 0}, {"type": "note_off", "time": 82, "note": 66, "velocity": 115, "channel": 0}, {"type": "note_on", "time": 23, "note": 67, "velocity": 119, "channel": 0}, {"type": "note_off", "time": 82, "note": 67, "velocity": 119, "channel": 0}, {"type": "note_on", "time": 12, "note": 68, "velocity": 119, "channel": 0}, {"type": "note_off", "time": 72, "note": 68, "velocity": 119, "channel": 0}, {"type": "note_on", "time": 18, "note": 70, "velocity": 113, "channel": 0}, {"type": "note_off", "time": 66, "note": 70, "velocity": 113, "channel": 0}, {"type": "note_on", "time": 17, "note": 67, "velocity": 117, "channel": 0}, {"type": "note_off", "time": 107, "note": 67, "velocity": 117, "channel": 0}, {"type": "note_on", "time": 14, "note": 65, "velocity": 107, "channel": 0}, {"type": "note_off", "time": 72, "note": 65, "velocity": 107, "channel": 0}, {"type": "note_on", "time": 6, "note": 68, "velocity": 112, "channel": 0}, {"type": "note_off", "time": 192, "note": 68, "velocity": 112, "channel": 0}, {"type": "note_on", "time": 19, "note": 67, "velocity": 116, "channel": 0}, {"type": "note_off", "time": 77, "note": 67, "velocity": 116, "channel": 0}, {"type": "note_on", "time": 29, "note": 65, "velocity": 103, "channel": 0}, {"type": "note_off", "time": 252, "note": 65, "velocity": 103, "channel": 0}, {"type": "note_on", "time": 502, "note": 67, "velocity": 120, "channel": 0}, {"type": "note_off", "time": 89, "note": 67, "velocity": 120, "channel": 0}, {"type": "note_on", "time": 8, "note": 68, "velocity": 121, "channel": 0}, {"type": "note_off", "time": 81, "note": 68, "velocity": 121, "channel": 0}, {"type": "note_on", "time": 7, "note": 65, "velocity": 123, "channel": 0}, {"type": "note_off", "time": 75, "note": 65, "velocity": 123, "channel": 0}, {"type": "note_on", "time": 22, "note": 67, "velocity": 118, "channel": 0}, {"type": "note_off", "time": 88, "note": 67, "velocity": 118, "channel": 0}, {"type": "note_on", "time": 6, "note": 68, "velocity": 120, "channel": 0}, {"type": "note_off", "time": 83, "note": 68, "velocity": 120, "channel": 0}, {"type": "note_on", "time": 14, "note": 70, "velocity": 116, "channel": 0}, {"type": "note_off", "time": 84, "note": 70, "velocity": 116, "channel": 0}, {"type": "note_on", "time": 11, "note": 72, "velocity": 115, "channel": 0}, {"type": "note_off", "time": 75, "note": 72, "velocity": 115, "channel": 0}, {"type": "note_on", "time": 5, "note": 68, "velocity": 119, "channel": 0}, {"type": "note_off", "time": 88, "note": 68, "velocity": 119, "channel": 0}, {"type": "note_on", "time": 14, "note": 67, "velocity": 119, "channel": 0}, {"type": "note_off", "time": 87, "note": 67, "velocity": 119, "channel": 0}, {"type": "note_on", "time": 10, "note": 68, "velocity": 117, "channel": 0}, {"type": "note_off", "time": 87, "note": 68, "velocity": 117, "channel": 0}, {"type": "note_on", "time": 15, "note": 70, "velocity": 113, "channel": 0}, {"type": "note_off", "time": 77, "note": 70, "velocity": 113, "channel": 0}, {"type": "note_on", "time": 9, "note": 67, "velocity": 119, "channel": 0}, {"type": "note_off", "time": 88, "note": 67, "velocity": 119, "channel": 0}, {"type": "note_on", "time": 13, "note": 65, "velocity": 121, "channel": 0}, {"type": "note_off", "time": 82, "note": 65, "velocity": 121, "channel": 0}, {"type": "note_on", "time": 10, "note": 67, "velocity": 115, "channel": 0}, {"type": "note_off", "time": 275, "note": 67, "velocity": 115, "channel": 0}, {"type": "note_on", "time": 14, "note": 65, "velocity": 119, "channel": 0}, {"type": "note_off", "time": 88, "note": 65, "velocity": 119, "channel": 0}, {"type": "note_on", "time": 10, "note": 67, "velocity": 115, "channel": 0}, {"type": "note_off", "time": 43, "note": 67, "velocity": 115, "channel": 0}, {"type": "note_on", "time": 8, "note": 68, "velocity": 116, "channel": 0}, {"type": "note_off", "time": 116, "note": 68, "velocity": 116, "channel": 0}, {"type": "note_on", "time": 14, "note": 67, "velocity": 119, "channel": 0}, {"type": "note_off", "time": 42, "note": 67, "velocity": 119, "channel": 0}, {"type": "note_on", "time": 2, "note": 68, "velocity": 113, "channel": 0}, {"type": "note_off", "time": 134, "note": 68, "velocity": 113, "channel": 0}, {"type": "note_on", "time": 15, "note": 67, "velocity": 116, "channel": 0}, {"type": "note_off", "time": 35, "note": 67, "velocity": 116, "channel": 0}, {"type": "note_on", "time": 2, "note": 68, "velocity": 119, "channel": 0}, {"type": "note_off", "time": 153, "note": 68, "velocity": 119, "channel": 0}, {"type": "note_on", "time": 8, "note": 67, "velocity": 115, "channel": 0}, {"type": "note_off", "time": 120, "note": 67, "velocity": 115, "channel": 0}, {"type": "note_on", "time": 14, "note": 67, "velocity": 109, "channel": 0}, {"type": "note_off", "time": 507, "note": 67, "velocity": 109, "channel": 0}, {"type": "note_on", "time": 731, "note": 75, "velocity": 122, "channel": 0}, {"type": "note_off", "time": 98, "note": 75, "velocity": 122, "channel": 0}, {"type": "note_on", "time": 74, "note": 72, "velocity": 113, "channel": 0}, {"type": "note_off", "time": 99, "note": 72, "velocity": 113, "channel": 0}, {"type": "note_on", "time": 53, "note": 64, "velocity": 104, "channel": 0}, {"type": "note_off", "time": 302, "note": 64, "velocity": 104, "channel": 0}, {"type": "note_on", "time": 270, "note": 67, "velocity": 110, "channel": 0}, {"type": "note_off", "time": 60, "note": 67, "velocity": 110, "channel": 0}, {"type": "note_on", "time": 11, "note": 70, "velocity": 121, "channel": 0}, {"type": "note_off", "time": 82, "note": 70, "velocity": 121, "channel": 0}, {"type": "note_on", "time": 15, "note": 67, "velocity": 119, "channel": 0}, {"type": "note_off", "time": 84, "note": 67, "velocity": 119, "channel": 0}, {"type": "note_on", "time": 14, "note": 68, "velocity": 118, "channel": 0}, {"type": "note_off", "time": 78, "note": 68, "velocity": 118, "channel": 0}, {"type": "note_on", "time": 11, "note": 69, "velocity": 126, "channel": 0}, {"type": "note_off", "time": 82, "note": 69, "velocity": 126, "channel": 0}, {"type": "note_on", "time": 7, "note": 70, "velocity": 117, "channel": 0}, {"type": "note_off", "time": 89, "note": 70, "velocity": 117, "channel": 0}, {"type": "note_on", "time": 17, "note": 71, "velocity": 116, "channel": 0}, {"type": "note_off", "time": 74, "note": 71, "velocity": 116, "channel": 0}, {"type": "note_on", "time": 7, "note": 72, "velocity": 111, "channel": 0}, {"type": "note_off", "time": 85, "note": 72, "velocity": 111, "channel": 0}, {"type": "note_on", "time": 38, "note": 68, "velocity": 109, "channel": 0}, {"type": "note_off", "time": 44, "note": 68, "velocity": 109, "channel": 0}, {"type": "note_on", "time": 28, "note": 70, "velocity": 119, "channel": 0}, {"type": "note_off", "time": 166, "note": 70, "velocity": 119, "channel": 0}, {"type": "note_on", "time": 26, "note": 67, "velocity": 117, "channel": 0}, {"type": "note_off", "time": 147, "note": 67, "velocity": 117, "channel": 0}, {"type": "note_on", "time": 53, "note": 62, "velocity": 104, "channel": 0}, {"type": "note_off", "time": 312, "note": 62, "velocity": 104, "channel": 0}, {"type": "note_on", "time": 350, "note": 65, "velocity": 123, "channel": 0}, {"type": "note_off", "time": 89, "note": 65, "velocity": 123, "channel": 0}, {"type": "note_on", "time": 9, "note": 67, "velocity": 115, "channel": 0}, {"type": "note_off", "time": 80, "note": 67, "velocity": 115, "channel": 0}, {"type": "note_on", "time": 7, "note": 68, "velocity": 117, "channel": 0}, {"type": "note_off", "time": 94, "note": 68, "velocity": 117, "channel": 0}, {"type": "note_on", "time": 15, "note": 68, "velocity": 119, "channel": 0}, {"type": "note_off", "time": 90, "note": 68, "velocity": 119, "channel": 0}, {"type": "note_on", "time": 22, "note": 73, "velocity": 118, "channel": 0}, {"type": "note_off", "time": 59, "note": 73, "velocity": 118, "channel": 0}, {"type": "note_on", "time": 28, "note": 68, "velocity": 115, "channel": 0}, {"type": "note_off", "time": 82, "note": 68, "velocity": 115, "channel": 0}, {"type": "note_on", "time": 23, "note": 65, "velocity": 105, "channel": 0}, {"type": "note_off", "time": 66, "note": 65, "velocity": 105, "channel": 0}, {"type": "note_on", "time": 19, "note": 68, "velocity": 116, "channel": 0}, {"type": "note_off", "time": 89, "note": 68, "velocity": 116, "channel": 0}, {"type": "note_on", "time": 11, "note": 73, "velocity": 121, "channel": 0}, {"type": "note_off", "time": 73, "note": 73, "velocity": 121, "channel": 0}, {"type": "note_on", "time": 21, "note": 68, "velocity": 116, "channel": 0}, {"type": "note_off", "time": 82, "note": 68, "velocity": 116, "channel": 0}, {"type": "note_on", "time": 10, "note": 65, "velocity": 115, "channel": 0}, {"type": "note_off", "time": 75, "note": 65, "velocity": 115, "channel": 0}, {"type": "note_on", "time": 10, "note": 68, "velocity": 117, "channel": 0}, {"type": "note_off", "time": 91, "note": 68, "velocity": 117, "channel": 0}, {"type": "note_on", "time": 23, "note": 73, "velocity": 115, "channel": 0}, {"type": "note_off", "time": 70, "note": 73, "velocity": 115, "channel": 0}, {"type": "note_on", "time": 24, "note": 68, "velocity": 118, "channel": 0}, {"type": "note_off", "time": 82, "note": 68, "velocity": 118, "channel": 0}, {"type": "note_on", "time": 9, "note": 65, "velocity": 115, "channel": 0}, {"type": "note_off", "time": 63, "note": 65, "velocity": 115, "channel": 0}, {"type": "note_on", "time": 19, "note": 67, "velocity": 113, "channel": 0}, {"type": "note_off", "time": 33, "note": 67, "velocity": 113, "channel": 0}, {"type": "note_on", "time": 9, "note": 68, "velocity": 118, "channel": 0}, {"type": "note_off", "time": 46, "note": 68, "velocity": 118, "channel": 0}, {"type": "note_on", "time": 7, "note": 67, "velocity": 117, "channel": 0}, {"type": "note_off", "time": 30, "note": 67, "velocity": 117, "channel": 0}, {"type": "note_on", "time": 14, "note": 65, "velocity": 116, "channel": 0}, {"type": "note_off", "time": 39, "note": 65, "velocity": 116, "channel": 0}, {"type": "note_on", "time": 18, "note": 63, "velocity": 114, "channel": 0}, {"type": "note_off", "time": 95, "note": 63, "velocity": 114, "channel": 0}, {"type": "note_on", "time": 13, "note": 61, "velocity": 100, "channel": 0}, {"type": "note_off", "time": 65, "note": 61, "velocity": 100, "channel": 0}, {"type": "note_on", "time": 14, "note": 63, "velocity": 108, "channel": 0}, {"type": "note_off", "time": 392, "note": 63, "velocity": 108, "channel": 0}, {"type": "note_on", "time": 276, "note": 74, "velocity": 119, "channel": 0}, {"type": "note_off", "time": 84, "note": 74, "velocity": 119, "channel": 0}, {"type": "note_on", "time": 26, "note": 77, "velocity": 122, "channel": 0}, {"type": "note_off", "time": 87, "note": 77, "velocity": 122, "channel": 0}, {"type": "note_on", "time": 7, "note": 76, "velocity": 120, "channel": 0}, {"type": "note_off", "time": 82, "note": 76, "velocity": 120, "channel": 0}, {"type": "note_on", "time": 5, "note": 75, "velocity": 118, "channel": 0}, {"type": "note_off", "time": 85, "note": 75, "velocity": 118, "channel": 0}, {"type": "note_on", "time": 18, "note": 74, "velocity": 116, "channel": 0}, {"type": "note_off", "time": 65, "note": 74, "velocity": 116, "channel": 0}, {"type": "note_on", "time": 25, "note": 69, "velocity": 126, "channel": 0}, {"type": "note_off", "time": 81, "note": 69, "velocity": 126, "channel": 0}, {"type": "note_on", "time": 10, "note": 66, "velocity": 115, "channel": 0}, {"type": "note_off", "time": 73, "note": 66, "velocity": 115, "channel": 0}, {"type": "note_on", "time": 17, "note": 65, "velocity": 119, "channel": 0}, {"type": "note_off", "time": 69, "note": 65, "velocity": 119, "channel": 0}, {"type": "note_on", "time": 21, "note": 63, "velocity": 112, "channel": 0}, {"type": "note_off", "time": 74, "note": 63, "velocity": 112, "channel": 0}, {"type": "note_on", "time": 2, "note": 61, "velocity": 110, "channel": 0}, {"type": "note_off", "time": 88, "note": 61, "velocity": 110, "channel": 0}, {"type": "note_on", "time": 24, "note": 65, "velocity": 117, "channel": 0}, {"type": "note_off", "time": 74, "note": 65, "velocity": 117, "channel": 0}, {"type": "note_on", "time": 11, "note": 68, "velocity": 118, "channel": 0}, {"type": "note_off", "time": 90, "note": 68, "velocity": 118, "channel": 0}, {"type": "note_on", "time": 11, "note": 72, "velocity": 115, "channel": 0}, {"type": "note_off", "time": 76, "note": 72, "velocity": 115, "channel": 0}, {"type": "note_on", "time": 8, "note": 75, "velocity": 118, "channel": 0}, {"type": "note_off", "time": 117, "note": 75, "velocity": 118, "channel": 0}, {"type": "note_on", "time": 28, "note": 73, "velocity": 111, "channel": 0}, {"type": "note_off", "time": 248, "note": 73, "velocity": 111, "channel": 0}, {"type": "note_on", "time": 6, "note": 72, "velocity": 110, "channel": 0}, {"type": "note_off", "time": 174, "note": 72, "velocity": 110, "channel": 0}, {"type": "note_on", "time": 16, "note": 70, "velocity": 119, "channel": 0}, {"type": "note_off", "time": 166, "note": 70, "velocity": 119, "channel": 0}, {"type": "note_on", "time": 7, "note": 66, "velocity": 112, "channel": 0}, {"type": "note_off", "time": 123, "note": 66, "velocity": 112, "channel": 0}, {"type": "note_on", "time": 11, "note": 67, "velocity": 112, "channel": 0}, {"type": "note_off", "time": 123, "note": 67, "velocity": 112, "channel": 0}, {"type": "note_on", "time": 277, "note": 68, "velocity": 120, "channel": 0}, {"type": "note_off", "time": 36, "note": 68, "velocity": 120, "channel": 0}, {"type": "note_on", "time": 2, "note": 70, "velocity": 118, "channel": 0}, {"type": "note_off", "time": 186, "note": 70, "velocity": 118, "channel": 0}, {"type": "note_on", "time": 7, "note": 68, "velocity": 113, "channel": 0}, {"type": "note_off", "time": 366, "note": 68, "velocity": 113, "channel": 0}, {"type": "note_on", "time": 26, "note": 68, "velocity": 111, "channel": 0}, {"type": "note_off", "time": 338, "note": 68, "velocity": 111, "channel": 0}, {"type": "note_on", "time": 32, "note": 67, "velocity": 115, "channel": 0}, {"type": "note_off", "time": 85, "note": 67, "velocity": 115, "channel": 0}, {"type": "note_on", "time": 6, "note": 68, "velocity": 115, "channel": 0}, {"type": "note_off", "time": 281, "note": 68, "velocity": 115, "channel": 0}, {"type": "note_on", "time": 12, "note": 67, "velocity": 115, "channel": 0}, {"type": "note_off", "time": 96, "note": 67, "velocity": 115, "channel": 0}, {"type": "note_on", "time": 47, "note": 60, "velocity": 107, "channel": 0}, {"type": "note_off", "time": 357, "note": 60, "velocity": 107, "channel": 0}, {"type": "note_on", "time": 578, "note": 67, "velocity": 115, "channel": 0}, {"type": "note_off", "time": 60, "note": 67, "velocity": 115, "channel": 0}, {"type": "note_on", "time": 22, "note": 70, "velocity": 118, "channel": 0}, {"type": "note_off", "time": 83, "note": 70, "velocity": 118, "channel": 0}, {"type": "note_on", "time": 19, "note": 72, "velocity": 115, "channel": 0}, {"type": "note_off", "time": 73, "note": 72, "velocity": 115, "channel": 0}, {"type": "note_on", "time": 17, "note": 68, "velocity": 116, "channel": 0}, {"type": "note_off", "time": 77, "note": 68, "velocity": 116, "channel": 0}, {"type": "note_on", "time": 10, "note": 67, "velocity": 116, "channel": 0}, {"type": "note_off", "time": 82, "note": 67, "velocity": 116, "channel": 0}, {"type": "note_on", "time": 6, "note": 65, "velocity": 118, "channel": 0}, {"type": "note_off", "time": 183, "note": 65, "velocity": 118, "channel": 0}, {"type": "note_on", "time": 7, "note": 67, "velocity": 112, "channel": 0}, {"type": "note_off", "time": 174, "note": 67, "velocity": 112, "channel": 0}, {"type": "note_on", "time": 14, "note": 68, "velocity": 106, "channel": 0}, {"type": "note_off", "time": 194, "note": 68, "velocity": 106, "channel": 0}, {"type": "note_on", "time": 15, "note": 72, "velocity": 110, "channel": 0}, {"type": "note_off", "time": 73, "note": 72, "velocity": 110, "channel": 0}, {"type": "note_on", "time": 666, "note": 79, "velocity": 122, "channel": 0}, {"type": "note_off", "time": 91, "note": 79, "velocity": 122, "channel": 0}, {"type": "note_on", "time": 12, "note": 77, "velocity": 122, "channel": 0}, {"type": "note_off", "time": 96, "note": 77, "velocity": 122, "channel": 0}, {"type": "note_on", "time": 1, "note": 75, "velocity": 120, "channel": 0}, {"type": "note_off", "time": 90, "note": 75, "velocity": 120, "channel": 0}, {"type": "note_on", "time": 11, "note": 75, "velocity": 122, "channel": 0}, {"type": "note_off", "time": 80, "note": 75, "velocity": 122, "channel": 0}, {"type": "note_on", "time": 12, "note": 75, "velocity": 122, "channel": 0}, {"type": "note_off", "time": 85, "note": 75, "velocity": 122, "channel": 0}, {"type": "note_on", "time": 12, "note": 75, "velocity": 122, "channel": 0}, {"type": "note_off", "time": 84, "note": 75, "velocity": 122, "channel": 0}, {"type": "note_on", "time": 7, "note": 75, "velocity": 123, "channel": 0}, {"type": "note_off", "time": 107, "note": 75, "velocity": 123, "channel": 0}, {"type": "note_on", "time": 23, "note": 75, "velocity": 121, "channel": 0}, {"type": "note_off", "time": 104, "note": 75, "velocity": 121, "channel": 0}, {"type": "note_on", "time": 58, "note": 75, "velocity": 118, "channel": 0}, {"type": "note_off", "time": 122, "note": 75, "velocity": 118, "channel": 0}, {"type": "note_on", "time": 45, "note": 64, "velocity": 106, "channel": 0}, {"type": "note_off", "time": 356, "note": 64, "velocity": 106, "channel": 0}, {"type": "note_on", "time": 335, "note": 72, "velocity": 116, "channel": 0}, {"type": "note_off", "time": 105, "note": 72, "velocity": 116, "channel": 0}, {"type": "note_on", "time": 71, "note": 67, "velocity": 114, "channel": 0}, {"type": "note_off", "time": 110, "note": 67, "velocity": 114, "channel": 0}, {"type": "note_on", "time": 35, "note": 70, "velocity": 113, "channel": 0}, {"type": "note_off", "time": 100, "note": 70, "velocity": 113, "channel": 0}, {"type": "note_on", "time": 52, "note": 65, "velocity": 111, "channel": 0}, {"type": "note_off", "time": 88, "note": 65, "velocity": 111, "channel": 0}, {"type": "note_on", "time": 18, "note": 68, "velocity": 102, "channel": 0}, {"type": "note_off", "time": 329, "note": 68, "velocity": 102, "channel": 0}, {"type": "note_on", "time": 293, "note": 65, "velocity": 95, "channel": 0}, {"type": "note_off", "time": 47, "note": 65, "velocity": 95, "channel": 0}, {"type": "note_on", "time": 1, "note": 67, "velocity": 116, "channel": 0}, {"type": "note_off", "time": 75, "note": 67, "velocity": 116, "channel": 0}, {"type": "note_on", "time": 7, "note": 68, "velocity": 120, "channel": 0}, {"type": "note_off", "time": 95, "note": 68, "velocity": 120, "channel": 0}, {"type": "note_on", "time": 12, "note": 70, "velocity": 117, "channel": 0}, {"type": "note_off", "time": 80, "note": 70, "velocity": 117, "channel": 0}, {"type": "note_on", "time": 15, "note": 72, "velocity": 110, "channel": 0}, {"type": "note_off", "time": 88, "note": 72, "velocity": 110, "channel": 0}, {"type": "note_on", "time": 21, "note": 72, "velocity": 111, "channel": 0}, {"type": "note_off", "time": 79, "note": 72, "velocity": 111, "channel": 0}, {"type": "note_on", "time": 19, "note": 72, "velocity": 111, "channel": 0}, {"type": "note_off", "time": 77, "note": 72, "velocity": 111, "channel": 0}, {"type": "note_on", "time": 14, "note": 72, "velocity": 108, "channel": 0}, {"type": "note_off", "time": 71, "note": 72, "velocity": 108, "channel": 0}, {"type": "note_on", "time": 43, "note": 72, "velocity": 105, "channel": 0}, {"type": "note_off", "time": 83, "note": 72, "velocity": 105, "channel": 0}, {"type": "note_on", "time": 51, "note": 72, "velocity": 107, "channel": 0}, {"type": "note_off", "time": 106, "note": 72, "velocity": 107, "channel": 0}, {"type": "note_on", "time": 48, "note": 72, "velocity": 101, "channel": 0}, {"type": "note_off", "time": 94, "note": 72, "velocity": 101, "channel": 0}, {"type": "note_on", "time": 51, "note": 61, "velocity": 107, "channel": 0}, {"type": "note_off", "time": 491, "note": 61, "velocity": 107, "channel": 0}, {"type": "note_on", "time": 157, "note": 70, "velocity": 116, "channel": 0}, {"type": "note_off", "time": 142, "note": 70, "velocity": 116, "channel": 0}, {"type": "note_on", "time": 60, "note": 60, "velocity": 107, "channel": 0}, {"type": "note_off", "time": 90, "note": 60, "velocity": 107, "channel": 0}, {"type": "note_on", "time": 47, "note": 67, "velocity": 114, "channel": 0}, {"type": "note_off", "time": 93, "note": 67, "velocity": 114, "channel": 0}, {"type": "note_on", "time": 90, "note": 60, "velocity": 107, "channel": 0}, {"type": "note_off", "time": 31, "note": 60, "velocity": 107, "channel": 0}, {"type": "note_on", "time": 24, "note": 70, "velocity": 100, "channel": 0}, {"type": "note_off", "time": 378, "note": 70, "velocity": 100, "channel": 0}, {"type": "note_on", "time": 308, "note": 68, "velocity": 122, "channel": 0}, {"type": "note_off", "time": 69, "note": 68, "velocity": 122, "channel": 0}, {"type": "note_on", "time": 15, "note": 70, "velocity": 118, "channel": 0}, {"type": "note_off", "time": 97, "note": 70, "velocity": 118, "channel": 0}, {"type": "note_on", "time": 11, "note": 72, "velocity": 118, "channel": 0}, {"type": "note_off", "time": 80, "note": 72, "velocity": 118, "channel": 0}, {"type": "note_on", "time": 21, "note": 73, "velocity": 114, "channel": 0}, {"type": "note_off", "time": 79, "note": 73, "velocity": 114, "channel": 0}, {"type": "note_on", "time": 43, "note": 65, "velocity": 118, "channel": 0}, {"type": "note_off", "time": 75, "note": 65, "velocity": 118, "channel": 0}, {"type": "note_on", "time": 86, "note": 67, "velocity": 111, "channel": 0}, {"type": "note_off", "time": 248, "note": 67, "velocity": 111, "channel": 0}, {"type": "note_on", "time": 354, "note": 68, "velocity": 105, "channel": 0}, {"type": "note_off", "time": 31, "note": 68, "velocity": 105, "channel": 0}, {"type": "note_on", "time": 5, "note": 70, "velocity": 121, "channel": 0}, {"type": "note_off", "time": 106, "note": 70, "velocity": 121, "channel": 0}, {"type": "note_on", "time": 10, "note": 72, "velocity": 118, "channel": 0}, {"type": "note_off", "time": 68, "note": 72, "velocity": 118, "channel": 0}, {"type": "note_on", "time": 21, "note": 73, "velocity": 114, "channel": 0}, {"type": "note_off", "time": 85, "note": 73, "velocity": 114, "channel": 0}, {"type": "note_on", "time": 16, "note": 69, "velocity": 121, "channel": 0}, {"type": "note_off", "time": 82, "note": 69, "velocity": 121, "channel": 0}, {"type": "note_on", "time": 8, "note": 70, "velocity": 117, "channel": 0}, {"type": "note_off", "time": 88, "note": 70, "velocity": 117, "channel": 0}, {"type": "note_on", "time": 8, "note": 71, "velocity": 114, "channel": 0}, {"type": "note_off", "time": 91, "note": 71, "velocity": 114, "channel": 0}, {"type": "note_on", "time": 10, "note": 72, "velocity": 115, "channel": 0}, {"type": "note_off", "time": 89, "note": 72, "velocity": 115, "channel": 0}, {"type": "note_on", "time": 35, "note": 77, "velocity": 123, "channel": 0}, {"type": "note_off", "time": 103, "note": 77, "velocity": 123, "channel": 0}, {"type": "note_on", "time": 630, "note": 70, "velocity": 119, "channel": 0}, {"type": "note_off", "time": 74, "note": 70, "velocity": 119, "channel": 0}, {"type": "note_on", "time": 11, "note": 72, "velocity": 118, "channel": 0}, {"type": "note_off", "time": 81, "note": 72, "velocity": 118, "channel": 0}, {"type": "note_on", "time": 14, "note": 68, "velocity": 118, "channel": 0}, {"type": "note_off", "time": 77, "note": 68, "velocity": 118, "channel": 0}, {"type": "note_on", "time": 9, "note": 70, "velocity": 118, "channel": 0}, {"type": "note_off", "time": 84, "note": 70, "velocity": 118, "channel": 0}, {"type": "note_on", "time": 14, "note": 67, "velocity": 115, "channel": 0}, {"type": "note_off", "time": 80, "note": 67, "velocity": 115, "channel": 0}, {"type": "note_on", "time": 12, "note": 68, "velocity": 115, "channel": 0}, {"type": "note_off", "time": 85, "note": 68, "velocity": 115, "channel": 0}, {"type": "note_on", "time": 11, "note": 65, "velocity": 116, "channel": 0}, {"type": "note_off", "time": 75, "note": 65, "velocity": 116, "channel": 0}, {"type": "note_on", "time": 10, "note": 67, "velocity": 115, "channel": 0}, {"type": "note_off", "time": 661, "note": 67, "velocity": 115, "channel": 0}, {"type": "note_on", "time": 13, "note": 65, "velocity": 121, "channel": 0}, {"type": "note_off", "time": 89, "note": 65, "velocity": 121, "channel": 0}, {"type": "note_on", "time": 20, "note": 62, "velocity": 122, "channel": 0}, {"type": "note_off", "time": 78, "note": 62, "velocity": 122, "channel": 0}, {"type": "note_on", "time": 26, "note": 57, "velocity": 111, "channel": 0}, {"type": "note_off", "time": 56, "note": 57, "velocity": 111, "channel": 0}, {"type": "note_on", "time": 13, "note": 60, "velocity": 122, "channel": 0}, {"type": "note_off", "time": 85, "note": 60, "velocity": 122, "channel": 0}, {"type": "note_on", "time": 16, "note": 58, "velocity": 117, "channel": 0}, {"type": "note_off", "time": 83, "note": 58, "velocity": 117, "channel": 0}, {"type": "note_on", "time": 15, "note": 59, "velocity": 119, "channel": 0}, {"type": "note_off", "time": 67, "note": 59, "velocity": 119, "channel": 0}, {"type": "note_on", "time": 23, "note": 62, "velocity": 118, "channel": 0}, {"type": "note_off", "time": 65, "note": 62, "velocity": 118, "channel": 0}, {"type": "note_on", "time": 6, "note": 65, "velocity": 120, "channel": 0}, {"type": "note_off", "time": 96, "note": 65, "velocity": 120, "channel": 0}, {"type": "note_on", "time": 15, "note": 68, "velocity": 117, "channel": 0}, {"type": "note_off", "time": 77, "note": 68, "velocity": 117, "channel": 0}, {"type": "note_on", "time": 5, "note": 67, "velocity": 115, "channel": 0}, {"type": "note_off", "time": 98, "note": 67, "velocity": 115, "channel": 0}, {"type": "note_on", "time": 11, "note": 68, "velocity": 111, "channel": 0}, {"type": "note_off", "time": 75, "note": 68, "velocity": 111, "channel": 0}, {"type": "note_on", "time": 10, "note": 70, "velocity": 115, "channel": 0}, {"type": "note_off", "time": 97, "note": 70, "velocity": 115, "channel": 0}, {"type": "note_on", "time": 16, "note": 72, "velocity": 116, "channel": 0}, {"type": "note_off", "time": 73, "note": 72, "velocity": 116, "channel": 0}, {"type": "note_on", "time": 13, "note": 73, "velocity": 115, "channel": 0}, {"type": "note_off", "time": 85, "note": 73, "velocity": 115, "channel": 0}, {"type": "note_on", "time": 23, "note": 65, "velocity": 121, "channel": 0}, {"type": "note_off", "time": 84, "note": 65, "velocity": 121, "channel": 0}, {"type": "note_on", "time": 4, "note": 66, "velocity": 117, "channel": 0}, {"type": "note_off", "time": 79, "note": 66, "velocity": 117, "channel": 0}, {"type": "note_on", "time": 18, "note": 70, "velocity": 115, "channel": 0}, {"type": "note_off", "time": 72, "note": 70, "velocity": 115, "channel": 0}, {"type": "note_on", "time": 4, "note": 73, "velocity": 116, "channel": 0}, {"type": "note_off", "time": 82, "note": 73, "velocity": 116, "channel": 0}, {"type": "note_on", "time": 35, "note": 78, "velocity": 125, "channel": 0}, {"type": "note_off", "time": 73, "note": 78, "velocity": 125, "channel": 0}, {"type": "note_on", "time": 9, "note": 77, "velocity": 124, "channel": 0}, {"type": "note_off", "time": 110, "note": 77, "velocity": 124, "channel": 0}, {"type": "note_on", "time": 13, "note": 76, "velocity": 118, "channel": 0}, {"type": "note_off", "time": 77, "note": 76, "velocity": 118, "channel": 0}, {"type": "note_on", "time": 11, "note": 72, "velocity": 109, "channel": 0}, {"type": "note_off", "time": 74, "note": 72, "velocity": 109, "channel": 0}, {"type": "note_on", "time": 20, "note": 67, "velocity": 116, "channel": 0}, {"type": "note_off", "time": 75, "note": 67, "velocity": 116, "channel": 0}, {"type": "note_on", "time": 11, "note": 68, "velocity": 116, "channel": 0}, {"type": "note_off", "time": 83, "note": 68, "velocity": 116, "channel": 0}, {"type": "note_on", "time": 11, "note": 70, "velocity": 115, "channel": 0}, {"type": "note_off", "time": 80, "note": 70, "velocity": 115, "channel": 0}, {"type": "note_on", "time": 27, "note": 72, "velocity": 106, "channel": 0}, {"type": "note_off", "time": 156, "note": 72, "velocity": 106, "channel": 0}, {"type": "note_on", "time": 18, "note": 72, "velocity": 82, "channel": 0}, {"type": "note_off", "time": 461, "note": 72, "velocity": 82, "channel": 0}, {"type": "note_on", "time": 482, "note": 70, "velocity": 117, "channel": 0}, {"type": "note_off", "time": 95, "note": 70, "velocity": 117, "channel": 0}, {"type": "note_on", "time": 14, "note": 70, "velocity": 117, "channel": 0}, {"type": "note_off", "time": 66, "note": 70, "velocity": 117, "channel": 0}, {"type": "note_on", "time": 11, "note": 70, "velocity": 119, "channel": 0}, {"type": "note_off", "time": 81, "note": 70, "velocity": 119, "channel": 0}, {"type": "note_on", "time": 12, "note": 70, "velocity": 112, "channel": 0}, {"type": "note_off", "time": 73, "note": 70, "velocity": 112, "channel": 0}, {"type": "note_on", "time": 26, "note": 68, "velocity": 113, "channel": 0}, {"type": "note_off", "time": 61, "note": 68, "velocity": 113, "channel": 0}, {"type": "note_on", "time": 9, "note": 70, "velocity": 110, "channel": 0}, {"type": "note_off", "time": 102, "note": 70, "velocity": 110, "channel": 0}, {"type": "note_on", "time": 12, "note": 70, "velocity": 117, "channel": 0}, {"type": "note_off", "time": 65, "note": 70, "velocity": 117, "channel": 0}, {"type": "note_on", "time": 23, "note": 70, "velocity": 114, "channel": 0}, {"type": "note_off", "time": 70, "note": 70, "velocity": 114, "channel": 0}, {"type": "note_on", "time": 55, "note": 68, "velocity": 120, "channel": 0}, {"type": "note_off", "time": 65, "note": 68, "velocity": 120, "channel": 0}, {"type": "note_on", "time": 8, "note": 70, "velocity": 109, "channel": 0}, {"type": "note_off", "time": 85, "note": 70, "velocity": 109, "channel": 0}, {"type": "note_on", "time": 10, "note": 70, "velocity": 116, "channel": 0}, {"type": "note_off", "time": 82, "note": 70, "velocity": 116, "channel": 0}, {"type": "note_on", "time": 17, "note": 70, "velocity": 115, "channel": 0}, {"type": "note_off", "time": 80, "note": 70, "velocity": 115, "channel": 0}, {"type": "note_on", "time": 16, "note": 68, "velocity": 110, "channel": 0}, {"type": "note_off", "time": 57, "note": 68, "velocity": 110, "channel": 0}, {"type": "note_on", "time": 7, "note": 70, "velocity": 111, "channel": 0}, {"type": "note_off", "time": 294, "note": 70, "velocity": 111, "channel": 0}, {"type": "note_on", "time": 16, "note": 68, "velocity": 111, "channel": 0}, {"type": "note_off", "time": 280, "note": 68, "velocity": 111, "channel": 0}, {"type": "note_on", "time": 10, "note": 67, "velocity": 114, "channel": 0}, {"type": "note_off", "time": 52, "note": 67, "velocity": 114, "channel": 0}, {"type": "note_on", "time": 5, "note": 65, "velocity": 119, "channel": 0}, {"type": "note_off", "time": 38, "note": 65, "velocity": 119, "channel": 0}, {"type": "note_on", "time": 0, "note": 68, "velocity": 117, "channel": 0}, {"type": "note_off", "time": 100, "note": 68, "velocity": 117, "channel": 0}, {"type": "note_on", "time": 69, "note": 58, "velocity": 115, "channel": 0}, {"type": "note_off", "time": 114, "note": 58, "velocity": 115, "channel": 0}, {"type": "note_on", "time": 30, "note": 61, "velocity": 104, "channel": 0}, {"type": "note_off", "time": 247, "note": 61, "velocity": 104, "channel": 0}, {"type": "note_on", "time": 503, "note": 65, "velocity": 122, "channel": 0}, {"type": "note_off", "time": 80, "note": 65, "velocity": 122, "channel": 0}, {"type": "note_on", "time": 11, "note": 67, "velocity": 117, "channel": 0}, {"type": "note_off", "time": 80, "note": 67, "velocity": 117, "channel": 0}, {"type": "note_on", "time": 17, "note": 68, "velocity": 118, "channel": 0}, {"type": "note_off", "time": 74, "note": 68, "velocity": 118, "channel": 0}, {"type": "note_on", "time": 6, "note": 70, "velocity": 115, "channel": 0}, {"type": "note_off", "time": 164, "note": 70, "velocity": 115, "channel": 0}, {"type": "note_on", "time": 20, "note": 73, "velocity": 119, "channel": 0}, {"type": "note_off", "time": 71, "note": 73, "velocity": 119, "channel": 0}, {"type": "note_on", "time": 4, "note": 74, "velocity": 120, "channel": 0}, {"type": "note_off", "time": 118, "note": 74, "velocity": 120, "channel": 0}, {"type": "note_on", "time": 5, "note": 77, "velocity": 127, "channel": 0}, {"type": "note_off", "time": 181, "note": 77, "velocity": 127, "channel": 0}, {"type": "note_on", "time": 8, "note": 75, "velocity": 115, "channel": 0}, {"type": "note_off", "time": 133, "note": 75, "velocity": 115, "channel": 0}, {"type": "note_on", "time": 53, "note": 63, "velocity": 113, "channel": 0}, {"type": "note_off", "time": 123, "note": 63, "velocity": 113, "channel": 0}, {"type": "note_on", "time": 24, "note": 71, "velocity": 83, "channel": 0}, {"type": "note_off", "time": 412, "note": 71, "velocity": 83, "channel": 0}, {"type": "note_on", "time": 419, "note": 72, "velocity": 116, "channel": 0}, {"type": "note_off", "time": 92, "note": 72, "velocity": 116, "channel": 0}, {"type": "note_on", "time": 18, "note": 68, "velocity": 112, "channel": 0}, {"type": "note_off", "time": 192, "note": 68, "velocity": 112, "channel": 0}, {"type": "note_on", "time": 71, "note": 61, "velocity": 111, "channel": 0}, {"type": "note_off", "time": 79, "note": 61, "velocity": 111, "channel": 0}, {"type": "note_on", "time": 24, "note": 65, "velocity": 122, "channel": 0}, {"type": "note_off", "time": 71, "note": 65, "velocity": 122, "channel": 0}, {"type": "note_on", "time": 13, "note": 68, "velocity": 120, "channel": 0}, {"type": "note_off", "time": 91, "note": 68, "velocity": 120, "channel": 0}, {"type": "note_on", "time": 12, "note": 72, "velocity": 113, "channel": 0}, {"type": "note_off", "time": 78, "note": 72, "velocity": 113, "channel": 0}, {"type": "note_on", "time": 19, "note": 75, "velocity": 119, "channel": 0}, {"type": "note_off", "time": 86, "note": 75, "velocity": 119, "channel": 0}, {"type": "note_on", "time": 21, "note": 72, "velocity": 106, "channel": 0}, {"type": "note_off", "time": 238, "note": 72, "velocity": 106, "channel": 0}, {"type": "note_on", "time": 69, "note": 64, "velocity": 114, "channel": 0}, {"type": "note_off", "time": 72, "note": 64, "velocity": 114, "channel": 0}, {"type": "note_on", "time": 4, "note": 67, "velocity": 116, "channel": 0}, {"type": "note_off", "time": 56, "note": 67, "velocity": 116, "channel": 0}, {"type": "note_on", "time": 26, "note": 72, "velocity": 112, "channel": 0}, {"type": "note_off", "time": 79, "note": 72, "velocity": 112, "channel": 0}, {"type": "note_on", "time": 20, "note": 75, "velocity": 119, "channel": 0}, {"type": "note_off", "time": 88, "note": 75, "velocity": 119, "channel": 0}, {"type": "note_on", "time": 6, "note": 79, "velocity": 120, "channel": 0}, {"type": "note_off", "time": 106, "note": 79, "velocity": 120, "channel": 0}, {"type": "note_on", "time": 5, "note": 77, "velocity": 121, "channel": 0}, {"type": "note_off", "time": 246, "note": 77, "velocity": 121, "channel": 0}, {"type": "note_on", "time": 13, "note": 75, "velocity": 116, "channel": 0}, {"type": "note_off", "time": 87, "note": 75, "velocity": 116, "channel": 0}, {"type": "note_on", "time": 23, "note": 72, "velocity": 105, "channel": 0}, {"type": "note_off", "time": 70, "note": 72, "velocity": 105, "channel": 0}, {"type": "note_on", "time": 5, "note": 71, "velocity": 106, "channel": 0}, {"type": "note_off", "time": 39, "note": 71, "velocity": 106, "channel": 0}, {"type": "note_on", "time": 9, "note": 70, "velocity": 104, "channel": 0}, {"type": "note_off", "time": 50, "note": 70, "velocity": 104, "channel": 0}, {"type": "note_on", "time": 11, "note": 69, "velocity": 119, "channel": 0}, {"type": "note_off", "time": 52, "note": 69, "velocity": 119, "channel": 0}, {"type": "note_on", "time": 18, "note": 68, "velocity": 106, "channel": 0}, {"type": "note_off", "time": 378, "note": 68, "velocity": 106, "channel": 0}, {"type": "note_on", "time": 21, "note": 68, "velocity": 108, "channel": 0}, {"type": "note_off", "time": 90, "note": 68, "velocity": 108, "channel": 0}, {"type": "note_on", "time": 74, "note": 68, "velocity": 110, "channel": 0}, {"type": "note_off", "time": 191, "note": 68, "velocity": 110, "channel": 0}, {"type": "note_on", "time": 9, "note": 67, "velocity": 106, "channel": 0}, {"type": "note_off", "time": 284, "note": 67, "velocity": 106, "channel": 0}, {"type": "note_on", "time": 811, "note": 67, "velocity": 107, "channel": 0}, {"type": "note_off", "time": 28, "note": 67, "velocity": 107, "channel": 0}, {"type": "note_on", "time": 27, "note": 68, "velocity": 123, "channel": 0}, {"type": "note_off", "time": 31, "note": 68, "velocity": 123, "channel": 0}, {"type": "note_on", "time": 7, "note": 70, "velocity": 115, "channel": 0}, {"type": "note_off", "time": 116, "note": 70, "velocity": 115, "channel": 0}, {"type": "note_on", "time": 28, "note": 68, "velocity": 121, "channel": 0}, {"type": "note_off", "time": 48, "note": 68, "velocity": 121, "channel": 0}, {"type": "note_on", "time": 9, "note": 70, "velocity": 115, "channel": 0}, {"type": "note_off", "time": 110, "note": 70, "velocity": 115, "channel": 0}, {"type": "note_on", "time": 22, "note": 68, "velocity": 118, "channel": 0}, {"type": "note_off", "time": 53, "note": 68, "velocity": 118, "channel": 0}, {"type": "note_on", "time": 5, "note": 70, "velocity": 115, "channel": 0}, {"type": "note_off", "time": 629, "note": 70, "velocity": 115, "channel": 0}, {"type": "note_on", "time": 23, "note": 67, "velocity": 117, "channel": 0}, {"type": "note_off", "time": 76, "note": 67, "velocity": 117, "channel": 0}, {"type": "note_on", "time": 7, "note": 68, "velocity": 117, "channel": 0}, {"type": "note_off", "time": 96, "note": 68, "velocity": 117, "channel": 0}, {"type": "note_on", "time": 6, "note": 70, "velocity": 116, "channel": 0}, {"type": "note_off", "time": 71, "note": 70, "velocity": 116, "channel": 0}, {"type": "note_on", "time": 5, "note": 67, "velocity": 116, "channel": 0}, {"type": "note_off", "time": 87, "note": 67, "velocity": 116, "channel": 0}, {"type": "note_on", "time": 7, "note": 65, "velocity": 119, "channel": 0}, {"type": "note_off", "time": 71, "note": 65, "velocity": 119, "channel": 0}, {"type": "note_on", "time": 19, "note": 67, "velocity": 112, "channel": 0}, {"type": "note_off", "time": 118, "note": 67, "velocity": 112, "channel": 0}, {"type": "note_on", "time": 49, "note": 65, "velocity": 107, "channel": 0}, {"type": "note_off", "time": 176, "note": 65, "velocity": 107, "channel": 0}, {"type": "note_on", "time": 55, "note": 60, "velocity": 99, "channel": 0}, {"type": "note_off", "time": 323, "note": 60, "velocity": 99, "channel": 0}, {"type": "end_of_track", "time": 0}]]}