{"ticks_per_beat": 192, "tracks": [[{"type": "track_name", "name": "Melody", "time": 0}, {"type": "set_tempo", "tempo": 512820, "time": 0}, {"type": "key_signature", "key": "F", "time": 0}, {"type": "time_signature", "numerator": 4, "denominator": 4, "clocks_per_click": 24, "notated_32nd_notes_per_beat": 8, "time": 0}, {"type": "note_on", "time": 1055, "note": 65, "velocity": 94, "channel": 0}, {"type": "note_off", "time": 49, "note": 65, "velocity": 94, "channel": 0}, {"type": "note_on", "time": 15, "note": 72, "velocity": 115, "channel": 0}, {"type": "note_off", "time": 74, "note": 72, "velocity": 115, "channel": 0}, {"type": "note_on", "time": 30, "note": 71, "velocity": 114, "channel": 0}, {"type": "note_off", "time": 69, "note": 71, "velocity": 114, "channel": 0}, {"type": "note_on", "time": 21, "note": 70, "velocity": 111, "channel": 0}, {"type": "note_off", "time": 72, "note": 70, "velocity": 111, "channel": 0}, {"type": "note_on", "time": 35, "note": 65, "velocity": 115, "channel": 0}, {"type": "note_off", "time": 63, "note": 65, "velocity": 115, "channel": 0}, {"type": "note_on", "time": 17, "note": 68, "velocity": 121, "channel": 0}, {"type": "note_off", "time": 59, "note": 68, "velocity": 121, "channel": 0}, {"type": "note_on", "time": 9, "note": 70, "velocity": 96, "channel": 0}, {"type": "note_off", "time": 29, "note": 70, "velocity": 96, "channel": 0}, {"type": "note_on", "time": 8, "note": 71, "velocity": 113, "channel": 0}, {"type": "note_off", "time": 74, "note": 71, "velocity": 113, "channel": 0}, {"type": "note_on", "time": 15, "note": 70, "velocity": 111, "channel": 0}, {"type": "note_off", "time": 48, "note": 70, "velocity": 111, "channel": 0}, {"type": "note_on", "time": 4, "note": 71, "velocity": 104, "channel": 0}, {"type": "note_off", "time": 27, "note": 71, "velocity": 104, "channel": 0}, {"type": "note_on", "time": 2, "note": 70, "velocity": 113, "channel": 0}, {"type": "note_off", "time": 30, "note": 70, "velocity": 113, "channel": 0}, {"type": "note_on", "time": 2, "note": 68, "velocity": 123, "channel": 0}, {"type": "note_off", "time": 60, "note": 68, "velocity": 123, "channel": 0}, {"type": "note_on", "time": 19, "note": 65, "velocity": 108, "channel": 0}, {"type": "note_off", "time": 74, "note": 65, "velocity": 108, "channel": 0}, {"type": "note_on", "time": 33, "note": 65, "velocity": 101, "channel": 0}, {"type": "note_off", "time": 298, "note": 65, "velocity": 101, "channel": 0}, {"type": "note_on", "time": 75, "note": 55, "velocity": 93, "channel": 0}, {"type": "note_off", "time": 36, "note": 55, "velocity": 93, "channel": 0}, {"type": "note_on", "time": 30, "note": 63, "velocity": 80, "channel": 0}, {"type": "note_off", "time": 255, "note": 63, "velocity": 80, "channel": 0}, {"type": "note_on", "time": 577, "note": 60, "velocity": 105, "channel": 0}, {"type": "note_off", "time": 27, "note": 60, "velocity": 105, "channel": 0}, {"type": "note_on", "time": 4, "note": 62, "velocity": 99, "channel": 0}, {"type": "note_off", "time": 37, "note": 62, "velocity": 99, "channel": 0}, {"type": "note_on", "time": 15, "note": 67, "velocity": 107, "channel": 0}, {"type": "note_off", "time": 88, "note": 67, "velocity": 107, "channel": 0}, {"type": "note_on", "time": 4, "note": 70, "velocity": 114, "channel": 0}, {"type": "note_off", "time": 66, "note": 70, "velocity": 114, "channel": 0}, {"type": "note_on", "time": 46, "note": 71, "velocity": 113, "channel": 0}, {"type": "note_off", "time": 51, "note": 71, "velocity": 113, "channel": 0}, {"type": "note_on", "time": 7, "note": 72, "velocity": 111, "channel": 0}, {"type": "note_off", "time": 258, "note": 72, "velocity": 111, "channel": 0}, {"type": "note_on", "time": 46, "note": 70, "velocity": 104, "channel": 0}, {"type": "note_off", "time": 57, "note": 70, "velocity": 104, "channel": 0}, {"type": "note_on", "time": 5, "note": 72, "velocity": 101, "channel": 0}, {"type": "note_off", "time": 15, "note": 72, "velocity": 101, "channel": 0}, {"type": "note_on", "time": 2, "note": 70, "velocity": 110, "channel": 0}, {"type": "note_off", "time": 29, "note": 70, "velocity": 110, "channel": 0}, {"type": "note_on", "time": 3, "note": 68, "velocity": 121, "channel": 0}, {"type": "note_off", "time": 71, "note": 68, "velocity": 121, "channel": 0}, {"type": "note_on", "time": 5, "note": 65, "velocity": 115, "channel": 0}, {"type": "note_off", "time": 84, "note": 65, "velocity": 115, "channel": 0}, {"type": "note_on", "time": 27, "note": 65, "velocity": 98, "channel": 0}, {"type": "note_off", "time": 243, "note": 65, "velocity": 98, "channel": 0}, {"type": "note_on", "time": 43, "note": 62, "velocity": 87, "channel": 0}, {"type": "note_off", "time": 42, "note": 62, "velocity": 87, "channel": 0}, {"type": "note_on", "time": 51, "note": 65, "velocity": 119, "channel": 0}, {"type": "note_off", "time": 72, "note": 65, "velocity": 119, "channel": 0}, {"type": "note_on", "time": 504, "note": 57, "velocity": 108, "channel": 0}, {"type": "note_off", "time": 53, "note": 57, "velocity": 108, "channel": 0}, {"type": "note_on", "time": 31, "note": 62, "velocity": 102, "channel": 0}, {"type": "note_off", "time": 59, "note": 62, "velocity": 102, "channel": 0}, {"type": "note_on", "time": 29, "note": 67, "velocity": 125, "channel": 0}, {"type": "note_off", "time": 72, "note": 67, "velocity": 125, "channel": 0}, {"type": "note_on", "time": 20, "note": 72, "velocity": 108, "channel": 0}, {"type": "note_off", "time": 152, "note": 72, "velocity": 108, "channel": 0}, {"type": "note_on", "time": 41, "note": 77, "velocity": 121, "channel": 0}, {"type": "note_off", "time": 116, "note": 77, "velocity": 121, "channel": 0}, {"type": "note_on", "time": 4, "note": 72, "velocity": 111, "channel": 0}, {"type": "note_off", "time": 62, "note": 72, "velocity": 111, "channel": 0}, {"type": "note_on", "time": 475, "note": 74, "velocity": 121, "channel": 0}, {"type": "note_off", "time": 75, "note": 74, "velocity": 121, "channel": 0}, {"type": "note_on", "time": 11, "note": 69, "velocity": 125, "channel": 0}, {"type": "note_off", "time": 81, "note": 69, "velocity": 125, "channel": 0}, {"type": "note_on", "time": 13, "note": 72, "velocity": 121, "channel": 0}, {"type": "note_off", "time": 68, "note": 72, "velocity": 121, "channel": 0}, {"type": "note_on", "time": 22, "note": 70, "velocity": 118, "channel": 0}, {"type": "note_off", "time": 70, "note": 70, "velocity": 118, "channel": 0}, {"type": "note_on", "time": 30, "note": 77, "velocity": 121, "channel": 0}, {"type": "note_off", "time": 73, "note": 77, "velocity": 121, "channel": 0}, {"type": "note_on", "time": 25, "note": 69, "velocity": 119, "channel": 0}, {"type": "note_off", "time": 35, "note": 69, "velocity": 119, "channel": 0}, {"type": "note_on", "time": 2, "note": 70, "velocity": 110, "channel": 0}, {"type": "note_off", "time": 17, "note": 70, "velocity": 110, "channel": 0}, {"type": "note_on", "time": 2, "note": 69, "velocity": 122, "channel": 0}, {"type": "note_off", "time": 33, "note": 69, "velocity": 122, "channel": 0}, {"type": "note_on", "time": 4, "note": 65, "velocity": 112, "channel": 0}, {"type": "note_off", "time": 65, "note": 65, "velocity": 112, "channel": 0}, {"type": "note_on", "time": 3, "note": 67, "velocity": 122, "channel": 0}, {"type": "note_off", "time": 91, "note": 67, "velocity": 122, "channel": 0}, {"type": "note_on", "time": 23, "note": 72, "velocity": 115, "channel": 0}, {"type": "note_off", "time": 61, "note": 72, "velocity": 115, "channel": 0}, {"type": "note_on", "time": 22, "note": 69, "velocity": 117, "channel": 0}, {"type": "note_off", "time": 78, "note": 69, "velocity": 117, "channel": 0}, {"type": "note_on", "time": 579, "note": 60, "velocity": 88, "channel": 0}, {"type": "note_off", "time": 19, "note": 60, "velocity": 88, "channel": 0}, {"type": "note_on", "time": 3, "note": 62, "velocity": 83, "channel": 0}, {"type": "note_off", "time": 21, "note": 62, "velocity": 83, "channel": 0}, {"type": "note_on", "time": 23, "note": 65, "velocity": 121, "channel": 0}, {"type": "note_off", "time": 49, "note": 65, "velocity": 121, "channel": 0}, {"type": "note_on", "time": 3, "note": 67, "velocity": 123, "channel": 0}, {"type": "note_off", "time": 35, "note": 67, "velocity": 123, "channel": 0}, {"type": "note_on", "time": 2, "note": 70, "velocity": 118, "channel": 0}, {"type": "note_off", "time": 50, "note": 70, "velocity": 118, "channel": 0}, {"type": "note_on", "time": 2, "note": 69, "velocity": 121, "channel": 0}, {"type": "note_off", "time": 47, "note": 69, "velocity": 121, "channel": 0}, {"type": "note_on", "time": 20, "note": 65, "velocity": 113, "channel": 0}, {"type": "note_off", "time": 62, "note": 65, "velocity": 113, "channel": 0}, {"type": "note_on", "time": 36, "note": 60, "velocity": 98, "channel": 0}, {"type": "note_off", "time": 46, "note": 60, "velocity": 98, "channel": 0}, {"type": "note_on", "time": 31, "note": 62, "velocity": 99, "channel": 0}, {"type": "note_off", "time": 67, "note": 62, "velocity": 99, "channel": 0}, {"type": "note_on", "time": 36, "note": 63, "velocity": 88, "channel": 0}, {"type": "note_off", "time": 208, "note": 63, "velocity": 88, "channel": 0}, {"type": "note_on", "time": 47, "note": 66, "velocity": 114, "channel": 0}, {"type": "note_off", "time": 39, "note": 66, "velocity": 114, "channel": 0}, {"type": "note_on", "time": 8, "note": 69, "velocity": 103, "channel": 0}, {"type": "note_off", "time": 40, "note": 69, "velocity": 103, "channel": 0}, {"type": "note_on", "time": 5, "note": 72, "velocity": 118, "channel": 0}, {"type": "note_off", "time": 70, "note": 72, "velocity": 118, "channel": 0}, {"type": "note_on", "time": 4, "note": 70, "velocity": 108, "channel": 0}, {"type": "note_off", "time": 62, "note": 70, "velocity": 108, "channel": 0}, {"type": "note_on", "time": 21, "note": 74, "velocity": 92, "channel": 0}, {"type": "note_off", "time": 26, "note": 74, "velocity": 92, "channel": 0}, {"type": "note_on", "time": 10, "note": 77, "velocity": 120, "channel": 0}, {"type": "note_off", "time": 64, "note": 77, "velocity": 120, "channel": 0}, {"type": "note_on", "time": 13, "note": 69, "velocity": 118, "channel": 0}, {"type": "note_off", "time": 41, "note": 69, "velocity": 118, "channel": 0}, {"type": "note_on", "time": 0, "note": 70, "velocity": 116, "channel": 0}, {"type": "note_off", "time": 17, "note": 70, "velocity": 116, "channel": 0}, {"type": "note_on", "time": 0, "note": 69, "velocity": 121, "channel": 0}, {"type": "note_off", "time": 52, "note": 69, "velocity": 121, "channel": 0}, {"type": "note_on", "time": 1, "note": 67, "velocity": 117, "channel": 0}, {"type": "note_off", "time": 62, "note": 67, "velocity": 117, "channel": 0}, {"type": "note_on", "time": 19, "note": 69, "velocity": 117, "channel": 0}, {"type": "note_off", "time": 66, "note": 69, "velocity": 117, "channel": 0}, {"type": "note_on", "time": 697, "note": 79, "velocity": 120, "channel": 0}, {"type": "note_off", "time": 43, "note": 79, "velocity": 120, "channel": 0}, {"type": "note_on", "time": 4, "note": 80, "velocity": 117, "channel": 0}, {"type": "note_off", "time": 40, "note": 80, "velocity": 117, "channel": 0}, {"type": "note_on", "time": 71, "note": 79, "velocity": 121, "channel": 0}, {"type": "note_off", "time": 53, "note": 79, "velocity": 121, "channel": 0}, {"type": "note_on", "time": 1, "note": 80, "velocity": 118, "channel": 0}, {"type": "note_off", "time": 124, "note": 80, "velocity": 118, "channel": 0}, {"type": "note_on", "time": 28, "note": 77, "velocity": 108, "channel": 0}, {"type": "note_off", "time": 165, "note": 77, "velocity": 108, "channel": 0}, {"type": "note_on", "time": 34, "note": 75, "velocity": 117, "channel": 0}, {"type": "note_off", "time": 61, "note": 75, "velocity": 117, "channel": 0}, {"type": "note_on", "time": 7, "note": 75, "velocity": 117, "channel": 0}, {"type": "note_off", "time": 32, "note": 75, "velocity": 117, "channel": 0}, {"type": "note_on", "time": 1, "note": 72, "velocity": 121, "channel": 0}, {"type": "note_off", "time": 62, "note": 72, "velocity": 121, "channel": 0}, {"type": "note_on", "time": 36, "note": 70, "velocity": 118, "channel": 0}, {"type": "note_off", "time": 55, "note": 70, "velocity": 118, "channel": 0}, {"type": "note_on", "time": 4, "note": 72, "velocity": 116, "channel": 0}, {"type": "note_off", "time": 15, "note": 72, "velocity": 116, "channel": 0}, {"type": "note_on", "time": 1, "note": 70, "velocity": 119, "channel": 0}, {"type": "note_off", "time": 22, "note": 70, "velocity": 119, "channel": 0}, {"type": "note_on", "time": 2, "note": 69, "velocity": 124, "channel": 0}, {"type": "note_off", "time": 60, "note": 69, "velocity": 124, "channel": 0}, {"type": "note_on", "time": 15, "note": 65, "velocity": 121, "channel": 0}, {"type": "note_off", "time": 81, "note": 65, "velocity": 121, "channel": 0}, {"type": "note_on", "time": 24, "note": 65, "velocity": 114, "channel": 0}, {"type": "note_off", "time": 234, "note": 65, "velocity": 114, "channel": 0}, {"type": "note_on", "time": 347, "note": 60, "velocity": 87, "channel": 0}, {"type": "note_off", "time": 15, "note": 60, "velocity": 87, "channel": 0}, {"type": "note_on", "time": 21, "note": 66, "velocity": 121, "channel": 0}, {"type": "note_off", "time": 17, "note": 66, "velocity": 121, "channel": 0}, {"type": "note_on", "time": 2, "note": 67, "velocity": 122, "channel": 0}, {"type": "note_off", "time": 77, "note": 67, "velocity": 122, "channel": 0}, {"type": "note_on", "time": 8, "note": 69, "velocity": 124, "channel": 0}, {"type": "note_off", "time": 78, "note": 69, "velocity": 124, "channel": 0}, {"type": "note_on", "time": 26, "note": 70, "velocity": 120, "channel": 0}, {"type": "note_off", "time": 64, "note": 70, "velocity": 120, "channel": 0}, {"type": "note_on", "time": 2, "note": 72, "velocity": 115, "channel": 0}, {"type": "note_off", "time": 19, "note": 72, "velocity": 115, "channel": 0}, {"type": "note_on", "time": 1, "note": 70, "velocity": 117, "channel": 0}, {"type": "note_off", "time": 22, "note": 70, "velocity": 117, "channel": 0}, {"type": "note_on", "time": 2, "note": 69, "velocity": 121, "channel": 0}, {"type": "note_off", "time": 50, "note": 69, "velocity": 121, "channel": 0}, {"type": "note_on", "time": 33, "note": 72, "velocity": 117, "channel": 0}, {"type": "note_off", "time": 63, "note": 72, "velocity": 117, "channel": 0}, {"type": "note_on", "time": 27, "note": 71, "velocity": 112, "channel": 0}, {"type": "note_off", "time": 54, "note": 71, "velocity": 112, "channel": 0}, {"type": "note_on", "time": 36, "note": 70, "velocity": 114, "channel": 0}, {"type": "note_off", "time": 59, "note": 70, "velocity": 114, "channel": 0}, {"type": "note_on", "time": 29, "note": 69, "velocity": 120, "channel": 0}, {"type": "note_off", "time": 60, "note": 69, "velocity": 120, "channel": 0}, {"type": "note_on", "time": 13, "note": 67, "velocity": 118, "channel": 0}, {"type": "note_off", "time": 39, "note": 67, "velocity": 118, "channel": 0}, {"type": "note_on", "time": 9, "note": 68, "velocity": 118, "channel": 0}, {"type": "note_off", "time": 50, "note": 68, "velocity": 118, "channel": 0}, {"type": "note_on", "time": 41, "note": 62, "velocity": 83, "channel": 0}, {"type": "note_off", "time": 347, "note": 62, "velocity": 83, "channel": 0}, {"type": "note_on", "time": 33, "note": 56, "velocity": 101, "channel": 0}, {"type": "note_off", "time": 28, "note": 56, "velocity": 101, "channel": 0}, {"type": "note_on", "time": 38, "note": 62, "velocity": 94, "channel": 0}, {"type": "note_off", "time": 140, "note": 62, "velocity": 94, "channel": 0}, {"type": "note_on", "time": 419, "note": 56, "velocity": 101, "channel": 0}, {"type": "note_off", "time": 32, "note": 56, "velocity": 101, "channel": 0}, {"type": "note_on", "time": 26, "note": 62, "velocity": 98, "channel": 0}, {"type": "note_off", "time": 16, "note": 62, "velocity": 98, "channel": 0}, {"type": "note_on", "time": 15, "note": 68, "velocity": 124, "channel": 0}, {"type": "note_off", "time": 71, "note": 68, "velocity": 124, "channel": 0}, {"type": "note_on", "time": 21, "note": 74, "velocity": 117, "channel": 0}, {"type": "note_off", "time": 72, "note": 74, "velocity": 117, "channel": 0}, {"type": "note_on", "time": 493, "note": 55, "velocity": 106, "channel": 0}, {"type": "note_off", "time": 35, "note": 55, "velocity": 106, "channel": 0}, {"type": "note_on", "time": 26, "note": 62, "velocity": 91, "channel": 0}, {"type": "note_off", "time": 19, "note": 62, "velocity": 91, "channel": 0}, {"type": "note_on", "time": 17, "note": 67, "velocity": 123, "channel": 0}, {"type": "note_off", "time": 66, "note": 67, "velocity": 123, "channel": 0}, {"type": "note_on", "time": 24, "note": 74, "velocity": 114, "channel": 0}, {"type": "note_off", "time": 72, "note": 74, "velocity": 114, "channel": 0}, {"type": "note_on", "time": 221, "note": 56, "velocity": 108, "channel": 0}, {"type": "note_off", "time": 47, "note": 56, "velocity": 108, "channel": 0}, {"type": "note_on", "time": 34, "note": 55, "velocity": 107, "channel": 0}, {"type": "note_off", "time": 78, "note": 55, "velocity": 107, "channel": 0}, {"type": "note_on", "time": 10, "note": 62, "velocity": 95, "channel": 0}, {"type": "note_off", "time": 49, "note": 62, "velocity": 95, "channel": 0}, {"type": "note_on", "time": 24, "note": 67, "velocity": 126, "channel": 0}, {"type": "note_off", "time": 57, "note": 67, "velocity": 126, "channel": 0}, {"type": "note_on", "time": 5, "note": 74, "velocity": 102, "channel": 0}, {"type": "note_off", "time": 20, "note": 74, "velocity": 102, "channel": 0}, {"type": "note_on", "time": 30, "note": 66, "velocity": 114, "channel": 0}, {"type": "note_off", "time": 57, "note": 66, "velocity": 114, "channel": 0}, {"type": "note_on", "time": 20, "note": 74, "velocity": 113, "channel": 0}, {"type": "note_off", "time": 60, "note": 74, "velocity": 113, "channel": 0}, {"type": "note_on", "time": 87, "note": 54, "velocity": 101, "channel": 0}, {"type": "note_off", "time": 21, "note": 54, "velocity": 101, "channel": 0}, {"type": "note_on", "time": 40, "note": 62, "velocity": 99, "channel": 0}, {"type": "note_off", "time": 54, "note": 62, "velocity": 99, "channel": 0}, {"type": "note_on", "time": 38, "note": 66, "velocity": 118, "channel": 0}, {"type": "note_off", "time": 66, "note": 66, "velocity": 118, "channel": 0}, {"type": "note_on", "time": 15, "note": 74, "velocity": 108, "channel": 0}, {"type": "note_off", "time": 158, "note": 74, "velocity": 108, "channel": 0}, {"type": "note_on", "time": 47, "note": 65, "velocity": 108, "channel": 0}, {"type": "note_off", "time": 58, "note": 65, "velocity": 108, "channel": 0}, {"type": "note_on", "time": 1121, "note": 65, "velocity": 120, "channel": 0}, {"type": "note_off", "time": 55, "note": 65, "velocity": 120, "channel": 0}, {"type": "note_on", "time": 2, "note": 67, "velocity": 125, "channel": 0}, {"type": "note_off", "time": 43, "note": 67, "velocity": 125, "channel": 0}, {"type": "note_on", "time": 4, "note": 68, "velocity": 123, "channel": 0}, {"type": "note_off", "time": 37, "note": 68, "velocity": 123, "channel": 0}, {"type": "note_on", "time": 4, "note": 69, "velocity": 120, "channel": 0}, {"type": "note_off", "time": 50, "note": 69, "velocity": 120, "channel": 0}, {"type": "note_on", "time": 2, "note": 70, "velocity": 119, "channel": 0}, {"type": "note_off", "time": 38, "note": 70, "velocity": 119, "channel": 0}, {"type": "note_on", "time": 2, "note": 71, "velocity": 116, "channel": 0}, {"type": "note_off", "time": 38, "note": 71, "velocity": 116, "channel": 0}, {"type": "note_on", "time": 1, "note": 72, "velocity": 118, "channel": 0}, {"type": "note_off", "time": 63, "note": 72, "velocity": 118, "channel": 0}, {"type": "note_on", "time": 11, "note": 77, "velocity": 121, "channel": 0}, {"type": "note_off", "time": 64, "note": 77, "velocity": 121, "channel": 0}, {"type": "note_on", "time": 25, "note": 75, "velocity": 117, "channel": 0}, {"type": "note_off", "time": 60, "note": 75, "velocity": 117, "channel": 0}, {"type": "note_on", "time": 42, "note": 72, "velocity": 117, "channel": 0}, {"type": "note_off", "time": 89, "note": 72, "velocity": 117, "channel": 0}, {"type": "note_on", "time": 18, "note": 72, "velocity": 106, "channel": 0}, {"type": "note_off", "time": 10, "note": 72, "velocity": 106, "channel": 0}, {"type": "note_on", "time": 22, "note": 70, "velocity": 107, "channel": 0}, {"type": "note_off", "time": 39, "note": 70, "velocity": 107, "channel": 0}, {"type": "note_on", "time": 389, "note": 62, "velocity": 94, "channel": 0}, {"type": "note_off", "time": 10, "note": 62, "velocity": 94, "channel": 0}, {"type": "note_on", "time": 13, "note": 65, "velocity": 121, "channel": 0}, {"type": "note_off", "time": 43, "note": 65, "velocity": 121, "channel": 0}, {"type": "note_on", "time": 6, "note": 65, "velocity": 119, "channel": 0}, {"type": "note_off", "time": 29, "note": 65, "velocity": 119, "channel": 0}, {"type": "note_on", "time": 3, "note": 69, "velocity": 121, "channel": 0}, {"type": "note_off", "time": 47, "note": 69, "velocity": 121, "channel": 0}, {"type": "note_on", "time": 11, "note": 69, "velocity": 122, "channel": 0}, {"type": "note_off", "time": 24, "note": 69, "velocity": 122, "channel": 0}, {"type": "note_on", "time": 5, "note": 72, "velocity": 119, "channel": 0}, {"type": "note_off", "time": 51, "note": 72, "velocity": 119, "channel": 0}, {"type": "note_on", "time": 11, "note": 72, "velocity": 119, "channel": 0}, {"type": "note_off", "time": 27, "note": 72, "velocity": 119, "channel": 0}, {"type": "note_on", "time": 3, "note": 70, "velocity": 115, "channel": 0}, {"type": "note_off", "time": 42, "note": 70, "velocity": 115, "channel": 0}, {"type": "note_on", "time": 2, "note": 72, "velocity": 104, "channel": 0}, {"type": "note_off", "time": 14, "note": 72, "velocity": 104, "channel": 0}, {"type": "note_on", "time": 7, "note": 70, "velocity": 114, "channel": 0}, {"type": "note_off", "time": 28, "note": 70, "velocity": 114, "channel": 0}, {"type": "note_on", "time": 4, "note": 69, "velocity": 122, "channel": 0}, {"type": "note_off", "time": 48, "note": 69, "velocity": 122, "channel": 0}, {"type": "note_on", "time": 41, "note": 65, "velocity": 102, "channel": 0}, {"type": "note_off", "time": 255, "note": 65, "velocity": 102, "channel": 0}, {"type": "note_on", "time": 346, "note": 65, "velocity": 115, "channel": 0}, {"type": "note_off", "time": 53, "note": 65, "velocity": 115, "channel": 0}, {"type": "note_on", "time": 9, "note": 67, "velocity": 123, "channel": 0}, {"type": "note_off", "time": 23, "note": 67, "velocity": 123, "channel": 0}, {"type": "note_on", "time": 8, "note": 68, "velocity": 121, "channel": 0}, {"type": "note_off", "time": 57, "note": 68, "velocity": 121, "channel": 0}, {"type": "note_on", "time": 42, "note": 65, "velocity": 95, "channel": 0}, {"type": "note_off", "time": 774, "note": 65, "velocity": 95, "channel": 0}, {"type": "note_on", "time": 37, "note": 67, "velocity": 121, "channel": 0}, {"type": "note_off", "time": 35, "note": 67, "velocity": 121, "channel": 0}, {"type": "note_on", "time": 4, "note": 68, "velocity": 119, "channel": 0}, {"type": "note_off", "time": 57, "note": 68, "velocity": 119, "channel": 0}, {"type": "note_on", "time": 77, "note": 67, "velocity": 122, "channel": 0}, {"type": "note_off", "time": 30, "note": 67, "velocity": 122, "channel": 0}, {"type": "note_on", "time": 4, "note": 68, "velocity": 120, "channel": 0}, {"type": "note_off", "time": 69, "note": 68, "velocity": 120, "channel": 0}, {"type": "note_on", "time": 5, "note": 67, "velocity": 112, "channel": 0}, {"type": "note_off", "time": 223, "note": 67, "velocity": 112, "channel": 0}, {"type": "note_on", "time": 380, "note": 65, "velocity": 112, "channel": 0}, {"type": "note_off", "time": 54, "note": 65, "velocity": 112, "channel": 0}, {"type": "note_on", "time": 9, "note": 67, "velocity": 119, "channel": 0}, {"type": "note_off", "time": 32, "note": 67, "velocity": 119, "channel": 0}, {"type": "note_on", "time": 3, "note": 68, "velocity": 124, "channel": 0}, {"type": "note_off", "time": 48, "note": 68, "velocity": 124, "channel": 0}, {"type": "note_on", "time": 3, "note": 70, "velocity": 115, "channel": 0}, {"type": "note_off", "time": 46, "note": 70, "velocity": 115, "channel": 0}, {"type": "note_on", "time": 17, "note": 71, "velocity": 111, "channel": 0}, {"type": "note_off", "time": 40, "note": 71, "velocity": 111, "channel": 0}, {"type": "note_on", "time": 19, "note": 72, "velocity": 109, "channel": 0}, {"type": "note_off", "time": 58, "note": 72, "velocity": 109, "channel": 0}, {"type": "note_on", "time": 31, "note": 71, "velocity": 119, "channel": 0}, {"type": "note_off", "time": 49, "note": 71, "velocity": 119, "channel": 0}, {"type": "note_on", "time": 9, "note": 72, "velocity": 119, "channel": 0}, {"type": "note_off", "time": 140, "note": 72, "velocity": 119, "channel": 0}, {"type": "note_on", "time": 13, "note": 72, "velocity": 114, "channel": 0}, {"type": "note_off", "time": 28, "note": 72, "velocity": 114, "channel": 0}, {"type": "note_on", "time": 2, "note": 71, "velocity": 108, "channel": 0}, {"type": "note_off", "time": 20, "note": 71, "velocity": 108, "channel": 0}, {"type": "note_on", "time": 3, "note": 68, "velocity": 124, "channel": 0}, {"type": "note_off", "time": 40, "note": 68, "velocity": 124, "channel": 0}, {"type": "note_on", "time": 2, "note": 65, "velocity": 106, "channel": 0}, {"type": "note_off", "time": 69, "note": 65, "velocity": 106, "channel": 0}, {"type": "note_on", "time": 17, "note": 65, "velocity": 115, "channel": 0}, {"type": "note_off", "time": 189, "note": 65, "velocity": 115, "channel": 0}, {"type": "note_on", "time": 19, "note": 62, "velocity": 85, "channel": 0}, {"type": "note_off", "time": 148, "note": 62, "velocity": 85, "channel": 0}, {"type": "note_on", "time": 39, "note": 55, "velocity": 105, "channel": 0}, {"type": "note_off", "time": 32, "note": 55, "velocity": 105, "channel": 0}, {"type": "note_on", "time": 340, "note": 55, "velocity": 108, "channel": 0}, {"type": "note_off", "time": 30, "note": 55, "velocity": 108, "channel": 0}, {"type": "note_on", "time": 13, "note": 56, "velocity": 110, "channel": 0}, {"type": "note_off", "time": 30, "note": 56, "velocity": 110, "channel": 0}, {"type": "note_on", "time": 69, "note": 62, "velocity": 94, "channel": 0}, {"type": "note_off", "time": 26, "note": 62, "velocity": 94, "channel": 0}, {"type": "note_on", "time": 14, "note": 67, "velocity": 125, "channel": 0}, {"type": "note_off", "time": 55, "note": 67, "velocity": 125, "channel": 0}, {"type": "note_on", "time": 8, "note": 64, "velocity": 83, "channel": 0}, {"type": "note_off", "time": 96, "note": 64, "velocity": 83, "channel": 0}, {"type": "note_on", "time": 337, "note": 57, "velocity": 99, "channel": 0}, {"type": "note_off", "time": 35, "note": 57, "velocity": 99, "channel": 0}, {"type": "note_on", "time": 2, "note": 60, "velocity": 88, "channel": 0}, {"type": "note_off", "time": 28, "note": 60, "velocity": 88, "channel": 0}, {"type": "note_on", "time": 22, "note": 65, "velocity": 120, "channel": 0}, {"type": "note_off", "time": 43, "note": 65, "velocity": 120, "channel": 0}, {"type": "note_on", "time": 2, "note": 67, "velocity": 127, "channel": 0}, {"type": "note_off", "time": 40, "note": 67, "velocity": 127, "channel": 0}, {"type": "note_on", "time": 4, "note": 69, "velocity": 122, "channel": 0}, {"type": "note_off", "time": 48, "note": 69, "velocity": 122, "channel": 0}, {"type": "note_on", "time": 1, "note": 70, "velocity": 121, "channel": 0}, {"type": "note_off", "time": 39, "note": 70, "velocity": 121, "channel": 0}, {"type": "note_on", "time": 3, "note": 69, "velocity": 111, "channel": 0}, {"type": "note_off", "time": 16, "note": 69, "velocity": 111, "channel": 0}, {"type": "note_on", "time": 3, "note": 70, "velocity": 113, "channel": 0}, {"type": "note_off", "time": 28, "note": 70, "velocity": 113, "channel": 0}, {"type": "note_on", "time": 2, "note": 69, "velocity": 120, "channel": 0}, {"type": "note_off", "time": 42, "note": 69, "velocity": 120, "channel": 0}, {"type": "note_on", "time": 1, "note": 67, "velocity": 122, "channel": 0}, {"type": "note_off", "time": 50, "note": 67, "velocity": 122, "channel": 0}, {"type": "note_on", "time": 47, "note": 72, "velocity": 118, "channel": 0}, {"type": "note_off", "time": 48, "note": 72, "velocity": 118, "channel": 0}, {"type": "note_on", "time": 43, "note": 65, "velocity": 111, "channel": 0}, {"type": "note_off", "time": 54, "note": 65, "velocity": 111, "channel": 0}, {"type": "note_on", "time": 4, "note": 67, "velocity": 109, "channel": 0}, {"type": "note_off", "time": 215, "note": 67, "velocity": 109, "channel": 0}, {"type": "note_on", "time": 201, "note": 60, "velocity": 105, "channel": 0}, {"type": "note_off", "time": 40, "note": 60, "velocity": 105, "channel": 0}, {"type": "note_on", "time": 6, "note": 62, "velocity": 97, "channel": 0}, {"type": "note_off", "time": 27, "note": 62, "velocity": 97, "channel": 0}, {"type": "note_on", "time": 21, "note": 63, "velocity": 93, "channel": 0}, {"type": "note_off", "time": 30, "note": 63, "velocity": 93, "channel": 0}, {"type": "note_on", "time": 7, "note": 66, "velocity": 119, "channel": 0}, {"type": "note_off", "time": 48, "note": 66, "velocity": 119, "channel": 0}, {"type": "note_on", "time": 4, "note": 69, "velocity": 94, "channel": 0}, {"type": "note_off", "time": 35, "note": 69, "velocity": 94, "channel": 0}, {"type": "note_on", "time": 18, "note": 72, "velocity": 118, "channel": 0}, {"type": "note_off", "time": 43, "note": 72, "velocity": 118, "channel": 0}, {"type": "note_on", "time": 3, "note": 75, "velocity": 118, "channel": 0}, {"type": "note_off", "time": 53, "note": 75, "velocity": 118, "channel": 0}, {"type": "note_on", "time": 48, "note": 74, "velocity": 120, "channel": 0}, {"type": "note_off", "time": 140, "note": 74, "velocity": 120, "channel": 0}, {"type": "note_on", "time": 34, "note": 76, "velocity": 111, "channel": 0}, {"type": "note_off", "time": 15, "note": 76, "velocity": 111, "channel": 0}, {"type": "note_on", "time": 2, "note": 77, "velocity": 115, "channel": 0}, {"type": "note_off", "time": 54, "note": 77, "velocity": 115, "channel": 0}, {"type": "note_on", "time": 333, "note": 77, "velocity": 114, "channel": 0}, {"type": "note_off", "time": 51, "note": 77, "velocity": 114, "channel": 0}, {"type": "note_on", "time": 4, "note": 76, "velocity": 120, "channel": 0}, {"type": "note_off", "time": 31, "note": 76, "velocity": 120, "channel": 0}, {"type": "note_on", "time": 3, "note": 75, "velocity": 116, "channel": 0}, {"type": "note_off", "time": 32, "note": 75, "velocity": 116, "channel": 0}, {"type": "note_on", "time": 2, "note": 74, "velocity": 119, "channel": 0}, {"type": "note_off", "time": 60, "note": 74, "velocity": 119, "channel": 0}, {"type": "note_on", "time": 34, "note": 68, "velocity": 122, "channel": 0}, {"type": "note_off", "time": 47, "note": 68, "velocity": 122, "channel": 0}, {"type": "note_on", "time": 2, "note": 69, "velocity": 119, "channel": 0}, {"type": "note_off", "time": 48, "note": 69, "velocity": 119, "channel": 0}, {"type": "note_on", "time": 2, "note": 70, "velocity": 119, "channel": 0}, {"type": "note_off", "time": 42, "note": 70, "velocity": 119, "channel": 0}, {"type": "note_on", "time": 3, "note": 71, "velocity": 117, "channel": 0}, {"type": "note_off", "time": 33, "note": 71, "velocity": 117, "channel": 0}, {"type": "note_on", "time": 11, "note": 72, "velocity": 114, "channel": 0}, {"type": "note_off", "time": 50, "note": 72, "velocity": 114, "channel": 0}, {"type": "note_on", "time": 2, "note": 69, "velocity": 116, "channel": 0}, {"type": "note_off", "time": 46, "note": 69, "velocity": 116, "channel": 0}, {"type": "note_on", "time": 4, "note": 65, "velocity": 108, "channel": 0}, {"type": "note_off", "time": 35, "note": 65, "velocity": 108, "channel": 0}, {"type": "note_on", "time": 16, "note": 62, "velocity": 99, "channel": 0}, {"type": "note_off", "time": 20, "note": 62, "velocity": 99, "channel": 0}, {"type": "note_on", "time": 14, "note": 55, "velocity": 84, "channel": 0}, {"type": "note_off", "time": 138, "note": 55, "velocity": 84, "channel": 0}, {"type": "note_on", "time": 426, "note": 72, "velocity": 117, "channel": 0}, {"type": "note_off", "time": 53, "note": 72, "velocity": 117, "channel": 0}, {"type": "note_on", "time": 2, "note": 74, "velocity": 104, "channel": 0}, {"type": "note_off", "time": 13, "note": 74, "velocity": 104, "channel": 0}, {"type": "note_on", "time": 2, "note": 72, "velocity": 117, "channel": 0}, {"type": "note_off", "time": 33, "note": 72, "velocity": 117, "channel": 0}, {"type": "note_on", "time": 2, "note": 71, "velocity": 115, "channel": 0}, {"type": "note_off", "time": 54, "note": 71, "velocity": 115, "channel": 0}, {"type": "note_on", "time": 3, "note": 70, "velocity": 115, "channel": 0}, {"type": "note_off", "time": 36, "note": 70, "velocity": 115, "channel": 0}, {"type": "note_on", "time": 8, "note": 68, "velocity": 115, "channel": 0}, {"type": "note_off", "time": 42, "note": 68, "velocity": 115, "channel": 0}, {"type": "note_on", "time": 6, "note": 69, "velocity": 120, "channel": 0}, {"type": "note_off", "time": 47, "note": 69, "velocity": 120, "channel": 0}, {"type": "note_on", "time": 3, "note": 70, "velocity": 119, "channel": 0}, {"type": "note_off", "time": 43, "note": 70, "velocity": 119, "channel": 0}, {"type": "note_on", "time": 7, "note": 71, "velocity": 119, "channel": 0}, {"type": "note_off", "time": 34, "note": 71, "velocity": 119, "channel": 0}, {"type": "note_on", "time": 2, "note": 72, "velocity": 115, "channel": 0}, {"type": "note_off", "time": 59, "note": 72, "velocity": 115, "channel": 0}, {"type": "note_on", "time": 2, "note": 73, "velocity": 118, "channel": 0}, {"type": "note_off", "time": 37, "note": 73, "velocity": 118, "channel": 0}, {"type": "note_on", "time": 4, "note": 74, "velocity": 117, "channel": 0}, {"type": "note_off", "time": 49, "note": 74, "velocity": 117, "channel": 0}, {"type": "note_on", "time": 1, "note": 70, "velocity": 116, "channel": 0}, {"type": "note_off", "time": 38, "note": 70, "velocity": 116, "channel": 0}, {"type": "note_on", "time": 5, "note": 67, "velocity": 114, "channel": 0}, {"type": "note_off", "time": 46, "note": 67, "velocity": 114, "channel": 0}, {"type": "note_on", "time": 4, "note": 69, "velocity": 120, "channel": 0}, {"type": "note_off", "time": 45, "note": 69, "velocity": 120, "channel": 0}, {"type": "note_on", "time": 5, "note": 70, "velocity": 119, "channel": 0}, {"type": "note_off", "time": 45, "note": 70, "velocity": 119, "channel": 0}, {"type": "note_on", "time": 3, "note": 71, "velocity": 116, "channel": 0}, {"type": "note_off", "time": 35, "note": 71, "velocity": 116, "channel": 0}, {"type": "note_on", "time": 2, "note": 72, "velocity": 115, "channel": 0}, {"type": "note_off", "time": 65, "note": 72, "velocity": 115, "channel": 0}, {"type": "note_on", "time": 314, "note": 79, "velocity": 113, "channel": 0}, {"type": "note_off", "time": 28, "note": 79, "velocity": 113, "channel": 0}, {"type": "note_on", "time": 4, "note": 80, "velocity": 111, "channel": 0}, {"type": "note_off", "time": 28, "note": 80, "velocity": 111, "channel": 0}, {"type": "note_on", "time": 49, "note": 79, "velocity": 119, "channel": 0}, {"type": "note_off", "time": 33, "note": 79, "velocity": 119, "channel": 0}, {"type": "note_on", "time": 3, "note": 80, "velocity": 118, "channel": 0}, {"type": "note_off", "time": 58, "note": 80, "velocity": 118, "channel": 0}, {"type": "note_on", "time": 10, "note": 77, "velocity": 118, "channel": 0}, {"type": "note_off", "time": 364, "note": 77, "velocity": 118, "channel": 0}, {"type": "note_on", "time": 30, "note": 75, "velocity": 118, "channel": 0}, {"type": "note_off", "time": 55, "note": 75, "velocity": 118, "channel": 0}, {"type": "note_on", "time": 4, "note": 75, "velocity": 119, "channel": 0}, {"type": "note_off", "time": 41, "note": 75, "velocity": 119, "channel": 0}, {"type": "note_on", "time": 3, "note": 72, "velocity": 117, "channel": 0}, {"type": "note_off", "time": 45, "note": 72, "velocity": 117, "channel": 0}, {"type": "note_on", "time": 9, "note": 72, "velocity": 118, "channel": 0}, {"type": "note_off", "time": 39, "note": 72, "velocity": 118, "channel": 0}, {"type": "note_on", "time": 8, "note": 71, "velocity": 118, "channel": 0}, {"type": "note_off", "time": 62, "note": 71, "velocity": 118, "channel": 0}, {"type": "note_on", "time": 8, "note": 70, "velocity": 112, "channel": 0}, {"type": "note_off", "time": 34, "note": 70, "velocity": 112, "channel": 0}, {"type": "note_on", "time": 45, "note": 65, "velocity": 116, "channel": 0}, {"type": "note_off", "time": 57, "note": 65, "velocity": 116, "channel": 0}, {"type": "note_on", "time": 54, "note": 67, "velocity": 123, "channel": 0}, {"type": "note_off", "time": 103, "note": 67, "velocity": 123, "channel": 0}, {"type": "note_on", "time": 16, "note": 65, "velocity": 112, "channel": 0}, {"type": "note_off", "time": 169, "note": 65, "velocity": 112, "channel": 0}, {"type": "note_on", "time": 32, "note": 65, "velocity": 119, "channel": 0}, {"type": "note_off", "time": 37, "note": 65, "velocity": 119, "channel": 0}, {"type": "note_on", "time": 10, "note": 67, "velocity": 122, "channel": 0}, {"type": "note_off", "time": 34, "note": 67, "velocity": 122, "channel": 0}, {"type": "note_on", "time": 5, "note": 68, "velocity": 121, "channel": 0}, {"type": "note_off", "time": 47, "note": 68, "velocity": 121, "channel": 0}, {"type": "note_on", "time": 4, "note": 70, "velocity": 120, "channel": 0}, {"type": "note_off", "time": 39, "note": 70, "velocity": 120, "channel": 0}, {"type": "note_on", "time": 14, "note": 71, "velocity": 108, "channel": 0}, {"type": "note_off", "time": 40, "note": 71, "velocity": 108, "channel": 0}, {"type": "note_on", "time": 6, "note": 70, "velocity": 118, "channel": 0}, {"type": "note_off", "time": 41, "note": 70, "velocity": 118, "channel": 0}, {"type": "note_on", "time": 5, "note": 68, "velocity": 120, "channel": 0}, {"type": "note_off", "time": 50, "note": 68, "velocity": 120, "channel": 0}, {"type": "note_on", "time": 47, "note": 65, "velocity": 99, "channel": 0}, {"type": "note_off", "time": 151, "note": 65, "velocity": 99, "channel": 0}, {"type": "note_on", "time": 4, "note": 60, "velocity": 107, "channel": 0}, {"type": "note_off", "time": 22, "note": 60, "velocity": 107, "channel": 0}, {"type": "note_on", "time": 77, "note": 65, "velocity": 119, "channel": 0}, {"type": "note_off", "time": 54, "note": 65, "velocity": 119, "channel": 0}, {"type": "note_on", "time": 553, "note": 65, "velocity": 120, "channel": 0}, {"type": "note_off", "time": 53, "note": 65, "velocity": 120, "channel": 0}, {"type": "note_on", "time": 4, "note": 69, "velocity": 121, "channel": 0}, {"type": "note_off", "time": 36, "note": 69, "velocity": 121, "channel": 0}, {"type": "note_on", "time": 10, "note": 73, "velocity": 123, "channel": 0}, {"type": "note_off", "time": 54, "note": 73, "velocity": 123, "channel": 0}, {"type": "note_on", "time": 4, "note": 69, "velocity": 122, "channel": 0}, {"type": "note_off", "time": 43, "note": 69, "velocity": 122, "channel": 0}, {"type": "note_on", "time": 5, "note": 65, "velocity": 113, "channel": 0}, {"type": "note_off", "time": 45, "note": 65, "velocity": 113, "channel": 0}, {"type": "note_on", "time": 8, "note": 61, "velocity": 104, "channel": 0}, {"type": "note_off", "time": 26, "note": 61, "velocity": 104, "channel": 0}, {"type": "note_on", "time": 35, "note": 57, "velocity": 93, "channel": 0}, {"type": "note_off", "time": 102, "note": 57, "velocity": 93, "channel": 0}, {"type": "note_on", "time": 97, "note": 61, "velocity": 93, "channel": 0}, {"type": "note_off", "time": 22, "note": 61, "velocity": 93, "channel": 0}, {"type": "note_on", "time": 15, "note": 65, "velocity": 116, "channel": 0}, {"type": "note_off", "time": 67, "note": 65, "velocity": 116, "channel": 0}, {"type": "note_on", "time": 74, "note": 66, "velocity": 114, "channel": 0}, {"type": "note_off", "time": 35, "note": 66, "velocity": 114, "channel": 0}, {"type": "note_on", "time": 5, "note": 69, "velocity": 119, "channel": 0}, {"type": "note_off", "time": 136, "note": 69, "velocity": 119, "channel": 0}, {"type": "note_on", "time": 6, "note": 67, "velocity": 121, "channel": 0}, {"type": "note_off", "time": 52, "note": 67, "velocity": 121, "channel": 0}, {"type": "note_on", "time": 2, "note": 65, "velocity": 109, "channel": 0}, {"type": "note_off", "time": 54, "note": 65, "velocity": 109, "channel": 0}, {"type": "note_on", "time": 3, "note": 62, "velocity": 101, "channel": 0}, {"type": "note_off", "time": 43, "note": 62, "velocity": 101, "channel": 0}, {"type": "note_on", "time": 4, "note": 57, "velocity": 102, "channel": 0}, {"type": "note_off", "time": 40, "note": 57, "velocity": 102, "channel": 0}, {"type": "note_on", "time": 38, "note": 58, "velocity": 103, "channel": 0}, {"type": "note_off", "time": 30, "note": 58, "velocity": 103, "channel": 0}, {"type": "note_on", "time": 17, "note": 62, "velocity": 89, "channel": 0}, {"type": "note_off", "time": 17, "note": 62, "velocity": 89, "channel": 0}, {"type": "note_on", "time": 7, "note": 65, "velocity": 118, "channel": 0}, {"type": "note_off", "time": 69, "note": 65, "velocity": 118, "channel": 0}, {"type": "note_on", "time": 2, "note": 67, "velocity": 121, "channel": 0}, {"type": "note_off", "time": 52, "note": 67, "velocity": 121, "channel": 0}, {"type": "note_on", "time": 187, "note": 66, "velocity": 118, "channel": 0}, {"type": "note_off", "time": 74, "note": 66, "velocity": 118, "channel": 0}, {"type": "note_on", "time": 4, "note": 68, "velocity": 121, "channel": 0}, {"type": "note_off", "time": 90, "note": 68, "velocity": 121, "channel": 0}, {"type": "note_on", "time": 26, "note": 67, "velocity": 120, "channel": 0}, {"type": "note_off", "time": 45, "note": 67, "velocity": 120, "channel": 0}, {"type": "note_on", "time": 3, "note": 65, "velocity": 114, "channel": 0}, {"type": "note_off", "time": 49, "note": 65, "velocity": 114, "channel": 0}, {"type": "note_on", "time": 6, "note": 62, "velocity": 101, "channel": 0}, {"type": "note_off", "time": 31, "note": 62, "velocity": 101, "channel": 0}, {"type": "note_on", "time": 8, "note": 55, "velocity": 100, "channel": 0}, {"type": "note_off", "time": 52, "note": 55, "velocity": 100, "channel": 0}, {"type": "note_on", "time": 16, "note": 56, "velocity": 109, "channel": 0}, {"type": "note_off", "time": 30, "note": 56, "velocity": 109, "channel": 0}, {"type": "note_on", "time": 15, "note": 59, "velocity": 100, "channel": 0}, {"type": "note_off", "time": 26, "note": 59, "velocity": 100, "channel": 0}, {"type": "note_on", "time": 22, "note": 62, "velocity": 101, "channel": 0}, {"type": "note_off", "time": 29, "note": 62, "velocity": 101, "channel": 0}, {"type": "note_on", "time": 11, "note": 66, "velocity": 114, "channel": 0}, {"type": "note_off", "time": 50, "note": 66, "velocity": 114, "channel": 0}, {"type": "note_on", "time": 12, "note": 67, "velocity": 120, "channel": 0}, {"type": "note_off", "time": 38, "note": 67, "velocity": 120, "channel": 0}, {"type": "note_on", "time": 229, "note": 67, "velocity": 124, "channel": 0}, {"type": "note_off", "time": 25, "note": 67, "velocity": 124, "channel": 0}, {"type": "note_on", "time": 2, "note": 66, "velocity": 118, "channel": 0}, {"type": "note_off", "time": 18, "note": 66, "velocity": 118, "channel": 0}, {"type": "note_on", "time": 2, "note": 68, "velocity": 119, "channel": 0}, {"type": "note_off", "time": 18, "note": 68, "velocity": 119, "channel": 0}, {"type": "note_on", "time": 3, "note": 67, "velocity": 120, "channel": 0}, {"type": "note_off", "time": 27, "note": 67, "velocity": 120, "channel": 0}, {"type": "note_on", "time": 11, "note": 65, "velocity": 116, "channel": 0}, {"type": "note_off", "time": 35, "note": 65, "velocity": 116, "channel": 0}, {"type": "note_on", "time": 13, "note": 62, "velocity": 104, "channel": 0}, {"type": "note_off", "time": 32, "note": 62, "velocity": 104, "channel": 0}, {"type": "note_on", "time": 7, "note": 57, "velocity": 109, "channel": 0}, {"type": "note_off", "time": 35, "note": 57, "velocity": 109, "channel": 0}, {"type": "note_on", "time": 216, "note": 55, "velocity": 105, "channel": 0}, {"type": "note_off", "time": 35, "note": 55, "velocity": 105, "channel": 0}, {"type": "note_on", "time": 301, "note": 57, "velocity": 109, "channel": 0}, {"type": "note_off", "time": 43, "note": 57, "velocity": 109, "channel": 0}, {"type": "note_on", "time": 10, "note": 58, "velocity": 102, "channel": 0}, {"type": "note_off", "time": 34, "note": 58, "velocity": 102, "channel": 0}, {"type": "note_on", "time": 16, "note": 60, "velocity": 109, "channel": 0}, {"type": "note_off", "time": 47, "note": 60, "velocity": 109, "channel": 0}, {"type": "note_on", "time": 11, "note": 62, "velocity": 104, "channel": 0}, {"type": "note_off", "time": 28, "note": 62, "velocity": 104, "channel": 0}, {"type": "note_on", "time": 9, "note": 63, "velocity": 109, "channel": 0}, {"type": "note_off", "time": 55, "note": 63, "velocity": 109, "channel": 0}, {"type": "note_on", "time": 59, "note": 62, "velocity": 102, "channel": 0}, {"type": "note_off", "time": 61, "note": 62, "velocity": 102, "channel": 0}, {"type": "note_on", "time": 32, "note": 60, "velocity": 87, "channel": 0}, {"type": "note_off", "time": 19, "note": 60, "velocity": 87, "channel": 0}, {"type": "note_on", "time": 38, "note": 66, "velocity": 119, "channel": 0}, {"type": "note_off", "time": 30, "note": 66, "velocity": 119, "channel": 0}, {"type": "note_on", "time": 28, "note": 69, "velocity": 108, "channel": 0}, {"type": "note_off", "time": 29, "note": 69, "velocity": 108, "channel": 0}, {"type": "note_on", "time": 9, "note": 74, "velocity": 120, "channel": 0}, {"type": "note_off", "time": 34, "note": 74, "velocity": 120, "channel": 0}, {"type": "note_on", "time": 11, "note": 68, "velocity": 108, "channel": 0}, {"type": "note_off", "time": 42, "note": 68, "velocity": 108, "channel": 0}, {"type": "note_on", "time": 5, "note": 69, "velocity": 120, "channel": 0}, {"type": "note_off", "time": 45, "note": 69, "velocity": 120, "channel": 0}, {"type": "note_on", "time": 8, "note": 70, "velocity": 119, "channel": 0}, {"type": "note_off", "time": 39, "note": 70, "velocity": 119, "channel": 0}, {"type": "note_on", "time": 16, "note": 71, "velocity": 118, "channel": 0}, {"type": "note_off", "time": 27, "note": 71, "velocity": 118, "channel": 0}, {"type": "note_on", "time": 12, "note": 72, "velocity": 118, "channel": 0}, {"type": "note_off", "time": 49, "note": 72, "velocity": 118, "channel": 0}, {"type": "note_on", "time": 3, "note": 73, "velocity": 120, "channel": 0}, {"type": "note_off", "time": 39, "note": 73, "velocity": 120, "channel": 0}, {"type": "note_on", "time": 9, "note": 74, "velocity": 116, "channel": 0}, {"type": "note_off", "time": 48, "note": 74, "velocity": 116, "channel": 0}, {"type": "note_on", "time": 11, "note": 68, "velocity": 116, "channel": 0}, {"type": "note_off", "time": 36, "note": 68, "velocity": 116, "channel": 0}, {"type": "note_on", "time": 2, "note": 70, "velocity": 112, "channel": 0}, {"type": "note_off", "time": 24, "note": 70, "velocity": 112, "channel": 0}, {"type": "note_on", "time": 5, "note": 69, "velocity": 117, "channel": 0}, {"type": "note_off", "time": 23, "note": 69, "velocity": 117, "channel": 0}, {"type": "note_on", "time": 2, "note": 65, "velocity": 113, "channel": 0}, {"type": "note_off", "time": 22, "note": 65, "velocity": 113, "channel": 0}, {"type": "note_on", "time": 35, "note": 62, "velocity": 103, "channel": 0}, {"type": "note_off", "time": 39, "note": 62, "velocity": 103, "channel": 0}, {"type": "note_on", "time": 468, "note": 57, "velocity": 99, "channel": 0}, {"type": "note_off", "time": 36, "note": 57, "velocity": 99, "channel": 0}, {"type": "note_on", "time": 3, "note": 58, "velocity": 100, "channel": 0}, {"type": "note_off", "time": 43, "note": 58, "velocity": 100, "channel": 0}, {"type": "note_on", "time": 8, "note": 60, "velocity": 109, "channel": 0}, {"type": "note_off", "time": 45, "note": 60, "velocity": 109, "channel": 0}, {"type": "note_on", "time": 47, "note": 57, "velocity": 106, "channel": 0}, {"type": "note_off", "time": 44, "note": 57, "velocity": 106, "channel": 0}, {"type": "note_on", "time": 3, "note": 58, "velocity": 107, "channel": 0}, {"type": "note_off", "time": 53, "note": 58, "velocity": 107, "channel": 0}, {"type": "note_on", "time": 4, "note": 60, "velocity": 108, "channel": 0}, {"type": "note_off", "time": 53, "note": 60, "velocity": 108, "channel": 0}, {"type": "note_on", "time": 8, "note": 61, "velocity": 96, "channel": 0}, {"type": "note_off", "time": 87, "note": 61, "velocity": 96, "channel": 0}, {"type": "note_on", "time": 49, "note": 60, "velocity": 105, "channel": 0}, {"type": "note_off", "time": 151, "note": 60, "velocity": 105, "channel": 0}, {"type": "note_on", "time": 32, "note": 57, "velocity": 107, "channel": 0}, {"type": "note_off", "time": 39, "note": 57, "velocity": 107, "channel": 0}, {"type": "note_on", "time": 5, "note": 58, "velocity": 104, "channel": 0}, {"type": "note_off", "time": 31, "note": 58, "velocity": 104, "channel": 0}, {"type": "note_on", "time": 8, "note": 60, "velocity": 109, "channel": 0}, {"type": "note_off", "time": 60, "note": 60, "velocity": 109, "channel": 0}, {"type": "note_on", "time": 7, "note": 62, "velocity": 105, "channel": 0}, {"type": "note_off", "time": 23, "note": 62, "velocity": 105, "channel": 0}, {"type": "note_on", "time": 309, "note": 60, "velocity": 110, "channel": 0}, {"type": "note_off", "time": 41, "note": 60, "velocity": 110, "channel": 0}, {"type": "note_on", "time": 13, "note": 62, "velocity": 104, "channel": 0}, {"type": "note_off", "time": 29, "note": 62, "velocity": 104, "channel": 0}, {"type": "note_on", "time": 4, "note": 63, "velocity": 100, "channel": 0}, {"type": "note_off", "time": 40, "note": 63, "velocity": 100, "channel": 0}, {"type": "note_on", "time": 19, "note": 61, "velocity": 104, "channel": 0}, {"type": "note_off", "time": 28, "note": 61, "velocity": 104, "channel": 0}, {"type": "note_on", "time": 4, "note": 62, "velocity": 98, "channel": 0}, {"type": "note_off", "time": 26, "note": 62, "velocity": 98, "channel": 0}, {"type": "note_on", "time": 30, "note": 66, "velocity": 87, "channel": 0}, {"type": "note_off", "time": 12, "note": 66, "velocity": 87, "channel": 0}, {"type": "note_on", "time": 7, "note": 69, "velocity": 97, "channel": 0}, {"type": "note_off", "time": 30, "note": 69, "velocity": 97, "channel": 0}, {"type": "note_on", "time": 5, "note": 72, "velocity": 118, "channel": 0}, {"type": "note_off", "time": 70, "note": 72, "velocity": 118, "channel": 0}, {"type": "note_on", "time": 7, "note": 69, "velocity": 114, "channel": 0}, {"type": "note_off", "time": 114, "note": 69, "velocity": 114, "channel": 0}, {"type": "note_on", "time": 12, "note": 70, "velocity": 113, "channel": 0}, {"type": "note_off", "time": 186, "note": 70, "velocity": 113, "channel": 0}, {"type": "note_on", "time": 14, "note": 69, "velocity": 116, "channel": 0}, {"type": "note_off", "time": 33, "note": 69, "velocity": 116, "channel": 0}, {"type": "note_on", "time": 6, "note": 70, "velocity": 108, "channel": 0}, {"type": "note_off", "time": 28, "note": 70, "velocity": 108, "channel": 0}, {"type": "note_on", "time": 2, "note": 69, "velocity": 117, "channel": 0}, {"type": "note_off", "time": 52, "note": 69, "velocity": 117, "channel": 0}, {"type": "note_on", "time": 14, "note": 65, "velocity": 108, "channel": 0}, {"type": "note_off", "time": 41, "note": 65, "velocity": 108, "channel": 0}, {"type": "note_on", "time": 49, "note": 63, "velocity": 98, "channel": 0}, {"type": "note_off", "time": 42, "note": 63, "velocity": 98, "channel": 0}, {"type": "note_on", "time": 35, "note": 60, "velocity": 105, "channel": 0}, {"type": "note_off", "time": 38, "note": 60, "velocity": 105, "channel": 0}, {"type": "note_on", "time": 10, "note": 58, "velocity": 98, "channel": 0}, {"type": "note_off", "time": 36, "note": 58, "velocity": 98, "channel": 0}, {"type": "note_on", "time": 29, "note": 55, "velocity": 99, "channel": 0}, {"type": "note_off", "time": 22, "note": 55, "velocity": 99, "channel": 0}, {"type": "note_on", "time": 13, "note": 57, "velocity": 97, "channel": 0}, {"type": "note_off", "time": 58, "note": 57, "velocity": 97, "channel": 0}, {"type": "note_on", "time": 25, "note": 65, "velocity": 78, "channel": 0}, {"type": "note_off", "time": 232, "note": 65, "velocity": 78, "channel": 0}, {"type": "end_of_track", "time": 0}]]}