{"ticks_per_beat": 840, "tracks": [[{"type": "track_name", "name": "Melody", "time": 0}, {"type": "set_tempo", "tempo": 468750, "time": 0}, {"type": "key_signature", "key": "F", "time": 0}, {"type": "time_signature", "numerator": 4, "denominator": 4, "clocks_per_click": 24, "notated_32nd_notes_per_beat": 8, "time": 0}, {"type": "note_on", "time": 2340, "note": 49, "velocity": 111, "channel": 0}, {"type": "note_off", "time": 169, "note": 49, "velocity": 111, "channel": 0}, {"type": "note_on", "time": 31, "note": 50, "velocity": 109, "channel": 0}, {"type": "note_off", "time": 254, "note": 50, "velocity": 109, "channel": 0}, {"type": "note_on", "time": 52, "note": 52, "velocity": 113, "channel": 0}, {"type": "note_off", "time": 123, "note": 52, "velocity": 113, "channel": 0}, {"type": "note_on", "time": 33, "note": 53, "velocity": 118, "channel": 0}, {"type": "note_off", "time": 241, "note": 53, "velocity": 118, "channel": 0}, {"type": "note_on", "time": 23, "note": 55, "velocity": 114, "channel": 0}, {"type": "note_off", "time": 139, "note": 55, "velocity": 114, "channel": 0}, {"type": "note_on", "time": 26, "note": 57, "velocity": 114, "channel": 0}, {"type": "note_off", "time": 159, "note": 57, "velocity": 114, "channel": 0}, {"type": "note_on", "time": 5, "note": 58, "velocity": 112, "channel": 0}, {"type": "note_off", "time": 132, "note": 58, "velocity": 112, "channel": 0}, {"type": "note_on", "time": 33, "note": 59, "velocity": 117, "channel": 0}, {"type": "note_off", "time": 109, "note": 59, "velocity": 117, "channel": 0}, {"type": "note_on", "time": 21, "note": 60, "velocity": 114, "channel": 0}, {"type": "note_off", "time": 54, "note": 60, "velocity": 114, "channel": 0}, {"type": "note_on", "time": 3, "note": 61, "velocity": 114, "channel": 0}, {"type": "note_off", "time": 58, "note": 61, "velocity": 114, "channel": 0}, {"type": "note_on", "time": 40, "note": 62, "velocity": 107, "channel": 0}, {"type": "note_off", "time": 122, "note": 62, "velocity": 107, "channel": 0}, {"type": "note_on", "time": 10, "note": 64, "velocity": 122, "channel": 0}, {"type": "note_off", "time": 205, "note": 64, "velocity": 122, "channel": 0}, {"type": "note_on", "time": 100, "note": 62, "velocity": 118, "channel": 0}, {"type": "note_off", "time": 153, "note": 62, "velocity": 118, "channel": 0}, {"type": "note_on", "time": 703, "note": 48, "velocity": 117, "channel": 0}, {"type": "note_off", "time": 131, "note": 48, "velocity": 117, "channel": 0}, {"type": "note_on", "time": 23, "note": 49, "velocity": 116, "channel": 0}, {"type": "note_off", "time": 138, "note": 49, "velocity": 116, "channel": 0}, {"type": "note_on", "time": 51, "note": 51, "velocity": 116, "channel": 0}, {"type": "note_off", "time": 192, "note": 51, "velocity": 116, "channel": 0}, {"type": "note_on", "time": 53, "note": 53, "velocity": 113, "channel": 0}, {"type": "note_off", "time": 194, "note": 53, "velocity": 113, "channel": 0}, {"type": "note_on", "time": 13, "note": 55, "velocity": 112, "channel": 0}, {"type": "note_off", "time": 111, "note": 55, "velocity": 112, "channel": 0}, {"type": "note_on", "time": 31, "note": 57, "velocity": 114, "channel": 0}, {"type": "note_off", "time": 164, "note": 57, "velocity": 114, "channel": 0}, {"type": "note_on", "time": 43, "note": 60, "velocity": 106, "channel": 0}, {"type": "note_off", "time": 125, "note": 60, "velocity": 106, "channel": 0}, {"type": "note_on", "time": 90, "note": 65, "velocity": 122, "channel": 0}, {"type": "note_off", "time": 234, "note": 65, "velocity": 122, "channel": 0}, {"type": "note_on", "time": 54, "note": 61, "velocity": 113, "channel": 0}, {"type": "note_off", "time": 265, "note": 61, "velocity": 113, "channel": 0}, {"type": "note_on", "time": 67, "note": 61, "velocity": 123, "channel": 0}, {"type": "note_off", "time": 193, "note": 61, "velocity": 123, "channel": 0}, {"type": "note_on", "time": 56, "note": 57, "velocity": 113, "channel": 0}, {"type": "note_off", "time": 243, "note": 57, "velocity": 113, "channel": 0}, {"type": "note_on", "time": 51, "note": 53, "velocity": 113, "channel": 0}, {"type": "note_off", "time": 226, "note": 53, "velocity": 113, "channel": 0}, {"type": "note_on", "time": 581, "note": 49, "velocity": 115, "channel": 0}, {"type": "note_off", "time": 127, "note": 49, "velocity": 115, "channel": 0}, {"type": "note_on", "time": 22, "note": 50, "velocity": 110, "channel": 0}, {"type": "note_off", "time": 189, "note": 50, "velocity": 110, "channel": 0}, {"type": "note_on", "time": 49, "note": 52, "velocity": 112, "channel": 0}, {"type": "note_off", "time": 189, "note": 52, "velocity": 112, "channel": 0}, {"type": "note_on", "time": 37, "note": 53, "velocity": 115, "channel": 0}, {"type": "note_off", "time": 144, "note": 53, "velocity": 115, "channel": 0}, {"type": "note_on", "time": 12, "note": 55, "velocity": 114, "channel": 0}, {"type": "note_off", "time": 122, "note": 55, "velocity": 114, "channel": 0}, {"type": "note_on", "time": 16, "note": 57, "velocity": 115, "channel": 0}, {"type": "note_off", "time": 84, "note": 57, "velocity": 115, "channel": 0}, {"type": "note_on", "time": 14, "note": 60, "velocity": 120, "channel": 0}, {"type": "note_off", "time": 117, "note": 60, "velocity": 120, "channel": 0}, {"type": "note_on", "time": 45, "note": 64, "velocity": 115, "channel": 0}, {"type": "note_off", "time": 80, "note": 64, "velocity": 115, "channel": 0}, {"type": "note_on", "time": 21, "note": 65, "velocity": 122, "channel": 0}, {"type": "note_off", "time": 131, "note": 65, "velocity": 122, "channel": 0}, {"type": "note_on", "time": 31, "note": 56, "velocity": 117, "channel": 0}, {"type": "note_off", "time": 224, "note": 56, "velocity": 117, "channel": 0}, {"type": "note_on", "time": 5, "note": 57, "velocity": 119, "channel": 0}, {"type": "note_off", "time": 148, "note": 57, "velocity": 119, "channel": 0}, {"type": "note_on", "time": 27, "note": 69, "velocity": 126, "channel": 0}, {"type": "note_off", "time": 175, "note": 69, "velocity": 126, "channel": 0}, {"type": "note_on", "time": 219, "note": 52, "velocity": 110, "channel": 0}, {"type": "note_off", "time": 186, "note": 52, "velocity": 110, "channel": 0}, {"type": "note_on", "time": 98, "note": 67, "velocity": 122, "channel": 0}, {"type": "note_off", "time": 192, "note": 67, "velocity": 122, "channel": 0}, {"type": "note_on", "time": 42, "note": 65, "velocity": 118, "channel": 0}, {"type": "note_off", "time": 182, "note": 65, "velocity": 118, "channel": 0}, {"type": "note_on", "time": 711, "note": 63, "velocity": 122, "channel": 0}, {"type": "note_off", "time": 223, "note": 63, "velocity": 122, "channel": 0}, {"type": "note_on", "time": 21, "note": 61, "velocity": 119, "channel": 0}, {"type": "note_off", "time": 212, "note": 61, "velocity": 119, "channel": 0}, {"type": "note_on", "time": 128, "note": 53, "velocity": 115, "channel": 0}, {"type": "note_off", "time": 250, "note": 53, "velocity": 115, "channel": 0}, {"type": "note_on", "time": 2, "note": 55, "velocity": 110, "channel": 0}, {"type": "note_off", "time": 106, "note": 55, "velocity": 110, "channel": 0}, {"type": "note_on", "time": 3, "note": 57, "velocity": 114, "channel": 0}, {"type": "note_off", "time": 128, "note": 57, "velocity": 114, "channel": 0}, {"type": "note_on", "time": 7, "note": 58, "velocity": 113, "channel": 0}, {"type": "note_off", "time": 142, "note": 58, "velocity": 113, "channel": 0}, {"type": "note_on", "time": 12, "note": 60, "velocity": 116, "channel": 0}, {"type": "note_off", "time": 427, "note": 60, "velocity": 116, "channel": 0}, {"type": "note_on", "time": 51, "note": 58, "velocity": 118, "channel": 0}, {"type": "note_off", "time": 195, "note": 58, "velocity": 118, "channel": 0}, {"type": "note_on", "time": 33, "note": 57, "velocity": 114, "channel": 0}, {"type": "note_off", "time": 158, "note": 57, "velocity": 114, "channel": 0}, {"type": "note_on", "time": 68, "note": 55, "velocity": 111, "channel": 0}, {"type": "note_off", "time": 127, "note": 55, "velocity": 111, "channel": 0}, {"type": "note_on", "time": 40, "note": 53, "velocity": 112, "channel": 0}, {"type": "note_off", "time": 172, "note": 53, "velocity": 112, "channel": 0}, {"type": "note_on", "time": 50, "note": 51, "velocity": 111, "channel": 0}, {"type": "note_off", "time": 166, "note": 51, "velocity": 111, "channel": 0}, {"type": "note_on", "time": 61, "note": 50, "velocity": 108, "channel": 0}, {"type": "note_off", "time": 153, "note": 50, "velocity": 108, "channel": 0}, {"type": "note_on", "time": 65, "note": 45, "velocity": 109, "channel": 0}, {"type": "note_off", "time": 211, "note": 45, "velocity": 109, "channel": 0}, {"type": "note_on", "time": 104, "note": 47, "velocity": 109, "channel": 0}, {"type": "note_off", "time": 113, "note": 47, "velocity": 109, "channel": 0}, {"type": "note_on", "time": 33, "note": 48, "velocity": 107, "channel": 0}, {"type": "note_off", "time": 110, "note": 48, "velocity": 107, "channel": 0}, {"type": "note_on", "time": 16, "note": 50, "velocity": 111, "channel": 0}, {"type": "note_off", "time": 107, "note": 50, "velocity": 111, "channel": 0}, {"type": "note_on", "time": 24, "note": 52, "velocity": 120, "channel": 0}, {"type": "note_off", "time": 137, "note": 52, "velocity": 120, "channel": 0}, {"type": "note_on", "time": 48, "note": 49, "velocity": 106, "channel": 0}, {"type": "note_off", "time": 195, "note": 49, "velocity": 106, "channel": 0}, {"type": "note_on", "time": 19, "note": 50, "velocity": 112, "channel": 0}, {"type": "note_off", "time": 198, "note": 50, "velocity": 112, "channel": 0}, {"type": "note_on", "time": 31, "note": 52, "velocity": 114, "channel": 0}, {"type": "note_off", "time": 161, "note": 52, "velocity": 114, "channel": 0}, {"type": "note_on", "time": 35, "note": 53, "velocity": 113, "channel": 0}, {"type": "note_off", "time": 214, "note": 53, "velocity": 113, "channel": 0}, {"type": "note_on", "time": 33, "note": 55, "velocity": 111, "channel": 0}, {"type": "note_off", "time": 135, "note": 55, "velocity": 111, "channel": 0}, {"type": "note_on", "time": 31, "note": 57, "velocity": 108, "channel": 0}, {"type": "note_off", "time": 202, "note": 57, "velocity": 108, "channel": 0}, {"type": "note_on", "time": 49, "note": 59, "velocity": 103, "channel": 0}, {"type": "note_off", "time": 102, "note": 59, "velocity": 103, "channel": 0}, {"type": "note_on", "time": 24, "note": 62, "velocity": 102, "channel": 0}, {"type": "note_off", "time": 89, "note": 62, "velocity": 102, "channel": 0}, {"type": "note_on", "time": 40, "note": 64, "velocity": 121, "channel": 0}, {"type": "note_off", "time": 217, "note": 64, "velocity": 121, "channel": 0}, {"type": "note_on", "time": 115, "note": 62, "velocity": 116, "channel": 0}, {"type": "note_off", "time": 124, "note": 62, "velocity": 116, "channel": 0}, {"type": "note_on", "time": 223, "note": 57, "velocity": 117, "channel": 0}, {"type": "note_off", "time": 135, "note": 57, "velocity": 117, "channel": 0}, {"type": "note_on", "time": 42, "note": 56, "velocity": 121, "channel": 0}, {"type": "note_off", "time": 93, "note": 56, "velocity": 121, "channel": 0}, {"type": "note_on", "time": 19, "note": 60, "velocity": 113, "channel": 0}, {"type": "note_off", "time": 318, "note": 60, "velocity": 113, "channel": 0}, {"type": "note_on", "time": 66, "note": 57, "velocity": 119, "channel": 0}, {"type": "note_off", "time": 193, "note": 57, "velocity": 119, "channel": 0}, {"type": "note_on", "time": 6, "note": 58, "velocity": 102, "channel": 0}, {"type": "note_off", "time": 358, "note": 58, "velocity": 102, "channel": 0}, {"type": "note_on", "time": 641, "note": 58, "velocity": 116, "channel": 0}, {"type": "note_off", "time": 145, "note": 58, "velocity": 116, "channel": 0}, {"type": "note_on", "time": 21, "note": 60, "velocity": 121, "channel": 0}, {"type": "note_off", "time": 137, "note": 60, "velocity": 121, "channel": 0}, {"type": "note_on", "time": 24, "note": 62, "velocity": 124, "channel": 0}, {"type": "note_off", "time": 64, "note": 62, "velocity": 124, "channel": 0}, {"type": "note_on", "time": 25, "note": 63, "velocity": 121, "channel": 0}, {"type": "note_off", "time": 153, "note": 63, "velocity": 121, "channel": 0}, {"type": "note_on", "time": 20, "note": 65, "velocity": 117, "channel": 0}, {"type": "note_off", "time": 138, "note": 65, "velocity": 117, "channel": 0}, {"type": "note_on", "time": 20, "note": 63, "velocity": 124, "channel": 0}, {"type": "note_off", "time": 127, "note": 63, "velocity": 124, "channel": 0}, {"type": "note_on", "time": 14, "note": 64, "velocity": 119, "channel": 0}, {"type": "note_off", "time": 298, "note": 64, "velocity": 119, "channel": 0}, {"type": "note_on", "time": 1696, "note": 64, "velocity": 122, "channel": 0}, {"type": "note_off", "time": 201, "note": 64, "velocity": 122, "channel": 0}, {"type": "note_on", "time": 25, "note": 62, "velocity": 119, "channel": 0}, {"type": "note_off", "time": 157, "note": 62, "velocity": 119, "channel": 0}, {"type": "note_on", "time": 35, "note": 59, "velocity": 116, "channel": 0}, {"type": "note_off", "time": 152, "note": 59, "velocity": 116, "channel": 0}, {"type": "note_on", "time": 50, "note": 57, "velocity": 111, "channel": 0}, {"type": "note_off", "time": 152, "note": 57, "velocity": 111, "channel": 0}, {"type": "note_on", "time": 55, "note": 53, "velocity": 111, "channel": 0}, {"type": "note_off", "time": 143, "note": 53, "velocity": 111, "channel": 0}, {"type": "note_on", "time": 29, "note": 52, "velocity": 114, "channel": 0}, {"type": "note_off", "time": 135, "note": 52, "velocity": 114, "channel": 0}, {"type": "note_on", "time": 35, "note": 50, "velocity": 106, "channel": 0}, {"type": "note_off", "time": 178, "note": 50, "velocity": 106, "channel": 0}, {"type": "note_on", "time": 72, "note": 45, "velocity": 108, "channel": 0}, {"type": "note_off", "time": 214, "note": 45, "velocity": 108, "channel": 0}, {"type": "note_on", "time": 16, "note": 46, "velocity": 108, "channel": 0}, {"type": "note_off", "time": 191, "note": 46, "velocity": 108, "channel": 0}, {"type": "note_on", "time": 88, "note": 48, "velocity": 111, "channel": 0}, {"type": "note_off", "time": 163, "note": 48, "velocity": 111, "channel": 0}, {"type": "note_on", "time": 36, "note": 49, "velocity": 112, "channel": 0}, {"type": "note_off", "time": 148, "note": 49, "velocity": 112, "channel": 0}, {"type": "note_on", "time": 75, "note": 51, "velocity": 114, "channel": 0}, {"type": "note_off", "time": 136, "note": 51, "velocity": 114, "channel": 0}, {"type": "note_on", "time": 58, "note": 53, "velocity": 108, "channel": 0}, {"type": "note_off", "time": 214, "note": 53, "velocity": 108, "channel": 0}, {"type": "note_on", "time": 38, "note": 46, "velocity": 110, "channel": 0}, {"type": "note_off", "time": 77, "note": 46, "velocity": 110, "channel": 0}, {"type": "note_on", "time": 10, "note": 48, "velocity": 109, "channel": 0}, {"type": "note_off", "time": 150, "note": 48, "velocity": 109, "channel": 0}, {"type": "note_on", "time": 26, "note": 49, "velocity": 106, "channel": 0}, {"type": "note_off", "time": 245, "note": 49, "velocity": 106, "channel": 0}, {"type": "note_on", "time": 16, "note": 51, "velocity": 111, "channel": 0}, {"type": "note_off", "time": 124, "note": 51, "velocity": 111, "channel": 0}, {"type": "note_on", "time": 27, "note": 53, "velocity": 118, "channel": 0}, {"type": "note_off", "time": 102, "note": 53, "velocity": 118, "channel": 0}, {"type": "note_on", "time": 82, "note": 55, "velocity": 109, "channel": 0}, {"type": "note_off", "time": 177, "note": 55, "velocity": 109, "channel": 0}, {"type": "note_on", "time": 11, "note": 57, "velocity": 116, "channel": 0}, {"type": "note_off", "time": 141, "note": 57, "velocity": 116, "channel": 0}, {"type": "note_on", "time": 185, "note": 53, "velocity": 113, "channel": 0}, {"type": "note_off", "time": 133, "note": 53, "velocity": 113, "channel": 0}, {"type": "note_on", "time": 7, "note": 55, "velocity": 113, "channel": 0}, {"type": "note_off", "time": 216, "note": 55, "velocity": 113, "channel": 0}, {"type": "note_on", "time": 16, "note": 57, "velocity": 116, "channel": 0}, {"type": "note_off", "time": 218, "note": 57, "velocity": 116, "channel": 0}, {"type": "note_on", "time": 18, "note": 58, "velocity": 113, "channel": 0}, {"type": "note_off", "time": 208, "note": 58, "velocity": 113, "channel": 0}, {"type": "note_on", "time": 18, "note": 61, "velocity": 122, "channel": 0}, {"type": "note_off", "time": 141, "note": 61, "velocity": 122, "channel": 0}, {"type": "note_on", "time": 21, "note": 64, "velocity": 125, "channel": 0}, {"type": "note_off", "time": 136, "note": 64, "velocity": 125, "channel": 0}, {"type": "note_on", "time": 12, "note": 61, "velocity": 111, "channel": 0}, {"type": "note_off", "time": 198, "note": 61, "velocity": 111, "channel": 0}, {"type": "note_on", "time": 23, "note": 62, "velocity": 112, "channel": 0}, {"type": "note_off", "time": 185, "note": 62, "velocity": 112, "channel": 0}, {"type": "note_on", "time": 22, "note": 64, "velocity": 120, "channel": 0}, {"type": "note_off", "time": 173, "note": 64, "velocity": 120, "channel": 0}, {"type": "note_on", "time": 21, "note": 65, "velocity": 117, "channel": 0}, {"type": "note_off", "time": 205, "note": 65, "velocity": 117, "channel": 0}, {"type": "note_on", "time": 32, "note": 68, "velocity": 124, "channel": 0}, {"type": "note_off", "time": 209, "note": 68, "velocity": 124, "channel": 0}, {"type": "note_on", "time": 19, "note": 69, "velocity": 123, "channel": 0}, {"type": "note_off", "time": 198, "note": 69, "velocity": 123, "channel": 0}, {"type": "note_on", "time": 726, "note": 64, "velocity": 115, "channel": 0}, {"type": "note_off", "time": 204, "note": 64, "velocity": 115, "channel": 0}, {"type": "note_on", "time": 34, "note": 67, "velocity": 121, "channel": 0}, {"type": "note_off", "time": 217, "note": 67, "velocity": 121, "channel": 0}, {"type": "note_on", "time": 12, "note": 65, "velocity": 119, "channel": 0}, {"type": "note_off", "time": 155, "note": 65, "velocity": 119, "channel": 0}, {"type": "note_on", "time": 17, "note": 63, "velocity": 122, "channel": 0}, {"type": "note_off", "time": 81, "note": 63, "velocity": 122, "channel": 0}, {"type": "note_on", "time": 9, "note": 60, "velocity": 114, "channel": 0}, {"type": "note_off", "time": 111, "note": 60, "velocity": 114, "channel": 0}, {"type": "note_on", "time": 15, "note": 58, "velocity": 112, "channel": 0}, {"type": "note_off", "time": 59, "note": 58, "velocity": 112, "channel": 0}, {"type": "note_on", "time": 10, "note": 53, "velocity": 113, "channel": 0}, {"type": "note_off", "time": 127, "note": 53, "velocity": 113, "channel": 0}, {"type": "note_on", "time": 64, "note": 51, "velocity": 109, "channel": 0}, {"type": "note_off", "time": 233, "note": 51, "velocity": 109, "channel": 0}, {"type": "note_on", "time": 11, "note": 61, "velocity": 116, "channel": 0}, {"type": "note_off", "time": 228, "note": 61, "velocity": 116, "channel": 0}, {"type": "note_on", "time": 709, "note": 61, "velocity": 120, "channel": 0}, {"type": "note_off", "time": 188, "note": 61, "velocity": 120, "channel": 0}, {"type": "note_on", "time": 39, "note": 63, "velocity": 121, "channel": 0}, {"type": "note_off", "time": 165, "note": 63, "velocity": 121, "channel": 0}, {"type": "note_on", "time": 18, "note": 65, "velocity": 118, "channel": 0}, {"type": "note_off", "time": 172, "note": 65, "velocity": 118, "channel": 0}, {"type": "note_on", "time": 87, "note": 61, "velocity": 115, "channel": 0}, {"type": "note_off", "time": 120, "note": 61, "velocity": 115, "channel": 0}, {"type": "note_on", "time": 31, "note": 57, "velocity": 111, "channel": 0}, {"type": "note_off", "time": 230, "note": 57, "velocity": 111, "channel": 0}, {"type": "note_on", "time": 44, "note": 59, "velocity": 111, "channel": 0}, {"type": "note_off", "time": 182, "note": 59, "velocity": 111, "channel": 0}, {"type": "note_on", "time": 23, "note": 61, "velocity": 115, "channel": 0}, {"type": "note_off", "time": 202, "note": 61, "velocity": 115, "channel": 0}, {"type": "note_on", "time": 27, "note": 57, "velocity": 114, "channel": 0}, {"type": "note_off", "time": 183, "note": 57, "velocity": 114, "channel": 0}, {"type": "note_on", "time": 19, "note": 53, "velocity": 105, "channel": 0}, {"type": "note_off", "time": 224, "note": 53, "velocity": 105, "channel": 0}, {"type": "note_on", "time": 11, "note": 55, "velocity": 110, "channel": 0}, {"type": "note_off", "time": 134, "note": 55, "velocity": 110, "channel": 0}, {"type": "note_on", "time": 22, "note": 57, "velocity": 117, "channel": 0}, {"type": "note_off", "time": 175, "note": 57, "velocity": 117, "channel": 0}, {"type": "note_on", "time": 50, "note": 53, "velocity": 110, "channel": 0}, {"type": "note_off", "time": 228, "note": 53, "velocity": 110, "channel": 0}, {"type": "note_on", "time": 66, "note": 45, "velocity": 104, "channel": 0}, {"type": "note_off", "time": 107, "note": 45, "velocity": 104, "channel": 0}, {"type": "note_on", "time": 47, "note": 49, "velocity": 101, "channel": 0}, {"type": "note_off", "time": 104, "note": 49, "velocity": 101, "channel": 0}, {"type": "note_on", "time": 62, "note": 52, "velocity": 119, "channel": 0}, {"type": "note_off", "time": 169, "note": 52, "velocity": 119, "channel": 0}, {"type": "note_on", "time": 31, "note": 49, "velocity": 108, "channel": 0}, {"type": "note_off", "time": 210, "note": 49, "velocity": 108, "channel": 0}, {"type": "note_on", "time": 14, "note": 50, "velocity": 106, "channel": 0}, {"type": "note_off", "time": 198, "note": 50, "velocity": 106, "channel": 0}, {"type": "note_on", "time": 19, "note": 52, "velocity": 118, "channel": 0}, {"type": "note_off", "time": 144, "note": 52, "velocity": 118, "channel": 0}, {"type": "note_on", "time": 18, "note": 53, "velocity": 113, "channel": 0}, {"type": "note_off", "time": 199, "note": 53, "velocity": 113, "channel": 0}, {"type": "note_on", "time": 47, "note": 55, "velocity": 109, "channel": 0}, {"type": "note_off", "time": 141, "note": 55, "velocity": 109, "channel": 0}, {"type": "note_on", "time": 29, "note": 57, "velocity": 108, "channel": 0}, {"type": "note_off", "time": 205, "note": 57, "velocity": 108, "channel": 0}, {"type": "note_on", "time": 36, "note": 59, "velocity": 101, "channel": 0}, {"type": "note_off", "time": 142, "note": 59, "velocity": 101, "channel": 0}, {"type": "note_on", "time": 80, "note": 59, "velocity": 114, "channel": 0}, {"type": "note_off", "time": 73, "note": 59, "velocity": 114, "channel": 0}, {"type": "note_on", "time": 12, "note": 61, "velocity": 116, "channel": 0}, {"type": "note_off", "time": 171, "note": 61, "velocity": 116, "channel": 0}, {"type": "note_on", "time": 20, "note": 64, "velocity": 125, "channel": 0}, {"type": "note_off", "time": 175, "note": 64, "velocity": 125, "channel": 0}, {"type": "note_on", "time": 47, "note": 62, "velocity": 120, "channel": 0}, {"type": "note_off", "time": 151, "note": 62, "velocity": 120, "channel": 0}, {"type": "note_on", "time": 38, "note": 57, "velocity": 114, "channel": 0}, {"type": "note_off", "time": 183, "note": 57, "velocity": 114, "channel": 0}, {"type": "note_on", "time": 34, "note": 60, "velocity": 117, "channel": 0}, {"type": "note_off", "time": 163, "note": 60, "velocity": 117, "channel": 0}, {"type": "note_on", "time": 99, "note": 57, "velocity": 116, "channel": 0}, {"type": "note_off", "time": 84, "note": 57, "velocity": 116, "channel": 0}, {"type": "note_on", "time": 13, "note": 58, "velocity": 114, "channel": 0}, {"type": "note_off", "time": 197, "note": 58, "velocity": 114, "channel": 0}, {"type": "note_on", "time": 78, "note": 53, "velocity": 110, "channel": 0}, {"type": "note_off", "time": 226, "note": 53, "velocity": 110, "channel": 0}, {"type": "note_on", "time": 330, "note": 57, "velocity": 120, "channel": 0}, {"type": "note_off", "time": 112, "note": 57, "velocity": 120, "channel": 0}, {"type": "note_on", "time": 10, "note": 58, "velocity": 116, "channel": 0}, {"type": "note_off", "time": 117, "note": 58, "velocity": 116, "channel": 0}, {"type": "note_on", "time": 4, "note": 57, "velocity": 114, "channel": 0}, {"type": "note_off", "time": 68, "note": 57, "velocity": 114, "channel": 0}, {"type": "note_on", "time": 28, "note": 55, "velocity": 113, "channel": 0}, {"type": "note_off", "time": 215, "note": 55, "velocity": 113, "channel": 0}, {"type": "note_on", "time": 84, "note": 53, "velocity": 110, "channel": 0}, {"type": "note_off", "time": 125, "note": 53, "velocity": 110, "channel": 0}, {"type": "note_on", "time": 10, "note": 51, "velocity": 112, "channel": 0}, {"type": "note_off", "time": 223, "note": 51, "velocity": 112, "channel": 0}, {"type": "note_on", "time": 62, "note": 49, "velocity": 117, "channel": 0}, {"type": "note_off", "time": 63, "note": 49, "velocity": 117, "channel": 0}, {"type": "note_on", "time": 19, "note": 48, "velocity": 112, "channel": 0}, {"type": "note_off", "time": 145, "note": 48, "velocity": 112, "channel": 0}, {"type": "note_on", "time": 88, "note": 46, "velocity": 105, "channel": 0}, {"type": "note_off", "time": 208, "note": 46, "velocity": 105, "channel": 0}, {"type": "note_on", "time": 30, "note": 45, "velocity": 100, "channel": 0}, {"type": "note_off", "time": 120, "note": 45, "velocity": 100, "channel": 0}, {"type": "note_on", "time": 773, "note": 52, "velocity": 121, "channel": 0}, {"type": "note_off", "time": 89, "note": 52, "velocity": 121, "channel": 0}, {"type": "note_on", "time": 35, "note": 49, "velocity": 110, "channel": 0}, {"type": "note_off", "time": 182, "note": 49, "velocity": 110, "channel": 0}, {"type": "note_on", "time": 6, "note": 50, "velocity": 111, "channel": 0}, {"type": "note_off", "time": 280, "note": 50, "velocity": 111, "channel": 0}, {"type": "note_on", "time": 44, "note": 52, "velocity": 118, "channel": 0}, {"type": "note_off", "time": 171, "note": 52, "velocity": 118, "channel": 0}, {"type": "note_on", "time": 43, "note": 53, "velocity": 110, "channel": 0}, {"type": "note_off", "time": 207, "note": 53, "velocity": 110, "channel": 0}, {"type": "note_on", "time": 18, "note": 55, "velocity": 109, "channel": 0}, {"type": "note_off", "time": 168, "note": 55, "velocity": 109, "channel": 0}, {"type": "note_on", "time": 13, "note": 57, "velocity": 108, "channel": 0}, {"type": "note_off", "time": 194, "note": 57, "velocity": 108, "channel": 0}, {"type": "note_on", "time": 207, "note": 59, "velocity": 102, "channel": 0}, {"type": "note_off", "time": 93, "note": 59, "velocity": 102, "channel": 0}, {"type": "note_on", "time": 11, "note": 64, "velocity": 111, "channel": 0}, {"type": "note_off", "time": 207, "note": 64, "velocity": 111, "channel": 0}, {"type": "note_on", "time": 41, "note": 61, "velocity": 116, "channel": 0}, {"type": "note_off", "time": 165, "note": 61, "velocity": 116, "channel": 0}, {"type": "note_on", "time": 17, "note": 62, "velocity": 119, "channel": 0}, {"type": "note_off", "time": 225, "note": 62, "velocity": 119, "channel": 0}, {"type": "note_on", "time": 50, "note": 57, "velocity": 117, "channel": 0}, {"type": "note_off", "time": 154, "note": 57, "velocity": 117, "channel": 0}, {"type": "note_on", "time": 80, "note": 55, "velocity": 110, "channel": 0}, {"type": "note_off", "time": 97, "note": 55, "velocity": 110, "channel": 0}, {"type": "note_on", "time": 36, "note": 53, "velocity": 105, "channel": 0}, {"type": "note_off", "time": 123, "note": 53, "velocity": 105, "channel": 0}, {"type": "note_on", "time": 17, "note": 57, "velocity": 117, "channel": 0}, {"type": "note_off", "time": 201, "note": 57, "velocity": 117, "channel": 0}, {"type": "note_on", "time": 94, "note": 60, "velocity": 115, "channel": 0}, {"type": "note_off", "time": 160, "note": 60, "velocity": 115, "channel": 0}, {"type": "note_on", "time": 70, "note": 53, "velocity": 114, "channel": 0}, {"type": "note_off", "time": 250, "note": 53, "velocity": 114, "channel": 0}, {"type": "note_on", "time": 1026, "note": 57, "velocity": 119, "channel": 0}, {"type": "note_off", "time": 191, "note": 57, "velocity": 119, "channel": 0}, {"type": "note_on", "time": 18, "note": 58, "velocity": 113, "channel": 0}, {"type": "note_off", "time": 131, "note": 58, "velocity": 113, "channel": 0}, {"type": "note_on", "time": 8, "note": 57, "velocity": 115, "channel": 0}, {"type": "note_off", "time": 189, "note": 57, "velocity": 115, "channel": 0}, {"type": "note_on", "time": 36, "note": 55, "velocity": 112, "channel": 0}, {"type": "note_off", "time": 184, "note": 55, "velocity": 112, "channel": 0}, {"type": "note_on", "time": 41, "note": 53, "velocity": 109, "channel": 0}, {"type": "note_off", "time": 171, "note": 53, "velocity": 109, "channel": 0}, {"type": "note_on", "time": 45, "note": 51, "velocity": 113, "channel": 0}, {"type": "note_off", "time": 117, "note": 51, "velocity": 113, "channel": 0}, {"type": "note_on", "time": 41, "note": 46, "velocity": 114, "channel": 0}, {"type": "note_off", "time": 197, "note": 46, "velocity": 114, "channel": 0}, {"type": "note_on", "time": 60, "note": 45, "velocity": 107, "channel": 0}, {"type": "note_off", "time": 117, "note": 45, "velocity": 107, "channel": 0}, {"type": "note_on", "time": 54, "note": 52, "velocity": 119, "channel": 0}, {"type": "note_off", "time": 177, "note": 52, "velocity": 119, "channel": 0}, {"type": "note_on", "time": 23, "note": 49, "velocity": 108, "channel": 0}, {"type": "note_off", "time": 145, "note": 49, "velocity": 108, "channel": 0}, {"type": "note_on", "time": 19, "note": 50, "velocity": 115, "channel": 0}, {"type": "note_off", "time": 289, "note": 50, "velocity": 115, "channel": 0}, {"type": "note_on", "time": 26, "note": 52, "velocity": 114, "channel": 0}, {"type": "note_off", "time": 156, "note": 52, "velocity": 114, "channel": 0}, {"type": "note_on", "time": 48, "note": 53, "velocity": 111, "channel": 0}, {"type": "note_off", "time": 197, "note": 53, "velocity": 111, "channel": 0}, {"type": "note_on", "time": 22, "note": 55, "velocity": 110, "channel": 0}, {"type": "note_off", "time": 130, "note": 55, "velocity": 110, "channel": 0}, {"type": "note_on", "time": 23, "note": 57, "velocity": 104, "channel": 0}, {"type": "note_off", "time": 212, "note": 57, "velocity": 104, "channel": 0}, {"type": "note_on", "time": 44, "note": 59, "velocity": 98, "channel": 0}, {"type": "note_off", "time": 137, "note": 59, "velocity": 98, "channel": 0}, {"type": "note_on", "time": 19, "note": 64, "velocity": 127, "channel": 0}, {"type": "note_off", "time": 107, "note": 64, "velocity": 127, "channel": 0}, {"type": "note_on", "time": 7, "note": 63, "velocity": 121, "channel": 0}, {"type": "note_off", "time": 146, "note": 63, "velocity": 121, "channel": 0}, {"type": "note_on", "time": 20, "note": 64, "velocity": 121, "channel": 0}, {"type": "note_off", "time": 340, "note": 64, "velocity": 121, "channel": 0}, {"type": "note_on", "time": 76, "note": 61, "velocity": 112, "channel": 0}, {"type": "note_off", "time": 195, "note": 61, "velocity": 112, "channel": 0}, {"type": "note_on", "time": 16, "note": 62, "velocity": 122, "channel": 0}, {"type": "note_off", "time": 193, "note": 62, "velocity": 122, "channel": 0}, {"type": "note_on", "time": 30, "note": 57, "velocity": 115, "channel": 0}, {"type": "note_off", "time": 204, "note": 57, "velocity": 115, "channel": 0}, {"type": "note_on", "time": 27, "note": 55, "velocity": 105, "channel": 0}, {"type": "note_off", "time": 115, "note": 55, "velocity": 105, "channel": 0}, {"type": "note_on", "time": 65, "note": 53, "velocity": 102, "channel": 0}, {"type": "note_off", "time": 114, "note": 53, "velocity": 102, "channel": 0}, {"type": "note_on", "time": 1, "note": 57, "velocity": 113, "channel": 0}, {"type": "note_off", "time": 278, "note": 57, "velocity": 113, "channel": 0}, {"type": "note_on", "time": 25, "note": 60, "velocity": 118, "channel": 0}, {"type": "note_off", "time": 169, "note": 60, "velocity": 118, "channel": 0}, {"type": "note_on", "time": 440, "note": 57, "velocity": 117, "channel": 0}, {"type": "note_off", "time": 187, "note": 57, "velocity": 117, "channel": 0}, {"type": "note_on", "time": 8, "note": 58, "velocity": 114, "channel": 0}, {"type": "note_off", "time": 86, "note": 58, "velocity": 114, "channel": 0}, {"type": "note_on", "time": 14, "note": 59, "velocity": 116, "channel": 0}, {"type": "note_off", "time": 147, "note": 59, "velocity": 116, "channel": 0}, {"type": "note_on", "time": 6, "note": 60, "velocity": 115, "channel": 0}, {"type": "note_off", "time": 172, "note": 60, "velocity": 115, "channel": 0}, {"type": "note_on", "time": 29, "note": 62, "velocity": 122, "channel": 0}, {"type": "note_off", "time": 157, "note": 62, "velocity": 122, "channel": 0}, {"type": "note_on", "time": 18, "note": 63, "velocity": 125, "channel": 0}, {"type": "note_off", "time": 188, "note": 63, "velocity": 125, "channel": 0}, {"type": "note_on", "time": 16, "note": 56, "velocity": 112, "channel": 0}, {"type": "note_off", "time": 220, "note": 56, "velocity": 112, "channel": 0}, {"type": "note_on", "time": 9, "note": 57, "velocity": 110, "channel": 0}, {"type": "note_off", "time": 156, "note": 57, "velocity": 110, "channel": 0}, {"type": "note_on", "time": 81, "note": 62, "velocity": 118, "channel": 0}, {"type": "note_off", "time": 173, "note": 62, "velocity": 118, "channel": 0}, {"type": "note_on", "time": 19, "note": 60, "velocity": 116, "channel": 0}, {"type": "note_off", "time": 185, "note": 60, "velocity": 116, "channel": 0}, {"type": "note_on", "time": 42, "note": 55, "velocity": 109, "channel": 0}, {"type": "note_off", "time": 149, "note": 55, "velocity": 109, "channel": 0}, {"type": "note_on", "time": 856, "note": 55, "velocity": 113, "channel": 0}, {"type": "note_off", "time": 126, "note": 55, "velocity": 113, "channel": 0}, {"type": "note_on", "time": 8, "note": 57, "velocity": 119, "channel": 0}, {"type": "note_off", "time": 119, "note": 57, "velocity": 119, "channel": 0}, {"type": "note_on", "time": 22, "note": 58, "velocity": 114, "channel": 0}, {"type": "note_off", "time": 171, "note": 58, "velocity": 114, "channel": 0}, {"type": "note_on", "time": 24, "note": 59, "velocity": 121, "channel": 0}, {"type": "note_off", "time": 141, "note": 59, "velocity": 121, "channel": 0}, {"type": "note_on", "time": 23, "note": 62, "velocity": 122, "channel": 0}, {"type": "note_off", "time": 123, "note": 62, "velocity": 122, "channel": 0}, {"type": "note_on", "time": 8, "note": 64, "velocity": 125, "channel": 0}, {"type": "note_off", "time": 108, "note": 64, "velocity": 125, "channel": 0}, {"type": "note_on", "time": 15, "note": 60, "velocity": 119, "channel": 0}, {"type": "note_off", "time": 113, "note": 60, "velocity": 119, "channel": 0}, {"type": "note_on", "time": 20, "note": 59, "velocity": 117, "channel": 0}, {"type": "note_off", "time": 73, "note": 59, "velocity": 117, "channel": 0}, {"type": "note_on", "time": 18, "note": 58, "velocity": 114, "channel": 0}, {"type": "note_off", "time": 99, "note": 58, "velocity": 114, "channel": 0}, {"type": "note_on", "time": 17, "note": 57, "velocity": 116, "channel": 0}, {"type": "note_off", "time": 92, "note": 57, "velocity": 116, "channel": 0}, {"type": "note_on", "time": 15, "note": 55, "velocity": 113, "channel": 0}, {"type": "note_off", "time": 102, "note": 55, "velocity": 113, "channel": 0}, {"type": "note_on", "time": 27, "note": 54, "velocity": 113, "channel": 0}, {"type": "note_off", "time": 198, "note": 54, "velocity": 113, "channel": 0}, {"type": "note_on", "time": 22, "note": 56, "velocity": 114, "channel": 0}, {"type": "note_off", "time": 53, "note": 56, "velocity": 114, "channel": 0}, {"type": "note_on", "time": 6, "note": 57, "velocity": 119, "channel": 0}, {"type": "note_off", "time": 156, "note": 57, "velocity": 119, "channel": 0}, {"type": "note_on", "time": 22, "note": 50, "velocity": 114, "channel": 0}, {"type": "note_off", "time": 50, "note": 50, "velocity": 114, "channel": 0}, {"type": "note_on", "time": 8, "note": 51, "velocity": 119, "channel": 0}, {"type": "note_off", "time": 145, "note": 51, "velocity": 119, "channel": 0}, {"type": "note_on", "time": 76, "note": 49, "velocity": 112, "channel": 0}, {"type": "note_off", "time": 62, "note": 49, "velocity": 112, "channel": 0}, {"type": "note_on", "time": 10, "note": 50, "velocity": 114, "channel": 0}, {"type": "note_off", "time": 199, "note": 50, "velocity": 114, "channel": 0}, {"type": "note_on", "time": 485, "note": 48, "velocity": 119, "channel": 0}, {"type": "note_off", "time": 85, "note": 48, "velocity": 119, "channel": 0}, {"type": "note_on", "time": 13, "note": 50, "velocity": 116, "channel": 0}, {"type": "note_off", "time": 106, "note": 50, "velocity": 116, "channel": 0}, {"type": "note_on", "time": 20, "note": 48, "velocity": 116, "channel": 0}, {"type": "note_off", "time": 117, "note": 48, "velocity": 116, "channel": 0}, {"type": "note_on", "time": 36, "note": 44, "velocity": 110, "channel": 0}, {"type": "note_off", "time": 110, "note": 44, "velocity": 110, "channel": 0}, {"type": "note_on", "time": 10, "note": 46, "velocity": 112, "channel": 0}, {"type": "note_off", "time": 257, "note": 46, "velocity": 112, "channel": 0}, {"type": "note_on", "time": 22, "note": 48, "velocity": 109, "channel": 0}, {"type": "note_off", "time": 162, "note": 48, "velocity": 109, "channel": 0}, {"type": "note_on", "time": 24, "note": 50, "velocity": 104, "channel": 0}, {"type": "note_off", "time": 193, "note": 50, "velocity": 104, "channel": 0}, {"type": "note_on", "time": 41, "note": 52, "velocity": 105, "channel": 0}, {"type": "note_off", "time": 94, "note": 52, "velocity": 105, "channel": 0}, {"type": "note_on", "time": 32, "note": 57, "velocity": 113, "channel": 0}, {"type": "note_off", "time": 182, "note": 57, "velocity": 113, "channel": 0}, {"type": "note_on", "time": 31, "note": 54, "velocity": 105, "channel": 0}, {"type": "note_off", "time": 189, "note": 54, "velocity": 105, "channel": 0}, {"type": "note_on", "time": 28, "note": 55, "velocity": 115, "channel": 0}, {"type": "note_off", "time": 163, "note": 55, "velocity": 115, "channel": 0}, {"type": "note_on", "time": 40, "note": 57, "velocity": 114, "channel": 0}, {"type": "note_off", "time": 157, "note": 57, "velocity": 114, "channel": 0}, {"type": "note_on", "time": 23, "note": 58, "velocity": 110, "channel": 0}, {"type": "note_off", "time": 189, "note": 58, "velocity": 110, "channel": 0}, {"type": "note_on", "time": 25, "note": 60, "velocity": 118, "channel": 0}, {"type": "note_off", "time": 162, "note": 60, "velocity": 118, "channel": 0}, {"type": "note_on", "time": 14, "note": 64, "velocity": 125, "channel": 0}, {"type": "note_off", "time": 223, "note": 64, "velocity": 125, "channel": 0}, {"type": "note_on", "time": 21, "note": 62, "velocity": 117, "channel": 0}, {"type": "note_off", "time": 174, "note": 62, "velocity": 117, "channel": 0}, {"type": "note_on", "time": 26, "note": 58, "velocity": 112, "channel": 0}, {"type": "note_off", "time": 209, "note": 58, "velocity": 112, "channel": 0}, {"type": "note_on", "time": 27, "note": 55, "velocity": 106, "channel": 0}, {"type": "note_off", "time": 136, "note": 55, "velocity": 106, "channel": 0}, {"type": "note_on", "time": 80, "note": 56, "velocity": 118, "channel": 0}, {"type": "note_off", "time": 61, "note": 56, "velocity": 118, "channel": 0}, {"type": "note_on", "time": 12, "note": 57, "velocity": 113, "channel": 0}, {"type": "note_off", "time": 267, "note": 57, "velocity": 113, "channel": 0}, {"type": "note_on", "time": 1350, "note": 64, "velocity": 125, "channel": 0}, {"type": "note_off", "time": 201, "note": 64, "velocity": 125, "channel": 0}, {"type": "note_on", "time": 57, "note": 62, "velocity": 119, "channel": 0}, {"type": "note_off", "time": 165, "note": 62, "velocity": 119, "channel": 0}, {"type": "note_on", "time": 20, "note": 64, "velocity": 125, "channel": 0}, {"type": "note_off", "time": 154, "note": 64, "velocity": 125, "channel": 0}, {"type": "note_on", "time": 62, "note": 62, "velocity": 117, "channel": 0}, {"type": "note_off", "time": 157, "note": 62, "velocity": 117, "channel": 0}, {"type": "note_on", "time": 23, "note": 58, "velocity": 112, "channel": 0}, {"type": "note_off", "time": 175, "note": 58, "velocity": 112, "channel": 0}, {"type": "note_on", "time": 57, "note": 55, "velocity": 114, "channel": 0}, {"type": "note_off", "time": 150, "note": 55, "velocity": 114, "channel": 0}, {"type": "note_on", "time": 20, "note": 57, "velocity": 117, "channel": 0}, {"type": "note_off", "time": 177, "note": 57, "velocity": 117, "channel": 0}, {"type": "note_on", "time": 18, "note": 54, "velocity": 103, "channel": 0}, {"type": "note_off", "time": 137, "note": 54, "velocity": 103, "channel": 0}, {"type": "note_on", "time": 58, "note": 55, "velocity": 113, "channel": 0}, {"type": "note_off", "time": 223, "note": 55, "velocity": 113, "channel": 0}, {"type": "note_on", "time": 67, "note": 57, "velocity": 113, "channel": 0}, {"type": "note_off", "time": 162, "note": 57, "velocity": 113, "channel": 0}, {"type": "note_on", "time": 19, "note": 58, "velocity": 113, "channel": 0}, {"type": "note_off", "time": 178, "note": 58, "velocity": 113, "channel": 0}, {"type": "note_on", "time": 102, "note": 60, "velocity": 116, "channel": 0}, {"type": "note_off", "time": 68, "note": 60, "velocity": 116, "channel": 0}, {"type": "note_on", "time": 18, "note": 61, "velocity": 116, "channel": 0}, {"type": "note_off", "time": 159, "note": 61, "velocity": 116, "channel": 0}, {"type": "note_on", "time": 28, "note": 55, "velocity": 111, "channel": 0}, {"type": "note_off", "time": 151, "note": 55, "velocity": 111, "channel": 0}, {"type": "note_on", "time": 607, "note": 61, "velocity": 118, "channel": 0}, {"type": "note_off", "time": 159, "note": 61, "velocity": 118, "channel": 0}, {"type": "note_on", "time": 16, "note": 60, "velocity": 116, "channel": 0}, {"type": "note_off", "time": 102, "note": 60, "velocity": 116, "channel": 0}, {"type": "note_on", "time": 12, "note": 59, "velocity": 114, "channel": 0}, {"type": "note_off", "time": 123, "note": 59, "velocity": 114, "channel": 0}, {"type": "note_on", "time": 14, "note": 58, "velocity": 115, "channel": 0}, {"type": "note_off", "time": 157, "note": 58, "velocity": 115, "channel": 0}, {"type": "note_on", "time": 42, "note": 57, "velocity": 113, "channel": 0}, {"type": "note_off", "time": 132, "note": 57, "velocity": 113, "channel": 0}, {"type": "note_on", "time": 26, "note": 56, "velocity": 114, "channel": 0}, {"type": "note_off", "time": 191, "note": 56, "velocity": 114, "channel": 0}, {"type": "note_on", "time": 81, "note": 55, "velocity": 109, "channel": 0}, {"type": "note_off", "time": 90, "note": 55, "velocity": 109, "channel": 0}, {"type": "note_on", "time": 23, "note": 53, "velocity": 111, "channel": 0}, {"type": "note_off", "time": 91, "note": 53, "velocity": 111, "channel": 0}, {"type": "note_on", "time": 45, "note": 52, "velocity": 116, "channel": 0}, {"type": "note_off", "time": 155, "note": 52, "velocity": 116, "channel": 0}, {"type": "note_on", "time": 16, "note": 49, "velocity": 110, "channel": 0}, {"type": "note_off", "time": 181, "note": 49, "velocity": 110, "channel": 0}, {"type": "note_on", "time": 22, "note": 48, "velocity": 117, "channel": 0}, {"type": "note_off", "time": 165, "note": 48, "velocity": 117, "channel": 0}, {"type": "note_on", "time": 59, "note": 47, "velocity": 114, "channel": 0}, {"type": "note_off", "time": 133, "note": 47, "velocity": 114, "channel": 0}, {"type": "note_on", "time": 23, "note": 46, "velocity": 111, "channel": 0}, {"type": "note_off", "time": 140, "note": 46, "velocity": 111, "channel": 0}, {"type": "note_on", "time": 85, "note": 49, "velocity": 112, "channel": 0}, {"type": "note_off", "time": 158, "note": 49, "velocity": 112, "channel": 0}, {"type": "note_on", "time": 78, "note": 45, "velocity": 108, "channel": 0}, {"type": "note_off", "time": 201, "note": 45, "velocity": 108, "channel": 0}, {"type": "note_on", "time": 49, "note": 42, "velocity": 107, "channel": 0}, {"type": "note_off", "time": 146, "note": 42, "velocity": 107, "channel": 0}, {"type": "note_on", "time": 24, "note": 43, "velocity": 113, "channel": 0}, {"type": "note_off", "time": 156, "note": 43, "velocity": 113, "channel": 0}, {"type": "note_on", "time": 37, "note": 45, "velocity": 111, "channel": 0}, {"type": "note_off", "time": 152, "note": 45, "velocity": 111, "channel": 0}, {"type": "note_on", "time": 34, "note": 46, "velocity": 112, "channel": 0}, {"type": "note_off", "time": 201, "note": 46, "velocity": 112, "channel": 0}, {"type": "note_on", "time": 43, "note": 48, "velocity": 111, "channel": 0}, {"type": "note_off", "time": 130, "note": 48, "velocity": 111, "channel": 0}, {"type": "note_on", "time": 23, "note": 49, "velocity": 111, "channel": 0}, {"type": "note_off", "time": 187, "note": 49, "velocity": 111, "channel": 0}, {"type": "note_on", "time": 39, "note": 51, "velocity": 114, "channel": 0}, {"type": "note_off", "time": 152, "note": 51, "velocity": 114, "channel": 0}, {"type": "note_on", "time": 26, "note": 52, "velocity": 112, "channel": 0}, {"type": "note_off", "time": 174, "note": 52, "velocity": 112, "channel": 0}, {"type": "note_on", "time": 26, "note": 55, "velocity": 111, "channel": 0}, {"type": "note_off", "time": 195, "note": 55, "velocity": 111, "channel": 0}, {"type": "note_on", "time": 39, "note": 58, "velocity": 115, "channel": 0}, {"type": "note_off", "time": 205, "note": 58, "velocity": 115, "channel": 0}, {"type": "note_on", "time": 52, "note": 61, "velocity": 122, "channel": 0}, {"type": "note_off", "time": 153, "note": 61, "velocity": 122, "channel": 0}, {"type": "note_on", "time": 10, "note": 58, "velocity": 110, "channel": 0}, {"type": "note_off", "time": 191, "note": 58, "velocity": 110, "channel": 0}, {"type": "note_on", "time": 15, "note": 59, "velocity": 110, "channel": 0}, {"type": "note_off", "time": 131, "note": 59, "velocity": 110, "channel": 0}, {"type": "note_on", "time": 75, "note": 60, "velocity": 120, "channel": 0}, {"type": "note_off", "time": 219, "note": 60, "velocity": 120, "channel": 0}, {"type": "note_on", "time": 54, "note": 57, "velocity": 118, "channel": 0}, {"type": "note_off", "time": 193, "note": 57, "velocity": 118, "channel": 0}, {"type": "note_on", "time": 18, "note": 55, "velocity": 116, "channel": 0}, {"type": "note_off", "time": 191, "note": 55, "velocity": 116, "channel": 0}, {"type": "note_on", "time": 18, "note": 53, "velocity": 114, "channel": 0}, {"type": "note_off", "time": 188, "note": 53, "velocity": 114, "channel": 0}, {"type": "note_on", "time": 23, "note": 52, "velocity": 113, "channel": 0}, {"type": "note_off", "time": 198, "note": 52, "velocity": 113, "channel": 0}, {"type": "note_on", "time": 52, "note": 48, "velocity": 101, "channel": 0}, {"type": "note_off", "time": 152, "note": 48, "velocity": 101, "channel": 0}, {"type": "note_on", "time": 24, "note": 50, "velocity": 110, "channel": 0}, {"type": "note_off", "time": 240, "note": 50, "velocity": 110, "channel": 0}, {"type": "note_on", "time": 49, "note": 52, "velocity": 108, "channel": 0}, {"type": "note_off", "time": 123, "note": 52, "velocity": 108, "channel": 0}, {"type": "note_on", "time": 31, "note": 55, "velocity": 112, "channel": 0}, {"type": "note_off", "time": 169, "note": 55, "velocity": 112, "channel": 0}, {"type": "note_on", "time": 76, "note": 53, "velocity": 104, "channel": 0}, {"type": "note_off", "time": 178, "note": 53, "velocity": 104, "channel": 0}, {"type": "note_on", "time": 42, "note": 52, "velocity": 112, "channel": 0}, {"type": "note_off", "time": 184, "note": 52, "velocity": 112, "channel": 0}, {"type": "note_on", "time": 27, "note": 53, "velocity": 105, "channel": 0}, {"type": "note_off", "time": 157, "note": 53, "velocity": 105, "channel": 0}, {"type": "note_on", "time": 22, "note": 55, "velocity": 100, "channel": 0}, {"type": "note_off", "time": 180, "note": 55, "velocity": 100, "channel": 0}, {"type": "note_on", "time": 62, "note": 57, "velocity": 103, "channel": 0}, {"type": "note_off", "time": 123, "note": 57, "velocity": 103, "channel": 0}, {"type": "note_on", "time": 62, "note": 60, "velocity": 116, "channel": 0}, {"type": "note_off", "time": 214, "note": 60, "velocity": 116, "channel": 0}, {"type": "note_on", "time": 110, "note": 57, "velocity": 113, "channel": 0}, {"type": "note_off", "time": 92, "note": 57, "velocity": 113, "channel": 0}, {"type": "note_on", "time": 14, "note": 58, "velocity": 110, "channel": 0}, {"type": "note_off", "time": 172, "note": 58, "velocity": 110, "channel": 0}, {"type": "note_on", "time": 45, "note": 55, "velocity": 110, "channel": 0}, {"type": "note_off", "time": 196, "note": 55, "velocity": 110, "channel": 0}, {"type": "note_on", "time": 816, "note": 55, "velocity": 114, "channel": 0}, {"type": "note_off", "time": 174, "note": 55, "velocity": 114, "channel": 0}, {"type": "note_on", "time": 41, "note": 57, "velocity": 113, "channel": 0}, {"type": "note_off", "time": 138, "note": 57, "velocity": 113, "channel": 0}, {"type": "note_on", "time": 26, "note": 58, "velocity": 114, "channel": 0}, {"type": "note_off", "time": 164, "note": 58, "velocity": 114, "channel": 0}, {"type": "note_on", "time": 107, "note": 60, "velocity": 118, "channel": 0}, {"type": "note_off", "time": 156, "note": 60, "velocity": 118, "channel": 0}, {"type": "note_on", "time": 18, "note": 61, "velocity": 118, "channel": 0}, {"type": "note_off", "time": 187, "note": 61, "velocity": 118, "channel": 0}, {"type": "note_on", "time": 40, "note": 64, "velocity": 122, "channel": 0}, {"type": "note_off", "time": 141, "note": 64, "velocity": 122, "channel": 0}, {"type": "note_on", "time": 23, "note": 61, "velocity": 117, "channel": 0}, {"type": "note_off", "time": 202, "note": 61, "velocity": 117, "channel": 0}, {"type": "note_on", "time": 44, "note": 57, "velocity": 110, "channel": 0}, {"type": "note_off", "time": 158, "note": 57, "velocity": 110, "channel": 0}, {"type": "note_on", "time": 15, "note": 59, "velocity": 115, "channel": 0}, {"type": "note_off", "time": 43, "note": 59, "velocity": 115, "channel": 0}, {"type": "note_on", "time": 6, "note": 60, "velocity": 115, "channel": 0}, {"type": "note_off", "time": 372, "note": 60, "velocity": 115, "channel": 0}, {"type": "note_on", "time": 851, "note": 61, "velocity": 118, "channel": 0}, {"type": "note_off", "time": 96, "note": 61, "velocity": 118, "channel": 0}, {"type": "note_on", "time": 20, "note": 60, "velocity": 119, "channel": 0}, {"type": "note_off", "time": 82, "note": 60, "velocity": 119, "channel": 0}, {"type": "note_on", "time": 24, "note": 57, "velocity": 111, "channel": 0}, {"type": "note_off", "time": 188, "note": 57, "velocity": 111, "channel": 0}, {"type": "note_on", "time": 13, "note": 58, "velocity": 115, "channel": 0}, {"type": "note_off", "time": 161, "note": 58, "velocity": 115, "channel": 0}, {"type": "note_on", "time": 91, "note": 60, "velocity": 116, "channel": 0}, {"type": "note_off", "time": 125, "note": 60, "velocity": 116, "channel": 0}, {"type": "note_on", "time": 20, "note": 61, "velocity": 117, "channel": 0}, {"type": "note_off", "time": 221, "note": 61, "velocity": 117, "channel": 0}, {"type": "note_on", "time": 49, "note": 63, "velocity": 122, "channel": 0}, {"type": "note_off", "time": 171, "note": 63, "velocity": 122, "channel": 0}, {"type": "note_on", "time": 22, "note": 65, "velocity": 119, "channel": 0}, {"type": "note_off", "time": 202, "note": 65, "velocity": 119, "channel": 0}, {"type": "note_on", "time": 79, "note": 61, "velocity": 118, "channel": 0}, {"type": "note_off", "time": 179, "note": 61, "velocity": 118, "channel": 0}, {"type": "note_on", "time": 19, "note": 60, "velocity": 117, "channel": 0}, {"type": "note_off", "time": 148, "note": 60, "velocity": 117, "channel": 0}, {"type": "note_on", "time": 94, "note": 57, "velocity": 116, "channel": 0}, {"type": "note_off", "time": 144, "note": 57, "velocity": 116, "channel": 0}, {"type": "note_on", "time": 61, "note": 52, "velocity": 117, "channel": 0}, {"type": "note_off", "time": 104, "note": 52, "velocity": 117, "channel": 0}, {"type": "note_on", "time": 57, "note": 64, "velocity": 122, "channel": 0}, {"type": "note_off", "time": 184, "note": 64, "velocity": 122, "channel": 0}, {"type": "note_on", "time": 36, "note": 62, "velocity": 120, "channel": 0}, {"type": "note_off", "time": 198, "note": 62, "velocity": 120, "channel": 0}, {"type": "note_on", "time": 41, "note": 58, "velocity": 118, "channel": 0}, {"type": "note_off", "time": 137, "note": 58, "velocity": 118, "channel": 0}, {"type": "note_on", "time": 19, "note": 59, "velocity": 112, "channel": 0}, {"type": "note_off", "time": 323, "note": 59, "velocity": 112, "channel": 0}, {"type": "note_on", "time": 555, "note": 64, "velocity": 123, "channel": 0}, {"type": "note_off", "time": 198, "note": 64, "velocity": 123, "channel": 0}, {"type": "note_on", "time": 36, "note": 62, "velocity": 121, "channel": 0}, {"type": "note_off", "time": 148, "note": 62, "velocity": 121, "channel": 0}, {"type": "note_on", "time": 8, "note": 64, "velocity": 124, "channel": 0}, {"type": "note_off", "time": 204, "note": 64, "velocity": 124, "channel": 0}, {"type": "note_on", "time": 26, "note": 62, "velocity": 119, "channel": 0}, {"type": "note_off", "time": 173, "note": 62, "velocity": 119, "channel": 0}, {"type": "note_on", "time": 14, "note": 59, "velocity": 116, "channel": 0}, {"type": "note_off", "time": 228, "note": 59, "velocity": 116, "channel": 0}, {"type": "note_on", "time": 24, "note": 58, "velocity": 112, "channel": 0}, {"type": "note_off", "time": 115, "note": 58, "velocity": 112, "channel": 0}, {"type": "note_on", "time": 27, "note": 59, "velocity": 113, "channel": 0}, {"type": "note_off", "time": 182, "note": 59, "velocity": 113, "channel": 0}, {"type": "note_on", "time": 53, "note": 57, "velocity": 113, "channel": 0}, {"type": "note_off", "time": 120, "note": 57, "velocity": 113, "channel": 0}, {"type": "note_on", "time": 124, "note": 65, "velocity": 117, "channel": 0}, {"type": "note_off", "time": 206, "note": 65, "velocity": 117, "channel": 0}, {"type": "note_on", "time": 54, "note": 63, "velocity": 120, "channel": 0}, {"type": "note_off", "time": 151, "note": 63, "velocity": 120, "channel": 0}, {"type": "note_on", "time": 31, "note": 65, "velocity": 116, "channel": 0}, {"type": "note_off", "time": 177, "note": 65, "velocity": 116, "channel": 0}, {"type": "note_on", "time": 14, "note": 63, "velocity": 121, "channel": 0}, {"type": "note_off", "time": 170, "note": 63, "velocity": 121, "channel": 0}, {"type": "note_on", "time": 16, "note": 60, "velocity": 117, "channel": 0}, {"type": "note_off", "time": 228, "note": 60, "velocity": 117, "channel": 0}, {"type": "note_on", "time": 38, "note": 58, "velocity": 112, "channel": 0}, {"type": "note_off", "time": 99, "note": 58, "velocity": 112, "channel": 0}, {"type": "note_on", "time": 57, "note": 60, "velocity": 114, "channel": 0}, {"type": "note_off", "time": 229, "note": 60, "velocity": 114, "channel": 0}, {"type": "note_on", "time": 38, "note": 58, "velocity": 108, "channel": 0}, {"type": "note_off", "time": 117, "note": 58, "velocity": 108, "channel": 0}, {"type": "note_on", "time": 64, "note": 57, "velocity": 115, "channel": 0}, {"type": "note_off", "time": 80, "note": 57, "velocity": 115, "channel": 0}, {"type": "note_on", "time": 19, "note": 55, "velocity": 113, "channel": 0}, {"type": "note_off", "time": 81, "note": 55, "velocity": 113, "channel": 0}, {"type": "note_on", "time": 79, "note": 55, "velocity": 108, "channel": 0}, {"type": "note_off", "time": 87, "note": 55, "velocity": 108, "channel": 0}, {"type": "note_on", "time": 651, "note": 57, "velocity": 115, "channel": 0}, {"type": "note_off", "time": 178, "note": 57, "velocity": 115, "channel": 0}, {"type": "note_on", "time": 58, "note": 55, "velocity": 118, "channel": 0}, {"type": "note_off", "time": 141, "note": 55, "velocity": 118, "channel": 0}, {"type": "note_on", "time": 30, "note": 53, "velocity": 111, "channel": 0}, {"type": "note_off", "time": 172, "note": 53, "velocity": 111, "channel": 0}, {"type": "note_on", "time": 22, "note": 49, "velocity": 116, "channel": 0}, {"type": "note_off", "time": 126, "note": 49, "velocity": 116, "channel": 0}, {"type": "note_on", "time": 21, "note": 52, "velocity": 109, "channel": 0}, {"type": "note_off", "time": 149, "note": 52, "velocity": 109, "channel": 0}, {"type": "note_on", "time": 619, "note": 52, "velocity": 114, "channel": 0}, {"type": "note_off", "time": 165, "note": 52, "velocity": 114, "channel": 0}, {"type": "note_on", "time": 37, "note": 49, "velocity": 110, "channel": 0}, {"type": "note_off", "time": 151, "note": 49, "velocity": 110, "channel": 0}, {"type": "note_on", "time": 11, "note": 50, "velocity": 110, "channel": 0}, {"type": "note_off", "time": 238, "note": 50, "velocity": 110, "channel": 0}, {"type": "note_on", "time": 13, "note": 52, "velocity": 117, "channel": 0}, {"type": "note_off", "time": 140, "note": 52, "velocity": 117, "channel": 0}, {"type": "note_on", "time": 36, "note": 53, "velocity": 118, "channel": 0}, {"type": "note_off", "time": 187, "note": 53, "velocity": 118, "channel": 0}, {"type": "note_on", "time": 54, "note": 55, "velocity": 113, "channel": 0}, {"type": "note_off", "time": 149, "note": 55, "velocity": 113, "channel": 0}, {"type": "note_on", "time": 40, "note": 57, "velocity": 104, "channel": 0}, {"type": "note_off", "time": 248, "note": 57, "velocity": 104, "channel": 0}, {"type": "note_on", "time": 31, "note": 59, "velocity": 109, "channel": 0}, {"type": "note_off", "time": 120, "note": 59, "velocity": 109, "channel": 0}, {"type": "note_on", "time": 31, "note": 64, "velocity": 122, "channel": 0}, {"type": "note_off", "time": 208, "note": 64, "velocity": 122, "channel": 0}, {"type": "note_on", "time": 42, "note": 62, "velocity": 115, "channel": 0}, {"type": "note_off", "time": 205, "note": 62, "velocity": 115, "channel": 0}, {"type": "note_on", "time": 31, "note": 57, "velocity": 108, "channel": 0}, {"type": "note_off", "time": 159, "note": 57, "velocity": 108, "channel": 0}, {"type": "note_on", "time": 63, "note": 55, "velocity": 111, "channel": 0}, {"type": "note_off", "time": 91, "note": 55, "velocity": 111, "channel": 0}, {"type": "note_on", "time": 73, "note": 58, "velocity": 113, "channel": 0}, {"type": "note_off", "time": 105, "note": 58, "velocity": 113, "channel": 0}, {"type": "note_on", "time": 8, "note": 60, "velocity": 116, "channel": 0}, {"type": "note_off", "time": 266, "note": 60, "velocity": 116, "channel": 0}, {"type": "note_on", "time": 72, "note": 58, "velocity": 116, "channel": 0}, {"type": "note_off", "time": 173, "note": 58, "velocity": 116, "channel": 0}, {"type": "note_on", "time": 96, "note": 51, "velocity": 114, "channel": 0}, {"type": "note_off", "time": 257, "note": 51, "velocity": 114, "channel": 0}, {"type": "note_on", "time": 814, "note": 47, "velocity": 119, "channel": 0}, {"type": "note_off", "time": 161, "note": 47, "velocity": 119, "channel": 0}, {"type": "note_on", "time": 44, "note": 49, "velocity": 114, "channel": 0}, {"type": "note_off", "time": 152, "note": 49, "velocity": 114, "channel": 0}, {"type": "note_on", "time": 66, "note": 53, "velocity": 114, "channel": 0}, {"type": "note_off", "time": 167, "note": 53, "velocity": 114, "channel": 0}, {"type": "note_on", "time": 75, "note": 57, "velocity": 112, "channel": 0}, {"type": "note_off", "time": 117, "note": 57, "velocity": 112, "channel": 0}, {"type": "note_on", "time": 95, "note": 60, "velocity": 117, "channel": 0}, {"type": "note_off", "time": 236, "note": 60, "velocity": 117, "channel": 0}, {"type": "note_on", "time": 85, "note": 58, "velocity": 114, "channel": 0}, {"type": "note_off", "time": 157, "note": 58, "velocity": 114, "channel": 0}, {"type": "note_on", "time": 180, "note": 49, "velocity": 113, "channel": 0}, {"type": "note_off", "time": 178, "note": 49, "velocity": 113, "channel": 0}, {"type": "note_on", "time": 243, "note": 50, "velocity": 108, "channel": 0}, {"type": "note_off", "time": 152, "note": 50, "velocity": 108, "channel": 0}, {"type": "note_on", "time": 45, "note": 53, "velocity": 106, "channel": 0}, {"type": "note_off", "time": 127, "note": 53, "velocity": 106, "channel": 0}, {"type": "note_on", "time": 54, "note": 57, "velocity": 105, "channel": 0}, {"type": "note_off", "time": 149, "note": 57, "velocity": 105, "channel": 0}, {"type": "note_on", "time": 55, "note": 63, "velocity": 122, "channel": 0}, {"type": "note_off", "time": 258, "note": 63, "velocity": 122, "channel": 0}, {"type": "note_on", "time": 11, "note": 64, "velocity": 123, "channel": 0}, {"type": "note_off", "time": 254, "note": 64, "velocity": 123, "channel": 0}, {"type": "note_on", "time": 89, "note": 62, "velocity": 114, "channel": 0}, {"type": "note_off", "time": 157, "note": 62, "velocity": 114, "channel": 0}, {"type": "note_on", "time": 21, "note": 61, "velocity": 112, "channel": 0}, {"type": "note_off", "time": 122, "note": 61, "velocity": 112, "channel": 0}, {"type": "note_on", "time": 170, "note": 64, "velocity": 117, "channel": 0}, {"type": "note_off", "time": 126, "note": 64, "velocity": 117, "channel": 0}, {"type": "note_on", "time": 54, "note": 59, "velocity": 108, "channel": 0}, {"type": "note_off", "time": 181, "note": 59, "velocity": 108, "channel": 0}, {"type": "note_on", "time": 54, "note": 57, "velocity": 108, "channel": 0}, {"type": "note_off", "time": 98, "note": 57, "velocity": 108, "channel": 0}, {"type": "note_on", "time": 1277, "note": 56, "velocity": 113, "channel": 0}, {"type": "note_off", "time": 172, "note": 56, "velocity": 113, "channel": 0}, {"type": "note_on", "time": 16, "note": 58, "velocity": 114, "channel": 0}, {"type": "note_off", "time": 118, "note": 58, "velocity": 114, "channel": 0}, {"type": "note_on", "time": 32, "note": 60, "velocity": 115, "channel": 0}, {"type": "note_off", "time": 119, "note": 60, "velocity": 115, "channel": 0}, {"type": "note_on", "time": 15, "note": 62, "velocity": 117, "channel": 0}, {"type": "note_off", "time": 84, "note": 62, "velocity": 117, "channel": 0}, {"type": "note_on", "time": 1, "note": 64, "velocity": 115, "channel": 0}, {"type": "note_off", "time": 93, "note": 64, "velocity": 115, "channel": 0}, {"type": "note_on", "time": 13, "note": 63, "velocity": 120, "channel": 0}, {"type": "note_off", "time": 139, "note": 63, "velocity": 120, "channel": 0}, {"type": "note_on", "time": 600, "note": 63, "velocity": 119, "channel": 0}, {"type": "note_off", "time": 189, "note": 63, "velocity": 119, "channel": 0}, {"type": "note_on", "time": 31, "note": 62, "velocity": 116, "channel": 0}, {"type": "note_off", "time": 140, "note": 62, "velocity": 116, "channel": 0}, {"type": "note_on", "time": 44, "note": 60, "velocity": 115, "channel": 0}, {"type": "note_off", "time": 204, "note": 60, "velocity": 115, "channel": 0}, {"type": "note_on", "time": 42, "note": 59, "velocity": 116, "channel": 0}, {"type": "note_off", "time": 165, "note": 59, "velocity": 116, "channel": 0}, {"type": "note_on", "time": 20, "note": 58, "velocity": 112, "channel": 0}, {"type": "note_off", "time": 184, "note": 58, "velocity": 112, "channel": 0}, {"type": "note_on", "time": 107, "note": 55, "velocity": 110, "channel": 0}, {"type": "note_off", "time": 214, "note": 55, "velocity": 110, "channel": 0}, {"type": "note_on", "time": 42, "note": 53, "velocity": 101, "channel": 0}, {"type": "note_off", "time": 131, "note": 53, "velocity": 101, "channel": 0}, {"type": "note_on", "time": 209, "note": 57, "velocity": 114, "channel": 0}, {"type": "note_off", "time": 185, "note": 57, "velocity": 114, "channel": 0}, {"type": "note_on", "time": 67, "note": 53, "velocity": 113, "channel": 0}, {"type": "note_off", "time": 153, "note": 53, "velocity": 113, "channel": 0}, {"type": "note_on", "time": 20, "note": 49, "velocity": 112, "channel": 0}, {"type": "note_off", "time": 137, "note": 49, "velocity": 112, "channel": 0}, {"type": "note_on", "time": 54, "note": 45, "velocity": 108, "channel": 0}, {"type": "note_off", "time": 165, "note": 45, "velocity": 108, "channel": 0}, {"type": "note_on", "time": 14, "note": 52, "velocity": 116, "channel": 0}, {"type": "note_off", "time": 169, "note": 52, "velocity": 116, "channel": 0}, {"type": "note_on", "time": 93, "note": 49, "velocity": 109, "channel": 0}, {"type": "note_off", "time": 136, "note": 49, "velocity": 109, "channel": 0}, {"type": "note_on", "time": 23, "note": 50, "velocity": 109, "channel": 0}, {"type": "note_off", "time": 215, "note": 50, "velocity": 109, "channel": 0}, {"type": "note_on", "time": 43, "note": 52, "velocity": 112, "channel": 0}, {"type": "note_off", "time": 152, "note": 52, "velocity": 112, "channel": 0}, {"type": "note_on", "time": 7, "note": 53, "velocity": 114, "channel": 0}, {"type": "note_off", "time": 192, "note": 53, "velocity": 114, "channel": 0}, {"type": "note_on", "time": 46, "note": 55, "velocity": 107, "channel": 0}, {"type": "note_off", "time": 131, "note": 55, "velocity": 107, "channel": 0}, {"type": "note_on", "time": 20, "note": 57, "velocity": 105, "channel": 0}, {"type": "note_off", "time": 234, "note": 57, "velocity": 105, "channel": 0}, {"type": "note_on", "time": 9, "note": 58, "velocity": 100, "channel": 0}, {"type": "note_off", "time": 137, "note": 58, "velocity": 100, "channel": 0}, {"type": "note_on", "time": 113, "note": 64, "velocity": 104, "channel": 0}, {"type": "note_off", "time": 184, "note": 64, "velocity": 104, "channel": 0}, {"type": "note_on", "time": 41, "note": 62, "velocity": 113, "channel": 0}, {"type": "note_off", "time": 149, "note": 62, "velocity": 113, "channel": 0}, {"type": "note_on", "time": 40, "note": 64, "velocity": 121, "channel": 0}, {"type": "note_off", "time": 209, "note": 64, "velocity": 121, "channel": 0}, {"type": "note_on", "time": 53, "note": 62, "velocity": 116, "channel": 0}, {"type": "note_off", "time": 162, "note": 62, "velocity": 116, "channel": 0}, {"type": "note_on", "time": 139, "note": 65, "velocity": 116, "channel": 0}, {"type": "note_off", "time": 182, "note": 65, "velocity": 116, "channel": 0}, {"type": "note_on", "time": 27, "note": 63, "velocity": 118, "channel": 0}, {"type": "note_off", "time": 217, "note": 63, "velocity": 118, "channel": 0}, {"type": "note_on", "time": 29, "note": 59, "velocity": 103, "channel": 0}, {"type": "note_off", "time": 143, "note": 59, "velocity": 103, "channel": 0}, {"type": "note_on", "time": 30, "note": 53, "velocity": 106, "channel": 0}, {"type": "note_off", "time": 100, "note": 53, "velocity": 106, "channel": 0}, {"type": "note_on", "time": 32, "note": 56, "velocity": 93, "channel": 0}, {"type": "note_off", "time": 89, "note": 56, "velocity": 93, "channel": 0}, {"type": "note_on", "time": 5, "note": 60, "velocity": 75, "channel": 0}, {"type": "note_off", "time": 245, "note": 60, "velocity": 75, "channel": 0}, {"type": "note_on", "time": 12, "note": 58, "velocity": 110, "channel": 0}, {"type": "note_off", "time": 182, "note": 58, "velocity": 110, "channel": 0}, {"type": "note_on", "time": 420, "note": 63, "velocity": 118, "channel": 0}, {"type": "note_off", "time": 188, "note": 63, "velocity": 118, "channel": 0}, {"type": "note_on", "time": 15, "note": 61, "velocity": 113, "channel": 0}, {"type": "note_off", "time": 84, "note": 61, "velocity": 113, "channel": 0}, {"type": "note_on", "time": 122, "note": 53, "velocity": 110, "channel": 0}, {"type": "note_off", "time": 83, "note": 53, "velocity": 110, "channel": 0}, {"type": "note_on", "time": 19, "note": 55, "velocity": 105, "channel": 0}, {"type": "note_off", "time": 59, "note": 55, "velocity": 105, "channel": 0}, {"type": "note_on", "time": 13, "note": 57, "velocity": 101, "channel": 0}, {"type": "note_off", "time": 103, "note": 57, "velocity": 101, "channel": 0}, {"type": "note_on", "time": 42, "note": 60, "velocity": 113, "channel": 0}, {"type": "note_off", "time": 215, "note": 60, "velocity": 113, "channel": 0}, {"type": "note_on", "time": 45, "note": 58, "velocity": 105, "channel": 0}, {"type": "note_off", "time": 107, "note": 58, "velocity": 105, "channel": 0}, {"type": "note_on", "time": 239, "note": 64, "velocity": 121, "channel": 0}, {"type": "note_off", "time": 166, "note": 64, "velocity": 121, "channel": 0}, {"type": "note_on", "time": 16, "note": 62, "velocity": 112, "channel": 0}, {"type": "note_off", "time": 108, "note": 62, "velocity": 112, "channel": 0}, {"type": "note_on", "time": 70, "note": 54, "velocity": 109, "channel": 0}, {"type": "note_off", "time": 85, "note": 54, "velocity": 109, "channel": 0}, {"type": "note_on", "time": 21, "note": 56, "velocity": 109, "channel": 0}, {"type": "note_off", "time": 60, "note": 56, "velocity": 109, "channel": 0}, {"type": "note_on", "time": 26, "note": 57, "velocity": 107, "channel": 0}, {"type": "note_off", "time": 110, "note": 57, "velocity": 107, "channel": 0}, {"type": "note_on", "time": 25, "note": 60, "velocity": 114, "channel": 0}, {"type": "note_off", "time": 230, "note": 60, "velocity": 114, "channel": 0}, {"type": "note_on", "time": 45, "note": 59, "velocity": 110, "channel": 0}, {"type": "note_off", "time": 128, "note": 59, "velocity": 110, "channel": 0}, {"type": "note_on", "time": 837, "note": 59, "velocity": 113, "channel": 0}, {"type": "note_off", "time": 144, "note": 59, "velocity": 113, "channel": 0}, {"type": "note_on", "time": 53, "note": 57, "velocity": 119, "channel": 0}, {"type": "note_off", "time": 149, "note": 57, "velocity": 119, "channel": 0}, {"type": "note_on", "time": 35, "note": 53, "velocity": 109, "channel": 0}, {"type": "note_off", "time": 158, "note": 53, "velocity": 109, "channel": 0}, {"type": "note_on", "time": 62, "note": 52, "velocity": 111, "channel": 0}, {"type": "note_off", "time": 163, "note": 52, "velocity": 111, "channel": 0}, {"type": "note_on", "time": 28, "note": 50, "velocity": 110, "channel": 0}, {"type": "note_off", "time": 166, "note": 50, "velocity": 110, "channel": 0}, {"type": "note_on", "time": 48, "note": 47, "velocity": 111, "channel": 0}, {"type": "note_off", "time": 163, "note": 47, "velocity": 111, "channel": 0}, {"type": "note_on", "time": 880, "note": 51, "velocity": 122, "channel": 0}, {"type": "note_off", "time": 104, "note": 51, "velocity": 122, "channel": 0}, {"type": "note_on", "time": 16, "note": 52, "velocity": 118, "channel": 0}, {"type": "note_off", "time": 118, "note": 52, "velocity": 118, "channel": 0}, {"type": "note_on", "time": 18, "note": 48, "velocity": 110, "channel": 0}, {"type": "note_off", "time": 175, "note": 48, "velocity": 110, "channel": 0}, {"type": "note_on", "time": 27, "note": 49, "velocity": 109, "channel": 0}, {"type": "note_off", "time": 181, "note": 49, "velocity": 109, "channel": 0}, {"type": "note_on", "time": 40, "note": 51, "velocity": 116, "channel": 0}, {"type": "note_off", "time": 173, "note": 51, "velocity": 116, "channel": 0}, {"type": "note_on", "time": 20, "note": 53, "velocity": 119, "channel": 0}, {"type": "note_off", "time": 166, "note": 53, "velocity": 119, "channel": 0}, {"type": "note_on", "time": 69, "note": 55, "velocity": 112, "channel": 0}, {"type": "note_off", "time": 133, "note": 55, "velocity": 112, "channel": 0}, {"type": "note_on", "time": 23, "note": 57, "velocity": 112, "channel": 0}, {"type": "note_off", "time": 197, "note": 57, "velocity": 112, "channel": 0}, {"type": "note_on", "time": 31, "note": 59, "velocity": 91, "channel": 0}, {"type": "note_off", "time": 87, "note": 59, "velocity": 91, "channel": 0}, {"type": "note_on", "time": 58, "note": 64, "velocity": 105, "channel": 0}, {"type": "note_off", "time": 126, "note": 64, "velocity": 105, "channel": 0}, {"type": "note_on", "time": 117, "note": 60, "velocity": 110, "channel": 0}, {"type": "note_off", "time": 179, "note": 60, "velocity": 110, "channel": 0}, {"type": "note_on", "time": 20, "note": 61, "velocity": 114, "channel": 0}, {"type": "note_off", "time": 179, "note": 61, "velocity": 114, "channel": 0}, {"type": "note_on", "time": 33, "note": 64, "velocity": 121, "channel": 0}, {"type": "note_off", "time": 144, "note": 64, "velocity": 121, "channel": 0}, {"type": "note_on", "time": 27, "note": 65, "velocity": 116, "channel": 0}, {"type": "note_off", "time": 231, "note": 65, "velocity": 116, "channel": 0}, {"type": "note_on", "time": 19, "note": 66, "velocity": 120, "channel": 0}, {"type": "note_off", "time": 124, "note": 66, "velocity": 120, "channel": 0}, {"type": "note_on", "time": 18, "note": 67, "velocity": 120, "channel": 0}, {"type": "note_off", "time": 208, "note": 67, "velocity": 120, "channel": 0}, {"type": "note_on", "time": 687, "note": 67, "velocity": 119, "channel": 0}, {"type": "note_off", "time": 202, "note": 67, "velocity": 119, "channel": 0}, {"type": "note_on", "time": 78, "note": 65, "velocity": 114, "channel": 0}, {"type": "note_off", "time": 155, "note": 65, "velocity": 114, "channel": 0}, {"type": "note_on", "time": 42, "note": 61, "velocity": 114, "channel": 0}, {"type": "note_off", "time": 169, "note": 61, "velocity": 114, "channel": 0}, {"type": "note_on", "time": 47, "note": 57, "velocity": 113, "channel": 0}, {"type": "note_off", "time": 159, "note": 57, "velocity": 113, "channel": 0}, {"type": "note_on", "time": 20, "note": 63, "velocity": 109, "channel": 0}, {"type": "note_off", "time": 98, "note": 63, "velocity": 109, "channel": 0}, {"type": "note_on", "time": 16, "note": 64, "velocity": 121, "channel": 0}, {"type": "note_off", "time": 469, "note": 64, "velocity": 121, "channel": 0}, {"type": "note_on", "time": 29, "note": 61, "velocity": 115, "channel": 0}, {"type": "note_off", "time": 185, "note": 61, "velocity": 115, "channel": 0}, {"type": "note_on", "time": 37, "note": 62, "velocity": 119, "channel": 0}, {"type": "note_off", "time": 173, "note": 62, "velocity": 119, "channel": 0}, {"type": "note_on", "time": 95, "note": 57, "velocity": 115, "channel": 0}, {"type": "note_off", "time": 186, "note": 57, "velocity": 115, "channel": 0}, {"type": "note_on", "time": 71, "note": 55, "velocity": 103, "channel": 0}, {"type": "note_off", "time": 76, "note": 55, "velocity": 103, "channel": 0}, {"type": "note_on", "time": 37, "note": 53, "velocity": 105, "channel": 0}, {"type": "note_off", "time": 143, "note": 53, "velocity": 105, "channel": 0}, {"type": "note_on", "time": 26, "note": 60, "velocity": 114, "channel": 0}, {"type": "note_off", "time": 230, "note": 60, "velocity": 114, "channel": 0}, {"type": "note_on", "time": 40, "note": 57, "velocity": 112, "channel": 0}, {"type": "note_off", "time": 150, "note": 57, "velocity": 112, "channel": 0}, {"type": "note_on", "time": 923, "note": 57, "velocity": 115, "channel": 0}, {"type": "note_off", "time": 234, "note": 57, "velocity": 115, "channel": 0}, {"type": "note_on", "time": 45, "note": 60, "velocity": 111, "channel": 0}, {"type": "note_off", "time": 179, "note": 60, "velocity": 111, "channel": 0}, {"type": "note_on", "time": 22, "note": 61, "velocity": 112, "channel": 0}, {"type": "note_off", "time": 159, "note": 61, "velocity": 112, "channel": 0}, {"type": "note_on", "time": 32, "note": 63, "velocity": 117, "channel": 0}, {"type": "note_off", "time": 122, "note": 63, "velocity": 117, "channel": 0}, {"type": "note_on", "time": 29, "note": 61, "velocity": 116, "channel": 0}, {"type": "note_off", "time": 176, "note": 61, "velocity": 116, "channel": 0}, {"type": "note_on", "time": 23, "note": 59, "velocity": 110, "channel": 0}, {"type": "note_off", "time": 193, "note": 59, "velocity": 110, "channel": 0}, {"type": "note_on", "time": 32, "note": 57, "velocity": 112, "channel": 0}, {"type": "note_off", "time": 172, "note": 57, "velocity": 112, "channel": 0}, {"type": "note_on", "time": 42, "note": 55, "velocity": 110, "channel": 0}, {"type": "note_off", "time": 169, "note": 55, "velocity": 110, "channel": 0}, {"type": "note_on", "time": 25, "note": 53, "velocity": 116, "channel": 0}, {"type": "note_off", "time": 155, "note": 53, "velocity": 116, "channel": 0}, {"type": "note_on", "time": 609, "note": 52, "velocity": 122, "channel": 0}, {"type": "note_off", "time": 210, "note": 52, "velocity": 122, "channel": 0}, {"type": "note_on", "time": 22, "note": 49, "velocity": 111, "channel": 0}, {"type": "note_off", "time": 132, "note": 49, "velocity": 111, "channel": 0}, {"type": "note_on", "time": 23, "note": 50, "velocity": 112, "channel": 0}, {"type": "note_off", "time": 236, "note": 50, "velocity": 112, "channel": 0}, {"type": "note_on", "time": 48, "note": 52, "velocity": 117, "channel": 0}, {"type": "note_off", "time": 138, "note": 52, "velocity": 117, "channel": 0}, {"type": "note_on", "time": 16, "note": 53, "velocity": 108, "channel": 0}, {"type": "note_off", "time": 182, "note": 53, "velocity": 108, "channel": 0}, {"type": "note_on", "time": 39, "note": 55, "velocity": 105, "channel": 0}, {"type": "note_off", "time": 118, "note": 55, "velocity": 105, "channel": 0}, {"type": "note_on", "time": 45, "note": 57, "velocity": 106, "channel": 0}, {"type": "note_off", "time": 226, "note": 57, "velocity": 106, "channel": 0}, {"type": "note_on", "time": 16, "note": 58, "velocity": 100, "channel": 0}, {"type": "note_off", "time": 81, "note": 58, "velocity": 100, "channel": 0}, {"type": "note_on", "time": 72, "note": 64, "velocity": 109, "channel": 0}, {"type": "note_off", "time": 237, "note": 64, "velocity": 109, "channel": 0}, {"type": "note_on", "time": 62, "note": 62, "velocity": 115, "channel": 0}, {"type": "note_off", "time": 202, "note": 62, "velocity": 115, "channel": 0}, {"type": "note_on", "time": 135, "note": 57, "velocity": 115, "channel": 0}, {"type": "note_off", "time": 175, "note": 57, "velocity": 115, "channel": 0}, {"type": "note_on", "time": 21, "note": 55, "velocity": 110, "channel": 0}, {"type": "note_off", "time": 70, "note": 55, "velocity": 110, "channel": 0}, {"type": "note_on", "time": 37, "note": 53, "velocity": 108, "channel": 0}, {"type": "note_off", "time": 124, "note": 53, "velocity": 108, "channel": 0}, {"type": "note_on", "time": 115, "note": 64, "velocity": 120, "channel": 0}, {"type": "note_off", "time": 133, "note": 64, "velocity": 120, "channel": 0}, {"type": "note_on", "time": 16, "note": 65, "velocity": 113, "channel": 0}, {"type": "note_off", "time": 232, "note": 65, "velocity": 113, "channel": 0}, {"type": "note_on", "time": 58, "note": 63, "velocity": 121, "channel": 0}, {"type": "note_off", "time": 188, "note": 63, "velocity": 121, "channel": 0}, {"type": "note_on", "time": 51, "note": 57, "velocity": 119, "channel": 0}, {"type": "note_off", "time": 118, "note": 57, "velocity": 119, "channel": 0}, {"type": "note_on", "time": 23, "note": 58, "velocity": 109, "channel": 0}, {"type": "note_off", "time": 243, "note": 58, "velocity": 109, "channel": 0}, {"type": "note_on", "time": 605, "note": 58, "velocity": 114, "channel": 0}, {"type": "note_off", "time": 182, "note": 58, "velocity": 114, "channel": 0}, {"type": "note_on", "time": 32, "note": 60, "velocity": 110, "channel": 0}, {"type": "note_off", "time": 162, "note": 60, "velocity": 110, "channel": 0}, {"type": "note_on", "time": 29, "note": 58, "velocity": 108, "channel": 0}, {"type": "note_off", "time": 149, "note": 58, "velocity": 108, "channel": 0}, {"type": "note_on", "time": 138, "note": 55, "velocity": 110, "channel": 0}, {"type": "note_off", "time": 159, "note": 55, "velocity": 110, "channel": 0}, {"type": "note_on", "time": 60, "note": 53, "velocity": 106, "channel": 0}, {"type": "note_off", "time": 182, "note": 53, "velocity": 106, "channel": 0}, {"type": "note_on", "time": 56, "note": 51, "velocity": 114, "channel": 0}, {"type": "note_off", "time": 153, "note": 51, "velocity": 114, "channel": 0}, {"type": "note_on", "time": 25, "note": 46, "velocity": 116, "channel": 0}, {"type": "note_off", "time": 149, "note": 46, "velocity": 116, "channel": 0}, {"type": "note_on", "time": 21, "note": 45, "velocity": 113, "channel": 0}, {"type": "note_off", "time": 230, "note": 45, "velocity": 113, "channel": 0}, {"type": "note_on", "time": 34, "note": 52, "velocity": 118, "channel": 0}, {"type": "note_off", "time": 204, "note": 52, "velocity": 118, "channel": 0}, {"type": "note_on", "time": 51, "note": 49, "velocity": 107, "channel": 0}, {"type": "note_off", "time": 195, "note": 49, "velocity": 107, "channel": 0}, {"type": "note_on", "time": 16, "note": 50, "velocity": 106, "channel": 0}, {"type": "note_off", "time": 188, "note": 50, "velocity": 106, "channel": 0}, {"type": "note_on", "time": 13, "note": 52, "velocity": 118, "channel": 0}, {"type": "note_off", "time": 175, "note": 52, "velocity": 118, "channel": 0}, {"type": "note_on", "time": 34, "note": 53, "velocity": 108, "channel": 0}, {"type": "note_off", "time": 239, "note": 53, "velocity": 108, "channel": 0}, {"type": "note_on", "time": 37, "note": 55, "velocity": 110, "channel": 0}, {"type": "note_off", "time": 120, "note": 55, "velocity": 110, "channel": 0}, {"type": "note_on", "time": 31, "note": 57, "velocity": 102, "channel": 0}, {"type": "note_off", "time": 249, "note": 57, "velocity": 102, "channel": 0}, {"type": "note_on", "time": 180, "note": 63, "velocity": 122, "channel": 0}, {"type": "note_off", "time": 148, "note": 63, "velocity": 122, "channel": 0}, {"type": "note_on", "time": 25, "note": 64, "velocity": 118, "channel": 0}, {"type": "note_off", "time": 195, "note": 64, "velocity": 118, "channel": 0}, {"type": "note_on", "time": 38, "note": 62, "velocity": 111, "channel": 0}, {"type": "note_off", "time": 228, "note": 62, "velocity": 111, "channel": 0}, {"type": "note_on", "time": 53, "note": 57, "velocity": 116, "channel": 0}, {"type": "note_off", "time": 201, "note": 57, "velocity": 116, "channel": 0}, {"type": "note_on", "time": 119, "note": 55, "velocity": 109, "channel": 0}, {"type": "note_off", "time": 119, "note": 55, "velocity": 109, "channel": 0}, {"type": "note_on", "time": 15, "note": 53, "velocity": 110, "channel": 0}, {"type": "note_off", "time": 234, "note": 53, "velocity": 110, "channel": 0}, {"type": "note_on", "time": 579, "note": 63, "velocity": 121, "channel": 0}, {"type": "note_off", "time": 124, "note": 63, "velocity": 121, "channel": 0}, {"type": "note_on", "time": 26, "note": 61, "velocity": 118, "channel": 0}, {"type": "note_off", "time": 132, "note": 61, "velocity": 118, "channel": 0}, {"type": "note_on", "time": 40, "note": 58, "velocity": 109, "channel": 0}, {"type": "note_off", "time": 106, "note": 58, "velocity": 109, "channel": 0}, {"type": "note_on", "time": 55, "note": 57, "velocity": 102, "channel": 0}, {"type": "note_off", "time": 71, "note": 57, "velocity": 102, "channel": 0}, {"type": "note_on", "time": 39, "note": 60, "velocity": 119, "channel": 0}, {"type": "note_off", "time": 219, "note": 60, "velocity": 119, "channel": 0}, {"type": "note_on", "time": 68, "note": 58, "velocity": 115, "channel": 0}, {"type": "note_off", "time": 135, "note": 58, "velocity": 115, "channel": 0}, {"type": "note_on", "time": 197, "note": 53, "velocity": 110, "channel": 0}, {"type": "note_off", "time": 140, "note": 53, "velocity": 110, "channel": 0}, {"type": "note_on", "time": 19, "note": 56, "velocity": 116, "channel": 0}, {"type": "note_off", "time": 102, "note": 56, "velocity": 116, "channel": 0}, {"type": "note_on", "time": 5, "note": 57, "velocity": 113, "channel": 0}, {"type": "note_off", "time": 278, "note": 57, "velocity": 113, "channel": 0}, {"type": "note_on", "time": 35, "note": 55, "velocity": 113, "channel": 0}, {"type": "note_off", "time": 171, "note": 55, "velocity": 113, "channel": 0}, {"type": "note_on", "time": 99, "note": 53, "velocity": 109, "channel": 0}, {"type": "note_off", "time": 184, "note": 53, "velocity": 109, "channel": 0}, {"type": "note_on", "time": 157, "note": 51, "velocity": 118, "channel": 0}, {"type": "note_off", "time": 165, "note": 51, "velocity": 118, "channel": 0}, {"type": "note_on", "time": 19, "note": 49, "velocity": 110, "channel": 0}, {"type": "note_off", "time": 226, "note": 49, "velocity": 110, "channel": 0}, {"type": "note_on", "time": 35, "note": 45, "velocity": 101, "channel": 0}, {"type": "note_off", "time": 117, "note": 45, "velocity": 101, "channel": 0}, {"type": "note_on", "time": 27, "note": 52, "velocity": 118, "channel": 0}, {"type": "note_off", "time": 241, "note": 52, "velocity": 118, "channel": 0}, {"type": "note_on", "time": 104, "note": 49, "velocity": 110, "channel": 0}, {"type": "note_off", "time": 92, "note": 49, "velocity": 110, "channel": 0}, {"type": "note_on", "time": 11, "note": 50, "velocity": 108, "channel": 0}, {"type": "note_off", "time": 221, "note": 50, "velocity": 108, "channel": 0}, {"type": "note_on", "time": 20, "note": 52, "velocity": 120, "channel": 0}, {"type": "note_off", "time": 211, "note": 52, "velocity": 120, "channel": 0}, {"type": "note_on", "time": 31, "note": 53, "velocity": 114, "channel": 0}, {"type": "note_off", "time": 144, "note": 53, "velocity": 114, "channel": 0}, {"type": "note_on", "time": 84, "note": 55, "velocity": 109, "channel": 0}, {"type": "note_off", "time": 150, "note": 55, "velocity": 109, "channel": 0}, {"type": "note_on", "time": 13, "note": 57, "velocity": 109, "channel": 0}, {"type": "note_off", "time": 188, "note": 57, "velocity": 109, "channel": 0}, {"type": "note_on", "time": 26, "note": 59, "velocity": 111, "channel": 0}, {"type": "note_off", "time": 144, "note": 59, "velocity": 111, "channel": 0}, {"type": "note_on", "time": 17, "note": 61, "velocity": 120, "channel": 0}, {"type": "note_off", "time": 265, "note": 61, "velocity": 120, "channel": 0}, {"type": "note_on", "time": 62, "note": 64, "velocity": 120, "channel": 0}, {"type": "note_off", "time": 190, "note": 64, "velocity": 120, "channel": 0}, {"type": "note_on", "time": 20, "note": 65, "velocity": 114, "channel": 0}, {"type": "note_off", "time": 85, "note": 65, "velocity": 114, "channel": 0}, {"type": "note_on", "time": 69, "note": 65, "velocity": 116, "channel": 0}, {"type": "note_off", "time": 54, "note": 65, "velocity": 116, "channel": 0}, {"type": "note_on", "time": 1, "note": 64, "velocity": 102, "channel": 0}, {"type": "note_off", "time": 117, "note": 64, "velocity": 102, "channel": 0}, {"type": "note_on", "time": 6, "note": 58, "velocity": 106, "channel": 0}, {"type": "note_off", "time": 160, "note": 58, "velocity": 106, "channel": 0}, {"type": "note_on", "time": 1105, "note": 60, "velocity": 121, "channel": 0}, {"type": "note_off", "time": 109, "note": 60, "velocity": 121, "channel": 0}, {"type": "note_on", "time": 8, "note": 61, "velocity": 120, "channel": 0}, {"type": "note_off", "time": 102, "note": 61, "velocity": 120, "channel": 0}, {"type": "note_on", "time": 8, "note": 60, "velocity": 119, "channel": 0}, {"type": "note_off", "time": 100, "note": 60, "velocity": 119, "channel": 0}, {"type": "note_on", "time": 13, "note": 57, "velocity": 117, "channel": 0}, {"type": "note_off", "time": 101, "note": 57, "velocity": 117, "channel": 0}, {"type": "note_on", "time": 19, "note": 58, "velocity": 116, "channel": 0}, {"type": "note_off", "time": 138, "note": 58, "velocity": 116, "channel": 0}, {"type": "note_on", "time": 102, "note": 60, "velocity": 114, "channel": 0}, {"type": "note_off", "time": 156, "note": 60, "velocity": 114, "channel": 0}, {"type": "note_on", "time": 11, "note": 61, "velocity": 117, "channel": 0}, {"type": "note_off", "time": 167, "note": 61, "velocity": 117, "channel": 0}, {"type": "note_on", "time": 26, "note": 63, "velocity": 121, "channel": 0}, {"type": "note_off", "time": 171, "note": 63, "velocity": 121, "channel": 0}, {"type": "note_on", "time": 32, "note": 65, "velocity": 118, "channel": 0}, {"type": "note_off", "time": 191, "note": 65, "velocity": 118, "channel": 0}, {"type": "note_on", "time": 91, "note": 61, "velocity": 118, "channel": 0}, {"type": "note_off", "time": 184, "note": 61, "velocity": 118, "channel": 0}, {"type": "note_on", "time": 133, "note": 61, "velocity": 118, "channel": 0}, {"type": "note_off", "time": 222, "note": 61, "velocity": 118, "channel": 0}, {"type": "note_on", "time": 71, "note": 57, "velocity": 114, "channel": 0}, {"type": "note_off", "time": 208, "note": 57, "velocity": 114, "channel": 0}, {"type": "note_on", "time": 75, "note": 53, "velocity": 106, "channel": 0}, {"type": "note_off", "time": 215, "note": 53, "velocity": 106, "channel": 0}, {"type": "note_on", "time": 1150, "note": 57, "velocity": 115, "channel": 0}, {"type": "note_off", "time": 217, "note": 57, "velocity": 115, "channel": 0}, {"type": "note_on", "time": 74, "note": 53, "velocity": 114, "channel": 0}, {"type": "note_off", "time": 151, "note": 53, "velocity": 114, "channel": 0}, {"type": "note_on", "time": 23, "note": 49, "velocity": 115, "channel": 0}, {"type": "note_off", "time": 115, "note": 49, "velocity": 115, "channel": 0}, {"type": "note_on", "time": 21, "note": 45, "velocity": 101, "channel": 0}, {"type": "note_off", "time": 157, "note": 45, "velocity": 101, "channel": 0}, {"type": "note_on", "time": 84, "note": 51, "velocity": 116, "channel": 0}, {"type": "note_off", "time": 230, "note": 51, "velocity": 116, "channel": 0}, {"type": "note_on", "time": 29, "note": 52, "velocity": 114, "channel": 0}, {"type": "note_off", "time": 312, "note": 52, "velocity": 114, "channel": 0}, {"type": "note_on", "time": 31, "note": 49, "velocity": 112, "channel": 0}, {"type": "note_off", "time": 176, "note": 49, "velocity": 112, "channel": 0}, {"type": "note_on", "time": 20, "note": 50, "velocity": 115, "channel": 0}, {"type": "note_off", "time": 289, "note": 50, "velocity": 115, "channel": 0}, {"type": "note_on", "time": 48, "note": 47, "velocity": 116, "channel": 0}, {"type": "note_off", "time": 175, "note": 47, "velocity": 116, "channel": 0}, {"type": "note_on", "time": 616, "note": 45, "velocity": 115, "channel": 0}, {"type": "note_off", "time": 162, "note": 45, "velocity": 115, "channel": 0}, {"type": "note_on", "time": 7, "note": 46, "velocity": 114, "channel": 0}, {"type": "note_off", "time": 170, "note": 46, "velocity": 114, "channel": 0}, {"type": "note_on", "time": 17, "note": 48, "velocity": 114, "channel": 0}, {"type": "note_off", "time": 133, "note": 48, "velocity": 114, "channel": 0}, {"type": "note_on", "time": 35, "note": 49, "velocity": 114, "channel": 0}, {"type": "note_off", "time": 191, "note": 49, "velocity": 114, "channel": 0}, {"type": "note_on", "time": 36, "note": 51, "velocity": 112, "channel": 0}, {"type": "note_off", "time": 184, "note": 51, "velocity": 112, "channel": 0}, {"type": "note_on", "time": 27, "note": 53, "velocity": 117, "channel": 0}, {"type": "note_off", "time": 192, "note": 53, "velocity": 117, "channel": 0}, {"type": "note_on", "time": 51, "note": 48, "velocity": 116, "channel": 0}, {"type": "note_off", "time": 177, "note": 48, "velocity": 116, "channel": 0}, {"type": "note_on", "time": 42, "note": 49, "velocity": 113, "channel": 0}, {"type": "note_off", "time": 206, "note": 49, "velocity": 113, "channel": 0}, {"type": "note_on", "time": 21, "note": 52, "velocity": 110, "channel": 0}, {"type": "note_off", "time": 204, "note": 52, "velocity": 110, "channel": 0}, {"type": "note_on", "time": 47, "note": 57, "velocity": 104, "channel": 0}, {"type": "note_off", "time": 104, "note": 57, "velocity": 104, "channel": 0}, {"type": "note_on", "time": 43, "note": 55, "velocity": 113, "channel": 0}, {"type": "note_off", "time": 219, "note": 55, "velocity": 113, "channel": 0}, {"type": "note_on", "time": 38, "note": 57, "velocity": 112, "channel": 0}, {"type": "note_off", "time": 190, "note": 57, "velocity": 112, "channel": 0}, {"type": "note_on", "time": 54, "note": 49, "velocity": 114, "channel": 0}, {"type": "note_off", "time": 193, "note": 49, "velocity": 114, "channel": 0}, {"type": "note_on", "time": 15, "note": 51, "velocity": 114, "channel": 0}, {"type": "note_off", "time": 139, "note": 51, "velocity": 114, "channel": 0}, {"type": "note_on", "time": 12, "note": 52, "velocity": 115, "channel": 0}, {"type": "note_off", "time": 151, "note": 52, "velocity": 115, "channel": 0}, {"type": "note_on", "time": 22, "note": 53, "velocity": 120, "channel": 0}, {"type": "note_off", "time": 220, "note": 53, "velocity": 120, "channel": 0}, {"type": "note_on", "time": 18, "note": 55, "velocity": 113, "channel": 0}, {"type": "note_off", "time": 161, "note": 55, "velocity": 113, "channel": 0}, {"type": "note_on", "time": 23, "note": 57, "velocity": 113, "channel": 0}, {"type": "note_off", "time": 160, "note": 57, "velocity": 113, "channel": 0}, {"type": "note_on", "time": 68, "note": 54, "velocity": 108, "channel": 0}, {"type": "note_off", "time": 198, "note": 54, "velocity": 108, "channel": 0}, {"type": "note_on", "time": 15, "note": 55, "velocity": 111, "channel": 0}, {"type": "note_off", "time": 187, "note": 55, "velocity": 111, "channel": 0}, {"type": "note_on", "time": 32, "note": 57, "velocity": 112, "channel": 0}, {"type": "note_off", "time": 118, "note": 57, "velocity": 112, "channel": 0}, {"type": "note_on", "time": 37, "note": 58, "velocity": 114, "channel": 0}, {"type": "note_off", "time": 200, "note": 58, "velocity": 114, "channel": 0}, {"type": "note_on", "time": 23, "note": 56, "velocity": 118, "channel": 0}, {"type": "note_off", "time": 159, "note": 56, "velocity": 118, "channel": 0}, {"type": "note_on", "time": 63, "note": 57, "velocity": 115, "channel": 0}, {"type": "note_off", "time": 179, "note": 57, "velocity": 115, "channel": 0}, {"type": "note_on", "time": 49, "note": 59, "velocity": 112, "channel": 0}, {"type": "note_off", "time": 159, "note": 59, "velocity": 112, "channel": 0}, {"type": "note_on", "time": 70, "note": 64, "velocity": 123, "channel": 0}, {"type": "note_off", "time": 157, "note": 64, "velocity": 123, "channel": 0}, {"type": "note_on", "time": 37, "note": 61, "velocity": 118, "channel": 0}, {"type": "note_off", "time": 188, "note": 61, "velocity": 118, "channel": 0}, {"type": "note_on", "time": 18, "note": 62, "velocity": 116, "channel": 0}, {"type": "note_off", "time": 173, "note": 62, "velocity": 116, "channel": 0}, {"type": "note_on", "time": 19, "note": 64, "velocity": 119, "channel": 0}, {"type": "note_off", "time": 134, "note": 64, "velocity": 119, "channel": 0}, {"type": "note_on", "time": 19, "note": 65, "velocity": 123, "channel": 0}, {"type": "note_off", "time": 160, "note": 65, "velocity": 123, "channel": 0}, {"type": "note_on", "time": 23, "note": 66, "velocity": 110, "channel": 0}, {"type": "note_off", "time": 188, "note": 66, "velocity": 110, "channel": 0}, {"type": "note_on", "time": 23, "note": 68, "velocity": 118, "channel": 0}, {"type": "note_off", "time": 178, "note": 68, "velocity": 118, "channel": 0}, {"type": "note_on", "time": 19, "note": 69, "velocity": 121, "channel": 0}, {"type": "note_off", "time": 885, "note": 69, "velocity": 121, "channel": 0}, {"type": "note_on", "time": 700, "note": 63, "velocity": 124, "channel": 0}, {"type": "note_off", "time": 239, "note": 63, "velocity": 124, "channel": 0}, {"type": "note_on", "time": 27, "note": 58, "velocity": 117, "channel": 0}, {"type": "note_off", "time": 182, "note": 58, "velocity": 117, "channel": 0}, {"type": "note_on", "time": 21, "note": 57, "velocity": 120, "channel": 0}, {"type": "note_off", "time": 151, "note": 57, "velocity": 120, "channel": 0}, {"type": "note_on", "time": 18, "note": 51, "velocity": 117, "channel": 0}, {"type": "note_off", "time": 185, "note": 51, "velocity": 117, "channel": 0}, {"type": "note_on", "time": 68, "note": 46, "velocity": 116, "channel": 0}, {"type": "note_off", "time": 199, "note": 46, "velocity": 116, "channel": 0}, {"type": "note_on", "time": 47, "note": 45, "velocity": 118, "channel": 0}, {"type": "note_off", "time": 217, "note": 45, "velocity": 118, "channel": 0}, {"type": "note_on", "time": 1069, "note": 52, "velocity": 117, "channel": 0}, {"type": "note_off", "time": 156, "note": 52, "velocity": 117, "channel": 0}, {"type": "note_on", "time": 18, "note": 49, "velocity": 109, "channel": 0}, {"type": "note_off", "time": 163, "note": 49, "velocity": 109, "channel": 0}, {"type": "note_on", "time": 22, "note": 50, "velocity": 113, "channel": 0}, {"type": "note_off", "time": 261, "note": 50, "velocity": 113, "channel": 0}, {"type": "note_on", "time": 21, "note": 52, "velocity": 116, "channel": 0}, {"type": "note_off", "time": 176, "note": 52, "velocity": 116, "channel": 0}, {"type": "note_on", "time": 12, "note": 53, "velocity": 114, "channel": 0}, {"type": "note_off", "time": 195, "note": 53, "velocity": 114, "channel": 0}, {"type": "note_on", "time": 20, "note": 55, "velocity": 109, "channel": 0}, {"type": "note_off", "time": 184, "note": 55, "velocity": 109, "channel": 0}, {"type": "note_on", "time": 9, "note": 57, "velocity": 104, "channel": 0}, {"type": "note_off", "time": 210, "note": 57, "velocity": 104, "channel": 0}, {"type": "note_on", "time": 31, "note": 58, "velocity": 101, "channel": 0}, {"type": "note_off", "time": 81, "note": 58, "velocity": 101, "channel": 0}, {"type": "note_on", "time": 109, "note": 64, "velocity": 122, "channel": 0}, {"type": "note_off", "time": 208, "note": 64, "velocity": 122, "channel": 0}, {"type": "note_on", "time": 16, "note": 62, "velocity": 119, "channel": 0}, {"type": "note_off", "time": 130, "note": 62, "velocity": 119, "channel": 0}, {"type": "note_on", "time": 11, "note": 60, "velocity": 115, "channel": 0}, {"type": "note_off", "time": 216, "note": 60, "velocity": 115, "channel": 0}, {"type": "note_on", "time": 20, "note": 58, "velocity": 108, "channel": 0}, {"type": "note_off", "time": 102, "note": 58, "velocity": 108, "channel": 0}, {"type": "note_on", "time": 30, "note": 57, "velocity": 114, "channel": 0}, {"type": "note_off", "time": 270, "note": 57, "velocity": 114, "channel": 0}, {"type": "note_on", "time": 662, "note": 57, "velocity": 118, "channel": 0}, {"type": "note_off", "time": 222, "note": 57, "velocity": 118, "channel": 0}, {"type": "note_on", "time": 19, "note": 58, "velocity": 114, "channel": 0}, {"type": "note_off", "time": 102, "note": 58, "velocity": 114, "channel": 0}, {"type": "note_on", "time": 15, "note": 60, "velocity": 120, "channel": 0}, {"type": "note_off", "time": 235, "note": 60, "velocity": 120, "channel": 0}, {"type": "note_on", "time": 27, "note": 62, "velocity": 122, "channel": 0}, {"type": "note_off", "time": 127, "note": 62, "velocity": 122, "channel": 0}, {"type": "note_on", "time": 23, "note": 63, "velocity": 125, "channel": 0}, {"type": "note_off", "time": 195, "note": 63, "velocity": 125, "channel": 0}, {"type": "note_on", "time": 74, "note": 57, "velocity": 115, "channel": 0}, {"type": "note_off", "time": 166, "note": 57, "velocity": 115, "channel": 0}, {"type": "note_on", "time": 24, "note": 58, "velocity": 110, "channel": 0}, {"type": "note_off", "time": 143, "note": 58, "velocity": 110, "channel": 0}, {"type": "note_on", "time": 67, "note": 63, "velocity": 119, "channel": 0}, {"type": "note_off", "time": 228, "note": 63, "velocity": 119, "channel": 0}, {"type": "note_on", "time": 18, "note": 62, "velocity": 119, "channel": 0}, {"type": "note_off", "time": 209, "note": 62, "velocity": 119, "channel": 0}, {"type": "note_on", "time": 19, "note": 61, "velocity": 120, "channel": 0}, {"type": "note_off", "time": 150, "note": 61, "velocity": 120, "channel": 0}, {"type": "note_on", "time": 45, "note": 60, "velocity": 121, "channel": 0}, {"type": "note_off", "time": 184, "note": 60, "velocity": 121, "channel": 0}, {"type": "note_on", "time": 32, "note": 59, "velocity": 116, "channel": 0}, {"type": "note_off", "time": 101, "note": 59, "velocity": 116, "channel": 0}, {"type": "note_on", "time": 12, "note": 58, "velocity": 117, "channel": 0}, {"type": "note_off", "time": 85, "note": 58, "velocity": 117, "channel": 0}, {"type": "note_on", "time": 30, "note": 57, "velocity": 118, "channel": 0}, {"type": "note_off", "time": 123, "note": 57, "velocity": 118, "channel": 0}, {"type": "note_on", "time": 75, "note": 60, "velocity": 116, "channel": 0}, {"type": "note_off", "time": 174, "note": 60, "velocity": 116, "channel": 0}, {"type": "note_on", "time": 22, "note": 57, "velocity": 117, "channel": 0}, {"type": "note_off", "time": 158, "note": 57, "velocity": 117, "channel": 0}, {"type": "note_on", "time": 20, "note": 55, "velocity": 116, "channel": 0}, {"type": "note_off", "time": 167, "note": 55, "velocity": 116, "channel": 0}, {"type": "note_on", "time": 40, "note": 54, "velocity": 108, "channel": 0}, {"type": "note_off", "time": 182, "note": 54, "velocity": 108, "channel": 0}, {"type": "note_on", "time": 42, "note": 57, "velocity": 114, "channel": 0}, {"type": "note_off", "time": 128, "note": 57, "velocity": 114, "channel": 0}, {"type": "note_on", "time": 29, "note": 51, "velocity": 119, "channel": 0}, {"type": "note_off", "time": 189, "note": 51, "velocity": 119, "channel": 0}, {"type": "note_on", "time": 22, "note": 48, "velocity": 105, "channel": 0}, {"type": "note_off", "time": 141, "note": 48, "velocity": 105, "channel": 0}, {"type": "note_on", "time": 63, "note": 50, "velocity": 119, "channel": 0}, {"type": "note_off", "time": 149, "note": 50, "velocity": 119, "channel": 0}, {"type": "note_on", "time": 54, "note": 45, "velocity": 121, "channel": 0}, {"type": "note_off", "time": 191, "note": 45, "velocity": 121, "channel": 0}, {"type": "note_on", "time": 27, "note": 48, "velocity": 113, "channel": 0}, {"type": "note_off", "time": 196, "note": 48, "velocity": 113, "channel": 0}, {"type": "note_on", "time": 46, "note": 45, "velocity": 111, "channel": 0}, {"type": "note_off", "time": 215, "note": 45, "velocity": 111, "channel": 0}, {"type": "note_on", "time": 24, "note": 46, "velocity": 107, "channel": 0}, {"type": "note_off", "time": 182, "note": 46, "velocity": 107, "channel": 0}, {"type": "note_on", "time": 18, "note": 48, "velocity": 113, "channel": 0}, {"type": "note_off", "time": 183, "note": 48, "velocity": 113, "channel": 0}, {"type": "note_on", "time": 28, "note": 50, "velocity": 111, "channel": 0}, {"type": "note_off", "time": 149, "note": 50, "velocity": 111, "channel": 0}, {"type": "note_on", "time": 31, "note": 52, "velocity": 109, "channel": 0}, {"type": "note_off", "time": 115, "note": 52, "velocity": 109, "channel": 0}, {"type": "note_on", "time": 23, "note": 57, "velocity": 112, "channel": 0}, {"type": "note_off", "time": 219, "note": 57, "velocity": 112, "channel": 0}, {"type": "note_on", "time": 23, "note": 54, "velocity": 116, "channel": 0}, {"type": "note_off", "time": 166, "note": 54, "velocity": 116, "channel": 0}, {"type": "note_on", "time": 28, "note": 55, "velocity": 109, "channel": 0}, {"type": "note_off", "time": 182, "note": 55, "velocity": 109, "channel": 0}, {"type": "note_on", "time": 67, "note": 57, "velocity": 113, "channel": 0}, {"type": "note_off", "time": 196, "note": 57, "velocity": 113, "channel": 0}, {"type": "note_on", "time": 18, "note": 58, "velocity": 113, "channel": 0}, {"type": "note_off", "time": 191, "note": 58, "velocity": 113, "channel": 0}, {"type": "note_on", "time": 27, "note": 60, "velocity": 114, "channel": 0}, {"type": "note_off", "time": 154, "note": 60, "velocity": 114, "channel": 0}, {"type": "note_on", "time": 11, "note": 62, "velocity": 119, "channel": 0}, {"type": "note_off", "time": 171, "note": 62, "velocity": 119, "channel": 0}, {"type": "note_on", "time": 33, "note": 64, "velocity": 123, "channel": 0}, {"type": "note_off", "time": 166, "note": 64, "velocity": 123, "channel": 0}, {"type": "note_on", "time": 114, "note": 66, "velocity": 117, "channel": 0}, {"type": "note_off", "time": 124, "note": 66, "velocity": 117, "channel": 0}, {"type": "note_on", "time": 11, "note": 67, "velocity": 119, "channel": 0}, {"type": "note_off", "time": 187, "note": 67, "velocity": 119, "channel": 0}, {"type": "note_on", "time": 36, "note": 64, "velocity": 119, "channel": 0}, {"type": "note_off", "time": 197, "note": 64, "velocity": 119, "channel": 0}, {"type": "note_on", "time": 54, "note": 62, "velocity": 115, "channel": 0}, {"type": "note_off", "time": 184, "note": 62, "velocity": 115, "channel": 0}, {"type": "note_on", "time": 1256, "note": 62, "velocity": 121, "channel": 0}, {"type": "note_off", "time": 181, "note": 62, "velocity": 121, "channel": 0}, {"type": "note_on", "time": 34, "note": 64, "velocity": 121, "channel": 0}, {"type": "note_off", "time": 159, "note": 64, "velocity": 121, "channel": 0}, {"type": "note_on", "time": 13, "note": 66, "velocity": 116, "channel": 0}, {"type": "note_off", "time": 82, "note": 66, "velocity": 116, "channel": 0}, {"type": "note_on", "time": 9, "note": 67, "velocity": 123, "channel": 0}, {"type": "note_off", "time": 109, "note": 67, "velocity": 123, "channel": 0}, {"type": "note_on", "time": 26, "note": 66, "velocity": 114, "channel": 0}, {"type": "note_off", "time": 67, "note": 66, "velocity": 114, "channel": 0}, {"type": "note_on", "time": 7, "note": 64, "velocity": 120, "channel": 0}, {"type": "note_off", "time": 146, "note": 64, "velocity": 120, "channel": 0}, {"type": "note_on", "time": 24, "note": 62, "velocity": 117, "channel": 0}, {"type": "note_off", "time": 178, "note": 62, "velocity": 117, "channel": 0}, {"type": "note_on", "time": 16, "note": 58, "velocity": 116, "channel": 0}, {"type": "note_off", "time": 167, "note": 58, "velocity": 116, "channel": 0}, {"type": "note_on", "time": 48, "note": 62, "velocity": 121, "channel": 0}, {"type": "note_off", "time": 96, "note": 62, "velocity": 121, "channel": 0}, {"type": "note_on", "time": 42, "note": 58, "velocity": 116, "channel": 0}, {"type": "note_off", "time": 102, "note": 58, "velocity": 116, "channel": 0}, {"type": "note_on", "time": 22, "note": 55, "velocity": 114, "channel": 0}, {"type": "note_off", "time": 150, "note": 55, "velocity": 114, "channel": 0}, {"type": "note_on", "time": 17, "note": 57, "velocity": 115, "channel": 0}, {"type": "note_off", "time": 180, "note": 57, "velocity": 115, "channel": 0}, {"type": "note_on", "time": 90, "note": 54, "velocity": 106, "channel": 0}, {"type": "note_off", "time": 126, "note": 54, "velocity": 106, "channel": 0}, {"type": "note_on", "time": 19, "note": 55, "velocity": 111, "channel": 0}, {"type": "note_off", "time": 156, "note": 55, "velocity": 111, "channel": 0}, {"type": "note_on", "time": 120, "note": 57, "velocity": 112, "channel": 0}, {"type": "note_off", "time": 110, "note": 57, "velocity": 112, "channel": 0}, {"type": "note_on", "time": 17, "note": 58, "velocity": 113, "channel": 0}, {"type": "note_off", "time": 160, "note": 58, "velocity": 113, "channel": 0}, {"type": "note_on", "time": 35, "note": 60, "velocity": 116, "channel": 0}, {"type": "note_off", "time": 190, "note": 60, "velocity": 116, "channel": 0}, {"type": "note_on", "time": 37, "note": 62, "velocity": 118, "channel": 0}, {"type": "note_off", "time": 161, "note": 62, "velocity": 118, "channel": 0}, {"type": "note_on", "time": 68, "note": 58, "velocity": 112, "channel": 0}, {"type": "note_off", "time": 182, "note": 58, "velocity": 112, "channel": 0}, {"type": "note_on", "time": 16, "note": 57, "velocity": 110, "channel": 0}, {"type": "note_off", "time": 150, "note": 57, "velocity": 110, "channel": 0}, {"type": "note_on", "time": 42, "note": 55, "velocity": 106, "channel": 0}, {"type": "note_off", "time": 168, "note": 55, "velocity": 106, "channel": 0}, {"type": "note_on", "time": 16, "note": 60, "velocity": 117, "channel": 0}, {"type": "note_off", "time": 174, "note": 60, "velocity": 117, "channel": 0}, {"type": "note_on", "time": 47, "note": 57, "velocity": 112, "channel": 0}, {"type": "note_off", "time": 143, "note": 57, "velocity": 112, "channel": 0}, {"type": "note_on", "time": 18, "note": 58, "velocity": 115, "channel": 0}, {"type": "note_off", "time": 195, "note": 58, "velocity": 115, "channel": 0}, {"type": "note_on", "time": 47, "note": 54, "velocity": 93, "channel": 0}, {"type": "note_off", "time": 65, "note": 54, "velocity": 93, "channel": 0}, {"type": "note_on", "time": 937, "note": 57, "velocity": 117, "channel": 0}, {"type": "note_off", "time": 201, "note": 57, "velocity": 117, "channel": 0}, {"type": "note_on", "time": 12, "note": 54, "velocity": 111, "channel": 0}, {"type": "note_off", "time": 170, "note": 54, "velocity": 111, "channel": 0}, {"type": "note_on", "time": 21, "note": 55, "velocity": 111, "channel": 0}, {"type": "note_off", "time": 221, "note": 55, "velocity": 111, "channel": 0}, {"type": "note_on", "time": 30, "note": 57, "velocity": 113, "channel": 0}, {"type": "note_off", "time": 151, "note": 57, "velocity": 113, "channel": 0}, {"type": "note_on", "time": 13, "note": 58, "velocity": 117, "channel": 0}, {"type": "note_off", "time": 213, "note": 58, "velocity": 117, "channel": 0}, {"type": "note_on", "time": 37, "note": 52, "velocity": 114, "channel": 0}, {"type": "note_off", "time": 154, "note": 52, "velocity": 114, "channel": 0}, {"type": "note_on", "time": 27, "note": 55, "velocity": 110, "channel": 0}, {"type": "note_off", "time": 145, "note": 55, "velocity": 110, "channel": 0}, {"type": "note_on", "time": 26, "note": 57, "velocity": 115, "channel": 0}, {"type": "note_off", "time": 75, "note": 57, "velocity": 115, "channel": 0}, {"type": "note_on", "time": 19, "note": 58, "velocity": 115, "channel": 0}, {"type": "note_off", "time": 161, "note": 58, "velocity": 115, "channel": 0}, {"type": "note_on", "time": 13, "note": 57, "velocity": 114, "channel": 0}, {"type": "note_off", "time": 132, "note": 57, "velocity": 114, "channel": 0}, {"type": "note_on", "time": 29, "note": 56, "velocity": 116, "channel": 0}, {"type": "note_off", "time": 200, "note": 56, "velocity": 116, "channel": 0}, {"type": "note_on", "time": 15, "note": 55, "velocity": 109, "channel": 0}, {"type": "note_off", "time": 143, "note": 55, "velocity": 109, "channel": 0}, {"type": "note_on", "time": 103, "note": 53, "velocity": 111, "channel": 0}, {"type": "note_off", "time": 154, "note": 53, "velocity": 111, "channel": 0}, {"type": "note_on", "time": 45, "note": 52, "velocity": 117, "channel": 0}, {"type": "note_off", "time": 173, "note": 52, "velocity": 117, "channel": 0}, {"type": "note_on", "time": 56, "note": 49, "velocity": 106, "channel": 0}, {"type": "note_off", "time": 374, "note": 49, "velocity": 106, "channel": 0}, {"type": "note_on", "time": 71, "note": 47, "velocity": 110, "channel": 0}, {"type": "note_off", "time": 138, "note": 47, "velocity": 110, "channel": 0}, {"type": "note_on", "time": 31, "note": 46, "velocity": 112, "channel": 0}, {"type": "note_off", "time": 173, "note": 46, "velocity": 112, "channel": 0}, {"type": "note_on", "time": 20, "note": 44, "velocity": 107, "channel": 0}, {"type": "note_off", "time": 197, "note": 44, "velocity": 107, "channel": 0}, {"type": "note_on", "time": 10, "note": 46, "velocity": 109, "channel": 0}, {"type": "note_off", "time": 236, "note": 46, "velocity": 109, "channel": 0}, {"type": "note_on", "time": 31, "note": 48, "velocity": 105, "channel": 0}, {"type": "note_off", "time": 201, "note": 48, "velocity": 105, "channel": 0}, {"type": "note_on", "time": 45, "note": 50, "velocity": 108, "channel": 0}, {"type": "note_off", "time": 152, "note": 50, "velocity": 108, "channel": 0}, {"type": "note_on", "time": 16, "note": 52, "velocity": 115, "channel": 0}, {"type": "note_off", "time": 144, "note": 52, "velocity": 115, "channel": 0}, {"type": "note_on", "time": 28, "note": 55, "velocity": 110, "channel": 0}, {"type": "note_off", "time": 157, "note": 55, "velocity": 110, "channel": 0}, {"type": "note_on", "time": 52, "note": 53, "velocity": 106, "channel": 0}, {"type": "note_off", "time": 170, "note": 53, "velocity": 106, "channel": 0}, {"type": "note_on", "time": 18, "note": 52, "velocity": 110, "channel": 0}, {"type": "note_off", "time": 213, "note": 52, "velocity": 110, "channel": 0}, {"type": "note_on", "time": 19, "note": 53, "velocity": 108, "channel": 0}, {"type": "note_off", "time": 151, "note": 53, "velocity": 108, "channel": 0}, {"type": "note_on", "time": 3, "note": 55, "velocity": 109, "channel": 0}, {"type": "note_off", "time": 120, "note": 55, "velocity": 109, "channel": 0}, {"type": "note_on", "time": 15, "note": 57, "velocity": 113, "channel": 0}, {"type": "note_off", "time": 183, "note": 57, "velocity": 113, "channel": 0}, {"type": "note_on", "time": 98, "note": 63, "velocity": 120, "channel": 0}, {"type": "note_off", "time": 68, "note": 63, "velocity": 120, "channel": 0}, {"type": "note_on", "time": 3, "note": 64, "velocity": 124, "channel": 0}, {"type": "note_off", "time": 129, "note": 64, "velocity": 124, "channel": 0}, {"type": "note_on", "time": 39, "note": 60, "velocity": 114, "channel": 0}, {"type": "note_off", "time": 190, "note": 60, "velocity": 114, "channel": 0}, {"type": "note_on", "time": 16, "note": 62, "velocity": 114, "channel": 0}, {"type": "note_off", "time": 179, "note": 62, "velocity": 114, "channel": 0}, {"type": "note_on", "time": 16, "note": 64, "velocity": 122, "channel": 0}, {"type": "note_off", "time": 155, "note": 64, "velocity": 122, "channel": 0}, {"type": "note_on", "time": 12, "note": 66, "velocity": 116, "channel": 0}, {"type": "note_off", "time": 51, "note": 66, "velocity": 116, "channel": 0}, {"type": "note_on", "time": 5, "note": 67, "velocity": 122, "channel": 0}, {"type": "note_off", "time": 179, "note": 67, "velocity": 122, "channel": 0}, {"type": "note_on", "time": 18, "note": 65, "velocity": 117, "channel": 0}, {"type": "note_off", "time": 172, "note": 65, "velocity": 117, "channel": 0}, {"type": "note_on", "time": 15, "note": 64, "velocity": 121, "channel": 0}, {"type": "note_off", "time": 184, "note": 64, "velocity": 121, "channel": 0}, {"type": "note_on", "time": 50, "note": 62, "velocity": 115, "channel": 0}, {"type": "note_off", "time": 172, "note": 62, "velocity": 115, "channel": 0}, {"type": "note_on", "time": 21, "note": 63, "velocity": 119, "channel": 0}, {"type": "note_off", "time": 78, "note": 63, "velocity": 119, "channel": 0}, {"type": "note_on", "time": 15, "note": 64, "velocity": 121, "channel": 0}, {"type": "note_off", "time": 347, "note": 64, "velocity": 121, "channel": 0}, {"type": "note_on", "time": 556, "note": 52, "velocity": 114, "channel": 0}, {"type": "note_off", "time": 182, "note": 52, "velocity": 114, "channel": 0}, {"type": "note_on", "time": 23, "note": 55, "velocity": 112, "channel": 0}, {"type": "note_off", "time": 176, "note": 55, "velocity": 112, "channel": 0}, {"type": "note_on", "time": 20, "note": 56, "velocity": 114, "channel": 0}, {"type": "note_off", "time": 84, "note": 56, "velocity": 114, "channel": 0}, {"type": "note_on", "time": 62, "note": 57, "velocity": 121, "channel": 0}, {"type": "note_off", "time": 118, "note": 57, "velocity": 121, "channel": 0}, {"type": "note_on", "time": 11, "note": 58, "velocity": 115, "channel": 0}, {"type": "note_off", "time": 137, "note": 58, "velocity": 115, "channel": 0}, {"type": "note_on", "time": 139, "note": 57, "velocity": 116, "channel": 0}, {"type": "note_off", "time": 111, "note": 57, "velocity": 116, "channel": 0}, {"type": "note_on", "time": 7, "note": 58, "velocity": 115, "channel": 0}, {"type": "note_off", "time": 115, "note": 58, "velocity": 115, "channel": 0}, {"type": "note_on", "time": 76, "note": 58, "velocity": 116, "channel": 0}, {"type": "note_off", "time": 192, "note": 58, "velocity": 116, "channel": 0}, {"type": "note_on", "time": 15, "note": 57, "velocity": 115, "channel": 0}, {"type": "note_off", "time": 237, "note": 57, "velocity": 115, "channel": 0}, {"type": "note_on", "time": 50, "note": 51, "velocity": 113, "channel": 0}, {"type": "note_off", "time": 141, "note": 51, "velocity": 113, "channel": 0}, {"type": "note_on", "time": 536, "note": 48, "velocity": 114, "channel": 0}, {"type": "note_off", "time": 170, "note": 48, "velocity": 114, "channel": 0}, {"type": "note_on", "time": 10, "note": 49, "velocity": 114, "channel": 0}, {"type": "note_off", "time": 182, "note": 49, "velocity": 114, "channel": 0}, {"type": "note_on", "time": 20, "note": 53, "velocity": 114, "channel": 0}, {"type": "note_off", "time": 105, "note": 53, "velocity": 114, "channel": 0}, {"type": "note_on", "time": 8, "note": 57, "velocity": 112, "channel": 0}, {"type": "note_off", "time": 68, "note": 57, "velocity": 112, "channel": 0}, {"type": "note_on", "time": 94, "note": 59, "velocity": 122, "channel": 0}, {"type": "note_off", "time": 96, "note": 59, "velocity": 122, "channel": 0}, {"type": "note_on", "time": 12, "note": 60, "velocity": 122, "channel": 0}, {"type": "note_off", "time": 137, "note": 60, "velocity": 122, "channel": 0}, {"type": "note_on", "time": 106, "note": 60, "velocity": 119, "channel": 0}, {"type": "note_off", "time": 263, "note": 60, "velocity": 119, "channel": 0}, {"type": "note_on", "time": 62, "note": 60, "velocity": 117, "channel": 0}, {"type": "note_off", "time": 144, "note": 60, "velocity": 117, "channel": 0}, {"type": "note_on", "time": 42, "note": 58, "velocity": 112, "channel": 0}, {"type": "note_off", "time": 228, "note": 58, "velocity": 112, "channel": 0}, {"type": "note_on", "time": 40, "note": 55, "velocity": 108, "channel": 0}, {"type": "note_off", "time": 162, "note": 55, "velocity": 108, "channel": 0}, {"type": "note_on", "time": 579, "note": 56, "velocity": 116, "channel": 0}, {"type": "note_off", "time": 248, "note": 56, "velocity": 116, "channel": 0}, {"type": "note_on", "time": 14, "note": 57, "velocity": 116, "channel": 0}, {"type": "note_off", "time": 614, "note": 57, "velocity": 116, "channel": 0}, {"type": "note_on", "time": 30, "note": 53, "velocity": 117, "channel": 0}, {"type": "note_off", "time": 235, "note": 53, "velocity": 117, "channel": 0}, {"type": "note_on", "time": 24, "note": 49, "velocity": 116, "channel": 0}, {"type": "note_off", "time": 120, "note": 49, "velocity": 116, "channel": 0}, {"type": "note_on", "time": 28, "note": 46, "velocity": 109, "channel": 0}, {"type": "note_off", "time": 131, "note": 46, "velocity": 109, "channel": 0}, {"type": "note_on", "time": 49, "note": 52, "velocity": 117, "channel": 0}, {"type": "note_off", "time": 279, "note": 52, "velocity": 117, "channel": 0}, {"type": "note_on", "time": 410, "note": 49, "velocity": 123, "channel": 0}, {"type": "note_off", "time": 109, "note": 49, "velocity": 123, "channel": 0}, {"type": "note_on", "time": 9, "note": 50, "velocity": 119, "channel": 0}, {"type": "note_off", "time": 135, "note": 50, "velocity": 119, "channel": 0}, {"type": "note_on", "time": 79, "note": 52, "velocity": 121, "channel": 0}, {"type": "note_off", "time": 185, "note": 52, "velocity": 121, "channel": 0}, {"type": "note_on", "time": 25, "note": 53, "velocity": 117, "channel": 0}, {"type": "note_off", "time": 148, "note": 53, "velocity": 117, "channel": 0}, {"type": "note_on", "time": 9, "note": 55, "velocity": 114, "channel": 0}, {"type": "note_off", "time": 161, "note": 55, "velocity": 114, "channel": 0}, {"type": "note_on", "time": 15, "note": 57, "velocity": 114, "channel": 0}, {"type": "note_off", "time": 131, "note": 57, "velocity": 114, "channel": 0}, {"type": "note_on", "time": 60, "note": 59, "velocity": 112, "channel": 0}, {"type": "note_off", "time": 140, "note": 59, "velocity": 112, "channel": 0}, {"type": "note_on", "time": 99, "note": 64, "velocity": 125, "channel": 0}, {"type": "note_off", "time": 217, "note": 64, "velocity": 125, "channel": 0}, {"type": "note_on", "time": 24, "note": 62, "velocity": 115, "channel": 0}, {"type": "note_off", "time": 166, "note": 62, "velocity": 115, "channel": 0}, {"type": "note_on", "time": 57, "note": 65, "velocity": 114, "channel": 0}, {"type": "note_off", "time": 163, "note": 65, "velocity": 114, "channel": 0}, {"type": "note_on", "time": 79, "note": 63, "velocity": 122, "channel": 0}, {"type": "note_off", "time": 128, "note": 63, "velocity": 122, "channel": 0}, {"type": "note_on", "time": 11, "note": 65, "velocity": 121, "channel": 0}, {"type": "note_off", "time": 189, "note": 65, "velocity": 121, "channel": 0}, {"type": "note_on", "time": 68, "note": 63, "velocity": 122, "channel": 0}, {"type": "note_off", "time": 157, "note": 63, "velocity": 122, "channel": 0}, {"type": "note_on", "time": 55, "note": 58, "velocity": 108, "channel": 0}, {"type": "note_off", "time": 172, "note": 58, "velocity": 108, "channel": 0}, {"type": "note_on", "time": 974, "note": 65, "velocity": 124, "channel": 0}, {"type": "note_off", "time": 187, "note": 65, "velocity": 124, "channel": 0}, {"type": "note_on", "time": 17, "note": 63, "velocity": 122, "channel": 0}, {"type": "note_off", "time": 185, "note": 63, "velocity": 122, "channel": 0}, {"type": "note_on", "time": 27, "note": 65, "velocity": 119, "channel": 0}, {"type": "note_off", "time": 218, "note": 65, "velocity": 119, "channel": 0}, {"type": "note_on", "time": 21, "note": 63, "velocity": 123, "channel": 0}, {"type": "note_off", "time": 169, "note": 63, "velocity": 123, "channel": 0}, {"type": "note_on", "time": 12, "note": 58, "velocity": 114, "channel": 0}, {"type": "note_off", "time": 153, "note": 58, "velocity": 114, "channel": 0}, {"type": "note_on", "time": 223, "note": 67, "velocity": 122, "channel": 0}, {"type": "note_off", "time": 182, "note": 67, "velocity": 122, "channel": 0}, {"type": "note_on", "time": 28, "note": 64, "velocity": 119, "channel": 0}, {"type": "note_off", "time": 131, "note": 64, "velocity": 119, "channel": 0}, {"type": "note_on", "time": 32, "note": 67, "velocity": 121, "channel": 0}, {"type": "note_off", "time": 237, "note": 67, "velocity": 121, "channel": 0}, {"type": "note_on", "time": 66, "note": 64, "velocity": 120, "channel": 0}, {"type": "note_off", "time": 144, "note": 64, "velocity": 120, "channel": 0}, {"type": "note_on", "time": 74, "note": 60, "velocity": 120, "channel": 0}, {"type": "note_off", "time": 118, "note": 60, "velocity": 120, "channel": 0}, {"type": "note_on", "time": 13, "note": 61, "velocity": 119, "channel": 0}, {"type": "note_off", "time": 416, "note": 61, "velocity": 119, "channel": 0}, {"type": "note_on", "time": 18, "note": 64, "velocity": 124, "channel": 0}, {"type": "note_off", "time": 179, "note": 64, "velocity": 124, "channel": 0}, {"type": "note_on", "time": 44, "note": 62, "velocity": 117, "channel": 0}, {"type": "note_off", "time": 174, "note": 62, "velocity": 117, "channel": 0}, {"type": "note_on", "time": 96, "note": 57, "velocity": 116, "channel": 0}, {"type": "note_off", "time": 163, "note": 57, "velocity": 116, "channel": 0}, {"type": "note_on", "time": 33, "note": 55, "velocity": 117, "channel": 0}, {"type": "note_off", "time": 126, "note": 55, "velocity": 117, "channel": 0}, {"type": "note_on", "time": 62, "note": 53, "velocity": 110, "channel": 0}, {"type": "note_off", "time": 149, "note": 53, "velocity": 110, "channel": 0}, {"type": "note_on", "time": 22, "note": 52, "velocity": 110, "channel": 0}, {"type": "note_off", "time": 139, "note": 52, "velocity": 110, "channel": 0}, {"type": "note_on", "time": 27, "note": 50, "velocity": 112, "channel": 0}, {"type": "note_off", "time": 239, "note": 50, "velocity": 112, "channel": 0}, {"type": "note_on", "time": 689, "note": 48, "velocity": 116, "channel": 0}, {"type": "note_off", "time": 127, "note": 48, "velocity": 116, "channel": 0}, {"type": "note_on", "time": 16, "note": 49, "velocity": 114, "channel": 0}, {"type": "note_off", "time": 228, "note": 49, "velocity": 114, "channel": 0}, {"type": "note_on", "time": 37, "note": 51, "velocity": 118, "channel": 0}, {"type": "note_off", "time": 163, "note": 51, "velocity": 118, "channel": 0}, {"type": "note_on", "time": 23, "note": 53, "velocity": 118, "channel": 0}, {"type": "note_off", "time": 175, "note": 53, "velocity": 118, "channel": 0}, {"type": "note_on", "time": 57, "note": 56, "velocity": 114, "channel": 0}, {"type": "note_off", "time": 92, "note": 56, "velocity": 114, "channel": 0}, {"type": "note_on", "time": 14, "note": 57, "velocity": 112, "channel": 0}, {"type": "note_off", "time": 140, "note": 57, "velocity": 112, "channel": 0}, {"type": "note_on", "time": 63, "note": 58, "velocity": 105, "channel": 0}, {"type": "note_off", "time": 96, "note": 58, "velocity": 105, "channel": 0}, {"type": "note_on", "time": 10, "note": 60, "velocity": 106, "channel": 0}, {"type": "note_off", "time": 101, "note": 60, "velocity": 106, "channel": 0}, {"type": "note_on", "time": 18, "note": 63, "velocity": 121, "channel": 0}, {"type": "note_off", "time": 265, "note": 63, "velocity": 121, "channel": 0}, {"type": "note_on", "time": 111, "note": 61, "velocity": 115, "channel": 0}, {"type": "note_off", "time": 157, "note": 61, "velocity": 115, "channel": 0}, {"type": "note_on", "time": 104, "note": 53, "velocity": 113, "channel": 0}, {"type": "note_off", "time": 120, "note": 53, "velocity": 113, "channel": 0}, {"type": "note_on", "time": 18, "note": 55, "velocity": 107, "channel": 0}, {"type": "note_off", "time": 72, "note": 55, "velocity": 107, "channel": 0}, {"type": "note_on", "time": 10, "note": 57, "velocity": 109, "channel": 0}, {"type": "note_off", "time": 111, "note": 57, "velocity": 109, "channel": 0}, {"type": "note_on", "time": 13, "note": 60, "velocity": 113, "channel": 0}, {"type": "note_off", "time": 219, "note": 60, "velocity": 113, "channel": 0}, {"type": "note_on", "time": 40, "note": 58, "velocity": 113, "channel": 0}, {"type": "note_off", "time": 148, "note": 58, "velocity": 113, "channel": 0}, {"type": "note_on", "time": 155, "note": 64, "velocity": 123, "channel": 0}, {"type": "note_off", "time": 245, "note": 64, "velocity": 123, "channel": 0}, {"type": "note_on", "time": 102, "note": 62, "velocity": 118, "channel": 0}, {"type": "note_off", "time": 171, "note": 62, "velocity": 118, "channel": 0}, {"type": "note_on", "time": 51, "note": 53, "velocity": 113, "channel": 0}, {"type": "note_off", "time": 133, "note": 53, "velocity": 113, "channel": 0}, {"type": "note_on", "time": 16, "note": 55, "velocity": 113, "channel": 0}, {"type": "note_off", "time": 74, "note": 55, "velocity": 113, "channel": 0}, {"type": "note_on", "time": 21, "note": 57, "velocity": 104, "channel": 0}, {"type": "note_off", "time": 97, "note": 57, "velocity": 104, "channel": 0}, {"type": "note_on", "time": 42, "note": 61, "velocity": 119, "channel": 0}, {"type": "note_off", "time": 196, "note": 61, "velocity": 119, "channel": 0}, {"type": "note_on", "time": 61, "note": 59, "velocity": 118, "channel": 0}, {"type": "note_off", "time": 180, "note": 59, "velocity": 118, "channel": 0}, {"type": "note_on", "time": 842, "note": 61, "velocity": 121, "channel": 0}, {"type": "note_off", "time": 177, "note": 61, "velocity": 121, "channel": 0}, {"type": "note_on", "time": 84, "note": 59, "velocity": 121, "channel": 0}, {"type": "note_off", "time": 148, "note": 59, "velocity": 121, "channel": 0}, {"type": "note_on", "time": 25, "note": 57, "velocity": 119, "channel": 0}, {"type": "note_off", "time": 151, "note": 57, "velocity": 119, "channel": 0}, {"type": "note_on", "time": 108, "note": 53, "velocity": 113, "channel": 0}, {"type": "note_off", "time": 158, "note": 53, "velocity": 113, "channel": 0}, {"type": "note_on", "time": 22, "note": 52, "velocity": 119, "channel": 0}, {"type": "note_off", "time": 137, "note": 52, "velocity": 119, "channel": 0}, {"type": "note_on", "time": 10, "note": 50, "velocity": 116, "channel": 0}, {"type": "note_off", "time": 171, "note": 50, "velocity": 116, "channel": 0}, {"type": "note_on", "time": 28, "note": 51, "velocity": 113, "channel": 0}, {"type": "note_off", "time": 175, "note": 51, "velocity": 113, "channel": 0}, {"type": "note_on", "time": 40, "note": 53, "velocity": 113, "channel": 0}, {"type": "note_off", "time": 250, "note": 53, "velocity": 113, "channel": 0}, {"type": "note_on", "time": 7, "note": 55, "velocity": 112, "channel": 0}, {"type": "note_off", "time": 169, "note": 55, "velocity": 112, "channel": 0}, {"type": "note_on", "time": 21, "note": 57, "velocity": 111, "channel": 0}, {"type": "note_off", "time": 129, "note": 57, "velocity": 111, "channel": 0}, {"type": "note_on", "time": 25, "note": 58, "velocity": 114, "channel": 0}, {"type": "note_off", "time": 209, "note": 58, "velocity": 114, "channel": 0}, {"type": "note_on", "time": 29, "note": 55, "velocity": 113, "channel": 0}, {"type": "note_off", "time": 163, "note": 55, "velocity": 113, "channel": 0}, {"type": "note_on", "time": 13, "note": 56, "velocity": 119, "channel": 0}, {"type": "note_off", "time": 202, "note": 56, "velocity": 119, "channel": 0}, {"type": "note_on", "time": 31, "note": 57, "velocity": 117, "channel": 0}, {"type": "note_off", "time": 160, "note": 57, "velocity": 117, "channel": 0}, {"type": "note_on", "time": 484, "note": 57, "velocity": 116, "channel": 0}, {"type": "note_off", "time": 222, "note": 57, "velocity": 116, "channel": 0}, {"type": "note_on", "time": 18, "note": 58, "velocity": 114, "channel": 0}, {"type": "note_off", "time": 130, "note": 58, "velocity": 114, "channel": 0}, {"type": "note_on", "time": 27, "note": 57, "velocity": 116, "channel": 0}, {"type": "note_off", "time": 206, "note": 57, "velocity": 116, "channel": 0}, {"type": "note_on", "time": 55, "note": 53, "velocity": 118, "channel": 0}, {"type": "note_off", "time": 120, "note": 53, "velocity": 118, "channel": 0}, {"type": "note_on", "time": 27, "note": 51, "velocity": 117, "channel": 0}, {"type": "note_off", "time": 171, "note": 51, "velocity": 117, "channel": 0}, {"type": "note_on", "time": 32, "note": 45, "velocity": 112, "channel": 0}, {"type": "note_off", "time": 167, "note": 45, "velocity": 112, "channel": 0}, {"type": "note_on", "time": 62, "note": 52, "velocity": 118, "channel": 0}, {"type": "note_off", "time": 177, "note": 52, "velocity": 118, "channel": 0}, {"type": "note_on", "time": 99, "note": 49, "velocity": 109, "channel": 0}, {"type": "note_off", "time": 117, "note": 49, "velocity": 109, "channel": 0}, {"type": "note_on", "time": 22, "note": 50, "velocity": 115, "channel": 0}, {"type": "note_off", "time": 226, "note": 50, "velocity": 115, "channel": 0}, {"type": "note_on", "time": 14, "note": 52, "velocity": 114, "channel": 0}, {"type": "note_off", "time": 183, "note": 52, "velocity": 114, "channel": 0}, {"type": "note_on", "time": 16, "note": 53, "velocity": 110, "channel": 0}, {"type": "note_off", "time": 185, "note": 53, "velocity": 110, "channel": 0}, {"type": "note_on", "time": 95, "note": 55, "velocity": 109, "channel": 0}, {"type": "note_off", "time": 158, "note": 55, "velocity": 109, "channel": 0}, {"type": "note_on", "time": 16, "note": 57, "velocity": 101, "channel": 0}, {"type": "note_off", "time": 193, "note": 57, "velocity": 101, "channel": 0}, {"type": "note_on", "time": 21, "note": 58, "velocity": 105, "channel": 0}, {"type": "note_off", "time": 102, "note": 58, "velocity": 105, "channel": 0}, {"type": "note_on", "time": 47, "note": 64, "velocity": 124, "channel": 0}, {"type": "note_off", "time": 184, "note": 64, "velocity": 124, "channel": 0}, {"type": "note_on", "time": 20, "note": 62, "velocity": 119, "channel": 0}, {"type": "note_off", "time": 111, "note": 62, "velocity": 119, "channel": 0}, {"type": "note_on", "time": 14, "note": 64, "velocity": 125, "channel": 0}, {"type": "note_off", "time": 133, "note": 64, "velocity": 125, "channel": 0}, {"type": "note_on", "time": 22, "note": 62, "velocity": 118, "channel": 0}, {"type": "note_off", "time": 84, "note": 62, "velocity": 118, "channel": 0}, {"type": "note_on", "time": 16, "note": 59, "velocity": 114, "channel": 0}, {"type": "note_off", "time": 102, "note": 59, "velocity": 114, "channel": 0}, {"type": "note_on", "time": 30, "note": 57, "velocity": 112, "channel": 0}, {"type": "note_off", "time": 110, "note": 57, "velocity": 112, "channel": 0}, {"type": "note_on", "time": 114, "note": 64, "velocity": 120, "channel": 0}, {"type": "note_off", "time": 123, "note": 64, "velocity": 120, "channel": 0}, {"type": "note_on", "time": 13, "note": 62, "velocity": 115, "channel": 0}, {"type": "note_off", "time": 104, "note": 62, "velocity": 115, "channel": 0}, {"type": "note_on", "time": 11, "note": 64, "velocity": 121, "channel": 0}, {"type": "note_off", "time": 100, "note": 64, "velocity": 121, "channel": 0}, {"type": "note_on", "time": 29, "note": 62, "velocity": 119, "channel": 0}, {"type": "note_off", "time": 92, "note": 62, "velocity": 119, "channel": 0}, {"type": "note_on", "time": 15, "note": 59, "velocity": 109, "channel": 0}, {"type": "note_off", "time": 94, "note": 59, "velocity": 109, "channel": 0}, {"type": "note_on", "time": 17, "note": 57, "velocity": 112, "channel": 0}, {"type": "note_off", "time": 169, "note": 57, "velocity": 112, "channel": 0}, {"type": "note_on", "time": 50, "note": 64, "velocity": 119, "channel": 0}, {"type": "note_off", "time": 128, "note": 64, "velocity": 119, "channel": 0}, {"type": "note_on", "time": 24, "note": 65, "velocity": 115, "channel": 0}, {"type": "note_off", "time": 267, "note": 65, "velocity": 115, "channel": 0}, {"type": "note_on", "time": 22, "note": 63, "velocity": 116, "channel": 0}, {"type": "note_off", "time": 159, "note": 63, "velocity": 116, "channel": 0}, {"type": "note_on", "time": 25, "note": 57, "velocity": 114, "channel": 0}, {"type": "note_off", "time": 109, "note": 57, "velocity": 114, "channel": 0}, {"type": "note_on", "time": 4, "note": 58, "velocity": 104, "channel": 0}, {"type": "note_off", "time": 166, "note": 58, "velocity": 104, "channel": 0}, {"type": "end_of_track", "time": 0}]]}