{"ticks_per_beat": 2520, "tracks": [[{"type": "track_name", "name": "Melody", "time": 0}, {"type": "set_tempo", "tempo": 1000000, "time": 0}, {"type": "key_signature", "key": "G", "time": 0}, {"type": "time_signature", "numerator": 4, "denominator": 4, "clocks_per_click": 24, "notated_32nd_notes_per_beat": 8, "time": 0}, {"type": "note_on", "time": 7365, "note": 55, "velocity": 121, "channel": 0}, {"type": "note_off", "time": 585, "note": 55, "velocity": 121, "channel": 0}, {"type": "note_on", "time": 76, "note": 58, "velocity": 119, "channel": 0}, {"type": "note_off", "time": 259, "note": 58, "velocity": 119, "channel": 0}, {"type": "note_on", "time": 32, "note": 59, "velocity": 117, "channel": 0}, {"type": "note_off", "time": 453, "note": 59, "velocity": 117, "channel": 0}, {"type": "note_on", "time": 32, "note": 64, "velocity": 123, "channel": 0}, {"type": "note_off", "time": 468, "note": 64, "velocity": 123, "channel": 0}, {"type": "note_on", "time": 58, "note": 62, "velocity": 106, "channel": 0}, {"type": "note_off", "time": 683, "note": 62, "velocity": 106, "channel": 0}, {"type": "note_on", "time": 40, "note": 52, "velocity": 112, "channel": 0}, {"type": "note_off", "time": 314, "note": 52, "velocity": 112, "channel": 0}, {"type": "note_on", "time": 21, "note": 53, "velocity": 80, "channel": 0}, {"type": "note_off", "time": 4664, "note": 53, "velocity": 80, "channel": 0}, {"type": "note_on", "time": 246, "note": 51, "velocity": 101, "channel": 0}, {"type": "note_off", "time": 182, "note": 51, "velocity": 101, "channel": 0}, {"type": "note_on", "time": 25, "note": 52, "velocity": 82, "channel": 0}, {"type": "note_off", "time": 2113, "note": 52, "velocity": 82, "channel": 0}, {"type": "note_on", "time": 153, "note": 56, "velocity": 106, "channel": 0}, {"type": "note_off", "time": 169, "note": 56, "velocity": 106, "channel": 0}, {"type": "note_on", "time": 23, "note": 57, "velocity": 95, "channel": 0}, {"type": "note_off", "time": 1062, "note": 57, "velocity": 95, "channel": 0}, {"type": "note_on", "time": 83, "note": 55, "velocity": 103, "channel": 0}, {"type": "note_off", "time": 517, "note": 55, "velocity": 103, "channel": 0}, {"type": "note_on", "time": 221, "note": 48, "velocity": 100, "channel": 0}, {"type": "note_off", "time": 764, "note": 48, "velocity": 100, "channel": 0}, {"type": "note_on", "time": 18, "note": 49, "velocity": 85, "channel": 0}, {"type": "note_off", "time": 863, "note": 49, "velocity": 85, "channel": 0}, {"type": "note_on", "time": 330, "note": 56, "velocity": 109, "channel": 0}, {"type": "note_off", "time": 136, "note": 56, "velocity": 109, "channel": 0}, {"type": "note_on", "time": 20, "note": 57, "velocity": 87, "channel": 0}, {"type": "note_off", "time": 1908, "note": 57, "velocity": 87, "channel": 0}, {"type": "note_on", "time": 44, "note": 55, "velocity": 97, "channel": 0}, {"type": "note_off", "time": 420, "note": 55, "velocity": 97, "channel": 0}, {"type": "note_on", "time": 321, "note": 49, "velocity": 90, "channel": 0}, {"type": "note_off", "time": 409, "note": 49, "velocity": 90, "channel": 0}, {"type": "note_on", "time": 42, "note": 46, "velocity": 91, "channel": 0}, {"type": "note_off", "time": 310, "note": 46, "velocity": 91, "channel": 0}, {"type": "note_on", "time": 44, "note": 50, "velocity": 93, "channel": 0}, {"type": "note_off", "time": 577, "note": 50, "velocity": 93, "channel": 0}, {"type": "note_on", "time": 2786, "note": 52, "velocity": 94, "channel": 0}, {"type": "note_off", "time": 498, "note": 52, "velocity": 94, "channel": 0}, {"type": "note_on", "time": 36, "note": 53, "velocity": 112, "channel": 0}, {"type": "note_off", "time": 614, "note": 53, "velocity": 112, "channel": 0}, {"type": "note_on", "time": 45, "note": 55, "velocity": 119, "channel": 0}, {"type": "note_off", "time": 530, "note": 55, "velocity": 119, "channel": 0}, {"type": "note_on", "time": 47, "note": 57, "velocity": 107, "channel": 0}, {"type": "note_off", "time": 559, "note": 57, "velocity": 107, "channel": 0}, {"type": "note_on", "time": 87, "note": 60, "velocity": 105, "channel": 0}, {"type": "note_off", "time": 398, "note": 60, "velocity": 105, "channel": 0}, {"type": "note_on", "time": 29, "note": 64, "velocity": 114, "channel": 0}, {"type": "note_off", "time": 870, "note": 64, "velocity": 114, "channel": 0}, {"type": "note_on", "time": 40, "note": 62, "velocity": 115, "channel": 0}, {"type": "note_off", "time": 508, "note": 62, "velocity": 115, "channel": 0}, {"type": "note_on", "time": 566, "note": 55, "velocity": 104, "channel": 0}, {"type": "note_off", "time": 460, "note": 55, "velocity": 104, "channel": 0}, {"type": "note_on", "time": 29, "note": 57, "velocity": 104, "channel": 0}, {"type": "note_off", "time": 166, "note": 57, "velocity": 104, "channel": 0}, {"type": "note_on", "time": 19, "note": 60, "velocity": 103, "channel": 0}, {"type": "note_off", "time": 756, "note": 60, "velocity": 103, "channel": 0}, {"type": "note_on", "time": 37, "note": 58, "velocity": 98, "channel": 0}, {"type": "note_off", "time": 155, "note": 58, "velocity": 98, "channel": 0}, {"type": "note_on", "time": 7, "note": 59, "velocity": 90, "channel": 0}, {"type": "note_off", "time": 1301, "note": 59, "velocity": 90, "channel": 0}, {"type": "note_on", "time": 96, "note": 55, "velocity": 96, "channel": 0}, {"type": "note_off", "time": 340, "note": 55, "velocity": 96, "channel": 0}, {"type": "note_on", "time": 29, "note": 57, "velocity": 90, "channel": 0}, {"type": "note_off", "time": 360, "note": 57, "velocity": 90, "channel": 0}, {"type": "note_on", "time": 93, "note": 53, "velocity": 89, "channel": 0}, {"type": "note_off", "time": 427, "note": 53, "velocity": 89, "channel": 0}, {"type": "note_on", "time": 3126, "note": 50, "velocity": 104, "channel": 0}, {"type": "note_off", "time": 78, "note": 50, "velocity": 104, "channel": 0}, {"type": "note_on", "time": 2, "note": 51, "velocity": 105, "channel": 0}, {"type": "note_off", "time": 298, "note": 51, "velocity": 105, "channel": 0}, {"type": "note_on", "time": 25, "note": 49, "velocity": 104, "channel": 0}, {"type": "note_off", "time": 320, "note": 49, "velocity": 104, "channel": 0}, {"type": "note_on", "time": 22, "note": 48, "velocity": 101, "channel": 0}, {"type": "note_off", "time": 147, "note": 48, "velocity": 101, "channel": 0}, {"type": "note_on", "time": 30, "note": 47, "velocity": 100, "channel": 0}, {"type": "note_off", "time": 534, "note": 47, "velocity": 100, "channel": 0}, {"type": "note_on", "time": 34, "note": 49, "velocity": 100, "channel": 0}, {"type": "note_off", "time": 170, "note": 49, "velocity": 100, "channel": 0}, {"type": "note_on", "time": 53, "note": 53, "velocity": 112, "channel": 0}, {"type": "note_off", "time": 407, "note": 53, "velocity": 112, "channel": 0}, {"type": "note_on", "time": 90, "note": 55, "velocity": 122, "channel": 0}, {"type": "note_off", "time": 158, "note": 55, "velocity": 122, "channel": 0}, {"type": "note_on", "time": 13, "note": 56, "velocity": 116, "channel": 0}, {"type": "note_off", "time": 677, "note": 56, "velocity": 116, "channel": 0}, {"type": "note_on", "time": 7, "note": 55, "velocity": 109, "channel": 0}, {"type": "note_off", "time": 213, "note": 55, "velocity": 109, "channel": 0}, {"type": "note_on", "time": 36, "note": 53, "velocity": 104, "channel": 0}, {"type": "note_off", "time": 235, "note": 53, "velocity": 104, "channel": 0}, {"type": "note_on", "time": 128, "note": 52, "velocity": 93, "channel": 0}, {"type": "note_off", "time": 305, "note": 52, "velocity": 93, "channel": 0}, {"type": "note_on", "time": 38, "note": 55, "velocity": 108, "channel": 0}, {"type": "note_off", "time": 192, "note": 55, "velocity": 108, "channel": 0}, {"type": "note_on", "time": 29, "note": 58, "velocity": 107, "channel": 0}, {"type": "note_off", "time": 351, "note": 58, "velocity": 107, "channel": 0}, {"type": "note_on", "time": 85, "note": 54, "velocity": 118, "channel": 0}, {"type": "note_off", "time": 208, "note": 54, "velocity": 118, "channel": 0}, {"type": "note_on", "time": 5, "note": 55, "velocity": 86, "channel": 0}, {"type": "note_off", "time": 1663, "note": 55, "velocity": 86, "channel": 0}, {"type": "note_on", "time": 342, "note": 55, "velocity": 101, "channel": 0}, {"type": "note_off", "time": 720, "note": 55, "velocity": 101, "channel": 0}, {"type": "note_on", "time": 41, "note": 57, "velocity": 96, "channel": 0}, {"type": "note_off", "time": 432, "note": 57, "velocity": 96, "channel": 0}, {"type": "note_on", "time": 354, "note": 50, "velocity": 92, "channel": 0}, {"type": "note_off", "time": 581, "note": 50, "velocity": 92, "channel": 0}, {"type": "note_on", "time": 30, "note": 48, "velocity": 82, "channel": 0}, {"type": "note_off", "time": 2334, "note": 48, "velocity": 82, "channel": 0}, {"type": "note_on", "time": 9, "note": 55, "velocity": 100, "channel": 0}, {"type": "note_off", "time": 433, "note": 55, "velocity": 100, "channel": 0}, {"type": "note_on", "time": 14, "note": 58, "velocity": 98, "channel": 0}, {"type": "note_off", "time": 791, "note": 58, "velocity": 98, "channel": 0}, {"type": "note_on", "time": 45, "note": 60, "velocity": 106, "channel": 0}, {"type": "note_off", "time": 418, "note": 60, "velocity": 106, "channel": 0}, {"type": "note_on", "time": 3441, "note": 55, "velocity": 122, "channel": 0}, {"type": "note_off", "time": 554, "note": 55, "velocity": 122, "channel": 0}, {"type": "note_on", "time": 32, "note": 58, "velocity": 122, "channel": 0}, {"type": "note_off", "time": 806, "note": 58, "velocity": 122, "channel": 0}, {"type": "note_on", "time": 115, "note": 60, "velocity": 121, "channel": 0}, {"type": "note_off", "time": 680, "note": 60, "velocity": 121, "channel": 0}, {"type": "note_on", "time": 559, "note": 60, "velocity": 116, "channel": 0}, {"type": "note_off", "time": 197, "note": 60, "velocity": 116, "channel": 0}, {"type": "note_on", "time": 14, "note": 61, "velocity": 119, "channel": 0}, {"type": "note_off", "time": 539, "note": 61, "velocity": 119, "channel": 0}, {"type": "note_on", "time": 34, "note": 60, "velocity": 115, "channel": 0}, {"type": "note_off", "time": 228, "note": 60, "velocity": 115, "channel": 0}, {"type": "note_on", "time": 32, "note": 58, "velocity": 108, "channel": 0}, {"type": "note_off", "time": 323, "note": 58, "velocity": 108, "channel": 0}, {"type": "note_on", "time": 31, "note": 55, "velocity": 101, "channel": 0}, {"type": "note_off", "time": 362, "note": 55, "velocity": 101, "channel": 0}, {"type": "note_on", "time": 71, "note": 60, "velocity": 114, "channel": 0}, {"type": "note_off", "time": 714, "note": 60, "velocity": 114, "channel": 0}, {"type": "note_on", "time": 85, "note": 58, "velocity": 117, "channel": 0}, {"type": "note_off", "time": 421, "note": 58, "velocity": 117, "channel": 0}, {"type": "note_on", "time": 115, "note": 55, "velocity": 96, "channel": 0}, {"type": "note_off", "time": 712, "note": 55, "velocity": 96, "channel": 0}, {"type": "note_on", "time": 614, "note": 53, "velocity": 97, "channel": 0}, {"type": "note_off", "time": 828, "note": 53, "velocity": 97, "channel": 0}, {"type": "note_on", "time": 54, "note": 54, "velocity": 115, "channel": 0}, {"type": "note_off", "time": 136, "note": 54, "velocity": 115, "channel": 0}, {"type": "note_on", "time": 20, "note": 55, "velocity": 84, "channel": 0}, {"type": "note_off", "time": 1620, "note": 55, "velocity": 84, "channel": 0}, {"type": "note_on", "time": 736, "note": 58, "velocity": 119, "channel": 0}, {"type": "note_off", "time": 493, "note": 58, "velocity": 119, "channel": 0}, {"type": "note_on", "time": 25, "note": 61, "velocity": 113, "channel": 0}, {"type": "note_off", "time": 135, "note": 61, "velocity": 113, "channel": 0}, {"type": "note_on", "time": 44, "note": 58, "velocity": 111, "channel": 0}, {"type": "note_off", "time": 261, "note": 58, "velocity": 111, "channel": 0}, {"type": "note_on", "time": 44, "note": 55, "velocity": 100, "channel": 0}, {"type": "note_off", "time": 373, "note": 55, "velocity": 100, "channel": 0}, {"type": "note_on", "time": 177, "note": 50, "velocity": 100, "channel": 0}, {"type": "note_off", "time": 498, "note": 50, "velocity": 100, "channel": 0}, {"type": "note_on", "time": 61, "note": 49, "velocity": 92, "channel": 0}, {"type": "note_off", "time": 446, "note": 49, "velocity": 92, "channel": 0}, {"type": "note_on", "time": 28, "note": 48, "velocity": 91, "channel": 0}, {"type": "note_off", "time": 460, "note": 48, "velocity": 91, "channel": 0}, {"type": "note_on", "time": 1716, "note": 55, "velocity": 125, "channel": 0}, {"type": "note_off", "time": 513, "note": 55, "velocity": 125, "channel": 0}, {"type": "note_on", "time": 93, "note": 57, "velocity": 118, "channel": 0}, {"type": "note_off", "time": 429, "note": 57, "velocity": 118, "channel": 0}, {"type": "note_on", "time": 42, "note": 58, "velocity": 117, "channel": 0}, {"type": "note_off", "time": 384, "note": 58, "velocity": 117, "channel": 0}, {"type": "note_on", "time": 19, "note": 55, "velocity": 112, "channel": 0}, {"type": "note_off", "time": 301, "note": 55, "velocity": 112, "channel": 0}, {"type": "note_on", "time": 155, "note": 50, "velocity": 105, "channel": 0}, {"type": "note_off", "time": 389, "note": 50, "velocity": 105, "channel": 0}, {"type": "note_on", "time": 15, "note": 48, "velocity": 102, "channel": 0}, {"type": "note_off", "time": 199, "note": 48, "velocity": 102, "channel": 0}, {"type": "note_on", "time": 39, "note": 49, "velocity": 103, "channel": 0}, {"type": "note_off", "time": 354, "note": 49, "velocity": 103, "channel": 0}, {"type": "note_on", "time": 126, "note": 46, "velocity": 101, "channel": 0}, {"type": "note_off", "time": 169, "note": 46, "velocity": 101, "channel": 0}, {"type": "note_on", "time": 5, "note": 47, "velocity": 85, "channel": 0}, {"type": "note_off", "time": 1468, "note": 47, "velocity": 85, "channel": 0}, {"type": "note_on", "time": 36, "note": 50, "velocity": 89, "channel": 0}, {"type": "note_off", "time": 188, "note": 50, "velocity": 89, "channel": 0}, {"type": "note_on", "time": 6, "note": 54, "velocity": 106, "channel": 0}, {"type": "note_off", "time": 387, "note": 54, "velocity": 106, "channel": 0}, {"type": "note_on", "time": 12, "note": 57, "velocity": 93, "channel": 0}, {"type": "note_off", "time": 487, "note": 57, "velocity": 93, "channel": 0}, {"type": "note_on", "time": 99, "note": 52, "velocity": 88, "channel": 0}, {"type": "note_off", "time": 596, "note": 52, "velocity": 88, "channel": 0}, {"type": "note_on", "time": 84, "note": 48, "velocity": 95, "channel": 0}, {"type": "note_off", "time": 1159, "note": 48, "velocity": 95, "channel": 0}, {"type": "note_on", "time": 153, "note": 50, "velocity": 87, "channel": 0}, {"type": "note_off", "time": 1206, "note": 50, "velocity": 87, "channel": 0}, {"type": "note_on", "time": 1144, "note": 55, "velocity": 125, "channel": 0}, {"type": "note_off", "time": 614, "note": 55, "velocity": 125, "channel": 0}, {"type": "note_on", "time": 47, "note": 53, "velocity": 115, "channel": 0}, {"type": "note_off", "time": 650, "note": 53, "velocity": 115, "channel": 0}, {"type": "note_on", "time": 33, "note": 46, "velocity": 108, "channel": 0}, {"type": "note_off", "time": 610, "note": 46, "velocity": 108, "channel": 0}, {"type": "note_on", "time": 23, "note": 47, "velocity": 101, "channel": 0}, {"type": "note_off", "time": 349, "note": 47, "velocity": 101, "channel": 0}, {"type": "note_on", "time": 112, "note": 51, "velocity": 106, "channel": 0}, {"type": "note_off", "time": 149, "note": 51, "velocity": 106, "channel": 0}, {"type": "note_on", "time": 20, "note": 52, "velocity": 99, "channel": 0}, {"type": "note_off", "time": 413, "note": 52, "velocity": 99, "channel": 0}, {"type": "note_on", "time": 61, "note": 45, "velocity": 88, "channel": 0}, {"type": "note_off", "time": 1658, "note": 45, "velocity": 88, "channel": 0}, {"type": "note_on", "time": 223, "note": 50, "velocity": 109, "channel": 0}, {"type": "note_off", "time": 542, "note": 50, "velocity": 109, "channel": 0}, {"type": "note_on", "time": 36, "note": 47, "velocity": 95, "channel": 0}, {"type": "note_off", "time": 511, "note": 47, "velocity": 95, "channel": 0}, {"type": "note_on", "time": 120, "note": 48, "velocity": 101, "channel": 0}, {"type": "note_off", "time": 511, "note": 48, "velocity": 101, "channel": 0}, {"type": "note_on", "time": 46, "note": 52, "velocity": 89, "channel": 0}, {"type": "note_off", "time": 576, "note": 52, "velocity": 89, "channel": 0}, {"type": "note_on", "time": 54, "note": 55, "velocity": 109, "channel": 0}, {"type": "note_off", "time": 372, "note": 55, "velocity": 109, "channel": 0}, {"type": "note_on", "time": 29, "note": 57, "velocity": 107, "channel": 0}, {"type": "note_off", "time": 172, "note": 57, "velocity": 107, "channel": 0}, {"type": "note_on", "time": 13, "note": 59, "velocity": 92, "channel": 0}, {"type": "note_off", "time": 900, "note": 59, "velocity": 92, "channel": 0}, {"type": "note_on", "time": 71, "note": 62, "velocity": 98, "channel": 0}, {"type": "note_off", "time": 732, "note": 62, "velocity": 98, "channel": 0}, {"type": "note_on", "time": 74, "note": 57, "velocity": 85, "channel": 0}, {"type": "note_off", "time": 473, "note": 57, "velocity": 85, "channel": 0}, {"type": "note_on", "time": 1595, "note": 62, "velocity": 117, "channel": 0}, {"type": "note_off", "time": 418, "note": 62, "velocity": 117, "channel": 0}, {"type": "note_on", "time": 29, "note": 64, "velocity": 113, "channel": 0}, {"type": "note_off", "time": 164, "note": 64, "velocity": 113, "channel": 0}, {"type": "note_on", "time": 25, "note": 62, "velocity": 118, "channel": 0}, {"type": "note_off", "time": 129, "note": 62, "velocity": 118, "channel": 0}, {"type": "note_on", "time": 21, "note": 59, "velocity": 100, "channel": 0}, {"type": "note_off", "time": 230, "note": 59, "velocity": 100, "channel": 0}, {"type": "note_on", "time": 237, "note": 60, "velocity": 111, "channel": 0}, {"type": "note_off", "time": 524, "note": 60, "velocity": 111, "channel": 0}, {"type": "note_on", "time": 192, "note": 51, "velocity": 89, "channel": 0}, {"type": "note_off", "time": 563, "note": 51, "velocity": 89, "channel": 0}, {"type": "note_on", "time": 14, "note": 52, "velocity": 88, "channel": 0}, {"type": "note_off", "time": 607, "note": 52, "velocity": 88, "channel": 0}, {"type": "note_on", "time": 106, "note": 55, "velocity": 101, "channel": 0}, {"type": "note_off", "time": 358, "note": 55, "velocity": 101, "channel": 0}, {"type": "note_on", "time": 153, "note": 59, "velocity": 108, "channel": 0}, {"type": "note_off", "time": 921, "note": 59, "velocity": 108, "channel": 0}, {"type": "note_on", "time": 82, "note": 57, "velocity": 105, "channel": 0}, {"type": "note_off", "time": 493, "note": 57, "velocity": 105, "channel": 0}, {"type": "note_on", "time": 45, "note": 55, "velocity": 103, "channel": 0}, {"type": "note_off", "time": 384, "note": 55, "velocity": 103, "channel": 0}, {"type": "note_on", "time": 207, "note": 50, "velocity": 96, "channel": 0}, {"type": "note_off", "time": 521, "note": 50, "velocity": 96, "channel": 0}, {"type": "note_on", "time": 20, "note": 51, "velocity": 87, "channel": 0}, {"type": "note_off", "time": 678, "note": 51, "velocity": 87, "channel": 0}, {"type": "note_on", "time": 1609, "note": 62, "velocity": 127, "channel": 0}, {"type": "note_off", "time": 511, "note": 62, "velocity": 127, "channel": 0}, {"type": "note_on", "time": 37, "note": 64, "velocity": 124, "channel": 0}, {"type": "note_off", "time": 165, "note": 64, "velocity": 124, "channel": 0}, {"type": "note_on", "time": 11, "note": 62, "velocity": 123, "channel": 0}, {"type": "note_off", "time": 132, "note": 62, "velocity": 123, "channel": 0}, {"type": "note_on", "time": 11, "note": 60, "velocity": 121, "channel": 0}, {"type": "note_off", "time": 264, "note": 60, "velocity": 121, "channel": 0}, {"type": "note_on", "time": 315, "note": 67, "velocity": 121, "channel": 0}, {"type": "note_off", "time": 548, "note": 67, "velocity": 121, "channel": 0}, {"type": "note_on", "time": 138, "note": 63, "velocity": 114, "channel": 0}, {"type": "note_off", "time": 528, "note": 63, "velocity": 114, "channel": 0}, {"type": "note_on", "time": 12, "note": 60, "velocity": 114, "channel": 0}, {"type": "note_off", "time": 131, "note": 60, "velocity": 114, "channel": 0}, {"type": "note_on", "time": 9, "note": 62, "velocity": 108, "channel": 0}, {"type": "note_off", "time": 1472, "note": 62, "velocity": 108, "channel": 0}, {"type": "note_on", "time": 325, "note": 55, "velocity": 106, "channel": 0}, {"type": "note_off", "time": 135, "note": 55, "velocity": 106, "channel": 0}, {"type": "note_on", "time": 49, "note": 67, "velocity": 109, "channel": 0}, {"type": "note_off", "time": 252, "note": 67, "velocity": 109, "channel": 0}, {"type": "note_on", "time": 674, "note": 62, "velocity": 113, "channel": 0}, {"type": "note_off", "time": 493, "note": 62, "velocity": 113, "channel": 0}, {"type": "note_on", "time": 27, "note": 59, "velocity": 98, "channel": 0}, {"type": "note_off", "time": 435, "note": 59, "velocity": 98, "channel": 0}, {"type": "note_on", "time": 85, "note": 59, "velocity": 96, "channel": 0}, {"type": "note_off", "time": 323, "note": 59, "velocity": 96, "channel": 0}, {"type": "note_on", "time": 43, "note": 55, "velocity": 97, "channel": 0}, {"type": "note_off", "time": 488, "note": 55, "velocity": 97, "channel": 0}, {"type": "note_on", "time": 29, "note": 60, "velocity": 87, "channel": 0}, {"type": "note_off", "time": 965, "note": 60, "velocity": 87, "channel": 0}, {"type": "note_on", "time": 1272, "note": 55, "velocity": 109, "channel": 0}, {"type": "note_off", "time": 479, "note": 55, "velocity": 109, "channel": 0}, {"type": "note_on", "time": 21, "note": 58, "velocity": 109, "channel": 0}, {"type": "note_off", "time": 493, "note": 58, "velocity": 109, "channel": 0}, {"type": "note_on", "time": 47, "note": 60, "velocity": 109, "channel": 0}, {"type": "note_off", "time": 314, "note": 60, "velocity": 109, "channel": 0}, {"type": "note_on", "time": 31, "note": 58, "velocity": 109, "channel": 0}, {"type": "note_off", "time": 382, "note": 58, "velocity": 109, "channel": 0}, {"type": "note_on", "time": 32, "note": 55, "velocity": 100, "channel": 0}, {"type": "note_off", "time": 332, "note": 55, "velocity": 100, "channel": 0}, {"type": "note_on", "time": 191, "note": 50, "velocity": 102, "channel": 0}, {"type": "note_off", "time": 365, "note": 50, "velocity": 102, "channel": 0}, {"type": "note_on", "time": 30, "note": 48, "velocity": 99, "channel": 0}, {"type": "note_off", "time": 232, "note": 48, "velocity": 99, "channel": 0}, {"type": "note_on", "time": 24, "note": 50, "velocity": 98, "channel": 0}, {"type": "note_off", "time": 329, "note": 50, "velocity": 98, "channel": 0}, {"type": "note_on", "time": 36, "note": 46, "velocity": 100, "channel": 0}, {"type": "note_off", "time": 173, "note": 46, "velocity": 100, "channel": 0}, {"type": "note_on", "time": 1, "note": 47, "velocity": 89, "channel": 0}, {"type": "note_off", "time": 1073, "note": 47, "velocity": 89, "channel": 0}, {"type": "note_on", "time": 134, "note": 50, "velocity": 82, "channel": 0}, {"type": "note_off", "time": 209, "note": 50, "velocity": 82, "channel": 0}, {"type": "note_on", "time": 21, "note": 55, "velocity": 97, "channel": 0}, {"type": "note_off", "time": 956, "note": 55, "velocity": 97, "channel": 0}, {"type": "note_on", "time": 46, "note": 52, "velocity": 85, "channel": 0}, {"type": "note_off", "time": 565, "note": 52, "velocity": 85, "channel": 0}, {"type": "note_on", "time": 3784, "note": 52, "velocity": 106, "channel": 0}, {"type": "note_off", "time": 559, "note": 52, "velocity": 106, "channel": 0}, {"type": "note_on", "time": 73, "note": 49, "velocity": 113, "channel": 0}, {"type": "note_off", "time": 559, "note": 49, "velocity": 113, "channel": 0}, {"type": "note_on", "time": 62, "note": 50, "velocity": 101, "channel": 0}, {"type": "note_off", "time": 566, "note": 50, "velocity": 101, "channel": 0}, {"type": "note_on", "time": 87, "note": 52, "velocity": 113, "channel": 0}, {"type": "note_off", "time": 508, "note": 52, "velocity": 113, "channel": 0}, {"type": "note_on", "time": 25, "note": 53, "velocity": 115, "channel": 0}, {"type": "note_off", "time": 619, "note": 53, "velocity": 115, "channel": 0}, {"type": "note_on", "time": 62, "note": 55, "velocity": 125, "channel": 0}, {"type": "note_off", "time": 478, "note": 55, "velocity": 125, "channel": 0}, {"type": "note_on", "time": 48, "note": 57, "velocity": 120, "channel": 0}, {"type": "note_off", "time": 478, "note": 57, "velocity": 120, "channel": 0}, {"type": "note_on", "time": 162, "note": 60, "velocity": 120, "channel": 0}, {"type": "note_off", "time": 563, "note": 60, "velocity": 120, "channel": 0}, {"type": "note_on", "time": 28, "note": 63, "velocity": 120, "channel": 0}, {"type": "note_off", "time": 246, "note": 63, "velocity": 120, "channel": 0}, {"type": "note_on", "time": 25, "note": 64, "velocity": 120, "channel": 0}, {"type": "note_off", "time": 1398, "note": 64, "velocity": 120, "channel": 0}, {"type": "note_on", "time": 53, "note": 60, "velocity": 119, "channel": 0}, {"type": "note_off", "time": 393, "note": 60, "velocity": 119, "channel": 0}, {"type": "note_on", "time": 48, "note": 57, "velocity": 109, "channel": 0}, {"type": "note_off", "time": 344, "note": 57, "velocity": 109, "channel": 0}, {"type": "note_on", "time": 59, "note": 53, "velocity": 106, "channel": 0}, {"type": "note_off", "time": 396, "note": 53, "velocity": 106, "channel": 0}, {"type": "note_on", "time": 650, "note": 45, "velocity": 106, "channel": 0}, {"type": "note_off", "time": 216, "note": 45, "velocity": 106, "channel": 0}, {"type": "note_on", "time": 108, "note": 51, "velocity": 106, "channel": 0}, {"type": "note_off", "time": 216, "note": 51, "velocity": 106, "channel": 0}, {"type": "note_on", "time": 23, "note": 52, "velocity": 104, "channel": 0}, {"type": "note_off", "time": 411, "note": 52, "velocity": 104, "channel": 0}, {"type": "note_on", "time": 61, "note": 50, "velocity": 103, "channel": 0}, {"type": "note_off", "time": 272, "note": 50, "velocity": 103, "channel": 0}, {"type": "note_on", "time": 59, "note": 48, "velocity": 103, "channel": 0}, {"type": "note_off", "time": 231, "note": 48, "velocity": 103, "channel": 0}, {"type": "note_on", "time": 65, "note": 47, "velocity": 93, "channel": 0}, {"type": "note_off", "time": 768, "note": 47, "velocity": 93, "channel": 0}, {"type": "note_on", "time": 4072, "note": 50, "velocity": 114, "channel": 0}, {"type": "note_off", "time": 367, "note": 50, "velocity": 114, "channel": 0}, {"type": "note_on", "time": 48, "note": 52, "velocity": 100, "channel": 0}, {"type": "note_off", "time": 136, "note": 52, "velocity": 100, "channel": 0}, {"type": "note_on", "time": 33, "note": 50, "velocity": 113, "channel": 0}, {"type": "note_off", "time": 185, "note": 50, "velocity": 113, "channel": 0}, {"type": "note_on", "time": 41, "note": 47, "velocity": 107, "channel": 0}, {"type": "note_off", "time": 429, "note": 47, "velocity": 107, "channel": 0}, {"type": "note_on", "time": 38, "note": 48, "velocity": 112, "channel": 0}, {"type": "note_off", "time": 596, "note": 48, "velocity": 112, "channel": 0}, {"type": "note_on", "time": 33, "note": 50, "velocity": 110, "channel": 0}, {"type": "note_off", "time": 668, "note": 50, "velocity": 110, "channel": 0}, {"type": "note_on", "time": 56, "note": 51, "velocity": 106, "channel": 0}, {"type": "note_off", "time": 557, "note": 51, "velocity": 106, "channel": 0}, {"type": "note_on", "time": 40, "note": 53, "velocity": 113, "channel": 0}, {"type": "note_off", "time": 541, "note": 53, "velocity": 113, "channel": 0}, {"type": "note_on", "time": 47, "note": 55, "velocity": 118, "channel": 0}, {"type": "note_off", "time": 570, "note": 55, "velocity": 118, "channel": 0}, {"type": "note_on", "time": 40, "note": 58, "velocity": 122, "channel": 0}, {"type": "note_off", "time": 510, "note": 58, "velocity": 122, "channel": 0}, {"type": "note_on", "time": 42, "note": 60, "velocity": 117, "channel": 0}, {"type": "note_off", "time": 131, "note": 60, "velocity": 117, "channel": 0}, {"type": "note_on", "time": 7, "note": 62, "velocity": 120, "channel": 0}, {"type": "note_off", "time": 630, "note": 62, "velocity": 120, "channel": 0}, {"type": "note_on", "time": 111, "note": 58, "velocity": 115, "channel": 0}, {"type": "note_off", "time": 230, "note": 58, "velocity": 115, "channel": 0}, {"type": "note_on", "time": 53, "note": 50, "velocity": 109, "channel": 0}, {"type": "note_off", "time": 184, "note": 50, "velocity": 109, "channel": 0}, {"type": "note_on", "time": 21, "note": 52, "velocity": 102, "channel": 0}, {"type": "note_off", "time": 394, "note": 52, "velocity": 102, "channel": 0}, {"type": "note_on", "time": 303, "note": 58, "velocity": 114, "channel": 0}, {"type": "note_off", "time": 156, "note": 58, "velocity": 114, "channel": 0}, {"type": "note_on", "time": 46, "note": 60, "velocity": 118, "channel": 0}, {"type": "note_off", "time": 442, "note": 60, "velocity": 118, "channel": 0}, {"type": "note_on", "time": 108, "note": 57, "velocity": 112, "channel": 0}, {"type": "note_off", "time": 154, "note": 57, "velocity": 112, "channel": 0}, {"type": "note_on", "time": 38, "note": 59, "velocity": 103, "channel": 0}, {"type": "note_off", "time": 1519, "note": 59, "velocity": 103, "channel": 0}, {"type": "note_on", "time": 92, "note": 55, "velocity": 106, "channel": 0}, {"type": "note_off", "time": 545, "note": 55, "velocity": 106, "channel": 0}, {"type": "note_on", "time": 59, "note": 57, "velocity": 97, "channel": 0}, {"type": "note_off", "time": 576, "note": 57, "velocity": 97, "channel": 0}, {"type": "note_on", "time": 258, "note": 53, "velocity": 100, "channel": 0}, {"type": "note_off", "time": 480, "note": 53, "velocity": 100, "channel": 0}, {"type": "note_on", "time": 25, "note": 52, "velocity": 10, "channel": 0}, {"type": "note_off", "time": 497, "note": 52, "velocity": 10, "channel": 0}, {"type": "note_on", "time": 213, "note": 50, "velocity": 87, "channel": 0}, {"type": "note_off", "time": 285, "note": 50, "velocity": 87, "channel": 0}, {"type": "note_on", "time": 160, "note": 54, "velocity": 117, "channel": 0}, {"type": "note_off", "time": 248, "note": 54, "velocity": 117, "channel": 0}, {"type": "note_on", "time": 36, "note": 55, "velocity": 91, "channel": 0}, {"type": "note_off", "time": 844, "note": 55, "velocity": 91, "channel": 0}, {"type": "note_on", "time": 4726, "note": 52, "velocity": 104, "channel": 0}, {"type": "note_off", "time": 444, "note": 52, "velocity": 104, "channel": 0}, {"type": "note_on", "time": 33, "note": 53, "velocity": 113, "channel": 0}, {"type": "note_off", "time": 462, "note": 53, "velocity": 113, "channel": 0}, {"type": "note_on", "time": 72, "note": 57, "velocity": 115, "channel": 0}, {"type": "note_off", "time": 239, "note": 57, "velocity": 115, "channel": 0}, {"type": "note_on", "time": 33, "note": 58, "velocity": 118, "channel": 0}, {"type": "note_off", "time": 326, "note": 58, "velocity": 118, "channel": 0}, {"type": "note_on", "time": 154, "note": 62, "velocity": 120, "channel": 0}, {"type": "note_off", "time": 334, "note": 62, "velocity": 120, "channel": 0}, {"type": "note_on", "time": 15, "note": 64, "velocity": 119, "channel": 0}, {"type": "note_off", "time": 1640, "note": 64, "velocity": 119, "channel": 0}, {"type": "note_on", "time": 15, "note": 62, "velocity": 114, "channel": 0}, {"type": "note_off", "time": 100, "note": 62, "velocity": 114, "channel": 0}, {"type": "note_on", "time": 17, "note": 60, "velocity": 116, "channel": 0}, {"type": "note_off", "time": 306, "note": 60, "velocity": 116, "channel": 0}, {"type": "note_on", "time": 68, "note": 59, "velocity": 114, "channel": 0}, {"type": "note_off", "time": 140, "note": 59, "velocity": 114, "channel": 0}, {"type": "note_on", "time": 23, "note": 58, "velocity": 113, "channel": 0}, {"type": "note_off", "time": 206, "note": 58, "velocity": 113, "channel": 0}, {"type": "note_on", "time": 40, "note": 59, "velocity": 109, "channel": 0}, {"type": "note_off", "time": 1473, "note": 59, "velocity": 109, "channel": 0}, {"type": "note_on", "time": 22, "note": 58, "velocity": 111, "channel": 0}, {"type": "note_off", "time": 113, "note": 58, "velocity": 111, "channel": 0}, {"type": "note_on", "time": 22, "note": 57, "velocity": 113, "channel": 0}, {"type": "note_off", "time": 378, "note": 57, "velocity": 113, "channel": 0}, {"type": "note_on", "time": 72, "note": 56, "velocity": 108, "channel": 0}, {"type": "note_off", "time": 866, "note": 56, "velocity": 108, "channel": 0}, {"type": "note_on", "time": 18, "note": 55, "velocity": 105, "channel": 0}, {"type": "note_off", "time": 277, "note": 55, "velocity": 105, "channel": 0}, {"type": "note_on", "time": 42, "note": 54, "velocity": 116, "channel": 0}, {"type": "note_off", "time": 230, "note": 54, "velocity": 116, "channel": 0}, {"type": "note_on", "time": 49, "note": 53, "velocity": 101, "channel": 0}, {"type": "note_off", "time": 755, "note": 53, "velocity": 101, "channel": 0}, {"type": "note_on", "time": 42, "note": 51, "velocity": 96, "channel": 0}, {"type": "note_off", "time": 433, "note": 51, "velocity": 96, "channel": 0}, {"type": "note_on", "time": 58, "note": 52, "velocity": 90, "channel": 0}, {"type": "note_off", "time": 528, "note": 52, "velocity": 90, "channel": 0}, {"type": "note_on", "time": 199, "note": 58, "velocity": 115, "channel": 0}, {"type": "note_off", "time": 421, "note": 58, "velocity": 115, "channel": 0}, {"type": "note_on", "time": 77, "note": 55, "velocity": 102, "channel": 0}, {"type": "note_off", "time": 267, "note": 55, "velocity": 102, "channel": 0}, {"type": "note_on", "time": 185, "note": 55, "velocity": 97, "channel": 0}, {"type": "note_off", "time": 303, "note": 55, "velocity": 97, "channel": 0}, {"type": "note_on", "time": 120, "note": 52, "velocity": 89, "channel": 0}, {"type": "note_off", "time": 203, "note": 52, "velocity": 89, "channel": 0}, {"type": "note_on", "time": 64, "note": 55, "velocity": 102, "channel": 0}, {"type": "note_off", "time": 745, "note": 55, "velocity": 102, "channel": 0}, {"type": "note_on", "time": 72, "note": 58, "velocity": 110, "channel": 0}, {"type": "note_off", "time": 488, "note": 58, "velocity": 110, "channel": 0}, {"type": "note_on", "time": 2121, "note": 55, "velocity": 109, "channel": 0}, {"type": "note_off", "time": 420, "note": 55, "velocity": 109, "channel": 0}, {"type": "note_on", "time": 58, "note": 58, "velocity": 117, "channel": 0}, {"type": "note_off", "time": 672, "note": 58, "velocity": 117, "channel": 0}, {"type": "note_on", "time": 99, "note": 60, "velocity": 111, "channel": 0}, {"type": "note_off", "time": 258, "note": 60, "velocity": 111, "channel": 0}, {"type": "note_on", "time": 15, "note": 61, "velocity": 111, "channel": 0}, {"type": "note_off", "time": 492, "note": 61, "velocity": 111, "channel": 0}, {"type": "note_on", "time": 49, "note": 60, "velocity": 112, "channel": 0}, {"type": "note_off", "time": 312, "note": 60, "velocity": 112, "channel": 0}, {"type": "note_on", "time": 18, "note": 58, "velocity": 104, "channel": 0}, {"type": "note_off", "time": 135, "note": 58, "velocity": 104, "channel": 0}, {"type": "note_on", "time": 27, "note": 55, "velocity": 106, "channel": 0}, {"type": "note_off", "time": 224, "note": 55, "velocity": 106, "channel": 0}, {"type": "note_on", "time": 373, "note": 60, "velocity": 112, "channel": 0}, {"type": "note_off", "time": 522, "note": 60, "velocity": 112, "channel": 0}, {"type": "note_on", "time": 182, "note": 58, "velocity": 110, "channel": 0}, {"type": "note_off", "time": 270, "note": 58, "velocity": 110, "channel": 0}, {"type": "note_on", "time": 197, "note": 55, "velocity": 99, "channel": 0}, {"type": "note_off", "time": 1115, "note": 55, "velocity": 99, "channel": 0}, {"type": "note_on", "time": 160, "note": 55, "velocity": 102, "channel": 0}, {"type": "note_off", "time": 720, "note": 55, "velocity": 102, "channel": 0}, {"type": "note_on", "time": 157, "note": 57, "velocity": 103, "channel": 0}, {"type": "note_off", "time": 431, "note": 57, "velocity": 103, "channel": 0}, {"type": "note_on", "time": 541, "note": 57, "velocity": 98, "channel": 0}, {"type": "note_off", "time": 351, "note": 57, "velocity": 98, "channel": 0}, {"type": "note_on", "time": 380, "note": 48, "velocity": 98, "channel": 0}, {"type": "note_off", "time": 424, "note": 48, "velocity": 98, "channel": 0}, {"type": "note_on", "time": 2898, "note": 43, "velocity": 110, "channel": 0}, {"type": "note_off", "time": 411, "note": 43, "velocity": 110, "channel": 0}, {"type": "note_on", "time": 82, "note": 49, "velocity": 100, "channel": 0}, {"type": "note_off", "time": 776, "note": 49, "velocity": 100, "channel": 0}, {"type": "note_on", "time": 159, "note": 52, "velocity": 106, "channel": 0}, {"type": "note_off", "time": 745, "note": 52, "velocity": 106, "channel": 0}, {"type": "note_on", "time": 280, "note": 49, "velocity": 97, "channel": 0}, {"type": "note_off", "time": 244, "note": 49, "velocity": 97, "channel": 0}, {"type": "note_on", "time": 48, "note": 50, "velocity": 100, "channel": 0}, {"type": "note_off", "time": 599, "note": 50, "velocity": 100, "channel": 0}, {"type": "note_on", "time": 128, "note": 55, "velocity": 119, "channel": 0}, {"type": "note_off", "time": 498, "note": 55, "velocity": 119, "channel": 0}, {"type": "note_on", "time": 38, "note": 50, "velocity": 105, "channel": 0}, {"type": "note_off", "time": 686, "note": 50, "velocity": 105, "channel": 0}, {"type": "note_on", "time": 23, "note": 48, "velocity": 103, "channel": 0}, {"type": "note_off", "time": 383, "note": 48, "velocity": 103, "channel": 0}, {"type": "note_on", "time": 58, "note": 47, "velocity": 95, "channel": 0}, {"type": "note_off", "time": 871, "note": 47, "velocity": 95, "channel": 0}, {"type": "note_on", "time": 181, "note": 43, "velocity": 95, "channel": 0}, {"type": "note_off", "time": 367, "note": 43, "velocity": 95, "channel": 0}, {"type": "note_on", "time": 795, "note": 48, "velocity": 112, "channel": 0}, {"type": "note_off", "time": 457, "note": 48, "velocity": 112, "channel": 0}, {"type": "note_on", "time": 841, "note": 43, "velocity": 109, "channel": 0}, {"type": "note_off", "time": 435, "note": 43, "velocity": 109, "channel": 0}, {"type": "note_on", "time": 800, "note": 51, "velocity": 107, "channel": 0}, {"type": "note_off", "time": 592, "note": 51, "velocity": 107, "channel": 0}, {"type": "note_on", "time": 36, "note": 50, "velocity": 98, "channel": 0}, {"type": "note_off", "time": 636, "note": 50, "velocity": 98, "channel": 0}, {"type": "note_on", "time": 43, "note": 48, "velocity": 88, "channel": 0}, {"type": "note_off", "time": 296, "note": 48, "velocity": 88, "channel": 0}, {"type": "note_on", "time": 65, "note": 54, "velocity": 121, "channel": 0}, {"type": "note_off", "time": 789, "note": 54, "velocity": 121, "channel": 0}, {"type": "note_on", "time": 54, "note": 56, "velocity": 122, "channel": 0}, {"type": "note_off", "time": 270, "note": 56, "velocity": 122, "channel": 0}, {"type": "note_on", "time": 25, "note": 57, "velocity": 103, "channel": 0}, {"type": "note_off", "time": 1067, "note": 57, "velocity": 103, "channel": 0}, {"type": "note_on", "time": 25, "note": 56, "velocity": 114, "channel": 0}, {"type": "note_off", "time": 149, "note": 56, "velocity": 114, "channel": 0}, {"type": "note_on", "time": 23, "note": 55, "velocity": 105, "channel": 0}, {"type": "note_off", "time": 250, "note": 55, "velocity": 105, "channel": 0}, {"type": "note_on", "time": 42, "note": 54, "velocity": 113, "channel": 0}, {"type": "note_off", "time": 622, "note": 54, "velocity": 113, "channel": 0}, {"type": "note_on", "time": 210, "note": 62, "velocity": 117, "channel": 0}, {"type": "note_off", "time": 548, "note": 62, "velocity": 117, "channel": 0}, {"type": "note_on", "time": 539, "note": 59, "velocity": 105, "channel": 0}, {"type": "note_off", "time": 457, "note": 59, "velocity": 105, "channel": 0}, {"type": "note_on", "time": 121, "note": 54, "velocity": 109, "channel": 0}, {"type": "note_off", "time": 745, "note": 54, "velocity": 109, "channel": 0}, {"type": "note_on", "time": 210, "note": 50, "velocity": 84, "channel": 0}, {"type": "note_off", "time": 179, "note": 50, "velocity": 84, "channel": 0}, {"type": "note_on", "time": 109, "note": 53, "velocity": 99, "channel": 0}, {"type": "note_off", "time": 804, "note": 53, "velocity": 99, "channel": 0}, {"type": "note_on", "time": 154, "note": 50, "velocity": 80, "channel": 0}, {"type": "note_off", "time": 293, "note": 50, "velocity": 80, "channel": 0}, {"type": "note_on", "time": 54, "note": 52, "velocity": 84, "channel": 0}, {"type": "note_off", "time": 660, "note": 52, "velocity": 84, "channel": 0}, {"type": "note_on", "time": 4199, "note": 47, "velocity": 110, "channel": 0}, {"type": "note_off", "time": 324, "note": 47, "velocity": 110, "channel": 0}, {"type": "note_on", "time": 43, "note": 44, "velocity": 100, "channel": 0}, {"type": "note_off", "time": 208, "note": 44, "velocity": 100, "channel": 0}, {"type": "note_on", "time": 103, "note": 45, "velocity": 106, "channel": 0}, {"type": "note_off", "time": 174, "note": 45, "velocity": 106, "channel": 0}, {"type": "note_on", "time": 116, "note": 47, "velocity": 103, "channel": 0}, {"type": "note_off", "time": 239, "note": 47, "velocity": 103, "channel": 0}, {"type": "note_on", "time": 47, "note": 48, "velocity": 109, "channel": 0}, {"type": "note_off", "time": 407, "note": 48, "velocity": 109, "channel": 0}, {"type": "note_on", "time": 16, "note": 50, "velocity": 103, "channel": 0}, {"type": "note_off", "time": 310, "note": 50, "velocity": 103, "channel": 0}, {"type": "note_on", "time": 16, "note": 52, "velocity": 94, "channel": 0}, {"type": "note_off", "time": 213, "note": 52, "velocity": 94, "channel": 0}, {"type": "note_on", "time": 125, "note": 55, "velocity": 108, "channel": 0}, {"type": "note_off", "time": 200, "note": 55, "velocity": 108, "channel": 0}, {"type": "note_on", "time": 36, "note": 59, "velocity": 113, "channel": 0}, {"type": "note_off", "time": 331, "note": 59, "velocity": 113, "channel": 0}, {"type": "note_on", "time": 16, "note": 56, "velocity": 109, "channel": 0}, {"type": "note_off", "time": 219, "note": 56, "velocity": 109, "channel": 0}, {"type": "note_on", "time": 122, "note": 57, "velocity": 112, "channel": 0}, {"type": "note_off", "time": 213, "note": 57, "velocity": 112, "channel": 0}, {"type": "note_on", "time": 18, "note": 59, "velocity": 113, "channel": 0}, {"type": "note_off", "time": 235, "note": 59, "velocity": 113, "channel": 0}, {"type": "note_on", "time": 64, "note": 60, "velocity": 125, "channel": 0}, {"type": "note_off", "time": 288, "note": 60, "velocity": 125, "channel": 0}, {"type": "note_on", "time": 40, "note": 62, "velocity": 123, "channel": 0}, {"type": "note_off", "time": 210, "note": 62, "velocity": 123, "channel": 0}, {"type": "note_on", "time": 27, "note": 64, "velocity": 124, "channel": 0}, {"type": "note_off", "time": 318, "note": 64, "velocity": 124, "channel": 0}, {"type": "note_on", "time": 32, "note": 66, "velocity": 125, "channel": 0}, {"type": "note_off", "time": 133, "note": 66, "velocity": 125, "channel": 0}, {"type": "note_on", "time": 12, "note": 67, "velocity": 126, "channel": 0}, {"type": "note_off", "time": 319, "note": 67, "velocity": 126, "channel": 0}, {"type": "note_on", "time": 21, "note": 66, "velocity": 122, "channel": 0}, {"type": "note_off", "time": 218, "note": 66, "velocity": 122, "channel": 0}, {"type": "note_on", "time": 81, "note": 62, "velocity": 120, "channel": 0}, {"type": "note_off", "time": 456, "note": 62, "velocity": 120, "channel": 0}, {"type": "note_on", "time": 56, "note": 61, "velocity": 111, "channel": 0}, {"type": "note_off", "time": 67, "note": 61, "velocity": 111, "channel": 0}, {"type": "note_on", "time": 18, "note": 60, "velocity": 115, "channel": 0}, {"type": "note_off", "time": 415, "note": 60, "velocity": 115, "channel": 0}, {"type": "note_on", "time": 126, "note": 51, "velocity": 101, "channel": 0}, {"type": "note_off", "time": 250, "note": 51, "velocity": 101, "channel": 0}, {"type": "note_on", "time": 6, "note": 52, "velocity": 95, "channel": 0}, {"type": "note_off", "time": 246, "note": 52, "velocity": 95, "channel": 0}, {"type": "note_on", "time": 36, "note": 55, "velocity": 107, "channel": 0}, {"type": "note_off", "time": 262, "note": 55, "velocity": 107, "channel": 0}, {"type": "note_on", "time": 28, "note": 59, "velocity": 111, "channel": 0}, {"type": "note_off", "time": 298, "note": 59, "velocity": 111, "channel": 0}, {"type": "note_on", "time": 36, "note": 60, "velocity": 112, "channel": 0}, {"type": "note_off", "time": 372, "note": 60, "velocity": 112, "channel": 0}, {"type": "note_on", "time": 19, "note": 56, "velocity": 111, "channel": 0}, {"type": "note_off", "time": 253, "note": 56, "velocity": 111, "channel": 0}, {"type": "note_on", "time": 32, "note": 59, "velocity": 104, "channel": 0}, {"type": "note_off", "time": 257, "note": 59, "velocity": 104, "channel": 0}, {"type": "note_on", "time": 21, "note": 57, "velocity": 104, "channel": 0}, {"type": "note_off", "time": 253, "note": 57, "velocity": 104, "channel": 0}, {"type": "note_on", "time": 207, "note": 52, "velocity": 88, "channel": 0}, {"type": "note_off", "time": 136, "note": 52, "velocity": 88, "channel": 0}, {"type": "note_on", "time": 167, "note": 55, "velocity": 110, "channel": 0}, {"type": "note_off", "time": 321, "note": 55, "velocity": 110, "channel": 0}, {"type": "note_on", "time": 38, "note": 52, "velocity": 94, "channel": 0}, {"type": "note_off", "time": 108, "note": 52, "velocity": 94, "channel": 0}, {"type": "note_on", "time": 8, "note": 54, "velocity": 115, "channel": 0}, {"type": "note_off", "time": 390, "note": 54, "velocity": 115, "channel": 0}, {"type": "note_on", "time": 20, "note": 52, "velocity": 100, "channel": 0}, {"type": "note_off", "time": 214, "note": 52, "velocity": 100, "channel": 0}, {"type": "note_on", "time": 12, "note": 50, "velocity": 98, "channel": 0}, {"type": "note_off", "time": 243, "note": 50, "velocity": 98, "channel": 0}, {"type": "note_on", "time": 45, "note": 49, "velocity": 99, "channel": 0}, {"type": "note_off", "time": 186, "note": 49, "velocity": 99, "channel": 0}, {"type": "note_on", "time": 122, "note": 48, "velocity": 105, "channel": 0}, {"type": "note_off", "time": 323, "note": 48, "velocity": 105, "channel": 0}, {"type": "note_on", "time": 62, "note": 50, "velocity": 97, "channel": 0}, {"type": "note_off", "time": 214, "note": 50, "velocity": 97, "channel": 0}, {"type": "note_on", "time": 38, "note": 52, "velocity": 99, "channel": 0}, {"type": "note_off", "time": 241, "note": 52, "velocity": 99, "channel": 0}, {"type": "note_on", "time": 18, "note": 55, "velocity": 112, "channel": 0}, {"type": "note_off", "time": 243, "note": 55, "velocity": 112, "channel": 0}, {"type": "note_on", "time": 37, "note": 57, "velocity": 119, "channel": 0}, {"type": "note_off", "time": 189, "note": 57, "velocity": 119, "channel": 0}, {"type": "note_on", "time": 8, "note": 59, "velocity": 112, "channel": 0}, {"type": "note_off", "time": 421, "note": 59, "velocity": 112, "channel": 0}, {"type": "note_on", "time": 116, "note": 55, "velocity": 111, "channel": 0}, {"type": "note_off", "time": 171, "note": 55, "velocity": 111, "channel": 0}, {"type": "note_on", "time": 23, "note": 52, "velocity": 100, "channel": 0}, {"type": "note_off", "time": 197, "note": 52, "velocity": 100, "channel": 0}, {"type": "note_on", "time": 7, "note": 48, "velocity": 105, "channel": 0}, {"type": "note_off", "time": 446, "note": 48, "velocity": 105, "channel": 0}, {"type": "note_on", "time": 89, "note": 52, "velocity": 99, "channel": 0}, {"type": "note_off", "time": 285, "note": 52, "velocity": 99, "channel": 0}, {"type": "note_on", "time": 31, "note": 55, "velocity": 110, "channel": 0}, {"type": "note_off", "time": 212, "note": 55, "velocity": 110, "channel": 0}, {"type": "note_on", "time": 12, "note": 58, "velocity": 114, "channel": 0}, {"type": "note_off", "time": 263, "note": 58, "velocity": 114, "channel": 0}, {"type": "note_on", "time": 89, "note": 61, "velocity": 125, "channel": 0}, {"type": "note_off", "time": 259, "note": 61, "velocity": 125, "channel": 0}, {"type": "note_on", "time": 23, "note": 62, "velocity": 123, "channel": 0}, {"type": "note_off", "time": 306, "note": 62, "velocity": 123, "channel": 0}, {"type": "note_on", "time": 24, "note": 60, "velocity": 112, "channel": 0}, {"type": "note_off", "time": 129, "note": 60, "velocity": 112, "channel": 0}, {"type": "note_on", "time": 17, "note": 57, "velocity": 117, "channel": 0}, {"type": "note_off", "time": 145, "note": 57, "velocity": 117, "channel": 0}, {"type": "note_on", "time": 70, "note": 51, "velocity": 108, "channel": 0}, {"type": "note_off", "time": 396, "note": 51, "velocity": 108, "channel": 0}, {"type": "note_on", "time": 10, "note": 50, "velocity": 104, "channel": 0}, {"type": "note_off", "time": 339, "note": 50, "velocity": 104, "channel": 0}, {"type": "note_on", "time": 977, "note": 59, "velocity": 114, "channel": 0}, {"type": "note_off", "time": 282, "note": 59, "velocity": 114, "channel": 0}, {"type": "note_on", "time": 74, "note": 60, "velocity": 114, "channel": 0}, {"type": "note_off", "time": 162, "note": 60, "velocity": 114, "channel": 0}, {"type": "note_on", "time": 43, "note": 62, "velocity": 115, "channel": 0}, {"type": "note_off", "time": 450, "note": 62, "velocity": 115, "channel": 0}, {"type": "note_on", "time": 14, "note": 57, "velocity": 112, "channel": 0}, {"type": "note_off", "time": 166, "note": 57, "velocity": 112, "channel": 0}, {"type": "note_on", "time": 21, "note": 59, "velocity": 107, "channel": 0}, {"type": "note_off", "time": 537, "note": 59, "velocity": 107, "channel": 0}, {"type": "note_on", "time": 40, "note": 55, "velocity": 104, "channel": 0}, {"type": "note_off", "time": 606, "note": 55, "velocity": 104, "channel": 0}, {"type": "note_on", "time": 146, "note": 55, "velocity": 110, "channel": 0}, {"type": "note_off", "time": 398, "note": 55, "velocity": 110, "channel": 0}, {"type": "note_on", "time": 56, "note": 57, "velocity": 105, "channel": 0}, {"type": "note_off", "time": 313, "note": 57, "velocity": 105, "channel": 0}, {"type": "note_on", "time": 2668, "note": 50, "velocity": 102, "channel": 0}, {"type": "note_off", "time": 188, "note": 50, "velocity": 102, "channel": 0}, {"type": "note_on", "time": 18, "note": 55, "velocity": 119, "channel": 0}, {"type": "note_off", "time": 389, "note": 55, "velocity": 119, "channel": 0}, {"type": "note_on", "time": 31, "note": 58, "velocity": 121, "channel": 0}, {"type": "note_off", "time": 303, "note": 58, "velocity": 121, "channel": 0}, {"type": "note_on", "time": 31, "note": 60, "velocity": 114, "channel": 0}, {"type": "note_off", "time": 256, "note": 60, "velocity": 114, "channel": 0}, {"type": "note_on", "time": 114, "note": 60, "velocity": 123, "channel": 0}, {"type": "note_off", "time": 270, "note": 60, "velocity": 123, "channel": 0}, {"type": "note_on", "time": 6, "note": 61, "velocity": 115, "channel": 0}, {"type": "note_off", "time": 212, "note": 61, "velocity": 115, "channel": 0}, {"type": "note_on", "time": 18, "note": 60, "velocity": 115, "channel": 0}, {"type": "note_off", "time": 215, "note": 60, "velocity": 115, "channel": 0}, {"type": "note_on", "time": 31, "note": 58, "velocity": 111, "channel": 0}, {"type": "note_off", "time": 148, "note": 58, "velocity": 111, "channel": 0}, {"type": "note_on", "time": 25, "note": 55, "velocity": 110, "channel": 0}, {"type": "note_off", "time": 336, "note": 55, "velocity": 110, "channel": 0}, {"type": "note_on", "time": 49, "note": 58, "velocity": 113, "channel": 0}, {"type": "note_off", "time": 153, "note": 58, "velocity": 113, "channel": 0}, {"type": "note_on", "time": 10, "note": 60, "velocity": 119, "channel": 0}, {"type": "note_off", "time": 559, "note": 60, "velocity": 119, "channel": 0}, {"type": "note_on", "time": 45, "note": 58, "velocity": 103, "channel": 0}, {"type": "note_off", "time": 141, "note": 58, "velocity": 103, "channel": 0}, {"type": "note_on", "time": 366, "note": 49, "velocity": 106, "channel": 0}, {"type": "note_off", "time": 318, "note": 49, "velocity": 106, "channel": 0}, {"type": "note_on", "time": 65, "note": 48, "velocity": 104, "channel": 0}, {"type": "note_off", "time": 186, "note": 48, "velocity": 104, "channel": 0}, {"type": "note_on", "time": 93, "note": 55, "velocity": 115, "channel": 0}, {"type": "note_off", "time": 254, "note": 55, "velocity": 115, "channel": 0}, {"type": "note_on", "time": 43, "note": 55, "velocity": 104, "channel": 0}, {"type": "note_off", "time": 221, "note": 55, "velocity": 104, "channel": 0}, {"type": "note_on", "time": 107, "note": 52, "velocity": 90, "channel": 0}, {"type": "note_off", "time": 190, "note": 52, "velocity": 90, "channel": 0}, {"type": "note_on", "time": 193, "note": 55, "velocity": 113, "channel": 0}, {"type": "note_off", "time": 442, "note": 55, "velocity": 113, "channel": 0}, {"type": "note_on", "time": 131, "note": 54, "velocity": 109, "channel": 0}, {"type": "note_off", "time": 110, "note": 54, "velocity": 109, "channel": 0}, {"type": "note_on", "time": 0, "note": 55, "velocity": 109, "channel": 0}, {"type": "note_off", "time": 288, "note": 55, "velocity": 109, "channel": 0}, {"type": "note_on", "time": 79, "note": 55, "velocity": 109, "channel": 0}, {"type": "note_off", "time": 126, "note": 55, "velocity": 109, "channel": 0}, {"type": "note_on", "time": 10, "note": 57, "velocity": 88, "channel": 0}, {"type": "note_off", "time": 820, "note": 57, "velocity": 88, "channel": 0}, {"type": "note_on", "time": 2129, "note": 50, "velocity": 105, "channel": 0}, {"type": "note_off", "time": 305, "note": 50, "velocity": 105, "channel": 0}, {"type": "note_on", "time": 13, "note": 49, "velocity": 96, "channel": 0}, {"type": "note_off", "time": 203, "note": 49, "velocity": 96, "channel": 0}, {"type": "note_on", "time": 48, "note": 48, "velocity": 101, "channel": 0}, {"type": "note_off", "time": 315, "note": 48, "velocity": 101, "channel": 0}, {"type": "note_on", "time": 101, "note": 50, "velocity": 97, "channel": 0}, {"type": "note_off", "time": 221, "note": 50, "velocity": 97, "channel": 0}, {"type": "note_on", "time": 344, "note": 55, "velocity": 103, "channel": 0}, {"type": "note_off", "time": 267, "note": 55, "velocity": 103, "channel": 0}, {"type": "note_on", "time": 54, "note": 59, "velocity": 111, "channel": 0}, {"type": "note_off", "time": 303, "note": 59, "velocity": 111, "channel": 0}, {"type": "note_on", "time": 36, "note": 60, "velocity": 113, "channel": 0}, {"type": "note_off", "time": 277, "note": 60, "velocity": 113, "channel": 0}, {"type": "note_on", "time": 34, "note": 57, "velocity": 106, "channel": 0}, {"type": "note_off", "time": 263, "note": 57, "velocity": 106, "channel": 0}, {"type": "note_on", "time": 85, "note": 55, "velocity": 107, "channel": 0}, {"type": "note_off", "time": 281, "note": 55, "velocity": 107, "channel": 0}, {"type": "note_on", "time": 12, "note": 54, "velocity": 115, "channel": 0}, {"type": "note_off", "time": 272, "note": 54, "velocity": 115, "channel": 0}, {"type": "note_on", "time": 49, "note": 57, "velocity": 104, "channel": 0}, {"type": "note_off", "time": 248, "note": 57, "velocity": 104, "channel": 0}, {"type": "note_on", "time": 163, "note": 52, "velocity": 94, "channel": 0}, {"type": "note_off", "time": 182, "note": 52, "velocity": 94, "channel": 0}, {"type": "note_on", "time": 131, "note": 48, "velocity": 97, "channel": 0}, {"type": "note_off", "time": 190, "note": 48, "velocity": 97, "channel": 0}, {"type": "note_on", "time": 56, "note": 50, "velocity": 96, "channel": 0}, {"type": "note_off", "time": 324, "note": 50, "velocity": 96, "channel": 0}, {"type": "note_on", "time": 200, "note": 50, "velocity": 95, "channel": 0}, {"type": "note_off", "time": 237, "note": 50, "velocity": 95, "channel": 0}, {"type": "note_on", "time": 81, "note": 48, "velocity": 107, "channel": 0}, {"type": "note_off", "time": 236, "note": 48, "velocity": 107, "channel": 0}, {"type": "note_on", "time": 20, "note": 45, "velocity": 114, "channel": 0}, {"type": "note_off", "time": 250, "note": 45, "velocity": 114, "channel": 0}, {"type": "note_on", "time": 27, "note": 47, "velocity": 102, "channel": 0}, {"type": "note_off", "time": 383, "note": 47, "velocity": 102, "channel": 0}, {"type": "note_on", "time": 23, "note": 55, "velocity": 103, "channel": 0}, {"type": "note_off", "time": 607, "note": 55, "velocity": 103, "channel": 0}, {"type": "end_of_track", "time": 0}]]}