{"ticks_per_beat": 192, "tracks": [[{"type": "track_name", "name": "Melody", "time": 0}, {"type": "set_tempo", "tempo": 521739, "time": 0}, {"type": "key_signature", "key": "G", "time": 0}, {"type": "time_signature", "numerator": 4, "denominator": 4, "clocks_per_click": 24, "notated_32nd_notes_per_beat": 8, "time": 0}, {"type": "note_on", "time": 2159, "note": 50, "velocity": 108, "channel": 0}, {"type": "note_off", "time": 99, "note": 50, "velocity": 108, "channel": 0}, {"type": "note_on", "time": 3, "note": 49, "velocity": 111, "channel": 0}, {"type": "note_off", "time": 32, "note": 49, "velocity": 111, "channel": 0}, {"type": "note_on", "time": 6, "note": 48, "velocity": 104, "channel": 0}, {"type": "note_off", "time": 25, "note": 48, "velocity": 104, "channel": 0}, {"type": "note_on", "time": 8, "note": 47, "velocity": 106, "channel": 0}, {"type": "note_off", "time": 222, "note": 47, "velocity": 106, "channel": 0}, {"type": "note_on", "time": 10, "note": 48, "velocity": 104, "channel": 0}, {"type": "note_off", "time": 28, "note": 48, "velocity": 104, "channel": 0}, {"type": "note_on", "time": 3, "note": 50, "velocity": 103, "channel": 0}, {"type": "note_off", "time": 30, "note": 50, "velocity": 103, "channel": 0}, {"type": "note_on", "time": 3, "note": 51, "velocity": 106, "channel": 0}, {"type": "note_off", "time": 36, "note": 51, "velocity": 106, "channel": 0}, {"type": "note_on", "time": 0, "note": 55, "velocity": 112, "channel": 0}, {"type": "note_off", "time": 18, "note": 55, "velocity": 112, "channel": 0}, {"type": "note_on", "time": 0, "note": 59, "velocity": 119, "channel": 0}, {"type": "note_off", "time": 26, "note": 59, "velocity": 119, "channel": 0}, {"type": "note_on", "time": 0, "note": 62, "velocity": 115, "channel": 0}, {"type": "note_off", "time": 27, "note": 62, "velocity": 115, "channel": 0}, {"type": "note_on", "time": 2, "note": 64, "velocity": 123, "channel": 0}, {"type": "note_off", "time": 24, "note": 64, "velocity": 123, "channel": 0}, {"type": "note_on", "time": 9, "note": 67, "velocity": 113, "channel": 0}, {"type": "note_off", "time": 87, "note": 67, "velocity": 113, "channel": 0}, {"type": "note_on", "time": 70, "note": 64, "velocity": 103, "channel": 0}, {"type": "note_off", "time": 96, "note": 64, "velocity": 103, "channel": 0}, {"type": "note_on", "time": 21, "note": 55, "velocity": 105, "channel": 0}, {"type": "note_off", "time": 32, "note": 55, "velocity": 105, "channel": 0}, {"type": "note_on", "time": 8, "note": 57, "velocity": 110, "channel": 0}, {"type": "note_off", "time": 170, "note": 57, "velocity": 110, "channel": 0}, {"type": "note_on", "time": 66, "note": 67, "velocity": 107, "channel": 0}, {"type": "note_off", "time": 68, "note": 67, "velocity": 107, "channel": 0}, {"type": "note_on", "time": 27, "note": 64, "velocity": 101, "channel": 0}, {"type": "note_off", "time": 64, "note": 64, "velocity": 101, "channel": 0}, {"type": "note_on", "time": 23, "note": 57, "velocity": 102, "channel": 0}, {"type": "note_off", "time": 23, "note": 57, "velocity": 102, "channel": 0}, {"type": "note_on", "time": 19, "note": 58, "velocity": 100, "channel": 0}, {"type": "note_off", "time": 96, "note": 58, "velocity": 100, "channel": 0}, {"type": "note_on", "time": 36, "note": 49, "velocity": 110, "channel": 0}, {"type": "note_off", "time": 42, "note": 49, "velocity": 110, "channel": 0}, {"type": "note_on", "time": 4, "note": 50, "velocity": 100, "channel": 0}, {"type": "note_off", "time": 32, "note": 50, "velocity": 100, "channel": 0}, {"type": "note_on", "time": 8, "note": 51, "velocity": 98, "channel": 0}, {"type": "note_off", "time": 29, "note": 51, "velocity": 98, "channel": 0}, {"type": "note_on", "time": 2, "note": 57, "velocity": 107, "channel": 0}, {"type": "note_off", "time": 89, "note": 57, "velocity": 107, "channel": 0}, {"type": "note_on", "time": 17, "note": 54, "velocity": 112, "channel": 0}, {"type": "note_off", "time": 96, "note": 54, "velocity": 112, "channel": 0}, {"type": "note_on", "time": 34, "note": 55, "velocity": 84, "channel": 0}, {"type": "note_off", "time": 119, "note": 55, "velocity": 84, "channel": 0}, {"type": "note_on", "time": 243, "note": 45, "velocity": 108, "channel": 0}, {"type": "note_off", "time": 57, "note": 45, "velocity": 108, "channel": 0}, {"type": "note_on", "time": 4, "note": 46, "velocity": 109, "channel": 0}, {"type": "note_off", "time": 36, "note": 46, "velocity": 109, "channel": 0}, {"type": "note_on", "time": 8, "note": 50, "velocity": 104, "channel": 0}, {"type": "note_off", "time": 51, "note": 50, "velocity": 104, "channel": 0}, {"type": "note_on", "time": 0, "note": 53, "velocity": 117, "channel": 0}, {"type": "note_off", "time": 49, "note": 53, "velocity": 117, "channel": 0}, {"type": "note_on", "time": 0, "note": 58, "velocity": 117, "channel": 0}, {"type": "note_off", "time": 21, "note": 58, "velocity": 117, "channel": 0}, {"type": "note_on", "time": 2, "note": 60, "velocity": 116, "channel": 0}, {"type": "note_off", "time": 57, "note": 60, "velocity": 116, "channel": 0}, {"type": "note_on", "time": 12, "note": 58, "velocity": 109, "channel": 0}, {"type": "note_off", "time": 64, "note": 58, "velocity": 109, "channel": 0}, {"type": "note_on", "time": 0, "note": 53, "velocity": 115, "channel": 0}, {"type": "note_off", "time": 61, "note": 53, "velocity": 115, "channel": 0}, {"type": "note_on", "time": 2, "note": 50, "velocity": 101, "channel": 0}, {"type": "note_off", "time": 81, "note": 50, "velocity": 101, "channel": 0}, {"type": "note_on", "time": 72, "note": 50, "velocity": 103, "channel": 0}, {"type": "note_off", "time": 59, "note": 50, "velocity": 103, "channel": 0}, {"type": "note_on", "time": 0, "note": 57, "velocity": 89, "channel": 0}, {"type": "note_off", "time": 198, "note": 57, "velocity": 89, "channel": 0}, {"type": "note_on", "time": 335, "note": 54, "velocity": 98, "channel": 0}, {"type": "note_off", "time": 28, "note": 54, "velocity": 98, "channel": 0}, {"type": "note_on", "time": 2, "note": 55, "velocity": 108, "channel": 0}, {"type": "note_off", "time": 49, "note": 55, "velocity": 108, "channel": 0}, {"type": "note_on", "time": 1, "note": 52, "velocity": 98, "channel": 0}, {"type": "note_off", "time": 38, "note": 52, "velocity": 98, "channel": 0}, {"type": "note_on", "time": 4, "note": 53, "velocity": 116, "channel": 0}, {"type": "note_off", "time": 36, "note": 53, "velocity": 116, "channel": 0}, {"type": "note_on", "time": 6, "note": 55, "velocity": 116, "channel": 0}, {"type": "note_off", "time": 38, "note": 55, "velocity": 116, "channel": 0}, {"type": "note_on", "time": 2, "note": 57, "velocity": 122, "channel": 0}, {"type": "note_off", "time": 38, "note": 57, "velocity": 122, "channel": 0}, {"type": "note_on", "time": 0, "note": 60, "velocity": 120, "channel": 0}, {"type": "note_off", "time": 36, "note": 60, "velocity": 120, "channel": 0}, {"type": "note_on", "time": 8, "note": 64, "velocity": 124, "channel": 0}, {"type": "note_off", "time": 51, "note": 64, "velocity": 124, "channel": 0}, {"type": "note_on", "time": 0, "note": 62, "velocity": 116, "channel": 0}, {"type": "note_off", "time": 40, "note": 62, "velocity": 116, "channel": 0}, {"type": "note_on", "time": 6, "note": 60, "velocity": 106, "channel": 0}, {"type": "note_off", "time": 51, "note": 60, "velocity": 106, "channel": 0}, {"type": "note_on", "time": 12, "note": 57, "velocity": 115, "channel": 0}, {"type": "note_off", "time": 44, "note": 57, "velocity": 115, "channel": 0}, {"type": "note_on", "time": 4, "note": 55, "velocity": 106, "channel": 0}, {"type": "note_off", "time": 42, "note": 55, "velocity": 106, "channel": 0}, {"type": "note_on", "time": 2, "note": 53, "velocity": 121, "channel": 0}, {"type": "note_off", "time": 40, "note": 53, "velocity": 121, "channel": 0}, {"type": "note_on", "time": 2, "note": 52, "velocity": 100, "channel": 0}, {"type": "note_off", "time": 61, "note": 52, "velocity": 100, "channel": 0}, {"type": "note_on", "time": 4, "note": 58, "velocity": 118, "channel": 0}, {"type": "note_off", "time": 14, "note": 58, "velocity": 118, "channel": 0}, {"type": "note_on", "time": 4, "note": 60, "velocity": 110, "channel": 0}, {"type": "note_off", "time": 53, "note": 60, "velocity": 110, "channel": 0}, {"type": "note_on", "time": 10, "note": 58, "velocity": 112, "channel": 0}, {"type": "note_off", "time": 23, "note": 58, "velocity": 112, "channel": 0}, {"type": "note_on", "time": 10, "note": 56, "velocity": 109, "channel": 0}, {"type": "note_off", "time": 21, "note": 56, "velocity": 109, "channel": 0}, {"type": "note_on", "time": 6, "note": 52, "velocity": 101, "channel": 0}, {"type": "note_off", "time": 66, "note": 52, "velocity": 101, "channel": 0}, {"type": "note_on", "time": 6, "note": 48, "velocity": 88, "channel": 0}, {"type": "note_off", "time": 29, "note": 48, "velocity": 88, "channel": 0}, {"type": "note_on", "time": 12, "note": 50, "velocity": 104, "channel": 0}, {"type": "note_off", "time": 42, "note": 50, "velocity": 104, "channel": 0}, {"type": "note_on", "time": 18, "note": 58, "velocity": 101, "channel": 0}, {"type": "note_off", "time": 17, "note": 58, "velocity": 101, "channel": 0}, {"type": "note_on", "time": 5, "note": 60, "velocity": 109, "channel": 0}, {"type": "note_off", "time": 76, "note": 60, "velocity": 109, "channel": 0}, {"type": "note_on", "time": 27, "note": 56, "velocity": 104, "channel": 0}, {"type": "note_off", "time": 34, "note": 56, "velocity": 104, "channel": 0}, {"type": "note_on", "time": 2, "note": 53, "velocity": 112, "channel": 0}, {"type": "note_off", "time": 36, "note": 53, "velocity": 112, "channel": 0}, {"type": "note_on", "time": 12, "note": 51, "velocity": 100, "channel": 0}, {"type": "note_off", "time": 57, "note": 51, "velocity": 100, "channel": 0}, {"type": "note_on", "time": 6, "note": 55, "velocity": 108, "channel": 0}, {"type": "note_off", "time": 49, "note": 55, "velocity": 108, "channel": 0}, {"type": "note_on", "time": 12, "note": 53, "velocity": 115, "channel": 0}, {"type": "note_off", "time": 40, "note": 53, "velocity": 115, "channel": 0}, {"type": "note_on", "time": 0, "note": 51, "velocity": 102, "channel": 0}, {"type": "note_off", "time": 27, "note": 51, "velocity": 102, "channel": 0}, {"type": "note_on", "time": 6, "note": 50, "velocity": 100, "channel": 0}, {"type": "note_off", "time": 46, "note": 50, "velocity": 100, "channel": 0}, {"type": "note_on", "time": 6, "note": 48, "velocity": 93, "channel": 0}, {"type": "note_off", "time": 42, "note": 48, "velocity": 93, "channel": 0}, {"type": "note_on", "time": 8, "note": 46, "velocity": 104, "channel": 0}, {"type": "note_off", "time": 38, "note": 46, "velocity": 104, "channel": 0}, {"type": "note_on", "time": 6, "note": 45, "velocity": 106, "channel": 0}, {"type": "note_off", "time": 40, "note": 45, "velocity": 106, "channel": 0}, {"type": "note_on", "time": 1, "note": 44, "velocity": 95, "channel": 0}, {"type": "note_off", "time": 58, "note": 44, "velocity": 95, "channel": 0}, {"type": "note_on", "time": 3, "note": 46, "velocity": 98, "channel": 0}, {"type": "note_off", "time": 51, "note": 46, "velocity": 98, "channel": 0}, {"type": "note_on", "time": 82, "note": 55, "velocity": 108, "channel": 0}, {"type": "note_off", "time": 46, "note": 55, "velocity": 108, "channel": 0}, {"type": "note_on", "time": 10, "note": 51, "velocity": 95, "channel": 0}, {"type": "note_off", "time": 29, "note": 51, "velocity": 95, "channel": 0}, {"type": "note_on", "time": 4, "note": 53, "velocity": 117, "channel": 0}, {"type": "note_off", "time": 42, "note": 53, "velocity": 117, "channel": 0}, {"type": "note_on", "time": 2, "note": 55, "velocity": 109, "channel": 0}, {"type": "note_off", "time": 42, "note": 55, "velocity": 109, "channel": 0}, {"type": "note_on", "time": 0, "note": 56, "velocity": 108, "channel": 0}, {"type": "note_off", "time": 38, "note": 56, "velocity": 108, "channel": 0}, {"type": "note_on", "time": 0, "note": 58, "velocity": 112, "channel": 0}, {"type": "note_off", "time": 42, "note": 58, "velocity": 112, "channel": 0}, {"type": "note_on", "time": 2, "note": 59, "velocity": 112, "channel": 0}, {"type": "note_off", "time": 46, "note": 59, "velocity": 112, "channel": 0}, {"type": "note_on", "time": 0, "note": 62, "velocity": 101, "channel": 0}, {"type": "note_off", "time": 40, "note": 62, "velocity": 101, "channel": 0}, {"type": "note_on", "time": 14, "note": 67, "velocity": 103, "channel": 0}, {"type": "note_off", "time": 36, "note": 67, "velocity": 103, "channel": 0}, {"type": "note_on", "time": 10, "note": 62, "velocity": 96, "channel": 0}, {"type": "note_off", "time": 49, "note": 62, "velocity": 96, "channel": 0}, {"type": "note_on", "time": 4, "note": 65, "velocity": 102, "channel": 0}, {"type": "note_off", "time": 44, "note": 65, "velocity": 102, "channel": 0}, {"type": "note_on", "time": 19, "note": 59, "velocity": 107, "channel": 0}, {"type": "note_off", "time": 89, "note": 59, "velocity": 107, "channel": 0}, {"type": "note_on", "time": 8, "note": 59, "velocity": 108, "channel": 0}, {"type": "note_off", "time": 53, "note": 59, "velocity": 108, "channel": 0}, {"type": "note_on", "time": 8, "note": 58, "velocity": 91, "channel": 0}, {"type": "note_off", "time": 108, "note": 58, "velocity": 91, "channel": 0}, {"type": "note_on", "time": 194, "note": 62, "velocity": 110, "channel": 0}, {"type": "note_off", "time": 51, "note": 62, "velocity": 110, "channel": 0}, {"type": "note_on", "time": 0, "note": 60, "velocity": 111, "channel": 0}, {"type": "note_off", "time": 34, "note": 60, "velocity": 111, "channel": 0}, {"type": "note_on", "time": 6, "note": 58, "velocity": 112, "channel": 0}, {"type": "note_off", "time": 42, "note": 58, "velocity": 112, "channel": 0}, {"type": "note_on", "time": 4, "note": 55, "velocity": 105, "channel": 0}, {"type": "note_off", "time": 29, "note": 55, "velocity": 105, "channel": 0}, {"type": "note_on", "time": 10, "note": 53, "velocity": 119, "channel": 0}, {"type": "note_off", "time": 49, "note": 53, "velocity": 119, "channel": 0}, {"type": "note_on", "time": 8, "note": 51, "velocity": 102, "channel": 0}, {"type": "note_off", "time": 49, "note": 51, "velocity": 102, "channel": 0}, {"type": "note_on", "time": 8, "note": 50, "velocity": 103, "channel": 0}, {"type": "note_off", "time": 40, "note": 50, "velocity": 103, "channel": 0}, {"type": "note_on", "time": 2, "note": 46, "velocity": 105, "channel": 0}, {"type": "note_off", "time": 42, "note": 46, "velocity": 105, "channel": 0}, {"type": "note_on", "time": 0, "note": 50, "velocity": 98, "channel": 0}, {"type": "note_off", "time": 42, "note": 50, "velocity": 98, "channel": 0}, {"type": "note_on", "time": 7, "note": 49, "velocity": 110, "channel": 0}, {"type": "note_off", "time": 40, "note": 49, "velocity": 110, "channel": 0}, {"type": "note_on", "time": 4, "note": 48, "velocity": 120, "channel": 0}, {"type": "note_off", "time": 42, "note": 48, "velocity": 120, "channel": 0}, {"type": "note_on", "time": 2, "note": 50, "velocity": 103, "channel": 0}, {"type": "note_off", "time": 40, "note": 50, "velocity": 103, "channel": 0}, {"type": "note_on", "time": 8, "note": 52, "velocity": 97, "channel": 0}, {"type": "note_off", "time": 29, "note": 52, "velocity": 97, "channel": 0}, {"type": "note_on", "time": 8, "note": 55, "velocity": 93, "channel": 0}, {"type": "note_off", "time": 32, "note": 55, "velocity": 93, "channel": 0}, {"type": "note_on", "time": 6, "note": 59, "velocity": 108, "channel": 0}, {"type": "note_off", "time": 46, "note": 59, "velocity": 108, "channel": 0}, {"type": "note_on", "time": 4, "note": 60, "velocity": 109, "channel": 0}, {"type": "note_off", "time": 49, "note": 60, "velocity": 109, "channel": 0}, {"type": "note_on", "time": 4, "note": 57, "velocity": 110, "channel": 0}, {"type": "note_off", "time": 51, "note": 57, "velocity": 110, "channel": 0}, {"type": "note_on", "time": 2, "note": 55, "velocity": 108, "channel": 0}, {"type": "note_off", "time": 38, "note": 55, "velocity": 108, "channel": 0}, {"type": "note_on", "time": 6, "note": 54, "velocity": 116, "channel": 0}, {"type": "note_off", "time": 55, "note": 54, "velocity": 116, "channel": 0}, {"type": "note_on", "time": 0, "note": 51, "velocity": 105, "channel": 0}, {"type": "note_off", "time": 34, "note": 51, "velocity": 105, "channel": 0}, {"type": "note_on", "time": 0, "note": 50, "velocity": 104, "channel": 0}, {"type": "note_off", "time": 43, "note": 50, "velocity": 104, "channel": 0}, {"type": "note_on", "time": 6, "note": 49, "velocity": 103, "channel": 0}, {"type": "note_off", "time": 36, "note": 49, "velocity": 103, "channel": 0}, {"type": "note_on", "time": 3, "note": 48, "velocity": 93, "channel": 0}, {"type": "note_off", "time": 52, "note": 48, "velocity": 93, "channel": 0}, {"type": "note_on", "time": 16, "note": 52, "velocity": 90, "channel": 0}, {"type": "note_off", "time": 46, "note": 52, "velocity": 90, "channel": 0}, {"type": "note_on", "time": 3, "note": 51, "velocity": 87, "channel": 0}, {"type": "note_off", "time": 37, "note": 51, "velocity": 87, "channel": 0}, {"type": "note_on", "time": 9, "note": 46, "velocity": 111, "channel": 0}, {"type": "note_off", "time": 31, "note": 46, "velocity": 111, "channel": 0}, {"type": "note_on", "time": 3, "note": 45, "velocity": 99, "channel": 0}, {"type": "note_off", "time": 96, "note": 45, "velocity": 99, "channel": 0}, {"type": "note_on", "time": 192, "note": 50, "velocity": 111, "channel": 0}, {"type": "note_off", "time": 63, "note": 50, "velocity": 111, "channel": 0}, {"type": "note_on", "time": 3, "note": 49, "velocity": 107, "channel": 0}, {"type": "note_off", "time": 25, "note": 49, "velocity": 107, "channel": 0}, {"type": "note_on", "time": 1, "note": 48, "velocity": 108, "channel": 0}, {"type": "note_off", "time": 18, "note": 48, "velocity": 108, "channel": 0}, {"type": "note_on", "time": 7, "note": 47, "velocity": 105, "channel": 0}, {"type": "note_off", "time": 43, "note": 47, "velocity": 105, "channel": 0}, {"type": "note_on", "time": 0, "note": 50, "velocity": 108, "channel": 0}, {"type": "note_off", "time": 48, "note": 50, "velocity": 108, "channel": 0}, {"type": "note_on", "time": 15, "note": 54, "velocity": 119, "channel": 0}, {"type": "note_off", "time": 45, "note": 54, "velocity": 119, "channel": 0}, {"type": "note_on", "time": 7, "note": 57, "velocity": 119, "channel": 0}, {"type": "note_off", "time": 55, "note": 57, "velocity": 119, "channel": 0}, {"type": "note_on", "time": 10, "note": 54, "velocity": 109, "channel": 0}, {"type": "note_off", "time": 54, "note": 54, "velocity": 109, "channel": 0}, {"type": "note_on", "time": 1, "note": 55, "velocity": 107, "channel": 0}, {"type": "note_off", "time": 33, "note": 55, "velocity": 107, "channel": 0}, {"type": "note_on", "time": 1, "note": 57, "velocity": 120, "channel": 0}, {"type": "note_off", "time": 48, "note": 57, "velocity": 120, "channel": 0}, {"type": "note_on", "time": 1, "note": 59, "velocity": 116, "channel": 0}, {"type": "note_off", "time": 33, "note": 59, "velocity": 116, "channel": 0}, {"type": "note_on", "time": 1, "note": 62, "velocity": 118, "channel": 0}, {"type": "note_off", "time": 45, "note": 62, "velocity": 118, "channel": 0}, {"type": "note_on", "time": 10, "note": 66, "velocity": 123, "channel": 0}, {"type": "note_off", "time": 49, "note": 66, "velocity": 123, "channel": 0}, {"type": "note_on", "time": 10, "note": 64, "velocity": 110, "channel": 0}, {"type": "note_off", "time": 43, "note": 64, "velocity": 110, "channel": 0}, {"type": "note_on", "time": 7, "note": 62, "velocity": 112, "channel": 0}, {"type": "note_off", "time": 34, "note": 62, "velocity": 112, "channel": 0}, {"type": "note_on", "time": 3, "note": 59, "velocity": 109, "channel": 0}, {"type": "note_off", "time": 46, "note": 59, "velocity": 109, "channel": 0}, {"type": "note_on", "time": 0, "note": 57, "velocity": 110, "channel": 0}, {"type": "note_off", "time": 54, "note": 57, "velocity": 110, "channel": 0}, {"type": "note_on", "time": 1, "note": 55, "velocity": 103, "channel": 0}, {"type": "note_off", "time": 30, "note": 55, "velocity": 103, "channel": 0}, {"type": "note_on", "time": 4, "note": 54, "velocity": 117, "channel": 0}, {"type": "note_off", "time": 78, "note": 54, "velocity": 117, "channel": 0}, {"type": "note_on", "time": 7, "note": 52, "velocity": 94, "channel": 0}, {"type": "note_off", "time": 28, "note": 52, "velocity": 94, "channel": 0}, {"type": "note_on", "time": 0, "note": 54, "velocity": 90, "channel": 0}, {"type": "note_off", "time": 33, "note": 54, "velocity": 90, "channel": 0}, {"type": "note_on", "time": 3, "note": 57, "velocity": 114, "channel": 0}, {"type": "note_off", "time": 58, "note": 57, "velocity": 114, "channel": 0}, {"type": "note_on", "time": 7, "note": 54, "velocity": 120, "channel": 0}, {"type": "note_off", "time": 60, "note": 54, "velocity": 120, "channel": 0}, {"type": "note_on", "time": 30, "note": 52, "velocity": 101, "channel": 0}, {"type": "note_off", "time": 51, "note": 52, "velocity": 101, "channel": 0}, {"type": "note_on", "time": 169, "note": 47, "velocity": 100, "channel": 0}, {"type": "note_off", "time": 37, "note": 47, "velocity": 100, "channel": 0}, {"type": "note_on", "time": 0, "note": 52, "velocity": 96, "channel": 0}, {"type": "note_off", "time": 33, "note": 52, "velocity": 96, "channel": 0}, {"type": "note_on", "time": 0, "note": 54, "velocity": 127, "channel": 0}, {"type": "note_off", "time": 90, "note": 54, "velocity": 127, "channel": 0}, {"type": "note_on", "time": 10, "note": 55, "velocity": 115, "channel": 0}, {"type": "note_off", "time": 36, "note": 55, "velocity": 115, "channel": 0}, {"type": "note_on", "time": 1, "note": 57, "velocity": 116, "channel": 0}, {"type": "note_off", "time": 30, "note": 57, "velocity": 116, "channel": 0}, {"type": "note_on", "time": 6, "note": 54, "velocity": 123, "channel": 0}, {"type": "note_off", "time": 40, "note": 54, "velocity": 123, "channel": 0}, {"type": "note_on", "time": 7, "note": 55, "velocity": 106, "channel": 0}, {"type": "note_off", "time": 28, "note": 55, "velocity": 106, "channel": 0}, {"type": "note_on", "time": 9, "note": 57, "velocity": 115, "channel": 0}, {"type": "note_off", "time": 40, "note": 57, "velocity": 115, "channel": 0}, {"type": "note_on", "time": 4, "note": 59, "velocity": 109, "channel": 0}, {"type": "note_off", "time": 30, "note": 59, "velocity": 109, "channel": 0}, {"type": "note_on", "time": 9, "note": 60, "velocity": 111, "channel": 0}, {"type": "note_off", "time": 37, "note": 60, "velocity": 111, "channel": 0}, {"type": "note_on", "time": 3, "note": 62, "velocity": 113, "channel": 0}, {"type": "note_off", "time": 48, "note": 62, "velocity": 113, "channel": 0}, {"type": "note_on", "time": 0, "note": 59, "velocity": 109, "channel": 0}, {"type": "note_off", "time": 30, "note": 59, "velocity": 109, "channel": 0}, {"type": "note_on", "time": 4, "note": 60, "velocity": 110, "channel": 0}, {"type": "note_off", "time": 33, "note": 60, "velocity": 110, "channel": 0}, {"type": "note_on", "time": 6, "note": 62, "velocity": 116, "channel": 0}, {"type": "note_off", "time": 45, "note": 62, "velocity": 116, "channel": 0}, {"type": "note_on", "time": 7, "note": 64, "velocity": 110, "channel": 0}, {"type": "note_off", "time": 37, "note": 64, "velocity": 110, "channel": 0}, {"type": "note_on", "time": 0, "note": 65, "velocity": 102, "channel": 0}, {"type": "note_off", "time": 12, "note": 65, "velocity": 102, "channel": 0}, {"type": "note_on", "time": 7, "note": 64, "velocity": 104, "channel": 0}, {"type": "note_off", "time": 31, "note": 64, "velocity": 104, "channel": 0}, {"type": "note_on", "time": 0, "note": 62, "velocity": 108, "channel": 0}, {"type": "note_off", "time": 49, "note": 62, "velocity": 108, "channel": 0}, {"type": "note_on", "time": 3, "note": 60, "velocity": 106, "channel": 0}, {"type": "note_off", "time": 37, "note": 60, "velocity": 106, "channel": 0}, {"type": "note_on", "time": 6, "note": 59, "velocity": 108, "channel": 0}, {"type": "note_off", "time": 45, "note": 59, "velocity": 108, "channel": 0}, {"type": "note_on", "time": 7, "note": 62, "velocity": 110, "channel": 0}, {"type": "note_off", "time": 43, "note": 62, "velocity": 110, "channel": 0}, {"type": "note_on", "time": 6, "note": 59, "velocity": 111, "channel": 0}, {"type": "note_off", "time": 33, "note": 59, "velocity": 111, "channel": 0}, {"type": "note_on", "time": 0, "note": 57, "velocity": 111, "channel": 0}, {"type": "note_off", "time": 49, "note": 57, "velocity": 111, "channel": 0}, {"type": "note_on", "time": 4, "note": 56, "velocity": 106, "channel": 0}, {"type": "note_off", "time": 36, "note": 56, "velocity": 106, "channel": 0}, {"type": "note_on", "time": 6, "note": 59, "velocity": 103, "channel": 0}, {"type": "note_off", "time": 39, "note": 59, "velocity": 103, "channel": 0}, {"type": "note_on", "time": 6, "note": 53, "velocity": 93, "channel": 0}, {"type": "note_off", "time": 42, "note": 53, "velocity": 93, "channel": 0}, {"type": "note_on", "time": 0, "note": 51, "velocity": 123, "channel": 0}, {"type": "note_off", "time": 39, "note": 51, "velocity": 123, "channel": 0}, {"type": "note_on", "time": 1, "note": 52, "velocity": 106, "channel": 0}, {"type": "note_off", "time": 45, "note": 52, "velocity": 106, "channel": 0}, {"type": "note_on", "time": 15, "note": 49, "velocity": 99, "channel": 0}, {"type": "note_off", "time": 40, "note": 49, "velocity": 99, "channel": 0}, {"type": "note_on", "time": 7, "note": 50, "velocity": 100, "channel": 0}, {"type": "note_on", "time": 45, "note": 46, "velocity": 99, "channel": 0}, {"type": "note_off", "time": 0, "note": 50, "velocity": 100, "channel": 0}, {"type": "note_off", "time": 25, "note": 46, "velocity": 99, "channel": 0}, {"type": "note_on", "time": 6, "note": 47, "velocity": 107, "channel": 0}, {"type": "note_off", "time": 42, "note": 47, "velocity": 107, "channel": 0}, {"type": "note_on", "time": 4, "note": 48, "velocity": 112, "channel": 0}, {"type": "note_off", "time": 39, "note": 48, "velocity": 112, "channel": 0}, {"type": "note_on", "time": 4, "note": 50, "velocity": 106, "channel": 0}, {"type": "note_off", "time": 30, "note": 50, "velocity": 106, "channel": 0}, {"type": "note_on", "time": 9, "note": 52, "velocity": 100, "channel": 0}, {"type": "note_off", "time": 40, "note": 52, "velocity": 100, "channel": 0}, {"type": "note_on", "time": 3, "note": 55, "velocity": 95, "channel": 0}, {"type": "note_off", "time": 21, "note": 55, "velocity": 95, "channel": 0}, {"type": "note_on", "time": 16, "note": 59, "velocity": 103, "channel": 0}, {"type": "note_off", "time": 123, "note": 59, "velocity": 103, "channel": 0}, {"type": "note_on", "time": 124, "note": 59, "velocity": 112, "channel": 0}, {"type": "note_off", "time": 42, "note": 59, "velocity": 112, "channel": 0}, {"type": "note_on", "time": 9, "note": 55, "velocity": 109, "channel": 0}, {"type": "note_off", "time": 33, "note": 55, "velocity": 109, "channel": 0}, {"type": "note_on", "time": 1, "note": 52, "velocity": 104, "channel": 0}, {"type": "note_off", "time": 31, "note": 52, "velocity": 104, "channel": 0}, {"type": "note_on", "time": 10, "note": 48, "velocity": 103, "channel": 0}, {"type": "note_off", "time": 33, "note": 48, "velocity": 103, "channel": 0}, {"type": "note_on", "time": 4, "note": 47, "velocity": 108, "channel": 0}, {"type": "note_off", "time": 30, "note": 47, "velocity": 108, "channel": 0}, {"type": "note_on", "time": 12, "note": 45, "velocity": 103, "channel": 0}, {"type": "note_off", "time": 46, "note": 45, "velocity": 103, "channel": 0}, {"type": "note_on", "time": 4, "note": 52, "velocity": 99, "channel": 0}, {"type": "note_off", "time": 42, "note": 52, "velocity": 99, "channel": 0}, {"type": "note_on", "time": 1, "note": 50, "velocity": 104, "channel": 0}, {"type": "note_off", "time": 39, "note": 50, "velocity": 104, "channel": 0}, {"type": "note_on", "time": 0, "note": 47, "velocity": 104, "channel": 0}, {"type": "note_off", "time": 28, "note": 47, "velocity": 104, "channel": 0}, {"type": "note_on", "time": 0, "note": 48, "velocity": 99, "channel": 0}, {"type": "note_off", "time": 31, "note": 48, "velocity": 99, "channel": 0}, {"type": "note_on", "time": 9, "note": 50, "velocity": 99, "channel": 0}, {"type": "note_off", "time": 28, "note": 50, "velocity": 99, "channel": 0}, {"type": "note_on", "time": 14, "note": 52, "velocity": 110, "channel": 0}, {"type": "note_off", "time": 28, "note": 52, "velocity": 110, "channel": 0}, {"type": "note_on", "time": 5, "note": 54, "velocity": 118, "channel": 0}, {"type": "note_off", "time": 10, "note": 54, "velocity": 118, "channel": 0}, {"type": "note_on", "time": 8, "note": 55, "velocity": 108, "channel": 0}, {"type": "note_off", "time": 26, "note": 55, "velocity": 108, "channel": 0}, {"type": "note_on", "time": 12, "note": 62, "velocity": 112, "channel": 0}, {"type": "note_off", "time": 211, "note": 62, "velocity": 112, "channel": 0}, {"type": "note_on", "time": 16, "note": 60, "velocity": 107, "channel": 0}, {"type": "note_off", "time": 46, "note": 60, "velocity": 107, "channel": 0}, {"type": "note_on", "time": 16, "note": 55, "velocity": 112, "channel": 0}, {"type": "note_off", "time": 45, "note": 55, "velocity": 112, "channel": 0}, {"type": "note_on", "time": 6, "note": 52, "velocity": 97, "channel": 0}, {"type": "note_off", "time": 37, "note": 52, "velocity": 97, "channel": 0}, {"type": "note_on", "time": 4, "note": 51, "velocity": 97, "channel": 0}, {"type": "note_off", "time": 28, "note": 51, "velocity": 97, "channel": 0}, {"type": "note_on", "time": 0, "note": 59, "velocity": 89, "channel": 0}, {"type": "note_off", "time": 25, "note": 59, "velocity": 89, "channel": 0}, {"type": "note_on", "time": 6, "note": 58, "velocity": 105, "channel": 0}, {"type": "note_off", "time": 57, "note": 58, "velocity": 105, "channel": 0}, {"type": "note_on", "time": 6, "note": 57, "velocity": 103, "channel": 0}, {"type": "note_off", "time": 42, "note": 57, "velocity": 103, "channel": 0}, {"type": "note_on", "time": 3, "note": 59, "velocity": 107, "channel": 0}, {"type": "note_off", "time": 112, "note": 59, "velocity": 107, "channel": 0}, {"type": "end_of_track", "time": 0}]]}