{"ticks_per_beat": 192, "tracks": [[{"type": "track_name", "name": "Melody", "time": 0}, {"type": "set_tempo", "tempo": 431654, "time": 0}, {"type": "key_signature", "key": "Eb", "time": 0}, {"type": "time_signature", "numerator": 4, "denominator": 4, "clocks_per_click": 24, "notated_32nd_notes_per_beat": 8, "time": 0}, {"type": "note_on", "time": 2342, "note": 75, "velocity": 127, "channel": 0}, {"type": "note_off", "time": 64, "note": 75, "velocity": 127, "channel": 0}, {"type": "note_on", "time": 126, "note": 73, "velocity": 117, "channel": 0}, {"type": "note_off", "time": 77, "note": 73, "velocity": 117, "channel": 0}, {"type": "note_on", "time": 19, "note": 70, "velocity": 107, "channel": 0}, {"type": "note_off", "time": 76, "note": 70, "velocity": 107, "channel": 0}, {"type": "note_on", "time": 3, "note": 68, "velocity": 109, "channel": 0}, {"type": "note_off", "time": 65, "note": 68, "velocity": 109, "channel": 0}, {"type": "note_on", "time": 13, "note": 66, "velocity": 90, "channel": 0}, {"type": "note_off", "time": 103, "note": 66, "velocity": 90, "channel": 0}, {"type": "note_on", "time": 82, "note": 62, "velocity": 92, "channel": 0}, {"type": "note_off", "time": 38, "note": 62, "velocity": 92, "channel": 0}, {"type": "note_on", "time": 10, "note": 63, "velocity": 87, "channel": 0}, {"type": "note_off", "time": 129, "note": 63, "velocity": 87, "channel": 0}, {"type": "note_on", "time": 21, "note": 63, "velocity": 84, "channel": 0}, {"type": "note_off", "time": 174, "note": 63, "velocity": 84, "channel": 0}, {"type": "note_on", "time": 11, "note": 63, "velocity": 91, "channel": 0}, {"type": "note_off", "time": 197, "note": 63, "velocity": 91, "channel": 0}, {"type": "note_on", "time": 8, "note": 66, "velocity": 90, "channel": 0}, {"type": "note_off", "time": 101, "note": 66, "velocity": 90, "channel": 0}, {"type": "note_on", "time": 10, "note": 63, "velocity": 100, "channel": 0}, {"type": "note_off", "time": 77, "note": 63, "velocity": 100, "channel": 0}, {"type": "note_on", "time": 129, "note": 71, "velocity": 101, "channel": 0}, {"type": "note_off", "time": 76, "note": 71, "velocity": 101, "channel": 0}, {"type": "note_on", "time": 3, "note": 72, "velocity": 97, "channel": 0}, {"type": "note_off", "time": 83, "note": 72, "velocity": 97, "channel": 0}, {"type": "note_on", "time": 40, "note": 70, "velocity": 104, "channel": 0}, {"type": "note_off", "time": 73, "note": 70, "velocity": 104, "channel": 0}, {"type": "note_on", "time": 5, "note": 67, "velocity": 93, "channel": 0}, {"type": "note_off", "time": 105, "note": 67, "velocity": 93, "channel": 0}, {"type": "note_on", "time": 6, "note": 63, "velocity": 97, "channel": 0}, {"type": "note_off", "time": 69, "note": 63, "velocity": 97, "channel": 0}, {"type": "note_on", "time": 7, "note": 60, "velocity": 97, "channel": 0}, {"type": "note_off", "time": 108, "note": 60, "velocity": 97, "channel": 0}, {"type": "note_on", "time": 7, "note": 58, "velocity": 83, "channel": 0}, {"type": "note_off", "time": 54, "note": 58, "velocity": 83, "channel": 0}, {"type": "note_on", "time": 3, "note": 63, "velocity": 86, "channel": 0}, {"type": "note_off", "time": 159, "note": 63, "velocity": 86, "channel": 0}, {"type": "note_on", "time": 21, "note": 63, "velocity": 116, "channel": 0}, {"type": "note_off", "time": 83, "note": 63, "velocity": 116, "channel": 0}, {"type": "note_on", "time": 224, "note": 63, "velocity": 95, "channel": 0}, {"type": "note_off", "time": 65, "note": 63, "velocity": 95, "channel": 0}, {"type": "note_on", "time": 68, "note": 67, "velocity": 87, "channel": 0}, {"type": "note_off", "time": 64, "note": 67, "velocity": 87, "channel": 0}, {"type": "note_on", "time": 2, "note": 72, "velocity": 107, "channel": 0}, {"type": "note_off", "time": 81, "note": 72, "velocity": 107, "channel": 0}, {"type": "note_on", "time": 24, "note": 72, "velocity": 117, "channel": 0}, {"type": "note_off", "time": 38, "note": 72, "velocity": 117, "channel": 0}, {"type": "note_on", "time": 1, "note": 73, "velocity": 108, "channel": 0}, {"type": "note_off", "time": 45, "note": 73, "velocity": 108, "channel": 0}, {"type": "note_on", "time": 4, "note": 72, "velocity": 112, "channel": 0}, {"type": "note_off", "time": 77, "note": 72, "velocity": 112, "channel": 0}, {"type": "note_on", "time": 7, "note": 70, "velocity": 109, "channel": 0}, {"type": "note_off", "time": 23, "note": 70, "velocity": 109, "channel": 0}, {"type": "note_on", "time": 12, "note": 72, "velocity": 97, "channel": 0}, {"type": "note_off", "time": 20, "note": 72, "velocity": 97, "channel": 0}, {"type": "note_on", "time": 6, "note": 70, "velocity": 95, "channel": 0}, {"type": "note_off", "time": 37, "note": 70, "velocity": 95, "channel": 0}, {"type": "note_on", "time": 7, "note": 67, "velocity": 109, "channel": 0}, {"type": "note_off", "time": 61, "note": 67, "velocity": 109, "channel": 0}, {"type": "note_on", "time": 12, "note": 63, "velocity": 98, "channel": 0}, {"type": "note_off", "time": 84, "note": 63, "velocity": 98, "channel": 0}, {"type": "note_on", "time": 26, "note": 60, "velocity": 89, "channel": 0}, {"type": "note_off", "time": 82, "note": 60, "velocity": 89, "channel": 0}, {"type": "note_on", "time": 0, "note": 63, "velocity": 87, "channel": 0}, {"type": "note_off", "time": 351, "note": 63, "velocity": 87, "channel": 0}, {"type": "note_on", "time": 5, "note": 63, "velocity": 115, "channel": 0}, {"type": "note_off", "time": 110, "note": 63, "velocity": 115, "channel": 0}, {"type": "note_on", "time": 263, "note": 56, "velocity": 92, "channel": 0}, {"type": "note_off", "time": 113, "note": 56, "velocity": 92, "channel": 0}, {"type": "note_on", "time": 18, "note": 58, "velocity": 103, "channel": 0}, {"type": "note_off", "time": 90, "note": 58, "velocity": 103, "channel": 0}, {"type": "note_on", "time": 10, "note": 60, "velocity": 98, "channel": 0}, {"type": "note_off", "time": 124, "note": 60, "velocity": 98, "channel": 0}, {"type": "note_on", "time": 6, "note": 63, "velocity": 78, "channel": 0}, {"type": "note_off", "time": 41, "note": 63, "velocity": 78, "channel": 0}, {"type": "note_on", "time": 2, "note": 65, "velocity": 122, "channel": 0}, {"type": "note_off", "time": 81, "note": 65, "velocity": 122, "channel": 0}, {"type": "note_on", "time": 52, "note": 66, "velocity": 116, "channel": 0}, {"type": "note_off", "time": 77, "note": 66, "velocity": 116, "channel": 0}, {"type": "note_on", "time": 198, "note": 57, "velocity": 84, "channel": 0}, {"type": "note_off", "time": 375, "note": 57, "velocity": 84, "channel": 0}, {"type": "note_on", "time": 3, "note": 58, "velocity": 106, "channel": 0}, {"type": "note_off", "time": 113, "note": 58, "velocity": 106, "channel": 0}, {"type": "note_on", "time": 212, "note": 58, "velocity": 100, "channel": 0}, {"type": "note_off", "time": 77, "note": 58, "velocity": 100, "channel": 0}, {"type": "note_on", "time": 28, "note": 60, "velocity": 89, "channel": 0}, {"type": "note_off", "time": 29, "note": 60, "velocity": 89, "channel": 0}, {"type": "note_on", "time": 8, "note": 63, "velocity": 88, "channel": 0}, {"type": "note_off", "time": 34, "note": 63, "velocity": 88, "channel": 0}, {"type": "note_on", "time": 0, "note": 67, "velocity": 114, "channel": 0}, {"type": "note_off", "time": 50, "note": 67, "velocity": 114, "channel": 0}, {"type": "note_on", "time": 75, "note": 68, "velocity": 107, "channel": 0}, {"type": "note_off", "time": 68, "note": 68, "velocity": 107, "channel": 0}, {"type": "note_on", "time": 14, "note": 67, "velocity": 114, "channel": 0}, {"type": "note_off", "time": 42, "note": 67, "velocity": 114, "channel": 0}, {"type": "note_on", "time": 73, "note": 68, "velocity": 113, "channel": 0}, {"type": "note_off", "time": 59, "note": 68, "velocity": 113, "channel": 0}, {"type": "note_on", "time": 7, "note": 67, "velocity": 99, "channel": 0}, {"type": "note_off", "time": 65, "note": 67, "velocity": 99, "channel": 0}, {"type": "note_on", "time": 2, "note": 68, "velocity": 111, "channel": 0}, {"type": "note_off", "time": 46, "note": 68, "velocity": 111, "channel": 0}, {"type": "note_on", "time": 50, "note": 67, "velocity": 105, "channel": 0}, {"type": "note_off", "time": 65, "note": 67, "velocity": 105, "channel": 0}, {"type": "note_on", "time": 65, "note": 68, "velocity": 113, "channel": 0}, {"type": "note_off", "time": 69, "note": 68, "velocity": 113, "channel": 0}, {"type": "note_on", "time": 3, "note": 67, "velocity": 93, "channel": 0}, {"type": "note_off", "time": 74, "note": 67, "velocity": 93, "channel": 0}, {"type": "note_on", "time": 2, "note": 68, "velocity": 111, "channel": 0}, {"type": "note_off", "time": 58, "note": 68, "velocity": 111, "channel": 0}, {"type": "note_on", "time": 49, "note": 67, "velocity": 107, "channel": 0}, {"type": "note_off", "time": 58, "note": 67, "velocity": 107, "channel": 0}, {"type": "note_on", "time": 59, "note": 68, "velocity": 112, "channel": 0}, {"type": "note_off", "time": 52, "note": 68, "velocity": 112, "channel": 0}, {"type": "note_on", "time": 7, "note": 67, "velocity": 101, "channel": 0}, {"type": "note_off", "time": 73, "note": 67, "velocity": 101, "channel": 0}, {"type": "note_on", "time": 5, "note": 68, "velocity": 109, "channel": 0}, {"type": "note_off", "time": 107, "note": 68, "velocity": 109, "channel": 0}, {"type": "note_on", "time": 21, "note": 70, "velocity": 106, "channel": 0}, {"type": "note_off", "time": 188, "note": 70, "velocity": 106, "channel": 0}, {"type": "note_on", "time": 226, "note": 58, "velocity": 102, "channel": 0}, {"type": "note_off", "time": 78, "note": 58, "velocity": 102, "channel": 0}, {"type": "note_on", "time": 0, "note": 60, "velocity": 86, "channel": 0}, {"type": "note_off", "time": 58, "note": 60, "velocity": 86, "channel": 0}, {"type": "note_on", "time": 1, "note": 63, "velocity": 99, "channel": 0}, {"type": "note_on", "time": 61, "note": 66, "velocity": 114, "channel": 0}, {"type": "note_off", "time": 0, "note": 63, "velocity": 99, "channel": 0}, {"type": "note_off", "time": 23, "note": 66, "velocity": 114, "channel": 0}, {"type": "note_on", "time": 3, "note": 67, "velocity": 102, "channel": 0}, {"type": "note_off", "time": 77, "note": 67, "velocity": 102, "channel": 0}, {"type": "note_on", "time": 105, "note": 66, "velocity": 112, "channel": 0}, {"type": "note_off", "time": 19, "note": 66, "velocity": 112, "channel": 0}, {"type": "note_on", "time": 3, "note": 67, "velocity": 102, "channel": 0}, {"type": "note_off", "time": 81, "note": 67, "velocity": 102, "channel": 0}, {"type": "note_on", "time": 14, "note": 63, "velocity": 93, "channel": 0}, {"type": "note_off", "time": 240, "note": 63, "velocity": 93, "channel": 0}, {"type": "note_on", "time": 11, "note": 61, "velocity": 101, "channel": 0}, {"type": "note_off", "time": 98, "note": 61, "velocity": 101, "channel": 0}, {"type": "note_on", "time": 3, "note": 60, "velocity": 106, "channel": 0}, {"type": "note_off", "time": 65, "note": 60, "velocity": 106, "channel": 0}, {"type": "note_on", "time": 14, "note": 58, "velocity": 108, "channel": 0}, {"type": "note_off", "time": 112, "note": 58, "velocity": 108, "channel": 0}, {"type": "note_on", "time": 91, "note": 58, "velocity": 112, "channel": 0}, {"type": "note_off", "time": 100, "note": 58, "velocity": 112, "channel": 0}, {"type": "note_on", "time": 10, "note": 57, "velocity": 104, "channel": 0}, {"type": "note_off", "time": 65, "note": 57, "velocity": 104, "channel": 0}, {"type": "note_on", "time": 16, "note": 56, "velocity": 96, "channel": 0}, {"type": "note_off", "time": 92, "note": 56, "velocity": 96, "channel": 0}, {"type": "note_on", "time": 0, "note": 58, "velocity": 112, "channel": 0}, {"type": "note_off", "time": 65, "note": 58, "velocity": 112, "channel": 0}, {"type": "note_on", "time": 10, "note": 60, "velocity": 108, "channel": 0}, {"type": "note_off", "time": 107, "note": 60, "velocity": 108, "channel": 0}, {"type": "note_on", "time": 7, "note": 63, "velocity": 105, "channel": 0}, {"type": "note_off", "time": 61, "note": 63, "velocity": 105, "channel": 0}, {"type": "note_on", "time": 9, "note": 66, "velocity": 105, "channel": 0}, {"type": "note_off", "time": 80, "note": 66, "velocity": 105, "channel": 0}, {"type": "note_on", "time": 9, "note": 67, "velocity": 107, "channel": 0}, {"type": "note_off", "time": 50, "note": 67, "velocity": 107, "channel": 0}, {"type": "note_on", "time": 2, "note": 70, "velocity": 86, "channel": 0}, {"type": "note_off", "time": 34, "note": 70, "velocity": 86, "channel": 0}, {"type": "note_on", "time": 0, "note": 72, "velocity": 122, "channel": 0}, {"type": "note_off", "time": 135, "note": 72, "velocity": 122, "channel": 0}, {"type": "note_on", "time": 45, "note": 75, "velocity": 111, "channel": 0}, {"type": "note_off", "time": 467, "note": 75, "velocity": 111, "channel": 0}, {"type": "note_on", "time": 20, "note": 72, "velocity": 109, "channel": 0}, {"type": "note_off", "time": 25, "note": 72, "velocity": 109, "channel": 0}, {"type": "note_on", "time": 5, "note": 73, "velocity": 99, "channel": 0}, {"type": "note_off", "time": 77, "note": 73, "velocity": 99, "channel": 0}, {"type": "note_on", "time": 2, "note": 70, "velocity": 98, "channel": 0}, {"type": "note_off", "time": 104, "note": 70, "velocity": 98, "channel": 0}, {"type": "note_on", "time": 249, "note": 75, "velocity": 122, "channel": 0}, {"type": "note_off", "time": 58, "note": 75, "velocity": 122, "channel": 0}, {"type": "note_on", "time": 55, "note": 73, "velocity": 120, "channel": 0}, {"type": "note_off", "time": 58, "note": 73, "velocity": 120, "channel": 0}, {"type": "note_on", "time": 21, "note": 70, "velocity": 106, "channel": 0}, {"type": "note_off", "time": 32, "note": 70, "velocity": 106, "channel": 0}, {"type": "note_on", "time": 0, "note": 68, "velocity": 115, "channel": 0}, {"type": "note_off", "time": 58, "note": 68, "velocity": 115, "channel": 0}, {"type": "note_on", "time": 20, "note": 66, "velocity": 103, "channel": 0}, {"type": "note_off", "time": 54, "note": 66, "velocity": 103, "channel": 0}, {"type": "note_on", "time": 7, "note": 63, "velocity": 97, "channel": 0}, {"type": "note_off", "time": 36, "note": 63, "velocity": 97, "channel": 0}, {"type": "note_on", "time": 7, "note": 61, "velocity": 105, "channel": 0}, {"type": "note_off", "time": 65, "note": 61, "velocity": 105, "channel": 0}, {"type": "note_on", "time": 6, "note": 58, "velocity": 99, "channel": 0}, {"type": "note_off", "time": 65, "note": 58, "velocity": 99, "channel": 0}, {"type": "note_on", "time": 6, "note": 56, "velocity": 94, "channel": 0}, {"type": "note_off", "time": 65, "note": 56, "velocity": 94, "channel": 0}, {"type": "note_on", "time": 3, "note": 54, "velocity": 97, "channel": 0}, {"type": "note_off", "time": 54, "note": 54, "velocity": 97, "channel": 0}, {"type": "note_on", "time": 7, "note": 55, "velocity": 101, "channel": 0}, {"type": "note_off", "time": 234, "note": 55, "velocity": 101, "channel": 0}, {"type": "note_on", "time": 12, "note": 63, "velocity": 89, "channel": 0}, {"type": "note_off", "time": 258, "note": 63, "velocity": 89, "channel": 0}, {"type": "note_on", "time": 340, "note": 58, "velocity": 104, "channel": 0}, {"type": "note_off", "time": 85, "note": 58, "velocity": 104, "channel": 0}, {"type": "note_on", "time": 92, "note": 68, "velocity": 118, "channel": 0}, {"type": "note_off", "time": 87, "note": 68, "velocity": 118, "channel": 0}, {"type": "note_on", "time": 10, "note": 67, "velocity": 117, "channel": 0}, {"type": "note_off", "time": 41, "note": 67, "velocity": 117, "channel": 0}, {"type": "note_on", "time": 5, "note": 68, "velocity": 112, "channel": 0}, {"type": "note_on", "time": 25, "note": 67, "velocity": 113, "channel": 0}, {"type": "note_off", "time": 0, "note": 68, "velocity": 112, "channel": 0}, {"type": "note_off", "time": 23, "note": 67, "velocity": 113, "channel": 0}, {"type": "note_on", "time": 14, "note": 65, "velocity": 109, "channel": 0}, {"type": "note_off", "time": 50, "note": 65, "velocity": 109, "channel": 0}, {"type": "note_on", "time": 14, "note": 63, "velocity": 96, "channel": 0}, {"type": "note_off", "time": 107, "note": 63, "velocity": 96, "channel": 0}, {"type": "note_on", "time": 3, "note": 61, "velocity": 113, "channel": 0}, {"type": "note_off", "time": 98, "note": 61, "velocity": 113, "channel": 0}, {"type": "note_on", "time": 6, "note": 60, "velocity": 105, "channel": 0}, {"type": "note_off", "time": 116, "note": 60, "velocity": 105, "channel": 0}, {"type": "note_on", "time": 0, "note": 56, "velocity": 96, "channel": 0}, {"type": "note_off", "time": 92, "note": 56, "velocity": 96, "channel": 0}, {"type": "note_on", "time": 2, "note": 55, "velocity": 91, "channel": 0}, {"type": "note_off", "time": 56, "note": 55, "velocity": 91, "channel": 0}, {"type": "note_on", "time": 54, "note": 53, "velocity": 82, "channel": 0}, {"type": "note_off", "time": 46, "note": 53, "velocity": 82, "channel": 0}, {"type": "note_on", "time": 25, "note": 58, "velocity": 112, "channel": 0}, {"type": "note_off", "time": 118, "note": 58, "velocity": 112, "channel": 0}, {"type": "note_on", "time": 2, "note": 55, "velocity": 97, "channel": 0}, {"type": "note_off", "time": 59, "note": 55, "velocity": 97, "channel": 0}, {"type": "note_on", "time": 3, "note": 56, "velocity": 100, "channel": 0}, {"type": "note_off", "time": 121, "note": 56, "velocity": 100, "channel": 0}, {"type": "note_on", "time": 6, "note": 57, "velocity": 92, "channel": 0}, {"type": "note_off", "time": 348, "note": 57, "velocity": 92, "channel": 0}, {"type": "note_on", "time": 3, "note": 59, "velocity": 100, "channel": 0}, {"type": "note_off", "time": 80, "note": 59, "velocity": 100, "channel": 0}, {"type": "note_on", "time": 3, "note": 60, "velocity": 101, "channel": 0}, {"type": "note_off", "time": 108, "note": 60, "velocity": 101, "channel": 0}, {"type": "note_on", "time": 3, "note": 66, "velocity": 111, "channel": 0}, {"type": "note_off", "time": 73, "note": 66, "velocity": 111, "channel": 0}, {"type": "note_on", "time": 10, "note": 62, "velocity": 96, "channel": 0}, {"type": "note_on", "time": 129, "note": 58, "velocity": 96, "channel": 0}, {"type": "note_off", "time": 0, "note": 62, "velocity": 96, "channel": 0}, {"type": "note_off", "time": 54, "note": 58, "velocity": 96, "channel": 0}, {"type": "note_on", "time": 0, "note": 65, "velocity": 111, "channel": 0}, {"type": "note_off", "time": 135, "note": 65, "velocity": 111, "channel": 0}, {"type": "note_on", "time": 0, "note": 62, "velocity": 80, "channel": 0}, {"type": "note_off", "time": 61, "note": 62, "velocity": 80, "channel": 0}, {"type": "note_on", "time": 2, "note": 63, "velocity": 105, "channel": 0}, {"type": "note_off", "time": 96, "note": 63, "velocity": 105, "channel": 0}, {"type": "note_on", "time": 5, "note": 68, "velocity": 118, "channel": 0}, {"type": "note_off", "time": 77, "note": 68, "velocity": 118, "channel": 0}, {"type": "note_on", "time": 7, "note": 66, "velocity": 86, "channel": 0}, {"type": "note_off", "time": 120, "note": 66, "velocity": 86, "channel": 0}, {"type": "note_on", "time": 0, "note": 67, "velocity": 85, "channel": 0}, {"type": "note_off", "time": 73, "note": 67, "velocity": 85, "channel": 0}, {"type": "note_on", "time": 11, "note": 72, "velocity": 117, "channel": 0}, {"type": "note_off", "time": 92, "note": 72, "velocity": 117, "channel": 0}, {"type": "note_on", "time": 9, "note": 69, "velocity": 110, "channel": 0}, {"type": "note_off", "time": 65, "note": 69, "velocity": 110, "channel": 0}, {"type": "note_on", "time": 6, "note": 70, "velocity": 102, "channel": 0}, {"type": "note_off", "time": 127, "note": 70, "velocity": 102, "channel": 0}, {"type": "note_on", "time": 3, "note": 62, "velocity": 84, "channel": 0}, {"type": "note_off", "time": 54, "note": 62, "velocity": 84, "channel": 0}, {"type": "note_on", "time": 12, "note": 63, "velocity": 97, "channel": 0}, {"type": "note_off", "time": 112, "note": 63, "velocity": 97, "channel": 0}, {"type": "note_on", "time": 0, "note": 68, "velocity": 116, "channel": 0}, {"type": "note_off", "time": 74, "note": 68, "velocity": 116, "channel": 0}, {"type": "note_on", "time": 9, "note": 67, "velocity": 102, "channel": 0}, {"type": "note_off", "time": 40, "note": 67, "velocity": 102, "channel": 0}, {"type": "note_on", "time": 3, "note": 68, "velocity": 101, "channel": 0}, {"type": "note_off", "time": 23, "note": 68, "velocity": 101, "channel": 0}, {"type": "note_on", "time": 0, "note": 67, "velocity": 99, "channel": 0}, {"type": "note_off", "time": 43, "note": 67, "velocity": 99, "channel": 0}, {"type": "note_on", "time": 10, "note": 64, "velocity": 101, "channel": 0}, {"type": "note_off", "time": 54, "note": 64, "velocity": 101, "channel": 0}, {"type": "note_on", "time": 5, "note": 61, "velocity": 101, "channel": 0}, {"type": "note_off", "time": 126, "note": 61, "velocity": 101, "channel": 0}, {"type": "note_on", "time": 6, "note": 58, "velocity": 88, "channel": 0}, {"type": "note_off", "time": 71, "note": 58, "velocity": 88, "channel": 0}, {"type": "note_on", "time": 0, "note": 67, "velocity": 107, "channel": 0}, {"type": "note_off", "time": 116, "note": 67, "velocity": 107, "channel": 0}, {"type": "note_on", "time": 28, "note": 58, "velocity": 99, "channel": 0}, {"type": "note_off", "time": 242, "note": 58, "velocity": 99, "channel": 0}, {"type": "note_on", "time": 183, "note": 58, "velocity": 103, "channel": 0}, {"type": "note_off", "time": 118, "note": 58, "velocity": 103, "channel": 0}, {"type": "note_on", "time": 23, "note": 60, "velocity": 94, "channel": 0}, {"type": "note_off", "time": 51, "note": 60, "velocity": 94, "channel": 0}, {"type": "note_on", "time": 2, "note": 63, "velocity": 104, "channel": 0}, {"type": "note_off", "time": 111, "note": 63, "velocity": 104, "channel": 0}, {"type": "note_on", "time": 0, "note": 66, "velocity": 113, "channel": 0}, {"type": "note_off", "time": 69, "note": 66, "velocity": 113, "channel": 0}, {"type": "note_on", "time": 7, "note": 65, "velocity": 102, "channel": 0}, {"type": "note_off", "time": 118, "note": 65, "velocity": 102, "channel": 0}, {"type": "note_on", "time": 7, "note": 60, "velocity": 89, "channel": 0}, {"type": "note_off", "time": 71, "note": 60, "velocity": 89, "channel": 0}, {"type": "note_on", "time": 0, "note": 66, "velocity": 104, "channel": 0}, {"type": "note_off", "time": 95, "note": 66, "velocity": 104, "channel": 0}, {"type": "note_on", "time": 6, "note": 65, "velocity": 103, "channel": 0}, {"type": "note_off", "time": 67, "note": 65, "velocity": 103, "channel": 0}, {"type": "note_on", "time": 12, "note": 60, "velocity": 100, "channel": 0}, {"type": "note_off", "time": 131, "note": 60, "velocity": 100, "channel": 0}, {"type": "note_on", "time": 0, "note": 66, "velocity": 111, "channel": 0}, {"type": "note_off", "time": 74, "note": 66, "velocity": 111, "channel": 0}, {"type": "note_on", "time": 6, "note": 65, "velocity": 103, "channel": 0}, {"type": "note_off", "time": 101, "note": 65, "velocity": 103, "channel": 0}, {"type": "note_on", "time": 12, "note": 60, "velocity": 87, "channel": 0}, {"type": "note_off", "time": 49, "note": 60, "velocity": 87, "channel": 0}, {"type": "note_on", "time": 0, "note": 66, "velocity": 104, "channel": 0}, {"type": "note_off", "time": 122, "note": 66, "velocity": 104, "channel": 0}, {"type": "note_on", "time": 16, "note": 65, "velocity": 104, "channel": 0}, {"type": "note_off", "time": 54, "note": 65, "velocity": 104, "channel": 0}, {"type": "note_on", "time": 2, "note": 60, "velocity": 97, "channel": 0}, {"type": "note_off", "time": 136, "note": 60, "velocity": 97, "channel": 0}, {"type": "note_on", "time": 0, "note": 66, "velocity": 114, "channel": 0}, {"type": "note_off", "time": 77, "note": 66, "velocity": 114, "channel": 0}, {"type": "note_on", "time": 7, "note": 65, "velocity": 105, "channel": 0}, {"type": "note_off", "time": 90, "note": 65, "velocity": 105, "channel": 0}, {"type": "note_on", "time": 10, "note": 60, "velocity": 86, "channel": 0}, {"type": "note_off", "time": 67, "note": 60, "velocity": 86, "channel": 0}, {"type": "note_on", "time": 0, "note": 66, "velocity": 108, "channel": 0}, {"type": "note_off", "time": 46, "note": 66, "velocity": 108, "channel": 0}, {"type": "note_on", "time": 5, "note": 65, "velocity": 105, "channel": 0}, {"type": "note_off", "time": 80, "note": 65, "velocity": 105, "channel": 0}, {"type": "note_on", "time": 20, "note": 60, "velocity": 101, "channel": 0}, {"type": "note_off", "time": 72, "note": 60, "velocity": 101, "channel": 0}, {"type": "note_on", "time": 291, "note": 71, "velocity": 107, "channel": 0}, {"type": "note_off", "time": 69, "note": 71, "velocity": 107, "channel": 0}, {"type": "note_on", "time": 5, "note": 72, "velocity": 91, "channel": 0}, {"type": "note_off", "time": 351, "note": 72, "velocity": 91, "channel": 0}, {"type": "note_on", "time": 15, "note": 72, "velocity": 110, "channel": 0}, {"type": "note_off", "time": 82, "note": 72, "velocity": 110, "channel": 0}, {"type": "note_on", "time": 103, "note": 72, "velocity": 106, "channel": 0}, {"type": "note_off", "time": 131, "note": 72, "velocity": 106, "channel": 0}, {"type": "note_on", "time": 5, "note": 70, "velocity": 103, "channel": 0}, {"type": "note_off", "time": 67, "note": 70, "velocity": 103, "channel": 0}, {"type": "note_on", "time": 0, "note": 67, "velocity": 101, "channel": 0}, {"type": "note_off", "time": 113, "note": 67, "velocity": 101, "channel": 0}, {"type": "note_on", "time": 23, "note": 63, "velocity": 84, "channel": 0}, {"type": "note_on", "time": 49, "note": 70, "velocity": 111, "channel": 0}, {"type": "note_off", "time": 0, "note": 63, "velocity": 84, "channel": 0}, {"type": "note_off", "time": 108, "note": 70, "velocity": 111, "channel": 0}, {"type": "note_on", "time": 64, "note": 70, "velocity": 108, "channel": 0}, {"type": "note_off", "time": 100, "note": 70, "velocity": 108, "channel": 0}, {"type": "note_on", "time": 64, "note": 70, "velocity": 110, "channel": 0}, {"type": "note_off", "time": 108, "note": 70, "velocity": 110, "channel": 0}, {"type": "note_on", "time": 82, "note": 68, "velocity": 108, "channel": 0}, {"type": "note_off", "time": 67, "note": 68, "velocity": 108, "channel": 0}, {"type": "note_on", "time": 38, "note": 63, "velocity": 91, "channel": 0}, {"type": "note_off", "time": 118, "note": 63, "velocity": 91, "channel": 0}, {"type": "note_on", "time": 52, "note": 66, "velocity": 111, "channel": 0}, {"type": "note_off", "time": 96, "note": 66, "velocity": 111, "channel": 0}, {"type": "note_on", "time": 9, "note": 67, "velocity": 115, "channel": 0}, {"type": "note_off", "time": 77, "note": 67, "velocity": 115, "channel": 0}, {"type": "note_on", "time": 14, "note": 68, "velocity": 111, "channel": 0}, {"type": "note_off", "time": 101, "note": 68, "velocity": 111, "channel": 0}, {"type": "note_on", "time": 7, "note": 69, "velocity": 112, "channel": 0}, {"type": "note_off", "time": 80, "note": 69, "velocity": 112, "channel": 0}, {"type": "note_on", "time": 12, "note": 70, "velocity": 104, "channel": 0}, {"type": "note_off", "time": 81, "note": 70, "velocity": 104, "channel": 0}, {"type": "note_on", "time": 7, "note": 71, "velocity": 110, "channel": 0}, {"type": "note_off", "time": 83, "note": 71, "velocity": 110, "channel": 0}, {"type": "note_on", "time": 3, "note": 72, "velocity": 110, "channel": 0}, {"type": "note_on", "time": 54, "note": 73, "velocity": 109, "channel": 0}, {"type": "note_off", "time": 0, "note": 72, "velocity": 110, "channel": 0}, {"type": "note_off", "time": 41, "note": 73, "velocity": 109, "channel": 0}, {"type": "note_on", "time": 5, "note": 72, "velocity": 108, "channel": 0}, {"type": "note_off", "time": 29, "note": 72, "velocity": 108, "channel": 0}, {"type": "note_on", "time": 3, "note": 71, "velocity": 106, "channel": 0}, {"type": "note_off", "time": 61, "note": 71, "velocity": 106, "channel": 0}, {"type": "note_on", "time": 10, "note": 70, "velocity": 101, "channel": 0}, {"type": "note_off", "time": 87, "note": 70, "velocity": 101, "channel": 0}, {"type": "note_on", "time": 6, "note": 67, "velocity": 103, "channel": 0}, {"type": "note_off", "time": 81, "note": 67, "velocity": 103, "channel": 0}, {"type": "note_on", "time": 10, "note": 63, "velocity": 89, "channel": 0}, {"type": "note_off", "time": 98, "note": 63, "velocity": 89, "channel": 0}, {"type": "note_on", "time": 5, "note": 61, "velocity": 79, "channel": 0}, {"type": "note_off", "time": 58, "note": 61, "velocity": 79, "channel": 0}, {"type": "note_on", "time": 15, "note": 70, "velocity": 87, "channel": 0}, {"type": "note_off", "time": 36, "note": 70, "velocity": 87, "channel": 0}, {"type": "note_on", "time": 11, "note": 71, "velocity": 102, "channel": 0}, {"type": "note_off", "time": 73, "note": 71, "velocity": 102, "channel": 0}, {"type": "note_on", "time": 2, "note": 67, "velocity": 93, "channel": 0}, {"type": "note_on", "time": 42, "note": 64, "velocity": 95, "channel": 0}, {"type": "note_off", "time": 0, "note": 67, "velocity": 93, "channel": 0}, {"type": "note_off", "time": 34, "note": 64, "velocity": 95, "channel": 0}, {"type": "note_on", "time": 3, "note": 61, "velocity": 102, "channel": 0}, {"type": "note_off", "time": 92, "note": 61, "velocity": 102, "channel": 0}, {"type": "note_on", "time": 30, "note": 56, "velocity": 81, "channel": 0}, {"type": "note_off", "time": 52, "note": 56, "velocity": 81, "channel": 0}, {"type": "note_on", "time": 9, "note": 60, "velocity": 95, "channel": 0}, {"type": "note_off", "time": 142, "note": 60, "velocity": 95, "channel": 0}, {"type": "note_on", "time": 2, "note": 70, "velocity": 110, "channel": 0}, {"type": "note_off", "time": 103, "note": 70, "velocity": 110, "channel": 0}, {"type": "note_on", "time": 446, "note": 63, "velocity": 98, "channel": 0}, {"type": "note_off", "time": 91, "note": 63, "velocity": 98, "channel": 0}, {"type": "note_on", "time": 5, "note": 66, "velocity": 89, "channel": 0}, {"type": "note_off", "time": 100, "note": 66, "velocity": 89, "channel": 0}, {"type": "note_on", "time": 6, "note": 68, "velocity": 101, "channel": 0}, {"type": "note_off", "time": 59, "note": 68, "velocity": 101, "channel": 0}, {"type": "note_on", "time": 20, "note": 66, "velocity": 99, "channel": 0}, {"type": "note_off", "time": 111, "note": 66, "velocity": 99, "channel": 0}, {"type": "note_on", "time": 7, "note": 63, "velocity": 79, "channel": 0}, {"type": "note_off", "time": 41, "note": 63, "velocity": 79, "channel": 0}, {"type": "note_on", "time": 6, "note": 66, "velocity": 97, "channel": 0}, {"type": "note_off", "time": 191, "note": 66, "velocity": 97, "channel": 0}, {"type": "note_on", "time": 3, "note": 68, "velocity": 106, "channel": 0}, {"type": "note_off", "time": 116, "note": 68, "velocity": 106, "channel": 0}, {"type": "note_on", "time": 393, "note": 58, "velocity": 99, "channel": 0}, {"type": "note_off", "time": 82, "note": 58, "velocity": 99, "channel": 0}, {"type": "note_on", "time": 7, "note": 61, "velocity": 92, "channel": 0}, {"type": "note_off", "time": 81, "note": 61, "velocity": 92, "channel": 0}, {"type": "note_on", "time": 14, "note": 63, "velocity": 99, "channel": 0}, {"type": "note_off", "time": 80, "note": 63, "velocity": 99, "channel": 0}, {"type": "note_on", "time": 3, "note": 61, "velocity": 9, "channel": 0}, {"type": "note_off", "time": 121, "note": 61, "velocity": 9, "channel": 0}, {"type": "note_on", "time": 12, "note": 58, "velocity": 87, "channel": 0}, {"type": "note_off", "time": 59, "note": 58, "velocity": 87, "channel": 0}, {"type": "note_on", "time": 7, "note": 60, "velocity": 100, "channel": 0}, {"type": "note_off", "time": 39, "note": 60, "velocity": 100, "channel": 0}, {"type": "note_on", "time": 10, "note": 61, "velocity": 102, "channel": 0}, {"type": "note_off", "time": 116, "note": 61, "velocity": 102, "channel": 0}, {"type": "note_on", "time": 3, "note": 63, "velocity": 100, "channel": 0}, {"type": "note_off", "time": 116, "note": 63, "velocity": 100, "channel": 0}, {"type": "note_on", "time": 3, "note": 61, "velocity": 104, "channel": 0}, {"type": "note_off", "time": 116, "note": 61, "velocity": 104, "channel": 0}, {"type": "note_on", "time": 11, "note": 62, "velocity": 92, "channel": 0}, {"type": "note_off", "time": 27, "note": 62, "velocity": 92, "channel": 0}, {"type": "note_on", "time": 1, "note": 61, "velocity": 92, "channel": 0}, {"type": "note_off", "time": 50, "note": 61, "velocity": 92, "channel": 0}, {"type": "note_on", "time": 5, "note": 58, "velocity": 105, "channel": 0}, {"type": "note_off", "time": 72, "note": 58, "velocity": 105, "channel": 0}, {"type": "note_on", "time": 9, "note": 57, "velocity": 87, "channel": 0}, {"type": "note_off", "time": 136, "note": 57, "velocity": 87, "channel": 0}, {"type": "note_on", "time": 16, "note": 54, "velocity": 98, "channel": 0}, {"type": "note_off", "time": 38, "note": 54, "velocity": 98, "channel": 0}, {"type": "note_on", "time": 5, "note": 56, "velocity": 97, "channel": 0}, {"type": "note_off", "time": 263, "note": 56, "velocity": 97, "channel": 0}, {"type": "note_on", "time": 18, "note": 55, "velocity": 105, "channel": 0}, {"type": "note_off", "time": 69, "note": 55, "velocity": 105, "channel": 0}, {"type": "note_on", "time": 7, "note": 56, "velocity": 96, "channel": 0}, {"type": "note_off", "time": 69, "note": 56, "velocity": 96, "channel": 0}, {"type": "note_on", "time": 7, "note": 60, "velocity": 87, "channel": 0}, {"type": "note_off", "time": 37, "note": 60, "velocity": 87, "channel": 0}, {"type": "note_on", "time": 3, "note": 63, "velocity": 106, "channel": 0}, {"type": "note_off", "time": 43, "note": 63, "velocity": 106, "channel": 0}, {"type": "note_on", "time": 18, "note": 67, "velocity": 116, "channel": 0}, {"type": "note_off", "time": 74, "note": 67, "velocity": 116, "channel": 0}, {"type": "note_on", "time": 49, "note": 64, "velocity": 109, "channel": 0}, {"type": "note_off", "time": 60, "note": 64, "velocity": 109, "channel": 0}, {"type": "note_on", "time": 5, "note": 65, "velocity": 114, "channel": 0}, {"type": "note_off", "time": 105, "note": 65, "velocity": 114, "channel": 0}, {"type": "note_on", "time": 3, "note": 67, "velocity": 119, "channel": 0}, {"type": "note_off", "time": 85, "note": 67, "velocity": 119, "channel": 0}, {"type": "note_on", "time": 3, "note": 68, "velocity": 117, "channel": 0}, {"type": "note_off", "time": 100, "note": 68, "velocity": 117, "channel": 0}, {"type": "note_on", "time": 9, "note": 69, "velocity": 111, "channel": 0}, {"type": "note_off", "time": 72, "note": 69, "velocity": 111, "channel": 0}, {"type": "note_on", "time": 7, "note": 70, "velocity": 103, "channel": 0}, {"type": "note_off", "time": 105, "note": 70, "velocity": 103, "channel": 0}, {"type": "note_on", "time": 7, "note": 66, "velocity": 103, "channel": 0}, {"type": "note_off", "time": 69, "note": 66, "velocity": 103, "channel": 0}, {"type": "note_on", "time": 0, "note": 62, "velocity": 92, "channel": 0}, {"type": "note_off", "time": 108, "note": 62, "velocity": 92, "channel": 0}, {"type": "note_on", "time": 18, "note": 61, "velocity": 109, "channel": 0}, {"type": "note_off", "time": 73, "note": 61, "velocity": 109, "channel": 0}, {"type": "note_on", "time": 6, "note": 60, "velocity": 93, "channel": 0}, {"type": "note_off", "time": 98, "note": 60, "velocity": 93, "channel": 0}, {"type": "note_on", "time": 9, "note": 62, "velocity": 84, "channel": 0}, {"type": "note_off", "time": 86, "note": 62, "velocity": 84, "channel": 0}, {"type": "note_on", "time": 2, "note": 63, "velocity": 100, "channel": 0}, {"type": "note_off", "time": 103, "note": 63, "velocity": 100, "channel": 0}, {"type": "note_on", "time": 20, "note": 65, "velocity": 87, "channel": 0}, {"type": "note_off", "time": 61, "note": 65, "velocity": 87, "channel": 0}, {"type": "note_on", "time": 5, "note": 67, "velocity": 108, "channel": 0}, {"type": "note_off", "time": 95, "note": 67, "velocity": 108, "channel": 0}, {"type": "note_on", "time": 38, "note": 58, "velocity": 97, "channel": 0}, {"type": "note_off", "time": 247, "note": 58, "velocity": 97, "channel": 0}, {"type": "note_on", "time": 273, "note": 70, "velocity": 112, "channel": 0}, {"type": "note_off", "time": 72, "note": 70, "velocity": 112, "channel": 0}, {"type": "note_on", "time": 9, "note": 73, "velocity": 115, "channel": 0}, {"type": "note_off", "time": 139, "note": 73, "velocity": 115, "channel": 0}, {"type": "note_on", "time": 67, "note": 74, "velocity": 116, "channel": 0}, {"type": "note_off", "time": 143, "note": 74, "velocity": 116, "channel": 0}, {"type": "note_on", "time": 4, "note": 75, "velocity": 114, "channel": 0}, {"type": "note_off", "time": 427, "note": 75, "velocity": 114, "channel": 0}, {"type": "note_on", "time": 22, "note": 72, "velocity": 103, "channel": 0}, {"type": "note_off", "time": 54, "note": 72, "velocity": 103, "channel": 0}, {"type": "note_on", "time": 10, "note": 73, "velocity": 102, "channel": 0}, {"type": "note_off", "time": 58, "note": 73, "velocity": 102, "channel": 0}, {"type": "note_on", "time": 18, "note": 70, "velocity": 107, "channel": 0}, {"type": "note_off", "time": 90, "note": 70, "velocity": 107, "channel": 0}, {"type": "note_on", "time": 260, "note": 75, "velocity": 122, "channel": 0}, {"type": "note_off", "time": 74, "note": 75, "velocity": 122, "channel": 0}, {"type": "note_on", "time": 111, "note": 73, "velocity": 115, "channel": 0}, {"type": "note_off", "time": 64, "note": 73, "velocity": 115, "channel": 0}, {"type": "note_on", "time": 7, "note": 70, "velocity": 105, "channel": 0}, {"type": "note_off", "time": 100, "note": 70, "velocity": 105, "channel": 0}, {"type": "note_on", "time": 5, "note": 68, "velocity": 114, "channel": 0}, {"type": "note_off", "time": 78, "note": 68, "velocity": 114, "channel": 0}, {"type": "note_on", "time": 9, "note": 66, "velocity": 103, "channel": 0}, {"type": "note_off", "time": 111, "note": 66, "velocity": 103, "channel": 0}, {"type": "note_on", "time": 49, "note": 65, "velocity": 99, "channel": 0}, {"type": "note_off", "time": 29, "note": 65, "velocity": 99, "channel": 0}, {"type": "note_on", "time": 5, "note": 66, "velocity": 107, "channel": 0}, {"type": "note_off", "time": 89, "note": 66, "velocity": 107, "channel": 0}, {"type": "note_on", "time": 6, "note": 65, "velocity": 105, "channel": 0}, {"type": "note_off", "time": 74, "note": 65, "velocity": 105, "channel": 0}, {"type": "note_on", "time": 3, "note": 60, "velocity": 95, "channel": 0}, {"type": "note_off", "time": 123, "note": 60, "velocity": 95, "channel": 0}, {"type": "note_on", "time": 6, "note": 65, "velocity": 105, "channel": 0}, {"type": "note_off", "time": 229, "note": 65, "velocity": 105, "channel": 0}, {"type": "note_on", "time": 255, "note": 57, "velocity": 96, "channel": 0}, {"type": "note_off", "time": 49, "note": 57, "velocity": 96, "channel": 0}, {"type": "note_on", "time": 0, "note": 58, "velocity": 94, "channel": 0}, {"type": "note_off", "time": 41, "note": 58, "velocity": 94, "channel": 0}, {"type": "note_on", "time": 3, "note": 60, "velocity": 98, "channel": 0}, {"type": "note_off", "time": 51, "note": 60, "velocity": 98, "channel": 0}, {"type": "note_on", "time": 3, "note": 61, "velocity": 103, "channel": 0}, {"type": "note_off", "time": 47, "note": 61, "velocity": 103, "channel": 0}, {"type": "note_on", "time": 9, "note": 63, "velocity": 97, "channel": 0}, {"type": "note_off", "time": 41, "note": 63, "velocity": 97, "channel": 0}, {"type": "note_on", "time": 0, "note": 65, "velocity": 105, "channel": 0}, {"type": "note_off", "time": 46, "note": 65, "velocity": 105, "channel": 0}, {"type": "note_on", "time": 0, "note": 68, "velocity": 118, "channel": 0}, {"type": "note_off", "time": 49, "note": 68, "velocity": 118, "channel": 0}, {"type": "note_on", "time": 6, "note": 67, "velocity": 110, "channel": 0}, {"type": "note_off", "time": 43, "note": 67, "velocity": 110, "channel": 0}, {"type": "note_on", "time": 6, "note": 66, "velocity": 100, "channel": 0}, {"type": "note_off", "time": 45, "note": 66, "velocity": 100, "channel": 0}, {"type": "note_on", "time": 5, "note": 65, "velocity": 102, "channel": 0}, {"type": "note_off", "time": 32, "note": 65, "velocity": 102, "channel": 0}, {"type": "note_on", "time": 7, "note": 61, "velocity": 105, "channel": 0}, {"type": "note_off", "time": 51, "note": 61, "velocity": 105, "channel": 0}, {"type": "note_on", "time": 0, "note": 58, "velocity": 100, "channel": 0}, {"type": "note_off", "time": 36, "note": 58, "velocity": 100, "channel": 0}, {"type": "note_on", "time": 0, "note": 55, "velocity": 100, "channel": 0}, {"type": "note_off", "time": 51, "note": 55, "velocity": 100, "channel": 0}, {"type": "note_on", "time": 0, "note": 58, "velocity": 106, "channel": 0}, {"type": "note_off", "time": 59, "note": 58, "velocity": 106, "channel": 0}, {"type": "note_on", "time": 0, "note": 55, "velocity": 100, "channel": 0}, {"type": "note_off", "time": 36, "note": 55, "velocity": 100, "channel": 0}, {"type": "note_on", "time": 5, "note": 56, "velocity": 96, "channel": 0}, {"type": "note_on", "time": 43, "note": 58, "velocity": 96, "channel": 0}, {"type": "note_off", "time": 0, "note": 56, "velocity": 96, "channel": 0}, {"type": "note_off", "time": 43, "note": 58, "velocity": 96, "channel": 0}, {"type": "note_on", "time": 5, "note": 60, "velocity": 94, "channel": 0}, {"type": "note_off", "time": 67, "note": 60, "velocity": 94, "channel": 0}, {"type": "note_on", "time": 12, "note": 60, "velocity": 87, "channel": 0}, {"type": "note_off", "time": 82, "note": 60, "velocity": 87, "channel": 0}, {"type": "note_on", "time": 147, "note": 55, "velocity": 99, "channel": 0}, {"type": "note_off", "time": 49, "note": 55, "velocity": 99, "channel": 0}, {"type": "note_on", "time": 3, "note": 56, "velocity": 93, "channel": 0}, {"type": "note_off", "time": 43, "note": 56, "velocity": 93, "channel": 0}, {"type": "note_on", "time": 1, "note": 57, "velocity": 95, "channel": 0}, {"type": "note_off", "time": 49, "note": 57, "velocity": 95, "channel": 0}, {"type": "note_on", "time": 5, "note": 58, "velocity": 97, "channel": 0}, {"type": "note_off", "time": 41, "note": 58, "velocity": 97, "channel": 0}, {"type": "note_on", "time": 5, "note": 60, "velocity": 104, "channel": 0}, {"type": "note_on", "time": 43, "note": 62, "velocity": 93, "channel": 0}, {"type": "note_off", "time": 0, "note": 60, "velocity": 104, "channel": 0}, {"type": "note_off", "time": 38, "note": 62, "velocity": 93, "channel": 0}, {"type": "note_on", "time": 5, "note": 63, "velocity": 98, "channel": 0}, {"type": "note_off", "time": 30, "note": 63, "velocity": 98, "channel": 0}, {"type": "note_on", "time": 258, "note": 56, "velocity": 96, "channel": 0}, {"type": "note_off", "time": 41, "note": 56, "velocity": 96, "channel": 0}, {"type": "note_on", "time": 0, "note": 57, "velocity": 97, "channel": 0}, {"type": "note_off", "time": 38, "note": 57, "velocity": 97, "channel": 0}, {"type": "note_on", "time": 3, "note": 59, "velocity": 97, "channel": 0}, {"type": "note_off", "time": 38, "note": 59, "velocity": 97, "channel": 0}, {"type": "note_on", "time": 6, "note": 60, "velocity": 101, "channel": 0}, {"type": "note_off", "time": 46, "note": 60, "velocity": 101, "channel": 0}, {"type": "note_on", "time": 5, "note": 62, "velocity": 96, "channel": 0}, {"type": "note_off", "time": 29, "note": 62, "velocity": 96, "channel": 0}, {"type": "note_on", "time": 2, "note": 63, "velocity": 99, "channel": 0}, {"type": "note_off", "time": 29, "note": 63, "velocity": 99, "channel": 0}, {"type": "note_on", "time": 1, "note": 65, "velocity": 120, "channel": 0}, {"type": "note_off", "time": 55, "note": 65, "velocity": 120, "channel": 0}, {"type": "note_on", "time": 2, "note": 66, "velocity": 116, "channel": 0}, {"type": "note_off", "time": 52, "note": 66, "velocity": 116, "channel": 0}, {"type": "note_on", "time": 203, "note": 57, "velocity": 94, "channel": 0}, {"type": "note_off", "time": 36, "note": 57, "velocity": 94, "channel": 0}, {"type": "note_on", "time": 3, "note": 58, "velocity": 92, "channel": 0}, {"type": "note_off", "time": 32, "note": 58, "velocity": 92, "channel": 0}, {"type": "note_on", "time": 5, "note": 59, "velocity": 92, "channel": 0}, {"type": "note_off", "time": 34, "note": 59, "velocity": 92, "channel": 0}, {"type": "note_on", "time": 5, "note": 60, "velocity": 97, "channel": 0}, {"type": "note_off", "time": 50, "note": 60, "velocity": 97, "channel": 0}, {"type": "note_on", "time": 14, "note": 61, "velocity": 101, "channel": 0}, {"type": "note_off", "time": 41, "note": 61, "velocity": 101, "channel": 0}, {"type": "note_on", "time": 3, "note": 62, "velocity": 97, "channel": 0}, {"type": "note_off", "time": 34, "note": 62, "velocity": 97, "channel": 0}, {"type": "note_on", "time": 6, "note": 63, "velocity": 92, "channel": 0}, {"type": "note_off", "time": 29, "note": 63, "velocity": 92, "channel": 0}, {"type": "note_on", "time": 6, "note": 64, "velocity": 98, "channel": 0}, {"type": "note_off", "time": 50, "note": 64, "velocity": 98, "channel": 0}, {"type": "note_on", "time": 6, "note": 65, "velocity": 110, "channel": 0}, {"type": "note_off", "time": 54, "note": 65, "velocity": 110, "channel": 0}, {"type": "note_on", "time": 3, "note": 66, "velocity": 97, "channel": 0}, {"type": "note_off", "time": 30, "note": 66, "velocity": 97, "channel": 0}, {"type": "note_on", "time": 10, "note": 67, "velocity": 95, "channel": 0}, {"type": "note_off", "time": 36, "note": 67, "velocity": 95, "channel": 0}, {"type": "note_on", "time": 2, "note": 68, "velocity": 108, "channel": 0}, {"type": "note_off", "time": 61, "note": 68, "velocity": 108, "channel": 0}, {"type": "note_on", "time": 178, "note": 57, "velocity": 92, "channel": 0}, {"type": "note_off", "time": 49, "note": 57, "velocity": 92, "channel": 0}, {"type": "note_on", "time": 2, "note": 58, "velocity": 95, "channel": 0}, {"type": "note_off", "time": 40, "note": 58, "velocity": 95, "channel": 0}, {"type": "note_on", "time": 3, "note": 59, "velocity": 90, "channel": 0}, {"type": "note_off", "time": 49, "note": 59, "velocity": 90, "channel": 0}, {"type": "note_on", "time": 2, "note": 60, "velocity": 97, "channel": 0}, {"type": "note_off", "time": 44, "note": 60, "velocity": 97, "channel": 0}, {"type": "note_on", "time": 2, "note": 61, "velocity": 99, "channel": 0}, {"type": "note_off", "time": 49, "note": 61, "velocity": 99, "channel": 0}, {"type": "note_on", "time": 3, "note": 62, "velocity": 95, "channel": 0}, {"type": "note_off", "time": 35, "note": 62, "velocity": 95, "channel": 0}, {"type": "note_on", "time": 2, "note": 63, "velocity": 95, "channel": 0}, {"type": "note_off", "time": 51, "note": 63, "velocity": 95, "channel": 0}, {"type": "note_on", "time": 1, "note": 64, "velocity": 104, "channel": 0}, {"type": "note_off", "time": 38, "note": 64, "velocity": 104, "channel": 0}, {"type": "note_on", "time": 2, "note": 65, "velocity": 110, "channel": 0}, {"type": "note_off", "time": 48, "note": 65, "velocity": 110, "channel": 0}, {"type": "note_on", "time": 4, "note": 66, "velocity": 99, "channel": 0}, {"type": "note_off", "time": 51, "note": 66, "velocity": 99, "channel": 0}, {"type": "note_on", "time": 1, "note": 67, "velocity": 107, "channel": 0}, {"type": "note_off", "time": 37, "note": 67, "velocity": 107, "channel": 0}, {"type": "note_on", "time": 3, "note": 68, "velocity": 108, "channel": 0}, {"type": "note_off", "time": 40, "note": 68, "velocity": 108, "channel": 0}, {"type": "note_on", "time": 5, "note": 69, "velocity": 109, "channel": 0}, {"type": "note_off", "time": 39, "note": 69, "velocity": 109, "channel": 0}, {"type": "note_on", "time": 2, "note": 70, "velocity": 103, "channel": 0}, {"type": "note_off", "time": 49, "note": 70, "velocity": 103, "channel": 0}, {"type": "note_on", "time": 4, "note": 71, "velocity": 101, "channel": 0}, {"type": "note_off", "time": 36, "note": 71, "velocity": 101, "channel": 0}, {"type": "note_on", "time": 4, "note": 72, "velocity": 102, "channel": 0}, {"type": "note_off", "time": 52, "note": 72, "velocity": 102, "channel": 0}, {"type": "note_on", "time": 2, "note": 71, "velocity": 109, "channel": 0}, {"type": "note_off", "time": 38, "note": 71, "velocity": 109, "channel": 0}, {"type": "note_on", "time": 4, "note": 70, "velocity": 104, "channel": 0}, {"type": "note_off", "time": 36, "note": 70, "velocity": 104, "channel": 0}, {"type": "note_on", "time": 1, "note": 69, "velocity": 107, "channel": 0}, {"type": "note_off", "time": 51, "note": 69, "velocity": 107, "channel": 0}, {"type": "note_on", "time": 2, "note": 68, "velocity": 106, "channel": 0}, {"type": "note_off", "time": 33, "note": 68, "velocity": 106, "channel": 0}, {"type": "note_on", "time": 14, "note": 60, "velocity": 89, "channel": 0}, {"type": "note_off", "time": 35, "note": 60, "velocity": 89, "channel": 0}, {"type": "note_on", "time": 11, "note": 63, "velocity": 98, "channel": 0}, {"type": "note_off", "time": 41, "note": 63, "velocity": 98, "channel": 0}, {"type": "note_on", "time": 5, "note": 67, "velocity": 111, "channel": 0}, {"type": "note_off", "time": 77, "note": 67, "velocity": 111, "channel": 0}, {"type": "note_on", "time": 2, "note": 68, "velocity": 103, "channel": 0}, {"type": "note_off", "time": 19, "note": 68, "velocity": 103, "channel": 0}, {"type": "note_on", "time": 2, "note": 67, "velocity": 113, "channel": 0}, {"type": "note_off", "time": 25, "note": 67, "velocity": 113, "channel": 0}, {"type": "note_on", "time": 2, "note": 65, "velocity": 111, "channel": 0}, {"type": "note_off", "time": 49, "note": 65, "velocity": 111, "channel": 0}, {"type": "note_on", "time": 2, "note": 64, "velocity": 106, "channel": 0}, {"type": "note_off", "time": 35, "note": 64, "velocity": 106, "channel": 0}, {"type": "note_on", "time": 3, "note": 63, "velocity": 100, "channel": 0}, {"type": "note_off", "time": 38, "note": 63, "velocity": 100, "channel": 0}, {"type": "note_on", "time": 7, "note": 60, "velocity": 102, "channel": 0}, {"type": "note_off", "time": 49, "note": 60, "velocity": 102, "channel": 0}, {"type": "note_on", "time": 2, "note": 56, "velocity": 93, "channel": 0}, {"type": "note_off", "time": 38, "note": 56, "velocity": 93, "channel": 0}, {"type": "note_on", "time": 0, "note": 53, "velocity": 89, "channel": 0}, {"type": "note_off", "time": 34, "note": 53, "velocity": 89, "channel": 0}, {"type": "note_on", "time": 11, "note": 58, "velocity": 110, "channel": 0}, {"type": "note_off", "time": 51, "note": 58, "velocity": 110, "channel": 0}, {"type": "note_on", "time": 0, "note": 55, "velocity": 101, "channel": 0}, {"type": "note_off", "time": 49, "note": 55, "velocity": 101, "channel": 0}, {"type": "note_on", "time": 2, "note": 56, "velocity": 97, "channel": 0}, {"type": "note_off", "time": 42, "note": 56, "velocity": 97, "channel": 0}, {"type": "note_on", "time": 3, "note": 58, "velocity": 109, "channel": 0}, {"type": "note_off", "time": 38, "note": 58, "velocity": 109, "channel": 0}, {"type": "note_on", "time": 51, "note": 63, "velocity": 90, "channel": 0}, {"type": "note_off", "time": 38, "note": 63, "velocity": 90, "channel": 0}, {"type": "note_on", "time": 0, "note": 67, "velocity": 113, "channel": 0}, {"type": "note_off", "time": 46, "note": 67, "velocity": 113, "channel": 0}, {"type": "note_on", "time": 4, "note": 64, "velocity": 105, "channel": 0}, {"type": "note_off", "time": 34, "note": 64, "velocity": 105, "channel": 0}, {"type": "note_on", "time": 3, "note": 65, "velocity": 104, "channel": 0}, {"type": "note_off", "time": 39, "note": 65, "velocity": 104, "channel": 0}, {"type": "note_on", "time": 3, "note": 67, "velocity": 115, "channel": 0}, {"type": "note_off", "time": 36, "note": 67, "velocity": 115, "channel": 0}, {"type": "note_on", "time": 4, "note": 68, "velocity": 99, "channel": 0}, {"type": "note_off", "time": 47, "note": 68, "velocity": 99, "channel": 0}, {"type": "note_on", "time": 9, "note": 69, "velocity": 91, "channel": 0}, {"type": "note_off", "time": 23, "note": 69, "velocity": 91, "channel": 0}, {"type": "note_on", "time": 7, "note": 70, "velocity": 103, "channel": 0}, {"type": "note_off", "time": 59, "note": 70, "velocity": 103, "channel": 0}, {"type": "note_on", "time": 3, "note": 69, "velocity": 107, "channel": 0}, {"type": "note_off", "time": 49, "note": 69, "velocity": 107, "channel": 0}, {"type": "note_on", "time": 4, "note": 68, "velocity": 98, "channel": 0}, {"type": "note_off", "time": 51, "note": 68, "velocity": 98, "channel": 0}, {"type": "note_on", "time": 9, "note": 65, "velocity": 88, "channel": 0}, {"type": "note_off", "time": 20, "note": 65, "velocity": 88, "channel": 0}, {"type": "note_on", "time": 5, "note": 66, "velocity": 105, "channel": 0}, {"type": "note_off", "time": 41, "note": 66, "velocity": 105, "channel": 0}, {"type": "note_on", "time": 3, "note": 67, "velocity": 111, "channel": 0}, {"type": "note_off", "time": 39, "note": 67, "velocity": 111, "channel": 0}, {"type": "note_on", "time": 3, "note": 68, "velocity": 108, "channel": 0}, {"type": "note_off", "time": 37, "note": 68, "velocity": 108, "channel": 0}, {"type": "note_on", "time": 5, "note": 69, "velocity": 108, "channel": 0}, {"type": "note_off", "time": 49, "note": 69, "velocity": 108, "channel": 0}, {"type": "note_on", "time": 5, "note": 70, "velocity": 100, "channel": 0}, {"type": "note_off", "time": 41, "note": 70, "velocity": 100, "channel": 0}, {"type": "note_on", "time": 6, "note": 72, "velocity": 84, "channel": 0}, {"type": "note_off", "time": 26, "note": 72, "velocity": 84, "channel": 0}, {"type": "note_on", "time": 9, "note": 75, "velocity": 117, "channel": 0}, {"type": "note_off", "time": 45, "note": 75, "velocity": 117, "channel": 0}, {"type": "note_on", "time": 10, "note": 72, "velocity": 93, "channel": 0}, {"type": "note_off", "time": 15, "note": 72, "velocity": 93, "channel": 0}, {"type": "note_on", "time": 0, "note": 73, "velocity": 116, "channel": 0}, {"type": "note_off", "time": 59, "note": 73, "velocity": 116, "channel": 0}, {"type": "note_on", "time": 0, "note": 75, "velocity": 108, "channel": 0}, {"type": "note_off", "time": 28, "note": 75, "velocity": 108, "channel": 0}, {"type": "note_on", "time": 3, "note": 73, "velocity": 101, "channel": 0}, {"type": "note_off", "time": 26, "note": 73, "velocity": 101, "channel": 0}, {"type": "note_on", "time": 1, "note": 70, "velocity": 103, "channel": 0}, {"type": "note_off", "time": 41, "note": 70, "velocity": 103, "channel": 0}, {"type": "note_on", "time": 8, "note": 67, "velocity": 89, "channel": 0}, {"type": "note_off", "time": 12, "note": 67, "velocity": 89, "channel": 0}, {"type": "note_on", "time": 1, "note": 68, "velocity": 110, "channel": 0}, {"type": "note_off", "time": 58, "note": 68, "velocity": 110, "channel": 0}, {"type": "note_on", "time": 6, "note": 70, "velocity": 98, "channel": 0}, {"type": "note_off", "time": 30, "note": 70, "velocity": 98, "channel": 0}, {"type": "note_on", "time": 1, "note": 68, "velocity": 102, "channel": 0}, {"type": "note_off", "time": 34, "note": 68, "velocity": 102, "channel": 0}, {"type": "note_on", "time": 4, "note": 66, "velocity": 99, "channel": 0}, {"type": "note_off", "time": 44, "note": 66, "velocity": 99, "channel": 0}, {"type": "note_on", "time": 0, "note": 62, "velocity": 91, "channel": 0}, {"type": "note_off", "time": 14, "note": 62, "velocity": 91, "channel": 0}, {"type": "note_on", "time": 5, "note": 63, "velocity": 105, "channel": 0}, {"type": "note_off", "time": 38, "note": 63, "velocity": 105, "channel": 0}, {"type": "note_on", "time": 2, "note": 64, "velocity": 96, "channel": 0}, {"type": "note_off", "time": 19, "note": 64, "velocity": 96, "channel": 0}, {"type": "note_on", "time": 3, "note": 63, "velocity": 98, "channel": 0}, {"type": "note_off", "time": 28, "note": 63, "velocity": 98, "channel": 0}, {"type": "note_on", "time": 4, "note": 61, "velocity": 95, "channel": 0}, {"type": "note_off", "time": 43, "note": 61, "velocity": 95, "channel": 0}, {"type": "note_on", "time": 7, "note": 57, "velocity": 92, "channel": 0}, {"type": "note_off", "time": 18, "note": 57, "velocity": 92, "channel": 0}, {"type": "note_on", "time": 4, "note": 58, "velocity": 110, "channel": 0}, {"type": "note_off", "time": 35, "note": 58, "velocity": 110, "channel": 0}, {"type": "note_on", "time": 4, "note": 60, "velocity": 107, "channel": 0}, {"type": "note_off", "time": 25, "note": 60, "velocity": 107, "channel": 0}, {"type": "note_on", "time": 3, "note": 58, "velocity": 100, "channel": 0}, {"type": "note_off", "time": 36, "note": 58, "velocity": 100, "channel": 0}, {"type": "note_on", "time": 2, "note": 56, "velocity": 106, "channel": 0}, {"type": "note_off", "time": 49, "note": 56, "velocity": 106, "channel": 0}, {"type": "note_on", "time": 5, "note": 54, "velocity": 104, "channel": 0}, {"type": "note_off", "time": 82, "note": 54, "velocity": 104, "channel": 0}, {"type": "note_on", "time": 276, "note": 65, "velocity": 117, "channel": 0}, {"type": "note_off", "time": 56, "note": 65, "velocity": 117, "channel": 0}, {"type": "note_on", "time": 12, "note": 65, "velocity": 101, "channel": 0}, {"type": "note_off", "time": 25, "note": 65, "velocity": 101, "channel": 0}, {"type": "note_on", "time": 7, "note": 66, "velocity": 110, "channel": 0}, {"type": "note_off", "time": 79, "note": 66, "velocity": 110, "channel": 0}, {"type": "note_on", "time": 9, "note": 66, "velocity": 120, "channel": 0}, {"type": "note_off", "time": 54, "note": 66, "velocity": 120, "channel": 0}, {"type": "note_on", "time": 5, "note": 65, "velocity": 106, "channel": 0}, {"type": "note_off", "time": 25, "note": 65, "velocity": 106, "channel": 0}, {"type": "note_on", "time": 10, "note": 66, "velocity": 112, "channel": 0}, {"type": "note_off", "time": 90, "note": 66, "velocity": 112, "channel": 0}, {"type": "note_on", "time": 19, "note": 66, "velocity": 115, "channel": 0}, {"type": "note_off", "time": 41, "note": 66, "velocity": 115, "channel": 0}, {"type": "note_on", "time": 15, "note": 66, "velocity": 111, "channel": 0}, {"type": "note_off", "time": 113, "note": 66, "velocity": 111, "channel": 0}, {"type": "note_on", "time": 7, "note": 65, "velocity": 111, "channel": 0}, {"type": "note_off", "time": 54, "note": 65, "velocity": 111, "channel": 0}, {"type": "note_on", "time": 12, "note": 63, "velocity": 102, "channel": 0}, {"type": "note_off", "time": 95, "note": 63, "velocity": 102, "channel": 0}, {"type": "note_on", "time": 265, "note": 66, "velocity": 121, "channel": 0}, {"type": "note_off", "time": 51, "note": 66, "velocity": 121, "channel": 0}, {"type": "note_on", "time": 118, "note": 68, "velocity": 119, "channel": 0}, {"type": "note_off", "time": 64, "note": 68, "velocity": 119, "channel": 0}, {"type": "note_on", "time": 18, "note": 66, "velocity": 108, "channel": 0}, {"type": "note_off", "time": 64, "note": 66, "velocity": 108, "channel": 0}, {"type": "note_on", "time": 3, "note": 68, "velocity": 98, "channel": 0}, {"type": "note_off", "time": 49, "note": 68, "velocity": 98, "channel": 0}, {"type": "note_on", "time": 1, "note": 66, "velocity": 97, "channel": 0}, {"type": "note_off", "time": 54, "note": 66, "velocity": 97, "channel": 0}, {"type": "note_on", "time": 4, "note": 63, "velocity": 100, "channel": 0}, {"type": "note_off", "time": 105, "note": 63, "velocity": 100, "channel": 0}, {"type": "note_on", "time": 72, "note": 65, "velocity": 109, "channel": 0}, {"type": "note_off", "time": 32, "note": 65, "velocity": 109, "channel": 0}, {"type": "note_on", "time": 1, "note": 66, "velocity": 107, "channel": 0}, {"type": "note_off", "time": 98, "note": 66, "velocity": 107, "channel": 0}, {"type": "note_on", "time": 14, "note": 66, "velocity": 106, "channel": 0}, {"type": "note_off", "time": 54, "note": 66, "velocity": 106, "channel": 0}, {"type": "note_on", "time": 18, "note": 66, "velocity": 102, "channel": 0}, {"type": "note_off", "time": 100, "note": 66, "velocity": 102, "channel": 0}, {"type": "note_on", "time": 15, "note": 66, "velocity": 115, "channel": 0}, {"type": "note_off", "time": 61, "note": 66, "velocity": 115, "channel": 0}, {"type": "note_on", "time": 7, "note": 66, "velocity": 109, "channel": 0}, {"type": "note_off", "time": 95, "note": 66, "velocity": 109, "channel": 0}, {"type": "note_on", "time": 12, "note": 65, "velocity": 109, "channel": 0}, {"type": "note_off", "time": 64, "note": 65, "velocity": 109, "channel": 0}, {"type": "note_on", "time": 0, "note": 63, "velocity": 95, "channel": 0}, {"type": "note_off", "time": 105, "note": 63, "velocity": 95, "channel": 0}, {"type": "note_on", "time": 240, "note": 63, "velocity": 96, "channel": 0}, {"type": "note_off", "time": 69, "note": 63, "velocity": 96, "channel": 0}, {"type": "note_on", "time": 64, "note": 67, "velocity": 85, "channel": 0}, {"type": "note_off", "time": 38, "note": 67, "velocity": 85, "channel": 0}, {"type": "note_on", "time": 12, "note": 72, "velocity": 106, "channel": 0}, {"type": "note_off", "time": 69, "note": 72, "velocity": 106, "channel": 0}, {"type": "note_on", "time": 16, "note": 75, "velocity": 122, "channel": 0}, {"type": "note_off", "time": 85, "note": 75, "velocity": 122, "channel": 0}, {"type": "note_on", "time": 7, "note": 73, "velocity": 118, "channel": 0}, {"type": "note_off", "time": 54, "note": 73, "velocity": 118, "channel": 0}, {"type": "note_on", "time": 21, "note": 69, "velocity": 99, "channel": 0}, {"type": "note_off", "time": 27, "note": 69, "velocity": 99, "channel": 0}, {"type": "note_on", "time": 7, "note": 70, "velocity": 106, "channel": 0}, {"type": "note_off", "time": 83, "note": 70, "velocity": 106, "channel": 0}, {"type": "note_on", "time": 8, "note": 68, "velocity": 114, "channel": 0}, {"type": "note_off", "time": 74, "note": 68, "velocity": 114, "channel": 0}, {"type": "note_on", "time": 10, "note": 66, "velocity": 107, "channel": 0}, {"type": "note_off", "time": 85, "note": 66, "velocity": 107, "channel": 0}, {"type": "note_on", "time": 121, "note": 63, "velocity": 101, "channel": 0}, {"type": "note_off", "time": 98, "note": 63, "velocity": 101, "channel": 0}, {"type": "note_on", "time": 0, "note": 66, "velocity": 117, "channel": 0}, {"type": "note_off", "time": 81, "note": 66, "velocity": 117, "channel": 0}, {"type": "note_on", "time": 3, "note": 65, "velocity": 100, "channel": 0}, {"type": "note_off", "time": 143, "note": 65, "velocity": 100, "channel": 0}, {"type": "note_on", "time": 2, "note": 63, "velocity": 94, "channel": 0}, {"type": "note_off", "time": 39, "note": 63, "velocity": 94, "channel": 0}, {"type": "note_on", "time": 7, "note": 66, "velocity": 117, "channel": 0}, {"type": "note_off", "time": 96, "note": 66, "velocity": 117, "channel": 0}, {"type": "note_on", "time": 82, "note": 63, "velocity": 98, "channel": 0}, {"type": "note_off", "time": 85, "note": 63, "velocity": 98, "channel": 0}, {"type": "note_on", "time": 34, "note": 66, "velocity": 118, "channel": 0}, {"type": "note_off", "time": 69, "note": 66, "velocity": 118, "channel": 0}, {"type": "note_on", "time": 7, "note": 65, "velocity": 92, "channel": 0}, {"type": "note_off", "time": 127, "note": 65, "velocity": 92, "channel": 0}, {"type": "note_on", "time": 2, "note": 63, "velocity": 81, "channel": 0}, {"type": "note_off", "time": 41, "note": 63, "velocity": 81, "channel": 0}, {"type": "note_on", "time": 21, "note": 66, "velocity": 115, "channel": 0}, {"type": "note_off", "time": 85, "note": 66, "velocity": 115, "channel": 0}, {"type": "note_on", "time": 108, "note": 63, "velocity": 101, "channel": 0}, {"type": "note_off", "time": 89, "note": 63, "velocity": 101, "channel": 0}, {"type": "note_on", "time": 32, "note": 66, "velocity": 111, "channel": 0}, {"type": "note_off", "time": 77, "note": 66, "velocity": 111, "channel": 0}, {"type": "note_on", "time": 0, "note": 65, "velocity": 95, "channel": 0}, {"type": "note_off", "time": 129, "note": 65, "velocity": 95, "channel": 0}, {"type": "note_on", "time": 4, "note": 63, "velocity": 81, "channel": 0}, {"type": "note_off", "time": 32, "note": 63, "velocity": 81, "channel": 0}, {"type": "note_on", "time": 58, "note": 67, "velocity": 115, "channel": 0}, {"type": "note_off", "time": 89, "note": 67, "velocity": 115, "channel": 0}, {"type": "note_on", "time": 79, "note": 63, "velocity": 99, "channel": 0}, {"type": "note_off", "time": 96, "note": 63, "velocity": 99, "channel": 0}, {"type": "note_on", "time": 15, "note": 67, "velocity": 110, "channel": 0}, {"type": "note_off", "time": 85, "note": 67, "velocity": 110, "channel": 0}, {"type": "note_on", "time": 7, "note": 66, "velocity": 87, "channel": 0}, {"type": "note_off", "time": 103, "note": 66, "velocity": 87, "channel": 0}, {"type": "note_on", "time": 45, "note": 63, "velocity": 91, "channel": 0}, {"type": "note_off", "time": 34, "note": 63, "velocity": 91, "channel": 0}, {"type": "note_on", "time": 8, "note": 67, "velocity": 112, "channel": 0}, {"type": "note_off", "time": 92, "note": 67, "velocity": 112, "channel": 0}, {"type": "note_on", "time": 100, "note": 63, "velocity": 98, "channel": 0}, {"type": "note_off", "time": 100, "note": 63, "velocity": 98, "channel": 0}, {"type": "note_on", "time": 25, "note": 67, "velocity": 116, "channel": 0}, {"type": "note_off", "time": 65, "note": 67, "velocity": 116, "channel": 0}, {"type": "note_on", "time": 5, "note": 66, "velocity": 92, "channel": 0}, {"type": "note_off", "time": 107, "note": 66, "velocity": 92, "channel": 0}, {"type": "note_on", "time": 10, "note": 63, "velocity": 106, "channel": 0}, {"type": "note_off", "time": 59, "note": 63, "velocity": 106, "channel": 0}, {"type": "note_on", "time": 3, "note": 66, "velocity": 113, "channel": 0}, {"type": "note_off", "time": 89, "note": 66, "velocity": 113, "channel": 0}, {"type": "note_on", "time": 104, "note": 63, "velocity": 99, "channel": 0}, {"type": "note_off", "time": 92, "note": 63, "velocity": 99, "channel": 0}, {"type": "note_on", "time": 24, "note": 66, "velocity": 112, "channel": 0}, {"type": "note_off", "time": 60, "note": 66, "velocity": 112, "channel": 0}, {"type": "note_on", "time": 3, "note": 65, "velocity": 94, "channel": 0}, {"type": "note_off", "time": 127, "note": 65, "velocity": 94, "channel": 0}, {"type": "note_on", "time": 23, "note": 60, "velocity": 96, "channel": 0}, {"type": "note_off", "time": 34, "note": 60, "velocity": 96, "channel": 0}, {"type": "note_on", "time": 15, "note": 67, "velocity": 115, "channel": 0}, {"type": "note_off", "time": 105, "note": 67, "velocity": 115, "channel": 0}, {"type": "note_on", "time": 29, "note": 58, "velocity": 96, "channel": 0}, {"type": "note_off", "time": 212, "note": 58, "velocity": 96, "channel": 0}, {"type": "note_on", "time": 331, "note": 70, "velocity": 116, "channel": 0}, {"type": "note_off", "time": 54, "note": 70, "velocity": 116, "channel": 0}, {"type": "note_on", "time": 122, "note": 69, "velocity": 111, "channel": 0}, {"type": "note_off", "time": 71, "note": 69, "velocity": 111, "channel": 0}, {"type": "note_on", "time": 0, "note": 68, "velocity": 107, "channel": 0}, {"type": "note_off", "time": 125, "note": 68, "velocity": 107, "channel": 0}, {"type": "note_on", "time": 10, "note": 63, "velocity": 101, "channel": 0}, {"type": "note_off", "time": 68, "note": 63, "velocity": 101, "channel": 0}, {"type": "note_on", "time": 10, "note": 66, "velocity": 101, "channel": 0}, {"type": "note_off", "time": 103, "note": 66, "velocity": 101, "channel": 0}, {"type": "note_on", "time": 3, "note": 67, "velocity": 116, "channel": 0}, {"type": "note_off", "time": 71, "note": 67, "velocity": 116, "channel": 0}, {"type": "note_on", "time": 1, "note": 68, "velocity": 118, "channel": 0}, {"type": "note_off", "time": 107, "note": 68, "velocity": 118, "channel": 0}, {"type": "note_on", "time": 4, "note": 69, "velocity": 118, "channel": 0}, {"type": "note_off", "time": 89, "note": 69, "velocity": 118, "channel": 0}, {"type": "note_on", "time": 4, "note": 70, "velocity": 111, "channel": 0}, {"type": "note_off", "time": 88, "note": 70, "velocity": 111, "channel": 0}, {"type": "note_on", "time": 4, "note": 68, "velocity": 116, "channel": 0}, {"type": "note_off", "time": 68, "note": 68, "velocity": 116, "channel": 0}, {"type": "note_on", "time": 2, "note": 64, "velocity": 107, "channel": 0}, {"type": "note_off", "time": 122, "note": 64, "velocity": 107, "channel": 0}, {"type": "note_on", "time": 5, "note": 60, "velocity": 86, "channel": 0}, {"type": "note_off", "time": 64, "note": 60, "velocity": 86, "channel": 0}, {"type": "note_on", "time": 0, "note": 67, "velocity": 116, "channel": 0}, {"type": "note_off", "time": 129, "note": 67, "velocity": 116, "channel": 0}, {"type": "note_on", "time": 20, "note": 58, "velocity": 100, "channel": 0}, {"type": "note_off", "time": 264, "note": 58, "velocity": 100, "channel": 0}, {"type": "note_on", "time": 195, "note": 71, "velocity": 101, "channel": 0}, {"type": "note_off", "time": 90, "note": 71, "velocity": 101, "channel": 0}, {"type": "note_on", "time": 12, "note": 72, "velocity": 115, "channel": 0}, {"type": "note_off", "time": 56, "note": 72, "velocity": 115, "channel": 0}, {"type": "note_on", "time": 10, "note": 72, "velocity": 113, "channel": 0}, {"type": "note_off", "time": 111, "note": 72, "velocity": 113, "channel": 0}, {"type": "note_on", "time": 7, "note": 72, "velocity": 118, "channel": 0}, {"type": "note_off", "time": 72, "note": 72, "velocity": 118, "channel": 0}, {"type": "note_on", "time": 12, "note": 72, "velocity": 105, "channel": 0}, {"type": "note_off", "time": 100, "note": 72, "velocity": 105, "channel": 0}, {"type": "note_on", "time": 7, "note": 72, "velocity": 108, "channel": 0}, {"type": "note_off", "time": 61, "note": 72, "velocity": 108, "channel": 0}, {"type": "note_on", "time": 5, "note": 72, "velocity": 112, "channel": 0}, {"type": "note_off", "time": 103, "note": 72, "velocity": 112, "channel": 0}, {"type": "note_on", "time": 243, "note": 71, "velocity": 106, "channel": 0}, {"type": "note_off", "time": 48, "note": 71, "velocity": 106, "channel": 0}, {"type": "note_on", "time": 143, "note": 72, "velocity": 115, "channel": 0}, {"type": "note_off", "time": 59, "note": 72, "velocity": 115, "channel": 0}, {"type": "note_on", "time": 6, "note": 71, "velocity": 103, "channel": 0}, {"type": "note_off", "time": 57, "note": 71, "velocity": 103, "channel": 0}, {"type": "note_on", "time": 1, "note": 72, "velocity": 92, "channel": 0}, {"type": "note_off", "time": 71, "note": 72, "velocity": 92, "channel": 0}, {"type": "note_on", "time": 5, "note": 71, "velocity": 93, "channel": 0}, {"type": "note_off", "time": 48, "note": 71, "velocity": 93, "channel": 0}, {"type": "note_on", "time": 4, "note": 72, "velocity": 113, "channel": 0}, {"type": "note_off", "time": 106, "note": 72, "velocity": 113, "channel": 0}, {"type": "note_on", "time": 3, "note": 68, "velocity": 116, "channel": 0}, {"type": "note_off", "time": 83, "note": 68, "velocity": 116, "channel": 0}, {"type": "note_on", "time": 10, "note": 66, "velocity": 105, "channel": 0}, {"type": "note_off", "time": 116, "note": 66, "velocity": 105, "channel": 0}, {"type": "note_on", "time": 65, "note": 66, "velocity": 113, "channel": 0}, {"type": "note_off", "time": 77, "note": 66, "velocity": 113, "channel": 0}, {"type": "note_on", "time": 21, "note": 67, "velocity": 107, "channel": 0}, {"type": "note_off", "time": 85, "note": 67, "velocity": 107, "channel": 0}, {"type": "note_on", "time": 2, "note": 58, "velocity": 100, "channel": 0}, {"type": "note_off", "time": 119, "note": 58, "velocity": 100, "channel": 0}, {"type": "note_on", "time": 16, "note": 63, "velocity": 84, "channel": 0}, {"type": "note_off", "time": 296, "note": 63, "velocity": 84, "channel": 0}, {"type": "note_on", "time": 273, "note": 65, "velocity": 106, "channel": 0}, {"type": "note_off", "time": 128, "note": 65, "velocity": 106, "channel": 0}, {"type": "note_on", "time": 7, "note": 68, "velocity": 88, "channel": 0}, {"type": "note_off", "time": 49, "note": 68, "velocity": 88, "channel": 0}, {"type": "note_on", "time": 9, "note": 73, "velocity": 120, "channel": 0}, {"type": "note_off", "time": 61, "note": 73, "velocity": 120, "channel": 0}, {"type": "note_on", "time": 0, "note": 76, "velocity": 120, "channel": 0}, {"type": "note_off", "time": 54, "note": 76, "velocity": 120, "channel": 0}, {"type": "note_on", "time": 3, "note": 78, "velocity": 111, "channel": 0}, {"type": "note_off", "time": 526, "note": 78, "velocity": 111, "channel": 0}, {"type": "note_on", "time": 21, "note": 76, "velocity": 113, "channel": 0}, {"type": "note_off", "time": 45, "note": 76, "velocity": 113, "channel": 0}, {"type": "note_on", "time": 3, "note": 77, "velocity": 114, "channel": 0}, {"type": "note_off", "time": 52, "note": 77, "velocity": 114, "channel": 0}, {"type": "note_on", "time": 16, "note": 76, "velocity": 117, "channel": 0}, {"type": "note_off", "time": 71, "note": 76, "velocity": 117, "channel": 0}, {"type": "note_on", "time": 14, "note": 75, "velocity": 106, "channel": 0}, {"type": "note_off", "time": 94, "note": 75, "velocity": 106, "channel": 0}, {"type": "note_on", "time": 7, "note": 72, "velocity": 109, "channel": 0}, {"type": "note_off", "time": 67, "note": 72, "velocity": 109, "channel": 0}, {"type": "note_on", "time": 26, "note": 68, "velocity": 112, "channel": 0}, {"type": "note_off", "time": 114, "note": 68, "velocity": 112, "channel": 0}, {"type": "note_on", "time": 10, "note": 67, "velocity": 106, "channel": 0}, {"type": "note_off", "time": 74, "note": 67, "velocity": 106, "channel": 0}, {"type": "note_on", "time": 8, "note": 66, "velocity": 100, "channel": 0}, {"type": "note_off", "time": 118, "note": 66, "velocity": 100, "channel": 0}, {"type": "note_on", "time": 9, "note": 70, "velocity": 82, "channel": 0}, {"type": "note_off", "time": 43, "note": 70, "velocity": 82, "channel": 0}, {"type": "note_on", "time": 0, "note": 74, "velocity": 113, "channel": 0}, {"type": "note_off", "time": 95, "note": 74, "velocity": 113, "channel": 0}, {"type": "note_on", "time": 24, "note": 68, "velocity": 99, "channel": 0}, {"type": "note_off", "time": 69, "note": 68, "velocity": 99, "channel": 0}, {"type": "note_on", "time": 4, "note": 69, "velocity": 92, "channel": 0}, {"type": "note_off", "time": 116, "note": 69, "velocity": 92, "channel": 0}, {"type": "note_on", "time": 11, "note": 77, "velocity": 9, "channel": 0}, {"type": "note_off", "time": 88, "note": 77, "velocity": 9, "channel": 0}, {"type": "note_on", "time": 8, "note": 74, "velocity": 110, "channel": 0}, {"type": "note_off", "time": 87, "note": 74, "velocity": 110, "channel": 0}, {"type": "note_on", "time": 213, "note": 70, "velocity": 107, "channel": 0}, {"type": "note_off", "time": 64, "note": 70, "velocity": 107, "channel": 0}, {"type": "note_on", "time": 6, "note": 72, "velocity": 87, "channel": 0}, {"type": "note_off", "time": 30, "note": 72, "velocity": 87, "channel": 0}, {"type": "note_on", "time": 5, "note": 74, "velocity": 99, "channel": 0}, {"type": "note_off", "time": 32, "note": 74, "velocity": 99, "channel": 0}, {"type": "note_on", "time": 4, "note": 72, "velocity": 99, "channel": 0}, {"type": "note_off", "time": 38, "note": 72, "velocity": 99, "channel": 0}, {"type": "note_on", "time": 9, "note": 70, "velocity": 98, "channel": 0}, {"type": "note_off", "time": 54, "note": 70, "velocity": 98, "channel": 0}, {"type": "note_on", "time": 9, "note": 67, "velocity": 103, "channel": 0}, {"type": "note_off", "time": 109, "note": 67, "velocity": 103, "channel": 0}, {"type": "note_on", "time": 12, "note": 61, "velocity": 110, "channel": 0}, {"type": "note_off", "time": 53, "note": 61, "velocity": 110, "channel": 0}, {"type": "note_on", "time": 2, "note": 62, "velocity": 96, "channel": 0}, {"type": "note_off", "time": 404, "note": 62, "velocity": 96, "channel": 0}, {"type": "note_on", "time": 13, "note": 70, "velocity": 100, "channel": 0}, {"type": "note_off", "time": 98, "note": 70, "velocity": 100, "channel": 0}, {"type": "note_on", "time": 17, "note": 62, "velocity": 104, "channel": 0}, {"type": "note_off", "time": 69, "note": 62, "velocity": 104, "channel": 0}, {"type": "note_on", "time": 5, "note": 61, "velocity": 105, "channel": 0}, {"type": "note_off", "time": 98, "note": 61, "velocity": 105, "channel": 0}, {"type": "note_on", "time": 53, "note": 72, "velocity": 112, "channel": 0}, {"type": "note_off", "time": 100, "note": 72, "velocity": 112, "channel": 0}, {"type": "note_on", "time": 51, "note": 67, "velocity": 110, "channel": 0}, {"type": "note_off", "time": 94, "note": 67, "velocity": 110, "channel": 0}, {"type": "note_on", "time": 6, "note": 70, "velocity": 106, "channel": 0}, {"type": "note_off", "time": 91, "note": 70, "velocity": 106, "channel": 0}, {"type": "note_on", "time": 1, "note": 68, "velocity": 103, "channel": 0}, {"type": "note_off", "time": 260, "note": 68, "velocity": 103, "channel": 0}, {"type": "note_on", "time": 167, "note": 60, "velocity": 101, "channel": 0}, {"type": "note_off", "time": 103, "note": 60, "velocity": 101, "channel": 0}, {"type": "note_on", "time": 24, "note": 65, "velocity": 111, "channel": 0}, {"type": "note_off", "time": 74, "note": 65, "velocity": 111, "channel": 0}, {"type": "note_on", "time": 0, "note": 66, "velocity": 104, "channel": 0}, {"type": "note_off", "time": 91, "note": 66, "velocity": 104, "channel": 0}, {"type": "note_on", "time": 13, "note": 67, "velocity": 105, "channel": 0}, {"type": "note_off", "time": 88, "note": 67, "velocity": 105, "channel": 0}, {"type": "note_on", "time": 4, "note": 68, "velocity": 109, "channel": 0}, {"type": "note_off", "time": 102, "note": 68, "velocity": 109, "channel": 0}, {"type": "note_on", "time": 4, "note": 69, "velocity": 110, "channel": 0}, {"type": "note_off", "time": 80, "note": 69, "velocity": 110, "channel": 0}, {"type": "note_on", "time": 4, "note": 70, "velocity": 101, "channel": 0}, {"type": "note_off", "time": 35, "note": 70, "velocity": 101, "channel": 0}, {"type": "note_on", "time": 0, "note": 72, "velocity": 91, "channel": 0}, {"type": "note_off", "time": 27, "note": 72, "velocity": 91, "channel": 0}, {"type": "note_on", "time": 4, "note": 70, "velocity": 94, "channel": 0}, {"type": "note_off", "time": 41, "note": 70, "velocity": 94, "channel": 0}, {"type": "note_on", "time": 2, "note": 66, "velocity": 100, "channel": 0}, {"type": "note_off", "time": 84, "note": 66, "velocity": 100, "channel": 0}, {"type": "note_on", "time": 0, "note": 63, "velocity": 92, "channel": 0}, {"type": "note_off", "time": 103, "note": 63, "velocity": 92, "channel": 0}, {"type": "note_on", "time": 26, "note": 60, "velocity": 91, "channel": 0}, {"type": "note_off", "time": 51, "note": 60, "velocity": 91, "channel": 0}, {"type": "note_on", "time": 5, "note": 63, "velocity": 97, "channel": 0}, {"type": "note_off", "time": 293, "note": 63, "velocity": 97, "channel": 0}, {"type": "note_on", "time": 2, "note": 66, "velocity": 101, "channel": 0}, {"type": "note_off", "time": 43, "note": 66, "velocity": 101, "channel": 0}, {"type": "note_on", "time": 5, "note": 67, "velocity": 103, "channel": 0}, {"type": "note_off", "time": 48, "note": 67, "velocity": 103, "channel": 0}, {"type": "note_on", "time": 23, "note": 63, "velocity": 95, "channel": 0}, {"type": "note_off", "time": 257, "note": 63, "velocity": 95, "channel": 0}, {"type": "note_on", "time": 22, "note": 67, "velocity": 103, "channel": 0}, {"type": "note_off", "time": 38, "note": 67, "velocity": 103, "channel": 0}, {"type": "note_on", "time": 1, "note": 68, "velocity": 112, "channel": 0}, {"type": "note_off", "time": 36, "note": 68, "velocity": 112, "channel": 0}, {"type": "note_on", "time": 13, "note": 63, "velocity": 96, "channel": 0}, {"type": "note_off", "time": 272, "note": 63, "velocity": 96, "channel": 0}, {"type": "note_on", "time": 5, "note": 68, "velocity": 109, "channel": 0}, {"type": "note_off", "time": 41, "note": 68, "velocity": 109, "channel": 0}, {"type": "note_on", "time": 3, "note": 69, "velocity": 104, "channel": 0}, {"type": "note_off", "time": 51, "note": 69, "velocity": 104, "channel": 0}, {"type": "note_on", "time": 48, "note": 63, "velocity": 97, "channel": 0}, {"type": "note_off", "time": 228, "note": 63, "velocity": 97, "channel": 0}, {"type": "note_on", "time": 7, "note": 69, "velocity": 113, "channel": 0}, {"type": "note_off", "time": 38, "note": 69, "velocity": 113, "channel": 0}, {"type": "note_on", "time": 1, "note": 70, "velocity": 92, "channel": 0}, {"type": "note_off", "time": 45, "note": 70, "velocity": 92, "channel": 0}, {"type": "note_on", "time": 21, "note": 63, "velocity": 97, "channel": 0}, {"type": "note_off", "time": 237, "note": 63, "velocity": 97, "channel": 0}, {"type": "note_on", "time": 32, "note": 71, "velocity": 116, "channel": 0}, {"type": "note_off", "time": 39, "note": 71, "velocity": 116, "channel": 0}, {"type": "note_on", "time": 3, "note": 72, "velocity": 86, "channel": 0}, {"type": "note_off", "time": 51, "note": 72, "velocity": 86, "channel": 0}, {"type": "note_on", "time": 54, "note": 63, "velocity": 88, "channel": 0}, {"type": "note_off", "time": 284, "note": 63, "velocity": 88, "channel": 0}, {"type": "note_on", "time": 105, "note": 70, "velocity": 89, "channel": 0}, {"type": "note_off", "time": 41, "note": 70, "velocity": 89, "channel": 0}, {"type": "note_on", "time": 5, "note": 71, "velocity": 93, "channel": 0}, {"type": "note_off", "time": 49, "note": 71, "velocity": 93, "channel": 0}, {"type": "note_on", "time": 64, "note": 63, "velocity": 104, "channel": 0}, {"type": "note_off", "time": 119, "note": 63, "velocity": 104, "channel": 0}, {"type": "note_on", "time": 1, "note": 69, "velocity": 82, "channel": 0}, {"type": "note_off", "time": 36, "note": 69, "velocity": 82, "channel": 0}, {"type": "note_on", "time": 10, "note": 70, "velocity": 99, "channel": 0}, {"type": "note_off", "time": 36, "note": 70, "velocity": 99, "channel": 0}, {"type": "note_on", "time": 69, "note": 63, "velocity": 103, "channel": 0}, {"type": "note_off", "time": 109, "note": 63, "velocity": 103, "channel": 0}, {"type": "note_on", "time": 1, "note": 68, "velocity": 78, "channel": 0}, {"type": "note_off", "time": 33, "note": 68, "velocity": 78, "channel": 0}, {"type": "note_on", "time": 7, "note": 69, "velocity": 104, "channel": 0}, {"type": "note_off", "time": 43, "note": 69, "velocity": 104, "channel": 0}, {"type": "note_on", "time": 46, "note": 63, "velocity": 98, "channel": 0}, {"type": "note_off", "time": 265, "note": 63, "velocity": 98, "channel": 0}, {"type": "note_on", "time": 309, "note": 63, "velocity": 108, "channel": 0}, {"type": "note_off", "time": 61, "note": 63, "velocity": 108, "channel": 0}, {"type": "note_on", "time": 1, "note": 66, "velocity": 104, "channel": 0}, {"type": "note_off", "time": 66, "note": 66, "velocity": 104, "channel": 0}, {"type": "note_on", "time": 5, "note": 67, "velocity": 108, "channel": 0}, {"type": "note_off", "time": 53, "note": 67, "velocity": 108, "channel": 0}, {"type": "note_on", "time": 1, "note": 68, "velocity": 109, "channel": 0}, {"type": "note_off", "time": 67, "note": 68, "velocity": 109, "channel": 0}, {"type": "note_on", "time": 4, "note": 69, "velocity": 115, "channel": 0}, {"type": "note_off", "time": 58, "note": 69, "velocity": 115, "channel": 0}, {"type": "note_on", "time": 6, "note": 70, "velocity": 111, "channel": 0}, {"type": "note_off", "time": 58, "note": 70, "velocity": 111, "channel": 0}, {"type": "note_on", "time": 6, "note": 69, "velocity": 111, "channel": 0}, {"type": "note_off", "time": 44, "note": 69, "velocity": 111, "channel": 0}, {"type": "note_on", "time": 6, "note": 70, "velocity": 109, "channel": 0}, {"type": "note_off", "time": 67, "note": 70, "velocity": 109, "channel": 0}, {"type": "note_on", "time": 9, "note": 69, "velocity": 111, "channel": 0}, {"type": "note_off", "time": 65, "note": 69, "velocity": 111, "channel": 0}, {"type": "note_on", "time": 7, "note": 70, "velocity": 112, "channel": 0}, {"type": "note_off", "time": 56, "note": 70, "velocity": 112, "channel": 0}, {"type": "note_on", "time": 5, "note": 69, "velocity": 112, "channel": 0}, {"type": "note_off", "time": 53, "note": 69, "velocity": 112, "channel": 0}, {"type": "note_on", "time": 4, "note": 70, "velocity": 111, "channel": 0}, {"type": "note_off", "time": 47, "note": 70, "velocity": 111, "channel": 0}, {"type": "note_on", "time": 3, "note": 69, "velocity": 111, "channel": 0}, {"type": "note_off", "time": 65, "note": 69, "velocity": 111, "channel": 0}, {"type": "note_on", "time": 3, "note": 70, "velocity": 109, "channel": 0}, {"type": "note_off", "time": 66, "note": 70, "velocity": 109, "channel": 0}, {"type": "note_on", "time": 6, "note": 69, "velocity": 113, "channel": 0}, {"type": "note_off", "time": 58, "note": 69, "velocity": 113, "channel": 0}, {"type": "note_on", "time": 0, "note": 70, "velocity": 115, "channel": 0}, {"type": "note_off", "time": 54, "note": 70, "velocity": 115, "channel": 0}, {"type": "note_on", "time": 6, "note": 67, "velocity": 99, "channel": 0}, {"type": "note_off", "time": 36, "note": 67, "velocity": 99, "channel": 0}, {"type": "note_on", "time": 9, "note": 68, "velocity": 107, "channel": 0}, {"type": "note_off", "time": 59, "note": 68, "velocity": 107, "channel": 0}, {"type": "note_on", "time": 4, "note": 70, "velocity": 98, "channel": 0}, {"type": "note_on", "time": 35, "note": 68, "velocity": 103, "channel": 0}, {"type": "note_off", "time": 0, "note": 70, "velocity": 98, "channel": 0}, {"type": "note_off", "time": 38, "note": 68, "velocity": 103, "channel": 0}, {"type": "note_on", "time": 14, "note": 66, "velocity": 101, "channel": 0}, {"type": "note_off", "time": 129, "note": 66, "velocity": 101, "channel": 0}, {"type": "note_on", "time": 71, "note": 65, "velocity": 107, "channel": 0}, {"type": "note_on", "time": 152, "note": 66, "velocity": 110, "channel": 0}, {"type": "note_off", "time": 0, "note": 65, "velocity": 107, "channel": 0}, {"type": "note_off", "time": 423, "note": 66, "velocity": 110, "channel": 0}, {"type": "note_on", "time": 20, "note": 65, "velocity": 110, "channel": 0}, {"type": "note_off", "time": 105, "note": 65, "velocity": 110, "channel": 0}, {"type": "note_on", "time": 13, "note": 64, "velocity": 111, "channel": 0}, {"type": "note_off", "time": 80, "note": 64, "velocity": 111, "channel": 0}, {"type": "note_on", "time": 2, "note": 63, "velocity": 98, "channel": 0}, {"type": "note_off", "time": 100, "note": 63, "velocity": 98, "channel": 0}, {"type": "note_on", "time": 10, "note": 60, "velocity": 110, "channel": 0}, {"type": "note_off", "time": 75, "note": 60, "velocity": 110, "channel": 0}, {"type": "note_on", "time": 5, "note": 57, "velocity": 104, "channel": 0}, {"type": "note_off", "time": 100, "note": 57, "velocity": 104, "channel": 0}, {"type": "note_on", "time": 11, "note": 54, "velocity": 95, "channel": 0}, {"type": "note_off", "time": 85, "note": 54, "velocity": 95, "channel": 0}, {"type": "note_on", "time": 7, "note": 55, "velocity": 102, "channel": 0}, {"type": "note_off", "time": 88, "note": 55, "velocity": 102, "channel": 0}, {"type": "note_on", "time": 4, "note": 56, "velocity": 105, "channel": 0}, {"type": "note_off", "time": 77, "note": 56, "velocity": 105, "channel": 0}, {"type": "note_on", "time": 6, "note": 57, "velocity": 94, "channel": 0}, {"type": "note_off", "time": 102, "note": 57, "velocity": 94, "channel": 0}, {"type": "note_on", "time": 5, "note": 58, "velocity": 104, "channel": 0}, {"type": "note_off", "time": 83, "note": 58, "velocity": 104, "channel": 0}, {"type": "note_on", "time": 1, "note": 63, "velocity": 108, "channel": 0}, {"type": "note_off", "time": 105, "note": 63, "velocity": 108, "channel": 0}, {"type": "note_on", "time": 4, "note": 60, "velocity": 107, "channel": 0}, {"type": "note_off", "time": 80, "note": 60, "velocity": 107, "channel": 0}, {"type": "note_on", "time": 0, "note": 65, "velocity": 113, "channel": 0}, {"type": "note_off", "time": 101, "note": 65, "velocity": 113, "channel": 0}, {"type": "note_on", "time": 6, "note": 66, "velocity": 107, "channel": 0}, {"type": "note_off", "time": 71, "note": 66, "velocity": 107, "channel": 0}, {"type": "note_on", "time": 5, "note": 67, "velocity": 111, "channel": 0}, {"type": "note_off", "time": 127, "note": 67, "velocity": 111, "channel": 0}, {"type": "note_on", "time": 7, "note": 63, "velocity": 94, "channel": 0}, {"type": "note_off", "time": 52, "note": 63, "velocity": 94, "channel": 0}, {"type": "note_on", "time": 4, "note": 68, "velocity": 115, "channel": 0}, {"type": "note_off", "time": 123, "note": 68, "velocity": 115, "channel": 0}, {"type": "note_on", "time": 4, "note": 69, "velocity": 111, "channel": 0}, {"type": "note_off", "time": 69, "note": 69, "velocity": 111, "channel": 0}, {"type": "note_on", "time": 5, "note": 70, "velocity": 108, "channel": 0}, {"type": "note_off", "time": 100, "note": 70, "velocity": 108, "channel": 0}, {"type": "note_on", "time": 8, "note": 75, "velocity": 102, "channel": 0}, {"type": "note_off", "time": 73, "note": 75, "velocity": 102, "channel": 0}, {"type": "note_on", "time": 0, "note": 68, "velocity": 103, "channel": 0}, {"type": "note_off", "time": 34, "note": 68, "velocity": 103, "channel": 0}, {"type": "note_on", "time": 3, "note": 69, "velocity": 100, "channel": 0}, {"type": "note_off", "time": 88, "note": 69, "velocity": 100, "channel": 0}, {"type": "note_on", "time": 5, "note": 68, "velocity": 99, "channel": 0}, {"type": "note_off", "time": 285, "note": 68, "velocity": 99, "channel": 0}, {"type": "note_on", "time": 161, "note": 65, "velocity": 110, "channel": 0}, {"type": "note_off", "time": 109, "note": 65, "velocity": 110, "channel": 0}, {"type": "note_on", "time": 9, "note": 68, "velocity": 95, "channel": 0}, {"type": "note_off", "time": 69, "note": 68, "velocity": 95, "channel": 0}, {"type": "note_on", "time": 1, "note": 72, "velocity": 111, "channel": 0}, {"type": "note_off", "time": 112, "note": 72, "velocity": 111, "channel": 0}, {"type": "note_on", "time": 5, "note": 75, "velocity": 95, "channel": 0}, {"type": "note_off", "time": 81, "note": 75, "velocity": 95, "channel": 0}, {"type": "note_on", "time": 1, "note": 79, "velocity": 105, "channel": 0}, {"type": "note_off", "time": 129, "note": 79, "velocity": 105, "channel": 0}, {"type": "note_on", "time": 2, "note": 70, "velocity": 99, "channel": 0}, {"type": "note_off", "time": 253, "note": 70, "velocity": 99, "channel": 0}, {"type": "note_on", "time": 12, "note": 70, "velocity": 101, "channel": 0}, {"type": "note_off", "time": 104, "note": 70, "velocity": 101, "channel": 0}, {"type": "note_on", "time": 7, "note": 69, "velocity": 107, "channel": 0}, {"type": "note_off", "time": 59, "note": 69, "velocity": 107, "channel": 0}, {"type": "note_on", "time": 4, "note": 68, "velocity": 109, "channel": 0}, {"type": "note_off", "time": 122, "note": 68, "velocity": 109, "channel": 0}, {"type": "note_on", "time": 3, "note": 70, "velocity": 108, "channel": 0}, {"type": "note_off", "time": 58, "note": 70, "velocity": 108, "channel": 0}, {"type": "note_on", "time": 5, "note": 67, "velocity": 98, "channel": 0}, {"type": "note_off", "time": 43, "note": 67, "velocity": 98, "channel": 0}, {"type": "note_on", "time": 3, "note": 68, "velocity": 103, "channel": 0}, {"type": "note_off", "time": 29, "note": 68, "velocity": 103, "channel": 0}, {"type": "note_on", "time": 1, "note": 67, "velocity": 93, "channel": 0}, {"type": "note_off", "time": 54, "note": 67, "velocity": 93, "channel": 0}, {"type": "note_on", "time": 0, "note": 63, "velocity": 98, "channel": 0}, {"type": "note_off", "time": 69, "note": 63, "velocity": 98, "channel": 0}, {"type": "note_on", "time": 0, "note": 60, "velocity": 105, "channel": 0}, {"type": "note_off", "time": 64, "note": 60, "velocity": 105, "channel": 0}, {"type": "note_on", "time": 33, "note": 67, "velocity": 123, "channel": 0}, {"type": "note_off", "time": 77, "note": 67, "velocity": 123, "channel": 0}, {"type": "note_on", "time": 7, "note": 68, "velocity": 102, "channel": 0}, {"type": "note_off", "time": 35, "note": 68, "velocity": 102, "channel": 0}, {"type": "note_on", "time": 6, "note": 70, "velocity": 99, "channel": 0}, {"type": "note_off", "time": 29, "note": 70, "velocity": 99, "channel": 0}, {"type": "note_on", "time": 6, "note": 68, "velocity": 103, "channel": 0}, {"type": "note_off", "time": 34, "note": 68, "velocity": 103, "channel": 0}, {"type": "note_on", "time": 5, "note": 64, "velocity": 102, "channel": 0}, {"type": "note_off", "time": 65, "note": 64, "velocity": 102, "channel": 0}, {"type": "note_on", "time": 7, "note": 61, "velocity": 107, "channel": 0}, {"type": "note_off", "time": 67, "note": 61, "velocity": 107, "channel": 0}, {"type": "note_on", "time": 36, "note": 69, "velocity": 117, "channel": 0}, {"type": "note_off", "time": 83, "note": 69, "velocity": 117, "channel": 0}, {"type": "note_on", "time": 11, "note": 70, "velocity": 99, "channel": 0}, {"type": "note_off", "time": 41, "note": 70, "velocity": 99, "channel": 0}, {"type": "note_on", "time": 3, "note": 72, "velocity": 90, "channel": 0}, {"type": "note_off", "time": 32, "note": 72, "velocity": 90, "channel": 0}, {"type": "note_on", "time": 0, "note": 70, "velocity": 97, "channel": 0}, {"type": "note_off", "time": 41, "note": 70, "velocity": 97, "channel": 0}, {"type": "note_on", "time": 0, "note": 67, "velocity": 106, "channel": 0}, {"type": "note_off", "time": 64, "note": 67, "velocity": 106, "channel": 0}, {"type": "note_on", "time": 1, "note": 63, "velocity": 99, "channel": 0}, {"type": "note_off", "time": 54, "note": 63, "velocity": 99, "channel": 0}, {"type": "note_on", "time": 38, "note": 70, "velocity": 111, "channel": 0}, {"type": "note_off", "time": 74, "note": 70, "velocity": 111, "channel": 0}, {"type": "note_on", "time": 14, "note": 71, "velocity": 94, "channel": 0}, {"type": "note_off", "time": 29, "note": 71, "velocity": 94, "channel": 0}, {"type": "note_on", "time": 3, "note": 73, "velocity": 90, "channel": 0}, {"type": "note_off", "time": 23, "note": 73, "velocity": 90, "channel": 0}, {"type": "note_on", "time": 1, "note": 71, "velocity": 89, "channel": 0}, {"type": "note_off", "time": 24, "note": 71, "velocity": 89, "channel": 0}, {"type": "note_on", "time": 7, "note": 66, "velocity": 95, "channel": 0}, {"type": "note_off", "time": 82, "note": 66, "velocity": 95, "channel": 0}, {"type": "note_on", "time": 5, "note": 62, "velocity": 97, "channel": 0}, {"type": "note_off", "time": 111, "note": 62, "velocity": 97, "channel": 0}, {"type": "note_on", "time": 16, "note": 58, "velocity": 99, "channel": 0}, {"type": "note_off", "time": 80, "note": 58, "velocity": 99, "channel": 0}, {"type": "note_on", "time": 3, "note": 60, "velocity": 100, "channel": 0}, {"type": "note_off", "time": 304, "note": 60, "velocity": 100, "channel": 0}, {"type": "end_of_track", "time": 0}]]}