{"ticks_per_beat": 192, "tracks": [[{"type": "track_name", "name": "Melody", "time": 0}, {"type": "set_tempo", "tempo": 253164, "time": 0}, {"type": "key_signature", "key": "F", "time": 0}, {"type": "time_signature", "numerator": 4, "denominator": 4, "clocks_per_click": 24, "notated_32nd_notes_per_beat": 8, "time": 0}, {"type": "note_on", "time": 3553, "note": 62, "velocity": 94, "channel": 0}, {"type": "note_off", "time": 86, "note": 62, "velocity": 94, "channel": 0}, {"type": "note_on", "time": 13, "note": 62, "velocity": 88, "channel": 0}, {"type": "note_off", "time": 63, "note": 62, "velocity": 88, "channel": 0}, {"type": "note_on", "time": 120, "note": 62, "velocity": 92, "channel": 0}, {"type": "note_on", "time": 83, "note": 62, "velocity": 96, "channel": 0}, {"type": "note_off", "time": 0, "note": 62, "velocity": 92, "channel": 0}, {"type": "note_off", "time": 99, "note": 62, "velocity": 96, "channel": 0}, {"type": "note_on", "time": 0, "note": 62, "velocity": 99, "channel": 0}, {"type": "note_off", "time": 86, "note": 62, "velocity": 99, "channel": 0}, {"type": "note_on", "time": 6, "note": 62, "velocity": 108, "channel": 0}, {"type": "note_off", "time": 108, "note": 62, "velocity": 108, "channel": 0}, {"type": "note_on", "time": 0, "note": 62, "velocity": 109, "channel": 0}, {"type": "note_off", "time": 83, "note": 62, "velocity": 109, "channel": 0}, {"type": "note_on", "time": 0, "note": 62, "velocity": 107, "channel": 0}, {"type": "note_off", "time": 108, "note": 62, "velocity": 107, "channel": 0}, {"type": "note_on", "time": 0, "note": 62, "velocity": 103, "channel": 0}, {"type": "note_off", "time": 89, "note": 62, "velocity": 103, "channel": 0}, {"type": "note_on", "time": 0, "note": 62, "velocity": 116, "channel": 0}, {"type": "note_off", "time": 111, "note": 62, "velocity": 116, "channel": 0}, {"type": "note_on", "time": 0, "note": 62, "velocity": 114, "channel": 0}, {"type": "note_on", "time": 77, "note": 62, "velocity": 108, "channel": 0}, {"type": "note_off", "time": 0, "note": 62, "velocity": 114, "channel": 0}, {"type": "note_off", "time": 117, "note": 62, "velocity": 108, "channel": 0}, {"type": "note_on", "time": 0, "note": 62, "velocity": 108, "channel": 0}, {"type": "note_off", "time": 86, "note": 62, "velocity": 108, "channel": 0}, {"type": "note_on", "time": 0, "note": 62, "velocity": 115, "channel": 0}, {"type": "note_off", "time": 68, "note": 62, "velocity": 115, "channel": 0}, {"type": "note_on", "time": 115, "note": 65, "velocity": 97, "channel": 0}, {"type": "note_off", "time": 114, "note": 65, "velocity": 97, "channel": 0}, {"type": "note_on", "time": 198, "note": 69, "velocity": 115, "channel": 0}, {"type": "note_off", "time": 70, "note": 69, "velocity": 115, "channel": 0}, {"type": "note_on", "time": 193, "note": 74, "velocity": 112, "channel": 0}, {"type": "note_off", "time": 105, "note": 74, "velocity": 112, "channel": 0}, {"type": "note_on", "time": 206, "note": 69, "velocity": 115, "channel": 0}, {"type": "note_off", "time": 61, "note": 69, "velocity": 115, "channel": 0}, {"type": "note_on", "time": 7, "note": 65, "velocity": 98, "channel": 0}, {"type": "note_off", "time": 95, "note": 65, "velocity": 98, "channel": 0}, {"type": "note_on", "time": 6, "note": 62, "velocity": 94, "channel": 0}, {"type": "note_off", "time": 54, "note": 62, "velocity": 94, "channel": 0}, {"type": "note_on", "time": 174, "note": 62, "velocity": 100, "channel": 0}, {"type": "note_off", "time": 48, "note": 62, "velocity": 100, "channel": 0}, {"type": "note_on", "time": 8, "note": 65, "velocity": 104, "channel": 0}, {"type": "note_off", "time": 70, "note": 65, "velocity": 104, "channel": 0}, {"type": "note_on", "time": 123, "note": 69, "velocity": 117, "channel": 0}, {"type": "note_off", "time": 96, "note": 69, "velocity": 117, "channel": 0}, {"type": "note_on", "time": 96, "note": 65, "velocity": 104, "channel": 0}, {"type": "note_off", "time": 83, "note": 65, "velocity": 104, "channel": 0}, {"type": "note_on", "time": 110, "note": 68, "velocity": 111, "channel": 0}, {"type": "note_off", "time": 96, "note": 68, "velocity": 111, "channel": 0}, {"type": "note_on", "time": 31, "note": 64, "velocity": 88, "channel": 0}, {"type": "note_off", "time": 79, "note": 64, "velocity": 88, "channel": 0}, {"type": "note_on", "time": 96, "note": 67, "velocity": 112, "channel": 0}, {"type": "note_off", "time": 96, "note": 67, "velocity": 112, "channel": 0}, {"type": "note_on", "time": 88, "note": 64, "velocity": 92, "channel": 0}, {"type": "note_off", "time": 83, "note": 64, "velocity": 92, "channel": 0}, {"type": "note_on", "time": 180, "note": 63, "velocity": 91, "channel": 0}, {"type": "note_off", "time": 105, "note": 63, "velocity": 91, "channel": 0}, {"type": "note_on", "time": 39, "note": 65, "velocity": 84, "channel": 0}, {"type": "note_off", "time": 74, "note": 65, "velocity": 84, "channel": 0}, {"type": "note_on", "time": 677, "note": 60, "velocity": 92, "channel": 0}, {"type": "note_off", "time": 44, "note": 60, "velocity": 92, "channel": 0}, {"type": "note_on", "time": 0, "note": 59, "velocity": 109, "channel": 0}, {"type": "note_off", "time": 35, "note": 59, "velocity": 109, "channel": 0}, {"type": "note_on", "time": 12, "note": 58, "velocity": 83, "channel": 0}, {"type": "note_off", "time": 69, "note": 58, "velocity": 83, "channel": 0}, {"type": "note_on", "time": 0, "note": 64, "velocity": 103, "channel": 0}, {"type": "note_off", "time": 79, "note": 64, "velocity": 103, "channel": 0}, {"type": "note_on", "time": 13, "note": 65, "velocity": 106, "channel": 0}, {"type": "note_off", "time": 101, "note": 65, "velocity": 106, "channel": 0}, {"type": "note_on", "time": 79, "note": 72, "velocity": 119, "channel": 0}, {"type": "note_off", "time": 92, "note": 72, "velocity": 119, "channel": 0}, {"type": "note_on", "time": 44, "note": 69, "velocity": 118, "channel": 0}, {"type": "note_off", "time": 62, "note": 69, "velocity": 118, "channel": 0}, {"type": "note_on", "time": 3, "note": 70, "velocity": 109, "channel": 0}, {"type": "note_off", "time": 101, "note": 70, "velocity": 109, "channel": 0}, {"type": "note_on", "time": 1, "note": 72, "velocity": 90, "channel": 0}, {"type": "note_off", "time": 80, "note": 72, "velocity": 90, "channel": 0}, {"type": "note_on", "time": 14, "note": 74, "velocity": 113, "channel": 0}, {"type": "note_off", "time": 110, "note": 74, "velocity": 113, "channel": 0}, {"type": "note_on", "time": 13, "note": 72, "velocity": 115, "channel": 0}, {"type": "note_off", "time": 61, "note": 72, "velocity": 115, "channel": 0}, {"type": "note_on", "time": 132, "note": 60, "velocity": 99, "channel": 0}, {"type": "note_off", "time": 57, "note": 60, "velocity": 99, "channel": 0}, {"type": "note_on", "time": 101, "note": 66, "velocity": 103, "channel": 0}, {"type": "note_off", "time": 39, "note": 66, "velocity": 103, "channel": 0}, {"type": "note_on", "time": 3, "note": 67, "velocity": 99, "channel": 0}, {"type": "note_off", "time": 59, "note": 67, "velocity": 99, "channel": 0}, {"type": "note_on", "time": 7, "note": 68, "velocity": 92, "channel": 0}, {"type": "note_off", "time": 57, "note": 68, "velocity": 92, "channel": 0}, {"type": "note_on", "time": 4, "note": 67, "velocity": 91, "channel": 0}, {"type": "note_off", "time": 49, "note": 67, "velocity": 91, "channel": 0}, {"type": "note_on", "time": 6, "note": 65, "velocity": 95, "channel": 0}, {"type": "note_off", "time": 61, "note": 65, "velocity": 95, "channel": 0}, {"type": "note_on", "time": 0, "note": 64, "velocity": 93, "channel": 0}, {"type": "note_off", "time": 96, "note": 64, "velocity": 93, "channel": 0}, {"type": "note_on", "time": 8, "note": 62, "velocity": 96, "channel": 0}, {"type": "note_off", "time": 79, "note": 62, "velocity": 96, "channel": 0}, {"type": "note_on", "time": 16, "note": 60, "velocity": 94, "channel": 0}, {"type": "note_off", "time": 102, "note": 60, "velocity": 94, "channel": 0}, {"type": "note_on", "time": 83, "note": 58, "velocity": 98, "channel": 0}, {"type": "note_off", "time": 83, "note": 58, "velocity": 98, "channel": 0}, {"type": "note_on", "time": 0, "note": 60, "velocity": 96, "channel": 0}, {"type": "note_off", "time": 39, "note": 60, "velocity": 96, "channel": 0}, {"type": "note_on", "time": 0, "note": 58, "velocity": 93, "channel": 0}, {"type": "note_off", "time": 60, "note": 58, "velocity": 93, "channel": 0}, {"type": "note_on", "time": 0, "note": 57, "velocity": 85, "channel": 0}, {"type": "note_off", "time": 82, "note": 57, "velocity": 85, "channel": 0}, {"type": "note_on", "time": 11, "note": 60, "velocity": 89, "channel": 0}, {"type": "note_off", "time": 101, "note": 60, "velocity": 89, "channel": 0}, {"type": "note_on", "time": 79, "note": 64, "velocity": 86, "channel": 0}, {"type": "note_on", "time": 96, "note": 67, "velocity": 113, "channel": 0}, {"type": "note_off", "time": 0, "note": 64, "velocity": 86, "channel": 0}, {"type": "note_off", "time": 96, "note": 67, "velocity": 113, "channel": 0}, {"type": "note_on", "time": 484, "note": 67, "velocity": 114, "channel": 0}, {"type": "note_off", "time": 101, "note": 67, "velocity": 114, "channel": 0}, {"type": "note_on", "time": 0, "note": 68, "velocity": 111, "channel": 0}, {"type": "note_off", "time": 83, "note": 68, "velocity": 111, "channel": 0}, {"type": "note_on", "time": 0, "note": 66, "velocity": 99, "channel": 0}, {"type": "note_off", "time": 92, "note": 66, "velocity": 99, "channel": 0}, {"type": "note_on", "time": 0, "note": 61, "velocity": 97, "channel": 0}, {"type": "note_off", "time": 88, "note": 61, "velocity": 97, "channel": 0}, {"type": "note_on", "time": 3, "note": 58, "velocity": 99, "channel": 0}, {"type": "note_off", "time": 85, "note": 58, "velocity": 99, "channel": 0}, {"type": "note_on", "time": 99, "note": 66, "velocity": 102, "channel": 0}, {"type": "note_off", "time": 99, "note": 66, "velocity": 102, "channel": 0}, {"type": "note_on", "time": 3, "note": 67, "velocity": 104, "channel": 0}, {"type": "note_off", "time": 101, "note": 67, "velocity": 104, "channel": 0}, {"type": "note_on", "time": 4, "note": 62, "velocity": 87, "channel": 0}, {"type": "note_off", "time": 96, "note": 62, "velocity": 87, "channel": 0}, {"type": "note_on", "time": 0, "note": 60, "velocity": 93, "channel": 0}, {"type": "note_off", "time": 84, "note": 60, "velocity": 93, "channel": 0}, {"type": "note_on", "time": 0, "note": 58, "velocity": 91, "channel": 0}, {"type": "note_off", "time": 92, "note": 58, "velocity": 91, "channel": 0}, {"type": "note_on", "time": 104, "note": 67, "velocity": 113, "channel": 0}, {"type": "note_off", "time": 92, "note": 67, "velocity": 113, "channel": 0}, {"type": "note_on", "time": 0, "note": 68, "velocity": 108, "channel": 0}, {"type": "note_off", "time": 105, "note": 68, "velocity": 108, "channel": 0}, {"type": "note_on", "time": 0, "note": 64, "velocity": 94, "channel": 0}, {"type": "note_off", "time": 105, "note": 64, "velocity": 94, "channel": 0}, {"type": "note_on", "time": 0, "note": 61, "velocity": 100, "channel": 0}, {"type": "note_off", "time": 83, "note": 61, "velocity": 100, "channel": 0}, {"type": "note_on", "time": 8, "note": 58, "velocity": 97, "channel": 0}, {"type": "note_off", "time": 88, "note": 58, "velocity": 97, "channel": 0}, {"type": "note_on", "time": 282, "note": 58, "velocity": 100, "channel": 0}, {"type": "note_off", "time": 92, "note": 58, "velocity": 100, "channel": 0}, {"type": "note_on", "time": 0, "note": 59, "velocity": 93, "channel": 0}, {"type": "note_off", "time": 105, "note": 59, "velocity": 93, "channel": 0}, {"type": "note_on", "time": 0, "note": 60, "velocity": 93, "channel": 0}, {"type": "note_off", "time": 92, "note": 60, "velocity": 93, "channel": 0}, {"type": "note_on", "time": 0, "note": 67, "velocity": 104, "channel": 0}, {"type": "note_off", "time": 92, "note": 67, "velocity": 104, "channel": 0}, {"type": "note_on", "time": 0, "note": 64, "velocity": 91, "channel": 0}, {"type": "note_off", "time": 101, "note": 64, "velocity": 91, "channel": 0}, {"type": "note_on", "time": 4, "note": 60, "velocity": 85, "channel": 0}, {"type": "note_off", "time": 92, "note": 60, "velocity": 85, "channel": 0}, {"type": "note_on", "time": 3, "note": 65, "velocity": 96, "channel": 0}, {"type": "note_off", "time": 111, "note": 65, "velocity": 96, "channel": 0}, {"type": "note_on", "time": 63, "note": 65, "velocity": 86, "channel": 0}, {"type": "note_off", "time": 286, "note": 65, "velocity": 86, "channel": 0}, {"type": "note_on", "time": 179, "note": 51, "velocity": 105, "channel": 0}, {"type": "note_off", "time": 36, "note": 51, "velocity": 105, "channel": 0}, {"type": "note_on", "time": 85, "note": 62, "velocity": 98, "channel": 0}, {"type": "note_off", "time": 88, "note": 62, "velocity": 98, "channel": 0}, {"type": "note_on", "time": 0, "note": 61, "velocity": 97, "channel": 0}, {"type": "note_off", "time": 101, "note": 61, "velocity": 97, "channel": 0}, {"type": "note_on", "time": 0, "note": 60, "velocity": 89, "channel": 0}, {"type": "note_off", "time": 96, "note": 60, "velocity": 89, "channel": 0}, {"type": "note_on", "time": 124, "note": 53, "velocity": 92, "channel": 0}, {"type": "note_off", "time": 79, "note": 53, "velocity": 92, "channel": 0}, {"type": "note_on", "time": 13, "note": 60, "velocity": 84, "channel": 0}, {"type": "note_off", "time": 59, "note": 60, "velocity": 84, "channel": 0}, {"type": "note_on", "time": 23, "note": 63, "velocity": 101, "channel": 0}, {"type": "note_off", "time": 96, "note": 63, "velocity": 101, "channel": 0}, {"type": "note_on", "time": 0, "note": 67, "velocity": 111, "channel": 0}, {"type": "note_on", "time": 70, "note": 57, "velocity": 100, "channel": 0}, {"type": "note_off", "time": 0, "note": 67, "velocity": 111, "channel": 0}, {"type": "note_off", "time": 88, "note": 57, "velocity": 100, "channel": 0}, {"type": "note_on", "time": 9, "note": 60, "velocity": 87, "channel": 0}, {"type": "note_off", "time": 35, "note": 60, "velocity": 87, "channel": 0}, {"type": "note_on", "time": 56, "note": 65, "velocity": 105, "channel": 0}, {"type": "note_off", "time": 83, "note": 65, "velocity": 105, "channel": 0}, {"type": "note_on", "time": 0, "note": 64, "velocity": 98, "channel": 0}, {"type": "note_off", "time": 105, "note": 64, "velocity": 98, "channel": 0}, {"type": "note_on", "time": 8, "note": 63, "velocity": 88, "channel": 0}, {"type": "note_off", "time": 88, "note": 63, "velocity": 88, "channel": 0}, {"type": "note_on", "time": 0, "note": 60, "velocity": 91, "channel": 0}, {"type": "note_off", "time": 96, "note": 60, "velocity": 91, "channel": 0}, {"type": "note_on", "time": 0, "note": 63, "velocity": 102, "channel": 0}, {"type": "note_off", "time": 105, "note": 63, "velocity": 102, "channel": 0}, {"type": "note_on", "time": 79, "note": 60, "velocity": 98, "channel": 0}, {"type": "note_off", "time": 101, "note": 60, "velocity": 98, "channel": 0}, {"type": "note_on", "time": 225, "note": 63, "velocity": 100, "channel": 0}, {"type": "note_off", "time": 79, "note": 63, "velocity": 100, "channel": 0}, {"type": "note_on", "time": 3, "note": 61, "velocity": 86, "channel": 0}, {"type": "note_off", "time": 94, "note": 61, "velocity": 86, "channel": 0}, {"type": "note_on", "time": 14, "note": 60, "velocity": 78, "channel": 0}, {"type": "note_off", "time": 49, "note": 60, "velocity": 78, "channel": 0}, {"type": "note_on", "time": 35, "note": 67, "velocity": 114, "channel": 0}, {"type": "note_off", "time": 61, "note": 67, "velocity": 114, "channel": 0}, {"type": "note_on", "time": 22, "note": 64, "velocity": 96, "channel": 0}, {"type": "note_off", "time": 92, "note": 64, "velocity": 96, "channel": 0}, {"type": "note_on", "time": 0, "note": 65, "velocity": 94, "channel": 0}, {"type": "note_off", "time": 105, "note": 65, "velocity": 94, "channel": 0}, {"type": "note_on", "time": 0, "note": 72, "velocity": 113, "channel": 0}, {"type": "note_off", "time": 79, "note": 72, "velocity": 113, "channel": 0}, {"type": "note_on", "time": 0, "note": 69, "velocity": 95, "channel": 0}, {"type": "note_off", "time": 101, "note": 69, "velocity": 95, "channel": 0}, {"type": "note_on", "time": 0, "note": 70, "velocity": 87, "channel": 0}, {"type": "note_off", "time": 88, "note": 70, "velocity": 87, "channel": 0}, {"type": "note_on", "time": 10, "note": 75, "velocity": 109, "channel": 0}, {"type": "note_off", "time": 105, "note": 75, "velocity": 109, "channel": 0}, {"type": "note_on", "time": 9, "note": 72, "velocity": 114, "channel": 0}, {"type": "note_off", "time": 77, "note": 72, "velocity": 114, "channel": 0}, {"type": "note_on", "time": 17, "note": 73, "velocity": 109, "channel": 0}, {"type": "note_off", "time": 96, "note": 73, "velocity": 109, "channel": 0}, {"type": "note_on", "time": 209, "note": 72, "velocity": 116, "channel": 0}, {"type": "note_off", "time": 46, "note": 72, "velocity": 116, "channel": 0}, {"type": "note_on", "time": 17, "note": 73, "velocity": 108, "channel": 0}, {"type": "note_off", "time": 193, "note": 73, "velocity": 108, "channel": 0}, {"type": "note_on", "time": 3, "note": 72, "velocity": 108, "channel": 0}, {"type": "note_off", "time": 105, "note": 72, "velocity": 108, "channel": 0}, {"type": "note_on", "time": 183, "note": 70, "velocity": 84, "channel": 0}, {"type": "note_off", "time": 23, "note": 70, "velocity": 84, "channel": 0}, {"type": "note_on", "time": 16, "note": 71, "velocity": 117, "channel": 0}, {"type": "note_off", "time": 72, "note": 71, "velocity": 117, "channel": 0}, {"type": "note_on", "time": 9, "note": 72, "velocity": 118, "channel": 0}, {"type": "note_off", "time": 74, "note": 72, "velocity": 118, "channel": 0}, {"type": "note_on", "time": 0, "note": 73, "velocity": 109, "channel": 0}, {"type": "note_off", "time": 44, "note": 73, "velocity": 109, "channel": 0}, {"type": "note_on", "time": 0, "note": 72, "velocity": 113, "channel": 0}, {"type": "note_off", "time": 57, "note": 72, "velocity": 113, "channel": 0}, {"type": "note_on", "time": 0, "note": 70, "velocity": 105, "channel": 0}, {"type": "note_off", "time": 118, "note": 70, "velocity": 105, "channel": 0}, {"type": "note_on", "time": 192, "note": 70, "velocity": 107, "channel": 0}, {"type": "note_off", "time": 43, "note": 70, "velocity": 107, "channel": 0}, {"type": "note_on", "time": 0, "note": 71, "velocity": 114, "channel": 0}, {"type": "note_off", "time": 41, "note": 71, "velocity": 114, "channel": 0}, {"type": "note_on", "time": 0, "note": 72, "velocity": 109, "channel": 0}, {"type": "note_off", "time": 61, "note": 72, "velocity": 109, "channel": 0}, {"type": "note_on", "time": 0, "note": 71, "velocity": 109, "channel": 0}, {"type": "note_off", "time": 57, "note": 71, "velocity": 109, "channel": 0}, {"type": "note_on", "time": 0, "note": 70, "velocity": 99, "channel": 0}, {"type": "note_off", "time": 70, "note": 70, "velocity": 99, "channel": 0}, {"type": "note_on", "time": 0, "note": 71, "velocity": 110, "channel": 0}, {"type": "note_off", "time": 92, "note": 71, "velocity": 110, "channel": 0}, {"type": "note_on", "time": 92, "note": 69, "velocity": 115, "channel": 0}, {"type": "note_off", "time": 88, "note": 69, "velocity": 115, "channel": 0}, {"type": "note_on", "time": 110, "note": 70, "velocity": 109, "channel": 0}, {"type": "note_off", "time": 96, "note": 70, "velocity": 109, "channel": 0}, {"type": "note_on", "time": 0, "note": 66, "velocity": 99, "channel": 0}, {"type": "note_off", "time": 88, "note": 66, "velocity": 99, "channel": 0}, {"type": "note_on", "time": 0, "note": 63, "velocity": 89, "channel": 0}, {"type": "note_off", "time": 110, "note": 63, "velocity": 89, "channel": 0}, {"type": "note_on", "time": 7, "note": 60, "velocity": 85, "channel": 0}, {"type": "note_off", "time": 57, "note": 60, "velocity": 85, "channel": 0}, {"type": "note_on", "time": 27, "note": 67, "velocity": 110, "channel": 0}, {"type": "note_off", "time": 79, "note": 67, "velocity": 110, "channel": 0}, {"type": "note_on", "time": 0, "note": 68, "velocity": 105, "channel": 0}, {"type": "note_off", "time": 101, "note": 68, "velocity": 105, "channel": 0}, {"type": "note_on", "time": 4, "note": 64, "velocity": 98, "channel": 0}, {"type": "note_off", "time": 101, "note": 64, "velocity": 98, "channel": 0}, {"type": "note_on", "time": 0, "note": 61, "velocity": 96, "channel": 0}, {"type": "note_off", "time": 103, "note": 61, "velocity": 96, "channel": 0}, {"type": "note_on", "time": 0, "note": 58, "velocity": 101, "channel": 0}, {"type": "note_off", "time": 66, "note": 58, "velocity": 101, "channel": 0}, {"type": "note_on", "time": 214, "note": 64, "velocity": 103, "channel": 0}, {"type": "note_off", "time": 49, "note": 64, "velocity": 103, "channel": 0}, {"type": "note_on", "time": 9, "note": 65, "velocity": 86, "channel": 0}, {"type": "note_off", "time": 330, "note": 65, "velocity": 86, "channel": 0}, {"type": "note_on", "time": 218, "note": 63, "velocity": 108, "channel": 0}, {"type": "note_off", "time": 69, "note": 63, "velocity": 108, "channel": 0}, {"type": "note_on", "time": 12, "note": 65, "velocity": 104, "channel": 0}, {"type": "note_off", "time": 167, "note": 65, "velocity": 104, "channel": 0}, {"type": "note_on", "time": 0, "note": 42, "velocity": 80, "channel": 0}, {"type": "note_off", "time": 0, "note": 42, "velocity": 80, "channel": 0}, {"type": "note_on", "time": 378, "note": 65, "velocity": 108, "channel": 0}, {"type": "note_off", "time": 167, "note": 65, "velocity": 108, "channel": 0}, {"type": "note_on", "time": 83, "note": 64, "velocity": 102, "channel": 0}, {"type": "note_off", "time": 83, "note": 64, "velocity": 102, "channel": 0}, {"type": "note_on", "time": 79, "note": 65, "velocity": 102, "channel": 0}, {"type": "note_off", "time": 132, "note": 65, "velocity": 102, "channel": 0}, {"type": "note_on", "time": 83, "note": 64, "velocity": 101, "channel": 0}, {"type": "note_off", "time": 96, "note": 64, "velocity": 101, "channel": 0}, {"type": "note_on", "time": 83, "note": 65, "velocity": 102, "channel": 0}, {"type": "note_off", "time": 136, "note": 65, "velocity": 102, "channel": 0}, {"type": "note_on", "time": 61, "note": 64, "velocity": 103, "channel": 0}, {"type": "note_off", "time": 96, "note": 64, "velocity": 103, "channel": 0}, {"type": "note_on", "time": 0, "note": 65, "velocity": 98, "channel": 0}, {"type": "note_off", "time": 101, "note": 65, "velocity": 98, "channel": 0}, {"type": "note_on", "time": 92, "note": 64, "velocity": 92, "channel": 0}, {"type": "note_off", "time": 35, "note": 64, "velocity": 92, "channel": 0}, {"type": "note_on", "time": 22, "note": 65, "velocity": 96, "channel": 0}, {"type": "note_off", "time": 180, "note": 65, "velocity": 96, "channel": 0}, {"type": "note_on", "time": 48, "note": 64, "velocity": 105, "channel": 0}, {"type": "note_off", "time": 96, "note": 64, "velocity": 105, "channel": 0}, {"type": "note_on", "time": 4, "note": 65, "velocity": 96, "channel": 0}, {"type": "note_off", "time": 123, "note": 65, "velocity": 96, "channel": 0}, {"type": "note_on", "time": 96, "note": 64, "velocity": 90, "channel": 0}, {"type": "note_off", "time": 83, "note": 64, "velocity": 90, "channel": 0}, {"type": "note_on", "time": 0, "note": 65, "velocity": 93, "channel": 0}, {"type": "note_off", "time": 105, "note": 65, "velocity": 93, "channel": 0}, {"type": "note_on", "time": 85, "note": 64, "velocity": 107, "channel": 0}, {"type": "note_off", "time": 79, "note": 64, "velocity": 107, "channel": 0}, {"type": "note_on", "time": 19, "note": 65, "velocity": 100, "channel": 0}, {"type": "note_off", "time": 374, "note": 65, "velocity": 100, "channel": 0}, {"type": "note_on", "time": 18, "note": 64, "velocity": 98, "channel": 0}, {"type": "note_off", "time": 66, "note": 64, "velocity": 98, "channel": 0}, {"type": "note_on", "time": 12, "note": 65, "velocity": 94, "channel": 0}, {"type": "note_off", "time": 180, "note": 65, "velocity": 94, "channel": 0}, {"type": "note_on", "time": 8, "note": 62, "velocity": 95, "channel": 0}, {"type": "note_off", "time": 79, "note": 62, "velocity": 95, "channel": 0}, {"type": "note_on", "time": 8, "note": 64, "velocity": 95, "channel": 0}, {"type": "note_off", "time": 100, "note": 64, "velocity": 95, "channel": 0}, {"type": "note_on", "time": 0, "note": 60, "velocity": 94, "channel": 0}, {"type": "note_off", "time": 92, "note": 60, "velocity": 94, "channel": 0}, {"type": "note_on", "time": 0, "note": 62, "velocity": 93, "channel": 0}, {"type": "note_off", "time": 83, "note": 62, "velocity": 93, "channel": 0}, {"type": "note_on", "time": 14, "note": 58, "velocity": 100, "channel": 0}, {"type": "note_off", "time": 81, "note": 58, "velocity": 100, "channel": 0}, {"type": "note_on", "time": 6, "note": 60, "velocity": 95, "channel": 0}, {"type": "note_off", "time": 96, "note": 60, "velocity": 95, "channel": 0}, {"type": "note_on", "time": 7, "note": 57, "velocity": 92, "channel": 0}, {"type": "note_off", "time": 184, "note": 57, "velocity": 92, "channel": 0}, {"type": "note_on", "time": 122, "note": 67, "velocity": 114, "channel": 0}, {"type": "note_off", "time": 41, "note": 67, "velocity": 114, "channel": 0}, {"type": "note_on", "time": 13, "note": 68, "velocity": 109, "channel": 0}, {"type": "note_off", "time": 114, "note": 68, "velocity": 109, "channel": 0}, {"type": "note_on", "time": 0, "note": 63, "velocity": 99, "channel": 0}, {"type": "note_off", "time": 41, "note": 63, "velocity": 99, "channel": 0}, {"type": "note_on", "time": 0, "note": 60, "velocity": 99, "channel": 0}, {"type": "note_off", "time": 39, "note": 60, "velocity": 99, "channel": 0}, {"type": "note_on", "time": 2, "note": 56, "velocity": 93, "channel": 0}, {"type": "note_off", "time": 118, "note": 56, "velocity": 93, "channel": 0}, {"type": "note_on", "time": 17, "note": 54, "velocity": 91, "channel": 0}, {"type": "note_off", "time": 49, "note": 54, "velocity": 91, "channel": 0}, {"type": "note_on", "time": 6, "note": 55, "velocity": 92, "channel": 0}, {"type": "note_off", "time": 96, "note": 55, "velocity": 92, "channel": 0}, {"type": "note_on", "time": 104, "note": 55, "velocity": 92, "channel": 0}, {"type": "note_off", "time": 104, "note": 55, "velocity": 92, "channel": 0}, {"type": "note_on", "time": 0, "note": 65, "velocity": 103, "channel": 0}, {"type": "note_off", "time": 84, "note": 65, "velocity": 103, "channel": 0}, {"type": "note_on", "time": 0, "note": 66, "velocity": 96, "channel": 0}, {"type": "note_off", "time": 74, "note": 66, "velocity": 96, "channel": 0}, {"type": "note_on", "time": 37, "note": 61, "velocity": 100, "channel": 0}, {"type": "note_off", "time": 42, "note": 61, "velocity": 100, "channel": 0}, {"type": "note_on", "time": 0, "note": 58, "velocity": 103, "channel": 0}, {"type": "note_on", "time": 46, "note": 54, "velocity": 95, "channel": 0}, {"type": "note_off", "time": 0, "note": 58, "velocity": 103, "channel": 0}, {"type": "note_off", "time": 104, "note": 54, "velocity": 95, "channel": 0}, {"type": "note_on", "time": 469, "note": 60, "velocity": 118, "channel": 0}, {"type": "note_off", "time": 133, "note": 60, "velocity": 118, "channel": 0}, {"type": "note_on", "time": 4, "note": 60, "velocity": 116, "channel": 0}, {"type": "note_off", "time": 61, "note": 60, "velocity": 116, "channel": 0}, {"type": "note_on", "time": 9, "note": 60, "velocity": 99, "channel": 0}, {"type": "note_off", "time": 140, "note": 60, "velocity": 99, "channel": 0}, {"type": "note_on", "time": 65, "note": 60, "velocity": 106, "channel": 0}, {"type": "note_off", "time": 208, "note": 60, "velocity": 106, "channel": 0}, {"type": "note_on", "time": 14, "note": 60, "velocity": 92, "channel": 0}, {"type": "note_off", "time": 82, "note": 60, "velocity": 92, "channel": 0}, {"type": "note_on", "time": 8, "note": 60, "velocity": 90, "channel": 0}, {"type": "note_off", "time": 137, "note": 60, "velocity": 90, "channel": 0}, {"type": "note_on", "time": 7, "note": 60, "velocity": 89, "channel": 0}, {"type": "note_off", "time": 77, "note": 60, "velocity": 89, "channel": 0}, {"type": "note_on", "time": 5, "note": 60, "velocity": 99, "channel": 0}, {"type": "note_off", "time": 188, "note": 60, "velocity": 99, "channel": 0}, {"type": "end_of_track", "time": 0}]]}