{"ticks_per_beat": 192, "tracks": [[{"type": "track_name", "name": "Melody", "time": 0}, {"type": "set_tempo", "tempo": 277777, "time": 0}, {"type": "key_signature", "key": "F", "time": 0}, {"type": "time_signature", "numerator": 4, "denominator": 4, "clocks_per_click": 24, "notated_32nd_notes_per_beat": 8, "time": 0}, {"type": "note_on", "time": 2538, "note": 55, "velocity": 95, "channel": 0}, {"type": "note_off", "time": 62, "note": 55, "velocity": 95, "channel": 0}, {"type": "note_on", "time": 11, "note": 58, "velocity": 98, "channel": 0}, {"type": "note_off", "time": 104, "note": 58, "velocity": 98, "channel": 0}, {"type": "note_on", "time": 2, "note": 55, "velocity": 97, "channel": 0}, {"type": "note_off", "time": 95, "note": 55, "velocity": 97, "channel": 0}, {"type": "note_on", "time": 7, "note": 56, "velocity": 96, "channel": 0}, {"type": "note_off", "time": 78, "note": 56, "velocity": 96, "channel": 0}, {"type": "note_on", "time": 7, "note": 58, "velocity": 101, "channel": 0}, {"type": "note_off", "time": 126, "note": 58, "velocity": 101, "channel": 0}, {"type": "note_on", "time": 2, "note": 59, "velocity": 95, "channel": 0}, {"type": "note_off", "time": 87, "note": 59, "velocity": 95, "channel": 0}, {"type": "note_on", "time": 5, "note": 63, "velocity": 95, "channel": 0}, {"type": "note_off", "time": 53, "note": 63, "velocity": 95, "channel": 0}, {"type": "note_on", "time": 11, "note": 69, "velocity": 123, "channel": 0}, {"type": "note_off", "time": 112, "note": 69, "velocity": 123, "channel": 0}, {"type": "note_on", "time": 16, "note": 67, "velocity": 114, "channel": 0}, {"type": "note_off", "time": 87, "note": 67, "velocity": 114, "channel": 0}, {"type": "note_on", "time": 0, "note": 65, "velocity": 101, "channel": 0}, {"type": "note_off", "time": 84, "note": 65, "velocity": 101, "channel": 0}, {"type": "note_on", "time": 28, "note": 60, "velocity": 100, "channel": 0}, {"type": "note_off", "time": 67, "note": 60, "velocity": 100, "channel": 0}, {"type": "note_on", "time": 11, "note": 64, "velocity": 111, "channel": 0}, {"type": "note_off", "time": 81, "note": 64, "velocity": 111, "channel": 0}, {"type": "note_on", "time": 19, "note": 61, "velocity": 102, "channel": 0}, {"type": "note_off", "time": 81, "note": 61, "velocity": 102, "channel": 0}, {"type": "note_on", "time": 11, "note": 60, "velocity": 101, "channel": 0}, {"type": "note_off", "time": 81, "note": 60, "velocity": 101, "channel": 0}, {"type": "note_on", "time": 19, "note": 58, "velocity": 106, "channel": 0}, {"type": "note_off", "time": 67, "note": 58, "velocity": 106, "channel": 0}, {"type": "note_on", "time": 9, "note": 57, "velocity": 104, "channel": 0}, {"type": "note_off", "time": 91, "note": 57, "velocity": 104, "channel": 0}, {"type": "note_on", "time": 19, "note": 60, "velocity": 101, "channel": 0}, {"type": "note_off", "time": 76, "note": 60, "velocity": 101, "channel": 0}, {"type": "note_on", "time": 5, "note": 62, "velocity": 108, "channel": 0}, {"type": "note_off", "time": 95, "note": 62, "velocity": 108, "channel": 0}, {"type": "note_on", "time": 19, "note": 60, "velocity": 100, "channel": 0}, {"type": "note_off", "time": 67, "note": 60, "velocity": 100, "channel": 0}, {"type": "note_on", "time": 11, "note": 67, "velocity": 115, "channel": 0}, {"type": "note_off", "time": 101, "note": 67, "velocity": 115, "channel": 0}, {"type": "note_on", "time": 16, "note": 64, "velocity": 113, "channel": 0}, {"type": "note_off", "time": 62, "note": 64, "velocity": 113, "channel": 0}, {"type": "note_on", "time": 8, "note": 65, "velocity": 113, "channel": 0}, {"type": "note_off", "time": 90, "note": 65, "velocity": 113, "channel": 0}, {"type": "note_on", "time": 25, "note": 67, "velocity": 113, "channel": 0}, {"type": "note_off", "time": 81, "note": 67, "velocity": 113, "channel": 0}, {"type": "note_on", "time": 14, "note": 68, "velocity": 115, "channel": 0}, {"type": "note_off", "time": 76, "note": 68, "velocity": 115, "channel": 0}, {"type": "note_on", "time": 14, "note": 69, "velocity": 121, "channel": 0}, {"type": "note_off", "time": 98, "note": 69, "velocity": 121, "channel": 0}, {"type": "note_on", "time": 11, "note": 70, "velocity": 112, "channel": 0}, {"type": "note_off", "time": 64, "note": 70, "velocity": 112, "channel": 0}, {"type": "note_on", "time": 8, "note": 71, "velocity": 114, "channel": 0}, {"type": "note_off", "time": 76, "note": 71, "velocity": 114, "channel": 0}, {"type": "note_on", "time": 22, "note": 72, "velocity": 109, "channel": 0}, {"type": "note_off", "time": 78, "note": 72, "velocity": 109, "channel": 0}, {"type": "note_on", "time": 19, "note": 71, "velocity": 109, "channel": 0}, {"type": "note_off", "time": 90, "note": 71, "velocity": 109, "channel": 0}, {"type": "note_on", "time": 16, "note": 70, "velocity": 107, "channel": 0}, {"type": "note_off", "time": 78, "note": 70, "velocity": 107, "channel": 0}, {"type": "note_on", "time": 11, "note": 69, "velocity": 116, "channel": 0}, {"type": "note_off", "time": 95, "note": 69, "velocity": 116, "channel": 0}, {"type": "note_on", "time": 11, "note": 67, "velocity": 107, "channel": 0}, {"type": "note_off", "time": 73, "note": 67, "velocity": 107, "channel": 0}, {"type": "note_on", "time": 12, "note": 65, "velocity": 109, "channel": 0}, {"type": "note_off", "time": 74, "note": 65, "velocity": 109, "channel": 0}, {"type": "note_on", "time": 8, "note": 64, "velocity": 108, "channel": 0}, {"type": "note_off", "time": 84, "note": 64, "velocity": 108, "channel": 0}, {"type": "note_on", "time": 14, "note": 62, "velocity": 96, "channel": 0}, {"type": "note_off", "time": 90, "note": 62, "velocity": 96, "channel": 0}, {"type": "note_on", "time": 22, "note": 61, "velocity": 98, "channel": 0}, {"type": "note_on", "time": 82, "note": 64, "velocity": 108, "channel": 0}, {"type": "note_off", "time": 0, "note": 61, "velocity": 98, "channel": 0}, {"type": "note_off", "time": 66, "note": 64, "velocity": 108, "channel": 0}, {"type": "note_on", "time": 66, "note": 67, "velocity": 93, "channel": 0}, {"type": "note_off", "time": 56, "note": 67, "velocity": 93, "channel": 0}, {"type": "note_on", "time": 6, "note": 69, "velocity": 93, "channel": 0}, {"type": "note_off", "time": 68, "note": 69, "velocity": 93, "channel": 0}, {"type": "note_on", "time": 28, "note": 72, "velocity": 111, "channel": 0}, {"type": "note_off", "time": 74, "note": 72, "velocity": 111, "channel": 0}, {"type": "note_on", "time": 4, "note": 74, "velocity": 86, "channel": 0}, {"type": "note_off", "time": 22, "note": 74, "velocity": 86, "channel": 0}, {"type": "note_on", "time": 16, "note": 72, "velocity": 106, "channel": 0}, {"type": "note_off", "time": 44, "note": 72, "velocity": 106, "channel": 0}, {"type": "note_on", "time": 10, "note": 70, "velocity": 105, "channel": 0}, {"type": "note_off", "time": 76, "note": 70, "velocity": 105, "channel": 0}, {"type": "note_on", "time": 12, "note": 72, "velocity": 96, "channel": 0}, {"type": "note_off", "time": 26, "note": 72, "velocity": 96, "channel": 0}, {"type": "note_on", "time": 14, "note": 70, "velocity": 102, "channel": 0}, {"type": "note_off", "time": 52, "note": 70, "velocity": 102, "channel": 0}, {"type": "note_on", "time": 2, "note": 69, "velocity": 110, "channel": 0}, {"type": "note_off", "time": 108, "note": 69, "velocity": 110, "channel": 0}, {"type": "note_on", "time": 16, "note": 65, "velocity": 108, "channel": 0}, {"type": "note_off", "time": 78, "note": 65, "velocity": 108, "channel": 0}, {"type": "note_on", "time": 2, "note": 61, "velocity": 97, "channel": 0}, {"type": "note_off", "time": 112, "note": 61, "velocity": 97, "channel": 0}, {"type": "note_on", "time": 16, "note": 57, "velocity": 87, "channel": 0}, {"type": "note_off", "time": 44, "note": 57, "velocity": 87, "channel": 0}, {"type": "note_on", "time": 10, "note": 64, "velocity": 109, "channel": 0}, {"type": "note_off", "time": 112, "note": 64, "velocity": 109, "channel": 0}, {"type": "note_on", "time": 24, "note": 57, "velocity": 87, "channel": 0}, {"type": "note_off", "time": 40, "note": 57, "velocity": 87, "channel": 0}, {"type": "note_on", "time": 24, "note": 62, "velocity": 106, "channel": 0}, {"type": "note_off", "time": 108, "note": 62, "velocity": 106, "channel": 0}, {"type": "note_on", "time": 16, "note": 64, "velocity": 109, "channel": 0}, {"type": "note_off", "time": 36, "note": 64, "velocity": 109, "channel": 0}, {"type": "note_on", "time": 16, "note": 65, "velocity": 105, "channel": 0}, {"type": "note_off", "time": 206, "note": 65, "velocity": 105, "channel": 0}, {"type": "note_on", "time": 8, "note": 64, "velocity": 108, "channel": 0}, {"type": "note_off", "time": 96, "note": 64, "velocity": 108, "channel": 0}, {"type": "note_on", "time": 14, "note": 63, "velocity": 103, "channel": 0}, {"type": "note_off", "time": 60, "note": 63, "velocity": 103, "channel": 0}, {"type": "note_on", "time": 14, "note": 62, "velocity": 99, "channel": 0}, {"type": "note_off", "time": 98, "note": 62, "velocity": 99, "channel": 0}, {"type": "note_on", "time": 16, "note": 57, "velocity": 106, "channel": 0}, {"type": "note_off", "time": 70, "note": 57, "velocity": 106, "channel": 0}, {"type": "note_on", "time": 397, "note": 58, "velocity": 105, "channel": 0}, {"type": "note_off", "time": 88, "note": 58, "velocity": 105, "channel": 0}, {"type": "note_on", "time": 6, "note": 57, "velocity": 103, "channel": 0}, {"type": "note_off", "time": 62, "note": 57, "velocity": 103, "channel": 0}, {"type": "note_on", "time": 26, "note": 56, "velocity": 101, "channel": 0}, {"type": "note_off", "time": 66, "note": 56, "velocity": 101, "channel": 0}, {"type": "note_on", "time": 20, "note": 58, "velocity": 104, "channel": 0}, {"type": "note_off", "time": 112, "note": 58, "velocity": 104, "channel": 0}, {"type": "note_on", "time": 6, "note": 60, "velocity": 89, "channel": 0}, {"type": "note_off", "time": 76, "note": 60, "velocity": 89, "channel": 0}, {"type": "note_on", "time": 8, "note": 64, "velocity": 99, "channel": 0}, {"type": "note_off", "time": 68, "note": 64, "velocity": 99, "channel": 0}, {"type": "note_on", "time": 4, "note": 67, "velocity": 119, "channel": 0}, {"type": "note_off", "time": 94, "note": 67, "velocity": 119, "channel": 0}, {"type": "note_on", "time": 124, "note": 57, "velocity": 100, "channel": 0}, {"type": "note_off", "time": 74, "note": 57, "velocity": 100, "channel": 0}, {"type": "note_on", "time": 12, "note": 56, "velocity": 95, "channel": 0}, {"type": "note_off", "time": 74, "note": 56, "velocity": 95, "channel": 0}, {"type": "note_on", "time": 12, "note": 55, "velocity": 96, "channel": 0}, {"type": "note_off", "time": 88, "note": 55, "velocity": 96, "channel": 0}, {"type": "note_on", "time": 24, "note": 57, "velocity": 102, "channel": 0}, {"type": "note_off", "time": 84, "note": 57, "velocity": 102, "channel": 0}, {"type": "note_on", "time": 6, "note": 59, "velocity": 92, "channel": 0}, {"type": "note_off", "time": 76, "note": 59, "velocity": 92, "channel": 0}, {"type": "note_on", "time": 2, "note": 62, "velocity": 96, "channel": 0}, {"type": "note_off", "time": 78, "note": 62, "velocity": 96, "channel": 0}, {"type": "note_on", "time": 14, "note": 66, "velocity": 119, "channel": 0}, {"type": "note_off", "time": 90, "note": 66, "velocity": 119, "channel": 0}, {"type": "note_on", "time": 112, "note": 60, "velocity": 104, "channel": 0}, {"type": "note_off", "time": 86, "note": 60, "velocity": 104, "channel": 0}, {"type": "note_on", "time": 10, "note": 58, "velocity": 103, "channel": 0}, {"type": "note_off", "time": 74, "note": 58, "velocity": 103, "channel": 0}, {"type": "note_on", "time": 22, "note": 57, "velocity": 97, "channel": 0}, {"type": "note_off", "time": 76, "note": 57, "velocity": 97, "channel": 0}, {"type": "note_on", "time": 10, "note": 55, "velocity": 100, "channel": 0}, {"type": "note_off", "time": 88, "note": 55, "velocity": 100, "channel": 0}, {"type": "note_on", "time": 26, "note": 52, "velocity": 91, "channel": 0}, {"type": "note_off", "time": 84, "note": 52, "velocity": 91, "channel": 0}, {"type": "note_on", "time": 74, "note": 60, "velocity": 108, "channel": 0}, {"type": "note_off", "time": 92, "note": 60, "velocity": 108, "channel": 0}, {"type": "note_on", "time": 26, "note": 63, "velocity": 104, "channel": 0}, {"type": "note_off", "time": 90, "note": 63, "velocity": 104, "channel": 0}, {"type": "note_on", "time": 4, "note": 62, "velocity": 99, "channel": 0}, {"type": "note_off", "time": 70, "note": 62, "velocity": 99, "channel": 0}, {"type": "note_on", "time": 16, "note": 60, "velocity": 106, "channel": 0}, {"type": "note_off", "time": 90, "note": 60, "velocity": 106, "channel": 0}, {"type": "note_on", "time": 10, "note": 58, "velocity": 99, "channel": 0}, {"type": "note_off", "time": 84, "note": 58, "velocity": 99, "channel": 0}, {"type": "note_on", "time": 18, "note": 60, "velocity": 91, "channel": 0}, {"type": "note_off", "time": 60, "note": 60, "velocity": 91, "channel": 0}, {"type": "note_on", "time": 24, "note": 62, "velocity": 107, "channel": 0}, {"type": "note_off", "time": 114, "note": 62, "velocity": 107, "channel": 0}, {"type": "note_on", "time": 40, "note": 69, "velocity": 114, "channel": 0}, {"type": "note_off", "time": 122, "note": 69, "velocity": 114, "channel": 0}, {"type": "note_on", "time": 12, "note": 66, "velocity": 110, "channel": 0}, {"type": "note_off", "time": 84, "note": 66, "velocity": 110, "channel": 0}, {"type": "note_on", "time": 16, "note": 67, "velocity": 103, "channel": 0}, {"type": "note_off", "time": 66, "note": 67, "velocity": 103, "channel": 0}, {"type": "note_on", "time": 18, "note": 69, "velocity": 112, "channel": 0}, {"type": "note_off", "time": 62, "note": 69, "velocity": 112, "channel": 0}, {"type": "note_on", "time": 44, "note": 70, "velocity": 110, "channel": 0}, {"type": "note_off", "time": 20, "note": 70, "velocity": 110, "channel": 0}, {"type": "note_on", "time": 16, "note": 71, "velocity": 109, "channel": 0}, {"type": "note_off", "time": 80, "note": 71, "velocity": 109, "channel": 0}, {"type": "note_on", "time": 16, "note": 67, "velocity": 114, "channel": 0}, {"type": "note_off", "time": 48, "note": 67, "velocity": 114, "channel": 0}, {"type": "note_on", "time": 6, "note": 68, "velocity": 106, "channel": 0}, {"type": "note_off", "time": 60, "note": 68, "velocity": 106, "channel": 0}, {"type": "note_on", "time": 20, "note": 65, "velocity": 111, "channel": 0}, {"type": "note_off", "time": 60, "note": 65, "velocity": 111, "channel": 0}, {"type": "note_on", "time": 42, "note": 62, "velocity": 102, "channel": 0}, {"type": "note_off", "time": 82, "note": 62, "velocity": 102, "channel": 0}, {"type": "note_on", "time": 36, "note": 59, "velocity": 101, "channel": 0}, {"type": "note_off", "time": 82, "note": 59, "velocity": 101, "channel": 0}, {"type": "note_on", "time": 463, "note": 60, "velocity": 108, "channel": 0}, {"type": "note_off", "time": 84, "note": 60, "velocity": 108, "channel": 0}, {"type": "note_on", "time": 5, "note": 61, "velocity": 103, "channel": 0}, {"type": "note_off", "time": 45, "note": 61, "velocity": 103, "channel": 0}, {"type": "note_on", "time": 8, "note": 60, "velocity": 99, "channel": 0}, {"type": "note_off", "time": 45, "note": 60, "velocity": 99, "channel": 0}, {"type": "note_on", "time": 0, "note": 59, "velocity": 104, "channel": 0}, {"type": "note_off", "time": 64, "note": 59, "velocity": 104, "channel": 0}, {"type": "note_on", "time": 16, "note": 58, "velocity": 109, "channel": 0}, {"type": "note_off", "time": 98, "note": 58, "velocity": 109, "channel": 0}, {"type": "note_on", "time": 14, "note": 57, "velocity": 109, "channel": 0}, {"type": "note_off", "time": 70, "note": 57, "velocity": 109, "channel": 0}, {"type": "note_on", "time": 14, "note": 55, "velocity": 106, "channel": 0}, {"type": "note_off", "time": 84, "note": 55, "velocity": 106, "channel": 0}, {"type": "note_on", "time": 33, "note": 57, "velocity": 110, "channel": 0}, {"type": "note_off", "time": 67, "note": 57, "velocity": 110, "channel": 0}, {"type": "note_on", "time": 5, "note": 59, "velocity": 101, "channel": 0}, {"type": "note_off", "time": 93, "note": 59, "velocity": 101, "channel": 0}, {"type": "note_on", "time": 5, "note": 60, "velocity": 102, "channel": 0}, {"type": "note_off", "time": 67, "note": 60, "velocity": 102, "channel": 0}, {"type": "note_on", "time": 11, "note": 64, "velocity": 123, "channel": 0}, {"type": "note_off", "time": 81, "note": 64, "velocity": 123, "channel": 0}, {"type": "note_on", "time": 28, "note": 61, "velocity": 111, "channel": 0}, {"type": "note_off", "time": 93, "note": 61, "velocity": 111, "channel": 0}, {"type": "note_on", "time": 8, "note": 62, "velocity": 106, "channel": 0}, {"type": "note_off", "time": 76, "note": 62, "velocity": 106, "channel": 0}, {"type": "note_on", "time": 2, "note": 64, "velocity": 110, "channel": 0}, {"type": "note_off", "time": 87, "note": 64, "velocity": 110, "channel": 0}, {"type": "note_on", "time": 2, "note": 65, "velocity": 111, "channel": 0}, {"type": "note_off", "time": 98, "note": 65, "velocity": 111, "channel": 0}, {"type": "note_on", "time": 0, "note": 67, "velocity": 109, "channel": 0}, {"type": "note_off", "time": 84, "note": 67, "velocity": 109, "channel": 0}, {"type": "note_on", "time": 2, "note": 64, "velocity": 106, "channel": 0}, {"type": "note_off", "time": 87, "note": 64, "velocity": 106, "channel": 0}, {"type": "note_on", "time": 19, "note": 63, "velocity": 101, "channel": 0}, {"type": "note_off", "time": 78, "note": 63, "velocity": 101, "channel": 0}, {"type": "note_on", "time": 14, "note": 62, "velocity": 111, "channel": 0}, {"type": "note_off", "time": 95, "note": 62, "velocity": 111, "channel": 0}, {"type": "note_on", "time": 8, "note": 64, "velocity": 113, "channel": 0}, {"type": "note_off", "time": 76, "note": 64, "velocity": 113, "channel": 0}, {"type": "note_on", "time": 5, "note": 65, "velocity": 98, "channel": 0}, {"type": "note_off", "time": 76, "note": 65, "velocity": 98, "channel": 0}, {"type": "note_on", "time": 11, "note": 67, "velocity": 85, "channel": 0}, {"type": "note_on", "time": 73, "note": 69, "velocity": 117, "channel": 0}, {"type": "note_off", "time": 0, "note": 67, "velocity": 85, "channel": 0}, {"type": "note_off", "time": 118, "note": 69, "velocity": 117, "channel": 0}, {"type": "note_on", "time": 19, "note": 60, "velocity": 104, "channel": 0}, {"type": "note_off", "time": 70, "note": 60, "velocity": 104, "channel": 0}, {"type": "note_on", "time": 14, "note": 59, "velocity": 98, "channel": 0}, {"type": "note_off", "time": 81, "note": 59, "velocity": 98, "channel": 0}, {"type": "note_on", "time": 8, "note": 57, "velocity": 98, "channel": 0}, {"type": "note_off", "time": 84, "note": 57, "velocity": 98, "channel": 0}, {"type": "note_on", "time": 8, "note": 58, "velocity": 95, "channel": 0}, {"type": "note_off", "time": 87, "note": 58, "velocity": 95, "channel": 0}, {"type": "note_on", "time": 8, "note": 67, "velocity": 105, "channel": 0}, {"type": "note_off", "time": 76, "note": 67, "velocity": 105, "channel": 0}, {"type": "note_on", "time": 8, "note": 64, "velocity": 96, "channel": 0}, {"type": "note_off", "time": 112, "note": 64, "velocity": 96, "channel": 0}, {"type": "note_on", "time": 16, "note": 60, "velocity": 90, "channel": 0}, {"type": "note_off", "time": 50, "note": 60, "velocity": 90, "channel": 0}, {"type": "note_on", "time": 5, "note": 65, "velocity": 110, "channel": 0}, {"type": "note_off", "time": 81, "note": 65, "velocity": 110, "channel": 0}, {"type": "note_on", "time": 14, "note": 62, "velocity": 108, "channel": 0}, {"type": "note_off", "time": 73, "note": 62, "velocity": 108, "channel": 0}, {"type": "note_on", "time": 28, "note": 58, "velocity": 100, "channel": 0}, {"type": "note_off", "time": 78, "note": 58, "velocity": 100, "channel": 0}, {"type": "note_on", "time": 0, "note": 55, "velocity": 97, "channel": 0}, {"type": "note_off", "time": 78, "note": 55, "velocity": 97, "channel": 0}, {"type": "note_on", "time": 129, "note": 64, "velocity": 112, "channel": 0}, {"type": "note_off", "time": 78, "note": 64, "velocity": 112, "channel": 0}, {"type": "note_on", "time": 0, "note": 62, "velocity": 94, "channel": 0}, {"type": "note_off", "time": 67, "note": 62, "velocity": 94, "channel": 0}, {"type": "note_on", "time": 28, "note": 61, "velocity": 100, "channel": 0}, {"type": "note_off", "time": 78, "note": 61, "velocity": 100, "channel": 0}, {"type": "note_on", "time": 8, "note": 60, "velocity": 105, "channel": 0}, {"type": "note_off", "time": 87, "note": 60, "velocity": 105, "channel": 0}, {"type": "note_on", "time": 28, "note": 62, "velocity": 103, "channel": 0}, {"type": "note_off", "time": 56, "note": 62, "velocity": 103, "channel": 0}, {"type": "note_on", "time": 19, "note": 65, "velocity": 106, "channel": 0}, {"type": "note_off", "time": 135, "note": 65, "velocity": 106, "channel": 0}, {"type": "note_on", "time": 64, "note": 69, "velocity": 116, "channel": 0}, {"type": "note_off", "time": 135, "note": 69, "velocity": 116, "channel": 0}, {"type": "note_on", "time": 19, "note": 74, "velocity": 114, "channel": 0}, {"type": "note_off", "time": 138, "note": 74, "velocity": 114, "channel": 0}, {"type": "note_on", "time": 14, "note": 73, "velocity": 108, "channel": 0}, {"type": "note_off", "time": 47, "note": 73, "velocity": 108, "channel": 0}, {"type": "note_on", "time": 14, "note": 74, "velocity": 116, "channel": 0}, {"type": "note_off", "time": 208, "note": 74, "velocity": 116, "channel": 0}, {"type": "note_on", "time": 14, "note": 72, "velocity": 112, "channel": 0}, {"type": "note_off", "time": 67, "note": 72, "velocity": 112, "channel": 0}, {"type": "note_on", "time": 16, "note": 73, "velocity": 97, "channel": 0}, {"type": "note_off", "time": 39, "note": 73, "velocity": 97, "channel": 0}, {"type": "note_on", "time": 2, "note": 72, "velocity": 106, "channel": 0}, {"type": "note_off", "time": 47, "note": 72, "velocity": 106, "channel": 0}, {"type": "note_on", "time": 2, "note": 69, "velocity": 111, "channel": 0}, {"type": "note_off", "time": 98, "note": 69, "velocity": 111, "channel": 0}, {"type": "note_on", "time": 5, "note": 65, "velocity": 100, "channel": 0}, {"type": "note_off", "time": 73, "note": 65, "velocity": 100, "channel": 0}, {"type": "note_on", "time": 31, "note": 62, "velocity": 94, "channel": 0}, {"type": "note_off", "time": 76, "note": 62, "velocity": 94, "channel": 0}, {"type": "note_on", "time": 11, "note": 60, "velocity": 98, "channel": 0}, {"type": "note_on", "time": 64, "note": 67, "velocity": 112, "channel": 0}, {"type": "note_off", "time": 0, "note": 60, "velocity": 98, "channel": 0}, {"type": "note_off", "time": 132, "note": 67, "velocity": 112, "channel": 0}, {"type": "note_on", "time": 344, "note": 67, "velocity": 94, "channel": 0}, {"type": "note_off", "time": 45, "note": 67, "velocity": 94, "channel": 0}, {"type": "note_on", "time": 0, "note": 66, "velocity": 106, "channel": 0}, {"type": "note_off", "time": 47, "note": 66, "velocity": 106, "channel": 0}, {"type": "note_on", "time": 11, "note": 64, "velocity": 102, "channel": 0}, {"type": "note_off", "time": 76, "note": 64, "velocity": 102, "channel": 0}, {"type": "note_on", "time": 25, "note": 62, "velocity": 99, "channel": 0}, {"type": "note_off", "time": 78, "note": 62, "velocity": 99, "channel": 0}, {"type": "note_on", "time": 19, "note": 61, "velocity": 97, "channel": 0}, {"type": "note_off", "time": 64, "note": 61, "velocity": 97, "channel": 0}, {"type": "note_on", "time": 5, "note": 64, "velocity": 105, "channel": 0}, {"type": "note_off", "time": 87, "note": 64, "velocity": 105, "channel": 0}, {"type": "note_on", "time": 19, "note": 67, "velocity": 91, "channel": 0}, {"type": "note_off", "time": 73, "note": 67, "velocity": 91, "channel": 0}, {"type": "note_on", "time": 11, "note": 69, "velocity": 95, "channel": 0}, {"type": "note_off", "time": 76, "note": 69, "velocity": 95, "channel": 0}, {"type": "note_on", "time": 16, "note": 72, "velocity": 114, "channel": 0}, {"type": "note_off", "time": 93, "note": 72, "velocity": 114, "channel": 0}, {"type": "note_on", "time": 11, "note": 71, "velocity": 110, "channel": 0}, {"type": "note_off", "time": 90, "note": 71, "velocity": 110, "channel": 0}, {"type": "note_on", "time": 8, "note": 70, "velocity": 109, "channel": 0}, {"type": "note_off", "time": 81, "note": 70, "velocity": 109, "channel": 0}, {"type": "note_on", "time": 2, "note": 68, "velocity": 114, "channel": 0}, {"type": "note_off", "time": 87, "note": 68, "velocity": 114, "channel": 0}, {"type": "note_on", "time": 11, "note": 69, "velocity": 114, "channel": 0}, {"type": "note_off", "time": 87, "note": 69, "velocity": 114, "channel": 0}, {"type": "note_on", "time": 28, "note": 65, "velocity": 108, "channel": 0}, {"type": "note_off", "time": 62, "note": 65, "velocity": 108, "channel": 0}, {"type": "note_on", "time": 14, "note": 61, "velocity": 102, "channel": 0}, {"type": "note_off", "time": 110, "note": 61, "velocity": 102, "channel": 0}, {"type": "note_on", "time": 47, "note": 67, "velocity": 106, "channel": 0}, {"type": "note_off", "time": 67, "note": 67, "velocity": 106, "channel": 0}, {"type": "note_on", "time": 5, "note": 68, "velocity": 109, "channel": 0}, {"type": "note_off", "time": 121, "note": 68, "velocity": 109, "channel": 0}, {"type": "note_on", "time": 5, "note": 67, "velocity": 112, "channel": 0}, {"type": "note_off", "time": 112, "note": 67, "velocity": 112, "channel": 0}, {"type": "note_on", "time": 16, "note": 66, "velocity": 106, "channel": 0}, {"type": "note_off", "time": 70, "note": 66, "velocity": 106, "channel": 0}, {"type": "note_on", "time": 16, "note": 65, "velocity": 102, "channel": 0}, {"type": "note_off", "time": 73, "note": 65, "velocity": 102, "channel": 0}, {"type": "note_on", "time": 8, "note": 62, "velocity": 99, "channel": 0}, {"type": "note_off", "time": 87, "note": 62, "velocity": 99, "channel": 0}, {"type": "note_on", "time": 332, "note": 65, "velocity": 105, "channel": 0}, {"type": "note_off", "time": 45, "note": 65, "velocity": 105, "channel": 0}, {"type": "note_on", "time": 11, "note": 70, "velocity": 115, "channel": 0}, {"type": "note_off", "time": 67, "note": 70, "velocity": 115, "channel": 0}, {"type": "note_on", "time": 19, "note": 69, "velocity": 121, "channel": 0}, {"type": "note_off", "time": 107, "note": 69, "velocity": 121, "channel": 0}, {"type": "note_on", "time": 2, "note": 68, "velocity": 112, "channel": 0}, {"type": "note_off", "time": 70, "note": 68, "velocity": 112, "channel": 0}, {"type": "note_on", "time": 5, "note": 72, "velocity": 115, "channel": 0}, {"type": "note_off", "time": 73, "note": 72, "velocity": 115, "channel": 0}, {"type": "note_on", "time": 14, "note": 67, "velocity": 104, "channel": 0}, {"type": "note_off", "time": 95, "note": 67, "velocity": 104, "channel": 0}, {"type": "note_on", "time": 0, "note": 65, "velocity": 105, "channel": 0}, {"type": "note_off", "time": 81, "note": 65, "velocity": 105, "channel": 0}, {"type": "note_on", "time": 8, "note": 64, "velocity": 104, "channel": 0}, {"type": "note_off", "time": 84, "note": 64, "velocity": 104, "channel": 0}, {"type": "note_on", "time": 14, "note": 62, "velocity": 101, "channel": 0}, {"type": "note_off", "time": 95, "note": 62, "velocity": 101, "channel": 0}, {"type": "note_on", "time": 22, "note": 59, "velocity": 92, "channel": 0}, {"type": "note_off", "time": 67, "note": 59, "velocity": 92, "channel": 0}, {"type": "note_on", "time": 8, "note": 60, "velocity": 98, "channel": 0}, {"type": "note_off", "time": 70, "note": 60, "velocity": 98, "channel": 0}, {"type": "note_on", "time": 28, "note": 61, "velocity": 113, "channel": 0}, {"type": "note_off", "time": 81, "note": 61, "velocity": 113, "channel": 0}, {"type": "note_on", "time": 25, "note": 64, "velocity": 98, "channel": 0}, {"type": "note_off", "time": 67, "note": 64, "velocity": 98, "channel": 0}, {"type": "note_on", "time": 8, "note": 67, "velocity": 114, "channel": 0}, {"type": "note_off", "time": 87, "note": 67, "velocity": 114, "channel": 0}, {"type": "note_on", "time": 5, "note": 69, "velocity": 116, "channel": 0}, {"type": "note_off", "time": 87, "note": 69, "velocity": 116, "channel": 0}, {"type": "note_on", "time": 14, "note": 70, "velocity": 110, "channel": 0}, {"type": "note_off", "time": 70, "note": 70, "velocity": 110, "channel": 0}, {"type": "note_on", "time": 5, "note": 72, "velocity": 102, "channel": 0}, {"type": "note_off", "time": 36, "note": 72, "velocity": 102, "channel": 0}, {"type": "note_on", "time": 8, "note": 70, "velocity": 111, "channel": 0}, {"type": "note_off", "time": 56, "note": 70, "velocity": 111, "channel": 0}, {"type": "note_on", "time": 14, "note": 69, "velocity": 117, "channel": 0}, {"type": "note_off", "time": 87, "note": 69, "velocity": 117, "channel": 0}, {"type": "note_on", "time": 11, "note": 67, "velocity": 112, "channel": 0}, {"type": "note_off", "time": 70, "note": 67, "velocity": 112, "channel": 0}, {"type": "note_on", "time": 8, "note": 66, "velocity": 107, "channel": 0}, {"type": "note_off", "time": 90, "note": 66, "velocity": 107, "channel": 0}, {"type": "note_on", "time": 90, "note": 60, "velocity": 108, "channel": 0}, {"type": "note_off", "time": 110, "note": 60, "velocity": 108, "channel": 0}, {"type": "note_on", "time": 11, "note": 63, "velocity": 111, "channel": 0}, {"type": "note_off", "time": 67, "note": 63, "velocity": 111, "channel": 0}, {"type": "note_on", "time": 5, "note": 62, "velocity": 96, "channel": 0}, {"type": "note_off", "time": 87, "note": 62, "velocity": 96, "channel": 0}, {"type": "note_on", "time": 39, "note": 60, "velocity": 97, "channel": 0}, {"type": "note_off", "time": 62, "note": 60, "velocity": 97, "channel": 0}, {"type": "note_on", "time": 2, "note": 62, "velocity": 112, "channel": 0}, {"type": "note_off", "time": 112, "note": 62, "velocity": 112, "channel": 0}, {"type": "note_on", "time": 180, "note": 60, "velocity": 112, "channel": 0}, {"type": "note_off", "time": 101, "note": 60, "velocity": 112, "channel": 0}, {"type": "note_on", "time": 19, "note": 61, "velocity": 97, "channel": 0}, {"type": "note_off", "time": 33, "note": 61, "velocity": 97, "channel": 0}, {"type": "note_on", "time": 11, "note": 60, "velocity": 101, "channel": 0}, {"type": "note_off", "time": 53, "note": 60, "velocity": 101, "channel": 0}, {"type": "note_on", "time": 0, "note": 57, "velocity": 100, "channel": 0}, {"type": "note_off", "time": 64, "note": 57, "velocity": 100, "channel": 0}, {"type": "note_on", "time": 0, "note": 58, "velocity": 109, "channel": 0}, {"type": "note_off", "time": 138, "note": 58, "velocity": 109, "channel": 0}, {"type": "note_on", "time": 31, "note": 65, "velocity": 115, "channel": 0}, {"type": "note_off", "time": 126, "note": 65, "velocity": 115, "channel": 0}, {"type": "note_on", "time": 5, "note": 68, "velocity": 122, "channel": 0}, {"type": "note_off", "time": 90, "note": 68, "velocity": 122, "channel": 0}, {"type": "note_on", "time": 8, "note": 67, "velocity": 102, "channel": 0}, {"type": "note_off", "time": 93, "note": 67, "velocity": 102, "channel": 0}, {"type": "note_on", "time": 11, "note": 65, "velocity": 105, "channel": 0}, {"type": "note_off", "time": 39, "note": 65, "velocity": 105, "channel": 0}, {"type": "note_on", "time": 19, "note": 67, "velocity": 124, "channel": 0}, {"type": "note_off", "time": 110, "note": 67, "velocity": 124, "channel": 0}, {"type": "note_on", "time": 197, "note": 64, "velocity": 94, "channel": 0}, {"type": "note_off", "time": 180, "note": 64, "velocity": 94, "channel": 0}, {"type": "note_on", "time": 2, "note": 60, "velocity": 95, "channel": 0}, {"type": "note_off", "time": 62, "note": 60, "velocity": 95, "channel": 0}, {"type": "note_on", "time": 16, "note": 62, "velocity": 101, "channel": 0}, {"type": "note_off", "time": 138, "note": 62, "velocity": 101, "channel": 0}, {"type": "note_on", "time": 157, "note": 57, "velocity": 109, "channel": 0}, {"type": "note_off", "time": 73, "note": 57, "velocity": 109, "channel": 0}, {"type": "note_on", "time": 11, "note": 58, "velocity": 100, "channel": 0}, {"type": "note_off", "time": 90, "note": 58, "velocity": 100, "channel": 0}, {"type": "note_on", "time": 8, "note": 59, "velocity": 106, "channel": 0}, {"type": "note_off", "time": 73, "note": 59, "velocity": 106, "channel": 0}, {"type": "note_on", "time": 14, "note": 60, "velocity": 111, "channel": 0}, {"type": "note_off", "time": 95, "note": 60, "velocity": 111, "channel": 0}, {"type": "note_on", "time": 16, "note": 59, "velocity": 103, "channel": 0}, {"type": "note_off", "time": 76, "note": 59, "velocity": 103, "channel": 0}, {"type": "note_on", "time": 11, "note": 58, "velocity": 100, "channel": 0}, {"type": "note_off", "time": 93, "note": 58, "velocity": 100, "channel": 0}, {"type": "note_on", "time": 16, "note": 57, "velocity": 105, "channel": 0}, {"type": "note_off", "time": 73, "note": 57, "velocity": 105, "channel": 0}, {"type": "note_on", "time": 0, "note": 55, "velocity": 93, "channel": 0}, {"type": "note_off", "time": 62, "note": 55, "velocity": 93, "channel": 0}, {"type": "note_on", "time": 8, "note": 53, "velocity": 101, "channel": 0}, {"type": "note_off", "time": 93, "note": 53, "velocity": 101, "channel": 0}, {"type": "note_on", "time": 36, "note": 52, "velocity": 105, "channel": 0}, {"type": "note_off", "time": 76, "note": 52, "velocity": 105, "channel": 0}, {"type": "note_on", "time": 5, "note": 55, "velocity": 95, "channel": 0}, {"type": "note_off", "time": 62, "note": 55, "velocity": 95, "channel": 0}, {"type": "note_on", "time": 16, "note": 58, "velocity": 107, "channel": 0}, {"type": "note_off", "time": 110, "note": 58, "velocity": 107, "channel": 0}, {"type": "note_on", "time": 14, "note": 62, "velocity": 101, "channel": 0}, {"type": "note_off", "time": 87, "note": 62, "velocity": 101, "channel": 0}, {"type": "note_on", "time": 77, "note": 57, "velocity": 91, "channel": 0}, {"type": "note_off", "time": 93, "note": 57, "velocity": 91, "channel": 0}, {"type": "note_on", "time": 18, "note": 60, "velocity": 107, "channel": 0}, {"type": "note_off", "time": 78, "note": 60, "velocity": 107, "channel": 0}, {"type": "note_on", "time": 8, "note": 58, "velocity": 107, "channel": 0}, {"type": "note_off", "time": 76, "note": 58, "velocity": 107, "channel": 0}, {"type": "note_on", "time": 25, "note": 57, "velocity": 91, "channel": 0}, {"type": "note_off", "time": 81, "note": 57, "velocity": 91, "channel": 0}, {"type": "note_on", "time": 22, "note": 60, "velocity": 94, "channel": 0}, {"type": "note_off", "time": 50, "note": 60, "velocity": 94, "channel": 0}, {"type": "note_on", "time": 5, "note": 62, "velocity": 106, "channel": 0}, {"type": "note_off", "time": 107, "note": 62, "velocity": 106, "channel": 0}, {"type": "note_on", "time": 14, "note": 60, "velocity": 110, "channel": 0}, {"type": "note_off", "time": 56, "note": 60, "velocity": 110, "channel": 0}, {"type": "note_on", "time": 29, "note": 62, "velocity": 110, "channel": 0}, {"type": "note_off", "time": 31, "note": 62, "velocity": 110, "channel": 0}, {"type": "note_on", "time": 5, "note": 63, "velocity": 102, "channel": 0}, {"type": "note_off", "time": 73, "note": 63, "velocity": 102, "channel": 0}, {"type": "note_on", "time": 48, "note": 60, "velocity": 100, "channel": 0}, {"type": "note_off", "time": 112, "note": 60, "velocity": 100, "channel": 0}, {"type": "note_on", "time": 14, "note": 62, "velocity": 100, "channel": 0}, {"type": "note_off", "time": 301, "note": 62, "velocity": 100, "channel": 0}, {"type": "note_on", "time": 513, "note": 62, "velocity": 112, "channel": 0}, {"type": "note_off", "time": 112, "note": 62, "velocity": 112, "channel": 0}, {"type": "note_on", "time": 78, "note": 70, "velocity": 120, "channel": 0}, {"type": "note_off", "time": 76, "note": 70, "velocity": 120, "channel": 0}, {"type": "note_on", "time": 45, "note": 70, "velocity": 114, "channel": 0}, {"type": "note_off", "time": 45, "note": 70, "velocity": 114, "channel": 0}, {"type": "note_on", "time": 19, "note": 71, "velocity": 109, "channel": 0}, {"type": "note_off", "time": 56, "note": 71, "velocity": 109, "channel": 0}, {"type": "note_on", "time": 67, "note": 70, "velocity": 113, "channel": 0}, {"type": "note_off", "time": 541, "note": 70, "velocity": 113, "channel": 0}, {"type": "note_on", "time": 28, "note": 70, "velocity": 110, "channel": 0}, {"type": "note_off", "time": 45, "note": 70, "velocity": 110, "channel": 0}, {"type": "note_on", "time": 5, "note": 71, "velocity": 107, "channel": 0}, {"type": "note_off", "time": 62, "note": 71, "velocity": 107, "channel": 0}, {"type": "note_on", "time": 62, "note": 70, "velocity": 114, "channel": 0}, {"type": "note_off", "time": 110, "note": 70, "velocity": 114, "channel": 0}, {"type": "note_on", "time": 19, "note": 68, "velocity": 112, "channel": 0}, {"type": "note_off", "time": 56, "note": 68, "velocity": 112, "channel": 0}, {"type": "note_on", "time": 22, "note": 65, "velocity": 113, "channel": 0}, {"type": "note_off", "time": 73, "note": 65, "velocity": 113, "channel": 0}, {"type": "note_on", "time": 22, "note": 63, "velocity": 107, "channel": 0}, {"type": "note_off", "time": 59, "note": 63, "velocity": 107, "channel": 0}, {"type": "note_on", "time": 5, "note": 61, "velocity": 101, "channel": 0}, {"type": "note_off", "time": 50, "note": 61, "velocity": 101, "channel": 0}, {"type": "note_on", "time": 8, "note": 60, "velocity": 102, "channel": 0}, {"type": "note_off", "time": 45, "note": 60, "velocity": 102, "channel": 0}, {"type": "note_on", "time": 16, "note": 59, "velocity": 102, "channel": 0}, {"type": "note_off", "time": 64, "note": 59, "velocity": 102, "channel": 0}, {"type": "note_on", "time": 0, "note": 62, "velocity": 105, "channel": 0}, {"type": "note_off", "time": 98, "note": 62, "velocity": 105, "channel": 0}, {"type": "note_on", "time": 11, "note": 60, "velocity": 105, "channel": 0}, {"type": "note_off", "time": 98, "note": 60, "velocity": 105, "channel": 0}, {"type": "note_on", "time": 8, "note": 59, "velocity": 101, "channel": 0}, {"type": "note_off", "time": 76, "note": 59, "velocity": 101, "channel": 0}, {"type": "note_on", "time": 11, "note": 58, "velocity": 104, "channel": 0}, {"type": "note_off", "time": 62, "note": 58, "velocity": 104, "channel": 0}, {"type": "note_on", "time": 19, "note": 56, "velocity": 100, "channel": 0}, {"type": "note_off", "time": 73, "note": 56, "velocity": 100, "channel": 0}, {"type": "note_on", "time": 16, "note": 57, "velocity": 102, "channel": 0}, {"type": "note_off", "time": 91, "note": 57, "velocity": 102, "channel": 0}, {"type": "note_on", "time": 2, "note": 58, "velocity": 95, "channel": 0}, {"type": "note_off", "time": 74, "note": 58, "velocity": 95, "channel": 0}, {"type": "note_on", "time": 8, "note": 64, "velocity": 113, "channel": 0}, {"type": "note_off", "time": 93, "note": 64, "velocity": 113, "channel": 0}, {"type": "note_on", "time": 14, "note": 67, "velocity": 121, "channel": 0}, {"type": "note_off", "time": 104, "note": 67, "velocity": 121, "channel": 0}, {"type": "note_on", "time": 437, "note": 60, "velocity": 115, "channel": 0}, {"type": "note_off", "time": 93, "note": 60, "velocity": 115, "channel": 0}, {"type": "note_on", "time": 14, "note": 62, "velocity": 112, "channel": 0}, {"type": "note_off", "time": 98, "note": 62, "velocity": 112, "channel": 0}, {"type": "note_on", "time": 14, "note": 64, "velocity": 112, "channel": 0}, {"type": "note_off", "time": 70, "note": 64, "velocity": 112, "channel": 0}, {"type": "note_on", "time": 95, "note": 67, "velocity": 116, "channel": 0}, {"type": "note_off", "time": 78, "note": 67, "velocity": 116, "channel": 0}, {"type": "note_on", "time": 16, "note": 65, "velocity": 110, "channel": 0}, {"type": "note_off", "time": 104, "note": 65, "velocity": 110, "channel": 0}, {"type": "note_on", "time": 14, "note": 64, "velocity": 112, "channel": 0}, {"type": "note_off", "time": 98, "note": 64, "velocity": 112, "channel": 0}, {"type": "note_on", "time": 64, "note": 60, "velocity": 106, "channel": 0}, {"type": "note_off", "time": 67, "note": 60, "velocity": 106, "channel": 0}, {"type": "note_on", "time": 16, "note": 62, "velocity": 112, "channel": 0}, {"type": "note_off", "time": 87, "note": 62, "velocity": 112, "channel": 0}, {"type": "note_on", "time": 16, "note": 64, "velocity": 110, "channel": 0}, {"type": "note_off", "time": 84, "note": 64, "velocity": 110, "channel": 0}, {"type": "note_on", "time": 81, "note": 67, "velocity": 113, "channel": 0}, {"type": "note_off", "time": 87, "note": 67, "velocity": 113, "channel": 0}, {"type": "note_on", "time": 0, "note": 65, "velocity": 114, "channel": 0}, {"type": "note_off", "time": 124, "note": 65, "velocity": 114, "channel": 0}, {"type": "note_on", "time": 14, "note": 64, "velocity": 114, "channel": 0}, {"type": "note_off", "time": 93, "note": 64, "velocity": 114, "channel": 0}, {"type": "note_on", "time": 84, "note": 60, "velocity": 108, "channel": 0}, {"type": "note_off", "time": 70, "note": 60, "velocity": 108, "channel": 0}, {"type": "note_on", "time": 14, "note": 62, "velocity": 104, "channel": 0}, {"type": "note_off", "time": 101, "note": 62, "velocity": 104, "channel": 0}, {"type": "note_on", "time": 19, "note": 63, "velocity": 109, "channel": 0}, {"type": "note_off", "time": 42, "note": 63, "velocity": 109, "channel": 0}, {"type": "note_on", "time": 8, "note": 64, "velocity": 99, "channel": 0}, {"type": "note_off", "time": 197, "note": 64, "velocity": 99, "channel": 0}, {"type": "note_on", "time": 25, "note": 59, "velocity": 99, "channel": 0}, {"type": "note_off", "time": 70, "note": 59, "velocity": 99, "channel": 0}, {"type": "note_on", "time": 76, "note": 63, "velocity": 107, "channel": 0}, {"type": "note_off", "time": 93, "note": 63, "velocity": 107, "channel": 0}, {"type": "note_on", "time": 110, "note": 59, "velocity": 98, "channel": 0}, {"type": "note_off", "time": 76, "note": 59, "velocity": 98, "channel": 0}, {"type": "note_on", "time": 118, "note": 62, "velocity": 105, "channel": 0}, {"type": "note_off", "time": 81, "note": 62, "velocity": 105, "channel": 0}, {"type": "note_on", "time": 121, "note": 59, "velocity": 97, "channel": 0}, {"type": "note_off", "time": 87, "note": 59, "velocity": 97, "channel": 0}, {"type": "note_on", "time": 14, "note": 60, "velocity": 101, "channel": 0}, {"type": "note_off", "time": 76, "note": 60, "velocity": 101, "channel": 0}, {"type": "note_on", "time": 14, "note": 61, "velocity": 98, "channel": 0}, {"type": "note_off", "time": 81, "note": 61, "velocity": 98, "channel": 0}, {"type": "note_on", "time": 16, "note": 70, "velocity": 115, "channel": 0}, {"type": "note_off", "time": 67, "note": 70, "velocity": 115, "channel": 0}, {"type": "note_on", "time": 2, "note": 69, "velocity": 115, "channel": 0}, {"type": "note_off", "time": 115, "note": 69, "velocity": 115, "channel": 0}, {"type": "note_on", "time": 2, "note": 67, "velocity": 106, "channel": 0}, {"type": "note_off", "time": 76, "note": 67, "velocity": 106, "channel": 0}, {"type": "note_on", "time": 2, "note": 65, "velocity": 110, "channel": 0}, {"type": "note_off", "time": 98, "note": 65, "velocity": 110, "channel": 0}, {"type": "note_on", "time": 14, "note": 61, "velocity": 100, "channel": 0}, {"type": "note_off", "time": 56, "note": 61, "velocity": 100, "channel": 0}, {"type": "note_on", "time": 19, "note": 57, "velocity": 94, "channel": 0}, {"type": "note_off", "time": 73, "note": 57, "velocity": 94, "channel": 0}, {"type": "note_on", "time": 11, "note": 53, "velocity": 90, "channel": 0}, {"type": "note_off", "time": 52, "note": 53, "velocity": 90, "channel": 0}, {"type": "note_on", "time": 55, "note": 64, "velocity": 103, "channel": 0}, {"type": "note_off", "time": 115, "note": 64, "velocity": 103, "channel": 0}, {"type": "note_on", "time": 14, "note": 61, "velocity": 97, "channel": 0}, {"type": "note_off", "time": 70, "note": 61, "velocity": 97, "channel": 0}, {"type": "note_on", "time": 8, "note": 62, "velocity": 101, "channel": 0}, {"type": "note_off", "time": 73, "note": 62, "velocity": 101, "channel": 0}, {"type": "note_on", "time": 16, "note": 65, "velocity": 113, "channel": 0}, {"type": "note_off", "time": 124, "note": 65, "velocity": 113, "channel": 0}, {"type": "note_on", "time": 420, "note": 65, "velocity": 120, "channel": 0}, {"type": "note_off", "time": 84, "note": 65, "velocity": 120, "channel": 0}, {"type": "note_on", "time": 22, "note": 67, "velocity": 88, "channel": 0}, {"type": "note_off", "time": 53, "note": 67, "velocity": 88, "channel": 0}, {"type": "note_on", "time": 16, "note": 72, "velocity": 104, "channel": 0}, {"type": "note_off", "time": 42, "note": 72, "velocity": 104, "channel": 0}, {"type": "note_on", "time": 8, "note": 75, "velocity": 104, "channel": 0}, {"type": "note_off", "time": 53, "note": 75, "velocity": 104, "channel": 0}, {"type": "note_on", "time": 14, "note": 74, "velocity": 116, "channel": 0}, {"type": "note_off", "time": 98, "note": 74, "velocity": 116, "channel": 0}, {"type": "note_on", "time": 8, "note": 72, "velocity": 115, "channel": 0}, {"type": "note_off", "time": 95, "note": 72, "velocity": 115, "channel": 0}, {"type": "note_on", "time": 5, "note": 70, "velocity": 109, "channel": 0}, {"type": "note_off", "time": 78, "note": 70, "velocity": 109, "channel": 0}, {"type": "note_on", "time": 2, "note": 69, "velocity": 117, "channel": 0}, {"type": "note_off", "time": 98, "note": 69, "velocity": 117, "channel": 0}, {"type": "note_on", "time": 5, "note": 68, "velocity": 112, "channel": 0}, {"type": "note_off", "time": 93, "note": 68, "velocity": 112, "channel": 0}, {"type": "note_on", "time": 363, "note": 67, "velocity": 114, "channel": 0}, {"type": "note_off", "time": 76, "note": 67, "velocity": 114, "channel": 0}, {"type": "note_on", "time": 14, "note": 68, "velocity": 105, "channel": 0}, {"type": "note_on", "time": 42, "note": 67, "velocity": 102, "channel": 0}, {"type": "note_off", "time": 0, "note": 68, "velocity": 105, "channel": 0}, {"type": "note_off", "time": 59, "note": 67, "velocity": 102, "channel": 0}, {"type": "note_on", "time": 0, "note": 65, "velocity": 104, "channel": 0}, {"type": "note_off", "time": 62, "note": 65, "velocity": 104, "channel": 0}, {"type": "note_on", "time": 8, "note": 64, "velocity": 108, "channel": 0}, {"type": "note_off", "time": 104, "note": 64, "velocity": 108, "channel": 0}, {"type": "note_on", "time": 8, "note": 62, "velocity": 106, "channel": 0}, {"type": "note_off", "time": 59, "note": 62, "velocity": 106, "channel": 0}, {"type": "note_on", "time": 14, "note": 61, "velocity": 104, "channel": 0}, {"type": "note_off", "time": 101, "note": 61, "velocity": 104, "channel": 0}, {"type": "note_on", "time": 28, "note": 58, "velocity": 111, "channel": 0}, {"type": "note_off", "time": 73, "note": 58, "velocity": 111, "channel": 0}, {"type": "note_on", "time": 14, "note": 57, "velocity": 98, "channel": 0}, {"type": "note_off", "time": 76, "note": 57, "velocity": 98, "channel": 0}, {"type": "note_on", "time": 14, "note": 55, "velocity": 102, "channel": 0}, {"type": "note_off", "time": 98, "note": 55, "velocity": 102, "channel": 0}, {"type": "note_on", "time": 2, "note": 54, "velocity": 84, "channel": 0}, {"type": "note_off", "time": 64, "note": 54, "velocity": 84, "channel": 0}, {"type": "note_on", "time": 31, "note": 57, "velocity": 88, "channel": 0}, {"type": "note_off", "time": 47, "note": 57, "velocity": 88, "channel": 0}, {"type": "note_on", "time": 22, "note": 60, "velocity": 108, "channel": 0}, {"type": "note_off", "time": 118, "note": 60, "velocity": 108, "channel": 0}, {"type": "note_on", "time": 0, "note": 63, "velocity": 105, "channel": 0}, {"type": "note_off", "time": 67, "note": 63, "velocity": 105, "channel": 0}, {"type": "note_on", "time": 36, "note": 60, "velocity": 102, "channel": 0}, {"type": "note_off", "time": 84, "note": 60, "velocity": 102, "channel": 0}, {"type": "note_on", "time": 5, "note": 61, "velocity": 106, "channel": 0}, {"type": "note_off", "time": 81, "note": 61, "velocity": 106, "channel": 0}, {"type": "note_on", "time": 16, "note": 62, "velocity": 107, "channel": 0}, {"type": "note_off", "time": 78, "note": 62, "velocity": 107, "channel": 0}, {"type": "note_on", "time": 5, "note": 58, "velocity": 113, "channel": 0}, {"type": "note_off", "time": 81, "note": 58, "velocity": 113, "channel": 0}, {"type": "note_on", "time": 11, "note": 57, "velocity": 104, "channel": 0}, {"type": "note_off", "time": 81, "note": 57, "velocity": 104, "channel": 0}, {"type": "note_on", "time": 25, "note": 55, "velocity": 98, "channel": 0}, {"type": "note_off", "time": 64, "note": 55, "velocity": 98, "channel": 0}, {"type": "note_on", "time": 5, "note": 60, "velocity": 114, "channel": 0}, {"type": "note_off", "time": 110, "note": 60, "velocity": 114, "channel": 0}, {"type": "note_on", "time": 11, "note": 58, "velocity": 115, "channel": 0}, {"type": "note_off", "time": 73, "note": 58, "velocity": 115, "channel": 0}, {"type": "note_on", "time": 14, "note": 57, "velocity": 102, "channel": 0}, {"type": "note_off", "time": 70, "note": 57, "velocity": 102, "channel": 0}, {"type": "note_on", "time": 19, "note": 58, "velocity": 97, "channel": 0}, {"type": "note_off", "time": 56, "note": 58, "velocity": 97, "channel": 0}, {"type": "note_on", "time": 16, "note": 59, "velocity": 108, "channel": 0}, {"type": "note_off", "time": 138, "note": 59, "velocity": 108, "channel": 0}, {"type": "note_on", "time": 8, "note": 62, "velocity": 92, "channel": 0}, {"type": "note_on", "time": 36, "note": 65, "velocity": 118, "channel": 0}, {"type": "note_off", "time": 0, "note": 62, "velocity": 92, "channel": 0}, {"type": "note_off", "time": 129, "note": 65, "velocity": 118, "channel": 0}, {"type": "note_on", "time": 4, "note": 66, "velocity": 119, "channel": 0}, {"type": "note_off", "time": 48, "note": 66, "velocity": 119, "channel": 0}, {"type": "note_on", "time": 0, "note": 67, "velocity": 109, "channel": 0}, {"type": "note_off", "time": 205, "note": 67, "velocity": 109, "channel": 0}, {"type": "note_on", "time": 5, "note": 66, "velocity": 109, "channel": 0}, {"type": "note_off", "time": 130, "note": 66, "velocity": 109, "channel": 0}, {"type": "note_on", "time": 68, "note": 65, "velocity": 118, "channel": 0}, {"type": "note_off", "time": 104, "note": 65, "velocity": 118, "channel": 0}, {"type": "note_on", "time": 22, "note": 62, "velocity": 109, "channel": 0}, {"type": "note_off", "time": 96, "note": 62, "velocity": 109, "channel": 0}, {"type": "note_on", "time": 341, "note": 66, "velocity": 106, "channel": 0}, {"type": "note_off", "time": 48, "note": 66, "velocity": 106, "channel": 0}, {"type": "note_on", "time": 12, "note": 67, "velocity": 99, "channel": 0}, {"type": "note_off", "time": 298, "note": 67, "velocity": 99, "channel": 0}, {"type": "note_on", "time": 6, "note": 65, "velocity": 112, "channel": 0}, {"type": "note_off", "time": 128, "note": 65, "velocity": 112, "channel": 0}, {"type": "note_on", "time": 102, "note": 63, "velocity": 103, "channel": 0}, {"type": "note_off", "time": 40, "note": 63, "velocity": 103, "channel": 0}, {"type": "note_on", "time": 2, "note": 64, "velocity": 34, "channel": 0}, {"type": "note_off", "time": 140, "note": 64, "velocity": 34, "channel": 0}, {"type": "note_on", "time": 2, "note": 62, "velocity": 108, "channel": 0}, {"type": "note_off", "time": 130, "note": 62, "velocity": 108, "channel": 0}, {"type": "note_on", "time": 70, "note": 60, "velocity": 103, "channel": 0}, {"type": "note_off", "time": 174, "note": 60, "velocity": 103, "channel": 0}, {"type": "note_on", "time": 12, "note": 59, "velocity": 103, "channel": 0}, {"type": "note_off", "time": 142, "note": 59, "velocity": 103, "channel": 0}, {"type": "note_on", "time": 62, "note": 56, "velocity": 98, "channel": 0}, {"type": "note_off", "time": 22, "note": 56, "velocity": 98, "channel": 0}, {"type": "note_on", "time": 10, "note": 57, "velocity": 99, "channel": 0}, {"type": "note_off", "time": 128, "note": 57, "velocity": 99, "channel": 0}, {"type": "note_on", "time": 6, "note": 55, "velocity": 105, "channel": 0}, {"type": "note_off", "time": 132, "note": 55, "velocity": 105, "channel": 0}, {"type": "note_on", "time": 218, "note": 57, "velocity": 108, "channel": 0}, {"type": "note_off", "time": 25, "note": 57, "velocity": 108, "channel": 0}, {"type": "note_on", "time": 8, "note": 55, "velocity": 100, "channel": 0}, {"type": "note_off", "time": 22, "note": 55, "velocity": 100, "channel": 0}, {"type": "note_on", "time": 1, "note": 53, "velocity": 99, "channel": 0}, {"type": "note_off", "time": 66, "note": 53, "velocity": 99, "channel": 0}, {"type": "note_on", "time": 46, "note": 55, "velocity": 110, "channel": 0}, {"type": "note_off", "time": 72, "note": 55, "velocity": 110, "channel": 0}, {"type": "note_on", "time": 16, "note": 58, "velocity": 113, "channel": 0}, {"type": "note_off", "time": 88, "note": 58, "velocity": 113, "channel": 0}, {"type": "note_on", "time": 8, "note": 62, "velocity": 116, "channel": 0}, {"type": "note_off", "time": 72, "note": 62, "velocity": 116, "channel": 0}, {"type": "note_on", "time": 20, "note": 57, "velocity": 102, "channel": 0}, {"type": "note_off", "time": 100, "note": 57, "velocity": 102, "channel": 0}, {"type": "note_on", "time": 6, "note": 55, "velocity": 94, "channel": 0}, {"type": "note_on", "time": 56, "note": 60, "velocity": 117, "channel": 0}, {"type": "note_off", "time": 0, "note": 55, "velocity": 94, "channel": 0}, {"type": "note_off", "time": 108, "note": 60, "velocity": 117, "channel": 0}, {"type": "note_on", "time": 6, "note": 59, "velocity": 108, "channel": 0}, {"type": "note_off", "time": 90, "note": 59, "velocity": 108, "channel": 0}, {"type": "note_on", "time": 18, "note": 58, "velocity": 107, "channel": 0}, {"type": "note_off", "time": 98, "note": 58, "velocity": 107, "channel": 0}, {"type": "note_on", "time": 8, "note": 60, "velocity": 107, "channel": 0}, {"type": "note_off", "time": 70, "note": 60, "velocity": 107, "channel": 0}, {"type": "note_on", "time": 38, "note": 55, "velocity": 95, "channel": 0}, {"type": "note_off", "time": 67, "note": 55, "velocity": 95, "channel": 0}, {"type": "note_on", "time": 18, "note": 56, "velocity": 106, "channel": 0}, {"type": "note_off", "time": 60, "note": 56, "velocity": 106, "channel": 0}, {"type": "note_on", "time": 14, "note": 57, "velocity": 96, "channel": 0}, {"type": "note_off", "time": 92, "note": 57, "velocity": 96, "channel": 0}, {"type": "note_on", "time": 6, "note": 60, "velocity": 89, "channel": 0}, {"type": "note_off", "time": 48, "note": 60, "velocity": 89, "channel": 0}, {"type": "note_on", "time": 12, "note": 62, "velocity": 104, "channel": 0}, {"type": "note_off", "time": 124, "note": 62, "velocity": 104, "channel": 0}, {"type": "note_on", "time": 10, "note": 60, "velocity": 98, "channel": 0}, {"type": "note_off", "time": 42, "note": 60, "velocity": 98, "channel": 0}, {"type": "note_on", "time": 10, "note": 65, "velocity": 122, "channel": 0}, {"type": "note_off", "time": 118, "note": 65, "velocity": 122, "channel": 0}, {"type": "note_on", "time": 94, "note": 67, "velocity": 115, "channel": 0}, {"type": "note_off", "time": 128, "note": 67, "velocity": 115, "channel": 0}, {"type": "note_on", "time": 40, "note": 69, "velocity": 121, "channel": 0}, {"type": "note_off", "time": 96, "note": 69, "velocity": 121, "channel": 0}, {"type": "note_on", "time": 40, "note": 71, "velocity": 112, "channel": 0}, {"type": "note_off", "time": 42, "note": 71, "velocity": 112, "channel": 0}, {"type": "note_on", "time": 6, "note": 72, "velocity": 107, "channel": 0}, {"type": "note_off", "time": 196, "note": 72, "velocity": 107, "channel": 0}, {"type": "note_on", "time": 18, "note": 69, "velocity": 115, "channel": 0}, {"type": "note_off", "time": 88, "note": 69, "velocity": 115, "channel": 0}, {"type": "note_on", "time": 50, "note": 60, "velocity": 96, "channel": 0}, {"type": "note_off", "time": 363, "note": 60, "velocity": 96, "channel": 0}, {"type": "note_on", "time": 160, "note": 69, "velocity": 118, "channel": 0}, {"type": "note_off", "time": 82, "note": 69, "velocity": 118, "channel": 0}, {"type": "note_on", "time": 14, "note": 70, "velocity": 113, "channel": 0}, {"type": "note_off", "time": 76, "note": 70, "velocity": 113, "channel": 0}, {"type": "note_on", "time": 14, "note": 69, "velocity": 120, "channel": 0}, {"type": "note_off", "time": 112, "note": 69, "velocity": 120, "channel": 0}, {"type": "note_on", "time": 14, "note": 67, "velocity": 105, "channel": 0}, {"type": "note_off", "time": 66, "note": 67, "velocity": 105, "channel": 0}, {"type": "note_on", "time": 8, "note": 65, "velocity": 111, "channel": 0}, {"type": "note_off", "time": 78, "note": 65, "velocity": 111, "channel": 0}, {"type": "note_on", "time": 8, "note": 64, "velocity": 106, "channel": 0}, {"type": "note_off", "time": 84, "note": 64, "velocity": 106, "channel": 0}, {"type": "note_on", "time": 20, "note": 62, "velocity": 104, "channel": 0}, {"type": "note_off", "time": 78, "note": 62, "velocity": 104, "channel": 0}, {"type": "note_on", "time": 8, "note": 61, "velocity": 97, "channel": 0}, {"type": "note_off", "time": 98, "note": 61, "velocity": 97, "channel": 0}, {"type": "note_on", "time": 8, "note": 64, "velocity": 105, "channel": 0}, {"type": "note_off", "time": 60, "note": 64, "velocity": 105, "channel": 0}, {"type": "note_on", "time": 10, "note": 67, "velocity": 98, "channel": 0}, {"type": "note_off", "time": 90, "note": 67, "velocity": 98, "channel": 0}, {"type": "note_on", "time": 66, "note": 70, "velocity": 95, "channel": 0}, {"type": "note_off", "time": 36, "note": 70, "velocity": 95, "channel": 0}, {"type": "note_on", "time": 18, "note": 72, "velocity": 112, "channel": 0}, {"type": "note_off", "time": 96, "note": 72, "velocity": 112, "channel": 0}, {"type": "note_on", "time": 10, "note": 74, "velocity": 111, "channel": 0}, {"type": "note_off", "time": 18, "note": 74, "velocity": 111, "channel": 0}, {"type": "note_on", "time": 16, "note": 72, "velocity": 112, "channel": 0}, {"type": "note_off", "time": 44, "note": 72, "velocity": 112, "channel": 0}, {"type": "note_on", "time": 10, "note": 70, "velocity": 113, "channel": 0}, {"type": "note_off", "time": 74, "note": 70, "velocity": 113, "channel": 0}, {"type": "note_on", "time": 16, "note": 72, "velocity": 102, "channel": 0}, {"type": "note_off", "time": 20, "note": 72, "velocity": 102, "channel": 0}, {"type": "note_on", "time": 10, "note": 70, "velocity": 112, "channel": 0}, {"type": "note_off", "time": 52, "note": 70, "velocity": 112, "channel": 0}, {"type": "note_on", "time": 0, "note": 69, "velocity": 116, "channel": 0}, {"type": "note_off", "time": 106, "note": 69, "velocity": 116, "channel": 0}, {"type": "note_on", "time": 20, "note": 65, "velocity": 110, "channel": 0}, {"type": "note_off", "time": 84, "note": 65, "velocity": 110, "channel": 0}, {"type": "note_on", "time": 0, "note": 61, "velocity": 103, "channel": 0}, {"type": "note_off", "time": 106, "note": 61, "velocity": 103, "channel": 0}, {"type": "note_on", "time": 62, "note": 64, "velocity": 108, "channel": 0}, {"type": "note_off", "time": 136, "note": 64, "velocity": 108, "channel": 0}, {"type": "note_on", "time": 14, "note": 61, "velocity": 100, "channel": 0}, {"type": "note_off", "time": 44, "note": 61, "velocity": 100, "channel": 0}, {"type": "note_on", "time": 14, "note": 62, "velocity": 104, "channel": 0}, {"type": "note_off", "time": 94, "note": 62, "velocity": 104, "channel": 0}, {"type": "note_on", "time": 34, "note": 65, "velocity": 117, "channel": 0}, {"type": "note_off", "time": 140, "note": 65, "velocity": 117, "channel": 0}, {"type": "note_on", "time": 367, "note": 70, "velocity": 95, "channel": 0}, {"type": "note_off", "time": 46, "note": 70, "velocity": 95, "channel": 0}, {"type": "note_on", "time": 2, "note": 69, "velocity": 124, "channel": 0}, {"type": "note_off", "time": 64, "note": 69, "velocity": 124, "channel": 0}, {"type": "note_on", "time": 10, "note": 68, "velocity": 124, "channel": 0}, {"type": "note_off", "time": 56, "note": 68, "velocity": 124, "channel": 0}, {"type": "note_on", "time": 36, "note": 72, "velocity": 118, "channel": 0}, {"type": "note_off", "time": 74, "note": 72, "velocity": 118, "channel": 0}, {"type": "note_on", "time": 90, "note": 67, "velocity": 117, "channel": 0}, {"type": "note_off", "time": 54, "note": 67, "velocity": 117, "channel": 0}, {"type": "note_on", "time": 10, "note": 66, "velocity": 113, "channel": 0}, {"type": "note_off", "time": 60, "note": 66, "velocity": 113, "channel": 0}, {"type": "note_on", "time": 12, "note": 65, "velocity": 104, "channel": 0}, {"type": "note_off", "time": 42, "note": 65, "velocity": 104, "channel": 0}, {"type": "note_on", "time": 36, "note": 58, "velocity": 107, "channel": 0}, {"type": "note_off", "time": 76, "note": 58, "velocity": 107, "channel": 0}, {"type": "note_on", "time": 94, "note": 69, "velocity": 117, "channel": 0}, {"type": "note_off", "time": 60, "note": 69, "velocity": 117, "channel": 0}, {"type": "note_on", "time": 2, "note": 68, "velocity": 115, "channel": 0}, {"type": "note_off", "time": 56, "note": 68, "velocity": 115, "channel": 0}, {"type": "note_on", "time": 0, "note": 67, "velocity": 111, "channel": 0}, {"type": "note_off", "time": 60, "note": 67, "velocity": 111, "channel": 0}, {"type": "note_on", "time": 50, "note": 71, "velocity": 106, "channel": 0}, {"type": "note_off", "time": 76, "note": 71, "velocity": 106, "channel": 0}, {"type": "note_on", "time": 106, "note": 66, "velocity": 108, "channel": 0}, {"type": "note_off", "time": 44, "note": 66, "velocity": 108, "channel": 0}, {"type": "note_on", "time": 22, "note": 64, "velocity": 103, "channel": 0}, {"type": "note_off", "time": 52, "note": 64, "velocity": 103, "channel": 0}, {"type": "note_on", "time": 48, "note": 57, "velocity": 96, "channel": 0}, {"type": "note_off", "time": 72, "note": 57, "velocity": 96, "channel": 0}, {"type": "note_on", "time": 288, "note": 60, "velocity": 102, "channel": 0}, {"type": "note_off", "time": 32, "note": 60, "velocity": 102, "channel": 0}, {"type": "note_on", "time": 6, "note": 59, "velocity": 107, "channel": 0}, {"type": "note_off", "time": 26, "note": 59, "velocity": 107, "channel": 0}, {"type": "note_on", "time": 12, "note": 58, "velocity": 102, "channel": 0}, {"type": "note_off", "time": 72, "note": 58, "velocity": 102, "channel": 0}, {"type": "note_on", "time": 52, "note": 57, "velocity": 106, "channel": 0}, {"type": "note_off", "time": 54, "note": 57, "velocity": 106, "channel": 0}, {"type": "note_on", "time": 4, "note": 55, "velocity": 99, "channel": 0}, {"type": "note_off", "time": 118, "note": 55, "velocity": 99, "channel": 0}, {"type": "note_on", "time": 28, "note": 53, "velocity": 100, "channel": 0}, {"type": "note_off", "time": 66, "note": 53, "velocity": 100, "channel": 0}, {"type": "note_on", "time": 4, "note": 54, "velocity": 93, "channel": 0}, {"type": "note_off", "time": 98, "note": 54, "velocity": 93, "channel": 0}, {"type": "note_on", "time": 15, "note": 63, "velocity": 106, "channel": 0}, {"type": "note_off", "time": 68, "note": 63, "velocity": 106, "channel": 0}, {"type": "note_on", "time": 20, "note": 60, "velocity": 102, "channel": 0}, {"type": "note_off", "time": 80, "note": 60, "velocity": 102, "channel": 0}, {"type": "note_on", "time": 24, "note": 61, "velocity": 106, "channel": 0}, {"type": "note_off", "time": 70, "note": 61, "velocity": 106, "channel": 0}, {"type": "note_on", "time": 4, "note": 62, "velocity": 108, "channel": 0}, {"type": "note_off", "time": 82, "note": 62, "velocity": 108, "channel": 0}, {"type": "note_on", "time": 36, "note": 58, "velocity": 110, "channel": 0}, {"type": "note_off", "time": 88, "note": 58, "velocity": 110, "channel": 0}, {"type": "note_on", "time": 2, "note": 57, "velocity": 99, "channel": 0}, {"type": "note_off", "time": 66, "note": 57, "velocity": 99, "channel": 0}, {"type": "note_on", "time": 20, "note": 55, "velocity": 96, "channel": 0}, {"type": "note_off", "time": 68, "note": 55, "velocity": 96, "channel": 0}, {"type": "note_on", "time": 22, "note": 60, "velocity": 107, "channel": 0}, {"type": "note_off", "time": 102, "note": 60, "velocity": 107, "channel": 0}, {"type": "note_on", "time": 16, "note": 58, "velocity": 112, "channel": 0}, {"type": "note_off", "time": 90, "note": 58, "velocity": 112, "channel": 0}, {"type": "note_on", "time": 10, "note": 59, "velocity": 100, "channel": 0}, {"type": "note_off", "time": 62, "note": 59, "velocity": 100, "channel": 0}, {"type": "note_on", "time": 8, "note": 61, "velocity": 103, "channel": 0}, {"type": "note_off", "time": 70, "note": 61, "velocity": 103, "channel": 0}, {"type": "note_on", "time": 4, "note": 62, "velocity": 102, "channel": 0}, {"type": "note_off", "time": 78, "note": 62, "velocity": 102, "channel": 0}, {"type": "note_on", "time": 40, "note": 64, "velocity": 107, "channel": 0}, {"type": "note_off", "time": 78, "note": 64, "velocity": 107, "channel": 0}, {"type": "note_on", "time": 8, "note": 65, "velocity": 104, "channel": 0}, {"type": "note_off", "time": 92, "note": 65, "velocity": 104, "channel": 0}, {"type": "note_on", "time": 16, "note": 67, "velocity": 97, "channel": 0}, {"type": "note_off", "time": 72, "note": 67, "velocity": 97, "channel": 0}, {"type": "note_on", "time": 14, "note": 68, "velocity": 119, "channel": 0}, {"type": "note_off", "time": 88, "note": 68, "velocity": 119, "channel": 0}, {"type": "note_on", "time": 10, "note": 69, "velocity": 124, "channel": 0}, {"type": "note_off", "time": 82, "note": 69, "velocity": 124, "channel": 0}, {"type": "note_on", "time": 12, "note": 70, "velocity": 116, "channel": 0}, {"type": "note_off", "time": 92, "note": 70, "velocity": 116, "channel": 0}, {"type": "note_on", "time": 14, "note": 71, "velocity": 100, "channel": 0}, {"type": "note_off", "time": 56, "note": 71, "velocity": 100, "channel": 0}, {"type": "note_on", "time": 20, "note": 72, "velocity": 115, "channel": 0}, {"type": "note_off", "time": 100, "note": 72, "velocity": 115, "channel": 0}, {"type": "note_on", "time": 34, "note": 62, "velocity": 107, "channel": 0}, {"type": "note_off", "time": 90, "note": 62, "velocity": 107, "channel": 0}, {"type": "note_on", "time": 517, "note": 67, "velocity": 115, "channel": 0}, {"type": "note_off", "time": 148, "note": 67, "velocity": 115, "channel": 0}, {"type": "note_on", "time": 0, "note": 70, "velocity": 93, "channel": 0}, {"type": "note_off", "time": 30, "note": 70, "velocity": 93, "channel": 0}, {"type": "note_on", "time": 26, "note": 74, "velocity": 114, "channel": 0}, {"type": "note_off", "time": 116, "note": 74, "velocity": 114, "channel": 0}, {"type": "note_on", "time": 4, "note": 66, "velocity": 120, "channel": 0}, {"type": "note_off", "time": 128, "note": 66, "velocity": 120, "channel": 0}, {"type": "note_on", "time": 26, "note": 70, "velocity": 96, "channel": 0}, {"type": "note_off", "time": 30, "note": 70, "velocity": 96, "channel": 0}, {"type": "note_on", "time": 18, "note": 74, "velocity": 107, "channel": 0}, {"type": "note_off", "time": 46, "note": 74, "velocity": 107, "channel": 0}, {"type": "note_on", "time": 18, "note": 65, "velocity": 118, "channel": 0}, {"type": "note_off", "time": 116, "note": 65, "velocity": 118, "channel": 0}, {"type": "note_on", "time": 20, "note": 70, "velocity": 93, "channel": 0}, {"type": "note_off", "time": 34, "note": 70, "velocity": 93, "channel": 0}, {"type": "note_on", "time": 20, "note": 74, "velocity": 109, "channel": 0}, {"type": "note_off", "time": 100, "note": 74, "velocity": 109, "channel": 0}, {"type": "note_on", "time": 26, "note": 62, "velocity": 102, "channel": 0}, {"type": "note_off", "time": 38, "note": 62, "velocity": 102, "channel": 0}, {"type": "note_on", "time": 0, "note": 64, "velocity": 104, "channel": 0}, {"type": "note_off", "time": 92, "note": 64, "velocity": 104, "channel": 0}, {"type": "note_on", "time": 0, "note": 68, "velocity": 83, "channel": 0}, {"type": "note_off", "time": 22, "note": 68, "velocity": 83, "channel": 0}, {"type": "note_on", "time": 14, "note": 74, "velocity": 96, "channel": 0}, {"type": "note_off", "time": 98, "note": 74, "velocity": 96, "channel": 0}, {"type": "note_on", "time": 6, "note": 69, "velocity": 125, "channel": 0}, {"type": "note_off", "time": 114, "note": 69, "velocity": 125, "channel": 0}, {"type": "note_on", "time": 12, "note": 67, "velocity": 102, "channel": 0}, {"type": "note_off", "time": 30, "note": 67, "velocity": 102, "channel": 0}, {"type": "note_on", "time": 28, "note": 72, "velocity": 117, "channel": 0}, {"type": "note_off", "time": 106, "note": 72, "velocity": 117, "channel": 0}, {"type": "note_on", "time": 96, "note": 69, "velocity": 120, "channel": 0}, {"type": "note_off", "time": 118, "note": 69, "velocity": 120, "channel": 0}, {"type": "note_on", "time": 52, "note": 76, "velocity": 121, "channel": 0}, {"type": "note_off", "time": 116, "note": 76, "velocity": 121, "channel": 0}, {"type": "note_on", "time": 18, "note": 68, "velocity": 113, "channel": 0}, {"type": "note_off", "time": 122, "note": 68, "velocity": 113, "channel": 0}, {"type": "note_on", "time": 38, "note": 76, "velocity": 102, "channel": 0}, {"type": "note_off", "time": 94, "note": 76, "velocity": 102, "channel": 0}, {"type": "note_on", "time": 10, "note": 67, "velocity": 109, "channel": 0}, {"type": "note_off", "time": 138, "note": 67, "velocity": 109, "channel": 0}, {"type": "note_on", "time": 45, "note": 76, "velocity": 116, "channel": 0}, {"type": "note_off", "time": 129, "note": 76, "velocity": 116, "channel": 0}, {"type": "note_on", "time": 8, "note": 66, "velocity": 108, "channel": 0}, {"type": "note_off", "time": 121, "note": 66, "velocity": 108, "channel": 0}, {"type": "note_on", "time": 11, "note": 72, "velocity": 84, "channel": 0}, {"type": "note_off", "time": 19, "note": 72, "velocity": 84, "channel": 0}, {"type": "note_on", "time": 5, "note": 76, "velocity": 111, "channel": 0}, {"type": "note_off", "time": 98, "note": 76, "velocity": 111, "channel": 0}, {"type": "note_on", "time": 8, "note": 71, "velocity": 108, "channel": 0}, {"type": "note_off", "time": 101, "note": 71, "velocity": 108, "channel": 0}, {"type": "note_on", "time": 0, "note": 69, "velocity": 103, "channel": 0}, {"type": "note_off", "time": 53, "note": 69, "velocity": 103, "channel": 0}, {"type": "note_on", "time": 25, "note": 74, "velocity": 114, "channel": 0}, {"type": "note_off", "time": 104, "note": 74, "velocity": 114, "channel": 0}, {"type": "note_on", "time": 78, "note": 67, "velocity": 111, "channel": 0}, {"type": "note_off", "time": 135, "note": 67, "velocity": 111, "channel": 0}, {"type": "note_on", "time": 42, "note": 74, "velocity": 108, "channel": 0}, {"type": "note_off", "time": 110, "note": 74, "velocity": 108, "channel": 0}, {"type": "note_on", "time": 11, "note": 66, "velocity": 111, "channel": 0}, {"type": "note_off", "time": 129, "note": 66, "velocity": 111, "channel": 0}, {"type": "note_on", "time": 11, "note": 70, "velocity": 86, "channel": 0}, {"type": "note_off", "time": 39, "note": 70, "velocity": 86, "channel": 0}, {"type": "note_on", "time": 8, "note": 74, "velocity": 97, "channel": 0}, {"type": "note_off", "time": 70, "note": 74, "velocity": 97, "channel": 0}, {"type": "note_on", "time": 5, "note": 65, "velocity": 112, "channel": 0}, {"type": "note_off", "time": 129, "note": 65, "velocity": 112, "channel": 0}, {"type": "note_on", "time": 59, "note": 74, "velocity": 109, "channel": 0}, {"type": "note_off", "time": 84, "note": 74, "velocity": 109, "channel": 0}, {"type": "note_on", "time": 62, "note": 64, "velocity": 101, "channel": 0}, {"type": "note_off", "time": 112, "note": 64, "velocity": 101, "channel": 0}, {"type": "note_on", "time": 16, "note": 67, "velocity": 85, "channel": 0}, {"type": "note_off", "time": 42, "note": 67, "velocity": 85, "channel": 0}, {"type": "note_on", "time": 0, "note": 74, "velocity": 100, "channel": 0}, {"type": "note_off", "time": 59, "note": 74, "velocity": 100, "channel": 0}, {"type": "note_on", "time": 5, "note": 69, "velocity": 123, "channel": 0}, {"type": "note_off", "time": 143, "note": 69, "velocity": 123, "channel": 0}, {"type": "note_on", "time": 27, "note": 67, "velocity": 93, "channel": 0}, {"type": "note_off", "time": 46, "note": 67, "velocity": 93, "channel": 0}, {"type": "note_on", "time": 0, "note": 72, "velocity": 110, "channel": 0}, {"type": "note_off", "time": 84, "note": 72, "velocity": 110, "channel": 0}, {"type": "note_on", "time": 2, "note": 70, "velocity": 117, "channel": 0}, {"type": "note_off", "time": 81, "note": 70, "velocity": 117, "channel": 0}, {"type": "note_on", "time": 5, "note": 69, "velocity": 116, "channel": 0}, {"type": "note_off", "time": 112, "note": 69, "velocity": 116, "channel": 0}, {"type": "note_on", "time": 16, "note": 65, "velocity": 112, "channel": 0}, {"type": "note_off", "time": 56, "note": 65, "velocity": 112, "channel": 0}, {"type": "note_on", "time": 8, "note": 62, "velocity": 110, "channel": 0}, {"type": "note_off", "time": 95, "note": 62, "velocity": 110, "channel": 0}, {"type": "note_on", "time": 11, "note": 60, "velocity": 96, "channel": 0}, {"type": "note_off", "time": 73, "note": 60, "velocity": 96, "channel": 0}, {"type": "note_on", "time": 8, "note": 67, "velocity": 115, "channel": 0}, {"type": "note_off", "time": 132, "note": 67, "velocity": 115, "channel": 0}, {"type": "note_on", "time": 16, "note": 62, "velocity": 109, "channel": 0}, {"type": "note_off", "time": 101, "note": 62, "velocity": 109, "channel": 0}, {"type": "note_on", "time": 301, "note": 70, "velocity": 112, "channel": 0}, {"type": "note_off", "time": 53, "note": 70, "velocity": 112, "channel": 0}, {"type": "note_on", "time": 11, "note": 72, "velocity": 111, "channel": 0}, {"type": "note_off", "time": 615, "note": 72, "velocity": 111, "channel": 0}, {"type": "note_on", "time": 6, "note": 71, "velocity": 116, "channel": 0}, {"type": "note_off", "time": 34, "note": 71, "velocity": 116, "channel": 0}, {"type": "note_on", "time": 6, "note": 70, "velocity": 118, "channel": 0}, {"type": "note_off", "time": 30, "note": 70, "velocity": 118, "channel": 0}, {"type": "note_on", "time": 12, "note": 69, "velocity": 119, "channel": 0}, {"type": "note_off", "time": 108, "note": 69, "velocity": 119, "channel": 0}, {"type": "note_on", "time": 6, "note": 65, "velocity": 108, "channel": 0}, {"type": "note_off", "time": 74, "note": 65, "velocity": 108, "channel": 0}, {"type": "note_on", "time": 14, "note": 62, "velocity": 98, "channel": 0}, {"type": "note_off", "time": 92, "note": 62, "velocity": 98, "channel": 0}, {"type": "note_on", "time": 8, "note": 60, "velocity": 101, "channel": 0}, {"type": "note_off", "time": 84, "note": 60, "velocity": 101, "channel": 0}, {"type": "note_on", "time": 10, "note": 67, "velocity": 111, "channel": 0}, {"type": "note_off", "time": 112, "note": 67, "velocity": 111, "channel": 0}, {"type": "note_on", "time": 8, "note": 62, "velocity": 104, "channel": 0}, {"type": "note_off", "time": 88, "note": 62, "velocity": 104, "channel": 0}, {"type": "note_on", "time": 95, "note": 70, "velocity": 115, "channel": 0}, {"type": "note_off", "time": 75, "note": 70, "velocity": 115, "channel": 0}, {"type": "note_on", "time": 7, "note": 71, "velocity": 108, "channel": 0}, {"type": "note_off", "time": 666, "note": 71, "velocity": 108, "channel": 0}, {"type": "note_on", "time": 4, "note": 69, "velocity": 107, "channel": 0}, {"type": "note_off", "time": 34, "note": 69, "velocity": 107, "channel": 0}, {"type": "note_on", "time": 0, "note": 68, "velocity": 111, "channel": 0}, {"type": "note_off", "time": 44, "note": 68, "velocity": 111, "channel": 0}, {"type": "note_on", "time": 8, "note": 67, "velocity": 104, "channel": 0}, {"type": "note_off", "time": 84, "note": 67, "velocity": 104, "channel": 0}, {"type": "note_on", "time": 20, "note": 64, "velocity": 102, "channel": 0}, {"type": "note_off", "time": 72, "note": 64, "velocity": 102, "channel": 0}, {"type": "note_on", "time": 16, "note": 62, "velocity": 96, "channel": 0}, {"type": "note_off", "time": 76, "note": 62, "velocity": 96, "channel": 0}, {"type": "note_on", "time": 14, "note": 59, "velocity": 96, "channel": 0}, {"type": "note_off", "time": 76, "note": 59, "velocity": 96, "channel": 0}, {"type": "note_on", "time": 16, "note": 60, "velocity": 100, "channel": 0}, {"type": "note_off", "time": 104, "note": 60, "velocity": 100, "channel": 0}, {"type": "note_on", "time": 8, "note": 61, "velocity": 105, "channel": 0}, {"type": "note_off", "time": 70, "note": 61, "velocity": 105, "channel": 0}, {"type": "note_on", "time": 266, "note": 57, "velocity": 100, "channel": 0}, {"type": "note_off", "time": 90, "note": 57, "velocity": 100, "channel": 0}, {"type": "note_on", "time": 14, "note": 59, "velocity": 93, "channel": 0}, {"type": "note_off", "time": 94, "note": 59, "velocity": 93, "channel": 0}, {"type": "note_on", "time": 18, "note": 61, "velocity": 105, "channel": 0}, {"type": "note_off", "time": 74, "note": 61, "velocity": 105, "channel": 0}, {"type": "note_on", "time": 0, "note": 64, "velocity": 105, "channel": 0}, {"type": "note_off", "time": 106, "note": 64, "velocity": 105, "channel": 0}, {"type": "note_on", "time": 28, "note": 61, "velocity": 94, "channel": 0}, {"type": "note_off", "time": 78, "note": 61, "velocity": 94, "channel": 0}, {"type": "note_on", "time": 16, "note": 62, "velocity": 96, "channel": 0}, {"type": "note_off", "time": 84, "note": 62, "velocity": 96, "channel": 0}, {"type": "note_on", "time": 14, "note": 64, "velocity": 103, "channel": 0}, {"type": "note_off", "time": 94, "note": 64, "velocity": 103, "channel": 0}, {"type": "note_on", "time": 8, "note": 65, "velocity": 92, "channel": 0}, {"type": "note_off", "time": 76, "note": 65, "velocity": 92, "channel": 0}, {"type": "note_on", "time": 18, "note": 67, "velocity": 78, "channel": 0}, {"type": "note_off", "time": 60, "note": 67, "velocity": 78, "channel": 0}, {"type": "note_on", "time": 0, "note": 69, "velocity": 115, "channel": 0}, {"type": "note_off", "time": 110, "note": 69, "velocity": 115, "channel": 0}, {"type": "note_on", "time": 20, "note": 65, "velocity": 108, "channel": 0}, {"type": "note_on", "time": 62, "note": 61, "velocity": 101, "channel": 0}, {"type": "note_off", "time": 0, "note": 65, "velocity": 108, "channel": 0}, {"type": "note_off", "time": 134, "note": 61, "velocity": 101, "channel": 0}, {"type": "note_on", "time": 42, "note": 64, "velocity": 98, "channel": 0}, {"type": "note_off", "time": 128, "note": 64, "velocity": 98, "channel": 0}, {"type": "note_on", "time": 24, "note": 61, "velocity": 96, "channel": 0}, {"type": "note_off", "time": 50, "note": 61, "velocity": 96, "channel": 0}, {"type": "note_on", "time": 0, "note": 62, "velocity": 103, "channel": 0}, {"type": "note_off", "time": 102, "note": 62, "velocity": 103, "channel": 0}, {"type": "note_on", "time": 28, "note": 65, "velocity": 119, "channel": 0}, {"type": "note_off", "time": 102, "note": 65, "velocity": 119, "channel": 0}, {"type": "note_on", "time": 276, "note": 69, "velocity": 117, "channel": 0}, {"type": "note_off", "time": 68, "note": 69, "velocity": 117, "channel": 0}, {"type": "note_on", "time": 6, "note": 70, "velocity": 106, "channel": 0}, {"type": "note_off", "time": 92, "note": 70, "velocity": 106, "channel": 0}, {"type": "note_on", "time": 6, "note": 69, "velocity": 116, "channel": 0}, {"type": "note_off", "time": 90, "note": 69, "velocity": 116, "channel": 0}, {"type": "note_on", "time": 8, "note": 68, "velocity": 115, "channel": 0}, {"type": "note_off", "time": 82, "note": 68, "velocity": 115, "channel": 0}, {"type": "note_on", "time": 12, "note": 72, "velocity": 110, "channel": 0}, {"type": "note_off", "time": 86, "note": 72, "velocity": 110, "channel": 0}, {"type": "note_on", "time": 22, "note": 67, "velocity": 105, "channel": 0}, {"type": "note_off", "time": 86, "note": 67, "velocity": 105, "channel": 0}, {"type": "note_on", "time": 6, "note": 65, "velocity": 112, "channel": 0}, {"type": "note_off", "time": 64, "note": 65, "velocity": 112, "channel": 0}, {"type": "note_on", "time": 4, "note": 64, "velocity": 103, "channel": 0}, {"type": "note_off", "time": 86, "note": 64, "velocity": 103, "channel": 0}, {"type": "note_on", "time": 14, "note": 62, "velocity": 103, "channel": 0}, {"type": "note_off", "time": 84, "note": 62, "velocity": 103, "channel": 0}, {"type": "note_on", "time": 10, "note": 61, "velocity": 105, "channel": 0}, {"type": "note_off", "time": 98, "note": 61, "velocity": 105, "channel": 0}, {"type": "note_on", "time": 26, "note": 58, "velocity": 108, "channel": 0}, {"type": "note_off", "time": 60, "note": 58, "velocity": 108, "channel": 0}, {"type": "note_on", "time": 14, "note": 57, "velocity": 99, "channel": 0}, {"type": "note_off", "time": 86, "note": 57, "velocity": 99, "channel": 0}, {"type": "note_on", "time": 20, "note": 55, "velocity": 104, "channel": 0}, {"type": "note_off", "time": 76, "note": 55, "velocity": 104, "channel": 0}, {"type": "note_on", "time": 6, "note": 54, "velocity": 96, "channel": 0}, {"type": "note_off", "time": 88, "note": 54, "velocity": 96, "channel": 0}, {"type": "note_on", "time": 0, "note": 57, "velocity": 91, "channel": 0}, {"type": "note_off", "time": 50, "note": 57, "velocity": 91, "channel": 0}, {"type": "note_on", "time": 32, "note": 60, "velocity": 107, "channel": 0}, {"type": "note_off", "time": 100, "note": 60, "velocity": 107, "channel": 0}, {"type": "note_on", "time": 18, "note": 63, "velocity": 104, "channel": 0}, {"type": "note_off", "time": 64, "note": 63, "velocity": 104, "channel": 0}, {"type": "note_on", "time": 6, "note": 62, "velocity": 99, "channel": 0}, {"type": "note_off", "time": 100, "note": 62, "velocity": 99, "channel": 0}, {"type": "note_on", "time": 6, "note": 58, "velocity": 110, "channel": 0}, {"type": "note_off", "time": 100, "note": 58, "velocity": 110, "channel": 0}, {"type": "note_on", "time": 7, "note": 57, "velocity": 92, "channel": 0}, {"type": "note_off", "time": 73, "note": 57, "velocity": 92, "channel": 0}, {"type": "note_on", "time": 19, "note": 55, "velocity": 95, "channel": 0}, {"type": "note_off", "time": 56, "note": 55, "velocity": 95, "channel": 0}, {"type": "note_on", "time": 19, "note": 60, "velocity": 111, "channel": 0}, {"type": "note_off", "time": 126, "note": 60, "velocity": 111, "channel": 0}, {"type": "note_on", "time": 14, "note": 57, "velocity": 102, "channel": 0}, {"type": "note_off", "time": 46, "note": 57, "velocity": 102, "channel": 0}, {"type": "note_on", "time": 10, "note": 58, "velocity": 112, "channel": 0}, {"type": "note_off", "time": 108, "note": 58, "velocity": 112, "channel": 0}, {"type": "note_on", "time": 6, "note": 65, "velocity": 110, "channel": 0}, {"type": "note_off", "time": 399, "note": 65, "velocity": 110, "channel": 0}, {"type": "note_on", "time": 373, "note": 58, "velocity": 110, "channel": 0}, {"type": "note_off", "time": 60, "note": 58, "velocity": 110, "channel": 0}, {"type": "note_on", "time": 12, "note": 59, "velocity": 92, "channel": 0}, {"type": "note_off", "time": 98, "note": 59, "velocity": 92, "channel": 0}, {"type": "note_on", "time": 74, "note": 65, "velocity": 125, "channel": 0}, {"type": "note_off", "time": 102, "note": 65, "velocity": 125, "channel": 0}, {"type": "note_on", "time": 80, "note": 68, "velocity": 119, "channel": 0}, {"type": "note_off", "time": 106, "note": 68, "velocity": 119, "channel": 0}, {"type": "note_on", "time": 214, "note": 59, "velocity": 100, "channel": 0}, {"type": "note_off", "time": 68, "note": 59, "velocity": 100, "channel": 0}, {"type": "note_on", "time": 10, "note": 60, "velocity": 97, "channel": 0}, {"type": "note_off", "time": 114, "note": 60, "velocity": 97, "channel": 0}, {"type": "note_on", "time": 80, "note": 67, "velocity": 115, "channel": 0}, {"type": "note_off", "time": 100, "note": 67, "velocity": 115, "channel": 0}, {"type": "note_on", "time": 84, "note": 69, "velocity": 124, "channel": 0}, {"type": "note_off", "time": 96, "note": 69, "velocity": 124, "channel": 0}, {"type": "note_on", "time": 222, "note": 60, "velocity": 101, "channel": 0}, {"type": "note_off", "time": 52, "note": 60, "velocity": 101, "channel": 0}, {"type": "note_on", "time": 8, "note": 62, "velocity": 106, "channel": 0}, {"type": "note_off", "time": 98, "note": 62, "velocity": 106, "channel": 0}, {"type": "note_on", "time": 18, "note": 65, "velocity": 99, "channel": 0}, {"type": "note_off", "time": 64, "note": 65, "velocity": 99, "channel": 0}, {"type": "note_on", "time": 16, "note": 69, "velocity": 126, "channel": 0}, {"type": "note_off", "time": 86, "note": 69, "velocity": 126, "channel": 0}, {"type": "note_on", "time": 124, "note": 72, "velocity": 102, "channel": 0}, {"type": "note_off", "time": 90, "note": 72, "velocity": 102, "channel": 0}, {"type": "note_on", "time": 82, "note": 69, "velocity": 120, "channel": 0}, {"type": "note_off", "time": 110, "note": 69, "velocity": 120, "channel": 0}, {"type": "note_on", "time": 116, "note": 60, "velocity": 111, "channel": 0}, {"type": "note_off", "time": 74, "note": 60, "velocity": 111, "channel": 0}, {"type": "note_on", "time": 12, "note": 65, "velocity": 97, "channel": 0}, {"type": "note_off", "time": 64, "note": 65, "velocity": 97, "channel": 0}, {"type": "note_on", "time": 10, "note": 69, "velocity": 121, "channel": 0}, {"type": "note_off", "time": 92, "note": 69, "velocity": 121, "channel": 0}, {"type": "note_on", "time": 68, "note": 70, "velocity": 113, "channel": 0}, {"type": "note_off", "time": 48, "note": 70, "velocity": 113, "channel": 0}, {"type": "note_on", "time": 4, "note": 71, "velocity": 107, "channel": 0}, {"type": "note_off", "time": 88, "note": 71, "velocity": 107, "channel": 0}, {"type": "note_on", "time": 0, "note": 72, "velocity": 106, "channel": 0}, {"type": "note_off", "time": 40, "note": 72, "velocity": 106, "channel": 0}, {"type": "note_on", "time": 4, "note": 71, "velocity": 110, "channel": 0}, {"type": "note_off", "time": 44, "note": 71, "velocity": 110, "channel": 0}, {"type": "note_on", "time": 6, "note": 69, "velocity": 120, "channel": 0}, {"type": "note_off", "time": 110, "note": 69, "velocity": 120, "channel": 0}, {"type": "note_on", "time": 4, "note": 68, "velocity": 117, "channel": 0}, {"type": "note_off", "time": 82, "note": 68, "velocity": 117, "channel": 0}, {"type": "note_on", "time": 8, "note": 67, "velocity": 104, "channel": 0}, {"type": "note_off", "time": 106, "note": 67, "velocity": 104, "channel": 0}, {"type": "note_on", "time": 6, "note": 66, "velocity": 109, "channel": 0}, {"type": "note_off", "time": 66, "note": 66, "velocity": 109, "channel": 0}, {"type": "note_on", "time": 10, "note": 65, "velocity": 107, "channel": 0}, {"type": "note_off", "time": 76, "note": 65, "velocity": 107, "channel": 0}, {"type": "note_on", "time": 0, "note": 61, "velocity": 100, "channel": 0}, {"type": "note_off", "time": 94, "note": 61, "velocity": 100, "channel": 0}, {"type": "note_on", "time": 6, "note": 58, "velocity": 99, "channel": 0}, {"type": "note_off", "time": 94, "note": 58, "velocity": 99, "channel": 0}, {"type": "note_on", "time": 14, "note": 55, "velocity": 94, "channel": 0}, {"type": "note_off", "time": 38, "note": 55, "velocity": 94, "channel": 0}, {"type": "note_on", "time": 29, "note": 60, "velocity": 108, "channel": 0}, {"type": "note_off", "time": 115, "note": 60, "velocity": 108, "channel": 0}, {"type": "note_on", "time": 23, "note": 58, "velocity": 109, "channel": 0}, {"type": "note_off", "time": 70, "note": 58, "velocity": 109, "channel": 0}, {"type": "note_on", "time": 2, "note": 57, "velocity": 95, "channel": 0}, {"type": "note_off", "time": 104, "note": 57, "velocity": 95, "channel": 0}, {"type": "note_on", "time": 60, "note": 62, "velocity": 107, "channel": 0}, {"type": "note_off", "time": 102, "note": 62, "velocity": 107, "channel": 0}, {"type": "note_on", "time": 30, "note": 65, "velocity": 92, "channel": 0}, {"type": "note_off", "time": 44, "note": 65, "velocity": 92, "channel": 0}, {"type": "note_on", "time": 10, "note": 69, "velocity": 116, "channel": 0}, {"type": "note_off", "time": 134, "note": 69, "velocity": 116, "channel": 0}, {"type": "note_on", "time": 10, "note": 71, "velocity": 93, "channel": 0}, {"type": "note_off", "time": 44, "note": 71, "velocity": 93, "channel": 0}, {"type": "note_on", "time": 14, "note": 72, "velocity": 117, "channel": 0}, {"type": "note_off", "time": 56, "note": 72, "velocity": 117, "channel": 0}, {"type": "note_on", "time": 9, "note": 74, "velocity": 108, "channel": 0}, {"type": "note_off", "time": 37, "note": 74, "velocity": 108, "channel": 0}, {"type": "note_on", "time": 7, "note": 75, "velocity": 111, "channel": 0}, {"type": "note_off", "time": 70, "note": 75, "velocity": 111, "channel": 0}, {"type": "note_on", "time": 12, "note": 76, "velocity": 114, "channel": 0}, {"type": "note_off", "time": 573, "note": 76, "velocity": 114, "channel": 0}, {"type": "note_on", "time": 6, "note": 74, "velocity": 110, "channel": 0}, {"type": "note_off", "time": 108, "note": 74, "velocity": 110, "channel": 0}, {"type": "note_on", "time": 16, "note": 73, "velocity": 114, "channel": 0}, {"type": "note_off", "time": 70, "note": 73, "velocity": 114, "channel": 0}, {"type": "note_on", "time": 14, "note": 72, "velocity": 113, "channel": 0}, {"type": "note_off", "time": 90, "note": 72, "velocity": 113, "channel": 0}, {"type": "note_on", "time": 14, "note": 69, "velocity": 123, "channel": 0}, {"type": "note_off", "time": 102, "note": 69, "velocity": 123, "channel": 0}, {"type": "note_on", "time": 447, "note": 69, "velocity": 118, "channel": 0}, {"type": "note_off", "time": 100, "note": 69, "velocity": 118, "channel": 0}, {"type": "note_on", "time": 18, "note": 70, "velocity": 98, "channel": 0}, {"type": "note_off", "time": 58, "note": 70, "velocity": 98, "channel": 0}, {"type": "note_on", "time": 22, "note": 69, "velocity": 116, "channel": 0}, {"type": "note_off", "time": 88, "note": 69, "velocity": 116, "channel": 0}, {"type": "note_on", "time": 10, "note": 68, "velocity": 99, "channel": 0}, {"type": "note_off", "time": 56, "note": 68, "velocity": 99, "channel": 0}, {"type": "note_on", "time": 18, "note": 69, "velocity": 115, "channel": 0}, {"type": "note_off", "time": 96, "note": 69, "velocity": 115, "channel": 0}, {"type": "note_on", "time": 8, "note": 70, "velocity": 108, "channel": 0}, {"type": "note_off", "time": 80, "note": 70, "velocity": 108, "channel": 0}, {"type": "note_on", "time": 10, "note": 69, "velocity": 121, "channel": 0}, {"type": "note_off", "time": 102, "note": 69, "velocity": 121, "channel": 0}, {"type": "note_on", "time": 8, "note": 68, "velocity": 111, "channel": 0}, {"type": "note_off", "time": 76, "note": 68, "velocity": 111, "channel": 0}, {"type": "note_on", "time": 12, "note": 69, "velocity": 116, "channel": 0}, {"type": "note_off", "time": 90, "note": 69, "velocity": 116, "channel": 0}, {"type": "note_on", "time": 12, "note": 70, "velocity": 113, "channel": 0}, {"type": "note_off", "time": 82, "note": 70, "velocity": 113, "channel": 0}, {"type": "note_on", "time": 2, "note": 69, "velocity": 118, "channel": 0}, {"type": "note_off", "time": 86, "note": 69, "velocity": 118, "channel": 0}, {"type": "note_on", "time": 4, "note": 68, "velocity": 115, "channel": 0}, {"type": "note_off", "time": 84, "note": 68, "velocity": 115, "channel": 0}, {"type": "note_on", "time": 22, "note": 69, "velocity": 119, "channel": 0}, {"type": "note_off", "time": 82, "note": 69, "velocity": 119, "channel": 0}, {"type": "note_on", "time": 12, "note": 70, "velocity": 111, "channel": 0}, {"type": "note_off", "time": 98, "note": 70, "velocity": 111, "channel": 0}, {"type": "note_on", "time": 10, "note": 69, "velocity": 117, "channel": 0}, {"type": "note_off", "time": 92, "note": 69, "velocity": 117, "channel": 0}, {"type": "note_on", "time": 18, "note": 67, "velocity": 105, "channel": 0}, {"type": "note_off", "time": 70, "note": 67, "velocity": 105, "channel": 0}, {"type": "note_on", "time": 10, "note": 66, "velocity": 107, "channel": 0}, {"type": "note_off", "time": 74, "note": 66, "velocity": 107, "channel": 0}, {"type": "note_on", "time": 12, "note": 65, "velocity": 107, "channel": 0}, {"type": "note_off", "time": 82, "note": 65, "velocity": 107, "channel": 0}, {"type": "note_on", "time": 30, "note": 61, "velocity": 98, "channel": 0}, {"type": "note_off", "time": 94, "note": 61, "velocity": 98, "channel": 0}, {"type": "note_on", "time": 18, "note": 57, "velocity": 95, "channel": 0}, {"type": "note_off", "time": 70, "note": 57, "velocity": 95, "channel": 0}, {"type": "note_on", "time": 11, "note": 61, "velocity": 84, "channel": 0}, {"type": "note_off", "time": 43, "note": 61, "velocity": 84, "channel": 0}, {"type": "note_on", "time": 15, "note": 64, "velocity": 107, "channel": 0}, {"type": "note_off", "time": 126, "note": 64, "velocity": 107, "channel": 0}, {"type": "note_on", "time": 2, "note": 61, "velocity": 97, "channel": 0}, {"type": "note_off", "time": 60, "note": 61, "velocity": 97, "channel": 0}, {"type": "note_on", "time": 18, "note": 62, "velocity": 103, "channel": 0}, {"type": "note_off", "time": 84, "note": 62, "velocity": 103, "channel": 0}, {"type": "note_on", "time": 12, "note": 64, "velocity": 109, "channel": 0}, {"type": "note_off", "time": 64, "note": 64, "velocity": 109, "channel": 0}, {"type": "note_on", "time": 14, "note": 65, "velocity": 107, "channel": 0}, {"type": "note_off", "time": 94, "note": 65, "velocity": 107, "channel": 0}, {"type": "note_on", "time": 16, "note": 67, "velocity": 103, "channel": 0}, {"type": "note_off", "time": 36, "note": 67, "velocity": 103, "channel": 0}, {"type": "note_on", "time": 4, "note": 65, "velocity": 112, "channel": 0}, {"type": "note_off", "time": 44, "note": 65, "velocity": 112, "channel": 0}, {"type": "note_on", "time": 2, "note": 64, "velocity": 108, "channel": 0}, {"type": "note_off", "time": 72, "note": 64, "velocity": 108, "channel": 0}, {"type": "note_on", "time": 22, "note": 63, "velocity": 98, "channel": 0}, {"type": "note_off", "time": 74, "note": 63, "velocity": 98, "channel": 0}, {"type": "note_on", "time": 20, "note": 62, "velocity": 105, "channel": 0}, {"type": "note_off", "time": 94, "note": 62, "velocity": 105, "channel": 0}, {"type": "note_on", "time": 22, "note": 57, "velocity": 110, "channel": 0}, {"type": "note_off", "time": 60, "note": 57, "velocity": 110, "channel": 0}, {"type": "note_on", "time": 304, "note": 57, "velocity": 109, "channel": 0}, {"type": "note_off", "time": 90, "note": 57, "velocity": 109, "channel": 0}, {"type": "note_on", "time": 16, "note": 56, "velocity": 109, "channel": 0}, {"type": "note_off", "time": 62, "note": 56, "velocity": 109, "channel": 0}, {"type": "note_on", "time": 32, "note": 66, "velocity": 114, "channel": 0}, {"type": "note_off", "time": 64, "note": 66, "velocity": 114, "channel": 0}, {"type": "note_on", "time": 10, "note": 67, "velocity": 115, "channel": 0}, {"type": "note_off", "time": 88, "note": 67, "velocity": 115, "channel": 0}, {"type": "note_on", "time": 12, "note": 68, "velocity": 113, "channel": 0}, {"type": "note_off", "time": 32, "note": 68, "velocity": 113, "channel": 0}, {"type": "note_on", "time": 2, "note": 67, "velocity": 115, "channel": 0}, {"type": "note_off", "time": 38, "note": 67, "velocity": 115, "channel": 0}, {"type": "note_on", "time": 8, "note": 65, "velocity": 122, "channel": 0}, {"type": "note_off", "time": 100, "note": 65, "velocity": 122, "channel": 0}, {"type": "note_on", "time": 222, "note": 57, "velocity": 102, "channel": 0}, {"type": "note_off", "time": 22, "note": 57, "velocity": 102, "channel": 0}, {"type": "note_on", "time": 0, "note": 56, "velocity": 102, "channel": 0}, {"type": "note_off", "time": 23, "note": 56, "velocity": 102, "channel": 0}, {"type": "note_on", "time": 5, "note": 55, "velocity": 105, "channel": 0}, {"type": "note_off", "time": 62, "note": 55, "velocity": 105, "channel": 0}, {"type": "note_on", "time": 62, "note": 65, "velocity": 119, "channel": 0}, {"type": "note_off", "time": 78, "note": 65, "velocity": 119, "channel": 0}, {"type": "note_on", "time": 16, "note": 66, "velocity": 110, "channel": 0}, {"type": "note_off", "time": 152, "note": 66, "velocity": 110, "channel": 0}, {"type": "note_on", "time": 14, "note": 64, "velocity": 111, "channel": 0}, {"type": "note_off", "time": 86, "note": 64, "velocity": 111, "channel": 0}, {"type": "note_on", "time": 228, "note": 57, "velocity": 97, "channel": 0}, {"type": "note_off", "time": 60, "note": 57, "velocity": 97, "channel": 0}, {"type": "note_on", "time": 26, "note": 60, "velocity": 103, "channel": 0}, {"type": "note_off", "time": 80, "note": 60, "velocity": 103, "channel": 0}, {"type": "note_on", "time": 18, "note": 59, "velocity": 101, "channel": 0}, {"type": "note_off", "time": 68, "note": 59, "velocity": 101, "channel": 0}, {"type": "note_on", "time": 14, "note": 58, "velocity": 105, "channel": 0}, {"type": "note_off", "time": 66, "note": 58, "velocity": 105, "channel": 0}, {"type": "note_on", "time": 34, "note": 57, "velocity": 106, "channel": 0}, {"type": "note_off", "time": 54, "note": 57, "velocity": 106, "channel": 0}, {"type": "note_on", "time": 48, "note": 55, "velocity": 96, "channel": 0}, {"type": "note_off", "time": 70, "note": 55, "velocity": 96, "channel": 0}, {"type": "note_on", "time": 14, "note": 54, "velocity": 85, "channel": 0}, {"type": "note_off", "time": 70, "note": 54, "velocity": 85, "channel": 0}, {"type": "note_on", "time": 2, "note": 57, "velocity": 109, "channel": 0}, {"type": "note_off", "time": 102, "note": 57, "velocity": 109, "channel": 0}, {"type": "note_on", "time": 146, "note": 55, "velocity": 102, "channel": 0}, {"type": "note_off", "time": 64, "note": 55, "velocity": 102, "channel": 0}, {"type": "note_on", "time": 36, "note": 60, "velocity": 113, "channel": 0}, {"type": "note_off", "time": 16, "note": 60, "velocity": 113, "channel": 0}, {"type": "note_on", "time": 5, "note": 62, "velocity": 101, "channel": 0}, {"type": "note_off", "time": 198, "note": 62, "velocity": 101, "channel": 0}, {"type": "note_on", "time": 357, "note": 55, "velocity": 100, "channel": 0}, {"type": "note_off", "time": 56, "note": 55, "velocity": 100, "channel": 0}, {"type": "note_on", "time": 54, "note": 59, "velocity": 99, "channel": 0}, {"type": "note_off", "time": 60, "note": 59, "velocity": 99, "channel": 0}, {"type": "note_on", "time": 10, "note": 62, "velocity": 104, "channel": 0}, {"type": "note_off", "time": 58, "note": 62, "velocity": 104, "channel": 0}, {"type": "note_on", "time": 40, "note": 67, "velocity": 116, "channel": 0}, {"type": "note_off", "time": 98, "note": 67, "velocity": 116, "channel": 0}, {"type": "note_on", "time": 23, "note": 64, "velocity": 93, "channel": 0}, {"type": "note_off", "time": 45, "note": 64, "velocity": 93, "channel": 0}, {"type": "note_on", "time": 10, "note": 65, "velocity": 117, "channel": 0}, {"type": "note_off", "time": 112, "note": 65, "velocity": 117, "channel": 0}, {"type": "note_on", "time": 16, "note": 72, "velocity": 100, "channel": 0}, {"type": "note_off", "time": 389, "note": 72, "velocity": 100, "channel": 0}, {"type": "note_on", "time": 359, "note": 69, "velocity": 124, "channel": 0}, {"type": "note_off", "time": 46, "note": 69, "velocity": 124, "channel": 0}, {"type": "note_on", "time": 22, "note": 70, "velocity": 120, "channel": 0}, {"type": "note_off", "time": 90, "note": 70, "velocity": 120, "channel": 0}, {"type": "note_on", "time": 20, "note": 69, "velocity": 123, "channel": 0}, {"type": "note_off", "time": 32, "note": 69, "velocity": 123, "channel": 0}, {"type": "note_on", "time": 8, "note": 67, "velocity": 113, "channel": 0}, {"type": "note_off", "time": 40, "note": 67, "velocity": 113, "channel": 0}, {"type": "note_on", "time": 8, "note": 66, "velocity": 113, "channel": 0}, {"type": "note_off", "time": 90, "note": 66, "velocity": 113, "channel": 0}, {"type": "note_on", "time": 18, "note": 69, "velocity": 117, "channel": 0}, {"type": "note_off", "time": 100, "note": 69, "velocity": 117, "channel": 0}, {"type": "note_on", "time": 6, "note": 67, "velocity": 117, "channel": 0}, {"type": "note_off", "time": 80, "note": 67, "velocity": 117, "channel": 0}, {"type": "note_on", "time": 2, "note": 69, "velocity": 118, "channel": 0}, {"type": "note_off", "time": 82, "note": 69, "velocity": 118, "channel": 0}, {"type": "note_on", "time": 20, "note": 70, "velocity": 119, "channel": 0}, {"type": "note_off", "time": 94, "note": 70, "velocity": 119, "channel": 0}, {"type": "note_on", "time": 6, "note": 69, "velocity": 118, "channel": 0}, {"type": "note_off", "time": 28, "note": 69, "velocity": 118, "channel": 0}, {"type": "note_on", "time": 8, "note": 67, "velocity": 118, "channel": 0}, {"type": "note_off", "time": 28, "note": 67, "velocity": 118, "channel": 0}, {"type": "note_on", "time": 18, "note": 66, "velocity": 115, "channel": 0}, {"type": "note_off", "time": 76, "note": 66, "velocity": 115, "channel": 0}, {"type": "note_on", "time": 16, "note": 69, "velocity": 109, "channel": 0}, {"type": "note_off", "time": 106, "note": 69, "velocity": 109, "channel": 0}, {"type": "note_on", "time": 12, "note": 67, "velocity": 117, "channel": 0}, {"type": "note_off", "time": 74, "note": 67, "velocity": 117, "channel": 0}, {"type": "note_on", "time": 16, "note": 69, "velocity": 121, "channel": 0}, {"type": "note_off", "time": 84, "note": 69, "velocity": 121, "channel": 0}, {"type": "note_on", "time": 18, "note": 70, "velocity": 119, "channel": 0}, {"type": "note_off", "time": 74, "note": 70, "velocity": 119, "channel": 0}, {"type": "note_on", "time": 6, "note": 69, "velocity": 102, "channel": 0}, {"type": "note_off", "time": 28, "note": 69, "velocity": 102, "channel": 0}, {"type": "note_on", "time": 0, "note": 67, "velocity": 115, "channel": 0}, {"type": "note_off", "time": 32, "note": 67, "velocity": 115, "channel": 0}, {"type": "note_on", "time": 22, "note": 66, "velocity": 113, "channel": 0}, {"type": "note_off", "time": 76, "note": 66, "velocity": 113, "channel": 0}, {"type": "note_on", "time": 42, "note": 69, "velocity": 110, "channel": 0}, {"type": "note_off", "time": 62, "note": 69, "velocity": 110, "channel": 0}, {"type": "note_on", "time": 16, "note": 72, "velocity": 116, "channel": 0}, {"type": "note_off", "time": 84, "note": 72, "velocity": 116, "channel": 0}, {"type": "note_on", "time": 14, "note": 71, "velocity": 110, "channel": 0}, {"type": "note_off", "time": 44, "note": 71, "velocity": 110, "channel": 0}, {"type": "note_on", "time": 4, "note": 70, "velocity": 117, "channel": 0}, {"type": "note_off", "time": 40, "note": 70, "velocity": 117, "channel": 0}, {"type": "note_on", "time": 8, "note": 69, "velocity": 119, "channel": 0}, {"type": "note_off", "time": 86, "note": 69, "velocity": 119, "channel": 0}, {"type": "note_on", "time": 22, "note": 70, "velocity": 117, "channel": 0}, {"type": "note_off", "time": 88, "note": 70, "velocity": 117, "channel": 0}, {"type": "note_on", "time": 12, "note": 69, "velocity": 118, "channel": 0}, {"type": "note_off", "time": 90, "note": 69, "velocity": 118, "channel": 0}, {"type": "note_on", "time": 8, "note": 68, "velocity": 114, "channel": 0}, {"type": "note_off", "time": 42, "note": 68, "velocity": 114, "channel": 0}, {"type": "note_on", "time": 4, "note": 67, "velocity": 112, "channel": 0}, {"type": "note_off", "time": 40, "note": 67, "velocity": 112, "channel": 0}, {"type": "note_on", "time": 4, "note": 66, "velocity": 114, "channel": 0}, {"type": "note_off", "time": 78, "note": 66, "velocity": 114, "channel": 0}, {"type": "note_on", "time": 232, "note": 58, "velocity": 95, "channel": 0}, {"type": "note_off", "time": 44, "note": 58, "velocity": 95, "channel": 0}, {"type": "note_on", "time": 14, "note": 60, "velocity": 108, "channel": 0}, {"type": "note_off", "time": 110, "note": 60, "velocity": 108, "channel": 0}, {"type": "note_on", "time": 4, "note": 63, "velocity": 107, "channel": 0}, {"type": "note_off", "time": 74, "note": 63, "velocity": 107, "channel": 0}, {"type": "note_on", "time": 18, "note": 62, "velocity": 105, "channel": 0}, {"type": "note_off", "time": 76, "note": 62, "velocity": 105, "channel": 0}, {"type": "note_on", "time": 6, "note": 61, "velocity": 108, "channel": 0}, {"type": "note_off", "time": 74, "note": 61, "velocity": 108, "channel": 0}, {"type": "note_on", "time": 22, "note": 60, "velocity": 108, "channel": 0}, {"type": "note_off", "time": 78, "note": 60, "velocity": 108, "channel": 0}, {"type": "note_on", "time": 10, "note": 59, "velocity": 105, "channel": 0}, {"type": "note_off", "time": 86, "note": 59, "velocity": 105, "channel": 0}, {"type": "note_on", "time": 8, "note": 58, "velocity": 99, "channel": 0}, {"type": "note_off", "time": 118, "note": 58, "velocity": 99, "channel": 0}, {"type": "note_on", "time": 24, "note": 60, "velocity": 104, "channel": 0}, {"type": "note_off", "time": 44, "note": 60, "velocity": 104, "channel": 0}, {"type": "note_on", "time": 14, "note": 62, "velocity": 111, "channel": 0}, {"type": "note_off", "time": 108, "note": 62, "velocity": 111, "channel": 0}, {"type": "note_on", "time": 64, "note": 69, "velocity": 127, "channel": 0}, {"type": "note_off", "time": 118, "note": 69, "velocity": 127, "channel": 0}, {"type": "note_on", "time": 30, "note": 72, "velocity": 100, "channel": 0}, {"type": "note_off", "time": 34, "note": 72, "velocity": 100, "channel": 0}, {"type": "note_on", "time": 18, "note": 74, "velocity": 116, "channel": 0}, {"type": "note_off", "time": 158, "note": 74, "velocity": 116, "channel": 0}, {"type": "note_on", "time": 18, "note": 75, "velocity": 115, "channel": 0}, {"type": "note_off", "time": 224, "note": 75, "velocity": 115, "channel": 0}, {"type": "note_on", "time": 8, "note": 74, "velocity": 116, "channel": 0}, {"type": "note_off", "time": 94, "note": 74, "velocity": 116, "channel": 0}, {"type": "note_on", "time": 2, "note": 73, "velocity": 112, "channel": 0}, {"type": "note_off", "time": 100, "note": 73, "velocity": 112, "channel": 0}, {"type": "note_on", "time": 6, "note": 72, "velocity": 117, "channel": 0}, {"type": "note_off", "time": 72, "note": 72, "velocity": 117, "channel": 0}, {"type": "note_on", "time": 8, "note": 68, "velocity": 120, "channel": 0}, {"type": "note_off", "time": 72, "note": 68, "velocity": 120, "channel": 0}, {"type": "note_on", "time": 16, "note": 64, "velocity": 109, "channel": 0}, {"type": "note_off", "time": 72, "note": 64, "velocity": 109, "channel": 0}, {"type": "note_on", "time": 14, "note": 62, "velocity": 105, "channel": 0}, {"type": "note_off", "time": 68, "note": 62, "velocity": 105, "channel": 0}, {"type": "note_on", "time": 24, "note": 67, "velocity": 116, "channel": 0}, {"type": "note_off", "time": 114, "note": 67, "velocity": 116, "channel": 0}, {"type": "note_on", "time": 24, "note": 64, "velocity": 105, "channel": 0}, {"type": "note_off", "time": 42, "note": 64, "velocity": 105, "channel": 0}, {"type": "note_on", "time": 14, "note": 65, "velocity": 113, "channel": 0}, {"type": "note_off", "time": 128, "note": 65, "velocity": 113, "channel": 0}, {"type": "note_on", "time": 8, "note": 67, "velocity": 96, "channel": 0}, {"type": "note_off", "time": 34, "note": 67, "velocity": 96, "channel": 0}, {"type": "note_on", "time": 20, "note": 69, "velocity": 125, "channel": 0}, {"type": "note_off", "time": 102, "note": 69, "velocity": 125, "channel": 0}, {"type": "note_on", "time": 0, "note": 60, "velocity": 119, "channel": 0}, {"type": "note_off", "time": 98, "note": 60, "velocity": 119, "channel": 0}, {"type": "note_on", "time": 288, "note": 60, "velocity": 114, "channel": 0}, {"type": "note_off", "time": 76, "note": 60, "velocity": 114, "channel": 0}, {"type": "note_on", "time": 12, "note": 62, "velocity": 102, "channel": 0}, {"type": "note_off", "time": 40, "note": 62, "velocity": 102, "channel": 0}, {"type": "note_on", "time": 14, "note": 60, "velocity": 108, "channel": 0}, {"type": "note_off", "time": 68, "note": 60, "velocity": 108, "channel": 0}, {"type": "note_on", "time": 2, "note": 59, "velocity": 105, "channel": 0}, {"type": "note_off", "time": 64, "note": 59, "velocity": 105, "channel": 0}, {"type": "note_on", "time": 6, "note": 58, "velocity": 113, "channel": 0}, {"type": "note_off", "time": 78, "note": 58, "velocity": 113, "channel": 0}, {"type": "note_on", "time": 8, "note": 67, "velocity": 117, "channel": 0}, {"type": "note_off", "time": 92, "note": 67, "velocity": 117, "channel": 0}, {"type": "note_on", "time": 8, "note": 64, "velocity": 110, "channel": 0}, {"type": "note_off", "time": 96, "note": 64, "velocity": 110, "channel": 0}, {"type": "note_on", "time": 26, "note": 60, "velocity": 95, "channel": 0}, {"type": "note_off", "time": 38, "note": 60, "velocity": 95, "channel": 0}, {"type": "note_on", "time": 6, "note": 65, "velocity": 123, "channel": 0}, {"type": "note_off", "time": 114, "note": 65, "velocity": 123, "channel": 0}, {"type": "end_of_track", "time": 0}]]}