{"ticks_per_beat": 2520, "tracks": [[{"type": "note_on", "time": 0, "note": 72, "velocity": 91, "channel": 0}, {"type": "note_off", "time": 855, "note": 72, "velocity": 91, "channel": 0}, {"type": "note_on", "time": 368, "note": 74, "velocity": 115, "channel": 0}, {"type": "track_name", "name": "Melody", "time": 21}, {"type": "set_tempo", "tempo": 555555, "time": 0}, {"type": "key_signature", "key": "Db", "time": 0}, {"type": "time_signature", "numerator": 4, "denominator": 4, "clocks_per_click": 24, "notated_32nd_notes_per_beat": 8, "time": 0}, {"type": "note_off", "time": 636, "note": 74, "velocity": 115, "channel": 0}, {"type": "note_on", "time": 342, "note": 76, "velocity": 124, "channel": 0}, {"type": "note_off", "time": 776, "note": 76, "velocity": 124, "channel": 0}, {"type": "note_on", "time": 236, "note": 74, "velocity": 106, "channel": 0}, {"type": "note_off", "time": 631, "note": 74, "velocity": 106, "channel": 0}, {"type": "note_on", "time": 302, "note": 74, "velocity": 113, "channel": 0}, {"type": "note_off", "time": 421, "note": 74, "velocity": 113, "channel": 0}, {"type": "note_on", "time": 144, "note": 72, "velocity": 119, "channel": 0}, {"type": "note_off", "time": 434, "note": 72, "velocity": 119, "channel": 0}, {"type": "note_on", "time": 223, "note": 69, "velocity": 117, "channel": 0}, {"type": "note_off", "time": 368, "note": 69, "velocity": 117, "channel": 0}, {"type": "note_on", "time": 184, "note": 65, "velocity": 101, "channel": 0}, {"type": "note_off", "time": 500, "note": 65, "velocity": 101, "channel": 0}, {"type": "note_on", "time": 92, "note": 62, "velocity": 87, "channel": 0}, {"type": "note_off", "time": 368, "note": 62, "velocity": 87, "channel": 0}, {"type": "note_on", "time": 157, "note": 63, "velocity": 104, "channel": 0}, {"type": "note_off", "time": 895, "note": 63, "velocity": 104, "channel": 0}, {"type": "note_on", "time": 355, "note": 55, "velocity": 84, "channel": 0}, {"type": "note_off", "time": 500, "note": 55, "velocity": 84, "channel": 0}, {"type": "note_on", "time": 184, "note": 56, "velocity": 97, "channel": 0}, {"type": "note_off", "time": 394, "note": 56, "velocity": 97, "channel": 0}, {"type": "note_on", "time": 177, "note": 59, "velocity": 96, "channel": 0}, {"type": "note_off", "time": 460, "note": 59, "velocity": 96, "channel": 0}, {"type": "note_on", "time": 151, "note": 62, "velocity": 108, "channel": 0}, {"type": "note_off", "time": 394, "note": 62, "velocity": 108, "channel": 0}, {"type": "note_on", "time": 131, "note": 63, "velocity": 104, "channel": 0}, {"type": "note_off", "time": 473, "note": 63, "velocity": 104, "channel": 0}, {"type": "note_on", "time": 144, "note": 65, "velocity": 103, "channel": 0}, {"type": "note_off", "time": 329, "note": 65, "velocity": 103, "channel": 0}, {"type": "note_on", "time": 171, "note": 67, "velocity": 113, "channel": 0}, {"type": "note_off", "time": 513, "note": 67, "velocity": 113, "channel": 0}, {"type": "note_on", "time": 78, "note": 68, "velocity": 114, "channel": 0}, {"type": "note_off", "time": 394, "note": 68, "velocity": 114, "channel": 0}, {"type": "note_on", "time": 223, "note": 70, "velocity": 112, "channel": 0}, {"type": "note_off", "time": 579, "note": 70, "velocity": 112, "channel": 0}, {"type": "note_on", "time": 131, "note": 70, "velocity": 109, "channel": 0}, {"type": "note_off", "time": 473, "note": 70, "velocity": 109, "channel": 0}, {"type": "note_on", "time": 118, "note": 69, "velocity": 107, "channel": 0}, {"type": "note_off", "time": 513, "note": 69, "velocity": 107, "channel": 0}, {"type": "note_on", "time": 184, "note": 70, "velocity": 96, "channel": 0}, {"type": "note_off", "time": 1369, "note": 70, "velocity": 96, "channel": 0}, {"type": "note_on", "time": 250, "note": 68, "velocity": 111, "channel": 0}, {"type": "note_off", "time": 763, "note": 68, "velocity": 111, "channel": 0}, {"type": "note_on", "time": 131, "note": 70, "velocity": 102, "channel": 0}, {"type": "note_off", "time": 263, "note": 70, "velocity": 102, "channel": 0}, {"type": "note_on", "time": 162, "note": 65, "velocity": 94, "channel": 0}, {"type": "note_off", "time": 1040, "note": 65, "velocity": 94, "channel": 0}, {"type": "note_on", "time": 351, "note": 63, "velocity": 101, "channel": 0}, {"type": "note_off", "time": 658, "note": 63, "velocity": 101, "channel": 0}, {"type": "note_on", "time": 1948, "note": 65, "velocity": 104, "channel": 0}, {"type": "note_off", "time": 882, "note": 65, "velocity": 104, "channel": 0}, {"type": "note_on", "time": 329, "note": 63, "velocity": 110, "channel": 0}, {"type": "note_off", "time": 697, "note": 63, "velocity": 110, "channel": 0}, {"type": "note_on", "time": 487, "note": 65, "velocity": 96, "channel": 0}, {"type": "note_off", "time": 1448, "note": 65, "velocity": 96, "channel": 0}, {"type": "note_on", "time": 5626, "note": 58, "velocity": 105, "channel": 0}, {"type": "note_off", "time": 250, "note": 58, "velocity": 105, "channel": 0}, {"type": "note_on", "time": 258, "note": 63, "velocity": 123, "channel": 0}, {"type": "note_off", "time": 513, "note": 63, "velocity": 123, "channel": 0}, {"type": "note_on", "time": 171, "note": 66, "velocity": 124, "channel": 0}, {"type": "note_off", "time": 329, "note": 66, "velocity": 124, "channel": 0}, {"type": "note_on", "time": 171, "note": 68, "velocity": 127, "channel": 0}, {"type": "note_off", "time": 618, "note": 68, "velocity": 127, "channel": 0}, {"type": "note_on", "time": 171, "note": 70, "velocity": 125, "channel": 0}, {"type": "note_off", "time": 381, "note": 70, "velocity": 125, "channel": 0}, {"type": "note_on", "time": 92, "note": 69, "velocity": 118, "channel": 0}, {"type": "note_off", "time": 658, "note": 69, "velocity": 118, "channel": 0}, {"type": "note_on", "time": 193, "note": 57, "velocity": 94, "channel": 0}, {"type": "note_off", "time": 365, "note": 57, "velocity": 94, "channel": 0}, {"type": "note_on", "time": 115, "note": 61, "velocity": 107, "channel": 0}, {"type": "note_off", "time": 374, "note": 61, "velocity": 107, "channel": 0}, {"type": "note_on", "time": 106, "note": 64, "velocity": 105, "channel": 0}, {"type": "note_off", "time": 513, "note": 64, "velocity": 105, "channel": 0}, {"type": "note_on", "time": 134, "note": 69, "velocity": 119, "channel": 0}, {"type": "note_off", "time": 526, "note": 69, "velocity": 119, "channel": 0}, {"type": "note_on", "time": 131, "note": 73, "velocity": 122, "channel": 0}, {"type": "note_off", "time": 421, "note": 73, "velocity": 122, "channel": 0}, {"type": "note_on", "time": 78, "note": 71, "velocity": 115, "channel": 0}, {"type": "note_off", "time": 539, "note": 71, "velocity": 115, "channel": 0}, {"type": "note_on", "time": 105, "note": 69, "velocity": 118, "channel": 0}, {"type": "note_off", "time": 394, "note": 69, "velocity": 118, "channel": 0}, {"type": "note_on", "time": 157, "note": 68, "velocity": 97, "channel": 0}, {"type": "note_off", "time": 1471, "note": 68, "velocity": 97, "channel": 0}, {"type": "note_on", "time": 1148, "note": 70, "velocity": 120, "channel": 0}, {"type": "note_off", "time": 605, "note": 70, "velocity": 120, "channel": 0}, {"type": "note_on", "time": 78, "note": 70, "velocity": 116, "channel": 0}, {"type": "note_off", "time": 447, "note": 70, "velocity": 116, "channel": 0}, {"type": "note_on", "time": 171, "note": 68, "velocity": 114, "channel": 0}, {"type": "note_off", "time": 579, "note": 68, "velocity": 114, "channel": 0}, {"type": "note_on", "time": 487, "note": 70, "velocity": 117, "channel": 0}, {"type": "note_off", "time": 803, "note": 70, "velocity": 117, "channel": 0}, {"type": "note_on", "time": 118, "note": 68, "velocity": 109, "channel": 0}, {"type": "note_off", "time": 460, "note": 68, "velocity": 109, "channel": 0}, {"type": "note_on", "time": 649, "note": 70, "velocity": 95, "channel": 0}, {"type": "note_off", "time": 1666, "note": 70, "velocity": 95, "channel": 0}, {"type": "note_on", "time": 4007, "note": 75, "velocity": 121, "channel": 0}, {"type": "note_off", "time": 513, "note": 75, "velocity": 121, "channel": 0}, {"type": "note_on", "time": 668, "note": 75, "velocity": 122, "channel": 0}, {"type": "note_off", "time": 710, "note": 75, "velocity": 122, "channel": 0}, {"type": "note_on", "time": 460, "note": 75, "velocity": 120, "channel": 0}, {"type": "note_off", "time": 671, "note": 75, "velocity": 120, "channel": 0}, {"type": "note_on", "time": 368, "note": 74, "velocity": 122, "channel": 0}, {"type": "note_off", "time": 671, "note": 74, "velocity": 122, "channel": 0}, {"type": "note_on", "time": 388, "note": 73, "velocity": 118, "channel": 0}, {"type": "note_off", "time": 559, "note": 73, "velocity": 118, "channel": 0}, {"type": "note_on", "time": 39, "note": 72, "velocity": 119, "channel": 0}, {"type": "note_off", "time": 730, "note": 72, "velocity": 119, "channel": 0}, {"type": "note_on", "time": 503, "note": 71, "velocity": 107, "channel": 0}, {"type": "note_off", "time": 934, "note": 71, "velocity": 107, "channel": 0}, {"type": "note_on", "time": 247, "note": 72, "velocity": 120, "channel": 0}, {"type": "note_off", "time": 1138, "note": 72, "velocity": 120, "channel": 0}, {"type": "note_on", "time": 59, "note": 73, "velocity": 112, "channel": 0}, {"type": "note_off", "time": 1250, "note": 73, "velocity": 112, "channel": 0}, {"type": "note_on", "time": 309, "note": 70, "velocity": 86, "channel": 0}, {"type": "note_off", "time": 1685, "note": 70, "velocity": 86, "channel": 0}, {"type": "note_on", "time": 2702, "note": 70, "velocity": 116, "channel": 0}, {"type": "note_off", "time": 358, "note": 70, "velocity": 116, "channel": 0}, {"type": "note_on", "time": 125, "note": 73, "velocity": 122, "channel": 0}, {"type": "note_off", "time": 697, "note": 73, "velocity": 122, "channel": 0}, {"type": "note_on", "time": 197, "note": 71, "velocity": 114, "channel": 0}, {"type": "note_off", "time": 355, "note": 71, "velocity": 114, "channel": 0}, {"type": "note_on", "time": 105, "note": 73, "velocity": 118, "channel": 0}, {"type": "note_off", "time": 684, "note": 73, "velocity": 118, "channel": 0}, {"type": "note_on", "time": 385, "note": 70, "velocity": 116, "channel": 0}, {"type": "note_off", "time": 812, "note": 70, "velocity": 116, "channel": 0}, {"type": "note_on", "time": 118, "note": 65, "velocity": 115, "channel": 0}, {"type": "note_off", "time": 342, "note": 65, "velocity": 115, "channel": 0}, {"type": "note_on", "time": 105, "note": 64, "velocity": 110, "channel": 0}, {"type": "note_off", "time": 631, "note": 64, "velocity": 110, "channel": 0}, {"type": "note_on", "time": 197, "note": 63, "velocity": 89, "channel": 0}, {"type": "note_off", "time": 1421, "note": 63, "velocity": 89, "channel": 0}, {"type": "note_on", "time": 3353, "note": 77, "velocity": 119, "channel": 0}, {"type": "note_off", "time": 1724, "note": 77, "velocity": 119, "channel": 0}, {"type": "note_on", "time": 240, "note": 75, "velocity": 124, "channel": 0}, {"type": "note_off", "time": 487, "note": 75, "velocity": 124, "channel": 0}, {"type": "note_on", "time": 157, "note": 73, "velocity": 107, "channel": 0}, {"type": "note_off", "time": 342, "note": 73, "velocity": 107, "channel": 0}, {"type": "note_on", "time": 219, "note": 70, "velocity": 113, "channel": 0}, {"type": "note_off", "time": 615, "note": 70, "velocity": 113, "channel": 0}, {"type": "note_on", "time": 60, "note": 65, "velocity": 116, "channel": 0}, {"type": "note_off", "time": 421, "note": 65, "velocity": 116, "channel": 0}, {"type": "note_on", "time": 105, "note": 64, "velocity": 112, "channel": 0}, {"type": "note_off", "time": 434, "note": 64, "velocity": 112, "channel": 0}, {"type": "note_on", "time": 210, "note": 63, "velocity": 110, "channel": 0}, {"type": "note_off", "time": 394, "note": 63, "velocity": 110, "channel": 0}, {"type": "note_on", "time": 184, "note": 61, "velocity": 104, "channel": 0}, {"type": "note_off", "time": 605, "note": 61, "velocity": 104, "channel": 0}, {"type": "note_on", "time": 105, "note": 56, "velocity": 90, "channel": 0}, {"type": "note_off", "time": 1461, "note": 56, "velocity": 90, "channel": 0}, {"type": "note_on", "time": 274, "note": 57, "velocity": 96, "channel": 0}, {"type": "note_off", "time": 539, "note": 57, "velocity": 96, "channel": 0}, {"type": "note_on", "time": 146, "note": 61, "velocity": 98, "channel": 0}, {"type": "note_off", "time": 421, "note": 61, "velocity": 98, "channel": 0}, {"type": "note_on", "time": 184, "note": 64, "velocity": 109, "channel": 0}, {"type": "note_off", "time": 421, "note": 64, "velocity": 109, "channel": 0}, {"type": "note_on", "time": 250, "note": 66, "velocity": 113, "channel": 0}, {"type": "note_off", "time": 421, "note": 66, "velocity": 113, "channel": 0}, {"type": "note_on", "time": 144, "note": 69, "velocity": 114, "channel": 0}, {"type": "note_off", "time": 631, "note": 69, "velocity": 114, "channel": 0}, {"type": "note_on", "time": 329, "note": 69, "velocity": 111, "channel": 0}, {"type": "note_off", "time": 868, "note": 69, "velocity": 111, "channel": 0}, {"type": "note_on", "time": 120, "note": 68, "velocity": 106, "channel": 0}, {"type": "note_off", "time": 1610, "note": 68, "velocity": 106, "channel": 0}, {"type": "note_on", "time": 85, "note": 71, "velocity": 116, "channel": 0}, {"type": "note_off", "time": 750, "note": 71, "velocity": 116, "channel": 0}, {"type": "note_on", "time": 184, "note": 70, "velocity": 110, "channel": 0}, {"type": "note_off", "time": 394, "note": 70, "velocity": 110, "channel": 0}, {"type": "note_on", "time": 92, "note": 68, "velocity": 116, "channel": 0}, {"type": "note_off", "time": 421, "note": 68, "velocity": 116, "channel": 0}, {"type": "note_on", "time": 209, "note": 62, "velocity": 85, "channel": 0}, {"type": "note_off", "time": 566, "note": 62, "velocity": 85, "channel": 0}, {"type": "note_on", "time": 53, "note": 63, "velocity": 103, "channel": 0}, {"type": "note_off", "time": 552, "note": 63, "velocity": 103, "channel": 0}, {"type": "note_on", "time": 157, "note": 65, "velocity": 107, "channel": 0}, {"type": "note_off", "time": 368, "note": 65, "velocity": 107, "channel": 0}, {"type": "note_on", "time": 118, "note": 68, "velocity": 116, "channel": 0}, {"type": "note_off", "time": 658, "note": 68, "velocity": 116, "channel": 0}, {"type": "note_on", "time": 105, "note": 70, "velocity": 110, "channel": 0}, {"type": "note_off", "time": 302, "note": 70, "velocity": 110, "channel": 0}, {"type": "note_on", "time": 144, "note": 71, "velocity": 110, "channel": 0}, {"type": "note_off", "time": 671, "note": 71, "velocity": 110, "channel": 0}, {"type": "note_on", "time": 118, "note": 70, "velocity": 110, "channel": 0}, {"type": "note_off", "time": 302, "note": 70, "velocity": 110, "channel": 0}, {"type": "note_on", "time": 155, "note": 68, "velocity": 110, "channel": 0}, {"type": "note_off", "time": 658, "note": 68, "velocity": 110, "channel": 0}, {"type": "note_on", "time": 147, "note": 65, "velocity": 106, "channel": 0}, {"type": "note_off", "time": 1514, "note": 65, "velocity": 106, "channel": 0}, {"type": "note_on", "time": 207, "note": 63, "velocity": 90, "channel": 0}, {"type": "note_off", "time": 2462, "note": 63, "velocity": 90, "channel": 0}, {"type": "note_on", "time": 69, "note": 65, "velocity": 100, "channel": 0}, {"type": "note_off", "time": 631, "note": 65, "velocity": 100, "channel": 0}, {"type": "note_on", "time": 3778, "note": 80, "velocity": 116, "channel": 0}, {"type": "note_off", "time": 737, "note": 80, "velocity": 116, "channel": 0}, {"type": "note_on", "time": 536, "note": 80, "velocity": 117, "channel": 0}, {"type": "note_off", "time": 671, "note": 80, "velocity": 117, "channel": 0}, {"type": "note_on", "time": 595, "note": 80, "velocity": 113, "channel": 0}, {"type": "note_off", "time": 697, "note": 80, "velocity": 113, "channel": 0}, {"type": "note_on", "time": 434, "note": 65, "velocity": 94, "channel": 0}, {"type": "note_off", "time": 389, "note": 65, "velocity": 94, "channel": 0}, {"type": "note_on", "time": 111, "note": 77, "velocity": 114, "channel": 0}, {"type": "note_off", "time": 658, "note": 77, "velocity": 114, "channel": 0}, {"type": "note_on", "time": 105, "note": 80, "velocity": 115, "channel": 0}, {"type": "note_off", "time": 408, "note": 80, "velocity": 115, "channel": 0}, {"type": "note_on", "time": 144, "note": 79, "velocity": 111, "channel": 0}, {"type": "note_off", "time": 658, "note": 79, "velocity": 111, "channel": 0}, {"type": "note_on", "time": 68, "note": 64, "velocity": 87, "channel": 0}, {"type": "note_off", "time": 427, "note": 64, "velocity": 87, "channel": 0}, {"type": "note_on", "time": 201, "note": 76, "velocity": 113, "channel": 0}, {"type": "note_off", "time": 487, "note": 76, "velocity": 113, "channel": 0}, {"type": "note_on", "time": 92, "note": 79, "velocity": 114, "channel": 0}, {"type": "note_off", "time": 394, "note": 79, "velocity": 114, "channel": 0}, {"type": "note_on", "time": 171, "note": 78, "velocity": 115, "channel": 0}, {"type": "note_off", "time": 724, "note": 78, "velocity": 115, "channel": 0}, {"type": "note_on", "time": 148, "note": 69, "velocity": 87, "channel": 0}, {"type": "note_off", "time": 337, "note": 69, "velocity": 87, "channel": 0}, {"type": "note_on", "time": 124, "note": 75, "velocity": 109, "channel": 0}, {"type": "note_off", "time": 566, "note": 75, "velocity": 109, "channel": 0}, {"type": "note_on", "time": 58, "note": 78, "velocity": 114, "channel": 0}, {"type": "note_off", "time": 460, "note": 78, "velocity": 114, "channel": 0}, {"type": "note_on", "time": 93, "note": 77, "velocity": 115, "channel": 0}, {"type": "note_off", "time": 724, "note": 77, "velocity": 115, "channel": 0}, {"type": "note_on", "time": 217, "note": 71, "velocity": 80, "channel": 0}, {"type": "note_off", "time": 279, "note": 71, "velocity": 80, "channel": 0}, {"type": "note_on", "time": 42, "note": 77, "velocity": 114, "channel": 0}, {"type": "note_off", "time": 552, "note": 77, "velocity": 114, "channel": 0}, {"type": "note_on", "time": 171, "note": 75, "velocity": 111, "channel": 0}, {"type": "note_off", "time": 329, "note": 75, "velocity": 111, "channel": 0}, {"type": "note_on", "time": 171, "note": 73, "velocity": 110, "channel": 0}, {"type": "note_off", "time": 500, "note": 73, "velocity": 110, "channel": 0}, {"type": "note_on", "time": 184, "note": 70, "velocity": 90, "channel": 0}, {"type": "note_off", "time": 539, "note": 70, "velocity": 90, "channel": 0}, {"type": "note_on", "time": 210, "note": 65, "velocity": 101, "channel": 0}, {"type": "note_off", "time": 381, "note": 65, "velocity": 101, "channel": 0}, {"type": "note_on", "time": 197, "note": 64, "velocity": 94, "channel": 0}, {"type": "note_off", "time": 315, "note": 64, "velocity": 94, "channel": 0}, {"type": "note_on", "time": 118, "note": 63, "velocity": 92, "channel": 0}, {"type": "note_off", "time": 539, "note": 63, "velocity": 92, "channel": 0}, {"type": "note_on", "time": 197, "note": 61, "velocity": 88, "channel": 0}, {"type": "note_off", "time": 487, "note": 61, "velocity": 88, "channel": 0}, {"type": "note_on", "time": 88, "note": 58, "velocity": 78, "channel": 0}, {"type": "note_off", "time": 1000, "note": 58, "velocity": 78, "channel": 0}, {"type": "note_on", "time": 174, "note": 57, "velocity": 91, "channel": 0}, {"type": "note_off", "time": 566, "note": 57, "velocity": 91, "channel": 0}, {"type": "note_on", "time": 197, "note": 58, "velocity": 81, "channel": 0}, {"type": "note_off", "time": 315, "note": 58, "velocity": 81, "channel": 0}, {"type": "note_on", "time": 290, "note": 61, "velocity": 101, "channel": 0}, {"type": "note_off", "time": 566, "note": 61, "velocity": 101, "channel": 0}, {"type": "note_on", "time": 77, "note": 63, "velocity": 105, "channel": 0}, {"type": "note_off", "time": 447, "note": 63, "velocity": 105, "channel": 0}, {"type": "note_on", "time": 118, "note": 65, "velocity": 109, "channel": 0}, {"type": "note_off", "time": 566, "note": 65, "velocity": 109, "channel": 0}, {"type": "note_on", "time": 250, "note": 68, "velocity": 109, "channel": 0}, {"type": "note_off", "time": 473, "note": 68, "velocity": 109, "channel": 0}, {"type": "note_on", "time": 92, "note": 70, "velocity": 112, "channel": 0}, {"type": "note_off", "time": 526, "note": 70, "velocity": 112, "channel": 0}, {"type": "note_on", "time": 236, "note": 69, "velocity": 91, "channel": 0}, {"type": "note_off", "time": 263, "note": 69, "velocity": 91, "channel": 0}, {"type": "note_on", "time": 263, "note": 72, "velocity": 103, "channel": 0}, {"type": "note_off", "time": 658, "note": 72, "velocity": 103, "channel": 0}, {"type": "note_on", "time": 487, "note": 72, "velocity": 102, "channel": 0}, {"type": "note_off", "time": 684, "note": 72, "velocity": 102, "channel": 0}, {"type": "note_on", "time": 434, "note": 72, "velocity": 107, "channel": 0}, {"type": "note_off", "time": 816, "note": 72, "velocity": 107, "channel": 0}, {"type": "note_on", "time": 487, "note": 70, "velocity": 107, "channel": 0}, {"type": "note_off", "time": 776, "note": 70, "velocity": 107, "channel": 0}, {"type": "note_on", "time": 473, "note": 73, "velocity": 112, "channel": 0}, {"type": "note_off", "time": 763, "note": 73, "velocity": 112, "channel": 0}, {"type": "note_on", "time": 210, "note": 70, "velocity": 89, "channel": 0}, {"type": "note_off", "time": 355, "note": 70, "velocity": 89, "channel": 0}, {"type": "note_on", "time": 78, "note": 72, "velocity": 96, "channel": 0}, {"type": "note_off", "time": 1079, "note": 72, "velocity": 96, "channel": 0}, {"type": "note_on", "time": 39, "note": 73, "velocity": 109, "channel": 0}, {"type": "note_off", "time": 710, "note": 73, "velocity": 109, "channel": 0}, {"type": "note_on", "time": 157, "note": 70, "velocity": 111, "channel": 0}, {"type": "note_off", "time": 368, "note": 70, "velocity": 111, "channel": 0}, {"type": "note_on", "time": 737, "note": 72, "velocity": 115, "channel": 0}, {"type": "note_off", "time": 849, "note": 72, "velocity": 115, "channel": 0}, {"type": "note_on", "time": 39, "note": 73, "velocity": 105, "channel": 0}, {"type": "note_off", "time": 1145, "note": 73, "velocity": 105, "channel": 0}, {"type": "note_on", "time": 506, "note": 70, "velocity": 88, "channel": 0}, {"type": "note_off", "time": 1369, "note": 70, "velocity": 88, "channel": 0}, {"type": "note_on", "time": 5055, "note": 71, "velocity": 114, "channel": 0}, {"type": "note_off", "time": 276, "note": 71, "velocity": 114, "channel": 0}, {"type": "note_on", "time": 144, "note": 73, "velocity": 123, "channel": 0}, {"type": "note_off", "time": 500, "note": 73, "velocity": 123, "channel": 0}, {"type": "note_on", "time": 131, "note": 78, "velocity": 120, "channel": 0}, {"type": "note_off", "time": 381, "note": 78, "velocity": 120, "channel": 0}, {"type": "note_on", "time": 105, "note": 80, "velocity": 117, "channel": 0}, {"type": "note_off", "time": 1816, "note": 80, "velocity": 117, "channel": 0}, {"type": "note_on", "time": 566, "note": 77, "velocity": 111, "channel": 0}, {"type": "note_off", "time": 1737, "note": 77, "velocity": 111, "channel": 0}, {"type": "note_on", "time": 276, "note": 75, "velocity": 101, "channel": 0}, {"type": "note_off", "time": 394, "note": 75, "velocity": 101, "channel": 0}, {"type": "note_on", "time": 197, "note": 73, "velocity": 114, "channel": 0}, {"type": "note_off", "time": 513, "note": 73, "velocity": 114, "channel": 0}, {"type": "note_on", "time": 276, "note": 70, "velocity": 104, "channel": 0}, {"type": "note_off", "time": 302, "note": 70, "velocity": 104, "channel": 0}, {"type": "note_on", "time": 315, "note": 65, "velocity": 110, "channel": 0}, {"type": "note_off", "time": 592, "note": 65, "velocity": 110, "channel": 0}, {"type": "note_on", "time": 131, "note": 64, "velocity": 114, "channel": 0}, {"type": "note_off", "time": 487, "note": 64, "velocity": 114, "channel": 0}, {"type": "note_on", "time": 118, "note": 63, "velocity": 108, "channel": 0}, {"type": "note_off", "time": 566, "note": 63, "velocity": 108, "channel": 0}, {"type": "note_on", "time": 131, "note": 61, "velocity": 101, "channel": 0}, {"type": "note_off", "time": 342, "note": 61, "velocity": 101, "channel": 0}, {"type": "note_on", "time": 855, "note": 57, "velocity": 98, "channel": 0}, {"type": "note_off", "time": 3962, "note": 57, "velocity": 98, "channel": 0}, {"type": "note_on", "time": 227, "note": 61, "velocity": 105, "channel": 0}, {"type": "note_off", "time": 503, "note": 61, "velocity": 105, "channel": 0}, {"type": "note_on", "time": 138, "note": 64, "velocity": 109, "channel": 0}, {"type": "note_off", "time": 421, "note": 64, "velocity": 109, "channel": 0}, {"type": "note_on", "time": 197, "note": 69, "velocity": 116, "channel": 0}, {"type": "note_off", "time": 645, "note": 69, "velocity": 116, "channel": 0}, {"type": "note_on", "time": 65, "note": 73, "velocity": 112, "channel": 0}, {"type": "note_off", "time": 460, "note": 73, "velocity": 112, "channel": 0}, {"type": "note_on", "time": 92, "note": 71, "velocity": 106, "channel": 0}, {"type": "note_off", "time": 631, "note": 71, "velocity": 106, "channel": 0}, {"type": "note_on", "time": 105, "note": 69, "velocity": 108, "channel": 0}, {"type": "note_off", "time": 2211, "note": 69, "velocity": 108, "channel": 0}, {"type": "note_on", "time": 171, "note": 68, "velocity": 90, "channel": 0}, {"type": "note_off", "time": 2020, "note": 68, "velocity": 90, "channel": 0}, {"type": "note_on", "time": 1915, "note": 65, "velocity": 109, "channel": 0}, {"type": "note_off", "time": 289, "note": 65, "velocity": 109, "channel": 0}, {"type": "note_on", "time": 209, "note": 69, "velocity": 116, "channel": 0}, {"type": "note_off", "time": 447, "note": 69, "velocity": 116, "channel": 0}, {"type": "note_on", "time": 146, "note": 70, "velocity": 121, "channel": 0}, {"type": "note_off", "time": 381, "note": 70, "velocity": 121, "channel": 0}, {"type": "note_on", "time": 78, "note": 71, "velocity": 114, "channel": 0}, {"type": "note_off", "time": 592, "note": 71, "velocity": 114, "channel": 0}, {"type": "note_on", "time": 144, "note": 74, "velocity": 109, "channel": 0}, {"type": "note_off", "time": 315, "note": 74, "velocity": 109, "channel": 0}, {"type": "note_on", "time": 276, "note": 71, "velocity": 112, "channel": 0}, {"type": "note_off", "time": 552, "note": 71, "velocity": 112, "channel": 0}, {"type": "note_on", "time": 52, "note": 72, "velocity": 110, "channel": 0}, {"type": "note_off", "time": 329, "note": 72, "velocity": 110, "channel": 0}, {"type": "note_on", "time": 210, "note": 73, "velocity": 107, "channel": 0}, {"type": "note_off", "time": 618, "note": 73, "velocity": 107, "channel": 0}, {"type": "note_on", "time": 210, "note": 76, "velocity": 118, "channel": 0}, {"type": "note_off", "time": 381, "note": 76, "velocity": 118, "channel": 0}, {"type": "note_on", "time": 3395, "note": 59, "velocity": 91, "channel": 0}, {"type": "note_off", "time": 315, "note": 59, "velocity": 91, "channel": 0}, {"type": "note_on", "time": 53, "note": 62, "velocity": 112, "channel": 0}, {"type": "note_off", "time": 618, "note": 62, "velocity": 112, "channel": 0}, {"type": "note_on", "time": 157, "note": 64, "velocity": 110, "channel": 0}, {"type": "note_off", "time": 368, "note": 64, "velocity": 110, "channel": 0}, {"type": "note_on", "time": 118, "note": 66, "velocity": 109, "channel": 0}, {"type": "note_off", "time": 539, "note": 66, "velocity": 109, "channel": 0}, {"type": "note_on", "time": 144, "note": 69, "velocity": 116, "channel": 0}, {"type": "note_off", "time": 473, "note": 69, "velocity": 116, "channel": 0}, {"type": "note_on", "time": 803, "note": 69, "velocity": 91, "channel": 0}, {"type": "note_off", "time": 1895, "note": 69, "velocity": 91, "channel": 0}, {"type": "note_on", "time": 4423, "note": 69, "velocity": 106, "channel": 0}, {"type": "note_off", "time": 355, "note": 69, "velocity": 106, "channel": 0}, {"type": "note_on", "time": 157, "note": 74, "velocity": 115, "channel": 0}, {"type": "note_off", "time": 552, "note": 74, "velocity": 115, "channel": 0}, {"type": "note_on", "time": 52, "note": 76, "velocity": 116, "channel": 0}, {"type": "note_off", "time": 526, "note": 76, "velocity": 116, "channel": 0}, {"type": "note_on", "time": 65, "note": 77, "velocity": 111, "channel": 0}, {"type": "note_off", "time": 552, "note": 77, "velocity": 111, "channel": 0}, {"type": "note_on", "time": 118, "note": 76, "velocity": 117, "channel": 0}, {"type": "note_off", "time": 434, "note": 76, "velocity": 117, "channel": 0}, {"type": "note_on", "time": 131, "note": 74, "velocity": 108, "channel": 0}, {"type": "note_off", "time": 710, "note": 74, "velocity": 108, "channel": 0}, {"type": "note_on", "time": 144, "note": 69, "velocity": 111, "channel": 0}, {"type": "note_off", "time": 750, "note": 69, "velocity": 111, "channel": 0}, {"type": "note_on", "time": 118, "note": 70, "velocity": 100, "channel": 0}, {"type": "note_off", "time": 631, "note": 70, "velocity": 100, "channel": 0}, {"type": "note_on", "time": 131, "note": 69, "velocity": 99, "channel": 0}, {"type": "note_off", "time": 2146, "note": 69, "velocity": 99, "channel": 0}, {"type": "note_on", "time": 2304, "note": 57, "velocity": 94, "channel": 0}, {"type": "note_off", "time": 434, "note": 57, "velocity": 94, "channel": 0}, {"type": "note_on", "time": 105, "note": 62, "velocity": 116, "channel": 0}, {"type": "note_off", "time": 605, "note": 62, "velocity": 116, "channel": 0}, {"type": "note_on", "time": 105, "note": 64, "velocity": 116, "channel": 0}, {"type": "note_off", "time": 355, "note": 64, "velocity": 116, "channel": 0}, {"type": "note_on", "time": 55, "note": 66, "velocity": 115, "channel": 0}, {"type": "note_off", "time": 533, "note": 66, "velocity": 115, "channel": 0}, {"type": "note_on", "time": 128, "note": 68, "velocity": 110, "channel": 0}, {"type": "note_off", "time": 500, "note": 68, "velocity": 110, "channel": 0}, {"type": "note_on", "time": 59, "note": 72, "velocity": 120, "channel": 0}, {"type": "note_off", "time": 829, "note": 72, "velocity": 120, "channel": 0}, {"type": "note_on", "time": 184, "note": 74, "velocity": 106, "channel": 0}, {"type": "note_off", "time": 2554, "note": 74, "velocity": 106, "channel": 0}, {"type": "note_on", "time": 166, "note": 70, "velocity": 97, "channel": 0}, {"type": "note_off", "time": 789, "note": 70, "velocity": 97, "channel": 0}, {"type": "note_on", "time": 108, "note": 69, "velocity": 116, "channel": 0}, {"type": "note_off", "time": 481, "note": 69, "velocity": 116, "channel": 0}, {"type": "note_on", "time": 610, "note": 57, "velocity": 94, "channel": 0}, {"type": "note_off", "time": 592, "note": 57, "velocity": 94, "channel": 0}, {"type": "note_on", "time": 173, "note": 62, "velocity": 102, "channel": 0}, {"type": "note_off", "time": 460, "note": 62, "velocity": 102, "channel": 0}, {"type": "note_on", "time": 157, "note": 64, "velocity": 105, "channel": 0}, {"type": "note_off", "time": 368, "note": 64, "velocity": 105, "channel": 0}, {"type": "note_on", "time": 118, "note": 65, "velocity": 104, "channel": 0}, {"type": "note_off", "time": 460, "note": 65, "velocity": 104, "channel": 0}, {"type": "note_on", "time": 250, "note": 67, "velocity": 106, "channel": 0}, {"type": "note_off", "time": 434, "note": 67, "velocity": 106, "channel": 0}, {"type": "note_on", "time": 92, "note": 69, "velocity": 112, "channel": 0}, {"type": "note_off", "time": 724, "note": 69, "velocity": 112, "channel": 0}, {"type": "note_on", "time": 397, "note": 64, "velocity": 106, "channel": 0}, {"type": "note_off", "time": 1096, "note": 64, "velocity": 106, "channel": 0}, {"type": "note_on", "time": 83, "note": 57, "velocity": 91, "channel": 0}, {"type": "note_off", "time": 569, "note": 57, "velocity": 91, "channel": 0}, {"type": "note_on", "time": 127, "note": 62, "velocity": 90, "channel": 0}, {"type": "note_off", "time": 1570, "note": 62, "velocity": 90, "channel": 0}, {"type": "note_on", "time": 3943, "note": 76, "velocity": 113, "channel": 0}, {"type": "note_off", "time": 552, "note": 76, "velocity": 113, "channel": 0}, {"type": "note_on", "time": 681, "note": 76, "velocity": 113, "channel": 0}, {"type": "note_off", "time": 618, "note": 76, "velocity": 113, "channel": 0}, {"type": "note_on", "time": 625, "note": 76, "velocity": 112, "channel": 0}, {"type": "note_off", "time": 710, "note": 76, "velocity": 112, "channel": 0}, {"type": "note_on", "time": 506, "note": 76, "velocity": 113, "channel": 0}, {"type": "note_off", "time": 513, "note": 76, "velocity": 113, "channel": 0}, {"type": "note_on", "time": 773, "note": 76, "velocity": 113, "channel": 0}, {"type": "note_off", "time": 684, "note": 76, "velocity": 113, "channel": 0}, {"type": "note_on", "time": 184, "note": 76, "velocity": 108, "channel": 0}, {"type": "note_off", "time": 579, "note": 76, "velocity": 108, "channel": 0}, {"type": "note_on", "time": 487, "note": 76, "velocity": 112, "channel": 0}, {"type": "note_off", "time": 618, "note": 76, "velocity": 112, "channel": 0}, {"type": "note_on", "time": 65, "note": 75, "velocity": 108, "channel": 0}, {"type": "note_off", "time": 592, "note": 75, "velocity": 108, "channel": 0}, {"type": "note_on", "time": 65, "note": 76, "velocity": 100, "channel": 0}, {"type": "note_off", "time": 421, "note": 76, "velocity": 100, "channel": 0}, {"type": "note_on", "time": 157, "note": 79, "velocity": 111, "channel": 0}, {"type": "note_off", "time": 592, "note": 79, "velocity": 111, "channel": 0}, {"type": "note_on", "time": 579, "note": 76, "velocity": 114, "channel": 0}, {"type": "note_off", "time": 645, "note": 76, "velocity": 114, "channel": 0}, {"type": "note_on", "time": 144, "note": 74, "velocity": 108, "channel": 0}, {"type": "note_off", "time": 421, "note": 74, "velocity": 108, "channel": 0}, {"type": "note_on", "time": 197, "note": 72, "velocity": 111, "channel": 0}, {"type": "note_off", "time": 552, "note": 72, "velocity": 111, "channel": 0}, {"type": "note_on", "time": 197, "note": 69, "velocity": 96, "channel": 0}, {"type": "note_off", "time": 447, "note": 69, "velocity": 96, "channel": 0}, {"type": "note_on", "time": 52, "note": 72, "velocity": 96, "channel": 0}, {"type": "note_off", "time": 1435, "note": 72, "velocity": 96, "channel": 0}, {"type": "note_on", "time": 442, "note": 68, "velocity": 108, "channel": 0}, {"type": "note_off", "time": 407, "note": 68, "velocity": 108, "channel": 0}, {"type": "note_on", "time": 101, "note": 69, "velocity": 111, "channel": 0}, {"type": "note_off", "time": 1906, "note": 69, "velocity": 111, "channel": 0}, {"type": "note_on", "time": 130, "note": 72, "velocity": 110, "channel": 0}, {"type": "note_off", "time": 684, "note": 72, "velocity": 110, "channel": 0}, {"type": "note_on", "time": 447, "note": 69, "velocity": 114, "channel": 0}, {"type": "note_off", "time": 368, "note": 69, "velocity": 114, "channel": 0}, {"type": "note_on", "time": 315, "note": 65, "velocity": 111, "channel": 0}, {"type": "note_off", "time": 394, "note": 65, "velocity": 111, "channel": 0}, {"type": "note_on", "time": 223, "note": 65, "velocity": 101, "channel": 0}, {"type": "note_off", "time": 487, "note": 65, "velocity": 101, "channel": 0}, {"type": "note_on", "time": 118, "note": 62, "velocity": 97, "channel": 0}, {"type": "note_off", "time": 592, "note": 62, "velocity": 97, "channel": 0}, {"type": "note_on", "time": 131, "note": 65, "velocity": 95, "channel": 0}, {"type": "note_off", "time": 250, "note": 65, "velocity": 95, "channel": 0}, {"type": "note_on", "time": 250, "note": 67, "velocity": 104, "channel": 0}, {"type": "note_off", "time": 552, "note": 67, "velocity": 104, "channel": 0}, {"type": "note_on", "time": 118, "note": 71, "velocity": 108, "channel": 0}, {"type": "note_off", "time": 473, "note": 71, "velocity": 108, "channel": 0}, {"type": "note_on", "time": 1961, "note": 73, "velocity": 113, "channel": 0}, {"type": "note_off", "time": 276, "note": 73, "velocity": 113, "channel": 0}, {"type": "note_on", "time": 65, "note": 74, "velocity": 113, "channel": 0}, {"type": "note_off", "time": 1132, "note": 74, "velocity": 113, "channel": 0}, {"type": "note_on", "time": 197, "note": 73, "velocity": 116, "channel": 0}, {"type": "note_off", "time": 737, "note": 73, "velocity": 116, "channel": 0}, {"type": "note_on", "time": 157, "note": 74, "velocity": 113, "channel": 0}, {"type": "note_off", "time": 315, "note": 74, "velocity": 113, "channel": 0}, {"type": "note_on", "time": 276, "note": 72, "velocity": 114, "channel": 0}, {"type": "note_off", "time": 605, "note": 72, "velocity": 114, "channel": 0}, {"type": "note_on", "time": 92, "note": 73, "velocity": 113, "channel": 0}, {"type": "note_off", "time": 381, "note": 73, "velocity": 113, "channel": 0}, {"type": "note_on", "time": 125, "note": 74, "velocity": 113, "channel": 0}, {"type": "note_off", "time": 416, "note": 74, "velocity": 113, "channel": 0}, {"type": "note_on", "time": 166, "note": 67, "velocity": 89, "channel": 0}, {"type": "note_off", "time": 518, "note": 67, "velocity": 89, "channel": 0}, {"type": "note_on", "time": 103, "note": 68, "velocity": 104, "channel": 0}, {"type": "note_off", "time": 552, "note": 68, "velocity": 104, "channel": 0}, {"type": "note_on", "time": 105, "note": 70, "velocity": 111, "channel": 0}, {"type": "note_off", "time": 566, "note": 70, "velocity": 111, "channel": 0}, {"type": "note_on", "time": 42, "note": 71, "velocity": 116, "channel": 0}, {"type": "note_off", "time": 671, "note": 71, "velocity": 116, "channel": 0}, {"type": "note_on", "time": 62, "note": 72, "velocity": 112, "channel": 0}, {"type": "note_off", "time": 394, "note": 72, "velocity": 112, "channel": 0}, {"type": "note_on", "time": 65, "note": 73, "velocity": 112, "channel": 0}, {"type": "note_off", "time": 605, "note": 73, "velocity": 112, "channel": 0}, {"type": "note_on", "time": 78, "note": 74, "velocity": 115, "channel": 0}, {"type": "note_off", "time": 447, "note": 74, "velocity": 115, "channel": 0}, {"type": "note_on", "time": 105, "note": 73, "velocity": 111, "channel": 0}, {"type": "note_off", "time": 645, "note": 73, "velocity": 111, "channel": 0}, {"type": "note_on", "time": 26, "note": 72, "velocity": 108, "channel": 0}, {"type": "note_off", "time": 394, "note": 72, "velocity": 108, "channel": 0}, {"type": "note_on", "time": 118, "note": 70, "velocity": 103, "channel": 0}, {"type": "note_off", "time": 460, "note": 70, "velocity": 103, "channel": 0}, {"type": "note_on", "time": 329, "note": 68, "velocity": 109, "channel": 0}, {"type": "note_off", "time": 408, "note": 68, "velocity": 109, "channel": 0}, {"type": "note_on", "time": 157, "note": 65, "velocity": 107, "channel": 0}, {"type": "note_off", "time": 552, "note": 65, "velocity": 107, "channel": 0}, {"type": "note_on", "time": 737, "note": 63, "velocity": 97, "channel": 0}, {"type": "note_off", "time": 2343, "note": 63, "velocity": 97, "channel": 0}, {"type": "note_on", "time": 171, "note": 65, "velocity": 103, "channel": 0}, {"type": "note_off", "time": 697, "note": 65, "velocity": 103, "channel": 0}, {"type": "note_on", "time": 558, "note": 58, "velocity": 10, "channel": 0}, {"type": "note_off", "time": 472, "note": 58, "velocity": 10, "channel": 0}, {"type": "note_on", "time": 174, "note": 63, "velocity": 89, "channel": 0}, {"type": "note_off", "time": 1915, "note": 63, "velocity": 89, "channel": 0}, {"type": "note_on", "time": 3153, "note": 58, "velocity": 95, "channel": 0}, {"type": "note_off", "time": 355, "note": 58, "velocity": 95, "channel": 0}, {"type": "note_on", "time": 230, "note": 63, "velocity": 116, "channel": 0}, {"type": "note_off", "time": 579, "note": 63, "velocity": 116, "channel": 0}, {"type": "note_on", "time": 184, "note": 65, "velocity": 115, "channel": 0}, {"type": "note_off", "time": 394, "note": 65, "velocity": 115, "channel": 0}, {"type": "note_on", "time": 131, "note": 68, "velocity": 117, "channel": 0}, {"type": "note_off", "time": 526, "note": 68, "velocity": 117, "channel": 0}, {"type": "note_on", "time": 157, "note": 70, "velocity": 109, "channel": 0}, {"type": "note_off", "time": 236, "note": 70, "velocity": 109, "channel": 0}, {"type": "note_on", "time": 184, "note": 68, "velocity": 115, "channel": 0}, {"type": "note_off", "time": 737, "note": 68, "velocity": 115, "channel": 0}, {"type": "note_on", "time": 484, "note": 56, "velocity": 112, "channel": 0}, {"type": "note_off", "time": 500, "note": 56, "velocity": 112, "channel": 0}, {"type": "note_on", "time": 277, "note": 56, "velocity": 98, "channel": 0}, {"type": "note_off", "time": 500, "note": 56, "velocity": 98, "channel": 0}, {"type": "note_on", "time": 119, "note": 57, "velocity": 103, "channel": 0}, {"type": "note_off", "time": 658, "note": 57, "velocity": 103, "channel": 0}, {"type": "note_on", "time": 91, "note": 58, "velocity": 92, "channel": 0}, {"type": "note_off", "time": 421, "note": 58, "velocity": 92, "channel": 0}, {"type": "note_on", "time": 66, "note": 61, "velocity": 105, "channel": 0}, {"type": "note_off", "time": 329, "note": 61, "velocity": 105, "channel": 0}, {"type": "note_on", "time": 210, "note": 64, "velocity": 113, "channel": 0}, {"type": "note_off", "time": 342, "note": 64, "velocity": 113, "channel": 0}, {"type": "note_on", "time": 105, "note": 66, "velocity": 114, "channel": 0}, {"type": "note_off", "time": 592, "note": 66, "velocity": 114, "channel": 0}, {"type": "note_on", "time": 118, "note": 69, "velocity": 115, "channel": 0}, {"type": "note_off", "time": 1632, "note": 69, "velocity": 115, "channel": 0}, {"type": "note_on", "time": 131, "note": 68, "velocity": 109, "channel": 0}, {"type": "note_off", "time": 789, "note": 68, "velocity": 109, "channel": 0}, {"type": "note_on", "time": 388, "note": 56, "velocity": 96, "channel": 0}, {"type": "note_off", "time": 733, "note": 56, "velocity": 96, "channel": 0}, {"type": "note_on", "time": 233, "note": 61, "velocity": 89, "channel": 0}, {"type": "note_off", "time": 1593, "note": 61, "velocity": 89, "channel": 0}, {"type": "note_on", "time": 3126, "note": 68, "velocity": 118, "channel": 0}, {"type": "note_off", "time": 394, "note": 68, "velocity": 118, "channel": 0}, {"type": "note_on", "time": 164, "note": 70, "velocity": 117, "channel": 0}, {"type": "note_off", "time": 460, "note": 70, "velocity": 117, "channel": 0}, {"type": "note_on", "time": 329, "note": 70, "velocity": 117, "channel": 0}, {"type": "note_off", "time": 250, "note": 70, "velocity": 117, "channel": 0}, {"type": "note_on", "time": 78, "note": 68, "velocity": 118, "channel": 0}, {"type": "note_off", "time": 671, "note": 68, "velocity": 118, "channel": 0}, {"type": "note_on", "time": 658, "note": 75, "velocity": 108, "channel": 0}, {"type": "note_off", "time": 579, "note": 75, "velocity": 108, "channel": 0}, {"type": "note_on", "time": 579, "note": 75, "velocity": 109, "channel": 0}, {"type": "note_off", "time": 618, "note": 75, "velocity": 109, "channel": 0}, {"type": "note_on", "time": 579, "note": 75, "velocity": 108, "channel": 0}, {"type": "note_off", "time": 816, "note": 75, "velocity": 108, "channel": 0}, {"type": "note_on", "time": 513, "note": 75, "velocity": 110, "channel": 0}, {"type": "note_off", "time": 724, "note": 75, "velocity": 110, "channel": 0}, {"type": "note_on", "time": 467, "note": 75, "velocity": 109, "channel": 0}, {"type": "note_off", "time": 924, "note": 75, "velocity": 109, "channel": 0}, {"type": "note_on", "time": 134, "note": 74, "velocity": 111, "channel": 0}, {"type": "note_off", "time": 552, "note": 74, "velocity": 111, "channel": 0}, {"type": "note_on", "time": 197, "note": 73, "velocity": 113, "channel": 0}, {"type": "note_off", "time": 539, "note": 73, "velocity": 113, "channel": 0}, {"type": "note_on", "time": 118, "note": 72, "velocity": 102, "channel": 0}, {"type": "note_off", "time": 1382, "note": 72, "velocity": 102, "channel": 0}, {"type": "note_on", "time": 118, "note": 70, "velocity": 110, "channel": 0}, {"type": "note_off", "time": 579, "note": 70, "velocity": 110, "channel": 0}, {"type": "note_on", "time": 3107, "note": 73, "velocity": 115, "channel": 0}, {"type": "note_off", "time": 2725, "note": 73, "velocity": 115, "channel": 0}, {"type": "note_on", "time": 296, "note": 70, "velocity": 105, "channel": 0}, {"type": "note_off", "time": 4199, "note": 70, "velocity": 105, "channel": 0}, {"type": "note_on", "time": 164, "note": 73, "velocity": 115, "channel": 0}, {"type": "note_off", "time": 947, "note": 73, "velocity": 115, "channel": 0}, {"type": "note_on", "time": 144, "note": 70, "velocity": 104, "channel": 0}, {"type": "note_off", "time": 809, "note": 70, "velocity": 104, "channel": 0}, {"type": "note_on", "time": 59, "note": 65, "velocity": 103, "channel": 0}, {"type": "note_off", "time": 1000, "note": 65, "velocity": 103, "channel": 0}, {"type": "note_on", "time": 368, "note": 65, "velocity": 84, "channel": 0}, {"type": "note_off", "time": 3844, "note": 65, "velocity": 84, "channel": 0}, {"type": "note_on", "time": 3225, "note": 77, "velocity": 119, "channel": 0}, {"type": "note_off", "time": 1145, "note": 77, "velocity": 119, "channel": 0}, {"type": "note_on", "time": 184, "note": 76, "velocity": 121, "channel": 0}, {"type": "note_off", "time": 882, "note": 76, "velocity": 121, "channel": 0}, {"type": "note_on", "time": 197, "note": 75, "velocity": 105, "channel": 0}, {"type": "note_off", "time": 855, "note": 75, "velocity": 105, "channel": 0}, {"type": "note_on", "time": 184, "note": 73, "velocity": 102, "channel": 0}, {"type": "note_off", "time": 842, "note": 73, "velocity": 102, "channel": 0}, {"type": "note_on", "time": 144, "note": 70, "velocity": 103, "channel": 0}, {"type": "note_off", "time": 710, "note": 70, "velocity": 103, "channel": 0}, {"type": "note_on", "time": 302, "note": 65, "velocity": 106, "channel": 0}, {"type": "note_off", "time": 697, "note": 65, "velocity": 106, "channel": 0}, {"type": "note_on", "time": 118, "note": 64, "velocity": 105, "channel": 0}, {"type": "note_off", "time": 803, "note": 64, "velocity": 105, "channel": 0}, {"type": "note_on", "time": 197, "note": 63, "velocity": 101, "channel": 0}, {"type": "note_off", "time": 868, "note": 63, "velocity": 101, "channel": 0}, {"type": "note_on", "time": 171, "note": 61, "velocity": 92, "channel": 0}, {"type": "note_off", "time": 671, "note": 61, "velocity": 92, "channel": 0}, {"type": "note_on", "time": 377, "note": 58, "velocity": 91, "channel": 0}, {"type": "note_off", "time": 895, "note": 58, "velocity": 91, "channel": 0}, {"type": "note_on", "time": 136, "note": 61, "velocity": 92, "channel": 0}, {"type": "note_off", "time": 500, "note": 61, "velocity": 92, "channel": 0}, {"type": "note_on", "time": 223, "note": 64, "velocity": 102, "channel": 0}, {"type": "note_off", "time": 645, "note": 64, "velocity": 102, "channel": 0}, {"type": "note_on", "time": 276, "note": 69, "velocity": 110, "channel": 0}, {"type": "note_off", "time": 750, "note": 69, "velocity": 110, "channel": 0}, {"type": "note_on", "time": 210, "note": 73, "velocity": 103, "channel": 0}, {"type": "note_off", "time": 1369, "note": 73, "velocity": 103, "channel": 0}, {"type": "note_on", "time": 381, "note": 68, "velocity": 114, "channel": 0}, {"type": "note_off", "time": 2830, "note": 68, "velocity": 114, "channel": 0}, {"type": "note_on", "time": 197, "note": 73, "velocity": 112, "channel": 0}, {"type": "note_off", "time": 803, "note": 73, "velocity": 112, "channel": 0}, {"type": "note_on", "time": 118, "note": 71, "velocity": 99, "channel": 0}, {"type": "note_off", "time": 500, "note": 71, "velocity": 99, "channel": 0}, {"type": "note_on", "time": 171, "note": 69, "velocity": 102, "channel": 0}, {"type": "note_off", "time": 710, "note": 69, "velocity": 102, "channel": 0}, {"type": "note_on", "time": 355, "note": 67, "velocity": 104, "channel": 0}, {"type": "note_off", "time": 592, "note": 67, "velocity": 104, "channel": 0}, {"type": "note_on", "time": 26, "note": 64, "velocity": 100, "channel": 0}, {"type": "note_off", "time": 908, "note": 64, "velocity": 100, "channel": 0}, {"type": "note_on", "time": 118, "note": 62, "velocity": 92, "channel": 0}, {"type": "note_off", "time": 697, "note": 62, "velocity": 92, "channel": 0}, {"type": "note_on", "time": 236, "note": 61, "velocity": 94, "channel": 0}, {"type": "note_off", "time": 592, "note": 61, "velocity": 94, "channel": 0}, {"type": "note_on", "time": 355, "note": 64, "velocity": 98, "channel": 0}, {"type": "note_off", "time": 987, "note": 64, "velocity": 98, "channel": 0}, {"type": "note_on", "time": 236, "note": 69, "velocity": 100, "channel": 0}, {"type": "note_off", "time": 882, "note": 69, "velocity": 100, "channel": 0}, {"type": "note_on", "time": 450, "note": 62, "velocity": 84, "channel": 0}, {"type": "note_off", "time": 2425, "note": 62, "velocity": 84, "channel": 0}, {"type": "end_of_track", "time": 0}]]}