{"ticks_per_beat": 192, "tracks": [[{"type": "note_on", "time": 0, "note": 65, "velocity": 77, "channel": 0}, {"type": "note_off", "time": 99, "note": 65, "velocity": 77, "channel": 0}, {"type": "note_on", "time": 19, "note": 69, "velocity": 92, "channel": 0}, {"type": "note_off", "time": 107, "note": 69, "velocity": 92, "channel": 0}, {"type": "note_on", "time": 68, "note": 65, "velocity": 73, "channel": 0}, {"type": "note_off", "time": 159, "note": 65, "velocity": 73, "channel": 0}, {"type": "note_on", "time": 23, "note": 69, "velocity": 62, "channel": 0}, {"type": "note_off", "time": 176, "note": 69, "velocity": 62, "channel": 0}, {"type": "note_on", "time": 2, "note": 65, "velocity": 79, "channel": 0}, {"type": "note_off", "time": 150, "note": 65, "velocity": 79, "channel": 0}, {"type": "note_on", "time": 47, "note": 68, "velocity": 93, "channel": 0}, {"type": "note_off", "time": 127, "note": 68, "velocity": 93, "channel": 0}, {"type": "note_on", "time": 60, "note": 65, "velocity": 94, "channel": 0}, {"type": "note_off", "time": 114, "note": 65, "velocity": 94, "channel": 0}, {"type": "note_on", "time": 2, "note": 68, "velocity": 82, "channel": 0}, {"type": "note_off", "time": 135, "note": 68, "velocity": 82, "channel": 0}, {"type": "note_on", "time": 47, "note": 70, "velocity": 101, "channel": 0}, {"type": "note_off", "time": 86, "note": 70, "velocity": 101, "channel": 0}, {"type": "note_on", "time": 2, "note": 68, "velocity": 102, "channel": 0}, {"type": "note_on", "time": 129, "note": 69, "velocity": 103, "channel": 0}, {"type": "note_off", "time": 0, "note": 68, "velocity": 102, "channel": 0}, {"type": "note_off", "time": 71, "note": 69, "velocity": 103, "channel": 0}, {"type": "note_on", "time": 0, "note": 70, "velocity": 99, "channel": 0}, {"type": "note_off", "time": 90, "note": 70, "velocity": 99, "channel": 0}, {"type": "note_on", "time": 2, "note": 68, "velocity": 101, "channel": 0}, {"type": "note_on", "time": 86, "note": 69, "velocity": 110, "channel": 0}, {"type": "note_off", "time": 0, "note": 68, "velocity": 101, "channel": 0}, {"type": "note_off", "time": 96, "note": 69, "velocity": 110, "channel": 0}, {"type": "note_on", "time": 0, "note": 70, "velocity": 101, "channel": 0}, {"type": "note_off", "time": 92, "note": 70, "velocity": 101, "channel": 0}, {"type": "note_on", "time": 2, "note": 69, "velocity": 94, "channel": 0}, {"type": "note_off", "time": 49, "note": 69, "velocity": 94, "channel": 0}, {"type": "note_on", "time": 0, "note": 70, "velocity": 93, "channel": 0}, {"type": "note_off", "time": 62, "note": 70, "velocity": 93, "channel": 0}, {"type": "note_on", "time": 4, "note": 69, "velocity": 101, "channel": 0}, {"type": "track_name", "name": "Melody", "time": 13}, {"type": "set_tempo", "tempo": 258620, "time": 0}, {"type": "key_signature", "key": "Ab", "time": 0}, {"type": "time_signature", "numerator": 4, "denominator": 4, "clocks_per_click": 24, "notated_32nd_notes_per_beat": 8, "time": 0}, {"type": "note_off", "time": 38, "note": 69, "velocity": 101, "channel": 0}, {"type": "note_on", "time": 0, "note": 68, "velocity": 97, "channel": 0}, {"type": "note_off", "time": 157, "note": 68, "velocity": 97, "channel": 0}, {"type": "note_on", "time": 47, "note": 70, "velocity": 78, "channel": 0}, {"type": "note_off", "time": 131, "note": 70, "velocity": 78, "channel": 0}, {"type": "note_on", "time": 77, "note": 68, "velocity": 93, "channel": 0}, {"type": "note_off", "time": 140, "note": 68, "velocity": 93, "channel": 0}, {"type": "note_on", "time": 0, "note": 66, "velocity": 95, "channel": 0}, {"type": "note_on", "time": 40, "note": 67, "velocity": 109, "channel": 0}, {"type": "note_off", "time": 0, "note": 66, "velocity": 95, "channel": 0}, {"type": "note_off", "time": 124, "note": 67, "velocity": 109, "channel": 0}, {"type": "note_on", "time": 4, "note": 65, "velocity": 117, "channel": 0}, {"type": "note_off", "time": 116, "note": 65, "velocity": 117, "channel": 0}, {"type": "note_on", "time": 181, "note": 65, "velocity": 114, "channel": 0}, {"type": "note_off", "time": 107, "note": 65, "velocity": 114, "channel": 0}, {"type": "note_on", "time": 672, "note": 68, "velocity": 108, "channel": 0}, {"type": "note_on", "time": 56, "note": 70, "velocity": 108, "channel": 0}, {"type": "note_off", "time": 0, "note": 68, "velocity": 108, "channel": 0}, {"type": "note_off", "time": 58, "note": 70, "velocity": 108, "channel": 0}, {"type": "note_on", "time": 0, "note": 69, "velocity": 112, "channel": 0}, {"type": "note_on", "time": 86, "note": 68, "velocity": 117, "channel": 0}, {"type": "note_off", "time": 0, "note": 69, "velocity": 112, "channel": 0}, {"type": "note_off", "time": 81, "note": 68, "velocity": 117, "channel": 0}, {"type": "note_on", "time": 0, "note": 69, "velocity": 98, "channel": 0}, {"type": "note_off", "time": 40, "note": 69, "velocity": 98, "channel": 0}, {"type": "note_on", "time": 2, "note": 68, "velocity": 115, "channel": 0}, {"type": "note_on", "time": 73, "note": 67, "velocity": 118, "channel": 0}, {"type": "note_off", "time": 0, "note": 68, "velocity": 115, "channel": 0}, {"type": "note_on", "time": 92, "note": 68, "velocity": 99, "channel": 0}, {"type": "note_off", "time": 0, "note": 67, "velocity": 118, "channel": 0}, {"type": "note_off", "time": 34, "note": 68, "velocity": 99, "channel": 0}, {"type": "note_on", "time": 0, "note": 67, "velocity": 108, "channel": 0}, {"type": "note_off", "time": 75, "note": 67, "velocity": 108, "channel": 0}, {"type": "note_on", "time": 2, "note": 66, "velocity": 114, "channel": 0}, {"type": "note_off", "time": 168, "note": 66, "velocity": 114, "channel": 0}, {"type": "note_on", "time": 2, "note": 65, "velocity": 127, "channel": 0}, {"type": "note_off", "time": 109, "note": 65, "velocity": 127, "channel": 0}, {"type": "note_on", "time": 652, "note": 69, "velocity": 108, "channel": 0}, {"type": "note_off", "time": 45, "note": 69, "velocity": 108, "channel": 0}, {"type": "note_on", "time": 0, "note": 70, "velocity": 112, "channel": 0}, {"type": "note_off", "time": 62, "note": 70, "velocity": 112, "channel": 0}, {"type": "note_on", "time": 0, "note": 69, "velocity": 114, "channel": 0}, {"type": "note_off", "time": 81, "note": 69, "velocity": 114, "channel": 0}, {"type": "note_on", "time": 0, "note": 68, "velocity": 118, "channel": 0}, {"type": "note_off", "time": 92, "note": 68, "velocity": 118, "channel": 0}, {"type": "note_on", "time": 0, "note": 69, "velocity": 99, "channel": 0}, {"type": "note_off", "time": 43, "note": 69, "velocity": 99, "channel": 0}, {"type": "note_on", "time": 0, "note": 68, "velocity": 112, "channel": 0}, {"type": "note_off", "time": 51, "note": 68, "velocity": 112, "channel": 0}, {"type": "note_on", "time": 4, "note": 67, "velocity": 115, "channel": 0}, {"type": "note_off", "time": 185, "note": 67, "velocity": 115, "channel": 0}, {"type": "note_on", "time": 0, "note": 66, "velocity": 124, "channel": 0}, {"type": "note_off", "time": 92, "note": 66, "velocity": 124, "channel": 0}, {"type": "note_on", "time": 4, "note": 65, "velocity": 119, "channel": 0}, {"type": "note_off", "time": 51, "note": 65, "velocity": 119, "channel": 0}, {"type": "note_on", "time": 0, "note": 66, "velocity": 118, "channel": 0}, {"type": "note_off", "time": 58, "note": 66, "velocity": 118, "channel": 0}, {"type": "note_on", "time": 2, "note": 65, "velocity": 118, "channel": 0}, {"type": "note_off", "time": 129, "note": 65, "velocity": 118, "channel": 0}, {"type": "note_on", "time": 667, "note": 68, "velocity": 118, "channel": 0}, {"type": "note_off", "time": 64, "note": 68, "velocity": 118, "channel": 0}, {"type": "note_on", "time": 0, "note": 69, "velocity": 99, "channel": 0}, {"type": "note_off", "time": 34, "note": 69, "velocity": 99, "channel": 0}, {"type": "note_on", "time": 2, "note": 68, "velocity": 111, "channel": 0}, {"type": "note_off", "time": 71, "note": 68, "velocity": 111, "channel": 0}, {"type": "note_on", "time": 0, "note": 67, "velocity": 115, "channel": 0}, {"type": "note_off", "time": 90, "note": 67, "velocity": 115, "channel": 0}, {"type": "note_on", "time": 0, "note": 68, "velocity": 104, "channel": 0}, {"type": "note_off", "time": 62, "note": 68, "velocity": 104, "channel": 0}, {"type": "note_on", "time": 0, "note": 67, "velocity": 111, "channel": 0}, {"type": "note_off", "time": 32, "note": 67, "velocity": 111, "channel": 0}, {"type": "note_on", "time": 2, "note": 66, "velocity": 111, "channel": 0}, {"type": "note_off", "time": 79, "note": 66, "velocity": 111, "channel": 0}, {"type": "note_on", "time": 0, "note": 65, "velocity": 120, "channel": 0}, {"type": "note_off", "time": 60, "note": 65, "velocity": 120, "channel": 0}, {"type": "note_on", "time": 2, "note": 66, "velocity": 118, "channel": 0}, {"type": "note_off", "time": 23, "note": 66, "velocity": 118, "channel": 0}, {"type": "note_on", "time": 4, "note": 65, "velocity": 123, "channel": 0}, {"type": "note_off", "time": 88, "note": 65, "velocity": 123, "channel": 0}, {"type": "note_on", "time": 4, "note": 64, "velocity": 117, "channel": 0}, {"type": "note_off", "time": 43, "note": 64, "velocity": 117, "channel": 0}, {"type": "note_on", "time": 2, "note": 65, "velocity": 113, "channel": 0}, {"type": "note_off", "time": 71, "note": 65, "velocity": 113, "channel": 0}, {"type": "note_on", "time": 0, "note": 63, "velocity": 114, "channel": 0}, {"type": "note_off", "time": 127, "note": 63, "velocity": 114, "channel": 0}, {"type": "note_on", "time": 575, "note": 70, "velocity": 115, "channel": 0}, {"type": "note_off", "time": 88, "note": 70, "velocity": 115, "channel": 0}, {"type": "note_on", "time": 2, "note": 68, "velocity": 107, "channel": 0}, {"type": "note_off", "time": 51, "note": 68, "velocity": 107, "channel": 0}, {"type": "note_on", "time": 6, "note": 70, "velocity": 99, "channel": 0}, {"type": "note_off", "time": 53, "note": 70, "velocity": 99, "channel": 0}, {"type": "note_on", "time": 4, "note": 68, "velocity": 111, "channel": 0}, {"type": "note_off", "time": 71, "note": 68, "velocity": 111, "channel": 0}, {"type": "note_on", "time": 0, "note": 67, "velocity": 115, "channel": 0}, {"type": "note_off", "time": 77, "note": 67, "velocity": 115, "channel": 0}, {"type": "note_on", "time": 10, "note": 67, "velocity": 103, "channel": 0}, {"type": "note_off", "time": 101, "note": 67, "velocity": 103, "channel": 0}, {"type": "note_on", "time": 12, "note": 66, "velocity": 118, "channel": 0}, {"type": "note_off", "time": 56, "note": 66, "velocity": 118, "channel": 0}, {"type": "note_on", "time": 6, "note": 67, "velocity": 92, "channel": 0}, {"type": "note_off", "time": 23, "note": 67, "velocity": 92, "channel": 0}, {"type": "note_on", "time": 4, "note": 66, "velocity": 112, "channel": 0}, {"type": "note_off", "time": 45, "note": 66, "velocity": 112, "channel": 0}, {"type": "note_on", "time": 2, "note": 67, "velocity": 117, "channel": 0}, {"type": "note_on", "time": 30, "note": 65, "velocity": 121, "channel": 0}, {"type": "note_off", "time": 0, "note": 67, "velocity": 117, "channel": 0}, {"type": "note_off", "time": 64, "note": 65, "velocity": 121, "channel": 0}, {"type": "note_on", "time": 4, "note": 66, "velocity": 107, "channel": 0}, {"type": "note_off", "time": 47, "note": 66, "velocity": 107, "channel": 0}, {"type": "note_on", "time": 0, "note": 65, "velocity": 104, "channel": 0}, {"type": "note_off", "time": 56, "note": 65, "velocity": 104, "channel": 0}, {"type": "note_on", "time": 0, "note": 66, "velocity": 115, "channel": 0}, {"type": "note_off", "time": 43, "note": 66, "velocity": 115, "channel": 0}, {"type": "note_on", "time": 23, "note": 73, "velocity": 107, "channel": 0}, {"type": "note_off", "time": 81, "note": 73, "velocity": 107, "channel": 0}, {"type": "note_on", "time": 782, "note": 70, "velocity": 103, "channel": 0}, {"type": "note_off", "time": 73, "note": 70, "velocity": 103, "channel": 0}, {"type": "note_on", "time": 30, "note": 74, "velocity": 87, "channel": 0}, {"type": "note_off", "time": 43, "note": 74, "velocity": 87, "channel": 0}, {"type": "note_on", "time": 49, "note": 78, "velocity": 100, "channel": 0}, {"type": "note_off", "time": 47, "note": 78, "velocity": 100, "channel": 0}, {"type": "note_on", "time": 12, "note": 82, "velocity": 109, "channel": 0}, {"type": "note_off", "time": 86, "note": 82, "velocity": 109, "channel": 0}, {"type": "note_on", "time": 21, "note": 84, "velocity": 115, "channel": 0}, {"type": "note_off", "time": 77, "note": 84, "velocity": 115, "channel": 0}, {"type": "note_on", "time": 17, "note": 82, "velocity": 112, "channel": 0}, {"type": "note_off", "time": 60, "note": 82, "velocity": 112, "channel": 0}, {"type": "note_on", "time": 135, "note": 80, "velocity": 111, "channel": 0}, {"type": "note_off", "time": 90, "note": 80, "velocity": 111, "channel": 0}, {"type": "note_on", "time": 92, "note": 78, "velocity": 88, "channel": 0}, {"type": "note_off", "time": 101, "note": 78, "velocity": 88, "channel": 0}, {"type": "note_on", "time": 96, "note": 80, "velocity": 114, "channel": 0}, {"type": "note_off", "time": 86, "note": 80, "velocity": 114, "channel": 0}, {"type": "note_on", "time": 40, "note": 77, "velocity": 107, "channel": 0}, {"type": "note_off", "time": 73, "note": 77, "velocity": 107, "channel": 0}, {"type": "note_on", "time": 4, "note": 73, "velocity": 93, "channel": 0}, {"type": "note_off", "time": 84, "note": 73, "velocity": 93, "channel": 0}, {"type": "note_on", "time": 43, "note": 72, "velocity": 88, "channel": 0}, {"type": "note_off", "time": 32, "note": 72, "velocity": 88, "channel": 0}, {"type": "note_on", "time": 10, "note": 70, "velocity": 103, "channel": 0}, {"type": "note_off", "time": 34, "note": 70, "velocity": 103, "channel": 0}, {"type": "note_on", "time": 10, "note": 68, "velocity": 105, "channel": 0}, {"type": "note_off", "time": 86, "note": 68, "velocity": 105, "channel": 0}, {"type": "note_on", "time": 15, "note": 65, "velocity": 105, "channel": 0}, {"type": "note_off", "time": 62, "note": 65, "velocity": 105, "channel": 0}, {"type": "note_on", "time": 0, "note": 72, "velocity": 108, "channel": 0}, {"type": "note_off", "time": 124, "note": 72, "velocity": 108, "channel": 0}, {"type": "note_on", "time": 6, "note": 70, "velocity": 108, "channel": 0}, {"type": "note_off", "time": 58, "note": 70, "velocity": 108, "channel": 0}, {"type": "note_on", "time": 8, "note": 68, "velocity": 106, "channel": 0}, {"type": "note_off", "time": 101, "note": 68, "velocity": 106, "channel": 0}, {"type": "note_on", "time": 12, "note": 65, "velocity": 119, "channel": 0}, {"type": "note_off", "time": 96, "note": 65, "velocity": 119, "channel": 0}, {"type": "note_on", "time": 2, "note": 64, "velocity": 107, "channel": 0}, {"type": "note_off", "time": 90, "note": 64, "velocity": 107, "channel": 0}, {"type": "note_on", "time": 8, "note": 63, "velocity": 108, "channel": 0}, {"type": "note_off", "time": 66, "note": 63, "velocity": 108, "channel": 0}, {"type": "note_on", "time": 0, "note": 62, "velocity": 108, "channel": 0}, {"type": "note_off", "time": 161, "note": 62, "velocity": 108, "channel": 0}, {"type": "note_on", "time": 0, "note": 63, "velocity": 94, "channel": 0}, {"type": "note_off", "time": 36, "note": 63, "velocity": 94, "channel": 0}, {"type": "note_on", "time": 0, "note": 65, "velocity": 125, "channel": 0}, {"type": "note_off", "time": 133, "note": 65, "velocity": 125, "channel": 0}, {"type": "note_on", "time": 17, "note": 59, "velocity": 108, "channel": 0}, {"type": "note_off", "time": 77, "note": 59, "velocity": 108, "channel": 0}, {"type": "note_on", "time": 23, "note": 64, "velocity": 107, "channel": 0}, {"type": "note_off", "time": 73, "note": 64, "velocity": 107, "channel": 0}, {"type": "note_on", "time": 0, "note": 65, "velocity": 121, "channel": 0}, {"type": "note_on", "time": 73, "note": 63, "velocity": 109, "channel": 0}, {"type": "note_off", "time": 0, "note": 65, "velocity": 121, "channel": 0}, {"type": "note_off", "time": 109, "note": 63, "velocity": 109, "channel": 0}, {"type": "note_on", "time": 4, "note": 64, "velocity": 93, "channel": 0}, {"type": "note_off", "time": 77, "note": 64, "velocity": 93, "channel": 0}, {"type": "note_on", "time": 2, "note": 65, "velocity": 118, "channel": 0}, {"type": "note_off", "time": 116, "note": 65, "velocity": 118, "channel": 0}, {"type": "note_on", "time": 0, "note": 59, "velocity": 102, "channel": 0}, {"type": "note_off", "time": 79, "note": 59, "velocity": 102, "channel": 0}, {"type": "note_on", "time": 32, "note": 62, "velocity": 112, "channel": 0}, {"type": "note_off", "time": 90, "note": 62, "velocity": 112, "channel": 0}, {"type": "note_on", "time": 17, "note": 64, "velocity": 112, "channel": 0}, {"type": "note_on", "time": 71, "note": 65, "velocity": 119, "channel": 0}, {"type": "note_off", "time": 0, "note": 64, "velocity": 112, "channel": 0}, {"type": "note_off", "time": 92, "note": 65, "velocity": 119, "channel": 0}, {"type": "note_on", "time": 21, "note": 67, "velocity": 110, "channel": 0}, {"type": "note_off", "time": 66, "note": 67, "velocity": 110, "channel": 0}, {"type": "note_on", "time": 4, "note": 68, "velocity": 112, "channel": 0}, {"type": "note_off", "time": 107, "note": 68, "velocity": 112, "channel": 0}, {"type": "note_on", "time": 6, "note": 71, "velocity": 105, "channel": 0}, {"type": "note_off", "time": 99, "note": 71, "velocity": 105, "channel": 0}, {"type": "note_on", "time": 0, "note": 68, "velocity": 99, "channel": 0}, {"type": "note_off", "time": 64, "note": 68, "velocity": 99, "channel": 0}, {"type": "note_on", "time": 2, "note": 70, "velocity": 90, "channel": 0}, {"type": "note_off", "time": 34, "note": 70, "velocity": 90, "channel": 0}, {"type": "note_on", "time": 2, "note": 68, "velocity": 104, "channel": 0}, {"type": "note_off", "time": 75, "note": 68, "velocity": 104, "channel": 0}, {"type": "note_on", "time": 0, "note": 65, "velocity": 119, "channel": 0}, {"type": "note_off", "time": 99, "note": 65, "velocity": 119, "channel": 0}, {"type": "note_on", "time": 17, "note": 64, "velocity": 96, "channel": 0}, {"type": "note_off", "time": 94, "note": 64, "velocity": 96, "channel": 0}, {"type": "note_on", "time": 0, "note": 63, "velocity": 118, "channel": 0}, {"type": "note_off", "time": 99, "note": 63, "velocity": 118, "channel": 0}, {"type": "note_on", "time": 0, "note": 65, "velocity": 94, "channel": 0}, {"type": "note_off", "time": 62, "note": 65, "velocity": 94, "channel": 0}, {"type": "note_on", "time": 15, "note": 68, "velocity": 99, "channel": 0}, {"type": "note_off", "time": 116, "note": 68, "velocity": 99, "channel": 0}, {"type": "note_on", "time": 0, "note": 70, "velocity": 109, "channel": 0}, {"type": "note_off", "time": 64, "note": 70, "velocity": 109, "channel": 0}, {"type": "note_on", "time": 6, "note": 67, "velocity": 109, "channel": 0}, {"type": "note_off", "time": 112, "note": 67, "velocity": 109, "channel": 0}, {"type": "note_on", "time": 0, "note": 64, "velocity": 118, "channel": 0}, {"type": "note_off", "time": 88, "note": 64, "velocity": 118, "channel": 0}, {"type": "note_on", "time": 4, "note": 63, "velocity": 109, "channel": 0}, {"type": "note_off", "time": 133, "note": 63, "velocity": 109, "channel": 0}, {"type": "note_on", "time": 23, "note": 61, "velocity": 110, "channel": 0}, {"type": "note_off", "time": 137, "note": 61, "velocity": 110, "channel": 0}, {"type": "note_on", "time": 75, "note": 65, "velocity": 116, "channel": 0}, {"type": "note_off", "time": 124, "note": 65, "velocity": 116, "channel": 0}, {"type": "note_on", "time": 90, "note": 65, "velocity": 118, "channel": 0}, {"type": "note_off", "time": 135, "note": 65, "velocity": 118, "channel": 0}, {"type": "note_on", "time": 560, "note": 70, "velocity": 113, "channel": 0}, {"type": "note_on", "time": 81, "note": 69, "velocity": 101, "channel": 0}, {"type": "note_off", "time": 0, "note": 70, "velocity": 113, "channel": 0}, {"type": "note_off", "time": 176, "note": 69, "velocity": 101, "channel": 0}, {"type": "note_on", "time": 8, "note": 68, "velocity": 110, "channel": 0}, {"type": "note_off", "time": 127, "note": 68, "velocity": 110, "channel": 0}, {"type": "note_on", "time": 0, "note": 69, "velocity": 108, "channel": 0}, {"type": "note_off", "time": 36, "note": 69, "velocity": 108, "channel": 0}, {"type": "note_on", "time": 2, "note": 67, "velocity": 111, "channel": 0}, {"type": "note_off", "time": 131, "note": 67, "velocity": 111, "channel": 0}, {"type": "note_on", "time": 8, "note": 69, "velocity": 94, "channel": 0}, {"type": "note_off", "time": 66, "note": 69, "velocity": 94, "channel": 0}, {"type": "note_on", "time": 0, "note": 66, "velocity": 114, "channel": 0}, {"type": "note_off", "time": 62, "note": 66, "velocity": 114, "channel": 0}, {"type": "note_on", "time": 11, "note": 67, "velocity": 108, "channel": 0}, {"type": "note_off", "time": 24, "note": 67, "velocity": 108, "channel": 0}, {"type": "note_on", "time": 6, "note": 66, "velocity": 110, "channel": 0}, {"type": "note_off", "time": 21, "note": 66, "velocity": 110, "channel": 0}, {"type": "note_on", "time": 8, "note": 67, "velocity": 103, "channel": 0}, {"type": "note_off", "time": 43, "note": 67, "velocity": 103, "channel": 0}, {"type": "note_on", "time": 15, "note": 65, "velocity": 117, "channel": 0}, {"type": "note_off", "time": 114, "note": 65, "velocity": 117, "channel": 0}, {"type": "note_on", "time": 667, "note": 74, "velocity": 117, "channel": 0}, {"type": "note_off", "time": 77, "note": 74, "velocity": 117, "channel": 0}, {"type": "note_on", "time": 2, "note": 73, "velocity": 106, "channel": 0}, {"type": "note_off", "time": 47, "note": 73, "velocity": 106, "channel": 0}, {"type": "note_on", "time": 0, "note": 74, "velocity": 107, "channel": 0}, {"type": "note_off", "time": 60, "note": 74, "velocity": 107, "channel": 0}, {"type": "note_on", "time": 0, "note": 73, "velocity": 102, "channel": 0}, {"type": "note_off", "time": 62, "note": 73, "velocity": 102, "channel": 0}, {"type": "note_on", "time": 0, "note": 74, "velocity": 96, "channel": 0}, {"type": "note_off", "time": 112, "note": 74, "velocity": 96, "channel": 0}, {"type": "note_on", "time": 0, "note": 72, "velocity": 99, "channel": 0}, {"type": "note_on", "time": 103, "note": 73, "velocity": 84, "channel": 0}, {"type": "note_off", "time": 0, "note": 72, "velocity": 99, "channel": 0}, {"type": "note_off", "time": 30, "note": 73, "velocity": 84, "channel": 0}, {"type": "note_on", "time": 0, "note": 72, "velocity": 92, "channel": 0}, {"type": "note_off", "time": 68, "note": 72, "velocity": 92, "channel": 0}, {"type": "note_on", "time": 2, "note": 71, "velocity": 98, "channel": 0}, {"type": "note_off", "time": 86, "note": 71, "velocity": 98, "channel": 0}, {"type": "note_on", "time": 2, "note": 72, "velocity": 95, "channel": 0}, {"type": "note_off", "time": 47, "note": 72, "velocity": 95, "channel": 0}, {"type": "note_on", "time": 0, "note": 71, "velocity": 96, "channel": 0}, {"type": "note_off", "time": 60, "note": 71, "velocity": 96, "channel": 0}, {"type": "note_on", "time": 0, "note": 70, "velocity": 107, "channel": 0}, {"type": "note_on", "time": 68, "note": 71, "velocity": 106, "channel": 0}, {"type": "note_off", "time": 0, "note": 70, "velocity": 107, "channel": 0}, {"type": "note_off", "time": 49, "note": 71, "velocity": 106, "channel": 0}, {"type": "note_on", "time": 678, "note": 77, "velocity": 108, "channel": 0}, {"type": "note_off", "time": 114, "note": 77, "velocity": 108, "channel": 0}, {"type": "note_on", "time": 4, "note": 79, "velocity": 89, "channel": 0}, {"type": "note_off", "time": 81, "note": 79, "velocity": 89, "channel": 0}, {"type": "note_on", "time": 6, "note": 78, "velocity": 80, "channel": 0}, {"type": "note_off", "time": 34, "note": 78, "velocity": 80, "channel": 0}, {"type": "note_on", "time": 0, "note": 77, "velocity": 85, "channel": 0}, {"type": "note_off", "time": 47, "note": 77, "velocity": 85, "channel": 0}, {"type": "note_on", "time": 2, "note": 76, "velocity": 84, "channel": 0}, {"type": "note_off", "time": 90, "note": 76, "velocity": 84, "channel": 0}, {"type": "note_on", "time": 4, "note": 75, "velocity": 98, "channel": 0}, {"type": "note_off", "time": 68, "note": 75, "velocity": 98, "channel": 0}, {"type": "note_on", "time": 4, "note": 74, "velocity": 95, "channel": 0}, {"type": "note_off", "time": 53, "note": 74, "velocity": 95, "channel": 0}, {"type": "note_on", "time": 0, "note": 75, "velocity": 99, "channel": 0}, {"type": "note_on", "time": 56, "note": 74, "velocity": 97, "channel": 0}, {"type": "note_off", "time": 0, "note": 75, "velocity": 99, "channel": 0}, {"type": "note_off", "time": 193, "note": 74, "velocity": 97, "channel": 0}, {"type": "note_on", "time": 0, "note": 73, "velocity": 97, "channel": 0}, {"type": "note_off", "time": 66, "note": 73, "velocity": 97, "channel": 0}, {"type": "note_on", "time": 2, "note": 74, "velocity": 93, "channel": 0}, {"type": "note_on", "time": 64, "note": 73, "velocity": 96, "channel": 0}, {"type": "note_off", "time": 0, "note": 74, "velocity": 93, "channel": 0}, {"type": "note_off", "time": 47, "note": 73, "velocity": 96, "channel": 0}, {"type": "note_on", "time": 4, "note": 72, "velocity": 91, "channel": 0}, {"type": "note_off", "time": 43, "note": 72, "velocity": 91, "channel": 0}, {"type": "note_on", "time": 0, "note": 73, "velocity": 90, "channel": 0}, {"type": "note_off", "time": 148, "note": 73, "velocity": 90, "channel": 0}, {"type": "note_on", "time": 0, "note": 71, "velocity": 100, "channel": 0}, {"type": "note_off", "time": 88, "note": 71, "velocity": 100, "channel": 0}, {"type": "note_on", "time": 0, "note": 72, "velocity": 91, "channel": 0}, {"type": "note_on", "time": 56, "note": 71, "velocity": 94, "channel": 0}, {"type": "note_off", "time": 0, "note": 72, "velocity": 91, "channel": 0}, {"type": "note_off", "time": 56, "note": 71, "velocity": 94, "channel": 0}, {"type": "note_on", "time": 8, "note": 70, "velocity": 91, "channel": 0}, {"type": "note_off", "time": 58, "note": 70, "velocity": 91, "channel": 0}, {"type": "note_on", "time": 2, "note": 69, "velocity": 102, "channel": 0}, {"type": "note_off", "time": 49, "note": 69, "velocity": 102, "channel": 0}, {"type": "note_on", "time": 0, "note": 70, "velocity": 100, "channel": 0}, {"type": "note_off", "time": 60, "note": 70, "velocity": 100, "channel": 0}, {"type": "note_on", "time": 0, "note": 69, "velocity": 104, "channel": 0}, {"type": "note_off", "time": 79, "note": 69, "velocity": 104, "channel": 0}, {"type": "note_on", "time": 2, "note": 70, "velocity": 100, "channel": 0}, {"type": "note_off", "time": 56, "note": 70, "velocity": 100, "channel": 0}, {"type": "note_on", "time": 2, "note": 69, "velocity": 107, "channel": 0}, {"type": "note_off", "time": 53, "note": 69, "velocity": 107, "channel": 0}, {"type": "note_on", "time": 4, "note": 68, "velocity": 108, "channel": 0}, {"type": "note_off", "time": 92, "note": 68, "velocity": 108, "channel": 0}, {"type": "note_on", "time": 0, "note": 69, "velocity": 91, "channel": 0}, {"type": "note_off", "time": 32, "note": 69, "velocity": 91, "channel": 0}, {"type": "note_on", "time": 4, "note": 68, "velocity": 102, "channel": 0}, {"type": "note_off", "time": 62, "note": 68, "velocity": 102, "channel": 0}, {"type": "note_on", "time": 2, "note": 70, "velocity": 103, "channel": 0}, {"type": "note_off", "time": 62, "note": 70, "velocity": 103, "channel": 0}, {"type": "note_on", "time": 4, "note": 68, "velocity": 98, "channel": 0}, {"type": "note_off", "time": 53, "note": 68, "velocity": 98, "channel": 0}, {"type": "note_on", "time": 0, "note": 70, "velocity": 99, "channel": 0}, {"type": "note_off", "time": 56, "note": 70, "velocity": 99, "channel": 0}, {"type": "note_on", "time": 2, "note": 69, "velocity": 107, "channel": 0}, {"type": "note_off", "time": 21, "note": 69, "velocity": 107, "channel": 0}, {"type": "note_on", "time": 2, "note": 68, "velocity": 114, "channel": 0}, {"type": "note_off", "time": 19, "note": 68, "velocity": 114, "channel": 0}, {"type": "note_on", "time": 0, "note": 69, "velocity": 99, "channel": 0}, {"type": "note_off", "time": 28, "note": 69, "velocity": 99, "channel": 0}, {"type": "note_on", "time": 34, "note": 69, "velocity": 77, "channel": 0}, {"type": "note_off", "time": 49, "note": 69, "velocity": 77, "channel": 0}, {"type": "note_on", "time": 0, "note": 70, "velocity": 102, "channel": 0}, {"type": "note_off", "time": 56, "note": 70, "velocity": 102, "channel": 0}, {"type": "note_on", "time": 0, "note": 68, "velocity": 96, "channel": 0}, {"type": "note_off", "time": 112, "note": 68, "velocity": 96, "channel": 0}, {"type": "note_on", "time": 4, "note": 70, "velocity": 103, "channel": 0}, {"type": "note_off", "time": 56, "note": 70, "velocity": 103, "channel": 0}, {"type": "note_on", "time": 2, "note": 68, "velocity": 108, "channel": 0}, {"type": "note_off", "time": 56, "note": 68, "velocity": 108, "channel": 0}, {"type": "note_on", "time": 4, "note": 67, "velocity": 104, "channel": 0}, {"type": "note_off", "time": 58, "note": 67, "velocity": 104, "channel": 0}, {"type": "note_on", "time": 2, "note": 70, "velocity": 100, "channel": 0}, {"type": "note_off", "time": 84, "note": 70, "velocity": 100, "channel": 0}, {"type": "note_on", "time": 0, "note": 68, "velocity": 104, "channel": 0}, {"type": "note_off", "time": 127, "note": 68, "velocity": 104, "channel": 0}, {"type": "note_on", "time": 0, "note": 70, "velocity": 103, "channel": 0}, {"type": "note_off", "time": 68, "note": 70, "velocity": 103, "channel": 0}, {"type": "note_on", "time": 4, "note": 68, "velocity": 104, "channel": 0}, {"type": "note_off", "time": 120, "note": 68, "velocity": 104, "channel": 0}, {"type": "note_on", "time": 2, "note": 70, "velocity": 104, "channel": 0}, {"type": "note_off", "time": 66, "note": 70, "velocity": 104, "channel": 0}, {"type": "note_on", "time": 6, "note": 67, "velocity": 109, "channel": 0}, {"type": "note_off", "time": 94, "note": 67, "velocity": 109, "channel": 0}, {"type": "note_on", "time": 6, "note": 68, "velocity": 107, "channel": 0}, {"type": "note_off", "time": 34, "note": 68, "velocity": 107, "channel": 0}, {"type": "note_on", "time": 0, "note": 70, "velocity": 103, "channel": 0}, {"type": "note_off", "time": 58, "note": 70, "velocity": 103, "channel": 0}, {"type": "note_on", "time": 2, "note": 67, "velocity": 114, "channel": 0}, {"type": "note_off", "time": 86, "note": 67, "velocity": 114, "channel": 0}, {"type": "note_on", "time": 0, "note": 68, "velocity": 109, "channel": 0}, {"type": "note_off", "time": 45, "note": 68, "velocity": 109, "channel": 0}, {"type": "note_on", "time": 0, "note": 70, "velocity": 102, "channel": 0}, {"type": "note_off", "time": 62, "note": 70, "velocity": 102, "channel": 0}, {"type": "note_on", "time": 4, "note": 67, "velocity": 112, "channel": 0}, {"type": "note_on", "time": 75, "note": 68, "velocity": 108, "channel": 0}, {"type": "note_off", "time": 0, "note": 67, "velocity": 112, "channel": 0}, {"type": "note_off", "time": 53, "note": 68, "velocity": 108, "channel": 0}, {"type": "note_on", "time": 0, "note": 70, "velocity": 102, "channel": 0}, {"type": "note_off", "time": 53, "note": 70, "velocity": 102, "channel": 0}, {"type": "note_on", "time": 4, "note": 67, "velocity": 116, "channel": 0}, {"type": "note_off", "time": 94, "note": 67, "velocity": 116, "channel": 0}, {"type": "note_on", "time": 0, "note": 68, "velocity": 105, "channel": 0}, {"type": "note_off", "time": 30, "note": 68, "velocity": 105, "channel": 0}, {"type": "note_on", "time": 0, "note": 70, "velocity": 106, "channel": 0}, {"type": "note_off", "time": 73, "note": 70, "velocity": 106, "channel": 0}, {"type": "note_on", "time": 0, "note": 68, "velocity": 104, "channel": 0}, {"type": "note_off", "time": 84, "note": 68, "velocity": 104, "channel": 0}, {"type": "note_on", "time": 0, "note": 70, "velocity": 101, "channel": 0}, {"type": "note_off", "time": 79, "note": 70, "velocity": 101, "channel": 0}, {"type": "note_on", "time": 10, "note": 68, "velocity": 108, "channel": 0}, {"type": "note_off", "time": 96, "note": 68, "velocity": 108, "channel": 0}, {"type": "note_on", "time": 19, "note": 70, "velocity": 101, "channel": 0}, {"type": "note_off", "time": 75, "note": 70, "velocity": 101, "channel": 0}, {"type": "note_on", "time": 2, "note": 68, "velocity": 110, "channel": 0}, {"type": "note_off", "time": 79, "note": 68, "velocity": 110, "channel": 0}, {"type": "note_on", "time": 2, "note": 69, "velocity": 101, "channel": 0}, {"type": "note_off", "time": 43, "note": 69, "velocity": 101, "channel": 0}, {"type": "note_on", "time": 0, "note": 70, "velocity": 105, "channel": 0}, {"type": "note_off", "time": 60, "note": 70, "velocity": 105, "channel": 0}, {"type": "note_on", "time": 0, "note": 68, "velocity": 104, "channel": 0}, {"type": "note_off", "time": 118, "note": 68, "velocity": 104, "channel": 0}, {"type": "note_on", "time": 0, "note": 70, "velocity": 103, "channel": 0}, {"type": "note_off", "time": 77, "note": 70, "velocity": 103, "channel": 0}, {"type": "note_on", "time": 8, "note": 67, "velocity": 109, "channel": 0}, {"type": "note_off", "time": 90, "note": 67, "velocity": 109, "channel": 0}, {"type": "note_on", "time": 0, "note": 68, "velocity": 103, "channel": 0}, {"type": "note_off", "time": 28, "note": 68, "velocity": 103, "channel": 0}, {"type": "note_on", "time": 4, "note": 70, "velocity": 106, "channel": 0}, {"type": "note_off", "time": 45, "note": 70, "velocity": 106, "channel": 0}, {"type": "note_on", "time": 21, "note": 67, "velocity": 112, "channel": 0}, {"type": "note_on", "time": 68, "note": 68, "velocity": 106, "channel": 0}, {"type": "note_off", "time": 0, "note": 67, "velocity": 112, "channel": 0}, {"type": "note_off", "time": 47, "note": 68, "velocity": 106, "channel": 0}, {"type": "note_on", "time": 0, "note": 70, "velocity": 103, "channel": 0}, {"type": "note_off", "time": 64, "note": 70, "velocity": 103, "channel": 0}, {"type": "note_on", "time": 10, "note": 67, "velocity": 105, "channel": 0}, {"type": "note_off", "time": 51, "note": 67, "velocity": 105, "channel": 0}, {"type": "note_on", "time": 0, "note": 68, "velocity": 109, "channel": 0}, {"type": "note_on", "time": 53, "note": 70, "velocity": 102, "channel": 0}, {"type": "note_off", "time": 0, "note": 68, "velocity": 109, "channel": 0}, {"type": "note_off", "time": 77, "note": 70, "velocity": 102, "channel": 0}, {"type": "note_on", "time": 0, "note": 67, "velocity": 95, "channel": 0}, {"type": "note_off", "time": 42, "note": 67, "velocity": 95, "channel": 0}, {"type": "note_on", "time": 13, "note": 69, "velocity": 105, "channel": 0}, {"type": "note_off", "time": 65, "note": 69, "velocity": 105, "channel": 0}, {"type": "note_on", "time": 1, "note": 70, "velocity": 100, "channel": 0}, {"type": "note_off", "time": 63, "note": 70, "velocity": 100, "channel": 0}, {"type": "note_on", "time": 1, "note": 68, "velocity": 112, "channel": 0}, {"type": "note_off", "time": 101, "note": 68, "velocity": 112, "channel": 0}, {"type": "note_on", "time": 593, "note": 75, "velocity": 101, "channel": 0}, {"type": "note_off", "time": 84, "note": 75, "velocity": 101, "channel": 0}, {"type": "note_on", "time": 0, "note": 78, "velocity": 114, "channel": 0}, {"type": "note_off", "time": 93, "note": 78, "velocity": 114, "channel": 0}, {"type": "note_on", "time": 6, "note": 77, "velocity": 89, "channel": 0}, {"type": "note_off", "time": 75, "note": 77, "velocity": 89, "channel": 0}, {"type": "note_on", "time": 3, "note": 78, "velocity": 106, "channel": 0}, {"type": "note_off", "time": 89, "note": 78, "velocity": 106, "channel": 0}, {"type": "note_on", "time": 25, "note": 77, "velocity": 105, "channel": 0}, {"type": "note_on", "time": 74, "note": 75, "velocity": 101, "channel": 0}, {"type": "note_off", "time": 0, "note": 77, "velocity": 105, "channel": 0}, {"type": "note_off", "time": 103, "note": 75, "velocity": 101, "channel": 0}, {"type": "note_on", "time": 13, "note": 73, "velocity": 100, "channel": 0}, {"type": "note_off", "time": 75, "note": 73, "velocity": 100, "channel": 0}, {"type": "note_on", "time": 4, "note": 71, "velocity": 100, "channel": 0}, {"type": "note_off", "time": 115, "note": 71, "velocity": 100, "channel": 0}, {"type": "note_on", "time": 83, "note": 73, "velocity": 94, "channel": 0}, {"type": "note_off", "time": 103, "note": 73, "velocity": 94, "channel": 0}, {"type": "note_on", "time": 15, "note": 66, "velocity": 100, "channel": 0}, {"type": "note_off", "time": 69, "note": 66, "velocity": 100, "channel": 0}, {"type": "note_on", "time": 0, "note": 68, "velocity": 111, "channel": 0}, {"type": "note_off", "time": 121, "note": 68, "velocity": 111, "channel": 0}, {"type": "note_on", "time": 0, "note": 70, "velocity": 103, "channel": 0}, {"type": "note_off", "time": 69, "note": 70, "velocity": 103, "channel": 0}, {"type": "note_on", "time": 0, "note": 68, "velocity": 102, "channel": 0}, {"type": "note_on", "time": 62, "note": 70, "velocity": 93, "channel": 0}, {"type": "note_off", "time": 0, "note": 68, "velocity": 102, "channel": 0}, {"type": "note_on", "time": 62, "note": 68, "velocity": 105, "channel": 0}, {"type": "note_off", "time": 0, "note": 70, "velocity": 93, "channel": 0}, {"type": "note_off", "time": 60, "note": 68, "velocity": 105, "channel": 0}, {"type": "note_on", "time": 4, "note": 65, "velocity": 120, "channel": 0}, {"type": "note_off", "time": 109, "note": 65, "velocity": 120, "channel": 0}, {"type": "note_on", "time": 0, "note": 64, "velocity": 108, "channel": 0}, {"type": "note_off", "time": 84, "note": 64, "velocity": 108, "channel": 0}, {"type": "note_on", "time": 10, "note": 63, "velocity": 113, "channel": 0}, {"type": "note_off", "time": 103, "note": 63, "velocity": 113, "channel": 0}, {"type": "note_on", "time": 17, "note": 63, "velocity": 98, "channel": 0}, {"type": "note_off", "time": 168, "note": 63, "velocity": 98, "channel": 0}, {"type": "note_on", "time": 224, "note": 69, "velocity": 118, "channel": 0}, {"type": "note_off", "time": 92, "note": 69, "velocity": 118, "channel": 0}, {"type": "note_on", "time": 86, "note": 65, "velocity": 105, "channel": 0}, {"type": "note_off", "time": 56, "note": 65, "velocity": 105, "channel": 0}, {"type": "note_on", "time": 0, "note": 69, "velocity": 105, "channel": 0}, {"type": "note_off", "time": 101, "note": 69, "velocity": 105, "channel": 0}, {"type": "note_on", "time": 107, "note": 70, "velocity": 99, "channel": 0}, {"type": "note_off", "time": 124, "note": 70, "velocity": 99, "channel": 0}, {"type": "note_on", "time": 0, "note": 68, "velocity": 103, "channel": 0}, {"type": "note_off", "time": 81, "note": 68, "velocity": 103, "channel": 0}, {"type": "note_on", "time": 2, "note": 69, "velocity": 107, "channel": 0}, {"type": "note_off", "time": 94, "note": 69, "velocity": 107, "channel": 0}, {"type": "note_on", "time": 129, "note": 70, "velocity": 102, "channel": 0}, {"type": "note_off", "time": 99, "note": 70, "velocity": 102, "channel": 0}, {"type": "note_on", "time": 0, "note": 69, "velocity": 91, "channel": 0}, {"type": "note_off", "time": 60, "note": 69, "velocity": 91, "channel": 0}, {"type": "note_on", "time": 6, "note": 69, "velocity": 108, "channel": 0}, {"type": "note_off", "time": 101, "note": 69, "velocity": 108, "channel": 0}, {"type": "note_on", "time": 0, "note": 70, "velocity": 106, "channel": 0}, {"type": "note_off", "time": 88, "note": 70, "velocity": 106, "channel": 0}, {"type": "note_on", "time": 6, "note": 68, "velocity": 107, "channel": 0}, {"type": "note_off", "time": 122, "note": 68, "velocity": 107, "channel": 0}, {"type": "note_on", "time": 0, "note": 69, "velocity": 100, "channel": 0}, {"type": "note_off", "time": 66, "note": 69, "velocity": 100, "channel": 0}, {"type": "note_on", "time": 2, "note": 70, "velocity": 106, "channel": 0}, {"type": "note_off", "time": 88, "note": 70, "velocity": 106, "channel": 0}, {"type": "note_on", "time": 2, "note": 68, "velocity": 100, "channel": 0}, {"type": "note_off", "time": 75, "note": 68, "velocity": 100, "channel": 0}, {"type": "note_on", "time": 0, "note": 69, "velocity": 110, "channel": 0}, {"type": "note_off", "time": 81, "note": 69, "velocity": 110, "channel": 0}, {"type": "note_on", "time": 40, "note": 74, "velocity": 95, "channel": 0}, {"type": "note_off", "time": 256, "note": 74, "velocity": 95, "channel": 0}, {"type": "note_on", "time": 36, "note": 67, "velocity": 106, "channel": 0}, {"type": "note_off", "time": 105, "note": 67, "velocity": 106, "channel": 0}, {"type": "note_on", "time": 81, "note": 65, "velocity": 110, "channel": 0}, {"type": "note_off", "time": 198, "note": 65, "velocity": 110, "channel": 0}, {"type": "note_on", "time": 456, "note": 64, "velocity": 119, "channel": 0}, {"type": "note_off", "time": 672, "note": 64, "velocity": 119, "channel": 0}, {"type": "note_on", "time": 0, "note": 65, "velocity": 124, "channel": 0}, {"type": "note_off", "time": 165, "note": 65, "velocity": 124, "channel": 0}, {"type": "note_on", "time": 0, "note": 63, "velocity": 117, "channel": 0}, {"type": "note_off", "time": 120, "note": 63, "velocity": 117, "channel": 0}, {"type": "note_on", "time": 114, "note": 62, "velocity": 109, "channel": 0}, {"type": "note_off", "time": 122, "note": 62, "velocity": 109, "channel": 0}, {"type": "note_on", "time": 0, "note": 63, "velocity": 118, "channel": 0}, {"type": "note_off", "time": 68, "note": 63, "velocity": 118, "channel": 0}, {"type": "note_on", "time": 2, "note": 65, "velocity": 113, "channel": 0}, {"type": "note_off", "time": 112, "note": 65, "velocity": 113, "channel": 0}, {"type": "note_on", "time": 0, "note": 67, "velocity": 114, "channel": 0}, {"type": "note_off", "time": 62, "note": 67, "velocity": 114, "channel": 0}, {"type": "note_on", "time": 0, "note": 68, "velocity": 116, "channel": 0}, {"type": "note_off", "time": 105, "note": 68, "velocity": 116, "channel": 0}, {"type": "note_on", "time": 0, "note": 70, "velocity": 107, "channel": 0}, {"type": "note_off", "time": 73, "note": 70, "velocity": 107, "channel": 0}, {"type": "note_on", "time": 0, "note": 68, "velocity": 109, "channel": 0}, {"type": "note_off", "time": 124, "note": 68, "velocity": 109, "channel": 0}, {"type": "note_on", "time": 4, "note": 65, "velocity": 105, "channel": 0}, {"type": "note_off", "time": 75, "note": 65, "velocity": 105, "channel": 0}, {"type": "note_on", "time": 0, "note": 67, "velocity": 118, "channel": 0}, {"type": "note_off", "time": 107, "note": 67, "velocity": 118, "channel": 0}, {"type": "note_on", "time": 99, "note": 65, "velocity": 120, "channel": 0}, {"type": "note_off", "time": 112, "note": 65, "velocity": 120, "channel": 0}, {"type": "note_on", "time": 17, "note": 62, "velocity": 111, "channel": 0}, {"type": "note_off", "time": 64, "note": 62, "velocity": 111, "channel": 0}, {"type": "note_on", "time": 0, "note": 63, "velocity": 116, "channel": 0}, {"type": "note_off", "time": 94, "note": 63, "velocity": 116, "channel": 0}, {"type": "note_on", "time": 40, "note": 60, "velocity": 107, "channel": 0}, {"type": "note_off", "time": 75, "note": 60, "velocity": 107, "channel": 0}, {"type": "note_on", "time": 0, "note": 62, "velocity": 115, "channel": 0}, {"type": "note_off", "time": 88, "note": 62, "velocity": 115, "channel": 0}, {"type": "note_on", "time": 45, "note": 58, "velocity": 118, "channel": 0}, {"type": "note_off", "time": 168, "note": 58, "velocity": 118, "channel": 0}, {"type": "note_on", "time": 2, "note": 59, "velocity": 108, "channel": 0}, {"type": "note_off", "time": 60, "note": 59, "velocity": 108, "channel": 0}, {"type": "note_on", "time": 17, "note": 63, "velocity": 118, "channel": 0}, {"type": "note_off", "time": 116, "note": 63, "velocity": 118, "channel": 0}, {"type": "note_on", "time": 6, "note": 65, "velocity": 115, "channel": 0}, {"type": "note_off", "time": 66, "note": 65, "velocity": 115, "channel": 0}, {"type": "note_on", "time": 10, "note": 67, "velocity": 99, "channel": 0}, {"type": "note_off", "time": 105, "note": 67, "velocity": 99, "channel": 0}, {"type": "note_on", "time": 8, "note": 70, "velocity": 92, "channel": 0}, {"type": "note_off", "time": 86, "note": 70, "velocity": 92, "channel": 0}, {"type": "note_on", "time": 0, "note": 66, "velocity": 107, "channel": 0}, {"type": "note_off", "time": 198, "note": 66, "velocity": 107, "channel": 0}, {"type": "note_on", "time": 553, "note": 70, "velocity": 119, "channel": 0}, {"type": "note_off", "time": 94, "note": 70, "velocity": 119, "channel": 0}, {"type": "note_on", "time": 17, "note": 70, "velocity": 109, "channel": 0}, {"type": "note_off", "time": 64, "note": 70, "velocity": 109, "channel": 0}, {"type": "note_on", "time": 2, "note": 73, "velocity": 106, "channel": 0}, {"type": "note_off", "time": 118, "note": 73, "velocity": 106, "channel": 0}, {"type": "note_on", "time": 2, "note": 75, "velocity": 103, "channel": 0}, {"type": "note_off", "time": 71, "note": 75, "velocity": 103, "channel": 0}, {"type": "note_on", "time": 2, "note": 77, "velocity": 114, "channel": 0}, {"type": "note_off", "time": 118, "note": 77, "velocity": 114, "channel": 0}, {"type": "note_on", "time": 491, "note": 70, "velocity": 107, "channel": 0}, {"type": "note_off", "time": 118, "note": 70, "velocity": 107, "channel": 0}, {"type": "note_on", "time": 8, "note": 70, "velocity": 106, "channel": 0}, {"type": "note_off", "time": 36, "note": 70, "velocity": 106, "channel": 0}, {"type": "note_on", "time": 8, "note": 73, "velocity": 102, "channel": 0}, {"type": "note_off", "time": 92, "note": 73, "velocity": 102, "channel": 0}, {"type": "note_on", "time": 4, "note": 77, "velocity": 89, "channel": 0}, {"type": "note_off", "time": 75, "note": 77, "velocity": 89, "channel": 0}, {"type": "note_on", "time": 0, "note": 80, "velocity": 117, "channel": 0}, {"type": "note_off", "time": 94, "note": 80, "velocity": 117, "channel": 0}, {"type": "note_on", "time": 90, "note": 80, "velocity": 106, "channel": 0}, {"type": "note_off", "time": 185, "note": 80, "velocity": 106, "channel": 0}, {"type": "note_on", "time": 366, "note": 80, "velocity": 110, "channel": 0}, {"type": "note_off", "time": 256, "note": 80, "velocity": 110, "channel": 0}, {"type": "note_on", "time": 6, "note": 76, "velocity": 110, "channel": 0}, {"type": "note_off", "time": 90, "note": 76, "velocity": 110, "channel": 0}, {"type": "note_on", "time": 21, "note": 73, "velocity": 112, "channel": 0}, {"type": "note_off", "time": 66, "note": 73, "velocity": 112, "channel": 0}, {"type": "note_on", "time": 32, "note": 69, "velocity": 95, "channel": 0}, {"type": "note_off", "time": 77, "note": 69, "velocity": 95, "channel": 0}, {"type": "note_on", "time": 0, "note": 66, "velocity": 95, "channel": 0}, {"type": "note_off", "time": 84, "note": 66, "velocity": 95, "channel": 0}, {"type": "note_on", "time": 0, "note": 68, "velocity": 106, "channel": 0}, {"type": "note_off", "time": 86, "note": 68, "velocity": 106, "channel": 0}, {"type": "note_on", "time": 30, "note": 68, "velocity": 90, "channel": 0}, {"type": "note_off", "time": 249, "note": 68, "velocity": 90, "channel": 0}, {"type": "note_on", "time": 307, "note": 77, "velocity": 106, "channel": 0}, {"type": "note_off", "time": 280, "note": 77, "velocity": 106, "channel": 0}, {"type": "note_on", "time": 6, "note": 76, "velocity": 115, "channel": 0}, {"type": "note_off", "time": 96, "note": 76, "velocity": 115, "channel": 0}, {"type": "note_on", "time": 4, "note": 75, "velocity": 112, "channel": 0}, {"type": "note_off", "time": 79, "note": 75, "velocity": 112, "channel": 0}, {"type": "note_on", "time": 8, "note": 74, "velocity": 104, "channel": 0}, {"type": "note_off", "time": 103, "note": 74, "velocity": 104, "channel": 0}, {"type": "note_on", "time": 10, "note": 73, "velocity": 103, "channel": 0}, {"type": "note_off", "time": 68, "note": 73, "velocity": 103, "channel": 0}, {"type": "note_on", "time": 12, "note": 72, "velocity": 96, "channel": 0}, {"type": "note_off", "time": 88, "note": 72, "velocity": 96, "channel": 0}, {"type": "note_on", "time": 34, "note": 70, "velocity": 106, "channel": 0}, {"type": "note_off", "time": 47, "note": 70, "velocity": 106, "channel": 0}, {"type": "note_on", "time": 2, "note": 68, "velocity": 96, "channel": 0}, {"type": "note_off", "time": 124, "note": 68, "velocity": 96, "channel": 0}, {"type": "note_on", "time": 10, "note": 66, "velocity": 93, "channel": 0}, {"type": "note_off", "time": 58, "note": 66, "velocity": 93, "channel": 0}, {"type": "note_on", "time": 0, "note": 70, "velocity": 103, "channel": 0}, {"type": "note_off", "time": 92, "note": 70, "velocity": 103, "channel": 0}, {"type": "note_on", "time": 4, "note": 67, "velocity": 86, "channel": 0}, {"type": "note_off", "time": 79, "note": 67, "velocity": 86, "channel": 0}, {"type": "note_on", "time": 2, "note": 68, "velocity": 105, "channel": 0}, {"type": "note_off", "time": 120, "note": 68, "velocity": 105, "channel": 0}, {"type": "note_on", "time": 4, "note": 70, "velocity": 106, "channel": 0}, {"type": "note_off", "time": 81, "note": 70, "velocity": 106, "channel": 0}, {"type": "note_on", "time": 25, "note": 67, "velocity": 107, "channel": 0}, {"type": "note_off", "time": 49, "note": 67, "velocity": 107, "channel": 0}, {"type": "note_on", "time": 10, "note": 68, "velocity": 69, "channel": 0}, {"type": "note_off", "time": 90, "note": 68, "velocity": 69, "channel": 0}, {"type": "note_on", "time": 0, "note": 70, "velocity": 107, "channel": 0}, {"type": "note_off", "time": 112, "note": 70, "velocity": 107, "channel": 0}, {"type": "note_on", "time": 12, "note": 67, "velocity": 108, "channel": 0}, {"type": "note_on", "time": 73, "note": 68, "velocity": 107, "channel": 0}, {"type": "note_off", "time": 0, "note": 67, "velocity": 108, "channel": 0}, {"type": "note_off", "time": 109, "note": 68, "velocity": 107, "channel": 0}, {"type": "note_on", "time": 0, "note": 69, "velocity": 102, "channel": 0}, {"type": "note_off", "time": 92, "note": 69, "velocity": 102, "channel": 0}, {"type": "note_on", "time": 0, "note": 70, "velocity": 101, "channel": 0}, {"type": "note_off", "time": 105, "note": 70, "velocity": 101, "channel": 0}, {"type": "note_on", "time": 2, "note": 71, "velocity": 96, "channel": 0}, {"type": "note_off", "time": 73, "note": 71, "velocity": 96, "channel": 0}, {"type": "note_on", "time": 4, "note": 73, "velocity": 95, "channel": 0}, {"type": "note_off", "time": 566, "note": 73, "velocity": 95, "channel": 0}, {"type": "note_on", "time": 0, "note": 74, "velocity": 96, "channel": 0}, {"type": "note_off", "time": 107, "note": 74, "velocity": 96, "channel": 0}, {"type": "note_on", "time": 28, "note": 69, "velocity": 90, "channel": 0}, {"type": "note_off", "time": 105, "note": 69, "velocity": 90, "channel": 0}, {"type": "note_on", "time": 75, "note": 67, "velocity": 97, "channel": 0}, {"type": "note_off", "time": 273, "note": 67, "velocity": 97, "channel": 0}, {"type": "note_on", "time": 6, "note": 65, "velocity": 100, "channel": 0}, {"type": "note_off", "time": 107, "note": 65, "velocity": 100, "channel": 0}, {"type": "note_on", "time": 75, "note": 69, "velocity": 95, "channel": 0}, {"type": "note_off", "time": 168, "note": 69, "velocity": 95, "channel": 0}, {"type": "note_on", "time": 579, "note": 74, "velocity": 114, "channel": 0}, {"type": "note_off", "time": 118, "note": 74, "velocity": 114, "channel": 0}, {"type": "note_on", "time": 0, "note": 77, "velocity": 109, "channel": 0}, {"type": "note_off", "time": 73, "note": 77, "velocity": 109, "channel": 0}, {"type": "note_on", "time": 0, "note": 74, "velocity": 105, "channel": 0}, {"type": "note_off", "time": 103, "note": 74, "velocity": 105, "channel": 0}, {"type": "note_on", "time": 114, "note": 73, "velocity": 106, "channel": 0}, {"type": "note_off", "time": 103, "note": 73, "velocity": 106, "channel": 0}, {"type": "note_on", "time": 4, "note": 77, "velocity": 101, "channel": 0}, {"type": "note_off", "time": 75, "note": 77, "velocity": 101, "channel": 0}, {"type": "note_on", "time": 12, "note": 73, "velocity": 97, "channel": 0}, {"type": "note_off", "time": 68, "note": 73, "velocity": 97, "channel": 0}, {"type": "note_on", "time": 45, "note": 70, "velocity": 94, "channel": 0}, {"type": "note_off", "time": 47, "note": 70, "velocity": 94, "channel": 0}, {"type": "note_on", "time": 6, "note": 72, "velocity": 104, "channel": 0}, {"type": "note_off", "time": 96, "note": 72, "velocity": 104, "channel": 0}, {"type": "note_on", "time": 92, "note": 74, "velocity": 112, "channel": 0}, {"type": "note_off", "time": 92, "note": 74, "velocity": 112, "channel": 0}, {"type": "note_on", "time": 21, "note": 72, "velocity": 103, "channel": 0}, {"type": "note_off", "time": 71, "note": 72, "velocity": 103, "channel": 0}, {"type": "note_on", "time": 12, "note": 70, "velocity": 101, "channel": 0}, {"type": "note_off", "time": 79, "note": 70, "velocity": 101, "channel": 0}, {"type": "note_on", "time": 19, "note": 69, "velocity": 106, "channel": 0}, {"type": "note_off", "time": 71, "note": 69, "velocity": 106, "channel": 0}, {"type": "note_on", "time": 4, "note": 68, "velocity": 108, "channel": 0}, {"type": "note_off", "time": 112, "note": 68, "velocity": 108, "channel": 0}, {"type": "note_on", "time": 8, "note": 65, "velocity": 102, "channel": 0}, {"type": "note_off", "time": 60, "note": 65, "velocity": 102, "channel": 0}, {"type": "note_on", "time": 2, "note": 67, "velocity": 104, "channel": 0}, {"type": "note_off", "time": 109, "note": 67, "velocity": 104, "channel": 0}, {"type": "note_on", "time": 17, "note": 65, "velocity": 115, "channel": 0}, {"type": "note_off", "time": 105, "note": 65, "velocity": 115, "channel": 0}, {"type": "note_on", "time": 2, "note": 64, "velocity": 114, "channel": 0}, {"type": "note_off", "time": 60, "note": 64, "velocity": 114, "channel": 0}, {"type": "note_on", "time": 15, "note": 63, "velocity": 110, "channel": 0}, {"type": "note_off", "time": 96, "note": 63, "velocity": 110, "channel": 0}, {"type": "note_on", "time": 0, "note": 62, "velocity": 107, "channel": 0}, {"type": "note_off", "time": 105, "note": 62, "velocity": 107, "channel": 0}, {"type": "note_on", "time": 56, "note": 65, "velocity": 9, "channel": 0}, {"type": "note_off", "time": 112, "note": 65, "velocity": 9, "channel": 0}, {"type": "note_on", "time": 32, "note": 62, "velocity": 102, "channel": 0}, {"type": "note_off", "time": 53, "note": 62, "velocity": 102, "channel": 0}, {"type": "note_on", "time": 0, "note": 63, "velocity": 120, "channel": 0}, {"type": "note_off", "time": 109, "note": 63, "velocity": 120, "channel": 0}, {"type": "note_on", "time": 96, "note": 62, "velocity": 119, "channel": 0}, {"type": "note_off", "time": 105, "note": 62, "velocity": 119, "channel": 0}, {"type": "note_on", "time": 94, "note": 65, "velocity": 117, "channel": 0}, {"type": "note_off", "time": 144, "note": 65, "velocity": 117, "channel": 0}, {"type": "note_on", "time": 2, "note": 63, "velocity": 109, "channel": 0}, {"type": "note_off", "time": 165, "note": 63, "velocity": 109, "channel": 0}, {"type": "note_on", "time": 0, "note": 64, "velocity": 117, "channel": 0}, {"type": "note_off", "time": 45, "note": 64, "velocity": 117, "channel": 0}, {"type": "note_on", "time": 0, "note": 65, "velocity": 116, "channel": 0}, {"type": "note_off", "time": 133, "note": 65, "velocity": 116, "channel": 0}, {"type": "note_on", "time": 32, "note": 63, "velocity": 115, "channel": 0}, {"type": "note_off", "time": 131, "note": 63, "velocity": 115, "channel": 0}, {"type": "note_on", "time": 15, "note": 60, "velocity": 98, "channel": 0}, {"type": "note_off", "time": 71, "note": 60, "velocity": 98, "channel": 0}, {"type": "note_on", "time": 0, "note": 63, "velocity": 112, "channel": 0}, {"type": "note_off", "time": 103, "note": 63, "velocity": 112, "channel": 0}, {"type": "note_on", "time": 2, "note": 65, "velocity": 115, "channel": 0}, {"type": "note_off", "time": 90, "note": 65, "velocity": 115, "channel": 0}, {"type": "note_on", "time": 0, "note": 68, "velocity": 102, "channel": 0}, {"type": "note_off", "time": 99, "note": 68, "velocity": 102, "channel": 0}, {"type": "note_on", "time": 4, "note": 72, "velocity": 110, "channel": 0}, {"type": "note_off", "time": 75, "note": 72, "velocity": 110, "channel": 0}, {"type": "note_on", "time": 676, "note": 72, "velocity": 96, "channel": 0}, {"type": "note_off", "time": 68, "note": 72, "velocity": 96, "channel": 0}, {"type": "note_on", "time": 0, "note": 77, "velocity": 112, "channel": 0}, {"type": "note_off", "time": 137, "note": 77, "velocity": 112, "channel": 0}, {"type": "note_on", "time": 4, "note": 79, "velocity": 101, "channel": 0}, {"type": "note_off", "time": 49, "note": 79, "velocity": 101, "channel": 0}, {"type": "note_on", "time": 2, "note": 80, "velocity": 118, "channel": 0}, {"type": "note_off", "time": 122, "note": 80, "velocity": 118, "channel": 0}, {"type": "note_on", "time": 0, "note": 79, "velocity": 113, "channel": 0}, {"type": "note_off", "time": 66, "note": 79, "velocity": 113, "channel": 0}, {"type": "note_on", "time": 2, "note": 80, "velocity": 104, "channel": 0}, {"type": "note_off", "time": 127, "note": 80, "velocity": 104, "channel": 0}, {"type": "note_on", "time": 2, "note": 79, "velocity": 101, "channel": 0}, {"type": "note_off", "time": 68, "note": 79, "velocity": 101, "channel": 0}, {"type": "note_on", "time": 2, "note": 78, "velocity": 101, "channel": 0}, {"type": "note_off", "time": 81, "note": 78, "velocity": 101, "channel": 0}, {"type": "note_on", "time": 4, "note": 76, "velocity": 90, "channel": 0}, {"type": "note_off", "time": 34, "note": 76, "velocity": 90, "channel": 0}, {"type": "note_on", "time": 0, "note": 79, "velocity": 111, "channel": 0}, {"type": "note_off", "time": 66, "note": 79, "velocity": 111, "channel": 0}, {"type": "note_on", "time": 0, "note": 77, "velocity": 112, "channel": 0}, {"type": "note_off", "time": 94, "note": 77, "velocity": 112, "channel": 0}, {"type": "note_on", "time": 2, "note": 76, "velocity": 109, "channel": 0}, {"type": "note_on", "time": 86, "note": 74, "velocity": 113, "channel": 0}, {"type": "note_off", "time": 0, "note": 76, "velocity": 109, "channel": 0}, {"type": "note_off", "time": 107, "note": 74, "velocity": 113, "channel": 0}, {"type": "note_on", "time": 2, "note": 73, "velocity": 110, "channel": 0}, {"type": "note_off", "time": 75, "note": 73, "velocity": 110, "channel": 0}, {"type": "note_on", "time": 2, "note": 72, "velocity": 107, "channel": 0}, {"type": "note_off", "time": 118, "note": 72, "velocity": 107, "channel": 0}, {"type": "note_on", "time": 0, "note": 70, "velocity": 110, "channel": 0}, {"type": "note_off", "time": 62, "note": 70, "velocity": 110, "channel": 0}, {"type": "note_on", "time": 4, "note": 68, "velocity": 113, "channel": 0}, {"type": "note_off", "time": 127, "note": 68, "velocity": 113, "channel": 0}, {"type": "note_on", "time": 17, "note": 65, "velocity": 101, "channel": 0}, {"type": "note_off", "time": 49, "note": 65, "velocity": 101, "channel": 0}, {"type": "note_on", "time": 4, "note": 70, "velocity": 113, "channel": 0}, {"type": "note_off", "time": 105, "note": 70, "velocity": 113, "channel": 0}, {"type": "note_on", "time": 2, "note": 68, "velocity": 112, "channel": 0}, {"type": "note_off", "time": 66, "note": 68, "velocity": 112, "channel": 0}, {"type": "note_on", "time": 8, "note": 70, "velocity": 113, "channel": 0}, {"type": "note_off", "time": 112, "note": 70, "velocity": 113, "channel": 0}, {"type": "note_on", "time": 6, "note": 68, "velocity": 115, "channel": 0}, {"type": "note_off", "time": 96, "note": 68, "velocity": 115, "channel": 0}, {"type": "note_on", "time": 0, "note": 67, "velocity": 120, "channel": 0}, {"type": "note_off", "time": 73, "note": 67, "velocity": 120, "channel": 0}, {"type": "note_on", "time": 0, "note": 65, "velocity": 122, "channel": 0}, {"type": "note_off", "time": 92, "note": 65, "velocity": 122, "channel": 0}, {"type": "note_on", "time": 4, "note": 64, "velocity": 120, "channel": 0}, {"type": "note_off", "time": 99, "note": 64, "velocity": 120, "channel": 0}, {"type": "note_on", "time": 0, "note": 63, "velocity": 121, "channel": 0}, {"type": "note_off", "time": 73, "note": 63, "velocity": 121, "channel": 0}, {"type": "note_on", "time": 2, "note": 62, "velocity": 118, "channel": 0}, {"type": "note_off", "time": 135, "note": 62, "velocity": 118, "channel": 0}, {"type": "note_on", "time": 40, "note": 65, "velocity": 113, "channel": 0}, {"type": "note_off", "time": 124, "note": 65, "velocity": 113, "channel": 0}, {"type": "note_on", "time": 45, "note": 63, "velocity": 113, "channel": 0}, {"type": "note_off", "time": 142, "note": 63, "velocity": 113, "channel": 0}, {"type": "note_on", "time": 6, "note": 60, "velocity": 94, "channel": 0}, {"type": "note_off", "time": 99, "note": 60, "velocity": 94, "channel": 0}, {"type": "note_on", "time": 2, "note": 61, "velocity": 114, "channel": 0}, {"type": "note_off", "time": 79, "note": 61, "velocity": 114, "channel": 0}, {"type": "note_on", "time": 25, "note": 58, "velocity": 103, "channel": 0}, {"type": "note_off", "time": 51, "note": 58, "velocity": 103, "channel": 0}, {"type": "note_on", "time": 23, "note": 60, "velocity": 106, "channel": 0}, {"type": "note_off", "time": 75, "note": 60, "velocity": 106, "channel": 0}, {"type": "note_on", "time": 2, "note": 63, "velocity": 110, "channel": 0}, {"type": "note_off", "time": 75, "note": 63, "velocity": 110, "channel": 0}, {"type": "note_on", "time": 2, "note": 65, "velocity": 118, "channel": 0}, {"type": "note_off", "time": 112, "note": 65, "velocity": 118, "channel": 0}, {"type": "note_on", "time": 2, "note": 69, "velocity": 103, "channel": 0}, {"type": "note_off", "time": 73, "note": 69, "velocity": 103, "channel": 0}, {"type": "note_on", "time": 0, "note": 72, "velocity": 108, "channel": 0}, {"type": "note_off", "time": 86, "note": 72, "velocity": 108, "channel": 0}, {"type": "note_on", "time": 43, "note": 67, "velocity": 103, "channel": 0}, {"type": "note_off", "time": 271, "note": 67, "velocity": 103, "channel": 0}, {"type": "note_on", "time": 19, "note": 65, "velocity": 114, "channel": 0}, {"type": "note_off", "time": 92, "note": 65, "velocity": 114, "channel": 0}, {"type": "note_on", "time": 2, "note": 64, "velocity": 115, "channel": 0}, {"type": "note_off", "time": 75, "note": 64, "velocity": 115, "channel": 0}, {"type": "note_on", "time": 0, "note": 65, "velocity": 115, "channel": 0}, {"type": "note_off", "time": 96, "note": 65, "velocity": 115, "channel": 0}, {"type": "note_on", "time": 12, "note": 64, "velocity": 109, "channel": 0}, {"type": "note_off", "time": 60, "note": 64, "velocity": 109, "channel": 0}, {"type": "note_on", "time": 19, "note": 63, "velocity": 113, "channel": 0}, {"type": "note_off", "time": 79, "note": 63, "velocity": 113, "channel": 0}, {"type": "note_on", "time": 21, "note": 58, "velocity": 112, "channel": 0}, {"type": "note_off", "time": 64, "note": 58, "velocity": 112, "channel": 0}, {"type": "note_on", "time": 0, "note": 62, "velocity": 103, "channel": 0}, {"type": "note_off", "time": 79, "note": 62, "velocity": 103, "channel": 0}, {"type": "note_on", "time": 2, "note": 65, "velocity": 106, "channel": 0}, {"type": "note_off", "time": 81, "note": 65, "velocity": 106, "channel": 0}, {"type": "note_on", "time": 0, "note": 69, "velocity": 115, "channel": 0}, {"type": "note_off", "time": 230, "note": 69, "velocity": 115, "channel": 0}, {"type": "note_on", "time": 0, "note": 68, "velocity": 105, "channel": 0}, {"type": "note_off", "time": 353, "note": 68, "velocity": 105, "channel": 0}, {"type": "note_on", "time": 4, "note": 67, "velocity": 100, "channel": 0}, {"type": "note_off", "time": 211, "note": 67, "velocity": 100, "channel": 0}, {"type": "note_on", "time": 4, "note": 65, "velocity": 113, "channel": 0}, {"type": "note_off", "time": 118, "note": 65, "velocity": 113, "channel": 0}, {"type": "note_on", "time": 176, "note": 65, "velocity": 112, "channel": 0}, {"type": "note_off", "time": 450, "note": 65, "velocity": 112, "channel": 0}, {"type": "end_of_track", "time": 0}]]}