{"ticks_per_beat": 192, "tracks": [[{"type": "track_name", "name": "Melody", "time": 0}, {"type": "set_tempo", "tempo": 247933, "time": 0}, {"type": "key_signature", "key": "Bb", "time": 0}, {"type": "time_signature", "numerator": 4, "denominator": 4, "clocks_per_click": 24, "notated_32nd_notes_per_beat": 8, "time": 0}, {"type": "note_on", "time": 2670, "note": 70, "velocity": 104, "channel": 0}, {"type": "note_off", "time": 186, "note": 70, "velocity": 104, "channel": 0}, {"type": "note_on", "time": 197, "note": 70, "velocity": 108, "channel": 0}, {"type": "note_off", "time": 173, "note": 70, "velocity": 108, "channel": 0}, {"type": "note_on", "time": 125, "note": 70, "velocity": 101, "channel": 0}, {"type": "note_off", "time": 247, "note": 70, "velocity": 101, "channel": 0}, {"type": "note_on", "time": 966, "note": 70, "velocity": 114, "channel": 0}, {"type": "note_off", "time": 86, "note": 70, "velocity": 114, "channel": 0}, {"type": "note_on", "time": 25, "note": 72, "velocity": 112, "channel": 0}, {"type": "note_off", "time": 88, "note": 72, "velocity": 112, "channel": 0}, {"type": "note_on", "time": 88, "note": 73, "velocity": 117, "channel": 0}, {"type": "note_off", "time": 83, "note": 73, "velocity": 117, "channel": 0}, {"type": "note_on", "time": 102, "note": 70, "velocity": 113, "channel": 0}, {"type": "note_off", "time": 78, "note": 70, "velocity": 113, "channel": 0}, {"type": "note_on", "time": 88, "note": 70, "velocity": 112, "channel": 0}, {"type": "note_off", "time": 85, "note": 70, "velocity": 112, "channel": 0}, {"type": "note_on", "time": 6, "note": 69, "velocity": 106, "channel": 0}, {"type": "note_off", "time": 46, "note": 69, "velocity": 106, "channel": 0}, {"type": "note_on", "time": 11, "note": 69, "velocity": 104, "channel": 0}, {"type": "note_off", "time": 51, "note": 69, "velocity": 104, "channel": 0}, {"type": "note_on", "time": 11, "note": 68, "velocity": 106, "channel": 0}, {"type": "note_off", "time": 56, "note": 68, "velocity": 106, "channel": 0}, {"type": "note_on", "time": 12, "note": 67, "velocity": 111, "channel": 0}, {"type": "note_off", "time": 79, "note": 67, "velocity": 111, "channel": 0}, {"type": "note_on", "time": 34, "note": 65, "velocity": 119, "channel": 0}, {"type": "note_off", "time": 57, "note": 65, "velocity": 119, "channel": 0}, {"type": "note_on", "time": 11, "note": 64, "velocity": 113, "channel": 0}, {"type": "note_off", "time": 134, "note": 64, "velocity": 113, "channel": 0}, {"type": "note_on", "time": 610, "note": 73, "velocity": 111, "channel": 0}, {"type": "note_off", "time": 106, "note": 73, "velocity": 111, "channel": 0}, {"type": "note_on", "time": 15, "note": 74, "velocity": 113, "channel": 0}, {"type": "note_off", "time": 61, "note": 74, "velocity": 113, "channel": 0}, {"type": "note_on", "time": 9, "note": 75, "velocity": 115, "channel": 0}, {"type": "note_off", "time": 110, "note": 75, "velocity": 115, "channel": 0}, {"type": "note_on", "time": 14, "note": 76, "velocity": 122, "channel": 0}, {"type": "note_off", "time": 69, "note": 76, "velocity": 122, "channel": 0}, {"type": "note_on", "time": 12, "note": 77, "velocity": 125, "channel": 0}, {"type": "note_off", "time": 101, "note": 77, "velocity": 125, "channel": 0}, {"type": "note_on", "time": 15, "note": 75, "velocity": 114, "channel": 0}, {"type": "note_off", "time": 68, "note": 75, "velocity": 114, "channel": 0}, {"type": "note_on", "time": 8, "note": 72, "velocity": 107, "channel": 0}, {"type": "note_off", "time": 91, "note": 72, "velocity": 107, "channel": 0}, {"type": "note_on", "time": 23, "note": 70, "velocity": 98, "channel": 0}, {"type": "note_off", "time": 52, "note": 70, "velocity": 98, "channel": 0}, {"type": "note_on", "time": 15, "note": 72, "velocity": 115, "channel": 0}, {"type": "note_off", "time": 92, "note": 72, "velocity": 115, "channel": 0}, {"type": "note_on", "time": 41, "note": 70, "velocity": 110, "channel": 0}, {"type": "note_off", "time": 49, "note": 70, "velocity": 110, "channel": 0}, {"type": "note_on", "time": 7, "note": 67, "velocity": 98, "channel": 0}, {"type": "note_off", "time": 63, "note": 67, "velocity": 98, "channel": 0}, {"type": "note_on", "time": 14, "note": 68, "velocity": 101, "channel": 0}, {"type": "note_off", "time": 64, "note": 68, "velocity": 101, "channel": 0}, {"type": "note_on", "time": 16, "note": 69, "velocity": 111, "channel": 0}, {"type": "note_off", "time": 36, "note": 69, "velocity": 111, "channel": 0}, {"type": "note_on", "time": 12, "note": 70, "velocity": 110, "channel": 0}, {"type": "note_off", "time": 76, "note": 70, "velocity": 110, "channel": 0}, {"type": "note_on", "time": 29, "note": 71, "velocity": 113, "channel": 0}, {"type": "note_off", "time": 69, "note": 71, "velocity": 113, "channel": 0}, {"type": "note_on", "time": 10, "note": 72, "velocity": 99, "channel": 0}, {"type": "note_off", "time": 78, "note": 72, "velocity": 99, "channel": 0}, {"type": "note_on", "time": 20, "note": 73, "velocity": 108, "channel": 0}, {"type": "note_off", "time": 68, "note": 73, "velocity": 108, "channel": 0}, {"type": "note_on", "time": 7, "note": 74, "velocity": 114, "channel": 0}, {"type": "note_off", "time": 80, "note": 74, "velocity": 114, "channel": 0}, {"type": "note_on", "time": 13, "note": 73, "velocity": 111, "channel": 0}, {"type": "note_off", "time": 79, "note": 73, "velocity": 111, "channel": 0}, {"type": "note_on", "time": 12, "note": 72, "velocity": 101, "channel": 0}, {"type": "note_off", "time": 76, "note": 72, "velocity": 101, "channel": 0}, {"type": "note_on", "time": 47, "note": 70, "velocity": 107, "channel": 0}, {"type": "note_off", "time": 38, "note": 70, "velocity": 107, "channel": 0}, {"type": "note_on", "time": 14, "note": 68, "velocity": 112, "channel": 0}, {"type": "note_off", "time": 99, "note": 68, "velocity": 112, "channel": 0}, {"type": "note_on", "time": 31, "note": 65, "velocity": 93, "channel": 0}, {"type": "note_off", "time": 45, "note": 65, "velocity": 93, "channel": 0}, {"type": "note_on", "time": 13, "note": 67, "velocity": 110, "channel": 0}, {"type": "note_off", "time": 97, "note": 67, "velocity": 110, "channel": 0}, {"type": "note_on", "time": 92, "note": 65, "velocity": 117, "channel": 0}, {"type": "note_off", "time": 101, "note": 65, "velocity": 117, "channel": 0}, {"type": "note_on", "time": 37, "note": 70, "velocity": 103, "channel": 0}, {"type": "note_off", "time": 133, "note": 70, "velocity": 103, "channel": 0}, {"type": "note_on", "time": 17, "note": 68, "velocity": 104, "channel": 0}, {"type": "note_off", "time": 118, "note": 68, "velocity": 104, "channel": 0}, {"type": "note_on", "time": 91, "note": 65, "velocity": 114, "channel": 0}, {"type": "note_off", "time": 84, "note": 65, "velocity": 114, "channel": 0}, {"type": "note_on", "time": 113, "note": 70, "velocity": 104, "channel": 0}, {"type": "note_off", "time": 110, "note": 70, "velocity": 104, "channel": 0}, {"type": "note_on", "time": 74, "note": 68, "velocity": 89, "channel": 0}, {"type": "note_off", "time": 336, "note": 68, "velocity": 89, "channel": 0}, {"type": "note_on", "time": 215, "note": 68, "velocity": 110, "channel": 0}, {"type": "note_off", "time": 66, "note": 68, "velocity": 110, "channel": 0}, {"type": "note_on", "time": 14, "note": 67, "velocity": 101, "channel": 0}, {"type": "note_off", "time": 99, "note": 67, "velocity": 101, "channel": 0}, {"type": "note_on", "time": 29, "note": 77, "velocity": 122, "channel": 0}, {"type": "note_off", "time": 134, "note": 77, "velocity": 122, "channel": 0}, {"type": "note_on", "time": 73, "note": 75, "velocity": 109, "channel": 0}, {"type": "note_off", "time": 87, "note": 75, "velocity": 109, "channel": 0}, {"type": "note_on", "time": 85, "note": 67, "velocity": 108, "channel": 0}, {"type": "note_off", "time": 109, "note": 67, "velocity": 108, "channel": 0}, {"type": "note_on", "time": 62, "note": 77, "velocity": 119, "channel": 0}, {"type": "note_off", "time": 110, "note": 77, "velocity": 119, "channel": 0}, {"type": "note_on", "time": 45, "note": 75, "velocity": 110, "channel": 0}, {"type": "note_off", "time": 101, "note": 75, "velocity": 110, "channel": 0}, {"type": "note_on", "time": 26, "note": 66, "velocity": 99, "channel": 0}, {"type": "note_off", "time": 347, "note": 66, "velocity": 99, "channel": 0}, {"type": "note_on", "time": 111, "note": 65, "velocity": 110, "channel": 0}, {"type": "note_off", "time": 85, "note": 65, "velocity": 110, "channel": 0}, {"type": "note_on", "time": 109, "note": 70, "velocity": 105, "channel": 0}, {"type": "note_off", "time": 56, "note": 70, "velocity": 105, "channel": 0}, {"type": "note_on", "time": 13, "note": 68, "velocity": 102, "channel": 0}, {"type": "note_off", "time": 171, "note": 68, "velocity": 102, "channel": 0}, {"type": "note_on", "time": 509, "note": 70, "velocity": 114, "channel": 0}, {"type": "note_off", "time": 59, "note": 70, "velocity": 114, "channel": 0}, {"type": "note_on", "time": 4, "note": 67, "velocity": 100, "channel": 0}, {"type": "note_off", "time": 124, "note": 67, "velocity": 100, "channel": 0}, {"type": "note_on", "time": 9, "note": 69, "velocity": 114, "channel": 0}, {"type": "note_off", "time": 91, "note": 69, "velocity": 114, "channel": 0}, {"type": "note_on", "time": 8, "note": 70, "velocity": 111, "channel": 0}, {"type": "note_off", "time": 59, "note": 70, "velocity": 111, "channel": 0}, {"type": "note_on", "time": 14, "note": 72, "velocity": 110, "channel": 0}, {"type": "note_off", "time": 81, "note": 72, "velocity": 110, "channel": 0}, {"type": "note_on", "time": 13, "note": 73, "velocity": 109, "channel": 0}, {"type": "note_off", "time": 85, "note": 73, "velocity": 109, "channel": 0}, {"type": "note_on", "time": 8, "note": 74, "velocity": 110, "channel": 0}, {"type": "note_off", "time": 70, "note": 74, "velocity": 110, "channel": 0}, {"type": "note_on", "time": 9, "note": 75, "velocity": 113, "channel": 0}, {"type": "note_off", "time": 94, "note": 75, "velocity": 113, "channel": 0}, {"type": "note_on", "time": 10, "note": 76, "velocity": 118, "channel": 0}, {"type": "note_off", "time": 122, "note": 76, "velocity": 118, "channel": 0}, {"type": "note_on", "time": 67, "note": 76, "velocity": 114, "channel": 0}, {"type": "note_off", "time": 338, "note": 76, "velocity": 114, "channel": 0}, {"type": "note_on", "time": 27, "note": 75, "velocity": 119, "channel": 0}, {"type": "note_off", "time": 90, "note": 75, "velocity": 119, "channel": 0}, {"type": "note_on", "time": 15, "note": 73, "velocity": 102, "channel": 0}, {"type": "note_off", "time": 94, "note": 73, "velocity": 102, "channel": 0}, {"type": "note_on", "time": 18, "note": 70, "velocity": 107, "channel": 0}, {"type": "note_off", "time": 57, "note": 70, "velocity": 107, "channel": 0}, {"type": "note_on", "time": 18, "note": 67, "velocity": 99, "channel": 0}, {"type": "note_off", "time": 85, "note": 67, "velocity": 99, "channel": 0}, {"type": "note_on", "time": 79, "note": 70, "velocity": 99, "channel": 0}, {"type": "note_off", "time": 169, "note": 70, "velocity": 99, "channel": 0}, {"type": "note_on", "time": 17, "note": 67, "velocity": 101, "channel": 0}, {"type": "note_off", "time": 107, "note": 67, "velocity": 101, "channel": 0}, {"type": "note_on", "time": 15, "note": 70, "velocity": 105, "channel": 0}, {"type": "note_off", "time": 54, "note": 70, "velocity": 105, "channel": 0}, {"type": "note_on", "time": 7, "note": 68, "velocity": 107, "channel": 0}, {"type": "note_off", "time": 105, "note": 68, "velocity": 107, "channel": 0}, {"type": "note_on", "time": 25, "note": 70, "velocity": 108, "channel": 0}, {"type": "note_off", "time": 46, "note": 70, "velocity": 108, "channel": 0}, {"type": "note_on", "time": 16, "note": 72, "velocity": 97, "channel": 0}, {"type": "note_off", "time": 84, "note": 72, "velocity": 97, "channel": 0}, {"type": "note_on", "time": 19, "note": 74, "velocity": 107, "channel": 0}, {"type": "note_off", "time": 83, "note": 74, "velocity": 107, "channel": 0}, {"type": "note_on", "time": 55, "note": 79, "velocity": 117, "channel": 0}, {"type": "note_off", "time": 59, "note": 79, "velocity": 117, "channel": 0}, {"type": "note_on", "time": 6, "note": 78, "velocity": 127, "channel": 0}, {"type": "note_off", "time": 81, "note": 78, "velocity": 127, "channel": 0}, {"type": "note_on", "time": 5, "note": 77, "velocity": 123, "channel": 0}, {"type": "note_off", "time": 87, "note": 77, "velocity": 123, "channel": 0}, {"type": "note_on", "time": 14, "note": 76, "velocity": 118, "channel": 0}, {"type": "note_off", "time": 79, "note": 76, "velocity": 118, "channel": 0}, {"type": "note_on", "time": 11, "note": 75, "velocity": 113, "channel": 0}, {"type": "note_off", "time": 93, "note": 75, "velocity": 113, "channel": 0}, {"type": "note_on", "time": 24, "note": 70, "velocity": 103, "channel": 0}, {"type": "note_off", "time": 47, "note": 70, "velocity": 103, "channel": 0}, {"type": "note_on", "time": 15, "note": 74, "velocity": 102, "channel": 0}, {"type": "note_off", "time": 91, "note": 74, "velocity": 102, "channel": 0}, {"type": "note_on", "time": 31, "note": 73, "velocity": 109, "channel": 0}, {"type": "note_off", "time": 83, "note": 73, "velocity": 109, "channel": 0}, {"type": "note_on", "time": 96, "note": 70, "velocity": 113, "channel": 0}, {"type": "note_off", "time": 62, "note": 70, "velocity": 113, "channel": 0}, {"type": "note_on", "time": 20, "note": 72, "velocity": 102, "channel": 0}, {"type": "note_off", "time": 95, "note": 72, "velocity": 102, "channel": 0}, {"type": "note_on", "time": 25, "note": 70, "velocity": 107, "channel": 0}, {"type": "note_off", "time": 63, "note": 70, "velocity": 107, "channel": 0}, {"type": "note_on", "time": 15, "note": 68, "velocity": 97, "channel": 0}, {"type": "note_off", "time": 40, "note": 68, "velocity": 97, "channel": 0}, {"type": "note_on", "time": 11, "note": 70, "velocity": 97, "channel": 0}, {"type": "note_off", "time": 50, "note": 70, "velocity": 97, "channel": 0}, {"type": "note_on", "time": 12, "note": 68, "velocity": 102, "channel": 0}, {"type": "note_off", "time": 42, "note": 68, "velocity": 102, "channel": 0}, {"type": "note_on", "time": 6, "note": 67, "velocity": 98, "channel": 0}, {"type": "note_off", "time": 29, "note": 67, "velocity": 98, "channel": 0}, {"type": "note_on", "time": 6, "note": 65, "velocity": 108, "channel": 0}, {"type": "note_off", "time": 97, "note": 65, "velocity": 108, "channel": 0}, {"type": "note_on", "time": 14, "note": 64, "velocity": 89, "channel": 0}, {"type": "note_off", "time": 58, "note": 64, "velocity": 89, "channel": 0}, {"type": "note_on", "time": 23, "note": 63, "velocity": 99, "channel": 0}, {"type": "note_off", "time": 134, "note": 63, "velocity": 99, "channel": 0}, {"type": "note_on", "time": 45, "note": 60, "velocity": 83, "channel": 0}, {"type": "note_off", "time": 40, "note": 60, "velocity": 83, "channel": 0}, {"type": "note_on", "time": 8, "note": 61, "velocity": 87, "channel": 0}, {"type": "note_off", "time": 38, "note": 61, "velocity": 87, "channel": 0}, {"type": "note_on", "time": 17, "note": 63, "velocity": 93, "channel": 0}, {"type": "note_off", "time": 234, "note": 63, "velocity": 93, "channel": 0}, {"type": "note_on", "time": 12, "note": 59, "velocity": 87, "channel": 0}, {"type": "note_off", "time": 39, "note": 59, "velocity": 87, "channel": 0}, {"type": "note_on", "time": 4, "note": 60, "velocity": 86, "channel": 0}, {"type": "note_off", "time": 70, "note": 60, "velocity": 86, "channel": 0}, {"type": "note_on", "time": 13, "note": 63, "velocity": 108, "channel": 0}, {"type": "note_off", "time": 79, "note": 63, "velocity": 108, "channel": 0}, {"type": "note_on", "time": 8, "note": 65, "velocity": 119, "channel": 0}, {"type": "note_off", "time": 84, "note": 65, "velocity": 119, "channel": 0}, {"type": "note_on", "time": 12, "note": 67, "velocity": 110, "channel": 0}, {"type": "note_off", "time": 83, "note": 67, "velocity": 110, "channel": 0}, {"type": "note_on", "time": 10, "note": 68, "velocity": 108, "channel": 0}, {"type": "note_off", "time": 67, "note": 68, "velocity": 108, "channel": 0}, {"type": "note_on", "time": 18, "note": 70, "velocity": 114, "channel": 0}, {"type": "note_off", "time": 64, "note": 70, "velocity": 114, "channel": 0}, {"type": "note_on", "time": 36, "note": 67, "velocity": 106, "channel": 0}, {"type": "note_off", "time": 59, "note": 67, "velocity": 106, "channel": 0}, {"type": "note_on", "time": 7, "note": 68, "velocity": 103, "channel": 0}, {"type": "note_off", "time": 55, "note": 68, "velocity": 103, "channel": 0}, {"type": "note_on", "time": 11, "note": 69, "velocity": 107, "channel": 0}, {"type": "note_off", "time": 55, "note": 69, "velocity": 107, "channel": 0}, {"type": "note_on", "time": 12, "note": 70, "velocity": 112, "channel": 0}, {"type": "note_off", "time": 65, "note": 70, "velocity": 112, "channel": 0}, {"type": "note_on", "time": 14, "note": 71, "velocity": 106, "channel": 0}, {"type": "note_off", "time": 101, "note": 71, "velocity": 106, "channel": 0}, {"type": "note_on", "time": 14, "note": 72, "velocity": 103, "channel": 0}, {"type": "note_off", "time": 64, "note": 72, "velocity": 103, "channel": 0}, {"type": "note_on", "time": 7, "note": 73, "velocity": 109, "channel": 0}, {"type": "note_off", "time": 60, "note": 73, "velocity": 109, "channel": 0}, {"type": "note_on", "time": 10, "note": 74, "velocity": 116, "channel": 0}, {"type": "note_off", "time": 74, "note": 74, "velocity": 116, "channel": 0}, {"type": "note_on", "time": 24, "note": 73, "velocity": 108, "channel": 0}, {"type": "note_off", "time": 85, "note": 73, "velocity": 108, "channel": 0}, {"type": "note_on", "time": 19, "note": 72, "velocity": 102, "channel": 0}, {"type": "note_off", "time": 65, "note": 72, "velocity": 102, "channel": 0}, {"type": "note_on", "time": 15, "note": 70, "velocity": 107, "channel": 0}, {"type": "note_off", "time": 79, "note": 70, "velocity": 107, "channel": 0}, {"type": "note_on", "time": 5, "note": 67, "velocity": 94, "channel": 0}, {"type": "note_off", "time": 83, "note": 67, "velocity": 94, "channel": 0}, {"type": "note_on", "time": 109, "note": 70, "velocity": 108, "channel": 0}, {"type": "note_off", "time": 85, "note": 70, "velocity": 108, "channel": 0}, {"type": "note_on", "time": 124, "note": 67, "velocity": 111, "channel": 0}, {"type": "note_off", "time": 74, "note": 67, "velocity": 111, "channel": 0}, {"type": "note_on", "time": 11, "note": 70, "velocity": 111, "channel": 0}, {"type": "note_off", "time": 71, "note": 70, "velocity": 111, "channel": 0}, {"type": "note_on", "time": 14, "note": 70, "velocity": 103, "channel": 0}, {"type": "note_off", "time": 90, "note": 70, "velocity": 103, "channel": 0}, {"type": "note_on", "time": 16, "note": 69, "velocity": 110, "channel": 0}, {"type": "note_off", "time": 70, "note": 69, "velocity": 110, "channel": 0}, {"type": "note_on", "time": 7, "note": 67, "velocity": 109, "channel": 0}, {"type": "note_off", "time": 77, "note": 67, "velocity": 109, "channel": 0}, {"type": "note_on", "time": 9, "note": 63, "velocity": 105, "channel": 0}, {"type": "note_off", "time": 80, "note": 63, "velocity": 105, "channel": 0}, {"type": "note_on", "time": 11, "note": 60, "velocity": 81, "channel": 0}, {"type": "note_off", "time": 174, "note": 60, "velocity": 81, "channel": 0}, {"type": "note_on", "time": 6, "note": 65, "velocity": 110, "channel": 0}, {"type": "note_off", "time": 114, "note": 65, "velocity": 110, "channel": 0}, {"type": "note_on", "time": 97, "note": 63, "velocity": 105, "channel": 0}, {"type": "note_off", "time": 104, "note": 63, "velocity": 105, "channel": 0}, {"type": "note_on", "time": 15, "note": 65, "velocity": 117, "channel": 0}, {"type": "note_off", "time": 78, "note": 65, "velocity": 117, "channel": 0}, {"type": "note_on", "time": 513, "note": 66, "velocity": 103, "channel": 0}, {"type": "note_off", "time": 48, "note": 66, "velocity": 103, "channel": 0}, {"type": "note_on", "time": 6, "note": 62, "velocity": 97, "channel": 0}, {"type": "note_off", "time": 56, "note": 62, "velocity": 97, "channel": 0}, {"type": "note_on", "time": 5, "note": 63, "velocity": 97, "channel": 0}, {"type": "note_off", "time": 62, "note": 63, "velocity": 97, "channel": 0}, {"type": "note_on", "time": 8, "note": 64, "velocity": 109, "channel": 0}, {"type": "note_off", "time": 54, "note": 64, "velocity": 109, "channel": 0}, {"type": "note_on", "time": 8, "note": 65, "velocity": 121, "channel": 0}, {"type": "note_off", "time": 90, "note": 65, "velocity": 121, "channel": 0}, {"type": "note_on", "time": 14, "note": 68, "velocity": 115, "channel": 0}, {"type": "note_off", "time": 67, "note": 68, "velocity": 115, "channel": 0}, {"type": "note_on", "time": 13, "note": 67, "velocity": 116, "channel": 0}, {"type": "note_off", "time": 101, "note": 67, "velocity": 116, "channel": 0}, {"type": "note_on", "time": 18, "note": 68, "velocity": 114, "channel": 0}, {"type": "note_off", "time": 62, "note": 68, "velocity": 114, "channel": 0}, {"type": "note_on", "time": 26, "note": 64, "velocity": 111, "channel": 0}, {"type": "note_off", "time": 76, "note": 64, "velocity": 111, "channel": 0}, {"type": "note_on", "time": 20, "note": 67, "velocity": 106, "channel": 0}, {"type": "note_off", "time": 57, "note": 67, "velocity": 106, "channel": 0}, {"type": "note_on", "time": 17, "note": 70, "velocity": 108, "channel": 0}, {"type": "note_off", "time": 84, "note": 70, "velocity": 108, "channel": 0}, {"type": "note_on", "time": 24, "note": 72, "velocity": 106, "channel": 0}, {"type": "note_off", "time": 79, "note": 72, "velocity": 106, "channel": 0}, {"type": "note_on", "time": 8, "note": 73, "velocity": 109, "channel": 0}, {"type": "note_off", "time": 70, "note": 73, "velocity": 109, "channel": 0}, {"type": "note_on", "time": 37, "note": 70, "velocity": 98, "channel": 0}, {"type": "note_off", "time": 48, "note": 70, "velocity": 98, "channel": 0}, {"type": "note_on", "time": 22, "note": 72, "velocity": 108, "channel": 0}, {"type": "note_off", "time": 79, "note": 72, "velocity": 108, "channel": 0}, {"type": "note_on", "time": 35, "note": 69, "velocity": 108, "channel": 0}, {"type": "note_off", "time": 56, "note": 69, "velocity": 108, "channel": 0}, {"type": "note_on", "time": 8, "note": 68, "velocity": 110, "channel": 0}, {"type": "note_off", "time": 90, "note": 68, "velocity": 110, "channel": 0}, {"type": "note_on", "time": 29, "note": 65, "velocity": 92, "channel": 0}, {"type": "note_off", "time": 53, "note": 65, "velocity": 92, "channel": 0}, {"type": "note_on", "time": 8, "note": 67, "velocity": 112, "channel": 0}, {"type": "note_off", "time": 106, "note": 67, "velocity": 112, "channel": 0}, {"type": "note_on", "time": 76, "note": 77, "velocity": 117, "channel": 0}, {"type": "note_off", "time": 397, "note": 77, "velocity": 117, "channel": 0}, {"type": "note_on", "time": 8, "note": 75, "velocity": 110, "channel": 0}, {"type": "note_off", "time": 122, "note": 75, "velocity": 110, "channel": 0}, {"type": "note_on", "time": 16, "note": 68, "velocity": 110, "channel": 0}, {"type": "note_off", "time": 84, "note": 68, "velocity": 110, "channel": 0}, {"type": "note_on", "time": 529, "note": 77, "velocity": 118, "channel": 0}, {"type": "note_off", "time": 130, "note": 77, "velocity": 118, "channel": 0}, {"type": "note_on", "time": 67, "note": 80, "velocity": 110, "channel": 0}, {"type": "note_off", "time": 109, "note": 80, "velocity": 110, "channel": 0}, {"type": "note_on", "time": 17, "note": 80, "velocity": 117, "channel": 0}, {"type": "note_off", "time": 71, "note": 80, "velocity": 117, "channel": 0}, {"type": "note_on", "time": 7, "note": 79, "velocity": 104, "channel": 0}, {"type": "note_off", "time": 85, "note": 79, "velocity": 104, "channel": 0}, {"type": "note_on", "time": 107, "note": 77, "velocity": 119, "channel": 0}, {"type": "note_off", "time": 104, "note": 77, "velocity": 119, "channel": 0}, {"type": "note_on", "time": 18, "note": 75, "velocity": 117, "channel": 0}, {"type": "note_off", "time": 83, "note": 75, "velocity": 117, "channel": 0}, {"type": "note_on", "time": 92, "note": 73, "velocity": 95, "channel": 0}, {"type": "note_off", "time": 170, "note": 73, "velocity": 95, "channel": 0}, {"type": "note_on", "time": 16, "note": 70, "velocity": 87, "channel": 0}, {"type": "note_off", "time": 66, "note": 70, "velocity": 87, "channel": 0}, {"type": "note_on", "time": 30, "note": 76, "velocity": 125, "channel": 0}, {"type": "note_off", "time": 97, "note": 76, "velocity": 125, "channel": 0}, {"type": "note_on", "time": 11, "note": 75, "velocity": 119, "channel": 0}, {"type": "note_off", "time": 74, "note": 75, "velocity": 119, "channel": 0}, {"type": "note_on", "time": 15, "note": 73, "velocity": 86, "channel": 0}, {"type": "note_off", "time": 94, "note": 73, "velocity": 86, "channel": 0}, {"type": "note_on", "time": 20, "note": 70, "velocity": 103, "channel": 0}, {"type": "note_off", "time": 43, "note": 70, "velocity": 103, "channel": 0}, {"type": "note_on", "time": 10, "note": 70, "velocity": 97, "channel": 0}, {"type": "note_off", "time": 30, "note": 70, "velocity": 97, "channel": 0}, {"type": "note_on", "time": 17, "note": 67, "velocity": 92, "channel": 0}, {"type": "note_off", "time": 88, "note": 67, "velocity": 92, "channel": 0}, {"type": "note_on", "time": 52, "note": 70, "velocity": 98, "channel": 0}, {"type": "note_off", "time": 105, "note": 70, "velocity": 98, "channel": 0}, {"type": "note_on", "time": 75, "note": 70, "velocity": 97, "channel": 0}, {"type": "note_off", "time": 98, "note": 70, "velocity": 97, "channel": 0}, {"type": "note_on", "time": 100, "note": 74, "velocity": 104, "channel": 0}, {"type": "note_off", "time": 105, "note": 74, "velocity": 104, "channel": 0}, {"type": "note_on", "time": 457, "note": 80, "velocity": 99, "channel": 0}, {"type": "note_off", "time": 1517, "note": 80, "velocity": 99, "channel": 0}, {"type": "note_on", "time": 29, "note": 76, "velocity": 119, "channel": 0}, {"type": "note_off", "time": 87, "note": 76, "velocity": 119, "channel": 0}, {"type": "note_on", "time": 104, "note": 77, "velocity": 117, "channel": 0}, {"type": "note_off", "time": 103, "note": 77, "velocity": 117, "channel": 0}, {"type": "note_on", "time": 457, "note": 70, "velocity": 91, "channel": 0}, {"type": "note_off", "time": 55, "note": 70, "velocity": 91, "channel": 0}, {"type": "note_on", "time": 9, "note": 70, "velocity": 88, "channel": 0}, {"type": "note_off", "time": 39, "note": 70, "velocity": 88, "channel": 0}, {"type": "note_on", "time": 15, "note": 70, "velocity": 93, "channel": 0}, {"type": "note_off", "time": 38, "note": 70, "velocity": 93, "channel": 0}, {"type": "note_on", "time": 15, "note": 70, "velocity": 103, "channel": 0}, {"type": "note_off", "time": 93, "note": 70, "velocity": 103, "channel": 0}, {"type": "note_on", "time": 493, "note": 70, "velocity": 96, "channel": 0}, {"type": "note_off", "time": 955, "note": 70, "velocity": 96, "channel": 0}, {"type": "note_on", "time": 26, "note": 70, "velocity": 107, "channel": 0}, {"type": "note_off", "time": 130, "note": 70, "velocity": 107, "channel": 0}, {"type": "note_on", "time": 373, "note": 70, "velocity": 102, "channel": 0}, {"type": "note_off", "time": 914, "note": 70, "velocity": 102, "channel": 0}, {"type": "note_on", "time": 49, "note": 73, "velocity": 113, "channel": 0}, {"type": "note_off", "time": 107, "note": 73, "velocity": 113, "channel": 0}, {"type": "note_on", "time": 451, "note": 70, "velocity": 98, "channel": 0}, {"type": "note_off", "time": 552, "note": 70, "velocity": 98, "channel": 0}, {"type": "note_on", "time": 19, "note": 72, "velocity": 107, "channel": 0}, {"type": "note_off", "time": 84, "note": 72, "velocity": 107, "channel": 0}, {"type": "note_on", "time": 25, "note": 70, "velocity": 102, "channel": 0}, {"type": "note_off", "time": 241, "note": 70, "velocity": 102, "channel": 0}, {"type": "note_on", "time": 11, "note": 72, "velocity": 105, "channel": 0}, {"type": "note_off", "time": 112, "note": 72, "velocity": 105, "channel": 0}, {"type": "note_on", "time": 20, "note": 70, "velocity": 99, "channel": 0}, {"type": "note_off", "time": 207, "note": 70, "velocity": 99, "channel": 0}, {"type": "note_on", "time": 28, "note": 72, "velocity": 104, "channel": 0}, {"type": "note_off", "time": 71, "note": 72, "velocity": 104, "channel": 0}, {"type": "note_on", "time": 35, "note": 68, "velocity": 95, "channel": 0}, {"type": "note_off", "time": 39, "note": 68, "velocity": 95, "channel": 0}, {"type": "note_on", "time": 16, "note": 70, "velocity": 100, "channel": 0}, {"type": "note_off", "time": 180, "note": 70, "velocity": 100, "channel": 0}, {"type": "note_on", "time": 15, "note": 73, "velocity": 99, "channel": 0}, {"type": "note_off", "time": 107, "note": 73, "velocity": 99, "channel": 0}, {"type": "note_on", "time": 29, "note": 73, "velocity": 98, "channel": 0}, {"type": "note_off", "time": 225, "note": 73, "velocity": 98, "channel": 0}, {"type": "note_on", "time": 20, "note": 72, "velocity": 106, "channel": 0}, {"type": "note_off", "time": 78, "note": 72, "velocity": 106, "channel": 0}, {"type": "note_on", "time": 51, "note": 70, "velocity": 79, "channel": 0}, {"type": "note_off", "time": 41, "note": 70, "velocity": 79, "channel": 0}, {"type": "note_on", "time": 12, "note": 72, "velocity": 103, "channel": 0}, {"type": "note_off", "time": 100, "note": 72, "velocity": 103, "channel": 0}, {"type": "note_on", "time": 26, "note": 69, "velocity": 108, "channel": 0}, {"type": "note_off", "time": 52, "note": 69, "velocity": 108, "channel": 0}, {"type": "note_on", "time": 18, "note": 67, "velocity": 102, "channel": 0}, {"type": "note_off", "time": 94, "note": 67, "velocity": 102, "channel": 0}, {"type": "note_on", "time": 93, "note": 70, "velocity": 111, "channel": 0}, {"type": "note_off", "time": 94, "note": 70, "velocity": 111, "channel": 0}, {"type": "note_on", "time": 10, "note": 67, "velocity": 92, "channel": 0}, {"type": "note_off", "time": 68, "note": 67, "velocity": 92, "channel": 0}, {"type": "note_on", "time": 7, "note": 70, "velocity": 105, "channel": 0}, {"type": "note_off", "time": 103, "note": 70, "velocity": 105, "channel": 0}, {"type": "note_on", "time": 15, "note": 70, "velocity": 104, "channel": 0}, {"type": "note_off", "time": 36, "note": 70, "velocity": 104, "channel": 0}, {"type": "note_on", "time": 20, "note": 67, "velocity": 99, "channel": 0}, {"type": "note_off", "time": 132, "note": 67, "velocity": 99, "channel": 0}, {"type": "note_on", "time": 7, "note": 72, "velocity": 114, "channel": 0}, {"type": "note_off", "time": 78, "note": 72, "velocity": 114, "channel": 0}, {"type": "note_on", "time": 102, "note": 70, "velocity": 109, "channel": 0}, {"type": "note_off", "time": 62, "note": 70, "velocity": 109, "channel": 0}, {"type": "note_on", "time": 15, "note": 72, "velocity": 105, "channel": 0}, {"type": "note_off", "time": 96, "note": 72, "velocity": 105, "channel": 0}, {"type": "note_on", "time": 19, "note": 70, "velocity": 106, "channel": 0}, {"type": "note_off", "time": 64, "note": 70, "velocity": 106, "channel": 0}, {"type": "note_on", "time": 18, "note": 67, "velocity": 104, "channel": 0}, {"type": "note_off", "time": 82, "note": 67, "velocity": 104, "channel": 0}, {"type": "note_on", "time": 17, "note": 65, "velocity": 112, "channel": 0}, {"type": "note_off", "time": 66, "note": 65, "velocity": 112, "channel": 0}, {"type": "note_on", "time": 18, "note": 63, "velocity": 116, "channel": 0}, {"type": "note_off", "time": 96, "note": 63, "velocity": 116, "channel": 0}, {"type": "note_on", "time": 29, "note": 64, "velocity": 114, "channel": 0}, {"type": "note_off", "time": 65, "note": 64, "velocity": 114, "channel": 0}, {"type": "note_on", "time": 14, "note": 67, "velocity": 108, "channel": 0}, {"type": "note_off", "time": 90, "note": 67, "velocity": 108, "channel": 0}, {"type": "note_on", "time": 11, "note": 69, "velocity": 117, "channel": 0}, {"type": "note_off", "time": 77, "note": 69, "velocity": 117, "channel": 0}, {"type": "note_on", "time": 15, "note": 70, "velocity": 110, "channel": 0}, {"type": "note_off", "time": 79, "note": 70, "velocity": 110, "channel": 0}, {"type": "note_on", "time": 32, "note": 72, "velocity": 110, "channel": 0}, {"type": "note_off", "time": 64, "note": 72, "velocity": 110, "channel": 0}, {"type": "note_on", "time": 8, "note": 73, "velocity": 106, "channel": 0}, {"type": "note_off", "time": 79, "note": 73, "velocity": 106, "channel": 0}, {"type": "note_on", "time": 54, "note": 71, "velocity": 107, "channel": 0}, {"type": "note_off", "time": 48, "note": 71, "velocity": 107, "channel": 0}, {"type": "note_on", "time": 15, "note": 70, "velocity": 104, "channel": 0}, {"type": "note_off", "time": 85, "note": 70, "velocity": 104, "channel": 0}, {"type": "note_on", "time": 41, "note": 68, "velocity": 103, "channel": 0}, {"type": "note_off", "time": 66, "note": 68, "velocity": 103, "channel": 0}, {"type": "note_on", "time": 20, "note": 67, "velocity": 108, "channel": 0}, {"type": "note_off", "time": 55, "note": 67, "velocity": 108, "channel": 0}, {"type": "note_on", "time": 32, "note": 65, "velocity": 117, "channel": 0}, {"type": "note_off", "time": 68, "note": 65, "velocity": 117, "channel": 0}, {"type": "note_on", "time": 14, "note": 64, "velocity": 106, "channel": 0}, {"type": "note_off", "time": 66, "note": 64, "velocity": 106, "channel": 0}, {"type": "note_on", "time": 23, "note": 63, "velocity": 109, "channel": 0}, {"type": "note_off", "time": 89, "note": 63, "velocity": 109, "channel": 0}, {"type": "note_on", "time": 7, "note": 60, "velocity": 98, "channel": 0}, {"type": "note_off", "time": 75, "note": 60, "velocity": 98, "channel": 0}, {"type": "note_on", "time": 14, "note": 61, "velocity": 94, "channel": 0}, {"type": "note_off", "time": 52, "note": 61, "velocity": 94, "channel": 0}, {"type": "note_on", "time": 12, "note": 64, "velocity": 101, "channel": 0}, {"type": "note_off", "time": 41, "note": 64, "velocity": 101, "channel": 0}, {"type": "note_on", "time": 10, "note": 62, "velocity": 99, "channel": 0}, {"type": "note_off", "time": 75, "note": 62, "velocity": 99, "channel": 0}, {"type": "note_on", "time": 14, "note": 65, "velocity": 101, "channel": 0}, {"type": "note_off", "time": 64, "note": 65, "velocity": 101, "channel": 0}, {"type": "note_on", "time": 22, "note": 70, "velocity": 110, "channel": 0}, {"type": "note_off", "time": 87, "note": 70, "velocity": 110, "channel": 0}, {"type": "note_on", "time": 17, "note": 73, "velocity": 112, "channel": 0}, {"type": "note_off", "time": 53, "note": 73, "velocity": 112, "channel": 0}, {"type": "note_on", "time": 25, "note": 70, "velocity": 90, "channel": 0}, {"type": "note_off", "time": 89, "note": 70, "velocity": 90, "channel": 0}, {"type": "note_on", "time": 414, "note": 82, "velocity": 110, "channel": 0}, {"type": "note_off", "time": 37, "note": 82, "velocity": 110, "channel": 0}, {"type": "note_on", "time": 8, "note": 80, "velocity": 116, "channel": 0}, {"type": "note_off", "time": 59, "note": 80, "velocity": 116, "channel": 0}, {"type": "note_on", "time": 100, "note": 80, "velocity": 117, "channel": 0}, {"type": "note_off", "time": 71, "note": 80, "velocity": 117, "channel": 0}, {"type": "note_on", "time": 93, "note": 79, "velocity": 120, "channel": 0}, {"type": "note_off", "time": 59, "note": 79, "velocity": 120, "channel": 0}, {"type": "note_on", "time": 15, "note": 80, "velocity": 111, "channel": 0}, {"type": "note_off", "time": 120, "note": 80, "velocity": 111, "channel": 0}, {"type": "note_on", "time": 22, "note": 79, "velocity": 114, "channel": 0}, {"type": "note_off", "time": 56, "note": 79, "velocity": 114, "channel": 0}, {"type": "note_on", "time": 11, "note": 80, "velocity": 101, "channel": 0}, {"type": "note_off", "time": 106, "note": 80, "velocity": 101, "channel": 0}, {"type": "note_on", "time": 11, "note": 79, "velocity": 112, "channel": 0}, {"type": "note_off", "time": 56, "note": 79, "velocity": 112, "channel": 0}, {"type": "note_on", "time": 13, "note": 77, "velocity": 117, "channel": 0}, {"type": "note_off", "time": 49, "note": 77, "velocity": 117, "channel": 0}, {"type": "note_on", "time": 10, "note": 78, "velocity": 109, "channel": 0}, {"type": "note_off", "time": 37, "note": 78, "velocity": 109, "channel": 0}, {"type": "note_on", "time": 21, "note": 75, "velocity": 119, "channel": 0}, {"type": "note_off", "time": 69, "note": 75, "velocity": 119, "channel": 0}, {"type": "note_on", "time": 15, "note": 77, "velocity": 117, "channel": 0}, {"type": "note_off", "time": 89, "note": 77, "velocity": 117, "channel": 0}, {"type": "note_on", "time": 18, "note": 75, "velocity": 116, "channel": 0}, {"type": "note_off", "time": 70, "note": 75, "velocity": 116, "channel": 0}, {"type": "note_on", "time": 21, "note": 73, "velocity": 103, "channel": 0}, {"type": "note_off", "time": 88, "note": 73, "velocity": 103, "channel": 0}, {"type": "note_on", "time": 21, "note": 70, "velocity": 97, "channel": 0}, {"type": "note_off", "time": 54, "note": 70, "velocity": 97, "channel": 0}, {"type": "note_on", "time": 11, "note": 73, "velocity": 111, "channel": 0}, {"type": "note_off", "time": 120, "note": 73, "velocity": 111, "channel": 0}, {"type": "note_on", "time": 9, "note": 75, "velocity": 122, "channel": 0}, {"type": "note_off", "time": 67, "note": 75, "velocity": 122, "channel": 0}, {"type": "note_on", "time": 7, "note": 77, "velocity": 114, "channel": 0}, {"type": "note_off", "time": 101, "note": 77, "velocity": 114, "channel": 0}, {"type": "note_on", "time": 18, "note": 74, "velocity": 116, "channel": 0}, {"type": "note_off", "time": 72, "note": 74, "velocity": 116, "channel": 0}, {"type": "note_on", "time": 17, "note": 73, "velocity": 104, "channel": 0}, {"type": "note_off", "time": 101, "note": 73, "velocity": 104, "channel": 0}, {"type": "note_on", "time": 5, "note": 70, "velocity": 95, "channel": 0}, {"type": "note_off", "time": 61, "note": 70, "velocity": 95, "channel": 0}, {"type": "note_on", "time": 6, "note": 72, "velocity": 106, "channel": 0}, {"type": "note_off", "time": 102, "note": 72, "velocity": 106, "channel": 0}, {"type": "note_on", "time": 30, "note": 70, "velocity": 108, "channel": 0}, {"type": "note_off", "time": 55, "note": 70, "velocity": 108, "channel": 0}, {"type": "note_on", "time": 6, "note": 67, "velocity": 103, "channel": 0}, {"type": "note_off", "time": 135, "note": 67, "velocity": 103, "channel": 0}, {"type": "note_on", "time": 14, "note": 65, "velocity": 98, "channel": 0}, {"type": "note_off", "time": 37, "note": 65, "velocity": 98, "channel": 0}, {"type": "note_on", "time": 5, "note": 70, "velocity": 111, "channel": 0}, {"type": "note_off", "time": 107, "note": 70, "velocity": 111, "channel": 0}, {"type": "note_on", "time": 82, "note": 68, "velocity": 111, "channel": 0}, {"type": "note_off", "time": 99, "note": 68, "velocity": 111, "channel": 0}, {"type": "note_on", "time": 20, "note": 65, "velocity": 109, "channel": 0}, {"type": "note_off", "time": 68, "note": 65, "velocity": 109, "channel": 0}, {"type": "note_on", "time": 23, "note": 67, "velocity": 106, "channel": 0}, {"type": "note_off", "time": 66, "note": 67, "velocity": 106, "channel": 0}, {"type": "note_on", "time": 22, "note": 70, "velocity": 111, "channel": 0}, {"type": "note_off", "time": 68, "note": 70, "velocity": 111, "channel": 0}, {"type": "note_on", "time": 8, "note": 67, "velocity": 100, "channel": 0}, {"type": "note_off", "time": 51, "note": 67, "velocity": 100, "channel": 0}, {"type": "note_on", "time": 25, "note": 68, "velocity": 100, "channel": 0}, {"type": "note_off", "time": 69, "note": 68, "velocity": 100, "channel": 0}, {"type": "note_on", "time": 15, "note": 69, "velocity": 109, "channel": 0}, {"type": "note_off", "time": 62, "note": 69, "velocity": 109, "channel": 0}, {"type": "note_on", "time": 10, "note": 70, "velocity": 114, "channel": 0}, {"type": "note_off", "time": 73, "note": 70, "velocity": 114, "channel": 0}, {"type": "note_on", "time": 11, "note": 71, "velocity": 112, "channel": 0}, {"type": "note_off", "time": 93, "note": 71, "velocity": 112, "channel": 0}, {"type": "note_on", "time": 15, "note": 72, "velocity": 105, "channel": 0}, {"type": "note_off", "time": 57, "note": 72, "velocity": 105, "channel": 0}, {"type": "note_on", "time": 15, "note": 73, "velocity": 109, "channel": 0}, {"type": "note_off", "time": 67, "note": 73, "velocity": 109, "channel": 0}, {"type": "note_on", "time": 19, "note": 74, "velocity": 111, "channel": 0}, {"type": "note_off", "time": 134, "note": 74, "velocity": 111, "channel": 0}, {"type": "note_on", "time": 82, "note": 74, "velocity": 116, "channel": 0}, {"type": "note_off", "time": 103, "note": 74, "velocity": 116, "channel": 0}, {"type": "note_on", "time": 109, "note": 79, "velocity": 118, "channel": 0}, {"type": "note_off", "time": 213, "note": 79, "velocity": 118, "channel": 0}, {"type": "note_on", "time": 72, "note": 73, "velocity": 114, "channel": 0}, {"type": "note_off", "time": 105, "note": 73, "velocity": 114, "channel": 0}, {"type": "note_on", "time": 71, "note": 73, "velocity": 114, "channel": 0}, {"type": "note_off", "time": 101, "note": 73, "velocity": 114, "channel": 0}, {"type": "note_on", "time": 18, "note": 67, "velocity": 98, "channel": 0}, {"type": "note_off", "time": 328, "note": 67, "velocity": 98, "channel": 0}, {"type": "note_on", "time": 227, "note": 70, "velocity": 113, "channel": 0}, {"type": "note_off", "time": 79, "note": 70, "velocity": 113, "channel": 0}, {"type": "note_on", "time": 119, "note": 70, "velocity": 102, "channel": 0}, {"type": "note_off", "time": 64, "note": 70, "velocity": 102, "channel": 0}, {"type": "note_on", "time": 123, "note": 73, "velocity": 103, "channel": 0}, {"type": "note_off", "time": 225, "note": 73, "velocity": 103, "channel": 0}, {"type": "note_on", "time": 103, "note": 72, "velocity": 108, "channel": 0}, {"type": "note_off", "time": 71, "note": 72, "velocity": 108, "channel": 0}, {"type": "note_on", "time": 94, "note": 72, "velocity": 111, "channel": 0}, {"type": "note_off", "time": 64, "note": 72, "velocity": 111, "channel": 0}, {"type": "note_on", "time": 20, "note": 67, "velocity": 94, "channel": 0}, {"type": "note_off", "time": 54, "note": 67, "velocity": 94, "channel": 0}, {"type": "note_on", "time": 14, "note": 65, "velocity": 95, "channel": 0}, {"type": "note_off", "time": 431, "note": 65, "velocity": 95, "channel": 0}, {"type": "note_on", "time": 78, "note": 70, "velocity": 103, "channel": 0}, {"type": "note_off", "time": 92, "note": 70, "velocity": 103, "channel": 0}, {"type": "note_on", "time": 478, "note": 75, "velocity": 111, "channel": 0}, {"type": "note_off", "time": 67, "note": 75, "velocity": 111, "channel": 0}, {"type": "note_on", "time": 15, "note": 73, "velocity": 111, "channel": 0}, {"type": "note_off", "time": 343, "note": 73, "velocity": 111, "channel": 0}, {"type": "note_on", "time": 11, "note": 73, "velocity": 103, "channel": 0}, {"type": "note_off", "time": 86, "note": 73, "velocity": 103, "channel": 0}, {"type": "note_on", "time": 92, "note": 73, "velocity": 9, "channel": 0}, {"type": "note_off", "time": 82, "note": 73, "velocity": 9, "channel": 0}, {"type": "note_on", "time": 105, "note": 73, "velocity": 108, "channel": 0}, {"type": "note_off", "time": 76, "note": 73, "velocity": 108, "channel": 0}, {"type": "note_on", "time": 37, "note": 73, "velocity": 116, "channel": 0}, {"type": "note_off", "time": 81, "note": 73, "velocity": 116, "channel": 0}, {"type": "note_on", "time": 91, "note": 72, "velocity": 112, "channel": 0}, {"type": "note_off", "time": 53, "note": 72, "velocity": 112, "channel": 0}, {"type": "note_on", "time": 17, "note": 72, "velocity": 103, "channel": 0}, {"type": "note_off", "time": 87, "note": 72, "velocity": 103, "channel": 0}, {"type": "note_on", "time": 21, "note": 72, "velocity": 101, "channel": 0}, {"type": "note_off", "time": 67, "note": 72, "velocity": 101, "channel": 0}, {"type": "note_on", "time": 12, "note": 72, "velocity": 105, "channel": 0}, {"type": "note_off", "time": 94, "note": 72, "velocity": 105, "channel": 0}, {"type": "note_on", "time": 25, "note": 72, "velocity": 108, "channel": 0}, {"type": "note_off", "time": 62, "note": 72, "velocity": 108, "channel": 0}, {"type": "note_on", "time": 25, "note": 72, "velocity": 98, "channel": 0}, {"type": "note_off", "time": 89, "note": 72, "velocity": 98, "channel": 0}, {"type": "note_on", "time": 17, "note": 72, "velocity": 103, "channel": 0}, {"type": "note_off", "time": 61, "note": 72, "velocity": 103, "channel": 0}, {"type": "note_on", "time": 31, "note": 72, "velocity": 110, "channel": 0}, {"type": "note_off", "time": 222, "note": 72, "velocity": 110, "channel": 0}, {"type": "note_on", "time": 56, "note": 75, "velocity": 122, "channel": 0}, {"type": "note_off", "time": 95, "note": 75, "velocity": 122, "channel": 0}, {"type": "note_on", "time": 509, "note": 70, "velocity": 106, "channel": 0}, {"type": "note_off", "time": 64, "note": 70, "velocity": 106, "channel": 0}, {"type": "note_on", "time": 21, "note": 73, "velocity": 93, "channel": 0}, {"type": "note_off", "time": 76, "note": 73, "velocity": 93, "channel": 0}, {"type": "note_on", "time": 12, "note": 76, "velocity": 117, "channel": 0}, {"type": "note_off", "time": 106, "note": 76, "velocity": 117, "channel": 0}, {"type": "note_on", "time": 18, "note": 75, "velocity": 111, "channel": 0}, {"type": "note_off", "time": 54, "note": 75, "velocity": 111, "channel": 0}, {"type": "note_on", "time": 19, "note": 72, "velocity": 101, "channel": 0}, {"type": "note_off", "time": 40, "note": 72, "velocity": 101, "channel": 0}, {"type": "note_on", "time": 15, "note": 70, "velocity": 96, "channel": 0}, {"type": "note_off", "time": 94, "note": 70, "velocity": 96, "channel": 0}, {"type": "note_on", "time": 36, "note": 67, "velocity": 92, "channel": 0}, {"type": "note_off", "time": 71, "note": 67, "velocity": 92, "channel": 0}, {"type": "note_on", "time": 30, "note": 70, "velocity": 107, "channel": 0}, {"type": "note_off", "time": 94, "note": 70, "velocity": 107, "channel": 0}, {"type": "note_on", "time": 10, "note": 65, "velocity": 96, "channel": 0}, {"type": "note_off", "time": 78, "note": 65, "velocity": 96, "channel": 0}, {"type": "note_on", "time": 6, "note": 67, "velocity": 104, "channel": 0}, {"type": "note_off", "time": 47, "note": 67, "velocity": 104, "channel": 0}, {"type": "note_on", "time": 3, "note": 68, "velocity": 96, "channel": 0}, {"type": "note_off", "time": 39, "note": 68, "velocity": 96, "channel": 0}, {"type": "note_on", "time": 10, "note": 69, "velocity": 104, "channel": 0}, {"type": "note_off", "time": 74, "note": 69, "velocity": 104, "channel": 0}, {"type": "note_on", "time": 14, "note": 70, "velocity": 106, "channel": 0}, {"type": "note_off", "time": 99, "note": 70, "velocity": 106, "channel": 0}, {"type": "note_on", "time": 25, "note": 72, "velocity": 109, "channel": 0}, {"type": "note_off", "time": 70, "note": 72, "velocity": 109, "channel": 0}, {"type": "note_on", "time": 17, "note": 73, "velocity": 102, "channel": 0}, {"type": "note_off", "time": 82, "note": 73, "velocity": 102, "channel": 0}, {"type": "note_on", "time": 26, "note": 70, "velocity": 100, "channel": 0}, {"type": "note_off", "time": 46, "note": 70, "velocity": 100, "channel": 0}, {"type": "note_on", "time": 22, "note": 72, "velocity": 102, "channel": 0}, {"type": "note_off", "time": 107, "note": 72, "velocity": 102, "channel": 0}, {"type": "note_on", "time": 8, "note": 70, "velocity": 105, "channel": 0}, {"type": "note_off", "time": 64, "note": 70, "velocity": 105, "channel": 0}, {"type": "note_on", "time": 10, "note": 67, "velocity": 100, "channel": 0}, {"type": "note_off", "time": 97, "note": 67, "velocity": 100, "channel": 0}, {"type": "note_on", "time": 14, "note": 65, "velocity": 113, "channel": 0}, {"type": "note_off", "time": 57, "note": 65, "velocity": 113, "channel": 0}, {"type": "note_on", "time": 6, "note": 64, "velocity": 104, "channel": 0}, {"type": "note_off", "time": 85, "note": 64, "velocity": 104, "channel": 0}, {"type": "note_on", "time": 21, "note": 63, "velocity": 110, "channel": 0}, {"type": "note_off", "time": 81, "note": 63, "velocity": 110, "channel": 0}, {"type": "note_on", "time": 17, "note": 60, "velocity": 91, "channel": 0}, {"type": "note_off", "time": 93, "note": 60, "velocity": 91, "channel": 0}, {"type": "note_on", "time": 64, "note": 62, "velocity": 100, "channel": 0}, {"type": "note_off", "time": 114, "note": 62, "velocity": 100, "channel": 0}, {"type": "note_on", "time": 111, "note": 65, "velocity": 106, "channel": 0}, {"type": "note_off", "time": 105, "note": 65, "velocity": 106, "channel": 0}, {"type": "note_on", "time": 32, "note": 62, "velocity": 87, "channel": 0}, {"type": "note_off", "time": 53, "note": 62, "velocity": 87, "channel": 0}, {"type": "note_on", "time": 13, "note": 63, "velocity": 105, "channel": 0}, {"type": "note_off", "time": 70, "note": 63, "velocity": 105, "channel": 0}, {"type": "note_on", "time": 32, "note": 67, "velocity": 102, "channel": 0}, {"type": "note_off", "time": 172, "note": 67, "velocity": 102, "channel": 0}, {"type": "note_on", "time": 26, "note": 64, "velocity": 97, "channel": 0}, {"type": "note_off", "time": 68, "note": 64, "velocity": 97, "channel": 0}, {"type": "note_on", "time": 4, "note": 67, "velocity": 105, "channel": 0}, {"type": "note_off", "time": 91, "note": 67, "velocity": 105, "channel": 0}, {"type": "note_on", "time": 39, "note": 70, "velocity": 97, "channel": 0}, {"type": "note_off", "time": 76, "note": 70, "velocity": 97, "channel": 0}, {"type": "end_of_track", "time": 0}]]}