{"ticks_per_beat": 192, "tracks": [[{"type": "track_name", "name": "Melody", "time": 0}, {"type": "set_tempo", "tempo": 402684, "time": 0}, {"type": "key_signature", "key": "Bb", "time": 0}, {"type": "time_signature", "numerator": 4, "denominator": 4, "clocks_per_click": 24, "notated_32nd_notes_per_beat": 8, "time": 0}, {"type": "note_on", "time": 2203, "note": 70, "velocity": 118, "channel": 0}, {"type": "note_off", "time": 83, "note": 70, "velocity": 118, "channel": 0}, {"type": "note_on", "time": 123, "note": 70, "velocity": 103, "channel": 0}, {"type": "note_off", "time": 114, "note": 70, "velocity": 103, "channel": 0}, {"type": "note_on", "time": 429, "note": 70, "velocity": 112, "channel": 0}, {"type": "note_off", "time": 111, "note": 70, "velocity": 112, "channel": 0}, {"type": "note_on", "time": 44, "note": 73, "velocity": 98, "channel": 0}, {"type": "note_off", "time": 87, "note": 73, "velocity": 98, "channel": 0}, {"type": "note_on", "time": 76, "note": 70, "velocity": 111, "channel": 0}, {"type": "note_off", "time": 64, "note": 70, "velocity": 111, "channel": 0}, {"type": "note_on", "time": 25, "note": 67, "velocity": 108, "channel": 0}, {"type": "note_off", "time": 99, "note": 67, "velocity": 108, "channel": 0}, {"type": "note_on", "time": 18, "note": 65, "velocity": 82, "channel": 0}, {"type": "note_off", "time": 206, "note": 65, "velocity": 82, "channel": 0}, {"type": "note_on", "time": 628, "note": 68, "velocity": 123, "channel": 0}, {"type": "note_off", "time": 103, "note": 68, "velocity": 123, "channel": 0}, {"type": "note_on", "time": 7, "note": 70, "velocity": 117, "channel": 0}, {"type": "note_off", "time": 59, "note": 70, "velocity": 117, "channel": 0}, {"type": "note_on", "time": 20, "note": 68, "velocity": 119, "channel": 0}, {"type": "note_off", "time": 105, "note": 68, "velocity": 119, "channel": 0}, {"type": "note_on", "time": 5, "note": 70, "velocity": 113, "channel": 0}, {"type": "note_off", "time": 63, "note": 70, "velocity": 113, "channel": 0}, {"type": "note_on", "time": 22, "note": 67, "velocity": 116, "channel": 0}, {"type": "note_off", "time": 107, "note": 67, "velocity": 116, "channel": 0}, {"type": "note_on", "time": 13, "note": 65, "velocity": 111, "channel": 0}, {"type": "note_off", "time": 78, "note": 65, "velocity": 111, "channel": 0}, {"type": "note_on", "time": 90, "note": 73, "velocity": 103, "channel": 0}, {"type": "note_off", "time": 96, "note": 73, "velocity": 103, "channel": 0}, {"type": "note_on", "time": 92, "note": 67, "velocity": 91, "channel": 0}, {"type": "note_off", "time": 257, "note": 67, "velocity": 91, "channel": 0}, {"type": "note_on", "time": 496, "note": 73, "velocity": 109, "channel": 0}, {"type": "note_off", "time": 62, "note": 73, "velocity": 109, "channel": 0}, {"type": "note_on", "time": 20, "note": 75, "velocity": 119, "channel": 0}, {"type": "note_off", "time": 92, "note": 75, "velocity": 119, "channel": 0}, {"type": "note_on", "time": 17, "note": 77, "velocity": 118, "channel": 0}, {"type": "note_off", "time": 63, "note": 77, "velocity": 118, "channel": 0}, {"type": "note_on", "time": 27, "note": 70, "velocity": 110, "channel": 0}, {"type": "note_off", "time": 89, "note": 70, "velocity": 110, "channel": 0}, {"type": "note_on", "time": 91, "note": 73, "velocity": 100, "channel": 0}, {"type": "note_off", "time": 89, "note": 73, "velocity": 100, "channel": 0}, {"type": "note_on", "time": 29, "note": 74, "velocity": 107, "channel": 0}, {"type": "note_off", "time": 62, "note": 74, "velocity": 107, "channel": 0}, {"type": "note_on", "time": 10, "note": 70, "velocity": 102, "channel": 0}, {"type": "note_off", "time": 96, "note": 70, "velocity": 102, "channel": 0}, {"type": "note_on", "time": 25, "note": 65, "velocity": 111, "channel": 0}, {"type": "note_off", "time": 58, "note": 65, "velocity": 111, "channel": 0}, {"type": "note_on", "time": 11, "note": 63, "velocity": 100, "channel": 0}, {"type": "note_off", "time": 103, "note": 63, "velocity": 100, "channel": 0}, {"type": "note_on", "time": 23, "note": 60, "velocity": 76, "channel": 0}, {"type": "note_off", "time": 47, "note": 60, "velocity": 76, "channel": 0}, {"type": "note_on", "time": 11, "note": 62, "velocity": 100, "channel": 0}, {"type": "note_off", "time": 106, "note": 62, "velocity": 100, "channel": 0}, {"type": "note_on", "time": 17, "note": 65, "velocity": 89, "channel": 0}, {"type": "note_off", "time": 219, "note": 65, "velocity": 89, "channel": 0}, {"type": "note_on", "time": 236, "note": 74, "velocity": 117, "channel": 0}, {"type": "note_off", "time": 114, "note": 74, "velocity": 117, "channel": 0}, {"type": "note_on", "time": 8, "note": 72, "velocity": 102, "channel": 0}, {"type": "note_off", "time": 53, "note": 72, "velocity": 102, "channel": 0}, {"type": "note_on", "time": 10, "note": 73, "velocity": 108, "channel": 0}, {"type": "note_off", "time": 289, "note": 73, "velocity": 108, "channel": 0}, {"type": "note_on", "time": 6, "note": 71, "velocity": 108, "channel": 0}, {"type": "note_off", "time": 87, "note": 71, "velocity": 108, "channel": 0}, {"type": "note_on", "time": 15, "note": 72, "velocity": 103, "channel": 0}, {"type": "note_off", "time": 83, "note": 72, "velocity": 103, "channel": 0}, {"type": "note_on", "time": 23, "note": 63, "velocity": 89, "channel": 0}, {"type": "note_off", "time": 234, "note": 63, "velocity": 89, "channel": 0}, {"type": "note_on", "time": 386, "note": 70, "velocity": 108, "channel": 0}, {"type": "note_off", "time": 94, "note": 70, "velocity": 108, "channel": 0}, {"type": "note_on", "time": 17, "note": 73, "velocity": 106, "channel": 0}, {"type": "note_off", "time": 67, "note": 73, "velocity": 106, "channel": 0}, {"type": "note_on", "time": 11, "note": 74, "velocity": 111, "channel": 0}, {"type": "note_off", "time": 98, "note": 74, "velocity": 111, "channel": 0}, {"type": "note_on", "time": 9, "note": 75, "velocity": 118, "channel": 0}, {"type": "note_off", "time": 66, "note": 75, "velocity": 118, "channel": 0}, {"type": "note_on", "time": 22, "note": 76, "velocity": 119, "channel": 0}, {"type": "note_off", "time": 91, "note": 76, "velocity": 119, "channel": 0}, {"type": "note_on", "time": 8, "note": 77, "velocity": 127, "channel": 0}, {"type": "note_off", "time": 70, "note": 77, "velocity": 127, "channel": 0}, {"type": "note_on", "time": 26, "note": 70, "velocity": 100, "channel": 0}, {"type": "note_off", "time": 80, "note": 70, "velocity": 100, "channel": 0}, {"type": "note_on", "time": 33, "note": 76, "velocity": 110, "channel": 0}, {"type": "note_off", "time": 179, "note": 76, "velocity": 110, "channel": 0}, {"type": "note_on", "time": 8, "note": 75, "velocity": 118, "channel": 0}, {"type": "note_off", "time": 179, "note": 75, "velocity": 118, "channel": 0}, {"type": "note_on", "time": 12, "note": 73, "velocity": 103, "channel": 0}, {"type": "note_off", "time": 53, "note": 73, "velocity": 103, "channel": 0}, {"type": "note_on", "time": 5, "note": 75, "velocity": 114, "channel": 0}, {"type": "note_off", "time": 113, "note": 75, "velocity": 114, "channel": 0}, {"type": "note_on", "time": 10, "note": 73, "velocity": 104, "channel": 0}, {"type": "note_off", "time": 55, "note": 73, "velocity": 104, "channel": 0}, {"type": "note_on", "time": 21, "note": 70, "velocity": 104, "channel": 0}, {"type": "note_off", "time": 69, "note": 70, "velocity": 104, "channel": 0}, {"type": "note_on", "time": 121, "note": 70, "velocity": 97, "channel": 0}, {"type": "note_off", "time": 172, "note": 70, "velocity": 97, "channel": 0}, {"type": "note_on", "time": 231, "note": 65, "velocity": 105, "channel": 0}, {"type": "note_off", "time": 85, "note": 65, "velocity": 105, "channel": 0}, {"type": "note_on", "time": 13, "note": 67, "velocity": 121, "channel": 0}, {"type": "note_off", "time": 56, "note": 67, "velocity": 121, "channel": 0}, {"type": "note_on", "time": 22, "note": 70, "velocity": 115, "channel": 0}, {"type": "note_off", "time": 76, "note": 70, "velocity": 115, "channel": 0}, {"type": "note_on", "time": 96, "note": 72, "velocity": 106, "channel": 0}, {"type": "note_off", "time": 184, "note": 72, "velocity": 106, "channel": 0}, {"type": "note_on", "time": 13, "note": 70, "velocity": 99, "channel": 0}, {"type": "note_off", "time": 76, "note": 70, "velocity": 99, "channel": 0}, {"type": "note_on", "time": 92, "note": 72, "velocity": 98, "channel": 0}, {"type": "note_off", "time": 212, "note": 72, "velocity": 98, "channel": 0}, {"type": "note_on", "time": 29, "note": 70, "velocity": 93, "channel": 0}, {"type": "note_off", "time": 82, "note": 70, "velocity": 93, "channel": 0}, {"type": "note_on", "time": 24, "note": 75, "velocity": 112, "channel": 0}, {"type": "note_off", "time": 101, "note": 75, "velocity": 112, "channel": 0}, {"type": "note_on", "time": 161, "note": 70, "velocity": 99, "channel": 0}, {"type": "note_off", "time": 88, "note": 70, "velocity": 99, "channel": 0}, {"type": "note_on", "time": 110, "note": 77, "velocity": 120, "channel": 0}, {"type": "note_off", "time": 100, "note": 77, "velocity": 120, "channel": 0}, {"type": "note_on", "time": 14, "note": 75, "velocity": 116, "channel": 0}, {"type": "note_off", "time": 64, "note": 75, "velocity": 116, "channel": 0}, {"type": "note_on", "time": 12, "note": 73, "velocity": 90, "channel": 0}, {"type": "note_off", "time": 78, "note": 73, "velocity": 90, "channel": 0}, {"type": "note_on", "time": 17, "note": 74, "velocity": 108, "channel": 0}, {"type": "note_off", "time": 72, "note": 74, "velocity": 108, "channel": 0}, {"type": "note_on", "time": 29, "note": 70, "velocity": 103, "channel": 0}, {"type": "note_off", "time": 89, "note": 70, "velocity": 103, "channel": 0}, {"type": "note_on", "time": 20, "note": 65, "velocity": 107, "channel": 0}, {"type": "note_off", "time": 58, "note": 65, "velocity": 107, "channel": 0}, {"type": "note_on", "time": 12, "note": 63, "velocity": 94, "channel": 0}, {"type": "note_off", "time": 159, "note": 63, "velocity": 94, "channel": 0}, {"type": "note_on", "time": 7, "note": 62, "velocity": 93, "channel": 0}, {"type": "note_off", "time": 209, "note": 62, "velocity": 93, "channel": 0}, {"type": "note_on", "time": 26, "note": 65, "velocity": 90, "channel": 0}, {"type": "note_off", "time": 79, "note": 65, "velocity": 90, "channel": 0}, {"type": "note_on", "time": 14, "note": 70, "velocity": 121, "channel": 0}, {"type": "note_off", "time": 56, "note": 70, "velocity": 121, "channel": 0}, {"type": "note_on", "time": 17, "note": 68, "velocity": 100, "channel": 0}, {"type": "note_off", "time": 107, "note": 68, "velocity": 100, "channel": 0}, {"type": "note_on", "time": 17, "note": 70, "velocity": 113, "channel": 0}, {"type": "note_off", "time": 61, "note": 70, "velocity": 113, "channel": 0}, {"type": "note_on", "time": 318, "note": 66, "velocity": 115, "channel": 0}, {"type": "note_off", "time": 80, "note": 66, "velocity": 115, "channel": 0}, {"type": "note_on", "time": 13, "note": 67, "velocity": 121, "channel": 0}, {"type": "note_off", "time": 84, "note": 67, "velocity": 121, "channel": 0}, {"type": "note_on", "time": 7, "note": 70, "velocity": 123, "channel": 0}, {"type": "note_off", "time": 64, "note": 70, "velocity": 123, "channel": 0}, {"type": "note_on", "time": 25, "note": 73, "velocity": 109, "channel": 0}, {"type": "note_off", "time": 76, "note": 73, "velocity": 109, "channel": 0}, {"type": "note_on", "time": 21, "note": 75, "velocity": 119, "channel": 0}, {"type": "note_off", "time": 71, "note": 75, "velocity": 119, "channel": 0}, {"type": "note_on", "time": 22, "note": 77, "velocity": 122, "channel": 0}, {"type": "note_off", "time": 89, "note": 77, "velocity": 122, "channel": 0}, {"type": "note_on", "time": 12, "note": 77, "velocity": 119, "channel": 0}, {"type": "note_off", "time": 74, "note": 77, "velocity": 119, "channel": 0}, {"type": "note_on", "time": 21, "note": 75, "velocity": 118, "channel": 0}, {"type": "note_off", "time": 89, "note": 75, "velocity": 118, "channel": 0}, {"type": "note_on", "time": 13, "note": 75, "velocity": 108, "channel": 0}, {"type": "note_off", "time": 48, "note": 75, "velocity": 108, "channel": 0}, {"type": "note_on", "time": 33, "note": 70, "velocity": 103, "channel": 0}, {"type": "note_off", "time": 86, "note": 70, "velocity": 103, "channel": 0}, {"type": "note_on", "time": 17, "note": 76, "velocity": 113, "channel": 0}, {"type": "note_off", "time": 126, "note": 76, "velocity": 113, "channel": 0}, {"type": "note_on", "time": 63, "note": 75, "velocity": 113, "channel": 0}, {"type": "note_off", "time": 116, "note": 75, "velocity": 113, "channel": 0}, {"type": "note_on", "time": 66, "note": 73, "velocity": 106, "channel": 0}, {"type": "note_off", "time": 65, "note": 73, "velocity": 106, "channel": 0}, {"type": "note_on", "time": 21, "note": 70, "velocity": 117, "channel": 0}, {"type": "note_off", "time": 93, "note": 70, "velocity": 117, "channel": 0}, {"type": "note_on", "time": 13, "note": 68, "velocity": 111, "channel": 0}, {"type": "note_off", "time": 65, "note": 68, "velocity": 111, "channel": 0}, {"type": "note_on", "time": 19, "note": 65, "velocity": 102, "channel": 0}, {"type": "note_off", "time": 84, "note": 65, "velocity": 102, "channel": 0}, {"type": "note_on", "time": 23, "note": 63, "velocity": 106, "channel": 0}, {"type": "note_off", "time": 45, "note": 63, "velocity": 106, "channel": 0}, {"type": "note_on", "time": 9, "note": 62, "velocity": 97, "channel": 0}, {"type": "note_off", "time": 124, "note": 62, "velocity": 97, "channel": 0}, {"type": "note_on", "time": 85, "note": 70, "velocity": 102, "channel": 0}, {"type": "note_off", "time": 269, "note": 70, "velocity": 102, "channel": 0}, {"type": "note_on", "time": 7, "note": 69, "velocity": 111, "channel": 0}, {"type": "note_off", "time": 31, "note": 69, "velocity": 111, "channel": 0}, {"type": "note_on", "time": 10, "note": 68, "velocity": 110, "channel": 0}, {"type": "note_off", "time": 29, "note": 68, "velocity": 110, "channel": 0}, {"type": "note_on", "time": 5, "note": 67, "velocity": 103, "channel": 0}, {"type": "note_off", "time": 131, "note": 67, "velocity": 103, "channel": 0}, {"type": "note_on", "time": 7, "note": 65, "velocity": 93, "channel": 0}, {"type": "note_off", "time": 215, "note": 65, "velocity": 93, "channel": 0}, {"type": "note_on", "time": 322, "note": 82, "velocity": 115, "channel": 0}, {"type": "note_off", "time": 455, "note": 82, "velocity": 115, "channel": 0}, {"type": "note_on", "time": 16, "note": 73, "velocity": 103, "channel": 0}, {"type": "note_off", "time": 116, "note": 73, "velocity": 103, "channel": 0}, {"type": "note_on", "time": 71, "note": 72, "velocity": 108, "channel": 0}, {"type": "note_off", "time": 98, "note": 72, "velocity": 108, "channel": 0}, {"type": "note_on", "time": 15, "note": 70, "velocity": 118, "channel": 0}, {"type": "note_off", "time": 55, "note": 70, "velocity": 118, "channel": 0}, {"type": "note_on", "time": 39, "note": 65, "velocity": 101, "channel": 0}, {"type": "note_off", "time": 73, "note": 65, "velocity": 101, "channel": 0}, {"type": "note_on", "time": 17, "note": 63, "velocity": 93, "channel": 0}, {"type": "note_off", "time": 185, "note": 63, "velocity": 93, "channel": 0}, {"type": "note_on", "time": 98, "note": 67, "velocity": 114, "channel": 0}, {"type": "note_off", "time": 79, "note": 67, "velocity": 114, "channel": 0}, {"type": "note_on", "time": 11, "note": 70, "velocity": 113, "channel": 0}, {"type": "note_off", "time": 70, "note": 70, "velocity": 113, "channel": 0}, {"type": "note_on", "time": 25, "note": 73, "velocity": 108, "channel": 0}, {"type": "note_off", "time": 94, "note": 73, "velocity": 108, "channel": 0}, {"type": "note_on", "time": 10, "note": 74, "velocity": 109, "channel": 0}, {"type": "note_off", "time": 61, "note": 74, "velocity": 109, "channel": 0}, {"type": "note_on", "time": 44, "note": 65, "velocity": 103, "channel": 0}, {"type": "note_off", "time": 76, "note": 65, "velocity": 103, "channel": 0}, {"type": "note_on", "time": 11, "note": 67, "velocity": 122, "channel": 0}, {"type": "note_off", "time": 70, "note": 67, "velocity": 122, "channel": 0}, {"type": "note_on", "time": 24, "note": 72, "velocity": 110, "channel": 0}, {"type": "note_off", "time": 92, "note": 72, "velocity": 110, "channel": 0}, {"type": "note_on", "time": 15, "note": 70, "velocity": 104, "channel": 0}, {"type": "note_off", "time": 267, "note": 70, "velocity": 104, "channel": 0}, {"type": "note_on", "time": 10, "note": 68, "velocity": 104, "channel": 0}, {"type": "note_off", "time": 22, "note": 68, "velocity": 104, "channel": 0}, {"type": "note_on", "time": 10, "note": 70, "velocity": 109, "channel": 0}, {"type": "note_off", "time": 25, "note": 70, "velocity": 109, "channel": 0}, {"type": "note_on", "time": 12, "note": 68, "velocity": 109, "channel": 0}, {"type": "note_off", "time": 25, "note": 68, "velocity": 109, "channel": 0}, {"type": "note_on", "time": 18, "note": 65, "velocity": 94, "channel": 0}, {"type": "note_off", "time": 34, "note": 65, "velocity": 94, "channel": 0}, {"type": "note_on", "time": 20, "note": 69, "velocity": 109, "channel": 0}, {"type": "note_off", "time": 112, "note": 69, "velocity": 109, "channel": 0}, {"type": "note_on", "time": 12, "note": 70, "velocity": 117, "channel": 0}, {"type": "note_off", "time": 64, "note": 70, "velocity": 117, "channel": 0}, {"type": "note_on", "time": 17, "note": 65, "velocity": 100, "channel": 0}, {"type": "note_off", "time": 99, "note": 65, "velocity": 100, "channel": 0}, {"type": "note_on", "time": 85, "note": 63, "velocity": 106, "channel": 0}, {"type": "note_off", "time": 101, "note": 63, "velocity": 106, "channel": 0}, {"type": "note_on", "time": 89, "note": 62, "velocity": 102, "channel": 0}, {"type": "note_off", "time": 115, "note": 62, "velocity": 102, "channel": 0}, {"type": "note_on", "time": 15, "note": 65, "velocity": 100, "channel": 0}, {"type": "note_off", "time": 242, "note": 65, "velocity": 100, "channel": 0}, {"type": "end_of_track", "time": 0}]]}