{"ticks_per_beat": 192, "tracks": [[{"type": "track_name", "name": "Melody", "time": 0}, {"type": "set_tempo", "tempo": 285714, "time": 0}, {"type": "key_signature", "key": "Bb", "time": 0}, {"type": "time_signature", "numerator": 4, "denominator": 4, "clocks_per_click": 24, "notated_32nd_notes_per_beat": 8, "time": 0}, {"type": "note_on", "time": 3031, "note": 65, "velocity": 107, "channel": 0}, {"type": "note_off", "time": 50, "note": 65, "velocity": 107, "channel": 0}, {"type": "note_on", "time": 42, "note": 67, "velocity": 102, "channel": 0}, {"type": "note_off", "time": 66, "note": 67, "velocity": 102, "channel": 0}, {"type": "note_on", "time": 23, "note": 70, "velocity": 105, "channel": 0}, {"type": "note_off", "time": 50, "note": 70, "velocity": 105, "channel": 0}, {"type": "note_on", "time": 7, "note": 73, "velocity": 109, "channel": 0}, {"type": "note_off", "time": 39, "note": 73, "velocity": 109, "channel": 0}, {"type": "note_on", "time": 7, "note": 74, "velocity": 120, "channel": 0}, {"type": "note_off", "time": 58, "note": 74, "velocity": 120, "channel": 0}, {"type": "note_on", "time": 27, "note": 74, "velocity": 120, "channel": 0}, {"type": "note_off", "time": 54, "note": 74, "velocity": 120, "channel": 0}, {"type": "note_on", "time": 27, "note": 74, "velocity": 120, "channel": 0}, {"type": "note_off", "time": 93, "note": 74, "velocity": 120, "channel": 0}, {"type": "note_on", "time": 117, "note": 74, "velocity": 120, "channel": 0}, {"type": "note_off", "time": 78, "note": 74, "velocity": 120, "channel": 0}, {"type": "note_on", "time": 50, "note": 73, "velocity": 115, "channel": 0}, {"type": "note_off", "time": 35, "note": 73, "velocity": 115, "channel": 0}, {"type": "note_on", "time": 7, "note": 74, "velocity": 118, "channel": 0}, {"type": "note_off", "time": 66, "note": 74, "velocity": 118, "channel": 0}, {"type": "note_on", "time": 78, "note": 74, "velocity": 120, "channel": 0}, {"type": "note_off", "time": 62, "note": 74, "velocity": 120, "channel": 0}, {"type": "note_on", "time": 23, "note": 74, "velocity": 118, "channel": 0}, {"type": "note_off", "time": 105, "note": 74, "velocity": 118, "channel": 0}, {"type": "note_on", "time": 35, "note": 74, "velocity": 117, "channel": 0}, {"type": "note_off", "time": 74, "note": 74, "velocity": 117, "channel": 0}, {"type": "note_on", "time": 89, "note": 74, "velocity": 116, "channel": 0}, {"type": "note_off", "time": 327, "note": 74, "velocity": 116, "channel": 0}, {"type": "note_on", "time": 132, "note": 67, "velocity": 99, "channel": 0}, {"type": "note_off", "time": 89, "note": 67, "velocity": 99, "channel": 0}, {"type": "note_on", "time": 11, "note": 69, "velocity": 93, "channel": 0}, {"type": "note_off", "time": 89, "note": 69, "velocity": 93, "channel": 0}, {"type": "note_on", "time": 3, "note": 70, "velocity": 103, "channel": 0}, {"type": "note_off", "time": 81, "note": 70, "velocity": 103, "channel": 0}, {"type": "note_on", "time": 27, "note": 72, "velocity": 115, "channel": 0}, {"type": "note_off", "time": 81, "note": 72, "velocity": 115, "channel": 0}, {"type": "note_on", "time": 0, "note": 74, "velocity": 120, "channel": 0}, {"type": "note_on", "time": 101, "note": 79, "velocity": 121, "channel": 0}, {"type": "note_off", "time": 0, "note": 74, "velocity": 120, "channel": 0}, {"type": "note_off", "time": 78, "note": 79, "velocity": 121, "channel": 0}, {"type": "note_on", "time": 11, "note": 74, "velocity": 122, "channel": 0}, {"type": "note_off", "time": 93, "note": 74, "velocity": 122, "channel": 0}, {"type": "note_on", "time": 7, "note": 70, "velocity": 103, "channel": 0}, {"type": "note_off", "time": 74, "note": 70, "velocity": 103, "channel": 0}, {"type": "note_on", "time": 27, "note": 69, "velocity": 101, "channel": 0}, {"type": "note_off", "time": 93, "note": 69, "velocity": 101, "channel": 0}, {"type": "note_on", "time": 31, "note": 67, "velocity": 106, "channel": 0}, {"type": "note_off", "time": 78, "note": 67, "velocity": 106, "channel": 0}, {"type": "note_on", "time": 113, "note": 69, "velocity": 99, "channel": 0}, {"type": "note_off", "time": 93, "note": 69, "velocity": 99, "channel": 0}, {"type": "note_on", "time": 85, "note": 67, "velocity": 95, "channel": 0}, {"type": "note_off", "time": 183, "note": 67, "velocity": 95, "channel": 0}, {"type": "note_on", "time": 312, "note": 68, "velocity": 113, "channel": 0}, {"type": "note_off", "time": 70, "note": 68, "velocity": 113, "channel": 0}, {"type": "note_on", "time": 0, "note": 69, "velocity": 101, "channel": 0}, {"type": "note_off", "time": 60, "note": 69, "velocity": 101, "channel": 0}, {"type": "note_on", "time": 27, "note": 74, "velocity": 124, "channel": 0}, {"type": "note_off", "time": 109, "note": 74, "velocity": 124, "channel": 0}, {"type": "note_on", "time": 0, "note": 73, "velocity": 124, "channel": 0}, {"type": "note_off", "time": 60, "note": 73, "velocity": 124, "channel": 0}, {"type": "note_on", "time": 21, "note": 72, "velocity": 122, "channel": 0}, {"type": "note_off", "time": 115, "note": 72, "velocity": 122, "channel": 0}, {"type": "note_on", "time": 10, "note": 70, "velocity": 92, "channel": 0}, {"type": "note_off", "time": 269, "note": 70, "velocity": 92, "channel": 0}, {"type": "note_on", "time": 198, "note": 73, "velocity": 125, "channel": 0}, {"type": "note_off", "time": 62, "note": 73, "velocity": 125, "channel": 0}, {"type": "note_on", "time": 0, "note": 74, "velocity": 126, "channel": 0}, {"type": "note_off", "time": 62, "note": 74, "velocity": 126, "channel": 0}, {"type": "note_on", "time": 85, "note": 73, "velocity": 124, "channel": 0}, {"type": "note_off", "time": 105, "note": 73, "velocity": 124, "channel": 0}, {"type": "note_on", "time": 85, "note": 72, "velocity": 124, "channel": 0}, {"type": "note_off", "time": 120, "note": 72, "velocity": 124, "channel": 0}, {"type": "note_on", "time": 7, "note": 74, "velocity": 125, "channel": 0}, {"type": "note_off", "time": 89, "note": 74, "velocity": 125, "channel": 0}, {"type": "note_on", "time": 0, "note": 72, "velocity": 123, "channel": 0}, {"type": "note_off", "time": 93, "note": 72, "velocity": 123, "channel": 0}, {"type": "note_on", "time": 7, "note": 67, "velocity": 98, "channel": 0}, {"type": "note_off", "time": 70, "note": 67, "velocity": 98, "channel": 0}, {"type": "note_on", "time": 0, "note": 72, "velocity": 124, "channel": 0}, {"type": "note_off", "time": 124, "note": 72, "velocity": 124, "channel": 0}, {"type": "note_on", "time": 0, "note": 74, "velocity": 125, "channel": 0}, {"type": "note_off", "time": 81, "note": 74, "velocity": 125, "channel": 0}, {"type": "note_on", "time": 7, "note": 72, "velocity": 122, "channel": 0}, {"type": "note_off", "time": 74, "note": 72, "velocity": 122, "channel": 0}, {"type": "note_on", "time": 39, "note": 72, "velocity": 107, "channel": 0}, {"type": "note_off", "time": 284, "note": 72, "velocity": 107, "channel": 0}, {"type": "note_on", "time": 280, "note": 73, "velocity": 122, "channel": 0}, {"type": "note_off", "time": 97, "note": 73, "velocity": 122, "channel": 0}, {"type": "note_on", "time": 19, "note": 74, "velocity": 125, "channel": 0}, {"type": "note_off", "time": 70, "note": 74, "velocity": 125, "channel": 0}, {"type": "note_on", "time": 15, "note": 77, "velocity": 116, "channel": 0}, {"type": "note_off", "time": 70, "note": 77, "velocity": 116, "channel": 0}, {"type": "note_on", "time": 23, "note": 74, "velocity": 121, "channel": 0}, {"type": "note_off", "time": 78, "note": 74, "velocity": 121, "channel": 0}, {"type": "note_on", "time": 113, "note": 74, "velocity": 124, "channel": 0}, {"type": "note_off", "time": 93, "note": 74, "velocity": 124, "channel": 0}, {"type": "note_on", "time": 105, "note": 74, "velocity": 121, "channel": 0}, {"type": "note_off", "time": 97, "note": 74, "velocity": 121, "channel": 0}, {"type": "note_on", "time": 81, "note": 74, "velocity": 123, "channel": 0}, {"type": "note_off", "time": 101, "note": 74, "velocity": 123, "channel": 0}, {"type": "note_on", "time": 42, "note": 74, "velocity": 119, "channel": 0}, {"type": "note_off", "time": 234, "note": 74, "velocity": 119, "channel": 0}, {"type": "note_on", "time": 23, "note": 69, "velocity": 104, "channel": 0}, {"type": "note_off", "time": 85, "note": 69, "velocity": 104, "channel": 0}, {"type": "note_on", "time": 23, "note": 67, "velocity": 101, "channel": 0}, {"type": "note_off", "time": 230, "note": 67, "velocity": 101, "channel": 0}, {"type": "note_on", "time": 234, "note": 72, "velocity": 123, "channel": 0}, {"type": "note_off", "time": 93, "note": 72, "velocity": 123, "channel": 0}, {"type": "note_on", "time": 31, "note": 67, "velocity": 106, "channel": 0}, {"type": "note_off", "time": 35, "note": 67, "velocity": 106, "channel": 0}, {"type": "note_on", "time": 27, "note": 72, "velocity": 125, "channel": 0}, {"type": "note_off", "time": 101, "note": 72, "velocity": 125, "channel": 0}, {"type": "note_on", "time": 89, "note": 73, "velocity": 125, "channel": 0}, {"type": "note_off", "time": 109, "note": 73, "velocity": 125, "channel": 0}, {"type": "note_on", "time": 7, "note": 72, "velocity": 101, "channel": 0}, {"type": "note_off", "time": 78, "note": 72, "velocity": 101, "channel": 0}, {"type": "note_on", "time": 7, "note": 73, "velocity": 124, "channel": 0}, {"type": "note_off", "time": 97, "note": 73, "velocity": 124, "channel": 0}, {"type": "note_on", "time": 15, "note": 74, "velocity": 109, "channel": 0}, {"type": "note_off", "time": 331, "note": 74, "velocity": 109, "channel": 0}, {"type": "note_on", "time": 241, "note": 73, "velocity": 126, "channel": 0}, {"type": "note_off", "time": 89, "note": 73, "velocity": 126, "channel": 0}, {"type": "note_on", "time": 23, "note": 74, "velocity": 123, "channel": 0}, {"type": "note_off", "time": 81, "note": 74, "velocity": 123, "channel": 0}, {"type": "note_on", "time": 15, "note": 70, "velocity": 102, "channel": 0}, {"type": "note_off", "time": 62, "note": 70, "velocity": 102, "channel": 0}, {"type": "note_on", "time": 15, "note": 72, "velocity": 124, "channel": 0}, {"type": "note_off", "time": 89, "note": 72, "velocity": 124, "channel": 0}, {"type": "note_on", "time": 7, "note": 70, "velocity": 98, "channel": 0}, {"type": "note_off", "time": 70, "note": 70, "velocity": 98, "channel": 0}, {"type": "note_on", "time": 15, "note": 72, "velocity": 123, "channel": 0}, {"type": "note_off", "time": 35, "note": 72, "velocity": 123, "channel": 0}, {"type": "note_on", "time": 23, "note": 73, "velocity": 127, "channel": 0}, {"type": "note_off", "time": 62, "note": 73, "velocity": 127, "channel": 0}, {"type": "note_on", "time": 74, "note": 72, "velocity": 118, "channel": 0}, {"type": "note_off", "time": 117, "note": 72, "velocity": 118, "channel": 0}, {"type": "note_on", "time": 15, "note": 70, "velocity": 109, "channel": 0}, {"type": "note_off", "time": 70, "note": 70, "velocity": 109, "channel": 0}, {"type": "note_on", "time": 117, "note": 69, "velocity": 112, "channel": 0}, {"type": "note_off", "time": 39, "note": 69, "velocity": 112, "channel": 0}, {"type": "note_on", "time": 0, "note": 70, "velocity": 112, "channel": 0}, {"type": "note_off", "time": 27, "note": 70, "velocity": 112, "channel": 0}, {"type": "note_on", "time": 117, "note": 67, "velocity": 113, "channel": 0}, {"type": "note_off", "time": 66, "note": 67, "velocity": 113, "channel": 0}, {"type": "note_on", "time": 23, "note": 61, "velocity": 103, "channel": 0}, {"type": "note_off", "time": 109, "note": 61, "velocity": 103, "channel": 0}, {"type": "note_on", "time": 0, "note": 62, "velocity": 108, "channel": 0}, {"type": "note_off", "time": 74, "note": 62, "velocity": 108, "channel": 0}, {"type": "note_on", "time": 0, "note": 69, "velocity": 105, "channel": 0}, {"type": "note_off", "time": 81, "note": 69, "velocity": 105, "channel": 0}, {"type": "note_on", "time": 27, "note": 67, "velocity": 107, "channel": 0}, {"type": "note_off", "time": 78, "note": 67, "velocity": 107, "channel": 0}, {"type": "note_on", "time": 210, "note": 67, "velocity": 111, "channel": 0}, {"type": "note_off", "time": 97, "note": 67, "velocity": 111, "channel": 0}, {"type": "note_on", "time": 3, "note": 69, "velocity": 105, "channel": 0}, {"type": "note_off", "time": 58, "note": 69, "velocity": 105, "channel": 0}, {"type": "note_on", "time": 27, "note": 70, "velocity": 106, "channel": 0}, {"type": "note_off", "time": 78, "note": 70, "velocity": 106, "channel": 0}, {"type": "note_on", "time": 15, "note": 72, "velocity": 126, "channel": 0}, {"type": "note_off", "time": 70, "note": 72, "velocity": 126, "channel": 0}, {"type": "note_on", "time": 15, "note": 74, "velocity": 125, "channel": 0}, {"type": "note_off", "time": 89, "note": 74, "velocity": 125, "channel": 0}, {"type": "note_on", "time": 15, "note": 75, "velocity": 121, "channel": 0}, {"type": "note_off", "time": 78, "note": 75, "velocity": 121, "channel": 0}, {"type": "note_on", "time": 7, "note": 76, "velocity": 113, "channel": 0}, {"type": "note_off", "time": 70, "note": 76, "velocity": 113, "channel": 0}, {"type": "note_on", "time": 62, "note": 76, "velocity": 117, "channel": 0}, {"type": "note_off", "time": 35, "note": 76, "velocity": 117, "channel": 0}, {"type": "note_on", "time": 15, "note": 77, "velocity": 114, "channel": 0}, {"type": "note_off", "time": 288, "note": 77, "velocity": 114, "channel": 0}, {"type": "note_on", "time": 27, "note": 76, "velocity": 117, "channel": 0}, {"type": "note_off", "time": 78, "note": 76, "velocity": 117, "channel": 0}, {"type": "note_on", "time": 23, "note": 75, "velocity": 122, "channel": 0}, {"type": "note_off", "time": 85, "note": 75, "velocity": 122, "channel": 0}, {"type": "note_on", "time": 35, "note": 74, "velocity": 124, "channel": 0}, {"type": "note_off", "time": 66, "note": 74, "velocity": 124, "channel": 0}, {"type": "note_on", "time": 101, "note": 79, "velocity": 123, "channel": 0}, {"type": "note_off", "time": 78, "note": 79, "velocity": 123, "channel": 0}, {"type": "note_on", "time": 113, "note": 72, "velocity": 126, "channel": 0}, {"type": "note_off", "time": 58, "note": 72, "velocity": 126, "channel": 0}, {"type": "note_on", "time": 3, "note": 73, "velocity": 122, "channel": 0}, {"type": "note_off", "time": 117, "note": 73, "velocity": 122, "channel": 0}, {"type": "note_on", "time": 19, "note": 70, "velocity": 103, "channel": 0}, {"type": "note_off", "time": 70, "note": 70, "velocity": 103, "channel": 0}, {"type": "note_on", "time": 3, "note": 72, "velocity": 119, "channel": 0}, {"type": "note_off", "time": 101, "note": 72, "velocity": 119, "channel": 0}, {"type": "note_on", "time": 23, "note": 70, "velocity": 108, "channel": 0}, {"type": "note_off", "time": 58, "note": 70, "velocity": 108, "channel": 0}, {"type": "note_on", "time": 7, "note": 67, "velocity": 113, "channel": 0}, {"type": "note_off", "time": 101, "note": 67, "velocity": 113, "channel": 0}, {"type": "note_on", "time": 19, "note": 65, "velocity": 107, "channel": 0}, {"type": "note_off", "time": 58, "note": 65, "velocity": 107, "channel": 0}, {"type": "note_on", "time": 39, "note": 70, "velocity": 104, "channel": 0}, {"type": "note_off", "time": 358, "note": 70, "velocity": 104, "channel": 0}, {"type": "note_on", "time": 15, "note": 67, "velocity": 112, "channel": 0}, {"type": "note_off", "time": 81, "note": 67, "velocity": 112, "channel": 0}, {"type": "note_on", "time": 35, "note": 65, "velocity": 112, "channel": 0}, {"type": "note_off", "time": 89, "note": 65, "velocity": 112, "channel": 0}, {"type": "note_on", "time": 105, "note": 65, "velocity": 113, "channel": 0}, {"type": "note_off", "time": 58, "note": 65, "velocity": 113, "channel": 0}, {"type": "end_of_track", "time": 0}]]}