{"ticks_per_beat": 192, "tracks": [[{"type": "note_on", "time": 0, "note": 73, "velocity": 87, "channel": 0}, {"type": "note_off", "time": 103, "note": 73, "velocity": 87, "channel": 0}, {"type": "note_on", "time": 21, "note": 70, "velocity": 54, "channel": 0}, {"type": "note_off", "time": 74, "note": 70, "velocity": 54, "channel": 0}, {"type": "note_on", "time": 7, "note": 72, "velocity": 89, "channel": 0}, {"type": "note_off", "time": 124, "note": 72, "velocity": 89, "channel": 0}, {"type": "note_on", "time": 63, "note": 73, "velocity": 97, "channel": 0}, {"type": "note_on", "time": 138, "note": 74, "velocity": 95, "channel": 0}, {"type": "note_off", "time": 0, "note": 73, "velocity": 97, "channel": 0}, {"type": "note_off", "time": 110, "note": 74, "velocity": 95, "channel": 0}, {"type": "note_on", "time": 74, "note": 75, "velocity": 99, "channel": 0}, {"type": "note_off", "time": 561, "note": 75, "velocity": 99, "channel": 0}, {"type": "note_on", "time": 10, "note": 72, "velocity": 110, "channel": 0}, {"type": "note_off", "time": 78, "note": 72, "velocity": 110, "channel": 0}, {"type": "note_on", "time": 3, "note": 75, "velocity": 108, "channel": 0}, {"type": "note_off", "time": 99, "note": 75, "velocity": 108, "channel": 0}, {"type": "note_on", "time": 17, "note": 72, "velocity": 109, "channel": 0}, {"type": "track_name", "name": "Melody", "time": 32}, {"type": "set_tempo", "tempo": 220588, "time": 0}, {"type": "key_signature", "key": "Ab", "time": 0}, {"type": "time_signature", "numerator": 4, "denominator": 4, "clocks_per_click": 24, "notated_32nd_notes_per_beat": 8, "time": 0}, {"type": "note_off", "time": 49, "note": 72, "velocity": 109, "channel": 0}, {"type": "note_on", "time": 10, "note": 70, "velocity": 99, "channel": 0}, {"type": "note_off", "time": 95, "note": 70, "velocity": 99, "channel": 0}, {"type": "note_on", "time": 14, "note": 68, "velocity": 108, "channel": 0}, {"type": "note_off", "time": 78, "note": 68, "velocity": 108, "channel": 0}, {"type": "note_on", "time": 17, "note": 65, "velocity": 111, "channel": 0}, {"type": "note_off", "time": 81, "note": 65, "velocity": 111, "channel": 0}, {"type": "note_on", "time": 21, "note": 68, "velocity": 106, "channel": 0}, {"type": "note_off", "time": 447, "note": 68, "velocity": 106, "channel": 0}, {"type": "note_on", "time": 10, "note": 65, "velocity": 121, "channel": 0}, {"type": "note_off", "time": 124, "note": 65, "velocity": 121, "channel": 0}, {"type": "note_on", "time": 14, "note": 68, "velocity": 108, "channel": 0}, {"type": "note_off", "time": 309, "note": 68, "velocity": 108, "channel": 0}, {"type": "note_on", "time": 450, "note": 68, "velocity": 114, "channel": 0}, {"type": "note_off", "time": 90, "note": 68, "velocity": 114, "channel": 0}, {"type": "note_on", "time": 5, "note": 65, "velocity": 116, "channel": 0}, {"type": "note_off", "time": 75, "note": 65, "velocity": 116, "channel": 0}, {"type": "note_on", "time": 0, "note": 68, "velocity": 112, "channel": 0}, {"type": "note_off", "time": 65, "note": 68, "velocity": 112, "channel": 0}, {"type": "note_on", "time": 0, "note": 65, "velocity": 116, "channel": 0}, {"type": "note_off", "time": 70, "note": 65, "velocity": 116, "channel": 0}, {"type": "note_on", "time": 5, "note": 61, "velocity": 125, "channel": 0}, {"type": "note_off", "time": 80, "note": 61, "velocity": 125, "channel": 0}, {"type": "note_on", "time": 10, "note": 68, "velocity": 119, "channel": 0}, {"type": "note_off", "time": 96, "note": 68, "velocity": 119, "channel": 0}, {"type": "note_on", "time": 5, "note": 65, "velocity": 117, "channel": 0}, {"type": "note_off", "time": 55, "note": 65, "velocity": 117, "channel": 0}, {"type": "note_on", "time": 0, "note": 68, "velocity": 113, "channel": 0}, {"type": "note_off", "time": 40, "note": 68, "velocity": 113, "channel": 0}, {"type": "note_on", "time": 0, "note": 65, "velocity": 118, "channel": 0}, {"type": "note_off", "time": 90, "note": 65, "velocity": 118, "channel": 0}, {"type": "note_on", "time": 0, "note": 61, "velocity": 127, "channel": 0}, {"type": "note_off", "time": 90, "note": 61, "velocity": 127, "channel": 0}, {"type": "note_on", "time": 10, "note": 68, "velocity": 114, "channel": 0}, {"type": "note_on", "time": 80, "note": 65, "velocity": 113, "channel": 0}, {"type": "note_off", "time": 0, "note": 68, "velocity": 114, "channel": 0}, {"type": "note_off", "time": 60, "note": 65, "velocity": 113, "channel": 0}, {"type": "note_on", "time": 15, "note": 68, "velocity": 111, "channel": 0}, {"type": "note_off", "time": 35, "note": 68, "velocity": 111, "channel": 0}, {"type": "note_on", "time": 0, "note": 65, "velocity": 116, "channel": 0}, {"type": "note_off", "time": 65, "note": 65, "velocity": 116, "channel": 0}, {"type": "note_on", "time": 20, "note": 61, "velocity": 126, "channel": 0}, {"type": "note_off", "time": 85, "note": 61, "velocity": 126, "channel": 0}, {"type": "note_on", "time": 5, "note": 68, "velocity": 116, "channel": 0}, {"type": "note_off", "time": 65, "note": 68, "velocity": 116, "channel": 0}, {"type": "note_on", "time": 10, "note": 65, "velocity": 113, "channel": 0}, {"type": "note_off", "time": 40, "note": 65, "velocity": 113, "channel": 0}, {"type": "note_on", "time": 15, "note": 68, "velocity": 108, "channel": 0}, {"type": "note_on", "time": 55, "note": 65, "velocity": 114, "channel": 0}, {"type": "note_off", "time": 0, "note": 68, "velocity": 108, "channel": 0}, {"type": "note_off", "time": 70, "note": 65, "velocity": 114, "channel": 0}, {"type": "note_on", "time": 10, "note": 61, "velocity": 126, "channel": 0}, {"type": "note_off", "time": 96, "note": 61, "velocity": 126, "channel": 0}, {"type": "note_on", "time": 15, "note": 68, "velocity": 112, "channel": 0}, {"type": "note_off", "time": 80, "note": 68, "velocity": 112, "channel": 0}, {"type": "note_on", "time": 5, "note": 65, "velocity": 113, "channel": 0}, {"type": "note_off", "time": 45, "note": 65, "velocity": 113, "channel": 0}, {"type": "note_on", "time": 10, "note": 68, "velocity": 110, "channel": 0}, {"type": "note_off", "time": 45, "note": 68, "velocity": 110, "channel": 0}, {"type": "note_on", "time": 0, "note": 65, "velocity": 115, "channel": 0}, {"type": "note_off", "time": 80, "note": 65, "velocity": 115, "channel": 0}, {"type": "note_on", "time": 10, "note": 61, "velocity": 125, "channel": 0}, {"type": "note_off", "time": 75, "note": 61, "velocity": 125, "channel": 0}, {"type": "note_on", "time": 15, "note": 68, "velocity": 115, "channel": 0}, {"type": "note_off", "time": 70, "note": 68, "velocity": 115, "channel": 0}, {"type": "note_on", "time": 15, "note": 65, "velocity": 116, "channel": 0}, {"type": "note_off", "time": 55, "note": 65, "velocity": 116, "channel": 0}, {"type": "note_on", "time": 10, "note": 68, "velocity": 110, "channel": 0}, {"type": "note_off", "time": 42, "note": 68, "velocity": 110, "channel": 0}, {"type": "note_on", "time": 7, "note": 65, "velocity": 118, "channel": 0}, {"type": "note_off", "time": 78, "note": 65, "velocity": 118, "channel": 0}, {"type": "note_on", "time": 7, "note": 61, "velocity": 124, "channel": 0}, {"type": "note_off", "time": 88, "note": 61, "velocity": 124, "channel": 0}, {"type": "note_on", "time": 3, "note": 68, "velocity": 116, "channel": 0}, {"type": "note_off", "time": 88, "note": 68, "velocity": 116, "channel": 0}, {"type": "note_on", "time": 7, "note": 65, "velocity": 113, "channel": 0}, {"type": "note_off", "time": 63, "note": 65, "velocity": 113, "channel": 0}, {"type": "note_on", "time": 0, "note": 68, "velocity": 111, "channel": 0}, {"type": "note_off", "time": 49, "note": 68, "velocity": 111, "channel": 0}, {"type": "note_on", "time": 0, "note": 65, "velocity": 117, "channel": 0}, {"type": "note_off", "time": 71, "note": 65, "velocity": 117, "channel": 0}, {"type": "note_on", "time": 0, "note": 61, "velocity": 125, "channel": 0}, {"type": "note_off", "time": 103, "note": 61, "velocity": 125, "channel": 0}, {"type": "note_on", "time": 7, "note": 68, "velocity": 117, "channel": 0}, {"type": "note_off", "time": 81, "note": 68, "velocity": 117, "channel": 0}, {"type": "note_on", "time": 3, "note": 65, "velocity": 111, "channel": 0}, {"type": "note_off", "time": 49, "note": 65, "velocity": 111, "channel": 0}, {"type": "note_on", "time": 0, "note": 68, "velocity": 109, "channel": 0}, {"type": "note_off", "time": 63, "note": 68, "velocity": 109, "channel": 0}, {"type": "note_on", "time": 0, "note": 65, "velocity": 113, "channel": 0}, {"type": "note_off", "time": 74, "note": 65, "velocity": 113, "channel": 0}, {"type": "note_on", "time": 10, "note": 60, "velocity": 123, "channel": 0}, {"type": "note_off", "time": 99, "note": 60, "velocity": 123, "channel": 0}, {"type": "note_on", "time": 0, "note": 68, "velocity": 116, "channel": 0}, {"type": "note_off", "time": 78, "note": 68, "velocity": 116, "channel": 0}, {"type": "note_on", "time": 10, "note": 65, "velocity": 112, "channel": 0}, {"type": "note_off", "time": 53, "note": 65, "velocity": 112, "channel": 0}, {"type": "note_on", "time": 3, "note": 68, "velocity": 108, "channel": 0}, {"type": "note_off", "time": 49, "note": 68, "velocity": 108, "channel": 0}, {"type": "note_on", "time": 0, "note": 65, "velocity": 115, "channel": 0}, {"type": "note_off", "time": 78, "note": 65, "velocity": 115, "channel": 0}, {"type": "note_on", "time": 0, "note": 62, "velocity": 122, "channel": 0}, {"type": "note_off", "time": 92, "note": 62, "velocity": 122, "channel": 0}, {"type": "note_on", "time": 10, "note": 68, "velocity": 116, "channel": 0}, {"type": "note_off", "time": 78, "note": 68, "velocity": 116, "channel": 0}, {"type": "note_on", "time": 7, "note": 65, "velocity": 116, "channel": 0}, {"type": "note_off", "time": 53, "note": 65, "velocity": 116, "channel": 0}, {"type": "note_on", "time": 0, "note": 68, "velocity": 112, "channel": 0}, {"type": "note_off", "time": 63, "note": 68, "velocity": 112, "channel": 0}, {"type": "note_on", "time": 0, "note": 65, "velocity": 115, "channel": 0}, {"type": "note_off", "time": 85, "note": 65, "velocity": 115, "channel": 0}, {"type": "note_on", "time": 7, "note": 60, "velocity": 117, "channel": 0}, {"type": "note_off", "time": 99, "note": 60, "velocity": 117, "channel": 0}, {"type": "note_on", "time": 0, "note": 68, "velocity": 116, "channel": 0}, {"type": "note_on", "time": 78, "note": 65, "velocity": 111, "channel": 0}, {"type": "note_off", "time": 0, "note": 68, "velocity": 116, "channel": 0}, {"type": "note_off", "time": 56, "note": 65, "velocity": 111, "channel": 0}, {"type": "note_on", "time": 0, "note": 68, "velocity": 111, "channel": 0}, {"type": "note_on", "time": 53, "note": 65, "velocity": 115, "channel": 0}, {"type": "note_off", "time": 0, "note": 68, "velocity": 111, "channel": 0}, {"type": "note_off", "time": 85, "note": 65, "velocity": 115, "channel": 0}, {"type": "note_on", "time": 7, "note": 62, "velocity": 121, "channel": 0}, {"type": "note_off", "time": 92, "note": 62, "velocity": 121, "channel": 0}, {"type": "note_on", "time": 3, "note": 68, "velocity": 117, "channel": 0}, {"type": "note_off", "time": 88, "note": 68, "velocity": 117, "channel": 0}, {"type": "note_on", "time": 0, "note": 65, "velocity": 112, "channel": 0}, {"type": "note_off", "time": 56, "note": 65, "velocity": 112, "channel": 0}, {"type": "note_on", "time": 0, "note": 68, "velocity": 108, "channel": 0}, {"type": "note_off", "time": 49, "note": 68, "velocity": 108, "channel": 0}, {"type": "note_on", "time": 0, "note": 65, "velocity": 115, "channel": 0}, {"type": "note_off", "time": 53, "note": 65, "velocity": 115, "channel": 0}, {"type": "note_on", "time": 3, "note": 61, "velocity": 121, "channel": 0}, {"type": "note_off", "time": 81, "note": 61, "velocity": 121, "channel": 0}, {"type": "note_on", "time": 0, "note": 68, "velocity": 117, "channel": 0}, {"type": "note_off", "time": 88, "note": 68, "velocity": 117, "channel": 0}, {"type": "note_on", "time": 7, "note": 65, "velocity": 114, "channel": 0}, {"type": "note_off", "time": 63, "note": 65, "velocity": 114, "channel": 0}, {"type": "note_on", "time": 0, "note": 68, "velocity": 109, "channel": 0}, {"type": "note_on", "time": 35, "note": 65, "velocity": 114, "channel": 0}, {"type": "note_off", "time": 0, "note": 68, "velocity": 109, "channel": 0}, {"type": "note_off", "time": 78, "note": 65, "velocity": 114, "channel": 0}, {"type": "note_on", "time": 3, "note": 62, "velocity": 121, "channel": 0}, {"type": "note_off", "time": 99, "note": 62, "velocity": 121, "channel": 0}, {"type": "note_on", "time": 0, "note": 68, "velocity": 117, "channel": 0}, {"type": "note_off", "time": 63, "note": 68, "velocity": 117, "channel": 0}, {"type": "note_on", "time": 17, "note": 65, "velocity": 114, "channel": 0}, {"type": "note_off", "time": 46, "note": 65, "velocity": 114, "channel": 0}, {"type": "note_on", "time": 14, "note": 68, "velocity": 106, "channel": 0}, {"type": "note_on", "time": 49, "note": 65, "velocity": 114, "channel": 0}, {"type": "note_off", "time": 0, "note": 68, "velocity": 106, "channel": 0}, {"type": "note_off", "time": 81, "note": 65, "velocity": 114, "channel": 0}, {"type": "note_on", "time": 7, "note": 60, "velocity": 125, "channel": 0}, {"type": "note_off", "time": 99, "note": 60, "velocity": 125, "channel": 0}, {"type": "note_on", "time": 7, "note": 68, "velocity": 118, "channel": 0}, {"type": "note_off", "time": 92, "note": 68, "velocity": 118, "channel": 0}, {"type": "note_on", "time": 0, "note": 65, "velocity": 109, "channel": 0}, {"type": "note_off", "time": 49, "note": 65, "velocity": 109, "channel": 0}, {"type": "note_on", "time": 3, "note": 68, "velocity": 112, "channel": 0}, {"type": "note_off", "time": 56, "note": 68, "velocity": 112, "channel": 0}, {"type": "note_on", "time": 3, "note": 65, "velocity": 119, "channel": 0}, {"type": "note_off", "time": 49, "note": 65, "velocity": 119, "channel": 0}, {"type": "note_on", "time": 0, "note": 62, "velocity": 120, "channel": 0}, {"type": "note_off", "time": 71, "note": 62, "velocity": 120, "channel": 0}, {"type": "note_on", "time": 344, "note": 63, "velocity": 121, "channel": 0}, {"type": "note_off", "time": 99, "note": 63, "velocity": 121, "channel": 0}, {"type": "note_on", "time": 0, "note": 65, "velocity": 120, "channel": 0}, {"type": "note_off", "time": 95, "note": 65, "velocity": 120, "channel": 0}, {"type": "note_on", "time": 0, "note": 63, "velocity": 118, "channel": 0}, {"type": "note_off", "time": 85, "note": 63, "velocity": 118, "channel": 0}, {"type": "note_on", "time": 7, "note": 65, "velocity": 118, "channel": 0}, {"type": "note_off", "time": 92, "note": 65, "velocity": 118, "channel": 0}, {"type": "note_on", "time": 10, "note": 60, "velocity": 120, "channel": 0}, {"type": "note_off", "time": 99, "note": 60, "velocity": 120, "channel": 0}, {"type": "note_on", "time": 0, "note": 63, "velocity": 118, "channel": 0}, {"type": "note_on", "time": 74, "note": 65, "velocity": 116, "channel": 0}, {"type": "note_off", "time": 0, "note": 63, "velocity": 118, "channel": 0}, {"type": "note_off", "time": 88, "note": 65, "velocity": 116, "channel": 0}, {"type": "note_on", "time": 0, "note": 68, "velocity": 112, "channel": 0}, {"type": "note_off", "time": 78, "note": 68, "velocity": 112, "channel": 0}, {"type": "note_on", "time": 7, "note": 72, "velocity": 123, "channel": 0}, {"type": "note_off", "time": 103, "note": 72, "velocity": 123, "channel": 0}, {"type": "note_on", "time": 3, "note": 75, "velocity": 121, "channel": 0}, {"type": "note_off", "time": 95, "note": 75, "velocity": 121, "channel": 0}, {"type": "note_on", "time": 3, "note": 77, "velocity": 121, "channel": 0}, {"type": "note_off", "time": 78, "note": 77, "velocity": 121, "channel": 0}, {"type": "note_on", "time": 7, "note": 80, "velocity": 120, "channel": 0}, {"type": "note_off", "time": 78, "note": 80, "velocity": 120, "channel": 0}, {"type": "note_on", "time": 7, "note": 77, "velocity": 121, "channel": 0}, {"type": "note_off", "time": 88, "note": 77, "velocity": 121, "channel": 0}, {"type": "note_on", "time": 0, "note": 75, "velocity": 123, "channel": 0}, {"type": "note_off", "time": 95, "note": 75, "velocity": 123, "channel": 0}, {"type": "note_on", "time": 3, "note": 72, "velocity": 122, "channel": 0}, {"type": "note_off", "time": 88, "note": 72, "velocity": 122, "channel": 0}, {"type": "note_on", "time": 7, "note": 68, "velocity": 114, "channel": 0}, {"type": "note_off", "time": 81, "note": 68, "velocity": 114, "channel": 0}, {"type": "note_on", "time": 3, "note": 72, "velocity": 114, "channel": 0}, {"type": "note_off", "time": 408, "note": 72, "velocity": 114, "channel": 0}, {"type": "note_on", "time": 74, "note": 79, "velocity": 117, "channel": 0}, {"type": "note_off", "time": 834, "note": 79, "velocity": 117, "channel": 0}, {"type": "note_on", "time": 10, "note": 77, "velocity": 123, "channel": 0}, {"type": "note_off", "time": 135, "note": 77, "velocity": 123, "channel": 0}, {"type": "note_on", "time": 3, "note": 79, "velocity": 118, "channel": 0}, {"type": "note_off", "time": 120, "note": 79, "velocity": 118, "channel": 0}, {"type": "note_on", "time": 7, "note": 80, "velocity": 120, "channel": 0}, {"type": "note_off", "time": 120, "note": 80, "velocity": 120, "channel": 0}, {"type": "note_on", "time": 14, "note": 76, "velocity": 122, "channel": 0}, {"type": "note_off", "time": 113, "note": 76, "velocity": 122, "channel": 0}, {"type": "note_on", "time": 3, "note": 79, "velocity": 121, "channel": 0}, {"type": "note_off", "time": 145, "note": 79, "velocity": 121, "channel": 0}, {"type": "note_on", "time": 46, "note": 76, "velocity": 121, "channel": 0}, {"type": "note_off", "time": 195, "note": 76, "velocity": 121, "channel": 0}, {"type": "note_on", "time": 6, "note": 78, "velocity": 119, "channel": 0}, {"type": "note_off", "time": 142, "note": 78, "velocity": 119, "channel": 0}, {"type": "note_on", "time": 4, "note": 79, "velocity": 116, "channel": 0}, {"type": "note_off", "time": 625, "note": 79, "velocity": 116, "channel": 0}, {"type": "note_on", "time": 14, "note": 70, "velocity": 106, "channel": 0}, {"type": "note_off", "time": 63, "note": 70, "velocity": 106, "channel": 0}, {"type": "note_on", "time": 10, "note": 76, "velocity": 119, "channel": 0}, {"type": "note_off", "time": 110, "note": 76, "velocity": 119, "channel": 0}, {"type": "note_on", "time": 3, "note": 77, "velocity": 122, "channel": 0}, {"type": "note_off", "time": 78, "note": 77, "velocity": 122, "channel": 0}, {"type": "note_on", "time": 14, "note": 73, "velocity": 123, "channel": 0}, {"type": "note_off", "time": 99, "note": 73, "velocity": 123, "channel": 0}, {"type": "note_on", "time": 10, "note": 70, "velocity": 109, "channel": 0}, {"type": "note_off", "time": 67, "note": 70, "velocity": 109, "channel": 0}, {"type": "note_on", "time": 7, "note": 67, "velocity": 112, "channel": 0}, {"type": "note_off", "time": 88, "note": 67, "velocity": 112, "channel": 0}, {"type": "note_on", "time": 10, "note": 65, "velocity": 117, "channel": 0}, {"type": "note_off", "time": 71, "note": 65, "velocity": 117, "channel": 0}, {"type": "note_on", "time": 7, "note": 61, "velocity": 111, "channel": 0}, {"type": "note_off", "time": 103, "note": 61, "velocity": 111, "channel": 0}, {"type": "note_on", "time": 0, "note": 63, "velocity": 119, "channel": 0}, {"type": "note_off", "time": 99, "note": 63, "velocity": 119, "channel": 0}, {"type": "note_on", "time": 10, "note": 65, "velocity": 111, "channel": 0}, {"type": "note_off", "time": 273, "note": 65, "velocity": 111, "channel": 0}, {"type": "note_on", "time": 3, "note": 67, "velocity": 111, "channel": 0}, {"type": "note_off", "time": 85, "note": 67, "velocity": 111, "channel": 0}, {"type": "note_on", "time": 493, "note": 68, "velocity": 108, "channel": 0}, {"type": "note_off", "time": 71, "note": 68, "velocity": 108, "channel": 0}, {"type": "note_on", "time": 17, "note": 65, "velocity": 116, "channel": 0}, {"type": "note_off", "time": 78, "note": 65, "velocity": 116, "channel": 0}, {"type": "note_on", "time": 10, "note": 68, "velocity": 107, "channel": 0}, {"type": "note_off", "time": 49, "note": 68, "velocity": 107, "channel": 0}, {"type": "note_on", "time": 3, "note": 65, "velocity": 117, "channel": 0}, {"type": "note_off", "time": 56, "note": 65, "velocity": 117, "channel": 0}, {"type": "note_on", "time": 0, "note": 61, "velocity": 123, "channel": 0}, {"type": "note_on", "time": 103, "note": 68, "velocity": 116, "channel": 0}, {"type": "note_off", "time": 0, "note": 61, "velocity": 123, "channel": 0}, {"type": "note_off", "time": 99, "note": 68, "velocity": 116, "channel": 0}, {"type": "note_on", "time": 3, "note": 65, "velocity": 111, "channel": 0}, {"type": "note_off", "time": 42, "note": 65, "velocity": 111, "channel": 0}, {"type": "note_on", "time": 7, "note": 68, "velocity": 105, "channel": 0}, {"type": "note_off", "time": 42, "note": 68, "velocity": 105, "channel": 0}, {"type": "note_on", "time": 3, "note": 65, "velocity": 111, "channel": 0}, {"type": "note_off", "time": 81, "note": 65, "velocity": 111, "channel": 0}, {"type": "note_on", "time": 3, "note": 61, "velocity": 121, "channel": 0}, {"type": "note_off", "time": 81, "note": 61, "velocity": 121, "channel": 0}, {"type": "note_on", "time": 10, "note": 68, "velocity": 117, "channel": 0}, {"type": "note_off", "time": 81, "note": 68, "velocity": 117, "channel": 0}, {"type": "note_on", "time": 10, "note": 65, "velocity": 113, "channel": 0}, {"type": "note_off", "time": 53, "note": 65, "velocity": 113, "channel": 0}, {"type": "note_on", "time": 0, "note": 68, "velocity": 110, "channel": 0}, {"type": "note_off", "time": 56, "note": 68, "velocity": 110, "channel": 0}, {"type": "note_on", "time": 3, "note": 65, "velocity": 115, "channel": 0}, {"type": "note_off", "time": 74, "note": 65, "velocity": 115, "channel": 0}, {"type": "note_on", "time": 3, "note": 61, "velocity": 123, "channel": 0}, {"type": "note_off", "time": 103, "note": 61, "velocity": 123, "channel": 0}, {"type": "note_on", "time": 3, "note": 68, "velocity": 113, "channel": 0}, {"type": "note_off", "time": 78, "note": 68, "velocity": 113, "channel": 0}, {"type": "note_on", "time": 10, "note": 65, "velocity": 113, "channel": 0}, {"type": "note_off", "time": 63, "note": 65, "velocity": 113, "channel": 0}, {"type": "note_on", "time": 0, "note": 68, "velocity": 108, "channel": 0}, {"type": "note_off", "time": 28, "note": 68, "velocity": 108, "channel": 0}, {"type": "note_on", "time": 7, "note": 65, "velocity": 110, "channel": 0}, {"type": "note_off", "time": 85, "note": 65, "velocity": 110, "channel": 0}, {"type": "note_on", "time": 3, "note": 61, "velocity": 120, "channel": 0}, {"type": "note_off", "time": 95, "note": 61, "velocity": 120, "channel": 0}, {"type": "note_on", "time": 3, "note": 68, "velocity": 116, "channel": 0}, {"type": "note_off", "time": 78, "note": 68, "velocity": 116, "channel": 0}, {"type": "note_on", "time": 3, "note": 65, "velocity": 116, "channel": 0}, {"type": "note_off", "time": 60, "note": 65, "velocity": 116, "channel": 0}, {"type": "note_on", "time": 0, "note": 68, "velocity": 107, "channel": 0}, {"type": "note_off", "time": 42, "note": 68, "velocity": 107, "channel": 0}, {"type": "note_on", "time": 0, "note": 65, "velocity": 116, "channel": 0}, {"type": "note_off", "time": 88, "note": 65, "velocity": 116, "channel": 0}, {"type": "note_on", "time": 7, "note": 61, "velocity": 123, "channel": 0}, {"type": "note_off", "time": 85, "note": 61, "velocity": 123, "channel": 0}, {"type": "note_on", "time": 0, "note": 68, "velocity": 115, "channel": 0}, {"type": "note_off", "time": 81, "note": 68, "velocity": 115, "channel": 0}, {"type": "note_on", "time": 3, "note": 65, "velocity": 115, "channel": 0}, {"type": "note_off", "time": 63, "note": 65, "velocity": 115, "channel": 0}, {"type": "note_on", "time": 3, "note": 68, "velocity": 110, "channel": 0}, {"type": "note_off", "time": 49, "note": 68, "velocity": 110, "channel": 0}, {"type": "note_on", "time": 0, "note": 65, "velocity": 113, "channel": 0}, {"type": "note_off", "time": 88, "note": 65, "velocity": 113, "channel": 0}, {"type": "note_on", "time": 7, "note": 61, "velocity": 122, "channel": 0}, {"type": "note_off", "time": 85, "note": 61, "velocity": 122, "channel": 0}, {"type": "note_on", "time": 3, "note": 68, "velocity": 113, "channel": 0}, {"type": "note_on", "time": 92, "note": 65, "velocity": 114, "channel": 0}, {"type": "note_off", "time": 0, "note": 68, "velocity": 113, "channel": 0}, {"type": "note_off", "time": 60, "note": 65, "velocity": 114, "channel": 0}, {"type": "note_on", "time": 0, "note": 68, "velocity": 112, "channel": 0}, {"type": "note_off", "time": 35, "note": 68, "velocity": 112, "channel": 0}, {"type": "note_on", "time": 10, "note": 65, "velocity": 112, "channel": 0}, {"type": "note_off", "time": 85, "note": 65, "velocity": 112, "channel": 0}, {"type": "note_on", "time": 0, "note": 61, "velocity": 123, "channel": 0}, {"type": "note_off", "time": 92, "note": 61, "velocity": 123, "channel": 0}, {"type": "note_on", "time": 3, "note": 68, "velocity": 114, "channel": 0}, {"type": "note_off", "time": 81, "note": 68, "velocity": 114, "channel": 0}, {"type": "note_on", "time": 0, "note": 65, "velocity": 111, "channel": 0}, {"type": "note_off", "time": 56, "note": 65, "velocity": 111, "channel": 0}, {"type": "note_on", "time": 3, "note": 68, "velocity": 113, "channel": 0}, {"type": "note_off", "time": 46, "note": 68, "velocity": 113, "channel": 0}, {"type": "note_on", "time": 7, "note": 65, "velocity": 113, "channel": 0}, {"type": "note_off", "time": 81, "note": 65, "velocity": 113, "channel": 0}, {"type": "note_on", "time": 7, "note": 60, "velocity": 126, "channel": 0}, {"type": "note_off", "time": 110, "note": 60, "velocity": 126, "channel": 0}, {"type": "note_on", "time": 0, "note": 68, "velocity": 115, "channel": 0}, {"type": "note_off", "time": 92, "note": 68, "velocity": 115, "channel": 0}, {"type": "note_on", "time": 0, "note": 65, "velocity": 113, "channel": 0}, {"type": "note_off", "time": 42, "note": 65, "velocity": 113, "channel": 0}, {"type": "note_on", "time": 7, "note": 68, "velocity": 110, "channel": 0}, {"type": "note_off", "time": 46, "note": 68, "velocity": 110, "channel": 0}, {"type": "note_on", "time": 0, "note": 65, "velocity": 113, "channel": 0}, {"type": "note_off", "time": 85, "note": 65, "velocity": 113, "channel": 0}, {"type": "note_on", "time": 3, "note": 62, "velocity": 125, "channel": 0}, {"type": "note_off", "time": 95, "note": 62, "velocity": 125, "channel": 0}, {"type": "note_on", "time": 10, "note": 68, "velocity": 114, "channel": 0}, {"type": "note_off", "time": 74, "note": 68, "velocity": 114, "channel": 0}, {"type": "note_on", "time": 0, "note": 65, "velocity": 116, "channel": 0}, {"type": "note_off", "time": 60, "note": 65, "velocity": 116, "channel": 0}, {"type": "note_on", "time": 0, "note": 68, "velocity": 110, "channel": 0}, {"type": "note_on", "time": 49, "note": 65, "velocity": 112, "channel": 0}, {"type": "note_off", "time": 0, "note": 68, "velocity": 110, "channel": 0}, {"type": "note_off", "time": 85, "note": 65, "velocity": 112, "channel": 0}, {"type": "note_on", "time": 3, "note": 60, "velocity": 123, "channel": 0}, {"type": "note_off", "time": 106, "note": 60, "velocity": 123, "channel": 0}, {"type": "note_on", "time": 3, "note": 68, "velocity": 113, "channel": 0}, {"type": "note_off", "time": 88, "note": 68, "velocity": 113, "channel": 0}, {"type": "note_on", "time": 3, "note": 65, "velocity": 114, "channel": 0}, {"type": "note_off", "time": 49, "note": 65, "velocity": 114, "channel": 0}, {"type": "note_on", "time": 0, "note": 68, "velocity": 110, "channel": 0}, {"type": "note_off", "time": 42, "note": 68, "velocity": 110, "channel": 0}, {"type": "note_on", "time": 0, "note": 65, "velocity": 113, "channel": 0}, {"type": "note_off", "time": 78, "note": 65, "velocity": 113, "channel": 0}, {"type": "note_on", "time": 10, "note": 62, "velocity": 122, "channel": 0}, {"type": "note_off", "time": 92, "note": 62, "velocity": 122, "channel": 0}, {"type": "note_on", "time": 7, "note": 68, "velocity": 114, "channel": 0}, {"type": "note_off", "time": 67, "note": 68, "velocity": 114, "channel": 0}, {"type": "note_on", "time": 3, "note": 65, "velocity": 117, "channel": 0}, {"type": "note_off", "time": 74, "note": 65, "velocity": 117, "channel": 0}, {"type": "note_on", "time": 0, "note": 68, "velocity": 112, "channel": 0}, {"type": "note_off", "time": 28, "note": 68, "velocity": 112, "channel": 0}, {"type": "note_on", "time": 3, "note": 65, "velocity": 114, "channel": 0}, {"type": "note_off", "time": 88, "note": 65, "velocity": 114, "channel": 0}, {"type": "note_on", "time": 14, "note": 60, "velocity": 124, "channel": 0}, {"type": "note_off", "time": 103, "note": 60, "velocity": 124, "channel": 0}, {"type": "note_on", "time": 3, "note": 68, "velocity": 117, "channel": 0}, {"type": "note_off", "time": 85, "note": 68, "velocity": 117, "channel": 0}, {"type": "note_on", "time": 3, "note": 65, "velocity": 112, "channel": 0}, {"type": "note_off", "time": 56, "note": 65, "velocity": 112, "channel": 0}, {"type": "note_on", "time": 0, "note": 68, "velocity": 109, "channel": 0}, {"type": "note_off", "time": 46, "note": 68, "velocity": 109, "channel": 0}, {"type": "note_on", "time": 0, "note": 65, "velocity": 114, "channel": 0}, {"type": "note_off", "time": 71, "note": 65, "velocity": 114, "channel": 0}, {"type": "note_on", "time": 14, "note": 62, "velocity": 123, "channel": 0}, {"type": "note_off", "time": 88, "note": 62, "velocity": 123, "channel": 0}, {"type": "note_on", "time": 10, "note": 68, "velocity": 116, "channel": 0}, {"type": "note_off", "time": 81, "note": 68, "velocity": 116, "channel": 0}, {"type": "note_on", "time": 0, "note": 65, "velocity": 114, "channel": 0}, {"type": "note_off", "time": 60, "note": 65, "velocity": 114, "channel": 0}, {"type": "note_on", "time": 3, "note": 68, "velocity": 112, "channel": 0}, {"type": "note_off", "time": 42, "note": 68, "velocity": 112, "channel": 0}, {"type": "note_on", "time": 0, "note": 65, "velocity": 116, "channel": 0}, {"type": "note_off", "time": 92, "note": 65, "velocity": 116, "channel": 0}, {"type": "note_on", "time": 0, "note": 60, "velocity": 121, "channel": 0}, {"type": "note_off", "time": 92, "note": 60, "velocity": 121, "channel": 0}, {"type": "note_on", "time": 0, "note": 68, "velocity": 118, "channel": 0}, {"type": "note_off", "time": 71, "note": 68, "velocity": 118, "channel": 0}, {"type": "note_on", "time": 7, "note": 65, "velocity": 113, "channel": 0}, {"type": "note_off", "time": 42, "note": 65, "velocity": 113, "channel": 0}, {"type": "note_on", "time": 3, "note": 68, "velocity": 114, "channel": 0}, {"type": "note_off", "time": 67, "note": 68, "velocity": 114, "channel": 0}, {"type": "note_on", "time": 3, "note": 65, "velocity": 119, "channel": 0}, {"type": "note_off", "time": 60, "note": 65, "velocity": 119, "channel": 0}, {"type": "note_on", "time": 3, "note": 62, "velocity": 120, "channel": 0}, {"type": "note_off", "time": 74, "note": 62, "velocity": 120, "channel": 0}, {"type": "note_on", "time": 294, "note": 75, "velocity": 120, "channel": 0}, {"type": "note_off", "time": 301, "note": 75, "velocity": 120, "channel": 0}, {"type": "note_on", "time": 10, "note": 72, "velocity": 117, "channel": 0}, {"type": "note_off", "time": 81, "note": 72, "velocity": 117, "channel": 0}, {"type": "note_on", "time": 0, "note": 75, "velocity": 121, "channel": 0}, {"type": "note_off", "time": 110, "note": 75, "velocity": 121, "channel": 0}, {"type": "note_on", "time": 0, "note": 72, "velocity": 116, "channel": 0}, {"type": "note_off", "time": 99, "note": 72, "velocity": 116, "channel": 0}, {"type": "note_on", "time": 71, "note": 77, "velocity": 114, "channel": 0}, {"type": "note_off", "time": 369, "note": 77, "velocity": 114, "channel": 0}, {"type": "note_on", "time": 3, "note": 75, "velocity": 121, "channel": 0}, {"type": "note_off", "time": 56, "note": 75, "velocity": 121, "channel": 0}, {"type": "note_on", "time": 3, "note": 77, "velocity": 119, "channel": 0}, {"type": "note_on", "time": 56, "note": 75, "velocity": 121, "channel": 0}, {"type": "note_off", "time": 0, "note": 77, "velocity": 119, "channel": 0}, {"type": "note_off", "time": 88, "note": 75, "velocity": 121, "channel": 0}, {"type": "note_on", "time": 0, "note": 72, "velocity": 116, "channel": 0}, {"type": "note_off", "time": 88, "note": 72, "velocity": 116, "channel": 0}, {"type": "note_on", "time": 95, "note": 73, "velocity": 120, "channel": 0}, {"type": "note_off", "time": 110, "note": 73, "velocity": 120, "channel": 0}, {"type": "note_on", "time": 85, "note": 73, "velocity": 115, "channel": 0}, {"type": "note_off", "time": 113, "note": 73, "velocity": 115, "channel": 0}, {"type": "note_on", "time": 71, "note": 73, "velocity": 125, "channel": 0}, {"type": "note_off", "time": 92, "note": 73, "velocity": 125, "channel": 0}, {"type": "note_on", "time": 10, "note": 72, "velocity": 122, "channel": 0}, {"type": "note_off", "time": 103, "note": 72, "velocity": 122, "channel": 0}, {"type": "note_on", "time": 10, "note": 73, "velocity": 115, "channel": 0}, {"type": "note_off", "time": 124, "note": 73, "velocity": 115, "channel": 0}, {"type": "note_on", "time": 78, "note": 70, "velocity": 107, "channel": 0}, {"type": "note_off", "time": 422, "note": 70, "velocity": 107, "channel": 0}, {"type": "note_on", "time": 369, "note": 73, "velocity": 124, "channel": 0}, {"type": "note_off", "time": 99, "note": 73, "velocity": 124, "channel": 0}, {"type": "note_on", "time": 103, "note": 72, "velocity": 120, "channel": 0}, {"type": "note_off", "time": 110, "note": 72, "velocity": 120, "channel": 0}, {"type": "note_on", "time": 67, "note": 73, "velocity": 123, "channel": 0}, {"type": "note_off", "time": 131, "note": 73, "velocity": 123, "channel": 0}, {"type": "note_on", "time": 14, "note": 74, "velocity": 121, "channel": 0}, {"type": "note_off", "time": 113, "note": 74, "velocity": 121, "channel": 0}, {"type": "note_on", "time": 46, "note": 75, "velocity": 116, "channel": 0}, {"type": "note_off", "time": 749, "note": 75, "velocity": 116, "channel": 0}, {"type": "note_on", "time": 7, "note": 72, "velocity": 118, "channel": 0}, {"type": "note_off", "time": 92, "note": 72, "velocity": 118, "channel": 0}, {"type": "note_on", "time": 0, "note": 70, "velocity": 110, "channel": 0}, {"type": "note_off", "time": 103, "note": 70, "velocity": 110, "channel": 0}, {"type": "note_on", "time": 7, "note": 68, "velocity": 116, "channel": 0}, {"type": "note_off", "time": 81, "note": 68, "velocity": 116, "channel": 0}, {"type": "note_on", "time": 0, "note": 65, "velocity": 102, "channel": 0}, {"type": "note_off", "time": 106, "note": 65, "velocity": 102, "channel": 0}, {"type": "note_on", "time": 124, "note": 68, "velocity": 111, "channel": 0}, {"type": "note_off", "time": 145, "note": 68, "velocity": 111, "channel": 0}, {"type": "note_on", "time": 7, "note": 65, "velocity": 114, "channel": 0}, {"type": "note_off", "time": 63, "note": 65, "velocity": 114, "channel": 0}, {"type": "note_on", "time": 110, "note": 68, "velocity": 116, "channel": 0}, {"type": "note_off", "time": 117, "note": 68, "velocity": 116, "channel": 0}, {"type": "note_on", "time": 10, "note": 65, "velocity": 106, "channel": 0}, {"type": "note_off", "time": 81, "note": 65, "velocity": 106, "channel": 0}, {"type": "note_on", "time": 85, "note": 68, "velocity": 105, "channel": 0}, {"type": "note_off", "time": 326, "note": 68, "velocity": 105, "channel": 0}, {"type": "end_of_track", "time": 0}]]}