{"ticks_per_beat": 192, "tracks": [[{"type": "track_name", "name": "Melody", "time": 0}, {"type": "set_tempo", "tempo": 387096, "time": 0}, {"type": "key_signature", "key": "F", "time": 0}, {"type": "time_signature", "numerator": 4, "denominator": 4, "clocks_per_click": 24, "notated_32nd_notes_per_beat": 8, "time": 0}, {"type": "note_on", "time": 4047, "note": 72, "velocity": 122, "channel": 0}, {"type": "note_off", "time": 43, "note": 72, "velocity": 122, "channel": 0}, {"type": "note_on", "time": 6, "note": 73, "velocity": 120, "channel": 0}, {"type": "note_off", "time": 18, "note": 73, "velocity": 120, "channel": 0}, {"type": "note_on", "time": 2, "note": 74, "velocity": 120, "channel": 0}, {"type": "note_off", "time": 77, "note": 74, "velocity": 120, "channel": 0}, {"type": "note_on", "time": 8, "note": 73, "velocity": 122, "channel": 0}, {"type": "note_off", "time": 13, "note": 73, "velocity": 122, "channel": 0}, {"type": "note_on", "time": 8, "note": 72, "velocity": 127, "channel": 0}, {"type": "note_off", "time": 19, "note": 72, "velocity": 127, "channel": 0}, {"type": "note_on", "time": 15, "note": 74, "velocity": 118, "channel": 0}, {"type": "note_off", "time": 52, "note": 74, "velocity": 118, "channel": 0}, {"type": "note_on", "time": 4, "note": 73, "velocity": 123, "channel": 0}, {"type": "note_off", "time": 15, "note": 73, "velocity": 123, "channel": 0}, {"type": "note_on", "time": 10, "note": 72, "velocity": 120, "channel": 0}, {"type": "note_off", "time": 104, "note": 72, "velocity": 120, "channel": 0}, {"type": "note_on", "time": 11, "note": 69, "velocity": 94, "channel": 0}, {"type": "note_off", "time": 89, "note": 69, "velocity": 94, "channel": 0}, {"type": "note_on", "time": 14, "note": 72, "velocity": 119, "channel": 0}, {"type": "note_off", "time": 53, "note": 72, "velocity": 119, "channel": 0}, {"type": "note_on", "time": 26, "note": 67, "velocity": 90, "channel": 0}, {"type": "note_off", "time": 175, "note": 67, "velocity": 90, "channel": 0}, {"type": "note_on", "time": 129, "note": 60, "velocity": 102, "channel": 0}, {"type": "note_off", "time": 51, "note": 60, "velocity": 102, "channel": 0}, {"type": "note_on", "time": 3, "note": 62, "velocity": 114, "channel": 0}, {"type": "note_off", "time": 32, "note": 62, "velocity": 114, "channel": 0}, {"type": "note_on", "time": 5, "note": 63, "velocity": 110, "channel": 0}, {"type": "note_off", "time": 45, "note": 63, "velocity": 110, "channel": 0}, {"type": "note_on", "time": 6, "note": 65, "velocity": 112, "channel": 0}, {"type": "note_off", "time": 43, "note": 65, "velocity": 112, "channel": 0}, {"type": "note_on", "time": 10, "note": 62, "velocity": 110, "channel": 0}, {"type": "note_off", "time": 33, "note": 62, "velocity": 110, "channel": 0}, {"type": "note_on", "time": 4, "note": 63, "velocity": 110, "channel": 0}, {"type": "note_off", "time": 64, "note": 63, "velocity": 110, "channel": 0}, {"type": "note_on", "time": 12, "note": 60, "velocity": 89, "channel": 0}, {"type": "note_off", "time": 76, "note": 60, "velocity": 89, "channel": 0}, {"type": "note_on", "time": 105, "note": 56, "velocity": 99, "channel": 0}, {"type": "note_off", "time": 15, "note": 56, "velocity": 99, "channel": 0}, {"type": "note_on", "time": 2, "note": 57, "velocity": 100, "channel": 0}, {"type": "note_off", "time": 60, "note": 57, "velocity": 100, "channel": 0}, {"type": "note_on", "time": 285, "note": 53, "velocity": 104, "channel": 0}, {"type": "note_off", "time": 53, "note": 53, "velocity": 104, "channel": 0}, {"type": "note_on", "time": 11, "note": 55, "velocity": 104, "channel": 0}, {"type": "note_off", "time": 39, "note": 55, "velocity": 104, "channel": 0}, {"type": "note_on", "time": 5, "note": 60, "velocity": 102, "channel": 0}, {"type": "note_off", "time": 50, "note": 60, "velocity": 102, "channel": 0}, {"type": "note_on", "time": 5, "note": 63, "velocity": 97, "channel": 0}, {"type": "note_off", "time": 21, "note": 63, "velocity": 97, "channel": 0}, {"type": "note_on", "time": 0, "note": 67, "velocity": 117, "channel": 0}, {"type": "note_off", "time": 48, "note": 67, "velocity": 117, "channel": 0}, {"type": "note_on", "time": 19, "note": 64, "velocity": 107, "channel": 0}, {"type": "note_off", "time": 43, "note": 64, "velocity": 107, "channel": 0}, {"type": "note_on", "time": 4, "note": 65, "velocity": 113, "channel": 0}, {"type": "note_off", "time": 30, "note": 65, "velocity": 113, "channel": 0}, {"type": "note_on", "time": 7, "note": 67, "velocity": 115, "channel": 0}, {"type": "note_off", "time": 42, "note": 67, "velocity": 115, "channel": 0}, {"type": "note_on", "time": 1, "note": 68, "velocity": 115, "channel": 0}, {"type": "note_off", "time": 30, "note": 68, "velocity": 115, "channel": 0}, {"type": "note_on", "time": 23, "note": 60, "velocity": 100, "channel": 0}, {"type": "note_off", "time": 38, "note": 60, "velocity": 100, "channel": 0}, {"type": "note_on", "time": 4, "note": 61, "velocity": 98, "channel": 0}, {"type": "note_off", "time": 31, "note": 61, "velocity": 98, "channel": 0}, {"type": "note_on", "time": 13, "note": 62, "velocity": 91, "channel": 0}, {"type": "note_off", "time": 41, "note": 62, "velocity": 91, "channel": 0}, {"type": "note_on", "time": 5, "note": 67, "velocity": 113, "channel": 0}, {"type": "note_off", "time": 57, "note": 67, "velocity": 113, "channel": 0}, {"type": "note_on", "time": 3, "note": 66, "velocity": 111, "channel": 0}, {"type": "note_off", "time": 37, "note": 66, "velocity": 111, "channel": 0}, {"type": "note_on", "time": 9, "note": 65, "velocity": 111, "channel": 0}, {"type": "note_off", "time": 27, "note": 65, "velocity": 111, "channel": 0}, {"type": "note_on", "time": 6, "note": 64, "velocity": 112, "channel": 0}, {"type": "note_off", "time": 37, "note": 64, "velocity": 112, "channel": 0}, {"type": "note_on", "time": 7, "note": 63, "velocity": 113, "channel": 0}, {"type": "note_off", "time": 59, "note": 63, "velocity": 113, "channel": 0}, {"type": "note_on", "time": 7, "note": 60, "velocity": 100, "channel": 0}, {"type": "note_off", "time": 43, "note": 60, "velocity": 100, "channel": 0}, {"type": "note_on", "time": 1, "note": 56, "velocity": 102, "channel": 0}, {"type": "note_off", "time": 37, "note": 56, "velocity": 102, "channel": 0}, {"type": "note_on", "time": 10, "note": 53, "velocity": 99, "channel": 0}, {"type": "note_off", "time": 41, "note": 53, "velocity": 99, "channel": 0}, {"type": "note_on", "time": 0, "note": 62, "velocity": 113, "channel": 0}, {"type": "note_off", "time": 36, "note": 62, "velocity": 113, "channel": 0}, {"type": "note_on", "time": 19, "note": 60, "velocity": 105, "channel": 0}, {"type": "note_off", "time": 42, "note": 60, "velocity": 105, "channel": 0}, {"type": "note_on", "time": 3, "note": 58, "velocity": 106, "channel": 0}, {"type": "note_off", "time": 65, "note": 58, "velocity": 106, "channel": 0}, {"type": "note_on", "time": 5, "note": 55, "velocity": 105, "channel": 0}, {"type": "note_off", "time": 35, "note": 55, "velocity": 105, "channel": 0}, {"type": "note_on", "time": 20, "note": 65, "velocity": 108, "channel": 0}, {"type": "note_off", "time": 34, "note": 65, "velocity": 108, "channel": 0}, {"type": "note_on", "time": 12, "note": 67, "velocity": 103, "channel": 0}, {"type": "note_off", "time": 376, "note": 67, "velocity": 103, "channel": 0}, {"type": "note_on", "time": 196, "note": 58, "velocity": 96, "channel": 0}, {"type": "note_off", "time": 45, "note": 58, "velocity": 96, "channel": 0}, {"type": "note_on", "time": 15, "note": 61, "velocity": 113, "channel": 0}, {"type": "note_off", "time": 39, "note": 61, "velocity": 113, "channel": 0}, {"type": "note_on", "time": 7, "note": 65, "velocity": 110, "channel": 0}, {"type": "note_off", "time": 43, "note": 65, "velocity": 110, "channel": 0}, {"type": "note_on", "time": 6, "note": 68, "velocity": 118, "channel": 0}, {"type": "note_off", "time": 48, "note": 68, "velocity": 118, "channel": 0}, {"type": "note_on", "time": 2, "note": 67, "velocity": 117, "channel": 0}, {"type": "note_off", "time": 49, "note": 67, "velocity": 117, "channel": 0}, {"type": "note_on", "time": 9, "note": 65, "velocity": 111, "channel": 0}, {"type": "note_off", "time": 40, "note": 65, "velocity": 111, "channel": 0}, {"type": "note_on", "time": 5, "note": 64, "velocity": 110, "channel": 0}, {"type": "note_off", "time": 38, "note": 64, "velocity": 110, "channel": 0}, {"type": "note_on", "time": 1, "note": 65, "velocity": 96, "channel": 0}, {"type": "note_off", "time": 27, "note": 65, "velocity": 96, "channel": 0}, {"type": "note_on", "time": 2, "note": 68, "velocity": 118, "channel": 0}, {"type": "note_off", "time": 41, "note": 68, "velocity": 118, "channel": 0}, {"type": "note_on", "time": 0, "note": 67, "velocity": 116, "channel": 0}, {"type": "note_off", "time": 41, "note": 67, "velocity": 116, "channel": 0}, {"type": "note_on", "time": 6, "note": 66, "velocity": 111, "channel": 0}, {"type": "note_off", "time": 38, "note": 66, "velocity": 111, "channel": 0}, {"type": "note_on", "time": 6, "note": 65, "velocity": 101, "channel": 0}, {"type": "note_off", "time": 25, "note": 65, "velocity": 101, "channel": 0}, {"type": "note_on", "time": 8, "note": 61, "velocity": 105, "channel": 0}, {"type": "note_off", "time": 46, "note": 61, "velocity": 105, "channel": 0}, {"type": "note_on", "time": 6, "note": 58, "velocity": 95, "channel": 0}, {"type": "note_off", "time": 33, "note": 58, "velocity": 95, "channel": 0}, {"type": "note_on", "time": 12, "note": 53, "velocity": 96, "channel": 0}, {"type": "note_off", "time": 31, "note": 53, "velocity": 96, "channel": 0}, {"type": "note_on", "time": 9, "note": 56, "velocity": 100, "channel": 0}, {"type": "note_off", "time": 50, "note": 56, "velocity": 100, "channel": 0}, {"type": "note_on", "time": 9, "note": 53, "velocity": 104, "channel": 0}, {"type": "note_off", "time": 30, "note": 53, "velocity": 104, "channel": 0}, {"type": "note_on", "time": 7, "note": 55, "velocity": 100, "channel": 0}, {"type": "note_off", "time": 27, "note": 55, "velocity": 100, "channel": 0}, {"type": "note_on", "time": 7, "note": 59, "velocity": 111, "channel": 0}, {"type": "note_off", "time": 53, "note": 59, "velocity": 111, "channel": 0}, {"type": "note_on", "time": 5, "note": 60, "velocity": 81, "channel": 0}, {"type": "note_off", "time": 225, "note": 60, "velocity": 81, "channel": 0}, {"type": "note_on", "time": 141, "note": 63, "velocity": 112, "channel": 0}, {"type": "note_off", "time": 54, "note": 63, "velocity": 112, "channel": 0}, {"type": "note_on", "time": 14, "note": 65, "velocity": 98, "channel": 0}, {"type": "note_off", "time": 14, "note": 65, "velocity": 98, "channel": 0}, {"type": "note_on", "time": 12, "note": 68, "velocity": 120, "channel": 0}, {"type": "note_off", "time": 51, "note": 68, "velocity": 120, "channel": 0}, {"type": "note_on", "time": 12, "note": 70, "velocity": 118, "channel": 0}, {"type": "note_off", "time": 113, "note": 70, "velocity": 118, "channel": 0}, {"type": "note_on", "time": 45, "note": 69, "velocity": 121, "channel": 0}, {"type": "note_off", "time": 47, "note": 69, "velocity": 121, "channel": 0}, {"type": "note_on", "time": 15, "note": 70, "velocity": 119, "channel": 0}, {"type": "note_off", "time": 275, "note": 70, "velocity": 119, "channel": 0}, {"type": "note_on", "time": 5, "note": 69, "velocity": 99, "channel": 0}, {"type": "note_off", "time": 13, "note": 69, "velocity": 99, "channel": 0}, {"type": "note_on", "time": 2, "note": 68, "velocity": 119, "channel": 0}, {"type": "note_off", "time": 52, "note": 68, "velocity": 119, "channel": 0}, {"type": "note_on", "time": 15, "note": 63, "velocity": 96, "channel": 0}, {"type": "note_off", "time": 35, "note": 63, "velocity": 96, "channel": 0}, {"type": "note_on", "time": 0, "note": 67, "velocity": 117, "channel": 0}, {"type": "note_off", "time": 61, "note": 67, "velocity": 117, "channel": 0}, {"type": "note_on", "time": 14, "note": 65, "velocity": 102, "channel": 0}, {"type": "note_off", "time": 115, "note": 65, "velocity": 102, "channel": 0}, {"type": "note_on", "time": 113, "note": 67, "velocity": 113, "channel": 0}, {"type": "note_off", "time": 60, "note": 67, "velocity": 113, "channel": 0}, {"type": "note_on", "time": 9, "note": 65, "velocity": 111, "channel": 0}, {"type": "note_off", "time": 35, "note": 65, "velocity": 111, "channel": 0}, {"type": "note_on", "time": 5, "note": 64, "velocity": 103, "channel": 0}, {"type": "note_off", "time": 29, "note": 64, "velocity": 103, "channel": 0}, {"type": "note_on", "time": 12, "note": 61, "velocity": 106, "channel": 0}, {"type": "note_off", "time": 68, "note": 61, "velocity": 106, "channel": 0}, {"type": "note_on", "time": 15, "note": 58, "velocity": 102, "channel": 0}, {"type": "note_off", "time": 38, "note": 58, "velocity": 102, "channel": 0}, {"type": "note_on", "time": 7, "note": 57, "velocity": 103, "channel": 0}, {"type": "note_off", "time": 35, "note": 57, "velocity": 103, "channel": 0}, {"type": "note_on", "time": 16, "note": 60, "velocity": 102, "channel": 0}, {"type": "note_off", "time": 26, "note": 60, "velocity": 102, "channel": 0}, {"type": "note_on", "time": 7, "note": 63, "velocity": 112, "channel": 0}, {"type": "note_off", "time": 36, "note": 63, "velocity": 112, "channel": 0}, {"type": "note_on", "time": 7, "note": 67, "velocity": 107, "channel": 0}, {"type": "note_off", "time": 49, "note": 67, "velocity": 107, "channel": 0}, {"type": "note_on", "time": 4, "note": 57, "velocity": 92, "channel": 0}, {"type": "note_off", "time": 28, "note": 57, "velocity": 92, "channel": 0}, {"type": "note_on", "time": 16, "note": 61, "velocity": 111, "channel": 0}, {"type": "note_off", "time": 40, "note": 61, "velocity": 111, "channel": 0}, {"type": "note_on", "time": 14, "note": 65, "velocity": 104, "channel": 0}, {"type": "note_off", "time": 31, "note": 65, "velocity": 104, "channel": 0}, {"type": "note_on", "time": 15, "note": 68, "velocity": 118, "channel": 0}, {"type": "note_off", "time": 42, "note": 68, "velocity": 118, "channel": 0}, {"type": "note_on", "time": 6, "note": 67, "velocity": 117, "channel": 0}, {"type": "note_off", "time": 42, "note": 67, "velocity": 117, "channel": 0}, {"type": "note_on", "time": 7, "note": 66, "velocity": 111, "channel": 0}, {"type": "note_off", "time": 36, "note": 66, "velocity": 111, "channel": 0}, {"type": "note_on", "time": 6, "note": 65, "velocity": 109, "channel": 0}, {"type": "note_off", "time": 56, "note": 65, "velocity": 109, "channel": 0}, {"type": "note_on", "time": 5, "note": 64, "velocity": 103, "channel": 0}, {"type": "note_off", "time": 25, "note": 64, "velocity": 103, "channel": 0}, {"type": "note_on", "time": 2, "note": 63, "velocity": 90, "channel": 0}, {"type": "note_off", "time": 41, "note": 63, "velocity": 90, "channel": 0}, {"type": "note_on", "time": 19, "note": 55, "velocity": 99, "channel": 0}, {"type": "note_off", "time": 70, "note": 55, "velocity": 99, "channel": 0}, {"type": "note_on", "time": 10, "note": 57, "velocity": 99, "channel": 0}, {"type": "note_off", "time": 45, "note": 57, "velocity": 99, "channel": 0}, {"type": "note_on", "time": 7, "note": 62, "velocity": 116, "channel": 0}, {"type": "note_off", "time": 47, "note": 62, "velocity": 116, "channel": 0}, {"type": "note_on", "time": 7, "note": 60, "velocity": 105, "channel": 0}, {"type": "note_off", "time": 48, "note": 60, "velocity": 105, "channel": 0}, {"type": "note_on", "time": 11, "note": 58, "velocity": 103, "channel": 0}, {"type": "note_off", "time": 53, "note": 58, "velocity": 103, "channel": 0}, {"type": "note_on", "time": 34, "note": 57, "velocity": 105, "channel": 0}, {"type": "note_off", "time": 44, "note": 57, "velocity": 105, "channel": 0}, {"type": "note_on", "time": 8, "note": 58, "velocity": 104, "channel": 0}, {"type": "note_off", "time": 37, "note": 58, "velocity": 104, "channel": 0}, {"type": "note_on", "time": 8, "note": 60, "velocity": 110, "channel": 0}, {"type": "note_off", "time": 39, "note": 60, "velocity": 110, "channel": 0}, {"type": "note_on", "time": 2, "note": 62, "velocity": 113, "channel": 0}, {"type": "note_off", "time": 29, "note": 62, "velocity": 113, "channel": 0}, {"type": "note_on", "time": 7, "note": 63, "velocity": 110, "channel": 0}, {"type": "note_off", "time": 27, "note": 63, "velocity": 110, "channel": 0}, {"type": "note_on", "time": 10, "note": 65, "velocity": 111, "channel": 0}, {"type": "note_off", "time": 29, "note": 65, "velocity": 111, "channel": 0}, {"type": "note_on", "time": 4, "note": 67, "velocity": 116, "channel": 0}, {"type": "note_off", "time": 17, "note": 67, "velocity": 116, "channel": 0}, {"type": "note_on", "time": 5, "note": 68, "velocity": 117, "channel": 0}, {"type": "note_off", "time": 20, "note": 68, "velocity": 117, "channel": 0}, {"type": "note_on", "time": 5, "note": 71, "velocity": 118, "channel": 0}, {"type": "note_off", "time": 17, "note": 71, "velocity": 118, "channel": 0}, {"type": "note_on", "time": 5, "note": 72, "velocity": 123, "channel": 0}, {"type": "note_off", "time": 19, "note": 72, "velocity": 123, "channel": 0}, {"type": "note_on", "time": 5, "note": 73, "velocity": 124, "channel": 0}, {"type": "note_off", "time": 18, "note": 73, "velocity": 124, "channel": 0}, {"type": "note_on", "time": 3, "note": 74, "velocity": 92, "channel": 0}, {"type": "note_off", "time": 186, "note": 74, "velocity": 92, "channel": 0}, {"type": "note_on", "time": 12, "note": 71, "velocity": 117, "channel": 0}, {"type": "note_off", "time": 90, "note": 71, "velocity": 117, "channel": 0}, {"type": "note_on", "time": 12, "note": 68, "velocity": 121, "channel": 0}, {"type": "note_off", "time": 64, "note": 68, "velocity": 121, "channel": 0}, {"type": "note_on", "time": 12, "note": 65, "velocity": 93, "channel": 0}, {"type": "note_off", "time": 200, "note": 65, "velocity": 93, "channel": 0}, {"type": "note_on", "time": 367, "note": 63, "velocity": 112, "channel": 0}, {"type": "note_off", "time": 37, "note": 63, "velocity": 112, "channel": 0}, {"type": "note_on", "time": 5, "note": 65, "velocity": 108, "channel": 0}, {"type": "note_off", "time": 18, "note": 65, "velocity": 108, "channel": 0}, {"type": "note_on", "time": 5, "note": 63, "velocity": 111, "channel": 0}, {"type": "note_off", "time": 35, "note": 63, "velocity": 111, "channel": 0}, {"type": "note_on", "time": 13, "note": 60, "velocity": 98, "channel": 0}, {"type": "note_off", "time": 56, "note": 60, "velocity": 98, "channel": 0}, {"type": "note_on", "time": 8, "note": 62, "velocity": 116, "channel": 0}, {"type": "note_off", "time": 67, "note": 62, "velocity": 116, "channel": 0}, {"type": "note_on", "time": 13, "note": 63, "velocity": 109, "channel": 0}, {"type": "note_off", "time": 29, "note": 63, "velocity": 109, "channel": 0}, {"type": "note_on", "time": 3, "note": 65, "velocity": 110, "channel": 0}, {"type": "note_off", "time": 59, "note": 65, "velocity": 110, "channel": 0}, {"type": "note_on", "time": 16, "note": 58, "velocity": 84, "channel": 0}, {"type": "note_off", "time": 148, "note": 58, "velocity": 84, "channel": 0}, {"type": "note_on", "time": 274, "note": 53, "velocity": 100, "channel": 0}, {"type": "note_off", "time": 37, "note": 53, "velocity": 100, "channel": 0}, {"type": "note_on", "time": 11, "note": 56, "velocity": 104, "channel": 0}, {"type": "note_off", "time": 40, "note": 56, "velocity": 104, "channel": 0}, {"type": "note_on", "time": 2, "note": 60, "velocity": 108, "channel": 0}, {"type": "note_off", "time": 52, "note": 60, "velocity": 108, "channel": 0}, {"type": "note_on", "time": 5, "note": 56, "velocity": 106, "channel": 0}, {"type": "note_off", "time": 29, "note": 56, "velocity": 106, "channel": 0}, {"type": "note_on", "time": 3, "note": 53, "velocity": 103, "channel": 0}, {"type": "note_off", "time": 48, "note": 53, "velocity": 103, "channel": 0}, {"type": "note_on", "time": 9, "note": 58, "velocity": 98, "channel": 0}, {"type": "note_off", "time": 33, "note": 58, "velocity": 98, "channel": 0}, {"type": "note_on", "time": 12, "note": 61, "velocity": 112, "channel": 0}, {"type": "note_off", "time": 45, "note": 61, "velocity": 112, "channel": 0}, {"type": "note_on", "time": 4, "note": 58, "velocity": 95, "channel": 0}, {"type": "note_off", "time": 29, "note": 58, "velocity": 95, "channel": 0}, {"type": "note_on", "time": 11, "note": 56, "velocity": 98, "channel": 0}, {"type": "note_off", "time": 35, "note": 56, "velocity": 98, "channel": 0}, {"type": "note_on", "time": 14, "note": 60, "velocity": 104, "channel": 0}, {"type": "note_off", "time": 38, "note": 60, "velocity": 104, "channel": 0}, {"type": "note_on", "time": 13, "note": 65, "velocity": 106, "channel": 0}, {"type": "note_off", "time": 55, "note": 65, "velocity": 106, "channel": 0}, {"type": "note_on", "time": 23, "note": 64, "velocity": 103, "channel": 0}, {"type": "note_off", "time": 51, "note": 64, "velocity": 103, "channel": 0}, {"type": "note_on", "time": 6, "note": 65, "velocity": 111, "channel": 0}, {"type": "note_off", "time": 36, "note": 65, "velocity": 111, "channel": 0}, {"type": "note_on", "time": 2, "note": 67, "velocity": 114, "channel": 0}, {"type": "note_off", "time": 33, "note": 67, "velocity": 114, "channel": 0}, {"type": "note_on", "time": 7, "note": 68, "velocity": 118, "channel": 0}, {"type": "note_off", "time": 48, "note": 68, "velocity": 118, "channel": 0}, {"type": "note_on", "time": 8, "note": 65, "velocity": 99, "channel": 0}, {"type": "note_off", "time": 82, "note": 65, "velocity": 99, "channel": 0}, {"type": "note_on", "time": 26, "note": 60, "velocity": 102, "channel": 0}, {"type": "note_off", "time": 282, "note": 60, "velocity": 102, "channel": 0}, {"type": "note_on", "time": 103, "note": 61, "velocity": 107, "channel": 0}, {"type": "note_off", "time": 41, "note": 61, "velocity": 107, "channel": 0}, {"type": "note_on", "time": 5, "note": 60, "velocity": 105, "channel": 0}, {"type": "note_off", "time": 35, "note": 60, "velocity": 105, "channel": 0}, {"type": "note_on", "time": 9, "note": 58, "velocity": 104, "channel": 0}, {"type": "note_off", "time": 41, "note": 58, "velocity": 104, "channel": 0}, {"type": "note_on", "time": 14, "note": 55, "velocity": 99, "channel": 0}, {"type": "note_off", "time": 43, "note": 55, "velocity": 99, "channel": 0}, {"type": "note_on", "time": 13, "note": 51, "velocity": 77, "channel": 0}, {"type": "note_off", "time": 61, "note": 51, "velocity": 77, "channel": 0}, {"type": "note_on", "time": 301, "note": 70, "velocity": 118, "channel": 0}, {"type": "note_off", "time": 51, "note": 70, "velocity": 118, "channel": 0}, {"type": "note_on", "time": 5, "note": 68, "velocity": 118, "channel": 0}, {"type": "note_off", "time": 43, "note": 68, "velocity": 118, "channel": 0}, {"type": "note_on", "time": 1, "note": 67, "velocity": 114, "channel": 0}, {"type": "note_off", "time": 50, "note": 67, "velocity": 114, "channel": 0}, {"type": "note_on", "time": 7, "note": 63, "velocity": 102, "channel": 0}, {"type": "note_off", "time": 77, "note": 63, "velocity": 102, "channel": 0}, {"type": "note_on", "time": 250, "note": 62, "velocity": 84, "channel": 0}, {"type": "note_off", "time": 15, "note": 62, "velocity": 84, "channel": 0}, {"type": "note_on", "time": 3, "note": 63, "velocity": 108, "channel": 0}, {"type": "note_off", "time": 102, "note": 63, "velocity": 108, "channel": 0}, {"type": "note_on", "time": 5, "note": 65, "velocity": 110, "channel": 0}, {"type": "note_off", "time": 28, "note": 65, "velocity": 110, "channel": 0}, {"type": "note_on", "time": 6, "note": 67, "velocity": 115, "channel": 0}, {"type": "note_off", "time": 38, "note": 67, "velocity": 115, "channel": 0}, {"type": "note_on", "time": 4, "note": 68, "velocity": 118, "channel": 0}, {"type": "note_off", "time": 31, "note": 68, "velocity": 118, "channel": 0}, {"type": "note_on", "time": 23, "note": 63, "velocity": 87, "channel": 0}, {"type": "note_off", "time": 196, "note": 63, "velocity": 87, "channel": 0}, {"type": "note_on", "time": 327, "note": 55, "velocity": 101, "channel": 0}, {"type": "note_off", "time": 37, "note": 55, "velocity": 101, "channel": 0}, {"type": "note_on", "time": 7, "note": 57, "velocity": 103, "channel": 0}, {"type": "note_off", "time": 30, "note": 57, "velocity": 103, "channel": 0}, {"type": "note_on", "time": 6, "note": 59, "velocity": 101, "channel": 0}, {"type": "note_off", "time": 44, "note": 59, "velocity": 101, "channel": 0}, {"type": "note_on", "time": 10, "note": 55, "velocity": 93, "channel": 0}, {"type": "note_off", "time": 34, "note": 55, "velocity": 93, "channel": 0}, {"type": "note_on", "time": 12, "note": 60, "velocity": 108, "channel": 0}, {"type": "note_off", "time": 43, "note": 60, "velocity": 108, "channel": 0}, {"type": "note_on", "time": 9, "note": 63, "velocity": 107, "channel": 0}, {"type": "note_off", "time": 55, "note": 63, "velocity": 107, "channel": 0}, {"type": "note_on", "time": 2, "note": 62, "velocity": 108, "channel": 0}, {"type": "note_off", "time": 31, "note": 62, "velocity": 108, "channel": 0}, {"type": "note_on", "time": 5, "note": 60, "velocity": 103, "channel": 0}, {"type": "note_off", "time": 42, "note": 60, "velocity": 103, "channel": 0}, {"type": "note_on", "time": 2, "note": 58, "velocity": 106, "channel": 0}, {"type": "note_off", "time": 38, "note": 58, "velocity": 106, "channel": 0}, {"type": "note_on", "time": 9, "note": 55, "velocity": 100, "channel": 0}, {"type": "note_off", "time": 60, "note": 55, "velocity": 100, "channel": 0}, {"type": "note_on", "time": 64, "note": 58, "velocity": 104, "channel": 0}, {"type": "note_off", "time": 62, "note": 58, "velocity": 104, "channel": 0}, {"type": "note_on", "time": 12, "note": 56, "velocity": 104, "channel": 0}, {"type": "note_off", "time": 55, "note": 56, "velocity": 104, "channel": 0}, {"type": "note_on", "time": 9, "note": 60, "velocity": 102, "channel": 0}, {"type": "note_off", "time": 42, "note": 60, "velocity": 102, "channel": 0}, {"type": "note_on", "time": 6, "note": 65, "velocity": 107, "channel": 0}, {"type": "note_off", "time": 15, "note": 65, "velocity": 107, "channel": 0}, {"type": "note_on", "time": 5, "note": 67, "velocity": 118, "channel": 0}, {"type": "note_off", "time": 76, "note": 67, "velocity": 118, "channel": 0}, {"type": "note_on", "time": 2, "note": 68, "velocity": 118, "channel": 0}, {"type": "note_off", "time": 8, "note": 68, "velocity": 118, "channel": 0}, {"type": "note_on", "time": 1, "note": 69, "velocity": 116, "channel": 0}, {"type": "note_off", "time": 6, "note": 69, "velocity": 116, "channel": 0}, {"type": "note_on", "time": 2, "note": 70, "velocity": 120, "channel": 0}, {"type": "note_off", "time": 62, "note": 70, "velocity": 120, "channel": 0}, {"type": "note_on", "time": 5, "note": 68, "velocity": 94, "channel": 0}, {"type": "note_off", "time": 10, "note": 68, "velocity": 94, "channel": 0}, {"type": "note_on", "time": 2, "note": 67, "velocity": 95, "channel": 0}, {"type": "note_off", "time": 33, "note": 67, "velocity": 95, "channel": 0}, {"type": "note_on", "time": 2, "note": 68, "velocity": 100, "channel": 0}, {"type": "note_off", "time": 40, "note": 68, "velocity": 100, "channel": 0}, {"type": "note_on", "time": 10, "note": 65, "velocity": 109, "channel": 0}, {"type": "note_off", "time": 53, "note": 65, "velocity": 109, "channel": 0}, {"type": "note_on", "time": 5, "note": 66, "velocity": 106, "channel": 0}, {"type": "note_off", "time": 14, "note": 66, "velocity": 106, "channel": 0}, {"type": "note_on", "time": 4, "note": 67, "velocity": 119, "channel": 0}, {"type": "note_off", "time": 46, "note": 67, "velocity": 119, "channel": 0}, {"type": "note_on", "time": 10, "note": 63, "velocity": 103, "channel": 0}, {"type": "note_off", "time": 37, "note": 63, "velocity": 103, "channel": 0}, {"type": "note_on", "time": 5, "note": 60, "velocity": 96, "channel": 0}, {"type": "note_off", "time": 32, "note": 60, "velocity": 96, "channel": 0}, {"type": "note_on", "time": 0, "note": 65, "velocity": 111, "channel": 0}, {"type": "note_off", "time": 51, "note": 65, "velocity": 111, "channel": 0}, {"type": "note_on", "time": 0, "note": 64, "velocity": 108, "channel": 0}, {"type": "note_off", "time": 41, "note": 64, "velocity": 108, "channel": 0}, {"type": "note_on", "time": 11, "note": 63, "velocity": 112, "channel": 0}, {"type": "note_off", "time": 47, "note": 63, "velocity": 112, "channel": 0}, {"type": "note_on", "time": 5, "note": 62, "velocity": 114, "channel": 0}, {"type": "note_off", "time": 38, "note": 62, "velocity": 114, "channel": 0}, {"type": "note_on", "time": 5, "note": 60, "velocity": 107, "channel": 0}, {"type": "note_off", "time": 50, "note": 60, "velocity": 107, "channel": 0}, {"type": "note_on", "time": 5, "note": 59, "velocity": 110, "channel": 0}, {"type": "note_off", "time": 23, "note": 59, "velocity": 110, "channel": 0}, {"type": "note_on", "time": 2, "note": 58, "velocity": 112, "channel": 0}, {"type": "note_off", "time": 29, "note": 58, "velocity": 112, "channel": 0}, {"type": "note_on", "time": 15, "note": 57, "velocity": 109, "channel": 0}, {"type": "note_off", "time": 39, "note": 57, "velocity": 109, "channel": 0}, {"type": "note_on", "time": 10, "note": 55, "velocity": 101, "channel": 0}, {"type": "note_off", "time": 90, "note": 55, "velocity": 101, "channel": 0}, {"type": "note_on", "time": 20, "note": 51, "velocity": 102, "channel": 0}, {"type": "note_off", "time": 28, "note": 51, "velocity": 102, "channel": 0}, {"type": "note_on", "time": 10, "note": 55, "velocity": 117, "channel": 0}, {"type": "note_off", "time": 49, "note": 55, "velocity": 117, "channel": 0}, {"type": "note_on", "time": 8, "note": 53, "velocity": 109, "channel": 0}, {"type": "note_off", "time": 46, "note": 53, "velocity": 109, "channel": 0}, {"type": "note_on", "time": 2, "note": 51, "velocity": 106, "channel": 0}, {"type": "note_off", "time": 35, "note": 51, "velocity": 106, "channel": 0}, {"type": "note_on", "time": 5, "note": 50, "velocity": 104, "channel": 0}, {"type": "note_off", "time": 47, "note": 50, "velocity": 104, "channel": 0}, {"type": "note_on", "time": 3, "note": 53, "velocity": 102, "channel": 0}, {"type": "note_off", "time": 33, "note": 53, "velocity": 102, "channel": 0}, {"type": "note_on", "time": 10, "note": 56, "velocity": 101, "channel": 0}, {"type": "note_off", "time": 22, "note": 56, "velocity": 101, "channel": 0}, {"type": "note_on", "time": 10, "note": 60, "velocity": 97, "channel": 0}, {"type": "note_off", "time": 52, "note": 60, "velocity": 97, "channel": 0}, {"type": "note_on", "time": 15, "note": 55, "velocity": 102, "channel": 0}, {"type": "note_off", "time": 41, "note": 55, "velocity": 102, "channel": 0}, {"type": "note_on", "time": 5, "note": 56, "velocity": 110, "channel": 0}, {"type": "note_off", "time": 20, "note": 56, "velocity": 110, "channel": 0}, {"type": "note_on", "time": 7, "note": 57, "velocity": 104, "channel": 0}, {"type": "note_off", "time": 30, "note": 57, "velocity": 104, "channel": 0}, {"type": "note_on", "time": 4, "note": 58, "velocity": 105, "channel": 0}, {"type": "note_off", "time": 54, "note": 58, "velocity": 105, "channel": 0}, {"type": "note_on", "time": 7, "note": 55, "velocity": 105, "channel": 0}, {"type": "note_off", "time": 45, "note": 55, "velocity": 105, "channel": 0}, {"type": "note_on", "time": 3, "note": 56, "velocity": 99, "channel": 0}, {"type": "note_off", "time": 53, "note": 56, "velocity": 99, "channel": 0}, {"type": "note_on", "time": 7, "note": 60, "velocity": 105, "channel": 0}, {"type": "note_off", "time": 38, "note": 60, "velocity": 105, "channel": 0}, {"type": "note_on", "time": 22, "note": 63, "velocity": 106, "channel": 0}, {"type": "note_off", "time": 39, "note": 63, "velocity": 106, "channel": 0}, {"type": "note_on", "time": 2, "note": 67, "velocity": 115, "channel": 0}, {"type": "note_off", "time": 51, "note": 67, "velocity": 115, "channel": 0}, {"type": "note_on", "time": 7, "note": 64, "velocity": 103, "channel": 0}, {"type": "note_off", "time": 22, "note": 64, "velocity": 103, "channel": 0}, {"type": "note_on", "time": 2, "note": 65, "velocity": 107, "channel": 0}, {"type": "note_off", "time": 100, "note": 65, "velocity": 107, "channel": 0}, {"type": "note_on", "time": 1, "note": 70, "velocity": 112, "channel": 0}, {"type": "note_off", "time": 104, "note": 70, "velocity": 112, "channel": 0}, {"type": "note_on", "time": 461, "note": 75, "velocity": 123, "channel": 0}, {"type": "note_off", "time": 77, "note": 75, "velocity": 123, "channel": 0}, {"type": "note_on", "time": 5, "note": 73, "velocity": 115, "channel": 0}, {"type": "note_off", "time": 45, "note": 73, "velocity": 115, "channel": 0}, {"type": "note_on", "time": 31, "note": 65, "velocity": 110, "channel": 0}, {"type": "note_off", "time": 32, "note": 65, "velocity": 110, "channel": 0}, {"type": "note_on", "time": 8, "note": 68, "velocity": 119, "channel": 0}, {"type": "note_off", "time": 46, "note": 68, "velocity": 119, "channel": 0}, {"type": "note_on", "time": 6, "note": 72, "velocity": 124, "channel": 0}, {"type": "note_off", "time": 60, "note": 72, "velocity": 124, "channel": 0}, {"type": "note_on", "time": 6, "note": 70, "velocity": 117, "channel": 0}, {"type": "note_off", "time": 50, "note": 70, "velocity": 117, "channel": 0}, {"type": "note_on", "time": 5, "note": 68, "velocity": 120, "channel": 0}, {"type": "note_off", "time": 27, "note": 68, "velocity": 120, "channel": 0}, {"type": "note_on", "time": 6, "note": 67, "velocity": 114, "channel": 0}, {"type": "note_off", "time": 54, "note": 67, "velocity": 114, "channel": 0}, {"type": "note_on", "time": 10, "note": 64, "velocity": 104, "channel": 0}, {"type": "note_off", "time": 49, "note": 64, "velocity": 104, "channel": 0}, {"type": "note_on", "time": 5, "note": 65, "velocity": 96, "channel": 0}, {"type": "note_off", "time": 29, "note": 65, "velocity": 96, "channel": 0}, {"type": "note_on", "time": 13, "note": 68, "velocity": 120, "channel": 0}, {"type": "note_off", "time": 37, "note": 68, "velocity": 120, "channel": 0}, {"type": "note_on", "time": 4, "note": 67, "velocity": 114, "channel": 0}, {"type": "note_off", "time": 27, "note": 67, "velocity": 114, "channel": 0}, {"type": "note_on", "time": 3, "note": 66, "velocity": 110, "channel": 0}, {"type": "note_off", "time": 21, "note": 66, "velocity": 110, "channel": 0}, {"type": "note_on", "time": 2, "note": 65, "velocity": 107, "channel": 0}, {"type": "note_off", "time": 65, "note": 65, "velocity": 107, "channel": 0}, {"type": "note_on", "time": 16, "note": 61, "velocity": 107, "channel": 0}, {"type": "note_off", "time": 34, "note": 61, "velocity": 107, "channel": 0}, {"type": "note_on", "time": 6, "note": 58, "velocity": 99, "channel": 0}, {"type": "note_off", "time": 37, "note": 58, "velocity": 99, "channel": 0}, {"type": "note_on", "time": 13, "note": 53, "velocity": 93, "channel": 0}, {"type": "note_off", "time": 38, "note": 53, "velocity": 93, "channel": 0}, {"type": "note_on", "time": 7, "note": 56, "velocity": 97, "channel": 0}, {"type": "note_off", "time": 61, "note": 56, "velocity": 97, "channel": 0}, {"type": "note_on", "time": 2, "note": 53, "velocity": 91, "channel": 0}, {"type": "note_off", "time": 25, "note": 53, "velocity": 91, "channel": 0}, {"type": "note_on", "time": 2, "note": 55, "velocity": 92, "channel": 0}, {"type": "note_off", "time": 42, "note": 55, "velocity": 92, "channel": 0}, {"type": "note_on", "time": 4, "note": 59, "velocity": 117, "channel": 0}, {"type": "note_off", "time": 28, "note": 59, "velocity": 117, "channel": 0}, {"type": "note_on", "time": 6, "note": 60, "velocity": 110, "channel": 0}, {"type": "note_off", "time": 119, "note": 60, "velocity": 110, "channel": 0}, {"type": "note_on", "time": 410, "note": 60, "velocity": 109, "channel": 0}, {"type": "note_off", "time": 61, "note": 60, "velocity": 109, "channel": 0}, {"type": "note_on", "time": 20, "note": 63, "velocity": 108, "channel": 0}, {"type": "note_off", "time": 30, "note": 63, "velocity": 108, "channel": 0}, {"type": "note_on", "time": 11, "note": 67, "velocity": 114, "channel": 0}, {"type": "note_off", "time": 22, "note": 67, "velocity": 114, "channel": 0}, {"type": "note_on", "time": 4, "note": 70, "velocity": 121, "channel": 0}, {"type": "note_off", "time": 46, "note": 70, "velocity": 121, "channel": 0}, {"type": "note_on", "time": 11, "note": 67, "velocity": 91, "channel": 0}, {"type": "note_off", "time": 25, "note": 67, "velocity": 91, "channel": 0}, {"type": "note_on", "time": 2, "note": 68, "velocity": 119, "channel": 0}, {"type": "note_off", "time": 38, "note": 68, "velocity": 119, "channel": 0}, {"type": "note_on", "time": 5, "note": 67, "velocity": 114, "channel": 0}, {"type": "note_off", "time": 31, "note": 67, "velocity": 114, "channel": 0}, {"type": "note_on", "time": 4, "note": 66, "velocity": 110, "channel": 0}, {"type": "note_off", "time": 22, "note": 66, "velocity": 110, "channel": 0}, {"type": "note_on", "time": 4, "note": 65, "velocity": 110, "channel": 0}, {"type": "note_off", "time": 41, "note": 65, "velocity": 110, "channel": 0}, {"type": "note_on", "time": 10, "note": 61, "velocity": 109, "channel": 0}, {"type": "note_off", "time": 31, "note": 61, "velocity": 109, "channel": 0}, {"type": "note_on", "time": 10, "note": 58, "velocity": 89, "channel": 0}, {"type": "note_off", "time": 50, "note": 58, "velocity": 89, "channel": 0}, {"type": "note_on", "time": 8, "note": 54, "velocity": 88, "channel": 0}, {"type": "note_off", "time": 29, "note": 54, "velocity": 88, "channel": 0}, {"type": "note_on", "time": 16, "note": 63, "velocity": 107, "channel": 0}, {"type": "note_off", "time": 90, "note": 63, "velocity": 107, "channel": 0}, {"type": "note_on", "time": 193, "note": 67, "velocity": 118, "channel": 0}, {"type": "note_off", "time": 50, "note": 67, "velocity": 118, "channel": 0}, {"type": "note_on", "time": 6, "note": 65, "velocity": 110, "channel": 0}, {"type": "note_off", "time": 47, "note": 65, "velocity": 110, "channel": 0}, {"type": "note_on", "time": 5, "note": 63, "velocity": 103, "channel": 0}, {"type": "note_off", "time": 38, "note": 63, "velocity": 103, "channel": 0}, {"type": "note_on", "time": 23, "note": 55, "velocity": 99, "channel": 0}, {"type": "note_off", "time": 44, "note": 55, "velocity": 99, "channel": 0}, {"type": "note_on", "time": 9, "note": 57, "velocity": 101, "channel": 0}, {"type": "note_off", "time": 24, "note": 57, "velocity": 101, "channel": 0}, {"type": "note_on", "time": 5, "note": 60, "velocity": 110, "channel": 0}, {"type": "note_off", "time": 51, "note": 60, "velocity": 110, "channel": 0}, {"type": "note_on", "time": 7, "note": 61, "velocity": 108, "channel": 0}, {"type": "note_off", "time": 33, "note": 61, "velocity": 108, "channel": 0}, {"type": "note_on", "time": 4, "note": 60, "velocity": 105, "channel": 0}, {"type": "note_off", "time": 57, "note": 60, "velocity": 105, "channel": 0}, {"type": "note_on", "time": 5, "note": 58, "velocity": 89, "channel": 0}, {"type": "note_off", "time": 26, "note": 58, "velocity": 89, "channel": 0}, {"type": "note_on", "time": 6, "note": 55, "velocity": 98, "channel": 0}, {"type": "note_off", "time": 35, "note": 55, "velocity": 98, "channel": 0}, {"type": "note_on", "time": 2, "note": 57, "velocity": 109, "channel": 0}, {"type": "note_off", "time": 39, "note": 57, "velocity": 109, "channel": 0}, {"type": "note_on", "time": 9, "note": 58, "velocity": 98, "channel": 0}, {"type": "note_off", "time": 40, "note": 58, "velocity": 98, "channel": 0}, {"type": "note_on", "time": 18, "note": 60, "velocity": 111, "channel": 0}, {"type": "note_off", "time": 49, "note": 60, "velocity": 111, "channel": 0}, {"type": "note_on", "time": 5, "note": 62, "velocity": 115, "channel": 0}, {"type": "note_off", "time": 34, "note": 62, "velocity": 115, "channel": 0}, {"type": "note_on", "time": 5, "note": 63, "velocity": 108, "channel": 0}, {"type": "note_off", "time": 35, "note": 63, "velocity": 108, "channel": 0}, {"type": "note_on", "time": 6, "note": 65, "velocity": 110, "channel": 0}, {"type": "note_off", "time": 53, "note": 65, "velocity": 110, "channel": 0}, {"type": "note_on", "time": 2, "note": 67, "velocity": 108, "channel": 0}, {"type": "note_off", "time": 14, "note": 67, "velocity": 108, "channel": 0}, {"type": "note_on", "time": 2, "note": 68, "velocity": 119, "channel": 0}, {"type": "note_off", "time": 23, "note": 68, "velocity": 119, "channel": 0}, {"type": "note_on", "time": 11, "note": 71, "velocity": 114, "channel": 0}, {"type": "note_off", "time": 15, "note": 71, "velocity": 114, "channel": 0}, {"type": "note_on", "time": 5, "note": 72, "velocity": 116, "channel": 0}, {"type": "note_off", "time": 15, "note": 72, "velocity": 116, "channel": 0}, {"type": "note_on", "time": 12, "note": 74, "velocity": 116, "channel": 0}, {"type": "note_off", "time": 96, "note": 74, "velocity": 116, "channel": 0}, {"type": "note_on", "time": 377, "note": 67, "velocity": 121, "channel": 0}, {"type": "note_off", "time": 45, "note": 67, "velocity": 121, "channel": 0}, {"type": "note_on", "time": 10, "note": 66, "velocity": 115, "channel": 0}, {"type": "note_off", "time": 36, "note": 66, "velocity": 115, "channel": 0}, {"type": "note_on", "time": 6, "note": 65, "velocity": 108, "channel": 0}, {"type": "note_off", "time": 38, "note": 65, "velocity": 108, "channel": 0}, {"type": "note_on", "time": 11, "note": 64, "velocity": 106, "channel": 0}, {"type": "note_off", "time": 34, "note": 64, "velocity": 106, "channel": 0}, {"type": "note_on", "time": 7, "note": 63, "velocity": 104, "channel": 0}, {"type": "note_off", "time": 34, "note": 63, "velocity": 104, "channel": 0}, {"type": "note_on", "time": 5, "note": 55, "velocity": 92, "channel": 0}, {"type": "note_off", "time": 38, "note": 55, "velocity": 92, "channel": 0}, {"type": "note_on", "time": 24, "note": 62, "velocity": 106, "channel": 0}, {"type": "note_off", "time": 33, "note": 62, "velocity": 106, "channel": 0}, {"type": "note_on", "time": 17, "note": 60, "velocity": 107, "channel": 0}, {"type": "note_off", "time": 42, "note": 60, "velocity": 107, "channel": 0}, {"type": "note_on", "time": 8, "note": 58, "velocity": 100, "channel": 0}, {"type": "note_off", "time": 53, "note": 58, "velocity": 100, "channel": 0}, {"type": "note_on", "time": 6, "note": 55, "velocity": 110, "channel": 0}, {"type": "note_off", "time": 30, "note": 55, "velocity": 110, "channel": 0}, {"type": "note_on", "time": 0, "note": 57, "velocity": 107, "channel": 0}, {"type": "note_off", "time": 33, "note": 57, "velocity": 107, "channel": 0}, {"type": "note_on", "time": 3, "note": 55, "velocity": 113, "channel": 0}, {"type": "note_off", "time": 41, "note": 55, "velocity": 113, "channel": 0}, {"type": "note_on", "time": 12, "note": 53, "velocity": 106, "channel": 0}, {"type": "note_off", "time": 29, "note": 53, "velocity": 106, "channel": 0}, {"type": "note_on", "time": 11, "note": 51, "velocity": 106, "channel": 0}, {"type": "note_off", "time": 46, "note": 51, "velocity": 106, "channel": 0}, {"type": "note_on", "time": 4, "note": 50, "velocity": 102, "channel": 0}, {"type": "note_off", "time": 35, "note": 50, "velocity": 102, "channel": 0}, {"type": "note_on", "time": 14, "note": 53, "velocity": 107, "channel": 0}, {"type": "note_off", "time": 43, "note": 53, "velocity": 107, "channel": 0}, {"type": "note_on", "time": 11, "note": 56, "velocity": 103, "channel": 0}, {"type": "note_off", "time": 27, "note": 56, "velocity": 103, "channel": 0}, {"type": "note_on", "time": 8, "note": 60, "velocity": 104, "channel": 0}, {"type": "note_off", "time": 54, "note": 60, "velocity": 104, "channel": 0}, {"type": "note_on", "time": 5, "note": 55, "velocity": 106, "channel": 0}, {"type": "note_off", "time": 38, "note": 55, "velocity": 106, "channel": 0}, {"type": "note_on", "time": 3, "note": 56, "velocity": 111, "channel": 0}, {"type": "note_off", "time": 15, "note": 56, "velocity": 111, "channel": 0}, {"type": "note_on", "time": 6, "note": 57, "velocity": 104, "channel": 0}, {"type": "note_off", "time": 22, "note": 57, "velocity": 104, "channel": 0}, {"type": "note_on", "time": 5, "note": 58, "velocity": 105, "channel": 0}, {"type": "note_off", "time": 43, "note": 58, "velocity": 105, "channel": 0}, {"type": "note_on", "time": 14, "note": 55, "velocity": 102, "channel": 0}, {"type": "note_off", "time": 41, "note": 55, "velocity": 102, "channel": 0}, {"type": "note_on", "time": 6, "note": 56, "velocity": 103, "channel": 0}, {"type": "note_off", "time": 41, "note": 56, "velocity": 103, "channel": 0}, {"type": "note_on", "time": 5, "note": 58, "velocity": 100, "channel": 0}, {"type": "note_off", "time": 20, "note": 58, "velocity": 100, "channel": 0}, {"type": "note_on", "time": 15, "note": 60, "velocity": 103, "channel": 0}, {"type": "note_off", "time": 46, "note": 60, "velocity": 103, "channel": 0}, {"type": "note_on", "time": 15, "note": 63, "velocity": 107, "channel": 0}, {"type": "note_off", "time": 29, "note": 63, "velocity": 107, "channel": 0}, {"type": "note_on", "time": 4, "note": 67, "velocity": 118, "channel": 0}, {"type": "note_off", "time": 55, "note": 67, "velocity": 118, "channel": 0}, {"type": "note_on", "time": 7, "note": 64, "velocity": 106, "channel": 0}, {"type": "note_off", "time": 31, "note": 64, "velocity": 106, "channel": 0}, {"type": "note_on", "time": 2, "note": 65, "velocity": 111, "channel": 0}, {"type": "note_off", "time": 52, "note": 65, "velocity": 111, "channel": 0}, {"type": "note_on", "time": 5, "note": 67, "velocity": 116, "channel": 0}, {"type": "note_off", "time": 41, "note": 67, "velocity": 116, "channel": 0}, {"type": "note_on", "time": 3, "note": 68, "velocity": 108, "channel": 0}, {"type": "note_off", "time": 36, "note": 68, "velocity": 108, "channel": 0}, {"type": "note_on", "time": 6, "note": 60, "velocity": 93, "channel": 0}, {"type": "note_off", "time": 55, "note": 60, "velocity": 93, "channel": 0}, {"type": "note_on", "time": 5, "note": 61, "velocity": 88, "channel": 0}, {"type": "note_off", "time": 23, "note": 61, "velocity": 88, "channel": 0}, {"type": "note_on", "time": 7, "note": 62, "velocity": 96, "channel": 0}, {"type": "note_off", "time": 35, "note": 62, "velocity": 96, "channel": 0}, {"type": "note_on", "time": 10, "note": 67, "velocity": 110, "channel": 0}, {"type": "note_off", "time": 63, "note": 67, "velocity": 110, "channel": 0}, {"type": "note_on", "time": 1, "note": 66, "velocity": 110, "channel": 0}, {"type": "note_off", "time": 21, "note": 66, "velocity": 110, "channel": 0}, {"type": "note_on", "time": 10, "note": 65, "velocity": 106, "channel": 0}, {"type": "note_off", "time": 38, "note": 65, "velocity": 106, "channel": 0}, {"type": "note_on", "time": 4, "note": 63, "velocity": 109, "channel": 0}, {"type": "note_off", "time": 48, "note": 63, "velocity": 109, "channel": 0}, {"type": "note_on", "time": 8, "note": 62, "velocity": 111, "channel": 0}, {"type": "note_off", "time": 56, "note": 62, "velocity": 111, "channel": 0}, {"type": "note_on", "time": 509, "note": 60, "velocity": 103, "channel": 0}, {"type": "note_off", "time": 83, "note": 60, "velocity": 103, "channel": 0}, {"type": "note_on", "time": 0, "note": 62, "velocity": 105, "channel": 0}, {"type": "note_off", "time": 24, "note": 62, "velocity": 105, "channel": 0}, {"type": "note_on", "time": 7, "note": 65, "velocity": 108, "channel": 0}, {"type": "note_off", "time": 38, "note": 65, "velocity": 108, "channel": 0}, {"type": "note_on", "time": 6, "note": 68, "velocity": 119, "channel": 0}, {"type": "note_off", "time": 43, "note": 68, "velocity": 119, "channel": 0}, {"type": "note_on", "time": 3, "note": 67, "velocity": 118, "channel": 0}, {"type": "note_off", "time": 38, "note": 67, "velocity": 118, "channel": 0}, {"type": "note_on", "time": 7, "note": 65, "velocity": 110, "channel": 0}, {"type": "note_off", "time": 31, "note": 65, "velocity": 110, "channel": 0}, {"type": "note_on", "time": 5, "note": 64, "velocity": 110, "channel": 0}, {"type": "note_off", "time": 35, "note": 64, "velocity": 110, "channel": 0}, {"type": "note_on", "time": 2, "note": 67, "velocity": 116, "channel": 0}, {"type": "note_off", "time": 24, "note": 67, "velocity": 116, "channel": 0}, {"type": "note_on", "time": 3, "note": 70, "velocity": 111, "channel": 0}, {"type": "note_off", "time": 24, "note": 70, "velocity": 111, "channel": 0}, {"type": "note_on", "time": 7, "note": 73, "velocity": 122, "channel": 0}, {"type": "note_off", "time": 70, "note": 73, "velocity": 122, "channel": 0}, {"type": "note_on", "time": 1, "note": 72, "velocity": 123, "channel": 0}, {"type": "note_off", "time": 68, "note": 72, "velocity": 123, "channel": 0}, {"type": "note_on", "time": 17, "note": 67, "velocity": 108, "channel": 0}, {"type": "note_off", "time": 28, "note": 67, "velocity": 108, "channel": 0}, {"type": "note_on", "time": 6, "note": 70, "velocity": 119, "channel": 0}, {"type": "note_off", "time": 71, "note": 70, "velocity": 119, "channel": 0}, {"type": "note_on", "time": 8, "note": 68, "velocity": 96, "channel": 0}, {"type": "note_off", "time": 92, "note": 68, "velocity": 96, "channel": 0}, {"type": "note_on", "time": 190, "note": 70, "velocity": 122, "channel": 0}, {"type": "note_off", "time": 49, "note": 70, "velocity": 122, "channel": 0}, {"type": "note_on", "time": 10, "note": 68, "velocity": 117, "channel": 0}, {"type": "note_off", "time": 30, "note": 68, "velocity": 117, "channel": 0}, {"type": "note_on", "time": 9, "note": 67, "velocity": 110, "channel": 0}, {"type": "note_off", "time": 59, "note": 67, "velocity": 110, "channel": 0}, {"type": "note_on", "time": 6, "note": 65, "velocity": 108, "channel": 0}, {"type": "note_off", "time": 37, "note": 65, "velocity": 108, "channel": 0}, {"type": "note_on", "time": 2, "note": 64, "velocity": 109, "channel": 0}, {"type": "note_off", "time": 58, "note": 64, "velocity": 109, "channel": 0}, {"type": "note_on", "time": 7, "note": 61, "velocity": 109, "channel": 0}, {"type": "note_off", "time": 34, "note": 61, "velocity": 109, "channel": 0}, {"type": "note_on", "time": 5, "note": 60, "velocity": 102, "channel": 0}, {"type": "note_off", "time": 66, "note": 60, "velocity": 102, "channel": 0}, {"type": "note_on", "time": 205, "note": 63, "velocity": 111, "channel": 0}, {"type": "note_off", "time": 46, "note": 63, "velocity": 111, "channel": 0}, {"type": "note_on", "time": 5, "note": 61, "velocity": 114, "channel": 0}, {"type": "note_off", "time": 32, "note": 61, "velocity": 114, "channel": 0}, {"type": "note_on", "time": 10, "note": 60, "velocity": 100, "channel": 0}, {"type": "note_off", "time": 58, "note": 60, "velocity": 100, "channel": 0}, {"type": "note_on", "time": 2, "note": 58, "velocity": 97, "channel": 0}, {"type": "note_off", "time": 38, "note": 58, "velocity": 97, "channel": 0}, {"type": "note_on", "time": 9, "note": 57, "velocity": 100, "channel": 0}, {"type": "note_off", "time": 25, "note": 57, "velocity": 100, "channel": 0}, {"type": "note_on", "time": 14, "note": 60, "velocity": 107, "channel": 0}, {"type": "note_off", "time": 40, "note": 60, "velocity": 107, "channel": 0}, {"type": "note_on", "time": 6, "note": 63, "velocity": 111, "channel": 0}, {"type": "note_off", "time": 23, "note": 63, "velocity": 111, "channel": 0}, {"type": "note_on", "time": 5, "note": 65, "velocity": 111, "channel": 0}, {"type": "note_off", "time": 52, "note": 65, "velocity": 111, "channel": 0}, {"type": "note_on", "time": 0, "note": 66, "velocity": 110, "channel": 0}, {"type": "note_off", "time": 43, "note": 66, "velocity": 110, "channel": 0}, {"type": "note_on", "time": 2, "note": 65, "velocity": 111, "channel": 0}, {"type": "note_off", "time": 38, "note": 65, "velocity": 111, "channel": 0}, {"type": "note_on", "time": 5, "note": 63, "velocity": 108, "channel": 0}, {"type": "note_off", "time": 66, "note": 63, "velocity": 108, "channel": 0}, {"type": "note_on", "time": 11, "note": 60, "velocity": 100, "channel": 0}, {"type": "note_off", "time": 32, "note": 60, "velocity": 100, "channel": 0}, {"type": "note_on", "time": 5, "note": 61, "velocity": 109, "channel": 0}, {"type": "note_off", "time": 35, "note": 61, "velocity": 109, "channel": 0}, {"type": "note_on", "time": 4, "note": 63, "velocity": 111, "channel": 0}, {"type": "note_off", "time": 46, "note": 63, "velocity": 111, "channel": 0}, {"type": "note_on", "time": 2, "note": 65, "velocity": 109, "channel": 0}, {"type": "note_off", "time": 24, "note": 65, "velocity": 109, "channel": 0}, {"type": "note_on", "time": 5, "note": 68, "velocity": 114, "channel": 0}, {"type": "note_off", "time": 35, "note": 68, "velocity": 114, "channel": 0}, {"type": "note_on", "time": 15, "note": 72, "velocity": 121, "channel": 0}, {"type": "note_off", "time": 46, "note": 72, "velocity": 121, "channel": 0}, {"type": "note_on", "time": 2, "note": 73, "velocity": 121, "channel": 0}, {"type": "note_off", "time": 43, "note": 73, "velocity": 121, "channel": 0}, {"type": "note_on", "time": 7, "note": 70, "velocity": 114, "channel": 0}, {"type": "note_off", "time": 57, "note": 70, "velocity": 114, "channel": 0}, {"type": "note_on", "time": 5, "note": 65, "velocity": 95, "channel": 0}, {"type": "note_off", "time": 10, "note": 65, "velocity": 95, "channel": 0}, {"type": "note_on", "time": 7, "note": 68, "velocity": 113, "channel": 0}, {"type": "note_off", "time": 69, "note": 68, "velocity": 113, "channel": 0}, {"type": "note_on", "time": 12, "note": 63, "velocity": 88, "channel": 0}, {"type": "note_off", "time": 125, "note": 63, "velocity": 88, "channel": 0}, {"type": "end_of_track", "time": 0}]]}