{"ticks_per_beat": 192, "tracks": [[{"type": "track_name", "name": "Melody", "time": 0}, {"type": "set_tempo", "tempo": 375000, "time": 0}, {"type": "key_signature", "key": "G", "time": 0}, {"type": "time_signature", "numerator": 4, "denominator": 4, "clocks_per_click": 24, "notated_32nd_notes_per_beat": 8, "time": 0}, {"type": "note_on", "time": 1937, "note": 67, "velocity": 116, "channel": 0}, {"type": "note_off", "time": 558, "note": 67, "velocity": 116, "channel": 0}, {"type": "note_on", "time": 14, "note": 65, "velocity": 104, "channel": 0}, {"type": "note_off", "time": 16, "note": 65, "velocity": 104, "channel": 0}, {"type": "note_on", "time": 12, "note": 62, "velocity": 122, "channel": 0}, {"type": "note_off", "time": 167, "note": 62, "velocity": 122, "channel": 0}, {"type": "note_on", "time": 16, "note": 60, "velocity": 115, "channel": 0}, {"type": "note_off", "time": 95, "note": 60, "velocity": 115, "channel": 0}, {"type": "note_on", "time": 5, "note": 59, "velocity": 118, "channel": 0}, {"type": "note_off", "time": 22, "note": 59, "velocity": 118, "channel": 0}, {"type": "note_on", "time": 1213, "note": 62, "velocity": 123, "channel": 0}, {"type": "note_off", "time": 136, "note": 62, "velocity": 123, "channel": 0}, {"type": "note_on", "time": 17, "note": 64, "velocity": 119, "channel": 0}, {"type": "note_off", "time": 34, "note": 64, "velocity": 119, "channel": 0}, {"type": "note_on", "time": 133, "note": 62, "velocity": 123, "channel": 0}, {"type": "note_off", "time": 88, "note": 62, "velocity": 123, "channel": 0}, {"type": "note_on", "time": 101, "note": 55, "velocity": 113, "channel": 0}, {"type": "note_off", "time": 72, "note": 55, "velocity": 113, "channel": 0}, {"type": "note_on", "time": 101, "note": 60, "velocity": 120, "channel": 0}, {"type": "note_off", "time": 98, "note": 60, "velocity": 120, "channel": 0}, {"type": "note_on", "time": 81, "note": 62, "velocity": 123, "channel": 0}, {"type": "note_off", "time": 90, "note": 62, "velocity": 123, "channel": 0}, {"type": "note_on", "time": 20, "note": 59, "velocity": 116, "channel": 0}, {"type": "note_off", "time": 85, "note": 59, "velocity": 116, "channel": 0}, {"type": "note_on", "time": 17, "note": 55, "velocity": 114, "channel": 0}, {"type": "note_off", "time": 64, "note": 55, "velocity": 114, "channel": 0}, {"type": "note_on", "time": 25, "note": 57, "velocity": 116, "channel": 0}, {"type": "note_off", "time": 205, "note": 57, "velocity": 116, "channel": 0}, {"type": "note_on", "time": 347, "note": 55, "velocity": 112, "channel": 0}, {"type": "note_off", "time": 124, "note": 55, "velocity": 112, "channel": 0}, {"type": "note_on", "time": 22, "note": 52, "velocity": 118, "channel": 0}, {"type": "note_off", "time": 63, "note": 52, "velocity": 118, "channel": 0}, {"type": "note_on", "time": 12, "note": 55, "velocity": 119, "channel": 0}, {"type": "note_off", "time": 142, "note": 55, "velocity": 119, "channel": 0}, {"type": "note_on", "time": 250, "note": 60, "velocity": 114, "channel": 0}, {"type": "note_off", "time": 119, "note": 60, "velocity": 114, "channel": 0}, {"type": "note_on", "time": 10, "note": 62, "velocity": 121, "channel": 0}, {"type": "note_off", "time": 84, "note": 62, "velocity": 121, "channel": 0}, {"type": "note_on", "time": 355, "note": 59, "velocity": 120, "channel": 0}, {"type": "note_off", "time": 72, "note": 59, "velocity": 120, "channel": 0}, {"type": "note_on", "time": 57, "note": 55, "velocity": 117, "channel": 0}, {"type": "note_off", "time": 66, "note": 55, "velocity": 117, "channel": 0}, {"type": "note_on", "time": 5, "note": 57, "velocity": 119, "channel": 0}, {"type": "note_off", "time": 108, "note": 57, "velocity": 119, "channel": 0}, {"type": "note_on", "time": 8, "note": 55, "velocity": 115, "channel": 0}, {"type": "note_off", "time": 57, "note": 55, "velocity": 115, "channel": 0}, {"type": "note_on", "time": 185, "note": 64, "velocity": 123, "channel": 0}, {"type": "note_off", "time": 101, "note": 64, "velocity": 123, "channel": 0}, {"type": "note_on", "time": 16, "note": 62, "velocity": 124, "channel": 0}, {"type": "note_off", "time": 66, "note": 62, "velocity": 124, "channel": 0}, {"type": "note_on", "time": 8, "note": 58, "velocity": 115, "channel": 0}, {"type": "note_off", "time": 121, "note": 58, "velocity": 115, "channel": 0}, {"type": "note_on", "time": 17, "note": 55, "velocity": 115, "channel": 0}, {"type": "note_off", "time": 78, "note": 55, "velocity": 115, "channel": 0}, {"type": "note_on", "time": 10, "note": 57, "velocity": 112, "channel": 0}, {"type": "note_off", "time": 128, "note": 57, "velocity": 112, "channel": 0}, {"type": "note_on", "time": 608, "note": 59, "velocity": 119, "channel": 0}, {"type": "note_off", "time": 102, "note": 59, "velocity": 119, "channel": 0}, {"type": "note_on", "time": 7, "note": 62, "velocity": 125, "channel": 0}, {"type": "note_off", "time": 76, "note": 62, "velocity": 125, "channel": 0}, {"type": "note_on", "time": 7, "note": 67, "velocity": 119, "channel": 0}, {"type": "note_off", "time": 163, "note": 67, "velocity": 119, "channel": 0}, {"type": "note_on", "time": 21, "note": 69, "velocity": 120, "channel": 0}, {"type": "note_off", "time": 330, "note": 69, "velocity": 120, "channel": 0}, {"type": "note_on", "time": 9, "note": 67, "velocity": 117, "channel": 0}, {"type": "note_off", "time": 28, "note": 67, "velocity": 117, "channel": 0}, {"type": "note_on", "time": 17, "note": 64, "velocity": 107, "channel": 0}, {"type": "note_off", "time": 28, "note": 64, "velocity": 107, "channel": 0}, {"type": "note_on", "time": 10, "note": 62, "velocity": 98, "channel": 0}, {"type": "note_off", "time": 31, "note": 62, "velocity": 98, "channel": 0}, {"type": "note_on", "time": 514, "note": 64, "velocity": 125, "channel": 0}, {"type": "note_off", "time": 114, "note": 64, "velocity": 125, "channel": 0}, {"type": "note_on", "time": 7, "note": 62, "velocity": 121, "channel": 0}, {"type": "note_off", "time": 75, "note": 62, "velocity": 121, "channel": 0}, {"type": "note_on", "time": 5, "note": 67, "velocity": 119, "channel": 0}, {"type": "note_off", "time": 112, "note": 67, "velocity": 119, "channel": 0}, {"type": "note_on", "time": 13, "note": 64, "velocity": 122, "channel": 0}, {"type": "note_off", "time": 50, "note": 64, "velocity": 122, "channel": 0}, {"type": "note_on", "time": 194, "note": 59, "velocity": 123, "channel": 0}, {"type": "note_off", "time": 25, "note": 59, "velocity": 123, "channel": 0}, {"type": "note_on", "time": 4, "note": 60, "velocity": 115, "channel": 0}, {"type": "note_off", "time": 316, "note": 60, "velocity": 115, "channel": 0}, {"type": "note_on", "time": 34, "note": 58, "velocity": 118, "channel": 0}, {"type": "note_off", "time": 45, "note": 58, "velocity": 118, "channel": 0}, {"type": "note_on", "time": 15, "note": 60, "velocity": 117, "channel": 0}, {"type": "note_off", "time": 85, "note": 60, "velocity": 117, "channel": 0}, {"type": "note_on", "time": 15, "note": 58, "velocity": 117, "channel": 0}, {"type": "note_off", "time": 58, "note": 58, "velocity": 117, "channel": 0}, {"type": "note_on", "time": 548, "note": 55, "velocity": 119, "channel": 0}, {"type": "note_off", "time": 88, "note": 55, "velocity": 119, "channel": 0}, {"type": "note_on", "time": 13, "note": 53, "velocity": 119, "channel": 0}, {"type": "note_off", "time": 92, "note": 53, "velocity": 119, "channel": 0}, {"type": "note_on", "time": 20, "note": 55, "velocity": 117, "channel": 0}, {"type": "note_off", "time": 258, "note": 55, "velocity": 117, "channel": 0}, {"type": "note_on", "time": 20, "note": 58, "velocity": 118, "channel": 0}, {"type": "note_off", "time": 83, "note": 58, "velocity": 118, "channel": 0}, {"type": "note_on", "time": 225, "note": 60, "velocity": 115, "channel": 0}, {"type": "note_off", "time": 74, "note": 60, "velocity": 115, "channel": 0}, {"type": "note_on", "time": 25, "note": 62, "velocity": 123, "channel": 0}, {"type": "note_off", "time": 70, "note": 62, "velocity": 123, "channel": 0}, {"type": "note_on", "time": 11, "note": 65, "velocity": 121, "channel": 0}, {"type": "note_off", "time": 98, "note": 65, "velocity": 121, "channel": 0}, {"type": "note_on", "time": 11, "note": 67, "velocity": 119, "channel": 0}, {"type": "note_off", "time": 174, "note": 67, "velocity": 119, "channel": 0}, {"type": "note_on", "time": 15, "note": 70, "velocity": 121, "channel": 0}, {"type": "note_off", "time": 71, "note": 70, "velocity": 121, "channel": 0}, {"type": "note_on", "time": 14, "note": 70, "velocity": 121, "channel": 0}, {"type": "note_off", "time": 81, "note": 70, "velocity": 121, "channel": 0}, {"type": "note_on", "time": 25, "note": 65, "velocity": 120, "channel": 0}, {"type": "note_off", "time": 73, "note": 65, "velocity": 120, "channel": 0}, {"type": "note_on", "time": 9, "note": 67, "velocity": 118, "channel": 0}, {"type": "note_off", "time": 172, "note": 67, "velocity": 118, "channel": 0}, {"type": "note_on", "time": 17, "note": 65, "velocity": 120, "channel": 0}, {"type": "note_off", "time": 86, "note": 65, "velocity": 120, "channel": 0}, {"type": "note_on", "time": 22, "note": 62, "velocity": 123, "channel": 0}, {"type": "note_off", "time": 70, "note": 62, "velocity": 123, "channel": 0}, {"type": "note_on", "time": 12, "note": 60, "velocity": 119, "channel": 0}, {"type": "note_off", "time": 72, "note": 60, "velocity": 119, "channel": 0}, {"type": "note_on", "time": 16, "note": 62, "velocity": 127, "channel": 0}, {"type": "note_off", "time": 71, "note": 62, "velocity": 127, "channel": 0}, {"type": "note_on", "time": 24, "note": 62, "velocity": 122, "channel": 0}, {"type": "note_off", "time": 109, "note": 62, "velocity": 122, "channel": 0}, {"type": "note_on", "time": 109, "note": 69, "velocity": 120, "channel": 0}, {"type": "note_off", "time": 15, "note": 69, "velocity": 120, "channel": 0}, {"type": "note_on", "time": 9, "note": 70, "velocity": 121, "channel": 0}, {"type": "note_off", "time": 71, "note": 70, "velocity": 121, "channel": 0}, {"type": "note_on", "time": 90, "note": 69, "velocity": 119, "channel": 0}, {"type": "note_off", "time": 67, "note": 69, "velocity": 119, "channel": 0}, {"type": "note_on", "time": 7, "note": 70, "velocity": 119, "channel": 0}, {"type": "note_off", "time": 123, "note": 70, "velocity": 119, "channel": 0}, {"type": "note_on", "time": 6, "note": 67, "velocity": 115, "channel": 0}, {"type": "note_off", "time": 179, "note": 67, "velocity": 115, "channel": 0}, {"type": "note_on", "time": 613, "note": 62, "velocity": 122, "channel": 0}, {"type": "note_off", "time": 147, "note": 62, "velocity": 122, "channel": 0}, {"type": "note_on", "time": 8, "note": 65, "velocity": 112, "channel": 0}, {"type": "note_off", "time": 28, "note": 65, "velocity": 112, "channel": 0}, {"type": "note_on", "time": 121, "note": 65, "velocity": 125, "channel": 0}, {"type": "note_off", "time": 17, "note": 65, "velocity": 125, "channel": 0}, {"type": "note_on", "time": 11, "note": 67, "velocity": 120, "channel": 0}, {"type": "note_off", "time": 83, "note": 67, "velocity": 120, "channel": 0}, {"type": "note_on", "time": 67, "note": 65, "velocity": 119, "channel": 0}, {"type": "note_off", "time": 100, "note": 65, "velocity": 119, "channel": 0}, {"type": "note_on", "time": 10, "note": 62, "velocity": 122, "channel": 0}, {"type": "note_off", "time": 415, "note": 62, "velocity": 122, "channel": 0}, {"type": "note_on", "time": 195, "note": 54, "velocity": 103, "channel": 0}, {"type": "note_off", "time": 65, "note": 54, "velocity": 103, "channel": 0}, {"type": "note_on", "time": 31, "note": 58, "velocity": 116, "channel": 0}, {"type": "note_off", "time": 85, "note": 58, "velocity": 116, "channel": 0}, {"type": "note_on", "time": 103, "note": 60, "velocity": 118, "channel": 0}, {"type": "note_off", "time": 201, "note": 60, "velocity": 118, "channel": 0}, {"type": "note_on", "time": 8, "note": 62, "velocity": 122, "channel": 0}, {"type": "note_off", "time": 68, "note": 62, "velocity": 122, "channel": 0}, {"type": "note_on", "time": 129, "note": 60, "velocity": 116, "channel": 0}, {"type": "note_off", "time": 110, "note": 60, "velocity": 116, "channel": 0}, {"type": "note_on", "time": 17, "note": 58, "velocity": 115, "channel": 0}, {"type": "note_off", "time": 70, "note": 58, "velocity": 115, "channel": 0}, {"type": "note_on", "time": 14, "note": 55, "velocity": 117, "channel": 0}, {"type": "note_off", "time": 71, "note": 55, "velocity": 117, "channel": 0}, {"type": "note_on", "time": 28, "note": 53, "velocity": 118, "channel": 0}, {"type": "note_off", "time": 77, "note": 53, "velocity": 118, "channel": 0}, {"type": "note_on", "time": 30, "note": 55, "velocity": 116, "channel": 0}, {"type": "note_off", "time": 166, "note": 55, "velocity": 116, "channel": 0}, {"type": "note_on", "time": 11, "note": 50, "velocity": 119, "channel": 0}, {"type": "note_off", "time": 71, "note": 50, "velocity": 119, "channel": 0}, {"type": "note_on", "time": 9, "note": 53, "velocity": 123, "channel": 0}, {"type": "note_off", "time": 92, "note": 53, "velocity": 123, "channel": 0}, {"type": "note_on", "time": 8, "note": 48, "velocity": 117, "channel": 0}, {"type": "note_off", "time": 129, "note": 48, "velocity": 117, "channel": 0}, {"type": "note_on", "time": 4, "note": 50, "velocity": 119, "channel": 0}, {"type": "note_off", "time": 156, "note": 50, "velocity": 119, "channel": 0}, {"type": "note_on", "time": 7, "note": 53, "velocity": 110, "channel": 0}, {"type": "note_off", "time": 193, "note": 53, "velocity": 110, "channel": 0}, {"type": "note_on", "time": 11, "note": 55, "velocity": 115, "channel": 0}, {"type": "note_off", "time": 154, "note": 55, "velocity": 115, "channel": 0}, {"type": "note_on", "time": 22, "note": 58, "velocity": 116, "channel": 0}, {"type": "note_off", "time": 163, "note": 58, "velocity": 116, "channel": 0}, {"type": "note_on", "time": 25, "note": 60, "velocity": 120, "channel": 0}, {"type": "note_off", "time": 66, "note": 60, "velocity": 120, "channel": 0}, {"type": "note_on", "time": 5, "note": 62, "velocity": 122, "channel": 0}, {"type": "note_off", "time": 93, "note": 62, "velocity": 122, "channel": 0}, {"type": "note_on", "time": 14, "note": 65, "velocity": 121, "channel": 0}, {"type": "note_off", "time": 83, "note": 65, "velocity": 121, "channel": 0}, {"type": "note_on", "time": 20, "note": 67, "velocity": 119, "channel": 0}, {"type": "note_off", "time": 75, "note": 67, "velocity": 119, "channel": 0}, {"type": "note_on", "time": 22, "note": 70, "velocity": 121, "channel": 0}, {"type": "note_off", "time": 32, "note": 70, "velocity": 121, "channel": 0}, {"type": "note_on", "time": 56, "note": 72, "velocity": 121, "channel": 0}, {"type": "note_off", "time": 92, "note": 72, "velocity": 121, "channel": 0}, {"type": "note_on", "time": 13, "note": 67, "velocity": 116, "channel": 0}, {"type": "note_off", "time": 83, "note": 67, "velocity": 116, "channel": 0}, {"type": "note_on", "time": 17, "note": 70, "velocity": 116, "channel": 0}, {"type": "note_off", "time": 163, "note": 70, "velocity": 116, "channel": 0}, {"type": "note_on", "time": 19, "note": 67, "velocity": 115, "channel": 0}, {"type": "note_off", "time": 87, "note": 67, "velocity": 115, "channel": 0}, {"type": "note_on", "time": 20, "note": 65, "velocity": 120, "channel": 0}, {"type": "note_off", "time": 46, "note": 65, "velocity": 120, "channel": 0}, {"type": "note_on", "time": 23, "note": 60, "velocity": 118, "channel": 0}, {"type": "note_off", "time": 56, "note": 60, "velocity": 118, "channel": 0}, {"type": "note_on", "time": 5, "note": 62, "velocity": 116, "channel": 0}, {"type": "note_off", "time": 46, "note": 62, "velocity": 116, "channel": 0}, {"type": "note_on", "time": 4, "note": 60, "velocity": 117, "channel": 0}, {"type": "note_off", "time": 69, "note": 60, "velocity": 117, "channel": 0}, {"type": "note_on", "time": 26, "note": 58, "velocity": 116, "channel": 0}, {"type": "note_off", "time": 83, "note": 58, "velocity": 116, "channel": 0}, {"type": "note_on", "time": 20, "note": 55, "velocity": 116, "channel": 0}, {"type": "note_off", "time": 80, "note": 55, "velocity": 116, "channel": 0}, {"type": "note_on", "time": 4, "note": 58, "velocity": 112, "channel": 0}, {"type": "note_off", "time": 175, "note": 58, "velocity": 112, "channel": 0}, {"type": "note_on", "time": 16, "note": 60, "velocity": 122, "channel": 0}, {"type": "note_off", "time": 77, "note": 60, "velocity": 122, "channel": 0}, {"type": "note_on", "time": 624, "note": 67, "velocity": 120, "channel": 0}, {"type": "note_off", "time": 75, "note": 67, "velocity": 120, "channel": 0}, {"type": "note_on", "time": 83, "note": 67, "velocity": 122, "channel": 0}, {"type": "note_off", "time": 75, "note": 67, "velocity": 122, "channel": 0}, {"type": "note_on", "time": 108, "note": 72, "velocity": 122, "channel": 0}, {"type": "note_off", "time": 46, "note": 72, "velocity": 122, "channel": 0}, {"type": "note_on", "time": 5, "note": 73, "velocity": 121, "channel": 0}, {"type": "note_off", "time": 29, "note": 73, "velocity": 121, "channel": 0}, {"type": "note_on", "time": 7, "note": 74, "velocity": 118, "channel": 0}, {"type": "note_off", "time": 172, "note": 74, "velocity": 118, "channel": 0}, {"type": "note_on", "time": 141, "note": 72, "velocity": 119, "channel": 0}, {"type": "note_off", "time": 117, "note": 72, "velocity": 119, "channel": 0}, {"type": "note_on", "time": 14, "note": 67, "velocity": 118, "channel": 0}, {"type": "note_off", "time": 50, "note": 67, "velocity": 118, "channel": 0}, {"type": "note_on", "time": 84, "note": 69, "velocity": 117, "channel": 0}, {"type": "note_off", "time": 25, "note": 69, "velocity": 117, "channel": 0}, {"type": "note_on", "time": 8, "note": 70, "velocity": 114, "channel": 0}, {"type": "note_off", "time": 93, "note": 70, "velocity": 114, "channel": 0}, {"type": "note_on", "time": 35, "note": 69, "velocity": 111, "channel": 0}, {"type": "note_off", "time": 25, "note": 69, "velocity": 111, "channel": 0}, {"type": "note_on", "time": 10, "note": 72, "velocity": 117, "channel": 0}, {"type": "note_off", "time": 87, "note": 72, "velocity": 117, "channel": 0}, {"type": "note_on", "time": 47, "note": 70, "velocity": 117, "channel": 0}, {"type": "note_off", "time": 77, "note": 70, "velocity": 117, "channel": 0}, {"type": "note_on", "time": 7, "note": 67, "velocity": 114, "channel": 0}, {"type": "note_off", "time": 264, "note": 67, "velocity": 114, "channel": 0}, {"type": "note_on", "time": 22, "note": 65, "velocity": 122, "channel": 0}, {"type": "note_off", "time": 89, "note": 65, "velocity": 122, "channel": 0}, {"type": "note_on", "time": 11, "note": 64, "velocity": 116, "channel": 0}, {"type": "note_off", "time": 129, "note": 64, "velocity": 116, "channel": 0}, {"type": "note_on", "time": 10, "note": 65, "velocity": 117, "channel": 0}, {"type": "note_off", "time": 92, "note": 65, "velocity": 117, "channel": 0}, {"type": "note_on", "time": 28, "note": 62, "velocity": 119, "channel": 0}, {"type": "note_off", "time": 196, "note": 62, "velocity": 119, "channel": 0}, {"type": "note_on", "time": 4, "note": 61, "velocity": 122, "channel": 0}, {"type": "note_off", "time": 62, "note": 61, "velocity": 122, "channel": 0}, {"type": "note_on", "time": 14, "note": 60, "velocity": 119, "channel": 0}, {"type": "note_off", "time": 29, "note": 60, "velocity": 119, "channel": 0}, {"type": "note_on", "time": 1335, "note": 65, "velocity": 111, "channel": 0}, {"type": "note_off", "time": 26, "note": 65, "velocity": 111, "channel": 0}, {"type": "note_on", "time": 16, "note": 69, "velocity": 118, "channel": 0}, {"type": "note_off", "time": 66, "note": 69, "velocity": 118, "channel": 0}, {"type": "note_on", "time": 19, "note": 67, "velocity": 110, "channel": 0}, {"type": "note_off", "time": 35, "note": 67, "velocity": 110, "channel": 0}, {"type": "note_on", "time": 124, "note": 67, "velocity": 123, "channel": 0}, {"type": "note_off", "time": 39, "note": 67, "velocity": 123, "channel": 0}, {"type": "note_on", "time": 6, "note": 69, "velocity": 119, "channel": 0}, {"type": "note_off", "time": 407, "note": 69, "velocity": 119, "channel": 0}, {"type": "note_on", "time": 24, "note": 67, "velocity": 107, "channel": 0}, {"type": "note_off", "time": 92, "note": 67, "velocity": 107, "channel": 0}, {"type": "note_on", "time": 23, "note": 69, "velocity": 118, "channel": 0}, {"type": "note_off", "time": 65, "note": 69, "velocity": 118, "channel": 0}, {"type": "note_on", "time": 5, "note": 67, "velocity": 117, "channel": 0}, {"type": "note_off", "time": 80, "note": 67, "velocity": 117, "channel": 0}, {"type": "note_on", "time": 17, "note": 65, "velocity": 115, "channel": 0}, {"type": "note_off", "time": 83, "note": 65, "velocity": 115, "channel": 0}, {"type": "note_on", "time": 22, "note": 62, "velocity": 124, "channel": 0}, {"type": "note_off", "time": 80, "note": 62, "velocity": 124, "channel": 0}, {"type": "note_on", "time": 8, "note": 61, "velocity": 119, "channel": 0}, {"type": "note_off", "time": 66, "note": 61, "velocity": 119, "channel": 0}, {"type": "note_on", "time": 17, "note": 60, "velocity": 117, "channel": 0}, {"type": "note_off", "time": 83, "note": 60, "velocity": 117, "channel": 0}, {"type": "note_on", "time": 17, "note": 58, "velocity": 116, "channel": 0}, {"type": "note_off", "time": 83, "note": 58, "velocity": 116, "channel": 0}, {"type": "note_on", "time": 2, "note": 60, "velocity": 116, "channel": 0}, {"type": "note_off", "time": 93, "note": 60, "velocity": 116, "channel": 0}, {"type": "note_on", "time": 38, "note": 58, "velocity": 114, "channel": 0}, {"type": "note_off", "time": 53, "note": 58, "velocity": 114, "channel": 0}, {"type": "note_on", "time": 25, "note": 55, "velocity": 120, "channel": 0}, {"type": "note_off", "time": 74, "note": 55, "velocity": 120, "channel": 0}, {"type": "note_on", "time": 20, "note": 53, "velocity": 117, "channel": 0}, {"type": "note_off", "time": 77, "note": 53, "velocity": 117, "channel": 0}, {"type": "note_on", "time": 26, "note": 55, "velocity": 116, "channel": 0}, {"type": "note_off", "time": 331, "note": 55, "velocity": 116, "channel": 0}, {"type": "note_on", "time": 32, "note": 58, "velocity": 118, "channel": 0}, {"type": "note_off", "time": 87, "note": 58, "velocity": 118, "channel": 0}, {"type": "note_on", "time": 14, "note": 60, "velocity": 117, "channel": 0}, {"type": "note_off", "time": 87, "note": 60, "velocity": 117, "channel": 0}, {"type": "note_on", "time": 14, "note": 58, "velocity": 113, "channel": 0}, {"type": "note_off", "time": 78, "note": 58, "velocity": 113, "channel": 0}, {"type": "note_on", "time": 11, "note": 55, "velocity": 114, "channel": 0}, {"type": "note_off", "time": 65, "note": 55, "velocity": 114, "channel": 0}, {"type": "note_on", "time": 29, "note": 64, "velocity": 122, "channel": 0}, {"type": "note_off", "time": 84, "note": 64, "velocity": 122, "channel": 0}, {"type": "note_on", "time": 17, "note": 62, "velocity": 118, "channel": 0}, {"type": "note_off", "time": 80, "note": 62, "velocity": 118, "channel": 0}, {"type": "note_on", "time": 13, "note": 64, "velocity": 125, "channel": 0}, {"type": "note_off", "time": 87, "note": 64, "velocity": 125, "channel": 0}, {"type": "note_on", "time": 20, "note": 62, "velocity": 122, "channel": 0}, {"type": "note_off", "time": 69, "note": 62, "velocity": 122, "channel": 0}, {"type": "note_on", "time": 23, "note": 64, "velocity": 122, "channel": 0}, {"type": "note_off", "time": 141, "note": 64, "velocity": 122, "channel": 0}, {"type": "note_on", "time": 31, "note": 67, "velocity": 120, "channel": 0}, {"type": "note_off", "time": 86, "note": 67, "velocity": 120, "channel": 0}, {"type": "note_on", "time": 475, "note": 55, "velocity": 113, "channel": 0}, {"type": "note_off", "time": 87, "note": 55, "velocity": 113, "channel": 0}, {"type": "note_on", "time": 22, "note": 58, "velocity": 118, "channel": 0}, {"type": "note_off", "time": 62, "note": 58, "velocity": 118, "channel": 0}, {"type": "note_on", "time": 13, "note": 60, "velocity": 121, "channel": 0}, {"type": "note_off", "time": 74, "note": 60, "velocity": 121, "channel": 0}, {"type": "note_on", "time": 8, "note": 62, "velocity": 123, "channel": 0}, {"type": "note_off", "time": 86, "note": 62, "velocity": 123, "channel": 0}, {"type": "note_on", "time": 23, "note": 64, "velocity": 125, "channel": 0}, {"type": "note_off", "time": 89, "note": 64, "velocity": 125, "channel": 0}, {"type": "note_on", "time": 16, "note": 62, "velocity": 125, "channel": 0}, {"type": "note_off", "time": 66, "note": 62, "velocity": 125, "channel": 0}, {"type": "note_on", "time": 38, "note": 57, "velocity": 116, "channel": 0}, {"type": "note_off", "time": 75, "note": 57, "velocity": 116, "channel": 0}, {"type": "note_on", "time": 13, "note": 55, "velocity": 114, "channel": 0}, {"type": "note_off", "time": 81, "note": 55, "velocity": 114, "channel": 0}, {"type": "note_on", "time": 17, "note": 57, "velocity": 119, "channel": 0}, {"type": "note_off", "time": 81, "note": 57, "velocity": 119, "channel": 0}, {"type": "note_on", "time": 19, "note": 57, "velocity": 116, "channel": 0}, {"type": "note_off", "time": 75, "note": 57, "velocity": 116, "channel": 0}, {"type": "note_on", "time": 31, "note": 55, "velocity": 118, "channel": 0}, {"type": "note_off", "time": 89, "note": 55, "velocity": 118, "channel": 0}, {"type": "note_on", "time": 10, "note": 53, "velocity": 108, "channel": 0}, {"type": "note_off", "time": 60, "note": 53, "velocity": 108, "channel": 0}, {"type": "end_of_track", "time": 0}]]}