{"ticks_per_beat": 192, "tracks": [[{"type": "track_name", "name": "Melody", "time": 0}, {"type": "set_tempo", "tempo": 322580, "time": 0}, {"type": "key_signature", "key": "Eb", "time": 0}, {"type": "time_signature", "numerator": 4, "denominator": 4, "clocks_per_click": 24, "notated_32nd_notes_per_beat": 8, "time": 0}, {"type": "note_on", "time": 2837, "note": 58, "velocity": 95, "channel": 0}, {"type": "note_off", "time": 34, "note": 58, "velocity": 95, "channel": 0}, {"type": "note_on", "time": 0, "note": 60, "velocity": 103, "channel": 0}, {"type": "note_off", "time": 33, "note": 60, "velocity": 103, "channel": 0}, {"type": "note_on", "time": 7, "note": 62, "velocity": 104, "channel": 0}, {"type": "note_off", "time": 37, "note": 62, "velocity": 104, "channel": 0}, {"type": "note_on", "time": 7, "note": 63, "velocity": 112, "channel": 0}, {"type": "note_off", "time": 74, "note": 63, "velocity": 112, "channel": 0}, {"type": "note_on", "time": 21, "note": 65, "velocity": 107, "channel": 0}, {"type": "note_off", "time": 52, "note": 65, "velocity": 107, "channel": 0}, {"type": "note_on", "time": 16, "note": 67, "velocity": 116, "channel": 0}, {"type": "note_off", "time": 93, "note": 67, "velocity": 116, "channel": 0}, {"type": "note_on", "time": 3, "note": 68, "velocity": 117, "channel": 0}, {"type": "note_off", "time": 73, "note": 68, "velocity": 117, "channel": 0}, {"type": "note_on", "time": 9, "note": 69, "velocity": 123, "channel": 0}, {"type": "note_off", "time": 106, "note": 69, "velocity": 123, "channel": 0}, {"type": "note_on", "time": 3, "note": 70, "velocity": 122, "channel": 0}, {"type": "note_off", "time": 77, "note": 70, "velocity": 122, "channel": 0}, {"type": "note_on", "time": 4, "note": 71, "velocity": 118, "channel": 0}, {"type": "note_off", "time": 119, "note": 71, "velocity": 118, "channel": 0}, {"type": "note_on", "time": 29, "note": 69, "velocity": 100, "channel": 0}, {"type": "note_off", "time": 38, "note": 69, "velocity": 100, "channel": 0}, {"type": "note_on", "time": 3, "note": 70, "velocity": 119, "channel": 0}, {"type": "note_off", "time": 21, "note": 70, "velocity": 119, "channel": 0}, {"type": "note_on", "time": 10, "note": 72, "velocity": 115, "channel": 0}, {"type": "note_off", "time": 21, "note": 72, "velocity": 115, "channel": 0}, {"type": "note_on", "time": 12, "note": 70, "velocity": 112, "channel": 0}, {"type": "note_off", "time": 30, "note": 70, "velocity": 112, "channel": 0}, {"type": "note_on", "time": 9, "note": 69, "velocity": 112, "channel": 0}, {"type": "note_off", "time": 55, "note": 69, "velocity": 112, "channel": 0}, {"type": "note_on", "time": 13, "note": 67, "velocity": 114, "channel": 0}, {"type": "note_off", "time": 68, "note": 67, "velocity": 114, "channel": 0}, {"type": "note_on", "time": 14, "note": 70, "velocity": 93, "channel": 0}, {"type": "note_off", "time": 48, "note": 70, "velocity": 93, "channel": 0}, {"type": "note_on", "time": 5, "note": 72, "velocity": 101, "channel": 0}, {"type": "note_off", "time": 62, "note": 72, "velocity": 101, "channel": 0}, {"type": "note_on", "time": 12, "note": 77, "velocity": 123, "channel": 0}, {"type": "note_off", "time": 98, "note": 77, "velocity": 123, "channel": 0}, {"type": "note_on", "time": 8, "note": 76, "velocity": 123, "channel": 0}, {"type": "note_off", "time": 77, "note": 76, "velocity": 123, "channel": 0}, {"type": "note_on", "time": 9, "note": 75, "velocity": 115, "channel": 0}, {"type": "note_off", "time": 116, "note": 75, "velocity": 115, "channel": 0}, {"type": "note_on", "time": 9, "note": 72, "velocity": 89, "channel": 0}, {"type": "note_off", "time": 54, "note": 72, "velocity": 89, "channel": 0}, {"type": "note_on", "time": 4, "note": 73, "velocity": 118, "channel": 0}, {"type": "note_off", "time": 137, "note": 73, "velocity": 118, "channel": 0}, {"type": "note_on", "time": 9, "note": 70, "velocity": 81, "channel": 0}, {"type": "note_off", "time": 198, "note": 70, "velocity": 81, "channel": 0}, {"type": "note_on", "time": 765, "note": 75, "velocity": 121, "channel": 0}, {"type": "note_off", "time": 125, "note": 75, "velocity": 121, "channel": 0}, {"type": "note_on", "time": 66, "note": 73, "velocity": 117, "channel": 0}, {"type": "note_off", "time": 100, "note": 73, "velocity": 117, "channel": 0}, {"type": "note_on", "time": 45, "note": 75, "velocity": 112, "channel": 0}, {"type": "note_off", "time": 92, "note": 75, "velocity": 112, "channel": 0}, {"type": "note_on", "time": 3, "note": 71, "velocity": 119, "channel": 0}, {"type": "note_off", "time": 61, "note": 71, "velocity": 119, "channel": 0}, {"type": "note_on", "time": 1, "note": 72, "velocity": 113, "channel": 0}, {"type": "note_off", "time": 92, "note": 72, "velocity": 113, "channel": 0}, {"type": "note_on", "time": 13, "note": 66, "velocity": 91, "channel": 0}, {"type": "note_off", "time": 114, "note": 66, "velocity": 91, "channel": 0}, {"type": "note_on", "time": 438, "note": 69, "velocity": 114, "channel": 0}, {"type": "note_off", "time": 37, "note": 69, "velocity": 114, "channel": 0}, {"type": "note_on", "time": 2, "note": 70, "velocity": 115, "channel": 0}, {"type": "note_off", "time": 151, "note": 70, "velocity": 115, "channel": 0}, {"type": "note_on", "time": 18, "note": 68, "velocity": 103, "channel": 0}, {"type": "note_off", "time": 90, "note": 68, "velocity": 103, "channel": 0}, {"type": "note_on", "time": 24, "note": 63, "velocity": 87, "channel": 0}, {"type": "note_off", "time": 57, "note": 63, "velocity": 87, "channel": 0}, {"type": "note_on", "time": 7, "note": 60, "velocity": 86, "channel": 0}, {"type": "note_off", "time": 67, "note": 60, "velocity": 86, "channel": 0}, {"type": "note_on", "time": 3, "note": 67, "velocity": 114, "channel": 0}, {"type": "note_off", "time": 95, "note": 67, "velocity": 114, "channel": 0}, {"type": "note_on", "time": 10, "note": 66, "velocity": 103, "channel": 0}, {"type": "note_off", "time": 71, "note": 66, "velocity": 103, "channel": 0}, {"type": "note_on", "time": 7, "note": 65, "velocity": 93, "channel": 0}, {"type": "note_off", "time": 97, "note": 65, "velocity": 93, "channel": 0}, {"type": "note_on", "time": 9, "note": 64, "velocity": 111, "channel": 0}, {"type": "note_off", "time": 67, "note": 64, "velocity": 111, "channel": 0}, {"type": "note_on", "time": 6, "note": 63, "velocity": 99, "channel": 0}, {"type": "note_off", "time": 94, "note": 63, "velocity": 99, "channel": 0}, {"type": "note_on", "time": 25, "note": 59, "velocity": 101, "channel": 0}, {"type": "note_off", "time": 70, "note": 59, "velocity": 101, "channel": 0}, {"type": "note_on", "time": 3, "note": 58, "velocity": 91, "channel": 0}, {"type": "note_off", "time": 88, "note": 58, "velocity": 91, "channel": 0}, {"type": "note_on", "time": 14, "note": 56, "velocity": 102, "channel": 0}, {"type": "note_off", "time": 59, "note": 56, "velocity": 102, "channel": 0}, {"type": "note_on", "time": 9, "note": 55, "velocity": 92, "channel": 0}, {"type": "note_off", "time": 113, "note": 55, "velocity": 92, "channel": 0}, {"type": "note_on", "time": 33, "note": 62, "velocity": 90, "channel": 0}, {"type": "note_off", "time": 46, "note": 62, "velocity": 90, "channel": 0}, {"type": "note_on", "time": 28, "note": 65, "velocity": 107, "channel": 0}, {"type": "note_off", "time": 95, "note": 65, "velocity": 107, "channel": 0}, {"type": "note_on", "time": 31, "note": 61, "velocity": 96, "channel": 0}, {"type": "note_off", "time": 61, "note": 61, "velocity": 96, "channel": 0}, {"type": "note_on", "time": 16, "note": 64, "velocity": 115, "channel": 0}, {"type": "note_off", "time": 85, "note": 64, "velocity": 115, "channel": 0}, {"type": "note_on", "time": 22, "note": 61, "velocity": 106, "channel": 0}, {"type": "note_off", "time": 79, "note": 61, "velocity": 106, "channel": 0}, {"type": "note_on", "time": 4, "note": 57, "velocity": 98, "channel": 0}, {"type": "note_off", "time": 71, "note": 57, "velocity": 98, "channel": 0}, {"type": "note_on", "time": 31, "note": 54, "velocity": 107, "channel": 0}, {"type": "note_off", "time": 71, "note": 54, "velocity": 107, "channel": 0}, {"type": "note_on", "time": 9, "note": 53, "velocity": 96, "channel": 0}, {"type": "note_off", "time": 134, "note": 53, "velocity": 96, "channel": 0}, {"type": "note_on", "time": 16, "note": 60, "velocity": 86, "channel": 0}, {"type": "note_off", "time": 31, "note": 60, "velocity": 86, "channel": 0}, {"type": "note_on", "time": 5, "note": 63, "velocity": 107, "channel": 0}, {"type": "note_off", "time": 127, "note": 63, "velocity": 107, "channel": 0}, {"type": "note_on", "time": 77, "note": 62, "velocity": 107, "channel": 0}, {"type": "note_off", "time": 95, "note": 62, "velocity": 107, "channel": 0}, {"type": "note_on", "time": 12, "note": 65, "velocity": 110, "channel": 0}, {"type": "note_off", "time": 75, "note": 65, "velocity": 110, "channel": 0}, {"type": "note_on", "time": 12, "note": 60, "velocity": 94, "channel": 0}, {"type": "note_off", "time": 101, "note": 60, "velocity": 94, "channel": 0}, {"type": "note_on", "time": 7, "note": 59, "velocity": 107, "channel": 0}, {"type": "note_off", "time": 69, "note": 59, "velocity": 107, "channel": 0}, {"type": "note_on", "time": 12, "note": 58, "velocity": 101, "channel": 0}, {"type": "note_off", "time": 68, "note": 58, "velocity": 101, "channel": 0}, {"type": "note_on", "time": 5, "note": 57, "velocity": 103, "channel": 0}, {"type": "note_off", "time": 73, "note": 57, "velocity": 103, "channel": 0}, {"type": "note_on", "time": 3, "note": 56, "velocity": 90, "channel": 0}, {"type": "note_off", "time": 66, "note": 56, "velocity": 90, "channel": 0}, {"type": "note_on", "time": 8, "note": 58, "velocity": 82, "channel": 0}, {"type": "note_off", "time": 30, "note": 58, "velocity": 82, "channel": 0}, {"type": "note_on", "time": 12, "note": 60, "velocity": 83, "channel": 0}, {"type": "note_off", "time": 43, "note": 60, "velocity": 83, "channel": 0}, {"type": "note_on", "time": 5, "note": 63, "velocity": 80, "channel": 0}, {"type": "note_off", "time": 41, "note": 63, "velocity": 80, "channel": 0}, {"type": "note_on", "time": 10, "note": 67, "velocity": 110, "channel": 0}, {"type": "note_off", "time": 87, "note": 67, "velocity": 110, "channel": 0}, {"type": "note_on", "time": 8, "note": 66, "velocity": 115, "channel": 0}, {"type": "note_off", "time": 72, "note": 66, "velocity": 115, "channel": 0}, {"type": "note_on", "time": 15, "note": 65, "velocity": 105, "channel": 0}, {"type": "note_off", "time": 91, "note": 65, "velocity": 105, "channel": 0}, {"type": "note_on", "time": 9, "note": 64, "velocity": 109, "channel": 0}, {"type": "note_off", "time": 63, "note": 64, "velocity": 109, "channel": 0}, {"type": "note_on", "time": 9, "note": 63, "velocity": 100, "channel": 0}, {"type": "note_off", "time": 112, "note": 63, "velocity": 100, "channel": 0}, {"type": "note_on", "time": 19, "note": 65, "velocity": 77, "channel": 0}, {"type": "note_off", "time": 55, "note": 65, "velocity": 77, "channel": 0}, {"type": "note_on", "time": 2, "note": 67, "velocity": 106, "channel": 0}, {"type": "note_off", "time": 133, "note": 67, "velocity": 106, "channel": 0}, {"type": "note_on", "time": 55, "note": 75, "velocity": 114, "channel": 0}, {"type": "note_off", "time": 141, "note": 75, "velocity": 114, "channel": 0}, {"type": "note_on", "time": 11, "note": 72, "velocity": 96, "channel": 0}, {"type": "note_off", "time": 135, "note": 72, "velocity": 96, "channel": 0}, {"type": "note_on", "time": 801, "note": 77, "velocity": 121, "channel": 0}, {"type": "note_off", "time": 56, "note": 77, "velocity": 121, "channel": 0}, {"type": "note_on", "time": 1, "note": 78, "velocity": 118, "channel": 0}, {"type": "note_off", "time": 146, "note": 78, "velocity": 118, "channel": 0}, {"type": "note_on", "time": 4, "note": 75, "velocity": 97, "channel": 0}, {"type": "note_off", "time": 74, "note": 75, "velocity": 97, "channel": 0}, {"type": "note_on", "time": 11, "note": 77, "velocity": 113, "channel": 0}, {"type": "note_off", "time": 101, "note": 77, "velocity": 113, "channel": 0}, {"type": "note_on", "time": 4, "note": 78, "velocity": 107, "channel": 0}, {"type": "note_off", "time": 97, "note": 78, "velocity": 107, "channel": 0}, {"type": "note_on", "time": 5, "note": 77, "velocity": 101, "channel": 0}, {"type": "note_off", "time": 111, "note": 77, "velocity": 101, "channel": 0}, {"type": "note_on", "time": 563, "note": 75, "velocity": 112, "channel": 0}, {"type": "note_off", "time": 49, "note": 75, "velocity": 112, "channel": 0}, {"type": "note_on", "time": 7, "note": 77, "velocity": 122, "channel": 0}, {"type": "note_off", "time": 89, "note": 77, "velocity": 122, "channel": 0}, {"type": "note_on", "time": 3, "note": 79, "velocity": 105, "channel": 0}, {"type": "note_off", "time": 45, "note": 79, "velocity": 105, "channel": 0}, {"type": "note_on", "time": 10, "note": 78, "velocity": 114, "channel": 0}, {"type": "note_off", "time": 58, "note": 78, "velocity": 114, "channel": 0}, {"type": "note_on", "time": 11, "note": 77, "velocity": 115, "channel": 0}, {"type": "note_off", "time": 88, "note": 77, "velocity": 115, "channel": 0}, {"type": "note_on", "time": 6, "note": 75, "velocity": 106, "channel": 0}, {"type": "note_off", "time": 94, "note": 75, "velocity": 106, "channel": 0}, {"type": "note_on", "time": 21, "note": 74, "velocity": 107, "channel": 0}, {"type": "note_off", "time": 116, "note": 74, "velocity": 107, "channel": 0}, {"type": "note_on", "time": 7, "note": 73, "velocity": 93, "channel": 0}, {"type": "note_off", "time": 233, "note": 73, "velocity": 93, "channel": 0}, {"type": "note_on", "time": 481, "note": 65, "velocity": 96, "channel": 0}, {"type": "note_off", "time": 55, "note": 65, "velocity": 96, "channel": 0}, {"type": "note_on", "time": 1, "note": 70, "velocity": 113, "channel": 0}, {"type": "note_off", "time": 108, "note": 70, "velocity": 113, "channel": 0}, {"type": "note_on", "time": 14, "note": 72, "velocity": 102, "channel": 0}, {"type": "note_off", "time": 51, "note": 72, "velocity": 102, "channel": 0}, {"type": "note_on", "time": 7, "note": 73, "velocity": 109, "channel": 0}, {"type": "note_off", "time": 54, "note": 73, "velocity": 109, "channel": 0}, {"type": "note_on", "time": 10, "note": 72, "velocity": 109, "channel": 0}, {"type": "note_off", "time": 64, "note": 72, "velocity": 109, "channel": 0}, {"type": "note_on", "time": 3, "note": 70, "velocity": 106, "channel": 0}, {"type": "note_off", "time": 76, "note": 70, "velocity": 106, "channel": 0}, {"type": "note_on", "time": 8, "note": 69, "velocity": 106, "channel": 0}, {"type": "note_off", "time": 101, "note": 69, "velocity": 106, "channel": 0}, {"type": "note_on", "time": 8, "note": 67, "velocity": 89, "channel": 0}, {"type": "note_off", "time": 58, "note": 67, "velocity": 89, "channel": 0}, {"type": "note_on", "time": 9, "note": 68, "velocity": 110, "channel": 0}, {"type": "note_off", "time": 92, "note": 68, "velocity": 110, "channel": 0}, {"type": "note_on", "time": 17, "note": 66, "velocity": 98, "channel": 0}, {"type": "note_off", "time": 89, "note": 66, "velocity": 98, "channel": 0}, {"type": "note_on", "time": 12, "note": 63, "velocity": 100, "channel": 0}, {"type": "note_off", "time": 113, "note": 63, "velocity": 100, "channel": 0}, {"type": "note_on", "time": 22, "note": 60, "velocity": 74, "channel": 0}, {"type": "note_off", "time": 50, "note": 60, "velocity": 74, "channel": 0}, {"type": "note_on", "time": 0, "note": 65, "velocity": 103, "channel": 0}, {"type": "note_off", "time": 298, "note": 65, "velocity": 103, "channel": 0}, {"type": "note_on", "time": 20, "note": 60, "velocity": 88, "channel": 0}, {"type": "note_off", "time": 223, "note": 60, "velocity": 88, "channel": 0}, {"type": "note_on", "time": 26, "note": 65, "velocity": 92, "channel": 0}, {"type": "note_off", "time": 279, "note": 65, "velocity": 92, "channel": 0}, {"type": "note_on", "time": 235, "note": 60, "velocity": 92, "channel": 0}, {"type": "note_off", "time": 43, "note": 60, "velocity": 92, "channel": 0}, {"type": "note_on", "time": 0, "note": 62, "velocity": 101, "channel": 0}, {"type": "note_off", "time": 29, "note": 62, "velocity": 101, "channel": 0}, {"type": "note_on", "time": 6, "note": 63, "velocity": 105, "channel": 0}, {"type": "note_off", "time": 87, "note": 63, "velocity": 105, "channel": 0}, {"type": "note_on", "time": 13, "note": 65, "velocity": 104, "channel": 0}, {"type": "note_off", "time": 59, "note": 65, "velocity": 104, "channel": 0}, {"type": "note_on", "time": 19, "note": 67, "velocity": 106, "channel": 0}, {"type": "note_off", "time": 103, "note": 67, "velocity": 106, "channel": 0}, {"type": "note_on", "time": 9, "note": 68, "velocity": 103, "channel": 0}, {"type": "note_off", "time": 66, "note": 68, "velocity": 103, "channel": 0}, {"type": "note_on", "time": 13, "note": 70, "velocity": 109, "channel": 0}, {"type": "note_off", "time": 89, "note": 70, "velocity": 109, "channel": 0}, {"type": "note_on", "time": 8, "note": 68, "velocity": 107, "channel": 0}, {"type": "note_off", "time": 86, "note": 68, "velocity": 107, "channel": 0}, {"type": "note_on", "time": 10, "note": 67, "velocity": 102, "channel": 0}, {"type": "note_off", "time": 73, "note": 67, "velocity": 102, "channel": 0}, {"type": "note_on", "time": 10, "note": 65, "velocity": 97, "channel": 0}, {"type": "note_off", "time": 75, "note": 65, "velocity": 97, "channel": 0}, {"type": "note_on", "time": 6, "note": 64, "velocity": 101, "channel": 0}, {"type": "note_off", "time": 91, "note": 64, "velocity": 101, "channel": 0}, {"type": "note_on", "time": 34, "note": 55, "velocity": 83, "channel": 0}, {"type": "note_off", "time": 62, "note": 55, "velocity": 83, "channel": 0}, {"type": "note_on", "time": 10, "note": 58, "velocity": 90, "channel": 0}, {"type": "note_off", "time": 89, "note": 58, "velocity": 90, "channel": 0}, {"type": "note_on", "time": 14, "note": 61, "velocity": 111, "channel": 0}, {"type": "note_off", "time": 92, "note": 61, "velocity": 111, "channel": 0}, {"type": "note_on", "time": 8, "note": 60, "velocity": 87, "channel": 0}, {"type": "note_off", "time": 170, "note": 60, "velocity": 87, "channel": 0}, {"type": "note_on", "time": 17, "note": 58, "velocity": 96, "channel": 0}, {"type": "note_off", "time": 105, "note": 58, "velocity": 96, "channel": 0}, {"type": "note_on", "time": 28, "note": 56, "velocity": 96, "channel": 0}, {"type": "note_off", "time": 205, "note": 56, "velocity": 96, "channel": 0}, {"type": "note_on", "time": 19, "note": 60, "velocity": 85, "channel": 0}, {"type": "note_off", "time": 103, "note": 60, "velocity": 85, "channel": 0}, {"type": "note_on", "time": 17, "note": 63, "velocity": 78, "channel": 0}, {"type": "note_off", "time": 50, "note": 63, "velocity": 78, "channel": 0}, {"type": "note_on", "time": 3, "note": 67, "velocity": 112, "channel": 0}, {"type": "note_off", "time": 131, "note": 67, "velocity": 112, "channel": 0}, {"type": "note_on", "time": 17, "note": 65, "velocity": 93, "channel": 0}, {"type": "note_off", "time": 167, "note": 65, "velocity": 93, "channel": 0}, {"type": "note_on", "time": 766, "note": 75, "velocity": 127, "channel": 0}, {"type": "note_off", "time": 369, "note": 75, "velocity": 127, "channel": 0}, {"type": "note_on", "time": 38, "note": 66, "velocity": 111, "channel": 0}, {"type": "note_off", "time": 72, "note": 66, "velocity": 111, "channel": 0}, {"type": "note_on", "time": 13, "note": 65, "velocity": 106, "channel": 0}, {"type": "note_off", "time": 127, "note": 65, "velocity": 106, "channel": 0}, {"type": "note_on", "time": 17, "note": 63, "velocity": 100, "channel": 0}, {"type": "note_off", "time": 110, "note": 63, "velocity": 100, "channel": 0}, {"type": "end_of_track", "time": 0}]]}