{"ticks_per_beat": 192, "tracks": [[{"type": "track_name", "name": "Melody", "time": 0}, {"type": "set_tempo", "tempo": 203389, "time": 0}, {"type": "key_signature", "key": "G", "time": 0}, {"type": "time_signature", "numerator": 4, "denominator": 4, "clocks_per_click": 24, "notated_32nd_notes_per_beat": 8, "time": 0}, {"type": "note_on", "time": 3622, "note": 62, "velocity": 91, "channel": 0}, {"type": "note_off", "time": 115, "note": 62, "velocity": 91, "channel": 0}, {"type": "note_on", "time": 8, "note": 64, "velocity": 87, "channel": 0}, {"type": "note_off", "time": 101, "note": 64, "velocity": 87, "channel": 0}, {"type": "note_on", "time": 5, "note": 65, "velocity": 80, "channel": 0}, {"type": "note_off", "time": 82, "note": 65, "velocity": 80, "channel": 0}, {"type": "note_on", "time": 5, "note": 66, "velocity": 76, "channel": 0}, {"type": "note_off", "time": 164, "note": 66, "velocity": 76, "channel": 0}, {"type": "note_on", "time": 2, "note": 67, "velocity": 73, "channel": 0}, {"type": "note_off", "time": 147, "note": 67, "velocity": 73, "channel": 0}, {"type": "note_on", "time": 9, "note": 69, "velocity": 66, "channel": 0}, {"type": "note_off", "time": 180, "note": 69, "velocity": 66, "channel": 0}, {"type": "note_on", "time": 33, "note": 66, "velocity": 69, "channel": 0}, {"type": "note_off", "time": 191, "note": 66, "velocity": 69, "channel": 0}, {"type": "note_on", "time": 9, "note": 67, "velocity": 75, "channel": 0}, {"type": "note_off", "time": 189, "note": 67, "velocity": 75, "channel": 0}, {"type": "note_on", "time": 87, "note": 62, "velocity": 79, "channel": 0}, {"type": "note_off", "time": 525, "note": 62, "velocity": 79, "channel": 0}, {"type": "note_on", "time": 21, "note": 61, "velocity": 103, "channel": 0}, {"type": "note_off", "time": 58, "note": 61, "velocity": 103, "channel": 0}, {"type": "note_on", "time": 10, "note": 62, "velocity": 100, "channel": 0}, {"type": "note_off", "time": 100, "note": 62, "velocity": 100, "channel": 0}, {"type": "note_on", "time": 40, "note": 55, "velocity": 86, "channel": 0}, {"type": "note_off", "time": 725, "note": 55, "velocity": 86, "channel": 0}, {"type": "note_on", "time": 143, "note": 62, "velocity": 80, "channel": 0}, {"type": "note_off", "time": 70, "note": 62, "velocity": 80, "channel": 0}, {"type": "note_on", "time": 12, "note": 64, "velocity": 85, "channel": 0}, {"type": "note_off", "time": 77, "note": 64, "velocity": 85, "channel": 0}, {"type": "note_on", "time": 11, "note": 66, "velocity": 83, "channel": 0}, {"type": "note_off", "time": 73, "note": 66, "velocity": 83, "channel": 0}, {"type": "note_on", "time": 2, "note": 67, "velocity": 87, "channel": 0}, {"type": "note_off", "time": 123, "note": 67, "velocity": 87, "channel": 0}, {"type": "note_on", "time": 4, "note": 69, "velocity": 80, "channel": 0}, {"type": "note_off", "time": 174, "note": 69, "velocity": 80, "channel": 0}, {"type": "note_on", "time": 18, "note": 66, "velocity": 80, "channel": 0}, {"type": "note_off", "time": 226, "note": 66, "velocity": 80, "channel": 0}, {"type": "note_on", "time": 13, "note": 67, "velocity": 74, "channel": 0}, {"type": "note_off", "time": 175, "note": 67, "velocity": 74, "channel": 0}, {"type": "note_on", "time": 41, "note": 62, "velocity": 74, "channel": 0}, {"type": "note_off", "time": 328, "note": 62, "velocity": 74, "channel": 0}, {"type": "note_on", "time": 25, "note": 61, "velocity": 74, "channel": 0}, {"type": "note_off", "time": 46, "note": 61, "velocity": 74, "channel": 0}, {"type": "note_on", "time": 20, "note": 62, "velocity": 84, "channel": 0}, {"type": "note_off", "time": 137, "note": 62, "velocity": 84, "channel": 0}, {"type": "note_on", "time": 55, "note": 55, "velocity": 86, "channel": 0}, {"type": "note_off", "time": 961, "note": 55, "velocity": 86, "channel": 0}, {"type": "note_on", "time": 2, "note": 61, "velocity": 87, "channel": 0}, {"type": "note_off", "time": 55, "note": 61, "velocity": 87, "channel": 0}, {"type": "note_on", "time": 21, "note": 62, "velocity": 80, "channel": 0}, {"type": "note_off", "time": 134, "note": 62, "velocity": 80, "channel": 0}, {"type": "note_on", "time": 50, "note": 55, "velocity": 78, "channel": 0}, {"type": "note_off", "time": 510, "note": 55, "velocity": 78, "channel": 0}, {"type": "note_on", "time": 77, "note": 61, "velocity": 69, "channel": 0}, {"type": "note_off", "time": 73, "note": 61, "velocity": 69, "channel": 0}, {"type": "note_on", "time": 9, "note": 62, "velocity": 71, "channel": 0}, {"type": "note_off", "time": 58, "note": 62, "velocity": 71, "channel": 0}, {"type": "note_on", "time": 86, "note": 55, "velocity": 91, "channel": 0}, {"type": "note_off", "time": 864, "note": 55, "velocity": 91, "channel": 0}, {"type": "note_on", "time": 38, "note": 61, "velocity": 91, "channel": 0}, {"type": "note_off", "time": 52, "note": 61, "velocity": 91, "channel": 0}, {"type": "note_on", "time": 18, "note": 62, "velocity": 89, "channel": 0}, {"type": "note_off", "time": 114, "note": 62, "velocity": 89, "channel": 0}, {"type": "note_on", "time": 83, "note": 55, "velocity": 101, "channel": 0}, {"type": "note_off", "time": 131, "note": 55, "velocity": 101, "channel": 0}, {"type": "note_on", "time": 30, "note": 61, "velocity": 90, "channel": 0}, {"type": "note_off", "time": 73, "note": 61, "velocity": 90, "channel": 0}, {"type": "note_on", "time": 11, "note": 62, "velocity": 84, "channel": 0}, {"type": "note_off", "time": 77, "note": 62, "velocity": 84, "channel": 0}, {"type": "note_on", "time": 83, "note": 55, "velocity": 83, "channel": 0}, {"type": "note_off", "time": 887, "note": 55, "velocity": 83, "channel": 0}, {"type": "note_on", "time": 0, "note": 58, "velocity": 85, "channel": 0}, {"type": "note_off", "time": 63, "note": 58, "velocity": 85, "channel": 0}, {"type": "note_on", "time": 11, "note": 59, "velocity": 77, "channel": 0}, {"type": "note_off", "time": 118, "note": 59, "velocity": 77, "channel": 0}, {"type": "note_on", "time": 39, "note": 55, "velocity": 91, "channel": 0}, {"type": "note_off", "time": 172, "note": 55, "velocity": 91, "channel": 0}, {"type": "note_on", "time": 60, "note": 61, "velocity": 88, "channel": 0}, {"type": "note_off", "time": 49, "note": 61, "velocity": 88, "channel": 0}, {"type": "note_on", "time": 3, "note": 62, "velocity": 76, "channel": 0}, {"type": "note_off", "time": 95, "note": 62, "velocity": 76, "channel": 0}, {"type": "note_on", "time": 24, "note": 55, "velocity": 77, "channel": 0}, {"type": "note_off", "time": 448, "note": 55, "velocity": 77, "channel": 0}, {"type": "note_on", "time": 67, "note": 55, "velocity": 95, "channel": 0}, {"type": "note_off", "time": 60, "note": 55, "velocity": 95, "channel": 0}, {"type": "note_on", "time": 1163, "note": 65, "velocity": 78, "channel": 0}, {"type": "note_off", "time": 82, "note": 65, "velocity": 78, "channel": 0}, {"type": "note_on", "time": 3, "note": 67, "velocity": 76, "channel": 0}, {"type": "note_off", "time": 120, "note": 67, "velocity": 76, "channel": 0}, {"type": "note_on", "time": 87, "note": 62, "velocity": 84, "channel": 0}, {"type": "note_off", "time": 73, "note": 62, "velocity": 84, "channel": 0}, {"type": "note_on", "time": 16, "note": 65, "velocity": 80, "channel": 0}, {"type": "note_off", "time": 134, "note": 65, "velocity": 80, "channel": 0}, {"type": "note_on", "time": 2, "note": 62, "velocity": 71, "channel": 0}, {"type": "note_off", "time": 78, "note": 62, "velocity": 71, "channel": 0}, {"type": "note_on", "time": 94, "note": 63, "velocity": 73, "channel": 0}, {"type": "note_off", "time": 109, "note": 63, "velocity": 73, "channel": 0}, {"type": "note_on", "time": 8, "note": 60, "velocity": 70, "channel": 0}, {"type": "note_off", "time": 128, "note": 60, "velocity": 70, "channel": 0}, {"type": "note_on", "time": 0, "note": 62, "velocity": 70, "channel": 0}, {"type": "note_off", "time": 73, "note": 62, "velocity": 70, "channel": 0}, {"type": "note_on", "time": 98, "note": 58, "velocity": 81, "channel": 0}, {"type": "note_off", "time": 71, "note": 58, "velocity": 81, "channel": 0}, {"type": "note_on", "time": 10, "note": 60, "velocity": 76, "channel": 0}, {"type": "note_off", "time": 156, "note": 60, "velocity": 76, "channel": 0}, {"type": "note_on", "time": 32, "note": 57, "velocity": 71, "channel": 0}, {"type": "note_off", "time": 71, "note": 57, "velocity": 71, "channel": 0}, {"type": "note_on", "time": 71, "note": 58, "velocity": 97, "channel": 0}, {"type": "note_off", "time": 134, "note": 58, "velocity": 97, "channel": 0}, {"type": "note_on", "time": 10, "note": 57, "velocity": 94, "channel": 0}, {"type": "note_off", "time": 104, "note": 57, "velocity": 94, "channel": 0}, {"type": "note_on", "time": 32, "note": 53, "velocity": 99, "channel": 0}, {"type": "note_off", "time": 150, "note": 53, "velocity": 99, "channel": 0}, {"type": "note_on", "time": 8, "note": 55, "velocity": 98, "channel": 0}, {"type": "note_off", "time": 326, "note": 55, "velocity": 98, "channel": 0}, {"type": "note_on", "time": 126, "note": 50, "velocity": 81, "channel": 0}, {"type": "note_off", "time": 73, "note": 50, "velocity": 81, "channel": 0}, {"type": "note_on", "time": 9, "note": 53, "velocity": 74, "channel": 0}, {"type": "note_off", "time": 94, "note": 53, "velocity": 74, "channel": 0}, {"type": "note_on", "time": 9, "note": 52, "velocity": 81, "channel": 0}, {"type": "note_off", "time": 77, "note": 52, "velocity": 81, "channel": 0}, {"type": "note_on", "time": 9, "note": 51, "velocity": 92, "channel": 0}, {"type": "note_off", "time": 121, "note": 51, "velocity": 92, "channel": 0}, {"type": "note_on", "time": 18, "note": 53, "velocity": 89, "channel": 0}, {"type": "note_off", "time": 63, "note": 53, "velocity": 89, "channel": 0}, {"type": "note_on", "time": 0, "note": 55, "velocity": 81, "channel": 0}, {"type": "note_off", "time": 68, "note": 55, "velocity": 81, "channel": 0}, {"type": "note_on", "time": 19, "note": 58, "velocity": 77, "channel": 0}, {"type": "note_off", "time": 76, "note": 58, "velocity": 77, "channel": 0}, {"type": "note_on", "time": 5, "note": 62, "velocity": 76, "channel": 0}, {"type": "note_off", "time": 60, "note": 62, "velocity": 76, "channel": 0}, {"type": "note_on", "time": 10, "note": 63, "velocity": 70, "channel": 0}, {"type": "note_off", "time": 80, "note": 63, "velocity": 70, "channel": 0}, {"type": "note_on", "time": 11, "note": 64, "velocity": 91, "channel": 0}, {"type": "note_off", "time": 50, "note": 64, "velocity": 91, "channel": 0}, {"type": "note_on", "time": 17, "note": 65, "velocity": 70, "channel": 0}, {"type": "note_off", "time": 95, "note": 65, "velocity": 70, "channel": 0}, {"type": "note_on", "time": 16, "note": 64, "velocity": 93, "channel": 0}, {"type": "note_off", "time": 76, "note": 64, "velocity": 93, "channel": 0}, {"type": "note_on", "time": 5, "note": 63, "velocity": 83, "channel": 0}, {"type": "note_off", "time": 112, "note": 63, "velocity": 83, "channel": 0}, {"type": "note_on", "time": 8, "note": 62, "velocity": 99, "channel": 0}, {"type": "note_off", "time": 79, "note": 62, "velocity": 99, "channel": 0}, {"type": "note_on", "time": 10, "note": 60, "velocity": 105, "channel": 0}, {"type": "note_off", "time": 84, "note": 60, "velocity": 105, "channel": 0}, {"type": "note_on", "time": 5, "note": 58, "velocity": 105, "channel": 0}, {"type": "note_off", "time": 90, "note": 58, "velocity": 105, "channel": 0}, {"type": "note_on", "time": 12, "note": 57, "velocity": 102, "channel": 0}, {"type": "note_off", "time": 100, "note": 57, "velocity": 102, "channel": 0}, {"type": "note_on", "time": 15, "note": 54, "velocity": 94, "channel": 0}, {"type": "note_off", "time": 73, "note": 54, "velocity": 94, "channel": 0}, {"type": "note_on", "time": 8, "note": 53, "velocity": 93, "channel": 0}, {"type": "note_off", "time": 101, "note": 53, "velocity": 93, "channel": 0}, {"type": "note_on", "time": 26, "note": 51, "velocity": 99, "channel": 0}, {"type": "note_off", "time": 96, "note": 51, "velocity": 99, "channel": 0}, {"type": "note_on", "time": 11, "note": 50, "velocity": 89, "channel": 0}, {"type": "note_off", "time": 71, "note": 50, "velocity": 89, "channel": 0}, {"type": "note_on", "time": 104, "note": 58, "velocity": 101, "channel": 0}, {"type": "note_off", "time": 57, "note": 58, "velocity": 101, "channel": 0}, {"type": "note_on", "time": 10, "note": 60, "velocity": 92, "channel": 0}, {"type": "note_off", "time": 104, "note": 60, "velocity": 92, "channel": 0}, {"type": "note_on", "time": 13, "note": 57, "velocity": 102, "channel": 0}, {"type": "note_off", "time": 63, "note": 57, "velocity": 102, "channel": 0}, {"type": "note_on", "time": 8, "note": 59, "velocity": 101, "channel": 0}, {"type": "note_off", "time": 61, "note": 59, "velocity": 101, "channel": 0}, {"type": "note_on", "time": 15, "note": 58, "velocity": 87, "channel": 0}, {"type": "note_off", "time": 65, "note": 58, "velocity": 87, "channel": 0}, {"type": "note_on", "time": 60, "note": 65, "velocity": 75, "channel": 0}, {"type": "note_off", "time": 42, "note": 65, "velocity": 75, "channel": 0}, {"type": "note_on", "time": 19, "note": 69, "velocity": 67, "channel": 0}, {"type": "note_off", "time": 105, "note": 69, "velocity": 67, "channel": 0}, {"type": "note_on", "time": 18, "note": 65, "velocity": 83, "channel": 0}, {"type": "note_off", "time": 52, "note": 65, "velocity": 83, "channel": 0}, {"type": "note_on", "time": 8, "note": 67, "velocity": 73, "channel": 0}, {"type": "note_off", "time": 293, "note": 67, "velocity": 73, "channel": 0}, {"type": "note_on", "time": 10, "note": 62, "velocity": 88, "channel": 0}, {"type": "note_off", "time": 49, "note": 62, "velocity": 88, "channel": 0}, {"type": "note_on", "time": 8, "note": 65, "velocity": 82, "channel": 0}, {"type": "note_off", "time": 146, "note": 65, "velocity": 82, "channel": 0}, {"type": "note_on", "time": 1575, "note": 63, "velocity": 75, "channel": 0}, {"type": "note_off", "time": 134, "note": 63, "velocity": 75, "channel": 0}, {"type": "note_on", "time": 11, "note": 61, "velocity": 75, "channel": 0}, {"type": "note_off", "time": 69, "note": 61, "velocity": 75, "channel": 0}, {"type": "note_on", "time": 3, "note": 62, "velocity": 70, "channel": 0}, {"type": "note_off", "time": 123, "note": 62, "velocity": 70, "channel": 0}, {"type": "note_on", "time": 13, "note": 60, "velocity": 105, "channel": 0}, {"type": "note_off", "time": 80, "note": 60, "velocity": 105, "channel": 0}, {"type": "note_on", "time": 3, "note": 59, "velocity": 99, "channel": 0}, {"type": "note_off", "time": 82, "note": 59, "velocity": 99, "channel": 0}, {"type": "note_on", "time": 11, "note": 57, "velocity": 95, "channel": 0}, {"type": "note_off", "time": 61, "note": 57, "velocity": 95, "channel": 0}, {"type": "note_on", "time": 9, "note": 55, "velocity": 116, "channel": 0}, {"type": "note_off", "time": 96, "note": 55, "velocity": 116, "channel": 0}, {"type": "note_on", "time": 11, "note": 54, "velocity": 73, "channel": 0}, {"type": "note_off", "time": 71, "note": 54, "velocity": 73, "channel": 0}, {"type": "note_on", "time": 32, "note": 57, "velocity": 94, "channel": 0}, {"type": "note_off", "time": 102, "note": 57, "velocity": 94, "channel": 0}, {"type": "note_on", "time": 23, "note": 54, "velocity": 92, "channel": 0}, {"type": "note_off", "time": 57, "note": 54, "velocity": 92, "channel": 0}, {"type": "note_on", "time": 7, "note": 55, "velocity": 108, "channel": 0}, {"type": "note_off", "time": 127, "note": 55, "velocity": 108, "channel": 0}, {"type": "note_on", "time": 15, "note": 54, "velocity": 91, "channel": 0}, {"type": "note_off", "time": 69, "note": 54, "velocity": 91, "channel": 0}, {"type": "note_on", "time": 0, "note": 55, "velocity": 98, "channel": 0}, {"type": "note_off", "time": 84, "note": 55, "velocity": 98, "channel": 0}, {"type": "note_on", "time": 30, "note": 58, "velocity": 96, "channel": 0}, {"type": "note_off", "time": 46, "note": 58, "velocity": 96, "channel": 0}, {"type": "note_on", "time": 40, "note": 62, "velocity": 86, "channel": 0}, {"type": "note_off", "time": 82, "note": 62, "velocity": 86, "channel": 0}, {"type": "note_on", "time": 15, "note": 66, "velocity": 77, "channel": 0}, {"type": "note_on", "time": 154, "note": 62, "velocity": 93, "channel": 0}, {"type": "note_off", "time": 0, "note": 66, "velocity": 77, "channel": 0}, {"type": "note_off", "time": 65, "note": 62, "velocity": 93, "channel": 0}, {"type": "note_on", "time": 4, "note": 64, "velocity": 84, "channel": 0}, {"type": "note_off", "time": 241, "note": 64, "velocity": 84, "channel": 0}, {"type": "note_on", "time": 1, "note": 63, "velocity": 86, "channel": 0}, {"type": "note_off", "time": 92, "note": 63, "velocity": 86, "channel": 0}, {"type": "note_on", "time": 11, "note": 61, "velocity": 89, "channel": 0}, {"type": "note_off", "time": 82, "note": 61, "velocity": 89, "channel": 0}, {"type": "note_on", "time": 48, "note": 57, "velocity": 84, "channel": 0}, {"type": "note_off", "time": 92, "note": 57, "velocity": 84, "channel": 0}, {"type": "note_on", "time": 7, "note": 54, "velocity": 90, "channel": 0}, {"type": "note_off", "time": 73, "note": 54, "velocity": 90, "channel": 0}, {"type": "note_on", "time": 19, "note": 57, "velocity": 99, "channel": 0}, {"type": "note_off", "time": 55, "note": 57, "velocity": 99, "channel": 0}, {"type": "note_on", "time": 21, "note": 61, "velocity": 90, "channel": 0}, {"type": "note_off", "time": 84, "note": 61, "velocity": 90, "channel": 0}, {"type": "note_on", "time": 11, "note": 64, "velocity": 83, "channel": 0}, {"type": "note_off", "time": 80, "note": 64, "velocity": 83, "channel": 0}, {"type": "note_on", "time": 19, "note": 68, "velocity": 78, "channel": 0}, {"type": "note_off", "time": 100, "note": 68, "velocity": 78, "channel": 0}, {"type": "note_on", "time": 15, "note": 66, "velocity": 76, "channel": 0}, {"type": "note_off", "time": 88, "note": 66, "velocity": 76, "channel": 0}, {"type": "note_on", "time": 9, "note": 64, "velocity": 81, "channel": 0}, {"type": "note_off", "time": 90, "note": 64, "velocity": 81, "channel": 0}, {"type": "note_on", "time": 9, "note": 61, "velocity": 76, "channel": 0}, {"type": "note_off", "time": 77, "note": 61, "velocity": 76, "channel": 0}, {"type": "note_on", "time": 36, "note": 57, "velocity": 85, "channel": 0}, {"type": "note_off", "time": 69, "note": 57, "velocity": 85, "channel": 0}, {"type": "note_on", "time": 26, "note": 54, "velocity": 83, "channel": 0}, {"type": "note_off", "time": 57, "note": 54, "velocity": 83, "channel": 0}, {"type": "note_on", "time": 0, "note": 63, "velocity": 74, "channel": 0}, {"type": "note_off", "time": 138, "note": 63, "velocity": 74, "channel": 0}, {"type": "note_on", "time": 7, "note": 61, "velocity": 71, "channel": 0}, {"type": "note_off", "time": 84, "note": 61, "velocity": 71, "channel": 0}, {"type": "note_on", "time": 0, "note": 59, "velocity": 72, "channel": 0}, {"type": "note_off", "time": 84, "note": 59, "velocity": 72, "channel": 0}, {"type": "note_on", "time": 13, "note": 58, "velocity": 72, "channel": 0}, {"type": "note_off", "time": 73, "note": 58, "velocity": 72, "channel": 0}, {"type": "note_on", "time": 19, "note": 57, "velocity": 104, "channel": 0}, {"type": "note_off", "time": 105, "note": 57, "velocity": 104, "channel": 0}, {"type": "note_on", "time": 3, "note": 56, "velocity": 104, "channel": 0}, {"type": "note_off", "time": 69, "note": 56, "velocity": 104, "channel": 0}, {"type": "note_on", "time": 7, "note": 58, "velocity": 92, "channel": 0}, {"type": "note_off", "time": 73, "note": 58, "velocity": 92, "channel": 0}, {"type": "note_on", "time": 19, "note": 59, "velocity": 108, "channel": 0}, {"type": "note_off", "time": 63, "note": 59, "velocity": 108, "channel": 0}, {"type": "note_on", "time": 17, "note": 61, "velocity": 80, "channel": 0}, {"type": "note_off", "time": 100, "note": 61, "velocity": 80, "channel": 0}, {"type": "note_on", "time": 0, "note": 63, "velocity": 101, "channel": 0}, {"type": "note_off", "time": 55, "note": 63, "velocity": 101, "channel": 0}, {"type": "note_on", "time": 0, "note": 66, "velocity": 97, "channel": 0}, {"type": "note_off", "time": 104, "note": 66, "velocity": 97, "channel": 0}, {"type": "note_on", "time": 21, "note": 63, "velocity": 93, "channel": 0}, {"type": "note_off", "time": 69, "note": 63, "velocity": 93, "channel": 0}, {"type": "note_on", "time": 15, "note": 64, "velocity": 96, "channel": 0}, {"type": "note_off", "time": 134, "note": 64, "velocity": 96, "channel": 0}, {"type": "note_on", "time": 7, "note": 60, "velocity": 89, "channel": 0}, {"type": "note_off", "time": 78, "note": 60, "velocity": 89, "channel": 0}, {"type": "note_on", "time": 0, "note": 57, "velocity": 92, "channel": 0}, {"type": "note_off", "time": 98, "note": 57, "velocity": 92, "channel": 0}, {"type": "note_on", "time": 15, "note": 55, "velocity": 90, "channel": 0}, {"type": "note_off", "time": 65, "note": 55, "velocity": 90, "channel": 0}, {"type": "note_on", "time": 15, "note": 54, "velocity": 101, "channel": 0}, {"type": "note_on", "time": 100, "note": 57, "velocity": 94, "channel": 0}, {"type": "note_off", "time": 0, "note": 54, "velocity": 101, "channel": 0}, {"type": "note_off", "time": 69, "note": 57, "velocity": 94, "channel": 0}, {"type": "note_on", "time": 0, "note": 60, "velocity": 88, "channel": 0}, {"type": "note_off", "time": 78, "note": 60, "velocity": 88, "channel": 0}, {"type": "note_on", "time": 9, "note": 64, "velocity": 76, "channel": 0}, {"type": "note_off", "time": 119, "note": 64, "velocity": 76, "channel": 0}, {"type": "note_on", "time": 9, "note": 62, "velocity": 82, "channel": 0}, {"type": "note_off", "time": 69, "note": 62, "velocity": 82, "channel": 0}, {"type": "note_on", "time": 7, "note": 60, "velocity": 78, "channel": 0}, {"type": "note_off", "time": 94, "note": 60, "velocity": 78, "channel": 0}, {"type": "note_on", "time": 15, "note": 59, "velocity": 83, "channel": 0}, {"type": "note_off", "time": 88, "note": 59, "velocity": 83, "channel": 0}, {"type": "note_on", "time": 3, "note": 57, "velocity": 86, "channel": 0}, {"type": "note_off", "time": 96, "note": 57, "velocity": 86, "channel": 0}, {"type": "note_on", "time": 19, "note": 55, "velocity": 98, "channel": 0}, {"type": "note_off", "time": 77, "note": 55, "velocity": 98, "channel": 0}, {"type": "note_on", "time": 3, "note": 54, "velocity": 91, "channel": 0}, {"type": "note_off", "time": 69, "note": 54, "velocity": 91, "channel": 0}, {"type": "note_on", "time": 15, "note": 57, "velocity": 87, "channel": 0}, {"type": "note_off", "time": 98, "note": 57, "velocity": 87, "channel": 0}, {"type": "note_on", "time": 21, "note": 55, "velocity": 85, "channel": 0}, {"type": "note_off", "time": 80, "note": 55, "velocity": 85, "channel": 0}, {"type": "note_on", "time": 3, "note": 54, "velocity": 81, "channel": 0}, {"type": "note_off", "time": 84, "note": 54, "velocity": 81, "channel": 0}, {"type": "note_on", "time": 23, "note": 55, "velocity": 80, "channel": 0}, {"type": "note_off", "time": 77, "note": 55, "velocity": 80, "channel": 0}, {"type": "note_on", "time": 11, "note": 59, "velocity": 89, "channel": 0}, {"type": "note_off", "time": 92, "note": 59, "velocity": 89, "channel": 0}, {"type": "note_on", "time": 38, "note": 62, "velocity": 78, "channel": 0}, {"type": "note_off", "time": 96, "note": 62, "velocity": 78, "channel": 0}, {"type": "note_on", "time": 11, "note": 65, "velocity": 74, "channel": 0}, {"type": "note_off", "time": 65, "note": 65, "velocity": 74, "channel": 0}, {"type": "note_on", "time": 15, "note": 67, "velocity": 71, "channel": 0}, {"type": "note_off", "time": 46, "note": 67, "velocity": 71, "channel": 0}, {"type": "note_on", "time": 1, "note": 69, "velocity": 67, "channel": 0}, {"type": "note_off", "time": 80, "note": 69, "velocity": 67, "channel": 0}, {"type": "note_on", "time": 32, "note": 66, "velocity": 82, "channel": 0}, {"type": "note_off", "time": 75, "note": 66, "velocity": 82, "channel": 0}, {"type": "note_on", "time": 15, "note": 67, "velocity": 82, "channel": 0}, {"type": "note_off", "time": 84, "note": 67, "velocity": 82, "channel": 0}, {"type": "note_on", "time": 13, "note": 69, "velocity": 77, "channel": 0}, {"type": "note_off", "time": 80, "note": 69, "velocity": 77, "channel": 0}, {"type": "note_on", "time": 11, "note": 66, "velocity": 79, "channel": 0}, {"type": "note_off", "time": 100, "note": 66, "velocity": 79, "channel": 0}, {"type": "note_on", "time": 5, "note": 62, "velocity": 85, "channel": 0}, {"type": "note_off", "time": 78, "note": 62, "velocity": 85, "channel": 0}, {"type": "note_on", "time": 9, "note": 59, "velocity": 80, "channel": 0}, {"type": "note_off", "time": 90, "note": 59, "velocity": 80, "channel": 0}, {"type": "note_on", "time": 11, "note": 60, "velocity": 85, "channel": 0}, {"type": "note_off", "time": 78, "note": 60, "velocity": 85, "channel": 0}, {"type": "note_on", "time": 0, "note": 62, "velocity": 82, "channel": 0}, {"type": "note_off", "time": 71, "note": 62, "velocity": 82, "channel": 0}, {"type": "note_on", "time": 26, "note": 59, "velocity": 98, "channel": 0}, {"type": "note_off", "time": 104, "note": 59, "velocity": 98, "channel": 0}, {"type": "note_on", "time": 1, "note": 57, "velocity": 95, "channel": 0}, {"type": "note_off", "time": 119, "note": 57, "velocity": 95, "channel": 0}, {"type": "note_on", "time": 5, "note": 55, "velocity": 92, "channel": 0}, {"type": "note_off", "time": 88, "note": 55, "velocity": 92, "channel": 0}, {"type": "note_on", "time": 0, "note": 57, "velocity": 94, "channel": 0}, {"type": "note_off", "time": 279, "note": 57, "velocity": 94, "channel": 0}, {"type": "note_on", "time": 1, "note": 58, "velocity": 90, "channel": 0}, {"type": "note_off", "time": 73, "note": 58, "velocity": 90, "channel": 0}, {"type": "note_on", "time": 19, "note": 62, "velocity": 83, "channel": 0}, {"type": "note_off", "time": 134, "note": 62, "velocity": 83, "channel": 0}, {"type": "note_on", "time": 17, "note": 58, "velocity": 93, "channel": 0}, {"type": "note_off", "time": 65, "note": 58, "velocity": 93, "channel": 0}, {"type": "note_on", "time": 915, "note": 55, "velocity": 86, "channel": 0}, {"type": "note_off", "time": 99, "note": 55, "velocity": 86, "channel": 0}, {"type": "note_on", "time": 0, "note": 58, "velocity": 102, "channel": 0}, {"type": "note_off", "time": 65, "note": 58, "velocity": 102, "channel": 0}, {"type": "note_on", "time": 10, "note": 62, "velocity": 86, "channel": 0}, {"type": "note_off", "time": 77, "note": 62, "velocity": 86, "channel": 0}, {"type": "note_on", "time": 13, "note": 66, "velocity": 66, "channel": 0}, {"type": "note_off", "time": 88, "note": 66, "velocity": 66, "channel": 0}, {"type": "note_on", "time": 84, "note": 69, "velocity": 68, "channel": 0}, {"type": "note_off", "time": 104, "note": 69, "velocity": 68, "channel": 0}, {"type": "note_on", "time": 11, "note": 68, "velocity": 71, "channel": 0}, {"type": "note_off", "time": 38, "note": 68, "velocity": 71, "channel": 0}, {"type": "note_on", "time": 21, "note": 67, "velocity": 64, "channel": 0}, {"type": "note_off", "time": 30, "note": 67, "velocity": 64, "channel": 0}, {"type": "note_on", "time": 13, "note": 66, "velocity": 70, "channel": 0}, {"type": "note_off", "time": 115, "note": 66, "velocity": 70, "channel": 0}, {"type": "note_on", "time": 40, "note": 69, "velocity": 71, "channel": 0}, {"type": "note_off", "time": 134, "note": 69, "velocity": 71, "channel": 0}, {"type": "note_on", "time": 11, "note": 68, "velocity": 67, "channel": 0}, {"type": "note_off", "time": 34, "note": 68, "velocity": 67, "channel": 0}, {"type": "note_on", "time": 19, "note": 67, "velocity": 69, "channel": 0}, {"type": "note_off", "time": 32, "note": 67, "velocity": 69, "channel": 0}, {"type": "note_on", "time": 15, "note": 66, "velocity": 65, "channel": 0}, {"type": "note_off", "time": 87, "note": 66, "velocity": 65, "channel": 0}, {"type": "note_on", "time": 52, "note": 69, "velocity": 71, "channel": 0}, {"type": "note_off", "time": 129, "note": 69, "velocity": 71, "channel": 0}, {"type": "note_on", "time": 19, "note": 68, "velocity": 80, "channel": 0}, {"type": "note_off", "time": 36, "note": 68, "velocity": 80, "channel": 0}, {"type": "note_on", "time": 0, "note": 67, "velocity": 79, "channel": 0}, {"type": "note_off", "time": 30, "note": 67, "velocity": 79, "channel": 0}, {"type": "note_on", "time": 17, "note": 66, "velocity": 78, "channel": 0}, {"type": "note_off", "time": 107, "note": 66, "velocity": 78, "channel": 0}, {"type": "note_on", "time": 26, "note": 69, "velocity": 84, "channel": 0}, {"type": "note_off", "time": 98, "note": 69, "velocity": 84, "channel": 0}, {"type": "note_on", "time": 17, "note": 68, "velocity": 82, "channel": 0}, {"type": "note_off", "time": 36, "note": 68, "velocity": 82, "channel": 0}, {"type": "note_on", "time": 0, "note": 67, "velocity": 114, "channel": 0}, {"type": "note_off", "time": 52, "note": 67, "velocity": 114, "channel": 0}, {"type": "note_on", "time": 27, "note": 66, "velocity": 107, "channel": 0}, {"type": "note_off", "time": 76, "note": 66, "velocity": 107, "channel": 0}, {"type": "note_on", "time": 437, "note": 57, "velocity": 105, "channel": 0}, {"type": "note_off", "time": 86, "note": 57, "velocity": 105, "channel": 0}, {"type": "note_on", "time": 9, "note": 64, "velocity": 97, "channel": 0}, {"type": "note_off", "time": 50, "note": 64, "velocity": 97, "channel": 0}, {"type": "note_on", "time": 9, "note": 67, "velocity": 85, "channel": 0}, {"type": "note_off", "time": 52, "note": 67, "velocity": 85, "channel": 0}, {"type": "note_on", "time": 26, "note": 68, "velocity": 82, "channel": 0}, {"type": "note_off", "time": 67, "note": 68, "velocity": 82, "channel": 0}, {"type": "note_on", "time": 7, "note": 71, "velocity": 78, "channel": 0}, {"type": "note_off", "time": 144, "note": 71, "velocity": 78, "channel": 0}, {"type": "note_on", "time": 9, "note": 70, "velocity": 81, "channel": 0}, {"type": "note_off", "time": 36, "note": 70, "velocity": 81, "channel": 0}, {"type": "note_on", "time": 17, "note": 69, "velocity": 81, "channel": 0}, {"type": "note_off", "time": 119, "note": 69, "velocity": 81, "channel": 0}, {"type": "note_on", "time": 44, "note": 71, "velocity": 74, "channel": 0}, {"type": "note_off", "time": 98, "note": 71, "velocity": 74, "channel": 0}, {"type": "note_on", "time": 7, "note": 70, "velocity": 73, "channel": 0}, {"type": "note_off", "time": 69, "note": 70, "velocity": 73, "channel": 0}, {"type": "note_on", "time": 13, "note": 69, "velocity": 86, "channel": 0}, {"type": "note_off", "time": 125, "note": 69, "velocity": 86, "channel": 0}, {"type": "note_on", "time": 209, "note": 60, "velocity": 81, "channel": 0}, {"type": "note_off", "time": 48, "note": 60, "velocity": 81, "channel": 0}, {"type": "note_on", "time": 0, "note": 62, "velocity": 86, "channel": 0}, {"type": "note_off", "time": 50, "note": 62, "velocity": 86, "channel": 0}, {"type": "note_on", "time": 0, "note": 67, "velocity": 83, "channel": 0}, {"type": "note_off", "time": 77, "note": 67, "velocity": 83, "channel": 0}, {"type": "note_on", "time": 0, "note": 70, "velocity": 89, "channel": 0}, {"type": "note_off", "time": 50, "note": 70, "velocity": 89, "channel": 0}, {"type": "note_on", "time": 0, "note": 72, "velocity": 73, "channel": 0}, {"type": "note_off", "time": 146, "note": 72, "velocity": 73, "channel": 0}, {"type": "note_on", "time": 9, "note": 73, "velocity": 69, "channel": 0}, {"type": "note_off", "time": 38, "note": 73, "velocity": 69, "channel": 0}, {"type": "note_on", "time": 0, "note": 60, "velocity": 80, "channel": 0}, {"type": "note_off", "time": 0, "note": 60, "velocity": 80, "channel": 0}, {"type": "note_on", "time": 50, "note": 71, "velocity": 71, "channel": 0}, {"type": "note_off", "time": 57, "note": 71, "velocity": 71, "channel": 0}, {"type": "note_on", "time": 7, "note": 70, "velocity": 73, "channel": 0}, {"type": "note_off", "time": 94, "note": 70, "velocity": 73, "channel": 0}, {"type": "note_on", "time": 34, "note": 72, "velocity": 75, "channel": 0}, {"type": "note_off", "time": 69, "note": 72, "velocity": 75, "channel": 0}, {"type": "note_on", "time": 15, "note": 73, "velocity": 72, "channel": 0}, {"type": "note_off", "time": 84, "note": 73, "velocity": 72, "channel": 0}, {"type": "note_on", "time": 11, "note": 72, "velocity": 78, "channel": 0}, {"type": "note_off", "time": 59, "note": 72, "velocity": 78, "channel": 0}, {"type": "note_on", "time": 7, "note": 70, "velocity": 74, "channel": 0}, {"type": "note_off", "time": 90, "note": 70, "velocity": 74, "channel": 0}, {"type": "note_on", "time": 21, "note": 72, "velocity": 70, "channel": 0}, {"type": "note_off", "time": 102, "note": 72, "velocity": 70, "channel": 0}, {"type": "note_on", "time": 11, "note": 73, "velocity": 71, "channel": 0}, {"type": "note_off", "time": 57, "note": 73, "velocity": 71, "channel": 0}, {"type": "note_on", "time": 11, "note": 72, "velocity": 85, "channel": 0}, {"type": "note_off", "time": 50, "note": 72, "velocity": 85, "channel": 0}, {"type": "note_on", "time": 0, "note": 70, "velocity": 85, "channel": 0}, {"type": "note_off", "time": 73, "note": 70, "velocity": 85, "channel": 0}, {"type": "note_on", "time": 111, "note": 71, "velocity": 68, "channel": 0}, {"type": "note_off", "time": 104, "note": 71, "velocity": 68, "channel": 0}, {"type": "note_on", "time": 19, "note": 70, "velocity": 65, "channel": 0}, {"type": "note_off", "time": 61, "note": 70, "velocity": 65, "channel": 0}, {"type": "note_on", "time": 3, "note": 69, "velocity": 63, "channel": 0}, {"type": "note_off", "time": 96, "note": 69, "velocity": 63, "channel": 0}, {"type": "note_on", "time": 11, "note": 68, "velocity": 68, "channel": 0}, {"type": "note_off", "time": 107, "note": 68, "velocity": 68, "channel": 0}, {"type": "note_on", "time": 1128, "note": 67, "velocity": 78, "channel": 0}, {"type": "note_off", "time": 109, "note": 67, "velocity": 78, "channel": 0}, {"type": "note_on", "time": 30, "note": 62, "velocity": 95, "channel": 0}, {"type": "note_off", "time": 75, "note": 62, "velocity": 95, "channel": 0}, {"type": "note_on", "time": 493, "note": 67, "velocity": 81, "channel": 0}, {"type": "note_off", "time": 80, "note": 67, "velocity": 81, "channel": 0}, {"type": "note_on", "time": 59, "note": 62, "velocity": 82, "channel": 0}, {"type": "note_off", "time": 63, "note": 62, "velocity": 82, "channel": 0}, {"type": "note_on", "time": 570, "note": 67, "velocity": 81, "channel": 0}, {"type": "note_off", "time": 88, "note": 67, "velocity": 81, "channel": 0}, {"type": "note_on", "time": 16, "note": 62, "velocity": 84, "channel": 0}, {"type": "note_off", "time": 82, "note": 62, "velocity": 84, "channel": 0}, {"type": "note_on", "time": 208, "note": 69, "velocity": 71, "channel": 0}, {"type": "note_off", "time": 104, "note": 69, "velocity": 71, "channel": 0}, {"type": "note_on", "time": 21, "note": 62, "velocity": 79, "channel": 0}, {"type": "note_off", "time": 98, "note": 62, "velocity": 79, "channel": 0}, {"type": "note_on", "time": 180, "note": 67, "velocity": 86, "channel": 0}, {"type": "note_off", "time": 82, "note": 67, "velocity": 86, "channel": 0}, {"type": "note_on", "time": 27, "note": 62, "velocity": 81, "channel": 0}, {"type": "note_off", "time": 71, "note": 62, "velocity": 81, "channel": 0}, {"type": "note_on", "time": 244, "note": 69, "velocity": 81, "channel": 0}, {"type": "note_off", "time": 59, "note": 69, "velocity": 81, "channel": 0}, {"type": "note_on", "time": 1, "note": 62, "velocity": 78, "channel": 0}, {"type": "note_off", "time": 67, "note": 62, "velocity": 78, "channel": 0}, {"type": "note_on", "time": 211, "note": 67, "velocity": 95, "channel": 0}, {"type": "note_off", "time": 71, "note": 67, "velocity": 95, "channel": 0}, {"type": "note_on", "time": 27, "note": 62, "velocity": 106, "channel": 0}, {"type": "note_off", "time": 82, "note": 62, "velocity": 106, "channel": 0}, {"type": "note_on", "time": 190, "note": 69, "velocity": 93, "channel": 0}, {"type": "note_off", "time": 78, "note": 69, "velocity": 93, "channel": 0}, {"type": "note_on", "time": 25, "note": 62, "velocity": 107, "channel": 0}, {"type": "note_off", "time": 92, "note": 62, "velocity": 107, "channel": 0}, {"type": "note_on", "time": 141, "note": 67, "velocity": 101, "channel": 0}, {"type": "note_off", "time": 104, "note": 67, "velocity": 101, "channel": 0}, {"type": "note_on", "time": 10, "note": 62, "velocity": 108, "channel": 0}, {"type": "note_off", "time": 63, "note": 62, "velocity": 108, "channel": 0}, {"type": "note_on", "time": 30, "note": 67, "velocity": 88, "channel": 0}, {"type": "note_off", "time": 87, "note": 67, "velocity": 88, "channel": 0}, {"type": "note_on", "time": 21, "note": 71, "velocity": 88, "channel": 0}, {"type": "note_off", "time": 93, "note": 71, "velocity": 88, "channel": 0}, {"type": "note_on", "time": 24, "note": 67, "velocity": 72, "channel": 0}, {"type": "note_off", "time": 172, "note": 67, "velocity": 72, "channel": 0}, {"type": "note_on", "time": 30, "note": 62, "velocity": 92, "channel": 0}, {"type": "note_off", "time": 254, "note": 62, "velocity": 92, "channel": 0}, {"type": "note_on", "time": 583, "note": 67, "velocity": 98, "channel": 0}, {"type": "note_off", "time": 82, "note": 67, "velocity": 98, "channel": 0}, {"type": "note_on", "time": 27, "note": 70, "velocity": 98, "channel": 0}, {"type": "note_off", "time": 76, "note": 70, "velocity": 98, "channel": 0}, {"type": "note_on", "time": 0, "note": 66, "velocity": 88, "channel": 0}, {"type": "note_off", "time": 115, "note": 66, "velocity": 88, "channel": 0}, {"type": "note_on", "time": 5, "note": 69, "velocity": 85, "channel": 0}, {"type": "note_off", "time": 115, "note": 69, "velocity": 85, "channel": 0}, {"type": "note_on", "time": 3, "note": 67, "velocity": 90, "channel": 0}, {"type": "note_off", "time": 134, "note": 67, "velocity": 90, "channel": 0}, {"type": "note_on", "time": 31, "note": 62, "velocity": 102, "channel": 0}, {"type": "note_off", "time": 175, "note": 62, "velocity": 102, "channel": 0}, {"type": "note_on", "time": 10, "note": 66, "velocity": 95, "channel": 0}, {"type": "note_off", "time": 197, "note": 66, "velocity": 95, "channel": 0}, {"type": "note_on", "time": 5, "note": 62, "velocity": 83, "channel": 0}, {"type": "note_off", "time": 175, "note": 62, "velocity": 83, "channel": 0}, {"type": "note_on", "time": 8, "note": 64, "velocity": 72, "channel": 0}, {"type": "note_off", "time": 188, "note": 64, "velocity": 72, "channel": 0}, {"type": "note_on", "time": 11, "note": 58, "velocity": 74, "channel": 0}, {"type": "note_off", "time": 163, "note": 58, "velocity": 74, "channel": 0}, {"type": "note_on", "time": 21, "note": 57, "velocity": 87, "channel": 0}, {"type": "note_off", "time": 186, "note": 57, "velocity": 87, "channel": 0}, {"type": "note_on", "time": 19, "note": 55, "velocity": 82, "channel": 0}, {"type": "note_off", "time": 181, "note": 55, "velocity": 82, "channel": 0}, {"type": "note_on", "time": 11, "note": 57, "velocity": 83, "channel": 0}, {"type": "note_off", "time": 171, "note": 57, "velocity": 83, "channel": 0}, {"type": "note_on", "time": 32, "note": 52, "velocity": 96, "channel": 0}, {"type": "note_off", "time": 367, "note": 52, "velocity": 96, "channel": 0}, {"type": "note_on", "time": 736, "note": 70, "velocity": 99, "channel": 0}, {"type": "note_off", "time": 77, "note": 70, "velocity": 99, "channel": 0}, {"type": "note_on", "time": 23, "note": 71, "velocity": 81, "channel": 0}, {"type": "note_off", "time": 204, "note": 71, "velocity": 81, "channel": 0}, {"type": "note_on", "time": 3, "note": 70, "velocity": 85, "channel": 0}, {"type": "note_off", "time": 80, "note": 70, "velocity": 85, "channel": 0}, {"type": "note_on", "time": 3, "note": 69, "velocity": 84, "channel": 0}, {"type": "note_off", "time": 73, "note": 69, "velocity": 84, "channel": 0}, {"type": "note_on", "time": 7, "note": 68, "velocity": 78, "channel": 0}, {"type": "note_off", "time": 80, "note": 68, "velocity": 78, "channel": 0}, {"type": "note_on", "time": 3, "note": 66, "velocity": 84, "channel": 0}, {"type": "note_off", "time": 84, "note": 66, "velocity": 84, "channel": 0}, {"type": "note_on", "time": 21, "note": 65, "velocity": 75, "channel": 0}, {"type": "note_off", "time": 88, "note": 65, "velocity": 75, "channel": 0}, {"type": "note_on", "time": 622, "note": 74, "velocity": 63, "channel": 0}, {"type": "note_off", "time": 86, "note": 74, "velocity": 63, "channel": 0}, {"type": "note_on", "time": 13, "note": 76, "velocity": 91, "channel": 0}, {"type": "note_off", "time": 466, "note": 76, "velocity": 91, "channel": 0}, {"type": "note_on", "time": 161, "note": 70, "velocity": 90, "channel": 0}, {"type": "note_off", "time": 104, "note": 70, "velocity": 90, "channel": 0}, {"type": "note_on", "time": 3, "note": 71, "velocity": 97, "channel": 0}, {"type": "note_off", "time": 104, "note": 71, "velocity": 97, "channel": 0}, {"type": "note_on", "time": 0, "note": 74, "velocity": 79, "channel": 0}, {"type": "note_off", "time": 127, "note": 74, "velocity": 79, "channel": 0}, {"type": "note_on", "time": 3, "note": 73, "velocity": 92, "channel": 0}, {"type": "note_off", "time": 119, "note": 73, "velocity": 92, "channel": 0}, {"type": "note_on", "time": 0, "note": 72, "velocity": 80, "channel": 0}, {"type": "note_off", "time": 84, "note": 72, "velocity": 80, "channel": 0}, {"type": "note_on", "time": 0, "note": 71, "velocity": 82, "channel": 0}, {"type": "note_off", "time": 77, "note": 71, "velocity": 82, "channel": 0}, {"type": "note_on", "time": 3, "note": 69, "velocity": 81, "channel": 0}, {"type": "note_off", "time": 73, "note": 69, "velocity": 81, "channel": 0}, {"type": "note_on", "time": 11, "note": 68, "velocity": 75, "channel": 0}, {"type": "note_off", "time": 84, "note": 68, "velocity": 75, "channel": 0}, {"type": "note_on", "time": 7, "note": 71, "velocity": 91, "channel": 0}, {"type": "note_off", "time": 113, "note": 71, "velocity": 91, "channel": 0}, {"type": "note_on", "time": 9, "note": 68, "velocity": 77, "channel": 0}, {"type": "note_off", "time": 73, "note": 68, "velocity": 77, "channel": 0}, {"type": "note_on", "time": 3, "note": 69, "velocity": 75, "channel": 0}, {"type": "note_off", "time": 107, "note": 69, "velocity": 75, "channel": 0}, {"type": "note_on", "time": 3, "note": 67, "velocity": 81, "channel": 0}, {"type": "note_off", "time": 80, "note": 67, "velocity": 81, "channel": 0}, {"type": "note_on", "time": 1, "note": 66, "velocity": 95, "channel": 0}, {"type": "note_off", "time": 113, "note": 66, "velocity": 95, "channel": 0}, {"type": "note_on", "time": 11, "note": 64, "velocity": 90, "channel": 0}, {"type": "note_off", "time": 84, "note": 64, "velocity": 90, "channel": 0}, {"type": "note_on", "time": 3, "note": 62, "velocity": 87, "channel": 0}, {"type": "note_off", "time": 92, "note": 62, "velocity": 87, "channel": 0}, {"type": "note_on", "time": 7, "note": 60, "velocity": 85, "channel": 0}, {"type": "note_off", "time": 96, "note": 60, "velocity": 85, "channel": 0}, {"type": "note_on", "time": 11, "note": 59, "velocity": 91, "channel": 0}, {"type": "note_off", "time": 96, "note": 59, "velocity": 91, "channel": 0}, {"type": "note_on", "time": 9, "note": 57, "velocity": 94, "channel": 0}, {"type": "note_off", "time": 71, "note": 57, "velocity": 94, "channel": 0}, {"type": "note_on", "time": 7, "note": 55, "velocity": 87, "channel": 0}, {"type": "note_off", "time": 80, "note": 55, "velocity": 87, "channel": 0}, {"type": "note_on", "time": 7, "note": 54, "velocity": 82, "channel": 0}, {"type": "note_off", "time": 77, "note": 54, "velocity": 82, "channel": 0}, {"type": "note_on", "time": 0, "note": 57, "velocity": 75, "channel": 0}, {"type": "note_off", "time": 111, "note": 57, "velocity": 75, "channel": 0}, {"type": "note_on", "time": 23, "note": 54, "velocity": 77, "channel": 0}, {"type": "note_off", "time": 69, "note": 54, "velocity": 77, "channel": 0}, {"type": "note_on", "time": 7, "note": 55, "velocity": 71, "channel": 0}, {"type": "note_off", "time": 104, "note": 55, "velocity": 71, "channel": 0}, {"type": "note_on", "time": 878, "note": 55, "velocity": 101, "channel": 0}, {"type": "note_off", "time": 73, "note": 55, "velocity": 101, "channel": 0}, {"type": "note_on", "time": 0, "note": 58, "velocity": 108, "channel": 0}, {"type": "note_off", "time": 73, "note": 58, "velocity": 108, "channel": 0}, {"type": "note_on", "time": 0, "note": 60, "velocity": 101, "channel": 0}, {"type": "note_off", "time": 109, "note": 60, "velocity": 101, "channel": 0}, {"type": "note_on", "time": 19, "note": 63, "velocity": 100, "channel": 0}, {"type": "note_off", "time": 63, "note": 63, "velocity": 100, "channel": 0}, {"type": "note_on", "time": 13, "note": 67, "velocity": 78, "channel": 0}, {"type": "note_off", "time": 88, "note": 67, "velocity": 78, "channel": 0}, {"type": "note_on", "time": 21, "note": 70, "velocity": 70, "channel": 0}, {"type": "note_off", "time": 446, "note": 70, "velocity": 70, "channel": 0}, {"type": "note_on", "time": 3, "note": 67, "velocity": 85, "channel": 0}, {"type": "note_off", "time": 73, "note": 67, "velocity": 85, "channel": 0}, {"type": "note_on", "time": 13, "note": 69, "velocity": 85, "channel": 0}, {"type": "note_off", "time": 127, "note": 69, "velocity": 85, "channel": 0}, {"type": "note_on", "time": 1, "note": 65, "velocity": 93, "channel": 0}, {"type": "note_off", "time": 84, "note": 65, "velocity": 93, "channel": 0}, {"type": "note_on", "time": 5, "note": 67, "velocity": 96, "channel": 0}, {"type": "note_off", "time": 80, "note": 67, "velocity": 96, "channel": 0}, {"type": "note_on", "time": 15, "note": 63, "velocity": 96, "channel": 0}, {"type": "note_off", "time": 92, "note": 63, "velocity": 96, "channel": 0}, {"type": "note_on", "time": 5, "note": 60, "velocity": 88, "channel": 0}, {"type": "note_off", "time": 88, "note": 60, "velocity": 88, "channel": 0}, {"type": "note_on", "time": 15, "note": 62, "velocity": 78, "channel": 0}, {"type": "note_off", "time": 57, "note": 62, "velocity": 78, "channel": 0}, {"type": "note_on", "time": 0, "note": 65, "velocity": 73, "channel": 0}, {"type": "note_off", "time": 80, "note": 65, "velocity": 73, "channel": 0}, {"type": "note_on", "time": 4, "note": 64, "velocity": 81, "channel": 0}, {"type": "note_off", "time": 104, "note": 64, "velocity": 81, "channel": 0}, {"type": "note_on", "time": 6, "note": 63, "velocity": 80, "channel": 0}, {"type": "note_off", "time": 92, "note": 63, "velocity": 80, "channel": 0}, {"type": "note_on", "time": 7, "note": 61, "velocity": 67, "channel": 0}, {"type": "note_off", "time": 80, "note": 61, "velocity": 67, "channel": 0}, {"type": "note_on", "time": 12, "note": 62, "velocity": 66, "channel": 0}, {"type": "note_off", "time": 95, "note": 62, "velocity": 66, "channel": 0}, {"type": "note_on", "time": 19, "note": 64, "velocity": 92, "channel": 0}, {"type": "note_off", "time": 112, "note": 64, "velocity": 92, "channel": 0}, {"type": "note_on", "time": 5, "note": 60, "velocity": 90, "channel": 0}, {"type": "note_off", "time": 111, "note": 60, "velocity": 90, "channel": 0}, {"type": "note_on", "time": 9, "note": 58, "velocity": 115, "channel": 0}, {"type": "note_off", "time": 65, "note": 58, "velocity": 115, "channel": 0}, {"type": "note_on", "time": 7, "note": 59, "velocity": 106, "channel": 0}, {"type": "note_off", "time": 111, "note": 59, "velocity": 106, "channel": 0}, {"type": "note_on", "time": 73, "note": 53, "velocity": 104, "channel": 0}, {"type": "note_off", "time": 84, "note": 53, "velocity": 104, "channel": 0}, {"type": "note_on", "time": 11, "note": 54, "velocity": 103, "channel": 0}, {"type": "note_off", "time": 53, "note": 54, "velocity": 103, "channel": 0}, {"type": "note_on", "time": 13, "note": 56, "velocity": 101, "channel": 0}, {"type": "note_off", "time": 179, "note": 56, "velocity": 101, "channel": 0}, {"type": "note_on", "time": 20, "note": 53, "velocity": 95, "channel": 0}, {"type": "note_off", "time": 49, "note": 53, "velocity": 95, "channel": 0}, {"type": "note_on", "time": 8, "note": 55, "velocity": 104, "channel": 0}, {"type": "note_off", "time": 106, "note": 55, "velocity": 104, "channel": 0}, {"type": "note_on", "time": 13, "note": 51, "velocity": 101, "channel": 0}, {"type": "note_off", "time": 63, "note": 51, "velocity": 101, "channel": 0}, {"type": "note_on", "time": 19, "note": 48, "velocity": 107, "channel": 0}, {"type": "note_off", "time": 68, "note": 48, "velocity": 107, "channel": 0}, {"type": "note_on", "time": 43, "note": 51, "velocity": 103, "channel": 0}, {"type": "note_off", "time": 60, "note": 51, "velocity": 103, "channel": 0}, {"type": "note_on", "time": 8, "note": 53, "velocity": 86, "channel": 0}, {"type": "note_off", "time": 76, "note": 53, "velocity": 86, "channel": 0}, {"type": "note_on", "time": 8, "note": 52, "velocity": 77, "channel": 0}, {"type": "note_off", "time": 73, "note": 52, "velocity": 77, "channel": 0}, {"type": "note_on", "time": 13, "note": 51, "velocity": 77, "channel": 0}, {"type": "note_off", "time": 94, "note": 51, "velocity": 77, "channel": 0}, {"type": "note_on", "time": 15, "note": 53, "velocity": 84, "channel": 0}, {"type": "note_off", "time": 84, "note": 53, "velocity": 84, "channel": 0}, {"type": "note_on", "time": 16, "note": 55, "velocity": 91, "channel": 0}, {"type": "note_off", "time": 76, "note": 55, "velocity": 91, "channel": 0}, {"type": "note_on", "time": 8, "note": 58, "velocity": 103, "channel": 0}, {"type": "note_off", "time": 49, "note": 58, "velocity": 103, "channel": 0}, {"type": "note_on", "time": 5, "note": 62, "velocity": 98, "channel": 0}, {"type": "note_off", "time": 112, "note": 62, "velocity": 98, "channel": 0}, {"type": "note_on", "time": 30, "note": 58, "velocity": 93, "channel": 0}, {"type": "note_off", "time": 60, "note": 58, "velocity": 93, "channel": 0}, {"type": "note_on", "time": 33, "note": 61, "velocity": 94, "channel": 0}, {"type": "note_off", "time": 78, "note": 61, "velocity": 94, "channel": 0}, {"type": "note_on", "time": 28, "note": 57, "velocity": 101, "channel": 0}, {"type": "note_off", "time": 61, "note": 57, "velocity": 101, "channel": 0}, {"type": "note_on", "time": 17, "note": 54, "velocity": 102, "channel": 0}, {"type": "note_off", "time": 94, "note": 54, "velocity": 102, "channel": 0}, {"type": "note_on", "time": 17, "note": 52, "velocity": 103, "channel": 0}, {"type": "note_off", "time": 53, "note": 52, "velocity": 103, "channel": 0}, {"type": "note_on", "time": 13, "note": 53, "velocity": 85, "channel": 0}, {"type": "note_off", "time": 106, "note": 53, "velocity": 85, "channel": 0}, {"type": "note_on", "time": 16, "note": 52, "velocity": 9, "channel": 0}, {"type": "note_off", "time": 95, "note": 52, "velocity": 9, "channel": 0}, {"type": "note_on", "time": 13, "note": 51, "velocity": 108, "channel": 0}, {"type": "note_off", "time": 86, "note": 51, "velocity": 108, "channel": 0}, {"type": "note_on", "time": 3, "note": 49, "velocity": 105, "channel": 0}, {"type": "note_off", "time": 73, "note": 49, "velocity": 105, "channel": 0}, {"type": "note_on", "time": 5, "note": 50, "velocity": 88, "channel": 0}, {"type": "note_off", "time": 101, "note": 50, "velocity": 88, "channel": 0}, {"type": "note_on", "time": 65, "note": 63, "velocity": 73, "channel": 0}, {"type": "note_off", "time": 134, "note": 63, "velocity": 73, "channel": 0}, {"type": "note_on", "time": 7, "note": 61, "velocity": 108, "channel": 0}, {"type": "note_off", "time": 55, "note": 61, "velocity": 108, "channel": 0}, {"type": "note_on", "time": 3, "note": 62, "velocity": 80, "channel": 0}, {"type": "note_off", "time": 125, "note": 62, "velocity": 80, "channel": 0}, {"type": "note_on", "time": 55, "note": 67, "velocity": 80, "channel": 0}, {"type": "note_off", "time": 123, "note": 67, "velocity": 80, "channel": 0}, {"type": "note_on", "time": 8, "note": 66, "velocity": 104, "channel": 0}, {"type": "note_off", "time": 60, "note": 66, "velocity": 104, "channel": 0}, {"type": "note_on", "time": 19, "note": 65, "velocity": 88, "channel": 0}, {"type": "note_off", "time": 126, "note": 65, "velocity": 88, "channel": 0}, {"type": "note_on", "time": 8, "note": 62, "velocity": 117, "channel": 0}, {"type": "note_off", "time": 79, "note": 62, "velocity": 117, "channel": 0}, {"type": "note_on", "time": 2, "note": 58, "velocity": 100, "channel": 0}, {"type": "note_off", "time": 90, "note": 58, "velocity": 100, "channel": 0}, {"type": "note_on", "time": 8, "note": 55, "velocity": 101, "channel": 0}, {"type": "note_off", "time": 44, "note": 55, "velocity": 101, "channel": 0}, {"type": "note_on", "time": 0, "note": 64, "velocity": 78, "channel": 0}, {"type": "note_off", "time": 148, "note": 64, "velocity": 78, "channel": 0}, {"type": "note_on", "time": 21, "note": 60, "velocity": 83, "channel": 0}, {"type": "note_off", "time": 67, "note": 60, "velocity": 83, "channel": 0}, {"type": "note_on", "time": 15, "note": 57, "velocity": 81, "channel": 0}, {"type": "note_off", "time": 71, "note": 57, "velocity": 81, "channel": 0}, {"type": "note_on", "time": 24, "note": 55, "velocity": 98, "channel": 0}, {"type": "note_off", "time": 76, "note": 55, "velocity": 98, "channel": 0}, {"type": "note_on", "time": 13, "note": 59, "velocity": 90, "channel": 0}, {"type": "note_off", "time": 131, "note": 59, "velocity": 90, "channel": 0}, {"type": "note_on", "time": 13, "note": 57, "velocity": 77, "channel": 0}, {"type": "note_off", "time": 126, "note": 57, "velocity": 77, "channel": 0}, {"type": "note_on", "time": 95, "note": 56, "velocity": 79, "channel": 0}, {"type": "note_off", "time": 120, "note": 56, "velocity": 79, "channel": 0}, {"type": "note_on", "time": 109, "note": 59, "velocity": 100, "channel": 0}, {"type": "note_off", "time": 153, "note": 59, "velocity": 100, "channel": 0}, {"type": "note_on", "time": 3, "note": 57, "velocity": 86, "channel": 0}, {"type": "note_off", "time": 194, "note": 57, "velocity": 86, "channel": 0}, {"type": "note_on", "time": 17, "note": 55, "velocity": 95, "channel": 0}, {"type": "note_off", "time": 146, "note": 55, "velocity": 95, "channel": 0}, {"type": "note_on", "time": 32, "note": 54, "velocity": 85, "channel": 0}, {"type": "note_off", "time": 186, "note": 54, "velocity": 85, "channel": 0}, {"type": "note_on", "time": 43, "note": 57, "velocity": 80, "channel": 0}, {"type": "note_off", "time": 178, "note": 57, "velocity": 80, "channel": 0}, {"type": "note_on", "time": 19, "note": 52, "velocity": 91, "channel": 0}, {"type": "note_off", "time": 520, "note": 52, "velocity": 91, "channel": 0}, {"type": "note_on", "time": 425, "note": 66, "velocity": 87, "channel": 0}, {"type": "note_off", "time": 88, "note": 66, "velocity": 87, "channel": 0}, {"type": "note_on", "time": 19, "note": 68, "velocity": 89, "channel": 0}, {"type": "note_off", "time": 79, "note": 68, "velocity": 89, "channel": 0}, {"type": "note_on", "time": 2, "note": 71, "velocity": 76, "channel": 0}, {"type": "note_off", "time": 139, "note": 71, "velocity": 76, "channel": 0}, {"type": "note_on", "time": 8, "note": 70, "velocity": 91, "channel": 0}, {"type": "note_off", "time": 65, "note": 70, "velocity": 91, "channel": 0}, {"type": "note_on", "time": 10, "note": 69, "velocity": 90, "channel": 0}, {"type": "note_off", "time": 73, "note": 69, "velocity": 90, "channel": 0}, {"type": "note_on", "time": 13, "note": 68, "velocity": 79, "channel": 0}, {"type": "note_off", "time": 109, "note": 68, "velocity": 79, "channel": 0}, {"type": "note_on", "time": 5, "note": 66, "velocity": 83, "channel": 0}, {"type": "note_off", "time": 96, "note": 66, "velocity": 83, "channel": 0}, {"type": "note_on", "time": 0, "note": 64, "velocity": 79, "channel": 0}, {"type": "note_off", "time": 107, "note": 64, "velocity": 79, "channel": 0}, {"type": "note_on", "time": 5, "note": 63, "velocity": 78, "channel": 0}, {"type": "note_off", "time": 119, "note": 63, "velocity": 78, "channel": 0}, {"type": "note_on", "time": 12, "note": 61, "velocity": 77, "channel": 0}, {"type": "note_off", "time": 71, "note": 61, "velocity": 77, "channel": 0}, {"type": "note_on", "time": 0, "note": 59, "velocity": 91, "channel": 0}, {"type": "note_off", "time": 92, "note": 59, "velocity": 91, "channel": 0}, {"type": "note_on", "time": 5, "note": 58, "velocity": 89, "channel": 0}, {"type": "note_off", "time": 63, "note": 58, "velocity": 89, "channel": 0}, {"type": "note_on", "time": 9, "note": 57, "velocity": 94, "channel": 0}, {"type": "note_off", "time": 140, "note": 57, "velocity": 94, "channel": 0}, {"type": "note_on", "time": 13, "note": 55, "velocity": 108, "channel": 0}, {"type": "note_off", "time": 54, "note": 55, "velocity": 108, "channel": 0}, {"type": "note_on", "time": 2, "note": 56, "velocity": 99, "channel": 0}, {"type": "note_off", "time": 65, "note": 56, "velocity": 99, "channel": 0}, {"type": "note_on", "time": 2, "note": 59, "velocity": 91, "channel": 0}, {"type": "note_off", "time": 80, "note": 59, "velocity": 91, "channel": 0}, {"type": "note_on", "time": 12, "note": 61, "velocity": 80, "channel": 0}, {"type": "note_off", "time": 104, "note": 61, "velocity": 80, "channel": 0}, {"type": "note_on", "time": 16, "note": 63, "velocity": 95, "channel": 0}, {"type": "note_off", "time": 68, "note": 63, "velocity": 95, "channel": 0}, {"type": "note_on", "time": 5, "note": 66, "velocity": 79, "channel": 0}, {"type": "note_off", "time": 101, "note": 66, "velocity": 79, "channel": 0}, {"type": "note_on", "time": 7, "note": 63, "velocity": 78, "channel": 0}, {"type": "note_off", "time": 86, "note": 63, "velocity": 78, "channel": 0}, {"type": "note_on", "time": 13, "note": 59, "velocity": 84, "channel": 0}, {"type": "note_off", "time": 98, "note": 59, "velocity": 84, "channel": 0}, {"type": "note_on", "time": 433, "note": 68, "velocity": 85, "channel": 0}, {"type": "note_off", "time": 121, "note": 68, "velocity": 85, "channel": 0}, {"type": "note_on", "time": 13, "note": 71, "velocity": 93, "channel": 0}, {"type": "note_off", "time": 92, "note": 71, "velocity": 93, "channel": 0}, {"type": "note_on", "time": 10, "note": 69, "velocity": 106, "channel": 0}, {"type": "note_off", "time": 82, "note": 69, "velocity": 106, "channel": 0}, {"type": "note_on", "time": 13, "note": 67, "velocity": 102, "channel": 0}, {"type": "note_off", "time": 82, "note": 67, "velocity": 102, "channel": 0}, {"type": "note_on", "time": 8, "note": 66, "velocity": 105, "channel": 0}, {"type": "note_off", "time": 92, "note": 66, "velocity": 105, "channel": 0}, {"type": "note_on", "time": 0, "note": 64, "velocity": 106, "channel": 0}, {"type": "note_off", "time": 105, "note": 64, "velocity": 106, "channel": 0}, {"type": "note_on", "time": 1, "note": 62, "velocity": 102, "channel": 0}, {"type": "note_off", "time": 84, "note": 62, "velocity": 102, "channel": 0}, {"type": "note_on", "time": 7, "note": 60, "velocity": 99, "channel": 0}, {"type": "note_off", "time": 71, "note": 60, "velocity": 99, "channel": 0}, {"type": "note_on", "time": 11, "note": 59, "velocity": 97, "channel": 0}, {"type": "note_off", "time": 78, "note": 59, "velocity": 97, "channel": 0}, {"type": "note_on", "time": 35, "note": 62, "velocity": 89, "channel": 0}, {"type": "note_off", "time": 82, "note": 62, "velocity": 89, "channel": 0}, {"type": "note_on", "time": 7, "note": 57, "velocity": 90, "channel": 0}, {"type": "note_off", "time": 82, "note": 57, "velocity": 90, "channel": 0}, {"type": "note_on", "time": 10, "note": 54, "velocity": 90, "channel": 0}, {"type": "note_off", "time": 77, "note": 54, "velocity": 90, "channel": 0}, {"type": "note_on", "time": 9, "note": 55, "velocity": 84, "channel": 0}, {"type": "note_off", "time": 98, "note": 55, "velocity": 84, "channel": 0}, {"type": "note_on", "time": 109, "note": 59, "velocity": 87, "channel": 0}, {"type": "note_off", "time": 79, "note": 59, "velocity": 87, "channel": 0}, {"type": "note_on", "time": 2, "note": 62, "velocity": 94, "channel": 0}, {"type": "note_off", "time": 76, "note": 62, "velocity": 94, "channel": 0}, {"type": "note_on", "time": 10, "note": 59, "velocity": 78, "channel": 0}, {"type": "note_off", "time": 93, "note": 59, "velocity": 78, "channel": 0}, {"type": "note_on", "time": 10, "note": 60, "velocity": 95, "channel": 0}, {"type": "note_off", "time": 73, "note": 60, "velocity": 95, "channel": 0}, {"type": "note_on", "time": 50, "note": 64, "velocity": 94, "channel": 0}, {"type": "note_off", "time": 69, "note": 64, "velocity": 94, "channel": 0}, {"type": "note_on", "time": 7, "note": 67, "velocity": 93, "channel": 0}, {"type": "note_off", "time": 50, "note": 67, "velocity": 93, "channel": 0}, {"type": "note_on", "time": 3, "note": 71, "velocity": 86, "channel": 0}, {"type": "note_off", "time": 100, "note": 71, "velocity": 86, "channel": 0}, {"type": "note_on", "time": 36, "note": 65, "velocity": 92, "channel": 0}, {"type": "note_off", "time": 48, "note": 65, "velocity": 92, "channel": 0}, {"type": "note_on", "time": 11, "note": 66, "velocity": 87, "channel": 0}, {"type": "note_off", "time": 107, "note": 66, "velocity": 87, "channel": 0}, {"type": "note_on", "time": 23, "note": 69, "velocity": 73, "channel": 0}, {"type": "note_off", "time": 90, "note": 69, "velocity": 73, "channel": 0}, {"type": "note_on", "time": 25, "note": 67, "velocity": 88, "channel": 0}, {"type": "note_off", "time": 67, "note": 67, "velocity": 88, "channel": 0}, {"type": "note_on", "time": 15, "note": 62, "velocity": 87, "channel": 0}, {"type": "note_off", "time": 90, "note": 62, "velocity": 87, "channel": 0}, {"type": "note_on", "time": 13, "note": 59, "velocity": 95, "channel": 0}, {"type": "note_off", "time": 84, "note": 59, "velocity": 95, "channel": 0}, {"type": "note_on", "time": 7, "note": 60, "velocity": 95, "channel": 0}, {"type": "note_off", "time": 63, "note": 60, "velocity": 95, "channel": 0}, {"type": "note_on", "time": 3, "note": 62, "velocity": 85, "channel": 0}, {"type": "note_off", "time": 105, "note": 62, "velocity": 85, "channel": 0}, {"type": "note_on", "time": 23, "note": 59, "velocity": 95, "channel": 0}, {"type": "note_off", "time": 79, "note": 59, "velocity": 95, "channel": 0}, {"type": "note_on", "time": 737, "note": 62, "velocity": 82, "channel": 0}, {"type": "note_off", "time": 109, "note": 62, "velocity": 82, "channel": 0}, {"type": "note_on", "time": 110, "note": 70, "velocity": 73, "channel": 0}, {"type": "note_off", "time": 80, "note": 70, "velocity": 73, "channel": 0}, {"type": "note_on", "time": 17, "note": 74, "velocity": 92, "channel": 0}, {"type": "note_off", "time": 150, "note": 74, "velocity": 92, "channel": 0}, {"type": "note_on", "time": 7, "note": 71, "velocity": 83, "channel": 0}, {"type": "note_off", "time": 78, "note": 71, "velocity": 83, "channel": 0}, {"type": "note_on", "time": 585, "note": 69, "velocity": 75, "channel": 0}, {"type": "note_off", "time": 92, "note": 69, "velocity": 75, "channel": 0}, {"type": "note_on", "time": 13, "note": 70, "velocity": 76, "channel": 0}, {"type": "note_off", "time": 242, "note": 70, "velocity": 76, "channel": 0}, {"type": "note_on", "time": 26, "note": 66, "velocity": 66, "channel": 0}, {"type": "note_off", "time": 131, "note": 66, "velocity": 66, "channel": 0}, {"type": "note_on", "time": 12, "note": 68, "velocity": 104, "channel": 0}, {"type": "note_off", "time": 68, "note": 68, "velocity": 104, "channel": 0}, {"type": "note_on", "time": 2, "note": 70, "velocity": 84, "channel": 0}, {"type": "note_off", "time": 128, "note": 70, "velocity": 84, "channel": 0}, {"type": "note_on", "time": 16, "note": 66, "velocity": 103, "channel": 0}, {"type": "note_off", "time": 71, "note": 66, "velocity": 103, "channel": 0}, {"type": "note_on", "time": 40, "note": 63, "velocity": 104, "channel": 0}, {"type": "note_off", "time": 77, "note": 63, "velocity": 104, "channel": 0}, {"type": "note_on", "time": 22, "note": 64, "velocity": 81, "channel": 0}, {"type": "note_off", "time": 65, "note": 64, "velocity": 81, "channel": 0}, {"type": "note_on", "time": 0, "note": 66, "velocity": 104, "channel": 0}, {"type": "note_off", "time": 202, "note": 66, "velocity": 104, "channel": 0}, {"type": "note_on", "time": 114, "note": 62, "velocity": 109, "channel": 0}, {"type": "note_off", "time": 68, "note": 62, "velocity": 109, "channel": 0}, {"type": "note_on", "time": 0, "note": 58, "velocity": 103, "channel": 0}, {"type": "note_off", "time": 88, "note": 58, "velocity": 103, "channel": 0}, {"type": "note_on", "time": 37, "note": 61, "velocity": 101, "channel": 0}, {"type": "note_off", "time": 71, "note": 61, "velocity": 101, "channel": 0}, {"type": "note_on", "time": 2, "note": 62, "velocity": 101, "channel": 0}, {"type": "note_off", "time": 268, "note": 62, "velocity": 101, "channel": 0}, {"type": "note_on", "time": 16, "note": 58, "velocity": 109, "channel": 0}, {"type": "note_off", "time": 76, "note": 58, "velocity": 109, "channel": 0}, {"type": "note_on", "time": 8, "note": 54, "velocity": 105, "channel": 0}, {"type": "note_off", "time": 94, "note": 54, "velocity": 105, "channel": 0}, {"type": "note_on", "time": 826, "note": 70, "velocity": 76, "channel": 0}, {"type": "note_off", "time": 96, "note": 70, "velocity": 76, "channel": 0}, {"type": "note_on", "time": 9, "note": 71, "velocity": 80, "channel": 0}, {"type": "note_off", "time": 273, "note": 71, "velocity": 80, "channel": 0}, {"type": "note_on", "time": 11, "note": 69, "velocity": 80, "channel": 0}, {"type": "note_off", "time": 369, "note": 69, "velocity": 80, "channel": 0}, {"type": "note_on", "time": 7, "note": 63, "velocity": 86, "channel": 0}, {"type": "note_off", "time": 69, "note": 63, "velocity": 86, "channel": 0}, {"type": "note_on", "time": 48, "note": 65, "velocity": 82, "channel": 0}, {"type": "note_off", "time": 254, "note": 65, "velocity": 82, "channel": 0}, {"type": "note_on", "time": 25, "note": 58, "velocity": 83, "channel": 0}, {"type": "note_off", "time": 84, "note": 58, "velocity": 83, "channel": 0}, {"type": "note_on", "time": 5, "note": 59, "velocity": 84, "channel": 0}, {"type": "note_off", "time": 71, "note": 59, "velocity": 84, "channel": 0}, {"type": "note_on", "time": 19, "note": 65, "velocity": 76, "channel": 0}, {"type": "note_off", "time": 100, "note": 65, "velocity": 76, "channel": 0}, {"type": "note_on", "time": 11, "note": 64, "velocity": 75, "channel": 0}, {"type": "note_on", "time": 104, "note": 62, "velocity": 70, "channel": 0}, {"type": "note_off", "time": 0, "note": 64, "velocity": 75, "channel": 0}, {"type": "note_off", "time": 100, "note": 62, "velocity": 70, "channel": 0}, {"type": "note_on", "time": 0, "note": 60, "velocity": 70, "channel": 0}, {"type": "note_off", "time": 73, "note": 60, "velocity": 70, "channel": 0}, {"type": "note_on", "time": 9, "note": 59, "velocity": 85, "channel": 0}, {"type": "note_off", "time": 96, "note": 59, "velocity": 85, "channel": 0}, {"type": "note_on", "time": 19, "note": 57, "velocity": 80, "channel": 0}, {"type": "note_off", "time": 63, "note": 57, "velocity": 80, "channel": 0}, {"type": "note_on", "time": 15, "note": 56, "velocity": 82, "channel": 0}, {"type": "note_off", "time": 154, "note": 56, "velocity": 82, "channel": 0}, {"type": "note_on", "time": 17, "note": 59, "velocity": 114, "channel": 0}, {"type": "note_off", "time": 119, "note": 59, "velocity": 114, "channel": 0}, {"type": "note_on", "time": 9, "note": 56, "velocity": 109, "channel": 0}, {"type": "note_off", "time": 53, "note": 56, "velocity": 109, "channel": 0}, {"type": "note_on", "time": 15, "note": 57, "velocity": 101, "channel": 0}, {"type": "note_off", "time": 105, "note": 57, "velocity": 101, "channel": 0}, {"type": "note_on", "time": 618, "note": 65, "velocity": 100, "channel": 0}, {"type": "note_off", "time": 107, "note": 65, "velocity": 100, "channel": 0}, {"type": "note_on", "time": 11, "note": 64, "velocity": 81, "channel": 0}, {"type": "note_off", "time": 88, "note": 64, "velocity": 81, "channel": 0}, {"type": "note_on", "time": 7, "note": 63, "velocity": 88, "channel": 0}, {"type": "note_off", "time": 84, "note": 63, "velocity": 88, "channel": 0}, {"type": "note_on", "time": 19, "note": 62, "velocity": 91, "channel": 0}, {"type": "note_off", "time": 88, "note": 62, "velocity": 91, "channel": 0}, {"type": "note_on", "time": 7, "note": 60, "velocity": 105, "channel": 0}, {"type": "note_off", "time": 88, "note": 60, "velocity": 105, "channel": 0}, {"type": "note_on", "time": 11, "note": 58, "velocity": 86, "channel": 0}, {"type": "note_off", "time": 71, "note": 58, "velocity": 86, "channel": 0}, {"type": "note_on", "time": 3, "note": 57, "velocity": 110, "channel": 0}, {"type": "note_off", "time": 90, "note": 57, "velocity": 110, "channel": 0}, {"type": "note_on", "time": 11, "note": 55, "velocity": 103, "channel": 0}, {"type": "note_off", "time": 77, "note": 55, "velocity": 103, "channel": 0}, {"type": "note_on", "time": 15, "note": 53, "velocity": 98, "channel": 0}, {"type": "note_off", "time": 90, "note": 53, "velocity": 98, "channel": 0}, {"type": "note_on", "time": 17, "note": 52, "velocity": 93, "channel": 0}, {"type": "note_off", "time": 92, "note": 52, "velocity": 93, "channel": 0}, {"type": "note_on", "time": 15, "note": 51, "velocity": 87, "channel": 0}, {"type": "note_off", "time": 82, "note": 51, "velocity": 87, "channel": 0}, {"type": "note_on", "time": 9, "note": 49, "velocity": 87, "channel": 0}, {"type": "note_off", "time": 80, "note": 49, "velocity": 87, "channel": 0}, {"type": "note_on", "time": 13, "note": 50, "velocity": 96, "channel": 0}, {"type": "note_off", "time": 98, "note": 50, "velocity": 96, "channel": 0}, {"type": "note_on", "time": 999, "note": 66, "velocity": 98, "channel": 0}, {"type": "note_off", "time": 50, "note": 66, "velocity": 98, "channel": 0}, {"type": "note_on", "time": 15, "note": 67, "velocity": 86, "channel": 0}, {"type": "note_off", "time": 50, "note": 67, "velocity": 86, "channel": 0}, {"type": "note_on", "time": 13, "note": 66, "velocity": 88, "channel": 0}, {"type": "note_off", "time": 48, "note": 66, "velocity": 88, "channel": 0}, {"type": "note_on", "time": 1, "note": 62, "velocity": 85, "channel": 0}, {"type": "note_off", "time": 98, "note": 62, "velocity": 85, "channel": 0}, {"type": "end_of_track", "time": 0}]]}