{"ticks_per_beat": 2520, "tracks": [[{"type": "track_name", "name": "Melody", "time": 0}, {"type": "set_tempo", "tempo": 882352, "time": 0}, {"type": "key_signature", "key": "Db", "time": 0}, {"type": "time_signature", "numerator": 4, "denominator": 4, "clocks_per_click": 24, "notated_32nd_notes_per_beat": 8, "time": 0}, {"type": "note_on", "time": 30933, "note": 58, "velocity": 117, "channel": 0}, {"type": "note_off", "time": 348, "note": 58, "velocity": 117, "channel": 0}, {"type": "note_on", "time": 99, "note": 60, "velocity": 111, "channel": 0}, {"type": "note_off", "time": 331, "note": 60, "velocity": 111, "channel": 0}, {"type": "note_on", "time": 49, "note": 62, "velocity": 111, "channel": 0}, {"type": "note_off", "time": 331, "note": 62, "velocity": 111, "channel": 0}, {"type": "note_on", "time": 364, "note": 63, "velocity": 102, "channel": 0}, {"type": "note_off", "time": 2917, "note": 63, "velocity": 102, "channel": 0}, {"type": "note_on", "time": 597, "note": 70, "velocity": 114, "channel": 0}, {"type": "note_off", "time": 384, "note": 70, "velocity": 114, "channel": 0}, {"type": "note_on", "time": 11, "note": 66, "velocity": 110, "channel": 0}, {"type": "note_off", "time": 396, "note": 66, "velocity": 110, "channel": 0}, {"type": "note_on", "time": 23, "note": 63, "velocity": 109, "channel": 0}, {"type": "note_off", "time": 361, "note": 63, "velocity": 109, "channel": 0}, {"type": "note_on", "time": 46, "note": 58, "velocity": 106, "channel": 0}, {"type": "note_off", "time": 454, "note": 58, "velocity": 106, "channel": 0}, {"type": "note_on", "time": 81, "note": 62, "velocity": 106, "channel": 0}, {"type": "note_off", "time": 1993, "note": 62, "velocity": 106, "channel": 0}, {"type": "note_on", "time": 1503, "note": 70, "velocity": 116, "channel": 0}, {"type": "note_off", "time": 384, "note": 70, "velocity": 116, "channel": 0}, {"type": "note_on", "time": 46, "note": 66, "velocity": 117, "channel": 0}, {"type": "note_off", "time": 291, "note": 66, "velocity": 117, "channel": 0}, {"type": "note_on", "time": 81, "note": 62, "velocity": 115, "channel": 0}, {"type": "note_off", "time": 314, "note": 62, "velocity": 115, "channel": 0}, {"type": "note_on", "time": 81, "note": 58, "velocity": 112, "channel": 0}, {"type": "note_off", "time": 314, "note": 58, "velocity": 112, "channel": 0}, {"type": "note_on", "time": 163, "note": 61, "velocity": 108, "channel": 0}, {"type": "note_off", "time": 1830, "note": 61, "velocity": 108, "channel": 0}, {"type": "note_on", "time": 293, "note": 69, "velocity": 115, "channel": 0}, {"type": "note_off", "time": 149, "note": 69, "velocity": 115, "channel": 0}, {"type": "note_on", "time": 132, "note": 70, "velocity": 110, "channel": 0}, {"type": "note_off", "time": 613, "note": 70, "velocity": 110, "channel": 0}, {"type": "note_on", "time": 8, "note": 72, "velocity": 97, "channel": 0}, {"type": "note_off", "time": 116, "note": 72, "velocity": 97, "channel": 0}, {"type": "note_on", "time": 41, "note": 70, "velocity": 102, "channel": 0}, {"type": "note_off", "time": 223, "note": 70, "velocity": 102, "channel": 0}, {"type": "note_on", "time": 49, "note": 66, "velocity": 118, "channel": 0}, {"type": "note_off", "time": 356, "note": 66, "velocity": 118, "channel": 0}, {"type": "note_on", "time": 16, "note": 63, "velocity": 113, "channel": 0}, {"type": "note_off", "time": 339, "note": 63, "velocity": 113, "channel": 0}, {"type": "note_on", "time": 25, "note": 58, "velocity": 106, "channel": 0}, {"type": "note_off", "time": 373, "note": 58, "velocity": 106, "channel": 0}, {"type": "note_on", "time": 34, "note": 61, "velocity": 109, "channel": 0}, {"type": "note_off", "time": 384, "note": 61, "velocity": 109, "channel": 0}, {"type": "note_on", "time": 58, "note": 60, "velocity": 107, "channel": 0}, {"type": "note_off", "time": 1923, "note": 60, "velocity": 107, "channel": 0}, {"type": "note_on", "time": 5564, "note": 65, "velocity": 121, "channel": 0}, {"type": "note_off", "time": 207, "note": 65, "velocity": 121, "channel": 0}, {"type": "note_on", "time": 182, "note": 66, "velocity": 117, "channel": 0}, {"type": "note_off", "time": 265, "note": 66, "velocity": 117, "channel": 0}, {"type": "note_on", "time": 66, "note": 68, "velocity": 116, "channel": 0}, {"type": "note_off", "time": 256, "note": 68, "velocity": 116, "channel": 0}, {"type": "note_on", "time": 82, "note": 70, "velocity": 119, "channel": 0}, {"type": "note_off", "time": 223, "note": 70, "velocity": 119, "channel": 0}, {"type": "note_on", "time": 8, "note": 68, "velocity": 118, "channel": 0}, {"type": "note_off", "time": 323, "note": 68, "velocity": 118, "channel": 0}, {"type": "note_on", "time": 82, "note": 66, "velocity": 88, "channel": 0}, {"type": "note_off", "time": 265, "note": 66, "velocity": 88, "channel": 0}, {"type": "note_on", "time": 41, "note": 68, "velocity": 103, "channel": 0}, {"type": "note_off", "time": 2055, "note": 68, "velocity": 103, "channel": 0}, {"type": "note_on", "time": 2992, "note": 65, "velocity": 121, "channel": 0}, {"type": "note_off", "time": 174, "note": 65, "velocity": 121, "channel": 0}, {"type": "note_on", "time": 66, "note": 66, "velocity": 119, "channel": 0}, {"type": "note_off", "time": 215, "note": 66, "velocity": 119, "channel": 0}, {"type": "note_on", "time": 82, "note": 68, "velocity": 112, "channel": 0}, {"type": "note_off", "time": 381, "note": 68, "velocity": 112, "channel": 0}, {"type": "note_on", "time": 215, "note": 72, "velocity": 122, "channel": 0}, {"type": "note_off", "time": 422, "note": 72, "velocity": 122, "channel": 0}, {"type": "note_on", "time": 8, "note": 71, "velocity": 122, "channel": 0}, {"type": "note_off", "time": 281, "note": 71, "velocity": 122, "channel": 0}, {"type": "note_on", "time": 16, "note": 70, "velocity": 118, "channel": 0}, {"type": "note_off", "time": 232, "note": 70, "velocity": 118, "channel": 0}, {"type": "note_on", "time": 41, "note": 69, "velocity": 123, "channel": 0}, {"type": "note_off", "time": 248, "note": 69, "velocity": 123, "channel": 0}, {"type": "note_on", "time": 24, "note": 68, "velocity": 113, "channel": 0}, {"type": "note_off", "time": 240, "note": 68, "velocity": 113, "channel": 0}, {"type": "note_on", "time": 124, "note": 60, "velocity": 119, "channel": 0}, {"type": "note_off", "time": 285, "note": 60, "velocity": 119, "channel": 0}, {"type": "note_on", "time": 70, "note": 61, "velocity": 121, "channel": 0}, {"type": "note_off", "time": 157, "note": 61, "velocity": 121, "channel": 0}, {"type": "note_on", "time": 58, "note": 66, "velocity": 122, "channel": 0}, {"type": "note_off", "time": 265, "note": 66, "velocity": 122, "channel": 0}, {"type": "note_on", "time": 107, "note": 65, "velocity": 124, "channel": 0}, {"type": "note_off", "time": 207, "note": 65, "velocity": 124, "channel": 0}, {"type": "note_on", "time": 49, "note": 66, "velocity": 119, "channel": 0}, {"type": "note_off", "time": 256, "note": 66, "velocity": 119, "channel": 0}, {"type": "note_on", "time": 82, "note": 68, "velocity": 107, "channel": 0}, {"type": "note_off", "time": 290, "note": 68, "velocity": 107, "channel": 0}, {"type": "note_on", "time": 41, "note": 70, "velocity": 102, "channel": 0}, {"type": "note_off", "time": 215, "note": 70, "velocity": 102, "channel": 0}, {"type": "note_on", "time": 24, "note": 72, "velocity": 127, "channel": 0}, {"type": "note_off", "time": 240, "note": 72, "velocity": 127, "channel": 0}, {"type": "note_on", "time": 66, "note": 68, "velocity": 120, "channel": 0}, {"type": "note_off", "time": 248, "note": 68, "velocity": 120, "channel": 0}, {"type": "note_on", "time": 37, "note": 65, "velocity": 116, "channel": 0}, {"type": "note_off", "time": 285, "note": 65, "velocity": 116, "channel": 0}, {"type": "note_on", "time": 124, "note": 60, "velocity": 104, "channel": 0}, {"type": "note_off", "time": 223, "note": 60, "velocity": 104, "channel": 0}, {"type": "note_on", "time": 24, "note": 63, "velocity": 121, "channel": 0}, {"type": "note_off", "time": 256, "note": 63, "velocity": 121, "channel": 0}, {"type": "note_on", "time": 24, "note": 60, "velocity": 110, "channel": 0}, {"type": "note_off", "time": 240, "note": 60, "velocity": 110, "channel": 0}, {"type": "note_on", "time": 116, "note": 62, "velocity": 119, "channel": 0}, {"type": "note_off", "time": 215, "note": 62, "velocity": 119, "channel": 0}, {"type": "note_on", "time": 41, "note": 65, "velocity": 118, "channel": 0}, {"type": "note_off", "time": 290, "note": 65, "velocity": 118, "channel": 0}, {"type": "note_on", "time": 8, "note": 68, "velocity": 111, "channel": 0}, {"type": "note_off", "time": 265, "note": 68, "velocity": 111, "channel": 0}, {"type": "note_on", "time": 74, "note": 70, "velocity": 117, "channel": 0}, {"type": "note_off", "time": 174, "note": 70, "velocity": 117, "channel": 0}, {"type": "note_on", "time": 16, "note": 71, "velocity": 118, "channel": 0}, {"type": "note_off", "time": 613, "note": 71, "velocity": 118, "channel": 0}, {"type": "note_on", "time": 0, "note": 70, "velocity": 118, "channel": 0}, {"type": "note_off", "time": 364, "note": 70, "velocity": 118, "channel": 0}, {"type": "note_on", "time": 49, "note": 64, "velocity": 119, "channel": 0}, {"type": "note_off", "time": 1260, "note": 64, "velocity": 119, "channel": 0}, {"type": "note_on", "time": 140, "note": 70, "velocity": 118, "channel": 0}, {"type": "note_off", "time": 298, "note": 70, "velocity": 118, "channel": 0}, {"type": "note_on", "time": 24, "note": 71, "velocity": 119, "channel": 0}, {"type": "note_off", "time": 497, "note": 71, "velocity": 119, "channel": 0}, {"type": "note_on", "time": 24, "note": 70, "velocity": 115, "channel": 0}, {"type": "note_off", "time": 298, "note": 70, "velocity": 115, "channel": 0}, {"type": "note_on", "time": 91, "note": 63, "velocity": 100, "channel": 0}, {"type": "note_off", "time": 2884, "note": 63, "velocity": 100, "channel": 0}, {"type": "note_on", "time": 2486, "note": 72, "velocity": 119, "channel": 0}, {"type": "note_off", "time": 298, "note": 72, "velocity": 119, "channel": 0}, {"type": "note_on", "time": 8, "note": 73, "velocity": 119, "channel": 0}, {"type": "note_off", "time": 298, "note": 73, "velocity": 119, "channel": 0}, {"type": "note_on", "time": 8, "note": 72, "velocity": 125, "channel": 0}, {"type": "note_off", "time": 215, "note": 72, "velocity": 125, "channel": 0}, {"type": "note_on", "time": 24, "note": 73, "velocity": 115, "channel": 0}, {"type": "note_off", "time": 248, "note": 73, "velocity": 115, "channel": 0}, {"type": "note_on", "time": 8, "note": 72, "velocity": 111, "channel": 0}, {"type": "note_off", "time": 315, "note": 72, "velocity": 111, "channel": 0}, {"type": "note_on", "time": 0, "note": 70, "velocity": 118, "channel": 0}, {"type": "note_off", "time": 397, "note": 70, "velocity": 118, "channel": 0}, {"type": "note_on", "time": 74, "note": 69, "velocity": 118, "channel": 0}, {"type": "note_off", "time": 215, "note": 69, "velocity": 118, "channel": 0}, {"type": "note_on", "time": 8, "note": 70, "velocity": 113, "channel": 0}, {"type": "note_off", "time": 232, "note": 70, "velocity": 113, "channel": 0}, {"type": "note_on", "time": 49, "note": 69, "velocity": 113, "channel": 0}, {"type": "note_off", "time": 207, "note": 69, "velocity": 113, "channel": 0}, {"type": "note_on", "time": 33, "note": 67, "velocity": 116, "channel": 0}, {"type": "note_off", "time": 414, "note": 67, "velocity": 116, "channel": 0}, {"type": "note_on", "time": 140, "note": 65, "velocity": 118, "channel": 0}, {"type": "note_off", "time": 2727, "note": 65, "velocity": 118, "channel": 0}, {"type": "note_on", "time": 8, "note": 64, "velocity": 119, "channel": 0}, {"type": "note_off", "time": 323, "note": 64, "velocity": 119, "channel": 0}, {"type": "note_on", "time": 66, "note": 63, "velocity": 116, "channel": 0}, {"type": "note_off", "time": 290, "note": 63, "velocity": 116, "channel": 0}, {"type": "note_on", "time": 49, "note": 56, "velocity": 105, "channel": 0}, {"type": "note_off", "time": 290, "note": 56, "velocity": 105, "channel": 0}, {"type": "note_on", "time": 16, "note": 58, "velocity": 114, "channel": 0}, {"type": "note_off", "time": 207, "note": 58, "velocity": 114, "channel": 0}, {"type": "note_on", "time": 16, "note": 61, "velocity": 119, "channel": 0}, {"type": "note_off", "time": 455, "note": 61, "velocity": 119, "channel": 0}, {"type": "note_on", "time": 24, "note": 60, "velocity": 116, "channel": 0}, {"type": "note_off", "time": 447, "note": 60, "velocity": 116, "channel": 0}, {"type": "note_on", "time": 132, "note": 54, "velocity": 123, "channel": 0}, {"type": "note_off", "time": 795, "note": 54, "velocity": 123, "channel": 0}, {"type": "note_on", "time": 24, "note": 53, "velocity": 108, "channel": 0}, {"type": "note_off", "time": 1798, "note": 53, "velocity": 108, "channel": 0}, {"type": "note_on", "time": 6275, "note": 72, "velocity": 126, "channel": 0}, {"type": "note_off", "time": 198, "note": 72, "velocity": 126, "channel": 0}, {"type": "note_on", "time": 140, "note": 74, "velocity": 117, "channel": 0}, {"type": "note_off", "time": 298, "note": 74, "velocity": 117, "channel": 0}, {"type": "note_on", "time": 0, "note": 75, "velocity": 120, "channel": 0}, {"type": "note_off", "time": 315, "note": 75, "velocity": 120, "channel": 0}, {"type": "note_on", "time": 8, "note": 73, "velocity": 126, "channel": 0}, {"type": "note_off", "time": 265, "note": 73, "velocity": 126, "channel": 0}, {"type": "note_on", "time": 33, "note": 72, "velocity": 122, "channel": 0}, {"type": "note_off", "time": 331, "note": 72, "velocity": 122, "channel": 0}, {"type": "note_on", "time": 24, "note": 70, "velocity": 119, "channel": 0}, {"type": "note_off", "time": 232, "note": 70, "velocity": 119, "channel": 0}, {"type": "note_on", "time": 107, "note": 69, "velocity": 121, "channel": 0}, {"type": "note_off", "time": 248, "note": 69, "velocity": 121, "channel": 0}, {"type": "note_on", "time": 16, "note": 67, "velocity": 103, "channel": 0}, {"type": "note_off", "time": 232, "note": 67, "velocity": 103, "channel": 0}, {"type": "note_on", "time": 16, "note": 68, "velocity": 120, "channel": 0}, {"type": "note_off", "time": 265, "note": 68, "velocity": 120, "channel": 0}, {"type": "note_on", "time": 33, "note": 67, "velocity": 118, "channel": 0}, {"type": "note_off", "time": 207, "note": 67, "velocity": 118, "channel": 0}, {"type": "note_on", "time": 58, "note": 66, "velocity": 115, "channel": 0}, {"type": "note_off", "time": 323, "note": 66, "velocity": 115, "channel": 0}, {"type": "note_on", "time": 91, "note": 58, "velocity": 113, "channel": 0}, {"type": "note_off", "time": 571, "note": 58, "velocity": 113, "channel": 0}, {"type": "note_on", "time": 82, "note": 65, "velocity": 99, "channel": 0}, {"type": "note_off", "time": 654, "note": 65, "velocity": 99, "channel": 0}, {"type": "note_on", "time": 373, "note": 58, "velocity": 114, "channel": 0}, {"type": "note_off", "time": 563, "note": 58, "velocity": 114, "channel": 0}, {"type": "note_on", "time": 91, "note": 56, "velocity": 117, "channel": 0}, {"type": "note_off", "time": 530, "note": 56, "velocity": 117, "channel": 0}, {"type": "note_on", "time": 29, "note": 60, "velocity": 112, "channel": 0}, {"type": "note_off", "time": 182, "note": 60, "velocity": 112, "channel": 0}, {"type": "note_on", "time": 41, "note": 61, "velocity": 105, "channel": 0}, {"type": "note_off", "time": 1798, "note": 61, "velocity": 105, "channel": 0}, {"type": "note_on", "time": 3096, "note": 70, "velocity": 117, "channel": 0}, {"type": "note_off", "time": 290, "note": 70, "velocity": 117, "channel": 0}, {"type": "note_on", "time": 33, "note": 71, "velocity": 122, "channel": 0}, {"type": "note_off", "time": 522, "note": 71, "velocity": 122, "channel": 0}, {"type": "note_on", "time": 157, "note": 67, "velocity": 120, "channel": 0}, {"type": "note_off", "time": 165, "note": 67, "velocity": 120, "channel": 0}, {"type": "note_on", "time": 8, "note": 68, "velocity": 120, "channel": 0}, {"type": "note_off", "time": 571, "note": 68, "velocity": 120, "channel": 0}, {"type": "note_on", "time": 24, "note": 64, "velocity": 115, "channel": 0}, {"type": "note_off", "time": 232, "note": 64, "velocity": 115, "channel": 0}, {"type": "note_on", "time": 24, "note": 65, "velocity": 113, "channel": 0}, {"type": "note_off", "time": 397, "note": 65, "velocity": 113, "channel": 0}, {"type": "note_on", "time": 16, "note": 62, "velocity": 109, "channel": 0}, {"type": "note_off", "time": 149, "note": 62, "velocity": 109, "channel": 0}, {"type": "note_on", "time": 49, "note": 63, "velocity": 116, "channel": 0}, {"type": "note_off", "time": 617, "note": 63, "velocity": 116, "channel": 0}, {"type": "note_on", "time": 87, "note": 62, "velocity": 118, "channel": 0}, {"type": "note_off", "time": 663, "note": 62, "velocity": 118, "channel": 0}, {"type": "note_on", "time": 8, "note": 58, "velocity": 118, "channel": 0}, {"type": "note_off", "time": 936, "note": 58, "velocity": 118, "channel": 0}, {"type": "note_on", "time": 91, "note": 63, "velocity": 108, "channel": 0}, {"type": "note_off", "time": 2155, "note": 63, "velocity": 108, "channel": 0}, {"type": "note_on", "time": 1483, "note": 65, "velocity": 120, "channel": 0}, {"type": "note_off", "time": 348, "note": 65, "velocity": 120, "channel": 0}, {"type": "note_on", "time": 16, "note": 66, "velocity": 119, "channel": 0}, {"type": "note_off", "time": 240, "note": 66, "velocity": 119, "channel": 0}, {"type": "note_on", "time": 116, "note": 70, "velocity": 115, "channel": 0}, {"type": "note_off", "time": 236, "note": 70, "velocity": 115, "channel": 0}, {"type": "note_on", "time": 45, "note": 74, "velocity": 117, "channel": 0}, {"type": "note_off", "time": 273, "note": 74, "velocity": 117, "channel": 0}, {"type": "note_on", "time": 8, "note": 77, "velocity": 120, "channel": 0}, {"type": "note_off", "time": 339, "note": 77, "velocity": 120, "channel": 0}, {"type": "note_on", "time": 0, "note": 75, "velocity": 120, "channel": 0}, {"type": "note_off", "time": 480, "note": 75, "velocity": 120, "channel": 0}, {"type": "note_on", "time": 4028, "note": 58, "velocity": 113, "channel": 0}, {"type": "note_off", "time": 165, "note": 58, "velocity": 113, "channel": 0}, {"type": "note_on", "time": 116, "note": 63, "velocity": 118, "channel": 0}, {"type": "note_off", "time": 422, "note": 63, "velocity": 118, "channel": 0}, {"type": "note_on", "time": 0, "note": 65, "velocity": 117, "channel": 0}, {"type": "note_off", "time": 281, "note": 65, "velocity": 117, "channel": 0}, {"type": "note_on", "time": 49, "note": 66, "velocity": 118, "channel": 0}, {"type": "note_off", "time": 232, "note": 66, "velocity": 118, "channel": 0}, {"type": "note_on", "time": 41, "note": 68, "velocity": 115, "channel": 0}, {"type": "note_off", "time": 248, "note": 68, "velocity": 115, "channel": 0}, {"type": "note_on", "time": 39, "note": 73, "velocity": 114, "channel": 0}, {"type": "note_off", "time": 165, "note": 73, "velocity": 114, "channel": 0}, {"type": "note_on", "time": 84, "note": 77, "velocity": 123, "channel": 0}, {"type": "note_off", "time": 323, "note": 77, "velocity": 123, "channel": 0}, {"type": "note_on", "time": 45, "note": 75, "velocity": 117, "channel": 0}, {"type": "note_off", "time": 298, "note": 75, "velocity": 117, "channel": 0}, {"type": "note_on", "time": 2449, "note": 57, "velocity": 119, "channel": 0}, {"type": "note_off", "time": 364, "note": 57, "velocity": 119, "channel": 0}, {"type": "note_on", "time": 116, "note": 62, "velocity": 120, "channel": 0}, {"type": "note_off", "time": 580, "note": 62, "velocity": 120, "channel": 0}, {"type": "note_on", "time": 49, "note": 64, "velocity": 116, "channel": 0}, {"type": "note_off", "time": 198, "note": 64, "velocity": 116, "channel": 0}, {"type": "note_on", "time": 8, "note": 65, "velocity": 118, "channel": 0}, {"type": "note_off", "time": 240, "note": 65, "velocity": 118, "channel": 0}, {"type": "note_on", "time": 58, "note": 66, "velocity": 120, "channel": 0}, {"type": "note_off", "time": 140, "note": 66, "velocity": 120, "channel": 0}, {"type": "note_on", "time": 24, "note": 69, "velocity": 117, "channel": 0}, {"type": "note_off", "time": 223, "note": 69, "velocity": 117, "channel": 0}, {"type": "note_on", "time": 33, "note": 71, "velocity": 114, "channel": 0}, {"type": "note_off", "time": 165, "note": 71, "velocity": 114, "channel": 0}, {"type": "note_on", "time": 16, "note": 76, "velocity": 116, "channel": 0}, {"type": "note_off", "time": 348, "note": 76, "velocity": 116, "channel": 0}, {"type": "note_on", "time": 33, "note": 74, "velocity": 118, "channel": 0}, {"type": "note_off", "time": 547, "note": 74, "velocity": 118, "channel": 0}, {"type": "note_on", "time": 1376, "note": 56, "velocity": 110, "channel": 0}, {"type": "note_off", "time": 613, "note": 56, "velocity": 110, "channel": 0}, {"type": "note_on", "time": 489, "note": 61, "velocity": 113, "channel": 0}, {"type": "note_off", "time": 671, "note": 61, "velocity": 113, "channel": 0}, {"type": "note_on", "time": 66, "note": 63, "velocity": 114, "channel": 0}, {"type": "note_off", "time": 240, "note": 63, "velocity": 114, "channel": 0}, {"type": "note_on", "time": 8, "note": 65, "velocity": 112, "channel": 0}, {"type": "note_off", "time": 265, "note": 65, "velocity": 112, "channel": 0}, {"type": "note_on", "time": 49, "note": 68, "velocity": 119, "channel": 0}, {"type": "note_off", "time": 198, "note": 68, "velocity": 119, "channel": 0}, {"type": "note_on", "time": 0, "note": 72, "velocity": 117, "channel": 0}, {"type": "note_off", "time": 174, "note": 72, "velocity": 117, "channel": 0}, {"type": "note_on", "time": 0, "note": 75, "velocity": 118, "channel": 0}, {"type": "note_off", "time": 240, "note": 75, "velocity": 118, "channel": 0}, {"type": "note_on", "time": 41, "note": 70, "velocity": 117, "channel": 0}, {"type": "note_off", "time": 513, "note": 70, "velocity": 117, "channel": 0}, {"type": "note_on", "time": 3141, "note": 72, "velocity": 123, "channel": 0}, {"type": "note_off", "time": 140, "note": 72, "velocity": 123, "channel": 0}, {"type": "note_on", "time": 0, "note": 73, "velocity": 123, "channel": 0}, {"type": "note_off", "time": 215, "note": 73, "velocity": 123, "channel": 0}, {"type": "note_on", "time": 41, "note": 72, "velocity": 120, "channel": 0}, {"type": "note_off", "time": 315, "note": 72, "velocity": 120, "channel": 0}, {"type": "note_on", "time": 0, "note": 73, "velocity": 119, "channel": 0}, {"type": "note_off", "time": 132, "note": 73, "velocity": 119, "channel": 0}, {"type": "note_on", "time": 0, "note": 72, "velocity": 122, "channel": 0}, {"type": "note_off", "time": 215, "note": 72, "velocity": 122, "channel": 0}, {"type": "note_on", "time": 58, "note": 68, "velocity": 119, "channel": 0}, {"type": "note_off", "time": 389, "note": 68, "velocity": 119, "channel": 0}, {"type": "note_on", "time": 290, "note": 72, "velocity": 122, "channel": 0}, {"type": "note_off", "time": 588, "note": 72, "velocity": 122, "channel": 0}, {"type": "note_on", "time": 24, "note": 71, "velocity": 121, "channel": 0}, {"type": "note_off", "time": 505, "note": 71, "velocity": 121, "channel": 0}, {"type": "note_on", "time": 41, "note": 70, "velocity": 117, "channel": 0}, {"type": "note_off", "time": 290, "note": 70, "velocity": 117, "channel": 0}, {"type": "note_on", "time": 45, "note": 71, "velocity": 113, "channel": 0}, {"type": "note_off", "time": 211, "note": 71, "velocity": 113, "channel": 0}, {"type": "note_on", "time": 33, "note": 69, "velocity": 117, "channel": 0}, {"type": "note_off", "time": 605, "note": 69, "velocity": 117, "channel": 0}, {"type": "note_on", "time": 33, "note": 68, "velocity": 116, "channel": 0}, {"type": "note_off", "time": 464, "note": 68, "velocity": 116, "channel": 0}, {"type": "note_on", "time": 8, "note": 65, "velocity": 115, "channel": 0}, {"type": "note_off", "time": 215, "note": 65, "velocity": 115, "channel": 0}, {"type": "note_on", "time": 58, "note": 66, "velocity": 114, "channel": 0}, {"type": "note_off", "time": 373, "note": 66, "velocity": 114, "channel": 0}, {"type": "note_on", "time": 16, "note": 65, "velocity": 107, "channel": 0}, {"type": "note_off", "time": 936, "note": 65, "velocity": 107, "channel": 0}, {"type": "note_on", "time": 82, "note": 68, "velocity": 115, "channel": 0}, {"type": "note_off", "time": 182, "note": 68, "velocity": 115, "channel": 0}, {"type": "note_on", "time": 41, "note": 72, "velocity": 116, "channel": 0}, {"type": "note_off", "time": 232, "note": 72, "velocity": 116, "channel": 0}, {"type": "note_on", "time": 49, "note": 75, "velocity": 122, "channel": 0}, {"type": "note_off", "time": 464, "note": 75, "velocity": 122, "channel": 0}, {"type": "note_on", "time": 24, "note": 72, "velocity": 121, "channel": 0}, {"type": "note_off", "time": 580, "note": 72, "velocity": 121, "channel": 0}, {"type": "note_on", "time": 33, "note": 68, "velocity": 116, "channel": 0}, {"type": "note_off", "time": 530, "note": 68, "velocity": 116, "channel": 0}, {"type": "note_on", "time": 33, "note": 65, "velocity": 108, "channel": 0}, {"type": "note_off", "time": 489, "note": 65, "velocity": 108, "channel": 0}, {"type": "note_on", "time": 812, "note": 73, "velocity": 118, "channel": 0}, {"type": "note_off", "time": 323, "note": 73, "velocity": 118, "channel": 0}, {"type": "note_on", "time": 24, "note": 74, "velocity": 121, "channel": 0}, {"type": "note_off", "time": 704, "note": 74, "velocity": 121, "channel": 0}, {"type": "note_on", "time": 116, "note": 72, "velocity": 117, "channel": 0}, {"type": "note_off", "time": 232, "note": 72, "velocity": 117, "channel": 0}, {"type": "note_on", "time": 24, "note": 71, "velocity": 118, "channel": 0}, {"type": "note_off", "time": 298, "note": 71, "velocity": 118, "channel": 0}, {"type": "note_on", "time": 62, "note": 67, "velocity": 114, "channel": 0}, {"type": "note_off", "time": 290, "note": 67, "velocity": 114, "channel": 0}, {"type": "note_on", "time": 62, "note": 64, "velocity": 108, "channel": 0}, {"type": "note_off", "time": 1185, "note": 64, "velocity": 108, "channel": 0}, {"type": "note_on", "time": 1409, "note": 73, "velocity": 120, "channel": 0}, {"type": "note_off", "time": 439, "note": 73, "velocity": 120, "channel": 0}, {"type": "note_on", "time": 33, "note": 72, "velocity": 112, "channel": 0}, {"type": "note_off", "time": 265, "note": 72, "velocity": 112, "channel": 0}, {"type": "note_on", "time": 16, "note": 71, "velocity": 116, "channel": 0}, {"type": "note_off", "time": 240, "note": 71, "velocity": 116, "channel": 0}, {"type": "note_on", "time": 33, "note": 70, "velocity": 115, "channel": 0}, {"type": "note_off", "time": 306, "note": 70, "velocity": 115, "channel": 0}, {"type": "note_on", "time": 58, "note": 66, "velocity": 121, "channel": 0}, {"type": "note_off", "time": 323, "note": 66, "velocity": 121, "channel": 0}, {"type": "note_on", "time": 53, "note": 65, "velocity": 110, "channel": 0}, {"type": "note_off", "time": 225, "note": 65, "velocity": 110, "channel": 0}, {"type": "note_on", "time": 35, "note": 64, "velocity": 109, "channel": 0}, {"type": "note_off", "time": 140, "note": 64, "velocity": 109, "channel": 0}, {"type": "note_on", "time": 16, "note": 63, "velocity": 105, "channel": 0}, {"type": "note_off", "time": 232, "note": 63, "velocity": 105, "channel": 0}, {"type": "note_on", "time": 95, "note": 62, "velocity": 105, "channel": 0}, {"type": "note_off", "time": 464, "note": 62, "velocity": 105, "channel": 0}, {"type": "note_on", "time": 70, "note": 63, "velocity": 98, "channel": 0}, {"type": "note_off", "time": 1715, "note": 63, "velocity": 98, "channel": 0}, {"type": "note_on", "time": 3356, "note": 68, "velocity": 110, "channel": 0}, {"type": "note_off", "time": 538, "note": 68, "velocity": 110, "channel": 0}, {"type": "note_on", "time": 0, "note": 72, "velocity": 124, "channel": 0}, {"type": "note_off", "time": 621, "note": 72, "velocity": 124, "channel": 0}, {"type": "note_on", "time": 24, "note": 74, "velocity": 112, "channel": 0}, {"type": "note_off", "time": 256, "note": 74, "velocity": 112, "channel": 0}, {"type": "note_on", "time": 132, "note": 75, "velocity": 118, "channel": 0}, {"type": "note_off", "time": 348, "note": 75, "velocity": 118, "channel": 0}, {"type": "note_on", "time": 33, "note": 74, "velocity": 117, "channel": 0}, {"type": "note_off", "time": 497, "note": 74, "velocity": 117, "channel": 0}, {"type": "note_on", "time": 0, "note": 72, "velocity": 122, "channel": 0}, {"type": "note_off", "time": 480, "note": 72, "velocity": 122, "channel": 0}, {"type": "note_on", "time": 99, "note": 69, "velocity": 111, "channel": 0}, {"type": "note_off", "time": 248, "note": 69, "velocity": 111, "channel": 0}, {"type": "note_on", "time": 8, "note": 70, "velocity": 109, "channel": 0}, {"type": "note_off", "time": 439, "note": 70, "velocity": 109, "channel": 0}, {"type": "note_on", "time": 41, "note": 67, "velocity": 97, "channel": 0}, {"type": "note_off", "time": 306, "note": 67, "velocity": 97, "channel": 0}, {"type": "note_on", "time": 149, "note": 69, "velocity": 114, "channel": 0}, {"type": "note_off", "time": 1152, "note": 69, "velocity": 114, "channel": 0}, {"type": "note_on", "time": 8, "note": 72, "velocity": 117, "channel": 0}, {"type": "note_off", "time": 721, "note": 72, "velocity": 117, "channel": 0}, {"type": "note_on", "time": 33, "note": 65, "velocity": 101, "channel": 0}, {"type": "note_off", "time": 2859, "note": 65, "velocity": 101, "channel": 0}, {"type": "note_on", "time": 5164, "note": 76, "velocity": 121, "channel": 0}, {"type": "note_off", "time": 348, "note": 76, "velocity": 121, "channel": 0}, {"type": "note_on", "time": 24, "note": 77, "velocity": 125, "channel": 0}, {"type": "note_off", "time": 447, "note": 77, "velocity": 125, "channel": 0}, {"type": "note_on", "time": 33, "note": 73, "velocity": 120, "channel": 0}, {"type": "note_off", "time": 571, "note": 73, "velocity": 120, "channel": 0}, {"type": "note_on", "time": 33, "note": 68, "velocity": 119, "channel": 0}, {"type": "note_off", "time": 547, "note": 68, "velocity": 119, "channel": 0}, {"type": "note_on", "time": 16, "note": 65, "velocity": 113, "channel": 0}, {"type": "note_off", "time": 513, "note": 65, "velocity": 113, "channel": 0}, {"type": "note_on", "time": 49, "note": 66, "velocity": 9, "channel": 0}, {"type": "note_off", "time": 1956, "note": 66, "velocity": 9, "channel": 0}, {"type": "note_on", "time": 33, "note": 69, "velocity": 114, "channel": 0}, {"type": "note_off", "time": 240, "note": 69, "velocity": 114, "channel": 0}, {"type": "note_on", "time": 0, "note": 72, "velocity": 120, "channel": 0}, {"type": "note_off", "time": 281, "note": 72, "velocity": 120, "channel": 0}, {"type": "note_on", "time": 240, "note": 76, "velocity": 116, "channel": 0}, {"type": "note_off", "time": 688, "note": 76, "velocity": 116, "channel": 0}, {"type": "note_on", "time": 58, "note": 72, "velocity": 114, "channel": 0}, {"type": "note_off", "time": 373, "note": 72, "velocity": 114, "channel": 0}, {"type": "note_on", "time": 33, "note": 69, "velocity": 114, "channel": 0}, {"type": "note_off", "time": 571, "note": 69, "velocity": 114, "channel": 0}, {"type": "note_on", "time": 33, "note": 66, "velocity": 117, "channel": 0}, {"type": "note_off", "time": 455, "note": 66, "velocity": 117, "channel": 0}, {"type": "note_on", "time": 331, "note": 75, "velocity": 117, "channel": 0}, {"type": "note_off", "time": 522, "note": 75, "velocity": 117, "channel": 0}, {"type": "note_on", "time": 41, "note": 73, "velocity": 113, "channel": 0}, {"type": "note_off", "time": 464, "note": 73, "velocity": 113, "channel": 0}, {"type": "note_on", "time": 74, "note": 73, "velocity": 114, "channel": 0}, {"type": "note_off", "time": 638, "note": 73, "velocity": 114, "channel": 0}, {"type": "note_on", "time": 630, "note": 72, "velocity": 120, "channel": 0}, {"type": "note_off", "time": 754, "note": 72, "velocity": 120, "channel": 0}, {"type": "note_on", "time": 8, "note": 70, "velocity": 107, "channel": 0}, {"type": "note_off", "time": 1085, "note": 70, "velocity": 107, "channel": 0}, {"type": "note_on", "time": 696, "note": 70, "velocity": 109, "channel": 0}, {"type": "note_off", "time": 306, "note": 70, "velocity": 109, "channel": 0}, {"type": "note_on", "time": 16, "note": 72, "velocity": 108, "channel": 0}, {"type": "note_off", "time": 190, "note": 72, "velocity": 108, "channel": 0}, {"type": "note_on", "time": 33, "note": 71, "velocity": 108, "channel": 0}, {"type": "note_off", "time": 157, "note": 71, "velocity": 108, "channel": 0}, {"type": "note_on", "time": 55, "note": 67, "velocity": 111, "channel": 0}, {"type": "note_off", "time": 480, "note": 67, "velocity": 111, "channel": 0}, {"type": "note_on", "time": 35, "note": 64, "velocity": 115, "channel": 0}, {"type": "note_off", "time": 605, "note": 64, "velocity": 115, "channel": 0}, {"type": "note_on", "time": 49, "note": 59, "velocity": 95, "channel": 0}, {"type": "note_off", "time": 373, "note": 59, "velocity": 95, "channel": 0}, {"type": "note_on", "time": 157, "note": 62, "velocity": 112, "channel": 0}, {"type": "note_off", "time": 646, "note": 62, "velocity": 112, "channel": 0}, {"type": "note_on", "time": 41, "note": 61, "velocity": 97, "channel": 0}, {"type": "note_off", "time": 1036, "note": 61, "velocity": 97, "channel": 0}, {"type": "note_on", "time": 3382, "note": 65, "velocity": 117, "channel": 0}, {"type": "note_off", "time": 373, "note": 65, "velocity": 117, "channel": 0}, {"type": "note_on", "time": 107, "note": 66, "velocity": 116, "channel": 0}, {"type": "note_off", "time": 1301, "note": 66, "velocity": 116, "channel": 0}, {"type": "note_on", "time": 45, "note": 69, "velocity": 116, "channel": 0}, {"type": "note_off", "time": 178, "note": 69, "velocity": 116, "channel": 0}, {"type": "note_on", "time": 49, "note": 73, "velocity": 109, "channel": 0}, {"type": "note_off", "time": 165, "note": 73, "velocity": 109, "channel": 0}, {"type": "note_on", "time": 49, "note": 76, "velocity": 113, "channel": 0}, {"type": "note_off", "time": 215, "note": 76, "velocity": 113, "channel": 0}, {"type": "note_on", "time": 53, "note": 71, "velocity": 118, "channel": 0}, {"type": "note_off", "time": 2445, "note": 71, "velocity": 118, "channel": 0}, {"type": "note_on", "time": 2839, "note": 73, "velocity": 114, "channel": 0}, {"type": "note_off", "time": 613, "note": 73, "velocity": 114, "channel": 0}, {"type": "note_on", "time": 547, "note": 66, "velocity": 113, "channel": 0}, {"type": "note_off", "time": 538, "note": 66, "velocity": 113, "channel": 0}, {"type": "note_on", "time": 58, "note": 67, "velocity": 118, "channel": 0}, {"type": "note_off", "time": 497, "note": 67, "velocity": 118, "channel": 0}, {"type": "note_on", "time": 16, "note": 69, "velocity": 117, "channel": 0}, {"type": "note_off", "time": 696, "note": 69, "velocity": 117, "channel": 0}, {"type": "note_on", "time": 16, "note": 66, "velocity": 114, "channel": 0}, {"type": "note_off", "time": 580, "note": 66, "velocity": 114, "channel": 0}, {"type": "note_on", "time": 16, "note": 64, "velocity": 117, "channel": 0}, {"type": "note_off", "time": 729, "note": 64, "velocity": 117, "channel": 0}, {"type": "note_on", "time": 33, "note": 62, "velocity": 106, "channel": 0}, {"type": "note_off", "time": 298, "note": 62, "velocity": 106, "channel": 0}, {"type": "note_on", "time": 273, "note": 72, "velocity": 118, "channel": 0}, {"type": "note_off", "time": 348, "note": 72, "velocity": 118, "channel": 0}, {"type": "note_on", "time": 24, "note": 70, "velocity": 92, "channel": 0}, {"type": "note_off", "time": 315, "note": 70, "velocity": 92, "channel": 0}, {"type": "note_on", "time": 16, "note": 72, "velocity": 120, "channel": 0}, {"type": "note_off", "time": 489, "note": 72, "velocity": 120, "channel": 0}, {"type": "note_on", "time": 16, "note": 70, "velocity": 111, "channel": 0}, {"type": "note_off", "time": 1400, "note": 70, "velocity": 111, "channel": 0}, {"type": "note_on", "time": 2196, "note": 72, "velocity": 119, "channel": 0}, {"type": "note_off", "time": 323, "note": 72, "velocity": 119, "channel": 0}, {"type": "note_on", "time": 58, "note": 73, "velocity": 114, "channel": 0}, {"type": "note_off", "time": 406, "note": 73, "velocity": 114, "channel": 0}, {"type": "note_on", "time": 58, "note": 69, "velocity": 120, "channel": 0}, {"type": "note_off", "time": 472, "note": 69, "velocity": 120, "channel": 0}, {"type": "note_on", "time": 0, "note": 66, "velocity": 118, "channel": 0}, {"type": "note_off", "time": 804, "note": 66, "velocity": 118, "channel": 0}, {"type": "note_on", "time": 16, "note": 64, "velocity": 116, "channel": 0}, {"type": "note_off", "time": 538, "note": 64, "velocity": 116, "channel": 0}, {"type": "note_on", "time": 58, "note": 63, "velocity": 112, "channel": 0}, {"type": "note_off", "time": 613, "note": 63, "velocity": 112, "channel": 0}, {"type": "note_on", "time": 240, "note": 72, "velocity": 122, "channel": 0}, {"type": "note_off", "time": 240, "note": 72, "velocity": 122, "channel": 0}, {"type": "note_on", "time": 8, "note": 73, "velocity": 117, "channel": 0}, {"type": "note_off", "time": 356, "note": 73, "velocity": 117, "channel": 0}, {"type": "note_on", "time": 16, "note": 72, "velocity": 113, "channel": 0}, {"type": "note_off", "time": 140, "note": 72, "velocity": 113, "channel": 0}, {"type": "note_on", "time": 16, "note": 73, "velocity": 117, "channel": 0}, {"type": "note_off", "time": 157, "note": 73, "velocity": 117, "channel": 0}, {"type": "note_on", "time": 16, "note": 71, "velocity": 116, "channel": 0}, {"type": "note_off", "time": 215, "note": 71, "velocity": 116, "channel": 0}, {"type": "note_on", "time": 91, "note": 66, "velocity": 111, "channel": 0}, {"type": "note_off", "time": 447, "note": 66, "velocity": 111, "channel": 0}, {"type": "note_on", "time": 91, "note": 69, "velocity": 116, "channel": 0}, {"type": "note_off", "time": 373, "note": 69, "velocity": 116, "channel": 0}, {"type": "note_on", "time": 58, "note": 70, "velocity": 111, "channel": 0}, {"type": "note_off", "time": 190, "note": 70, "velocity": 111, "channel": 0}, {"type": "note_on", "time": 0, "note": 69, "velocity": 109, "channel": 0}, {"type": "note_off", "time": 207, "note": 69, "velocity": 109, "channel": 0}, {"type": "note_on", "time": 16, "note": 68, "velocity": 111, "channel": 0}, {"type": "note_off", "time": 447, "note": 68, "velocity": 111, "channel": 0}, {"type": "note_on", "time": 24, "note": 62, "velocity": 109, "channel": 0}, {"type": "note_off", "time": 331, "note": 62, "velocity": 109, "channel": 0}, {"type": "note_on", "time": 49, "note": 59, "velocity": 98, "channel": 0}, {"type": "note_off", "time": 315, "note": 59, "velocity": 98, "channel": 0}, {"type": "note_on", "time": 90, "note": 54, "velocity": 96, "channel": 0}, {"type": "note_off", "time": 198, "note": 54, "velocity": 96, "channel": 0}, {"type": "note_on", "time": 402, "note": 66, "velocity": 119, "channel": 0}, {"type": "note_off", "time": 522, "note": 66, "velocity": 119, "channel": 0}, {"type": "note_on", "time": 518, "note": 61, "velocity": 100, "channel": 0}, {"type": "note_off", "time": 281, "note": 61, "velocity": 100, "channel": 0}, {"type": "note_on", "time": 16, "note": 57, "velocity": 112, "channel": 0}, {"type": "note_off", "time": 787, "note": 57, "velocity": 112, "channel": 0}, {"type": "note_on", "time": 256, "note": 64, "velocity": 111, "channel": 0}, {"type": "note_off", "time": 1243, "note": 64, "velocity": 111, "channel": 0}, {"type": "note_on", "time": 2412, "note": 64, "velocity": 118, "channel": 0}, {"type": "note_off", "time": 381, "note": 64, "velocity": 118, "channel": 0}, {"type": "note_on", "time": 33, "note": 62, "velocity": 116, "channel": 0}, {"type": "note_off", "time": 331, "note": 62, "velocity": 116, "channel": 0}, {"type": "note_on", "time": 8, "note": 61, "velocity": 107, "channel": 0}, {"type": "note_off", "time": 323, "note": 61, "velocity": 107, "channel": 0}, {"type": "note_on", "time": 66, "note": 57, "velocity": 112, "channel": 0}, {"type": "note_off", "time": 339, "note": 57, "velocity": 112, "channel": 0}, {"type": "note_on", "time": 33, "note": 59, "velocity": 105, "channel": 0}, {"type": "note_off", "time": 2171, "note": 59, "velocity": 105, "channel": 0}, {"type": "note_on", "time": 3813, "note": 53, "velocity": 115, "channel": 0}, {"type": "note_off", "time": 431, "note": 53, "velocity": 115, "channel": 0}, {"type": "note_on", "time": 24, "note": 55, "velocity": 114, "channel": 0}, {"type": "note_off", "time": 240, "note": 55, "velocity": 114, "channel": 0}, {"type": "note_on", "time": 82, "note": 57, "velocity": 115, "channel": 0}, {"type": "note_off", "time": 315, "note": 57, "velocity": 115, "channel": 0}, {"type": "note_on", "time": 0, "note": 59, "velocity": 97, "channel": 0}, {"type": "note_off", "time": 215, "note": 59, "velocity": 97, "channel": 0}, {"type": "note_on", "time": 8, "note": 64, "velocity": 113, "channel": 0}, {"type": "note_off", "time": 348, "note": 64, "velocity": 113, "channel": 0}, {"type": "note_on", "time": 24, "note": 62, "velocity": 116, "channel": 0}, {"type": "note_off", "time": 207, "note": 62, "velocity": 116, "channel": 0}, {"type": "note_on", "time": 41, "note": 60, "velocity": 109, "channel": 0}, {"type": "note_off", "time": 339, "note": 60, "velocity": 109, "channel": 0}, {"type": "note_on", "time": 33, "note": 57, "velocity": 111, "channel": 0}, {"type": "note_off", "time": 223, "note": 57, "velocity": 111, "channel": 0}, {"type": "note_on", "time": 116, "note": 59, "velocity": 108, "channel": 0}, {"type": "note_off", "time": 240, "note": 59, "velocity": 108, "channel": 0}, {"type": "note_on", "time": 16, "note": 60, "velocity": 109, "channel": 0}, {"type": "note_off", "time": 207, "note": 60, "velocity": 109, "channel": 0}, {"type": "note_on", "time": 74, "note": 62, "velocity": 113, "channel": 0}, {"type": "note_off", "time": 306, "note": 62, "velocity": 113, "channel": 0}, {"type": "note_on", "time": 91, "note": 64, "velocity": 116, "channel": 0}, {"type": "note_off", "time": 207, "note": 64, "velocity": 116, "channel": 0}, {"type": "note_on", "time": 24, "note": 65, "velocity": 115, "channel": 0}, {"type": "note_off", "time": 273, "note": 65, "velocity": 115, "channel": 0}, {"type": "note_on", "time": 323, "note": 57, "velocity": 111, "channel": 0}, {"type": "note_off", "time": 248, "note": 57, "velocity": 111, "channel": 0}, {"type": "note_on", "time": 24, "note": 58, "velocity": 114, "channel": 0}, {"type": "note_off", "time": 145, "note": 58, "velocity": 114, "channel": 0}, {"type": "note_on", "time": 37, "note": 59, "velocity": 103, "channel": 0}, {"type": "note_off", "time": 223, "note": 59, "velocity": 103, "channel": 0}, {"type": "note_on", "time": 0, "note": 64, "velocity": 111, "channel": 0}, {"type": "note_off", "time": 422, "note": 64, "velocity": 111, "channel": 0}, {"type": "note_on", "time": 8, "note": 62, "velocity": 111, "channel": 0}, {"type": "note_off", "time": 190, "note": 62, "velocity": 111, "channel": 0}, {"type": "note_on", "time": 8, "note": 60, "velocity": 113, "channel": 0}, {"type": "note_off", "time": 248, "note": 60, "velocity": 113, "channel": 0}, {"type": "note_on", "time": 107, "note": 57, "velocity": 109, "channel": 0}, {"type": "note_off", "time": 331, "note": 57, "velocity": 109, "channel": 0}, {"type": "note_on", "time": 66, "note": 59, "velocity": 107, "channel": 0}, {"type": "note_off", "time": 182, "note": 59, "velocity": 107, "channel": 0}, {"type": "note_on", "time": 41, "note": 62, "velocity": 106, "channel": 0}, {"type": "note_off", "time": 265, "note": 62, "velocity": 106, "channel": 0}, {"type": "note_on", "time": 8, "note": 65, "velocity": 110, "channel": 0}, {"type": "note_off", "time": 331, "note": 65, "velocity": 110, "channel": 0}, {"type": "note_on", "time": 33, "note": 68, "velocity": 115, "channel": 0}, {"type": "note_off", "time": 489, "note": 68, "velocity": 115, "channel": 0}, {"type": "note_on", "time": 41, "note": 65, "velocity": 113, "channel": 0}, {"type": "note_off", "time": 248, "note": 65, "velocity": 113, "channel": 0}, {"type": "note_on", "time": 33, "note": 64, "velocity": 103, "channel": 0}, {"type": "note_off", "time": 223, "note": 64, "velocity": 103, "channel": 0}, {"type": "note_on", "time": 58, "note": 68, "velocity": 107, "channel": 0}, {"type": "note_off", "time": 182, "note": 68, "velocity": 107, "channel": 0}, {"type": "note_on", "time": 58, "note": 71, "velocity": 105, "channel": 0}, {"type": "note_off", "time": 281, "note": 71, "velocity": 105, "channel": 0}, {"type": "note_on", "time": 16, "note": 74, "velocity": 110, "channel": 0}, {"type": "note_off", "time": 248, "note": 74, "velocity": 110, "channel": 0}, {"type": "note_on", "time": 0, "note": 72, "velocity": 113, "channel": 0}, {"type": "note_off", "time": 240, "note": 72, "velocity": 113, "channel": 0}, {"type": "note_on", "time": 8, "note": 71, "velocity": 116, "channel": 0}, {"type": "note_off", "time": 364, "note": 71, "velocity": 116, "channel": 0}, {"type": "note_on", "time": 0, "note": 67, "velocity": 98, "channel": 0}, {"type": "note_off", "time": 265, "note": 67, "velocity": 98, "channel": 0}, {"type": "note_on", "time": 8, "note": 69, "velocity": 112, "channel": 0}, {"type": "note_off", "time": 1110, "note": 69, "velocity": 112, "channel": 0}, {"type": "note_on", "time": 2644, "note": 70, "velocity": 113, "channel": 0}, {"type": "note_off", "time": 223, "note": 70, "velocity": 113, "channel": 0}, {"type": "note_on", "time": 107, "note": 72, "velocity": 109, "channel": 0}, {"type": "note_off", "time": 240, "note": 72, "velocity": 109, "channel": 0}, {"type": "note_on", "time": 24, "note": 71, "velocity": 119, "channel": 0}, {"type": "note_off", "time": 331, "note": 71, "velocity": 119, "channel": 0}, {"type": "note_on", "time": 53, "note": 67, "velocity": 114, "channel": 0}, {"type": "note_off", "time": 356, "note": 67, "velocity": 114, "channel": 0}, {"type": "note_on", "time": 53, "note": 64, "velocity": 110, "channel": 0}, {"type": "note_off", "time": 306, "note": 64, "velocity": 110, "channel": 0}, {"type": "note_on", "time": 41, "note": 59, "velocity": 104, "channel": 0}, {"type": "note_off", "time": 315, "note": 59, "velocity": 104, "channel": 0}, {"type": "note_on", "time": 74, "note": 62, "velocity": 113, "channel": 0}, {"type": "note_off", "time": 364, "note": 62, "velocity": 113, "channel": 0}, {"type": "note_on", "time": 8, "note": 61, "velocity": 107, "channel": 0}, {"type": "note_off", "time": 688, "note": 61, "velocity": 107, "channel": 0}, {"type": "note_on", "time": 256, "note": 69, "velocity": 119, "channel": 0}, {"type": "note_off", "time": 157, "note": 69, "velocity": 119, "channel": 0}, {"type": "note_on", "time": 58, "note": 70, "velocity": 116, "channel": 0}, {"type": "note_off", "time": 729, "note": 70, "velocity": 116, "channel": 0}, {"type": "note_on", "time": 16, "note": 69, "velocity": 118, "channel": 0}, {"type": "note_off", "time": 530, "note": 69, "velocity": 118, "channel": 0}, {"type": "note_on", "time": 406, "note": 67, "velocity": 116, "channel": 0}, {"type": "note_off", "time": 223, "note": 67, "velocity": 116, "channel": 0}, {"type": "note_on", "time": 0, "note": 68, "velocity": 116, "channel": 0}, {"type": "note_off", "time": 240, "note": 68, "velocity": 116, "channel": 0}, {"type": "note_on", "time": 16, "note": 67, "velocity": 113, "channel": 0}, {"type": "note_off", "time": 232, "note": 67, "velocity": 113, "channel": 0}, {"type": "note_on", "time": 16, "note": 65, "velocity": 117, "channel": 0}, {"type": "note_off", "time": 356, "note": 65, "velocity": 117, "channel": 0}, {"type": "note_on", "time": 157, "note": 72, "velocity": 116, "channel": 0}, {"type": "note_off", "time": 1964, "note": 72, "velocity": 116, "channel": 0}, {"type": "note_on", "time": 58, "note": 69, "velocity": 115, "channel": 0}, {"type": "note_off", "time": 331, "note": 69, "velocity": 115, "channel": 0}, {"type": "note_on", "time": 58, "note": 65, "velocity": 111, "channel": 0}, {"type": "note_off", "time": 273, "note": 65, "velocity": 111, "channel": 0}, {"type": "note_on", "time": 33, "note": 60, "velocity": 108, "channel": 0}, {"type": "note_off", "time": 240, "note": 60, "velocity": 108, "channel": 0}, {"type": "note_on", "time": 8, "note": 57, "velocity": 109, "channel": 0}, {"type": "note_off", "time": 273, "note": 57, "velocity": 109, "channel": 0}, {"type": "note_on", "time": 522, "note": 64, "velocity": 114, "channel": 0}, {"type": "note_off", "time": 373, "note": 64, "velocity": 114, "channel": 0}, {"type": "note_on", "time": 45, "note": 67, "velocity": 114, "channel": 0}, {"type": "note_off", "time": 207, "note": 67, "velocity": 114, "channel": 0}, {"type": "note_on", "time": 37, "note": 64, "velocity": 102, "channel": 0}, {"type": "note_off", "time": 2445, "note": 64, "velocity": 102, "channel": 0}, {"type": "note_on", "time": 2561, "note": 60, "velocity": 112, "channel": 0}, {"type": "note_off", "time": 497, "note": 60, "velocity": 112, "channel": 0}, {"type": "note_on", "time": 99, "note": 64, "velocity": 117, "channel": 0}, {"type": "note_off", "time": 621, "note": 64, "velocity": 117, "channel": 0}, {"type": "note_on", "time": 24, "note": 67, "velocity": 113, "channel": 0}, {"type": "note_off", "time": 580, "note": 67, "velocity": 113, "channel": 0}, {"type": "note_on", "time": 91, "note": 68, "velocity": 117, "channel": 0}, {"type": "note_off", "time": 596, "note": 68, "velocity": 117, "channel": 0}, {"type": "note_on", "time": 33, "note": 71, "velocity": 118, "channel": 0}, {"type": "note_off", "time": 746, "note": 71, "velocity": 118, "channel": 0}, {"type": "note_on", "time": 0, "note": 69, "velocity": 114, "channel": 0}, {"type": "note_off", "time": 530, "note": 69, "velocity": 114, "channel": 0}, {"type": "note_on", "time": 41, "note": 64, "velocity": 114, "channel": 0}, {"type": "note_off", "time": 339, "note": 64, "velocity": 114, "channel": 0}, {"type": "note_on", "time": 33, "note": 68, "velocity": 114, "channel": 0}, {"type": "note_off", "time": 505, "note": 68, "velocity": 114, "channel": 0}, {"type": "note_on", "time": 265, "note": 56, "velocity": 111, "channel": 0}, {"type": "note_off", "time": 638, "note": 56, "velocity": 111, "channel": 0}, {"type": "note_on", "time": 41, "note": 60, "velocity": 109, "channel": 0}, {"type": "note_off", "time": 563, "note": 60, "velocity": 109, "channel": 0}, {"type": "note_on", "time": 49, "note": 63, "velocity": 112, "channel": 0}, {"type": "note_off", "time": 638, "note": 63, "velocity": 112, "channel": 0}, {"type": "note_on", "time": 41, "note": 64, "velocity": 111, "channel": 0}, {"type": "note_off", "time": 522, "note": 64, "velocity": 111, "channel": 0}, {"type": "note_on", "time": 33, "note": 67, "velocity": 108, "channel": 0}, {"type": "note_off", "time": 654, "note": 67, "velocity": 108, "channel": 0}, {"type": "note_on", "time": 66, "note": 65, "velocity": 106, "channel": 0}, {"type": "note_off", "time": 663, "note": 65, "velocity": 106, "channel": 0}, {"type": "note_on", "time": 381, "note": 58, "velocity": 101, "channel": 0}, {"type": "note_off", "time": 190, "note": 58, "velocity": 101, "channel": 0}, {"type": "note_on", "time": 323, "note": 63, "velocity": 108, "channel": 0}, {"type": "note_off", "time": 1873, "note": 63, "velocity": 108, "channel": 0}, {"type": "note_on", "time": 4111, "note": 63, "velocity": 118, "channel": 0}, {"type": "note_off", "time": 555, "note": 63, "velocity": 118, "channel": 0}, {"type": "note_on", "time": 24, "note": 65, "velocity": 115, "channel": 0}, {"type": "note_off", "time": 588, "note": 65, "velocity": 115, "channel": 0}, {"type": "note_on", "time": 49, "note": 63, "velocity": 110, "channel": 0}, {"type": "note_off", "time": 1599, "note": 63, "velocity": 110, "channel": 0}, {"type": "note_on", "time": 1467, "note": 63, "velocity": 106, "channel": 0}, {"type": "note_off", "time": 646, "note": 63, "velocity": 106, "channel": 0}, {"type": "note_on", "time": 58, "note": 66, "velocity": 113, "channel": 0}, {"type": "note_off", "time": 613, "note": 66, "velocity": 113, "channel": 0}, {"type": "note_on", "time": 128, "note": 68, "velocity": 116, "channel": 0}, {"type": "note_off", "time": 381, "note": 68, "velocity": 116, "channel": 0}, {"type": "note_on", "time": 145, "note": 69, "velocity": 115, "channel": 0}, {"type": "note_off", "time": 215, "note": 69, "velocity": 115, "channel": 0}, {"type": "note_on", "time": 33, "note": 70, "velocity": 115, "channel": 0}, {"type": "note_off", "time": 447, "note": 70, "velocity": 115, "channel": 0}, {"type": "note_on", "time": 58, "note": 66, "velocity": 113, "channel": 0}, {"type": "note_off", "time": 505, "note": 66, "velocity": 113, "channel": 0}, {"type": "note_on", "time": 24, "note": 63, "velocity": 113, "channel": 0}, {"type": "note_off", "time": 530, "note": 63, "velocity": 113, "channel": 0}, {"type": "note_on", "time": 0, "note": 58, "velocity": 102, "channel": 0}, {"type": "note_off", "time": 414, "note": 58, "velocity": 102, "channel": 0}, {"type": "note_on", "time": 207, "note": 69, "velocity": 117, "channel": 0}, {"type": "note_off", "time": 696, "note": 69, "velocity": 117, "channel": 0}, {"type": "note_on", "time": 33, "note": 66, "velocity": 110, "channel": 0}, {"type": "note_off", "time": 563, "note": 66, "velocity": 110, "channel": 0}, {"type": "note_on", "time": 24, "note": 63, "velocity": 106, "channel": 0}, {"type": "note_off", "time": 513, "note": 63, "velocity": 106, "channel": 0}, {"type": "note_on", "time": 107, "note": 67, "velocity": 107, "channel": 0}, {"type": "note_off", "time": 198, "note": 67, "velocity": 107, "channel": 0}, {"type": "note_on", "time": 33, "note": 68, "velocity": 117, "channel": 0}, {"type": "note_off", "time": 646, "note": 68, "velocity": 117, "channel": 0}, {"type": "note_on", "time": 563, "note": 66, "velocity": 108, "channel": 0}, {"type": "note_off", "time": 928, "note": 66, "velocity": 108, "channel": 0}, {"type": "note_on", "time": 215, "note": 61, "velocity": 100, "channel": 0}, {"type": "note_off", "time": 406, "note": 61, "velocity": 100, "channel": 0}, {"type": "note_on", "time": 273, "note": 64, "velocity": 117, "channel": 0}, {"type": "note_off", "time": 281, "note": 64, "velocity": 117, "channel": 0}, {"type": "note_on", "time": 33, "note": 65, "velocity": 111, "channel": 0}, {"type": "note_off", "time": 381, "note": 65, "velocity": 111, "channel": 0}, {"type": "note_on", "time": 248, "note": 68, "velocity": 113, "channel": 0}, {"type": "note_off", "time": 348, "note": 68, "velocity": 113, "channel": 0}, {"type": "note_on", "time": 91, "note": 68, "velocity": 117, "channel": 0}, {"type": "note_off", "time": 559, "note": 68, "velocity": 117, "channel": 0}, {"type": "note_on", "time": 29, "note": 68, "velocity": 110, "channel": 0}, {"type": "note_off", "time": 2644, "note": 68, "velocity": 110, "channel": 0}, {"type": "note_on", "time": 3440, "note": 65, "velocity": 110, "channel": 0}, {"type": "note_off", "time": 638, "note": 65, "velocity": 110, "channel": 0}, {"type": "note_on", "time": 49, "note": 68, "velocity": 101, "channel": 0}, {"type": "note_off", "time": 339, "note": 68, "velocity": 101, "channel": 0}, {"type": "note_on", "time": 40, "note": 70, "velocity": 114, "channel": 0}, {"type": "note_off", "time": 298, "note": 70, "velocity": 114, "channel": 0}, {"type": "note_on", "time": 25, "note": 72, "velocity": 115, "channel": 0}, {"type": "note_off", "time": 248, "note": 72, "velocity": 115, "channel": 0}, {"type": "note_on", "time": 183, "note": 75, "velocity": 121, "channel": 0}, {"type": "note_off", "time": 679, "note": 75, "velocity": 121, "channel": 0}, {"type": "note_on", "time": 33, "note": 73, "velocity": 115, "channel": 0}, {"type": "note_off", "time": 406, "note": 73, "velocity": 115, "channel": 0}, {"type": "note_on", "time": 24, "note": 72, "velocity": 109, "channel": 0}, {"type": "note_off", "time": 174, "note": 72, "velocity": 109, "channel": 0}, {"type": "note_on", "time": 16, "note": 73, "velocity": 112, "channel": 0}, {"type": "note_off", "time": 157, "note": 73, "velocity": 112, "channel": 0}, {"type": "note_on", "time": 24, "note": 72, "velocity": 116, "channel": 0}, {"type": "note_off", "time": 356, "note": 72, "velocity": 116, "channel": 0}, {"type": "note_on", "time": 16, "note": 70, "velocity": 112, "channel": 0}, {"type": "note_off", "time": 489, "note": 70, "velocity": 112, "channel": 0}, {"type": "note_on", "time": 16, "note": 68, "velocity": 114, "channel": 0}, {"type": "note_off", "time": 870, "note": 68, "velocity": 114, "channel": 0}, {"type": "note_on", "time": 41, "note": 60, "velocity": 105, "channel": 0}, {"type": "note_off", "time": 762, "note": 60, "velocity": 105, "channel": 0}, {"type": "note_on", "time": 74, "note": 61, "velocity": 95, "channel": 0}, {"type": "note_off", "time": 447, "note": 61, "velocity": 95, "channel": 0}, {"type": "note_on", "time": 111, "note": 66, "velocity": 117, "channel": 0}, {"type": "note_off", "time": 431, "note": 66, "velocity": 117, "channel": 0}, {"type": "note_on", "time": 111, "note": 65, "velocity": 114, "channel": 0}, {"type": "note_off", "time": 596, "note": 65, "velocity": 114, "channel": 0}, {"type": "note_on", "time": 24, "note": 63, "velocity": 113, "channel": 0}, {"type": "note_off", "time": 646, "note": 63, "velocity": 113, "channel": 0}, {"type": "note_on", "time": 41, "note": 62, "velocity": 103, "channel": 0}, {"type": "note_off", "time": 315, "note": 62, "velocity": 103, "channel": 0}, {"type": "note_on", "time": 140, "note": 65, "velocity": 114, "channel": 0}, {"type": "note_off", "time": 348, "note": 65, "velocity": 114, "channel": 0}, {"type": "note_on", "time": 8, "note": 68, "velocity": 112, "channel": 0}, {"type": "note_off", "time": 207, "note": 68, "velocity": 112, "channel": 0}, {"type": "note_on", "time": 331, "note": 71, "velocity": 117, "channel": 0}, {"type": "note_off", "time": 489, "note": 71, "velocity": 117, "channel": 0}, {"type": "note_on", "time": 8, "note": 73, "velocity": 111, "channel": 0}, {"type": "note_off", "time": 315, "note": 73, "velocity": 111, "channel": 0}, {"type": "note_on", "time": 16, "note": 70, "velocity": 114, "channel": 0}, {"type": "note_off", "time": 969, "note": 70, "velocity": 114, "channel": 0}, {"type": "note_on", "time": 140, "note": 68, "velocity": 102, "channel": 0}, {"type": "note_off", "time": 439, "note": 68, "velocity": 102, "channel": 0}, {"type": "note_on", "time": 24, "note": 70, "velocity": 102, "channel": 0}, {"type": "note_off", "time": 356, "note": 70, "velocity": 102, "channel": 0}, {"type": "note_on", "time": 140, "note": 66, "velocity": 112, "channel": 0}, {"type": "note_off", "time": 596, "note": 66, "velocity": 112, "channel": 0}, {"type": "note_on", "time": 66, "note": 58, "velocity": 98, "channel": 0}, {"type": "note_off", "time": 588, "note": 58, "velocity": 98, "channel": 0}, {"type": "note_on", "time": 33, "note": 63, "velocity": 103, "channel": 0}, {"type": "note_off", "time": 489, "note": 63, "velocity": 103, "channel": 0}, {"type": "note_on", "time": 74, "note": 66, "velocity": 111, "channel": 0}, {"type": "note_off", "time": 613, "note": 66, "velocity": 111, "channel": 0}, {"type": "note_on", "time": 16, "note": 65, "velocity": 104, "channel": 0}, {"type": "note_off", "time": 555, "note": 65, "velocity": 104, "channel": 0}, {"type": "note_on", "time": 74, "note": 63, "velocity": 94, "channel": 0}, {"type": "note_off", "time": 3067, "note": 63, "velocity": 94, "channel": 0}, {"type": "note_on", "time": 4517, "note": 57, "velocity": 115, "channel": 0}, {"type": "note_off", "time": 812, "note": 57, "velocity": 115, "channel": 0}, {"type": "note_on", "time": 406, "note": 63, "velocity": 110, "channel": 0}, {"type": "note_off", "time": 281, "note": 63, "velocity": 110, "channel": 0}, {"type": "note_on", "time": 140, "note": 67, "velocity": 118, "channel": 0}, {"type": "note_off", "time": 746, "note": 67, "velocity": 118, "channel": 0}, {"type": "note_on", "time": 163, "note": 62, "velocity": 102, "channel": 0}, {"type": "note_off", "time": 188, "note": 62, "velocity": 102, "channel": 0}, {"type": "note_on", "time": 45, "note": 60, "velocity": 99, "channel": 0}, {"type": "note_off", "time": 165, "note": 60, "velocity": 99, "channel": 0}, {"type": "note_on", "time": 16, "note": 63, "velocity": 104, "channel": 0}, {"type": "note_off", "time": 198, "note": 63, "velocity": 104, "channel": 0}, {"type": "note_on", "time": 0, "note": 65, "velocity": 106, "channel": 0}, {"type": "note_off", "time": 364, "note": 65, "velocity": 106, "channel": 0}, {"type": "note_on", "time": 33, "note": 67, "velocity": 109, "channel": 0}, {"type": "note_off", "time": 230, "note": 67, "velocity": 109, "channel": 0}, {"type": "note_on", "time": 50, "note": 69, "velocity": 117, "channel": 0}, {"type": "note_off", "time": 431, "note": 69, "velocity": 117, "channel": 0}, {"type": "note_on", "time": 84, "note": 73, "velocity": 115, "channel": 0}, {"type": "note_off", "time": 1152, "note": 73, "velocity": 115, "channel": 0}, {"type": "note_on", "time": 41, "note": 69, "velocity": 118, "channel": 0}, {"type": "note_off", "time": 339, "note": 69, "velocity": 118, "channel": 0}, {"type": "note_on", "time": 49, "note": 65, "velocity": 105, "channel": 0}, {"type": "note_off", "time": 307, "note": 65, "velocity": 105, "channel": 0}, {"type": "note_on", "time": 0, "note": 63, "velocity": 106, "channel": 0}, {"type": "note_off", "time": 306, "note": 63, "velocity": 106, "channel": 0}, {"type": "note_on", "time": 323, "note": 72, "velocity": 117, "channel": 0}, {"type": "note_off", "time": 630, "note": 72, "velocity": 117, "channel": 0}, {"type": "note_on", "time": 4186, "note": 73, "velocity": 117, "channel": 0}, {"type": "note_off", "time": 290, "note": 73, "velocity": 117, "channel": 0}, {"type": "note_on", "time": 8, "note": 72, "velocity": 121, "channel": 0}, {"type": "note_off", "time": 248, "note": 72, "velocity": 121, "channel": 0}, {"type": "note_on", "time": 8, "note": 70, "velocity": 114, "channel": 0}, {"type": "note_off", "time": 265, "note": 70, "velocity": 114, "channel": 0}, {"type": "note_on", "time": 41, "note": 66, "velocity": 115, "channel": 0}, {"type": "note_off", "time": 298, "note": 66, "velocity": 115, "channel": 0}, {"type": "note_on", "time": 66, "note": 63, "velocity": 112, "channel": 0}, {"type": "note_off", "time": 339, "note": 63, "velocity": 112, "channel": 0}, {"type": "note_on", "time": 33, "note": 58, "velocity": 108, "channel": 0}, {"type": "note_off", "time": 265, "note": 58, "velocity": 108, "channel": 0}, {"type": "note_on", "time": 8, "note": 61, "velocity": 114, "channel": 0}, {"type": "note_off", "time": 323, "note": 61, "velocity": 114, "channel": 0}, {"type": "note_on", "time": 33, "note": 58, "velocity": 105, "channel": 0}, {"type": "note_off", "time": 265, "note": 58, "velocity": 105, "channel": 0}, {"type": "note_on", "time": 33, "note": 60, "velocity": 112, "channel": 0}, {"type": "note_off", "time": 348, "note": 60, "velocity": 112, "channel": 0}, {"type": "note_on", "time": 41, "note": 65, "velocity": 118, "channel": 0}, {"type": "note_off", "time": 1798, "note": 65, "velocity": 118, "channel": 0}, {"type": "note_on", "time": 41, "note": 61, "velocity": 112, "channel": 0}, {"type": "note_off", "time": 265, "note": 61, "velocity": 112, "channel": 0}, {"type": "note_on", "time": 24, "note": 58, "velocity": 113, "channel": 0}, {"type": "note_off", "time": 306, "note": 58, "velocity": 113, "channel": 0}, {"type": "note_on", "time": 66, "note": 54, "velocity": 108, "channel": 0}, {"type": "note_off", "time": 315, "note": 54, "velocity": 108, "channel": 0}, {"type": "note_on", "time": 91, "note": 64, "velocity": 118, "channel": 0}, {"type": "note_off", "time": 555, "note": 64, "velocity": 118, "channel": 0}, {"type": "note_on", "time": 33, "note": 60, "velocity": 110, "channel": 0}, {"type": "note_off", "time": 273, "note": 60, "velocity": 110, "channel": 0}, {"type": "note_on", "time": 41, "note": 57, "velocity": 112, "channel": 0}, {"type": "note_off", "time": 356, "note": 57, "velocity": 112, "channel": 0}, {"type": "note_on", "time": 58, "note": 54, "velocity": 105, "channel": 0}, {"type": "note_off", "time": 339, "note": 54, "velocity": 105, "channel": 0}, {"type": "note_on", "time": 16, "note": 63, "velocity": 114, "channel": 0}, {"type": "note_off", "time": 1981, "note": 63, "velocity": 114, "channel": 0}, {"type": "note_on", "time": 1127, "note": 63, "velocity": 115, "channel": 0}, {"type": "note_off", "time": 339, "note": 63, "velocity": 115, "channel": 0}, {"type": "note_on", "time": 8, "note": 65, "velocity": 115, "channel": 0}, {"type": "note_off", "time": 273, "note": 65, "velocity": 115, "channel": 0}, {"type": "note_on", "time": 33, "note": 66, "velocity": 111, "channel": 0}, {"type": "note_off", "time": 290, "note": 66, "velocity": 111, "channel": 0}, {"type": "note_on", "time": 83, "note": 70, "velocity": 98, "channel": 0}, {"type": "note_off", "time": 181, "note": 70, "velocity": 98, "channel": 0}, {"type": "note_on", "time": 0, "note": 73, "velocity": 116, "channel": 0}, {"type": "note_off", "time": 298, "note": 73, "velocity": 116, "channel": 0}, {"type": "note_on", "time": 24, "note": 70, "velocity": 119, "channel": 0}, {"type": "note_off", "time": 223, "note": 70, "velocity": 119, "channel": 0}, {"type": "note_on", "time": 63, "note": 68, "velocity": 116, "channel": 0}, {"type": "note_off", "time": 306, "note": 68, "velocity": 116, "channel": 0}, {"type": "note_on", "time": 43, "note": 66, "velocity": 111, "channel": 0}, {"type": "note_off", "time": 290, "note": 66, "velocity": 111, "channel": 0}, {"type": "note_on", "time": 67, "note": 70, "velocity": 60, "channel": 0}, {"type": "note_off", "time": 190, "note": 70, "velocity": 60, "channel": 0}, {"type": "note_on", "time": 91, "note": 74, "velocity": 112, "channel": 0}, {"type": "note_off", "time": 240, "note": 74, "velocity": 112, "channel": 0}, {"type": "note_on", "time": 49, "note": 77, "velocity": 115, "channel": 0}, {"type": "note_off", "time": 290, "note": 77, "velocity": 115, "channel": 0}, {"type": "note_on", "time": 16, "note": 72, "velocity": 96, "channel": 0}, {"type": "note_off", "time": 256, "note": 72, "velocity": 96, "channel": 0}, {"type": "note_on", "time": 8, "note": 75, "velocity": 111, "channel": 0}, {"type": "note_off", "time": 323, "note": 75, "velocity": 111, "channel": 0}, {"type": "note_on", "time": 24, "note": 76, "velocity": 123, "channel": 0}, {"type": "note_off", "time": 298, "note": 76, "velocity": 123, "channel": 0}, {"type": "note_on", "time": 24, "note": 70, "velocity": 119, "channel": 0}, {"type": "note_off", "time": 248, "note": 70, "velocity": 119, "channel": 0}, {"type": "note_on", "time": 99, "note": 69, "velocity": 120, "channel": 0}, {"type": "note_off", "time": 339, "note": 69, "velocity": 120, "channel": 0}, {"type": "note_on", "time": 24, "note": 68, "velocity": 117, "channel": 0}, {"type": "note_off", "time": 248, "note": 68, "velocity": 117, "channel": 0}, {"type": "note_on", "time": 8, "note": 67, "velocity": 115, "channel": 0}, {"type": "note_off", "time": 190, "note": 67, "velocity": 115, "channel": 0}, {"type": "note_on", "time": 16, "note": 66, "velocity": 113, "channel": 0}, {"type": "note_off", "time": 381, "note": 66, "velocity": 113, "channel": 0}, {"type": "note_on", "time": 464, "note": 65, "velocity": 114, "channel": 0}, {"type": "note_off", "time": 406, "note": 65, "velocity": 114, "channel": 0}, {"type": "note_on", "time": 0, "note": 63, "velocity": 111, "channel": 0}, {"type": "note_off", "time": 356, "note": 63, "velocity": 111, "channel": 0}, {"type": "note_on", "time": 16, "note": 58, "velocity": 108, "channel": 0}, {"type": "note_off", "time": 373, "note": 58, "velocity": 108, "channel": 0}, {"type": "note_on", "time": 0, "note": 61, "velocity": 115, "channel": 0}, {"type": "note_off", "time": 306, "note": 61, "velocity": 115, "channel": 0}, {"type": "note_on", "time": 33, "note": 60, "velocity": 115, "channel": 0}, {"type": "note_off", "time": 265, "note": 60, "velocity": 115, "channel": 0}, {"type": "note_on", "time": 33, "note": 58, "velocity": 114, "channel": 0}, {"type": "note_off", "time": 364, "note": 58, "velocity": 114, "channel": 0}, {"type": "note_on", "time": 8, "note": 57, "velocity": 114, "channel": 0}, {"type": "note_off", "time": 240, "note": 57, "velocity": 114, "channel": 0}, {"type": "note_on", "time": 82, "note": 55, "velocity": 100, "channel": 0}, {"type": "note_off", "time": 315, "note": 55, "velocity": 100, "channel": 0}, {"type": "note_on", "time": 24, "note": 56, "velocity": 116, "channel": 0}, {"type": "note_off", "time": 381, "note": 56, "velocity": 116, "channel": 0}, {"type": "note_on", "time": 99, "note": 53, "velocity": 107, "channel": 0}, {"type": "note_off", "time": 223, "note": 53, "velocity": 107, "channel": 0}, {"type": "note_on", "time": 33, "note": 54, "velocity": 107, "channel": 0}, {"type": "note_off", "time": 281, "note": 54, "velocity": 107, "channel": 0}, {"type": "note_on", "time": 34, "note": 58, "velocity": 110, "channel": 0}, {"type": "note_off", "time": 290, "note": 58, "velocity": 110, "channel": 0}, {"type": "note_on", "time": 14, "note": 61, "velocity": 103, "channel": 0}, {"type": "note_off", "time": 256, "note": 61, "velocity": 103, "channel": 0}, {"type": "note_on", "time": 41, "note": 65, "velocity": 112, "channel": 0}, {"type": "note_off", "time": 2271, "note": 65, "velocity": 112, "channel": 0}, {"type": "note_on", "time": 47, "note": 63, "velocity": 113, "channel": 0}, {"type": "note_off", "time": 547, "note": 63, "velocity": 113, "channel": 0}, {"type": "note_on", "time": 1692, "note": 68, "velocity": 111, "channel": 0}, {"type": "note_off", "time": 455, "note": 68, "velocity": 111, "channel": 0}, {"type": "note_on", "time": 8, "note": 70, "velocity": 109, "channel": 0}, {"type": "note_off", "time": 174, "note": 70, "velocity": 109, "channel": 0}, {"type": "note_on", "time": 16, "note": 68, "velocity": 110, "channel": 0}, {"type": "note_off", "time": 265, "note": 68, "velocity": 110, "channel": 0}, {"type": "note_on", "time": 16, "note": 66, "velocity": 114, "channel": 0}, {"type": "note_off", "time": 323, "note": 66, "velocity": 114, "channel": 0}, {"type": "note_on", "time": 41, "note": 61, "velocity": 105, "channel": 0}, {"type": "note_off", "time": 323, "note": 61, "velocity": 105, "channel": 0}, {"type": "note_on", "time": 58, "note": 58, "velocity": 109, "channel": 0}, {"type": "note_off", "time": 356, "note": 58, "velocity": 109, "channel": 0}, {"type": "note_on", "time": 49, "note": 54, "velocity": 108, "channel": 0}, {"type": "note_on", "time": 397, "note": 64, "velocity": 111, "channel": 0}, {"type": "note_off", "time": 0, "note": 54, "velocity": 108, "channel": 0}, {"type": "note_off", "time": 2105, "note": 64, "velocity": 111, "channel": 0}, {"type": "note_on", "time": 58, "note": 60, "velocity": 108, "channel": 0}, {"type": "note_off", "time": 472, "note": 60, "velocity": 108, "channel": 0}, {"type": "note_on", "time": 33, "note": 56, "velocity": 113, "channel": 0}, {"type": "note_off", "time": 497, "note": 56, "velocity": 113, "channel": 0}, {"type": "note_on", "time": 107, "note": 54, "velocity": 114, "channel": 0}, {"type": "note_off", "time": 928, "note": 54, "velocity": 114, "channel": 0}, {"type": "note_on", "time": 16, "note": 53, "velocity": 106, "channel": 0}, {"type": "note_off", "time": 853, "note": 53, "velocity": 106, "channel": 0}, {"type": "note_on", "time": 41, "note": 56, "velocity": 101, "channel": 0}, {"type": "note_off", "time": 190, "note": 56, "velocity": 101, "channel": 0}, {"type": "note_on", "time": 41, "note": 60, "velocity": 105, "channel": 0}, {"type": "note_off", "time": 265, "note": 60, "velocity": 105, "channel": 0}, {"type": "note_on", "time": 41, "note": 63, "velocity": 112, "channel": 0}, {"type": "note_off", "time": 406, "note": 63, "velocity": 112, "channel": 0}, {"type": "note_on", "time": 16, "note": 61, "velocity": 106, "channel": 0}, {"type": "note_off", "time": 323, "note": 61, "velocity": 106, "channel": 0}, {"type": "note_on", "time": 16, "note": 60, "velocity": 105, "channel": 0}, {"type": "note_off", "time": 397, "note": 60, "velocity": 105, "channel": 0}, {"type": "note_on", "time": 41, "note": 56, "velocity": 106, "channel": 0}, {"type": "note_off", "time": 315, "note": 56, "velocity": 106, "channel": 0}, {"type": "note_on", "time": 123, "note": 58, "velocity": 103, "channel": 0}, {"type": "note_off", "time": 9791, "note": 58, "velocity": 103, "channel": 0}, {"type": "end_of_track", "time": 0}]]}