{"ticks_per_beat": 192, "tracks": [[{"type": "track_name", "name": "Melody", "time": 0}, {"type": "set_tempo", "tempo": 447761, "time": 0}, {"type": "key_signature", "key": "Bb", "time": 0}, {"type": "time_signature", "numerator": 4, "denominator": 4, "clocks_per_click": 24, "notated_32nd_notes_per_beat": 8, "time": 0}, {"type": "note_on", "time": 2541, "note": 62, "velocity": 91, "channel": 0}, {"type": "note_off", "time": 134, "note": 62, "velocity": 91, "channel": 0}, {"type": "note_on", "time": 32, "note": 62, "velocity": 84, "channel": 0}, {"type": "note_off", "time": 161, "note": 62, "velocity": 84, "channel": 0}, {"type": "note_on", "time": 22, "note": 56, "velocity": 105, "channel": 0}, {"type": "note_off", "time": 169, "note": 56, "velocity": 105, "channel": 0}, {"type": "note_on", "time": 22, "note": 56, "velocity": 112, "channel": 0}, {"type": "note_off", "time": 59, "note": 56, "velocity": 112, "channel": 0}, {"type": "note_on", "time": 542, "note": 56, "velocity": 101, "channel": 0}, {"type": "note_off", "time": 42, "note": 56, "velocity": 101, "channel": 0}, {"type": "note_on", "time": 1, "note": 58, "velocity": 90, "channel": 0}, {"type": "note_off", "time": 13, "note": 58, "velocity": 90, "channel": 0}, {"type": "note_on", "time": 0, "note": 57, "velocity": 100, "channel": 0}, {"type": "note_off", "time": 23, "note": 57, "velocity": 100, "channel": 0}, {"type": "note_on", "time": 2, "note": 56, "velocity": 101, "channel": 0}, {"type": "note_off", "time": 29, "note": 56, "velocity": 101, "channel": 0}, {"type": "note_on", "time": 5, "note": 53, "velocity": 92, "channel": 0}, {"type": "note_off", "time": 54, "note": 53, "velocity": 92, "channel": 0}, {"type": "note_on", "time": 21, "note": 56, "velocity": 104, "channel": 0}, {"type": "note_off", "time": 40, "note": 56, "velocity": 104, "channel": 0}, {"type": "note_on", "time": 0, "note": 57, "velocity": 100, "channel": 0}, {"type": "note_off", "time": 33, "note": 57, "velocity": 100, "channel": 0}, {"type": "note_on", "time": 0, "note": 56, "velocity": 97, "channel": 0}, {"type": "note_off", "time": 47, "note": 56, "velocity": 97, "channel": 0}, {"type": "note_on", "time": 7, "note": 53, "velocity": 94, "channel": 0}, {"type": "note_off", "time": 43, "note": 53, "velocity": 94, "channel": 0}, {"type": "note_on", "time": 40, "note": 60, "velocity": 98, "channel": 0}, {"type": "note_off", "time": 113, "note": 60, "velocity": 98, "channel": 0}, {"type": "note_on", "time": 1, "note": 58, "velocity": 100, "channel": 0}, {"type": "note_off", "time": 43, "note": 58, "velocity": 100, "channel": 0}, {"type": "note_on", "time": 15, "note": 56, "velocity": 106, "channel": 0}, {"type": "note_off", "time": 54, "note": 56, "velocity": 106, "channel": 0}, {"type": "note_on", "time": 0, "note": 58, "velocity": 86, "channel": 0}, {"type": "note_off", "time": 26, "note": 58, "velocity": 86, "channel": 0}, {"type": "note_on", "time": 0, "note": 56, "velocity": 101, "channel": 0}, {"type": "note_off", "time": 59, "note": 56, "velocity": 101, "channel": 0}, {"type": "note_on", "time": 7, "note": 53, "velocity": 95, "channel": 0}, {"type": "note_off", "time": 49, "note": 53, "velocity": 95, "channel": 0}, {"type": "note_on", "time": 5, "note": 56, "velocity": 103, "channel": 0}, {"type": "note_off", "time": 182, "note": 56, "velocity": 103, "channel": 0}, {"type": "note_on", "time": 8, "note": 53, "velocity": 96, "channel": 0}, {"type": "note_off", "time": 166, "note": 53, "velocity": 96, "channel": 0}, {"type": "note_on", "time": 500, "note": 53, "velocity": 109, "channel": 0}, {"type": "note_off", "time": 42, "note": 53, "velocity": 109, "channel": 0}, {"type": "note_on", "time": 1, "note": 54, "velocity": 109, "channel": 0}, {"type": "note_off", "time": 47, "note": 54, "velocity": 109, "channel": 0}, {"type": "note_on", "time": 10, "note": 59, "velocity": 99, "channel": 0}, {"type": "note_off", "time": 59, "note": 59, "velocity": 99, "channel": 0}, {"type": "note_on", "time": 5, "note": 62, "velocity": 114, "channel": 0}, {"type": "note_off", "time": 68, "note": 62, "velocity": 114, "channel": 0}, {"type": "note_on", "time": 3, "note": 65, "velocity": 117, "channel": 0}, {"type": "note_off", "time": 50, "note": 65, "velocity": 117, "channel": 0}, {"type": "note_on", "time": 0, "note": 66, "velocity": 115, "channel": 0}, {"type": "note_off", "time": 64, "note": 66, "velocity": 115, "channel": 0}, {"type": "note_on", "time": 3, "note": 61, "velocity": 116, "channel": 0}, {"type": "note_off", "time": 82, "note": 61, "velocity": 116, "channel": 0}, {"type": "note_on", "time": 5, "note": 59, "velocity": 92, "channel": 0}, {"type": "note_off", "time": 49, "note": 59, "velocity": 92, "channel": 0}, {"type": "note_on", "time": 3, "note": 58, "velocity": 95, "channel": 0}, {"type": "note_off", "time": 47, "note": 58, "velocity": 95, "channel": 0}, {"type": "note_on", "time": 3, "note": 56, "velocity": 109, "channel": 0}, {"type": "note_off", "time": 66, "note": 56, "velocity": 109, "channel": 0}, {"type": "note_on", "time": 5, "note": 55, "velocity": 101, "channel": 0}, {"type": "note_off", "time": 57, "note": 55, "velocity": 101, "channel": 0}, {"type": "note_on", "time": 3, "note": 49, "velocity": 97, "channel": 0}, {"type": "note_off", "time": 238, "note": 49, "velocity": 97, "channel": 0}, {"type": "note_on", "time": 7, "note": 53, "velocity": 97, "channel": 0}, {"type": "note_off", "time": 52, "note": 53, "velocity": 97, "channel": 0}, {"type": "note_on", "time": 3, "note": 57, "velocity": 103, "channel": 0}, {"type": "note_off", "time": 49, "note": 57, "velocity": 103, "channel": 0}, {"type": "note_on", "time": 10, "note": 61, "velocity": 114, "channel": 0}, {"type": "note_off", "time": 64, "note": 61, "velocity": 114, "channel": 0}, {"type": "note_on", "time": 3, "note": 65, "velocity": 110, "channel": 0}, {"type": "note_off", "time": 57, "note": 65, "velocity": 110, "channel": 0}, {"type": "note_on", "time": 7, "note": 69, "velocity": 108, "channel": 0}, {"type": "note_off", "time": 70, "note": 69, "velocity": 108, "channel": 0}, {"type": "note_on", "time": 0, "note": 72, "velocity": 114, "channel": 0}, {"type": "note_off", "time": 73, "note": 72, "velocity": 114, "channel": 0}, {"type": "note_on", "time": 1, "note": 69, "velocity": 97, "channel": 0}, {"type": "note_off", "time": 61, "note": 69, "velocity": 97, "channel": 0}, {"type": "note_on", "time": 12, "note": 70, "velocity": 107, "channel": 0}, {"type": "note_off", "time": 61, "note": 70, "velocity": 107, "channel": 0}, {"type": "note_on", "time": 14, "note": 72, "velocity": 109, "channel": 0}, {"type": "note_off", "time": 66, "note": 72, "velocity": 109, "channel": 0}, {"type": "note_on", "time": 5, "note": 69, "velocity": 108, "channel": 0}, {"type": "note_off", "time": 70, "note": 69, "velocity": 108, "channel": 0}, {"type": "note_on", "time": 7, "note": 65, "velocity": 110, "channel": 0}, {"type": "note_off", "time": 63, "note": 65, "velocity": 110, "channel": 0}, {"type": "note_on", "time": 21, "note": 61, "velocity": 114, "channel": 0}, {"type": "note_off", "time": 64, "note": 61, "velocity": 114, "channel": 0}, {"type": "note_on", "time": 7, "note": 57, "velocity": 97, "channel": 0}, {"type": "note_off", "time": 43, "note": 57, "velocity": 97, "channel": 0}, {"type": "note_on", "time": 5, "note": 66, "velocity": 116, "channel": 0}, {"type": "note_off", "time": 21, "note": 66, "velocity": 116, "channel": 0}, {"type": "note_on", "time": 3, "note": 67, "velocity": 107, "channel": 0}, {"type": "note_off", "time": 210, "note": 67, "velocity": 107, "channel": 0}, {"type": "note_on", "time": 19, "note": 65, "velocity": 108, "channel": 0}, {"type": "note_off", "time": 52, "note": 65, "velocity": 108, "channel": 0}, {"type": "note_on", "time": 3, "note": 60, "velocity": 112, "channel": 0}, {"type": "note_off", "time": 56, "note": 60, "velocity": 112, "channel": 0}, {"type": "note_on", "time": 10, "note": 56, "velocity": 108, "channel": 0}, {"type": "note_off", "time": 45, "note": 56, "velocity": 108, "channel": 0}, {"type": "note_on", "time": 5, "note": 55, "velocity": 98, "channel": 0}, {"type": "note_off", "time": 47, "note": 55, "velocity": 98, "channel": 0}, {"type": "note_on", "time": 3, "note": 53, "velocity": 90, "channel": 0}, {"type": "note_off", "time": 50, "note": 53, "velocity": 90, "channel": 0}, {"type": "note_on", "time": 3, "note": 55, "velocity": 95, "channel": 0}, {"type": "note_off", "time": 154, "note": 55, "velocity": 95, "channel": 0}, {"type": "note_on", "time": 605, "note": 67, "velocity": 111, "channel": 0}, {"type": "note_off", "time": 68, "note": 67, "velocity": 111, "channel": 0}, {"type": "note_on", "time": 28, "note": 70, "velocity": 112, "channel": 0}, {"type": "note_off", "time": 124, "note": 70, "velocity": 112, "channel": 0}, {"type": "note_on", "time": 10, "note": 73, "velocity": 118, "channel": 0}, {"type": "note_off", "time": 42, "note": 73, "velocity": 118, "channel": 0}, {"type": "note_on", "time": 8, "note": 74, "velocity": 83, "channel": 0}, {"type": "note_off", "time": 87, "note": 74, "velocity": 83, "channel": 0}, {"type": "note_on", "time": 5, "note": 70, "velocity": 108, "channel": 0}, {"type": "note_off", "time": 82, "note": 70, "velocity": 108, "channel": 0}, {"type": "note_on", "time": 14, "note": 63, "velocity": 120, "channel": 0}, {"type": "note_off", "time": 173, "note": 63, "velocity": 120, "channel": 0}, {"type": "note_on", "time": 397, "note": 70, "velocity": 105, "channel": 0}, {"type": "note_off", "time": 70, "note": 70, "velocity": 105, "channel": 0}, {"type": "note_on", "time": 1, "note": 75, "velocity": 110, "channel": 0}, {"type": "note_off", "time": 40, "note": 75, "velocity": 110, "channel": 0}, {"type": "note_on", "time": 8, "note": 74, "velocity": 103, "channel": 0}, {"type": "note_off", "time": 47, "note": 74, "velocity": 103, "channel": 0}, {"type": "note_on", "time": 3, "note": 72, "velocity": 107, "channel": 0}, {"type": "note_off", "time": 52, "note": 72, "velocity": 107, "channel": 0}, {"type": "note_on", "time": 8, "note": 70, "velocity": 103, "channel": 0}, {"type": "note_off", "time": 47, "note": 70, "velocity": 103, "channel": 0}, {"type": "note_on", "time": 1, "note": 71, "velocity": 108, "channel": 0}, {"type": "note_off", "time": 31, "note": 71, "velocity": 108, "channel": 0}, {"type": "note_on", "time": 0, "note": 70, "velocity": 107, "channel": 0}, {"type": "note_off", "time": 43, "note": 70, "velocity": 107, "channel": 0}, {"type": "note_on", "time": 12, "note": 67, "velocity": 100, "channel": 0}, {"type": "note_off", "time": 43, "note": 67, "velocity": 100, "channel": 0}, {"type": "note_on", "time": 35, "note": 69, "velocity": 111, "channel": 0}, {"type": "note_off", "time": 68, "note": 69, "velocity": 111, "channel": 0}, {"type": "note_on", "time": 3, "note": 67, "velocity": 114, "channel": 0}, {"type": "note_off", "time": 89, "note": 67, "velocity": 114, "channel": 0}, {"type": "note_on", "time": 1, "note": 65, "velocity": 107, "channel": 0}, {"type": "note_off", "time": 89, "note": 65, "velocity": 107, "channel": 0}, {"type": "note_on", "time": 12, "note": 63, "velocity": 123, "channel": 0}, {"type": "note_off", "time": 73, "note": 63, "velocity": 123, "channel": 0}, {"type": "note_on", "time": 10, "note": 62, "velocity": 120, "channel": 0}, {"type": "note_off", "time": 33, "note": 62, "velocity": 120, "channel": 0}, {"type": "note_on", "time": 1, "note": 63, "velocity": 121, "channel": 0}, {"type": "note_off", "time": 35, "note": 63, "velocity": 121, "channel": 0}, {"type": "note_on", "time": 1, "note": 62, "velocity": 104, "channel": 0}, {"type": "note_off", "time": 40, "note": 62, "velocity": 104, "channel": 0}, {"type": "note_on", "time": 5, "note": 58, "velocity": 99, "channel": 0}, {"type": "note_off", "time": 56, "note": 58, "velocity": 99, "channel": 0}, {"type": "note_on", "time": 12, "note": 61, "velocity": 116, "channel": 0}, {"type": "note_off", "time": 49, "note": 61, "velocity": 116, "channel": 0}, {"type": "note_on", "time": 3, "note": 62, "velocity": 118, "channel": 0}, {"type": "note_off", "time": 52, "note": 62, "velocity": 118, "channel": 0}, {"type": "note_on", "time": 17, "note": 65, "velocity": 110, "channel": 0}, {"type": "note_off", "time": 57, "note": 65, "velocity": 110, "channel": 0}, {"type": "note_on", "time": 0, "note": 63, "velocity": 123, "channel": 0}, {"type": "note_off", "time": 57, "note": 63, "velocity": 123, "channel": 0}, {"type": "note_on", "time": 17, "note": 67, "velocity": 105, "channel": 0}, {"type": "note_off", "time": 47, "note": 67, "velocity": 105, "channel": 0}, {"type": "note_on", "time": 0, "note": 70, "velocity": 99, "channel": 0}, {"type": "note_off", "time": 64, "note": 70, "velocity": 99, "channel": 0}, {"type": "note_on", "time": 7, "note": 73, "velocity": 111, "channel": 0}, {"type": "note_off", "time": 68, "note": 73, "velocity": 111, "channel": 0}, {"type": "note_on", "time": 0, "note": 70, "velocity": 101, "channel": 0}, {"type": "note_off", "time": 56, "note": 70, "velocity": 101, "channel": 0}, {"type": "note_on", "time": 3, "note": 72, "velocity": 110, "channel": 0}, {"type": "note_off", "time": 64, "note": 72, "velocity": 110, "channel": 0}, {"type": "note_on", "time": 14, "note": 70, "velocity": 100, "channel": 0}, {"type": "note_off", "time": 99, "note": 70, "velocity": 100, "channel": 0}, {"type": "note_on", "time": 17, "note": 68, "velocity": 115, "channel": 0}, {"type": "note_on", "time": 104, "note": 70, "velocity": 100, "channel": 0}, {"type": "note_off", "time": 0, "note": 68, "velocity": 115, "channel": 0}, {"type": "note_off", "time": 19, "note": 70, "velocity": 100, "channel": 0}, {"type": "note_on", "time": 6, "note": 68, "velocity": 113, "channel": 0}, {"type": "note_off", "time": 41, "note": 68, "velocity": 113, "channel": 0}, {"type": "note_on", "time": 3, "note": 65, "velocity": 106, "channel": 0}, {"type": "note_off", "time": 34, "note": 65, "velocity": 106, "channel": 0}, {"type": "note_on", "time": 39, "note": 68, "velocity": 117, "channel": 0}, {"type": "note_off", "time": 106, "note": 68, "velocity": 117, "channel": 0}, {"type": "note_on", "time": 10, "note": 65, "velocity": 110, "channel": 0}, {"type": "note_off", "time": 50, "note": 65, "velocity": 110, "channel": 0}, {"type": "note_on", "time": 3, "note": 64, "velocity": 112, "channel": 0}, {"type": "note_off", "time": 84, "note": 64, "velocity": 112, "channel": 0}, {"type": "note_on", "time": 5, "note": 63, "velocity": 106, "channel": 0}, {"type": "note_off", "time": 33, "note": 63, "velocity": 106, "channel": 0}, {"type": "note_on", "time": 8, "note": 60, "velocity": 98, "channel": 0}, {"type": "note_off", "time": 54, "note": 60, "velocity": 98, "channel": 0}, {"type": "note_on", "time": 8, "note": 67, "velocity": 110, "channel": 0}, {"type": "note_off", "time": 122, "note": 67, "velocity": 110, "channel": 0}, {"type": "note_on", "time": 7, "note": 65, "velocity": 93, "channel": 0}, {"type": "note_off", "time": 49, "note": 65, "velocity": 93, "channel": 0}, {"type": "note_on", "time": 3, "note": 67, "velocity": 97, "channel": 0}, {"type": "note_off", "time": 231, "note": 67, "velocity": 97, "channel": 0}, {"type": "note_on", "time": 255, "note": 65, "velocity": 112, "channel": 0}, {"type": "note_off", "time": 70, "note": 65, "velocity": 112, "channel": 0}, {"type": "note_on", "time": 0, "note": 60, "velocity": 117, "channel": 0}, {"type": "note_off", "time": 68, "note": 60, "velocity": 117, "channel": 0}, {"type": "note_on", "time": 5, "note": 56, "velocity": 105, "channel": 0}, {"type": "note_off", "time": 105, "note": 56, "velocity": 105, "channel": 0}, {"type": "note_on", "time": 28, "note": 50, "velocity": 91, "channel": 0}, {"type": "note_off", "time": 47, "note": 50, "velocity": 91, "channel": 0}, {"type": "note_on", "time": 182, "note": 67, "velocity": 116, "channel": 0}, {"type": "note_off", "time": 117, "note": 67, "velocity": 116, "channel": 0}, {"type": "note_on", "time": 1, "note": 65, "velocity": 111, "channel": 0}, {"type": "note_off", "time": 73, "note": 65, "velocity": 111, "channel": 0}, {"type": "note_on", "time": 17, "note": 60, "velocity": 117, "channel": 0}, {"type": "note_off", "time": 99, "note": 60, "velocity": 117, "channel": 0}, {"type": "note_on", "time": 10, "note": 56, "velocity": 104, "channel": 0}, {"type": "note_off", "time": 54, "note": 56, "velocity": 104, "channel": 0}, {"type": "note_on", "time": 14, "note": 67, "velocity": 113, "channel": 0}, {"type": "note_off", "time": 26, "note": 67, "velocity": 113, "channel": 0}, {"type": "note_on", "time": 2, "note": 68, "velocity": 98, "channel": 0}, {"type": "note_off", "time": 16, "note": 68, "velocity": 98, "channel": 0}, {"type": "note_on", "time": 0, "note": 67, "velocity": 108, "channel": 0}, {"type": "note_off", "time": 62, "note": 67, "velocity": 108, "channel": 0}, {"type": "note_on", "time": 3, "note": 65, "velocity": 111, "channel": 0}, {"type": "note_off", "time": 43, "note": 65, "velocity": 111, "channel": 0}, {"type": "note_on", "time": 2, "note": 60, "velocity": 110, "channel": 0}, {"type": "note_off", "time": 48, "note": 60, "velocity": 110, "channel": 0}, {"type": "note_on", "time": 12, "note": 56, "velocity": 109, "channel": 0}, {"type": "note_off", "time": 143, "note": 56, "velocity": 109, "channel": 0}, {"type": "note_on", "time": 488, "note": 53, "velocity": 100, "channel": 0}, {"type": "note_off", "time": 18, "note": 53, "velocity": 100, "channel": 0}, {"type": "note_on", "time": 4, "note": 56, "velocity": 105, "channel": 0}, {"type": "note_off", "time": 33, "note": 56, "velocity": 105, "channel": 0}, {"type": "note_on", "time": 27, "note": 67, "velocity": 117, "channel": 0}, {"type": "note_off", "time": 104, "note": 67, "velocity": 117, "channel": 0}, {"type": "note_on", "time": 21, "note": 53, "velocity": 104, "channel": 0}, {"type": "note_off", "time": 16, "note": 53, "velocity": 104, "channel": 0}, {"type": "note_on", "time": 9, "note": 56, "velocity": 98, "channel": 0}, {"type": "note_off", "time": 14, "note": 56, "velocity": 98, "channel": 0}, {"type": "note_on", "time": 46, "note": 67, "velocity": 114, "channel": 0}, {"type": "note_off", "time": 93, "note": 67, "velocity": 114, "channel": 0}, {"type": "note_on", "time": 14, "note": 53, "velocity": 103, "channel": 0}, {"type": "note_off", "time": 31, "note": 53, "velocity": 103, "channel": 0}, {"type": "note_on", "time": 2, "note": 56, "velocity": 105, "channel": 0}, {"type": "note_off", "time": 26, "note": 56, "velocity": 105, "channel": 0}, {"type": "note_on", "time": 29, "note": 67, "velocity": 114, "channel": 0}, {"type": "note_off", "time": 84, "note": 67, "velocity": 114, "channel": 0}, {"type": "note_on", "time": 9, "note": 60, "velocity": 114, "channel": 0}, {"type": "note_off", "time": 27, "note": 60, "velocity": 114, "channel": 0}, {"type": "note_on", "time": 1, "note": 61, "velocity": 115, "channel": 0}, {"type": "note_off", "time": 37, "note": 61, "velocity": 115, "channel": 0}, {"type": "note_on", "time": 43, "note": 72, "velocity": 111, "channel": 0}, {"type": "note_off", "time": 63, "note": 72, "velocity": 111, "channel": 0}, {"type": "note_on", "time": 7, "note": 60, "velocity": 110, "channel": 0}, {"type": "note_on", "time": 31, "note": 61, "velocity": 114, "channel": 0}, {"type": "note_off", "time": 0, "note": 60, "velocity": 110, "channel": 0}, {"type": "note_off", "time": 18, "note": 61, "velocity": 114, "channel": 0}, {"type": "note_on", "time": 68, "note": 72, "velocity": 105, "channel": 0}, {"type": "note_off", "time": 171, "note": 72, "velocity": 105, "channel": 0}, {"type": "note_on", "time": 486, "note": 60, "velocity": 117, "channel": 0}, {"type": "note_off", "time": 38, "note": 60, "velocity": 117, "channel": 0}, {"type": "note_on", "time": 3, "note": 61, "velocity": 117, "channel": 0}, {"type": "note_off", "time": 37, "note": 61, "velocity": 117, "channel": 0}, {"type": "note_on", "time": 46, "note": 72, "velocity": 110, "channel": 0}, {"type": "note_off", "time": 62, "note": 72, "velocity": 110, "channel": 0}, {"type": "note_on", "time": 31, "note": 60, "velocity": 114, "channel": 0}, {"type": "note_off", "time": 38, "note": 60, "velocity": 114, "channel": 0}, {"type": "note_on", "time": 2, "note": 61, "velocity": 111, "channel": 0}, {"type": "note_off", "time": 38, "note": 61, "velocity": 111, "channel": 0}, {"type": "note_on", "time": 47, "note": 72, "velocity": 110, "channel": 0}, {"type": "note_off", "time": 58, "note": 72, "velocity": 110, "channel": 0}, {"type": "note_on", "time": 13, "note": 60, "velocity": 114, "channel": 0}, {"type": "note_off", "time": 28, "note": 60, "velocity": 114, "channel": 0}, {"type": "note_on", "time": 2, "note": 61, "velocity": 115, "channel": 0}, {"type": "note_off", "time": 29, "note": 61, "velocity": 115, "channel": 0}, {"type": "note_on", "time": 77, "note": 72, "velocity": 110, "channel": 0}, {"type": "note_off", "time": 74, "note": 72, "velocity": 110, "channel": 0}, {"type": "note_on", "time": 378, "note": 70, "velocity": 110, "channel": 0}, {"type": "note_off", "time": 72, "note": 70, "velocity": 110, "channel": 0}, {"type": "note_on", "time": 7, "note": 66, "velocity": 118, "channel": 0}, {"type": "note_off", "time": 31, "note": 66, "velocity": 118, "channel": 0}, {"type": "note_on", "time": 4, "note": 68, "velocity": 117, "channel": 0}, {"type": "note_off", "time": 78, "note": 68, "velocity": 117, "channel": 0}, {"type": "note_on", "time": 0, "note": 65, "velocity": 109, "channel": 0}, {"type": "note_off", "time": 48, "note": 65, "velocity": 109, "channel": 0}, {"type": "note_on", "time": 428, "note": 53, "velocity": 98, "channel": 0}, {"type": "note_off", "time": 22, "note": 53, "velocity": 98, "channel": 0}, {"type": "note_on", "time": 3, "note": 57, "velocity": 98, "channel": 0}, {"type": "note_off", "time": 42, "note": 57, "velocity": 98, "channel": 0}, {"type": "note_on", "time": 5, "note": 60, "velocity": 116, "channel": 0}, {"type": "note_off", "time": 56, "note": 60, "velocity": 116, "channel": 0}, {"type": "note_on", "time": 1, "note": 57, "velocity": 104, "channel": 0}, {"type": "note_off", "time": 42, "note": 57, "velocity": 104, "channel": 0}, {"type": "note_on", "time": 3, "note": 58, "velocity": 93, "channel": 0}, {"type": "note_off", "time": 33, "note": 58, "velocity": 93, "channel": 0}, {"type": "note_on", "time": 3, "note": 59, "velocity": 101, "channel": 0}, {"type": "note_off", "time": 50, "note": 59, "velocity": 101, "channel": 0}, {"type": "note_on", "time": 7, "note": 62, "velocity": 108, "channel": 0}, {"type": "note_off", "time": 33, "note": 62, "velocity": 108, "channel": 0}, {"type": "note_on", "time": 5, "note": 65, "velocity": 117, "channel": 0}, {"type": "note_off", "time": 36, "note": 65, "velocity": 117, "channel": 0}, {"type": "note_on", "time": 15, "note": 68, "velocity": 119, "channel": 0}, {"type": "note_off", "time": 49, "note": 68, "velocity": 119, "channel": 0}, {"type": "note_on", "time": 3, "note": 67, "velocity": 115, "channel": 0}, {"type": "note_off", "time": 31, "note": 67, "velocity": 115, "channel": 0}, {"type": "note_on", "time": 9, "note": 65, "velocity": 112, "channel": 0}, {"type": "note_off", "time": 28, "note": 65, "velocity": 112, "channel": 0}, {"type": "note_on", "time": 0, "note": 62, "velocity": 119, "channel": 0}, {"type": "note_off", "time": 46, "note": 62, "velocity": 119, "channel": 0}, {"type": "note_on", "time": 6, "note": 63, "velocity": 121, "channel": 0}, {"type": "note_off", "time": 49, "note": 63, "velocity": 121, "channel": 0}, {"type": "note_on", "time": 4, "note": 65, "velocity": 103, "channel": 0}, {"type": "note_off", "time": 22, "note": 65, "velocity": 103, "channel": 0}, {"type": "note_on", "time": 0, "note": 66, "velocity": 104, "channel": 0}, {"type": "note_on", "time": 9, "note": 67, "velocity": 104, "channel": 0}, {"type": "note_off", "time": 0, "note": 66, "velocity": 104, "channel": 0}, {"type": "note_off", "time": 14, "note": 67, "velocity": 104, "channel": 0}, {"type": "note_on", "time": 0, "note": 69, "velocity": 103, "channel": 0}, {"type": "note_off", "time": 30, "note": 69, "velocity": 103, "channel": 0}, {"type": "note_on", "time": 0, "note": 71, "velocity": 97, "channel": 0}, {"type": "note_off", "time": 15, "note": 71, "velocity": 97, "channel": 0}, {"type": "note_on", "time": 2, "note": 74, "velocity": 110, "channel": 0}, {"type": "note_off", "time": 63, "note": 74, "velocity": 110, "channel": 0}, {"type": "note_on", "time": 1, "note": 71, "velocity": 103, "channel": 0}, {"type": "note_off", "time": 18, "note": 71, "velocity": 103, "channel": 0}, {"type": "note_on", "time": 7, "note": 72, "velocity": 97, "channel": 0}, {"type": "note_off", "time": 85, "note": 72, "velocity": 97, "channel": 0}, {"type": "note_on", "time": 4, "note": 75, "velocity": 109, "channel": 0}, {"type": "note_off", "time": 77, "note": 75, "velocity": 109, "channel": 0}, {"type": "note_on", "time": 2, "note": 71, "velocity": 111, "channel": 0}, {"type": "note_off", "time": 92, "note": 71, "velocity": 111, "channel": 0}, {"type": "note_on", "time": 542, "note": 67, "velocity": 120, "channel": 0}, {"type": "note_off", "time": 32, "note": 67, "velocity": 120, "channel": 0}, {"type": "note_on", "time": 7, "note": 68, "velocity": 121, "channel": 0}, {"type": "note_off", "time": 63, "note": 68, "velocity": 121, "channel": 0}, {"type": "note_on", "time": 3, "note": 69, "velocity": 102, "channel": 0}, {"type": "note_off", "time": 24, "note": 69, "velocity": 102, "channel": 0}, {"type": "note_on", "time": 1, "note": 68, "velocity": 118, "channel": 0}, {"type": "note_off", "time": 47, "note": 68, "velocity": 118, "channel": 0}, {"type": "note_on", "time": 6, "note": 65, "velocity": 118, "channel": 0}, {"type": "note_off", "time": 36, "note": 65, "velocity": 118, "channel": 0}, {"type": "note_on", "time": 153, "note": 67, "velocity": 118, "channel": 0}, {"type": "note_off", "time": 37, "note": 67, "velocity": 118, "channel": 0}, {"type": "note_on", "time": 3, "note": 68, "velocity": 120, "channel": 0}, {"type": "note_off", "time": 70, "note": 68, "velocity": 120, "channel": 0}, {"type": "note_on", "time": 79, "note": 64, "velocity": 124, "channel": 0}, {"type": "note_off", "time": 89, "note": 64, "velocity": 124, "channel": 0}, {"type": "note_on", "time": 120, "note": 60, "velocity": 99, "channel": 0}, {"type": "note_off", "time": 42, "note": 60, "velocity": 99, "channel": 0}, {"type": "note_on", "time": 34, "note": 64, "velocity": 117, "channel": 0}, {"type": "note_off", "time": 83, "note": 64, "velocity": 117, "channel": 0}, {"type": "note_on", "time": 287, "note": 64, "velocity": 127, "channel": 0}, {"type": "note_off", "time": 83, "note": 64, "velocity": 127, "channel": 0}, {"type": "note_on", "time": 232, "note": 64, "velocity": 102, "channel": 0}, {"type": "note_off", "time": 74, "note": 64, "velocity": 102, "channel": 0}, {"type": "note_on", "time": 180, "note": 61, "velocity": 121, "channel": 0}, {"type": "note_off", "time": 54, "note": 61, "velocity": 121, "channel": 0}, {"type": "note_on", "time": 0, "note": 62, "velocity": 114, "channel": 0}, {"type": "note_off", "time": 136, "note": 62, "velocity": 114, "channel": 0}, {"type": "note_on", "time": 16, "note": 56, "velocity": 78, "channel": 0}, {"type": "note_off", "time": 1294, "note": 56, "velocity": 78, "channel": 0}, {"type": "end_of_track", "time": 0}]]}