{"ticks_per_beat": 192, "tracks": [[{"type": "track_name", "name": "Melody", "time": 0}, {"type": "set_tempo", "tempo": 342857, "time": 0}, {"type": "key_signature", "key": "F", "time": 0}, {"type": "time_signature", "numerator": 4, "denominator": 4, "clocks_per_click": 24, "notated_32nd_notes_per_beat": 8, "time": 0}, {"type": "note_on", "time": 3831, "note": 72, "velocity": 126, "channel": 0}, {"type": "note_off", "time": 65, "note": 72, "velocity": 126, "channel": 0}, {"type": "note_on", "time": 61, "note": 76, "velocity": 120, "channel": 0}, {"type": "note_off", "time": 24, "note": 76, "velocity": 120, "channel": 0}, {"type": "note_on", "time": 3, "note": 77, "velocity": 125, "channel": 0}, {"type": "note_off", "time": 131, "note": 77, "velocity": 125, "channel": 0}, {"type": "note_on", "time": 5, "note": 76, "velocity": 117, "channel": 0}, {"type": "note_off", "time": 34, "note": 76, "velocity": 117, "channel": 0}, {"type": "note_on", "time": 4, "note": 77, "velocity": 117, "channel": 0}, {"type": "note_off", "time": 97, "note": 77, "velocity": 117, "channel": 0}, {"type": "note_on", "time": 7, "note": 73, "velocity": 107, "channel": 0}, {"type": "note_off", "time": 36, "note": 73, "velocity": 107, "channel": 0}, {"type": "note_on", "time": 3, "note": 70, "velocity": 107, "channel": 0}, {"type": "note_off", "time": 34, "note": 70, "velocity": 107, "channel": 0}, {"type": "note_on", "time": 1, "note": 67, "velocity": 109, "channel": 0}, {"type": "note_off", "time": 43, "note": 67, "velocity": 109, "channel": 0}, {"type": "note_on", "time": 3, "note": 68, "velocity": 109, "channel": 0}, {"type": "note_off", "time": 67, "note": 68, "velocity": 109, "channel": 0}, {"type": "note_on", "time": 5, "note": 65, "velocity": 106, "channel": 0}, {"type": "note_off", "time": 84, "note": 65, "velocity": 106, "channel": 0}, {"type": "note_on", "time": 245, "note": 76, "velocity": 125, "channel": 0}, {"type": "note_off", "time": 43, "note": 76, "velocity": 125, "channel": 0}, {"type": "note_on", "time": 3, "note": 77, "velocity": 122, "channel": 0}, {"type": "note_off", "time": 82, "note": 77, "velocity": 122, "channel": 0}, {"type": "note_on", "time": 1, "note": 73, "velocity": 109, "channel": 0}, {"type": "note_off", "time": 27, "note": 73, "velocity": 109, "channel": 0}, {"type": "note_on", "time": 1, "note": 71, "velocity": 118, "channel": 0}, {"type": "note_off", "time": 34, "note": 71, "velocity": 118, "channel": 0}, {"type": "note_on", "time": 3, "note": 68, "velocity": 114, "channel": 0}, {"type": "note_off", "time": 46, "note": 68, "velocity": 114, "channel": 0}, {"type": "note_on", "time": 5, "note": 65, "velocity": 98, "channel": 0}, {"type": "note_off", "time": 61, "note": 65, "velocity": 98, "channel": 0}, {"type": "note_on", "time": 7, "note": 67, "velocity": 96, "channel": 0}, {"type": "note_off", "time": 236, "note": 67, "velocity": 96, "channel": 0}, {"type": "note_on", "time": 252, "note": 64, "velocity": 108, "channel": 0}, {"type": "note_off", "time": 55, "note": 64, "velocity": 108, "channel": 0}, {"type": "note_on", "time": 4, "note": 65, "velocity": 111, "channel": 0}, {"type": "note_off", "time": 79, "note": 65, "velocity": 111, "channel": 0}, {"type": "note_on", "time": 4, "note": 69, "velocity": 116, "channel": 0}, {"type": "note_off", "time": 52, "note": 69, "velocity": 116, "channel": 0}, {"type": "note_on", "time": 1, "note": 72, "velocity": 118, "channel": 0}, {"type": "note_off", "time": 60, "note": 72, "velocity": 118, "channel": 0}, {"type": "note_on", "time": 5, "note": 76, "velocity": 122, "channel": 0}, {"type": "note_off", "time": 84, "note": 76, "velocity": 122, "channel": 0}, {"type": "note_on", "time": 6, "note": 75, "velocity": 119, "channel": 0}, {"type": "note_off", "time": 86, "note": 75, "velocity": 119, "channel": 0}, {"type": "note_on", "time": 9, "note": 74, "velocity": 117, "channel": 0}, {"type": "note_off", "time": 84, "note": 74, "velocity": 117, "channel": 0}, {"type": "note_on", "time": 11, "note": 73, "velocity": 114, "channel": 0}, {"type": "note_off", "time": 56, "note": 73, "velocity": 114, "channel": 0}, {"type": "note_on", "time": 5, "note": 72, "velocity": 116, "channel": 0}, {"type": "note_off", "time": 43, "note": 72, "velocity": 116, "channel": 0}, {"type": "note_on", "time": 2, "note": 73, "velocity": 111, "channel": 0}, {"type": "note_off", "time": 25, "note": 73, "velocity": 111, "channel": 0}, {"type": "note_on", "time": 4, "note": 72, "velocity": 114, "channel": 0}, {"type": "note_off", "time": 50, "note": 72, "velocity": 114, "channel": 0}, {"type": "note_on", "time": 6, "note": 71, "velocity": 110, "channel": 0}, {"type": "note_off", "time": 68, "note": 71, "velocity": 110, "channel": 0}, {"type": "note_on", "time": 7, "note": 70, "velocity": 108, "channel": 0}, {"type": "note_off", "time": 89, "note": 70, "velocity": 108, "channel": 0}, {"type": "note_on", "time": 5, "note": 69, "velocity": 119, "channel": 0}, {"type": "note_off", "time": 74, "note": 69, "velocity": 119, "channel": 0}, {"type": "note_on", "time": 6, "note": 67, "velocity": 107, "channel": 0}, {"type": "note_off", "time": 100, "note": 67, "velocity": 107, "channel": 0}, {"type": "note_on", "time": 17, "note": 65, "velocity": 109, "channel": 0}, {"type": "note_off", "time": 71, "note": 65, "velocity": 109, "channel": 0}, {"type": "note_on", "time": 7, "note": 63, "velocity": 106, "channel": 0}, {"type": "note_off", "time": 23, "note": 63, "velocity": 106, "channel": 0}, {"type": "note_on", "time": 8, "note": 64, "velocity": 112, "channel": 0}, {"type": "note_off", "time": 81, "note": 64, "velocity": 112, "channel": 0}, {"type": "note_on", "time": 17, "note": 62, "velocity": 92, "channel": 0}, {"type": "note_off", "time": 48, "note": 62, "velocity": 92, "channel": 0}, {"type": "note_on", "time": 4, "note": 63, "velocity": 109, "channel": 0}, {"type": "note_off", "time": 76, "note": 63, "velocity": 109, "channel": 0}, {"type": "note_on", "time": 2, "note": 67, "velocity": 107, "channel": 0}, {"type": "note_off", "time": 49, "note": 67, "velocity": 107, "channel": 0}, {"type": "note_on", "time": 4, "note": 70, "velocity": 108, "channel": 0}, {"type": "note_off", "time": 62, "note": 70, "velocity": 108, "channel": 0}, {"type": "note_on", "time": 7, "note": 73, "velocity": 121, "channel": 0}, {"type": "note_off", "time": 31, "note": 73, "velocity": 121, "channel": 0}, {"type": "note_on", "time": 1, "note": 74, "velocity": 120, "channel": 0}, {"type": "note_off", "time": 81, "note": 74, "velocity": 120, "channel": 0}, {"type": "note_on", "time": 9, "note": 70, "velocity": 91, "channel": 0}, {"type": "note_off", "time": 43, "note": 70, "velocity": 91, "channel": 0}, {"type": "note_on", "time": 18, "note": 72, "velocity": 117, "channel": 0}, {"type": "note_off", "time": 57, "note": 72, "velocity": 117, "channel": 0}, {"type": "note_on", "time": 3, "note": 73, "velocity": 106, "channel": 0}, {"type": "note_off", "time": 38, "note": 73, "velocity": 106, "channel": 0}, {"type": "note_on", "time": 6, "note": 71, "velocity": 113, "channel": 0}, {"type": "note_off", "time": 34, "note": 71, "velocity": 113, "channel": 0}, {"type": "note_on", "time": 3, "note": 69, "velocity": 115, "channel": 0}, {"type": "note_off", "time": 19, "note": 69, "velocity": 115, "channel": 0}, {"type": "note_on", "time": 4, "note": 67, "velocity": 108, "channel": 0}, {"type": "note_off", "time": 18, "note": 67, "velocity": 108, "channel": 0}, {"type": "note_on", "time": 2, "note": 65, "velocity": 110, "channel": 0}, {"type": "note_off", "time": 56, "note": 65, "velocity": 110, "channel": 0}, {"type": "note_on", "time": 2, "note": 63, "velocity": 108, "channel": 0}, {"type": "note_off", "time": 100, "note": 63, "velocity": 108, "channel": 0}, {"type": "note_on", "time": 22, "note": 58, "velocity": 95, "channel": 0}, {"type": "note_off", "time": 53, "note": 58, "velocity": 95, "channel": 0}, {"type": "note_on", "time": 28, "note": 61, "velocity": 102, "channel": 0}, {"type": "note_off", "time": 32, "note": 61, "velocity": 102, "channel": 0}, {"type": "note_on", "time": 2, "note": 62, "velocity": 107, "channel": 0}, {"type": "note_off", "time": 89, "note": 62, "velocity": 107, "channel": 0}, {"type": "note_on", "time": 10, "note": 65, "velocity": 105, "channel": 0}, {"type": "note_off", "time": 70, "note": 65, "velocity": 105, "channel": 0}, {"type": "note_on", "time": 540, "note": 60, "velocity": 108, "channel": 0}, {"type": "note_off", "time": 97, "note": 60, "velocity": 108, "channel": 0}, {"type": "note_on", "time": 12, "note": 61, "velocity": 101, "channel": 0}, {"type": "note_off", "time": 35, "note": 61, "velocity": 101, "channel": 0}, {"type": "note_on", "time": 2, "note": 60, "velocity": 103, "channel": 0}, {"type": "note_off", "time": 39, "note": 60, "velocity": 103, "channel": 0}, {"type": "note_on", "time": 20, "note": 57, "velocity": 96, "channel": 0}, {"type": "note_off", "time": 91, "note": 57, "velocity": 96, "channel": 0}, {"type": "note_on", "time": 6, "note": 60, "velocity": 100, "channel": 0}, {"type": "note_off", "time": 63, "note": 60, "velocity": 100, "channel": 0}, {"type": "note_on", "time": 8, "note": 62, "velocity": 114, "channel": 0}, {"type": "note_off", "time": 35, "note": 62, "velocity": 114, "channel": 0}, {"type": "note_on", "time": 4, "note": 64, "velocity": 113, "channel": 0}, {"type": "note_off", "time": 113, "note": 64, "velocity": 113, "channel": 0}, {"type": "note_on", "time": 11, "note": 62, "velocity": 92, "channel": 0}, {"type": "note_off", "time": 373, "note": 62, "velocity": 92, "channel": 0}, {"type": "note_on", "time": 446, "note": 60, "velocity": 107, "channel": 0}, {"type": "note_off", "time": 104, "note": 60, "velocity": 107, "channel": 0}, {"type": "note_on", "time": 8, "note": 58, "velocity": 101, "channel": 0}, {"type": "note_off", "time": 61, "note": 58, "velocity": 101, "channel": 0}, {"type": "note_on", "time": 8, "note": 57, "velocity": 100, "channel": 0}, {"type": "note_off", "time": 120, "note": 57, "velocity": 100, "channel": 0}, {"type": "note_on", "time": 24, "note": 60, "velocity": 77, "channel": 0}, {"type": "note_off", "time": 48, "note": 60, "velocity": 77, "channel": 0}, {"type": "note_on", "time": 8, "note": 65, "velocity": 110, "channel": 0}, {"type": "note_off", "time": 108, "note": 65, "velocity": 110, "channel": 0}, {"type": "note_on", "time": 1, "note": 69, "velocity": 119, "channel": 0}, {"type": "note_off", "time": 89, "note": 69, "velocity": 119, "channel": 0}, {"type": "note_on", "time": 4, "note": 67, "velocity": 109, "channel": 0}, {"type": "note_off", "time": 99, "note": 67, "velocity": 109, "channel": 0}, {"type": "note_on", "time": 9, "note": 65, "velocity": 107, "channel": 0}, {"type": "note_off", "time": 74, "note": 65, "velocity": 107, "channel": 0}, {"type": "note_on", "time": 3, "note": 64, "velocity": 106, "channel": 0}, {"type": "note_off", "time": 61, "note": 64, "velocity": 106, "channel": 0}, {"type": "note_on", "time": 8, "note": 74, "velocity": 104, "channel": 0}, {"type": "note_off", "time": 62, "note": 74, "velocity": 104, "channel": 0}, {"type": "note_on", "time": 7, "note": 70, "velocity": 98, "channel": 0}, {"type": "note_off", "time": 47, "note": 70, "velocity": 98, "channel": 0}, {"type": "note_on", "time": 15, "note": 74, "velocity": 121, "channel": 0}, {"type": "note_off", "time": 106, "note": 74, "velocity": 121, "channel": 0}, {"type": "note_on", "time": 9, "note": 73, "velocity": 116, "channel": 0}, {"type": "note_off", "time": 71, "note": 73, "velocity": 116, "channel": 0}, {"type": "note_on", "time": 4, "note": 72, "velocity": 114, "channel": 0}, {"type": "note_off", "time": 104, "note": 72, "velocity": 114, "channel": 0}, {"type": "note_on", "time": 67, "note": 70, "velocity": 114, "channel": 0}, {"type": "note_off", "time": 102, "note": 70, "velocity": 114, "channel": 0}, {"type": "note_on", "time": 4, "note": 72, "velocity": 107, "channel": 0}, {"type": "note_on", "time": 34, "note": 70, "velocity": 107, "channel": 0}, {"type": "note_off", "time": 0, "note": 72, "velocity": 107, "channel": 0}, {"type": "note_off", "time": 56, "note": 70, "velocity": 107, "channel": 0}, {"type": "note_on", "time": 4, "note": 69, "velocity": 113, "channel": 0}, {"type": "note_off", "time": 95, "note": 69, "velocity": 113, "channel": 0}, {"type": "note_on", "time": 21, "note": 70, "velocity": 83, "channel": 0}, {"type": "note_off", "time": 53, "note": 70, "velocity": 83, "channel": 0}, {"type": "note_on", "time": 8, "note": 72, "velocity": 117, "channel": 0}, {"type": "note_off", "time": 110, "note": 72, "velocity": 117, "channel": 0}, {"type": "note_on", "time": 11, "note": 75, "velocity": 125, "channel": 0}, {"type": "note_off", "time": 40, "note": 75, "velocity": 125, "channel": 0}, {"type": "note_on", "time": 0, "note": 77, "velocity": 118, "channel": 0}, {"type": "note_off", "time": 37, "note": 77, "velocity": 118, "channel": 0}, {"type": "note_on", "time": 0, "note": 79, "velocity": 125, "channel": 0}, {"type": "note_off", "time": 121, "note": 79, "velocity": 125, "channel": 0}, {"type": "note_on", "time": 5, "note": 77, "velocity": 85, "channel": 0}, {"type": "note_off", "time": 35, "note": 77, "velocity": 85, "channel": 0}, {"type": "note_on", "time": 98, "note": 78, "velocity": 119, "channel": 0}, {"type": "note_off", "time": 82, "note": 78, "velocity": 119, "channel": 0}, {"type": "note_on", "time": 4, "note": 77, "velocity": 113, "channel": 0}, {"type": "note_off", "time": 26, "note": 77, "velocity": 113, "channel": 0}, {"type": "note_on", "time": 3, "note": 75, "velocity": 119, "channel": 0}, {"type": "note_off", "time": 81, "note": 75, "velocity": 119, "channel": 0}, {"type": "note_on", "time": 89, "note": 77, "velocity": 121, "channel": 0}, {"type": "note_off", "time": 124, "note": 77, "velocity": 121, "channel": 0}, {"type": "note_on", "time": 6, "note": 78, "velocity": 111, "channel": 0}, {"type": "note_off", "time": 49, "note": 78, "velocity": 111, "channel": 0}, {"type": "note_on", "time": 11, "note": 77, "velocity": 116, "channel": 0}, {"type": "note_off", "time": 43, "note": 77, "velocity": 116, "channel": 0}, {"type": "note_on", "time": 10, "note": 74, "velocity": 113, "channel": 0}, {"type": "note_off", "time": 45, "note": 74, "velocity": 113, "channel": 0}, {"type": "note_on", "time": 1, "note": 70, "velocity": 101, "channel": 0}, {"type": "note_off", "time": 52, "note": 70, "velocity": 101, "channel": 0}, {"type": "note_on", "time": 1, "note": 67, "velocity": 103, "channel": 0}, {"type": "note_off", "time": 71, "note": 67, "velocity": 103, "channel": 0}, {"type": "note_on", "time": 7, "note": 75, "velocity": 122, "channel": 0}, {"type": "note_off", "time": 48, "note": 75, "velocity": 122, "channel": 0}, {"type": "note_on", "time": 5, "note": 76, "velocity": 121, "channel": 0}, {"type": "note_off", "time": 48, "note": 76, "velocity": 121, "channel": 0}, {"type": "note_on", "time": 8, "note": 75, "velocity": 115, "channel": 0}, {"type": "note_off", "time": 73, "note": 75, "velocity": 115, "channel": 0}, {"type": "note_on", "time": 8, "note": 74, "velocity": 113, "channel": 0}, {"type": "note_off", "time": 104, "note": 74, "velocity": 113, "channel": 0}, {"type": "note_on", "time": 4, "note": 73, "velocity": 113, "channel": 0}, {"type": "note_off", "time": 55, "note": 73, "velocity": 113, "channel": 0}, {"type": "note_on", "time": 4, "note": 72, "velocity": 109, "channel": 0}, {"type": "note_off", "time": 34, "note": 72, "velocity": 109, "channel": 0}, {"type": "note_on", "time": 3, "note": 73, "velocity": 110, "channel": 0}, {"type": "note_off", "time": 34, "note": 73, "velocity": 110, "channel": 0}, {"type": "note_on", "time": 4, "note": 72, "velocity": 111, "channel": 0}, {"type": "note_off", "time": 45, "note": 72, "velocity": 111, "channel": 0}, {"type": "note_on", "time": 10, "note": 70, "velocity": 110, "channel": 0}, {"type": "note_off", "time": 69, "note": 70, "velocity": 110, "channel": 0}, {"type": "note_on", "time": 4, "note": 69, "velocity": 110, "channel": 0}, {"type": "note_off", "time": 115, "note": 69, "velocity": 110, "channel": 0}, {"type": "note_on", "time": 3, "note": 67, "velocity": 112, "channel": 0}, {"type": "note_off", "time": 68, "note": 67, "velocity": 112, "channel": 0}, {"type": "note_on", "time": 17, "note": 65, "velocity": 100, "channel": 0}, {"type": "note_off", "time": 82, "note": 65, "velocity": 100, "channel": 0}, {"type": "note_on", "time": 221, "note": 63, "velocity": 112, "channel": 0}, {"type": "note_off", "time": 74, "note": 63, "velocity": 112, "channel": 0}, {"type": "note_on", "time": 4, "note": 62, "velocity": 109, "channel": 0}, {"type": "note_off", "time": 110, "note": 62, "velocity": 109, "channel": 0}, {"type": "note_on", "time": 27, "note": 65, "velocity": 97, "channel": 0}, {"type": "note_off", "time": 41, "note": 65, "velocity": 97, "channel": 0}, {"type": "note_on", "time": 11, "note": 67, "velocity": 115, "channel": 0}, {"type": "note_off", "time": 125, "note": 67, "velocity": 115, "channel": 0}, {"type": "note_on", "time": 9, "note": 68, "velocity": 116, "channel": 0}, {"type": "note_off", "time": 242, "note": 68, "velocity": 116, "channel": 0}, {"type": "note_on", "time": 9, "note": 65, "velocity": 104, "channel": 0}, {"type": "note_off", "time": 89, "note": 65, "velocity": 104, "channel": 0}, {"type": "note_on", "time": 13, "note": 62, "velocity": 100, "channel": 0}, {"type": "note_off", "time": 74, "note": 62, "velocity": 100, "channel": 0}, {"type": "note_on", "time": 29, "note": 67, "velocity": 117, "channel": 0}, {"type": "note_off", "time": 41, "note": 67, "velocity": 117, "channel": 0}, {"type": "note_on", "time": 5, "note": 68, "velocity": 119, "channel": 0}, {"type": "note_off", "time": 37, "note": 68, "velocity": 119, "channel": 0}, {"type": "note_on", "time": 4, "note": 69, "velocity": 118, "channel": 0}, {"type": "note_off", "time": 60, "note": 69, "velocity": 118, "channel": 0}, {"type": "note_on", "time": 4, "note": 72, "velocity": 117, "channel": 0}, {"type": "note_off", "time": 50, "note": 72, "velocity": 117, "channel": 0}, {"type": "note_on", "time": 8, "note": 67, "velocity": 95, "channel": 0}, {"type": "note_off", "time": 295, "note": 67, "velocity": 95, "channel": 0}, {"type": "note_on", "time": 1017, "note": 65, "velocity": 116, "channel": 0}, {"type": "note_off", "time": 123, "note": 65, "velocity": 116, "channel": 0}, {"type": "note_on", "time": 4, "note": 64, "velocity": 114, "channel": 0}, {"type": "note_off", "time": 50, "note": 64, "velocity": 114, "channel": 0}, {"type": "note_on", "time": 1, "note": 63, "velocity": 104, "channel": 0}, {"type": "note_off", "time": 53, "note": 63, "velocity": 104, "channel": 0}, {"type": "note_on", "time": 8, "note": 67, "velocity": 109, "channel": 0}, {"type": "note_off", "time": 50, "note": 67, "velocity": 109, "channel": 0}, {"type": "note_on", "time": 7, "note": 70, "velocity": 111, "channel": 0}, {"type": "note_off", "time": 55, "note": 70, "velocity": 111, "channel": 0}, {"type": "note_on", "time": 0, "note": 74, "velocity": 119, "channel": 0}, {"type": "note_off", "time": 120, "note": 74, "velocity": 119, "channel": 0}, {"type": "note_on", "time": 0, "note": 78, "velocity": 117, "channel": 0}, {"type": "note_off", "time": 26, "note": 78, "velocity": 117, "channel": 0}, {"type": "note_on", "time": 3, "note": 77, "velocity": 121, "channel": 0}, {"type": "note_off", "time": 60, "note": 77, "velocity": 121, "channel": 0}, {"type": "note_on", "time": 1, "note": 73, "velocity": 124, "channel": 0}, {"type": "note_off", "time": 58, "note": 73, "velocity": 124, "channel": 0}, {"type": "note_on", "time": 4, "note": 74, "velocity": 110, "channel": 0}, {"type": "note_off", "time": 56, "note": 74, "velocity": 110, "channel": 0}, {"type": "note_on", "time": 1, "note": 69, "velocity": 84, "channel": 0}, {"type": "note_off", "time": 60, "note": 69, "velocity": 84, "channel": 0}, {"type": "note_on", "time": 1, "note": 72, "velocity": 120, "channel": 0}, {"type": "note_off", "time": 89, "note": 72, "velocity": 120, "channel": 0}, {"type": "note_on", "time": 3, "note": 74, "velocity": 104, "channel": 0}, {"type": "note_off", "time": 29, "note": 74, "velocity": 104, "channel": 0}, {"type": "note_on", "time": 0, "note": 72, "velocity": 117, "channel": 0}, {"type": "note_off", "time": 32, "note": 72, "velocity": 117, "channel": 0}, {"type": "note_on", "time": 0, "note": 70, "velocity": 110, "channel": 0}, {"type": "note_off", "time": 42, "note": 70, "velocity": 110, "channel": 0}, {"type": "note_on", "time": 8, "note": 69, "velocity": 120, "channel": 0}, {"type": "note_off", "time": 117, "note": 69, "velocity": 120, "channel": 0}, {"type": "note_on", "time": 382, "note": 67, "velocity": 115, "channel": 0}, {"type": "note_off", "time": 61, "note": 67, "velocity": 115, "channel": 0}, {"type": "note_on", "time": 3, "note": 65, "velocity": 107, "channel": 0}, {"type": "note_off", "time": 117, "note": 65, "velocity": 107, "channel": 0}, {"type": "note_on", "time": 12, "note": 63, "velocity": 111, "channel": 0}, {"type": "note_off", "time": 98, "note": 63, "velocity": 111, "channel": 0}, {"type": "note_on", "time": 6, "note": 62, "velocity": 107, "channel": 0}, {"type": "note_off", "time": 80, "note": 62, "velocity": 107, "channel": 0}, {"type": "note_on", "time": 41, "note": 53, "velocity": 87, "channel": 0}, {"type": "note_off", "time": 40, "note": 53, "velocity": 87, "channel": 0}, {"type": "note_on", "time": 9, "note": 55, "velocity": 89, "channel": 0}, {"type": "note_off", "time": 105, "note": 55, "velocity": 89, "channel": 0}, {"type": "note_on", "time": 11, "note": 57, "velocity": 91, "channel": 0}, {"type": "note_off", "time": 42, "note": 57, "velocity": 91, "channel": 0}, {"type": "note_on", "time": 9, "note": 60, "velocity": 101, "channel": 0}, {"type": "note_off", "time": 134, "note": 60, "velocity": 101, "channel": 0}, {"type": "note_on", "time": 13, "note": 58, "velocity": 82, "channel": 0}, {"type": "note_off", "time": 241, "note": 58, "velocity": 82, "channel": 0}, {"type": "note_on", "time": 721, "note": 58, "velocity": 104, "channel": 0}, {"type": "note_off", "time": 47, "note": 58, "velocity": 104, "channel": 0}, {"type": "note_on", "time": 10, "note": 59, "velocity": 100, "channel": 0}, {"type": "note_off", "time": 61, "note": 59, "velocity": 100, "channel": 0}, {"type": "note_on", "time": 10, "note": 62, "velocity": 100, "channel": 0}, {"type": "note_off", "time": 60, "note": 62, "velocity": 100, "channel": 0}, {"type": "note_on", "time": 2, "note": 71, "velocity": 103, "channel": 0}, {"type": "note_off", "time": 61, "note": 71, "velocity": 103, "channel": 0}, {"type": "note_on", "time": 11, "note": 69, "velocity": 119, "channel": 0}, {"type": "note_off", "time": 109, "note": 69, "velocity": 119, "channel": 0}, {"type": "note_on", "time": 38, "note": 64, "velocity": 101, "channel": 0}, {"type": "note_off", "time": 30, "note": 64, "velocity": 101, "channel": 0}, {"type": "note_on", "time": 10, "note": 65, "velocity": 104, "channel": 0}, {"type": "note_off", "time": 79, "note": 65, "velocity": 104, "channel": 0}, {"type": "note_on", "time": 5, "note": 69, "velocity": 117, "channel": 0}, {"type": "note_off", "time": 61, "note": 69, "velocity": 117, "channel": 0}, {"type": "note_on", "time": 1, "note": 72, "velocity": 121, "channel": 0}, {"type": "note_off", "time": 50, "note": 72, "velocity": 121, "channel": 0}, {"type": "note_on", "time": 2, "note": 76, "velocity": 126, "channel": 0}, {"type": "note_off", "time": 78, "note": 76, "velocity": 126, "channel": 0}, {"type": "note_on", "time": 3, "note": 75, "velocity": 122, "channel": 0}, {"type": "note_off", "time": 53, "note": 75, "velocity": 122, "channel": 0}, {"type": "note_on", "time": 20, "note": 74, "velocity": 123, "channel": 0}, {"type": "note_off", "time": 67, "note": 74, "velocity": 123, "channel": 0}, {"type": "note_on", "time": 3, "note": 73, "velocity": 116, "channel": 0}, {"type": "note_off", "time": 80, "note": 73, "velocity": 116, "channel": 0}, {"type": "note_on", "time": 4, "note": 69, "velocity": 116, "channel": 0}, {"type": "note_off", "time": 77, "note": 69, "velocity": 116, "channel": 0}, {"type": "note_on", "time": 7, "note": 65, "velocity": 104, "channel": 0}, {"type": "note_off", "time": 92, "note": 65, "velocity": 104, "channel": 0}, {"type": "note_on", "time": 5, "note": 61, "velocity": 87, "channel": 0}, {"type": "note_off", "time": 240, "note": 61, "velocity": 87, "channel": 0}, {"type": "note_on", "time": 220, "note": 67, "velocity": 110, "channel": 0}, {"type": "note_off", "time": 51, "note": 67, "velocity": 110, "channel": 0}, {"type": "note_on", "time": 2, "note": 70, "velocity": 93, "channel": 0}, {"type": "note_off", "time": 28, "note": 70, "velocity": 93, "channel": 0}, {"type": "note_on", "time": 3, "note": 74, "velocity": 113, "channel": 0}, {"type": "note_off", "time": 43, "note": 74, "velocity": 113, "channel": 0}, {"type": "note_on", "time": 3, "note": 78, "velocity": 119, "channel": 0}, {"type": "note_off", "time": 20, "note": 78, "velocity": 119, "channel": 0}, {"type": "note_on", "time": 2, "note": 77, "velocity": 124, "channel": 0}, {"type": "note_off", "time": 38, "note": 77, "velocity": 124, "channel": 0}, {"type": "note_on", "time": 4, "note": 76, "velocity": 116, "channel": 0}, {"type": "note_off", "time": 41, "note": 76, "velocity": 116, "channel": 0}, {"type": "note_on", "time": 3, "note": 72, "velocity": 112, "channel": 0}, {"type": "note_off", "time": 49, "note": 72, "velocity": 112, "channel": 0}, {"type": "note_on", "time": 4, "note": 73, "velocity": 110, "channel": 0}, {"type": "note_off", "time": 34, "note": 73, "velocity": 110, "channel": 0}, {"type": "note_on", "time": 8, "note": 74, "velocity": 120, "channel": 0}, {"type": "note_off", "time": 54, "note": 74, "velocity": 120, "channel": 0}, {"type": "note_on", "time": 1, "note": 70, "velocity": 104, "channel": 0}, {"type": "note_off", "time": 35, "note": 70, "velocity": 104, "channel": 0}, {"type": "note_on", "time": 2, "note": 69, "velocity": 87, "channel": 0}, {"type": "note_off", "time": 31, "note": 69, "velocity": 87, "channel": 0}, {"type": "note_on", "time": 6, "note": 72, "velocity": 116, "channel": 0}, {"type": "note_off", "time": 52, "note": 72, "velocity": 116, "channel": 0}, {"type": "note_on", "time": 9, "note": 69, "velocity": 89, "channel": 0}, {"type": "note_off", "time": 39, "note": 69, "velocity": 89, "channel": 0}, {"type": "note_on", "time": 3, "note": 70, "velocity": 115, "channel": 0}, {"type": "note_off", "time": 50, "note": 70, "velocity": 115, "channel": 0}, {"type": "note_on", "time": 5, "note": 69, "velocity": 113, "channel": 0}, {"type": "note_off", "time": 51, "note": 69, "velocity": 113, "channel": 0}, {"type": "note_on", "time": 1, "note": 67, "velocity": 108, "channel": 0}, {"type": "note_off", "time": 35, "note": 67, "velocity": 108, "channel": 0}, {"type": "note_on", "time": 63, "note": 66, "velocity": 110, "channel": 0}, {"type": "note_off", "time": 45, "note": 66, "velocity": 110, "channel": 0}, {"type": "note_on", "time": 4, "note": 69, "velocity": 112, "channel": 0}, {"type": "note_off", "time": 64, "note": 69, "velocity": 112, "channel": 0}, {"type": "note_on", "time": 2, "note": 67, "velocity": 107, "channel": 0}, {"type": "note_off", "time": 36, "note": 67, "velocity": 107, "channel": 0}, {"type": "note_on", "time": 3, "note": 65, "velocity": 102, "channel": 0}, {"type": "note_off", "time": 42, "note": 65, "velocity": 102, "channel": 0}, {"type": "note_on", "time": 2, "note": 64, "velocity": 106, "channel": 0}, {"type": "note_off", "time": 32, "note": 64, "velocity": 106, "channel": 0}, {"type": "note_on", "time": 23, "note": 60, "velocity": 87, "channel": 0}, {"type": "note_off", "time": 65, "note": 60, "velocity": 87, "channel": 0}, {"type": "note_on", "time": 5, "note": 62, "velocity": 104, "channel": 0}, {"type": "note_off", "time": 49, "note": 62, "velocity": 104, "channel": 0}, {"type": "note_on", "time": 30, "note": 58, "velocity": 94, "channel": 0}, {"type": "note_off", "time": 62, "note": 58, "velocity": 94, "channel": 0}, {"type": "note_on", "time": 8, "note": 60, "velocity": 98, "channel": 0}, {"type": "note_off", "time": 35, "note": 60, "velocity": 98, "channel": 0}, {"type": "note_on", "time": 2, "note": 58, "velocity": 96, "channel": 0}, {"type": "note_off", "time": 28, "note": 58, "velocity": 96, "channel": 0}, {"type": "note_on", "time": 10, "note": 57, "velocity": 99, "channel": 0}, {"type": "note_off", "time": 50, "note": 57, "velocity": 99, "channel": 0}, {"type": "note_on", "time": 7, "note": 60, "velocity": 92, "channel": 0}, {"type": "note_off", "time": 54, "note": 60, "velocity": 92, "channel": 0}, {"type": "note_on", "time": 7, "note": 62, "velocity": 100, "channel": 0}, {"type": "note_off", "time": 60, "note": 62, "velocity": 100, "channel": 0}, {"type": "note_on", "time": 6, "note": 64, "velocity": 108, "channel": 0}, {"type": "note_off", "time": 24, "note": 64, "velocity": 108, "channel": 0}, {"type": "note_on", "time": 3, "note": 67, "velocity": 101, "channel": 0}, {"type": "note_off", "time": 220, "note": 67, "velocity": 101, "channel": 0}, {"type": "note_on", "time": 144, "note": 64, "velocity": 108, "channel": 0}, {"type": "note_off", "time": 60, "note": 64, "velocity": 108, "channel": 0}, {"type": "note_on", "time": 5, "note": 65, "velocity": 111, "channel": 0}, {"type": "note_off", "time": 78, "note": 65, "velocity": 111, "channel": 0}, {"type": "note_on", "time": 2, "note": 69, "velocity": 116, "channel": 0}, {"type": "note_off", "time": 43, "note": 69, "velocity": 116, "channel": 0}, {"type": "note_on", "time": 2, "note": 72, "velocity": 120, "channel": 0}, {"type": "note_off", "time": 54, "note": 72, "velocity": 120, "channel": 0}, {"type": "note_on", "time": 10, "note": 75, "velocity": 118, "channel": 0}, {"type": "note_off", "time": 29, "note": 75, "velocity": 118, "channel": 0}, {"type": "note_on", "time": 4, "note": 76, "velocity": 122, "channel": 0}, {"type": "note_off", "time": 101, "note": 76, "velocity": 122, "channel": 0}, {"type": "note_on", "time": 4, "note": 74, "velocity": 109, "channel": 0}, {"type": "note_off", "time": 229, "note": 74, "velocity": 109, "channel": 0}, {"type": "note_on", "time": 351, "note": 72, "velocity": 127, "channel": 0}, {"type": "note_off", "time": 98, "note": 72, "velocity": 127, "channel": 0}, {"type": "note_on", "time": 5, "note": 73, "velocity": 118, "channel": 0}, {"type": "note_off", "time": 39, "note": 73, "velocity": 118, "channel": 0}, {"type": "note_on", "time": 7, "note": 72, "velocity": 117, "channel": 0}, {"type": "note_off", "time": 41, "note": 72, "velocity": 117, "channel": 0}, {"type": "note_on", "time": 6, "note": 70, "velocity": 106, "channel": 0}, {"type": "note_off", "time": 60, "note": 70, "velocity": 106, "channel": 0}, {"type": "note_on", "time": 8, "note": 69, "velocity": 121, "channel": 0}, {"type": "note_off", "time": 100, "note": 69, "velocity": 121, "channel": 0}, {"type": "note_on", "time": 6, "note": 67, "velocity": 110, "channel": 0}, {"type": "note_off", "time": 67, "note": 67, "velocity": 110, "channel": 0}, {"type": "note_on", "time": 10, "note": 66, "velocity": 109, "channel": 0}, {"type": "note_off", "time": 105, "note": 66, "velocity": 109, "channel": 0}, {"type": "note_on", "time": 4, "note": 63, "velocity": 106, "channel": 0}, {"type": "note_off", "time": 53, "note": 63, "velocity": 106, "channel": 0}, {"type": "note_on", "time": 36, "note": 60, "velocity": 89, "channel": 0}, {"type": "note_off", "time": 93, "note": 60, "velocity": 89, "channel": 0}, {"type": "note_on", "time": 8, "note": 61, "velocity": 104, "channel": 0}, {"type": "note_off", "time": 55, "note": 61, "velocity": 104, "channel": 0}, {"type": "note_on", "time": 1, "note": 62, "velocity": 104, "channel": 0}, {"type": "note_off", "time": 125, "note": 62, "velocity": 104, "channel": 0}, {"type": "note_on", "time": 6, "note": 67, "velocity": 108, "channel": 0}, {"type": "note_off", "time": 68, "note": 67, "velocity": 108, "channel": 0}, {"type": "note_on", "time": 9, "note": 70, "velocity": 108, "channel": 0}, {"type": "note_off", "time": 89, "note": 70, "velocity": 108, "channel": 0}, {"type": "note_on", "time": 13, "note": 74, "velocity": 115, "channel": 0}, {"type": "note_off", "time": 65, "note": 74, "velocity": 115, "channel": 0}, {"type": "note_on", "time": 3, "note": 69, "velocity": 115, "channel": 0}, {"type": "note_off", "time": 120, "note": 69, "velocity": 115, "channel": 0}, {"type": "note_on", "time": 11, "note": 67, "velocity": 93, "channel": 0}, {"type": "note_off", "time": 238, "note": 67, "velocity": 93, "channel": 0}, {"type": "note_on", "time": 167, "note": 62, "velocity": 108, "channel": 0}, {"type": "note_off", "time": 66, "note": 62, "velocity": 108, "channel": 0}, {"type": "note_on", "time": 8, "note": 63, "velocity": 95, "channel": 0}, {"type": "note_off", "time": 53, "note": 63, "velocity": 95, "channel": 0}, {"type": "note_on", "time": 3, "note": 67, "velocity": 102, "channel": 0}, {"type": "note_off", "time": 53, "note": 67, "velocity": 102, "channel": 0}, {"type": "note_on", "time": 8, "note": 69, "velocity": 111, "channel": 0}, {"type": "note_off", "time": 52, "note": 69, "velocity": 111, "channel": 0}, {"type": "note_on", "time": 25, "note": 74, "velocity": 118, "channel": 0}, {"type": "note_off", "time": 108, "note": 74, "velocity": 118, "channel": 0}, {"type": "note_on", "time": 5, "note": 73, "velocity": 109, "channel": 0}, {"type": "note_off", "time": 87, "note": 73, "velocity": 109, "channel": 0}, {"type": "note_on", "time": 6, "note": 72, "velocity": 110, "channel": 0}, {"type": "note_off", "time": 92, "note": 72, "velocity": 110, "channel": 0}, {"type": "note_on", "time": 4, "note": 71, "velocity": 109, "channel": 0}, {"type": "note_off", "time": 56, "note": 71, "velocity": 109, "channel": 0}, {"type": "note_on", "time": 7, "note": 70, "velocity": 106, "channel": 0}, {"type": "note_off", "time": 105, "note": 70, "velocity": 106, "channel": 0}, {"type": "note_on", "time": 54, "note": 62, "velocity": 94, "channel": 0}, {"type": "note_off", "time": 34, "note": 62, "velocity": 94, "channel": 0}, {"type": "note_on", "time": 8, "note": 65, "velocity": 105, "channel": 0}, {"type": "note_off", "time": 76, "note": 65, "velocity": 105, "channel": 0}, {"type": "note_on", "time": 30, "note": 69, "velocity": 117, "channel": 0}, {"type": "note_off", "time": 69, "note": 69, "velocity": 117, "channel": 0}, {"type": "note_on", "time": 8, "note": 67, "velocity": 108, "channel": 0}, {"type": "note_off", "time": 38, "note": 67, "velocity": 108, "channel": 0}, {"type": "note_on", "time": 3, "note": 68, "velocity": 107, "channel": 0}, {"type": "note_off", "time": 62, "note": 68, "velocity": 107, "channel": 0}, {"type": "note_on", "time": 8, "note": 64, "velocity": 107, "channel": 0}, {"type": "note_off", "time": 36, "note": 64, "velocity": 107, "channel": 0}, {"type": "note_on", "time": 2, "note": 62, "velocity": 107, "channel": 0}, {"type": "note_off", "time": 43, "note": 62, "velocity": 107, "channel": 0}, {"type": "note_on", "time": 9, "note": 60, "velocity": 93, "channel": 0}, {"type": "note_off", "time": 87, "note": 60, "velocity": 93, "channel": 0}, {"type": "note_on", "time": 13, "note": 58, "velocity": 98, "channel": 0}, {"type": "note_off", "time": 69, "note": 58, "velocity": 98, "channel": 0}, {"type": "note_on", "time": 8, "note": 57, "velocity": 90, "channel": 0}, {"type": "note_off", "time": 126, "note": 57, "velocity": 90, "channel": 0}, {"type": "note_on", "time": 3, "note": 60, "velocity": 95, "channel": 0}, {"type": "note_off", "time": 65, "note": 60, "velocity": 95, "channel": 0}, {"type": "note_on", "time": 19, "note": 62, "velocity": 104, "channel": 0}, {"type": "note_off", "time": 104, "note": 62, "velocity": 104, "channel": 0}, {"type": "note_on", "time": 8, "note": 65, "velocity": 98, "channel": 0}, {"type": "note_off", "time": 273, "note": 65, "velocity": 98, "channel": 0}, {"type": "end_of_track", "time": 0}]]}