{"ticks_per_beat": 192, "tracks": [[{"type": "track_name", "name": "Melody", "time": 0}, {"type": "set_tempo", "tempo": 208333, "time": 0}, {"type": "key_signature", "key": "F", "time": 0}, {"type": "time_signature", "numerator": 4, "denominator": 4, "clocks_per_click": 24, "notated_32nd_notes_per_beat": 8, "time": 0}, {"type": "note_on", "time": 6234, "note": 74, "velocity": 103, "channel": 0}, {"type": "note_off", "time": 78, "note": 74, "velocity": 103, "channel": 0}, {"type": "note_on", "time": 111, "note": 74, "velocity": 99, "channel": 0}, {"type": "note_off", "time": 180, "note": 74, "velocity": 99, "channel": 0}, {"type": "note_on", "time": 10, "note": 71, "velocity": 103, "channel": 0}, {"type": "note_off", "time": 84, "note": 71, "velocity": 103, "channel": 0}, {"type": "note_on", "time": 139, "note": 71, "velocity": 110, "channel": 0}, {"type": "note_off", "time": 167, "note": 71, "velocity": 110, "channel": 0}, {"type": "note_on", "time": 3, "note": 68, "velocity": 107, "channel": 0}, {"type": "note_off", "time": 97, "note": 68, "velocity": 107, "channel": 0}, {"type": "note_on", "time": 111, "note": 68, "velocity": 100, "channel": 0}, {"type": "note_off", "time": 154, "note": 68, "velocity": 100, "channel": 0}, {"type": "note_on", "time": 48, "note": 65, "velocity": 98, "channel": 0}, {"type": "note_off", "time": 124, "note": 65, "velocity": 98, "channel": 0}, {"type": "note_on", "time": 81, "note": 65, "velocity": 103, "channel": 0}, {"type": "note_off", "time": 165, "note": 65, "velocity": 103, "channel": 0}, {"type": "note_on", "time": 6, "note": 62, "velocity": 98, "channel": 0}, {"type": "note_off", "time": 110, "note": 62, "velocity": 98, "channel": 0}, {"type": "note_on", "time": 101, "note": 62, "velocity": 102, "channel": 0}, {"type": "note_off", "time": 167, "note": 62, "velocity": 102, "channel": 0}, {"type": "note_on", "time": 50, "note": 65, "velocity": 95, "channel": 0}, {"type": "note_off", "time": 99, "note": 65, "velocity": 95, "channel": 0}, {"type": "note_on", "time": 71, "note": 65, "velocity": 98, "channel": 0}, {"type": "note_off", "time": 165, "note": 65, "velocity": 98, "channel": 0}, {"type": "note_on", "time": 20, "note": 67, "velocity": 106, "channel": 0}, {"type": "note_off", "time": 78, "note": 67, "velocity": 106, "channel": 0}, {"type": "note_on", "time": 113, "note": 67, "velocity": 100, "channel": 0}, {"type": "note_off", "time": 157, "note": 67, "velocity": 100, "channel": 0}, {"type": "note_on", "time": 21, "note": 68, "velocity": 104, "channel": 0}, {"type": "note_off", "time": 208, "note": 68, "velocity": 104, "channel": 0}, {"type": "note_on", "time": 54, "note": 65, "velocity": 112, "channel": 0}, {"type": "note_off", "time": 69, "note": 65, "velocity": 112, "channel": 0}, {"type": "note_on", "time": 42, "note": 61, "velocity": 109, "channel": 0}, {"type": "note_off", "time": 53, "note": 61, "velocity": 109, "channel": 0}, {"type": "note_on", "time": 14, "note": 58, "velocity": 103, "channel": 0}, {"type": "note_off", "time": 69, "note": 58, "velocity": 103, "channel": 0}, {"type": "note_on", "time": 23, "note": 55, "velocity": 102, "channel": 0}, {"type": "note_off", "time": 101, "note": 55, "velocity": 102, "channel": 0}, {"type": "note_on", "time": 128, "note": 72, "velocity": 103, "channel": 0}, {"type": "note_off", "time": 262, "note": 72, "velocity": 103, "channel": 0}, {"type": "note_on", "time": 11, "note": 70, "velocity": 111, "channel": 0}, {"type": "note_off", "time": 69, "note": 70, "velocity": 111, "channel": 0}, {"type": "note_on", "time": 13, "note": 69, "velocity": 115, "channel": 0}, {"type": "note_off", "time": 74, "note": 69, "velocity": 115, "channel": 0}, {"type": "note_on", "time": 24, "note": 67, "velocity": 112, "channel": 0}, {"type": "note_off", "time": 53, "note": 67, "velocity": 112, "channel": 0}, {"type": "note_on", "time": 34, "note": 66, "velocity": 113, "channel": 0}, {"type": "note_off", "time": 74, "note": 66, "velocity": 113, "channel": 0}, {"type": "note_on", "time": 10, "note": 65, "velocity": 109, "channel": 0}, {"type": "note_off", "time": 98, "note": 65, "velocity": 109, "channel": 0}, {"type": "note_on", "time": 36, "note": 60, "velocity": 104, "channel": 0}, {"type": "note_off", "time": 54, "note": 60, "velocity": 104, "channel": 0}, {"type": "note_on", "time": 28, "note": 57, "velocity": 104, "channel": 0}, {"type": "note_off", "time": 58, "note": 57, "velocity": 104, "channel": 0}, {"type": "note_on", "time": 24, "note": 55, "velocity": 104, "channel": 0}, {"type": "note_off", "time": 78, "note": 55, "velocity": 104, "channel": 0}, {"type": "note_on", "time": 101, "note": 63, "velocity": 116, "channel": 0}, {"type": "note_off", "time": 102, "note": 63, "velocity": 116, "channel": 0}, {"type": "note_on", "time": 8, "note": 62, "velocity": 106, "channel": 0}, {"type": "note_off", "time": 67, "note": 62, "velocity": 106, "channel": 0}, {"type": "note_on", "time": 16, "note": 60, "velocity": 110, "channel": 0}, {"type": "note_off", "time": 70, "note": 60, "velocity": 110, "channel": 0}, {"type": "note_on", "time": 13, "note": 59, "velocity": 115, "channel": 0}, {"type": "note_off", "time": 92, "note": 59, "velocity": 115, "channel": 0}, {"type": "note_on", "time": 50, "note": 62, "velocity": 108, "channel": 0}, {"type": "note_off", "time": 65, "note": 62, "velocity": 108, "channel": 0}, {"type": "note_on", "time": 5, "note": 65, "velocity": 107, "channel": 0}, {"type": "note_off", "time": 50, "note": 65, "velocity": 107, "channel": 0}, {"type": "note_on", "time": 22, "note": 69, "velocity": 107, "channel": 0}, {"type": "note_off", "time": 71, "note": 69, "velocity": 107, "channel": 0}, {"type": "note_on", "time": 14, "note": 68, "velocity": 108, "channel": 0}, {"type": "note_off", "time": 58, "note": 68, "velocity": 108, "channel": 0}, {"type": "note_on", "time": 26, "note": 63, "velocity": 99, "channel": 0}, {"type": "note_off", "time": 86, "note": 63, "velocity": 99, "channel": 0}, {"type": "note_on", "time": 5, "note": 64, "velocity": 100, "channel": 0}, {"type": "note_off", "time": 99, "note": 64, "velocity": 100, "channel": 0}, {"type": "note_on", "time": 46, "note": 67, "velocity": 102, "channel": 0}, {"type": "note_off", "time": 55, "note": 67, "velocity": 102, "channel": 0}, {"type": "note_on", "time": 11, "note": 65, "velocity": 104, "channel": 0}, {"type": "note_off", "time": 75, "note": 65, "velocity": 104, "channel": 0}, {"type": "note_on", "time": 34, "note": 62, "velocity": 101, "channel": 0}, {"type": "note_off", "time": 212, "note": 62, "velocity": 101, "channel": 0}, {"type": "note_on", "time": 561, "note": 62, "velocity": 116, "channel": 0}, {"type": "note_off", "time": 69, "note": 62, "velocity": 116, "channel": 0}, {"type": "note_on", "time": 0, "note": 65, "velocity": 113, "channel": 0}, {"type": "note_off", "time": 48, "note": 65, "velocity": 113, "channel": 0}, {"type": "note_on", "time": 19, "note": 66, "velocity": 104, "channel": 0}, {"type": "note_off", "time": 36, "note": 66, "velocity": 104, "channel": 0}, {"type": "note_on", "time": 12, "note": 65, "velocity": 115, "channel": 0}, {"type": "note_off", "time": 52, "note": 65, "velocity": 115, "channel": 0}, {"type": "note_on", "time": 14, "note": 62, "velocity": 118, "channel": 0}, {"type": "note_off", "time": 88, "note": 62, "velocity": 118, "channel": 0}, {"type": "note_on", "time": 22, "note": 60, "velocity": 114, "channel": 0}, {"type": "note_off", "time": 65, "note": 60, "velocity": 114, "channel": 0}, {"type": "note_on", "time": 33, "note": 57, "velocity": 101, "channel": 0}, {"type": "note_off", "time": 63, "note": 57, "velocity": 101, "channel": 0}, {"type": "note_on", "time": 47, "note": 53, "velocity": 106, "channel": 0}, {"type": "note_off", "time": 73, "note": 53, "velocity": 106, "channel": 0}, {"type": "note_on", "time": 6, "note": 65, "velocity": 102, "channel": 0}, {"type": "note_off", "time": 265, "note": 65, "velocity": 102, "channel": 0}, {"type": "note_on", "time": 39, "note": 62, "velocity": 118, "channel": 0}, {"type": "note_off", "time": 69, "note": 62, "velocity": 118, "channel": 0}, {"type": "note_on", "time": 530, "note": 62, "velocity": 112, "channel": 0}, {"type": "note_off", "time": 65, "note": 62, "velocity": 112, "channel": 0}, {"type": "note_on", "time": 26, "note": 67, "velocity": 111, "channel": 0}, {"type": "note_off", "time": 80, "note": 67, "velocity": 111, "channel": 0}, {"type": "note_on", "time": 30, "note": 67, "velocity": 114, "channel": 0}, {"type": "note_off", "time": 58, "note": 67, "velocity": 114, "channel": 0}, {"type": "note_on", "time": 15, "note": 65, "velocity": 109, "channel": 0}, {"type": "note_off", "time": 82, "note": 65, "velocity": 109, "channel": 0}, {"type": "note_on", "time": 31, "note": 62, "velocity": 108, "channel": 0}, {"type": "note_off", "time": 69, "note": 62, "velocity": 108, "channel": 0}, {"type": "note_on", "time": 39, "note": 58, "velocity": 105, "channel": 0}, {"type": "note_off", "time": 69, "note": 58, "velocity": 105, "channel": 0}, {"type": "note_on", "time": 84, "note": 64, "velocity": 114, "channel": 0}, {"type": "note_off", "time": 97, "note": 64, "velocity": 114, "channel": 0}, {"type": "note_on", "time": 24, "note": 65, "velocity": 107, "channel": 0}, {"type": "note_off", "time": 250, "note": 65, "velocity": 107, "channel": 0}, {"type": "note_on", "time": 28, "note": 62, "velocity": 113, "channel": 0}, {"type": "note_off", "time": 80, "note": 62, "velocity": 113, "channel": 0}, {"type": "note_on", "time": 26, "note": 64, "velocity": 114, "channel": 0}, {"type": "note_off", "time": 122, "note": 64, "velocity": 114, "channel": 0}, {"type": "note_on", "time": 69, "note": 67, "velocity": 113, "channel": 0}, {"type": "note_off", "time": 62, "note": 67, "velocity": 113, "channel": 0}, {"type": "note_on", "time": 54, "note": 69, "velocity": 113, "channel": 0}, {"type": "note_off", "time": 110, "note": 69, "velocity": 113, "channel": 0}, {"type": "note_on", "time": 16, "note": 69, "velocity": 96, "channel": 0}, {"type": "note_off", "time": 67, "note": 69, "velocity": 96, "channel": 0}, {"type": "note_on", "time": 78, "note": 69, "velocity": 94, "channel": 0}, {"type": "note_off", "time": 336, "note": 69, "velocity": 94, "channel": 0}, {"type": "note_on", "time": 57, "note": 60, "velocity": 102, "channel": 0}, {"type": "note_off", "time": 76, "note": 60, "velocity": 102, "channel": 0}, {"type": "note_on", "time": 144, "note": 60, "velocity": 98, "channel": 0}, {"type": "note_off", "time": 65, "note": 60, "velocity": 98, "channel": 0}, {"type": "note_on", "time": 84, "note": 64, "velocity": 114, "channel": 0}, {"type": "note_off", "time": 75, "note": 64, "velocity": 114, "channel": 0}, {"type": "note_on", "time": 9, "note": 67, "velocity": 117, "channel": 0}, {"type": "note_off", "time": 67, "note": 67, "velocity": 117, "channel": 0}, {"type": "note_on", "time": 35, "note": 65, "velocity": 112, "channel": 0}, {"type": "note_off", "time": 71, "note": 65, "velocity": 112, "channel": 0}, {"type": "note_on", "time": 24, "note": 64, "velocity": 111, "channel": 0}, {"type": "note_off", "time": 80, "note": 64, "velocity": 111, "channel": 0}, {"type": "note_on", "time": 15, "note": 67, "velocity": 113, "channel": 0}, {"type": "note_off", "time": 73, "note": 67, "velocity": 113, "channel": 0}, {"type": "note_on", "time": 26, "note": 65, "velocity": 106, "channel": 0}, {"type": "note_off", "time": 65, "note": 65, "velocity": 106, "channel": 0}, {"type": "note_on", "time": 55, "note": 61, "velocity": 109, "channel": 0}, {"type": "note_off", "time": 65, "note": 61, "velocity": 109, "channel": 0}, {"type": "note_on", "time": 19, "note": 58, "velocity": 107, "channel": 0}, {"type": "note_off", "time": 109, "note": 58, "velocity": 107, "channel": 0}, {"type": "note_on", "time": 15, "note": 53, "velocity": 106, "channel": 0}, {"type": "note_off", "time": 50, "note": 53, "velocity": 106, "channel": 0}, {"type": "note_on", "time": 22, "note": 57, "velocity": 105, "channel": 0}, {"type": "note_off", "time": 71, "note": 57, "velocity": 105, "channel": 0}, {"type": "note_on", "time": 26, "note": 53, "velocity": 108, "channel": 0}, {"type": "note_off", "time": 62, "note": 53, "velocity": 108, "channel": 0}, {"type": "note_on", "time": 50, "note": 58, "velocity": 104, "channel": 0}, {"type": "note_off", "time": 75, "note": 58, "velocity": 104, "channel": 0}, {"type": "note_on", "time": 18, "note": 59, "velocity": 110, "channel": 0}, {"type": "note_off", "time": 67, "note": 59, "velocity": 110, "channel": 0}, {"type": "note_on", "time": 16, "note": 60, "velocity": 104, "channel": 0}, {"type": "note_off", "time": 69, "note": 60, "velocity": 104, "channel": 0}, {"type": "note_on", "time": 20, "note": 65, "velocity": 108, "channel": 0}, {"type": "note_off", "time": 65, "note": 65, "velocity": 108, "channel": 0}, {"type": "note_on", "time": 26, "note": 64, "velocity": 107, "channel": 0}, {"type": "note_off", "time": 88, "note": 64, "velocity": 107, "channel": 0}, {"type": "note_on", "time": 13, "note": 62, "velocity": 116, "channel": 0}, {"type": "note_off", "time": 75, "note": 62, "velocity": 116, "channel": 0}, {"type": "note_on", "time": 5, "note": 63, "velocity": 119, "channel": 0}, {"type": "note_off", "time": 118, "note": 63, "velocity": 119, "channel": 0}, {"type": "note_on", "time": 18, "note": 55, "velocity": 105, "channel": 0}, {"type": "note_off", "time": 53, "note": 55, "velocity": 105, "channel": 0}, {"type": "note_on", "time": 4, "note": 58, "velocity": 104, "channel": 0}, {"type": "note_off", "time": 126, "note": 58, "velocity": 104, "channel": 0}, {"type": "note_on", "time": 26, "note": 60, "velocity": 101, "channel": 0}, {"type": "note_off", "time": 64, "note": 60, "velocity": 101, "channel": 0}, {"type": "note_on", "time": 14, "note": 62, "velocity": 119, "channel": 0}, {"type": "note_off", "time": 78, "note": 62, "velocity": 119, "channel": 0}, {"type": "note_on", "time": 15, "note": 63, "velocity": 118, "channel": 0}, {"type": "note_off", "time": 71, "note": 63, "velocity": 118, "channel": 0}, {"type": "note_on", "time": 15, "note": 62, "velocity": 111, "channel": 0}, {"type": "note_off", "time": 94, "note": 62, "velocity": 111, "channel": 0}, {"type": "note_on", "time": 18, "note": 60, "velocity": 116, "channel": 0}, {"type": "note_off", "time": 75, "note": 60, "velocity": 116, "channel": 0}, {"type": "note_on", "time": 18, "note": 59, "velocity": 111, "channel": 0}, {"type": "note_off", "time": 62, "note": 59, "velocity": 111, "channel": 0}, {"type": "note_on", "time": 45, "note": 57, "velocity": 108, "channel": 0}, {"type": "note_off", "time": 48, "note": 57, "velocity": 108, "channel": 0}, {"type": "note_on", "time": 13, "note": 56, "velocity": 107, "channel": 0}, {"type": "note_off", "time": 77, "note": 56, "velocity": 107, "channel": 0}, {"type": "note_on", "time": 54, "note": 54, "velocity": 113, "channel": 0}, {"type": "note_off", "time": 89, "note": 54, "velocity": 113, "channel": 0}, {"type": "note_on", "time": 19, "note": 53, "velocity": 97, "channel": 0}, {"type": "note_off", "time": 71, "note": 53, "velocity": 97, "channel": 0}, {"type": "note_on", "time": 22, "note": 55, "velocity": 103, "channel": 0}, {"type": "note_off", "time": 57, "note": 55, "velocity": 103, "channel": 0}, {"type": "note_on", "time": 5, "note": 58, "velocity": 114, "channel": 0}, {"type": "note_off", "time": 71, "note": 58, "velocity": 114, "channel": 0}, {"type": "note_on", "time": 30, "note": 62, "velocity": 108, "channel": 0}, {"type": "note_off", "time": 77, "note": 62, "velocity": 108, "channel": 0}, {"type": "note_on", "time": 31, "note": 57, "velocity": 104, "channel": 0}, {"type": "note_off", "time": 84, "note": 57, "velocity": 104, "channel": 0}, {"type": "note_on", "time": 13, "note": 60, "velocity": 111, "channel": 0}, {"type": "note_off", "time": 67, "note": 60, "velocity": 111, "channel": 0}, {"type": "note_on", "time": 26, "note": 63, "velocity": 109, "channel": 0}, {"type": "note_off", "time": 75, "note": 63, "velocity": 109, "channel": 0}, {"type": "note_on", "time": 20, "note": 67, "velocity": 104, "channel": 0}, {"type": "note_off", "time": 97, "note": 67, "velocity": 104, "channel": 0}, {"type": "note_on", "time": 13, "note": 65, "velocity": 91, "channel": 0}, {"type": "note_off", "time": 94, "note": 65, "velocity": 91, "channel": 0}, {"type": "note_on", "time": 874, "note": 71, "velocity": 109, "channel": 0}, {"type": "note_off", "time": 78, "note": 71, "velocity": 109, "channel": 0}, {"type": "note_on", "time": 11, "note": 72, "velocity": 107, "channel": 0}, {"type": "note_off", "time": 31, "note": 72, "velocity": 107, "channel": 0}, {"type": "note_on", "time": 16, "note": 71, "velocity": 110, "channel": 0}, {"type": "note_off", "time": 65, "note": 71, "velocity": 110, "channel": 0}, {"type": "note_on", "time": 15, "note": 70, "velocity": 107, "channel": 0}, {"type": "note_off", "time": 39, "note": 70, "velocity": 107, "channel": 0}, {"type": "note_on", "time": 36, "note": 68, "velocity": 113, "channel": 0}, {"type": "note_off", "time": 97, "note": 68, "velocity": 113, "channel": 0}, {"type": "note_on", "time": 2, "note": 67, "velocity": 105, "channel": 0}, {"type": "note_off", "time": 81, "note": 67, "velocity": 105, "channel": 0}, {"type": "note_on", "time": 4, "note": 66, "velocity": 106, "channel": 0}, {"type": "note_off", "time": 99, "note": 66, "velocity": 106, "channel": 0}, {"type": "note_on", "time": 8, "note": 65, "velocity": 107, "channel": 0}, {"type": "note_off", "time": 72, "note": 65, "velocity": 107, "channel": 0}, {"type": "note_on", "time": 7, "note": 63, "velocity": 114, "channel": 0}, {"type": "note_off", "time": 78, "note": 63, "velocity": 114, "channel": 0}, {"type": "note_on", "time": 10, "note": 61, "velocity": 94, "channel": 0}, {"type": "note_off", "time": 98, "note": 61, "velocity": 94, "channel": 0}, {"type": "note_on", "time": 9, "note": 60, "velocity": 107, "channel": 0}, {"type": "note_off", "time": 89, "note": 60, "velocity": 107, "channel": 0}, {"type": "note_on", "time": 15, "note": 58, "velocity": 104, "channel": 0}, {"type": "note_off", "time": 77, "note": 58, "velocity": 104, "channel": 0}, {"type": "note_on", "time": 10, "note": 60, "velocity": 108, "channel": 0}, {"type": "note_off", "time": 67, "note": 60, "velocity": 108, "channel": 0}, {"type": "note_on", "time": 18, "note": 61, "velocity": 99, "channel": 0}, {"type": "note_off", "time": 84, "note": 61, "velocity": 99, "channel": 0}, {"type": "note_on", "time": 30, "note": 62, "velocity": 110, "channel": 0}, {"type": "note_off", "time": 65, "note": 62, "velocity": 110, "channel": 0}, {"type": "note_on", "time": 30, "note": 63, "velocity": 116, "channel": 0}, {"type": "note_off", "time": 78, "note": 63, "velocity": 116, "channel": 0}, {"type": "note_on", "time": 31, "note": 60, "velocity": 103, "channel": 0}, {"type": "note_off", "time": 71, "note": 60, "velocity": 103, "channel": 0}, {"type": "note_on", "time": 8, "note": 55, "velocity": 95, "channel": 0}, {"type": "note_off", "time": 86, "note": 55, "velocity": 95, "channel": 0}, {"type": "note_on", "time": 5, "note": 51, "velocity": 98, "channel": 0}, {"type": "note_off", "time": 69, "note": 51, "velocity": 98, "channel": 0}, {"type": "note_on", "time": 11, "note": 54, "velocity": 98, "channel": 0}, {"type": "note_off", "time": 94, "note": 54, "velocity": 98, "channel": 0}, {"type": "note_on", "time": 33, "note": 63, "velocity": 115, "channel": 0}, {"type": "note_off", "time": 82, "note": 63, "velocity": 115, "channel": 0}, {"type": "note_on", "time": 16, "note": 62, "velocity": 100, "channel": 0}, {"type": "note_off", "time": 73, "note": 62, "velocity": 100, "channel": 0}, {"type": "note_on", "time": 30, "note": 60, "velocity": 107, "channel": 0}, {"type": "note_off", "time": 43, "note": 60, "velocity": 107, "channel": 0}, {"type": "note_on", "time": 13, "note": 61, "velocity": 99, "channel": 0}, {"type": "note_off", "time": 92, "note": 61, "velocity": 99, "channel": 0}, {"type": "note_on", "time": 58, "note": 53, "velocity": 92, "channel": 0}, {"type": "note_off", "time": 169, "note": 53, "velocity": 92, "channel": 0}, {"type": "note_on", "time": 17, "note": 51, "velocity": 100, "channel": 0}, {"type": "note_off", "time": 78, "note": 51, "velocity": 100, "channel": 0}, {"type": "note_on", "time": 6, "note": 52, "velocity": 103, "channel": 0}, {"type": "note_off", "time": 107, "note": 52, "velocity": 103, "channel": 0}, {"type": "note_on", "time": 14, "note": 59, "velocity": 100, "channel": 0}, {"type": "note_off", "time": 86, "note": 59, "velocity": 100, "channel": 0}, {"type": "note_on", "time": 11, "note": 60, "velocity": 100, "channel": 0}, {"type": "note_off", "time": 547, "note": 60, "velocity": 100, "channel": 0}, {"type": "note_on", "time": 291, "note": 55, "velocity": 94, "channel": 0}, {"type": "note_off", "time": 82, "note": 55, "velocity": 94, "channel": 0}, {"type": "note_on", "time": 10, "note": 57, "velocity": 96, "channel": 0}, {"type": "note_off", "time": 111, "note": 57, "velocity": 96, "channel": 0}, {"type": "note_on", "time": 8, "note": 60, "velocity": 106, "channel": 0}, {"type": "note_off", "time": 47, "note": 60, "velocity": 106, "channel": 0}, {"type": "note_on", "time": 22, "note": 62, "velocity": 111, "channel": 0}, {"type": "note_off", "time": 77, "note": 62, "velocity": 111, "channel": 0}, {"type": "note_on", "time": 20, "note": 65, "velocity": 98, "channel": 0}, {"type": "note_off", "time": 197, "note": 65, "velocity": 98, "channel": 0}, {"type": "note_on", "time": 880, "note": 67, "velocity": 117, "channel": 0}, {"type": "note_off", "time": 107, "note": 67, "velocity": 117, "channel": 0}, {"type": "note_on", "time": 15, "note": 66, "velocity": 113, "channel": 0}, {"type": "note_off", "time": 65, "note": 66, "velocity": 113, "channel": 0}, {"type": "note_on", "time": 18, "note": 65, "velocity": 113, "channel": 0}, {"type": "note_off", "time": 67, "note": 65, "velocity": 113, "channel": 0}, {"type": "note_on", "time": 24, "note": 62, "velocity": 110, "channel": 0}, {"type": "note_off", "time": 108, "note": 62, "velocity": 110, "channel": 0}, {"type": "note_on", "time": 5, "note": 59, "velocity": 96, "channel": 0}, {"type": "note_off", "time": 392, "note": 59, "velocity": 96, "channel": 0}, {"type": "note_on", "time": 948, "note": 67, "velocity": 108, "channel": 0}, {"type": "note_off", "time": 109, "note": 67, "velocity": 108, "channel": 0}, {"type": "note_on", "time": 15, "note": 69, "velocity": 103, "channel": 0}, {"type": "note_off", "time": 129, "note": 69, "velocity": 103, "channel": 0}, {"type": "note_on", "time": 71, "note": 65, "velocity": 111, "channel": 0}, {"type": "note_off", "time": 48, "note": 65, "velocity": 111, "channel": 0}, {"type": "note_on", "time": 9, "note": 62, "velocity": 118, "channel": 0}, {"type": "note_off", "time": 88, "note": 62, "velocity": 118, "channel": 0}, {"type": "note_on", "time": 35, "note": 60, "velocity": 108, "channel": 0}, {"type": "note_off", "time": 78, "note": 60, "velocity": 108, "channel": 0}, {"type": "note_on", "time": 663, "note": 60, "velocity": 115, "channel": 0}, {"type": "note_off", "time": 86, "note": 60, "velocity": 115, "channel": 0}, {"type": "note_on", "time": 46, "note": 62, "velocity": 99, "channel": 0}, {"type": "note_off", "time": 67, "note": 62, "velocity": 99, "channel": 0}, {"type": "note_on", "time": 25, "note": 65, "velocity": 109, "channel": 0}, {"type": "note_off", "time": 80, "note": 65, "velocity": 109, "channel": 0}, {"type": "note_on", "time": 9, "note": 69, "velocity": 108, "channel": 0}, {"type": "note_off", "time": 103, "note": 69, "velocity": 108, "channel": 0}, {"type": "note_on", "time": 400, "note": 60, "velocity": 99, "channel": 0}, {"type": "note_off", "time": 73, "note": 60, "velocity": 99, "channel": 0}, {"type": "note_on", "time": 26, "note": 62, "velocity": 108, "channel": 0}, {"type": "note_off", "time": 86, "note": 62, "velocity": 108, "channel": 0}, {"type": "note_on", "time": 15, "note": 65, "velocity": 114, "channel": 0}, {"type": "note_off", "time": 65, "note": 65, "velocity": 114, "channel": 0}, {"type": "note_on", "time": 28, "note": 70, "velocity": 112, "channel": 0}, {"type": "note_off", "time": 84, "note": 70, "velocity": 112, "channel": 0}, {"type": "note_on", "time": 31, "note": 60, "velocity": 104, "channel": 0}, {"type": "note_off", "time": 43, "note": 60, "velocity": 104, "channel": 0}, {"type": "note_on", "time": 35, "note": 62, "velocity": 109, "channel": 0}, {"type": "note_off", "time": 90, "note": 62, "velocity": 109, "channel": 0}, {"type": "note_on", "time": 15, "note": 65, "velocity": 105, "channel": 0}, {"type": "note_off", "time": 59, "note": 65, "velocity": 105, "channel": 0}, {"type": "note_on", "time": 18, "note": 71, "velocity": 116, "channel": 0}, {"type": "note_off", "time": 118, "note": 71, "velocity": 116, "channel": 0}, {"type": "note_on", "time": 18, "note": 60, "velocity": 111, "channel": 0}, {"type": "note_off", "time": 39, "note": 60, "velocity": 111, "channel": 0}, {"type": "note_on", "time": 20, "note": 62, "velocity": 99, "channel": 0}, {"type": "note_off", "time": 77, "note": 62, "velocity": 99, "channel": 0}, {"type": "note_on", "time": 33, "note": 65, "velocity": 99, "channel": 0}, {"type": "note_off", "time": 47, "note": 65, "velocity": 99, "channel": 0}, {"type": "note_on", "time": 37, "note": 72, "velocity": 109, "channel": 0}, {"type": "note_off", "time": 141, "note": 72, "velocity": 109, "channel": 0}, {"type": "note_on", "time": 52, "note": 71, "velocity": 116, "channel": 0}, {"type": "note_off", "time": 94, "note": 71, "velocity": 116, "channel": 0}, {"type": "note_on", "time": 20, "note": 72, "velocity": 112, "channel": 0}, {"type": "note_off", "time": 84, "note": 72, "velocity": 112, "channel": 0}, {"type": "note_on", "time": 31, "note": 69, "velocity": 105, "channel": 0}, {"type": "note_off", "time": 80, "note": 69, "velocity": 105, "channel": 0}, {"type": "note_on", "time": 28, "note": 69, "velocity": 110, "channel": 0}, {"type": "note_off", "time": 80, "note": 69, "velocity": 110, "channel": 0}, {"type": "note_on", "time": 114, "note": 65, "velocity": 95, "channel": 0}, {"type": "note_off", "time": 278, "note": 65, "velocity": 95, "channel": 0}, {"type": "note_on", "time": 77, "note": 62, "velocity": 119, "channel": 0}, {"type": "note_off", "time": 97, "note": 62, "velocity": 119, "channel": 0}, {"type": "note_on", "time": 788, "note": 65, "velocity": 111, "channel": 0}, {"type": "note_off", "time": 86, "note": 65, "velocity": 111, "channel": 0}, {"type": "note_on", "time": 110, "note": 68, "velocity": 117, "channel": 0}, {"type": "note_off", "time": 107, "note": 68, "velocity": 117, "channel": 0}, {"type": "note_on", "time": 110, "note": 70, "velocity": 116, "channel": 0}, {"type": "note_off", "time": 71, "note": 70, "velocity": 116, "channel": 0}, {"type": "note_on", "time": 16, "note": 71, "velocity": 116, "channel": 0}, {"type": "note_off", "time": 73, "note": 71, "velocity": 116, "channel": 0}, {"type": "note_on", "time": 24, "note": 70, "velocity": 108, "channel": 0}, {"type": "note_off", "time": 156, "note": 70, "velocity": 108, "channel": 0}, {"type": "note_on", "time": 52, "note": 68, "velocity": 118, "channel": 0}, {"type": "note_off", "time": 157, "note": 68, "velocity": 118, "channel": 0}, {"type": "note_on", "time": 24, "note": 65, "velocity": 105, "channel": 0}, {"type": "note_off", "time": 99, "note": 65, "velocity": 105, "channel": 0}, {"type": "note_on", "time": 77, "note": 63, "velocity": 119, "channel": 0}, {"type": "note_off", "time": 182, "note": 63, "velocity": 119, "channel": 0}, {"type": "note_on", "time": 31, "note": 60, "velocity": 106, "channel": 0}, {"type": "note_off", "time": 86, "note": 60, "velocity": 106, "channel": 0}, {"type": "note_on", "time": 81, "note": 64, "velocity": 116, "channel": 0}, {"type": "note_off", "time": 180, "note": 64, "velocity": 116, "channel": 0}, {"type": "note_on", "time": 20, "note": 60, "velocity": 100, "channel": 0}, {"type": "note_off", "time": 63, "note": 60, "velocity": 100, "channel": 0}, {"type": "note_on", "time": 26, "note": 65, "velocity": 101, "channel": 0}, {"type": "note_off", "time": 329, "note": 65, "velocity": 101, "channel": 0}, {"type": "note_on", "time": 51, "note": 64, "velocity": 112, "channel": 0}, {"type": "note_off", "time": 45, "note": 64, "velocity": 112, "channel": 0}, {"type": "note_on", "time": 12, "note": 62, "velocity": 109, "channel": 0}, {"type": "note_off", "time": 30, "note": 62, "velocity": 109, "channel": 0}, {"type": "note_on", "time": 16, "note": 60, "velocity": 105, "channel": 0}, {"type": "note_off", "time": 109, "note": 60, "velocity": 105, "channel": 0}, {"type": "note_on", "time": 806, "note": 60, "velocity": 105, "channel": 0}, {"type": "note_off", "time": 71, "note": 60, "velocity": 105, "channel": 0}, {"type": "note_on", "time": 29, "note": 62, "velocity": 109, "channel": 0}, {"type": "note_off", "time": 43, "note": 62, "velocity": 109, "channel": 0}, {"type": "note_on", "time": 21, "note": 64, "velocity": 119, "channel": 0}, {"type": "note_off", "time": 95, "note": 64, "velocity": 119, "channel": 0}, {"type": "note_on", "time": 15, "note": 65, "velocity": 115, "channel": 0}, {"type": "note_off", "time": 73, "note": 65, "velocity": 115, "channel": 0}, {"type": "note_on", "time": 18, "note": 64, "velocity": 118, "channel": 0}, {"type": "note_off", "time": 105, "note": 64, "velocity": 118, "channel": 0}, {"type": "note_on", "time": 4, "note": 62, "velocity": 112, "channel": 0}, {"type": "note_off", "time": 89, "note": 62, "velocity": 112, "channel": 0}, {"type": "note_on", "time": 6, "note": 61, "velocity": 106, "channel": 0}, {"type": "note_off", "time": 93, "note": 61, "velocity": 106, "channel": 0}, {"type": "note_on", "time": 14, "note": 60, "velocity": 106, "channel": 0}, {"type": "note_off", "time": 107, "note": 60, "velocity": 106, "channel": 0}, {"type": "note_on", "time": 13, "note": 58, "velocity": 107, "channel": 0}, {"type": "note_off", "time": 69, "note": 58, "velocity": 107, "channel": 0}, {"type": "note_on", "time": 33, "note": 53, "velocity": 99, "channel": 0}, {"type": "note_off", "time": 104, "note": 53, "velocity": 99, "channel": 0}, {"type": "note_on", "time": 18, "note": 55, "velocity": 100, "channel": 0}, {"type": "note_off", "time": 39, "note": 55, "velocity": 100, "channel": 0}, {"type": "note_on", "time": 10, "note": 57, "velocity": 107, "channel": 0}, {"type": "note_off", "time": 82, "note": 57, "velocity": 107, "channel": 0}, {"type": "note_on", "time": 34, "note": 53, "velocity": 99, "channel": 0}, {"type": "note_off", "time": 43, "note": 53, "velocity": 99, "channel": 0}, {"type": "note_on", "time": 10, "note": 58, "velocity": 101, "channel": 0}, {"type": "note_off", "time": 116, "note": 58, "velocity": 101, "channel": 0}, {"type": "note_on", "time": 21, "note": 59, "velocity": 110, "channel": 0}, {"type": "note_off", "time": 69, "note": 59, "velocity": 110, "channel": 0}, {"type": "note_on", "time": 10, "note": 60, "velocity": 103, "channel": 0}, {"type": "note_off", "time": 69, "note": 60, "velocity": 103, "channel": 0}, {"type": "note_on", "time": 5, "note": 65, "velocity": 112, "channel": 0}, {"type": "note_off", "time": 73, "note": 65, "velocity": 112, "channel": 0}, {"type": "note_on", "time": 12, "note": 64, "velocity": 115, "channel": 0}, {"type": "note_off", "time": 95, "note": 64, "velocity": 115, "channel": 0}, {"type": "note_on", "time": 6, "note": 63, "velocity": 116, "channel": 0}, {"type": "note_off", "time": 107, "note": 63, "velocity": 116, "channel": 0}, {"type": "note_on", "time": 4, "note": 62, "velocity": 115, "channel": 0}, {"type": "note_off", "time": 95, "note": 62, "velocity": 115, "channel": 0}, {"type": "note_on", "time": 3, "note": 63, "velocity": 114, "channel": 0}, {"type": "note_off", "time": 86, "note": 63, "velocity": 114, "channel": 0}, {"type": "note_on", "time": 8, "note": 64, "velocity": 109, "channel": 0}, {"type": "note_off", "time": 90, "note": 64, "velocity": 109, "channel": 0}, {"type": "note_on", "time": 7, "note": 67, "velocity": 114, "channel": 0}, {"type": "note_off", "time": 78, "note": 67, "velocity": 114, "channel": 0}, {"type": "note_on", "time": 4, "note": 65, "velocity": 113, "channel": 0}, {"type": "note_off", "time": 103, "note": 65, "velocity": 113, "channel": 0}, {"type": "note_on", "time": 5, "note": 62, "velocity": 108, "channel": 0}, {"type": "note_off", "time": 70, "note": 62, "velocity": 108, "channel": 0}, {"type": "note_on", "time": 15, "note": 58, "velocity": 106, "channel": 0}, {"type": "note_off", "time": 89, "note": 58, "velocity": 106, "channel": 0}, {"type": "note_on", "time": 8, "note": 57, "velocity": 99, "channel": 0}, {"type": "note_off", "time": 76, "note": 57, "velocity": 99, "channel": 0}, {"type": "note_on", "time": 21, "note": 56, "velocity": 103, "channel": 0}, {"type": "note_off", "time": 86, "note": 56, "velocity": 103, "channel": 0}, {"type": "note_on", "time": 36, "note": 58, "velocity": 105, "channel": 0}, {"type": "note_off", "time": 62, "note": 58, "velocity": 105, "channel": 0}, {"type": "note_on", "time": 9, "note": 59, "velocity": 106, "channel": 0}, {"type": "note_off", "time": 92, "note": 59, "velocity": 106, "channel": 0}, {"type": "note_on", "time": 23, "note": 60, "velocity": 106, "channel": 0}, {"type": "note_off", "time": 48, "note": 60, "velocity": 106, "channel": 0}, {"type": "note_on", "time": 30, "note": 61, "velocity": 97, "channel": 0}, {"type": "note_off", "time": 88, "note": 61, "velocity": 97, "channel": 0}, {"type": "note_on", "time": 12, "note": 62, "velocity": 111, "channel": 0}, {"type": "note_off", "time": 93, "note": 62, "velocity": 111, "channel": 0}, {"type": "note_on", "time": 5, "note": 63, "velocity": 117, "channel": 0}, {"type": "note_off", "time": 77, "note": 63, "velocity": 117, "channel": 0}, {"type": "note_on", "time": 14, "note": 64, "velocity": 116, "channel": 0}, {"type": "note_off", "time": 88, "note": 64, "velocity": 116, "channel": 0}, {"type": "note_on", "time": 12, "note": 65, "velocity": 112, "channel": 0}, {"type": "note_off", "time": 81, "note": 65, "velocity": 112, "channel": 0}, {"type": "note_on", "time": 12, "note": 61, "velocity": 101, "channel": 0}, {"type": "note_off", "time": 63, "note": 61, "velocity": 101, "channel": 0}, {"type": "note_on", "time": 20, "note": 62, "velocity": 106, "channel": 0}, {"type": "note_off", "time": 90, "note": 62, "velocity": 106, "channel": 0}, {"type": "note_on", "time": 21, "note": 65, "velocity": 105, "channel": 0}, {"type": "note_off", "time": 77, "note": 65, "velocity": 105, "channel": 0}, {"type": "note_on", "time": 4, "note": 68, "velocity": 106, "channel": 0}, {"type": "note_off", "time": 90, "note": 68, "velocity": 106, "channel": 0}, {"type": "note_on", "time": 19, "note": 65, "velocity": 101, "channel": 0}, {"type": "note_off", "time": 73, "note": 65, "velocity": 101, "channel": 0}, {"type": "note_on", "time": 938, "note": 68, "velocity": 114, "channel": 0}, {"type": "note_off", "time": 35, "note": 68, "velocity": 114, "channel": 0}, {"type": "note_on", "time": 5, "note": 67, "velocity": 119, "channel": 0}, {"type": "note_off", "time": 49, "note": 67, "velocity": 119, "channel": 0}, {"type": "note_on", "time": 6, "note": 65, "velocity": 115, "channel": 0}, {"type": "note_off", "time": 50, "note": 65, "velocity": 115, "channel": 0}, {"type": "note_on", "time": 19, "note": 61, "velocity": 108, "channel": 0}, {"type": "note_off", "time": 94, "note": 61, "velocity": 108, "channel": 0}, {"type": "note_on", "time": 5, "note": 60, "velocity": 112, "channel": 0}, {"type": "note_off", "time": 78, "note": 60, "velocity": 112, "channel": 0}, {"type": "note_on", "time": 12, "note": 58, "velocity": 108, "channel": 0}, {"type": "note_off", "time": 37, "note": 58, "velocity": 108, "channel": 0}, {"type": "note_on", "time": 7, "note": 57, "velocity": 108, "channel": 0}, {"type": "note_off", "time": 90, "note": 57, "velocity": 108, "channel": 0}, {"type": "note_on", "time": 36, "note": 53, "velocity": 102, "channel": 0}, {"type": "note_off", "time": 51, "note": 53, "velocity": 102, "channel": 0}, {"type": "note_on", "time": 20, "note": 58, "velocity": 106, "channel": 0}, {"type": "note_off", "time": 65, "note": 58, "velocity": 106, "channel": 0}, {"type": "note_on", "time": 11, "note": 59, "velocity": 111, "channel": 0}, {"type": "note_off", "time": 94, "note": 59, "velocity": 111, "channel": 0}, {"type": "note_on", "time": 11, "note": 60, "velocity": 101, "channel": 0}, {"type": "note_off", "time": 95, "note": 60, "velocity": 101, "channel": 0}, {"type": "note_on", "time": 11, "note": 65, "velocity": 110, "channel": 0}, {"type": "note_off", "time": 65, "note": 65, "velocity": 110, "channel": 0}, {"type": "note_on", "time": 7, "note": 64, "velocity": 111, "channel": 0}, {"type": "note_off", "time": 80, "note": 64, "velocity": 111, "channel": 0}, {"type": "note_on", "time": 30, "note": 67, "velocity": 112, "channel": 0}, {"type": "note_off", "time": 82, "note": 67, "velocity": 112, "channel": 0}, {"type": "note_on", "time": 15, "note": 65, "velocity": 112, "channel": 0}, {"type": "note_off", "time": 58, "note": 65, "velocity": 112, "channel": 0}, {"type": "note_on", "time": 39, "note": 61, "velocity": 100, "channel": 0}, {"type": "note_off", "time": 56, "note": 61, "velocity": 100, "channel": 0}, {"type": "note_on", "time": 2, "note": 58, "velocity": 108, "channel": 0}, {"type": "note_off", "time": 92, "note": 58, "velocity": 108, "channel": 0}, {"type": "note_on", "time": 26, "note": 53, "velocity": 96, "channel": 0}, {"type": "note_off", "time": 94, "note": 53, "velocity": 96, "channel": 0}, {"type": "note_on", "time": 21, "note": 57, "velocity": 104, "channel": 0}, {"type": "note_off", "time": 95, "note": 57, "velocity": 104, "channel": 0}, {"type": "note_on", "time": 13, "note": 53, "velocity": 106, "channel": 0}, {"type": "note_off", "time": 79, "note": 53, "velocity": 106, "channel": 0}, {"type": "note_on", "time": 0, "note": 58, "velocity": 99, "channel": 0}, {"type": "note_off", "time": 124, "note": 58, "velocity": 99, "channel": 0}, {"type": "note_on", "time": 11, "note": 59, "velocity": 106, "channel": 0}, {"type": "note_off", "time": 54, "note": 59, "velocity": 106, "channel": 0}, {"type": "note_on", "time": 9, "note": 60, "velocity": 107, "channel": 0}, {"type": "note_off", "time": 69, "note": 60, "velocity": 107, "channel": 0}, {"type": "note_on", "time": 31, "note": 57, "velocity": 104, "channel": 0}, {"type": "note_off", "time": 63, "note": 57, "velocity": 104, "channel": 0}, {"type": "note_on", "time": 39, "note": 53, "velocity": 102, "channel": 0}, {"type": "note_off", "time": 65, "note": 53, "velocity": 102, "channel": 0}, {"type": "note_on", "time": 31, "note": 51, "velocity": 97, "channel": 0}, {"type": "note_off", "time": 298, "note": 51, "velocity": 97, "channel": 0}, {"type": "note_on", "time": 174, "note": 60, "velocity": 119, "channel": 0}, {"type": "note_off", "time": 65, "note": 60, "velocity": 119, "channel": 0}, {"type": "note_on", "time": 16, "note": 62, "velocity": 114, "channel": 0}, {"type": "note_off", "time": 188, "note": 62, "velocity": 114, "channel": 0}, {"type": "note_on", "time": 28, "note": 60, "velocity": 120, "channel": 0}, {"type": "note_off", "time": 94, "note": 60, "velocity": 120, "channel": 0}, {"type": "note_on", "time": 11, "note": 58, "velocity": 111, "channel": 0}, {"type": "note_off", "time": 90, "note": 58, "velocity": 111, "channel": 0}, {"type": "note_on", "time": 3, "note": 54, "velocity": 107, "channel": 0}, {"type": "note_off", "time": 88, "note": 54, "velocity": 107, "channel": 0}, {"type": "note_on", "time": 9, "note": 53, "velocity": 99, "channel": 0}, {"type": "note_off", "time": 70, "note": 53, "velocity": 99, "channel": 0}, {"type": "note_on", "time": 7, "note": 51, "velocity": 105, "channel": 0}, {"type": "note_off", "time": 84, "note": 51, "velocity": 105, "channel": 0}, {"type": "note_on", "time": 5, "note": 50, "velocity": 99, "channel": 0}, {"type": "note_off", "time": 135, "note": 50, "velocity": 99, "channel": 0}, {"type": "note_on", "time": 16, "note": 55, "velocity": 99, "channel": 0}, {"type": "note_off", "time": 136, "note": 55, "velocity": 99, "channel": 0}, {"type": "note_on", "time": 15, "note": 58, "velocity": 101, "channel": 0}, {"type": "note_off", "time": 260, "note": 58, "velocity": 101, "channel": 0}, {"type": "note_on", "time": 633, "note": 72, "velocity": 114, "channel": 0}, {"type": "note_off", "time": 114, "note": 72, "velocity": 114, "channel": 0}, {"type": "note_on", "time": 56, "note": 68, "velocity": 117, "channel": 0}, {"type": "note_off", "time": 82, "note": 68, "velocity": 117, "channel": 0}, {"type": "note_on", "time": 35, "note": 65, "velocity": 108, "channel": 0}, {"type": "note_off", "time": 54, "note": 65, "velocity": 108, "channel": 0}, {"type": "note_on", "time": 28, "note": 70, "velocity": 111, "channel": 0}, {"type": "note_off", "time": 73, "note": 70, "velocity": 111, "channel": 0}, {"type": "note_on", "time": 18, "note": 67, "velocity": 118, "channel": 0}, {"type": "note_off", "time": 45, "note": 67, "velocity": 118, "channel": 0}, {"type": "note_on", "time": 16, "note": 63, "velocity": 114, "channel": 0}, {"type": "note_off", "time": 95, "note": 63, "velocity": 114, "channel": 0}, {"type": "note_on", "time": 26, "note": 68, "velocity": 116, "channel": 0}, {"type": "note_off", "time": 120, "note": 68, "velocity": 116, "channel": 0}, {"type": "note_on", "time": 88, "note": 65, "velocity": 116, "channel": 0}, {"type": "note_off", "time": 110, "note": 65, "velocity": 116, "channel": 0}, {"type": "note_on", "time": 84, "note": 61, "velocity": 107, "channel": 0}, {"type": "note_off", "time": 60, "note": 61, "velocity": 107, "channel": 0}, {"type": "note_on", "time": 33, "note": 58, "velocity": 108, "channel": 0}, {"type": "note_off", "time": 71, "note": 58, "velocity": 108, "channel": 0}, {"type": "note_on", "time": 13, "note": 61, "velocity": 108, "channel": 0}, {"type": "note_off", "time": 54, "note": 61, "velocity": 108, "channel": 0}, {"type": "note_on", "time": 24, "note": 65, "velocity": 113, "channel": 0}, {"type": "note_off", "time": 88, "note": 65, "velocity": 113, "channel": 0}, {"type": "note_on", "time": 94, "note": 67, "velocity": 118, "channel": 0}, {"type": "note_off", "time": 94, "note": 67, "velocity": 118, "channel": 0}, {"type": "note_on", "time": 120, "note": 64, "velocity": 116, "channel": 0}, {"type": "note_off", "time": 99, "note": 64, "velocity": 116, "channel": 0}, {"type": "note_on", "time": 28, "note": 60, "velocity": 104, "channel": 0}, {"type": "note_off", "time": 60, "note": 60, "velocity": 104, "channel": 0}, {"type": "note_on", "time": 15, "note": 66, "velocity": 118, "channel": 0}, {"type": "note_off", "time": 103, "note": 66, "velocity": 118, "channel": 0}, {"type": "note_on", "time": 376, "note": 65, "velocity": 125, "channel": 0}, {"type": "note_off", "time": 65, "note": 65, "velocity": 125, "channel": 0}, {"type": "note_on", "time": 16, "note": 62, "velocity": 115, "channel": 0}, {"type": "note_off", "time": 63, "note": 62, "velocity": 115, "channel": 0}, {"type": "note_on", "time": 38, "note": 58, "velocity": 99, "channel": 0}, {"type": "note_off", "time": 55, "note": 58, "velocity": 99, "channel": 0}, {"type": "note_on", "time": 23, "note": 63, "velocity": 125, "channel": 0}, {"type": "note_off", "time": 84, "note": 63, "velocity": 125, "channel": 0}, {"type": "note_on", "time": 5, "note": 64, "velocity": 121, "channel": 0}, {"type": "note_off", "time": 106, "note": 64, "velocity": 121, "channel": 0}, {"type": "note_on", "time": 11, "note": 64, "velocity": 119, "channel": 0}, {"type": "note_off", "time": 552, "note": 64, "velocity": 119, "channel": 0}, {"type": "note_on", "time": 9, "note": 62, "velocity": 120, "channel": 0}, {"type": "note_off", "time": 73, "note": 62, "velocity": 120, "channel": 0}, {"type": "note_on", "time": 28, "note": 60, "velocity": 108, "channel": 0}, {"type": "note_off", "time": 52, "note": 60, "velocity": 108, "channel": 0}, {"type": "note_on", "time": 16, "note": 57, "velocity": 111, "channel": 0}, {"type": "note_off", "time": 73, "note": 57, "velocity": 111, "channel": 0}, {"type": "note_on", "time": 30, "note": 53, "velocity": 106, "channel": 0}, {"type": "note_off", "time": 77, "note": 53, "velocity": 106, "channel": 0}, {"type": "note_on", "time": 11, "note": 52, "velocity": 104, "channel": 0}, {"type": "note_off", "time": 634, "note": 52, "velocity": 104, "channel": 0}, {"type": "note_on", "time": 316, "note": 64, "velocity": 122, "channel": 0}, {"type": "note_off", "time": 82, "note": 64, "velocity": 122, "channel": 0}, {"type": "note_on", "time": 143, "note": 62, "velocity": 124, "channel": 0}, {"type": "note_off", "time": 84, "note": 62, "velocity": 124, "channel": 0}, {"type": "note_on", "time": 21, "note": 62, "velocity": 115, "channel": 0}, {"type": "note_off", "time": 77, "note": 62, "velocity": 115, "channel": 0}, {"type": "note_on", "time": 627, "note": 64, "velocity": 123, "channel": 0}, {"type": "note_off", "time": 214, "note": 64, "velocity": 123, "channel": 0}, {"type": "note_on", "time": 9, "note": 65, "velocity": 115, "channel": 0}, {"type": "note_off", "time": 532, "note": 65, "velocity": 115, "channel": 0}, {"type": "note_on", "time": 9, "note": 62, "velocity": 123, "channel": 0}, {"type": "note_off", "time": 62, "note": 62, "velocity": 123, "channel": 0}, {"type": "note_on", "time": 39, "note": 65, "velocity": 107, "channel": 0}, {"type": "note_off", "time": 378, "note": 65, "velocity": 107, "channel": 0}, {"type": "note_on", "time": 650, "note": 64, "velocity": 120, "channel": 0}, {"type": "note_off", "time": 107, "note": 64, "velocity": 120, "channel": 0}, {"type": "note_on", "time": 26, "note": 65, "velocity": 119, "channel": 0}, {"type": "note_off", "time": 157, "note": 65, "velocity": 119, "channel": 0}, {"type": "note_on", "time": 20, "note": 62, "velocity": 117, "channel": 0}, {"type": "note_off", "time": 63, "note": 62, "velocity": 117, "channel": 0}, {"type": "note_on", "time": 18, "note": 64, "velocity": 121, "channel": 0}, {"type": "note_off", "time": 110, "note": 64, "velocity": 121, "channel": 0}, {"type": "note_on", "time": 13, "note": 65, "velocity": 122, "channel": 0}, {"type": "note_off", "time": 135, "note": 65, "velocity": 122, "channel": 0}, {"type": "note_on", "time": 22, "note": 62, "velocity": 118, "channel": 0}, {"type": "note_off", "time": 62, "note": 62, "velocity": 118, "channel": 0}, {"type": "note_on", "time": 24, "note": 64, "velocity": 121, "channel": 0}, {"type": "note_off", "time": 129, "note": 64, "velocity": 121, "channel": 0}, {"type": "note_on", "time": 16, "note": 65, "velocity": 117, "channel": 0}, {"type": "note_off", "time": 159, "note": 65, "velocity": 117, "channel": 0}, {"type": "note_on", "time": 9, "note": 62, "velocity": 113, "channel": 0}, {"type": "note_off", "time": 50, "note": 62, "velocity": 113, "channel": 0}, {"type": "note_on", "time": 38, "note": 64, "velocity": 103, "channel": 0}, {"type": "note_off", "time": 108, "note": 64, "velocity": 103, "channel": 0}, {"type": "note_on", "time": 18, "note": 65, "velocity": 9, "channel": 0}, {"type": "note_off", "time": 137, "note": 65, "velocity": 9, "channel": 0}, {"type": "note_on", "time": 7, "note": 61, "velocity": 9, "channel": 0}, {"type": "note_off", "time": 47, "note": 61, "velocity": 9, "channel": 0}, {"type": "note_on", "time": 56, "note": 64, "velocity": 108, "channel": 0}, {"type": "note_off", "time": 94, "note": 64, "velocity": 108, "channel": 0}, {"type": "note_on", "time": 9, "note": 65, "velocity": 113, "channel": 0}, {"type": "note_off", "time": 133, "note": 65, "velocity": 113, "channel": 0}, {"type": "note_on", "time": 31, "note": 61, "velocity": 96, "channel": 0}, {"type": "note_off", "time": 56, "note": 61, "velocity": 96, "channel": 0}, {"type": "note_on", "time": 30, "note": 65, "velocity": 111, "channel": 0}, {"type": "note_off", "time": 261, "note": 65, "velocity": 111, "channel": 0}, {"type": "note_on", "time": 35, "note": 60, "velocity": 103, "channel": 0}, {"type": "note_off", "time": 62, "note": 60, "velocity": 103, "channel": 0}, {"type": "note_on", "time": 20, "note": 65, "velocity": 95, "channel": 0}, {"type": "note_off", "time": 299, "note": 65, "velocity": 95, "channel": 0}, {"type": "note_on", "time": 29, "note": 60, "velocity": 104, "channel": 0}, {"type": "note_off", "time": 47, "note": 60, "velocity": 104, "channel": 0}, {"type": "note_on", "time": 48, "note": 65, "velocity": 103, "channel": 0}, {"type": "note_off", "time": 60, "note": 65, "velocity": 103, "channel": 0}, {"type": "note_on", "time": 28, "note": 67, "velocity": 108, "channel": 0}, {"type": "note_off", "time": 58, "note": 67, "velocity": 108, "channel": 0}, {"type": "note_on", "time": 30, "note": 69, "velocity": 98, "channel": 0}, {"type": "note_off", "time": 112, "note": 69, "velocity": 98, "channel": 0}, {"type": "note_on", "time": 199, "note": 64, "velocity": 113, "channel": 0}, {"type": "note_off", "time": 39, "note": 64, "velocity": 113, "channel": 0}, {"type": "note_on", "time": 15, "note": 65, "velocity": 112, "channel": 0}, {"type": "note_off", "time": 112, "note": 65, "velocity": 112, "channel": 0}, {"type": "note_on", "time": 30, "note": 62, "velocity": 110, "channel": 0}, {"type": "note_off", "time": 66, "note": 62, "velocity": 110, "channel": 0}, {"type": "note_on", "time": 10, "note": 65, "velocity": 99, "channel": 0}, {"type": "note_off", "time": 735, "note": 65, "velocity": 99, "channel": 0}, {"type": "note_on", "time": 32, "note": 65, "velocity": 109, "channel": 0}, {"type": "note_off", "time": 114, "note": 65, "velocity": 109, "channel": 0}, {"type": "note_on", "time": 13, "note": 67, "velocity": 105, "channel": 0}, {"type": "note_off", "time": 65, "note": 67, "velocity": 105, "channel": 0}, {"type": "note_on", "time": 11, "note": 68, "velocity": 102, "channel": 0}, {"type": "note_off", "time": 71, "note": 68, "velocity": 102, "channel": 0}, {"type": "note_on", "time": 887, "note": 65, "velocity": 112, "channel": 0}, {"type": "note_off", "time": 118, "note": 65, "velocity": 112, "channel": 0}, {"type": "note_on", "time": 24, "note": 68, "velocity": 100, "channel": 0}, {"type": "note_off", "time": 54, "note": 68, "velocity": 100, "channel": 0}, {"type": "note_on", "time": 28, "note": 70, "velocity": 102, "channel": 0}, {"type": "note_off", "time": 71, "note": 70, "velocity": 102, "channel": 0}, {"type": "note_on", "time": 33, "note": 71, "velocity": 107, "channel": 0}, {"type": "note_off", "time": 62, "note": 71, "velocity": 107, "channel": 0}, {"type": "note_on", "time": 7, "note": 70, "velocity": 100, "channel": 0}, {"type": "note_off", "time": 58, "note": 70, "velocity": 100, "channel": 0}, {"type": "note_on", "time": 33, "note": 68, "velocity": 110, "channel": 0}, {"type": "note_off", "time": 95, "note": 68, "velocity": 110, "channel": 0}, {"type": "note_on", "time": 9, "note": 65, "velocity": 110, "channel": 0}, {"type": "note_off", "time": 107, "note": 65, "velocity": 110, "channel": 0}, {"type": "note_on", "time": 13, "note": 60, "velocity": 98, "channel": 0}, {"type": "note_off", "time": 71, "note": 60, "velocity": 98, "channel": 0}, {"type": "note_on", "time": 13, "note": 63, "velocity": 106, "channel": 0}, {"type": "note_off", "time": 43, "note": 63, "velocity": 106, "channel": 0}, {"type": "note_on", "time": 43, "note": 65, "velocity": 92, "channel": 0}, {"type": "note_off", "time": 365, "note": 65, "velocity": 92, "channel": 0}, {"type": "note_on", "time": 311, "note": 68, "velocity": 112, "channel": 0}, {"type": "note_off", "time": 86, "note": 68, "velocity": 112, "channel": 0}, {"type": "note_on", "time": 9, "note": 69, "velocity": 106, "channel": 0}, {"type": "note_off", "time": 39, "note": 69, "velocity": 106, "channel": 0}, {"type": "note_on", "time": 22, "note": 65, "velocity": 107, "channel": 0}, {"type": "note_off", "time": 97, "note": 65, "velocity": 107, "channel": 0}, {"type": "note_on", "time": 32, "note": 60, "velocity": 97, "channel": 0}, {"type": "note_off", "time": 70, "note": 60, "velocity": 97, "channel": 0}, {"type": "note_on", "time": 20, "note": 65, "velocity": 111, "channel": 0}, {"type": "note_off", "time": 52, "note": 65, "velocity": 111, "channel": 0}, {"type": "note_on", "time": 5, "note": 66, "velocity": 115, "channel": 0}, {"type": "note_off", "time": 48, "note": 66, "velocity": 115, "channel": 0}, {"type": "note_on", "time": 8, "note": 67, "velocity": 111, "channel": 0}, {"type": "note_off", "time": 45, "note": 67, "velocity": 111, "channel": 0}, {"type": "note_on", "time": 31, "note": 64, "velocity": 106, "channel": 0}, {"type": "note_off", "time": 103, "note": 64, "velocity": 106, "channel": 0}, {"type": "note_on", "time": 12, "note": 60, "velocity": 95, "channel": 0}, {"type": "note_off", "time": 63, "note": 60, "velocity": 95, "channel": 0}, {"type": "note_on", "time": 10, "note": 64, "velocity": 108, "channel": 0}, {"type": "note_off", "time": 92, "note": 64, "velocity": 108, "channel": 0}, {"type": "note_on", "time": 15, "note": 65, "velocity": 109, "channel": 0}, {"type": "note_off", "time": 73, "note": 65, "velocity": 109, "channel": 0}, {"type": "note_on", "time": 678, "note": 69, "velocity": 99, "channel": 0}, {"type": "note_off", "time": 272, "note": 69, "velocity": 99, "channel": 0}, {"type": "note_on", "time": 22, "note": 67, "velocity": 110, "channel": 0}, {"type": "note_off", "time": 99, "note": 67, "velocity": 110, "channel": 0}, {"type": "note_on", "time": 20, "note": 65, "velocity": 113, "channel": 0}, {"type": "note_off", "time": 47, "note": 65, "velocity": 113, "channel": 0}, {"type": "note_on", "time": 20, "note": 64, "velocity": 104, "channel": 0}, {"type": "note_off", "time": 94, "note": 64, "velocity": 104, "channel": 0}, {"type": "note_on", "time": 30, "note": 62, "velocity": 115, "channel": 0}, {"type": "note_off", "time": 56, "note": 62, "velocity": 115, "channel": 0}, {"type": "note_on", "time": 16, "note": 65, "velocity": 109, "channel": 0}, {"type": "note_off", "time": 109, "note": 65, "velocity": 109, "channel": 0}, {"type": "note_on", "time": 485, "note": 65, "velocity": 116, "channel": 0}, {"type": "note_off", "time": 95, "note": 65, "velocity": 116, "channel": 0}, {"type": "note_on", "time": 20, "note": 67, "velocity": 104, "channel": 0}, {"type": "note_off", "time": 41, "note": 67, "velocity": 104, "channel": 0}, {"type": "note_on", "time": 16, "note": 68, "velocity": 110, "channel": 0}, {"type": "note_off", "time": 105, "note": 68, "velocity": 110, "channel": 0}, {"type": "note_on", "time": 9, "note": 70, "velocity": 110, "channel": 0}, {"type": "note_off", "time": 65, "note": 70, "velocity": 110, "channel": 0}, {"type": "note_on", "time": 16, "note": 71, "velocity": 117, "channel": 0}, {"type": "note_off", "time": 75, "note": 71, "velocity": 117, "channel": 0}, {"type": "note_on", "time": 42, "note": 73, "velocity": 115, "channel": 0}, {"type": "note_off", "time": 109, "note": 73, "velocity": 115, "channel": 0}, {"type": "note_on", "time": 528, "note": 73, "velocity": 113, "channel": 0}, {"type": "note_off", "time": 99, "note": 73, "velocity": 113, "channel": 0}, {"type": "note_on", "time": 2, "note": 71, "velocity": 96, "channel": 0}, {"type": "note_off", "time": 63, "note": 71, "velocity": 96, "channel": 0}, {"type": "note_on", "time": 31, "note": 70, "velocity": 108, "channel": 0}, {"type": "note_off", "time": 69, "note": 70, "velocity": 108, "channel": 0}, {"type": "note_on", "time": 35, "note": 68, "velocity": 115, "channel": 0}, {"type": "note_off", "time": 65, "note": 68, "velocity": 115, "channel": 0}, {"type": "note_on", "time": 26, "note": 65, "velocity": 95, "channel": 0}, {"type": "note_off", "time": 77, "note": 65, "velocity": 95, "channel": 0}, {"type": "note_on", "time": 9, "note": 66, "velocity": 113, "channel": 0}, {"type": "note_off", "time": 71, "note": 66, "velocity": 113, "channel": 0}, {"type": "note_on", "time": 28, "note": 67, "velocity": 115, "channel": 0}, {"type": "note_off", "time": 99, "note": 67, "velocity": 115, "channel": 0}, {"type": "note_on", "time": 16, "note": 62, "velocity": 109, "channel": 0}, {"type": "note_off", "time": 78, "note": 62, "velocity": 109, "channel": 0}, {"type": "note_on", "time": 24, "note": 65, "velocity": 95, "channel": 0}, {"type": "note_off", "time": 34, "note": 65, "velocity": 95, "channel": 0}, {"type": "note_on", "time": 5, "note": 67, "velocity": 97, "channel": 0}, {"type": "note_off", "time": 46, "note": 67, "velocity": 97, "channel": 0}, {"type": "note_on", "time": 3, "note": 65, "velocity": 114, "channel": 0}, {"type": "note_off", "time": 56, "note": 65, "velocity": 114, "channel": 0}, {"type": "note_on", "time": 14, "note": 64, "velocity": 116, "channel": 0}, {"type": "note_off", "time": 86, "note": 64, "velocity": 116, "channel": 0}, {"type": "note_on", "time": 27, "note": 63, "velocity": 116, "channel": 0}, {"type": "note_off", "time": 82, "note": 63, "velocity": 116, "channel": 0}, {"type": "note_on", "time": 27, "note": 62, "velocity": 113, "channel": 0}, {"type": "note_off", "time": 80, "note": 62, "velocity": 113, "channel": 0}, {"type": "note_on", "time": 15, "note": 61, "velocity": 111, "channel": 0}, {"type": "note_off", "time": 47, "note": 61, "velocity": 111, "channel": 0}, {"type": "note_on", "time": 7, "note": 60, "velocity": 108, "channel": 0}, {"type": "note_off", "time": 80, "note": 60, "velocity": 108, "channel": 0}, {"type": "note_on", "time": 35, "note": 58, "velocity": 108, "channel": 0}, {"type": "note_off", "time": 54, "note": 58, "velocity": 108, "channel": 0}, {"type": "note_on", "time": 50, "note": 53, "velocity": 103, "channel": 0}, {"type": "note_off", "time": 94, "note": 53, "velocity": 103, "channel": 0}, {"type": "note_on", "time": 20, "note": 55, "velocity": 99, "channel": 0}, {"type": "note_off", "time": 31, "note": 55, "velocity": 99, "channel": 0}, {"type": "note_on", "time": 9, "note": 57, "velocity": 106, "channel": 0}, {"type": "note_off", "time": 86, "note": 57, "velocity": 106, "channel": 0}, {"type": "note_on", "time": 118, "note": 58, "velocity": 111, "channel": 0}, {"type": "note_off", "time": 76, "note": 58, "velocity": 111, "channel": 0}, {"type": "note_on", "time": 13, "note": 59, "velocity": 106, "channel": 0}, {"type": "note_off", "time": 86, "note": 59, "velocity": 106, "channel": 0}, {"type": "note_on", "time": 26, "note": 60, "velocity": 113, "channel": 0}, {"type": "note_off", "time": 65, "note": 60, "velocity": 113, "channel": 0}, {"type": "note_on", "time": 31, "note": 65, "velocity": 113, "channel": 0}, {"type": "note_off", "time": 60, "note": 65, "velocity": 113, "channel": 0}, {"type": "note_on", "time": 22, "note": 64, "velocity": 113, "channel": 0}, {"type": "note_off", "time": 50, "note": 64, "velocity": 113, "channel": 0}, {"type": "note_on", "time": 48, "note": 67, "velocity": 115, "channel": 0}, {"type": "note_off", "time": 52, "note": 67, "velocity": 115, "channel": 0}, {"type": "note_on", "time": 16, "note": 65, "velocity": 113, "channel": 0}, {"type": "note_off", "time": 73, "note": 65, "velocity": 113, "channel": 0}, {"type": "note_on", "time": 660, "note": 57, "velocity": 96, "channel": 0}, {"type": "note_off", "time": 84, "note": 57, "velocity": 96, "channel": 0}, {"type": "note_on", "time": 22, "note": 58, "velocity": 101, "channel": 0}, {"type": "note_off", "time": 84, "note": 58, "velocity": 101, "channel": 0}, {"type": "note_on", "time": 16, "note": 60, "velocity": 109, "channel": 0}, {"type": "note_off", "time": 99, "note": 60, "velocity": 109, "channel": 0}, {"type": "note_on", "time": 16, "note": 62, "velocity": 114, "channel": 0}, {"type": "note_off", "time": 82, "note": 62, "velocity": 114, "channel": 0}, {"type": "note_on", "time": 13, "note": 63, "velocity": 111, "channel": 0}, {"type": "note_off", "time": 82, "note": 63, "velocity": 111, "channel": 0}, {"type": "note_on", "time": 30, "note": 65, "velocity": 111, "channel": 0}, {"type": "note_off", "time": 94, "note": 65, "velocity": 111, "channel": 0}, {"type": "note_on", "time": 20, "note": 67, "velocity": 104, "channel": 0}, {"type": "note_off", "time": 50, "note": 67, "velocity": 104, "channel": 0}, {"type": "note_on", "time": 20, "note": 69, "velocity": 108, "channel": 0}, {"type": "note_off", "time": 43, "note": 69, "velocity": 108, "channel": 0}, {"type": "note_on", "time": 15, "note": 74, "velocity": 112, "channel": 0}, {"type": "note_off", "time": 97, "note": 74, "velocity": 112, "channel": 0}, {"type": "note_on", "time": 23, "note": 72, "velocity": 114, "channel": 0}, {"type": "note_off", "time": 78, "note": 72, "velocity": 114, "channel": 0}, {"type": "note_on", "time": 32, "note": 69, "velocity": 101, "channel": 0}, {"type": "note_off", "time": 76, "note": 69, "velocity": 101, "channel": 0}, {"type": "note_on", "time": 5, "note": 67, "velocity": 112, "channel": 0}, {"type": "note_off", "time": 87, "note": 67, "velocity": 112, "channel": 0}, {"type": "note_on", "time": 7, "note": 65, "velocity": 111, "channel": 0}, {"type": "note_off", "time": 75, "note": 65, "velocity": 111, "channel": 0}, {"type": "note_on", "time": 13, "note": 61, "velocity": 94, "channel": 0}, {"type": "note_off", "time": 41, "note": 61, "velocity": 94, "channel": 0}, {"type": "note_on", "time": 20, "note": 62, "velocity": 96, "channel": 0}, {"type": "note_off", "time": 105, "note": 62, "velocity": 96, "channel": 0}, {"type": "note_on", "time": 33, "note": 65, "velocity": 106, "channel": 0}, {"type": "note_off", "time": 43, "note": 65, "velocity": 106, "channel": 0}, {"type": "note_on", "time": 26, "note": 70, "velocity": 112, "channel": 0}, {"type": "note_off", "time": 63, "note": 70, "velocity": 112, "channel": 0}, {"type": "note_on", "time": 49, "note": 65, "velocity": 103, "channel": 0}, {"type": "note_off", "time": 65, "note": 65, "velocity": 103, "channel": 0}, {"type": "note_on", "time": 6, "note": 68, "velocity": 110, "channel": 0}, {"type": "note_off", "time": 112, "note": 68, "velocity": 110, "channel": 0}, {"type": "note_on", "time": 15, "note": 65, "velocity": 106, "channel": 0}, {"type": "note_off", "time": 63, "note": 65, "velocity": 106, "channel": 0}, {"type": "note_on", "time": 16, "note": 67, "velocity": 115, "channel": 0}, {"type": "note_off", "time": 90, "note": 67, "velocity": 115, "channel": 0}, {"type": "note_on", "time": 20, "note": 65, "velocity": 112, "channel": 0}, {"type": "note_off", "time": 67, "note": 65, "velocity": 112, "channel": 0}, {"type": "note_on", "time": 15, "note": 64, "velocity": 109, "channel": 0}, {"type": "note_off", "time": 92, "note": 64, "velocity": 109, "channel": 0}, {"type": "note_on", "time": 22, "note": 67, "velocity": 110, "channel": 0}, {"type": "note_off", "time": 78, "note": 67, "velocity": 110, "channel": 0}, {"type": "note_on", "time": 13, "note": 65, "velocity": 109, "channel": 0}, {"type": "note_off", "time": 88, "note": 65, "velocity": 109, "channel": 0}, {"type": "note_on", "time": 20, "note": 61, "velocity": 97, "channel": 0}, {"type": "note_off", "time": 43, "note": 61, "velocity": 97, "channel": 0}, {"type": "note_on", "time": 20, "note": 58, "velocity": 102, "channel": 0}, {"type": "note_off", "time": 95, "note": 58, "velocity": 102, "channel": 0}, {"type": "note_on", "time": 33, "note": 60, "velocity": 107, "channel": 0}, {"type": "note_off", "time": 60, "note": 60, "velocity": 107, "channel": 0}, {"type": "note_on", "time": 16, "note": 61, "velocity": 100, "channel": 0}, {"type": "note_off", "time": 77, "note": 61, "velocity": 100, "channel": 0}, {"type": "note_on", "time": 37, "note": 63, "velocity": 116, "channel": 0}, {"type": "note_off", "time": 62, "note": 63, "velocity": 116, "channel": 0}, {"type": "note_on", "time": 16, "note": 60, "velocity": 109, "channel": 0}, {"type": "note_off", "time": 71, "note": 60, "velocity": 109, "channel": 0}, {"type": "note_on", "time": 5, "note": 61, "velocity": 106, "channel": 0}, {"type": "note_off", "time": 67, "note": 61, "velocity": 106, "channel": 0}, {"type": "note_on", "time": 31, "note": 58, "velocity": 106, "channel": 0}, {"type": "note_off", "time": 92, "note": 58, "velocity": 106, "channel": 0}, {"type": "note_on", "time": 11, "note": 53, "velocity": 107, "channel": 0}, {"type": "note_off", "time": 71, "note": 53, "velocity": 107, "channel": 0}, {"type": "note_on", "time": 13, "note": 58, "velocity": 106, "channel": 0}, {"type": "note_off", "time": 98, "note": 58, "velocity": 106, "channel": 0}, {"type": "note_on", "time": 15, "note": 60, "velocity": 112, "channel": 0}, {"type": "note_off", "time": 39, "note": 60, "velocity": 112, "channel": 0}, {"type": "note_on", "time": 22, "note": 58, "velocity": 111, "channel": 0}, {"type": "note_off", "time": 73, "note": 58, "velocity": 111, "channel": 0}, {"type": "note_on", "time": 48, "note": 65, "velocity": 105, "channel": 0}, {"type": "note_off", "time": 88, "note": 65, "velocity": 105, "channel": 0}, {"type": "note_on", "time": 30, "note": 56, "velocity": 102, "channel": 0}, {"type": "note_off", "time": 77, "note": 56, "velocity": 102, "channel": 0}, {"type": "note_on", "time": 11, "note": 54, "velocity": 105, "channel": 0}, {"type": "note_off", "time": 69, "note": 54, "velocity": 105, "channel": 0}, {"type": "note_on", "time": 11, "note": 55, "velocity": 97, "channel": 0}, {"type": "note_off", "time": 71, "note": 55, "velocity": 97, "channel": 0}, {"type": "note_on", "time": 422, "note": 57, "velocity": 104, "channel": 0}, {"type": "note_off", "time": 57, "note": 57, "velocity": 104, "channel": 0}, {"type": "note_on", "time": 17, "note": 59, "velocity": 105, "channel": 0}, {"type": "note_off", "time": 45, "note": 59, "velocity": 105, "channel": 0}, {"type": "note_on", "time": 14, "note": 64, "velocity": 110, "channel": 0}, {"type": "note_off", "time": 51, "note": 64, "velocity": 110, "channel": 0}, {"type": "note_on", "time": 8, "note": 67, "velocity": 109, "channel": 0}, {"type": "note_off", "time": 47, "note": 67, "velocity": 109, "channel": 0}, {"type": "note_on", "time": 10, "note": 66, "velocity": 110, "channel": 0}, {"type": "note_off", "time": 106, "note": 66, "velocity": 110, "channel": 0}, {"type": "note_on", "time": 33, "note": 63, "velocity": 110, "channel": 0}, {"type": "note_off", "time": 52, "note": 63, "velocity": 110, "channel": 0}, {"type": "note_on", "time": 28, "note": 62, "velocity": 109, "channel": 0}, {"type": "note_off", "time": 48, "note": 62, "velocity": 109, "channel": 0}, {"type": "note_on", "time": 703, "note": 74, "velocity": 110, "channel": 0}, {"type": "note_off", "time": 110, "note": 74, "velocity": 110, "channel": 0}, {"type": "note_on", "time": 20, "note": 73, "velocity": 102, "channel": 0}, {"type": "note_off", "time": 41, "note": 73, "velocity": 102, "channel": 0}, {"type": "note_on", "time": 26, "note": 72, "velocity": 117, "channel": 0}, {"type": "note_off", "time": 84, "note": 72, "velocity": 117, "channel": 0}, {"type": "note_on", "time": 12, "note": 69, "velocity": 115, "channel": 0}, {"type": "note_off", "time": 89, "note": 69, "velocity": 115, "channel": 0}, {"type": "note_on", "time": 13, "note": 68, "velocity": 96, "channel": 0}, {"type": "note_off", "time": 78, "note": 68, "velocity": 96, "channel": 0}, {"type": "note_on", "time": 15, "note": 67, "velocity": 107, "channel": 0}, {"type": "note_off", "time": 82, "note": 67, "velocity": 107, "channel": 0}, {"type": "note_on", "time": 4, "note": 65, "velocity": 114, "channel": 0}, {"type": "note_off", "time": 75, "note": 65, "velocity": 114, "channel": 0}, {"type": "note_on", "time": 40, "note": 62, "velocity": 118, "channel": 0}, {"type": "note_off", "time": 97, "note": 62, "velocity": 118, "channel": 0}, {"type": "note_on", "time": 177, "note": 64, "velocity": 108, "channel": 0}, {"type": "note_off", "time": 127, "note": 64, "velocity": 108, "channel": 0}, {"type": "note_on", "time": 7, "note": 65, "velocity": 113, "channel": 0}, {"type": "note_off", "time": 159, "note": 65, "velocity": 113, "channel": 0}, {"type": "note_on", "time": 24, "note": 69, "velocity": 106, "channel": 0}, {"type": "note_off", "time": 282, "note": 69, "velocity": 106, "channel": 0}, {"type": "note_on", "time": 89, "note": 67, "velocity": 116, "channel": 0}, {"type": "note_off", "time": 56, "note": 67, "velocity": 116, "channel": 0}, {"type": "note_on", "time": 13, "note": 65, "velocity": 113, "channel": 0}, {"type": "note_off", "time": 65, "note": 65, "velocity": 113, "channel": 0}, {"type": "note_on", "time": 61, "note": 64, "velocity": 119, "channel": 0}, {"type": "note_off", "time": 53, "note": 64, "velocity": 119, "channel": 0}, {"type": "note_on", "time": 3, "note": 62, "velocity": 111, "channel": 0}, {"type": "note_off", "time": 120, "note": 62, "velocity": 111, "channel": 0}, {"type": "note_on", "time": 8, "note": 61, "velocity": 107, "channel": 0}, {"type": "note_off", "time": 94, "note": 61, "velocity": 107, "channel": 0}, {"type": "note_on", "time": 7, "note": 64, "velocity": 117, "channel": 0}, {"type": "note_off", "time": 82, "note": 64, "velocity": 117, "channel": 0}, {"type": "note_on", "time": 22, "note": 62, "velocity": 116, "channel": 0}, {"type": "note_off", "time": 80, "note": 62, "velocity": 116, "channel": 0}, {"type": "note_on", "time": 11, "note": 61, "velocity": 104, "channel": 0}, {"type": "note_off", "time": 92, "note": 61, "velocity": 104, "channel": 0}, {"type": "note_on", "time": 15, "note": 64, "velocity": 117, "channel": 0}, {"type": "note_off", "time": 67, "note": 64, "velocity": 117, "channel": 0}, {"type": "note_on", "time": 22, "note": 62, "velocity": 115, "channel": 0}, {"type": "note_off", "time": 90, "note": 62, "velocity": 115, "channel": 0}, {"type": "note_on", "time": 16, "note": 60, "velocity": 112, "channel": 0}, {"type": "note_off", "time": 60, "note": 60, "velocity": 112, "channel": 0}, {"type": "note_on", "time": 12, "note": 57, "velocity": 102, "channel": 0}, {"type": "note_off", "time": 106, "note": 57, "velocity": 102, "channel": 0}, {"type": "note_on", "time": 8, "note": 58, "velocity": 109, "channel": 0}, {"type": "note_off", "time": 92, "note": 58, "velocity": 109, "channel": 0}, {"type": "note_on", "time": 8, "note": 59, "velocity": 110, "channel": 0}, {"type": "note_off", "time": 69, "note": 59, "velocity": 110, "channel": 0}, {"type": "note_on", "time": 19, "note": 62, "velocity": 118, "channel": 0}, {"type": "note_off", "time": 56, "note": 62, "velocity": 118, "channel": 0}, {"type": "note_on", "time": 18, "note": 65, "velocity": 107, "channel": 0}, {"type": "note_off", "time": 109, "note": 65, "velocity": 107, "channel": 0}, {"type": "note_on", "time": 13, "note": 67, "velocity": 117, "channel": 0}, {"type": "note_off", "time": 48, "note": 67, "velocity": 117, "channel": 0}, {"type": "note_on", "time": 20, "note": 68, "velocity": 111, "channel": 0}, {"type": "note_off", "time": 80, "note": 68, "velocity": 111, "channel": 0}, {"type": "note_on", "time": 497, "note": 73, "velocity": 108, "channel": 0}, {"type": "note_off", "time": 97, "note": 73, "velocity": 108, "channel": 0}, {"type": "note_on", "time": 16, "note": 74, "velocity": 112, "channel": 0}, {"type": "note_off", "time": 77, "note": 74, "velocity": 112, "channel": 0}, {"type": "note_on", "time": 20, "note": 70, "velocity": 114, "channel": 0}, {"type": "note_off", "time": 78, "note": 70, "velocity": 114, "channel": 0}, {"type": "note_on", "time": 23, "note": 71, "velocity": 119, "channel": 0}, {"type": "note_off", "time": 65, "note": 71, "velocity": 119, "channel": 0}, {"type": "note_on", "time": 29, "note": 67, "velocity": 112, "channel": 0}, {"type": "note_off", "time": 88, "note": 67, "velocity": 112, "channel": 0}, {"type": "note_on", "time": 16, "note": 68, "velocity": 114, "channel": 0}, {"type": "note_off", "time": 80, "note": 68, "velocity": 114, "channel": 0}, {"type": "note_on", "time": 15, "note": 64, "velocity": 120, "channel": 0}, {"type": "note_off", "time": 71, "note": 64, "velocity": 120, "channel": 0}, {"type": "note_on", "time": 9, "note": 65, "velocity": 114, "channel": 0}, {"type": "note_off", "time": 69, "note": 65, "velocity": 114, "channel": 0}, {"type": "note_on", "time": 16, "note": 61, "velocity": 113, "channel": 0}, {"type": "note_off", "time": 75, "note": 61, "velocity": 113, "channel": 0}, {"type": "note_on", "time": 11, "note": 62, "velocity": 111, "channel": 0}, {"type": "note_off", "time": 88, "note": 62, "velocity": 111, "channel": 0}, {"type": "note_on", "time": 30, "note": 58, "velocity": 109, "channel": 0}, {"type": "note_off", "time": 86, "note": 58, "velocity": 109, "channel": 0}, {"type": "note_on", "time": 13, "note": 59, "velocity": 113, "channel": 0}, {"type": "note_off", "time": 90, "note": 59, "velocity": 113, "channel": 0}, {"type": "note_on", "time": 14, "note": 55, "velocity": 108, "channel": 0}, {"type": "note_off", "time": 69, "note": 55, "velocity": 108, "channel": 0}, {"type": "note_on", "time": 22, "note": 56, "velocity": 105, "channel": 0}, {"type": "note_off", "time": 280, "note": 56, "velocity": 105, "channel": 0}, {"type": "note_on", "time": 693, "note": 67, "velocity": 117, "channel": 0}, {"type": "note_off", "time": 56, "note": 67, "velocity": 117, "channel": 0}, {"type": "note_on", "time": 7, "note": 68, "velocity": 111, "channel": 0}, {"type": "note_off", "time": 120, "note": 68, "velocity": 111, "channel": 0}, {"type": "note_on", "time": 22, "note": 65, "velocity": 112, "channel": 0}, {"type": "note_off", "time": 69, "note": 65, "velocity": 112, "channel": 0}, {"type": "note_on", "time": 31, "note": 67, "velocity": 119, "channel": 0}, {"type": "note_off", "time": 71, "note": 67, "velocity": 119, "channel": 0}, {"type": "note_on", "time": 16, "note": 68, "velocity": 106, "channel": 0}, {"type": "note_off", "time": 137, "note": 68, "velocity": 106, "channel": 0}, {"type": "note_on", "time": 47, "note": 65, "velocity": 104, "channel": 0}, {"type": "note_off", "time": 69, "note": 65, "velocity": 104, "channel": 0}, {"type": "note_on", "time": 28, "note": 67, "velocity": 116, "channel": 0}, {"type": "note_off", "time": 92, "note": 67, "velocity": 116, "channel": 0}, {"type": "note_on", "time": 16, "note": 68, "velocity": 102, "channel": 0}, {"type": "note_off", "time": 150, "note": 68, "velocity": 102, "channel": 0}, {"type": "note_on", "time": 56, "note": 65, "velocity": 108, "channel": 0}, {"type": "note_off", "time": 69, "note": 65, "velocity": 108, "channel": 0}, {"type": "note_on", "time": 24, "note": 67, "velocity": 110, "channel": 0}, {"type": "note_off", "time": 99, "note": 67, "velocity": 110, "channel": 0}, {"type": "note_on", "time": 9, "note": 68, "velocity": 101, "channel": 0}, {"type": "note_off", "time": 144, "note": 68, "velocity": 101, "channel": 0}, {"type": "note_on", "time": 41, "note": 65, "velocity": 111, "channel": 0}, {"type": "note_off", "time": 54, "note": 65, "velocity": 111, "channel": 0}, {"type": "note_on", "time": 6, "note": 68, "velocity": 105, "channel": 0}, {"type": "note_off", "time": 306, "note": 68, "velocity": 105, "channel": 0}, {"type": "note_on", "time": 14, "note": 65, "velocity": 114, "channel": 0}, {"type": "note_off", "time": 65, "note": 65, "velocity": 114, "channel": 0}, {"type": "note_on", "time": 22, "note": 68, "velocity": 106, "channel": 0}, {"type": "note_off", "time": 274, "note": 68, "velocity": 106, "channel": 0}, {"type": "note_on", "time": 38, "note": 65, "velocity": 111, "channel": 0}, {"type": "note_off", "time": 63, "note": 65, "velocity": 111, "channel": 0}, {"type": "note_on", "time": 12, "note": 68, "velocity": 109, "channel": 0}, {"type": "note_off", "time": 118, "note": 68, "velocity": 109, "channel": 0}, {"type": "note_on", "time": 12, "note": 70, "velocity": 111, "channel": 0}, {"type": "note_off", "time": 67, "note": 70, "velocity": 111, "channel": 0}, {"type": "note_on", "time": 575, "note": 65, "velocity": 118, "channel": 0}, {"type": "note_off", "time": 73, "note": 65, "velocity": 118, "channel": 0}, {"type": "note_on", "time": 139, "note": 68, "velocity": 104, "channel": 0}, {"type": "note_off", "time": 97, "note": 68, "velocity": 104, "channel": 0}, {"type": "note_on", "time": 54, "note": 70, "velocity": 114, "channel": 0}, {"type": "note_off", "time": 236, "note": 70, "velocity": 114, "channel": 0}, {"type": "note_on", "time": 6, "note": 69, "velocity": 109, "channel": 0}, {"type": "note_off", "time": 56, "note": 69, "velocity": 109, "channel": 0}, {"type": "note_on", "time": 117, "note": 68, "velocity": 111, "channel": 0}, {"type": "note_off", "time": 165, "note": 68, "velocity": 111, "channel": 0}, {"type": "note_on", "time": 16, "note": 65, "velocity": 116, "channel": 0}, {"type": "note_off", "time": 116, "note": 65, "velocity": 116, "channel": 0}, {"type": "note_on", "time": 107, "note": 63, "velocity": 118, "channel": 0}, {"type": "note_off", "time": 133, "note": 63, "velocity": 118, "channel": 0}, {"type": "note_on", "time": 30, "note": 60, "velocity": 111, "channel": 0}, {"type": "note_off", "time": 99, "note": 60, "velocity": 111, "channel": 0}, {"type": "note_on", "time": 94, "note": 64, "velocity": 110, "channel": 0}, {"type": "note_off", "time": 150, "note": 64, "velocity": 110, "channel": 0}, {"type": "note_on", "time": 16, "note": 67, "velocity": 110, "channel": 0}, {"type": "note_off", "time": 103, "note": 67, "velocity": 110, "channel": 0}, {"type": "note_on", "time": 37, "note": 64, "velocity": 106, "channel": 0}, {"type": "note_off", "time": 282, "note": 64, "velocity": 106, "channel": 0}, {"type": "note_on", "time": 1934, "note": 65, "velocity": 119, "channel": 0}, {"type": "note_off", "time": 99, "note": 65, "velocity": 119, "channel": 0}, {"type": "note_on", "time": 27, "note": 68, "velocity": 103, "channel": 0}, {"type": "note_off", "time": 52, "note": 68, "velocity": 103, "channel": 0}, {"type": "note_on", "time": 12, "note": 70, "velocity": 116, "channel": 0}, {"type": "note_off", "time": 80, "note": 70, "velocity": 116, "channel": 0}, {"type": "note_on", "time": 13, "note": 71, "velocity": 122, "channel": 0}, {"type": "note_off", "time": 65, "note": 71, "velocity": 122, "channel": 0}, {"type": "note_on", "time": 20, "note": 70, "velocity": 108, "channel": 0}, {"type": "note_off", "time": 80, "note": 70, "velocity": 108, "channel": 0}, {"type": "note_on", "time": 30, "note": 68, "velocity": 116, "channel": 0}, {"type": "note_off", "time": 65, "note": 68, "velocity": 116, "channel": 0}, {"type": "note_on", "time": 17, "note": 65, "velocity": 116, "channel": 0}, {"type": "note_off", "time": 109, "note": 65, "velocity": 116, "channel": 0}, {"type": "note_on", "time": 25, "note": 68, "velocity": 101, "channel": 0}, {"type": "note_off", "time": 39, "note": 68, "velocity": 101, "channel": 0}, {"type": "note_on", "time": 18, "note": 70, "velocity": 110, "channel": 0}, {"type": "note_off", "time": 75, "note": 70, "velocity": 110, "channel": 0}, {"type": "note_on", "time": 9, "note": 71, "velocity": 119, "channel": 0}, {"type": "note_off", "time": 77, "note": 71, "velocity": 119, "channel": 0}, {"type": "note_on", "time": 11, "note": 70, "velocity": 106, "channel": 0}, {"type": "note_off", "time": 82, "note": 70, "velocity": 106, "channel": 0}, {"type": "note_on", "time": 26, "note": 68, "velocity": 115, "channel": 0}, {"type": "note_off", "time": 52, "note": 68, "velocity": 115, "channel": 0}, {"type": "note_on", "time": 27, "note": 65, "velocity": 114, "channel": 0}, {"type": "note_off", "time": 80, "note": 65, "velocity": 114, "channel": 0}, {"type": "note_on", "time": 34, "note": 68, "velocity": 101, "channel": 0}, {"type": "note_off", "time": 63, "note": 68, "velocity": 101, "channel": 0}, {"type": "note_on", "time": 15, "note": 70, "velocity": 110, "channel": 0}, {"type": "note_off", "time": 80, "note": 70, "velocity": 110, "channel": 0}, {"type": "note_on", "time": 3, "note": 71, "velocity": 121, "channel": 0}, {"type": "note_off", "time": 97, "note": 71, "velocity": 121, "channel": 0}, {"type": "note_on", "time": 20, "note": 70, "velocity": 103, "channel": 0}, {"type": "note_off", "time": 56, "note": 70, "velocity": 103, "channel": 0}, {"type": "note_on", "time": 55, "note": 68, "velocity": 119, "channel": 0}, {"type": "note_off", "time": 71, "note": 68, "velocity": 119, "channel": 0}, {"type": "note_on", "time": 8, "note": 65, "velocity": 116, "channel": 0}, {"type": "note_off", "time": 92, "note": 65, "velocity": 116, "channel": 0}, {"type": "note_on", "time": 28, "note": 68, "velocity": 99, "channel": 0}, {"type": "note_off", "time": 33, "note": 68, "velocity": 99, "channel": 0}, {"type": "note_on", "time": 24, "note": 70, "velocity": 112, "channel": 0}, {"type": "note_off", "time": 99, "note": 70, "velocity": 112, "channel": 0}, {"type": "note_on", "time": 1, "note": 71, "velocity": 123, "channel": 0}, {"type": "note_off", "time": 80, "note": 71, "velocity": 123, "channel": 0}, {"type": "note_on", "time": 13, "note": 70, "velocity": 107, "channel": 0}, {"type": "note_off", "time": 67, "note": 70, "velocity": 107, "channel": 0}, {"type": "note_on", "time": 43, "note": 68, "velocity": 116, "channel": 0}, {"type": "note_off", "time": 54, "note": 68, "velocity": 116, "channel": 0}, {"type": "note_on", "time": 30, "note": 65, "velocity": 116, "channel": 0}, {"type": "note_off", "time": 73, "note": 65, "velocity": 116, "channel": 0}, {"type": "note_on", "time": 26, "note": 68, "velocity": 108, "channel": 0}, {"type": "note_off", "time": 56, "note": 68, "velocity": 108, "channel": 0}, {"type": "note_on", "time": 18, "note": 70, "velocity": 110, "channel": 0}, {"type": "note_off", "time": 77, "note": 70, "velocity": 110, "channel": 0}, {"type": "note_on", "time": 9, "note": 71, "velocity": 120, "channel": 0}, {"type": "note_off", "time": 94, "note": 71, "velocity": 120, "channel": 0}, {"type": "note_on", "time": 15, "note": 70, "velocity": 104, "channel": 0}, {"type": "note_off", "time": 75, "note": 70, "velocity": 104, "channel": 0}, {"type": "note_on", "time": 37, "note": 68, "velocity": 118, "channel": 0}, {"type": "note_off", "time": 65, "note": 68, "velocity": 118, "channel": 0}, {"type": "note_on", "time": 15, "note": 65, "velocity": 116, "channel": 0}, {"type": "note_off", "time": 84, "note": 65, "velocity": 116, "channel": 0}, {"type": "note_on", "time": 13, "note": 64, "velocity": 125, "channel": 0}, {"type": "note_off", "time": 77, "note": 64, "velocity": 125, "channel": 0}, {"type": "note_on", "time": 3, "note": 63, "velocity": 121, "channel": 0}, {"type": "note_off", "time": 90, "note": 63, "velocity": 121, "channel": 0}, {"type": "note_on", "time": 31, "note": 60, "velocity": 122, "channel": 0}, {"type": "note_off", "time": 71, "note": 60, "velocity": 122, "channel": 0}, {"type": "note_on", "time": 13, "note": 59, "velocity": 114, "channel": 0}, {"type": "note_off", "time": 71, "note": 59, "velocity": 114, "channel": 0}, {"type": "note_on", "time": 24, "note": 58, "velocity": 110, "channel": 0}, {"type": "note_off", "time": 69, "note": 58, "velocity": 110, "channel": 0}, {"type": "note_on", "time": 18, "note": 56, "velocity": 107, "channel": 0}, {"type": "note_off", "time": 77, "note": 56, "velocity": 107, "channel": 0}, {"type": "note_on", "time": 37, "note": 52, "velocity": 117, "channel": 0}, {"type": "note_off", "time": 54, "note": 52, "velocity": 117, "channel": 0}, {"type": "note_on", "time": 9, "note": 51, "velocity": 115, "channel": 0}, {"type": "note_off", "time": 103, "note": 51, "velocity": 115, "channel": 0}, {"type": "note_on", "time": 11, "note": 48, "velocity": 114, "channel": 0}, {"type": "note_off", "time": 89, "note": 48, "velocity": 114, "channel": 0}, {"type": "note_on", "time": 4, "note": 47, "velocity": 118, "channel": 0}, {"type": "note_off", "time": 75, "note": 47, "velocity": 118, "channel": 0}, {"type": "note_on", "time": 20, "note": 47, "velocity": 113, "channel": 0}, {"type": "note_off", "time": 236, "note": 47, "velocity": 113, "channel": 0}, {"type": "note_on", "time": 1373, "note": 65, "velocity": 108, "channel": 0}, {"type": "note_off", "time": 110, "note": 65, "velocity": 108, "channel": 0}, {"type": "note_on", "time": 70, "note": 64, "velocity": 112, "channel": 0}, {"type": "note_off", "time": 127, "note": 64, "velocity": 112, "channel": 0}, {"type": "note_on", "time": 72, "note": 63, "velocity": 117, "channel": 0}, {"type": "note_off", "time": 110, "note": 63, "velocity": 117, "channel": 0}, {"type": "note_on", "time": 84, "note": 62, "velocity": 123, "channel": 0}, {"type": "note_off", "time": 126, "note": 62, "velocity": 123, "channel": 0}, {"type": "note_on", "time": 48, "note": 61, "velocity": 125, "channel": 0}, {"type": "note_off", "time": 171, "note": 61, "velocity": 125, "channel": 0}, {"type": "note_on", "time": 9, "note": 62, "velocity": 122, "channel": 0}, {"type": "note_off", "time": 178, "note": 62, "velocity": 122, "channel": 0}, {"type": "note_on", "time": 44, "note": 63, "velocity": 119, "channel": 0}, {"type": "note_off", "time": 146, "note": 63, "velocity": 119, "channel": 0}, {"type": "note_on", "time": 49, "note": 64, "velocity": 116, "channel": 0}, {"type": "note_off", "time": 82, "note": 64, "velocity": 116, "channel": 0}, {"type": "note_on", "time": 31, "note": 65, "velocity": 104, "channel": 0}, {"type": "note_off", "time": 400, "note": 65, "velocity": 104, "channel": 0}, {"type": "note_on", "time": 45, "note": 62, "velocity": 111, "channel": 0}, {"type": "note_off", "time": 107, "note": 62, "velocity": 111, "channel": 0}, {"type": "note_on", "time": 20, "note": 60, "velocity": 108, "channel": 0}, {"type": "note_off", "time": 73, "note": 60, "velocity": 108, "channel": 0}, {"type": "note_on", "time": 16, "note": 58, "velocity": 101, "channel": 0}, {"type": "note_off", "time": 56, "note": 58, "velocity": 101, "channel": 0}, {"type": "note_on", "time": 63, "note": 57, "velocity": 103, "channel": 0}, {"type": "note_off", "time": 101, "note": 57, "velocity": 103, "channel": 0}, {"type": "note_on", "time": 94, "note": 55, "velocity": 93, "channel": 0}, {"type": "note_off", "time": 310, "note": 55, "velocity": 93, "channel": 0}, {"type": "note_on", "time": 451, "note": 72, "velocity": 112, "channel": 0}, {"type": "note_off", "time": 255, "note": 72, "velocity": 112, "channel": 0}, {"type": "note_on", "time": 28, "note": 70, "velocity": 110, "channel": 0}, {"type": "note_off", "time": 62, "note": 70, "velocity": 110, "channel": 0}, {"type": "note_on", "time": 43, "note": 68, "velocity": 111, "channel": 0}, {"type": "note_off", "time": 52, "note": 68, "velocity": 111, "channel": 0}, {"type": "note_on", "time": 37, "note": 65, "velocity": 113, "channel": 0}, {"type": "note_off", "time": 69, "note": 65, "velocity": 113, "channel": 0}, {"type": "note_on", "time": 20, "note": 61, "velocity": 124, "channel": 0}, {"type": "note_off", "time": 78, "note": 61, "velocity": 124, "channel": 0}, {"type": "note_on", "time": 22, "note": 60, "velocity": 120, "channel": 0}, {"type": "note_off", "time": 161, "note": 60, "velocity": 120, "channel": 0}, {"type": "note_on", "time": 14, "note": 58, "velocity": 106, "channel": 0}, {"type": "note_off", "time": 52, "note": 58, "velocity": 106, "channel": 0}, {"type": "note_on", "time": 23, "note": 63, "velocity": 116, "channel": 0}, {"type": "note_off", "time": 357, "note": 63, "velocity": 116, "channel": 0}, {"type": "note_on", "time": 154, "note": 62, "velocity": 121, "channel": 0}, {"type": "note_off", "time": 103, "note": 62, "velocity": 121, "channel": 0}, {"type": "note_on", "time": 4, "note": 63, "velocity": 120, "channel": 0}, {"type": "note_off", "time": 47, "note": 63, "velocity": 120, "channel": 0}, {"type": "note_on", "time": 16, "note": 62, "velocity": 117, "channel": 0}, {"type": "note_off", "time": 80, "note": 62, "velocity": 117, "channel": 0}, {"type": "note_on", "time": 5, "note": 60, "velocity": 116, "channel": 0}, {"type": "note_off", "time": 80, "note": 60, "velocity": 116, "channel": 0}, {"type": "note_on", "time": 11, "note": 59, "velocity": 113, "channel": 0}, {"type": "note_off", "time": 69, "note": 59, "velocity": 113, "channel": 0}, {"type": "note_on", "time": 51, "note": 62, "velocity": 118, "channel": 0}, {"type": "note_off", "time": 82, "note": 62, "velocity": 118, "channel": 0}, {"type": "note_on", "time": 17, "note": 65, "velocity": 106, "channel": 0}, {"type": "note_off", "time": 56, "note": 65, "velocity": 106, "channel": 0}, {"type": "note_on", "time": 26, "note": 69, "velocity": 105, "channel": 0}, {"type": "note_off", "time": 65, "note": 69, "velocity": 105, "channel": 0}, {"type": "note_on", "time": 20, "note": 68, "velocity": 109, "channel": 0}, {"type": "note_off", "time": 77, "note": 68, "velocity": 109, "channel": 0}, {"type": "note_on", "time": 110, "note": 64, "velocity": 116, "channel": 0}, {"type": "note_off", "time": 90, "note": 64, "velocity": 116, "channel": 0}, {"type": "note_on", "time": 26, "note": 61, "velocity": 106, "channel": 0}, {"type": "note_off", "time": 73, "note": 61, "velocity": 106, "channel": 0}, {"type": "note_on", "time": 13, "note": 58, "velocity": 111, "channel": 0}, {"type": "note_off", "time": 92, "note": 58, "velocity": 111, "channel": 0}, {"type": "note_on", "time": 16, "note": 61, "velocity": 108, "channel": 0}, {"type": "note_off", "time": 75, "note": 61, "velocity": 108, "channel": 0}, {"type": "note_on", "time": 13, "note": 64, "velocity": 104, "channel": 0}, {"type": "note_off", "time": 90, "note": 64, "velocity": 104, "channel": 0}, {"type": "note_on", "time": 11, "note": 68, "velocity": 112, "channel": 0}, {"type": "note_off", "time": 47, "note": 68, "velocity": 112, "channel": 0}, {"type": "note_on", "time": 24, "note": 67, "velocity": 118, "channel": 0}, {"type": "note_off", "time": 80, "note": 67, "velocity": 118, "channel": 0}, {"type": "note_on", "time": 398, "note": 68, "velocity": 113, "channel": 0}, {"type": "note_off", "time": 58, "note": 68, "velocity": 113, "channel": 0}, {"type": "note_on", "time": 13, "note": 67, "velocity": 117, "channel": 0}, {"type": "note_off", "time": 52, "note": 67, "velocity": 117, "channel": 0}, {"type": "note_on", "time": 300, "note": 68, "velocity": 113, "channel": 0}, {"type": "note_off", "time": 52, "note": 68, "velocity": 113, "channel": 0}, {"type": "note_on", "time": 15, "note": 67, "velocity": 116, "channel": 0}, {"type": "note_off", "time": 73, "note": 67, "velocity": 116, "channel": 0}, {"type": "note_on", "time": 529, "note": 68, "velocity": 119, "channel": 0}, {"type": "note_off", "time": 60, "note": 68, "velocity": 119, "channel": 0}, {"type": "note_on", "time": 273, "note": 67, "velocity": 118, "channel": 0}, {"type": "note_off", "time": 71, "note": 67, "velocity": 118, "channel": 0}, {"type": "note_on", "time": 379, "note": 68, "velocity": 117, "channel": 0}, {"type": "note_off", "time": 82, "note": 68, "velocity": 117, "channel": 0}, {"type": "note_on", "time": 265, "note": 67, "velocity": 116, "channel": 0}, {"type": "note_off", "time": 56, "note": 67, "velocity": 116, "channel": 0}, {"type": "note_on", "time": 421, "note": 68, "velocity": 114, "channel": 0}, {"type": "note_off", "time": 73, "note": 68, "velocity": 114, "channel": 0}, {"type": "note_on", "time": 203, "note": 67, "velocity": 104, "channel": 0}, {"type": "note_off", "time": 378, "note": 67, "velocity": 104, "channel": 0}, {"type": "note_on", "time": 24, "note": 68, "velocity": 114, "channel": 0}, {"type": "note_off", "time": 69, "note": 68, "velocity": 114, "channel": 0}, {"type": "note_on", "time": 22, "note": 67, "velocity": 108, "channel": 0}, {"type": "note_off", "time": 62, "note": 67, "velocity": 108, "channel": 0}, {"type": "note_on", "time": 11, "note": 68, "velocity": 110, "channel": 0}, {"type": "note_off", "time": 88, "note": 68, "velocity": 110, "channel": 0}, {"type": "note_on", "time": 34, "note": 67, "velocity": 110, "channel": 0}, {"type": "note_off", "time": 72, "note": 67, "velocity": 110, "channel": 0}, {"type": "note_on", "time": 19, "note": 68, "velocity": 109, "channel": 0}, {"type": "note_off", "time": 90, "note": 68, "velocity": 109, "channel": 0}, {"type": "note_on", "time": 22, "note": 67, "velocity": 103, "channel": 0}, {"type": "note_off", "time": 73, "note": 67, "velocity": 103, "channel": 0}, {"type": "note_on", "time": 117, "note": 68, "velocity": 94, "channel": 0}, {"type": "note_off", "time": 325, "note": 68, "velocity": 94, "channel": 0}, {"type": "note_on", "time": 28, "note": 67, "velocity": 115, "channel": 0}, {"type": "note_off", "time": 94, "note": 67, "velocity": 115, "channel": 0}, {"type": "note_on", "time": 780, "note": 72, "velocity": 124, "channel": 0}, {"type": "note_off", "time": 82, "note": 72, "velocity": 124, "channel": 0}, {"type": "note_on", "time": 73, "note": 70, "velocity": 110, "channel": 0}, {"type": "note_off", "time": 82, "note": 70, "velocity": 110, "channel": 0}, {"type": "note_on", "time": 131, "note": 69, "velocity": 111, "channel": 0}, {"type": "note_off", "time": 88, "note": 69, "velocity": 111, "channel": 0}, {"type": "note_on", "time": 97, "note": 65, "velocity": 121, "channel": 0}, {"type": "note_off", "time": 114, "note": 65, "velocity": 121, "channel": 0}, {"type": "note_on", "time": 101, "note": 60, "velocity": 121, "channel": 0}, {"type": "note_off", "time": 78, "note": 60, "velocity": 121, "channel": 0}, {"type": "note_on", "time": 33, "note": 65, "velocity": 115, "channel": 0}, {"type": "note_off", "time": 90, "note": 65, "velocity": 115, "channel": 0}, {"type": "note_on", "time": 90, "note": 65, "velocity": 113, "channel": 0}, {"type": "note_off", "time": 248, "note": 65, "velocity": 113, "channel": 0}, {"type": "note_on", "time": 311, "note": 72, "velocity": 118, "channel": 0}, {"type": "note_off", "time": 167, "note": 72, "velocity": 118, "channel": 0}, {"type": "note_on", "time": 24, "note": 70, "velocity": 106, "channel": 0}, {"type": "note_off", "time": 63, "note": 70, "velocity": 106, "channel": 0}, {"type": "note_on", "time": 35, "note": 68, "velocity": 112, "channel": 0}, {"type": "note_off", "time": 77, "note": 68, "velocity": 112, "channel": 0}, {"type": "note_on", "time": 24, "note": 65, "velocity": 112, "channel": 0}, {"type": "note_off", "time": 75, "note": 65, "velocity": 112, "channel": 0}, {"type": "note_on", "time": 5, "note": 67, "velocity": 114, "channel": 0}, {"type": "note_off", "time": 103, "note": 67, "velocity": 114, "channel": 0}, {"type": "note_on", "time": 16, "note": 64, "velocity": 115, "channel": 0}, {"type": "note_off", "time": 82, "note": 64, "velocity": 115, "channel": 0}, {"type": "note_on", "time": 15, "note": 65, "velocity": 121, "channel": 0}, {"type": "note_off", "time": 97, "note": 65, "velocity": 121, "channel": 0}, {"type": "note_on", "time": 45, "note": 67, "velocity": 106, "channel": 0}, {"type": "note_off", "time": 71, "note": 67, "velocity": 106, "channel": 0}, {"type": "note_on", "time": 7, "note": 68, "velocity": 103, "channel": 0}, {"type": "note_off", "time": 54, "note": 68, "velocity": 103, "channel": 0}, {"type": "note_on", "time": 16, "note": 70, "velocity": 118, "channel": 0}, {"type": "note_off", "time": 45, "note": 70, "velocity": 118, "channel": 0}, {"type": "note_on", "time": 27, "note": 71, "velocity": 119, "channel": 0}, {"type": "note_off", "time": 110, "note": 71, "velocity": 119, "channel": 0}, {"type": "note_on", "time": 9, "note": 73, "velocity": 120, "channel": 0}, {"type": "note_off", "time": 84, "note": 73, "velocity": 120, "channel": 0}, {"type": "note_on", "time": 0, "note": 71, "velocity": 118, "channel": 0}, {"type": "note_off", "time": 39, "note": 71, "velocity": 118, "channel": 0}, {"type": "note_on", "time": 365, "note": 73, "velocity": 117, "channel": 0}, {"type": "note_off", "time": 92, "note": 73, "velocity": 117, "channel": 0}, {"type": "note_on", "time": 10, "note": 72, "velocity": 119, "channel": 0}, {"type": "note_off", "time": 47, "note": 72, "velocity": 119, "channel": 0}, {"type": "note_on", "time": 13, "note": 71, "velocity": 120, "channel": 0}, {"type": "note_off", "time": 86, "note": 71, "velocity": 120, "channel": 0}, {"type": "note_on", "time": 24, "note": 63, "velocity": 105, "channel": 0}, {"type": "note_off", "time": 82, "note": 63, "velocity": 105, "channel": 0}, {"type": "note_on", "time": 7, "note": 64, "velocity": 106, "channel": 0}, {"type": "note_off", "time": 75, "note": 64, "velocity": 106, "channel": 0}, {"type": "note_on", "time": 13, "note": 65, "velocity": 109, "channel": 0}, {"type": "note_off", "time": 65, "note": 65, "velocity": 109, "channel": 0}, {"type": "note_on", "time": 20, "note": 70, "velocity": 114, "channel": 0}, {"type": "note_off", "time": 95, "note": 70, "velocity": 114, "channel": 0}, {"type": "note_on", "time": 27, "note": 68, "velocity": 109, "channel": 0}, {"type": "note_off", "time": 58, "note": 68, "velocity": 109, "channel": 0}, {"type": "note_on", "time": 10, "note": 65, "velocity": 114, "channel": 0}, {"type": "note_off", "time": 80, "note": 65, "velocity": 114, "channel": 0}, {"type": "note_on", "time": 23, "note": 66, "velocity": 119, "channel": 0}, {"type": "note_off", "time": 73, "note": 66, "velocity": 119, "channel": 0}, {"type": "note_on", "time": 12, "note": 67, "velocity": 113, "channel": 0}, {"type": "note_off", "time": 84, "note": 67, "velocity": 113, "channel": 0}, {"type": "note_on", "time": 25, "note": 61, "velocity": 115, "channel": 0}, {"type": "note_off", "time": 60, "note": 61, "velocity": 115, "channel": 0}, {"type": "note_on", "time": 9, "note": 62, "velocity": 115, "channel": 0}, {"type": "note_off", "time": 37, "note": 62, "velocity": 115, "channel": 0}, {"type": "note_on", "time": 7, "note": 67, "velocity": 102, "channel": 0}, {"type": "note_off", "time": 34, "note": 67, "velocity": 102, "channel": 0}, {"type": "note_on", "time": 8, "note": 65, "velocity": 116, "channel": 0}, {"type": "note_off", "time": 78, "note": 65, "velocity": 116, "channel": 0}, {"type": "note_on", "time": 18, "note": 64, "velocity": 114, "channel": 0}, {"type": "note_off", "time": 103, "note": 64, "velocity": 114, "channel": 0}, {"type": "note_on", "time": 27, "note": 63, "velocity": 119, "channel": 0}, {"type": "note_off", "time": 41, "note": 63, "velocity": 119, "channel": 0}, {"type": "note_on", "time": 30, "note": 62, "velocity": 114, "channel": 0}, {"type": "note_off", "time": 75, "note": 62, "velocity": 114, "channel": 0}, {"type": "note_on", "time": 9, "note": 61, "velocity": 115, "channel": 0}, {"type": "note_off", "time": 76, "note": 61, "velocity": 115, "channel": 0}, {"type": "note_on", "time": 20, "note": 60, "velocity": 118, "channel": 0}, {"type": "note_off", "time": 99, "note": 60, "velocity": 118, "channel": 0}, {"type": "note_on", "time": 15, "note": 57, "velocity": 106, "channel": 0}, {"type": "note_off", "time": 67, "note": 57, "velocity": 106, "channel": 0}, {"type": "note_on", "time": 20, "note": 56, "velocity": 103, "channel": 0}, {"type": "note_off", "time": 54, "note": 56, "velocity": 103, "channel": 0}, {"type": "note_on", "time": 13, "note": 55, "velocity": 102, "channel": 0}, {"type": "note_off", "time": 103, "note": 55, "velocity": 102, "channel": 0}, {"type": "note_on", "time": 7, "note": 54, "velocity": 107, "channel": 0}, {"type": "note_off", "time": 62, "note": 54, "velocity": 107, "channel": 0}, {"type": "note_on", "time": 65, "note": 65, "velocity": 118, "channel": 0}, {"type": "note_off", "time": 48, "note": 65, "velocity": 118, "channel": 0}, {"type": "note_on", "time": 26, "note": 64, "velocity": 111, "channel": 0}, {"type": "note_off", "time": 54, "note": 64, "velocity": 111, "channel": 0}, {"type": "note_on", "time": 41, "note": 63, "velocity": 116, "channel": 0}, {"type": "note_off", "time": 60, "note": 63, "velocity": 116, "channel": 0}, {"type": "note_on", "time": 24, "note": 62, "velocity": 119, "channel": 0}, {"type": "note_off", "time": 112, "note": 62, "velocity": 119, "channel": 0}, {"type": "note_on", "time": 18, "note": 60, "velocity": 117, "channel": 0}, {"type": "note_off", "time": 33, "note": 60, "velocity": 117, "channel": 0}, {"type": "note_on", "time": 20, "note": 58, "velocity": 112, "channel": 0}, {"type": "note_off", "time": 94, "note": 58, "velocity": 112, "channel": 0}, {"type": "note_on", "time": 14, "note": 57, "velocity": 110, "channel": 0}, {"type": "note_off", "time": 54, "note": 57, "velocity": 110, "channel": 0}, {"type": "note_on", "time": 23, "note": 56, "velocity": 104, "channel": 0}, {"type": "note_off", "time": 73, "note": 56, "velocity": 104, "channel": 0}, {"type": "note_on", "time": 438, "note": 68, "velocity": 112, "channel": 0}, {"type": "note_off", "time": 94, "note": 68, "velocity": 112, "channel": 0}, {"type": "note_on", "time": 21, "note": 67, "velocity": 111, "channel": 0}, {"type": "note_off", "time": 62, "note": 67, "velocity": 111, "channel": 0}, {"type": "note_on", "time": 20, "note": 66, "velocity": 112, "channel": 0}, {"type": "note_off", "time": 82, "note": 66, "velocity": 112, "channel": 0}, {"type": "note_on", "time": 10, "note": 65, "velocity": 118, "channel": 0}, {"type": "note_off", "time": 78, "note": 65, "velocity": 118, "channel": 0}, {"type": "note_on", "time": 410, "note": 75, "velocity": 118, "channel": 0}, {"type": "note_off", "time": 58, "note": 75, "velocity": 118, "channel": 0}, {"type": "note_on", "time": 19, "note": 74, "velocity": 106, "channel": 0}, {"type": "note_off", "time": 103, "note": 74, "velocity": 106, "channel": 0}, {"type": "note_on", "time": 33, "note": 73, "velocity": 121, "channel": 0}, {"type": "note_off", "time": 75, "note": 73, "velocity": 121, "channel": 0}, {"type": "note_on", "time": 12, "note": 72, "velocity": 125, "channel": 0}, {"type": "note_off", "time": 110, "note": 72, "velocity": 125, "channel": 0}, {"type": "note_on", "time": 347, "note": 68, "velocity": 114, "channel": 0}, {"type": "note_off", "time": 84, "note": 68, "velocity": 114, "channel": 0}, {"type": "note_on", "time": 26, "note": 67, "velocity": 107, "channel": 0}, {"type": "note_off", "time": 56, "note": 67, "velocity": 107, "channel": 0}, {"type": "note_on", "time": 16, "note": 66, "velocity": 114, "channel": 0}, {"type": "note_off", "time": 73, "note": 66, "velocity": 114, "channel": 0}, {"type": "note_on", "time": 11, "note": 65, "velocity": 123, "channel": 0}, {"type": "note_off", "time": 112, "note": 65, "velocity": 123, "channel": 0}, {"type": "note_on", "time": 351, "note": 75, "velocity": 116, "channel": 0}, {"type": "note_off", "time": 71, "note": 75, "velocity": 116, "channel": 0}, {"type": "note_on", "time": 24, "note": 74, "velocity": 112, "channel": 0}, {"type": "note_off", "time": 92, "note": 74, "velocity": 112, "channel": 0}, {"type": "note_on", "time": 20, "note": 73, "velocity": 116, "channel": 0}, {"type": "note_off", "time": 56, "note": 73, "velocity": 116, "channel": 0}, {"type": "note_on", "time": 28, "note": 72, "velocity": 123, "channel": 0}, {"type": "note_off", "time": 97, "note": 72, "velocity": 123, "channel": 0}, {"type": "note_on", "time": 398, "note": 73, "velocity": 113, "channel": 0}, {"type": "note_off", "time": 78, "note": 73, "velocity": 113, "channel": 0}, {"type": "note_on", "time": 18, "note": 72, "velocity": 121, "channel": 0}, {"type": "note_off", "time": 73, "note": 72, "velocity": 121, "channel": 0}, {"type": "note_on", "time": 22, "note": 70, "velocity": 118, "channel": 0}, {"type": "note_off", "time": 73, "note": 70, "velocity": 118, "channel": 0}, {"type": "note_on", "time": 9, "note": 71, "velocity": 125, "channel": 0}, {"type": "note_off", "time": 137, "note": 71, "velocity": 125, "channel": 0}, {"type": "note_on", "time": 367, "note": 63, "velocity": 112, "channel": 0}, {"type": "note_off", "time": 88, "note": 63, "velocity": 112, "channel": 0}, {"type": "note_on", "time": 135, "note": 65, "velocity": 111, "channel": 0}, {"type": "note_off", "time": 41, "note": 65, "velocity": 111, "channel": 0}, {"type": "note_on", "time": 14, "note": 69, "velocity": 117, "channel": 0}, {"type": "note_off", "time": 69, "note": 69, "velocity": 117, "channel": 0}, {"type": "note_on", "time": 22, "note": 63, "velocity": 110, "channel": 0}, {"type": "note_off", "time": 69, "note": 63, "velocity": 110, "channel": 0}, {"type": "note_on", "time": 13, "note": 64, "velocity": 113, "channel": 0}, {"type": "note_off", "time": 90, "note": 64, "velocity": 113, "channel": 0}, {"type": "note_on", "time": 13, "note": 67, "velocity": 112, "channel": 0}, {"type": "note_off", "time": 63, "note": 67, "velocity": 112, "channel": 0}, {"type": "note_on", "time": 28, "note": 65, "velocity": 121, "channel": 0}, {"type": "note_off", "time": 65, "note": 65, "velocity": 121, "channel": 0}, {"type": "note_on", "time": 33, "note": 61, "velocity": 119, "channel": 0}, {"type": "note_off", "time": 69, "note": 61, "velocity": 119, "channel": 0}, {"type": "note_on", "time": 11, "note": 60, "velocity": 119, "channel": 0}, {"type": "note_off", "time": 97, "note": 60, "velocity": 119, "channel": 0}, {"type": "note_on", "time": 18, "note": 58, "velocity": 117, "channel": 0}, {"type": "note_off", "time": 50, "note": 58, "velocity": 117, "channel": 0}, {"type": "note_on", "time": 9, "note": 57, "velocity": 111, "channel": 0}, {"type": "note_off", "time": 103, "note": 57, "velocity": 111, "channel": 0}, {"type": "note_on", "time": 26, "note": 53, "velocity": 103, "channel": 0}, {"type": "note_off", "time": 67, "note": 53, "velocity": 103, "channel": 0}, {"type": "note_on", "time": 52, "note": 58, "velocity": 108, "channel": 0}, {"type": "note_off", "time": 92, "note": 58, "velocity": 108, "channel": 0}, {"type": "note_on", "time": 9, "note": 59, "velocity": 114, "channel": 0}, {"type": "note_off", "time": 45, "note": 59, "velocity": 114, "channel": 0}, {"type": "note_on", "time": 18, "note": 60, "velocity": 114, "channel": 0}, {"type": "note_off", "time": 71, "note": 60, "velocity": 114, "channel": 0}, {"type": "note_on", "time": 20, "note": 65, "velocity": 119, "channel": 0}, {"type": "note_off", "time": 63, "note": 65, "velocity": 119, "channel": 0}, {"type": "note_on", "time": 20, "note": 64, "velocity": 116, "channel": 0}, {"type": "note_off", "time": 114, "note": 64, "velocity": 116, "channel": 0}, {"type": "note_on", "time": 7, "note": 67, "velocity": 113, "channel": 0}, {"type": "note_off", "time": 73, "note": 67, "velocity": 113, "channel": 0}, {"type": "note_on", "time": 5, "note": 65, "velocity": 114, "channel": 0}, {"type": "note_off", "time": 75, "note": 65, "velocity": 114, "channel": 0}, {"type": "note_on", "time": 16, "note": 61, "velocity": 119, "channel": 0}, {"type": "note_off", "time": 60, "note": 61, "velocity": 119, "channel": 0}, {"type": "note_on", "time": 28, "note": 58, "velocity": 108, "channel": 0}, {"type": "note_off", "time": 97, "note": 58, "velocity": 108, "channel": 0}, {"type": "note_on", "time": 5, "note": 53, "velocity": 99, "channel": 0}, {"type": "note_off", "time": 69, "note": 53, "velocity": 99, "channel": 0}, {"type": "note_on", "time": 24, "note": 57, "velocity": 108, "channel": 0}, {"type": "note_off", "time": 80, "note": 57, "velocity": 108, "channel": 0}, {"type": "note_on", "time": 24, "note": 58, "velocity": 110, "channel": 0}, {"type": "note_off", "time": 60, "note": 58, "velocity": 110, "channel": 0}, {"type": "note_on", "time": 15, "note": 60, "velocity": 122, "channel": 0}, {"type": "note_off", "time": 60, "note": 60, "velocity": 122, "channel": 0}, {"type": "note_on", "time": 20, "note": 62, "velocity": 119, "channel": 0}, {"type": "note_off", "time": 92, "note": 62, "velocity": 119, "channel": 0}, {"type": "note_on", "time": 15, "note": 63, "velocity": 114, "channel": 0}, {"type": "note_off", "time": 94, "note": 63, "velocity": 114, "channel": 0}, {"type": "note_on", "time": 13, "note": 65, "velocity": 120, "channel": 0}, {"type": "note_off", "time": 92, "note": 65, "velocity": 120, "channel": 0}, {"type": "note_on", "time": 20, "note": 67, "velocity": 100, "channel": 0}, {"type": "note_off", "time": 58, "note": 67, "velocity": 100, "channel": 0}, {"type": "note_on", "time": 50, "note": 71, "velocity": 117, "channel": 0}, {"type": "note_off", "time": 22, "note": 71, "velocity": 117, "channel": 0}, {"type": "note_on", "time": 14, "note": 72, "velocity": 111, "channel": 0}, {"type": "note_off", "time": 24, "note": 72, "velocity": 111, "channel": 0}, {"type": "note_on", "time": 10, "note": 74, "velocity": 106, "channel": 0}, {"type": "note_off", "time": 82, "note": 74, "velocity": 106, "channel": 0}, {"type": "note_on", "time": 23, "note": 75, "velocity": 113, "channel": 0}, {"type": "note_off", "time": 114, "note": 75, "velocity": 113, "channel": 0}, {"type": "note_on", "time": 29, "note": 74, "velocity": 107, "channel": 0}, {"type": "note_off", "time": 44, "note": 74, "velocity": 107, "channel": 0}, {"type": "note_on", "time": 16, "note": 72, "velocity": 124, "channel": 0}, {"type": "note_off", "time": 82, "note": 72, "velocity": 124, "channel": 0}, {"type": "note_on", "time": 18, "note": 71, "velocity": 119, "channel": 0}, {"type": "note_off", "time": 63, "note": 71, "velocity": 119, "channel": 0}, {"type": "note_on", "time": 28, "note": 69, "velocity": 114, "channel": 0}, {"type": "note_off", "time": 65, "note": 69, "velocity": 114, "channel": 0}, {"type": "note_on", "time": 31, "note": 68, "velocity": 98, "channel": 0}, {"type": "note_off", "time": 64, "note": 68, "velocity": 98, "channel": 0}, {"type": "note_on", "time": 28, "note": 66, "velocity": 116, "channel": 0}, {"type": "note_off", "time": 92, "note": 66, "velocity": 116, "channel": 0}, {"type": "note_on", "time": 9, "note": 65, "velocity": 116, "channel": 0}, {"type": "note_off", "time": 45, "note": 65, "velocity": 116, "channel": 0}, {"type": "note_on", "time": 18, "note": 63, "velocity": 118, "channel": 0}, {"type": "note_off", "time": 78, "note": 63, "velocity": 118, "channel": 0}, {"type": "note_on", "time": 24, "note": 62, "velocity": 113, "channel": 0}, {"type": "note_off", "time": 82, "note": 62, "velocity": 113, "channel": 0}, {"type": "note_on", "time": 37, "note": 60, "velocity": 123, "channel": 0}, {"type": "note_off", "time": 78, "note": 60, "velocity": 123, "channel": 0}, {"type": "note_on", "time": 5, "note": 58, "velocity": 112, "channel": 0}, {"type": "note_off", "time": 71, "note": 58, "velocity": 112, "channel": 0}, {"type": "note_on", "time": 462, "note": 45, "velocity": 119, "channel": 0}, {"type": "note_off", "time": 88, "note": 45, "velocity": 119, "channel": 0}, {"type": "note_on", "time": 703, "note": 70, "velocity": 117, "channel": 0}, {"type": "note_off", "time": 54, "note": 70, "velocity": 117, "channel": 0}, {"type": "note_on", "time": 25, "note": 72, "velocity": 119, "channel": 0}, {"type": "note_off", "time": 40, "note": 72, "velocity": 119, "channel": 0}, {"type": "note_on", "time": 9, "note": 71, "velocity": 122, "channel": 0}, {"type": "note_off", "time": 58, "note": 71, "velocity": 122, "channel": 0}, {"type": "note_on", "time": 11, "note": 70, "velocity": 118, "channel": 0}, {"type": "note_off", "time": 84, "note": 70, "velocity": 118, "channel": 0}, {"type": "note_on", "time": 32, "note": 68, "velocity": 112, "channel": 0}, {"type": "note_off", "time": 71, "note": 68, "velocity": 112, "channel": 0}, {"type": "note_on", "time": 25, "note": 67, "velocity": 113, "channel": 0}, {"type": "note_off", "time": 78, "note": 67, "velocity": 113, "channel": 0}, {"type": "note_on", "time": 15, "note": 66, "velocity": 127, "channel": 0}, {"type": "note_off", "time": 77, "note": 66, "velocity": 127, "channel": 0}, {"type": "note_on", "time": 18, "note": 65, "velocity": 121, "channel": 0}, {"type": "note_off", "time": 50, "note": 65, "velocity": 121, "channel": 0}, {"type": "note_on", "time": 20, "note": 63, "velocity": 121, "channel": 0}, {"type": "note_off", "time": 88, "note": 63, "velocity": 121, "channel": 0}, {"type": "note_on", "time": 8, "note": 61, "velocity": 111, "channel": 0}, {"type": "note_off", "time": 185, "note": 61, "velocity": 111, "channel": 0}, {"type": "note_on", "time": 41, "note": 58, "velocity": 115, "channel": 0}, {"type": "note_off", "time": 75, "note": 58, "velocity": 115, "channel": 0}, {"type": "note_on", "time": 11, "note": 60, "velocity": 121, "channel": 0}, {"type": "note_off", "time": 54, "note": 60, "velocity": 121, "channel": 0}, {"type": "note_on", "time": 11, "note": 61, "velocity": 110, "channel": 0}, {"type": "note_off", "time": 84, "note": 61, "velocity": 110, "channel": 0}, {"type": "note_on", "time": 13, "note": 62, "velocity": 121, "channel": 0}, {"type": "note_off", "time": 80, "note": 62, "velocity": 121, "channel": 0}, {"type": "note_on", "time": 15, "note": 63, "velocity": 119, "channel": 0}, {"type": "note_off", "time": 71, "note": 63, "velocity": 119, "channel": 0}, {"type": "note_on", "time": 48, "note": 60, "velocity": 120, "channel": 0}, {"type": "note_off", "time": 56, "note": 60, "velocity": 120, "channel": 0}, {"type": "note_on", "time": 3, "note": 55, "velocity": 110, "channel": 0}, {"type": "note_off", "time": 84, "note": 55, "velocity": 110, "channel": 0}, {"type": "note_on", "time": 15, "note": 51, "velocity": 104, "channel": 0}, {"type": "note_off", "time": 71, "note": 51, "velocity": 104, "channel": 0}, {"type": "note_on", "time": 52, "note": 54, "velocity": 109, "channel": 0}, {"type": "note_off", "time": 90, "note": 54, "velocity": 109, "channel": 0}, {"type": "note_on", "time": 35, "note": 63, "velocity": 118, "channel": 0}, {"type": "note_off", "time": 1150, "note": 63, "velocity": 118, "channel": 0}, {"type": "note_on", "time": 25, "note": 64, "velocity": 119, "channel": 0}, {"type": "note_off", "time": 96, "note": 64, "velocity": 119, "channel": 0}, {"type": "note_on", "time": 97, "note": 65, "velocity": 120, "channel": 0}, {"type": "note_off", "time": 103, "note": 65, "velocity": 120, "channel": 0}, {"type": "note_on", "time": 30, "note": 60, "velocity": 116, "channel": 0}, {"type": "note_off", "time": 58, "note": 60, "velocity": 116, "channel": 0}, {"type": "note_on", "time": 21, "note": 57, "velocity": 102, "channel": 0}, {"type": "note_off", "time": 63, "note": 57, "velocity": 102, "channel": 0}, {"type": "note_on", "time": 39, "note": 53, "velocity": 84, "channel": 0}, {"type": "note_off", "time": 39, "note": 53, "velocity": 84, "channel": 0}, {"type": "note_on", "time": 39, "note": 58, "velocity": 110, "channel": 0}, {"type": "note_off", "time": 84, "note": 58, "velocity": 110, "channel": 0}, {"type": "note_on", "time": 39, "note": 59, "velocity": 101, "channel": 0}, {"type": "note_off", "time": 105, "note": 59, "velocity": 101, "channel": 0}, {"type": "note_on", "time": 64, "note": 60, "velocity": 107, "channel": 0}, {"type": "note_off", "time": 229, "note": 60, "velocity": 107, "channel": 0}, {"type": "note_on", "time": 814, "note": 65, "velocity": 123, "channel": 0}, {"type": "note_off", "time": 82, "note": 65, "velocity": 123, "channel": 0}, {"type": "note_on", "time": 30, "note": 66, "velocity": 110, "channel": 0}, {"type": "note_off", "time": 75, "note": 66, "velocity": 110, "channel": 0}, {"type": "note_on", "time": 10, "note": 67, "velocity": 116, "channel": 0}, {"type": "note_off", "time": 90, "note": 67, "velocity": 116, "channel": 0}, {"type": "note_on", "time": 11, "note": 63, "velocity": 109, "channel": 0}, {"type": "note_off", "time": 56, "note": 63, "velocity": 109, "channel": 0}, {"type": "note_on", "time": 17, "note": 64, "velocity": 108, "channel": 0}, {"type": "note_off", "time": 71, "note": 64, "velocity": 108, "channel": 0}, {"type": "note_on", "time": 37, "note": 67, "velocity": 118, "channel": 0}, {"type": "note_off", "time": 63, "note": 67, "velocity": 118, "channel": 0}, {"type": "note_on", "time": 31, "note": 65, "velocity": 123, "channel": 0}, {"type": "note_off", "time": 52, "note": 65, "velocity": 123, "channel": 0}, {"type": "note_on", "time": 32, "note": 62, "velocity": 116, "channel": 0}, {"type": "note_off", "time": 67, "note": 62, "velocity": 116, "channel": 0}, {"type": "note_on", "time": 8, "note": 58, "velocity": 100, "channel": 0}, {"type": "note_off", "time": 86, "note": 58, "velocity": 100, "channel": 0}, {"type": "note_on", "time": 95, "note": 64, "velocity": 122, "channel": 0}, {"type": "note_off", "time": 80, "note": 64, "velocity": 122, "channel": 0}, {"type": "note_on", "time": 32, "note": 65, "velocity": 122, "channel": 0}, {"type": "note_off", "time": 86, "note": 65, "velocity": 122, "channel": 0}, {"type": "note_on", "time": 8, "note": 62, "velocity": 110, "channel": 0}, {"type": "note_off", "time": 54, "note": 62, "velocity": 110, "channel": 0}, {"type": "note_on", "time": 36, "note": 58, "velocity": 115, "channel": 0}, {"type": "note_off", "time": 58, "note": 58, "velocity": 115, "channel": 0}, {"type": "note_on", "time": 20, "note": 57, "velocity": 106, "channel": 0}, {"type": "note_off", "time": 63, "note": 57, "velocity": 106, "channel": 0}, {"type": "note_on", "time": 40, "note": 55, "velocity": 99, "channel": 0}, {"type": "note_off", "time": 80, "note": 55, "velocity": 99, "channel": 0}, {"type": "note_on", "time": 25, "note": 64, "velocity": 124, "channel": 0}, {"type": "note_off", "time": 82, "note": 64, "velocity": 124, "channel": 0}, {"type": "note_on", "time": 19, "note": 65, "velocity": 122, "channel": 0}, {"type": "note_off", "time": 73, "note": 65, "velocity": 122, "channel": 0}, {"type": "note_on", "time": 21, "note": 62, "velocity": 111, "channel": 0}, {"type": "note_off", "time": 67, "note": 62, "velocity": 111, "channel": 0}, {"type": "note_on", "time": 28, "note": 58, "velocity": 112, "channel": 0}, {"type": "note_off", "time": 73, "note": 58, "velocity": 112, "channel": 0}, {"type": "note_on", "time": 13, "note": 57, "velocity": 101, "channel": 0}, {"type": "note_off", "time": 56, "note": 57, "velocity": 101, "channel": 0}, {"type": "note_on", "time": 18, "note": 55, "velocity": 115, "channel": 0}, {"type": "note_off", "time": 56, "note": 55, "velocity": 115, "channel": 0}, {"type": "note_on", "time": 52, "note": 64, "velocity": 111, "channel": 0}, {"type": "note_off", "time": 94, "note": 64, "velocity": 111, "channel": 0}, {"type": "note_on", "time": 16, "note": 65, "velocity": 121, "channel": 0}, {"type": "note_off", "time": 62, "note": 65, "velocity": 121, "channel": 0}, {"type": "note_on", "time": 26, "note": 60, "velocity": 107, "channel": 0}, {"type": "note_off", "time": 73, "note": 60, "velocity": 107, "channel": 0}, {"type": "note_on", "time": 29, "note": 57, "velocity": 111, "channel": 0}, {"type": "note_off", "time": 65, "note": 57, "velocity": 111, "channel": 0}, {"type": "note_on", "time": 21, "note": 55, "velocity": 104, "channel": 0}, {"type": "note_off", "time": 94, "note": 55, "velocity": 104, "channel": 0}, {"type": "note_on", "time": 5, "note": 53, "velocity": 97, "channel": 0}, {"type": "note_off", "time": 67, "note": 53, "velocity": 97, "channel": 0}, {"type": "note_on", "time": 35, "note": 64, "velocity": 121, "channel": 0}, {"type": "note_off", "time": 82, "note": 64, "velocity": 121, "channel": 0}, {"type": "note_on", "time": 18, "note": 65, "velocity": 121, "channel": 0}, {"type": "note_off", "time": 73, "note": 65, "velocity": 121, "channel": 0}, {"type": "note_on", "time": 874, "note": 65, "velocity": 87, "channel": 0}, {"type": "note_off", "time": 63, "note": 65, "velocity": 87, "channel": 0}, {"type": "note_on", "time": 18, "note": 71, "velocity": 110, "channel": 0}, {"type": "note_off", "time": 92, "note": 71, "velocity": 110, "channel": 0}, {"type": "note_on", "time": 112, "note": 72, "velocity": 114, "channel": 0}, {"type": "note_off", "time": 109, "note": 72, "velocity": 114, "channel": 0}, {"type": "note_on", "time": 67, "note": 68, "velocity": 119, "channel": 0}, {"type": "note_off", "time": 118, "note": 68, "velocity": 119, "channel": 0}, {"type": "note_on", "time": 65, "note": 69, "velocity": 111, "channel": 0}, {"type": "note_off", "time": 126, "note": 69, "velocity": 111, "channel": 0}, {"type": "note_on", "time": 99, "note": 64, "velocity": 122, "channel": 0}, {"type": "note_off", "time": 63, "note": 64, "velocity": 122, "channel": 0}, {"type": "note_on", "time": 84, "note": 65, "velocity": 115, "channel": 0}, {"type": "note_off", "time": 103, "note": 65, "velocity": 115, "channel": 0}, {"type": "note_on", "time": 124, "note": 59, "velocity": 111, "channel": 0}, {"type": "note_off", "time": 84, "note": 59, "velocity": 111, "channel": 0}, {"type": "note_on", "time": 94, "note": 60, "velocity": 115, "channel": 0}, {"type": "note_off", "time": 120, "note": 60, "velocity": 115, "channel": 0}, {"type": "note_on", "time": 68, "note": 55, "velocity": 104, "channel": 0}, {"type": "note_off", "time": 100, "note": 55, "velocity": 104, "channel": 0}, {"type": "note_on", "time": 8, "note": 56, "velocity": 104, "channel": 0}, {"type": "note_off", "time": 355, "note": 56, "velocity": 104, "channel": 0}, {"type": "note_on", "time": 1085, "note": 59, "velocity": 119, "channel": 0}, {"type": "note_off", "time": 139, "note": 59, "velocity": 119, "channel": 0}, {"type": "note_on", "time": 20, "note": 70, "velocity": 116, "channel": 0}, {"type": "note_off", "time": 141, "note": 70, "velocity": 116, "channel": 0}, {"type": "note_on", "time": 1043, "note": 71, "velocity": 106, "channel": 0}, {"type": "note_off", "time": 60, "note": 71, "velocity": 106, "channel": 0}, {"type": "note_on", "time": 13, "note": 72, "velocity": 114, "channel": 0}, {"type": "note_off", "time": 129, "note": 72, "velocity": 114, "channel": 0}, {"type": "note_on", "time": 340, "note": 72, "velocity": 113, "channel": 0}, {"type": "note_off", "time": 80, "note": 72, "velocity": 113, "channel": 0}, {"type": "note_on", "time": 26, "note": 70, "velocity": 109, "channel": 0}, {"type": "note_off", "time": 69, "note": 70, "velocity": 109, "channel": 0}, {"type": "note_on", "time": 9, "note": 69, "velocity": 115, "channel": 0}, {"type": "note_off", "time": 97, "note": 69, "velocity": 115, "channel": 0}, {"type": "note_on", "time": 9, "note": 67, "velocity": 116, "channel": 0}, {"type": "note_off", "time": 48, "note": 67, "velocity": 116, "channel": 0}, {"type": "note_on", "time": 16, "note": 66, "velocity": 106, "channel": 0}, {"type": "note_off", "time": 73, "note": 66, "velocity": 106, "channel": 0}, {"type": "note_on", "time": 18, "note": 69, "velocity": 114, "channel": 0}, {"type": "note_off", "time": 86, "note": 69, "velocity": 114, "channel": 0}, {"type": "note_on", "time": 18, "note": 67, "velocity": 117, "channel": 0}, {"type": "note_off", "time": 82, "note": 67, "velocity": 117, "channel": 0}, {"type": "note_on", "time": 40, "note": 62, "velocity": 117, "channel": 0}, {"type": "note_off", "time": 71, "note": 62, "velocity": 117, "channel": 0}, {"type": "note_on", "time": 28, "note": 65, "velocity": 112, "channel": 0}, {"type": "note_off", "time": 30, "note": 65, "velocity": 112, "channel": 0}, {"type": "note_on", "time": 3, "note": 66, "velocity": 101, "channel": 0}, {"type": "note_off", "time": 39, "note": 66, "velocity": 101, "channel": 0}, {"type": "note_on", "time": 9, "note": 65, "velocity": 117, "channel": 0}, {"type": "note_off", "time": 54, "note": 65, "velocity": 117, "channel": 0}, {"type": "note_on", "time": 24, "note": 64, "velocity": 122, "channel": 0}, {"type": "note_off", "time": 91, "note": 64, "velocity": 122, "channel": 0}, {"type": "note_on", "time": 11, "note": 63, "velocity": 117, "channel": 0}, {"type": "note_off", "time": 82, "note": 63, "velocity": 117, "channel": 0}, {"type": "note_on", "time": 12, "note": 62, "velocity": 111, "channel": 0}, {"type": "note_off", "time": 69, "note": 62, "velocity": 111, "channel": 0}, {"type": "note_on", "time": 19, "note": 61, "velocity": 110, "channel": 0}, {"type": "note_off", "time": 62, "note": 61, "velocity": 110, "channel": 0}, {"type": "note_on", "time": 15, "note": 60, "velocity": 109, "channel": 0}, {"type": "note_off", "time": 78, "note": 60, "velocity": 109, "channel": 0}, {"type": "note_on", "time": 30, "note": 58, "velocity": 106, "channel": 0}, {"type": "note_off", "time": 52, "note": 58, "velocity": 106, "channel": 0}, {"type": "note_on", "time": 13, "note": 53, "velocity": 96, "channel": 0}, {"type": "note_off", "time": 90, "note": 53, "velocity": 96, "channel": 0}, {"type": "note_on", "time": 29, "note": 55, "velocity": 104, "channel": 0}, {"type": "note_off", "time": 71, "note": 55, "velocity": 104, "channel": 0}, {"type": "note_on", "time": 5, "note": 57, "velocity": 105, "channel": 0}, {"type": "note_off", "time": 84, "note": 57, "velocity": 105, "channel": 0}, {"type": "note_on", "time": 35, "note": 53, "velocity": 95, "channel": 0}, {"type": "note_off", "time": 67, "note": 53, "velocity": 95, "channel": 0}, {"type": "note_on", "time": 26, "note": 58, "velocity": 103, "channel": 0}, {"type": "note_off", "time": 84, "note": 58, "velocity": 103, "channel": 0}, {"type": "note_on", "time": 31, "note": 59, "velocity": 111, "channel": 0}, {"type": "note_off", "time": 45, "note": 59, "velocity": 111, "channel": 0}, {"type": "note_on", "time": 20, "note": 60, "velocity": 110, "channel": 0}, {"type": "note_off", "time": 73, "note": 60, "velocity": 110, "channel": 0}, {"type": "note_on", "time": 13, "note": 65, "velocity": 118, "channel": 0}, {"type": "note_off", "time": 80, "note": 65, "velocity": 118, "channel": 0}, {"type": "note_on", "time": 14, "note": 64, "velocity": 115, "channel": 0}, {"type": "note_off", "time": 63, "note": 64, "velocity": 115, "channel": 0}, {"type": "note_on", "time": 32, "note": 67, "velocity": 116, "channel": 0}, {"type": "note_off", "time": 74, "note": 67, "velocity": 116, "channel": 0}, {"type": "note_on", "time": 9, "note": 65, "velocity": 117, "channel": 0}, {"type": "note_off", "time": 73, "note": 65, "velocity": 117, "channel": 0}, {"type": "note_on", "time": 18, "note": 60, "velocity": 116, "channel": 0}, {"type": "note_off", "time": 86, "note": 60, "velocity": 116, "channel": 0}, {"type": "note_on", "time": 9, "note": 57, "velocity": 105, "channel": 0}, {"type": "note_off", "time": 76, "note": 57, "velocity": 105, "channel": 0}, {"type": "note_on", "time": 33, "note": 53, "velocity": 105, "channel": 0}, {"type": "note_off", "time": 50, "note": 53, "velocity": 105, "channel": 0}, {"type": "note_on", "time": 31, "note": 58, "velocity": 109, "channel": 0}, {"type": "note_off", "time": 88, "note": 58, "velocity": 109, "channel": 0}, {"type": "note_on", "time": 20, "note": 57, "velocity": 101, "channel": 0}, {"type": "note_off", "time": 69, "note": 57, "velocity": 101, "channel": 0}, {"type": "note_on", "time": 9, "note": 58, "velocity": 109, "channel": 0}, {"type": "note_off", "time": 88, "note": 58, "velocity": 109, "channel": 0}, {"type": "note_on", "time": 29, "note": 65, "velocity": 115, "channel": 0}, {"type": "note_off", "time": 90, "note": 65, "velocity": 115, "channel": 0}, {"type": "note_on", "time": 27, "note": 64, "velocity": 114, "channel": 0}, {"type": "note_off", "time": 80, "note": 64, "velocity": 114, "channel": 0}, {"type": "note_on", "time": 8, "note": 65, "velocity": 108, "channel": 0}, {"type": "note_off", "time": 77, "note": 65, "velocity": 108, "channel": 0}, {"type": "note_on", "time": 3, "note": 70, "velocity": 111, "channel": 0}, {"type": "note_off", "time": 77, "note": 70, "velocity": 111, "channel": 0}, {"type": "note_on", "time": 49, "note": 67, "velocity": 109, "channel": 0}, {"type": "note_off", "time": 56, "note": 67, "velocity": 109, "channel": 0}, {"type": "note_on", "time": 7, "note": 68, "velocity": 112, "channel": 0}, {"type": "note_off", "time": 60, "note": 68, "velocity": 112, "channel": 0}, {"type": "note_on", "time": 43, "note": 60, "velocity": 112, "channel": 0}, {"type": "note_off", "time": 63, "note": 60, "velocity": 112, "channel": 0}, {"type": "note_on", "time": 4, "note": 61, "velocity": 103, "channel": 0}, {"type": "note_off", "time": 68, "note": 61, "velocity": 103, "channel": 0}, {"type": "note_on", "time": 7, "note": 62, "velocity": 104, "channel": 0}, {"type": "note_off", "time": 102, "note": 62, "velocity": 104, "channel": 0}, {"type": "note_on", "time": 5, "note": 67, "velocity": 114, "channel": 0}, {"type": "note_off", "time": 112, "note": 67, "velocity": 114, "channel": 0}, {"type": "note_on", "time": 7, "note": 62, "velocity": 109, "channel": 0}, {"type": "note_off", "time": 77, "note": 62, "velocity": 109, "channel": 0}, {"type": "note_on", "time": 11, "note": 64, "velocity": 110, "channel": 0}, {"type": "note_off", "time": 73, "note": 64, "velocity": 110, "channel": 0}, {"type": "note_on", "time": 35, "note": 67, "velocity": 116, "channel": 0}, {"type": "note_off", "time": 58, "note": 67, "velocity": 116, "channel": 0}, {"type": "note_on", "time": 26, "note": 65, "velocity": 113, "channel": 0}, {"type": "note_off", "time": 47, "note": 65, "velocity": 113, "channel": 0}, {"type": "note_on", "time": 20, "note": 60, "velocity": 109, "channel": 0}, {"type": "note_off", "time": 96, "note": 60, "velocity": 109, "channel": 0}, {"type": "note_on", "time": 6, "note": 62, "velocity": 114, "channel": 0}, {"type": "note_off", "time": 109, "note": 62, "velocity": 114, "channel": 0}, {"type": "note_on", "time": 9, "note": 63, "velocity": 117, "channel": 0}, {"type": "note_off", "time": 101, "note": 63, "velocity": 117, "channel": 0}, {"type": "note_on", "time": 562, "note": 60, "velocity": 114, "channel": 0}, {"type": "note_off", "time": 50, "note": 60, "velocity": 114, "channel": 0}, {"type": "note_on", "time": 6, "note": 61, "velocity": 106, "channel": 0}, {"type": "note_off", "time": 46, "note": 61, "velocity": 106, "channel": 0}, {"type": "note_on", "time": 13, "note": 62, "velocity": 117, "channel": 0}, {"type": "note_off", "time": 45, "note": 62, "velocity": 117, "channel": 0}, {"type": "note_on", "time": 22, "note": 63, "velocity": 118, "channel": 0}, {"type": "note_off", "time": 86, "note": 63, "velocity": 118, "channel": 0}, {"type": "note_on", "time": 26, "note": 60, "velocity": 107, "channel": 0}, {"type": "note_off", "time": 47, "note": 60, "velocity": 107, "channel": 0}, {"type": "note_on", "time": 18, "note": 64, "velocity": 112, "channel": 0}, {"type": "note_off", "time": 94, "note": 64, "velocity": 112, "channel": 0}, {"type": "note_on", "time": 10, "note": 65, "velocity": 101, "channel": 0}, {"type": "note_off", "time": 449, "note": 65, "velocity": 101, "channel": 0}, {"type": "note_on", "time": 23, "note": 62, "velocity": 116, "channel": 0}, {"type": "note_off", "time": 84, "note": 62, "velocity": 116, "channel": 0}, {"type": "note_on", "time": 18, "note": 60, "velocity": 114, "channel": 0}, {"type": "note_off", "time": 41, "note": 60, "velocity": 114, "channel": 0}, {"type": "note_on", "time": 20, "note": 56, "velocity": 106, "channel": 0}, {"type": "note_off", "time": 95, "note": 56, "velocity": 106, "channel": 0}, {"type": "note_on", "time": 29, "note": 55, "velocity": 99, "channel": 0}, {"type": "note_off", "time": 288, "note": 55, "velocity": 99, "channel": 0}, {"type": "note_on", "time": 576, "note": 53, "velocity": 103, "channel": 0}, {"type": "note_off", "time": 69, "note": 53, "velocity": 103, "channel": 0}, {"type": "note_on", "time": 102, "note": 55, "velocity": 109, "channel": 0}, {"type": "note_off", "time": 86, "note": 55, "velocity": 109, "channel": 0}, {"type": "note_on", "time": 14, "note": 56, "velocity": 106, "channel": 0}, {"type": "note_off", "time": 62, "note": 56, "velocity": 106, "channel": 0}, {"type": "note_on", "time": 9, "note": 57, "velocity": 104, "channel": 0}, {"type": "note_off", "time": 86, "note": 57, "velocity": 104, "channel": 0}, {"type": "note_on", "time": 12, "note": 60, "velocity": 117, "channel": 0}, {"type": "note_off", "time": 80, "note": 60, "velocity": 117, "channel": 0}, {"type": "note_on", "time": 10, "note": 62, "velocity": 109, "channel": 0}, {"type": "note_off", "time": 96, "note": 62, "velocity": 109, "channel": 0}, {"type": "note_on", "time": 86, "note": 65, "velocity": 118, "channel": 0}, {"type": "note_off", "time": 78, "note": 65, "velocity": 118, "channel": 0}, {"type": "note_on", "time": 137, "note": 68, "velocity": 108, "channel": 0}, {"type": "note_off", "time": 90, "note": 68, "velocity": 108, "channel": 0}, {"type": "note_on", "time": 19, "note": 69, "velocity": 109, "channel": 0}, {"type": "note_off", "time": 48, "note": 69, "velocity": 109, "channel": 0}, {"type": "note_on", "time": 13, "note": 65, "velocity": 110, "channel": 0}, {"type": "note_off", "time": 112, "note": 65, "velocity": 110, "channel": 0}, {"type": "note_on", "time": 34, "note": 67, "velocity": 99, "channel": 0}, {"type": "note_off", "time": 37, "note": 67, "velocity": 99, "channel": 0}, {"type": "note_on", "time": 116, "note": 65, "velocity": 96, "channel": 0}, {"type": "note_off", "time": 319, "note": 65, "velocity": 96, "channel": 0}, {"type": "note_on", "time": 55, "note": 62, "velocity": 115, "channel": 0}, {"type": "note_off", "time": 69, "note": 62, "velocity": 115, "channel": 0}, {"type": "note_on", "time": 17, "note": 60, "velocity": 113, "channel": 0}, {"type": "note_off", "time": 103, "note": 60, "velocity": 113, "channel": 0}, {"type": "note_on", "time": 35, "note": 58, "velocity": 98, "channel": 0}, {"type": "note_off", "time": 110, "note": 58, "velocity": 98, "channel": 0}, {"type": "note_on", "time": 69, "note": 57, "velocity": 97, "channel": 0}, {"type": "note_off", "time": 133, "note": 57, "velocity": 97, "channel": 0}, {"type": "note_on", "time": 40, "note": 55, "velocity": 97, "channel": 0}, {"type": "note_off", "time": 293, "note": 55, "velocity": 97, "channel": 0}, {"type": "note_on", "time": 481, "note": 72, "velocity": 115, "channel": 0}, {"type": "note_off", "time": 122, "note": 72, "velocity": 115, "channel": 0}, {"type": "note_on", "time": 173, "note": 70, "velocity": 111, "channel": 0}, {"type": "note_off", "time": 88, "note": 70, "velocity": 111, "channel": 0}, {"type": "note_on", "time": 5, "note": 68, "velocity": 106, "channel": 0}, {"type": "note_off", "time": 56, "note": 68, "velocity": 106, "channel": 0}, {"type": "note_on", "time": 30, "note": 65, "velocity": 111, "channel": 0}, {"type": "note_off", "time": 69, "note": 65, "velocity": 111, "channel": 0}, {"type": "note_on", "time": 30, "note": 61, "velocity": 119, "channel": 0}, {"type": "note_off", "time": 105, "note": 61, "velocity": 119, "channel": 0}, {"type": "note_on", "time": 11, "note": 60, "velocity": 117, "channel": 0}, {"type": "note_off", "time": 98, "note": 60, "velocity": 117, "channel": 0}, {"type": "note_on", "time": 7, "note": 59, "velocity": 104, "channel": 0}, {"type": "note_off", "time": 34, "note": 59, "velocity": 104, "channel": 0}, {"type": "note_on", "time": 155, "note": 63, "velocity": 102, "channel": 0}, {"type": "note_off", "time": 321, "note": 63, "velocity": 102, "channel": 0}, {"type": "note_on", "time": 11, "note": 62, "velocity": 118, "channel": 0}, {"type": "note_off", "time": 150, "note": 62, "velocity": 118, "channel": 0}, {"type": "note_on", "time": 1095, "note": 60, "velocity": 121, "channel": 0}, {"type": "note_off", "time": 213, "note": 60, "velocity": 121, "channel": 0}, {"type": "note_on", "time": 4, "note": 62, "velocity": 120, "channel": 0}, {"type": "note_off", "time": 466, "note": 62, "velocity": 120, "channel": 0}, {"type": "note_on", "time": 16, "note": 60, "velocity": 117, "channel": 0}, {"type": "note_off", "time": 84, "note": 60, "velocity": 117, "channel": 0}, {"type": "note_on", "time": 9, "note": 61, "velocity": 123, "channel": 0}, {"type": "note_off", "time": 104, "note": 61, "velocity": 123, "channel": 0}, {"type": "note_on", "time": 10, "note": 62, "velocity": 126, "channel": 0}, {"type": "note_off", "time": 161, "note": 62, "velocity": 126, "channel": 0}, {"type": "note_on", "time": 15, "note": 60, "velocity": 120, "channel": 0}, {"type": "note_off", "time": 50, "note": 60, "velocity": 120, "channel": 0}, {"type": "note_on", "time": 24, "note": 61, "velocity": 124, "channel": 0}, {"type": "note_off", "time": 97, "note": 61, "velocity": 124, "channel": 0}, {"type": "note_on", "time": 15, "note": 62, "velocity": 124, "channel": 0}, {"type": "note_off", "time": 148, "note": 62, "velocity": 124, "channel": 0}, {"type": "note_on", "time": 57, "note": 60, "velocity": 118, "channel": 0}, {"type": "note_off", "time": 67, "note": 60, "velocity": 118, "channel": 0}, {"type": "note_on", "time": 13, "note": 61, "velocity": 120, "channel": 0}, {"type": "note_off", "time": 97, "note": 61, "velocity": 120, "channel": 0}, {"type": "note_on", "time": 13, "note": 62, "velocity": 123, "channel": 0}, {"type": "note_off", "time": 165, "note": 62, "velocity": 123, "channel": 0}, {"type": "note_on", "time": 18, "note": 60, "velocity": 117, "channel": 0}, {"type": "note_off", "time": 77, "note": 60, "velocity": 117, "channel": 0}, {"type": "note_on", "time": 16, "note": 61, "velocity": 121, "channel": 0}, {"type": "note_off", "time": 109, "note": 61, "velocity": 121, "channel": 0}, {"type": "note_on", "time": 20, "note": 62, "velocity": 120, "channel": 0}, {"type": "note_off", "time": 163, "note": 62, "velocity": 120, "channel": 0}, {"type": "note_on", "time": 13, "note": 59, "velocity": 114, "channel": 0}, {"type": "note_off", "time": 54, "note": 59, "velocity": 114, "channel": 0}, {"type": "note_on", "time": 11, "note": 61, "velocity": 120, "channel": 0}, {"type": "note_off", "time": 148, "note": 61, "velocity": 120, "channel": 0}, {"type": "note_on", "time": 22, "note": 62, "velocity": 120, "channel": 0}, {"type": "note_off", "time": 127, "note": 62, "velocity": 120, "channel": 0}, {"type": "note_on", "time": 15, "note": 59, "velocity": 115, "channel": 0}, {"type": "note_off", "time": 47, "note": 59, "velocity": 115, "channel": 0}, {"type": "note_on", "time": 35, "note": 61, "velocity": 116, "channel": 0}, {"type": "note_off", "time": 109, "note": 61, "velocity": 116, "channel": 0}, {"type": "note_on", "time": 23, "note": 62, "velocity": 120, "channel": 0}, {"type": "note_off", "time": 122, "note": 62, "velocity": 120, "channel": 0}, {"type": "note_on", "time": 35, "note": 59, "velocity": 117, "channel": 0}, {"type": "note_off", "time": 70, "note": 59, "velocity": 117, "channel": 0}, {"type": "note_on", "time": 17, "note": 62, "velocity": 117, "channel": 0}, {"type": "note_off", "time": 117, "note": 62, "velocity": 117, "channel": 0}, {"type": "note_on", "time": 4, "note": 65, "velocity": 119, "channel": 0}, {"type": "note_off", "time": 68, "note": 65, "velocity": 119, "channel": 0}, {"type": "note_on", "time": 4, "note": 68, "velocity": 111, "channel": 0}, {"type": "note_off", "time": 72, "note": 68, "velocity": 111, "channel": 0}, {"type": "note_on", "time": 10, "note": 71, "velocity": 116, "channel": 0}, {"type": "note_off", "time": 97, "note": 71, "velocity": 116, "channel": 0}, {"type": "note_on", "time": 4, "note": 74, "velocity": 115, "channel": 0}, {"type": "note_off", "time": 102, "note": 74, "velocity": 115, "channel": 0}, {"type": "note_on", "time": 849, "note": 73, "velocity": 114, "channel": 0}, {"type": "note_off", "time": 110, "note": 73, "velocity": 114, "channel": 0}, {"type": "note_on", "time": 10, "note": 74, "velocity": 112, "channel": 0}, {"type": "note_off", "time": 88, "note": 74, "velocity": 112, "channel": 0}, {"type": "note_on", "time": 18, "note": 70, "velocity": 118, "channel": 0}, {"type": "note_off", "time": 90, "note": 70, "velocity": 118, "channel": 0}, {"type": "note_on", "time": 14, "note": 71, "velocity": 119, "channel": 0}, {"type": "note_off", "time": 78, "note": 71, "velocity": 119, "channel": 0}, {"type": "note_on", "time": 11, "note": 67, "velocity": 115, "channel": 0}, {"type": "note_off", "time": 92, "note": 67, "velocity": 115, "channel": 0}, {"type": "note_on", "time": 4, "note": 68, "velocity": 110, "channel": 0}, {"type": "note_off", "time": 62, "note": 68, "velocity": 110, "channel": 0}, {"type": "note_on", "time": 8, "note": 64, "velocity": 120, "channel": 0}, {"type": "note_off", "time": 115, "note": 64, "velocity": 120, "channel": 0}, {"type": "note_on", "time": 10, "note": 65, "velocity": 119, "channel": 0}, {"type": "note_off", "time": 62, "note": 65, "velocity": 119, "channel": 0}, {"type": "note_on", "time": 4, "note": 61, "velocity": 125, "channel": 0}, {"type": "note_off", "time": 92, "note": 61, "velocity": 125, "channel": 0}, {"type": "note_on", "time": 3, "note": 62, "velocity": 119, "channel": 0}, {"type": "note_off", "time": 101, "note": 62, "velocity": 119, "channel": 0}, {"type": "note_on", "time": 8, "note": 58, "velocity": 114, "channel": 0}, {"type": "note_off", "time": 98, "note": 58, "velocity": 114, "channel": 0}, {"type": "note_on", "time": 4, "note": 59, "velocity": 112, "channel": 0}, {"type": "note_off", "time": 73, "note": 59, "velocity": 112, "channel": 0}, {"type": "note_on", "time": 29, "note": 55, "velocity": 111, "channel": 0}, {"type": "note_off", "time": 69, "note": 55, "velocity": 111, "channel": 0}, {"type": "note_on", "time": 18, "note": 56, "velocity": 112, "channel": 0}, {"type": "note_off", "time": 84, "note": 56, "velocity": 112, "channel": 0}, {"type": "note_on", "time": 806, "note": 53, "velocity": 103, "channel": 0}, {"type": "note_off", "time": 55, "note": 53, "velocity": 103, "channel": 0}, {"type": "note_on", "time": 3, "note": 55, "velocity": 106, "channel": 0}, {"type": "note_off", "time": 78, "note": 55, "velocity": 106, "channel": 0}, {"type": "note_on", "time": 18, "note": 57, "velocity": 111, "channel": 0}, {"type": "note_off", "time": 60, "note": 57, "velocity": 111, "channel": 0}, {"type": "note_on", "time": 24, "note": 60, "velocity": 120, "channel": 0}, {"type": "note_off", "time": 63, "note": 60, "velocity": 120, "channel": 0}, {"type": "note_on", "time": 28, "note": 62, "velocity": 116, "channel": 0}, {"type": "note_off", "time": 82, "note": 62, "velocity": 116, "channel": 0}, {"type": "note_on", "time": 12, "note": 65, "velocity": 117, "channel": 0}, {"type": "note_off", "time": 73, "note": 65, "velocity": 117, "channel": 0}, {"type": "note_on", "time": 10, "note": 64, "velocity": 116, "channel": 0}, {"type": "note_off", "time": 99, "note": 64, "velocity": 116, "channel": 0}, {"type": "note_on", "time": 6, "note": 67, "velocity": 112, "channel": 0}, {"type": "note_off", "time": 80, "note": 67, "velocity": 112, "channel": 0}, {"type": "note_on", "time": 5, "note": 65, "velocity": 115, "channel": 0}, {"type": "note_off", "time": 84, "note": 65, "velocity": 115, "channel": 0}, {"type": "note_on", "time": 12, "note": 60, "velocity": 115, "channel": 0}, {"type": "note_off", "time": 71, "note": 60, "velocity": 115, "channel": 0}, {"type": "note_on", "time": 10, "note": 57, "velocity": 105, "channel": 0}, {"type": "note_off", "time": 62, "note": 57, "velocity": 105, "channel": 0}, {"type": "note_on", "time": 40, "note": 55, "velocity": 107, "channel": 0}, {"type": "note_off", "time": 77, "note": 55, "velocity": 107, "channel": 0}, {"type": "note_on", "time": 33, "note": 53, "velocity": 102, "channel": 0}, {"type": "note_off", "time": 77, "note": 53, "velocity": 102, "channel": 0}, {"type": "note_on", "time": 20, "note": 55, "velocity": 104, "channel": 0}, {"type": "note_off", "time": 60, "note": 55, "velocity": 104, "channel": 0}, {"type": "note_on", "time": 48, "note": 58, "velocity": 109, "channel": 0}, {"type": "note_off", "time": 75, "note": 58, "velocity": 109, "channel": 0}, {"type": "note_on", "time": 17, "note": 60, "velocity": 119, "channel": 0}, {"type": "note_off", "time": 82, "note": 60, "velocity": 119, "channel": 0}, {"type": "note_on", "time": 18, "note": 61, "velocity": 114, "channel": 0}, {"type": "note_off", "time": 67, "note": 61, "velocity": 114, "channel": 0}, {"type": "note_on", "time": 20, "note": 62, "velocity": 119, "channel": 0}, {"type": "note_off", "time": 91, "note": 62, "velocity": 119, "channel": 0}, {"type": "note_on", "time": 12, "note": 63, "velocity": 115, "channel": 0}, {"type": "note_off", "time": 71, "note": 63, "velocity": 115, "channel": 0}, {"type": "note_on", "time": 25, "note": 64, "velocity": 119, "channel": 0}, {"type": "note_off", "time": 84, "note": 64, "velocity": 119, "channel": 0}, {"type": "note_on", "time": 13, "note": 65, "velocity": 115, "channel": 0}, {"type": "note_off", "time": 73, "note": 65, "velocity": 115, "channel": 0}, {"type": "note_on", "time": 5, "note": 61, "velocity": 118, "channel": 0}, {"type": "note_off", "time": 63, "note": 61, "velocity": 118, "channel": 0}, {"type": "note_on", "time": 15, "note": 62, "velocity": 112, "channel": 0}, {"type": "note_off", "time": 117, "note": 62, "velocity": 112, "channel": 0}, {"type": "note_on", "time": 20, "note": 65, "velocity": 111, "channel": 0}, {"type": "note_off", "time": 50, "note": 65, "velocity": 111, "channel": 0}, {"type": "note_on", "time": 3, "note": 68, "velocity": 106, "channel": 0}, {"type": "note_off", "time": 96, "note": 68, "velocity": 106, "channel": 0}, {"type": "note_on", "time": 5, "note": 63, "velocity": 112, "channel": 0}, {"type": "note_off", "time": 86, "note": 63, "velocity": 112, "channel": 0}, {"type": "note_on", "time": 5, "note": 64, "velocity": 113, "channel": 0}, {"type": "note_off", "time": 94, "note": 64, "velocity": 113, "channel": 0}, {"type": "note_on", "time": 6, "note": 67, "velocity": 112, "channel": 0}, {"type": "note_off", "time": 80, "note": 67, "velocity": 112, "channel": 0}, {"type": "note_on", "time": 2, "note": 65, "velocity": 114, "channel": 0}, {"type": "note_off", "time": 91, "note": 65, "velocity": 114, "channel": 0}, {"type": "note_on", "time": 7, "note": 60, "velocity": 110, "channel": 0}, {"type": "note_off", "time": 78, "note": 60, "velocity": 110, "channel": 0}, {"type": "note_on", "time": 16, "note": 63, "velocity": 117, "channel": 0}, {"type": "note_off", "time": 69, "note": 63, "velocity": 117, "channel": 0}, {"type": "note_on", "time": 15, "note": 62, "velocity": 120, "channel": 0}, {"type": "note_off", "time": 82, "note": 62, "velocity": 120, "channel": 0}, {"type": "note_on", "time": 18, "note": 61, "velocity": 118, "channel": 0}, {"type": "note_off", "time": 88, "note": 61, "velocity": 118, "channel": 0}, {"type": "note_on", "time": 13, "note": 60, "velocity": 115, "channel": 0}, {"type": "note_off", "time": 80, "note": 60, "velocity": 115, "channel": 0}, {"type": "note_on", "time": 8, "note": 59, "velocity": 112, "channel": 0}, {"type": "note_off", "time": 87, "note": 59, "velocity": 112, "channel": 0}, {"type": "note_on", "time": 872, "note": 67, "velocity": 116, "channel": 0}, {"type": "note_off", "time": 179, "note": 67, "velocity": 116, "channel": 0}, {"type": "note_on", "time": 12, "note": 69, "velocity": 97, "channel": 0}, {"type": "note_off", "time": 80, "note": 69, "velocity": 97, "channel": 0}, {"type": "note_on", "time": 22, "note": 72, "velocity": 116, "channel": 0}, {"type": "note_off", "time": 421, "note": 72, "velocity": 116, "channel": 0}, {"type": "note_on", "time": 823, "note": 67, "velocity": 115, "channel": 0}, {"type": "note_off", "time": 133, "note": 67, "velocity": 115, "channel": 0}, {"type": "note_on", "time": 7, "note": 68, "velocity": 111, "channel": 0}, {"type": "note_off", "time": 103, "note": 68, "velocity": 111, "channel": 0}, {"type": "note_on", "time": 27, "note": 60, "velocity": 108, "channel": 0}, {"type": "note_off", "time": 537, "note": 60, "velocity": 108, "channel": 0}, {"type": "note_on", "time": 735, "note": 67, "velocity": 105, "channel": 0}, {"type": "note_off", "time": 127, "note": 67, "velocity": 105, "channel": 0}, {"type": "note_on", "time": 5, "note": 69, "velocity": 108, "channel": 0}, {"type": "note_off", "time": 156, "note": 69, "velocity": 108, "channel": 0}, {"type": "note_on", "time": 22, "note": 72, "velocity": 109, "channel": 0}, {"type": "note_off", "time": 342, "note": 72, "velocity": 109, "channel": 0}, {"type": "note_on", "time": 58, "note": 66, "velocity": 114, "channel": 0}, {"type": "note_off", "time": 112, "note": 66, "velocity": 114, "channel": 0}, {"type": "note_on", "time": 14, "note": 68, "velocity": 110, "channel": 0}, {"type": "note_off", "time": 163, "note": 68, "velocity": 110, "channel": 0}, {"type": "note_on", "time": 25, "note": 74, "velocity": 109, "channel": 0}, {"type": "note_off", "time": 396, "note": 74, "velocity": 109, "channel": 0}, {"type": "note_on", "time": 603, "note": 74, "velocity": 113, "channel": 0}, {"type": "note_off", "time": 103, "note": 74, "velocity": 113, "channel": 0}, {"type": "note_on", "time": 17, "note": 73, "velocity": 107, "channel": 0}, {"type": "note_off", "time": 62, "note": 73, "velocity": 107, "channel": 0}, {"type": "note_on", "time": 9, "note": 72, "velocity": 112, "channel": 0}, {"type": "note_off", "time": 75, "note": 72, "velocity": 112, "channel": 0}, {"type": "note_on", "time": 26, "note": 69, "velocity": 110, "channel": 0}, {"type": "note_off", "time": 77, "note": 69, "velocity": 110, "channel": 0}, {"type": "note_on", "time": 29, "note": 68, "velocity": 111, "channel": 0}, {"type": "note_off", "time": 90, "note": 68, "velocity": 111, "channel": 0}, {"type": "note_on", "time": 4, "note": 67, "velocity": 111, "channel": 0}, {"type": "note_off", "time": 72, "note": 67, "velocity": 111, "channel": 0}, {"type": "note_on", "time": 14, "note": 62, "velocity": 109, "channel": 0}, {"type": "note_off", "time": 99, "note": 62, "velocity": 109, "channel": 0}, {"type": "note_on", "time": 11, "note": 61, "velocity": 103, "channel": 0}, {"type": "note_off", "time": 67, "note": 61, "velocity": 103, "channel": 0}, {"type": "note_on", "time": 5, "note": 60, "velocity": 102, "channel": 0}, {"type": "note_off", "time": 86, "note": 60, "velocity": 102, "channel": 0}, {"type": "note_on", "time": 31, "note": 57, "velocity": 114, "channel": 0}, {"type": "note_off", "time": 63, "note": 57, "velocity": 114, "channel": 0}, {"type": "note_on", "time": 20, "note": 56, "velocity": 111, "channel": 0}, {"type": "note_off", "time": 88, "note": 56, "velocity": 111, "channel": 0}, {"type": "note_on", "time": 18, "note": 55, "velocity": 107, "channel": 0}, {"type": "note_off", "time": 43, "note": 55, "velocity": 107, "channel": 0}, {"type": "note_on", "time": 18, "note": 50, "velocity": 109, "channel": 0}, {"type": "note_off", "time": 95, "note": 50, "velocity": 109, "channel": 0}, {"type": "note_on", "time": 15, "note": 49, "velocity": 109, "channel": 0}, {"type": "note_off", "time": 86, "note": 49, "velocity": 109, "channel": 0}, {"type": "note_on", "time": 10, "note": 48, "velocity": 96, "channel": 0}, {"type": "note_off", "time": 101, "note": 48, "velocity": 96, "channel": 0}, {"type": "note_on", "time": 78, "note": 47, "velocity": 108, "channel": 0}, {"type": "note_off", "time": 95, "note": 47, "velocity": 108, "channel": 0}, {"type": "note_on", "time": 3, "note": 49, "velocity": 101, "channel": 0}, {"type": "note_off", "time": 80, "note": 49, "velocity": 101, "channel": 0}, {"type": "note_on", "time": 13, "note": 50, "velocity": 104, "channel": 0}, {"type": "note_off", "time": 78, "note": 50, "velocity": 104, "channel": 0}, {"type": "note_on", "time": 33, "note": 55, "velocity": 103, "channel": 0}, {"type": "note_off", "time": 61, "note": 55, "velocity": 103, "channel": 0}, {"type": "note_on", "time": 5, "note": 56, "velocity": 102, "channel": 0}, {"type": "note_off", "time": 103, "note": 56, "velocity": 102, "channel": 0}, {"type": "note_on", "time": 6, "note": 57, "velocity": 106, "channel": 0}, {"type": "note_off", "time": 60, "note": 57, "velocity": 106, "channel": 0}, {"type": "note_on", "time": 4, "note": 60, "velocity": 103, "channel": 0}, {"type": "note_off", "time": 84, "note": 60, "velocity": 103, "channel": 0}, {"type": "note_on", "time": 22, "note": 61, "velocity": 97, "channel": 0}, {"type": "note_off", "time": 45, "note": 61, "velocity": 97, "channel": 0}, {"type": "note_on", "time": 16, "note": 62, "velocity": 107, "channel": 0}, {"type": "note_off", "time": 80, "note": 62, "velocity": 107, "channel": 0}, {"type": "note_on", "time": 47, "note": 67, "velocity": 115, "channel": 0}, {"type": "note_off", "time": 62, "note": 67, "velocity": 115, "channel": 0}, {"type": "note_on", "time": 5, "note": 68, "velocity": 117, "channel": 0}, {"type": "note_off", "time": 99, "note": 68, "velocity": 117, "channel": 0}, {"type": "note_on", "time": 15, "note": 69, "velocity": 104, "channel": 0}, {"type": "note_off", "time": 50, "note": 69, "velocity": 104, "channel": 0}, {"type": "note_on", "time": 14, "note": 72, "velocity": 114, "channel": 0}, {"type": "note_off", "time": 84, "note": 72, "velocity": 114, "channel": 0}, {"type": "note_on", "time": 32, "note": 73, "velocity": 118, "channel": 0}, {"type": "note_off", "time": 71, "note": 73, "velocity": 118, "channel": 0}, {"type": "note_on", "time": 9, "note": 74, "velocity": 118, "channel": 0}, {"type": "note_off", "time": 77, "note": 74, "velocity": 118, "channel": 0}, {"type": "note_on", "time": 22, "note": 74, "velocity": 9, "channel": 0}, {"type": "note_off", "time": 137, "note": 74, "velocity": 9, "channel": 0}, {"type": "note_on", "time": 630, "note": 74, "velocity": 106, "channel": 0}, {"type": "note_off", "time": 220, "note": 74, "velocity": 106, "channel": 0}, {"type": "note_on", "time": 37, "note": 72, "velocity": 109, "channel": 0}, {"type": "note_off", "time": 86, "note": 72, "velocity": 109, "channel": 0}, {"type": "note_on", "time": 37, "note": 69, "velocity": 100, "channel": 0}, {"type": "note_off", "time": 71, "note": 69, "velocity": 100, "channel": 0}, {"type": "note_on", "time": 13, "note": 67, "velocity": 104, "channel": 0}, {"type": "note_off", "time": 88, "note": 67, "velocity": 104, "channel": 0}, {"type": "note_on", "time": 30, "note": 66, "velocity": 115, "channel": 0}, {"type": "note_off", "time": 54, "note": 66, "velocity": 115, "channel": 0}, {"type": "note_on", "time": 26, "note": 65, "velocity": 113, "channel": 0}, {"type": "note_off", "time": 60, "note": 65, "velocity": 113, "channel": 0}, {"type": "note_on", "time": 30, "note": 65, "velocity": 103, "channel": 0}, {"type": "note_off", "time": 227, "note": 65, "velocity": 103, "channel": 0}, {"type": "note_on", "time": 606, "note": 67, "velocity": 121, "channel": 0}, {"type": "note_off", "time": 94, "note": 67, "velocity": 121, "channel": 0}, {"type": "note_on", "time": 17, "note": 68, "velocity": 114, "channel": 0}, {"type": "note_off", "time": 77, "note": 68, "velocity": 114, "channel": 0}, {"type": "note_on", "time": 2, "note": 65, "velocity": 119, "channel": 0}, {"type": "note_off", "time": 78, "note": 65, "velocity": 119, "channel": 0}, {"type": "note_on", "time": 25, "note": 61, "velocity": 108, "channel": 0}, {"type": "note_off", "time": 72, "note": 61, "velocity": 108, "channel": 0}, {"type": "note_on", "time": 10, "note": 58, "velocity": 106, "channel": 0}, {"type": "note_off", "time": 106, "note": 58, "velocity": 106, "channel": 0}, {"type": "note_on", "time": 0, "note": 55, "velocity": 103, "channel": 0}, {"type": "note_off", "time": 92, "note": 55, "velocity": 103, "channel": 0}, {"type": "note_on", "time": 18, "note": 67, "velocity": 117, "channel": 0}, {"type": "note_off", "time": 80, "note": 67, "velocity": 117, "channel": 0}, {"type": "note_on", "time": 15, "note": 68, "velocity": 111, "channel": 0}, {"type": "note_off", "time": 79, "note": 68, "velocity": 111, "channel": 0}, {"type": "note_on", "time": 5, "note": 65, "velocity": 106, "channel": 0}, {"type": "note_off", "time": 98, "note": 65, "velocity": 106, "channel": 0}, {"type": "note_on", "time": 16, "note": 61, "velocity": 107, "channel": 0}, {"type": "note_off", "time": 47, "note": 61, "velocity": 107, "channel": 0}, {"type": "note_on", "time": 22, "note": 58, "velocity": 109, "channel": 0}, {"type": "note_off", "time": 86, "note": 58, "velocity": 109, "channel": 0}, {"type": "note_on", "time": 9, "note": 53, "velocity": 101, "channel": 0}, {"type": "note_off", "time": 75, "note": 53, "velocity": 101, "channel": 0}, {"type": "note_on", "time": 32, "note": 57, "velocity": 103, "channel": 0}, {"type": "note_off", "time": 73, "note": 57, "velocity": 103, "channel": 0}, {"type": "note_on", "time": 11, "note": 60, "velocity": 107, "channel": 0}, {"type": "note_off", "time": 50, "note": 60, "velocity": 107, "channel": 0}, {"type": "note_on", "time": 16, "note": 58, "velocity": 106, "channel": 0}, {"type": "note_off", "time": 82, "note": 58, "velocity": 106, "channel": 0}, {"type": "note_on", "time": 58, "note": 53, "velocity": 99, "channel": 0}, {"type": "note_off", "time": 67, "note": 53, "velocity": 99, "channel": 0}, {"type": "note_on", "time": 16, "note": 56, "velocity": 102, "channel": 0}, {"type": "note_off", "time": 71, "note": 56, "velocity": 102, "channel": 0}, {"type": "note_on", "time": 31, "note": 54, "velocity": 96, "channel": 0}, {"type": "note_off", "time": 48, "note": 54, "velocity": 96, "channel": 0}, {"type": "note_on", "time": 15, "note": 55, "velocity": 98, "channel": 0}, {"type": "note_off", "time": 126, "note": 55, "velocity": 98, "channel": 0}, {"type": "note_on", "time": 11, "note": 58, "velocity": 104, "channel": 0}, {"type": "note_off", "time": 56, "note": 58, "velocity": 104, "channel": 0}, {"type": "note_on", "time": 16, "note": 61, "velocity": 96, "channel": 0}, {"type": "note_off", "time": 45, "note": 61, "velocity": 96, "channel": 0}, {"type": "note_on", "time": 40, "note": 65, "velocity": 113, "channel": 0}, {"type": "note_off", "time": 90, "note": 65, "velocity": 113, "channel": 0}, {"type": "note_on", "time": 14, "note": 64, "velocity": 113, "channel": 0}, {"type": "note_off", "time": 94, "note": 64, "velocity": 113, "channel": 0}, {"type": "note_on", "time": 22, "note": 60, "velocity": 111, "channel": 0}, {"type": "note_off", "time": 62, "note": 60, "velocity": 111, "channel": 0}, {"type": "note_on", "time": 11, "note": 57, "velocity": 107, "channel": 0}, {"type": "note_off", "time": 65, "note": 57, "velocity": 107, "channel": 0}, {"type": "note_on", "time": 14, "note": 55, "velocity": 100, "channel": 0}, {"type": "note_off", "time": 67, "note": 55, "velocity": 100, "channel": 0}, {"type": "note_on", "time": 22, "note": 54, "velocity": 98, "channel": 0}, {"type": "note_off", "time": 47, "note": 54, "velocity": 98, "channel": 0}, {"type": "note_on", "time": 52, "note": 63, "velocity": 117, "channel": 0}, {"type": "note_off", "time": 86, "note": 63, "velocity": 117, "channel": 0}, {"type": "note_on", "time": 6, "note": 62, "velocity": 109, "channel": 0}, {"type": "note_off", "time": 95, "note": 62, "velocity": 109, "channel": 0}, {"type": "note_on", "time": 18, "note": 60, "velocity": 110, "channel": 0}, {"type": "note_off", "time": 71, "note": 60, "velocity": 110, "channel": 0}, {"type": "note_on", "time": 5, "note": 58, "velocity": 109, "channel": 0}, {"type": "note_off", "time": 75, "note": 58, "velocity": 109, "channel": 0}, {"type": "note_on", "time": 22, "note": 55, "velocity": 101, "channel": 0}, {"type": "note_off", "time": 71, "note": 55, "velocity": 101, "channel": 0}, {"type": "note_on", "time": 5, "note": 54, "velocity": 101, "channel": 0}, {"type": "note_off", "time": 60, "note": 54, "velocity": 101, "channel": 0}, {"type": "note_on", "time": 45, "note": 53, "velocity": 109, "channel": 0}, {"type": "note_off", "time": 65, "note": 53, "velocity": 109, "channel": 0}, {"type": "note_on", "time": 12, "note": 52, "velocity": 99, "channel": 0}, {"type": "note_off", "time": 65, "note": 52, "velocity": 99, "channel": 0}, {"type": "note_on", "time": 45, "note": 47, "velocity": 104, "channel": 0}, {"type": "note_off", "time": 64, "note": 47, "velocity": 104, "channel": 0}, {"type": "note_on", "time": 16, "note": 52, "velocity": 100, "channel": 0}, {"type": "note_off", "time": 82, "note": 52, "velocity": 100, "channel": 0}, {"type": "note_on", "time": 36, "note": 54, "velocity": 109, "channel": 0}, {"type": "note_off", "time": 50, "note": 54, "velocity": 109, "channel": 0}, {"type": "note_on", "time": 15, "note": 55, "velocity": 101, "channel": 0}, {"type": "note_off", "time": 77, "note": 55, "velocity": 101, "channel": 0}, {"type": "note_on", "time": 20, "note": 52, "velocity": 106, "channel": 0}, {"type": "note_off", "time": 183, "note": 52, "velocity": 106, "channel": 0}, {"type": "note_on", "time": 29, "note": 58, "velocity": 107, "channel": 0}, {"type": "note_off", "time": 78, "note": 58, "velocity": 107, "channel": 0}, {"type": "note_on", "time": 24, "note": 56, "velocity": 103, "channel": 0}, {"type": "note_off", "time": 80, "note": 56, "velocity": 103, "channel": 0}, {"type": "note_on", "time": 18, "note": 57, "velocity": 106, "channel": 0}, {"type": "note_off", "time": 48, "note": 57, "velocity": 106, "channel": 0}, {"type": "note_on", "time": 16, "note": 62, "velocity": 113, "channel": 0}, {"type": "note_off", "time": 99, "note": 62, "velocity": 113, "channel": 0}, {"type": "note_on", "time": 26, "note": 59, "velocity": 107, "channel": 0}, {"type": "note_off", "time": 65, "note": 59, "velocity": 107, "channel": 0}, {"type": "note_on", "time": 15, "note": 60, "velocity": 102, "channel": 0}, {"type": "note_off", "time": 56, "note": 60, "velocity": 102, "channel": 0}, {"type": "note_on", "time": 35, "note": 67, "velocity": 115, "channel": 0}, {"type": "note_off", "time": 71, "note": 67, "velocity": 115, "channel": 0}, {"type": "note_on", "time": 18, "note": 64, "velocity": 108, "channel": 0}, {"type": "note_off", "time": 97, "note": 64, "velocity": 108, "channel": 0}, {"type": "note_on", "time": 15, "note": 65, "velocity": 102, "channel": 0}, {"type": "note_off", "time": 43, "note": 65, "velocity": 102, "channel": 0}, {"type": "note_on", "time": 22, "note": 70, "velocity": 106, "channel": 0}, {"type": "note_off", "time": 90, "note": 70, "velocity": 106, "channel": 0}, {"type": "note_on", "time": 41, "note": 68, "velocity": 110, "channel": 0}, {"type": "note_off", "time": 62, "note": 68, "velocity": 110, "channel": 0}, {"type": "note_on", "time": 13, "note": 69, "velocity": 100, "channel": 0}, {"type": "note_off", "time": 73, "note": 69, "velocity": 100, "channel": 0}, {"type": "note_on", "time": 11, "note": 74, "velocity": 110, "channel": 0}, {"type": "note_off", "time": 71, "note": 74, "velocity": 110, "channel": 0}, {"type": "note_on", "time": 590, "note": 74, "velocity": 110, "channel": 0}, {"type": "note_off", "time": 77, "note": 74, "velocity": 110, "channel": 0}, {"type": "note_on", "time": 33, "note": 73, "velocity": 117, "channel": 0}, {"type": "note_off", "time": 48, "note": 73, "velocity": 117, "channel": 0}, {"type": "note_on", "time": 5, "note": 72, "velocity": 111, "channel": 0}, {"type": "note_off", "time": 52, "note": 72, "velocity": 111, "channel": 0}, {"type": "note_on", "time": 11, "note": 71, "velocity": 111, "channel": 0}, {"type": "note_off", "time": 61, "note": 71, "velocity": 111, "channel": 0}, {"type": "note_on", "time": 22, "note": 68, "velocity": 115, "channel": 0}, {"type": "note_off", "time": 97, "note": 68, "velocity": 115, "channel": 0}, {"type": "note_on", "time": 8, "note": 67, "velocity": 104, "channel": 0}, {"type": "note_off", "time": 71, "note": 67, "velocity": 104, "channel": 0}, {"type": "note_on", "time": 10, "note": 66, "velocity": 110, "channel": 0}, {"type": "note_off", "time": 59, "note": 66, "velocity": 110, "channel": 0}, {"type": "note_on", "time": 10, "note": 65, "velocity": 111, "channel": 0}, {"type": "note_off", "time": 78, "note": 65, "velocity": 111, "channel": 0}, {"type": "note_on", "time": 35, "note": 62, "velocity": 112, "channel": 0}, {"type": "note_off", "time": 58, "note": 62, "velocity": 112, "channel": 0}, {"type": "note_on", "time": 26, "note": 58, "velocity": 100, "channel": 0}, {"type": "note_off", "time": 91, "note": 58, "velocity": 100, "channel": 0}, {"type": "note_on", "time": 78, "note": 64, "velocity": 119, "channel": 0}, {"type": "note_off", "time": 73, "note": 64, "velocity": 119, "channel": 0}, {"type": "note_on", "time": 6, "note": 65, "velocity": 121, "channel": 0}, {"type": "note_off", "time": 45, "note": 65, "velocity": 121, "channel": 0}, {"type": "note_on", "time": 11, "note": 65, "velocity": 111, "channel": 0}, {"type": "note_off", "time": 395, "note": 65, "velocity": 111, "channel": 0}, {"type": "note_on", "time": 605, "note": 64, "velocity": 118, "channel": 0}, {"type": "note_off", "time": 214, "note": 64, "velocity": 118, "channel": 0}, {"type": "note_on", "time": 15, "note": 65, "velocity": 118, "channel": 0}, {"type": "note_off", "time": 554, "note": 65, "velocity": 118, "channel": 0}, {"type": "note_on", "time": 28, "note": 64, "velocity": 125, "channel": 0}, {"type": "note_off", "time": 103, "note": 64, "velocity": 125, "channel": 0}, {"type": "note_on", "time": 24, "note": 65, "velocity": 120, "channel": 0}, {"type": "note_off", "time": 594, "note": 65, "velocity": 120, "channel": 0}, {"type": "note_on", "time": 18, "note": 64, "velocity": 117, "channel": 0}, {"type": "note_off", "time": 131, "note": 64, "velocity": 117, "channel": 0}, {"type": "note_on", "time": 9, "note": 65, "velocity": 120, "channel": 0}, {"type": "note_off", "time": 609, "note": 65, "velocity": 120, "channel": 0}, {"type": "note_on", "time": 33, "note": 62, "velocity": 114, "channel": 0}, {"type": "note_off", "time": 144, "note": 62, "velocity": 114, "channel": 0}, {"type": "note_on", "time": 47, "note": 65, "velocity": 114, "channel": 0}, {"type": "note_off", "time": 90, "note": 65, "velocity": 114, "channel": 0}, {"type": "note_on", "time": 110, "note": 67, "velocity": 107, "channel": 0}, {"type": "note_off", "time": 101, "note": 67, "velocity": 107, "channel": 0}, {"type": "note_on", "time": 11, "note": 69, "velocity": 110, "channel": 0}, {"type": "note_off", "time": 92, "note": 69, "velocity": 110, "channel": 0}, {"type": "note_on", "time": 77, "note": 69, "velocity": 92, "channel": 0}, {"type": "note_off", "time": 302, "note": 69, "velocity": 92, "channel": 0}, {"type": "note_on", "time": 287, "note": 65, "velocity": 114, "channel": 0}, {"type": "note_off", "time": 199, "note": 65, "velocity": 114, "channel": 0}, {"type": "note_on", "time": 33, "note": 62, "velocity": 114, "channel": 0}, {"type": "note_off", "time": 77, "note": 62, "velocity": 114, "channel": 0}, {"type": "note_on", "time": 41, "note": 64, "velocity": 110, "channel": 0}, {"type": "note_off", "time": 116, "note": 64, "velocity": 110, "channel": 0}, {"type": "note_on", "time": 13, "note": 67, "velocity": 114, "channel": 0}, {"type": "note_off", "time": 103, "note": 67, "velocity": 114, "channel": 0}, {"type": "note_on", "time": 5, "note": 68, "velocity": 110, "channel": 0}, {"type": "note_off", "time": 148, "note": 68, "velocity": 110, "channel": 0}, {"type": "note_on", "time": 16, "note": 68, "velocity": 108, "channel": 0}, {"type": "note_off", "time": 58, "note": 68, "velocity": 108, "channel": 0}, {"type": "note_on", "time": 99, "note": 68, "velocity": 94, "channel": 0}, {"type": "note_off", "time": 227, "note": 68, "velocity": 94, "channel": 0}, {"type": "note_on", "time": 991, "note": 67, "velocity": 112, "channel": 0}, {"type": "note_off", "time": 93, "note": 67, "velocity": 112, "channel": 0}, {"type": "note_on", "time": 5, "note": 68, "velocity": 111, "channel": 0}, {"type": "note_off", "time": 80, "note": 68, "velocity": 111, "channel": 0}, {"type": "note_on", "time": 4, "note": 67, "velocity": 106, "channel": 0}, {"type": "note_off", "time": 75, "note": 67, "velocity": 106, "channel": 0}, {"type": "note_on", "time": 3, "note": 66, "velocity": 126, "channel": 0}, {"type": "note_off", "time": 82, "note": 66, "velocity": 126, "channel": 0}, {"type": "note_on", "time": 5, "note": 65, "velocity": 123, "channel": 0}, {"type": "note_off", "time": 56, "note": 65, "velocity": 123, "channel": 0}, {"type": "note_on", "time": 25, "note": 61, "velocity": 114, "channel": 0}, {"type": "note_off", "time": 53, "note": 61, "velocity": 114, "channel": 0}, {"type": "note_on", "time": 10, "note": 60, "velocity": 113, "channel": 0}, {"type": "note_off", "time": 100, "note": 60, "velocity": 113, "channel": 0}, {"type": "note_on", "time": 15, "note": 58, "velocity": 111, "channel": 0}, {"type": "note_off", "time": 59, "note": 58, "velocity": 111, "channel": 0}, {"type": "note_on", "time": 48, "note": 57, "velocity": 114, "channel": 0}, {"type": "note_off", "time": 72, "note": 57, "velocity": 114, "channel": 0}, {"type": "note_on", "time": 11, "note": 58, "velocity": 110, "channel": 0}, {"type": "note_off", "time": 69, "note": 58, "velocity": 110, "channel": 0}, {"type": "note_on", "time": 22, "note": 57, "velocity": 108, "channel": 0}, {"type": "note_off", "time": 53, "note": 57, "velocity": 108, "channel": 0}, {"type": "note_on", "time": 46, "note": 55, "velocity": 105, "channel": 0}, {"type": "note_off", "time": 62, "note": 55, "velocity": 105, "channel": 0}, {"type": "note_on", "time": 27, "note": 54, "velocity": 103, "channel": 0}, {"type": "note_off", "time": 62, "note": 54, "velocity": 103, "channel": 0}, {"type": "note_on", "time": 36, "note": 63, "velocity": 119, "channel": 0}, {"type": "note_off", "time": 89, "note": 63, "velocity": 119, "channel": 0}, {"type": "note_on", "time": 13, "note": 62, "velocity": 108, "channel": 0}, {"type": "note_off", "time": 97, "note": 62, "velocity": 108, "channel": 0}, {"type": "note_on", "time": 9, "note": 60, "velocity": 107, "channel": 0}, {"type": "note_off", "time": 60, "note": 60, "velocity": 107, "channel": 0}, {"type": "note_on", "time": 21, "note": 58, "velocity": 106, "channel": 0}, {"type": "note_off", "time": 81, "note": 58, "velocity": 106, "channel": 0}, {"type": "note_on", "time": 18, "note": 55, "velocity": 104, "channel": 0}, {"type": "note_off", "time": 65, "note": 55, "velocity": 104, "channel": 0}, {"type": "note_on", "time": 18, "note": 54, "velocity": 104, "channel": 0}, {"type": "note_off", "time": 58, "note": 54, "velocity": 104, "channel": 0}, {"type": "note_on", "time": 24, "note": 53, "velocity": 107, "channel": 0}, {"type": "note_off", "time": 73, "note": 53, "velocity": 107, "channel": 0}, {"type": "note_on", "time": 21, "note": 52, "velocity": 104, "channel": 0}, {"type": "note_off", "time": 105, "note": 52, "velocity": 104, "channel": 0}, {"type": "note_on", "time": 12, "note": 48, "velocity": 104, "channel": 0}, {"type": "note_off", "time": 124, "note": 48, "velocity": 104, "channel": 0}, {"type": "note_on", "time": 213, "note": 66, "velocity": 117, "channel": 0}, {"type": "note_off", "time": 123, "note": 66, "velocity": 117, "channel": 0}, {"type": "note_on", "time": 2, "note": 67, "velocity": 115, "channel": 0}, {"type": "note_off", "time": 159, "note": 67, "velocity": 115, "channel": 0}, {"type": "note_on", "time": 14, "note": 65, "velocity": 116, "channel": 0}, {"type": "note_off", "time": 60, "note": 65, "velocity": 116, "channel": 0}, {"type": "note_on", "time": 25, "note": 62, "velocity": 111, "channel": 0}, {"type": "note_off", "time": 73, "note": 62, "velocity": 111, "channel": 0}, {"type": "note_on", "time": 41, "note": 57, "velocity": 103, "channel": 0}, {"type": "note_off", "time": 92, "note": 57, "velocity": 103, "channel": 0}, {"type": "note_on", "time": 12, "note": 53, "velocity": 100, "channel": 0}, {"type": "note_off", "time": 60, "note": 53, "velocity": 100, "channel": 0}, {"type": "note_on", "time": 6, "note": 67, "velocity": 102, "channel": 0}, {"type": "note_off", "time": 333, "note": 67, "velocity": 102, "channel": 0}, {"type": "note_on", "time": 45, "note": 65, "velocity": 118, "channel": 0}, {"type": "note_off", "time": 92, "note": 65, "velocity": 118, "channel": 0}, {"type": "note_on", "time": 26, "note": 60, "velocity": 109, "channel": 0}, {"type": "note_off", "time": 82, "note": 60, "velocity": 109, "channel": 0}, {"type": "note_on", "time": 280, "note": 67, "velocity": 103, "channel": 0}, {"type": "note_off", "time": 260, "note": 67, "velocity": 103, "channel": 0}, {"type": "note_on", "time": 31, "note": 65, "velocity": 111, "channel": 0}, {"type": "note_off", "time": 77, "note": 65, "velocity": 111, "channel": 0}, {"type": "note_on", "time": 11, "note": 62, "velocity": 106, "channel": 0}, {"type": "note_off", "time": 77, "note": 62, "velocity": 106, "channel": 0}, {"type": "note_on", "time": 10, "note": 58, "velocity": 110, "channel": 0}, {"type": "note_off", "time": 50, "note": 58, "velocity": 110, "channel": 0}, {"type": "note_on", "time": 41, "note": 55, "velocity": 96, "channel": 0}, {"type": "note_off", "time": 67, "note": 55, "velocity": 96, "channel": 0}, {"type": "note_on", "time": 50, "note": 65, "velocity": 109, "channel": 0}, {"type": "note_off", "time": 73, "note": 65, "velocity": 109, "channel": 0}, {"type": "note_on", "time": 18, "note": 67, "velocity": 113, "channel": 0}, {"type": "note_off", "time": 224, "note": 67, "velocity": 113, "channel": 0}, {"type": "note_on", "time": 13, "note": 65, "velocity": 114, "channel": 0}, {"type": "note_off", "time": 91, "note": 65, "velocity": 114, "channel": 0}, {"type": "note_on", "time": 11, "note": 61, "velocity": 107, "channel": 0}, {"type": "note_off", "time": 68, "note": 61, "velocity": 107, "channel": 0}, {"type": "note_on", "time": 14, "note": 58, "velocity": 103, "channel": 0}, {"type": "note_off", "time": 86, "note": 58, "velocity": 103, "channel": 0}, {"type": "note_on", "time": 21, "note": 55, "velocity": 106, "channel": 0}, {"type": "note_off", "time": 71, "note": 55, "velocity": 106, "channel": 0}, {"type": "note_on", "time": 153, "note": 67, "velocity": 102, "channel": 0}, {"type": "note_off", "time": 254, "note": 67, "velocity": 102, "channel": 0}, {"type": "note_on", "time": 30, "note": 65, "velocity": 111, "channel": 0}, {"type": "note_off", "time": 61, "note": 65, "velocity": 111, "channel": 0}, {"type": "note_on", "time": 20, "note": 61, "velocity": 105, "channel": 0}, {"type": "note_off", "time": 48, "note": 61, "velocity": 105, "channel": 0}, {"type": "note_on", "time": 32, "note": 58, "velocity": 104, "channel": 0}, {"type": "note_off", "time": 77, "note": 58, "velocity": 104, "channel": 0}, {"type": "note_on", "time": 18, "note": 55, "velocity": 96, "channel": 0}, {"type": "note_off", "time": 82, "note": 55, "velocity": 96, "channel": 0}, {"type": "note_on", "time": 10, "note": 68, "velocity": 115, "channel": 0}, {"type": "note_off", "time": 78, "note": 68, "velocity": 115, "channel": 0}, {"type": "note_on", "time": 41, "note": 63, "velocity": 115, "channel": 0}, {"type": "note_off", "time": 54, "note": 63, "velocity": 115, "channel": 0}, {"type": "note_on", "time": 24, "note": 64, "velocity": 102, "channel": 0}, {"type": "note_off", "time": 53, "note": 64, "velocity": 102, "channel": 0}, {"type": "note_on", "time": 47, "note": 67, "velocity": 113, "channel": 0}, {"type": "note_off", "time": 48, "note": 67, "velocity": 113, "channel": 0}, {"type": "note_on", "time": 14, "note": 65, "velocity": 116, "channel": 0}, {"type": "note_off", "time": 60, "note": 65, "velocity": 116, "channel": 0}, {"type": "note_on", "time": 34, "note": 61, "velocity": 105, "channel": 0}, {"type": "note_off", "time": 73, "note": 61, "velocity": 105, "channel": 0}, {"type": "note_on", "time": 37, "note": 58, "velocity": 102, "channel": 0}, {"type": "note_off", "time": 73, "note": 58, "velocity": 102, "channel": 0}, {"type": "note_on", "time": 20, "note": 53, "velocity": 100, "channel": 0}, {"type": "note_off", "time": 80, "note": 53, "velocity": 100, "channel": 0}, {"type": "note_on", "time": 18, "note": 57, "velocity": 108, "channel": 0}, {"type": "note_off", "time": 62, "note": 57, "velocity": 108, "channel": 0}, {"type": "note_on", "time": 36, "note": 53, "velocity": 101, "channel": 0}, {"type": "note_off", "time": 54, "note": 53, "velocity": 101, "channel": 0}, {"type": "note_on", "time": 20, "note": 58, "velocity": 105, "channel": 0}, {"type": "note_off", "time": 117, "note": 58, "velocity": 105, "channel": 0}, {"type": "note_on", "time": 9, "note": 59, "velocity": 107, "channel": 0}, {"type": "note_off", "time": 42, "note": 59, "velocity": 107, "channel": 0}, {"type": "note_on", "time": 24, "note": 60, "velocity": 110, "channel": 0}, {"type": "note_off", "time": 77, "note": 60, "velocity": 110, "channel": 0}, {"type": "note_on", "time": 18, "note": 61, "velocity": 103, "channel": 0}, {"type": "note_off", "time": 62, "note": 61, "velocity": 103, "channel": 0}, {"type": "note_on", "time": 16, "note": 62, "velocity": 108, "channel": 0}, {"type": "note_off", "time": 89, "note": 62, "velocity": 108, "channel": 0}, {"type": "note_on", "time": 10, "note": 64, "velocity": 114, "channel": 0}, {"type": "note_off", "time": 88, "note": 64, "velocity": 114, "channel": 0}, {"type": "note_on", "time": 14, "note": 65, "velocity": 115, "channel": 0}, {"type": "note_off", "time": 62, "note": 65, "velocity": 115, "channel": 0}, {"type": "note_on", "time": 12, "note": 64, "velocity": 113, "channel": 0}, {"type": "note_off", "time": 85, "note": 64, "velocity": 113, "channel": 0}, {"type": "note_on", "time": 14, "note": 62, "velocity": 111, "channel": 0}, {"type": "note_off", "time": 74, "note": 62, "velocity": 111, "channel": 0}, {"type": "note_on", "time": 15, "note": 61, "velocity": 104, "channel": 0}, {"type": "note_off", "time": 48, "note": 61, "velocity": 104, "channel": 0}, {"type": "note_on", "time": 15, "note": 60, "velocity": 106, "channel": 0}, {"type": "note_off", "time": 94, "note": 60, "velocity": 106, "channel": 0}, {"type": "note_on", "time": 51, "note": 58, "velocity": 109, "channel": 0}, {"type": "note_off", "time": 60, "note": 58, "velocity": 109, "channel": 0}, {"type": "note_on", "time": 38, "note": 53, "velocity": 103, "channel": 0}, {"type": "note_off", "time": 90, "note": 53, "velocity": 103, "channel": 0}, {"type": "note_on", "time": 6, "note": 55, "velocity": 104, "channel": 0}, {"type": "note_off", "time": 58, "note": 55, "velocity": 104, "channel": 0}, {"type": "note_on", "time": 8, "note": 57, "velocity": 113, "channel": 0}, {"type": "note_off", "time": 68, "note": 57, "velocity": 113, "channel": 0}, {"type": "note_on", "time": 26, "note": 51, "velocity": 113, "channel": 0}, {"type": "note_off", "time": 93, "note": 51, "velocity": 113, "channel": 0}, {"type": "note_on", "time": 555, "note": 69, "velocity": 111, "channel": 0}, {"type": "note_off", "time": 104, "note": 69, "velocity": 111, "channel": 0}, {"type": "note_on", "time": 27, "note": 63, "velocity": 117, "channel": 0}, {"type": "note_off", "time": 77, "note": 63, "velocity": 117, "channel": 0}, {"type": "note_on", "time": 88, "note": 69, "velocity": 103, "channel": 0}, {"type": "note_off", "time": 58, "note": 69, "velocity": 103, "channel": 0}, {"type": "note_on", "time": 34, "note": 63, "velocity": 111, "channel": 0}, {"type": "note_off", "time": 89, "note": 63, "velocity": 111, "channel": 0}, {"type": "note_on", "time": 101, "note": 69, "velocity": 110, "channel": 0}, {"type": "note_off", "time": 123, "note": 69, "velocity": 110, "channel": 0}, {"type": "note_on", "time": 15, "note": 62, "velocity": 112, "channel": 0}, {"type": "note_off", "time": 108, "note": 62, "velocity": 112, "channel": 0}, {"type": "note_on", "time": 896, "note": 69, "velocity": 112, "channel": 0}, {"type": "note_off", "time": 97, "note": 69, "velocity": 112, "channel": 0}, {"type": "note_on", "time": 28, "note": 62, "velocity": 115, "channel": 0}, {"type": "note_off", "time": 94, "note": 62, "velocity": 115, "channel": 0}, {"type": "note_on", "time": 351, "note": 68, "velocity": 108, "channel": 0}, {"type": "note_off", "time": 90, "note": 68, "velocity": 108, "channel": 0}, {"type": "note_on", "time": 29, "note": 68, "velocity": 110, "channel": 0}, {"type": "note_off", "time": 82, "note": 68, "velocity": 110, "channel": 0}, {"type": "note_on", "time": 540, "note": 68, "velocity": 112, "channel": 0}, {"type": "note_off", "time": 88, "note": 68, "velocity": 112, "channel": 0}, {"type": "note_on", "time": 12, "note": 67, "velocity": 108, "channel": 0}, {"type": "note_off", "time": 70, "note": 67, "velocity": 108, "channel": 0}, {"type": "note_on", "time": 21, "note": 61, "velocity": 95, "channel": 0}, {"type": "note_off", "time": 54, "note": 61, "velocity": 95, "channel": 0}, {"type": "note_on", "time": 41, "note": 68, "velocity": 110, "channel": 0}, {"type": "note_off", "time": 86, "note": 68, "velocity": 110, "channel": 0}, {"type": "note_on", "time": 8, "note": 67, "velocity": 110, "channel": 0}, {"type": "note_off", "time": 68, "note": 67, "velocity": 110, "channel": 0}, {"type": "note_on", "time": 127, "note": 67, "velocity": 109, "channel": 0}, {"type": "note_off", "time": 78, "note": 67, "velocity": 109, "channel": 0}, {"type": "note_on", "time": 4, "note": 66, "velocity": 116, "channel": 0}, {"type": "note_off", "time": 67, "note": 66, "velocity": 116, "channel": 0}, {"type": "note_on", "time": 18, "note": 60, "velocity": 109, "channel": 0}, {"type": "note_off", "time": 64, "note": 60, "velocity": 109, "channel": 0}, {"type": "note_on", "time": 1177, "note": 60, "velocity": 109, "channel": 0}, {"type": "note_off", "time": 80, "note": 60, "velocity": 109, "channel": 0}, {"type": "note_on", "time": 6, "note": 62, "velocity": 102, "channel": 0}, {"type": "note_off", "time": 88, "note": 62, "velocity": 102, "channel": 0}, {"type": "note_on", "time": 38, "note": 65, "velocity": 114, "channel": 0}, {"type": "note_off", "time": 64, "note": 65, "velocity": 114, "channel": 0}, {"type": "note_on", "time": 16, "note": 68, "velocity": 112, "channel": 0}, {"type": "note_off", "time": 88, "note": 68, "velocity": 112, "channel": 0}, {"type": "note_on", "time": 26, "note": 65, "velocity": 113, "channel": 0}, {"type": "note_off", "time": 57, "note": 65, "velocity": 113, "channel": 0}, {"type": "note_on", "time": 18, "note": 67, "velocity": 106, "channel": 0}, {"type": "note_off", "time": 77, "note": 67, "velocity": 106, "channel": 0}, {"type": "note_on", "time": 32, "note": 65, "velocity": 112, "channel": 0}, {"type": "note_off", "time": 69, "note": 65, "velocity": 112, "channel": 0}, {"type": "note_on", "time": 4, "note": 68, "velocity": 114, "channel": 0}, {"type": "note_off", "time": 74, "note": 68, "velocity": 114, "channel": 0}, {"type": "note_on", "time": 34, "note": 65, "velocity": 109, "channel": 0}, {"type": "note_off", "time": 61, "note": 65, "velocity": 109, "channel": 0}, {"type": "note_on", "time": 16, "note": 67, "velocity": 115, "channel": 0}, {"type": "note_off", "time": 85, "note": 67, "velocity": 115, "channel": 0}, {"type": "note_on", "time": 12, "note": 65, "velocity": 114, "channel": 0}, {"type": "note_off", "time": 58, "note": 65, "velocity": 114, "channel": 0}, {"type": "note_on", "time": 20, "note": 68, "velocity": 118, "channel": 0}, {"type": "note_off", "time": 96, "note": 68, "velocity": 118, "channel": 0}, {"type": "note_on", "time": 17, "note": 65, "velocity": 116, "channel": 0}, {"type": "note_off", "time": 69, "note": 65, "velocity": 116, "channel": 0}, {"type": "note_on", "time": 12, "note": 67, "velocity": 115, "channel": 0}, {"type": "note_off", "time": 111, "note": 67, "velocity": 115, "channel": 0}, {"type": "note_on", "time": 10, "note": 65, "velocity": 114, "channel": 0}, {"type": "note_off", "time": 68, "note": 65, "velocity": 114, "channel": 0}, {"type": "note_on", "time": 8, "note": 68, "velocity": 116, "channel": 0}, {"type": "note_off", "time": 108, "note": 68, "velocity": 116, "channel": 0}, {"type": "note_on", "time": 9, "note": 65, "velocity": 113, "channel": 0}, {"type": "note_off", "time": 58, "note": 65, "velocity": 113, "channel": 0}, {"type": "note_on", "time": 12, "note": 67, "velocity": 114, "channel": 0}, {"type": "note_off", "time": 85, "note": 67, "velocity": 114, "channel": 0}, {"type": "note_on", "time": 26, "note": 65, "velocity": 111, "channel": 0}, {"type": "note_off", "time": 66, "note": 65, "velocity": 111, "channel": 0}, {"type": "note_on", "time": 22, "note": 68, "velocity": 110, "channel": 0}, {"type": "note_off", "time": 89, "note": 68, "velocity": 110, "channel": 0}, {"type": "note_on", "time": 16, "note": 65, "velocity": 109, "channel": 0}, {"type": "note_off", "time": 56, "note": 65, "velocity": 109, "channel": 0}, {"type": "note_on", "time": 30, "note": 67, "velocity": 117, "channel": 0}, {"type": "note_off", "time": 78, "note": 67, "velocity": 117, "channel": 0}, {"type": "note_on", "time": 43, "note": 67, "velocity": 113, "channel": 0}, {"type": "note_off", "time": 46, "note": 67, "velocity": 113, "channel": 0}, {"type": "note_on", "time": 24, "note": 65, "velocity": 120, "channel": 0}, {"type": "note_off", "time": 74, "note": 65, "velocity": 120, "channel": 0}, {"type": "note_on", "time": 30, "note": 62, "velocity": 118, "channel": 0}, {"type": "note_off", "time": 77, "note": 62, "velocity": 118, "channel": 0}, {"type": "note_on", "time": 14, "note": 61, "velocity": 111, "channel": 0}, {"type": "note_off", "time": 56, "note": 61, "velocity": 111, "channel": 0}, {"type": "note_on", "time": 28, "note": 60, "velocity": 115, "channel": 0}, {"type": "note_off", "time": 68, "note": 60, "velocity": 115, "channel": 0}, {"type": "note_on", "time": 14, "note": 59, "velocity": 112, "channel": 0}, {"type": "note_off", "time": 62, "note": 59, "velocity": 112, "channel": 0}, {"type": "note_on", "time": 40, "note": 62, "velocity": 116, "channel": 0}, {"type": "note_off", "time": 72, "note": 62, "velocity": 116, "channel": 0}, {"type": "note_on", "time": 36, "note": 65, "velocity": 100, "channel": 0}, {"type": "note_off", "time": 71, "note": 65, "velocity": 100, "channel": 0}, {"type": "note_on", "time": 12, "note": 67, "velocity": 112, "channel": 0}, {"type": "note_off", "time": 64, "note": 67, "velocity": 112, "channel": 0}, {"type": "note_on", "time": 17, "note": 69, "velocity": 118, "channel": 0}, {"type": "note_off", "time": 76, "note": 69, "velocity": 118, "channel": 0}, {"type": "note_on", "time": 18, "note": 63, "velocity": 111, "channel": 0}, {"type": "note_off", "time": 76, "note": 63, "velocity": 111, "channel": 0}, {"type": "note_on", "time": 4, "note": 64, "velocity": 107, "channel": 0}, {"type": "note_off", "time": 86, "note": 64, "velocity": 107, "channel": 0}, {"type": "note_on", "time": 6, "note": 67, "velocity": 113, "channel": 0}, {"type": "note_off", "time": 77, "note": 67, "velocity": 113, "channel": 0}, {"type": "note_on", "time": 14, "note": 65, "velocity": 121, "channel": 0}, {"type": "note_off", "time": 74, "note": 65, "velocity": 121, "channel": 0}, {"type": "note_on", "time": 14, "note": 62, "velocity": 114, "channel": 0}, {"type": "note_off", "time": 80, "note": 62, "velocity": 114, "channel": 0}, {"type": "note_on", "time": 13, "note": 58, "velocity": 110, "channel": 0}, {"type": "note_off", "time": 72, "note": 58, "velocity": 110, "channel": 0}, {"type": "note_on", "time": 23, "note": 55, "velocity": 103, "channel": 0}, {"type": "note_off", "time": 72, "note": 55, "velocity": 103, "channel": 0}, {"type": "note_on", "time": 14, "note": 63, "velocity": 118, "channel": 0}, {"type": "note_off", "time": 93, "note": 63, "velocity": 118, "channel": 0}, {"type": "note_on", "time": 16, "note": 65, "velocity": 122, "channel": 0}, {"type": "note_off", "time": 102, "note": 65, "velocity": 122, "channel": 0}, {"type": "note_on", "time": 732, "note": 71, "velocity": 110, "channel": 0}, {"type": "note_off", "time": 127, "note": 71, "velocity": 110, "channel": 0}, {"type": "note_on", "time": 64, "note": 72, "velocity": 119, "channel": 0}, {"type": "note_off", "time": 101, "note": 72, "velocity": 119, "channel": 0}, {"type": "note_on", "time": 111, "note": 68, "velocity": 102, "channel": 0}, {"type": "note_off", "time": 94, "note": 68, "velocity": 102, "channel": 0}, {"type": "note_on", "time": 94, "note": 69, "velocity": 110, "channel": 0}, {"type": "note_off", "time": 110, "note": 69, "velocity": 110, "channel": 0}, {"type": "note_on", "time": 72, "note": 64, "velocity": 115, "channel": 0}, {"type": "note_off", "time": 92, "note": 64, "velocity": 115, "channel": 0}, {"type": "note_on", "time": 125, "note": 65, "velocity": 116, "channel": 0}, {"type": "note_off", "time": 109, "note": 65, "velocity": 116, "channel": 0}, {"type": "note_on", "time": 63, "note": 59, "velocity": 113, "channel": 0}, {"type": "note_off", "time": 84, "note": 59, "velocity": 113, "channel": 0}, {"type": "note_on", "time": 24, "note": 60, "velocity": 112, "channel": 0}, {"type": "note_off", "time": 152, "note": 60, "velocity": 112, "channel": 0}, {"type": "note_on", "time": 24, "note": 56, "velocity": 104, "channel": 0}, {"type": "note_off", "time": 86, "note": 56, "velocity": 104, "channel": 0}, {"type": "note_on", "time": 13, "note": 57, "velocity": 107, "channel": 0}, {"type": "note_off", "time": 109, "note": 57, "velocity": 107, "channel": 0}, {"type": "note_on", "time": 33, "note": 53, "velocity": 108, "channel": 0}, {"type": "note_off", "time": 208, "note": 53, "velocity": 108, "channel": 0}, {"type": "end_of_track", "time": 0}]]}