{"ticks_per_beat": 840, "tracks": [[{"type": "track_name", "name": "Melody", "time": 0}, {"type": "set_tempo", "tempo": 451127, "time": 0}, {"type": "key_signature", "key": "Eb", "time": 0}, {"type": "time_signature", "numerator": 4, "denominator": 4, "clocks_per_click": 24, "notated_32nd_notes_per_beat": 8, "time": 0}, {"type": "note_on", "time": 13338, "note": 70, "velocity": 106, "channel": 0}, {"type": "note_off", "time": 302, "note": 70, "velocity": 106, "channel": 0}, {"type": "note_on", "time": 178, "note": 67, "velocity": 107, "channel": 0}, {"type": "note_off", "time": 416, "note": 67, "velocity": 107, "channel": 0}, {"type": "note_on", "time": 124, "note": 62, "velocity": 111, "channel": 0}, {"type": "note_off", "time": 426, "note": 62, "velocity": 111, "channel": 0}, {"type": "note_on", "time": 102, "note": 68, "velocity": 108, "channel": 0}, {"type": "note_off", "time": 470, "note": 68, "velocity": 108, "channel": 0}, {"type": "note_on", "time": 64, "note": 72, "velocity": 111, "channel": 0}, {"type": "note_off", "time": 902, "note": 72, "velocity": 111, "channel": 0}, {"type": "note_on", "time": 616, "note": 77, "velocity": 109, "channel": 0}, {"type": "note_off", "time": 378, "note": 77, "velocity": 109, "channel": 0}, {"type": "note_on", "time": 70, "note": 74, "velocity": 99, "channel": 0}, {"type": "note_off", "time": 399, "note": 74, "velocity": 99, "channel": 0}, {"type": "note_on", "time": 118, "note": 70, "velocity": 99, "channel": 0}, {"type": "note_off", "time": 448, "note": 70, "velocity": 99, "channel": 0}, {"type": "note_on", "time": 91, "note": 72, "velocity": 118, "channel": 0}, {"type": "note_off", "time": 524, "note": 72, "velocity": 118, "channel": 0}, {"type": "note_on", "time": 70, "note": 79, "velocity": 105, "channel": 0}, {"type": "note_off", "time": 4537, "note": 79, "velocity": 105, "channel": 0}, {"type": "note_on", "time": 171, "note": 78, "velocity": 108, "channel": 0}, {"type": "note_off", "time": 357, "note": 78, "velocity": 108, "channel": 0}, {"type": "note_on", "time": 45, "note": 76, "velocity": 121, "channel": 0}, {"type": "note_off", "time": 399, "note": 76, "velocity": 121, "channel": 0}, {"type": "note_on", "time": 53, "note": 72, "velocity": 114, "channel": 0}, {"type": "note_off", "time": 300, "note": 72, "velocity": 114, "channel": 0}, {"type": "note_on", "time": 227, "note": 68, "velocity": 110, "channel": 0}, {"type": "note_off", "time": 459, "note": 68, "velocity": 110, "channel": 0}, {"type": "note_on", "time": 91, "note": 62, "velocity": 106, "channel": 0}, {"type": "note_off", "time": 649, "note": 62, "velocity": 106, "channel": 0}, {"type": "note_on", "time": 1204, "note": 62, "velocity": 119, "channel": 0}, {"type": "note_off", "time": 155, "note": 62, "velocity": 119, "channel": 0}, {"type": "note_on", "time": 41, "note": 63, "velocity": 116, "channel": 0}, {"type": "note_off", "time": 152, "note": 63, "velocity": 116, "channel": 0}, {"type": "note_on", "time": 41, "note": 65, "velocity": 118, "channel": 0}, {"type": "note_off", "time": 231, "note": 65, "velocity": 118, "channel": 0}, {"type": "note_on", "time": 68, "note": 67, "velocity": 109, "channel": 0}, {"type": "note_off", "time": 231, "note": 67, "velocity": 109, "channel": 0}, {"type": "note_on", "time": 53, "note": 64, "velocity": 117, "channel": 0}, {"type": "note_off", "time": 478, "note": 64, "velocity": 117, "channel": 0}, {"type": "note_on", "time": 125, "note": 60, "velocity": 107, "channel": 0}, {"type": "note_off", "time": 615, "note": 60, "velocity": 107, "channel": 0}, {"type": "note_on", "time": 1094, "note": 60, "velocity": 114, "channel": 0}, {"type": "note_off", "time": 121, "note": 60, "velocity": 114, "channel": 0}, {"type": "note_on", "time": 45, "note": 62, "velocity": 118, "channel": 0}, {"type": "note_off", "time": 140, "note": 62, "velocity": 118, "channel": 0}, {"type": "note_on", "time": 53, "note": 64, "velocity": 119, "channel": 0}, {"type": "note_off", "time": 140, "note": 64, "velocity": 119, "channel": 0}, {"type": "note_on", "time": 30, "note": 65, "velocity": 118, "channel": 0}, {"type": "note_off", "time": 216, "note": 65, "velocity": 118, "channel": 0}, {"type": "note_on", "time": 34, "note": 62, "velocity": 114, "channel": 0}, {"type": "note_off", "time": 486, "note": 62, "velocity": 114, "channel": 0}, {"type": "note_on", "time": 60, "note": 58, "velocity": 104, "channel": 0}, {"type": "note_off", "time": 889, "note": 58, "velocity": 104, "channel": 0}, {"type": "note_on", "time": 56, "note": 60, "velocity": 112, "channel": 0}, {"type": "note_off", "time": 87, "note": 60, "velocity": 112, "channel": 0}, {"type": "note_on", "time": 26, "note": 62, "velocity": 118, "channel": 0}, {"type": "note_off", "time": 167, "note": 62, "velocity": 118, "channel": 0}, {"type": "note_on", "time": 26, "note": 63, "velocity": 116, "channel": 0}, {"type": "note_off", "time": 193, "note": 63, "velocity": 116, "channel": 0}, {"type": "note_on", "time": 60, "note": 60, "velocity": 110, "channel": 0}, {"type": "note_off", "time": 1041, "note": 60, "velocity": 110, "channel": 0}, {"type": "note_on", "time": 133, "note": 56, "velocity": 110, "channel": 0}, {"type": "note_off", "time": 908, "note": 56, "velocity": 110, "channel": 0}, {"type": "note_on", "time": 1793, "note": 62, "velocity": 112, "channel": 0}, {"type": "note_off", "time": 224, "note": 62, "velocity": 112, "channel": 0}, {"type": "note_on", "time": 182, "note": 67, "velocity": 114, "channel": 0}, {"type": "note_off", "time": 300, "note": 67, "velocity": 114, "channel": 0}, {"type": "note_on", "time": 129, "note": 70, "velocity": 113, "channel": 0}, {"type": "note_off", "time": 269, "note": 70, "velocity": 113, "channel": 0}, {"type": "note_on", "time": 0, "note": 74, "velocity": 121, "channel": 0}, {"type": "note_off", "time": 190, "note": 74, "velocity": 121, "channel": 0}, {"type": "note_on", "time": 30, "note": 74, "velocity": 120, "channel": 0}, {"type": "note_off", "time": 167, "note": 74, "velocity": 120, "channel": 0}, {"type": "note_on", "time": 110, "note": 74, "velocity": 99, "channel": 0}, {"type": "note_off", "time": 182, "note": 74, "velocity": 99, "channel": 0}, {"type": "note_on", "time": 132, "note": 74, "velocity": 78, "channel": 0}, {"type": "note_off", "time": 281, "note": 74, "velocity": 78, "channel": 0}, {"type": "note_on", "time": 421, "note": 79, "velocity": 119, "channel": 0}, {"type": "note_off", "time": 475, "note": 79, "velocity": 119, "channel": 0}, {"type": "note_on", "time": 102, "note": 74, "velocity": 116, "channel": 0}, {"type": "note_off", "time": 410, "note": 74, "velocity": 116, "channel": 0}, {"type": "note_on", "time": 30, "note": 72, "velocity": 112, "channel": 0}, {"type": "note_off", "time": 950, "note": 72, "velocity": 112, "channel": 0}, {"type": "note_on", "time": 1132, "note": 67, "velocity": 117, "channel": 0}, {"type": "note_off", "time": 83, "note": 67, "velocity": 117, "channel": 0}, {"type": "note_on", "time": 11, "note": 68, "velocity": 114, "channel": 0}, {"type": "note_off", "time": 1200, "note": 68, "velocity": 114, "channel": 0}, {"type": "note_on", "time": 57, "note": 72, "velocity": 118, "channel": 0}, {"type": "note_off", "time": 349, "note": 72, "velocity": 118, "channel": 0}, {"type": "note_on", "time": 57, "note": 73, "velocity": 123, "channel": 0}, {"type": "note_off", "time": 117, "note": 73, "velocity": 123, "channel": 0}, {"type": "note_on", "time": 7, "note": 74, "velocity": 119, "channel": 0}, {"type": "note_off", "time": 513, "note": 74, "velocity": 119, "channel": 0}, {"type": "note_on", "time": 64, "note": 74, "velocity": 117, "channel": 0}, {"type": "note_off", "time": 391, "note": 74, "velocity": 117, "channel": 0}, {"type": "note_on", "time": 83, "note": 74, "velocity": 106, "channel": 0}, {"type": "note_off", "time": 323, "note": 74, "velocity": 106, "channel": 0}, {"type": "note_on", "time": 410, "note": 77, "velocity": 122, "channel": 0}, {"type": "note_off", "time": 444, "note": 77, "velocity": 122, "channel": 0}, {"type": "note_on", "time": 49, "note": 74, "velocity": 114, "channel": 0}, {"type": "note_off", "time": 406, "note": 74, "velocity": 114, "channel": 0}, {"type": "note_on", "time": 87, "note": 70, "velocity": 107, "channel": 0}, {"type": "note_off", "time": 1018, "note": 70, "velocity": 107, "channel": 0}, {"type": "note_on", "time": 725, "note": 67, "velocity": 110, "channel": 0}, {"type": "note_off", "time": 235, "note": 67, "velocity": 110, "channel": 0}, {"type": "note_on", "time": 41, "note": 70, "velocity": 106, "channel": 0}, {"type": "note_off", "time": 193, "note": 70, "velocity": 106, "channel": 0}, {"type": "note_on", "time": 76, "note": 73, "velocity": 114, "channel": 0}, {"type": "note_off", "time": 855, "note": 73, "velocity": 114, "channel": 0}, {"type": "note_on", "time": 53, "note": 76, "velocity": 125, "channel": 0}, {"type": "note_off", "time": 205, "note": 76, "velocity": 125, "channel": 0}, {"type": "note_on", "time": 53, "note": 76, "velocity": 122, "channel": 0}, {"type": "note_off", "time": 216, "note": 76, "velocity": 122, "channel": 0}, {"type": "note_on", "time": 114, "note": 76, "velocity": 122, "channel": 0}, {"type": "note_off", "time": 258, "note": 76, "velocity": 122, "channel": 0}, {"type": "note_on", "time": 212, "note": 72, "velocity": 120, "channel": 0}, {"type": "note_off", "time": 205, "note": 72, "velocity": 120, "channel": 0}, {"type": "note_on", "time": 361, "note": 75, "velocity": 120, "channel": 0}, {"type": "note_off", "time": 250, "note": 75, "velocity": 120, "channel": 0}, {"type": "note_on", "time": 322, "note": 75, "velocity": 117, "channel": 0}, {"type": "note_off", "time": 566, "note": 75, "velocity": 117, "channel": 0}, {"type": "note_on", "time": 38, "note": 72, "velocity": 123, "channel": 0}, {"type": "note_off", "time": 372, "note": 72, "velocity": 123, "channel": 0}, {"type": "note_on", "time": 212, "note": 75, "velocity": 117, "channel": 0}, {"type": "note_off", "time": 250, "note": 75, "velocity": 117, "channel": 0}, {"type": "note_on", "time": 250, "note": 75, "velocity": 118, "channel": 0}, {"type": "note_off", "time": 277, "note": 75, "velocity": 118, "channel": 0}, {"type": "note_on", "time": 30, "note": 71, "velocity": 109, "channel": 0}, {"type": "note_off", "time": 151, "note": 71, "velocity": 109, "channel": 0}, {"type": "note_on", "time": 60, "note": 68, "velocity": 112, "channel": 0}, {"type": "note_off", "time": 186, "note": 68, "velocity": 112, "channel": 0}, {"type": "note_on", "time": 49, "note": 64, "velocity": 113, "channel": 0}, {"type": "note_off", "time": 361, "note": 64, "velocity": 113, "channel": 0}, {"type": "note_on", "time": 22, "note": 68, "velocity": 107, "channel": 0}, {"type": "note_off", "time": 170, "note": 68, "velocity": 107, "channel": 0}, {"type": "note_on", "time": 45, "note": 71, "velocity": 101, "channel": 0}, {"type": "note_off", "time": 323, "note": 71, "velocity": 101, "channel": 0}, {"type": "note_on", "time": 19, "note": 74, "velocity": 120, "channel": 0}, {"type": "note_off", "time": 110, "note": 74, "velocity": 120, "channel": 0}, {"type": "note_on", "time": 15, "note": 75, "velocity": 117, "channel": 0}, {"type": "note_off", "time": 467, "note": 75, "velocity": 117, "channel": 0}, {"type": "note_on", "time": 19, "note": 71, "velocity": 105, "channel": 0}, {"type": "note_off", "time": 855, "note": 71, "velocity": 105, "channel": 0}, {"type": "note_on", "time": 148, "note": 75, "velocity": 115, "channel": 0}, {"type": "note_off", "time": 277, "note": 75, "velocity": 115, "channel": 0}, {"type": "note_on", "time": 148, "note": 75, "velocity": 117, "channel": 0}, {"type": "note_off", "time": 284, "note": 75, "velocity": 117, "channel": 0}, {"type": "note_on", "time": 106, "note": 70, "velocity": 108, "channel": 0}, {"type": "note_off", "time": 254, "note": 70, "velocity": 108, "channel": 0}, {"type": "note_on", "time": 53, "note": 67, "velocity": 110, "channel": 0}, {"type": "note_off", "time": 178, "note": 67, "velocity": 110, "channel": 0}, {"type": "note_on", "time": 22, "note": 65, "velocity": 113, "channel": 0}, {"type": "note_off", "time": 231, "note": 65, "velocity": 113, "channel": 0}, {"type": "note_on", "time": 79, "note": 63, "velocity": 111, "channel": 0}, {"type": "note_off", "time": 285, "note": 63, "velocity": 111, "channel": 0}, {"type": "note_on", "time": 15, "note": 65, "velocity": 112, "channel": 0}, {"type": "note_off", "time": 178, "note": 65, "velocity": 112, "channel": 0}, {"type": "note_on", "time": 57, "note": 63, "velocity": 109, "channel": 0}, {"type": "note_off", "time": 1276, "note": 63, "velocity": 109, "channel": 0}, {"type": "note_on", "time": 60, "note": 65, "velocity": 116, "channel": 0}, {"type": "note_off", "time": 152, "note": 65, "velocity": 116, "channel": 0}, {"type": "note_on", "time": 57, "note": 63, "velocity": 119, "channel": 0}, {"type": "note_off", "time": 1090, "note": 63, "velocity": 119, "channel": 0}, {"type": "note_on", "time": 19, "note": 65, "velocity": 113, "channel": 0}, {"type": "note_off", "time": 136, "note": 65, "velocity": 113, "channel": 0}, {"type": "note_on", "time": 30, "note": 63, "velocity": 111, "channel": 0}, {"type": "note_off", "time": 326, "note": 63, "velocity": 111, "channel": 0}, {"type": "note_on", "time": 1067, "note": 82, "velocity": 123, "channel": 0}, {"type": "note_off", "time": 296, "note": 82, "velocity": 123, "channel": 0}, {"type": "note_on", "time": 34, "note": 83, "velocity": 121, "channel": 0}, {"type": "note_off", "time": 87, "note": 83, "velocity": 121, "channel": 0}, {"type": "note_on", "time": 15, "note": 84, "velocity": 114, "channel": 0}, {"type": "note_off", "time": 83, "note": 84, "velocity": 114, "channel": 0}, {"type": "note_on", "time": 15, "note": 85, "velocity": 114, "channel": 0}, {"type": "note_off", "time": 53, "note": 85, "velocity": 114, "channel": 0}, {"type": "note_on", "time": 26, "note": 86, "velocity": 114, "channel": 0}, {"type": "note_off", "time": 53, "note": 86, "velocity": 114, "channel": 0}, {"type": "note_on", "time": 26, "note": 87, "velocity": 109, "channel": 0}, {"type": "note_off", "time": 1181, "note": 87, "velocity": 109, "channel": 0}, {"type": "note_on", "time": 60, "note": 85, "velocity": 113, "channel": 0}, {"type": "note_off", "time": 486, "note": 85, "velocity": 113, "channel": 0}, {"type": "note_on", "time": 41, "note": 82, "velocity": 120, "channel": 0}, {"type": "note_off", "time": 1246, "note": 82, "velocity": 120, "channel": 0}, {"type": "note_on", "time": 174, "note": 80, "velocity": 119, "channel": 0}, {"type": "note_off", "time": 387, "note": 80, "velocity": 119, "channel": 0}, {"type": "note_on", "time": 38, "note": 77, "velocity": 120, "channel": 0}, {"type": "note_off", "time": 364, "note": 77, "velocity": 120, "channel": 0}, {"type": "note_on", "time": 41, "note": 75, "velocity": 121, "channel": 0}, {"type": "note_off", "time": 311, "note": 75, "velocity": 121, "channel": 0}, {"type": "note_on", "time": 53, "note": 73, "velocity": 119, "channel": 0}, {"type": "note_off", "time": 273, "note": 73, "velocity": 119, "channel": 0}, {"type": "note_on", "time": 1231, "note": 70, "velocity": 112, "channel": 0}, {"type": "note_off", "time": 224, "note": 70, "velocity": 112, "channel": 0}, {"type": "note_on", "time": 91, "note": 73, "velocity": 121, "channel": 0}, {"type": "note_off", "time": 167, "note": 73, "velocity": 121, "channel": 0}, {"type": "note_on", "time": 22, "note": 75, "velocity": 122, "channel": 0}, {"type": "note_off", "time": 304, "note": 75, "velocity": 122, "channel": 0}, {"type": "note_on", "time": 26, "note": 77, "velocity": 121, "channel": 0}, {"type": "note_off", "time": 102, "note": 77, "velocity": 121, "channel": 0}, {"type": "note_on", "time": 38, "note": 76, "velocity": 119, "channel": 0}, {"type": "note_off", "time": 95, "note": 76, "velocity": 119, "channel": 0}, {"type": "note_on", "time": 38, "note": 77, "velocity": 118, "channel": 0}, {"type": "note_off", "time": 114, "note": 77, "velocity": 118, "channel": 0}, {"type": "note_on", "time": 1356, "note": 70, "velocity": 114, "channel": 0}, {"type": "note_off", "time": 380, "note": 70, "velocity": 114, "channel": 0}, {"type": "note_on", "time": 129, "note": 77, "velocity": 123, "channel": 0}, {"type": "note_off", "time": 159, "note": 77, "velocity": 123, "channel": 0}, {"type": "note_on", "time": 34, "note": 75, "velocity": 122, "channel": 0}, {"type": "note_off", "time": 95, "note": 75, "velocity": 122, "channel": 0}, {"type": "note_on", "time": 45, "note": 77, "velocity": 118, "channel": 0}, {"type": "note_off", "time": 163, "note": 77, "velocity": 118, "channel": 0}, {"type": "note_on", "time": 668, "note": 77, "velocity": 126, "channel": 0}, {"type": "note_off", "time": 163, "note": 77, "velocity": 126, "channel": 0}, {"type": "note_on", "time": 30, "note": 75, "velocity": 125, "channel": 0}, {"type": "note_off", "time": 102, "note": 75, "velocity": 125, "channel": 0}, {"type": "note_on", "time": 34, "note": 77, "velocity": 120, "channel": 0}, {"type": "note_off", "time": 216, "note": 77, "velocity": 120, "channel": 0}, {"type": "note_on", "time": 740, "note": 77, "velocity": 126, "channel": 0}, {"type": "note_off", "time": 117, "note": 77, "velocity": 126, "channel": 0}, {"type": "note_on", "time": 34, "note": 75, "velocity": 121, "channel": 0}, {"type": "note_off", "time": 121, "note": 75, "velocity": 121, "channel": 0}, {"type": "note_on", "time": 34, "note": 77, "velocity": 121, "channel": 0}, {"type": "note_off", "time": 197, "note": 77, "velocity": 121, "channel": 0}, {"type": "note_on", "time": 1124, "note": 77, "velocity": 127, "channel": 0}, {"type": "note_off", "time": 133, "note": 77, "velocity": 127, "channel": 0}, {"type": "note_on", "time": 11, "note": 75, "velocity": 124, "channel": 0}, {"type": "note_off", "time": 98, "note": 75, "velocity": 124, "channel": 0}, {"type": "note_on", "time": 26, "note": 77, "velocity": 121, "channel": 0}, {"type": "note_off", "time": 269, "note": 77, "velocity": 121, "channel": 0}, {"type": "note_on", "time": 444, "note": 77, "velocity": 123, "channel": 0}, {"type": "note_off", "time": 163, "note": 77, "velocity": 123, "channel": 0}, {"type": "note_on", "time": 15, "note": 75, "velocity": 124, "channel": 0}, {"type": "note_off", "time": 95, "note": 75, "velocity": 124, "channel": 0}, {"type": "note_on", "time": 45, "note": 77, "velocity": 121, "channel": 0}, {"type": "note_off", "time": 224, "note": 77, "velocity": 121, "channel": 0}, {"type": "note_on", "time": 509, "note": 77, "velocity": 123, "channel": 0}, {"type": "note_off", "time": 121, "note": 77, "velocity": 123, "channel": 0}, {"type": "note_on", "time": 37, "note": 75, "velocity": 122, "channel": 0}, {"type": "note_off", "time": 114, "note": 75, "velocity": 122, "channel": 0}, {"type": "note_on", "time": 15, "note": 77, "velocity": 121, "channel": 0}, {"type": "note_off", "time": 209, "note": 77, "velocity": 121, "channel": 0}, {"type": "note_on", "time": 760, "note": 77, "velocity": 124, "channel": 0}, {"type": "note_off", "time": 171, "note": 77, "velocity": 124, "channel": 0}, {"type": "note_on", "time": 15, "note": 75, "velocity": 122, "channel": 0}, {"type": "note_off", "time": 98, "note": 75, "velocity": 122, "channel": 0}, {"type": "note_on", "time": 26, "note": 77, "velocity": 120, "channel": 0}, {"type": "note_off", "time": 284, "note": 77, "velocity": 120, "channel": 0}, {"type": "note_on", "time": 444, "note": 77, "velocity": 119, "channel": 0}, {"type": "note_off", "time": 159, "note": 77, "velocity": 119, "channel": 0}, {"type": "note_on", "time": 57, "note": 75, "velocity": 119, "channel": 0}, {"type": "note_off", "time": 136, "note": 75, "velocity": 119, "channel": 0}, {"type": "note_on", "time": 68, "note": 77, "velocity": 121, "channel": 0}, {"type": "note_off", "time": 266, "note": 77, "velocity": 121, "channel": 0}, {"type": "note_on", "time": 509, "note": 77, "velocity": 122, "channel": 0}, {"type": "note_off", "time": 186, "note": 77, "velocity": 122, "channel": 0}, {"type": "note_on", "time": 15, "note": 75, "velocity": 121, "channel": 0}, {"type": "note_off", "time": 117, "note": 75, "velocity": 121, "channel": 0}, {"type": "note_on", "time": 30, "note": 77, "velocity": 119, "channel": 0}, {"type": "note_off", "time": 296, "note": 77, "velocity": 119, "channel": 0}, {"type": "note_on", "time": 410, "note": 77, "velocity": 122, "channel": 0}, {"type": "note_off", "time": 155, "note": 77, "velocity": 122, "channel": 0}, {"type": "note_on", "time": 22, "note": 75, "velocity": 123, "channel": 0}, {"type": "note_off", "time": 106, "note": 75, "velocity": 123, "channel": 0}, {"type": "note_on", "time": 30, "note": 77, "velocity": 121, "channel": 0}, {"type": "note_off", "time": 228, "note": 77, "velocity": 121, "channel": 0}, {"type": "note_on", "time": 174, "note": 70, "velocity": 110, "channel": 0}, {"type": "note_off", "time": 900, "note": 70, "velocity": 110, "channel": 0}, {"type": "note_on", "time": 999, "note": 65, "velocity": 122, "channel": 0}, {"type": "note_off", "time": 159, "note": 65, "velocity": 122, "channel": 0}, {"type": "note_on", "time": 26, "note": 63, "velocity": 123, "channel": 0}, {"type": "note_off", "time": 106, "note": 63, "velocity": 123, "channel": 0}, {"type": "note_on", "time": 37, "note": 65, "velocity": 121, "channel": 0}, {"type": "note_off", "time": 478, "note": 65, "velocity": 121, "channel": 0}, {"type": "note_on", "time": 57, "note": 58, "velocity": 113, "channel": 0}, {"type": "note_off", "time": 862, "note": 58, "velocity": 113, "channel": 0}, {"type": "note_on", "time": 1170, "note": 58, "velocity": 121, "channel": 0}, {"type": "note_off", "time": 178, "note": 58, "velocity": 121, "channel": 0}, {"type": "note_on", "time": 45, "note": 62, "velocity": 120, "channel": 0}, {"type": "note_off", "time": 144, "note": 62, "velocity": 120, "channel": 0}, {"type": "note_on", "time": 22, "note": 66, "velocity": 116, "channel": 0}, {"type": "note_off", "time": 197, "note": 66, "velocity": 116, "channel": 0}, {"type": "note_on", "time": 49, "note": 70, "velocity": 111, "channel": 0}, {"type": "note_off", "time": 151, "note": 70, "velocity": 111, "channel": 0}, {"type": "note_on", "time": 45, "note": 74, "velocity": 118, "channel": 0}, {"type": "note_off", "time": 163, "note": 74, "velocity": 118, "channel": 0}, {"type": "note_on", "time": 26, "note": 78, "velocity": 120, "channel": 0}, {"type": "note_off", "time": 125, "note": 78, "velocity": 120, "channel": 0}, {"type": "note_on", "time": 45, "note": 82, "velocity": 118, "channel": 0}, {"type": "note_off", "time": 288, "note": 82, "velocity": 118, "channel": 0}, {"type": "note_on", "time": 49, "note": 88, "velocity": 105, "channel": 0}, {"type": "note_off", "time": 292, "note": 88, "velocity": 105, "channel": 0}, {"type": "note_on", "time": 34, "note": 87, "velocity": 107, "channel": 0}, {"type": "note_off", "time": 361, "note": 87, "velocity": 107, "channel": 0}, {"type": "note_on", "time": 262, "note": 85, "velocity": 118, "channel": 0}, {"type": "note_off", "time": 323, "note": 85, "velocity": 118, "channel": 0}, {"type": "note_on", "time": 307, "note": 88, "velocity": 95, "channel": 0}, {"type": "note_off", "time": 64, "note": 88, "velocity": 95, "channel": 0}, {"type": "note_on", "time": 45, "note": 89, "velocity": 117, "channel": 0}, {"type": "note_off", "time": 2253, "note": 89, "velocity": 117, "channel": 0}, {"type": "note_on", "time": 136, "note": 87, "velocity": 110, "channel": 0}, {"type": "note_off", "time": 254, "note": 87, "velocity": 110, "channel": 0}, {"type": "note_on", "time": 60, "note": 84, "velocity": 114, "channel": 0}, {"type": "note_off", "time": 224, "note": 84, "velocity": 114, "channel": 0}, {"type": "note_on", "time": 45, "note": 80, "velocity": 117, "channel": 0}, {"type": "note_off", "time": 288, "note": 80, "velocity": 117, "channel": 0}, {"type": "note_on", "time": 38, "note": 77, "velocity": 118, "channel": 0}, {"type": "note_off", "time": 288, "note": 77, "velocity": 118, "channel": 0}, {"type": "note_on", "time": 311, "note": 79, "velocity": 114, "channel": 0}, {"type": "note_off", "time": 334, "note": 79, "velocity": 114, "channel": 0}, {"type": "note_on", "time": 1162, "note": 80, "velocity": 120, "channel": 0}, {"type": "note_off", "time": 315, "note": 80, "velocity": 120, "channel": 0}, {"type": "note_on", "time": 72, "note": 82, "velocity": 121, "channel": 0}, {"type": "note_off", "time": 475, "note": 82, "velocity": 121, "channel": 0}, {"type": "note_on", "time": 30, "note": 84, "velocity": 119, "channel": 0}, {"type": "note_off", "time": 1075, "note": 84, "velocity": 119, "channel": 0}, {"type": "note_on", "time": 125, "note": 79, "velocity": 109, "channel": 0}, {"type": "note_off", "time": 1540, "note": 79, "velocity": 109, "channel": 0}, {"type": "note_on", "time": 129, "note": 72, "velocity": 116, "channel": 0}, {"type": "note_off", "time": 189, "note": 72, "velocity": 116, "channel": 0}, {"type": "note_on", "time": 10, "note": 73, "velocity": 117, "channel": 0}, {"type": "note_off", "time": 1405, "note": 73, "velocity": 117, "channel": 0}, {"type": "note_on", "time": 70, "note": 72, "velocity": 118, "channel": 0}, {"type": "note_off", "time": 1502, "note": 72, "velocity": 118, "channel": 0}, {"type": "note_on", "time": 27, "note": 75, "velocity": 98, "channel": 0}, {"type": "note_off", "time": 108, "note": 75, "velocity": 98, "channel": 0}, {"type": "note_on", "time": 16, "note": 77, "velocity": 117, "channel": 0}, {"type": "note_off", "time": 178, "note": 77, "velocity": 117, "channel": 0}, {"type": "note_on", "time": 16, "note": 75, "velocity": 113, "channel": 0}, {"type": "note_off", "time": 302, "note": 75, "velocity": 113, "channel": 0}, {"type": "note_on", "time": 610, "note": 77, "velocity": 117, "channel": 0}, {"type": "note_off", "time": 1210, "note": 77, "velocity": 117, "channel": 0}, {"type": "note_on", "time": 135, "note": 75, "velocity": 121, "channel": 0}, {"type": "note_off", "time": 378, "note": 75, "velocity": 121, "channel": 0}, {"type": "note_on", "time": 108, "note": 77, "velocity": 117, "channel": 0}, {"type": "note_off", "time": 194, "note": 77, "velocity": 117, "channel": 0}, {"type": "note_on", "time": 64, "note": 75, "velocity": 111, "channel": 0}, {"type": "note_off", "time": 86, "note": 75, "velocity": 111, "channel": 0}, {"type": "note_on", "time": 27, "note": 77, "velocity": 120, "channel": 0}, {"type": "note_off", "time": 178, "note": 77, "velocity": 120, "channel": 0}, {"type": "note_on", "time": 43, "note": 75, "velocity": 122, "channel": 0}, {"type": "note_off", "time": 470, "note": 75, "velocity": 122, "channel": 0}, {"type": "note_on", "time": 27, "note": 77, "velocity": 119, "channel": 0}, {"type": "note_off", "time": 383, "note": 77, "velocity": 119, "channel": 0}, {"type": "note_on", "time": 86, "note": 70, "velocity": 107, "channel": 0}, {"type": "note_off", "time": 751, "note": 70, "velocity": 107, "channel": 0}, {"type": "note_on", "time": 102, "note": 72, "velocity": 9, "channel": 0}, {"type": "note_off", "time": 437, "note": 72, "velocity": 9, "channel": 0}, {"type": "note_on", "time": 54, "note": 74, "velocity": 113, "channel": 0}, {"type": "note_off", "time": 64, "note": 74, "velocity": 113, "channel": 0}, {"type": "note_on", "time": 32, "note": 75, "velocity": 115, "channel": 0}, {"type": "note_off", "time": 135, "note": 75, "velocity": 115, "channel": 0}, {"type": "note_on", "time": 1724, "note": 79, "velocity": 115, "channel": 0}, {"type": "note_off", "time": 410, "note": 79, "velocity": 115, "channel": 0}, {"type": "note_on", "time": 37, "note": 82, "velocity": 121, "channel": 0}, {"type": "note_off", "time": 264, "note": 82, "velocity": 121, "channel": 0}, {"type": "note_on", "time": 43, "note": 79, "velocity": 118, "channel": 0}, {"type": "note_off", "time": 135, "note": 79, "velocity": 118, "channel": 0}, {"type": "note_on", "time": 32, "note": 78, "velocity": 119, "channel": 0}, {"type": "note_off", "time": 421, "note": 78, "velocity": 119, "channel": 0}, {"type": "note_on", "time": 59, "note": 76, "velocity": 119, "channel": 0}, {"type": "note_off", "time": 291, "note": 76, "velocity": 119, "channel": 0}, {"type": "note_on", "time": 183, "note": 77, "velocity": 117, "channel": 0}, {"type": "note_off", "time": 2810, "note": 77, "velocity": 117, "channel": 0}, {"type": "note_on", "time": 64, "note": 78, "velocity": 116, "channel": 0}, {"type": "note_off", "time": 275, "note": 78, "velocity": 116, "channel": 0}, {"type": "note_on", "time": 32, "note": 74, "velocity": 116, "channel": 0}, {"type": "note_off", "time": 237, "note": 74, "velocity": 116, "channel": 0}, {"type": "note_on", "time": 43, "note": 79, "velocity": 116, "channel": 0}, {"type": "note_off", "time": 281, "note": 79, "velocity": 116, "channel": 0}, {"type": "note_on", "time": 27, "note": 77, "velocity": 119, "channel": 0}, {"type": "note_off", "time": 248, "note": 77, "velocity": 119, "channel": 0}, {"type": "note_on", "time": 59, "note": 75, "velocity": 119, "channel": 0}, {"type": "note_off", "time": 286, "note": 75, "velocity": 119, "channel": 0}, {"type": "note_on", "time": 59, "note": 70, "velocity": 110, "channel": 0}, {"type": "note_off", "time": 216, "note": 70, "velocity": 110, "channel": 0}, {"type": "note_on", "time": 48, "note": 67, "velocity": 110, "channel": 0}, {"type": "note_off", "time": 291, "note": 67, "velocity": 110, "channel": 0}, {"type": "note_on", "time": 75, "note": 65, "velocity": 112, "channel": 0}, {"type": "note_off", "time": 497, "note": 65, "velocity": 112, "channel": 0}, {"type": "note_on", "time": 37, "note": 63, "velocity": 111, "channel": 0}, {"type": "note_off", "time": 653, "note": 63, "velocity": 111, "channel": 0}, {"type": "note_on", "time": 75, "note": 65, "velocity": 113, "channel": 0}, {"type": "note_off", "time": 367, "note": 65, "velocity": 113, "channel": 0}, {"type": "note_on", "time": 64, "note": 68, "velocity": 105, "channel": 0}, {"type": "note_off", "time": 199, "note": 68, "velocity": 105, "channel": 0}, {"type": "note_on", "time": 329, "note": 68, "velocity": 111, "channel": 0}, {"type": "note_off", "time": 480, "note": 68, "velocity": 111, "channel": 0}, {"type": "note_on", "time": 1372, "note": 67, "velocity": 117, "channel": 0}, {"type": "note_off", "time": 135, "note": 67, "velocity": 117, "channel": 0}, {"type": "note_on", "time": 37, "note": 68, "velocity": 116, "channel": 0}, {"type": "note_off", "time": 383, "note": 68, "velocity": 116, "channel": 0}, {"type": "note_on", "time": 32, "note": 70, "velocity": 111, "channel": 0}, {"type": "note_off", "time": 270, "note": 70, "velocity": 111, "channel": 0}, {"type": "note_on", "time": 259, "note": 71, "velocity": 115, "channel": 0}, {"type": "note_off", "time": 594, "note": 71, "velocity": 115, "channel": 0}, {"type": "note_on", "time": 37, "note": 72, "velocity": 117, "channel": 0}, {"type": "note_off", "time": 735, "note": 72, "velocity": 117, "channel": 0}, {"type": "note_on", "time": 275, "note": 71, "velocity": 109, "channel": 0}, {"type": "note_off", "time": 264, "note": 71, "velocity": 109, "channel": 0}, {"type": "note_on", "time": 378, "note": 72, "velocity": 124, "channel": 0}, {"type": "note_off", "time": 545, "note": 72, "velocity": 124, "channel": 0}, {"type": "note_on", "time": 27, "note": 73, "velocity": 118, "channel": 0}, {"type": "note_off", "time": 843, "note": 73, "velocity": 118, "channel": 0}, {"type": "note_on", "time": 1297, "note": 63, "velocity": 121, "channel": 0}, {"type": "note_off", "time": 383, "note": 63, "velocity": 121, "channel": 0}, {"type": "note_on", "time": 21, "note": 64, "velocity": 119, "channel": 0}, {"type": "note_off", "time": 653, "note": 64, "velocity": 119, "channel": 0}, {"type": "note_on", "time": 86, "note": 75, "velocity": 122, "channel": 0}, {"type": "note_off", "time": 291, "note": 75, "velocity": 122, "channel": 0}, {"type": "note_on", "time": 70, "note": 73, "velocity": 119, "channel": 0}, {"type": "note_off", "time": 281, "note": 73, "velocity": 119, "channel": 0}, {"type": "note_on", "time": 43, "note": 76, "velocity": 120, "channel": 0}, {"type": "note_off", "time": 318, "note": 76, "velocity": 120, "channel": 0}, {"type": "note_on", "time": 275, "note": 72, "velocity": 118, "channel": 0}, {"type": "note_off", "time": 237, "note": 72, "velocity": 118, "channel": 0}, {"type": "note_on", "time": 335, "note": 68, "velocity": 115, "channel": 0}, {"type": "note_off", "time": 329, "note": 68, "velocity": 115, "channel": 0}, {"type": "note_on", "time": 54, "note": 63, "velocity": 117, "channel": 0}, {"type": "note_off", "time": 118, "note": 63, "velocity": 117, "channel": 0}, {"type": "note_on", "time": 10, "note": 64, "velocity": 115, "channel": 0}, {"type": "note_off", "time": 410, "note": 64, "velocity": 115, "channel": 0}, {"type": "note_on", "time": 16, "note": 60, "velocity": 112, "channel": 0}, {"type": "note_off", "time": 648, "note": 60, "velocity": 112, "channel": 0}, {"type": "note_on", "time": 43, "note": 62, "velocity": 120, "channel": 0}, {"type": "note_off", "time": 70, "note": 62, "velocity": 120, "channel": 0}, {"type": "note_on", "time": 21, "note": 63, "velocity": 118, "channel": 0}, {"type": "note_off", "time": 254, "note": 63, "velocity": 118, "channel": 0}, {"type": "note_on", "time": 43, "note": 62, "velocity": 108, "channel": 0}, {"type": "note_off", "time": 486, "note": 62, "velocity": 108, "channel": 0}, {"type": "note_on", "time": 64, "note": 65, "velocity": 113, "channel": 0}, {"type": "note_off", "time": 221, "note": 65, "velocity": 113, "channel": 0}, {"type": "note_on", "time": 37, "note": 66, "velocity": 105, "channel": 0}, {"type": "note_off", "time": 637, "note": 66, "velocity": 105, "channel": 0}, {"type": "note_on", "time": 129, "note": 73, "velocity": 114, "channel": 0}, {"type": "note_off", "time": 837, "note": 73, "velocity": 114, "channel": 0}, {"type": "note_on", "time": 113, "note": 70, "velocity": 107, "channel": 0}, {"type": "note_off", "time": 259, "note": 70, "velocity": 107, "channel": 0}, {"type": "note_on", "time": 59, "note": 73, "velocity": 119, "channel": 0}, {"type": "note_off", "time": 232, "note": 73, "velocity": 119, "channel": 0}, {"type": "note_on", "time": 91, "note": 67, "velocity": 113, "channel": 0}, {"type": "note_off", "time": 270, "note": 67, "velocity": 113, "channel": 0}, {"type": "note_on", "time": 1178, "note": 67, "velocity": 116, "channel": 0}, {"type": "note_off", "time": 254, "note": 67, "velocity": 116, "channel": 0}, {"type": "note_on", "time": 21, "note": 70, "velocity": 112, "channel": 0}, {"type": "note_off", "time": 178, "note": 70, "velocity": 112, "channel": 0}, {"type": "note_on", "time": 81, "note": 64, "velocity": 116, "channel": 0}, {"type": "note_off", "time": 1356, "note": 64, "velocity": 116, "channel": 0}, {"type": "note_on", "time": 37, "note": 67, "velocity": 112, "channel": 0}, {"type": "note_off", "time": 189, "note": 67, "velocity": 112, "channel": 0}, {"type": "note_on", "time": 102, "note": 63, "velocity": 116, "channel": 0}, {"type": "note_off", "time": 729, "note": 63, "velocity": 116, "channel": 0}, {"type": "note_on", "time": 48, "note": 63, "velocity": 120, "channel": 0}, {"type": "note_off", "time": 194, "note": 63, "velocity": 120, "channel": 0}, {"type": "note_on", "time": 59, "note": 70, "velocity": 103, "channel": 0}, {"type": "note_off", "time": 162, "note": 70, "velocity": 103, "channel": 0}, {"type": "note_on", "time": 64, "note": 62, "velocity": 112, "channel": 0}, {"type": "note_off", "time": 891, "note": 62, "velocity": 112, "channel": 0}, {"type": "note_on", "time": 1572, "note": 82, "velocity": 125, "channel": 0}, {"type": "note_off", "time": 291, "note": 82, "velocity": 125, "channel": 0}, {"type": "note_on", "time": 37, "note": 83, "velocity": 112, "channel": 0}, {"type": "note_off", "time": 70, "note": 83, "velocity": 112, "channel": 0}, {"type": "note_on", "time": 21, "note": 86, "velocity": 111, "channel": 0}, {"type": "note_off", "time": 75, "note": 86, "velocity": 111, "channel": 0}, {"type": "note_on", "time": 21, "note": 87, "velocity": 113, "channel": 0}, {"type": "note_off", "time": 286, "note": 87, "velocity": 113, "channel": 0}, {"type": "note_on", "time": 21, "note": 86, "velocity": 117, "channel": 0}, {"type": "note_off", "time": 302, "note": 86, "velocity": 117, "channel": 0}, {"type": "note_on", "time": 232, "note": 86, "velocity": 119, "channel": 0}, {"type": "note_off", "time": 545, "note": 86, "velocity": 119, "channel": 0}, {"type": "note_on", "time": 59, "note": 82, "velocity": 120, "channel": 0}, {"type": "note_off", "time": 805, "note": 82, "velocity": 120, "channel": 0}, {"type": "note_on", "time": 70, "note": 84, "velocity": 117, "channel": 0}, {"type": "note_off", "time": 789, "note": 84, "velocity": 117, "channel": 0}, {"type": "note_on", "time": 156, "note": 80, "velocity": 117, "channel": 0}, {"type": "note_off", "time": 410, "note": 80, "velocity": 117, "channel": 0}, {"type": "note_on", "time": 372, "note": 80, "velocity": 116, "channel": 0}, {"type": "note_off", "time": 691, "note": 80, "velocity": 116, "channel": 0}, {"type": "note_on", "time": 86, "note": 79, "velocity": 112, "channel": 0}, {"type": "note_off", "time": 453, "note": 79, "velocity": 112, "channel": 0}, {"type": "note_on", "time": 86, "note": 77, "velocity": 117, "channel": 0}, {"type": "note_off", "time": 254, "note": 77, "velocity": 117, "channel": 0}, {"type": "note_on", "time": 113, "note": 82, "velocity": 119, "channel": 0}, {"type": "note_off", "time": 329, "note": 82, "velocity": 119, "channel": 0}, {"type": "note_on", "time": 480, "note": 79, "velocity": 114, "channel": 0}, {"type": "note_off", "time": 480, "note": 79, "velocity": 114, "channel": 0}, {"type": "note_on", "time": 302, "note": 79, "velocity": 114, "channel": 0}, {"type": "note_off", "time": 745, "note": 79, "velocity": 114, "channel": 0}, {"type": "note_on", "time": 178, "note": 77, "velocity": 119, "channel": 0}, {"type": "note_off", "time": 410, "note": 77, "velocity": 119, "channel": 0}, {"type": "note_on", "time": 43, "note": 75, "velocity": 118, "channel": 0}, {"type": "note_off", "time": 302, "note": 75, "velocity": 118, "channel": 0}, {"type": "note_on", "time": 37, "note": 79, "velocity": 105, "channel": 0}, {"type": "note_off", "time": 75, "note": 79, "velocity": 105, "channel": 0}, {"type": "note_on", "time": 16, "note": 80, "velocity": 119, "channel": 0}, {"type": "note_off", "time": 351, "note": 80, "velocity": 119, "channel": 0}, {"type": "note_on", "time": 48, "note": 76, "velocity": 122, "channel": 0}, {"type": "note_off", "time": 356, "note": 76, "velocity": 122, "channel": 0}, {"type": "note_on", "time": 124, "note": 76, "velocity": 118, "channel": 0}, {"type": "note_off", "time": 751, "note": 76, "velocity": 118, "channel": 0}, {"type": "note_on", "time": 86, "note": 70, "velocity": 104, "channel": 0}, {"type": "note_off", "time": 632, "note": 70, "velocity": 104, "channel": 0}, {"type": "note_on", "time": 70, "note": 74, "velocity": 102, "channel": 0}, {"type": "note_off", "time": 102, "note": 74, "velocity": 102, "channel": 0}, {"type": "note_on", "time": 48, "note": 76, "velocity": 116, "channel": 0}, {"type": "note_off", "time": 313, "note": 76, "velocity": 116, "channel": 0}, {"type": "note_on", "time": 54, "note": 80, "velocity": 119, "channel": 0}, {"type": "note_off", "time": 329, "note": 80, "velocity": 119, "channel": 0}, {"type": "note_on", "time": 124, "note": 79, "velocity": 112, "channel": 0}, {"type": "note_off", "time": 351, "note": 79, "velocity": 112, "channel": 0}, {"type": "note_on", "time": 48, "note": 75, "velocity": 114, "channel": 0}, {"type": "note_off", "time": 297, "note": 75, "velocity": 114, "channel": 0}, {"type": "note_on", "time": 172, "note": 75, "velocity": 112, "channel": 0}, {"type": "note_off", "time": 578, "note": 75, "velocity": 112, "channel": 0}, {"type": "note_on", "time": 118, "note": 67, "velocity": 108, "channel": 0}, {"type": "note_off", "time": 145, "note": 67, "velocity": 108, "channel": 0}, {"type": "note_on", "time": 27, "note": 68, "velocity": 106, "channel": 0}, {"type": "note_off", "time": 610, "note": 68, "velocity": 106, "channel": 0}, {"type": "note_on", "time": 59, "note": 75, "velocity": 112, "channel": 0}, {"type": "note_off", "time": 383, "note": 75, "velocity": 112, "channel": 0}, {"type": "note_on", "time": 75, "note": 79, "velocity": 114, "channel": 0}, {"type": "note_off", "time": 340, "note": 79, "velocity": 114, "channel": 0}, {"type": "note_on", "time": 81, "note": 78, "velocity": 111, "channel": 0}, {"type": "note_off", "time": 372, "note": 78, "velocity": 111, "channel": 0}, {"type": "note_on", "time": 59, "note": 74, "velocity": 108, "channel": 0}, {"type": "note_off", "time": 297, "note": 74, "velocity": 108, "channel": 0}, {"type": "note_on", "time": 178, "note": 74, "velocity": 105, "channel": 0}, {"type": "note_off", "time": 540, "note": 74, "velocity": 105, "channel": 0}, {"type": "note_on", "time": 243, "note": 67, "velocity": 106, "channel": 0}, {"type": "note_off", "time": 805, "note": 67, "velocity": 106, "channel": 0}, {"type": "note_on", "time": 102, "note": 68, "velocity": 95, "channel": 0}, {"type": "note_off", "time": 383, "note": 68, "velocity": 95, "channel": 0}, {"type": "note_on", "time": 108, "note": 74, "velocity": 113, "channel": 0}, {"type": "note_off", "time": 329, "note": 74, "velocity": 113, "channel": 0}, {"type": "note_on", "time": 64, "note": 77, "velocity": 118, "channel": 0}, {"type": "note_off", "time": 308, "note": 77, "velocity": 118, "channel": 0}, {"type": "note_on", "time": 70, "note": 75, "velocity": 109, "channel": 0}, {"type": "note_off", "time": 308, "note": 75, "velocity": 109, "channel": 0}, {"type": "note_on", "time": 216, "note": 75, "velocity": 111, "channel": 0}, {"type": "note_off", "time": 281, "note": 75, "velocity": 111, "channel": 0}, {"type": "note_on", "time": 443, "note": 63, "velocity": 109, "channel": 0}, {"type": "note_off", "time": 724, "note": 63, "velocity": 109, "channel": 0}, {"type": "note_on", "time": 1351, "note": 63, "velocity": 90, "channel": 0}, {"type": "note_off", "time": 194, "note": 63, "velocity": 90, "channel": 0}, {"type": "note_on", "time": 16, "note": 65, "velocity": 123, "channel": 0}, {"type": "note_off", "time": 118, "note": 65, "velocity": 123, "channel": 0}, {"type": "note_on", "time": 59, "note": 63, "velocity": 123, "channel": 0}, {"type": "note_off", "time": 318, "note": 63, "velocity": 123, "channel": 0}, {"type": "note_on", "time": 405, "note": 65, "velocity": 120, "channel": 0}, {"type": "note_off", "time": 1475, "note": 65, "velocity": 120, "channel": 0}, {"type": "note_on", "time": 129, "note": 63, "velocity": 119, "channel": 0}, {"type": "note_off", "time": 362, "note": 63, "velocity": 119, "channel": 0}, {"type": "note_on", "time": 108, "note": 73, "velocity": 120, "channel": 0}, {"type": "note_off", "time": 1318, "note": 73, "velocity": 120, "channel": 0}, {"type": "note_on", "time": 140, "note": 70, "velocity": 112, "channel": 0}, {"type": "note_off", "time": 324, "note": 70, "velocity": 112, "channel": 0}, {"type": "note_on", "time": 32, "note": 68, "velocity": 109, "channel": 0}, {"type": "note_off", "time": 189, "note": 68, "velocity": 109, "channel": 0}, {"type": "note_on", "time": 1632, "note": 70, "velocity": 116, "channel": 0}, {"type": "note_off", "time": 562, "note": 70, "velocity": 116, "channel": 0}, {"type": "note_on", "time": 70, "note": 73, "velocity": 120, "channel": 0}, {"type": "note_off", "time": 405, "note": 73, "velocity": 120, "channel": 0}, {"type": "note_on", "time": 237, "note": 70, "velocity": 110, "channel": 0}, {"type": "note_off", "time": 291, "note": 70, "velocity": 110, "channel": 0}, {"type": "note_on", "time": 81, "note": 68, "velocity": 102, "channel": 0}, {"type": "note_off", "time": 745, "note": 68, "velocity": 102, "channel": 0}, {"type": "note_on", "time": 1107, "note": 69, "velocity": 104, "channel": 0}, {"type": "note_off", "time": 91, "note": 69, "velocity": 104, "channel": 0}, {"type": "note_on", "time": 16, "note": 70, "velocity": 108, "channel": 0}, {"type": "note_off", "time": 372, "note": 70, "velocity": 108, "channel": 0}, {"type": "note_on", "time": 27, "note": 73, "velocity": 119, "channel": 0}, {"type": "note_off", "time": 302, "note": 73, "velocity": 119, "channel": 0}, {"type": "note_on", "time": 21, "note": 76, "velocity": 113, "channel": 0}, {"type": "note_off", "time": 108, "note": 76, "velocity": 113, "channel": 0}, {"type": "note_on", "time": 5, "note": 77, "velocity": 119, "channel": 0}, {"type": "note_off", "time": 172, "note": 77, "velocity": 119, "channel": 0}, {"type": "note_on", "time": 21, "note": 76, "velocity": 116, "channel": 0}, {"type": "note_off", "time": 124, "note": 76, "velocity": 116, "channel": 0}, {"type": "note_on", "time": 43, "note": 73, "velocity": 119, "channel": 0}, {"type": "note_off", "time": 259, "note": 73, "velocity": 119, "channel": 0}, {"type": "note_on", "time": 124, "note": 69, "velocity": 106, "channel": 0}, {"type": "note_off", "time": 426, "note": 69, "velocity": 106, "channel": 0}, {"type": "note_on", "time": 86, "note": 67, "velocity": 102, "channel": 0}, {"type": "note_off", "time": 345, "note": 67, "velocity": 102, "channel": 0}, {"type": "note_on", "time": 108, "note": 65, "velocity": 113, "channel": 0}, {"type": "note_off", "time": 1194, "note": 65, "velocity": 113, "channel": 0}, {"type": "note_on", "time": 81, "note": 60, "velocity": 109, "channel": 0}, {"type": "note_off", "time": 432, "note": 60, "velocity": 109, "channel": 0}, {"type": "note_on", "time": 59, "note": 63, "velocity": 111, "channel": 0}, {"type": "note_off", "time": 167, "note": 63, "velocity": 111, "channel": 0}, {"type": "note_on", "time": 21, "note": 65, "velocity": 110, "channel": 0}, {"type": "note_off", "time": 172, "note": 65, "velocity": 110, "channel": 0}, {"type": "note_on", "time": 54, "note": 60, "velocity": 107, "channel": 0}, {"type": "note_off", "time": 1059, "note": 60, "velocity": 107, "channel": 0}, {"type": "note_on", "time": 64, "note": 58, "velocity": 102, "channel": 0}, {"type": "note_off", "time": 1524, "note": 58, "velocity": 102, "channel": 0}, {"type": "note_on", "time": 113, "note": 65, "velocity": 106, "channel": 0}, {"type": "note_off", "time": 870, "note": 65, "velocity": 106, "channel": 0}, {"type": "note_on", "time": 1648, "note": 65, "velocity": 110, "channel": 0}, {"type": "note_off", "time": 556, "note": 65, "velocity": 110, "channel": 0}, {"type": "note_on", "time": 21, "note": 70, "velocity": 107, "channel": 0}, {"type": "note_off", "time": 302, "note": 70, "velocity": 107, "channel": 0}, {"type": "note_on", "time": 64, "note": 77, "velocity": 115, "channel": 0}, {"type": "note_off", "time": 589, "note": 77, "velocity": 115, "channel": 0}, {"type": "note_on", "time": 118, "note": 82, "velocity": 113, "channel": 0}, {"type": "note_off", "time": 578, "note": 82, "velocity": 113, "channel": 0}, {"type": "note_on", "time": 70, "note": 89, "velocity": 99, "channel": 0}, {"type": "note_off", "time": 572, "note": 89, "velocity": 99, "channel": 0}, {"type": "note_on", "time": 124, "note": 95, "velocity": 103, "channel": 0}, {"type": "note_off", "time": 567, "note": 95, "velocity": 103, "channel": 0}, {"type": "note_on", "time": 27, "note": 94, "velocity": 97, "channel": 0}, {"type": "note_off", "time": 475, "note": 94, "velocity": 97, "channel": 0}, {"type": "note_on", "time": 281, "note": 89, "velocity": 114, "channel": 0}, {"type": "note_off", "time": 254, "note": 89, "velocity": 114, "channel": 0}, {"type": "note_on", "time": 16, "note": 88, "velocity": 104, "channel": 0}, {"type": "note_off", "time": 97, "note": 88, "velocity": 104, "channel": 0}, {"type": "note_on", "time": 426, "note": 82, "velocity": 110, "channel": 0}, {"type": "note_off", "time": 1026, "note": 82, "velocity": 110, "channel": 0}, {"type": "note_on", "time": 189, "note": 80, "velocity": 117, "channel": 0}, {"type": "note_off", "time": 281, "note": 80, "velocity": 117, "channel": 0}, {"type": "note_on", "time": 140, "note": 77, "velocity": 116, "channel": 0}, {"type": "note_off", "time": 416, "note": 77, "velocity": 116, "channel": 0}, {"type": "note_on", "time": 21, "note": 75, "velocity": 122, "channel": 0}, {"type": "note_off", "time": 194, "note": 75, "velocity": 122, "channel": 0}, {"type": "note_on", "time": 27, "note": 76, "velocity": 116, "channel": 0}, {"type": "note_off", "time": 281, "note": 76, "velocity": 116, "channel": 0}, {"type": "note_on", "time": 54, "note": 75, "velocity": 104, "channel": 0}, {"type": "note_off", "time": 199, "note": 75, "velocity": 104, "channel": 0}, {"type": "note_on", "time": 994, "note": 69, "velocity": 106, "channel": 0}, {"type": "note_off", "time": 97, "note": 69, "velocity": 106, "channel": 0}, {"type": "note_on", "time": 16, "note": 70, "velocity": 110, "channel": 0}, {"type": "note_off", "time": 270, "note": 70, "velocity": 110, "channel": 0}, {"type": "note_on", "time": 59, "note": 74, "velocity": 112, "channel": 0}, {"type": "note_off", "time": 275, "note": 74, "velocity": 112, "channel": 0}, {"type": "note_on", "time": 210, "note": 82, "velocity": 113, "channel": 0}, {"type": "note_off", "time": 1118, "note": 82, "velocity": 113, "channel": 0}, {"type": "note_on", "time": 129, "note": 79, "velocity": 106, "channel": 0}, {"type": "note_off", "time": 194, "note": 79, "velocity": 106, "channel": 0}, {"type": "note_on", "time": 32, "note": 82, "velocity": 102, "channel": 0}, {"type": "note_off", "time": 124, "note": 82, "velocity": 102, "channel": 0}, {"type": "note_on", "time": 16, "note": 79, "velocity": 107, "channel": 0}, {"type": "note_off", "time": 172, "note": 79, "velocity": 107, "channel": 0}, {"type": "note_on", "time": 135, "note": 74, "velocity": 108, "channel": 0}, {"type": "note_off", "time": 567, "note": 74, "velocity": 108, "channel": 0}, {"type": "note_on", "time": 864, "note": 71, "velocity": 121, "channel": 0}, {"type": "note_off", "time": 156, "note": 71, "velocity": 121, "channel": 0}, {"type": "note_on", "time": 5, "note": 72, "velocity": 119, "channel": 0}, {"type": "note_off", "time": 616, "note": 72, "velocity": 119, "channel": 0}, {"type": "note_on", "time": 64, "note": 80, "velocity": 116, "channel": 0}, {"type": "note_off", "time": 405, "note": 80, "velocity": 116, "channel": 0}, {"type": "note_on", "time": 21, "note": 77, "velocity": 116, "channel": 0}, {"type": "note_off", "time": 1178, "note": 77, "velocity": 116, "channel": 0}, {"type": "note_on", "time": 108, "note": 72, "velocity": 120, "channel": 0}, {"type": "note_off", "time": 324, "note": 72, "velocity": 120, "channel": 0}, {"type": "note_on", "time": 145, "note": 70, "velocity": 108, "channel": 0}, {"type": "note_off", "time": 172, "note": 70, "velocity": 108, "channel": 0}, {"type": "note_on", "time": 291, "note": 79, "velocity": 112, "channel": 0}, {"type": "note_off", "time": 410, "note": 79, "velocity": 112, "channel": 0}, {"type": "note_on", "time": 16, "note": 75, "velocity": 117, "channel": 0}, {"type": "note_off", "time": 470, "note": 75, "velocity": 117, "channel": 0}, {"type": "note_on", "time": 70, "note": 70, "velocity": 104, "channel": 0}, {"type": "note_off", "time": 783, "note": 70, "velocity": 104, "channel": 0}, {"type": "note_on", "time": 745, "note": 68, "velocity": 107, "channel": 0}, {"type": "note_off", "time": 75, "note": 68, "velocity": 107, "channel": 0}, {"type": "note_on", "time": 43, "note": 69, "velocity": 106, "channel": 0}, {"type": "note_off", "time": 264, "note": 69, "velocity": 106, "channel": 0}, {"type": "note_on", "time": 64, "note": 68, "velocity": 107, "channel": 0}, {"type": "note_off", "time": 551, "note": 68, "velocity": 107, "channel": 0}, {"type": "note_on", "time": 113, "note": 76, "velocity": 119, "channel": 0}, {"type": "note_off", "time": 2150, "note": 76, "velocity": 119, "channel": 0}, {"type": "note_on", "time": 97, "note": 68, "velocity": 110, "channel": 0}, {"type": "note_off", "time": 448, "note": 68, "velocity": 110, "channel": 0}, {"type": "note_on", "time": 27, "note": 67, "velocity": 100, "channel": 0}, {"type": "note_off", "time": 686, "note": 67, "velocity": 100, "channel": 0}, {"type": "note_on", "time": 1313, "note": 75, "velocity": 117, "channel": 0}, {"type": "note_off", "time": 848, "note": 75, "velocity": 117, "channel": 0}, {"type": "note_on", "time": 91, "note": 67, "velocity": 105, "channel": 0}, {"type": "note_off", "time": 308, "note": 67, "velocity": 105, "channel": 0}, {"type": "note_on", "time": 108, "note": 66, "velocity": 100, "channel": 0}, {"type": "note_off", "time": 1210, "note": 66, "velocity": 100, "channel": 0}, {"type": "note_on", "time": 91, "note": 74, "velocity": 111, "channel": 0}, {"type": "note_off", "time": 1713, "note": 74, "velocity": 111, "channel": 0}, {"type": "note_on", "time": 75, "note": 72, "velocity": 118, "channel": 0}, {"type": "note_off", "time": 286, "note": 72, "velocity": 118, "channel": 0}, {"type": "note_on", "time": 167, "note": 63, "velocity": 110, "channel": 0}, {"type": "note_off", "time": 1394, "note": 63, "velocity": 110, "channel": 0}, {"type": "note_on", "time": 86, "note": 69, "velocity": 107, "channel": 0}, {"type": "note_off", "time": 108, "note": 69, "velocity": 107, "channel": 0}, {"type": "note_on", "time": 16, "note": 70, "velocity": 9, "channel": 0}, {"type": "note_off", "time": 1188, "note": 70, "velocity": 9, "channel": 0}, {"type": "note_on", "time": 70, "note": 67, "velocity": 117, "channel": 0}, {"type": "note_off", "time": 281, "note": 67, "velocity": 117, "channel": 0}, {"type": "note_on", "time": 27, "note": 68, "velocity": 112, "channel": 0}, {"type": "note_off", "time": 724, "note": 68, "velocity": 112, "channel": 0}, {"type": "note_on", "time": 162, "note": 64, "velocity": 108, "channel": 0}, {"type": "note_off", "time": 1599, "note": 64, "velocity": 108, "channel": 0}, {"type": "note_on", "time": 5, "note": 65, "velocity": 114, "channel": 0}, {"type": "note_off", "time": 81, "note": 65, "velocity": 114, "channel": 0}, {"type": "note_on", "time": 21, "note": 66, "velocity": 114, "channel": 0}, {"type": "note_off", "time": 70, "note": 66, "velocity": 114, "channel": 0}, {"type": "note_on", "time": 21, "note": 67, "velocity": 106, "channel": 0}, {"type": "note_off", "time": 502, "note": 67, "velocity": 106, "channel": 0}, {"type": "note_on", "time": 27, "note": 62, "velocity": 98, "channel": 0}, {"type": "note_off", "time": 605, "note": 62, "velocity": 98, "channel": 0}, {"type": "end_of_track", "time": 0}]]}