{"ticks_per_beat": 192, "tracks": [[{"type": "track_name", "name": "Melody", "time": 0}, {"type": "set_tempo", "tempo": 248962, "time": 0}, {"type": "key_signature", "key": "Db", "time": 0}, {"type": "time_signature", "numerator": 4, "denominator": 4, "clocks_per_click": 24, "notated_32nd_notes_per_beat": 8, "time": 0}, {"type": "note_on", "time": 3199, "note": 58, "velocity": 96, "channel": 0}, {"type": "note_off", "time": 103, "note": 58, "velocity": 96, "channel": 0}, {"type": "note_on", "time": 10, "note": 65, "velocity": 91, "channel": 0}, {"type": "note_off", "time": 78, "note": 65, "velocity": 91, "channel": 0}, {"type": "note_on", "time": 22, "note": 68, "velocity": 112, "channel": 0}, {"type": "note_off", "time": 75, "note": 68, "velocity": 112, "channel": 0}, {"type": "note_on", "time": 9, "note": 70, "velocity": 105, "channel": 0}, {"type": "note_off", "time": 66, "note": 70, "velocity": 105, "channel": 0}, {"type": "note_on", "time": 17, "note": 72, "velocity": 103, "channel": 0}, {"type": "note_off", "time": 884, "note": 72, "velocity": 103, "channel": 0}, {"type": "note_on", "time": 23, "note": 70, "velocity": 109, "channel": 0}, {"type": "note_off", "time": 81, "note": 70, "velocity": 109, "channel": 0}, {"type": "note_on", "time": 3, "note": 68, "velocity": 110, "channel": 0}, {"type": "note_off", "time": 94, "note": 68, "velocity": 110, "channel": 0}, {"type": "note_on", "time": 0, "note": 65, "velocity": 103, "channel": 0}, {"type": "note_off", "time": 91, "note": 65, "velocity": 103, "channel": 0}, {"type": "note_on", "time": 6, "note": 63, "velocity": 105, "channel": 0}, {"type": "note_off", "time": 88, "note": 63, "velocity": 105, "channel": 0}, {"type": "note_on", "time": 11, "note": 65, "velocity": 104, "channel": 0}, {"type": "note_off", "time": 58, "note": 65, "velocity": 104, "channel": 0}, {"type": "note_on", "time": 2, "note": 68, "velocity": 97, "channel": 0}, {"type": "note_off", "time": 100, "note": 68, "velocity": 97, "channel": 0}, {"type": "note_on", "time": 0, "note": 70, "velocity": 99, "channel": 0}, {"type": "note_off", "time": 84, "note": 70, "velocity": 99, "channel": 0}, {"type": "note_on", "time": 9, "note": 72, "velocity": 110, "channel": 0}, {"type": "note_off", "time": 129, "note": 72, "velocity": 110, "channel": 0}, {"type": "note_on", "time": 53, "note": 72, "velocity": 111, "channel": 0}, {"type": "note_off", "time": 169, "note": 72, "velocity": 111, "channel": 0}, {"type": "note_on", "time": 9, "note": 70, "velocity": 109, "channel": 0}, {"type": "note_off", "time": 122, "note": 70, "velocity": 109, "channel": 0}, {"type": "note_on", "time": 0, "note": 68, "velocity": 110, "channel": 0}, {"type": "note_off", "time": 113, "note": 68, "velocity": 110, "channel": 0}, {"type": "note_on", "time": 53, "note": 63, "velocity": 97, "channel": 0}, {"type": "note_off", "time": 78, "note": 63, "velocity": 97, "channel": 0}, {"type": "note_on", "time": 3, "note": 67, "velocity": 102, "channel": 0}, {"type": "note_off", "time": 91, "note": 67, "velocity": 102, "channel": 0}, {"type": "note_on", "time": 12, "note": 68, "velocity": 112, "channel": 0}, {"type": "note_off", "time": 84, "note": 68, "velocity": 112, "channel": 0}, {"type": "note_on", "time": 9, "note": 70, "velocity": 109, "channel": 0}, {"type": "note_off", "time": 75, "note": 70, "velocity": 109, "channel": 0}, {"type": "note_on", "time": 6, "note": 72, "velocity": 112, "channel": 0}, {"type": "note_off", "time": 88, "note": 72, "velocity": 112, "channel": 0}, {"type": "note_on", "time": 6, "note": 68, "velocity": 111, "channel": 0}, {"type": "note_off", "time": 75, "note": 68, "velocity": 111, "channel": 0}, {"type": "note_on", "time": 25, "note": 72, "velocity": 109, "channel": 0}, {"type": "note_off", "time": 103, "note": 72, "velocity": 109, "channel": 0}, {"type": "note_on", "time": 0, "note": 70, "velocity": 109, "channel": 0}, {"type": "note_off", "time": 264, "note": 70, "velocity": 109, "channel": 0}, {"type": "note_on", "time": 12, "note": 68, "velocity": 112, "channel": 0}, {"type": "note_off", "time": 88, "note": 68, "velocity": 112, "channel": 0}, {"type": "note_on", "time": 3, "note": 66, "velocity": 109, "channel": 0}, {"type": "note_off", "time": 91, "note": 66, "velocity": 109, "channel": 0}, {"type": "note_on", "time": 6, "note": 63, "velocity": 106, "channel": 0}, {"type": "note_off", "time": 97, "note": 63, "velocity": 106, "channel": 0}, {"type": "note_on", "time": 771, "note": 61, "velocity": 97, "channel": 0}, {"type": "note_off", "time": 94, "note": 61, "velocity": 97, "channel": 0}, {"type": "note_on", "time": 0, "note": 63, "velocity": 90, "channel": 0}, {"type": "note_off", "time": 88, "note": 63, "velocity": 90, "channel": 0}, {"type": "note_on", "time": 22, "note": 64, "velocity": 108, "channel": 0}, {"type": "note_off", "time": 91, "note": 64, "velocity": 108, "channel": 0}, {"type": "note_on", "time": 3, "note": 61, "velocity": 99, "channel": 0}, {"type": "note_off", "time": 72, "note": 61, "velocity": 99, "channel": 0}, {"type": "note_on", "time": 9, "note": 63, "velocity": 105, "channel": 0}, {"type": "note_off", "time": 75, "note": 63, "velocity": 105, "channel": 0}, {"type": "note_on", "time": 9, "note": 64, "velocity": 108, "channel": 0}, {"type": "note_off", "time": 94, "note": 64, "velocity": 108, "channel": 0}, {"type": "note_on", "time": 15, "note": 65, "velocity": 109, "channel": 0}, {"type": "note_off", "time": 78, "note": 65, "velocity": 109, "channel": 0}, {"type": "note_on", "time": 12, "note": 66, "velocity": 112, "channel": 0}, {"type": "note_off", "time": 100, "note": 66, "velocity": 112, "channel": 0}, {"type": "note_on", "time": 6, "note": 62, "velocity": 106, "channel": 0}, {"type": "note_off", "time": 91, "note": 62, "velocity": 106, "channel": 0}, {"type": "note_on", "time": 3, "note": 61, "velocity": 98, "channel": 0}, {"type": "note_off", "time": 56, "note": 61, "velocity": 98, "channel": 0}, {"type": "note_on", "time": 9, "note": 64, "velocity": 110, "channel": 0}, {"type": "note_off", "time": 94, "note": 64, "velocity": 110, "channel": 0}, {"type": "note_on", "time": 0, "note": 66, "velocity": 108, "channel": 0}, {"type": "note_off", "time": 88, "note": 66, "velocity": 108, "channel": 0}, {"type": "note_on", "time": 0, "note": 69, "velocity": 116, "channel": 0}, {"type": "note_off", "time": 59, "note": 69, "velocity": 116, "channel": 0}, {"type": "note_on", "time": 11, "note": 70, "velocity": 104, "channel": 0}, {"type": "note_off", "time": 537, "note": 70, "velocity": 104, "channel": 0}, {"type": "note_on", "time": 2, "note": 67, "velocity": 109, "channel": 0}, {"type": "note_off", "time": 88, "note": 67, "velocity": 109, "channel": 0}, {"type": "note_on", "time": 3, "note": 65, "velocity": 110, "channel": 0}, {"type": "note_off", "time": 66, "note": 65, "velocity": 110, "channel": 0}, {"type": "note_on", "time": 12, "note": 61, "velocity": 105, "channel": 0}, {"type": "note_off", "time": 91, "note": 61, "velocity": 105, "channel": 0}, {"type": "note_on", "time": 19, "note": 58, "velocity": 96, "channel": 0}, {"type": "note_off", "time": 76, "note": 58, "velocity": 96, "channel": 0}, {"type": "note_on", "time": 8, "note": 60, "velocity": 110, "channel": 0}, {"type": "note_off", "time": 75, "note": 60, "velocity": 110, "channel": 0}, {"type": "note_on", "time": 4, "note": 63, "velocity": 102, "channel": 0}, {"type": "note_off", "time": 86, "note": 63, "velocity": 102, "channel": 0}, {"type": "note_on", "time": 0, "note": 67, "velocity": 107, "channel": 0}, {"type": "note_off", "time": 72, "note": 67, "velocity": 107, "channel": 0}, {"type": "note_on", "time": 12, "note": 70, "velocity": 107, "channel": 0}, {"type": "note_off", "time": 113, "note": 70, "velocity": 107, "channel": 0}, {"type": "note_on", "time": 0, "note": 69, "velocity": 114, "channel": 0}, {"type": "note_off", "time": 88, "note": 69, "velocity": 114, "channel": 0}, {"type": "note_on", "time": 6, "note": 67, "velocity": 102, "channel": 0}, {"type": "note_off", "time": 100, "note": 67, "velocity": 102, "channel": 0}, {"type": "note_on", "time": 12, "note": 64, "velocity": 106, "channel": 0}, {"type": "note_off", "time": 141, "note": 64, "velocity": 106, "channel": 0}, {"type": "note_on", "time": 31, "note": 60, "velocity": 91, "channel": 0}, {"type": "note_off", "time": 81, "note": 60, "velocity": 91, "channel": 0}, {"type": "note_on", "time": 18, "note": 62, "velocity": 108, "channel": 0}, {"type": "note_off", "time": 53, "note": 62, "velocity": 108, "channel": 0}, {"type": "note_on", "time": 0, "note": 68, "velocity": 105, "channel": 0}, {"type": "note_off", "time": 97, "note": 68, "velocity": 105, "channel": 0}, {"type": "note_on", "time": 12, "note": 66, "velocity": 109, "channel": 0}, {"type": "note_off", "time": 72, "note": 66, "velocity": 109, "channel": 0}, {"type": "note_on", "time": 22, "note": 63, "velocity": 106, "channel": 0}, {"type": "note_off", "time": 78, "note": 63, "velocity": 106, "channel": 0}, {"type": "note_on", "time": 9, "note": 62, "velocity": 104, "channel": 0}, {"type": "note_off", "time": 75, "note": 62, "velocity": 104, "channel": 0}, {"type": "note_on", "time": 9, "note": 64, "velocity": 107, "channel": 0}, {"type": "note_off", "time": 84, "note": 64, "velocity": 107, "channel": 0}, {"type": "note_on", "time": 0, "note": 66, "velocity": 108, "channel": 0}, {"type": "note_off", "time": 81, "note": 66, "velocity": 108, "channel": 0}, {"type": "note_on", "time": 3, "note": 69, "velocity": 111, "channel": 0}, {"type": "note_off", "time": 91, "note": 69, "velocity": 111, "channel": 0}, {"type": "note_on", "time": 15, "note": 65, "velocity": 103, "channel": 0}, {"type": "note_on", "time": 91, "note": 66, "velocity": 108, "channel": 0}, {"type": "note_off", "time": 0, "note": 65, "velocity": 103, "channel": 0}, {"type": "note_off", "time": 91, "note": 66, "velocity": 108, "channel": 0}, {"type": "note_on", "time": 8, "note": 62, "velocity": 103, "channel": 0}, {"type": "note_off", "time": 100, "note": 62, "velocity": 103, "channel": 0}, {"type": "note_on", "time": 1308, "note": 63, "velocity": 107, "channel": 0}, {"type": "note_off", "time": 105, "note": 63, "velocity": 107, "channel": 0}, {"type": "note_on", "time": 0, "note": 61, "velocity": 109, "channel": 0}, {"type": "note_off", "time": 113, "note": 61, "velocity": 109, "channel": 0}, {"type": "note_on", "time": 12, "note": 56, "velocity": 106, "channel": 0}, {"type": "note_off", "time": 55, "note": 56, "velocity": 106, "channel": 0}, {"type": "note_on", "time": 13, "note": 53, "velocity": 104, "channel": 0}, {"type": "note_off", "time": 78, "note": 53, "velocity": 104, "channel": 0}, {"type": "note_on", "time": 5, "note": 61, "velocity": 108, "channel": 0}, {"type": "note_off", "time": 119, "note": 61, "velocity": 108, "channel": 0}, {"type": "note_on", "time": 15, "note": 60, "velocity": 108, "channel": 0}, {"type": "note_off", "time": 97, "note": 60, "velocity": 108, "channel": 0}, {"type": "note_on", "time": 10, "note": 56, "velocity": 107, "channel": 0}, {"type": "note_off", "time": 53, "note": 56, "velocity": 107, "channel": 0}, {"type": "note_on", "time": 0, "note": 53, "velocity": 103, "channel": 0}, {"type": "note_off", "time": 127, "note": 53, "velocity": 103, "channel": 0}, {"type": "note_on", "time": 17, "note": 56, "velocity": 106, "channel": 0}, {"type": "note_off", "time": 53, "note": 56, "velocity": 106, "channel": 0}, {"type": "note_on", "time": 8, "note": 55, "velocity": 101, "channel": 0}, {"type": "note_off", "time": 81, "note": 55, "velocity": 101, "channel": 0}, {"type": "note_on", "time": 14, "note": 60, "velocity": 101, "channel": 0}, {"type": "note_off", "time": 119, "note": 60, "velocity": 101, "channel": 0}, {"type": "note_on", "time": 528, "note": 58, "velocity": 99, "channel": 0}, {"type": "note_off", "time": 78, "note": 58, "velocity": 99, "channel": 0}, {"type": "note_on", "time": 0, "note": 63, "velocity": 107, "channel": 0}, {"type": "note_off", "time": 78, "note": 63, "velocity": 107, "channel": 0}, {"type": "note_on", "time": 15, "note": 61, "velocity": 108, "channel": 0}, {"type": "note_off", "time": 107, "note": 61, "velocity": 108, "channel": 0}, {"type": "note_on", "time": 37, "note": 56, "velocity": 98, "channel": 0}, {"type": "note_off", "time": 69, "note": 56, "velocity": 98, "channel": 0}, {"type": "note_on", "time": 6, "note": 58, "velocity": 108, "channel": 0}, {"type": "note_off", "time": 84, "note": 58, "velocity": 108, "channel": 0}, {"type": "note_on", "time": 12, "note": 61, "velocity": 111, "channel": 0}, {"type": "note_off", "time": 84, "note": 61, "velocity": 111, "channel": 0}, {"type": "note_on", "time": 0, "note": 58, "velocity": 106, "channel": 0}, {"type": "note_off", "time": 81, "note": 58, "velocity": 106, "channel": 0}, {"type": "note_on", "time": 12, "note": 56, "velocity": 107, "channel": 0}, {"type": "note_off", "time": 91, "note": 56, "velocity": 107, "channel": 0}, {"type": "note_on", "time": 15, "note": 53, "velocity": 102, "channel": 0}, {"type": "note_off", "time": 75, "note": 53, "velocity": 102, "channel": 0}, {"type": "note_on", "time": 6, "note": 56, "velocity": 104, "channel": 0}, {"type": "note_off", "time": 94, "note": 56, "velocity": 104, "channel": 0}, {"type": "note_on", "time": 20, "note": 56, "velocity": 97, "channel": 0}, {"type": "note_off", "time": 87, "note": 56, "velocity": 97, "channel": 0}, {"type": "note_on", "time": 8, "note": 58, "velocity": 104, "channel": 0}, {"type": "note_off", "time": 73, "note": 58, "velocity": 104, "channel": 0}, {"type": "note_on", "time": 13, "note": 59, "velocity": 104, "channel": 0}, {"type": "note_off", "time": 88, "note": 59, "velocity": 104, "channel": 0}, {"type": "note_on", "time": 0, "note": 63, "velocity": 109, "channel": 0}, {"type": "note_off", "time": 84, "note": 63, "velocity": 109, "channel": 0}, {"type": "note_on", "time": 9, "note": 65, "velocity": 114, "channel": 0}, {"type": "note_off", "time": 81, "note": 65, "velocity": 114, "channel": 0}, {"type": "note_on", "time": 25, "note": 66, "velocity": 114, "channel": 0}, {"type": "note_off", "time": 72, "note": 66, "velocity": 114, "channel": 0}, {"type": "note_on", "time": 15, "note": 62, "velocity": 105, "channel": 0}, {"type": "note_off", "time": 91, "note": 62, "velocity": 105, "channel": 0}, {"type": "note_on", "time": 0, "note": 59, "velocity": 98, "channel": 0}, {"type": "note_off", "time": 80, "note": 59, "velocity": 98, "channel": 0}, {"type": "note_on", "time": 15, "note": 64, "velocity": 102, "channel": 0}, {"type": "note_off", "time": 152, "note": 64, "velocity": 102, "channel": 0}, {"type": "note_on", "time": 36, "note": 62, "velocity": 102, "channel": 0}, {"type": "note_off", "time": 229, "note": 62, "velocity": 102, "channel": 0}, {"type": "note_on", "time": 0, "note": 64, "velocity": 105, "channel": 0}, {"type": "note_off", "time": 103, "note": 64, "velocity": 105, "channel": 0}, {"type": "note_on", "time": 15, "note": 66, "velocity": 109, "channel": 0}, {"type": "note_off", "time": 119, "note": 66, "velocity": 109, "channel": 0}, {"type": "note_on", "time": 50, "note": 69, "velocity": 114, "channel": 0}, {"type": "note_on", "time": 88, "note": 71, "velocity": 112, "channel": 0}, {"type": "note_off", "time": 0, "note": 69, "velocity": 114, "channel": 0}, {"type": "note_off", "time": 97, "note": 71, "velocity": 112, "channel": 0}, {"type": "note_on", "time": 6, "note": 74, "velocity": 116, "channel": 0}, {"type": "note_off", "time": 78, "note": 74, "velocity": 116, "channel": 0}, {"type": "note_on", "time": 18, "note": 75, "velocity": 113, "channel": 0}, {"type": "note_on", "time": 151, "note": 76, "velocity": 116, "channel": 0}, {"type": "note_off", "time": 0, "note": 75, "velocity": 113, "channel": 0}, {"type": "note_off", "time": 116, "note": 76, "velocity": 116, "channel": 0}, {"type": "note_on", "time": 25, "note": 77, "velocity": 112, "channel": 0}, {"type": "note_off", "time": 100, "note": 77, "velocity": 112, "channel": 0}, {"type": "note_on", "time": 69, "note": 78, "velocity": 112, "channel": 0}, {"type": "note_off", "time": 59, "note": 78, "velocity": 112, "channel": 0}, {"type": "note_on", "time": 15, "note": 76, "velocity": 116, "channel": 0}, {"type": "note_off", "time": 91, "note": 76, "velocity": 116, "channel": 0}, {"type": "note_on", "time": 9, "note": 75, "velocity": 106, "channel": 0}, {"type": "note_off", "time": 94, "note": 75, "velocity": 106, "channel": 0}, {"type": "note_on", "time": 0, "note": 74, "velocity": 110, "channel": 0}, {"type": "note_off", "time": 185, "note": 74, "velocity": 110, "channel": 0}, {"type": "note_on", "time": 25, "note": 71, "velocity": 109, "channel": 0}, {"type": "note_off", "time": 110, "note": 71, "velocity": 109, "channel": 0}, {"type": "note_on", "time": 3, "note": 70, "velocity": 109, "channel": 0}, {"type": "note_off", "time": 110, "note": 70, "velocity": 109, "channel": 0}, {"type": "note_on", "time": 84, "note": 69, "velocity": 115, "channel": 0}, {"type": "note_off", "time": 66, "note": 69, "velocity": 115, "channel": 0}, {"type": "note_on", "time": 9, "note": 68, "velocity": 112, "channel": 0}, {"type": "note_off", "time": 100, "note": 68, "velocity": 112, "channel": 0}, {"type": "note_on", "time": 18, "note": 66, "velocity": 112, "channel": 0}, {"type": "note_off", "time": 97, "note": 66, "velocity": 112, "channel": 0}, {"type": "note_on", "time": 3, "note": 65, "velocity": 110, "channel": 0}, {"type": "note_off", "time": 179, "note": 65, "velocity": 110, "channel": 0}, {"type": "note_on", "time": 0, "note": 62, "velocity": 103, "channel": 0}, {"type": "note_off", "time": 110, "note": 62, "velocity": 103, "channel": 0}, {"type": "note_on", "time": 12, "note": 58, "velocity": 102, "channel": 0}, {"type": "note_off", "time": 113, "note": 58, "velocity": 102, "channel": 0}, {"type": "note_on", "time": 47, "note": 60, "velocity": 102, "channel": 0}, {"type": "note_off", "time": 84, "note": 60, "velocity": 102, "channel": 0}, {"type": "note_on", "time": 28, "note": 64, "velocity": 99, "channel": 0}, {"type": "note_off", "time": 75, "note": 64, "velocity": 99, "channel": 0}, {"type": "note_on", "time": 20, "note": 66, "velocity": 88, "channel": 0}, {"type": "note_off", "time": 53, "note": 66, "velocity": 88, "channel": 0}, {"type": "note_on", "time": 20, "note": 71, "velocity": 107, "channel": 0}, {"type": "note_off", "time": 56, "note": 71, "velocity": 107, "channel": 0}, {"type": "note_on", "time": 3, "note": 72, "velocity": 90, "channel": 0}, {"type": "note_off", "time": 47, "note": 72, "velocity": 90, "channel": 0}, {"type": "note_on", "time": 0, "note": 71, "velocity": 100, "channel": 0}, {"type": "note_off", "time": 69, "note": 71, "velocity": 100, "channel": 0}, {"type": "note_on", "time": 0, "note": 69, "velocity": 101, "channel": 0}, {"type": "note_off", "time": 50, "note": 69, "velocity": 101, "channel": 0}, {"type": "note_on", "time": 12, "note": 64, "velocity": 102, "channel": 0}, {"type": "note_off", "time": 66, "note": 64, "velocity": 102, "channel": 0}, {"type": "note_on", "time": 2293, "note": 73, "velocity": 111, "channel": 0}, {"type": "note_off", "time": 72, "note": 73, "velocity": 111, "channel": 0}, {"type": "note_on", "time": 12, "note": 72, "velocity": 102, "channel": 0}, {"type": "note_off", "time": 72, "note": 72, "velocity": 102, "channel": 0}, {"type": "note_on", "time": 83, "note": 72, "velocity": 101, "channel": 0}, {"type": "note_off", "time": 900, "note": 72, "velocity": 101, "channel": 0}, {"type": "note_on", "time": 47, "note": 69, "velocity": 109, "channel": 0}, {"type": "note_off", "time": 88, "note": 69, "velocity": 109, "channel": 0}, {"type": "note_on", "time": 3, "note": 72, "velocity": 104, "channel": 0}, {"type": "note_off", "time": 94, "note": 72, "velocity": 104, "channel": 0}, {"type": "note_on", "time": 88, "note": 68, "velocity": 105, "channel": 0}, {"type": "note_off", "time": 69, "note": 68, "velocity": 105, "channel": 0}, {"type": "note_on", "time": 9, "note": 69, "velocity": 102, "channel": 0}, {"type": "note_off", "time": 69, "note": 69, "velocity": 102, "channel": 0}, {"type": "note_on", "time": 12, "note": 69, "velocity": 108, "channel": 0}, {"type": "note_off", "time": 195, "note": 69, "velocity": 108, "channel": 0}, {"type": "note_on", "time": 185, "note": 72, "velocity": 107, "channel": 0}, {"type": "note_off", "time": 69, "note": 72, "velocity": 107, "channel": 0}, {"type": "note_on", "time": 6, "note": 73, "velocity": 107, "channel": 0}, {"type": "note_off", "time": 96, "note": 73, "velocity": 107, "channel": 0}, {"type": "note_on", "time": 0, "note": 72, "velocity": 106, "channel": 0}, {"type": "note_off", "time": 82, "note": 72, "velocity": 106, "channel": 0}, {"type": "note_on", "time": 0, "note": 69, "velocity": 108, "channel": 0}, {"type": "note_off", "time": 84, "note": 69, "velocity": 108, "channel": 0}, {"type": "note_on", "time": 112, "note": 63, "velocity": 100, "channel": 0}, {"type": "note_off", "time": 75, "note": 63, "velocity": 100, "channel": 0}, {"type": "note_on", "time": 1, "note": 67, "velocity": 104, "channel": 0}, {"type": "note_off", "time": 81, "note": 67, "velocity": 104, "channel": 0}, {"type": "note_on", "time": 424, "note": 69, "velocity": 116, "channel": 0}, {"type": "note_off", "time": 81, "note": 69, "velocity": 116, "channel": 0}, {"type": "note_on", "time": 188, "note": 67, "velocity": 107, "channel": 0}, {"type": "note_off", "time": 59, "note": 67, "velocity": 107, "channel": 0}, {"type": "note_on", "time": 107, "note": 67, "velocity": 110, "channel": 0}, {"type": "note_off", "time": 81, "note": 67, "velocity": 110, "channel": 0}, {"type": "note_on", "time": 12, "note": 68, "velocity": 110, "channel": 0}, {"type": "note_off", "time": 72, "note": 68, "velocity": 110, "channel": 0}, {"type": "note_on", "time": 15, "note": 69, "velocity": 113, "channel": 0}, {"type": "note_off", "time": 91, "note": 69, "velocity": 113, "channel": 0}, {"type": "note_on", "time": 18, "note": 67, "velocity": 111, "channel": 0}, {"type": "note_off", "time": 72, "note": 67, "velocity": 111, "channel": 0}, {"type": "note_on", "time": 6, "note": 63, "velocity": 101, "channel": 0}, {"type": "note_off", "time": 59, "note": 63, "velocity": 101, "channel": 0}, {"type": "note_on", "time": 69, "note": 67, "velocity": 109, "channel": 0}, {"type": "note_off", "time": 62, "note": 67, "velocity": 109, "channel": 0}, {"type": "note_on", "time": 6, "note": 64, "velocity": 92, "channel": 0}, {"type": "note_off", "time": 129, "note": 64, "velocity": 92, "channel": 0}, {"type": "note_on", "time": 155, "note": 67, "velocity": 112, "channel": 0}, {"type": "note_off", "time": 81, "note": 67, "velocity": 112, "channel": 0}, {"type": "note_on", "time": 169, "note": 65, "velocity": 110, "channel": 0}, {"type": "note_off", "time": 69, "note": 65, "velocity": 110, "channel": 0}, {"type": "note_on", "time": 15, "note": 66, "velocity": 109, "channel": 0}, {"type": "note_off", "time": 62, "note": 66, "velocity": 109, "channel": 0}, {"type": "note_on", "time": 9, "note": 63, "velocity": 103, "channel": 0}, {"type": "note_off", "time": 88, "note": 63, "velocity": 103, "channel": 0}, {"type": "note_on", "time": 15, "note": 62, "velocity": 104, "channel": 0}, {"type": "note_off", "time": 88, "note": 62, "velocity": 104, "channel": 0}, {"type": "note_on", "time": 0, "note": 66, "velocity": 105, "channel": 0}, {"type": "note_off", "time": 72, "note": 66, "velocity": 105, "channel": 0}, {"type": "time_signature", "numerator": 3, "denominator": 4, "clocks_per_click": 24, "notated_32nd_notes_per_beat": 8, "time": 229}, {"type": "note_on", "time": 0, "note": 67, "velocity": 110, "channel": 0}, {"type": "note_off", "time": 91, "note": 67, "velocity": 110, "channel": 0}, {"type": "note_on", "time": 25, "note": 64, "velocity": 98, "channel": 0}, {"type": "note_off", "time": 66, "note": 64, "velocity": 98, "channel": 0}, {"type": "note_on", "time": 15, "note": 65, "velocity": 110, "channel": 0}, {"type": "note_off", "time": 88, "note": 65, "velocity": 110, "channel": 0}, {"type": "note_on", "time": 3, "note": 66, "velocity": 104, "channel": 0}, {"type": "note_off", "time": 66, "note": 66, "velocity": 104, "channel": 0}, {"type": "note_on", "time": 34, "note": 63, "velocity": 105, "channel": 0}, {"type": "note_off", "time": 114, "note": 63, "velocity": 105, "channel": 0}, {"type": "note_on", "time": 0, "note": 62, "velocity": 102, "channel": 0}, {"type": "note_off", "time": 71, "note": 62, "velocity": 102, "channel": 0}, {"type": "time_signature", "numerator": 4, "denominator": 4, "clocks_per_click": 24, "notated_32nd_notes_per_beat": 8, "time": 17}, {"type": "note_on", "time": 0, "note": 66, "velocity": 110, "channel": 0}, {"type": "note_off", "time": 62, "note": 66, "velocity": 110, "channel": 0}, {"type": "note_on", "time": 15, "note": 65, "velocity": 106, "channel": 0}, {"type": "note_off", "time": 91, "note": 65, "velocity": 106, "channel": 0}, {"type": "note_on", "time": 12, "note": 64, "velocity": 109, "channel": 0}, {"type": "note_off", "time": 97, "note": 64, "velocity": 109, "channel": 0}, {"type": "note_on", "time": 97, "note": 67, "velocity": 111, "channel": 0}, {"type": "note_off", "time": 100, "note": 67, "velocity": 111, "channel": 0}, {"type": "note_on", "time": 3, "note": 64, "velocity": 97, "channel": 0}, {"type": "note_off", "time": 94, "note": 64, "velocity": 97, "channel": 0}, {"type": "note_on", "time": 12, "note": 65, "velocity": 110, "channel": 0}, {"type": "note_off", "time": 75, "note": 65, "velocity": 110, "channel": 0}, {"type": "note_on", "time": 9, "note": 66, "velocity": 108, "channel": 0}, {"type": "note_off", "time": 97, "note": 66, "velocity": 108, "channel": 0}, {"type": "note_on", "time": 88, "note": 72, "velocity": 110, "channel": 0}, {"type": "note_off", "time": 91, "note": 72, "velocity": 110, "channel": 0}, {"type": "note_on", "time": 6, "note": 71, "velocity": 110, "channel": 0}, {"type": "note_off", "time": 91, "note": 71, "velocity": 110, "channel": 0}, {"type": "note_on", "time": 0, "note": 66, "velocity": 102, "channel": 0}, {"type": "note_off", "time": 88, "note": 66, "velocity": 102, "channel": 0}, {"type": "note_on", "time": 12, "note": 69, "velocity": 109, "channel": 0}, {"type": "note_off", "time": 97, "note": 69, "velocity": 109, "channel": 0}, {"type": "note_on", "time": 9, "note": 67, "velocity": 105, "channel": 0}, {"type": "note_on", "time": 84, "note": 64, "velocity": 110, "channel": 0}, {"type": "note_off", "time": 0, "note": 67, "velocity": 105, "channel": 0}, {"type": "note_off", "time": 107, "note": 64, "velocity": 110, "channel": 0}, {"type": "note_on", "time": 94, "note": 69, "velocity": 112, "channel": 0}, {"type": "note_off", "time": 122, "note": 69, "velocity": 112, "channel": 0}, {"type": "note_on", "time": 75, "note": 73, "velocity": 113, "channel": 0}, {"type": "note_off", "time": 107, "note": 73, "velocity": 113, "channel": 0}, {"type": "note_on", "time": 0, "note": 68, "velocity": 91, "channel": 0}, {"type": "note_off", "time": 72, "note": 68, "velocity": 91, "channel": 0}, {"type": "note_on", "time": 9, "note": 70, "velocity": 107, "channel": 0}, {"type": "note_off", "time": 78, "note": 70, "velocity": 107, "channel": 0}, {"type": "note_on", "time": 18, "note": 73, "velocity": 105, "channel": 0}, {"type": "note_off", "time": 75, "note": 73, "velocity": 105, "channel": 0}, {"type": "note_on", "time": 12, "note": 75, "velocity": 112, "channel": 0}, {"type": "note_off", "time": 138, "note": 75, "velocity": 112, "channel": 0}, {"type": "note_on", "time": 84, "note": 69, "velocity": 112, "channel": 0}, {"type": "note_off", "time": 84, "note": 69, "velocity": 112, "channel": 0}, {"type": "note_on", "time": 0, "note": 64, "velocity": 101, "channel": 0}, {"type": "note_off", "time": 94, "note": 64, "velocity": 101, "channel": 0}, {"type": "note_on", "time": 9, "note": 67, "velocity": 104, "channel": 0}, {"type": "note_off", "time": 94, "note": 67, "velocity": 104, "channel": 0}, {"type": "note_on", "time": 18, "note": 73, "velocity": 106, "channel": 0}, {"type": "note_off", "time": 72, "note": 73, "velocity": 106, "channel": 0}, {"type": "note_on", "time": 88, "note": 79, "velocity": 104, "channel": 0}, {"type": "note_on", "time": 88, "note": 75, "velocity": 109, "channel": 0}, {"type": "note_off", "time": 0, "note": 79, "velocity": 104, "channel": 0}, {"type": "note_off", "time": 135, "note": 75, "velocity": 109, "channel": 0}, {"type": "note_on", "time": 487, "note": 77, "velocity": 116, "channel": 0}, {"type": "note_off", "time": 84, "note": 77, "velocity": 116, "channel": 0}, {"type": "note_on", "time": 3, "note": 73, "velocity": 106, "channel": 0}, {"type": "note_off", "time": 88, "note": 73, "velocity": 106, "channel": 0}, {"type": "note_on", "time": 9, "note": 64, "velocity": 109, "channel": 0}, {"type": "note_off", "time": 81, "note": 64, "velocity": 109, "channel": 0}, {"type": "note_on", "time": 28, "note": 67, "velocity": 85, "channel": 0}, {"type": "note_on", "time": 72, "note": 70, "velocity": 109, "channel": 0}, {"type": "note_off", "time": 0, "note": 67, "velocity": 85, "channel": 0}, {"type": "note_off", "time": 84, "note": 70, "velocity": 109, "channel": 0}, {"type": "note_on", "time": 0, "note": 73, "velocity": 101, "channel": 0}, {"type": "note_off", "time": 100, "note": 73, "velocity": 101, "channel": 0}, {"type": "note_on", "time": 0, "note": 75, "velocity": 109, "channel": 0}, {"type": "note_off", "time": 84, "note": 75, "velocity": 109, "channel": 0}, {"type": "note_on", "time": 12, "note": 76, "velocity": 112, "channel": 0}, {"type": "note_off", "time": 107, "note": 76, "velocity": 112, "channel": 0}, {"type": "note_on", "time": 6, "note": 72, "velocity": 105, "channel": 0}, {"type": "note_off", "time": 132, "note": 72, "velocity": 105, "channel": 0}, {"type": "note_on", "time": 34, "note": 75, "velocity": 105, "channel": 0}, {"type": "note_off", "time": 129, "note": 75, "velocity": 105, "channel": 0}, {"type": "note_on", "time": 0, "note": 74, "velocity": 105, "channel": 0}, {"type": "note_off", "time": 88, "note": 74, "velocity": 105, "channel": 0}, {"type": "note_on", "time": 119, "note": 68, "velocity": 107, "channel": 0}, {"type": "note_off", "time": 59, "note": 68, "velocity": 107, "channel": 0}, {"type": "note_on", "time": 6, "note": 70, "velocity": 96, "channel": 0}, {"type": "note_off", "time": 31, "note": 70, "velocity": 96, "channel": 0}, {"type": "note_on", "time": 9, "note": 74, "velocity": 108, "channel": 0}, {"type": "note_off", "time": 53, "note": 74, "velocity": 108, "channel": 0}, {"type": "note_on", "time": 3, "note": 73, "velocity": 101, "channel": 0}, {"type": "note_off", "time": 361, "note": 73, "velocity": 101, "channel": 0}, {"type": "note_on", "time": 40, "note": 75, "velocity": 109, "channel": 0}, {"type": "note_off", "time": 91, "note": 75, "velocity": 109, "channel": 0}, {"type": "note_on", "time": 0, "note": 72, "velocity": 107, "channel": 0}, {"type": "note_off", "time": 236, "note": 72, "velocity": 107, "channel": 0}, {"type": "note_on", "time": 50, "note": 75, "velocity": 105, "channel": 0}, {"type": "note_off", "time": 100, "note": 75, "velocity": 105, "channel": 0}, {"type": "note_on", "time": 3, "note": 73, "velocity": 109, "channel": 0}, {"type": "note_off", "time": 88, "note": 73, "velocity": 109, "channel": 0}, {"type": "note_on", "time": 9, "note": 71, "velocity": 105, "channel": 0}, {"type": "note_off", "time": 78, "note": 71, "velocity": 105, "channel": 0}, {"type": "note_on", "time": 3, "note": 68, "velocity": 107, "channel": 0}, {"type": "note_on", "time": 91, "note": 64, "velocity": 97, "channel": 0}, {"type": "note_off", "time": 0, "note": 68, "velocity": 107, "channel": 0}, {"type": "note_off", "time": 91, "note": 64, "velocity": 97, "channel": 0}, {"type": "note_on", "time": 22, "note": 74, "velocity": 111, "channel": 0}, {"type": "note_off", "time": 91, "note": 74, "velocity": 111, "channel": 0}, {"type": "note_on", "time": 0, "note": 72, "velocity": 109, "channel": 0}, {"type": "note_off", "time": 91, "note": 72, "velocity": 109, "channel": 0}, {"type": "note_on", "time": 6, "note": 69, "velocity": 112, "channel": 0}, {"type": "note_off", "time": 88, "note": 69, "velocity": 112, "channel": 0}, {"type": "note_on", "time": 34, "note": 62, "velocity": 104, "channel": 0}, {"type": "note_off", "time": 147, "note": 62, "velocity": 104, "channel": 0}, {"type": "note_on", "time": 25, "note": 67, "velocity": 99, "channel": 0}, {"type": "note_off", "time": 91, "note": 67, "velocity": 99, "channel": 0}, {"type": "note_on", "time": 0, "note": 70, "velocity": 108, "channel": 0}, {"type": "note_off", "time": 78, "note": 70, "velocity": 108, "channel": 0}, {"type": "note_on", "time": 37, "note": 74, "velocity": 111, "channel": 0}, {"type": "note_off", "time": 84, "note": 74, "velocity": 111, "channel": 0}, {"type": "note_on", "time": 0, "note": 73, "velocity": 113, "channel": 0}, {"type": "note_off", "time": 78, "note": 73, "velocity": 113, "channel": 0}, {"type": "note_on", "time": 28, "note": 75, "velocity": 112, "channel": 0}, {"type": "note_off", "time": 72, "note": 75, "velocity": 112, "channel": 0}, {"type": "note_on", "time": 0, "note": 71, "velocity": 106, "channel": 0}, {"type": "note_off", "time": 116, "note": 71, "velocity": 106, "channel": 0}, {"type": "note_on", "time": 0, "note": 69, "velocity": 106, "channel": 0}, {"type": "note_off", "time": 84, "note": 69, "velocity": 106, "channel": 0}, {"type": "note_on", "time": 18, "note": 68, "velocity": 107, "channel": 0}, {"type": "note_off", "time": 107, "note": 68, "velocity": 107, "channel": 0}, {"type": "note_on", "time": 75, "note": 64, "velocity": 109, "channel": 0}, {"type": "note_off", "time": 113, "note": 64, "velocity": 109, "channel": 0}, {"type": "note_on", "time": 81, "note": 64, "velocity": 104, "channel": 0}, {"type": "note_off", "time": 100, "note": 64, "velocity": 104, "channel": 0}, {"type": "note_on", "time": 6, "note": 69, "velocity": 107, "channel": 0}, {"type": "note_off", "time": 84, "note": 69, "velocity": 107, "channel": 0}, {"type": "note_on", "time": 0, "note": 68, "velocity": 109, "channel": 0}, {"type": "note_off", "time": 84, "note": 68, "velocity": 109, "channel": 0}, {"type": "note_on", "time": 0, "note": 70, "velocity": 102, "channel": 0}, {"type": "note_off", "time": 97, "note": 70, "velocity": 102, "channel": 0}, {"type": "note_on", "time": 6, "note": 71, "velocity": 106, "channel": 0}, {"type": "note_off", "time": 81, "note": 71, "velocity": 106, "channel": 0}, {"type": "note_on", "time": 25, "note": 73, "velocity": 113, "channel": 0}, {"type": "note_off", "time": 103, "note": 73, "velocity": 113, "channel": 0}, {"type": "note_on", "time": 0, "note": 72, "velocity": 110, "channel": 0}, {"type": "note_off", "time": 88, "note": 72, "velocity": 110, "channel": 0}, {"type": "note_on", "time": 0, "note": 68, "velocity": 108, "channel": 0}, {"type": "note_off", "time": 72, "note": 68, "velocity": 108, "channel": 0}, {"type": "note_on", "time": 9, "note": 69, "velocity": 108, "channel": 0}, {"type": "note_off", "time": 88, "note": 69, "velocity": 108, "channel": 0}, {"type": "note_on", "time": 28, "note": 63, "velocity": 103, "channel": 0}, {"type": "note_off", "time": 69, "note": 63, "velocity": 103, "channel": 0}, {"type": "note_on", "time": 3, "note": 62, "velocity": 104, "channel": 0}, {"type": "note_off", "time": 100, "note": 62, "velocity": 104, "channel": 0}, {"type": "note_on", "time": 25, "note": 69, "velocity": 107, "channel": 0}, {"type": "note_on", "time": 72, "note": 67, "velocity": 105, "channel": 0}, {"type": "note_off", "time": 0, "note": 69, "velocity": 107, "channel": 0}, {"type": "note_off", "time": 94, "note": 67, "velocity": 105, "channel": 0}, {"type": "note_on", "time": 31, "note": 62, "velocity": 105, "channel": 0}, {"type": "note_off", "time": 62, "note": 62, "velocity": 105, "channel": 0}, {"type": "note_on", "time": 0, "note": 59, "velocity": 99, "channel": 0}, {"type": "note_off", "time": 100, "note": 59, "velocity": 99, "channel": 0}, {"type": "note_on", "time": 18, "note": 64, "velocity": 110, "channel": 0}, {"type": "note_off", "time": 88, "note": 64, "velocity": 110, "channel": 0}, {"type": "note_on", "time": 6, "note": 68, "velocity": 111, "channel": 0}, {"type": "note_off", "time": 69, "note": 68, "velocity": 111, "channel": 0}, {"type": "note_on", "time": 18, "note": 66, "velocity": 110, "channel": 0}, {"type": "note_off", "time": 81, "note": 66, "velocity": 110, "channel": 0}, {"type": "note_on", "time": 122, "note": 62, "velocity": 108, "channel": 0}, {"type": "note_off", "time": 69, "note": 62, "velocity": 108, "channel": 0}, {"type": "note_on", "time": 6, "note": 59, "velocity": 100, "channel": 0}, {"type": "note_off", "time": 81, "note": 59, "velocity": 100, "channel": 0}, {"type": "note_on", "time": 0, "note": 60, "velocity": 96, "channel": 0}, {"type": "note_off", "time": 84, "note": 60, "velocity": 96, "channel": 0}, {"type": "note_on", "time": 12, "note": 63, "velocity": 108, "channel": 0}, {"type": "note_off", "time": 97, "note": 63, "velocity": 108, "channel": 0}, {"type": "note_on", "time": 22, "note": 65, "velocity": 109, "channel": 0}, {"type": "note_off", "time": 66, "note": 65, "velocity": 109, "channel": 0}, {"type": "note_on", "time": 18, "note": 66, "velocity": 111, "channel": 0}, {"type": "note_off", "time": 94, "note": 66, "velocity": 111, "channel": 0}, {"type": "note_on", "time": 305, "note": 64, "velocity": 110, "channel": 0}, {"type": "note_off", "time": 97, "note": 64, "velocity": 110, "channel": 0}, {"type": "note_on", "time": 25, "note": 69, "velocity": 112, "channel": 0}, {"type": "note_off", "time": 81, "note": 69, "velocity": 112, "channel": 0}, {"type": "note_on", "time": 0, "note": 66, "velocity": 114, "channel": 0}, {"type": "note_off", "time": 103, "note": 66, "velocity": 114, "channel": 0}, {"type": "note_on", "time": 3, "note": 63, "velocity": 107, "channel": 0}, {"type": "note_off", "time": 84, "note": 63, "velocity": 107, "channel": 0}, {"type": "note_on", "time": 113, "note": 59, "velocity": 98, "channel": 0}, {"type": "note_off", "time": 69, "note": 59, "velocity": 98, "channel": 0}, {"type": "note_on", "time": 8, "note": 63, "velocity": 106, "channel": 0}, {"type": "note_off", "time": 94, "note": 63, "velocity": 106, "channel": 0}, {"type": "note_on", "time": 8, "note": 61, "velocity": 109, "channel": 0}, {"type": "note_on", "time": 97, "note": 57, "velocity": 102, "channel": 0}, {"type": "note_off", "time": 0, "note": 61, "velocity": 109, "channel": 0}, {"type": "note_off", "time": 94, "note": 57, "velocity": 102, "channel": 0}, {"type": "note_on", "time": 14, "note": 54, "velocity": 102, "channel": 0}, {"type": "note_off", "time": 78, "note": 54, "velocity": 102, "channel": 0}, {"type": "note_on", "time": 10, "note": 61, "velocity": 108, "channel": 0}, {"type": "note_off", "time": 94, "note": 61, "velocity": 108, "channel": 0}, {"type": "note_on", "time": 0, "note": 59, "velocity": 101, "channel": 0}, {"type": "note_off", "time": 88, "note": 59, "velocity": 101, "channel": 0}, {"type": "note_on", "time": 12, "note": 54, "velocity": 109, "channel": 0}, {"type": "note_off", "time": 84, "note": 54, "velocity": 109, "channel": 0}, {"type": "note_on", "time": 3, "note": 57, "velocity": 106, "channel": 0}, {"type": "note_off", "time": 88, "note": 57, "velocity": 106, "channel": 0}, {"type": "note_on", "time": 0, "note": 55, "velocity": 102, "channel": 0}, {"type": "note_off", "time": 88, "note": 55, "velocity": 102, "channel": 0}, {"type": "note_on", "time": 15, "note": 58, "velocity": 103, "channel": 0}, {"type": "note_off", "time": 97, "note": 58, "velocity": 103, "channel": 0}, {"type": "note_on", "time": 18, "note": 60, "velocity": 101, "channel": 0}, {"type": "note_off", "time": 72, "note": 60, "velocity": 101, "channel": 0}, {"type": "note_on", "time": 22, "note": 53, "velocity": 104, "channel": 0}, {"type": "note_off", "time": 110, "note": 53, "velocity": 104, "channel": 0}, {"type": "note_on", "time": 25, "note": 62, "velocity": 102, "channel": 0}, {"type": "note_off", "time": 236, "note": 62, "velocity": 102, "channel": 0}, {"type": "note_on", "time": 12, "note": 61, "velocity": 106, "channel": 0}, {"type": "note_off", "time": 97, "note": 61, "velocity": 106, "channel": 0}, {"type": "note_on", "time": 81, "note": 63, "velocity": 110, "channel": 0}, {"type": "note_off", "time": 103, "note": 63, "velocity": 110, "channel": 0}, {"type": "note_on", "time": 6, "note": 58, "velocity": 102, "channel": 0}, {"type": "note_off", "time": 78, "note": 58, "velocity": 102, "channel": 0}, {"type": "note_on", "time": 0, "note": 53, "velocity": 104, "channel": 0}, {"type": "note_off", "time": 100, "note": 53, "velocity": 104, "channel": 0}, {"type": "note_on", "time": 0, "note": 56, "velocity": 108, "channel": 0}, {"type": "note_off", "time": 94, "note": 56, "velocity": 108, "channel": 0}, {"type": "note_on", "time": 0, "note": 58, "velocity": 102, "channel": 0}, {"type": "note_off", "time": 91, "note": 58, "velocity": 102, "channel": 0}, {"type": "note_on", "time": 100, "note": 62, "velocity": 103, "channel": 0}, {"type": "note_off", "time": 62, "note": 62, "velocity": 103, "channel": 0}, {"type": "note_on", "time": 18, "note": 63, "velocity": 107, "channel": 0}, {"type": "note_off", "time": 94, "note": 63, "velocity": 107, "channel": 0}, {"type": "note_on", "time": 6, "note": 65, "velocity": 108, "channel": 0}, {"type": "note_off", "time": 75, "note": 65, "velocity": 108, "channel": 0}, {"type": "note_on", "time": 9, "note": 66, "velocity": 107, "channel": 0}, {"type": "note_off", "time": 81, "note": 66, "velocity": 107, "channel": 0}, {"type": "note_on", "time": 18, "note": 70, "velocity": 106, "channel": 0}, {"type": "note_off", "time": 84, "note": 70, "velocity": 106, "channel": 0}, {"type": "note_on", "time": 25, "note": 72, "velocity": 109, "channel": 0}, {"type": "note_off", "time": 81, "note": 72, "velocity": 109, "channel": 0}, {"type": "note_on", "time": 708, "note": 72, "velocity": 120, "channel": 0}, {"type": "note_off", "time": 81, "note": 72, "velocity": 120, "channel": 0}, {"type": "note_on", "time": 18, "note": 72, "velocity": 117, "channel": 0}, {"type": "note_off", "time": 72, "note": 72, "velocity": 117, "channel": 0}, {"type": "note_on", "time": 18, "note": 70, "velocity": 114, "channel": 0}, {"type": "note_off", "time": 78, "note": 70, "velocity": 114, "channel": 0}, {"type": "note_on", "time": 0, "note": 69, "velocity": 113, "channel": 0}, {"type": "note_off", "time": 94, "note": 69, "velocity": 113, "channel": 0}, {"type": "note_on", "time": 18, "note": 66, "velocity": 112, "channel": 0}, {"type": "note_off", "time": 91, "note": 66, "velocity": 112, "channel": 0}, {"type": "note_on", "time": 6, "note": 63, "velocity": 108, "channel": 0}, {"type": "note_off", "time": 78, "note": 63, "velocity": 108, "channel": 0}, {"type": "note_on", "time": 12, "note": 60, "velocity": 107, "channel": 0}, {"type": "note_off", "time": 84, "note": 60, "velocity": 107, "channel": 0}, {"type": "note_on", "time": 6, "note": 58, "velocity": 103, "channel": 0}, {"type": "note_off", "time": 81, "note": 58, "velocity": 103, "channel": 0}, {"type": "note_on", "time": 22, "note": 57, "velocity": 103, "channel": 0}, {"type": "note_off", "time": 69, "note": 57, "velocity": 103, "channel": 0}, {"type": "note_on", "time": 0, "note": 54, "velocity": 104, "channel": 0}, {"type": "note_off", "time": 97, "note": 54, "velocity": 104, "channel": 0}, {"type": "note_on", "time": 110, "note": 62, "velocity": 107, "channel": 0}, {"type": "note_off", "time": 94, "note": 62, "velocity": 107, "channel": 0}, {"type": "note_on", "time": 15, "note": 59, "velocity": 101, "channel": 0}, {"type": "note_off", "time": 94, "note": 59, "velocity": 101, "channel": 0}, {"type": "note_on", "time": 3, "note": 63, "velocity": 109, "channel": 0}, {"type": "note_off", "time": 88, "note": 63, "velocity": 109, "channel": 0}, {"type": "note_on", "time": 3, "note": 58, "velocity": 103, "channel": 0}, {"type": "note_off", "time": 94, "note": 58, "velocity": 103, "channel": 0}, {"type": "note_on", "time": 6, "note": 57, "velocity": 105, "channel": 0}, {"type": "note_off", "time": 78, "note": 57, "velocity": 105, "channel": 0}, {"type": "note_on", "time": 25, "note": 56, "velocity": 101, "channel": 0}, {"type": "note_off", "time": 91, "note": 56, "velocity": 101, "channel": 0}, {"type": "note_on", "time": 6, "note": 58, "velocity": 105, "channel": 0}, {"type": "note_off", "time": 88, "note": 58, "velocity": 105, "channel": 0}, {"type": "note_on", "time": 91, "note": 66, "velocity": 109, "channel": 0}, {"type": "note_off", "time": 81, "note": 66, "velocity": 109, "channel": 0}, {"type": "note_on", "time": 0, "note": 62, "velocity": 98, "channel": 0}, {"type": "note_off", "time": 110, "note": 62, "velocity": 98, "channel": 0}, {"type": "note_on", "time": 36, "note": 60, "velocity": 101, "channel": 0}, {"type": "note_off", "time": 31, "note": 60, "velocity": 101, "channel": 0}, {"type": "note_on", "time": 4, "note": 64, "velocity": 110, "channel": 0}, {"type": "note_off", "time": 94, "note": 64, "velocity": 110, "channel": 0}, {"type": "note_on", "time": 71, "note": 66, "velocity": 96, "channel": 0}, {"type": "note_off", "time": 34, "note": 66, "velocity": 96, "channel": 0}, {"type": "note_on", "time": 19, "note": 69, "velocity": 113, "channel": 0}, {"type": "note_off", "time": 75, "note": 69, "velocity": 113, "channel": 0}, {"type": "note_on", "time": 12, "note": 70, "velocity": 105, "channel": 0}, {"type": "note_off", "time": 81, "note": 70, "velocity": 105, "channel": 0}, {"type": "note_on", "time": 3, "note": 71, "velocity": 109, "channel": 0}, {"type": "note_off", "time": 97, "note": 71, "velocity": 109, "channel": 0}, {"type": "note_on", "time": 28, "note": 73, "velocity": 113, "channel": 0}, {"type": "note_off", "time": 84, "note": 73, "velocity": 113, "channel": 0}, {"type": "note_on", "time": 22, "note": 72, "velocity": 110, "channel": 0}, {"type": "note_off", "time": 88, "note": 72, "velocity": 110, "channel": 0}, {"type": "note_on", "time": 72, "note": 73, "velocity": 118, "channel": 0}, {"type": "note_off", "time": 122, "note": 73, "velocity": 118, "channel": 0}, {"type": "note_on", "time": 6, "note": 68, "velocity": 111, "channel": 0}, {"type": "note_off", "time": 56, "note": 68, "velocity": 111, "channel": 0}, {"type": "note_on", "time": 15, "note": 65, "velocity": 97, "channel": 0}, {"type": "note_off", "time": 53, "note": 65, "velocity": 97, "channel": 0}, {"type": "note_on", "time": 9, "note": 61, "velocity": 103, "channel": 0}, {"type": "note_off", "time": 59, "note": 61, "velocity": 103, "channel": 0}, {"type": "note_on", "time": 683, "note": 72, "velocity": 9, "channel": 0}, {"type": "note_off", "time": 103, "note": 72, "velocity": 9, "channel": 0}, {"type": "note_on", "time": 9, "note": 75, "velocity": 59, "channel": 0}, {"type": "note_off", "time": 69, "note": 75, "velocity": 59, "channel": 0}, {"type": "note_on", "time": 3, "note": 69, "velocity": 109, "channel": 0}, {"type": "note_off", "time": 81, "note": 69, "velocity": 109, "channel": 0}, {"type": "note_on", "time": 22, "note": 63, "velocity": 100, "channel": 0}, {"type": "note_off", "time": 84, "note": 63, "velocity": 100, "channel": 0}, {"type": "note_on", "time": 607, "note": 70, "velocity": 108, "channel": 0}, {"type": "note_off", "time": 97, "note": 70, "velocity": 108, "channel": 0}, {"type": "note_on", "time": 12, "note": 66, "velocity": 103, "channel": 0}, {"type": "note_off", "time": 75, "note": 66, "velocity": 103, "channel": 0}, {"type": "note_on", "time": 0, "note": 63, "velocity": 92, "channel": 0}, {"type": "note_off", "time": 75, "note": 63, "velocity": 92, "channel": 0}, {"type": "note_on", "time": 0, "note": 58, "velocity": 96, "channel": 0}, {"type": "note_off", "time": 85, "note": 58, "velocity": 96, "channel": 0}, {"type": "note_on", "time": 12, "note": 69, "velocity": 106, "channel": 0}, {"type": "note_off", "time": 110, "note": 69, "velocity": 106, "channel": 0}, {"type": "note_on", "time": 15, "note": 66, "velocity": 104, "channel": 0}, {"type": "note_off", "time": 69, "note": 66, "velocity": 104, "channel": 0}, {"type": "note_on", "time": 22, "note": 61, "velocity": 103, "channel": 0}, {"type": "note_off", "time": 88, "note": 61, "velocity": 103, "channel": 0}, {"type": "note_on", "time": 9, "note": 58, "velocity": 93, "channel": 0}, {"type": "note_off", "time": 56, "note": 58, "velocity": 93, "channel": 0}, {"type": "note_on", "time": 19, "note": 60, "velocity": 99, "channel": 0}, {"type": "note_off", "time": 97, "note": 60, "velocity": 99, "channel": 0}, {"type": "note_on", "time": 9, "note": 61, "velocity": 102, "channel": 0}, {"type": "note_off", "time": 81, "note": 61, "velocity": 102, "channel": 0}, {"type": "note_on", "time": 22, "note": 65, "velocity": 104, "channel": 0}, {"type": "note_off", "time": 84, "note": 65, "velocity": 104, "channel": 0}, {"type": "note_on", "time": 18, "note": 57, "velocity": 96, "channel": 0}, {"type": "note_off", "time": 97, "note": 57, "velocity": 96, "channel": 0}, {"type": "note_on", "time": 349, "note": 63, "velocity": 99, "channel": 0}, {"type": "note_off", "time": 289, "note": 63, "velocity": 99, "channel": 0}, {"type": "note_on", "time": 31, "note": 61, "velocity": 101, "channel": 0}, {"type": "note_off", "time": 75, "note": 61, "velocity": 101, "channel": 0}, {"type": "note_on", "time": 15, "note": 57, "velocity": 97, "channel": 0}, {"type": "note_off", "time": 110, "note": 57, "velocity": 97, "channel": 0}, {"type": "note_on", "time": 9, "note": 61, "velocity": 102, "channel": 0}, {"type": "note_off", "time": 78, "note": 61, "velocity": 102, "channel": 0}, {"type": "note_on", "time": 371, "note": 59, "velocity": 97, "channel": 0}, {"type": "note_off", "time": 88, "note": 59, "velocity": 97, "channel": 0}, {"type": "note_on", "time": 18, "note": 57, "velocity": 92, "channel": 0}, {"type": "note_off", "time": 62, "note": 57, "velocity": 92, "channel": 0}, {"type": "note_on", "time": 25, "note": 58, "velocity": 102, "channel": 0}, {"type": "note_off", "time": 72, "note": 58, "velocity": 102, "channel": 0}, {"type": "note_on", "time": 22, "note": 60, "velocity": 102, "channel": 0}, {"type": "note_off", "time": 66, "note": 60, "velocity": 102, "channel": 0}, {"type": "note_on", "time": 9, "note": 56, "velocity": 97, "channel": 0}, {"type": "note_off", "time": 69, "note": 56, "velocity": 97, "channel": 0}, {"type": "note_on", "time": 11, "note": 57, "velocity": 95, "channel": 0}, {"type": "note_off", "time": 414, "note": 57, "velocity": 95, "channel": 0}, {"type": "note_on", "time": 5, "note": 58, "velocity": 97, "channel": 0}, {"type": "note_off", "time": 81, "note": 58, "velocity": 97, "channel": 0}, {"type": "note_on", "time": 6, "note": 59, "velocity": 89, "channel": 0}, {"type": "note_on", "time": 84, "note": 61, "velocity": 99, "channel": 0}, {"type": "note_off", "time": 0, "note": 59, "velocity": 89, "channel": 0}, {"type": "note_off", "time": 75, "note": 61, "velocity": 99, "channel": 0}, {"type": "note_on", "time": 25, "note": 63, "velocity": 100, "channel": 0}, {"type": "note_off", "time": 107, "note": 63, "velocity": 100, "channel": 0}, {"type": "note_on", "time": 25, "note": 65, "velocity": 109, "channel": 0}, {"type": "note_off", "time": 66, "note": 65, "velocity": 109, "channel": 0}, {"type": "note_on", "time": 6, "note": 66, "velocity": 109, "channel": 0}, {"type": "note_off", "time": 78, "note": 66, "velocity": 109, "channel": 0}, {"type": "note_on", "time": 18, "note": 63, "velocity": 106, "channel": 0}, {"type": "note_off", "time": 66, "note": 63, "velocity": 106, "channel": 0}, {"type": "note_on", "time": 6, "note": 62, "velocity": 96, "channel": 0}, {"type": "note_off", "time": 91, "note": 62, "velocity": 96, "channel": 0}, {"type": "note_on", "time": 22, "note": 61, "velocity": 100, "channel": 0}, {"type": "note_off", "time": 81, "note": 61, "velocity": 100, "channel": 0}, {"type": "note_on", "time": 15, "note": 64, "velocity": 107, "channel": 0}, {"type": "note_off", "time": 84, "note": 64, "velocity": 107, "channel": 0}, {"type": "note_on", "time": 12, "note": 66, "velocity": 103, "channel": 0}, {"type": "note_off", "time": 78, "note": 66, "velocity": 103, "channel": 0}, {"type": "note_on", "time": 0, "note": 69, "velocity": 113, "channel": 0}, {"type": "note_off", "time": 69, "note": 69, "velocity": 113, "channel": 0}, {"type": "note_on", "time": 31, "note": 69, "velocity": 110, "channel": 0}, {"type": "note_off", "time": 91, "note": 69, "velocity": 110, "channel": 0}, {"type": "note_on", "time": 9, "note": 67, "velocity": 106, "channel": 0}, {"type": "note_off", "time": 97, "note": 67, "velocity": 106, "channel": 0}, {"type": "note_on", "time": 6, "note": 71, "velocity": 106, "channel": 0}, {"type": "note_off", "time": 72, "note": 71, "velocity": 106, "channel": 0}, {"type": "note_on", "time": 18, "note": 73, "velocity": 109, "channel": 0}, {"type": "note_off", "time": 81, "note": 73, "velocity": 109, "channel": 0}, {"type": "note_on", "time": 15, "note": 75, "velocity": 110, "channel": 0}, {"type": "note_off", "time": 59, "note": 75, "velocity": 110, "channel": 0}, {"type": "note_on", "time": 25, "note": 76, "velocity": 111, "channel": 0}, {"type": "note_off", "time": 97, "note": 76, "velocity": 111, "channel": 0}, {"type": "note_on", "time": 9, "note": 77, "velocity": 109, "channel": 0}, {"type": "note_off", "time": 88, "note": 77, "velocity": 109, "channel": 0}, {"type": "note_on", "time": 97, "note": 77, "velocity": 110, "channel": 0}, {"type": "note_off", "time": 78, "note": 77, "velocity": 110, "channel": 0}, {"type": "note_on", "time": 9, "note": 79, "velocity": 91, "channel": 0}, {"type": "note_off", "time": 324, "note": 79, "velocity": 91, "channel": 0}, {"type": "note_on", "time": 113, "note": 67, "velocity": 92, "channel": 0}, {"type": "note_off", "time": 302, "note": 67, "velocity": 92, "channel": 0}, {"type": "note_on", "time": 456, "note": 65, "velocity": 107, "channel": 0}, {"type": "note_off", "time": 122, "note": 65, "velocity": 107, "channel": 0}, {"type": "note_on", "time": 0, "note": 62, "velocity": 95, "channel": 0}, {"type": "note_off", "time": 59, "note": 62, "velocity": 95, "channel": 0}, {"type": "note_on", "time": 25, "note": 66, "velocity": 112, "channel": 0}, {"type": "note_off", "time": 103, "note": 66, "velocity": 112, "channel": 0}, {"type": "note_on", "time": 15, "note": 64, "velocity": 90, "channel": 0}, {"type": "note_off", "time": 56, "note": 64, "velocity": 90, "channel": 0}, {"type": "note_on", "time": 12, "note": 67, "velocity": 108, "channel": 0}, {"type": "note_off", "time": 110, "note": 67, "velocity": 108, "channel": 0}, {"type": "note_on", "time": 22, "note": 64, "velocity": 94, "channel": 0}, {"type": "note_off", "time": 59, "note": 64, "velocity": 94, "channel": 0}, {"type": "note_on", "time": 12, "note": 70, "velocity": 109, "channel": 0}, {"type": "note_off", "time": 100, "note": 70, "velocity": 109, "channel": 0}, {"type": "note_on", "time": 12, "note": 64, "velocity": 101, "channel": 0}, {"type": "note_off", "time": 53, "note": 64, "velocity": 101, "channel": 0}, {"type": "note_on", "time": 31, "note": 69, "velocity": 116, "channel": 0}, {"type": "note_off", "time": 84, "note": 69, "velocity": 116, "channel": 0}, {"type": "note_on", "time": 25, "note": 64, "velocity": 100, "channel": 0}, {"type": "note_off", "time": 47, "note": 64, "velocity": 100, "channel": 0}, {"type": "note_on", "time": 12, "note": 68, "velocity": 113, "channel": 0}, {"type": "note_off", "time": 107, "note": 68, "velocity": 113, "channel": 0}, {"type": "note_on", "time": 28, "note": 67, "velocity": 106, "channel": 0}, {"type": "note_off", "time": 107, "note": 67, "velocity": 106, "channel": 0}, {"type": "note_on", "time": 78, "note": 73, "velocity": 102, "channel": 0}, {"type": "note_off", "time": 59, "note": 73, "velocity": 102, "channel": 0}, {"type": "note_on", "time": 12, "note": 76, "velocity": 104, "channel": 0}, {"type": "note_off", "time": 37, "note": 76, "velocity": 104, "channel": 0}, {"type": "note_on", "time": 9, "note": 77, "velocity": 111, "channel": 0}, {"type": "note_off", "time": 75, "note": 77, "velocity": 111, "channel": 0}, {"type": "note_on", "time": 18, "note": 79, "velocity": 95, "channel": 0}, {"type": "note_off", "time": 236, "note": 79, "velocity": 95, "channel": 0}, {"type": "note_on", "time": 6, "note": 73, "velocity": 107, "channel": 0}, {"type": "note_off", "time": 119, "note": 73, "velocity": 107, "channel": 0}, {"type": "note_on", "time": 497, "note": 72, "velocity": 108, "channel": 0}, {"type": "note_off", "time": 94, "note": 72, "velocity": 108, "channel": 0}, {"type": "note_on", "time": 3, "note": 73, "velocity": 105, "channel": 0}, {"type": "note_off", "time": 81, "note": 73, "velocity": 105, "channel": 0}, {"type": "note_on", "time": 6, "note": 75, "velocity": 109, "channel": 0}, {"type": "note_off", "time": 84, "note": 75, "velocity": 109, "channel": 0}, {"type": "note_on", "time": 18, "note": 71, "velocity": 106, "channel": 0}, {"type": "note_off", "time": 81, "note": 71, "velocity": 106, "channel": 0}, {"type": "note_on", "time": 0, "note": 70, "velocity": 108, "channel": 0}, {"type": "note_off", "time": 91, "note": 70, "velocity": 108, "channel": 0}, {"type": "note_on", "time": 6, "note": 69, "velocity": 104, "channel": 0}, {"type": "note_on", "time": 62, "note": 68, "velocity": 104, "channel": 0}, {"type": "note_off", "time": 0, "note": 69, "velocity": 104, "channel": 0}, {"type": "note_off", "time": 53, "note": 68, "velocity": 104, "channel": 0}, {"type": "note_on", "time": 9, "note": 70, "velocity": 100, "channel": 0}, {"type": "note_off", "time": 37, "note": 70, "velocity": 100, "channel": 0}, {"type": "note_on", "time": 4, "note": 73, "velocity": 105, "channel": 0}, {"type": "note_off", "time": 34, "note": 73, "velocity": 105, "channel": 0}, {"type": "note_on", "time": 9, "note": 75, "velocity": 102, "channel": 0}, {"type": "note_off", "time": 36, "note": 75, "velocity": 102, "channel": 0}, {"type": "note_on", "time": 2, "note": 76, "velocity": 96, "channel": 0}, {"type": "note_off", "time": 29, "note": 76, "velocity": 96, "channel": 0}, {"type": "note_on", "time": 14, "note": 68, "velocity": 113, "channel": 0}, {"type": "note_off", "time": 34, "note": 68, "velocity": 113, "channel": 0}, {"type": "note_on", "time": 3, "note": 65, "velocity": 105, "channel": 0}, {"type": "note_off", "time": 37, "note": 65, "velocity": 105, "channel": 0}, {"type": "note_on", "time": 4, "note": 64, "velocity": 103, "channel": 0}, {"type": "note_off", "time": 39, "note": 64, "velocity": 103, "channel": 0}, {"type": "note_on", "time": 9, "note": 62, "velocity": 104, "channel": 0}, {"type": "note_off", "time": 40, "note": 62, "velocity": 104, "channel": 0}, {"type": "note_on", "time": 10, "note": 61, "velocity": 104, "channel": 0}, {"type": "note_off", "time": 84, "note": 61, "velocity": 104, "channel": 0}, {"type": "note_on", "time": 8, "note": 63, "velocity": 101, "channel": 0}, {"type": "note_off", "time": 31, "note": 63, "velocity": 101, "channel": 0}, {"type": "note_on", "time": 5, "note": 66, "velocity": 106, "channel": 0}, {"type": "note_off", "time": 32, "note": 66, "velocity": 106, "channel": 0}, {"type": "note_on", "time": 3, "note": 68, "velocity": 98, "channel": 0}, {"type": "note_off", "time": 31, "note": 68, "velocity": 98, "channel": 0}, {"type": "note_on", "time": 6, "note": 71, "velocity": 94, "channel": 0}, {"type": "note_off", "time": 35, "note": 71, "velocity": 94, "channel": 0}, {"type": "note_on", "time": 5, "note": 73, "velocity": 93, "channel": 0}, {"type": "note_off", "time": 37, "note": 73, "velocity": 93, "channel": 0}, {"type": "note_on", "time": 18, "note": 75, "velocity": 108, "channel": 0}, {"type": "note_off", "time": 91, "note": 75, "velocity": 108, "channel": 0}, {"type": "note_on", "time": 388, "note": 78, "velocity": 94, "channel": 0}, {"type": "note_off", "time": 29, "note": 78, "velocity": 94, "channel": 0}, {"type": "note_on", "time": 6, "note": 75, "velocity": 108, "channel": 0}, {"type": "note_off", "time": 176, "note": 75, "velocity": 108, "channel": 0}, {"type": "note_on", "time": 13, "note": 76, "velocity": 104, "channel": 0}, {"type": "note_off", "time": 60, "note": 76, "velocity": 104, "channel": 0}, {"type": "note_on", "time": 11, "note": 75, "velocity": 103, "channel": 0}, {"type": "note_off", "time": 40, "note": 75, "velocity": 103, "channel": 0}, {"type": "note_on", "time": 6, "note": 71, "velocity": 102, "channel": 0}, {"type": "note_off", "time": 40, "note": 71, "velocity": 102, "channel": 0}, {"type": "note_on", "time": 3, "note": 68, "velocity": 102, "channel": 0}, {"type": "note_off", "time": 50, "note": 68, "velocity": 102, "channel": 0}, {"type": "note_on", "time": 6, "note": 64, "velocity": 101, "channel": 0}, {"type": "note_off", "time": 59, "note": 64, "velocity": 101, "channel": 0}, {"type": "note_on", "time": 8, "note": 68, "velocity": 95, "channel": 0}, {"type": "note_off", "time": 56, "note": 68, "velocity": 95, "channel": 0}, {"type": "note_on", "time": 12, "note": 69, "velocity": 101, "channel": 0}, {"type": "note_off", "time": 31, "note": 69, "velocity": 101, "channel": 0}, {"type": "note_on", "time": 0, "note": 63, "velocity": 100, "channel": 0}, {"type": "note_off", "time": 47, "note": 63, "velocity": 100, "channel": 0}, {"type": "note_on", "time": 6, "note": 62, "velocity": 97, "channel": 0}, {"type": "note_off", "time": 69, "note": 62, "velocity": 97, "channel": 0}, {"type": "note_on", "time": 25, "note": 63, "velocity": 104, "channel": 0}, {"type": "note_off", "time": 40, "note": 63, "velocity": 104, "channel": 0}, {"type": "note_on", "time": 12, "note": 69, "velocity": 105, "channel": 0}, {"type": "note_off", "time": 62, "note": 69, "velocity": 105, "channel": 0}, {"type": "note_on", "time": 9, "note": 68, "velocity": 106, "channel": 0}, {"type": "note_off", "time": 50, "note": 68, "velocity": 106, "channel": 0}, {"type": "note_on", "time": 22, "note": 60, "velocity": 103, "channel": 0}, {"type": "note_on", "time": 31, "note": 58, "velocity": 96, "channel": 0}, {"type": "note_off", "time": 0, "note": 60, "velocity": 103, "channel": 0}, {"type": "note_off", "time": 50, "note": 58, "velocity": 96, "channel": 0}, {"type": "note_on", "time": 12, "note": 60, "velocity": 99, "channel": 0}, {"type": "note_off", "time": 66, "note": 60, "velocity": 99, "channel": 0}, {"type": "note_on", "time": 393, "note": 68, "velocity": 94, "channel": 0}, {"type": "note_off", "time": 56, "note": 68, "velocity": 94, "channel": 0}, {"type": "note_on", "time": 25, "note": 64, "velocity": 103, "channel": 0}, {"type": "note_off", "time": 56, "note": 64, "velocity": 103, "channel": 0}, {"type": "note_on", "time": 3, "note": 68, "velocity": 111, "channel": 0}, {"type": "note_off", "time": 59, "note": 68, "velocity": 111, "channel": 0}, {"type": "note_on", "time": 12, "note": 69, "velocity": 112, "channel": 0}, {"type": "note_off", "time": 31, "note": 69, "velocity": 112, "channel": 0}, {"type": "note_on", "time": 3, "note": 63, "velocity": 101, "channel": 0}, {"type": "note_off", "time": 47, "note": 63, "velocity": 101, "channel": 0}, {"type": "note_on", "time": 15, "note": 62, "velocity": 99, "channel": 0}, {"type": "note_off", "time": 47, "note": 62, "velocity": 99, "channel": 0}, {"type": "note_on", "time": 3, "note": 61, "velocity": 104, "channel": 0}, {"type": "note_off", "time": 47, "note": 61, "velocity": 104, "channel": 0}, {"type": "note_on", "time": 9, "note": 64, "velocity": 108, "channel": 0}, {"type": "note_off", "time": 40, "note": 64, "velocity": 108, "channel": 0}, {"type": "note_on", "time": 0, "note": 69, "velocity": 105, "channel": 0}, {"type": "note_off", "time": 37, "note": 69, "velocity": 105, "channel": 0}, {"type": "note_on", "time": 12, "note": 68, "velocity": 104, "channel": 0}, {"type": "note_off", "time": 72, "note": 68, "velocity": 104, "channel": 0}, {"type": "note_on", "time": 22, "note": 71, "velocity": 100, "channel": 0}, {"type": "note_off", "time": 50, "note": 71, "velocity": 100, "channel": 0}, {"type": "note_on", "time": 15, "note": 58, "velocity": 96, "channel": 0}, {"type": "note_off", "time": 62, "note": 58, "velocity": 96, "channel": 0}, {"type": "note_on", "time": 6, "note": 60, "velocity": 94, "channel": 0}, {"type": "note_off", "time": 37, "note": 60, "velocity": 94, "channel": 0}, {"type": "note_on", "time": 12, "note": 63, "velocity": 103, "channel": 0}, {"type": "note_off", "time": 37, "note": 63, "velocity": 103, "channel": 0}, {"type": "note_on", "time": 15, "note": 68, "velocity": 107, "channel": 0}, {"type": "note_off", "time": 44, "note": 68, "velocity": 107, "channel": 0}, {"type": "note_on", "time": 9, "note": 67, "velocity": 78, "channel": 0}, {"type": "note_off", "time": 47, "note": 67, "velocity": 78, "channel": 0}, {"type": "note_on", "time": 443, "note": 67, "velocity": 108, "channel": 0}, {"type": "note_off", "time": 69, "note": 67, "velocity": 108, "channel": 0}, {"type": "note_on", "time": 0, "note": 63, "velocity": 98, "channel": 0}, {"type": "note_off", "time": 78, "note": 63, "velocity": 98, "channel": 0}, {"type": "note_on", "time": 0, "note": 60, "velocity": 97, "channel": 0}, {"type": "note_off", "time": 59, "note": 60, "velocity": 97, "channel": 0}, {"type": "note_on", "time": 0, "note": 68, "velocity": 108, "channel": 0}, {"type": "note_off", "time": 40, "note": 68, "velocity": 108, "channel": 0}, {"type": "note_on", "time": 6, "note": 66, "velocity": 109, "channel": 0}, {"type": "note_off", "time": 56, "note": 66, "velocity": 109, "channel": 0}, {"type": "note_on", "time": 15, "note": 62, "velocity": 99, "channel": 0}, {"type": "note_off", "time": 50, "note": 62, "velocity": 99, "channel": 0}, {"type": "note_on", "time": 9, "note": 61, "velocity": 100, "channel": 0}, {"type": "note_off", "time": 47, "note": 61, "velocity": 100, "channel": 0}, {"type": "note_on", "time": 3, "note": 64, "velocity": 105, "channel": 0}, {"type": "note_off", "time": 66, "note": 64, "velocity": 105, "channel": 0}, {"type": "note_on", "time": 15, "note": 65, "velocity": 107, "channel": 0}, {"type": "note_off", "time": 72, "note": 65, "velocity": 107, "channel": 0}, {"type": "note_on", "time": 0, "note": 66, "velocity": 109, "channel": 0}, {"type": "note_off", "time": 47, "note": 66, "velocity": 109, "channel": 0}, {"type": "note_on", "time": 9, "note": 61, "velocity": 102, "channel": 0}, {"type": "note_off", "time": 71, "note": 61, "velocity": 102, "channel": 0}, {"type": "note_on", "time": 5, "note": 60, "velocity": 101, "channel": 0}, {"type": "note_off", "time": 60, "note": 60, "velocity": 101, "channel": 0}, {"type": "note_on", "time": 19, "note": 59, "velocity": 101, "channel": 0}, {"type": "note_off", "time": 84, "note": 59, "velocity": 101, "channel": 0}, {"type": "note_on", "time": 0, "note": 62, "velocity": 95, "channel": 0}, {"type": "note_off", "time": 50, "note": 62, "velocity": 95, "channel": 0}, {"type": "note_on", "time": 0, "note": 66, "velocity": 106, "channel": 0}, {"type": "note_off", "time": 69, "note": 66, "velocity": 106, "channel": 0}, {"type": "note_on", "time": 15, "note": 64, "velocity": 103, "channel": 0}, {"type": "note_off", "time": 56, "note": 64, "velocity": 103, "channel": 0}, {"type": "note_on", "time": 0, "note": 67, "velocity": 101, "channel": 0}, {"type": "note_off", "time": 66, "note": 67, "velocity": 101, "channel": 0}, {"type": "note_on", "time": 0, "note": 64, "velocity": 105, "channel": 0}, {"type": "note_off", "time": 84, "note": 64, "velocity": 105, "channel": 0}, {"type": "note_on", "time": 34, "note": 69, "velocity": 101, "channel": 0}, {"type": "note_off", "time": 72, "note": 69, "velocity": 101, "channel": 0}, {"type": "note_on", "time": 15, "note": 66, "velocity": 95, "channel": 0}, {"type": "note_off", "time": 34, "note": 66, "velocity": 95, "channel": 0}, {"type": "note_on", "time": 0, "note": 63, "velocity": 97, "channel": 0}, {"type": "note_off", "time": 53, "note": 63, "velocity": 97, "channel": 0}, {"type": "note_on", "time": 6, "note": 62, "velocity": 100, "channel": 0}, {"type": "note_off", "time": 56, "note": 62, "velocity": 100, "channel": 0}, {"type": "note_on", "time": 6, "note": 61, "velocity": 97, "channel": 0}, {"type": "note_off", "time": 72, "note": 61, "velocity": 97, "channel": 0}, {"type": "note_on", "time": 0, "note": 64, "velocity": 101, "channel": 0}, {"type": "note_off", "time": 56, "note": 64, "velocity": 101, "channel": 0}, {"type": "note_on", "time": 12, "note": 69, "velocity": 108, "channel": 0}, {"type": "note_off", "time": 56, "note": 69, "velocity": 108, "channel": 0}, {"type": "note_on", "time": 6, "note": 66, "velocity": 103, "channel": 0}, {"type": "note_off", "time": 50, "note": 66, "velocity": 103, "channel": 0}, {"type": "note_on", "time": 28, "note": 61, "velocity": 100, "channel": 0}, {"type": "note_off", "time": 66, "note": 61, "velocity": 100, "channel": 0}, {"type": "note_on", "time": 9, "note": 58, "velocity": 103, "channel": 0}, {"type": "note_off", "time": 62, "note": 58, "velocity": 103, "channel": 0}, {"type": "note_on", "time": 0, "note": 59, "velocity": 99, "channel": 0}, {"type": "note_off", "time": 78, "note": 59, "velocity": 99, "channel": 0}, {"type": "note_on", "time": 0, "note": 62, "velocity": 100, "channel": 0}, {"type": "note_off", "time": 56, "note": 62, "velocity": 100, "channel": 0}, {"type": "note_on", "time": 7, "note": 59, "velocity": 100, "channel": 0}, {"type": "note_off", "time": 39, "note": 59, "velocity": 100, "channel": 0}, {"type": "note_on", "time": 3, "note": 55, "velocity": 97, "channel": 0}, {"type": "note_off", "time": 48, "note": 55, "velocity": 97, "channel": 0}, {"type": "note_on", "time": 1, "note": 57, "velocity": 96, "channel": 0}, {"type": "note_off", "time": 198, "note": 57, "velocity": 96, "channel": 0}, {"type": "note_on", "time": 440, "note": 54, "velocity": 106, "channel": 0}, {"type": "note_off", "time": 53, "note": 54, "velocity": 106, "channel": 0}, {"type": "note_on", "time": 0, "note": 56, "velocity": 107, "channel": 0}, {"type": "note_off", "time": 63, "note": 56, "velocity": 107, "channel": 0}, {"type": "note_on", "time": 0, "note": 58, "velocity": 102, "channel": 0}, {"type": "note_off", "time": 42, "note": 58, "velocity": 102, "channel": 0}, {"type": "note_on", "time": 0, "note": 61, "velocity": 99, "channel": 0}, {"type": "note_off", "time": 313, "note": 61, "velocity": 99, "channel": 0}, {"type": "note_on", "time": 18, "note": 59, "velocity": 103, "channel": 0}, {"type": "note_off", "time": 47, "note": 59, "velocity": 103, "channel": 0}, {"type": "note_on", "time": 15, "note": 58, "velocity": 105, "channel": 0}, {"type": "note_off", "time": 56, "note": 58, "velocity": 105, "channel": 0}, {"type": "note_on", "time": 3, "note": 57, "velocity": 104, "channel": 0}, {"type": "note_off", "time": 40, "note": 57, "velocity": 104, "channel": 0}, {"type": "note_on", "time": 21, "note": 56, "velocity": 98, "channel": 0}, {"type": "note_off", "time": 50, "note": 56, "velocity": 98, "channel": 0}, {"type": "note_on", "time": 0, "note": 58, "velocity": 105, "channel": 0}, {"type": "note_off", "time": 28, "note": 58, "velocity": 105, "channel": 0}, {"type": "note_on", "time": 5, "note": 61, "velocity": 107, "channel": 0}, {"type": "note_off", "time": 33, "note": 61, "velocity": 107, "channel": 0}, {"type": "note_on", "time": 0, "note": 63, "velocity": 108, "channel": 0}, {"type": "note_off", "time": 27, "note": 63, "velocity": 108, "channel": 0}, {"type": "note_on", "time": 6, "note": 65, "velocity": 91, "channel": 0}, {"type": "note_off", "time": 38, "note": 65, "velocity": 91, "channel": 0}, {"type": "note_on", "time": 8, "note": 68, "velocity": 84, "channel": 0}, {"type": "note_off", "time": 34, "note": 68, "velocity": 84, "channel": 0}, {"type": "note_on", "time": 7, "note": 68, "velocity": 100, "channel": 0}, {"type": "note_off", "time": 77, "note": 68, "velocity": 100, "channel": 0}, {"type": "note_on", "time": 6, "note": 62, "velocity": 102, "channel": 0}, {"type": "note_off", "time": 43, "note": 62, "velocity": 102, "channel": 0}, {"type": "note_on", "time": 3, "note": 61, "velocity": 100, "channel": 0}, {"type": "note_off", "time": 74, "note": 61, "velocity": 100, "channel": 0}, {"type": "note_on", "time": 8, "note": 63, "velocity": 102, "channel": 0}, {"type": "note_off", "time": 41, "note": 63, "velocity": 102, "channel": 0}, {"type": "note_on", "time": 8, "note": 65, "velocity": 90, "channel": 0}, {"type": "note_off", "time": 140, "note": 65, "velocity": 90, "channel": 0}, {"type": "note_on", "time": 10, "note": 76, "velocity": 107, "channel": 0}, {"type": "note_off", "time": 67, "note": 76, "velocity": 107, "channel": 0}, {"type": "note_on", "time": 6, "note": 75, "velocity": 107, "channel": 0}, {"type": "note_off", "time": 80, "note": 75, "velocity": 107, "channel": 0}, {"type": "note_on", "time": 700, "note": 74, "velocity": 117, "channel": 0}, {"type": "note_off", "time": 73, "note": 74, "velocity": 117, "channel": 0}, {"type": "note_on", "time": 26, "note": 75, "velocity": 102, "channel": 0}, {"type": "note_off", "time": 51, "note": 75, "velocity": 102, "channel": 0}, {"type": "note_on", "time": 20, "note": 76, "velocity": 117, "channel": 0}, {"type": "note_off", "time": 85, "note": 76, "velocity": 117, "channel": 0}, {"type": "note_on", "time": 24, "note": 78, "velocity": 112, "channel": 0}, {"type": "note_off", "time": 60, "note": 78, "velocity": 112, "channel": 0}, {"type": "note_on", "time": 91, "note": 82, "velocity": 99, "channel": 0}, {"type": "note_off", "time": 322, "note": 82, "velocity": 99, "channel": 0}, {"type": "note_on", "time": 326, "note": 80, "velocity": 113, "channel": 0}, {"type": "note_off", "time": 58, "note": 80, "velocity": 113, "channel": 0}, {"type": "note_on", "time": 11, "note": 75, "velocity": 113, "channel": 0}, {"type": "note_off", "time": 76, "note": 75, "velocity": 113, "channel": 0}, {"type": "note_on", "time": 26, "note": 70, "velocity": 107, "channel": 0}, {"type": "note_off", "time": 78, "note": 70, "velocity": 107, "channel": 0}, {"type": "note_on", "time": 42, "note": 66, "velocity": 110, "channel": 0}, {"type": "note_off", "time": 73, "note": 66, "velocity": 110, "channel": 0}, {"type": "note_on", "time": 0, "note": 68, "velocity": 97, "channel": 0}, {"type": "note_off", "time": 73, "note": 68, "velocity": 97, "channel": 0}, {"type": "note_on", "time": 24, "note": 71, "velocity": 106, "channel": 0}, {"type": "note_off", "time": 78, "note": 71, "velocity": 106, "channel": 0}, {"type": "note_on", "time": 8, "note": 73, "velocity": 109, "channel": 0}, {"type": "note_off", "time": 73, "note": 73, "velocity": 109, "channel": 0}, {"type": "note_on", "time": 11, "note": 76, "velocity": 113, "channel": 0}, {"type": "note_off", "time": 24, "note": 76, "velocity": 113, "channel": 0}, {"type": "note_on", "time": 2, "note": 75, "velocity": 113, "channel": 0}, {"type": "note_off", "time": 80, "note": 75, "velocity": 113, "channel": 0}, {"type": "note_on", "time": 8, "note": 76, "velocity": 114, "channel": 0}, {"type": "note_off", "time": 82, "note": 76, "velocity": 114, "channel": 0}, {"type": "note_on", "time": 29, "note": 80, "velocity": 111, "channel": 0}, {"type": "note_off", "time": 60, "note": 80, "velocity": 111, "channel": 0}, {"type": "note_on", "time": 24, "note": 81, "velocity": 98, "channel": 0}, {"type": "note_off", "time": 60, "note": 81, "velocity": 98, "channel": 0}, {"type": "note_on", "time": 20, "note": 79, "velocity": 107, "channel": 0}, {"type": "note_off", "time": 91, "note": 79, "velocity": 107, "channel": 0}, {"type": "note_on", "time": 22, "note": 75, "velocity": 101, "channel": 0}, {"type": "note_off", "time": 411, "note": 75, "velocity": 101, "channel": 0}, {"type": "note_on", "time": 8, "note": 71, "velocity": 100, "channel": 0}, {"type": "note_off", "time": 73, "note": 71, "velocity": 100, "channel": 0}, {"type": "note_on", "time": 2, "note": 70, "velocity": 106, "channel": 0}, {"type": "note_off", "time": 91, "note": 70, "velocity": 106, "channel": 0}, {"type": "note_on", "time": 15, "note": 69, "velocity": 113, "channel": 0}, {"type": "note_off", "time": 51, "note": 69, "velocity": 113, "channel": 0}, {"type": "note_on", "time": 24, "note": 68, "velocity": 112, "channel": 0}, {"type": "note_off", "time": 85, "note": 68, "velocity": 112, "channel": 0}, {"type": "note_on", "time": 4, "note": 70, "velocity": 108, "channel": 0}, {"type": "note_off", "time": 87, "note": 70, "velocity": 108, "channel": 0}, {"type": "note_on", "time": 15, "note": 71, "velocity": 107, "channel": 0}, {"type": "note_off", "time": 73, "note": 71, "velocity": 107, "channel": 0}, {"type": "note_on", "time": 11, "note": 73, "velocity": 115, "channel": 0}, {"type": "note_off", "time": 73, "note": 73, "velocity": 115, "channel": 0}, {"type": "note_on", "time": 17, "note": 74, "velocity": 111, "channel": 0}, {"type": "note_off", "time": 91, "note": 74, "velocity": 111, "channel": 0}, {"type": "note_on", "time": 6, "note": 75, "velocity": 110, "channel": 0}, {"type": "note_off", "time": 76, "note": 75, "velocity": 110, "channel": 0}, {"type": "note_on", "time": 0, "note": 70, "velocity": 107, "channel": 0}, {"type": "note_off", "time": 85, "note": 70, "velocity": 107, "channel": 0}, {"type": "note_on", "time": 15, "note": 69, "velocity": 110, "channel": 0}, {"type": "note_off", "time": 71, "note": 69, "velocity": 110, "channel": 0}, {"type": "note_on", "time": 15, "note": 67, "velocity": 108, "channel": 0}, {"type": "note_off", "time": 67, "note": 67, "velocity": 108, "channel": 0}, {"type": "note_on", "time": 58, "note": 71, "velocity": 107, "channel": 0}, {"type": "note_off", "time": 53, "note": 71, "velocity": 107, "channel": 0}, {"type": "note_on", "time": 8, "note": 72, "velocity": 110, "channel": 0}, {"type": "note_off", "time": 235, "note": 72, "velocity": 110, "channel": 0}, {"type": "note_on", "time": 13, "note": 71, "velocity": 105, "channel": 0}, {"type": "note_off", "time": 96, "note": 71, "velocity": 105, "channel": 0}, {"type": "note_on", "time": 29, "note": 70, "velocity": 107, "channel": 0}, {"type": "note_off", "time": 76, "note": 70, "velocity": 107, "channel": 0}, {"type": "note_on", "time": 98, "note": 69, "velocity": 112, "channel": 0}, {"type": "note_off", "time": 67, "note": 69, "velocity": 112, "channel": 0}, {"type": "note_on", "time": 22, "note": 68, "velocity": 111, "channel": 0}, {"type": "note_off", "time": 78, "note": 68, "velocity": 111, "channel": 0}, {"type": "note_on", "time": 22, "note": 66, "velocity": 109, "channel": 0}, {"type": "note_off", "time": 82, "note": 66, "velocity": 109, "channel": 0}, {"type": "note_on", "time": 11, "note": 65, "velocity": 108, "channel": 0}, {"type": "note_off", "time": 69, "note": 65, "velocity": 108, "channel": 0}, {"type": "note_on", "time": 0, "note": 61, "velocity": 105, "channel": 0}, {"type": "note_off", "time": 107, "note": 61, "velocity": 105, "channel": 0}, {"type": "note_on", "time": 13, "note": 58, "velocity": 101, "channel": 0}, {"type": "note_off", "time": 87, "note": 58, "velocity": 101, "channel": 0}, {"type": "note_on", "time": 8, "note": 54, "velocity": 96, "channel": 0}, {"type": "note_off", "time": 64, "note": 54, "velocity": 96, "channel": 0}, {"type": "note_on", "time": 35, "note": 60, "velocity": 105, "channel": 0}, {"type": "note_off", "time": 71, "note": 60, "velocity": 105, "channel": 0}, {"type": "note_on", "time": 11, "note": 62, "velocity": 100, "channel": 0}, {"type": "note_off", "time": 82, "note": 62, "velocity": 100, "channel": 0}, {"type": "note_on", "time": 15, "note": 58, "velocity": 100, "channel": 0}, {"type": "note_off", "time": 127, "note": 58, "velocity": 100, "channel": 0}, {"type": "note_on", "time": 2, "note": 54, "velocity": 99, "channel": 0}, {"type": "note_off", "time": 50, "note": 54, "velocity": 99, "channel": 0}, {"type": "note_on", "time": 6, "note": 56, "velocity": 109, "channel": 0}, {"type": "note_off", "time": 71, "note": 56, "velocity": 109, "channel": 0}, {"type": "note_on", "time": 19, "note": 54, "velocity": 105, "channel": 0}, {"type": "note_off", "time": 80, "note": 54, "velocity": 105, "channel": 0}, {"type": "note_on", "time": 2, "note": 53, "velocity": 104, "channel": 0}, {"type": "note_off", "time": 89, "note": 53, "velocity": 104, "channel": 0}, {"type": "note_on", "time": 24, "note": 58, "velocity": 101, "channel": 0}, {"type": "note_off", "time": 64, "note": 58, "velocity": 101, "channel": 0}, {"type": "note_on", "time": 8, "note": 53, "velocity": 96, "channel": 0}, {"type": "note_off", "time": 214, "note": 53, "velocity": 96, "channel": 0}, {"type": "note_on", "time": 20, "note": 51, "velocity": 102, "channel": 0}, {"type": "note_off", "time": 78, "note": 51, "velocity": 102, "channel": 0}, {"type": "note_on", "time": 11, "note": 49, "velocity": 102, "channel": 0}, {"type": "note_off", "time": 141, "note": 49, "velocity": 102, "channel": 0}, {"type": "note_on", "time": 731, "note": 60, "velocity": 108, "channel": 0}, {"type": "note_off", "time": 67, "note": 60, "velocity": 108, "channel": 0}, {"type": "note_on", "time": 0, "note": 58, "velocity": 104, "channel": 0}, {"type": "note_off", "time": 89, "note": 58, "velocity": 104, "channel": 0}, {"type": "note_on", "time": 8, "note": 53, "velocity": 104, "channel": 0}, {"type": "note_off", "time": 204, "note": 53, "velocity": 104, "channel": 0}, {"type": "note_on", "time": 8, "note": 55, "velocity": 101, "channel": 0}, {"type": "note_off", "time": 794, "note": 55, "velocity": 101, "channel": 0}, {"type": "note_on", "time": 59, "note": 55, "velocity": 92, "channel": 0}, {"type": "note_off", "time": 102, "note": 55, "velocity": 92, "channel": 0}, {"type": "note_on", "time": 615, "note": 58, "velocity": 105, "channel": 0}, {"type": "note_off", "time": 80, "note": 58, "velocity": 105, "channel": 0}, {"type": "note_on", "time": 15, "note": 53, "velocity": 97, "channel": 0}, {"type": "note_off", "time": 87, "note": 53, "velocity": 97, "channel": 0}, {"type": "note_on", "time": 0, "note": 58, "velocity": 105, "channel": 0}, {"type": "note_off", "time": 80, "note": 58, "velocity": 105, "channel": 0}, {"type": "note_on", "time": 17, "note": 62, "velocity": 108, "channel": 0}, {"type": "note_off", "time": 96, "note": 62, "velocity": 108, "channel": 0}, {"type": "note_on", "time": 2, "note": 58, "velocity": 104, "channel": 0}, {"type": "note_off", "time": 100, "note": 58, "velocity": 104, "channel": 0}, {"type": "note_on", "time": 0, "note": 53, "velocity": 102, "channel": 0}, {"type": "note_off", "time": 87, "note": 53, "velocity": 102, "channel": 0}, {"type": "note_on", "time": 0, "note": 57, "velocity": 109, "channel": 0}, {"type": "note_off", "time": 82, "note": 57, "velocity": 109, "channel": 0}, {"type": "note_on", "time": 22, "note": 53, "velocity": 100, "channel": 0}, {"type": "note_off", "time": 76, "note": 53, "velocity": 100, "channel": 0}, {"type": "note_on", "time": 0, "note": 56, "velocity": 105, "channel": 0}, {"type": "note_off", "time": 100, "note": 56, "velocity": 105, "channel": 0}, {"type": "note_on", "time": 17, "note": 53, "velocity": 92, "channel": 0}, {"type": "note_off", "time": 76, "note": 53, "velocity": 92, "channel": 0}, {"type": "note_on", "time": 6, "note": 55, "velocity": 103, "channel": 0}, {"type": "note_off", "time": 71, "note": 55, "velocity": 103, "channel": 0}, {"type": "note_on", "time": 0, "note": 49, "velocity": 113, "channel": 0}, {"type": "note_off", "time": 89, "note": 49, "velocity": 113, "channel": 0}, {"type": "note_on", "time": 0, "note": 55, "velocity": 102, "channel": 0}, {"type": "note_off", "time": 69, "note": 55, "velocity": 102, "channel": 0}, {"type": "note_on", "time": 35, "note": 55, "velocity": 101, "channel": 0}, {"type": "note_off", "time": 76, "note": 55, "velocity": 101, "channel": 0}, {"type": "note_on", "time": 2, "note": 49, "velocity": 110, "channel": 0}, {"type": "note_off", "time": 87, "note": 49, "velocity": 110, "channel": 0}, {"type": "note_on", "time": 15, "note": 53, "velocity": 106, "channel": 0}, {"type": "note_off", "time": 60, "note": 53, "velocity": 106, "channel": 0}, {"type": "note_on", "time": 22, "note": 64, "velocity": 108, "channel": 0}, {"type": "note_off", "time": 308, "note": 64, "velocity": 108, "channel": 0}, {"type": "note_on", "time": 8, "note": 59, "velocity": 101, "channel": 0}, {"type": "note_off", "time": 80, "note": 59, "velocity": 101, "channel": 0}, {"type": "note_on", "time": 13, "note": 53, "velocity": 102, "channel": 0}, {"type": "note_off", "time": 78, "note": 53, "velocity": 102, "channel": 0}, {"type": "note_on", "time": 0, "note": 51, "velocity": 105, "channel": 0}, {"type": "note_off", "time": 100, "note": 51, "velocity": 105, "channel": 0}, {"type": "note_on", "time": 98, "note": 63, "velocity": 106, "channel": 0}, {"type": "note_off", "time": 87, "note": 63, "velocity": 106, "channel": 0}, {"type": "note_on", "time": 6, "note": 62, "velocity": 109, "channel": 0}, {"type": "note_off", "time": 91, "note": 62, "velocity": 109, "channel": 0}, {"type": "note_on", "time": 0, "note": 50, "velocity": 107, "channel": 0}, {"type": "note_off", "time": 80, "note": 50, "velocity": 107, "channel": 0}, {"type": "note_on", "time": 10, "note": 57, "velocity": 102, "channel": 0}, {"type": "note_off", "time": 85, "note": 57, "velocity": 102, "channel": 0}, {"type": "note_on", "time": 35, "note": 62, "velocity": 105, "channel": 0}, {"type": "note_off", "time": 87, "note": 62, "velocity": 105, "channel": 0}, {"type": "note_on", "time": 4, "note": 61, "velocity": 105, "channel": 0}, {"type": "note_off", "time": 76, "note": 61, "velocity": 105, "channel": 0}, {"type": "note_on", "time": 24, "note": 62, "velocity": 104, "channel": 0}, {"type": "note_off", "time": 85, "note": 62, "velocity": 104, "channel": 0}, {"type": "note_on", "time": 15, "note": 58, "velocity": 104, "channel": 0}, {"type": "note_off", "time": 78, "note": 58, "velocity": 104, "channel": 0}, {"type": "note_on", "time": 11, "note": 50, "velocity": 110, "channel": 0}, {"type": "note_off", "time": 91, "note": 50, "velocity": 110, "channel": 0}, {"type": "note_on", "time": 4, "note": 55, "velocity": 101, "channel": 0}, {"type": "note_off", "time": 199, "note": 55, "velocity": 101, "channel": 0}, {"type": "note_on", "time": 0, "note": 50, "velocity": 104, "channel": 0}, {"type": "note_off", "time": 82, "note": 50, "velocity": 104, "channel": 0}, {"type": "note_on", "time": 20, "note": 58, "velocity": 101, "channel": 0}, {"type": "note_off", "time": 78, "note": 58, "velocity": 101, "channel": 0}, {"type": "note_on", "time": 6, "note": 55, "velocity": 94, "channel": 0}, {"type": "note_off", "time": 183, "note": 55, "velocity": 94, "channel": 0}, {"type": "note_on", "time": 156, "note": 58, "velocity": 103, "channel": 0}, {"type": "note_off", "time": 64, "note": 58, "velocity": 103, "channel": 0}, {"type": "note_on", "time": 17, "note": 55, "velocity": 103, "channel": 0}, {"type": "note_off", "time": 78, "note": 55, "velocity": 103, "channel": 0}, {"type": "note_on", "time": 13, "note": 52, "velocity": 104, "channel": 0}, {"type": "note_off", "time": 89, "note": 52, "velocity": 104, "channel": 0}, {"type": "note_on", "time": 82, "note": 63, "velocity": 107, "channel": 0}, {"type": "note_off", "time": 89, "note": 63, "velocity": 107, "channel": 0}, {"type": "note_on", "time": 2, "note": 58, "velocity": 102, "channel": 0}, {"type": "note_off", "time": 98, "note": 58, "velocity": 102, "channel": 0}, {"type": "note_on", "time": 6, "note": 56, "velocity": 98, "channel": 0}, {"type": "note_off", "time": 69, "note": 56, "velocity": 98, "channel": 0}, {"type": "note_on", "time": 226, "note": 57, "velocity": 104, "channel": 0}, {"type": "note_off", "time": 91, "note": 57, "velocity": 104, "channel": 0}, {"type": "note_on", "time": 219, "note": 59, "velocity": 110, "channel": 0}, {"type": "note_off", "time": 62, "note": 59, "velocity": 110, "channel": 0}, {"type": "note_on", "time": 0, "note": 54, "velocity": 104, "channel": 0}, {"type": "note_off", "time": 105, "note": 54, "velocity": 104, "channel": 0}, {"type": "note_on", "time": 6, "note": 57, "velocity": 103, "channel": 0}, {"type": "note_off", "time": 76, "note": 57, "velocity": 103, "channel": 0}, {"type": "note_on", "time": 217, "note": 62, "velocity": 106, "channel": 0}, {"type": "note_off", "time": 55, "note": 62, "velocity": 106, "channel": 0}, {"type": "note_on", "time": 6, "note": 61, "velocity": 102, "channel": 0}, {"type": "note_off", "time": 42, "note": 61, "velocity": 102, "channel": 0}, {"type": "note_on", "time": 20, "note": 63, "velocity": 110, "channel": 0}, {"type": "note_on", "time": 73, "note": 59, "velocity": 103, "channel": 0}, {"type": "note_off", "time": 0, "note": 63, "velocity": 110, "channel": 0}, {"type": "note_off", "time": 53, "note": 59, "velocity": 103, "channel": 0}, {"type": "note_on", "time": 17, "note": 57, "velocity": 103, "channel": 0}, {"type": "note_off", "time": 64, "note": 57, "velocity": 103, "channel": 0}, {"type": "note_on", "time": 6, "note": 54, "velocity": 100, "channel": 0}, {"type": "note_off", "time": 80, "note": 54, "velocity": 100, "channel": 0}, {"type": "note_on", "time": 196, "note": 56, "velocity": 104, "channel": 0}, {"type": "note_off", "time": 76, "note": 56, "velocity": 104, "channel": 0}, {"type": "note_on", "time": 217, "note": 58, "velocity": 98, "channel": 0}, {"type": "note_off", "time": 33, "note": 58, "velocity": 98, "channel": 0}, {"type": "note_on", "time": 8, "note": 60, "velocity": 104, "channel": 0}, {"type": "note_off", "time": 64, "note": 60, "velocity": 104, "channel": 0}, {"type": "note_on", "time": 2, "note": 56, "velocity": 92, "channel": 0}, {"type": "note_off", "time": 76, "note": 56, "velocity": 92, "channel": 0}, {"type": "note_on", "time": 163, "note": 61, "velocity": 109, "channel": 0}, {"type": "note_off", "time": 49, "note": 61, "velocity": 109, "channel": 0}, {"type": "note_on", "time": 4, "note": 59, "velocity": 101, "channel": 0}, {"type": "note_off", "time": 38, "note": 59, "velocity": 101, "channel": 0}, {"type": "note_on", "time": 4, "note": 57, "velocity": 99, "channel": 0}, {"type": "note_off", "time": 53, "note": 57, "velocity": 99, "channel": 0}, {"type": "note_on", "time": 8, "note": 56, "velocity": 100, "channel": 0}, {"type": "note_off", "time": 53, "note": 56, "velocity": 100, "channel": 0}, {"type": "note_on", "time": 217, "note": 58, "velocity": 100, "channel": 0}, {"type": "note_off", "time": 49, "note": 58, "velocity": 100, "channel": 0}, {"type": "note_on", "time": 5, "note": 59, "velocity": 102, "channel": 0}, {"type": "note_on", "time": 35, "note": 61, "velocity": 107, "channel": 0}, {"type": "note_off", "time": 0, "note": 59, "velocity": 102, "channel": 0}, {"type": "note_off", "time": 29, "note": 61, "velocity": 107, "channel": 0}, {"type": "note_on", "time": 2, "note": 62, "velocity": 106, "channel": 0}, {"type": "note_off", "time": 59, "note": 62, "velocity": 106, "channel": 0}, {"type": "note_on", "time": 0, "note": 63, "velocity": 94, "channel": 0}, {"type": "note_off", "time": 60, "note": 63, "velocity": 94, "channel": 0}, {"type": "note_on", "time": 245, "note": 58, "velocity": 103, "channel": 0}, {"type": "note_off", "time": 91, "note": 58, "velocity": 103, "channel": 0}, {"type": "note_on", "time": 102, "note": 56, "velocity": 96, "channel": 0}, {"type": "note_off", "time": 38, "note": 56, "velocity": 96, "channel": 0}, {"type": "note_on", "time": 16, "note": 58, "velocity": 99, "channel": 0}, {"type": "note_off", "time": 44, "note": 58, "velocity": 99, "channel": 0}, {"type": "note_on", "time": 10, "note": 59, "velocity": 96, "channel": 0}, {"type": "note_off", "time": 31, "note": 59, "velocity": 96, "channel": 0}, {"type": "note_on", "time": 4, "note": 61, "velocity": 107, "channel": 0}, {"type": "note_off", "time": 40, "note": 61, "velocity": 107, "channel": 0}, {"type": "note_on", "time": 8, "note": 62, "velocity": 102, "channel": 0}, {"type": "note_off", "time": 33, "note": 62, "velocity": 102, "channel": 0}, {"type": "note_on", "time": 17, "note": 65, "velocity": 108, "channel": 0}, {"type": "note_off", "time": 38, "note": 65, "velocity": 108, "channel": 0}, {"type": "note_on", "time": 104, "note": 63, "velocity": 94, "channel": 0}, {"type": "note_off", "time": 20, "note": 63, "velocity": 94, "channel": 0}, {"type": "note_on", "time": 2, "note": 62, "velocity": 103, "channel": 0}, {"type": "note_off", "time": 53, "note": 62, "velocity": 103, "channel": 0}, {"type": "note_on", "time": 13, "note": 61, "velocity": 103, "channel": 0}, {"type": "note_off", "time": 53, "note": 61, "velocity": 103, "channel": 0}, {"type": "note_on", "time": 7, "note": 63, "velocity": 105, "channel": 0}, {"type": "note_off", "time": 50, "note": 63, "velocity": 105, "channel": 0}, {"type": "note_on", "time": 1, "note": 65, "velocity": 109, "channel": 0}, {"type": "note_off", "time": 40, "note": 65, "velocity": 109, "channel": 0}, {"type": "note_on", "time": 4, "note": 66, "velocity": 110, "channel": 0}, {"type": "note_off", "time": 35, "note": 66, "velocity": 110, "channel": 0}, {"type": "note_on", "time": 18, "note": 61, "velocity": 105, "channel": 0}, {"type": "note_off", "time": 60, "note": 61, "velocity": 105, "channel": 0}, {"type": "note_on", "time": 2, "note": 59, "velocity": 101, "channel": 0}, {"type": "note_off", "time": 35, "note": 59, "velocity": 101, "channel": 0}, {"type": "note_on", "time": 4, "note": 54, "velocity": 101, "channel": 0}, {"type": "note_off", "time": 47, "note": 54, "velocity": 101, "channel": 0}, {"type": "note_on", "time": 5, "note": 59, "velocity": 105, "channel": 0}, {"type": "note_off", "time": 36, "note": 59, "velocity": 105, "channel": 0}, {"type": "note_on", "time": 6, "note": 62, "velocity": 103, "channel": 0}, {"type": "note_off", "time": 41, "note": 62, "velocity": 103, "channel": 0}, {"type": "note_on", "time": 5, "note": 66, "velocity": 100, "channel": 0}, {"type": "note_off", "time": 34, "note": 66, "velocity": 100, "channel": 0}, {"type": "note_on", "time": 8, "note": 69, "velocity": 108, "channel": 0}, {"type": "note_off", "time": 46, "note": 69, "velocity": 108, "channel": 0}, {"type": "note_on", "time": 10, "note": 72, "velocity": 87, "channel": 0}, {"type": "note_off", "time": 22, "note": 72, "velocity": 87, "channel": 0}, {"type": "note_on", "time": 0, "note": 73, "velocity": 102, "channel": 0}, {"type": "note_off", "time": 25, "note": 73, "velocity": 102, "channel": 0}, {"type": "note_on", "time": 1, "note": 72, "velocity": 92, "channel": 0}, {"type": "note_off", "time": 47, "note": 72, "velocity": 92, "channel": 0}, {"type": "note_on", "time": 6, "note": 72, "velocity": 102, "channel": 0}, {"type": "note_off", "time": 55, "note": 72, "velocity": 102, "channel": 0}, {"type": "note_on", "time": 322, "note": 72, "velocity": 109, "channel": 0}, {"type": "note_off", "time": 47, "note": 72, "velocity": 109, "channel": 0}, {"type": "note_on", "time": 2, "note": 69, "velocity": 109, "channel": 0}, {"type": "note_off", "time": 26, "note": 69, "velocity": 109, "channel": 0}, {"type": "note_on", "time": 6, "note": 67, "velocity": 111, "channel": 0}, {"type": "note_off", "time": 15, "note": 67, "velocity": 111, "channel": 0}, {"type": "note_on", "time": 20, "note": 63, "velocity": 105, "channel": 0}, {"type": "note_off", "time": 49, "note": 63, "velocity": 105, "channel": 0}, {"type": "note_on", "time": 11, "note": 62, "velocity": 102, "channel": 0}, {"type": "note_off", "time": 53, "note": 62, "velocity": 102, "channel": 0}, {"type": "note_on", "time": 261, "note": 68, "velocity": 115, "channel": 0}, {"type": "note_off", "time": 47, "note": 68, "velocity": 115, "channel": 0}, {"type": "note_on", "time": 20, "note": 66, "velocity": 112, "channel": 0}, {"type": "note_off", "time": 40, "note": 66, "velocity": 112, "channel": 0}, {"type": "note_on", "time": 22, "note": 61, "velocity": 110, "channel": 0}, {"type": "note_off", "time": 58, "note": 61, "velocity": 110, "channel": 0}, {"type": "note_on", "time": 20, "note": 59, "velocity": 101, "channel": 0}, {"type": "note_off", "time": 49, "note": 59, "velocity": 101, "channel": 0}, {"type": "note_on", "time": 6, "note": 60, "velocity": 101, "channel": 0}, {"type": "note_off", "time": 44, "note": 60, "velocity": 101, "channel": 0}, {"type": "note_on", "time": 0, "note": 62, "velocity": 106, "channel": 0}, {"type": "note_off", "time": 40, "note": 62, "velocity": 106, "channel": 0}, {"type": "note_on", "time": 0, "note": 54, "velocity": 92, "channel": 0}, {"type": "note_off", "time": 60, "note": 54, "velocity": 92, "channel": 0}, {"type": "note_on", "time": 17, "note": 57, "velocity": 94, "channel": 0}, {"type": "note_off", "time": 62, "note": 57, "velocity": 94, "channel": 0}, {"type": "note_on", "time": 326, "note": 54, "velocity": 104, "channel": 0}, {"type": "note_off", "time": 42, "note": 54, "velocity": 104, "channel": 0}, {"type": "note_on", "time": 11, "note": 57, "velocity": 94, "channel": 0}, {"type": "note_off", "time": 29, "note": 57, "velocity": 94, "channel": 0}, {"type": "note_on", "time": 13, "note": 63, "velocity": 102, "channel": 0}, {"type": "note_on", "time": 440, "note": 59, "velocity": 95, "channel": 0}, {"type": "note_off", "time": 0, "note": 63, "velocity": 102, "channel": 0}, {"type": "note_off", "time": 42, "note": 59, "velocity": 95, "channel": 0}, {"type": "note_on", "time": 2, "note": 58, "velocity": 103, "channel": 0}, {"type": "note_off", "time": 60, "note": 58, "velocity": 103, "channel": 0}, {"type": "note_on", "time": 0, "note": 62, "velocity": 103, "channel": 0}, {"type": "note_off", "time": 55, "note": 62, "velocity": 103, "channel": 0}, {"type": "note_on", "time": 2, "note": 61, "velocity": 100, "channel": 0}, {"type": "note_on", "time": 58, "note": 60, "velocity": 105, "channel": 0}, {"type": "note_off", "time": 0, "note": 61, "velocity": 100, "channel": 0}, {"type": "note_off", "time": 71, "note": 60, "velocity": 105, "channel": 0}, {"type": "note_on", "time": 4, "note": 63, "velocity": 105, "channel": 0}, {"type": "note_off", "time": 44, "note": 63, "velocity": 105, "channel": 0}, {"type": "note_on", "time": 0, "note": 57, "velocity": 104, "channel": 0}, {"type": "note_off", "time": 62, "note": 57, "velocity": 104, "channel": 0}, {"type": "note_on", "time": 4, "note": 56, "velocity": 100, "channel": 0}, {"type": "note_off", "time": 71, "note": 56, "velocity": 100, "channel": 0}, {"type": "note_on", "time": 44, "note": 61, "velocity": 102, "channel": 0}, {"type": "note_off", "time": 38, "note": 61, "velocity": 102, "channel": 0}, {"type": "note_on", "time": 0, "note": 58, "velocity": 103, "channel": 0}, {"type": "note_off", "time": 42, "note": 58, "velocity": 103, "channel": 0}, {"type": "note_on", "time": 11, "note": 56, "velocity": 100, "channel": 0}, {"type": "note_off", "time": 40, "note": 56, "velocity": 100, "channel": 0}, {"type": "note_on", "time": 8, "note": 57, "velocity": 106, "channel": 0}, {"type": "note_off", "time": 62, "note": 57, "velocity": 106, "channel": 0}, {"type": "note_on", "time": 0, "note": 58, "velocity": 101, "channel": 0}, {"type": "note_off", "time": 42, "note": 58, "velocity": 101, "channel": 0}, {"type": "note_on", "time": 15, "note": 59, "velocity": 96, "channel": 0}, {"type": "note_off", "time": 31, "note": 59, "velocity": 96, "channel": 0}, {"type": "note_on", "time": 6, "note": 62, "velocity": 102, "channel": 0}, {"type": "note_off", "time": 111, "note": 62, "velocity": 102, "channel": 0}, {"type": "note_on", "time": 17, "note": 68, "velocity": 86, "channel": 0}, {"type": "note_off", "time": 29, "note": 68, "velocity": 86, "channel": 0}, {"type": "note_on", "time": 11, "note": 67, "velocity": 98, "channel": 0}, {"type": "note_off", "time": 64, "note": 67, "velocity": 98, "channel": 0}, {"type": "note_on", "time": 149, "note": 62, "velocity": 97, "channel": 0}, {"type": "note_off", "time": 60, "note": 62, "velocity": 97, "channel": 0}, {"type": "note_on", "time": 6, "note": 61, "velocity": 103, "channel": 0}, {"type": "note_off", "time": 60, "note": 61, "velocity": 103, "channel": 0}, {"type": "note_on", "time": 2, "note": 63, "velocity": 110, "channel": 0}, {"type": "note_off", "time": 15, "note": 63, "velocity": 110, "channel": 0}, {"type": "note_on", "time": 8, "note": 66, "velocity": 97, "channel": 0}, {"type": "note_off", "time": 24, "note": 66, "velocity": 97, "channel": 0}, {"type": "note_on", "time": 2, "note": 69, "velocity": 105, "channel": 0}, {"type": "note_off", "time": 38, "note": 69, "velocity": 105, "channel": 0}, {"type": "note_on", "time": 11, "note": 73, "velocity": 88, "channel": 0}, {"type": "note_off", "time": 35, "note": 73, "velocity": 88, "channel": 0}, {"type": "note_on", "time": 8, "note": 76, "velocity": 113, "channel": 0}, {"type": "note_off", "time": 31, "note": 76, "velocity": 113, "channel": 0}, {"type": "note_on", "time": 8, "note": 77, "velocity": 106, "channel": 0}, {"type": "note_off", "time": 38, "note": 77, "velocity": 106, "channel": 0}, {"type": "note_on", "time": 8, "note": 75, "velocity": 109, "channel": 0}, {"type": "note_off", "time": 51, "note": 75, "velocity": 109, "channel": 0}, {"type": "note_on", "time": 324, "note": 72, "velocity": 109, "channel": 0}, {"type": "note_off", "time": 60, "note": 72, "velocity": 109, "channel": 0}, {"type": "note_on", "time": 26, "note": 75, "velocity": 108, "channel": 0}, {"type": "note_off", "time": 85, "note": 75, "velocity": 108, "channel": 0}, {"type": "note_on", "time": 4, "note": 73, "velocity": 115, "channel": 0}, {"type": "note_off", "time": 98, "note": 73, "velocity": 115, "channel": 0}, {"type": "note_on", "time": 15, "note": 69, "velocity": 97, "channel": 0}, {"type": "note_off", "time": 55, "note": 69, "velocity": 97, "channel": 0}, {"type": "note_on", "time": 29, "note": 66, "velocity": 108, "channel": 0}, {"type": "note_off", "time": 67, "note": 66, "velocity": 108, "channel": 0}, {"type": "note_on", "time": 24, "note": 73, "velocity": 112, "channel": 0}, {"type": "note_off", "time": 87, "note": 73, "velocity": 112, "channel": 0}, {"type": "note_on", "time": 0, "note": 71, "velocity": 106, "channel": 0}, {"type": "note_off", "time": 98, "note": 71, "velocity": 106, "channel": 0}, {"type": "note_on", "time": 13, "note": 66, "velocity": 95, "channel": 0}, {"type": "note_off", "time": 62, "note": 66, "velocity": 95, "channel": 0}, {"type": "note_on", "time": 26, "note": 69, "velocity": 109, "channel": 0}, {"type": "note_off", "time": 91, "note": 69, "velocity": 109, "channel": 0}, {"type": "note_on", "time": 0, "note": 66, "velocity": 96, "channel": 0}, {"type": "note_off", "time": 85, "note": 66, "velocity": 96, "channel": 0}, {"type": "note_on", "time": 17, "note": 67, "velocity": 106, "channel": 0}, {"type": "note_off", "time": 87, "note": 67, "velocity": 106, "channel": 0}, {"type": "note_on", "time": 24, "note": 67, "velocity": 88, "channel": 0}, {"type": "note_off", "time": 51, "note": 67, "velocity": 88, "channel": 0}, {"type": "note_on", "time": 393, "note": 72, "velocity": 111, "channel": 0}, {"type": "note_off", "time": 87, "note": 72, "velocity": 111, "channel": 0}, {"type": "note_on", "time": 17, "note": 75, "velocity": 112, "channel": 0}, {"type": "note_off", "time": 76, "note": 75, "velocity": 112, "channel": 0}, {"type": "note_on", "time": 0, "note": 73, "velocity": 112, "channel": 0}, {"type": "note_off", "time": 127, "note": 73, "velocity": 112, "channel": 0}, {"type": "note_on", "time": 47, "note": 67, "velocity": 87, "channel": 0}, {"type": "note_off", "time": 26, "note": 67, "velocity": 87, "channel": 0}, {"type": "note_on", "time": 20, "note": 70, "velocity": 112, "channel": 0}, {"type": "note_off", "time": 62, "note": 70, "velocity": 112, "channel": 0}, {"type": "note_on", "time": 38, "note": 73, "velocity": 115, "channel": 0}, {"type": "note_off", "time": 80, "note": 73, "velocity": 115, "channel": 0}, {"type": "note_on", "time": 13, "note": 72, "velocity": 111, "channel": 0}, {"type": "note_off", "time": 82, "note": 72, "velocity": 111, "channel": 0}, {"type": "note_on", "time": 15, "note": 71, "velocity": 106, "channel": 0}, {"type": "note_off", "time": 73, "note": 71, "velocity": 106, "channel": 0}, {"type": "note_on", "time": 18, "note": 70, "velocity": 108, "channel": 0}, {"type": "note_off", "time": 76, "note": 70, "velocity": 108, "channel": 0}, {"type": "note_on", "time": 12, "note": 69, "velocity": 111, "channel": 0}, {"type": "note_off", "time": 82, "note": 69, "velocity": 111, "channel": 0}, {"type": "note_on", "time": 20, "note": 68, "velocity": 114, "channel": 0}, {"type": "note_off", "time": 78, "note": 68, "velocity": 114, "channel": 0}, {"type": "note_on", "time": 11, "note": 66, "velocity": 110, "channel": 0}, {"type": "note_off", "time": 82, "note": 66, "velocity": 110, "channel": 0}, {"type": "note_on", "time": 6, "note": 65, "velocity": 108, "channel": 0}, {"type": "note_off", "time": 71, "note": 65, "velocity": 108, "channel": 0}, {"type": "note_on", "time": 15, "note": 64, "velocity": 108, "channel": 0}, {"type": "note_off", "time": 89, "note": 64, "velocity": 108, "channel": 0}, {"type": "note_on", "time": 24, "note": 63, "velocity": 100, "channel": 0}, {"type": "note_off", "time": 67, "note": 63, "velocity": 100, "channel": 0}, {"type": "note_on", "time": 24, "note": 62, "velocity": 95, "channel": 0}, {"type": "note_off", "time": 53, "note": 62, "velocity": 95, "channel": 0}, {"type": "note_on", "time": 13, "note": 66, "velocity": 106, "channel": 0}, {"type": "note_off", "time": 109, "note": 66, "velocity": 106, "channel": 0}, {"type": "note_on", "time": 17, "note": 70, "velocity": 93, "channel": 0}, {"type": "note_off", "time": 26, "note": 70, "velocity": 93, "channel": 0}, {"type": "note_on", "time": 26, "note": 74, "velocity": 113, "channel": 0}, {"type": "note_off", "time": 100, "note": 74, "velocity": 113, "channel": 0}, {"type": "note_on", "time": 2, "note": 77, "velocity": 97, "channel": 0}, {"type": "note_off", "time": 24, "note": 77, "velocity": 97, "channel": 0}, {"type": "note_on", "time": 4, "note": 78, "velocity": 94, "channel": 0}, {"type": "note_off", "time": 678, "note": 78, "velocity": 94, "channel": 0}, {"type": "note_on", "time": 55, "note": 74, "velocity": 112, "channel": 0}, {"type": "note_off", "time": 69, "note": 74, "velocity": 112, "channel": 0}, {"type": "note_on", "time": 20, "note": 70, "velocity": 108, "channel": 0}, {"type": "note_off", "time": 91, "note": 70, "velocity": 108, "channel": 0}, {"type": "note_on", "time": 13, "note": 66, "velocity": 110, "channel": 0}, {"type": "note_off", "time": 89, "note": 66, "velocity": 110, "channel": 0}, {"type": "note_on", "time": 26, "note": 62, "velocity": 103, "channel": 0}, {"type": "note_off", "time": 60, "note": 62, "velocity": 103, "channel": 0}, {"type": "note_on", "time": 29, "note": 58, "velocity": 94, "channel": 0}, {"type": "note_off", "time": 60, "note": 58, "velocity": 94, "channel": 0}, {"type": "note_on", "time": 15, "note": 63, "velocity": 96, "channel": 0}, {"type": "note_off", "time": 223, "note": 63, "velocity": 96, "channel": 0}, {"type": "note_on", "time": 587, "note": 58, "velocity": 100, "channel": 0}, {"type": "note_off", "time": 82, "note": 58, "velocity": 100, "channel": 0}, {"type": "note_on", "time": 8, "note": 62, "velocity": 99, "channel": 0}, {"type": "note_off", "time": 55, "note": 62, "velocity": 99, "channel": 0}, {"type": "note_on", "time": 15, "note": 63, "velocity": 106, "channel": 0}, {"type": "note_off", "time": 82, "note": 63, "velocity": 106, "channel": 0}, {"type": "note_on", "time": 15, "note": 64, "velocity": 112, "channel": 0}, {"type": "note_off", "time": 64, "note": 64, "velocity": 112, "channel": 0}, {"type": "note_on", "time": 6, "note": 65, "velocity": 114, "channel": 0}, {"type": "note_off", "time": 67, "note": 65, "velocity": 114, "channel": 0}, {"type": "note_on", "time": 24, "note": 66, "velocity": 110, "channel": 0}, {"type": "note_off", "time": 69, "note": 66, "velocity": 110, "channel": 0}, {"type": "note_on", "time": 55, "note": 71, "velocity": 112, "channel": 0}, {"type": "note_off", "time": 64, "note": 71, "velocity": 112, "channel": 0}, {"type": "note_on", "time": 4, "note": 74, "velocity": 117, "channel": 0}, {"type": "note_off", "time": 62, "note": 74, "velocity": 117, "channel": 0}, {"type": "note_on", "time": 17, "note": 75, "velocity": 115, "channel": 0}, {"type": "note_off", "time": 85, "note": 75, "velocity": 115, "channel": 0}, {"type": "note_on", "time": 24, "note": 76, "velocity": 117, "channel": 0}, {"type": "note_off", "time": 85, "note": 76, "velocity": 117, "channel": 0}, {"type": "note_on", "time": 17, "note": 77, "velocity": 118, "channel": 0}, {"type": "note_off", "time": 91, "note": 77, "velocity": 118, "channel": 0}, {"type": "note_on", "time": 6, "note": 76, "velocity": 115, "channel": 0}, {"type": "note_off", "time": 85, "note": 76, "velocity": 115, "channel": 0}, {"type": "note_on", "time": 8, "note": 72, "velocity": 115, "channel": 0}, {"type": "note_off", "time": 96, "note": 72, "velocity": 115, "channel": 0}, {"type": "note_on", "time": 0, "note": 75, "velocity": 110, "channel": 0}, {"type": "note_off", "time": 80, "note": 75, "velocity": 110, "channel": 0}, {"type": "note_on", "time": 0, "note": 73, "velocity": 115, "channel": 0}, {"type": "note_off", "time": 118, "note": 73, "velocity": 115, "channel": 0}, {"type": "note_on", "time": 13, "note": 68, "velocity": 95, "channel": 0}, {"type": "note_off", "time": 55, "note": 68, "velocity": 95, "channel": 0}, {"type": "note_on", "time": 15, "note": 70, "velocity": 112, "channel": 0}, {"type": "note_off", "time": 80, "note": 70, "velocity": 112, "channel": 0}, {"type": "note_on", "time": 26, "note": 73, "velocity": 117, "channel": 0}, {"type": "note_off", "time": 71, "note": 73, "velocity": 117, "channel": 0}, {"type": "note_on", "time": 13, "note": 73, "velocity": 110, "channel": 0}, {"type": "note_off", "time": 76, "note": 73, "velocity": 110, "channel": 0}, {"type": "note_on", "time": 33, "note": 73, "velocity": 116, "channel": 0}, {"type": "note_off", "time": 71, "note": 73, "velocity": 116, "channel": 0}, {"type": "note_on", "time": 11, "note": 72, "velocity": 111, "channel": 0}, {"type": "note_off", "time": 64, "note": 72, "velocity": 111, "channel": 0}, {"type": "note_on", "time": 29, "note": 75, "velocity": 119, "channel": 0}, {"type": "note_off", "time": 80, "note": 75, "velocity": 119, "channel": 0}, {"type": "note_on", "time": 29, "note": 73, "velocity": 114, "channel": 0}, {"type": "note_off", "time": 96, "note": 73, "velocity": 114, "channel": 0}, {"type": "note_on", "time": 6, "note": 66, "velocity": 94, "channel": 0}, {"type": "note_off", "time": 73, "note": 66, "velocity": 94, "channel": 0}, {"type": "note_on", "time": 15, "note": 70, "velocity": 111, "channel": 0}, {"type": "note_off", "time": 71, "note": 70, "velocity": 111, "channel": 0}, {"type": "note_on", "time": 8, "note": 72, "velocity": 112, "channel": 0}, {"type": "note_off", "time": 69, "note": 72, "velocity": 112, "channel": 0}, {"type": "note_on", "time": 8, "note": 71, "velocity": 108, "channel": 0}, {"type": "note_off", "time": 100, "note": 71, "velocity": 108, "channel": 0}, {"type": "note_on", "time": 17, "note": 69, "velocity": 114, "channel": 0}, {"type": "note_off", "time": 62, "note": 69, "velocity": 114, "channel": 0}, {"type": "note_on", "time": 4, "note": 70, "velocity": 108, "channel": 0}, {"type": "note_off", "time": 105, "note": 70, "velocity": 108, "channel": 0}, {"type": "note_on", "time": 17, "note": 68, "velocity": 111, "channel": 0}, {"type": "note_off", "time": 107, "note": 68, "velocity": 111, "channel": 0}, {"type": "note_on", "time": 22, "note": 70, "velocity": 112, "channel": 0}, {"type": "note_off", "time": 125, "note": 70, "velocity": 112, "channel": 0}, {"type": "note_on", "time": 425, "note": 67, "velocity": 114, "channel": 0}, {"type": "note_off", "time": 91, "note": 67, "velocity": 114, "channel": 0}, {"type": "note_on", "time": 2, "note": 68, "velocity": 114, "channel": 0}, {"type": "note_off", "time": 94, "note": 68, "velocity": 114, "channel": 0}, {"type": "note_on", "time": 8, "note": 67, "velocity": 113, "channel": 0}, {"type": "note_off", "time": 89, "note": 67, "velocity": 113, "channel": 0}, {"type": "note_on", "time": 20, "note": 64, "velocity": 109, "channel": 0}, {"type": "note_off", "time": 71, "note": 64, "velocity": 109, "channel": 0}, {"type": "note_on", "time": 40, "note": 70, "velocity": 111, "channel": 0}, {"type": "note_off", "time": 69, "note": 70, "velocity": 111, "channel": 0}, {"type": "note_on", "time": 35, "note": 70, "velocity": 123, "channel": 0}, {"type": "note_off", "time": 71, "note": 70, "velocity": 123, "channel": 0}, {"type": "note_on", "time": 87, "note": 67, "velocity": 110, "channel": 0}, {"type": "note_off", "time": 67, "note": 67, "velocity": 110, "channel": 0}, {"type": "note_on", "time": 22, "note": 66, "velocity": 111, "channel": 0}, {"type": "note_off", "time": 136, "note": 66, "velocity": 111, "channel": 0}, {"type": "note_on", "time": 163, "note": 66, "velocity": 108, "channel": 0}, {"type": "note_off", "time": 71, "note": 66, "velocity": 108, "channel": 0}, {"type": "note_on", "time": 6, "note": 64, "velocity": 113, "channel": 0}, {"type": "note_off", "time": 123, "note": 64, "velocity": 113, "channel": 0}, {"type": "note_on", "time": 0, "note": 66, "velocity": 108, "channel": 0}, {"type": "note_off", "time": 73, "note": 66, "velocity": 108, "channel": 0}, {"type": "note_on", "time": 0, "note": 69, "velocity": 115, "channel": 0}, {"type": "note_off", "time": 80, "note": 69, "velocity": 115, "channel": 0}, {"type": "note_on", "time": 6, "note": 70, "velocity": 101, "channel": 0}, {"type": "note_off", "time": 119, "note": 70, "velocity": 101, "channel": 0}, {"type": "note_on", "time": 10, "note": 66, "velocity": 99, "channel": 0}, {"type": "note_off", "time": 58, "note": 66, "velocity": 99, "channel": 0}, {"type": "note_on", "time": 22, "note": 64, "velocity": 110, "channel": 0}, {"type": "note_off", "time": 129, "note": 64, "velocity": 110, "channel": 0}, {"type": "note_on", "time": 161, "note": 66, "velocity": 111, "channel": 0}, {"type": "note_off", "time": 102, "note": 66, "velocity": 111, "channel": 0}, {"type": "note_on", "time": 60, "note": 64, "velocity": 109, "channel": 0}, {"type": "note_off", "time": 118, "note": 64, "velocity": 109, "channel": 0}, {"type": "note_on", "time": 11, "note": 67, "velocity": 108, "channel": 0}, {"type": "note_off", "time": 73, "note": 67, "velocity": 108, "channel": 0}, {"type": "note_on", "time": 24, "note": 66, "velocity": 109, "channel": 0}, {"type": "note_off", "time": 76, "note": 66, "velocity": 109, "channel": 0}, {"type": "note_on", "time": 8, "note": 65, "velocity": 113, "channel": 0}, {"type": "note_off", "time": 31, "note": 65, "velocity": 113, "channel": 0}, {"type": "note_on", "time": 13, "note": 64, "velocity": 114, "channel": 0}, {"type": "note_off", "time": 42, "note": 64, "velocity": 114, "channel": 0}, {"type": "note_on", "time": 17, "note": 62, "velocity": 112, "channel": 0}, {"type": "note_off", "time": 147, "note": 62, "velocity": 112, "channel": 0}, {"type": "note_on", "time": 22, "note": 61, "velocity": 118, "channel": 0}, {"type": "note_off", "time": 183, "note": 61, "velocity": 118, "channel": 0}, {"type": "note_on", "time": 22, "note": 70, "velocity": 111, "channel": 0}, {"type": "note_off", "time": 80, "note": 70, "velocity": 111, "channel": 0}, {"type": "note_on", "time": 47, "note": 64, "velocity": 96, "channel": 0}, {"type": "note_off", "time": 44, "note": 64, "velocity": 96, "channel": 0}, {"type": "note_on", "time": 44, "note": 69, "velocity": 112, "channel": 0}, {"type": "note_off", "time": 82, "note": 69, "velocity": 112, "channel": 0}, {"type": "note_on", "time": 24, "note": 75, "velocity": 115, "channel": 0}, {"type": "note_off", "time": 82, "note": 75, "velocity": 115, "channel": 0}, {"type": "note_on", "time": 6, "note": 69, "velocity": 108, "channel": 0}, {"type": "note_off", "time": 64, "note": 69, "velocity": 108, "channel": 0}, {"type": "note_on", "time": 27, "note": 65, "velocity": 110, "channel": 0}, {"type": "note_off", "time": 51, "note": 65, "velocity": 110, "channel": 0}, {"type": "note_on", "time": 3, "note": 63, "velocity": 110, "channel": 0}, {"type": "note_off", "time": 118, "note": 63, "velocity": 110, "channel": 0}, {"type": "note_on", "time": 98, "note": 68, "velocity": 127, "channel": 0}, {"type": "note_off", "time": 125, "note": 68, "velocity": 127, "channel": 0}, {"type": "note_on", "time": 8, "note": 66, "velocity": 104, "channel": 0}, {"type": "note_off", "time": 87, "note": 66, "velocity": 104, "channel": 0}, {"type": "note_on", "time": 658, "note": 72, "velocity": 111, "channel": 0}, {"type": "note_off", "time": 67, "note": 72, "velocity": 111, "channel": 0}, {"type": "note_on", "time": 2, "note": 71, "velocity": 114, "channel": 0}, {"type": "note_off", "time": 82, "note": 71, "velocity": 114, "channel": 0}, {"type": "note_on", "time": 22, "note": 66, "velocity": 101, "channel": 0}, {"type": "note_off", "time": 67, "note": 66, "velocity": 101, "channel": 0}, {"type": "note_on", "time": 11, "note": 69, "velocity": 118, "channel": 0}, {"type": "note_off", "time": 78, "note": 69, "velocity": 118, "channel": 0}, {"type": "note_on", "time": 15, "note": 70, "velocity": 109, "channel": 0}, {"type": "note_off", "time": 69, "note": 70, "velocity": 109, "channel": 0}, {"type": "note_on", "time": 17, "note": 71, "velocity": 113, "channel": 0}, {"type": "note_off", "time": 98, "note": 71, "velocity": 113, "channel": 0}, {"type": "note_on", "time": 6, "note": 73, "velocity": 119, "channel": 0}, {"type": "note_off", "time": 91, "note": 73, "velocity": 119, "channel": 0}, {"type": "note_on", "time": 6, "note": 70, "velocity": 114, "channel": 0}, {"type": "note_off", "time": 87, "note": 70, "velocity": 114, "channel": 0}, {"type": "note_on", "time": 11, "note": 69, "velocity": 117, "channel": 0}, {"type": "note_off", "time": 67, "note": 69, "velocity": 117, "channel": 0}, {"type": "note_on", "time": 18, "note": 68, "velocity": 112, "channel": 0}, {"type": "note_off", "time": 91, "note": 68, "velocity": 112, "channel": 0}, {"type": "note_on", "time": 7, "note": 69, "velocity": 105, "channel": 0}, {"type": "note_off", "time": 77, "note": 69, "velocity": 105, "channel": 0}, {"type": "note_on", "time": 7, "note": 71, "velocity": 103, "channel": 0}, {"type": "note_off", "time": 80, "note": 71, "velocity": 103, "channel": 0}, {"type": "note_on", "time": 15, "note": 67, "velocity": 104, "channel": 0}, {"type": "note_off", "time": 42, "note": 67, "velocity": 104, "channel": 0}, {"type": "note_on", "time": 4, "note": 66, "velocity": 104, "channel": 0}, {"type": "note_off", "time": 31, "note": 66, "velocity": 104, "channel": 0}, {"type": "note_on", "time": 17, "note": 64, "velocity": 112, "channel": 0}, {"type": "note_off", "time": 174, "note": 64, "velocity": 112, "channel": 0}, {"type": "note_on", "time": 31, "note": 64, "velocity": 116, "channel": 0}, {"type": "note_off", "time": 73, "note": 64, "velocity": 116, "channel": 0}, {"type": "note_on", "time": 17, "note": 64, "velocity": 116, "channel": 0}, {"type": "note_off", "time": 107, "note": 64, "velocity": 116, "channel": 0}, {"type": "note_on", "time": 78, "note": 64, "velocity": 114, "channel": 0}, {"type": "note_off", "time": 94, "note": 64, "velocity": 114, "channel": 0}, {"type": "note_on", "time": 0, "note": 67, "velocity": 115, "channel": 0}, {"type": "note_off", "time": 100, "note": 67, "velocity": 115, "channel": 0}, {"type": "note_on", "time": 0, "note": 66, "velocity": 111, "channel": 0}, {"type": "note_off", "time": 73, "note": 66, "velocity": 111, "channel": 0}, {"type": "note_on", "time": 24, "note": 63, "velocity": 108, "channel": 0}, {"type": "note_off", "time": 98, "note": 63, "velocity": 108, "channel": 0}, {"type": "note_on", "time": 0, "note": 62, "velocity": 101, "channel": 0}, {"type": "note_off", "time": 67, "note": 62, "velocity": 101, "channel": 0}, {"type": "note_on", "time": 26, "note": 66, "velocity": 112, "channel": 0}, {"type": "note_off", "time": 78, "note": 66, "velocity": 112, "channel": 0}, {"type": "note_on", "time": 7, "note": 69, "velocity": 114, "channel": 0}, {"type": "note_off", "time": 77, "note": 69, "velocity": 114, "channel": 0}, {"type": "note_on", "time": 11, "note": 67, "velocity": 110, "channel": 0}, {"type": "note_off", "time": 76, "note": 67, "velocity": 110, "channel": 0}, {"type": "note_on", "time": 17, "note": 62, "velocity": 109, "channel": 0}, {"type": "note_off", "time": 98, "note": 62, "velocity": 109, "channel": 0}, {"type": "note_on", "time": 6, "note": 61, "velocity": 107, "channel": 0}, {"type": "note_off", "time": 80, "note": 61, "velocity": 107, "channel": 0}, {"type": "note_on", "time": 0, "note": 64, "velocity": 102, "channel": 0}, {"type": "note_off", "time": 87, "note": 64, "velocity": 102, "channel": 0}, {"type": "note_on", "time": 0, "note": 67, "velocity": 113, "channel": 0}, {"type": "note_off", "time": 78, "note": 67, "velocity": 113, "channel": 0}, {"type": "note_on", "time": 20, "note": 67, "velocity": 105, "channel": 0}, {"type": "note_off", "time": 94, "note": 67, "velocity": 105, "channel": 0}, {"type": "note_on", "time": 11, "note": 64, "velocity": 108, "channel": 0}, {"type": "note_off", "time": 167, "note": 64, "velocity": 108, "channel": 0}, {"type": "note_on", "time": 29, "note": 69, "velocity": 110, "channel": 0}, {"type": "note_off", "time": 181, "note": 69, "velocity": 110, "channel": 0}, {"type": "note_on", "time": 44, "note": 66, "velocity": 95, "channel": 0}, {"type": "note_off", "time": 43, "note": 66, "velocity": 95, "channel": 0}, {"type": "note_on", "time": 7, "note": 67, "velocity": 109, "channel": 0}, {"type": "note_off", "time": 107, "note": 67, "velocity": 109, "channel": 0}, {"type": "note_on", "time": 82, "note": 65, "velocity": 112, "channel": 0}, {"type": "note_off", "time": 80, "note": 65, "velocity": 112, "channel": 0}, {"type": "note_on", "time": 4, "note": 66, "velocity": 109, "channel": 0}, {"type": "note_off", "time": 98, "note": 66, "velocity": 109, "channel": 0}, {"type": "note_on", "time": 13, "note": 70, "velocity": 106, "channel": 0}, {"type": "note_off", "time": 64, "note": 70, "velocity": 106, "channel": 0}, {"type": "note_on", "time": 13, "note": 71, "velocity": 109, "channel": 0}, {"type": "note_off", "time": 111, "note": 71, "velocity": 109, "channel": 0}, {"type": "note_on", "time": 0, "note": 74, "velocity": 117, "channel": 0}, {"type": "note_off", "time": 69, "note": 74, "velocity": 117, "channel": 0}, {"type": "note_on", "time": 22, "note": 75, "velocity": 113, "channel": 0}, {"type": "note_off", "time": 91, "note": 75, "velocity": 113, "channel": 0}, {"type": "note_on", "time": 17, "note": 76, "velocity": 114, "channel": 0}, {"type": "note_off", "time": 82, "note": 76, "velocity": 114, "channel": 0}, {"type": "note_on", "time": 2, "note": 71, "velocity": 107, "channel": 0}, {"type": "note_off", "time": 82, "note": 71, "velocity": 107, "channel": 0}, {"type": "note_on", "time": 24, "note": 69, "velocity": 114, "channel": 0}, {"type": "note_off", "time": 89, "note": 69, "velocity": 114, "channel": 0}, {"type": "note_on", "time": 89, "note": 75, "velocity": 112, "channel": 0}, {"type": "note_off", "time": 94, "note": 75, "velocity": 112, "channel": 0}, {"type": "note_on", "time": 6, "note": 73, "velocity": 118, "channel": 0}, {"type": "note_off", "time": 71, "note": 73, "velocity": 118, "channel": 0}, {"type": "note_on", "time": 72, "note": 68, "velocity": 96, "channel": 0}, {"type": "note_off", "time": 25, "note": 68, "velocity": 96, "channel": 0}, {"type": "note_on", "time": 8, "note": 70, "velocity": 113, "channel": 0}, {"type": "note_off", "time": 89, "note": 70, "velocity": 113, "channel": 0}, {"type": "note_on", "time": 17, "note": 73, "velocity": 117, "channel": 0}, {"type": "note_off", "time": 82, "note": 73, "velocity": 117, "channel": 0}, {"type": "note_on", "time": 8, "note": 72, "velocity": 112, "channel": 0}, {"type": "note_off", "time": 85, "note": 72, "velocity": 112, "channel": 0}, {"type": "note_on", "time": 308, "note": 64, "velocity": 112, "channel": 0}, {"type": "note_off", "time": 82, "note": 64, "velocity": 112, "channel": 0}, {"type": "note_on", "time": 29, "note": 60, "velocity": 94, "channel": 0}, {"type": "note_off", "time": 85, "note": 60, "velocity": 94, "channel": 0}, {"type": "note_on", "time": 8, "note": 61, "velocity": 108, "channel": 0}, {"type": "note_off", "time": 64, "note": 61, "velocity": 108, "channel": 0}, {"type": "note_on", "time": 24, "note": 68, "velocity": 118, "channel": 0}, {"type": "note_off", "time": 69, "note": 68, "velocity": 118, "channel": 0}, {"type": "note_on", "time": 0, "note": 64, "velocity": 111, "channel": 0}, {"type": "note_off", "time": 102, "note": 64, "velocity": 111, "channel": 0}, {"type": "note_on", "time": 2, "note": 62, "velocity": 107, "channel": 0}, {"type": "note_off", "time": 94, "note": 62, "velocity": 107, "channel": 0}, {"type": "note_on", "time": 105, "note": 62, "velocity": 108, "channel": 0}, {"type": "note_off", "time": 80, "note": 62, "velocity": 108, "channel": 0}, {"type": "note_on", "time": 4, "note": 61, "velocity": 108, "channel": 0}, {"type": "note_off", "time": 98, "note": 61, "velocity": 108, "channel": 0}, {"type": "note_on", "time": 6, "note": 64, "velocity": 113, "channel": 0}, {"type": "note_off", "time": 73, "note": 64, "velocity": 113, "channel": 0}, {"type": "note_on", "time": 0, "note": 69, "velocity": 117, "channel": 0}, {"type": "note_off", "time": 87, "note": 69, "velocity": 117, "channel": 0}, {"type": "note_on", "time": 6, "note": 68, "velocity": 109, "channel": 0}, {"type": "note_off", "time": 109, "note": 68, "velocity": 109, "channel": 0}, {"type": "note_on", "time": 1, "note": 61, "velocity": 106, "channel": 0}, {"type": "note_off", "time": 80, "note": 61, "velocity": 106, "channel": 0}, {"type": "note_on", "time": 195, "note": 62, "velocity": 112, "channel": 0}, {"type": "note_off", "time": 67, "note": 62, "velocity": 112, "channel": 0}, {"type": "note_on", "time": 26, "note": 62, "velocity": 99, "channel": 0}, {"type": "note_off", "time": 80, "note": 62, "velocity": 99, "channel": 0}, {"type": "note_on", "time": 29, "note": 62, "velocity": 108, "channel": 0}, {"type": "note_off", "time": 73, "note": 62, "velocity": 108, "channel": 0}, {"type": "note_on", "time": 33, "note": 61, "velocity": 106, "channel": 0}, {"type": "note_off", "time": 69, "note": 61, "velocity": 106, "channel": 0}, {"type": "note_on", "time": 8, "note": 63, "velocity": 109, "channel": 0}, {"type": "note_off", "time": 91, "note": 63, "velocity": 109, "channel": 0}, {"type": "note_on", "time": 6, "note": 58, "velocity": 103, "channel": 0}, {"type": "note_off", "time": 107, "note": 58, "velocity": 103, "channel": 0}, {"type": "note_on", "time": 174, "note": 57, "velocity": 91, "channel": 0}, {"type": "note_off", "time": 98, "note": 57, "velocity": 91, "channel": 0}, {"type": "note_on", "time": 4, "note": 53, "velocity": 105, "channel": 0}, {"type": "note_off", "time": 96, "note": 53, "velocity": 105, "channel": 0}, {"type": "note_on", "time": 4, "note": 56, "velocity": 105, "channel": 0}, {"type": "note_off", "time": 78, "note": 56, "velocity": 105, "channel": 0}, {"type": "note_on", "time": 15, "note": 55, "velocity": 96, "channel": 0}, {"type": "note_off", "time": 107, "note": 55, "velocity": 96, "channel": 0}, {"type": "note_on", "time": 8, "note": 58, "velocity": 104, "channel": 0}, {"type": "note_off", "time": 82, "note": 58, "velocity": 104, "channel": 0}, {"type": "note_on", "time": 78, "note": 65, "velocity": 112, "channel": 0}, {"type": "note_off", "time": 73, "note": 65, "velocity": 112, "channel": 0}, {"type": "note_on", "time": 4, "note": 61, "velocity": 101, "channel": 0}, {"type": "note_off", "time": 98, "note": 61, "velocity": 101, "channel": 0}, {"type": "note_on", "time": 20, "note": 63, "velocity": 104, "channel": 0}, {"type": "note_off", "time": 64, "note": 63, "velocity": 104, "channel": 0}, {"type": "note_on", "time": 15, "note": 65, "velocity": 109, "channel": 0}, {"type": "note_off", "time": 91, "note": 65, "velocity": 109, "channel": 0}, {"type": "note_on", "time": 304, "note": 73, "velocity": 118, "channel": 0}, {"type": "note_off", "time": 127, "note": 73, "velocity": 118, "channel": 0}, {"type": "note_on", "time": 53, "note": 65, "velocity": 108, "channel": 0}, {"type": "note_off", "time": 94, "note": 65, "velocity": 108, "channel": 0}, {"type": "note_on", "time": 17, "note": 70, "velocity": 114, "channel": 0}, {"type": "note_off", "time": 82, "note": 70, "velocity": 114, "channel": 0}, {"type": "note_on", "time": 13, "note": 63, "velocity": 109, "channel": 0}, {"type": "note_off", "time": 96, "note": 63, "velocity": 109, "channel": 0}, {"type": "note_on", "time": 22, "note": 63, "velocity": 118, "channel": 0}, {"type": "note_off", "time": 91, "note": 63, "velocity": 118, "channel": 0}, {"type": "note_on", "time": 64, "note": 63, "velocity": 111, "channel": 0}, {"type": "note_off", "time": 60, "note": 63, "velocity": 111, "channel": 0}, {"type": "note_on", "time": 33, "note": 65, "velocity": 114, "channel": 0}, {"type": "note_off", "time": 100, "note": 65, "velocity": 114, "channel": 0}, {"type": "note_on", "time": 17, "note": 63, "velocity": 112, "channel": 0}, {"type": "note_off", "time": 78, "note": 63, "velocity": 112, "channel": 0}, {"type": "note_on", "time": 15, "note": 64, "velocity": 107, "channel": 0}, {"type": "note_off", "time": 503, "note": 64, "velocity": 107, "channel": 0}, {"type": "note_on", "time": 13, "note": 66, "velocity": 110, "channel": 0}, {"type": "note_off", "time": 82, "note": 66, "velocity": 110, "channel": 0}, {"type": "note_on", "time": 29, "note": 69, "velocity": 114, "channel": 0}, {"type": "note_off", "time": 73, "note": 69, "velocity": 114, "channel": 0}, {"type": "note_on", "time": 675, "note": 67, "velocity": 115, "channel": 0}, {"type": "note_off", "time": 123, "note": 67, "velocity": 115, "channel": 0}, {"type": "note_on", "time": 6, "note": 64, "velocity": 90, "channel": 0}, {"type": "note_off", "time": 42, "note": 64, "velocity": 90, "channel": 0}, {"type": "note_on", "time": 11, "note": 65, "velocity": 114, "channel": 0}, {"type": "note_off", "time": 78, "note": 65, "velocity": 114, "channel": 0}, {"type": "note_on", "time": 17, "note": 64, "velocity": 114, "channel": 0}, {"type": "note_off", "time": 69, "note": 64, "velocity": 114, "channel": 0}, {"type": "note_on", "time": 6, "note": 65, "velocity": 115, "channel": 0}, {"type": "note_off", "time": 82, "note": 65, "velocity": 115, "channel": 0}, {"type": "note_on", "time": 2, "note": 66, "velocity": 115, "channel": 0}, {"type": "note_off", "time": 82, "note": 66, "velocity": 115, "channel": 0}, {"type": "note_on", "time": 20, "note": 66, "velocity": 113, "channel": 0}, {"type": "note_off", "time": 105, "note": 66, "velocity": 113, "channel": 0}, {"type": "note_on", "time": 11, "note": 64, "velocity": 102, "channel": 0}, {"type": "note_off", "time": 76, "note": 64, "velocity": 102, "channel": 0}, {"type": "note_on", "time": 0, "note": 67, "velocity": 113, "channel": 0}, {"type": "note_off", "time": 91, "note": 67, "velocity": 113, "channel": 0}, {"type": "note_on", "time": 15, "note": 66, "velocity": 113, "channel": 0}, {"type": "note_off", "time": 82, "note": 66, "velocity": 113, "channel": 0}, {"type": "note_on", "time": 15, "note": 63, "velocity": 111, "channel": 0}, {"type": "note_off", "time": 76, "note": 63, "velocity": 111, "channel": 0}, {"type": "note_on", "time": 5, "note": 62, "velocity": 107, "channel": 0}, {"type": "note_off", "time": 82, "note": 62, "velocity": 107, "channel": 0}, {"type": "note_on", "time": 0, "note": 65, "velocity": 115, "channel": 0}, {"type": "note_off", "time": 71, "note": 65, "velocity": 115, "channel": 0}, {"type": "note_on", "time": 0, "note": 69, "velocity": 112, "channel": 0}, {"type": "note_off", "time": 85, "note": 69, "velocity": 112, "channel": 0}, {"type": "note_on", "time": 4, "note": 65, "velocity": 111, "channel": 0}, {"type": "note_off", "time": 91, "note": 65, "velocity": 111, "channel": 0}, {"type": "note_on", "time": 11, "note": 66, "velocity": 108, "channel": 0}, {"type": "note_off", "time": 91, "note": 66, "velocity": 108, "channel": 0}, {"type": "note_on", "time": 2, "note": 61, "velocity": 105, "channel": 0}, {"type": "note_off", "time": 33, "note": 61, "velocity": 105, "channel": 0}, {"type": "note_on", "time": 6, "note": 62, "velocity": 113, "channel": 0}, {"type": "note_off", "time": 47, "note": 62, "velocity": 113, "channel": 0}, {"type": "note_on", "time": 6, "note": 61, "velocity": 106, "channel": 0}, {"type": "note_off", "time": 51, "note": 61, "velocity": 106, "channel": 0}, {"type": "note_on", "time": 20, "note": 64, "velocity": 114, "channel": 0}, {"type": "note_off", "time": 87, "note": 64, "velocity": 114, "channel": 0}, {"type": "note_on", "time": 13, "note": 58, "velocity": 109, "channel": 0}, {"type": "note_off", "time": 82, "note": 58, "velocity": 109, "channel": 0}, {"type": "note_on", "time": 6, "note": 54, "velocity": 110, "channel": 0}, {"type": "note_off", "time": 114, "note": 54, "velocity": 110, "channel": 0}, {"type": "note_on", "time": 24, "note": 58, "velocity": 104, "channel": 0}, {"type": "note_off", "time": 667, "note": 58, "velocity": 104, "channel": 0}, {"type": "note_on", "time": 27, "note": 56, "velocity": 105, "channel": 0}, {"type": "note_off", "time": 87, "note": 56, "velocity": 105, "channel": 0}, {"type": "note_on", "time": 13, "note": 58, "velocity": 104, "channel": 0}, {"type": "note_off", "time": 73, "note": 58, "velocity": 104, "channel": 0}, {"type": "note_on", "time": 118, "note": 66, "velocity": 113, "channel": 0}, {"type": "note_off", "time": 49, "note": 66, "velocity": 113, "channel": 0}, {"type": "note_on", "time": 8, "note": 68, "velocity": 115, "channel": 0}, {"type": "note_off", "time": 109, "note": 68, "velocity": 115, "channel": 0}, {"type": "note_on", "time": 0, "note": 66, "velocity": 112, "channel": 0}, {"type": "note_off", "time": 71, "note": 66, "velocity": 112, "channel": 0}, {"type": "note_on", "time": 29, "note": 62, "velocity": 109, "channel": 0}, {"type": "note_off", "time": 80, "note": 62, "velocity": 109, "channel": 0}, {"type": "note_on", "time": 8, "note": 58, "velocity": 99, "channel": 0}, {"type": "note_off", "time": 62, "note": 58, "velocity": 99, "channel": 0}, {"type": "note_on", "time": 15, "note": 63, "velocity": 107, "channel": 0}, {"type": "note_off", "time": 167, "note": 63, "velocity": 107, "channel": 0}, {"type": "note_on", "time": 55, "note": 68, "velocity": 111, "channel": 0}, {"type": "note_off", "time": 78, "note": 68, "velocity": 111, "channel": 0}, {"type": "note_on", "time": 2, "note": 70, "velocity": 105, "channel": 0}, {"type": "note_off", "time": 71, "note": 70, "velocity": 105, "channel": 0}, {"type": "note_on", "time": 0, "note": 66, "velocity": 110, "channel": 0}, {"type": "note_off", "time": 194, "note": 66, "velocity": 110, "channel": 0}, {"type": "note_on", "time": 15, "note": 68, "velocity": 113, "channel": 0}, {"type": "note_off", "time": 109, "note": 68, "velocity": 113, "channel": 0}, {"type": "note_on", "time": 8, "note": 66, "velocity": 105, "channel": 0}, {"type": "note_off", "time": 85, "note": 66, "velocity": 105, "channel": 0}, {"type": "note_on", "time": 405, "note": 68, "velocity": 118, "channel": 0}, {"type": "note_off", "time": 105, "note": 68, "velocity": 118, "channel": 0}, {"type": "note_on", "time": 4, "note": 66, "velocity": 111, "channel": 0}, {"type": "note_off", "time": 69, "note": 66, "velocity": 111, "channel": 0}, {"type": "note_on", "time": 4, "note": 63, "velocity": 106, "channel": 0}, {"type": "note_off", "time": 111, "note": 63, "velocity": 106, "channel": 0}, {"type": "note_on", "time": 10, "note": 58, "velocity": 91, "channel": 0}, {"type": "note_off", "time": 33, "note": 58, "velocity": 91, "channel": 0}, {"type": "note_on", "time": 16, "note": 62, "velocity": 109, "channel": 0}, {"type": "note_off", "time": 102, "note": 62, "velocity": 109, "channel": 0}, {"type": "note_on", "time": 38, "note": 68, "velocity": 115, "channel": 0}, {"type": "note_off", "time": 82, "note": 68, "velocity": 115, "channel": 0}, {"type": "note_on", "time": 107, "note": 62, "velocity": 107, "channel": 0}, {"type": "note_off", "time": 69, "note": 62, "velocity": 107, "channel": 0}, {"type": "note_on", "time": 17, "note": 66, "velocity": 112, "channel": 0}, {"type": "note_off", "time": 143, "note": 66, "velocity": 112, "channel": 0}, {"type": "note_on", "time": 24, "note": 69, "velocity": 114, "channel": 0}, {"type": "note_off", "time": 127, "note": 69, "velocity": 114, "channel": 0}, {"type": "note_on", "time": 0, "note": 67, "velocity": 108, "channel": 0}, {"type": "note_off", "time": 89, "note": 67, "velocity": 108, "channel": 0}, {"type": "note_on", "time": 78, "note": 72, "velocity": 115, "channel": 0}, {"type": "note_off", "time": 82, "note": 72, "velocity": 115, "channel": 0}, {"type": "note_on", "time": 5, "note": 71, "velocity": 113, "channel": 0}, {"type": "note_off", "time": 102, "note": 71, "velocity": 113, "channel": 0}, {"type": "note_on", "time": 8, "note": 67, "velocity": 90, "channel": 0}, {"type": "note_off", "time": 73, "note": 67, "velocity": 90, "channel": 0}, {"type": "note_on", "time": 20, "note": 69, "velocity": 118, "channel": 0}, {"type": "note_off", "time": 96, "note": 69, "velocity": 118, "channel": 0}, {"type": "note_on", "time": 13, "note": 66, "velocity": 113, "channel": 0}, {"type": "note_off", "time": 76, "note": 66, "velocity": 113, "channel": 0}, {"type": "note_on", "time": 6, "note": 64, "velocity": 108, "channel": 0}, {"type": "note_off", "time": 91, "note": 64, "velocity": 108, "channel": 0}, {"type": "note_on", "time": 102, "note": 66, "velocity": 111, "channel": 0}, {"type": "note_off", "time": 85, "note": 66, "velocity": 111, "channel": 0}, {"type": "note_on", "time": 6, "note": 70, "velocity": 107, "channel": 0}, {"type": "note_off", "time": 80, "note": 70, "velocity": 107, "channel": 0}, {"type": "note_on", "time": 17, "note": 68, "velocity": 114, "channel": 0}, {"type": "note_off", "time": 163, "note": 68, "velocity": 114, "channel": 0}, {"type": "note_on", "time": 17, "note": 65, "velocity": 110, "channel": 0}, {"type": "note_off", "time": 105, "note": 65, "velocity": 110, "channel": 0}, {"type": "note_on", "time": 2, "note": 63, "velocity": 105, "channel": 0}, {"type": "note_off", "time": 105, "note": 63, "velocity": 105, "channel": 0}, {"type": "note_on", "time": 91, "note": 61, "velocity": 104, "channel": 0}, {"type": "note_off", "time": 71, "note": 61, "velocity": 104, "channel": 0}, {"type": "note_on", "time": 10, "note": 56, "velocity": 102, "channel": 0}, {"type": "note_off", "time": 78, "note": 56, "velocity": 102, "channel": 0}, {"type": "note_on", "time": 16, "note": 58, "velocity": 100, "channel": 0}, {"type": "note_off", "time": 47, "note": 58, "velocity": 100, "channel": 0}, {"type": "note_on", "time": 5, "note": 60, "velocity": 107, "channel": 0}, {"type": "note_off", "time": 230, "note": 60, "velocity": 107, "channel": 0}, {"type": "note_on", "time": 15, "note": 58, "velocity": 102, "channel": 0}, {"type": "note_off", "time": 87, "note": 58, "velocity": 102, "channel": 0}, {"type": "note_on", "time": 5, "note": 55, "velocity": 103, "channel": 0}, {"type": "note_off", "time": 102, "note": 55, "velocity": 103, "channel": 0}, {"type": "note_on", "time": 424, "note": 57, "velocity": 110, "channel": 0}, {"type": "note_off", "time": 104, "note": 57, "velocity": 110, "channel": 0}, {"type": "note_on", "time": 13, "note": 54, "velocity": 95, "channel": 0}, {"type": "note_off", "time": 43, "note": 54, "velocity": 95, "channel": 0}, {"type": "note_on", "time": 15, "note": 58, "velocity": 99, "channel": 0}, {"type": "note_off", "time": 308, "note": 58, "velocity": 99, "channel": 0}, {"type": "note_on", "time": 2, "note": 61, "velocity": 108, "channel": 0}, {"type": "note_off", "time": 69, "note": 61, "velocity": 108, "channel": 0}, {"type": "note_on", "time": 15, "note": 63, "velocity": 102, "channel": 0}, {"type": "note_off", "time": 398, "note": 63, "velocity": 102, "channel": 0}, {"type": "note_on", "time": 17, "note": 59, "velocity": 112, "channel": 0}, {"type": "note_off", "time": 47, "note": 59, "velocity": 112, "channel": 0}, {"type": "note_on", "time": 29, "note": 63, "velocity": 105, "channel": 0}, {"type": "note_off", "time": 80, "note": 63, "velocity": 105, "channel": 0}, {"type": "note_on", "time": 13, "note": 61, "velocity": 106, "channel": 0}, {"type": "note_off", "time": 111, "note": 61, "velocity": 106, "channel": 0}, {"type": "note_on", "time": 20, "note": 53, "velocity": 104, "channel": 0}, {"type": "note_off", "time": 55, "note": 53, "velocity": 104, "channel": 0}, {"type": "note_on", "time": 6, "note": 58, "velocity": 103, "channel": 0}, {"type": "note_off", "time": 98, "note": 58, "velocity": 103, "channel": 0}, {"type": "note_on", "time": 2, "note": 61, "velocity": 106, "channel": 0}, {"type": "note_off", "time": 94, "note": 61, "velocity": 106, "channel": 0}, {"type": "note_on", "time": 0, "note": 58, "velocity": 104, "channel": 0}, {"type": "note_off", "time": 87, "note": 58, "velocity": 104, "channel": 0}, {"type": "note_on", "time": 2, "note": 56, "velocity": 105, "channel": 0}, {"type": "note_off", "time": 80, "note": 56, "velocity": 105, "channel": 0}, {"type": "note_on", "time": 6, "note": 53, "velocity": 110, "channel": 0}, {"type": "note_off", "time": 87, "note": 53, "velocity": 110, "channel": 0}, {"type": "note_on", "time": 26, "note": 56, "velocity": 106, "channel": 0}, {"type": "note_off", "time": 81, "note": 56, "velocity": 106, "channel": 0}, {"type": "note_on", "time": 1, "note": 55, "velocity": 96, "channel": 0}, {"type": "note_off", "time": 277, "note": 55, "velocity": 96, "channel": 0}, {"type": "note_on", "time": 7, "note": 58, "velocity": 99, "channel": 0}, {"type": "note_off", "time": 85, "note": 58, "velocity": 99, "channel": 0}, {"type": "note_on", "time": 124, "note": 65, "velocity": 113, "channel": 0}, {"type": "note_off", "time": 71, "note": 65, "velocity": 113, "channel": 0}, {"type": "note_on", "time": 13, "note": 61, "velocity": 105, "channel": 0}, {"type": "note_off", "time": 76, "note": 61, "velocity": 105, "channel": 0}, {"type": "note_on", "time": 17, "note": 63, "velocity": 104, "channel": 0}, {"type": "note_off", "time": 78, "note": 63, "velocity": 104, "channel": 0}, {"type": "note_on", "time": 6, "note": 65, "velocity": 108, "channel": 0}, {"type": "note_off", "time": 107, "note": 65, "velocity": 108, "channel": 0}, {"type": "note_on", "time": 5, "note": 70, "velocity": 93, "channel": 0}, {"type": "note_off", "time": 51, "note": 70, "velocity": 93, "channel": 0}, {"type": "note_on", "time": 12, "note": 73, "velocity": 113, "channel": 0}, {"type": "note_off", "time": 78, "note": 73, "velocity": 113, "channel": 0}, {"type": "note_on", "time": 31, "note": 77, "velocity": 116, "channel": 0}, {"type": "note_off", "time": 102, "note": 77, "velocity": 116, "channel": 0}, {"type": "note_on", "time": 85, "note": 73, "velocity": 111, "channel": 0}, {"type": "note_off", "time": 73, "note": 73, "velocity": 111, "channel": 0}, {"type": "note_on", "time": 24, "note": 70, "velocity": 104, "channel": 0}, {"type": "note_off", "time": 82, "note": 70, "velocity": 104, "channel": 0}, {"type": "note_on", "time": 22, "note": 65, "velocity": 104, "channel": 0}, {"type": "note_off", "time": 91, "note": 65, "velocity": 104, "channel": 0}, {"type": "note_on", "time": 192, "note": 66, "velocity": 107, "channel": 0}, {"type": "note_off", "time": 96, "note": 66, "velocity": 107, "channel": 0}, {"type": "note_on", "time": 80, "note": 72, "velocity": 112, "channel": 0}, {"type": "note_off", "time": 109, "note": 72, "velocity": 112, "channel": 0}, {"type": "note_on", "time": 436, "note": 73, "velocity": 120, "channel": 0}, {"type": "note_off", "time": 67, "note": 73, "velocity": 120, "channel": 0}, {"type": "note_on", "time": 6, "note": 72, "velocity": 115, "channel": 0}, {"type": "note_off", "time": 85, "note": 72, "velocity": 115, "channel": 0}, {"type": "note_on", "time": 2, "note": 70, "velocity": 110, "channel": 0}, {"type": "note_off", "time": 98, "note": 70, "velocity": 110, "channel": 0}, {"type": "note_on", "time": 100, "note": 75, "velocity": 113, "channel": 0}, {"type": "note_off", "time": 60, "note": 75, "velocity": 113, "channel": 0}, {"type": "note_on", "time": 13, "note": 73, "velocity": 120, "channel": 0}, {"type": "note_off", "time": 111, "note": 73, "velocity": 120, "channel": 0}, {"type": "note_on", "time": 31, "note": 67, "velocity": 100, "channel": 0}, {"type": "note_off", "time": 42, "note": 67, "velocity": 100, "channel": 0}, {"type": "note_on", "time": 13, "note": 70, "velocity": 114, "channel": 0}, {"type": "note_off", "time": 87, "note": 70, "velocity": 114, "channel": 0}, {"type": "note_on", "time": 0, "note": 72, "velocity": 115, "channel": 0}, {"type": "note_off", "time": 85, "note": 72, "velocity": 115, "channel": 0}, {"type": "note_on", "time": 7, "note": 71, "velocity": 112, "channel": 0}, {"type": "note_off", "time": 88, "note": 71, "velocity": 112, "channel": 0}, {"type": "note_on", "time": 8, "note": 72, "velocity": 113, "channel": 0}, {"type": "note_off", "time": 85, "note": 72, "velocity": 113, "channel": 0}, {"type": "note_on", "time": 2, "note": 70, "velocity": 111, "channel": 0}, {"type": "note_off", "time": 100, "note": 70, "velocity": 111, "channel": 0}, {"type": "note_on", "time": 11, "note": 69, "velocity": 112, "channel": 0}, {"type": "note_off", "time": 82, "note": 69, "velocity": 112, "channel": 0}, {"type": "note_on", "time": 0, "note": 68, "velocity": 111, "channel": 0}, {"type": "note_off", "time": 73, "note": 68, "velocity": 111, "channel": 0}, {"type": "note_on", "time": 11, "note": 70, "velocity": 108, "channel": 0}, {"type": "note_off", "time": 112, "note": 70, "velocity": 108, "channel": 0}, {"type": "note_on", "time": 5, "note": 71, "velocity": 113, "channel": 0}, {"type": "note_off", "time": 78, "note": 71, "velocity": 113, "channel": 0}, {"type": "note_on", "time": 8, "note": 70, "velocity": 113, "channel": 0}, {"type": "note_off", "time": 80, "note": 70, "velocity": 113, "channel": 0}, {"type": "note_on", "time": 8, "note": 69, "velocity": 117, "channel": 0}, {"type": "note_off", "time": 94, "note": 69, "velocity": 117, "channel": 0}, {"type": "note_on", "time": 15, "note": 66, "velocity": 114, "channel": 0}, {"type": "note_off", "time": 64, "note": 66, "velocity": 114, "channel": 0}, {"type": "note_on", "time": 0, "note": 63, "velocity": 100, "channel": 0}, {"type": "note_off", "time": 89, "note": 63, "velocity": 100, "channel": 0}, {"type": "note_on", "time": 102, "note": 66, "velocity": 113, "channel": 0}, {"type": "note_off", "time": 102, "note": 66, "velocity": 113, "channel": 0}, {"type": "note_on", "time": 2, "note": 69, "velocity": 106, "channel": 0}, {"type": "note_off", "time": 73, "note": 69, "velocity": 106, "channel": 0}, {"type": "note_on", "time": 7, "note": 67, "velocity": 106, "channel": 0}, {"type": "note_off", "time": 87, "note": 67, "velocity": 106, "channel": 0}, {"type": "note_on", "time": 10, "note": 63, "velocity": 102, "channel": 0}, {"type": "note_off", "time": 91, "note": 63, "velocity": 102, "channel": 0}, {"type": "note_on", "time": 4, "note": 62, "velocity": 100, "channel": 0}, {"type": "note_off", "time": 107, "note": 62, "velocity": 100, "channel": 0}, {"type": "note_on", "time": 8, "note": 57, "velocity": 93, "channel": 0}, {"type": "note_off", "time": 88, "note": 57, "velocity": 93, "channel": 0}, {"type": "note_on", "time": 0, "note": 59, "velocity": 98, "channel": 0}, {"type": "note_off", "time": 84, "note": 59, "velocity": 98, "channel": 0}, {"type": "note_on", "time": 3, "note": 62, "velocity": 97, "channel": 0}, {"type": "note_off", "time": 153, "note": 62, "velocity": 97, "channel": 0}, {"type": "note_on", "time": 7, "note": 63, "velocity": 96, "channel": 0}, {"type": "note_off", "time": 42, "note": 63, "velocity": 96, "channel": 0}, {"type": "note_on", "time": 7, "note": 63, "velocity": 99, "channel": 0}, {"type": "note_off", "time": 52, "note": 63, "velocity": 99, "channel": 0}, {"type": "note_on", "time": 3, "note": 59, "velocity": 96, "channel": 0}, {"type": "note_off", "time": 127, "note": 59, "velocity": 96, "channel": 0}, {"type": "note_on", "time": 5, "note": 54, "velocity": 100, "channel": 0}, {"type": "note_off", "time": 93, "note": 54, "velocity": 100, "channel": 0}, {"type": "note_on", "time": 7, "note": 57, "velocity": 92, "channel": 0}, {"type": "note_off", "time": 89, "note": 57, "velocity": 92, "channel": 0}, {"type": "note_on", "time": 7, "note": 57, "velocity": 97, "channel": 0}, {"type": "note_off", "time": 77, "note": 57, "velocity": 97, "channel": 0}, {"type": "note_on", "time": 2, "note": 55, "velocity": 94, "channel": 0}, {"type": "note_off", "time": 78, "note": 55, "velocity": 94, "channel": 0}, {"type": "note_on", "time": 31, "note": 58, "velocity": 94, "channel": 0}, {"type": "note_off", "time": 69, "note": 58, "velocity": 94, "channel": 0}, {"type": "note_on", "time": 18, "note": 59, "velocity": 90, "channel": 0}, {"type": "note_off", "time": 166, "note": 59, "velocity": 90, "channel": 0}, {"type": "note_on", "time": 2, "note": 55, "velocity": 99, "channel": 0}, {"type": "note_off", "time": 107, "note": 55, "velocity": 99, "channel": 0}, {"type": "note_on", "time": 15, "note": 50, "velocity": 87, "channel": 0}, {"type": "note_off", "time": 21, "note": 50, "velocity": 87, "channel": 0}, {"type": "note_on", "time": 3, "note": 48, "velocity": 90, "channel": 0}, {"type": "note_off", "time": 29, "note": 48, "velocity": 90, "channel": 0}, {"type": "note_on", "time": 42, "note": 55, "velocity": 89, "channel": 0}, {"type": "note_off", "time": 154, "note": 55, "velocity": 89, "channel": 0}, {"type": "end_of_track", "time": 0}]]}