{"ticks_per_beat": 192, "tracks": [[{"type": "track_name", "name": "Melody", "time": 0}, {"type": "set_tempo", "tempo": 359281, "time": 0}, {"type": "time_signature", "numerator": 4, "denominator": 4, "clocks_per_click": 24, "notated_32nd_notes_per_beat": 8, "time": 0}, {"type": "note_on", "time": 5308, "note": 68, "velocity": 117, "channel": 0}, {"type": "note_off", "time": 89, "note": 68, "velocity": 117, "channel": 0}, {"type": "note_on", "time": 291, "note": 63, "velocity": 119, "channel": 0}, {"type": "note_off", "time": 102, "note": 63, "velocity": 119, "channel": 0}, {"type": "note_on", "time": 13, "note": 62, "velocity": 118, "channel": 0}, {"type": "note_off", "time": 68, "note": 62, "velocity": 118, "channel": 0}, {"type": "note_on", "time": 25, "note": 61, "velocity": 121, "channel": 0}, {"type": "note_off", "time": 144, "note": 61, "velocity": 121, "channel": 0}, {"type": "note_on", "time": 25, "note": 68, "velocity": 118, "channel": 0}, {"type": "note_off", "time": 369, "note": 68, "velocity": 118, "channel": 0}, {"type": "note_on", "time": 15, "note": 63, "velocity": 122, "channel": 0}, {"type": "note_off", "time": 111, "note": 63, "velocity": 122, "channel": 0}, {"type": "note_on", "time": 13, "note": 61, "velocity": 121, "channel": 0}, {"type": "note_off", "time": 70, "note": 61, "velocity": 121, "channel": 0}, {"type": "note_on", "time": 16, "note": 60, "velocity": 116, "channel": 0}, {"type": "note_off", "time": 163, "note": 60, "velocity": 116, "channel": 0}, {"type": "note_on", "time": 14, "note": 68, "velocity": 116, "channel": 0}, {"type": "note_off", "time": 329, "note": 68, "velocity": 116, "channel": 0}, {"type": "note_on", "time": 45, "note": 63, "velocity": 120, "channel": 0}, {"type": "note_off", "time": 117, "note": 63, "velocity": 120, "channel": 0}, {"type": "note_on", "time": 6, "note": 61, "velocity": 120, "channel": 0}, {"type": "note_off", "time": 71, "note": 61, "velocity": 120, "channel": 0}, {"type": "note_on", "time": 15, "note": 60, "velocity": 114, "channel": 0}, {"type": "note_off", "time": 144, "note": 60, "velocity": 114, "channel": 0}, {"type": "note_on", "time": 42, "note": 68, "velocity": 119, "channel": 0}, {"type": "note_off", "time": 172, "note": 68, "velocity": 119, "channel": 0}, {"type": "note_on", "time": 24, "note": 68, "velocity": 120, "channel": 0}, {"type": "note_off", "time": 154, "note": 68, "velocity": 120, "channel": 0}, {"type": "note_on", "time": 15, "note": 63, "velocity": 124, "channel": 0}, {"type": "note_off", "time": 106, "note": 63, "velocity": 124, "channel": 0}, {"type": "note_on", "time": 26, "note": 61, "velocity": 120, "channel": 0}, {"type": "note_off", "time": 60, "note": 61, "velocity": 120, "channel": 0}, {"type": "note_on", "time": 22, "note": 60, "velocity": 113, "channel": 0}, {"type": "note_off", "time": 177, "note": 60, "velocity": 113, "channel": 0}, {"type": "note_on", "time": 6, "note": 67, "velocity": 114, "channel": 0}, {"type": "note_off", "time": 179, "note": 67, "velocity": 114, "channel": 0}, {"type": "note_on", "time": 13, "note": 67, "velocity": 116, "channel": 0}, {"type": "note_off", "time": 201, "note": 67, "velocity": 116, "channel": 0}, {"type": "note_on", "time": 10, "note": 66, "velocity": 118, "channel": 0}, {"type": "note_off", "time": 93, "note": 66, "velocity": 118, "channel": 0}, {"type": "note_on", "time": 10, "note": 62, "velocity": 115, "channel": 0}, {"type": "note_off", "time": 76, "note": 62, "velocity": 115, "channel": 0}, {"type": "note_on", "time": 10, "note": 59, "velocity": 114, "channel": 0}, {"type": "note_off", "time": 93, "note": 59, "velocity": 114, "channel": 0}, {"type": "note_on", "time": 470, "note": 70, "velocity": 120, "channel": 0}, {"type": "note_off", "time": 185, "note": 70, "velocity": 120, "channel": 0}, {"type": "note_on", "time": 8, "note": 70, "velocity": 117, "channel": 0}, {"type": "note_off", "time": 98, "note": 70, "velocity": 117, "channel": 0}, {"type": "note_on", "time": 7, "note": 67, "velocity": 120, "channel": 0}, {"type": "note_off", "time": 76, "note": 67, "velocity": 120, "channel": 0}, {"type": "note_on", "time": 18, "note": 65, "velocity": 111, "channel": 0}, {"type": "note_off", "time": 104, "note": 65, "velocity": 111, "channel": 0}, {"type": "note_on", "time": 9, "note": 63, "velocity": 121, "channel": 0}, {"type": "note_off", "time": 74, "note": 63, "velocity": 121, "channel": 0}, {"type": "note_on", "time": 7, "note": 61, "velocity": 119, "channel": 0}, {"type": "note_off", "time": 130, "note": 61, "velocity": 119, "channel": 0}, {"type": "note_on", "time": 11, "note": 63, "velocity": 103, "channel": 0}, {"type": "note_off", "time": 33, "note": 63, "velocity": 103, "channel": 0}, {"type": "note_on", "time": 12, "note": 68, "velocity": 120, "channel": 0}, {"type": "note_off", "time": 99, "note": 68, "velocity": 120, "channel": 0}, {"type": "note_on", "time": 15, "note": 68, "velocity": 119, "channel": 0}, {"type": "note_off", "time": 71, "note": 68, "velocity": 119, "channel": 0}, {"type": "note_on", "time": 17, "note": 68, "velocity": 116, "channel": 0}, {"type": "note_off", "time": 85, "note": 68, "velocity": 116, "channel": 0}, {"type": "note_on", "time": 9, "note": 64, "velocity": 118, "channel": 0}, {"type": "note_off", "time": 92, "note": 64, "velocity": 118, "channel": 0}, {"type": "note_on", "time": 8, "note": 62, "velocity": 110, "channel": 0}, {"type": "note_off", "time": 110, "note": 62, "velocity": 110, "channel": 0}, {"type": "note_on", "time": 17, "note": 60, "velocity": 112, "channel": 0}, {"type": "note_off", "time": 212, "note": 60, "velocity": 112, "channel": 0}, {"type": "note_on", "time": 32, "note": 68, "velocity": 117, "channel": 0}, {"type": "note_off", "time": 160, "note": 68, "velocity": 117, "channel": 0}, {"type": "note_on", "time": 13, "note": 68, "velocity": 116, "channel": 0}, {"type": "note_off", "time": 116, "note": 68, "velocity": 116, "channel": 0}, {"type": "note_on", "time": 7, "note": 66, "velocity": 120, "channel": 0}, {"type": "note_off", "time": 94, "note": 66, "velocity": 120, "channel": 0}, {"type": "note_on", "time": 10, "note": 65, "velocity": 114, "channel": 0}, {"type": "note_off", "time": 78, "note": 65, "velocity": 114, "channel": 0}, {"type": "note_on", "time": 8, "note": 63, "velocity": 118, "channel": 0}, {"type": "note_off", "time": 78, "note": 63, "velocity": 118, "channel": 0}, {"type": "note_on", "time": 16, "note": 65, "velocity": 108, "channel": 0}, {"type": "note_off", "time": 99, "note": 65, "velocity": 108, "channel": 0}, {"type": "note_on", "time": 10, "note": 68, "velocity": 117, "channel": 0}, {"type": "note_off", "time": 83, "note": 68, "velocity": 117, "channel": 0}, {"type": "note_on", "time": 25, "note": 66, "velocity": 114, "channel": 0}, {"type": "note_off", "time": 87, "note": 66, "velocity": 114, "channel": 0}, {"type": "note_on", "time": 79, "note": 66, "velocity": 116, "channel": 0}, {"type": "note_off", "time": 106, "note": 66, "velocity": 116, "channel": 0}, {"type": "note_on", "time": 14, "note": 68, "velocity": 114, "channel": 0}, {"type": "note_off", "time": 98, "note": 68, "velocity": 114, "channel": 0}, {"type": "note_on", "time": 23, "note": 65, "velocity": 114, "channel": 0}, {"type": "note_off", "time": 73, "note": 65, "velocity": 114, "channel": 0}, {"type": "note_on", "time": 74, "note": 65, "velocity": 109, "channel": 0}, {"type": "note_off", "time": 99, "note": 65, "velocity": 109, "channel": 0}, {"type": "note_on", "time": 14, "note": 68, "velocity": 114, "channel": 0}, {"type": "note_off", "time": 92, "note": 68, "velocity": 114, "channel": 0}, {"type": "note_on", "time": 11, "note": 64, "velocity": 119, "channel": 0}, {"type": "note_off", "time": 76, "note": 64, "velocity": 119, "channel": 0}, {"type": "note_on", "time": 85, "note": 64, "velocity": 113, "channel": 0}, {"type": "note_off", "time": 96, "note": 64, "velocity": 113, "channel": 0}, {"type": "note_on", "time": 14, "note": 68, "velocity": 114, "channel": 0}, {"type": "note_off", "time": 93, "note": 68, "velocity": 114, "channel": 0}, {"type": "note_on", "time": 7, "note": 63, "velocity": 109, "channel": 0}, {"type": "note_off", "time": 248, "note": 63, "velocity": 109, "channel": 0}, {"type": "note_on", "time": 419, "note": 70, "velocity": 119, "channel": 0}, {"type": "note_off", "time": 272, "note": 70, "velocity": 119, "channel": 0}, {"type": "note_on", "time": 27, "note": 75, "velocity": 124, "channel": 0}, {"type": "note_off", "time": 97, "note": 75, "velocity": 124, "channel": 0}, {"type": "note_on", "time": 15, "note": 76, "velocity": 126, "channel": 0}, {"type": "note_off", "time": 81, "note": 76, "velocity": 126, "channel": 0}, {"type": "note_on", "time": 19, "note": 75, "velocity": 118, "channel": 0}, {"type": "note_off", "time": 87, "note": 75, "velocity": 118, "channel": 0}, {"type": "note_on", "time": 19, "note": 70, "velocity": 115, "channel": 0}, {"type": "note_off", "time": 78, "note": 70, "velocity": 115, "channel": 0}, {"type": "note_on", "time": 20, "note": 75, "velocity": 120, "channel": 0}, {"type": "note_off", "time": 75, "note": 75, "velocity": 120, "channel": 0}, {"type": "note_on", "time": 11, "note": 76, "velocity": 125, "channel": 0}, {"type": "note_off", "time": 86, "note": 76, "velocity": 125, "channel": 0}, {"type": "note_on", "time": 14, "note": 77, "velocity": 121, "channel": 0}, {"type": "note_off", "time": 72, "note": 77, "velocity": 121, "channel": 0}, {"type": "note_on", "time": 20, "note": 77, "velocity": 123, "channel": 0}, {"type": "note_off", "time": 19, "note": 77, "velocity": 123, "channel": 0}, {"type": "note_on", "time": 4, "note": 75, "velocity": 119, "channel": 0}, {"type": "note_off", "time": 63, "note": 75, "velocity": 119, "channel": 0}, {"type": "note_on", "time": 12, "note": 72, "velocity": 124, "channel": 0}, {"type": "note_off", "time": 84, "note": 72, "velocity": 124, "channel": 0}, {"type": "note_on", "time": 13, "note": 69, "velocity": 110, "channel": 0}, {"type": "note_off", "time": 80, "note": 69, "velocity": 110, "channel": 0}, {"type": "note_on", "time": 30, "note": 74, "velocity": 119, "channel": 0}, {"type": "note_off", "time": 63, "note": 74, "velocity": 119, "channel": 0}, {"type": "note_on", "time": 82, "note": 74, "velocity": 123, "channel": 0}, {"type": "note_off", "time": 143, "note": 74, "velocity": 123, "channel": 0}, {"type": "note_on", "time": 82, "note": 71, "velocity": 113, "channel": 0}, {"type": "note_off", "time": 95, "note": 71, "velocity": 113, "channel": 0}, {"type": "note_on", "time": 8, "note": 70, "velocity": 113, "channel": 0}, {"type": "note_off", "time": 74, "note": 70, "velocity": 113, "channel": 0}, {"type": "note_on", "time": 292, "note": 69, "velocity": 113, "channel": 0}, {"type": "note_off", "time": 80, "note": 69, "velocity": 113, "channel": 0}, {"type": "note_on", "time": 13, "note": 70, "velocity": 119, "channel": 0}, {"type": "note_off", "time": 82, "note": 70, "velocity": 119, "channel": 0}, {"type": "note_on", "time": 16, "note": 67, "velocity": 118, "channel": 0}, {"type": "note_off", "time": 75, "note": 67, "velocity": 118, "channel": 0}, {"type": "note_on", "time": 186, "note": 68, "velocity": 120, "channel": 0}, {"type": "note_off", "time": 113, "note": 68, "velocity": 120, "channel": 0}, {"type": "note_on", "time": 185, "note": 64, "velocity": 121, "channel": 0}, {"type": "note_off", "time": 93, "note": 64, "velocity": 121, "channel": 0}, {"type": "note_on", "time": 381, "note": 70, "velocity": 120, "channel": 0}, {"type": "note_off", "time": 216, "note": 70, "velocity": 120, "channel": 0}, {"type": "note_on", "time": 6, "note": 66, "velocity": 120, "channel": 0}, {"type": "note_off", "time": 61, "note": 66, "velocity": 120, "channel": 0}, {"type": "note_on", "time": 5, "note": 62, "velocity": 120, "channel": 0}, {"type": "note_off", "time": 32, "note": 62, "velocity": 120, "channel": 0}, {"type": "note_on", "time": 7, "note": 60, "velocity": 112, "channel": 0}, {"type": "note_off", "time": 30, "note": 60, "velocity": 112, "channel": 0}, {"type": "note_on", "time": 17, "note": 58, "velocity": 114, "channel": 0}, {"type": "note_off", "time": 215, "note": 58, "velocity": 114, "channel": 0}, {"type": "note_on", "time": 17, "note": 59, "velocity": 107, "channel": 0}, {"type": "note_off", "time": 332, "note": 59, "velocity": 107, "channel": 0}, {"type": "note_on", "time": 17, "note": 62, "velocity": 116, "channel": 0}, {"type": "note_off", "time": 100, "note": 62, "velocity": 116, "channel": 0}, {"type": "note_on", "time": 316, "note": 65, "velocity": 119, "channel": 0}, {"type": "note_off", "time": 113, "note": 65, "velocity": 119, "channel": 0}, {"type": "note_on", "time": 10, "note": 71, "velocity": 118, "channel": 0}, {"type": "note_off", "time": 72, "note": 71, "velocity": 118, "channel": 0}, {"type": "note_on", "time": 80, "note": 77, "velocity": 124, "channel": 0}, {"type": "note_off", "time": 100, "note": 77, "velocity": 124, "channel": 0}, {"type": "note_on", "time": 50, "note": 83, "velocity": 123, "channel": 0}, {"type": "note_off", "time": 84, "note": 83, "velocity": 123, "channel": 0}, {"type": "note_on", "time": 76, "note": 77, "velocity": 124, "channel": 0}, {"type": "note_off", "time": 110, "note": 77, "velocity": 124, "channel": 0}, {"type": "note_on", "time": 9, "note": 76, "velocity": 125, "channel": 0}, {"type": "note_off", "time": 85, "note": 76, "velocity": 125, "channel": 0}, {"type": "note_on", "time": 92, "note": 70, "velocity": 117, "channel": 0}, {"type": "note_off", "time": 77, "note": 70, "velocity": 117, "channel": 0}, {"type": "note_on", "time": 77, "note": 64, "velocity": 114, "channel": 0}, {"type": "note_off", "time": 64, "note": 64, "velocity": 114, "channel": 0}, {"type": "note_on", "time": 20, "note": 70, "velocity": 110, "channel": 0}, {"type": "note_off", "time": 292, "note": 70, "velocity": 110, "channel": 0}, {"type": "note_on", "time": 40, "note": 63, "velocity": 112, "channel": 0}, {"type": "note_off", "time": 45, "note": 63, "velocity": 112, "channel": 0}, {"type": "note_on", "time": 10, "note": 64, "velocity": 107, "channel": 0}, {"type": "note_off", "time": 124, "note": 64, "velocity": 107, "channel": 0}, {"type": "note_on", "time": 10, "note": 67, "velocity": 112, "channel": 0}, {"type": "note_off", "time": 91, "note": 67, "velocity": 112, "channel": 0}, {"type": "note_on", "time": 6, "note": 69, "velocity": 112, "channel": 0}, {"type": "note_off", "time": 67, "note": 69, "velocity": 112, "channel": 0}, {"type": "note_on", "time": 11, "note": 70, "velocity": 120, "channel": 0}, {"type": "note_off", "time": 80, "note": 70, "velocity": 120, "channel": 0}, {"type": "note_on", "time": 16, "note": 72, "velocity": 124, "channel": 0}, {"type": "note_off", "time": 77, "note": 72, "velocity": 124, "channel": 0}, {"type": "note_on", "time": 16, "note": 74, "velocity": 120, "channel": 0}, {"type": "note_off", "time": 77, "note": 74, "velocity": 120, "channel": 0}, {"type": "note_on", "time": 16, "note": 75, "velocity": 121, "channel": 0}, {"type": "note_off", "time": 89, "note": 75, "velocity": 121, "channel": 0}, {"type": "note_on", "time": 15, "note": 77, "velocity": 123, "channel": 0}, {"type": "note_off", "time": 84, "note": 77, "velocity": 123, "channel": 0}, {"type": "note_on", "time": 20, "note": 78, "velocity": 116, "channel": 0}, {"type": "note_off", "time": 112, "note": 78, "velocity": 116, "channel": 0}, {"type": "note_on", "time": 7, "note": 84, "velocity": 118, "channel": 0}, {"type": "note_off", "time": 141, "note": 84, "velocity": 118, "channel": 0}, {"type": "note_on", "time": 34, "note": 78, "velocity": 114, "channel": 0}, {"type": "note_off", "time": 76, "note": 78, "velocity": 114, "channel": 0}, {"type": "note_on", "time": 184, "note": 77, "velocity": 124, "channel": 0}, {"type": "note_off", "time": 99, "note": 77, "velocity": 124, "channel": 0}, {"type": "note_on", "time": 206, "note": 75, "velocity": 122, "channel": 0}, {"type": "note_off", "time": 248, "note": 75, "velocity": 122, "channel": 0}, {"type": "note_on", "time": 19, "note": 72, "velocity": 126, "channel": 0}, {"type": "note_off", "time": 102, "note": 72, "velocity": 126, "channel": 0}, {"type": "note_on", "time": 21, "note": 69, "velocity": 103, "channel": 0}, {"type": "note_off", "time": 52, "note": 69, "velocity": 103, "channel": 0}, {"type": "note_on", "time": 39, "note": 66, "velocity": 110, "channel": 0}, {"type": "note_off", "time": 38, "note": 66, "velocity": 110, "channel": 0}, {"type": "note_on", "time": 5, "note": 69, "velocity": 101, "channel": 0}, {"type": "note_off", "time": 21, "note": 69, "velocity": 101, "channel": 0}, {"type": "note_on", "time": 5, "note": 66, "velocity": 107, "channel": 0}, {"type": "note_off", "time": 47, "note": 66, "velocity": 107, "channel": 0}, {"type": "note_on", "time": 3, "note": 63, "velocity": 106, "channel": 0}, {"type": "note_off", "time": 53, "note": 63, "velocity": 106, "channel": 0}, {"type": "note_on", "time": 9, "note": 65, "velocity": 110, "channel": 0}, {"type": "note_off", "time": 95, "note": 65, "velocity": 110, "channel": 0}, {"type": "note_on", "time": 6, "note": 68, "velocity": 113, "channel": 0}, {"type": "note_off", "time": 92, "note": 68, "velocity": 113, "channel": 0}, {"type": "note_on", "time": 14, "note": 71, "velocity": 113, "channel": 0}, {"type": "note_off", "time": 76, "note": 71, "velocity": 113, "channel": 0}, {"type": "note_on", "time": 14, "note": 74, "velocity": 124, "channel": 0}, {"type": "note_off", "time": 81, "note": 74, "velocity": 124, "channel": 0}, {"type": "note_on", "time": 22, "note": 73, "velocity": 124, "channel": 0}, {"type": "note_off", "time": 73, "note": 73, "velocity": 124, "channel": 0}, {"type": "note_on", "time": 86, "note": 69, "velocity": 113, "channel": 0}, {"type": "note_off", "time": 111, "note": 69, "velocity": 113, "channel": 0}, {"type": "note_on", "time": 212, "note": 72, "velocity": 124, "channel": 0}, {"type": "note_off", "time": 91, "note": 72, "velocity": 124, "channel": 0}, {"type": "note_on", "time": 217, "note": 68, "velocity": 121, "channel": 0}, {"type": "note_off", "time": 750, "note": 68, "velocity": 121, "channel": 0}, {"type": "note_on", "time": 8, "note": 68, "velocity": 112, "channel": 0}, {"type": "note_off", "time": 116, "note": 68, "velocity": 112, "channel": 0}, {"type": "note_on", "time": 10, "note": 68, "velocity": 115, "channel": 0}, {"type": "note_off", "time": 95, "note": 68, "velocity": 115, "channel": 0}, {"type": "note_on", "time": 17, "note": 68, "velocity": 117, "channel": 0}, {"type": "note_off", "time": 75, "note": 68, "velocity": 117, "channel": 0}, {"type": "note_on", "time": 44, "note": 68, "velocity": 118, "channel": 0}, {"type": "note_off", "time": 69, "note": 68, "velocity": 118, "channel": 0}, {"type": "note_on", "time": 75, "note": 65, "velocity": 115, "channel": 0}, {"type": "note_off", "time": 165, "note": 65, "velocity": 115, "channel": 0}, {"type": "note_on", "time": 14, "note": 68, "velocity": 120, "channel": 0}, {"type": "note_off", "time": 165, "note": 68, "velocity": 120, "channel": 0}, {"type": "note_on", "time": 14, "note": 65, "velocity": 113, "channel": 0}, {"type": "note_off", "time": 372, "note": 65, "velocity": 113, "channel": 0}, {"type": "note_on", "time": 23, "note": 63, "velocity": 120, "channel": 0}, {"type": "note_off", "time": 515, "note": 63, "velocity": 120, "channel": 0}, {"type": "note_on", "time": 224, "note": 58, "velocity": 111, "channel": 0}, {"type": "note_off", "time": 43, "note": 58, "velocity": 111, "channel": 0}, {"type": "note_on", "time": 17, "note": 63, "velocity": 116, "channel": 0}, {"type": "note_off", "time": 55, "note": 63, "velocity": 116, "channel": 0}, {"type": "note_on", "time": 4, "note": 65, "velocity": 116, "channel": 0}, {"type": "note_off", "time": 37, "note": 65, "velocity": 116, "channel": 0}, {"type": "note_on", "time": 6, "note": 63, "velocity": 120, "channel": 0}, {"type": "note_off", "time": 50, "note": 63, "velocity": 120, "channel": 0}, {"type": "note_on", "time": 5, "note": 58, "velocity": 118, "channel": 0}, {"type": "note_off", "time": 49, "note": 58, "velocity": 118, "channel": 0}, {"type": "note_on", "time": 26, "note": 63, "velocity": 122, "channel": 0}, {"type": "note_off", "time": 119, "note": 63, "velocity": 122, "channel": 0}, {"type": "note_on", "time": 10, "note": 64, "velocity": 118, "channel": 0}, {"type": "note_off", "time": 132, "note": 64, "velocity": 118, "channel": 0}, {"type": "note_on", "time": 11, "note": 65, "velocity": 112, "channel": 0}, {"type": "note_off", "time": 88, "note": 65, "velocity": 112, "channel": 0}, {"type": "note_on", "time": 357, "note": 66, "velocity": 118, "channel": 0}, {"type": "note_off", "time": 131, "note": 66, "velocity": 118, "channel": 0}, {"type": "note_on", "time": 284, "note": 67, "velocity": 111, "channel": 0}, {"type": "note_off", "time": 106, "note": 67, "velocity": 111, "channel": 0}, {"type": "note_on", "time": 10, "note": 69, "velocity": 108, "channel": 0}, {"type": "note_off", "time": 50, "note": 69, "velocity": 108, "channel": 0}, {"type": "note_on", "time": 20, "note": 71, "velocity": 116, "channel": 0}, {"type": "note_off", "time": 97, "note": 71, "velocity": 116, "channel": 0}, {"type": "note_on", "time": 15, "note": 73, "velocity": 124, "channel": 0}, {"type": "note_off", "time": 112, "note": 73, "velocity": 124, "channel": 0}, {"type": "note_on", "time": 147, "note": 75, "velocity": 124, "channel": 0}, {"type": "note_off", "time": 109, "note": 75, "velocity": 124, "channel": 0}, {"type": "note_on", "time": 193, "note": 76, "velocity": 121, "channel": 0}, {"type": "note_off", "time": 269, "note": 76, "velocity": 121, "channel": 0}, {"type": "note_on", "time": 39, "note": 77, "velocity": 123, "channel": 0}, {"type": "note_off", "time": 83, "note": 77, "velocity": 123, "channel": 0}, {"type": "note_on", "time": 13, "note": 78, "velocity": 118, "channel": 0}, {"type": "note_off", "time": 83, "note": 78, "velocity": 118, "channel": 0}, {"type": "note_on", "time": 9, "note": 74, "velocity": 123, "channel": 0}, {"type": "note_off", "time": 80, "note": 74, "velocity": 123, "channel": 0}, {"type": "note_on", "time": 9, "note": 72, "velocity": 124, "channel": 0}, {"type": "note_off", "time": 83, "note": 72, "velocity": 124, "channel": 0}, {"type": "note_on", "time": 15, "note": 70, "velocity": 109, "channel": 0}, {"type": "note_off", "time": 77, "note": 70, "velocity": 109, "channel": 0}, {"type": "note_on", "time": 21, "note": 66, "velocity": 116, "channel": 0}, {"type": "note_off", "time": 64, "note": 66, "velocity": 116, "channel": 0}, {"type": "note_on", "time": 6, "note": 64, "velocity": 104, "channel": 0}, {"type": "note_off", "time": 27, "note": 64, "velocity": 104, "channel": 0}, {"type": "note_on", "time": 5, "note": 66, "velocity": 113, "channel": 0}, {"type": "note_off", "time": 38, "note": 66, "velocity": 113, "channel": 0}, {"type": "note_on", "time": 7, "note": 64, "velocity": 114, "channel": 0}, {"type": "note_off", "time": 41, "note": 64, "velocity": 114, "channel": 0}, {"type": "note_on", "time": 4, "note": 62, "velocity": 111, "channel": 0}, {"type": "note_off", "time": 56, "note": 62, "velocity": 111, "channel": 0}, {"type": "note_on", "time": 14, "note": 60, "velocity": 108, "channel": 0}, {"type": "note_off", "time": 133, "note": 60, "velocity": 108, "channel": 0}, {"type": "note_on", "time": 6, "note": 62, "velocity": 109, "channel": 0}, {"type": "note_off", "time": 33, "note": 62, "velocity": 109, "channel": 0}, {"type": "note_on", "time": 15, "note": 64, "velocity": 118, "channel": 0}, {"type": "note_off", "time": 104, "note": 64, "velocity": 118, "channel": 0}, {"type": "note_on", "time": 7, "note": 66, "velocity": 121, "channel": 0}, {"type": "note_off", "time": 92, "note": 66, "velocity": 121, "channel": 0}, {"type": "note_on", "time": 7, "note": 65, "velocity": 109, "channel": 0}, {"type": "note_off", "time": 108, "note": 65, "velocity": 109, "channel": 0}, {"type": "note_on", "time": 9, "note": 64, "velocity": 117, "channel": 0}, {"type": "note_off", "time": 66, "note": 64, "velocity": 117, "channel": 0}, {"type": "note_on", "time": 9, "note": 65, "velocity": 117, "channel": 0}, {"type": "note_off", "time": 94, "note": 65, "velocity": 117, "channel": 0}, {"type": "note_on", "time": 11, "note": 68, "velocity": 118, "channel": 0}, {"type": "note_off", "time": 85, "note": 68, "velocity": 118, "channel": 0}, {"type": "note_on", "time": 14, "note": 70, "velocity": 117, "channel": 0}, {"type": "note_off", "time": 87, "note": 70, "velocity": 117, "channel": 0}, {"type": "note_on", "time": 11, "note": 72, "velocity": 126, "channel": 0}, {"type": "note_off", "time": 85, "note": 72, "velocity": 126, "channel": 0}, {"type": "note_on", "time": 9, "note": 73, "velocity": 122, "channel": 0}, {"type": "note_off", "time": 85, "note": 73, "velocity": 122, "channel": 0}, {"type": "note_on", "time": 9, "note": 75, "velocity": 115, "channel": 0}, {"type": "note_off", "time": 83, "note": 75, "velocity": 115, "channel": 0}, {"type": "note_on", "time": 17, "note": 77, "velocity": 115, "channel": 0}, {"type": "note_off", "time": 84, "note": 77, "velocity": 115, "channel": 0}, {"type": "note_on", "time": 13, "note": 78, "velocity": 116, "channel": 0}, {"type": "note_off", "time": 89, "note": 78, "velocity": 116, "channel": 0}, {"type": "note_on", "time": 13, "note": 80, "velocity": 108, "channel": 0}, {"type": "note_off", "time": 29, "note": 80, "velocity": 108, "channel": 0}, {"type": "note_on", "time": 4, "note": 77, "velocity": 119, "channel": 0}, {"type": "note_off", "time": 54, "note": 77, "velocity": 119, "channel": 0}, {"type": "note_on", "time": 263, "note": 80, "velocity": 124, "channel": 0}, {"type": "note_off", "time": 136, "note": 80, "velocity": 124, "channel": 0}, {"type": "note_on", "time": 167, "note": 76, "velocity": 121, "channel": 0}, {"type": "note_off", "time": 271, "note": 76, "velocity": 121, "channel": 0}, {"type": "note_on", "time": 18, "note": 70, "velocity": 9, "channel": 0}, {"type": "note_off", "time": 291, "note": 70, "velocity": 9, "channel": 0}, {"type": "note_on", "time": 14, "note": 75, "velocity": 127, "channel": 0}, {"type": "note_off", "time": 80, "note": 75, "velocity": 127, "channel": 0}, {"type": "note_on", "time": 9, "note": 73, "velocity": 123, "channel": 0}, {"type": "note_off", "time": 84, "note": 73, "velocity": 123, "channel": 0}, {"type": "note_on", "time": 10, "note": 76, "velocity": 122, "channel": 0}, {"type": "note_off", "time": 78, "note": 76, "velocity": 122, "channel": 0}, {"type": "note_on", "time": 20, "note": 75, "velocity": 119, "channel": 0}, {"type": "note_off", "time": 83, "note": 75, "velocity": 119, "channel": 0}, {"type": "note_on", "time": 18, "note": 78, "velocity": 118, "channel": 0}, {"type": "note_off", "time": 93, "note": 78, "velocity": 118, "channel": 0}, {"type": "note_on", "time": 19, "note": 76, "velocity": 125, "channel": 0}, {"type": "note_off", "time": 69, "note": 76, "velocity": 125, "channel": 0}, {"type": "note_on", "time": 95, "note": 76, "velocity": 125, "channel": 0}, {"type": "note_off", "time": 178, "note": 76, "velocity": 125, "channel": 0}, {"type": "note_on", "time": 33, "note": 75, "velocity": 119, "channel": 0}, {"type": "note_off", "time": 75, "note": 75, "velocity": 119, "channel": 0}, {"type": "note_on", "time": 86, "note": 75, "velocity": 123, "channel": 0}, {"type": "note_off", "time": 210, "note": 75, "velocity": 123, "channel": 0}, {"type": "note_on", "time": 6, "note": 74, "velocity": 120, "channel": 0}, {"type": "note_off", "time": 78, "note": 74, "velocity": 120, "channel": 0}, {"type": "note_on", "time": 106, "note": 74, "velocity": 120, "channel": 0}, {"type": "note_off", "time": 173, "note": 74, "velocity": 120, "channel": 0}, {"type": "note_on", "time": 27, "note": 73, "velocity": 121, "channel": 0}, {"type": "note_off", "time": 75, "note": 73, "velocity": 121, "channel": 0}, {"type": "note_on", "time": 100, "note": 73, "velocity": 124, "channel": 0}, {"type": "note_off", "time": 181, "note": 73, "velocity": 124, "channel": 0}, {"type": "note_on", "time": 17, "note": 71, "velocity": 112, "channel": 0}, {"type": "note_off", "time": 274, "note": 71, "velocity": 112, "channel": 0}, {"type": "note_on", "time": 11, "note": 71, "velocity": 110, "channel": 0}, {"type": "note_off", "time": 20, "note": 71, "velocity": 110, "channel": 0}, {"type": "note_on", "time": 4, "note": 69, "velocity": 112, "channel": 0}, {"type": "note_off", "time": 85, "note": 69, "velocity": 112, "channel": 0}, {"type": "note_on", "time": 17, "note": 70, "velocity": 114, "channel": 0}, {"type": "note_off", "time": 79, "note": 70, "velocity": 114, "channel": 0}, {"type": "note_on", "time": 382, "note": 67, "velocity": 115, "channel": 0}, {"type": "note_off", "time": 73, "note": 67, "velocity": 115, "channel": 0}, {"type": "note_on", "time": 19, "note": 69, "velocity": 115, "channel": 0}, {"type": "note_off", "time": 81, "note": 69, "velocity": 115, "channel": 0}, {"type": "note_on", "time": 26, "note": 73, "velocity": 123, "channel": 0}, {"type": "note_off", "time": 79, "note": 73, "velocity": 123, "channel": 0}, {"type": "note_on", "time": 21, "note": 68, "velocity": 107, "channel": 0}, {"type": "note_off", "time": 122, "note": 68, "velocity": 107, "channel": 0}, {"type": "note_on", "time": 150, "note": 67, "velocity": 112, "channel": 0}, {"type": "note_off", "time": 133, "note": 67, "velocity": 112, "channel": 0}, {"type": "note_on", "time": 115, "note": 66, "velocity": 119, "channel": 0}, {"type": "note_off", "time": 145, "note": 66, "velocity": 119, "channel": 0}, {"type": "note_on", "time": 127, "note": 65, "velocity": 116, "channel": 0}, {"type": "note_off", "time": 247, "note": 65, "velocity": 116, "channel": 0}, {"type": "note_on", "time": 13, "note": 68, "velocity": 119, "channel": 0}, {"type": "note_off", "time": 324, "note": 68, "velocity": 119, "channel": 0}, {"type": "note_on", "time": 72, "note": 75, "velocity": 125, "channel": 0}, {"type": "note_off", "time": 103, "note": 75, "velocity": 125, "channel": 0}, {"type": "note_on", "time": 10, "note": 76, "velocity": 124, "channel": 0}, {"type": "note_off", "time": 89, "note": 76, "velocity": 124, "channel": 0}, {"type": "note_on", "time": 5, "note": 75, "velocity": 120, "channel": 0}, {"type": "note_off", "time": 99, "note": 75, "velocity": 120, "channel": 0}, {"type": "note_on", "time": 11, "note": 70, "velocity": 115, "channel": 0}, {"type": "note_off", "time": 81, "note": 70, "velocity": 115, "channel": 0}, {"type": "note_on", "time": 6, "note": 75, "velocity": 124, "channel": 0}, {"type": "note_off", "time": 120, "note": 75, "velocity": 124, "channel": 0}, {"type": "note_on", "time": 14, "note": 76, "velocity": 125, "channel": 0}, {"type": "note_off", "time": 87, "note": 76, "velocity": 125, "channel": 0}, {"type": "note_on", "time": 85, "note": 76, "velocity": 126, "channel": 0}, {"type": "note_off", "time": 72, "note": 76, "velocity": 126, "channel": 0}, {"type": "note_on", "time": 113, "note": 70, "velocity": 114, "channel": 0}, {"type": "note_off", "time": 400, "note": 70, "velocity": 114, "channel": 0}, {"type": "note_on", "time": 21, "note": 64, "velocity": 117, "channel": 0}, {"type": "note_off", "time": 261, "note": 64, "velocity": 117, "channel": 0}, {"type": "note_on", "time": 13, "note": 64, "velocity": 111, "channel": 0}, {"type": "note_off", "time": 117, "note": 64, "velocity": 111, "channel": 0}, {"type": "note_on", "time": 7, "note": 58, "velocity": 115, "channel": 0}, {"type": "note_off", "time": 418, "note": 58, "velocity": 115, "channel": 0}, {"type": "note_on", "time": 24, "note": 65, "velocity": 113, "channel": 0}, {"type": "note_off", "time": 380, "note": 65, "velocity": 113, "channel": 0}, {"type": "note_on", "time": 26, "note": 63, "velocity": 119, "channel": 0}, {"type": "note_off", "time": 103, "note": 63, "velocity": 119, "channel": 0}, {"type": "note_on", "time": 14, "note": 60, "velocity": 112, "channel": 0}, {"type": "note_off", "time": 76, "note": 60, "velocity": 112, "channel": 0}, {"type": "note_on", "time": 47, "note": 59, "velocity": 115, "channel": 0}, {"type": "note_off", "time": 102, "note": 59, "velocity": 115, "channel": 0}, {"type": "note_on", "time": 311, "note": 71, "velocity": 116, "channel": 0}, {"type": "note_off", "time": 262, "note": 71, "velocity": 116, "channel": 0}, {"type": "note_on", "time": 27, "note": 66, "velocity": 120, "channel": 0}, {"type": "note_off", "time": 95, "note": 66, "velocity": 120, "channel": 0}, {"type": "note_on", "time": 19, "note": 62, "velocity": 116, "channel": 0}, {"type": "note_off", "time": 84, "note": 62, "velocity": 116, "channel": 0}, {"type": "note_on", "time": 22, "note": 61, "velocity": 120, "channel": 0}, {"type": "note_off", "time": 111, "note": 61, "velocity": 120, "channel": 0}, {"type": "note_on", "time": 177, "note": 70, "velocity": 119, "channel": 0}, {"type": "note_off", "time": 263, "note": 70, "velocity": 119, "channel": 0}, {"type": "note_on", "time": 20, "note": 66, "velocity": 117, "channel": 0}, {"type": "note_off", "time": 98, "note": 66, "velocity": 117, "channel": 0}, {"type": "note_on", "time": 12, "note": 62, "velocity": 115, "channel": 0}, {"type": "note_off", "time": 84, "note": 62, "velocity": 115, "channel": 0}, {"type": "note_on", "time": 12, "note": 60, "velocity": 113, "channel": 0}, {"type": "note_off", "time": 106, "note": 60, "velocity": 113, "channel": 0}, {"type": "note_on", "time": 10, "note": 57, "velocity": 115, "channel": 0}, {"type": "note_off", "time": 237, "note": 57, "velocity": 115, "channel": 0}, {"type": "note_on", "time": 15, "note": 56, "velocity": 118, "channel": 0}, {"type": "note_off", "time": 99, "note": 56, "velocity": 118, "channel": 0}, {"type": "note_on", "time": 8, "note": 57, "velocity": 116, "channel": 0}, {"type": "note_off", "time": 90, "note": 57, "velocity": 116, "channel": 0}, {"type": "note_on", "time": 14, "note": 59, "velocity": 117, "channel": 0}, {"type": "note_off", "time": 88, "note": 59, "velocity": 117, "channel": 0}, {"type": "note_on", "time": 17, "note": 60, "velocity": 119, "channel": 0}, {"type": "note_off", "time": 59, "note": 60, "velocity": 119, "channel": 0}, {"type": "note_on", "time": 27, "note": 62, "velocity": 117, "channel": 0}, {"type": "note_off", "time": 71, "note": 62, "velocity": 117, "channel": 0}, {"type": "note_on", "time": 27, "note": 64, "velocity": 122, "channel": 0}, {"type": "note_off", "time": 68, "note": 64, "velocity": 122, "channel": 0}, {"type": "note_on", "time": 13, "note": 65, "velocity": 115, "channel": 0}, {"type": "note_off", "time": 79, "note": 65, "velocity": 115, "channel": 0}, {"type": "note_on", "time": 13, "note": 67, "velocity": 113, "channel": 0}, {"type": "note_off", "time": 94, "note": 67, "velocity": 113, "channel": 0}, {"type": "note_on", "time": 14, "note": 68, "velocity": 112, "channel": 0}, {"type": "note_off", "time": 85, "note": 68, "velocity": 112, "channel": 0}, {"type": "note_on", "time": 11, "note": 70, "velocity": 117, "channel": 0}, {"type": "note_off", "time": 85, "note": 70, "velocity": 117, "channel": 0}, {"type": "note_on", "time": 22, "note": 71, "velocity": 110, "channel": 0}, {"type": "note_off", "time": 80, "note": 71, "velocity": 110, "channel": 0}, {"type": "note_on", "time": 11, "note": 73, "velocity": 120, "channel": 0}, {"type": "note_off", "time": 61, "note": 73, "velocity": 120, "channel": 0}, {"type": "note_on", "time": 6, "note": 74, "velocity": 113, "channel": 0}, {"type": "note_off", "time": 51, "note": 74, "velocity": 113, "channel": 0}, {"type": "note_on", "time": 8, "note": 76, "velocity": 113, "channel": 0}, {"type": "note_off", "time": 44, "note": 76, "velocity": 113, "channel": 0}, {"type": "note_on", "time": 13, "note": 83, "velocity": 117, "channel": 0}, {"type": "note_off", "time": 74, "note": 83, "velocity": 117, "channel": 0}, {"type": "note_on", "time": 22, "note": 77, "velocity": 120, "channel": 0}, {"type": "note_off", "time": 72, "note": 77, "velocity": 120, "channel": 0}, {"type": "note_on", "time": 17, "note": 83, "velocity": 118, "channel": 0}, {"type": "note_off", "time": 76, "note": 83, "velocity": 118, "channel": 0}, {"type": "note_on", "time": 23, "note": 77, "velocity": 120, "channel": 0}, {"type": "note_off", "time": 72, "note": 77, "velocity": 120, "channel": 0}, {"type": "note_on", "time": 12, "note": 76, "velocity": 122, "channel": 0}, {"type": "note_off", "time": 86, "note": 76, "velocity": 122, "channel": 0}, {"type": "note_on", "time": 18, "note": 75, "velocity": 118, "channel": 0}, {"type": "note_off", "time": 82, "note": 75, "velocity": 118, "channel": 0}, {"type": "note_on", "time": 13, "note": 74, "velocity": 120, "channel": 0}, {"type": "note_off", "time": 83, "note": 74, "velocity": 120, "channel": 0}, {"type": "note_on", "time": 18, "note": 73, "velocity": 124, "channel": 0}, {"type": "note_off", "time": 84, "note": 73, "velocity": 124, "channel": 0}, {"type": "note_on", "time": 16, "note": 71, "velocity": 108, "channel": 0}, {"type": "note_off", "time": 74, "note": 71, "velocity": 108, "channel": 0}, {"type": "note_on", "time": 19, "note": 70, "velocity": 107, "channel": 0}, {"type": "note_off", "time": 22, "note": 70, "velocity": 107, "channel": 0}, {"type": "note_on", "time": 6, "note": 71, "velocity": 102, "channel": 0}, {"type": "note_off", "time": 35, "note": 71, "velocity": 102, "channel": 0}, {"type": "note_on", "time": 12, "note": 70, "velocity": 109, "channel": 0}, {"type": "note_off", "time": 41, "note": 70, "velocity": 109, "channel": 0}, {"type": "note_on", "time": 10, "note": 67, "velocity": 112, "channel": 0}, {"type": "note_off", "time": 49, "note": 67, "velocity": 112, "channel": 0}, {"type": "note_on", "time": 6, "note": 70, "velocity": 114, "channel": 0}, {"type": "note_off", "time": 109, "note": 70, "velocity": 114, "channel": 0}, {"type": "note_on", "time": 24, "note": 70, "velocity": 110, "channel": 0}, {"type": "note_off", "time": 221, "note": 70, "velocity": 110, "channel": 0}, {"type": "note_on", "time": 16, "note": 67, "velocity": 112, "channel": 0}, {"type": "note_off", "time": 116, "note": 67, "velocity": 112, "channel": 0}, {"type": "note_on", "time": 8, "note": 66, "velocity": 118, "channel": 0}, {"type": "note_off", "time": 112, "note": 66, "velocity": 118, "channel": 0}, {"type": "note_on", "time": 459, "note": 64, "velocity": 119, "channel": 0}, {"type": "note_off", "time": 60, "note": 64, "velocity": 119, "channel": 0}, {"type": "note_on", "time": 13, "note": 66, "velocity": 119, "channel": 0}, {"type": "note_off", "time": 38, "note": 66, "velocity": 119, "channel": 0}, {"type": "note_on", "time": 12, "note": 67, "velocity": 115, "channel": 0}, {"type": "note_off", "time": 78, "note": 67, "velocity": 115, "channel": 0}, {"type": "note_on", "time": 10, "note": 64, "velocity": 119, "channel": 0}, {"type": "note_off", "time": 44, "note": 64, "velocity": 119, "channel": 0}, {"type": "note_on", "time": 7, "note": 66, "velocity": 119, "channel": 0}, {"type": "note_off", "time": 107, "note": 66, "velocity": 119, "channel": 0}, {"type": "note_on", "time": 7, "note": 67, "velocity": 114, "channel": 0}, {"type": "note_off", "time": 176, "note": 67, "velocity": 114, "channel": 0}, {"type": "note_on", "time": 7, "note": 70, "velocity": 118, "channel": 0}, {"type": "note_off", "time": 186, "note": 70, "velocity": 118, "channel": 0}, {"type": "note_on", "time": 9, "note": 67, "velocity": 111, "channel": 0}, {"type": "note_off", "time": 183, "note": 67, "velocity": 111, "channel": 0}, {"type": "note_on", "time": 11, "note": 66, "velocity": 115, "channel": 0}, {"type": "note_off", "time": 246, "note": 66, "velocity": 115, "channel": 0}, {"type": "note_on", "time": 30, "note": 67, "velocity": 117, "channel": 0}, {"type": "note_off", "time": 115, "note": 67, "velocity": 117, "channel": 0}, {"type": "note_on", "time": 33, "note": 70, "velocity": 118, "channel": 0}, {"type": "note_off", "time": 77, "note": 70, "velocity": 118, "channel": 0}, {"type": "note_on", "time": 94, "note": 67, "velocity": 115, "channel": 0}, {"type": "note_off", "time": 266, "note": 67, "velocity": 115, "channel": 0}, {"type": "note_on", "time": 17, "note": 65, "velocity": 113, "channel": 0}, {"type": "note_off", "time": 92, "note": 65, "velocity": 113, "channel": 0}, {"type": "note_on", "time": 97, "note": 68, "velocity": 110, "channel": 0}, {"type": "note_off", "time": 97, "note": 68, "velocity": 110, "channel": 0}, {"type": "note_on", "time": 9, "note": 72, "velocity": 123, "channel": 0}, {"type": "note_off", "time": 78, "note": 72, "velocity": 123, "channel": 0}, {"type": "note_on", "time": 8, "note": 73, "velocity": 120, "channel": 0}, {"type": "note_off", "time": 90, "note": 73, "velocity": 120, "channel": 0}, {"type": "note_on", "time": 8, "note": 76, "velocity": 122, "channel": 0}, {"type": "note_off", "time": 73, "note": 76, "velocity": 122, "channel": 0}, {"type": "note_on", "time": 14, "note": 79, "velocity": 114, "channel": 0}, {"type": "note_off", "time": 81, "note": 79, "velocity": 114, "channel": 0}, {"type": "note_on", "time": 10, "note": 78, "velocity": 115, "channel": 0}, {"type": "note_off", "time": 79, "note": 78, "velocity": 115, "channel": 0}, {"type": "note_on", "time": 11, "note": 77, "velocity": 121, "channel": 0}, {"type": "note_off", "time": 86, "note": 77, "velocity": 121, "channel": 0}, {"type": "note_on", "time": 5, "note": 76, "velocity": 126, "channel": 0}, {"type": "note_off", "time": 81, "note": 76, "velocity": 126, "channel": 0}, {"type": "note_on", "time": 7, "note": 75, "velocity": 121, "channel": 0}, {"type": "note_off", "time": 91, "note": 75, "velocity": 121, "channel": 0}, {"type": "note_on", "time": 8, "note": 74, "velocity": 121, "channel": 0}, {"type": "note_off", "time": 75, "note": 74, "velocity": 121, "channel": 0}, {"type": "note_on", "time": 13, "note": 73, "velocity": 124, "channel": 0}, {"type": "note_off", "time": 81, "note": 73, "velocity": 124, "channel": 0}, {"type": "note_on", "time": 28, "note": 71, "velocity": 107, "channel": 0}, {"type": "note_off", "time": 59, "note": 71, "velocity": 107, "channel": 0}, {"type": "note_on", "time": 37, "note": 66, "velocity": 108, "channel": 0}, {"type": "note_off", "time": 45, "note": 66, "velocity": 108, "channel": 0}, {"type": "note_on", "time": 5, "note": 68, "velocity": 100, "channel": 0}, {"type": "note_off", "time": 31, "note": 68, "velocity": 100, "channel": 0}, {"type": "note_on", "time": 10, "note": 66, "velocity": 101, "channel": 0}, {"type": "note_off", "time": 36, "note": 66, "velocity": 101, "channel": 0}, {"type": "note_on", "time": 3, "note": 62, "velocity": 112, "channel": 0}, {"type": "note_off", "time": 34, "note": 62, "velocity": 112, "channel": 0}, {"type": "note_on", "time": 32, "note": 65, "velocity": 105, "channel": 0}, {"type": "note_off", "time": 228, "note": 65, "velocity": 105, "channel": 0}, {"type": "note_on", "time": 145, "note": 65, "velocity": 118, "channel": 0}, {"type": "note_off", "time": 103, "note": 65, "velocity": 118, "channel": 0}, {"type": "note_on", "time": 384, "note": 68, "velocity": 119, "channel": 0}, {"type": "note_off", "time": 268, "note": 68, "velocity": 119, "channel": 0}, {"type": "note_on", "time": 26, "note": 75, "velocity": 123, "channel": 0}, {"type": "note_off", "time": 98, "note": 75, "velocity": 123, "channel": 0}, {"type": "note_on", "time": 11, "note": 76, "velocity": 122, "channel": 0}, {"type": "note_off", "time": 91, "note": 76, "velocity": 122, "channel": 0}, {"type": "note_on", "time": 13, "note": 75, "velocity": 116, "channel": 0}, {"type": "note_off", "time": 78, "note": 75, "velocity": 116, "channel": 0}, {"type": "note_on", "time": 111, "note": 75, "velocity": 123, "channel": 0}, {"type": "note_off", "time": 143, "note": 75, "velocity": 123, "channel": 0}, {"type": "note_on", "time": 15, "note": 70, "velocity": 118, "channel": 0}, {"type": "note_off", "time": 163, "note": 70, "velocity": 118, "channel": 0}, {"type": "note_on", "time": 17, "note": 70, "velocity": 110, "channel": 0}, {"type": "note_off", "time": 713, "note": 70, "velocity": 110, "channel": 0}, {"type": "note_on", "time": 7, "note": 70, "velocity": 111, "channel": 0}, {"type": "note_off", "time": 90, "note": 70, "velocity": 111, "channel": 0}, {"type": "note_on", "time": 12, "note": 75, "velocity": 119, "channel": 0}, {"type": "note_off", "time": 18, "note": 75, "velocity": 119, "channel": 0}, {"type": "note_on", "time": 2, "note": 76, "velocity": 121, "channel": 0}, {"type": "note_off", "time": 65, "note": 76, "velocity": 121, "channel": 0}, {"type": "note_on", "time": 71, "note": 75, "velocity": 120, "channel": 0}, {"type": "note_off", "time": 69, "note": 75, "velocity": 120, "channel": 0}, {"type": "note_on", "time": 81, "note": 70, "velocity": 104, "channel": 0}, {"type": "note_off", "time": 100, "note": 70, "velocity": 104, "channel": 0}, {"type": "note_on", "time": 28, "note": 75, "velocity": 118, "channel": 0}, {"type": "note_off", "time": 96, "note": 75, "velocity": 118, "channel": 0}, {"type": "note_on", "time": 28, "note": 69, "velocity": 108, "channel": 0}, {"type": "note_off", "time": 140, "note": 69, "velocity": 108, "channel": 0}, {"type": "note_on", "time": 4, "note": 68, "velocity": 108, "channel": 0}, {"type": "note_off", "time": 286, "note": 68, "velocity": 108, "channel": 0}, {"type": "note_on", "time": 56, "note": 74, "velocity": 117, "channel": 0}, {"type": "note_off", "time": 100, "note": 74, "velocity": 117, "channel": 0}, {"type": "note_on", "time": 32, "note": 73, "velocity": 120, "channel": 0}, {"type": "note_off", "time": 74, "note": 73, "velocity": 120, "channel": 0}, {"type": "note_on", "time": 360, "note": 70, "velocity": 118, "channel": 0}, {"type": "note_off", "time": 104, "note": 70, "velocity": 118, "channel": 0}, {"type": "note_on", "time": 4, "note": 67, "velocity": 109, "channel": 0}, {"type": "note_off", "time": 79, "note": 67, "velocity": 109, "channel": 0}, {"type": "note_on", "time": 9, "note": 65, "velocity": 107, "channel": 0}, {"type": "note_off", "time": 87, "note": 65, "velocity": 107, "channel": 0}, {"type": "note_on", "time": 14, "note": 66, "velocity": 115, "channel": 0}, {"type": "note_off", "time": 339, "note": 66, "velocity": 115, "channel": 0}, {"type": "note_on", "time": 39, "note": 72, "velocity": 124, "channel": 0}, {"type": "note_off", "time": 135, "note": 72, "velocity": 124, "channel": 0}, {"type": "note_on", "time": 19, "note": 64, "velocity": 108, "channel": 0}, {"type": "note_off", "time": 224, "note": 64, "velocity": 108, "channel": 0}, {"type": "note_on", "time": 10, "note": 62, "velocity": 108, "channel": 0}, {"type": "note_off", "time": 133, "note": 62, "velocity": 108, "channel": 0}, {"type": "note_on", "time": 56, "note": 62, "velocity": 104, "channel": 0}, {"type": "note_off", "time": 191, "note": 62, "velocity": 104, "channel": 0}, {"type": "note_on", "time": 10, "note": 70, "velocity": 115, "channel": 0}, {"type": "note_off", "time": 105, "note": 70, "velocity": 115, "channel": 0}, {"type": "note_on", "time": 18, "note": 62, "velocity": 112, "channel": 0}, {"type": "note_off", "time": 236, "note": 62, "velocity": 112, "channel": 0}, {"type": "note_on", "time": 8, "note": 61, "velocity": 118, "channel": 0}, {"type": "note_off", "time": 123, "note": 61, "velocity": 118, "channel": 0}, {"type": "end_of_track", "time": 0}]]}