{"ticks_per_beat": 2520, "tracks": [[{"type": "track_name", "name": "Melody", "time": 0}, {"type": "set_tempo", "tempo": 576923, "time": 0}, {"type": "key_signature", "key": "Db", "time": 0}, {"type": "time_signature", "numerator": 3, "denominator": 4, "clocks_per_click": 24, "notated_32nd_notes_per_beat": 8, "time": 0}, {"type": "note_on", "time": 17267, "note": 72, "velocity": 112, "channel": 0}, {"type": "note_off", "time": 532, "note": 72, "velocity": 112, "channel": 0}, {"type": "note_on", "time": 76, "note": 73, "velocity": 111, "channel": 0}, {"type": "note_off", "time": 684, "note": 73, "velocity": 111, "channel": 0}, {"type": "note_on", "time": 228, "note": 69, "velocity": 115, "channel": 0}, {"type": "note_off", "time": 836, "note": 69, "velocity": 115, "channel": 0}, {"type": "note_on", "time": 329, "note": 72, "velocity": 115, "channel": 0}, {"type": "note_off", "time": 557, "note": 72, "velocity": 115, "channel": 0}, {"type": "note_on", "time": 50, "note": 70, "velocity": 112, "channel": 0}, {"type": "note_off", "time": 583, "note": 70, "velocity": 112, "channel": 0}, {"type": "note_on", "time": 126, "note": 65, "velocity": 108, "channel": 0}, {"type": "note_off", "time": 456, "note": 65, "velocity": 108, "channel": 0}, {"type": "note_on", "time": 25, "note": 63, "velocity": 116, "channel": 0}, {"type": "note_off", "time": 684, "note": 63, "velocity": 116, "channel": 0}, {"type": "note_on", "time": 50, "note": 58, "velocity": 93, "channel": 0}, {"type": "note_off", "time": 431, "note": 58, "velocity": 93, "channel": 0}, {"type": "note_on", "time": 101, "note": 67, "velocity": 111, "channel": 0}, {"type": "note_off", "time": 557, "note": 67, "velocity": 111, "channel": 0}, {"type": "note_on", "time": 0, "note": 70, "velocity": 109, "channel": 0}, {"type": "note_off", "time": 507, "note": 70, "velocity": 109, "channel": 0}, {"type": "note_on", "time": 101, "note": 69, "velocity": 115, "channel": 0}, {"type": "note_off", "time": 1749, "note": 69, "velocity": 115, "channel": 0}, {"type": "note_on", "time": 50, "note": 65, "velocity": 110, "channel": 0}, {"type": "note_off", "time": 786, "note": 65, "velocity": 110, "channel": 0}, {"type": "note_on", "time": 709, "note": 69, "velocity": 119, "channel": 0}, {"type": "note_off", "time": 507, "note": 69, "velocity": 119, "channel": 0}, {"type": "note_on", "time": 25, "note": 67, "velocity": 109, "channel": 0}, {"type": "note_off", "time": 659, "note": 67, "velocity": 109, "channel": 0}, {"type": "note_on", "time": 25, "note": 63, "velocity": 112, "channel": 0}, {"type": "note_off", "time": 1014, "note": 63, "velocity": 112, "channel": 0}, {"type": "note_on", "time": 278, "note": 67, "velocity": 113, "channel": 0}, {"type": "note_off", "time": 354, "note": 67, "velocity": 113, "channel": 0}, {"type": "note_on", "time": 126, "note": 65, "velocity": 113, "channel": 0}, {"type": "note_off", "time": 532, "note": 65, "velocity": 113, "channel": 0}, {"type": "note_on", "time": 126, "note": 61, "velocity": 117, "channel": 0}, {"type": "note_off", "time": 532, "note": 61, "velocity": 117, "channel": 0}, {"type": "note_on", "time": 76, "note": 58, "velocity": 105, "channel": 0}, {"type": "note_off", "time": 557, "note": 58, "velocity": 105, "channel": 0}, {"type": "note_on", "time": 126, "note": 53, "velocity": 107, "channel": 0}, {"type": "note_off", "time": 405, "note": 53, "velocity": 107, "channel": 0}, {"type": "note_on", "time": 101, "note": 63, "velocity": 115, "channel": 0}, {"type": "note_off", "time": 532, "note": 63, "velocity": 115, "channel": 0}, {"type": "note_on", "time": 202, "note": 60, "velocity": 111, "channel": 0}, {"type": "note_off", "time": 431, "note": 60, "velocity": 111, "channel": 0}, {"type": "note_on", "time": 304, "note": 57, "velocity": 108, "channel": 0}, {"type": "note_off", "time": 456, "note": 57, "velocity": 108, "channel": 0}, {"type": "note_on", "time": 50, "note": 60, "velocity": 114, "channel": 0}, {"type": "note_off", "time": 583, "note": 60, "velocity": 114, "channel": 0}, {"type": "note_on", "time": 152, "note": 55, "velocity": 100, "channel": 0}, {"type": "note_off", "time": 760, "note": 55, "velocity": 100, "channel": 0}, {"type": "note_on", "time": 329, "note": 57, "velocity": 110, "channel": 0}, {"type": "note_off", "time": 786, "note": 57, "velocity": 110, "channel": 0}, {"type": "note_on", "time": 709, "note": 53, "velocity": 103, "channel": 0}, {"type": "note_off", "time": 608, "note": 53, "velocity": 103, "channel": 0}, {"type": "note_on", "time": 50, "note": 55, "velocity": 93, "channel": 0}, {"type": "note_off", "time": 1572, "note": 55, "velocity": 93, "channel": 0}, {"type": "note_on", "time": 13261, "note": 73, "velocity": 112, "channel": 0}, {"type": "note_off", "time": 507, "note": 73, "velocity": 112, "channel": 0}, {"type": "note_on", "time": 583, "note": 77, "velocity": 124, "channel": 0}, {"type": "note_off", "time": 557, "note": 77, "velocity": 124, "channel": 0}, {"type": "note_on", "time": 101, "note": 75, "velocity": 120, "channel": 0}, {"type": "note_off", "time": 988, "note": 75, "velocity": 120, "channel": 0}, {"type": "note_on", "time": 76, "note": 73, "velocity": 117, "channel": 0}, {"type": "note_off", "time": 735, "note": 73, "velocity": 117, "channel": 0}, {"type": "note_on", "time": 177, "note": 72, "velocity": 110, "channel": 0}, {"type": "note_off", "time": 3600, "note": 72, "velocity": 110, "channel": 0}, {"type": "note_on", "time": 278, "note": 68, "velocity": 114, "channel": 0}, {"type": "note_off", "time": 456, "note": 68, "velocity": 114, "channel": 0}, {"type": "note_on", "time": 583, "note": 72, "velocity": 114, "channel": 0}, {"type": "note_off", "time": 532, "note": 72, "velocity": 114, "channel": 0}, {"type": "note_on", "time": 101, "note": 70, "velocity": 111, "channel": 0}, {"type": "note_off", "time": 786, "note": 70, "velocity": 111, "channel": 0}, {"type": "note_on", "time": 101, "note": 65, "velocity": 104, "channel": 0}, {"type": "note_off", "time": 304, "note": 65, "velocity": 104, "channel": 0}, {"type": "note_on", "time": 0, "note": 68, "velocity": 114, "channel": 0}, {"type": "note_off", "time": 709, "note": 68, "velocity": 114, "channel": 0}, {"type": "note_on", "time": 101, "note": 67, "velocity": 113, "channel": 0}, {"type": "note_off", "time": 405, "note": 67, "velocity": 113, "channel": 0}, {"type": "note_on", "time": 228, "note": 63, "velocity": 115, "channel": 0}, {"type": "note_off", "time": 481, "note": 63, "velocity": 115, "channel": 0}, {"type": "note_on", "time": 76, "note": 67, "velocity": 114, "channel": 0}, {"type": "note_off", "time": 481, "note": 67, "velocity": 114, "channel": 0}, {"type": "note_on", "time": 50, "note": 65, "velocity": 114, "channel": 0}, {"type": "note_off", "time": 532, "note": 65, "velocity": 114, "channel": 0}, {"type": "note_on", "time": 278, "note": 61, "velocity": 117, "channel": 0}, {"type": "note_off", "time": 557, "note": 61, "velocity": 117, "channel": 0}, {"type": "note_on", "time": 76, "note": 58, "velocity": 106, "channel": 0}, {"type": "note_off", "time": 253, "note": 58, "velocity": 106, "channel": 0}, {"type": "note_on", "time": 101, "note": 53, "velocity": 108, "channel": 0}, {"type": "note_off", "time": 253, "note": 53, "velocity": 108, "channel": 0}, {"type": "note_on", "time": 354, "note": 64, "velocity": 123, "channel": 0}, {"type": "note_off", "time": 507, "note": 64, "velocity": 123, "channel": 0}, {"type": "note_on", "time": 101, "note": 69, "velocity": 110, "channel": 0}, {"type": "note_off", "time": 532, "note": 69, "velocity": 110, "channel": 0}, {"type": "note_on", "time": 50, "note": 66, "velocity": 108, "channel": 0}, {"type": "note_off", "time": 608, "note": 66, "velocity": 108, "channel": 0}, {"type": "note_on", "time": 152, "note": 62, "velocity": 119, "channel": 0}, {"type": "note_off", "time": 507, "note": 62, "velocity": 119, "channel": 0}, {"type": "note_on", "time": 76, "note": 59, "velocity": 107, "channel": 0}, {"type": "note_off", "time": 684, "note": 59, "velocity": 107, "channel": 0}, {"type": "note_on", "time": 633, "note": 64, "velocity": 122, "channel": 0}, {"type": "note_off", "time": 532, "note": 64, "velocity": 122, "channel": 0}, {"type": "note_on", "time": 170, "note": 62, "velocity": 116, "channel": 0}, {"type": "note_off", "time": 499, "note": 62, "velocity": 116, "channel": 0}, {"type": "note_on", "time": 71, "note": 59, "velocity": 108, "channel": 0}, {"type": "note_off", "time": 463, "note": 59, "velocity": 108, "channel": 0}, {"type": "note_on", "time": 35, "note": 63, "velocity": 115, "channel": 0}, {"type": "note_off", "time": 1283, "note": 63, "velocity": 115, "channel": 0}, {"type": "note_on", "time": 0, "note": 62, "velocity": 114, "channel": 0}, {"type": "note_off", "time": 499, "note": 62, "velocity": 114, "channel": 0}, {"type": "note_on", "time": 178, "note": 57, "velocity": 106, "channel": 0}, {"type": "note_off", "time": 552, "note": 57, "velocity": 106, "channel": 0}, {"type": "note_on", "time": 124, "note": 62, "velocity": 116, "channel": 0}, {"type": "note_off", "time": 641, "note": 62, "velocity": 116, "channel": 0}, {"type": "note_on", "time": 160, "note": 61, "velocity": 113, "channel": 0}, {"type": "note_off", "time": 427, "note": 61, "velocity": 113, "channel": 0}, {"type": "note_on", "time": 71, "note": 63, "velocity": 113, "channel": 0}, {"type": "note_off", "time": 517, "note": 63, "velocity": 113, "channel": 0}, {"type": "note_on", "time": 71, "note": 59, "velocity": 110, "channel": 0}, {"type": "note_off", "time": 463, "note": 59, "velocity": 110, "channel": 0}, {"type": "note_on", "time": 142, "note": 57, "velocity": 97, "channel": 0}, {"type": "note_off", "time": 534, "note": 57, "velocity": 97, "channel": 0}, {"type": "note_on", "time": 124, "note": 56, "velocity": 105, "channel": 0}, {"type": "note_off", "time": 1283, "note": 56, "velocity": 105, "channel": 0}, {"type": "note_on", "time": 71, "note": 53, "velocity": 104, "channel": 0}, {"type": "note_off", "time": 463, "note": 53, "velocity": 104, "channel": 0}, {"type": "note_on", "time": 213, "note": 58, "velocity": 101, "channel": 0}, {"type": "note_off", "time": 2585, "note": 58, "velocity": 101, "channel": 0}, {"type": "note_on", "time": 53, "note": 56, "velocity": 96, "channel": 0}, {"type": "note_off", "time": 481, "note": 56, "velocity": 96, "channel": 0}, {"type": "note_on", "time": 142, "note": 61, "velocity": 113, "channel": 0}, {"type": "note_off", "time": 730, "note": 61, "velocity": 113, "channel": 0}, {"type": "note_on", "time": 320, "note": 63, "velocity": 120, "channel": 0}, {"type": "note_off", "time": 802, "note": 63, "velocity": 120, "channel": 0}, {"type": "note_on", "time": 2692, "note": 61, "velocity": 113, "channel": 0}, {"type": "note_off", "time": 249, "note": 61, "velocity": 113, "channel": 0}, {"type": "note_on", "time": 178, "note": 63, "velocity": 120, "channel": 0}, {"type": "note_off", "time": 588, "note": 63, "velocity": 120, "channel": 0}, {"type": "note_on", "time": 213, "note": 65, "velocity": 112, "channel": 0}, {"type": "note_off", "time": 410, "note": 65, "velocity": 112, "channel": 0}, {"type": "note_on", "time": 53, "note": 68, "velocity": 118, "channel": 0}, {"type": "note_off", "time": 410, "note": 68, "velocity": 118, "channel": 0}, {"type": "note_on", "time": 196, "note": 70, "velocity": 116, "channel": 0}, {"type": "note_off", "time": 552, "note": 70, "velocity": 116, "channel": 0}, {"type": "note_on", "time": 106, "note": 73, "velocity": 119, "channel": 0}, {"type": "note_off", "time": 534, "note": 73, "velocity": 119, "channel": 0}, {"type": "note_on", "time": 160, "note": 74, "velocity": 122, "channel": 0}, {"type": "note_off", "time": 463, "note": 74, "velocity": 122, "channel": 0}, {"type": "note_on", "time": 35, "note": 75, "velocity": 127, "channel": 0}, {"type": "note_off", "time": 356, "note": 75, "velocity": 127, "channel": 0}, {"type": "note_on", "time": 17, "note": 76, "velocity": 123, "channel": 0}, {"type": "note_off", "time": 356, "note": 76, "velocity": 123, "channel": 0}, {"type": "note_on", "time": 17, "note": 77, "velocity": 119, "channel": 0}, {"type": "note_off", "time": 445, "note": 77, "velocity": 119, "channel": 0}, {"type": "note_on", "time": 106, "note": 75, "velocity": 119, "channel": 0}, {"type": "note_off", "time": 1051, "note": 75, "velocity": 119, "channel": 0}, {"type": "note_on", "time": 35, "note": 74, "velocity": 116, "channel": 0}, {"type": "note_off", "time": 1978, "note": 74, "velocity": 116, "channel": 0}, {"type": "note_on", "time": 17, "note": 76, "velocity": 119, "channel": 0}, {"type": "note_off", "time": 606, "note": 76, "velocity": 119, "channel": 0}, {"type": "note_on", "time": 17, "note": 72, "velocity": 113, "channel": 0}, {"type": "note_off", "time": 1105, "note": 72, "velocity": 113, "channel": 0}, {"type": "note_on", "time": 231, "note": 73, "velocity": 117, "channel": 0}, {"type": "note_off", "time": 552, "note": 73, "velocity": 117, "channel": 0}, {"type": "note_on", "time": 89, "note": 71, "velocity": 113, "channel": 0}, {"type": "note_off", "time": 410, "note": 71, "velocity": 113, "channel": 0}, {"type": "note_on", "time": 160, "note": 66, "velocity": 110, "channel": 0}, {"type": "note_off", "time": 517, "note": 66, "velocity": 110, "channel": 0}, {"type": "note_on", "time": 142, "note": 64, "velocity": 109, "channel": 0}, {"type": "note_off", "time": 410, "note": 64, "velocity": 109, "channel": 0}, {"type": "note_on", "time": 249, "note": 69, "velocity": 123, "channel": 0}, {"type": "note_off", "time": 570, "note": 69, "velocity": 123, "channel": 0}, {"type": "note_on", "time": 71, "note": 72, "velocity": 114, "channel": 0}, {"type": "note_off", "time": 410, "note": 72, "velocity": 114, "channel": 0}, {"type": "note_on", "time": 35, "note": 71, "velocity": 111, "channel": 0}, {"type": "note_off", "time": 1872, "note": 71, "velocity": 111, "channel": 0}, {"type": "note_on", "time": 35, "note": 69, "velocity": 114, "channel": 0}, {"type": "note_off", "time": 606, "note": 69, "velocity": 114, "channel": 0}, {"type": "note_on", "time": 35, "note": 70, "velocity": 111, "channel": 0}, {"type": "note_off", "time": 445, "note": 70, "velocity": 111, "channel": 0}, {"type": "note_on", "time": 71, "note": 69, "velocity": 111, "channel": 0}, {"type": "note_off", "time": 552, "note": 69, "velocity": 111, "channel": 0}, {"type": "note_on", "time": 53, "note": 68, "velocity": 112, "channel": 0}, {"type": "note_off", "time": 624, "note": 68, "velocity": 112, "channel": 0}, {"type": "note_on", "time": 106, "note": 70, "velocity": 109, "channel": 0}, {"type": "note_off", "time": 641, "note": 70, "velocity": 109, "channel": 0}, {"type": "note_on", "time": 53, "note": 71, "velocity": 101, "channel": 0}, {"type": "note_off", "time": 517, "note": 71, "velocity": 101, "channel": 0}, {"type": "note_on", "time": 106, "note": 70, "velocity": 109, "channel": 0}, {"type": "note_off", "time": 481, "note": 70, "velocity": 109, "channel": 0}, {"type": "note_on", "time": 196, "note": 68, "velocity": 110, "channel": 0}, {"type": "note_off", "time": 499, "note": 68, "velocity": 110, "channel": 0}, {"type": "note_on", "time": 124, "note": 65, "velocity": 113, "channel": 0}, {"type": "note_off", "time": 552, "note": 65, "velocity": 113, "channel": 0}, {"type": "note_on", "time": 17, "note": 63, "velocity": 111, "channel": 0}, {"type": "note_off", "time": 517, "note": 63, "velocity": 111, "channel": 0}, {"type": "note_on", "time": 92, "note": 58, "velocity": 91, "channel": 0}, {"type": "note_off", "time": 380, "note": 58, "velocity": 91, "channel": 0}, {"type": "note_on", "time": 133, "note": 67, "velocity": 114, "channel": 0}, {"type": "note_off", "time": 570, "note": 67, "velocity": 114, "channel": 0}, {"type": "note_on", "time": 71, "note": 70, "velocity": 109, "channel": 0}, {"type": "note_off", "time": 481, "note": 70, "velocity": 109, "channel": 0}, {"type": "note_on", "time": 124, "note": 68, "velocity": 110, "channel": 0}, {"type": "note_off", "time": 624, "note": 68, "velocity": 110, "channel": 0}, {"type": "note_on", "time": 196, "note": 65, "velocity": 112, "channel": 0}, {"type": "note_off", "time": 499, "note": 65, "velocity": 112, "channel": 0}, {"type": "note_on", "time": 17, "note": 63, "velocity": 110, "channel": 0}, {"type": "note_off", "time": 588, "note": 63, "velocity": 110, "channel": 0}, {"type": "note_on", "time": 178, "note": 58, "velocity": 103, "channel": 0}, {"type": "note_off", "time": 392, "note": 58, "velocity": 103, "channel": 0}, {"type": "note_on", "time": 142, "note": 67, "velocity": 105, "channel": 0}, {"type": "note_off", "time": 1230, "note": 67, "velocity": 105, "channel": 0}, {"type": "note_on", "time": 35, "note": 66, "velocity": 105, "channel": 0}, {"type": "note_off", "time": 730, "note": 66, "velocity": 105, "channel": 0}, {"type": "note_on", "time": 142, "note": 62, "velocity": 112, "channel": 0}, {"type": "note_off", "time": 659, "note": 62, "velocity": 112, "channel": 0}, {"type": "note_on", "time": 3120, "note": 66, "velocity": 116, "channel": 0}, {"type": "note_off", "time": 304, "note": 66, "velocity": 116, "channel": 0}, {"type": "note_on", "time": 69, "note": 65, "velocity": 117, "channel": 0}, {"type": "note_off", "time": 606, "note": 65, "velocity": 117, "channel": 0}, {"type": "note_on", "time": 53, "note": 64, "velocity": 121, "channel": 0}, {"type": "note_off", "time": 499, "note": 64, "velocity": 121, "channel": 0}, {"type": "note_on", "time": 71, "note": 63, "velocity": 113, "channel": 0}, {"type": "note_off", "time": 588, "note": 63, "velocity": 113, "channel": 0}, {"type": "note_on", "time": 106, "note": 61, "velocity": 118, "channel": 0}, {"type": "note_off", "time": 588, "note": 61, "velocity": 118, "channel": 0}, {"type": "note_on", "time": 713, "note": 61, "velocity": 118, "channel": 0}, {"type": "note_off", "time": 534, "note": 61, "velocity": 118, "channel": 0}, {"type": "note_on", "time": 106, "note": 60, "velocity": 112, "channel": 0}, {"type": "note_off", "time": 606, "note": 60, "velocity": 112, "channel": 0}, {"type": "note_on", "time": 659, "note": 61, "velocity": 117, "channel": 0}, {"type": "note_off", "time": 606, "note": 61, "velocity": 117, "channel": 0}, {"type": "note_on", "time": 89, "note": 58, "velocity": 109, "channel": 0}, {"type": "note_off", "time": 463, "note": 58, "velocity": 109, "channel": 0}, {"type": "note_on", "time": 160, "note": 53, "velocity": 106, "channel": 0}, {"type": "note_off", "time": 445, "note": 53, "velocity": 106, "channel": 0}, {"type": "note_on", "time": 35, "note": 60, "velocity": 108, "channel": 0}, {"type": "note_off", "time": 517, "note": 60, "velocity": 108, "channel": 0}, {"type": "note_on", "time": 17, "note": 58, "velocity": 107, "channel": 0}, {"type": "note_off", "time": 1248, "note": 58, "velocity": 107, "channel": 0}, {"type": "note_on", "time": 89, "note": 56, "velocity": 106, "channel": 0}, {"type": "note_off", "time": 641, "note": 56, "velocity": 106, "channel": 0}, {"type": "note_on", "time": 17, "note": 55, "velocity": 103, "channel": 0}, {"type": "note_off", "time": 517, "note": 55, "velocity": 103, "channel": 0}, {"type": "note_on", "time": 249, "note": 58, "velocity": 102, "channel": 0}, {"type": "note_off", "time": 285, "note": 58, "velocity": 102, "channel": 0}, {"type": "note_on", "time": 17, "note": 61, "velocity": 107, "channel": 0}, {"type": "note_off", "time": 213, "note": 61, "velocity": 107, "channel": 0}, {"type": "note_on", "time": 231, "note": 65, "velocity": 112, "channel": 0}, {"type": "note_off", "time": 356, "note": 65, "velocity": 112, "channel": 0}, {"type": "note_on", "time": 17, "note": 61, "velocity": 115, "channel": 0}, {"type": "note_off", "time": 552, "note": 61, "velocity": 115, "channel": 0}, {"type": "note_on", "time": 17, "note": 63, "velocity": 113, "channel": 0}, {"type": "note_off", "time": 624, "note": 63, "velocity": 113, "channel": 0}, {"type": "note_on", "time": 35, "note": 65, "velocity": 113, "channel": 0}, {"type": "note_off", "time": 713, "note": 65, "velocity": 113, "channel": 0}, {"type": "note_on", "time": 213, "note": 70, "velocity": 95, "channel": 0}, {"type": "note_off", "time": 231, "note": 70, "velocity": 95, "channel": 0}, {"type": "note_on", "time": 156, "note": 73, "velocity": 110, "channel": 0}, {"type": "note_off", "time": 570, "note": 73, "velocity": 110, "channel": 0}, {"type": "note_on", "time": 271, "note": 67, "velocity": 99, "channel": 0}, {"type": "note_off", "time": 320, "note": 67, "velocity": 99, "channel": 0}, {"type": "note_on", "time": 17, "note": 70, "velocity": 113, "channel": 0}, {"type": "note_off", "time": 481, "note": 70, "velocity": 113, "channel": 0}, {"type": "note_on", "time": 285, "note": 73, "velocity": 109, "channel": 0}, {"type": "note_off", "time": 410, "note": 73, "velocity": 109, "channel": 0}, {"type": "note_on", "time": 17, "note": 74, "velocity": 114, "channel": 0}, {"type": "note_off", "time": 677, "note": 74, "velocity": 114, "channel": 0}, {"type": "note_on", "time": 71, "note": 76, "velocity": 118, "channel": 0}, {"type": "note_off", "time": 499, "note": 76, "velocity": 118, "channel": 0}, {"type": "note_on", "time": 356, "note": 77, "velocity": 107, "channel": 0}, {"type": "note_off", "time": 499, "note": 77, "velocity": 107, "channel": 0}, {"type": "note_on", "time": 21, "note": 76, "velocity": 120, "channel": 0}, {"type": "note_off", "time": 481, "note": 76, "velocity": 120, "channel": 0}, {"type": "note_on", "time": 25, "note": 75, "velocity": 113, "channel": 0}, {"type": "note_off", "time": 215, "note": 75, "velocity": 113, "channel": 0}, {"type": "note_on", "time": 38, "note": 74, "velocity": 115, "channel": 0}, {"type": "note_off", "time": 266, "note": 74, "velocity": 115, "channel": 0}, {"type": "note_on", "time": 92, "note": 73, "velocity": 107, "channel": 0}, {"type": "note_off", "time": 338, "note": 73, "velocity": 107, "channel": 0}, {"type": "note_on", "time": 7381, "note": 72, "velocity": 112, "channel": 0}, {"type": "note_off", "time": 2567, "note": 72, "velocity": 112, "channel": 0}, {"type": "note_on", "time": 89, "note": 71, "velocity": 114, "channel": 0}, {"type": "note_off", "time": 427, "note": 71, "velocity": 114, "channel": 0}, {"type": "note_on", "time": 142, "note": 70, "velocity": 112, "channel": 0}, {"type": "note_off", "time": 588, "note": 70, "velocity": 112, "channel": 0}, {"type": "note_on", "time": 53, "note": 69, "velocity": 113, "channel": 0}, {"type": "note_off", "time": 427, "note": 69, "velocity": 113, "channel": 0}, {"type": "note_on", "time": 35, "note": 68, "velocity": 113, "channel": 0}, {"type": "note_off", "time": 1978, "note": 68, "velocity": 113, "channel": 0}, {"type": "note_on", "time": 142, "note": 67, "velocity": 111, "channel": 0}, {"type": "note_off", "time": 1248, "note": 67, "velocity": 111, "channel": 0}, {"type": "note_on", "time": 142, "note": 66, "velocity": 111, "channel": 0}, {"type": "note_off", "time": 463, "note": 66, "velocity": 111, "channel": 0}, {"type": "note_on", "time": 106, "note": 65, "velocity": 113, "channel": 0}, {"type": "note_off", "time": 410, "note": 65, "velocity": 113, "channel": 0}, {"type": "note_on", "time": 142, "note": 64, "velocity": 120, "channel": 0}, {"type": "note_off", "time": 463, "note": 64, "velocity": 120, "channel": 0}, {"type": "note_on", "time": 142, "note": 63, "velocity": 116, "channel": 0}, {"type": "note_off", "time": 338, "note": 63, "velocity": 116, "channel": 0}, {"type": "note_on", "time": 124, "note": 62, "velocity": 117, "channel": 0}, {"type": "note_off", "time": 730, "note": 62, "velocity": 117, "channel": 0}, {"type": "note_on", "time": 106, "note": 61, "velocity": 113, "channel": 0}, {"type": "note_off", "time": 392, "note": 61, "velocity": 113, "channel": 0}, {"type": "note_on", "time": 160, "note": 67, "velocity": 107, "channel": 0}, {"type": "note_off", "time": 427, "note": 67, "velocity": 107, "channel": 0}, {"type": "note_on", "time": 109, "note": 61, "velocity": 112, "channel": 0}, {"type": "note_off", "time": 659, "note": 61, "velocity": 112, "channel": 0}, {"type": "note_on", "time": 126, "note": 58, "velocity": 97, "channel": 0}, {"type": "note_off", "time": 456, "note": 58, "velocity": 97, "channel": 0}, {"type": "note_on", "time": 56, "note": 63, "velocity": 115, "channel": 0}, {"type": "note_off", "time": 1105, "note": 63, "velocity": 115, "channel": 0}, {"type": "note_on", "time": 178, "note": 59, "velocity": 109, "channel": 0}, {"type": "note_off", "time": 517, "note": 59, "velocity": 109, "channel": 0}, {"type": "note_on", "time": 71, "note": 58, "velocity": 112, "channel": 0}, {"type": "note_off", "time": 588, "note": 58, "velocity": 112, "channel": 0}, {"type": "note_on", "time": 71, "note": 57, "velocity": 103, "channel": 0}, {"type": "note_off", "time": 427, "note": 57, "velocity": 103, "channel": 0}, {"type": "note_on", "time": 267, "note": 64, "velocity": 119, "channel": 0}, {"type": "note_off", "time": 463, "note": 64, "velocity": 119, "channel": 0}, {"type": "note_on", "time": 160, "note": 58, "velocity": 110, "channel": 0}, {"type": "note_off", "time": 427, "note": 58, "velocity": 110, "channel": 0}, {"type": "note_on", "time": 89, "note": 57, "velocity": 105, "channel": 0}, {"type": "note_off", "time": 552, "note": 57, "velocity": 105, "channel": 0}, {"type": "note_on", "time": 17, "note": 56, "velocity": 112, "channel": 0}, {"type": "note_off", "time": 532, "note": 56, "velocity": 112, "channel": 0}, {"type": "note_on", "time": 76, "note": 55, "velocity": 103, "channel": 0}, {"type": "note_off", "time": 583, "note": 55, "velocity": 103, "channel": 0}, {"type": "note_on", "time": 74, "note": 64, "velocity": 118, "channel": 0}, {"type": "note_off", "time": 1818, "note": 64, "velocity": 118, "channel": 0}, {"type": "note_on", "time": 249, "note": 58, "velocity": 110, "channel": 0}, {"type": "note_off", "time": 998, "note": 58, "velocity": 110, "channel": 0}, {"type": "note_on", "time": 53, "note": 57, "velocity": 109, "channel": 0}, {"type": "note_off", "time": 431, "note": 57, "velocity": 109, "channel": 0}, {"type": "note_on", "time": 0, "note": 55, "velocity": 96, "channel": 0}, {"type": "note_off", "time": 253, "note": 55, "velocity": 96, "channel": 0}, {"type": "note_on", "time": 101, "note": 56, "velocity": 105, "channel": 0}, {"type": "note_off", "time": 445, "note": 56, "velocity": 105, "channel": 0}, {"type": "note_on", "time": 15, "note": 55, "velocity": 115, "channel": 0}, {"type": "note_off", "time": 534, "note": 55, "velocity": 115, "channel": 0}, {"type": "note_on", "time": 68, "note": 64, "velocity": 121, "channel": 0}, {"type": "note_off", "time": 713, "note": 64, "velocity": 121, "channel": 0}, {"type": "note_on", "time": 38, "note": 58, "velocity": 104, "channel": 0}, {"type": "note_off", "time": 374, "note": 58, "velocity": 104, "channel": 0}, {"type": "note_on", "time": 178, "note": 55, "velocity": 102, "channel": 0}, {"type": "note_off", "time": 606, "note": 55, "velocity": 102, "channel": 0}, {"type": "note_on", "time": 71, "note": 54, "velocity": 108, "channel": 0}, {"type": "note_off", "time": 552, "note": 54, "velocity": 108, "channel": 0}, {"type": "note_on", "time": 77, "note": 53, "velocity": 101, "channel": 0}, {"type": "note_off", "time": 684, "note": 53, "velocity": 101, "channel": 0}, {"type": "note_on", "time": 111, "note": 52, "velocity": 106, "channel": 0}, {"type": "note_off", "time": 641, "note": 52, "velocity": 106, "channel": 0}, {"type": "note_on", "time": 338, "note": 62, "velocity": 115, "channel": 0}, {"type": "note_off", "time": 570, "note": 62, "velocity": 115, "channel": 0}, {"type": "note_on", "time": 11, "note": 59, "velocity": 102, "channel": 0}, {"type": "note_off", "time": 1242, "note": 59, "velocity": 102, "channel": 0}, {"type": "note_on", "time": 404, "note": 53, "velocity": 109, "channel": 0}, {"type": "note_off", "time": 624, "note": 53, "velocity": 109, "channel": 0}, {"type": "note_on", "time": 35, "note": 52, "velocity": 106, "channel": 0}, {"type": "note_off", "time": 427, "note": 52, "velocity": 106, "channel": 0}, {"type": "note_on", "time": 53, "note": 51, "velocity": 99, "channel": 0}, {"type": "note_off", "time": 463, "note": 51, "velocity": 99, "channel": 0}, {"type": "note_on", "time": 2549, "note": 61, "velocity": 118, "channel": 0}, {"type": "note_off", "time": 499, "note": 61, "velocity": 118, "channel": 0}, {"type": "note_on", "time": 142, "note": 58, "velocity": 103, "channel": 0}, {"type": "note_off", "time": 552, "note": 58, "velocity": 103, "channel": 0}, {"type": "note_on", "time": 35, "note": 53, "velocity": 108, "channel": 0}, {"type": "note_off", "time": 481, "note": 53, "velocity": 108, "channel": 0}, {"type": "note_on", "time": 196, "note": 51, "velocity": 109, "channel": 0}, {"type": "note_off", "time": 463, "note": 51, "velocity": 109, "channel": 0}, {"type": "note_on", "time": 53, "note": 49, "velocity": 123, "channel": 0}, {"type": "note_off", "time": 873, "note": 49, "velocity": 123, "channel": 0}, {"type": "note_on", "time": 303, "note": 49, "velocity": 119, "channel": 0}, {"type": "note_off", "time": 784, "note": 49, "velocity": 119, "channel": 0}, {"type": "note_on", "time": 5794, "note": 56, "velocity": 111, "channel": 0}, {"type": "note_off", "time": 445, "note": 56, "velocity": 111, "channel": 0}, {"type": "note_on", "time": 16, "note": 53, "velocity": 100, "channel": 0}, {"type": "note_off", "time": 519, "note": 53, "velocity": 100, "channel": 0}, {"type": "note_on", "time": 202, "note": 56, "velocity": 113, "channel": 0}, {"type": "note_off", "time": 469, "note": 56, "velocity": 113, "channel": 0}, {"type": "note_on", "time": 63, "note": 52, "velocity": 106, "channel": 0}, {"type": "note_off", "time": 481, "note": 52, "velocity": 106, "channel": 0}, {"type": "note_on", "time": 709, "note": 64, "velocity": 123, "channel": 0}, {"type": "note_off", "time": 671, "note": 64, "velocity": 123, "channel": 0}, {"type": "note_on", "time": 114, "note": 58, "velocity": 108, "channel": 0}, {"type": "note_off", "time": 405, "note": 58, "velocity": 108, "channel": 0}, {"type": "note_on", "time": 152, "note": 53, "velocity": 105, "channel": 0}, {"type": "note_off", "time": 405, "note": 53, "velocity": 105, "channel": 0}, {"type": "note_on", "time": 315, "note": 57, "velocity": 116, "channel": 0}, {"type": "note_off", "time": 356, "note": 57, "velocity": 116, "channel": 0}, {"type": "note_on", "time": 106, "note": 55, "velocity": 108, "channel": 0}, {"type": "note_off", "time": 588, "note": 55, "velocity": 108, "channel": 0}, {"type": "note_on", "time": 730, "note": 59, "velocity": 110, "channel": 0}, {"type": "note_off", "time": 499, "note": 59, "velocity": 110, "channel": 0}, {"type": "note_on", "time": 1426, "note": 64, "velocity": 122, "channel": 0}, {"type": "note_off", "time": 445, "note": 64, "velocity": 122, "channel": 0}, {"type": "note_on", "time": 71, "note": 61, "velocity": 113, "channel": 0}, {"type": "note_off", "time": 588, "note": 61, "velocity": 113, "channel": 0}, {"type": "note_on", "time": 160, "note": 57, "velocity": 106, "channel": 0}, {"type": "note_off", "time": 499, "note": 57, "velocity": 106, "channel": 0}, {"type": "note_on", "time": 659, "note": 62, "velocity": 115, "channel": 0}, {"type": "note_off", "time": 374, "note": 62, "velocity": 115, "channel": 0}, {"type": "note_on", "time": 106, "note": 59, "velocity": 107, "channel": 0}, {"type": "note_off", "time": 695, "note": 59, "velocity": 107, "channel": 0}, {"type": "note_on", "time": 142, "note": 54, "velocity": 108, "channel": 0}, {"type": "note_off", "time": 570, "note": 54, "velocity": 108, "channel": 0}, {"type": "note_on", "time": 766, "note": 57, "velocity": 109, "channel": 0}, {"type": "note_off", "time": 374, "note": 57, "velocity": 109, "channel": 0}, {"type": "note_on", "time": 89, "note": 55, "velocity": 101, "channel": 0}, {"type": "note_off", "time": 481, "note": 55, "velocity": 101, "channel": 0}, {"type": "note_on", "time": 517, "note": 59, "velocity": 107, "channel": 0}, {"type": "note_off", "time": 320, "note": 59, "velocity": 107, "channel": 0}, {"type": "note_on", "time": 267, "note": 62, "velocity": 109, "channel": 0}, {"type": "note_off", "time": 231, "note": 62, "velocity": 109, "channel": 0}, {"type": "note_on", "time": 200, "note": 65, "velocity": 89, "channel": 0}, {"type": "note_off", "time": 329, "note": 65, "velocity": 89, "channel": 0}, {"type": "note_on", "time": 152, "note": 77, "velocity": 70, "channel": 0}, {"type": "note_off", "time": 329, "note": 77, "velocity": 70, "channel": 0}, {"type": "note_on", "time": 1786, "note": 64, "velocity": 120, "channel": 0}, {"type": "note_off", "time": 481, "note": 64, "velocity": 120, "channel": 0}, {"type": "note_on", "time": 106, "note": 62, "velocity": 105, "channel": 0}, {"type": "note_off", "time": 2014, "note": 62, "velocity": 105, "channel": 0}, {"type": "note_on", "time": 106, "note": 60, "velocity": 104, "channel": 0}, {"type": "note_off", "time": 998, "note": 60, "velocity": 104, "channel": 0}, {"type": "note_on", "time": 89, "note": 62, "velocity": 118, "channel": 0}, {"type": "note_off", "time": 552, "note": 62, "velocity": 118, "channel": 0}, {"type": "note_on", "time": 35, "note": 63, "velocity": 117, "channel": 0}, {"type": "note_off", "time": 534, "note": 63, "velocity": 117, "channel": 0}, {"type": "note_on", "time": 89, "note": 66, "velocity": 108, "channel": 0}, {"type": "note_off", "time": 445, "note": 66, "velocity": 108, "channel": 0}, {"type": "note_on", "time": 142, "note": 70, "velocity": 112, "channel": 0}, {"type": "note_off", "time": 570, "note": 70, "velocity": 112, "channel": 0}, {"type": "note_on", "time": 89, "note": 70, "velocity": 112, "channel": 0}, {"type": "note_off", "time": 552, "note": 70, "velocity": 112, "channel": 0}, {"type": "note_on", "time": 71, "note": 71, "velocity": 112, "channel": 0}, {"type": "note_off", "time": 570, "note": 71, "velocity": 112, "channel": 0}, {"type": "note_on", "time": 71, "note": 75, "velocity": 120, "channel": 0}, {"type": "note_off", "time": 695, "note": 75, "velocity": 120, "channel": 0}, {"type": "note_on", "time": 35, "note": 72, "velocity": 115, "channel": 0}, {"type": "note_off", "time": 641, "note": 72, "velocity": 115, "channel": 0}, {"type": "note_on", "time": 89, "note": 71, "velocity": 113, "channel": 0}, {"type": "note_off", "time": 463, "note": 71, "velocity": 113, "channel": 0}, {"type": "note_on", "time": 17, "note": 70, "velocity": 111, "channel": 0}, {"type": "note_off", "time": 534, "note": 70, "velocity": 111, "channel": 0}, {"type": "note_on", "time": 160, "note": 67, "velocity": 111, "channel": 0}, {"type": "note_off", "time": 410, "note": 67, "velocity": 111, "channel": 0}, {"type": "note_on", "time": 142, "note": 64, "velocity": 117, "channel": 0}, {"type": "note_on", "time": 556, "note": 60, "velocity": 103, "channel": 0}, {"type": "note_off", "time": 0, "note": 64, "velocity": 117, "channel": 0}, {"type": "note_off", "time": 532, "note": 60, "velocity": 103, "channel": 0}, {"type": "note_on", "time": 158, "note": 69, "velocity": 113, "channel": 0}, {"type": "note_off", "time": 695, "note": 69, "velocity": 113, "channel": 0}, {"type": "note_on", "time": 35, "note": 70, "velocity": 108, "channel": 0}, {"type": "note_off", "time": 499, "note": 70, "velocity": 108, "channel": 0}, {"type": "note_on", "time": 35, "note": 71, "velocity": 106, "channel": 0}, {"type": "note_off", "time": 1996, "note": 71, "velocity": 106, "channel": 0}, {"type": "note_on", "time": 71, "note": 70, "velocity": 108, "channel": 0}, {"type": "note_off", "time": 427, "note": 70, "velocity": 108, "channel": 0}, {"type": "note_on", "time": 71, "note": 69, "velocity": 113, "channel": 0}, {"type": "note_off", "time": 552, "note": 69, "velocity": 113, "channel": 0}, {"type": "note_on", "time": 178, "note": 66, "velocity": 107, "channel": 0}, {"type": "note_off", "time": 445, "note": 66, "velocity": 107, "channel": 0}, {"type": "note_on", "time": 106, "note": 63, "velocity": 111, "channel": 0}, {"type": "note_off", "time": 695, "note": 63, "velocity": 111, "channel": 0}, {"type": "note_on", "time": 552, "note": 66, "velocity": 107, "channel": 0}, {"type": "note_off", "time": 534, "note": 66, "velocity": 107, "channel": 0}, {"type": "note_on", "time": 71, "note": 69, "velocity": 114, "channel": 0}, {"type": "note_off", "time": 552, "note": 69, "velocity": 114, "channel": 0}, {"type": "note_on", "time": 160, "note": 71, "velocity": 92, "channel": 0}, {"type": "note_off", "time": 534, "note": 71, "velocity": 92, "channel": 0}, {"type": "note_on", "time": 53, "note": 73, "velocity": 108, "channel": 0}, {"type": "note_off", "time": 588, "note": 73, "velocity": 108, "channel": 0}, {"type": "note_on", "time": 53, "note": 70, "velocity": 104, "channel": 0}, {"type": "note_off", "time": 552, "note": 70, "velocity": 104, "channel": 0}, {"type": "note_on", "time": 178, "note": 65, "velocity": 104, "channel": 0}, {"type": "note_off", "time": 392, "note": 65, "velocity": 104, "channel": 0}, {"type": "note_on", "time": 53, "note": 72, "velocity": 111, "channel": 0}, {"type": "note_off", "time": 730, "note": 72, "velocity": 111, "channel": 0}, {"type": "note_on", "time": 124, "note": 65, "velocity": 105, "channel": 0}, {"type": "note_off", "time": 374, "note": 65, "velocity": 105, "channel": 0}, {"type": "note_on", "time": 35, "note": 71, "velocity": 112, "channel": 0}, {"type": "note_off", "time": 641, "note": 71, "velocity": 112, "channel": 0}, {"type": "note_on", "time": 142, "note": 65, "velocity": 106, "channel": 0}, {"type": "note_off", "time": 392, "note": 65, "velocity": 106, "channel": 0}, {"type": "note_on", "time": 53, "note": 70, "velocity": 111, "channel": 0}, {"type": "note_off", "time": 588, "note": 70, "velocity": 111, "channel": 0}, {"type": "note_on", "time": 71, "note": 68, "velocity": 106, "channel": 0}, {"type": "note_off", "time": 517, "note": 68, "velocity": 106, "channel": 0}, {"type": "note_on", "time": 71, "note": 65, "velocity": 109, "channel": 0}, {"type": "note_off", "time": 463, "note": 65, "velocity": 109, "channel": 0}, {"type": "note_on", "time": 124, "note": 63, "velocity": 112, "channel": 0}, {"type": "note_off", "time": 1230, "note": 63, "velocity": 112, "channel": 0}, {"type": "note_on", "time": 374, "note": 65, "velocity": 111, "channel": 0}, {"type": "note_off", "time": 320, "note": 65, "velocity": 111, "channel": 0}, {"type": "note_on", "time": 106, "note": 68, "velocity": 110, "channel": 0}, {"type": "note_off", "time": 410, "note": 68, "velocity": 110, "channel": 0}, {"type": "note_on", "time": 89, "note": 70, "velocity": 109, "channel": 0}, {"type": "note_off", "time": 570, "note": 70, "velocity": 109, "channel": 0}, {"type": "note_on", "time": 53, "note": 75, "velocity": 113, "channel": 0}, {"type": "note_off", "time": 1372, "note": 75, "velocity": 113, "channel": 0}, {"type": "note_on", "time": 142, "note": 72, "velocity": 103, "channel": 0}, {"type": "note_off", "time": 1016, "note": 72, "velocity": 103, "channel": 0}, {"type": "note_on", "time": 160, "note": 70, "velocity": 99, "channel": 0}, {"type": "note_off", "time": 1729, "note": 70, "velocity": 99, "channel": 0}, {"type": "note_on", "time": 267, "note": 65, "velocity": 107, "channel": 0}, {"type": "note_off", "time": 499, "note": 65, "velocity": 107, "channel": 0}, {"type": "note_on", "time": 1961, "note": 61, "velocity": 114, "channel": 0}, {"type": "note_off", "time": 463, "note": 61, "velocity": 114, "channel": 0}, {"type": "note_on", "time": 17, "note": 68, "velocity": 112, "channel": 0}, {"type": "note_off", "time": 641, "note": 68, "velocity": 112, "channel": 0}, {"type": "note_on", "time": 106, "note": 63, "velocity": 116, "channel": 0}, {"type": "note_off", "time": 481, "note": 63, "velocity": 116, "channel": 0}, {"type": "note_on", "time": 53, "note": 70, "velocity": 107, "channel": 0}, {"type": "note_off", "time": 1961, "note": 70, "velocity": 107, "channel": 0}, {"type": "note_on", "time": 35, "note": 69, "velocity": 114, "channel": 0}, {"type": "note_off", "time": 463, "note": 69, "velocity": 114, "channel": 0}, {"type": "note_on", "time": 53, "note": 68, "velocity": 110, "channel": 0}, {"type": "note_off", "time": 517, "note": 68, "velocity": 110, "channel": 0}, {"type": "note_on", "time": 178, "note": 66, "velocity": 106, "channel": 0}, {"type": "note_off", "time": 552, "note": 66, "velocity": 106, "channel": 0}, {"type": "note_on", "time": 106, "note": 65, "velocity": 115, "channel": 0}, {"type": "note_off", "time": 481, "note": 65, "velocity": 115, "channel": 0}, {"type": "note_on", "time": 71, "note": 64, "velocity": 119, "channel": 0}, {"type": "note_off", "time": 534, "note": 64, "velocity": 119, "channel": 0}, {"type": "note_on", "time": 89, "note": 63, "velocity": 106, "channel": 0}, {"type": "note_off", "time": 570, "note": 63, "velocity": 106, "channel": 0}, {"type": "note_on", "time": 1461, "note": 61, "velocity": 117, "channel": 0}, {"type": "note_off", "time": 570, "note": 61, "velocity": 117, "channel": 0}, {"type": "note_on", "time": 2085, "note": 65, "velocity": 118, "channel": 0}, {"type": "note_off", "time": 695, "note": 65, "velocity": 118, "channel": 0}, {"type": "note_on", "time": 1729, "note": 60, "velocity": 107, "channel": 0}, {"type": "note_off", "time": 909, "note": 60, "velocity": 107, "channel": 0}, {"type": "note_on", "time": 1747, "note": 63, "velocity": 120, "channel": 0}, {"type": "note_off", "time": 356, "note": 63, "velocity": 120, "channel": 0}, {"type": "note_on", "time": 53, "note": 61, "velocity": 115, "channel": 0}, {"type": "note_off", "time": 641, "note": 61, "velocity": 115, "channel": 0}, {"type": "note_on", "time": 53, "note": 56, "velocity": 105, "channel": 0}, {"type": "note_off", "time": 463, "note": 56, "velocity": 105, "channel": 0}, {"type": "note_on", "time": 2139, "note": 60, "velocity": 113, "channel": 0}, {"type": "note_off", "time": 392, "note": 60, "velocity": 113, "channel": 0}, {"type": "note_on", "time": 47, "note": 56, "velocity": 103, "channel": 0}, {"type": "note_off", "time": 278, "note": 56, "velocity": 103, "channel": 0}, {"type": "note_on", "time": 25, "note": 55, "velocity": 105, "channel": 0}, {"type": "note_off", "time": 278, "note": 55, "velocity": 105, "channel": 0}, {"type": "note_on", "time": 207, "note": 61, "velocity": 114, "channel": 0}, {"type": "note_off", "time": 427, "note": 61, "velocity": 114, "channel": 0}, {"type": "note_on", "time": 106, "note": 67, "velocity": 115, "channel": 0}, {"type": "note_off", "time": 606, "note": 67, "velocity": 115, "channel": 0}, {"type": "note_on", "time": 1782, "note": 73, "velocity": 118, "channel": 0}, {"type": "note_off", "time": 695, "note": 73, "velocity": 118, "channel": 0}, {"type": "note_on", "time": 1479, "note": 61, "velocity": 113, "channel": 0}, {"type": "note_off", "time": 659, "note": 61, "velocity": 113, "channel": 0}, {"type": "note_on", "time": 820, "note": 67, "velocity": 114, "channel": 0}, {"type": "note_off", "time": 659, "note": 67, "velocity": 114, "channel": 0}, {"type": "note_on", "time": 320, "note": 72, "velocity": 115, "channel": 0}, {"type": "note_off", "time": 303, "note": 72, "velocity": 115, "channel": 0}, {"type": "note_on", "time": 89, "note": 70, "velocity": 111, "channel": 0}, {"type": "note_off", "time": 570, "note": 70, "velocity": 111, "channel": 0}, {"type": "note_on", "time": 303, "note": 65, "velocity": 109, "channel": 0}, {"type": "note_off", "time": 356, "note": 65, "velocity": 109, "channel": 0}, {"type": "note_on", "time": 17, "note": 69, "velocity": 109, "channel": 0}, {"type": "note_off", "time": 285, "note": 69, "velocity": 109, "channel": 0}, {"type": "note_on", "time": 89, "note": 71, "velocity": 116, "channel": 0}, {"type": "note_off", "time": 231, "note": 71, "velocity": 116, "channel": 0}, {"type": "note_on", "time": 196, "note": 65, "velocity": 113, "channel": 0}, {"type": "note_off", "time": 410, "note": 65, "velocity": 113, "channel": 0}, {"type": "note_on", "time": 89, "note": 64, "velocity": 116, "channel": 0}, {"type": "note_off", "time": 481, "note": 64, "velocity": 116, "channel": 0}, {"type": "note_on", "time": 213, "note": 71, "velocity": 114, "channel": 0}, {"type": "note_off", "time": 534, "note": 71, "velocity": 114, "channel": 0}, {"type": "note_on", "time": 89, "note": 70, "velocity": 110, "channel": 0}, {"type": "note_off", "time": 463, "note": 70, "velocity": 110, "channel": 0}, {"type": "note_on", "time": 124, "note": 66, "velocity": 109, "channel": 0}, {"type": "note_off", "time": 499, "note": 66, "velocity": 109, "channel": 0}, {"type": "note_on", "time": 2656, "note": 54, "velocity": 108, "channel": 0}, {"type": "note_off", "time": 392, "note": 54, "velocity": 108, "channel": 0}, {"type": "note_on", "time": 285, "note": 60, "velocity": 111, "channel": 0}, {"type": "note_off", "time": 427, "note": 60, "velocity": 111, "channel": 0}, {"type": "note_on", "time": 0, "note": 66, "velocity": 109, "channel": 0}, {"type": "note_off", "time": 534, "note": 66, "velocity": 109, "channel": 0}, {"type": "note_on", "time": 213, "note": 72, "velocity": 117, "channel": 0}, {"type": "note_off", "time": 499, "note": 72, "velocity": 117, "channel": 0}, {"type": "note_on", "time": 124, "note": 76, "velocity": 121, "channel": 0}, {"type": "note_off", "time": 624, "note": 76, "velocity": 121, "channel": 0}, {"type": "note_on", "time": 71, "note": 70, "velocity": 110, "channel": 0}, {"type": "note_off", "time": 517, "note": 70, "velocity": 110, "channel": 0}, {"type": "note_on", "time": 71, "note": 65, "velocity": 111, "channel": 0}, {"type": "note_off", "time": 517, "note": 65, "velocity": 111, "channel": 0}, {"type": "note_on", "time": 160, "note": 69, "velocity": 114, "channel": 0}, {"type": "note_off", "time": 677, "note": 69, "velocity": 114, "channel": 0}, {"type": "note_on", "time": 3547, "note": 70, "velocity": 114, "channel": 0}, {"type": "note_off", "time": 1123, "note": 70, "velocity": 114, "channel": 0}, {"type": "note_on", "time": 71, "note": 67, "velocity": 104, "channel": 0}, {"type": "note_off", "time": 802, "note": 67, "velocity": 104, "channel": 0}, {"type": "note_on", "time": 17, "note": 69, "velocity": 118, "channel": 0}, {"type": "note_off", "time": 427, "note": 69, "velocity": 118, "channel": 0}, {"type": "note_on", "time": 17, "note": 68, "velocity": 109, "channel": 0}, {"type": "note_off", "time": 427, "note": 68, "velocity": 109, "channel": 0}, {"type": "note_on", "time": 53, "note": 70, "velocity": 103, "channel": 0}, {"type": "note_off", "time": 410, "note": 70, "velocity": 103, "channel": 0}, {"type": "note_on", "time": 1889, "note": 68, "velocity": 119, "channel": 0}, {"type": "note_off", "time": 356, "note": 68, "velocity": 119, "channel": 0}, {"type": "note_on", "time": 213, "note": 66, "velocity": 107, "channel": 0}, {"type": "note_off", "time": 748, "note": 66, "velocity": 107, "channel": 0}, {"type": "note_on", "time": 196, "note": 63, "velocity": 118, "channel": 0}, {"type": "note_off", "time": 552, "note": 63, "velocity": 118, "channel": 0}, {"type": "note_on", "time": 106, "note": 61, "velocity": 114, "channel": 0}, {"type": "note_off", "time": 552, "note": 61, "velocity": 114, "channel": 0}, {"type": "note_on", "time": 71, "note": 59, "velocity": 108, "channel": 0}, {"type": "note_off", "time": 463, "note": 59, "velocity": 108, "channel": 0}, {"type": "note_on", "time": 200, "note": 58, "velocity": 107, "channel": 0}, {"type": "note_off", "time": 786, "note": 58, "velocity": 107, "channel": 0}, {"type": "note_on", "time": 368, "note": 56, "velocity": 102, "channel": 0}, {"type": "note_off", "time": 659, "note": 56, "velocity": 102, "channel": 0}, {"type": "note_on", "time": 2521, "note": 53, "velocity": 118, "channel": 0}, {"type": "note_off", "time": 206, "note": 53, "velocity": 118, "channel": 0}, {"type": "note_on", "time": 0, "note": 58, "velocity": 115, "channel": 0}, {"type": "note_off", "time": 463, "note": 58, "velocity": 115, "channel": 0}, {"type": "note_on", "time": 160, "note": 57, "velocity": 116, "channel": 0}, {"type": "note_off", "time": 1711, "note": 57, "velocity": 116, "channel": 0}, {"type": "note_on", "time": 142, "note": 65, "velocity": 121, "channel": 0}, {"type": "note_off", "time": 445, "note": 65, "velocity": 121, "channel": 0}, {"type": "note_on", "time": 17, "note": 63, "velocity": 108, "channel": 0}, {"type": "note_off", "time": 3904, "note": 63, "velocity": 108, "channel": 0}, {"type": "note_on", "time": 124, "note": 65, "velocity": 115, "channel": 0}, {"type": "note_off", "time": 659, "note": 65, "velocity": 115, "channel": 0}, {"type": "note_on", "time": 89, "note": 62, "velocity": 116, "channel": 0}, {"type": "note_off", "time": 730, "note": 62, "velocity": 116, "channel": 0}, {"type": "note_on", "time": 392, "note": 63, "velocity": 119, "channel": 0}, {"type": "note_off", "time": 481, "note": 63, "velocity": 119, "channel": 0}, {"type": "note_on", "time": 142, "note": 65, "velocity": 114, "channel": 0}, {"type": "note_off", "time": 481, "note": 65, "velocity": 114, "channel": 0}, {"type": "note_on", "time": 71, "note": 66, "velocity": 110, "channel": 0}, {"type": "note_off", "time": 552, "note": 66, "velocity": 110, "channel": 0}, {"type": "note_on", "time": 53, "note": 68, "velocity": 111, "channel": 0}, {"type": "note_off", "time": 552, "note": 68, "velocity": 111, "channel": 0}, {"type": "note_on", "time": 35, "note": 70, "velocity": 112, "channel": 0}, {"type": "note_off", "time": 588, "note": 70, "velocity": 112, "channel": 0}, {"type": "note_on", "time": 89, "note": 71, "velocity": 114, "channel": 0}, {"type": "note_off", "time": 570, "note": 71, "velocity": 114, "channel": 0}, {"type": "note_on", "time": 71, "note": 73, "velocity": 112, "channel": 0}, {"type": "note_off", "time": 1034, "note": 73, "velocity": 112, "channel": 0}, {"type": "note_on", "time": 53, "note": 72, "velocity": 104, "channel": 0}, {"type": "note_off", "time": 2371, "note": 72, "velocity": 104, "channel": 0}, {"type": "note_on", "time": 53, "note": 71, "velocity": 101, "channel": 0}, {"type": "note_off", "time": 338, "note": 71, "velocity": 101, "channel": 0}, {"type": "note_on", "time": 213, "note": 71, "velocity": 108, "channel": 0}, {"type": "note_off", "time": 499, "note": 71, "velocity": 108, "channel": 0}, {"type": "note_on", "time": 35, "note": 70, "velocity": 108, "channel": 0}, {"type": "note_off", "time": 517, "note": 70, "velocity": 108, "channel": 0}, {"type": "note_on", "time": 196, "note": 69, "velocity": 110, "channel": 0}, {"type": "note_off", "time": 303, "note": 69, "velocity": 110, "channel": 0}, {"type": "note_on", "time": 35, "note": 68, "velocity": 109, "channel": 0}, {"type": "note_off", "time": 641, "note": 68, "velocity": 109, "channel": 0}, {"type": "note_on", "time": 71, "note": 66, "velocity": 105, "channel": 0}, {"type": "note_off", "time": 481, "note": 66, "velocity": 105, "channel": 0}, {"type": "note_on", "time": 35, "note": 65, "velocity": 111, "channel": 0}, {"type": "note_off", "time": 606, "note": 65, "velocity": 111, "channel": 0}, {"type": "note_on", "time": 53, "note": 64, "velocity": 117, "channel": 0}, {"type": "note_off", "time": 624, "note": 64, "velocity": 117, "channel": 0}, {"type": "note_on", "time": 89, "note": 63, "velocity": 107, "channel": 0}, {"type": "note_off", "time": 463, "note": 63, "velocity": 107, "channel": 0}, {"type": "note_on", "time": 246, "note": 58, "velocity": 104, "channel": 0}, {"type": "note_off", "time": 304, "note": 58, "velocity": 104, "channel": 0}, {"type": "note_on", "time": 72, "note": 61, "velocity": 111, "channel": 0}, {"type": "note_off", "time": 588, "note": 61, "velocity": 111, "channel": 0}, {"type": "note_on", "time": 71, "note": 58, "velocity": 107, "channel": 0}, {"type": "note_off", "time": 481, "note": 58, "velocity": 107, "channel": 0}, {"type": "note_on", "time": 53, "note": 56, "velocity": 104, "channel": 0}, {"type": "note_off", "time": 427, "note": 56, "velocity": 104, "channel": 0}, {"type": "note_on", "time": 178, "note": 54, "velocity": 104, "channel": 0}, {"type": "note_off", "time": 1051, "note": 54, "velocity": 104, "channel": 0}, {"type": "note_on", "time": 3946, "note": 57, "velocity": 108, "channel": 0}, {"type": "note_off", "time": 633, "note": 57, "velocity": 108, "channel": 0}, {"type": "note_on", "time": 202, "note": 61, "velocity": 103, "channel": 0}, {"type": "note_off", "time": 633, "note": 61, "velocity": 103, "channel": 0}, {"type": "note_on", "time": 270, "note": 65, "velocity": 111, "channel": 0}, {"type": "note_off", "time": 410, "note": 65, "velocity": 111, "channel": 0}, {"type": "note_on", "time": 89, "note": 61, "velocity": 115, "channel": 0}, {"type": "note_off", "time": 410, "note": 61, "velocity": 115, "channel": 0}, {"type": "note_on", "time": 71, "note": 63, "velocity": 110, "channel": 0}, {"type": "note_off", "time": 570, "note": 63, "velocity": 110, "channel": 0}, {"type": "note_on", "time": 53, "note": 65, "velocity": 113, "channel": 0}, {"type": "note_on", "time": 552, "note": 69, "velocity": 103, "channel": 0}, {"type": "note_off", "time": 0, "note": 65, "velocity": 113, "channel": 0}, {"type": "note_off", "time": 606, "note": 69, "velocity": 103, "channel": 0}, {"type": "note_on", "time": 89, "note": 71, "velocity": 114, "channel": 0}, {"type": "note_off", "time": 445, "note": 71, "velocity": 114, "channel": 0}, {"type": "note_on", "time": 57, "note": 73, "velocity": 114, "channel": 0}, {"type": "note_off", "time": 499, "note": 73, "velocity": 114, "channel": 0}, {"type": "note_on", "time": 67, "note": 75, "velocity": 116, "channel": 0}, {"type": "note_off", "time": 624, "note": 75, "velocity": 116, "channel": 0}, {"type": "note_on", "time": 89, "note": 76, "velocity": 121, "channel": 0}, {"type": "note_off", "time": 713, "note": 76, "velocity": 121, "channel": 0}, {"type": "note_on", "time": 0, "note": 77, "velocity": 119, "channel": 0}, {"type": "note_off", "time": 481, "note": 77, "velocity": 119, "channel": 0}, {"type": "note_on", "time": 124, "note": 76, "velocity": 121, "channel": 0}, {"type": "note_off", "time": 499, "note": 76, "velocity": 121, "channel": 0}, {"type": "note_on", "time": 53, "note": 74, "velocity": 119, "channel": 0}, {"type": "note_off", "time": 624, "note": 74, "velocity": 119, "channel": 0}, {"type": "note_on", "time": 124, "note": 71, "velocity": 112, "channel": 0}, {"type": "note_off", "time": 677, "note": 71, "velocity": 112, "channel": 0}, {"type": "note_on", "time": 249, "note": 69, "velocity": 113, "channel": 0}, {"type": "note_off", "time": 1765, "note": 69, "velocity": 113, "channel": 0}, {"type": "note_on", "time": 53, "note": 68, "velocity": 111, "channel": 0}, {"type": "note_off", "time": 980, "note": 68, "velocity": 111, "channel": 0}, {"type": "note_on", "time": 89, "note": 65, "velocity": 109, "channel": 0}, {"type": "note_off", "time": 552, "note": 65, "velocity": 109, "channel": 0}, {"type": "note_on", "time": 124, "note": 62, "velocity": 115, "channel": 0}, {"type": "note_off", "time": 427, "note": 62, "velocity": 115, "channel": 0}, {"type": "note_on", "time": 53, "note": 58, "velocity": 101, "channel": 0}, {"type": "note_off", "time": 427, "note": 58, "velocity": 101, "channel": 0}, {"type": "note_on", "time": 124, "note": 64, "velocity": 120, "channel": 0}, {"type": "note_on", "time": 499, "note": 62, "velocity": 115, "channel": 0}, {"type": "note_off", "time": 0, "note": 64, "velocity": 120, "channel": 0}, {"type": "note_off", "time": 677, "note": 62, "velocity": 115, "channel": 0}, {"type": "note_on", "time": 142, "note": 61, "velocity": 112, "channel": 0}, {"type": "note_on", "time": 570, "note": 63, "velocity": 114, "channel": 0}, {"type": "note_off", "time": 0, "note": 61, "velocity": 112, "channel": 0}, {"type": "note_off", "time": 517, "note": 63, "velocity": 114, "channel": 0}, {"type": "note_on", "time": 106, "note": 58, "velocity": 109, "channel": 0}, {"type": "note_off", "time": 534, "note": 58, "velocity": 109, "channel": 0}, {"type": "note_on", "time": 17, "note": 57, "velocity": 113, "channel": 0}, {"type": "note_off", "time": 570, "note": 57, "velocity": 113, "channel": 0}, {"type": "note_on", "time": 106, "note": 56, "velocity": 106, "channel": 0}, {"type": "note_off", "time": 499, "note": 56, "velocity": 106, "channel": 0}, {"type": "note_on", "time": 1765, "note": 59, "velocity": 99, "channel": 0}, {"type": "note_off", "time": 499, "note": 59, "velocity": 99, "channel": 0}, {"type": "note_on", "time": 124, "note": 61, "velocity": 110, "channel": 0}, {"type": "note_off", "time": 624, "note": 61, "velocity": 110, "channel": 0}, {"type": "note_on", "time": 17, "note": 63, "velocity": 111, "channel": 0}, {"type": "note_off", "time": 624, "note": 63, "velocity": 111, "channel": 0}, {"type": "note_on", "time": 178, "note": 65, "velocity": 109, "channel": 0}, {"type": "note_off", "time": 606, "note": 65, "velocity": 109, "channel": 0}, {"type": "note_on", "time": 71, "note": 68, "velocity": 109, "channel": 0}, {"type": "note_off", "time": 517, "note": 68, "velocity": 109, "channel": 0}, {"type": "note_on", "time": 106, "note": 70, "velocity": 112, "channel": 0}, {"type": "note_off", "time": 588, "note": 70, "velocity": 112, "channel": 0}, {"type": "note_on", "time": 106, "note": 71, "velocity": 99, "channel": 0}, {"type": "note_off", "time": 570, "note": 71, "velocity": 99, "channel": 0}, {"type": "note_on", "time": 89, "note": 73, "velocity": 113, "channel": 0}, {"type": "note_off", "time": 552, "note": 73, "velocity": 113, "channel": 0}, {"type": "note_on", "time": 17, "note": 70, "velocity": 108, "channel": 0}, {"type": "note_off", "time": 463, "note": 70, "velocity": 108, "channel": 0}, {"type": "note_on", "time": 142, "note": 68, "velocity": 110, "channel": 0}, {"type": "note_off", "time": 499, "note": 68, "velocity": 110, "channel": 0}, {"type": "note_on", "time": 53, "note": 65, "velocity": 112, "channel": 0}, {"type": "note_off", "time": 552, "note": 65, "velocity": 112, "channel": 0}, {"type": "note_on", "time": 35, "note": 63, "velocity": 101, "channel": 0}, {"type": "note_off", "time": 534, "note": 63, "velocity": 101, "channel": 0}, {"type": "note_on", "time": 142, "note": 67, "velocity": 110, "channel": 0}, {"type": "note_off", "time": 499, "note": 67, "velocity": 110, "channel": 0}, {"type": "note_on", "time": 35, "note": 64, "velocity": 118, "channel": 0}, {"type": "note_off", "time": 695, "note": 64, "velocity": 118, "channel": 0}, {"type": "note_on", "time": 35, "note": 70, "velocity": 97, "channel": 0}, {"type": "note_off", "time": 1497, "note": 70, "velocity": 97, "channel": 0}, {"type": "note_on", "time": 14922, "note": 74, "velocity": 119, "channel": 0}, {"type": "note_off", "time": 570, "note": 74, "velocity": 119, "channel": 0}, {"type": "note_on", "time": 17, "note": 76, "velocity": 122, "channel": 0}, {"type": "note_off", "time": 285, "note": 76, "velocity": 122, "channel": 0}, {"type": "note_on", "time": 17, "note": 77, "velocity": 119, "channel": 0}, {"type": "note_off", "time": 2139, "note": 77, "velocity": 119, "channel": 0}, {"type": "note_on", "time": 267, "note": 67, "velocity": 108, "channel": 0}, {"type": "note_off", "time": 3066, "note": 67, "velocity": 108, "channel": 0}, {"type": "note_on", "time": 338, "note": 74, "velocity": 118, "channel": 0}, {"type": "note_off", "time": 320, "note": 74, "velocity": 118, "channel": 0}, {"type": "note_on", "time": 17, "note": 76, "velocity": 124, "channel": 0}, {"type": "note_off", "time": 285, "note": 76, "velocity": 124, "channel": 0}, {"type": "note_on", "time": 0, "note": 77, "velocity": 118, "channel": 0}, {"type": "note_off", "time": 962, "note": 77, "velocity": 118, "channel": 0}, {"type": "note_on", "time": 410, "note": 69, "velocity": 116, "channel": 0}, {"type": "note_off", "time": 1265, "note": 69, "velocity": 116, "channel": 0}, {"type": "note_on", "time": 463, "note": 72, "velocity": 104, "channel": 0}, {"type": "note_off", "time": 267, "note": 72, "velocity": 104, "channel": 0}, {"type": "note_on", "time": 35, "note": 75, "velocity": 116, "channel": 0}, {"type": "note_off", "time": 213, "note": 75, "velocity": 116, "channel": 0}, {"type": "note_on", "time": 35, "note": 77, "velocity": 117, "channel": 0}, {"type": "note_off", "time": 1265, "note": 77, "velocity": 117, "channel": 0}, {"type": "note_on", "time": 249, "note": 67, "velocity": 108, "channel": 0}, {"type": "note_off", "time": 2995, "note": 67, "velocity": 108, "channel": 0}, {"type": "note_on", "time": 285, "note": 75, "velocity": 115, "channel": 0}, {"type": "note_off", "time": 463, "note": 75, "velocity": 115, "channel": 0}, {"type": "note_on", "time": 249, "note": 65, "velocity": 109, "channel": 0}, {"type": "note_off", "time": 1640, "note": 65, "velocity": 109, "channel": 0}, {"type": "note_on", "time": 285, "note": 73, "velocity": 99, "channel": 0}, {"type": "note_off", "time": 4867, "note": 73, "velocity": 99, "channel": 0}, {"type": "note_on", "time": 285, "note": 67, "velocity": 108, "channel": 0}, {"type": "note_off", "time": 2192, "note": 67, "velocity": 108, "channel": 0}, {"type": "note_on", "time": 89, "note": 73, "velocity": 110, "channel": 0}, {"type": "note_off", "time": 517, "note": 73, "velocity": 110, "channel": 0}, {"type": "note_on", "time": 53, "note": 75, "velocity": 111, "channel": 0}, {"type": "note_off", "time": 499, "note": 75, "velocity": 111, "channel": 0}, {"type": "note_on", "time": 106, "note": 77, "velocity": 111, "channel": 0}, {"type": "note_off", "time": 481, "note": 77, "velocity": 111, "channel": 0}, {"type": "note_on", "time": 35, "note": 73, "velocity": 108, "channel": 0}, {"type": "note_off", "time": 1230, "note": 73, "velocity": 108, "channel": 0}, {"type": "note_on", "time": 106, "note": 75, "velocity": 110, "channel": 0}, {"type": "note_off", "time": 641, "note": 75, "velocity": 110, "channel": 0}, {"type": "note_on", "time": 89, "note": 72, "velocity": 103, "channel": 0}, {"type": "note_off", "time": 2317, "note": 72, "velocity": 103, "channel": 0}, {"type": "note_on", "time": 89, "note": 75, "velocity": 112, "channel": 0}, {"type": "note_off", "time": 427, "note": 75, "velocity": 112, "channel": 0}, {"type": "note_on", "time": 106, "note": 73, "velocity": 108, "channel": 0}, {"type": "note_off", "time": 695, "note": 73, "velocity": 108, "channel": 0}, {"type": "note_on", "time": 677, "note": 70, "velocity": 109, "channel": 0}, {"type": "note_off", "time": 534, "note": 70, "velocity": 109, "channel": 0}, {"type": "note_on", "time": 106, "note": 73, "velocity": 111, "channel": 0}, {"type": "note_off", "time": 588, "note": 73, "velocity": 111, "channel": 0}, {"type": "note_on", "time": 71, "note": 72, "velocity": 108, "channel": 0}, {"type": "note_off", "time": 588, "note": 72, "velocity": 108, "channel": 0}, {"type": "note_on", "time": 178, "note": 71, "velocity": 108, "channel": 0}, {"type": "note_off", "time": 606, "note": 71, "velocity": 108, "channel": 0}, {"type": "note_on", "time": 35, "note": 70, "velocity": 106, "channel": 0}, {"type": "note_off", "time": 1586, "note": 70, "velocity": 106, "channel": 0}, {"type": "note_on", "time": 71, "note": 69, "velocity": 108, "channel": 0}, {"type": "note_off", "time": 534, "note": 69, "velocity": 108, "channel": 0}, {"type": "note_on", "time": 0, "note": 70, "velocity": 106, "channel": 0}, {"type": "note_off", "time": 606, "note": 70, "velocity": 106, "channel": 0}, {"type": "note_on", "time": 89, "note": 69, "velocity": 109, "channel": 0}, {"type": "note_off", "time": 606, "note": 69, "velocity": 109, "channel": 0}, {"type": "note_on", "time": 53, "note": 68, "velocity": 107, "channel": 0}, {"type": "note_off", "time": 517, "note": 68, "velocity": 107, "channel": 0}, {"type": "note_on", "time": 124, "note": 65, "velocity": 107, "channel": 0}, {"type": "note_off", "time": 517, "note": 65, "velocity": 107, "channel": 0}, {"type": "note_on", "time": 89, "note": 61, "velocity": 116, "channel": 0}, {"type": "note_off", "time": 659, "note": 61, "velocity": 116, "channel": 0}, {"type": "note_on", "time": 178, "note": 58, "velocity": 104, "channel": 0}, {"type": "note_off", "time": 320, "note": 58, "velocity": 104, "channel": 0}, {"type": "note_on", "time": 165, "note": 67, "velocity": 110, "channel": 0}, {"type": "note_off", "time": 624, "note": 67, "velocity": 110, "channel": 0}, {"type": "note_on", "time": 30, "note": 70, "velocity": 103, "channel": 0}, {"type": "note_off", "time": 499, "note": 70, "velocity": 103, "channel": 0}, {"type": "note_on", "time": 89, "note": 68, "velocity": 109, "channel": 0}, {"type": "note_off", "time": 517, "note": 68, "velocity": 109, "channel": 0}, {"type": "note_on", "time": 89, "note": 65, "velocity": 106, "channel": 0}, {"type": "note_off", "time": 463, "note": 65, "velocity": 106, "channel": 0}, {"type": "note_on", "time": 89, "note": 61, "velocity": 112, "channel": 0}, {"type": "note_off", "time": 588, "note": 61, "velocity": 112, "channel": 0}, {"type": "note_on", "time": 89, "note": 58, "velocity": 105, "channel": 0}, {"type": "note_off", "time": 552, "note": 58, "velocity": 105, "channel": 0}, {"type": "note_on", "time": 0, "note": 60, "velocity": 105, "channel": 0}, {"type": "note_off", "time": 534, "note": 60, "velocity": 105, "channel": 0}, {"type": "note_on", "time": 53, "note": 63, "velocity": 109, "channel": 0}, {"type": "note_off", "time": 659, "note": 63, "velocity": 109, "channel": 0}, {"type": "note_on", "time": 624, "note": 63, "velocity": 103, "channel": 0}, {"type": "note_off", "time": 624, "note": 63, "velocity": 103, "channel": 0}, {"type": "note_on", "time": 106, "note": 57, "velocity": 106, "channel": 0}, {"type": "note_off", "time": 552, "note": 57, "velocity": 106, "channel": 0}, {"type": "note_on", "time": 5847, "note": 65, "velocity": 112, "channel": 0}, {"type": "note_off", "time": 3137, "note": 65, "velocity": 112, "channel": 0}, {"type": "note_on", "time": 71, "note": 61, "velocity": 113, "channel": 0}, {"type": "note_off", "time": 499, "note": 61, "velocity": 113, "channel": 0}, {"type": "note_on", "time": 17, "note": 60, "velocity": 111, "channel": 0}, {"type": "note_off", "time": 570, "note": 60, "velocity": 111, "channel": 0}, {"type": "note_on", "time": 0, "note": 61, "velocity": 122, "channel": 0}, {"type": "note_off", "time": 534, "note": 61, "velocity": 122, "channel": 0}, {"type": "note_on", "time": 178, "note": 63, "velocity": 114, "channel": 0}, {"type": "note_off", "time": 534, "note": 63, "velocity": 114, "channel": 0}, {"type": "note_on", "time": 160, "note": 55, "velocity": 102, "channel": 0}, {"type": "note_off", "time": 517, "note": 55, "velocity": 102, "channel": 0}, {"type": "note_on", "time": 124, "note": 58, "velocity": 105, "channel": 0}, {"type": "note_off", "time": 392, "note": 58, "velocity": 105, "channel": 0}, {"type": "note_on", "time": 160, "note": 61, "velocity": 117, "channel": 0}, {"type": "note_off", "time": 517, "note": 61, "velocity": 117, "channel": 0}, {"type": "note_on", "time": 71, "note": 60, "velocity": 111, "channel": 0}, {"type": "note_off", "time": 570, "note": 60, "velocity": 111, "channel": 0}, {"type": "note_on", "time": 71, "note": 59, "velocity": 114, "channel": 0}, {"type": "note_off", "time": 552, "note": 59, "velocity": 114, "channel": 0}, {"type": "note_on", "time": 53, "note": 58, "velocity": 108, "channel": 0}, {"type": "note_off", "time": 624, "note": 58, "velocity": 108, "channel": 0}, {"type": "note_on", "time": 53, "note": 57, "velocity": 110, "channel": 0}, {"type": "note_off", "time": 1034, "note": 57, "velocity": 110, "channel": 0}, {"type": "note_on", "time": 89, "note": 58, "velocity": 108, "channel": 0}, {"type": "note_off", "time": 730, "note": 58, "velocity": 108, "channel": 0}, {"type": "note_on", "time": 58, "note": 59, "velocity": 105, "channel": 0}, {"type": "note_off", "time": 410, "note": 59, "velocity": 105, "channel": 0}, {"type": "note_on", "time": 97, "note": 61, "velocity": 108, "channel": 0}, {"type": "note_off", "time": 570, "note": 61, "velocity": 108, "channel": 0}, {"type": "note_on", "time": 94, "note": 63, "velocity": 115, "channel": 0}, {"type": "note_off", "time": 534, "note": 63, "velocity": 115, "channel": 0}, {"type": "note_on", "time": 160, "note": 65, "velocity": 105, "channel": 0}, {"type": "note_off", "time": 481, "note": 65, "velocity": 105, "channel": 0}, {"type": "note_on", "time": 89, "note": 69, "velocity": 118, "channel": 0}, {"type": "note_off", "time": 695, "note": 69, "velocity": 118, "channel": 0}, {"type": "note_on", "time": 71, "note": 63, "velocity": 108, "channel": 0}, {"type": "note_off", "time": 445, "note": 63, "velocity": 108, "channel": 0}, {"type": "note_on", "time": 142, "note": 69, "velocity": 118, "channel": 0}, {"type": "note_off", "time": 713, "note": 69, "velocity": 118, "channel": 0}, {"type": "note_on", "time": 89, "note": 63, "velocity": 110, "channel": 0}, {"type": "note_off", "time": 374, "note": 63, "velocity": 110, "channel": 0}, {"type": "note_on", "time": 320, "note": 70, "velocity": 110, "channel": 0}, {"type": "note_off", "time": 427, "note": 70, "velocity": 110, "channel": 0}, {"type": "note_on", "time": 71, "note": 69, "velocity": 115, "channel": 0}, {"type": "note_off", "time": 463, "note": 69, "velocity": 115, "channel": 0}, {"type": "note_on", "time": 89, "note": 68, "velocity": 113, "channel": 0}, {"type": "note_off", "time": 677, "note": 68, "velocity": 113, "channel": 0}, {"type": "note_on", "time": 53, "note": 65, "velocity": 114, "channel": 0}, {"type": "note_off", "time": 534, "note": 65, "velocity": 114, "channel": 0}, {"type": "note_on", "time": 71, "note": 61, "velocity": 117, "channel": 0}, {"type": "note_off", "time": 570, "note": 61, "velocity": 117, "channel": 0}, {"type": "note_on", "time": 219, "note": 58, "velocity": 95, "channel": 0}, {"type": "note_off", "time": 278, "note": 58, "velocity": 95, "channel": 0}, {"type": "note_on", "time": 108, "note": 67, "velocity": 115, "channel": 0}, {"type": "note_off", "time": 659, "note": 67, "velocity": 115, "channel": 0}, {"type": "note_on", "time": 71, "note": 66, "velocity": 109, "channel": 0}, {"type": "note_off", "time": 499, "note": 66, "velocity": 109, "channel": 0}, {"type": "note_on", "time": 53, "note": 65, "velocity": 111, "channel": 0}, {"type": "note_off", "time": 624, "note": 65, "velocity": 111, "channel": 0}, {"type": "note_on", "time": 53, "note": 64, "velocity": 117, "channel": 0}, {"type": "note_off", "time": 427, "note": 64, "velocity": 117, "channel": 0}, {"type": "note_on", "time": 35, "note": 63, "velocity": 109, "channel": 0}, {"type": "note_off", "time": 517, "note": 63, "velocity": 109, "channel": 0}, {"type": "note_on", "time": 285, "note": 58, "velocity": 103, "channel": 0}, {"type": "note_off", "time": 606, "note": 58, "velocity": 103, "channel": 0}, {"type": "note_on", "time": 677, "note": 61, "velocity": 114, "channel": 0}, {"type": "note_off", "time": 463, "note": 61, "velocity": 114, "channel": 0}, {"type": "note_on", "time": 285, "note": 55, "velocity": 103, "channel": 0}, {"type": "note_off", "time": 855, "note": 55, "velocity": 103, "channel": 0}, {"type": "note_on", "time": 160, "note": 60, "velocity": 107, "channel": 0}, {"type": "note_off", "time": 1034, "note": 60, "velocity": 107, "channel": 0}, {"type": "note_on", "time": 178, "note": 58, "velocity": 105, "channel": 0}, {"type": "note_off", "time": 766, "note": 58, "velocity": 105, "channel": 0}, {"type": "note_on", "time": 638, "note": 56, "velocity": 103, "channel": 0}, {"type": "note_off", "time": 963, "note": 56, "velocity": 103, "channel": 0}, {"type": "note_on", "time": 228, "note": 55, "velocity": 102, "channel": 0}, {"type": "note_off", "time": 912, "note": 55, "velocity": 102, "channel": 0}, {"type": "note_on", "time": 76, "note": 58, "velocity": 103, "channel": 0}, {"type": "note_off", "time": 481, "note": 58, "velocity": 103, "channel": 0}, {"type": "note_on", "time": 25, "note": 61, "velocity": 109, "channel": 0}, {"type": "note_off", "time": 405, "note": 61, "velocity": 109, "channel": 0}, {"type": "note_on", "time": 228, "note": 65, "velocity": 108, "channel": 0}, {"type": "note_off", "time": 405, "note": 65, "velocity": 108, "channel": 0}, {"type": "note_on", "time": 228, "note": 61, "velocity": 109, "channel": 0}, {"type": "note_off", "time": 456, "note": 61, "velocity": 109, "channel": 0}, {"type": "note_on", "time": 126, "note": 63, "velocity": 109, "channel": 0}, {"type": "note_off", "time": 456, "note": 63, "velocity": 109, "channel": 0}, {"type": "note_on", "time": 50, "note": 65, "velocity": 109, "channel": 0}, {"type": "note_off", "time": 709, "note": 65, "velocity": 109, "channel": 0}, {"type": "note_on", "time": 507, "note": 73, "velocity": 111, "channel": 0}, {"type": "note_on", "time": 532, "note": 77, "velocity": 104, "channel": 0}, {"type": "note_off", "time": 0, "note": 73, "velocity": 111, "channel": 0}, {"type": "note_off", "time": 507, "note": 77, "velocity": 104, "channel": 0}, {"type": "note_on", "time": 50, "note": 75, "velocity": 107, "channel": 0}, {"type": "note_off", "time": 659, "note": 75, "velocity": 107, "channel": 0}, {"type": "note_on", "time": 177, "note": 72, "velocity": 110, "channel": 0}, {"type": "note_off", "time": 532, "note": 72, "velocity": 110, "channel": 0}, {"type": "note_on", "time": 709, "note": 72, "velocity": 101, "channel": 0}, {"type": "note_off", "time": 507, "note": 72, "velocity": 101, "channel": 0}, {"type": "note_on", "time": 25, "note": 75, "velocity": 110, "channel": 0}, {"type": "note_off", "time": 709, "note": 75, "velocity": 110, "channel": 0}, {"type": "note_on", "time": 4411, "note": 72, "velocity": 110, "channel": 0}, {"type": "note_off", "time": 481, "note": 72, "velocity": 110, "channel": 0}, {"type": "note_on", "time": 50, "note": 73, "velocity": 110, "channel": 0}, {"type": "note_off", "time": 507, "note": 73, "velocity": 110, "channel": 0}, {"type": "note_on", "time": 177, "note": 67, "velocity": 110, "channel": 0}, {"type": "note_off", "time": 456, "note": 67, "velocity": 110, "channel": 0}, {"type": "note_on", "time": 228, "note": 72, "velocity": 113, "channel": 0}, {"type": "note_off", "time": 431, "note": 72, "velocity": 113, "channel": 0}, {"type": "note_on", "time": 0, "note": 70, "velocity": 111, "channel": 0}, {"type": "note_off", "time": 709, "note": 70, "velocity": 111, "channel": 0}, {"type": "note_on", "time": 152, "note": 65, "velocity": 98, "channel": 0}, {"type": "note_off", "time": 380, "note": 65, "velocity": 98, "channel": 0}, {"type": "note_on", "time": 50, "note": 69, "velocity": 116, "channel": 0}, {"type": "note_off", "time": 633, "note": 69, "velocity": 116, "channel": 0}, {"type": "note_on", "time": 101, "note": 67, "velocity": 114, "channel": 0}, {"type": "note_off", "time": 380, "note": 67, "velocity": 114, "channel": 0}, {"type": "note_on", "time": 101, "note": 63, "velocity": 114, "channel": 0}, {"type": "note_off", "time": 659, "note": 63, "velocity": 114, "channel": 0}, {"type": "note_on", "time": 253, "note": 60, "velocity": 102, "channel": 0}, {"type": "note_off", "time": 329, "note": 60, "velocity": 102, "channel": 0}, {"type": "note_on", "time": 0, "note": 67, "velocity": 114, "channel": 0}, {"type": "note_off", "time": 709, "note": 67, "velocity": 114, "channel": 0}, {"type": "note_on", "time": 228, "note": 66, "velocity": 110, "channel": 0}, {"type": "note_off", "time": 405, "note": 66, "velocity": 110, "channel": 0}, {"type": "note_on", "time": 2713, "note": 62, "velocity": 110, "channel": 0}, {"type": "note_off", "time": 481, "note": 62, "velocity": 110, "channel": 0}, {"type": "note_on", "time": 101, "note": 66, "velocity": 110, "channel": 0}, {"type": "note_off", "time": 304, "note": 66, "velocity": 110, "channel": 0}, {"type": "note_on", "time": 253, "note": 64, "velocity": 115, "channel": 0}, {"type": "note_off", "time": 583, "note": 64, "velocity": 115, "channel": 0}, {"type": "note_on", "time": 101, "note": 69, "velocity": 116, "channel": 0}, {"type": "note_off", "time": 431, "note": 69, "velocity": 116, "channel": 0}, {"type": "note_on", "time": 126, "note": 66, "velocity": 110, "channel": 0}, {"type": "note_off", "time": 507, "note": 66, "velocity": 110, "channel": 0}, {"type": "note_on", "time": 1141, "note": 63, "velocity": 112, "channel": 0}, {"type": "note_off", "time": 532, "note": 63, "velocity": 112, "channel": 0}, {"type": "note_on", "time": 25, "note": 66, "velocity": 111, "channel": 0}, {"type": "note_off", "time": 608, "note": 66, "velocity": 111, "channel": 0}, {"type": "note_on", "time": 76, "note": 69, "velocity": 118, "channel": 0}, {"type": "note_off", "time": 507, "note": 69, "velocity": 118, "channel": 0}, {"type": "note_on", "time": 76, "note": 67, "velocity": 112, "channel": 0}, {"type": "note_off", "time": 557, "note": 67, "velocity": 112, "channel": 0}, {"type": "note_on", "time": 152, "note": 66, "velocity": 109, "channel": 0}, {"type": "note_off", "time": 532, "note": 66, "velocity": 109, "channel": 0}, {"type": "note_on", "time": 50, "note": 65, "velocity": 110, "channel": 0}, {"type": "note_off", "time": 583, "note": 65, "velocity": 110, "channel": 0}, {"type": "note_on", "time": 76, "note": 64, "velocity": 115, "channel": 0}, {"type": "note_off", "time": 456, "note": 64, "velocity": 115, "channel": 0}, {"type": "note_on", "time": 152, "note": 63, "velocity": 113, "channel": 0}, {"type": "note_off", "time": 532, "note": 63, "velocity": 113, "channel": 0}, {"type": "note_on", "time": 1343, "note": 62, "velocity": 115, "channel": 0}, {"type": "note_off", "time": 507, "note": 62, "velocity": 115, "channel": 0}, {"type": "note_on", "time": 25, "note": 61, "velocity": 113, "channel": 0}, {"type": "note_off", "time": 507, "note": 61, "velocity": 113, "channel": 0}, {"type": "note_on", "time": 101, "note": 63, "velocity": 113, "channel": 0}, {"type": "note_off", "time": 532, "note": 63, "velocity": 113, "channel": 0}, {"type": "note_on", "time": 228, "note": 60, "velocity": 108, "channel": 0}, {"type": "note_off", "time": 481, "note": 60, "velocity": 108, "channel": 0}, {"type": "note_on", "time": 76, "note": 61, "velocity": 112, "channel": 0}, {"type": "note_off", "time": 481, "note": 61, "velocity": 112, "channel": 0}, {"type": "note_on", "time": 101, "note": 59, "velocity": 109, "channel": 0}, {"type": "note_off", "time": 507, "note": 59, "velocity": 109, "channel": 0}, {"type": "note_on", "time": 76, "note": 60, "velocity": 105, "channel": 0}, {"type": "note_off", "time": 557, "note": 60, "velocity": 105, "channel": 0}, {"type": "note_on", "time": 50, "note": 57, "velocity": 104, "channel": 0}, {"type": "note_off", "time": 608, "note": 57, "velocity": 104, "channel": 0}, {"type": "note_on", "time": 101, "note": 58, "velocity": 109, "channel": 0}, {"type": "note_off", "time": 507, "note": 58, "velocity": 109, "channel": 0}, {"type": "note_on", "time": 126, "note": 59, "velocity": 97, "channel": 0}, {"type": "note_off", "time": 786, "note": 59, "velocity": 97, "channel": 0}, {"type": "note_on", "time": 1217, "note": 58, "velocity": 108, "channel": 0}, {"type": "note_off", "time": 507, "note": 58, "velocity": 108, "channel": 0}, {"type": "note_on", "time": 50, "note": 57, "velocity": 109, "channel": 0}, {"type": "note_off", "time": 456, "note": 57, "velocity": 109, "channel": 0}, {"type": "note_on", "time": 253, "note": 58, "velocity": 107, "channel": 0}, {"type": "note_off", "time": 354, "note": 58, "velocity": 107, "channel": 0}, {"type": "note_on", "time": 25, "note": 56, "velocity": 107, "channel": 0}, {"type": "note_off", "time": 608, "note": 56, "velocity": 107, "channel": 0}, {"type": "note_on", "time": 14453, "note": 73, "velocity": 115, "channel": 0}, {"type": "note_off", "time": 532, "note": 73, "velocity": 115, "channel": 0}, {"type": "note_on", "time": 177, "note": 77, "velocity": 116, "channel": 0}, {"type": "note_off", "time": 456, "note": 77, "velocity": 116, "channel": 0}, {"type": "note_on", "time": 50, "note": 75, "velocity": 115, "channel": 0}, {"type": "note_off", "time": 836, "note": 75, "velocity": 115, "channel": 0}, {"type": "note_on", "time": 101, "note": 70, "velocity": 113, "channel": 0}, {"type": "note_off", "time": 431, "note": 70, "velocity": 113, "channel": 0}, {"type": "note_on", "time": 76, "note": 68, "velocity": 120, "channel": 0}, {"type": "note_off", "time": 633, "note": 68, "velocity": 120, "channel": 0}, {"type": "note_on", "time": 0, "note": 73, "velocity": 115, "channel": 0}, {"type": "note_off", "time": 557, "note": 73, "velocity": 115, "channel": 0}, {"type": "note_on", "time": 50, "note": 72, "velocity": 107, "channel": 0}, {"type": "note_off", "time": 2915, "note": 72, "velocity": 107, "channel": 0}, {"type": "note_on", "time": 126, "note": 68, "velocity": 106, "channel": 0}, {"type": "note_off", "time": 1242, "note": 68, "velocity": 106, "channel": 0}, {"type": "note_on", "time": 50, "note": 72, "velocity": 116, "channel": 0}, {"type": "note_off", "time": 431, "note": 72, "velocity": 116, "channel": 0}, {"type": "note_on", "time": 50, "note": 70, "velocity": 114, "channel": 0}, {"type": "note_off", "time": 608, "note": 70, "velocity": 114, "channel": 0}, {"type": "note_on", "time": 50, "note": 68, "velocity": 114, "channel": 0}, {"type": "note_off", "time": 405, "note": 68, "velocity": 114, "channel": 0}, {"type": "note_on", "time": 126, "note": 65, "velocity": 114, "channel": 0}, {"type": "note_off", "time": 633, "note": 65, "velocity": 114, "channel": 0}, {"type": "note_on", "time": 152, "note": 63, "velocity": 112, "channel": 0}, {"type": "note_off", "time": 456, "note": 63, "velocity": 112, "channel": 0}, {"type": "note_on", "time": 101, "note": 68, "velocity": 115, "channel": 0}, {"type": "note_off", "time": 583, "note": 68, "velocity": 115, "channel": 0}, {"type": "note_on", "time": 101, "note": 67, "velocity": 112, "channel": 0}, {"type": "note_off", "time": 405, "note": 67, "velocity": 112, "channel": 0}, {"type": "note_on", "time": 177, "note": 61, "velocity": 113, "channel": 0}, {"type": "note_off", "time": 836, "note": 61, "velocity": 113, "channel": 0}, {"type": "note_on", "time": 76, "note": 58, "velocity": 108, "channel": 0}, {"type": "note_off", "time": 329, "note": 58, "velocity": 108, "channel": 0}, {"type": "note_on", "time": 0, "note": 60, "velocity": 109, "channel": 0}, {"type": "note_off", "time": 633, "note": 60, "velocity": 109, "channel": 0}, {"type": "note_on", "time": 228, "note": 63, "velocity": 113, "channel": 0}, {"type": "note_off", "time": 481, "note": 63, "velocity": 113, "channel": 0}, {"type": "note_on", "time": 101, "note": 58, "velocity": 107, "channel": 0}, {"type": "note_off", "time": 354, "note": 58, "velocity": 107, "channel": 0}, {"type": "note_on", "time": 354, "note": 53, "velocity": 106, "channel": 0}, {"type": "note_off", "time": 760, "note": 53, "velocity": 106, "channel": 0}, {"type": "note_on", "time": 329, "note": 56, "velocity": 119, "channel": 0}, {"type": "note_off", "time": 278, "note": 56, "velocity": 119, "channel": 0}, {"type": "note_on", "time": 76, "note": 55, "velocity": 116, "channel": 0}, {"type": "note_off", "time": 684, "note": 55, "velocity": 116, "channel": 0}, {"type": "note_on", "time": 25, "note": 56, "velocity": 112, "channel": 0}, {"type": "note_off", "time": 532, "note": 56, "velocity": 112, "channel": 0}, {"type": "note_on", "time": 177, "note": 58, "velocity": 106, "channel": 0}, {"type": "note_off", "time": 709, "note": 58, "velocity": 106, "channel": 0}, {"type": "note_on", "time": 126, "note": 60, "velocity": 108, "channel": 0}, {"type": "note_off", "time": 709, "note": 60, "velocity": 108, "channel": 0}, {"type": "note_on", "time": 304, "note": 65, "velocity": 117, "channel": 0}, {"type": "note_off", "time": 481, "note": 65, "velocity": 117, "channel": 0}, {"type": "note_on", "time": 50, "note": 61, "velocity": 119, "channel": 0}, {"type": "note_off", "time": 608, "note": 61, "velocity": 119, "channel": 0}, {"type": "note_on", "time": 50, "note": 63, "velocity": 115, "channel": 0}, {"type": "note_off", "time": 405, "note": 63, "velocity": 115, "channel": 0}, {"type": "note_on", "time": 152, "note": 67, "velocity": 112, "channel": 0}, {"type": "note_off", "time": 507, "note": 67, "velocity": 112, "channel": 0}, {"type": "note_on", "time": 278, "note": 70, "velocity": 97, "channel": 0}, {"type": "note_off", "time": 380, "note": 70, "velocity": 97, "channel": 0}, {"type": "note_on", "time": 101, "note": 73, "velocity": 115, "channel": 0}, {"type": "note_off", "time": 633, "note": 73, "velocity": 115, "channel": 0}, {"type": "note_on", "time": 152, "note": 70, "velocity": 109, "channel": 0}, {"type": "note_off", "time": 304, "note": 70, "velocity": 109, "channel": 0}, {"type": "note_on", "time": 0, "note": 65, "velocity": 109, "channel": 0}, {"type": "note_off", "time": 684, "note": 65, "velocity": 109, "channel": 0}, {"type": "note_on", "time": 278, "note": 63, "velocity": 112, "channel": 0}, {"type": "note_off", "time": 380, "note": 63, "velocity": 112, "channel": 0}, {"type": "note_on", "time": 253, "note": 70, "velocity": 109, "channel": 0}, {"type": "note_off", "time": 481, "note": 70, "velocity": 109, "channel": 0}, {"type": "note_on", "time": 25, "note": 68, "velocity": 108, "channel": 0}, {"type": "note_off", "time": 557, "note": 68, "velocity": 108, "channel": 0}, {"type": "note_on", "time": 76, "note": 65, "velocity": 109, "channel": 0}, {"type": "note_off", "time": 583, "note": 65, "velocity": 109, "channel": 0}, {"type": "note_on", "time": 253, "note": 63, "velocity": 106, "channel": 0}, {"type": "note_off", "time": 2662, "note": 63, "velocity": 106, "channel": 0}, {"type": "note_on", "time": 354, "note": 75, "velocity": 116, "channel": 0}, {"type": "note_off", "time": 1876, "note": 75, "velocity": 116, "channel": 0}, {"type": "note_on", "time": 0, "note": 72, "velocity": 106, "channel": 0}, {"type": "note_off", "time": 456, "note": 72, "velocity": 106, "channel": 0}, {"type": "note_on", "time": 76, "note": 70, "velocity": 107, "channel": 0}, {"type": "note_off", "time": 633, "note": 70, "velocity": 107, "channel": 0}, {"type": "note_on", "time": 76, "note": 65, "velocity": 108, "channel": 0}, {"type": "note_off", "time": 633, "note": 65, "velocity": 108, "channel": 0}, {"type": "note_on", "time": 3828, "note": 58, "velocity": 101, "channel": 0}, {"type": "note_off", "time": 557, "note": 58, "velocity": 101, "channel": 0}, {"type": "note_on", "time": 101, "note": 61, "velocity": 113, "channel": 0}, {"type": "note_off", "time": 456, "note": 61, "velocity": 113, "channel": 0}, {"type": "note_on", "time": 50, "note": 65, "velocity": 111, "channel": 0}, {"type": "note_off", "time": 532, "note": 65, "velocity": 111, "channel": 0}, {"type": "note_on", "time": 228, "note": 61, "velocity": 114, "channel": 0}, {"type": "note_off", "time": 481, "note": 61, "velocity": 114, "channel": 0}, {"type": "note_on", "time": 25, "note": 63, "velocity": 117, "channel": 0}, {"type": "note_off", "time": 507, "note": 63, "velocity": 117, "channel": 0}, {"type": "note_on", "time": 152, "note": 67, "velocity": 110, "channel": 0}, {"type": "note_off", "time": 583, "note": 67, "velocity": 110, "channel": 0}, {"type": "note_on", "time": 101, "note": 70, "velocity": 99, "channel": 0}, {"type": "note_off", "time": 431, "note": 70, "velocity": 99, "channel": 0}, {"type": "note_on", "time": 76, "note": 73, "velocity": 115, "channel": 0}, {"type": "note_off", "time": 380, "note": 73, "velocity": 115, "channel": 0}, {"type": "note_on", "time": 126, "note": 75, "velocity": 116, "channel": 0}, {"type": "note_off", "time": 608, "note": 75, "velocity": 116, "channel": 0}, {"type": "note_on", "time": 76, "note": 77, "velocity": 106, "channel": 0}, {"type": "note_off", "time": 608, "note": 77, "velocity": 106, "channel": 0}, {"type": "note_on", "time": 50, "note": 72, "velocity": 112, "channel": 0}, {"type": "note_off", "time": 532, "note": 72, "velocity": 112, "channel": 0}, {"type": "note_on", "time": 101, "note": 75, "velocity": 113, "channel": 0}, {"type": "note_off", "time": 583, "note": 75, "velocity": 113, "channel": 0}, {"type": "note_on", "time": 101, "note": 73, "velocity": 112, "channel": 0}, {"type": "note_off", "time": 507, "note": 73, "velocity": 112, "channel": 0}, {"type": "note_on", "time": 304, "note": 65, "velocity": 100, "channel": 0}, {"type": "note_off", "time": 329, "note": 65, "velocity": 100, "channel": 0}, {"type": "note_on", "time": 50, "note": 70, "velocity": 110, "channel": 0}, {"type": "note_off", "time": 557, "note": 70, "velocity": 110, "channel": 0}, {"type": "note_on", "time": 101, "note": 73, "velocity": 114, "channel": 0}, {"type": "note_off", "time": 456, "note": 73, "velocity": 114, "channel": 0}, {"type": "note_on", "time": 126, "note": 70, "velocity": 110, "channel": 0}, {"type": "note_off", "time": 532, "note": 70, "velocity": 110, "channel": 0}, {"type": "note_on", "time": 76, "note": 72, "velocity": 110, "channel": 0}, {"type": "note_off", "time": 557, "note": 72, "velocity": 110, "channel": 0}, {"type": "note_on", "time": 76, "note": 70, "velocity": 109, "channel": 0}, {"type": "note_off", "time": 2003, "note": 70, "velocity": 109, "channel": 0}, {"type": "note_on", "time": 50, "note": 68, "velocity": 107, "channel": 0}, {"type": "note_off", "time": 431, "note": 68, "velocity": 107, "channel": 0}, {"type": "note_on", "time": 126, "note": 63, "velocity": 114, "channel": 0}, {"type": "note_off", "time": 608, "note": 63, "velocity": 114, "channel": 0}, {"type": "note_on", "time": 253, "note": 65, "velocity": 107, "channel": 0}, {"type": "note_off", "time": 329, "note": 65, "velocity": 107, "channel": 0}, {"type": "note_on", "time": 25, "note": 68, "velocity": 103, "channel": 0}, {"type": "note_off", "time": 1191, "note": 68, "velocity": 103, "channel": 0}, {"type": "note_on", "time": 2307, "note": 72, "velocity": 116, "channel": 0}, {"type": "note_off", "time": 380, "note": 72, "velocity": 116, "channel": 0}, {"type": "note_on", "time": 101, "note": 70, "velocity": 114, "channel": 0}, {"type": "note_off", "time": 456, "note": 70, "velocity": 114, "channel": 0}, {"type": "note_on", "time": 177, "note": 68, "velocity": 114, "channel": 0}, {"type": "note_off", "time": 633, "note": 68, "velocity": 114, "channel": 0}, {"type": "note_on", "time": 456, "note": 63, "velocity": 118, "channel": 0}, {"type": "note_off", "time": 456, "note": 63, "velocity": 118, "channel": 0}, {"type": "note_on", "time": 25, "note": 62, "velocity": 116, "channel": 0}, {"type": "note_off", "time": 836, "note": 62, "velocity": 116, "channel": 0}, {"type": "note_on", "time": 608, "note": 65, "velocity": 116, "channel": 0}, {"type": "note_off", "time": 684, "note": 65, "velocity": 116, "channel": 0}, {"type": "note_on", "time": 2079, "note": 71, "velocity": 121, "channel": 0}, {"type": "note_off", "time": 354, "note": 71, "velocity": 121, "channel": 0}, {"type": "note_on", "time": 25, "note": 70, "velocity": 112, "channel": 0}, {"type": "note_off", "time": 329, "note": 70, "velocity": 112, "channel": 0}, {"type": "note_on", "time": 50, "note": 69, "velocity": 119, "channel": 0}, {"type": "note_off", "time": 354, "note": 69, "velocity": 119, "channel": 0}, {"type": "note_on", "time": 50, "note": 68, "velocity": 117, "channel": 0}, {"type": "note_off", "time": 557, "note": 68, "velocity": 117, "channel": 0}, {"type": "note_on", "time": 202, "note": 66, "velocity": 111, "channel": 0}, {"type": "note_off", "time": 354, "note": 66, "velocity": 111, "channel": 0}, {"type": "note_on", "time": 101, "note": 65, "velocity": 116, "channel": 0}, {"type": "note_off", "time": 507, "note": 65, "velocity": 116, "channel": 0}, {"type": "note_on", "time": 278, "note": 63, "velocity": 119, "channel": 0}, {"type": "note_off", "time": 481, "note": 63, "velocity": 119, "channel": 0}, {"type": "note_on", "time": 177, "note": 62, "velocity": 117, "channel": 0}, {"type": "note_off", "time": 354, "note": 62, "velocity": 117, "channel": 0}, {"type": "note_on", "time": 228, "note": 59, "velocity": 113, "channel": 0}, {"type": "note_off", "time": 405, "note": 59, "velocity": 113, "channel": 0}, {"type": "note_on", "time": 76, "note": 58, "velocity": 109, "channel": 0}, {"type": "note_off", "time": 354, "note": 58, "velocity": 109, "channel": 0}, {"type": "note_on", "time": 177, "note": 57, "velocity": 113, "channel": 0}, {"type": "note_off", "time": 405, "note": 57, "velocity": 113, "channel": 0}, {"type": "note_on", "time": 177, "note": 56, "velocity": 113, "channel": 0}, {"type": "note_off", "time": 557, "note": 56, "velocity": 113, "channel": 0}, {"type": "note_on", "time": 202, "note": 58, "velocity": 109, "channel": 0}, {"type": "note_off", "time": 431, "note": 58, "velocity": 109, "channel": 0}, {"type": "note_on", "time": 101, "note": 54, "velocity": 105, "channel": 0}, {"type": "note_off", "time": 1191, "note": 54, "velocity": 105, "channel": 0}, {"type": "note_on", "time": 380, "note": 58, "velocity": 94, "channel": 0}, {"type": "note_off", "time": 304, "note": 58, "velocity": 94, "channel": 0}, {"type": "note_on", "time": 25, "note": 63, "velocity": 105, "channel": 0}, {"type": "note_off", "time": 304, "note": 63, "velocity": 105, "channel": 0}, {"type": "note_on", "time": 101, "note": 66, "velocity": 106, "channel": 0}, {"type": "note_on", "time": 329, "note": 70, "velocity": 115, "channel": 0}, {"type": "note_off", "time": 0, "note": 66, "velocity": 106, "channel": 0}, {"type": "note_off", "time": 583, "note": 70, "velocity": 115, "channel": 0}, {"type": "note_on", "time": 253, "note": 66, "velocity": 112, "channel": 0}, {"type": "note_off", "time": 304, "note": 66, "velocity": 112, "channel": 0}, {"type": "note_on", "time": 177, "note": 63, "velocity": 114, "channel": 0}, {"type": "note_off", "time": 532, "note": 63, "velocity": 114, "channel": 0}, {"type": "note_on", "time": 786, "note": 68, "velocity": 113, "channel": 0}, {"type": "note_off", "time": 532, "note": 68, "velocity": 113, "channel": 0}, {"type": "note_on", "time": 50, "note": 66, "velocity": 109, "channel": 0}, {"type": "note_off", "time": 583, "note": 66, "velocity": 109, "channel": 0}, {"type": "note_on", "time": 3397, "note": 76, "velocity": 121, "channel": 0}, {"type": "note_off", "time": 735, "note": 76, "velocity": 121, "channel": 0}, {"type": "note_on", "time": 25, "note": 78, "velocity": 111, "channel": 0}, {"type": "note_off", "time": 456, "note": 78, "velocity": 111, "channel": 0}, {"type": "note_on", "time": 0, "note": 76, "velocity": 119, "channel": 0}, {"type": "note_off", "time": 912, "note": 76, "velocity": 119, "channel": 0}, {"type": "note_on", "time": 101, "note": 75, "velocity": 111, "channel": 0}, {"type": "note_off", "time": 1115, "note": 75, "velocity": 111, "channel": 0}, {"type": "note_on", "time": 431, "note": 73, "velocity": 115, "channel": 0}, {"type": "note_off", "time": 481, "note": 73, "velocity": 115, "channel": 0}, {"type": "note_on", "time": 152, "note": 72, "velocity": 112, "channel": 0}, {"type": "note_off", "time": 557, "note": 72, "velocity": 112, "channel": 0}, {"type": "note_on", "time": 101, "note": 67, "velocity": 109, "channel": 0}, {"type": "note_off", "time": 557, "note": 67, "velocity": 109, "channel": 0}, {"type": "note_on", "time": 25, "note": 64, "velocity": 114, "channel": 0}, {"type": "note_off", "time": 862, "note": 64, "velocity": 114, "channel": 0}, {"type": "note_on", "time": 938, "note": 69, "velocity": 121, "channel": 0}, {"type": "note_off", "time": 481, "note": 69, "velocity": 121, "channel": 0}, {"type": "note_on", "time": 101, "note": 70, "velocity": 112, "channel": 0}, {"type": "note_off", "time": 507, "note": 70, "velocity": 112, "channel": 0}, {"type": "note_on", "time": 50, "note": 71, "velocity": 112, "channel": 0}, {"type": "note_off", "time": 431, "note": 71, "velocity": 112, "channel": 0}, {"type": "note_on", "time": 101, "note": 73, "velocity": 114, "channel": 0}, {"type": "note_off", "time": 507, "note": 73, "velocity": 114, "channel": 0}, {"type": "note_on", "time": 101, "note": 70, "velocity": 111, "channel": 0}, {"type": "note_off", "time": 1343, "note": 70, "velocity": 111, "channel": 0}, {"type": "note_on", "time": 101, "note": 68, "velocity": 113, "channel": 0}, {"type": "note_off", "time": 380, "note": 68, "velocity": 113, "channel": 0}, {"type": "note_on", "time": 25, "note": 66, "velocity": 108, "channel": 0}, {"type": "note_off", "time": 633, "note": 66, "velocity": 108, "channel": 0}, {"type": "note_on", "time": 152, "note": 63, "velocity": 110, "channel": 0}, {"type": "note_off", "time": 304, "note": 63, "velocity": 110, "channel": 0}, {"type": "note_on", "time": 380, "note": 69, "velocity": 117, "channel": 0}, {"type": "note_off", "time": 912, "note": 69, "velocity": 117, "channel": 0}, {"type": "note_on", "time": 101, "note": 70, "velocity": 111, "channel": 0}, {"type": "note_off", "time": 608, "note": 70, "velocity": 111, "channel": 0}, {"type": "note_on", "time": 25, "note": 69, "velocity": 117, "channel": 0}, {"type": "note_off", "time": 583, "note": 69, "velocity": 117, "channel": 0}, {"type": "note_on", "time": 126, "note": 68, "velocity": 108, "channel": 0}, {"type": "note_off", "time": 507, "note": 68, "velocity": 108, "channel": 0}, {"type": "note_on", "time": 152, "note": 66, "velocity": 107, "channel": 0}, {"type": "note_off", "time": 405, "note": 66, "velocity": 107, "channel": 0}, {"type": "note_on", "time": 126, "note": 65, "velocity": 109, "channel": 0}, {"type": "note_off", "time": 532, "note": 65, "velocity": 109, "channel": 0}, {"type": "note_on", "time": 202, "note": 64, "velocity": 116, "channel": 0}, {"type": "note_off", "time": 507, "note": 64, "velocity": 116, "channel": 0}, {"type": "note_on", "time": 126, "note": 63, "velocity": 113, "channel": 0}, {"type": "note_off", "time": 431, "note": 63, "velocity": 113, "channel": 0}, {"type": "note_on", "time": 152, "note": 61, "velocity": 118, "channel": 0}, {"type": "note_off", "time": 456, "note": 61, "velocity": 118, "channel": 0}, {"type": "note_on", "time": 152, "note": 60, "velocity": 117, "channel": 0}, {"type": "note_off", "time": 507, "note": 60, "velocity": 117, "channel": 0}, {"type": "note_on", "time": 202, "note": 58, "velocity": 98, "channel": 0}, {"type": "note_off", "time": 507, "note": 58, "velocity": 98, "channel": 0}, {"type": "note_on", "time": 101, "note": 57, "velocity": 106, "channel": 0}, {"type": "note_off", "time": 405, "note": 57, "velocity": 106, "channel": 0}, {"type": "note_on", "time": 50, "note": 58, "velocity": 99, "channel": 0}, {"type": "note_off", "time": 608, "note": 58, "velocity": 99, "channel": 0}, {"type": "note_on", "time": 50, "note": 56, "velocity": 99, "channel": 0}, {"type": "note_off", "time": 684, "note": 56, "velocity": 99, "channel": 0}, {"type": "note_on", "time": 11283, "note": 54, "velocity": 119, "channel": 0}, {"type": "note_off", "time": 557, "note": 54, "velocity": 119, "channel": 0}, {"type": "note_on", "time": 101, "note": 57, "velocity": 112, "channel": 0}, {"type": "note_off", "time": 456, "note": 57, "velocity": 112, "channel": 0}, {"type": "note_on", "time": 101, "note": 59, "velocity": 113, "channel": 0}, {"type": "note_off", "time": 456, "note": 59, "velocity": 113, "channel": 0}, {"type": "note_on", "time": 152, "note": 63, "velocity": 113, "channel": 0}, {"type": "note_off", "time": 481, "note": 63, "velocity": 113, "channel": 0}, {"type": "note_on", "time": 0, "note": 66, "velocity": 112, "channel": 0}, {"type": "note_off", "time": 532, "note": 66, "velocity": 112, "channel": 0}, {"type": "note_on", "time": 101, "note": 69, "velocity": 120, "channel": 0}, {"type": "note_off", "time": 481, "note": 69, "velocity": 120, "channel": 0}, {"type": "note_on", "time": 101, "note": 71, "velocity": 115, "channel": 0}, {"type": "note_off", "time": 481, "note": 71, "velocity": 115, "channel": 0}, {"type": "note_on", "time": 202, "note": 75, "velocity": 121, "channel": 0}, {"type": "note_off", "time": 557, "note": 75, "velocity": 121, "channel": 0}, {"type": "note_on", "time": 25, "note": 76, "velocity": 122, "channel": 0}, {"type": "note_off", "time": 431, "note": 76, "velocity": 122, "channel": 0}, {"type": "note_on", "time": 76, "note": 77, "velocity": 120, "channel": 0}, {"type": "note_off", "time": 684, "note": 77, "velocity": 120, "channel": 0}, {"type": "note_on", "time": 76, "note": 75, "velocity": 116, "channel": 0}, {"type": "note_off", "time": 633, "note": 75, "velocity": 116, "channel": 0}, {"type": "note_on", "time": 177, "note": 73, "velocity": 109, "channel": 0}, {"type": "note_off", "time": 2434, "note": 73, "velocity": 109, "channel": 0}, {"type": "note_on", "time": 152, "note": 71, "velocity": 112, "channel": 0}, {"type": "note_off", "time": 405, "note": 71, "velocity": 112, "channel": 0}, {"type": "note_on", "time": 76, "note": 70, "velocity": 111, "channel": 0}, {"type": "note_off", "time": 532, "note": 70, "velocity": 111, "channel": 0}, {"type": "note_on", "time": 25, "note": 69, "velocity": 113, "channel": 0}, {"type": "note_off", "time": 2966, "note": 69, "velocity": 113, "channel": 0}, {"type": "note_on", "time": 278, "note": 65, "velocity": 111, "channel": 0}, {"type": "note_off", "time": 583, "note": 65, "velocity": 111, "channel": 0}, {"type": "note_on", "time": 101, "note": 63, "velocity": 118, "channel": 0}, {"type": "note_off", "time": 380, "note": 63, "velocity": 118, "channel": 0}, {"type": "note_on", "time": 126, "note": 59, "velocity": 108, "channel": 0}, {"type": "note_off", "time": 684, "note": 59, "velocity": 108, "channel": 0}, {"type": "note_on", "time": 101, "note": 57, "velocity": 110, "channel": 0}, {"type": "note_off", "time": 583, "note": 57, "velocity": 110, "channel": 0}, {"type": "note_on", "time": 50, "note": 63, "velocity": 96, "channel": 0}, {"type": "note_off", "time": 481, "note": 63, "velocity": 96, "channel": 0}, {"type": "note_on", "time": 0, "note": 61, "velocity": 117, "channel": 0}, {"type": "note_off", "time": 481, "note": 61, "velocity": 117, "channel": 0}, {"type": "note_on", "time": 177, "note": 55, "velocity": 119, "channel": 0}, {"type": "note_off", "time": 633, "note": 55, "velocity": 119, "channel": 0}, {"type": "note_on", "time": 50, "note": 56, "velocity": 113, "channel": 0}, {"type": "note_off", "time": 836, "note": 56, "velocity": 113, "channel": 0}, {"type": "note_on", "time": 431, "note": 62, "velocity": 114, "channel": 0}, {"type": "note_off", "time": 456, "note": 62, "velocity": 114, "channel": 0}, {"type": "note_on", "time": 228, "note": 59, "velocity": 115, "channel": 0}, {"type": "note_off", "time": 481, "note": 59, "velocity": 115, "channel": 0}, {"type": "note_on", "time": 25, "note": 56, "velocity": 112, "channel": 0}, {"type": "note_off", "time": 481, "note": 56, "velocity": 112, "channel": 0}, {"type": "note_on", "time": 126, "note": 55, "velocity": 106, "channel": 0}, {"type": "note_off", "time": 608, "note": 55, "velocity": 106, "channel": 0}, {"type": "note_on", "time": 0, "note": 57, "velocity": 123, "channel": 0}, {"type": "note_on", "time": 380, "note": 59, "velocity": 110, "channel": 0}, {"type": "note_off", "time": 0, "note": 57, "velocity": 123, "channel": 0}, {"type": "note_off", "time": 735, "note": 59, "velocity": 110, "channel": 0}, {"type": "note_on", "time": 50, "note": 64, "velocity": 115, "channel": 0}, {"type": "note_on", "time": 684, "note": 65, "velocity": 111, "channel": 0}, {"type": "note_off", "time": 0, "note": 64, "velocity": 115, "channel": 0}, {"type": "note_off", "time": 608, "note": 65, "velocity": 111, "channel": 0}, {"type": "note_on", "time": 76, "note": 68, "velocity": 111, "channel": 0}, {"type": "note_off", "time": 532, "note": 68, "velocity": 111, "channel": 0}, {"type": "note_on", "time": 50, "note": 71, "velocity": 109, "channel": 0}, {"type": "note_off", "time": 507, "note": 71, "velocity": 109, "channel": 0}, {"type": "note_on", "time": 126, "note": 73, "velocity": 109, "channel": 0}, {"type": "note_off", "time": 684, "note": 73, "velocity": 109, "channel": 0}, {"type": "note_on", "time": 3854, "note": 72, "velocity": 117, "channel": 0}, {"type": "note_off", "time": 532, "note": 72, "velocity": 117, "channel": 0}, {"type": "note_on", "time": 76, "note": 73, "velocity": 110, "channel": 0}, {"type": "note_off", "time": 431, "note": 73, "velocity": 110, "channel": 0}, {"type": "note_on", "time": 50, "note": 70, "velocity": 111, "channel": 0}, {"type": "note_off", "time": 557, "note": 70, "velocity": 111, "channel": 0}, {"type": "note_on", "time": 126, "note": 66, "velocity": 113, "channel": 0}, {"type": "note_off", "time": 431, "note": 66, "velocity": 113, "channel": 0}, {"type": "note_on", "time": 101, "note": 63, "velocity": 117, "channel": 0}, {"type": "note_off", "time": 608, "note": 63, "velocity": 117, "channel": 0}, {"type": "note_on", "time": 228, "note": 65, "velocity": 105, "channel": 0}, {"type": "note_off", "time": 456, "note": 65, "velocity": 105, "channel": 0}, {"type": "note_on", "time": 25, "note": 70, "velocity": 113, "channel": 0}, {"type": "note_off", "time": 1242, "note": 70, "velocity": 113, "channel": 0}, {"type": "note_on", "time": 76, "note": 68, "velocity": 113, "channel": 0}, {"type": "note_off", "time": 507, "note": 68, "velocity": 113, "channel": 0}, {"type": "note_on", "time": 278, "note": 65, "velocity": 114, "channel": 0}, {"type": "note_off", "time": 431, "note": 65, "velocity": 114, "channel": 0}, {"type": "note_on", "time": 50, "note": 63, "velocity": 115, "channel": 0}, {"type": "note_off", "time": 507, "note": 63, "velocity": 115, "channel": 0}, {"type": "note_on", "time": 228, "note": 59, "velocity": 103, "channel": 0}, {"type": "note_off", "time": 380, "note": 59, "velocity": 103, "channel": 0}, {"type": "note_on", "time": 50, "note": 61, "velocity": 113, "channel": 0}, {"type": "note_off", "time": 608, "note": 61, "velocity": 113, "channel": 0}, {"type": "note_on", "time": 228, "note": 56, "velocity": 111, "channel": 0}, {"type": "note_off", "time": 912, "note": 56, "velocity": 111, "channel": 0}, {"type": "note_on", "time": 228, "note": 61, "velocity": 111, "channel": 0}, {"type": "note_off", "time": 456, "note": 61, "velocity": 111, "channel": 0}, {"type": "note_on", "time": 152, "note": 59, "velocity": 109, "channel": 0}, {"type": "note_off", "time": 709, "note": 59, "velocity": 109, "channel": 0}, {"type": "note_on", "time": 50, "note": 54, "velocity": 119, "channel": 0}, {"type": "note_off", "time": 507, "note": 54, "velocity": 119, "channel": 0}, {"type": "note_on", "time": 25, "note": 56, "velocity": 112, "channel": 0}, {"type": "note_off", "time": 836, "note": 56, "velocity": 112, "channel": 0}, {"type": "note_on", "time": 1698, "note": 57, "velocity": 106, "channel": 0}, {"type": "note_off", "time": 583, "note": 57, "velocity": 106, "channel": 0}, {"type": "note_on", "time": 659, "note": 60, "velocity": 108, "channel": 0}, {"type": "note_off", "time": 557, "note": 60, "velocity": 108, "channel": 0}, {"type": "note_on", "time": 633, "note": 58, "velocity": 107, "channel": 0}, {"type": "note_off", "time": 583, "note": 58, "velocity": 107, "channel": 0}, {"type": "note_on", "time": 228, "note": 63, "velocity": 102, "channel": 0}, {"type": "note_off", "time": 1876, "note": 63, "velocity": 102, "channel": 0}, {"type": "note_on", "time": 25, "note": 60, "velocity": 103, "channel": 0}, {"type": "note_off", "time": 583, "note": 60, "velocity": 103, "channel": 0}, {"type": "note_on", "time": 50, "note": 63, "velocity": 102, "channel": 0}, {"type": "note_off", "time": 557, "note": 63, "velocity": 102, "channel": 0}, {"type": "note_on", "time": 253, "note": 61, "velocity": 101, "channel": 0}, {"type": "note_off", "time": 1496, "note": 61, "velocity": 101, "channel": 0}, {"type": "note_on", "time": 354, "note": 61, "velocity": 108, "channel": 0}, {"type": "note_off", "time": 456, "note": 61, "velocity": 108, "channel": 0}, {"type": "note_on", "time": 76, "note": 60, "velocity": 95, "channel": 0}, {"type": "note_off", "time": 988, "note": 60, "velocity": 95, "channel": 0}, {"type": "note_on", "time": 1014, "note": 57, "velocity": 99, "channel": 0}, {"type": "note_off", "time": 380, "note": 57, "velocity": 99, "channel": 0}, {"type": "note_on", "time": 177, "note": 60, "velocity": 95, "channel": 0}, {"type": "note_off", "time": 608, "note": 60, "velocity": 95, "channel": 0}, {"type": "note_on", "time": 76, "note": 58, "velocity": 97, "channel": 0}, {"type": "note_off", "time": 431, "note": 58, "velocity": 97, "channel": 0}, {"type": "note_on", "time": 177, "note": 56, "velocity": 97, "channel": 0}, {"type": "note_off", "time": 481, "note": 56, "velocity": 97, "channel": 0}, {"type": "note_on", "time": 76, "note": 55, "velocity": 94, "channel": 0}, {"type": "note_off", "time": 532, "note": 55, "velocity": 94, "channel": 0}, {"type": "note_on", "time": 19219, "note": 55, "velocity": 97, "channel": 0}, {"type": "note_off", "time": 532, "note": 55, "velocity": 97, "channel": 0}, {"type": "note_on", "time": 25, "note": 56, "velocity": 104, "channel": 0}, {"type": "note_off", "time": 405, "note": 56, "velocity": 104, "channel": 0}, {"type": "note_on", "time": 76, "note": 53, "velocity": 99, "channel": 0}, {"type": "note_off", "time": 608, "note": 53, "velocity": 99, "channel": 0}, {"type": "note_on", "time": 101, "note": 56, "velocity": 104, "channel": 0}, {"type": "note_off", "time": 507, "note": 56, "velocity": 104, "channel": 0}, {"type": "note_on", "time": 76, "note": 55, "velocity": 115, "channel": 0}, {"type": "note_off", "time": 507, "note": 55, "velocity": 115, "channel": 0}, {"type": "note_on", "time": 76, "note": 56, "velocity": 119, "channel": 0}, {"type": "note_off", "time": 507, "note": 56, "velocity": 119, "channel": 0}, {"type": "note_on", "time": 101, "note": 58, "velocity": 101, "channel": 0}, {"type": "note_off", "time": 557, "note": 58, "velocity": 101, "channel": 0}, {"type": "note_on", "time": 126, "note": 60, "velocity": 105, "channel": 0}, {"type": "note_off", "time": 608, "note": 60, "velocity": 105, "channel": 0}, {"type": "note_on", "time": 50, "note": 61, "velocity": 107, "channel": 0}, {"type": "note_off", "time": 557, "note": 61, "velocity": 107, "channel": 0}, {"type": "note_on", "time": 50, "note": 63, "velocity": 107, "channel": 0}, {"type": "note_off", "time": 557, "note": 63, "velocity": 107, "channel": 0}, {"type": "note_on", "time": 50, "note": 65, "velocity": 104, "channel": 0}, {"type": "note_off", "time": 507, "note": 65, "velocity": 104, "channel": 0}, {"type": "note_on", "time": 50, "note": 67, "velocity": 98, "channel": 0}, {"type": "note_off", "time": 659, "note": 67, "velocity": 98, "channel": 0}, {"type": "note_on", "time": 101, "note": 68, "velocity": 97, "channel": 0}, {"type": "note_off", "time": 481, "note": 68, "velocity": 97, "channel": 0}, {"type": "note_on", "time": 152, "note": 70, "velocity": 97, "channel": 0}, {"type": "note_off", "time": 583, "note": 70, "velocity": 97, "channel": 0}, {"type": "note_on", "time": 76, "note": 72, "velocity": 93, "channel": 0}, {"type": "note_off", "time": 912, "note": 72, "velocity": 93, "channel": 0}, {"type": "note_on", "time": 228, "note": 72, "velocity": 91, "channel": 0}, {"type": "note_off", "time": 659, "note": 72, "velocity": 91, "channel": 0}, {"type": "note_on", "time": 329, "note": 70, "velocity": 95, "channel": 0}, {"type": "note_off", "time": 735, "note": 70, "velocity": 95, "channel": 0}, {"type": "note_on", "time": 456, "note": 70, "velocity": 97, "channel": 0}, {"type": "note_off", "time": 456, "note": 70, "velocity": 97, "channel": 0}, {"type": "note_on", "time": 50, "note": 68, "velocity": 99, "channel": 0}, {"type": "note_off", "time": 532, "note": 68, "velocity": 99, "channel": 0}, {"type": "note_on", "time": 329, "note": 65, "velocity": 102, "channel": 0}, {"type": "note_off", "time": 380, "note": 65, "velocity": 102, "channel": 0}, {"type": "note_on", "time": 126, "note": 63, "velocity": 109, "channel": 0}, {"type": "note_off", "time": 659, "note": 63, "velocity": 109, "channel": 0}, {"type": "note_on", "time": 76, "note": 61, "velocity": 107, "channel": 0}, {"type": "note_off", "time": 532, "note": 61, "velocity": 107, "channel": 0}, {"type": "note_on", "time": 25, "note": 63, "velocity": 106, "channel": 0}, {"type": "note_off", "time": 1141, "note": 63, "velocity": 106, "channel": 0}, {"type": "note_on", "time": 0, "note": 65, "velocity": 85, "channel": 0}, {"type": "note_off", "time": 6262, "note": 65, "velocity": 85, "channel": 0}, {"type": "note_on", "time": 101, "note": 61, "velocity": 100, "channel": 0}, {"type": "note_off", "time": 836, "note": 61, "velocity": 100, "channel": 0}, {"type": "note_on", "time": 25, "note": 60, "velocity": 93, "channel": 0}, {"type": "note_off", "time": 608, "note": 60, "velocity": 93, "channel": 0}, {"type": "note_on", "time": 4716, "note": 60, "velocity": 105, "channel": 0}, {"type": "note_off", "time": 278, "note": 60, "velocity": 105, "channel": 0}, {"type": "note_on", "time": 25, "note": 61, "velocity": 106, "channel": 0}, {"type": "note_off", "time": 583, "note": 61, "velocity": 106, "channel": 0}, {"type": "note_on", "time": 50, "note": 63, "velocity": 107, "channel": 0}, {"type": "note_off", "time": 481, "note": 63, "velocity": 107, "channel": 0}, {"type": "note_on", "time": 25, "note": 60, "velocity": 98, "channel": 0}, {"type": "note_off", "time": 684, "note": 60, "velocity": 98, "channel": 0}, {"type": "note_on", "time": 76, "note": 61, "velocity": 106, "channel": 0}, {"type": "note_off", "time": 557, "note": 61, "velocity": 106, "channel": 0}, {"type": "note_on", "time": 76, "note": 58, "velocity": 112, "channel": 0}, {"type": "note_off", "time": 507, "note": 58, "velocity": 112, "channel": 0}, {"type": "note_on", "time": 76, "note": 56, "velocity": 98, "channel": 0}, {"type": "note_off", "time": 507, "note": 56, "velocity": 98, "channel": 0}, {"type": "note_on", "time": 50, "note": 53, "velocity": 99, "channel": 0}, {"type": "note_off", "time": 608, "note": 53, "velocity": 99, "channel": 0}, {"type": "note_on", "time": 50, "note": 56, "velocity": 99, "channel": 0}, {"type": "note_off", "time": 608, "note": 56, "velocity": 99, "channel": 0}, {"type": "note_on", "time": 25, "note": 55, "velocity": 94, "channel": 0}, {"type": "note_off", "time": 583, "note": 55, "velocity": 94, "channel": 0}, {"type": "note_on", "time": 278, "note": 58, "velocity": 100, "channel": 0}, {"type": "note_off", "time": 456, "note": 58, "velocity": 100, "channel": 0}, {"type": "note_on", "time": 76, "note": 60, "velocity": 94, "channel": 0}, {"type": "note_off", "time": 354, "note": 60, "velocity": 94, "channel": 0}, {"type": "note_on", "time": 152, "note": 67, "velocity": 104, "channel": 0}, {"type": "note_off", "time": 633, "note": 67, "velocity": 104, "channel": 0}, {"type": "note_on", "time": 50, "note": 61, "velocity": 102, "channel": 0}, {"type": "note_off", "time": 532, "note": 61, "velocity": 102, "channel": 0}, {"type": "note_on", "time": 25, "note": 63, "velocity": 102, "channel": 0}, {"type": "note_off", "time": 481, "note": 63, "velocity": 102, "channel": 0}, {"type": "note_on", "time": 380, "note": 67, "velocity": 101, "channel": 0}, {"type": "note_off", "time": 456, "note": 67, "velocity": 101, "channel": 0}, {"type": "note_on", "time": 126, "note": 70, "velocity": 84, "channel": 0}, {"type": "note_off", "time": 431, "note": 70, "velocity": 84, "channel": 0}, {"type": "note_on", "time": 25, "note": 73, "velocity": 98, "channel": 0}, {"type": "note_off", "time": 608, "note": 73, "velocity": 98, "channel": 0}, {"type": "note_on", "time": 354, "note": 67, "velocity": 87, "channel": 0}, {"type": "note_off", "time": 329, "note": 67, "velocity": 87, "channel": 0}, {"type": "note_on", "time": 101, "note": 70, "velocity": 98, "channel": 0}, {"type": "note_off", "time": 532, "note": 70, "velocity": 98, "channel": 0}, {"type": "note_on", "time": 50, "note": 72, "velocity": 96, "channel": 0}, {"type": "note_off", "time": 481, "note": 72, "velocity": 96, "channel": 0}, {"type": "note_on", "time": 177, "note": 69, "velocity": 101, "channel": 0}, {"type": "note_off", "time": 988, "note": 69, "velocity": 101, "channel": 0}, {"type": "note_on", "time": 76, "note": 72, "velocity": 95, "channel": 0}, {"type": "note_off", "time": 709, "note": 72, "velocity": 95, "channel": 0}, {"type": "note_on", "time": 101, "note": 70, "velocity": 95, "channel": 0}, {"type": "note_off", "time": 659, "note": 70, "velocity": 95, "channel": 0}, {"type": "note_on", "time": 633, "note": 65, "velocity": 103, "channel": 0}, {"type": "note_off", "time": 481, "note": 65, "velocity": 103, "channel": 0}, {"type": "note_on", "time": 25, "note": 63, "velocity": 105, "channel": 0}, {"type": "note_off", "time": 735, "note": 63, "velocity": 105, "channel": 0}, {"type": "note_on", "time": 202, "note": 58, "velocity": 95, "channel": 0}, {"type": "note_off", "time": 329, "note": 58, "velocity": 95, "channel": 0}, {"type": "note_on", "time": 76, "note": 67, "velocity": 92, "channel": 0}, {"type": "note_off", "time": 1242, "note": 67, "velocity": 92, "channel": 0}, {"type": "note_on", "time": 177, "note": 65, "velocity": 96, "channel": 0}, {"type": "note_off", "time": 1242, "note": 65, "velocity": 96, "channel": 0}, {"type": "note_on", "time": 101, "note": 67, "velocity": 101, "channel": 0}, {"type": "note_off", "time": 1166, "note": 67, "velocity": 101, "channel": 0}, {"type": "note_on", "time": 152, "note": 65, "velocity": 82, "channel": 0}, {"type": "note_off", "time": 938, "note": 65, "velocity": 82, "channel": 0}, {"type": "note_on", "time": 1521, "note": 67, "velocity": 95, "channel": 0}, {"type": "note_off", "time": 1090, "note": 67, "velocity": 95, "channel": 0}, {"type": "note_on", "time": 76, "note": 65, "velocity": 95, "channel": 0}, {"type": "note_off", "time": 786, "note": 65, "velocity": 95, "channel": 0}, {"type": "note_on", "time": 633, "note": 67, "velocity": 95, "channel": 0}, {"type": "note_off", "time": 1014, "note": 67, "velocity": 95, "channel": 0}, {"type": "note_on", "time": 177, "note": 65, "velocity": 93, "channel": 0}, {"type": "note_off", "time": 1419, "note": 65, "velocity": 93, "channel": 0}, {"type": "end_of_track", "time": 0}]]}