{"ticks_per_beat": 840, "tracks": [[{"type": "track_name", "name": "Melody", "time": 0}, {"type": "set_tempo", "tempo": 444444, "time": 0}, {"type": "key_signature", "key": "D", "time": 0}, {"type": "time_signature", "numerator": 4, "denominator": 4, "clocks_per_click": 24, "notated_32nd_notes_per_beat": 8, "time": 0}, {"type": "note_on", "time": 19251, "note": 69, "velocity": 112, "channel": 0}, {"type": "note_off", "time": 296, "note": 69, "velocity": 112, "channel": 0}, {"type": "note_on", "time": 173, "note": 74, "velocity": 123, "channel": 0}, {"type": "note_off", "time": 335, "note": 74, "velocity": 123, "channel": 0}, {"type": "note_on", "time": 416, "note": 74, "velocity": 122, "channel": 0}, {"type": "note_off", "time": 462, "note": 74, "velocity": 122, "channel": 0}, {"type": "note_on", "time": 1045, "note": 74, "velocity": 124, "channel": 0}, {"type": "note_off", "time": 451, "note": 74, "velocity": 124, "channel": 0}, {"type": "note_on", "time": 1272, "note": 74, "velocity": 117, "channel": 0}, {"type": "note_off", "time": 435, "note": 74, "velocity": 117, "channel": 0}, {"type": "note_on", "time": 73, "note": 73, "velocity": 124, "channel": 0}, {"type": "note_off", "time": 343, "note": 73, "velocity": 124, "channel": 0}, {"type": "note_on", "time": 61, "note": 70, "velocity": 103, "channel": 0}, {"type": "note_off", "time": 367, "note": 70, "velocity": 103, "channel": 0}, {"type": "note_on", "time": 159, "note": 67, "velocity": 108, "channel": 0}, {"type": "note_off", "time": 249, "note": 67, "velocity": 108, "channel": 0}, {"type": "note_on", "time": 74, "note": 74, "velocity": 118, "channel": 0}, {"type": "note_off", "time": 499, "note": 74, "velocity": 118, "channel": 0}, {"type": "note_on", "time": 63, "note": 69, "velocity": 101, "channel": 0}, {"type": "note_off", "time": 907, "note": 69, "velocity": 101, "channel": 0}, {"type": "note_on", "time": 123, "note": 69, "velocity": 103, "channel": 0}, {"type": "note_off", "time": 1275, "note": 69, "velocity": 103, "channel": 0}, {"type": "note_on", "time": 115, "note": 69, "velocity": 109, "channel": 0}, {"type": "note_off", "time": 266, "note": 69, "velocity": 109, "channel": 0}, {"type": "note_on", "time": 191, "note": 74, "velocity": 119, "channel": 0}, {"type": "note_off", "time": 279, "note": 74, "velocity": 119, "channel": 0}, {"type": "note_on", "time": 381, "note": 74, "velocity": 120, "channel": 0}, {"type": "note_off", "time": 353, "note": 74, "velocity": 120, "channel": 0}, {"type": "note_on", "time": 469, "note": 74, "velocity": 117, "channel": 0}, {"type": "note_off", "time": 392, "note": 74, "velocity": 117, "channel": 0}, {"type": "note_on", "time": 19, "note": 74, "velocity": 100, "channel": 0}, {"type": "note_off", "time": 105, "note": 74, "velocity": 100, "channel": 0}, {"type": "note_on", "time": 28, "note": 73, "velocity": 119, "channel": 0}, {"type": "note_off", "time": 256, "note": 73, "velocity": 119, "channel": 0}, {"type": "note_on", "time": 86, "note": 70, "velocity": 105, "channel": 0}, {"type": "note_off", "time": 370, "note": 70, "velocity": 105, "channel": 0}, {"type": "note_on", "time": 101, "note": 67, "velocity": 104, "channel": 0}, {"type": "note_off", "time": 370, "note": 67, "velocity": 104, "channel": 0}, {"type": "note_on", "time": 43, "note": 74, "velocity": 118, "channel": 0}, {"type": "note_off", "time": 507, "note": 74, "velocity": 118, "channel": 0}, {"type": "note_on", "time": 46, "note": 69, "velocity": 99, "channel": 0}, {"type": "note_off", "time": 987, "note": 69, "velocity": 99, "channel": 0}, {"type": "note_on", "time": 60, "note": 67, "velocity": 106, "channel": 0}, {"type": "note_off", "time": 510, "note": 67, "velocity": 106, "channel": 0}, {"type": "note_on", "time": 43, "note": 65, "velocity": 102, "channel": 0}, {"type": "note_on", "time": 320, "note": 75, "velocity": 116, "channel": 0}, {"type": "note_off", "time": 0, "note": 65, "velocity": 102, "channel": 0}, {"type": "note_off", "time": 493, "note": 75, "velocity": 116, "channel": 0}, {"type": "note_on", "time": 60, "note": 75, "velocity": 109, "channel": 0}, {"type": "note_off", "time": 965, "note": 75, "velocity": 109, "channel": 0}, {"type": "note_on", "time": 170, "note": 74, "velocity": 111, "channel": 0}, {"type": "note_off", "time": 323, "note": 74, "velocity": 111, "channel": 0}, {"type": "note_on", "time": 82, "note": 74, "velocity": 116, "channel": 0}, {"type": "note_off", "time": 86, "note": 74, "velocity": 116, "channel": 0}, {"type": "note_on", "time": 20, "note": 72, "velocity": 120, "channel": 0}, {"type": "note_off", "time": 293, "note": 72, "velocity": 120, "channel": 0}, {"type": "note_on", "time": 82, "note": 70, "velocity": 97, "channel": 0}, {"type": "note_off", "time": 367, "note": 70, "velocity": 97, "channel": 0}, {"type": "note_on", "time": 57, "note": 69, "velocity": 99, "channel": 0}, {"type": "note_off", "time": 139, "note": 69, "velocity": 99, "channel": 0}, {"type": "note_on", "time": 68, "note": 67, "velocity": 97, "channel": 0}, {"type": "note_off", "time": 611, "note": 67, "velocity": 97, "channel": 0}, {"type": "note_on", "time": 79, "note": 66, "velocity": 106, "channel": 0}, {"type": "note_off", "time": 172, "note": 66, "velocity": 106, "channel": 0}, {"type": "note_on", "time": 74, "note": 70, "velocity": 105, "channel": 0}, {"type": "note_off", "time": 425, "note": 70, "velocity": 105, "channel": 0}, {"type": "note_on", "time": 52, "note": 67, "velocity": 103, "channel": 0}, {"type": "note_off", "time": 471, "note": 67, "velocity": 103, "channel": 0}, {"type": "note_on", "time": 43, "note": 62, "velocity": 102, "channel": 0}, {"type": "note_off", "time": 422, "note": 62, "velocity": 102, "channel": 0}, {"type": "note_on", "time": 71, "note": 58, "velocity": 111, "channel": 0}, {"type": "note_off", "time": 205, "note": 58, "velocity": 111, "channel": 0}, {"type": "note_on", "time": 52, "note": 60, "velocity": 98, "channel": 0}, {"type": "note_off", "time": 394, "note": 60, "velocity": 98, "channel": 0}, {"type": "note_on", "time": 65, "note": 63, "velocity": 113, "channel": 0}, {"type": "note_off", "time": 307, "note": 63, "velocity": 113, "channel": 0}, {"type": "note_on", "time": 139, "note": 58, "velocity": 111, "channel": 0}, {"type": "note_off", "time": 405, "note": 58, "velocity": 111, "channel": 0}, {"type": "note_on", "time": 2490, "note": 62, "velocity": 111, "channel": 0}, {"type": "note_off", "time": 211, "note": 62, "velocity": 111, "channel": 0}, {"type": "note_on", "time": 117, "note": 67, "velocity": 112, "channel": 0}, {"type": "note_off", "time": 392, "note": 67, "velocity": 112, "channel": 0}, {"type": "note_on", "time": 101, "note": 70, "velocity": 114, "channel": 0}, {"type": "note_off", "time": 776, "note": 70, "velocity": 114, "channel": 0}, {"type": "note_on", "time": 65, "note": 67, "velocity": 116, "channel": 0}, {"type": "note_off", "time": 792, "note": 67, "velocity": 116, "channel": 0}, {"type": "note_on", "time": 27, "note": 70, "velocity": 110, "channel": 0}, {"type": "note_off", "time": 792, "note": 70, "velocity": 110, "channel": 0}, {"type": "note_on", "time": 38, "note": 67, "velocity": 114, "channel": 0}, {"type": "note_off", "time": 735, "note": 67, "velocity": 114, "channel": 0}, {"type": "note_on", "time": 60, "note": 70, "velocity": 112, "channel": 0}, {"type": "note_off", "time": 1116, "note": 70, "velocity": 112, "channel": 0}, {"type": "note_on", "time": 82, "note": 67, "velocity": 113, "channel": 0}, {"type": "note_off", "time": 427, "note": 67, "velocity": 113, "channel": 0}, {"type": "note_on", "time": 60, "note": 70, "velocity": 111, "channel": 0}, {"type": "note_off", "time": 1042, "note": 70, "velocity": 111, "channel": 0}, {"type": "note_on", "time": 71, "note": 67, "velocity": 113, "channel": 0}, {"type": "note_off", "time": 523, "note": 67, "velocity": 113, "channel": 0}, {"type": "note_on", "time": 65, "note": 65, "velocity": 117, "channel": 0}, {"type": "note_off", "time": 403, "note": 65, "velocity": 117, "channel": 0}, {"type": "note_on", "time": 2026, "note": 60, "velocity": 113, "channel": 0}, {"type": "note_off", "time": 315, "note": 60, "velocity": 113, "channel": 0}, {"type": "note_on", "time": 74, "note": 65, "velocity": 113, "channel": 0}, {"type": "note_off", "time": 441, "note": 65, "velocity": 113, "channel": 0}, {"type": "note_on", "time": 60, "note": 67, "velocity": 115, "channel": 0}, {"type": "note_off", "time": 353, "note": 67, "velocity": 115, "channel": 0}, {"type": "note_on", "time": 35, "note": 69, "velocity": 113, "channel": 0}, {"type": "note_off", "time": 244, "note": 69, "velocity": 113, "channel": 0}, {"type": "note_on", "time": 38, "note": 70, "velocity": 112, "channel": 0}, {"type": "note_off", "time": 167, "note": 70, "velocity": 112, "channel": 0}, {"type": "note_on", "time": 5, "note": 67, "velocity": 115, "channel": 0}, {"type": "note_off", "time": 260, "note": 67, "velocity": 115, "channel": 0}, {"type": "note_on", "time": 153, "note": 69, "velocity": 111, "channel": 0}, {"type": "note_off", "time": 309, "note": 69, "velocity": 111, "channel": 0}, {"type": "note_on", "time": 112, "note": 65, "velocity": 110, "channel": 0}, {"type": "note_off", "time": 342, "note": 65, "velocity": 110, "channel": 0}, {"type": "note_on", "time": 93, "note": 63, "velocity": 113, "channel": 0}, {"type": "note_off", "time": 414, "note": 63, "velocity": 113, "channel": 0}, {"type": "note_on", "time": 41, "note": 61, "velocity": 114, "channel": 0}, {"type": "note_off", "time": 213, "note": 61, "velocity": 114, "channel": 0}, {"type": "note_on", "time": 71, "note": 63, "velocity": 117, "channel": 0}, {"type": "note_off", "time": 419, "note": 63, "velocity": 117, "channel": 0}, {"type": "note_on", "time": 877, "note": 62, "velocity": 109, "channel": 0}, {"type": "note_off", "time": 277, "note": 62, "velocity": 109, "channel": 0}, {"type": "note_on", "time": 159, "note": 57, "velocity": 112, "channel": 0}, {"type": "note_off", "time": 488, "note": 57, "velocity": 112, "channel": 0}, {"type": "note_on", "time": 713, "note": 64, "velocity": 114, "channel": 0}, {"type": "note_off", "time": 279, "note": 64, "velocity": 114, "channel": 0}, {"type": "note_on", "time": 208, "note": 67, "velocity": 108, "channel": 0}, {"type": "note_off", "time": 370, "note": 67, "velocity": 108, "channel": 0}, {"type": "note_on", "time": 814, "note": 66, "velocity": 115, "channel": 0}, {"type": "note_off", "time": 342, "note": 66, "velocity": 115, "channel": 0}, {"type": "note_on", "time": 54, "note": 62, "velocity": 106, "channel": 0}, {"type": "note_off", "time": 1393, "note": 62, "velocity": 106, "channel": 0}, {"type": "note_on", "time": 60, "note": 69, "velocity": 113, "channel": 0}, {"type": "note_off", "time": 1675, "note": 69, "velocity": 113, "channel": 0}, {"type": "note_on", "time": 98, "note": 67, "velocity": 110, "channel": 0}, {"type": "note_off", "time": 663, "note": 67, "velocity": 110, "channel": 0}, {"type": "note_on", "time": 370, "note": 65, "velocity": 106, "channel": 0}, {"type": "note_off", "time": 636, "note": 65, "velocity": 106, "channel": 0}, {"type": "note_on", "time": 120, "note": 67, "velocity": 107, "channel": 0}, {"type": "note_off", "time": 710, "note": 67, "velocity": 107, "channel": 0}, {"type": "note_on", "time": 175, "note": 62, "velocity": 108, "channel": 0}, {"type": "note_off", "time": 652, "note": 62, "velocity": 108, "channel": 0}, {"type": "note_on", "time": 74, "note": 65, "velocity": 110, "channel": 0}, {"type": "note_off", "time": 825, "note": 65, "velocity": 110, "channel": 0}, {"type": "note_on", "time": 98, "note": 64, "velocity": 113, "channel": 0}, {"type": "note_off", "time": 469, "note": 64, "velocity": 113, "channel": 0}, {"type": "note_on", "time": 43, "note": 67, "velocity": 118, "channel": 0}, {"type": "note_off", "time": 353, "note": 67, "velocity": 118, "channel": 0}, {"type": "note_on", "time": 87, "note": 70, "velocity": 109, "channel": 0}, {"type": "note_off", "time": 331, "note": 70, "velocity": 109, "channel": 0}, {"type": "note_on", "time": 425, "note": 69, "velocity": 112, "channel": 0}, {"type": "note_off", "time": 663, "note": 69, "velocity": 112, "channel": 0}, {"type": "note_on", "time": 139, "note": 65, "velocity": 112, "channel": 0}, {"type": "note_off", "time": 469, "note": 65, "velocity": 112, "channel": 0}, {"type": "note_on", "time": 27, "note": 62, "velocity": 117, "channel": 0}, {"type": "note_off", "time": 320, "note": 62, "velocity": 117, "channel": 0}, {"type": "note_on", "time": 74, "note": 57, "velocity": 103, "channel": 0}, {"type": "note_off", "time": 543, "note": 57, "velocity": 103, "channel": 0}, {"type": "note_on", "time": 60, "note": 62, "velocity": 103, "channel": 0}, {"type": "note_off", "time": 126, "note": 62, "velocity": 103, "channel": 0}, {"type": "note_on", "time": 123, "note": 65, "velocity": 106, "channel": 0}, {"type": "note_off", "time": 405, "note": 65, "velocity": 106, "channel": 0}, {"type": "note_on", "time": 82, "note": 69, "velocity": 108, "channel": 0}, {"type": "note_off", "time": 279, "note": 69, "velocity": 108, "channel": 0}, {"type": "note_on", "time": 115, "note": 67, "velocity": 111, "channel": 0}, {"type": "note_off", "time": 326, "note": 67, "velocity": 111, "channel": 0}, {"type": "note_on", "time": 463, "note": 64, "velocity": 110, "channel": 0}, {"type": "note_off", "time": 696, "note": 64, "velocity": 110, "channel": 0}, {"type": "note_on", "time": 85, "note": 61, "velocity": 112, "channel": 0}, {"type": "note_off", "time": 482, "note": 61, "velocity": 112, "channel": 0}, {"type": "note_on", "time": 21, "note": 64, "velocity": 118, "channel": 0}, {"type": "note_off", "time": 277, "note": 64, "velocity": 118, "channel": 0}, {"type": "note_on", "time": 71, "note": 62, "velocity": 102, "channel": 0}, {"type": "note_off", "time": 329, "note": 62, "velocity": 102, "channel": 0}, {"type": "note_on", "time": 2641, "note": 64, "velocity": 116, "channel": 0}, {"type": "note_off", "time": 309, "note": 64, "velocity": 116, "channel": 0}, {"type": "note_on", "time": 96, "note": 65, "velocity": 116, "channel": 0}, {"type": "note_off", "time": 367, "note": 65, "velocity": 116, "channel": 0}, {"type": "note_on", "time": 74, "note": 69, "velocity": 116, "channel": 0}, {"type": "note_off", "time": 200, "note": 69, "velocity": 116, "channel": 0}, {"type": "note_on", "time": 208, "note": 72, "velocity": 123, "channel": 0}, {"type": "note_off", "time": 362, "note": 72, "velocity": 123, "channel": 0}, {"type": "note_on", "time": 65, "note": 74, "velocity": 120, "channel": 0}, {"type": "note_off", "time": 293, "note": 74, "velocity": 120, "channel": 0}, {"type": "note_on", "time": 134, "note": 75, "velocity": 120, "channel": 0}, {"type": "note_off", "time": 315, "note": 75, "velocity": 120, "channel": 0}, {"type": "note_on", "time": 85, "note": 77, "velocity": 122, "channel": 0}, {"type": "note_off", "time": 334, "note": 77, "velocity": 122, "channel": 0}, {"type": "note_on", "time": 76, "note": 78, "velocity": 110, "channel": 0}, {"type": "note_off", "time": 246, "note": 78, "velocity": 110, "channel": 0}, {"type": "note_on", "time": 32, "note": 79, "velocity": 111, "channel": 0}, {"type": "note_off", "time": 131, "note": 79, "velocity": 111, "channel": 0}, {"type": "note_on", "time": 19, "note": 78, "velocity": 114, "channel": 0}, {"type": "note_off", "time": 60, "note": 78, "velocity": 114, "channel": 0}, {"type": "note_on", "time": 27, "note": 75, "velocity": 119, "channel": 0}, {"type": "note_off", "time": 246, "note": 75, "velocity": 119, "channel": 0}, {"type": "note_on", "time": 85, "note": 74, "velocity": 121, "channel": 0}, {"type": "note_off", "time": 326, "note": 74, "velocity": 121, "channel": 0}, {"type": "note_on", "time": 74, "note": 72, "velocity": 124, "channel": 0}, {"type": "note_off", "time": 312, "note": 72, "velocity": 124, "channel": 0}, {"type": "note_on", "time": 106, "note": 70, "velocity": 101, "channel": 0}, {"type": "note_off", "time": 416, "note": 70, "velocity": 101, "channel": 0}, {"type": "note_on", "time": 74, "note": 67, "velocity": 104, "channel": 0}, {"type": "note_off", "time": 331, "note": 67, "velocity": 104, "channel": 0}, {"type": "note_on", "time": 35, "note": 69, "velocity": 108, "channel": 0}, {"type": "note_off", "time": 381, "note": 69, "velocity": 108, "channel": 0}, {"type": "note_on", "time": 65, "note": 66, "velocity": 112, "channel": 0}, {"type": "note_off", "time": 293, "note": 66, "velocity": 112, "channel": 0}, {"type": "note_on", "time": 30, "note": 67, "velocity": 107, "channel": 0}, {"type": "note_off", "time": 501, "note": 67, "velocity": 107, "channel": 0}, {"type": "note_on", "time": 30, "note": 65, "velocity": 106, "channel": 0}, {"type": "note_off", "time": 189, "note": 65, "velocity": 106, "channel": 0}, {"type": "note_on", "time": 109, "note": 66, "velocity": 116, "channel": 0}, {"type": "note_off", "time": 433, "note": 66, "velocity": 116, "channel": 0}, {"type": "note_on", "time": 32, "note": 63, "velocity": 111, "channel": 0}, {"type": "note_off", "time": 1064, "note": 63, "velocity": 111, "channel": 0}, {"type": "note_on", "time": 117, "note": 62, "velocity": 101, "channel": 0}, {"type": "note_off", "time": 482, "note": 62, "velocity": 101, "channel": 0}, {"type": "note_on", "time": 1640, "note": 70, "velocity": 115, "channel": 0}, {"type": "note_off", "time": 1066, "note": 70, "velocity": 115, "channel": 0}, {"type": "note_on", "time": 307, "note": 79, "velocity": 119, "channel": 0}, {"type": "note_off", "time": 820, "note": 79, "velocity": 119, "channel": 0}, {"type": "note_on", "time": 337, "note": 77, "velocity": 124, "channel": 0}, {"type": "note_off", "time": 416, "note": 77, "velocity": 124, "channel": 0}, {"type": "note_on", "time": 46, "note": 76, "velocity": 127, "channel": 0}, {"type": "note_off", "time": 425, "note": 76, "velocity": 127, "channel": 0}, {"type": "note_on", "time": 41, "note": 74, "velocity": 122, "channel": 0}, {"type": "note_off", "time": 370, "note": 74, "velocity": 122, "channel": 0}, {"type": "note_on", "time": 68, "note": 77, "velocity": 124, "channel": 0}, {"type": "note_off", "time": 452, "note": 77, "velocity": 124, "channel": 0}, {"type": "note_on", "time": 82, "note": 74, "velocity": 122, "channel": 0}, {"type": "note_off", "time": 351, "note": 74, "velocity": 122, "channel": 0}, {"type": "note_on", "time": 244, "note": 70, "velocity": 108, "channel": 0}, {"type": "note_off", "time": 1165, "note": 70, "velocity": 108, "channel": 0}, {"type": "note_on", "time": 41, "note": 67, "velocity": 115, "channel": 0}, {"type": "note_off", "time": 488, "note": 67, "velocity": 115, "channel": 0}, {"type": "note_on", "time": 41, "note": 72, "velocity": 124, "channel": 0}, {"type": "note_off", "time": 1354, "note": 72, "velocity": 124, "channel": 0}, {"type": "note_on", "time": 288, "note": 67, "velocity": 108, "channel": 0}, {"type": "note_off", "time": 359, "note": 67, "velocity": 108, "channel": 0}, {"type": "note_on", "time": 57, "note": 69, "velocity": 102, "channel": 0}, {"type": "note_off", "time": 408, "note": 69, "velocity": 102, "channel": 0}, {"type": "note_on", "time": 30, "note": 70, "velocity": 106, "channel": 0}, {"type": "note_off", "time": 298, "note": 70, "velocity": 106, "channel": 0}, {"type": "note_on", "time": 60, "note": 67, "velocity": 109, "channel": 0}, {"type": "note_off", "time": 414, "note": 67, "velocity": 109, "channel": 0}, {"type": "note_on", "time": 60, "note": 69, "velocity": 114, "channel": 0}, {"type": "note_off", "time": 252, "note": 69, "velocity": 114, "channel": 0}, {"type": "note_on", "time": 65, "note": 65, "velocity": 111, "channel": 0}, {"type": "note_off", "time": 452, "note": 65, "velocity": 111, "channel": 0}, {"type": "note_on", "time": 41, "note": 63, "velocity": 116, "channel": 0}, {"type": "note_off", "time": 263, "note": 63, "velocity": 116, "channel": 0}, {"type": "note_on", "time": 71, "note": 58, "velocity": 113, "channel": 0}, {"type": "note_off", "time": 490, "note": 58, "velocity": 113, "channel": 0}, {"type": "note_on", "time": 63, "note": 57, "velocity": 111, "channel": 0}, {"type": "note_off", "time": 968, "note": 57, "velocity": 111, "channel": 0}, {"type": "note_on", "time": 142, "note": 58, "velocity": 116, "channel": 0}, {"type": "note_off", "time": 394, "note": 58, "velocity": 116, "channel": 0}, {"type": "note_on", "time": 82, "note": 62, "velocity": 108, "channel": 0}, {"type": "note_off", "time": 1034, "note": 62, "velocity": 108, "channel": 0}, {"type": "note_on", "time": 137, "note": 66, "velocity": 114, "channel": 0}, {"type": "note_off", "time": 419, "note": 66, "velocity": 114, "channel": 0}, {"type": "note_on", "time": 1223, "note": 69, "velocity": 114, "channel": 0}, {"type": "note_off", "time": 540, "note": 69, "velocity": 114, "channel": 0}, {"type": "note_on", "time": 1064, "note": 66, "velocity": 115, "channel": 0}, {"type": "note_off", "time": 1585, "note": 66, "velocity": 115, "channel": 0}, {"type": "note_on", "time": 35, "note": 62, "velocity": 99, "channel": 0}, {"type": "note_off", "time": 540, "note": 62, "velocity": 99, "channel": 0}, {"type": "note_on", "time": 123, "note": 67, "velocity": 9, "channel": 0}, {"type": "note_off", "time": 4202, "note": 67, "velocity": 9, "channel": 0}, {"type": "note_on", "time": 60, "note": 69, "velocity": 107, "channel": 0}, {"type": "note_off", "time": 116, "note": 69, "velocity": 107, "channel": 0}, {"type": "note_on", "time": 53, "note": 67, "velocity": 116, "channel": 0}, {"type": "note_off", "time": 537, "note": 67, "velocity": 116, "channel": 0}, {"type": "note_on", "time": 60, "note": 67, "velocity": 109, "channel": 0}, {"type": "note_off", "time": 850, "note": 67, "velocity": 109, "channel": 0}, {"type": "note_on", "time": 148, "note": 63, "velocity": 112, "channel": 0}, {"type": "note_off", "time": 648, "note": 63, "velocity": 112, "channel": 0}, {"type": "note_on", "time": 97, "note": 62, "velocity": 104, "channel": 0}, {"type": "note_off", "time": 2446, "note": 62, "velocity": 104, "channel": 0}, {"type": "note_on", "time": 41, "note": 61, "velocity": 109, "channel": 0}, {"type": "note_off", "time": 185, "note": 61, "velocity": 109, "channel": 0}, {"type": "note_on", "time": 67, "note": 62, "velocity": 105, "channel": 0}, {"type": "note_off", "time": 3182, "note": 62, "velocity": 105, "channel": 0}, {"type": "note_on", "time": 89, "note": 72, "velocity": 121, "channel": 0}, {"type": "note_off", "time": 1124, "note": 72, "velocity": 121, "channel": 0}, {"type": "note_on", "time": 1903, "note": 70, "velocity": 116, "channel": 0}, {"type": "note_off", "time": 331, "note": 70, "velocity": 116, "channel": 0}, {"type": "note_on", "time": 76, "note": 69, "velocity": 108, "channel": 0}, {"type": "note_off", "time": 359, "note": 69, "velocity": 108, "channel": 0}, {"type": "note_on", "time": 57, "note": 70, "velocity": 119, "channel": 0}, {"type": "note_off", "time": 307, "note": 70, "velocity": 119, "channel": 0}, {"type": "note_on", "time": 90, "note": 72, "velocity": 124, "channel": 0}, {"type": "note_off", "time": 463, "note": 72, "velocity": 124, "channel": 0}, {"type": "note_on", "time": 54, "note": 74, "velocity": 115, "channel": 0}, {"type": "note_off", "time": 326, "note": 74, "velocity": 115, "channel": 0}, {"type": "note_on", "time": 82, "note": 84, "velocity": 112, "channel": 0}, {"type": "note_off", "time": 438, "note": 84, "velocity": 112, "channel": 0}, {"type": "note_on", "time": 60, "note": 82, "velocity": 113, "channel": 0}, {"type": "note_off", "time": 984, "note": 82, "velocity": 113, "channel": 0}, {"type": "note_on", "time": 137, "note": 78, "velocity": 113, "channel": 0}, {"type": "note_off", "time": 342, "note": 78, "velocity": 113, "channel": 0}, {"type": "note_on", "time": 101, "note": 73, "velocity": 122, "channel": 0}, {"type": "note_off", "time": 381, "note": 73, "velocity": 122, "channel": 0}, {"type": "note_on", "time": 131, "note": 77, "velocity": 122, "channel": 0}, {"type": "note_off", "time": 567, "note": 77, "velocity": 122, "channel": 0}, {"type": "note_on", "time": 74, "note": 76, "velocity": 120, "channel": 0}, {"type": "note_off", "time": 400, "note": 76, "velocity": 120, "channel": 0}, {"type": "note_on", "time": 98, "note": 72, "velocity": 125, "channel": 0}, {"type": "note_off", "time": 381, "note": 72, "velocity": 125, "channel": 0}, {"type": "note_on", "time": 98, "note": 69, "velocity": 103, "channel": 0}, {"type": "note_off", "time": 751, "note": 69, "velocity": 103, "channel": 0}, {"type": "note_on", "time": 490, "note": 69, "velocity": 106, "channel": 0}, {"type": "note_off", "time": 255, "note": 69, "velocity": 106, "channel": 0}, {"type": "note_on", "time": 175, "note": 74, "velocity": 120, "channel": 0}, {"type": "note_off", "time": 183, "note": 74, "velocity": 120, "channel": 0}, {"type": "note_on", "time": 54, "note": 77, "velocity": 124, "channel": 0}, {"type": "note_off", "time": 241, "note": 77, "velocity": 124, "channel": 0}, {"type": "note_on", "time": 21, "note": 75, "velocity": 119, "channel": 0}, {"type": "note_off", "time": 672, "note": 75, "velocity": 119, "channel": 0}, {"type": "note_on", "time": 38, "note": 73, "velocity": 124, "channel": 0}, {"type": "note_off", "time": 296, "note": 73, "velocity": 124, "channel": 0}, {"type": "note_on", "time": 318, "note": 70, "velocity": 107, "channel": 0}, {"type": "note_off", "time": 233, "note": 70, "velocity": 107, "channel": 0}, {"type": "note_on", "time": 167, "note": 67, "velocity": 105, "channel": 0}, {"type": "note_off", "time": 320, "note": 67, "velocity": 105, "channel": 0}, {"type": "note_on", "time": 87, "note": 65, "velocity": 112, "channel": 0}, {"type": "note_off", "time": 288, "note": 65, "velocity": 112, "channel": 0}, {"type": "note_on", "time": 43, "note": 63, "velocity": 114, "channel": 0}, {"type": "note_off", "time": 134, "note": 63, "velocity": 114, "channel": 0}, {"type": "note_on", "time": 71, "note": 62, "velocity": 108, "channel": 0}, {"type": "note_off", "time": 2479, "note": 62, "velocity": 108, "channel": 0}, {"type": "note_on", "time": 71, "note": 65, "velocity": 113, "channel": 0}, {"type": "note_off", "time": 628, "note": 65, "velocity": 113, "channel": 0}, {"type": "note_on", "time": 38, "note": 64, "velocity": 110, "channel": 0}, {"type": "note_off", "time": 844, "note": 64, "velocity": 110, "channel": 0}, {"type": "note_on", "time": 1640, "note": 70, "velocity": 123, "channel": 0}, {"type": "note_off", "time": 241, "note": 70, "velocity": 123, "channel": 0}, {"type": "note_on", "time": 271, "note": 76, "velocity": 123, "channel": 0}, {"type": "note_off", "time": 202, "note": 76, "velocity": 123, "channel": 0}, {"type": "note_on", "time": 49, "note": 76, "velocity": 121, "channel": 0}, {"type": "note_off", "time": 260, "note": 76, "velocity": 121, "channel": 0}, {"type": "note_on", "time": 288, "note": 77, "velocity": 125, "channel": 0}, {"type": "note_off", "time": 227, "note": 77, "velocity": 125, "channel": 0}, {"type": "note_on", "time": 54, "note": 77, "velocity": 123, "channel": 0}, {"type": "note_off", "time": 219, "note": 77, "velocity": 123, "channel": 0}, {"type": "note_on", "time": 312, "note": 76, "velocity": 126, "channel": 0}, {"type": "note_off", "time": 452, "note": 76, "velocity": 126, "channel": 0}, {"type": "note_on", "time": 82, "note": 69, "velocity": 106, "channel": 0}, {"type": "note_off", "time": 973, "note": 69, "velocity": 106, "channel": 0}, {"type": "note_on", "time": 148, "note": 74, "velocity": 123, "channel": 0}, {"type": "note_off", "time": 315, "note": 74, "velocity": 123, "channel": 0}, {"type": "note_on", "time": 444, "note": 74, "velocity": 119, "channel": 0}, {"type": "note_off", "time": 438, "note": 74, "velocity": 119, "channel": 0}, {"type": "note_on", "time": 433, "note": 73, "velocity": 121, "channel": 0}, {"type": "note_off", "time": 493, "note": 73, "velocity": 121, "channel": 0}, {"type": "note_on", "time": 24, "note": 73, "velocity": 114, "channel": 0}, {"type": "note_off", "time": 729, "note": 73, "velocity": 114, "channel": 0}, {"type": "note_on", "time": 82, "note": 70, "velocity": 106, "channel": 0}, {"type": "note_off", "time": 285, "note": 70, "velocity": 106, "channel": 0}, {"type": "note_on", "time": 120, "note": 67, "velocity": 105, "channel": 0}, {"type": "note_off", "time": 397, "note": 67, "velocity": 105, "channel": 0}, {"type": "note_on", "time": 98, "note": 64, "velocity": 109, "channel": 0}, {"type": "note_off", "time": 271, "note": 64, "velocity": 109, "channel": 0}, {"type": "note_on", "time": 60, "note": 65, "velocity": 105, "channel": 0}, {"type": "note_off", "time": 710, "note": 65, "velocity": 105, "channel": 0}, {"type": "note_on", "time": 123, "note": 62, "velocity": 101, "channel": 0}, {"type": "note_off", "time": 526, "note": 62, "velocity": 101, "channel": 0}, {"type": "note_on", "time": 57, "note": 64, "velocity": 107, "channel": 0}, {"type": "note_off", "time": 183, "note": 64, "velocity": 107, "channel": 0}, {"type": "note_on", "time": 46, "note": 65, "velocity": 114, "channel": 0}, {"type": "note_off", "time": 405, "note": 65, "velocity": 114, "channel": 0}, {"type": "note_on", "time": 87, "note": 67, "velocity": 111, "channel": 0}, {"type": "note_off", "time": 271, "note": 67, "velocity": 111, "channel": 0}, {"type": "note_on", "time": 172, "note": 69, "velocity": 105, "channel": 0}, {"type": "note_off", "time": 345, "note": 69, "velocity": 105, "channel": 0}, {"type": "note_on", "time": 63, "note": 76, "velocity": 115, "channel": 0}, {"type": "note_off", "time": 373, "note": 76, "velocity": 115, "channel": 0}, {"type": "note_on", "time": 822, "note": 74, "velocity": 116, "channel": 0}, {"type": "note_off", "time": 419, "note": 74, "velocity": 116, "channel": 0}, {"type": "note_on", "time": 1045, "note": 73, "velocity": 125, "channel": 0}, {"type": "note_off", "time": 301, "note": 73, "velocity": 125, "channel": 0}, {"type": "note_on", "time": 87, "note": 70, "velocity": 111, "channel": 0}, {"type": "note_off", "time": 397, "note": 70, "velocity": 111, "channel": 0}, {"type": "note_on", "time": 85, "note": 67, "velocity": 110, "channel": 0}, {"type": "note_off", "time": 274, "note": 67, "velocity": 110, "channel": 0}, {"type": "note_on", "time": 98, "note": 69, "velocity": 102, "channel": 0}, {"type": "note_off", "time": 378, "note": 69, "velocity": 102, "channel": 0}, {"type": "note_on", "time": 74, "note": 62, "velocity": 101, "channel": 0}, {"type": "note_off", "time": 1091, "note": 62, "velocity": 101, "channel": 0}, {"type": "note_on", "time": 156, "note": 67, "velocity": 111, "channel": 0}, {"type": "note_off", "time": 529, "note": 67, "velocity": 111, "channel": 0}, {"type": "note_on", "time": 79, "note": 61, "velocity": 109, "channel": 0}, {"type": "note_off", "time": 1028, "note": 61, "velocity": 109, "channel": 0}, {"type": "note_on", "time": 87, "note": 65, "velocity": 117, "channel": 0}, {"type": "note_off", "time": 1855, "note": 65, "velocity": 117, "channel": 0}, {"type": "note_on", "time": 38, "note": 64, "velocity": 114, "channel": 0}, {"type": "note_off", "time": 206, "note": 64, "velocity": 114, "channel": 0}, {"type": "note_on", "time": 27, "note": 65, "velocity": 112, "channel": 0}, {"type": "note_off", "time": 202, "note": 65, "velocity": 112, "channel": 0}, {"type": "note_on", "time": 17, "note": 64, "velocity": 114, "channel": 0}, {"type": "note_off", "time": 345, "note": 64, "velocity": 114, "channel": 0}, {"type": "note_on", "time": 73, "note": 58, "velocity": 112, "channel": 0}, {"type": "note_off", "time": 609, "note": 58, "velocity": 112, "channel": 0}, {"type": "note_on", "time": 69, "note": 57, "velocity": 104, "channel": 0}, {"type": "note_off", "time": 1411, "note": 57, "velocity": 104, "channel": 0}, {"type": "end_of_track", "time": 0}]]}