{"ticks_per_beat": 192, "tracks": [[{"type": "track_name", "name": "Melody", "time": 0}, {"type": "set_tempo", "tempo": 361445, "time": 0}, {"type": "key_signature", "key": "G", "time": 0}, {"type": "time_signature", "numerator": 4, "denominator": 4, "clocks_per_click": 24, "notated_32nd_notes_per_beat": 8, "time": 0}, {"type": "note_on", "time": 668, "note": 63, "velocity": 118, "channel": 0}, {"type": "note_off", "time": 79, "note": 63, "velocity": 118, "channel": 0}, {"type": "note_on", "time": 11, "note": 64, "velocity": 116, "channel": 0}, {"type": "note_off", "time": 146, "note": 64, "velocity": 116, "channel": 0}, {"type": "note_on", "time": 25, "note": 74, "velocity": 116, "channel": 0}, {"type": "note_off", "time": 88, "note": 74, "velocity": 116, "channel": 0}, {"type": "note_on", "time": 293, "note": 65, "velocity": 115, "channel": 0}, {"type": "note_off", "time": 263, "note": 65, "velocity": 115, "channel": 0}, {"type": "note_on", "time": 38, "note": 63, "velocity": 118, "channel": 0}, {"type": "note_off", "time": 53, "note": 63, "velocity": 118, "channel": 0}, {"type": "note_on", "time": 13, "note": 62, "velocity": 103, "channel": 0}, {"type": "note_off", "time": 158, "note": 62, "velocity": 103, "channel": 0}, {"type": "note_on", "time": 19, "note": 64, "velocity": 107, "channel": 0}, {"type": "note_off", "time": 20, "note": 64, "velocity": 107, "channel": 0}, {"type": "note_on", "time": 9, "note": 66, "velocity": 118, "channel": 0}, {"type": "note_off", "time": 109, "note": 66, "velocity": 118, "channel": 0}, {"type": "note_on", "time": 15, "note": 69, "velocity": 116, "channel": 0}, {"type": "note_off", "time": 175, "note": 69, "velocity": 116, "channel": 0}, {"type": "note_on", "time": 12, "note": 66, "velocity": 117, "channel": 0}, {"type": "note_off", "time": 148, "note": 66, "velocity": 117, "channel": 0}, {"type": "note_on", "time": 20, "note": 65, "velocity": 112, "channel": 0}, {"type": "note_off", "time": 158, "note": 65, "velocity": 112, "channel": 0}, {"type": "note_on", "time": 6, "note": 64, "velocity": 117, "channel": 0}, {"type": "note_off", "time": 157, "note": 64, "velocity": 117, "channel": 0}, {"type": "note_on", "time": 13, "note": 65, "velocity": 116, "channel": 0}, {"type": "note_off", "time": 169, "note": 65, "velocity": 116, "channel": 0}, {"type": "note_on", "time": 20, "note": 64, "velocity": 117, "channel": 0}, {"type": "note_off", "time": 231, "note": 64, "velocity": 117, "channel": 0}, {"type": "note_on", "time": 18, "note": 60, "velocity": 108, "channel": 0}, {"type": "note_off", "time": 374, "note": 60, "velocity": 108, "channel": 0}, {"type": "note_on", "time": 54, "note": 69, "velocity": 108, "channel": 0}, {"type": "note_off", "time": 115, "note": 69, "velocity": 108, "channel": 0}, {"type": "note_on", "time": 8, "note": 72, "velocity": 119, "channel": 0}, {"type": "note_off", "time": 80, "note": 72, "velocity": 119, "channel": 0}, {"type": "note_on", "time": 181, "note": 65, "velocity": 110, "channel": 0}, {"type": "note_off", "time": 317, "note": 65, "velocity": 110, "channel": 0}, {"type": "note_on", "time": 65, "note": 62, "velocity": 114, "channel": 0}, {"type": "note_off", "time": 107, "note": 62, "velocity": 114, "channel": 0}, {"type": "note_on", "time": 22, "note": 57, "velocity": 101, "channel": 0}, {"type": "note_off", "time": 185, "note": 57, "velocity": 101, "channel": 0}, {"type": "note_on", "time": 44, "note": 60, "velocity": 110, "channel": 0}, {"type": "note_off", "time": 127, "note": 60, "velocity": 110, "channel": 0}, {"type": "note_on", "time": 20, "note": 60, "velocity": 97, "channel": 0}, {"type": "note_off", "time": 79, "note": 60, "velocity": 97, "channel": 0}, {"type": "note_on", "time": 650, "note": 60, "velocity": 114, "channel": 0}, {"type": "note_off", "time": 58, "note": 60, "velocity": 114, "channel": 0}, {"type": "note_on", "time": 37, "note": 69, "velocity": 109, "channel": 0}, {"type": "note_off", "time": 92, "note": 69, "velocity": 109, "channel": 0}, {"type": "note_on", "time": 10, "note": 72, "velocity": 119, "channel": 0}, {"type": "note_off", "time": 83, "note": 72, "velocity": 119, "channel": 0}, {"type": "note_on", "time": 29, "note": 74, "velocity": 117, "channel": 0}, {"type": "note_off", "time": 104, "note": 74, "velocity": 117, "channel": 0}, {"type": "note_on", "time": 9, "note": 70, "velocity": 108, "channel": 0}, {"type": "note_off", "time": 64, "note": 70, "velocity": 108, "channel": 0}, {"type": "note_on", "time": 23, "note": 66, "velocity": 112, "channel": 0}, {"type": "note_off", "time": 115, "note": 66, "velocity": 112, "channel": 0}, {"type": "note_on", "time": 206, "note": 71, "velocity": 113, "channel": 0}, {"type": "note_off", "time": 118, "note": 71, "velocity": 113, "channel": 0}, {"type": "note_on", "time": 15, "note": 66, "velocity": 114, "channel": 0}, {"type": "note_off", "time": 70, "note": 66, "velocity": 114, "channel": 0}, {"type": "note_on", "time": 33, "note": 62, "velocity": 112, "channel": 0}, {"type": "note_off", "time": 106, "note": 62, "velocity": 112, "channel": 0}, {"type": "note_on", "time": 77, "note": 70, "velocity": 112, "channel": 0}, {"type": "note_off", "time": 86, "note": 70, "velocity": 112, "channel": 0}, {"type": "note_on", "time": 23, "note": 66, "velocity": 116, "channel": 0}, {"type": "note_off", "time": 69, "note": 66, "velocity": 116, "channel": 0}, {"type": "note_on", "time": 29, "note": 62, "velocity": 107, "channel": 0}, {"type": "note_off", "time": 115, "note": 62, "velocity": 107, "channel": 0}, {"type": "note_on", "time": 50, "note": 69, "velocity": 113, "channel": 0}, {"type": "note_off", "time": 81, "note": 69, "velocity": 113, "channel": 0}, {"type": "note_on", "time": 27, "note": 66, "velocity": 114, "channel": 0}, {"type": "note_off", "time": 74, "note": 66, "velocity": 114, "channel": 0}, {"type": "note_on", "time": 30, "note": 62, "velocity": 110, "channel": 0}, {"type": "note_off", "time": 115, "note": 62, "velocity": 110, "channel": 0}, {"type": "note_on", "time": 50, "note": 71, "velocity": 113, "channel": 0}, {"type": "note_off", "time": 97, "note": 71, "velocity": 113, "channel": 0}, {"type": "note_on", "time": 20, "note": 66, "velocity": 117, "channel": 0}, {"type": "note_off", "time": 78, "note": 66, "velocity": 117, "channel": 0}, {"type": "note_on", "time": 18, "note": 73, "velocity": 109, "channel": 0}, {"type": "note_off", "time": 109, "note": 73, "velocity": 109, "channel": 0}, {"type": "note_on", "time": 50, "note": 67, "velocity": 109, "channel": 0}, {"type": "note_off", "time": 26, "note": 67, "velocity": 109, "channel": 0}, {"type": "note_on", "time": 3, "note": 69, "velocity": 112, "channel": 0}, {"type": "note_off", "time": 78, "note": 69, "velocity": 112, "channel": 0}, {"type": "note_on", "time": 13, "note": 66, "velocity": 113, "channel": 0}, {"type": "note_off", "time": 53, "note": 66, "velocity": 113, "channel": 0}, {"type": "note_on", "time": 44, "note": 62, "velocity": 110, "channel": 0}, {"type": "note_off", "time": 86, "note": 62, "velocity": 110, "channel": 0}, {"type": "note_on", "time": 66, "note": 70, "velocity": 111, "channel": 0}, {"type": "note_off", "time": 92, "note": 70, "velocity": 111, "channel": 0}, {"type": "note_on", "time": 16, "note": 66, "velocity": 118, "channel": 0}, {"type": "note_off", "time": 87, "note": 66, "velocity": 118, "channel": 0}, {"type": "note_on", "time": 24, "note": 62, "velocity": 110, "channel": 0}, {"type": "note_off", "time": 100, "note": 62, "velocity": 110, "channel": 0}, {"type": "note_on", "time": 61, "note": 70, "velocity": 111, "channel": 0}, {"type": "note_off", "time": 84, "note": 70, "velocity": 111, "channel": 0}, {"type": "note_on", "time": 28, "note": 65, "velocity": 110, "channel": 0}, {"type": "note_off", "time": 76, "note": 65, "velocity": 110, "channel": 0}, {"type": "note_on", "time": 34, "note": 62, "velocity": 112, "channel": 0}, {"type": "note_off", "time": 83, "note": 62, "velocity": 112, "channel": 0}, {"type": "note_on", "time": 75, "note": 68, "velocity": 116, "channel": 0}, {"type": "note_off", "time": 104, "note": 68, "velocity": 116, "channel": 0}, {"type": "note_on", "time": 9, "note": 65, "velocity": 110, "channel": 0}, {"type": "note_off", "time": 97, "note": 65, "velocity": 110, "channel": 0}, {"type": "note_on", "time": 10, "note": 64, "velocity": 114, "channel": 0}, {"type": "note_off", "time": 117, "note": 64, "velocity": 114, "channel": 0}, {"type": "note_on", "time": 419, "note": 64, "velocity": 113, "channel": 0}, {"type": "note_off", "time": 107, "note": 64, "velocity": 113, "channel": 0}, {"type": "note_on", "time": 18, "note": 67, "velocity": 117, "channel": 0}, {"type": "note_off", "time": 68, "note": 67, "velocity": 117, "channel": 0}, {"type": "note_on", "time": 36, "note": 71, "velocity": 111, "channel": 0}, {"type": "note_off", "time": 82, "note": 71, "velocity": 111, "channel": 0}, {"type": "note_on", "time": 17, "note": 74, "velocity": 113, "channel": 0}, {"type": "note_off", "time": 95, "note": 74, "velocity": 113, "channel": 0}, {"type": "note_on", "time": 10, "note": 70, "velocity": 110, "channel": 0}, {"type": "note_off", "time": 100, "note": 70, "velocity": 110, "channel": 0}, {"type": "note_on", "time": 66, "note": 66, "velocity": 111, "channel": 0}, {"type": "note_off", "time": 93, "note": 66, "velocity": 111, "channel": 0}, {"type": "note_on", "time": 24, "note": 62, "velocity": 110, "channel": 0}, {"type": "note_off", "time": 235, "note": 62, "velocity": 110, "channel": 0}, {"type": "note_on", "time": 13, "note": 66, "velocity": 116, "channel": 0}, {"type": "note_off", "time": 115, "note": 66, "velocity": 116, "channel": 0}, {"type": "note_on", "time": 442, "note": 64, "velocity": 113, "channel": 0}, {"type": "note_off", "time": 111, "note": 64, "velocity": 113, "channel": 0}, {"type": "note_on", "time": 10, "note": 65, "velocity": 112, "channel": 0}, {"type": "note_off", "time": 84, "note": 65, "velocity": 112, "channel": 0}, {"type": "note_on", "time": 17, "note": 67, "velocity": 116, "channel": 0}, {"type": "note_off", "time": 87, "note": 67, "velocity": 116, "channel": 0}, {"type": "note_on", "time": 14, "note": 71, "velocity": 115, "channel": 0}, {"type": "note_off", "time": 89, "note": 71, "velocity": 115, "channel": 0}, {"type": "note_on", "time": 3, "note": 70, "velocity": 111, "channel": 0}, {"type": "note_off", "time": 74, "note": 70, "velocity": 111, "channel": 0}, {"type": "note_on", "time": 19, "note": 67, "velocity": 115, "channel": 0}, {"type": "note_off", "time": 83, "note": 67, "velocity": 115, "channel": 0}, {"type": "note_on", "time": 5, "note": 68, "velocity": 113, "channel": 0}, {"type": "note_off", "time": 78, "note": 68, "velocity": 113, "channel": 0}, {"type": "note_on", "time": 20, "note": 70, "velocity": 109, "channel": 0}, {"type": "note_off", "time": 80, "note": 70, "velocity": 109, "channel": 0}, {"type": "note_on", "time": 6, "note": 71, "velocity": 106, "channel": 0}, {"type": "note_off", "time": 95, "note": 71, "velocity": 106, "channel": 0}, {"type": "note_on", "time": 10, "note": 72, "velocity": 118, "channel": 0}, {"type": "note_off", "time": 74, "note": 72, "velocity": 118, "channel": 0}, {"type": "note_on", "time": 9, "note": 74, "velocity": 114, "channel": 0}, {"type": "note_off", "time": 82, "note": 74, "velocity": 114, "channel": 0}, {"type": "note_on", "time": 15, "note": 83, "velocity": 116, "channel": 0}, {"type": "note_off", "time": 100, "note": 83, "velocity": 116, "channel": 0}, {"type": "note_on", "time": 19, "note": 76, "velocity": 115, "channel": 0}, {"type": "note_off", "time": 65, "note": 76, "velocity": 115, "channel": 0}, {"type": "note_on", "time": 19, "note": 81, "velocity": 118, "channel": 0}, {"type": "note_off", "time": 80, "note": 81, "velocity": 118, "channel": 0}, {"type": "note_on", "time": 17, "note": 79, "velocity": 111, "channel": 0}, {"type": "note_off", "time": 71, "note": 79, "velocity": 111, "channel": 0}, {"type": "note_on", "time": 21, "note": 76, "velocity": 111, "channel": 0}, {"type": "note_off", "time": 72, "note": 76, "velocity": 111, "channel": 0}, {"type": "note_on", "time": 23, "note": 72, "velocity": 115, "channel": 0}, {"type": "note_off", "time": 81, "note": 72, "velocity": 115, "channel": 0}, {"type": "note_on", "time": 7, "note": 69, "velocity": 111, "channel": 0}, {"type": "note_off", "time": 79, "note": 69, "velocity": 111, "channel": 0}, {"type": "note_on", "time": 6, "note": 67, "velocity": 111, "channel": 0}, {"type": "note_off", "time": 112, "note": 67, "velocity": 111, "channel": 0}, {"type": "note_on", "time": 11, "note": 64, "velocity": 110, "channel": 0}, {"type": "note_off", "time": 55, "note": 64, "velocity": 110, "channel": 0}, {"type": "note_on", "time": 6, "note": 66, "velocity": 111, "channel": 0}, {"type": "note_off", "time": 97, "note": 66, "velocity": 111, "channel": 0}, {"type": "note_on", "time": 16, "note": 69, "velocity": 114, "channel": 0}, {"type": "note_off", "time": 88, "note": 69, "velocity": 114, "channel": 0}, {"type": "note_on", "time": 19, "note": 77, "velocity": 115, "channel": 0}, {"type": "note_off", "time": 93, "note": 77, "velocity": 115, "channel": 0}, {"type": "note_on", "time": 7, "note": 75, "velocity": 120, "channel": 0}, {"type": "note_off", "time": 69, "note": 75, "velocity": 120, "channel": 0}, {"type": "note_on", "time": 18, "note": 74, "velocity": 113, "channel": 0}, {"type": "note_off", "time": 85, "note": 74, "velocity": 113, "channel": 0}, {"type": "note_on", "time": 15, "note": 72, "velocity": 118, "channel": 0}, {"type": "note_off", "time": 79, "note": 72, "velocity": 118, "channel": 0}, {"type": "note_on", "time": 23, "note": 71, "velocity": 108, "channel": 0}, {"type": "note_off", "time": 98, "note": 71, "velocity": 108, "channel": 0}, {"type": "note_on", "time": 18, "note": 62, "velocity": 109, "channel": 0}, {"type": "note_off", "time": 155, "note": 62, "velocity": 109, "channel": 0}, {"type": "note_on", "time": 6, "note": 62, "velocity": 106, "channel": 0}, {"type": "note_off", "time": 79, "note": 62, "velocity": 106, "channel": 0}, {"type": "note_on", "time": 13, "note": 64, "velocity": 116, "channel": 0}, {"type": "note_off", "time": 125, "note": 64, "velocity": 116, "channel": 0}, {"type": "note_on", "time": 734, "note": 70, "velocity": 109, "channel": 0}, {"type": "note_off", "time": 24, "note": 70, "velocity": 109, "channel": 0}, {"type": "note_on", "time": 2, "note": 71, "velocity": 115, "channel": 0}, {"type": "note_off", "time": 749, "note": 71, "velocity": 115, "channel": 0}, {"type": "note_on", "time": 6, "note": 72, "velocity": 118, "channel": 0}, {"type": "note_off", "time": 78, "note": 72, "velocity": 118, "channel": 0}, {"type": "note_on", "time": 20, "note": 71, "velocity": 110, "channel": 0}, {"type": "note_off", "time": 86, "note": 71, "velocity": 110, "channel": 0}, {"type": "note_on", "time": 6, "note": 69, "velocity": 112, "channel": 0}, {"type": "note_off", "time": 81, "note": 69, "velocity": 112, "channel": 0}, {"type": "note_on", "time": 28, "note": 71, "velocity": 112, "channel": 0}, {"type": "note_off", "time": 92, "note": 71, "velocity": 112, "channel": 0}, {"type": "note_on", "time": 48, "note": 71, "velocity": 110, "channel": 0}, {"type": "note_off", "time": 117, "note": 71, "velocity": 110, "channel": 0}, {"type": "note_on", "time": 13, "note": 69, "velocity": 113, "channel": 0}, {"type": "note_off", "time": 81, "note": 69, "velocity": 113, "channel": 0}, {"type": "note_on", "time": 47, "note": 69, "velocity": 109, "channel": 0}, {"type": "note_off", "time": 98, "note": 69, "velocity": 109, "channel": 0}, {"type": "note_on", "time": 28, "note": 65, "velocity": 112, "channel": 0}, {"type": "note_off", "time": 109, "note": 65, "velocity": 112, "channel": 0}, {"type": "note_on", "time": 5, "note": 64, "velocity": 111, "channel": 0}, {"type": "note_off", "time": 246, "note": 64, "velocity": 111, "channel": 0}, {"type": "note_on", "time": 53, "note": 57, "velocity": 97, "channel": 0}, {"type": "note_off", "time": 344, "note": 57, "velocity": 97, "channel": 0}, {"type": "note_on", "time": 45, "note": 60, "velocity": 97, "channel": 0}, {"type": "note_off", "time": 26, "note": 60, "velocity": 97, "channel": 0}, {"type": "note_on", "time": 0, "note": 64, "velocity": 115, "channel": 0}, {"type": "note_off", "time": 40, "note": 64, "velocity": 115, "channel": 0}, {"type": "note_on", "time": 19, "note": 67, "velocity": 109, "channel": 0}, {"type": "note_off", "time": 62, "note": 67, "velocity": 109, "channel": 0}, {"type": "note_on", "time": 13, "note": 66, "velocity": 107, "channel": 0}, {"type": "note_off", "time": 84, "note": 66, "velocity": 107, "channel": 0}, {"type": "note_on", "time": 22, "note": 69, "velocity": 109, "channel": 0}, {"type": "note_off", "time": 92, "note": 69, "velocity": 109, "channel": 0}, {"type": "note_on", "time": 7, "note": 72, "velocity": 113, "channel": 0}, {"type": "note_off", "time": 62, "note": 72, "velocity": 113, "channel": 0}, {"type": "note_on", "time": 19, "note": 77, "velocity": 117, "channel": 0}, {"type": "note_off", "time": 76, "note": 77, "velocity": 117, "channel": 0}, {"type": "note_on", "time": 14, "note": 75, "velocity": 118, "channel": 0}, {"type": "note_off", "time": 63, "note": 75, "velocity": 118, "channel": 0}, {"type": "note_on", "time": 17, "note": 77, "velocity": 118, "channel": 0}, {"type": "note_off", "time": 46, "note": 77, "velocity": 118, "channel": 0}, {"type": "note_on", "time": 9, "note": 75, "velocity": 114, "channel": 0}, {"type": "note_off", "time": 34, "note": 75, "velocity": 114, "channel": 0}, {"type": "note_on", "time": 16, "note": 72, "velocity": 110, "channel": 0}, {"type": "note_off", "time": 79, "note": 72, "velocity": 110, "channel": 0}, {"type": "note_on", "time": 7, "note": 75, "velocity": 121, "channel": 0}, {"type": "note_off", "time": 93, "note": 75, "velocity": 121, "channel": 0}, {"type": "note_on", "time": 16, "note": 74, "velocity": 113, "channel": 0}, {"type": "note_off", "time": 76, "note": 74, "velocity": 113, "channel": 0}, {"type": "note_on", "time": 20, "note": 71, "velocity": 109, "channel": 0}, {"type": "note_off", "time": 68, "note": 71, "velocity": 109, "channel": 0}, {"type": "note_on", "time": 24, "note": 66, "velocity": 109, "channel": 0}, {"type": "note_off", "time": 46, "note": 66, "velocity": 109, "channel": 0}, {"type": "note_on", "time": 13, "note": 69, "velocity": 97, "channel": 0}, {"type": "note_off", "time": 20, "note": 69, "velocity": 97, "channel": 0}, {"type": "note_on", "time": 5, "note": 66, "velocity": 105, "channel": 0}, {"type": "note_off", "time": 29, "note": 66, "velocity": 105, "channel": 0}, {"type": "note_on", "time": 3, "note": 62, "velocity": 110, "channel": 0}, {"type": "note_off", "time": 60, "note": 62, "velocity": 110, "channel": 0}, {"type": "note_on", "time": 4, "note": 66, "velocity": 112, "channel": 0}, {"type": "note_off", "time": 93, "note": 66, "velocity": 112, "channel": 0}, {"type": "note_on", "time": 5, "note": 71, "velocity": 111, "channel": 0}, {"type": "note_off", "time": 83, "note": 71, "velocity": 111, "channel": 0}, {"type": "note_on", "time": 13, "note": 66, "velocity": 109, "channel": 0}, {"type": "note_off", "time": 37, "note": 66, "velocity": 109, "channel": 0}, {"type": "note_on", "time": 12, "note": 69, "velocity": 90, "channel": 0}, {"type": "note_off", "time": 21, "note": 69, "velocity": 90, "channel": 0}, {"type": "note_on", "time": 6, "note": 66, "velocity": 107, "channel": 0}, {"type": "note_off", "time": 47, "note": 66, "velocity": 107, "channel": 0}, {"type": "note_on", "time": 6, "note": 62, "velocity": 115, "channel": 0}, {"type": "note_off", "time": 54, "note": 62, "velocity": 115, "channel": 0}, {"type": "note_on", "time": 5, "note": 66, "velocity": 112, "channel": 0}, {"type": "note_off", "time": 97, "note": 66, "velocity": 112, "channel": 0}, {"type": "note_on", "time": 16, "note": 70, "velocity": 106, "channel": 0}, {"type": "note_off", "time": 75, "note": 70, "velocity": 106, "channel": 0}, {"type": "note_on", "time": 7, "note": 66, "velocity": 90, "channel": 0}, {"type": "note_off", "time": 26, "note": 66, "velocity": 90, "channel": 0}, {"type": "note_on", "time": 9, "note": 70, "velocity": 102, "channel": 0}, {"type": "note_off", "time": 23, "note": 70, "velocity": 102, "channel": 0}, {"type": "note_on", "time": 13, "note": 66, "velocity": 107, "channel": 0}, {"type": "note_off", "time": 31, "note": 66, "velocity": 107, "channel": 0}, {"type": "note_on", "time": 2, "note": 62, "velocity": 109, "channel": 0}, {"type": "note_off", "time": 55, "note": 62, "velocity": 109, "channel": 0}, {"type": "note_on", "time": 21, "note": 66, "velocity": 112, "channel": 0}, {"type": "note_off", "time": 95, "note": 66, "velocity": 112, "channel": 0}, {"type": "note_on", "time": 3, "note": 69, "velocity": 111, "channel": 0}, {"type": "note_off", "time": 73, "note": 69, "velocity": 111, "channel": 0}, {"type": "note_on", "time": 15, "note": 66, "velocity": 108, "channel": 0}, {"type": "note_off", "time": 23, "note": 66, "velocity": 108, "channel": 0}, {"type": "note_on", "time": 5, "note": 69, "velocity": 101, "channel": 0}, {"type": "note_off", "time": 20, "note": 69, "velocity": 101, "channel": 0}, {"type": "note_on", "time": 15, "note": 66, "velocity": 109, "channel": 0}, {"type": "note_off", "time": 26, "note": 66, "velocity": 109, "channel": 0}, {"type": "note_on", "time": 23, "note": 62, "velocity": 111, "channel": 0}, {"type": "note_off", "time": 42, "note": 62, "velocity": 111, "channel": 0}, {"type": "note_on", "time": 33, "note": 66, "velocity": 112, "channel": 0}, {"type": "note_off", "time": 83, "note": 66, "velocity": 112, "channel": 0}, {"type": "note_on", "time": 31, "note": 71, "velocity": 109, "channel": 0}, {"type": "note_off", "time": 75, "note": 71, "velocity": 109, "channel": 0}, {"type": "note_on", "time": 13, "note": 66, "velocity": 108, "channel": 0}, {"type": "note_off", "time": 25, "note": 66, "velocity": 108, "channel": 0}, {"type": "note_on", "time": 8, "note": 70, "velocity": 94, "channel": 0}, {"type": "note_off", "time": 22, "note": 70, "velocity": 94, "channel": 0}, {"type": "note_on", "time": 3, "note": 66, "velocity": 111, "channel": 0}, {"type": "note_off", "time": 43, "note": 66, "velocity": 111, "channel": 0}, {"type": "note_on", "time": 5, "note": 62, "velocity": 106, "channel": 0}, {"type": "note_off", "time": 46, "note": 62, "velocity": 106, "channel": 0}, {"type": "note_on", "time": 24, "note": 66, "velocity": 111, "channel": 0}, {"type": "note_off", "time": 106, "note": 66, "velocity": 111, "channel": 0}, {"type": "note_on", "time": 11, "note": 70, "velocity": 108, "channel": 0}, {"type": "note_off", "time": 68, "note": 70, "velocity": 108, "channel": 0}, {"type": "note_on", "time": 13, "note": 66, "velocity": 108, "channel": 0}, {"type": "note_off", "time": 26, "note": 66, "velocity": 108, "channel": 0}, {"type": "note_on", "time": 15, "note": 68, "velocity": 97, "channel": 0}, {"type": "note_off", "time": 16, "note": 68, "velocity": 97, "channel": 0}, {"type": "note_on", "time": 10, "note": 66, "velocity": 110, "channel": 0}, {"type": "note_off", "time": 43, "note": 66, "velocity": 110, "channel": 0}, {"type": "note_on", "time": 0, "note": 62, "velocity": 109, "channel": 0}, {"type": "note_off", "time": 55, "note": 62, "velocity": 109, "channel": 0}, {"type": "note_on", "time": 3, "note": 65, "velocity": 114, "channel": 0}, {"type": "note_off", "time": 112, "note": 65, "velocity": 114, "channel": 0}, {"type": "note_on", "time": 7, "note": 70, "velocity": 109, "channel": 0}, {"type": "note_off", "time": 65, "note": 70, "velocity": 109, "channel": 0}, {"type": "note_on", "time": 22, "note": 65, "velocity": 108, "channel": 0}, {"type": "note_off", "time": 38, "note": 65, "velocity": 108, "channel": 0}, {"type": "note_on", "time": 0, "note": 66, "velocity": 101, "channel": 0}, {"type": "note_off", "time": 16, "note": 66, "velocity": 101, "channel": 0}, {"type": "note_on", "time": 4, "note": 65, "velocity": 109, "channel": 0}, {"type": "note_off", "time": 31, "note": 65, "velocity": 109, "channel": 0}, {"type": "note_on", "time": 16, "note": 62, "velocity": 104, "channel": 0}, {"type": "note_off", "time": 53, "note": 62, "velocity": 104, "channel": 0}, {"type": "note_on", "time": 20, "note": 65, "velocity": 112, "channel": 0}, {"type": "note_off", "time": 84, "note": 65, "velocity": 112, "channel": 0}, {"type": "note_on", "time": 10, "note": 68, "velocity": 110, "channel": 0}, {"type": "note_off", "time": 71, "note": 68, "velocity": 110, "channel": 0}, {"type": "note_on", "time": 22, "note": 65, "velocity": 108, "channel": 0}, {"type": "note_off", "time": 29, "note": 65, "velocity": 108, "channel": 0}, {"type": "note_on", "time": 9, "note": 68, "velocity": 107, "channel": 0}, {"type": "note_off", "time": 16, "note": 68, "velocity": 107, "channel": 0}, {"type": "note_on", "time": 9, "note": 65, "velocity": 109, "channel": 0}, {"type": "note_off", "time": 25, "note": 65, "velocity": 109, "channel": 0}, {"type": "note_on", "time": 17, "note": 62, "velocity": 109, "channel": 0}, {"type": "note_off", "time": 55, "note": 62, "velocity": 109, "channel": 0}, {"type": "note_on", "time": 7, "note": 64, "velocity": 109, "channel": 0}, {"type": "note_off", "time": 93, "note": 64, "velocity": 109, "channel": 0}, {"type": "note_on", "time": 12, "note": 67, "velocity": 105, "channel": 0}, {"type": "note_off", "time": 80, "note": 67, "velocity": 105, "channel": 0}, {"type": "note_on", "time": 8, "note": 64, "velocity": 104, "channel": 0}, {"type": "note_off", "time": 29, "note": 64, "velocity": 104, "channel": 0}, {"type": "note_on", "time": 8, "note": 65, "velocity": 107, "channel": 0}, {"type": "note_off", "time": 23, "note": 65, "velocity": 107, "channel": 0}, {"type": "note_on", "time": 4, "note": 64, "velocity": 106, "channel": 0}, {"type": "note_off", "time": 37, "note": 64, "velocity": 106, "channel": 0}, {"type": "note_on", "time": 10, "note": 60, "velocity": 102, "channel": 0}, {"type": "note_off", "time": 55, "note": 60, "velocity": 102, "channel": 0}, {"type": "note_on", "time": 8, "note": 63, "velocity": 110, "channel": 0}, {"type": "note_off", "time": 99, "note": 63, "velocity": 110, "channel": 0}, {"type": "note_on", "time": 11, "note": 65, "velocity": 110, "channel": 0}, {"type": "note_off", "time": 81, "note": 65, "velocity": 110, "channel": 0}, {"type": "note_on", "time": 10, "note": 63, "velocity": 105, "channel": 0}, {"type": "note_off", "time": 26, "note": 63, "velocity": 105, "channel": 0}, {"type": "note_on", "time": 6, "note": 65, "velocity": 108, "channel": 0}, {"type": "note_off", "time": 24, "note": 65, "velocity": 108, "channel": 0}, {"type": "note_on", "time": 4, "note": 63, "velocity": 110, "channel": 0}, {"type": "note_off", "time": 27, "note": 63, "velocity": 110, "channel": 0}, {"type": "note_on", "time": 8, "note": 60, "velocity": 108, "channel": 0}, {"type": "note_off", "time": 58, "note": 60, "velocity": 108, "channel": 0}, {"type": "note_on", "time": 9, "note": 62, "velocity": 108, "channel": 0}, {"type": "note_off", "time": 84, "note": 62, "velocity": 108, "channel": 0}, {"type": "note_on", "time": 413, "note": 67, "velocity": 111, "channel": 0}, {"type": "note_off", "time": 71, "note": 67, "velocity": 111, "channel": 0}, {"type": "note_on", "time": 19, "note": 69, "velocity": 111, "channel": 0}, {"type": "note_off", "time": 80, "note": 69, "velocity": 111, "channel": 0}, {"type": "note_on", "time": 17, "note": 72, "velocity": 112, "channel": 0}, {"type": "note_off", "time": 61, "note": 72, "velocity": 112, "channel": 0}, {"type": "note_on", "time": 23, "note": 75, "velocity": 119, "channel": 0}, {"type": "note_off", "time": 94, "note": 75, "velocity": 119, "channel": 0}, {"type": "note_on", "time": 23, "note": 81, "velocity": 120, "channel": 0}, {"type": "note_off", "time": 70, "note": 81, "velocity": 120, "channel": 0}, {"type": "note_on", "time": 10, "note": 79, "velocity": 114, "channel": 0}, {"type": "note_off", "time": 97, "note": 79, "velocity": 114, "channel": 0}, {"type": "note_on", "time": 15, "note": 75, "velocity": 116, "channel": 0}, {"type": "note_off", "time": 91, "note": 75, "velocity": 116, "channel": 0}, {"type": "note_on", "time": 6, "note": 74, "velocity": 115, "channel": 0}, {"type": "note_off", "time": 70, "note": 74, "velocity": 115, "channel": 0}, {"type": "note_on", "time": 86, "note": 71, "velocity": 112, "channel": 0}, {"type": "note_off", "time": 162, "note": 71, "velocity": 112, "channel": 0}, {"type": "note_on", "time": 340, "note": 77, "velocity": 120, "channel": 0}, {"type": "note_off", "time": 29, "note": 77, "velocity": 120, "channel": 0}, {"type": "note_on", "time": 16, "note": 76, "velocity": 121, "channel": 0}, {"type": "note_off", "time": 40, "note": 76, "velocity": 121, "channel": 0}, {"type": "note_on", "time": 9, "note": 74, "velocity": 114, "channel": 0}, {"type": "note_off", "time": 75, "note": 74, "velocity": 114, "channel": 0}, {"type": "note_on", "time": 22, "note": 73, "velocity": 118, "channel": 0}, {"type": "note_off", "time": 87, "note": 73, "velocity": 118, "channel": 0}, {"type": "note_on", "time": 8, "note": 72, "velocity": 115, "channel": 0}, {"type": "note_off", "time": 84, "note": 72, "velocity": 115, "channel": 0}, {"type": "note_on", "time": 10, "note": 70, "velocity": 111, "channel": 0}, {"type": "note_off", "time": 79, "note": 70, "velocity": 111, "channel": 0}, {"type": "note_on", "time": 16, "note": 69, "velocity": 112, "channel": 0}, {"type": "note_off", "time": 150, "note": 69, "velocity": 112, "channel": 0}, {"type": "note_on", "time": 200, "note": 60, "velocity": 108, "channel": 0}, {"type": "note_off", "time": 625, "note": 60, "velocity": 108, "channel": 0}, {"type": "note_on", "time": 14, "note": 64, "velocity": 113, "channel": 0}, {"type": "note_off", "time": 37, "note": 64, "velocity": 113, "channel": 0}, {"type": "note_on", "time": 3, "note": 67, "velocity": 115, "channel": 0}, {"type": "note_off", "time": 34, "note": 67, "velocity": 115, "channel": 0}, {"type": "note_on", "time": 13, "note": 71, "velocity": 113, "channel": 0}, {"type": "note_off", "time": 32, "note": 71, "velocity": 113, "channel": 0}, {"type": "note_on", "time": 10, "note": 74, "velocity": 114, "channel": 0}, {"type": "note_off", "time": 43, "note": 74, "velocity": 114, "channel": 0}, {"type": "note_on", "time": 7, "note": 71, "velocity": 112, "channel": 0}, {"type": "note_off", "time": 40, "note": 71, "velocity": 112, "channel": 0}, {"type": "note_on", "time": 10, "note": 74, "velocity": 115, "channel": 0}, {"type": "note_off", "time": 37, "note": 74, "velocity": 115, "channel": 0}, {"type": "note_on", "time": 13, "note": 71, "velocity": 110, "channel": 0}, {"type": "note_off", "time": 39, "note": 71, "velocity": 110, "channel": 0}, {"type": "note_on", "time": 3, "note": 74, "velocity": 111, "channel": 0}, {"type": "note_off", "time": 44, "note": 74, "velocity": 111, "channel": 0}, {"type": "note_on", "time": 9, "note": 71, "velocity": 110, "channel": 0}, {"type": "note_off", "time": 35, "note": 71, "velocity": 110, "channel": 0}, {"type": "note_on", "time": 9, "note": 74, "velocity": 115, "channel": 0}, {"type": "note_off", "time": 60, "note": 74, "velocity": 115, "channel": 0}, {"type": "note_on", "time": 7, "note": 71, "velocity": 109, "channel": 0}, {"type": "note_off", "time": 147, "note": 71, "velocity": 109, "channel": 0}, {"type": "note_on", "time": 8, "note": 67, "velocity": 112, "channel": 0}, {"type": "note_off", "time": 239, "note": 67, "velocity": 112, "channel": 0}, {"type": "note_on", "time": 30, "note": 67, "velocity": 105, "channel": 0}, {"type": "note_off", "time": 232, "note": 67, "velocity": 105, "channel": 0}, {"type": "note_on", "time": 682, "note": 76, "velocity": 124, "channel": 0}, {"type": "note_off", "time": 934, "note": 76, "velocity": 124, "channel": 0}, {"type": "note_on", "time": 22, "note": 74, "velocity": 112, "channel": 0}, {"type": "note_off", "time": 122, "note": 74, "velocity": 112, "channel": 0}, {"type": "note_on", "time": 16, "note": 69, "velocity": 108, "channel": 0}, {"type": "note_off", "time": 221, "note": 69, "velocity": 108, "channel": 0}, {"type": "note_on", "time": 547, "note": 74, "velocity": 120, "channel": 0}, {"type": "note_off", "time": 65, "note": 74, "velocity": 120, "channel": 0}, {"type": "note_on", "time": 6, "note": 77, "velocity": 117, "channel": 0}, {"type": "note_off", "time": 85, "note": 77, "velocity": 117, "channel": 0}, {"type": "note_on", "time": 15, "note": 81, "velocity": 117, "channel": 0}, {"type": "note_off", "time": 86, "note": 81, "velocity": 117, "channel": 0}, {"type": "note_on", "time": 10, "note": 76, "velocity": 116, "channel": 0}, {"type": "note_off", "time": 67, "note": 76, "velocity": 116, "channel": 0}, {"type": "note_on", "time": 9, "note": 77, "velocity": 108, "channel": 0}, {"type": "note_off", "time": 31, "note": 77, "velocity": 108, "channel": 0}, {"type": "note_on", "time": 13, "note": 76, "velocity": 118, "channel": 0}, {"type": "note_off", "time": 72, "note": 76, "velocity": 118, "channel": 0}, {"type": "note_on", "time": 19, "note": 72, "velocity": 105, "channel": 0}, {"type": "note_off", "time": 70, "note": 72, "velocity": 105, "channel": 0}, {"type": "note_on", "time": 15, "note": 69, "velocity": 110, "channel": 0}, {"type": "note_off", "time": 97, "note": 69, "velocity": 110, "channel": 0}, {"type": "note_on", "time": 5, "note": 64, "velocity": 112, "channel": 0}, {"type": "note_off", "time": 76, "note": 64, "velocity": 112, "channel": 0}, {"type": "note_on", "time": 14, "note": 60, "velocity": 19, "channel": 0}, {"type": "note_off", "time": 54, "note": 60, "velocity": 19, "channel": 0}, {"type": "note_on", "time": 13, "note": 64, "velocity": 113, "channel": 0}, {"type": "note_off", "time": 94, "note": 64, "velocity": 113, "channel": 0}, {"type": "note_on", "time": 18, "note": 69, "velocity": 115, "channel": 0}, {"type": "note_off", "time": 78, "note": 69, "velocity": 115, "channel": 0}, {"type": "note_on", "time": 16, "note": 66, "velocity": 112, "channel": 0}, {"type": "note_off", "time": 101, "note": 66, "velocity": 112, "channel": 0}, {"type": "note_on", "time": 22, "note": 60, "velocity": 94, "channel": 0}, {"type": "note_off", "time": 43, "note": 60, "velocity": 94, "channel": 0}, {"type": "note_on", "time": 21, "note": 64, "velocity": 110, "channel": 0}, {"type": "note_off", "time": 85, "note": 64, "velocity": 110, "channel": 0}, {"type": "note_on", "time": 15, "note": 69, "velocity": 111, "channel": 0}, {"type": "note_off", "time": 79, "note": 69, "velocity": 111, "channel": 0}, {"type": "note_on", "time": 18, "note": 66, "velocity": 114, "channel": 0}, {"type": "note_off", "time": 104, "note": 66, "velocity": 114, "channel": 0}, {"type": "note_on", "time": 13, "note": 62, "velocity": 104, "channel": 0}, {"type": "note_off", "time": 231, "note": 62, "velocity": 104, "channel": 0}, {"type": "note_on", "time": 11, "note": 69, "velocity": 116, "channel": 0}, {"type": "note_off", "time": 101, "note": 69, "velocity": 116, "channel": 0}, {"type": "note_on", "time": 15, "note": 66, "velocity": 106, "channel": 0}, {"type": "note_off", "time": 88, "note": 66, "velocity": 106, "channel": 0}, {"type": "note_on", "time": 17, "note": 60, "velocity": 96, "channel": 0}, {"type": "note_off", "time": 72, "note": 60, "velocity": 96, "channel": 0}, {"type": "note_on", "time": 16, "note": 64, "velocity": 110, "channel": 0}, {"type": "note_off", "time": 72, "note": 64, "velocity": 110, "channel": 0}, {"type": "note_on", "time": 10, "note": 69, "velocity": 115, "channel": 0}, {"type": "note_off", "time": 102, "note": 69, "velocity": 115, "channel": 0}, {"type": "note_on", "time": 15, "note": 59, "velocity": 95, "channel": 0}, {"type": "note_off", "time": 31, "note": 59, "velocity": 95, "channel": 0}, {"type": "note_on", "time": 26, "note": 64, "velocity": 114, "channel": 0}, {"type": "note_off", "time": 107, "note": 64, "velocity": 114, "channel": 0}, {"type": "note_on", "time": 15, "note": 69, "velocity": 115, "channel": 0}, {"type": "note_off", "time": 84, "note": 69, "velocity": 115, "channel": 0}, {"type": "note_on", "time": 9, "note": 66, "velocity": 113, "channel": 0}, {"type": "note_off", "time": 82, "note": 66, "velocity": 113, "channel": 0}, {"type": "note_on", "time": 17, "note": 62, "velocity": 114, "channel": 0}, {"type": "note_off", "time": 53, "note": 62, "velocity": 114, "channel": 0}, {"type": "note_on", "time": 14, "note": 60, "velocity": 103, "channel": 0}, {"type": "note_off", "time": 131, "note": 60, "velocity": 103, "channel": 0}, {"type": "note_on", "time": 17, "note": 64, "velocity": 115, "channel": 0}, {"type": "note_off", "time": 33, "note": 64, "velocity": 115, "channel": 0}, {"type": "note_on", "time": 13, "note": 69, "velocity": 115, "channel": 0}, {"type": "note_off", "time": 101, "note": 69, "velocity": 115, "channel": 0}, {"type": "note_on", "time": 13, "note": 60, "velocity": 103, "channel": 0}, {"type": "note_off", "time": 46, "note": 60, "velocity": 103, "channel": 0}, {"type": "note_on", "time": 23, "note": 64, "velocity": 113, "channel": 0}, {"type": "note_off", "time": 55, "note": 64, "velocity": 113, "channel": 0}, {"type": "note_on", "time": 10, "note": 66, "velocity": 115, "channel": 0}, {"type": "note_off", "time": 33, "note": 66, "velocity": 115, "channel": 0}, {"type": "note_on", "time": 11, "note": 69, "velocity": 117, "channel": 0}, {"type": "note_off", "time": 40, "note": 69, "velocity": 117, "channel": 0}, {"type": "note_on", "time": 20, "note": 66, "velocity": 116, "channel": 0}, {"type": "note_off", "time": 93, "note": 66, "velocity": 116, "channel": 0}, {"type": "note_on", "time": 449, "note": 62, "velocity": 115, "channel": 0}, {"type": "note_off", "time": 50, "note": 62, "velocity": 115, "channel": 0}, {"type": "note_on", "time": 9, "note": 64, "velocity": 111, "channel": 0}, {"type": "note_off", "time": 27, "note": 64, "velocity": 111, "channel": 0}, {"type": "note_on", "time": 14, "note": 65, "velocity": 114, "channel": 0}, {"type": "note_off", "time": 37, "note": 65, "velocity": 114, "channel": 0}, {"type": "note_on", "time": 19, "note": 68, "velocity": 118, "channel": 0}, {"type": "note_off", "time": 78, "note": 68, "velocity": 118, "channel": 0}, {"type": "note_on", "time": 8, "note": 67, "velocity": 112, "channel": 0}, {"type": "note_off", "time": 81, "note": 67, "velocity": 112, "channel": 0}, {"type": "note_on", "time": 18, "note": 65, "velocity": 115, "channel": 0}, {"type": "note_off", "time": 63, "note": 65, "velocity": 115, "channel": 0}, {"type": "note_on", "time": 7, "note": 64, "velocity": 112, "channel": 0}, {"type": "note_off", "time": 26, "note": 64, "velocity": 112, "channel": 0}, {"type": "note_on", "time": 8, "note": 65, "velocity": 112, "channel": 0}, {"type": "note_off", "time": 33, "note": 65, "velocity": 112, "channel": 0}, {"type": "note_on", "time": 15, "note": 64, "velocity": 116, "channel": 0}, {"type": "note_off", "time": 37, "note": 64, "velocity": 116, "channel": 0}, {"type": "note_on", "time": 13, "note": 62, "velocity": 116, "channel": 0}, {"type": "note_off", "time": 58, "note": 62, "velocity": 116, "channel": 0}, {"type": "note_on", "time": 26, "note": 60, "velocity": 105, "channel": 0}, {"type": "note_off", "time": 168, "note": 60, "velocity": 105, "channel": 0}, {"type": "note_on", "time": 27, "note": 64, "velocity": 118, "channel": 0}, {"type": "note_off", "time": 99, "note": 64, "velocity": 118, "channel": 0}, {"type": "note_on", "time": 5, "note": 67, "velocity": 117, "channel": 0}, {"type": "note_off", "time": 60, "note": 67, "velocity": 117, "channel": 0}, {"type": "note_on", "time": 26, "note": 71, "velocity": 109, "channel": 0}, {"type": "note_off", "time": 70, "note": 71, "velocity": 109, "channel": 0}, {"type": "note_on", "time": 21, "note": 74, "velocity": 117, "channel": 0}, {"type": "note_off", "time": 73, "note": 74, "velocity": 117, "channel": 0}, {"type": "note_on", "time": 26, "note": 71, "velocity": 112, "channel": 0}, {"type": "note_off", "time": 70, "note": 71, "velocity": 112, "channel": 0}, {"type": "note_on", "time": 21, "note": 74, "velocity": 116, "channel": 0}, {"type": "note_off", "time": 68, "note": 74, "velocity": 116, "channel": 0}, {"type": "note_on", "time": 65, "note": 71, "velocity": 103, "channel": 0}, {"type": "note_off", "time": 83, "note": 71, "velocity": 103, "channel": 0}, {"type": "note_on", "time": 65, "note": 71, "velocity": 109, "channel": 0}, {"type": "note_off", "time": 115, "note": 71, "velocity": 109, "channel": 0}, {"type": "note_on", "time": 33, "note": 71, "velocity": 110, "channel": 0}, {"type": "note_off", "time": 71, "note": 71, "velocity": 110, "channel": 0}, {"type": "note_on", "time": 76, "note": 71, "velocity": 112, "channel": 0}, {"type": "note_off", "time": 91, "note": 71, "velocity": 112, "channel": 0}, {"type": "note_on", "time": 29, "note": 69, "velocity": 110, "channel": 0}, {"type": "note_off", "time": 79, "note": 69, "velocity": 110, "channel": 0}, {"type": "note_on", "time": 10, "note": 71, "velocity": 111, "channel": 0}, {"type": "note_off", "time": 84, "note": 71, "velocity": 111, "channel": 0}, {"type": "note_on", "time": 10, "note": 69, "velocity": 111, "channel": 0}, {"type": "note_off", "time": 75, "note": 69, "velocity": 111, "channel": 0}, {"type": "note_on", "time": 21, "note": 69, "velocity": 111, "channel": 0}, {"type": "note_off", "time": 17, "note": 69, "velocity": 111, "channel": 0}, {"type": "note_on", "time": 8, "note": 66, "velocity": 116, "channel": 0}, {"type": "note_off", "time": 74, "note": 66, "velocity": 116, "channel": 0}, {"type": "note_on", "time": 10, "note": 62, "velocity": 103, "channel": 0}, {"type": "note_off", "time": 127, "note": 62, "velocity": 103, "channel": 0}, {"type": "note_on", "time": 16, "note": 66, "velocity": 105, "channel": 0}, {"type": "note_off", "time": 203, "note": 66, "velocity": 105, "channel": 0}, {"type": "note_on", "time": 476, "note": 63, "velocity": 115, "channel": 0}, {"type": "note_off", "time": 39, "note": 63, "velocity": 115, "channel": 0}, {"type": "note_on", "time": 8, "note": 64, "velocity": 112, "channel": 0}, {"type": "note_off", "time": 43, "note": 64, "velocity": 112, "channel": 0}, {"type": "note_on", "time": 21, "note": 67, "velocity": 111, "channel": 0}, {"type": "note_off", "time": 47, "note": 67, "velocity": 111, "channel": 0}, {"type": "note_on", "time": 7, "note": 65, "velocity": 113, "channel": 0}, {"type": "note_off", "time": 32, "note": 65, "velocity": 113, "channel": 0}, {"type": "note_on", "time": 10, "note": 64, "velocity": 117, "channel": 0}, {"type": "note_off", "time": 66, "note": 64, "velocity": 117, "channel": 0}, {"type": "note_on", "time": 6, "note": 65, "velocity": 115, "channel": 0}, {"type": "note_off", "time": 79, "note": 65, "velocity": 115, "channel": 0}, {"type": "note_on", "time": 19, "note": 67, "velocity": 113, "channel": 0}, {"type": "note_off", "time": 100, "note": 67, "velocity": 113, "channel": 0}, {"type": "note_on", "time": 18, "note": 68, "velocity": 118, "channel": 0}, {"type": "note_off", "time": 101, "note": 68, "velocity": 118, "channel": 0}, {"type": "note_on", "time": 9, "note": 69, "velocity": 109, "channel": 0}, {"type": "note_off", "time": 185, "note": 69, "velocity": 109, "channel": 0}, {"type": "note_on", "time": 36, "note": 72, "velocity": 118, "channel": 0}, {"type": "note_off", "time": 89, "note": 72, "velocity": 118, "channel": 0}, {"type": "note_on", "time": 22, "note": 69, "velocity": 113, "channel": 0}, {"type": "note_off", "time": 57, "note": 69, "velocity": 113, "channel": 0}, {"type": "note_on", "time": 24, "note": 67, "velocity": 114, "channel": 0}, {"type": "note_off", "time": 84, "note": 67, "velocity": 114, "channel": 0}, {"type": "note_on", "time": 18, "note": 64, "velocity": 117, "channel": 0}, {"type": "note_off", "time": 69, "note": 64, "velocity": 117, "channel": 0}, {"type": "note_on", "time": 19, "note": 60, "velocity": 105, "channel": 0}, {"type": "note_off", "time": 137, "note": 60, "velocity": 105, "channel": 0}, {"type": "note_on", "time": 39, "note": 60, "velocity": 103, "channel": 0}, {"type": "note_off", "time": 117, "note": 60, "velocity": 103, "channel": 0}, {"type": "note_on", "time": 9, "note": 62, "velocity": 111, "channel": 0}, {"type": "note_off", "time": 59, "note": 62, "velocity": 111, "channel": 0}, {"type": "note_on", "time": 9, "note": 64, "velocity": 115, "channel": 0}, {"type": "note_off", "time": 86, "note": 64, "velocity": 115, "channel": 0}, {"type": "note_on", "time": 22, "note": 67, "velocity": 114, "channel": 0}, {"type": "note_off", "time": 65, "note": 67, "velocity": 114, "channel": 0}, {"type": "note_on", "time": 21, "note": 71, "velocity": 112, "channel": 0}, {"type": "note_off", "time": 85, "note": 71, "velocity": 112, "channel": 0}, {"type": "note_on", "time": 27, "note": 67, "velocity": 117, "channel": 0}, {"type": "note_off", "time": 89, "note": 67, "velocity": 117, "channel": 0}, {"type": "note_on", "time": 7, "note": 66, "velocity": 110, "channel": 0}, {"type": "note_off", "time": 134, "note": 66, "velocity": 110, "channel": 0}, {"type": "note_on", "time": 21, "note": 62, "velocity": 106, "channel": 0}, {"type": "note_off", "time": 109, "note": 62, "velocity": 106, "channel": 0}, {"type": "note_on", "time": 17, "note": 62, "velocity": 109, "channel": 0}, {"type": "note_off", "time": 220, "note": 62, "velocity": 109, "channel": 0}, {"type": "note_on", "time": 754, "note": 75, "velocity": 121, "channel": 0}, {"type": "note_off", "time": 32, "note": 75, "velocity": 121, "channel": 0}, {"type": "note_on", "time": 3, "note": 76, "velocity": 123, "channel": 0}, {"type": "note_off", "time": 33, "note": 76, "velocity": 123, "channel": 0}, {"type": "note_on", "time": 8, "note": 77, "velocity": 118, "channel": 0}, {"type": "note_off", "time": 32, "note": 77, "velocity": 118, "channel": 0}, {"type": "note_on", "time": 10, "note": 79, "velocity": 111, "channel": 0}, {"type": "note_off", "time": 31, "note": 79, "velocity": 111, "channel": 0}, {"type": "note_on", "time": 7, "note": 83, "velocity": 119, "channel": 0}, {"type": "note_off", "time": 74, "note": 83, "velocity": 119, "channel": 0}, {"type": "note_on", "time": 9, "note": 79, "velocity": 111, "channel": 0}, {"type": "note_off", "time": 230, "note": 79, "velocity": 111, "channel": 0}, {"type": "note_on", "time": 170, "note": 79, "velocity": 118, "channel": 0}, {"type": "note_off", "time": 119, "note": 79, "velocity": 118, "channel": 0}, {"type": "note_on", "time": 6, "note": 72, "velocity": 116, "channel": 0}, {"type": "note_off", "time": 231, "note": 72, "velocity": 116, "channel": 0}, {"type": "note_on", "time": 23, "note": 72, "velocity": 119, "channel": 0}, {"type": "note_off", "time": 118, "note": 72, "velocity": 119, "channel": 0}, {"type": "note_on", "time": 285, "note": 67, "velocity": 110, "channel": 0}, {"type": "note_off", "time": 95, "note": 67, "velocity": 110, "channel": 0}, {"type": "note_on", "time": 39, "note": 60, "velocity": 105, "channel": 0}, {"type": "note_off", "time": 152, "note": 60, "velocity": 105, "channel": 0}, {"type": "note_on", "time": 40, "note": 60, "velocity": 109, "channel": 0}, {"type": "note_off", "time": 282, "note": 60, "velocity": 109, "channel": 0}, {"type": "note_on", "time": 646, "note": 72, "velocity": 120, "channel": 0}, {"type": "note_off", "time": 78, "note": 72, "velocity": 120, "channel": 0}, {"type": "note_on", "time": 14, "note": 75, "velocity": 122, "channel": 0}, {"type": "note_off", "time": 81, "note": 75, "velocity": 122, "channel": 0}, {"type": "note_on", "time": 15, "note": 77, "velocity": 120, "channel": 0}, {"type": "note_off", "time": 83, "note": 77, "velocity": 120, "channel": 0}, {"type": "note_on", "time": 11, "note": 78, "velocity": 123, "channel": 0}, {"type": "note_off", "time": 122, "note": 78, "velocity": 123, "channel": 0}, {"type": "note_on", "time": 18, "note": 87, "velocity": 110, "channel": 0}, {"type": "note_off", "time": 37, "note": 87, "velocity": 110, "channel": 0}, {"type": "note_on", "time": 35, "note": 85, "velocity": 87, "channel": 0}, {"type": "note_off", "time": 96, "note": 85, "velocity": 87, "channel": 0}, {"type": "note_on", "time": 40, "note": 85, "velocity": 96, "channel": 0}, {"type": "note_off", "time": 117, "note": 85, "velocity": 96, "channel": 0}, {"type": "note_on", "time": 295, "note": 83, "velocity": 117, "channel": 0}, {"type": "note_off", "time": 114, "note": 83, "velocity": 117, "channel": 0}, {"type": "note_on", "time": 22, "note": 78, "velocity": 113, "channel": 0}, {"type": "note_off", "time": 80, "note": 78, "velocity": 113, "channel": 0}, {"type": "note_on", "time": 75, "note": 74, "velocity": 110, "channel": 0}, {"type": "note_off", "time": 87, "note": 74, "velocity": 110, "channel": 0}, {"type": "note_on", "time": 23, "note": 82, "velocity": 115, "channel": 0}, {"type": "note_off", "time": 89, "note": 82, "velocity": 115, "channel": 0}, {"type": "note_on", "time": 100, "note": 82, "velocity": 113, "channel": 0}, {"type": "note_off", "time": 169, "note": 82, "velocity": 113, "channel": 0}, {"type": "note_on", "time": 23, "note": 81, "velocity": 111, "channel": 0}, {"type": "note_off", "time": 75, "note": 81, "velocity": 111, "channel": 0}, {"type": "note_on", "time": 30, "note": 78, "velocity": 113, "channel": 0}, {"type": "note_off", "time": 88, "note": 78, "velocity": 113, "channel": 0}, {"type": "note_on", "time": 0, "note": 74, "velocity": 107, "channel": 0}, {"type": "note_off", "time": 68, "note": 74, "velocity": 107, "channel": 0}, {"type": "note_on", "time": 26, "note": 70, "velocity": 111, "channel": 0}, {"type": "note_off", "time": 78, "note": 70, "velocity": 111, "channel": 0}, {"type": "note_on", "time": 13, "note": 69, "velocity": 106, "channel": 0}, {"type": "note_off", "time": 50, "note": 69, "velocity": 106, "channel": 0}, {"type": "note_on", "time": 13, "note": 70, "velocity": 106, "channel": 0}, {"type": "note_off", "time": 21, "note": 70, "velocity": 106, "channel": 0}, {"type": "note_on", "time": 2, "note": 69, "velocity": 105, "channel": 0}, {"type": "note_off", "time": 18, "note": 69, "velocity": 105, "channel": 0}, {"type": "note_on", "time": 17, "note": 66, "velocity": 112, "channel": 0}, {"type": "note_off", "time": 54, "note": 66, "velocity": 112, "channel": 0}, {"type": "note_on", "time": 11, "note": 62, "velocity": 100, "channel": 0}, {"type": "note_off", "time": 117, "note": 62, "velocity": 100, "channel": 0}, {"type": "note_on", "time": 13, "note": 66, "velocity": 97, "channel": 0}, {"type": "note_off", "time": 43, "note": 66, "velocity": 97, "channel": 0}, {"type": "note_on", "time": 30, "note": 69, "velocity": 110, "channel": 0}, {"type": "note_off", "time": 71, "note": 69, "velocity": 110, "channel": 0}, {"type": "note_on", "time": 26, "note": 70, "velocity": 111, "channel": 0}, {"type": "note_off", "time": 71, "note": 70, "velocity": 111, "channel": 0}, {"type": "note_on", "time": 16, "note": 71, "velocity": 109, "channel": 0}, {"type": "note_off", "time": 86, "note": 71, "velocity": 109, "channel": 0}, {"type": "note_on", "time": 10, "note": 74, "velocity": 111, "channel": 0}, {"type": "note_off", "time": 70, "note": 74, "velocity": 111, "channel": 0}, {"type": "note_on", "time": 15, "note": 76, "velocity": 121, "channel": 0}, {"type": "note_off", "time": 99, "note": 76, "velocity": 121, "channel": 0}, {"type": "note_on", "time": 5, "note": 77, "velocity": 116, "channel": 0}, {"type": "note_off", "time": 70, "note": 77, "velocity": 116, "channel": 0}, {"type": "note_on", "time": 14, "note": 77, "velocity": 116, "channel": 0}, {"type": "note_off", "time": 49, "note": 77, "velocity": 116, "channel": 0}, {"type": "note_on", "time": 11, "note": 76, "velocity": 121, "channel": 0}, {"type": "note_off", "time": 23, "note": 76, "velocity": 121, "channel": 0}, {"type": "note_on", "time": 11, "note": 74, "velocity": 112, "channel": 0}, {"type": "note_off", "time": 56, "note": 74, "velocity": 112, "channel": 0}, {"type": "note_on", "time": 11, "note": 72, "velocity": 117, "channel": 0}, {"type": "note_off", "time": 104, "note": 72, "velocity": 117, "channel": 0}, {"type": "note_on", "time": 13, "note": 71, "velocity": 112, "channel": 0}, {"type": "note_off", "time": 69, "note": 71, "velocity": 112, "channel": 0}, {"type": "note_on", "time": 21, "note": 70, "velocity": 109, "channel": 0}, {"type": "note_off", "time": 120, "note": 70, "velocity": 109, "channel": 0}, {"type": "note_on", "time": 10, "note": 67, "velocity": 109, "channel": 0}, {"type": "note_off", "time": 44, "note": 67, "velocity": 109, "channel": 0}, {"type": "note_on", "time": 8, "note": 69, "velocity": 109, "channel": 0}, {"type": "note_off", "time": 104, "note": 69, "velocity": 109, "channel": 0}, {"type": "note_on", "time": 21, "note": 67, "velocity": 113, "channel": 0}, {"type": "note_off", "time": 78, "note": 67, "velocity": 113, "channel": 0}, {"type": "note_on", "time": 16, "note": 60, "velocity": 99, "channel": 0}, {"type": "note_off", "time": 168, "note": 60, "velocity": 99, "channel": 0}, {"type": "note_on", "time": 3, "note": 64, "velocity": 112, "channel": 0}, {"type": "note_off", "time": 153, "note": 64, "velocity": 112, "channel": 0}, {"type": "note_on", "time": 37, "note": 60, "velocity": 101, "channel": 0}, {"type": "note_off", "time": 159, "note": 60, "velocity": 101, "channel": 0}, {"type": "note_on", "time": 16, "note": 63, "velocity": 114, "channel": 0}, {"type": "note_off", "time": 121, "note": 63, "velocity": 114, "channel": 0}, {"type": "note_on", "time": 14, "note": 65, "velocity": 113, "channel": 0}, {"type": "note_off", "time": 29, "note": 65, "velocity": 113, "channel": 0}, {"type": "note_on", "time": 11, "note": 63, "velocity": 107, "channel": 0}, {"type": "note_off", "time": 32, "note": 63, "velocity": 107, "channel": 0}, {"type": "note_on", "time": 27, "note": 60, "velocity": 105, "channel": 0}, {"type": "note_off", "time": 95, "note": 60, "velocity": 105, "channel": 0}, {"type": "note_on", "time": 7, "note": 62, "velocity": 113, "channel": 0}, {"type": "note_off", "time": 78, "note": 62, "velocity": 113, "channel": 0}, {"type": "note_on", "time": 18, "note": 63, "velocity": 117, "channel": 0}, {"type": "note_off", "time": 80, "note": 63, "velocity": 117, "channel": 0}, {"type": "note_on", "time": 7, "note": 65, "velocity": 111, "channel": 0}, {"type": "note_off", "time": 95, "note": 65, "velocity": 111, "channel": 0}, {"type": "note_on", "time": 7, "note": 66, "velocity": 105, "channel": 0}, {"type": "note_off", "time": 24, "note": 66, "velocity": 105, "channel": 0}, {"type": "note_on", "time": 3, "note": 67, "velocity": 108, "channel": 0}, {"type": "note_off", "time": 73, "note": 67, "velocity": 108, "channel": 0}, {"type": "note_on", "time": 8, "note": 75, "velocity": 114, "channel": 0}, {"type": "note_off", "time": 57, "note": 75, "velocity": 114, "channel": 0}, {"type": "note_on", "time": 23, "note": 74, "velocity": 117, "channel": 0}, {"type": "note_off", "time": 75, "note": 74, "velocity": 117, "channel": 0}, {"type": "note_on", "time": 10, "note": 72, "velocity": 117, "channel": 0}, {"type": "note_off", "time": 81, "note": 72, "velocity": 117, "channel": 0}, {"type": "note_on", "time": 17, "note": 71, "velocity": 107, "channel": 0}, {"type": "note_off", "time": 79, "note": 71, "velocity": 107, "channel": 0}, {"type": "note_on", "time": 15, "note": 70, "velocity": 110, "channel": 0}, {"type": "note_off", "time": 71, "note": 70, "velocity": 110, "channel": 0}, {"type": "note_on", "time": 27, "note": 69, "velocity": 108, "channel": 0}, {"type": "note_off", "time": 87, "note": 69, "velocity": 108, "channel": 0}, {"type": "note_on", "time": 13, "note": 67, "velocity": 113, "channel": 0}, {"type": "note_off", "time": 79, "note": 67, "velocity": 113, "channel": 0}, {"type": "note_on", "time": 22, "note": 65, "velocity": 112, "channel": 0}, {"type": "note_off", "time": 81, "note": 65, "velocity": 112, "channel": 0}, {"type": "note_on", "time": 9, "note": 64, "velocity": 113, "channel": 0}, {"type": "note_off", "time": 85, "note": 64, "velocity": 113, "channel": 0}, {"type": "note_on", "time": 19, "note": 63, "velocity": 116, "channel": 0}, {"type": "note_off", "time": 82, "note": 63, "velocity": 116, "channel": 0}, {"type": "note_on", "time": 14, "note": 62, "velocity": 114, "channel": 0}, {"type": "note_off", "time": 61, "note": 62, "velocity": 114, "channel": 0}, {"type": "note_on", "time": 17, "note": 61, "velocity": 112, "channel": 0}, {"type": "note_off", "time": 85, "note": 61, "velocity": 112, "channel": 0}, {"type": "note_on", "time": 16, "note": 65, "velocity": 113, "channel": 0}, {"type": "note_off", "time": 68, "note": 65, "velocity": 113, "channel": 0}, {"type": "note_on", "time": 23, "note": 63, "velocity": 107, "channel": 0}, {"type": "note_off", "time": 27, "note": 63, "velocity": 107, "channel": 0}, {"type": "note_on", "time": 8, "note": 65, "velocity": 110, "channel": 0}, {"type": "note_off", "time": 29, "note": 65, "velocity": 110, "channel": 0}, {"type": "note_on", "time": 13, "note": 63, "velocity": 113, "channel": 0}, {"type": "note_off", "time": 22, "note": 63, "velocity": 113, "channel": 0}, {"type": "note_on", "time": 19, "note": 61, "velocity": 113, "channel": 0}, {"type": "note_off", "time": 59, "note": 61, "velocity": 113, "channel": 0}, {"type": "note_on", "time": 10, "note": 63, "velocity": 113, "channel": 0}, {"type": "note_off", "time": 100, "note": 63, "velocity": 113, "channel": 0}, {"type": "note_on", "time": 21, "note": 65, "velocity": 106, "channel": 0}, {"type": "note_off", "time": 91, "note": 65, "velocity": 106, "channel": 0}, {"type": "note_on", "time": 11, "note": 64, "velocity": 110, "channel": 0}, {"type": "note_off", "time": 86, "note": 64, "velocity": 110, "channel": 0}, {"type": "note_on", "time": 421, "note": 57, "velocity": 101, "channel": 0}, {"type": "note_off", "time": 44, "note": 57, "velocity": 101, "channel": 0}, {"type": "note_on", "time": 15, "note": 60, "velocity": 101, "channel": 0}, {"type": "note_off", "time": 33, "note": 60, "velocity": 101, "channel": 0}, {"type": "note_on", "time": 7, "note": 64, "velocity": 117, "channel": 0}, {"type": "note_off", "time": 34, "note": 64, "velocity": 117, "channel": 0}, {"type": "note_on", "time": 7, "note": 67, "velocity": 115, "channel": 0}, {"type": "note_off", "time": 99, "note": 67, "velocity": 115, "channel": 0}, {"type": "note_on", "time": 4, "note": 66, "velocity": 109, "channel": 0}, {"type": "note_off", "time": 126, "note": 66, "velocity": 109, "channel": 0}, {"type": "note_on", "time": 6, "note": 69, "velocity": 102, "channel": 0}, {"type": "note_off", "time": 40, "note": 69, "velocity": 102, "channel": 0}, {"type": "note_on", "time": 27, "note": 72, "velocity": 117, "channel": 0}, {"type": "note_off", "time": 76, "note": 72, "velocity": 117, "channel": 0}, {"type": "note_on", "time": 11, "note": 74, "velocity": 116, "channel": 0}, {"type": "note_off", "time": 80, "note": 74, "velocity": 116, "channel": 0}, {"type": "note_on", "time": 8, "note": 75, "velocity": 122, "channel": 0}, {"type": "note_off", "time": 68, "note": 75, "velocity": 122, "channel": 0}, {"type": "note_on", "time": 5, "note": 78, "velocity": 118, "channel": 0}, {"type": "note_off", "time": 30, "note": 78, "velocity": 118, "channel": 0}, {"type": "note_on", "time": 6, "note": 75, "velocity": 111, "channel": 0}, {"type": "note_off", "time": 18, "note": 75, "velocity": 111, "channel": 0}, {"type": "note_on", "time": 10, "note": 72, "velocity": 113, "channel": 0}, {"type": "note_off", "time": 50, "note": 72, "velocity": 113, "channel": 0}, {"type": "note_on", "time": 14, "note": 74, "velocity": 115, "channel": 0}, {"type": "note_off", "time": 83, "note": 74, "velocity": 115, "channel": 0}, {"type": "note_on", "time": 35, "note": 71, "velocity": 112, "channel": 0}, {"type": "note_off", "time": 97, "note": 71, "velocity": 112, "channel": 0}, {"type": "note_on", "time": 84, "note": 65, "velocity": 111, "channel": 0}, {"type": "note_off", "time": 37, "note": 65, "velocity": 111, "channel": 0}, {"type": "note_on", "time": 5, "note": 66, "velocity": 106, "channel": 0}, {"type": "note_off", "time": 200, "note": 66, "velocity": 106, "channel": 0}, {"type": "note_on", "time": 27, "note": 62, "velocity": 106, "channel": 0}, {"type": "note_off", "time": 122, "note": 62, "velocity": 106, "channel": 0}, {"type": "note_on", "time": 52, "note": 62, "velocity": 103, "channel": 0}, {"type": "note_off", "time": 99, "note": 62, "velocity": 103, "channel": 0}, {"type": "note_on", "time": 36, "note": 66, "velocity": 116, "channel": 0}, {"type": "note_off", "time": 68, "note": 66, "velocity": 116, "channel": 0}, {"type": "note_on", "time": 538, "note": 76, "velocity": 125, "channel": 0}, {"type": "note_off", "time": 146, "note": 76, "velocity": 125, "channel": 0}, {"type": "note_on", "time": 18, "note": 72, "velocity": 94, "channel": 0}, {"type": "note_off", "time": 82, "note": 72, "velocity": 94, "channel": 0}, {"type": "note_on", "time": 329, "note": 68, "velocity": 112, "channel": 0}, {"type": "note_off", "time": 26, "note": 68, "velocity": 112, "channel": 0}, {"type": "note_on", "time": 6, "note": 69, "velocity": 112, "channel": 0}, {"type": "note_off", "time": 107, "note": 69, "velocity": 112, "channel": 0}, {"type": "note_on", "time": 7, "note": 64, "velocity": 116, "channel": 0}, {"type": "note_off", "time": 66, "note": 64, "velocity": 116, "channel": 0}, {"type": "note_on", "time": 101, "note": 69, "velocity": 113, "channel": 0}, {"type": "note_off", "time": 83, "note": 69, "velocity": 113, "channel": 0}, {"type": "note_on", "time": 43, "note": 74, "velocity": 110, "channel": 0}, {"type": "note_off", "time": 94, "note": 74, "velocity": 110, "channel": 0}, {"type": "note_on", "time": 74, "note": 74, "velocity": 114, "channel": 0}, {"type": "note_off", "time": 114, "note": 74, "velocity": 114, "channel": 0}, {"type": "note_on", "time": 247, "note": 76, "velocity": 127, "channel": 0}, {"type": "note_off", "time": 215, "note": 76, "velocity": 127, "channel": 0}, {"type": "note_on", "time": 369, "note": 68, "velocity": 113, "channel": 0}, {"type": "note_off", "time": 26, "note": 68, "velocity": 113, "channel": 0}, {"type": "note_on", "time": 1, "note": 69, "velocity": 112, "channel": 0}, {"type": "note_off", "time": 25, "note": 69, "velocity": 112, "channel": 0}, {"type": "note_on", "time": 3, "note": 71, "velocity": 114, "channel": 0}, {"type": "note_off", "time": 36, "note": 71, "velocity": 114, "channel": 0}, {"type": "note_on", "time": 3, "note": 69, "velocity": 110, "channel": 0}, {"type": "note_off", "time": 29, "note": 69, "velocity": 110, "channel": 0}, {"type": "note_on", "time": 5, "note": 64, "velocity": 114, "channel": 0}, {"type": "note_off", "time": 58, "note": 64, "velocity": 114, "channel": 0}, {"type": "note_on", "time": 19, "note": 69, "velocity": 108, "channel": 0}, {"type": "note_off", "time": 112, "note": 69, "velocity": 108, "channel": 0}, {"type": "note_on", "time": 15, "note": 74, "velocity": 118, "channel": 0}, {"type": "note_off", "time": 112, "note": 74, "velocity": 118, "channel": 0}, {"type": "note_on", "time": 146, "note": 70, "velocity": 109, "channel": 0}, {"type": "note_off", "time": 36, "note": 70, "velocity": 109, "channel": 0}, {"type": "note_on", "time": 12, "note": 71, "velocity": 112, "channel": 0}, {"type": "note_off", "time": 22, "note": 71, "velocity": 112, "channel": 0}, {"type": "note_on", "time": 9, "note": 70, "velocity": 112, "channel": 0}, {"type": "note_off", "time": 32, "note": 70, "velocity": 112, "channel": 0}, {"type": "note_on", "time": 7, "note": 66, "velocity": 116, "channel": 0}, {"type": "note_off", "time": 65, "note": 66, "velocity": 116, "channel": 0}, {"type": "note_on", "time": 11, "note": 70, "velocity": 111, "channel": 0}, {"type": "note_off", "time": 108, "note": 70, "velocity": 111, "channel": 0}, {"type": "note_on", "time": 18, "note": 72, "velocity": 115, "channel": 0}, {"type": "note_off", "time": 98, "note": 72, "velocity": 115, "channel": 0}, {"type": "note_on", "time": 151, "note": 70, "velocity": 106, "channel": 0}, {"type": "note_off", "time": 20, "note": 70, "velocity": 106, "channel": 0}, {"type": "note_on", "time": 5, "note": 71, "velocity": 114, "channel": 0}, {"type": "note_off", "time": 319, "note": 71, "velocity": 114, "channel": 0}, {"type": "note_on", "time": 14, "note": 69, "velocity": 111, "channel": 0}, {"type": "note_off", "time": 19, "note": 69, "velocity": 111, "channel": 0}, {"type": "note_on", "time": 5, "note": 67, "velocity": 114, "channel": 0}, {"type": "note_off", "time": 26, "note": 67, "velocity": 114, "channel": 0}, {"type": "note_on", "time": 5, "note": 66, "velocity": 116, "channel": 0}, {"type": "note_off", "time": 366, "note": 66, "velocity": 116, "channel": 0}, {"type": "note_on", "time": 11, "note": 70, "velocity": 114, "channel": 0}, {"type": "note_off", "time": 113, "note": 70, "velocity": 114, "channel": 0}, {"type": "note_on", "time": 6, "note": 69, "velocity": 112, "channel": 0}, {"type": "note_off", "time": 38, "note": 69, "velocity": 112, "channel": 0}, {"type": "note_on", "time": 4, "note": 67, "velocity": 116, "channel": 0}, {"type": "note_off", "time": 38, "note": 67, "velocity": 116, "channel": 0}, {"type": "note_on", "time": 2, "note": 66, "velocity": 116, "channel": 0}, {"type": "note_off", "time": 199, "note": 66, "velocity": 116, "channel": 0}, {"type": "note_on", "time": 0, "note": 70, "velocity": 113, "channel": 0}, {"type": "note_off", "time": 81, "note": 70, "velocity": 113, "channel": 0}, {"type": "note_on", "time": 4, "note": 69, "velocity": 112, "channel": 0}, {"type": "note_off", "time": 23, "note": 69, "velocity": 112, "channel": 0}, {"type": "note_on", "time": 14, "note": 67, "velocity": 113, "channel": 0}, {"type": "note_off", "time": 46, "note": 67, "velocity": 113, "channel": 0}, {"type": "note_on", "time": 4, "note": 66, "velocity": 116, "channel": 0}, {"type": "note_off", "time": 148, "note": 66, "velocity": 116, "channel": 0}, {"type": "note_on", "time": 58, "note": 71, "velocity": 113, "channel": 0}, {"type": "note_off", "time": 71, "note": 71, "velocity": 113, "channel": 0}, {"type": "note_on", "time": 13, "note": 69, "velocity": 111, "channel": 0}, {"type": "note_off", "time": 32, "note": 69, "velocity": 111, "channel": 0}, {"type": "note_on", "time": 4, "note": 67, "velocity": 110, "channel": 0}, {"type": "note_off", "time": 42, "note": 67, "velocity": 110, "channel": 0}, {"type": "note_on", "time": 6, "note": 66, "velocity": 115, "channel": 0}, {"type": "note_off", "time": 162, "note": 66, "velocity": 115, "channel": 0}, {"type": "note_on", "time": 33, "note": 71, "velocity": 114, "channel": 0}, {"type": "note_off", "time": 59, "note": 71, "velocity": 114, "channel": 0}, {"type": "note_on", "time": 15, "note": 69, "velocity": 109, "channel": 0}, {"type": "note_off", "time": 37, "note": 69, "velocity": 109, "channel": 0}, {"type": "note_on", "time": 5, "note": 67, "velocity": 113, "channel": 0}, {"type": "note_off", "time": 38, "note": 67, "velocity": 113, "channel": 0}, {"type": "note_on", "time": 5, "note": 66, "velocity": 114, "channel": 0}, {"type": "note_off", "time": 132, "note": 66, "velocity": 114, "channel": 0}, {"type": "note_on", "time": 12, "note": 70, "velocity": 109, "channel": 0}, {"type": "note_off", "time": 84, "note": 70, "velocity": 109, "channel": 0}, {"type": "note_on", "time": 462, "note": 72, "velocity": 117, "channel": 0}, {"type": "note_off", "time": 66, "note": 72, "velocity": 117, "channel": 0}, {"type": "note_on", "time": 36, "note": 74, "velocity": 115, "channel": 0}, {"type": "note_off", "time": 85, "note": 74, "velocity": 115, "channel": 0}, {"type": "note_on", "time": 13, "note": 77, "velocity": 118, "channel": 0}, {"type": "note_off", "time": 94, "note": 77, "velocity": 118, "channel": 0}, {"type": "note_on", "time": 10, "note": 76, "velocity": 122, "channel": 0}, {"type": "note_off", "time": 124, "note": 76, "velocity": 122, "channel": 0}, {"type": "note_on", "time": 5, "note": 75, "velocity": 120, "channel": 0}, {"type": "note_off", "time": 60, "note": 75, "velocity": 120, "channel": 0}, {"type": "note_on", "time": 5, "note": 76, "velocity": 116, "channel": 0}, {"type": "note_off", "time": 144, "note": 76, "velocity": 116, "channel": 0}, {"type": "note_on", "time": 7, "note": 72, "velocity": 117, "channel": 0}, {"type": "note_off", "time": 138, "note": 72, "velocity": 117, "channel": 0}, {"type": "note_on", "time": 8, "note": 67, "velocity": 106, "channel": 0}, {"type": "note_off", "time": 208, "note": 67, "velocity": 106, "channel": 0}, {"type": "note_on", "time": 345, "note": 74, "velocity": 111, "channel": 0}, {"type": "note_off", "time": 33, "note": 74, "velocity": 111, "channel": 0}, {"type": "note_on", "time": 6, "note": 75, "velocity": 123, "channel": 0}, {"type": "note_off", "time": 378, "note": 75, "velocity": 123, "channel": 0}, {"type": "note_on", "time": 13, "note": 72, "velocity": 110, "channel": 0}, {"type": "note_off", "time": 47, "note": 72, "velocity": 110, "channel": 0}, {"type": "note_on", "time": 16, "note": 75, "velocity": 122, "channel": 0}, {"type": "note_off", "time": 187, "note": 75, "velocity": 122, "channel": 0}, {"type": "note_on", "time": 10, "note": 75, "velocity": 120, "channel": 0}, {"type": "note_off", "time": 163, "note": 75, "velocity": 120, "channel": 0}, {"type": "note_on", "time": 5, "note": 74, "velocity": 115, "channel": 0}, {"type": "note_off", "time": 110, "note": 74, "velocity": 115, "channel": 0}, {"type": "note_on", "time": 14, "note": 66, "velocity": 108, "channel": 0}, {"type": "note_off", "time": 254, "note": 66, "velocity": 108, "channel": 0}, {"type": "note_on", "time": 315, "note": 74, "velocity": 120, "channel": 0}, {"type": "note_off", "time": 57, "note": 74, "velocity": 120, "channel": 0}, {"type": "note_on", "time": 126, "note": 74, "velocity": 118, "channel": 0}, {"type": "note_off", "time": 70, "note": 74, "velocity": 118, "channel": 0}, {"type": "note_on", "time": 111, "note": 64, "velocity": 107, "channel": 0}, {"type": "note_off", "time": 20, "note": 64, "velocity": 107, "channel": 0}, {"type": "note_on", "time": 7, "note": 65, "velocity": 110, "channel": 0}, {"type": "note_off", "time": 85, "note": 65, "velocity": 110, "channel": 0}, {"type": "note_on", "time": 15, "note": 74, "velocity": 116, "channel": 0}, {"type": "note_off", "time": 160, "note": 74, "velocity": 116, "channel": 0}, {"type": "note_on", "time": 8, "note": 74, "velocity": 119, "channel": 0}, {"type": "note_off", "time": 138, "note": 74, "velocity": 119, "channel": 0}, {"type": "note_on", "time": 54, "note": 72, "velocity": 9, "channel": 0}, {"type": "note_off", "time": 96, "note": 72, "velocity": 9, "channel": 0}, {"type": "note_on", "time": 50, "note": 63, "velocity": 116, "channel": 0}, {"type": "note_off", "time": 611, "note": 63, "velocity": 116, "channel": 0}, {"type": "note_on", "time": 18, "note": 60, "velocity": 106, "channel": 0}, {"type": "note_off", "time": 84, "note": 60, "velocity": 106, "channel": 0}, {"type": "note_on", "time": 14, "note": 62, "velocity": 115, "channel": 0}, {"type": "note_off", "time": 46, "note": 62, "velocity": 115, "channel": 0}, {"type": "note_on", "time": 31, "note": 63, "velocity": 117, "channel": 0}, {"type": "note_off", "time": 95, "note": 63, "velocity": 117, "channel": 0}, {"type": "note_on", "time": 15, "note": 65, "velocity": 115, "channel": 0}, {"type": "note_off", "time": 67, "note": 65, "velocity": 115, "channel": 0}, {"type": "note_on", "time": 36, "note": 62, "velocity": 113, "channel": 0}, {"type": "note_off", "time": 1184, "note": 62, "velocity": 113, "channel": 0}, {"type": "note_on", "time": 15, "note": 60, "velocity": 107, "channel": 0}, {"type": "note_off", "time": 66, "note": 60, "velocity": 107, "channel": 0}, {"type": "note_on", "time": 11, "note": 62, "velocity": 113, "channel": 0}, {"type": "note_off", "time": 80, "note": 62, "velocity": 113, "channel": 0}, {"type": "note_on", "time": 29, "note": 69, "velocity": 109, "channel": 0}, {"type": "note_off", "time": 85, "note": 69, "velocity": 109, "channel": 0}, {"type": "note_on", "time": 23, "note": 72, "velocity": 119, "channel": 0}, {"type": "note_off", "time": 85, "note": 72, "velocity": 119, "channel": 0}, {"type": "note_on", "time": 11, "note": 74, "velocity": 112, "channel": 0}, {"type": "note_off", "time": 61, "note": 74, "velocity": 112, "channel": 0}, {"type": "note_on", "time": 19, "note": 81, "velocity": 120, "channel": 0}, {"type": "note_off", "time": 78, "note": 81, "velocity": 120, "channel": 0}, {"type": "note_on", "time": 22, "note": 74, "velocity": 109, "channel": 0}, {"type": "note_off", "time": 60, "note": 74, "velocity": 109, "channel": 0}, {"type": "note_on", "time": 16, "note": 72, "velocity": 120, "channel": 0}, {"type": "note_off", "time": 79, "note": 72, "velocity": 120, "channel": 0}, {"type": "note_on", "time": 14, "note": 69, "velocity": 108, "channel": 0}, {"type": "note_off", "time": 67, "note": 69, "velocity": 108, "channel": 0}, {"type": "note_on", "time": 33, "note": 62, "velocity": 112, "channel": 0}, {"type": "note_off", "time": 78, "note": 62, "velocity": 112, "channel": 0}, {"type": "note_on", "time": 13, "note": 60, "velocity": 102, "channel": 0}, {"type": "note_off", "time": 40, "note": 60, "velocity": 102, "channel": 0}, {"type": "note_on", "time": 14, "note": 62, "velocity": 110, "channel": 0}, {"type": "note_off", "time": 112, "note": 62, "velocity": 110, "channel": 0}, {"type": "note_on", "time": 20, "note": 66, "velocity": 105, "channel": 0}, {"type": "note_off", "time": 226, "note": 66, "velocity": 105, "channel": 0}, {"type": "note_on", "time": 560, "note": 72, "velocity": 114, "channel": 0}, {"type": "note_off", "time": 45, "note": 72, "velocity": 114, "channel": 0}, {"type": "note_on", "time": 14, "note": 74, "velocity": 113, "channel": 0}, {"type": "note_off", "time": 39, "note": 74, "velocity": 113, "channel": 0}, {"type": "note_on", "time": 4, "note": 77, "velocity": 120, "channel": 0}, {"type": "note_off", "time": 44, "note": 77, "velocity": 120, "channel": 0}, {"type": "note_on", "time": 3, "note": 81, "velocity": 122, "channel": 0}, {"type": "note_off", "time": 83, "note": 81, "velocity": 122, "channel": 0}, {"type": "note_on", "time": 10, "note": 78, "velocity": 116, "channel": 0}, {"type": "note_off", "time": 106, "note": 78, "velocity": 116, "channel": 0}, {"type": "note_on", "time": 8, "note": 82, "velocity": 110, "channel": 0}, {"type": "note_off", "time": 632, "note": 82, "velocity": 110, "channel": 0}, {"type": "note_on", "time": 21, "note": 78, "velocity": 113, "channel": 0}, {"type": "note_off", "time": 45, "note": 78, "velocity": 113, "channel": 0}, {"type": "note_on", "time": 9, "note": 79, "velocity": 109, "channel": 0}, {"type": "note_off", "time": 31, "note": 79, "velocity": 109, "channel": 0}, {"type": "note_on", "time": 3, "note": 78, "velocity": 113, "channel": 0}, {"type": "note_off", "time": 37, "note": 78, "velocity": 113, "channel": 0}, {"type": "note_on", "time": 10, "note": 74, "velocity": 108, "channel": 0}, {"type": "note_off", "time": 61, "note": 74, "velocity": 108, "channel": 0}, {"type": "note_on", "time": 26, "note": 78, "velocity": 119, "channel": 0}, {"type": "note_off", "time": 93, "note": 78, "velocity": 119, "channel": 0}, {"type": "note_on", "time": 26, "note": 78, "velocity": 113, "channel": 0}, {"type": "note_off", "time": 91, "note": 78, "velocity": 113, "channel": 0}, {"type": "note_on", "time": 60, "note": 78, "velocity": 113, "channel": 0}, {"type": "note_off", "time": 119, "note": 78, "velocity": 113, "channel": 0}, {"type": "note_on", "time": 9, "note": 74, "velocity": 112, "channel": 0}, {"type": "note_off", "time": 105, "note": 74, "velocity": 112, "channel": 0}, {"type": "note_on", "time": 16, "note": 70, "velocity": 109, "channel": 0}, {"type": "note_off", "time": 86, "note": 70, "velocity": 109, "channel": 0}, {"type": "note_on", "time": 54, "note": 70, "velocity": 100, "channel": 0}, {"type": "note_off", "time": 91, "note": 70, "velocity": 100, "channel": 0}, {"type": "note_on", "time": 22, "note": 66, "velocity": 111, "channel": 0}, {"type": "note_off", "time": 108, "note": 66, "velocity": 111, "channel": 0}, {"type": "note_on", "time": 17, "note": 62, "velocity": 113, "channel": 0}, {"type": "note_off", "time": 78, "note": 62, "velocity": 113, "channel": 0}, {"type": "note_on", "time": 48, "note": 62, "velocity": 112, "channel": 0}, {"type": "note_off", "time": 83, "note": 62, "velocity": 112, "channel": 0}, {"type": "note_on", "time": 30, "note": 58, "velocity": 105, "channel": 0}, {"type": "note_off", "time": 407, "note": 58, "velocity": 105, "channel": 0}, {"type": "note_on", "time": 19, "note": 72, "velocity": 108, "channel": 0}, {"type": "note_off", "time": 37, "note": 72, "velocity": 108, "channel": 0}, {"type": "note_on", "time": 22, "note": 66, "velocity": 111, "channel": 0}, {"type": "note_off", "time": 36, "note": 66, "velocity": 111, "channel": 0}, {"type": "note_on", "time": 13, "note": 70, "velocity": 110, "channel": 0}, {"type": "note_off", "time": 35, "note": 70, "velocity": 110, "channel": 0}, {"type": "note_on", "time": 11, "note": 74, "velocity": 116, "channel": 0}, {"type": "note_off", "time": 48, "note": 74, "velocity": 116, "channel": 0}, {"type": "note_on", "time": 10, "note": 70, "velocity": 112, "channel": 0}, {"type": "note_off", "time": 35, "note": 70, "velocity": 112, "channel": 0}, {"type": "note_on", "time": 5, "note": 74, "velocity": 113, "channel": 0}, {"type": "note_off", "time": 50, "note": 74, "velocity": 113, "channel": 0}, {"type": "note_on", "time": 9, "note": 70, "velocity": 110, "channel": 0}, {"type": "note_off", "time": 30, "note": 70, "velocity": 110, "channel": 0}, {"type": "note_on", "time": 20, "note": 74, "velocity": 117, "channel": 0}, {"type": "note_off", "time": 80, "note": 74, "velocity": 117, "channel": 0}, {"type": "note_on", "time": 106, "note": 70, "velocity": 109, "channel": 0}, {"type": "note_off", "time": 100, "note": 70, "velocity": 109, "channel": 0}, {"type": "note_on", "time": 2, "note": 66, "velocity": 111, "channel": 0}, {"type": "note_off", "time": 239, "note": 66, "velocity": 111, "channel": 0}, {"type": "note_on", "time": 17, "note": 65, "velocity": 107, "channel": 0}, {"type": "note_off", "time": 94, "note": 65, "velocity": 107, "channel": 0}, {"type": "note_on", "time": 776, "note": 67, "velocity": 111, "channel": 0}, {"type": "note_off", "time": 27, "note": 67, "velocity": 111, "channel": 0}, {"type": "note_on", "time": 4, "note": 68, "velocity": 109, "channel": 0}, {"type": "note_off", "time": 46, "note": 68, "velocity": 109, "channel": 0}, {"type": "note_on", "time": 2, "note": 69, "velocity": 110, "channel": 0}, {"type": "note_off", "time": 78, "note": 69, "velocity": 110, "channel": 0}, {"type": "note_on", "time": 17, "note": 71, "velocity": 111, "channel": 0}, {"type": "note_off", "time": 75, "note": 71, "velocity": 111, "channel": 0}, {"type": "note_on", "time": 19, "note": 72, "velocity": 118, "channel": 0}, {"type": "note_off", "time": 78, "note": 72, "velocity": 118, "channel": 0}, {"type": "note_on", "time": 13, "note": 74, "velocity": 111, "channel": 0}, {"type": "note_off", "time": 68, "note": 74, "velocity": 111, "channel": 0}, {"type": "note_on", "time": 18, "note": 76, "velocity": 120, "channel": 0}, {"type": "note_off", "time": 93, "note": 76, "velocity": 120, "channel": 0}, {"type": "note_on", "time": 5, "note": 79, "velocity": 115, "channel": 0}, {"type": "note_off", "time": 81, "note": 79, "velocity": 115, "channel": 0}, {"type": "note_on", "time": 18, "note": 75, "velocity": 110, "channel": 0}, {"type": "note_off", "time": 87, "note": 75, "velocity": 110, "channel": 0}, {"type": "note_on", "time": 13, "note": 79, "velocity": 115, "channel": 0}, {"type": "note_off", "time": 84, "note": 79, "velocity": 115, "channel": 0}, {"type": "note_on", "time": 6, "note": 81, "velocity": 120, "channel": 0}, {"type": "note_off", "time": 109, "note": 81, "velocity": 120, "channel": 0}, {"type": "note_on", "time": 16, "note": 79, "velocity": 116, "channel": 0}, {"type": "note_off", "time": 25, "note": 79, "velocity": 116, "channel": 0}, {"type": "note_on", "time": 3, "note": 81, "velocity": 115, "channel": 0}, {"type": "note_off", "time": 19, "note": 81, "velocity": 115, "channel": 0}, {"type": "note_on", "time": 3, "note": 79, "velocity": 110, "channel": 0}, {"type": "note_off", "time": 25, "note": 79, "velocity": 110, "channel": 0}, {"type": "note_on", "time": 180, "note": 75, "velocity": 116, "channel": 0}, {"type": "note_off", "time": 96, "note": 75, "velocity": 116, "channel": 0}, {"type": "note_on", "time": 397, "note": 73, "velocity": 117, "channel": 0}, {"type": "note_off", "time": 35, "note": 73, "velocity": 117, "channel": 0}, {"type": "note_on", "time": 3, "note": 74, "velocity": 114, "channel": 0}, {"type": "note_off", "time": 27, "note": 74, "velocity": 114, "channel": 0}, {"type": "note_on", "time": 16, "note": 76, "velocity": 120, "channel": 0}, {"type": "note_off", "time": 36, "note": 76, "velocity": 120, "channel": 0}, {"type": "note_on", "time": 0, "note": 77, "velocity": 119, "channel": 0}, {"type": "note_off", "time": 44, "note": 77, "velocity": 119, "channel": 0}, {"type": "note_on", "time": 10, "note": 79, "velocity": 116, "channel": 0}, {"type": "note_off", "time": 87, "note": 79, "velocity": 116, "channel": 0}, {"type": "note_on", "time": 19, "note": 78, "velocity": 113, "channel": 0}, {"type": "note_off", "time": 74, "note": 78, "velocity": 113, "channel": 0}, {"type": "note_on", "time": 31, "note": 77, "velocity": 118, "channel": 0}, {"type": "note_off", "time": 77, "note": 77, "velocity": 118, "channel": 0}, {"type": "note_on", "time": 22, "note": 76, "velocity": 117, "channel": 0}, {"type": "note_off", "time": 77, "note": 76, "velocity": 117, "channel": 0}, {"type": "note_on", "time": 19, "note": 75, "velocity": 118, "channel": 0}, {"type": "note_off", "time": 78, "note": 75, "velocity": 118, "channel": 0}, {"type": "note_on", "time": 19, "note": 74, "velocity": 115, "channel": 0}, {"type": "note_off", "time": 76, "note": 74, "velocity": 115, "channel": 0}, {"type": "note_on", "time": 17, "note": 73, "velocity": 118, "channel": 0}, {"type": "note_off", "time": 80, "note": 73, "velocity": 118, "channel": 0}, {"type": "note_on", "time": 17, "note": 72, "velocity": 120, "channel": 0}, {"type": "note_off", "time": 84, "note": 72, "velocity": 120, "channel": 0}, {"type": "note_on", "time": 10, "note": 71, "velocity": 111, "channel": 0}, {"type": "note_off", "time": 78, "note": 71, "velocity": 111, "channel": 0}, {"type": "note_on", "time": 16, "note": 70, "velocity": 112, "channel": 0}, {"type": "note_off", "time": 83, "note": 70, "velocity": 112, "channel": 0}, {"type": "note_on", "time": 20, "note": 67, "velocity": 111, "channel": 0}, {"type": "note_off", "time": 63, "note": 67, "velocity": 111, "channel": 0}, {"type": "note_on", "time": 6, "note": 68, "velocity": 114, "channel": 0}, {"type": "note_off", "time": 86, "note": 68, "velocity": 114, "channel": 0}, {"type": "note_on", "time": 13, "note": 69, "velocity": 104, "channel": 0}, {"type": "note_off", "time": 258, "note": 69, "velocity": 104, "channel": 0}, {"type": "note_on", "time": 32, "note": 67, "velocity": 114, "channel": 0}, {"type": "note_off", "time": 100, "note": 67, "velocity": 114, "channel": 0}, {"type": "note_on", "time": 7, "note": 64, "velocity": 113, "channel": 0}, {"type": "note_off", "time": 54, "note": 64, "velocity": 113, "channel": 0}, {"type": "note_on", "time": 9, "note": 60, "velocity": 105, "channel": 0}, {"type": "note_off", "time": 840, "note": 60, "velocity": 105, "channel": 0}, {"type": "note_on", "time": 14, "note": 62, "velocity": 105, "channel": 0}, {"type": "note_off", "time": 16, "note": 62, "velocity": 105, "channel": 0}, {"type": "note_on", "time": 5, "note": 64, "velocity": 112, "channel": 0}, {"type": "note_off", "time": 43, "note": 64, "velocity": 112, "channel": 0}, {"type": "note_on", "time": 4, "note": 67, "velocity": 116, "channel": 0}, {"type": "note_off", "time": 59, "note": 67, "velocity": 116, "channel": 0}, {"type": "note_on", "time": 2, "note": 66, "velocity": 114, "channel": 0}, {"type": "note_off", "time": 111, "note": 66, "velocity": 114, "channel": 0}, {"type": "note_on", "time": 11, "note": 67, "velocity": 107, "channel": 0}, {"type": "note_off", "time": 207, "note": 67, "velocity": 107, "channel": 0}, {"type": "note_on", "time": 9, "note": 67, "velocity": 112, "channel": 0}, {"type": "note_off", "time": 44, "note": 67, "velocity": 112, "channel": 0}, {"type": "note_on", "time": 12, "note": 67, "velocity": 110, "channel": 0}, {"type": "note_off", "time": 428, "note": 67, "velocity": 110, "channel": 0}, {"type": "note_on", "time": 425, "note": 72, "velocity": 118, "channel": 0}, {"type": "note_off", "time": 59, "note": 72, "velocity": 118, "channel": 0}, {"type": "note_on", "time": 26, "note": 76, "velocity": 126, "channel": 0}, {"type": "note_off", "time": 76, "note": 76, "velocity": 126, "channel": 0}, {"type": "note_on", "time": 15, "note": 81, "velocity": 118, "channel": 0}, {"type": "note_off", "time": 92, "note": 81, "velocity": 118, "channel": 0}, {"type": "note_on", "time": 19, "note": 76, "velocity": 119, "channel": 0}, {"type": "note_off", "time": 156, "note": 76, "velocity": 119, "channel": 0}, {"type": "note_on", "time": 18, "note": 76, "velocity": 123, "channel": 0}, {"type": "note_off", "time": 172, "note": 76, "velocity": 123, "channel": 0}, {"type": "note_on", "time": 11, "note": 76, "velocity": 125, "channel": 0}, {"type": "note_off", "time": 174, "note": 76, "velocity": 125, "channel": 0}, {"type": "note_on", "time": 10, "note": 76, "velocity": 126, "channel": 0}, {"type": "note_off", "time": 202, "note": 76, "velocity": 126, "channel": 0}, {"type": "note_on", "time": 19, "note": 77, "velocity": 117, "channel": 0}, {"type": "note_off", "time": 357, "note": 77, "velocity": 117, "channel": 0}, {"type": "note_on", "time": 18, "note": 76, "velocity": 122, "channel": 0}, {"type": "note_off", "time": 114, "note": 76, "velocity": 122, "channel": 0}, {"type": "note_on", "time": 14, "note": 74, "velocity": 106, "channel": 0}, {"type": "note_off", "time": 229, "note": 74, "velocity": 106, "channel": 0}, {"type": "note_on", "time": 26, "note": 76, "velocity": 117, "channel": 0}, {"type": "note_off", "time": 92, "note": 76, "velocity": 117, "channel": 0}, {"type": "note_on", "time": 295, "note": 69, "velocity": 114, "channel": 0}, {"type": "note_off", "time": 351, "note": 69, "velocity": 114, "channel": 0}, {"type": "note_on", "time": 20, "note": 69, "velocity": 109, "channel": 0}, {"type": "note_off", "time": 20, "note": 69, "velocity": 109, "channel": 0}, {"type": "note_on", "time": 4, "note": 67, "velocity": 111, "channel": 0}, {"type": "note_off", "time": 39, "note": 67, "velocity": 111, "channel": 0}, {"type": "note_on", "time": 3, "note": 72, "velocity": 117, "channel": 0}, {"type": "note_off", "time": 57, "note": 72, "velocity": 117, "channel": 0}, {"type": "note_on", "time": 17, "note": 76, "velocity": 116, "channel": 0}, {"type": "note_off", "time": 72, "note": 76, "velocity": 116, "channel": 0}, {"type": "note_on", "time": 4, "note": 79, "velocity": 115, "channel": 0}, {"type": "note_on", "time": 131, "note": 78, "velocity": 109, "channel": 0}, {"type": "note_off", "time": 0, "note": 79, "velocity": 115, "channel": 0}, {"type": "note_off", "time": 101, "note": 78, "velocity": 109, "channel": 0}, {"type": "note_on", "time": 346, "note": 78, "velocity": 115, "channel": 0}, {"type": "note_off", "time": 114, "note": 78, "velocity": 115, "channel": 0}, {"type": "note_on", "time": 22, "note": 74, "velocity": 112, "channel": 0}, {"type": "note_off", "time": 98, "note": 74, "velocity": 112, "channel": 0}, {"type": "note_on", "time": 172, "note": 66, "velocity": 111, "channel": 0}, {"type": "note_off", "time": 366, "note": 66, "velocity": 111, "channel": 0}, {"type": "note_on", "time": 19, "note": 62, "velocity": 107, "channel": 0}, {"type": "note_off", "time": 111, "note": 62, "velocity": 107, "channel": 0}, {"type": "note_on", "time": 4, "note": 66, "velocity": 110, "channel": 0}, {"type": "note_off", "time": 65, "note": 66, "velocity": 110, "channel": 0}, {"type": "note_on", "time": 14, "note": 70, "velocity": 113, "channel": 0}, {"type": "note_off", "time": 124, "note": 70, "velocity": 113, "channel": 0}, {"type": "note_on", "time": 9, "note": 70, "velocity": 110, "channel": 0}, {"type": "note_off", "time": 124, "note": 70, "velocity": 110, "channel": 0}, {"type": "note_on", "time": 263, "note": 65, "velocity": 114, "channel": 0}, {"type": "note_off", "time": 24, "note": 65, "velocity": 114, "channel": 0}, {"type": "note_on", "time": 2, "note": 66, "velocity": 115, "channel": 0}, {"type": "note_off", "time": 99, "note": 66, "velocity": 115, "channel": 0}, {"type": "note_on", "time": 18, "note": 62, "velocity": 113, "channel": 0}, {"type": "note_off", "time": 79, "note": 62, "velocity": 113, "channel": 0}, {"type": "note_on", "time": 21, "note": 62, "velocity": 112, "channel": 0}, {"type": "note_off", "time": 640, "note": 62, "velocity": 112, "channel": 0}, {"type": "note_on", "time": 23, "note": 65, "velocity": 108, "channel": 0}, {"type": "note_off", "time": 58, "note": 65, "velocity": 108, "channel": 0}, {"type": "note_on", "time": 23, "note": 70, "velocity": 113, "channel": 0}, {"type": "note_off", "time": 94, "note": 70, "velocity": 113, "channel": 0}, {"type": "note_on", "time": 24, "note": 70, "velocity": 106, "channel": 0}, {"type": "note_off", "time": 132, "note": 70, "velocity": 106, "channel": 0}, {"type": "note_on", "time": 237, "note": 60, "velocity": 97, "channel": 0}, {"type": "note_off", "time": 47, "note": 60, "velocity": 97, "channel": 0}, {"type": "note_on", "time": 39, "note": 68, "velocity": 115, "channel": 0}, {"type": "note_off", "time": 19, "note": 68, "velocity": 115, "channel": 0}, {"type": "note_on", "time": 3, "note": 69, "velocity": 112, "channel": 0}, {"type": "note_off", "time": 468, "note": 69, "velocity": 112, "channel": 0}, {"type": "note_on", "time": 6, "note": 72, "velocity": 118, "channel": 0}, {"type": "note_off", "time": 55, "note": 72, "velocity": 118, "channel": 0}, {"type": "note_on", "time": 27, "note": 76, "velocity": 117, "channel": 0}, {"type": "note_off", "time": 74, "note": 76, "velocity": 117, "channel": 0}, {"type": "note_on", "time": 24, "note": 81, "velocity": 119, "channel": 0}, {"type": "note_off", "time": 106, "note": 81, "velocity": 119, "channel": 0}, {"type": "note_on", "time": 27, "note": 79, "velocity": 105, "channel": 0}, {"type": "note_off", "time": 83, "note": 79, "velocity": 105, "channel": 0}, {"type": "note_on", "time": 76, "note": 71, "velocity": 109, "channel": 0}, {"type": "note_off", "time": 115, "note": 71, "velocity": 109, "channel": 0}, {"type": "note_on", "time": 27, "note": 66, "velocity": 108, "channel": 0}, {"type": "note_off", "time": 239, "note": 66, "velocity": 108, "channel": 0}, {"type": "note_on", "time": 92, "note": 62, "velocity": 106, "channel": 0}, {"type": "note_off", "time": 57, "note": 62, "velocity": 106, "channel": 0}, {"type": "note_on", "time": 29, "note": 66, "velocity": 108, "channel": 0}, {"type": "note_off", "time": 31, "note": 66, "velocity": 108, "channel": 0}, {"type": "note_on", "time": 12, "note": 69, "velocity": 100, "channel": 0}, {"type": "note_off", "time": 26, "note": 69, "velocity": 100, "channel": 0}, {"type": "note_on", "time": 7, "note": 66, "velocity": 108, "channel": 0}, {"type": "note_off", "time": 26, "note": 66, "velocity": 108, "channel": 0}, {"type": "note_on", "time": 8, "note": 62, "velocity": 108, "channel": 0}, {"type": "note_off", "time": 47, "note": 62, "velocity": 108, "channel": 0}, {"type": "note_on", "time": 8, "note": 66, "velocity": 113, "channel": 0}, {"type": "note_off", "time": 81, "note": 66, "velocity": 113, "channel": 0}, {"type": "note_on", "time": 18, "note": 71, "velocity": 112, "channel": 0}, {"type": "note_off", "time": 75, "note": 71, "velocity": 112, "channel": 0}, {"type": "note_on", "time": 20, "note": 74, "velocity": 111, "channel": 0}, {"type": "note_off", "time": 83, "note": 74, "velocity": 111, "channel": 0}, {"type": "note_on", "time": 8, "note": 76, "velocity": 118, "channel": 0}, {"type": "note_off", "time": 85, "note": 76, "velocity": 118, "channel": 0}, {"type": "note_on", "time": 4, "note": 77, "velocity": 116, "channel": 0}, {"type": "note_off", "time": 93, "note": 77, "velocity": 116, "channel": 0}, {"type": "note_on", "time": 19, "note": 76, "velocity": 120, "channel": 0}, {"type": "note_off", "time": 78, "note": 76, "velocity": 120, "channel": 0}, {"type": "note_on", "time": 11, "note": 75, "velocity": 113, "channel": 0}, {"type": "note_off", "time": 91, "note": 75, "velocity": 113, "channel": 0}, {"type": "note_on", "time": 9, "note": 74, "velocity": 117, "channel": 0}, {"type": "note_off", "time": 69, "note": 74, "velocity": 117, "channel": 0}, {"type": "note_on", "time": 17, "note": 72, "velocity": 120, "channel": 0}, {"type": "note_off", "time": 92, "note": 72, "velocity": 120, "channel": 0}, {"type": "note_on", "time": 11, "note": 71, "velocity": 113, "channel": 0}, {"type": "note_off", "time": 86, "note": 71, "velocity": 113, "channel": 0}, {"type": "note_on", "time": 14, "note": 70, "velocity": 112, "channel": 0}, {"type": "note_off", "time": 112, "note": 70, "velocity": 112, "channel": 0}, {"type": "note_on", "time": 11, "note": 67, "velocity": 110, "channel": 0}, {"type": "note_off", "time": 61, "note": 67, "velocity": 110, "channel": 0}, {"type": "note_on", "time": 2, "note": 68, "velocity": 113, "channel": 0}, {"type": "note_off", "time": 101, "note": 68, "velocity": 113, "channel": 0}, {"type": "note_on", "time": 6, "note": 65, "velocity": 111, "channel": 0}, {"type": "note_off", "time": 58, "note": 65, "velocity": 111, "channel": 0}, {"type": "note_on", "time": 18, "note": 58, "velocity": 103, "channel": 0}, {"type": "note_off", "time": 117, "note": 58, "velocity": 103, "channel": 0}, {"type": "note_on", "time": 44, "note": 55, "velocity": 108, "channel": 0}, {"type": "note_off", "time": 55, "note": 55, "velocity": 108, "channel": 0}, {"type": "note_on", "time": 2, "note": 60, "velocity": 103, "channel": 0}, {"type": "note_off", "time": 70, "note": 60, "velocity": 103, "channel": 0}, {"type": "note_on", "time": 14, "note": 64, "velocity": 111, "channel": 0}, {"type": "note_off", "time": 242, "note": 64, "velocity": 111, "channel": 0}, {"type": "note_on", "time": 24, "note": 67, "velocity": 113, "channel": 0}, {"type": "note_off", "time": 82, "note": 67, "velocity": 113, "channel": 0}, {"type": "note_on", "time": 321, "note": 64, "velocity": 118, "channel": 0}, {"type": "note_off", "time": 99, "note": 64, "velocity": 118, "channel": 0}, {"type": "note_on", "time": 2, "note": 67, "velocity": 113, "channel": 0}, {"type": "note_off", "time": 67, "note": 67, "velocity": 113, "channel": 0}, {"type": "note_on", "time": 21, "note": 66, "velocity": 111, "channel": 0}, {"type": "note_off", "time": 93, "note": 66, "velocity": 111, "channel": 0}, {"type": "note_on", "time": 13, "note": 63, "velocity": 116, "channel": 0}, {"type": "note_off", "time": 82, "note": 63, "velocity": 116, "channel": 0}, {"type": "note_on", "time": 13, "note": 62, "velocity": 108, "channel": 0}, {"type": "note_off", "time": 82, "note": 62, "velocity": 108, "channel": 0}, {"type": "note_on", "time": 8, "note": 60, "velocity": 108, "channel": 0}, {"type": "note_off", "time": 65, "note": 60, "velocity": 108, "channel": 0}, {"type": "note_on", "time": 19, "note": 59, "velocity": 100, "channel": 0}, {"type": "note_off", "time": 136, "note": 59, "velocity": 100, "channel": 0}, {"type": "note_on", "time": 10, "note": 62, "velocity": 105, "channel": 0}, {"type": "note_off", "time": 29, "note": 62, "velocity": 105, "channel": 0}, {"type": "note_on", "time": 18, "note": 64, "velocity": 118, "channel": 0}, {"type": "note_off", "time": 113, "note": 64, "velocity": 118, "channel": 0}, {"type": "note_on", "time": 10, "note": 66, "velocity": 113, "channel": 0}, {"type": "note_off", "time": 231, "note": 66, "velocity": 113, "channel": 0}, {"type": "note_on", "time": 8, "note": 64, "velocity": 118, "channel": 0}, {"type": "note_off", "time": 108, "note": 64, "velocity": 118, "channel": 0}, {"type": "note_on", "time": 293, "note": 59, "velocity": 106, "channel": 0}, {"type": "note_off", "time": 93, "note": 59, "velocity": 106, "channel": 0}, {"type": "note_on", "time": 28, "note": 62, "velocity": 107, "channel": 0}, {"type": "note_off", "time": 39, "note": 62, "velocity": 107, "channel": 0}, {"type": "note_on", "time": 16, "note": 64, "velocity": 119, "channel": 0}, {"type": "note_off", "time": 113, "note": 64, "velocity": 119, "channel": 0}, {"type": "note_on", "time": 7, "note": 66, "velocity": 115, "channel": 0}, {"type": "note_off", "time": 238, "note": 66, "velocity": 115, "channel": 0}, {"type": "note_on", "time": 26, "note": 64, "velocity": 114, "channel": 0}, {"type": "note_off", "time": 575, "note": 64, "velocity": 114, "channel": 0}, {"type": "note_on", "time": 10, "note": 62, "velocity": 118, "channel": 0}, {"type": "note_off", "time": 122, "note": 62, "velocity": 118, "channel": 0}, {"type": "note_on", "time": 401, "note": 57, "velocity": 104, "channel": 0}, {"type": "note_off", "time": 214, "note": 57, "velocity": 104, "channel": 0}, {"type": "note_on", "time": 10, "note": 62, "velocity": 111, "channel": 0}, {"type": "note_off", "time": 586, "note": 62, "velocity": 111, "channel": 0}, {"type": "note_on", "time": 14, "note": 64, "velocity": 113, "channel": 0}, {"type": "note_off", "time": 118, "note": 64, "velocity": 113, "channel": 0}, {"type": "note_on", "time": 11, "note": 62, "velocity": 115, "channel": 0}, {"type": "note_off", "time": 168, "note": 62, "velocity": 115, "channel": 0}, {"type": "note_on", "time": 21, "note": 58, "velocity": 105, "channel": 0}, {"type": "note_off", "time": 425, "note": 58, "velocity": 105, "channel": 0}, {"type": "note_on", "time": 37, "note": 62, "velocity": 112, "channel": 0}, {"type": "note_off", "time": 89, "note": 62, "velocity": 112, "channel": 0}, {"type": "note_on", "time": 38, "note": 64, "velocity": 112, "channel": 0}, {"type": "note_off", "time": 249, "note": 64, "velocity": 112, "channel": 0}, {"type": "note_on", "time": 23, "note": 66, "velocity": 116, "channel": 0}, {"type": "note_off", "time": 120, "note": 66, "velocity": 116, "channel": 0}, {"type": "note_on", "time": 26, "note": 62, "velocity": 113, "channel": 0}, {"type": "note_off", "time": 205, "note": 62, "velocity": 113, "channel": 0}, {"type": "note_on", "time": 30, "note": 69, "velocity": 113, "channel": 0}, {"type": "note_off", "time": 95, "note": 69, "velocity": 113, "channel": 0}, {"type": "note_on", "time": 38, "note": 62, "velocity": 114, "channel": 0}, {"type": "note_off", "time": 212, "note": 62, "velocity": 114, "channel": 0}, {"type": "note_on", "time": 13, "note": 66, "velocity": 114, "channel": 0}, {"type": "note_off", "time": 132, "note": 66, "velocity": 114, "channel": 0}, {"type": "note_on", "time": 15, "note": 62, "velocity": 112, "channel": 0}, {"type": "note_off", "time": 218, "note": 62, "velocity": 112, "channel": 0}, {"type": "note_on", "time": 34, "note": 70, "velocity": 111, "channel": 0}, {"type": "note_off", "time": 106, "note": 70, "velocity": 111, "channel": 0}, {"type": "note_on", "time": 22, "note": 62, "velocity": 113, "channel": 0}, {"type": "note_off", "time": 238, "note": 62, "velocity": 113, "channel": 0}, {"type": "note_on", "time": 23, "note": 66, "velocity": 9, "channel": 0}, {"type": "note_off", "time": 78, "note": 66, "velocity": 9, "channel": 0}, {"type": "note_on", "time": 307, "note": 62, "velocity": 103, "channel": 0}, {"type": "note_off", "time": 121, "note": 62, "velocity": 103, "channel": 0}, {"type": "note_on", "time": 5, "note": 64, "velocity": 105, "channel": 0}, {"type": "note_off", "time": 53, "note": 64, "velocity": 105, "channel": 0}, {"type": "note_on", "time": 8, "note": 66, "velocity": 116, "channel": 0}, {"type": "note_off", "time": 94, "note": 66, "velocity": 116, "channel": 0}, {"type": "note_on", "time": 24, "note": 69, "velocity": 111, "channel": 0}, {"type": "note_off", "time": 106, "note": 69, "velocity": 111, "channel": 0}, {"type": "note_on", "time": 11, "note": 66, "velocity": 110, "channel": 0}, {"type": "note_off", "time": 70, "note": 66, "velocity": 110, "channel": 0}, {"type": "note_on", "time": 67, "note": 66, "velocity": 114, "channel": 0}, {"type": "note_off", "time": 104, "note": 66, "velocity": 114, "channel": 0}, {"type": "note_on", "time": 22, "note": 69, "velocity": 108, "channel": 0}, {"type": "note_off", "time": 88, "note": 69, "velocity": 108, "channel": 0}, {"type": "note_on", "time": 58, "note": 69, "velocity": 110, "channel": 0}, {"type": "note_off", "time": 87, "note": 69, "velocity": 110, "channel": 0}, {"type": "note_on", "time": 40, "note": 65, "velocity": 111, "channel": 0}, {"type": "note_off", "time": 76, "note": 65, "velocity": 111, "channel": 0}, {"type": "note_on", "time": 598, "note": 67, "velocity": 112, "channel": 0}, {"type": "note_off", "time": 69, "note": 67, "velocity": 112, "channel": 0}, {"type": "note_on", "time": 22, "note": 69, "velocity": 110, "channel": 0}, {"type": "note_off", "time": 92, "note": 69, "velocity": 110, "channel": 0}, {"type": "note_on", "time": 9, "note": 72, "velocity": 117, "channel": 0}, {"type": "note_off", "time": 70, "note": 72, "velocity": 117, "channel": 0}, {"type": "note_on", "time": 16, "note": 75, "velocity": 107, "channel": 0}, {"type": "note_off", "time": 76, "note": 75, "velocity": 107, "channel": 0}, {"type": "note_on", "time": 15, "note": 79, "velocity": 112, "channel": 0}, {"type": "note_off", "time": 81, "note": 79, "velocity": 112, "channel": 0}, {"type": "note_on", "time": 28, "note": 84, "velocity": 114, "channel": 0}, {"type": "note_off", "time": 73, "note": 84, "velocity": 114, "channel": 0}, {"type": "note_on", "time": 21, "note": 87, "velocity": 118, "channel": 0}, {"type": "note_off", "time": 98, "note": 87, "velocity": 118, "channel": 0}, {"type": "note_on", "time": 3, "note": 84, "velocity": 113, "channel": 0}, {"type": "note_off", "time": 109, "note": 84, "velocity": 113, "channel": 0}, {"type": "note_on", "time": 76, "note": 79, "velocity": 112, "channel": 0}, {"type": "note_off", "time": 109, "note": 79, "velocity": 112, "channel": 0}, {"type": "note_on", "time": 9, "note": 75, "velocity": 111, "channel": 0}, {"type": "note_off", "time": 82, "note": 75, "velocity": 111, "channel": 0}, {"type": "note_on", "time": 34, "note": 74, "velocity": 110, "channel": 0}, {"type": "note_off", "time": 86, "note": 74, "velocity": 110, "channel": 0}, {"type": "note_on", "time": 73, "note": 70, "velocity": 108, "channel": 0}, {"type": "note_off", "time": 28, "note": 70, "velocity": 108, "channel": 0}, {"type": "note_on", "time": 4, "note": 71, "velocity": 110, "channel": 0}, {"type": "note_off", "time": 86, "note": 71, "velocity": 110, "channel": 0}, {"type": "note_on", "time": 6, "note": 66, "velocity": 110, "channel": 0}, {"type": "note_off", "time": 235, "note": 66, "velocity": 110, "channel": 0}, {"type": "note_on", "time": 313, "note": 62, "velocity": 109, "channel": 0}, {"type": "note_off", "time": 49, "note": 62, "velocity": 109, "channel": 0}, {"type": "note_on", "time": 8, "note": 65, "velocity": 109, "channel": 0}, {"type": "note_off", "time": 35, "note": 65, "velocity": 109, "channel": 0}, {"type": "note_on", "time": 23, "note": 70, "velocity": 108, "channel": 0}, {"type": "note_off", "time": 31, "note": 70, "velocity": 108, "channel": 0}, {"type": "note_on", "time": 15, "note": 65, "velocity": 102, "channel": 0}, {"type": "note_off", "time": 30, "note": 65, "velocity": 102, "channel": 0}, {"type": "note_on", "time": 11, "note": 62, "velocity": 109, "channel": 0}, {"type": "note_off", "time": 52, "note": 62, "velocity": 109, "channel": 0}, {"type": "note_on", "time": 24, "note": 65, "velocity": 111, "channel": 0}, {"type": "note_off", "time": 87, "note": 65, "velocity": 111, "channel": 0}, {"type": "note_on", "time": 16, "note": 71, "velocity": 110, "channel": 0}, {"type": "note_off", "time": 59, "note": 71, "velocity": 110, "channel": 0}, {"type": "note_on", "time": 28, "note": 74, "velocity": 111, "channel": 0}, {"type": "note_off", "time": 74, "note": 74, "velocity": 111, "channel": 0}, {"type": "note_on", "time": 24, "note": 77, "velocity": 115, "channel": 0}, {"type": "note_off", "time": 84, "note": 77, "velocity": 115, "channel": 0}, {"type": "note_on", "time": 21, "note": 76, "velocity": 116, "channel": 0}, {"type": "note_off", "time": 72, "note": 76, "velocity": 116, "channel": 0}, {"type": "note_on", "time": 89, "note": 66, "velocity": 103, "channel": 0}, {"type": "note_off", "time": 24, "note": 66, "velocity": 103, "channel": 0}, {"type": "note_on", "time": 4, "note": 67, "velocity": 101, "channel": 0}, {"type": "note_off", "time": 285, "note": 67, "velocity": 101, "channel": 0}, {"type": "note_on", "time": 13, "note": 60, "velocity": 99, "channel": 0}, {"type": "note_off", "time": 57, "note": 60, "velocity": 99, "channel": 0}, {"type": "note_on", "time": 33, "note": 64, "velocity": 110, "channel": 0}, {"type": "note_off", "time": 79, "note": 64, "velocity": 110, "channel": 0}, {"type": "note_on", "time": 23, "note": 67, "velocity": 108, "channel": 0}, {"type": "note_off", "time": 88, "note": 67, "velocity": 108, "channel": 0}, {"type": "note_on", "time": 12, "note": 66, "velocity": 108, "channel": 0}, {"type": "note_off", "time": 59, "note": 66, "velocity": 108, "channel": 0}, {"type": "note_on", "time": 100, "note": 66, "velocity": 111, "channel": 0}, {"type": "note_off", "time": 184, "note": 66, "velocity": 111, "channel": 0}, {"type": "note_on", "time": 11, "note": 69, "velocity": 105, "channel": 0}, {"type": "note_off", "time": 165, "note": 69, "velocity": 105, "channel": 0}, {"type": "note_on", "time": 27, "note": 69, "velocity": 105, "channel": 0}, {"type": "note_off", "time": 168, "note": 69, "velocity": 105, "channel": 0}, {"type": "note_on", "time": 25, "note": 69, "velocity": 104, "channel": 0}, {"type": "note_off", "time": 104, "note": 69, "velocity": 104, "channel": 0}, {"type": "note_on", "time": 9, "note": 67, "velocity": 105, "channel": 0}, {"type": "note_off", "time": 231, "note": 67, "velocity": 105, "channel": 0}, {"type": "note_on", "time": 29, "note": 67, "velocity": 102, "channel": 0}, {"type": "note_off", "time": 69, "note": 67, "velocity": 102, "channel": 0}, {"type": "end_of_track", "time": 0}]]}