{"ticks_per_beat": 192, "tracks": [[{"type": "track_name", "name": "Melody", "time": 0}, {"type": "set_tempo", "tempo": 247933, "time": 0}, {"type": "time_signature", "numerator": 4, "denominator": 4, "clocks_per_click": 24, "notated_32nd_notes_per_beat": 8, "time": 0}, {"type": "note_on", "time": 3553, "note": 67, "velocity": 112, "channel": 0}, {"type": "note_off", "time": 103, "note": 67, "velocity": 112, "channel": 0}, {"type": "note_on", "time": 22, "note": 70, "velocity": 106, "channel": 0}, {"type": "note_off", "time": 271, "note": 70, "velocity": 106, "channel": 0}, {"type": "note_on", "time": 4, "note": 68, "velocity": 115, "channel": 0}, {"type": "note_off", "time": 87, "note": 68, "velocity": 115, "channel": 0}, {"type": "note_on", "time": 44, "note": 63, "velocity": 101, "channel": 0}, {"type": "note_off", "time": 60, "note": 63, "velocity": 101, "channel": 0}, {"type": "note_on", "time": 28, "note": 65, "velocity": 109, "channel": 0}, {"type": "note_off", "time": 71, "note": 65, "velocity": 109, "channel": 0}, {"type": "note_on", "time": 13, "note": 68, "velocity": 114, "channel": 0}, {"type": "note_off", "time": 85, "note": 68, "velocity": 114, "channel": 0}, {"type": "note_on", "time": 8, "note": 67, "velocity": 115, "channel": 0}, {"type": "note_off", "time": 78, "note": 67, "velocity": 115, "channel": 0}, {"type": "note_on", "time": 4, "note": 66, "velocity": 108, "channel": 0}, {"type": "note_off", "time": 78, "note": 66, "velocity": 108, "channel": 0}, {"type": "note_on", "time": 5, "note": 65, "velocity": 110, "channel": 0}, {"type": "note_off", "time": 107, "note": 65, "velocity": 110, "channel": 0}, {"type": "note_on", "time": 6, "note": 62, "velocity": 97, "channel": 0}, {"type": "note_off", "time": 91, "note": 62, "velocity": 97, "channel": 0}, {"type": "note_on", "time": 12, "note": 63, "velocity": 114, "channel": 0}, {"type": "note_off", "time": 173, "note": 63, "velocity": 114, "channel": 0}, {"type": "note_on", "time": 17, "note": 58, "velocity": 96, "channel": 0}, {"type": "note_off", "time": 101, "note": 58, "velocity": 96, "channel": 0}, {"type": "note_on", "time": 23, "note": 56, "velocity": 94, "channel": 0}, {"type": "note_off", "time": 262, "note": 56, "velocity": 94, "channel": 0}, {"type": "note_on", "time": 4, "note": 58, "velocity": 93, "channel": 0}, {"type": "note_off", "time": 317, "note": 58, "velocity": 93, "channel": 0}, {"type": "note_on", "time": 779, "note": 72, "velocity": 102, "channel": 0}, {"type": "note_off", "time": 76, "note": 72, "velocity": 102, "channel": 0}, {"type": "note_on", "time": 6, "note": 73, "velocity": 103, "channel": 0}, {"type": "note_off", "time": 85, "note": 73, "velocity": 103, "channel": 0}, {"type": "note_on", "time": 25, "note": 69, "velocity": 117, "channel": 0}, {"type": "note_off", "time": 80, "note": 69, "velocity": 117, "channel": 0}, {"type": "note_on", "time": 12, "note": 65, "velocity": 113, "channel": 0}, {"type": "note_off", "time": 96, "note": 65, "velocity": 113, "channel": 0}, {"type": "note_on", "time": 11, "note": 61, "velocity": 100, "channel": 0}, {"type": "note_off", "time": 69, "note": 61, "velocity": 100, "channel": 0}, {"type": "note_on", "time": 13, "note": 71, "velocity": 118, "channel": 0}, {"type": "note_off", "time": 107, "note": 71, "velocity": 118, "channel": 0}, {"type": "note_on", "time": 58, "note": 62, "velocity": 96, "channel": 0}, {"type": "note_off", "time": 728, "note": 62, "velocity": 96, "channel": 0}, {"type": "note_on", "time": 11, "note": 61, "velocity": 93, "channel": 0}, {"type": "note_off", "time": 51, "note": 61, "velocity": 93, "channel": 0}, {"type": "note_on", "time": 56, "note": 66, "velocity": 112, "channel": 0}, {"type": "note_off", "time": 74, "note": 66, "velocity": 112, "channel": 0}, {"type": "note_on", "time": 8, "note": 68, "velocity": 115, "channel": 0}, {"type": "note_off", "time": 62, "note": 68, "velocity": 115, "channel": 0}, {"type": "note_on", "time": 11, "note": 67, "velocity": 117, "channel": 0}, {"type": "note_off", "time": 103, "note": 67, "velocity": 117, "channel": 0}, {"type": "note_on", "time": 15, "note": 62, "velocity": 101, "channel": 0}, {"type": "note_off", "time": 87, "note": 62, "velocity": 101, "channel": 0}, {"type": "note_on", "time": 1838, "note": 73, "velocity": 104, "channel": 0}, {"type": "note_off", "time": 85, "note": 73, "velocity": 104, "channel": 0}, {"type": "note_on", "time": 8, "note": 72, "velocity": 103, "channel": 0}, {"type": "note_off", "time": 94, "note": 72, "velocity": 103, "channel": 0}, {"type": "note_on", "time": 13, "note": 71, "velocity": 117, "channel": 0}, {"type": "note_off", "time": 105, "note": 71, "velocity": 117, "channel": 0}, {"type": "note_on", "time": 179, "note": 73, "velocity": 105, "channel": 0}, {"type": "note_off", "time": 80, "note": 73, "velocity": 105, "channel": 0}, {"type": "note_on", "time": 4, "note": 72, "velocity": 105, "channel": 0}, {"type": "note_off", "time": 76, "note": 72, "velocity": 105, "channel": 0}, {"type": "note_on", "time": 4, "note": 71, "velocity": 118, "channel": 0}, {"type": "note_off", "time": 125, "note": 71, "velocity": 118, "channel": 0}, {"type": "note_on", "time": 17, "note": 67, "velocity": 104, "channel": 0}, {"type": "note_off", "time": 62, "note": 67, "velocity": 104, "channel": 0}, {"type": "note_on", "time": 11, "note": 70, "velocity": 112, "channel": 0}, {"type": "note_off", "time": 175, "note": 70, "velocity": 112, "channel": 0}, {"type": "note_on", "time": 11, "note": 67, "velocity": 119, "channel": 0}, {"type": "note_off", "time": 89, "note": 67, "velocity": 119, "channel": 0}, {"type": "note_on", "time": 17, "note": 69, "velocity": 115, "channel": 0}, {"type": "note_off", "time": 463, "note": 69, "velocity": 115, "channel": 0}, {"type": "note_on", "time": 22, "note": 67, "velocity": 118, "channel": 0}, {"type": "note_off", "time": 94, "note": 67, "velocity": 118, "channel": 0}, {"type": "note_on", "time": 8, "note": 69, "velocity": 113, "channel": 0}, {"type": "note_off", "time": 89, "note": 69, "velocity": 113, "channel": 0}, {"type": "note_on", "time": 6, "note": 70, "velocity": 111, "channel": 0}, {"type": "note_off", "time": 116, "note": 70, "velocity": 111, "channel": 0}, {"type": "note_on", "time": 15, "note": 62, "velocity": 96, "channel": 0}, {"type": "note_off", "time": 51, "note": 62, "velocity": 96, "channel": 0}, {"type": "note_on", "time": 4, "note": 65, "velocity": 112, "channel": 0}, {"type": "note_off", "time": 92, "note": 65, "velocity": 112, "channel": 0}, {"type": "note_on", "time": 17, "note": 69, "velocity": 113, "channel": 0}, {"type": "note_off", "time": 74, "note": 69, "velocity": 113, "channel": 0}, {"type": "note_on", "time": 11, "note": 68, "velocity": 115, "channel": 0}, {"type": "note_off", "time": 89, "note": 68, "velocity": 115, "channel": 0}, {"type": "note_on", "time": 15, "note": 71, "velocity": 116, "channel": 0}, {"type": "note_off", "time": 88, "note": 71, "velocity": 116, "channel": 0}, {"type": "note_on", "time": 13, "note": 66, "velocity": 109, "channel": 0}, {"type": "note_off", "time": 96, "note": 66, "velocity": 109, "channel": 0}, {"type": "note_on", "time": 34, "note": 64, "velocity": 98, "channel": 0}, {"type": "note_off", "time": 26, "note": 64, "velocity": 98, "channel": 0}, {"type": "note_on", "time": 5, "note": 65, "velocity": 101, "channel": 0}, {"type": "note_off", "time": 26, "note": 65, "velocity": 101, "channel": 0}, {"type": "note_on", "time": 13, "note": 63, "velocity": 109, "channel": 0}, {"type": "note_off", "time": 70, "note": 63, "velocity": 109, "channel": 0}, {"type": "note_on", "time": 3, "note": 65, "velocity": 110, "channel": 0}, {"type": "note_off", "time": 89, "note": 65, "velocity": 110, "channel": 0}, {"type": "note_on", "time": 6, "note": 66, "velocity": 107, "channel": 0}, {"type": "note_off", "time": 86, "note": 66, "velocity": 107, "channel": 0}, {"type": "note_on", "time": 10, "note": 68, "velocity": 115, "channel": 0}, {"type": "note_off", "time": 96, "note": 68, "velocity": 115, "channel": 0}, {"type": "note_on", "time": 34, "note": 69, "velocity": 103, "channel": 0}, {"type": "note_off", "time": 68, "note": 69, "velocity": 103, "channel": 0}, {"type": "note_on", "time": 5, "note": 71, "velocity": 112, "channel": 0}, {"type": "note_off", "time": 84, "note": 71, "velocity": 112, "channel": 0}, {"type": "note_on", "time": 5, "note": 72, "velocity": 99, "channel": 0}, {"type": "note_off", "time": 84, "note": 72, "velocity": 99, "channel": 0}, {"type": "note_on", "time": 7, "note": 74, "velocity": 106, "channel": 0}, {"type": "note_off", "time": 92, "note": 74, "velocity": 106, "channel": 0}, {"type": "note_on", "time": 14, "note": 75, "velocity": 114, "channel": 0}, {"type": "note_off", "time": 80, "note": 75, "velocity": 114, "channel": 0}, {"type": "note_on", "time": 15, "note": 75, "velocity": 112, "channel": 0}, {"type": "note_off", "time": 83, "note": 75, "velocity": 112, "channel": 0}, {"type": "note_on", "time": 19, "note": 74, "velocity": 108, "channel": 0}, {"type": "note_off", "time": 173, "note": 74, "velocity": 108, "channel": 0}, {"type": "note_on", "time": 24, "note": 73, "velocity": 100, "channel": 0}, {"type": "note_off", "time": 87, "note": 73, "velocity": 100, "channel": 0}, {"type": "note_on", "time": 12, "note": 72, "velocity": 96, "channel": 0}, {"type": "note_off", "time": 366, "note": 72, "velocity": 96, "channel": 0}, {"type": "note_on", "time": 16, "note": 71, "velocity": 111, "channel": 0}, {"type": "note_off", "time": 82, "note": 71, "velocity": 111, "channel": 0}, {"type": "note_on", "time": 5, "note": 70, "velocity": 110, "channel": 0}, {"type": "note_off", "time": 103, "note": 70, "velocity": 110, "channel": 0}, {"type": "note_on", "time": 20, "note": 65, "velocity": 105, "channel": 0}, {"type": "note_off", "time": 113, "note": 65, "velocity": 105, "channel": 0}, {"type": "note_on", "time": 914, "note": 83, "velocity": 118, "channel": 0}, {"type": "note_off", "time": 98, "note": 83, "velocity": 118, "channel": 0}, {"type": "note_on", "time": 6, "note": 80, "velocity": 126, "channel": 0}, {"type": "note_off", "time": 283, "note": 80, "velocity": 126, "channel": 0}, {"type": "note_on", "time": 4, "note": 79, "velocity": 122, "channel": 0}, {"type": "note_off", "time": 300, "note": 79, "velocity": 122, "channel": 0}, {"type": "note_on", "time": 11, "note": 78, "velocity": 112, "channel": 0}, {"type": "note_off", "time": 271, "note": 78, "velocity": 112, "channel": 0}, {"type": "note_on", "time": 7, "note": 77, "velocity": 118, "channel": 0}, {"type": "note_off", "time": 310, "note": 77, "velocity": 118, "channel": 0}, {"type": "note_on", "time": 17, "note": 74, "velocity": 99, "channel": 0}, {"type": "note_off", "time": 60, "note": 74, "velocity": 99, "channel": 0}, {"type": "note_on", "time": 8, "note": 77, "velocity": 123, "channel": 0}, {"type": "note_off", "time": 95, "note": 77, "velocity": 123, "channel": 0}, {"type": "note_on", "time": 8, "note": 76, "velocity": 117, "channel": 0}, {"type": "note_off", "time": 65, "note": 76, "velocity": 117, "channel": 0}, {"type": "note_on", "time": 21, "note": 75, "velocity": 112, "channel": 0}, {"type": "note_off", "time": 75, "note": 75, "velocity": 112, "channel": 0}, {"type": "note_on", "time": 50, "note": 77, "velocity": 121, "channel": 0}, {"type": "note_off", "time": 83, "note": 77, "velocity": 121, "channel": 0}, {"type": "note_on", "time": 219, "note": 78, "velocity": 113, "channel": 0}, {"type": "note_off", "time": 69, "note": 78, "velocity": 113, "channel": 0}, {"type": "note_on", "time": 20, "note": 80, "velocity": 121, "channel": 0}, {"type": "note_off", "time": 65, "note": 80, "velocity": 121, "channel": 0}, {"type": "note_on", "time": 1, "note": 79, "velocity": 122, "channel": 0}, {"type": "note_off", "time": 291, "note": 79, "velocity": 122, "channel": 0}, {"type": "note_on", "time": 19, "note": 78, "velocity": 112, "channel": 0}, {"type": "note_off", "time": 60, "note": 78, "velocity": 112, "channel": 0}, {"type": "note_on", "time": 4, "note": 77, "velocity": 115, "channel": 0}, {"type": "note_off", "time": 132, "note": 77, "velocity": 115, "channel": 0}, {"type": "note_on", "time": 8, "note": 73, "velocity": 90, "channel": 0}, {"type": "note_off", "time": 49, "note": 73, "velocity": 90, "channel": 0}, {"type": "note_on", "time": 7, "note": 75, "velocity": 112, "channel": 0}, {"type": "note_off", "time": 107, "note": 75, "velocity": 112, "channel": 0}, {"type": "note_on", "time": 8, "note": 77, "velocity": 120, "channel": 0}, {"type": "note_off", "time": 102, "note": 77, "velocity": 120, "channel": 0}, {"type": "note_on", "time": 8, "note": 74, "velocity": 105, "channel": 0}, {"type": "note_off", "time": 94, "note": 74, "velocity": 105, "channel": 0}, {"type": "note_on", "time": 7, "note": 73, "velocity": 104, "channel": 0}, {"type": "note_off", "time": 76, "note": 73, "velocity": 104, "channel": 0}, {"type": "note_on", "time": 6, "note": 72, "velocity": 102, "channel": 0}, {"type": "note_off", "time": 82, "note": 72, "velocity": 102, "channel": 0}, {"type": "note_on", "time": 8, "note": 70, "velocity": 112, "channel": 0}, {"type": "note_off", "time": 109, "note": 70, "velocity": 112, "channel": 0}, {"type": "note_on", "time": 12, "note": 69, "velocity": 108, "channel": 0}, {"type": "note_off", "time": 67, "note": 69, "velocity": 108, "channel": 0}, {"type": "note_on", "time": 26, "note": 66, "velocity": 97, "channel": 0}, {"type": "note_off", "time": 51, "note": 66, "velocity": 97, "channel": 0}, {"type": "note_on", "time": 21, "note": 68, "velocity": 112, "channel": 0}, {"type": "note_off", "time": 28, "note": 68, "velocity": 112, "channel": 0}, {"type": "note_on", "time": 31, "note": 69, "velocity": 109, "channel": 0}, {"type": "note_off", "time": 258, "note": 69, "velocity": 109, "channel": 0}, {"type": "note_on", "time": 75, "note": 75, "velocity": 112, "channel": 0}, {"type": "note_off", "time": 96, "note": 75, "velocity": 112, "channel": 0}, {"type": "note_on", "time": 12, "note": 69, "velocity": 108, "channel": 0}, {"type": "note_off", "time": 114, "note": 69, "velocity": 108, "channel": 0}, {"type": "note_on", "time": 2, "note": 68, "velocity": 108, "channel": 0}, {"type": "note_off", "time": 80, "note": 68, "velocity": 108, "channel": 0}, {"type": "note_on", "time": 28, "note": 71, "velocity": 109, "channel": 0}, {"type": "note_off", "time": 66, "note": 71, "velocity": 109, "channel": 0}, {"type": "note_on", "time": 93, "note": 75, "velocity": 114, "channel": 0}, {"type": "note_off", "time": 71, "note": 75, "velocity": 114, "channel": 0}, {"type": "note_on", "time": 38, "note": 73, "velocity": 102, "channel": 0}, {"type": "note_off", "time": 71, "note": 73, "velocity": 102, "channel": 0}, {"type": "note_on", "time": 13, "note": 68, "velocity": 118, "channel": 0}, {"type": "note_off", "time": 97, "note": 68, "velocity": 118, "channel": 0}, {"type": "note_on", "time": 8, "note": 66, "velocity": 104, "channel": 0}, {"type": "note_off", "time": 73, "note": 66, "velocity": 104, "channel": 0}, {"type": "note_on", "time": 8, "note": 61, "velocity": 99, "channel": 0}, {"type": "note_off", "time": 44, "note": 61, "velocity": 99, "channel": 0}, {"type": "note_on", "time": 33, "note": 67, "velocity": 110, "channel": 0}, {"type": "note_off", "time": 101, "note": 67, "velocity": 110, "channel": 0}, {"type": "note_on", "time": 12, "note": 70, "velocity": 108, "channel": 0}, {"type": "note_off", "time": 68, "note": 70, "velocity": 108, "channel": 0}, {"type": "note_on", "time": 16, "note": 73, "velocity": 102, "channel": 0}, {"type": "note_off", "time": 98, "note": 73, "velocity": 102, "channel": 0}, {"type": "note_on", "time": 7, "note": 72, "velocity": 98, "channel": 0}, {"type": "note_off", "time": 65, "note": 72, "velocity": 98, "channel": 0}, {"type": "note_on", "time": 14, "note": 70, "velocity": 105, "channel": 0}, {"type": "note_off", "time": 137, "note": 70, "velocity": 105, "channel": 0}, {"type": "note_on", "time": 1607, "note": 65, "velocity": 108, "channel": 0}, {"type": "note_off", "time": 66, "note": 65, "velocity": 108, "channel": 0}, {"type": "note_on", "time": 14, "note": 71, "velocity": 117, "channel": 0}, {"type": "note_off", "time": 80, "note": 71, "velocity": 117, "channel": 0}, {"type": "note_on", "time": 12, "note": 68, "velocity": 117, "channel": 0}, {"type": "note_off", "time": 100, "note": 68, "velocity": 117, "channel": 0}, {"type": "note_on", "time": 19, "note": 66, "velocity": 96, "channel": 0}, {"type": "note_off", "time": 61, "note": 66, "velocity": 96, "channel": 0}, {"type": "note_on", "time": 4, "note": 67, "velocity": 117, "channel": 0}, {"type": "note_off", "time": 104, "note": 67, "velocity": 117, "channel": 0}, {"type": "note_on", "time": 38, "note": 70, "velocity": 112, "channel": 0}, {"type": "note_off", "time": 60, "note": 70, "velocity": 112, "channel": 0}, {"type": "note_on", "time": 12, "note": 69, "velocity": 112, "channel": 0}, {"type": "note_off", "time": 83, "note": 69, "velocity": 112, "channel": 0}, {"type": "note_on", "time": 34, "note": 62, "velocity": 99, "channel": 0}, {"type": "note_off", "time": 82, "note": 62, "velocity": 99, "channel": 0}, {"type": "note_on", "time": 85, "note": 69, "velocity": 110, "channel": 0}, {"type": "note_off", "time": 87, "note": 69, "velocity": 110, "channel": 0}, {"type": "note_on", "time": 4, "note": 68, "velocity": 114, "channel": 0}, {"type": "note_off", "time": 95, "note": 68, "velocity": 114, "channel": 0}, {"type": "note_on", "time": 6, "note": 71, "velocity": 116, "channel": 0}, {"type": "note_off", "time": 86, "note": 71, "velocity": 116, "channel": 0}, {"type": "note_on", "time": 10, "note": 66, "velocity": 110, "channel": 0}, {"type": "note_off", "time": 96, "note": 66, "velocity": 110, "channel": 0}, {"type": "note_on", "time": 19, "note": 63, "velocity": 92, "channel": 0}, {"type": "note_off", "time": 71, "note": 63, "velocity": 92, "channel": 0}, {"type": "note_on", "time": 14, "note": 65, "velocity": 110, "channel": 0}, {"type": "note_off", "time": 70, "note": 65, "velocity": 110, "channel": 0}, {"type": "note_on", "time": 15, "note": 68, "velocity": 115, "channel": 0}, {"type": "note_off", "time": 93, "note": 68, "velocity": 115, "channel": 0}, {"type": "note_on", "time": 12, "note": 70, "velocity": 109, "channel": 0}, {"type": "note_off", "time": 89, "note": 70, "velocity": 109, "channel": 0}, {"type": "note_on", "time": 16, "note": 72, "velocity": 102, "channel": 0}, {"type": "note_off", "time": 67, "note": 72, "velocity": 102, "channel": 0}, {"type": "note_on", "time": 10, "note": 73, "velocity": 103, "channel": 0}, {"type": "note_off", "time": 120, "note": 73, "velocity": 103, "channel": 0}, {"type": "note_on", "time": 61, "note": 69, "velocity": 110, "channel": 0}, {"type": "note_off", "time": 110, "note": 69, "velocity": 110, "channel": 0}, {"type": "note_on", "time": 1, "note": 68, "velocity": 98, "channel": 0}, {"type": "note_off", "time": 80, "note": 68, "velocity": 98, "channel": 0}, {"type": "note_on", "time": 13, "note": 71, "velocity": 116, "channel": 0}, {"type": "note_off", "time": 101, "note": 71, "velocity": 116, "channel": 0}, {"type": "note_on", "time": 13, "note": 73, "velocity": 102, "channel": 0}, {"type": "note_off", "time": 79, "note": 73, "velocity": 102, "channel": 0}, {"type": "note_on", "time": 11, "note": 70, "velocity": 109, "channel": 0}, {"type": "note_off", "time": 94, "note": 70, "velocity": 109, "channel": 0}, {"type": "note_on", "time": 2, "note": 68, "velocity": 115, "channel": 0}, {"type": "note_off", "time": 87, "note": 68, "velocity": 115, "channel": 0}, {"type": "note_on", "time": 11, "note": 65, "velocity": 108, "channel": 0}, {"type": "note_off", "time": 137, "note": 65, "velocity": 108, "channel": 0}, {"type": "note_on", "time": 76, "note": 71, "velocity": 117, "channel": 0}, {"type": "note_off", "time": 183, "note": 71, "velocity": 117, "channel": 0}, {"type": "note_on", "time": 28, "note": 67, "velocity": 115, "channel": 0}, {"type": "note_off", "time": 115, "note": 67, "velocity": 115, "channel": 0}, {"type": "note_on", "time": 12, "note": 62, "velocity": 102, "channel": 0}, {"type": "note_off", "time": 64, "note": 62, "velocity": 102, "channel": 0}, {"type": "note_on", "time": 10, "note": 65, "velocity": 109, "channel": 0}, {"type": "note_off", "time": 75, "note": 65, "velocity": 109, "channel": 0}, {"type": "note_on", "time": 3, "note": 67, "velocity": 117, "channel": 0}, {"type": "note_off", "time": 84, "note": 67, "velocity": 117, "channel": 0}, {"type": "note_on", "time": 5, "note": 64, "velocity": 108, "channel": 0}, {"type": "note_off", "time": 107, "note": 64, "velocity": 108, "channel": 0}, {"type": "note_on", "time": 13, "note": 62, "velocity": 99, "channel": 0}, {"type": "note_off", "time": 65, "note": 62, "velocity": 99, "channel": 0}, {"type": "note_on", "time": 6, "note": 65, "velocity": 111, "channel": 0}, {"type": "note_off", "time": 193, "note": 65, "velocity": 111, "channel": 0}, {"type": "note_on", "time": 17, "note": 64, "velocity": 110, "channel": 0}, {"type": "note_off", "time": 100, "note": 64, "velocity": 110, "channel": 0}, {"type": "note_on", "time": 6, "note": 62, "velocity": 103, "channel": 0}, {"type": "note_off", "time": 67, "note": 62, "velocity": 103, "channel": 0}, {"type": "note_on", "time": 17, "note": 59, "velocity": 96, "channel": 0}, {"type": "note_off", "time": 166, "note": 59, "velocity": 96, "channel": 0}, {"type": "note_on", "time": 3, "note": 62, "velocity": 102, "channel": 0}, {"type": "note_off", "time": 220, "note": 62, "velocity": 102, "channel": 0}, {"type": "note_on", "time": 8, "note": 57, "velocity": 95, "channel": 0}, {"type": "note_off", "time": 112, "note": 57, "velocity": 95, "channel": 0}, {"type": "note_on", "time": 656, "note": 65, "velocity": 118, "channel": 0}, {"type": "note_off", "time": 84, "note": 65, "velocity": 118, "channel": 0}, {"type": "note_on", "time": 34, "note": 58, "velocity": 100, "channel": 0}, {"type": "note_off", "time": 62, "note": 58, "velocity": 100, "channel": 0}, {"type": "note_on", "time": 9, "note": 63, "velocity": 114, "channel": 0}, {"type": "note_off", "time": 88, "note": 63, "velocity": 114, "channel": 0}, {"type": "note_on", "time": 7, "note": 65, "velocity": 116, "channel": 0}, {"type": "note_off", "time": 80, "note": 65, "velocity": 116, "channel": 0}, {"type": "note_on", "time": 4, "note": 64, "velocity": 112, "channel": 0}, {"type": "note_off", "time": 112, "note": 64, "velocity": 112, "channel": 0}, {"type": "note_on", "time": 4, "note": 61, "velocity": 98, "channel": 0}, {"type": "note_off", "time": 204, "note": 61, "velocity": 98, "channel": 0}, {"type": "note_on", "time": 124, "note": 66, "velocity": 108, "channel": 0}, {"type": "note_off", "time": 103, "note": 66, "velocity": 108, "channel": 0}, {"type": "note_on", "time": 6, "note": 71, "velocity": 115, "channel": 0}, {"type": "note_off", "time": 67, "note": 71, "velocity": 115, "channel": 0}, {"type": "note_on", "time": 12, "note": 73, "velocity": 105, "channel": 0}, {"type": "note_off", "time": 67, "note": 73, "velocity": 105, "channel": 0}, {"type": "note_on", "time": 37, "note": 75, "velocity": 111, "channel": 0}, {"type": "note_off", "time": 77, "note": 75, "velocity": 111, "channel": 0}, {"type": "note_on", "time": 11, "note": 69, "velocity": 114, "channel": 0}, {"type": "note_off", "time": 98, "note": 69, "velocity": 114, "channel": 0}, {"type": "note_on", "time": 7, "note": 68, "velocity": 100, "channel": 0}, {"type": "note_off", "time": 48, "note": 68, "velocity": 100, "channel": 0}, {"type": "note_on", "time": 11, "note": 71, "velocity": 116, "channel": 0}, {"type": "note_off", "time": 106, "note": 71, "velocity": 116, "channel": 0}, {"type": "note_on", "time": 4, "note": 72, "velocity": 99, "channel": 0}, {"type": "note_off", "time": 65, "note": 72, "velocity": 99, "channel": 0}, {"type": "note_on", "time": 10, "note": 75, "velocity": 115, "channel": 0}, {"type": "note_off", "time": 94, "note": 75, "velocity": 115, "channel": 0}, {"type": "note_on", "time": 10, "note": 77, "velocity": 118, "channel": 0}, {"type": "note_off", "time": 92, "note": 77, "velocity": 118, "channel": 0}, {"type": "note_on", "time": 5, "note": 78, "velocity": 114, "channel": 0}, {"type": "note_off", "time": 101, "note": 78, "velocity": 114, "channel": 0}, {"type": "note_on", "time": 10, "note": 80, "velocity": 127, "channel": 0}, {"type": "note_off", "time": 97, "note": 80, "velocity": 127, "channel": 0}, {"type": "note_on", "time": 3, "note": 79, "velocity": 121, "channel": 0}, {"type": "note_off", "time": 91, "note": 79, "velocity": 121, "channel": 0}, {"type": "note_on", "time": 17, "note": 74, "velocity": 103, "channel": 0}, {"type": "note_off", "time": 83, "note": 74, "velocity": 103, "channel": 0}, {"type": "note_on", "time": 528, "note": 77, "velocity": 121, "channel": 0}, {"type": "note_off", "time": 70, "note": 77, "velocity": 121, "channel": 0}, {"type": "note_on", "time": 5, "note": 78, "velocity": 116, "channel": 0}, {"type": "note_off", "time": 167, "note": 78, "velocity": 116, "channel": 0}, {"type": "note_on", "time": 8, "note": 77, "velocity": 118, "channel": 0}, {"type": "note_off", "time": 73, "note": 77, "velocity": 118, "channel": 0}, {"type": "note_on", "time": 9, "note": 73, "velocity": 102, "channel": 0}, {"type": "note_off", "time": 45, "note": 73, "velocity": 102, "channel": 0}, {"type": "note_on", "time": 3, "note": 72, "velocity": 102, "channel": 0}, {"type": "note_off", "time": 67, "note": 72, "velocity": 102, "channel": 0}, {"type": "note_on", "time": 8, "note": 70, "velocity": 105, "channel": 0}, {"type": "note_off", "time": 65, "note": 70, "velocity": 105, "channel": 0}, {"type": "note_on", "time": 6, "note": 69, "velocity": 107, "channel": 0}, {"type": "note_off", "time": 516, "note": 69, "velocity": 107, "channel": 0}, {"type": "note_on", "time": 112, "note": 68, "velocity": 105, "channel": 0}, {"type": "note_off", "time": 40, "note": 68, "velocity": 105, "channel": 0}, {"type": "note_on", "time": 7, "note": 71, "velocity": 113, "channel": 0}, {"type": "note_off", "time": 134, "note": 71, "velocity": 113, "channel": 0}, {"type": "note_on", "time": 15, "note": 68, "velocity": 105, "channel": 0}, {"type": "note_off", "time": 65, "note": 68, "velocity": 105, "channel": 0}, {"type": "note_on", "time": 0, "note": 70, "velocity": 112, "channel": 0}, {"type": "note_off", "time": 68, "note": 70, "velocity": 112, "channel": 0}, {"type": "note_on", "time": 185, "note": 70, "velocity": 109, "channel": 0}, {"type": "note_off", "time": 75, "note": 70, "velocity": 109, "channel": 0}, {"type": "note_on", "time": 15, "note": 69, "velocity": 106, "channel": 0}, {"type": "note_off", "time": 91, "note": 69, "velocity": 106, "channel": 0}, {"type": "note_on", "time": 2213, "note": 65, "velocity": 96, "channel": 0}, {"type": "note_off", "time": 48, "note": 65, "velocity": 96, "channel": 0}, {"type": "note_on", "time": 2, "note": 66, "velocity": 99, "channel": 0}, {"type": "note_off", "time": 55, "note": 66, "velocity": 99, "channel": 0}, {"type": "note_on", "time": 6, "note": 70, "velocity": 94, "channel": 0}, {"type": "note_off", "time": 56, "note": 70, "velocity": 94, "channel": 0}, {"type": "note_on", "time": 5, "note": 72, "velocity": 99, "channel": 0}, {"type": "note_off", "time": 50, "note": 72, "velocity": 99, "channel": 0}, {"type": "note_on", "time": 11, "note": 77, "velocity": 119, "channel": 0}, {"type": "note_off", "time": 122, "note": 77, "velocity": 119, "channel": 0}, {"type": "note_on", "time": 27, "note": 72, "velocity": 98, "channel": 0}, {"type": "note_off", "time": 113, "note": 72, "velocity": 98, "channel": 0}, {"type": "note_on", "time": 649, "note": 65, "velocity": 100, "channel": 0}, {"type": "note_off", "time": 65, "note": 65, "velocity": 100, "channel": 0}, {"type": "note_on", "time": 4, "note": 66, "velocity": 98, "channel": 0}, {"type": "note_off", "time": 47, "note": 66, "velocity": 98, "channel": 0}, {"type": "note_on", "time": 6, "note": 70, "velocity": 104, "channel": 0}, {"type": "note_off", "time": 41, "note": 70, "velocity": 104, "channel": 0}, {"type": "note_on", "time": 23, "note": 72, "velocity": 99, "channel": 0}, {"type": "note_off", "time": 30, "note": 72, "velocity": 99, "channel": 0}, {"type": "note_on", "time": 6, "note": 77, "velocity": 116, "channel": 0}, {"type": "note_off", "time": 101, "note": 77, "velocity": 116, "channel": 0}, {"type": "note_on", "time": 705, "note": 78, "velocity": 119, "channel": 0}, {"type": "note_off", "time": 88, "note": 78, "velocity": 119, "channel": 0}, {"type": "note_on", "time": 13, "note": 77, "velocity": 122, "channel": 0}, {"type": "note_off", "time": 74, "note": 77, "velocity": 122, "channel": 0}, {"type": "note_on", "time": 4, "note": 76, "velocity": 119, "channel": 0}, {"type": "note_off", "time": 96, "note": 76, "velocity": 119, "channel": 0}, {"type": "note_on", "time": 6, "note": 78, "velocity": 118, "channel": 0}, {"type": "note_off", "time": 94, "note": 78, "velocity": 118, "channel": 0}, {"type": "note_on", "time": 0, "note": 77, "velocity": 122, "channel": 0}, {"type": "note_off", "time": 75, "note": 77, "velocity": 122, "channel": 0}, {"type": "note_on", "time": 7, "note": 76, "velocity": 117, "channel": 0}, {"type": "note_off", "time": 71, "note": 76, "velocity": 117, "channel": 0}, {"type": "note_on", "time": 15, "note": 75, "velocity": 116, "channel": 0}, {"type": "note_off", "time": 93, "note": 75, "velocity": 116, "channel": 0}, {"type": "note_on", "time": 39, "note": 77, "velocity": 125, "channel": 0}, {"type": "note_off", "time": 104, "note": 77, "velocity": 125, "channel": 0}, {"type": "note_on", "time": 2, "note": 76, "velocity": 117, "channel": 0}, {"type": "note_off", "time": 69, "note": 76, "velocity": 117, "channel": 0}, {"type": "note_on", "time": 20, "note": 73, "velocity": 101, "channel": 0}, {"type": "note_off", "time": 61, "note": 73, "velocity": 101, "channel": 0}, {"type": "note_on", "time": 20, "note": 70, "velocity": 110, "channel": 0}, {"type": "note_off", "time": 104, "note": 70, "velocity": 110, "channel": 0}, {"type": "note_on", "time": 20, "note": 66, "velocity": 99, "channel": 0}, {"type": "note_off", "time": 47, "note": 66, "velocity": 99, "channel": 0}, {"type": "note_on", "time": 17, "note": 73, "velocity": 104, "channel": 0}, {"type": "note_off", "time": 42, "note": 73, "velocity": 104, "channel": 0}, {"type": "note_on", "time": 28, "note": 74, "velocity": 107, "channel": 0}, {"type": "note_off", "time": 330, "note": 74, "velocity": 107, "channel": 0}, {"type": "note_on", "time": 15, "note": 73, "velocity": 102, "channel": 0}, {"type": "note_off", "time": 60, "note": 73, "velocity": 102, "channel": 0}, {"type": "note_on", "time": 0, "note": 69, "velocity": 114, "channel": 0}, {"type": "note_off", "time": 80, "note": 69, "velocity": 114, "channel": 0}, {"type": "note_on", "time": 4, "note": 68, "velocity": 108, "channel": 0}, {"type": "note_off", "time": 56, "note": 68, "velocity": 108, "channel": 0}, {"type": "note_on", "time": 3, "note": 70, "velocity": 107, "channel": 0}, {"type": "note_off", "time": 63, "note": 70, "velocity": 107, "channel": 0}, {"type": "note_on", "time": 14, "note": 75, "velocity": 114, "channel": 0}, {"type": "note_off", "time": 52, "note": 75, "velocity": 114, "channel": 0}, {"type": "note_on", "time": 9, "note": 78, "velocity": 113, "channel": 0}, {"type": "note_off", "time": 53, "note": 78, "velocity": 113, "channel": 0}, {"type": "note_on", "time": 3, "note": 80, "velocity": 122, "channel": 0}, {"type": "note_off", "time": 58, "note": 80, "velocity": 122, "channel": 0}, {"type": "note_on", "time": 3, "note": 79, "velocity": 124, "channel": 0}, {"type": "note_off", "time": 60, "note": 79, "velocity": 124, "channel": 0}, {"type": "note_on", "time": 850, "note": 83, "velocity": 117, "channel": 0}, {"type": "note_off", "time": 36, "note": 83, "velocity": 117, "channel": 0}, {"type": "note_on", "time": 6, "note": 80, "velocity": 124, "channel": 0}, {"type": "note_off", "time": 17, "note": 80, "velocity": 124, "channel": 0}, {"type": "note_on", "time": 4, "note": 79, "velocity": 122, "channel": 0}, {"type": "note_off", "time": 25, "note": 79, "velocity": 122, "channel": 0}, {"type": "note_on", "time": 4, "note": 78, "velocity": 120, "channel": 0}, {"type": "note_off", "time": 64, "note": 78, "velocity": 120, "channel": 0}, {"type": "note_on", "time": 11, "note": 77, "velocity": 120, "channel": 0}, {"type": "note_off", "time": 76, "note": 77, "velocity": 120, "channel": 0}, {"type": "note_on", "time": 13, "note": 76, "velocity": 118, "channel": 0}, {"type": "note_off", "time": 75, "note": 76, "velocity": 118, "channel": 0}, {"type": "note_on", "time": 11, "note": 75, "velocity": 119, "channel": 0}, {"type": "note_off", "time": 97, "note": 75, "velocity": 119, "channel": 0}, {"type": "note_on", "time": 1, "note": 77, "velocity": 122, "channel": 0}, {"type": "note_off", "time": 83, "note": 77, "velocity": 122, "channel": 0}, {"type": "note_on", "time": 3, "note": 76, "velocity": 117, "channel": 0}, {"type": "note_off", "time": 77, "note": 76, "velocity": 117, "channel": 0}, {"type": "note_on", "time": 32, "note": 73, "velocity": 103, "channel": 0}, {"type": "note_off", "time": 65, "note": 73, "velocity": 103, "channel": 0}, {"type": "note_on", "time": 3, "note": 72, "velocity": 101, "channel": 0}, {"type": "note_off", "time": 91, "note": 72, "velocity": 101, "channel": 0}, {"type": "note_on", "time": 12, "note": 71, "velocity": 115, "channel": 0}, {"type": "note_off", "time": 86, "note": 71, "velocity": 115, "channel": 0}, {"type": "note_on", "time": 4, "note": 70, "velocity": 110, "channel": 0}, {"type": "note_off", "time": 56, "note": 70, "velocity": 110, "channel": 0}, {"type": "note_on", "time": 36, "note": 69, "velocity": 112, "channel": 0}, {"type": "note_off", "time": 70, "note": 69, "velocity": 112, "channel": 0}, {"type": "note_on", "time": 18, "note": 68, "velocity": 115, "channel": 0}, {"type": "note_off", "time": 75, "note": 68, "velocity": 115, "channel": 0}, {"type": "note_on", "time": 12, "note": 71, "velocity": 113, "channel": 0}, {"type": "note_off", "time": 78, "note": 71, "velocity": 113, "channel": 0}, {"type": "note_on", "time": 19, "note": 72, "velocity": 98, "channel": 0}, {"type": "note_off", "time": 97, "note": 72, "velocity": 98, "channel": 0}, {"type": "note_on", "time": 7, "note": 73, "velocity": 102, "channel": 0}, {"type": "note_off", "time": 63, "note": 73, "velocity": 102, "channel": 0}, {"type": "note_on", "time": 5, "note": 68, "velocity": 115, "channel": 0}, {"type": "note_off", "time": 119, "note": 68, "velocity": 115, "channel": 0}, {"type": "note_on", "time": 4, "note": 66, "velocity": 93, "channel": 0}, {"type": "note_off", "time": 67, "note": 66, "velocity": 93, "channel": 0}, {"type": "note_on", "time": 5, "note": 67, "velocity": 118, "channel": 0}, {"type": "note_off", "time": 98, "note": 67, "velocity": 118, "channel": 0}, {"type": "note_on", "time": 5, "note": 70, "velocity": 108, "channel": 0}, {"type": "note_off", "time": 83, "note": 70, "velocity": 108, "channel": 0}, {"type": "note_on", "time": 9, "note": 73, "velocity": 102, "channel": 0}, {"type": "note_off", "time": 74, "note": 73, "velocity": 102, "channel": 0}, {"type": "note_on", "time": 6, "note": 75, "velocity": 115, "channel": 0}, {"type": "note_off", "time": 86, "note": 75, "velocity": 115, "channel": 0}, {"type": "note_on", "time": 26, "note": 77, "velocity": 122, "channel": 0}, {"type": "note_off", "time": 85, "note": 77, "velocity": 122, "channel": 0}, {"type": "note_on", "time": 3, "note": 78, "velocity": 113, "channel": 0}, {"type": "note_off", "time": 67, "note": 78, "velocity": 113, "channel": 0}, {"type": "note_on", "time": 7, "note": 79, "velocity": 121, "channel": 0}, {"type": "note_off", "time": 112, "note": 79, "velocity": 121, "channel": 0}, {"type": "note_on", "time": 12, "note": 78, "velocity": 116, "channel": 0}, {"type": "note_off", "time": 69, "note": 78, "velocity": 116, "channel": 0}, {"type": "note_on", "time": 9, "note": 77, "velocity": 123, "channel": 0}, {"type": "note_off", "time": 96, "note": 77, "velocity": 123, "channel": 0}, {"type": "note_on", "time": 14, "note": 76, "velocity": 115, "channel": 0}, {"type": "note_off", "time": 72, "note": 76, "velocity": 115, "channel": 0}, {"type": "note_on", "time": 12, "note": 75, "velocity": 114, "channel": 0}, {"type": "note_off", "time": 86, "note": 75, "velocity": 114, "channel": 0}, {"type": "note_on", "time": 4, "note": 77, "velocity": 123, "channel": 0}, {"type": "note_off", "time": 105, "note": 77, "velocity": 123, "channel": 0}, {"type": "note_on", "time": 3, "note": 76, "velocity": 118, "channel": 0}, {"type": "note_off", "time": 91, "note": 76, "velocity": 118, "channel": 0}, {"type": "note_on", "time": 9, "note": 73, "velocity": 107, "channel": 0}, {"type": "note_off", "time": 79, "note": 73, "velocity": 107, "channel": 0}, {"type": "note_on", "time": 6, "note": 70, "velocity": 113, "channel": 0}, {"type": "note_off", "time": 110, "note": 70, "velocity": 113, "channel": 0}, {"type": "note_on", "time": 96, "note": 75, "velocity": 116, "channel": 0}, {"type": "note_off", "time": 101, "note": 75, "velocity": 116, "channel": 0}, {"type": "note_on", "time": 7, "note": 73, "velocity": 108, "channel": 0}, {"type": "note_off", "time": 72, "note": 73, "velocity": 108, "channel": 0}, {"type": "note_on", "time": 7, "note": 69, "velocity": 114, "channel": 0}, {"type": "note_off", "time": 101, "note": 69, "velocity": 114, "channel": 0}, {"type": "note_on", "time": 88, "note": 71, "velocity": 118, "channel": 0}, {"type": "note_off", "time": 106, "note": 71, "velocity": 118, "channel": 0}, {"type": "note_on", "time": 4, "note": 73, "velocity": 104, "channel": 0}, {"type": "note_off", "time": 57, "note": 73, "velocity": 104, "channel": 0}, {"type": "note_on", "time": 5, "note": 74, "velocity": 107, "channel": 0}, {"type": "note_off", "time": 109, "note": 74, "velocity": 107, "channel": 0}, {"type": "note_on", "time": 22, "note": 72, "velocity": 104, "channel": 0}, {"type": "note_off", "time": 84, "note": 72, "velocity": 104, "channel": 0}, {"type": "note_on", "time": 11, "note": 68, "velocity": 118, "channel": 0}, {"type": "note_off", "time": 98, "note": 68, "velocity": 118, "channel": 0}, {"type": "note_on", "time": 14, "note": 66, "velocity": 96, "channel": 0}, {"type": "note_off", "time": 52, "note": 66, "velocity": 96, "channel": 0}, {"type": "note_on", "time": 4, "note": 67, "velocity": 116, "channel": 0}, {"type": "note_off", "time": 101, "note": 67, "velocity": 116, "channel": 0}, {"type": "note_on", "time": 8, "note": 69, "velocity": 111, "channel": 0}, {"type": "note_off", "time": 60, "note": 69, "velocity": 111, "channel": 0}, {"type": "note_on", "time": 7, "note": 72, "velocity": 104, "channel": 0}, {"type": "note_off", "time": 113, "note": 72, "velocity": 104, "channel": 0}, {"type": "note_on", "time": 6, "note": 69, "velocity": 111, "channel": 0}, {"type": "note_off", "time": 58, "note": 69, "velocity": 111, "channel": 0}, {"type": "note_on", "time": 4, "note": 65, "velocity": 114, "channel": 0}, {"type": "note_off", "time": 101, "note": 65, "velocity": 114, "channel": 0}, {"type": "note_on", "time": 23, "note": 60, "velocity": 100, "channel": 0}, {"type": "note_off", "time": 74, "note": 60, "velocity": 100, "channel": 0}, {"type": "note_on", "time": 0, "note": 63, "velocity": 114, "channel": 0}, {"type": "note_off", "time": 71, "note": 63, "velocity": 114, "channel": 0}, {"type": "note_on", "time": 15, "note": 68, "velocity": 115, "channel": 0}, {"type": "note_off", "time": 73, "note": 68, "velocity": 115, "channel": 0}, {"type": "note_on", "time": 5, "note": 67, "velocity": 119, "channel": 0}, {"type": "note_off", "time": 80, "note": 67, "velocity": 119, "channel": 0}, {"type": "note_on", "time": 8, "note": 70, "velocity": 112, "channel": 0}, {"type": "note_off", "time": 89, "note": 70, "velocity": 112, "channel": 0}, {"type": "note_on", "time": 13, "note": 65, "velocity": 110, "channel": 0}, {"type": "note_off", "time": 112, "note": 65, "velocity": 110, "channel": 0}, {"type": "note_on", "time": 13, "note": 62, "velocity": 111, "channel": 0}, {"type": "note_off", "time": 82, "note": 62, "velocity": 111, "channel": 0}, {"type": "note_on", "time": 11, "note": 59, "velocity": 100, "channel": 0}, {"type": "note_off", "time": 77, "note": 59, "velocity": 100, "channel": 0}, {"type": "note_on", "time": 12, "note": 63, "velocity": 112, "channel": 0}, {"type": "note_off", "time": 101, "note": 63, "velocity": 112, "channel": 0}, {"type": "note_on", "time": 14, "note": 56, "velocity": 97, "channel": 0}, {"type": "note_off", "time": 76, "note": 56, "velocity": 97, "channel": 0}, {"type": "note_on", "time": 3, "note": 63, "velocity": 112, "channel": 0}, {"type": "note_off", "time": 93, "note": 63, "velocity": 112, "channel": 0}, {"type": "note_on", "time": 8, "note": 58, "velocity": 95, "channel": 0}, {"type": "note_off", "time": 175, "note": 58, "velocity": 95, "channel": 0}, {"type": "note_on", "time": 6, "note": 56, "velocity": 97, "channel": 0}, {"type": "note_off", "time": 172, "note": 56, "velocity": 97, "channel": 0}, {"type": "note_on", "time": 722, "note": 71, "velocity": 9, "channel": 0}, {"type": "note_off", "time": 77, "note": 71, "velocity": 9, "channel": 0}, {"type": "note_on", "time": 6, "note": 70, "velocity": 9, "channel": 0}, {"type": "note_off", "time": 101, "note": 70, "velocity": 9, "channel": 0}, {"type": "note_on", "time": 15, "note": 65, "velocity": 116, "channel": 0}, {"type": "note_off", "time": 72, "note": 65, "velocity": 116, "channel": 0}, {"type": "note_on", "time": 9, "note": 58, "velocity": 97, "channel": 0}, {"type": "note_off", "time": 263, "note": 58, "velocity": 97, "channel": 0}, {"type": "note_on", "time": 11, "note": 65, "velocity": 116, "channel": 0}, {"type": "note_off", "time": 93, "note": 65, "velocity": 116, "channel": 0}, {"type": "note_on", "time": 12, "note": 61, "velocity": 98, "channel": 0}, {"type": "note_off", "time": 286, "note": 61, "velocity": 98, "channel": 0}, {"type": "note_on", "time": 23, "note": 64, "velocity": 111, "channel": 0}, {"type": "note_off", "time": 71, "note": 64, "velocity": 111, "channel": 0}, {"type": "note_on", "time": 12, "note": 66, "velocity": 109, "channel": 0}, {"type": "note_off", "time": 77, "note": 66, "velocity": 109, "channel": 0}, {"type": "note_on", "time": 6, "note": 71, "velocity": 117, "channel": 0}, {"type": "note_off", "time": 85, "note": 71, "velocity": 117, "channel": 0}, {"type": "note_on", "time": 25, "note": 65, "velocity": 112, "channel": 0}, {"type": "note_off", "time": 90, "note": 65, "velocity": 112, "channel": 0}, {"type": "note_on", "time": 17, "note": 62, "velocity": 99, "channel": 0}, {"type": "note_off", "time": 67, "note": 62, "velocity": 99, "channel": 0}, {"type": "note_on", "time": 6, "note": 64, "velocity": 110, "channel": 0}, {"type": "note_off", "time": 82, "note": 64, "velocity": 110, "channel": 0}, {"type": "note_on", "time": 14, "note": 70, "velocity": 113, "channel": 0}, {"type": "note_off", "time": 74, "note": 70, "velocity": 113, "channel": 0}, {"type": "note_on", "time": 18, "note": 63, "velocity": 105, "channel": 0}, {"type": "note_off", "time": 96, "note": 63, "velocity": 105, "channel": 0}, {"type": "note_on", "time": 9, "note": 70, "velocity": 112, "channel": 0}, {"type": "note_off", "time": 80, "note": 70, "velocity": 112, "channel": 0}, {"type": "note_on", "time": 18, "note": 64, "velocity": 104, "channel": 0}, {"type": "note_off", "time": 128, "note": 64, "velocity": 104, "channel": 0}, {"type": "note_on", "time": 7, "note": 61, "velocity": 98, "channel": 0}, {"type": "note_off", "time": 109, "note": 61, "velocity": 98, "channel": 0}, {"type": "note_on", "time": 11, "note": 62, "velocity": 100, "channel": 0}, {"type": "note_off", "time": 116, "note": 62, "velocity": 100, "channel": 0}, {"type": "note_on", "time": 9, "note": 70, "velocity": 109, "channel": 0}, {"type": "note_off", "time": 90, "note": 70, "velocity": 109, "channel": 0}, {"type": "note_on", "time": 11, "note": 65, "velocity": 111, "channel": 0}, {"type": "note_off", "time": 85, "note": 65, "velocity": 111, "channel": 0}, {"type": "note_on", "time": 6, "note": 63, "velocity": 105, "channel": 0}, {"type": "note_off", "time": 93, "note": 63, "velocity": 105, "channel": 0}, {"type": "note_on", "time": 4, "note": 64, "velocity": 105, "channel": 0}, {"type": "note_off", "time": 225, "note": 64, "velocity": 105, "channel": 0}, {"type": "note_on", "time": 9, "note": 66, "velocity": 107, "channel": 0}, {"type": "note_off", "time": 112, "note": 66, "velocity": 107, "channel": 0}, {"type": "note_on", "time": 6, "note": 61, "velocity": 99, "channel": 0}, {"type": "note_off", "time": 66, "note": 61, "velocity": 99, "channel": 0}, {"type": "note_on", "time": 22, "note": 63, "velocity": 107, "channel": 0}, {"type": "note_off", "time": 109, "note": 63, "velocity": 107, "channel": 0}, {"type": "note_on", "time": 9, "note": 60, "velocity": 101, "channel": 0}, {"type": "note_off", "time": 86, "note": 60, "velocity": 101, "channel": 0}, {"type": "note_on", "time": 475, "note": 70, "velocity": 112, "channel": 0}, {"type": "note_off", "time": 66, "note": 70, "velocity": 112, "channel": 0}, {"type": "note_on", "time": 3, "note": 68, "velocity": 112, "channel": 0}, {"type": "note_off", "time": 41, "note": 68, "velocity": 112, "channel": 0}, {"type": "note_on", "time": 1, "note": 67, "velocity": 109, "channel": 0}, {"type": "note_off", "time": 30, "note": 67, "velocity": 109, "channel": 0}, {"type": "note_on", "time": 5, "note": 63, "velocity": 105, "channel": 0}, {"type": "note_off", "time": 28, "note": 63, "velocity": 105, "channel": 0}, {"type": "note_on", "time": 3, "note": 59, "velocity": 100, "channel": 0}, {"type": "note_off", "time": 26, "note": 59, "velocity": 100, "channel": 0}, {"type": "note_on", "time": 6, "note": 63, "velocity": 106, "channel": 0}, {"type": "note_off", "time": 21, "note": 63, "velocity": 106, "channel": 0}, {"type": "note_on", "time": 2, "note": 67, "velocity": 97, "channel": 0}, {"type": "note_off", "time": 31, "note": 67, "velocity": 97, "channel": 0}, {"type": "note_on", "time": 4, "note": 68, "velocity": 108, "channel": 0}, {"type": "note_off", "time": 86, "note": 68, "velocity": 108, "channel": 0}, {"type": "note_on", "time": 11, "note": 71, "velocity": 115, "channel": 0}, {"type": "note_off", "time": 48, "note": 71, "velocity": 115, "channel": 0}, {"type": "note_on", "time": 5, "note": 67, "velocity": 111, "channel": 0}, {"type": "note_off", "time": 47, "note": 67, "velocity": 111, "channel": 0}, {"type": "note_on", "time": 1, "note": 66, "velocity": 106, "channel": 0}, {"type": "note_off", "time": 51, "note": 66, "velocity": 106, "channel": 0}, {"type": "note_on", "time": 9, "note": 64, "velocity": 105, "channel": 0}, {"type": "note_off", "time": 38, "note": 64, "velocity": 105, "channel": 0}, {"type": "note_on", "time": 1, "note": 62, "velocity": 101, "channel": 0}, {"type": "note_off", "time": 32, "note": 62, "velocity": 101, "channel": 0}, {"type": "note_on", "time": 3, "note": 63, "velocity": 104, "channel": 0}, {"type": "note_off", "time": 32, "note": 63, "velocity": 104, "channel": 0}, {"type": "note_on", "time": 1, "note": 65, "velocity": 104, "channel": 0}, {"type": "note_off", "time": 41, "note": 65, "velocity": 104, "channel": 0}, {"type": "note_on", "time": 15, "note": 68, "velocity": 108, "channel": 0}, {"type": "note_off", "time": 40, "note": 68, "velocity": 108, "channel": 0}, {"type": "note_on", "time": 2, "note": 69, "velocity": 106, "channel": 0}, {"type": "note_off", "time": 24, "note": 69, "velocity": 106, "channel": 0}, {"type": "note_on", "time": 2, "note": 70, "velocity": 102, "channel": 0}, {"type": "note_off", "time": 28, "note": 70, "velocity": 102, "channel": 0}, {"type": "note_on", "time": 2, "note": 72, "velocity": 99, "channel": 0}, {"type": "note_off", "time": 62, "note": 72, "velocity": 99, "channel": 0}, {"type": "note_on", "time": 14, "note": 69, "velocity": 104, "channel": 0}, {"type": "note_off", "time": 61, "note": 69, "velocity": 104, "channel": 0}, {"type": "note_on", "time": 1, "note": 68, "velocity": 108, "channel": 0}, {"type": "note_off", "time": 35, "note": 68, "velocity": 108, "channel": 0}, {"type": "note_on", "time": 9, "note": 71, "velocity": 99, "channel": 0}, {"type": "note_off", "time": 44, "note": 71, "velocity": 99, "channel": 0}, {"type": "note_on", "time": 3, "note": 72, "velocity": 94, "channel": 0}, {"type": "note_off", "time": 80, "note": 72, "velocity": 94, "channel": 0}, {"type": "note_on", "time": 10, "note": 76, "velocity": 103, "channel": 0}, {"type": "note_off", "time": 26, "note": 76, "velocity": 103, "channel": 0}, {"type": "note_on", "time": 2, "note": 78, "velocity": 103, "channel": 0}, {"type": "note_off", "time": 16, "note": 78, "velocity": 103, "channel": 0}, {"type": "note_on", "time": 4, "note": 80, "velocity": 117, "channel": 0}, {"type": "note_off", "time": 34, "note": 80, "velocity": 117, "channel": 0}, {"type": "note_on", "time": 6, "note": 83, "velocity": 110, "channel": 0}, {"type": "note_off", "time": 44, "note": 83, "velocity": 110, "channel": 0}, {"type": "note_on", "time": 2, "note": 79, "velocity": 117, "channel": 0}, {"type": "note_off", "time": 87, "note": 79, "velocity": 117, "channel": 0}, {"type": "note_on", "time": 577, "note": 83, "velocity": 100, "channel": 0}, {"type": "note_off", "time": 45, "note": 83, "velocity": 100, "channel": 0}, {"type": "note_on", "time": 0, "note": 81, "velocity": 116, "channel": 0}, {"type": "note_off", "time": 40, "note": 81, "velocity": 116, "channel": 0}, {"type": "note_on", "time": 3, "note": 79, "velocity": 115, "channel": 0}, {"type": "note_off", "time": 42, "note": 79, "velocity": 115, "channel": 0}, {"type": "note_on", "time": 3, "note": 78, "velocity": 114, "channel": 0}, {"type": "note_off", "time": 41, "note": 78, "velocity": 114, "channel": 0}, {"type": "note_on", "time": 6, "note": 77, "velocity": 117, "channel": 0}, {"type": "note_off", "time": 17, "note": 77, "velocity": 117, "channel": 0}, {"type": "note_on", "time": 1, "note": 76, "velocity": 117, "channel": 0}, {"type": "note_off", "time": 30, "note": 76, "velocity": 117, "channel": 0}, {"type": "note_on", "time": 1, "note": 74, "velocity": 106, "channel": 0}, {"type": "note_off", "time": 42, "note": 74, "velocity": 106, "channel": 0}, {"type": "note_on", "time": 5, "note": 73, "velocity": 103, "channel": 0}, {"type": "note_off", "time": 24, "note": 73, "velocity": 103, "channel": 0}, {"type": "note_on", "time": 6, "note": 72, "velocity": 95, "channel": 0}, {"type": "note_off", "time": 43, "note": 72, "velocity": 95, "channel": 0}, {"type": "note_on", "time": 3, "note": 71, "velocity": 105, "channel": 0}, {"type": "note_off", "time": 37, "note": 71, "velocity": 105, "channel": 0}, {"type": "note_on", "time": 4, "note": 68, "velocity": 111, "channel": 0}, {"type": "note_off", "time": 88, "note": 68, "velocity": 111, "channel": 0}, {"type": "note_on", "time": 3, "note": 71, "velocity": 103, "channel": 0}, {"type": "note_off", "time": 44, "note": 71, "velocity": 103, "channel": 0}, {"type": "note_on", "time": 2, "note": 72, "velocity": 97, "channel": 0}, {"type": "note_off", "time": 25, "note": 72, "velocity": 97, "channel": 0}, {"type": "note_on", "time": 7, "note": 73, "velocity": 102, "channel": 0}, {"type": "note_off", "time": 50, "note": 73, "velocity": 102, "channel": 0}, {"type": "note_on", "time": 5, "note": 68, "velocity": 113, "channel": 0}, {"type": "note_off", "time": 57, "note": 68, "velocity": 113, "channel": 0}, {"type": "note_on", "time": 3, "note": 66, "velocity": 105, "channel": 0}, {"type": "note_off", "time": 40, "note": 66, "velocity": 105, "channel": 0}, {"type": "note_on", "time": 3, "note": 67, "velocity": 107, "channel": 0}, {"type": "note_off", "time": 45, "note": 67, "velocity": 107, "channel": 0}, {"type": "note_on", "time": 2, "note": 70, "velocity": 107, "channel": 0}, {"type": "note_off", "time": 27, "note": 70, "velocity": 107, "channel": 0}, {"type": "note_on", "time": 8, "note": 69, "velocity": 106, "channel": 0}, {"type": "note_off", "time": 23, "note": 69, "velocity": 106, "channel": 0}, {"type": "note_on", "time": 9, "note": 60, "velocity": 98, "channel": 0}, {"type": "note_off", "time": 31, "note": 60, "velocity": 98, "channel": 0}, {"type": "note_on", "time": 9, "note": 63, "velocity": 105, "channel": 0}, {"type": "note_off", "time": 28, "note": 63, "velocity": 105, "channel": 0}, {"type": "note_on", "time": 5, "note": 62, "velocity": 104, "channel": 0}, {"type": "note_off", "time": 22, "note": 62, "velocity": 104, "channel": 0}, {"type": "note_on", "time": 6, "note": 63, "velocity": 104, "channel": 0}, {"type": "note_off", "time": 352, "note": 63, "velocity": 104, "channel": 0}, {"type": "note_on", "time": 7, "note": 65, "velocity": 103, "channel": 0}, {"type": "note_off", "time": 46, "note": 65, "velocity": 103, "channel": 0}, {"type": "note_on", "time": 7, "note": 67, "velocity": 115, "channel": 0}, {"type": "note_off", "time": 64, "note": 67, "velocity": 115, "channel": 0}, {"type": "note_on", "time": 6, "note": 69, "velocity": 112, "channel": 0}, {"type": "note_off", "time": 72, "note": 69, "velocity": 112, "channel": 0}, {"type": "note_on", "time": 4, "note": 67, "velocity": 115, "channel": 0}, {"type": "note_off", "time": 273, "note": 67, "velocity": 115, "channel": 0}, {"type": "note_on", "time": 2, "note": 66, "velocity": 109, "channel": 0}, {"type": "note_off", "time": 50, "note": 66, "velocity": 109, "channel": 0}, {"type": "note_on", "time": 2, "note": 65, "velocity": 110, "channel": 0}, {"type": "note_off", "time": 36, "note": 65, "velocity": 110, "channel": 0}, {"type": "note_on", "time": 1, "note": 64, "velocity": 108, "channel": 0}, {"type": "note_off", "time": 48, "note": 64, "velocity": 108, "channel": 0}, {"type": "note_on", "time": 1, "note": 63, "velocity": 108, "channel": 0}, {"type": "note_off", "time": 49, "note": 63, "velocity": 108, "channel": 0}, {"type": "note_on", "time": 18, "note": 67, "velocity": 109, "channel": 0}, {"type": "note_off", "time": 26, "note": 67, "velocity": 109, "channel": 0}, {"type": "note_on", "time": 7, "note": 68, "velocity": 113, "channel": 0}, {"type": "note_off", "time": 36, "note": 68, "velocity": 113, "channel": 0}, {"type": "note_on", "time": 14, "note": 71, "velocity": 108, "channel": 0}, {"type": "note_off", "time": 36, "note": 71, "velocity": 108, "channel": 0}, {"type": "note_on", "time": 4, "note": 72, "velocity": 100, "channel": 0}, {"type": "note_off", "time": 56, "note": 72, "velocity": 100, "channel": 0}, {"type": "note_on", "time": 7, "note": 73, "velocity": 97, "channel": 0}, {"type": "note_off", "time": 35, "note": 73, "velocity": 97, "channel": 0}, {"type": "note_on", "time": 7, "note": 70, "velocity": 99, "channel": 0}, {"type": "note_off", "time": 32, "note": 70, "velocity": 99, "channel": 0}, {"type": "note_on", "time": 3, "note": 69, "velocity": 106, "channel": 0}, {"type": "note_off", "time": 61, "note": 69, "velocity": 106, "channel": 0}, {"type": "note_on", "time": 8, "note": 68, "velocity": 105, "channel": 0}, {"type": "note_off", "time": 27, "note": 68, "velocity": 105, "channel": 0}, {"type": "note_on", "time": 2, "note": 71, "velocity": 106, "channel": 0}, {"type": "note_off", "time": 37, "note": 71, "velocity": 106, "channel": 0}, {"type": "note_on", "time": 9, "note": 72, "velocity": 96, "channel": 0}, {"type": "note_off", "time": 28, "note": 72, "velocity": 96, "channel": 0}, {"type": "note_on", "time": 4, "note": 73, "velocity": 101, "channel": 0}, {"type": "note_off", "time": 41, "note": 73, "velocity": 101, "channel": 0}, {"type": "note_on", "time": 15, "note": 76, "velocity": 112, "channel": 0}, {"type": "note_off", "time": 72, "note": 76, "velocity": 112, "channel": 0}, {"type": "note_on", "time": 7, "note": 77, "velocity": 95, "channel": 0}, {"type": "note_off", "time": 30, "note": 77, "velocity": 95, "channel": 0}, {"type": "note_on", "time": 528, "note": 77, "velocity": 119, "channel": 0}, {"type": "note_off", "time": 118, "note": 77, "velocity": 119, "channel": 0}, {"type": "note_on", "time": 7, "note": 76, "velocity": 117, "channel": 0}, {"type": "note_off", "time": 82, "note": 76, "velocity": 117, "channel": 0}, {"type": "note_on", "time": 14, "note": 75, "velocity": 113, "channel": 0}, {"type": "note_off", "time": 75, "note": 75, "velocity": 113, "channel": 0}, {"type": "note_on", "time": 16, "note": 77, "velocity": 122, "channel": 0}, {"type": "note_off", "time": 98, "note": 77, "velocity": 122, "channel": 0}, {"type": "note_on", "time": 6, "note": 76, "velocity": 116, "channel": 0}, {"type": "note_off", "time": 73, "note": 76, "velocity": 116, "channel": 0}, {"type": "note_on", "time": 16, "note": 73, "velocity": 101, "channel": 0}, {"type": "note_off", "time": 66, "note": 73, "velocity": 101, "channel": 0}, {"type": "note_on", "time": 3, "note": 72, "velocity": 94, "channel": 0}, {"type": "note_off", "time": 101, "note": 72, "velocity": 94, "channel": 0}, {"type": "note_on", "time": 33, "note": 71, "velocity": 113, "channel": 0}, {"type": "note_off", "time": 71, "note": 71, "velocity": 113, "channel": 0}, {"type": "note_on", "time": 7, "note": 70, "velocity": 108, "channel": 0}, {"type": "note_off", "time": 94, "note": 70, "velocity": 108, "channel": 0}, {"type": "note_on", "time": 7, "note": 69, "velocity": 110, "channel": 0}, {"type": "note_off", "time": 75, "note": 69, "velocity": 110, "channel": 0}, {"type": "note_on", "time": 8, "note": 68, "velocity": 113, "channel": 0}, {"type": "note_off", "time": 86, "note": 68, "velocity": 113, "channel": 0}, {"type": "note_on", "time": 6, "note": 71, "velocity": 111, "channel": 0}, {"type": "note_off", "time": 86, "note": 71, "velocity": 111, "channel": 0}, {"type": "note_on", "time": 4, "note": 72, "velocity": 101, "channel": 0}, {"type": "note_off", "time": 87, "note": 72, "velocity": 101, "channel": 0}, {"type": "note_on", "time": 7, "note": 73, "velocity": 100, "channel": 0}, {"type": "note_off", "time": 79, "note": 73, "velocity": 100, "channel": 0}, {"type": "note_on", "time": 26, "note": 68, "velocity": 116, "channel": 0}, {"type": "note_off", "time": 124, "note": 68, "velocity": 116, "channel": 0}, {"type": "note_on", "time": 4, "note": 66, "velocity": 101, "channel": 0}, {"type": "note_off", "time": 42, "note": 66, "velocity": 101, "channel": 0}, {"type": "note_on", "time": 2, "note": 68, "velocity": 117, "channel": 0}, {"type": "note_off", "time": 308, "note": 68, "velocity": 117, "channel": 0}, {"type": "note_on", "time": 7, "note": 76, "velocity": 113, "channel": 0}, {"type": "note_off", "time": 78, "note": 76, "velocity": 113, "channel": 0}, {"type": "note_on", "time": 15, "note": 66, "velocity": 104, "channel": 0}, {"type": "note_off", "time": 297, "note": 66, "velocity": 104, "channel": 0}, {"type": "note_on", "time": 11, "note": 76, "velocity": 110, "channel": 0}, {"type": "note_off", "time": 69, "note": 76, "velocity": 110, "channel": 0}, {"type": "note_on", "time": 13, "note": 66, "velocity": 114, "channel": 0}, {"type": "note_off", "time": 37, "note": 66, "velocity": 114, "channel": 0}, {"type": "note_on", "time": 10, "note": 67, "velocity": 111, "channel": 0}, {"type": "note_off", "time": 52, "note": 67, "velocity": 111, "channel": 0}, {"type": "note_on", "time": 7, "note": 76, "velocity": 111, "channel": 0}, {"type": "note_off", "time": 68, "note": 76, "velocity": 111, "channel": 0}, {"type": "note_on", "time": 37, "note": 66, "velocity": 104, "channel": 0}, {"type": "note_off", "time": 73, "note": 66, "velocity": 104, "channel": 0}, {"type": "note_on", "time": 4, "note": 65, "velocity": 103, "channel": 0}, {"type": "note_off", "time": 386, "note": 65, "velocity": 103, "channel": 0}, {"type": "note_on", "time": 29, "note": 76, "velocity": 107, "channel": 0}, {"type": "note_off", "time": 79, "note": 76, "velocity": 107, "channel": 0}, {"type": "note_on", "time": 17, "note": 76, "velocity": 107, "channel": 0}, {"type": "note_off", "time": 59, "note": 76, "velocity": 107, "channel": 0}, {"type": "note_on", "time": 9, "note": 66, "velocity": 102, "channel": 0}, {"type": "note_off", "time": 164, "note": 66, "velocity": 102, "channel": 0}, {"type": "note_on", "time": 33, "note": 76, "velocity": 108, "channel": 0}, {"type": "note_off", "time": 71, "note": 76, "velocity": 108, "channel": 0}, {"type": "note_on", "time": 67, "note": 64, "velocity": 92, "channel": 0}, {"type": "note_off", "time": 155, "note": 64, "velocity": 92, "channel": 0}, {"type": "note_on", "time": 602, "note": 65, "velocity": 116, "channel": 0}, {"type": "note_off", "time": 85, "note": 65, "velocity": 116, "channel": 0}, {"type": "note_on", "time": 5, "note": 64, "velocity": 112, "channel": 0}, {"type": "note_off", "time": 61, "note": 64, "velocity": 112, "channel": 0}, {"type": "note_on", "time": 7, "note": 62, "velocity": 106, "channel": 0}, {"type": "note_off", "time": 28, "note": 62, "velocity": 106, "channel": 0}, {"type": "note_on", "time": 9, "note": 63, "velocity": 113, "channel": 0}, {"type": "note_off", "time": 64, "note": 63, "velocity": 113, "channel": 0}, {"type": "note_on", "time": 6, "note": 65, "velocity": 113, "channel": 0}, {"type": "note_off", "time": 58, "note": 65, "velocity": 113, "channel": 0}, {"type": "note_on", "time": 11, "note": 58, "velocity": 100, "channel": 0}, {"type": "note_off", "time": 76, "note": 58, "velocity": 100, "channel": 0}, {"type": "note_on", "time": 13, "note": 63, "velocity": 111, "channel": 0}, {"type": "note_off", "time": 301, "note": 63, "velocity": 111, "channel": 0}, {"type": "note_on", "time": 6, "note": 59, "velocity": 98, "channel": 0}, {"type": "note_off", "time": 100, "note": 59, "velocity": 98, "channel": 0}, {"type": "note_on", "time": 120, "note": 71, "velocity": 117, "channel": 0}, {"type": "note_off", "time": 103, "note": 71, "velocity": 117, "channel": 0}, {"type": "note_on", "time": 10, "note": 65, "velocity": 114, "channel": 0}, {"type": "note_off", "time": 71, "note": 65, "velocity": 114, "channel": 0}, {"type": "note_on", "time": 7, "note": 60, "velocity": 100, "channel": 0}, {"type": "note_off", "time": 101, "note": 60, "velocity": 100, "channel": 0}, {"type": "note_on", "time": 4, "note": 58, "velocity": 97, "channel": 0}, {"type": "note_off", "time": 82, "note": 58, "velocity": 97, "channel": 0}, {"type": "note_on", "time": 391, "note": 64, "velocity": 113, "channel": 0}, {"type": "note_off", "time": 112, "note": 64, "velocity": 113, "channel": 0}, {"type": "note_on", "time": 11, "note": 61, "velocity": 91, "channel": 0}, {"type": "note_off", "time": 56, "note": 61, "velocity": 91, "channel": 0}, {"type": "note_on", "time": 10, "note": 66, "velocity": 110, "channel": 0}, {"type": "note_off", "time": 100, "note": 66, "velocity": 110, "channel": 0}, {"type": "note_on", "time": 11, "note": 71, "velocity": 119, "channel": 0}, {"type": "note_off", "time": 65, "note": 71, "velocity": 119, "channel": 0}, {"type": "note_on", "time": 7, "note": 65, "velocity": 115, "channel": 0}, {"type": "note_off", "time": 111, "note": 65, "velocity": 115, "channel": 0}, {"type": "note_on", "time": 22, "note": 61, "velocity": 96, "channel": 0}, {"type": "note_off", "time": 48, "note": 61, "velocity": 96, "channel": 0}, {"type": "note_on", "time": 14, "note": 64, "velocity": 112, "channel": 0}, {"type": "note_off", "time": 82, "note": 64, "velocity": 112, "channel": 0}, {"type": "note_on", "time": 22, "note": 62, "velocity": 104, "channel": 0}, {"type": "note_off", "time": 70, "note": 62, "velocity": 104, "channel": 0}, {"type": "note_on", "time": 123, "note": 66, "velocity": 109, "channel": 0}, {"type": "note_off", "time": 58, "note": 66, "velocity": 109, "channel": 0}, {"type": "note_on", "time": 13, "note": 71, "velocity": 115, "channel": 0}, {"type": "note_off", "time": 89, "note": 71, "velocity": 115, "channel": 0}, {"type": "note_on", "time": 10, "note": 72, "velocity": 102, "channel": 0}, {"type": "note_off", "time": 60, "note": 72, "velocity": 102, "channel": 0}, {"type": "note_on", "time": 13, "note": 73, "velocity": 103, "channel": 0}, {"type": "note_off", "time": 116, "note": 73, "velocity": 103, "channel": 0}, {"type": "note_on", "time": 14, "note": 69, "velocity": 106, "channel": 0}, {"type": "note_off", "time": 244, "note": 69, "velocity": 106, "channel": 0}, {"type": "note_on", "time": 15, "note": 71, "velocity": 117, "channel": 0}, {"type": "note_off", "time": 100, "note": 71, "velocity": 117, "channel": 0}, {"type": "note_on", "time": 5, "note": 73, "velocity": 96, "channel": 0}, {"type": "note_off", "time": 71, "note": 73, "velocity": 96, "channel": 0}, {"type": "note_on", "time": 7, "note": 75, "velocity": 112, "channel": 0}, {"type": "note_off", "time": 96, "note": 75, "velocity": 112, "channel": 0}, {"type": "note_on", "time": 15, "note": 77, "velocity": 115, "channel": 0}, {"type": "note_off", "time": 103, "note": 77, "velocity": 115, "channel": 0}, {"type": "note_on", "time": 7, "note": 78, "velocity": 111, "channel": 0}, {"type": "note_off", "time": 77, "note": 78, "velocity": 111, "channel": 0}, {"type": "note_on", "time": 5, "note": 80, "velocity": 115, "channel": 0}, {"type": "note_off", "time": 75, "note": 80, "velocity": 115, "channel": 0}, {"type": "note_on", "time": 1, "note": 82, "velocity": 112, "channel": 0}, {"type": "note_off", "time": 84, "note": 82, "velocity": 112, "channel": 0}, {"type": "note_on", "time": 10, "note": 83, "velocity": 113, "channel": 0}, {"type": "note_off", "time": 115, "note": 83, "velocity": 113, "channel": 0}, {"type": "note_on", "time": 8, "note": 84, "velocity": 96, "channel": 0}, {"type": "note_off", "time": 379, "note": 84, "velocity": 96, "channel": 0}, {"type": "note_on", "time": 1080, "note": 83, "velocity": 120, "channel": 0}, {"type": "note_off", "time": 82, "note": 83, "velocity": 120, "channel": 0}, {"type": "note_on", "time": 12, "note": 79, "velocity": 120, "channel": 0}, {"type": "note_off", "time": 66, "note": 79, "velocity": 120, "channel": 0}, {"type": "note_on", "time": 8, "note": 80, "velocity": 97, "channel": 0}, {"type": "note_off", "time": 39, "note": 80, "velocity": 97, "channel": 0}, {"type": "note_on", "time": 8, "note": 79, "velocity": 124, "channel": 0}, {"type": "note_off", "time": 133, "note": 79, "velocity": 124, "channel": 0}, {"type": "note_on", "time": 15, "note": 80, "velocity": 103, "channel": 0}, {"type": "note_off", "time": 65, "note": 80, "velocity": 103, "channel": 0}, {"type": "note_on", "time": 20, "note": 81, "velocity": 117, "channel": 0}, {"type": "note_off", "time": 103, "note": 81, "velocity": 117, "channel": 0}, {"type": "note_on", "time": 102, "note": 77, "velocity": 111, "channel": 0}, {"type": "note_off", "time": 78, "note": 77, "velocity": 111, "channel": 0}, {"type": "note_on", "time": 19, "note": 81, "velocity": 117, "channel": 0}, {"type": "note_off", "time": 80, "note": 81, "velocity": 117, "channel": 0}, {"type": "note_on", "time": 8, "note": 79, "velocity": 121, "channel": 0}, {"type": "note_off", "time": 98, "note": 79, "velocity": 121, "channel": 0}, {"type": "note_on", "time": 3, "note": 80, "velocity": 103, "channel": 0}, {"type": "note_off", "time": 40, "note": 80, "velocity": 103, "channel": 0}, {"type": "note_on", "time": 5, "note": 79, "velocity": 123, "channel": 0}, {"type": "note_off", "time": 123, "note": 79, "velocity": 123, "channel": 0}, {"type": "note_on", "time": 8, "note": 77, "velocity": 113, "channel": 0}, {"type": "note_off", "time": 86, "note": 77, "velocity": 113, "channel": 0}, {"type": "note_on", "time": 56, "note": 75, "velocity": 109, "channel": 0}, {"type": "note_off", "time": 34, "note": 75, "velocity": 109, "channel": 0}, {"type": "note_on", "time": 11, "note": 75, "velocity": 109, "channel": 0}, {"type": "note_off", "time": 44, "note": 75, "velocity": 109, "channel": 0}, {"type": "note_on", "time": 6, "note": 77, "velocity": 117, "channel": 0}, {"type": "note_off", "time": 148, "note": 77, "velocity": 117, "channel": 0}, {"type": "note_on", "time": 83, "note": 77, "velocity": 114, "channel": 0}, {"type": "note_off", "time": 97, "note": 77, "velocity": 114, "channel": 0}, {"type": "note_on", "time": 4, "note": 78, "velocity": 112, "channel": 0}, {"type": "note_off", "time": 104, "note": 78, "velocity": 112, "channel": 0}, {"type": "note_on", "time": 10, "note": 71, "velocity": 91, "channel": 0}, {"type": "note_off", "time": 230, "note": 71, "velocity": 91, "channel": 0}, {"type": "note_on", "time": 55, "note": 77, "velocity": 94, "channel": 0}, {"type": "note_off", "time": 67, "note": 77, "velocity": 94, "channel": 0}, {"type": "note_on", "time": 7, "note": 75, "velocity": 90, "channel": 0}, {"type": "note_off", "time": 268, "note": 75, "velocity": 90, "channel": 0}, {"type": "note_on", "time": 7, "note": 76, "velocity": 98, "channel": 0}, {"type": "note_off", "time": 74, "note": 76, "velocity": 98, "channel": 0}, {"type": "note_on", "time": 8, "note": 73, "velocity": 98, "channel": 0}, {"type": "note_off", "time": 292, "note": 73, "velocity": 98, "channel": 0}, {"type": "note_on", "time": 13, "note": 76, "velocity": 112, "channel": 0}, {"type": "note_off", "time": 92, "note": 76, "velocity": 112, "channel": 0}, {"type": "note_on", "time": 8, "note": 71, "velocity": 99, "channel": 0}, {"type": "note_off", "time": 265, "note": 71, "velocity": 99, "channel": 0}, {"type": "note_on", "time": 32, "note": 71, "velocity": 103, "channel": 0}, {"type": "note_off", "time": 50, "note": 71, "velocity": 103, "channel": 0}, {"type": "note_on", "time": 14, "note": 77, "velocity": 111, "channel": 0}, {"type": "note_off", "time": 70, "note": 77, "velocity": 111, "channel": 0}, {"type": "note_on", "time": 10, "note": 71, "velocity": 99, "channel": 0}, {"type": "note_off", "time": 61, "note": 71, "velocity": 99, "channel": 0}, {"type": "note_on", "time": 30, "note": 75, "velocity": 109, "channel": 0}, {"type": "note_off", "time": 97, "note": 75, "velocity": 109, "channel": 0}, {"type": "note_on", "time": 12, "note": 77, "velocity": 110, "channel": 0}, {"type": "note_off", "time": 69, "note": 77, "velocity": 110, "channel": 0}, {"type": "note_on", "time": 16, "note": 71, "velocity": 108, "channel": 0}, {"type": "note_off", "time": 71, "note": 71, "velocity": 108, "channel": 0}, {"type": "note_on", "time": 8, "note": 77, "velocity": 116, "channel": 0}, {"type": "note_off", "time": 89, "note": 77, "velocity": 116, "channel": 0}, {"type": "note_on", "time": 6, "note": 72, "velocity": 99, "channel": 0}, {"type": "note_off", "time": 87, "note": 72, "velocity": 99, "channel": 0}, {"type": "note_on", "time": 4, "note": 70, "velocity": 91, "channel": 0}, {"type": "note_off", "time": 184, "note": 70, "velocity": 91, "channel": 0}, {"type": "note_on", "time": 22, "note": 73, "velocity": 100, "channel": 0}, {"type": "note_off", "time": 101, "note": 73, "velocity": 100, "channel": 0}, {"type": "note_on", "time": 10, "note": 76, "velocity": 117, "channel": 0}, {"type": "note_off", "time": 233, "note": 76, "velocity": 117, "channel": 0}, {"type": "note_on", "time": 7, "note": 77, "velocity": 107, "channel": 0}, {"type": "note_off", "time": 83, "note": 77, "velocity": 107, "channel": 0}, {"type": "note_on", "time": 4, "note": 79, "velocity": 118, "channel": 0}, {"type": "note_off", "time": 121, "note": 79, "velocity": 118, "channel": 0}, {"type": "note_on", "time": 10, "note": 78, "velocity": 109, "channel": 0}, {"type": "note_off", "time": 59, "note": 78, "velocity": 109, "channel": 0}, {"type": "note_on", "time": 6, "note": 77, "velocity": 116, "channel": 0}, {"type": "note_off", "time": 51, "note": 77, "velocity": 116, "channel": 0}, {"type": "note_on", "time": 8, "note": 76, "velocity": 112, "channel": 0}, {"type": "note_off", "time": 48, "note": 76, "velocity": 112, "channel": 0}, {"type": "note_on", "time": 14, "note": 76, "velocity": 112, "channel": 0}, {"type": "note_off", "time": 53, "note": 76, "velocity": 112, "channel": 0}, {"type": "note_on", "time": 11, "note": 75, "velocity": 110, "channel": 0}, {"type": "note_off", "time": 96, "note": 75, "velocity": 110, "channel": 0}, {"type": "note_on", "time": 5, "note": 77, "velocity": 115, "channel": 0}, {"type": "note_off", "time": 76, "note": 77, "velocity": 115, "channel": 0}, {"type": "note_on", "time": 16, "note": 75, "velocity": 113, "channel": 0}, {"type": "note_off", "time": 65, "note": 75, "velocity": 113, "channel": 0}, {"type": "note_on", "time": 6, "note": 74, "velocity": 112, "channel": 0}, {"type": "note_off", "time": 98, "note": 74, "velocity": 112, "channel": 0}, {"type": "note_on", "time": 14, "note": 73, "velocity": 107, "channel": 0}, {"type": "note_off", "time": 60, "note": 73, "velocity": 107, "channel": 0}, {"type": "note_on", "time": 22, "note": 72, "velocity": 96, "channel": 0}, {"type": "note_off", "time": 43, "note": 72, "velocity": 96, "channel": 0}, {"type": "note_on", "time": 10, "note": 71, "velocity": 97, "channel": 0}, {"type": "note_off", "time": 71, "note": 71, "velocity": 97, "channel": 0}, {"type": "note_on", "time": 5, "note": 70, "velocity": 92, "channel": 0}, {"type": "note_off", "time": 66, "note": 70, "velocity": 92, "channel": 0}, {"type": "note_on", "time": 10, "note": 69, "velocity": 90, "channel": 0}, {"type": "note_off", "time": 91, "note": 69, "velocity": 90, "channel": 0}, {"type": "note_on", "time": 1383, "note": 70, "velocity": 101, "channel": 0}, {"type": "note_off", "time": 77, "note": 70, "velocity": 101, "channel": 0}, {"type": "note_on", "time": 7, "note": 75, "velocity": 106, "channel": 0}, {"type": "note_off", "time": 97, "note": 75, "velocity": 106, "channel": 0}, {"type": "note_on", "time": 3, "note": 77, "velocity": 106, "channel": 0}, {"type": "note_off", "time": 77, "note": 77, "velocity": 106, "channel": 0}, {"type": "note_on", "time": 19, "note": 77, "velocity": 116, "channel": 0}, {"type": "note_off", "time": 82, "note": 77, "velocity": 116, "channel": 0}, {"type": "note_on", "time": 13, "note": 79, "velocity": 123, "channel": 0}, {"type": "note_off", "time": 90, "note": 79, "velocity": 123, "channel": 0}, {"type": "note_on", "time": 3, "note": 78, "velocity": 115, "channel": 0}, {"type": "note_off", "time": 64, "note": 78, "velocity": 115, "channel": 0}, {"type": "note_on", "time": 7, "note": 77, "velocity": 121, "channel": 0}, {"type": "note_off", "time": 97, "note": 77, "velocity": 121, "channel": 0}, {"type": "note_on", "time": 2, "note": 76, "velocity": 115, "channel": 0}, {"type": "note_off", "time": 87, "note": 76, "velocity": 115, "channel": 0}, {"type": "note_on", "time": 5, "note": 75, "velocity": 114, "channel": 0}, {"type": "note_off", "time": 97, "note": 75, "velocity": 114, "channel": 0}, {"type": "note_on", "time": 1, "note": 76, "velocity": 125, "channel": 0}, {"type": "note_off", "time": 104, "note": 76, "velocity": 125, "channel": 0}, {"type": "note_on", "time": 3, "note": 75, "velocity": 118, "channel": 0}, {"type": "note_off", "time": 61, "note": 75, "velocity": 118, "channel": 0}, {"type": "note_on", "time": 10, "note": 73, "velocity": 104, "channel": 0}, {"type": "note_off", "time": 86, "note": 73, "velocity": 104, "channel": 0}, {"type": "note_on", "time": 10, "note": 72, "velocity": 100, "channel": 0}, {"type": "note_off", "time": 85, "note": 72, "velocity": 100, "channel": 0}, {"type": "note_on", "time": 5, "note": 70, "velocity": 106, "channel": 0}, {"type": "note_off", "time": 33, "note": 70, "velocity": 106, "channel": 0}, {"type": "note_on", "time": 4, "note": 71, "velocity": 114, "channel": 0}, {"type": "note_off", "time": 37, "note": 71, "velocity": 114, "channel": 0}, {"type": "note_on", "time": 12, "note": 70, "velocity": 109, "channel": 0}, {"type": "note_off", "time": 97, "note": 70, "velocity": 109, "channel": 0}, {"type": "note_on", "time": 8, "note": 69, "velocity": 111, "channel": 0}, {"type": "note_off", "time": 83, "note": 69, "velocity": 111, "channel": 0}, {"type": "note_on", "time": 18, "note": 68, "velocity": 113, "channel": 0}, {"type": "note_off", "time": 82, "note": 68, "velocity": 113, "channel": 0}, {"type": "note_on", "time": 3, "note": 70, "velocity": 106, "channel": 0}, {"type": "note_off", "time": 86, "note": 70, "velocity": 106, "channel": 0}, {"type": "note_on", "time": 3, "note": 72, "velocity": 102, "channel": 0}, {"type": "note_off", "time": 101, "note": 72, "velocity": 102, "channel": 0}, {"type": "note_on", "time": 5, "note": 73, "velocity": 103, "channel": 0}, {"type": "note_off", "time": 81, "note": 73, "velocity": 103, "channel": 0}, {"type": "note_on", "time": 7, "note": 68, "velocity": 113, "channel": 0}, {"type": "note_off", "time": 126, "note": 68, "velocity": 113, "channel": 0}, {"type": "note_on", "time": 1, "note": 65, "velocity": 93, "channel": 0}, {"type": "note_off", "time": 32, "note": 65, "velocity": 93, "channel": 0}, {"type": "note_on", "time": 1, "note": 67, "velocity": 115, "channel": 0}, {"type": "note_off", "time": 118, "note": 67, "velocity": 115, "channel": 0}, {"type": "note_on", "time": 5, "note": 70, "velocity": 106, "channel": 0}, {"type": "note_off", "time": 99, "note": 70, "velocity": 106, "channel": 0}, {"type": "note_on", "time": 3, "note": 71, "velocity": 97, "channel": 0}, {"type": "note_off", "time": 87, "note": 71, "velocity": 97, "channel": 0}, {"type": "note_on", "time": 2, "note": 70, "velocity": 106, "channel": 0}, {"type": "note_off", "time": 85, "note": 70, "velocity": 106, "channel": 0}, {"type": "note_on", "time": 3, "note": 72, "velocity": 100, "channel": 0}, {"type": "note_off", "time": 108, "note": 72, "velocity": 100, "channel": 0}, {"type": "note_on", "time": 78, "note": 73, "velocity": 99, "channel": 0}, {"type": "note_off", "time": 100, "note": 73, "velocity": 99, "channel": 0}, {"type": "note_on", "time": 6, "note": 69, "velocity": 113, "channel": 0}, {"type": "note_off", "time": 88, "note": 69, "velocity": 113, "channel": 0}, {"type": "note_on", "time": 2, "note": 68, "velocity": 115, "channel": 0}, {"type": "note_off", "time": 101, "note": 68, "velocity": 115, "channel": 0}, {"type": "note_on", "time": 3, "note": 71, "velocity": 116, "channel": 0}, {"type": "note_off", "time": 79, "note": 71, "velocity": 116, "channel": 0}, {"type": "note_on", "time": 5, "note": 66, "velocity": 110, "channel": 0}, {"type": "note_off", "time": 87, "note": 66, "velocity": 110, "channel": 0}, {"type": "note_on", "time": 12, "note": 61, "velocity": 94, "channel": 0}, {"type": "note_off", "time": 87, "note": 61, "velocity": 94, "channel": 0}, {"type": "note_on", "time": 7, "note": 64, "velocity": 107, "channel": 0}, {"type": "note_off", "time": 88, "note": 64, "velocity": 107, "channel": 0}, {"type": "note_on", "time": 1, "note": 65, "velocity": 112, "channel": 0}, {"type": "note_off", "time": 89, "note": 65, "velocity": 112, "channel": 0}, {"type": "note_on", "time": 3, "note": 66, "velocity": 108, "channel": 0}, {"type": "note_off", "time": 91, "note": 66, "velocity": 108, "channel": 0}, {"type": "note_on", "time": 0, "note": 67, "velocity": 117, "channel": 0}, {"type": "note_off", "time": 94, "note": 67, "velocity": 117, "channel": 0}, {"type": "note_on", "time": 4, "note": 69, "velocity": 100, "channel": 0}, {"type": "note_off", "time": 95, "note": 69, "velocity": 100, "channel": 0}, {"type": "note_on", "time": 3, "note": 68, "velocity": 115, "channel": 0}, {"type": "note_off", "time": 92, "note": 68, "velocity": 115, "channel": 0}, {"type": "note_on", "time": 3, "note": 69, "velocity": 111, "channel": 0}, {"type": "note_off", "time": 195, "note": 69, "velocity": 111, "channel": 0}, {"type": "note_on", "time": 9, "note": 67, "velocity": 112, "channel": 0}, {"type": "note_off", "time": 43, "note": 67, "velocity": 112, "channel": 0}, {"type": "note_on", "time": 3, "note": 70, "velocity": 102, "channel": 0}, {"type": "note_off", "time": 41, "note": 70, "velocity": 102, "channel": 0}, {"type": "note_on", "time": 11, "note": 70, "velocity": 104, "channel": 0}, {"type": "note_off", "time": 38, "note": 70, "velocity": 104, "channel": 0}, {"type": "note_on", "time": 13, "note": 72, "velocity": 105, "channel": 0}, {"type": "note_off", "time": 42, "note": 72, "velocity": 105, "channel": 0}, {"type": "note_on", "time": 804, "note": 72, "velocity": 112, "channel": 0}, {"type": "note_off", "time": 83, "note": 72, "velocity": 112, "channel": 0}, {"type": "note_on", "time": 5, "note": 71, "velocity": 118, "channel": 0}, {"type": "note_off", "time": 97, "note": 71, "velocity": 118, "channel": 0}, {"type": "note_on", "time": 4, "note": 72, "velocity": 114, "channel": 0}, {"type": "note_off", "time": 98, "note": 72, "velocity": 114, "channel": 0}, {"type": "note_on", "time": 89, "note": 71, "velocity": 117, "channel": 0}, {"type": "note_off", "time": 75, "note": 71, "velocity": 117, "channel": 0}, {"type": "note_on", "time": 4, "note": 72, "velocity": 102, "channel": 0}, {"type": "note_off", "time": 106, "note": 72, "velocity": 102, "channel": 0}, {"type": "note_on", "time": 5, "note": 73, "velocity": 103, "channel": 0}, {"type": "note_off", "time": 77, "note": 73, "velocity": 103, "channel": 0}, {"type": "note_on", "time": 7, "note": 72, "velocity": 114, "channel": 0}, {"type": "note_off", "time": 101, "note": 72, "velocity": 114, "channel": 0}, {"type": "note_on", "time": 6, "note": 71, "velocity": 111, "channel": 0}, {"type": "note_off", "time": 80, "note": 71, "velocity": 111, "channel": 0}, {"type": "note_on", "time": 6, "note": 72, "velocity": 100, "channel": 0}, {"type": "note_off", "time": 107, "note": 72, "velocity": 100, "channel": 0}, {"type": "note_on", "time": 67, "note": 73, "velocity": 102, "channel": 0}, {"type": "note_off", "time": 88, "note": 73, "velocity": 102, "channel": 0}, {"type": "note_on", "time": 4, "note": 72, "velocity": 112, "channel": 0}, {"type": "note_off", "time": 118, "note": 72, "velocity": 112, "channel": 0}, {"type": "note_on", "time": 4, "note": 70, "velocity": 112, "channel": 0}, {"type": "note_off", "time": 66, "note": 70, "velocity": 112, "channel": 0}, {"type": "note_on", "time": 8, "note": 71, "velocity": 111, "channel": 0}, {"type": "note_off", "time": 189, "note": 71, "velocity": 111, "channel": 0}, {"type": "note_on", "time": 10, "note": 70, "velocity": 115, "channel": 0}, {"type": "note_off", "time": 92, "note": 70, "velocity": 115, "channel": 0}, {"type": "note_on", "time": 3, "note": 71, "velocity": 107, "channel": 0}, {"type": "note_off", "time": 164, "note": 71, "velocity": 107, "channel": 0}, {"type": "note_on", "time": 37, "note": 71, "velocity": 116, "channel": 0}, {"type": "note_off", "time": 102, "note": 71, "velocity": 116, "channel": 0}, {"type": "note_on", "time": 6, "note": 72, "velocity": 100, "channel": 0}, {"type": "note_off", "time": 85, "note": 72, "velocity": 100, "channel": 0}, {"type": "note_on", "time": 5, "note": 73, "velocity": 101, "channel": 0}, {"type": "note_off", "time": 87, "note": 73, "velocity": 101, "channel": 0}, {"type": "note_on", "time": 10, "note": 70, "velocity": 109, "channel": 0}, {"type": "note_off", "time": 80, "note": 70, "velocity": 109, "channel": 0}, {"type": "note_on", "time": 4, "note": 69, "velocity": 111, "channel": 0}, {"type": "note_off", "time": 84, "note": 69, "velocity": 111, "channel": 0}, {"type": "note_on", "time": 30, "note": 72, "velocity": 99, "channel": 0}, {"type": "note_off", "time": 82, "note": 72, "velocity": 99, "channel": 0}, {"type": "note_on", "time": 1, "note": 73, "velocity": 101, "channel": 0}, {"type": "note_off", "time": 83, "note": 73, "velocity": 101, "channel": 0}, {"type": "note_on", "time": 17, "note": 69, "velocity": 114, "channel": 0}, {"type": "note_off", "time": 80, "note": 69, "velocity": 114, "channel": 0}, {"type": "note_on", "time": 10, "note": 68, "velocity": 114, "channel": 0}, {"type": "note_off", "time": 77, "note": 68, "velocity": 114, "channel": 0}, {"type": "note_on", "time": 23, "note": 72, "velocity": 105, "channel": 0}, {"type": "note_off", "time": 265, "note": 72, "velocity": 105, "channel": 0}, {"type": "note_on", "time": 10, "note": 71, "velocity": 114, "channel": 0}, {"type": "note_off", "time": 166, "note": 71, "velocity": 114, "channel": 0}, {"type": "note_on", "time": 10, "note": 72, "velocity": 110, "channel": 0}, {"type": "note_off", "time": 192, "note": 72, "velocity": 110, "channel": 0}, {"type": "note_on", "time": 15, "note": 71, "velocity": 104, "channel": 0}, {"type": "note_off", "time": 177, "note": 71, "velocity": 104, "channel": 0}, {"type": "note_on", "time": 6, "note": 72, "velocity": 111, "channel": 0}, {"type": "note_off", "time": 77, "note": 72, "velocity": 111, "channel": 0}, {"type": "note_on", "time": 7, "note": 71, "velocity": 108, "channel": 0}, {"type": "note_off", "time": 168, "note": 71, "velocity": 108, "channel": 0}, {"type": "note_on", "time": 11, "note": 72, "velocity": 107, "channel": 0}, {"type": "note_off", "time": 134, "note": 72, "velocity": 107, "channel": 0}, {"type": "note_on", "time": 15, "note": 70, "velocity": 109, "channel": 0}, {"type": "note_off", "time": 153, "note": 70, "velocity": 109, "channel": 0}, {"type": "note_on", "time": 4, "note": 71, "velocity": 107, "channel": 0}, {"type": "note_off", "time": 120, "note": 71, "velocity": 107, "channel": 0}, {"type": "note_on", "time": 14, "note": 69, "velocity": 106, "channel": 0}, {"type": "note_off", "time": 309, "note": 69, "velocity": 106, "channel": 0}, {"type": "note_on", "time": 4, "note": 63, "velocity": 100, "channel": 0}, {"type": "note_off", "time": 93, "note": 63, "velocity": 100, "channel": 0}, {"type": "note_on", "time": 4, "note": 65, "velocity": 103, "channel": 0}, {"type": "note_off", "time": 94, "note": 65, "velocity": 103, "channel": 0}, {"type": "note_on", "time": 6, "note": 68, "velocity": 109, "channel": 0}, {"type": "note_off", "time": 90, "note": 68, "velocity": 109, "channel": 0}, {"type": "note_on", "time": 7, "note": 69, "velocity": 111, "channel": 0}, {"type": "note_off", "time": 91, "note": 69, "velocity": 111, "channel": 0}, {"type": "note_on", "time": 15, "note": 63, "velocity": 104, "channel": 0}, {"type": "note_off", "time": 101, "note": 63, "velocity": 104, "channel": 0}, {"type": "note_on", "time": 824, "note": 68, "velocity": 119, "channel": 0}, {"type": "note_off", "time": 82, "note": 68, "velocity": 119, "channel": 0}, {"type": "note_on", "time": 7, "note": 67, "velocity": 119, "channel": 0}, {"type": "note_off", "time": 79, "note": 67, "velocity": 119, "channel": 0}, {"type": "note_on", "time": 4, "note": 68, "velocity": 119, "channel": 0}, {"type": "note_off", "time": 94, "note": 68, "velocity": 119, "channel": 0}, {"type": "note_on", "time": 12, "note": 67, "velocity": 117, "channel": 0}, {"type": "note_off", "time": 88, "note": 67, "velocity": 117, "channel": 0}, {"type": "note_on", "time": 6, "note": 68, "velocity": 118, "channel": 0}, {"type": "note_off", "time": 75, "note": 68, "velocity": 118, "channel": 0}, {"type": "note_on", "time": 7, "note": 63, "velocity": 107, "channel": 0}, {"type": "note_off", "time": 376, "note": 63, "velocity": 107, "channel": 0}, {"type": "note_on", "time": 9, "note": 62, "velocity": 106, "channel": 0}, {"type": "note_off", "time": 88, "note": 62, "velocity": 106, "channel": 0}, {"type": "note_on", "time": 9, "note": 63, "velocity": 108, "channel": 0}, {"type": "note_off", "time": 91, "note": 63, "velocity": 108, "channel": 0}, {"type": "note_on", "time": 4, "note": 62, "velocity": 104, "channel": 0}, {"type": "note_off", "time": 80, "note": 62, "velocity": 104, "channel": 0}, {"type": "note_on", "time": 7, "note": 63, "velocity": 112, "channel": 0}, {"type": "note_off", "time": 82, "note": 63, "velocity": 112, "channel": 0}, {"type": "note_on", "time": 18, "note": 68, "velocity": 119, "channel": 0}, {"type": "note_off", "time": 115, "note": 68, "velocity": 119, "channel": 0}, {"type": "note_on", "time": 6, "note": 69, "velocity": 115, "channel": 0}, {"type": "note_off", "time": 83, "note": 69, "velocity": 115, "channel": 0}, {"type": "note_on", "time": 6, "note": 68, "velocity": 119, "channel": 0}, {"type": "note_off", "time": 72, "note": 68, "velocity": 119, "channel": 0}, {"type": "note_on", "time": 3, "note": 69, "velocity": 116, "channel": 0}, {"type": "note_off", "time": 61, "note": 69, "velocity": 116, "channel": 0}, {"type": "note_on", "time": 0, "note": 61, "velocity": 98, "channel": 0}, {"type": "note_off", "time": 181, "note": 61, "velocity": 98, "channel": 0}, {"type": "note_on", "time": 30, "note": 62, "velocity": 105, "channel": 0}, {"type": "note_off", "time": 309, "note": 62, "velocity": 105, "channel": 0}, {"type": "note_on", "time": 22, "note": 61, "velocity": 98, "channel": 0}, {"type": "note_off", "time": 71, "note": 61, "velocity": 98, "channel": 0}, {"type": "note_on", "time": 186, "note": 62, "velocity": 106, "channel": 0}, {"type": "note_off", "time": 66, "note": 62, "velocity": 106, "channel": 0}, {"type": "note_on", "time": 11, "note": 63, "velocity": 110, "channel": 0}, {"type": "note_off", "time": 75, "note": 63, "velocity": 110, "channel": 0}, {"type": "note_on", "time": 8, "note": 64, "velocity": 110, "channel": 0}, {"type": "note_off", "time": 188, "note": 64, "velocity": 110, "channel": 0}, {"type": "note_on", "time": 9, "note": 60, "velocity": 100, "channel": 0}, {"type": "note_off", "time": 151, "note": 60, "velocity": 100, "channel": 0}, {"type": "note_on", "time": 13, "note": 65, "velocity": 110, "channel": 0}, {"type": "note_off", "time": 184, "note": 65, "velocity": 110, "channel": 0}, {"type": "note_on", "time": 5, "note": 64, "velocity": 105, "channel": 0}, {"type": "note_off", "time": 109, "note": 64, "velocity": 105, "channel": 0}, {"type": "note_on", "time": 94, "note": 66, "velocity": 111, "channel": 0}, {"type": "note_off", "time": 90, "note": 66, "velocity": 111, "channel": 0}, {"type": "note_on", "time": 2, "note": 68, "velocity": 116, "channel": 0}, {"type": "note_off", "time": 72, "note": 68, "velocity": 116, "channel": 0}, {"type": "note_on", "time": 3, "note": 61, "velocity": 97, "channel": 0}, {"type": "note_off", "time": 107, "note": 61, "velocity": 97, "channel": 0}, {"type": "note_on", "time": 400, "note": 68, "velocity": 122, "channel": 0}, {"type": "note_off", "time": 83, "note": 68, "velocity": 122, "channel": 0}, {"type": "note_on", "time": 6, "note": 66, "velocity": 115, "channel": 0}, {"type": "note_off", "time": 105, "note": 66, "velocity": 115, "channel": 0}, {"type": "note_on", "time": 11, "note": 61, "velocity": 100, "channel": 0}, {"type": "note_off", "time": 63, "note": 61, "velocity": 100, "channel": 0}, {"type": "note_on", "time": 104, "note": 64, "velocity": 111, "channel": 0}, {"type": "note_off", "time": 202, "note": 64, "velocity": 111, "channel": 0}, {"type": "note_on", "time": 9, "note": 66, "velocity": 111, "channel": 0}, {"type": "note_off", "time": 58, "note": 66, "velocity": 111, "channel": 0}, {"type": "note_on", "time": 11, "note": 71, "velocity": 118, "channel": 0}, {"type": "note_off", "time": 105, "note": 71, "velocity": 118, "channel": 0}, {"type": "note_on", "time": 7, "note": 72, "velocity": 99, "channel": 0}, {"type": "note_off", "time": 85, "note": 72, "velocity": 99, "channel": 0}, {"type": "note_on", "time": 6, "note": 73, "velocity": 104, "channel": 0}, {"type": "note_off", "time": 90, "note": 73, "velocity": 104, "channel": 0}, {"type": "note_on", "time": 9, "note": 69, "velocity": 116, "channel": 0}, {"type": "note_off", "time": 55, "note": 69, "velocity": 116, "channel": 0}, {"type": "note_on", "time": 6, "note": 68, "velocity": 118, "channel": 0}, {"type": "note_off", "time": 79, "note": 68, "velocity": 118, "channel": 0}, {"type": "note_on", "time": 824, "note": 83, "velocity": 120, "channel": 0}, {"type": "note_off", "time": 82, "note": 83, "velocity": 120, "channel": 0}, {"type": "note_on", "time": 9, "note": 79, "velocity": 120, "channel": 0}, {"type": "note_off", "time": 90, "note": 79, "velocity": 120, "channel": 0}, {"type": "note_on", "time": 17, "note": 83, "velocity": 121, "channel": 0}, {"type": "note_off", "time": 82, "note": 83, "velocity": 121, "channel": 0}, {"type": "note_on", "time": 88, "note": 82, "velocity": 119, "channel": 0}, {"type": "note_off", "time": 140, "note": 82, "velocity": 119, "channel": 0}, {"type": "note_on", "time": 63, "note": 73, "velocity": 101, "channel": 0}, {"type": "note_off", "time": 124, "note": 73, "velocity": 101, "channel": 0}, {"type": "note_on", "time": 110, "note": 77, "velocity": 113, "channel": 0}, {"type": "note_off", "time": 79, "note": 77, "velocity": 113, "channel": 0}, {"type": "note_on", "time": 4, "note": 80, "velocity": 125, "channel": 0}, {"type": "note_off", "time": 83, "note": 80, "velocity": 125, "channel": 0}, {"type": "note_on", "time": 3, "note": 78, "velocity": 114, "channel": 0}, {"type": "note_off", "time": 113, "note": 78, "velocity": 114, "channel": 0}, {"type": "note_on", "time": 4, "note": 73, "velocity": 102, "channel": 0}, {"type": "note_off", "time": 71, "note": 73, "velocity": 102, "channel": 0}, {"type": "note_on", "time": 44, "note": 75, "velocity": 113, "channel": 0}, {"type": "note_off", "time": 139, "note": 75, "velocity": 113, "channel": 0}, {"type": "note_on", "time": 214, "note": 71, "velocity": 117, "channel": 0}, {"type": "note_off", "time": 129, "note": 71, "velocity": 117, "channel": 0}, {"type": "note_on", "time": 101, "note": 77, "velocity": 116, "channel": 0}, {"type": "note_off", "time": 80, "note": 77, "velocity": 116, "channel": 0}, {"type": "note_on", "time": 3, "note": 78, "velocity": 112, "channel": 0}, {"type": "note_off", "time": 131, "note": 78, "velocity": 112, "channel": 0}, {"type": "note_on", "time": 4, "note": 75, "velocity": 114, "channel": 0}, {"type": "note_off", "time": 85, "note": 75, "velocity": 114, "channel": 0}, {"type": "note_on", "time": 4, "note": 73, "velocity": 101, "channel": 0}, {"type": "note_off", "time": 96, "note": 73, "velocity": 101, "channel": 0}, {"type": "note_on", "time": 18, "note": 70, "velocity": 107, "channel": 0}, {"type": "note_off", "time": 53, "note": 70, "velocity": 107, "channel": 0}, {"type": "note_on", "time": 6, "note": 69, "velocity": 114, "channel": 0}, {"type": "note_off", "time": 60, "note": 69, "velocity": 114, "channel": 0}, {"type": "note_on", "time": 12, "note": 73, "velocity": 101, "channel": 0}, {"type": "note_off", "time": 52, "note": 73, "velocity": 101, "channel": 0}, {"type": "note_on", "time": 4, "note": 74, "velocity": 106, "channel": 0}, {"type": "note_off", "time": 61, "note": 74, "velocity": 106, "channel": 0}, {"type": "note_on", "time": 6, "note": 68, "velocity": 110, "channel": 0}, {"type": "note_off", "time": 26, "note": 68, "velocity": 110, "channel": 0}, {"type": "note_on", "time": 7, "note": 69, "velocity": 114, "channel": 0}, {"type": "note_off", "time": 30, "note": 69, "velocity": 114, "channel": 0}, {"type": "note_on", "time": 4, "note": 68, "velocity": 117, "channel": 0}, {"type": "note_off", "time": 50, "note": 68, "velocity": 117, "channel": 0}, {"type": "note_on", "time": 4, "note": 71, "velocity": 114, "channel": 0}, {"type": "note_off", "time": 34, "note": 71, "velocity": 114, "channel": 0}, {"type": "note_on", "time": 9, "note": 72, "velocity": 102, "channel": 0}, {"type": "note_off", "time": 45, "note": 72, "velocity": 102, "channel": 0}, {"type": "note_on", "time": 7, "note": 73, "velocity": 102, "channel": 0}, {"type": "note_off", "time": 45, "note": 73, "velocity": 102, "channel": 0}, {"type": "note_on", "time": 5, "note": 68, "velocity": 117, "channel": 0}, {"type": "note_off", "time": 73, "note": 68, "velocity": 117, "channel": 0}, {"type": "note_on", "time": 4, "note": 66, "velocity": 109, "channel": 0}, {"type": "note_off", "time": 107, "note": 66, "velocity": 109, "channel": 0}, {"type": "note_on", "time": 7, "note": 67, "velocity": 111, "channel": 0}, {"type": "note_off", "time": 689, "note": 67, "velocity": 111, "channel": 0}, {"type": "note_on", "time": 30, "note": 60, "velocity": 93, "channel": 0}, {"type": "note_off", "time": 69, "note": 60, "velocity": 93, "channel": 0}, {"type": "note_on", "time": 14, "note": 66, "velocity": 108, "channel": 0}, {"type": "note_off", "time": 88, "note": 66, "velocity": 108, "channel": 0}, {"type": "note_on", "time": 3, "note": 68, "velocity": 118, "channel": 0}, {"type": "note_off", "time": 74, "note": 68, "velocity": 118, "channel": 0}, {"type": "note_on", "time": 6, "note": 65, "velocity": 110, "channel": 0}, {"type": "note_off", "time": 111, "note": 65, "velocity": 110, "channel": 0}, {"type": "note_on", "time": 12, "note": 61, "velocity": 9, "channel": 0}, {"type": "note_off", "time": 67, "note": 61, "velocity": 9, "channel": 0}, {"type": "note_on", "time": 12, "note": 64, "velocity": 50, "channel": 0}, {"type": "note_off", "time": 82, "note": 64, "velocity": 50, "channel": 0}, {"type": "note_on", "time": 4, "note": 62, "velocity": 103, "channel": 0}, {"type": "note_off", "time": 84, "note": 62, "velocity": 103, "channel": 0}, {"type": "note_on", "time": 14, "note": 66, "velocity": 111, "channel": 0}, {"type": "note_off", "time": 85, "note": 66, "velocity": 111, "channel": 0}, {"type": "note_on", "time": 7, "note": 71, "velocity": 109, "channel": 0}, {"type": "note_off", "time": 91, "note": 71, "velocity": 109, "channel": 0}, {"type": "note_on", "time": 4, "note": 72, "velocity": 101, "channel": 0}, {"type": "note_off", "time": 97, "note": 72, "velocity": 101, "channel": 0}, {"type": "note_on", "time": 4, "note": 73, "velocity": 102, "channel": 0}, {"type": "note_off", "time": 65, "note": 73, "velocity": 102, "channel": 0}, {"type": "note_on", "time": 6, "note": 69, "velocity": 114, "channel": 0}, {"type": "note_off", "time": 112, "note": 69, "velocity": 114, "channel": 0}, {"type": "note_on", "time": 3, "note": 68, "velocity": 100, "channel": 0}, {"type": "note_off", "time": 80, "note": 68, "velocity": 100, "channel": 0}, {"type": "note_on", "time": 7, "note": 71, "velocity": 118, "channel": 0}, {"type": "note_off", "time": 102, "note": 71, "velocity": 118, "channel": 0}, {"type": "note_on", "time": 6, "note": 73, "velocity": 100, "channel": 0}, {"type": "note_off", "time": 64, "note": 73, "velocity": 100, "channel": 0}, {"type": "note_on", "time": 8, "note": 75, "velocity": 109, "channel": 0}, {"type": "note_off", "time": 110, "note": 75, "velocity": 109, "channel": 0}, {"type": "note_on", "time": 6, "note": 77, "velocity": 114, "channel": 0}, {"type": "note_off", "time": 96, "note": 77, "velocity": 114, "channel": 0}, {"type": "note_on", "time": 6, "note": 78, "velocity": 112, "channel": 0}, {"type": "note_off", "time": 80, "note": 78, "velocity": 112, "channel": 0}, {"type": "note_on", "time": 5, "note": 80, "velocity": 119, "channel": 0}, {"type": "note_off", "time": 114, "note": 80, "velocity": 119, "channel": 0}, {"type": "note_on", "time": 4, "note": 79, "velocity": 118, "channel": 0}, {"type": "note_off", "time": 75, "note": 79, "velocity": 118, "channel": 0}, {"type": "note_on", "time": 4, "note": 78, "velocity": 111, "channel": 0}, {"type": "note_off", "time": 61, "note": 78, "velocity": 111, "channel": 0}, {"type": "note_on", "time": 7, "note": 77, "velocity": 117, "channel": 0}, {"type": "note_off", "time": 82, "note": 77, "velocity": 117, "channel": 0}, {"type": "note_on", "time": 4, "note": 76, "velocity": 111, "channel": 0}, {"type": "note_off", "time": 94, "note": 76, "velocity": 111, "channel": 0}, {"type": "note_on", "time": 10, "note": 75, "velocity": 108, "channel": 0}, {"type": "note_off", "time": 98, "note": 75, "velocity": 108, "channel": 0}, {"type": "note_on", "time": 6, "note": 77, "velocity": 116, "channel": 0}, {"type": "note_off", "time": 102, "note": 77, "velocity": 116, "channel": 0}, {"type": "note_on", "time": 2, "note": 76, "velocity": 115, "channel": 0}, {"type": "note_off", "time": 71, "note": 76, "velocity": 115, "channel": 0}, {"type": "note_on", "time": 11, "note": 73, "velocity": 102, "channel": 0}, {"type": "note_off", "time": 85, "note": 73, "velocity": 102, "channel": 0}, {"type": "note_on", "time": 5, "note": 70, "velocity": 106, "channel": 0}, {"type": "note_off", "time": 97, "note": 70, "velocity": 106, "channel": 0}, {"type": "note_on", "time": 493, "note": 67, "velocity": 116, "channel": 0}, {"type": "note_off", "time": 91, "note": 67, "velocity": 116, "channel": 0}, {"type": "note_on", "time": 5, "note": 70, "velocity": 112, "channel": 0}, {"type": "note_off", "time": 82, "note": 70, "velocity": 112, "channel": 0}, {"type": "note_on", "time": 2, "note": 69, "velocity": 113, "channel": 0}, {"type": "note_off", "time": 96, "note": 69, "velocity": 113, "channel": 0}, {"type": "note_on", "time": 1754, "note": 79, "velocity": 125, "channel": 0}, {"type": "note_off", "time": 69, "note": 79, "velocity": 125, "channel": 0}, {"type": "note_on", "time": 3, "note": 81, "velocity": 121, "channel": 0}, {"type": "note_off", "time": 98, "note": 81, "velocity": 121, "channel": 0}, {"type": "note_on", "time": 14, "note": 75, "velocity": 115, "channel": 0}, {"type": "note_off", "time": 85, "note": 75, "velocity": 115, "channel": 0}, {"type": "note_on", "time": 7, "note": 73, "velocity": 98, "channel": 0}, {"type": "note_off", "time": 78, "note": 73, "velocity": 98, "channel": 0}, {"type": "note_on", "time": 10, "note": 81, "velocity": 120, "channel": 0}, {"type": "note_off", "time": 60, "note": 81, "velocity": 120, "channel": 0}, {"type": "note_on", "time": 4, "note": 80, "velocity": 126, "channel": 0}, {"type": "note_off", "time": 89, "note": 80, "velocity": 126, "channel": 0}, {"type": "note_on", "time": 29, "note": 82, "velocity": 119, "channel": 0}, {"type": "note_off", "time": 74, "note": 82, "velocity": 119, "channel": 0}, {"type": "note_on", "time": 15, "note": 77, "velocity": 116, "channel": 0}, {"type": "note_off", "time": 82, "note": 77, "velocity": 116, "channel": 0}, {"type": "note_on", "time": 19, "note": 73, "velocity": 96, "channel": 0}, {"type": "note_off", "time": 55, "note": 73, "velocity": 96, "channel": 0}, {"type": "note_on", "time": 3, "note": 76, "velocity": 116, "channel": 0}, {"type": "note_off", "time": 189, "note": 76, "velocity": 116, "channel": 0}, {"type": "note_on", "time": 8, "note": 74, "velocity": 108, "channel": 0}, {"type": "note_off", "time": 102, "note": 74, "velocity": 108, "channel": 0}, {"type": "note_on", "time": 101, "note": 70, "velocity": 113, "channel": 0}, {"type": "note_off", "time": 99, "note": 70, "velocity": 113, "channel": 0}, {"type": "note_on", "time": 86, "note": 75, "velocity": 112, "channel": 0}, {"type": "note_off", "time": 327, "note": 75, "velocity": 112, "channel": 0}, {"type": "note_on", "time": 52, "note": 73, "velocity": 103, "channel": 0}, {"type": "note_off", "time": 79, "note": 73, "velocity": 103, "channel": 0}, {"type": "note_on", "time": 15, "note": 69, "velocity": 116, "channel": 0}, {"type": "note_off", "time": 101, "note": 69, "velocity": 116, "channel": 0}, {"type": "note_on", "time": 3, "note": 66, "velocity": 114, "channel": 0}, {"type": "note_off", "time": 88, "note": 66, "velocity": 114, "channel": 0}, {"type": "note_on", "time": 17, "note": 61, "velocity": 96, "channel": 0}, {"type": "note_off", "time": 73, "note": 61, "velocity": 96, "channel": 0}, {"type": "note_on", "time": 6, "note": 71, "velocity": 119, "channel": 0}, {"type": "note_off", "time": 89, "note": 71, "velocity": 119, "channel": 0}, {"type": "note_on", "time": 5, "note": 73, "velocity": 101, "channel": 0}, {"type": "note_off", "time": 80, "note": 73, "velocity": 101, "channel": 0}, {"type": "note_on", "time": 3, "note": 72, "velocity": 101, "channel": 0}, {"type": "note_off", "time": 83, "note": 72, "velocity": 101, "channel": 0}, {"type": "note_on", "time": 39, "note": 68, "velocity": 116, "channel": 0}, {"type": "note_off", "time": 58, "note": 68, "velocity": 116, "channel": 0}, {"type": "note_on", "time": 108, "note": 67, "velocity": 115, "channel": 0}, {"type": "note_off", "time": 81, "note": 67, "velocity": 115, "channel": 0}, {"type": "note_on", "time": 135, "note": 70, "velocity": 114, "channel": 0}, {"type": "note_off", "time": 97, "note": 70, "velocity": 114, "channel": 0}, {"type": "note_on", "time": 128, "note": 72, "velocity": 98, "channel": 0}, {"type": "note_off", "time": 338, "note": 72, "velocity": 98, "channel": 0}, {"type": "note_on", "time": 6, "note": 73, "velocity": 105, "channel": 0}, {"type": "note_off", "time": 80, "note": 73, "velocity": 105, "channel": 0}, {"type": "note_on", "time": 7, "note": 69, "velocity": 117, "channel": 0}, {"type": "note_off", "time": 120, "note": 69, "velocity": 117, "channel": 0}, {"type": "note_on", "time": 7, "note": 66, "velocity": 100, "channel": 0}, {"type": "note_off", "time": 68, "note": 66, "velocity": 100, "channel": 0}, {"type": "note_on", "time": 4, "note": 70, "velocity": 119, "channel": 0}, {"type": "note_off", "time": 87, "note": 70, "velocity": 119, "channel": 0}, {"type": "note_on", "time": 15, "note": 60, "velocity": 104, "channel": 0}, {"type": "note_off", "time": 78, "note": 60, "velocity": 104, "channel": 0}, {"type": "note_on", "time": 4, "note": 63, "velocity": 110, "channel": 0}, {"type": "note_off", "time": 92, "note": 63, "velocity": 110, "channel": 0}, {"type": "note_on", "time": 8, "note": 67, "velocity": 120, "channel": 0}, {"type": "note_off", "time": 91, "note": 67, "velocity": 120, "channel": 0}, {"type": "note_on", "time": 5, "note": 66, "velocity": 112, "channel": 0}, {"type": "note_off", "time": 88, "note": 66, "velocity": 112, "channel": 0}, {"type": "note_on", "time": 3, "note": 60, "velocity": 98, "channel": 0}, {"type": "note_off", "time": 67, "note": 60, "velocity": 98, "channel": 0}, {"type": "note_on", "time": 4, "note": 63, "velocity": 113, "channel": 0}, {"type": "note_off", "time": 206, "note": 63, "velocity": 113, "channel": 0}, {"type": "note_on", "time": 3, "note": 59, "velocity": 100, "channel": 0}, {"type": "note_off", "time": 81, "note": 59, "velocity": 100, "channel": 0}, {"type": "note_on", "time": 7, "note": 63, "velocity": 113, "channel": 0}, {"type": "note_off", "time": 107, "note": 63, "velocity": 113, "channel": 0}, {"type": "note_on", "time": 4, "note": 57, "velocity": 96, "channel": 0}, {"type": "note_off", "time": 126, "note": 57, "velocity": 96, "channel": 0}, {"type": "note_on", "time": 1110, "note": 83, "velocity": 122, "channel": 0}, {"type": "note_off", "time": 87, "note": 83, "velocity": 122, "channel": 0}, {"type": "note_on", "time": 3, "note": 82, "velocity": 119, "channel": 0}, {"type": "note_off", "time": 94, "note": 82, "velocity": 119, "channel": 0}, {"type": "note_on", "time": 12, "note": 79, "velocity": 109, "channel": 0}, {"type": "note_off", "time": 86, "note": 79, "velocity": 109, "channel": 0}, {"type": "note_on", "time": 80, "note": 79, "velocity": 92, "channel": 0}, {"type": "note_off", "time": 99, "note": 79, "velocity": 92, "channel": 0}, {"type": "note_on", "time": 102, "note": 79, "velocity": 118, "channel": 0}, {"type": "note_off", "time": 1065, "note": 79, "velocity": 118, "channel": 0}, {"type": "note_on", "time": 9, "note": 76, "velocity": 115, "channel": 0}, {"type": "note_off", "time": 110, "note": 76, "velocity": 115, "channel": 0}, {"type": "note_on", "time": 7, "note": 74, "velocity": 101, "channel": 0}, {"type": "note_off", "time": 66, "note": 74, "velocity": 101, "channel": 0}, {"type": "note_on", "time": 10, "note": 71, "velocity": 115, "channel": 0}, {"type": "note_off", "time": 94, "note": 71, "velocity": 115, "channel": 0}, {"type": "note_on", "time": 4, "note": 73, "velocity": 99, "channel": 0}, {"type": "note_off", "time": 93, "note": 73, "velocity": 99, "channel": 0}, {"type": "note_on", "time": 5, "note": 70, "velocity": 112, "channel": 0}, {"type": "note_off", "time": 82, "note": 70, "velocity": 112, "channel": 0}, {"type": "note_on", "time": 11, "note": 68, "velocity": 120, "channel": 0}, {"type": "note_off", "time": 476, "note": 68, "velocity": 120, "channel": 0}, {"type": "note_on", "time": 14, "note": 65, "velocity": 111, "channel": 0}, {"type": "note_off", "time": 92, "note": 65, "velocity": 111, "channel": 0}, {"type": "note_on", "time": 7, "note": 68, "velocity": 120, "channel": 0}, {"type": "note_off", "time": 82, "note": 68, "velocity": 120, "channel": 0}, {"type": "note_on", "time": 10, "note": 70, "velocity": 111, "channel": 0}, {"type": "note_off", "time": 85, "note": 70, "velocity": 111, "channel": 0}, {"type": "note_on", "time": 7, "note": 72, "velocity": 103, "channel": 0}, {"type": "note_off", "time": 78, "note": 72, "velocity": 103, "channel": 0}, {"type": "note_on", "time": 2, "note": 73, "velocity": 102, "channel": 0}, {"type": "note_off", "time": 103, "note": 73, "velocity": 102, "channel": 0}, {"type": "note_on", "time": 6, "note": 70, "velocity": 110, "channel": 0}, {"type": "note_off", "time": 86, "note": 70, "velocity": 110, "channel": 0}, {"type": "note_on", "time": 7, "note": 72, "velocity": 104, "channel": 0}, {"type": "note_off", "time": 87, "note": 72, "velocity": 104, "channel": 0}, {"type": "note_on", "time": 11, "note": 69, "velocity": 115, "channel": 0}, {"type": "note_off", "time": 82, "note": 69, "velocity": 115, "channel": 0}, {"type": "note_on", "time": 7, "note": 67, "velocity": 119, "channel": 0}, {"type": "note_off", "time": 189, "note": 67, "velocity": 119, "channel": 0}, {"type": "note_on", "time": 6, "note": 64, "velocity": 109, "channel": 0}, {"type": "note_off", "time": 86, "note": 64, "velocity": 109, "channel": 0}, {"type": "note_on", "time": 2, "note": 65, "velocity": 110, "channel": 0}, {"type": "note_off", "time": 102, "note": 65, "velocity": 110, "channel": 0}, {"type": "note_on", "time": 2, "note": 69, "velocity": 115, "channel": 0}, {"type": "note_off", "time": 77, "note": 69, "velocity": 115, "channel": 0}, {"type": "note_on", "time": 6, "note": 68, "velocity": 112, "channel": 0}, {"type": "note_off", "time": 79, "note": 68, "velocity": 112, "channel": 0}, {"type": "note_on", "time": 4, "note": 70, "velocity": 111, "channel": 0}, {"type": "note_off", "time": 212, "note": 70, "velocity": 111, "channel": 0}, {"type": "note_on", "time": 11, "note": 66, "velocity": 110, "channel": 0}, {"type": "note_off", "time": 93, "note": 66, "velocity": 110, "channel": 0}, {"type": "note_on", "time": 6, "note": 64, "velocity": 105, "channel": 0}, {"type": "note_off", "time": 437, "note": 64, "velocity": 105, "channel": 0}, {"type": "note_on", "time": 902, "note": 66, "velocity": 118, "channel": 0}, {"type": "note_off", "time": 69, "note": 66, "velocity": 118, "channel": 0}, {"type": "note_on", "time": 2, "note": 59, "velocity": 102, "channel": 0}, {"type": "note_off", "time": 38, "note": 59, "velocity": 102, "channel": 0}, {"type": "note_on", "time": 7, "note": 58, "velocity": 97, "channel": 0}, {"type": "note_off", "time": 52, "note": 58, "velocity": 97, "channel": 0}, {"type": "note_on", "time": 15, "note": 62, "velocity": 98, "channel": 0}, {"type": "note_on", "time": 69, "note": 63, "velocity": 113, "channel": 0}, {"type": "note_off", "time": 0, "note": 62, "velocity": 98, "channel": 0}, {"type": "note_off", "time": 723, "note": 63, "velocity": 113, "channel": 0}, {"type": "note_on", "time": 5, "note": 66, "velocity": 109, "channel": 0}, {"type": "note_off", "time": 57, "note": 66, "velocity": 109, "channel": 0}, {"type": "note_on", "time": 3, "note": 67, "velocity": 120, "channel": 0}, {"type": "note_off", "time": 78, "note": 67, "velocity": 120, "channel": 0}, {"type": "note_on", "time": 11, "note": 60, "velocity": 100, "channel": 0}, {"type": "note_off", "time": 85, "note": 60, "velocity": 100, "channel": 0}, {"type": "note_on", "time": 6, "note": 65, "velocity": 113, "channel": 0}, {"type": "note_off", "time": 80, "note": 65, "velocity": 113, "channel": 0}, {"type": "note_on", "time": 5, "note": 69, "velocity": 114, "channel": 0}, {"type": "note_off", "time": 95, "note": 69, "velocity": 114, "channel": 0}, {"type": "note_on", "time": 7, "note": 67, "velocity": 116, "channel": 0}, {"type": "note_off", "time": 73, "note": 67, "velocity": 116, "channel": 0}, {"type": "note_on", "time": 11, "note": 66, "velocity": 111, "channel": 0}, {"type": "note_off", "time": 46, "note": 66, "velocity": 111, "channel": 0}, {"type": "note_on", "time": 6, "note": 64, "velocity": 102, "channel": 0}, {"type": "note_off", "time": 40, "note": 64, "velocity": 102, "channel": 0}, {"type": "note_on", "time": 3, "note": 60, "velocity": 96, "channel": 0}, {"type": "note_off", "time": 112, "note": 60, "velocity": 96, "channel": 0}, {"type": "note_on", "time": 5, "note": 65, "velocity": 113, "channel": 0}, {"type": "note_off", "time": 84, "note": 65, "velocity": 113, "channel": 0}, {"type": "note_on", "time": 94, "note": 70, "velocity": 111, "channel": 0}, {"type": "note_off", "time": 78, "note": 70, "velocity": 111, "channel": 0}, {"type": "note_on", "time": 11, "note": 68, "velocity": 120, "channel": 0}, {"type": "note_off", "time": 105, "note": 68, "velocity": 120, "channel": 0}, {"type": "note_on", "time": 28, "note": 63, "velocity": 100, "channel": 0}, {"type": "note_off", "time": 86, "note": 63, "velocity": 100, "channel": 0}, {"type": "note_on", "time": 8, "note": 60, "velocity": 102, "channel": 0}, {"type": "note_off", "time": 77, "note": 60, "velocity": 102, "channel": 0}, {"type": "note_on", "time": 17, "note": 67, "velocity": 118, "channel": 0}, {"type": "note_off", "time": 82, "note": 67, "velocity": 118, "channel": 0}, {"type": "note_on", "time": 8, "note": 65, "velocity": 112, "channel": 0}, {"type": "note_off", "time": 173, "note": 65, "velocity": 112, "channel": 0}, {"type": "note_on", "time": 5, "note": 62, "velocity": 106, "channel": 0}, {"type": "note_off", "time": 102, "note": 62, "velocity": 106, "channel": 0}, {"type": "note_on", "time": 2, "note": 60, "velocity": 96, "channel": 0}, {"type": "note_off", "time": 84, "note": 60, "velocity": 96, "channel": 0}, {"type": "note_on", "time": 92, "note": 65, "velocity": 113, "channel": 0}, {"type": "note_off", "time": 84, "note": 65, "velocity": 113, "channel": 0}, {"type": "note_on", "time": 5, "note": 62, "velocity": 106, "channel": 0}, {"type": "note_off", "time": 92, "note": 62, "velocity": 106, "channel": 0}, {"type": "note_on", "time": 4, "note": 60, "velocity": 101, "channel": 0}, {"type": "note_off", "time": 84, "note": 60, "velocity": 101, "channel": 0}, {"type": "note_on", "time": 5, "note": 62, "velocity": 104, "channel": 0}, {"type": "note_off", "time": 65, "note": 62, "velocity": 104, "channel": 0}, {"type": "note_on", "time": 4, "note": 65, "velocity": 108, "channel": 0}, {"type": "note_off", "time": 97, "note": 65, "velocity": 108, "channel": 0}, {"type": "note_on", "time": 5, "note": 69, "velocity": 111, "channel": 0}, {"type": "note_off", "time": 112, "note": 69, "velocity": 111, "channel": 0}, {"type": "note_on", "time": 12, "note": 75, "velocity": 112, "channel": 0}, {"type": "note_off", "time": 88, "note": 75, "velocity": 112, "channel": 0}, {"type": "note_on", "time": 4, "note": 73, "velocity": 101, "channel": 0}, {"type": "note_off", "time": 89, "note": 73, "velocity": 101, "channel": 0}, {"type": "note_on", "time": 10, "note": 69, "velocity": 113, "channel": 0}, {"type": "note_off", "time": 74, "note": 69, "velocity": 113, "channel": 0}, {"type": "note_on", "time": 10, "note": 68, "velocity": 114, "channel": 0}, {"type": "note_off", "time": 166, "note": 68, "velocity": 114, "channel": 0}, {"type": "note_on", "time": 13, "note": 71, "velocity": 116, "channel": 0}, {"type": "note_off", "time": 114, "note": 71, "velocity": 116, "channel": 0}, {"type": "note_on", "time": 8, "note": 68, "velocity": 116, "channel": 0}, {"type": "note_off", "time": 84, "note": 68, "velocity": 116, "channel": 0}, {"type": "note_on", "time": 3, "note": 69, "velocity": 111, "channel": 0}, {"type": "note_off", "time": 88, "note": 69, "velocity": 111, "channel": 0}, {"type": "note_on", "time": 15, "note": 70, "velocity": 111, "channel": 0}, {"type": "note_off", "time": 65, "note": 70, "velocity": 111, "channel": 0}, {"type": "note_on", "time": 8, "note": 61, "velocity": 96, "channel": 0}, {"type": "note_off", "time": 84, "note": 61, "velocity": 96, "channel": 0}, {"type": "note_on", "time": 12, "note": 64, "velocity": 102, "channel": 0}, {"type": "note_off", "time": 85, "note": 64, "velocity": 102, "channel": 0}, {"type": "note_on", "time": 23, "note": 69, "velocity": 116, "channel": 0}, {"type": "note_off", "time": 85, "note": 69, "velocity": 116, "channel": 0}, {"type": "note_on", "time": 4, "note": 77, "velocity": 106, "channel": 0}, {"type": "note_off", "time": 110, "note": 77, "velocity": 106, "channel": 0}, {"type": "note_on", "time": 5, "note": 64, "velocity": 100, "channel": 0}, {"type": "note_off", "time": 49, "note": 64, "velocity": 100, "channel": 0}, {"type": "note_on", "time": 1256, "note": 71, "velocity": 107, "channel": 0}, {"type": "note_off", "time": 87, "note": 71, "velocity": 107, "channel": 0}, {"type": "note_on", "time": 1158, "note": 79, "velocity": 123, "channel": 0}, {"type": "note_off", "time": 66, "note": 79, "velocity": 123, "channel": 0}, {"type": "note_on", "time": 3, "note": 81, "velocity": 117, "channel": 0}, {"type": "note_off", "time": 485, "note": 81, "velocity": 117, "channel": 0}, {"type": "note_on", "time": 4, "note": 80, "velocity": 123, "channel": 0}, {"type": "note_off", "time": 66, "note": 80, "velocity": 123, "channel": 0}, {"type": "note_on", "time": 9, "note": 81, "velocity": 118, "channel": 0}, {"type": "note_off", "time": 360, "note": 81, "velocity": 118, "channel": 0}, {"type": "note_on", "time": 6, "note": 80, "velocity": 124, "channel": 0}, {"type": "note_off", "time": 109, "note": 80, "velocity": 124, "channel": 0}, {"type": "note_on", "time": 17, "note": 75, "velocity": 113, "channel": 0}, {"type": "note_off", "time": 69, "note": 75, "velocity": 113, "channel": 0}, {"type": "note_on", "time": 507, "note": 73, "velocity": 97, "channel": 0}, {"type": "note_off", "time": 80, "note": 73, "velocity": 97, "channel": 0}, {"type": "note_on", "time": 14, "note": 78, "velocity": 115, "channel": 0}, {"type": "note_off", "time": 71, "note": 78, "velocity": 115, "channel": 0}, {"type": "note_on", "time": 1, "note": 79, "velocity": 124, "channel": 0}, {"type": "note_off", "time": 94, "note": 79, "velocity": 124, "channel": 0}, {"type": "note_on", "time": 9, "note": 77, "velocity": 118, "channel": 0}, {"type": "note_off", "time": 96, "note": 77, "velocity": 118, "channel": 0}, {"type": "note_on", "time": 104, "note": 73, "velocity": 100, "channel": 0}, {"type": "note_off", "time": 94, "note": 73, "velocity": 100, "channel": 0}, {"type": "note_on", "time": 80, "note": 76, "velocity": 112, "channel": 0}, {"type": "note_off", "time": 878, "note": 76, "velocity": 112, "channel": 0}, {"type": "note_on", "time": 6, "note": 78, "velocity": 111, "channel": 0}, {"type": "note_off", "time": 86, "note": 78, "velocity": 111, "channel": 0}, {"type": "note_on", "time": 6, "note": 75, "velocity": 112, "channel": 0}, {"type": "note_off", "time": 82, "note": 75, "velocity": 112, "channel": 0}, {"type": "note_on", "time": 12, "note": 79, "velocity": 119, "channel": 0}, {"type": "note_off", "time": 67, "note": 79, "velocity": 119, "channel": 0}, {"type": "note_on", "time": 9, "note": 76, "velocity": 115, "channel": 0}, {"type": "note_off", "time": 123, "note": 76, "velocity": 115, "channel": 0}, {"type": "note_on", "time": 12, "note": 78, "velocity": 112, "channel": 0}, {"type": "note_off", "time": 238, "note": 78, "velocity": 112, "channel": 0}, {"type": "note_on", "time": 7, "note": 77, "velocity": 117, "channel": 0}, {"type": "note_off", "time": 99, "note": 77, "velocity": 117, "channel": 0}, {"type": "note_on", "time": 6, "note": 75, "velocity": 112, "channel": 0}, {"type": "note_off", "time": 77, "note": 75, "velocity": 112, "channel": 0}, {"type": "note_on", "time": 9, "note": 76, "velocity": 115, "channel": 0}, {"type": "note_off", "time": 80, "note": 76, "velocity": 115, "channel": 0}, {"type": "note_on", "time": 12, "note": 74, "velocity": 108, "channel": 0}, {"type": "note_off", "time": 86, "note": 74, "velocity": 108, "channel": 0}, {"type": "note_on", "time": 8, "note": 78, "velocity": 112, "channel": 0}, {"type": "note_off", "time": 99, "note": 78, "velocity": 112, "channel": 0}, {"type": "note_on", "time": 23, "note": 79, "velocity": 123, "channel": 0}, {"type": "note_off", "time": 67, "note": 79, "velocity": 123, "channel": 0}, {"type": "note_on", "time": 11, "note": 75, "velocity": 113, "channel": 0}, {"type": "note_off", "time": 94, "note": 75, "velocity": 113, "channel": 0}, {"type": "note_on", "time": 9, "note": 73, "velocity": 99, "channel": 0}, {"type": "note_off", "time": 90, "note": 73, "velocity": 99, "channel": 0}, {"type": "note_on", "time": 118, "note": 75, "velocity": 115, "channel": 0}, {"type": "note_off", "time": 115, "note": 75, "velocity": 115, "channel": 0}, {"type": "note_on", "time": 12, "note": 76, "velocity": 116, "channel": 0}, {"type": "note_off", "time": 224, "note": 76, "velocity": 116, "channel": 0}, {"type": "note_on", "time": 9, "note": 73, "velocity": 102, "channel": 0}, {"type": "note_off", "time": 67, "note": 73, "velocity": 102, "channel": 0}, {"type": "note_on", "time": 9, "note": 71, "velocity": 116, "channel": 0}, {"type": "note_off", "time": 99, "note": 71, "velocity": 116, "channel": 0}, {"type": "note_on", "time": 7, "note": 73, "velocity": 102, "channel": 0}, {"type": "note_off", "time": 72, "note": 73, "velocity": 102, "channel": 0}, {"type": "note_on", "time": 9, "note": 72, "velocity": 98, "channel": 0}, {"type": "note_off", "time": 77, "note": 72, "velocity": 98, "channel": 0}, {"type": "note_on", "time": 6, "note": 71, "velocity": 111, "channel": 0}, {"type": "note_off", "time": 88, "note": 71, "velocity": 111, "channel": 0}, {"type": "note_on", "time": 4, "note": 70, "velocity": 111, "channel": 0}, {"type": "note_off", "time": 99, "note": 70, "velocity": 111, "channel": 0}, {"type": "note_on", "time": 8, "note": 69, "velocity": 111, "channel": 0}, {"type": "note_off", "time": 69, "note": 69, "velocity": 111, "channel": 0}, {"type": "note_on", "time": 8, "note": 68, "velocity": 115, "channel": 0}, {"type": "note_off", "time": 88, "note": 68, "velocity": 115, "channel": 0}, {"type": "note_on", "time": 7, "note": 71, "velocity": 105, "channel": 0}, {"type": "note_off", "time": 88, "note": 71, "velocity": 105, "channel": 0}, {"type": "note_on", "time": 10, "note": 75, "velocity": 111, "channel": 0}, {"type": "note_off", "time": 84, "note": 75, "velocity": 111, "channel": 0}, {"type": "note_on", "time": 10, "note": 79, "velocity": 119, "channel": 0}, {"type": "note_off", "time": 74, "note": 79, "velocity": 119, "channel": 0}, {"type": "note_on", "time": 8, "note": 75, "velocity": 111, "channel": 0}, {"type": "note_off", "time": 100, "note": 75, "velocity": 111, "channel": 0}, {"type": "note_on", "time": 8, "note": 80, "velocity": 124, "channel": 0}, {"type": "note_off", "time": 85, "note": 80, "velocity": 124, "channel": 0}, {"type": "note_on", "time": 3, "note": 78, "velocity": 114, "channel": 0}, {"type": "note_off", "time": 198, "note": 78, "velocity": 114, "channel": 0}, {"type": "note_on", "time": 7, "note": 74, "velocity": 102, "channel": 0}, {"type": "note_off", "time": 86, "note": 74, "velocity": 102, "channel": 0}, {"type": "note_on", "time": 4, "note": 76, "velocity": 111, "channel": 0}, {"type": "note_off", "time": 73, "note": 76, "velocity": 111, "channel": 0}, {"type": "note_on", "time": 5, "note": 73, "velocity": 99, "channel": 0}, {"type": "note_off", "time": 96, "note": 73, "velocity": 99, "channel": 0}, {"type": "note_on", "time": 11, "note": 71, "velocity": 116, "channel": 0}, {"type": "note_off", "time": 94, "note": 71, "velocity": 116, "channel": 0}, {"type": "note_on", "time": 102, "note": 73, "velocity": 104, "channel": 0}, {"type": "note_off", "time": 77, "note": 73, "velocity": 104, "channel": 0}, {"type": "note_on", "time": 4, "note": 72, "velocity": 98, "channel": 0}, {"type": "note_off", "time": 80, "note": 72, "velocity": 98, "channel": 0}, {"type": "note_on", "time": 7, "note": 71, "velocity": 115, "channel": 0}, {"type": "note_off", "time": 95, "note": 71, "velocity": 115, "channel": 0}, {"type": "note_on", "time": 103, "note": 72, "velocity": 102, "channel": 0}, {"type": "note_off", "time": 83, "note": 72, "velocity": 102, "channel": 0}, {"type": "note_on", "time": 2, "note": 73, "velocity": 104, "channel": 0}, {"type": "note_off", "time": 92, "note": 73, "velocity": 104, "channel": 0}, {"type": "note_on", "time": 14, "note": 70, "velocity": 112, "channel": 0}, {"type": "note_off", "time": 75, "note": 70, "velocity": 112, "channel": 0}, {"type": "note_on", "time": 3, "note": 69, "velocity": 115, "channel": 0}, {"type": "note_off", "time": 67, "note": 69, "velocity": 115, "channel": 0}, {"type": "note_on", "time": 40, "note": 73, "velocity": 101, "channel": 0}, {"type": "note_off", "time": 66, "note": 73, "velocity": 101, "channel": 0}, {"type": "note_on", "time": 5, "note": 72, "velocity": 98, "channel": 0}, {"type": "note_off", "time": 120, "note": 72, "velocity": 98, "channel": 0}, {"type": "note_on", "time": 8, "note": 69, "velocity": 115, "channel": 0}, {"type": "note_off", "time": 89, "note": 69, "velocity": 115, "channel": 0}, {"type": "note_on", "time": 5, "note": 68, "velocity": 118, "channel": 0}, {"type": "note_off", "time": 102, "note": 68, "velocity": 118, "channel": 0}, {"type": "note_on", "time": 5, "note": 71, "velocity": 118, "channel": 0}, {"type": "note_off", "time": 64, "note": 71, "velocity": 118, "channel": 0}, {"type": "note_on", "time": 7, "note": 65, "velocity": 111, "channel": 0}, {"type": "note_off", "time": 171, "note": 65, "velocity": 111, "channel": 0}, {"type": "note_on", "time": 8, "note": 60, "velocity": 101, "channel": 0}, {"type": "note_off", "time": 109, "note": 60, "velocity": 101, "channel": 0}, {"type": "note_on", "time": 5, "note": 63, "velocity": 110, "channel": 0}, {"type": "note_off", "time": 180, "note": 63, "velocity": 110, "channel": 0}, {"type": "note_on", "time": 693, "note": 67, "velocity": 117, "channel": 0}, {"type": "note_off", "time": 79, "note": 67, "velocity": 117, "channel": 0}, {"type": "note_on", "time": 7, "note": 69, "velocity": 119, "channel": 0}, {"type": "note_off", "time": 76, "note": 69, "velocity": 119, "channel": 0}, {"type": "note_on", "time": 4, "note": 70, "velocity": 117, "channel": 0}, {"type": "note_off", "time": 84, "note": 70, "velocity": 117, "channel": 0}, {"type": "note_on", "time": 16, "note": 61, "velocity": 102, "channel": 0}, {"type": "note_off", "time": 62, "note": 61, "velocity": 102, "channel": 0}, {"type": "note_on", "time": 7, "note": 64, "velocity": 110, "channel": 0}, {"type": "note_off", "time": 97, "note": 64, "velocity": 110, "channel": 0}, {"type": "note_on", "time": 11, "note": 68, "velocity": 118, "channel": 0}, {"type": "note_off", "time": 87, "note": 68, "velocity": 118, "channel": 0}, {"type": "note_on", "time": 2, "note": 67, "velocity": 116, "channel": 0}, {"type": "note_off", "time": 93, "note": 67, "velocity": 116, "channel": 0}, {"type": "note_on", "time": 7, "note": 66, "velocity": 111, "channel": 0}, {"type": "note_off", "time": 190, "note": 66, "velocity": 111, "channel": 0}, {"type": "note_on", "time": 4, "note": 64, "velocity": 107, "channel": 0}, {"type": "note_off", "time": 63, "note": 64, "velocity": 107, "channel": 0}, {"type": "note_on", "time": 7, "note": 63, "velocity": 111, "channel": 0}, {"type": "note_off", "time": 103, "note": 63, "velocity": 111, "channel": 0}, {"type": "note_on", "time": 3, "note": 65, "velocity": 112, "channel": 0}, {"type": "note_off", "time": 101, "note": 65, "velocity": 112, "channel": 0}, {"type": "note_on", "time": 4, "note": 66, "velocity": 112, "channel": 0}, {"type": "note_off", "time": 73, "note": 66, "velocity": 112, "channel": 0}, {"type": "note_on", "time": 1, "note": 69, "velocity": 111, "channel": 0}, {"type": "note_off", "time": 96, "note": 69, "velocity": 111, "channel": 0}, {"type": "note_on", "time": 2, "note": 70, "velocity": 112, "channel": 0}, {"type": "note_off", "time": 99, "note": 70, "velocity": 112, "channel": 0}, {"type": "note_on", "time": 10, "note": 66, "velocity": 95, "channel": 0}, {"type": "note_off", "time": 79, "note": 66, "velocity": 95, "channel": 0}, {"type": "note_on", "time": 7, "note": 71, "velocity": 118, "channel": 0}, {"type": "note_off", "time": 86, "note": 71, "velocity": 118, "channel": 0}, {"type": "note_on", "time": 7, "note": 65, "velocity": 111, "channel": 0}, {"type": "note_off", "time": 83, "note": 65, "velocity": 111, "channel": 0}, {"type": "note_on", "time": 2, "note": 63, "velocity": 110, "channel": 0}, {"type": "note_off", "time": 94, "note": 63, "velocity": 110, "channel": 0}, {"type": "note_on", "time": 2, "note": 65, "velocity": 112, "channel": 0}, {"type": "note_off", "time": 88, "note": 65, "velocity": 112, "channel": 0}, {"type": "note_on", "time": 6, "note": 70, "velocity": 110, "channel": 0}, {"type": "note_off", "time": 97, "note": 70, "velocity": 110, "channel": 0}, {"type": "note_on", "time": 6, "note": 65, "velocity": 108, "channel": 0}, {"type": "note_off", "time": 33, "note": 65, "velocity": 108, "channel": 0}, {"type": "note_on", "time": 7, "note": 64, "velocity": 111, "channel": 0}, {"type": "note_off", "time": 72, "note": 64, "velocity": 111, "channel": 0}, {"type": "note_on", "time": 96, "note": 69, "velocity": 112, "channel": 0}, {"type": "note_off", "time": 109, "note": 69, "velocity": 112, "channel": 0}, {"type": "note_on", "time": 3, "note": 68, "velocity": 114, "channel": 0}, {"type": "note_off", "time": 91, "note": 68, "velocity": 114, "channel": 0}, {"type": "note_on", "time": 3, "note": 71, "velocity": 114, "channel": 0}, {"type": "note_off", "time": 71, "note": 71, "velocity": 114, "channel": 0}, {"type": "note_on", "time": 3, "note": 67, "velocity": 113, "channel": 0}, {"type": "note_off", "time": 101, "note": 67, "velocity": 113, "channel": 0}, {"type": "note_on", "time": 66, "note": 63, "velocity": 109, "channel": 0}, {"type": "note_off", "time": 72, "note": 63, "velocity": 109, "channel": 0}, {"type": "note_on", "time": 15, "note": 68, "velocity": 112, "channel": 0}, {"type": "note_off", "time": 92, "note": 68, "velocity": 112, "channel": 0}, {"type": "note_on", "time": 8, "note": 61, "velocity": 98, "channel": 0}, {"type": "note_off", "time": 120, "note": 61, "velocity": 98, "channel": 0}, {"type": "note_on", "time": 105, "note": 64, "velocity": 107, "channel": 0}, {"type": "note_off", "time": 58, "note": 64, "velocity": 107, "channel": 0}, {"type": "note_on", "time": 106, "note": 66, "velocity": 109, "channel": 0}, {"type": "note_off", "time": 88, "note": 66, "velocity": 109, "channel": 0}, {"type": "note_on", "time": 1, "note": 68, "velocity": 112, "channel": 0}, {"type": "note_off", "time": 76, "note": 68, "velocity": 112, "channel": 0}, {"type": "note_on", "time": 3, "note": 65, "velocity": 110, "channel": 0}, {"type": "note_off", "time": 99, "note": 65, "velocity": 110, "channel": 0}, {"type": "note_on", "time": 5, "note": 62, "velocity": 102, "channel": 0}, {"type": "note_off", "time": 71, "note": 62, "velocity": 102, "channel": 0}, {"type": "note_on", "time": 7, "note": 64, "velocity": 105, "channel": 0}, {"type": "note_off", "time": 99, "note": 64, "velocity": 105, "channel": 0}, {"type": "note_on", "time": 6, "note": 61, "velocity": 97, "channel": 0}, {"type": "note_off", "time": 97, "note": 61, "velocity": 97, "channel": 0}, {"type": "note_on", "time": 389, "note": 66, "velocity": 117, "channel": 0}, {"type": "note_off", "time": 101, "note": 66, "velocity": 117, "channel": 0}, {"type": "note_on", "time": 8, "note": 62, "velocity": 100, "channel": 0}, {"type": "note_off", "time": 82, "note": 62, "velocity": 100, "channel": 0}, {"type": "note_on", "time": 4, "note": 65, "velocity": 114, "channel": 0}, {"type": "note_off", "time": 90, "note": 65, "velocity": 114, "channel": 0}, {"type": "note_on", "time": 8, "note": 67, "velocity": 119, "channel": 0}, {"type": "note_off", "time": 93, "note": 67, "velocity": 119, "channel": 0}, {"type": "note_on", "time": 3, "note": 65, "velocity": 113, "channel": 0}, {"type": "note_off", "time": 82, "note": 65, "velocity": 113, "channel": 0}, {"type": "note_on", "time": 3, "note": 61, "velocity": 105, "channel": 0}, {"type": "note_off", "time": 60, "note": 61, "velocity": 105, "channel": 0}, {"type": "note_on", "time": 3, "note": 62, "velocity": 103, "channel": 0}, {"type": "note_off", "time": 91, "note": 62, "velocity": 103, "channel": 0}, {"type": "note_on", "time": 30, "note": 66, "velocity": 111, "channel": 0}, {"type": "note_off", "time": 90, "note": 66, "velocity": 111, "channel": 0}, {"type": "note_on", "time": 9, "note": 71, "velocity": 116, "channel": 0}, {"type": "note_off", "time": 79, "note": 71, "velocity": 116, "channel": 0}, {"type": "note_on", "time": 3, "note": 73, "velocity": 101, "channel": 0}, {"type": "note_off", "time": 75, "note": 73, "velocity": 101, "channel": 0}, {"type": "note_on", "time": 4, "note": 72, "velocity": 97, "channel": 0}, {"type": "note_off", "time": 104, "note": 72, "velocity": 97, "channel": 0}, {"type": "note_on", "time": 7, "note": 69, "velocity": 112, "channel": 0}, {"type": "note_off", "time": 84, "note": 69, "velocity": 112, "channel": 0}, {"type": "note_on", "time": 14, "note": 66, "velocity": 108, "channel": 0}, {"type": "note_off", "time": 96, "note": 66, "velocity": 108, "channel": 0}, {"type": "note_on", "time": 320, "note": 71, "velocity": 114, "channel": 0}, {"type": "note_off", "time": 109, "note": 71, "velocity": 114, "channel": 0}, {"type": "note_on", "time": 3, "note": 73, "velocity": 93, "channel": 0}, {"type": "note_off", "time": 67, "note": 73, "velocity": 93, "channel": 0}, {"type": "note_on", "time": 7, "note": 74, "velocity": 106, "channel": 0}, {"type": "note_off", "time": 86, "note": 74, "velocity": 106, "channel": 0}, {"type": "note_on", "time": 5, "note": 77, "velocity": 111, "channel": 0}, {"type": "note_off", "time": 90, "note": 77, "velocity": 111, "channel": 0}, {"type": "note_on", "time": 8, "note": 78, "velocity": 114, "channel": 0}, {"type": "note_off", "time": 86, "note": 78, "velocity": 114, "channel": 0}, {"type": "note_on", "time": 4, "note": 80, "velocity": 124, "channel": 0}, {"type": "note_off", "time": 110, "note": 80, "velocity": 124, "channel": 0}, {"type": "note_on", "time": 3, "note": 79, "velocity": 121, "channel": 0}, {"type": "note_off", "time": 105, "note": 79, "velocity": 121, "channel": 0}, {"type": "note_on", "time": 3, "note": 73, "velocity": 95, "channel": 0}, {"type": "note_off", "time": 49, "note": 73, "velocity": 95, "channel": 0}, {"type": "note_on", "time": 5, "note": 77, "velocity": 115, "channel": 0}, {"type": "note_off", "time": 120, "note": 77, "velocity": 115, "channel": 0}, {"type": "note_on", "time": 8, "note": 78, "velocity": 104, "channel": 0}, {"type": "note_off", "time": 64, "note": 78, "velocity": 104, "channel": 0}, {"type": "note_on", "time": 1, "note": 80, "velocity": 124, "channel": 0}, {"type": "note_off", "time": 90, "note": 80, "velocity": 124, "channel": 0}, {"type": "note_on", "time": 24, "note": 77, "velocity": 117, "channel": 0}, {"type": "note_off", "time": 70, "note": 77, "velocity": 117, "channel": 0}, {"type": "note_on", "time": 59, "note": 72, "velocity": 98, "channel": 0}, {"type": "note_off", "time": 82, "note": 72, "velocity": 98, "channel": 0}, {"type": "note_on", "time": 48, "note": 73, "velocity": 101, "channel": 0}, {"type": "note_off", "time": 61, "note": 73, "velocity": 101, "channel": 0}, {"type": "note_on", "time": 56, "note": 73, "velocity": 96, "channel": 0}, {"type": "note_off", "time": 56, "note": 73, "velocity": 96, "channel": 0}, {"type": "note_on", "time": 51, "note": 73, "velocity": 97, "channel": 0}, {"type": "note_off", "time": 57, "note": 73, "velocity": 97, "channel": 0}, {"type": "note_on", "time": 69, "note": 73, "velocity": 95, "channel": 0}, {"type": "note_off", "time": 64, "note": 73, "velocity": 95, "channel": 0}, {"type": "note_on", "time": 53, "note": 73, "velocity": 95, "channel": 0}, {"type": "note_off", "time": 82, "note": 73, "velocity": 95, "channel": 0}, {"type": "note_on", "time": 46, "note": 81, "velocity": 108, "channel": 0}, {"type": "note_off", "time": 41, "note": 81, "velocity": 108, "channel": 0}, {"type": "note_on", "time": 59, "note": 85, "velocity": 107, "channel": 0}, {"type": "note_off", "time": 283, "note": 85, "velocity": 107, "channel": 0}, {"type": "note_on", "time": 12, "note": 83, "velocity": 107, "channel": 0}, {"type": "note_off", "time": 418, "note": 83, "velocity": 107, "channel": 0}, {"type": "note_on", "time": 473, "note": 80, "velocity": 120, "channel": 0}, {"type": "note_off", "time": 58, "note": 80, "velocity": 120, "channel": 0}, {"type": "note_on", "time": 2, "note": 81, "velocity": 114, "channel": 0}, {"type": "note_off", "time": 973, "note": 81, "velocity": 114, "channel": 0}, {"type": "note_on", "time": 5, "note": 79, "velocity": 107, "channel": 0}, {"type": "note_off", "time": 72, "note": 79, "velocity": 107, "channel": 0}, {"type": "note_on", "time": 7, "note": 81, "velocity": 116, "channel": 0}, {"type": "note_off", "time": 105, "note": 81, "velocity": 116, "channel": 0}, {"type": "note_on", "time": 10, "note": 78, "velocity": 112, "channel": 0}, {"type": "note_off", "time": 82, "note": 78, "velocity": 112, "channel": 0}, {"type": "note_on", "time": 9, "note": 73, "velocity": 99, "channel": 0}, {"type": "note_off", "time": 66, "note": 73, "velocity": 99, "channel": 0}, {"type": "note_on", "time": 12, "note": 76, "velocity": 113, "channel": 0}, {"type": "note_off", "time": 71, "note": 76, "velocity": 113, "channel": 0}, {"type": "note_on", "time": 19, "note": 71, "velocity": 113, "channel": 0}, {"type": "note_off", "time": 93, "note": 71, "velocity": 113, "channel": 0}, {"type": "note_on", "time": 15, "note": 76, "velocity": 112, "channel": 0}, {"type": "note_off", "time": 61, "note": 76, "velocity": 112, "channel": 0}, {"type": "note_on", "time": 6, "note": 74, "velocity": 104, "channel": 0}, {"type": "note_off", "time": 102, "note": 74, "velocity": 104, "channel": 0}, {"type": "note_on", "time": 104, "note": 74, "velocity": 106, "channel": 0}, {"type": "note_off", "time": 91, "note": 74, "velocity": 106, "channel": 0}, {"type": "note_on", "time": 107, "note": 74, "velocity": 107, "channel": 0}, {"type": "note_off", "time": 91, "note": 74, "velocity": 107, "channel": 0}, {"type": "note_on", "time": 85, "note": 74, "velocity": 106, "channel": 0}, {"type": "note_off", "time": 93, "note": 74, "velocity": 106, "channel": 0}, {"type": "note_on", "time": 94, "note": 73, "velocity": 100, "channel": 0}, {"type": "note_off", "time": 99, "note": 73, "velocity": 100, "channel": 0}, {"type": "note_on", "time": 61, "note": 77, "velocity": 110, "channel": 0}, {"type": "note_off", "time": 58, "note": 77, "velocity": 110, "channel": 0}, {"type": "note_on", "time": 6, "note": 78, "velocity": 112, "channel": 0}, {"type": "note_off", "time": 52, "note": 78, "velocity": 112, "channel": 0}, {"type": "note_on", "time": 4, "note": 80, "velocity": 124, "channel": 0}, {"type": "note_off", "time": 77, "note": 80, "velocity": 124, "channel": 0}, {"type": "note_on", "time": 12, "note": 77, "velocity": 114, "channel": 0}, {"type": "note_off", "time": 91, "note": 77, "velocity": 114, "channel": 0}, {"type": "note_on", "time": 4, "note": 76, "velocity": 112, "channel": 0}, {"type": "note_off", "time": 83, "note": 76, "velocity": 112, "channel": 0}, {"type": "note_on", "time": 18, "note": 75, "velocity": 110, "channel": 0}, {"type": "note_off", "time": 77, "note": 75, "velocity": 110, "channel": 0}, {"type": "note_on", "time": 20, "note": 77, "velocity": 117, "channel": 0}, {"type": "note_off", "time": 85, "note": 77, "velocity": 117, "channel": 0}, {"type": "note_on", "time": 4, "note": 76, "velocity": 113, "channel": 0}, {"type": "note_off", "time": 61, "note": 76, "velocity": 113, "channel": 0}, {"type": "note_on", "time": 33, "note": 73, "velocity": 101, "channel": 0}, {"type": "note_off", "time": 80, "note": 73, "velocity": 101, "channel": 0}, {"type": "note_on", "time": 7, "note": 72, "velocity": 101, "channel": 0}, {"type": "note_off", "time": 75, "note": 72, "velocity": 101, "channel": 0}, {"type": "note_on", "time": 12, "note": 71, "velocity": 113, "channel": 0}, {"type": "note_off", "time": 77, "note": 71, "velocity": 113, "channel": 0}, {"type": "note_on", "time": 9, "note": 70, "velocity": 107, "channel": 0}, {"type": "note_off", "time": 97, "note": 70, "velocity": 107, "channel": 0}, {"type": "note_on", "time": 12, "note": 69, "velocity": 110, "channel": 0}, {"type": "note_off", "time": 79, "note": 69, "velocity": 110, "channel": 0}, {"type": "note_on", "time": 9, "note": 68, "velocity": 113, "channel": 0}, {"type": "note_off", "time": 85, "note": 68, "velocity": 113, "channel": 0}, {"type": "note_on", "time": 17, "note": 71, "velocity": 114, "channel": 0}, {"type": "note_off", "time": 82, "note": 71, "velocity": 114, "channel": 0}, {"type": "note_on", "time": 6, "note": 72, "velocity": 101, "channel": 0}, {"type": "note_off", "time": 90, "note": 72, "velocity": 101, "channel": 0}, {"type": "note_on", "time": 7, "note": 73, "velocity": 99, "channel": 0}, {"type": "note_off", "time": 71, "note": 73, "velocity": 99, "channel": 0}, {"type": "note_on", "time": 15, "note": 68, "velocity": 113, "channel": 0}, {"type": "note_off", "time": 102, "note": 68, "velocity": 113, "channel": 0}, {"type": "note_on", "time": 9, "note": 66, "velocity": 92, "channel": 0}, {"type": "note_off", "time": 77, "note": 66, "velocity": 92, "channel": 0}, {"type": "note_on", "time": 6, "note": 67, "velocity": 116, "channel": 0}, {"type": "note_off", "time": 88, "note": 67, "velocity": 116, "channel": 0}, {"type": "note_on", "time": 4, "note": 69, "velocity": 108, "channel": 0}, {"type": "note_off", "time": 90, "note": 69, "velocity": 108, "channel": 0}, {"type": "note_on", "time": 11, "note": 65, "velocity": 110, "channel": 0}, {"type": "note_off", "time": 94, "note": 65, "velocity": 110, "channel": 0}, {"type": "note_on", "time": 25, "note": 61, "velocity": 34, "channel": 0}, {"type": "note_off", "time": 49, "note": 61, "velocity": 34, "channel": 0}, {"type": "note_on", "time": 12, "note": 65, "velocity": 116, "channel": 0}, {"type": "note_off", "time": 48, "note": 65, "velocity": 116, "channel": 0}, {"type": "note_on", "time": 14, "note": 67, "velocity": 122, "channel": 0}, {"type": "note_off", "time": 128, "note": 67, "velocity": 122, "channel": 0}, {"type": "note_on", "time": 22, "note": 67, "velocity": 120, "channel": 0}, {"type": "note_off", "time": 161, "note": 67, "velocity": 120, "channel": 0}, {"type": "note_on", "time": 15, "note": 64, "velocity": 107, "channel": 0}, {"type": "note_off", "time": 94, "note": 64, "velocity": 107, "channel": 0}, {"type": "note_on", "time": 80, "note": 73, "velocity": 97, "channel": 0}, {"type": "note_off", "time": 379, "note": 73, "velocity": 97, "channel": 0}, {"type": "note_on", "time": 248, "note": 75, "velocity": 118, "channel": 0}, {"type": "note_off", "time": 86, "note": 75, "velocity": 118, "channel": 0}, {"type": "note_on", "time": 6, "note": 72, "velocity": 98, "channel": 0}, {"type": "note_off", "time": 64, "note": 72, "velocity": 98, "channel": 0}, {"type": "note_on", "time": 12, "note": 78, "velocity": 116, "channel": 0}, {"type": "note_off", "time": 99, "note": 78, "velocity": 116, "channel": 0}, {"type": "note_on", "time": 20, "note": 80, "velocity": 126, "channel": 0}, {"type": "note_off", "time": 80, "note": 80, "velocity": 126, "channel": 0}, {"type": "note_on", "time": 9, "note": 77, "velocity": 120, "channel": 0}, {"type": "note_off", "time": 116, "note": 77, "velocity": 120, "channel": 0}, {"type": "note_on", "time": 11, "note": 73, "velocity": 96, "channel": 0}, {"type": "note_off", "time": 82, "note": 73, "velocity": 96, "channel": 0}, {"type": "note_on", "time": 6, "note": 75, "velocity": 117, "channel": 0}, {"type": "note_off", "time": 82, "note": 75, "velocity": 117, "channel": 0}, {"type": "note_on", "time": 6, "note": 77, "velocity": 117, "channel": 0}, {"type": "note_off", "time": 82, "note": 77, "velocity": 117, "channel": 0}, {"type": "note_on", "time": 6, "note": 76, "velocity": 118, "channel": 0}, {"type": "note_off", "time": 83, "note": 76, "velocity": 118, "channel": 0}, {"type": "note_on", "time": 7, "note": 73, "velocity": 103, "channel": 0}, {"type": "note_off", "time": 74, "note": 73, "velocity": 103, "channel": 0}, {"type": "note_on", "time": 6, "note": 72, "velocity": 102, "channel": 0}, {"type": "note_off", "time": 90, "note": 72, "velocity": 102, "channel": 0}, {"type": "note_on", "time": 11, "note": 70, "velocity": 113, "channel": 0}, {"type": "note_off", "time": 82, "note": 70, "velocity": 113, "channel": 0}, {"type": "note_on", "time": 11, "note": 67, "velocity": 118, "channel": 0}, {"type": "note_off", "time": 248, "note": 67, "velocity": 118, "channel": 0}, {"type": "note_on", "time": 6, "note": 64, "velocity": 106, "channel": 0}, {"type": "note_off", "time": 77, "note": 64, "velocity": 106, "channel": 0}, {"type": "note_on", "time": 662, "note": 71, "velocity": 116, "channel": 0}, {"type": "note_off", "time": 90, "note": 71, "velocity": 116, "channel": 0}, {"type": "note_on", "time": 6, "note": 72, "velocity": 110, "channel": 0}, {"type": "note_off", "time": 458, "note": 72, "velocity": 110, "channel": 0}, {"type": "note_on", "time": 3, "note": 71, "velocity": 117, "channel": 0}, {"type": "note_off", "time": 64, "note": 71, "velocity": 117, "channel": 0}, {"type": "note_on", "time": 7, "note": 70, "velocity": 107, "channel": 0}, {"type": "note_off", "time": 769, "note": 70, "velocity": 107, "channel": 0}, {"type": "note_on", "time": 6, "note": 67, "velocity": 119, "channel": 0}, {"type": "note_off", "time": 86, "note": 67, "velocity": 119, "channel": 0}, {"type": "note_on", "time": 9, "note": 70, "velocity": 113, "channel": 0}, {"type": "note_off", "time": 91, "note": 70, "velocity": 113, "channel": 0}, {"type": "note_on", "time": 12, "note": 69, "velocity": 116, "channel": 0}, {"type": "note_off", "time": 96, "note": 69, "velocity": 116, "channel": 0}, {"type": "note_on", "time": 6, "note": 64, "velocity": 102, "channel": 0}, {"type": "note_off", "time": 72, "note": 64, "velocity": 102, "channel": 0}, {"type": "note_on", "time": 9, "note": 65, "velocity": 116, "channel": 0}, {"type": "note_off", "time": 107, "note": 65, "velocity": 116, "channel": 0}, {"type": "note_on", "time": 7, "note": 69, "velocity": 114, "channel": 0}, {"type": "note_off", "time": 93, "note": 69, "velocity": 114, "channel": 0}, {"type": "note_on", "time": 4, "note": 67, "velocity": 120, "channel": 0}, {"type": "note_off", "time": 94, "note": 67, "velocity": 120, "channel": 0}, {"type": "note_on", "time": 6, "note": 66, "velocity": 113, "channel": 0}, {"type": "note_off", "time": 79, "note": 66, "velocity": 113, "channel": 0}, {"type": "note_on", "time": 9, "note": 65, "velocity": 113, "channel": 0}, {"type": "note_off", "time": 77, "note": 65, "velocity": 113, "channel": 0}, {"type": "note_on", "time": 9, "note": 64, "velocity": 111, "channel": 0}, {"type": "note_off", "time": 74, "note": 64, "velocity": 111, "channel": 0}, {"type": "note_on", "time": 3, "note": 63, "velocity": 112, "channel": 0}, {"type": "note_off", "time": 104, "note": 63, "velocity": 112, "channel": 0}, {"type": "note_on", "time": 6, "note": 65, "velocity": 116, "channel": 0}, {"type": "note_off", "time": 82, "note": 65, "velocity": 116, "channel": 0}, {"type": "note_on", "time": 6, "note": 66, "velocity": 112, "channel": 0}, {"type": "note_off", "time": 319, "note": 66, "velocity": 112, "channel": 0}, {"type": "note_on", "time": 5, "note": 65, "velocity": 112, "channel": 0}, {"type": "note_off", "time": 75, "note": 65, "velocity": 112, "channel": 0}, {"type": "note_on", "time": 8, "note": 63, "velocity": 114, "channel": 0}, {"type": "note_off", "time": 71, "note": 63, "velocity": 114, "channel": 0}, {"type": "note_on", "time": 4, "note": 62, "velocity": 108, "channel": 0}, {"type": "note_off", "time": 77, "note": 62, "velocity": 108, "channel": 0}, {"type": "note_on", "time": 4, "note": 63, "velocity": 110, "channel": 0}, {"type": "note_off", "time": 105, "note": 63, "velocity": 110, "channel": 0}, {"type": "note_on", "time": 3, "note": 65, "velocity": 112, "channel": 0}, {"type": "note_off", "time": 61, "note": 65, "velocity": 112, "channel": 0}, {"type": "note_on", "time": 12, "note": 66, "velocity": 117, "channel": 0}, {"type": "note_off", "time": 124, "note": 66, "velocity": 117, "channel": 0}, {"type": "note_on", "time": 5, "note": 69, "velocity": 111, "channel": 0}, {"type": "note_off", "time": 78, "note": 69, "velocity": 111, "channel": 0}, {"type": "note_on", "time": 5, "note": 67, "velocity": 112, "channel": 0}, {"type": "note_off", "time": 60, "note": 67, "velocity": 112, "channel": 0}, {"type": "note_on", "time": 8, "note": 64, "velocity": 102, "channel": 0}, {"type": "note_off", "time": 71, "note": 64, "velocity": 102, "channel": 0}, {"type": "end_of_track", "time": 0}]]}