{"ticks_per_beat": 192, "tracks": [[{"type": "track_name", "name": "Melody", "time": 0}, {"type": "set_tempo", "tempo": 248962, "time": 0}, {"type": "key_signature", "key": "F", "time": 0}, {"type": "time_signature", "numerator": 4, "denominator": 4, "clocks_per_click": 24, "notated_32nd_notes_per_beat": 8, "time": 0}, {"type": "note_on", "time": 3959, "note": 60, "velocity": 104, "channel": 0}, {"type": "note_off", "time": 122, "note": 60, "velocity": 104, "channel": 0}, {"type": "note_on", "time": 25, "note": 55, "velocity": 110, "channel": 0}, {"type": "note_off", "time": 81, "note": 55, "velocity": 110, "channel": 0}, {"type": "note_on", "time": 69, "note": 58, "velocity": 100, "channel": 0}, {"type": "note_off", "time": 78, "note": 58, "velocity": 100, "channel": 0}, {"type": "note_on", "time": 0, "note": 55, "velocity": 99, "channel": 0}, {"type": "note_off", "time": 107, "note": 55, "velocity": 99, "channel": 0}, {"type": "note_on", "time": 100, "note": 58, "velocity": 99, "channel": 0}, {"type": "note_off", "time": 81, "note": 58, "velocity": 99, "channel": 0}, {"type": "note_on", "time": 119, "note": 55, "velocity": 100, "channel": 0}, {"type": "note_off", "time": 78, "note": 55, "velocity": 100, "channel": 0}, {"type": "note_on", "time": 18, "note": 58, "velocity": 103, "channel": 0}, {"type": "note_off", "time": 75, "note": 58, "velocity": 103, "channel": 0}, {"type": "note_on", "time": 12, "note": 60, "velocity": 98, "channel": 0}, {"type": "note_off", "time": 113, "note": 60, "velocity": 98, "channel": 0}, {"type": "note_on", "time": 6, "note": 65, "velocity": 105, "channel": 0}, {"type": "note_off", "time": 97, "note": 65, "velocity": 105, "channel": 0}, {"type": "note_on", "time": 6, "note": 67, "velocity": 106, "channel": 0}, {"type": "note_off", "time": 88, "note": 67, "velocity": 106, "channel": 0}, {"type": "note_on", "time": 116, "note": 70, "velocity": 107, "channel": 0}, {"type": "note_off", "time": 151, "note": 70, "velocity": 107, "channel": 0}, {"type": "note_on", "time": 0, "note": 72, "velocity": 113, "channel": 0}, {"type": "note_off", "time": 144, "note": 72, "velocity": 113, "channel": 0}, {"type": "note_on", "time": 12, "note": 67, "velocity": 106, "channel": 0}, {"type": "note_off", "time": 103, "note": 67, "velocity": 106, "channel": 0}, {"type": "note_on", "time": 59, "note": 67, "velocity": 102, "channel": 0}, {"type": "note_off", "time": 72, "note": 67, "velocity": 102, "channel": 0}, {"type": "note_on", "time": 22, "note": 65, "velocity": 109, "channel": 0}, {"type": "note_off", "time": 129, "note": 65, "velocity": 109, "channel": 0}, {"type": "note_on", "time": 66, "note": 63, "velocity": 102, "channel": 0}, {"type": "note_off", "time": 163, "note": 63, "velocity": 102, "channel": 0}, {"type": "note_on", "time": 15, "note": 62, "velocity": 99, "channel": 0}, {"type": "note_off", "time": 185, "note": 62, "velocity": 99, "channel": 0}, {"type": "note_on", "time": 15, "note": 65, "velocity": 108, "channel": 0}, {"type": "note_off", "time": 188, "note": 65, "velocity": 108, "channel": 0}, {"type": "note_on", "time": 129, "note": 72, "velocity": 112, "channel": 0}, {"type": "note_off", "time": 81, "note": 72, "velocity": 112, "channel": 0}, {"type": "note_on", "time": 3, "note": 70, "velocity": 109, "channel": 0}, {"type": "note_off", "time": 91, "note": 70, "velocity": 109, "channel": 0}, {"type": "note_on", "time": 9, "note": 67, "velocity": 104, "channel": 0}, {"type": "note_off", "time": 78, "note": 67, "velocity": 104, "channel": 0}, {"type": "note_on", "time": 22, "note": 68, "velocity": 113, "channel": 0}, {"type": "note_off", "time": 157, "note": 68, "velocity": 113, "channel": 0}, {"type": "note_on", "time": 22, "note": 65, "velocity": 108, "channel": 0}, {"type": "note_off", "time": 122, "note": 65, "velocity": 108, "channel": 0}, {"type": "note_on", "time": 6, "note": 62, "velocity": 105, "channel": 0}, {"type": "note_off", "time": 110, "note": 62, "velocity": 105, "channel": 0}, {"type": "note_on", "time": 179, "note": 61, "velocity": 105, "channel": 0}, {"type": "note_off", "time": 100, "note": 61, "velocity": 105, "channel": 0}, {"type": "note_on", "time": 295, "note": 60, "velocity": 99, "channel": 0}, {"type": "note_off", "time": 273, "note": 60, "velocity": 99, "channel": 0}, {"type": "note_on", "time": 25, "note": 58, "velocity": 95, "channel": 0}, {"type": "note_off", "time": 91, "note": 58, "velocity": 95, "channel": 0}, {"type": "note_on", "time": 15, "note": 57, "velocity": 97, "channel": 0}, {"type": "note_off", "time": 100, "note": 57, "velocity": 97, "channel": 0}, {"type": "note_on", "time": 75, "note": 65, "velocity": 108, "channel": 0}, {"type": "note_off", "time": 198, "note": 65, "velocity": 108, "channel": 0}, {"type": "note_on", "time": 0, "note": 63, "velocity": 103, "channel": 0}, {"type": "note_off", "time": 185, "note": 63, "velocity": 103, "channel": 0}, {"type": "note_on", "time": 15, "note": 65, "velocity": 100, "channel": 0}, {"type": "note_off", "time": 396, "note": 65, "velocity": 100, "channel": 0}, {"type": "note_on", "time": 9, "note": 62, "velocity": 105, "channel": 0}, {"type": "note_off", "time": 157, "note": 62, "velocity": 105, "channel": 0}, {"type": "note_on", "time": 44, "note": 65, "velocity": 104, "channel": 0}, {"type": "note_off", "time": 135, "note": 65, "velocity": 104, "channel": 0}, {"type": "note_on", "time": 53, "note": 74, "velocity": 108, "channel": 0}, {"type": "note_off", "time": 185, "note": 74, "velocity": 108, "channel": 0}, {"type": "note_on", "time": 9, "note": 72, "velocity": 105, "channel": 0}, {"type": "note_off", "time": 169, "note": 72, "velocity": 105, "channel": 0}, {"type": "note_on", "time": 44, "note": 70, "velocity": 103, "channel": 0}, {"type": "note_off", "time": 157, "note": 70, "velocity": 103, "channel": 0}, {"type": "note_on", "time": 28, "note": 69, "velocity": 109, "channel": 0}, {"type": "note_off", "time": 151, "note": 69, "velocity": 109, "channel": 0}, {"type": "note_on", "time": 12, "note": 67, "velocity": 100, "channel": 0}, {"type": "note_off", "time": 125, "note": 67, "velocity": 100, "channel": 0}, {"type": "note_on", "time": 3, "note": 65, "velocity": 108, "channel": 0}, {"type": "note_off", "time": 91, "note": 65, "velocity": 108, "channel": 0}, {"type": "note_on", "time": 94, "note": 65, "velocity": 95, "channel": 0}, {"type": "note_off", "time": 97, "note": 65, "velocity": 95, "channel": 0}, {"type": "note_on", "time": 9, "note": 60, "velocity": 92, "channel": 0}, {"type": "note_off", "time": 160, "note": 60, "velocity": 92, "channel": 0}, {"type": "note_on", "time": 12, "note": 67, "velocity": 103, "channel": 0}, {"type": "note_off", "time": 91, "note": 67, "velocity": 103, "channel": 0}, {"type": "note_on", "time": 232, "note": 69, "velocity": 118, "channel": 0}, {"type": "note_off", "time": 81, "note": 69, "velocity": 118, "channel": 0}, {"type": "note_on", "time": 22, "note": 66, "velocity": 109, "channel": 0}, {"type": "note_off", "time": 94, "note": 66, "velocity": 109, "channel": 0}, {"type": "note_on", "time": 3, "note": 63, "velocity": 105, "channel": 0}, {"type": "note_off", "time": 69, "note": 63, "velocity": 105, "channel": 0}, {"type": "note_on", "time": 154, "note": 66, "velocity": 110, "channel": 0}, {"type": "note_off", "time": 59, "note": 66, "velocity": 110, "channel": 0}, {"type": "note_on", "time": 12, "note": 70, "velocity": 114, "channel": 0}, {"type": "note_off", "time": 97, "note": 70, "velocity": 114, "channel": 0}, {"type": "note_on", "time": 12, "note": 67, "velocity": 105, "channel": 0}, {"type": "note_off", "time": 91, "note": 67, "velocity": 105, "channel": 0}, {"type": "note_on", "time": 402, "note": 63, "velocity": 84, "channel": 0}, {"type": "note_off", "time": 81, "note": 63, "velocity": 84, "channel": 0}, {"type": "note_on", "time": 6, "note": 65, "velocity": 104, "channel": 0}, {"type": "note_off", "time": 88, "note": 65, "velocity": 104, "channel": 0}, {"type": "note_on", "time": 0, "note": 63, "velocity": 106, "channel": 0}, {"type": "note_off", "time": 84, "note": 63, "velocity": 106, "channel": 0}, {"type": "note_on", "time": 12, "note": 69, "velocity": 112, "channel": 0}, {"type": "note_off", "time": 78, "note": 69, "velocity": 112, "channel": 0}, {"type": "note_on", "time": 103, "note": 74, "velocity": 117, "channel": 0}, {"type": "note_off", "time": 94, "note": 74, "velocity": 117, "channel": 0}, {"type": "note_on", "time": 3, "note": 72, "velocity": 117, "channel": 0}, {"type": "note_off", "time": 179, "note": 72, "velocity": 117, "channel": 0}, {"type": "note_on", "time": 15, "note": 67, "velocity": 101, "channel": 0}, {"type": "note_off", "time": 97, "note": 67, "velocity": 101, "channel": 0}, {"type": "note_on", "time": 9, "note": 62, "velocity": 101, "channel": 0}, {"type": "note_off", "time": 116, "note": 62, "velocity": 101, "channel": 0}, {"type": "note_on", "time": 261, "note": 68, "velocity": 107, "channel": 0}, {"type": "note_off", "time": 75, "note": 68, "velocity": 107, "channel": 0}, {"type": "note_on", "time": 3, "note": 62, "velocity": 107, "channel": 0}, {"type": "note_off", "time": 103, "note": 62, "velocity": 107, "channel": 0}, {"type": "note_on", "time": 9, "note": 63, "velocity": 108, "channel": 0}, {"type": "note_off", "time": 94, "note": 63, "velocity": 108, "channel": 0}, {"type": "note_on", "time": 119, "note": 67, "velocity": 110, "channel": 0}, {"type": "note_off", "time": 72, "note": 67, "velocity": 110, "channel": 0}, {"type": "note_on", "time": 0, "note": 70, "velocity": 116, "channel": 0}, {"type": "note_off", "time": 69, "note": 70, "velocity": 116, "channel": 0}, {"type": "note_on", "time": 18, "note": 67, "velocity": 110, "channel": 0}, {"type": "note_off", "time": 81, "note": 67, "velocity": 110, "channel": 0}, {"type": "note_on", "time": 6, "note": 68, "velocity": 116, "channel": 0}, {"type": "note_off", "time": 103, "note": 68, "velocity": 116, "channel": 0}, {"type": "note_on", "time": 409, "note": 58, "velocity": 97, "channel": 0}, {"type": "note_off", "time": 75, "note": 58, "velocity": 97, "channel": 0}, {"type": "note_on", "time": 0, "note": 61, "velocity": 96, "channel": 0}, {"type": "note_off", "time": 78, "note": 61, "velocity": 96, "channel": 0}, {"type": "note_on", "time": 18, "note": 63, "velocity": 106, "channel": 0}, {"type": "note_off", "time": 81, "note": 63, "velocity": 106, "channel": 0}, {"type": "note_on", "time": 22, "note": 66, "velocity": 111, "channel": 0}, {"type": "note_off", "time": 78, "note": 66, "velocity": 111, "channel": 0}, {"type": "note_on", "time": 9, "note": 68, "velocity": 111, "channel": 0}, {"type": "note_off", "time": 81, "note": 68, "velocity": 111, "channel": 0}, {"type": "note_on", "time": 6, "note": 71, "velocity": 119, "channel": 0}, {"type": "note_off", "time": 113, "note": 71, "velocity": 119, "channel": 0}, {"type": "note_on", "time": 0, "note": 73, "velocity": 119, "channel": 0}, {"type": "note_off", "time": 110, "note": 73, "velocity": 119, "channel": 0}, {"type": "note_on", "time": 6, "note": 72, "velocity": 119, "channel": 0}, {"type": "note_off", "time": 88, "note": 72, "velocity": 119, "channel": 0}, {"type": "note_on", "time": 0, "note": 71, "velocity": 118, "channel": 0}, {"type": "note_off", "time": 94, "note": 71, "velocity": 118, "channel": 0}, {"type": "note_on", "time": 3, "note": 70, "velocity": 118, "channel": 0}, {"type": "note_off", "time": 100, "note": 70, "velocity": 118, "channel": 0}, {"type": "note_on", "time": 0, "note": 69, "velocity": 115, "channel": 0}, {"type": "note_off", "time": 88, "note": 69, "velocity": 115, "channel": 0}, {"type": "note_on", "time": 3, "note": 68, "velocity": 115, "channel": 0}, {"type": "note_off", "time": 91, "note": 68, "velocity": 115, "channel": 0}, {"type": "note_on", "time": 503, "note": 58, "velocity": 103, "channel": 0}, {"type": "note_off", "time": 113, "note": 58, "velocity": 103, "channel": 0}, {"type": "note_on", "time": 0, "note": 59, "velocity": 103, "channel": 0}, {"type": "note_off", "time": 78, "note": 59, "velocity": 103, "channel": 0}, {"type": "note_on", "time": 91, "note": 63, "velocity": 105, "channel": 0}, {"type": "note_off", "time": 81, "note": 63, "velocity": 105, "channel": 0}, {"type": "note_on", "time": 6, "note": 65, "velocity": 114, "channel": 0}, {"type": "note_off", "time": 88, "note": 65, "velocity": 114, "channel": 0}, {"type": "note_on", "time": 6, "note": 66, "velocity": 111, "channel": 0}, {"type": "note_off", "time": 103, "note": 66, "velocity": 111, "channel": 0}, {"type": "note_on", "time": 3, "note": 62, "velocity": 108, "channel": 0}, {"type": "note_off", "time": 113, "note": 62, "velocity": 108, "channel": 0}, {"type": "note_on", "time": 3, "note": 61, "velocity": 104, "channel": 0}, {"type": "note_off", "time": 66, "note": 61, "velocity": 104, "channel": 0}, {"type": "note_on", "time": 0, "note": 66, "velocity": 115, "channel": 0}, {"type": "note_off", "time": 116, "note": 66, "velocity": 115, "channel": 0}, {"type": "note_on", "time": 3, "note": 65, "velocity": 112, "channel": 0}, {"type": "note_off", "time": 84, "note": 65, "velocity": 112, "channel": 0}, {"type": "note_on", "time": 3, "note": 64, "velocity": 113, "channel": 0}, {"type": "note_off", "time": 179, "note": 64, "velocity": 113, "channel": 0}, {"type": "note_on", "time": 0, "note": 68, "velocity": 108, "channel": 0}, {"type": "note_off", "time": 122, "note": 68, "velocity": 108, "channel": 0}, {"type": "note_on", "time": 214, "note": 65, "velocity": 114, "channel": 0}, {"type": "note_off", "time": 81, "note": 65, "velocity": 114, "channel": 0}, {"type": "note_on", "time": 9, "note": 66, "velocity": 117, "channel": 0}, {"type": "note_off", "time": 94, "note": 66, "velocity": 117, "channel": 0}, {"type": "note_on", "time": 0, "note": 63, "velocity": 110, "channel": 0}, {"type": "note_off", "time": 97, "note": 63, "velocity": 110, "channel": 0}, {"type": "note_on", "time": 3, "note": 62, "velocity": 109, "channel": 0}, {"type": "note_off", "time": 81, "note": 62, "velocity": 109, "channel": 0}, {"type": "note_on", "time": 0, "note": 66, "velocity": 100, "channel": 0}, {"type": "note_off", "time": 88, "note": 66, "velocity": 100, "channel": 0}, {"type": "note_on", "time": 12, "note": 69, "velocity": 115, "channel": 0}, {"type": "note_off", "time": 97, "note": 69, "velocity": 115, "channel": 0}, {"type": "note_on", "time": 0, "note": 67, "velocity": 105, "channel": 0}, {"type": "note_off", "time": 94, "note": 67, "velocity": 105, "channel": 0}, {"type": "note_on", "time": 3, "note": 62, "velocity": 103, "channel": 0}, {"type": "note_off", "time": 166, "note": 62, "velocity": 103, "channel": 0}, {"type": "note_on", "time": 22, "note": 64, "velocity": 113, "channel": 0}, {"type": "note_off", "time": 119, "note": 64, "velocity": 113, "channel": 0}, {"type": "note_on", "time": 72, "note": 68, "velocity": 117, "channel": 0}, {"type": "note_off", "time": 113, "note": 68, "velocity": 117, "channel": 0}, {"type": "note_on", "time": 0, "note": 63, "velocity": 93, "channel": 0}, {"type": "note_off", "time": 56, "note": 63, "velocity": 93, "channel": 0}, {"type": "note_on", "time": 9, "note": 67, "velocity": 109, "channel": 0}, {"type": "note_off", "time": 135, "note": 67, "velocity": 109, "channel": 0}, {"type": "note_on", "time": 15, "note": 68, "velocity": 112, "channel": 0}, {"type": "note_off", "time": 113, "note": 68, "velocity": 112, "channel": 0}, {"type": "note_on", "time": 75, "note": 64, "velocity": 106, "channel": 0}, {"type": "note_off", "time": 163, "note": 64, "velocity": 106, "channel": 0}, {"type": "note_on", "time": 50, "note": 68, "velocity": 111, "channel": 0}, {"type": "note_off", "time": 72, "note": 68, "velocity": 111, "channel": 0}, {"type": "note_on", "time": 40, "note": 64, "velocity": 105, "channel": 0}, {"type": "note_off", "time": 157, "note": 64, "velocity": 105, "channel": 0}, {"type": "note_on", "time": 6, "note": 68, "velocity": 114, "channel": 0}, {"type": "note_off", "time": 88, "note": 68, "velocity": 114, "channel": 0}, {"type": "note_on", "time": 6, "note": 66, "velocity": 107, "channel": 0}, {"type": "note_off", "time": 72, "note": 66, "velocity": 107, "channel": 0}, {"type": "note_on", "time": 18, "note": 64, "velocity": 110, "channel": 0}, {"type": "note_off", "time": 157, "note": 64, "velocity": 110, "channel": 0}, {"type": "note_on", "time": 22, "note": 66, "velocity": 109, "channel": 0}, {"type": "note_off", "time": 91, "note": 66, "velocity": 109, "channel": 0}, {"type": "note_on", "time": 0, "note": 67, "velocity": 107, "channel": 0}, {"type": "note_off", "time": 81, "note": 67, "velocity": 107, "channel": 0}, {"type": "note_on", "time": 15, "note": 64, "velocity": 112, "channel": 0}, {"type": "note_off", "time": 100, "note": 64, "velocity": 112, "channel": 0}, {"type": "note_on", "time": 6, "note": 69, "velocity": 114, "channel": 0}, {"type": "note_off", "time": 91, "note": 69, "velocity": 114, "channel": 0}, {"type": "note_on", "time": 15, "note": 64, "velocity": 107, "channel": 0}, {"type": "note_off", "time": 75, "note": 64, "velocity": 107, "channel": 0}, {"type": "note_on", "time": 18, "note": 68, "velocity": 114, "channel": 0}, {"type": "note_off", "time": 75, "note": 68, "velocity": 114, "channel": 0}, {"type": "note_on", "time": 3, "note": 64, "velocity": 114, "channel": 0}, {"type": "note_off", "time": 113, "note": 64, "velocity": 114, "channel": 0}, {"type": "note_on", "time": 3, "note": 67, "velocity": 108, "channel": 0}, {"type": "note_off", "time": 72, "note": 67, "velocity": 108, "channel": 0}, {"type": "note_on", "time": 3, "note": 68, "velocity": 112, "channel": 0}, {"type": "note_off", "time": 166, "note": 68, "velocity": 112, "channel": 0}, {"type": "note_on", "time": 47, "note": 66, "velocity": 113, "channel": 0}, {"type": "note_off", "time": 94, "note": 66, "velocity": 113, "channel": 0}, {"type": "note_on", "time": 28, "note": 64, "velocity": 113, "channel": 0}, {"type": "note_off", "time": 100, "note": 64, "velocity": 113, "channel": 0}, {"type": "note_on", "time": 72, "note": 65, "velocity": 112, "channel": 0}, {"type": "note_off", "time": 59, "note": 65, "velocity": 112, "channel": 0}, {"type": "note_on", "time": 12, "note": 64, "velocity": 101, "channel": 0}, {"type": "note_off", "time": 195, "note": 64, "velocity": 101, "channel": 0}, {"type": "note_on", "time": 0, "note": 65, "velocity": 114, "channel": 0}, {"type": "note_off", "time": 116, "note": 65, "velocity": 114, "channel": 0}, {"type": "note_on", "time": 15, "note": 66, "velocity": 106, "channel": 0}, {"type": "note_off", "time": 75, "note": 66, "velocity": 106, "channel": 0}, {"type": "note_on", "time": 6, "note": 63, "velocity": 108, "channel": 0}, {"type": "note_off", "time": 103, "note": 63, "velocity": 108, "channel": 0}, {"type": "note_on", "time": 6, "note": 62, "velocity": 99, "channel": 0}, {"type": "note_off", "time": 91, "note": 62, "velocity": 99, "channel": 0}, {"type": "note_on", "time": 15, "note": 69, "velocity": 117, "channel": 0}, {"type": "note_off", "time": 91, "note": 69, "velocity": 117, "channel": 0}, {"type": "note_on", "time": 91, "note": 70, "velocity": 110, "channel": 0}, {"type": "note_off", "time": 88, "note": 70, "velocity": 110, "channel": 0}, {"type": "note_on", "time": 40, "note": 67, "velocity": 98, "channel": 0}, {"type": "note_off", "time": 50, "note": 67, "velocity": 98, "channel": 0}, {"type": "note_on", "time": 3, "note": 68, "velocity": 113, "channel": 0}, {"type": "note_off", "time": 113, "note": 68, "velocity": 113, "channel": 0}, {"type": "note_on", "time": 0, "note": 65, "velocity": 103, "channel": 0}, {"type": "note_off", "time": 88, "note": 65, "velocity": 103, "channel": 0}, {"type": "note_on", "time": 3, "note": 64, "velocity": 109, "channel": 0}, {"type": "note_off", "time": 144, "note": 64, "velocity": 109, "channel": 0}, {"type": "note_on", "time": 81, "note": 68, "velocity": 111, "channel": 0}, {"type": "note_off", "time": 78, "note": 68, "velocity": 111, "channel": 0}, {"type": "note_on", "time": 286, "note": 70, "velocity": 112, "channel": 0}, {"type": "note_off", "time": 107, "note": 70, "velocity": 112, "channel": 0}, {"type": "note_on", "time": 103, "note": 68, "velocity": 115, "channel": 0}, {"type": "note_off", "time": 75, "note": 68, "velocity": 115, "channel": 0}, {"type": "note_on", "time": 6, "note": 65, "velocity": 108, "channel": 0}, {"type": "note_off", "time": 78, "note": 65, "velocity": 108, "channel": 0}, {"type": "note_on", "time": 15, "note": 63, "velocity": 109, "channel": 0}, {"type": "note_off", "time": 107, "note": 63, "velocity": 109, "channel": 0}, {"type": "note_on", "time": 12, "note": 60, "velocity": 99, "channel": 0}, {"type": "note_off", "time": 113, "note": 60, "velocity": 99, "channel": 0}, {"type": "note_on", "time": 84, "note": 65, "velocity": 101, "channel": 0}, {"type": "note_off", "time": 69, "note": 65, "velocity": 101, "channel": 0}, {"type": "note_on", "time": 12, "note": 70, "velocity": 114, "channel": 0}, {"type": "note_off", "time": 78, "note": 70, "velocity": 114, "channel": 0}, {"type": "note_on", "time": 6, "note": 72, "velocity": 114, "channel": 0}, {"type": "note_off", "time": 78, "note": 72, "velocity": 114, "channel": 0}, {"type": "note_on", "time": 18, "note": 71, "velocity": 110, "channel": 0}, {"type": "note_off", "time": 299, "note": 71, "velocity": 110, "channel": 0}, {"type": "note_on", "time": 6, "note": 67, "velocity": 111, "channel": 0}, {"type": "note_off", "time": 91, "note": 67, "velocity": 111, "channel": 0}, {"type": "note_on", "time": 25, "note": 70, "velocity": 111, "channel": 0}, {"type": "note_off", "time": 75, "note": 70, "velocity": 111, "channel": 0}, {"type": "note_on", "time": 3, "note": 69, "velocity": 111, "channel": 0}, {"type": "note_off", "time": 72, "note": 69, "velocity": 111, "channel": 0}, {"type": "note_on", "time": 6, "note": 68, "velocity": 112, "channel": 0}, {"type": "note_off", "time": 88, "note": 68, "velocity": 112, "channel": 0}, {"type": "note_on", "time": 69, "note": 58, "velocity": 98, "channel": 0}, {"type": "note_off", "time": 66, "note": 58, "velocity": 98, "channel": 0}, {"type": "note_on", "time": 582, "note": 63, "velocity": 112, "channel": 0}, {"type": "note_off", "time": 110, "note": 63, "velocity": 112, "channel": 0}, {"type": "note_on", "time": 0, "note": 66, "velocity": 110, "channel": 0}, {"type": "note_off", "time": 116, "note": 66, "velocity": 110, "channel": 0}, {"type": "note_on", "time": 188, "note": 69, "velocity": 122, "channel": 0}, {"type": "note_off", "time": 94, "note": 69, "velocity": 122, "channel": 0}, {"type": "note_on", "time": 0, "note": 66, "velocity": 113, "channel": 0}, {"type": "note_off", "time": 94, "note": 66, "velocity": 113, "channel": 0}, {"type": "note_on", "time": 0, "note": 62, "velocity": 111, "channel": 0}, {"type": "note_off", "time": 110, "note": 62, "velocity": 111, "channel": 0}, {"type": "note_on", "time": 6, "note": 61, "velocity": 105, "channel": 0}, {"type": "note_off", "time": 72, "note": 61, "velocity": 105, "channel": 0}, {"type": "note_on", "time": 12, "note": 64, "velocity": 107, "channel": 0}, {"type": "note_off", "time": 185, "note": 64, "velocity": 107, "channel": 0}, {"type": "note_on", "time": 0, "note": 58, "velocity": 99, "channel": 0}, {"type": "note_off", "time": 107, "note": 58, "velocity": 99, "channel": 0}, {"type": "note_on", "time": 3, "note": 61, "velocity": 100, "channel": 0}, {"type": "note_off", "time": 88, "note": 61, "velocity": 100, "channel": 0}, {"type": "note_on", "time": 336, "note": 58, "velocity": 108, "channel": 0}, {"type": "note_off", "time": 88, "note": 58, "velocity": 108, "channel": 0}, {"type": "note_on", "time": 6, "note": 54, "velocity": 110, "channel": 0}, {"type": "note_off", "time": 97, "note": 54, "velocity": 110, "channel": 0}, {"type": "note_on", "time": 3, "note": 56, "velocity": 110, "channel": 0}, {"type": "note_off", "time": 75, "note": 56, "velocity": 110, "channel": 0}, {"type": "note_on", "time": 59, "note": 58, "velocity": 103, "channel": 0}, {"type": "note_off", "time": 97, "note": 58, "velocity": 103, "channel": 0}, {"type": "note_on", "time": 15, "note": 59, "velocity": 108, "channel": 0}, {"type": "note_off", "time": 88, "note": 59, "velocity": 108, "channel": 0}, {"type": "note_on", "time": 0, "note": 61, "velocity": 106, "channel": 0}, {"type": "note_off", "time": 94, "note": 61, "velocity": 106, "channel": 0}, {"type": "note_on", "time": 3, "note": 63, "velocity": 108, "channel": 0}, {"type": "note_off", "time": 113, "note": 63, "velocity": 108, "channel": 0}, {"type": "note_on", "time": 12, "note": 66, "velocity": 108, "channel": 0}, {"type": "note_off", "time": 62, "note": 66, "velocity": 108, "channel": 0}, {"type": "note_on", "time": 9, "note": 68, "velocity": 115, "channel": 0}, {"type": "note_off", "time": 132, "note": 68, "velocity": 115, "channel": 0}, {"type": "note_on", "time": 22, "note": 70, "velocity": 111, "channel": 0}, {"type": "note_off", "time": 135, "note": 70, "velocity": 111, "channel": 0}, {"type": "note_on", "time": 18, "note": 71, "velocity": 114, "channel": 0}, {"type": "note_off", "time": 97, "note": 71, "velocity": 114, "channel": 0}, {"type": "note_on", "time": 97, "note": 73, "velocity": 114, "channel": 0}, {"type": "note_off", "time": 107, "note": 73, "velocity": 114, "channel": 0}, {"type": "note_on", "time": 6, "note": 72, "velocity": 114, "channel": 0}, {"type": "note_off", "time": 91, "note": 72, "velocity": 114, "channel": 0}, {"type": "note_on", "time": 0, "note": 70, "velocity": 110, "channel": 0}, {"type": "note_off", "time": 78, "note": 70, "velocity": 110, "channel": 0}, {"type": "note_on", "time": 9, "note": 68, "velocity": 111, "channel": 0}, {"type": "note_off", "time": 103, "note": 68, "velocity": 111, "channel": 0}, {"type": "note_on", "time": 37, "note": 70, "velocity": 96, "channel": 0}, {"type": "note_off", "time": 56, "note": 70, "velocity": 96, "channel": 0}, {"type": "note_on", "time": 3, "note": 72, "velocity": 111, "channel": 0}, {"type": "note_off", "time": 116, "note": 72, "velocity": 111, "channel": 0}, {"type": "note_on", "time": 88, "note": 70, "velocity": 108, "channel": 0}, {"type": "note_off", "time": 94, "note": 70, "velocity": 108, "channel": 0}, {"type": "note_on", "time": 6, "note": 72, "velocity": 109, "channel": 0}, {"type": "note_off", "time": 66, "note": 72, "velocity": 109, "channel": 0}, {"type": "note_on", "time": 9, "note": 70, "velocity": 107, "channel": 0}, {"type": "note_off", "time": 125, "note": 70, "velocity": 107, "channel": 0}, {"type": "note_on", "time": 3, "note": 68, "velocity": 107, "channel": 0}, {"type": "note_off", "time": 75, "note": 68, "velocity": 107, "channel": 0}, {"type": "note_on", "time": 3, "note": 67, "velocity": 107, "channel": 0}, {"type": "note_off", "time": 84, "note": 67, "velocity": 107, "channel": 0}, {"type": "note_on", "time": 9, "note": 65, "velocity": 99, "channel": 0}, {"type": "note_off", "time": 78, "note": 65, "velocity": 99, "channel": 0}, {"type": "note_on", "time": 18, "note": 63, "velocity": 106, "channel": 0}, {"type": "note_off", "time": 100, "note": 63, "velocity": 106, "channel": 0}, {"type": "note_on", "time": 15, "note": 62, "velocity": 106, "channel": 0}, {"type": "note_off", "time": 75, "note": 62, "velocity": 106, "channel": 0}, {"type": "note_on", "time": 0, "note": 67, "velocity": 108, "channel": 0}, {"type": "note_off", "time": 110, "note": 67, "velocity": 108, "channel": 0}, {"type": "note_on", "time": 6, "note": 65, "velocity": 108, "channel": 0}, {"type": "note_off", "time": 66, "note": 65, "velocity": 108, "channel": 0}, {"type": "note_on", "time": 22, "note": 62, "velocity": 107, "channel": 0}, {"type": "note_off", "time": 91, "note": 62, "velocity": 107, "channel": 0}, {"type": "note_on", "time": 78, "note": 60, "velocity": 106, "channel": 0}, {"type": "note_off", "time": 110, "note": 60, "velocity": 106, "channel": 0}, {"type": "note_on", "time": 15, "note": 63, "velocity": 100, "channel": 0}, {"type": "note_off", "time": 81, "note": 63, "velocity": 100, "channel": 0}, {"type": "note_on", "time": 18, "note": 58, "velocity": 96, "channel": 0}, {"type": "note_off", "time": 119, "note": 58, "velocity": 96, "channel": 0}, {"type": "note_on", "time": 53, "note": 57, "velocity": 96, "channel": 0}, {"type": "note_off", "time": 173, "note": 57, "velocity": 96, "channel": 0}, {"type": "note_on", "time": 15, "note": 60, "velocity": 99, "channel": 0}, {"type": "note_off", "time": 97, "note": 60, "velocity": 99, "channel": 0}, {"type": "note_on", "time": 25, "note": 65, "velocity": 99, "channel": 0}, {"type": "note_off", "time": 846, "note": 65, "velocity": 99, "channel": 0}, {"type": "note_on", "time": 18, "note": 63, "velocity": 106, "channel": 0}, {"type": "note_off", "time": 91, "note": 63, "velocity": 106, "channel": 0}, {"type": "note_on", "time": 12, "note": 65, "velocity": 107, "channel": 0}, {"type": "note_off", "time": 81, "note": 65, "velocity": 107, "channel": 0}, {"type": "note_on", "time": 626, "note": 60, "velocity": 97, "channel": 0}, {"type": "note_off", "time": 100, "note": 60, "velocity": 97, "channel": 0}, {"type": "note_on", "time": 0, "note": 62, "velocity": 101, "channel": 0}, {"type": "note_off", "time": 88, "note": 62, "velocity": 101, "channel": 0}, {"type": "note_on", "time": 0, "note": 63, "velocity": 101, "channel": 0}, {"type": "note_off", "time": 100, "note": 63, "velocity": 101, "channel": 0}, {"type": "note_on", "time": 3, "note": 64, "velocity": 109, "channel": 0}, {"type": "note_off", "time": 69, "note": 64, "velocity": 109, "channel": 0}, {"type": "note_on", "time": 15, "note": 65, "velocity": 100, "channel": 0}, {"type": "note_off", "time": 97, "note": 65, "velocity": 100, "channel": 0}, {"type": "note_on", "time": 6, "note": 64, "velocity": 108, "channel": 0}, {"type": "note_off", "time": 91, "note": 64, "velocity": 108, "channel": 0}, {"type": "note_on", "time": 25, "note": 66, "velocity": 96, "channel": 0}, {"type": "note_off", "time": 135, "note": 66, "velocity": 96, "channel": 0}, {"type": "note_on", "time": 339, "note": 56, "velocity": 95, "channel": 0}, {"type": "note_off", "time": 62, "note": 56, "velocity": 95, "channel": 0}, {"type": "note_on", "time": 0, "note": 62, "velocity": 109, "channel": 0}, {"type": "note_off", "time": 113, "note": 62, "velocity": 109, "channel": 0}, {"type": "note_on", "time": 15, "note": 59, "velocity": 105, "channel": 0}, {"type": "note_off", "time": 81, "note": 59, "velocity": 105, "channel": 0}, {"type": "note_on", "time": 3, "note": 54, "velocity": 103, "channel": 0}, {"type": "note_off", "time": 88, "note": 54, "velocity": 103, "channel": 0}, {"type": "note_on", "time": 18, "note": 57, "velocity": 103, "channel": 0}, {"type": "note_off", "time": 78, "note": 57, "velocity": 103, "channel": 0}, {"type": "note_on", "time": 12, "note": 56, "velocity": 100, "channel": 0}, {"type": "note_off", "time": 75, "note": 56, "velocity": 100, "channel": 0}, {"type": "note_on", "time": 18, "note": 58, "velocity": 101, "channel": 0}, {"type": "note_off", "time": 84, "note": 58, "velocity": 101, "channel": 0}, {"type": "note_on", "time": 0, "note": 59, "velocity": 94, "channel": 0}, {"type": "note_off", "time": 88, "note": 59, "velocity": 94, "channel": 0}, {"type": "note_on", "time": 15, "note": 62, "velocity": 102, "channel": 0}, {"type": "note_off", "time": 88, "note": 62, "velocity": 102, "channel": 0}, {"type": "note_on", "time": 3, "note": 61, "velocity": 96, "channel": 0}, {"type": "note_off", "time": 125, "note": 61, "velocity": 96, "channel": 0}, {"type": "note_on", "time": 3, "note": 63, "velocity": 98, "channel": 0}, {"type": "note_off", "time": 81, "note": 63, "velocity": 98, "channel": 0}, {"type": "note_on", "time": 18, "note": 63, "velocity": 100, "channel": 0}, {"type": "note_off", "time": 78, "note": 63, "velocity": 100, "channel": 0}, {"type": "note_on", "time": 308, "note": 62, "velocity": 109, "channel": 0}, {"type": "note_off", "time": 84, "note": 62, "velocity": 109, "channel": 0}, {"type": "note_on", "time": 12, "note": 61, "velocity": 94, "channel": 0}, {"type": "note_off", "time": 81, "note": 61, "velocity": 94, "channel": 0}, {"type": "note_on", "time": 88, "note": 64, "velocity": 108, "channel": 0}, {"type": "note_off", "time": 100, "note": 64, "velocity": 108, "channel": 0}, {"type": "note_on", "time": 0, "note": 60, "velocity": 106, "channel": 0}, {"type": "note_off", "time": 66, "note": 60, "velocity": 106, "channel": 0}, {"type": "note_on", "time": 12, "note": 58, "velocity": 100, "channel": 0}, {"type": "note_off", "time": 75, "note": 58, "velocity": 100, "channel": 0}, {"type": "note_on", "time": 12, "note": 57, "velocity": 101, "channel": 0}, {"type": "note_off", "time": 88, "note": 57, "velocity": 101, "channel": 0}, {"type": "note_on", "time": 12, "note": 56, "velocity": 99, "channel": 0}, {"type": "note_off", "time": 94, "note": 56, "velocity": 99, "channel": 0}, {"type": "note_on", "time": 100, "note": 60, "velocity": 98, "channel": 0}, {"type": "note_off", "time": 72, "note": 60, "velocity": 98, "channel": 0}, {"type": "note_on", "time": 12, "note": 65, "velocity": 102, "channel": 0}, {"type": "note_off", "time": 107, "note": 65, "velocity": 102, "channel": 0}, {"type": "note_on", "time": 0, "note": 64, "velocity": 101, "channel": 0}, {"type": "note_off", "time": 66, "note": 64, "velocity": 101, "channel": 0}, {"type": "note_on", "time": 3, "note": 66, "velocity": 105, "channel": 0}, {"type": "note_off", "time": 107, "note": 66, "velocity": 105, "channel": 0}, {"type": "note_on", "time": 314, "note": 67, "velocity": 112, "channel": 0}, {"type": "note_off", "time": 94, "note": 67, "velocity": 112, "channel": 0}, {"type": "note_on", "time": 6, "note": 66, "velocity": 112, "channel": 0}, {"type": "note_off", "time": 81, "note": 66, "velocity": 112, "channel": 0}, {"type": "note_on", "time": 0, "note": 63, "velocity": 104, "channel": 0}, {"type": "note_off", "time": 110, "note": 63, "velocity": 104, "channel": 0}, {"type": "note_on", "time": 15, "note": 62, "velocity": 99, "channel": 0}, {"type": "note_off", "time": 66, "note": 62, "velocity": 99, "channel": 0}, {"type": "note_on", "time": 0, "note": 66, "velocity": 109, "channel": 0}, {"type": "note_off", "time": 81, "note": 66, "velocity": 109, "channel": 0}, {"type": "note_on", "time": 9, "note": 69, "velocity": 114, "channel": 0}, {"type": "note_off", "time": 81, "note": 69, "velocity": 114, "channel": 0}, {"type": "note_on", "time": 0, "note": 68, "velocity": 107, "channel": 0}, {"type": "note_off", "time": 116, "note": 68, "velocity": 107, "channel": 0}, {"type": "note_on", "time": 18, "note": 62, "velocity": 105, "channel": 0}, {"type": "note_off", "time": 100, "note": 62, "velocity": 105, "channel": 0}, {"type": "note_on", "time": 9, "note": 61, "velocity": 103, "channel": 0}, {"type": "note_off", "time": 78, "note": 61, "velocity": 103, "channel": 0}, {"type": "note_on", "time": 6, "note": 64, "velocity": 108, "channel": 0}, {"type": "note_off", "time": 62, "note": 64, "velocity": 108, "channel": 0}, {"type": "note_on", "time": 3, "note": 68, "velocity": 101, "channel": 0}, {"type": "note_off", "time": 107, "note": 68, "velocity": 101, "channel": 0}, {"type": "note_on", "time": 0, "note": 64, "velocity": 86, "channel": 0}, {"type": "note_off", "time": 69, "note": 64, "velocity": 86, "channel": 0}, {"type": "note_on", "time": 9, "note": 67, "velocity": 108, "channel": 0}, {"type": "note_off", "time": 100, "note": 67, "velocity": 108, "channel": 0}, {"type": "note_on", "time": 428, "note": 70, "velocity": 113, "channel": 0}, {"type": "note_off", "time": 91, "note": 70, "velocity": 113, "channel": 0}, {"type": "note_on", "time": 3, "note": 68, "velocity": 107, "channel": 0}, {"type": "note_off", "time": 91, "note": 68, "velocity": 107, "channel": 0}, {"type": "note_on", "time": 6, "note": 67, "velocity": 111, "channel": 0}, {"type": "note_off", "time": 69, "note": 67, "velocity": 111, "channel": 0}, {"type": "note_on", "time": 88, "note": 63, "velocity": 105, "channel": 0}, {"type": "note_off", "time": 78, "note": 63, "velocity": 105, "channel": 0}, {"type": "note_on", "time": 6, "note": 62, "velocity": 102, "channel": 0}, {"type": "note_off", "time": 81, "note": 62, "velocity": 102, "channel": 0}, {"type": "note_on", "time": 0, "note": 61, "velocity": 100, "channel": 0}, {"type": "note_off", "time": 81, "note": 61, "velocity": 100, "channel": 0}, {"type": "note_on", "time": 0, "note": 64, "velocity": 114, "channel": 0}, {"type": "note_off", "time": 88, "note": 64, "velocity": 114, "channel": 0}, {"type": "note_on", "time": 34, "note": 68, "velocity": 104, "channel": 0}, {"type": "note_off", "time": 59, "note": 68, "velocity": 104, "channel": 0}, {"type": "note_on", "time": 3, "note": 64, "velocity": 103, "channel": 0}, {"type": "note_off", "time": 125, "note": 64, "velocity": 103, "channel": 0}, {"type": "note_on", "time": 0, "note": 63, "velocity": 99, "channel": 0}, {"type": "note_off", "time": 125, "note": 63, "velocity": 99, "channel": 0}, {"type": "note_on", "time": 355, "note": 62, "velocity": 112, "channel": 0}, {"type": "note_off", "time": 100, "note": 62, "velocity": 112, "channel": 0}, {"type": "note_on", "time": 22, "note": 61, "velocity": 110, "channel": 0}, {"type": "note_off", "time": 84, "note": 61, "velocity": 110, "channel": 0}, {"type": "note_on", "time": 75, "note": 63, "velocity": 107, "channel": 0}, {"type": "note_off", "time": 100, "note": 63, "velocity": 107, "channel": 0}, {"type": "note_on", "time": 0, "note": 60, "velocity": 107, "channel": 0}, {"type": "note_off", "time": 81, "note": 60, "velocity": 107, "channel": 0}, {"type": "note_on", "time": 6, "note": 58, "velocity": 98, "channel": 0}, {"type": "note_off", "time": 100, "note": 58, "velocity": 98, "channel": 0}, {"type": "note_on", "time": 28, "note": 58, "velocity": 94, "channel": 0}, {"type": "note_off", "time": 84, "note": 58, "velocity": 94, "channel": 0}, {"type": "note_on", "time": 0, "note": 57, "velocity": 97, "channel": 0}, {"type": "note_off", "time": 84, "note": 57, "velocity": 97, "channel": 0}, {"type": "note_on", "time": 25, "note": 56, "velocity": 101, "channel": 0}, {"type": "note_off", "time": 72, "note": 56, "velocity": 101, "channel": 0}, {"type": "note_on", "time": 0, "note": 57, "velocity": 96, "channel": 0}, {"type": "note_off", "time": 59, "note": 57, "velocity": 96, "channel": 0}, {"type": "note_on", "time": 12, "note": 58, "velocity": 102, "channel": 0}, {"type": "note_off", "time": 75, "note": 58, "velocity": 102, "channel": 0}, {"type": "note_on", "time": 236, "note": 58, "velocity": 103, "channel": 0}, {"type": "note_off", "time": 97, "note": 58, "velocity": 103, "channel": 0}, {"type": "note_on", "time": 3, "note": 57, "velocity": 101, "channel": 0}, {"type": "note_off", "time": 69, "note": 57, "velocity": 101, "channel": 0}, {"type": "note_on", "time": 232, "note": 58, "velocity": 104, "channel": 0}, {"type": "note_off", "time": 91, "note": 58, "velocity": 104, "channel": 0}, {"type": "note_on", "time": 15, "note": 56, "velocity": 99, "channel": 0}, {"type": "note_off", "time": 94, "note": 56, "velocity": 99, "channel": 0}, {"type": "note_on", "time": 188, "note": 60, "velocity": 112, "channel": 0}, {"type": "note_off", "time": 97, "note": 60, "velocity": 112, "channel": 0}, {"type": "note_on", "time": 0, "note": 59, "velocity": 98, "channel": 0}, {"type": "note_off", "time": 88, "note": 59, "velocity": 98, "channel": 0}, {"type": "note_on", "time": 12, "note": 55, "velocity": 104, "channel": 0}, {"type": "note_off", "time": 78, "note": 55, "velocity": 104, "channel": 0}, {"type": "note_on", "time": 6, "note": 62, "velocity": 96, "channel": 0}, {"type": "note_off", "time": 84, "note": 62, "velocity": 96, "channel": 0}, {"type": "note_on", "time": 214, "note": 62, "velocity": 108, "channel": 0}, {"type": "note_off", "time": 78, "note": 62, "velocity": 108, "channel": 0}, {"type": "note_on", "time": 37, "note": 62, "velocity": 115, "channel": 0}, {"type": "note_off", "time": 62, "note": 62, "velocity": 115, "channel": 0}, {"type": "note_on", "time": 18, "note": 57, "velocity": 103, "channel": 0}, {"type": "note_off", "time": 59, "note": 57, "velocity": 103, "channel": 0}, {"type": "note_on", "time": 9, "note": 58, "velocity": 98, "channel": 0}, {"type": "note_off", "time": 72, "note": 58, "velocity": 98, "channel": 0}, {"type": "note_on", "time": 15, "note": 62, "velocity": 107, "channel": 0}, {"type": "note_off", "time": 91, "note": 62, "velocity": 107, "channel": 0}, {"type": "note_on", "time": 6, "note": 61, "velocity": 104, "channel": 0}, {"type": "note_off", "time": 84, "note": 61, "velocity": 104, "channel": 0}, {"type": "note_on", "time": 9, "note": 63, "velocity": 106, "channel": 0}, {"type": "note_off", "time": 88, "note": 63, "velocity": 106, "channel": 0}, {"type": "note_on", "time": 9, "note": 59, "velocity": 102, "channel": 0}, {"type": "note_off", "time": 88, "note": 59, "velocity": 102, "channel": 0}, {"type": "note_on", "time": 30, "note": 56, "velocity": 105, "channel": 0}, {"type": "note_off", "time": 74, "note": 56, "velocity": 105, "channel": 0}, {"type": "note_on", "time": 1, "note": 58, "velocity": 106, "channel": 0}, {"type": "note_off", "time": 75, "note": 58, "velocity": 106, "channel": 0}, {"type": "note_on", "time": 9, "note": 57, "velocity": 98, "channel": 0}, {"type": "note_off", "time": 62, "note": 57, "velocity": 98, "channel": 0}, {"type": "note_on", "time": 18, "note": 56, "velocity": 104, "channel": 0}, {"type": "note_off", "time": 88, "note": 56, "velocity": 104, "channel": 0}, {"type": "note_on", "time": 18, "note": 57, "velocity": 103, "channel": 0}, {"type": "note_off", "time": 84, "note": 57, "velocity": 103, "channel": 0}, {"type": "note_on", "time": 15, "note": 59, "velocity": 96, "channel": 0}, {"type": "note_off", "time": 66, "note": 59, "velocity": 96, "channel": 0}, {"type": "note_on", "time": 31, "note": 67, "velocity": 112, "channel": 0}, {"type": "note_off", "time": 62, "note": 67, "velocity": 112, "channel": 0}, {"type": "note_on", "time": 31, "note": 62, "velocity": 106, "channel": 0}, {"type": "note_off", "time": 88, "note": 62, "velocity": 106, "channel": 0}, {"type": "note_on", "time": 9, "note": 59, "velocity": 95, "channel": 0}, {"type": "note_off", "time": 56, "note": 59, "velocity": 95, "channel": 0}, {"type": "note_on", "time": 3, "note": 64, "velocity": 115, "channel": 0}, {"type": "note_off", "time": 122, "note": 64, "velocity": 115, "channel": 0}, {"type": "note_on", "time": 88, "note": 68, "velocity": 115, "channel": 0}, {"type": "note_off", "time": 94, "note": 68, "velocity": 115, "channel": 0}, {"type": "note_on", "time": 39, "note": 70, "velocity": 101, "channel": 0}, {"type": "note_off", "time": 72, "note": 70, "velocity": 101, "channel": 0}, {"type": "note_on", "time": 7, "note": 71, "velocity": 114, "channel": 0}, {"type": "note_off", "time": 69, "note": 71, "velocity": 114, "channel": 0}, {"type": "note_on", "time": 34, "note": 74, "velocity": 118, "channel": 0}, {"type": "note_off", "time": 78, "note": 74, "velocity": 118, "channel": 0}, {"type": "note_on", "time": 0, "note": 72, "velocity": 94, "channel": 0}, {"type": "note_off", "time": 66, "note": 72, "velocity": 94, "channel": 0}, {"type": "note_on", "time": 28, "note": 67, "velocity": 102, "channel": 0}, {"type": "note_off", "time": 110, "note": 67, "velocity": 102, "channel": 0}, {"type": "note_on", "time": 9, "note": 64, "velocity": 108, "channel": 0}, {"type": "note_off", "time": 113, "note": 64, "velocity": 108, "channel": 0}, {"type": "note_on", "time": 66, "note": 54, "velocity": 102, "channel": 0}, {"type": "note_off", "time": 72, "note": 54, "velocity": 102, "channel": 0}, {"type": "note_on", "time": 295, "note": 63, "velocity": 109, "channel": 0}, {"type": "note_off", "time": 119, "note": 63, "velocity": 109, "channel": 0}, {"type": "note_on", "time": 12, "note": 64, "velocity": 116, "channel": 0}, {"type": "note_off", "time": 81, "note": 64, "velocity": 116, "channel": 0}, {"type": "note_on", "time": 15, "note": 66, "velocity": 100, "channel": 0}, {"type": "note_off", "time": 81, "note": 66, "velocity": 100, "channel": 0}, {"type": "note_on", "time": 6, "note": 63, "velocity": 10, "channel": 0}, {"type": "note_off", "time": 91, "note": 63, "velocity": 10, "channel": 0}, {"type": "note_on", "time": 6, "note": 62, "velocity": 102, "channel": 0}, {"type": "note_off", "time": 81, "note": 62, "velocity": 102, "channel": 0}, {"type": "note_on", "time": 6, "note": 66, "velocity": 110, "channel": 0}, {"type": "note_off", "time": 100, "note": 66, "velocity": 110, "channel": 0}, {"type": "note_on", "time": 0, "note": 69, "velocity": 108, "channel": 0}, {"type": "note_off", "time": 78, "note": 69, "velocity": 108, "channel": 0}, {"type": "note_on", "time": 18, "note": 72, "velocity": 103, "channel": 0}, {"type": "note_off", "time": 72, "note": 72, "velocity": 103, "channel": 0}, {"type": "note_on", "time": 0, "note": 61, "velocity": 106, "channel": 0}, {"type": "note_off", "time": 97, "note": 61, "velocity": 106, "channel": 0}, {"type": "note_on", "time": 25, "note": 64, "velocity": 116, "channel": 0}, {"type": "note_off", "time": 78, "note": 64, "velocity": 116, "channel": 0}, {"type": "note_on", "time": 0, "note": 69, "velocity": 104, "channel": 0}, {"type": "note_off", "time": 81, "note": 69, "velocity": 104, "channel": 0}, {"type": "note_on", "time": 12, "note": 61, "velocity": 80, "channel": 0}, {"type": "note_off", "time": 72, "note": 61, "velocity": 80, "channel": 0}, {"type": "note_on", "time": 34, "note": 58, "velocity": 94, "channel": 0}, {"type": "note_off", "time": 107, "note": 58, "velocity": 94, "channel": 0}, {"type": "note_on", "time": 9, "note": 57, "velocity": 92, "channel": 0}, {"type": "note_off", "time": 69, "note": 57, "velocity": 92, "channel": 0}, {"type": "note_on", "time": 157, "note": 67, "velocity": 103, "channel": 0}, {"type": "note_off", "time": 75, "note": 67, "velocity": 103, "channel": 0}, {"type": "note_on", "time": 15, "note": 64, "velocity": 111, "channel": 0}, {"type": "note_off", "time": 66, "note": 64, "velocity": 111, "channel": 0}, {"type": "note_on", "time": 195, "note": 75, "velocity": 116, "channel": 0}, {"type": "note_off", "time": 56, "note": 75, "velocity": 116, "channel": 0}, {"type": "note_on", "time": 28, "note": 70, "velocity": 111, "channel": 0}, {"type": "note_off", "time": 81, "note": 70, "velocity": 111, "channel": 0}, {"type": "note_on", "time": 18, "note": 65, "velocity": 111, "channel": 0}, {"type": "note_off", "time": 78, "note": 65, "velocity": 111, "channel": 0}, {"type": "note_on", "time": 12, "note": 66, "velocity": 112, "channel": 0}, {"type": "note_off", "time": 72, "note": 66, "velocity": 112, "channel": 0}, {"type": "note_on", "time": 22, "note": 69, "velocity": 111, "channel": 0}, {"type": "note_off", "time": 84, "note": 69, "velocity": 111, "channel": 0}, {"type": "note_on", "time": 9, "note": 71, "velocity": 86, "channel": 0}, {"type": "note_off", "time": 94, "note": 71, "velocity": 86, "channel": 0}, {"type": "note_on", "time": 0, "note": 74, "velocity": 117, "channel": 0}, {"type": "note_off", "time": 97, "note": 74, "velocity": 117, "channel": 0}, {"type": "note_on", "time": 3, "note": 75, "velocity": 121, "channel": 0}, {"type": "note_off", "time": 97, "note": 75, "velocity": 121, "channel": 0}, {"type": "note_on", "time": 0, "note": 72, "velocity": 116, "channel": 0}, {"type": "note_off", "time": 84, "note": 72, "velocity": 116, "channel": 0}, {"type": "note_on", "time": 0, "note": 70, "velocity": 105, "channel": 0}, {"type": "note_off", "time": 75, "note": 70, "velocity": 105, "channel": 0}, {"type": "note_on", "time": 0, "note": 66, "velocity": 105, "channel": 0}, {"type": "note_off", "time": 72, "note": 66, "velocity": 105, "channel": 0}, {"type": "note_on", "time": 15, "note": 70, "velocity": 111, "channel": 0}, {"type": "note_off", "time": 110, "note": 70, "velocity": 111, "channel": 0}, {"type": "note_on", "time": 311, "note": 69, "velocity": 117, "channel": 0}, {"type": "note_off", "time": 97, "note": 69, "velocity": 117, "channel": 0}, {"type": "note_on", "time": 0, "note": 65, "velocity": 112, "channel": 0}, {"type": "note_off", "time": 84, "note": 65, "velocity": 112, "channel": 0}, {"type": "note_on", "time": 3, "note": 63, "velocity": 109, "channel": 0}, {"type": "note_on", "time": 62, "note": 60, "velocity": 106, "channel": 0}, {"type": "note_off", "time": 0, "note": 63, "velocity": 109, "channel": 0}, {"type": "note_off", "time": 78, "note": 60, "velocity": 106, "channel": 0}, {"type": "note_on", "time": 15, "note": 67, "velocity": 111, "channel": 0}, {"type": "note_off", "time": 94, "note": 67, "velocity": 111, "channel": 0}, {"type": "note_on", "time": 497, "note": 62, "velocity": 102, "channel": 0}, {"type": "note_off", "time": 138, "note": 62, "velocity": 102, "channel": 0}, {"type": "note_on", "time": 188, "note": 65, "velocity": 116, "channel": 0}, {"type": "note_off", "time": 72, "note": 65, "velocity": 116, "channel": 0}, {"type": "note_on", "time": 9, "note": 66, "velocity": 116, "channel": 0}, {"type": "note_off", "time": 78, "note": 66, "velocity": 116, "channel": 0}, {"type": "note_on", "time": 12, "note": 63, "velocity": 113, "channel": 0}, {"type": "note_off", "time": 69, "note": 63, "velocity": 113, "channel": 0}, {"type": "note_on", "time": 15, "note": 58, "velocity": 98, "channel": 0}, {"type": "note_off", "time": 110, "note": 58, "velocity": 98, "channel": 0}, {"type": "note_on", "time": 69, "note": 66, "velocity": 114, "channel": 0}, {"type": "note_off", "time": 97, "note": 66, "velocity": 114, "channel": 0}, {"type": "note_on", "time": 31, "note": 69, "velocity": 106, "channel": 0}, {"type": "note_off", "time": 53, "note": 69, "velocity": 106, "channel": 0}, {"type": "note_on", "time": 15, "note": 65, "velocity": 114, "channel": 0}, {"type": "note_off", "time": 103, "note": 65, "velocity": 114, "channel": 0}, {"type": "note_on", "time": 12, "note": 64, "velocity": 108, "channel": 0}, {"type": "note_off", "time": 75, "note": 64, "velocity": 108, "channel": 0}, {"type": "note_on", "time": 0, "note": 66, "velocity": 111, "channel": 0}, {"type": "note_off", "time": 188, "note": 66, "velocity": 111, "channel": 0}, {"type": "note_on", "time": 15, "note": 68, "velocity": 112, "channel": 0}, {"type": "note_off", "time": 100, "note": 68, "velocity": 112, "channel": 0}, {"type": "note_on", "time": 12, "note": 64, "velocity": 116, "channel": 0}, {"type": "note_off", "time": 47, "note": 64, "velocity": 116, "channel": 0}, {"type": "note_on", "time": 9, "note": 65, "velocity": 98, "channel": 0}, {"type": "note_off", "time": 91, "note": 65, "velocity": 98, "channel": 0}, {"type": "note_on", "time": 44, "note": 64, "velocity": 106, "channel": 0}, {"type": "note_on", "time": 84, "note": 66, "velocity": 110, "channel": 0}, {"type": "note_off", "time": 0, "note": 64, "velocity": 106, "channel": 0}, {"type": "note_off", "time": 66, "note": 66, "velocity": 110, "channel": 0}, {"type": "note_on", "time": 18, "note": 67, "velocity": 84, "channel": 0}, {"type": "note_off", "time": 62, "note": 67, "velocity": 84, "channel": 0}, {"type": "note_on", "time": 217, "note": 64, "velocity": 108, "channel": 0}, {"type": "note_off", "time": 232, "note": 64, "velocity": 108, "channel": 0}, {"type": "note_on", "time": 62, "note": 65, "velocity": 110, "channel": 0}, {"type": "note_off", "time": 113, "note": 65, "velocity": 110, "channel": 0}, {"type": "note_on", "time": 56, "note": 64, "velocity": 104, "channel": 0}, {"type": "note_off", "time": 110, "note": 64, "velocity": 104, "channel": 0}, {"type": "note_on", "time": 0, "note": 68, "velocity": 118, "channel": 0}, {"type": "note_on", "time": 110, "note": 67, "velocity": 111, "channel": 0}, {"type": "note_off", "time": 0, "note": 68, "velocity": 118, "channel": 0}, {"type": "note_off", "time": 88, "note": 67, "velocity": 111, "channel": 0}, {"type": "note_on", "time": 9, "note": 63, "velocity": 113, "channel": 0}, {"type": "note_off", "time": 66, "note": 63, "velocity": 113, "channel": 0}, {"type": "note_on", "time": 9, "note": 62, "velocity": 103, "channel": 0}, {"type": "note_off", "time": 91, "note": 62, "velocity": 103, "channel": 0}, {"type": "note_on", "time": 9, "note": 65, "velocity": 112, "channel": 0}, {"type": "note_on", "time": 116, "note": 67, "velocity": 106, "channel": 0}, {"type": "note_off", "time": 0, "note": 65, "velocity": 112, "channel": 0}, {"type": "note_off", "time": 100, "note": 67, "velocity": 106, "channel": 0}, {"type": "note_on", "time": 75, "note": 72, "velocity": 118, "channel": 0}, {"type": "note_off", "time": 103, "note": 72, "velocity": 118, "channel": 0}, {"type": "note_on", "time": 3, "note": 70, "velocity": 117, "channel": 0}, {"type": "note_off", "time": 91, "note": 70, "velocity": 117, "channel": 0}, {"type": "note_on", "time": 3, "note": 67, "velocity": 108, "channel": 0}, {"type": "note_off", "time": 94, "note": 67, "velocity": 108, "channel": 0}, {"type": "note_on", "time": 3, "note": 62, "velocity": 107, "channel": 0}, {"type": "note_off", "time": 91, "note": 62, "velocity": 107, "channel": 0}, {"type": "note_on", "time": 18, "note": 60, "velocity": 96, "channel": 0}, {"type": "note_off", "time": 81, "note": 60, "velocity": 96, "channel": 0}, {"type": "note_on", "time": 3, "note": 67, "velocity": 107, "channel": 0}, {"type": "note_off", "time": 110, "note": 67, "velocity": 107, "channel": 0}, {"type": "note_on", "time": 475, "note": 72, "velocity": 98, "channel": 0}, {"type": "note_off", "time": 103, "note": 72, "velocity": 98, "channel": 0}, {"type": "note_on", "time": 6, "note": 74, "velocity": 104, "channel": 0}, {"type": "note_off", "time": 66, "note": 74, "velocity": 104, "channel": 0}, {"type": "note_on", "time": 12, "note": 75, "velocity": 117, "channel": 0}, {"type": "note_off", "time": 75, "note": 75, "velocity": 117, "channel": 0}, {"type": "note_on", "time": 6, "note": 76, "velocity": 119, "channel": 0}, {"type": "note_off", "time": 88, "note": 76, "velocity": 119, "channel": 0}, {"type": "note_on", "time": 18, "note": 77, "velocity": 124, "channel": 0}, {"type": "note_off", "time": 84, "note": 77, "velocity": 124, "channel": 0}, {"type": "note_on", "time": 12, "note": 76, "velocity": 120, "channel": 0}, {"type": "note_off", "time": 56, "note": 76, "velocity": 120, "channel": 0}, {"type": "note_on", "time": 3, "note": 73, "velocity": 117, "channel": 0}, {"type": "note_on", "time": 110, "note": 71, "velocity": 92, "channel": 0}, {"type": "note_off", "time": 0, "note": 73, "velocity": 117, "channel": 0}, {"type": "note_off", "time": 94, "note": 71, "velocity": 92, "channel": 0}, {"type": "note_on", "time": 0, "note": 75, "velocity": 120, "channel": 0}, {"type": "note_off", "time": 132, "note": 75, "velocity": 120, "channel": 0}, {"type": "note_on", "time": 245, "note": 74, "velocity": 120, "channel": 0}, {"type": "note_off", "time": 125, "note": 74, "velocity": 120, "channel": 0}, {"type": "note_on", "time": 9, "note": 69, "velocity": 99, "channel": 0}, {"type": "note_off", "time": 78, "note": 69, "velocity": 99, "channel": 0}, {"type": "note_on", "time": 3, "note": 70, "velocity": 115, "channel": 0}, {"type": "note_off", "time": 72, "note": 70, "velocity": 115, "channel": 0}, {"type": "note_on", "time": 12, "note": 74, "velocity": 114, "channel": 0}, {"type": "note_off", "time": 129, "note": 74, "velocity": 114, "channel": 0}, {"type": "note_on", "time": 62, "note": 71, "velocity": 107, "channel": 0}, {"type": "note_off", "time": 91, "note": 71, "velocity": 107, "channel": 0}, {"type": "note_on", "time": 9, "note": 70, "velocity": 112, "channel": 0}, {"type": "note_off", "time": 97, "note": 70, "velocity": 112, "channel": 0}, {"type": "note_on", "time": 12, "note": 69, "velocity": 111, "channel": 0}, {"type": "note_off", "time": 69, "note": 69, "velocity": 111, "channel": 0}, {"type": "note_on", "time": 6, "note": 68, "velocity": 114, "channel": 0}, {"type": "note_off", "time": 78, "note": 68, "velocity": 114, "channel": 0}, {"type": "note_on", "time": 9, "note": 70, "velocity": 107, "channel": 0}, {"type": "note_off", "time": 100, "note": 70, "velocity": 107, "channel": 0}, {"type": "note_on", "time": 0, "note": 71, "velocity": 101, "channel": 0}, {"type": "note_off", "time": 91, "note": 71, "velocity": 101, "channel": 0}, {"type": "note_on", "time": 6, "note": 70, "velocity": 114, "channel": 0}, {"type": "note_off", "time": 91, "note": 70, "velocity": 114, "channel": 0}, {"type": "note_on", "time": 22, "note": 67, "velocity": 110, "channel": 0}, {"type": "note_off", "time": 84, "note": 67, "velocity": 110, "channel": 0}, {"type": "note_on", "time": 11, "note": 63, "velocity": 112, "channel": 0}, {"type": "note_off", "time": 76, "note": 63, "velocity": 112, "channel": 0}, {"type": "note_on", "time": 4, "note": 60, "velocity": 108, "channel": 0}, {"type": "note_off", "time": 109, "note": 60, "velocity": 108, "channel": 0}, {"type": "note_on", "time": 85, "note": 69, "velocity": 121, "channel": 0}, {"type": "note_off", "time": 87, "note": 69, "velocity": 121, "channel": 0}, {"type": "note_on", "time": 17, "note": 65, "velocity": 114, "channel": 0}, {"type": "note_off", "time": 71, "note": 65, "velocity": 114, "channel": 0}, {"type": "note_on", "time": 2, "note": 62, "velocity": 104, "channel": 0}, {"type": "note_off", "time": 129, "note": 62, "velocity": 104, "channel": 0}, {"type": "note_on", "time": 49, "note": 60, "velocity": 108, "channel": 0}, {"type": "note_off", "time": 105, "note": 60, "velocity": 108, "channel": 0}, {"type": "note_on", "time": 89, "note": 67, "velocity": 113, "channel": 0}, {"type": "note_off", "time": 89, "note": 67, "velocity": 113, "channel": 0}, {"type": "note_on", "time": 20, "note": 72, "velocity": 107, "channel": 0}, {"type": "note_off", "time": 85, "note": 72, "velocity": 107, "channel": 0}, {"type": "note_on", "time": 6, "note": 70, "velocity": 111, "channel": 0}, {"type": "note_off", "time": 102, "note": 70, "velocity": 111, "channel": 0}, {"type": "note_on", "time": 935, "note": 72, "velocity": 118, "channel": 0}, {"type": "note_off", "time": 96, "note": 72, "velocity": 118, "channel": 0}, {"type": "note_on", "time": 11, "note": 70, "velocity": 112, "channel": 0}, {"type": "note_off", "time": 105, "note": 70, "velocity": 112, "channel": 0}, {"type": "note_on", "time": 85, "note": 71, "velocity": 118, "channel": 0}, {"type": "note_off", "time": 105, "note": 71, "velocity": 118, "channel": 0}, {"type": "note_on", "time": 15, "note": 75, "velocity": 112, "channel": 0}, {"type": "note_off", "time": 67, "note": 75, "velocity": 112, "channel": 0}, {"type": "note_on", "time": 35, "note": 70, "velocity": 105, "channel": 0}, {"type": "note_off", "time": 76, "note": 70, "velocity": 105, "channel": 0}, {"type": "note_on", "time": 2, "note": 69, "velocity": 109, "channel": 0}, {"type": "note_off", "time": 82, "note": 69, "velocity": 109, "channel": 0}, {"type": "note_on", "time": 8, "note": 68, "velocity": 110, "channel": 0}, {"type": "note_off", "time": 80, "note": 68, "velocity": 110, "channel": 0}, {"type": "note_on", "time": 15, "note": 70, "velocity": 116, "channel": 0}, {"type": "note_off", "time": 82, "note": 70, "velocity": 116, "channel": 0}, {"type": "note_on", "time": 6, "note": 71, "velocity": 92, "channel": 0}, {"type": "note_off", "time": 100, "note": 71, "velocity": 92, "channel": 0}, {"type": "note_on", "time": 6, "note": 70, "velocity": 114, "channel": 0}, {"type": "note_off", "time": 87, "note": 70, "velocity": 114, "channel": 0}, {"type": "note_on", "time": 4, "note": 69, "velocity": 118, "channel": 0}, {"type": "note_off", "time": 100, "note": 69, "velocity": 118, "channel": 0}, {"type": "note_on", "time": 4, "note": 66, "velocity": 110, "channel": 0}, {"type": "note_off", "time": 73, "note": 66, "velocity": 110, "channel": 0}, {"type": "note_on", "time": 20, "note": 63, "velocity": 103, "channel": 0}, {"type": "note_off", "time": 67, "note": 63, "velocity": 103, "channel": 0}, {"type": "note_on", "time": 94, "note": 66, "velocity": 105, "channel": 0}, {"type": "note_off", "time": 145, "note": 66, "velocity": 105, "channel": 0}, {"type": "note_on", "time": 4, "note": 68, "velocity": 112, "channel": 0}, {"type": "note_off", "time": 154, "note": 68, "velocity": 112, "channel": 0}, {"type": "note_on", "time": 15, "note": 65, "velocity": 112, "channel": 0}, {"type": "note_off", "time": 69, "note": 65, "velocity": 112, "channel": 0}, {"type": "note_on", "time": 400, "note": 63, "velocity": 106, "channel": 0}, {"type": "note_off", "time": 335, "note": 63, "velocity": 106, "channel": 0}, {"type": "note_on", "time": 4, "note": 65, "velocity": 115, "channel": 0}, {"type": "note_off", "time": 293, "note": 65, "velocity": 115, "channel": 0}, {"type": "note_on", "time": 11, "note": 63, "velocity": 113, "channel": 0}, {"type": "note_off", "time": 87, "note": 63, "velocity": 113, "channel": 0}, {"type": "note_on", "time": 4, "note": 62, "velocity": 110, "channel": 0}, {"type": "note_off", "time": 118, "note": 62, "velocity": 110, "channel": 0}, {"type": "note_on", "time": 6, "note": 63, "velocity": 108, "channel": 0}, {"type": "note_off", "time": 78, "note": 63, "velocity": 108, "channel": 0}, {"type": "note_on", "time": 85, "note": 63, "velocity": 115, "channel": 0}, {"type": "note_off", "time": 85, "note": 63, "velocity": 115, "channel": 0}, {"type": "note_on", "time": 8, "note": 61, "velocity": 116, "channel": 0}, {"type": "note_off", "time": 165, "note": 61, "velocity": 116, "channel": 0}, {"type": "note_on", "time": 13, "note": 62, "velocity": 114, "channel": 0}, {"type": "note_off", "time": 158, "note": 62, "velocity": 114, "channel": 0}, {"type": "note_on", "time": 33, "note": 63, "velocity": 114, "channel": 0}, {"type": "note_off", "time": 293, "note": 63, "velocity": 114, "channel": 0}, {"type": "note_on", "time": 55, "note": 64, "velocity": 117, "channel": 0}, {"type": "note_off", "time": 91, "note": 64, "velocity": 117, "channel": 0}, {"type": "note_on", "time": 40, "note": 64, "velocity": 107, "channel": 0}, {"type": "note_off", "time": 64, "note": 64, "velocity": 107, "channel": 0}, {"type": "note_on", "time": 89, "note": 65, "velocity": 88, "channel": 0}, {"type": "note_off", "time": 44, "note": 65, "velocity": 88, "channel": 0}, {"type": "note_on", "time": 26, "note": 67, "velocity": 100, "channel": 0}, {"type": "note_off", "time": 58, "note": 67, "velocity": 100, "channel": 0}, {"type": "note_on", "time": 53, "note": 76, "velocity": 116, "channel": 0}, {"type": "note_off", "time": 58, "note": 76, "velocity": 116, "channel": 0}, {"type": "note_on", "time": 22, "note": 70, "velocity": 115, "channel": 0}, {"type": "note_off", "time": 85, "note": 70, "velocity": 115, "channel": 0}, {"type": "note_on", "time": 2, "note": 65, "velocity": 110, "channel": 0}, {"type": "note_off", "time": 89, "note": 65, "velocity": 110, "channel": 0}, {"type": "note_on", "time": 13, "note": 69, "velocity": 117, "channel": 0}, {"type": "note_off", "time": 78, "note": 69, "velocity": 117, "channel": 0}, {"type": "note_on", "time": 17, "note": 66, "velocity": 112, "channel": 0}, {"type": "note_off", "time": 89, "note": 66, "velocity": 112, "channel": 0}, {"type": "note_on", "time": 172, "note": 74, "velocity": 116, "channel": 0}, {"type": "note_off", "time": 114, "note": 74, "velocity": 116, "channel": 0}, {"type": "note_on", "time": 4, "note": 71, "velocity": 115, "channel": 0}, {"type": "note_off", "time": 89, "note": 71, "velocity": 115, "channel": 0}, {"type": "note_on", "time": 6, "note": 66, "velocity": 93, "channel": 0}, {"type": "note_off", "time": 40, "note": 66, "velocity": 93, "channel": 0}, {"type": "note_on", "time": 8, "note": 69, "velocity": 112, "channel": 0}, {"type": "note_off", "time": 129, "note": 69, "velocity": 112, "channel": 0}, {"type": "note_on", "time": 26, "note": 68, "velocity": 115, "channel": 0}, {"type": "note_off", "time": 107, "note": 68, "velocity": 115, "channel": 0}, {"type": "note_on", "time": 60, "note": 63, "velocity": 114, "channel": 0}, {"type": "note_off", "time": 87, "note": 63, "velocity": 114, "channel": 0}, {"type": "note_on", "time": 11, "note": 62, "velocity": 107, "channel": 0}, {"type": "note_off", "time": 85, "note": 62, "velocity": 107, "channel": 0}, {"type": "note_on", "time": 0, "note": 68, "velocity": 115, "channel": 0}, {"type": "note_off", "time": 87, "note": 68, "velocity": 115, "channel": 0}, {"type": "note_on", "time": 13, "note": 67, "velocity": 109, "channel": 0}, {"type": "note_off", "time": 73, "note": 67, "velocity": 109, "channel": 0}, {"type": "note_on", "time": 24, "note": 62, "velocity": 110, "channel": 0}, {"type": "note_off", "time": 89, "note": 62, "velocity": 110, "channel": 0}, {"type": "note_on", "time": 13, "note": 59, "velocity": 103, "channel": 0}, {"type": "note_off", "time": 78, "note": 59, "velocity": 103, "channel": 0}, {"type": "note_on", "time": 24, "note": 54, "velocity": 101, "channel": 0}, {"type": "note_off", "time": 73, "note": 54, "velocity": 101, "channel": 0}, {"type": "note_on", "time": 4, "note": 60, "velocity": 110, "channel": 0}, {"type": "note_off", "time": 78, "note": 60, "velocity": 110, "channel": 0}, {"type": "note_on", "time": 13, "note": 63, "velocity": 110, "channel": 0}, {"type": "note_off", "time": 64, "note": 63, "velocity": 110, "channel": 0}, {"type": "note_on", "time": 11, "note": 58, "velocity": 103, "channel": 0}, {"type": "note_off", "time": 85, "note": 58, "velocity": 103, "channel": 0}, {"type": "note_on", "time": 0, "note": 53, "velocity": 103, "channel": 0}, {"type": "note_off", "time": 78, "note": 53, "velocity": 103, "channel": 0}, {"type": "note_on", "time": 4, "note": 55, "velocity": 105, "channel": 0}, {"type": "note_off", "time": 107, "note": 55, "velocity": 105, "channel": 0}, {"type": "note_on", "time": 13, "note": 53, "velocity": 108, "channel": 0}, {"type": "note_off", "time": 62, "note": 53, "velocity": 108, "channel": 0}, {"type": "note_on", "time": 8, "note": 51, "velocity": 111, "channel": 0}, {"type": "note_off", "time": 69, "note": 51, "velocity": 111, "channel": 0}, {"type": "note_on", "time": 17, "note": 51, "velocity": 107, "channel": 0}, {"type": "note_off", "time": 89, "note": 51, "velocity": 107, "channel": 0}, {"type": "note_on", "time": 1582, "note": 53, "velocity": 104, "channel": 0}, {"type": "note_off", "time": 33, "note": 53, "velocity": 104, "channel": 0}, {"type": "note_on", "time": 15, "note": 55, "velocity": 110, "channel": 0}, {"type": "note_off", "time": 62, "note": 55, "velocity": 110, "channel": 0}, {"type": "note_on", "time": 217, "note": 60, "velocity": 117, "channel": 0}, {"type": "note_off", "time": 47, "note": 60, "velocity": 117, "channel": 0}, {"type": "note_on", "time": 17, "note": 58, "velocity": 109, "channel": 0}, {"type": "note_off", "time": 40, "note": 58, "velocity": 109, "channel": 0}, {"type": "note_on", "time": 16, "note": 55, "velocity": 106, "channel": 0}, {"type": "note_off", "time": 66, "note": 55, "velocity": 106, "channel": 0}, {"type": "note_on", "time": 7, "note": 53, "velocity": 114, "channel": 0}, {"type": "note_off", "time": 85, "note": 53, "velocity": 114, "channel": 0}, {"type": "note_on", "time": 0, "note": 50, "velocity": 108, "channel": 0}, {"type": "note_off", "time": 78, "note": 50, "velocity": 108, "channel": 0}, {"type": "note_on", "time": 45, "note": 58, "velocity": 104, "channel": 0}, {"type": "note_off", "time": 367, "note": 58, "velocity": 104, "channel": 0}, {"type": "note_on", "time": 26, "note": 55, "velocity": 106, "channel": 0}, {"type": "note_off", "time": 51, "note": 55, "velocity": 106, "channel": 0}, {"type": "note_on", "time": 11, "note": 53, "velocity": 105, "channel": 0}, {"type": "note_off", "time": 40, "note": 53, "velocity": 105, "channel": 0}, {"type": "note_on", "time": 6, "note": 60, "velocity": 113, "channel": 0}, {"type": "note_off", "time": 58, "note": 60, "velocity": 113, "channel": 0}, {"type": "note_on", "time": 6, "note": 59, "velocity": 112, "channel": 0}, {"type": "note_off", "time": 51, "note": 59, "velocity": 112, "channel": 0}, {"type": "note_on", "time": 6, "note": 55, "velocity": 107, "channel": 0}, {"type": "note_off", "time": 60, "note": 55, "velocity": 107, "channel": 0}, {"type": "note_on", "time": 0, "note": 53, "velocity": 107, "channel": 0}, {"type": "note_off", "time": 67, "note": 53, "velocity": 107, "channel": 0}, {"type": "note_on", "time": 0, "note": 55, "velocity": 101, "channel": 0}, {"type": "note_off", "time": 33, "note": 55, "velocity": 101, "channel": 0}, {"type": "note_on", "time": 29, "note": 62, "velocity": 110, "channel": 0}, {"type": "note_off", "time": 49, "note": 62, "velocity": 110, "channel": 0}, {"type": "note_on", "time": 0, "note": 65, "velocity": 110, "channel": 0}, {"type": "note_off", "time": 89, "note": 65, "velocity": 110, "channel": 0}, {"type": "note_on", "time": 452, "note": 63, "velocity": 118, "channel": 0}, {"type": "note_off", "time": 80, "note": 63, "velocity": 118, "channel": 0}, {"type": "note_on", "time": 8, "note": 62, "velocity": 116, "channel": 0}, {"type": "note_off", "time": 64, "note": 62, "velocity": 116, "channel": 0}, {"type": "note_on", "time": 20, "note": 61, "velocity": 109, "channel": 0}, {"type": "note_off", "time": 239, "note": 61, "velocity": 109, "channel": 0}, {"type": "note_on", "time": 26, "note": 63, "velocity": 110, "channel": 0}, {"type": "note_off", "time": 188, "note": 63, "velocity": 110, "channel": 0}, {"type": "note_on", "time": 0, "note": 69, "velocity": 105, "channel": 0}, {"type": "note_off", "time": 55, "note": 69, "velocity": 105, "channel": 0}, {"type": "note_on", "time": 8, "note": 66, "velocity": 109, "channel": 0}, {"type": "note_off", "time": 42, "note": 66, "velocity": 109, "channel": 0}, {"type": "note_on", "time": 22, "note": 63, "velocity": 103, "channel": 0}, {"type": "note_off", "time": 40, "note": 63, "velocity": 103, "channel": 0}, {"type": "note_on", "time": 24, "note": 59, "velocity": 103, "channel": 0}, {"type": "note_off", "time": 51, "note": 59, "velocity": 103, "channel": 0}, {"type": "note_on", "time": 8, "note": 63, "velocity": 106, "channel": 0}, {"type": "note_off", "time": 47, "note": 63, "velocity": 106, "channel": 0}, {"type": "note_on", "time": 4, "note": 66, "velocity": 105, "channel": 0}, {"type": "note_off", "time": 51, "note": 66, "velocity": 105, "channel": 0}, {"type": "note_on", "time": 13, "note": 69, "velocity": 102, "channel": 0}, {"type": "note_off", "time": 51, "note": 69, "velocity": 102, "channel": 0}, {"type": "note_on", "time": 4, "note": 71, "velocity": 96, "channel": 0}, {"type": "note_off", "time": 44, "note": 71, "velocity": 96, "channel": 0}, {"type": "note_on", "time": 2, "note": 73, "velocity": 103, "channel": 0}, {"type": "note_off", "time": 35, "note": 73, "velocity": 103, "channel": 0}, {"type": "note_on", "time": 11, "note": 76, "velocity": 113, "channel": 0}, {"type": "note_off", "time": 42, "note": 76, "velocity": 113, "channel": 0}, {"type": "note_on", "time": 13, "note": 80, "velocity": 94, "channel": 0}, {"type": "note_off", "time": 53, "note": 80, "velocity": 94, "channel": 0}, {"type": "note_on", "time": 445, "note": 72, "velocity": 114, "channel": 0}, {"type": "note_off", "time": 60, "note": 72, "velocity": 114, "channel": 0}, {"type": "note_on", "time": 6, "note": 71, "velocity": 115, "channel": 0}, {"type": "note_off", "time": 44, "note": 71, "velocity": 115, "channel": 0}, {"type": "note_on", "time": 0, "note": 68, "velocity": 109, "channel": 0}, {"type": "note_off", "time": 49, "note": 68, "velocity": 109, "channel": 0}, {"type": "note_on", "time": 0, "note": 64, "velocity": 113, "channel": 0}, {"type": "note_off", "time": 78, "note": 64, "velocity": 113, "channel": 0}, {"type": "note_on", "time": 0, "note": 66, "velocity": 105, "channel": 0}, {"type": "note_off", "time": 62, "note": 66, "velocity": 105, "channel": 0}, {"type": "note_on", "time": 2, "note": 68, "velocity": 105, "channel": 0}, {"type": "note_off", "time": 49, "note": 68, "velocity": 105, "channel": 0}, {"type": "note_on", "time": 2, "note": 73, "velocity": 115, "channel": 0}, {"type": "note_off", "time": 67, "note": 73, "velocity": 115, "channel": 0}, {"type": "note_on", "time": 11, "note": 68, "velocity": 110, "channel": 0}, {"type": "note_off", "time": 53, "note": 68, "velocity": 110, "channel": 0}, {"type": "note_on", "time": 152, "note": 72, "velocity": 107, "channel": 0}, {"type": "note_off", "time": 55, "note": 72, "velocity": 107, "channel": 0}, {"type": "note_on", "time": 2, "note": 71, "velocity": 117, "channel": 0}, {"type": "note_off", "time": 55, "note": 71, "velocity": 117, "channel": 0}, {"type": "note_on", "time": 2, "note": 68, "velocity": 115, "channel": 0}, {"type": "note_off", "time": 35, "note": 68, "velocity": 115, "channel": 0}, {"type": "note_on", "time": 17, "note": 66, "velocity": 113, "channel": 0}, {"type": "note_off", "time": 47, "note": 66, "velocity": 113, "channel": 0}, {"type": "note_on", "time": 4, "note": 64, "velocity": 118, "channel": 0}, {"type": "note_off", "time": 38, "note": 64, "velocity": 118, "channel": 0}, {"type": "note_on", "time": 15, "note": 59, "velocity": 105, "channel": 0}, {"type": "note_off", "time": 42, "note": 59, "velocity": 105, "channel": 0}, {"type": "note_on", "time": 11, "note": 64, "velocity": 118, "channel": 0}, {"type": "note_off", "time": 49, "note": 64, "velocity": 118, "channel": 0}, {"type": "note_on", "time": 13, "note": 66, "velocity": 100, "channel": 0}, {"type": "note_off", "time": 40, "note": 66, "velocity": 100, "channel": 0}, {"type": "note_on", "time": 11, "note": 68, "velocity": 109, "channel": 0}, {"type": "note_off", "time": 58, "note": 68, "velocity": 109, "channel": 0}, {"type": "note_on", "time": 8, "note": 69, "velocity": 118, "channel": 0}, {"type": "note_off", "time": 62, "note": 69, "velocity": 118, "channel": 0}, {"type": "note_on", "time": 0, "note": 65, "velocity": 108, "channel": 0}, {"type": "note_off", "time": 49, "note": 65, "velocity": 108, "channel": 0}, {"type": "note_on", "time": 11, "note": 63, "velocity": 111, "channel": 0}, {"type": "note_off", "time": 58, "note": 63, "velocity": 111, "channel": 0}, {"type": "note_on", "time": 6, "note": 62, "velocity": 105, "channel": 0}, {"type": "note_off", "time": 67, "note": 62, "velocity": 105, "channel": 0}, {"type": "note_on", "time": 6, "note": 64, "velocity": 109, "channel": 0}, {"type": "note_off", "time": 40, "note": 64, "velocity": 109, "channel": 0}, {"type": "note_on", "time": 13, "note": 65, "velocity": 106, "channel": 0}, {"type": "note_off", "time": 73, "note": 65, "velocity": 106, "channel": 0}, {"type": "note_on", "time": 8, "note": 66, "velocity": 114, "channel": 0}, {"type": "note_off", "time": 73, "note": 66, "velocity": 114, "channel": 0}, {"type": "note_on", "time": 0, "note": 62, "velocity": 105, "channel": 0}, {"type": "note_off", "time": 60, "note": 62, "velocity": 105, "channel": 0}, {"type": "note_on", "time": 0, "note": 59, "velocity": 100, "channel": 0}, {"type": "note_off", "time": 55, "note": 59, "velocity": 100, "channel": 0}, {"type": "note_on", "time": 6, "note": 60, "velocity": 108, "channel": 0}, {"type": "note_off", "time": 49, "note": 60, "velocity": 108, "channel": 0}, {"type": "note_on", "time": 0, "note": 62, "velocity": 106, "channel": 0}, {"type": "note_off", "time": 60, "note": 62, "velocity": 106, "channel": 0}, {"type": "note_on", "time": 11, "note": 58, "velocity": 101, "channel": 0}, {"type": "note_off", "time": 85, "note": 58, "velocity": 101, "channel": 0}, {"type": "note_on", "time": 6, "note": 56, "velocity": 106, "channel": 0}, {"type": "note_off", "time": 62, "note": 56, "velocity": 106, "channel": 0}, {"type": "note_on", "time": 15, "note": 54, "velocity": 112, "channel": 0}, {"type": "note_off", "time": 47, "note": 54, "velocity": 112, "channel": 0}, {"type": "note_on", "time": 6, "note": 53, "velocity": 104, "channel": 0}, {"type": "note_off", "time": 58, "note": 53, "velocity": 104, "channel": 0}, {"type": "note_on", "time": 2, "note": 55, "velocity": 120, "channel": 0}, {"type": "note_off", "time": 24, "note": 55, "velocity": 120, "channel": 0}, {"type": "note_on", "time": 0, "note": 60, "velocity": 116, "channel": 0}, {"type": "note_off", "time": 22, "note": 60, "velocity": 116, "channel": 0}, {"type": "note_on", "time": 0, "note": 64, "velocity": 111, "channel": 0}, {"type": "note_off", "time": 42, "note": 64, "velocity": 111, "channel": 0}, {"type": "note_on", "time": 2, "note": 66, "velocity": 118, "channel": 0}, {"type": "note_off", "time": 38, "note": 66, "velocity": 118, "channel": 0}, {"type": "note_on", "time": 129, "note": 62, "velocity": 109, "channel": 0}, {"type": "note_off", "time": 69, "note": 62, "velocity": 109, "channel": 0}, {"type": "note_on", "time": 0, "note": 61, "velocity": 112, "channel": 0}, {"type": "note_off", "time": 58, "note": 61, "velocity": 112, "channel": 0}, {"type": "note_on", "time": 11, "note": 64, "velocity": 117, "channel": 0}, {"type": "note_off", "time": 64, "note": 64, "velocity": 117, "channel": 0}, {"type": "note_on", "time": 6, "note": 69, "velocity": 111, "channel": 0}, {"type": "note_off", "time": 49, "note": 69, "velocity": 111, "channel": 0}, {"type": "note_on", "time": 0, "note": 66, "velocity": 106, "channel": 0}, {"type": "note_off", "time": 58, "note": 66, "velocity": 106, "channel": 0}, {"type": "note_on", "time": 53, "note": 61, "velocity": 111, "channel": 0}, {"type": "note_off", "time": 58, "note": 61, "velocity": 111, "channel": 0}, {"type": "note_on", "time": 7, "note": 58, "velocity": 105, "channel": 0}, {"type": "note_off", "time": 31, "note": 58, "velocity": 105, "channel": 0}, {"type": "note_on", "time": 7, "note": 53, "velocity": 99, "channel": 0}, {"type": "note_off", "time": 55, "note": 53, "velocity": 99, "channel": 0}, {"type": "note_on", "time": 0, "note": 60, "velocity": 112, "channel": 0}, {"type": "note_off", "time": 51, "note": 60, "velocity": 112, "channel": 0}, {"type": "note_on", "time": 8, "note": 62, "velocity": 106, "channel": 0}, {"type": "note_off", "time": 53, "note": 62, "velocity": 106, "channel": 0}, {"type": "note_on", "time": 26, "note": 58, "velocity": 100, "channel": 0}, {"type": "note_off", "time": 38, "note": 58, "velocity": 100, "channel": 0}, {"type": "note_on", "time": 4, "note": 55, "velocity": 100, "channel": 0}, {"type": "note_off", "time": 60, "note": 55, "velocity": 100, "channel": 0}, {"type": "note_on", "time": 8, "note": 57, "velocity": 108, "channel": 0}, {"type": "note_off", "time": 78, "note": 57, "velocity": 108, "channel": 0}, {"type": "note_on", "time": 8, "note": 55, "velocity": 100, "channel": 0}, {"type": "note_off", "time": 71, "note": 55, "velocity": 100, "channel": 0}, {"type": "note_on", "time": 35, "note": 62, "velocity": 109, "channel": 0}, {"type": "note_off", "time": 42, "note": 62, "velocity": 109, "channel": 0}, {"type": "note_on", "time": 17, "note": 67, "velocity": 99, "channel": 0}, {"type": "note_off", "time": 60, "note": 67, "velocity": 99, "channel": 0}, {"type": "note_on", "time": 243, "note": 62, "velocity": 108, "channel": 0}, {"type": "note_off", "time": 62, "note": 62, "velocity": 108, "channel": 0}, {"type": "note_on", "time": 4, "note": 61, "velocity": 102, "channel": 0}, {"type": "note_off", "time": 58, "note": 61, "velocity": 102, "channel": 0}, {"type": "note_on", "time": 0, "note": 63, "velocity": 107, "channel": 0}, {"type": "note_off", "time": 26, "note": 63, "velocity": 107, "channel": 0}, {"type": "note_on", "time": 22, "note": 66, "velocity": 99, "channel": 0}, {"type": "note_off", "time": 17, "note": 66, "velocity": 99, "channel": 0}, {"type": "note_on", "time": 8, "note": 69, "velocity": 99, "channel": 0}, {"type": "note_off", "time": 24, "note": 69, "velocity": 99, "channel": 0}, {"type": "note_on", "time": 20, "note": 71, "velocity": 105, "channel": 0}, {"type": "note_off", "time": 31, "note": 71, "velocity": 105, "channel": 0}, {"type": "note_on", "time": 0, "note": 73, "velocity": 99, "channel": 0}, {"type": "note_off", "time": 40, "note": 73, "velocity": 99, "channel": 0}, {"type": "note_on", "time": 0, "note": 76, "velocity": 118, "channel": 0}, {"type": "note_off", "time": 17, "note": 76, "velocity": 118, "channel": 0}, {"type": "note_on", "time": 20, "note": 79, "velocity": 118, "channel": 0}, {"type": "note_off", "time": 64, "note": 79, "velocity": 118, "channel": 0}, {"type": "note_on", "time": 752, "note": 75, "velocity": 119, "channel": 0}, {"type": "note_off", "time": 120, "note": 75, "velocity": 119, "channel": 0}, {"type": "note_on", "time": 633, "note": 73, "velocity": 118, "channel": 0}, {"type": "note_off", "time": 71, "note": 73, "velocity": 118, "channel": 0}, {"type": "note_on", "time": 20, "note": 75, "velocity": 116, "channel": 0}, {"type": "note_off", "time": 71, "note": 75, "velocity": 116, "channel": 0}, {"type": "note_on", "time": 660, "note": 73, "velocity": 118, "channel": 0}, {"type": "note_off", "time": 107, "note": 73, "velocity": 118, "channel": 0}, {"type": "note_on", "time": 6, "note": 71, "velocity": 101, "channel": 0}, {"type": "note_off", "time": 58, "note": 71, "velocity": 101, "channel": 0}, {"type": "note_on", "time": 11, "note": 72, "velocity": 117, "channel": 0}, {"type": "note_off", "time": 82, "note": 72, "velocity": 117, "channel": 0}, {"type": "note_on", "time": 53, "note": 75, "velocity": 117, "channel": 0}, {"type": "note_off", "time": 49, "note": 75, "velocity": 117, "channel": 0}, {"type": "note_on", "time": 17, "note": 70, "velocity": 113, "channel": 0}, {"type": "note_off", "time": 100, "note": 70, "velocity": 113, "channel": 0}, {"type": "note_on", "time": 6, "note": 69, "velocity": 100, "channel": 0}, {"type": "note_off", "time": 69, "note": 69, "velocity": 100, "channel": 0}, {"type": "note_on", "time": 0, "note": 71, "velocity": 117, "channel": 0}, {"type": "note_off", "time": 89, "note": 71, "velocity": 117, "channel": 0}, {"type": "note_on", "time": 17, "note": 74, "velocity": 121, "channel": 0}, {"type": "note_off", "time": 85, "note": 74, "velocity": 121, "channel": 0}, {"type": "note_on", "time": 4, "note": 69, "velocity": 119, "channel": 0}, {"type": "note_off", "time": 91, "note": 69, "velocity": 119, "channel": 0}, {"type": "note_on", "time": 2, "note": 72, "velocity": 119, "channel": 0}, {"type": "note_off", "time": 87, "note": 72, "velocity": 119, "channel": 0}, {"type": "note_on", "time": 109, "note": 72, "velocity": 120, "channel": 0}, {"type": "note_off", "time": 69, "note": 72, "velocity": 120, "channel": 0}, {"type": "note_on", "time": 11, "note": 71, "velocity": 116, "channel": 0}, {"type": "note_off", "time": 60, "note": 71, "velocity": 116, "channel": 0}, {"type": "note_on", "time": 0, "note": 67, "velocity": 113, "channel": 0}, {"type": "note_off", "time": 47, "note": 67, "velocity": 113, "channel": 0}, {"type": "note_on", "time": 13, "note": 63, "velocity": 113, "channel": 0}, {"type": "note_off", "time": 55, "note": 63, "velocity": 113, "channel": 0}, {"type": "note_on", "time": 17, "note": 59, "velocity": 101, "channel": 0}, {"type": "note_off", "time": 49, "note": 59, "velocity": 101, "channel": 0}, {"type": "note_on", "time": 17, "note": 69, "velocity": 117, "channel": 0}, {"type": "note_off", "time": 107, "note": 69, "velocity": 117, "channel": 0}, {"type": "note_on", "time": 91, "note": 66, "velocity": 113, "channel": 0}, {"type": "note_off", "time": 80, "note": 66, "velocity": 113, "channel": 0}, {"type": "note_on", "time": 8, "note": 62, "velocity": 111, "channel": 0}, {"type": "note_off", "time": 85, "note": 62, "velocity": 111, "channel": 0}, {"type": "note_on", "time": 2, "note": 64, "velocity": 99, "channel": 0}, {"type": "note_off", "time": 47, "note": 64, "velocity": 99, "channel": 0}, {"type": "note_on", "time": 26, "note": 66, "velocity": 108, "channel": 0}, {"type": "note_off", "time": 49, "note": 66, "velocity": 108, "channel": 0}, {"type": "note_on", "time": 15, "note": 68, "velocity": 114, "channel": 0}, {"type": "note_off", "time": 47, "note": 68, "velocity": 114, "channel": 0}, {"type": "note_on", "time": 42, "note": 71, "velocity": 108, "channel": 0}, {"type": "note_off", "time": 58, "note": 71, "velocity": 108, "channel": 0}, {"type": "note_on", "time": 8, "note": 74, "velocity": 121, "channel": 0}, {"type": "note_off", "time": 69, "note": 74, "velocity": 121, "channel": 0}, {"type": "note_on", "time": 8, "note": 72, "velocity": 118, "channel": 0}, {"type": "note_off", "time": 55, "note": 72, "velocity": 118, "channel": 0}, {"type": "note_on", "time": 11, "note": 70, "velocity": 111, "channel": 0}, {"type": "note_off", "time": 67, "note": 70, "velocity": 111, "channel": 0}, {"type": "note_on", "time": 55, "note": 68, "velocity": 114, "channel": 0}, {"type": "note_off", "time": 51, "note": 68, "velocity": 114, "channel": 0}, {"type": "note_on", "time": 8, "note": 66, "velocity": 106, "channel": 0}, {"type": "note_off", "time": 42, "note": 66, "velocity": 106, "channel": 0}, {"type": "note_on", "time": 2, "note": 63, "velocity": 110, "channel": 0}, {"type": "note_off", "time": 47, "note": 63, "velocity": 110, "channel": 0}, {"type": "note_on", "time": 15, "note": 62, "velocity": 111, "channel": 0}, {"type": "note_off", "time": 35, "note": 62, "velocity": 111, "channel": 0}, {"type": "note_on", "time": 6, "note": 60, "velocity": 110, "channel": 0}, {"type": "note_off", "time": 55, "note": 60, "velocity": 110, "channel": 0}, {"type": "note_on", "time": 0, "note": 53, "velocity": 101, "channel": 0}, {"type": "note_off", "time": 152, "note": 53, "velocity": 101, "channel": 0}, {"type": "note_on", "time": 644, "note": 72, "velocity": 121, "channel": 0}, {"type": "note_off", "time": 111, "note": 72, "velocity": 121, "channel": 0}, {"type": "note_on", "time": 8, "note": 70, "velocity": 115, "channel": 0}, {"type": "note_off", "time": 89, "note": 70, "velocity": 115, "channel": 0}, {"type": "note_on", "time": 15, "note": 68, "velocity": 121, "channel": 0}, {"type": "note_off", "time": 91, "note": 68, "velocity": 121, "channel": 0}, {"type": "note_on", "time": 13, "note": 63, "velocity": 103, "channel": 0}, {"type": "note_off", "time": 69, "note": 63, "velocity": 103, "channel": 0}, {"type": "note_on", "time": 17, "note": 69, "velocity": 120, "channel": 0}, {"type": "note_off", "time": 161, "note": 69, "velocity": 120, "channel": 0}, {"type": "note_on", "time": 11, "note": 70, "velocity": 113, "channel": 0}, {"type": "note_off", "time": 111, "note": 70, "velocity": 113, "channel": 0}, {"type": "note_on", "time": 42, "note": 67, "velocity": 115, "channel": 0}, {"type": "note_off", "time": 89, "note": 67, "velocity": 115, "channel": 0}, {"type": "note_on", "time": 64, "note": 68, "velocity": 120, "channel": 0}, {"type": "note_off", "time": 76, "note": 68, "velocity": 120, "channel": 0}, {"type": "note_on", "time": 6, "note": 71, "velocity": 117, "channel": 0}, {"type": "note_off", "time": 102, "note": 71, "velocity": 117, "channel": 0}, {"type": "note_on", "time": 0, "note": 73, "velocity": 116, "channel": 0}, {"type": "note_off", "time": 96, "note": 73, "velocity": 116, "channel": 0}, {"type": "note_on", "time": 4, "note": 70, "velocity": 114, "channel": 0}, {"type": "note_off", "time": 85, "note": 70, "velocity": 114, "channel": 0}, {"type": "note_on", "time": 4, "note": 69, "velocity": 114, "channel": 0}, {"type": "note_off", "time": 80, "note": 69, "velocity": 114, "channel": 0}, {"type": "note_on", "time": 13, "note": 68, "velocity": 115, "channel": 0}, {"type": "note_off", "time": 87, "note": 68, "velocity": 115, "channel": 0}, {"type": "note_on", "time": 2, "note": 70, "velocity": 116, "channel": 0}, {"type": "note_off", "time": 98, "note": 70, "velocity": 116, "channel": 0}, {"type": "note_on", "time": 8, "note": 69, "velocity": 113, "channel": 0}, {"type": "note_off", "time": 94, "note": 69, "velocity": 113, "channel": 0}, {"type": "note_on", "time": 17, "note": 66, "velocity": 116, "channel": 0}, {"type": "note_off", "time": 73, "note": 66, "velocity": 116, "channel": 0}, {"type": "note_on", "time": 17, "note": 63, "velocity": 117, "channel": 0}, {"type": "note_off", "time": 71, "note": 63, "velocity": 117, "channel": 0}, {"type": "note_on", "time": 2, "note": 59, "velocity": 100, "channel": 0}, {"type": "note_off", "time": 80, "note": 59, "velocity": 100, "channel": 0}, {"type": "note_on", "time": 26, "note": 66, "velocity": 117, "channel": 0}, {"type": "note_off", "time": 73, "note": 66, "velocity": 117, "channel": 0}, {"type": "note_on", "time": 6, "note": 69, "velocity": 112, "channel": 0}, {"type": "note_off", "time": 98, "note": 69, "velocity": 112, "channel": 0}, {"type": "note_on", "time": 2, "note": 67, "velocity": 112, "channel": 0}, {"type": "note_off", "time": 76, "note": 67, "velocity": 112, "channel": 0}, {"type": "note_on", "time": 31, "note": 62, "velocity": 114, "channel": 0}, {"type": "note_off", "time": 96, "note": 62, "velocity": 114, "channel": 0}, {"type": "note_on", "time": 17, "note": 61, "velocity": 110, "channel": 0}, {"type": "note_off", "time": 80, "note": 61, "velocity": 110, "channel": 0}, {"type": "note_on", "time": 4, "note": 64, "velocity": 115, "channel": 0}, {"type": "note_off", "time": 76, "note": 64, "velocity": 115, "channel": 0}, {"type": "note_on", "time": 24, "note": 65, "velocity": 113, "channel": 0}, {"type": "note_off", "time": 64, "note": 65, "velocity": 113, "channel": 0}, {"type": "note_on", "time": 17, "note": 66, "velocity": 113, "channel": 0}, {"type": "note_off", "time": 76, "note": 66, "velocity": 113, "channel": 0}, {"type": "note_on", "time": 13, "note": 61, "velocity": 115, "channel": 0}, {"type": "note_off", "time": 118, "note": 61, "velocity": 115, "channel": 0}, {"type": "note_on", "time": 11, "note": 56, "velocity": 110, "channel": 0}, {"type": "note_off", "time": 55, "note": 56, "velocity": 110, "channel": 0}, {"type": "note_on", "time": 2, "note": 60, "velocity": 114, "channel": 0}, {"type": "note_off", "time": 96, "note": 60, "velocity": 114, "channel": 0}, {"type": "note_on", "time": 13, "note": 63, "velocity": 113, "channel": 0}, {"type": "note_off", "time": 102, "note": 63, "velocity": 113, "channel": 0}, {"type": "note_on", "time": 4, "note": 58, "velocity": 107, "channel": 0}, {"type": "note_off", "time": 62, "note": 58, "velocity": 107, "channel": 0}, {"type": "note_on", "time": 24, "note": 54, "velocity": 99, "channel": 0}, {"type": "note_off", "time": 62, "note": 54, "velocity": 99, "channel": 0}, {"type": "note_on", "time": 22, "note": 55, "velocity": 110, "channel": 0}, {"type": "note_off", "time": 282, "note": 55, "velocity": 110, "channel": 0}, {"type": "note_on", "time": 22, "note": 54, "velocity": 107, "channel": 0}, {"type": "note_off", "time": 94, "note": 54, "velocity": 107, "channel": 0}, {"type": "note_on", "time": 26, "note": 55, "velocity": 100, "channel": 0}, {"type": "note_off", "time": 73, "note": 55, "velocity": 100, "channel": 0}, {"type": "note_on", "time": 11, "note": 58, "velocity": 108, "channel": 0}, {"type": "note_off", "time": 69, "note": 58, "velocity": 108, "channel": 0}, {"type": "note_on", "time": 44, "note": 62, "velocity": 96, "channel": 0}, {"type": "note_off", "time": 44, "note": 62, "velocity": 96, "channel": 0}, {"type": "note_on", "time": 24, "note": 65, "velocity": 123, "channel": 0}, {"type": "note_off", "time": 73, "note": 65, "velocity": 123, "channel": 0}, {"type": "note_on", "time": 22, "note": 62, "velocity": 110, "channel": 0}, {"type": "note_off", "time": 143, "note": 62, "velocity": 110, "channel": 0}, {"type": "note_on", "time": 33, "note": 63, "velocity": 118, "channel": 0}, {"type": "note_off", "time": 125, "note": 63, "velocity": 118, "channel": 0}, {"type": "note_on", "time": 73, "note": 67, "velocity": 114, "channel": 0}, {"type": "note_off", "time": 96, "note": 67, "velocity": 114, "channel": 0}, {"type": "note_on", "time": 11, "note": 70, "velocity": 115, "channel": 0}, {"type": "note_off", "time": 73, "note": 70, "velocity": 115, "channel": 0}, {"type": "note_on", "time": 22, "note": 71, "velocity": 116, "channel": 0}, {"type": "note_off", "time": 80, "note": 71, "velocity": 116, "channel": 0}, {"type": "note_on", "time": 11, "note": 73, "velocity": 113, "channel": 0}, {"type": "note_off", "time": 78, "note": 73, "velocity": 113, "channel": 0}, {"type": "note_on", "time": 17, "note": 75, "velocity": 119, "channel": 0}, {"type": "note_off", "time": 82, "note": 75, "velocity": 119, "channel": 0}, {"type": "note_on", "time": 20, "note": 76, "velocity": 115, "channel": 0}, {"type": "note_off", "time": 78, "note": 76, "velocity": 115, "channel": 0}, {"type": "note_on", "time": 15, "note": 72, "velocity": 115, "channel": 0}, {"type": "note_off", "time": 105, "note": 72, "velocity": 115, "channel": 0}, {"type": "note_on", "time": 0, "note": 70, "velocity": 111, "channel": 0}, {"type": "note_off", "time": 82, "note": 70, "velocity": 111, "channel": 0}, {"type": "note_on", "time": 6, "note": 67, "velocity": 111, "channel": 0}, {"type": "note_off", "time": 82, "note": 67, "velocity": 111, "channel": 0}, {"type": "note_on", "time": 44, "note": 62, "velocity": 118, "channel": 0}, {"type": "note_off", "time": 64, "note": 62, "velocity": 118, "channel": 0}, {"type": "note_on", "time": 13, "note": 67, "velocity": 108, "channel": 0}, {"type": "note_off", "time": 127, "note": 67, "velocity": 108, "channel": 0}, {"type": "note_on", "time": 35, "note": 64, "velocity": 104, "channel": 0}, {"type": "note_off", "time": 78, "note": 64, "velocity": 104, "channel": 0}, {"type": "note_on", "time": 35, "note": 67, "velocity": 104, "channel": 0}, {"type": "note_off", "time": 98, "note": 67, "velocity": 104, "channel": 0}, {"type": "note_on", "time": 1179, "note": 72, "velocity": 120, "channel": 0}, {"type": "note_off", "time": 105, "note": 72, "velocity": 120, "channel": 0}, {"type": "note_on", "time": 111, "note": 70, "velocity": 95, "channel": 0}, {"type": "note_off", "time": 62, "note": 70, "velocity": 95, "channel": 0}, {"type": "note_on", "time": 24, "note": 67, "velocity": 90, "channel": 0}, {"type": "note_off", "time": 44, "note": 67, "velocity": 90, "channel": 0}, {"type": "note_on", "time": 8, "note": 70, "velocity": 119, "channel": 0}, {"type": "note_off", "time": 87, "note": 70, "velocity": 119, "channel": 0}, {"type": "note_on", "time": 40, "note": 65, "velocity": 104, "channel": 0}, {"type": "note_off", "time": 40, "note": 65, "velocity": 104, "channel": 0}, {"type": "note_on", "time": 22, "note": 70, "velocity": 120, "channel": 0}, {"type": "note_off", "time": 67, "note": 70, "velocity": 120, "channel": 0}, {"type": "note_on", "time": 26, "note": 75, "velocity": 119, "channel": 0}, {"type": "note_off", "time": 67, "note": 75, "velocity": 119, "channel": 0}, {"type": "note_on", "time": 22, "note": 74, "velocity": 122, "channel": 0}, {"type": "note_off", "time": 71, "note": 74, "velocity": 122, "channel": 0}, {"type": "note_on", "time": 15, "note": 70, "velocity": 116, "channel": 0}, {"type": "note_off", "time": 85, "note": 70, "velocity": 116, "channel": 0}, {"type": "note_on", "time": 15, "note": 69, "velocity": 120, "channel": 0}, {"type": "note_off", "time": 87, "note": 69, "velocity": 120, "channel": 0}, {"type": "note_on", "time": 4, "note": 66, "velocity": 114, "channel": 0}, {"type": "note_off", "time": 85, "note": 66, "velocity": 114, "channel": 0}, {"type": "note_on", "time": 6, "note": 65, "velocity": 117, "channel": 0}, {"type": "note_off", "time": 85, "note": 65, "velocity": 117, "channel": 0}, {"type": "note_on", "time": 13, "note": 63, "velocity": 115, "channel": 0}, {"type": "note_off", "time": 273, "note": 63, "velocity": 115, "channel": 0}, {"type": "note_on", "time": 6, "note": 62, "velocity": 111, "channel": 0}, {"type": "note_off", "time": 235, "note": 62, "velocity": 111, "channel": 0}, {"type": "note_on", "time": 62, "note": 74, "velocity": 120, "channel": 0}, {"type": "note_off", "time": 71, "note": 74, "velocity": 120, "channel": 0}, {"type": "note_on", "time": 6, "note": 70, "velocity": 116, "channel": 0}, {"type": "note_off", "time": 87, "note": 70, "velocity": 116, "channel": 0}, {"type": "note_on", "time": 13, "note": 70, "velocity": 110, "channel": 0}, {"type": "note_off", "time": 82, "note": 70, "velocity": 110, "channel": 0}, {"type": "note_on", "time": 8, "note": 68, "velocity": 120, "channel": 0}, {"type": "note_off", "time": 85, "note": 68, "velocity": 120, "channel": 0}, {"type": "note_on", "time": 11, "note": 70, "velocity": 95, "channel": 0}, {"type": "note_off", "time": 71, "note": 70, "velocity": 95, "channel": 0}, {"type": "note_on", "time": 11, "note": 71, "velocity": 114, "channel": 0}, {"type": "note_off", "time": 78, "note": 71, "velocity": 114, "channel": 0}, {"type": "note_on", "time": 17, "note": 68, "velocity": 127, "channel": 0}, {"type": "note_off", "time": 94, "note": 68, "velocity": 127, "channel": 0}, {"type": "note_on", "time": 15, "note": 67, "velocity": 113, "channel": 0}, {"type": "note_off", "time": 53, "note": 67, "velocity": 113, "channel": 0}, {"type": "note_on", "time": 17, "note": 65, "velocity": 116, "channel": 0}, {"type": "note_off", "time": 44, "note": 65, "velocity": 116, "channel": 0}, {"type": "note_on", "time": 11, "note": 66, "velocity": 117, "channel": 0}, {"type": "note_off", "time": 118, "note": 66, "velocity": 117, "channel": 0}, {"type": "note_on", "time": 42, "note": 72, "velocity": 108, "channel": 0}, {"type": "note_off", "time": 22, "note": 72, "velocity": 108, "channel": 0}, {"type": "note_on", "time": 13, "note": 73, "velocity": 108, "channel": 0}, {"type": "note_off", "time": 58, "note": 73, "velocity": 108, "channel": 0}, {"type": "note_on", "time": 4, "note": 71, "velocity": 97, "channel": 0}, {"type": "note_off", "time": 94, "note": 71, "velocity": 97, "channel": 0}, {"type": "note_on", "time": 17, "note": 66, "velocity": 102, "channel": 0}, {"type": "note_off", "time": 42, "note": 66, "velocity": 102, "channel": 0}, {"type": "note_on", "time": 13, "note": 69, "velocity": 121, "channel": 0}, {"type": "note_off", "time": 87, "note": 69, "velocity": 121, "channel": 0}, {"type": "note_on", "time": 24, "note": 66, "velocity": 95, "channel": 0}, {"type": "note_off", "time": 49, "note": 66, "velocity": 95, "channel": 0}, {"type": "note_on", "time": 22, "note": 62, "velocity": 108, "channel": 0}, {"type": "note_off", "time": 91, "note": 62, "velocity": 108, "channel": 0}, {"type": "note_on", "time": 85, "note": 64, "velocity": 118, "channel": 0}, {"type": "note_off", "time": 102, "note": 64, "velocity": 118, "channel": 0}, {"type": "note_on", "time": 17, "note": 67, "velocity": 111, "channel": 0}, {"type": "note_off", "time": 71, "note": 67, "velocity": 111, "channel": 0}, {"type": "note_on", "time": 2, "note": 65, "velocity": 113, "channel": 0}, {"type": "note_off", "time": 96, "note": 65, "velocity": 113, "channel": 0}, {"type": "note_on", "time": 42, "note": 61, "velocity": 114, "channel": 0}, {"type": "note_off", "time": 69, "note": 61, "velocity": 114, "channel": 0}, {"type": "note_on", "time": 4, "note": 58, "velocity": 107, "channel": 0}, {"type": "note_off", "time": 89, "note": 58, "velocity": 107, "channel": 0}, {"type": "note_on", "time": 6, "note": 54, "velocity": 106, "channel": 0}, {"type": "note_off", "time": 80, "note": 54, "velocity": 106, "channel": 0}, {"type": "note_on", "time": 15, "note": 60, "velocity": 112, "channel": 0}, {"type": "note_off", "time": 87, "note": 60, "velocity": 112, "channel": 0}, {"type": "note_on", "time": 8, "note": 62, "velocity": 71, "channel": 0}, {"type": "note_off", "time": 89, "note": 62, "velocity": 71, "channel": 0}, {"type": "note_on", "time": 4, "note": 58, "velocity": 103, "channel": 0}, {"type": "note_off", "time": 73, "note": 58, "velocity": 103, "channel": 0}, {"type": "note_on", "time": 55, "note": 53, "velocity": 100, "channel": 0}, {"type": "note_off", "time": 69, "note": 53, "velocity": 100, "channel": 0}, {"type": "note_on", "time": 6, "note": 55, "velocity": 109, "channel": 0}, {"type": "note_off", "time": 73, "note": 55, "velocity": 109, "channel": 0}, {"type": "note_on", "time": 13, "note": 57, "velocity": 103, "channel": 0}, {"type": "note_off", "time": 69, "note": 57, "velocity": 103, "channel": 0}, {"type": "note_on", "time": 13, "note": 59, "velocity": 104, "channel": 0}, {"type": "note_off", "time": 80, "note": 59, "velocity": 104, "channel": 0}, {"type": "note_on", "time": 15, "note": 61, "velocity": 109, "channel": 0}, {"type": "note_off", "time": 87, "note": 61, "velocity": 109, "channel": 0}, {"type": "note_on", "time": 0, "note": 63, "velocity": 109, "channel": 0}, {"type": "note_off", "time": 85, "note": 63, "velocity": 109, "channel": 0}, {"type": "note_on", "time": 35, "note": 70, "velocity": 118, "channel": 0}, {"type": "note_off", "time": 71, "note": 70, "velocity": 118, "channel": 0}, {"type": "note_on", "time": 0, "note": 68, "velocity": 113, "channel": 0}, {"type": "note_off", "time": 71, "note": 68, "velocity": 113, "channel": 0}, {"type": "note_on", "time": 17, "note": 70, "velocity": 108, "channel": 0}, {"type": "note_off", "time": 85, "note": 70, "velocity": 108, "channel": 0}, {"type": "note_on", "time": 0, "note": 71, "velocity": 109, "channel": 0}, {"type": "note_off", "time": 85, "note": 71, "velocity": 109, "channel": 0}, {"type": "note_on", "time": 4, "note": 73, "velocity": 109, "channel": 0}, {"type": "note_off", "time": 98, "note": 73, "velocity": 109, "channel": 0}, {"type": "note_on", "time": 4, "note": 75, "velocity": 116, "channel": 0}, {"type": "note_off", "time": 85, "note": 75, "velocity": 116, "channel": 0}, {"type": "note_on", "time": 15, "note": 75, "velocity": 118, "channel": 0}, {"type": "note_off", "time": 98, "note": 75, "velocity": 118, "channel": 0}, {"type": "note_on", "time": 11, "note": 78, "velocity": 117, "channel": 0}, {"type": "note_off", "time": 73, "note": 78, "velocity": 117, "channel": 0}, {"type": "note_on", "time": 8, "note": 78, "velocity": 117, "channel": 0}, {"type": "note_off", "time": 73, "note": 78, "velocity": 117, "channel": 0}, {"type": "note_on", "time": 15, "note": 75, "velocity": 117, "channel": 0}, {"type": "note_off", "time": 51, "note": 75, "velocity": 117, "channel": 0}, {"type": "note_on", "time": 17, "note": 76, "velocity": 102, "channel": 0}, {"type": "note_off", "time": 134, "note": 76, "velocity": 102, "channel": 0}, {"type": "note_on", "time": 67, "note": 76, "velocity": 100, "channel": 0}, {"type": "note_off", "time": 58, "note": 76, "velocity": 100, "channel": 0}, {"type": "note_on", "time": 1170, "note": 72, "velocity": 125, "channel": 0}, {"type": "note_off", "time": 85, "note": 72, "velocity": 125, "channel": 0}, {"type": "note_on", "time": 0, "note": 75, "velocity": 115, "channel": 0}, {"type": "note_off", "time": 73, "note": 75, "velocity": 115, "channel": 0}, {"type": "note_on", "time": 17, "note": 79, "velocity": 115, "channel": 0}, {"type": "note_off", "time": 105, "note": 79, "velocity": 115, "channel": 0}, {"type": "note_on", "time": 8, "note": 77, "velocity": 121, "channel": 0}, {"type": "note_off", "time": 134, "note": 77, "velocity": 121, "channel": 0}, {"type": "note_on", "time": 35, "note": 77, "velocity": 116, "channel": 0}, {"type": "note_off", "time": 111, "note": 77, "velocity": 116, "channel": 0}, {"type": "note_on", "time": 17, "note": 75, "velocity": 118, "channel": 0}, {"type": "note_off", "time": 107, "note": 75, "velocity": 118, "channel": 0}, {"type": "note_on", "time": 22, "note": 74, "velocity": 120, "channel": 0}, {"type": "note_off", "time": 118, "note": 74, "velocity": 120, "channel": 0}, {"type": "note_on", "time": 49, "note": 69, "velocity": 108, "channel": 0}, {"type": "note_off", "time": 64, "note": 69, "velocity": 108, "channel": 0}, {"type": "note_on", "time": 6, "note": 70, "velocity": 102, "channel": 0}, {"type": "note_off", "time": 71, "note": 70, "velocity": 102, "channel": 0}, {"type": "note_on", "time": 22, "note": 74, "velocity": 107, "channel": 0}, {"type": "note_off", "time": 76, "note": 74, "velocity": 107, "channel": 0}, {"type": "note_on", "time": 13, "note": 75, "velocity": 116, "channel": 0}, {"type": "note_off", "time": 158, "note": 75, "velocity": 116, "channel": 0}, {"type": "note_on", "time": 11, "note": 78, "velocity": 119, "channel": 0}, {"type": "note_off", "time": 127, "note": 78, "velocity": 119, "channel": 0}, {"type": "note_on", "time": 15, "note": 80, "velocity": 105, "channel": 0}, {"type": "note_off", "time": 78, "note": 80, "velocity": 105, "channel": 0}, {"type": "note_on", "time": 98, "note": 78, "velocity": 118, "channel": 0}, {"type": "note_off", "time": 96, "note": 78, "velocity": 118, "channel": 0}, {"type": "note_on", "time": 11, "note": 76, "velocity": 119, "channel": 0}, {"type": "note_off", "time": 107, "note": 76, "velocity": 119, "channel": 0}, {"type": "note_on", "time": 125, "note": 80, "velocity": 113, "channel": 0}, {"type": "note_off", "time": 134, "note": 80, "velocity": 113, "channel": 0}, {"type": "note_on", "time": 212, "note": 80, "velocity": 105, "channel": 0}, {"type": "note_off", "time": 80, "note": 80, "velocity": 105, "channel": 0}, {"type": "note_on", "time": 0, "note": 81, "velocity": 100, "channel": 0}, {"type": "note_off", "time": 71, "note": 81, "velocity": 100, "channel": 0}, {"type": "note_on", "time": 29, "note": 80, "velocity": 92, "channel": 0}, {"type": "note_off", "time": 114, "note": 80, "velocity": 92, "channel": 0}, {"type": "note_on", "time": 8, "note": 79, "velocity": 118, "channel": 0}, {"type": "note_off", "time": 116, "note": 79, "velocity": 118, "channel": 0}, {"type": "note_on", "time": 47, "note": 78, "velocity": 118, "channel": 0}, {"type": "note_off", "time": 67, "note": 78, "velocity": 118, "channel": 0}, {"type": "note_on", "time": 20, "note": 75, "velocity": 114, "channel": 0}, {"type": "note_off", "time": 290, "note": 75, "velocity": 114, "channel": 0}, {"type": "note_on", "time": 13, "note": 74, "velocity": 116, "channel": 0}, {"type": "note_off", "time": 87, "note": 74, "velocity": 116, "channel": 0}, {"type": "note_on", "time": 107, "note": 69, "velocity": 112, "channel": 0}, {"type": "note_off", "time": 76, "note": 69, "velocity": 112, "channel": 0}, {"type": "note_on", "time": 6, "note": 66, "velocity": 111, "channel": 0}, {"type": "note_off", "time": 89, "note": 66, "velocity": 111, "channel": 0}, {"type": "note_on", "time": 4, "note": 74, "velocity": 113, "channel": 0}, {"type": "note_off", "time": 85, "note": 74, "velocity": 113, "channel": 0}, {"type": "note_on", "time": 6, "note": 73, "velocity": 115, "channel": 0}, {"type": "note_off", "time": 91, "note": 73, "velocity": 115, "channel": 0}, {"type": "note_on", "time": 22, "note": 75, "velocity": 113, "channel": 0}, {"type": "note_off", "time": 78, "note": 75, "velocity": 113, "channel": 0}, {"type": "note_on", "time": 11, "note": 71, "velocity": 110, "channel": 0}, {"type": "note_off", "time": 129, "note": 71, "velocity": 110, "channel": 0}, {"type": "note_on", "time": 8, "note": 66, "velocity": 96, "channel": 0}, {"type": "note_off", "time": 69, "note": 66, "velocity": 96, "channel": 0}, {"type": "note_on", "time": 4, "note": 68, "velocity": 117, "channel": 0}, {"type": "note_off", "time": 94, "note": 68, "velocity": 117, "channel": 0}, {"type": "note_on", "time": 6, "note": 70, "velocity": 117, "channel": 0}, {"type": "note_off", "time": 69, "note": 70, "velocity": 117, "channel": 0}, {"type": "note_on", "time": 11, "note": 71, "velocity": 116, "channel": 0}, {"type": "note_off", "time": 80, "note": 71, "velocity": 116, "channel": 0}, {"type": "note_on", "time": 13, "note": 73, "velocity": 122, "channel": 0}, {"type": "note_off", "time": 105, "note": 73, "velocity": 122, "channel": 0}, {"type": "note_on", "time": 0, "note": 72, "velocity": 117, "channel": 0}, {"type": "note_off", "time": 67, "note": 72, "velocity": 117, "channel": 0}, {"type": "note_on", "time": 4, "note": 70, "velocity": 114, "channel": 0}, {"type": "note_off", "time": 111, "note": 70, "velocity": 114, "channel": 0}, {"type": "note_on", "time": 15, "note": 67, "velocity": 115, "channel": 0}, {"type": "note_off", "time": 82, "note": 67, "velocity": 115, "channel": 0}, {"type": "note_on", "time": 13, "note": 70, "velocity": 116, "channel": 0}, {"type": "note_off", "time": 85, "note": 70, "velocity": 116, "channel": 0}, {"type": "note_on", "time": 0, "note": 69, "velocity": 120, "channel": 0}, {"type": "note_off", "time": 100, "note": 69, "velocity": 120, "channel": 0}, {"type": "note_on", "time": 13, "note": 65, "velocity": 114, "channel": 0}, {"type": "note_off", "time": 62, "note": 65, "velocity": 114, "channel": 0}, {"type": "note_on", "time": 0, "note": 61, "velocity": 106, "channel": 0}, {"type": "note_off", "time": 64, "note": 61, "velocity": 106, "channel": 0}, {"type": "note_on", "time": 0, "note": 62, "velocity": 110, "channel": 0}, {"type": "note_off", "time": 49, "note": 62, "velocity": 110, "channel": 0}, {"type": "note_on", "time": 29, "note": 60, "velocity": 102, "channel": 0}, {"type": "note_off", "time": 76, "note": 60, "velocity": 102, "channel": 0}, {"type": "note_on", "time": 0, "note": 67, "velocity": 114, "channel": 0}, {"type": "note_off", "time": 78, "note": 67, "velocity": 114, "channel": 0}, {"type": "note_on", "time": 15, "note": 70, "velocity": 113, "channel": 0}, {"type": "note_off", "time": 87, "note": 70, "velocity": 113, "channel": 0}, {"type": "note_on", "time": 6, "note": 69, "velocity": 110, "channel": 0}, {"type": "note_off", "time": 107, "note": 69, "velocity": 110, "channel": 0}, {"type": "note_on", "time": 4, "note": 66, "velocity": 105, "channel": 0}, {"type": "note_off", "time": 80, "note": 66, "velocity": 105, "channel": 0}, {"type": "note_on", "time": 0, "note": 63, "velocity": 105, "channel": 0}, {"type": "note_off", "time": 94, "note": 63, "velocity": 105, "channel": 0}, {"type": "note_on", "time": 38, "note": 59, "velocity": 100, "channel": 0}, {"type": "note_off", "time": 51, "note": 59, "velocity": 100, "channel": 0}, {"type": "note_on", "time": 0, "note": 68, "velocity": 118, "channel": 0}, {"type": "note_off", "time": 167, "note": 68, "velocity": 118, "channel": 0}, {"type": "note_on", "time": 17, "note": 62, "velocity": 110, "channel": 0}, {"type": "note_off", "time": 105, "note": 62, "velocity": 110, "channel": 0}, {"type": "note_on", "time": 29, "note": 58, "velocity": 105, "channel": 0}, {"type": "note_off", "time": 127, "note": 58, "velocity": 105, "channel": 0}, {"type": "note_on", "time": 17, "note": 60, "velocity": 101, "channel": 0}, {"type": "note_off", "time": 47, "note": 60, "velocity": 101, "channel": 0}, {"type": "note_on", "time": 4, "note": 61, "velocity": 101, "channel": 0}, {"type": "note_off", "time": 49, "note": 61, "velocity": 101, "channel": 0}, {"type": "note_on", "time": 11, "note": 63, "velocity": 108, "channel": 0}, {"type": "note_off", "time": 67, "note": 63, "velocity": 108, "channel": 0}, {"type": "note_on", "time": 26, "note": 58, "velocity": 95, "channel": 0}, {"type": "note_off", "time": 51, "note": 58, "velocity": 95, "channel": 0}, {"type": "note_on", "time": 450, "note": 58, "velocity": 108, "channel": 0}, {"type": "note_off", "time": 78, "note": 58, "velocity": 108, "channel": 0}, {"type": "note_on", "time": 28, "note": 55, "velocity": 107, "channel": 0}, {"type": "note_off", "time": 55, "note": 55, "velocity": 107, "channel": 0}, {"type": "note_on", "time": 16, "note": 53, "velocity": 112, "channel": 0}, {"type": "note_off", "time": 64, "note": 53, "velocity": 112, "channel": 0}, {"type": "note_on", "time": 51, "note": 58, "velocity": 109, "channel": 0}, {"type": "note_off", "time": 91, "note": 58, "velocity": 109, "channel": 0}, {"type": "note_on", "time": 5, "note": 57, "velocity": 112, "channel": 0}, {"type": "note_off", "time": 58, "note": 57, "velocity": 112, "channel": 0}, {"type": "note_on", "time": 36, "note": 54, "velocity": 103, "channel": 0}, {"type": "note_off", "time": 58, "note": 54, "velocity": 103, "channel": 0}, {"type": "note_on", "time": 14, "note": 58, "velocity": 111, "channel": 0}, {"type": "note_off", "time": 72, "note": 58, "velocity": 111, "channel": 0}, {"type": "note_on", "time": 0, "note": 63, "velocity": 112, "channel": 0}, {"type": "note_off", "time": 100, "note": 63, "velocity": 112, "channel": 0}, {"type": "note_on", "time": 8, "note": 56, "velocity": 105, "channel": 0}, {"type": "note_off", "time": 120, "note": 56, "velocity": 105, "channel": 0}, {"type": "note_on", "time": 94, "note": 61, "velocity": 111, "channel": 0}, {"type": "note_off", "time": 96, "note": 61, "velocity": 111, "channel": 0}, {"type": "note_on", "time": 2, "note": 58, "velocity": 109, "channel": 0}, {"type": "note_off", "time": 62, "note": 58, "velocity": 109, "channel": 0}, {"type": "note_on", "time": 13, "note": 55, "velocity": 103, "channel": 0}, {"type": "note_off", "time": 69, "note": 55, "velocity": 103, "channel": 0}, {"type": "note_on", "time": 15, "note": 56, "velocity": 109, "channel": 0}, {"type": "note_off", "time": 87, "note": 56, "velocity": 109, "channel": 0}, {"type": "note_on", "time": 98, "note": 58, "velocity": 110, "channel": 0}, {"type": "note_off", "time": 78, "note": 58, "velocity": 110, "channel": 0}, {"type": "note_on", "time": 6, "note": 59, "velocity": 106, "channel": 0}, {"type": "note_off", "time": 94, "note": 59, "velocity": 106, "channel": 0}, {"type": "note_on", "time": 11, "note": 61, "velocity": 112, "channel": 0}, {"type": "note_off", "time": 85, "note": 61, "velocity": 112, "channel": 0}, {"type": "note_on", "time": 20, "note": 63, "velocity": 109, "channel": 0}, {"type": "note_off", "time": 89, "note": 63, "velocity": 109, "channel": 0}, {"type": "note_on", "time": 6, "note": 66, "velocity": 110, "channel": 0}, {"type": "note_off", "time": 69, "note": 66, "velocity": 110, "channel": 0}, {"type": "note_on", "time": 8, "note": 68, "velocity": 119, "channel": 0}, {"type": "note_off", "time": 82, "note": 68, "velocity": 119, "channel": 0}, {"type": "note_on", "time": 13, "note": 70, "velocity": 118, "channel": 0}, {"type": "note_off", "time": 67, "note": 70, "velocity": 118, "channel": 0}, {"type": "note_on", "time": 33, "note": 71, "velocity": 116, "channel": 0}, {"type": "note_off", "time": 78, "note": 71, "velocity": 116, "channel": 0}, {"type": "note_on", "time": 15, "note": 73, "velocity": 122, "channel": 0}, {"type": "note_off", "time": 100, "note": 73, "velocity": 122, "channel": 0}, {"type": "note_on", "time": 11, "note": 72, "velocity": 117, "channel": 0}, {"type": "note_off", "time": 80, "note": 72, "velocity": 117, "channel": 0}, {"type": "note_on", "time": 11, "note": 67, "velocity": 109, "channel": 0}, {"type": "note_off", "time": 64, "note": 67, "velocity": 109, "channel": 0}, {"type": "note_on", "time": 11, "note": 64, "velocity": 109, "channel": 0}, {"type": "note_off", "time": 78, "note": 64, "velocity": 109, "channel": 0}, {"type": "note_on", "time": 2, "note": 62, "velocity": 107, "channel": 0}, {"type": "note_off", "time": 64, "note": 62, "velocity": 107, "channel": 0}, {"type": "note_on", "time": 29, "note": 65, "velocity": 113, "channel": 0}, {"type": "note_off", "time": 132, "note": 65, "velocity": 113, "channel": 0}, {"type": "note_on", "time": 671, "note": 75, "velocity": 117, "channel": 0}, {"type": "note_off", "time": 94, "note": 75, "velocity": 117, "channel": 0}, {"type": "note_on", "time": 6, "note": 78, "velocity": 104, "channel": 0}, {"type": "note_off", "time": 94, "note": 78, "velocity": 104, "channel": 0}, {"type": "note_on", "time": 13, "note": 73, "velocity": 120, "channel": 0}, {"type": "note_off", "time": 80, "note": 73, "velocity": 120, "channel": 0}, {"type": "note_on", "time": 22, "note": 71, "velocity": 116, "channel": 0}, {"type": "note_off", "time": 100, "note": 71, "velocity": 116, "channel": 0}, {"type": "note_on", "time": 67, "note": 66, "velocity": 114, "channel": 0}, {"type": "note_on", "time": 96, "note": 64, "velocity": 112, "channel": 0}, {"type": "note_off", "time": 0, "note": 66, "velocity": 114, "channel": 0}, {"type": "note_off", "time": 109, "note": 64, "velocity": 112, "channel": 0}, {"type": "note_on", "time": 11, "note": 62, "velocity": 106, "channel": 0}, {"type": "note_off", "time": 69, "note": 62, "velocity": 106, "channel": 0}, {"type": "note_on", "time": 15, "note": 70, "velocity": 115, "channel": 0}, {"type": "note_off", "time": 73, "note": 70, "velocity": 115, "channel": 0}, {"type": "note_on", "time": 0, "note": 74, "velocity": 112, "channel": 0}, {"type": "note_on", "time": 96, "note": 75, "velocity": 114, "channel": 0}, {"type": "note_off", "time": 0, "note": 74, "velocity": 112, "channel": 0}, {"type": "note_off", "time": 82, "note": 75, "velocity": 114, "channel": 0}, {"type": "note_on", "time": 6, "note": 76, "velocity": 119, "channel": 0}, {"type": "note_off", "time": 78, "note": 76, "velocity": 119, "channel": 0}, {"type": "note_on", "time": 2, "note": 77, "velocity": 117, "channel": 0}, {"type": "note_off", "time": 212, "note": 77, "velocity": 117, "channel": 0}, {"type": "note_on", "time": 13, "note": 74, "velocity": 113, "channel": 0}, {"type": "note_off", "time": 109, "note": 74, "velocity": 113, "channel": 0}, {"type": "note_on", "time": 11, "note": 72, "velocity": 111, "channel": 0}, {"type": "note_off", "time": 111, "note": 72, "velocity": 111, "channel": 0}, {"type": "note_on", "time": 64, "note": 69, "velocity": 111, "channel": 0}, {"type": "note_off", "time": 96, "note": 69, "velocity": 111, "channel": 0}, {"type": "note_on", "time": 4, "note": 64, "velocity": 110, "channel": 0}, {"type": "note_off", "time": 107, "note": 64, "velocity": 110, "channel": 0}, {"type": "note_on", "time": 49, "note": 68, "velocity": 112, "channel": 0}, {"type": "note_off", "time": 120, "note": 68, "velocity": 112, "channel": 0}, {"type": "note_on", "time": 141, "note": 76, "velocity": 118, "channel": 0}, {"type": "note_off", "time": 181, "note": 76, "velocity": 118, "channel": 0}, {"type": "note_on", "time": 29, "note": 74, "velocity": 116, "channel": 0}, {"type": "note_off", "time": 136, "note": 74, "velocity": 116, "channel": 0}, {"type": "note_on", "time": 4, "note": 76, "velocity": 119, "channel": 0}, {"type": "note_off", "time": 141, "note": 76, "velocity": 119, "channel": 0}, {"type": "note_on", "time": 2, "note": 71, "velocity": 112, "channel": 0}, {"type": "note_off", "time": 111, "note": 71, "velocity": 112, "channel": 0}, {"type": "note_on", "time": 49, "note": 68, "velocity": 116, "channel": 0}, {"type": "note_off", "time": 67, "note": 68, "velocity": 116, "channel": 0}, {"type": "note_on", "time": 4, "note": 64, "velocity": 112, "channel": 0}, {"type": "note_off", "time": 123, "note": 64, "velocity": 112, "channel": 0}, {"type": "note_on", "time": 0, "note": 69, "velocity": 99, "channel": 0}, {"type": "note_off", "time": 76, "note": 69, "velocity": 99, "channel": 0}, {"type": "note_on", "time": 8, "note": 70, "velocity": 112, "channel": 0}, {"type": "note_off", "time": 82, "note": 70, "velocity": 112, "channel": 0}, {"type": "note_on", "time": 6, "note": 73, "velocity": 112, "channel": 0}, {"type": "note_off", "time": 67, "note": 73, "velocity": 112, "channel": 0}, {"type": "note_on", "time": 2, "note": 75, "velocity": 115, "channel": 0}, {"type": "note_off", "time": 120, "note": 75, "velocity": 115, "channel": 0}, {"type": "note_on", "time": 6, "note": 72, "velocity": 113, "channel": 0}, {"type": "note_off", "time": 82, "note": 72, "velocity": 113, "channel": 0}, {"type": "note_on", "time": 0, "note": 71, "velocity": 110, "channel": 0}, {"type": "note_off", "time": 89, "note": 71, "velocity": 110, "channel": 0}, {"type": "note_on", "time": 22, "note": 68, "velocity": 110, "channel": 0}, {"type": "note_off", "time": 111, "note": 68, "velocity": 110, "channel": 0}, {"type": "note_on", "time": 82, "note": 62, "velocity": 106, "channel": 0}, {"type": "note_off", "time": 69, "note": 62, "velocity": 106, "channel": 0}, {"type": "note_on", "time": 4, "note": 66, "velocity": 108, "channel": 0}, {"type": "note_off", "time": 127, "note": 66, "velocity": 108, "channel": 0}, {"type": "note_on", "time": 71, "note": 68, "velocity": 115, "channel": 0}, {"type": "note_off", "time": 102, "note": 68, "velocity": 115, "channel": 0}, {"type": "note_on", "time": 4, "note": 67, "velocity": 110, "channel": 0}, {"type": "note_off", "time": 76, "note": 67, "velocity": 110, "channel": 0}, {"type": "note_on", "time": 87, "note": 64, "velocity": 112, "channel": 0}, {"type": "note_off", "time": 71, "note": 64, "velocity": 112, "channel": 0}, {"type": "note_on", "time": 0, "note": 70, "velocity": 105, "channel": 0}, {"type": "note_off", "time": 42, "note": 70, "velocity": 105, "channel": 0}, {"type": "note_on", "time": 6, "note": 69, "velocity": 114, "channel": 0}, {"type": "note_off", "time": 64, "note": 69, "velocity": 114, "channel": 0}, {"type": "note_on", "time": 203, "note": 70, "velocity": 114, "channel": 0}, {"type": "note_off", "time": 78, "note": 70, "velocity": 114, "channel": 0}, {"type": "note_on", "time": 11, "note": 64, "velocity": 104, "channel": 0}, {"type": "note_off", "time": 183, "note": 64, "velocity": 104, "channel": 0}, {"type": "note_on", "time": 15, "note": 72, "velocity": 111, "channel": 0}, {"type": "note_off", "time": 143, "note": 72, "velocity": 111, "channel": 0}, {"type": "note_on", "time": 49, "note": 75, "velocity": 117, "channel": 0}, {"type": "note_off", "time": 125, "note": 75, "velocity": 117, "channel": 0}, {"type": "note_on", "time": 87, "note": 71, "velocity": 113, "channel": 0}, {"type": "note_off", "time": 87, "note": 71, "velocity": 113, "channel": 0}, {"type": "note_on", "time": 8, "note": 68, "velocity": 112, "channel": 0}, {"type": "note_off", "time": 85, "note": 68, "velocity": 112, "channel": 0}, {"type": "note_on", "time": 15, "note": 64, "velocity": 111, "channel": 0}, {"type": "note_off", "time": 89, "note": 64, "velocity": 111, "channel": 0}, {"type": "note_on", "time": 13, "note": 66, "velocity": 107, "channel": 0}, {"type": "note_off", "time": 73, "note": 66, "velocity": 107, "channel": 0}, {"type": "note_on", "time": 4, "note": 68, "velocity": 109, "channel": 0}, {"type": "note_off", "time": 89, "note": 68, "velocity": 109, "channel": 0}, {"type": "note_on", "time": 15, "note": 61, "velocity": 106, "channel": 0}, {"type": "note_off", "time": 109, "note": 61, "velocity": 106, "channel": 0}, {"type": "note_on", "time": 257, "note": 62, "velocity": 101, "channel": 0}, {"type": "note_off", "time": 67, "note": 62, "velocity": 101, "channel": 0}, {"type": "note_on", "time": 8, "note": 64, "velocity": 112, "channel": 0}, {"type": "note_off", "time": 123, "note": 64, "velocity": 112, "channel": 0}, {"type": "note_on", "time": 2, "note": 69, "velocity": 111, "channel": 0}, {"type": "note_off", "time": 64, "note": 69, "velocity": 111, "channel": 0}, {"type": "note_on", "time": 26, "note": 62, "velocity": 106, "channel": 0}, {"type": "note_off", "time": 85, "note": 62, "velocity": 106, "channel": 0}, {"type": "note_on", "time": 13, "note": 61, "velocity": 106, "channel": 0}, {"type": "note_off", "time": 62, "note": 61, "velocity": 106, "channel": 0}, {"type": "note_on", "time": 0, "note": 63, "velocity": 111, "channel": 0}, {"type": "note_off", "time": 94, "note": 63, "velocity": 111, "channel": 0}, {"type": "note_on", "time": 2, "note": 66, "velocity": 107, "channel": 0}, {"type": "note_off", "time": 89, "note": 66, "velocity": 107, "channel": 0}, {"type": "note_on", "time": 8, "note": 68, "velocity": 111, "channel": 0}, {"type": "note_off", "time": 91, "note": 68, "velocity": 111, "channel": 0}, {"type": "note_on", "time": 11, "note": 70, "velocity": 112, "channel": 0}, {"type": "note_off", "time": 80, "note": 70, "velocity": 112, "channel": 0}, {"type": "note_on", "time": 11, "note": 71, "velocity": 107, "channel": 0}, {"type": "note_off", "time": 91, "note": 71, "velocity": 107, "channel": 0}, {"type": "note_on", "time": 2, "note": 73, "velocity": 112, "channel": 0}, {"type": "note_off", "time": 64, "note": 73, "velocity": 112, "channel": 0}, {"type": "note_on", "time": 13, "note": 75, "velocity": 112, "channel": 0}, {"type": "note_off", "time": 107, "note": 75, "velocity": 112, "channel": 0}, {"type": "note_on", "time": 31, "note": 77, "velocity": 118, "channel": 0}, {"type": "note_off", "time": 53, "note": 77, "velocity": 118, "channel": 0}, {"type": "note_on", "time": 17, "note": 73, "velocity": 106, "channel": 0}, {"type": "note_off", "time": 129, "note": 73, "velocity": 106, "channel": 0}, {"type": "note_on", "time": 0, "note": 72, "velocity": 110, "channel": 0}, {"type": "note_off", "time": 67, "note": 72, "velocity": 110, "channel": 0}, {"type": "note_on", "time": 570, "note": 70, "velocity": 117, "channel": 0}, {"type": "note_off", "time": 94, "note": 70, "velocity": 117, "channel": 0}, {"type": "note_on", "time": 15, "note": 66, "velocity": 117, "channel": 0}, {"type": "note_off", "time": 73, "note": 66, "velocity": 117, "channel": 0}, {"type": "note_on", "time": 17, "note": 63, "velocity": 114, "channel": 0}, {"type": "note_off", "time": 89, "note": 63, "velocity": 114, "channel": 0}, {"type": "note_on", "time": 13, "note": 58, "velocity": 112, "channel": 0}, {"type": "note_off", "time": 85, "note": 58, "velocity": 112, "channel": 0}, {"type": "note_on", "time": 13, "note": 57, "velocity": 108, "channel": 0}, {"type": "note_off", "time": 98, "note": 57, "velocity": 108, "channel": 0}, {"type": "note_on", "time": 0, "note": 53, "velocity": 104, "channel": 0}, {"type": "note_off", "time": 58, "note": 53, "velocity": 104, "channel": 0}, {"type": "note_on", "time": 0, "note": 55, "velocity": 106, "channel": 0}, {"type": "note_off", "time": 87, "note": 55, "velocity": 106, "channel": 0}, {"type": "note_on", "time": 26, "note": 55, "velocity": 100, "channel": 0}, {"type": "note_off", "time": 149, "note": 55, "velocity": 100, "channel": 0}, {"type": "note_on", "time": 62, "note": 62, "velocity": 111, "channel": 0}, {"type": "note_off", "time": 96, "note": 62, "velocity": 111, "channel": 0}, {"type": "note_on", "time": 8, "note": 56, "velocity": 106, "channel": 0}, {"type": "note_off", "time": 87, "note": 56, "velocity": 106, "channel": 0}, {"type": "note_on", "time": 31, "note": 62, "velocity": 111, "channel": 0}, {"type": "note_off", "time": 69, "note": 62, "velocity": 111, "channel": 0}, {"type": "note_on", "time": 11, "note": 58, "velocity": 103, "channel": 0}, {"type": "note_off", "time": 76, "note": 58, "velocity": 103, "channel": 0}, {"type": "note_on", "time": 4, "note": 57, "velocity": 106, "channel": 0}, {"type": "note_off", "time": 85, "note": 57, "velocity": 106, "channel": 0}, {"type": "note_on", "time": 8, "note": 56, "velocity": 106, "channel": 0}, {"type": "note_off", "time": 76, "note": 56, "velocity": 106, "channel": 0}, {"type": "note_on", "time": 8, "note": 57, "velocity": 102, "channel": 0}, {"type": "note_off", "time": 122, "note": 57, "velocity": 102, "channel": 0}, {"type": "note_on", "time": 0, "note": 62, "velocity": 103, "channel": 0}, {"type": "note_off", "time": 67, "note": 62, "velocity": 103, "channel": 0}, {"type": "note_on", "time": 8, "note": 67, "velocity": 115, "channel": 0}, {"type": "note_off", "time": 60, "note": 67, "velocity": 115, "channel": 0}, {"type": "note_on", "time": 24, "note": 62, "velocity": 105, "channel": 0}, {"type": "note_off", "time": 154, "note": 62, "velocity": 105, "channel": 0}, {"type": "note_on", "time": 49, "note": 59, "velocity": 103, "channel": 0}, {"type": "note_off", "time": 96, "note": 59, "velocity": 103, "channel": 0}, {"type": "note_on", "time": 17, "note": 63, "velocity": 109, "channel": 0}, {"type": "note_off", "time": 85, "note": 63, "velocity": 109, "channel": 0}, {"type": "note_on", "time": 107, "note": 65, "velocity": 111, "channel": 0}, {"type": "note_off", "time": 82, "note": 65, "velocity": 111, "channel": 0}, {"type": "note_on", "time": 8, "note": 70, "velocity": 114, "channel": 0}, {"type": "note_off", "time": 210, "note": 70, "velocity": 114, "channel": 0}, {"type": "note_on", "time": 4, "note": 67, "velocity": 113, "channel": 0}, {"type": "note_off", "time": 94, "note": 67, "velocity": 113, "channel": 0}, {"type": "note_on", "time": 2, "note": 70, "velocity": 114, "channel": 0}, {"type": "note_off", "time": 80, "note": 70, "velocity": 114, "channel": 0}, {"type": "note_on", "time": 114, "note": 71, "velocity": 114, "channel": 0}, {"type": "note_off", "time": 71, "note": 71, "velocity": 114, "channel": 0}, {"type": "note_on", "time": 0, "note": 74, "velocity": 112, "channel": 0}, {"type": "note_off", "time": 53, "note": 74, "velocity": 112, "channel": 0}, {"type": "note_on", "time": 0, "note": 76, "velocity": 113, "channel": 0}, {"type": "note_off", "time": 42, "note": 76, "velocity": 113, "channel": 0}, {"type": "note_on", "time": 8, "note": 75, "velocity": 114, "channel": 0}, {"type": "note_off", "time": 73, "note": 75, "velocity": 114, "channel": 0}, {"type": "note_on", "time": 26, "note": 76, "velocity": 118, "channel": 0}, {"type": "note_off", "time": 80, "note": 76, "velocity": 118, "channel": 0}, {"type": "note_on", "time": 11, "note": 77, "velocity": 112, "channel": 0}, {"type": "note_off", "time": 94, "note": 77, "velocity": 112, "channel": 0}, {"type": "note_on", "time": 13, "note": 72, "velocity": 115, "channel": 0}, {"type": "note_off", "time": 89, "note": 72, "velocity": 115, "channel": 0}, {"type": "note_on", "time": 6, "note": 71, "velocity": 112, "channel": 0}, {"type": "note_off", "time": 62, "note": 71, "velocity": 112, "channel": 0}, {"type": "note_on", "time": 4, "note": 70, "velocity": 112, "channel": 0}, {"type": "note_off", "time": 98, "note": 70, "velocity": 112, "channel": 0}, {"type": "note_on", "time": 29, "note": 65, "velocity": 108, "channel": 0}, {"type": "note_off", "time": 76, "note": 65, "velocity": 108, "channel": 0}, {"type": "note_on", "time": 11, "note": 63, "velocity": 109, "channel": 0}, {"type": "note_off", "time": 91, "note": 63, "velocity": 109, "channel": 0}, {"type": "note_on", "time": 0, "note": 60, "velocity": 96, "channel": 0}, {"type": "note_off", "time": 69, "note": 60, "velocity": 96, "channel": 0}, {"type": "note_on", "time": 6, "note": 67, "velocity": 109, "channel": 0}, {"type": "note_off", "time": 111, "note": 67, "velocity": 109, "channel": 0}, {"type": "note_on", "time": 6, "note": 65, "velocity": 111, "channel": 0}, {"type": "note_off", "time": 89, "note": 65, "velocity": 111, "channel": 0}, {"type": "note_on", "time": 8, "note": 62, "velocity": 113, "channel": 0}, {"type": "note_off", "time": 100, "note": 62, "velocity": 113, "channel": 0}, {"type": "note_on", "time": 26, "note": 57, "velocity": 108, "channel": 0}, {"type": "note_off", "time": 58, "note": 57, "velocity": 108, "channel": 0}, {"type": "note_on", "time": 6, "note": 60, "velocity": 106, "channel": 0}, {"type": "note_off", "time": 67, "note": 60, "velocity": 106, "channel": 0}, {"type": "note_on", "time": 22, "note": 63, "velocity": 111, "channel": 0}, {"type": "note_off", "time": 69, "note": 63, "velocity": 111, "channel": 0}, {"type": "note_on", "time": 17, "note": 58, "velocity": 102, "channel": 0}, {"type": "note_off", "time": 78, "note": 58, "velocity": 102, "channel": 0}, {"type": "note_on", "time": 26, "note": 53, "velocity": 97, "channel": 0}, {"type": "note_off", "time": 80, "note": 53, "velocity": 97, "channel": 0}, {"type": "note_on", "time": 2, "note": 57, "velocity": 104, "channel": 0}, {"type": "note_off", "time": 85, "note": 57, "velocity": 104, "channel": 0}, {"type": "note_on", "time": 20, "note": 55, "velocity": 97, "channel": 0}, {"type": "note_off", "time": 80, "note": 55, "velocity": 97, "channel": 0}, {"type": "note_on", "time": 24, "note": 65, "velocity": 104, "channel": 0}, {"type": "note_off", "time": 167, "note": 65, "velocity": 104, "channel": 0}, {"type": "note_on", "time": 6, "note": 62, "velocity": 97, "channel": 0}, {"type": "note_off", "time": 107, "note": 62, "velocity": 97, "channel": 0}, {"type": "note_on", "time": 22, "note": 64, "velocity": 101, "channel": 0}, {"type": "note_off", "time": 38, "note": 64, "velocity": 101, "channel": 0}, {"type": "note_on", "time": 20, "note": 66, "velocity": 98, "channel": 0}, {"type": "note_off", "time": 55, "note": 66, "velocity": 98, "channel": 0}, {"type": "note_on", "time": 360, "note": 65, "velocity": 117, "channel": 0}, {"type": "note_off", "time": 89, "note": 65, "velocity": 117, "channel": 0}, {"type": "note_on", "time": 0, "note": 64, "velocity": 117, "channel": 0}, {"type": "note_off", "time": 73, "note": 64, "velocity": 117, "channel": 0}, {"type": "note_on", "time": 6, "note": 63, "velocity": 110, "channel": 0}, {"type": "note_off", "time": 62, "note": 63, "velocity": 110, "channel": 0}, {"type": "note_on", "time": 4, "note": 61, "velocity": 108, "channel": 0}, {"type": "note_off", "time": 38, "note": 61, "velocity": 108, "channel": 0}, {"type": "note_on", "time": 11, "note": 60, "velocity": 107, "channel": 0}, {"type": "note_off", "time": 40, "note": 60, "velocity": 107, "channel": 0}, {"type": "note_on", "time": 4, "note": 58, "velocity": 101, "channel": 0}, {"type": "note_off", "time": 53, "note": 58, "velocity": 101, "channel": 0}, {"type": "note_on", "time": 15, "note": 55, "velocity": 100, "channel": 0}, {"type": "note_off", "time": 49, "note": 55, "velocity": 100, "channel": 0}, {"type": "note_on", "time": 7, "note": 56, "velocity": 102, "channel": 0}, {"type": "note_off", "time": 33, "note": 56, "velocity": 102, "channel": 0}, {"type": "note_on", "time": 15, "note": 58, "velocity": 103, "channel": 0}, {"type": "note_off", "time": 33, "note": 58, "velocity": 103, "channel": 0}, {"type": "note_on", "time": 17, "note": 62, "velocity": 103, "channel": 0}, {"type": "note_off", "time": 49, "note": 62, "velocity": 103, "channel": 0}, {"type": "note_on", "time": 29, "note": 65, "velocity": 110, "channel": 0}, {"type": "note_off", "time": 42, "note": 65, "velocity": 110, "channel": 0}, {"type": "note_on", "time": 51, "note": 61, "velocity": 103, "channel": 0}, {"type": "note_off", "time": 94, "note": 61, "velocity": 103, "channel": 0}, {"type": "note_on", "time": 17, "note": 63, "velocity": 88, "channel": 0}, {"type": "note_off", "time": 22, "note": 63, "velocity": 88, "channel": 0}, {"type": "note_on", "time": 22, "note": 65, "velocity": 110, "channel": 0}, {"type": "note_off", "time": 38, "note": 65, "velocity": 110, "channel": 0}, {"type": "note_on", "time": 0, "note": 68, "velocity": 97, "channel": 0}, {"type": "note_off", "time": 31, "note": 68, "velocity": 97, "channel": 0}, {"type": "note_on", "time": 0, "note": 71, "velocity": 97, "channel": 0}, {"type": "note_off", "time": 29, "note": 71, "velocity": 97, "channel": 0}, {"type": "note_on", "time": 17, "note": 73, "velocity": 99, "channel": 0}, {"type": "note_off", "time": 29, "note": 73, "velocity": 99, "channel": 0}, {"type": "note_on", "time": 22, "note": 77, "velocity": 116, "channel": 0}, {"type": "note_off", "time": 73, "note": 77, "velocity": 116, "channel": 0}, {"type": "note_on", "time": 4, "note": 75, "velocity": 109, "channel": 0}, {"type": "note_off", "time": 398, "note": 75, "velocity": 109, "channel": 0}, {"type": "note_on", "time": 11, "note": 73, "velocity": 112, "channel": 0}, {"type": "note_off", "time": 67, "note": 73, "velocity": 112, "channel": 0}, {"type": "note_on", "time": 11, "note": 71, "velocity": 112, "channel": 0}, {"type": "note_off", "time": 40, "note": 71, "velocity": 112, "channel": 0}, {"type": "note_on", "time": 17, "note": 68, "velocity": 116, "channel": 0}, {"type": "note_off", "time": 40, "note": 68, "velocity": 116, "channel": 0}, {"type": "note_on", "time": 6, "note": 64, "velocity": 109, "channel": 0}, {"type": "note_off", "time": 199, "note": 64, "velocity": 109, "channel": 0}, {"type": "note_on", "time": 44, "note": 68, "velocity": 112, "channel": 0}, {"type": "note_off", "time": 51, "note": 68, "velocity": 112, "channel": 0}, {"type": "note_on", "time": 8, "note": 66, "velocity": 110, "channel": 0}, {"type": "note_off", "time": 49, "note": 66, "velocity": 110, "channel": 0}, {"type": "note_on", "time": 11, "note": 63, "velocity": 103, "channel": 0}, {"type": "note_off", "time": 47, "note": 63, "velocity": 103, "channel": 0}, {"type": "note_on", "time": 9, "note": 62, "velocity": 108, "channel": 0}, {"type": "note_off", "time": 37, "note": 62, "velocity": 108, "channel": 0}, {"type": "note_on", "time": 3, "note": 61, "velocity": 106, "channel": 0}, {"type": "note_off", "time": 99, "note": 61, "velocity": 106, "channel": 0}, {"type": "note_on", "time": 20, "note": 64, "velocity": 109, "channel": 0}, {"type": "note_off", "time": 29, "note": 64, "velocity": 109, "channel": 0}, {"type": "note_on", "time": 8, "note": 66, "velocity": 96, "channel": 0}, {"type": "note_off", "time": 31, "note": 66, "velocity": 96, "channel": 0}, {"type": "note_on", "time": 8, "note": 69, "velocity": 97, "channel": 0}, {"type": "note_off", "time": 31, "note": 69, "velocity": 97, "channel": 0}, {"type": "note_on", "time": 8, "note": 71, "velocity": 92, "channel": 0}, {"type": "note_off", "time": 22, "note": 71, "velocity": 92, "channel": 0}, {"type": "note_on", "time": 6, "note": 73, "velocity": 98, "channel": 0}, {"type": "note_on", "time": 38, "note": 75, "velocity": 109, "channel": 0}, {"type": "note_off", "time": 0, "note": 73, "velocity": 98, "channel": 0}, {"type": "note_off", "time": 114, "note": 75, "velocity": 109, "channel": 0}, {"type": "note_on", "time": 98, "note": 72, "velocity": 115, "channel": 0}, {"type": "note_off", "time": 35, "note": 72, "velocity": 115, "channel": 0}, {"type": "note_on", "time": 22, "note": 72, "velocity": 93, "channel": 0}, {"type": "note_off", "time": 62, "note": 72, "velocity": 93, "channel": 0}, {"type": "note_on", "time": 196, "note": 70, "velocity": 111, "channel": 0}, {"type": "note_off", "time": 80, "note": 70, "velocity": 111, "channel": 0}, {"type": "note_on", "time": 13, "note": 67, "velocity": 107, "channel": 0}, {"type": "note_off", "time": 62, "note": 67, "velocity": 107, "channel": 0}, {"type": "note_on", "time": 6, "note": 61, "velocity": 107, "channel": 0}, {"type": "note_off", "time": 71, "note": 61, "velocity": 107, "channel": 0}, {"type": "note_on", "time": 252, "note": 69, "velocity": 115, "channel": 0}, {"type": "note_on", "time": 71, "note": 66, "velocity": 106, "channel": 0}, {"type": "note_off", "time": 0, "note": 69, "velocity": 115, "channel": 0}, {"type": "note_off", "time": 51, "note": 66, "velocity": 106, "channel": 0}, {"type": "note_on", "time": 2, "note": 61, "velocity": 108, "channel": 0}, {"type": "note_off", "time": 53, "note": 61, "velocity": 108, "channel": 0}, {"type": "note_on", "time": 11, "note": 59, "velocity": 101, "channel": 0}, {"type": "note_off", "time": 42, "note": 59, "velocity": 101, "channel": 0}, {"type": "note_on", "time": 4, "note": 64, "velocity": 113, "channel": 0}, {"type": "note_off", "time": 107, "note": 64, "velocity": 113, "channel": 0}, {"type": "note_on", "time": 40, "note": 66, "velocity": 111, "channel": 0}, {"type": "note_off", "time": 76, "note": 66, "velocity": 111, "channel": 0}, {"type": "note_on", "time": 35, "note": 63, "velocity": 89, "channel": 0}, {"type": "note_off", "time": 44, "note": 63, "velocity": 89, "channel": 0}, {"type": "note_on", "time": 13, "note": 65, "velocity": 111, "channel": 0}, {"type": "note_off", "time": 60, "note": 65, "velocity": 111, "channel": 0}, {"type": "note_on", "time": 20, "note": 66, "velocity": 110, "channel": 0}, {"type": "note_off", "time": 42, "note": 66, "velocity": 110, "channel": 0}, {"type": "note_on", "time": 8, "note": 62, "velocity": 103, "channel": 0}, {"type": "note_off", "time": 51, "note": 62, "velocity": 103, "channel": 0}, {"type": "note_on", "time": 4, "note": 59, "velocity": 96, "channel": 0}, {"type": "note_off", "time": 62, "note": 59, "velocity": 96, "channel": 0}, {"type": "note_on", "time": 71, "note": 60, "velocity": 104, "channel": 0}, {"type": "note_off", "time": 35, "note": 60, "velocity": 104, "channel": 0}, {"type": "note_on", "time": 17, "note": 62, "velocity": 107, "channel": 0}, {"type": "note_off", "time": 64, "note": 62, "velocity": 107, "channel": 0}, {"type": "note_on", "time": 0, "note": 58, "velocity": 104, "channel": 0}, {"type": "note_off", "time": 51, "note": 58, "velocity": 104, "channel": 0}, {"type": "note_on", "time": 2, "note": 54, "velocity": 104, "channel": 0}, {"type": "note_off", "time": 60, "note": 54, "velocity": 104, "channel": 0}, {"type": "note_on", "time": 15, "note": 55, "velocity": 105, "channel": 0}, {"type": "note_off", "time": 71, "note": 55, "velocity": 105, "channel": 0}, {"type": "note_on", "time": 362, "note": 55, "velocity": 105, "channel": 0}, {"type": "note_off", "time": 295, "note": 55, "velocity": 105, "channel": 0}, {"type": "note_on", "time": 26, "note": 58, "velocity": 98, "channel": 0}, {"type": "note_off", "time": 80, "note": 58, "velocity": 98, "channel": 0}, {"type": "note_on", "time": 2, "note": 61, "velocity": 99, "channel": 0}, {"type": "note_off", "time": 73, "note": 61, "velocity": 99, "channel": 0}, {"type": "note_on", "time": 24, "note": 63, "velocity": 110, "channel": 0}, {"type": "note_off", "time": 78, "note": 63, "velocity": 110, "channel": 0}, {"type": "note_on", "time": 24, "note": 66, "velocity": 112, "channel": 0}, {"type": "note_off", "time": 91, "note": 66, "velocity": 112, "channel": 0}, {"type": "note_on", "time": 17, "note": 62, "velocity": 107, "channel": 0}, {"type": "note_off", "time": 76, "note": 62, "velocity": 107, "channel": 0}, {"type": "note_on", "time": 13, "note": 61, "velocity": 106, "channel": 0}, {"type": "note_off", "time": 85, "note": 61, "velocity": 106, "channel": 0}, {"type": "note_on", "time": 0, "note": 63, "velocity": 114, "channel": 0}, {"type": "note_off", "time": 60, "note": 63, "velocity": 114, "channel": 0}, {"type": "note_on", "time": 17, "note": 66, "velocity": 113, "channel": 0}, {"type": "note_off", "time": 71, "note": 66, "velocity": 113, "channel": 0}, {"type": "note_on", "time": 11, "note": 68, "velocity": 104, "channel": 0}, {"type": "note_off", "time": 78, "note": 68, "velocity": 104, "channel": 0}, {"type": "note_on", "time": 0, "note": 71, "velocity": 109, "channel": 0}, {"type": "note_off", "time": 87, "note": 71, "velocity": 109, "channel": 0}, {"type": "note_on", "time": 15, "note": 73, "velocity": 103, "channel": 0}, {"type": "note_off", "time": 89, "note": 73, "velocity": 103, "channel": 0}, {"type": "note_on", "time": 17, "note": 75, "velocity": 110, "channel": 0}, {"type": "note_off", "time": 80, "note": 75, "velocity": 110, "channel": 0}, {"type": "note_on", "time": 13, "note": 76, "velocity": 107, "channel": 0}, {"type": "note_off", "time": 94, "note": 76, "velocity": 107, "channel": 0}, {"type": "note_on", "time": 71, "note": 80, "velocity": 116, "channel": 0}, {"type": "note_off", "time": 44, "note": 80, "velocity": 116, "channel": 0}, {"type": "note_on", "time": 4, "note": 81, "velocity": 107, "channel": 0}, {"type": "note_off", "time": 53, "note": 81, "velocity": 107, "channel": 0}, {"type": "note_on", "time": 13, "note": 79, "velocity": 104, "channel": 0}, {"type": "note_off", "time": 94, "note": 79, "velocity": 104, "channel": 0}, {"type": "note_on", "time": 3, "note": 78, "velocity": 110, "channel": 0}, {"type": "note_off", "time": 21, "note": 78, "velocity": 110, "channel": 0}, {"type": "note_on", "time": 1, "note": 77, "velocity": 116, "channel": 0}, {"type": "note_off", "time": 15, "note": 77, "velocity": 116, "channel": 0}, {"type": "note_on", "time": 1, "note": 77, "velocity": 113, "channel": 0}, {"type": "note_off", "time": 80, "note": 77, "velocity": 113, "channel": 0}, {"type": "note_on", "time": 0, "note": 75, "velocity": 114, "channel": 0}, {"type": "note_off", "time": 94, "note": 75, "velocity": 114, "channel": 0}, {"type": "note_on", "time": 47, "note": 74, "velocity": 105, "channel": 0}, {"type": "note_off", "time": 170, "note": 74, "velocity": 105, "channel": 0}, {"type": "note_on", "time": 42, "note": 68, "velocity": 105, "channel": 0}, {"type": "note_off", "time": 64, "note": 68, "velocity": 105, "channel": 0}, {"type": "note_on", "time": 6, "note": 70, "velocity": 108, "channel": 0}, {"type": "note_off", "time": 55, "note": 70, "velocity": 108, "channel": 0}, {"type": "note_on", "time": 20, "note": 74, "velocity": 118, "channel": 0}, {"type": "note_off", "time": 85, "note": 74, "velocity": 118, "channel": 0}, {"type": "note_on", "time": 15, "note": 72, "velocity": 111, "channel": 0}, {"type": "note_off", "time": 76, "note": 72, "velocity": 111, "channel": 0}, {"type": "note_on", "time": 11, "note": 71, "velocity": 112, "channel": 0}, {"type": "note_off", "time": 76, "note": 71, "velocity": 112, "channel": 0}, {"type": "note_on", "time": 8, "note": 70, "velocity": 111, "channel": 0}, {"type": "note_off", "time": 96, "note": 70, "velocity": 111, "channel": 0}, {"type": "note_on", "time": 15, "note": 69, "velocity": 110, "channel": 0}, {"type": "note_off", "time": 94, "note": 69, "velocity": 110, "channel": 0}, {"type": "note_on", "time": 2, "note": 68, "velocity": 112, "channel": 0}, {"type": "note_off", "time": 69, "note": 68, "velocity": 112, "channel": 0}, {"type": "note_on", "time": 0, "note": 70, "velocity": 109, "channel": 0}, {"type": "note_off", "time": 109, "note": 70, "velocity": 109, "channel": 0}, {"type": "note_on", "time": 11, "note": 69, "velocity": 115, "channel": 0}, {"type": "note_off", "time": 116, "note": 69, "velocity": 115, "channel": 0}, {"type": "note_on", "time": 255, "note": 64, "velocity": 113, "channel": 0}, {"type": "note_off", "time": 118, "note": 64, "velocity": 113, "channel": 0}, {"type": "note_on", "time": 6, "note": 60, "velocity": 107, "channel": 0}, {"type": "note_off", "time": 58, "note": 60, "velocity": 107, "channel": 0}, {"type": "note_on", "time": 15, "note": 62, "velocity": 111, "channel": 0}, {"type": "note_off", "time": 55, "note": 62, "velocity": 111, "channel": 0}, {"type": "note_on", "time": 6, "note": 64, "velocity": 106, "channel": 0}, {"type": "note_off", "time": 76, "note": 64, "velocity": 106, "channel": 0}, {"type": "note_on", "time": 17, "note": 67, "velocity": 109, "channel": 0}, {"type": "note_off", "time": 80, "note": 67, "velocity": 109, "channel": 0}, {"type": "note_on", "time": 26, "note": 69, "velocity": 94, "channel": 0}, {"type": "note_off", "time": 58, "note": 69, "velocity": 94, "channel": 0}, {"type": "note_on", "time": 44, "note": 71, "velocity": 116, "channel": 0}, {"type": "note_off", "time": 105, "note": 71, "velocity": 116, "channel": 0}, {"type": "note_on", "time": 0, "note": 75, "velocity": 112, "channel": 0}, {"type": "note_off", "time": 98, "note": 75, "velocity": 112, "channel": 0}, {"type": "note_on", "time": 778, "note": 70, "velocity": 121, "channel": 0}, {"type": "note_off", "time": 85, "note": 70, "velocity": 121, "channel": 0}, {"type": "note_on", "time": 2, "note": 69, "velocity": 122, "channel": 0}, {"type": "note_off", "time": 71, "note": 69, "velocity": 122, "channel": 0}, {"type": "note_on", "time": 17, "note": 68, "velocity": 109, "channel": 0}, {"type": "note_off", "time": 82, "note": 68, "velocity": 109, "channel": 0}, {"type": "note_on", "time": 324, "note": 65, "velocity": 118, "channel": 0}, {"type": "note_off", "time": 87, "note": 65, "velocity": 118, "channel": 0}, {"type": "note_on", "time": 4, "note": 66, "velocity": 116, "channel": 0}, {"type": "note_off", "time": 64, "note": 66, "velocity": 116, "channel": 0}, {"type": "note_on", "time": 6, "note": 61, "velocity": 110, "channel": 0}, {"type": "note_off", "time": 53, "note": 61, "velocity": 110, "channel": 0}, {"type": "note_on", "time": 2, "note": 62, "velocity": 105, "channel": 0}, {"type": "note_off", "time": 58, "note": 62, "velocity": 105, "channel": 0}, {"type": "note_on", "time": 12, "note": 59, "velocity": 101, "channel": 0}, {"type": "note_off", "time": 31, "note": 59, "velocity": 101, "channel": 0}, {"type": "note_on", "time": 7, "note": 67, "velocity": 115, "channel": 0}, {"type": "note_off", "time": 102, "note": 67, "velocity": 115, "channel": 0}, {"type": "note_on", "time": 6, "note": 66, "velocity": 114, "channel": 0}, {"type": "note_off", "time": 82, "note": 66, "velocity": 114, "channel": 0}, {"type": "note_on", "time": 2, "note": 64, "velocity": 116, "channel": 0}, {"type": "note_off", "time": 89, "note": 64, "velocity": 116, "channel": 0}, {"type": "note_on", "time": 20, "note": 65, "velocity": 111, "channel": 0}, {"type": "note_off", "time": 85, "note": 65, "velocity": 111, "channel": 0}, {"type": "note_on", "time": 11, "note": 66, "velocity": 117, "channel": 0}, {"type": "note_off", "time": 80, "note": 66, "velocity": 117, "channel": 0}, {"type": "note_on", "time": 4, "note": 63, "velocity": 112, "channel": 0}, {"type": "note_off", "time": 87, "note": 63, "velocity": 112, "channel": 0}, {"type": "note_on", "time": 6, "note": 62, "velocity": 108, "channel": 0}, {"type": "note_off", "time": 60, "note": 62, "velocity": 108, "channel": 0}, {"type": "note_on", "time": 51, "note": 66, "velocity": 109, "channel": 0}, {"type": "note_off", "time": 76, "note": 66, "velocity": 109, "channel": 0}, {"type": "note_on", "time": 8, "note": 69, "velocity": 116, "channel": 0}, {"type": "note_off", "time": 76, "note": 69, "velocity": 116, "channel": 0}, {"type": "note_on", "time": 53, "note": 61, "velocity": 104, "channel": 0}, {"type": "note_off", "time": 76, "note": 61, "velocity": 104, "channel": 0}, {"type": "note_on", "time": 11, "note": 59, "velocity": 100, "channel": 0}, {"type": "note_off", "time": 90, "note": 59, "velocity": 100, "channel": 0}, {"type": "note_on", "time": 10, "note": 60, "velocity": 107, "channel": 0}, {"type": "note_off", "time": 62, "note": 60, "velocity": 107, "channel": 0}, {"type": "note_on", "time": 17, "note": 63, "velocity": 114, "channel": 0}, {"type": "note_off", "time": 85, "note": 63, "velocity": 114, "channel": 0}, {"type": "note_on", "time": 0, "note": 58, "velocity": 108, "channel": 0}, {"type": "note_off", "time": 62, "note": 58, "velocity": 108, "channel": 0}, {"type": "note_on", "time": 11, "note": 53, "velocity": 101, "channel": 0}, {"type": "note_off", "time": 69, "note": 53, "velocity": 101, "channel": 0}, {"type": "note_on", "time": 20, "note": 58, "velocity": 99, "channel": 0}, {"type": "note_off", "time": 82, "note": 58, "velocity": 99, "channel": 0}, {"type": "note_on", "time": 2, "note": 57, "velocity": 103, "channel": 0}, {"type": "note_off", "time": 82, "note": 57, "velocity": 103, "channel": 0}, {"type": "note_on", "time": 20, "note": 58, "velocity": 97, "channel": 0}, {"type": "note_off", "time": 73, "note": 58, "velocity": 97, "channel": 0}, {"type": "note_on", "time": 55, "note": 60, "velocity": 96, "channel": 0}, {"type": "note_off", "time": 71, "note": 60, "velocity": 96, "channel": 0}, {"type": "note_on", "time": 6, "note": 65, "velocity": 110, "channel": 0}, {"type": "note_off", "time": 82, "note": 65, "velocity": 110, "channel": 0}, {"type": "note_on", "time": 20, "note": 63, "velocity": 107, "channel": 0}, {"type": "note_off", "time": 78, "note": 63, "velocity": 107, "channel": 0}, {"type": "note_on", "time": 0, "note": 67, "velocity": 104, "channel": 0}, {"type": "note_off", "time": 76, "note": 67, "velocity": 104, "channel": 0}, {"type": "note_on", "time": 226, "note": 70, "velocity": 102, "channel": 0}, {"type": "note_off", "time": 210, "note": 70, "velocity": 102, "channel": 0}, {"type": "note_on", "time": 0, "note": 65, "velocity": 105, "channel": 0}, {"type": "note_off", "time": 96, "note": 65, "velocity": 105, "channel": 0}, {"type": "note_on", "time": 4, "note": 63, "velocity": 101, "channel": 0}, {"type": "note_off", "time": 85, "note": 63, "velocity": 101, "channel": 0}, {"type": "note_on", "time": 0, "note": 60, "velocity": 98, "channel": 0}, {"type": "note_off", "time": 111, "note": 60, "velocity": 98, "channel": 0}, {"type": "note_on", "time": 42, "note": 67, "velocity": 103, "channel": 0}, {"type": "note_off", "time": 100, "note": 67, "velocity": 103, "channel": 0}, {"type": "note_on", "time": 6, "note": 65, "velocity": 101, "channel": 0}, {"type": "note_off", "time": 76, "note": 65, "velocity": 101, "channel": 0}, {"type": "note_on", "time": 194, "note": 60, "velocity": 98, "channel": 0}, {"type": "note_off", "time": 98, "note": 60, "velocity": 98, "channel": 0}, {"type": "note_on", "time": 0, "note": 63, "velocity": 94, "channel": 0}, {"type": "note_off", "time": 102, "note": 63, "velocity": 94, "channel": 0}, {"type": "note_on", "time": 8, "note": 58, "velocity": 96, "channel": 0}, {"type": "note_off", "time": 78, "note": 58, "velocity": 96, "channel": 0}, {"type": "note_on", "time": 8, "note": 55, "velocity": 90, "channel": 0}, {"type": "note_off", "time": 91, "note": 55, "velocity": 90, "channel": 0}, {"type": "note_on", "time": 6, "note": 57, "velocity": 96, "channel": 0}, {"type": "note_off", "time": 87, "note": 57, "velocity": 96, "channel": 0}, {"type": "note_on", "time": 31, "note": 65, "velocity": 95, "channel": 0}, {"type": "note_off", "time": 67, "note": 65, "velocity": 95, "channel": 0}, {"type": "note_on", "time": 116, "note": 63, "velocity": 89, "channel": 0}, {"type": "note_off", "time": 136, "note": 63, "velocity": 89, "channel": 0}, {"type": "end_of_track", "time": 0}]]}