{"ticks_per_beat": 192, "tracks": [[{"type": "track_name", "name": "Melody", "time": 0}, {"type": "set_tempo", "tempo": 223880, "time": 0}, {"type": "key_signature", "key": "Ab", "time": 0}, {"type": "time_signature", "numerator": 4, "denominator": 4, "clocks_per_click": 24, "notated_32nd_notes_per_beat": 8, "time": 0}, {"type": "note_on", "time": 3885, "note": 76, "velocity": 117, "channel": 0}, {"type": "note_off", "time": 79, "note": 76, "velocity": 117, "channel": 0}, {"type": "note_on", "time": 27, "note": 78, "velocity": 114, "channel": 0}, {"type": "note_off", "time": 54, "note": 78, "velocity": 114, "channel": 0}, {"type": "note_on", "time": 34, "note": 80, "velocity": 104, "channel": 0}, {"type": "note_off", "time": 121, "note": 80, "velocity": 104, "channel": 0}, {"type": "note_on", "time": 156, "note": 82, "velocity": 116, "channel": 0}, {"type": "note_off", "time": 154, "note": 82, "velocity": 116, "channel": 0}, {"type": "note_on", "time": 24, "note": 79, "velocity": 116, "channel": 0}, {"type": "note_off", "time": 87, "note": 79, "velocity": 116, "channel": 0}, {"type": "note_on", "time": 102, "note": 75, "velocity": 124, "channel": 0}, {"type": "note_off", "time": 139, "note": 75, "velocity": 124, "channel": 0}, {"type": "note_on", "time": 31, "note": 80, "velocity": 113, "channel": 0}, {"type": "note_off", "time": 96, "note": 80, "velocity": 113, "channel": 0}, {"type": "note_on", "time": 21, "note": 80, "velocity": 112, "channel": 0}, {"type": "note_off", "time": 171, "note": 80, "velocity": 112, "channel": 0}, {"type": "note_on", "time": 291, "note": 79, "velocity": 116, "channel": 0}, {"type": "note_off", "time": 124, "note": 79, "velocity": 116, "channel": 0}, {"type": "note_on", "time": 73, "note": 77, "velocity": 120, "channel": 0}, {"type": "note_off", "time": 101, "note": 77, "velocity": 120, "channel": 0}, {"type": "note_on", "time": 18, "note": 75, "velocity": 117, "channel": 0}, {"type": "note_off", "time": 129, "note": 75, "velocity": 117, "channel": 0}, {"type": "note_on", "time": 326, "note": 77, "velocity": 119, "channel": 0}, {"type": "note_off", "time": 180, "note": 77, "velocity": 119, "channel": 0}, {"type": "note_on", "time": 22, "note": 75, "velocity": 120, "channel": 0}, {"type": "note_off", "time": 98, "note": 75, "velocity": 120, "channel": 0}, {"type": "note_on", "time": 5, "note": 77, "velocity": 119, "channel": 0}, {"type": "note_off", "time": 96, "note": 77, "velocity": 119, "channel": 0}, {"type": "note_on", "time": 10, "note": 75, "velocity": 119, "channel": 0}, {"type": "note_off", "time": 84, "note": 75, "velocity": 119, "channel": 0}, {"type": "note_on", "time": 31, "note": 74, "velocity": 120, "channel": 0}, {"type": "note_off", "time": 70, "note": 74, "velocity": 120, "channel": 0}, {"type": "note_on", "time": 19, "note": 73, "velocity": 121, "channel": 0}, {"type": "note_off", "time": 68, "note": 73, "velocity": 121, "channel": 0}, {"type": "note_on", "time": 31, "note": 71, "velocity": 111, "channel": 0}, {"type": "note_off", "time": 70, "note": 71, "velocity": 111, "channel": 0}, {"type": "note_on", "time": 15, "note": 70, "velocity": 108, "channel": 0}, {"type": "note_off", "time": 94, "note": 70, "velocity": 108, "channel": 0}, {"type": "note_on", "time": 22, "note": 66, "velocity": 120, "channel": 0}, {"type": "note_off", "time": 80, "note": 66, "velocity": 120, "channel": 0}, {"type": "note_on", "time": 19, "note": 64, "velocity": 116, "channel": 0}, {"type": "note_off", "time": 120, "note": 64, "velocity": 116, "channel": 0}, {"type": "note_on", "time": 261, "note": 68, "velocity": 114, "channel": 0}, {"type": "note_off", "time": 65, "note": 68, "velocity": 114, "channel": 0}, {"type": "note_on", "time": 9, "note": 69, "velocity": 115, "channel": 0}, {"type": "note_off", "time": 287, "note": 69, "velocity": 115, "channel": 0}, {"type": "note_on", "time": 7, "note": 65, "velocity": 117, "channel": 0}, {"type": "note_off", "time": 570, "note": 65, "velocity": 117, "channel": 0}, {"type": "note_on", "time": 34, "note": 68, "velocity": 112, "channel": 0}, {"type": "note_off", "time": 362, "note": 68, "velocity": 112, "channel": 0}, {"type": "note_on", "time": 34, "note": 63, "velocity": 117, "channel": 0}, {"type": "note_off", "time": 107, "note": 63, "velocity": 117, "channel": 0}, {"type": "note_on", "time": 17, "note": 65, "velocity": 111, "channel": 0}, {"type": "note_off", "time": 58, "note": 65, "velocity": 111, "channel": 0}, {"type": "note_on", "time": 18, "note": 67, "velocity": 113, "channel": 0}, {"type": "note_off", "time": 85, "note": 67, "velocity": 113, "channel": 0}, {"type": "note_on", "time": 19, "note": 68, "velocity": 113, "channel": 0}, {"type": "note_off", "time": 80, "note": 68, "velocity": 113, "channel": 0}, {"type": "note_on", "time": 21, "note": 67, "velocity": 118, "channel": 0}, {"type": "note_off", "time": 78, "note": 67, "velocity": 118, "channel": 0}, {"type": "note_on", "time": 18, "note": 65, "velocity": 122, "channel": 0}, {"type": "note_off", "time": 73, "note": 65, "velocity": 122, "channel": 0}, {"type": "note_on", "time": 19, "note": 63, "velocity": 120, "channel": 0}, {"type": "note_off", "time": 83, "note": 63, "velocity": 120, "channel": 0}, {"type": "note_on", "time": 17, "note": 62, "velocity": 125, "channel": 0}, {"type": "note_off", "time": 74, "note": 62, "velocity": 125, "channel": 0}, {"type": "note_on", "time": 17, "note": 61, "velocity": 117, "channel": 0}, {"type": "note_off", "time": 73, "note": 61, "velocity": 117, "channel": 0}, {"type": "note_on", "time": 292, "note": 75, "velocity": 123, "channel": 0}, {"type": "note_off", "time": 121, "note": 75, "velocity": 123, "channel": 0}, {"type": "note_on", "time": 12, "note": 77, "velocity": 118, "channel": 0}, {"type": "note_off", "time": 65, "note": 77, "velocity": 118, "channel": 0}, {"type": "note_on", "time": 11, "note": 79, "velocity": 119, "channel": 0}, {"type": "note_off", "time": 114, "note": 79, "velocity": 119, "channel": 0}, {"type": "note_on", "time": 8, "note": 80, "velocity": 114, "channel": 0}, {"type": "note_off", "time": 97, "note": 80, "velocity": 114, "channel": 0}, {"type": "note_on", "time": 17, "note": 78, "velocity": 117, "channel": 0}, {"type": "note_off", "time": 94, "note": 78, "velocity": 117, "channel": 0}, {"type": "note_on", "time": 266, "note": 77, "velocity": 119, "channel": 0}, {"type": "note_off", "time": 98, "note": 77, "velocity": 119, "channel": 0}, {"type": "note_on", "time": 177, "note": 76, "velocity": 119, "channel": 0}, {"type": "note_off", "time": 124, "note": 76, "velocity": 119, "channel": 0}, {"type": "note_on", "time": 174, "note": 75, "velocity": 122, "channel": 0}, {"type": "note_off", "time": 114, "note": 75, "velocity": 122, "channel": 0}, {"type": "note_on", "time": 276, "note": 79, "velocity": 121, "channel": 0}, {"type": "note_off", "time": 215, "note": 79, "velocity": 121, "channel": 0}, {"type": "note_on", "time": 370, "note": 78, "velocity": 121, "channel": 0}, {"type": "note_off", "time": 85, "note": 78, "velocity": 121, "channel": 0}, {"type": "note_on", "time": 18, "note": 76, "velocity": 120, "channel": 0}, {"type": "note_off", "time": 52, "note": 76, "velocity": 120, "channel": 0}, {"type": "note_on", "time": 13, "note": 75, "velocity": 120, "channel": 0}, {"type": "note_off", "time": 108, "note": 75, "velocity": 120, "channel": 0}, {"type": "note_on", "time": 11, "note": 73, "velocity": 127, "channel": 0}, {"type": "note_off", "time": 68, "note": 73, "velocity": 127, "channel": 0}, {"type": "note_on", "time": 17, "note": 72, "velocity": 124, "channel": 0}, {"type": "note_off", "time": 103, "note": 72, "velocity": 124, "channel": 0}, {"type": "note_on", "time": 28, "note": 69, "velocity": 116, "channel": 0}, {"type": "note_off", "time": 57, "note": 69, "velocity": 116, "channel": 0}, {"type": "note_on", "time": 18, "note": 65, "velocity": 116, "channel": 0}, {"type": "note_off", "time": 75, "note": 65, "velocity": 116, "channel": 0}, {"type": "note_on", "time": 24, "note": 63, "velocity": 118, "channel": 0}, {"type": "note_off", "time": 62, "note": 63, "velocity": 118, "channel": 0}, {"type": "note_on", "time": 28, "note": 62, "velocity": 120, "channel": 0}, {"type": "note_off", "time": 85, "note": 62, "velocity": 120, "channel": 0}, {"type": "note_on", "time": 27, "note": 65, "velocity": 116, "channel": 0}, {"type": "note_off", "time": 53, "note": 65, "velocity": 116, "channel": 0}, {"type": "note_on", "time": 14, "note": 68, "velocity": 112, "channel": 0}, {"type": "note_off", "time": 75, "note": 68, "velocity": 112, "channel": 0}, {"type": "note_on", "time": 21, "note": 72, "velocity": 119, "channel": 0}, {"type": "note_off", "time": 79, "note": 72, "velocity": 119, "channel": 0}, {"type": "note_on", "time": 9, "note": 73, "velocity": 117, "channel": 0}, {"type": "note_off", "time": 88, "note": 73, "velocity": 117, "channel": 0}, {"type": "note_on", "time": 32, "note": 76, "velocity": 116, "channel": 0}, {"type": "note_off", "time": 60, "note": 76, "velocity": 116, "channel": 0}, {"type": "note_on", "time": 16, "note": 79, "velocity": 116, "channel": 0}, {"type": "note_off", "time": 104, "note": 79, "velocity": 116, "channel": 0}, {"type": "note_on", "time": 12, "note": 83, "velocity": 117, "channel": 0}, {"type": "note_off", "time": 78, "note": 83, "velocity": 117, "channel": 0}, {"type": "note_on", "time": 2, "note": 82, "velocity": 113, "channel": 0}, {"type": "note_off", "time": 80, "note": 82, "velocity": 113, "channel": 0}, {"type": "note_on", "time": 18, "note": 78, "velocity": 121, "channel": 0}, {"type": "note_off", "time": 85, "note": 78, "velocity": 121, "channel": 0}, {"type": "note_on", "time": 11, "note": 75, "velocity": 120, "channel": 0}, {"type": "note_off", "time": 74, "note": 75, "velocity": 120, "channel": 0}, {"type": "note_on", "time": 13, "note": 72, "velocity": 119, "channel": 0}, {"type": "note_off", "time": 94, "note": 72, "velocity": 119, "channel": 0}, {"type": "note_on", "time": 9, "note": 71, "velocity": 107, "channel": 0}, {"type": "note_off", "time": 103, "note": 71, "velocity": 107, "channel": 0}, {"type": "note_on", "time": 14, "note": 69, "velocity": 109, "channel": 0}, {"type": "note_off", "time": 60, "note": 69, "velocity": 109, "channel": 0}, {"type": "note_on", "time": 11, "note": 67, "velocity": 113, "channel": 0}, {"type": "note_off", "time": 90, "note": 67, "velocity": 113, "channel": 0}, {"type": "note_on", "time": 26, "note": 65, "velocity": 125, "channel": 0}, {"type": "note_off", "time": 38, "note": 65, "velocity": 125, "channel": 0}, {"type": "note_on", "time": 16, "note": 64, "velocity": 120, "channel": 0}, {"type": "note_off", "time": 94, "note": 64, "velocity": 120, "channel": 0}, {"type": "note_on", "time": 34, "note": 61, "velocity": 120, "channel": 0}, {"type": "note_off", "time": 44, "note": 61, "velocity": 120, "channel": 0}, {"type": "note_on", "time": 12, "note": 64, "velocity": 113, "channel": 0}, {"type": "note_off", "time": 115, "note": 64, "velocity": 113, "channel": 0}, {"type": "note_on", "time": 31, "note": 66, "velocity": 114, "channel": 0}, {"type": "note_off", "time": 235, "note": 66, "velocity": 114, "channel": 0}, {"type": "note_on", "time": 14, "note": 63, "velocity": 116, "channel": 0}, {"type": "note_off", "time": 336, "note": 63, "velocity": 116, "channel": 0}, {"type": "note_on", "time": 16, "note": 62, "velocity": 120, "channel": 0}, {"type": "note_off", "time": 201, "note": 62, "velocity": 120, "channel": 0}, {"type": "note_on", "time": 13, "note": 61, "velocity": 117, "channel": 0}, {"type": "note_off", "time": 326, "note": 61, "velocity": 117, "channel": 0}, {"type": "note_on", "time": 17, "note": 60, "velocity": 118, "channel": 0}, {"type": "note_off", "time": 251, "note": 60, "velocity": 118, "channel": 0}, {"type": "note_on", "time": 28, "note": 62, "velocity": 119, "channel": 0}, {"type": "note_off", "time": 98, "note": 62, "velocity": 119, "channel": 0}, {"type": "note_on", "time": 14, "note": 66, "velocity": 114, "channel": 0}, {"type": "note_off", "time": 59, "note": 66, "velocity": 114, "channel": 0}, {"type": "note_on", "time": 29, "note": 69, "velocity": 109, "channel": 0}, {"type": "note_off", "time": 100, "note": 69, "velocity": 109, "channel": 0}, {"type": "note_on", "time": 21, "note": 66, "velocity": 115, "channel": 0}, {"type": "note_off", "time": 57, "note": 66, "velocity": 115, "channel": 0}, {"type": "note_on", "time": 19, "note": 67, "velocity": 112, "channel": 0}, {"type": "note_off", "time": 87, "note": 67, "velocity": 112, "channel": 0}, {"type": "note_on", "time": 8, "note": 71, "velocity": 113, "channel": 0}, {"type": "note_off", "time": 58, "note": 71, "velocity": 113, "channel": 0}, {"type": "note_on", "time": 17, "note": 74, "velocity": 122, "channel": 0}, {"type": "note_off", "time": 107, "note": 74, "velocity": 122, "channel": 0}, {"type": "note_on", "time": 9, "note": 72, "velocity": 123, "channel": 0}, {"type": "note_off", "time": 73, "note": 72, "velocity": 123, "channel": 0}, {"type": "note_on", "time": 14, "note": 76, "velocity": 123, "channel": 0}, {"type": "note_off", "time": 72, "note": 76, "velocity": 123, "channel": 0}, {"type": "note_on", "time": 44, "note": 79, "velocity": 119, "channel": 0}, {"type": "note_off", "time": 68, "note": 79, "velocity": 119, "channel": 0}, {"type": "note_on", "time": 22, "note": 82, "velocity": 114, "channel": 0}, {"type": "note_off", "time": 74, "note": 82, "velocity": 114, "channel": 0}, {"type": "note_on", "time": 33, "note": 81, "velocity": 120, "channel": 0}, {"type": "note_off", "time": 70, "note": 81, "velocity": 120, "channel": 0}, {"type": "note_on", "time": 14, "note": 79, "velocity": 115, "channel": 0}, {"type": "note_off", "time": 77, "note": 79, "velocity": 115, "channel": 0}, {"type": "note_on", "time": 9, "note": 77, "velocity": 121, "channel": 0}, {"type": "note_off", "time": 67, "note": 77, "velocity": 121, "channel": 0}, {"type": "note_on", "time": 14, "note": 76, "velocity": 123, "channel": 0}, {"type": "note_off", "time": 80, "note": 76, "velocity": 123, "channel": 0}, {"type": "note_on", "time": 13, "note": 75, "velocity": 122, "channel": 0}, {"type": "note_off", "time": 82, "note": 75, "velocity": 122, "channel": 0}, {"type": "note_on", "time": 17, "note": 74, "velocity": 124, "channel": 0}, {"type": "note_off", "time": 94, "note": 74, "velocity": 124, "channel": 0}, {"type": "note_on", "time": 11, "note": 73, "velocity": 122, "channel": 0}, {"type": "note_off", "time": 84, "note": 73, "velocity": 122, "channel": 0}, {"type": "note_on", "time": 0, "note": 74, "velocity": 123, "channel": 0}, {"type": "note_off", "time": 89, "note": 74, "velocity": 123, "channel": 0}, {"type": "note_on", "time": 29, "note": 75, "velocity": 121, "channel": 0}, {"type": "note_off", "time": 87, "note": 75, "velocity": 121, "channel": 0}, {"type": "note_on", "time": 9, "note": 73, "velocity": 122, "channel": 0}, {"type": "note_off", "time": 79, "note": 73, "velocity": 122, "channel": 0}, {"type": "note_on", "time": 8, "note": 75, "velocity": 121, "channel": 0}, {"type": "note_off", "time": 90, "note": 75, "velocity": 121, "channel": 0}, {"type": "note_on", "time": 16, "note": 72, "velocity": 116, "channel": 0}, {"type": "note_off", "time": 121, "note": 72, "velocity": 116, "channel": 0}, {"type": "note_on", "time": 250, "note": 71, "velocity": 113, "channel": 0}, {"type": "note_off", "time": 97, "note": 71, "velocity": 113, "channel": 0}, {"type": "note_on", "time": 14, "note": 69, "velocity": 117, "channel": 0}, {"type": "note_off", "time": 69, "note": 69, "velocity": 117, "channel": 0}, {"type": "note_on", "time": 11, "note": 67, "velocity": 120, "channel": 0}, {"type": "note_off", "time": 78, "note": 67, "velocity": 120, "channel": 0}, {"type": "note_on", "time": 31, "note": 65, "velocity": 119, "channel": 0}, {"type": "note_off", "time": 72, "note": 65, "velocity": 119, "channel": 0}, {"type": "note_on", "time": 8, "note": 66, "velocity": 116, "channel": 0}, {"type": "note_off", "time": 103, "note": 66, "velocity": 116, "channel": 0}, {"type": "note_on", "time": 22, "note": 64, "velocity": 121, "channel": 0}, {"type": "note_off", "time": 64, "note": 64, "velocity": 121, "channel": 0}, {"type": "note_on", "time": 12, "note": 63, "velocity": 119, "channel": 0}, {"type": "note_off", "time": 93, "note": 63, "velocity": 119, "channel": 0}, {"type": "note_on", "time": 18, "note": 61, "velocity": 119, "channel": 0}, {"type": "note_off", "time": 62, "note": 61, "velocity": 119, "channel": 0}, {"type": "note_on", "time": 13, "note": 60, "velocity": 119, "channel": 0}, {"type": "note_off", "time": 97, "note": 60, "velocity": 119, "channel": 0}, {"type": "note_on", "time": 12, "note": 62, "velocity": 121, "channel": 0}, {"type": "note_off", "time": 51, "note": 62, "velocity": 121, "channel": 0}, {"type": "note_on", "time": 22, "note": 63, "velocity": 116, "channel": 0}, {"type": "note_off", "time": 95, "note": 63, "velocity": 116, "channel": 0}, {"type": "note_on", "time": 34, "note": 65, "velocity": 119, "channel": 0}, {"type": "note_off", "time": 44, "note": 65, "velocity": 119, "channel": 0}, {"type": "note_on", "time": 43, "note": 58, "velocity": 111, "channel": 0}, {"type": "note_off", "time": 85, "note": 58, "velocity": 111, "channel": 0}, {"type": "note_on", "time": 14, "note": 60, "velocity": 116, "channel": 0}, {"type": "note_off", "time": 46, "note": 60, "velocity": 116, "channel": 0}, {"type": "note_on", "time": 21, "note": 62, "velocity": 121, "channel": 0}, {"type": "note_off", "time": 82, "note": 62, "velocity": 121, "channel": 0}, {"type": "note_on", "time": 12, "note": 65, "velocity": 117, "channel": 0}, {"type": "note_off", "time": 87, "note": 65, "velocity": 117, "channel": 0}, {"type": "note_on", "time": 26, "note": 63, "velocity": 117, "channel": 0}, {"type": "note_off", "time": 92, "note": 63, "velocity": 117, "channel": 0}, {"type": "note_on", "time": 16, "note": 65, "velocity": 119, "channel": 0}, {"type": "note_off", "time": 62, "note": 65, "velocity": 119, "channel": 0}, {"type": "note_on", "time": 7, "note": 67, "velocity": 122, "channel": 0}, {"type": "note_off", "time": 109, "note": 67, "velocity": 122, "channel": 0}, {"type": "note_on", "time": 7, "note": 70, "velocity": 114, "channel": 0}, {"type": "note_off", "time": 69, "note": 70, "velocity": 114, "channel": 0}, {"type": "note_on", "time": 9, "note": 68, "velocity": 113, "channel": 0}, {"type": "note_off", "time": 89, "note": 68, "velocity": 113, "channel": 0}, {"type": "note_on", "time": 19, "note": 70, "velocity": 114, "channel": 0}, {"type": "note_off", "time": 74, "note": 70, "velocity": 114, "channel": 0}, {"type": "note_on", "time": 11, "note": 72, "velocity": 117, "channel": 0}, {"type": "note_off", "time": 102, "note": 72, "velocity": 117, "channel": 0}, {"type": "note_on", "time": 16, "note": 75, "velocity": 115, "channel": 0}, {"type": "note_off", "time": 56, "note": 75, "velocity": 115, "channel": 0}, {"type": "note_on", "time": 13, "note": 77, "velocity": 121, "channel": 0}, {"type": "note_off", "time": 97, "note": 77, "velocity": 121, "channel": 0}, {"type": "note_on", "time": 13, "note": 79, "velocity": 118, "channel": 0}, {"type": "note_off", "time": 77, "note": 79, "velocity": 118, "channel": 0}, {"type": "note_on", "time": 11, "note": 77, "velocity": 120, "channel": 0}, {"type": "note_off", "time": 90, "note": 77, "velocity": 120, "channel": 0}, {"type": "note_on", "time": 6, "note": 78, "velocity": 118, "channel": 0}, {"type": "note_off", "time": 160, "note": 78, "velocity": 118, "channel": 0}, {"type": "note_on", "time": 708, "note": 83, "velocity": 120, "channel": 0}, {"type": "note_off", "time": 108, "note": 83, "velocity": 120, "channel": 0}, {"type": "note_on", "time": 12, "note": 77, "velocity": 120, "channel": 0}, {"type": "note_off", "time": 74, "note": 77, "velocity": 120, "channel": 0}, {"type": "note_on", "time": 1, "note": 76, "velocity": 120, "channel": 0}, {"type": "note_off", "time": 72, "note": 76, "velocity": 120, "channel": 0}, {"type": "note_on", "time": 26, "note": 82, "velocity": 116, "channel": 0}, {"type": "note_off", "time": 64, "note": 82, "velocity": 116, "channel": 0}, {"type": "note_on", "time": 7, "note": 81, "velocity": 120, "channel": 0}, {"type": "note_off", "time": 94, "note": 81, "velocity": 120, "channel": 0}, {"type": "note_on", "time": 26, "note": 75, "velocity": 122, "channel": 0}, {"type": "note_off", "time": 84, "note": 75, "velocity": 122, "channel": 0}, {"type": "note_on", "time": 4, "note": 74, "velocity": 123, "channel": 0}, {"type": "note_off", "time": 89, "note": 74, "velocity": 123, "channel": 0}, {"type": "note_on", "time": 11, "note": 80, "velocity": 117, "channel": 0}, {"type": "note_off", "time": 90, "note": 80, "velocity": 117, "channel": 0}, {"type": "note_on", "time": 11, "note": 79, "velocity": 119, "channel": 0}, {"type": "note_off", "time": 77, "note": 79, "velocity": 119, "channel": 0}, {"type": "note_on", "time": 11, "note": 73, "velocity": 122, "channel": 0}, {"type": "note_off", "time": 88, "note": 73, "velocity": 122, "channel": 0}, {"type": "note_on", "time": 13, "note": 72, "velocity": 120, "channel": 0}, {"type": "note_off", "time": 98, "note": 72, "velocity": 120, "channel": 0}, {"type": "note_on", "time": 11, "note": 78, "velocity": 120, "channel": 0}, {"type": "note_off", "time": 63, "note": 78, "velocity": 120, "channel": 0}, {"type": "note_on", "time": 9, "note": 77, "velocity": 121, "channel": 0}, {"type": "note_off", "time": 93, "note": 77, "velocity": 121, "channel": 0}, {"type": "note_on", "time": 28, "note": 71, "velocity": 112, "channel": 0}, {"type": "note_off", "time": 77, "note": 71, "velocity": 112, "channel": 0}, {"type": "note_on", "time": 8, "note": 70, "velocity": 112, "channel": 0}, {"type": "note_off", "time": 89, "note": 70, "velocity": 112, "channel": 0}, {"type": "note_on", "time": 11, "note": 65, "velocity": 121, "channel": 0}, {"type": "note_off", "time": 51, "note": 65, "velocity": 121, "channel": 0}, {"type": "note_on", "time": 4, "note": 64, "velocity": 120, "channel": 0}, {"type": "note_off", "time": 78, "note": 64, "velocity": 120, "channel": 0}, {"type": "note_on", "time": 19, "note": 63, "velocity": 112, "channel": 0}, {"type": "note_off", "time": 82, "note": 63, "velocity": 112, "channel": 0}, {"type": "note_on", "time": 32, "note": 62, "velocity": 98, "channel": 0}, {"type": "note_off", "time": 119, "note": 62, "velocity": 98, "channel": 0}, {"type": "note_on", "time": 265, "note": 64, "velocity": 118, "channel": 0}, {"type": "note_off", "time": 49, "note": 64, "velocity": 118, "channel": 0}, {"type": "note_on", "time": 2, "note": 65, "velocity": 122, "channel": 0}, {"type": "note_off", "time": 67, "note": 65, "velocity": 122, "channel": 0}, {"type": "note_on", "time": 13, "note": 67, "velocity": 120, "channel": 0}, {"type": "note_off", "time": 63, "note": 67, "velocity": 120, "channel": 0}, {"type": "note_on", "time": 13, "note": 68, "velocity": 114, "channel": 0}, {"type": "note_off", "time": 47, "note": 68, "velocity": 114, "channel": 0}, {"type": "note_on", "time": 8, "note": 70, "velocity": 113, "channel": 0}, {"type": "note_off", "time": 43, "note": 70, "velocity": 113, "channel": 0}, {"type": "note_on", "time": 3, "note": 71, "velocity": 112, "channel": 0}, {"type": "note_off", "time": 70, "note": 71, "velocity": 112, "channel": 0}, {"type": "note_on", "time": 12, "note": 75, "velocity": 120, "channel": 0}, {"type": "note_off", "time": 57, "note": 75, "velocity": 120, "channel": 0}, {"type": "note_on", "time": 14, "note": 77, "velocity": 119, "channel": 0}, {"type": "note_off", "time": 70, "note": 77, "velocity": 119, "channel": 0}, {"type": "note_on", "time": 11, "note": 79, "velocity": 120, "channel": 0}, {"type": "note_off", "time": 60, "note": 79, "velocity": 120, "channel": 0}, {"type": "note_on", "time": 13, "note": 80, "velocity": 116, "channel": 0}, {"type": "note_off", "time": 49, "note": 80, "velocity": 116, "channel": 0}, {"type": "note_on", "time": 8, "note": 82, "velocity": 115, "channel": 0}, {"type": "note_off", "time": 54, "note": 82, "velocity": 115, "channel": 0}, {"type": "note_on", "time": 6, "note": 83, "velocity": 122, "channel": 0}, {"type": "note_off", "time": 495, "note": 83, "velocity": 122, "channel": 0}, {"type": "note_on", "time": 149, "note": 79, "velocity": 115, "channel": 0}, {"type": "note_off", "time": 80, "note": 79, "velocity": 115, "channel": 0}, {"type": "note_on", "time": 84, "note": 83, "velocity": 119, "channel": 0}, {"type": "note_off", "time": 120, "note": 83, "velocity": 119, "channel": 0}, {"type": "note_on", "time": 14, "note": 79, "velocity": 116, "channel": 0}, {"type": "note_off", "time": 82, "note": 79, "velocity": 116, "channel": 0}, {"type": "note_on", "time": 90, "note": 83, "velocity": 102, "channel": 0}, {"type": "note_off", "time": 52, "note": 83, "velocity": 102, "channel": 0}, {"type": "note_on", "time": 62, "note": 79, "velocity": 111, "channel": 0}, {"type": "note_off", "time": 59, "note": 79, "velocity": 111, "channel": 0}, {"type": "note_on", "time": 130, "note": 83, "velocity": 113, "channel": 0}, {"type": "note_off", "time": 113, "note": 83, "velocity": 113, "channel": 0}, {"type": "note_on", "time": 89, "note": 79, "velocity": 120, "channel": 0}, {"type": "note_off", "time": 94, "note": 79, "velocity": 120, "channel": 0}, {"type": "note_on", "time": 21, "note": 83, "velocity": 117, "channel": 0}, {"type": "note_off", "time": 240, "note": 83, "velocity": 117, "channel": 0}, {"type": "note_on", "time": 17, "note": 79, "velocity": 115, "channel": 0}, {"type": "note_off", "time": 87, "note": 79, "velocity": 115, "channel": 0}, {"type": "note_on", "time": 118, "note": 83, "velocity": 115, "channel": 0}, {"type": "note_off", "time": 155, "note": 83, "velocity": 115, "channel": 0}, {"type": "note_on", "time": 19, "note": 79, "velocity": 115, "channel": 0}, {"type": "note_off", "time": 65, "note": 79, "velocity": 115, "channel": 0}, {"type": "note_on", "time": 112, "note": 80, "velocity": 120, "channel": 0}, {"type": "note_off", "time": 160, "note": 80, "velocity": 120, "channel": 0}, {"type": "note_on", "time": 586, "note": 76, "velocity": 118, "channel": 0}, {"type": "note_off", "time": 52, "note": 76, "velocity": 118, "channel": 0}, {"type": "note_on", "time": 12, "note": 78, "velocity": 113, "channel": 0}, {"type": "note_off", "time": 62, "note": 78, "velocity": 113, "channel": 0}, {"type": "note_on", "time": 13, "note": 80, "velocity": 111, "channel": 0}, {"type": "note_off", "time": 112, "note": 80, "velocity": 111, "channel": 0}, {"type": "note_on", "time": 13, "note": 84, "velocity": 118, "channel": 0}, {"type": "note_off", "time": 99, "note": 84, "velocity": 118, "channel": 0}, {"type": "note_on", "time": 12, "note": 82, "velocity": 114, "channel": 0}, {"type": "note_off", "time": 68, "note": 82, "velocity": 114, "channel": 0}, {"type": "note_on", "time": 22, "note": 79, "velocity": 115, "channel": 0}, {"type": "note_off", "time": 107, "note": 79, "velocity": 115, "channel": 0}, {"type": "note_on", "time": 9, "note": 75, "velocity": 115, "channel": 0}, {"type": "note_off", "time": 79, "note": 75, "velocity": 115, "channel": 0}, {"type": "note_on", "time": 13, "note": 71, "velocity": 108, "channel": 0}, {"type": "note_off", "time": 78, "note": 71, "velocity": 108, "channel": 0}, {"type": "note_on", "time": 12, "note": 74, "velocity": 121, "channel": 0}, {"type": "note_off", "time": 74, "note": 74, "velocity": 121, "channel": 0}, {"type": "note_on", "time": 21, "note": 76, "velocity": 120, "channel": 0}, {"type": "note_off", "time": 52, "note": 76, "velocity": 120, "channel": 0}, {"type": "note_on", "time": 12, "note": 78, "velocity": 115, "channel": 0}, {"type": "note_off", "time": 100, "note": 78, "velocity": 115, "channel": 0}, {"type": "note_on", "time": 17, "note": 82, "velocity": 103, "channel": 0}, {"type": "note_off", "time": 65, "note": 82, "velocity": 103, "channel": 0}, {"type": "note_on", "time": 18, "note": 80, "velocity": 116, "channel": 0}, {"type": "note_off", "time": 80, "note": 80, "velocity": 116, "channel": 0}, {"type": "note_on", "time": 28, "note": 78, "velocity": 113, "channel": 0}, {"type": "note_off", "time": 89, "note": 78, "velocity": 113, "channel": 0}, {"type": "note_on", "time": 17, "note": 73, "velocity": 120, "channel": 0}, {"type": "note_off", "time": 67, "note": 73, "velocity": 120, "channel": 0}, {"type": "note_on", "time": 14, "note": 69, "velocity": 113, "channel": 0}, {"type": "note_off", "time": 89, "note": 69, "velocity": 113, "channel": 0}, {"type": "note_on", "time": 17, "note": 72, "velocity": 115, "channel": 0}, {"type": "note_off", "time": 89, "note": 72, "velocity": 115, "channel": 0}, {"type": "note_on", "time": 27, "note": 74, "velocity": 120, "channel": 0}, {"type": "note_off", "time": 29, "note": 74, "velocity": 120, "channel": 0}, {"type": "note_on", "time": 14, "note": 76, "velocity": 118, "channel": 0}, {"type": "note_off", "time": 84, "note": 76, "velocity": 118, "channel": 0}, {"type": "note_on", "time": 27, "note": 80, "velocity": 117, "channel": 0}, {"type": "note_off", "time": 77, "note": 80, "velocity": 117, "channel": 0}, {"type": "note_on", "time": 17, "note": 78, "velocity": 116, "channel": 0}, {"type": "note_off", "time": 79, "note": 78, "velocity": 116, "channel": 0}, {"type": "note_on", "time": 17, "note": 75, "velocity": 117, "channel": 0}, {"type": "note_off", "time": 78, "note": 75, "velocity": 117, "channel": 0}, {"type": "note_on", "time": 9, "note": 71, "velocity": 110, "channel": 0}, {"type": "note_off", "time": 92, "note": 71, "velocity": 110, "channel": 0}, {"type": "note_on", "time": 26, "note": 67, "velocity": 118, "channel": 0}, {"type": "note_off", "time": 84, "note": 67, "velocity": 118, "channel": 0}, {"type": "note_on", "time": 16, "note": 70, "velocity": 107, "channel": 0}, {"type": "note_off", "time": 85, "note": 70, "velocity": 107, "channel": 0}, {"type": "note_on", "time": 8, "note": 72, "velocity": 116, "channel": 0}, {"type": "note_off", "time": 65, "note": 72, "velocity": 116, "channel": 0}, {"type": "note_on", "time": 14, "note": 74, "velocity": 120, "channel": 0}, {"type": "note_off", "time": 93, "note": 74, "velocity": 120, "channel": 0}, {"type": "note_on", "time": 8, "note": 78, "velocity": 112, "channel": 0}, {"type": "note_off", "time": 84, "note": 78, "velocity": 112, "channel": 0}, {"type": "note_on", "time": 17, "note": 76, "velocity": 119, "channel": 0}, {"type": "note_off", "time": 79, "note": 76, "velocity": 119, "channel": 0}, {"type": "note_on", "time": 17, "note": 73, "velocity": 122, "channel": 0}, {"type": "note_off", "time": 64, "note": 73, "velocity": 122, "channel": 0}, {"type": "note_on", "time": 49, "note": 69, "velocity": 111, "channel": 0}, {"type": "note_off", "time": 77, "note": 69, "velocity": 111, "channel": 0}, {"type": "note_on", "time": 26, "note": 66, "velocity": 109, "channel": 0}, {"type": "note_off", "time": 62, "note": 66, "velocity": 109, "channel": 0}, {"type": "note_on", "time": 12, "note": 68, "velocity": 108, "channel": 0}, {"type": "note_off", "time": 82, "note": 68, "velocity": 108, "channel": 0}, {"type": "note_on", "time": 9, "note": 70, "velocity": 106, "channel": 0}, {"type": "note_off", "time": 69, "note": 70, "velocity": 106, "channel": 0}, {"type": "note_on", "time": 4, "note": 72, "velocity": 118, "channel": 0}, {"type": "note_off", "time": 93, "note": 72, "velocity": 118, "channel": 0}, {"type": "note_on", "time": 42, "note": 76, "velocity": 115, "channel": 0}, {"type": "note_off", "time": 67, "note": 76, "velocity": 115, "channel": 0}, {"type": "note_on", "time": 11, "note": 74, "velocity": 120, "channel": 0}, {"type": "note_off", "time": 85, "note": 74, "velocity": 120, "channel": 0}, {"type": "note_on", "time": 34, "note": 71, "velocity": 111, "channel": 0}, {"type": "note_off", "time": 62, "note": 71, "velocity": 111, "channel": 0}, {"type": "note_on", "time": 28, "note": 67, "velocity": 110, "channel": 0}, {"type": "note_off", "time": 53, "note": 67, "velocity": 110, "channel": 0}, {"type": "note_on", "time": 31, "note": 63, "velocity": 116, "channel": 0}, {"type": "note_off", "time": 65, "note": 63, "velocity": 116, "channel": 0}, {"type": "note_on", "time": 21, "note": 66, "velocity": 116, "channel": 0}, {"type": "note_off", "time": 105, "note": 66, "velocity": 116, "channel": 0}, {"type": "note_on", "time": 12, "note": 68, "velocity": 115, "channel": 0}, {"type": "note_off", "time": 51, "note": 68, "velocity": 115, "channel": 0}, {"type": "note_on", "time": 19, "note": 70, "velocity": 112, "channel": 0}, {"type": "note_off", "time": 84, "note": 70, "velocity": 112, "channel": 0}, {"type": "note_on", "time": 4, "note": 72, "velocity": 115, "channel": 0}, {"type": "note_off", "time": 105, "note": 72, "velocity": 115, "channel": 0}, {"type": "note_on", "time": 1, "note": 70, "velocity": 106, "channel": 0}, {"type": "note_off", "time": 105, "note": 70, "velocity": 106, "channel": 0}, {"type": "note_on", "time": 29, "note": 69, "velocity": 110, "channel": 0}, {"type": "note_off", "time": 47, "note": 69, "velocity": 110, "channel": 0}, {"type": "note_on", "time": 47, "note": 65, "velocity": 114, "channel": 0}, {"type": "note_off", "time": 79, "note": 65, "velocity": 114, "channel": 0}, {"type": "note_on", "time": 19, "note": 61, "velocity": 116, "channel": 0}, {"type": "note_off", "time": 124, "note": 61, "velocity": 116, "channel": 0}, {"type": "note_on", "time": 0, "note": 60, "velocity": 117, "channel": 0}, {"type": "note_off", "time": 388, "note": 60, "velocity": 117, "channel": 0}, {"type": "note_on", "time": 44, "note": 61, "velocity": 119, "channel": 0}, {"type": "note_off", "time": 75, "note": 61, "velocity": 119, "channel": 0}, {"type": "note_on", "time": 11, "note": 63, "velocity": 116, "channel": 0}, {"type": "note_off", "time": 67, "note": 63, "velocity": 116, "channel": 0}, {"type": "note_on", "time": 19, "note": 65, "velocity": 120, "channel": 0}, {"type": "note_off", "time": 57, "note": 65, "velocity": 120, "channel": 0}, {"type": "note_on", "time": 18, "note": 67, "velocity": 113, "channel": 0}, {"type": "note_off", "time": 65, "note": 67, "velocity": 113, "channel": 0}, {"type": "note_on", "time": 13, "note": 69, "velocity": 91, "channel": 0}, {"type": "note_off", "time": 57, "note": 69, "velocity": 91, "channel": 0}, {"type": "note_on", "time": 11, "note": 73, "velocity": 122, "channel": 0}, {"type": "note_off", "time": 454, "note": 73, "velocity": 122, "channel": 0}, {"type": "note_on", "time": 215, "note": 70, "velocity": 111, "channel": 0}, {"type": "note_off", "time": 84, "note": 70, "velocity": 111, "channel": 0}, {"type": "note_on", "time": 8, "note": 76, "velocity": 122, "channel": 0}, {"type": "note_off", "time": 64, "note": 76, "velocity": 122, "channel": 0}, {"type": "note_on", "time": 19, "note": 80, "velocity": 117, "channel": 0}, {"type": "note_off", "time": 79, "note": 80, "velocity": 117, "channel": 0}, {"type": "note_on", "time": 4, "note": 82, "velocity": 117, "channel": 0}, {"type": "note_off", "time": 102, "note": 82, "velocity": 117, "channel": 0}, {"type": "note_on", "time": 8, "note": 81, "velocity": 117, "channel": 0}, {"type": "note_off", "time": 74, "note": 81, "velocity": 117, "channel": 0}, {"type": "note_on", "time": 18, "note": 79, "velocity": 122, "channel": 0}, {"type": "note_off", "time": 82, "note": 79, "velocity": 122, "channel": 0}, {"type": "note_on", "time": 22, "note": 75, "velocity": 118, "channel": 0}, {"type": "note_off", "time": 79, "note": 75, "velocity": 118, "channel": 0}, {"type": "note_on", "time": 29, "note": 69, "velocity": 112, "channel": 0}, {"type": "note_off", "time": 105, "note": 69, "velocity": 112, "channel": 0}, {"type": "note_on", "time": 24, "note": 72, "velocity": 121, "channel": 0}, {"type": "note_off", "time": 72, "note": 72, "velocity": 121, "channel": 0}, {"type": "note_on", "time": 12, "note": 74, "velocity": 121, "channel": 0}, {"type": "note_off", "time": 62, "note": 74, "velocity": 121, "channel": 0}, {"type": "note_on", "time": 17, "note": 78, "velocity": 115, "channel": 0}, {"type": "note_off", "time": 63, "note": 78, "velocity": 115, "channel": 0}, {"type": "note_on", "time": 3, "note": 79, "velocity": 105, "channel": 0}, {"type": "note_off", "time": 13, "note": 79, "velocity": 105, "channel": 0}, {"type": "note_on", "time": 4, "note": 80, "velocity": 112, "channel": 0}, {"type": "note_off", "time": 28, "note": 80, "velocity": 112, "channel": 0}, {"type": "note_on", "time": 13, "note": 83, "velocity": 113, "channel": 0}, {"type": "note_off", "time": 18, "note": 83, "velocity": 113, "channel": 0}, {"type": "note_on", "time": 7, "note": 84, "velocity": 120, "channel": 0}, {"type": "note_off", "time": 47, "note": 84, "velocity": 120, "channel": 0}, {"type": "note_on", "time": 2, "note": 85, "velocity": 117, "channel": 0}, {"type": "note_off", "time": 28, "note": 85, "velocity": 117, "channel": 0}, {"type": "note_on", "time": 3, "note": 86, "velocity": 118, "channel": 0}, {"type": "note_off", "time": 87, "note": 86, "velocity": 118, "channel": 0}, {"type": "note_on", "time": 7, "note": 85, "velocity": 116, "channel": 0}, {"type": "note_off", "time": 99, "note": 85, "velocity": 116, "channel": 0}, {"type": "note_on", "time": 8, "note": 84, "velocity": 121, "channel": 0}, {"type": "note_off", "time": 49, "note": 84, "velocity": 121, "channel": 0}, {"type": "note_on", "time": 14, "note": 83, "velocity": 119, "channel": 0}, {"type": "note_off", "time": 70, "note": 83, "velocity": 119, "channel": 0}, {"type": "note_on", "time": 8, "note": 81, "velocity": 116, "channel": 0}, {"type": "note_off", "time": 32, "note": 81, "velocity": 116, "channel": 0}, {"type": "note_on", "time": 12, "note": 79, "velocity": 111, "channel": 0}, {"type": "note_off", "time": 78, "note": 79, "velocity": 111, "channel": 0}, {"type": "note_on", "time": 16, "note": 78, "velocity": 116, "channel": 0}, {"type": "note_off", "time": 39, "note": 78, "velocity": 116, "channel": 0}, {"type": "note_on", "time": 6, "note": 76, "velocity": 123, "channel": 0}, {"type": "note_off", "time": 74, "note": 76, "velocity": 123, "channel": 0}, {"type": "note_on", "time": 23, "note": 75, "velocity": 123, "channel": 0}, {"type": "note_off", "time": 70, "note": 75, "velocity": 123, "channel": 0}, {"type": "note_on", "time": 19, "note": 74, "velocity": 123, "channel": 0}, {"type": "note_off", "time": 41, "note": 74, "velocity": 123, "channel": 0}, {"type": "note_on", "time": 13, "note": 73, "velocity": 121, "channel": 0}, {"type": "note_off", "time": 41, "note": 73, "velocity": 121, "channel": 0}, {"type": "note_on", "time": 13, "note": 72, "velocity": 120, "channel": 0}, {"type": "note_off", "time": 51, "note": 72, "velocity": 120, "channel": 0}, {"type": "note_on", "time": 7, "note": 71, "velocity": 108, "channel": 0}, {"type": "note_off", "time": 58, "note": 71, "velocity": 108, "channel": 0}, {"type": "note_on", "time": 9, "note": 69, "velocity": 110, "channel": 0}, {"type": "note_off", "time": 65, "note": 69, "velocity": 110, "channel": 0}, {"type": "note_on", "time": 17, "note": 68, "velocity": 112, "channel": 0}, {"type": "note_off", "time": 42, "note": 68, "velocity": 112, "channel": 0}, {"type": "note_on", "time": 27, "note": 66, "velocity": 116, "channel": 0}, {"type": "note_off", "time": 34, "note": 66, "velocity": 116, "channel": 0}, {"type": "note_on", "time": 24, "note": 65, "velocity": 117, "channel": 0}, {"type": "note_off", "time": 123, "note": 65, "velocity": 117, "channel": 0}, {"type": "note_on", "time": 557, "note": 61, "velocity": 114, "channel": 0}, {"type": "note_off", "time": 48, "note": 61, "velocity": 114, "channel": 0}, {"type": "note_on", "time": 4, "note": 63, "velocity": 120, "channel": 0}, {"type": "note_off", "time": 43, "note": 63, "velocity": 120, "channel": 0}, {"type": "note_on", "time": 19, "note": 65, "velocity": 119, "channel": 0}, {"type": "note_off", "time": 126, "note": 65, "velocity": 119, "channel": 0}, {"type": "note_on", "time": 12, "note": 69, "velocity": 113, "channel": 0}, {"type": "note_off", "time": 70, "note": 69, "velocity": 113, "channel": 0}, {"type": "note_on", "time": 4, "note": 71, "velocity": 114, "channel": 0}, {"type": "note_off", "time": 34, "note": 71, "velocity": 114, "channel": 0}, {"type": "note_on", "time": 8, "note": 73, "velocity": 123, "channel": 0}, {"type": "note_off", "time": 60, "note": 73, "velocity": 123, "channel": 0}, {"type": "note_on", "time": 8, "note": 74, "velocity": 121, "channel": 0}, {"type": "note_off", "time": 16, "note": 74, "velocity": 121, "channel": 0}, {"type": "note_on", "time": 8, "note": 75, "velocity": 121, "channel": 0}, {"type": "note_off", "time": 31, "note": 75, "velocity": 121, "channel": 0}, {"type": "note_on", "time": 4, "note": 77, "velocity": 117, "channel": 0}, {"type": "note_off", "time": 58, "note": 77, "velocity": 117, "channel": 0}, {"type": "note_on", "time": 11, "note": 78, "velocity": 120, "channel": 0}, {"type": "note_off", "time": 251, "note": 78, "velocity": 120, "channel": 0}, {"type": "note_on", "time": 607, "note": 69, "velocity": 115, "channel": 0}, {"type": "note_off", "time": 39, "note": 69, "velocity": 115, "channel": 0}, {"type": "note_on", "time": 7, "note": 70, "velocity": 112, "channel": 0}, {"type": "note_off", "time": 133, "note": 70, "velocity": 112, "channel": 0}, {"type": "note_on", "time": 17, "note": 73, "velocity": 120, "channel": 0}, {"type": "note_off", "time": 58, "note": 73, "velocity": 120, "channel": 0}, {"type": "note_on", "time": 16, "note": 76, "velocity": 116, "channel": 0}, {"type": "note_off", "time": 83, "note": 76, "velocity": 116, "channel": 0}, {"type": "note_on", "time": 16, "note": 80, "velocity": 119, "channel": 0}, {"type": "note_off", "time": 78, "note": 80, "velocity": 119, "channel": 0}, {"type": "note_on", "time": 46, "note": 85, "velocity": 114, "channel": 0}, {"type": "note_off", "time": 83, "note": 85, "velocity": 114, "channel": 0}, {"type": "note_on", "time": 39, "note": 81, "velocity": 120, "channel": 0}, {"type": "note_off", "time": 52, "note": 81, "velocity": 120, "channel": 0}, {"type": "note_on", "time": 3, "note": 78, "velocity": 117, "channel": 0}, {"type": "note_off", "time": 77, "note": 78, "velocity": 117, "channel": 0}, {"type": "note_on", "time": 12, "note": 75, "velocity": 118, "channel": 0}, {"type": "note_off", "time": 75, "note": 75, "velocity": 118, "channel": 0}, {"type": "note_on", "time": 24, "note": 68, "velocity": 113, "channel": 0}, {"type": "note_off", "time": 93, "note": 68, "velocity": 113, "channel": 0}, {"type": "note_on", "time": 14, "note": 71, "velocity": 113, "channel": 0}, {"type": "note_off", "time": 59, "note": 71, "velocity": 113, "channel": 0}, {"type": "note_on", "time": 16, "note": 74, "velocity": 125, "channel": 0}, {"type": "note_off", "time": 72, "note": 74, "velocity": 125, "channel": 0}, {"type": "note_on", "time": 9, "note": 78, "velocity": 118, "channel": 0}, {"type": "note_off", "time": 72, "note": 78, "velocity": 118, "channel": 0}, {"type": "note_on", "time": 14, "note": 83, "velocity": 116, "channel": 0}, {"type": "note_off", "time": 119, "note": 83, "velocity": 116, "channel": 0}, {"type": "note_on", "time": 11, "note": 79, "velocity": 120, "channel": 0}, {"type": "note_off", "time": 95, "note": 79, "velocity": 120, "channel": 0}, {"type": "note_on", "time": 14, "note": 76, "velocity": 117, "channel": 0}, {"type": "note_off", "time": 47, "note": 76, "velocity": 117, "channel": 0}, {"type": "note_on", "time": 23, "note": 73, "velocity": 123, "channel": 0}, {"type": "note_off", "time": 95, "note": 73, "velocity": 123, "channel": 0}, {"type": "note_on", "time": 8, "note": 66, "velocity": 114, "channel": 0}, {"type": "note_off", "time": 119, "note": 66, "velocity": 114, "channel": 0}, {"type": "note_on", "time": 19, "note": 69, "velocity": 114, "channel": 0}, {"type": "note_off", "time": 68, "note": 69, "velocity": 114, "channel": 0}, {"type": "note_on", "time": 13, "note": 73, "velocity": 120, "channel": 0}, {"type": "note_off", "time": 93, "note": 73, "velocity": 120, "channel": 0}, {"type": "note_on", "time": 4, "note": 76, "velocity": 117, "channel": 0}, {"type": "note_off", "time": 67, "note": 76, "velocity": 117, "channel": 0}, {"type": "note_on", "time": 19, "note": 81, "velocity": 120, "channel": 0}, {"type": "note_off", "time": 92, "note": 81, "velocity": 120, "channel": 0}, {"type": "note_on", "time": 17, "note": 77, "velocity": 119, "channel": 0}, {"type": "note_off", "time": 68, "note": 77, "velocity": 119, "channel": 0}, {"type": "note_on", "time": 16, "note": 74, "velocity": 124, "channel": 0}, {"type": "note_off", "time": 75, "note": 74, "velocity": 124, "channel": 0}, {"type": "note_on", "time": 28, "note": 71, "velocity": 115, "channel": 0}, {"type": "note_off", "time": 78, "note": 71, "velocity": 115, "channel": 0}, {"type": "note_on", "time": 29, "note": 64, "velocity": 121, "channel": 0}, {"type": "note_off", "time": 95, "note": 64, "velocity": 121, "channel": 0}, {"type": "note_on", "time": 12, "note": 67, "velocity": 113, "channel": 0}, {"type": "note_off", "time": 89, "note": 67, "velocity": 113, "channel": 0}, {"type": "note_on", "time": 14, "note": 70, "velocity": 113, "channel": 0}, {"type": "note_off", "time": 69, "note": 70, "velocity": 113, "channel": 0}, {"type": "note_on", "time": 36, "note": 74, "velocity": 124, "channel": 0}, {"type": "note_off", "time": 73, "note": 74, "velocity": 124, "channel": 0}, {"type": "note_on", "time": 11, "note": 79, "velocity": 116, "channel": 0}, {"type": "note_off", "time": 85, "note": 79, "velocity": 116, "channel": 0}, {"type": "note_on", "time": 29, "note": 75, "velocity": 119, "channel": 0}, {"type": "note_off", "time": 78, "note": 75, "velocity": 119, "channel": 0}, {"type": "note_on", "time": 23, "note": 72, "velocity": 122, "channel": 0}, {"type": "note_off", "time": 49, "note": 72, "velocity": 122, "channel": 0}, {"type": "note_on", "time": 26, "note": 69, "velocity": 113, "channel": 0}, {"type": "note_off", "time": 79, "note": 69, "velocity": 113, "channel": 0}, {"type": "note_on", "time": 26, "note": 62, "velocity": 119, "channel": 0}, {"type": "note_off", "time": 85, "note": 62, "velocity": 119, "channel": 0}, {"type": "note_on", "time": 23, "note": 65, "velocity": 115, "channel": 0}, {"type": "note_off", "time": 69, "note": 65, "velocity": 115, "channel": 0}, {"type": "note_on", "time": 9, "note": 69, "velocity": 111, "channel": 0}, {"type": "note_off", "time": 82, "note": 69, "velocity": 111, "channel": 0}, {"type": "note_on", "time": 18, "note": 72, "velocity": 118, "channel": 0}, {"type": "note_off", "time": 63, "note": 72, "velocity": 118, "channel": 0}, {"type": "note_on", "time": 23, "note": 77, "velocity": 116, "channel": 0}, {"type": "note_off", "time": 83, "note": 77, "velocity": 116, "channel": 0}, {"type": "note_on", "time": 17, "note": 73, "velocity": 122, "channel": 0}, {"type": "note_off", "time": 65, "note": 73, "velocity": 122, "channel": 0}, {"type": "note_on", "time": 8, "note": 70, "velocity": 108, "channel": 0}, {"type": "note_off", "time": 69, "note": 70, "velocity": 108, "channel": 0}, {"type": "note_on", "time": 14, "note": 67, "velocity": 112, "channel": 0}, {"type": "note_off", "time": 70, "note": 67, "velocity": 112, "channel": 0}, {"type": "note_on", "time": 2, "note": 60, "velocity": 114, "channel": 0}, {"type": "note_off", "time": 107, "note": 60, "velocity": 114, "channel": 0}, {"type": "note_on", "time": 28, "note": 64, "velocity": 112, "channel": 0}, {"type": "note_off", "time": 89, "note": 64, "velocity": 112, "channel": 0}, {"type": "note_on", "time": 9, "note": 66, "velocity": 113, "channel": 0}, {"type": "note_off", "time": 75, "note": 66, "velocity": 113, "channel": 0}, {"type": "note_on", "time": 12, "note": 70, "velocity": 107, "channel": 0}, {"type": "note_off", "time": 87, "note": 70, "velocity": 107, "channel": 0}, {"type": "note_on", "time": 12, "note": 75, "velocity": 122, "channel": 0}, {"type": "note_off", "time": 74, "note": 75, "velocity": 122, "channel": 0}, {"type": "note_on", "time": 9, "note": 77, "velocity": 118, "channel": 0}, {"type": "note_off", "time": 92, "note": 77, "velocity": 118, "channel": 0}, {"type": "note_on", "time": 16, "note": 75, "velocity": 118, "channel": 0}, {"type": "note_off", "time": 83, "note": 75, "velocity": 118, "channel": 0}, {"type": "note_on", "time": 21, "note": 74, "velocity": 118, "channel": 0}, {"type": "note_off", "time": 75, "note": 74, "velocity": 118, "channel": 0}, {"type": "note_on", "time": 18, "note": 73, "velocity": 117, "channel": 0}, {"type": "note_off", "time": 83, "note": 73, "velocity": 117, "channel": 0}, {"type": "note_on", "time": 28, "note": 71, "velocity": 110, "channel": 0}, {"type": "note_off", "time": 83, "note": 71, "velocity": 110, "channel": 0}, {"type": "note_on", "time": 7, "note": 70, "velocity": 107, "channel": 0}, {"type": "note_off", "time": 78, "note": 70, "velocity": 107, "channel": 0}, {"type": "note_on", "time": 17, "note": 67, "velocity": 113, "channel": 0}, {"type": "note_off", "time": 82, "note": 67, "velocity": 113, "channel": 0}, {"type": "note_on", "time": 7, "note": 68, "velocity": 114, "channel": 0}, {"type": "note_off", "time": 90, "note": 68, "velocity": 114, "channel": 0}, {"type": "note_on", "time": 11, "note": 67, "velocity": 117, "channel": 0}, {"type": "note_off", "time": 62, "note": 67, "velocity": 117, "channel": 0}, {"type": "note_on", "time": 17, "note": 66, "velocity": 119, "channel": 0}, {"type": "note_off", "time": 93, "note": 66, "velocity": 119, "channel": 0}, {"type": "note_on", "time": 14, "note": 64, "velocity": 120, "channel": 0}, {"type": "note_off", "time": 70, "note": 64, "velocity": 120, "channel": 0}, {"type": "note_on", "time": 17, "note": 65, "velocity": 116, "channel": 0}, {"type": "note_off", "time": 95, "note": 65, "velocity": 116, "channel": 0}, {"type": "note_on", "time": 7, "note": 64, "velocity": 117, "channel": 0}, {"type": "note_off", "time": 84, "note": 64, "velocity": 117, "channel": 0}, {"type": "note_on", "time": 13, "note": 63, "velocity": 118, "channel": 0}, {"type": "note_off", "time": 69, "note": 63, "velocity": 118, "channel": 0}, {"type": "note_on", "time": 16, "note": 62, "velocity": 121, "channel": 0}, {"type": "note_off", "time": 70, "note": 62, "velocity": 121, "channel": 0}, {"type": "note_on", "time": 29, "note": 61, "velocity": 120, "channel": 0}, {"type": "note_off", "time": 72, "note": 61, "velocity": 120, "channel": 0}, {"type": "note_on", "time": 49, "note": 63, "velocity": 114, "channel": 0}, {"type": "note_off", "time": 78, "note": 63, "velocity": 114, "channel": 0}, {"type": "note_on", "time": 410, "note": 62, "velocity": 121, "channel": 0}, {"type": "note_off", "time": 90, "note": 62, "velocity": 121, "channel": 0}, {"type": "note_on", "time": 4, "note": 65, "velocity": 122, "channel": 0}, {"type": "note_off", "time": 73, "note": 65, "velocity": 122, "channel": 0}, {"type": "note_on", "time": 27, "note": 63, "velocity": 118, "channel": 0}, {"type": "note_off", "time": 94, "note": 63, "velocity": 118, "channel": 0}, {"type": "note_on", "time": 18, "note": 65, "velocity": 121, "channel": 0}, {"type": "note_off", "time": 73, "note": 65, "velocity": 121, "channel": 0}, {"type": "note_on", "time": 11, "note": 67, "velocity": 115, "channel": 0}, {"type": "note_off", "time": 78, "note": 67, "velocity": 115, "channel": 0}, {"type": "note_on", "time": 6, "note": 70, "velocity": 113, "channel": 0}, {"type": "note_off", "time": 83, "note": 70, "velocity": 113, "channel": 0}, {"type": "note_on", "time": 13, "note": 67, "velocity": 118, "channel": 0}, {"type": "note_off", "time": 88, "note": 67, "velocity": 118, "channel": 0}, {"type": "note_on", "time": 13, "note": 68, "velocity": 113, "channel": 0}, {"type": "note_off", "time": 85, "note": 68, "velocity": 113, "channel": 0}, {"type": "note_on", "time": 6, "note": 70, "velocity": 115, "channel": 0}, {"type": "note_off", "time": 84, "note": 70, "velocity": 115, "channel": 0}, {"type": "note_on", "time": 13, "note": 72, "velocity": 120, "channel": 0}, {"type": "note_off", "time": 63, "note": 72, "velocity": 120, "channel": 0}, {"type": "note_on", "time": 28, "note": 75, "velocity": 117, "channel": 0}, {"type": "note_off", "time": 74, "note": 75, "velocity": 117, "channel": 0}, {"type": "note_on", "time": 0, "note": 77, "velocity": 117, "channel": 0}, {"type": "note_off", "time": 72, "note": 77, "velocity": 117, "channel": 0}, {"type": "note_on", "time": 21, "note": 79, "velocity": 119, "channel": 0}, {"type": "note_off", "time": 109, "note": 79, "velocity": 119, "channel": 0}, {"type": "note_on", "time": 7, "note": 80, "velocity": 121, "channel": 0}, {"type": "note_off", "time": 250, "note": 80, "velocity": 121, "channel": 0}, {"type": "note_on", "time": 16, "note": 79, "velocity": 119, "channel": 0}, {"type": "note_off", "time": 84, "note": 79, "velocity": 119, "channel": 0}, {"type": "note_on", "time": 18, "note": 77, "velocity": 120, "channel": 0}, {"type": "note_off", "time": 112, "note": 77, "velocity": 120, "channel": 0}, {"type": "note_on", "time": 1136, "note": 78, "velocity": 118, "channel": 0}, {"type": "note_off", "time": 80, "note": 78, "velocity": 118, "channel": 0}, {"type": "note_on", "time": 104, "note": 75, "velocity": 123, "channel": 0}, {"type": "note_off", "time": 95, "note": 75, "velocity": 123, "channel": 0}, {"type": "note_on", "time": 7, "note": 74, "velocity": 123, "channel": 0}, {"type": "note_off", "time": 93, "note": 74, "velocity": 123, "channel": 0}, {"type": "note_on", "time": 12, "note": 77, "velocity": 121, "channel": 0}, {"type": "note_off", "time": 99, "note": 77, "velocity": 121, "channel": 0}, {"type": "note_on", "time": 11, "note": 76, "velocity": 120, "channel": 0}, {"type": "note_off", "time": 70, "note": 76, "velocity": 120, "channel": 0}, {"type": "note_on", "time": 6, "note": 73, "velocity": 124, "channel": 0}, {"type": "note_off", "time": 92, "note": 73, "velocity": 124, "channel": 0}, {"type": "note_on", "time": 9, "note": 72, "velocity": 123, "channel": 0}, {"type": "note_off", "time": 69, "note": 72, "velocity": 123, "channel": 0}, {"type": "note_on", "time": 9, "note": 75, "velocity": 119, "channel": 0}, {"type": "note_off", "time": 102, "note": 75, "velocity": 119, "channel": 0}, {"type": "note_on", "time": 11, "note": 74, "velocity": 122, "channel": 0}, {"type": "note_off", "time": 65, "note": 74, "velocity": 122, "channel": 0}, {"type": "note_on", "time": 27, "note": 71, "velocity": 108, "channel": 0}, {"type": "note_off", "time": 75, "note": 71, "velocity": 108, "channel": 0}, {"type": "note_on", "time": 27, "note": 70, "velocity": 110, "channel": 0}, {"type": "note_off", "time": 85, "note": 70, "velocity": 110, "channel": 0}, {"type": "note_on", "time": 8, "note": 73, "velocity": 125, "channel": 0}, {"type": "note_off", "time": 100, "note": 73, "velocity": 125, "channel": 0}, {"type": "note_on", "time": 11, "note": 72, "velocity": 120, "channel": 0}, {"type": "note_off", "time": 79, "note": 72, "velocity": 120, "channel": 0}, {"type": "note_on", "time": 29, "note": 69, "velocity": 110, "channel": 0}, {"type": "note_off", "time": 64, "note": 69, "velocity": 110, "channel": 0}, {"type": "note_on", "time": 29, "note": 68, "velocity": 103, "channel": 0}, {"type": "note_off", "time": 95, "note": 68, "velocity": 103, "channel": 0}, {"type": "note_on", "time": 4, "note": 71, "velocity": 108, "channel": 0}, {"type": "note_off", "time": 54, "note": 71, "velocity": 108, "channel": 0}, {"type": "note_on", "time": 48, "note": 67, "velocity": 113, "channel": 0}, {"type": "note_off", "time": 144, "note": 67, "velocity": 113, "channel": 0}, {"type": "note_on", "time": 317, "note": 63, "velocity": 117, "channel": 0}, {"type": "note_off", "time": 43, "note": 63, "velocity": 117, "channel": 0}, {"type": "note_on", "time": 4, "note": 65, "velocity": 117, "channel": 0}, {"type": "note_off", "time": 46, "note": 65, "velocity": 117, "channel": 0}, {"type": "note_on", "time": 12, "note": 67, "velocity": 114, "channel": 0}, {"type": "note_off", "time": 64, "note": 67, "velocity": 114, "channel": 0}, {"type": "note_on", "time": 12, "note": 65, "velocity": 9, "channel": 0}, {"type": "note_off", "time": 287, "note": 65, "velocity": 9, "channel": 0}, {"type": "note_on", "time": 22, "note": 63, "velocity": 116, "channel": 0}, {"type": "note_off", "time": 286, "note": 63, "velocity": 116, "channel": 0}, {"type": "note_on", "time": 125, "note": 75, "velocity": 106, "channel": 0}, {"type": "note_off", "time": 31, "note": 75, "velocity": 106, "channel": 0}, {"type": "note_on", "time": 13, "note": 77, "velocity": 121, "channel": 0}, {"type": "note_off", "time": 39, "note": 77, "velocity": 121, "channel": 0}, {"type": "note_on", "time": 26, "note": 79, "velocity": 116, "channel": 0}, {"type": "note_off", "time": 84, "note": 79, "velocity": 116, "channel": 0}, {"type": "note_on", "time": 17, "note": 75, "velocity": 120, "channel": 0}, {"type": "note_off", "time": 44, "note": 75, "velocity": 120, "channel": 0}, {"type": "note_on", "time": 8, "note": 77, "velocity": 117, "channel": 0}, {"type": "note_off", "time": 43, "note": 77, "velocity": 117, "channel": 0}, {"type": "note_on", "time": 14, "note": 79, "velocity": 115, "channel": 0}, {"type": "note_off", "time": 60, "note": 79, "velocity": 115, "channel": 0}, {"type": "note_on", "time": 23, "note": 75, "velocity": 118, "channel": 0}, {"type": "note_off", "time": 37, "note": 75, "velocity": 118, "channel": 0}, {"type": "note_on", "time": 9, "note": 77, "velocity": 114, "channel": 0}, {"type": "note_off", "time": 38, "note": 77, "velocity": 114, "channel": 0}, {"type": "note_on", "time": 7, "note": 79, "velocity": 116, "channel": 0}, {"type": "note_off", "time": 74, "note": 79, "velocity": 116, "channel": 0}, {"type": "note_on", "time": 12, "note": 75, "velocity": 118, "channel": 0}, {"type": "note_off", "time": 47, "note": 75, "velocity": 118, "channel": 0}, {"type": "note_on", "time": 8, "note": 77, "velocity": 117, "channel": 0}, {"type": "note_off", "time": 31, "note": 77, "velocity": 117, "channel": 0}, {"type": "note_on", "time": 9, "note": 79, "velocity": 116, "channel": 0}, {"type": "note_off", "time": 79, "note": 79, "velocity": 116, "channel": 0}, {"type": "note_on", "time": 21, "note": 75, "velocity": 116, "channel": 0}, {"type": "note_off", "time": 52, "note": 75, "velocity": 116, "channel": 0}, {"type": "note_on", "time": 2, "note": 77, "velocity": 117, "channel": 0}, {"type": "note_off", "time": 28, "note": 77, "velocity": 117, "channel": 0}, {"type": "note_on", "time": 9, "note": 79, "velocity": 116, "channel": 0}, {"type": "note_off", "time": 69, "note": 79, "velocity": 116, "channel": 0}, {"type": "note_on", "time": 14, "note": 75, "velocity": 117, "channel": 0}, {"type": "note_off", "time": 38, "note": 75, "velocity": 117, "channel": 0}, {"type": "note_on", "time": 11, "note": 77, "velocity": 113, "channel": 0}, {"type": "note_off", "time": 31, "note": 77, "velocity": 113, "channel": 0}, {"type": "note_on", "time": 6, "note": 79, "velocity": 115, "channel": 0}, {"type": "note_off", "time": 75, "note": 79, "velocity": 115, "channel": 0}, {"type": "note_on", "time": 24, "note": 75, "velocity": 111, "channel": 0}, {"type": "note_off", "time": 38, "note": 75, "velocity": 111, "channel": 0}, {"type": "note_on", "time": 6, "note": 77, "velocity": 110, "channel": 0}, {"type": "note_off", "time": 32, "note": 77, "velocity": 110, "channel": 0}, {"type": "note_on", "time": 11, "note": 79, "velocity": 110, "channel": 0}, {"type": "note_off", "time": 82, "note": 79, "velocity": 110, "channel": 0}, {"type": "note_on", "time": 13, "note": 75, "velocity": 112, "channel": 0}, {"type": "note_on", "time": 48, "note": 77, "velocity": 109, "channel": 0}, {"type": "note_off", "time": 0, "note": 75, "velocity": 112, "channel": 0}, {"type": "note_off", "time": 28, "note": 77, "velocity": 109, "channel": 0}, {"type": "note_on", "time": 7, "note": 79, "velocity": 113, "channel": 0}, {"type": "note_off", "time": 84, "note": 79, "velocity": 113, "channel": 0}, {"type": "note_on", "time": 16, "note": 78, "velocity": 110, "channel": 0}, {"type": "note_off", "time": 177, "note": 78, "velocity": 110, "channel": 0}, {"type": "note_on", "time": 22, "note": 74, "velocity": 114, "channel": 0}, {"type": "note_off", "time": 113, "note": 74, "velocity": 114, "channel": 0}, {"type": "note_on", "time": 89, "note": 71, "velocity": 108, "channel": 0}, {"type": "note_off", "time": 175, "note": 71, "velocity": 108, "channel": 0}, {"type": "note_on", "time": 19, "note": 67, "velocity": 116, "channel": 0}, {"type": "note_off", "time": 97, "note": 67, "velocity": 116, "channel": 0}, {"type": "note_on", "time": 69, "note": 70, "velocity": 110, "channel": 0}, {"type": "note_off", "time": 163, "note": 70, "velocity": 110, "channel": 0}, {"type": "note_on", "time": 27, "note": 76, "velocity": 124, "channel": 0}, {"type": "note_off", "time": 103, "note": 76, "velocity": 124, "channel": 0}, {"type": "note_on", "time": 19, "note": 75, "velocity": 118, "channel": 0}, {"type": "note_off", "time": 99, "note": 75, "velocity": 118, "channel": 0}, {"type": "note_on", "time": 112, "note": 69, "velocity": 116, "channel": 0}, {"type": "note_off", "time": 215, "note": 69, "velocity": 116, "channel": 0}, {"type": "note_on", "time": 14, "note": 68, "velocity": 114, "channel": 0}, {"type": "note_off", "time": 200, "note": 68, "velocity": 114, "channel": 0}, {"type": "note_on", "time": 29, "note": 75, "velocity": 118, "channel": 0}, {"type": "note_off", "time": 171, "note": 75, "velocity": 118, "channel": 0}, {"type": "note_on", "time": 27, "note": 72, "velocity": 115, "channel": 0}, {"type": "note_off", "time": 155, "note": 72, "velocity": 115, "channel": 0}, {"type": "note_on", "time": 19, "note": 75, "velocity": 108, "channel": 0}, {"type": "note_off", "time": 133, "note": 75, "velocity": 108, "channel": 0}, {"type": "note_on", "time": 43, "note": 68, "velocity": 112, "channel": 0}, {"type": "note_off", "time": 224, "note": 68, "velocity": 112, "channel": 0}, {"type": "note_on", "time": 195, "note": 73, "velocity": 120, "channel": 0}, {"type": "note_off", "time": 89, "note": 73, "velocity": 120, "channel": 0}, {"type": "note_on", "time": 26, "note": 75, "velocity": 117, "channel": 0}, {"type": "note_off", "time": 67, "note": 75, "velocity": 117, "channel": 0}, {"type": "note_on", "time": 11, "note": 77, "velocity": 121, "channel": 0}, {"type": "note_off", "time": 89, "note": 77, "velocity": 121, "channel": 0}, {"type": "note_on", "time": 16, "note": 78, "velocity": 118, "channel": 0}, {"type": "note_off", "time": 248, "note": 78, "velocity": 118, "channel": 0}, {"type": "note_on", "time": 16, "note": 76, "velocity": 116, "channel": 0}, {"type": "note_off", "time": 38, "note": 76, "velocity": 116, "channel": 0}, {"type": "note_on", "time": 13, "note": 75, "velocity": 120, "channel": 0}, {"type": "note_off", "time": 58, "note": 75, "velocity": 120, "channel": 0}, {"type": "note_on", "time": 13, "note": 73, "velocity": 119, "channel": 0}, {"type": "note_off", "time": 85, "note": 73, "velocity": 119, "channel": 0}, {"type": "note_on", "time": 14, "note": 77, "velocity": 120, "channel": 0}, {"type": "note_off", "time": 175, "note": 77, "velocity": 120, "channel": 0}, {"type": "note_on", "time": 3, "note": 75, "velocity": 118, "channel": 0}, {"type": "note_off", "time": 47, "note": 75, "velocity": 118, "channel": 0}, {"type": "note_on", "time": 8, "note": 74, "velocity": 123, "channel": 0}, {"type": "note_off", "time": 44, "note": 74, "velocity": 123, "channel": 0}, {"type": "note_on", "time": 17, "note": 73, "velocity": 121, "channel": 0}, {"type": "note_off", "time": 77, "note": 73, "velocity": 121, "channel": 0}, {"type": "note_on", "time": 0, "note": 76, "velocity": 117, "channel": 0}, {"type": "note_off", "time": 165, "note": 76, "velocity": 117, "channel": 0}, {"type": "note_on", "time": 13, "note": 74, "velocity": 123, "channel": 0}, {"type": "note_off", "time": 51, "note": 74, "velocity": 123, "channel": 0}, {"type": "note_on", "time": 9, "note": 73, "velocity": 122, "channel": 0}, {"type": "note_off", "time": 47, "note": 73, "velocity": 122, "channel": 0}, {"type": "note_on", "time": 19, "note": 71, "velocity": 112, "channel": 0}, {"type": "note_off", "time": 56, "note": 71, "velocity": 112, "channel": 0}, {"type": "note_on", "time": 12, "note": 75, "velocity": 121, "channel": 0}, {"type": "note_off", "time": 138, "note": 75, "velocity": 121, "channel": 0}, {"type": "note_on", "time": 12, "note": 73, "velocity": 121, "channel": 0}, {"type": "note_off", "time": 73, "note": 73, "velocity": 121, "channel": 0}, {"type": "note_on", "time": 2, "note": 72, "velocity": 119, "channel": 0}, {"type": "note_off", "time": 68, "note": 72, "velocity": 119, "channel": 0}, {"type": "note_on", "time": 16, "note": 70, "velocity": 107, "channel": 0}, {"type": "note_off", "time": 54, "note": 70, "velocity": 107, "channel": 0}, {"type": "note_on", "time": 18, "note": 75, "velocity": 119, "channel": 0}, {"type": "note_off", "time": 131, "note": 75, "velocity": 119, "channel": 0}, {"type": "note_on", "time": 669, "note": 83, "velocity": 115, "channel": 0}, {"type": "note_off", "time": 103, "note": 83, "velocity": 115, "channel": 0}, {"type": "note_on", "time": 587, "note": 78, "velocity": 113, "channel": 0}, {"type": "note_off", "time": 170, "note": 78, "velocity": 113, "channel": 0}, {"type": "note_on", "time": 12, "note": 76, "velocity": 114, "channel": 0}, {"type": "note_off", "time": 43, "note": 76, "velocity": 114, "channel": 0}, {"type": "note_on", "time": 13, "note": 75, "velocity": 124, "channel": 0}, {"type": "note_off", "time": 58, "note": 75, "velocity": 124, "channel": 0}, {"type": "note_on", "time": 14, "note": 73, "velocity": 115, "channel": 0}, {"type": "note_off", "time": 74, "note": 73, "velocity": 115, "channel": 0}, {"type": "note_on", "time": 16, "note": 77, "velocity": 118, "channel": 0}, {"type": "note_off", "time": 151, "note": 77, "velocity": 118, "channel": 0}, {"type": "note_on", "time": 11, "note": 75, "velocity": 119, "channel": 0}, {"type": "note_off", "time": 51, "note": 75, "velocity": 119, "channel": 0}, {"type": "note_on", "time": 2, "note": 74, "velocity": 123, "channel": 0}, {"type": "note_off", "time": 46, "note": 74, "velocity": 123, "channel": 0}, {"type": "note_on", "time": 22, "note": 73, "velocity": 122, "channel": 0}, {"type": "note_off", "time": 62, "note": 73, "velocity": 122, "channel": 0}, {"type": "note_on", "time": 6, "note": 76, "velocity": 121, "channel": 0}, {"type": "note_off", "time": 149, "note": 76, "velocity": 121, "channel": 0}, {"type": "note_on", "time": 7, "note": 74, "velocity": 122, "channel": 0}, {"type": "note_off", "time": 44, "note": 74, "velocity": 122, "channel": 0}, {"type": "note_on", "time": 22, "note": 73, "velocity": 123, "channel": 0}, {"type": "note_off", "time": 64, "note": 73, "velocity": 123, "channel": 0}, {"type": "note_on", "time": 17, "note": 71, "velocity": 106, "channel": 0}, {"type": "note_off", "time": 83, "note": 71, "velocity": 106, "channel": 0}, {"type": "note_on", "time": 14, "note": 75, "velocity": 120, "channel": 0}, {"type": "note_off", "time": 143, "note": 75, "velocity": 120, "channel": 0}, {"type": "note_on", "time": 6, "note": 73, "velocity": 120, "channel": 0}, {"type": "note_off", "time": 69, "note": 73, "velocity": 120, "channel": 0}, {"type": "note_on", "time": 2, "note": 72, "velocity": 118, "channel": 0}, {"type": "note_off", "time": 92, "note": 72, "velocity": 118, "channel": 0}, {"type": "note_on", "time": 33, "note": 71, "velocity": 105, "channel": 0}, {"type": "note_off", "time": 52, "note": 71, "velocity": 105, "channel": 0}, {"type": "note_on", "time": 16, "note": 80, "velocity": 117, "channel": 0}, {"type": "note_off", "time": 145, "note": 80, "velocity": 117, "channel": 0}, {"type": "note_on", "time": 4, "note": 78, "velocity": 117, "channel": 0}, {"type": "note_off", "time": 62, "note": 78, "velocity": 117, "channel": 0}, {"type": "note_on", "time": 8, "note": 77, "velocity": 121, "channel": 0}, {"type": "note_off", "time": 49, "note": 77, "velocity": 121, "channel": 0}, {"type": "note_on", "time": 12, "note": 75, "velocity": 120, "channel": 0}, {"type": "note_off", "time": 72, "note": 75, "velocity": 120, "channel": 0}, {"type": "note_on", "time": 8, "note": 79, "velocity": 116, "channel": 0}, {"type": "note_off", "time": 136, "note": 79, "velocity": 116, "channel": 0}, {"type": "note_on", "time": 11, "note": 77, "velocity": 122, "channel": 0}, {"type": "note_off", "time": 68, "note": 77, "velocity": 122, "channel": 0}, {"type": "note_on", "time": 11, "note": 76, "velocity": 122, "channel": 0}, {"type": "note_off", "time": 52, "note": 76, "velocity": 122, "channel": 0}, {"type": "note_on", "time": 8, "note": 75, "velocity": 122, "channel": 0}, {"type": "note_off", "time": 44, "note": 75, "velocity": 122, "channel": 0}, {"type": "note_on", "time": 34, "note": 78, "velocity": 119, "channel": 0}, {"type": "note_off", "time": 179, "note": 78, "velocity": 119, "channel": 0}, {"type": "note_on", "time": 2, "note": 76, "velocity": 118, "channel": 0}, {"type": "note_off", "time": 26, "note": 76, "velocity": 118, "channel": 0}, {"type": "note_on", "time": 17, "note": 75, "velocity": 123, "channel": 0}, {"type": "note_off", "time": 69, "note": 75, "velocity": 123, "channel": 0}, {"type": "note_on", "time": 13, "note": 73, "velocity": 124, "channel": 0}, {"type": "note_off", "time": 69, "note": 73, "velocity": 124, "channel": 0}, {"type": "note_on", "time": 12, "note": 77, "velocity": 123, "channel": 0}, {"type": "note_off", "time": 170, "note": 77, "velocity": 123, "channel": 0}, {"type": "note_on", "time": 3, "note": 75, "velocity": 121, "channel": 0}, {"type": "note_off", "time": 44, "note": 75, "velocity": 121, "channel": 0}, {"type": "note_on", "time": 6, "note": 74, "velocity": 125, "channel": 0}, {"type": "note_off", "time": 48, "note": 74, "velocity": 125, "channel": 0}, {"type": "note_on", "time": 8, "note": 73, "velocity": 123, "channel": 0}, {"type": "note_off", "time": 77, "note": 73, "velocity": 123, "channel": 0}, {"type": "note_on", "time": 19, "note": 82, "velocity": 115, "channel": 0}, {"type": "note_off", "time": 154, "note": 82, "velocity": 115, "channel": 0}, {"type": "note_on", "time": 17, "note": 80, "velocity": 116, "channel": 0}, {"type": "note_off", "time": 73, "note": 80, "velocity": 116, "channel": 0}, {"type": "note_on", "time": 4, "note": 79, "velocity": 114, "channel": 0}, {"type": "note_off", "time": 39, "note": 79, "velocity": 114, "channel": 0}, {"type": "note_on", "time": 11, "note": 77, "velocity": 121, "channel": 0}, {"type": "note_off", "time": 69, "note": 77, "velocity": 121, "channel": 0}, {"type": "note_on", "time": 18, "note": 81, "velocity": 117, "channel": 0}, {"type": "note_off", "time": 159, "note": 81, "velocity": 117, "channel": 0}, {"type": "note_on", "time": 4, "note": 79, "velocity": 117, "channel": 0}, {"type": "note_off", "time": 70, "note": 79, "velocity": 117, "channel": 0}, {"type": "note_on", "time": 7, "note": 78, "velocity": 119, "channel": 0}, {"type": "note_off", "time": 47, "note": 78, "velocity": 119, "channel": 0}, {"type": "note_on", "time": 19, "note": 76, "velocity": 123, "channel": 0}, {"type": "note_off", "time": 57, "note": 76, "velocity": 123, "channel": 0}, {"type": "note_on", "time": 11, "note": 80, "velocity": 118, "channel": 0}, {"type": "note_off", "time": 150, "note": 80, "velocity": 118, "channel": 0}, {"type": "note_on", "time": 3, "note": 78, "velocity": 118, "channel": 0}, {"type": "note_off", "time": 47, "note": 78, "velocity": 118, "channel": 0}, {"type": "note_on", "time": 16, "note": 77, "velocity": 123, "channel": 0}, {"type": "note_off", "time": 34, "note": 77, "velocity": 123, "channel": 0}, {"type": "note_on", "time": 13, "note": 75, "velocity": 124, "channel": 0}, {"type": "note_off", "time": 75, "note": 75, "velocity": 124, "channel": 0}, {"type": "note_on", "time": 7, "note": 79, "velocity": 118, "channel": 0}, {"type": "note_off", "time": 151, "note": 79, "velocity": 118, "channel": 0}, {"type": "note_on", "time": 7, "note": 77, "velocity": 123, "channel": 0}, {"type": "note_off", "time": 51, "note": 77, "velocity": 123, "channel": 0}, {"type": "note_on", "time": 13, "note": 76, "velocity": 122, "channel": 0}, {"type": "note_off", "time": 49, "note": 76, "velocity": 122, "channel": 0}, {"type": "note_on", "time": 7, "note": 75, "velocity": 119, "channel": 0}, {"type": "note_off", "time": 39, "note": 75, "velocity": 119, "channel": 0}, {"type": "note_on", "time": 58, "note": 78, "velocity": 119, "channel": 0}, {"type": "note_off", "time": 182, "note": 78, "velocity": 119, "channel": 0}, {"type": "note_on", "time": 8, "note": 77, "velocity": 113, "channel": 0}, {"type": "note_off", "time": 38, "note": 77, "velocity": 113, "channel": 0}, {"type": "note_on", "time": 8, "note": 75, "velocity": 125, "channel": 0}, {"type": "note_off", "time": 60, "note": 75, "velocity": 125, "channel": 0}, {"type": "note_on", "time": 19, "note": 73, "velocity": 124, "channel": 0}, {"type": "note_off", "time": 80, "note": 73, "velocity": 124, "channel": 0}, {"type": "note_on", "time": 12, "note": 71, "velocity": 114, "channel": 0}, {"type": "note_off", "time": 57, "note": 71, "velocity": 114, "channel": 0}, {"type": "note_on", "time": 12, "note": 83, "velocity": 121, "channel": 0}, {"type": "note_off", "time": 113, "note": 83, "velocity": 121, "channel": 0}, {"type": "note_on", "time": 194, "note": 76, "velocity": 117, "channel": 0}, {"type": "note_off", "time": 118, "note": 76, "velocity": 117, "channel": 0}, {"type": "note_on", "time": 79, "note": 74, "velocity": 126, "channel": 0}, {"type": "note_off", "time": 77, "note": 74, "velocity": 126, "channel": 0}, {"type": "note_on", "time": 19, "note": 73, "velocity": 125, "channel": 0}, {"type": "note_off", "time": 98, "note": 73, "velocity": 125, "channel": 0}, {"type": "note_on", "time": 334, "note": 74, "velocity": 123, "channel": 0}, {"type": "note_off", "time": 109, "note": 74, "velocity": 123, "channel": 0}, {"type": "note_on", "time": 12, "note": 78, "velocity": 118, "channel": 0}, {"type": "note_off", "time": 58, "note": 78, "velocity": 118, "channel": 0}, {"type": "note_on", "time": 31, "note": 81, "velocity": 119, "channel": 0}, {"type": "note_off", "time": 74, "note": 81, "velocity": 119, "channel": 0}, {"type": "note_on", "time": 8, "note": 79, "velocity": 119, "channel": 0}, {"type": "note_off", "time": 92, "note": 79, "velocity": 119, "channel": 0}, {"type": "note_on", "time": 8, "note": 77, "velocity": 119, "channel": 0}, {"type": "note_off", "time": 72, "note": 77, "velocity": 119, "channel": 0}, {"type": "note_on", "time": 8, "note": 76, "velocity": 120, "channel": 0}, {"type": "note_off", "time": 83, "note": 76, "velocity": 120, "channel": 0}, {"type": "note_on", "time": 7, "note": 74, "velocity": 123, "channel": 0}, {"type": "note_off", "time": 107, "note": 74, "velocity": 123, "channel": 0}, {"type": "note_on", "time": 4, "note": 72, "velocity": 121, "channel": 0}, {"type": "note_off", "time": 72, "note": 72, "velocity": 121, "channel": 0}, {"type": "note_on", "time": 27, "note": 70, "velocity": 95, "channel": 0}, {"type": "note_off", "time": 84, "note": 70, "velocity": 95, "channel": 0}, {"type": "note_on", "time": 619, "note": 69, "velocity": 117, "channel": 0}, {"type": "note_off", "time": 38, "note": 69, "velocity": 117, "channel": 0}, {"type": "note_on", "time": 7, "note": 70, "velocity": 110, "channel": 0}, {"type": "note_off", "time": 109, "note": 70, "velocity": 110, "channel": 0}, {"type": "note_on", "time": 24, "note": 72, "velocity": 123, "channel": 0}, {"type": "note_off", "time": 64, "note": 72, "velocity": 123, "channel": 0}, {"type": "note_on", "time": 18, "note": 74, "velocity": 121, "channel": 0}, {"type": "note_off", "time": 114, "note": 74, "velocity": 121, "channel": 0}, {"type": "note_on", "time": 11, "note": 77, "velocity": 119, "channel": 0}, {"type": "note_off", "time": 94, "note": 77, "velocity": 119, "channel": 0}, {"type": "note_on", "time": 13, "note": 75, "velocity": 122, "channel": 0}, {"type": "note_off", "time": 72, "note": 75, "velocity": 122, "channel": 0}, {"type": "note_on", "time": 11, "note": 77, "velocity": 122, "channel": 0}, {"type": "note_off", "time": 73, "note": 77, "velocity": 122, "channel": 0}, {"type": "note_on", "time": 9, "note": 79, "velocity": 117, "channel": 0}, {"type": "note_off", "time": 89, "note": 79, "velocity": 117, "channel": 0}, {"type": "note_on", "time": 17, "note": 82, "velocity": 118, "channel": 0}, {"type": "note_off", "time": 73, "note": 82, "velocity": 118, "channel": 0}, {"type": "note_on", "time": 16, "note": 80, "velocity": 116, "channel": 0}, {"type": "note_off", "time": 77, "note": 80, "velocity": 116, "channel": 0}, {"type": "note_on", "time": 12, "note": 79, "velocity": 122, "channel": 0}, {"type": "note_off", "time": 74, "note": 79, "velocity": 122, "channel": 0}, {"type": "note_on", "time": 19, "note": 77, "velocity": 120, "channel": 0}, {"type": "note_off", "time": 73, "note": 77, "velocity": 120, "channel": 0}, {"type": "note_on", "time": 23, "note": 76, "velocity": 124, "channel": 0}, {"type": "note_off", "time": 92, "note": 76, "velocity": 124, "channel": 0}, {"type": "note_on", "time": 12, "note": 75, "velocity": 121, "channel": 0}, {"type": "note_off", "time": 68, "note": 75, "velocity": 121, "channel": 0}, {"type": "note_on", "time": 16, "note": 74, "velocity": 125, "channel": 0}, {"type": "note_off", "time": 84, "note": 74, "velocity": 125, "channel": 0}, {"type": "note_on", "time": 18, "note": 73, "velocity": 122, "channel": 0}, {"type": "note_off", "time": 77, "note": 73, "velocity": 122, "channel": 0}, {"type": "note_on", "time": 19, "note": 71, "velocity": 110, "channel": 0}, {"type": "note_off", "time": 82, "note": 71, "velocity": 110, "channel": 0}, {"type": "note_on", "time": 12, "note": 70, "velocity": 113, "channel": 0}, {"type": "note_off", "time": 53, "note": 70, "velocity": 113, "channel": 0}, {"type": "note_on", "time": 48, "note": 66, "velocity": 119, "channel": 0}, {"type": "note_off", "time": 78, "note": 66, "velocity": 119, "channel": 0}, {"type": "note_on", "time": 13, "note": 64, "velocity": 115, "channel": 0}, {"type": "note_off", "time": 90, "note": 64, "velocity": 115, "channel": 0}, {"type": "note_on", "time": 14, "note": 60, "velocity": 118, "channel": 0}, {"type": "note_off", "time": 51, "note": 60, "velocity": 118, "channel": 0}, {"type": "note_on", "time": 17, "note": 63, "velocity": 115, "channel": 0}, {"type": "note_off", "time": 308, "note": 63, "velocity": 115, "channel": 0}, {"type": "note_on", "time": 36, "note": 58, "velocity": 117, "channel": 0}, {"type": "note_off", "time": 120, "note": 58, "velocity": 117, "channel": 0}, {"type": "note_on", "time": 19, "note": 60, "velocity": 121, "channel": 0}, {"type": "note_off", "time": 60, "note": 60, "velocity": 121, "channel": 0}, {"type": "note_on", "time": 12, "note": 62, "velocity": 120, "channel": 0}, {"type": "note_off", "time": 105, "note": 62, "velocity": 120, "channel": 0}, {"type": "note_on", "time": 9, "note": 65, "velocity": 122, "channel": 0}, {"type": "note_off", "time": 74, "note": 65, "velocity": 122, "channel": 0}, {"type": "note_on", "time": 23, "note": 63, "velocity": 119, "channel": 0}, {"type": "note_off", "time": 103, "note": 63, "velocity": 119, "channel": 0}, {"type": "note_on", "time": 11, "note": 65, "velocity": 115, "channel": 0}, {"type": "note_off", "time": 60, "note": 65, "velocity": 115, "channel": 0}, {"type": "note_on", "time": 17, "note": 67, "velocity": 116, "channel": 0}, {"type": "note_off", "time": 93, "note": 67, "velocity": 116, "channel": 0}, {"type": "note_on", "time": 18, "note": 70, "velocity": 116, "channel": 0}, {"type": "note_off", "time": 82, "note": 70, "velocity": 116, "channel": 0}, {"type": "note_on", "time": 12, "note": 67, "velocity": 118, "channel": 0}, {"type": "note_off", "time": 84, "note": 67, "velocity": 118, "channel": 0}, {"type": "note_on", "time": 19, "note": 68, "velocity": 113, "channel": 0}, {"type": "note_off", "time": 63, "note": 68, "velocity": 113, "channel": 0}, {"type": "note_on", "time": 21, "note": 70, "velocity": 114, "channel": 0}, {"type": "note_off", "time": 79, "note": 70, "velocity": 114, "channel": 0}, {"type": "note_on", "time": 9, "note": 73, "velocity": 118, "channel": 0}, {"type": "note_off", "time": 73, "note": 73, "velocity": 118, "channel": 0}, {"type": "note_on", "time": 8, "note": 75, "velocity": 118, "channel": 0}, {"type": "note_off", "time": 80, "note": 75, "velocity": 118, "channel": 0}, {"type": "note_on", "time": 17, "note": 77, "velocity": 120, "channel": 0}, {"type": "note_off", "time": 80, "note": 77, "velocity": 120, "channel": 0}, {"type": "note_on", "time": 8, "note": 79, "velocity": 117, "channel": 0}, {"type": "note_off", "time": 90, "note": 79, "velocity": 117, "channel": 0}, {"type": "note_on", "time": 21, "note": 80, "velocity": 119, "channel": 0}, {"type": "note_off", "time": 93, "note": 80, "velocity": 119, "channel": 0}, {"type": "note_on", "time": 18, "note": 78, "velocity": 117, "channel": 0}, {"type": "note_off", "time": 98, "note": 78, "velocity": 117, "channel": 0}, {"type": "note_on", "time": 675, "note": 81, "velocity": 118, "channel": 0}, {"type": "note_off", "time": 100, "note": 81, "velocity": 118, "channel": 0}, {"type": "note_on", "time": 12, "note": 83, "velocity": 117, "channel": 0}, {"type": "note_off", "time": 95, "note": 83, "velocity": 117, "channel": 0}, {"type": "note_on", "time": 7, "note": 80, "velocity": 117, "channel": 0}, {"type": "note_off", "time": 80, "note": 80, "velocity": 117, "channel": 0}, {"type": "note_on", "time": 22, "note": 77, "velocity": 121, "channel": 0}, {"type": "note_off", "time": 74, "note": 77, "velocity": 121, "channel": 0}, {"type": "note_on", "time": 7, "note": 79, "velocity": 116, "channel": 0}, {"type": "note_off", "time": 78, "note": 79, "velocity": 116, "channel": 0}, {"type": "note_on", "time": 11, "note": 81, "velocity": 123, "channel": 0}, {"type": "note_off", "time": 70, "note": 81, "velocity": 123, "channel": 0}, {"type": "note_on", "time": 11, "note": 78, "velocity": 117, "channel": 0}, {"type": "note_off", "time": 60, "note": 78, "velocity": 117, "channel": 0}, {"type": "note_on", "time": 13, "note": 75, "velocity": 120, "channel": 0}, {"type": "note_off", "time": 94, "note": 75, "velocity": 120, "channel": 0}, {"type": "note_on", "time": 6, "note": 77, "velocity": 120, "channel": 0}, {"type": "note_off", "time": 95, "note": 77, "velocity": 120, "channel": 0}, {"type": "note_on", "time": 17, "note": 79, "velocity": 122, "channel": 0}, {"type": "note_off", "time": 92, "note": 79, "velocity": 122, "channel": 0}, {"type": "note_on", "time": 13, "note": 76, "velocity": 122, "channel": 0}, {"type": "note_off", "time": 77, "note": 76, "velocity": 122, "channel": 0}, {"type": "note_on", "time": 13, "note": 73, "velocity": 125, "channel": 0}, {"type": "note_off", "time": 68, "note": 73, "velocity": 125, "channel": 0}, {"type": "note_on", "time": 9, "note": 75, "velocity": 122, "channel": 0}, {"type": "note_off", "time": 79, "note": 75, "velocity": 122, "channel": 0}, {"type": "note_on", "time": 14, "note": 77, "velocity": 121, "channel": 0}, {"type": "note_off", "time": 74, "note": 77, "velocity": 121, "channel": 0}, {"type": "note_on", "time": 11, "note": 74, "velocity": 126, "channel": 0}, {"type": "note_off", "time": 80, "note": 74, "velocity": 126, "channel": 0}, {"type": "note_on", "time": 19, "note": 71, "velocity": 111, "channel": 0}, {"type": "note_off", "time": 63, "note": 71, "velocity": 111, "channel": 0}, {"type": "note_on", "time": 14, "note": 73, "velocity": 118, "channel": 0}, {"type": "note_off", "time": 84, "note": 73, "velocity": 118, "channel": 0}, {"type": "note_on", "time": 17, "note": 75, "velocity": 121, "channel": 0}, {"type": "note_off", "time": 69, "note": 75, "velocity": 121, "channel": 0}, {"type": "note_on", "time": 17, "note": 74, "velocity": 125, "channel": 0}, {"type": "note_off", "time": 98, "note": 74, "velocity": 125, "channel": 0}, {"type": "note_on", "time": 16, "note": 71, "velocity": 108, "channel": 0}, {"type": "note_off", "time": 67, "note": 71, "velocity": 108, "channel": 0}, {"type": "note_on", "time": 4, "note": 75, "velocity": 123, "channel": 0}, {"type": "note_off", "time": 89, "note": 75, "velocity": 123, "channel": 0}, {"type": "note_on", "time": 7, "note": 77, "velocity": 121, "channel": 0}, {"type": "note_off", "time": 80, "note": 77, "velocity": 121, "channel": 0}, {"type": "note_on", "time": 4, "note": 76, "velocity": 123, "channel": 0}, {"type": "note_off", "time": 82, "note": 76, "velocity": 123, "channel": 0}, {"type": "note_on", "time": 24, "note": 73, "velocity": 123, "channel": 0}, {"type": "note_off", "time": 83, "note": 73, "velocity": 123, "channel": 0}, {"type": "note_on", "time": 0, "note": 77, "velocity": 120, "channel": 0}, {"type": "note_off", "time": 87, "note": 77, "velocity": 120, "channel": 0}, {"type": "note_on", "time": 6, "note": 79, "velocity": 120, "channel": 0}, {"type": "note_off", "time": 99, "note": 79, "velocity": 120, "channel": 0}, {"type": "note_on", "time": 8, "note": 78, "velocity": 118, "channel": 0}, {"type": "note_off", "time": 93, "note": 78, "velocity": 118, "channel": 0}, {"type": "note_on", "time": 4, "note": 75, "velocity": 122, "channel": 0}, {"type": "note_off", "time": 80, "note": 75, "velocity": 122, "channel": 0}, {"type": "note_on", "time": 6, "note": 79, "velocity": 119, "channel": 0}, {"type": "note_off", "time": 101, "note": 79, "velocity": 119, "channel": 0}, {"type": "note_on", "time": 7, "note": 81, "velocity": 121, "channel": 0}, {"type": "note_off", "time": 95, "note": 81, "velocity": 121, "channel": 0}, {"type": "note_on", "time": 7, "note": 79, "velocity": 116, "channel": 0}, {"type": "note_off", "time": 35, "note": 79, "velocity": 116, "channel": 0}, {"type": "note_on", "time": 4, "note": 77, "velocity": 119, "channel": 0}, {"type": "note_off", "time": 126, "note": 77, "velocity": 119, "channel": 0}, {"type": "note_on", "time": 400, "note": 77, "velocity": 123, "channel": 0}, {"type": "note_off", "time": 62, "note": 77, "velocity": 123, "channel": 0}, {"type": "note_on", "time": 7, "note": 79, "velocity": 116, "channel": 0}, {"type": "note_off", "time": 42, "note": 79, "velocity": 116, "channel": 0}, {"type": "note_on", "time": 7, "note": 81, "velocity": 114, "channel": 0}, {"type": "note_off", "time": 70, "note": 81, "velocity": 114, "channel": 0}, {"type": "note_on", "time": 4, "note": 83, "velocity": 116, "channel": 0}, {"type": "note_off", "time": 74, "note": 83, "velocity": 116, "channel": 0}, {"type": "note_on", "time": 8, "note": 81, "velocity": 116, "channel": 0}, {"type": "note_off", "time": 67, "note": 81, "velocity": 116, "channel": 0}, {"type": "note_on", "time": 7, "note": 79, "velocity": 118, "channel": 0}, {"type": "note_off", "time": 47, "note": 79, "velocity": 118, "channel": 0}, {"type": "note_on", "time": 4, "note": 77, "velocity": 122, "channel": 0}, {"type": "note_off", "time": 62, "note": 77, "velocity": 122, "channel": 0}, {"type": "note_on", "time": 8, "note": 75, "velocity": 122, "channel": 0}, {"type": "note_off", "time": 59, "note": 75, "velocity": 122, "channel": 0}, {"type": "note_on", "time": 12, "note": 73, "velocity": 121, "channel": 0}, {"type": "note_off", "time": 50, "note": 73, "velocity": 121, "channel": 0}, {"type": "note_on", "time": 6, "note": 71, "velocity": 110, "channel": 0}, {"type": "note_off", "time": 64, "note": 71, "velocity": 110, "channel": 0}, {"type": "note_on", "time": 6, "note": 69, "velocity": 115, "channel": 0}, {"type": "note_off", "time": 41, "note": 69, "velocity": 115, "channel": 0}, {"type": "note_on", "time": 13, "note": 67, "velocity": 118, "channel": 0}, {"type": "note_off", "time": 42, "note": 67, "velocity": 118, "channel": 0}, {"type": "note_on", "time": 3, "note": 65, "velocity": 124, "channel": 0}, {"type": "note_off", "time": 48, "note": 65, "velocity": 124, "channel": 0}, {"type": "note_on", "time": 8, "note": 63, "velocity": 119, "channel": 0}, {"type": "note_off", "time": 50, "note": 63, "velocity": 119, "channel": 0}, {"type": "note_on", "time": 26, "note": 61, "velocity": 116, "channel": 0}, {"type": "note_off", "time": 602, "note": 61, "velocity": 116, "channel": 0}, {"type": "note_on", "time": 6, "note": 63, "velocity": 115, "channel": 0}, {"type": "note_off", "time": 237, "note": 63, "velocity": 115, "channel": 0}, {"type": "note_on", "time": 24, "note": 61, "velocity": 115, "channel": 0}, {"type": "note_off", "time": 113, "note": 61, "velocity": 115, "channel": 0}, {"type": "note_on", "time": 33, "note": 68, "velocity": 115, "channel": 0}, {"type": "note_off", "time": 611, "note": 68, "velocity": 115, "channel": 0}, {"type": "note_on", "time": 179, "note": 72, "velocity": 117, "channel": 0}, {"type": "note_off", "time": 136, "note": 72, "velocity": 117, "channel": 0}, {"type": "end_of_track", "time": 0}]]}