{"ticks_per_beat": 192, "tracks": [[{"type": "track_name", "name": "Melody", "time": 0}, {"type": "set_tempo", "tempo": 458015, "time": 0}, {"type": "key_signature", "key": "F", "time": 0}, {"type": "time_signature", "numerator": 4, "denominator": 4, "clocks_per_click": 24, "notated_32nd_notes_per_beat": 8, "time": 0}, {"type": "note_on", "time": 1240, "note": 55, "velocity": 108, "channel": 0}, {"type": "note_off", "time": 49, "note": 55, "velocity": 108, "channel": 0}, {"type": "note_on", "time": 17, "note": 58, "velocity": 103, "channel": 0}, {"type": "note_off", "time": 44, "note": 58, "velocity": 103, "channel": 0}, {"type": "note_on", "time": 1, "note": 60, "velocity": 111, "channel": 0}, {"type": "note_off", "time": 78, "note": 60, "velocity": 111, "channel": 0}, {"type": "note_on", "time": 0, "note": 63, "velocity": 108, "channel": 0}, {"type": "note_on", "time": 46, "note": 65, "velocity": 121, "channel": 0}, {"type": "note_off", "time": 0, "note": 63, "velocity": 108, "channel": 0}, {"type": "note_off", "time": 58, "note": 65, "velocity": 121, "channel": 0}, {"type": "note_on", "time": 0, "note": 67, "velocity": 116, "channel": 0}, {"type": "note_off", "time": 59, "note": 67, "velocity": 116, "channel": 0}, {"type": "note_on", "time": 1, "note": 70, "velocity": 120, "channel": 0}, {"type": "note_off", "time": 54, "note": 70, "velocity": 120, "channel": 0}, {"type": "note_on", "time": 1, "note": 72, "velocity": 116, "channel": 0}, {"type": "note_off", "time": 595, "note": 72, "velocity": 116, "channel": 0}, {"type": "note_on", "time": 17, "note": 70, "velocity": 115, "channel": 0}, {"type": "note_off", "time": 88, "note": 70, "velocity": 115, "channel": 0}, {"type": "note_on", "time": 30, "note": 69, "velocity": 116, "channel": 0}, {"type": "note_off", "time": 66, "note": 69, "velocity": 116, "channel": 0}, {"type": "note_on", "time": 73, "note": 69, "velocity": 119, "channel": 0}, {"type": "note_off", "time": 97, "note": 69, "velocity": 119, "channel": 0}, {"type": "note_on", "time": 13, "note": 67, "velocity": 101, "channel": 0}, {"type": "note_off", "time": 352, "note": 67, "velocity": 101, "channel": 0}, {"type": "note_on", "time": 349, "note": 55, "velocity": 105, "channel": 0}, {"type": "note_off", "time": 59, "note": 55, "velocity": 105, "channel": 0}, {"type": "note_on", "time": 6, "note": 58, "velocity": 109, "channel": 0}, {"type": "note_off", "time": 63, "note": 58, "velocity": 109, "channel": 0}, {"type": "note_on", "time": 1, "note": 56, "velocity": 110, "channel": 0}, {"type": "note_off", "time": 59, "note": 56, "velocity": 110, "channel": 0}, {"type": "note_on", "time": 8, "note": 58, "velocity": 107, "channel": 0}, {"type": "note_off", "time": 56, "note": 58, "velocity": 107, "channel": 0}, {"type": "note_on", "time": 0, "note": 60, "velocity": 110, "channel": 0}, {"type": "note_off", "time": 56, "note": 60, "velocity": 110, "channel": 0}, {"type": "note_on", "time": 0, "note": 63, "velocity": 109, "channel": 0}, {"type": "note_off", "time": 63, "note": 63, "velocity": 109, "channel": 0}, {"type": "note_on", "time": 0, "note": 65, "velocity": 119, "channel": 0}, {"type": "note_off", "time": 59, "note": 65, "velocity": 119, "channel": 0}, {"type": "note_on", "time": 0, "note": 68, "velocity": 115, "channel": 0}, {"type": "note_off", "time": 53, "note": 68, "velocity": 115, "channel": 0}, {"type": "note_on", "time": 3, "note": 70, "velocity": 119, "channel": 0}, {"type": "note_off", "time": 49, "note": 70, "velocity": 119, "channel": 0}, {"type": "note_on", "time": 0, "note": 72, "velocity": 118, "channel": 0}, {"type": "note_off", "time": 65, "note": 72, "velocity": 118, "channel": 0}, {"type": "note_on", "time": 25, "note": 72, "velocity": 116, "channel": 0}, {"type": "note_off", "time": 641, "note": 72, "velocity": 116, "channel": 0}, {"type": "note_on", "time": 35, "note": 77, "velocity": 114, "channel": 0}, {"type": "note_off", "time": 47, "note": 77, "velocity": 114, "channel": 0}, {"type": "note_on", "time": 0, "note": 75, "velocity": 116, "channel": 0}, {"type": "note_off", "time": 152, "note": 75, "velocity": 116, "channel": 0}, {"type": "note_on", "time": 1, "note": 72, "velocity": 111, "channel": 0}, {"type": "note_off", "time": 124, "note": 72, "velocity": 111, "channel": 0}, {"type": "note_on", "time": 5, "note": 70, "velocity": 112, "channel": 0}, {"type": "note_off", "time": 58, "note": 70, "velocity": 112, "channel": 0}, {"type": "note_on", "time": 304, "note": 69, "velocity": 123, "channel": 0}, {"type": "note_off", "time": 51, "note": 69, "velocity": 123, "channel": 0}, {"type": "note_on", "time": 13, "note": 70, "velocity": 116, "channel": 0}, {"type": "note_off", "time": 530, "note": 70, "velocity": 116, "channel": 0}, {"type": "note_on", "time": 5, "note": 69, "velocity": 118, "channel": 0}, {"type": "note_off", "time": 51, "note": 69, "velocity": 118, "channel": 0}, {"type": "note_on", "time": 1, "note": 70, "velocity": 103, "channel": 0}, {"type": "note_off", "time": 42, "note": 70, "velocity": 103, "channel": 0}, {"type": "note_on", "time": 6, "note": 72, "velocity": 116, "channel": 0}, {"type": "note_off", "time": 54, "note": 72, "velocity": 116, "channel": 0}, {"type": "note_on", "time": 10, "note": 70, "velocity": 111, "channel": 0}, {"type": "note_off", "time": 51, "note": 70, "velocity": 111, "channel": 0}, {"type": "note_on", "time": 1, "note": 69, "velocity": 108, "channel": 0}, {"type": "note_off", "time": 42, "note": 69, "velocity": 108, "channel": 0}, {"type": "note_on", "time": 0, "note": 70, "velocity": 93, "channel": 0}, {"type": "note_off", "time": 42, "note": 70, "velocity": 93, "channel": 0}, {"type": "note_on", "time": 13, "note": 72, "velocity": 110, "channel": 0}, {"type": "note_off", "time": 99, "note": 72, "velocity": 110, "channel": 0}, {"type": "note_on", "time": 30, "note": 72, "velocity": 110, "channel": 0}, {"type": "note_off", "time": 162, "note": 72, "velocity": 110, "channel": 0}, {"type": "note_on", "time": 10, "note": 68, "velocity": 113, "channel": 0}, {"type": "note_off", "time": 95, "note": 68, "velocity": 113, "channel": 0}, {"type": "note_on", "time": 5, "note": 67, "velocity": 105, "channel": 0}, {"type": "note_off", "time": 321, "note": 67, "velocity": 105, "channel": 0}, {"type": "note_on", "time": 448, "note": 55, "velocity": 108, "channel": 0}, {"type": "note_off", "time": 47, "note": 55, "velocity": 108, "channel": 0}, {"type": "note_on", "time": 1, "note": 57, "velocity": 110, "channel": 0}, {"type": "note_off", "time": 44, "note": 57, "velocity": 110, "channel": 0}, {"type": "note_on", "time": 6, "note": 60, "velocity": 111, "channel": 0}, {"type": "note_off", "time": 59, "note": 60, "velocity": 111, "channel": 0}, {"type": "note_on", "time": 6, "note": 61, "velocity": 109, "channel": 0}, {"type": "note_off", "time": 53, "note": 61, "velocity": 109, "channel": 0}, {"type": "note_on", "time": 27, "note": 63, "velocity": 110, "channel": 0}, {"type": "note_off", "time": 51, "note": 63, "velocity": 110, "channel": 0}, {"type": "note_on", "time": 6, "note": 65, "velocity": 116, "channel": 0}, {"type": "note_off", "time": 53, "note": 65, "velocity": 116, "channel": 0}, {"type": "note_on", "time": 6, "note": 67, "velocity": 120, "channel": 0}, {"type": "note_off", "time": 51, "note": 67, "velocity": 120, "channel": 0}, {"type": "note_on", "time": 1, "note": 70, "velocity": 118, "channel": 0}, {"type": "note_off", "time": 46, "note": 70, "velocity": 118, "channel": 0}, {"type": "note_on", "time": 1, "note": 72, "velocity": 113, "channel": 0}, {"type": "note_off", "time": 54, "note": 72, "velocity": 113, "channel": 0}, {"type": "note_on", "time": 8, "note": 73, "velocity": 125, "channel": 0}, {"type": "note_off", "time": 58, "note": 73, "velocity": 125, "channel": 0}, {"type": "note_on", "time": 6, "note": 75, "velocity": 118, "channel": 0}, {"type": "note_off", "time": 42, "note": 75, "velocity": 118, "channel": 0}, {"type": "note_on", "time": 0, "note": 72, "velocity": 115, "channel": 0}, {"type": "note_off", "time": 331, "note": 72, "velocity": 115, "channel": 0}, {"type": "note_on", "time": 15, "note": 72, "velocity": 116, "channel": 0}, {"type": "note_off", "time": 76, "note": 72, "velocity": 116, "channel": 0}, {"type": "note_on", "time": 15, "note": 72, "velocity": 110, "channel": 0}, {"type": "note_off", "time": 314, "note": 72, "velocity": 110, "channel": 0}, {"type": "note_on", "time": 46, "note": 70, "velocity": 117, "channel": 0}, {"type": "note_off", "time": 56, "note": 70, "velocity": 117, "channel": 0}, {"type": "note_on", "time": 0, "note": 67, "velocity": 102, "channel": 0}, {"type": "note_off", "time": 39, "note": 67, "velocity": 102, "channel": 0}, {"type": "note_on", "time": 0, "note": 70, "velocity": 118, "channel": 0}, {"type": "note_off", "time": 41, "note": 70, "velocity": 118, "channel": 0}, {"type": "note_on", "time": 0, "note": 72, "velocity": 114, "channel": 0}, {"type": "note_off", "time": 35, "note": 72, "velocity": 114, "channel": 0}, {"type": "note_on", "time": 22, "note": 65, "velocity": 91, "channel": 0}, {"type": "note_off", "time": 44, "note": 65, "velocity": 91, "channel": 0}, {"type": "note_on", "time": 8, "note": 67, "velocity": 115, "channel": 0}, {"type": "note_off", "time": 82, "note": 67, "velocity": 115, "channel": 0}, {"type": "note_on", "time": 207, "note": 72, "velocity": 121, "channel": 0}, {"type": "note_off", "time": 39, "note": 72, "velocity": 121, "channel": 0}, {"type": "note_on", "time": 0, "note": 70, "velocity": 119, "channel": 0}, {"type": "note_off", "time": 42, "note": 70, "velocity": 119, "channel": 0}, {"type": "note_on", "time": 0, "note": 67, "velocity": 104, "channel": 0}, {"type": "note_off", "time": 42, "note": 67, "velocity": 104, "channel": 0}, {"type": "note_on", "time": 15, "note": 63, "velocity": 106, "channel": 0}, {"type": "note_off", "time": 37, "note": 63, "velocity": 106, "channel": 0}, {"type": "note_on", "time": 0, "note": 60, "velocity": 103, "channel": 0}, {"type": "note_off", "time": 37, "note": 60, "velocity": 103, "channel": 0}, {"type": "note_on", "time": 0, "note": 66, "velocity": 120, "channel": 0}, {"type": "note_off", "time": 18, "note": 66, "velocity": 120, "channel": 0}, {"type": "note_on", "time": 6, "note": 67, "velocity": 116, "channel": 0}, {"type": "note_off", "time": 66, "note": 67, "velocity": 116, "channel": 0}, {"type": "note_on", "time": 229, "note": 58, "velocity": 107, "channel": 0}, {"type": "note_off", "time": 44, "note": 58, "velocity": 107, "channel": 0}, {"type": "note_on", "time": 0, "note": 60, "velocity": 99, "channel": 0}, {"type": "note_off", "time": 297, "note": 60, "velocity": 99, "channel": 0}, {"type": "note_on", "time": 189, "note": 61, "velocity": 112, "channel": 0}, {"type": "note_off", "time": 53, "note": 61, "velocity": 112, "channel": 0}, {"type": "note_on", "time": 1, "note": 62, "velocity": 110, "channel": 0}, {"type": "note_off", "time": 299, "note": 62, "velocity": 110, "channel": 0}, {"type": "note_on", "time": 13, "note": 65, "velocity": 113, "channel": 0}, {"type": "note_off", "time": 34, "note": 65, "velocity": 113, "channel": 0}, {"type": "note_on", "time": 6, "note": 68, "velocity": 117, "channel": 0}, {"type": "note_off", "time": 32, "note": 68, "velocity": 117, "channel": 0}, {"type": "note_on", "time": 6, "note": 72, "velocity": 118, "channel": 0}, {"type": "note_off", "time": 37, "note": 72, "velocity": 118, "channel": 0}, {"type": "note_on", "time": 6, "note": 70, "velocity": 119, "channel": 0}, {"type": "note_off", "time": 42, "note": 70, "velocity": 119, "channel": 0}, {"type": "note_on", "time": 6, "note": 68, "velocity": 107, "channel": 0}, {"type": "note_off", "time": 49, "note": 68, "velocity": 107, "channel": 0}, {"type": "note_on", "time": 11, "note": 70, "velocity": 121, "channel": 0}, {"type": "note_off", "time": 27, "note": 70, "velocity": 121, "channel": 0}, {"type": "note_on", "time": 0, "note": 71, "velocity": 118, "channel": 0}, {"type": "note_off", "time": 54, "note": 71, "velocity": 118, "channel": 0}, {"type": "note_on", "time": 287, "note": 73, "velocity": 123, "channel": 0}, {"type": "note_off", "time": 37, "note": 73, "velocity": 123, "channel": 0}, {"type": "note_on", "time": 5, "note": 74, "velocity": 115, "channel": 0}, {"type": "note_off", "time": 330, "note": 74, "velocity": 115, "channel": 0}, {"type": "note_on", "time": 5, "note": 72, "velocity": 114, "channel": 0}, {"type": "note_off", "time": 54, "note": 72, "velocity": 114, "channel": 0}, {"type": "note_on", "time": 3, "note": 74, "velocity": 106, "channel": 0}, {"type": "note_off", "time": 37, "note": 74, "velocity": 106, "channel": 0}, {"type": "note_on", "time": 3, "note": 75, "velocity": 118, "channel": 0}, {"type": "note_off", "time": 47, "note": 75, "velocity": 118, "channel": 0}, {"type": "note_on", "time": 8, "note": 76, "velocity": 122, "channel": 0}, {"type": "note_off", "time": 35, "note": 76, "velocity": 122, "channel": 0}, {"type": "note_on", "time": 0, "note": 77, "velocity": 117, "channel": 0}, {"type": "note_off", "time": 56, "note": 77, "velocity": 117, "channel": 0}, {"type": "note_on", "time": 3, "note": 76, "velocity": 119, "channel": 0}, {"type": "note_off", "time": 51, "note": 76, "velocity": 119, "channel": 0}, {"type": "note_on", "time": 1, "note": 75, "velocity": 118, "channel": 0}, {"type": "note_off", "time": 49, "note": 75, "velocity": 118, "channel": 0}, {"type": "note_on", "time": 1, "note": 72, "velocity": 116, "channel": 0}, {"type": "note_off", "time": 39, "note": 72, "velocity": 116, "channel": 0}, {"type": "note_on", "time": 3, "note": 71, "velocity": 117, "channel": 0}, {"type": "note_off", "time": 56, "note": 71, "velocity": 117, "channel": 0}, {"type": "note_on", "time": 5, "note": 75, "velocity": 116, "channel": 0}, {"type": "note_off", "time": 39, "note": 75, "velocity": 116, "channel": 0}, {"type": "note_on", "time": 3, "note": 74, "velocity": 119, "channel": 0}, {"type": "note_off", "time": 46, "note": 74, "velocity": 119, "channel": 0}, {"type": "note_on", "time": 3, "note": 69, "velocity": 121, "channel": 0}, {"type": "note_off", "time": 47, "note": 69, "velocity": 121, "channel": 0}, {"type": "note_on", "time": 0, "note": 66, "velocity": 113, "channel": 0}, {"type": "note_off", "time": 35, "note": 66, "velocity": 113, "channel": 0}, {"type": "note_on", "time": 25, "note": 74, "velocity": 120, "channel": 0}, {"type": "note_off", "time": 27, "note": 74, "velocity": 120, "channel": 0}, {"type": "note_on", "time": 0, "note": 71, "velocity": 115, "channel": 0}, {"type": "note_off", "time": 46, "note": 71, "velocity": 115, "channel": 0}, {"type": "note_on", "time": 0, "note": 69, "velocity": 120, "channel": 0}, {"type": "note_off", "time": 39, "note": 69, "velocity": 120, "channel": 0}, {"type": "note_on", "time": 1, "note": 70, "velocity": 119, "channel": 0}, {"type": "note_off", "time": 49, "note": 70, "velocity": 119, "channel": 0}, {"type": "note_on", "time": 1, "note": 69, "velocity": 117, "channel": 0}, {"type": "note_off", "time": 46, "note": 69, "velocity": 117, "channel": 0}, {"type": "note_on", "time": 1, "note": 68, "velocity": 123, "channel": 0}, {"type": "note_off", "time": 51, "note": 68, "velocity": 123, "channel": 0}, {"type": "note_on", "time": 1, "note": 70, "velocity": 122, "channel": 0}, {"type": "note_off", "time": 47, "note": 70, "velocity": 122, "channel": 0}, {"type": "note_on", "time": 1, "note": 71, "velocity": 103, "channel": 0}, {"type": "note_off", "time": 37, "note": 71, "velocity": 103, "channel": 0}, {"type": "note_on", "time": 5, "note": 74, "velocity": 120, "channel": 0}, {"type": "note_off", "time": 63, "note": 74, "velocity": 120, "channel": 0}, {"type": "note_on", "time": 1, "note": 72, "velocity": 113, "channel": 0}, {"type": "note_off", "time": 42, "note": 72, "velocity": 113, "channel": 0}, {"type": "note_on", "time": 0, "note": 70, "velocity": 109, "channel": 0}, {"type": "note_off", "time": 34, "note": 70, "velocity": 109, "channel": 0}, {"type": "note_on", "time": 3, "note": 65, "velocity": 115, "channel": 0}, {"type": "note_off", "time": 44, "note": 65, "velocity": 115, "channel": 0}, {"type": "note_on", "time": 0, "note": 63, "velocity": 104, "channel": 0}, {"type": "note_off", "time": 37, "note": 63, "velocity": 104, "channel": 0}, {"type": "note_on", "time": 25, "note": 68, "velocity": 117, "channel": 0}, {"type": "note_off", "time": 47, "note": 68, "velocity": 117, "channel": 0}, {"type": "note_on", "time": 1, "note": 70, "velocity": 108, "channel": 0}, {"type": "note_off", "time": 254, "note": 70, "velocity": 108, "channel": 0}, {"type": "note_on", "time": 8, "note": 67, "velocity": 115, "channel": 0}, {"type": "note_off", "time": 49, "note": 67, "velocity": 115, "channel": 0}, {"type": "note_on", "time": 0, "note": 62, "velocity": 109, "channel": 0}, {"type": "note_off", "time": 51, "note": 62, "velocity": 109, "channel": 0}, {"type": "note_on", "time": 13, "note": 58, "velocity": 85, "channel": 0}, {"type": "note_off", "time": 30, "note": 58, "velocity": 85, "channel": 0}, {"type": "note_on", "time": 273, "note": 60, "velocity": 106, "channel": 0}, {"type": "note_off", "time": 53, "note": 60, "velocity": 106, "channel": 0}, {"type": "note_on", "time": 0, "note": 58, "velocity": 101, "channel": 0}, {"type": "note_off", "time": 30, "note": 58, "velocity": 101, "channel": 0}, {"type": "note_on", "time": 0, "note": 53, "velocity": 100, "channel": 0}, {"type": "note_off", "time": 32, "note": 53, "velocity": 100, "channel": 0}, {"type": "note_on", "time": 20, "note": 58, "velocity": 109, "channel": 0}, {"type": "note_off", "time": 46, "note": 58, "velocity": 109, "channel": 0}, {"type": "note_on", "time": 11, "note": 56, "velocity": 117, "channel": 0}, {"type": "note_off", "time": 44, "note": 56, "velocity": 117, "channel": 0}, {"type": "note_on", "time": 3, "note": 58, "velocity": 110, "channel": 0}, {"type": "note_off", "time": 42, "note": 58, "velocity": 110, "channel": 0}, {"type": "note_on", "time": 56, "note": 62, "velocity": 110, "channel": 0}, {"type": "note_on", "time": 32, "note": 65, "velocity": 118, "channel": 0}, {"type": "note_off", "time": 0, "note": 62, "velocity": 110, "channel": 0}, {"type": "note_off", "time": 49, "note": 65, "velocity": 118, "channel": 0}, {"type": "note_on", "time": 3, "note": 68, "velocity": 126, "channel": 0}, {"type": "note_off", "time": 42, "note": 68, "velocity": 126, "channel": 0}, {"type": "note_on", "time": 1, "note": 67, "velocity": 122, "channel": 0}, {"type": "note_off", "time": 39, "note": 67, "velocity": 122, "channel": 0}, {"type": "note_on", "time": 94, "note": 64, "velocity": 100, "channel": 0}, {"type": "note_off", "time": 106, "note": 64, "velocity": 100, "channel": 0}, {"type": "note_on", "time": 6, "note": 60, "velocity": 102, "channel": 0}, {"type": "note_off", "time": 39, "note": 60, "velocity": 102, "channel": 0}, {"type": "note_on", "time": 3, "note": 62, "velocity": 110, "channel": 0}, {"type": "note_off", "time": 37, "note": 62, "velocity": 110, "channel": 0}, {"type": "note_on", "time": 1, "note": 64, "velocity": 103, "channel": 0}, {"type": "note_off", "time": 44, "note": 64, "velocity": 103, "channel": 0}, {"type": "note_on", "time": 5, "note": 67, "velocity": 118, "channel": 0}, {"type": "note_off", "time": 46, "note": 67, "velocity": 118, "channel": 0}, {"type": "note_on", "time": 6, "note": 70, "velocity": 110, "channel": 0}, {"type": "note_off", "time": 35, "note": 70, "velocity": 110, "channel": 0}, {"type": "note_on", "time": 0, "note": 65, "velocity": 113, "channel": 0}, {"type": "note_off", "time": 56, "note": 65, "velocity": 113, "channel": 0}, {"type": "note_on", "time": 8, "note": 66, "velocity": 112, "channel": 0}, {"type": "note_off", "time": 58, "note": 66, "velocity": 112, "channel": 0}, {"type": "note_on", "time": 42, "note": 70, "velocity": 117, "channel": 0}, {"type": "note_off", "time": 34, "note": 70, "velocity": 117, "channel": 0}, {"type": "note_on", "time": 3, "note": 71, "velocity": 114, "channel": 0}, {"type": "note_off", "time": 54, "note": 71, "velocity": 114, "channel": 0}, {"type": "note_on", "time": 10, "note": 75, "velocity": 114, "channel": 0}, {"type": "note_off", "time": 46, "note": 75, "velocity": 114, "channel": 0}, {"type": "note_on", "time": 0, "note": 73, "velocity": 116, "channel": 0}, {"type": "note_off", "time": 54, "note": 73, "velocity": 116, "channel": 0}, {"type": "note_on", "time": 42, "note": 70, "velocity": 117, "channel": 0}, {"type": "note_off", "time": 42, "note": 70, "velocity": 117, "channel": 0}, {"type": "note_on", "time": 1, "note": 73, "velocity": 119, "channel": 0}, {"type": "note_off", "time": 62, "note": 73, "velocity": 119, "channel": 0}, {"type": "note_on", "time": 1, "note": 72, "velocity": 115, "channel": 0}, {"type": "note_off", "time": 32, "note": 72, "velocity": 115, "channel": 0}, {"type": "note_on", "time": 0, "note": 71, "velocity": 112, "channel": 0}, {"type": "note_off", "time": 41, "note": 71, "velocity": 112, "channel": 0}, {"type": "note_on", "time": 1, "note": 70, "velocity": 114, "channel": 0}, {"type": "note_off", "time": 51, "note": 70, "velocity": 114, "channel": 0}, {"type": "note_on", "time": 4, "note": 69, "velocity": 118, "channel": 0}, {"type": "note_off", "time": 46, "note": 69, "velocity": 118, "channel": 0}, {"type": "note_on", "time": 6, "note": 68, "velocity": 117, "channel": 0}, {"type": "note_off", "time": 42, "note": 68, "velocity": 117, "channel": 0}, {"type": "note_on", "time": 4, "note": 67, "velocity": 117, "channel": 0}, {"type": "note_off", "time": 36, "note": 67, "velocity": 117, "channel": 0}, {"type": "note_on", "time": 4, "note": 66, "velocity": 111, "channel": 0}, {"type": "note_on", "time": 41, "note": 64, "velocity": 105, "channel": 0}, {"type": "note_off", "time": 0, "note": 66, "velocity": 111, "channel": 0}, {"type": "note_off", "time": 47, "note": 64, "velocity": 105, "channel": 0}, {"type": "note_on", "time": 3, "note": 63, "velocity": 103, "channel": 0}, {"type": "note_off", "time": 37, "note": 63, "velocity": 103, "channel": 0}, {"type": "note_on", "time": 0, "note": 62, "velocity": 109, "channel": 0}, {"type": "note_off", "time": 26, "note": 62, "velocity": 109, "channel": 0}, {"type": "note_on", "time": 6, "note": 61, "velocity": 104, "channel": 0}, {"type": "note_off", "time": 122, "note": 61, "velocity": 104, "channel": 0}, {"type": "note_on", "time": 3, "note": 61, "velocity": 101, "channel": 0}, {"type": "note_off", "time": 192, "note": 61, "velocity": 101, "channel": 0}, {"type": "note_on", "time": 101, "note": 69, "velocity": 90, "channel": 0}, {"type": "note_off", "time": 256, "note": 69, "velocity": 90, "channel": 0}, {"type": "note_on", "time": 529, "note": 72, "velocity": 120, "channel": 0}, {"type": "note_off", "time": 90, "note": 72, "velocity": 120, "channel": 0}, {"type": "note_on", "time": 12, "note": 69, "velocity": 122, "channel": 0}, {"type": "note_off", "time": 90, "note": 69, "velocity": 122, "channel": 0}, {"type": "note_on", "time": 17, "note": 64, "velocity": 106, "channel": 0}, {"type": "note_off", "time": 73, "note": 64, "velocity": 106, "channel": 0}, {"type": "note_on", "time": 40, "note": 61, "velocity": 108, "channel": 0}, {"type": "note_off", "time": 88, "note": 61, "velocity": 108, "channel": 0}, {"type": "note_on", "time": 1, "note": 60, "velocity": 107, "channel": 0}, {"type": "note_off", "time": 122, "note": 60, "velocity": 107, "channel": 0}, {"type": "note_on", "time": 29, "note": 60, "velocity": 104, "channel": 0}, {"type": "note_off", "time": 156, "note": 60, "velocity": 104, "channel": 0}, {"type": "note_on", "time": 7, "note": 67, "velocity": 107, "channel": 0}, {"type": "note_off", "time": 298, "note": 67, "velocity": 107, "channel": 0}, {"type": "note_on", "time": 848, "note": 73, "velocity": 119, "channel": 0}, {"type": "note_off", "time": 35, "note": 73, "velocity": 119, "channel": 0}, {"type": "note_on", "time": 0, "note": 74, "velocity": 120, "channel": 0}, {"type": "note_off", "time": 54, "note": 74, "velocity": 120, "channel": 0}, {"type": "note_on", "time": 0, "note": 77, "velocity": 107, "channel": 0}, {"type": "note_off", "time": 1389, "note": 77, "velocity": 107, "channel": 0}, {"type": "note_on", "time": 10, "note": 76, "velocity": 116, "channel": 0}, {"type": "note_off", "time": 54, "note": 76, "velocity": 116, "channel": 0}, {"type": "note_on", "time": 13, "note": 75, "velocity": 114, "channel": 0}, {"type": "note_off", "time": 78, "note": 75, "velocity": 114, "channel": 0}, {"type": "note_on", "time": 44, "note": 75, "velocity": 114, "channel": 0}, {"type": "note_on", "time": 63, "note": 74, "velocity": 117, "channel": 0}, {"type": "note_off", "time": 0, "note": 75, "velocity": 114, "channel": 0}, {"type": "note_off", "time": 56, "note": 74, "velocity": 117, "channel": 0}, {"type": "note_on", "time": 1, "note": 73, "velocity": 115, "channel": 0}, {"type": "note_off", "time": 73, "note": 73, "velocity": 115, "channel": 0}, {"type": "note_on", "time": 8, "note": 67, "velocity": 90, "channel": 0}, {"type": "note_off", "time": 34, "note": 67, "velocity": 90, "channel": 0}, {"type": "note_on", "time": 8, "note": 73, "velocity": 122, "channel": 0}, {"type": "note_off", "time": 65, "note": 73, "velocity": 122, "channel": 0}, {"type": "note_on", "time": 0, "note": 72, "velocity": 114, "channel": 0}, {"type": "note_off", "time": 46, "note": 72, "velocity": 114, "channel": 0}, {"type": "note_on", "time": 0, "note": 71, "velocity": 115, "channel": 0}, {"type": "note_off", "time": 83, "note": 71, "velocity": 115, "channel": 0}, {"type": "note_on", "time": 8, "note": 65, "velocity": 100, "channel": 0}, {"type": "note_off", "time": 41, "note": 65, "velocity": 100, "channel": 0}, {"type": "note_on", "time": 0, "note": 70, "velocity": 117, "channel": 0}, {"type": "note_off", "time": 42, "note": 70, "velocity": 117, "channel": 0}, {"type": "note_on", "time": 6, "note": 69, "velocity": 118, "channel": 0}, {"type": "note_off", "time": 51, "note": 69, "velocity": 118, "channel": 0}, {"type": "note_on", "time": 6, "note": 68, "velocity": 118, "channel": 0}, {"type": "note_off", "time": 106, "note": 68, "velocity": 118, "channel": 0}, {"type": "note_on", "time": 84, "note": 58, "velocity": 118, "channel": 0}, {"type": "note_off", "time": 13, "note": 58, "velocity": 118, "channel": 0}, {"type": "note_on", "time": 0, "note": 59, "velocity": 110, "channel": 0}, {"type": "note_off", "time": 20, "note": 59, "velocity": 110, "channel": 0}, {"type": "note_on", "time": 3, "note": 62, "velocity": 96, "channel": 0}, {"type": "note_off", "time": 10, "note": 62, "velocity": 96, "channel": 0}, {"type": "note_on", "time": 4, "note": 68, "velocity": 113, "channel": 0}, {"type": "note_off", "time": 66, "note": 68, "velocity": 113, "channel": 0}, {"type": "note_on", "time": 2, "note": 63, "velocity": 103, "channel": 0}, {"type": "note_off", "time": 47, "note": 63, "velocity": 103, "channel": 0}, {"type": "note_on", "time": 3, "note": 70, "velocity": 112, "channel": 0}, {"type": "note_off", "time": 27, "note": 70, "velocity": 112, "channel": 0}, {"type": "note_on", "time": 18, "note": 65, "velocity": 113, "channel": 0}, {"type": "note_off", "time": 77, "note": 65, "velocity": 113, "channel": 0}, {"type": "note_on", "time": 587, "note": 66, "velocity": 114, "channel": 0}, {"type": "note_off", "time": 46, "note": 66, "velocity": 114, "channel": 0}, {"type": "note_on", "time": 5, "note": 70, "velocity": 107, "channel": 0}, {"type": "note_off", "time": 42, "note": 70, "velocity": 107, "channel": 0}, {"type": "note_on", "time": 0, "note": 74, "velocity": 126, "channel": 0}, {"type": "note_off", "time": 54, "note": 74, "velocity": 126, "channel": 0}, {"type": "note_on", "time": 6, "note": 72, "velocity": 123, "channel": 0}, {"type": "note_off", "time": 35, "note": 72, "velocity": 123, "channel": 0}, {"type": "note_on", "time": 0, "note": 70, "velocity": 121, "channel": 0}, {"type": "note_off", "time": 49, "note": 70, "velocity": 121, "channel": 0}, {"type": "note_on", "time": 6, "note": 74, "velocity": 122, "channel": 0}, {"type": "note_off", "time": 53, "note": 74, "velocity": 122, "channel": 0}, {"type": "note_on", "time": 0, "note": 70, "velocity": 121, "channel": 0}, {"type": "note_off", "time": 47, "note": 70, "velocity": 121, "channel": 0}, {"type": "note_on", "time": 10, "note": 67, "velocity": 114, "channel": 0}, {"type": "note_off", "time": 44, "note": 67, "velocity": 114, "channel": 0}, {"type": "note_on", "time": 5, "note": 62, "velocity": 109, "channel": 0}, {"type": "note_off", "time": 51, "note": 62, "velocity": 109, "channel": 0}, {"type": "note_on", "time": 30, "note": 67, "velocity": 126, "channel": 0}, {"type": "note_off", "time": 54, "note": 67, "velocity": 126, "channel": 0}, {"type": "note_on", "time": 3, "note": 65, "velocity": 118, "channel": 0}, {"type": "note_off", "time": 44, "note": 65, "velocity": 118, "channel": 0}, {"type": "note_on", "time": 0, "note": 62, "velocity": 110, "channel": 0}, {"type": "note_off", "time": 39, "note": 62, "velocity": 110, "channel": 0}, {"type": "note_on", "time": 0, "note": 58, "velocity": 103, "channel": 0}, {"type": "note_off", "time": 34, "note": 58, "velocity": 103, "channel": 0}, {"type": "note_on", "time": 0, "note": 60, "velocity": 113, "channel": 0}, {"type": "note_off", "time": 49, "note": 60, "velocity": 113, "channel": 0}, {"type": "note_on", "time": 0, "note": 63, "velocity": 107, "channel": 0}, {"type": "note_off", "time": 49, "note": 63, "velocity": 107, "channel": 0}, {"type": "note_on", "time": 1, "note": 58, "velocity": 106, "channel": 0}, {"type": "note_off", "time": 46, "note": 58, "velocity": 106, "channel": 0}, {"type": "note_on", "time": 5, "note": 53, "velocity": 109, "channel": 0}, {"type": "note_off", "time": 30, "note": 53, "velocity": 109, "channel": 0}, {"type": "note_on", "time": 0, "note": 61, "velocity": 115, "channel": 0}, {"type": "note_off", "time": 42, "note": 61, "velocity": 115, "channel": 0}, {"type": "note_on", "time": 6, "note": 63, "velocity": 106, "channel": 0}, {"type": "note_off", "time": 44, "note": 63, "velocity": 106, "channel": 0}, {"type": "note_on", "time": 8, "note": 60, "velocity": 110, "channel": 0}, {"type": "note_off", "time": 51, "note": 60, "velocity": 110, "channel": 0}, {"type": "note_on", "time": 6, "note": 58, "velocity": 104, "channel": 0}, {"type": "note_off", "time": 73, "note": 58, "velocity": 104, "channel": 0}, {"type": "note_on", "time": 49, "note": 56, "velocity": 108, "channel": 0}, {"type": "note_off", "time": 41, "note": 56, "velocity": 108, "channel": 0}, {"type": "note_on", "time": 8, "note": 57, "velocity": 106, "channel": 0}, {"type": "note_off", "time": 112, "note": 57, "velocity": 106, "channel": 0}, {"type": "note_on", "time": 1, "note": 58, "velocity": 99, "channel": 0}, {"type": "note_off", "time": 47, "note": 58, "velocity": 99, "channel": 0}, {"type": "note_on", "time": 33, "note": 64, "velocity": 103, "channel": 0}, {"type": "note_off", "time": 32, "note": 64, "velocity": 103, "channel": 0}, {"type": "note_on", "time": 6, "note": 67, "velocity": 115, "channel": 0}, {"type": "note_off", "time": 36, "note": 67, "velocity": 115, "channel": 0}, {"type": "note_on", "time": 8, "note": 69, "velocity": 106, "channel": 0}, {"type": "note_off", "time": 32, "note": 69, "velocity": 106, "channel": 0}, {"type": "note_on", "time": 6, "note": 71, "velocity": 115, "channel": 0}, {"type": "note_off", "time": 43, "note": 71, "velocity": 115, "channel": 0}, {"type": "note_on", "time": 7, "note": 76, "velocity": 117, "channel": 0}, {"type": "note_off", "time": 43, "note": 76, "velocity": 117, "channel": 0}, {"type": "note_on", "time": 18, "note": 79, "velocity": 107, "channel": 0}, {"type": "note_off", "time": 114, "note": 79, "velocity": 107, "channel": 0}, {"type": "note_on", "time": 13, "note": 76, "velocity": 117, "channel": 0}, {"type": "note_off", "time": 42, "note": 76, "velocity": 117, "channel": 0}, {"type": "note_on", "time": 10, "note": 71, "velocity": 116, "channel": 0}, {"type": "note_off", "time": 43, "note": 71, "velocity": 116, "channel": 0}, {"type": "note_on", "time": 8, "note": 69, "velocity": 116, "channel": 0}, {"type": "note_off", "time": 37, "note": 69, "velocity": 116, "channel": 0}, {"type": "note_on", "time": 10, "note": 64, "velocity": 103, "channel": 0}, {"type": "note_off", "time": 41, "note": 64, "velocity": 103, "channel": 0}, {"type": "note_on", "time": 13, "note": 59, "velocity": 105, "channel": 0}, {"type": "note_off", "time": 41, "note": 59, "velocity": 105, "channel": 0}, {"type": "note_on", "time": 10, "note": 56, "velocity": 107, "channel": 0}, {"type": "note_off", "time": 51, "note": 56, "velocity": 107, "channel": 0}, {"type": "note_on", "time": 289, "note": 63, "velocity": 110, "channel": 0}, {"type": "note_off", "time": 57, "note": 63, "velocity": 110, "channel": 0}, {"type": "note_on", "time": 10, "note": 61, "velocity": 112, "channel": 0}, {"type": "note_off", "time": 66, "note": 61, "velocity": 112, "channel": 0}, {"type": "note_on", "time": 0, "note": 56, "velocity": 110, "channel": 0}, {"type": "note_off", "time": 40, "note": 56, "velocity": 110, "channel": 0}, {"type": "note_on", "time": 10, "note": 58, "velocity": 106, "channel": 0}, {"type": "note_off", "time": 46, "note": 58, "velocity": 106, "channel": 0}, {"type": "note_on", "time": 13, "note": 61, "velocity": 111, "channel": 0}, {"type": "note_off", "time": 48, "note": 61, "velocity": 111, "channel": 0}, {"type": "note_on", "time": 6, "note": 58, "velocity": 106, "channel": 0}, {"type": "note_off", "time": 41, "note": 58, "velocity": 106, "channel": 0}, {"type": "note_on", "time": 6, "note": 53, "velocity": 102, "channel": 0}, {"type": "note_off", "time": 31, "note": 53, "velocity": 102, "channel": 0}, {"type": "note_on", "time": 6, "note": 55, "velocity": 111, "channel": 0}, {"type": "note_off", "time": 87, "note": 55, "velocity": 111, "channel": 0}, {"type": "note_on", "time": 53, "note": 65, "velocity": 107, "channel": 0}, {"type": "note_off", "time": 41, "note": 65, "velocity": 107, "channel": 0}, {"type": "note_on", "time": 2, "note": 69, "velocity": 10, "channel": 0}, {"type": "note_off", "time": 54, "note": 69, "velocity": 10, "channel": 0}, {"type": "note_on", "time": 0, "note": 65, "velocity": 22, "channel": 0}, {"type": "note_off", "time": 35, "note": 65, "velocity": 22, "channel": 0}, {"type": "note_on", "time": 8, "note": 61, "velocity": 110, "channel": 0}, {"type": "note_off", "time": 32, "note": 61, "velocity": 110, "channel": 0}, {"type": "note_on", "time": 10, "note": 58, "velocity": 106, "channel": 0}, {"type": "note_off", "time": 40, "note": 58, "velocity": 106, "channel": 0}, {"type": "note_on", "time": 1, "note": 64, "velocity": 113, "channel": 0}, {"type": "note_off", "time": 54, "note": 64, "velocity": 113, "channel": 0}, {"type": "note_on", "time": 9, "note": 68, "velocity": 100, "channel": 0}, {"type": "note_off", "time": 40, "note": 68, "velocity": 100, "channel": 0}, {"type": "note_on", "time": 6, "note": 70, "velocity": 123, "channel": 0}, {"type": "note_off", "time": 31, "note": 70, "velocity": 123, "channel": 0}, {"type": "note_on", "time": 8, "note": 73, "velocity": 119, "channel": 0}, {"type": "note_off", "time": 40, "note": 73, "velocity": 119, "channel": 0}, {"type": "note_on", "time": 24, "note": 66, "velocity": 117, "channel": 0}, {"type": "note_off", "time": 32, "note": 66, "velocity": 117, "channel": 0}, {"type": "note_on", "time": 14, "note": 72, "velocity": 121, "channel": 0}, {"type": "note_off", "time": 41, "note": 72, "velocity": 121, "channel": 0}, {"type": "note_on", "time": 0, "note": 71, "velocity": 121, "channel": 0}, {"type": "note_off", "time": 47, "note": 71, "velocity": 121, "channel": 0}, {"type": "note_on", "time": 13, "note": 66, "velocity": 110, "channel": 0}, {"type": "note_off", "time": 32, "note": 66, "velocity": 110, "channel": 0}, {"type": "note_on", "time": 7, "note": 68, "velocity": 126, "channel": 0}, {"type": "note_off", "time": 54, "note": 68, "velocity": 126, "channel": 0}, {"type": "note_on", "time": 0, "note": 66, "velocity": 119, "channel": 0}, {"type": "note_off", "time": 40, "note": 66, "velocity": 119, "channel": 0}, {"type": "note_on", "time": 9, "note": 63, "velocity": 110, "channel": 0}, {"type": "note_off", "time": 48, "note": 63, "velocity": 110, "channel": 0}, {"type": "note_on", "time": 2, "note": 61, "velocity": 97, "channel": 0}, {"type": "note_off", "time": 40, "note": 61, "velocity": 97, "channel": 0}, {"type": "note_on", "time": 5, "note": 67, "velocity": 113, "channel": 0}, {"type": "note_off", "time": 88, "note": 67, "velocity": 113, "channel": 0}, {"type": "note_on", "time": 290, "note": 61, "velocity": 118, "channel": 0}, {"type": "note_off", "time": 111, "note": 61, "velocity": 118, "channel": 0}, {"type": "note_on", "time": 14, "note": 60, "velocity": 107, "channel": 0}, {"type": "note_off", "time": 154, "note": 60, "velocity": 107, "channel": 0}, {"type": "note_on", "time": 29, "note": 69, "velocity": 113, "channel": 0}, {"type": "note_off", "time": 250, "note": 69, "velocity": 113, "channel": 0}, {"type": "note_on", "time": 429, "note": 69, "velocity": 125, "channel": 0}, {"type": "note_off", "time": 48, "note": 69, "velocity": 125, "channel": 0}, {"type": "note_on", "time": 8, "note": 67, "velocity": 120, "channel": 0}, {"type": "note_off", "time": 34, "note": 67, "velocity": 120, "channel": 0}, {"type": "note_on", "time": 6, "note": 66, "velocity": 112, "channel": 0}, {"type": "note_off", "time": 37, "note": 66, "velocity": 112, "channel": 0}, {"type": "note_on", "time": 7, "note": 69, "velocity": 127, "channel": 0}, {"type": "note_off", "time": 46, "note": 69, "velocity": 127, "channel": 0}, {"type": "note_on", "time": 0, "note": 67, "velocity": 115, "channel": 0}, {"type": "note_off", "time": 43, "note": 67, "velocity": 115, "channel": 0}, {"type": "note_on", "time": 12, "note": 62, "velocity": 111, "channel": 0}, {"type": "note_on", "time": 38, "note": 65, "velocity": 115, "channel": 0}, {"type": "note_off", "time": 0, "note": 62, "velocity": 111, "channel": 0}, {"type": "note_off", "time": 51, "note": 65, "velocity": 115, "channel": 0}, {"type": "note_on", "time": 6, "note": 64, "velocity": 107, "channel": 0}, {"type": "note_off", "time": 26, "note": 64, "velocity": 107, "channel": 0}, {"type": "note_on", "time": 0, "note": 58, "velocity": 114, "channel": 0}, {"type": "note_off", "time": 43, "note": 58, "velocity": 114, "channel": 0}, {"type": "note_on", "time": 2, "note": 53, "velocity": 118, "channel": 0}, {"type": "note_off", "time": 41, "note": 53, "velocity": 118, "channel": 0}, {"type": "note_on", "time": 72, "note": 63, "velocity": 115, "channel": 0}, {"type": "note_off", "time": 29, "note": 63, "velocity": 115, "channel": 0}, {"type": "note_on", "time": 18, "note": 61, "velocity": 108, "channel": 0}, {"type": "note_off", "time": 41, "note": 61, "velocity": 108, "channel": 0}, {"type": "note_on", "time": 68, "note": 58, "velocity": 112, "channel": 0}, {"type": "note_off", "time": 25, "note": 58, "velocity": 112, "channel": 0}, {"type": "note_on", "time": 4, "note": 61, "velocity": 115, "channel": 0}, {"type": "note_off", "time": 52, "note": 61, "velocity": 115, "channel": 0}, {"type": "note_on", "time": 3, "note": 60, "velocity": 113, "channel": 0}, {"type": "note_off", "time": 41, "note": 60, "velocity": 113, "channel": 0}, {"type": "note_on", "time": 0, "note": 58, "velocity": 109, "channel": 0}, {"type": "note_off", "time": 55, "note": 58, "velocity": 109, "channel": 0}, {"type": "note_on", "time": 3, "note": 57, "velocity": 110, "channel": 0}, {"type": "note_off", "time": 38, "note": 57, "velocity": 110, "channel": 0}, {"type": "note_on", "time": 3, "note": 58, "velocity": 102, "channel": 0}, {"type": "note_off", "time": 36, "note": 58, "velocity": 102, "channel": 0}, {"type": "note_on", "time": 4, "note": 55, "velocity": 111, "channel": 0}, {"type": "note_off", "time": 49, "note": 55, "velocity": 111, "channel": 0}, {"type": "note_on", "time": 3, "note": 65, "velocity": 91, "channel": 0}, {"type": "note_off", "time": 335, "note": 65, "velocity": 91, "channel": 0}, {"type": "end_of_track", "time": 0}]]}