{"ticks_per_beat": 192, "tracks": [[{"type": "track_name", "name": "Melody", "time": 0}, {"type": "set_tempo", "tempo": 571428, "time": 0}, {"type": "time_signature", "numerator": 4, "denominator": 4, "clocks_per_click": 24, "notated_32nd_notes_per_beat": 8, "time": 0}, {"type": "note_on", "time": 3211, "note": 72, "velocity": 116, "channel": 0}, {"type": "note_on", "time": 66, "note": 70, "velocity": 115, "channel": 0}, {"type": "note_off", "time": 0, "note": 72, "velocity": 116, "channel": 0}, {"type": "note_off", "time": 50, "note": 70, "velocity": 115, "channel": 0}, {"type": "note_on", "time": 0, "note": 67, "velocity": 115, "channel": 0}, {"type": "note_on", "time": 39, "note": 63, "velocity": 108, "channel": 0}, {"type": "note_off", "time": 0, "note": 67, "velocity": 115, "channel": 0}, {"type": "note_off", "time": 42, "note": 63, "velocity": 108, "channel": 0}, {"type": "note_on", "time": 11, "note": 62, "velocity": 113, "channel": 0}, {"type": "note_off", "time": 27, "note": 62, "velocity": 113, "channel": 0}, {"type": "note_on", "time": 11, "note": 65, "velocity": 123, "channel": 0}, {"type": "note_off", "time": 46, "note": 65, "velocity": 123, "channel": 0}, {"type": "note_on", "time": 0, "note": 72, "velocity": 119, "channel": 0}, {"type": "note_off", "time": 39, "note": 72, "velocity": 119, "channel": 0}, {"type": "note_on", "time": 7, "note": 70, "velocity": 118, "channel": 0}, {"type": "note_off", "time": 93, "note": 70, "velocity": 118, "channel": 0}, {"type": "note_on", "time": 366, "note": 65, "velocity": 121, "channel": 0}, {"type": "note_off", "time": 62, "note": 65, "velocity": 121, "channel": 0}, {"type": "note_on", "time": 7, "note": 72, "velocity": 121, "channel": 0}, {"type": "note_off", "time": 39, "note": 72, "velocity": 121, "channel": 0}, {"type": "note_on", "time": 15, "note": 70, "velocity": 117, "channel": 0}, {"type": "note_off", "time": 66, "note": 70, "velocity": 117, "channel": 0}, {"type": "note_on", "time": 112, "note": 65, "velocity": 87, "channel": 0}, {"type": "note_off", "time": 39, "note": 65, "velocity": 87, "channel": 0}, {"type": "note_on", "time": 10, "note": 67, "velocity": 110, "channel": 0}, {"type": "note_off", "time": 85, "note": 67, "velocity": 110, "channel": 0}, {"type": "note_on", "time": 235, "note": 65, "velocity": 116, "channel": 0}, {"type": "note_off", "time": 50, "note": 65, "velocity": 116, "channel": 0}, {"type": "note_on", "time": 0, "note": 70, "velocity": 118, "channel": 0}, {"type": "note_off", "time": 58, "note": 70, "velocity": 118, "channel": 0}, {"type": "note_on", "time": 46, "note": 70, "velocity": 117, "channel": 0}, {"type": "note_off", "time": 39, "note": 70, "velocity": 117, "channel": 0}, {"type": "note_on", "time": 0, "note": 67, "velocity": 119, "channel": 0}, {"type": "note_off", "time": 54, "note": 67, "velocity": 119, "channel": 0}, {"type": "note_on", "time": 27, "note": 72, "velocity": 116, "channel": 0}, {"type": "note_off", "time": 74, "note": 72, "velocity": 116, "channel": 0}, {"type": "note_on", "time": 3, "note": 73, "velocity": 122, "channel": 0}, {"type": "note_off", "time": 54, "note": 73, "velocity": 122, "channel": 0}, {"type": "note_on", "time": 42, "note": 73, "velocity": 122, "channel": 0}, {"type": "note_off", "time": 27, "note": 73, "velocity": 122, "channel": 0}, {"type": "note_on", "time": 7, "note": 72, "velocity": 116, "channel": 0}, {"type": "note_off", "time": 85, "note": 72, "velocity": 116, "channel": 0}, {"type": "note_on", "time": 11, "note": 73, "velocity": 121, "channel": 0}, {"type": "note_off", "time": 58, "note": 73, "velocity": 121, "channel": 0}, {"type": "note_on", "time": 0, "note": 70, "velocity": 115, "channel": 0}, {"type": "note_off", "time": 38, "note": 70, "velocity": 115, "channel": 0}, {"type": "note_on", "time": 38, "note": 70, "velocity": 97, "channel": 0}, {"type": "note_off", "time": 32, "note": 70, "velocity": 97, "channel": 0}, {"type": "note_on", "time": 0, "note": 72, "velocity": 111, "channel": 0}, {"type": "note_off", "time": 210, "note": 72, "velocity": 111, "channel": 0}, {"type": "note_on", "time": 15, "note": 67, "velocity": 116, "channel": 0}, {"type": "note_off", "time": 43, "note": 67, "velocity": 116, "channel": 0}, {"type": "note_on", "time": 5, "note": 72, "velocity": 114, "channel": 0}, {"type": "note_off", "time": 49, "note": 72, "velocity": 114, "channel": 0}, {"type": "note_on", "time": 0, "note": 70, "velocity": 116, "channel": 0}, {"type": "note_off", "time": 43, "note": 70, "velocity": 116, "channel": 0}, {"type": "note_on", "time": 13, "note": 65, "velocity": 119, "channel": 0}, {"type": "note_off", "time": 32, "note": 65, "velocity": 119, "channel": 0}, {"type": "note_on", "time": 8, "note": 63, "velocity": 106, "channel": 0}, {"type": "note_off", "time": 60, "note": 63, "velocity": 106, "channel": 0}, {"type": "note_on", "time": 24, "note": 67, "velocity": 117, "channel": 0}, {"type": "note_off", "time": 49, "note": 67, "velocity": 117, "channel": 0}, {"type": "note_on", "time": 0, "note": 70, "velocity": 113, "channel": 0}, {"type": "note_off", "time": 46, "note": 70, "velocity": 113, "channel": 0}, {"type": "note_on", "time": 2, "note": 69, "velocity": 119, "channel": 0}, {"type": "note_off", "time": 57, "note": 69, "velocity": 119, "channel": 0}, {"type": "note_on", "time": 27, "note": 66, "velocity": 114, "channel": 0}, {"type": "note_off", "time": 52, "note": 66, "velocity": 114, "channel": 0}, {"type": "note_on", "time": 2, "note": 71, "velocity": 112, "channel": 0}, {"type": "note_off", "time": 54, "note": 71, "velocity": 112, "channel": 0}, {"type": "note_on", "time": 8, "note": 70, "velocity": 113, "channel": 0}, {"type": "note_off", "time": 41, "note": 70, "velocity": 113, "channel": 0}, {"type": "note_on", "time": 13, "note": 68, "velocity": 120, "channel": 0}, {"type": "note_off", "time": 54, "note": 68, "velocity": 120, "channel": 0}, {"type": "note_on", "time": 21, "note": 70, "velocity": 107, "channel": 0}, {"type": "note_off", "time": 41, "note": 70, "velocity": 107, "channel": 0}, {"type": "note_on", "time": 19, "note": 66, "velocity": 115, "channel": 0}, {"type": "note_off", "time": 68, "note": 66, "velocity": 115, "channel": 0}, {"type": "note_on", "time": 10, "note": 70, "velocity": 115, "channel": 0}, {"type": "note_off", "time": 46, "note": 70, "velocity": 115, "channel": 0}, {"type": "note_on", "time": 0, "note": 67, "velocity": 102, "channel": 0}, {"type": "note_off", "time": 21, "note": 67, "velocity": 102, "channel": 0}, {"type": "note_on", "time": 32, "note": 71, "velocity": 100, "channel": 0}, {"type": "note_off", "time": 41, "note": 71, "velocity": 100, "channel": 0}, {"type": "note_on", "time": 32, "note": 67, "velocity": 113, "channel": 0}, {"type": "note_off", "time": 41, "note": 67, "velocity": 113, "channel": 0}, {"type": "note_on", "time": 425, "note": 58, "velocity": 105, "channel": 0}, {"type": "note_off", "time": 49, "note": 58, "velocity": 105, "channel": 0}, {"type": "note_on", "time": 0, "note": 60, "velocity": 112, "channel": 0}, {"type": "note_off", "time": 35, "note": 60, "velocity": 112, "channel": 0}, {"type": "note_on", "time": 2, "note": 63, "velocity": 107, "channel": 0}, {"type": "note_off", "time": 43, "note": 63, "velocity": 107, "channel": 0}, {"type": "note_on", "time": 5, "note": 65, "velocity": 125, "channel": 0}, {"type": "note_off", "time": 49, "note": 65, "velocity": 125, "channel": 0}, {"type": "note_on", "time": 0, "note": 70, "velocity": 120, "channel": 0}, {"type": "note_off", "time": 52, "note": 70, "velocity": 120, "channel": 0}, {"type": "note_on", "time": 2, "note": 67, "velocity": 121, "channel": 0}, {"type": "note_off", "time": 35, "note": 67, "velocity": 121, "channel": 0}, {"type": "note_on", "time": 8, "note": 70, "velocity": 115, "channel": 0}, {"type": "note_off", "time": 46, "note": 70, "velocity": 115, "channel": 0}, {"type": "note_on", "time": 0, "note": 72, "velocity": 118, "channel": 0}, {"type": "note_off", "time": 52, "note": 72, "velocity": 118, "channel": 0}, {"type": "note_on", "time": 5, "note": 75, "velocity": 115, "channel": 0}, {"type": "note_off", "time": 41, "note": 75, "velocity": 115, "channel": 0}, {"type": "note_on", "time": 2, "note": 77, "velocity": 116, "channel": 0}, {"type": "note_off", "time": 54, "note": 77, "velocity": 116, "channel": 0}, {"type": "note_on", "time": 8, "note": 79, "velocity": 108, "channel": 0}, {"type": "note_off", "time": 30, "note": 79, "velocity": 108, "channel": 0}, {"type": "note_on", "time": 30, "note": 79, "velocity": 105, "channel": 0}, {"type": "note_off", "time": 60, "note": 79, "velocity": 105, "channel": 0}, {"type": "note_on", "time": 8, "note": 75, "velocity": 109, "channel": 0}, {"type": "note_off", "time": 131, "note": 75, "velocity": 109, "channel": 0}, {"type": "note_on", "time": 315, "note": 77, "velocity": 114, "channel": 0}, {"type": "note_off", "time": 43, "note": 77, "velocity": 114, "channel": 0}, {"type": "note_on", "time": 5, "note": 76, "velocity": 119, "channel": 0}, {"type": "note_off", "time": 16, "note": 76, "velocity": 119, "channel": 0}, {"type": "note_on", "time": 0, "note": 75, "velocity": 115, "channel": 0}, {"type": "note_off", "time": 21, "note": 75, "velocity": 115, "channel": 0}, {"type": "note_on", "time": 2, "note": 74, "velocity": 108, "channel": 0}, {"type": "note_off", "time": 197, "note": 74, "velocity": 108, "channel": 0}, {"type": "note_on", "time": 123, "note": 75, "velocity": 110, "channel": 0}, {"type": "note_off", "time": 32, "note": 75, "velocity": 110, "channel": 0}, {"type": "note_on", "time": 0, "note": 73, "velocity": 115, "channel": 0}, {"type": "note_off", "time": 35, "note": 73, "velocity": 115, "channel": 0}, {"type": "note_on", "time": 2, "note": 72, "velocity": 115, "channel": 0}, {"type": "note_off", "time": 30, "note": 72, "velocity": 115, "channel": 0}, {"type": "note_on", "time": 21, "note": 71, "velocity": 113, "channel": 0}, {"type": "note_off", "time": 49, "note": 71, "velocity": 113, "channel": 0}, {"type": "note_on", "time": 342, "note": 69, "velocity": 120, "channel": 0}, {"type": "note_off", "time": 43, "note": 69, "velocity": 120, "channel": 0}, {"type": "note_on", "time": 0, "note": 70, "velocity": 117, "channel": 0}, {"type": "note_off", "time": 279, "note": 70, "velocity": 117, "channel": 0}, {"type": "note_on", "time": 13, "note": 67, "velocity": 120, "channel": 0}, {"type": "note_off", "time": 43, "note": 67, "velocity": 120, "channel": 0}, {"type": "note_on", "time": 10, "note": 62, "velocity": 111, "channel": 0}, {"type": "note_off", "time": 41, "note": 62, "velocity": 111, "channel": 0}, {"type": "note_on", "time": 0, "note": 63, "velocity": 110, "channel": 0}, {"type": "note_off", "time": 52, "note": 63, "velocity": 110, "channel": 0}, {"type": "note_on", "time": 2, "note": 60, "velocity": 96, "channel": 0}, {"type": "note_off", "time": 38, "note": 60, "velocity": 96, "channel": 0}, {"type": "note_on", "time": 46, "note": 61, "velocity": 115, "channel": 0}, {"type": "note_off", "time": 52, "note": 61, "velocity": 115, "channel": 0}, {"type": "note_on", "time": 8, "note": 60, "velocity": 112, "channel": 0}, {"type": "note_off", "time": 57, "note": 60, "velocity": 112, "channel": 0}, {"type": "note_on", "time": 5, "note": 56, "velocity": 111, "channel": 0}, {"type": "note_off", "time": 68, "note": 56, "velocity": 111, "channel": 0}, {"type": "note_on", "time": 340, "note": 67, "velocity": 120, "channel": 0}, {"type": "note_off", "time": 46, "note": 67, "velocity": 120, "channel": 0}, {"type": "note_on", "time": 0, "note": 70, "velocity": 113, "channel": 0}, {"type": "note_off", "time": 38, "note": 70, "velocity": 113, "channel": 0}, {"type": "note_on", "time": 0, "note": 72, "velocity": 116, "channel": 0}, {"type": "note_off", "time": 57, "note": 72, "velocity": 116, "channel": 0}, {"type": "note_on", "time": 0, "note": 75, "velocity": 113, "channel": 0}, {"type": "note_off", "time": 38, "note": 75, "velocity": 113, "channel": 0}, {"type": "note_on", "time": 19, "note": 77, "velocity": 119, "channel": 0}, {"type": "note_off", "time": 38, "note": 77, "velocity": 119, "channel": 0}, {"type": "note_on", "time": 5, "note": 78, "velocity": 118, "channel": 0}, {"type": "note_off", "time": 49, "note": 78, "velocity": 118, "channel": 0}, {"type": "note_on", "time": 0, "note": 75, "velocity": 117, "channel": 0}, {"type": "note_off", "time": 54, "note": 75, "velocity": 117, "channel": 0}, {"type": "note_on", "time": 8, "note": 72, "velocity": 118, "channel": 0}, {"type": "note_off", "time": 32, "note": 72, "velocity": 118, "channel": 0}, {"type": "note_on", "time": 41, "note": 73, "velocity": 122, "channel": 0}, {"type": "note_on", "time": 49, "note": 70, "velocity": 117, "channel": 0}, {"type": "note_off", "time": 0, "note": 73, "velocity": 122, "channel": 0}, {"type": "note_off", "time": 79, "note": 70, "velocity": 117, "channel": 0}, {"type": "note_on", "time": 13, "note": 72, "velocity": 111, "channel": 0}, {"type": "note_off", "time": 68, "note": 72, "velocity": 111, "channel": 0}, {"type": "note_on", "time": 13, "note": 68, "velocity": 120, "channel": 0}, {"type": "note_off", "time": 71, "note": 68, "velocity": 120, "channel": 0}, {"type": "note_on", "time": 0, "note": 70, "velocity": 120, "channel": 0}, {"type": "note_off", "time": 44, "note": 70, "velocity": 120, "channel": 0}, {"type": "note_on", "time": 0, "note": 66, "velocity": 121, "channel": 0}, {"type": "note_off", "time": 74, "note": 66, "velocity": 121, "channel": 0}, {"type": "note_on", "time": 1, "note": 65, "velocity": 120, "channel": 0}, {"type": "note_off", "time": 60, "note": 65, "velocity": 120, "channel": 0}, {"type": "note_on", "time": 9, "note": 68, "velocity": 117, "channel": 0}, {"type": "note_off", "time": 72, "note": 68, "velocity": 117, "channel": 0}, {"type": "note_on", "time": 23, "note": 68, "velocity": 121, "channel": 0}, {"type": "note_off", "time": 52, "note": 68, "velocity": 121, "channel": 0}, {"type": "note_on", "time": 3, "note": 67, "velocity": 119, "channel": 0}, {"type": "note_off", "time": 46, "note": 67, "velocity": 119, "channel": 0}, {"type": "note_on", "time": 0, "note": 70, "velocity": 116, "channel": 0}, {"type": "note_off", "time": 35, "note": 70, "velocity": 116, "channel": 0}, {"type": "note_on", "time": 3, "note": 68, "velocity": 119, "channel": 0}, {"type": "note_off", "time": 89, "note": 68, "velocity": 119, "channel": 0}, {"type": "note_on", "time": 0, "note": 70, "velocity": 114, "channel": 0}, {"type": "note_off", "time": 52, "note": 70, "velocity": 114, "channel": 0}, {"type": "note_on", "time": 0, "note": 72, "velocity": 104, "channel": 0}, {"type": "note_off", "time": 230, "note": 72, "velocity": 104, "channel": 0}, {"type": "note_on", "time": 93, "note": 70, "velocity": 116, "channel": 0}, {"type": "note_off", "time": 60, "note": 70, "velocity": 116, "channel": 0}, {"type": "note_on", "time": 0, "note": 68, "velocity": 121, "channel": 0}, {"type": "note_off", "time": 44, "note": 68, "velocity": 121, "channel": 0}, {"type": "note_on", "time": 0, "note": 63, "velocity": 104, "channel": 0}, {"type": "note_off", "time": 54, "note": 63, "velocity": 104, "channel": 0}, {"type": "note_on", "time": 3, "note": 58, "velocity": 102, "channel": 0}, {"type": "note_off", "time": 31, "note": 58, "velocity": 102, "channel": 0}, {"type": "note_on", "time": 0, "note": 66, "velocity": 122, "channel": 0}, {"type": "note_off", "time": 52, "note": 66, "velocity": 122, "channel": 0}, {"type": "note_on", "time": 5, "note": 68, "velocity": 120, "channel": 0}, {"type": "note_off", "time": 37, "note": 68, "velocity": 120, "channel": 0}, {"type": "note_on", "time": 7, "note": 70, "velocity": 111, "channel": 0}, {"type": "note_off", "time": 113, "note": 70, "velocity": 111, "channel": 0}, {"type": "note_on", "time": 0, "note": 68, "velocity": 121, "channel": 0}, {"type": "note_off", "time": 44, "note": 68, "velocity": 121, "channel": 0}, {"type": "note_on", "time": 1, "note": 64, "velocity": 106, "channel": 0}, {"type": "note_off", "time": 44, "note": 64, "velocity": 106, "channel": 0}, {"type": "note_on", "time": 11, "note": 61, "velocity": 108, "channel": 0}, {"type": "note_off", "time": 31, "note": 61, "velocity": 108, "channel": 0}, {"type": "note_on", "time": 988, "note": 72, "velocity": 116, "channel": 0}, {"type": "note_off", "time": 54, "note": 72, "velocity": 116, "channel": 0}, {"type": "note_on", "time": 40, "note": 73, "velocity": 121, "channel": 0}, {"type": "note_off", "time": 210, "note": 73, "velocity": 121, "channel": 0}, {"type": "note_on", "time": 9, "note": 72, "velocity": 117, "channel": 0}, {"type": "note_off", "time": 44, "note": 72, "velocity": 117, "channel": 0}, {"type": "note_on", "time": 5, "note": 73, "velocity": 123, "channel": 0}, {"type": "note_off", "time": 39, "note": 73, "velocity": 123, "channel": 0}, {"type": "note_on", "time": 7, "note": 75, "velocity": 116, "channel": 0}, {"type": "note_off", "time": 40, "note": 75, "velocity": 116, "channel": 0}, {"type": "note_on", "time": 1, "note": 76, "velocity": 118, "channel": 0}, {"type": "note_off", "time": 40, "note": 76, "velocity": 118, "channel": 0}, {"type": "note_on", "time": 1, "note": 77, "velocity": 114, "channel": 0}, {"type": "note_off", "time": 52, "note": 77, "velocity": 114, "channel": 0}, {"type": "note_on", "time": 7, "note": 76, "velocity": 118, "channel": 0}, {"type": "note_off", "time": 37, "note": 76, "velocity": 118, "channel": 0}, {"type": "note_on", "time": 0, "note": 75, "velocity": 113, "channel": 0}, {"type": "note_off", "time": 42, "note": 75, "velocity": 113, "channel": 0}, {"type": "note_on", "time": 7, "note": 72, "velocity": 116, "channel": 0}, {"type": "note_off", "time": 29, "note": 72, "velocity": 116, "channel": 0}, {"type": "note_on", "time": 0, "note": 71, "velocity": 117, "channel": 0}, {"type": "note_off", "time": 42, "note": 71, "velocity": 117, "channel": 0}, {"type": "note_on", "time": 3, "note": 70, "velocity": 114, "channel": 0}, {"type": "note_off", "time": 17, "note": 70, "velocity": 114, "channel": 0}, {"type": "note_on", "time": 0, "note": 75, "velocity": 114, "channel": 0}, {"type": "note_off", "time": 37, "note": 75, "velocity": 114, "channel": 0}, {"type": "note_on", "time": 1, "note": 73, "velocity": 121, "channel": 0}, {"type": "note_off", "time": 54, "note": 73, "velocity": 121, "channel": 0}, {"type": "note_on", "time": 40, "note": 72, "velocity": 113, "channel": 0}, {"type": "note_on", "time": 50, "note": 75, "velocity": 108, "channel": 0}, {"type": "note_off", "time": 0, "note": 72, "velocity": 113, "channel": 0}, {"type": "note_off", "time": 46, "note": 75, "velocity": 108, "channel": 0}, {"type": "note_on", "time": 13, "note": 70, "velocity": 116, "channel": 0}, {"type": "note_off", "time": 46, "note": 70, "velocity": 116, "channel": 0}, {"type": "note_on", "time": 5, "note": 67, "velocity": 120, "channel": 0}, {"type": "note_off", "time": 33, "note": 67, "velocity": 120, "channel": 0}, {"type": "note_on", "time": 5, "note": 63, "velocity": 106, "channel": 0}, {"type": "note_off", "time": 50, "note": 63, "velocity": 106, "channel": 0}, {"type": "note_on", "time": 48, "note": 65, "velocity": 121, "channel": 0}, {"type": "note_off", "time": 46, "note": 65, "velocity": 121, "channel": 0}, {"type": "note_on", "time": 0, "note": 70, "velocity": 118, "channel": 0}, {"type": "note_off", "time": 44, "note": 70, "velocity": 118, "channel": 0}, {"type": "note_on", "time": 0, "note": 67, "velocity": 115, "channel": 0}, {"type": "note_off", "time": 50, "note": 67, "velocity": 115, "channel": 0}, {"type": "note_on", "time": 23, "note": 58, "velocity": 101, "channel": 0}, {"type": "note_off", "time": 126, "note": 58, "velocity": 101, "channel": 0}, {"type": "note_on", "time": 0, "note": 60, "velocity": 106, "channel": 0}, {"type": "note_off", "time": 52, "note": 60, "velocity": 106, "channel": 0}, {"type": "note_on", "time": 0, "note": 65, "velocity": 115, "channel": 0}, {"type": "note_off", "time": 58, "note": 65, "velocity": 115, "channel": 0}, {"type": "note_on", "time": 171, "note": 67, "velocity": 116, "channel": 0}, {"type": "note_off", "time": 50, "note": 67, "velocity": 116, "channel": 0}, {"type": "note_on", "time": 0, "note": 70, "velocity": 116, "channel": 0}, {"type": "note_off", "time": 29, "note": 70, "velocity": 116, "channel": 0}, {"type": "note_on", "time": 1, "note": 72, "velocity": 117, "channel": 0}, {"type": "note_off", "time": 68, "note": 72, "velocity": 117, "channel": 0}, {"type": "note_on", "time": 52, "note": 60, "velocity": 101, "channel": 0}, {"type": "note_off", "time": 46, "note": 60, "velocity": 101, "channel": 0}, {"type": "note_on", "time": 1, "note": 65, "velocity": 120, "channel": 0}, {"type": "note_off", "time": 44, "note": 65, "velocity": 120, "channel": 0}, {"type": "note_on", "time": 0, "note": 67, "velocity": 121, "channel": 0}, {"type": "note_off", "time": 48, "note": 67, "velocity": 121, "channel": 0}, {"type": "note_on", "time": 54, "note": 58, "velocity": 102, "channel": 0}, {"type": "note_off", "time": 44, "note": 58, "velocity": 102, "channel": 0}, {"type": "note_on", "time": 9, "note": 60, "velocity": 109, "channel": 0}, {"type": "note_off", "time": 33, "note": 60, "velocity": 109, "channel": 0}, {"type": "note_on", "time": 0, "note": 63, "velocity": 107, "channel": 0}, {"type": "note_off", "time": 39, "note": 63, "velocity": 107, "channel": 0}, {"type": "note_on", "time": 3, "note": 65, "velocity": 120, "channel": 0}, {"type": "note_off", "time": 40, "note": 65, "velocity": 120, "channel": 0}, {"type": "note_on", "time": 0, "note": 67, "velocity": 119, "channel": 0}, {"type": "note_off", "time": 46, "note": 67, "velocity": 119, "channel": 0}, {"type": "note_on", "time": 0, "note": 70, "velocity": 117, "channel": 0}, {"type": "note_off", "time": 48, "note": 70, "velocity": 117, "channel": 0}, {"type": "note_on", "time": 0, "note": 72, "velocity": 120, "channel": 0}, {"type": "note_off", "time": 62, "note": 72, "velocity": 120, "channel": 0}, {"type": "note_on", "time": 195, "note": 73, "velocity": 122, "channel": 0}, {"type": "note_off", "time": 40, "note": 73, "velocity": 122, "channel": 0}, {"type": "note_on", "time": 0, "note": 74, "velocity": 113, "channel": 0}, {"type": "note_off", "time": 392, "note": 74, "velocity": 113, "channel": 0}, {"type": "note_on", "time": 0, "note": 73, "velocity": 119, "channel": 0}, {"type": "note_off", "time": 52, "note": 73, "velocity": 119, "channel": 0}, {"type": "note_on", "time": 3, "note": 74, "velocity": 106, "channel": 0}, {"type": "note_off", "time": 29, "note": 74, "velocity": 106, "channel": 0}, {"type": "note_on", "time": 11, "note": 77, "velocity": 116, "channel": 0}, {"type": "note_off", "time": 46, "note": 77, "velocity": 116, "channel": 0}, {"type": "note_on", "time": 0, "note": 74, "velocity": 117, "channel": 0}, {"type": "note_off", "time": 42, "note": 74, "velocity": 117, "channel": 0}, {"type": "note_on", "time": 11, "note": 70, "velocity": 113, "channel": 0}, {"type": "note_off", "time": 33, "note": 70, "velocity": 113, "channel": 0}, {"type": "note_on", "time": 21, "note": 67, "velocity": 116, "channel": 0}, {"type": "note_off", "time": 52, "note": 67, "velocity": 116, "channel": 0}, {"type": "note_on", "time": 39, "note": 60, "velocity": 109, "channel": 0}, {"type": "note_off", "time": 42, "note": 60, "velocity": 109, "channel": 0}, {"type": "note_on", "time": 0, "note": 65, "velocity": 120, "channel": 0}, {"type": "note_off", "time": 31, "note": 65, "velocity": 120, "channel": 0}, {"type": "note_on", "time": 0, "note": 70, "velocity": 103, "channel": 0}, {"type": "note_off", "time": 44, "note": 70, "velocity": 103, "channel": 0}, {"type": "note_on", "time": 3, "note": 74, "velocity": 119, "channel": 0}, {"type": "note_off", "time": 70, "note": 74, "velocity": 119, "channel": 0}, {"type": "note_on", "time": 13, "note": 72, "velocity": 114, "channel": 0}, {"type": "note_off", "time": 64, "note": 72, "velocity": 114, "channel": 0}, {"type": "note_on", "time": 0, "note": 75, "velocity": 108, "channel": 0}, {"type": "note_off", "time": 40, "note": 75, "velocity": 108, "channel": 0}, {"type": "note_on", "time": 1, "note": 74, "velocity": 118, "channel": 0}, {"type": "note_off", "time": 48, "note": 74, "velocity": 118, "channel": 0}, {"type": "note_on", "time": 13, "note": 67, "velocity": 118, "channel": 0}, {"type": "note_off", "time": 58, "note": 67, "velocity": 118, "channel": 0}, {"type": "note_on", "time": 39, "note": 74, "velocity": 113, "channel": 0}, {"type": "note_off", "time": 87, "note": 74, "velocity": 113, "channel": 0}, {"type": "note_on", "time": 7, "note": 67, "velocity": 113, "channel": 0}, {"type": "note_off", "time": 74, "note": 67, "velocity": 113, "channel": 0}, {"type": "note_on", "time": 50, "note": 65, "velocity": 120, "channel": 0}, {"type": "note_off", "time": 60, "note": 65, "velocity": 120, "channel": 0}, {"type": "note_on", "time": 0, "note": 67, "velocity": 107, "channel": 0}, {"type": "note_off", "time": 35, "note": 67, "velocity": 107, "channel": 0}, {"type": "note_on", "time": 1, "note": 70, "velocity": 117, "channel": 0}, {"type": "note_on", "time": 56, "note": 67, "velocity": 104, "channel": 0}, {"type": "note_off", "time": 0, "note": 70, "velocity": 117, "channel": 0}, {"type": "note_off", "time": 29, "note": 67, "velocity": 104, "channel": 0}, {"type": "note_on", "time": 1, "note": 69, "velocity": 122, "channel": 0}, {"type": "note_off", "time": 35, "note": 69, "velocity": 122, "channel": 0}, {"type": "note_on", "time": 0, "note": 70, "velocity": 116, "channel": 0}, {"type": "note_off", "time": 27, "note": 70, "velocity": 116, "channel": 0}, {"type": "note_on", "time": 3, "note": 69, "velocity": 118, "channel": 0}, {"type": "note_off", "time": 25, "note": 69, "velocity": 118, "channel": 0}, {"type": "note_on", "time": 0, "note": 67, "velocity": 117, "channel": 0}, {"type": "note_off", "time": 35, "note": 67, "velocity": 117, "channel": 0}, {"type": "note_on", "time": 13, "note": 67, "velocity": 116, "channel": 0}, {"type": "note_off", "time": 52, "note": 67, "velocity": 116, "channel": 0}, {"type": "note_on", "time": 354, "note": 58, "velocity": 112, "channel": 0}, {"type": "note_off", "time": 35, "note": 58, "velocity": 112, "channel": 0}, {"type": "note_on", "time": 0, "note": 63, "velocity": 99, "channel": 0}, {"type": "note_off", "time": 44, "note": 63, "velocity": 99, "channel": 0}, {"type": "note_on", "time": 0, "note": 65, "velocity": 120, "channel": 0}, {"type": "note_off", "time": 40, "note": 65, "velocity": 120, "channel": 0}, {"type": "note_on", "time": 0, "note": 66, "velocity": 119, "channel": 0}, {"type": "note_off", "time": 46, "note": 66, "velocity": 119, "channel": 0}, {"type": "note_on", "time": 5, "note": 69, "velocity": 121, "channel": 0}, {"type": "note_off", "time": 107, "note": 69, "velocity": 121, "channel": 0}, {"type": "note_on", "time": 7, "note": 66, "velocity": 118, "channel": 0}, {"type": "note_off", "time": 42, "note": 66, "velocity": 118, "channel": 0}, {"type": "note_on", "time": 0, "note": 65, "velocity": 125, "channel": 0}, {"type": "note_off", "time": 40, "note": 65, "velocity": 125, "channel": 0}, {"type": "note_on", "time": 7, "note": 64, "velocity": 112, "channel": 0}, {"type": "note_off", "time": 50, "note": 64, "velocity": 112, "channel": 0}, {"type": "note_on", "time": 0, "note": 63, "velocity": 105, "channel": 0}, {"type": "note_off", "time": 37, "note": 63, "velocity": 105, "channel": 0}, {"type": "note_on", "time": 7, "note": 59, "velocity": 110, "channel": 0}, {"type": "note_off", "time": 44, "note": 59, "velocity": 110, "channel": 0}, {"type": "note_on", "time": 3, "note": 58, "velocity": 113, "channel": 0}, {"type": "note_off", "time": 44, "note": 58, "velocity": 113, "channel": 0}, {"type": "note_on", "time": 11, "note": 59, "velocity": 108, "channel": 0}, {"type": "note_off", "time": 33, "note": 59, "velocity": 108, "channel": 0}, {"type": "note_on", "time": 0, "note": 61, "velocity": 107, "channel": 0}, {"type": "note_off", "time": 56, "note": 61, "velocity": 107, "channel": 0}, {"type": "note_on", "time": 43, "note": 53, "velocity": 113, "channel": 0}, {"type": "note_off", "time": 48, "note": 53, "velocity": 113, "channel": 0}, {"type": "note_on", "time": 5, "note": 58, "velocity": 109, "channel": 0}, {"type": "note_off", "time": 35, "note": 58, "velocity": 109, "channel": 0}, {"type": "note_on", "time": 1, "note": 59, "velocity": 110, "channel": 0}, {"type": "note_off", "time": 42, "note": 59, "velocity": 110, "channel": 0}, {"type": "note_on", "time": 19, "note": 62, "velocity": 109, "channel": 0}, {"type": "note_off", "time": 39, "note": 62, "velocity": 109, "channel": 0}, {"type": "note_on", "time": 3, "note": 63, "velocity": 109, "channel": 0}, {"type": "note_off", "time": 44, "note": 63, "velocity": 109, "channel": 0}, {"type": "note_on", "time": 1, "note": 65, "velocity": 121, "channel": 0}, {"type": "note_off", "time": 35, "note": 65, "velocity": 121, "channel": 0}, {"type": "note_on", "time": 3, "note": 66, "velocity": 110, "channel": 0}, {"type": "note_off", "time": 52, "note": 66, "velocity": 110, "channel": 0}, {"type": "note_on", "time": 0, "note": 69, "velocity": 119, "channel": 0}, {"type": "note_off", "time": 39, "note": 69, "velocity": 119, "channel": 0}, {"type": "note_on", "time": 1, "note": 71, "velocity": 101, "channel": 0}, {"type": "note_off", "time": 48, "note": 71, "velocity": 101, "channel": 0}, {"type": "note_on", "time": 0, "note": 74, "velocity": 112, "channel": 0}, {"type": "note_off", "time": 46, "note": 74, "velocity": 112, "channel": 0}, {"type": "note_on", "time": 0, "note": 75, "velocity": 108, "channel": 0}, {"type": "note_off", "time": 48, "note": 75, "velocity": 108, "channel": 0}, {"type": "note_on", "time": 3, "note": 76, "velocity": 112, "channel": 0}, {"type": "note_off", "time": 44, "note": 76, "velocity": 112, "channel": 0}, {"type": "note_on", "time": 0, "note": 77, "velocity": 117, "channel": 0}, {"type": "note_off", "time": 37, "note": 77, "velocity": 117, "channel": 0}, {"type": "note_on", "time": 7, "note": 78, "velocity": 113, "channel": 0}, {"type": "note_off", "time": 40, "note": 78, "velocity": 113, "channel": 0}, {"type": "note_on", "time": 3, "note": 75, "velocity": 107, "channel": 0}, {"type": "note_off", "time": 159, "note": 75, "velocity": 107, "channel": 0}, {"type": "note_on", "time": 0, "note": 71, "velocity": 113, "channel": 0}, {"type": "note_off", "time": 48, "note": 71, "velocity": 113, "channel": 0}, {"type": "note_on", "time": 0, "note": 70, "velocity": 115, "channel": 0}, {"type": "note_off", "time": 35, "note": 70, "velocity": 115, "channel": 0}, {"type": "note_on", "time": 9, "note": 69, "velocity": 117, "channel": 0}, {"type": "note_off", "time": 39, "note": 69, "velocity": 117, "channel": 0}, {"type": "note_on", "time": 0, "note": 68, "velocity": 115, "channel": 0}, {"type": "note_off", "time": 64, "note": 68, "velocity": 115, "channel": 0}, {"type": "note_on", "time": 120, "note": 67, "velocity": 116, "channel": 0}, {"type": "note_off", "time": 52, "note": 67, "velocity": 116, "channel": 0}, {"type": "note_on", "time": 1, "note": 70, "velocity": 116, "channel": 0}, {"type": "note_off", "time": 50, "note": 70, "velocity": 116, "channel": 0}, {"type": "note_on", "time": 1, "note": 68, "velocity": 119, "channel": 0}, {"type": "note_off", "time": 46, "note": 68, "velocity": 119, "channel": 0}, {"type": "note_on", "time": 0, "note": 65, "velocity": 117, "channel": 0}, {"type": "note_off", "time": 46, "note": 65, "velocity": 117, "channel": 0}, {"type": "note_on", "time": 0, "note": 67, "velocity": 116, "channel": 0}, {"type": "note_off", "time": 48, "note": 67, "velocity": 116, "channel": 0}, {"type": "note_on", "time": 0, "note": 65, "velocity": 117, "channel": 0}, {"type": "note_off", "time": 48, "note": 65, "velocity": 117, "channel": 0}, {"type": "note_on", "time": 0, "note": 63, "velocity": 64, "channel": 0}, {"type": "note_off", "time": 52, "note": 63, "velocity": 64, "channel": 0}, {"type": "note_on", "time": 0, "note": 60, "velocity": 104, "channel": 0}, {"type": "note_off", "time": 50, "note": 60, "velocity": 104, "channel": 0}, {"type": "note_on", "time": 46, "note": 60, "velocity": 107, "channel": 0}, {"type": "note_off", "time": 29, "note": 60, "velocity": 107, "channel": 0}, {"type": "note_on", "time": 0, "note": 62, "velocity": 108, "channel": 0}, {"type": "note_off", "time": 27, "note": 62, "velocity": 108, "channel": 0}, {"type": "note_on", "time": 15, "note": 62, "velocity": 107, "channel": 0}, {"type": "note_off", "time": 40, "note": 62, "velocity": 107, "channel": 0}, {"type": "note_on", "time": 368, "note": 58, "velocity": 113, "channel": 0}, {"type": "note_off", "time": 37, "note": 58, "velocity": 113, "channel": 0}, {"type": "note_on", "time": 0, "note": 60, "velocity": 122, "channel": 0}, {"type": "note_off", "time": 44, "note": 60, "velocity": 122, "channel": 0}, {"type": "note_on", "time": 5, "note": 65, "velocity": 121, "channel": 0}, {"type": "note_off", "time": 40, "note": 65, "velocity": 121, "channel": 0}, {"type": "note_on", "time": 0, "note": 70, "velocity": 118, "channel": 0}, {"type": "note_off", "time": 50, "note": 70, "velocity": 118, "channel": 0}, {"type": "note_on", "time": 0, "note": 72, "velocity": 118, "channel": 0}, {"type": "note_off", "time": 50, "note": 72, "velocity": 118, "channel": 0}, {"type": "note_on", "time": 7, "note": 73, "velocity": 126, "channel": 0}, {"type": "note_off", "time": 39, "note": 73, "velocity": 126, "channel": 0}, {"type": "note_on", "time": 5, "note": 74, "velocity": 122, "channel": 0}, {"type": "note_off", "time": 35, "note": 74, "velocity": 122, "channel": 0}, {"type": "note_on", "time": 3, "note": 73, "velocity": 117, "channel": 0}, {"type": "note_off", "time": 39, "note": 73, "velocity": 117, "channel": 0}, {"type": "note_on", "time": 13, "note": 78, "velocity": 113, "channel": 0}, {"type": "note_off", "time": 50, "note": 78, "velocity": 113, "channel": 0}, {"type": "note_on", "time": 1, "note": 76, "velocity": 119, "channel": 0}, {"type": "note_off", "time": 46, "note": 76, "velocity": 119, "channel": 0}, {"type": "note_on", "time": 0, "note": 73, "velocity": 120, "channel": 0}, {"type": "note_off", "time": 42, "note": 73, "velocity": 120, "channel": 0}, {"type": "note_on", "time": 1, "note": 71, "velocity": 115, "channel": 0}, {"type": "note_off", "time": 50, "note": 71, "velocity": 115, "channel": 0}, {"type": "note_on", "time": 0, "note": 75, "velocity": 115, "channel": 0}, {"type": "note_off", "time": 42, "note": 75, "velocity": 115, "channel": 0}, {"type": "note_on", "time": 3, "note": 73, "velocity": 125, "channel": 0}, {"type": "note_off", "time": 50, "note": 73, "velocity": 125, "channel": 0}, {"type": "note_on", "time": 7, "note": 66, "velocity": 103, "channel": 0}, {"type": "note_off", "time": 39, "note": 66, "velocity": 103, "channel": 0}, {"type": "note_on", "time": 0, "note": 71, "velocity": 124, "channel": 0}, {"type": "note_off", "time": 42, "note": 71, "velocity": 124, "channel": 0}, {"type": "note_on", "time": 0, "note": 73, "velocity": 123, "channel": 0}, {"type": "note_off", "time": 46, "note": 73, "velocity": 123, "channel": 0}, {"type": "note_on", "time": 0, "note": 71, "velocity": 121, "channel": 0}, {"type": "note_off", "time": 50, "note": 71, "velocity": 121, "channel": 0}, {"type": "note_on", "time": 0, "note": 69, "velocity": 125, "channel": 0}, {"type": "note_off", "time": 35, "note": 69, "velocity": 125, "channel": 0}, {"type": "note_on", "time": 5, "note": 63, "velocity": 116, "channel": 0}, {"type": "note_off", "time": 44, "note": 63, "velocity": 116, "channel": 0}, {"type": "note_on", "time": 1, "note": 60, "velocity": 99, "channel": 0}, {"type": "note_off", "time": 39, "note": 60, "velocity": 99, "channel": 0}, {"type": "note_on", "time": 10, "note": 68, "velocity": 121, "channel": 0}, {"type": "note_off", "time": 76, "note": 68, "velocity": 121, "channel": 0}, {"type": "note_on", "time": 23, "note": 70, "velocity": 118, "channel": 0}, {"type": "note_off", "time": 48, "note": 70, "velocity": 118, "channel": 0}, {"type": "note_on", "time": 5, "note": 72, "velocity": 118, "channel": 0}, {"type": "note_off", "time": 46, "note": 72, "velocity": 118, "channel": 0}, {"type": "note_on", "time": 3, "note": 68, "velocity": 121, "channel": 0}, {"type": "note_off", "time": 42, "note": 68, "velocity": 121, "channel": 0}, {"type": "note_on", "time": 5, "note": 72, "velocity": 116, "channel": 0}, {"type": "note_off", "time": 46, "note": 72, "velocity": 116, "channel": 0}, {"type": "note_on", "time": 5, "note": 70, "velocity": 118, "channel": 0}, {"type": "note_on", "time": 39, "note": 67, "velocity": 116, "channel": 0}, {"type": "note_off", "time": 0, "note": 70, "velocity": 118, "channel": 0}, {"type": "note_off", "time": 122, "note": 67, "velocity": 116, "channel": 0}, {"type": "note_on", "time": 31, "note": 63, "velocity": 115, "channel": 0}, {"type": "note_off", "time": 44, "note": 63, "velocity": 115, "channel": 0}, {"type": "note_on", "time": 3, "note": 60, "velocity": 95, "channel": 0}, {"type": "note_off", "time": 42, "note": 60, "velocity": 95, "channel": 0}, {"type": "note_on", "time": 360, "note": 58, "velocity": 115, "channel": 0}, {"type": "note_off", "time": 33, "note": 58, "velocity": 115, "channel": 0}, {"type": "note_on", "time": 0, "note": 56, "velocity": 116, "channel": 0}, {"type": "note_off", "time": 39, "note": 56, "velocity": 116, "channel": 0}, {"type": "note_on", "time": 0, "note": 58, "velocity": 115, "channel": 0}, {"type": "note_off", "time": 42, "note": 58, "velocity": 115, "channel": 0}, {"type": "note_on", "time": 5, "note": 63, "velocity": 114, "channel": 0}, {"type": "note_off", "time": 42, "note": 63, "velocity": 114, "channel": 0}, {"type": "note_on", "time": 0, "note": 68, "velocity": 121, "channel": 0}, {"type": "note_off", "time": 40, "note": 68, "velocity": 121, "channel": 0}, {"type": "note_on", "time": 7, "note": 70, "velocity": 119, "channel": 0}, {"type": "note_off", "time": 40, "note": 70, "velocity": 119, "channel": 0}, {"type": "note_on", "time": 0, "note": 75, "velocity": 113, "channel": 0}, {"type": "note_off", "time": 56, "note": 75, "velocity": 113, "channel": 0}, {"type": "note_on", "time": 5, "note": 76, "velocity": 121, "channel": 0}, {"type": "note_off", "time": 40, "note": 76, "velocity": 121, "channel": 0}, {"type": "note_on", "time": 3, "note": 80, "velocity": 107, "channel": 0}, {"type": "note_off", "time": 37, "note": 80, "velocity": 107, "channel": 0}, {"type": "note_on", "time": 1, "note": 82, "velocity": 116, "channel": 0}, {"type": "note_off", "time": 97, "note": 82, "velocity": 116, "channel": 0}, {"type": "note_on", "time": 7, "note": 80, "velocity": 108, "channel": 0}, {"type": "note_off", "time": 39, "note": 80, "velocity": 108, "channel": 0}, {"type": "note_on", "time": 384, "note": 79, "velocity": 107, "channel": 0}, {"type": "note_on", "time": 48, "note": 77, "velocity": 122, "channel": 0}, {"type": "note_off", "time": 0, "note": 79, "velocity": 107, "channel": 0}, {"type": "note_off", "time": 89, "note": 77, "velocity": 122, "channel": 0}, {"type": "note_on", "time": 0, "note": 72, "velocity": 121, "channel": 0}, {"type": "note_off", "time": 62, "note": 72, "velocity": 121, "channel": 0}, {"type": "note_on", "time": 5, "note": 70, "velocity": 120, "channel": 0}, {"type": "note_off", "time": 58, "note": 70, "velocity": 120, "channel": 0}, {"type": "note_on", "time": 40, "note": 76, "velocity": 110, "channel": 0}, {"type": "note_off", "time": 23, "note": 76, "velocity": 110, "channel": 0}, {"type": "note_on", "time": 3, "note": 78, "velocity": 117, "channel": 0}, {"type": "note_off", "time": 37, "note": 78, "velocity": 117, "channel": 0}, {"type": "note_on", "time": 1, "note": 76, "velocity": 114, "channel": 0}, {"type": "note_off", "time": 54, "note": 76, "velocity": 114, "channel": 0}, {"type": "note_on", "time": 0, "note": 73, "velocity": 124, "channel": 0}, {"type": "note_off", "time": 56, "note": 73, "velocity": 124, "channel": 0}, {"type": "note_on", "time": 19, "note": 71, "velocity": 121, "channel": 0}, {"type": "note_off", "time": 39, "note": 71, "velocity": 121, "channel": 0}, {"type": "note_on", "time": 3, "note": 68, "velocity": 126, "channel": 0}, {"type": "note_off", "time": 39, "note": 68, "velocity": 126, "channel": 0}, {"type": "note_on", "time": 54, "note": 64, "velocity": 114, "channel": 0}, {"type": "note_off", "time": 31, "note": 64, "velocity": 114, "channel": 0}, {"type": "note_on", "time": 0, "note": 66, "velocity": 108, "channel": 0}, {"type": "note_off", "time": 42, "note": 66, "velocity": 108, "channel": 0}, {"type": "note_on", "time": 13, "note": 68, "velocity": 121, "channel": 0}, {"type": "note_off", "time": 27, "note": 68, "velocity": 121, "channel": 0}, {"type": "note_on", "time": 9, "note": 70, "velocity": 113, "channel": 0}, {"type": "note_off", "time": 52, "note": 70, "velocity": 113, "channel": 0}, {"type": "note_on", "time": 5, "note": 76, "velocity": 112, "channel": 0}, {"type": "note_off", "time": 23, "note": 76, "velocity": 112, "channel": 0}, {"type": "note_on", "time": 11, "note": 77, "velocity": 116, "channel": 0}, {"type": "note_on", "time": 52, "note": 75, "velocity": 111, "channel": 0}, {"type": "note_off", "time": 0, "note": 77, "velocity": 116, "channel": 0}, {"type": "note_off", "time": 56, "note": 75, "velocity": 111, "channel": 0}, {"type": "note_on", "time": 3, "note": 71, "velocity": 117, "channel": 0}, {"type": "note_off", "time": 37, "note": 71, "velocity": 117, "channel": 0}, {"type": "note_on", "time": 9, "note": 65, "velocity": 123, "channel": 0}, {"type": "note_off", "time": 37, "note": 65, "velocity": 123, "channel": 0}, {"type": "note_on", "time": 5, "note": 70, "velocity": 92, "channel": 0}, {"type": "note_off", "time": 39, "note": 70, "velocity": 92, "channel": 0}, {"type": "note_on", "time": 1, "note": 65, "velocity": 122, "channel": 0}, {"type": "note_off", "time": 64, "note": 65, "velocity": 122, "channel": 0}, {"type": "note_on", "time": 126, "note": 76, "velocity": 126, "channel": 0}, {"type": "note_off", "time": 48, "note": 76, "velocity": 126, "channel": 0}, {"type": "note_on", "time": 0, "note": 74, "velocity": 108, "channel": 0}, {"type": "note_off", "time": 42, "note": 74, "velocity": 108, "channel": 0}, {"type": "note_on", "time": 5, "note": 75, "velocity": 118, "channel": 0}, {"type": "note_off", "time": 54, "note": 75, "velocity": 118, "channel": 0}, {"type": "note_on", "time": 0, "note": 72, "velocity": 120, "channel": 0}, {"type": "note_off", "time": 42, "note": 72, "velocity": 120, "channel": 0}, {"type": "note_on", "time": 9, "note": 70, "velocity": 119, "channel": 0}, {"type": "note_off", "time": 46, "note": 70, "velocity": 119, "channel": 0}, {"type": "note_on", "time": 226, "note": 72, "velocity": 118, "channel": 0}, {"type": "note_off", "time": 91, "note": 72, "velocity": 118, "channel": 0}, {"type": "note_on", "time": 3, "note": 74, "velocity": 119, "channel": 0}, {"type": "note_off", "time": 72, "note": 74, "velocity": 119, "channel": 0}, {"type": "note_on", "time": 0, "note": 67, "velocity": 118, "channel": 0}, {"type": "note_off", "time": 167, "note": 67, "velocity": 118, "channel": 0}, {"type": "note_on", "time": 0, "note": 72, "velocity": 112, "channel": 0}, {"type": "note_on", "time": 64, "note": 70, "velocity": 121, "channel": 0}, {"type": "note_off", "time": 0, "note": 72, "velocity": 112, "channel": 0}, {"type": "note_off", "time": 56, "note": 70, "velocity": 121, "channel": 0}, {"type": "note_on", "time": 0, "note": 65, "velocity": 122, "channel": 0}, {"type": "note_off", "time": 48, "note": 65, "velocity": 122, "channel": 0}, {"type": "note_on", "time": 1, "note": 63, "velocity": 114, "channel": 0}, {"type": "note_off", "time": 40, "note": 63, "velocity": 114, "channel": 0}, {"type": "note_on", "time": 0, "note": 60, "velocity": 106, "channel": 0}, {"type": "note_on", "time": 29, "note": 65, "velocity": 125, "channel": 0}, {"type": "note_off", "time": 0, "note": 60, "velocity": 106, "channel": 0}, {"type": "note_off", "time": 19, "note": 65, "velocity": 125, "channel": 0}, {"type": "note_on", "time": 3, "note": 67, "velocity": 117, "channel": 0}, {"type": "note_off", "time": 29, "note": 67, "velocity": 117, "channel": 0}, {"type": "note_on", "time": 3, "note": 71, "velocity": 108, "channel": 0}, {"type": "note_off", "time": 44, "note": 71, "velocity": 108, "channel": 0}, {"type": "note_on", "time": 11, "note": 65, "velocity": 116, "channel": 0}, {"type": "note_off", "time": 54, "note": 65, "velocity": 116, "channel": 0}, {"type": "note_on", "time": 15, "note": 65, "velocity": 108, "channel": 0}, {"type": "note_off", "time": 58, "note": 65, "velocity": 108, "channel": 0}, {"type": "note_on", "time": 234, "note": 65, "velocity": 105, "channel": 0}, {"type": "note_off", "time": 191, "note": 65, "velocity": 105, "channel": 0}, {"type": "note_on", "time": 17, "note": 65, "velocity": 126, "channel": 0}, {"type": "note_off", "time": 66, "note": 65, "velocity": 126, "channel": 0}, {"type": "note_on", "time": 25, "note": 70, "velocity": 123, "channel": 0}, {"type": "note_off", "time": 46, "note": 70, "velocity": 123, "channel": 0}, {"type": "note_on", "time": 0, "note": 67, "velocity": 110, "channel": 0}, {"type": "note_off", "time": 29, "note": 67, "velocity": 110, "channel": 0}, {"type": "note_on", "time": 7, "note": 65, "velocity": 110, "channel": 0}, {"type": "note_off", "time": 46, "note": 65, "velocity": 110, "channel": 0}, {"type": "note_on", "time": 7, "note": 64, "velocity": 104, "channel": 0}, {"type": "note_off", "time": 40, "note": 64, "velocity": 104, "channel": 0}, {"type": "note_on", "time": 4, "note": 65, "velocity": 127, "channel": 0}, {"type": "note_off", "time": 64, "note": 65, "velocity": 127, "channel": 0}, {"type": "note_on", "time": 0, "note": 66, "velocity": 114, "channel": 0}, {"type": "note_off", "time": 44, "note": 66, "velocity": 114, "channel": 0}, {"type": "note_on", "time": 43, "note": 64, "velocity": 103, "channel": 0}, {"type": "note_off", "time": 39, "note": 64, "velocity": 103, "channel": 0}, {"type": "note_on", "time": 37, "note": 66, "velocity": 115, "channel": 0}, {"type": "note_off", "time": 51, "note": 66, "velocity": 115, "channel": 0}, {"type": "note_on", "time": 0, "note": 65, "velocity": 107, "channel": 0}, {"type": "note_off", "time": 50, "note": 65, "velocity": 107, "channel": 0}, {"type": "note_on", "time": 35, "note": 65, "velocity": 102, "channel": 0}, {"type": "note_off", "time": 23, "note": 65, "velocity": 102, "channel": 0}, {"type": "note_on", "time": 7, "note": 67, "velocity": 124, "channel": 0}, {"type": "note_off", "time": 52, "note": 67, "velocity": 124, "channel": 0}, {"type": "note_on", "time": 35, "note": 70, "velocity": 117, "channel": 0}, {"type": "note_off", "time": 72, "note": 70, "velocity": 117, "channel": 0}, {"type": "note_on", "time": 19, "note": 70, "velocity": 121, "channel": 0}, {"type": "note_off", "time": 50, "note": 70, "velocity": 121, "channel": 0}, {"type": "note_on", "time": 17, "note": 74, "velocity": 123, "channel": 0}, {"type": "note_off", "time": 37, "note": 74, "velocity": 123, "channel": 0}, {"type": "note_on", "time": 13, "note": 75, "velocity": 116, "channel": 0}, {"type": "note_off", "time": 25, "note": 75, "velocity": 116, "channel": 0}, {"type": "note_on", "time": 15, "note": 76, "velocity": 121, "channel": 0}, {"type": "note_off", "time": 37, "note": 76, "velocity": 121, "channel": 0}, {"type": "note_on", "time": 5, "note": 72, "velocity": 117, "channel": 0}, {"type": "note_off", "time": 48, "note": 72, "velocity": 117, "channel": 0}, {"type": "note_on", "time": 3, "note": 70, "velocity": 117, "channel": 0}, {"type": "note_off", "time": 44, "note": 70, "velocity": 117, "channel": 0}, {"type": "note_on", "time": 7, "note": 67, "velocity": 116, "channel": 0}, {"type": "note_off", "time": 39, "note": 67, "velocity": 116, "channel": 0}, {"type": "note_on", "time": 7, "note": 63, "velocity": 99, "channel": 0}, {"type": "note_off", "time": 29, "note": 63, "velocity": 99, "channel": 0}, {"type": "note_on", "time": 15, "note": 65, "velocity": 121, "channel": 0}, {"type": "note_off", "time": 46, "note": 65, "velocity": 121, "channel": 0}, {"type": "note_on", "time": 0, "note": 70, "velocity": 112, "channel": 0}, {"type": "note_off", "time": 31, "note": 70, "velocity": 112, "channel": 0}, {"type": "note_on", "time": 9, "note": 67, "velocity": 113, "channel": 0}, {"type": "note_off", "time": 35, "note": 67, "velocity": 113, "channel": 0}, {"type": "note_on", "time": 11, "note": 63, "velocity": 109, "channel": 0}, {"type": "note_off", "time": 50, "note": 63, "velocity": 109, "channel": 0}, {"type": "note_on", "time": 0, "note": 65, "velocity": 115, "channel": 0}, {"type": "note_off", "time": 60, "note": 65, "velocity": 115, "channel": 0}, {"type": "note_on", "time": 39, "note": 70, "velocity": 106, "channel": 0}, {"type": "note_off", "time": 39, "note": 70, "velocity": 106, "channel": 0}, {"type": "note_on", "time": 7, "note": 67, "velocity": 107, "channel": 0}, {"type": "note_off", "time": 50, "note": 67, "velocity": 107, "channel": 0}, {"type": "note_on", "time": 35, "note": 67, "velocity": 86, "channel": 0}, {"type": "note_off", "time": 50, "note": 67, "velocity": 86, "channel": 0}, {"type": "note_on", "time": 58, "note": 57, "velocity": 109, "channel": 0}, {"type": "note_off", "time": 126, "note": 57, "velocity": 109, "channel": 0}, {"type": "note_on", "time": 15, "note": 65, "velocity": 92, "channel": 0}, {"type": "note_off", "time": 89, "note": 65, "velocity": 92, "channel": 0}, {"type": "end_of_track", "time": 0}]]}