{"ticks_per_beat": 840, "tracks": [[{"type": "track_name", "name": "Melody", "time": 0}, {"type": "set_tempo", "tempo": 566037, "time": 0}, {"type": "key_signature", "key": "Eb", "time": 0}, {"type": "time_signature", "numerator": 4, "denominator": 4, "clocks_per_click": 24, "notated_32nd_notes_per_beat": 8, "time": 0}, {"type": "note_on", "time": 8443, "note": 62, "velocity": 113, "channel": 0}, {"type": "note_off", "time": 339, "note": 62, "velocity": 113, "channel": 0}, {"type": "note_on", "time": 218, "note": 62, "velocity": 104, "channel": 0}, {"type": "note_off", "time": 775, "note": 62, "velocity": 104, "channel": 0}, {"type": "note_on", "time": 130, "note": 63, "velocity": 116, "channel": 0}, {"type": "note_off", "time": 310, "note": 63, "velocity": 116, "channel": 0}, {"type": "note_on", "time": 534, "note": 56, "velocity": 88, "channel": 0}, {"type": "note_off", "time": 103, "note": 56, "velocity": 88, "channel": 0}, {"type": "note_on", "time": 86, "note": 57, "velocity": 93, "channel": 0}, {"type": "note_off", "time": 982, "note": 57, "velocity": 93, "channel": 0}, {"type": "note_on", "time": 396, "note": 55, "velocity": 87, "channel": 0}, {"type": "note_off", "time": 1171, "note": 55, "velocity": 87, "channel": 0}, {"type": "note_on", "time": 740, "note": 55, "velocity": 97, "channel": 0}, {"type": "note_off", "time": 223, "note": 55, "velocity": 97, "channel": 0}, {"type": "note_on", "time": 68, "note": 57, "velocity": 95, "channel": 0}, {"type": "note_off", "time": 964, "note": 57, "velocity": 95, "channel": 0}, {"type": "note_on", "time": 206, "note": 55, "velocity": 96, "channel": 0}, {"type": "note_off", "time": 172, "note": 55, "velocity": 96, "channel": 0}, {"type": "note_on", "time": 86, "note": 57, "velocity": 102, "channel": 0}, {"type": "note_off", "time": 137, "note": 57, "velocity": 102, "channel": 0}, {"type": "note_on", "time": 17, "note": 55, "velocity": 99, "channel": 0}, {"type": "note_off", "time": 241, "note": 55, "velocity": 99, "channel": 0}, {"type": "note_on", "time": 241, "note": 57, "velocity": 102, "channel": 0}, {"type": "note_off", "time": 689, "note": 57, "velocity": 102, "channel": 0}, {"type": "note_on", "time": 344, "note": 57, "velocity": 104, "channel": 0}, {"type": "note_off", "time": 172, "note": 57, "velocity": 104, "channel": 0}, {"type": "note_on", "time": 17, "note": 55, "velocity": 102, "channel": 0}, {"type": "note_off", "time": 223, "note": 55, "velocity": 102, "channel": 0}, {"type": "note_on", "time": 172, "note": 62, "velocity": 118, "channel": 0}, {"type": "note_off", "time": 327, "note": 62, "velocity": 118, "channel": 0}, {"type": "note_on", "time": 430, "note": 57, "velocity": 96, "channel": 0}, {"type": "note_off", "time": 516, "note": 57, "velocity": 96, "channel": 0}, {"type": "note_on", "time": 1085, "note": 57, "velocity": 105, "channel": 0}, {"type": "note_off", "time": 292, "note": 57, "velocity": 105, "channel": 0}, {"type": "note_on", "time": 51, "note": 55, "velocity": 95, "channel": 0}, {"type": "note_off", "time": 223, "note": 55, "velocity": 95, "channel": 0}, {"type": "note_on", "time": 51, "note": 57, "velocity": 106, "channel": 0}, {"type": "note_off", "time": 292, "note": 57, "velocity": 106, "channel": 0}, {"type": "note_on", "time": 155, "note": 60, "velocity": 109, "channel": 0}, {"type": "note_off", "time": 292, "note": 60, "velocity": 109, "channel": 0}, {"type": "note_on", "time": 51, "note": 62, "velocity": 117, "channel": 0}, {"type": "note_off", "time": 327, "note": 62, "velocity": 117, "channel": 0}, {"type": "note_on", "time": 964, "note": 68, "velocity": 110, "channel": 0}, {"type": "note_off", "time": 258, "note": 68, "velocity": 110, "channel": 0}, {"type": "note_on", "time": 17, "note": 67, "velocity": 102, "channel": 0}, {"type": "note_off", "time": 206, "note": 67, "velocity": 102, "channel": 0}, {"type": "note_on", "time": 34, "note": 68, "velocity": 110, "channel": 0}, {"type": "note_off", "time": 155, "note": 68, "velocity": 110, "channel": 0}, {"type": "note_on", "time": 0, "note": 66, "velocity": 113, "channel": 0}, {"type": "note_off", "time": 241, "note": 66, "velocity": 113, "channel": 0}, {"type": "note_on", "time": 17, "note": 65, "velocity": 119, "channel": 0}, {"type": "note_off", "time": 206, "note": 65, "velocity": 119, "channel": 0}, {"type": "note_on", "time": 0, "note": 64, "velocity": 122, "channel": 0}, {"type": "note_off", "time": 189, "note": 64, "velocity": 122, "channel": 0}, {"type": "note_on", "time": 17, "note": 63, "velocity": 119, "channel": 0}, {"type": "note_off", "time": 172, "note": 63, "velocity": 119, "channel": 0}, {"type": "note_on", "time": 17, "note": 65, "velocity": 114, "channel": 0}, {"type": "note_off", "time": 206, "note": 65, "velocity": 114, "channel": 0}, {"type": "note_on", "time": 23, "note": 62, "velocity": 120, "channel": 0}, {"type": "note_off", "time": 193, "note": 62, "velocity": 120, "channel": 0}, {"type": "note_on", "time": 24, "note": 61, "velocity": 119, "channel": 0}, {"type": "note_off", "time": 181, "note": 61, "velocity": 119, "channel": 0}, {"type": "note_on", "time": 48, "note": 60, "velocity": 110, "channel": 0}, {"type": "note_off", "time": 193, "note": 60, "velocity": 110, "channel": 0}, {"type": "note_on", "time": 0, "note": 58, "velocity": 103, "channel": 0}, {"type": "note_on", "time": 205, "note": 57, "velocity": 101, "channel": 0}, {"type": "note_off", "time": 0, "note": 58, "velocity": 103, "channel": 0}, {"type": "note_off", "time": 169, "note": 57, "velocity": 101, "channel": 0}, {"type": "note_on", "time": 0, "note": 55, "velocity": 104, "channel": 0}, {"type": "note_off", "time": 218, "note": 55, "velocity": 104, "channel": 0}, {"type": "note_on", "time": 24, "note": 53, "velocity": 96, "channel": 0}, {"type": "note_off", "time": 278, "note": 53, "velocity": 96, "channel": 0}, {"type": "note_on", "time": 1805, "note": 74, "velocity": 94, "channel": 0}, {"type": "note_off", "time": 181, "note": 74, "velocity": 94, "channel": 0}, {"type": "note_on", "time": 0, "note": 72, "velocity": 103, "channel": 0}, {"type": "note_off", "time": 181, "note": 72, "velocity": 103, "channel": 0}, {"type": "note_on", "time": 48, "note": 70, "velocity": 101, "channel": 0}, {"type": "note_off", "time": 230, "note": 70, "velocity": 101, "channel": 0}, {"type": "note_on", "time": 12, "note": 71, "velocity": 107, "channel": 0}, {"type": "note_off", "time": 181, "note": 71, "velocity": 107, "channel": 0}, {"type": "note_on", "time": 60, "note": 68, "velocity": 107, "channel": 0}, {"type": "note_off", "time": 218, "note": 68, "velocity": 107, "channel": 0}, {"type": "note_on", "time": 24, "note": 70, "velocity": 113, "channel": 0}, {"type": "note_off", "time": 157, "note": 70, "velocity": 113, "channel": 0}, {"type": "note_on", "time": 36, "note": 68, "velocity": 114, "channel": 0}, {"type": "note_off", "time": 157, "note": 68, "velocity": 114, "channel": 0}, {"type": "note_on", "time": 48, "note": 66, "velocity": 114, "channel": 0}, {"type": "note_off", "time": 193, "note": 66, "velocity": 114, "channel": 0}, {"type": "note_on", "time": 24, "note": 65, "velocity": 113, "channel": 0}, {"type": "note_off", "time": 193, "note": 65, "velocity": 113, "channel": 0}, {"type": "note_on", "time": 12, "note": 67, "velocity": 114, "channel": 0}, {"type": "note_off", "time": 193, "note": 67, "velocity": 114, "channel": 0}, {"type": "note_on", "time": 0, "note": 64, "velocity": 122, "channel": 0}, {"type": "note_off", "time": 230, "note": 64, "velocity": 122, "channel": 0}, {"type": "note_on", "time": 36, "note": 65, "velocity": 115, "channel": 0}, {"type": "note_off", "time": 242, "note": 65, "velocity": 115, "channel": 0}, {"type": "note_on", "time": 48, "note": 66, "velocity": 110, "channel": 0}, {"type": "note_off", "time": 205, "note": 66, "velocity": 110, "channel": 0}, {"type": "note_on", "time": 24, "note": 65, "velocity": 105, "channel": 0}, {"type": "note_off", "time": 84, "note": 65, "velocity": 105, "channel": 0}, {"type": "note_on", "time": 0, "note": 62, "velocity": 107, "channel": 0}, {"type": "note_off", "time": 181, "note": 62, "velocity": 107, "channel": 0}, {"type": "note_on", "time": 12, "note": 65, "velocity": 112, "channel": 0}, {"type": "note_off", "time": 193, "note": 65, "velocity": 112, "channel": 0}, {"type": "note_on", "time": 24, "note": 63, "velocity": 107, "channel": 0}, {"type": "note_off", "time": 193, "note": 63, "velocity": 107, "channel": 0}, {"type": "note_on", "time": 60, "note": 61, "velocity": 107, "channel": 0}, {"type": "note_off", "time": 121, "note": 61, "velocity": 107, "channel": 0}, {"type": "note_on", "time": 0, "note": 60, "velocity": 99, "channel": 0}, {"type": "note_off", "time": 181, "note": 60, "velocity": 99, "channel": 0}, {"type": "note_on", "time": 60, "note": 58, "velocity": 94, "channel": 0}, {"type": "note_off", "time": 145, "note": 58, "velocity": 94, "channel": 0}, {"type": "note_on", "time": 12, "note": 56, "velocity": 99, "channel": 0}, {"type": "note_off", "time": 181, "note": 56, "velocity": 99, "channel": 0}, {"type": "note_on", "time": 2374, "note": 75, "velocity": 101, "channel": 0}, {"type": "note_off", "time": 169, "note": 75, "velocity": 101, "channel": 0}, {"type": "note_on", "time": 72, "note": 77, "velocity": 91, "channel": 0}, {"type": "note_off", "time": 133, "note": 77, "velocity": 91, "channel": 0}, {"type": "note_on", "time": 12, "note": 81, "velocity": 105, "channel": 0}, {"type": "note_off", "time": 121, "note": 81, "velocity": 105, "channel": 0}, {"type": "note_on", "time": 24, "note": 79, "velocity": 98, "channel": 0}, {"type": "note_off", "time": 193, "note": 79, "velocity": 98, "channel": 0}, {"type": "note_on", "time": 48, "note": 73, "velocity": 94, "channel": 0}, {"type": "note_off", "time": 205, "note": 73, "velocity": 94, "channel": 0}, {"type": "note_on", "time": 72, "note": 71, "velocity": 109, "channel": 0}, {"type": "note_off", "time": 230, "note": 71, "velocity": 109, "channel": 0}, {"type": "note_on", "time": 24, "note": 69, "velocity": 109, "channel": 0}, {"type": "note_off", "time": 230, "note": 69, "velocity": 109, "channel": 0}, {"type": "note_on", "time": 0, "note": 71, "velocity": 110, "channel": 0}, {"type": "note_off", "time": 145, "note": 71, "velocity": 110, "channel": 0}, {"type": "note_on", "time": 24, "note": 68, "velocity": 104, "channel": 0}, {"type": "note_off", "time": 193, "note": 68, "velocity": 104, "channel": 0}, {"type": "note_on", "time": 12, "note": 67, "velocity": 112, "channel": 0}, {"type": "note_off", "time": 193, "note": 67, "velocity": 112, "channel": 0}, {"type": "note_on", "time": 48, "note": 66, "velocity": 115, "channel": 0}, {"type": "note_off", "time": 96, "note": 66, "velocity": 115, "channel": 0}, {"type": "note_on", "time": 24, "note": 65, "velocity": 117, "channel": 0}, {"type": "note_off", "time": 133, "note": 65, "velocity": 117, "channel": 0}, {"type": "note_on", "time": 36, "note": 69, "velocity": 121, "channel": 0}, {"type": "note_off", "time": 121, "note": 69, "velocity": 121, "channel": 0}, {"type": "note_on", "time": 0, "note": 65, "velocity": 113, "channel": 0}, {"type": "note_off", "time": 169, "note": 65, "velocity": 113, "channel": 0}, {"type": "note_on", "time": 48, "note": 63, "velocity": 114, "channel": 0}, {"type": "note_off", "time": 145, "note": 63, "velocity": 114, "channel": 0}, {"type": "note_on", "time": 72, "note": 63, "velocity": 105, "channel": 0}, {"type": "note_off", "time": 121, "note": 63, "velocity": 105, "channel": 0}, {"type": "note_on", "time": 24, "note": 66, "velocity": 105, "channel": 0}, {"type": "note_off", "time": 181, "note": 66, "velocity": 105, "channel": 0}, {"type": "note_on", "time": 60, "note": 64, "velocity": 109, "channel": 0}, {"type": "note_off", "time": 181, "note": 64, "velocity": 109, "channel": 0}, {"type": "note_on", "time": 0, "note": 61, "velocity": 101, "channel": 0}, {"type": "note_off", "time": 193, "note": 61, "velocity": 101, "channel": 0}, {"type": "note_on", "time": 811, "note": 68, "velocity": 106, "channel": 0}, {"type": "note_off", "time": 230, "note": 68, "velocity": 106, "channel": 0}, {"type": "note_on", "time": 48, "note": 66, "velocity": 114, "channel": 0}, {"type": "note_off", "time": 96, "note": 66, "velocity": 114, "channel": 0}, {"type": "note_on", "time": 96, "note": 66, "velocity": 108, "channel": 0}, {"type": "note_off", "time": 205, "note": 66, "velocity": 108, "channel": 0}, {"type": "note_on", "time": 48, "note": 63, "velocity": 116, "channel": 0}, {"type": "note_off", "time": 169, "note": 63, "velocity": 116, "channel": 0}, {"type": "note_on", "time": 811, "note": 71, "velocity": 113, "channel": 0}, {"type": "note_off", "time": 205, "note": 71, "velocity": 113, "channel": 0}, {"type": "note_on", "time": 218, "note": 81, "velocity": 76, "channel": 0}, {"type": "note_off", "time": 157, "note": 81, "velocity": 76, "channel": 0}, {"type": "note_on", "time": 24, "note": 83, "velocity": 103, "channel": 0}, {"type": "note_off", "time": 145, "note": 83, "velocity": 103, "channel": 0}, {"type": "note_on", "time": 12, "note": 82, "velocity": 87, "channel": 0}, {"type": "note_off", "time": 96, "note": 82, "velocity": 87, "channel": 0}, {"type": "note_on", "time": 1053, "note": 70, "velocity": 96, "channel": 0}, {"type": "note_off", "time": 145, "note": 70, "velocity": 96, "channel": 0}, {"type": "note_on", "time": 0, "note": 71, "velocity": 110, "channel": 0}, {"type": "note_off", "time": 411, "note": 71, "velocity": 110, "channel": 0}, {"type": "note_on", "time": 48, "note": 70, "velocity": 108, "channel": 0}, {"type": "note_off", "time": 181, "note": 70, "velocity": 108, "channel": 0}, {"type": "note_on", "time": 254, "note": 69, "velocity": 99, "channel": 0}, {"type": "note_off", "time": 96, "note": 69, "velocity": 99, "channel": 0}, {"type": "note_on", "time": 36, "note": 70, "velocity": 118, "channel": 0}, {"type": "note_off", "time": 424, "note": 70, "velocity": 118, "channel": 0}, {"type": "note_on", "time": 109, "note": 67, "velocity": 104, "channel": 0}, {"type": "note_off", "time": 981, "note": 67, "velocity": 104, "channel": 0}, {"type": "note_on", "time": 60, "note": 65, "velocity": 100, "channel": 0}, {"type": "note_off", "time": 181, "note": 65, "velocity": 100, "channel": 0}, {"type": "note_on", "time": 0, "note": 67, "velocity": 89, "channel": 0}, {"type": "note_off", "time": 121, "note": 67, "velocity": 89, "channel": 0}, {"type": "note_on", "time": 2035, "note": 57, "velocity": 101, "channel": 0}, {"type": "note_off", "time": 193, "note": 57, "velocity": 101, "channel": 0}, {"type": "note_on", "time": 12, "note": 60, "velocity": 112, "channel": 0}, {"type": "note_off", "time": 314, "note": 60, "velocity": 112, "channel": 0}, {"type": "note_on", "time": 48, "note": 57, "velocity": 100, "channel": 0}, {"type": "note_on", "time": 133, "note": 60, "velocity": 109, "channel": 0}, {"type": "note_off", "time": 0, "note": 57, "velocity": 100, "channel": 0}, {"type": "note_off", "time": 617, "note": 60, "velocity": 109, "channel": 0}, {"type": "note_on", "time": 629, "note": 63, "velocity": 115, "channel": 0}, {"type": "note_on", "time": 193, "note": 65, "velocity": 122, "channel": 0}, {"type": "note_off", "time": 0, "note": 63, "velocity": 115, "channel": 0}, {"type": "note_off", "time": 278, "note": 65, "velocity": 122, "channel": 0}, {"type": "note_on", "time": 218, "note": 65, "velocity": 124, "channel": 0}, {"type": "note_off", "time": 920, "note": 65, "velocity": 124, "channel": 0}, {"type": "note_on", "time": 0, "note": 63, "velocity": 111, "channel": 0}, {"type": "note_off", "time": 230, "note": 63, "velocity": 111, "channel": 0}, {"type": "note_on", "time": 0, "note": 60, "velocity": 102, "channel": 0}, {"type": "note_off", "time": 205, "note": 60, "velocity": 102, "channel": 0}, {"type": "note_on", "time": 1247, "note": 66, "velocity": 118, "channel": 0}, {"type": "note_off", "time": 230, "note": 66, "velocity": 118, "channel": 0}, {"type": "note_on", "time": 0, "note": 65, "velocity": 115, "channel": 0}, {"type": "note_off", "time": 145, "note": 65, "velocity": 115, "channel": 0}, {"type": "note_on", "time": 96, "note": 65, "velocity": 117, "channel": 0}, {"type": "note_off", "time": 157, "note": 65, "velocity": 117, "channel": 0}, {"type": "note_on", "time": 24, "note": 63, "velocity": 116, "channel": 0}, {"type": "note_off", "time": 121, "note": 63, "velocity": 116, "channel": 0}, {"type": "note_on", "time": 60, "note": 60, "velocity": 105, "channel": 0}, {"type": "note_off", "time": 193, "note": 60, "velocity": 105, "channel": 0}, {"type": "note_on", "time": 1502, "note": 69, "velocity": 106, "channel": 0}, {"type": "note_off", "time": 230, "note": 69, "velocity": 106, "channel": 0}, {"type": "note_on", "time": 0, "note": 71, "velocity": 101, "channel": 0}, {"type": "note_off", "time": 193, "note": 71, "velocity": 101, "channel": 0}, {"type": "note_on", "time": 24, "note": 69, "velocity": 103, "channel": 0}, {"type": "note_off", "time": 193, "note": 69, "velocity": 103, "channel": 0}, {"type": "note_on", "time": 12, "note": 66, "velocity": 117, "channel": 0}, {"type": "note_off", "time": 387, "note": 66, "velocity": 117, "channel": 0}, {"type": "note_on", "time": 24, "note": 67, "velocity": 115, "channel": 0}, {"type": "note_off", "time": 193, "note": 67, "velocity": 115, "channel": 0}, {"type": "note_on", "time": 36, "note": 66, "velocity": 115, "channel": 0}, {"type": "note_off", "time": 581, "note": 66, "velocity": 115, "channel": 0}, {"type": "note_on", "time": 48, "note": 65, "velocity": 114, "channel": 0}, {"type": "note_off", "time": 169, "note": 65, "velocity": 114, "channel": 0}, {"type": "note_on", "time": 84, "note": 64, "velocity": 121, "channel": 0}, {"type": "note_off", "time": 121, "note": 64, "velocity": 121, "channel": 0}, {"type": "note_on", "time": 36, "note": 67, "velocity": 98, "channel": 0}, {"type": "note_off", "time": 218, "note": 67, "velocity": 98, "channel": 0}, {"type": "note_on", "time": 48, "note": 65, "velocity": 109, "channel": 0}, {"type": "note_off", "time": 145, "note": 65, "velocity": 109, "channel": 0}, {"type": "note_on", "time": 48, "note": 64, "velocity": 104, "channel": 0}, {"type": "note_off", "time": 169, "note": 64, "velocity": 104, "channel": 0}, {"type": "note_on", "time": 60, "note": 66, "velocity": 99, "channel": 0}, {"type": "note_off", "time": 193, "note": 66, "velocity": 99, "channel": 0}, {"type": "note_on", "time": 48, "note": 69, "velocity": 98, "channel": 0}, {"type": "note_off", "time": 72, "note": 69, "velocity": 98, "channel": 0}, {"type": "note_on", "time": 60, "note": 70, "velocity": 96, "channel": 0}, {"type": "note_off", "time": 145, "note": 70, "velocity": 96, "channel": 0}, {"type": "note_on", "time": 48, "note": 71, "velocity": 84, "channel": 0}, {"type": "note_off", "time": 133, "note": 71, "velocity": 84, "channel": 0}, {"type": "note_on", "time": 60, "note": 72, "velocity": 110, "channel": 0}, {"type": "note_off", "time": 193, "note": 72, "velocity": 110, "channel": 0}, {"type": "note_on", "time": 60, "note": 74, "velocity": 97, "channel": 0}, {"type": "note_off", "time": 133, "note": 74, "velocity": 97, "channel": 0}, {"type": "note_on", "time": 72, "note": 72, "velocity": 107, "channel": 0}, {"type": "note_off", "time": 133, "note": 72, "velocity": 107, "channel": 0}, {"type": "note_on", "time": 0, "note": 68, "velocity": 92, "channel": 0}, {"type": "note_on", "time": 205, "note": 69, "velocity": 94, "channel": 0}, {"type": "note_off", "time": 0, "note": 68, "velocity": 92, "channel": 0}, {"type": "note_off", "time": 266, "note": 69, "velocity": 94, "channel": 0}, {"type": "note_on", "time": 1853, "note": 74, "velocity": 89, "channel": 0}, {"type": "note_off", "time": 254, "note": 74, "velocity": 89, "channel": 0}, {"type": "note_on", "time": 12, "note": 72, "velocity": 111, "channel": 0}, {"type": "note_off", "time": 169, "note": 72, "velocity": 111, "channel": 0}, {"type": "note_on", "time": 72, "note": 70, "velocity": 104, "channel": 0}, {"type": "note_off", "time": 290, "note": 70, "velocity": 104, "channel": 0}, {"type": "note_on", "time": 36, "note": 71, "velocity": 105, "channel": 0}, {"type": "note_off", "time": 121, "note": 71, "velocity": 105, "channel": 0}, {"type": "note_on", "time": 12, "note": 68, "velocity": 95, "channel": 0}, {"type": "note_off", "time": 302, "note": 68, "velocity": 95, "channel": 0}, {"type": "note_on", "time": 93, "note": 70, "velocity": 114, "channel": 0}, {"type": "note_off", "time": 109, "note": 70, "velocity": 114, "channel": 0}, {"type": "note_on", "time": 3, "note": 68, "velocity": 113, "channel": 0}, {"type": "note_off", "time": 230, "note": 68, "velocity": 113, "channel": 0}, {"type": "note_on", "time": 24, "note": 66, "velocity": 117, "channel": 0}, {"type": "note_off", "time": 242, "note": 66, "velocity": 117, "channel": 0}, {"type": "note_on", "time": 12, "note": 65, "velocity": 113, "channel": 0}, {"type": "note_off", "time": 363, "note": 65, "velocity": 113, "channel": 0}, {"type": "note_on", "time": 32, "note": 58, "velocity": 110, "channel": 0}, {"type": "note_off", "time": 113, "note": 58, "velocity": 110, "channel": 0}, {"type": "note_on", "time": 0, "note": 57, "velocity": 99, "channel": 0}, {"type": "note_off", "time": 327, "note": 57, "velocity": 99, "channel": 0}, {"type": "note_on", "time": 96, "note": 64, "velocity": 126, "channel": 0}, {"type": "note_off", "time": 399, "note": 64, "velocity": 126, "channel": 0}, {"type": "note_on", "time": 0, "note": 67, "velocity": 111, "channel": 0}, {"type": "note_off", "time": 230, "note": 67, "velocity": 111, "channel": 0}, {"type": "note_on", "time": 0, "note": 65, "velocity": 113, "channel": 0}, {"type": "note_off", "time": 205, "note": 65, "velocity": 113, "channel": 0}, {"type": "note_on", "time": 60, "note": 63, "velocity": 118, "channel": 0}, {"type": "note_off", "time": 169, "note": 63, "velocity": 118, "channel": 0}, {"type": "note_on", "time": 24, "note": 66, "velocity": 111, "channel": 0}, {"type": "note_off", "time": 157, "note": 66, "velocity": 111, "channel": 0}, {"type": "note_on", "time": 36, "note": 62, "velocity": 118, "channel": 0}, {"type": "note_off", "time": 181, "note": 62, "velocity": 118, "channel": 0}, {"type": "note_on", "time": 48, "note": 61, "velocity": 110, "channel": 0}, {"type": "note_off", "time": 169, "note": 61, "velocity": 110, "channel": 0}, {"type": "note_on", "time": 48, "note": 59, "velocity": 90, "channel": 0}, {"type": "note_off", "time": 557, "note": 59, "velocity": 90, "channel": 0}, {"type": "note_on", "time": 1453, "note": 70, "velocity": 99, "channel": 0}, {"type": "note_off", "time": 205, "note": 70, "velocity": 99, "channel": 0}, {"type": "note_on", "time": 60, "note": 74, "velocity": 96, "channel": 0}, {"type": "note_off", "time": 205, "note": 74, "velocity": 96, "channel": 0}, {"type": "note_on", "time": 24, "note": 70, "velocity": 109, "channel": 0}, {"type": "note_off", "time": 363, "note": 70, "velocity": 109, "channel": 0}, {"type": "note_on", "time": 12, "note": 68, "velocity": 110, "channel": 0}, {"type": "note_off", "time": 254, "note": 68, "velocity": 110, "channel": 0}, {"type": "note_on", "time": 12, "note": 71, "velocity": 107, "channel": 0}, {"type": "note_off", "time": 218, "note": 71, "velocity": 107, "channel": 0}, {"type": "note_on", "time": 48, "note": 69, "velocity": 108, "channel": 0}, {"type": "note_off", "time": 302, "note": 69, "velocity": 108, "channel": 0}, {"type": "note_on", "time": 48, "note": 66, "velocity": 107, "channel": 0}, {"type": "note_off", "time": 266, "note": 66, "velocity": 107, "channel": 0}, {"type": "note_on", "time": 0, "note": 69, "velocity": 102, "channel": 0}, {"type": "note_off", "time": 218, "note": 69, "velocity": 102, "channel": 0}, {"type": "note_on", "time": 60, "note": 67, "velocity": 114, "channel": 0}, {"type": "note_off", "time": 266, "note": 67, "velocity": 114, "channel": 0}, {"type": "note_on", "time": 48, "note": 64, "velocity": 124, "channel": 0}, {"type": "note_off", "time": 230, "note": 64, "velocity": 124, "channel": 0}, {"type": "note_on", "time": 0, "note": 67, "velocity": 110, "channel": 0}, {"type": "note_off", "time": 169, "note": 67, "velocity": 110, "channel": 0}, {"type": "note_on", "time": 36, "note": 65, "velocity": 112, "channel": 0}, {"type": "note_off", "time": 205, "note": 65, "velocity": 112, "channel": 0}, {"type": "note_on", "time": 0, "note": 61, "velocity": 116, "channel": 0}, {"type": "note_off", "time": 181, "note": 61, "velocity": 116, "channel": 0}, {"type": "note_on", "time": 0, "note": 58, "velocity": 97, "channel": 0}, {"type": "note_off", "time": 254, "note": 58, "velocity": 97, "channel": 0}, {"type": "note_on", "time": 1005, "note": 68, "velocity": 111, "channel": 0}, {"type": "note_on", "time": 230, "note": 67, "velocity": 111, "channel": 0}, {"type": "note_off", "time": 0, "note": 68, "velocity": 111, "channel": 0}, {"type": "note_off", "time": 145, "note": 67, "velocity": 111, "channel": 0}, {"type": "note_on", "time": 36, "note": 66, "velocity": 103, "channel": 0}, {"type": "note_off", "time": 218, "note": 66, "velocity": 103, "channel": 0}, {"type": "note_on", "time": 36, "note": 68, "velocity": 105, "channel": 0}, {"type": "note_off", "time": 169, "note": 68, "velocity": 105, "channel": 0}, {"type": "note_on", "time": 12, "note": 64, "velocity": 118, "channel": 0}, {"type": "note_off", "time": 145, "note": 64, "velocity": 118, "channel": 0}, {"type": "note_on", "time": 24, "note": 66, "velocity": 108, "channel": 0}, {"type": "note_off", "time": 193, "note": 66, "velocity": 108, "channel": 0}, {"type": "note_on", "time": 24, "note": 63, "velocity": 111, "channel": 0}, {"type": "note_off", "time": 169, "note": 63, "velocity": 111, "channel": 0}, {"type": "note_on", "time": 20, "note": 68, "velocity": 91, "channel": 0}, {"type": "note_off", "time": 133, "note": 68, "velocity": 91, "channel": 0}, {"type": "note_on", "time": 52, "note": 67, "velocity": 115, "channel": 0}, {"type": "note_off", "time": 278, "note": 67, "velocity": 115, "channel": 0}, {"type": "note_on", "time": 0, "note": 69, "velocity": 100, "channel": 0}, {"type": "note_off", "time": 157, "note": 69, "velocity": 100, "channel": 0}, {"type": "note_on", "time": 48, "note": 68, "velocity": 107, "channel": 0}, {"type": "note_off", "time": 133, "note": 68, "velocity": 107, "channel": 0}, {"type": "note_on", "time": 181, "note": 70, "velocity": 109, "channel": 0}, {"type": "note_off", "time": 181, "note": 70, "velocity": 109, "channel": 0}, {"type": "note_on", "time": 0, "note": 71, "velocity": 107, "channel": 0}, {"type": "note_off", "time": 205, "note": 71, "velocity": 107, "channel": 0}, {"type": "note_on", "time": 533, "note": 68, "velocity": 111, "channel": 0}, {"type": "note_off", "time": 169, "note": 68, "velocity": 111, "channel": 0}, {"type": "note_on", "time": 12, "note": 67, "velocity": 117, "channel": 0}, {"type": "note_off", "time": 169, "note": 67, "velocity": 117, "channel": 0}, {"type": "note_on", "time": 24, "note": 66, "velocity": 106, "channel": 0}, {"type": "note_off", "time": 181, "note": 66, "velocity": 106, "channel": 0}, {"type": "note_on", "time": 12, "note": 71, "velocity": 103, "channel": 0}, {"type": "note_off", "time": 157, "note": 71, "velocity": 103, "channel": 0}, {"type": "note_on", "time": 36, "note": 63, "velocity": 118, "channel": 0}, {"type": "note_off", "time": 230, "note": 63, "velocity": 118, "channel": 0}, {"type": "note_on", "time": 24, "note": 66, "velocity": 110, "channel": 0}, {"type": "note_off", "time": 230, "note": 66, "velocity": 110, "channel": 0}, {"type": "note_on", "time": 24, "note": 63, "velocity": 116, "channel": 0}, {"type": "note_off", "time": 193, "note": 63, "velocity": 116, "channel": 0}, {"type": "note_on", "time": 0, "note": 69, "velocity": 100, "channel": 0}, {"type": "note_off", "time": 205, "note": 69, "velocity": 100, "channel": 0}, {"type": "note_on", "time": 0, "note": 68, "velocity": 97, "channel": 0}, {"type": "note_off", "time": 193, "note": 68, "velocity": 97, "channel": 0}, {"type": "note_on", "time": 48, "note": 69, "velocity": 105, "channel": 0}, {"type": "note_off", "time": 181, "note": 69, "velocity": 105, "channel": 0}, {"type": "note_on", "time": 24, "note": 70, "velocity": 111, "channel": 0}, {"type": "note_off", "time": 181, "note": 70, "velocity": 111, "channel": 0}, {"type": "note_on", "time": 0, "note": 73, "velocity": 103, "channel": 0}, {"type": "note_off", "time": 169, "note": 73, "velocity": 103, "channel": 0}, {"type": "note_on", "time": 811, "note": 72, "velocity": 110, "channel": 0}, {"type": "note_off", "time": 205, "note": 72, "velocity": 110, "channel": 0}, {"type": "note_on", "time": 60, "note": 71, "velocity": 107, "channel": 0}, {"type": "note_off", "time": 181, "note": 71, "velocity": 107, "channel": 0}, {"type": "note_on", "time": 0, "note": 68, "velocity": 99, "channel": 0}, {"type": "note_off", "time": 266, "note": 68, "velocity": 99, "channel": 0}, {"type": "note_on", "time": 12, "note": 70, "velocity": 106, "channel": 0}, {"type": "note_off", "time": 133, "note": 70, "velocity": 106, "channel": 0}, {"type": "note_on", "time": 0, "note": 75, "velocity": 110, "channel": 0}, {"type": "note_off", "time": 193, "note": 75, "velocity": 110, "channel": 0}, {"type": "note_on", "time": 96, "note": 79, "velocity": 89, "channel": 0}, {"type": "note_off", "time": 254, "note": 79, "velocity": 89, "channel": 0}, {"type": "note_on", "time": 99, "note": 83, "velocity": 96, "channel": 0}, {"type": "note_off", "time": 266, "note": 83, "velocity": 96, "channel": 0}, {"type": "note_on", "time": 17, "note": 88, "velocity": 84, "channel": 0}, {"type": "note_off", "time": 157, "note": 88, "velocity": 84, "channel": 0}, {"type": "note_on", "time": 173, "note": 84, "velocity": 106, "channel": 0}, {"type": "note_off", "time": 157, "note": 84, "velocity": 106, "channel": 0}, {"type": "note_on", "time": 24, "note": 88, "velocity": 80, "channel": 0}, {"type": "note_off", "time": 218, "note": 88, "velocity": 80, "channel": 0}, {"type": "note_on", "time": 12, "note": 86, "velocity": 89, "channel": 0}, {"type": "note_off", "time": 133, "note": 86, "velocity": 89, "channel": 0}, {"type": "note_on", "time": 12, "note": 82, "velocity": 97, "channel": 0}, {"type": "note_off", "time": 133, "note": 82, "velocity": 97, "channel": 0}, {"type": "note_on", "time": 24, "note": 83, "velocity": 108, "channel": 0}, {"type": "note_off", "time": 121, "note": 83, "velocity": 108, "channel": 0}, {"type": "note_on", "time": 60, "note": 72, "velocity": 114, "channel": 0}, {"type": "note_off", "time": 242, "note": 72, "velocity": 114, "channel": 0}, {"type": "note_on", "time": 24, "note": 74, "velocity": 107, "channel": 0}, {"type": "note_off", "time": 133, "note": 74, "velocity": 107, "channel": 0}, {"type": "note_on", "time": 0, "note": 71, "velocity": 115, "channel": 0}, {"type": "note_off", "time": 266, "note": 71, "velocity": 115, "channel": 0}, {"type": "note_on", "time": 157, "note": 70, "velocity": 109, "channel": 0}, {"type": "note_off", "time": 181, "note": 70, "velocity": 109, "channel": 0}, {"type": "note_on", "time": 24, "note": 71, "velocity": 100, "channel": 0}, {"type": "note_off", "time": 193, "note": 71, "velocity": 100, "channel": 0}, {"type": "note_on", "time": 0, "note": 68, "velocity": 117, "channel": 0}, {"type": "note_off", "time": 411, "note": 68, "velocity": 117, "channel": 0}, {"type": "note_on", "time": 48, "note": 67, "velocity": 104, "channel": 0}, {"type": "note_off", "time": 327, "note": 67, "velocity": 104, "channel": 0}, {"type": "note_on", "time": 48, "note": 66, "velocity": 105, "channel": 0}, {"type": "note_off", "time": 339, "note": 66, "velocity": 105, "channel": 0}, {"type": "note_on", "time": 920, "note": 68, "velocity": 115, "channel": 0}, {"type": "note_off", "time": 290, "note": 68, "velocity": 115, "channel": 0}, {"type": "note_on", "time": 0, "note": 67, "velocity": 104, "channel": 0}, {"type": "note_off", "time": 145, "note": 67, "velocity": 104, "channel": 0}, {"type": "note_on", "time": 0, "note": 66, "velocity": 110, "channel": 0}, {"type": "note_off", "time": 278, "note": 66, "velocity": 110, "channel": 0}, {"type": "note_on", "time": 0, "note": 70, "velocity": 110, "channel": 0}, {"type": "note_off", "time": 181, "note": 70, "velocity": 110, "channel": 0}, {"type": "note_on", "time": 0, "note": 65, "velocity": 116, "channel": 0}, {"type": "note_off", "time": 145, "note": 65, "velocity": 116, "channel": 0}, {"type": "note_on", "time": 60, "note": 63, "velocity": 93, "channel": 0}, {"type": "note_off", "time": 157, "note": 63, "velocity": 93, "channel": 0}, {"type": "note_on", "time": 36, "note": 62, "velocity": 107, "channel": 0}, {"type": "note_off", "time": 230, "note": 62, "velocity": 107, "channel": 0}, {"type": "note_on", "time": 0, "note": 67, "velocity": 10, "channel": 0}, {"type": "note_off", "time": 230, "note": 67, "velocity": 10, "channel": 0}, {"type": "note_on", "time": 12, "note": 65, "velocity": 10, "channel": 0}, {"type": "note_off", "time": 314, "note": 65, "velocity": 10, "channel": 0}, {"type": "note_on", "time": 84, "note": 66, "velocity": 110, "channel": 0}, {"type": "note_off", "time": 218, "note": 66, "velocity": 110, "channel": 0}, {"type": "note_on", "time": 36, "note": 67, "velocity": 103, "channel": 0}, {"type": "note_off", "time": 72, "note": 67, "velocity": 103, "channel": 0}, {"type": "note_on", "time": 60, "note": 68, "velocity": 114, "channel": 0}, {"type": "note_off", "time": 205, "note": 68, "velocity": 114, "channel": 0}, {"type": "note_on", "time": 642, "note": 68, "velocity": 126, "channel": 0}, {"type": "note_off", "time": 218, "note": 68, "velocity": 126, "channel": 0}, {"type": "note_on", "time": 0, "note": 67, "velocity": 118, "channel": 0}, {"type": "note_off", "time": 133, "note": 67, "velocity": 118, "channel": 0}, {"type": "note_on", "time": 48, "note": 66, "velocity": 112, "channel": 0}, {"type": "note_off", "time": 254, "note": 66, "velocity": 112, "channel": 0}, {"type": "note_on", "time": 0, "note": 71, "velocity": 108, "channel": 0}, {"type": "note_off", "time": 193, "note": 71, "velocity": 108, "channel": 0}, {"type": "note_on", "time": 12, "note": 65, "velocity": 111, "channel": 0}, {"type": "note_off", "time": 193, "note": 65, "velocity": 111, "channel": 0}, {"type": "note_on", "time": 12, "note": 66, "velocity": 111, "channel": 0}, {"type": "note_off", "time": 193, "note": 66, "velocity": 111, "channel": 0}, {"type": "note_on", "time": 24, "note": 64, "velocity": 114, "channel": 0}, {"type": "note_off", "time": 218, "note": 64, "velocity": 114, "channel": 0}, {"type": "note_on", "time": 0, "note": 66, "velocity": 107, "channel": 0}, {"type": "note_off", "time": 84, "note": 66, "velocity": 107, "channel": 0}, {"type": "note_on", "time": 96, "note": 68, "velocity": 119, "channel": 0}, {"type": "note_off", "time": 193, "note": 68, "velocity": 119, "channel": 0}, {"type": "note_on", "time": 24, "note": 70, "velocity": 106, "channel": 0}, {"type": "note_off", "time": 133, "note": 70, "velocity": 106, "channel": 0}, {"type": "note_on", "time": 12, "note": 68, "velocity": 99, "channel": 0}, {"type": "note_off", "time": 290, "note": 68, "velocity": 99, "channel": 0}, {"type": "note_on", "time": 0, "note": 71, "velocity": 107, "channel": 0}, {"type": "note_off", "time": 121, "note": 71, "velocity": 107, "channel": 0}, {"type": "note_on", "time": 121, "note": 68, "velocity": 110, "channel": 0}, {"type": "note_off", "time": 157, "note": 68, "velocity": 110, "channel": 0}, {"type": "note_on", "time": 36, "note": 70, "velocity": 106, "channel": 0}, {"type": "note_off", "time": 169, "note": 70, "velocity": 106, "channel": 0}, {"type": "note_on", "time": 12, "note": 68, "velocity": 98, "channel": 0}, {"type": "note_off", "time": 290, "note": 68, "velocity": 98, "channel": 0}, {"type": "note_on", "time": 0, "note": 70, "velocity": 105, "channel": 0}, {"type": "note_off", "time": 109, "note": 70, "velocity": 105, "channel": 0}, {"type": "note_on", "time": 24, "note": 71, "velocity": 108, "channel": 0}, {"type": "note_off", "time": 218, "note": 71, "velocity": 108, "channel": 0}, {"type": "note_on", "time": 24, "note": 70, "velocity": 90, "channel": 0}, {"type": "note_off", "time": 133, "note": 70, "velocity": 90, "channel": 0}, {"type": "note_on", "time": 48, "note": 71, "velocity": 115, "channel": 0}, {"type": "note_off", "time": 230, "note": 71, "velocity": 115, "channel": 0}, {"type": "note_on", "time": 72, "note": 67, "velocity": 115, "channel": 0}, {"type": "note_off", "time": 193, "note": 67, "velocity": 115, "channel": 0}, {"type": "note_on", "time": 0, "note": 66, "velocity": 105, "channel": 0}, {"type": "note_off", "time": 218, "note": 66, "velocity": 105, "channel": 0}, {"type": "note_on", "time": 0, "note": 70, "velocity": 107, "channel": 0}, {"type": "note_off", "time": 169, "note": 70, "velocity": 107, "channel": 0}, {"type": "note_on", "time": 0, "note": 63, "velocity": 114, "channel": 0}, {"type": "note_off", "time": 339, "note": 63, "velocity": 114, "channel": 0}, {"type": "note_on", "time": 1017, "note": 60, "velocity": 117, "channel": 0}, {"type": "note_off", "time": 205, "note": 60, "velocity": 117, "channel": 0}, {"type": "note_on", "time": 60, "note": 62, "velocity": 117, "channel": 0}, {"type": "note_off", "time": 1235, "note": 62, "velocity": 117, "channel": 0}, {"type": "note_on", "time": 24, "note": 60, "velocity": 101, "channel": 0}, {"type": "note_off", "time": 181, "note": 60, "velocity": 101, "channel": 0}, {"type": "note_on", "time": 60, "note": 61, "velocity": 109, "channel": 0}, {"type": "note_off", "time": 121, "note": 61, "velocity": 109, "channel": 0}, {"type": "note_on", "time": 36, "note": 60, "velocity": 106, "channel": 0}, {"type": "note_off", "time": 242, "note": 60, "velocity": 106, "channel": 0}, {"type": "note_on", "time": 0, "note": 57, "velocity": 100, "channel": 0}, {"type": "note_off", "time": 545, "note": 57, "velocity": 100, "channel": 0}, {"type": "note_on", "time": 0, "note": 60, "velocity": 93, "channel": 0}, {"type": "note_off", "time": 654, "note": 60, "velocity": 93, "channel": 0}, {"type": "note_on", "time": 678, "note": 57, "velocity": 106, "channel": 0}, {"type": "note_off", "time": 363, "note": 57, "velocity": 106, "channel": 0}, {"type": "note_on", "time": 48, "note": 55, "velocity": 97, "channel": 0}, {"type": "note_off", "time": 218, "note": 55, "velocity": 97, "channel": 0}, {"type": "note_on", "time": 36, "note": 57, "velocity": 102, "channel": 0}, {"type": "note_off", "time": 472, "note": 57, "velocity": 102, "channel": 0}, {"type": "note_on", "time": 96, "note": 60, "velocity": 119, "channel": 0}, {"type": "note_off", "time": 193, "note": 60, "velocity": 119, "channel": 0}, {"type": "note_on", "time": 48, "note": 57, "velocity": 110, "channel": 0}, {"type": "note_off", "time": 84, "note": 57, "velocity": 110, "channel": 0}, {"type": "note_on", "time": 109, "note": 61, "velocity": 126, "channel": 0}, {"type": "note_off", "time": 351, "note": 61, "velocity": 126, "channel": 0}, {"type": "note_on", "time": 738, "note": 65, "velocity": 121, "channel": 0}, {"type": "note_off", "time": 266, "note": 65, "velocity": 121, "channel": 0}, {"type": "note_on", "time": 24, "note": 67, "velocity": 113, "channel": 0}, {"type": "note_off", "time": 1744, "note": 67, "velocity": 113, "channel": 0}, {"type": "note_on", "time": 181, "note": 64, "velocity": 115, "channel": 0}, {"type": "note_off", "time": 145, "note": 64, "velocity": 115, "channel": 0}, {"type": "note_on", "time": 72, "note": 67, "velocity": 111, "channel": 0}, {"type": "note_off", "time": 290, "note": 67, "velocity": 111, "channel": 0}, {"type": "note_on", "time": 981, "note": 66, "velocity": 124, "channel": 0}, {"type": "note_off", "time": 230, "note": 66, "velocity": 124, "channel": 0}, {"type": "note_on", "time": 205, "note": 67, "velocity": 120, "channel": 0}, {"type": "note_off", "time": 290, "note": 67, "velocity": 120, "channel": 0}, {"type": "note_on", "time": 96, "note": 65, "velocity": 96, "channel": 0}, {"type": "note_off", "time": 145, "note": 65, "velocity": 96, "channel": 0}, {"type": "note_on", "time": 48, "note": 66, "velocity": 122, "channel": 0}, {"type": "note_off", "time": 157, "note": 66, "velocity": 122, "channel": 0}, {"type": "note_on", "time": 24, "note": 67, "velocity": 121, "channel": 0}, {"type": "note_off", "time": 242, "note": 67, "velocity": 121, "channel": 0}, {"type": "note_on", "time": 24, "note": 66, "velocity": 123, "channel": 0}, {"type": "note_off", "time": 242, "note": 66, "velocity": 123, "channel": 0}, {"type": "note_on", "time": 0, "note": 64, "velocity": 101, "channel": 0}, {"type": "note_off", "time": 145, "note": 64, "velocity": 101, "channel": 0}, {"type": "note_on", "time": 36, "note": 65, "velocity": 107, "channel": 0}, {"type": "note_off", "time": 448, "note": 65, "velocity": 107, "channel": 0}, {"type": "note_on", "time": 363, "note": 62, "velocity": 106, "channel": 0}, {"type": "note_off", "time": 96, "note": 62, "velocity": 106, "channel": 0}, {"type": "note_on", "time": 0, "note": 63, "velocity": 124, "channel": 0}, {"type": "note_off", "time": 290, "note": 63, "velocity": 124, "channel": 0}, {"type": "note_on", "time": 72, "note": 60, "velocity": 107, "channel": 0}, {"type": "note_off", "time": 339, "note": 60, "velocity": 107, "channel": 0}, {"type": "note_on", "time": 181, "note": 60, "velocity": 108, "channel": 0}, {"type": "note_off", "time": 351, "note": 60, "velocity": 108, "channel": 0}, {"type": "note_on", "time": 775, "note": 66, "velocity": 120, "channel": 0}, {"type": "note_off", "time": 302, "note": 66, "velocity": 120, "channel": 0}, {"type": "note_on", "time": 24, "note": 67, "velocity": 120, "channel": 0}, {"type": "note_off", "time": 593, "note": 67, "velocity": 120, "channel": 0}, {"type": "note_on", "time": 133, "note": 66, "velocity": 119, "channel": 0}, {"type": "note_off", "time": 60, "note": 66, "velocity": 119, "channel": 0}, {"type": "note_on", "time": 0, "note": 67, "velocity": 118, "channel": 0}, {"type": "note_off", "time": 181, "note": 67, "velocity": 118, "channel": 0}, {"type": "note_on", "time": 36, "note": 65, "velocity": 119, "channel": 0}, {"type": "note_off", "time": 145, "note": 65, "velocity": 119, "channel": 0}, {"type": "note_on", "time": 0, "note": 67, "velocity": 118, "channel": 0}, {"type": "note_off", "time": 121, "note": 67, "velocity": 118, "channel": 0}, {"type": "note_on", "time": 0, "note": 65, "velocity": 118, "channel": 0}, {"type": "note_off", "time": 109, "note": 65, "velocity": 118, "channel": 0}, {"type": "note_on", "time": 0, "note": 63, "velocity": 119, "channel": 0}, {"type": "note_off", "time": 254, "note": 63, "velocity": 119, "channel": 0}, {"type": "note_on", "time": 1465, "note": 66, "velocity": 120, "channel": 0}, {"type": "note_off", "time": 193, "note": 66, "velocity": 120, "channel": 0}, {"type": "note_on", "time": 12, "note": 67, "velocity": 112, "channel": 0}, {"type": "note_off", "time": 545, "note": 67, "velocity": 112, "channel": 0}, {"type": "note_on", "time": 109, "note": 66, "velocity": 114, "channel": 0}, {"type": "note_off", "time": 205, "note": 66, "velocity": 114, "channel": 0}, {"type": "note_on", "time": 60, "note": 63, "velocity": 102, "channel": 0}, {"type": "note_off", "time": 84, "note": 63, "velocity": 102, "channel": 0}, {"type": "note_on", "time": 36, "note": 65, "velocity": 112, "channel": 0}, {"type": "note_off", "time": 363, "note": 65, "velocity": 112, "channel": 0}, {"type": "note_on", "time": 60, "note": 63, "velocity": 120, "channel": 0}, {"type": "note_off", "time": 290, "note": 63, "velocity": 120, "channel": 0}, {"type": "note_on", "time": 36, "note": 62, "velocity": 98, "channel": 0}, {"type": "note_off", "time": 157, "note": 62, "velocity": 98, "channel": 0}, {"type": "note_on", "time": 0, "note": 63, "velocity": 121, "channel": 0}, {"type": "note_off", "time": 375, "note": 63, "velocity": 121, "channel": 0}, {"type": "note_on", "time": 0, "note": 60, "velocity": 109, "channel": 0}, {"type": "note_off", "time": 205, "note": 60, "velocity": 109, "channel": 0}, {"type": "note_on", "time": 133, "note": 55, "velocity": 107, "channel": 0}, {"type": "note_off", "time": 145, "note": 55, "velocity": 107, "channel": 0}, {"type": "note_on", "time": 48, "note": 58, "velocity": 106, "channel": 0}, {"type": "note_off", "time": 605, "note": 58, "velocity": 106, "channel": 0}, {"type": "note_on", "time": 24, "note": 60, "velocity": 89, "channel": 0}, {"type": "note_off", "time": 763, "note": 60, "velocity": 89, "channel": 0}, {"type": "note_on", "time": 809, "note": 52, "velocity": 109, "channel": 0}, {"type": "note_off", "time": 147, "note": 52, "velocity": 109, "channel": 0}, {"type": "note_on", "time": 0, "note": 58, "velocity": 102, "channel": 0}, {"type": "note_off", "time": 121, "note": 58, "velocity": 102, "channel": 0}, {"type": "note_on", "time": 0, "note": 60, "velocity": 112, "channel": 0}, {"type": "note_on", "time": 145, "note": 64, "velocity": 111, "channel": 0}, {"type": "note_off", "time": 0, "note": 60, "velocity": 112, "channel": 0}, {"type": "note_off", "time": 121, "note": 64, "velocity": 111, "channel": 0}, {"type": "note_on", "time": 0, "note": 67, "velocity": 109, "channel": 0}, {"type": "note_off", "time": 84, "note": 67, "velocity": 109, "channel": 0}, {"type": "note_on", "time": 12, "note": 70, "velocity": 93, "channel": 0}, {"type": "note_off", "time": 48, "note": 70, "velocity": 93, "channel": 0}, {"type": "note_on", "time": 36, "note": 72, "velocity": 113, "channel": 0}, {"type": "note_off", "time": 157, "note": 72, "velocity": 113, "channel": 0}, {"type": "note_on", "time": 12, "note": 70, "velocity": 108, "channel": 0}, {"type": "note_off", "time": 109, "note": 70, "velocity": 108, "channel": 0}, {"type": "note_on", "time": 24, "note": 69, "velocity": 105, "channel": 0}, {"type": "note_off", "time": 96, "note": 69, "velocity": 105, "channel": 0}, {"type": "note_on", "time": 24, "note": 89, "velocity": 99, "channel": 0}, {"type": "note_off", "time": 109, "note": 89, "velocity": 99, "channel": 0}, {"type": "note_on", "time": 0, "note": 90, "velocity": 103, "channel": 0}, {"type": "note_off", "time": 109, "note": 90, "velocity": 103, "channel": 0}, {"type": "note_on", "time": 647, "note": 48, "velocity": 111, "channel": 0}, {"type": "note_off", "time": 137, "note": 48, "velocity": 111, "channel": 0}, {"type": "note_on", "time": 51, "note": 55, "velocity": 110, "channel": 0}, {"type": "note_off", "time": 77, "note": 55, "velocity": 110, "channel": 0}, {"type": "note_on", "time": 25, "note": 58, "velocity": 101, "channel": 0}, {"type": "note_off", "time": 111, "note": 58, "velocity": 101, "channel": 0}, {"type": "note_on", "time": 8, "note": 60, "velocity": 104, "channel": 0}, {"type": "note_off", "time": 94, "note": 60, "velocity": 104, "channel": 0}, {"type": "note_on", "time": 17, "note": 63, "velocity": 109, "channel": 0}, {"type": "note_off", "time": 111, "note": 63, "velocity": 109, "channel": 0}, {"type": "note_on", "time": 4, "note": 65, "velocity": 106, "channel": 0}, {"type": "note_off", "time": 73, "note": 65, "velocity": 106, "channel": 0}, {"type": "note_on", "time": 8, "note": 69, "velocity": 104, "channel": 0}, {"type": "note_off", "time": 40, "note": 69, "velocity": 104, "channel": 0}, {"type": "note_on", "time": 12, "note": 72, "velocity": 105, "channel": 0}, {"type": "note_off", "time": 34, "note": 72, "velocity": 105, "channel": 0}, {"type": "note_on", "time": 10, "note": 74, "velocity": 96, "channel": 0}, {"type": "note_off", "time": 38, "note": 74, "velocity": 96, "channel": 0}, {"type": "note_on", "time": 38, "note": 70, "velocity": 101, "channel": 0}, {"type": "note_off", "time": 81, "note": 70, "velocity": 101, "channel": 0}, {"type": "note_on", "time": 30, "note": 72, "velocity": 91, "channel": 0}, {"type": "note_off", "time": 34, "note": 72, "velocity": 91, "channel": 0}, {"type": "note_on", "time": 43, "note": 74, "velocity": 100, "channel": 0}, {"type": "note_off", "time": 60, "note": 74, "velocity": 100, "channel": 0}, {"type": "note_on", "time": 21, "note": 82, "velocity": 90, "channel": 0}, {"type": "note_off", "time": 159, "note": 82, "velocity": 90, "channel": 0}, {"type": "note_on", "time": 1184, "note": 53, "velocity": 112, "channel": 0}, {"type": "note_off", "time": 111, "note": 53, "velocity": 112, "channel": 0}, {"type": "note_on", "time": 13, "note": 58, "velocity": 106, "channel": 0}, {"type": "note_off", "time": 102, "note": 58, "velocity": 106, "channel": 0}, {"type": "note_on", "time": 141, "note": 50, "velocity": 116, "channel": 0}, {"type": "note_off", "time": 60, "note": 50, "velocity": 116, "channel": 0}, {"type": "note_on", "time": 16, "note": 48, "velocity": 118, "channel": 0}, {"type": "note_off", "time": 99, "note": 48, "velocity": 118, "channel": 0}, {"type": "note_on", "time": 10, "note": 70, "velocity": 104, "channel": 0}, {"type": "note_off", "time": 39, "note": 70, "velocity": 104, "channel": 0}, {"type": "note_on", "time": 65, "note": 73, "velocity": 108, "channel": 0}, {"type": "note_off", "time": 396, "note": 73, "velocity": 108, "channel": 0}, {"type": "note_on", "time": 8, "note": 63, "velocity": 106, "channel": 0}, {"type": "note_off", "time": 86, "note": 63, "velocity": 106, "channel": 0}, {"type": "note_on", "time": 0, "note": 70, "velocity": 110, "channel": 0}, {"type": "note_off", "time": 103, "note": 70, "velocity": 110, "channel": 0}, {"type": "note_on", "time": 34, "note": 63, "velocity": 111, "channel": 0}, {"type": "note_off", "time": 120, "note": 63, "velocity": 111, "channel": 0}, {"type": "note_on", "time": 34, "note": 70, "velocity": 117, "channel": 0}, {"type": "note_off", "time": 146, "note": 70, "velocity": 117, "channel": 0}, {"type": "note_on", "time": 8, "note": 82, "velocity": 95, "channel": 0}, {"type": "note_off", "time": 111, "note": 82, "velocity": 95, "channel": 0}, {"type": "note_on", "time": 43, "note": 86, "velocity": 104, "channel": 0}, {"type": "note_off", "time": 94, "note": 86, "velocity": 104, "channel": 0}, {"type": "note_on", "time": 8, "note": 90, "velocity": 78, "channel": 0}, {"type": "note_off", "time": 43, "note": 90, "velocity": 78, "channel": 0}, {"type": "note_on", "time": 60, "note": 89, "velocity": 77, "channel": 0}, {"type": "note_off", "time": 94, "note": 89, "velocity": 77, "channel": 0}, {"type": "note_on", "time": 77, "note": 85, "velocity": 81, "channel": 0}, {"type": "note_off", "time": 77, "note": 85, "velocity": 81, "channel": 0}, {"type": "note_on", "time": 292, "note": 53, "velocity": 110, "channel": 0}, {"type": "note_off", "time": 94, "note": 53, "velocity": 110, "channel": 0}, {"type": "note_on", "time": 25, "note": 48, "velocity": 113, "channel": 0}, {"type": "note_off", "time": 94, "note": 48, "velocity": 113, "channel": 0}, {"type": "note_on", "time": 0, "note": 55, "velocity": 114, "channel": 0}, {"type": "note_off", "time": 116, "note": 55, "velocity": 114, "channel": 0}, {"type": "note_on", "time": 34, "note": 57, "velocity": 93, "channel": 0}, {"type": "note_off", "time": 68, "note": 57, "velocity": 93, "channel": 0}, {"type": "note_on", "time": 47, "note": 60, "velocity": 101, "channel": 0}, {"type": "note_off", "time": 81, "note": 60, "velocity": 101, "channel": 0}, {"type": "note_on", "time": 43, "note": 69, "velocity": 106, "channel": 0}, {"type": "note_off", "time": 90, "note": 69, "velocity": 106, "channel": 0}, {"type": "note_on", "time": 43, "note": 65, "velocity": 108, "channel": 0}, {"type": "note_off", "time": 90, "note": 65, "velocity": 108, "channel": 0}, {"type": "note_on", "time": 34, "note": 63, "velocity": 110, "channel": 0}, {"type": "note_off", "time": 64, "note": 63, "velocity": 110, "channel": 0}, {"type": "note_on", "time": 86, "note": 57, "velocity": 104, "channel": 0}, {"type": "note_off", "time": 215, "note": 57, "velocity": 104, "channel": 0}, {"type": "note_on", "time": 73, "note": 74, "velocity": 105, "channel": 0}, {"type": "note_off", "time": 185, "note": 74, "velocity": 105, "channel": 0}, {"type": "note_on", "time": 4, "note": 73, "velocity": 101, "channel": 0}, {"type": "note_off", "time": 150, "note": 73, "velocity": 101, "channel": 0}, {"type": "note_on", "time": 12, "note": 70, "velocity": 102, "channel": 0}, {"type": "note_off", "time": 137, "note": 70, "velocity": 102, "channel": 0}, {"type": "note_on", "time": 34, "note": 73, "velocity": 125, "channel": 0}, {"type": "note_off", "time": 172, "note": 73, "velocity": 125, "channel": 0}, {"type": "note_on", "time": 12, "note": 71, "velocity": 102, "channel": 0}, {"type": "note_off", "time": 68, "note": 71, "velocity": 102, "channel": 0}, {"type": "note_on", "time": 51, "note": 69, "velocity": 107, "channel": 0}, {"type": "note_off", "time": 163, "note": 69, "velocity": 107, "channel": 0}, {"type": "note_on", "time": 12, "note": 75, "velocity": 107, "channel": 0}, {"type": "note_off", "time": 60, "note": 75, "velocity": 107, "channel": 0}, {"type": "note_on", "time": 34, "note": 71, "velocity": 93, "channel": 0}, {"type": "note_off", "time": 81, "note": 71, "velocity": 93, "channel": 0}, {"type": "note_on", "time": 590, "note": 48, "velocity": 107, "channel": 0}, {"type": "note_off", "time": 94, "note": 48, "velocity": 107, "channel": 0}, {"type": "note_on", "time": 17, "note": 53, "velocity": 114, "channel": 0}, {"type": "note_off", "time": 99, "note": 53, "velocity": 114, "channel": 0}, {"type": "note_on", "time": 64, "note": 57, "velocity": 114, "channel": 0}, {"type": "note_off", "time": 124, "note": 57, "velocity": 114, "channel": 0}, {"type": "note_on", "time": 4, "note": 56, "velocity": 110, "channel": 0}, {"type": "note_off", "time": 43, "note": 56, "velocity": 110, "channel": 0}, {"type": "note_on", "time": 34, "note": 55, "velocity": 116, "channel": 0}, {"type": "note_off", "time": 77, "note": 55, "velocity": 116, "channel": 0}, {"type": "note_on", "time": 21, "note": 57, "velocity": 106, "channel": 0}, {"type": "note_off", "time": 47, "note": 57, "velocity": 106, "channel": 0}, {"type": "note_on", "time": 34, "note": 62, "velocity": 105, "channel": 0}, {"type": "note_off", "time": 142, "note": 62, "velocity": 105, "channel": 0}, {"type": "note_on", "time": 4, "note": 59, "velocity": 106, "channel": 0}, {"type": "note_off", "time": 107, "note": 59, "velocity": 106, "channel": 0}, {"type": "note_on", "time": 38, "note": 58, "velocity": 110, "channel": 0}, {"type": "note_off", "time": 120, "note": 58, "velocity": 110, "channel": 0}, {"type": "note_on", "time": 17, "note": 63, "velocity": 102, "channel": 0}, {"type": "note_off", "time": 51, "note": 63, "velocity": 102, "channel": 0}, {"type": "note_on", "time": 50, "note": 70, "velocity": 95, "channel": 0}, {"type": "note_off", "time": 99, "note": 70, "velocity": 95, "channel": 0}, {"type": "note_on", "time": 140, "note": 70, "velocity": 103, "channel": 0}, {"type": "note_off", "time": 90, "note": 70, "velocity": 103, "channel": 0}, {"type": "note_on", "time": 115, "note": 70, "velocity": 98, "channel": 0}, {"type": "note_off", "time": 84, "note": 70, "velocity": 98, "channel": 0}, {"type": "note_on", "time": 24, "note": 71, "velocity": 97, "channel": 0}, {"type": "note_off", "time": 60, "note": 71, "velocity": 97, "channel": 0}, {"type": "note_on", "time": 33, "note": 72, "velocity": 105, "channel": 0}, {"type": "note_off", "time": 87, "note": 72, "velocity": 105, "channel": 0}, {"type": "note_on", "time": 30, "note": 70, "velocity": 95, "channel": 0}, {"type": "note_off", "time": 109, "note": 70, "velocity": 95, "channel": 0}, {"type": "note_on", "time": 42, "note": 72, "velocity": 96, "channel": 0}, {"type": "note_off", "time": 142, "note": 72, "velocity": 96, "channel": 0}, {"type": "note_on", "time": 48, "note": 71, "velocity": 91, "channel": 0}, {"type": "note_off", "time": 57, "note": 71, "velocity": 91, "channel": 0}, {"type": "note_on", "time": 15, "note": 69, "velocity": 102, "channel": 0}, {"type": "note_off", "time": 145, "note": 69, "velocity": 102, "channel": 0}, {"type": "note_on", "time": 475, "note": 64, "velocity": 112, "channel": 0}, {"type": "note_off", "time": 133, "note": 64, "velocity": 112, "channel": 0}, {"type": "note_on", "time": 43, "note": 68, "velocity": 94, "channel": 0}, {"type": "note_off", "time": 249, "note": 68, "velocity": 94, "channel": 0}, {"type": "note_on", "time": 47, "note": 76, "velocity": 99, "channel": 0}, {"type": "note_off", "time": 142, "note": 76, "velocity": 99, "channel": 0}, {"type": "note_on", "time": 60, "note": 80, "velocity": 97, "channel": 0}, {"type": "note_off", "time": 193, "note": 80, "velocity": 97, "channel": 0}, {"type": "note_on", "time": 30, "note": 81, "velocity": 94, "channel": 0}, {"type": "note_off", "time": 176, "note": 81, "velocity": 94, "channel": 0}, {"type": "note_on", "time": 12, "note": 82, "velocity": 99, "channel": 0}, {"type": "note_off", "time": 86, "note": 82, "velocity": 99, "channel": 0}, {"type": "note_on", "time": 62, "note": 83, "velocity": 110, "channel": 0}, {"type": "note_off", "time": 218, "note": 83, "velocity": 110, "channel": 0}, {"type": "note_on", "time": 36, "note": 85, "velocity": 97, "channel": 0}, {"type": "note_off", "time": 193, "note": 85, "velocity": 97, "channel": 0}, {"type": "note_on", "time": 472, "note": 70, "velocity": 103, "channel": 0}, {"type": "note_off", "time": 181, "note": 70, "velocity": 103, "channel": 0}, {"type": "note_on", "time": 12, "note": 73, "velocity": 105, "channel": 0}, {"type": "note_off", "time": 157, "note": 73, "velocity": 105, "channel": 0}, {"type": "note_on", "time": 84, "note": 72, "velocity": 105, "channel": 0}, {"type": "note_off", "time": 993, "note": 72, "velocity": 105, "channel": 0}, {"type": "note_on", "time": 109, "note": 70, "velocity": 103, "channel": 0}, {"type": "note_off", "time": 205, "note": 70, "velocity": 103, "channel": 0}, {"type": "note_on", "time": 12, "note": 71, "velocity": 97, "channel": 0}, {"type": "note_off", "time": 181, "note": 71, "velocity": 97, "channel": 0}, {"type": "note_on", "time": 72, "note": 68, "velocity": 114, "channel": 0}, {"type": "note_off", "time": 218, "note": 68, "velocity": 114, "channel": 0}, {"type": "note_on", "time": 605, "note": 67, "velocity": 110, "channel": 0}, {"type": "note_off", "time": 193, "note": 67, "velocity": 110, "channel": 0}, {"type": "note_on", "time": 36, "note": 65, "velocity": 111, "channel": 0}, {"type": "note_off", "time": 133, "note": 65, "velocity": 111, "channel": 0}, {"type": "note_on", "time": 205, "note": 67, "velocity": 110, "channel": 0}, {"type": "note_off", "time": 96, "note": 67, "velocity": 110, "channel": 0}, {"type": "note_on", "time": 24, "note": 66, "velocity": 106, "channel": 0}, {"type": "note_off", "time": 157, "note": 66, "velocity": 106, "channel": 0}, {"type": "note_on", "time": 218, "note": 67, "velocity": 122, "channel": 0}, {"type": "note_off", "time": 145, "note": 67, "velocity": 122, "channel": 0}, {"type": "note_on", "time": 36, "note": 66, "velocity": 102, "channel": 0}, {"type": "note_off", "time": 181, "note": 66, "velocity": 102, "channel": 0}, {"type": "note_on", "time": 266, "note": 67, "velocity": 113, "channel": 0}, {"type": "note_off", "time": 181, "note": 67, "velocity": 113, "channel": 0}, {"type": "note_on", "time": 0, "note": 66, "velocity": 107, "channel": 0}, {"type": "note_off", "time": 145, "note": 66, "velocity": 107, "channel": 0}, {"type": "note_on", "time": 1162, "note": 65, "velocity": 110, "channel": 0}, {"type": "note_off", "time": 136, "note": 65, "velocity": 110, "channel": 0}, {"type": "note_on", "time": 0, "note": 67, "velocity": 110, "channel": 0}, {"type": "note_off", "time": 124, "note": 67, "velocity": 110, "channel": 0}, {"type": "note_on", "time": 15, "note": 66, "velocity": 120, "channel": 0}, {"type": "note_off", "time": 69, "note": 66, "velocity": 120, "channel": 0}, {"type": "note_on", "time": 9, "note": 70, "velocity": 114, "channel": 0}, {"type": "note_off", "time": 51, "note": 70, "velocity": 114, "channel": 0}, {"type": "note_on", "time": 15, "note": 71, "velocity": 110, "channel": 0}, {"type": "note_off", "time": 54, "note": 71, "velocity": 110, "channel": 0}, {"type": "note_on", "time": 84, "note": 67, "velocity": 120, "channel": 0}, {"type": "note_off", "time": 84, "note": 67, "velocity": 120, "channel": 0}, {"type": "note_on", "time": 9, "note": 71, "velocity": 93, "channel": 0}, {"type": "note_off", "time": 78, "note": 71, "velocity": 93, "channel": 0}, {"type": "note_on", "time": 27, "note": 67, "velocity": 118, "channel": 0}, {"type": "note_off", "time": 166, "note": 67, "velocity": 118, "channel": 0}, {"type": "note_on", "time": 21, "note": 67, "velocity": 124, "channel": 0}, {"type": "note_off", "time": 84, "note": 67, "velocity": 124, "channel": 0}, {"type": "note_on", "time": 30, "note": 65, "velocity": 123, "channel": 0}, {"type": "note_off", "time": 87, "note": 65, "velocity": 123, "channel": 0}, {"type": "note_on", "time": 15, "note": 64, "velocity": 126, "channel": 0}, {"type": "note_off", "time": 127, "note": 64, "velocity": 126, "channel": 0}, {"type": "note_on", "time": 15, "note": 63, "velocity": 123, "channel": 0}, {"type": "note_on", "time": 124, "note": 61, "velocity": 115, "channel": 0}, {"type": "note_off", "time": 0, "note": 63, "velocity": 123, "channel": 0}, {"type": "note_off", "time": 93, "note": 61, "velocity": 115, "channel": 0}, {"type": "note_on", "time": 12, "note": 60, "velocity": 114, "channel": 0}, {"type": "note_off", "time": 78, "note": 60, "velocity": 114, "channel": 0}, {"type": "note_on", "time": 18, "note": 58, "velocity": 109, "channel": 0}, {"type": "note_off", "time": 72, "note": 58, "velocity": 109, "channel": 0}, {"type": "note_on", "time": 16, "note": 56, "velocity": 103, "channel": 0}, {"type": "note_off", "time": 71, "note": 56, "velocity": 103, "channel": 0}, {"type": "note_on", "time": 27, "note": 54, "velocity": 105, "channel": 0}, {"type": "note_off", "time": 66, "note": 54, "velocity": 105, "channel": 0}, {"type": "note_on", "time": 4, "note": 53, "velocity": 108, "channel": 0}, {"type": "note_off", "time": 62, "note": 53, "velocity": 108, "channel": 0}, {"type": "note_on", "time": 12, "note": 52, "velocity": 106, "channel": 0}, {"type": "note_off", "time": 66, "note": 52, "velocity": 106, "channel": 0}, {"type": "note_on", "time": 12, "note": 50, "velocity": 110, "channel": 0}, {"type": "note_off", "time": 58, "note": 50, "velocity": 110, "channel": 0}, {"type": "note_on", "time": 10, "note": 51, "velocity": 108, "channel": 0}, {"type": "note_off", "time": 73, "note": 51, "velocity": 108, "channel": 0}, {"type": "note_on", "time": 10, "note": 53, "velocity": 111, "channel": 0}, {"type": "note_off", "time": 60, "note": 53, "velocity": 111, "channel": 0}, {"type": "note_on", "time": 10, "note": 57, "velocity": 113, "channel": 0}, {"type": "note_off", "time": 66, "note": 57, "velocity": 113, "channel": 0}, {"type": "note_on", "time": 66, "note": 61, "velocity": 116, "channel": 0}, {"type": "note_off", "time": 68, "note": 61, "velocity": 116, "channel": 0}, {"type": "note_on", "time": 10, "note": 60, "velocity": 108, "channel": 0}, {"type": "note_off", "time": 62, "note": 60, "velocity": 108, "channel": 0}, {"type": "note_on", "time": 26, "note": 59, "velocity": 94, "channel": 0}, {"type": "note_off", "time": 83, "note": 59, "velocity": 94, "channel": 0}, {"type": "note_on", "time": 61, "note": 69, "velocity": 107, "channel": 0}, {"type": "note_off", "time": 83, "note": 69, "velocity": 107, "channel": 0}, {"type": "note_on", "time": 2, "note": 66, "velocity": 107, "channel": 0}, {"type": "note_off", "time": 110, "note": 66, "velocity": 107, "channel": 0}, {"type": "note_on", "time": 253, "note": 54, "velocity": 107, "channel": 0}, {"type": "note_off", "time": 120, "note": 54, "velocity": 107, "channel": 0}, {"type": "note_on", "time": 0, "note": 57, "velocity": 104, "channel": 0}, {"type": "note_off", "time": 111, "note": 57, "velocity": 104, "channel": 0}, {"type": "note_on", "time": 0, "note": 62, "velocity": 112, "channel": 0}, {"type": "note_off", "time": 94, "note": 62, "velocity": 112, "channel": 0}, {"type": "note_on", "time": 43, "note": 63, "velocity": 119, "channel": 0}, {"type": "note_off", "time": 94, "note": 63, "velocity": 119, "channel": 0}, {"type": "note_on", "time": 55, "note": 65, "velocity": 117, "channel": 0}, {"type": "note_off", "time": 103, "note": 65, "velocity": 117, "channel": 0}, {"type": "note_on", "time": 17, "note": 65, "velocity": 112, "channel": 0}, {"type": "note_off", "time": 64, "note": 65, "velocity": 112, "channel": 0}, {"type": "note_on", "time": 12, "note": 61, "velocity": 112, "channel": 0}, {"type": "note_off", "time": 116, "note": 61, "velocity": 112, "channel": 0}, {"type": "note_on", "time": 749, "note": 69, "velocity": 108, "channel": 0}, {"type": "note_off", "time": 47, "note": 69, "velocity": 108, "channel": 0}, {"type": "note_on", "time": 21, "note": 66, "velocity": 109, "channel": 0}, {"type": "note_off", "time": 68, "note": 66, "velocity": 109, "channel": 0}, {"type": "note_on", "time": 0, "note": 69, "velocity": 107, "channel": 0}, {"type": "note_off", "time": 51, "note": 69, "velocity": 107, "channel": 0}, {"type": "note_on", "time": 0, "note": 71, "velocity": 114, "channel": 0}, {"type": "note_off", "time": 129, "note": 71, "velocity": 114, "channel": 0}, {"type": "note_on", "time": 0, "note": 70, "velocity": 115, "channel": 0}, {"type": "note_off", "time": 94, "note": 70, "velocity": 115, "channel": 0}, {"type": "note_on", "time": 0, "note": 68, "velocity": 109, "channel": 0}, {"type": "note_off", "time": 163, "note": 68, "velocity": 109, "channel": 0}, {"type": "note_on", "time": 0, "note": 65, "velocity": 102, "channel": 0}, {"type": "note_off", "time": 198, "note": 65, "velocity": 102, "channel": 0}, {"type": "note_on", "time": 792, "note": 66, "velocity": 105, "channel": 0}, {"type": "note_off", "time": 68, "note": 66, "velocity": 105, "channel": 0}, {"type": "note_on", "time": 0, "note": 68, "velocity": 106, "channel": 0}, {"type": "note_off", "time": 77, "note": 68, "velocity": 106, "channel": 0}, {"type": "note_on", "time": 12, "note": 70, "velocity": 111, "channel": 0}, {"type": "note_off", "time": 137, "note": 70, "velocity": 111, "channel": 0}, {"type": "note_on", "time": 21, "note": 63, "velocity": 107, "channel": 0}, {"type": "note_off", "time": 111, "note": 63, "velocity": 107, "channel": 0}, {"type": "note_on", "time": 81, "note": 65, "velocity": 109, "channel": 0}, {"type": "note_off", "time": 254, "note": 65, "velocity": 109, "channel": 0}, {"type": "note_on", "time": 25, "note": 69, "velocity": 102, "channel": 0}, {"type": "note_off", "time": 150, "note": 69, "velocity": 102, "channel": 0}, {"type": "note_on", "time": 34, "note": 67, "velocity": 115, "channel": 0}, {"type": "note_off", "time": 258, "note": 67, "velocity": 115, "channel": 0}, {"type": "note_on", "time": 17, "note": 64, "velocity": 117, "channel": 0}, {"type": "note_off", "time": 137, "note": 64, "velocity": 117, "channel": 0}, {"type": "note_on", "time": 34, "note": 63, "velocity": 117, "channel": 0}, {"type": "note_off", "time": 228, "note": 63, "velocity": 117, "channel": 0}, {"type": "note_on", "time": 576, "note": 62, "velocity": 109, "channel": 0}, {"type": "note_off", "time": 339, "note": 62, "velocity": 109, "channel": 0}, {"type": "note_on", "time": 169, "note": 62, "velocity": 121, "channel": 0}, {"type": "note_off", "time": 339, "note": 62, "velocity": 121, "channel": 0}, {"type": "note_on", "time": 24, "note": 63, "velocity": 119, "channel": 0}, {"type": "note_off", "time": 327, "note": 63, "velocity": 119, "channel": 0}, {"type": "note_on", "time": 59, "note": 55, "velocity": 103, "channel": 0}, {"type": "note_off", "time": 617, "note": 55, "velocity": 103, "channel": 0}, {"type": "note_on", "time": 231, "note": 62, "velocity": 113, "channel": 0}, {"type": "note_off", "time": 230, "note": 62, "velocity": 113, "channel": 0}, {"type": "note_on", "time": 36, "note": 62, "velocity": 102, "channel": 0}, {"type": "note_off", "time": 181, "note": 62, "velocity": 102, "channel": 0}, {"type": "note_on", "time": 981, "note": 58, "velocity": 100, "channel": 0}, {"type": "note_on", "time": 302, "note": 60, "velocity": 92, "channel": 0}, {"type": "note_off", "time": 0, "note": 58, "velocity": 100, "channel": 0}, {"type": "note_off", "time": 278, "note": 60, "velocity": 92, "channel": 0}, {"type": "note_on", "time": 109, "note": 72, "velocity": 89, "channel": 0}, {"type": "note_off", "time": 254, "note": 72, "velocity": 89, "channel": 0}, {"type": "note_on", "time": 67, "note": 60, "velocity": 98, "channel": 0}, {"type": "note_off", "time": 387, "note": 60, "velocity": 98, "channel": 0}, {"type": "note_on", "time": 111, "note": 60, "velocity": 99, "channel": 0}, {"type": "note_off", "time": 103, "note": 60, "velocity": 99, "channel": 0}, {"type": "note_on", "time": 103, "note": 60, "velocity": 101, "channel": 0}, {"type": "note_off", "time": 129, "note": 60, "velocity": 101, "channel": 0}, {"type": "note_on", "time": 138, "note": 60, "velocity": 113, "channel": 0}, {"type": "note_off", "time": 278, "note": 60, "velocity": 113, "channel": 0}, {"type": "note_on", "time": 96, "note": 60, "velocity": 112, "channel": 0}, {"type": "note_off", "time": 254, "note": 60, "velocity": 112, "channel": 0}, {"type": "note_on", "time": 84, "note": 60, "velocity": 109, "channel": 0}, {"type": "note_off", "time": 181, "note": 60, "velocity": 109, "channel": 0}, {"type": "note_on", "time": 726, "note": 60, "velocity": 111, "channel": 0}, {"type": "note_off", "time": 278, "note": 60, "velocity": 111, "channel": 0}, {"type": "note_on", "time": 266, "note": 62, "velocity": 121, "channel": 0}, {"type": "note_off", "time": 242, "note": 62, "velocity": 121, "channel": 0}, {"type": "note_on", "time": 205, "note": 63, "velocity": 127, "channel": 0}, {"type": "note_off", "time": 254, "note": 63, "velocity": 127, "channel": 0}, {"type": "note_on", "time": 593, "note": 65, "velocity": 116, "channel": 0}, {"type": "note_off", "time": 218, "note": 65, "velocity": 116, "channel": 0}, {"type": "note_on", "time": 0, "note": 67, "velocity": 113, "channel": 0}, {"type": "note_off", "time": 533, "note": 67, "velocity": 113, "channel": 0}, {"type": "note_on", "time": 12, "note": 66, "velocity": 111, "channel": 0}, {"type": "note_off", "time": 351, "note": 66, "velocity": 111, "channel": 0}, {"type": "note_on", "time": 48, "note": 65, "velocity": 117, "channel": 0}, {"type": "note_off", "time": 484, "note": 65, "velocity": 117, "channel": 0}, {"type": "note_on", "time": 36, "note": 63, "velocity": 118, "channel": 0}, {"type": "note_off", "time": 278, "note": 63, "velocity": 118, "channel": 0}, {"type": "note_on", "time": 96, "note": 60, "velocity": 107, "channel": 0}, {"type": "note_off", "time": 302, "note": 60, "velocity": 107, "channel": 0}, {"type": "end_of_track", "time": 0}]]}