{"ticks_per_beat": 192, "tracks": [[{"type": "track_name", "name": "Melody", "time": 0}, {"type": "set_tempo", "tempo": 231660, "time": 0}, {"type": "key_signature", "key": "F", "time": 0}, {"type": "time_signature", "numerator": 4, "denominator": 4, "clocks_per_click": 24, "notated_32nd_notes_per_beat": 8, "time": 0}, {"type": "note_on", "time": 3791, "note": 72, "velocity": 119, "channel": 0}, {"type": "note_off", "time": 106, "note": 72, "velocity": 119, "channel": 0}, {"type": "note_on", "time": 0, "note": 70, "velocity": 107, "channel": 0}, {"type": "note_on", "time": 87, "note": 69, "velocity": 108, "channel": 0}, {"type": "note_off", "time": 0, "note": 70, "velocity": 107, "channel": 0}, {"type": "note_off", "time": 106, "note": 69, "velocity": 108, "channel": 0}, {"type": "note_on", "time": 6, "note": 67, "velocity": 98, "channel": 0}, {"type": "note_off", "time": 90, "note": 67, "velocity": 98, "channel": 0}, {"type": "note_on", "time": 0, "note": 62, "velocity": 99, "channel": 0}, {"type": "note_on", "time": 92, "note": 64, "velocity": 102, "channel": 0}, {"type": "note_off", "time": 0, "note": 62, "velocity": 99, "channel": 0}, {"type": "note_off", "time": 92, "note": 64, "velocity": 102, "channel": 0}, {"type": "note_on", "time": 0, "note": 65, "velocity": 101, "channel": 0}, {"type": "note_off", "time": 108, "note": 65, "velocity": 101, "channel": 0}, {"type": "note_on", "time": 0, "note": 62, "velocity": 105, "channel": 0}, {"type": "note_off", "time": 104, "note": 62, "velocity": 105, "channel": 0}, {"type": "note_on", "time": 0, "note": 64, "velocity": 102, "channel": 0}, {"type": "note_off", "time": 83, "note": 64, "velocity": 102, "channel": 0}, {"type": "note_on", "time": 0, "note": 65, "velocity": 97, "channel": 0}, {"type": "note_off", "time": 102, "note": 65, "velocity": 97, "channel": 0}, {"type": "note_on", "time": 0, "note": 67, "velocity": 95, "channel": 0}, {"type": "note_off", "time": 112, "note": 67, "velocity": 95, "channel": 0}, {"type": "note_on", "time": 0, "note": 65, "velocity": 102, "channel": 0}, {"type": "note_off", "time": 83, "note": 65, "velocity": 102, "channel": 0}, {"type": "note_on", "time": 0, "note": 64, "velocity": 103, "channel": 0}, {"type": "note_on", "time": 88, "note": 62, "velocity": 102, "channel": 0}, {"type": "note_off", "time": 0, "note": 64, "velocity": 103, "channel": 0}, {"type": "note_off", "time": 82, "note": 62, "velocity": 102, "channel": 0}, {"type": "note_on", "time": 4, "note": 60, "velocity": 98, "channel": 0}, {"type": "note_on", "time": 105, "note": 59, "velocity": 87, "channel": 0}, {"type": "note_off", "time": 0, "note": 60, "velocity": 98, "channel": 0}, {"type": "note_off", "time": 88, "note": 59, "velocity": 87, "channel": 0}, {"type": "note_on", "time": 0, "note": 58, "velocity": 88, "channel": 0}, {"type": "note_off", "time": 100, "note": 58, "velocity": 88, "channel": 0}, {"type": "note_on", "time": 3, "note": 62, "velocity": 104, "channel": 0}, {"type": "note_off", "time": 98, "note": 62, "velocity": 104, "channel": 0}, {"type": "note_on", "time": 0, "note": 60, "velocity": 95, "channel": 0}, {"type": "note_off", "time": 110, "note": 60, "velocity": 95, "channel": 0}, {"type": "note_on", "time": 0, "note": 58, "velocity": 92, "channel": 0}, {"type": "note_off", "time": 84, "note": 58, "velocity": 92, "channel": 0}, {"type": "note_on", "time": 0, "note": 57, "velocity": 91, "channel": 0}, {"type": "note_off", "time": 101, "note": 57, "velocity": 91, "channel": 0}, {"type": "note_on", "time": 77, "note": 67, "velocity": 98, "channel": 0}, {"type": "note_off", "time": 89, "note": 67, "velocity": 98, "channel": 0}, {"type": "note_on", "time": 102, "note": 65, "velocity": 99, "channel": 0}, {"type": "note_off", "time": 112, "note": 65, "velocity": 99, "channel": 0}, {"type": "note_on", "time": 9, "note": 63, "velocity": 110, "channel": 0}, {"type": "note_off", "time": 86, "note": 63, "velocity": 110, "channel": 0}, {"type": "note_on", "time": 0, "note": 62, "velocity": 94, "channel": 0}, {"type": "note_off", "time": 102, "note": 62, "velocity": 94, "channel": 0}, {"type": "note_on", "time": 6, "note": 60, "velocity": 102, "channel": 0}, {"type": "note_off", "time": 94, "note": 60, "velocity": 102, "channel": 0}, {"type": "note_on", "time": 0, "note": 58, "velocity": 95, "channel": 0}, {"type": "note_off", "time": 90, "note": 58, "velocity": 95, "channel": 0}, {"type": "note_on", "time": 0, "note": 57, "velocity": 97, "channel": 0}, {"type": "note_off", "time": 77, "note": 57, "velocity": 97, "channel": 0}, {"type": "note_on", "time": 8, "note": 55, "velocity": 88, "channel": 0}, {"type": "note_off", "time": 116, "note": 55, "velocity": 88, "channel": 0}, {"type": "note_on", "time": 0, "note": 53, "velocity": 95, "channel": 0}, {"type": "note_off", "time": 283, "note": 53, "velocity": 95, "channel": 0}, {"type": "note_on", "time": 516, "note": 50, "velocity": 98, "channel": 0}, {"type": "note_off", "time": 117, "note": 50, "velocity": 98, "channel": 0}, {"type": "note_on", "time": 0, "note": 53, "velocity": 96, "channel": 0}, {"type": "note_off", "time": 96, "note": 53, "velocity": 96, "channel": 0}, {"type": "note_on", "time": 0, "note": 55, "velocity": 89, "channel": 0}, {"type": "note_off", "time": 62, "note": 55, "velocity": 89, "channel": 0}, {"type": "note_on", "time": 134, "note": 60, "velocity": 110, "channel": 0}, {"type": "note_on", "time": 115, "note": 59, "velocity": 100, "channel": 0}, {"type": "note_off", "time": 0, "note": 60, "velocity": 110, "channel": 0}, {"type": "note_off", "time": 93, "note": 59, "velocity": 100, "channel": 0}, {"type": "note_on", "time": 0, "note": 58, "velocity": 96, "channel": 0}, {"type": "note_off", "time": 98, "note": 58, "velocity": 96, "channel": 0}, {"type": "note_on", "time": 0, "note": 57, "velocity": 88, "channel": 0}, {"type": "note_off", "time": 98, "note": 57, "velocity": 88, "channel": 0}, {"type": "note_on", "time": 7, "note": 55, "velocity": 91, "channel": 0}, {"type": "note_off", "time": 110, "note": 55, "velocity": 91, "channel": 0}, {"type": "note_on", "time": 0, "note": 53, "velocity": 100, "channel": 0}, {"type": "note_off", "time": 88, "note": 53, "velocity": 100, "channel": 0}, {"type": "note_on", "time": 0, "note": 52, "velocity": 91, "channel": 0}, {"type": "note_off", "time": 91, "note": 52, "velocity": 91, "channel": 0}, {"type": "note_on", "time": 0, "note": 53, "velocity": 94, "channel": 0}, {"type": "note_off", "time": 90, "note": 53, "velocity": 94, "channel": 0}, {"type": "note_on", "time": 13, "note": 57, "velocity": 86, "channel": 0}, {"type": "note_off", "time": 77, "note": 57, "velocity": 86, "channel": 0}, {"type": "note_on", "time": 20, "note": 60, "velocity": 102, "channel": 0}, {"type": "note_off", "time": 86, "note": 60, "velocity": 102, "channel": 0}, {"type": "note_on", "time": 0, "note": 62, "velocity": 92, "channel": 0}, {"type": "note_off", "time": 86, "note": 62, "velocity": 92, "channel": 0}, {"type": "note_on", "time": 0, "note": 64, "velocity": 93, "channel": 0}, {"type": "note_off", "time": 72, "note": 64, "velocity": 93, "channel": 0}, {"type": "note_on", "time": 6, "note": 67, "velocity": 89, "channel": 0}, {"type": "note_off", "time": 84, "note": 67, "velocity": 89, "channel": 0}, {"type": "note_on", "time": 26, "note": 64, "velocity": 90, "channel": 0}, {"type": "note_off", "time": 91, "note": 64, "velocity": 90, "channel": 0}, {"type": "note_on", "time": 0, "note": 65, "velocity": 100, "channel": 0}, {"type": "note_on", "time": 117, "note": 69, "velocity": 98, "channel": 0}, {"type": "note_off", "time": 0, "note": 65, "velocity": 100, "channel": 0}, {"type": "note_off", "time": 76, "note": 69, "velocity": 98, "channel": 0}, {"type": "note_on", "time": 0, "note": 72, "velocity": 111, "channel": 0}, {"type": "note_off", "time": 144, "note": 72, "velocity": 111, "channel": 0}, {"type": "note_on", "time": 213, "note": 69, "velocity": 110, "channel": 0}, {"type": "note_off", "time": 94, "note": 69, "velocity": 110, "channel": 0}, {"type": "note_on", "time": 20, "note": 67, "velocity": 87, "channel": 0}, {"type": "note_off", "time": 85, "note": 67, "velocity": 87, "channel": 0}, {"type": "note_on", "time": 2, "note": 65, "velocity": 94, "channel": 0}, {"type": "note_off", "time": 106, "note": 65, "velocity": 94, "channel": 0}, {"type": "note_on", "time": 101, "note": 74, "velocity": 108, "channel": 0}, {"type": "note_off", "time": 183, "note": 74, "velocity": 108, "channel": 0}, {"type": "note_on", "time": 0, "note": 72, "velocity": 108, "channel": 0}, {"type": "note_off", "time": 120, "note": 72, "velocity": 108, "channel": 0}, {"type": "note_on", "time": 0, "note": 70, "velocity": 106, "channel": 0}, {"type": "note_off", "time": 88, "note": 70, "velocity": 106, "channel": 0}, {"type": "note_on", "time": 0, "note": 69, "velocity": 99, "channel": 0}, {"type": "note_off", "time": 114, "note": 69, "velocity": 99, "channel": 0}, {"type": "note_on", "time": 2, "note": 67, "velocity": 88, "channel": 0}, {"type": "note_off", "time": 91, "note": 67, "velocity": 88, "channel": 0}, {"type": "note_on", "time": 0, "note": 65, "velocity": 96, "channel": 0}, {"type": "note_off", "time": 90, "note": 65, "velocity": 96, "channel": 0}, {"type": "note_on", "time": 0, "note": 64, "velocity": 100, "channel": 0}, {"type": "note_off", "time": 81, "note": 64, "velocity": 100, "channel": 0}, {"type": "note_on", "time": 0, "note": 67, "velocity": 95, "channel": 0}, {"type": "note_off", "time": 103, "note": 67, "velocity": 95, "channel": 0}, {"type": "note_on", "time": 10, "note": 65, "velocity": 99, "channel": 0}, {"type": "note_off", "time": 81, "note": 65, "velocity": 99, "channel": 0}, {"type": "note_on", "time": 0, "note": 64, "velocity": 100, "channel": 0}, {"type": "note_off", "time": 88, "note": 64, "velocity": 100, "channel": 0}, {"type": "note_on", "time": 0, "note": 62, "velocity": 95, "channel": 0}, {"type": "note_off", "time": 94, "note": 62, "velocity": 95, "channel": 0}, {"type": "note_on", "time": 0, "note": 60, "velocity": 91, "channel": 0}, {"type": "note_off", "time": 106, "note": 60, "velocity": 91, "channel": 0}, {"type": "note_on", "time": 4, "note": 59, "velocity": 87, "channel": 0}, {"type": "note_off", "time": 84, "note": 59, "velocity": 87, "channel": 0}, {"type": "note_on", "time": 0, "note": 58, "velocity": 86, "channel": 0}, {"type": "note_off", "time": 94, "note": 58, "velocity": 86, "channel": 0}, {"type": "note_on", "time": 0, "note": 62, "velocity": 101, "channel": 0}, {"type": "note_off", "time": 92, "note": 62, "velocity": 101, "channel": 0}, {"type": "note_on", "time": 5, "note": 57, "velocity": 93, "channel": 0}, {"type": "note_off", "time": 84, "note": 57, "velocity": 93, "channel": 0}, {"type": "note_on", "time": 0, "note": 58, "velocity": 92, "channel": 0}, {"type": "note_off", "time": 94, "note": 58, "velocity": 92, "channel": 0}, {"type": "note_on", "time": 0, "note": 60, "velocity": 103, "channel": 0}, {"type": "note_off", "time": 84, "note": 60, "velocity": 103, "channel": 0}, {"type": "note_on", "time": 0, "note": 62, "velocity": 104, "channel": 0}, {"type": "note_off", "time": 94, "note": 62, "velocity": 104, "channel": 0}, {"type": "note_on", "time": 0, "note": 64, "velocity": 97, "channel": 0}, {"type": "note_on", "time": 84, "note": 65, "velocity": 91, "channel": 0}, {"type": "note_off", "time": 0, "note": 64, "velocity": 97, "channel": 0}, {"type": "note_off", "time": 83, "note": 65, "velocity": 91, "channel": 0}, {"type": "note_on", "time": 4, "note": 67, "velocity": 93, "channel": 0}, {"type": "note_off", "time": 141, "note": 67, "velocity": 93, "channel": 0}, {"type": "note_on", "time": 57, "note": 60, "velocity": 95, "channel": 0}, {"type": "note_off", "time": 152, "note": 60, "velocity": 95, "channel": 0}, {"type": "note_on", "time": 168, "note": 60, "velocity": 90, "channel": 0}, {"type": "note_off", "time": 87, "note": 60, "velocity": 90, "channel": 0}, {"type": "note_on", "time": 597, "note": 57, "velocity": 93, "channel": 0}, {"type": "note_on", "time": 82, "note": 58, "velocity": 89, "channel": 0}, {"type": "note_off", "time": 0, "note": 57, "velocity": 93, "channel": 0}, {"type": "note_off", "time": 82, "note": 58, "velocity": 89, "channel": 0}, {"type": "note_on", "time": 22, "note": 60, "velocity": 105, "channel": 0}, {"type": "note_off", "time": 94, "note": 60, "velocity": 105, "channel": 0}, {"type": "note_on", "time": 0, "note": 59, "velocity": 99, "channel": 0}, {"type": "note_off", "time": 71, "note": 59, "velocity": 99, "channel": 0}, {"type": "note_on", "time": 0, "note": 58, "velocity": 89, "channel": 0}, {"type": "note_off", "time": 114, "note": 58, "velocity": 89, "channel": 0}, {"type": "note_on", "time": 10, "note": 61, "velocity": 116, "channel": 0}, {"type": "note_off", "time": 76, "note": 61, "velocity": 116, "channel": 0}, {"type": "note_on", "time": 7, "note": 60, "velocity": 97, "channel": 0}, {"type": "note_off", "time": 106, "note": 60, "velocity": 97, "channel": 0}, {"type": "note_on", "time": 13, "note": 58, "velocity": 93, "channel": 0}, {"type": "note_off", "time": 84, "note": 58, "velocity": 93, "channel": 0}, {"type": "note_on", "time": 2, "note": 57, "velocity": 85, "channel": 0}, {"type": "note_off", "time": 107, "note": 57, "velocity": 85, "channel": 0}, {"type": "note_on", "time": 0, "note": 60, "velocity": 93, "channel": 0}, {"type": "note_off", "time": 88, "note": 60, "velocity": 93, "channel": 0}, {"type": "note_on", "time": 0, "note": 62, "velocity": 97, "channel": 0}, {"type": "note_off", "time": 107, "note": 62, "velocity": 97, "channel": 0}, {"type": "note_on", "time": 2, "note": 64, "velocity": 98, "channel": 0}, {"type": "note_off", "time": 84, "note": 64, "velocity": 98, "channel": 0}, {"type": "note_on", "time": 0, "note": 65, "velocity": 99, "channel": 0}, {"type": "note_off", "time": 108, "note": 65, "velocity": 99, "channel": 0}, {"type": "note_on", "time": 0, "note": 67, "velocity": 90, "channel": 0}, {"type": "note_off", "time": 88, "note": 67, "velocity": 90, "channel": 0}, {"type": "note_on", "time": 734, "note": 68, "velocity": 122, "channel": 0}, {"type": "note_off", "time": 129, "note": 68, "velocity": 122, "channel": 0}, {"type": "note_on", "time": 0, "note": 67, "velocity": 109, "channel": 0}, {"type": "note_off", "time": 83, "note": 67, "velocity": 109, "channel": 0}, {"type": "note_on", "time": 0, "note": 65, "velocity": 113, "channel": 0}, {"type": "note_off", "time": 106, "note": 65, "velocity": 113, "channel": 0}, {"type": "note_on", "time": 2, "note": 63, "velocity": 112, "channel": 0}, {"type": "note_off", "time": 77, "note": 63, "velocity": 112, "channel": 0}, {"type": "note_on", "time": 2, "note": 61, "velocity": 104, "channel": 0}, {"type": "note_off", "time": 105, "note": 61, "velocity": 104, "channel": 0}, {"type": "note_on", "time": 0, "note": 60, "velocity": 108, "channel": 0}, {"type": "note_off", "time": 76, "note": 60, "velocity": 108, "channel": 0}, {"type": "note_on", "time": 0, "note": 58, "velocity": 95, "channel": 0}, {"type": "note_off", "time": 183, "note": 58, "velocity": 95, "channel": 0}, {"type": "note_on", "time": 2, "note": 59, "velocity": 93, "channel": 0}, {"type": "note_on", "time": 189, "note": 62, "velocity": 98, "channel": 0}, {"type": "note_off", "time": 0, "note": 59, "velocity": 93, "channel": 0}, {"type": "note_off", "time": 212, "note": 62, "velocity": 98, "channel": 0}, {"type": "note_on", "time": 0, "note": 66, "velocity": 104, "channel": 0}, {"type": "note_off", "time": 117, "note": 66, "velocity": 104, "channel": 0}, {"type": "note_on", "time": 0, "note": 64, "velocity": 99, "channel": 0}, {"type": "note_off", "time": 87, "note": 64, "velocity": 99, "channel": 0}, {"type": "note_on", "time": 0, "note": 62, "velocity": 100, "channel": 0}, {"type": "note_off", "time": 103, "note": 62, "velocity": 100, "channel": 0}, {"type": "note_on", "time": 2, "note": 61, "velocity": 103, "channel": 0}, {"type": "note_on", "time": 100, "note": 59, "velocity": 107, "channel": 0}, {"type": "note_off", "time": 0, "note": 61, "velocity": 103, "channel": 0}, {"type": "note_off", "time": 83, "note": 59, "velocity": 107, "channel": 0}, {"type": "note_on", "time": 0, "note": 58, "velocity": 99, "channel": 0}, {"type": "note_off", "time": 85, "note": 58, "velocity": 99, "channel": 0}, {"type": "note_on", "time": 0, "note": 56, "velocity": 97, "channel": 0}, {"type": "note_off", "time": 185, "note": 56, "velocity": 97, "channel": 0}, {"type": "note_on", "time": 0, "note": 58, "velocity": 94, "channel": 0}, {"type": "note_off", "time": 187, "note": 58, "velocity": 94, "channel": 0}, {"type": "note_on", "time": 2, "note": 59, "velocity": 89, "channel": 0}, {"type": "note_off", "time": 213, "note": 59, "velocity": 89, "channel": 0}, {"type": "note_on", "time": 0, "note": 66, "velocity": 102, "channel": 0}, {"type": "note_on", "time": 98, "note": 64, "velocity": 106, "channel": 0}, {"type": "note_off", "time": 0, "note": 66, "velocity": 102, "channel": 0}, {"type": "note_off", "time": 84, "note": 64, "velocity": 106, "channel": 0}, {"type": "note_on", "time": 0, "note": 62, "velocity": 97, "channel": 0}, {"type": "note_off", "time": 108, "note": 62, "velocity": 97, "channel": 0}, {"type": "note_on", "time": 15, "note": 61, "velocity": 101, "channel": 0}, {"type": "note_off", "time": 100, "note": 61, "velocity": 101, "channel": 0}, {"type": "note_on", "time": 5, "note": 59, "velocity": 97, "channel": 0}, {"type": "note_off", "time": 76, "note": 59, "velocity": 97, "channel": 0}, {"type": "note_on", "time": 0, "note": 57, "velocity": 91, "channel": 0}, {"type": "note_off", "time": 89, "note": 57, "velocity": 91, "channel": 0}, {"type": "note_on", "time": 0, "note": 56, "velocity": 95, "channel": 0}, {"type": "note_off", "time": 98, "note": 56, "velocity": 95, "channel": 0}, {"type": "note_on", "time": 0, "note": 54, "velocity": 96, "channel": 0}, {"type": "note_off", "time": 99, "note": 54, "velocity": 96, "channel": 0}, {"type": "note_on", "time": 0, "note": 53, "velocity": 106, "channel": 0}, {"type": "note_off", "time": 88, "note": 53, "velocity": 106, "channel": 0}, {"type": "note_on", "time": 0, "note": 49, "velocity": 104, "channel": 0}, {"type": "note_off", "time": 98, "note": 49, "velocity": 104, "channel": 0}, {"type": "note_on", "time": 0, "note": 51, "velocity": 95, "channel": 0}, {"type": "note_off", "time": 107, "note": 51, "velocity": 95, "channel": 0}, {"type": "note_on", "time": 3, "note": 53, "velocity": 99, "channel": 0}, {"type": "note_off", "time": 87, "note": 53, "velocity": 99, "channel": 0}, {"type": "note_on", "time": 0, "note": 54, "velocity": 94, "channel": 0}, {"type": "note_off", "time": 83, "note": 54, "velocity": 94, "channel": 0}, {"type": "note_on", "time": 28, "note": 56, "velocity": 91, "channel": 0}, {"type": "note_off", "time": 64, "note": 56, "velocity": 91, "channel": 0}, {"type": "note_on", "time": 0, "note": 57, "velocity": 87, "channel": 0}, {"type": "note_off", "time": 94, "note": 57, "velocity": 87, "channel": 0}, {"type": "note_on", "time": 0, "note": 59, "velocity": 89, "channel": 0}, {"type": "note_off", "time": 77, "note": 59, "velocity": 89, "channel": 0}, {"type": "note_on", "time": 0, "note": 61, "velocity": 114, "channel": 0}, {"type": "note_off", "time": 90, "note": 61, "velocity": 114, "channel": 0}, {"type": "note_on", "time": 7, "note": 63, "velocity": 114, "channel": 0}, {"type": "note_off", "time": 61, "note": 63, "velocity": 114, "channel": 0}, {"type": "note_on", "time": 19, "note": 65, "velocity": 98, "channel": 0}, {"type": "note_off", "time": 87, "note": 65, "velocity": 98, "channel": 0}, {"type": "note_on", "time": 0, "note": 66, "velocity": 95, "channel": 0}, {"type": "note_off", "time": 66, "note": 66, "velocity": 95, "channel": 0}, {"type": "note_on", "time": 38, "note": 68, "velocity": 95, "channel": 0}, {"type": "note_off", "time": 256, "note": 68, "velocity": 95, "channel": 0}, {"type": "note_on", "time": 721, "note": 69, "velocity": 118, "channel": 0}, {"type": "note_off", "time": 108, "note": 69, "velocity": 118, "channel": 0}, {"type": "note_on", "time": 0, "note": 67, "velocity": 105, "channel": 0}, {"type": "note_off", "time": 91, "note": 67, "velocity": 105, "channel": 0}, {"type": "note_on", "time": 0, "note": 66, "velocity": 103, "channel": 0}, {"type": "note_off", "time": 84, "note": 66, "velocity": 103, "channel": 0}, {"type": "note_on", "time": 0, "note": 67, "velocity": 95, "channel": 0}, {"type": "note_off", "time": 87, "note": 67, "velocity": 95, "channel": 0}, {"type": "note_on", "time": 3, "note": 70, "velocity": 119, "channel": 0}, {"type": "note_off", "time": 91, "note": 70, "velocity": 119, "channel": 0}, {"type": "note_on", "time": 0, "note": 69, "velocity": 116, "channel": 0}, {"type": "note_off", "time": 81, "note": 69, "velocity": 116, "channel": 0}, {"type": "note_on", "time": 0, "note": 67, "velocity": 99, "channel": 0}, {"type": "note_off", "time": 113, "note": 67, "velocity": 99, "channel": 0}, {"type": "note_on", "time": 1, "note": 65, "velocity": 110, "channel": 0}, {"type": "note_off", "time": 87, "note": 65, "velocity": 110, "channel": 0}, {"type": "note_on", "time": 0, "note": 64, "velocity": 103, "channel": 0}, {"type": "note_off", "time": 101, "note": 64, "velocity": 103, "channel": 0}, {"type": "note_on", "time": 0, "note": 62, "velocity": 100, "channel": 0}, {"type": "note_off", "time": 81, "note": 62, "velocity": 100, "channel": 0}, {"type": "note_on", "time": 0, "note": 60, "velocity": 103, "channel": 0}, {"type": "note_off", "time": 83, "note": 60, "velocity": 103, "channel": 0}, {"type": "note_on", "time": 21, "note": 58, "velocity": 94, "channel": 0}, {"type": "note_off", "time": 66, "note": 58, "velocity": 94, "channel": 0}, {"type": "note_on", "time": 21, "note": 57, "velocity": 88, "channel": 0}, {"type": "note_off", "time": 101, "note": 57, "velocity": 88, "channel": 0}, {"type": "note_on", "time": 0, "note": 60, "velocity": 92, "channel": 0}, {"type": "note_off", "time": 112, "note": 60, "velocity": 92, "channel": 0}, {"type": "note_on", "time": 11, "note": 62, "velocity": 85, "channel": 0}, {"type": "note_off", "time": 103, "note": 62, "velocity": 85, "channel": 0}, {"type": "note_on", "time": 0, "note": 64, "velocity": 99, "channel": 0}, {"type": "note_off", "time": 80, "note": 64, "velocity": 99, "channel": 0}, {"type": "note_on", "time": 10, "note": 67, "velocity": 95, "channel": 0}, {"type": "note_off", "time": 96, "note": 67, "velocity": 95, "channel": 0}, {"type": "note_on", "time": 0, "note": 65, "velocity": 97, "channel": 0}, {"type": "note_off", "time": 91, "note": 65, "velocity": 97, "channel": 0}, {"type": "note_on", "time": 10, "note": 64, "velocity": 99, "channel": 0}, {"type": "note_off", "time": 99, "note": 64, "velocity": 99, "channel": 0}, {"type": "note_on", "time": 0, "note": 65, "velocity": 99, "channel": 0}, {"type": "note_off", "time": 107, "note": 65, "velocity": 99, "channel": 0}, {"type": "note_on", "time": 0, "note": 72, "velocity": 127, "channel": 0}, {"type": "note_off", "time": 67, "note": 72, "velocity": 127, "channel": 0}, {"type": "note_on", "time": 111, "note": 70, "velocity": 113, "channel": 0}, {"type": "note_off", "time": 108, "note": 70, "velocity": 113, "channel": 0}, {"type": "note_on", "time": 0, "note": 69, "velocity": 109, "channel": 0}, {"type": "note_off", "time": 77, "note": 69, "velocity": 109, "channel": 0}, {"type": "note_on", "time": 0, "note": 67, "velocity": 89, "channel": 0}, {"type": "note_off", "time": 94, "note": 67, "velocity": 89, "channel": 0}, {"type": "note_on", "time": 14, "note": 65, "velocity": 104, "channel": 0}, {"type": "note_off", "time": 81, "note": 65, "velocity": 104, "channel": 0}, {"type": "note_on", "time": 10, "note": 64, "velocity": 108, "channel": 0}, {"type": "note_off", "time": 100, "note": 64, "velocity": 108, "channel": 0}, {"type": "note_on", "time": 0, "note": 60, "velocity": 100, "channel": 0}, {"type": "note_on", "time": 86, "note": 62, "velocity": 92, "channel": 0}, {"type": "note_off", "time": 0, "note": 60, "velocity": 100, "channel": 0}, {"type": "note_off", "time": 83, "note": 62, "velocity": 92, "channel": 0}, {"type": "note_on", "time": 0, "note": 64, "velocity": 96, "channel": 0}, {"type": "note_off", "time": 81, "note": 64, "velocity": 96, "channel": 0}, {"type": "note_on", "time": 0, "note": 67, "velocity": 102, "channel": 0}, {"type": "note_off", "time": 87, "note": 67, "velocity": 102, "channel": 0}, {"type": "note_on", "time": 24, "note": 66, "velocity": 104, "channel": 0}, {"type": "note_off", "time": 78, "note": 66, "velocity": 104, "channel": 0}, {"type": "note_on", "time": 10, "note": 65, "velocity": 92, "channel": 0}, {"type": "note_off", "time": 98, "note": 65, "velocity": 92, "channel": 0}, {"type": "note_on", "time": 1, "note": 62, "velocity": 97, "channel": 0}, {"type": "note_off", "time": 91, "note": 62, "velocity": 97, "channel": 0}, {"type": "note_on", "time": 9, "note": 58, "velocity": 89, "channel": 0}, {"type": "note_off", "time": 106, "note": 58, "velocity": 89, "channel": 0}, {"type": "note_on", "time": 3, "note": 55, "velocity": 82, "channel": 0}, {"type": "note_off", "time": 95, "note": 55, "velocity": 82, "channel": 0}, {"type": "note_on", "time": 0, "note": 57, "velocity": 86, "channel": 0}, {"type": "note_off", "time": 92, "note": 57, "velocity": 86, "channel": 0}, {"type": "note_on", "time": 0, "note": 58, "velocity": 84, "channel": 0}, {"type": "note_off", "time": 81, "note": 58, "velocity": 84, "channel": 0}, {"type": "note_on", "time": 15, "note": 60, "velocity": 101, "channel": 0}, {"type": "note_off", "time": 90, "note": 60, "velocity": 101, "channel": 0}, {"type": "note_on", "time": 0, "note": 62, "velocity": 104, "channel": 0}, {"type": "note_off", "time": 90, "note": 62, "velocity": 104, "channel": 0}, {"type": "note_on", "time": 0, "note": 63, "velocity": 99, "channel": 0}, {"type": "note_off", "time": 99, "note": 63, "velocity": 99, "channel": 0}, {"type": "note_on", "time": 0, "note": 65, "velocity": 98, "channel": 0}, {"type": "note_off", "time": 87, "note": 65, "velocity": 98, "channel": 0}, {"type": "note_on", "time": 0, "note": 67, "velocity": 107, "channel": 0}, {"type": "note_off", "time": 120, "note": 67, "velocity": 107, "channel": 0}, {"type": "note_on", "time": 632, "note": 62, "velocity": 112, "channel": 0}, {"type": "note_off", "time": 118, "note": 62, "velocity": 112, "channel": 0}, {"type": "note_on", "time": 0, "note": 65, "velocity": 90, "channel": 0}, {"type": "note_off", "time": 64, "note": 65, "velocity": 90, "channel": 0}, {"type": "note_on", "time": 0, "note": 72, "velocity": 117, "channel": 0}, {"type": "note_off", "time": 108, "note": 72, "velocity": 117, "channel": 0}, {"type": "note_on", "time": 0, "note": 70, "velocity": 112, "channel": 0}, {"type": "note_off", "time": 78, "note": 70, "velocity": 112, "channel": 0}, {"type": "note_on", "time": 117, "note": 65, "velocity": 109, "channel": 0}, {"type": "note_off", "time": 81, "note": 65, "velocity": 109, "channel": 0}, {"type": "note_on", "time": 0, "note": 61, "velocity": 113, "channel": 0}, {"type": "note_off", "time": 77, "note": 61, "velocity": 113, "channel": 0}, {"type": "note_on", "time": 0, "note": 60, "velocity": 103, "channel": 0}, {"type": "note_off", "time": 59, "note": 60, "velocity": 103, "channel": 0}, {"type": "note_on", "time": 18, "note": 58, "velocity": 101, "channel": 0}, {"type": "note_off", "time": 107, "note": 58, "velocity": 101, "channel": 0}, {"type": "note_on", "time": 18, "note": 57, "velocity": 94, "channel": 0}, {"type": "note_off", "time": 87, "note": 57, "velocity": 94, "channel": 0}, {"type": "note_on", "time": 0, "note": 55, "velocity": 89, "channel": 0}, {"type": "note_off", "time": 99, "note": 55, "velocity": 89, "channel": 0}, {"type": "note_on", "time": 5, "note": 53, "velocity": 99, "channel": 0}, {"type": "note_off", "time": 91, "note": 53, "velocity": 99, "channel": 0}, {"type": "note_on", "time": 0, "note": 52, "velocity": 92, "channel": 0}, {"type": "note_off", "time": 111, "note": 52, "velocity": 92, "channel": 0}, {"type": "note_on", "time": 3, "note": 53, "velocity": 94, "channel": 0}, {"type": "note_on", "time": 74, "note": 57, "velocity": 91, "channel": 0}, {"type": "note_off", "time": 0, "note": 53, "velocity": 94, "channel": 0}, {"type": "note_off", "time": 88, "note": 57, "velocity": 91, "channel": 0}, {"type": "note_on", "time": 19, "note": 60, "velocity": 103, "channel": 0}, {"type": "note_off", "time": 87, "note": 60, "velocity": 103, "channel": 0}, {"type": "note_on", "time": 0, "note": 62, "velocity": 88, "channel": 0}, {"type": "note_off", "time": 99, "note": 62, "velocity": 88, "channel": 0}, {"type": "note_on", "time": 22, "note": 64, "velocity": 97, "channel": 0}, {"type": "note_on", "time": 74, "note": 67, "velocity": 97, "channel": 0}, {"type": "note_off", "time": 0, "note": 64, "velocity": 97, "channel": 0}, {"type": "note_off", "time": 101, "note": 67, "velocity": 97, "channel": 0}, {"type": "note_on", "time": 23, "note": 64, "velocity": 102, "channel": 0}, {"type": "note_on", "time": 87, "note": 65, "velocity": 100, "channel": 0}, {"type": "note_off", "time": 0, "note": 64, "velocity": 102, "channel": 0}, {"type": "note_off", "time": 106, "note": 65, "velocity": 100, "channel": 0}, {"type": "note_on", "time": 0, "note": 67, "velocity": 94, "channel": 0}, {"type": "note_off", "time": 82, "note": 67, "velocity": 94, "channel": 0}, {"type": "note_on", "time": 1, "note": 69, "velocity": 94, "channel": 0}, {"type": "note_off", "time": 101, "note": 69, "velocity": 94, "channel": 0}, {"type": "note_on", "time": 0, "note": 70, "velocity": 101, "channel": 0}, {"type": "note_off", "time": 103, "note": 70, "velocity": 101, "channel": 0}, {"type": "note_on", "time": 0, "note": 72, "velocity": 100, "channel": 0}, {"type": "note_off", "time": 121, "note": 72, "velocity": 100, "channel": 0}, {"type": "end_of_track", "time": 0}]]}