{"ticks_per_beat": 192, "tracks": [[{"type": "track_name", "name": "Melody", "time": 0}, {"type": "set_tempo", "tempo": 342857, "time": 0}, {"type": "key_signature", "key": "F", "time": 0}, {"type": "time_signature", "numerator": 4, "denominator": 4, "clocks_per_click": 24, "notated_32nd_notes_per_beat": 8, "time": 0}, {"type": "note_on", "time": 1890, "note": 62, "velocity": 118, "channel": 0}, {"type": "note_off", "time": 114, "note": 62, "velocity": 118, "channel": 0}, {"type": "note_on", "time": 16, "note": 65, "velocity": 113, "channel": 0}, {"type": "note_off", "time": 93, "note": 65, "velocity": 113, "channel": 0}, {"type": "note_on", "time": 92, "note": 69, "velocity": 125, "channel": 0}, {"type": "note_off", "time": 84, "note": 69, "velocity": 125, "channel": 0}, {"type": "note_on", "time": 6, "note": 72, "velocity": 119, "channel": 0}, {"type": "note_off", "time": 92, "note": 72, "velocity": 119, "channel": 0}, {"type": "note_on", "time": 12, "note": 71, "velocity": 117, "channel": 0}, {"type": "note_off", "time": 92, "note": 71, "velocity": 117, "channel": 0}, {"type": "note_on", "time": 8, "note": 70, "velocity": 108, "channel": 0}, {"type": "note_off", "time": 88, "note": 70, "velocity": 108, "channel": 0}, {"type": "note_on", "time": 0, "note": 69, "velocity": 115, "channel": 0}, {"type": "note_off", "time": 100, "note": 69, "velocity": 115, "channel": 0}, {"type": "note_on", "time": 5, "note": 67, "velocity": 101, "channel": 0}, {"type": "note_off", "time": 86, "note": 67, "velocity": 101, "channel": 0}, {"type": "note_on", "time": 1, "note": 65, "velocity": 105, "channel": 0}, {"type": "note_off", "time": 91, "note": 65, "velocity": 105, "channel": 0}, {"type": "note_on", "time": 8, "note": 64, "velocity": 110, "channel": 0}, {"type": "note_off", "time": 117, "note": 64, "velocity": 110, "channel": 0}, {"type": "note_on", "time": 1, "note": 65, "velocity": 110, "channel": 0}, {"type": "note_off", "time": 96, "note": 65, "velocity": 110, "channel": 0}, {"type": "note_on", "time": 67, "note": 69, "velocity": 120, "channel": 0}, {"type": "note_off", "time": 82, "note": 69, "velocity": 120, "channel": 0}, {"type": "note_on", "time": 5, "note": 74, "velocity": 116, "channel": 0}, {"type": "note_off", "time": 90, "note": 74, "velocity": 116, "channel": 0}, {"type": "note_on", "time": 11, "note": 72, "velocity": 123, "channel": 0}, {"type": "note_off", "time": 82, "note": 72, "velocity": 123, "channel": 0}, {"type": "note_on", "time": 8, "note": 70, "velocity": 105, "channel": 0}, {"type": "note_off", "time": 94, "note": 70, "velocity": 105, "channel": 0}, {"type": "note_on", "time": 10, "note": 69, "velocity": 117, "channel": 0}, {"type": "note_off", "time": 80, "note": 69, "velocity": 117, "channel": 0}, {"type": "note_on", "time": 13, "note": 67, "velocity": 102, "channel": 0}, {"type": "note_off", "time": 89, "note": 67, "velocity": 102, "channel": 0}, {"type": "note_on", "time": 0, "note": 65, "velocity": 104, "channel": 0}, {"type": "note_off", "time": 61, "note": 65, "velocity": 104, "channel": 0}, {"type": "note_on", "time": 7, "note": 64, "velocity": 109, "channel": 0}, {"type": "note_off", "time": 114, "note": 64, "velocity": 109, "channel": 0}, {"type": "note_on", "time": 13, "note": 62, "velocity": 108, "channel": 0}, {"type": "note_off", "time": 67, "note": 62, "velocity": 108, "channel": 0}, {"type": "note_on", "time": 12, "note": 60, "velocity": 114, "channel": 0}, {"type": "note_off", "time": 94, "note": 60, "velocity": 114, "channel": 0}, {"type": "note_on", "time": 12, "note": 58, "velocity": 100, "channel": 0}, {"type": "note_off", "time": 57, "note": 58, "velocity": 100, "channel": 0}, {"type": "note_on", "time": 27, "note": 56, "velocity": 97, "channel": 0}, {"type": "note_off", "time": 101, "note": 56, "velocity": 97, "channel": 0}, {"type": "note_on", "time": 10, "note": 60, "velocity": 108, "channel": 0}, {"type": "note_off", "time": 98, "note": 60, "velocity": 108, "channel": 0}, {"type": "note_on", "time": 70, "note": 63, "velocity": 127, "channel": 0}, {"type": "note_off", "time": 86, "note": 63, "velocity": 127, "channel": 0}, {"type": "note_on", "time": 5, "note": 67, "velocity": 105, "channel": 0}, {"type": "note_off", "time": 133, "note": 67, "velocity": 105, "channel": 0}, {"type": "note_on", "time": 41, "note": 59, "velocity": 106, "channel": 0}, {"type": "note_off", "time": 148, "note": 59, "velocity": 106, "channel": 0}, {"type": "note_on", "time": 12, "note": 66, "velocity": 102, "channel": 0}, {"type": "note_off", "time": 96, "note": 66, "velocity": 102, "channel": 0}, {"type": "note_on", "time": 5, "note": 64, "velocity": 108, "channel": 0}, {"type": "note_off", "time": 83, "note": 64, "velocity": 108, "channel": 0}, {"type": "note_on", "time": 4, "note": 62, "velocity": 105, "channel": 0}, {"type": "note_off", "time": 67, "note": 62, "velocity": 105, "channel": 0}, {"type": "note_on", "time": 6, "note": 60, "velocity": 103, "channel": 0}, {"type": "note_off", "time": 84, "note": 60, "velocity": 103, "channel": 0}, {"type": "note_on", "time": 2, "note": 59, "velocity": 102, "channel": 0}, {"type": "note_off", "time": 90, "note": 59, "velocity": 102, "channel": 0}, {"type": "note_on", "time": 11, "note": 57, "velocity": 96, "channel": 0}, {"type": "note_off", "time": 90, "note": 57, "velocity": 96, "channel": 0}, {"type": "note_on", "time": 1, "note": 55, "velocity": 96, "channel": 0}, {"type": "note_off", "time": 65, "note": 55, "velocity": 96, "channel": 0}, {"type": "note_on", "time": 14, "note": 54, "velocity": 99, "channel": 0}, {"type": "note_off", "time": 84, "note": 54, "velocity": 99, "channel": 0}, {"type": "note_on", "time": 10, "note": 57, "velocity": 97, "channel": 0}, {"type": "note_off", "time": 70, "note": 57, "velocity": 97, "channel": 0}, {"type": "note_on", "time": 31, "note": 61, "velocity": 120, "channel": 0}, {"type": "note_off", "time": 84, "note": 61, "velocity": 120, "channel": 0}, {"type": "note_on", "time": 14, "note": 64, "velocity": 111, "channel": 0}, {"type": "note_off", "time": 81, "note": 64, "velocity": 111, "channel": 0}, {"type": "note_on", "time": 14, "note": 68, "velocity": 116, "channel": 0}, {"type": "note_off", "time": 104, "note": 68, "velocity": 116, "channel": 0}, {"type": "note_on", "time": 7, "note": 66, "velocity": 91, "channel": 0}, {"type": "note_off", "time": 67, "note": 66, "velocity": 91, "channel": 0}, {"type": "note_on", "time": 10, "note": 63, "velocity": 106, "channel": 0}, {"type": "note_off", "time": 59, "note": 63, "velocity": 106, "channel": 0}, {"type": "note_on", "time": 15, "note": 64, "velocity": 105, "channel": 0}, {"type": "note_off", "time": 50, "note": 64, "velocity": 105, "channel": 0}, {"type": "note_on", "time": 11, "note": 67, "velocity": 100, "channel": 0}, {"type": "note_off", "time": 62, "note": 67, "velocity": 100, "channel": 0}, {"type": "note_on", "time": 1, "note": 72, "velocity": 98, "channel": 0}, {"type": "note_off", "time": 182, "note": 72, "velocity": 98, "channel": 0}, {"type": "note_on", "time": 560, "note": 69, "velocity": 121, "channel": 0}, {"type": "note_off", "time": 100, "note": 69, "velocity": 121, "channel": 0}, {"type": "note_on", "time": 13, "note": 70, "velocity": 108, "channel": 0}, {"type": "note_off", "time": 67, "note": 70, "velocity": 108, "channel": 0}, {"type": "note_on", "time": 10, "note": 72, "velocity": 126, "channel": 0}, {"type": "note_off", "time": 100, "note": 72, "velocity": 126, "channel": 0}, {"type": "note_on", "time": 6, "note": 74, "velocity": 120, "channel": 0}, {"type": "note_off", "time": 93, "note": 74, "velocity": 120, "channel": 0}, {"type": "note_on", "time": 5, "note": 75, "velocity": 124, "channel": 0}, {"type": "note_off", "time": 116, "note": 75, "velocity": 124, "channel": 0}, {"type": "note_on", "time": 58, "note": 72, "velocity": 114, "channel": 0}, {"type": "note_off", "time": 193, "note": 72, "velocity": 114, "channel": 0}, {"type": "note_on", "time": 6, "note": 74, "velocity": 116, "channel": 0}, {"type": "note_off", "time": 97, "note": 74, "velocity": 116, "channel": 0}, {"type": "note_on", "time": 3, "note": 72, "velocity": 120, "channel": 0}, {"type": "note_off", "time": 92, "note": 72, "velocity": 120, "channel": 0}, {"type": "note_on", "time": 3, "note": 70, "velocity": 107, "channel": 0}, {"type": "note_off", "time": 93, "note": 70, "velocity": 107, "channel": 0}, {"type": "note_on", "time": 5, "note": 69, "velocity": 111, "channel": 0}, {"type": "note_off", "time": 92, "note": 69, "velocity": 111, "channel": 0}, {"type": "note_on", "time": 13, "note": 67, "velocity": 97, "channel": 0}, {"type": "note_off", "time": 83, "note": 67, "velocity": 97, "channel": 0}, {"type": "note_on", "time": 11, "note": 65, "velocity": 100, "channel": 0}, {"type": "note_off", "time": 68, "note": 65, "velocity": 100, "channel": 0}, {"type": "note_on", "time": 5, "note": 64, "velocity": 108, "channel": 0}, {"type": "note_off", "time": 110, "note": 64, "velocity": 108, "channel": 0}, {"type": "note_on", "time": 8, "note": 65, "velocity": 98, "channel": 0}, {"type": "note_off", "time": 82, "note": 65, "velocity": 98, "channel": 0}, {"type": "note_on", "time": 6, "note": 67, "velocity": 102, "channel": 0}, {"type": "note_off", "time": 93, "note": 67, "velocity": 102, "channel": 0}, {"type": "note_on", "time": 9, "note": 69, "velocity": 118, "channel": 0}, {"type": "note_off", "time": 100, "note": 69, "velocity": 118, "channel": 0}, {"type": "note_on", "time": 5, "note": 70, "velocity": 99, "channel": 0}, {"type": "note_off", "time": 72, "note": 70, "velocity": 99, "channel": 0}, {"type": "note_on", "time": 12, "note": 72, "velocity": 121, "channel": 0}, {"type": "note_off", "time": 98, "note": 72, "velocity": 121, "channel": 0}, {"type": "note_on", "time": 1, "note": 73, "velocity": 118, "channel": 0}, {"type": "note_off", "time": 100, "note": 73, "velocity": 118, "channel": 0}, {"type": "note_on", "time": 5, "note": 69, "velocity": 115, "channel": 0}, {"type": "note_on", "time": 72, "note": 64, "velocity": 109, "channel": 0}, {"type": "note_off", "time": 0, "note": 69, "velocity": 115, "channel": 0}, {"type": "note_off", "time": 101, "note": 64, "velocity": 109, "channel": 0}, {"type": "note_on", "time": 20, "note": 61, "velocity": 109, "channel": 0}, {"type": "note_off", "time": 235, "note": 61, "velocity": 109, "channel": 0}, {"type": "note_on", "time": 48, "note": 64, "velocity": 112, "channel": 0}, {"type": "note_off", "time": 93, "note": 64, "velocity": 112, "channel": 0}, {"type": "note_on", "time": 10, "note": 61, "velocity": 108, "channel": 0}, {"type": "note_off", "time": 59, "note": 61, "velocity": 108, "channel": 0}, {"type": "note_on", "time": 18, "note": 64, "velocity": 110, "channel": 0}, {"type": "note_off", "time": 113, "note": 64, "velocity": 110, "channel": 0}, {"type": "note_on", "time": 8, "note": 61, "velocity": 117, "channel": 0}, {"type": "note_off", "time": 79, "note": 61, "velocity": 117, "channel": 0}, {"type": "note_on", "time": 10, "note": 60, "velocity": 94, "channel": 0}, {"type": "note_off", "time": 378, "note": 60, "velocity": 94, "channel": 0}, {"type": "note_on", "time": 578, "note": 62, "velocity": 122, "channel": 0}, {"type": "note_off", "time": 83, "note": 62, "velocity": 122, "channel": 0}, {"type": "note_on", "time": 0, "note": 60, "velocity": 107, "channel": 0}, {"type": "note_off", "time": 97, "note": 60, "velocity": 107, "channel": 0}, {"type": "note_on", "time": 0, "note": 59, "velocity": 99, "channel": 0}, {"type": "note_off", "time": 74, "note": 59, "velocity": 99, "channel": 0}, {"type": "note_on", "time": 22, "note": 62, "velocity": 116, "channel": 0}, {"type": "note_off", "time": 65, "note": 62, "velocity": 116, "channel": 0}, {"type": "note_on", "time": 22, "note": 66, "velocity": 108, "channel": 0}, {"type": "note_off", "time": 89, "note": 66, "velocity": 108, "channel": 0}, {"type": "note_on", "time": 9, "note": 64, "velocity": 114, "channel": 0}, {"type": "note_off", "time": 94, "note": 64, "velocity": 114, "channel": 0}, {"type": "note_on", "time": 7, "note": 62, "velocity": 113, "channel": 0}, {"type": "note_off", "time": 86, "note": 62, "velocity": 113, "channel": 0}, {"type": "note_on", "time": 9, "note": 60, "velocity": 107, "channel": 0}, {"type": "note_off", "time": 90, "note": 60, "velocity": 107, "channel": 0}, {"type": "note_on", "time": 1, "note": 59, "velocity": 99, "channel": 0}, {"type": "note_off", "time": 100, "note": 59, "velocity": 99, "channel": 0}, {"type": "note_on", "time": 0, "note": 57, "velocity": 101, "channel": 0}, {"type": "note_off", "time": 75, "note": 57, "velocity": 101, "channel": 0}, {"type": "note_on", "time": 7, "note": 56, "velocity": 97, "channel": 0}, {"type": "note_off", "time": 101, "note": 56, "velocity": 97, "channel": 0}, {"type": "note_on", "time": 10, "note": 59, "velocity": 103, "channel": 0}, {"type": "note_off", "time": 64, "note": 59, "velocity": 103, "channel": 0}, {"type": "note_on", "time": 23, "note": 64, "velocity": 119, "channel": 0}, {"type": "note_off", "time": 91, "note": 64, "velocity": 119, "channel": 0}, {"type": "note_on", "time": 5, "note": 63, "velocity": 121, "channel": 0}, {"type": "note_off", "time": 93, "note": 63, "velocity": 121, "channel": 0}, {"type": "note_on", "time": 0, "note": 61, "velocity": 112, "channel": 0}, {"type": "note_off", "time": 102, "note": 61, "velocity": 112, "channel": 0}, {"type": "note_on", "time": 5, "note": 60, "velocity": 105, "channel": 0}, {"type": "note_off", "time": 76, "note": 60, "velocity": 105, "channel": 0}, {"type": "note_on", "time": 8, "note": 58, "velocity": 102, "channel": 0}, {"type": "note_off", "time": 78, "note": 58, "velocity": 102, "channel": 0}, {"type": "note_on", "time": 24, "note": 57, "velocity": 105, "channel": 0}, {"type": "note_off", "time": 80, "note": 57, "velocity": 105, "channel": 0}, {"type": "note_on", "time": 1, "note": 55, "velocity": 97, "channel": 0}, {"type": "note_off", "time": 70, "note": 55, "velocity": 97, "channel": 0}, {"type": "note_on", "time": 5, "note": 53, "velocity": 102, "channel": 0}, {"type": "note_off", "time": 104, "note": 53, "velocity": 102, "channel": 0}, {"type": "note_on", "time": 6, "note": 52, "velocity": 104, "channel": 0}, {"type": "note_off", "time": 57, "note": 52, "velocity": 104, "channel": 0}, {"type": "note_on", "time": 9, "note": 53, "velocity": 98, "channel": 0}, {"type": "note_off", "time": 53, "note": 53, "velocity": 98, "channel": 0}, {"type": "note_on", "time": 11, "note": 57, "velocity": 94, "channel": 0}, {"type": "note_off", "time": 38, "note": 57, "velocity": 94, "channel": 0}, {"type": "note_on", "time": 3, "note": 62, "velocity": 111, "channel": 0}, {"type": "note_off", "time": 65, "note": 62, "velocity": 111, "channel": 0}, {"type": "note_on", "time": 45, "note": 55, "velocity": 96, "channel": 0}, {"type": "note_off", "time": 35, "note": 55, "velocity": 96, "channel": 0}, {"type": "note_on", "time": 3, "note": 57, "velocity": 98, "channel": 0}, {"type": "note_off", "time": 50, "note": 57, "velocity": 98, "channel": 0}, {"type": "note_on", "time": 11, "note": 60, "velocity": 92, "channel": 0}, {"type": "note_off", "time": 44, "note": 60, "velocity": 92, "channel": 0}, {"type": "note_on", "time": 11, "note": 64, "velocity": 107, "channel": 0}, {"type": "note_off", "time": 65, "note": 64, "velocity": 107, "channel": 0}, {"type": "note_on", "time": 6, "note": 67, "velocity": 111, "channel": 0}, {"type": "note_off", "time": 75, "note": 67, "velocity": 111, "channel": 0}, {"type": "note_on", "time": 3, "note": 65, "velocity": 109, "channel": 0}, {"type": "note_off", "time": 65, "note": 65, "velocity": 109, "channel": 0}, {"type": "note_on", "time": 3, "note": 64, "velocity": 111, "channel": 0}, {"type": "note_off", "time": 68, "note": 64, "velocity": 111, "channel": 0}, {"type": "note_on", "time": 6, "note": 62, "velocity": 108, "channel": 0}, {"type": "note_off", "time": 57, "note": 62, "velocity": 108, "channel": 0}, {"type": "note_on", "time": 0, "note": 60, "velocity": 103, "channel": 0}, {"type": "note_off", "time": 85, "note": 60, "velocity": 103, "channel": 0}, {"type": "note_on", "time": 0, "note": 58, "velocity": 96, "channel": 0}, {"type": "note_off", "time": 34, "note": 58, "velocity": 96, "channel": 0}, {"type": "note_on", "time": 11, "note": 57, "velocity": 98, "channel": 0}, {"type": "note_off", "time": 66, "note": 57, "velocity": 98, "channel": 0}, {"type": "note_on", "time": 10, "note": 55, "velocity": 95, "channel": 0}, {"type": "note_off", "time": 40, "note": 55, "velocity": 95, "channel": 0}, {"type": "note_on", "time": 13, "note": 53, "velocity": 106, "channel": 0}, {"type": "note_off", "time": 84, "note": 53, "velocity": 106, "channel": 0}, {"type": "note_on", "time": 10, "note": 51, "velocity": 90, "channel": 0}, {"type": "note_off", "time": 218, "note": 51, "velocity": 90, "channel": 0}, {"type": "end_of_track", "time": 0}]]}