{"ticks_per_beat": 840, "tracks": [[{"type": "track_name", "name": "Melody", "time": 0}, {"type": "set_tempo", "tempo": 431654, "time": 0}, {"type": "key_signature", "key": "F", "time": 0}, {"type": "time_signature", "numerator": 4, "denominator": 4, "clocks_per_click": 24, "notated_32nd_notes_per_beat": 8, "time": 0}, {"type": "note_on", "time": 11120, "note": 67, "velocity": 110, "channel": 0}, {"type": "note_off", "time": 413, "note": 67, "velocity": 110, "channel": 0}, {"type": "note_on", "time": 262, "note": 67, "velocity": 114, "channel": 0}, {"type": "note_off", "time": 1167, "note": 67, "velocity": 114, "channel": 0}, {"type": "note_on", "time": 23, "note": 65, "velocity": 108, "channel": 0}, {"type": "note_off", "time": 278, "note": 65, "velocity": 108, "channel": 0}, {"type": "note_on", "time": 31, "note": 67, "velocity": 115, "channel": 0}, {"type": "note_off", "time": 238, "note": 67, "velocity": 115, "channel": 0}, {"type": "note_on", "time": 23, "note": 70, "velocity": 115, "channel": 0}, {"type": "note_off", "time": 270, "note": 70, "velocity": 115, "channel": 0}, {"type": "note_on", "time": 3629, "note": 67, "velocity": 114, "channel": 0}, {"type": "note_off", "time": 262, "note": 67, "velocity": 114, "channel": 0}, {"type": "note_on", "time": 31, "note": 70, "velocity": 114, "channel": 0}, {"type": "note_off", "time": 468, "note": 70, "velocity": 114, "channel": 0}, {"type": "note_on", "time": 15, "note": 67, "velocity": 117, "channel": 0}, {"type": "note_off", "time": 198, "note": 67, "velocity": 117, "channel": 0}, {"type": "note_on", "time": 23, "note": 70, "velocity": 98, "channel": 0}, {"type": "note_off", "time": 127, "note": 70, "velocity": 98, "channel": 0}, {"type": "note_on", "time": 31, "note": 67, "velocity": 112, "channel": 0}, {"type": "note_off", "time": 333, "note": 67, "velocity": 112, "channel": 0}, {"type": "note_on", "time": 15, "note": 70, "velocity": 111, "channel": 0}, {"type": "note_off", "time": 254, "note": 70, "velocity": 111, "channel": 0}, {"type": "note_on", "time": 47, "note": 67, "velocity": 120, "channel": 0}, {"type": "note_off", "time": 158, "note": 67, "velocity": 120, "channel": 0}, {"type": "note_on", "time": 0, "note": 65, "velocity": 99, "channel": 0}, {"type": "note_off", "time": 111, "note": 65, "velocity": 99, "channel": 0}, {"type": "note_on", "time": 37, "note": 67, "velocity": 112, "channel": 0}, {"type": "note_off", "time": 259, "note": 67, "velocity": 112, "channel": 0}, {"type": "note_on", "time": 11, "note": 70, "velocity": 106, "channel": 0}, {"type": "note_off", "time": 191, "note": 70, "velocity": 106, "channel": 0}, {"type": "note_on", "time": 0, "note": 67, "velocity": 120, "channel": 0}, {"type": "note_off", "time": 190, "note": 67, "velocity": 120, "channel": 0}, {"type": "note_on", "time": 0, "note": 65, "velocity": 107, "channel": 0}, {"type": "note_off", "time": 92, "note": 65, "velocity": 107, "channel": 0}, {"type": "note_on", "time": 0, "note": 67, "velocity": 109, "channel": 0}, {"type": "note_off", "time": 666, "note": 67, "velocity": 109, "channel": 0}, {"type": "note_on", "time": 0, "note": 70, "velocity": 110, "channel": 0}, {"type": "note_off", "time": 305, "note": 70, "velocity": 110, "channel": 0}, {"type": "note_on", "time": 3408, "note": 70, "velocity": 96, "channel": 0}, {"type": "note_off", "time": 150, "note": 70, "velocity": 96, "channel": 0}, {"type": "note_on", "time": 7, "note": 72, "velocity": 106, "channel": 0}, {"type": "note_off", "time": 1652, "note": 72, "velocity": 106, "channel": 0}, {"type": "note_on", "time": 31, "note": 67, "velocity": 109, "channel": 0}, {"type": "note_off", "time": 317, "note": 67, "velocity": 109, "channel": 0}, {"type": "note_on", "time": 31, "note": 72, "velocity": 109, "channel": 0}, {"type": "note_off", "time": 444, "note": 72, "velocity": 109, "channel": 0}, {"type": "note_on", "time": 15, "note": 67, "velocity": 116, "channel": 0}, {"type": "note_off", "time": 349, "note": 67, "velocity": 116, "channel": 0}, {"type": "note_on", "time": 254, "note": 67, "velocity": 113, "channel": 0}, {"type": "note_off", "time": 238, "note": 67, "velocity": 113, "channel": 0}, {"type": "note_on", "time": 0, "note": 65, "velocity": 110, "channel": 0}, {"type": "note_off", "time": 293, "note": 65, "velocity": 110, "channel": 0}, {"type": "note_on", "time": 23, "note": 67, "velocity": 112, "channel": 0}, {"type": "note_off", "time": 1469, "note": 67, "velocity": 112, "channel": 0}, {"type": "note_on", "time": 30, "note": 65, "velocity": 106, "channel": 0}, {"type": "note_off", "time": 214, "note": 65, "velocity": 106, "channel": 0}, {"type": "note_on", "time": 33, "note": 67, "velocity": 114, "channel": 0}, {"type": "note_off", "time": 203, "note": 67, "velocity": 114, "channel": 0}, {"type": "note_on", "time": 0, "note": 65, "velocity": 112, "channel": 0}, {"type": "note_off", "time": 225, "note": 65, "velocity": 112, "channel": 0}, {"type": "note_on", "time": 11, "note": 63, "velocity": 121, "channel": 0}, {"type": "note_off", "time": 237, "note": 63, "velocity": 121, "channel": 0}, {"type": "note_on", "time": 3174, "note": 70, "velocity": 101, "channel": 0}, {"type": "note_off", "time": 67, "note": 70, "velocity": 101, "channel": 0}, {"type": "note_on", "time": 50, "note": 72, "velocity": 108, "channel": 0}, {"type": "note_off", "time": 1112, "note": 72, "velocity": 108, "channel": 0}, {"type": "note_on", "time": 0, "note": 70, "velocity": 115, "channel": 0}, {"type": "note_off", "time": 571, "note": 70, "velocity": 115, "channel": 0}, {"type": "note_on", "time": 7, "note": 72, "velocity": 106, "channel": 0}, {"type": "note_off", "time": 198, "note": 72, "velocity": 106, "channel": 0}, {"type": "note_on", "time": 1334, "note": 74, "velocity": 98, "channel": 0}, {"type": "note_off", "time": 166, "note": 74, "velocity": 98, "channel": 0}, {"type": "note_on", "time": 15, "note": 75, "velocity": 100, "channel": 0}, {"type": "note_off", "time": 1135, "note": 75, "velocity": 100, "channel": 0}, {"type": "note_on", "time": 15, "note": 72, "velocity": 110, "channel": 0}, {"type": "note_off", "time": 174, "note": 72, "velocity": 110, "channel": 0}, {"type": "note_on", "time": 0, "note": 70, "velocity": 112, "channel": 0}, {"type": "note_off", "time": 214, "note": 70, "velocity": 112, "channel": 0}, {"type": "note_on", "time": 28, "note": 68, "velocity": 111, "channel": 0}, {"type": "note_off", "time": 350, "note": 68, "velocity": 111, "channel": 0}, {"type": "note_on", "time": 1289, "note": 67, "velocity": 112, "channel": 0}, {"type": "note_off", "time": 222, "note": 67, "velocity": 112, "channel": 0}, {"type": "note_on", "time": 23, "note": 69, "velocity": 110, "channel": 0}, {"type": "note_off", "time": 826, "note": 69, "velocity": 110, "channel": 0}, {"type": "note_on", "time": 15, "note": 65, "velocity": 96, "channel": 0}, {"type": "note_off", "time": 222, "note": 65, "velocity": 96, "channel": 0}, {"type": "note_on", "time": 31, "note": 69, "velocity": 108, "channel": 0}, {"type": "note_off", "time": 198, "note": 69, "velocity": 108, "channel": 0}, {"type": "note_on", "time": 0, "note": 65, "velocity": 107, "channel": 0}, {"type": "note_off", "time": 238, "note": 65, "velocity": 107, "channel": 0}, {"type": "note_on", "time": 60, "note": 63, "velocity": 108, "channel": 0}, {"type": "note_off", "time": 790, "note": 63, "velocity": 108, "channel": 0}, {"type": "note_on", "time": 30, "note": 60, "velocity": 96, "channel": 0}, {"type": "note_off", "time": 214, "note": 60, "velocity": 96, "channel": 0}, {"type": "note_on", "time": 59, "note": 63, "velocity": 117, "channel": 0}, {"type": "note_off", "time": 214, "note": 63, "velocity": 117, "channel": 0}, {"type": "note_on", "time": 11, "note": 60, "velocity": 112, "channel": 0}, {"type": "note_on", "time": 259, "note": 58, "velocity": 97, "channel": 0}, {"type": "note_off", "time": 0, "note": 60, "velocity": 112, "channel": 0}, {"type": "note_off", "time": 813, "note": 58, "velocity": 97, "channel": 0}, {"type": "note_on", "time": 46, "note": 53, "velocity": 97, "channel": 0}, {"type": "note_off", "time": 214, "note": 53, "velocity": 97, "channel": 0}, {"type": "note_on", "time": 54, "note": 57, "velocity": 98, "channel": 0}, {"type": "note_off", "time": 225, "note": 57, "velocity": 98, "channel": 0}, {"type": "note_on", "time": 34, "note": 60, "velocity": 105, "channel": 0}, {"type": "note_off", "time": 177, "note": 60, "velocity": 105, "channel": 0}, {"type": "note_on", "time": 0, "note": 65, "velocity": 107, "channel": 0}, {"type": "note_off", "time": 889, "note": 65, "velocity": 107, "channel": 0}, {"type": "note_on", "time": 214, "note": 63, "velocity": 85, "channel": 0}, {"type": "note_off", "time": 158, "note": 63, "velocity": 85, "channel": 0}, {"type": "note_on", "time": 31, "note": 65, "velocity": 111, "channel": 0}, {"type": "note_off", "time": 206, "note": 65, "velocity": 111, "channel": 0}, {"type": "note_on", "time": 7, "note": 66, "velocity": 109, "channel": 0}, {"type": "note_off", "time": 230, "note": 66, "velocity": 109, "channel": 0}, {"type": "note_on", "time": 0, "note": 65, "velocity": 105, "channel": 0}, {"type": "note_off", "time": 262, "note": 65, "velocity": 105, "channel": 0}, {"type": "note_on", "time": 2700, "note": 60, "velocity": 96, "channel": 0}, {"type": "note_off", "time": 214, "note": 60, "velocity": 96, "channel": 0}, {"type": "note_on", "time": 15, "note": 65, "velocity": 106, "channel": 0}, {"type": "note_off", "time": 500, "note": 65, "velocity": 106, "channel": 0}, {"type": "note_on", "time": 31, "note": 60, "velocity": 101, "channel": 0}, {"type": "note_off", "time": 150, "note": 60, "velocity": 101, "channel": 0}, {"type": "note_on", "time": 80, "note": 65, "velocity": 109, "channel": 0}, {"type": "note_off", "time": 293, "note": 65, "velocity": 109, "channel": 0}, {"type": "note_on", "time": 14, "note": 66, "velocity": 103, "channel": 0}, {"type": "note_off", "time": 1850, "note": 66, "velocity": 103, "channel": 0}, {"type": "note_on", "time": 28, "note": 64, "velocity": 108, "channel": 0}, {"type": "note_off", "time": 124, "note": 64, "velocity": 108, "channel": 0}, {"type": "note_on", "time": 11, "note": 65, "velocity": 113, "channel": 0}, {"type": "note_off", "time": 225, "note": 65, "velocity": 113, "channel": 0}, {"type": "note_on", "time": 0, "note": 64, "velocity": 119, "channel": 0}, {"type": "note_off", "time": 248, "note": 64, "velocity": 119, "channel": 0}, {"type": "note_on", "time": 33, "note": 63, "velocity": 115, "channel": 0}, {"type": "note_off", "time": 835, "note": 63, "velocity": 115, "channel": 0}, {"type": "note_on", "time": 71, "note": 57, "velocity": 100, "channel": 0}, {"type": "note_off", "time": 2858, "note": 57, "velocity": 100, "channel": 0}, {"type": "note_on", "time": 136, "note": 59, "velocity": 100, "channel": 0}, {"type": "note_off", "time": 174, "note": 59, "velocity": 100, "channel": 0}, {"type": "note_on", "time": 23, "note": 64, "velocity": 105, "channel": 0}, {"type": "note_off", "time": 87, "note": 64, "velocity": 105, "channel": 0}, {"type": "note_on", "time": 31, "note": 65, "velocity": 112, "channel": 0}, {"type": "note_off", "time": 111, "note": 65, "velocity": 112, "channel": 0}, {"type": "note_on", "time": 7, "note": 63, "velocity": 119, "channel": 0}, {"type": "note_off", "time": 246, "note": 63, "velocity": 119, "channel": 0}, {"type": "note_on", "time": 71, "note": 64, "velocity": 111, "channel": 0}, {"type": "note_off", "time": 579, "note": 64, "velocity": 111, "channel": 0}, {"type": "note_on", "time": 0, "note": 68, "velocity": 108, "channel": 0}, {"type": "note_off", "time": 293, "note": 68, "velocity": 108, "channel": 0}, {"type": "note_on", "time": 7, "note": 63, "velocity": 119, "channel": 0}, {"type": "note_off", "time": 341, "note": 63, "velocity": 119, "channel": 0}, {"type": "note_on", "time": 23, "note": 61, "velocity": 114, "channel": 0}, {"type": "note_off", "time": 309, "note": 61, "velocity": 114, "channel": 0}, {"type": "note_on", "time": 1501, "note": 62, "velocity": 113, "channel": 0}, {"type": "note_off", "time": 254, "note": 62, "velocity": 113, "channel": 0}, {"type": "note_on", "time": 51, "note": 65, "velocity": 113, "channel": 0}, {"type": "note_off", "time": 180, "note": 65, "velocity": 113, "channel": 0}, {"type": "note_on", "time": 293, "note": 68, "velocity": 120, "channel": 0}, {"type": "note_off", "time": 237, "note": 68, "velocity": 120, "channel": 0}, {"type": "note_on", "time": 331, "note": 69, "velocity": 80, "channel": 0}, {"type": "note_off", "time": 135, "note": 69, "velocity": 80, "channel": 0}, {"type": "note_on", "time": 67, "note": 70, "velocity": 113, "channel": 0}, {"type": "note_off", "time": 881, "note": 70, "velocity": 113, "channel": 0}, {"type": "note_on", "time": 192, "note": 68, "velocity": 113, "channel": 0}, {"type": "note_off", "time": 259, "note": 68, "velocity": 113, "channel": 0}, {"type": "note_on", "time": 0, "note": 65, "velocity": 111, "channel": 0}, {"type": "note_off", "time": 237, "note": 65, "velocity": 111, "channel": 0}, {"type": "note_on", "time": 39, "note": 62, "velocity": 119, "channel": 0}, {"type": "note_off", "time": 190, "note": 62, "velocity": 119, "channel": 0}, {"type": "note_on", "time": 23, "note": 58, "velocity": 101, "channel": 0}, {"type": "note_off", "time": 206, "note": 58, "velocity": 101, "channel": 0}, {"type": "note_on", "time": 206, "note": 59, "velocity": 98, "channel": 0}, {"type": "note_off", "time": 198, "note": 59, "velocity": 98, "channel": 0}, {"type": "note_on", "time": 23, "note": 62, "velocity": 99, "channel": 0}, {"type": "note_off", "time": 182, "note": 62, "velocity": 99, "channel": 0}, {"type": "note_on", "time": 19, "note": 65, "velocity": 103, "channel": 0}, {"type": "note_off", "time": 248, "note": 65, "velocity": 103, "channel": 0}, {"type": "note_on", "time": 1, "note": 67, "velocity": 110, "channel": 0}, {"type": "note_off", "time": 230, "note": 67, "velocity": 110, "channel": 0}, {"type": "note_on", "time": 31, "note": 67, "velocity": 110, "channel": 0}, {"type": "note_off", "time": 206, "note": 67, "velocity": 110, "channel": 0}, {"type": "note_on", "time": 19, "note": 65, "velocity": 109, "channel": 0}, {"type": "note_off", "time": 192, "note": 65, "velocity": 109, "channel": 0}, {"type": "note_on", "time": 52, "note": 63, "velocity": 118, "channel": 0}, {"type": "note_off", "time": 203, "note": 63, "velocity": 118, "channel": 0}, {"type": "note_on", "time": 0, "note": 61, "velocity": 118, "channel": 0}, {"type": "note_off", "time": 225, "note": 61, "velocity": 118, "channel": 0}, {"type": "note_on", "time": 0, "note": 60, "velocity": 111, "channel": 0}, {"type": "note_off", "time": 259, "note": 60, "velocity": 111, "channel": 0}, {"type": "note_on", "time": 0, "note": 58, "velocity": 100, "channel": 0}, {"type": "note_off", "time": 182, "note": 58, "velocity": 100, "channel": 0}, {"type": "note_on", "time": 15, "note": 55, "velocity": 91, "channel": 0}, {"type": "note_off", "time": 174, "note": 55, "velocity": 91, "channel": 0}, {"type": "note_on", "time": 31, "note": 57, "velocity": 103, "channel": 0}, {"type": "note_off", "time": 325, "note": 57, "velocity": 103, "channel": 0}, {"type": "note_on", "time": 15, "note": 67, "velocity": 108, "channel": 0}, {"type": "note_off", "time": 230, "note": 67, "velocity": 108, "channel": 0}, {"type": "note_on", "time": 55, "note": 69, "velocity": 87, "channel": 0}, {"type": "note_off", "time": 135, "note": 69, "velocity": 87, "channel": 0}, {"type": "note_on", "time": 39, "note": 63, "velocity": 93, "channel": 0}, {"type": "note_off", "time": 222, "note": 63, "velocity": 93, "channel": 0}, {"type": "note_on", "time": 50, "note": 67, "velocity": 112, "channel": 0}, {"type": "note_off", "time": 271, "note": 67, "velocity": 112, "channel": 0}, {"type": "note_on", "time": 22, "note": 63, "velocity": 104, "channel": 0}, {"type": "note_off", "time": 135, "note": 63, "velocity": 104, "channel": 0}, {"type": "note_on", "time": 13, "note": 62, "velocity": 91, "channel": 0}, {"type": "note_off", "time": 230, "note": 62, "velocity": 91, "channel": 0}, {"type": "note_on", "time": 0, "note": 60, "velocity": 86, "channel": 0}, {"type": "note_off", "time": 95, "note": 60, "velocity": 86, "channel": 0}, {"type": "note_on", "time": 15, "note": 65, "velocity": 107, "channel": 0}, {"type": "note_off", "time": 452, "note": 65, "velocity": 107, "channel": 0}, {"type": "note_on", "time": 39, "note": 62, "velocity": 113, "channel": 0}, {"type": "note_off", "time": 180, "note": 62, "velocity": 113, "channel": 0}, {"type": "note_on", "time": 3036, "note": 64, "velocity": 119, "channel": 0}, {"type": "note_off", "time": 282, "note": 64, "velocity": 119, "channel": 0}, {"type": "note_on", "time": 43, "note": 60, "velocity": 106, "channel": 0}, {"type": "note_off", "time": 182, "note": 60, "velocity": 106, "channel": 0}, {"type": "note_on", "time": 79, "note": 67, "velocity": 110, "channel": 0}, {"type": "note_off", "time": 397, "note": 67, "velocity": 110, "channel": 0}, {"type": "note_on", "time": 0, "note": 72, "velocity": 97, "channel": 0}, {"type": "note_off", "time": 174, "note": 72, "velocity": 97, "channel": 0}, {"type": "note_on", "time": 221, "note": 70, "velocity": 115, "channel": 0}, {"type": "note_off", "time": 903, "note": 70, "velocity": 115, "channel": 0}, {"type": "note_on", "time": 33, "note": 69, "velocity": 115, "channel": 0}, {"type": "note_off", "time": 158, "note": 69, "velocity": 115, "channel": 0}, {"type": "note_on", "time": 248, "note": 67, "velocity": 114, "channel": 0}, {"type": "note_off", "time": 237, "note": 67, "velocity": 114, "channel": 0}, {"type": "note_on", "time": 0, "note": 65, "velocity": 95, "channel": 0}, {"type": "note_off", "time": 238, "note": 65, "velocity": 95, "channel": 0}, {"type": "note_on", "time": 0, "note": 67, "velocity": 117, "channel": 0}, {"type": "note_off", "time": 174, "note": 67, "velocity": 117, "channel": 0}, {"type": "note_on", "time": 0, "note": 66, "velocity": 110, "channel": 0}, {"type": "note_off", "time": 127, "note": 66, "velocity": 110, "channel": 0}, {"type": "note_on", "time": 31, "note": 68, "velocity": 117, "channel": 0}, {"type": "note_off", "time": 476, "note": 68, "velocity": 117, "channel": 0}, {"type": "note_on", "time": 23, "note": 67, "velocity": 112, "channel": 0}, {"type": "note_off", "time": 285, "note": 67, "velocity": 112, "channel": 0}, {"type": "note_on", "time": 98, "note": 65, "velocity": 116, "channel": 0}, {"type": "note_off", "time": 203, "note": 65, "velocity": 116, "channel": 0}, {"type": "note_on", "time": 0, "note": 62, "velocity": 117, "channel": 0}, {"type": "note_off", "time": 198, "note": 62, "velocity": 117, "channel": 0}, {"type": "note_on", "time": 15, "note": 58, "velocity": 108, "channel": 0}, {"type": "note_off", "time": 174, "note": 58, "velocity": 108, "channel": 0}, {"type": "note_on", "time": 55, "note": 55, "velocity": 99, "channel": 0}, {"type": "note_off", "time": 190, "note": 55, "velocity": 99, "channel": 0}, {"type": "note_on", "time": 0, "note": 56, "velocity": 104, "channel": 0}, {"type": "note_off", "time": 246, "note": 56, "velocity": 104, "channel": 0}, {"type": "note_on", "time": 23, "note": 58, "velocity": 100, "channel": 0}, {"type": "note_off", "time": 174, "note": 58, "velocity": 100, "channel": 0}, {"type": "note_on", "time": 7, "note": 64, "velocity": 118, "channel": 0}, {"type": "note_off", "time": 841, "note": 64, "velocity": 118, "channel": 0}, {"type": "note_on", "time": 58, "note": 62, "velocity": 113, "channel": 0}, {"type": "note_off", "time": 227, "note": 62, "velocity": 113, "channel": 0}, {"type": "note_on", "time": 0, "note": 60, "velocity": 107, "channel": 0}, {"type": "note_off", "time": 150, "note": 60, "velocity": 107, "channel": 0}, {"type": "note_on", "time": 0, "note": 58, "velocity": 103, "channel": 0}, {"type": "note_off", "time": 230, "note": 58, "velocity": 103, "channel": 0}, {"type": "note_on", "time": 31, "note": 57, "velocity": 103, "channel": 0}, {"type": "note_off", "time": 190, "note": 57, "velocity": 103, "channel": 0}, {"type": "note_on", "time": 0, "note": 55, "velocity": 102, "channel": 0}, {"type": "note_off", "time": 222, "note": 55, "velocity": 102, "channel": 0}, {"type": "note_on", "time": 76, "note": 53, "velocity": 103, "channel": 0}, {"type": "note_off", "time": 214, "note": 53, "velocity": 103, "channel": 0}, {"type": "note_on", "time": 0, "note": 55, "velocity": 99, "channel": 0}, {"type": "note_off", "time": 193, "note": 55, "velocity": 99, "channel": 0}, {"type": "note_on", "time": 0, "note": 57, "velocity": 99, "channel": 0}, {"type": "note_off", "time": 142, "note": 57, "velocity": 99, "channel": 0}, {"type": "note_on", "time": 15, "note": 58, "velocity": 93, "channel": 0}, {"type": "note_off", "time": 238, "note": 58, "velocity": 93, "channel": 0}, {"type": "note_on", "time": 39, "note": 60, "velocity": 103, "channel": 0}, {"type": "note_off", "time": 190, "note": 60, "velocity": 103, "channel": 0}, {"type": "note_on", "time": 15, "note": 62, "velocity": 104, "channel": 0}, {"type": "note_off", "time": 222, "note": 62, "velocity": 104, "channel": 0}, {"type": "note_on", "time": 15, "note": 63, "velocity": 85, "channel": 0}, {"type": "note_on", "time": 142, "note": 65, "velocity": 86, "channel": 0}, {"type": "note_off", "time": 0, "note": 63, "velocity": 85, "channel": 0}, {"type": "note_off", "time": 111, "note": 65, "velocity": 86, "channel": 0}, {"type": "note_on", "time": 3, "note": 67, "velocity": 103, "channel": 0}, {"type": "note_off", "time": 361, "note": 67, "velocity": 103, "channel": 0}, {"type": "note_on", "time": 32, "note": 62, "velocity": 100, "channel": 0}, {"type": "note_off", "time": 150, "note": 62, "velocity": 100, "channel": 0}, {"type": "note_on", "time": 65, "note": 65, "velocity": 106, "channel": 0}, {"type": "note_off", "time": 158, "note": 65, "velocity": 106, "channel": 0}, {"type": "note_on", "time": 30, "note": 64, "velocity": 115, "channel": 0}, {"type": "note_off", "time": 127, "note": 64, "velocity": 115, "channel": 0}, {"type": "note_on", "time": 0, "note": 65, "velocity": 104, "channel": 0}, {"type": "note_off", "time": 95, "note": 65, "velocity": 104, "channel": 0}, {"type": "note_on", "time": 0, "note": 63, "velocity": 102, "channel": 0}, {"type": "note_off", "time": 111, "note": 63, "velocity": 102, "channel": 0}, {"type": "note_on", "time": 47, "note": 65, "velocity": 105, "channel": 0}, {"type": "note_off", "time": 150, "note": 65, "velocity": 105, "channel": 0}, {"type": "note_on", "time": 301, "note": 69, "velocity": 89, "channel": 0}, {"type": "note_off", "time": 127, "note": 69, "velocity": 89, "channel": 0}, {"type": "note_on", "time": 127, "note": 72, "velocity": 101, "channel": 0}, {"type": "note_off", "time": 95, "note": 72, "velocity": 101, "channel": 0}, {"type": "note_on", "time": 7, "note": 77, "velocity": 100, "channel": 0}, {"type": "note_off", "time": 278, "note": 77, "velocity": 100, "channel": 0}, {"type": "note_on", "time": 2092, "note": 69, "velocity": 114, "channel": 0}, {"type": "note_off", "time": 180, "note": 69, "velocity": 114, "channel": 0}, {"type": "note_on", "time": 45, "note": 72, "velocity": 103, "channel": 0}, {"type": "note_off", "time": 146, "note": 72, "velocity": 103, "channel": 0}, {"type": "note_on", "time": 241, "note": 77, "velocity": 99, "channel": 0}, {"type": "note_off", "time": 2609, "note": 77, "velocity": 99, "channel": 0}, {"type": "note_on", "time": 120, "note": 77, "velocity": 104, "channel": 0}, {"type": "note_off", "time": 150, "note": 77, "velocity": 104, "channel": 0}, {"type": "note_on", "time": 0, "note": 75, "velocity": 108, "channel": 0}, {"type": "note_off", "time": 146, "note": 75, "velocity": 108, "channel": 0}, {"type": "note_on", "time": 33, "note": 72, "velocity": 89, "channel": 0}, {"type": "note_off", "time": 101, "note": 72, "velocity": 89, "channel": 0}, {"type": "note_on", "time": 0, "note": 68, "velocity": 90, "channel": 0}, {"type": "note_off", "time": 124, "note": 68, "velocity": 90, "channel": 0}, {"type": "note_on", "time": 45, "note": 70, "velocity": 115, "channel": 0}, {"type": "note_off", "time": 519, "note": 70, "velocity": 115, "channel": 0}, {"type": "note_on", "time": 1374, "note": 70, "velocity": 112, "channel": 0}, {"type": "note_off", "time": 203, "note": 70, "velocity": 112, "channel": 0}, {"type": "note_on", "time": 53, "note": 67, "velocity": 103, "channel": 0}, {"type": "note_off", "time": 103, "note": 67, "velocity": 103, "channel": 0}, {"type": "note_on", "time": 15, "note": 70, "velocity": 108, "channel": 0}, {"type": "note_off", "time": 293, "note": 70, "velocity": 108, "channel": 0}, {"type": "note_on", "time": 7, "note": 72, "velocity": 96, "channel": 0}, {"type": "note_off", "time": 103, "note": 72, "velocity": 96, "channel": 0}, {"type": "note_on", "time": 15, "note": 74, "velocity": 105, "channel": 0}, {"type": "note_off", "time": 262, "note": 74, "velocity": 105, "channel": 0}, {"type": "note_on", "time": 14, "note": 72, "velocity": 113, "channel": 0}, {"type": "note_off", "time": 655, "note": 72, "velocity": 113, "channel": 0}, {"type": "note_on", "time": 0, "note": 69, "velocity": 118, "channel": 0}, {"type": "note_off", "time": 545, "note": 69, "velocity": 118, "channel": 0}, {"type": "note_on", "time": 0, "note": 65, "velocity": 106, "channel": 0}, {"type": "note_off", "time": 1183, "note": 65, "velocity": 106, "channel": 0}, {"type": "note_on", "time": 21, "note": 63, "velocity": 116, "channel": 0}, {"type": "note_off", "time": 169, "note": 63, "velocity": 116, "channel": 0}, {"type": "note_on", "time": 0, "note": 68, "velocity": 114, "channel": 0}, {"type": "note_off", "time": 221, "note": 68, "velocity": 114, "channel": 0}, {"type": "note_on", "time": 0, "note": 61, "velocity": 115, "channel": 0}, {"type": "note_off", "time": 373, "note": 61, "velocity": 115, "channel": 0}, {"type": "note_on", "time": 2057, "note": 66, "velocity": 106, "channel": 0}, {"type": "note_off", "time": 111, "note": 66, "velocity": 106, "channel": 0}, {"type": "note_on", "time": 23, "note": 68, "velocity": 111, "channel": 0}, {"type": "note_off", "time": 714, "note": 68, "velocity": 111, "channel": 0}, {"type": "note_on", "time": 87, "note": 65, "velocity": 97, "channel": 0}, {"type": "note_on", "time": 222, "note": 67, "velocity": 112, "channel": 0}, {"type": "note_off", "time": 0, "note": 65, "velocity": 97, "channel": 0}, {"type": "note_off", "time": 166, "note": 67, "velocity": 112, "channel": 0}, {"type": "note_on", "time": 79, "note": 72, "velocity": 88, "channel": 0}, {"type": "note_off", "time": 150, "note": 72, "velocity": 88, "channel": 0}, {"type": "note_on", "time": 158, "note": 65, "velocity": 108, "channel": 0}, {"type": "note_off", "time": 397, "note": 65, "velocity": 108, "channel": 0}, {"type": "note_on", "time": 55, "note": 70, "velocity": 82, "channel": 0}, {"type": "note_off", "time": 135, "note": 70, "velocity": 82, "channel": 0}, {"type": "note_on", "time": 413, "note": 63, "velocity": 115, "channel": 0}, {"type": "note_off", "time": 278, "note": 63, "velocity": 115, "channel": 0}, {"type": "note_on", "time": 98, "note": 68, "velocity": 97, "channel": 0}, {"type": "note_off", "time": 90, "note": 68, "velocity": 97, "channel": 0}, {"type": "note_on", "time": 160, "note": 62, "velocity": 115, "channel": 0}, {"type": "note_off", "time": 198, "note": 62, "velocity": 115, "channel": 0}, {"type": "note_on", "time": 39, "note": 67, "velocity": 107, "channel": 0}, {"type": "note_off", "time": 230, "note": 67, "velocity": 107, "channel": 0}, {"type": "note_on", "time": 39, "note": 67, "velocity": 111, "channel": 0}, {"type": "note_off", "time": 230, "note": 67, "velocity": 111, "channel": 0}, {"type": "note_on", "time": 15, "note": 65, "velocity": 102, "channel": 0}, {"type": "note_off", "time": 278, "note": 65, "velocity": 102, "channel": 0}, {"type": "note_on", "time": 39, "note": 58, "velocity": 100, "channel": 0}, {"type": "note_off", "time": 262, "note": 58, "velocity": 100, "channel": 0}, {"type": "note_on", "time": 0, "note": 63, "velocity": 109, "channel": 0}, {"type": "note_off", "time": 182, "note": 63, "velocity": 109, "channel": 0}, {"type": "note_on", "time": 7, "note": 57, "velocity": 98, "channel": 0}, {"type": "note_off", "time": 254, "note": 57, "velocity": 98, "channel": 0}, {"type": "note_on", "time": 39, "note": 62, "velocity": 107, "channel": 0}, {"type": "note_off", "time": 230, "note": 62, "velocity": 107, "channel": 0}, {"type": "note_on", "time": 0, "note": 55, "velocity": 97, "channel": 0}, {"type": "note_off", "time": 206, "note": 55, "velocity": 97, "channel": 0}, {"type": "note_on", "time": 79, "note": 60, "velocity": 101, "channel": 0}, {"type": "note_off", "time": 309, "note": 60, "velocity": 101, "channel": 0}, {"type": "note_on", "time": 30, "note": 55, "velocity": 100, "channel": 0}, {"type": "note_off", "time": 1389, "note": 55, "velocity": 100, "channel": 0}, {"type": "note_on", "time": 73, "note": 53, "velocity": 95, "channel": 0}, {"type": "note_off", "time": 103, "note": 53, "velocity": 95, "channel": 0}, {"type": "note_on", "time": 60, "note": 55, "velocity": 102, "channel": 0}, {"type": "note_off", "time": 248, "note": 55, "velocity": 102, "channel": 0}, {"type": "note_on", "time": 0, "note": 53, "velocity": 104, "channel": 0}, {"type": "note_off", "time": 222, "note": 53, "velocity": 104, "channel": 0}, {"type": "note_on", "time": 146, "note": 53, "velocity": 102, "channel": 0}, {"type": "note_off", "time": 982, "note": 53, "velocity": 102, "channel": 0}, {"type": "note_on", "time": 141, "note": 55, "velocity": 107, "channel": 0}, {"type": "note_off", "time": 150, "note": 55, "velocity": 107, "channel": 0}, {"type": "note_on", "time": 15, "note": 48, "velocity": 102, "channel": 0}, {"type": "note_off", "time": 301, "note": 48, "velocity": 102, "channel": 0}, {"type": "note_on", "time": 4465, "note": 69, "velocity": 110, "channel": 0}, {"type": "note_off", "time": 259, "note": 69, "velocity": 110, "channel": 0}, {"type": "note_on", "time": 0, "note": 70, "velocity": 113, "channel": 0}, {"type": "note_off", "time": 146, "note": 70, "velocity": 113, "channel": 0}, {"type": "note_on", "time": 0, "note": 72, "velocity": 101, "channel": 0}, {"type": "note_off", "time": 282, "note": 72, "velocity": 101, "channel": 0}, {"type": "note_on", "time": 675, "note": 60, "velocity": 78, "channel": 0}, {"type": "note_off", "time": 127, "note": 60, "velocity": 78, "channel": 0}, {"type": "note_on", "time": 95, "note": 68, "velocity": 93, "channel": 0}, {"type": "note_on", "time": 126, "note": 70, "velocity": 110, "channel": 0}, {"type": "note_off", "time": 0, "note": 68, "velocity": 93, "channel": 0}, {"type": "note_off", "time": 372, "note": 70, "velocity": 110, "channel": 0}, {"type": "note_on", "time": 40, "note": 69, "velocity": 108, "channel": 0}, {"type": "note_off", "time": 166, "note": 69, "velocity": 108, "channel": 0}, {"type": "note_on", "time": 0, "note": 68, "velocity": 111, "channel": 0}, {"type": "note_off", "time": 150, "note": 68, "velocity": 111, "channel": 0}, {"type": "note_on", "time": 0, "note": 67, "velocity": 108, "channel": 0}, {"type": "note_off", "time": 87, "note": 67, "velocity": 108, "channel": 0}, {"type": "note_on", "time": 0, "note": 65, "velocity": 107, "channel": 0}, {"type": "note_off", "time": 47, "note": 65, "velocity": 107, "channel": 0}, {"type": "note_on", "time": 0, "note": 62, "velocity": 9, "channel": 0}, {"type": "note_off", "time": 349, "note": 62, "velocity": 9, "channel": 0}, {"type": "note_on", "time": 127, "note": 67, "velocity": 111, "channel": 0}, {"type": "note_off", "time": 158, "note": 67, "velocity": 111, "channel": 0}, {"type": "note_on", "time": 15, "note": 68, "velocity": 111, "channel": 0}, {"type": "note_off", "time": 603, "note": 68, "velocity": 111, "channel": 0}, {"type": "note_on", "time": 39, "note": 61, "velocity": 101, "channel": 0}, {"type": "note_off", "time": 278, "note": 61, "velocity": 101, "channel": 0}, {"type": "note_on", "time": 7, "note": 62, "velocity": 113, "channel": 0}, {"type": "note_off", "time": 603, "note": 62, "velocity": 113, "channel": 0}, {"type": "note_on", "time": 2692, "note": 66, "velocity": 104, "channel": 0}, {"type": "note_off", "time": 214, "note": 66, "velocity": 104, "channel": 0}, {"type": "note_on", "time": 0, "note": 68, "velocity": 103, "channel": 0}, {"type": "note_off", "time": 278, "note": 68, "velocity": 103, "channel": 0}, {"type": "note_on", "time": 7, "note": 61, "velocity": 103, "channel": 0}, {"type": "note_off", "time": 230, "note": 61, "velocity": 103, "channel": 0}, {"type": "note_on", "time": 24, "note": 62, "velocity": 112, "channel": 0}, {"type": "note_off", "time": 361, "note": 62, "velocity": 112, "channel": 0}, {"type": "note_on", "time": 11, "note": 67, "velocity": 105, "channel": 0}, {"type": "note_off", "time": 361, "note": 67, "velocity": 105, "channel": 0}, {"type": "note_on", "time": 0, "note": 68, "velocity": 104, "channel": 0}, {"type": "note_off", "time": 289, "note": 68, "velocity": 104, "channel": 0}, {"type": "note_on", "time": 0, "note": 61, "velocity": 110, "channel": 0}, {"type": "note_off", "time": 150, "note": 61, "velocity": 110, "channel": 0}, {"type": "note_on", "time": 0, "note": 62, "velocity": 110, "channel": 0}, {"type": "note_off", "time": 301, "note": 62, "velocity": 110, "channel": 0}, {"type": "note_on", "time": 254, "note": 66, "velocity": 103, "channel": 0}, {"type": "note_off", "time": 246, "note": 66, "velocity": 103, "channel": 0}, {"type": "note_on", "time": 8, "note": 68, "velocity": 102, "channel": 0}, {"type": "note_off", "time": 282, "note": 68, "velocity": 102, "channel": 0}, {"type": "note_on", "time": 33, "note": 61, "velocity": 102, "channel": 0}, {"type": "note_off", "time": 192, "note": 61, "velocity": 102, "channel": 0}, {"type": "note_on", "time": 15, "note": 62, "velocity": 113, "channel": 0}, {"type": "note_off", "time": 271, "note": 62, "velocity": 113, "channel": 0}, {"type": "note_on", "time": 118, "note": 66, "velocity": 103, "channel": 0}, {"type": "note_off", "time": 103, "note": 66, "velocity": 103, "channel": 0}, {"type": "note_on", "time": 0, "note": 67, "velocity": 106, "channel": 0}, {"type": "note_off", "time": 158, "note": 67, "velocity": 106, "channel": 0}, {"type": "note_on", "time": 7, "note": 68, "velocity": 102, "channel": 0}, {"type": "note_off", "time": 317, "note": 68, "velocity": 102, "channel": 0}, {"type": "note_on", "time": 222, "note": 68, "velocity": 99, "channel": 0}, {"type": "note_off", "time": 142, "note": 68, "velocity": 99, "channel": 0}, {"type": "note_on", "time": 0, "note": 69, "velocity": 98, "channel": 0}, {"type": "note_off", "time": 158, "note": 69, "velocity": 98, "channel": 0}, {"type": "note_on", "time": 87, "note": 67, "velocity": 101, "channel": 0}, {"type": "note_off", "time": 206, "note": 67, "velocity": 101, "channel": 0}, {"type": "note_on", "time": 7, "note": 68, "velocity": 101, "channel": 0}, {"type": "note_off", "time": 198, "note": 68, "velocity": 101, "channel": 0}, {"type": "note_on", "time": 63, "note": 61, "velocity": 94, "channel": 0}, {"type": "note_off", "time": 182, "note": 61, "velocity": 94, "channel": 0}, {"type": "note_on", "time": 0, "note": 62, "velocity": 111, "channel": 0}, {"type": "note_off", "time": 142, "note": 62, "velocity": 111, "channel": 0}, {"type": "note_on", "time": 81, "note": 67, "velocity": 104, "channel": 0}, {"type": "note_off", "time": 361, "note": 67, "velocity": 104, "channel": 0}, {"type": "note_on", "time": 0, "note": 68, "velocity": 99, "channel": 0}, {"type": "note_off", "time": 1129, "note": 68, "velocity": 99, "channel": 0}, {"type": "note_on", "time": 7, "note": 69, "velocity": 99, "channel": 0}, {"type": "note_off", "time": 254, "note": 69, "velocity": 99, "channel": 0}, {"type": "note_on", "time": 7, "note": 67, "velocity": 103, "channel": 0}, {"type": "note_off", "time": 357, "note": 67, "velocity": 103, "channel": 0}, {"type": "note_on", "time": 28, "note": 68, "velocity": 103, "channel": 0}, {"type": "note_off", "time": 192, "note": 68, "velocity": 103, "channel": 0}, {"type": "note_on", "time": 1177, "note": 66, "velocity": 106, "channel": 0}, {"type": "note_off", "time": 182, "note": 66, "velocity": 106, "channel": 0}, {"type": "note_on", "time": 15, "note": 68, "velocity": 104, "channel": 0}, {"type": "note_off", "time": 1143, "note": 68, "velocity": 104, "channel": 0}, {"type": "note_on", "time": 127, "note": 62, "velocity": 101, "channel": 0}, {"type": "note_off", "time": 166, "note": 62, "velocity": 101, "channel": 0}, {"type": "note_on", "time": 111, "note": 67, "velocity": 101, "channel": 0}, {"type": "note_off", "time": 214, "note": 67, "velocity": 101, "channel": 0}, {"type": "note_on", "time": 15, "note": 68, "velocity": 101, "channel": 0}, {"type": "note_off", "time": 238, "note": 68, "velocity": 101, "channel": 0}, {"type": "note_on", "time": 1096, "note": 60, "velocity": 103, "channel": 0}, {"type": "note_off", "time": 190, "note": 60, "velocity": 103, "channel": 0}, {"type": "note_on", "time": 31, "note": 62, "velocity": 107, "channel": 0}, {"type": "note_off", "time": 206, "note": 62, "velocity": 107, "channel": 0}, {"type": "note_on", "time": 62, "note": 65, "velocity": 107, "channel": 0}, {"type": "note_off", "time": 327, "note": 65, "velocity": 107, "channel": 0}, {"type": "note_on", "time": 0, "note": 67, "velocity": 105, "channel": 0}, {"type": "note_off", "time": 180, "note": 67, "velocity": 105, "channel": 0}, {"type": "note_on", "time": 0, "note": 68, "velocity": 106, "channel": 0}, {"type": "note_off", "time": 304, "note": 68, "velocity": 106, "channel": 0}, {"type": "note_on", "time": 0, "note": 70, "velocity": 106, "channel": 0}, {"type": "note_off", "time": 259, "note": 70, "velocity": 106, "channel": 0}, {"type": "note_on", "time": 0, "note": 72, "velocity": 93, "channel": 0}, {"type": "note_off", "time": 254, "note": 72, "velocity": 93, "channel": 0}, {"type": "note_on", "time": 0, "note": 70, "velocity": 104, "channel": 0}, {"type": "note_off", "time": 169, "note": 70, "velocity": 104, "channel": 0}, {"type": "note_on", "time": 219, "note": 72, "velocity": 95, "channel": 0}, {"type": "note_off", "time": 146, "note": 72, "velocity": 95, "channel": 0}, {"type": "note_on", "time": 51, "note": 70, "velocity": 105, "channel": 0}, {"type": "note_off", "time": 192, "note": 70, "velocity": 105, "channel": 0}, {"type": "note_on", "time": 54, "note": 68, "velocity": 109, "channel": 0}, {"type": "note_off", "time": 248, "note": 68, "velocity": 109, "channel": 0}, {"type": "note_on", "time": 53, "note": 65, "velocity": 103, "channel": 0}, {"type": "note_off", "time": 198, "note": 65, "velocity": 103, "channel": 0}, {"type": "note_on", "time": 31, "note": 70, "velocity": 108, "channel": 0}, {"type": "note_off", "time": 254, "note": 70, "velocity": 108, "channel": 0}, {"type": "note_on", "time": 7, "note": 68, "velocity": 103, "channel": 0}, {"type": "note_off", "time": 254, "note": 68, "velocity": 103, "channel": 0}, {"type": "note_on", "time": 55, "note": 65, "velocity": 114, "channel": 0}, {"type": "note_off", "time": 237, "note": 65, "velocity": 114, "channel": 0}, {"type": "note_on", "time": 96, "note": 61, "velocity": 116, "channel": 0}, {"type": "note_off", "time": 174, "note": 61, "velocity": 116, "channel": 0}, {"type": "note_on", "time": 0, "note": 62, "velocity": 126, "channel": 0}, {"type": "note_off", "time": 248, "note": 62, "velocity": 126, "channel": 0}, {"type": "note_on", "time": 45, "note": 65, "velocity": 105, "channel": 0}, {"type": "note_off", "time": 146, "note": 65, "velocity": 105, "channel": 0}, {"type": "note_on", "time": 84, "note": 67, "velocity": 113, "channel": 0}, {"type": "note_off", "time": 127, "note": 67, "velocity": 113, "channel": 0}, {"type": "note_on", "time": 15, "note": 66, "velocity": 112, "channel": 0}, {"type": "note_off", "time": 142, "note": 66, "velocity": 112, "channel": 0}, {"type": "note_on", "time": 36, "note": 65, "velocity": 102, "channel": 0}, {"type": "note_off", "time": 146, "note": 65, "velocity": 102, "channel": 0}, {"type": "note_on", "time": 78, "note": 67, "velocity": 114, "channel": 0}, {"type": "note_off", "time": 381, "note": 67, "velocity": 114, "channel": 0}, {"type": "note_on", "time": 7, "note": 66, "velocity": 107, "channel": 0}, {"type": "note_off", "time": 206, "note": 66, "velocity": 107, "channel": 0}, {"type": "note_on", "time": 810, "note": 65, "velocity": 111, "channel": 0}, {"type": "note_off", "time": 203, "note": 65, "velocity": 111, "channel": 0}, {"type": "note_on", "time": 98, "note": 68, "velocity": 110, "channel": 0}, {"type": "note_off", "time": 180, "note": 68, "velocity": 110, "channel": 0}, {"type": "note_on", "time": 156, "note": 70, "velocity": 114, "channel": 0}, {"type": "note_on", "time": 689, "note": 68, "velocity": 107, "channel": 0}, {"type": "note_off", "time": 0, "note": 70, "velocity": 114, "channel": 0}, {"type": "note_off", "time": 169, "note": 68, "velocity": 107, "channel": 0}, {"type": "note_on", "time": 90, "note": 69, "velocity": 100, "channel": 0}, {"type": "note_off", "time": 166, "note": 69, "velocity": 100, "channel": 0}, {"type": "note_on", "time": 23, "note": 72, "velocity": 105, "channel": 0}, {"type": "note_off", "time": 309, "note": 72, "velocity": 105, "channel": 0}, {"type": "note_on", "time": 0, "note": 67, "velocity": 115, "channel": 0}, {"type": "note_off", "time": 317, "note": 67, "velocity": 115, "channel": 0}, {"type": "note_on", "time": 827, "note": 70, "velocity": 116, "channel": 0}, {"type": "note_off", "time": 530, "note": 70, "velocity": 116, "channel": 0}, {"type": "note_on", "time": 47, "note": 68, "velocity": 109, "channel": 0}, {"type": "note_off", "time": 127, "note": 68, "velocity": 109, "channel": 0}, {"type": "note_on", "time": 175, "note": 70, "velocity": 118, "channel": 0}, {"type": "note_off", "time": 519, "note": 70, "velocity": 118, "channel": 0}, {"type": "note_on", "time": 43, "note": 68, "velocity": 114, "channel": 0}, {"type": "note_off", "time": 225, "note": 68, "velocity": 114, "channel": 0}, {"type": "note_on", "time": 208, "note": 65, "velocity": 119, "channel": 0}, {"type": "note_off", "time": 153, "note": 65, "velocity": 119, "channel": 0}, {"type": "note_on", "time": 0, "note": 67, "velocity": 114, "channel": 0}, {"type": "note_off", "time": 158, "note": 67, "velocity": 114, "channel": 0}, {"type": "note_on", "time": 23, "note": 65, "velocity": 116, "channel": 0}, {"type": "note_off", "time": 47, "note": 65, "velocity": 116, "channel": 0}, {"type": "note_on", "time": 0, "note": 63, "velocity": 125, "channel": 0}, {"type": "note_off", "time": 301, "note": 63, "velocity": 125, "channel": 0}, {"type": "note_on", "time": 23, "note": 60, "velocity": 116, "channel": 0}, {"type": "note_off", "time": 484, "note": 60, "velocity": 116, "channel": 0}, {"type": "note_on", "time": 39, "note": 58, "velocity": 94, "channel": 0}, {"type": "note_off", "time": 158, "note": 58, "velocity": 94, "channel": 0}, {"type": "note_on", "time": 206, "note": 66, "velocity": 115, "channel": 0}, {"type": "note_off", "time": 142, "note": 66, "velocity": 115, "channel": 0}, {"type": "note_on", "time": 0, "note": 68, "velocity": 120, "channel": 0}, {"type": "note_off", "time": 452, "note": 68, "velocity": 120, "channel": 0}, {"type": "note_on", "time": 0, "note": 67, "velocity": 114, "channel": 0}, {"type": "note_off", "time": 452, "note": 67, "velocity": 114, "channel": 0}, {"type": "note_on", "time": 0, "note": 61, "velocity": 110, "channel": 0}, {"type": "note_off", "time": 166, "note": 61, "velocity": 110, "channel": 0}, {"type": "note_on", "time": 0, "note": 62, "velocity": 121, "channel": 0}, {"type": "note_off", "time": 222, "note": 62, "velocity": 121, "channel": 0}, {"type": "note_on", "time": 31, "note": 67, "velocity": 115, "channel": 0}, {"type": "note_off", "time": 192, "note": 67, "velocity": 115, "channel": 0}, {"type": "note_on", "time": 0, "note": 65, "velocity": 117, "channel": 0}, {"type": "note_off", "time": 576, "note": 65, "velocity": 117, "channel": 0}, {"type": "note_on", "time": 33, "note": 62, "velocity": 125, "channel": 0}, {"type": "note_off", "time": 271, "note": 62, "velocity": 125, "channel": 0}, {"type": "note_on", "time": 30, "note": 60, "velocity": 112, "channel": 0}, {"type": "note_off", "time": 150, "note": 60, "velocity": 112, "channel": 0}, {"type": "note_on", "time": 4123, "note": 75, "velocity": 119, "channel": 0}, {"type": "note_off", "time": 237, "note": 75, "velocity": 119, "channel": 0}, {"type": "note_on", "time": 40, "note": 74, "velocity": 109, "channel": 0}, {"type": "note_off", "time": 198, "note": 74, "velocity": 109, "channel": 0}, {"type": "note_on", "time": 167, "note": 72, "velocity": 101, "channel": 0}, {"type": "note_off", "time": 169, "note": 72, "velocity": 101, "channel": 0}, {"type": "note_on", "time": 0, "note": 71, "velocity": 98, "channel": 0}, {"type": "note_off", "time": 259, "note": 71, "velocity": 98, "channel": 0}, {"type": "note_on", "time": 86, "note": 68, "velocity": 106, "channel": 0}, {"type": "note_off", "time": 142, "note": 68, "velocity": 106, "channel": 0}, {"type": "note_on", "time": 39, "note": 70, "velocity": 108, "channel": 0}, {"type": "note_off", "time": 657, "note": 70, "velocity": 108, "channel": 0}, {"type": "note_on", "time": 0, "note": 69, "velocity": 108, "channel": 0}, {"type": "note_off", "time": 395, "note": 69, "velocity": 108, "channel": 0}, {"type": "note_on", "time": 74, "note": 68, "velocity": 115, "channel": 0}, {"type": "note_off", "time": 254, "note": 68, "velocity": 115, "channel": 0}, {"type": "note_on", "time": 7, "note": 67, "velocity": 108, "channel": 0}, {"type": "note_off", "time": 238, "note": 67, "velocity": 108, "channel": 0}, {"type": "note_on", "time": 135, "note": 65, "velocity": 117, "channel": 0}, {"type": "note_off", "time": 734, "note": 65, "velocity": 117, "channel": 0}, {"type": "note_on", "time": 11, "note": 63, "velocity": 123, "channel": 0}, {"type": "note_off", "time": 192, "note": 63, "velocity": 123, "channel": 0}, {"type": "note_on", "time": 135, "note": 62, "velocity": 125, "channel": 0}, {"type": "note_off", "time": 237, "note": 62, "velocity": 125, "channel": 0}, {"type": "note_on", "time": 33, "note": 60, "velocity": 113, "channel": 0}, {"type": "note_off", "time": 192, "note": 60, "velocity": 113, "channel": 0}, {"type": "note_on", "time": 99, "note": 58, "velocity": 107, "channel": 0}, {"type": "note_on", "time": 333, "note": 57, "velocity": 102, "channel": 0}, {"type": "note_off", "time": 0, "note": 58, "velocity": 107, "channel": 0}, {"type": "note_off", "time": 341, "note": 57, "velocity": 102, "channel": 0}, {"type": "note_on", "time": 15, "note": 56, "velocity": 103, "channel": 0}, {"type": "note_off", "time": 285, "note": 56, "velocity": 103, "channel": 0}, {"type": "note_on", "time": 95, "note": 55, "velocity": 112, "channel": 0}, {"type": "note_off", "time": 282, "note": 55, "velocity": 112, "channel": 0}, {"type": "note_on", "time": 14, "note": 53, "velocity": 103, "channel": 0}, {"type": "note_off", "time": 169, "note": 53, "velocity": 103, "channel": 0}, {"type": "note_on", "time": 33, "note": 54, "velocity": 101, "channel": 0}, {"type": "note_off", "time": 95, "note": 54, "velocity": 101, "channel": 0}, {"type": "note_on", "time": 96, "note": 57, "velocity": 109, "channel": 0}, {"type": "note_off", "time": 1084, "note": 57, "velocity": 109, "channel": 0}, {"type": "note_on", "time": 90, "note": 57, "velocity": 108, "channel": 0}, {"type": "note_on", "time": 134, "note": 65, "velocity": 108, "channel": 0}, {"type": "note_off", "time": 0, "note": 57, "velocity": 108, "channel": 0}, {"type": "note_off", "time": 270, "note": 65, "velocity": 108, "channel": 0}, {"type": "note_on", "time": 23, "note": 60, "velocity": 111, "channel": 0}, {"type": "note_off", "time": 293, "note": 60, "velocity": 111, "channel": 0}, {"type": "note_on", "time": 4932, "note": 69, "velocity": 112, "channel": 0}, {"type": "note_off", "time": 420, "note": 69, "velocity": 112, "channel": 0}, {"type": "note_on", "time": 484, "note": 72, "velocity": 103, "channel": 0}, {"type": "note_off", "time": 463, "note": 72, "velocity": 103, "channel": 0}, {"type": "note_on", "time": 331, "note": 74, "velocity": 74, "channel": 0}, {"type": "note_off", "time": 203, "note": 74, "velocity": 74, "channel": 0}, {"type": "note_on", "time": 101, "note": 77, "velocity": 100, "channel": 0}, {"type": "note_off", "time": 1434, "note": 77, "velocity": 100, "channel": 0}, {"type": "note_on", "time": 31, "note": 70, "velocity": 92, "channel": 0}, {"type": "note_off", "time": 150, "note": 70, "velocity": 92, "channel": 0}, {"type": "note_on", "time": 87, "note": 74, "velocity": 110, "channel": 0}, {"type": "note_off", "time": 500, "note": 74, "velocity": 110, "channel": 0}, {"type": "note_on", "time": 77, "note": 70, "velocity": 113, "channel": 0}, {"type": "note_off", "time": 542, "note": 70, "velocity": 113, "channel": 0}, {"type": "note_on", "time": 22, "note": 67, "velocity": 115, "channel": 0}, {"type": "note_off", "time": 542, "note": 67, "velocity": 115, "channel": 0}, {"type": "note_on", "time": 14, "note": 66, "velocity": 97, "channel": 0}, {"type": "note_off", "time": 190, "note": 66, "velocity": 97, "channel": 0}, {"type": "note_on", "time": 1334, "note": 69, "velocity": 115, "channel": 0}, {"type": "note_off", "time": 372, "note": 69, "velocity": 115, "channel": 0}, {"type": "note_on", "time": 32, "note": 67, "velocity": 115, "channel": 0}, {"type": "note_off", "time": 357, "note": 67, "velocity": 115, "channel": 0}, {"type": "note_on", "time": 57, "note": 65, "velocity": 111, "channel": 0}, {"type": "note_off", "time": 379, "note": 65, "velocity": 111, "channel": 0}, {"type": "note_on", "time": 0, "note": 67, "velocity": 79, "channel": 0}, {"type": "note_off", "time": 325, "note": 67, "velocity": 79, "channel": 0}, {"type": "note_on", "time": 63, "note": 69, "velocity": 114, "channel": 0}, {"type": "note_off", "time": 468, "note": 69, "velocity": 114, "channel": 0}, {"type": "note_on", "time": 0, "note": 71, "velocity": 91, "channel": 0}, {"type": "note_off", "time": 111, "note": 71, "velocity": 91, "channel": 0}, {"type": "note_on", "time": 0, "note": 77, "velocity": 93, "channel": 0}, {"type": "note_off", "time": 1104, "note": 77, "velocity": 93, "channel": 0}, {"type": "note_on", "time": 7, "note": 72, "velocity": 83, "channel": 0}, {"type": "note_off", "time": 103, "note": 72, "velocity": 83, "channel": 0}, {"type": "note_on", "time": 119, "note": 74, "velocity": 105, "channel": 0}, {"type": "note_off", "time": 579, "note": 74, "velocity": 105, "channel": 0}, {"type": "note_on", "time": 0, "note": 77, "velocity": 101, "channel": 0}, {"type": "note_off", "time": 587, "note": 77, "velocity": 101, "channel": 0}, {"type": "note_on", "time": 63, "note": 70, "velocity": 104, "channel": 0}, {"type": "note_off", "time": 119, "note": 70, "velocity": 104, "channel": 0}, {"type": "note_on", "time": 0, "note": 72, "velocity": 109, "channel": 0}, {"type": "note_off", "time": 373, "note": 72, "velocity": 109, "channel": 0}, {"type": "note_on", "time": 0, "note": 70, "velocity": 79, "channel": 0}, {"type": "note_off", "time": 111, "note": 70, "velocity": 79, "channel": 0}, {"type": "note_on", "time": 1382, "note": 70, "velocity": 114, "channel": 0}, {"type": "note_off", "time": 463, "note": 70, "velocity": 114, "channel": 0}, {"type": "note_on", "time": 307, "note": 70, "velocity": 114, "channel": 0}, {"type": "note_off", "time": 497, "note": 70, "velocity": 114, "channel": 0}, {"type": "note_on", "time": 43, "note": 75, "velocity": 122, "channel": 0}, {"type": "note_off", "time": 301, "note": 75, "velocity": 122, "channel": 0}, {"type": "note_on", "time": 0, "note": 69, "velocity": 97, "channel": 0}, {"type": "note_off", "time": 87, "note": 69, "velocity": 97, "channel": 0}, {"type": "note_on", "time": 0, "note": 72, "velocity": 109, "channel": 0}, {"type": "note_off", "time": 730, "note": 72, "velocity": 109, "channel": 0}, {"type": "note_on", "time": 68, "note": 70, "velocity": 111, "channel": 0}, {"type": "note_off", "time": 606, "note": 70, "velocity": 111, "channel": 0}, {"type": "note_on", "time": 0, "note": 68, "velocity": 111, "channel": 0}, {"type": "note_off", "time": 778, "note": 68, "velocity": 111, "channel": 0}, {"type": "note_on", "time": 47, "note": 67, "velocity": 111, "channel": 0}, {"type": "note_off", "time": 1914, "note": 67, "velocity": 111, "channel": 0}, {"type": "note_on", "time": 142, "note": 67, "velocity": 111, "channel": 0}, {"type": "note_off", "time": 460, "note": 67, "velocity": 111, "channel": 0}, {"type": "note_on", "time": 37, "note": 65, "velocity": 115, "channel": 0}, {"type": "note_off", "time": 338, "note": 65, "velocity": 115, "channel": 0}, {"type": "note_on", "time": 179, "note": 63, "velocity": 115, "channel": 0}, {"type": "note_off", "time": 519, "note": 63, "velocity": 115, "channel": 0}, {"type": "note_on", "time": 139, "note": 63, "velocity": 108, "channel": 0}, {"type": "note_off", "time": 530, "note": 63, "velocity": 108, "channel": 0}, {"type": "note_on", "time": 64, "note": 63, "velocity": 110, "channel": 0}, {"type": "note_off", "time": 610, "note": 63, "velocity": 110, "channel": 0}, {"type": "note_on", "time": 96, "note": 63, "velocity": 110, "channel": 0}, {"type": "note_off", "time": 389, "note": 63, "velocity": 110, "channel": 0}, {"type": "note_on", "time": 15, "note": 62, "velocity": 106, "channel": 0}, {"type": "note_off", "time": 87, "note": 62, "velocity": 106, "channel": 0}, {"type": "note_on", "time": 3478, "note": 64, "velocity": 116, "channel": 0}, {"type": "note_off", "time": 206, "note": 64, "velocity": 116, "channel": 0}, {"type": "note_on", "time": 6, "note": 62, "velocity": 117, "channel": 0}, {"type": "note_off", "time": 237, "note": 62, "velocity": 117, "channel": 0}, {"type": "note_on", "time": 121, "note": 64, "velocity": 118, "channel": 0}, {"type": "note_off", "time": 627, "note": 64, "velocity": 118, "channel": 0}, {"type": "note_on", "time": 42, "note": 62, "velocity": 112, "channel": 0}, {"type": "note_off", "time": 258, "note": 62, "velocity": 112, "channel": 0}, {"type": "note_on", "time": 0, "note": 60, "velocity": 107, "channel": 0}, {"type": "note_off", "time": 361, "note": 60, "velocity": 107, "channel": 0}, {"type": "note_on", "time": 107, "note": 70, "velocity": 94, "channel": 0}, {"type": "note_off", "time": 142, "note": 70, "velocity": 94, "channel": 0}, {"type": "note_on", "time": 23, "note": 72, "velocity": 93, "channel": 0}, {"type": "note_off", "time": 1699, "note": 72, "velocity": 93, "channel": 0}, {"type": "note_on", "time": 508, "note": 73, "velocity": 99, "channel": 0}, {"type": "note_off", "time": 135, "note": 73, "velocity": 99, "channel": 0}, {"type": "note_on", "time": 36, "note": 74, "velocity": 108, "channel": 0}, {"type": "note_off", "time": 259, "note": 74, "velocity": 108, "channel": 0}, {"type": "note_on", "time": 0, "note": 72, "velocity": 102, "channel": 0}, {"type": "note_off", "time": 179, "note": 72, "velocity": 102, "channel": 0}, {"type": "note_on", "time": 0, "note": 70, "velocity": 112, "channel": 0}, {"type": "note_off", "time": 395, "note": 70, "velocity": 112, "channel": 0}, {"type": "note_on", "time": 311, "note": 70, "velocity": 113, "channel": 0}, {"type": "note_off", "time": 937, "note": 70, "velocity": 113, "channel": 0}, {"type": "note_on", "time": 62, "note": 74, "velocity": 106, "channel": 0}, {"type": "note_off", "time": 474, "note": 74, "velocity": 106, "channel": 0}, {"type": "note_on", "time": 33, "note": 72, "velocity": 97, "channel": 0}, {"type": "note_off", "time": 813, "note": 72, "velocity": 97, "channel": 0}, {"type": "note_on", "time": 0, "note": 72, "velocity": 97, "channel": 0}, {"type": "note_on", "time": 236, "note": 69, "velocity": 114, "channel": 0}, {"type": "note_off", "time": 0, "note": 72, "velocity": 97, "channel": 0}, {"type": "note_off", "time": 556, "note": 69, "velocity": 114, "channel": 0}, {"type": "note_on", "time": 0, "note": 65, "velocity": 113, "channel": 0}, {"type": "note_off", "time": 428, "note": 65, "velocity": 113, "channel": 0}, {"type": "note_on", "time": 1048, "note": 67, "velocity": 116, "channel": 0}, {"type": "note_off", "time": 222, "note": 67, "velocity": 116, "channel": 0}, {"type": "note_on", "time": 0, "note": 63, "velocity": 127, "channel": 0}, {"type": "note_off", "time": 270, "note": 63, "velocity": 127, "channel": 0}, {"type": "note_on", "time": 39, "note": 60, "velocity": 114, "channel": 0}, {"type": "note_off", "time": 802, "note": 60, "velocity": 114, "channel": 0}, {"type": "note_on", "time": 103, "note": 65, "velocity": 106, "channel": 0}, {"type": "note_off", "time": 246, "note": 65, "velocity": 106, "channel": 0}, {"type": "note_on", "time": 33, "note": 62, "velocity": 118, "channel": 0}, {"type": "note_off", "time": 237, "note": 62, "velocity": 118, "channel": 0}, {"type": "note_on", "time": 79, "note": 58, "velocity": 99, "channel": 0}, {"type": "note_off", "time": 1253, "note": 58, "velocity": 99, "channel": 0}, {"type": "note_on", "time": 34, "note": 63, "velocity": 120, "channel": 0}, {"type": "note_off", "time": 237, "note": 63, "velocity": 120, "channel": 0}, {"type": "note_on", "time": 21, "note": 60, "velocity": 112, "channel": 0}, {"type": "note_off", "time": 190, "note": 60, "velocity": 112, "channel": 0}, {"type": "note_on", "time": 0, "note": 55, "velocity": 104, "channel": 0}, {"type": "note_off", "time": 158, "note": 55, "velocity": 104, "channel": 0}, {"type": "note_on", "time": 0, "note": 57, "velocity": 97, "channel": 0}, {"type": "note_off", "time": 1660, "note": 57, "velocity": 97, "channel": 0}, {"type": "end_of_track", "time": 0}]]}