{"ticks_per_beat": 4620, "tracks": [[{"type": "track_name", "name": "Melody", "time": 0}, {"type": "set_tempo", "tempo": 1176470, "time": 0}, {"type": "key_signature", "key": "Eb", "time": 0}, {"type": "time_signature", "numerator": 4, "denominator": 4, "clocks_per_click": 24, "notated_32nd_notes_per_beat": 8, "time": 0}, {"type": "note_on", "time": 38620, "note": 66, "velocity": 121, "channel": 0}, {"type": "note_off", "time": 372, "note": 66, "velocity": 121, "channel": 0}, {"type": "note_on", "time": 36, "note": 67, "velocity": 124, "channel": 0}, {"type": "note_off", "time": 1654, "note": 67, "velocity": 124, "channel": 0}, {"type": "note_on", "time": 26, "note": 69, "velocity": 99, "channel": 0}, {"type": "note_off", "time": 321, "note": 69, "velocity": 99, "channel": 0}, {"type": "note_on", "time": 37, "note": 72, "velocity": 111, "channel": 0}, {"type": "note_off", "time": 658, "note": 72, "velocity": 111, "channel": 0}, {"type": "note_on", "time": 581, "note": 67, "velocity": 119, "channel": 0}, {"type": "note_off", "time": 1641, "note": 67, "velocity": 119, "channel": 0}, {"type": "note_on", "time": 54, "note": 71, "velocity": 111, "channel": 0}, {"type": "note_off", "time": 247, "note": 71, "velocity": 111, "channel": 0}, {"type": "note_on", "time": 17, "note": 72, "velocity": 110, "channel": 0}, {"type": "note_off", "time": 1498, "note": 72, "velocity": 110, "channel": 0}, {"type": "note_on", "time": 40, "note": 70, "velocity": 107, "channel": 0}, {"type": "note_off", "time": 1554, "note": 70, "velocity": 107, "channel": 0}, {"type": "note_on", "time": 142, "note": 67, "velocity": 114, "channel": 0}, {"type": "note_off", "time": 1835, "note": 67, "velocity": 114, "channel": 0}, {"type": "note_on", "time": 8012, "note": 67, "velocity": 121, "channel": 0}, {"type": "note_off", "time": 1276, "note": 67, "velocity": 121, "channel": 0}, {"type": "note_on", "time": 11, "note": 70, "velocity": 110, "channel": 0}, {"type": "note_off", "time": 205, "note": 70, "velocity": 110, "channel": 0}, {"type": "note_on", "time": 31, "note": 72, "velocity": 111, "channel": 0}, {"type": "note_off", "time": 1111, "note": 72, "velocity": 111, "channel": 0}, {"type": "note_on", "time": 99, "note": 70, "velocity": 110, "channel": 0}, {"type": "note_off", "time": 1139, "note": 70, "velocity": 110, "channel": 0}, {"type": "note_on", "time": 45, "note": 67, "velocity": 119, "channel": 0}, {"type": "note_off", "time": 1504, "note": 67, "velocity": 119, "channel": 0}, {"type": "note_on", "time": 45, "note": 65, "velocity": 108, "channel": 0}, {"type": "note_off", "time": 4057, "note": 65, "velocity": 108, "channel": 0}, {"type": "note_on", "time": 0, "note": 60, "velocity": 102, "channel": 0}, {"type": "note_off", "time": 1778, "note": 60, "velocity": 102, "channel": 0}, {"type": "note_on", "time": 227, "note": 58, "velocity": 98, "channel": 0}, {"type": "note_off", "time": 1869, "note": 58, "velocity": 98, "channel": 0}, {"type": "note_on", "time": 136, "note": 62, "velocity": 84, "channel": 0}, {"type": "note_off", "time": 6109, "note": 62, "velocity": 84, "channel": 0}, {"type": "note_on", "time": 14863, "note": 57, "velocity": 109, "channel": 0}, {"type": "note_off", "time": 1550, "note": 57, "velocity": 109, "channel": 0}, {"type": "note_on", "time": 91, "note": 56, "velocity": 107, "channel": 0}, {"type": "note_off", "time": 1230, "note": 56, "velocity": 107, "channel": 0}, {"type": "note_on", "time": 91, "note": 55, "velocity": 102, "channel": 0}, {"type": "note_off", "time": 911, "note": 55, "velocity": 102, "channel": 0}, {"type": "note_on", "time": 91, "note": 61, "velocity": 106, "channel": 0}, {"type": "note_off", "time": 2963, "note": 61, "velocity": 106, "channel": 0}, {"type": "note_on", "time": 45, "note": 60, "velocity": 106, "channel": 0}, {"type": "note_off", "time": 1367, "note": 60, "velocity": 106, "channel": 0}, {"type": "note_on", "time": 222, "note": 59, "velocity": 104, "channel": 0}, {"type": "note_off", "time": 2885, "note": 59, "velocity": 104, "channel": 0}, {"type": "note_on", "time": 351, "note": 70, "velocity": 93, "channel": 0}, {"type": "note_off", "time": 200, "note": 70, "velocity": 93, "channel": 0}, {"type": "note_on", "time": 78, "note": 67, "velocity": 115, "channel": 0}, {"type": "note_off", "time": 1003, "note": 67, "velocity": 115, "channel": 0}, {"type": "note_on", "time": 0, "note": 66, "velocity": 109, "channel": 0}, {"type": "note_off", "time": 866, "note": 66, "velocity": 109, "channel": 0}, {"type": "note_on", "time": 136, "note": 65, "velocity": 86, "channel": 0}, {"type": "note_off", "time": 12401, "note": 65, "velocity": 86, "channel": 0}, {"type": "note_on", "time": 9494, "note": 60, "velocity": 84, "channel": 0}, {"type": "note_off", "time": 336, "note": 60, "velocity": 84, "channel": 0}, {"type": "note_on", "time": 564, "note": 71, "velocity": 114, "channel": 0}, {"type": "note_off", "time": 501, "note": 71, "velocity": 114, "channel": 0}, {"type": "note_on", "time": 45, "note": 72, "velocity": 116, "channel": 0}, {"type": "note_off", "time": 547, "note": 72, "velocity": 116, "channel": 0}, {"type": "note_on", "time": 136, "note": 71, "velocity": 110, "channel": 0}, {"type": "note_off", "time": 957, "note": 71, "velocity": 110, "channel": 0}, {"type": "note_on", "time": 91, "note": 70, "velocity": 96, "channel": 0}, {"type": "note_off", "time": 9437, "note": 70, "velocity": 96, "channel": 0}, {"type": "note_on", "time": 164, "note": 65, "velocity": 95, "channel": 0}, {"type": "note_off", "time": 865, "note": 65, "velocity": 95, "channel": 0}, {"type": "note_on", "time": 0, "note": 64, "velocity": 101, "channel": 0}, {"type": "note_off", "time": 833, "note": 64, "velocity": 101, "channel": 0}, {"type": "note_on", "time": 96, "note": 63, "velocity": 95, "channel": 0}, {"type": "note_off", "time": 7341, "note": 63, "velocity": 95, "channel": 0}, {"type": "note_on", "time": 32, "note": 61, "velocity": 100, "channel": 0}, {"type": "note_off", "time": 897, "note": 61, "velocity": 100, "channel": 0}, {"type": "note_on", "time": 64, "note": 58, "velocity": 90, "channel": 0}, {"type": "note_off", "time": 929, "note": 58, "velocity": 90, "channel": 0}, {"type": "note_on", "time": 192, "note": 62, "velocity": 97, "channel": 0}, {"type": "note_off", "time": 416, "note": 62, "velocity": 97, "channel": 0}, {"type": "note_on", "time": 32, "note": 63, "velocity": 96, "channel": 0}, {"type": "note_off", "time": 2436, "note": 63, "velocity": 96, "channel": 0}, {"type": "note_on", "time": 99, "note": 62, "velocity": 89, "channel": 0}, {"type": "note_off", "time": 393, "note": 62, "velocity": 89, "channel": 0}, {"type": "note_on", "time": 52, "note": 63, "velocity": 102, "channel": 0}, {"type": "note_off", "time": 3526, "note": 63, "velocity": 102, "channel": 0}, {"type": "note_on", "time": 128, "note": 61, "velocity": 103, "channel": 0}, {"type": "note_off", "time": 801, "note": 61, "velocity": 103, "channel": 0}, {"type": "note_on", "time": 64, "note": 58, "velocity": 92, "channel": 0}, {"type": "note_off", "time": 1218, "note": 58, "velocity": 92, "channel": 0}, {"type": "note_on", "time": 96, "note": 63, "velocity": 95, "channel": 0}, {"type": "note_off", "time": 480, "note": 63, "velocity": 95, "channel": 0}, {"type": "note_on", "time": 64, "note": 61, "velocity": 96, "channel": 0}, {"type": "note_off", "time": 544, "note": 61, "velocity": 96, "channel": 0}, {"type": "note_on", "time": 64, "note": 58, "velocity": 86, "channel": 0}, {"type": "note_off", "time": 7341, "note": 58, "velocity": 86, "channel": 0}, {"type": "note_on", "time": 7020, "note": 58, "velocity": 98, "channel": 0}, {"type": "note_off", "time": 1089, "note": 58, "velocity": 98, "channel": 0}, {"type": "note_on", "time": 1226, "note": 44, "velocity": 100, "channel": 0}, {"type": "note_off", "time": 1683, "note": 44, "velocity": 100, "channel": 0}, {"type": "note_on", "time": 360, "note": 47, "velocity": 101, "channel": 0}, {"type": "note_off", "time": 1154, "note": 47, "velocity": 101, "channel": 0}, {"type": "note_on", "time": 64, "note": 52, "velocity": 93, "channel": 0}, {"type": "note_off", "time": 2756, "note": 52, "velocity": 93, "channel": 0}, {"type": "note_on", "time": 64, "note": 54, "velocity": 94, "channel": 0}, {"type": "note_off", "time": 2724, "note": 54, "velocity": 94, "channel": 0}, {"type": "note_on", "time": 128, "note": 56, "velocity": 95, "channel": 0}, {"type": "note_off", "time": 2981, "note": 56, "velocity": 95, "channel": 0}, {"type": "note_on", "time": 64, "note": 59, "velocity": 98, "channel": 0}, {"type": "note_off", "time": 2885, "note": 59, "velocity": 98, "channel": 0}, {"type": "note_on", "time": 0, "note": 64, "velocity": 103, "channel": 0}, {"type": "note_off", "time": 2532, "note": 64, "velocity": 103, "channel": 0}, {"type": "note_on", "time": 64, "note": 66, "velocity": 110, "channel": 0}, {"type": "note_off", "time": 737, "note": 66, "velocity": 110, "channel": 0}, {"type": "note_on", "time": 96, "note": 68, "velocity": 104, "channel": 0}, {"type": "note_off", "time": 1122, "note": 68, "velocity": 104, "channel": 0}, {"type": "note_on", "time": 32, "note": 70, "velocity": 93, "channel": 0}, {"type": "note_off", "time": 9617, "note": 70, "velocity": 93, "channel": 0}, {"type": "note_on", "time": 7437, "note": 70, "velocity": 81, "channel": 0}, {"type": "note_off", "time": 705, "note": 70, "velocity": 81, "channel": 0}, {"type": "note_on", "time": 32, "note": 74, "velocity": 105, "channel": 0}, {"type": "note_off", "time": 320, "note": 74, "velocity": 105, "channel": 0}, {"type": "note_on", "time": 48, "note": 75, "velocity": 124, "channel": 0}, {"type": "note_off", "time": 1378, "note": 75, "velocity": 124, "channel": 0}, {"type": "note_on", "time": 208, "note": 73, "velocity": 103, "channel": 0}, {"type": "note_off", "time": 16188, "note": 73, "velocity": 103, "channel": 0}, {"type": "note_on", "time": 192, "note": 70, "velocity": 9, "channel": 0}, {"type": "note_off", "time": 1378, "note": 70, "velocity": 9, "channel": 0}, {"type": "note_on", "time": 128, "note": 69, "velocity": 96, "channel": 0}, {"type": "note_off", "time": 2468, "note": 69, "velocity": 96, "channel": 0}, {"type": "note_on", "time": 292, "note": 76, "velocity": 103, "channel": 0}, {"type": "note_off", "time": 512, "note": 76, "velocity": 103, "channel": 0}, {"type": "note_on", "time": 60, "note": 77, "velocity": 85, "channel": 0}, {"type": "note_off", "time": 13239, "note": 77, "velocity": 85, "channel": 0}, {"type": "note_on", "time": 224, "note": 69, "velocity": 87, "channel": 0}, {"type": "note_off", "time": 1827, "note": 69, "velocity": 87, "channel": 0}, {"type": "note_on", "time": 320, "note": 68, "velocity": 79, "channel": 0}, {"type": "note_off", "time": 6892, "note": 68, "velocity": 79, "channel": 0}, {"type": "note_on", "time": 10325, "note": 70, "velocity": 105, "channel": 0}, {"type": "note_off", "time": 900, "note": 70, "velocity": 105, "channel": 0}, {"type": "note_on", "time": 827, "note": 71, "velocity": 85, "channel": 0}, {"type": "note_off", "time": 833, "note": 71, "velocity": 85, "channel": 0}, {"type": "note_on", "time": 192, "note": 73, "velocity": 96, "channel": 0}, {"type": "note_off", "time": 6187, "note": 73, "velocity": 96, "channel": 0}, {"type": "note_on", "time": 0, "note": 70, "velocity": 99, "channel": 0}, {"type": "note_off", "time": 1787, "note": 70, "velocity": 99, "channel": 0}, {"type": "note_on", "time": 649, "note": 73, "velocity": 101, "channel": 0}, {"type": "note_off", "time": 2885, "note": 73, "velocity": 101, "channel": 0}, {"type": "note_on", "time": 120, "note": 70, "velocity": 102, "channel": 0}, {"type": "note_off", "time": 1105, "note": 70, "velocity": 102, "channel": 0}, {"type": "note_on", "time": 528, "note": 71, "velocity": 94, "channel": 0}, {"type": "note_off", "time": 665, "note": 71, "velocity": 94, "channel": 0}, {"type": "note_on", "time": 48, "note": 73, "velocity": 101, "channel": 0}, {"type": "note_off", "time": 1570, "note": 73, "velocity": 101, "channel": 0}, {"type": "note_on", "time": 128, "note": 70, "velocity": 107, "channel": 0}, {"type": "note_off", "time": 638, "note": 70, "velocity": 107, "channel": 0}, {"type": "note_on", "time": 333, "note": 72, "velocity": 104, "channel": 0}, {"type": "note_off", "time": 421, "note": 72, "velocity": 104, "channel": 0}, {"type": "note_on", "time": 5, "note": 73, "velocity": 105, "channel": 0}, {"type": "note_off", "time": 410, "note": 73, "velocity": 105, "channel": 0}, {"type": "note_on", "time": 57, "note": 70, "velocity": 112, "channel": 0}, {"type": "note_off", "time": 745, "note": 70, "velocity": 112, "channel": 0}, {"type": "note_on", "time": 625, "note": 69, "velocity": 114, "channel": 0}, {"type": "note_off", "time": 320, "note": 69, "velocity": 114, "channel": 0}, {"type": "note_on", "time": 21, "note": 70, "velocity": 111, "channel": 0}, {"type": "note_off", "time": 1464, "note": 70, "velocity": 111, "channel": 0}, {"type": "note_on", "time": 341, "note": 69, "velocity": 114, "channel": 0}, {"type": "note_off", "time": 320, "note": 69, "velocity": 114, "channel": 0}, {"type": "note_on", "time": 88, "note": 70, "velocity": 100, "channel": 0}, {"type": "note_off", "time": 6836, "note": 70, "velocity": 100, "channel": 0}, {"type": "note_on", "time": 4205, "note": 68, "velocity": 118, "channel": 0}, {"type": "note_off", "time": 381, "note": 68, "velocity": 118, "channel": 0}, {"type": "note_on", "time": 61, "note": 70, "velocity": 119, "channel": 0}, {"type": "note_off", "time": 1282, "note": 70, "velocity": 119, "channel": 0}, {"type": "note_on", "time": 120, "note": 69, "velocity": 114, "channel": 0}, {"type": "note_off", "time": 1122, "note": 69, "velocity": 114, "channel": 0}, {"type": "note_on", "time": 685, "note": 68, "velocity": 116, "channel": 0}, {"type": "note_off", "time": 521, "note": 68, "velocity": 116, "channel": 0}, {"type": "note_on", "time": 45, "note": 67, "velocity": 119, "channel": 0}, {"type": "note_off", "time": 450, "note": 67, "velocity": 119, "channel": 0}, {"type": "note_on", "time": 94, "note": 66, "velocity": 112, "channel": 0}, {"type": "note_off", "time": 849, "note": 66, "velocity": 112, "channel": 0}, {"type": "note_on", "time": 393, "note": 63, "velocity": 113, "channel": 0}, {"type": "note_off", "time": 9323, "note": 63, "velocity": 113, "channel": 0}, {"type": "note_on", "time": 83, "note": 61, "velocity": 106, "channel": 0}, {"type": "note_off", "time": 2885, "note": 61, "velocity": 106, "channel": 0}, {"type": "note_on", "time": 96, "note": 58, "velocity": 99, "channel": 0}, {"type": "note_off", "time": 1634, "note": 58, "velocity": 99, "channel": 0}, {"type": "note_on", "time": 64, "note": 56, "velocity": 103, "channel": 0}, {"type": "note_off", "time": 1731, "note": 56, "velocity": 103, "channel": 0}, {"type": "note_on", "time": 480, "note": 54, "velocity": 92, "channel": 0}, {"type": "note_off", "time": 384, "note": 54, "velocity": 92, "channel": 0}, {"type": "note_on", "time": 96, "note": 55, "velocity": 104, "channel": 0}, {"type": "note_on", "time": 2179, "note": 56, "velocity": 97, "channel": 0}, {"type": "note_off", "time": 0, "note": 55, "velocity": 104, "channel": 0}, {"type": "note_off", "time": 4167, "note": 56, "velocity": 97, "channel": 0}, {"type": "note_on", "time": 96, "note": 58, "velocity": 93, "channel": 0}, {"type": "note_off", "time": 4840, "note": 58, "velocity": 93, "channel": 0}, {"type": "note_on", "time": 3975, "note": 58, "velocity": 104, "channel": 0}, {"type": "note_off", "time": 1827, "note": 58, "velocity": 104, "channel": 0}, {"type": "note_on", "time": 96, "note": 60, "velocity": 91, "channel": 0}, {"type": "note_off", "time": 3045, "note": 60, "velocity": 91, "channel": 0}, {"type": "note_on", "time": 64, "note": 62, "velocity": 89, "channel": 0}, {"type": "note_off", "time": 4584, "note": 62, "velocity": 89, "channel": 0}, {"type": "note_on", "time": 128, "note": 63, "velocity": 98, "channel": 0}, {"type": "note_off", "time": 4359, "note": 63, "velocity": 98, "channel": 0}, {"type": "note_on", "time": 192, "note": 65, "velocity": 88, "channel": 0}, {"type": "note_off", "time": 6347, "note": 65, "velocity": 88, "channel": 0}, {"type": "note_on", "time": 96, "note": 64, "velocity": 81, "channel": 0}, {"type": "note_off", "time": 512, "note": 64, "velocity": 81, "channel": 0}, {"type": "note_on", "time": 0, "note": 65, "velocity": 86, "channel": 0}, {"type": "note_off", "time": 16477, "note": 65, "velocity": 86, "channel": 0}, {"type": "note_on", "time": 64, "note": 62, "velocity": 105, "channel": 0}, {"type": "note_off", "time": 1186, "note": 62, "velocity": 105, "channel": 0}, {"type": "note_on", "time": 359, "note": 56, "velocity": 102, "channel": 0}, {"type": "note_off", "time": 1151, "note": 56, "velocity": 102, "channel": 0}, {"type": "note_on", "time": 123, "note": 68, "velocity": 81, "channel": 0}, {"type": "note_off", "time": 7950, "note": 68, "velocity": 81, "channel": 0}, {"type": "note_on", "time": 8591, "note": 67, "velocity": 124, "channel": 0}, {"type": "note_off", "time": 1089, "note": 67, "velocity": 124, "channel": 0}, {"type": "note_on", "time": 470, "note": 65, "velocity": 113, "channel": 0}, {"type": "note_off", "time": 911, "note": 65, "velocity": 113, "channel": 0}, {"type": "note_on", "time": 445, "note": 53, "velocity": 102, "channel": 0}, {"type": "note_off", "time": 1089, "note": 53, "velocity": 102, "channel": 0}, {"type": "note_on", "time": 60, "note": 63, "velocity": 108, "channel": 0}, {"type": "note_off", "time": 460, "note": 63, "velocity": 108, "channel": 0}, {"type": "note_on", "time": 24, "note": 65, "velocity": 101, "channel": 0}, {"type": "note_off", "time": 6732, "note": 65, "velocity": 101, "channel": 0}, {"type": "note_on", "time": 64, "note": 62, "velocity": 101, "channel": 0}, {"type": "note_off", "time": 4680, "note": 62, "velocity": 101, "channel": 0}, {"type": "note_on", "time": 64, "note": 60, "velocity": 105, "channel": 0}, {"type": "note_off", "time": 961, "note": 60, "velocity": 105, "channel": 0}, {"type": "note_on", "time": 64, "note": 58, "velocity": 97, "channel": 0}, {"type": "note_off", "time": 1474, "note": 58, "velocity": 97, "channel": 0}, {"type": "note_on", "time": 970, "note": 68, "velocity": 110, "channel": 0}, {"type": "note_off", "time": 672, "note": 68, "velocity": 110, "channel": 0}, {"type": "note_on", "time": 24, "note": 70, "velocity": 89, "channel": 0}, {"type": "note_off", "time": 12919, "note": 70, "velocity": 89, "channel": 0}, {"type": "note_on", "time": 3367, "note": 65, "velocity": 102, "channel": 0}, {"type": "note_off", "time": 1082, "note": 65, "velocity": 102, "channel": 0}, {"type": "note_on", "time": 1352, "note": 44, "velocity": 101, "channel": 0}, {"type": "note_off", "time": 993, "note": 44, "velocity": 101, "channel": 0}, {"type": "note_on", "time": 224, "note": 56, "velocity": 104, "channel": 0}, {"type": "note_off", "time": 1122, "note": 56, "velocity": 104, "channel": 0}, {"type": "note_on", "time": 64, "note": 58, "velocity": 108, "channel": 0}, {"type": "note_off", "time": 2949, "note": 58, "velocity": 108, "channel": 0}, {"type": "note_on", "time": 64, "note": 59, "velocity": 103, "channel": 0}, {"type": "note_off", "time": 3045, "note": 59, "velocity": 103, "channel": 0}, {"type": "note_on", "time": 0, "note": 60, "velocity": 107, "channel": 0}, {"type": "note_off", "time": 2564, "note": 60, "velocity": 107, "channel": 0}, {"type": "note_on", "time": 32, "note": 61, "velocity": 110, "channel": 0}, {"type": "note_off", "time": 2436, "note": 61, "velocity": 110, "channel": 0}, {"type": "note_on", "time": 0, "note": 60, "velocity": 99, "channel": 0}, {"type": "note_off", "time": 1186, "note": 60, "velocity": 99, "channel": 0}, {"type": "note_on", "time": 64, "note": 61, "velocity": 110, "channel": 0}, {"type": "note_off", "time": 1314, "note": 61, "velocity": 110, "channel": 0}, {"type": "note_on", "time": 128, "note": 62, "velocity": 98, "channel": 0}, {"type": "note_off", "time": 1602, "note": 62, "velocity": 98, "channel": 0}, {"type": "note_on", "time": 64, "note": 63, "velocity": 108, "channel": 0}, {"type": "note_off", "time": 1474, "note": 63, "velocity": 108, "channel": 0}, {"type": "note_on", "time": 1314, "note": 63, "velocity": 99, "channel": 0}, {"type": "note_off", "time": 288, "note": 63, "velocity": 99, "channel": 0}, {"type": "note_on", "time": 64, "note": 65, "velocity": 98, "channel": 0}, {"type": "note_off", "time": 3013, "note": 65, "velocity": 98, "channel": 0}, {"type": "note_on", "time": 3173, "note": 67, "velocity": 9, "channel": 0}, {"type": "note_off", "time": 2404, "note": 67, "velocity": 9, "channel": 0}, {"type": "note_on", "time": 128, "note": 69, "velocity": 116, "channel": 0}, {"type": "note_off", "time": 1731, "note": 69, "velocity": 116, "channel": 0}, {"type": "note_on", "time": 320, "note": 70, "velocity": 111, "channel": 0}, {"type": "note_off", "time": 1378, "note": 70, "velocity": 111, "channel": 0}, {"type": "note_on", "time": 0, "note": 72, "velocity": 106, "channel": 0}, {"type": "note_off", "time": 1057, "note": 72, "velocity": 106, "channel": 0}, {"type": "note_on", "time": 480, "note": 72, "velocity": 107, "channel": 0}, {"type": "note_off", "time": 304, "note": 72, "velocity": 107, "channel": 0}, {"type": "note_on", "time": 47, "note": 73, "velocity": 111, "channel": 0}, {"type": "note_off", "time": 4896, "note": 73, "velocity": 111, "channel": 0}, {"type": "note_on", "time": 87, "note": 72, "velocity": 110, "channel": 0}, {"type": "note_off", "time": 148, "note": 72, "velocity": 110, "channel": 0}, {"type": "note_on", "time": 136, "note": 71, "velocity": 119, "channel": 0}, {"type": "note_off", "time": 148, "note": 71, "velocity": 119, "channel": 0}, {"type": "note_on", "time": 72, "note": 70, "velocity": 121, "channel": 0}, {"type": "note_off", "time": 937, "note": 70, "velocity": 121, "channel": 0}, {"type": "note_on", "time": 3991, "note": 63, "velocity": 127, "channel": 0}, {"type": "note_off", "time": 1250, "note": 63, "velocity": 127, "channel": 0}, {"type": "note_on", "time": 577, "note": 70, "velocity": 115, "channel": 0}, {"type": "note_off", "time": 1346, "note": 70, "velocity": 115, "channel": 0}, {"type": "note_on", "time": 160, "note": 72, "velocity": 112, "channel": 0}, {"type": "note_off", "time": 256, "note": 72, "velocity": 112, "channel": 0}, {"type": "note_on", "time": 32, "note": 73, "velocity": 107, "channel": 0}, {"type": "note_off", "time": 833, "note": 73, "velocity": 107, "channel": 0}, {"type": "note_on", "time": 163, "note": 70, "velocity": 116, "channel": 0}, {"type": "note_off", "time": 547, "note": 70, "velocity": 116, "channel": 0}, {"type": "note_on", "time": 458, "note": 70, "velocity": 114, "channel": 0}, {"type": "note_off", "time": 524, "note": 70, "velocity": 114, "channel": 0}, {"type": "note_on", "time": 91, "note": 68, "velocity": 120, "channel": 0}, {"type": "note_off", "time": 341, "note": 68, "velocity": 120, "channel": 0}, {"type": "note_on", "time": 584, "note": 68, "velocity": 110, "channel": 0}, {"type": "note_off", "time": 390, "note": 68, "velocity": 110, "channel": 0}, {"type": "note_on", "time": 24, "note": 70, "velocity": 113, "channel": 0}, {"type": "note_off", "time": 1249, "note": 70, "velocity": 113, "channel": 0}, {"type": "note_on", "time": 48, "note": 75, "velocity": 104, "channel": 0}, {"type": "note_off", "time": 20933, "note": 75, "velocity": 104, "channel": 0}, {"type": "note_on", "time": 352, "note": 75, "velocity": 101, "channel": 0}, {"type": "note_off", "time": 1057, "note": 75, "velocity": 101, "channel": 0}, {"type": "note_on", "time": 32, "note": 72, "velocity": 85, "channel": 0}, {"type": "note_off", "time": 2803, "note": 72, "velocity": 85, "channel": 0}, {"type": "note_on", "time": 136, "note": 65, "velocity": 88, "channel": 0}, {"type": "note_off", "time": 491, "note": 65, "velocity": 88, "channel": 0}, {"type": "note_on", "time": 29, "note": 67, "velocity": 95, "channel": 0}, {"type": "note_off", "time": 2917, "note": 67, "velocity": 95, "channel": 0}, {"type": "note_on", "time": 128, "note": 65, "velocity": 80, "channel": 0}, {"type": "note_on", "time": 929, "note": 63, "velocity": 94, "channel": 0}, {"type": "note_off", "time": 0, "note": 65, "velocity": 80, "channel": 0}, {"type": "note_off", "time": 1410, "note": 63, "velocity": 94, "channel": 0}, {"type": "note_on", "time": 32, "note": 62, "velocity": 77, "channel": 0}, {"type": "note_off", "time": 9008, "note": 62, "velocity": 77, "channel": 0}, {"type": "end_of_track", "time": 0}]]}