{"ticks_per_beat": 192, "tracks": [[{"type": "track_name", "name": "Melody", "time": 0}, {"type": "set_tempo", "tempo": 211267, "time": 0}, {"type": "key_signature", "key": "F", "time": 0}, {"type": "time_signature", "numerator": 4, "denominator": 4, "clocks_per_click": 24, "notated_32nd_notes_per_beat": 8, "time": 0}, {"type": "note_on", "time": 7077, "note": 56, "velocity": 99, "channel": 0}, {"type": "note_off", "time": 72, "note": 56, "velocity": 99, "channel": 0}, {"type": "note_on", "time": 21, "note": 58, "velocity": 100, "channel": 0}, {"type": "note_off", "time": 89, "note": 58, "velocity": 100, "channel": 0}, {"type": "note_on", "time": 12, "note": 59, "velocity": 106, "channel": 0}, {"type": "note_off", "time": 92, "note": 59, "velocity": 106, "channel": 0}, {"type": "note_on", "time": 18, "note": 61, "velocity": 107, "channel": 0}, {"type": "note_off", "time": 57, "note": 61, "velocity": 107, "channel": 0}, {"type": "note_on", "time": 19, "note": 63, "velocity": 119, "channel": 0}, {"type": "note_off", "time": 67, "note": 63, "velocity": 119, "channel": 0}, {"type": "note_on", "time": 19, "note": 64, "velocity": 127, "channel": 0}, {"type": "note_off", "time": 117, "note": 64, "velocity": 127, "channel": 0}, {"type": "note_on", "time": 13, "note": 66, "velocity": 113, "channel": 0}, {"type": "note_off", "time": 77, "note": 66, "velocity": 113, "channel": 0}, {"type": "note_on", "time": 14, "note": 68, "velocity": 118, "channel": 0}, {"type": "note_off", "time": 94, "note": 68, "velocity": 118, "channel": 0}, {"type": "note_on", "time": 17, "note": 70, "velocity": 117, "channel": 0}, {"type": "note_off", "time": 116, "note": 70, "velocity": 117, "channel": 0}, {"type": "note_on", "time": 27, "note": 71, "velocity": 105, "channel": 0}, {"type": "note_off", "time": 300, "note": 71, "velocity": 105, "channel": 0}, {"type": "note_on", "time": 1095, "note": 69, "velocity": 115, "channel": 0}, {"type": "note_off", "time": 129, "note": 69, "velocity": 115, "channel": 0}, {"type": "note_on", "time": 25, "note": 68, "velocity": 114, "channel": 0}, {"type": "note_off", "time": 54, "note": 68, "velocity": 114, "channel": 0}, {"type": "note_on", "time": 19, "note": 67, "velocity": 113, "channel": 0}, {"type": "note_off", "time": 93, "note": 67, "velocity": 113, "channel": 0}, {"type": "note_on", "time": 13, "note": 66, "velocity": 112, "channel": 0}, {"type": "note_off", "time": 81, "note": 66, "velocity": 112, "channel": 0}, {"type": "note_on", "time": 11, "note": 64, "velocity": 117, "channel": 0}, {"type": "note_off", "time": 87, "note": 64, "velocity": 117, "channel": 0}, {"type": "note_on", "time": 15, "note": 62, "velocity": 116, "channel": 0}, {"type": "note_off", "time": 84, "note": 62, "velocity": 116, "channel": 0}, {"type": "note_on", "time": 13, "note": 60, "velocity": 106, "channel": 0}, {"type": "note_off", "time": 80, "note": 60, "velocity": 106, "channel": 0}, {"type": "note_on", "time": 13, "note": 58, "velocity": 103, "channel": 0}, {"type": "note_off", "time": 70, "note": 58, "velocity": 103, "channel": 0}, {"type": "note_on", "time": 30, "note": 56, "velocity": 89, "channel": 0}, {"type": "note_off", "time": 228, "note": 56, "velocity": 89, "channel": 0}, {"type": "note_on", "time": 20, "note": 58, "velocity": 96, "channel": 0}, {"type": "note_off", "time": 47, "note": 58, "velocity": 96, "channel": 0}, {"type": "note_on", "time": 13, "note": 61, "velocity": 103, "channel": 0}, {"type": "note_off", "time": 42, "note": 61, "velocity": 103, "channel": 0}, {"type": "note_on", "time": 13, "note": 62, "velocity": 111, "channel": 0}, {"type": "note_off", "time": 248, "note": 62, "velocity": 111, "channel": 0}, {"type": "note_on", "time": 21, "note": 60, "velocity": 96, "channel": 0}, {"type": "note_off", "time": 48, "note": 60, "velocity": 96, "channel": 0}, {"type": "note_on", "time": 6, "note": 62, "velocity": 111, "channel": 0}, {"type": "note_off", "time": 144, "note": 62, "velocity": 111, "channel": 0}, {"type": "note_on", "time": 8, "note": 60, "velocity": 105, "channel": 0}, {"type": "note_off", "time": 65, "note": 60, "velocity": 105, "channel": 0}, {"type": "note_on", "time": 23, "note": 58, "velocity": 99, "channel": 0}, {"type": "note_off", "time": 74, "note": 58, "velocity": 99, "channel": 0}, {"type": "note_on", "time": 27, "note": 55, "velocity": 92, "channel": 0}, {"type": "note_off", "time": 46, "note": 55, "velocity": 92, "channel": 0}, {"type": "note_on", "time": 22, "note": 57, "velocity": 100, "channel": 0}, {"type": "note_off", "time": 101, "note": 57, "velocity": 100, "channel": 0}, {"type": "note_on", "time": 13, "note": 60, "velocity": 98, "channel": 0}, {"type": "note_off", "time": 46, "note": 60, "velocity": 98, "channel": 0}, {"type": "note_on", "time": 10, "note": 62, "velocity": 107, "channel": 0}, {"type": "note_off", "time": 92, "note": 62, "velocity": 107, "channel": 0}, {"type": "note_on", "time": 7, "note": 63, "velocity": 96, "channel": 0}, {"type": "note_off", "time": 63, "note": 63, "velocity": 96, "channel": 0}, {"type": "note_on", "time": 20, "note": 67, "velocity": 110, "channel": 0}, {"type": "note_off", "time": 91, "note": 67, "velocity": 110, "channel": 0}, {"type": "note_on", "time": 11, "note": 65, "velocity": 113, "channel": 0}, {"type": "note_off", "time": 91, "note": 65, "velocity": 113, "channel": 0}, {"type": "note_on", "time": 18, "note": 62, "velocity": 102, "channel": 0}, {"type": "note_off", "time": 68, "note": 62, "velocity": 102, "channel": 0}, {"type": "note_on", "time": 46, "note": 58, "velocity": 95, "channel": 0}, {"type": "note_off", "time": 40, "note": 58, "velocity": 95, "channel": 0}, {"type": "note_on", "time": 33, "note": 63, "velocity": 107, "channel": 0}, {"type": "note_off", "time": 77, "note": 63, "velocity": 107, "channel": 0}, {"type": "note_on", "time": 30, "note": 60, "velocity": 98, "channel": 0}, {"type": "note_off", "time": 56, "note": 60, "velocity": 98, "channel": 0}, {"type": "note_on", "time": 14, "note": 56, "velocity": 98, "channel": 0}, {"type": "note_off", "time": 79, "note": 56, "velocity": 98, "channel": 0}, {"type": "note_on", "time": 21, "note": 55, "velocity": 94, "channel": 0}, {"type": "note_off", "time": 62, "note": 55, "velocity": 94, "channel": 0}, {"type": "note_on", "time": 19, "note": 58, "velocity": 100, "channel": 0}, {"type": "note_off", "time": 96, "note": 58, "velocity": 100, "channel": 0}, {"type": "note_on", "time": 13, "note": 56, "velocity": 100, "channel": 0}, {"type": "note_off", "time": 112, "note": 56, "velocity": 100, "channel": 0}, {"type": "note_on", "time": 503, "note": 56, "velocity": 100, "channel": 0}, {"type": "note_off", "time": 215, "note": 56, "velocity": 100, "channel": 0}, {"type": "note_on", "time": 364, "note": 57, "velocity": 102, "channel": 0}, {"type": "note_off", "time": 201, "note": 57, "velocity": 102, "channel": 0}, {"type": "note_on", "time": 356, "note": 58, "velocity": 107, "channel": 0}, {"type": "note_off", "time": 164, "note": 58, "velocity": 107, "channel": 0}, {"type": "note_on", "time": 309, "note": 59, "velocity": 109, "channel": 0}, {"type": "note_off", "time": 118, "note": 59, "velocity": 109, "channel": 0}, {"type": "note_on", "time": 49, "note": 62, "velocity": 112, "channel": 0}, {"type": "note_off", "time": 123, "note": 62, "velocity": 112, "channel": 0}, {"type": "note_on", "time": 2, "note": 59, "velocity": 103, "channel": 0}, {"type": "note_off", "time": 74, "note": 59, "velocity": 103, "channel": 0}, {"type": "note_on", "time": 15, "note": 60, "velocity": 105, "channel": 0}, {"type": "note_off", "time": 72, "note": 60, "velocity": 105, "channel": 0}, {"type": "note_on", "time": 8, "note": 62, "velocity": 117, "channel": 0}, {"type": "note_off", "time": 108, "note": 62, "velocity": 117, "channel": 0}, {"type": "note_on", "time": 9, "note": 63, "velocity": 114, "channel": 0}, {"type": "note_off", "time": 88, "note": 63, "velocity": 114, "channel": 0}, {"type": "note_on", "time": 7, "note": 65, "velocity": 100, "channel": 0}, {"type": "note_off", "time": 45, "note": 65, "velocity": 100, "channel": 0}, {"type": "note_on", "time": 3, "note": 67, "velocity": 111, "channel": 0}, {"type": "note_off", "time": 85, "note": 67, "velocity": 111, "channel": 0}, {"type": "note_on", "time": 24, "note": 64, "velocity": 101, "channel": 0}, {"type": "note_off", "time": 76, "note": 64, "velocity": 101, "channel": 0}, {"type": "note_on", "time": 23, "note": 66, "velocity": 112, "channel": 0}, {"type": "note_off", "time": 99, "note": 66, "velocity": 112, "channel": 0}, {"type": "note_on", "time": 20, "note": 64, "velocity": 111, "channel": 0}, {"type": "note_off", "time": 61, "note": 64, "velocity": 111, "channel": 0}, {"type": "note_on", "time": 21, "note": 65, "velocity": 114, "channel": 0}, {"type": "note_off", "time": 89, "note": 65, "velocity": 114, "channel": 0}, {"type": "note_on", "time": 9, "note": 64, "velocity": 111, "channel": 0}, {"type": "note_off", "time": 84, "note": 64, "velocity": 111, "channel": 0}, {"type": "note_on", "time": 14, "note": 63, "velocity": 105, "channel": 0}, {"type": "note_off", "time": 94, "note": 63, "velocity": 105, "channel": 0}, {"type": "note_on", "time": 55, "note": 61, "velocity": 94, "channel": 0}, {"type": "note_off", "time": 59, "note": 61, "velocity": 94, "channel": 0}, {"type": "note_on", "time": 11, "note": 64, "velocity": 104, "channel": 0}, {"type": "note_off", "time": 77, "note": 64, "velocity": 104, "channel": 0}, {"type": "note_on", "time": 15, "note": 61, "velocity": 96, "channel": 0}, {"type": "note_off", "time": 85, "note": 61, "velocity": 96, "channel": 0}, {"type": "note_on", "time": 12, "note": 62, "velocity": 103, "channel": 0}, {"type": "note_off", "time": 86, "note": 62, "velocity": 103, "channel": 0}, {"type": "note_on", "time": 9, "note": 64, "velocity": 106, "channel": 0}, {"type": "note_off", "time": 75, "note": 64, "velocity": 106, "channel": 0}, {"type": "note_on", "time": 8, "note": 65, "velocity": 105, "channel": 0}, {"type": "note_off", "time": 94, "note": 65, "velocity": 105, "channel": 0}, {"type": "note_on", "time": 27, "note": 67, "velocity": 101, "channel": 0}, {"type": "note_off", "time": 70, "note": 67, "velocity": 101, "channel": 0}, {"type": "note_on", "time": 13, "note": 69, "velocity": 112, "channel": 0}, {"type": "note_off", "time": 84, "note": 69, "velocity": 112, "channel": 0}, {"type": "note_on", "time": 14, "note": 65, "velocity": 106, "channel": 0}, {"type": "note_off", "time": 79, "note": 65, "velocity": 106, "channel": 0}, {"type": "note_on", "time": 8, "note": 67, "velocity": 105, "channel": 0}, {"type": "note_off", "time": 89, "note": 67, "velocity": 105, "channel": 0}, {"type": "note_on", "time": 12, "note": 65, "velocity": 110, "channel": 0}, {"type": "note_off", "time": 67, "note": 65, "velocity": 110, "channel": 0}, {"type": "note_on", "time": 14, "note": 62, "velocity": 110, "channel": 0}, {"type": "note_off", "time": 97, "note": 62, "velocity": 110, "channel": 0}, {"type": "note_on", "time": 18, "note": 58, "velocity": 107, "channel": 0}, {"type": "note_off", "time": 58, "note": 58, "velocity": 107, "channel": 0}, {"type": "note_on", "time": 26, "note": 57, "velocity": 89, "channel": 0}, {"type": "note_off", "time": 382, "note": 57, "velocity": 89, "channel": 0}, {"type": "note_on", "time": 6, "note": 55, "velocity": 91, "channel": 0}, {"type": "note_off", "time": 60, "note": 55, "velocity": 91, "channel": 0}, {"type": "note_on", "time": 21, "note": 58, "velocity": 97, "channel": 0}, {"type": "note_off", "time": 73, "note": 58, "velocity": 97, "channel": 0}, {"type": "note_on", "time": 142, "note": 57, "velocity": 99, "channel": 0}, {"type": "note_off", "time": 249, "note": 57, "velocity": 99, "channel": 0}, {"type": "note_on", "time": 7, "note": 56, "velocity": 96, "channel": 0}, {"type": "note_off", "time": 161, "note": 56, "velocity": 96, "channel": 0}, {"type": "note_on", "time": 795, "note": 56, "velocity": 114, "channel": 0}, {"type": "note_off", "time": 71, "note": 56, "velocity": 114, "channel": 0}, {"type": "note_on", "time": 8, "note": 55, "velocity": 104, "channel": 0}, {"type": "note_off", "time": 74, "note": 55, "velocity": 104, "channel": 0}, {"type": "note_on", "time": 9, "note": 54, "velocity": 107, "channel": 0}, {"type": "note_off", "time": 77, "note": 54, "velocity": 107, "channel": 0}, {"type": "note_on", "time": 46, "note": 56, "velocity": 107, "channel": 0}, {"type": "note_off", "time": 63, "note": 56, "velocity": 107, "channel": 0}, {"type": "note_on", "time": 15, "note": 52, "velocity": 110, "channel": 0}, {"type": "note_off", "time": 89, "note": 52, "velocity": 110, "channel": 0}, {"type": "note_on", "time": 13, "note": 54, "velocity": 104, "channel": 0}, {"type": "note_off", "time": 79, "note": 54, "velocity": 104, "channel": 0}, {"type": "note_on", "time": 25, "note": 56, "velocity": 105, "channel": 0}, {"type": "note_off", "time": 100, "note": 56, "velocity": 105, "channel": 0}, {"type": "note_on", "time": 27, "note": 58, "velocity": 94, "channel": 0}, {"type": "note_off", "time": 44, "note": 58, "velocity": 94, "channel": 0}, {"type": "note_on", "time": 41, "note": 63, "velocity": 115, "channel": 0}, {"type": "note_off", "time": 77, "note": 63, "velocity": 115, "channel": 0}, {"type": "note_on", "time": 13, "note": 61, "velocity": 104, "channel": 0}, {"type": "note_off", "time": 71, "note": 61, "velocity": 104, "channel": 0}, {"type": "note_on", "time": 7, "note": 58, "velocity": 99, "channel": 0}, {"type": "note_off", "time": 101, "note": 58, "velocity": 99, "channel": 0}, {"type": "note_on", "time": 17, "note": 54, "velocity": 96, "channel": 0}, {"type": "note_off", "time": 48, "note": 54, "velocity": 96, "channel": 0}, {"type": "note_on", "time": 15, "note": 57, "velocity": 101, "channel": 0}, {"type": "note_off", "time": 104, "note": 57, "velocity": 101, "channel": 0}, {"type": "note_on", "time": 33, "note": 53, "velocity": 88, "channel": 0}, {"type": "note_off", "time": 63, "note": 53, "velocity": 88, "channel": 0}, {"type": "note_on", "time": 13, "note": 55, "velocity": 110, "channel": 0}, {"type": "note_off", "time": 76, "note": 55, "velocity": 110, "channel": 0}, {"type": "note_on", "time": 23, "note": 57, "velocity": 101, "channel": 0}, {"type": "note_off", "time": 64, "note": 57, "velocity": 101, "channel": 0}, {"type": "note_on", "time": 36, "note": 58, "velocity": 96, "channel": 0}, {"type": "note_off", "time": 73, "note": 58, "velocity": 96, "channel": 0}, {"type": "note_on", "time": 21, "note": 60, "velocity": 100, "channel": 0}, {"type": "note_off", "time": 59, "note": 60, "velocity": 100, "channel": 0}, {"type": "note_on", "time": 8, "note": 62, "velocity": 107, "channel": 0}, {"type": "note_off", "time": 72, "note": 62, "velocity": 107, "channel": 0}, {"type": "note_on", "time": 22, "note": 64, "velocity": 90, "channel": 0}, {"type": "note_off", "time": 91, "note": 64, "velocity": 90, "channel": 0}, {"type": "note_on", "time": 18, "note": 67, "velocity": 108, "channel": 0}, {"type": "note_off", "time": 90, "note": 67, "velocity": 108, "channel": 0}, {"type": "note_on", "time": 25, "note": 65, "velocity": 108, "channel": 0}, {"type": "note_off", "time": 74, "note": 65, "velocity": 108, "channel": 0}, {"type": "note_on", "time": 9, "note": 64, "velocity": 103, "channel": 0}, {"type": "note_off", "time": 87, "note": 64, "velocity": 103, "channel": 0}, {"type": "note_on", "time": 36, "note": 65, "velocity": 96, "channel": 0}, {"type": "note_off", "time": 59, "note": 65, "velocity": 96, "channel": 0}, {"type": "note_on", "time": 12, "note": 69, "velocity": 113, "channel": 0}, {"type": "note_off", "time": 76, "note": 69, "velocity": 113, "channel": 0}, {"type": "note_on", "time": 24, "note": 67, "velocity": 99, "channel": 0}, {"type": "note_off", "time": 67, "note": 67, "velocity": 99, "channel": 0}, {"type": "note_on", "time": 27, "note": 64, "velocity": 102, "channel": 0}, {"type": "note_off", "time": 92, "note": 64, "velocity": 102, "channel": 0}, {"type": "note_on", "time": 13, "note": 69, "velocity": 110, "channel": 0}, {"type": "note_off", "time": 87, "note": 69, "velocity": 110, "channel": 0}, {"type": "note_on", "time": 37, "note": 63, "velocity": 113, "channel": 0}, {"type": "note_off", "time": 48, "note": 63, "velocity": 113, "channel": 0}, {"type": "note_on", "time": 3, "note": 64, "velocity": 107, "channel": 0}, {"type": "note_off", "time": 93, "note": 64, "velocity": 107, "channel": 0}, {"type": "note_on", "time": 135, "note": 67, "velocity": 83, "channel": 0}, {"type": "note_off", "time": 42, "note": 67, "velocity": 83, "channel": 0}, {"type": "note_on", "time": 23, "note": 71, "velocity": 104, "channel": 0}, {"type": "note_off", "time": 93, "note": 71, "velocity": 104, "channel": 0}, {"type": "note_on", "time": 9, "note": 76, "velocity": 105, "channel": 0}, {"type": "note_off", "time": 73, "note": 76, "velocity": 105, "channel": 0}, {"type": "note_on", "time": 3, "note": 71, "velocity": 112, "channel": 0}, {"type": "note_off", "time": 124, "note": 71, "velocity": 112, "channel": 0}, {"type": "note_on", "time": 15, "note": 70, "velocity": 109, "channel": 0}, {"type": "note_off", "time": 72, "note": 70, "velocity": 109, "channel": 0}, {"type": "note_on", "time": 13, "note": 69, "velocity": 113, "channel": 0}, {"type": "note_off", "time": 77, "note": 69, "velocity": 113, "channel": 0}, {"type": "note_on", "time": 16, "note": 68, "velocity": 114, "channel": 0}, {"type": "note_off", "time": 83, "note": 68, "velocity": 114, "channel": 0}, {"type": "note_on", "time": 30, "note": 67, "velocity": 110, "channel": 0}, {"type": "note_off", "time": 68, "note": 67, "velocity": 110, "channel": 0}, {"type": "note_on", "time": 21, "note": 66, "velocity": 110, "channel": 0}, {"type": "note_off", "time": 64, "note": 66, "velocity": 110, "channel": 0}, {"type": "note_on", "time": 11, "note": 65, "velocity": 109, "channel": 0}, {"type": "note_off", "time": 84, "note": 65, "velocity": 109, "channel": 0}, {"type": "note_on", "time": 20, "note": 64, "velocity": 121, "channel": 0}, {"type": "note_off", "time": 73, "note": 64, "velocity": 121, "channel": 0}, {"type": "note_on", "time": 8, "note": 63, "velocity": 112, "channel": 0}, {"type": "note_off", "time": 123, "note": 63, "velocity": 112, "channel": 0}, {"type": "note_on", "time": 7, "note": 67, "velocity": 109, "channel": 0}, {"type": "note_off", "time": 59, "note": 67, "velocity": 109, "channel": 0}, {"type": "note_on", "time": 16, "note": 65, "velocity": 110, "channel": 0}, {"type": "note_off", "time": 71, "note": 65, "velocity": 110, "channel": 0}, {"type": "note_on", "time": 13, "note": 62, "velocity": 114, "channel": 0}, {"type": "note_off", "time": 83, "note": 62, "velocity": 114, "channel": 0}, {"type": "note_on", "time": 15, "note": 58, "velocity": 102, "channel": 0}, {"type": "note_off", "time": 118, "note": 58, "velocity": 102, "channel": 0}, {"type": "note_on", "time": 12, "note": 55, "velocity": 92, "channel": 0}, {"type": "note_off", "time": 63, "note": 55, "velocity": 92, "channel": 0}, {"type": "note_on", "time": 3, "note": 63, "velocity": 108, "channel": 0}, {"type": "note_off", "time": 87, "note": 63, "velocity": 108, "channel": 0}, {"type": "note_on", "time": 11, "note": 60, "velocity": 102, "channel": 0}, {"type": "note_off", "time": 64, "note": 60, "velocity": 102, "channel": 0}, {"type": "note_on", "time": 11, "note": 56, "velocity": 102, "channel": 0}, {"type": "note_off", "time": 135, "note": 56, "velocity": 102, "channel": 0}, {"type": "note_on", "time": 14, "note": 53, "velocity": 98, "channel": 0}, {"type": "note_off", "time": 50, "note": 53, "velocity": 98, "channel": 0}, {"type": "note_on", "time": 4, "note": 58, "velocity": 101, "channel": 0}, {"type": "note_off", "time": 92, "note": 58, "velocity": 101, "channel": 0}, {"type": "note_on", "time": 11, "note": 55, "velocity": 92, "channel": 0}, {"type": "note_off", "time": 43, "note": 55, "velocity": 92, "channel": 0}, {"type": "note_on", "time": 33, "note": 56, "velocity": 104, "channel": 0}, {"type": "note_off", "time": 80, "note": 56, "velocity": 104, "channel": 0}, {"type": "note_on", "time": 29, "note": 58, "velocity": 100, "channel": 0}, {"type": "note_off", "time": 59, "note": 58, "velocity": 100, "channel": 0}, {"type": "note_on", "time": 12, "note": 55, "velocity": 106, "channel": 0}, {"type": "note_off", "time": 69, "note": 55, "velocity": 106, "channel": 0}, {"type": "note_on", "time": 19, "note": 53, "velocity": 101, "channel": 0}, {"type": "note_off", "time": 78, "note": 53, "velocity": 101, "channel": 0}, {"type": "note_on", "time": 7, "note": 51, "velocity": 98, "channel": 0}, {"type": "note_off", "time": 78, "note": 51, "velocity": 98, "channel": 0}, {"type": "note_on", "time": 515, "note": 67, "velocity": 113, "channel": 0}, {"type": "note_off", "time": 107, "note": 67, "velocity": 113, "channel": 0}, {"type": "note_on", "time": 7, "note": 66, "velocity": 109, "channel": 0}, {"type": "note_off", "time": 60, "note": 66, "velocity": 109, "channel": 0}, {"type": "note_on", "time": 11, "note": 65, "velocity": 112, "channel": 0}, {"type": "note_off", "time": 54, "note": 65, "velocity": 112, "channel": 0}, {"type": "note_on", "time": 302, "note": 68, "velocity": 115, "channel": 0}, {"type": "note_off", "time": 93, "note": 68, "velocity": 115, "channel": 0}, {"type": "note_on", "time": 19, "note": 67, "velocity": 109, "channel": 0}, {"type": "note_off", "time": 77, "note": 67, "velocity": 109, "channel": 0}, {"type": "note_on", "time": 13, "note": 66, "velocity": 108, "channel": 0}, {"type": "note_off", "time": 58, "note": 66, "velocity": 108, "channel": 0}, {"type": "note_on", "time": 145, "note": 71, "velocity": 111, "channel": 0}, {"type": "note_off", "time": 85, "note": 71, "velocity": 111, "channel": 0}, {"type": "note_on", "time": 13, "note": 70, "velocity": 111, "channel": 0}, {"type": "note_off", "time": 83, "note": 70, "velocity": 111, "channel": 0}, {"type": "note_on", "time": 8, "note": 69, "velocity": 109, "channel": 0}, {"type": "note_off", "time": 81, "note": 69, "velocity": 109, "channel": 0}, {"type": "note_on", "time": 11, "note": 68, "velocity": 110, "channel": 0}, {"type": "note_off", "time": 94, "note": 68, "velocity": 110, "channel": 0}, {"type": "note_on", "time": 13, "note": 67, "velocity": 105, "channel": 0}, {"type": "note_off", "time": 78, "note": 67, "velocity": 105, "channel": 0}, {"type": "note_on", "time": 10, "note": 66, "velocity": 107, "channel": 0}, {"type": "note_off", "time": 66, "note": 66, "velocity": 107, "channel": 0}, {"type": "note_on", "time": 16, "note": 65, "velocity": 109, "channel": 0}, {"type": "note_off", "time": 77, "note": 65, "velocity": 109, "channel": 0}, {"type": "note_on", "time": 11, "note": 64, "velocity": 115, "channel": 0}, {"type": "note_off", "time": 71, "note": 64, "velocity": 115, "channel": 0}, {"type": "note_on", "time": 14, "note": 63, "velocity": 111, "channel": 0}, {"type": "note_off", "time": 81, "note": 63, "velocity": 111, "channel": 0}, {"type": "note_on", "time": 16, "note": 62, "velocity": 109, "channel": 0}, {"type": "note_off", "time": 82, "note": 62, "velocity": 109, "channel": 0}, {"type": "note_on", "time": 15, "note": 61, "velocity": 99, "channel": 0}, {"type": "note_off", "time": 71, "note": 61, "velocity": 99, "channel": 0}, {"type": "note_on", "time": 18, "note": 63, "velocity": 106, "channel": 0}, {"type": "note_off", "time": 104, "note": 63, "velocity": 106, "channel": 0}, {"type": "note_on", "time": 9, "note": 62, "velocity": 100, "channel": 0}, {"type": "note_off", "time": 76, "note": 62, "velocity": 100, "channel": 0}, {"type": "note_on", "time": 49, "note": 58, "velocity": 99, "channel": 0}, {"type": "note_off", "time": 63, "note": 58, "velocity": 99, "channel": 0}, {"type": "note_on", "time": 6, "note": 57, "velocity": 101, "channel": 0}, {"type": "note_off", "time": 86, "note": 57, "velocity": 101, "channel": 0}, {"type": "note_on", "time": 29, "note": 55, "velocity": 96, "channel": 0}, {"type": "note_off", "time": 64, "note": 55, "velocity": 96, "channel": 0}, {"type": "note_on", "time": 34, "note": 60, "velocity": 107, "channel": 0}, {"type": "note_off", "time": 76, "note": 60, "velocity": 107, "channel": 0}, {"type": "note_on", "time": 5, "note": 58, "velocity": 108, "channel": 0}, {"type": "note_off", "time": 52, "note": 58, "velocity": 108, "channel": 0}, {"type": "note_on", "time": 6, "note": 57, "velocity": 104, "channel": 0}, {"type": "note_off", "time": 100, "note": 57, "velocity": 104, "channel": 0}, {"type": "note_on", "time": 13, "note": 55, "velocity": 106, "channel": 0}, {"type": "note_off", "time": 68, "note": 55, "velocity": 106, "channel": 0}, {"type": "note_on", "time": 11, "note": 54, "velocity": 93, "channel": 0}, {"type": "note_off", "time": 109, "note": 54, "velocity": 93, "channel": 0}, {"type": "note_on", "time": 28, "note": 57, "velocity": 100, "channel": 0}, {"type": "note_off", "time": 67, "note": 57, "velocity": 100, "channel": 0}, {"type": "note_on", "time": 14, "note": 55, "velocity": 94, "channel": 0}, {"type": "note_off", "time": 77, "note": 55, "velocity": 94, "channel": 0}, {"type": "note_on", "time": 18, "note": 57, "velocity": 101, "channel": 0}, {"type": "note_off", "time": 63, "note": 57, "velocity": 101, "channel": 0}, {"type": "note_on", "time": 15, "note": 58, "velocity": 95, "channel": 0}, {"type": "note_off", "time": 82, "note": 58, "velocity": 95, "channel": 0}, {"type": "note_on", "time": 19, "note": 60, "velocity": 101, "channel": 0}, {"type": "note_off", "time": 79, "note": 60, "velocity": 101, "channel": 0}, {"type": "note_on", "time": 8, "note": 61, "velocity": 102, "channel": 0}, {"type": "note_off", "time": 76, "note": 61, "velocity": 102, "channel": 0}, {"type": "note_on", "time": 13, "note": 63, "velocity": 105, "channel": 0}, {"type": "note_off", "time": 82, "note": 63, "velocity": 105, "channel": 0}, {"type": "note_on", "time": 28, "note": 64, "velocity": 108, "channel": 0}, {"type": "note_off", "time": 82, "note": 64, "velocity": 108, "channel": 0}, {"type": "note_on", "time": 17, "note": 66, "velocity": 101, "channel": 0}, {"type": "note_off", "time": 69, "note": 66, "velocity": 101, "channel": 0}, {"type": "note_on", "time": 8, "note": 68, "velocity": 110, "channel": 0}, {"type": "note_off", "time": 105, "note": 68, "velocity": 110, "channel": 0}, {"type": "note_on", "time": 10, "note": 64, "velocity": 106, "channel": 0}, {"type": "note_off", "time": 63, "note": 64, "velocity": 106, "channel": 0}, {"type": "note_on", "time": 16, "note": 63, "velocity": 107, "channel": 0}, {"type": "note_off", "time": 81, "note": 63, "velocity": 107, "channel": 0}, {"type": "note_on", "time": 16, "note": 61, "velocity": 95, "channel": 0}, {"type": "note_off", "time": 84, "note": 61, "velocity": 95, "channel": 0}, {"type": "note_on", "time": 8, "note": 73, "velocity": 111, "channel": 0}, {"type": "note_off", "time": 102, "note": 73, "velocity": 111, "channel": 0}, {"type": "note_on", "time": 3, "note": 63, "velocity": 109, "channel": 0}, {"type": "note_off", "time": 94, "note": 63, "velocity": 109, "channel": 0}, {"type": "note_on", "time": 5, "note": 61, "velocity": 108, "channel": 0}, {"type": "note_off", "time": 75, "note": 61, "velocity": 108, "channel": 0}, {"type": "note_on", "time": 9, "note": 58, "velocity": 100, "channel": 0}, {"type": "note_off", "time": 82, "note": 58, "velocity": 100, "channel": 0}, {"type": "note_on", "time": 23, "note": 54, "velocity": 109, "channel": 0}, {"type": "note_off", "time": 82, "note": 54, "velocity": 109, "channel": 0}, {"type": "note_on", "time": 6, "note": 56, "velocity": 104, "channel": 0}, {"type": "note_off", "time": 53, "note": 56, "velocity": 104, "channel": 0}, {"type": "note_on", "time": 14, "note": 58, "velocity": 98, "channel": 0}, {"type": "note_off", "time": 98, "note": 58, "velocity": 98, "channel": 0}, {"type": "note_on", "time": 9, "note": 61, "velocity": 106, "channel": 0}, {"type": "note_off", "time": 82, "note": 61, "velocity": 106, "channel": 0}, {"type": "note_on", "time": 6, "note": 60, "velocity": 104, "channel": 0}, {"type": "note_off", "time": 57, "note": 60, "velocity": 104, "channel": 0}, {"type": "note_on", "time": 58, "note": 58, "velocity": 92, "channel": 0}, {"type": "note_off", "time": 90, "note": 58, "velocity": 92, "channel": 0}, {"type": "note_on", "time": 74, "note": 55, "velocity": 94, "channel": 0}, {"type": "note_off", "time": 99, "note": 55, "velocity": 94, "channel": 0}, {"type": "note_on", "time": 12, "note": 57, "velocity": 110, "channel": 0}, {"type": "note_off", "time": 84, "note": 57, "velocity": 110, "channel": 0}, {"type": "note_on", "time": 24, "note": 60, "velocity": 101, "channel": 0}, {"type": "note_off", "time": 67, "note": 60, "velocity": 101, "channel": 0}, {"type": "note_on", "time": 15, "note": 62, "velocity": 101, "channel": 0}, {"type": "note_off", "time": 67, "note": 62, "velocity": 101, "channel": 0}, {"type": "note_on", "time": 23, "note": 67, "velocity": 107, "channel": 0}, {"type": "note_off", "time": 70, "note": 67, "velocity": 107, "channel": 0}, {"type": "note_on", "time": 16, "note": 65, "velocity": 106, "channel": 0}, {"type": "note_off", "time": 110, "note": 65, "velocity": 106, "channel": 0}, {"type": "note_on", "time": 13, "note": 67, "velocity": 92, "channel": 0}, {"type": "note_off", "time": 68, "note": 67, "velocity": 92, "channel": 0}, {"type": "note_on", "time": 99, "note": 70, "velocity": 95, "channel": 0}, {"type": "note_off", "time": 48, "note": 70, "velocity": 95, "channel": 0}, {"type": "note_on", "time": 16, "note": 73, "velocity": 99, "channel": 0}, {"type": "note_off", "time": 162, "note": 73, "velocity": 99, "channel": 0}, {"type": "note_on", "time": 688, "note": 67, "velocity": 117, "channel": 0}, {"type": "note_off", "time": 71, "note": 67, "velocity": 117, "channel": 0}, {"type": "note_on", "time": 3, "note": 66, "velocity": 116, "channel": 0}, {"type": "note_off", "time": 43, "note": 66, "velocity": 116, "channel": 0}, {"type": "note_on", "time": 8, "note": 67, "velocity": 113, "channel": 0}, {"type": "note_off", "time": 38, "note": 67, "velocity": 113, "channel": 0}, {"type": "note_on", "time": 10, "note": 66, "velocity": 110, "channel": 0}, {"type": "note_off", "time": 51, "note": 66, "velocity": 110, "channel": 0}, {"type": "note_on", "time": 16, "note": 66, "velocity": 114, "channel": 0}, {"type": "note_off", "time": 48, "note": 66, "velocity": 114, "channel": 0}, {"type": "note_on", "time": 11, "note": 65, "velocity": 112, "channel": 0}, {"type": "note_off", "time": 121, "note": 65, "velocity": 112, "channel": 0}, {"type": "note_on", "time": 10, "note": 62, "velocity": 113, "channel": 0}, {"type": "note_off", "time": 60, "note": 62, "velocity": 113, "channel": 0}, {"type": "note_on", "time": 22, "note": 58, "velocity": 95, "channel": 0}, {"type": "note_off", "time": 79, "note": 58, "velocity": 95, "channel": 0}, {"type": "note_on", "time": 19, "note": 55, "velocity": 89, "channel": 0}, {"type": "note_off", "time": 64, "note": 55, "velocity": 89, "channel": 0}, {"type": "note_on", "time": 8, "note": 64, "velocity": 121, "channel": 0}, {"type": "note_off", "time": 133, "note": 64, "velocity": 121, "channel": 0}, {"type": "note_on", "time": 10, "note": 60, "velocity": 105, "channel": 0}, {"type": "note_off", "time": 127, "note": 60, "velocity": 105, "channel": 0}, {"type": "note_on", "time": 635, "note": 64, "velocity": 118, "channel": 0}, {"type": "note_off", "time": 121, "note": 64, "velocity": 118, "channel": 0}, {"type": "note_on", "time": 50, "note": 60, "velocity": 107, "channel": 0}, {"type": "note_off", "time": 52, "note": 60, "velocity": 107, "channel": 0}, {"type": "note_on", "time": 43, "note": 64, "velocity": 117, "channel": 0}, {"type": "note_off", "time": 100, "note": 64, "velocity": 117, "channel": 0}, {"type": "note_on", "time": 11, "note": 61, "velocity": 104, "channel": 0}, {"type": "note_off", "time": 82, "note": 61, "velocity": 104, "channel": 0}, {"type": "note_on", "time": 27, "note": 63, "velocity": 110, "channel": 0}, {"type": "note_off", "time": 52, "note": 63, "velocity": 110, "channel": 0}, {"type": "note_on", "time": 11, "note": 65, "velocity": 110, "channel": 0}, {"type": "note_off", "time": 77, "note": 65, "velocity": 110, "channel": 0}, {"type": "note_on", "time": 10, "note": 63, "velocity": 114, "channel": 0}, {"type": "note_off", "time": 108, "note": 63, "velocity": 114, "channel": 0}, {"type": "note_on", "time": 7, "note": 58, "velocity": 104, "channel": 0}, {"type": "note_off", "time": 61, "note": 58, "velocity": 104, "channel": 0}, {"type": "note_on", "time": 121, "note": 58, "velocity": 90, "channel": 0}, {"type": "note_off", "time": 59, "note": 58, "velocity": 90, "channel": 0}, {"type": "note_on", "time": 15, "note": 62, "velocity": 116, "channel": 0}, {"type": "note_off", "time": 102, "note": 62, "velocity": 116, "channel": 0}, {"type": "note_on", "time": 10, "note": 57, "velocity": 104, "channel": 0}, {"type": "note_off", "time": 93, "note": 57, "velocity": 104, "channel": 0}, {"type": "note_on", "time": 175, "note": 60, "velocity": 116, "channel": 0}, {"type": "note_off", "time": 106, "note": 60, "velocity": 116, "channel": 0}, {"type": "note_on", "time": 10, "note": 56, "velocity": 105, "channel": 0}, {"type": "note_off", "time": 96, "note": 56, "velocity": 105, "channel": 0}, {"type": "note_on", "time": 4, "note": 53, "velocity": 108, "channel": 0}, {"type": "note_off", "time": 86, "note": 53, "velocity": 108, "channel": 0}, {"type": "note_on", "time": 27, "note": 48, "velocity": 101, "channel": 0}, {"type": "note_off", "time": 46, "note": 48, "velocity": 101, "channel": 0}, {"type": "note_on", "time": 34, "note": 58, "velocity": 105, "channel": 0}, {"type": "note_off", "time": 90, "note": 58, "velocity": 105, "channel": 0}, {"type": "note_on", "time": 18, "note": 48, "velocity": 110, "channel": 0}, {"type": "note_off", "time": 63, "note": 48, "velocity": 110, "channel": 0}, {"type": "note_on", "time": 12, "note": 53, "velocity": 111, "channel": 0}, {"type": "note_off", "time": 67, "note": 53, "velocity": 111, "channel": 0}, {"type": "note_on", "time": 6, "note": 55, "velocity": 104, "channel": 0}, {"type": "note_off", "time": 71, "note": 55, "velocity": 104, "channel": 0}, {"type": "note_on", "time": 23, "note": 53, "velocity": 107, "channel": 0}, {"type": "note_off", "time": 78, "note": 53, "velocity": 107, "channel": 0}, {"type": "note_on", "time": 13, "note": 55, "velocity": 93, "channel": 0}, {"type": "note_off", "time": 83, "note": 55, "velocity": 93, "channel": 0}, {"type": "note_on", "time": 111, "note": 60, "velocity": 107, "channel": 0}, {"type": "note_off", "time": 73, "note": 60, "velocity": 107, "channel": 0}, {"type": "note_on", "time": 22, "note": 58, "velocity": 101, "channel": 0}, {"type": "note_off", "time": 71, "note": 58, "velocity": 101, "channel": 0}, {"type": "note_on", "time": 8, "note": 60, "velocity": 109, "channel": 0}, {"type": "note_off", "time": 52, "note": 60, "velocity": 109, "channel": 0}, {"type": "note_on", "time": 2, "note": 62, "velocity": 115, "channel": 0}, {"type": "note_off", "time": 90, "note": 62, "velocity": 115, "channel": 0}, {"type": "note_on", "time": 13, "note": 65, "velocity": 114, "channel": 0}, {"type": "note_off", "time": 86, "note": 65, "velocity": 114, "channel": 0}, {"type": "note_on", "time": 7, "note": 62, "velocity": 116, "channel": 0}, {"type": "note_off", "time": 92, "note": 62, "velocity": 116, "channel": 0}, {"type": "note_on", "time": 30, "note": 63, "velocity": 110, "channel": 0}, {"type": "note_off", "time": 40, "note": 63, "velocity": 110, "channel": 0}, {"type": "note_on", "time": 18, "note": 67, "velocity": 108, "channel": 0}, {"type": "note_off", "time": 100, "note": 67, "velocity": 108, "channel": 0}, {"type": "note_on", "time": 21, "note": 70, "velocity": 107, "channel": 0}, {"type": "note_off", "time": 76, "note": 70, "velocity": 107, "channel": 0}, {"type": "note_on", "time": 6, "note": 74, "velocity": 108, "channel": 0}, {"type": "note_off", "time": 553, "note": 74, "velocity": 108, "channel": 0}, {"type": "note_on", "time": 10, "note": 72, "velocity": 112, "channel": 0}, {"type": "note_off", "time": 51, "note": 72, "velocity": 112, "channel": 0}, {"type": "note_on", "time": 5, "note": 74, "velocity": 110, "channel": 0}, {"type": "note_off", "time": 54, "note": 74, "velocity": 110, "channel": 0}, {"type": "note_on", "time": 8, "note": 72, "velocity": 115, "channel": 0}, {"type": "note_off", "time": 78, "note": 72, "velocity": 115, "channel": 0}, {"type": "note_on", "time": 10, "note": 69, "velocity": 115, "channel": 0}, {"type": "note_off", "time": 355, "note": 69, "velocity": 115, "channel": 0}, {"type": "note_on", "time": 7, "note": 68, "velocity": 109, "channel": 0}, {"type": "note_off", "time": 32, "note": 68, "velocity": 109, "channel": 0}, {"type": "note_on", "time": 7, "note": 67, "velocity": 107, "channel": 0}, {"type": "note_off", "time": 64, "note": 67, "velocity": 107, "channel": 0}, {"type": "note_on", "time": 4, "note": 69, "velocity": 109, "channel": 0}, {"type": "note_off", "time": 52, "note": 69, "velocity": 109, "channel": 0}, {"type": "note_on", "time": 5, "note": 67, "velocity": 109, "channel": 0}, {"type": "note_off", "time": 53, "note": 67, "velocity": 109, "channel": 0}, {"type": "note_on", "time": 6, "note": 65, "velocity": 112, "channel": 0}, {"type": "note_off", "time": 54, "note": 65, "velocity": 112, "channel": 0}, {"type": "note_on", "time": 9, "note": 62, "velocity": 115, "channel": 0}, {"type": "note_off", "time": 73, "note": 62, "velocity": 115, "channel": 0}, {"type": "note_on", "time": 1, "note": 57, "velocity": 104, "channel": 0}, {"type": "note_off", "time": 57, "note": 57, "velocity": 104, "channel": 0}, {"type": "note_on", "time": 9, "note": 55, "velocity": 101, "channel": 0}, {"type": "note_off", "time": 42, "note": 55, "velocity": 101, "channel": 0}, {"type": "note_on", "time": 9, "note": 53, "velocity": 106, "channel": 0}, {"type": "note_off", "time": 45, "note": 53, "velocity": 106, "channel": 0}, {"type": "note_on", "time": 3, "note": 50, "velocity": 104, "channel": 0}, {"type": "note_off", "time": 42, "note": 50, "velocity": 104, "channel": 0}, {"type": "note_on", "time": 2, "note": 55, "velocity": 104, "channel": 0}, {"type": "note_off", "time": 50, "note": 55, "velocity": 104, "channel": 0}, {"type": "note_on", "time": 4, "note": 53, "velocity": 106, "channel": 0}, {"type": "note_off", "time": 31, "note": 53, "velocity": 106, "channel": 0}, {"type": "note_on", "time": 7, "note": 50, "velocity": 107, "channel": 0}, {"type": "note_off", "time": 58, "note": 50, "velocity": 107, "channel": 0}, {"type": "note_on", "time": 1, "note": 48, "velocity": 106, "channel": 0}, {"type": "note_off", "time": 33, "note": 48, "velocity": 106, "channel": 0}, {"type": "note_on", "time": 7, "note": 46, "velocity": 110, "channel": 0}, {"type": "note_off", "time": 90, "note": 46, "velocity": 110, "channel": 0}, {"type": "note_on", "time": 9, "note": 45, "velocity": 106, "channel": 0}, {"type": "note_off", "time": 108, "note": 45, "velocity": 106, "channel": 0}, {"type": "note_on", "time": 726, "note": 69, "velocity": 119, "channel": 0}, {"type": "note_off", "time": 123, "note": 69, "velocity": 119, "channel": 0}, {"type": "note_on", "time": 141, "note": 69, "velocity": 117, "channel": 0}, {"type": "note_off", "time": 79, "note": 69, "velocity": 117, "channel": 0}, {"type": "note_on", "time": 10, "note": 67, "velocity": 114, "channel": 0}, {"type": "note_off", "time": 76, "note": 67, "velocity": 114, "channel": 0}, {"type": "note_on", "time": 18, "note": 65, "velocity": 111, "channel": 0}, {"type": "note_off", "time": 110, "note": 65, "velocity": 111, "channel": 0}, {"type": "note_on", "time": 8, "note": 64, "velocity": 110, "channel": 0}, {"type": "note_off", "time": 52, "note": 64, "velocity": 110, "channel": 0}, {"type": "note_on", "time": 5, "note": 67, "velocity": 114, "channel": 0}, {"type": "note_off", "time": 106, "note": 67, "velocity": 114, "channel": 0}, {"type": "note_on", "time": 6, "note": 65, "velocity": 119, "channel": 0}, {"type": "note_off", "time": 77, "note": 65, "velocity": 119, "channel": 0}, {"type": "note_on", "time": 12, "note": 64, "velocity": 119, "channel": 0}, {"type": "note_off", "time": 71, "note": 64, "velocity": 119, "channel": 0}, {"type": "note_on", "time": 11, "note": 62, "velocity": 118, "channel": 0}, {"type": "note_off", "time": 99, "note": 62, "velocity": 118, "channel": 0}, {"type": "note_on", "time": 11, "note": 61, "velocity": 109, "channel": 0}, {"type": "note_off", "time": 62, "note": 61, "velocity": 109, "channel": 0}, {"type": "note_on", "time": 20, "note": 63, "velocity": 120, "channel": 0}, {"type": "note_off", "time": 69, "note": 63, "velocity": 120, "channel": 0}, {"type": "note_on", "time": 11, "note": 62, "velocity": 110, "channel": 0}, {"type": "note_off", "time": 98, "note": 62, "velocity": 110, "channel": 0}, {"type": "note_on", "time": 12, "note": 60, "velocity": 111, "channel": 0}, {"type": "note_off", "time": 77, "note": 60, "velocity": 111, "channel": 0}, {"type": "note_on", "time": 11, "note": 59, "velocity": 98, "channel": 0}, {"type": "note_off", "time": 77, "note": 59, "velocity": 98, "channel": 0}, {"type": "note_on", "time": 11, "note": 60, "velocity": 109, "channel": 0}, {"type": "note_off", "time": 63, "note": 60, "velocity": 109, "channel": 0}, {"type": "note_on", "time": 11, "note": 62, "velocity": 109, "channel": 0}, {"type": "note_off", "time": 89, "note": 62, "velocity": 109, "channel": 0}, {"type": "note_on", "time": 38, "note": 67, "velocity": 110, "channel": 0}, {"type": "note_off", "time": 71, "note": 67, "velocity": 110, "channel": 0}, {"type": "note_on", "time": 20, "note": 65, "velocity": 112, "channel": 0}, {"type": "note_off", "time": 81, "note": 65, "velocity": 112, "channel": 0}, {"type": "note_on", "time": 60, "note": 62, "velocity": 114, "channel": 0}, {"type": "note_off", "time": 90, "note": 62, "velocity": 114, "channel": 0}, {"type": "note_on", "time": 17, "note": 58, "velocity": 98, "channel": 0}, {"type": "note_off", "time": 69, "note": 58, "velocity": 98, "channel": 0}, {"type": "note_on", "time": 48, "note": 57, "velocity": 91, "channel": 0}, {"type": "note_off", "time": 53, "note": 57, "velocity": 91, "channel": 0}, {"type": "note_on", "time": 375, "note": 53, "velocity": 108, "channel": 0}, {"type": "note_off", "time": 35, "note": 53, "velocity": 108, "channel": 0}, {"type": "note_on", "time": 5, "note": 54, "velocity": 106, "channel": 0}, {"type": "note_off", "time": 80, "note": 54, "velocity": 106, "channel": 0}, {"type": "note_on", "time": 10, "note": 58, "velocity": 93, "channel": 0}, {"type": "note_off", "time": 72, "note": 58, "velocity": 93, "channel": 0}, {"type": "note_on", "time": 19, "note": 61, "velocity": 96, "channel": 0}, {"type": "note_off", "time": 68, "note": 61, "velocity": 96, "channel": 0}, {"type": "note_on", "time": 16, "note": 65, "velocity": 109, "channel": 0}, {"type": "note_off", "time": 116, "note": 65, "velocity": 109, "channel": 0}, {"type": "note_on", "time": 21, "note": 61, "velocity": 103, "channel": 0}, {"type": "note_off", "time": 56, "note": 61, "velocity": 103, "channel": 0}, {"type": "note_on", "time": 14, "note": 58, "velocity": 92, "channel": 0}, {"type": "note_off", "time": 88, "note": 58, "velocity": 92, "channel": 0}, {"type": "note_on", "time": 16, "note": 55, "velocity": 94, "channel": 0}, {"type": "note_off", "time": 68, "note": 55, "velocity": 94, "channel": 0}, {"type": "note_on", "time": 41, "note": 64, "velocity": 123, "channel": 0}, {"type": "note_off", "time": 165, "note": 64, "velocity": 123, "channel": 0}, {"type": "note_on", "time": 577, "note": 56, "velocity": 112, "channel": 0}, {"type": "note_off", "time": 112, "note": 56, "velocity": 112, "channel": 0}, {"type": "note_on", "time": 65, "note": 56, "velocity": 104, "channel": 0}, {"type": "note_off", "time": 126, "note": 56, "velocity": 104, "channel": 0}, {"type": "note_on", "time": 3, "note": 64, "velocity": 120, "channel": 0}, {"type": "note_off", "time": 121, "note": 64, "velocity": 120, "channel": 0}, {"type": "note_on", "time": 55, "note": 64, "velocity": 123, "channel": 0}, {"type": "note_off", "time": 110, "note": 64, "velocity": 123, "channel": 0}, {"type": "note_on", "time": 16, "note": 56, "velocity": 104, "channel": 0}, {"type": "note_off", "time": 161, "note": 56, "velocity": 104, "channel": 0}, {"type": "note_on", "time": 365, "note": 55, "velocity": 105, "channel": 0}, {"type": "note_off", "time": 145, "note": 55, "velocity": 105, "channel": 0}, {"type": "note_on", "time": 63, "note": 55, "velocity": 100, "channel": 0}, {"type": "note_off", "time": 123, "note": 55, "velocity": 100, "channel": 0}, {"type": "note_on", "time": 1, "note": 64, "velocity": 117, "channel": 0}, {"type": "note_off", "time": 133, "note": 64, "velocity": 117, "channel": 0}, {"type": "note_on", "time": 41, "note": 64, "velocity": 115, "channel": 0}, {"type": "note_off", "time": 81, "note": 64, "velocity": 115, "channel": 0}, {"type": "note_on", "time": 19, "note": 55, "velocity": 105, "channel": 0}, {"type": "note_off", "time": 182, "note": 55, "velocity": 105, "channel": 0}, {"type": "note_on", "time": 358, "note": 56, "velocity": 107, "channel": 0}, {"type": "note_off", "time": 111, "note": 56, "velocity": 107, "channel": 0}, {"type": "note_on", "time": 18, "note": 52, "velocity": 113, "channel": 0}, {"type": "note_off", "time": 76, "note": 52, "velocity": 113, "channel": 0}, {"type": "note_on", "time": 20, "note": 56, "velocity": 110, "channel": 0}, {"type": "note_off", "time": 94, "note": 56, "velocity": 110, "channel": 0}, {"type": "note_on", "time": 24, "note": 64, "velocity": 115, "channel": 0}, {"type": "note_off", "time": 116, "note": 64, "velocity": 115, "channel": 0}, {"type": "note_on", "time": 37, "note": 64, "velocity": 122, "channel": 0}, {"type": "note_off", "time": 96, "note": 64, "velocity": 122, "channel": 0}, {"type": "note_on", "time": 8, "note": 62, "velocity": 122, "channel": 0}, {"type": "note_off", "time": 108, "note": 62, "velocity": 122, "channel": 0}, {"type": "note_on", "time": 15, "note": 56, "velocity": 102, "channel": 0}, {"type": "note_off", "time": 448, "note": 56, "velocity": 102, "channel": 0}, {"type": "note_on", "time": 42, "note": 64, "velocity": 122, "channel": 0}, {"type": "note_off", "time": 159, "note": 64, "velocity": 122, "channel": 0}, {"type": "note_on", "time": 27, "note": 56, "velocity": 111, "channel": 0}, {"type": "note_off", "time": 88, "note": 56, "velocity": 111, "channel": 0}, {"type": "note_on", "time": 71, "note": 55, "velocity": 107, "channel": 0}, {"type": "note_off", "time": 182, "note": 55, "velocity": 107, "channel": 0}, {"type": "note_on", "time": 3, "note": 62, "velocity": 114, "channel": 0}, {"type": "note_off", "time": 109, "note": 62, "velocity": 114, "channel": 0}, {"type": "note_on", "time": 52, "note": 55, "velocity": 103, "channel": 0}, {"type": "note_off", "time": 102, "note": 55, "velocity": 103, "channel": 0}, {"type": "note_on", "time": 32, "note": 55, "velocity": 103, "channel": 0}, {"type": "note_off", "time": 86, "note": 55, "velocity": 103, "channel": 0}, {"type": "note_on", "time": 26, "note": 65, "velocity": 110, "channel": 0}, {"type": "note_off", "time": 153, "note": 65, "velocity": 110, "channel": 0}, {"type": "note_on", "time": 362, "note": 65, "velocity": 115, "channel": 0}, {"type": "note_off", "time": 96, "note": 65, "velocity": 115, "channel": 0}, {"type": "note_on", "time": 19, "note": 67, "velocity": 116, "channel": 0}, {"type": "note_off", "time": 79, "note": 67, "velocity": 116, "channel": 0}, {"type": "note_on", "time": 6, "note": 65, "velocity": 117, "channel": 0}, {"type": "note_off", "time": 104, "note": 65, "velocity": 117, "channel": 0}, {"type": "note_on", "time": 8, "note": 62, "velocity": 115, "channel": 0}, {"type": "note_off", "time": 77, "note": 62, "velocity": 115, "channel": 0}, {"type": "note_on", "time": 13, "note": 69, "velocity": 119, "channel": 0}, {"type": "note_off", "time": 279, "note": 69, "velocity": 119, "channel": 0}, {"type": "note_on", "time": 9, "note": 67, "velocity": 114, "channel": 0}, {"type": "note_off", "time": 105, "note": 67, "velocity": 114, "channel": 0}, {"type": "note_on", "time": 420, "note": 70, "velocity": 119, "channel": 0}, {"type": "note_off", "time": 54, "note": 70, "velocity": 119, "channel": 0}, {"type": "note_on", "time": 9, "note": 69, "velocity": 118, "channel": 0}, {"type": "note_off", "time": 124, "note": 69, "velocity": 118, "channel": 0}, {"type": "note_on", "time": 34, "note": 68, "velocity": 115, "channel": 0}, {"type": "note_off", "time": 120, "note": 68, "velocity": 115, "channel": 0}, {"type": "note_on", "time": 359, "note": 71, "velocity": 114, "channel": 0}, {"type": "note_off", "time": 79, "note": 71, "velocity": 114, "channel": 0}, {"type": "note_on", "time": 16, "note": 70, "velocity": 112, "channel": 0}, {"type": "note_off", "time": 72, "note": 70, "velocity": 112, "channel": 0}, {"type": "note_on", "time": 7, "note": 69, "velocity": 117, "channel": 0}, {"type": "note_off", "time": 87, "note": 69, "velocity": 117, "channel": 0}, {"type": "note_on", "time": 278, "note": 72, "velocity": 114, "channel": 0}, {"type": "note_off", "time": 78, "note": 72, "velocity": 114, "channel": 0}, {"type": "note_on", "time": 12, "note": 71, "velocity": 107, "channel": 0}, {"type": "note_off", "time": 90, "note": 71, "velocity": 107, "channel": 0}, {"type": "note_on", "time": 18, "note": 70, "velocity": 117, "channel": 0}, {"type": "note_off", "time": 100, "note": 70, "velocity": 117, "channel": 0}, {"type": "note_on", "time": 286, "note": 69, "velocity": 117, "channel": 0}, {"type": "note_off", "time": 89, "note": 69, "velocity": 117, "channel": 0}, {"type": "note_on", "time": 7, "note": 68, "velocity": 115, "channel": 0}, {"type": "note_off", "time": 75, "note": 68, "velocity": 115, "channel": 0}, {"type": "note_on", "time": 15, "note": 67, "velocity": 110, "channel": 0}, {"type": "note_off", "time": 94, "note": 67, "velocity": 110, "channel": 0}, {"type": "note_on", "time": 16, "note": 66, "velocity": 111, "channel": 0}, {"type": "note_off", "time": 61, "note": 66, "velocity": 111, "channel": 0}, {"type": "note_on", "time": 17, "note": 65, "velocity": 112, "channel": 0}, {"type": "note_off", "time": 89, "note": 65, "velocity": 112, "channel": 0}, {"type": "note_on", "time": 9, "note": 64, "velocity": 115, "channel": 0}, {"type": "note_off", "time": 75, "note": 64, "velocity": 115, "channel": 0}, {"type": "note_on", "time": 15, "note": 63, "velocity": 109, "channel": 0}, {"type": "note_off", "time": 84, "note": 63, "velocity": 109, "channel": 0}, {"type": "note_on", "time": 21, "note": 62, "velocity": 111, "channel": 0}, {"type": "note_off", "time": 94, "note": 62, "velocity": 111, "channel": 0}, {"type": "note_on", "time": 17, "note": 61, "velocity": 107, "channel": 0}, {"type": "note_off", "time": 81, "note": 61, "velocity": 107, "channel": 0}, {"type": "note_on", "time": 24, "note": 63, "velocity": 105, "channel": 0}, {"type": "note_off", "time": 50, "note": 63, "velocity": 105, "channel": 0}, {"type": "note_on", "time": 34, "note": 63, "velocity": 108, "channel": 0}, {"type": "note_off", "time": 61, "note": 63, "velocity": 108, "channel": 0}, {"type": "note_on", "time": 8, "note": 65, "velocity": 105, "channel": 0}, {"type": "note_off", "time": 70, "note": 65, "velocity": 105, "channel": 0}, {"type": "note_on", "time": 22, "note": 68, "velocity": 108, "channel": 0}, {"type": "note_off", "time": 98, "note": 68, "velocity": 108, "channel": 0}, {"type": "note_on", "time": 37, "note": 61, "velocity": 109, "channel": 0}, {"type": "note_off", "time": 39, "note": 61, "velocity": 109, "channel": 0}, {"type": "note_on", "time": 8, "note": 63, "velocity": 101, "channel": 0}, {"type": "note_off", "time": 30, "note": 63, "velocity": 101, "channel": 0}, {"type": "note_on", "time": 19, "note": 65, "velocity": 96, "channel": 0}, {"type": "note_off", "time": 38, "note": 65, "velocity": 96, "channel": 0}, {"type": "note_on", "time": 6, "note": 68, "velocity": 115, "channel": 0}, {"type": "note_off", "time": 92, "note": 68, "velocity": 115, "channel": 0}, {"type": "note_on", "time": 7, "note": 66, "velocity": 110, "channel": 0}, {"type": "note_off", "time": 82, "note": 66, "velocity": 110, "channel": 0}, {"type": "note_on", "time": 21, "note": 66, "velocity": 113, "channel": 0}, {"type": "note_off", "time": 74, "note": 66, "velocity": 113, "channel": 0}, {"type": "note_on", "time": 9, "note": 68, "velocity": 111, "channel": 0}, {"type": "note_off", "time": 78, "note": 68, "velocity": 111, "channel": 0}, {"type": "note_on", "time": 17, "note": 65, "velocity": 115, "channel": 0}, {"type": "note_off", "time": 81, "note": 65, "velocity": 115, "channel": 0}, {"type": "note_on", "time": 15, "note": 64, "velocity": 120, "channel": 0}, {"type": "note_off", "time": 75, "note": 64, "velocity": 120, "channel": 0}, {"type": "note_on", "time": 14, "note": 63, "velocity": 117, "channel": 0}, {"type": "note_off", "time": 77, "note": 63, "velocity": 117, "channel": 0}, {"type": "note_on", "time": 9, "note": 62, "velocity": 113, "channel": 0}, {"type": "note_off", "time": 82, "note": 62, "velocity": 113, "channel": 0}, {"type": "note_on", "time": 20, "note": 61, "velocity": 41, "channel": 0}, {"type": "note_off", "time": 87, "note": 61, "velocity": 41, "channel": 0}, {"type": "note_on", "time": 13, "note": 58, "velocity": 108, "channel": 0}, {"type": "note_off", "time": 78, "note": 58, "velocity": 108, "channel": 0}, {"type": "note_on", "time": 14, "note": 54, "velocity": 109, "channel": 0}, {"type": "note_off", "time": 44, "note": 54, "velocity": 109, "channel": 0}, {"type": "note_on", "time": 48, "note": 55, "velocity": 108, "channel": 0}, {"type": "note_off", "time": 382, "note": 55, "velocity": 108, "channel": 0}, {"type": "note_on", "time": 28, "note": 54, "velocity": 107, "channel": 0}, {"type": "note_off", "time": 42, "note": 54, "velocity": 107, "channel": 0}, {"type": "note_on", "time": 13, "note": 53, "velocity": 109, "channel": 0}, {"type": "note_off", "time": 72, "note": 53, "velocity": 109, "channel": 0}, {"type": "note_on", "time": 19, "note": 57, "velocity": 115, "channel": 0}, {"type": "note_off", "time": 94, "note": 57, "velocity": 115, "channel": 0}, {"type": "note_on", "time": 14, "note": 55, "velocity": 108, "channel": 0}, {"type": "note_off", "time": 63, "note": 55, "velocity": 108, "channel": 0}, {"type": "note_on", "time": 15, "note": 53, "velocity": 112, "channel": 0}, {"type": "note_off", "time": 81, "note": 53, "velocity": 112, "channel": 0}, {"type": "note_on", "time": 46, "note": 49, "velocity": 114, "channel": 0}, {"type": "note_off", "time": 47, "note": 49, "velocity": 114, "channel": 0}, {"type": "note_on", "time": 4, "note": 48, "velocity": 105, "channel": 0}, {"type": "note_off", "time": 346, "note": 48, "velocity": 105, "channel": 0}, {"type": "note_on", "time": 3, "note": 47, "velocity": 117, "channel": 0}, {"type": "note_off", "time": 70, "note": 47, "velocity": 117, "channel": 0}, {"type": "end_of_track", "time": 0}]]}