{"ticks_per_beat": 192, "tracks": [[{"type": "track_name", "name": "Melody", "time": 0}, {"type": "set_tempo", "tempo": 338983, "time": 0}, {"type": "key_signature", "key": "B", "time": 0}, {"type": "time_signature", "numerator": 3, "denominator": 4, "clocks_per_click": 24, "notated_32nd_notes_per_beat": 8, "time": 0}, {"type": "note_on", "time": 3244, "note": 67, "velocity": 117, "channel": 0}, {"type": "note_off", "time": 78, "note": 67, "velocity": 117, "channel": 0}, {"type": "note_on", "time": 4, "note": 69, "velocity": 117, "channel": 0}, {"type": "note_off", "time": 1044, "note": 69, "velocity": 117, "channel": 0}, {"type": "note_on", "time": 21, "note": 66, "velocity": 109, "channel": 0}, {"type": "note_off", "time": 39, "note": 66, "velocity": 109, "channel": 0}, {"type": "note_on", "time": 20, "note": 69, "velocity": 114, "channel": 0}, {"type": "note_off", "time": 119, "note": 69, "velocity": 114, "channel": 0}, {"type": "note_on", "time": 11, "note": 67, "velocity": 122, "channel": 0}, {"type": "note_off", "time": 94, "note": 67, "velocity": 122, "channel": 0}, {"type": "note_on", "time": 757, "note": 68, "velocity": 115, "channel": 0}, {"type": "note_off", "time": 34, "note": 68, "velocity": 115, "channel": 0}, {"type": "note_on", "time": 5, "note": 69, "velocity": 113, "channel": 0}, {"type": "note_off", "time": 1147, "note": 69, "velocity": 113, "channel": 0}, {"type": "note_on", "time": 9, "note": 69, "velocity": 114, "channel": 0}, {"type": "note_off", "time": 99, "note": 69, "velocity": 114, "channel": 0}, {"type": "note_on", "time": 25, "note": 66, "velocity": 107, "channel": 0}, {"type": "note_off", "time": 39, "note": 66, "velocity": 107, "channel": 0}, {"type": "note_on", "time": 9, "note": 69, "velocity": 116, "channel": 0}, {"type": "note_off", "time": 123, "note": 69, "velocity": 116, "channel": 0}, {"type": "note_on", "time": 2, "note": 67, "velocity": 110, "channel": 0}, {"type": "note_off", "time": 505, "note": 67, "velocity": 110, "channel": 0}, {"type": "note_on", "time": 3, "note": 63, "velocity": 108, "channel": 0}, {"type": "note_off", "time": 153, "note": 63, "velocity": 108, "channel": 0}, {"type": "note_on", "time": 324, "note": 62, "velocity": 117, "channel": 0}, {"type": "note_off", "time": 180, "note": 62, "velocity": 117, "channel": 0}, {"type": "note_on", "time": 3, "note": 66, "velocity": 115, "channel": 0}, {"type": "note_off", "time": 178, "note": 66, "velocity": 115, "channel": 0}, {"type": "note_on", "time": 35, "note": 70, "velocity": 116, "channel": 0}, {"type": "note_off", "time": 353, "note": 70, "velocity": 116, "channel": 0}, {"type": "note_on", "time": 435, "note": 68, "velocity": 118, "channel": 0}, {"type": "note_off", "time": 53, "note": 68, "velocity": 118, "channel": 0}, {"type": "note_on", "time": 4, "note": 69, "velocity": 120, "channel": 0}, {"type": "note_off", "time": 130, "note": 69, "velocity": 120, "channel": 0}, {"type": "note_on", "time": 2, "note": 67, "velocity": 119, "channel": 0}, {"type": "note_off", "time": 181, "note": 67, "velocity": 119, "channel": 0}, {"type": "note_on", "time": 6, "note": 64, "velocity": 123, "channel": 0}, {"type": "note_off", "time": 278, "note": 64, "velocity": 123, "channel": 0}, {"type": "note_on", "time": 492, "note": 69, "velocity": 117, "channel": 0}, {"type": "note_off", "time": 34, "note": 69, "velocity": 117, "channel": 0}, {"type": "note_on", "time": 4, "note": 70, "velocity": 116, "channel": 0}, {"type": "note_off", "time": 162, "note": 70, "velocity": 116, "channel": 0}, {"type": "note_on", "time": 4, "note": 68, "velocity": 119, "channel": 0}, {"type": "note_off", "time": 183, "note": 68, "velocity": 119, "channel": 0}, {"type": "note_on", "time": 13, "note": 63, "velocity": 115, "channel": 0}, {"type": "note_off", "time": 178, "note": 63, "velocity": 115, "channel": 0}, {"type": "note_on", "time": 2, "note": 65, "velocity": 114, "channel": 0}, {"type": "note_off", "time": 177, "note": 65, "velocity": 114, "channel": 0}, {"type": "note_on", "time": 30, "note": 70, "velocity": 116, "channel": 0}, {"type": "note_off", "time": 149, "note": 70, "velocity": 116, "channel": 0}, {"type": "note_on", "time": 32, "note": 68, "velocity": 119, "channel": 0}, {"type": "note_off", "time": 45, "note": 68, "velocity": 119, "channel": 0}, {"type": "note_on", "time": 3, "note": 69, "velocity": 118, "channel": 0}, {"type": "note_off", "time": 216, "note": 69, "velocity": 118, "channel": 0}, {"type": "note_on", "time": 10, "note": 67, "velocity": 115, "channel": 0}, {"type": "note_off", "time": 101, "note": 67, "velocity": 115, "channel": 0}, {"type": "note_on", "time": 19, "note": 64, "velocity": 106, "channel": 0}, {"type": "note_off", "time": 116, "note": 64, "velocity": 106, "channel": 0}, {"type": "note_on", "time": 495, "note": 70, "velocity": 115, "channel": 0}, {"type": "note_off", "time": 161, "note": 70, "velocity": 115, "channel": 0}, {"type": "note_on", "time": 4, "note": 69, "velocity": 117, "channel": 0}, {"type": "note_off", "time": 81, "note": 69, "velocity": 117, "channel": 0}, {"type": "note_on", "time": 92, "note": 69, "velocity": 117, "channel": 0}, {"type": "note_off", "time": 114, "note": 69, "velocity": 117, "channel": 0}, {"type": "note_on", "time": 32, "note": 69, "velocity": 116, "channel": 0}, {"type": "note_off", "time": 74, "note": 69, "velocity": 116, "channel": 0}, {"type": "note_on", "time": 65, "note": 69, "velocity": 115, "channel": 0}, {"type": "note_off", "time": 93, "note": 69, "velocity": 115, "channel": 0}, {"type": "note_on", "time": 53, "note": 69, "velocity": 113, "channel": 0}, {"type": "note_off", "time": 85, "note": 69, "velocity": 113, "channel": 0}, {"type": "note_on", "time": 60, "note": 69, "velocity": 114, "channel": 0}, {"type": "note_off", "time": 103, "note": 69, "velocity": 114, "channel": 0}, {"type": "note_on", "time": 51, "note": 69, "velocity": 114, "channel": 0}, {"type": "note_off", "time": 62, "note": 69, "velocity": 114, "channel": 0}, {"type": "note_on", "time": 75, "note": 69, "velocity": 118, "channel": 0}, {"type": "note_off", "time": 108, "note": 69, "velocity": 118, "channel": 0}, {"type": "note_on", "time": 3, "note": 67, "velocity": 111, "channel": 0}, {"type": "note_off", "time": 78, "note": 67, "velocity": 111, "channel": 0}, {"type": "note_on", "time": 80, "note": 69, "velocity": 115, "channel": 0}, {"type": "note_off", "time": 69, "note": 69, "velocity": 115, "channel": 0}, {"type": "note_on", "time": 4, "note": 67, "velocity": 114, "channel": 0}, {"type": "note_off", "time": 60, "note": 67, "velocity": 114, "channel": 0}, {"type": "note_on", "time": 7, "note": 64, "velocity": 119, "channel": 0}, {"type": "note_off", "time": 61, "note": 64, "velocity": 119, "channel": 0}, {"type": "note_on", "time": 1, "note": 62, "velocity": 114, "channel": 0}, {"type": "note_off", "time": 59, "note": 62, "velocity": 114, "channel": 0}, {"type": "note_on", "time": 5, "note": 59, "velocity": 116, "channel": 0}, {"type": "note_off", "time": 90, "note": 59, "velocity": 116, "channel": 0}, {"type": "note_on", "time": 6, "note": 57, "velocity": 111, "channel": 0}, {"type": "note_off", "time": 50, "note": 57, "velocity": 111, "channel": 0}, {"type": "note_on", "time": 12, "note": 55, "velocity": 110, "channel": 0}, {"type": "note_off", "time": 36, "note": 55, "velocity": 110, "channel": 0}, {"type": "note_on", "time": 3, "note": 52, "velocity": 114, "channel": 0}, {"type": "note_off", "time": 71, "note": 52, "velocity": 114, "channel": 0}, {"type": "note_on", "time": 782, "note": 57, "velocity": 103, "channel": 0}, {"type": "note_off", "time": 48, "note": 57, "velocity": 103, "channel": 0}, {"type": "note_on", "time": 4, "note": 59, "velocity": 100, "channel": 0}, {"type": "note_off", "time": 29, "note": 59, "velocity": 100, "channel": 0}, {"type": "note_on", "time": 11, "note": 62, "velocity": 118, "channel": 0}, {"type": "note_off", "time": 63, "note": 62, "velocity": 118, "channel": 0}, {"type": "note_on", "time": 3, "note": 64, "velocity": 120, "channel": 0}, {"type": "note_off", "time": 36, "note": 64, "velocity": 120, "channel": 0}, {"type": "note_on", "time": 20, "note": 67, "velocity": 114, "channel": 0}, {"type": "note_off", "time": 42, "note": 67, "velocity": 114, "channel": 0}, {"type": "note_on", "time": 1, "note": 69, "velocity": 120, "channel": 0}, {"type": "note_off", "time": 38, "note": 69, "velocity": 120, "channel": 0}, {"type": "note_on", "time": 3, "note": 71, "velocity": 120, "channel": 0}, {"type": "note_off", "time": 37, "note": 71, "velocity": 120, "channel": 0}, {"type": "note_on", "time": 3, "note": 74, "velocity": 112, "channel": 0}, {"type": "note_off", "time": 382, "note": 74, "velocity": 112, "channel": 0}, {"type": "note_on", "time": 4, "note": 69, "velocity": 116, "channel": 0}, {"type": "note_off", "time": 79, "note": 69, "velocity": 116, "channel": 0}, {"type": "note_on", "time": 8, "note": 65, "velocity": 113, "channel": 0}, {"type": "note_off", "time": 29, "note": 65, "velocity": 113, "channel": 0}, {"type": "note_on", "time": 2, "note": 64, "velocity": 120, "channel": 0}, {"type": "note_off", "time": 46, "note": 64, "velocity": 120, "channel": 0}, {"type": "note_on", "time": 1, "note": 62, "velocity": 119, "channel": 0}, {"type": "note_off", "time": 53, "note": 62, "velocity": 119, "channel": 0}, {"type": "note_on", "time": 3, "note": 59, "velocity": 111, "channel": 0}, {"type": "note_off", "time": 33, "note": 59, "velocity": 111, "channel": 0}, {"type": "note_on", "time": 9, "note": 57, "velocity": 106, "channel": 0}, {"type": "note_off", "time": 49, "note": 57, "velocity": 106, "channel": 0}, {"type": "note_on", "time": 24, "note": 54, "velocity": 111, "channel": 0}, {"type": "note_off", "time": 24, "note": 54, "velocity": 111, "channel": 0}, {"type": "note_on", "time": 4, "note": 52, "velocity": 114, "channel": 0}, {"type": "note_off", "time": 19, "note": 52, "velocity": 114, "channel": 0}, {"type": "note_on", "time": 3, "note": 50, "velocity": 110, "channel": 0}, {"type": "note_off", "time": 53, "note": 50, "velocity": 110, "channel": 0}, {"type": "note_on", "time": 6, "note": 52, "velocity": 110, "channel": 0}, {"type": "note_off", "time": 51, "note": 52, "velocity": 110, "channel": 0}, {"type": "note_on", "time": 31, "note": 55, "velocity": 115, "channel": 0}, {"type": "note_off", "time": 40, "note": 55, "velocity": 115, "channel": 0}, {"type": "note_on", "time": 15, "note": 59, "velocity": 121, "channel": 0}, {"type": "note_off", "time": 45, "note": 59, "velocity": 121, "channel": 0}, {"type": "note_on", "time": 5, "note": 64, "velocity": 120, "channel": 0}, {"type": "note_off", "time": 66, "note": 64, "velocity": 120, "channel": 0}, {"type": "note_on", "time": 5, "note": 69, "velocity": 112, "channel": 0}, {"type": "note_off", "time": 51, "note": 69, "velocity": 112, "channel": 0}, {"type": "note_on", "time": 3, "note": 66, "velocity": 115, "channel": 0}, {"type": "note_off", "time": 33, "note": 66, "velocity": 115, "channel": 0}, {"type": "note_on", "time": 4, "note": 67, "velocity": 113, "channel": 0}, {"type": "note_off", "time": 20, "note": 67, "velocity": 113, "channel": 0}, {"type": "note_on", "time": 2, "note": 69, "velocity": 114, "channel": 0}, {"type": "note_off", "time": 50, "note": 69, "velocity": 114, "channel": 0}, {"type": "note_on", "time": 569, "note": 71, "velocity": 117, "channel": 0}, {"type": "note_off", "time": 55, "note": 71, "velocity": 117, "channel": 0}, {"type": "note_on", "time": 12, "note": 71, "velocity": 121, "channel": 0}, {"type": "note_off", "time": 47, "note": 71, "velocity": 121, "channel": 0}, {"type": "note_on", "time": 2, "note": 69, "velocity": 116, "channel": 0}, {"type": "note_off", "time": 67, "note": 69, "velocity": 116, "channel": 0}, {"type": "note_on", "time": 30, "note": 71, "velocity": 115, "channel": 0}, {"type": "note_off", "time": 61, "note": 71, "velocity": 115, "channel": 0}, {"type": "note_on", "time": 6, "note": 71, "velocity": 116, "channel": 0}, {"type": "note_off", "time": 60, "note": 71, "velocity": 116, "channel": 0}, {"type": "note_on", "time": 4, "note": 69, "velocity": 115, "channel": 0}, {"type": "note_off", "time": 53, "note": 69, "velocity": 115, "channel": 0}, {"type": "note_on", "time": 19, "note": 71, "velocity": 113, "channel": 0}, {"type": "note_off", "time": 43, "note": 71, "velocity": 113, "channel": 0}, {"type": "note_on", "time": 6, "note": 69, "velocity": 118, "channel": 0}, {"type": "note_off", "time": 69, "note": 69, "velocity": 118, "channel": 0}, {"type": "note_on", "time": 3, "note": 67, "velocity": 116, "channel": 0}, {"type": "note_off", "time": 42, "note": 67, "velocity": 116, "channel": 0}, {"type": "note_on", "time": 4, "note": 65, "velocity": 119, "channel": 0}, {"type": "note_off", "time": 56, "note": 65, "velocity": 119, "channel": 0}, {"type": "note_on", "time": 1, "note": 63, "velocity": 119, "channel": 0}, {"type": "note_off", "time": 50, "note": 63, "velocity": 119, "channel": 0}, {"type": "note_on", "time": 27, "note": 69, "velocity": 117, "channel": 0}, {"type": "note_off", "time": 50, "note": 69, "velocity": 117, "channel": 0}, {"type": "note_on", "time": 3, "note": 67, "velocity": 115, "channel": 0}, {"type": "note_off", "time": 50, "note": 67, "velocity": 115, "channel": 0}, {"type": "note_on", "time": 3, "note": 65, "velocity": 118, "channel": 0}, {"type": "note_off", "time": 69, "note": 65, "velocity": 118, "channel": 0}, {"type": "note_on", "time": 3, "note": 63, "velocity": 120, "channel": 0}, {"type": "note_off", "time": 62, "note": 63, "velocity": 120, "channel": 0}, {"type": "note_on", "time": 6, "note": 59, "velocity": 114, "channel": 0}, {"type": "note_off", "time": 46, "note": 59, "velocity": 114, "channel": 0}, {"type": "note_on", "time": 8, "note": 57, "velocity": 112, "channel": 0}, {"type": "note_off", "time": 71, "note": 57, "velocity": 112, "channel": 0}, {"type": "note_on", "time": 297, "note": 71, "velocity": 119, "channel": 0}, {"type": "note_off", "time": 39, "note": 71, "velocity": 119, "channel": 0}, {"type": "note_on", "time": 8, "note": 69, "velocity": 115, "channel": 0}, {"type": "note_off", "time": 78, "note": 69, "velocity": 115, "channel": 0}, {"type": "note_on", "time": 494, "note": 69, "velocity": 109, "channel": 0}, {"type": "note_off", "time": 39, "note": 69, "velocity": 109, "channel": 0}, {"type": "note_on", "time": 3, "note": 71, "velocity": 113, "channel": 0}, {"type": "note_off", "time": 142, "note": 71, "velocity": 113, "channel": 0}, {"type": "note_on", "time": 2, "note": 69, "velocity": 116, "channel": 0}, {"type": "note_off", "time": 47, "note": 69, "velocity": 116, "channel": 0}, {"type": "note_on", "time": 8, "note": 71, "velocity": 111, "channel": 0}, {"type": "note_off", "time": 144, "note": 71, "velocity": 111, "channel": 0}, {"type": "note_on", "time": 8, "note": 69, "velocity": 112, "channel": 0}, {"type": "note_off", "time": 48, "note": 69, "velocity": 112, "channel": 0}, {"type": "note_on", "time": 6, "note": 71, "velocity": 109, "channel": 0}, {"type": "note_off", "time": 42, "note": 71, "velocity": 109, "channel": 0}, {"type": "note_on", "time": 3, "note": 69, "velocity": 116, "channel": 0}, {"type": "note_off", "time": 50, "note": 69, "velocity": 116, "channel": 0}, {"type": "note_on", "time": 1, "note": 67, "velocity": 116, "channel": 0}, {"type": "note_off", "time": 62, "note": 67, "velocity": 116, "channel": 0}, {"type": "note_on", "time": 2, "note": 65, "velocity": 117, "channel": 0}, {"type": "note_off", "time": 43, "note": 65, "velocity": 117, "channel": 0}, {"type": "note_on", "time": 4, "note": 63, "velocity": 117, "channel": 0}, {"type": "note_off", "time": 66, "note": 63, "velocity": 117, "channel": 0}, {"type": "note_on", "time": 5, "note": 68, "velocity": 113, "channel": 0}, {"type": "note_off", "time": 15, "note": 68, "velocity": 113, "channel": 0}, {"type": "note_on", "time": 1, "note": 69, "velocity": 115, "channel": 0}, {"type": "note_off", "time": 41, "note": 69, "velocity": 115, "channel": 0}, {"type": "note_on", "time": 1, "note": 67, "velocity": 114, "channel": 0}, {"type": "note_off", "time": 46, "note": 67, "velocity": 114, "channel": 0}, {"type": "note_on", "time": 7, "note": 65, "velocity": 115, "channel": 0}, {"type": "note_off", "time": 58, "note": 65, "velocity": 115, "channel": 0}, {"type": "note_on", "time": 2, "note": 63, "velocity": 121, "channel": 0}, {"type": "note_off", "time": 70, "note": 63, "velocity": 121, "channel": 0}, {"type": "note_on", "time": 5, "note": 59, "velocity": 114, "channel": 0}, {"type": "note_off", "time": 61, "note": 59, "velocity": 114, "channel": 0}, {"type": "note_on", "time": 1, "note": 57, "velocity": 112, "channel": 0}, {"type": "note_off", "time": 65, "note": 57, "velocity": 112, "channel": 0}, {"type": "note_on", "time": 6, "note": 59, "velocity": 111, "channel": 0}, {"type": "note_off", "time": 59, "note": 59, "velocity": 111, "channel": 0}, {"type": "note_on", "time": 1, "note": 57, "velocity": 114, "channel": 0}, {"type": "note_off", "time": 48, "note": 57, "velocity": 114, "channel": 0}, {"type": "note_on", "time": 8, "note": 55, "velocity": 118, "channel": 0}, {"type": "note_off", "time": 35, "note": 55, "velocity": 118, "channel": 0}, {"type": "note_on", "time": 4, "note": 53, "velocity": 117, "channel": 0}, {"type": "note_off", "time": 44, "note": 53, "velocity": 117, "channel": 0}, {"type": "note_on", "time": 3, "note": 51, "velocity": 115, "channel": 0}, {"type": "note_off", "time": 75, "note": 51, "velocity": 115, "channel": 0}, {"type": "note_on", "time": 11, "note": 59, "velocity": 110, "channel": 0}, {"type": "note_off", "time": 43, "note": 59, "velocity": 110, "channel": 0}, {"type": "note_on", "time": 7, "note": 57, "velocity": 112, "channel": 0}, {"type": "note_off", "time": 52, "note": 57, "velocity": 112, "channel": 0}, {"type": "note_on", "time": 7, "note": 55, "velocity": 116, "channel": 0}, {"type": "note_off", "time": 52, "note": 55, "velocity": 116, "channel": 0}, {"type": "note_on", "time": 9, "note": 53, "velocity": 112, "channel": 0}, {"type": "note_off", "time": 43, "note": 53, "velocity": 112, "channel": 0}, {"type": "note_on", "time": 3, "note": 51, "velocity": 112, "channel": 0}, {"type": "note_off", "time": 43, "note": 51, "velocity": 112, "channel": 0}, {"type": "note_on", "time": 31, "note": 57, "velocity": 115, "channel": 0}, {"type": "note_off", "time": 49, "note": 57, "velocity": 115, "channel": 0}, {"type": "note_on", "time": 11, "note": 55, "velocity": 117, "channel": 0}, {"type": "note_off", "time": 41, "note": 55, "velocity": 117, "channel": 0}, {"type": "note_on", "time": 7, "note": 53, "velocity": 111, "channel": 0}, {"type": "note_off", "time": 52, "note": 53, "velocity": 111, "channel": 0}, {"type": "note_on", "time": 6, "note": 51, "velocity": 117, "channel": 0}, {"type": "note_off", "time": 46, "note": 51, "velocity": 117, "channel": 0}, {"type": "note_on", "time": 9, "note": 48, "velocity": 115, "channel": 0}, {"type": "note_off", "time": 87, "note": 48, "velocity": 115, "channel": 0}, {"type": "note_on", "time": 13, "note": 47, "velocity": 118, "channel": 0}, {"type": "note_off", "time": 277, "note": 47, "velocity": 118, "channel": 0}, {"type": "note_on", "time": 333, "note": 50, "velocity": 119, "channel": 0}, {"type": "note_off", "time": 37, "note": 50, "velocity": 119, "channel": 0}, {"type": "note_on", "time": 4, "note": 51, "velocity": 118, "channel": 0}, {"type": "note_off", "time": 42, "note": 51, "velocity": 118, "channel": 0}, {"type": "note_on", "time": 5, "note": 54, "velocity": 109, "channel": 0}, {"type": "note_off", "time": 31, "note": 54, "velocity": 109, "channel": 0}, {"type": "note_on", "time": 8, "note": 55, "velocity": 111, "channel": 0}, {"type": "note_off", "time": 31, "note": 55, "velocity": 111, "channel": 0}, {"type": "note_on", "time": 10, "note": 58, "velocity": 120, "channel": 0}, {"type": "note_off", "time": 41, "note": 58, "velocity": 120, "channel": 0}, {"type": "note_on", "time": 13, "note": 62, "velocity": 118, "channel": 0}, {"type": "note_off", "time": 41, "note": 62, "velocity": 118, "channel": 0}, {"type": "note_on", "time": 7, "note": 67, "velocity": 125, "channel": 0}, {"type": "note_off", "time": 26, "note": 67, "velocity": 125, "channel": 0}, {"type": "note_on", "time": 8, "note": 69, "velocity": 115, "channel": 0}, {"type": "note_off", "time": 40, "note": 69, "velocity": 115, "channel": 0}, {"type": "note_on", "time": 8, "note": 71, "velocity": 117, "channel": 0}, {"type": "note_off", "time": 35, "note": 71, "velocity": 117, "channel": 0}, {"type": "note_on", "time": 18, "note": 74, "velocity": 106, "channel": 0}, {"type": "note_off", "time": 74, "note": 74, "velocity": 106, "channel": 0}, {"type": "note_on", "time": 3, "note": 72, "velocity": 112, "channel": 0}, {"type": "note_off", "time": 18, "note": 72, "velocity": 112, "channel": 0}, {"type": "note_on", "time": 2, "note": 71, "velocity": 112, "channel": 0}, {"type": "note_off", "time": 22, "note": 71, "velocity": 112, "channel": 0}, {"type": "note_on", "time": 3, "note": 70, "velocity": 117, "channel": 0}, {"type": "note_off", "time": 222, "note": 70, "velocity": 117, "channel": 0}, {"type": "note_on", "time": 387, "note": 67, "velocity": 117, "channel": 0}, {"type": "note_off", "time": 50, "note": 67, "velocity": 117, "channel": 0}, {"type": "note_on", "time": 6, "note": 69, "velocity": 115, "channel": 0}, {"type": "note_off", "time": 136, "note": 69, "velocity": 115, "channel": 0}, {"type": "note_on", "time": 4, "note": 73, "velocity": 112, "channel": 0}, {"type": "note_off", "time": 127, "note": 73, "velocity": 112, "channel": 0}, {"type": "note_on", "time": 3, "note": 75, "velocity": 112, "channel": 0}, {"type": "note_off", "time": 16, "note": 75, "velocity": 112, "channel": 0}, {"type": "note_on", "time": 6, "note": 76, "velocity": 110, "channel": 0}, {"type": "note_off", "time": 835, "note": 76, "velocity": 110, "channel": 0}, {"type": "note_on", "time": 8, "note": 77, "velocity": 107, "channel": 0}, {"type": "note_off", "time": 948, "note": 77, "velocity": 107, "channel": 0}, {"type": "note_on", "time": 32, "note": 76, "velocity": 117, "channel": 0}, {"type": "note_off", "time": 146, "note": 76, "velocity": 117, "channel": 0}, {"type": "note_on", "time": 18, "note": 71, "velocity": 112, "channel": 0}, {"type": "note_off", "time": 125, "note": 71, "velocity": 112, "channel": 0}, {"type": "note_on", "time": 20, "note": 67, "velocity": 116, "channel": 0}, {"type": "note_off", "time": 87, "note": 67, "velocity": 116, "channel": 0}, {"type": "note_on", "time": 756, "note": 69, "velocity": 120, "channel": 0}, {"type": "note_off", "time": 97, "note": 69, "velocity": 120, "channel": 0}, {"type": "note_on", "time": 3, "note": 67, "velocity": 122, "channel": 0}, {"type": "note_off", "time": 63, "note": 67, "velocity": 122, "channel": 0}, {"type": "note_on", "time": 25, "note": 65, "velocity": 116, "channel": 0}, {"type": "note_off", "time": 92, "note": 65, "velocity": 116, "channel": 0}, {"type": "note_on", "time": 26, "note": 69, "velocity": 114, "channel": 0}, {"type": "note_off", "time": 80, "note": 69, "velocity": 114, "channel": 0}, {"type": "note_on", "time": 4, "note": 64, "velocity": 124, "channel": 0}, {"type": "note_off", "time": 87, "note": 64, "velocity": 124, "channel": 0}, {"type": "note_on", "time": 27, "note": 67, "velocity": 99, "channel": 0}, {"type": "note_off", "time": 45, "note": 67, "velocity": 99, "channel": 0}, {"type": "note_on", "time": 28, "note": 71, "velocity": 111, "channel": 0}, {"type": "note_off", "time": 89, "note": 71, "velocity": 111, "channel": 0}, {"type": "note_on", "time": 0, "note": 74, "velocity": 105, "channel": 0}, {"type": "note_off", "time": 84, "note": 74, "velocity": 105, "channel": 0}, {"type": "note_on", "time": 17, "note": 71, "velocity": 111, "channel": 0}, {"type": "note_off", "time": 90, "note": 71, "velocity": 111, "channel": 0}, {"type": "note_on", "time": 14, "note": 67, "velocity": 113, "channel": 0}, {"type": "note_off", "time": 83, "note": 67, "velocity": 113, "channel": 0}, {"type": "note_on", "time": 1, "note": 64, "velocity": 123, "channel": 0}, {"type": "note_off", "time": 101, "note": 64, "velocity": 123, "channel": 0}, {"type": "note_on", "time": 18, "note": 69, "velocity": 118, "channel": 0}, {"type": "note_off", "time": 80, "note": 69, "velocity": 118, "channel": 0}, {"type": "note_on", "time": 6, "note": 67, "velocity": 118, "channel": 0}, {"type": "note_off", "time": 90, "note": 67, "velocity": 118, "channel": 0}, {"type": "note_on", "time": 2, "note": 64, "velocity": 119, "channel": 0}, {"type": "note_off", "time": 61, "note": 64, "velocity": 119, "channel": 0}, {"type": "note_on", "time": 19, "note": 69, "velocity": 117, "channel": 0}, {"type": "note_off", "time": 65, "note": 69, "velocity": 117, "channel": 0}, {"type": "note_on", "time": 4, "note": 71, "velocity": 110, "channel": 0}, {"type": "note_off", "time": 50, "note": 71, "velocity": 110, "channel": 0}, {"type": "note_on", "time": 5, "note": 69, "velocity": 116, "channel": 0}, {"type": "note_off", "time": 62, "note": 69, "velocity": 116, "channel": 0}, {"type": "note_on", "time": 13, "note": 66, "velocity": 115, "channel": 0}, {"type": "note_off", "time": 92, "note": 66, "velocity": 115, "channel": 0}, {"type": "note_on", "time": 19, "note": 62, "velocity": 122, "channel": 0}, {"type": "note_off", "time": 72, "note": 62, "velocity": 122, "channel": 0}, {"type": "note_on", "time": 9, "note": 59, "velocity": 107, "channel": 0}, {"type": "note_off", "time": 112, "note": 59, "velocity": 107, "channel": 0}, {"type": "note_on", "time": 73, "note": 57, "velocity": 110, "channel": 0}, {"type": "note_off", "time": 95, "note": 57, "velocity": 110, "channel": 0}, {"type": "note_on", "time": 6, "note": 57, "velocity": 113, "channel": 0}, {"type": "note_off", "time": 41, "note": 57, "velocity": 113, "channel": 0}, {"type": "note_on", "time": 4, "note": 54, "velocity": 111, "channel": 0}, {"type": "note_off", "time": 53, "note": 54, "velocity": 111, "channel": 0}, {"type": "note_on", "time": 7, "note": 52, "velocity": 119, "channel": 0}, {"type": "note_off", "time": 161, "note": 52, "velocity": 119, "channel": 0}, {"type": "note_on", "time": 322, "note": 69, "velocity": 119, "channel": 0}, {"type": "note_off", "time": 67, "note": 69, "velocity": 119, "channel": 0}, {"type": "note_on", "time": 131, "note": 67, "velocity": 119, "channel": 0}, {"type": "note_off", "time": 80, "note": 67, "velocity": 119, "channel": 0}, {"type": "note_on", "time": 6, "note": 65, "velocity": 112, "channel": 0}, {"type": "note_off", "time": 72, "note": 65, "velocity": 112, "channel": 0}, {"type": "note_on", "time": 7, "note": 65, "velocity": 113, "channel": 0}, {"type": "note_off", "time": 22, "note": 65, "velocity": 113, "channel": 0}, {"type": "note_on", "time": 0, "note": 67, "velocity": 118, "channel": 0}, {"type": "note_off", "time": 61, "note": 67, "velocity": 118, "channel": 0}, {"type": "note_on", "time": 1, "note": 69, "velocity": 118, "channel": 0}, {"type": "note_off", "time": 103, "note": 69, "velocity": 118, "channel": 0}, {"type": "note_on", "time": 6, "note": 72, "velocity": 115, "channel": 0}, {"type": "note_off", "time": 96, "note": 72, "velocity": 115, "channel": 0}, {"type": "note_on", "time": 5, "note": 71, "velocity": 114, "channel": 0}, {"type": "note_off", "time": 78, "note": 71, "velocity": 114, "channel": 0}, {"type": "note_on", "time": 90, "note": 69, "velocity": 118, "channel": 0}, {"type": "note_off", "time": 173, "note": 69, "velocity": 118, "channel": 0}, {"type": "note_on", "time": 12, "note": 67, "velocity": 117, "channel": 0}, {"type": "note_off", "time": 117, "note": 67, "velocity": 117, "channel": 0}, {"type": "note_on", "time": 7, "note": 64, "velocity": 123, "channel": 0}, {"type": "note_off", "time": 86, "note": 64, "velocity": 123, "channel": 0}, {"type": "note_on", "time": 492, "note": 70, "velocity": 119, "channel": 0}, {"type": "note_off", "time": 38, "note": 70, "velocity": 119, "channel": 0}, {"type": "note_on", "time": 7, "note": 71, "velocity": 117, "channel": 0}, {"type": "note_off", "time": 138, "note": 71, "velocity": 117, "channel": 0}, {"type": "note_on", "time": 12, "note": 69, "velocity": 113, "channel": 0}, {"type": "note_off", "time": 53, "note": 69, "velocity": 113, "channel": 0}, {"type": "note_on", "time": 13, "note": 70, "velocity": 118, "channel": 0}, {"type": "note_off", "time": 49, "note": 70, "velocity": 118, "channel": 0}, {"type": "note_on", "time": 2, "note": 71, "velocity": 121, "channel": 0}, {"type": "note_off", "time": 132, "note": 71, "velocity": 121, "channel": 0}, {"type": "note_on", "time": 11, "note": 69, "velocity": 110, "channel": 0}, {"type": "note_off", "time": 56, "note": 69, "velocity": 110, "channel": 0}, {"type": "note_on", "time": 94, "note": 59, "velocity": 111, "channel": 0}, {"type": "note_off", "time": 51, "note": 59, "velocity": 111, "channel": 0}, {"type": "note_on", "time": 13, "note": 71, "velocity": 115, "channel": 0}, {"type": "note_off", "time": 87, "note": 71, "velocity": 115, "channel": 0}, {"type": "note_on", "time": 14, "note": 70, "velocity": 113, "channel": 0}, {"type": "note_off", "time": 72, "note": 70, "velocity": 113, "channel": 0}, {"type": "note_on", "time": 16, "note": 71, "velocity": 115, "channel": 0}, {"type": "note_off", "time": 167, "note": 71, "velocity": 115, "channel": 0}, {"type": "note_on", "time": 19, "note": 69, "velocity": 118, "channel": 0}, {"type": "note_off", "time": 60, "note": 69, "velocity": 118, "channel": 0}, {"type": "note_on", "time": 74, "note": 71, "velocity": 117, "channel": 0}, {"type": "note_off", "time": 171, "note": 71, "velocity": 117, "channel": 0}, {"type": "note_on", "time": 8, "note": 69, "velocity": 117, "channel": 0}, {"type": "note_off", "time": 48, "note": 69, "velocity": 117, "channel": 0}, {"type": "note_on", "time": 17, "note": 71, "velocity": 114, "channel": 0}, {"type": "note_off", "time": 500, "note": 71, "velocity": 114, "channel": 0}, {"type": "note_on", "time": 2, "note": 75, "velocity": 116, "channel": 0}, {"type": "note_off", "time": 132, "note": 75, "velocity": 116, "channel": 0}, {"type": "note_on", "time": 264, "note": 70, "velocity": 113, "channel": 0}, {"type": "note_off", "time": 37, "note": 70, "velocity": 113, "channel": 0}, {"type": "note_on", "time": 5, "note": 71, "velocity": 115, "channel": 0}, {"type": "note_off", "time": 145, "note": 71, "velocity": 115, "channel": 0}, {"type": "note_on", "time": 9, "note": 69, "velocity": 113, "channel": 0}, {"type": "note_off", "time": 50, "note": 69, "velocity": 113, "channel": 0}, {"type": "note_on", "time": 7, "note": 71, "velocity": 116, "channel": 0}, {"type": "note_off", "time": 179, "note": 71, "velocity": 116, "channel": 0}, {"type": "note_on", "time": 7, "note": 69, "velocity": 116, "channel": 0}, {"type": "note_off", "time": 64, "note": 69, "velocity": 116, "channel": 0}, {"type": "note_on", "time": 51, "note": 71, "velocity": 114, "channel": 0}, {"type": "note_off", "time": 188, "note": 71, "velocity": 114, "channel": 0}, {"type": "note_on", "time": 13, "note": 69, "velocity": 110, "channel": 0}, {"type": "note_off", "time": 58, "note": 69, "velocity": 110, "channel": 0}, {"type": "note_on", "time": 23, "note": 71, "velocity": 9, "channel": 0}, {"type": "note_off", "time": 161, "note": 71, "velocity": 9, "channel": 0}, {"type": "note_on", "time": 13, "note": 69, "velocity": 116, "channel": 0}, {"type": "note_off", "time": 57, "note": 69, "velocity": 116, "channel": 0}, {"type": "note_on", "time": 69, "note": 71, "velocity": 111, "channel": 0}, {"type": "note_off", "time": 170, "note": 71, "velocity": 111, "channel": 0}, {"type": "note_on", "time": 11, "note": 69, "velocity": 107, "channel": 0}, {"type": "note_off", "time": 65, "note": 69, "velocity": 107, "channel": 0}, {"type": "note_on", "time": 12, "note": 71, "velocity": 114, "channel": 0}, {"type": "note_off", "time": 150, "note": 71, "velocity": 114, "channel": 0}, {"type": "note_on", "time": 36, "note": 65, "velocity": 113, "channel": 0}, {"type": "note_off", "time": 66, "note": 65, "velocity": 113, "channel": 0}, {"type": "note_on", "time": 35, "note": 74, "velocity": 97, "channel": 0}, {"type": "note_off", "time": 50, "note": 74, "velocity": 97, "channel": 0}, {"type": "note_on", "time": 12, "note": 77, "velocity": 107, "channel": 0}, {"type": "note_off", "time": 132, "note": 77, "velocity": 107, "channel": 0}, {"type": "note_on", "time": 27, "note": 79, "velocity": 107, "channel": 0}, {"type": "note_off", "time": 48, "note": 79, "velocity": 107, "channel": 0}, {"type": "note_on", "time": 15, "note": 77, "velocity": 103, "channel": 0}, {"type": "note_off", "time": 195, "note": 77, "velocity": 103, "channel": 0}, {"type": "note_on", "time": 384, "note": 74, "velocity": 109, "channel": 0}, {"type": "note_off", "time": 64, "note": 74, "velocity": 109, "channel": 0}, {"type": "note_on", "time": 5, "note": 76, "velocity": 108, "channel": 0}, {"type": "note_off", "time": 217, "note": 76, "velocity": 108, "channel": 0}, {"type": "note_on", "time": 4, "note": 74, "velocity": 111, "channel": 0}, {"type": "note_off", "time": 175, "note": 74, "velocity": 111, "channel": 0}, {"type": "note_on", "time": 20, "note": 70, "velocity": 109, "channel": 0}, {"type": "note_off", "time": 309, "note": 70, "velocity": 109, "channel": 0}, {"type": "note_on", "time": 332, "note": 75, "velocity": 114, "channel": 0}, {"type": "note_off", "time": 55, "note": 75, "velocity": 114, "channel": 0}, {"type": "note_on", "time": 6, "note": 76, "velocity": 110, "channel": 0}, {"type": "note_off", "time": 203, "note": 76, "velocity": 110, "channel": 0}, {"type": "note_on", "time": 8, "note": 73, "velocity": 114, "channel": 0}, {"type": "note_off", "time": 180, "note": 73, "velocity": 114, "channel": 0}, {"type": "note_on", "time": 27, "note": 67, "velocity": 113, "channel": 0}, {"type": "note_off", "time": 136, "note": 67, "velocity": 113, "channel": 0}, {"type": "note_on", "time": 522, "note": 74, "velocity": 106, "channel": 0}, {"type": "note_off", "time": 62, "note": 74, "velocity": 106, "channel": 0}, {"type": "note_on", "time": 10, "note": 77, "velocity": 108, "channel": 0}, {"type": "note_off", "time": 195, "note": 77, "velocity": 108, "channel": 0}, {"type": "note_on", "time": 13, "note": 75, "velocity": 114, "channel": 0}, {"type": "note_off", "time": 179, "note": 75, "velocity": 114, "channel": 0}, {"type": "note_on", "time": 16, "note": 73, "velocity": 113, "channel": 0}, {"type": "note_off", "time": 64, "note": 73, "velocity": 113, "channel": 0}, {"type": "note_on", "time": 6, "note": 72, "velocity": 111, "channel": 0}, {"type": "note_off", "time": 136, "note": 72, "velocity": 111, "channel": 0}, {"type": "note_on", "time": 17, "note": 70, "velocity": 112, "channel": 0}, {"type": "note_off", "time": 147, "note": 70, "velocity": 112, "channel": 0}, {"type": "note_on", "time": 36, "note": 68, "velocity": 115, "channel": 0}, {"type": "note_off", "time": 152, "note": 68, "velocity": 115, "channel": 0}, {"type": "note_on", "time": 40, "note": 65, "velocity": 100, "channel": 0}, {"type": "note_off", "time": 37, "note": 65, "velocity": 100, "channel": 0}, {"type": "note_on", "time": 26, "note": 69, "velocity": 113, "channel": 0}, {"type": "note_off", "time": 186, "note": 69, "velocity": 113, "channel": 0}, {"type": "note_on", "time": 2, "note": 67, "velocity": 112, "channel": 0}, {"type": "note_off", "time": 80, "note": 67, "velocity": 112, "channel": 0}, {"type": "note_on", "time": 7, "note": 64, "velocity": 119, "channel": 0}, {"type": "note_off", "time": 85, "note": 64, "velocity": 119, "channel": 0}, {"type": "note_on", "time": 2, "note": 62, "velocity": 113, "channel": 0}, {"type": "note_off", "time": 100, "note": 62, "velocity": 113, "channel": 0}, {"type": "note_on", "time": 11, "note": 59, "velocity": 110, "channel": 0}, {"type": "note_off", "time": 87, "note": 59, "velocity": 110, "channel": 0}, {"type": "note_on", "time": 1, "note": 57, "velocity": 106, "channel": 0}, {"type": "note_off", "time": 82, "note": 57, "velocity": 106, "channel": 0}, {"type": "note_on", "time": 499, "note": 67, "velocity": 119, "channel": 0}, {"type": "note_off", "time": 93, "note": 67, "velocity": 119, "channel": 0}, {"type": "note_on", "time": 88, "note": 67, "velocity": 119, "channel": 0}, {"type": "note_off", "time": 106, "note": 67, "velocity": 119, "channel": 0}, {"type": "note_on", "time": 73, "note": 67, "velocity": 116, "channel": 0}, {"type": "note_off", "time": 105, "note": 67, "velocity": 116, "channel": 0}, {"type": "note_on", "time": 80, "note": 67, "velocity": 116, "channel": 0}, {"type": "note_off", "time": 187, "note": 67, "velocity": 116, "channel": 0}, {"type": "note_on", "time": 2, "note": 64, "velocity": 114, "channel": 0}, {"type": "note_off", "time": 181, "note": 64, "velocity": 114, "channel": 0}, {"type": "note_on", "time": 9, "note": 69, "velocity": 115, "channel": 0}, {"type": "note_off", "time": 105, "note": 69, "velocity": 115, "channel": 0}, {"type": "note_on", "time": 88, "note": 62, "velocity": 119, "channel": 0}, {"type": "note_off", "time": 107, "note": 62, "velocity": 119, "channel": 0}, {"type": "note_on", "time": 76, "note": 62, "velocity": 118, "channel": 0}, {"type": "note_off", "time": 143, "note": 62, "velocity": 118, "channel": 0}, {"type": "note_on", "time": 70, "note": 62, "velocity": 118, "channel": 0}, {"type": "note_off", "time": 115, "note": 62, "velocity": 118, "channel": 0}, {"type": "note_on", "time": 71, "note": 62, "velocity": 112, "channel": 0}, {"type": "note_off", "time": 120, "note": 62, "velocity": 112, "channel": 0}, {"type": "note_on", "time": 1, "note": 64, "velocity": 117, "channel": 0}, {"type": "note_off", "time": 69, "note": 64, "velocity": 117, "channel": 0}, {"type": "note_on", "time": 1, "note": 62, "velocity": 116, "channel": 0}, {"type": "note_off", "time": 132, "note": 62, "velocity": 116, "channel": 0}, {"type": "note_on", "time": 385, "note": 66, "velocity": 117, "channel": 0}, {"type": "note_off", "time": 63, "note": 66, "velocity": 117, "channel": 0}, {"type": "note_on", "time": 3, "note": 67, "velocity": 115, "channel": 0}, {"type": "note_off", "time": 187, "note": 67, "velocity": 115, "channel": 0}, {"type": "note_on", "time": 15, "note": 67, "velocity": 117, "channel": 0}, {"type": "note_off", "time": 69, "note": 67, "velocity": 117, "channel": 0}, {"type": "note_on", "time": 134, "note": 67, "velocity": 116, "channel": 0}, {"type": "note_off", "time": 166, "note": 67, "velocity": 116, "channel": 0}, {"type": "note_on", "time": 4, "note": 64, "velocity": 121, "channel": 0}, {"type": "note_off", "time": 74, "note": 64, "velocity": 121, "channel": 0}, {"type": "note_on", "time": 319, "note": 62, "velocity": 116, "channel": 0}, {"type": "note_off", "time": 50, "note": 62, "velocity": 116, "channel": 0}, {"type": "note_on", "time": 1, "note": 64, "velocity": 116, "channel": 0}, {"type": "note_off", "time": 45, "note": 64, "velocity": 116, "channel": 0}, {"type": "note_on", "time": 2, "note": 62, "velocity": 115, "channel": 0}, {"type": "note_off", "time": 45, "note": 62, "velocity": 115, "channel": 0}, {"type": "note_on", "time": 1, "note": 64, "velocity": 117, "channel": 0}, {"type": "note_off", "time": 40, "note": 64, "velocity": 117, "channel": 0}, {"type": "note_on", "time": 2, "note": 62, "velocity": 117, "channel": 0}, {"type": "note_off", "time": 47, "note": 62, "velocity": 117, "channel": 0}, {"type": "note_on", "time": 0, "note": 64, "velocity": 117, "channel": 0}, {"type": "note_off", "time": 42, "note": 64, "velocity": 117, "channel": 0}, {"type": "note_on", "time": 2, "note": 62, "velocity": 114, "channel": 0}, {"type": "note_off", "time": 41, "note": 62, "velocity": 114, "channel": 0}, {"type": "note_on", "time": 0, "note": 64, "velocity": 122, "channel": 0}, {"type": "note_off", "time": 50, "note": 64, "velocity": 122, "channel": 0}, {"type": "note_on", "time": 2, "note": 62, "velocity": 118, "channel": 0}, {"type": "note_off", "time": 42, "note": 62, "velocity": 118, "channel": 0}, {"type": "note_on", "time": 0, "note": 64, "velocity": 118, "channel": 0}, {"type": "note_off", "time": 42, "note": 64, "velocity": 118, "channel": 0}, {"type": "note_on", "time": 0, "note": 62, "velocity": 117, "channel": 0}, {"type": "note_off", "time": 45, "note": 62, "velocity": 117, "channel": 0}, {"type": "note_on", "time": 0, "note": 64, "velocity": 114, "channel": 0}, {"type": "note_off", "time": 38, "note": 64, "velocity": 114, "channel": 0}, {"type": "note_on", "time": 0, "note": 62, "velocity": 115, "channel": 0}, {"type": "note_off", "time": 44, "note": 62, "velocity": 115, "channel": 0}, {"type": "note_on", "time": 0, "note": 64, "velocity": 118, "channel": 0}, {"type": "note_off", "time": 38, "note": 64, "velocity": 118, "channel": 0}, {"type": "note_on", "time": 0, "note": 62, "velocity": 112, "channel": 0}, {"type": "note_off", "time": 43, "note": 62, "velocity": 112, "channel": 0}, {"type": "note_on", "time": 2, "note": 64, "velocity": 113, "channel": 0}, {"type": "note_off", "time": 36, "note": 64, "velocity": 113, "channel": 0}, {"type": "note_on", "time": 2, "note": 62, "velocity": 114, "channel": 0}, {"type": "note_off", "time": 46, "note": 62, "velocity": 114, "channel": 0}, {"type": "note_on", "time": 2, "note": 64, "velocity": 119, "channel": 0}, {"type": "note_off", "time": 37, "note": 64, "velocity": 119, "channel": 0}, {"type": "note_on", "time": 3, "note": 62, "velocity": 115, "channel": 0}, {"type": "note_off", "time": 44, "note": 62, "velocity": 115, "channel": 0}, {"type": "note_on", "time": 1, "note": 64, "velocity": 114, "channel": 0}, {"type": "note_off", "time": 33, "note": 64, "velocity": 114, "channel": 0}, {"type": "note_on", "time": 3, "note": 62, "velocity": 112, "channel": 0}, {"type": "note_off", "time": 35, "note": 62, "velocity": 112, "channel": 0}, {"type": "note_on", "time": 1, "note": 64, "velocity": 112, "channel": 0}, {"type": "note_off", "time": 36, "note": 64, "velocity": 112, "channel": 0}, {"type": "note_on", "time": 3, "note": 62, "velocity": 113, "channel": 0}, {"type": "note_off", "time": 107, "note": 62, "velocity": 113, "channel": 0}, {"type": "note_on", "time": 9, "note": 64, "velocity": 107, "channel": 0}, {"type": "note_off", "time": 31, "note": 64, "velocity": 107, "channel": 0}, {"type": "note_on", "time": 7, "note": 59, "velocity": 106, "channel": 0}, {"type": "note_off", "time": 42, "note": 59, "velocity": 106, "channel": 0}, {"type": "note_on", "time": 30, "note": 65, "velocity": 114, "channel": 0}, {"type": "note_off", "time": 45, "note": 65, "velocity": 114, "channel": 0}, {"type": "note_on", "time": 1, "note": 63, "velocity": 112, "channel": 0}, {"type": "note_off", "time": 33, "note": 63, "velocity": 112, "channel": 0}, {"type": "note_on", "time": 1, "note": 65, "velocity": 112, "channel": 0}, {"type": "note_off", "time": 39, "note": 65, "velocity": 112, "channel": 0}, {"type": "note_on", "time": 0, "note": 63, "velocity": 111, "channel": 0}, {"type": "note_off", "time": 26, "note": 63, "velocity": 111, "channel": 0}, {"type": "note_on", "time": 2, "note": 65, "velocity": 113, "channel": 0}, {"type": "note_off", "time": 41, "note": 65, "velocity": 113, "channel": 0}, {"type": "note_on", "time": 3, "note": 63, "velocity": 112, "channel": 0}, {"type": "note_off", "time": 36, "note": 63, "velocity": 112, "channel": 0}, {"type": "note_on", "time": 1, "note": 65, "velocity": 114, "channel": 0}, {"type": "note_off", "time": 41, "note": 65, "velocity": 114, "channel": 0}, {"type": "note_on", "time": 3, "note": 63, "velocity": 120, "channel": 0}, {"type": "note_off", "time": 32, "note": 63, "velocity": 120, "channel": 0}, {"type": "note_on", "time": 2, "note": 65, "velocity": 117, "channel": 0}, {"type": "note_off", "time": 46, "note": 65, "velocity": 117, "channel": 0}, {"type": "note_on", "time": 0, "note": 63, "velocity": 109, "channel": 0}, {"type": "note_off", "time": 29, "note": 63, "velocity": 109, "channel": 0}, {"type": "note_on", "time": 0, "note": 65, "velocity": 114, "channel": 0}, {"type": "note_off", "time": 44, "note": 65, "velocity": 114, "channel": 0}, {"type": "note_on", "time": 1, "note": 63, "velocity": 110, "channel": 0}, {"type": "note_off", "time": 32, "note": 63, "velocity": 110, "channel": 0}, {"type": "note_on", "time": 1, "note": 65, "velocity": 112, "channel": 0}, {"type": "note_off", "time": 39, "note": 65, "velocity": 112, "channel": 0}, {"type": "note_on", "time": 0, "note": 63, "velocity": 110, "channel": 0}, {"type": "note_off", "time": 35, "note": 63, "velocity": 110, "channel": 0}, {"type": "note_on", "time": 0, "note": 65, "velocity": 113, "channel": 0}, {"type": "note_off", "time": 36, "note": 65, "velocity": 113, "channel": 0}, {"type": "note_on", "time": 1, "note": 63, "velocity": 112, "channel": 0}, {"type": "note_off", "time": 32, "note": 63, "velocity": 112, "channel": 0}, {"type": "note_on", "time": 0, "note": 65, "velocity": 111, "channel": 0}, {"type": "note_off", "time": 41, "note": 65, "velocity": 111, "channel": 0}, {"type": "note_on", "time": 1, "note": 63, "velocity": 111, "channel": 0}, {"type": "note_off", "time": 30, "note": 63, "velocity": 111, "channel": 0}, {"type": "note_on", "time": 1, "note": 65, "velocity": 112, "channel": 0}, {"type": "note_off", "time": 40, "note": 65, "velocity": 112, "channel": 0}, {"type": "note_on", "time": 0, "note": 63, "velocity": 114, "channel": 0}, {"type": "note_off", "time": 30, "note": 63, "velocity": 114, "channel": 0}, {"type": "note_on", "time": 6, "note": 65, "velocity": 110, "channel": 0}, {"type": "note_off", "time": 40, "note": 65, "velocity": 110, "channel": 0}, {"type": "note_on", "time": 1, "note": 63, "velocity": 112, "channel": 0}, {"type": "note_off", "time": 32, "note": 63, "velocity": 112, "channel": 0}, {"type": "note_on", "time": 0, "note": 65, "velocity": 109, "channel": 0}, {"type": "note_off", "time": 43, "note": 65, "velocity": 109, "channel": 0}, {"type": "note_on", "time": 0, "note": 63, "velocity": 111, "channel": 0}, {"type": "note_off", "time": 31, "note": 63, "velocity": 111, "channel": 0}, {"type": "note_on", "time": 1, "note": 65, "velocity": 114, "channel": 0}, {"type": "note_off", "time": 46, "note": 65, "velocity": 114, "channel": 0}, {"type": "note_on", "time": 1, "note": 63, "velocity": 117, "channel": 0}, {"type": "note_off", "time": 32, "note": 63, "velocity": 117, "channel": 0}, {"type": "note_on", "time": 2, "note": 65, "velocity": 105, "channel": 0}, {"type": "note_off", "time": 34, "note": 65, "velocity": 105, "channel": 0}, {"type": "note_on", "time": 9, "note": 63, "velocity": 109, "channel": 0}, {"type": "note_off", "time": 33, "note": 63, "velocity": 109, "channel": 0}, {"type": "note_on", "time": 2, "note": 65, "velocity": 107, "channel": 0}, {"type": "note_off", "time": 31, "note": 65, "velocity": 107, "channel": 0}, {"type": "note_on", "time": 8, "note": 63, "velocity": 107, "channel": 0}, {"type": "note_off", "time": 39, "note": 63, "velocity": 107, "channel": 0}, {"type": "note_on", "time": 3, "note": 65, "velocity": 107, "channel": 0}, {"type": "note_off", "time": 34, "note": 65, "velocity": 107, "channel": 0}, {"type": "note_on", "time": 2, "note": 63, "velocity": 108, "channel": 0}, {"type": "note_off", "time": 42, "note": 63, "velocity": 108, "channel": 0}, {"type": "note_on", "time": 1, "note": 65, "velocity": 103, "channel": 0}, {"type": "note_off", "time": 24, "note": 65, "velocity": 103, "channel": 0}, {"type": "note_on", "time": 7, "note": 63, "velocity": 103, "channel": 0}, {"type": "note_off", "time": 25, "note": 63, "velocity": 103, "channel": 0}, {"type": "note_on", "time": 7, "note": 65, "velocity": 101, "channel": 0}, {"type": "note_off", "time": 31, "note": 65, "velocity": 101, "channel": 0}, {"type": "note_on", "time": 3, "note": 63, "velocity": 101, "channel": 0}, {"type": "note_off", "time": 43, "note": 63, "velocity": 101, "channel": 0}, {"type": "note_on", "time": 13, "note": 65, "velocity": 122, "channel": 0}, {"type": "note_off", "time": 34, "note": 65, "velocity": 122, "channel": 0}, {"type": "note_on", "time": 4, "note": 63, "velocity": 115, "channel": 0}, {"type": "note_off", "time": 39, "note": 63, "velocity": 115, "channel": 0}, {"type": "note_on", "time": 4, "note": 65, "velocity": 114, "channel": 0}, {"type": "note_off", "time": 32, "note": 65, "velocity": 114, "channel": 0}, {"type": "note_on", "time": 4, "note": 63, "velocity": 109, "channel": 0}, {"type": "note_off", "time": 36, "note": 63, "velocity": 109, "channel": 0}, {"type": "note_on", "time": 1, "note": 65, "velocity": 99, "channel": 0}, {"type": "note_off", "time": 25, "note": 65, "velocity": 99, "channel": 0}, {"type": "note_on", "time": 7, "note": 63, "velocity": 105, "channel": 0}, {"type": "note_off", "time": 31, "note": 63, "velocity": 105, "channel": 0}, {"type": "note_on", "time": 1, "note": 65, "velocity": 105, "channel": 0}, {"type": "note_off", "time": 31, "note": 65, "velocity": 105, "channel": 0}, {"type": "note_on", "time": 5, "note": 63, "velocity": 99, "channel": 0}, {"type": "note_off", "time": 66, "note": 63, "velocity": 99, "channel": 0}, {"type": "note_on", "time": 419, "note": 59, "velocity": 101, "channel": 0}, {"type": "note_off", "time": 76, "note": 59, "velocity": 101, "channel": 0}, {"type": "note_on", "time": 78, "note": 65, "velocity": 112, "channel": 0}, {"type": "note_off", "time": 36, "note": 65, "velocity": 112, "channel": 0}, {"type": "note_on", "time": 11, "note": 63, "velocity": 113, "channel": 0}, {"type": "note_off", "time": 32, "note": 63, "velocity": 113, "channel": 0}, {"type": "note_on", "time": 9, "note": 65, "velocity": 111, "channel": 0}, {"type": "note_off", "time": 37, "note": 65, "velocity": 111, "channel": 0}, {"type": "note_on", "time": 13, "note": 63, "velocity": 109, "channel": 0}, {"type": "note_off", "time": 46, "note": 63, "velocity": 109, "channel": 0}, {"type": "note_on", "time": 3, "note": 65, "velocity": 113, "channel": 0}, {"type": "note_off", "time": 35, "note": 65, "velocity": 113, "channel": 0}, {"type": "note_on", "time": 6, "note": 63, "velocity": 109, "channel": 0}, {"type": "note_off", "time": 41, "note": 63, "velocity": 109, "channel": 0}, {"type": "note_on", "time": 3, "note": 65, "velocity": 112, "channel": 0}, {"type": "note_off", "time": 40, "note": 65, "velocity": 112, "channel": 0}, {"type": "note_on", "time": 16, "note": 63, "velocity": 108, "channel": 0}, {"type": "note_off", "time": 39, "note": 63, "velocity": 108, "channel": 0}, {"type": "note_on", "time": 4, "note": 65, "velocity": 113, "channel": 0}, {"type": "note_off", "time": 39, "note": 65, "velocity": 113, "channel": 0}, {"type": "note_on", "time": 9, "note": 63, "velocity": 111, "channel": 0}, {"type": "note_off", "time": 33, "note": 63, "velocity": 111, "channel": 0}, {"type": "note_on", "time": 3, "note": 65, "velocity": 114, "channel": 0}, {"type": "note_off", "time": 25, "note": 65, "velocity": 114, "channel": 0}, {"type": "note_on", "time": 4, "note": 63, "velocity": 112, "channel": 0}, {"type": "note_off", "time": 28, "note": 63, "velocity": 112, "channel": 0}, {"type": "note_on", "time": 4, "note": 65, "velocity": 112, "channel": 0}, {"type": "note_off", "time": 28, "note": 65, "velocity": 112, "channel": 0}, {"type": "note_on", "time": 1, "note": 63, "velocity": 109, "channel": 0}, {"type": "note_off", "time": 27, "note": 63, "velocity": 109, "channel": 0}, {"type": "note_on", "time": 4, "note": 65, "velocity": 114, "channel": 0}, {"type": "note_off", "time": 37, "note": 65, "velocity": 114, "channel": 0}, {"type": "note_on", "time": 6, "note": 63, "velocity": 111, "channel": 0}, {"type": "note_off", "time": 36, "note": 63, "velocity": 111, "channel": 0}, {"type": "note_on", "time": 8, "note": 65, "velocity": 117, "channel": 0}, {"type": "note_off", "time": 45, "note": 65, "velocity": 117, "channel": 0}, {"type": "note_on", "time": 8, "note": 63, "velocity": 111, "channel": 0}, {"type": "note_off", "time": 32, "note": 63, "velocity": 111, "channel": 0}, {"type": "note_on", "time": 3, "note": 65, "velocity": 116, "channel": 0}, {"type": "note_off", "time": 37, "note": 65, "velocity": 116, "channel": 0}, {"type": "note_on", "time": 2, "note": 63, "velocity": 113, "channel": 0}, {"type": "note_off", "time": 32, "note": 63, "velocity": 113, "channel": 0}, {"type": "note_on", "time": 3, "note": 65, "velocity": 114, "channel": 0}, {"type": "note_off", "time": 30, "note": 65, "velocity": 114, "channel": 0}, {"type": "note_on", "time": 1, "note": 63, "velocity": 113, "channel": 0}, {"type": "note_off", "time": 39, "note": 63, "velocity": 113, "channel": 0}, {"type": "note_on", "time": 1, "note": 65, "velocity": 114, "channel": 0}, {"type": "note_off", "time": 30, "note": 65, "velocity": 114, "channel": 0}, {"type": "note_on", "time": 4, "note": 63, "velocity": 113, "channel": 0}, {"type": "note_off", "time": 35, "note": 63, "velocity": 113, "channel": 0}, {"type": "note_on", "time": 3, "note": 65, "velocity": 113, "channel": 0}, {"type": "note_off", "time": 36, "note": 65, "velocity": 113, "channel": 0}, {"type": "note_on", "time": 3, "note": 63, "velocity": 112, "channel": 0}, {"type": "note_off", "time": 39, "note": 63, "velocity": 112, "channel": 0}, {"type": "note_on", "time": 2, "note": 65, "velocity": 112, "channel": 0}, {"type": "note_off", "time": 36, "note": 65, "velocity": 112, "channel": 0}, {"type": "note_on", "time": 5, "note": 63, "velocity": 111, "channel": 0}, {"type": "note_off", "time": 36, "note": 63, "velocity": 111, "channel": 0}, {"type": "note_on", "time": 6, "note": 65, "velocity": 114, "channel": 0}, {"type": "note_off", "time": 32, "note": 65, "velocity": 114, "channel": 0}, {"type": "note_on", "time": 3, "note": 63, "velocity": 113, "channel": 0}, {"type": "note_off", "time": 32, "note": 63, "velocity": 113, "channel": 0}, {"type": "note_on", "time": 7, "note": 65, "velocity": 115, "channel": 0}, {"type": "note_off", "time": 35, "note": 65, "velocity": 115, "channel": 0}, {"type": "note_on", "time": 5, "note": 63, "velocity": 108, "channel": 0}, {"type": "note_off", "time": 36, "note": 63, "velocity": 108, "channel": 0}, {"type": "note_on", "time": 2, "note": 65, "velocity": 112, "channel": 0}, {"type": "note_off", "time": 37, "note": 65, "velocity": 112, "channel": 0}, {"type": "note_on", "time": 6, "note": 63, "velocity": 110, "channel": 0}, {"type": "note_off", "time": 29, "note": 63, "velocity": 110, "channel": 0}, {"type": "note_on", "time": 8, "note": 65, "velocity": 115, "channel": 0}, {"type": "note_off", "time": 34, "note": 65, "velocity": 115, "channel": 0}, {"type": "note_on", "time": 9, "note": 63, "velocity": 112, "channel": 0}, {"type": "note_off", "time": 28, "note": 63, "velocity": 112, "channel": 0}, {"type": "note_on", "time": 2, "note": 65, "velocity": 112, "channel": 0}, {"type": "note_off", "time": 30, "note": 65, "velocity": 112, "channel": 0}, {"type": "note_on", "time": 12, "note": 63, "velocity": 112, "channel": 0}, {"type": "note_off", "time": 36, "note": 63, "velocity": 112, "channel": 0}, {"type": "note_on", "time": 2, "note": 65, "velocity": 112, "channel": 0}, {"type": "note_off", "time": 36, "note": 65, "velocity": 112, "channel": 0}, {"type": "note_on", "time": 5, "note": 63, "velocity": 118, "channel": 0}, {"type": "note_off", "time": 35, "note": 63, "velocity": 118, "channel": 0}, {"type": "note_on", "time": 4, "note": 65, "velocity": 116, "channel": 0}, {"type": "note_off", "time": 36, "note": 65, "velocity": 116, "channel": 0}, {"type": "note_on", "time": 7, "note": 63, "velocity": 112, "channel": 0}, {"type": "note_off", "time": 28, "note": 63, "velocity": 112, "channel": 0}, {"type": "note_on", "time": 4, "note": 65, "velocity": 113, "channel": 0}, {"type": "note_off", "time": 27, "note": 65, "velocity": 113, "channel": 0}, {"type": "note_on", "time": 2, "note": 63, "velocity": 112, "channel": 0}, {"type": "note_off", "time": 21, "note": 63, "velocity": 112, "channel": 0}, {"type": "note_on", "time": 9, "note": 65, "velocity": 114, "channel": 0}, {"type": "note_off", "time": 40, "note": 65, "velocity": 114, "channel": 0}, {"type": "note_on", "time": 9, "note": 63, "velocity": 110, "channel": 0}, {"type": "note_off", "time": 28, "note": 63, "velocity": 110, "channel": 0}, {"type": "note_on", "time": 2, "note": 65, "velocity": 109, "channel": 0}, {"type": "note_off", "time": 37, "note": 65, "velocity": 109, "channel": 0}, {"type": "note_on", "time": 13, "note": 63, "velocity": 110, "channel": 0}, {"type": "note_off", "time": 60, "note": 63, "velocity": 110, "channel": 0}, {"type": "note_on", "time": 243, "note": 70, "velocity": 117, "channel": 0}, {"type": "note_off", "time": 48, "note": 70, "velocity": 117, "channel": 0}, {"type": "note_on", "time": 12, "note": 72, "velocity": 104, "channel": 0}, {"type": "note_off", "time": 952, "note": 72, "velocity": 104, "channel": 0}, {"type": "note_on", "time": 62, "note": 72, "velocity": 110, "channel": 0}, {"type": "note_off", "time": 46, "note": 72, "velocity": 110, "channel": 0}, {"type": "note_on", "time": 0, "note": 73, "velocity": 105, "channel": 0}, {"type": "note_off", "time": 95, "note": 73, "velocity": 105, "channel": 0}, {"type": "note_on", "time": 32, "note": 67, "velocity": 103, "channel": 0}, {"type": "note_off", "time": 190, "note": 67, "velocity": 103, "channel": 0}, {"type": "note_on", "time": 317, "note": 71, "velocity": 108, "channel": 0}, {"type": "note_off", "time": 36, "note": 71, "velocity": 108, "channel": 0}, {"type": "note_on", "time": 11, "note": 73, "velocity": 107, "channel": 0}, {"type": "note_off", "time": 292, "note": 73, "velocity": 107, "channel": 0}, {"type": "note_on", "time": 18, "note": 74, "velocity": 103, "channel": 0}, {"type": "note_off", "time": 47, "note": 74, "velocity": 103, "channel": 0}, {"type": "note_on", "time": 55, "note": 75, "velocity": 117, "channel": 0}, {"type": "note_off", "time": 85, "note": 75, "velocity": 117, "channel": 0}, {"type": "note_on", "time": 4, "note": 72, "velocity": 113, "channel": 0}, {"type": "note_off", "time": 109, "note": 72, "velocity": 113, "channel": 0}, {"type": "note_on", "time": 9, "note": 70, "velocity": 110, "channel": 0}, {"type": "note_off", "time": 199, "note": 70, "velocity": 110, "channel": 0}, {"type": "note_on", "time": 116, "note": 68, "velocity": 116, "channel": 0}, {"type": "note_off", "time": 58, "note": 68, "velocity": 116, "channel": 0}, {"type": "note_on", "time": 9, "note": 67, "velocity": 115, "channel": 0}, {"type": "note_off", "time": 91, "note": 67, "velocity": 115, "channel": 0}, {"type": "note_on", "time": 5, "note": 63, "velocity": 107, "channel": 0}, {"type": "note_off", "time": 54, "note": 63, "velocity": 107, "channel": 0}, {"type": "note_on", "time": 16, "note": 67, "velocity": 113, "channel": 0}, {"type": "note_off", "time": 105, "note": 67, "velocity": 113, "channel": 0}, {"type": "note_on", "time": 212, "note": 64, "velocity": 102, "channel": 0}, {"type": "note_off", "time": 32, "note": 64, "velocity": 102, "channel": 0}, {"type": "note_on", "time": 48, "note": 69, "velocity": 113, "channel": 0}, {"type": "note_off", "time": 99, "note": 69, "velocity": 113, "channel": 0}, {"type": "note_on", "time": 18, "note": 64, "velocity": 111, "channel": 0}, {"type": "note_off", "time": 45, "note": 64, "velocity": 111, "channel": 0}, {"type": "note_on", "time": 21, "note": 71, "velocity": 110, "channel": 0}, {"type": "note_off", "time": 127, "note": 71, "velocity": 110, "channel": 0}, {"type": "note_on", "time": 190, "note": 69, "velocity": 118, "channel": 0}, {"type": "note_off", "time": 76, "note": 69, "velocity": 118, "channel": 0}, {"type": "note_on", "time": 5, "note": 67, "velocity": 117, "channel": 0}, {"type": "note_off", "time": 98, "note": 67, "velocity": 117, "channel": 0}, {"type": "note_on", "time": 9, "note": 64, "velocity": 111, "channel": 0}, {"type": "note_off", "time": 46, "note": 64, "velocity": 111, "channel": 0}, {"type": "note_on", "time": 1, "note": 62, "velocity": 107, "channel": 0}, {"type": "note_off", "time": 36, "note": 62, "velocity": 107, "channel": 0}, {"type": "note_on", "time": 14, "note": 64, "velocity": 113, "channel": 0}, {"type": "note_off", "time": 101, "note": 64, "velocity": 113, "channel": 0}, {"type": "note_on", "time": 194, "note": 69, "velocity": 115, "channel": 0}, {"type": "note_off", "time": 63, "note": 69, "velocity": 115, "channel": 0}, {"type": "note_on", "time": 7, "note": 65, "velocity": 110, "channel": 0}, {"type": "note_off", "time": 87, "note": 65, "velocity": 110, "channel": 0}, {"type": "note_on", "time": 89, "note": 75, "velocity": 107, "channel": 0}, {"type": "note_off", "time": 46, "note": 75, "velocity": 107, "channel": 0}, {"type": "note_on", "time": 4, "note": 77, "velocity": 106, "channel": 0}, {"type": "note_off", "time": 193, "note": 77, "velocity": 106, "channel": 0}, {"type": "note_on", "time": 172, "note": 64, "velocity": 111, "channel": 0}, {"type": "note_off", "time": 49, "note": 64, "velocity": 111, "channel": 0}, {"type": "note_on", "time": 9, "note": 65, "velocity": 107, "channel": 0}, {"type": "note_off", "time": 59, "note": 65, "velocity": 107, "channel": 0}, {"type": "note_on", "time": 40, "note": 57, "velocity": 99, "channel": 0}, {"type": "note_off", "time": 212, "note": 57, "velocity": 99, "channel": 0}, {"type": "note_on", "time": 205, "note": 67, "velocity": 116, "channel": 0}, {"type": "note_off", "time": 114, "note": 67, "velocity": 116, "channel": 0}, {"type": "note_on", "time": 3, "note": 71, "velocity": 109, "channel": 0}, {"type": "note_off", "time": 45, "note": 71, "velocity": 109, "channel": 0}, {"type": "note_on", "time": 16, "note": 64, "velocity": 115, "channel": 0}, {"type": "note_off", "time": 84, "note": 64, "velocity": 115, "channel": 0}, {"type": "note_on", "time": 187, "note": 69, "velocity": 113, "channel": 0}, {"type": "note_off", "time": 82, "note": 69, "velocity": 113, "channel": 0}, {"type": "note_on", "time": 6, "note": 66, "velocity": 116, "channel": 0}, {"type": "note_off", "time": 72, "note": 66, "velocity": 116, "channel": 0}, {"type": "note_on", "time": 15, "note": 62, "velocity": 112, "channel": 0}, {"type": "note_off", "time": 81, "note": 62, "velocity": 112, "channel": 0}, {"type": "note_on", "time": 5, "note": 59, "velocity": 113, "channel": 0}, {"type": "note_off", "time": 78, "note": 59, "velocity": 113, "channel": 0}, {"type": "note_on", "time": 305, "note": 71, "velocity": 109, "channel": 0}, {"type": "note_off", "time": 128, "note": 71, "velocity": 109, "channel": 0}, {"type": "note_on", "time": 69, "note": 71, "velocity": 115, "channel": 0}, {"type": "note_off", "time": 106, "note": 71, "velocity": 115, "channel": 0}, {"type": "note_on", "time": 82, "note": 71, "velocity": 113, "channel": 0}, {"type": "note_off", "time": 107, "note": 71, "velocity": 113, "channel": 0}, {"type": "note_on", "time": 82, "note": 70, "velocity": 108, "channel": 0}, {"type": "note_off", "time": 40, "note": 70, "velocity": 108, "channel": 0}, {"type": "note_on", "time": 4, "note": 71, "velocity": 108, "channel": 0}, {"type": "note_off", "time": 374, "note": 71, "velocity": 108, "channel": 0}, {"type": "note_on", "time": 12, "note": 69, "velocity": 112, "channel": 0}, {"type": "note_off", "time": 53, "note": 69, "velocity": 112, "channel": 0}, {"type": "note_on", "time": 3, "note": 67, "velocity": 112, "channel": 0}, {"type": "note_off", "time": 37, "note": 67, "velocity": 112, "channel": 0}, {"type": "note_on", "time": 3, "note": 64, "velocity": 120, "channel": 0}, {"type": "note_off", "time": 46, "note": 64, "velocity": 120, "channel": 0}, {"type": "note_on", "time": 2, "note": 62, "velocity": 117, "channel": 0}, {"type": "note_off", "time": 59, "note": 62, "velocity": 117, "channel": 0}, {"type": "note_on", "time": 1, "note": 59, "velocity": 103, "channel": 0}, {"type": "note_off", "time": 56, "note": 59, "velocity": 103, "channel": 0}, {"type": "note_on", "time": 8, "note": 57, "velocity": 107, "channel": 0}, {"type": "note_off", "time": 50, "note": 57, "velocity": 107, "channel": 0}, {"type": "note_on", "time": 3, "note": 55, "velocity": 109, "channel": 0}, {"type": "note_off", "time": 27, "note": 55, "velocity": 109, "channel": 0}, {"type": "note_on", "time": 5, "note": 52, "velocity": 111, "channel": 0}, {"type": "note_off", "time": 45, "note": 52, "velocity": 111, "channel": 0}, {"type": "note_on", "time": 9, "note": 50, "velocity": 110, "channel": 0}, {"type": "note_off", "time": 49, "note": 50, "velocity": 110, "channel": 0}, {"type": "note_on", "time": 5, "note": 47, "velocity": 109, "channel": 0}, {"type": "note_off", "time": 187, "note": 47, "velocity": 109, "channel": 0}, {"type": "note_on", "time": 378, "note": 70, "velocity": 113, "channel": 0}, {"type": "note_off", "time": 32, "note": 70, "velocity": 113, "channel": 0}, {"type": "note_on", "time": 2, "note": 71, "velocity": 110, "channel": 0}, {"type": "note_off", "time": 155, "note": 71, "velocity": 110, "channel": 0}, {"type": "note_on", "time": 8, "note": 69, "velocity": 112, "channel": 0}, {"type": "note_off", "time": 55, "note": 69, "velocity": 112, "channel": 0}, {"type": "note_on", "time": 4, "note": 71, "velocity": 110, "channel": 0}, {"type": "note_off", "time": 41, "note": 71, "velocity": 110, "channel": 0}, {"type": "note_on", "time": 4, "note": 69, "velocity": 113, "channel": 0}, {"type": "note_off", "time": 50, "note": 69, "velocity": 113, "channel": 0}, {"type": "note_on", "time": 4, "note": 67, "velocity": 111, "channel": 0}, {"type": "note_off", "time": 42, "note": 67, "velocity": 111, "channel": 0}, {"type": "note_on", "time": 3, "note": 65, "velocity": 114, "channel": 0}, {"type": "note_off", "time": 65, "note": 65, "velocity": 114, "channel": 0}, {"type": "note_on", "time": 1, "note": 63, "velocity": 116, "channel": 0}, {"type": "note_off", "time": 53, "note": 63, "velocity": 116, "channel": 0}, {"type": "note_on", "time": 5, "note": 59, "velocity": 103, "channel": 0}, {"type": "note_off", "time": 46, "note": 59, "velocity": 103, "channel": 0}, {"type": "note_on", "time": 8, "note": 57, "velocity": 121, "channel": 0}, {"type": "note_off", "time": 37, "note": 57, "velocity": 121, "channel": 0}, {"type": "note_on", "time": 11, "note": 55, "velocity": 118, "channel": 0}, {"type": "note_off", "time": 35, "note": 55, "velocity": 118, "channel": 0}, {"type": "note_on", "time": 10, "note": 53, "velocity": 114, "channel": 0}, {"type": "note_off", "time": 41, "note": 53, "velocity": 114, "channel": 0}, {"type": "note_on", "time": 2, "note": 51, "velocity": 109, "channel": 0}, {"type": "note_off", "time": 69, "note": 51, "velocity": 109, "channel": 0}, {"type": "note_on", "time": 8, "note": 53, "velocity": 118, "channel": 0}, {"type": "note_off", "time": 38, "note": 53, "velocity": 118, "channel": 0}, {"type": "note_on", "time": 5, "note": 55, "velocity": 111, "channel": 0}, {"type": "note_off", "time": 33, "note": 55, "velocity": 111, "channel": 0}, {"type": "note_on", "time": 5, "note": 57, "velocity": 105, "channel": 0}, {"type": "note_off", "time": 41, "note": 57, "velocity": 105, "channel": 0}, {"type": "note_on", "time": 2, "note": 59, "velocity": 101, "channel": 0}, {"type": "note_off", "time": 55, "note": 59, "velocity": 101, "channel": 0}, {"type": "note_on", "time": 24, "note": 63, "velocity": 122, "channel": 0}, {"type": "note_off", "time": 34, "note": 63, "velocity": 122, "channel": 0}, {"type": "note_on", "time": 5, "note": 65, "velocity": 119, "channel": 0}, {"type": "note_off", "time": 32, "note": 65, "velocity": 119, "channel": 0}, {"type": "note_on", "time": 4, "note": 67, "velocity": 107, "channel": 0}, {"type": "note_off", "time": 44, "note": 67, "velocity": 107, "channel": 0}, {"type": "note_on", "time": 3, "note": 69, "velocity": 111, "channel": 0}, {"type": "note_off", "time": 41, "note": 69, "velocity": 111, "channel": 0}, {"type": "note_on", "time": 3, "note": 71, "velocity": 111, "channel": 0}, {"type": "note_off", "time": 47, "note": 71, "velocity": 111, "channel": 0}, {"type": "note_on", "time": 3, "note": 69, "velocity": 113, "channel": 0}, {"type": "note_off", "time": 44, "note": 69, "velocity": 113, "channel": 0}, {"type": "note_on", "time": 3, "note": 67, "velocity": 110, "channel": 0}, {"type": "note_off", "time": 44, "note": 67, "velocity": 110, "channel": 0}, {"type": "note_on", "time": 3, "note": 65, "velocity": 110, "channel": 0}, {"type": "note_off", "time": 57, "note": 65, "velocity": 110, "channel": 0}, {"type": "note_on", "time": 1, "note": 63, "velocity": 116, "channel": 0}, {"type": "note_off", "time": 48, "note": 63, "velocity": 116, "channel": 0}, {"type": "note_on", "time": 11, "note": 65, "velocity": 109, "channel": 0}, {"type": "note_off", "time": 28, "note": 65, "velocity": 109, "channel": 0}, {"type": "note_on", "time": 4, "note": 67, "velocity": 107, "channel": 0}, {"type": "note_off", "time": 27, "note": 67, "velocity": 107, "channel": 0}, {"type": "note_on", "time": 3, "note": 69, "velocity": 111, "channel": 0}, {"type": "note_off", "time": 31, "note": 69, "velocity": 111, "channel": 0}, {"type": "note_on", "time": 7, "note": 71, "velocity": 107, "channel": 0}, {"type": "note_off", "time": 34, "note": 71, "velocity": 107, "channel": 0}, {"type": "note_on", "time": 20, "note": 75, "velocity": 102, "channel": 0}, {"type": "note_off", "time": 66, "note": 75, "velocity": 102, "channel": 0}, {"type": "note_on", "time": 4, "note": 73, "velocity": 103, "channel": 0}, {"type": "note_off", "time": 51, "note": 73, "velocity": 103, "channel": 0}, {"type": "note_on", "time": 12, "note": 71, "velocity": 104, "channel": 0}, {"type": "note_off", "time": 33, "note": 71, "velocity": 104, "channel": 0}, {"type": "note_on", "time": 2, "note": 70, "velocity": 104, "channel": 0}, {"type": "note_off", "time": 36, "note": 70, "velocity": 104, "channel": 0}, {"type": "note_on", "time": 2, "note": 69, "velocity": 111, "channel": 0}, {"type": "note_off", "time": 61, "note": 69, "velocity": 111, "channel": 0}, {"type": "note_on", "time": 6, "note": 67, "velocity": 110, "channel": 0}, {"type": "note_off", "time": 46, "note": 67, "velocity": 110, "channel": 0}, {"type": "note_on", "time": 1, "note": 65, "velocity": 109, "channel": 0}, {"type": "note_off", "time": 55, "note": 65, "velocity": 109, "channel": 0}, {"type": "note_on", "time": 3, "note": 63, "velocity": 113, "channel": 0}, {"type": "note_off", "time": 52, "note": 63, "velocity": 113, "channel": 0}, {"type": "note_on", "time": 1, "note": 59, "velocity": 103, "channel": 0}, {"type": "note_off", "time": 39, "note": 59, "velocity": 103, "channel": 0}, {"type": "note_on", "time": 2, "note": 57, "velocity": 104, "channel": 0}, {"type": "note_off", "time": 41, "note": 57, "velocity": 104, "channel": 0}, {"type": "note_on", "time": 1, "note": 55, "velocity": 120, "channel": 0}, {"type": "note_off", "time": 46, "note": 55, "velocity": 120, "channel": 0}, {"type": "note_on", "time": 6, "note": 53, "velocity": 117, "channel": 0}, {"type": "note_off", "time": 37, "note": 53, "velocity": 117, "channel": 0}, {"type": "note_on", "time": 2, "note": 51, "velocity": 116, "channel": 0}, {"type": "note_off", "time": 46, "note": 51, "velocity": 116, "channel": 0}, {"type": "note_on", "time": 335, "note": 51, "velocity": 111, "channel": 0}, {"type": "note_off", "time": 50, "note": 51, "velocity": 111, "channel": 0}, {"type": "note_on", "time": 4, "note": 53, "velocity": 106, "channel": 0}, {"type": "note_off", "time": 35, "note": 53, "velocity": 106, "channel": 0}, {"type": "note_on", "time": 2, "note": 55, "velocity": 102, "channel": 0}, {"type": "note_off", "time": 29, "note": 55, "velocity": 102, "channel": 0}, {"type": "note_on", "time": 5, "note": 59, "velocity": 100, "channel": 0}, {"type": "note_off", "time": 84, "note": 59, "velocity": 100, "channel": 0}, {"type": "note_on", "time": 34, "note": 65, "velocity": 113, "channel": 0}, {"type": "note_off", "time": 35, "note": 65, "velocity": 113, "channel": 0}, {"type": "note_on", "time": 0, "note": 67, "velocity": 107, "channel": 0}, {"type": "note_off", "time": 25, "note": 67, "velocity": 107, "channel": 0}, {"type": "note_on", "time": 3, "note": 69, "velocity": 108, "channel": 0}, {"type": "note_off", "time": 42, "note": 69, "velocity": 108, "channel": 0}, {"type": "note_on", "time": 11, "note": 75, "velocity": 103, "channel": 0}, {"type": "note_off", "time": 57, "note": 75, "velocity": 103, "channel": 0}, {"type": "note_on", "time": 2, "note": 73, "velocity": 103, "channel": 0}, {"type": "note_off", "time": 45, "note": 73, "velocity": 103, "channel": 0}, {"type": "note_on", "time": 12, "note": 71, "velocity": 89, "channel": 0}, {"type": "note_off", "time": 50, "note": 71, "velocity": 89, "channel": 0}, {"type": "note_on", "time": 72, "note": 77, "velocity": 105, "channel": 0}, {"type": "note_off", "time": 73, "note": 77, "velocity": 105, "channel": 0}, {"type": "note_on", "time": 23, "note": 75, "velocity": 102, "channel": 0}, {"type": "note_off", "time": 56, "note": 75, "velocity": 102, "channel": 0}, {"type": "note_on", "time": 35, "note": 71, "velocity": 112, "channel": 0}, {"type": "note_off", "time": 41, "note": 71, "velocity": 112, "channel": 0}, {"type": "note_on", "time": 3, "note": 70, "velocity": 103, "channel": 0}, {"type": "note_off", "time": 43, "note": 70, "velocity": 103, "channel": 0}, {"type": "note_on", "time": 15, "note": 69, "velocity": 102, "channel": 0}, {"type": "note_off", "time": 50, "note": 69, "velocity": 102, "channel": 0}, {"type": "note_on", "time": 6, "note": 67, "velocity": 107, "channel": 0}, {"type": "note_off", "time": 35, "note": 67, "velocity": 107, "channel": 0}, {"type": "note_on", "time": 6, "note": 65, "velocity": 107, "channel": 0}, {"type": "note_off", "time": 46, "note": 65, "velocity": 107, "channel": 0}, {"type": "note_on", "time": 4, "note": 63, "velocity": 107, "channel": 0}, {"type": "note_off", "time": 35, "note": 63, "velocity": 107, "channel": 0}, {"type": "note_on", "time": 12, "note": 69, "velocity": 104, "channel": 0}, {"type": "note_off", "time": 49, "note": 69, "velocity": 104, "channel": 0}, {"type": "note_on", "time": 3, "note": 65, "velocity": 112, "channel": 0}, {"type": "note_off", "time": 36, "note": 65, "velocity": 112, "channel": 0}, {"type": "note_on", "time": 1, "note": 63, "velocity": 109, "channel": 0}, {"type": "note_off", "time": 35, "note": 63, "velocity": 109, "channel": 0}, {"type": "note_on", "time": 13, "note": 59, "velocity": 97, "channel": 0}, {"type": "note_off", "time": 32, "note": 59, "velocity": 97, "channel": 0}, {"type": "note_on", "time": 13, "note": 57, "velocity": 103, "channel": 0}, {"type": "note_off", "time": 36, "note": 57, "velocity": 103, "channel": 0}, {"type": "note_on", "time": 4, "note": 55, "velocity": 115, "channel": 0}, {"type": "note_off", "time": 39, "note": 55, "velocity": 115, "channel": 0}, {"type": "note_on", "time": 22, "note": 51, "velocity": 113, "channel": 0}, {"type": "note_off", "time": 32, "note": 51, "velocity": 113, "channel": 0}, {"type": "note_on", "time": 15, "note": 59, "velocity": 106, "channel": 0}, {"type": "note_off", "time": 35, "note": 59, "velocity": 106, "channel": 0}, {"type": "note_on", "time": 6, "note": 57, "velocity": 106, "channel": 0}, {"type": "note_off", "time": 33, "note": 57, "velocity": 106, "channel": 0}, {"type": "note_on", "time": 11, "note": 55, "velocity": 117, "channel": 0}, {"type": "note_off", "time": 42, "note": 55, "velocity": 117, "channel": 0}, {"type": "note_on", "time": 8, "note": 51, "velocity": 110, "channel": 0}, {"type": "note_off", "time": 39, "note": 51, "velocity": 110, "channel": 0}, {"type": "note_on", "time": 4, "note": 59, "velocity": 106, "channel": 0}, {"type": "note_off", "time": 32, "note": 59, "velocity": 106, "channel": 0}, {"type": "note_on", "time": 5, "note": 57, "velocity": 106, "channel": 0}, {"type": "note_off", "time": 42, "note": 57, "velocity": 106, "channel": 0}, {"type": "note_on", "time": 6, "note": 55, "velocity": 112, "channel": 0}, {"type": "note_off", "time": 41, "note": 55, "velocity": 112, "channel": 0}, {"type": "note_on", "time": 7, "note": 51, "velocity": 112, "channel": 0}, {"type": "note_off", "time": 46, "note": 51, "velocity": 112, "channel": 0}, {"type": "note_on", "time": 35, "note": 48, "velocity": 106, "channel": 0}, {"type": "note_off", "time": 82, "note": 48, "velocity": 106, "channel": 0}, {"type": "note_on", "time": 297, "note": 46, "velocity": 127, "channel": 0}, {"type": "note_off", "time": 36, "note": 46, "velocity": 127, "channel": 0}, {"type": "note_on", "time": 34, "note": 52, "velocity": 121, "channel": 0}, {"type": "note_off", "time": 35, "note": 52, "velocity": 121, "channel": 0}, {"type": "note_on", "time": 2, "note": 53, "velocity": 117, "channel": 0}, {"type": "note_off", "time": 26, "note": 53, "velocity": 117, "channel": 0}, {"type": "note_on", "time": 3, "note": 55, "velocity": 114, "channel": 0}, {"type": "note_off", "time": 23, "note": 55, "velocity": 114, "channel": 0}, {"type": "note_on", "time": 1, "note": 57, "velocity": 106, "channel": 0}, {"type": "note_off", "time": 23, "note": 57, "velocity": 106, "channel": 0}, {"type": "note_on", "time": 9, "note": 58, "velocity": 103, "channel": 0}, {"type": "note_off", "time": 42, "note": 58, "velocity": 103, "channel": 0}, {"type": "note_on", "time": 10, "note": 60, "velocity": 111, "channel": 0}, {"type": "note_off", "time": 25, "note": 60, "velocity": 111, "channel": 0}, {"type": "note_on", "time": 6, "note": 64, "velocity": 118, "channel": 0}, {"type": "note_off", "time": 20, "note": 64, "velocity": 118, "channel": 0}, {"type": "note_on", "time": 12, "note": 67, "velocity": 117, "channel": 0}, {"type": "note_off", "time": 20, "note": 67, "velocity": 117, "channel": 0}, {"type": "note_on", "time": 1, "note": 69, "velocity": 115, "channel": 0}, {"type": "note_off", "time": 35, "note": 69, "velocity": 115, "channel": 0}, {"type": "note_on", "time": 1, "note": 74, "velocity": 106, "channel": 0}, {"type": "note_off", "time": 30, "note": 74, "velocity": 106, "channel": 0}, {"type": "note_on", "time": 1, "note": 73, "velocity": 111, "channel": 0}, {"type": "note_off", "time": 27, "note": 73, "velocity": 111, "channel": 0}, {"type": "note_on", "time": 1, "note": 72, "velocity": 113, "channel": 0}, {"type": "note_off", "time": 25, "note": 72, "velocity": 113, "channel": 0}, {"type": "note_on", "time": 4, "note": 71, "velocity": 110, "channel": 0}, {"type": "note_off", "time": 14, "note": 71, "velocity": 110, "channel": 0}, {"type": "note_on", "time": 3, "note": 70, "velocity": 114, "channel": 0}, {"type": "note_off", "time": 265, "note": 70, "velocity": 114, "channel": 0}, {"type": "note_on", "time": 10, "note": 69, "velocity": 113, "channel": 0}, {"type": "note_off", "time": 44, "note": 69, "velocity": 113, "channel": 0}, {"type": "note_on", "time": 5, "note": 68, "velocity": 117, "channel": 0}, {"type": "note_off", "time": 45, "note": 68, "velocity": 117, "channel": 0}, {"type": "note_on", "time": 1, "note": 67, "velocity": 122, "channel": 0}, {"type": "note_off", "time": 42, "note": 67, "velocity": 122, "channel": 0}, {"type": "note_on", "time": 2, "note": 65, "velocity": 118, "channel": 0}, {"type": "note_off", "time": 38, "note": 65, "velocity": 118, "channel": 0}, {"type": "note_on", "time": 4, "note": 64, "velocity": 116, "channel": 0}, {"type": "note_off", "time": 42, "note": 64, "velocity": 116, "channel": 0}, {"type": "note_on", "time": 3, "note": 62, "velocity": 115, "channel": 0}, {"type": "note_off", "time": 32, "note": 62, "velocity": 115, "channel": 0}, {"type": "note_on", "time": 5, "note": 60, "velocity": 111, "channel": 0}, {"type": "note_off", "time": 38, "note": 60, "velocity": 111, "channel": 0}, {"type": "note_on", "time": 13, "note": 57, "velocity": 111, "channel": 0}, {"type": "note_off", "time": 53, "note": 57, "velocity": 111, "channel": 0}, {"type": "note_on", "time": 17, "note": 52, "velocity": 110, "channel": 0}, {"type": "note_off", "time": 32, "note": 52, "velocity": 110, "channel": 0}, {"type": "note_on", "time": 4, "note": 50, "velocity": 115, "channel": 0}, {"type": "note_off", "time": 30, "note": 50, "velocity": 115, "channel": 0}, {"type": "note_on", "time": 7, "note": 48, "velocity": 118, "channel": 0}, {"type": "note_off", "time": 40, "note": 48, "velocity": 118, "channel": 0}, {"type": "note_on", "time": 20, "note": 45, "velocity": 112, "channel": 0}, {"type": "note_off", "time": 607, "note": 45, "velocity": 112, "channel": 0}, {"type": "note_on", "time": 339, "note": 44, "velocity": 110, "channel": 0}, {"type": "note_off", "time": 1075, "note": 44, "velocity": 110, "channel": 0}, {"type": "note_on", "time": 197, "note": 57, "velocity": 101, "channel": 0}, {"type": "note_off", "time": 149, "note": 57, "velocity": 101, "channel": 0}, {"type": "note_on", "time": 4, "note": 59, "velocity": 109, "channel": 0}, {"type": "note_off", "time": 189, "note": 59, "velocity": 109, "channel": 0}, {"type": "note_on", "time": 32, "note": 62, "velocity": 118, "channel": 0}, {"type": "note_off", "time": 76, "note": 62, "velocity": 118, "channel": 0}, {"type": "note_on", "time": 115, "note": 64, "velocity": 114, "channel": 0}, {"type": "note_off", "time": 84, "note": 64, "velocity": 114, "channel": 0}, {"type": "note_on", "time": 79, "note": 69, "velocity": 114, "channel": 0}, {"type": "note_off", "time": 59, "note": 69, "velocity": 114, "channel": 0}, {"type": "note_on", "time": 107, "note": 61, "velocity": 111, "channel": 0}, {"type": "note_off", "time": 34, "note": 61, "velocity": 111, "channel": 0}, {"type": "note_on", "time": 54, "note": 67, "velocity": 115, "channel": 0}, {"type": "note_off", "time": 61, "note": 67, "velocity": 115, "channel": 0}, {"type": "note_on", "time": 6, "note": 69, "velocity": 114, "channel": 0}, {"type": "note_off", "time": 234, "note": 69, "velocity": 114, "channel": 0}, {"type": "note_on", "time": 9, "note": 69, "velocity": 111, "channel": 0}, {"type": "note_off", "time": 64, "note": 69, "velocity": 111, "channel": 0}, {"type": "note_on", "time": 326, "note": 67, "velocity": 117, "channel": 0}, {"type": "note_off", "time": 57, "note": 67, "velocity": 117, "channel": 0}, {"type": "note_on", "time": 0, "note": 69, "velocity": 115, "channel": 0}, {"type": "note_off", "time": 296, "note": 69, "velocity": 115, "channel": 0}, {"type": "note_on", "time": 14, "note": 64, "velocity": 112, "channel": 0}, {"type": "note_off", "time": 73, "note": 64, "velocity": 112, "channel": 0}, {"type": "note_on", "time": 15, "note": 69, "velocity": 118, "channel": 0}, {"type": "note_off", "time": 78, "note": 69, "velocity": 118, "channel": 0}, {"type": "note_on", "time": 12, "note": 69, "velocity": 120, "channel": 0}, {"type": "note_off", "time": 79, "note": 69, "velocity": 120, "channel": 0}, {"type": "note_on", "time": 7, "note": 64, "velocity": 118, "channel": 0}, {"type": "note_off", "time": 109, "note": 64, "velocity": 118, "channel": 0}, {"type": "note_on", "time": 8, "note": 69, "velocity": 100, "channel": 0}, {"type": "note_off", "time": 136, "note": 69, "velocity": 100, "channel": 0}, {"type": "note_on", "time": 277, "note": 68, "velocity": 114, "channel": 0}, {"type": "note_off", "time": 57, "note": 68, "velocity": 114, "channel": 0}, {"type": "note_on", "time": 3, "note": 69, "velocity": 114, "channel": 0}, {"type": "note_off", "time": 312, "note": 69, "velocity": 114, "channel": 0}, {"type": "note_on", "time": 2, "note": 64, "velocity": 108, "channel": 0}, {"type": "note_off", "time": 48, "note": 64, "velocity": 108, "channel": 0}, {"type": "note_on", "time": 12, "note": 69, "velocity": 116, "channel": 0}, {"type": "note_off", "time": 87, "note": 69, "velocity": 116, "channel": 0}, {"type": "note_on", "time": 20, "note": 64, "velocity": 113, "channel": 0}, {"type": "note_off", "time": 55, "note": 64, "velocity": 113, "channel": 0}, {"type": "note_on", "time": 17, "note": 69, "velocity": 97, "channel": 0}, {"type": "note_off", "time": 161, "note": 69, "velocity": 97, "channel": 0}, {"type": "note_on", "time": 329, "note": 68, "velocity": 114, "channel": 0}, {"type": "note_off", "time": 45, "note": 68, "velocity": 114, "channel": 0}, {"type": "note_on", "time": 1, "note": 69, "velocity": 114, "channel": 0}, {"type": "note_off", "time": 336, "note": 69, "velocity": 114, "channel": 0}, {"type": "note_on", "time": 2, "note": 64, "velocity": 111, "channel": 0}, {"type": "note_off", "time": 61, "note": 64, "velocity": 111, "channel": 0}, {"type": "note_on", "time": 14, "note": 69, "velocity": 111, "channel": 0}, {"type": "note_off", "time": 108, "note": 69, "velocity": 111, "channel": 0}, {"type": "note_on", "time": 7, "note": 64, "velocity": 107, "channel": 0}, {"type": "note_off", "time": 54, "note": 64, "velocity": 107, "channel": 0}, {"type": "note_on", "time": 19, "note": 69, "velocity": 91, "channel": 0}, {"type": "note_off", "time": 164, "note": 69, "velocity": 91, "channel": 0}, {"type": "note_on", "time": 321, "note": 68, "velocity": 115, "channel": 0}, {"type": "note_off", "time": 34, "note": 68, "velocity": 115, "channel": 0}, {"type": "note_on", "time": 3, "note": 69, "velocity": 111, "channel": 0}, {"type": "note_off", "time": 982, "note": 69, "velocity": 111, "channel": 0}, {"type": "note_on", "time": 43, "note": 63, "velocity": 116, "channel": 0}, {"type": "note_off", "time": 29, "note": 63, "velocity": 116, "channel": 0}, {"type": "note_on", "time": 1, "note": 65, "velocity": 117, "channel": 0}, {"type": "note_off", "time": 52, "note": 65, "velocity": 117, "channel": 0}, {"type": "note_on", "time": 6, "note": 67, "velocity": 115, "channel": 0}, {"type": "note_off", "time": 41, "note": 67, "velocity": 115, "channel": 0}, {"type": "note_on", "time": 10, "note": 69, "velocity": 97, "channel": 0}, {"type": "note_off", "time": 21, "note": 69, "velocity": 97, "channel": 0}, {"type": "note_on", "time": 280, "note": 55, "velocity": 122, "channel": 0}, {"type": "note_off", "time": 29, "note": 55, "velocity": 122, "channel": 0}, {"type": "note_on", "time": 2, "note": 56, "velocity": 117, "channel": 0}, {"type": "note_off", "time": 30, "note": 56, "velocity": 117, "channel": 0}, {"type": "note_on", "time": 3, "note": 57, "velocity": 118, "channel": 0}, {"type": "note_off", "time": 60, "note": 57, "velocity": 118, "channel": 0}, {"type": "note_on", "time": 4, "note": 59, "velocity": 111, "channel": 0}, {"type": "note_off", "time": 37, "note": 59, "velocity": 111, "channel": 0}, {"type": "note_on", "time": 7, "note": 63, "velocity": 111, "channel": 0}, {"type": "note_off", "time": 54, "note": 63, "velocity": 111, "channel": 0}, {"type": "note_on", "time": 4, "note": 67, "velocity": 110, "channel": 0}, {"type": "note_off", "time": 31, "note": 67, "velocity": 110, "channel": 0}, {"type": "note_on", "time": 1, "note": 69, "velocity": 114, "channel": 0}, {"type": "note_off", "time": 25, "note": 69, "velocity": 114, "channel": 0}, {"type": "note_on", "time": 11, "note": 71, "velocity": 110, "channel": 0}, {"type": "note_off", "time": 23, "note": 71, "velocity": 110, "channel": 0}, {"type": "note_on", "time": 5, "note": 73, "velocity": 110, "channel": 0}, {"type": "note_off", "time": 24, "note": 73, "velocity": 110, "channel": 0}, {"type": "note_on", "time": 0, "note": 74, "velocity": 103, "channel": 0}, {"type": "note_off", "time": 28, "note": 74, "velocity": 103, "channel": 0}, {"type": "note_on", "time": 247, "note": 53, "velocity": 126, "channel": 0}, {"type": "note_off", "time": 55, "note": 53, "velocity": 126, "channel": 0}, {"type": "note_on", "time": 6, "note": 55, "velocity": 120, "channel": 0}, {"type": "note_off", "time": 46, "note": 55, "velocity": 120, "channel": 0}, {"type": "note_on", "time": 2, "note": 57, "velocity": 112, "channel": 0}, {"type": "note_off", "time": 63, "note": 57, "velocity": 112, "channel": 0}, {"type": "note_on", "time": 5, "note": 60, "velocity": 120, "channel": 0}, {"type": "note_off", "time": 33, "note": 60, "velocity": 120, "channel": 0}, {"type": "note_on", "time": 5, "note": 63, "velocity": 116, "channel": 0}, {"type": "note_off", "time": 36, "note": 63, "velocity": 116, "channel": 0}, {"type": "note_on", "time": 10, "note": 65, "velocity": 112, "channel": 0}, {"type": "note_off", "time": 25, "note": 65, "velocity": 112, "channel": 0}, {"type": "note_on", "time": 1, "note": 67, "velocity": 115, "channel": 0}, {"type": "note_off", "time": 20, "note": 67, "velocity": 115, "channel": 0}, {"type": "note_on", "time": 4, "note": 69, "velocity": 117, "channel": 0}, {"type": "note_off", "time": 37, "note": 69, "velocity": 117, "channel": 0}, {"type": "note_on", "time": 8, "note": 70, "velocity": 120, "channel": 0}, {"type": "note_off", "time": 43, "note": 70, "velocity": 120, "channel": 0}, {"type": "note_on", "time": 4, "note": 71, "velocity": 119, "channel": 0}, {"type": "note_off", "time": 28, "note": 71, "velocity": 119, "channel": 0}, {"type": "note_on", "time": 2, "note": 74, "velocity": 105, "channel": 0}, {"type": "note_off", "time": 29, "note": 74, "velocity": 105, "channel": 0}, {"type": "note_on", "time": 7, "note": 75, "velocity": 106, "channel": 0}, {"type": "note_off", "time": 63, "note": 75, "velocity": 106, "channel": 0}, {"type": "note_on", "time": 213, "note": 51, "velocity": 110, "channel": 0}, {"type": "note_off", "time": 51, "note": 51, "velocity": 110, "channel": 0}, {"type": "note_on", "time": 15, "note": 55, "velocity": 104, "channel": 0}, {"type": "note_off", "time": 38, "note": 55, "velocity": 104, "channel": 0}, {"type": "note_on", "time": 12, "note": 57, "velocity": 120, "channel": 0}, {"type": "note_off", "time": 53, "note": 57, "velocity": 120, "channel": 0}, {"type": "note_on", "time": 7, "note": 60, "velocity": 115, "channel": 0}, {"type": "note_off", "time": 43, "note": 60, "velocity": 115, "channel": 0}, {"type": "note_on", "time": 33, "note": 67, "velocity": 112, "channel": 0}, {"type": "note_off", "time": 36, "note": 67, "velocity": 112, "channel": 0}, {"type": "note_on", "time": 1, "note": 69, "velocity": 114, "channel": 0}, {"type": "note_off", "time": 20, "note": 69, "velocity": 114, "channel": 0}, {"type": "note_on", "time": 2, "note": 71, "velocity": 114, "channel": 0}, {"type": "note_off", "time": 34, "note": 71, "velocity": 114, "channel": 0}, {"type": "note_on", "time": 2, "note": 75, "velocity": 112, "channel": 0}, {"type": "note_off", "time": 33, "note": 75, "velocity": 112, "channel": 0}, {"type": "note_on", "time": 4, "note": 77, "velocity": 99, "channel": 0}, {"type": "note_off", "time": 273, "note": 77, "velocity": 99, "channel": 0}, {"type": "note_on", "time": 228, "note": 50, "velocity": 112, "channel": 0}, {"type": "note_off", "time": 47, "note": 50, "velocity": 112, "channel": 0}, {"type": "note_on", "time": 3, "note": 58, "velocity": 120, "channel": 0}, {"type": "note_off", "time": 72, "note": 58, "velocity": 120, "channel": 0}, {"type": "note_on", "time": 10, "note": 69, "velocity": 102, "channel": 0}, {"type": "note_off", "time": 36, "note": 69, "velocity": 102, "channel": 0}, {"type": "note_on", "time": 4, "note": 71, "velocity": 110, "channel": 0}, {"type": "note_off", "time": 45, "note": 71, "velocity": 110, "channel": 0}, {"type": "note_on", "time": 2, "note": 75, "velocity": 106, "channel": 0}, {"type": "note_off", "time": 49, "note": 75, "velocity": 106, "channel": 0}, {"type": "note_on", "time": 3, "note": 77, "velocity": 96, "channel": 0}, {"type": "note_off", "time": 291, "note": 77, "velocity": 96, "channel": 0}, {"type": "note_on", "time": 9, "note": 65, "velocity": 119, "channel": 0}, {"type": "note_off", "time": 30, "note": 65, "velocity": 119, "channel": 0}, {"type": "note_on", "time": 13, "note": 61, "velocity": 116, "channel": 0}, {"type": "note_off", "time": 32, "note": 61, "velocity": 116, "channel": 0}, {"type": "note_on", "time": 11, "note": 60, "velocity": 117, "channel": 0}, {"type": "note_off", "time": 68, "note": 60, "velocity": 117, "channel": 0}, {"type": "note_on", "time": 479, "note": 75, "velocity": 118, "channel": 0}, {"type": "note_off", "time": 43, "note": 75, "velocity": 118, "channel": 0}, {"type": "note_on", "time": 4, "note": 76, "velocity": 109, "channel": 0}, {"type": "note_off", "time": 495, "note": 76, "velocity": 109, "channel": 0}, {"type": "note_on", "time": 32, "note": 75, "velocity": 103, "channel": 0}, {"type": "note_off", "time": 23, "note": 75, "velocity": 103, "channel": 0}, {"type": "note_on", "time": 0, "note": 76, "velocity": 115, "channel": 0}, {"type": "note_off", "time": 499, "note": 76, "velocity": 115, "channel": 0}, {"type": "note_on", "time": 55, "note": 75, "velocity": 111, "channel": 0}, {"type": "note_off", "time": 23, "note": 75, "velocity": 111, "channel": 0}, {"type": "note_on", "time": 7, "note": 76, "velocity": 113, "channel": 0}, {"type": "note_off", "time": 494, "note": 76, "velocity": 113, "channel": 0}, {"type": "note_on", "time": 62, "note": 76, "velocity": 113, "channel": 0}, {"type": "note_off", "time": 294, "note": 76, "velocity": 113, "channel": 0}, {"type": "note_on", "time": 254, "note": 76, "velocity": 108, "channel": 0}, {"type": "note_off", "time": 76, "note": 76, "velocity": 108, "channel": 0}, {"type": "note_on", "time": 13, "note": 77, "velocity": 116, "channel": 0}, {"type": "note_off", "time": 432, "note": 77, "velocity": 116, "channel": 0}, {"type": "note_on", "time": 59, "note": 76, "velocity": 108, "channel": 0}, {"type": "note_off", "time": 46, "note": 76, "velocity": 108, "channel": 0}, {"type": "note_on", "time": 5, "note": 77, "velocity": 104, "channel": 0}, {"type": "note_off", "time": 619, "note": 77, "velocity": 104, "channel": 0}, {"type": "note_on", "time": 5, "note": 79, "velocity": 97, "channel": 0}, {"type": "note_off", "time": 59, "note": 79, "velocity": 97, "channel": 0}, {"type": "note_on", "time": 7, "note": 71, "velocity": 101, "channel": 0}, {"type": "note_off", "time": 92, "note": 71, "velocity": 101, "channel": 0}, {"type": "note_on", "time": 48, "note": 77, "velocity": 96, "channel": 0}, {"type": "note_off", "time": 44, "note": 77, "velocity": 96, "channel": 0}, {"type": "note_on", "time": 4, "note": 79, "velocity": 100, "channel": 0}, {"type": "note_off", "time": 40, "note": 79, "velocity": 100, "channel": 0}, {"type": "note_on", "time": 5, "note": 71, "velocity": 102, "channel": 0}, {"type": "note_off", "time": 52, "note": 71, "velocity": 102, "channel": 0}, {"type": "note_on", "time": 656, "note": 76, "velocity": 109, "channel": 0}, {"type": "note_off", "time": 64, "note": 76, "velocity": 109, "channel": 0}, {"type": "note_on", "time": 5, "note": 77, "velocity": 86, "channel": 0}, {"type": "note_off", "time": 75, "note": 77, "velocity": 86, "channel": 0}, {"type": "note_on", "time": 5, "note": 79, "velocity": 99, "channel": 0}, {"type": "note_off", "time": 141, "note": 79, "velocity": 99, "channel": 0}, {"type": "note_on", "time": 18, "note": 79, "velocity": 102, "channel": 0}, {"type": "note_off", "time": 415, "note": 79, "velocity": 102, "channel": 0}, {"type": "note_on", "time": 16, "note": 76, "velocity": 118, "channel": 0}, {"type": "note_off", "time": 108, "note": 76, "velocity": 118, "channel": 0}, {"type": "note_on", "time": 91, "note": 79, "velocity": 95, "channel": 0}, {"type": "note_off", "time": 42, "note": 79, "velocity": 95, "channel": 0}, {"type": "note_on", "time": 29, "note": 71, "velocity": 97, "channel": 0}, {"type": "note_off", "time": 82, "note": 71, "velocity": 97, "channel": 0}, {"type": "note_on", "time": 36, "note": 74, "velocity": 111, "channel": 0}, {"type": "note_off", "time": 573, "note": 74, "velocity": 111, "channel": 0}, {"type": "note_on", "time": 8, "note": 73, "velocity": 116, "channel": 0}, {"type": "note_off", "time": 67, "note": 73, "velocity": 116, "channel": 0}, {"type": "note_on", "time": 13, "note": 74, "velocity": 116, "channel": 0}, {"type": "note_off", "time": 49, "note": 74, "velocity": 116, "channel": 0}, {"type": "note_on", "time": 13, "note": 73, "velocity": 119, "channel": 0}, {"type": "note_off", "time": 167, "note": 73, "velocity": 119, "channel": 0}, {"type": "note_on", "time": 13, "note": 71, "velocity": 114, "channel": 0}, {"type": "note_off", "time": 96, "note": 71, "velocity": 114, "channel": 0}, {"type": "note_on", "time": 5, "note": 72, "velocity": 113, "channel": 0}, {"type": "note_off", "time": 277, "note": 72, "velocity": 113, "channel": 0}, {"type": "note_on", "time": 418, "note": 71, "velocity": 109, "channel": 0}, {"type": "note_off", "time": 38, "note": 71, "velocity": 109, "channel": 0}, {"type": "note_on", "time": 3, "note": 72, "velocity": 114, "channel": 0}, {"type": "note_off", "time": 258, "note": 72, "velocity": 114, "channel": 0}, {"type": "note_on", "time": 10, "note": 71, "velocity": 108, "channel": 0}, {"type": "note_off", "time": 135, "note": 71, "velocity": 108, "channel": 0}, {"type": "note_on", "time": 5, "note": 72, "velocity": 109, "channel": 0}, {"type": "note_off", "time": 64, "note": 72, "velocity": 109, "channel": 0}, {"type": "note_on", "time": 10, "note": 71, "velocity": 108, "channel": 0}, {"type": "note_off", "time": 150, "note": 71, "velocity": 108, "channel": 0}, {"type": "note_on", "time": 487, "note": 69, "velocity": 104, "channel": 0}, {"type": "note_off", "time": 66, "note": 69, "velocity": 104, "channel": 0}, {"type": "note_on", "time": 4, "note": 71, "velocity": 104, "channel": 0}, {"type": "note_off", "time": 244, "note": 71, "velocity": 104, "channel": 0}, {"type": "note_on", "time": 8, "note": 69, "velocity": 104, "channel": 0}, {"type": "note_off", "time": 69, "note": 69, "velocity": 104, "channel": 0}, {"type": "note_on", "time": 5, "note": 71, "velocity": 103, "channel": 0}, {"type": "note_off", "time": 111, "note": 71, "velocity": 103, "channel": 0}, {"type": "note_on", "time": 52, "note": 48, "velocity": 114, "channel": 0}, {"type": "note_off", "time": 534, "note": 48, "velocity": 114, "channel": 0}, {"type": "note_on", "time": 15, "note": 50, "velocity": 106, "channel": 0}, {"type": "note_off", "time": 121, "note": 50, "velocity": 106, "channel": 0}, {"type": "note_on", "time": 16, "note": 50, "velocity": 107, "channel": 0}, {"type": "note_off", "time": 73, "note": 50, "velocity": 107, "channel": 0}, {"type": "note_on", "time": 376, "note": 69, "velocity": 106, "channel": 0}, {"type": "note_off", "time": 62, "note": 69, "velocity": 106, "channel": 0}, {"type": "note_on", "time": 6, "note": 71, "velocity": 113, "channel": 0}, {"type": "note_off", "time": 73, "note": 71, "velocity": 113, "channel": 0}, {"type": "note_on", "time": 32, "note": 71, "velocity": 114, "channel": 0}, {"type": "note_off", "time": 71, "note": 71, "velocity": 114, "channel": 0}, {"type": "note_on", "time": 57, "note": 71, "velocity": 115, "channel": 0}, {"type": "note_off", "time": 69, "note": 71, "velocity": 115, "channel": 0}, {"type": "note_on", "time": 50, "note": 71, "velocity": 111, "channel": 0}, {"type": "note_off", "time": 70, "note": 71, "velocity": 111, "channel": 0}, {"type": "note_on", "time": 47, "note": 71, "velocity": 111, "channel": 0}, {"type": "note_off", "time": 64, "note": 71, "velocity": 111, "channel": 0}, {"type": "note_on", "time": 64, "note": 71, "velocity": 113, "channel": 0}, {"type": "note_off", "time": 61, "note": 71, "velocity": 113, "channel": 0}, {"type": "note_on", "time": 41, "note": 71, "velocity": 112, "channel": 0}, {"type": "note_off", "time": 59, "note": 71, "velocity": 112, "channel": 0}, {"type": "note_on", "time": 53, "note": 71, "velocity": 109, "channel": 0}, {"type": "note_off", "time": 39, "note": 71, "velocity": 109, "channel": 0}, {"type": "note_on", "time": 35, "note": 71, "velocity": 109, "channel": 0}, {"type": "note_off", "time": 50, "note": 71, "velocity": 109, "channel": 0}, {"type": "note_on", "time": 17, "note": 71, "velocity": 114, "channel": 0}, {"type": "note_off", "time": 58, "note": 71, "velocity": 114, "channel": 0}, {"type": "note_on", "time": 28, "note": 71, "velocity": 114, "channel": 0}, {"type": "note_off", "time": 45, "note": 71, "velocity": 114, "channel": 0}, {"type": "note_on", "time": 27, "note": 71, "velocity": 108, "channel": 0}, {"type": "note_off", "time": 44, "note": 71, "velocity": 108, "channel": 0}, {"type": "note_on", "time": 27, "note": 71, "velocity": 113, "channel": 0}, {"type": "note_off", "time": 41, "note": 71, "velocity": 113, "channel": 0}, {"type": "note_on", "time": 29, "note": 71, "velocity": 112, "channel": 0}, {"type": "note_off", "time": 50, "note": 71, "velocity": 112, "channel": 0}, {"type": "note_on", "time": 26, "note": 71, "velocity": 112, "channel": 0}, {"type": "note_off", "time": 31, "note": 71, "velocity": 112, "channel": 0}, {"type": "note_on", "time": 43, "note": 71, "velocity": 112, "channel": 0}, {"type": "note_off", "time": 39, "note": 71, "velocity": 112, "channel": 0}, {"type": "note_on", "time": 29, "note": 71, "velocity": 114, "channel": 0}, {"type": "note_off", "time": 42, "note": 71, "velocity": 114, "channel": 0}, {"type": "note_on", "time": 30, "note": 71, "velocity": 113, "channel": 0}, {"type": "note_off", "time": 47, "note": 71, "velocity": 113, "channel": 0}, {"type": "note_on", "time": 32, "note": 71, "velocity": 111, "channel": 0}, {"type": "note_off", "time": 44, "note": 71, "velocity": 111, "channel": 0}, {"type": "note_on", "time": 44, "note": 71, "velocity": 119, "channel": 0}, {"type": "note_off", "time": 56, "note": 71, "velocity": 119, "channel": 0}, {"type": "note_on", "time": 51, "note": 71, "velocity": 112, "channel": 0}, {"type": "note_off", "time": 41, "note": 71, "velocity": 112, "channel": 0}, {"type": "note_on", "time": 28, "note": 71, "velocity": 111, "channel": 0}, {"type": "note_off", "time": 42, "note": 71, "velocity": 111, "channel": 0}, {"type": "note_on", "time": 31, "note": 71, "velocity": 106, "channel": 0}, {"type": "note_off", "time": 41, "note": 71, "velocity": 106, "channel": 0}, {"type": "note_on", "time": 15, "note": 71, "velocity": 110, "channel": 0}, {"type": "note_off", "time": 57, "note": 71, "velocity": 110, "channel": 0}, {"type": "note_on", "time": 15, "note": 75, "velocity": 116, "channel": 0}, {"type": "note_off", "time": 76, "note": 75, "velocity": 116, "channel": 0}, {"type": "note_on", "time": 14, "note": 69, "velocity": 107, "channel": 0}, {"type": "note_off", "time": 379, "note": 69, "velocity": 107, "channel": 0}, {"type": "note_on", "time": 228, "note": 70, "velocity": 114, "channel": 0}, {"type": "note_off", "time": 33, "note": 70, "velocity": 114, "channel": 0}, {"type": "note_on", "time": 2, "note": 71, "velocity": 113, "channel": 0}, {"type": "note_off", "time": 62, "note": 71, "velocity": 113, "channel": 0}, {"type": "note_on", "time": 26, "note": 71, "velocity": 106, "channel": 0}, {"type": "note_off", "time": 42, "note": 71, "velocity": 106, "channel": 0}, {"type": "note_on", "time": 18, "note": 71, "velocity": 107, "channel": 0}, {"type": "note_off", "time": 40, "note": 71, "velocity": 107, "channel": 0}, {"type": "note_on", "time": 20, "note": 71, "velocity": 111, "channel": 0}, {"type": "note_off", "time": 28, "note": 71, "velocity": 111, "channel": 0}, {"type": "note_on", "time": 23, "note": 71, "velocity": 110, "channel": 0}, {"type": "note_off", "time": 46, "note": 71, "velocity": 110, "channel": 0}, {"type": "note_on", "time": 48, "note": 70, "velocity": 114, "channel": 0}, {"type": "note_off", "time": 75, "note": 70, "velocity": 114, "channel": 0}, {"type": "note_on", "time": 5, "note": 76, "velocity": 114, "channel": 0}, {"type": "note_off", "time": 37, "note": 76, "velocity": 114, "channel": 0}, {"type": "note_on", "time": 3, "note": 77, "velocity": 96, "channel": 0}, {"type": "note_off", "time": 540, "note": 77, "velocity": 96, "channel": 0}, {"type": "note_on", "time": 436, "note": 75, "velocity": 106, "channel": 0}, {"type": "note_off", "time": 24, "note": 75, "velocity": 106, "channel": 0}, {"type": "note_on", "time": 6, "note": 76, "velocity": 113, "channel": 0}, {"type": "note_off", "time": 72, "note": 76, "velocity": 113, "channel": 0}, {"type": "note_on", "time": 15, "note": 45, "velocity": 115, "channel": 0}, {"type": "note_off", "time": 184, "note": 45, "velocity": 115, "channel": 0}, {"type": "note_on", "time": 375, "note": 68, "velocity": 112, "channel": 0}, {"type": "note_off", "time": 41, "note": 68, "velocity": 112, "channel": 0}, {"type": "note_on", "time": 3, "note": 69, "velocity": 112, "channel": 0}, {"type": "note_off", "time": 351, "note": 69, "velocity": 112, "channel": 0}, {"type": "note_on", "time": 65, "note": 68, "velocity": 117, "channel": 0}, {"type": "note_off", "time": 86, "note": 68, "velocity": 117, "channel": 0}, {"type": "note_on", "time": 8, "note": 70, "velocity": 114, "channel": 0}, {"type": "note_off", "time": 75, "note": 70, "velocity": 114, "channel": 0}, {"type": "note_on", "time": 5, "note": 68, "velocity": 117, "channel": 0}, {"type": "note_off", "time": 94, "note": 68, "velocity": 117, "channel": 0}, {"type": "note_on", "time": 12, "note": 65, "velocity": 124, "channel": 0}, {"type": "note_off", "time": 83, "note": 65, "velocity": 124, "channel": 0}, {"type": "note_on", "time": 5, "note": 63, "velocity": 110, "channel": 0}, {"type": "note_off", "time": 73, "note": 63, "velocity": 110, "channel": 0}, {"type": "note_on", "time": 31, "note": 68, "velocity": 116, "channel": 0}, {"type": "note_off", "time": 91, "note": 68, "velocity": 116, "channel": 0}, {"type": "note_on", "time": 4, "note": 65, "velocity": 118, "channel": 0}, {"type": "note_off", "time": 84, "note": 65, "velocity": 118, "channel": 0}, {"type": "note_on", "time": 11, "note": 63, "velocity": 114, "channel": 0}, {"type": "note_off", "time": 86, "note": 63, "velocity": 114, "channel": 0}, {"type": "note_on", "time": 4, "note": 60, "velocity": 111, "channel": 0}, {"type": "note_off", "time": 93, "note": 60, "velocity": 111, "channel": 0}, {"type": "note_on", "time": 4, "note": 58, "velocity": 109, "channel": 0}, {"type": "note_off", "time": 83, "note": 58, "velocity": 109, "channel": 0}, {"type": "note_on", "time": 6, "note": 56, "velocity": 108, "channel": 0}, {"type": "note_off", "time": 96, "note": 56, "velocity": 108, "channel": 0}, {"type": "note_on", "time": 188, "note": 69, "velocity": 120, "channel": 0}, {"type": "note_off", "time": 73, "note": 69, "velocity": 120, "channel": 0}, {"type": "note_on", "time": 1, "note": 67, "velocity": 118, "channel": 0}, {"type": "note_off", "time": 91, "note": 67, "velocity": 118, "channel": 0}, {"type": "note_on", "time": 5, "note": 64, "velocity": 124, "channel": 0}, {"type": "note_off", "time": 108, "note": 64, "velocity": 124, "channel": 0}, {"type": "note_on", "time": 2, "note": 59, "velocity": 105, "channel": 0}, {"type": "note_off", "time": 69, "note": 59, "velocity": 105, "channel": 0}, {"type": "note_on", "time": 49, "note": 55, "velocity": 109, "channel": 0}, {"type": "note_off", "time": 42, "note": 55, "velocity": 109, "channel": 0}, {"type": "note_on", "time": 5, "note": 57, "velocity": 113, "channel": 0}, {"type": "note_off", "time": 147, "note": 57, "velocity": 113, "channel": 0}, {"type": "note_on", "time": 427, "note": 70, "velocity": 104, "channel": 0}, {"type": "note_off", "time": 23, "note": 70, "velocity": 104, "channel": 0}, {"type": "note_on", "time": 1, "note": 71, "velocity": 114, "channel": 0}, {"type": "note_off", "time": 238, "note": 71, "velocity": 114, "channel": 0}, {"type": "note_on", "time": 20, "note": 69, "velocity": 113, "channel": 0}, {"type": "note_off", "time": 164, "note": 69, "velocity": 113, "channel": 0}, {"type": "note_on", "time": 9, "note": 68, "velocity": 115, "channel": 0}, {"type": "note_off", "time": 60, "note": 68, "velocity": 115, "channel": 0}, {"type": "note_on", "time": 4, "note": 69, "velocity": 111, "channel": 0}, {"type": "note_off", "time": 176, "note": 69, "velocity": 111, "channel": 0}, {"type": "note_on", "time": 15, "note": 67, "velocity": 117, "channel": 0}, {"type": "note_off", "time": 122, "note": 67, "velocity": 117, "channel": 0}, {"type": "note_on", "time": 60, "note": 67, "velocity": 121, "channel": 0}, {"type": "note_off", "time": 115, "note": 67, "velocity": 121, "channel": 0}, {"type": "note_on", "time": 5, "note": 64, "velocity": 112, "channel": 0}, {"type": "note_off", "time": 73, "note": 64, "velocity": 112, "channel": 0}, {"type": "note_on", "time": 6, "note": 67, "velocity": 118, "channel": 0}, {"type": "note_off", "time": 277, "note": 67, "velocity": 118, "channel": 0}, {"type": "note_on", "time": 13, "note": 64, "velocity": 114, "channel": 0}, {"type": "note_off", "time": 62, "note": 64, "velocity": 114, "channel": 0}, {"type": "note_on", "time": 141, "note": 64, "velocity": 116, "channel": 0}, {"type": "note_off", "time": 267, "note": 64, "velocity": 116, "channel": 0}, {"type": "note_on", "time": 7, "note": 62, "velocity": 118, "channel": 0}, {"type": "note_off", "time": 47, "note": 62, "velocity": 118, "channel": 0}, {"type": "note_on", "time": 150, "note": 67, "velocity": 119, "channel": 0}, {"type": "note_off", "time": 86, "note": 67, "velocity": 119, "channel": 0}, {"type": "note_on", "time": 12, "note": 62, "velocity": 117, "channel": 0}, {"type": "note_off", "time": 40, "note": 62, "velocity": 117, "channel": 0}, {"type": "note_on", "time": 23, "note": 64, "velocity": 119, "channel": 0}, {"type": "note_off", "time": 286, "note": 64, "velocity": 119, "channel": 0}, {"type": "note_on", "time": 8, "note": 62, "velocity": 121, "channel": 0}, {"type": "note_off", "time": 198, "note": 62, "velocity": 121, "channel": 0}, {"type": "note_on", "time": 6, "note": 61, "velocity": 113, "channel": 0}, {"type": "note_off", "time": 49, "note": 61, "velocity": 113, "channel": 0}, {"type": "note_on", "time": 6, "note": 62, "velocity": 120, "channel": 0}, {"type": "note_off", "time": 227, "note": 62, "velocity": 120, "channel": 0}, {"type": "note_on", "time": 2, "note": 59, "velocity": 113, "channel": 0}, {"type": "note_off", "time": 27, "note": 59, "velocity": 113, "channel": 0}, {"type": "note_on", "time": 156, "note": 59, "velocity": 112, "channel": 0}, {"type": "note_off", "time": 123, "note": 59, "velocity": 112, "channel": 0}, {"type": "note_on", "time": 4, "note": 57, "velocity": 108, "channel": 0}, {"type": "note_off", "time": 67, "note": 57, "velocity": 108, "channel": 0}, {"type": "note_on", "time": 4, "note": 59, "velocity": 108, "channel": 0}, {"type": "note_off", "time": 284, "note": 59, "velocity": 108, "channel": 0}, {"type": "note_on", "time": 2, "note": 57, "velocity": 109, "channel": 0}, {"type": "note_off", "time": 61, "note": 57, "velocity": 109, "channel": 0}, {"type": "note_on", "time": 145, "note": 56, "velocity": 115, "channel": 0}, {"type": "note_off", "time": 41, "note": 56, "velocity": 115, "channel": 0}, {"type": "note_on", "time": 3, "note": 57, "velocity": 110, "channel": 0}, {"type": "note_off", "time": 212, "note": 57, "velocity": 110, "channel": 0}, {"type": "note_on", "time": 5, "note": 55, "velocity": 112, "channel": 0}, {"type": "note_off", "time": 163, "note": 55, "velocity": 112, "channel": 0}, {"type": "note_on", "time": 27, "note": 55, "velocity": 111, "channel": 0}, {"type": "note_off", "time": 107, "note": 55, "velocity": 111, "channel": 0}, {"type": "note_on", "time": 6, "note": 52, "velocity": 113, "channel": 0}, {"type": "note_off", "time": 80, "note": 52, "velocity": 113, "channel": 0}, {"type": "note_on", "time": 6, "note": 50, "velocity": 105, "channel": 0}, {"type": "note_off", "time": 276, "note": 50, "velocity": 105, "channel": 0}, {"type": "end_of_track", "time": 0}]]}