{"ticks_per_beat": 192, "tracks": [[{"type": "track_name", "name": "Melody", "time": 0}, {"type": "set_tempo", "tempo": 224719, "time": 0}, {"type": "key_signature", "key": "F", "time": 0}, {"type": "time_signature", "numerator": 4, "denominator": 4, "clocks_per_click": 24, "notated_32nd_notes_per_beat": 8, "time": 0}, {"type": "note_on", "time": 3165, "note": 75, "velocity": 122, "channel": 0}, {"type": "note_off", "time": 91, "note": 75, "velocity": 122, "channel": 0}, {"type": "note_on", "time": 17, "note": 76, "velocity": 117, "channel": 0}, {"type": "note_off", "time": 61, "note": 76, "velocity": 117, "channel": 0}, {"type": "note_on", "time": 7, "note": 75, "velocity": 119, "channel": 0}, {"type": "note_off", "time": 195, "note": 75, "velocity": 119, "channel": 0}, {"type": "note_on", "time": 19, "note": 79, "velocity": 109, "channel": 0}, {"type": "note_off", "time": 59, "note": 79, "velocity": 109, "channel": 0}, {"type": "note_on", "time": 123, "note": 77, "velocity": 120, "channel": 0}, {"type": "note_off", "time": 359, "note": 77, "velocity": 120, "channel": 0}, {"type": "note_on", "time": 74, "note": 74, "velocity": 122, "channel": 0}, {"type": "note_off", "time": 299, "note": 74, "velocity": 122, "channel": 0}, {"type": "note_on", "time": 10, "note": 72, "velocity": 118, "channel": 0}, {"type": "note_off", "time": 233, "note": 72, "velocity": 118, "channel": 0}, {"type": "note_on", "time": 11, "note": 69, "velocity": 110, "channel": 0}, {"type": "note_off", "time": 73, "note": 69, "velocity": 110, "channel": 0}, {"type": "note_on", "time": 113, "note": 69, "velocity": 114, "channel": 0}, {"type": "note_off", "time": 767, "note": 69, "velocity": 114, "channel": 0}, {"type": "note_on", "time": 46, "note": 67, "velocity": 113, "channel": 0}, {"type": "note_off", "time": 69, "note": 67, "velocity": 113, "channel": 0}, {"type": "note_on", "time": 34, "note": 70, "velocity": 116, "channel": 0}, {"type": "note_off", "time": 76, "note": 70, "velocity": 116, "channel": 0}, {"type": "note_on", "time": 4, "note": 69, "velocity": 113, "channel": 0}, {"type": "note_off", "time": 96, "note": 69, "velocity": 113, "channel": 0}, {"type": "note_on", "time": 9, "note": 65, "velocity": 109, "channel": 0}, {"type": "note_off", "time": 81, "note": 65, "velocity": 109, "channel": 0}, {"type": "note_on", "time": 12, "note": 63, "velocity": 106, "channel": 0}, {"type": "note_off", "time": 213, "note": 63, "velocity": 106, "channel": 0}, {"type": "note_on", "time": 4, "note": 65, "velocity": 108, "channel": 0}, {"type": "note_off", "time": 61, "note": 65, "velocity": 108, "channel": 0}, {"type": "note_on", "time": 12, "note": 67, "velocity": 96, "channel": 0}, {"type": "note_off", "time": 228, "note": 67, "velocity": 96, "channel": 0}, {"type": "note_on", "time": 11, "note": 69, "velocity": 112, "channel": 0}, {"type": "note_off", "time": 388, "note": 69, "velocity": 112, "channel": 0}, {"type": "note_on", "time": 12, "note": 67, "velocity": 112, "channel": 0}, {"type": "note_off", "time": 132, "note": 67, "velocity": 112, "channel": 0}, {"type": "note_on", "time": 17, "note": 65, "velocity": 108, "channel": 0}, {"type": "note_off", "time": 612, "note": 65, "velocity": 108, "channel": 0}, {"type": "note_on", "time": 8, "note": 63, "velocity": 106, "channel": 0}, {"type": "note_off", "time": 121, "note": 63, "velocity": 106, "channel": 0}, {"type": "note_on", "time": 27, "note": 65, "velocity": 111, "channel": 0}, {"type": "note_off", "time": 86, "note": 65, "velocity": 111, "channel": 0}, {"type": "note_on", "time": 12, "note": 67, "velocity": 113, "channel": 0}, {"type": "note_off", "time": 71, "note": 67, "velocity": 113, "channel": 0}, {"type": "note_on", "time": 12, "note": 69, "velocity": 115, "channel": 0}, {"type": "note_off", "time": 94, "note": 69, "velocity": 115, "channel": 0}, {"type": "note_on", "time": 7, "note": 70, "velocity": 118, "channel": 0}, {"type": "note_off", "time": 84, "note": 70, "velocity": 118, "channel": 0}, {"type": "note_on", "time": 12, "note": 67, "velocity": 109, "channel": 0}, {"type": "note_off", "time": 76, "note": 67, "velocity": 109, "channel": 0}, {"type": "note_on", "time": 10, "note": 69, "velocity": 110, "channel": 0}, {"type": "note_off", "time": 79, "note": 69, "velocity": 110, "channel": 0}, {"type": "note_on", "time": 24, "note": 72, "velocity": 121, "channel": 0}, {"type": "note_off", "time": 79, "note": 72, "velocity": 121, "channel": 0}, {"type": "note_on", "time": 9, "note": 77, "velocity": 109, "channel": 0}, {"type": "note_off", "time": 94, "note": 77, "velocity": 109, "channel": 0}, {"type": "note_on", "time": 1053, "note": 79, "velocity": 124, "channel": 0}, {"type": "note_off", "time": 73, "note": 79, "velocity": 124, "channel": 0}, {"type": "note_on", "time": 6, "note": 80, "velocity": 115, "channel": 0}, {"type": "note_off", "time": 19, "note": 80, "velocity": 115, "channel": 0}, {"type": "note_on", "time": 20, "note": 79, "velocity": 119, "channel": 0}, {"type": "note_off", "time": 146, "note": 79, "velocity": 119, "channel": 0}, {"type": "note_on", "time": 0, "note": 81, "velocity": 118, "channel": 0}, {"type": "note_off", "time": 233, "note": 81, "velocity": 118, "channel": 0}, {"type": "note_on", "time": 14, "note": 79, "velocity": 119, "channel": 0}, {"type": "note_off", "time": 76, "note": 79, "velocity": 119, "channel": 0}, {"type": "note_on", "time": 39, "note": 74, "velocity": 121, "channel": 0}, {"type": "note_off", "time": 148, "note": 74, "velocity": 121, "channel": 0}, {"type": "note_on", "time": 0, "note": 72, "velocity": 115, "channel": 0}, {"type": "note_off", "time": 81, "note": 72, "velocity": 115, "channel": 0}, {"type": "note_on", "time": 694, "note": 75, "velocity": 118, "channel": 0}, {"type": "note_off", "time": 99, "note": 75, "velocity": 118, "channel": 0}, {"type": "note_on", "time": 5, "note": 79, "velocity": 122, "channel": 0}, {"type": "note_off", "time": 97, "note": 79, "velocity": 122, "channel": 0}, {"type": "note_on", "time": 8, "note": 77, "velocity": 119, "channel": 0}, {"type": "note_off", "time": 73, "note": 77, "velocity": 119, "channel": 0}, {"type": "note_on", "time": 3, "note": 74, "velocity": 121, "channel": 0}, {"type": "note_off", "time": 95, "note": 74, "velocity": 121, "channel": 0}, {"type": "note_on", "time": 10, "note": 72, "velocity": 118, "channel": 0}, {"type": "note_off", "time": 85, "note": 72, "velocity": 118, "channel": 0}, {"type": "note_on", "time": 5, "note": 77, "velocity": 118, "channel": 0}, {"type": "note_off", "time": 69, "note": 77, "velocity": 118, "channel": 0}, {"type": "note_on", "time": 8, "note": 72, "velocity": 118, "channel": 0}, {"type": "note_off", "time": 76, "note": 72, "velocity": 118, "channel": 0}, {"type": "note_on", "time": 17, "note": 72, "velocity": 122, "channel": 0}, {"type": "note_off", "time": 111, "note": 72, "velocity": 122, "channel": 0}, {"type": "note_on", "time": 4, "note": 74, "velocity": 116, "channel": 0}, {"type": "note_off", "time": 74, "note": 74, "velocity": 116, "channel": 0}, {"type": "note_on", "time": 2, "note": 70, "velocity": 118, "channel": 0}, {"type": "note_off", "time": 78, "note": 70, "velocity": 118, "channel": 0}, {"type": "note_on", "time": 15, "note": 67, "velocity": 111, "channel": 0}, {"type": "note_off", "time": 90, "note": 67, "velocity": 111, "channel": 0}, {"type": "note_on", "time": 19, "note": 72, "velocity": 118, "channel": 0}, {"type": "note_off", "time": 78, "note": 72, "velocity": 118, "channel": 0}, {"type": "note_on", "time": 8, "note": 69, "velocity": 118, "channel": 0}, {"type": "note_off", "time": 108, "note": 69, "velocity": 118, "channel": 0}, {"type": "note_on", "time": 33, "note": 65, "velocity": 102, "channel": 0}, {"type": "note_off", "time": 41, "note": 65, "velocity": 102, "channel": 0}, {"type": "note_on", "time": 27, "note": 70, "velocity": 120, "channel": 0}, {"type": "note_off", "time": 71, "note": 70, "velocity": 120, "channel": 0}, {"type": "note_on", "time": 1, "note": 69, "velocity": 115, "channel": 0}, {"type": "note_off", "time": 88, "note": 69, "velocity": 115, "channel": 0}, {"type": "note_on", "time": 15, "note": 65, "velocity": 111, "channel": 0}, {"type": "note_off", "time": 97, "note": 65, "velocity": 111, "channel": 0}, {"type": "note_on", "time": 48, "note": 62, "velocity": 99, "channel": 0}, {"type": "note_off", "time": 38, "note": 62, "velocity": 99, "channel": 0}, {"type": "note_on", "time": 10, "note": 67, "velocity": 118, "channel": 0}, {"type": "note_off", "time": 80, "note": 67, "velocity": 118, "channel": 0}, {"type": "note_on", "time": 13, "note": 63, "velocity": 114, "channel": 0}, {"type": "note_off", "time": 88, "note": 63, "velocity": 114, "channel": 0}, {"type": "note_on", "time": 0, "note": 60, "velocity": 108, "channel": 0}, {"type": "note_off", "time": 64, "note": 60, "velocity": 108, "channel": 0}, {"type": "note_on", "time": 36, "note": 58, "velocity": 111, "channel": 0}, {"type": "note_off", "time": 68, "note": 58, "velocity": 111, "channel": 0}, {"type": "note_on", "time": 26, "note": 55, "velocity": 102, "channel": 0}, {"type": "note_off", "time": 101, "note": 55, "velocity": 102, "channel": 0}, {"type": "note_on", "time": 13, "note": 57, "velocity": 108, "channel": 0}, {"type": "note_off", "time": 92, "note": 57, "velocity": 108, "channel": 0}, {"type": "note_on", "time": 6, "note": 58, "velocity": 109, "channel": 0}, {"type": "note_off", "time": 66, "note": 58, "velocity": 109, "channel": 0}, {"type": "note_on", "time": 15, "note": 60, "velocity": 110, "channel": 0}, {"type": "note_off", "time": 94, "note": 60, "velocity": 110, "channel": 0}, {"type": "note_on", "time": 15, "note": 62, "velocity": 110, "channel": 0}, {"type": "note_off", "time": 78, "note": 62, "velocity": 110, "channel": 0}, {"type": "note_on", "time": 17, "note": 63, "velocity": 114, "channel": 0}, {"type": "note_off", "time": 55, "note": 63, "velocity": 114, "channel": 0}, {"type": "note_on", "time": 23, "note": 60, "velocity": 107, "channel": 0}, {"type": "note_off", "time": 81, "note": 60, "velocity": 107, "channel": 0}, {"type": "note_on", "time": 48, "note": 62, "velocity": 112, "channel": 0}, {"type": "note_off", "time": 73, "note": 62, "velocity": 112, "channel": 0}, {"type": "note_on", "time": 5, "note": 63, "velocity": 109, "channel": 0}, {"type": "note_off", "time": 83, "note": 63, "velocity": 109, "channel": 0}, {"type": "note_on", "time": 8, "note": 65, "velocity": 110, "channel": 0}, {"type": "note_off", "time": 78, "note": 65, "velocity": 110, "channel": 0}, {"type": "note_on", "time": 8, "note": 67, "velocity": 117, "channel": 0}, {"type": "note_off", "time": 78, "note": 67, "velocity": 117, "channel": 0}, {"type": "note_on", "time": 17, "note": 69, "velocity": 117, "channel": 0}, {"type": "note_off", "time": 76, "note": 69, "velocity": 117, "channel": 0}, {"type": "note_on", "time": 10, "note": 70, "velocity": 120, "channel": 0}, {"type": "note_off", "time": 71, "note": 70, "velocity": 120, "channel": 0}, {"type": "note_on", "time": 12, "note": 72, "velocity": 124, "channel": 0}, {"type": "note_off", "time": 81, "note": 72, "velocity": 124, "channel": 0}, {"type": "note_on", "time": 26, "note": 74, "velocity": 115, "channel": 0}, {"type": "note_off", "time": 59, "note": 74, "velocity": 115, "channel": 0}, {"type": "note_on", "time": 3, "note": 77, "velocity": 110, "channel": 0}, {"type": "note_off", "time": 92, "note": 77, "velocity": 110, "channel": 0}, {"type": "note_on", "time": 959, "note": 77, "velocity": 112, "channel": 0}, {"type": "note_off", "time": 71, "note": 77, "velocity": 112, "channel": 0}, {"type": "note_on", "time": 130, "note": 79, "velocity": 119, "channel": 0}, {"type": "note_off", "time": 99, "note": 79, "velocity": 119, "channel": 0}, {"type": "note_on", "time": 12, "note": 80, "velocity": 122, "channel": 0}, {"type": "note_off", "time": 87, "note": 80, "velocity": 122, "channel": 0}, {"type": "note_on", "time": 3, "note": 79, "velocity": 120, "channel": 0}, {"type": "note_off", "time": 90, "note": 79, "velocity": 120, "channel": 0}, {"type": "note_on", "time": 26, "note": 75, "velocity": 120, "channel": 0}, {"type": "note_off", "time": 195, "note": 75, "velocity": 120, "channel": 0}, {"type": "note_on", "time": 19, "note": 70, "velocity": 98, "channel": 0}, {"type": "note_off", "time": 47, "note": 70, "velocity": 98, "channel": 0}, {"type": "note_on", "time": 8, "note": 77, "velocity": 120, "channel": 0}, {"type": "note_off", "time": 102, "note": 77, "velocity": 120, "channel": 0}, {"type": "note_on", "time": 15, "note": 72, "velocity": 123, "channel": 0}, {"type": "note_off", "time": 186, "note": 72, "velocity": 123, "channel": 0}, {"type": "note_on", "time": 6, "note": 74, "velocity": 117, "channel": 0}, {"type": "note_off", "time": 94, "note": 74, "velocity": 117, "channel": 0}, {"type": "note_on", "time": 0, "note": 72, "velocity": 115, "channel": 0}, {"type": "note_off", "time": 88, "note": 72, "velocity": 115, "channel": 0}, {"type": "note_on", "time": 6, "note": 68, "velocity": 106, "channel": 0}, {"type": "note_off", "time": 92, "note": 68, "velocity": 106, "channel": 0}, {"type": "note_on", "time": 3, "note": 70, "velocity": 114, "channel": 0}, {"type": "note_off", "time": 85, "note": 70, "velocity": 114, "channel": 0}, {"type": "note_on", "time": 1, "note": 73, "velocity": 122, "channel": 0}, {"type": "note_off", "time": 90, "note": 73, "velocity": 122, "channel": 0}, {"type": "note_on", "time": 6, "note": 72, "velocity": 116, "channel": 0}, {"type": "note_off", "time": 95, "note": 72, "velocity": 116, "channel": 0}, {"type": "note_on", "time": 5, "note": 70, "velocity": 114, "channel": 0}, {"type": "note_off", "time": 90, "note": 70, "velocity": 114, "channel": 0}, {"type": "note_on", "time": 5, "note": 68, "velocity": 113, "channel": 0}, {"type": "note_off", "time": 102, "note": 68, "velocity": 113, "channel": 0}, {"type": "note_on", "time": 27, "note": 65, "velocity": 101, "channel": 0}, {"type": "note_off", "time": 62, "note": 65, "velocity": 101, "channel": 0}, {"type": "note_on", "time": 6, "note": 70, "velocity": 116, "channel": 0}, {"type": "note_off", "time": 88, "note": 70, "velocity": 116, "channel": 0}, {"type": "note_on", "time": 10, "note": 69, "velocity": 114, "channel": 0}, {"type": "note_off", "time": 80, "note": 69, "velocity": 114, "channel": 0}, {"type": "note_on", "time": 5, "note": 68, "velocity": 111, "channel": 0}, {"type": "note_off", "time": 101, "note": 68, "velocity": 111, "channel": 0}, {"type": "note_on", "time": 5, "note": 63, "velocity": 108, "channel": 0}, {"type": "note_off", "time": 66, "note": 63, "velocity": 108, "channel": 0}, {"type": "note_on", "time": 8, "note": 60, "velocity": 104, "channel": 0}, {"type": "note_off", "time": 99, "note": 60, "velocity": 104, "channel": 0}, {"type": "note_on", "time": 17, "note": 65, "velocity": 114, "channel": 0}, {"type": "note_off", "time": 64, "note": 65, "velocity": 114, "channel": 0}, {"type": "note_on", "time": 10, "note": 63, "velocity": 107, "channel": 0}, {"type": "note_off", "time": 80, "note": 63, "velocity": 107, "channel": 0}, {"type": "note_on", "time": 55, "note": 58, "velocity": 107, "channel": 0}, {"type": "note_off", "time": 57, "note": 58, "velocity": 107, "channel": 0}, {"type": "note_on", "time": 13, "note": 59, "velocity": 101, "channel": 0}, {"type": "note_off", "time": 83, "note": 59, "velocity": 101, "channel": 0}, {"type": "note_on", "time": 3, "note": 63, "velocity": 105, "channel": 0}, {"type": "note_off", "time": 176, "note": 63, "velocity": 105, "channel": 0}, {"type": "note_on", "time": 6, "note": 65, "velocity": 109, "channel": 0}, {"type": "note_off", "time": 195, "note": 65, "velocity": 109, "channel": 0}, {"type": "note_on", "time": 8, "note": 68, "velocity": 113, "channel": 0}, {"type": "note_off", "time": 181, "note": 68, "velocity": 113, "channel": 0}, {"type": "note_on", "time": 31, "note": 65, "velocity": 100, "channel": 0}, {"type": "note_off", "time": 54, "note": 65, "velocity": 100, "channel": 0}, {"type": "note_on", "time": 22, "note": 70, "velocity": 113, "channel": 0}, {"type": "note_off", "time": 85, "note": 70, "velocity": 113, "channel": 0}, {"type": "note_on", "time": 20, "note": 75, "velocity": 120, "channel": 0}, {"type": "note_off", "time": 688, "note": 75, "velocity": 120, "channel": 0}, {"type": "note_on", "time": 17, "note": 74, "velocity": 108, "channel": 0}, {"type": "note_off", "time": 22, "note": 74, "velocity": 108, "channel": 0}, {"type": "note_on", "time": 12, "note": 76, "velocity": 110, "channel": 0}, {"type": "note_off", "time": 33, "note": 76, "velocity": 110, "channel": 0}, {"type": "note_on", "time": 15, "note": 75, "velocity": 114, "channel": 0}, {"type": "note_off", "time": 291, "note": 75, "velocity": 114, "channel": 0}, {"type": "note_on", "time": 15, "note": 74, "velocity": 104, "channel": 0}, {"type": "note_off", "time": 33, "note": 74, "velocity": 104, "channel": 0}, {"type": "note_on", "time": 6, "note": 76, "velocity": 109, "channel": 0}, {"type": "note_off", "time": 41, "note": 76, "velocity": 109, "channel": 0}, {"type": "note_on", "time": 8, "note": 75, "velocity": 109, "channel": 0}, {"type": "note_off", "time": 52, "note": 75, "velocity": 109, "channel": 0}, {"type": "note_on", "time": 932, "note": 80, "velocity": 124, "channel": 0}, {"type": "note_off", "time": 120, "note": 80, "velocity": 124, "channel": 0}, {"type": "note_on", "time": 13, "note": 80, "velocity": 127, "channel": 0}, {"type": "note_off", "time": 62, "note": 80, "velocity": 127, "channel": 0}, {"type": "note_on", "time": 19, "note": 80, "velocity": 124, "channel": 0}, {"type": "note_off", "time": 179, "note": 80, "velocity": 124, "channel": 0}, {"type": "note_on", "time": 924, "note": 75, "velocity": 115, "channel": 0}, {"type": "note_off", "time": 97, "note": 75, "velocity": 115, "channel": 0}, {"type": "note_on", "time": 8, "note": 77, "velocity": 122, "channel": 0}, {"type": "note_off", "time": 81, "note": 77, "velocity": 122, "channel": 0}, {"type": "note_on", "time": 1, "note": 78, "velocity": 123, "channel": 0}, {"type": "note_off", "time": 81, "note": 78, "velocity": 123, "channel": 0}, {"type": "note_on", "time": 17, "note": 82, "velocity": 114, "channel": 0}, {"type": "note_off", "time": 116, "note": 82, "velocity": 114, "channel": 0}, {"type": "note_on", "time": 367, "note": 80, "velocity": 122, "channel": 0}, {"type": "note_off", "time": 108, "note": 80, "velocity": 122, "channel": 0}, {"type": "note_on", "time": 6, "note": 77, "velocity": 116, "channel": 0}, {"type": "note_off", "time": 94, "note": 77, "velocity": 116, "channel": 0}, {"type": "note_on", "time": 0, "note": 75, "velocity": 118, "channel": 0}, {"type": "note_off", "time": 123, "note": 75, "velocity": 118, "channel": 0}, {"type": "note_on", "time": 78, "note": 77, "velocity": 115, "channel": 0}, {"type": "note_off", "time": 87, "note": 77, "velocity": 115, "channel": 0}, {"type": "note_on", "time": 8, "note": 72, "velocity": 110, "channel": 0}, {"type": "note_off", "time": 61, "note": 72, "velocity": 110, "channel": 0}, {"type": "note_on", "time": 17, "note": 72, "velocity": 117, "channel": 0}, {"type": "note_off", "time": 94, "note": 72, "velocity": 117, "channel": 0}, {"type": "note_on", "time": 12, "note": 70, "velocity": 114, "channel": 0}, {"type": "note_off", "time": 69, "note": 70, "velocity": 114, "channel": 0}, {"type": "note_on", "time": 19, "note": 68, "velocity": 109, "channel": 0}, {"type": "note_off", "time": 94, "note": 68, "velocity": 109, "channel": 0}, {"type": "note_on", "time": 73, "note": 65, "velocity": 106, "channel": 0}, {"type": "note_off", "time": 43, "note": 65, "velocity": 106, "channel": 0}, {"type": "note_on", "time": 6, "note": 70, "velocity": 115, "channel": 0}, {"type": "note_off", "time": 71, "note": 70, "velocity": 115, "channel": 0}, {"type": "note_on", "time": 13, "note": 69, "velocity": 116, "channel": 0}, {"type": "note_off", "time": 81, "note": 69, "velocity": 116, "channel": 0}, {"type": "note_on", "time": 6, "note": 68, "velocity": 109, "channel": 0}, {"type": "note_off", "time": 69, "note": 68, "velocity": 109, "channel": 0}, {"type": "note_on", "time": 33, "note": 63, "velocity": 106, "channel": 0}, {"type": "note_off", "time": 80, "note": 63, "velocity": 106, "channel": 0}, {"type": "note_on", "time": 5, "note": 60, "velocity": 104, "channel": 0}, {"type": "note_off", "time": 73, "note": 60, "velocity": 104, "channel": 0}, {"type": "note_on", "time": 27, "note": 65, "velocity": 109, "channel": 0}, {"type": "note_off", "time": 76, "note": 65, "velocity": 109, "channel": 0}, {"type": "note_on", "time": 3, "note": 63, "velocity": 108, "channel": 0}, {"type": "note_off", "time": 291, "note": 63, "velocity": 108, "channel": 0}, {"type": "note_on", "time": 33, "note": 65, "velocity": 105, "channel": 0}, {"type": "note_off", "time": 76, "note": 65, "velocity": 105, "channel": 0}, {"type": "note_on", "time": 5, "note": 68, "velocity": 116, "channel": 0}, {"type": "note_off", "time": 308, "note": 68, "velocity": 116, "channel": 0}, {"type": "note_on", "time": 31, "note": 65, "velocity": 97, "channel": 0}, {"type": "note_off", "time": 52, "note": 65, "velocity": 97, "channel": 0}, {"type": "note_on", "time": 1, "note": 70, "velocity": 111, "channel": 0}, {"type": "note_off", "time": 92, "note": 70, "velocity": 111, "channel": 0}, {"type": "note_on", "time": 0, "note": 69, "velocity": 111, "channel": 0}, {"type": "note_off", "time": 88, "note": 69, "velocity": 111, "channel": 0}, {"type": "note_on", "time": 15, "note": 68, "velocity": 110, "channel": 0}, {"type": "note_off", "time": 80, "note": 68, "velocity": 110, "channel": 0}, {"type": "note_on", "time": 10, "note": 63, "velocity": 102, "channel": 0}, {"type": "note_off", "time": 87, "note": 63, "velocity": 102, "channel": 0}, {"type": "note_on", "time": 17, "note": 60, "velocity": 93, "channel": 0}, {"type": "note_off", "time": 80, "note": 60, "velocity": 93, "channel": 0}, {"type": "note_on", "time": 10, "note": 65, "velocity": 106, "channel": 0}, {"type": "note_off", "time": 95, "note": 65, "velocity": 106, "channel": 0}, {"type": "note_on", "time": 6, "note": 63, "velocity": 102, "channel": 0}, {"type": "note_off", "time": 57, "note": 63, "velocity": 102, "channel": 0}, {"type": "note_on", "time": 3, "note": 65, "velocity": 102, "channel": 0}, {"type": "note_off", "time": 102, "note": 65, "velocity": 102, "channel": 0}, {"type": "note_on", "time": 1, "note": 67, "velocity": 110, "channel": 0}, {"type": "note_off", "time": 85, "note": 67, "velocity": 110, "channel": 0}, {"type": "note_on", "time": 8, "note": 69, "velocity": 106, "channel": 0}, {"type": "note_off", "time": 83, "note": 69, "velocity": 106, "channel": 0}, {"type": "note_on", "time": 15, "note": 70, "velocity": 108, "channel": 0}, {"type": "note_off", "time": 55, "note": 70, "velocity": 108, "channel": 0}, {"type": "note_on", "time": 19, "note": 72, "velocity": 117, "channel": 0}, {"type": "note_off", "time": 88, "note": 72, "velocity": 117, "channel": 0}, {"type": "note_on", "time": 8, "note": 74, "velocity": 119, "channel": 0}, {"type": "note_off", "time": 66, "note": 74, "velocity": 119, "channel": 0}, {"type": "note_on", "time": 38, "note": 74, "velocity": 116, "channel": 0}, {"type": "note_off", "time": 94, "note": 74, "velocity": 116, "channel": 0}, {"type": "note_on", "time": 13, "note": 74, "velocity": 113, "channel": 0}, {"type": "note_off", "time": 64, "note": 74, "velocity": 113, "channel": 0}, {"type": "note_on", "time": 43, "note": 74, "velocity": 116, "channel": 0}, {"type": "note_off", "time": 69, "note": 74, "velocity": 116, "channel": 0}, {"type": "note_on", "time": 15, "note": 74, "velocity": 111, "channel": 0}, {"type": "note_off", "time": 48, "note": 74, "velocity": 111, "channel": 0}, {"type": "note_on", "time": 43, "note": 74, "velocity": 115, "channel": 0}, {"type": "note_off", "time": 80, "note": 74, "velocity": 115, "channel": 0}, {"type": "note_on", "time": 12, "note": 74, "velocity": 110, "channel": 0}, {"type": "note_off", "time": 66, "note": 74, "velocity": 110, "channel": 0}, {"type": "note_on", "time": 41, "note": 74, "velocity": 111, "channel": 0}, {"type": "note_off", "time": 33, "note": 74, "velocity": 111, "channel": 0}, {"type": "note_on", "time": 10, "note": 74, "velocity": 116, "channel": 0}, {"type": "note_off", "time": 95, "note": 74, "velocity": 116, "channel": 0}, {"type": "note_on", "time": 12, "note": 70, "velocity": 105, "channel": 0}, {"type": "note_off", "time": 45, "note": 70, "velocity": 105, "channel": 0}, {"type": "note_on", "time": 40, "note": 67, "velocity": 101, "channel": 0}, {"type": "note_off", "time": 83, "note": 67, "velocity": 101, "channel": 0}, {"type": "end_of_track", "time": 0}]]}