{"ticks_per_beat": 192, "tracks": [[{"type": "track_name", "name": "Melody", "time": 0}, {"type": "set_tempo", "tempo": 237154, "time": 0}, {"type": "key_signature", "key": "F", "time": 0}, {"type": "time_signature", "numerator": 4, "denominator": 4, "clocks_per_click": 24, "notated_32nd_notes_per_beat": 8, "time": 0}, {"type": "note_on", "time": 2709, "note": 65, "velocity": 113, "channel": 0}, {"type": "note_off", "time": 76, "note": 65, "velocity": 113, "channel": 0}, {"type": "note_on", "time": 10, "note": 64, "velocity": 110, "channel": 0}, {"type": "note_off", "time": 67, "note": 64, "velocity": 110, "channel": 0}, {"type": "note_on", "time": 19, "note": 63, "velocity": 100, "channel": 0}, {"type": "note_off", "time": 78, "note": 63, "velocity": 100, "channel": 0}, {"type": "note_on", "time": 0, "note": 65, "velocity": 114, "channel": 0}, {"type": "note_off", "time": 89, "note": 65, "velocity": 114, "channel": 0}, {"type": "note_on", "time": 14, "note": 66, "velocity": 113, "channel": 0}, {"type": "note_off", "time": 77, "note": 66, "velocity": 113, "channel": 0}, {"type": "note_on", "time": 9, "note": 68, "velocity": 121, "channel": 0}, {"type": "note_off", "time": 88, "note": 68, "velocity": 121, "channel": 0}, {"type": "note_on", "time": 7, "note": 69, "velocity": 115, "channel": 0}, {"type": "note_off", "time": 89, "note": 69, "velocity": 115, "channel": 0}, {"type": "note_on", "time": 6, "note": 71, "velocity": 120, "channel": 0}, {"type": "note_off", "time": 94, "note": 71, "velocity": 120, "channel": 0}, {"type": "note_on", "time": 7, "note": 73, "velocity": 121, "channel": 0}, {"type": "note_off", "time": 89, "note": 73, "velocity": 121, "channel": 0}, {"type": "note_on", "time": 3, "note": 76, "velocity": 120, "channel": 0}, {"type": "note_off", "time": 91, "note": 76, "velocity": 120, "channel": 0}, {"type": "note_on", "time": 14, "note": 75, "velocity": 118, "channel": 0}, {"type": "note_off", "time": 70, "note": 75, "velocity": 118, "channel": 0}, {"type": "note_on", "time": 9, "note": 73, "velocity": 121, "channel": 0}, {"type": "note_off", "time": 97, "note": 73, "velocity": 121, "channel": 0}, {"type": "note_on", "time": 13, "note": 71, "velocity": 119, "channel": 0}, {"type": "note_off", "time": 99, "note": 71, "velocity": 119, "channel": 0}, {"type": "note_on", "time": 17, "note": 69, "velocity": 86, "channel": 0}, {"type": "note_off", "time": 55, "note": 69, "velocity": 86, "channel": 0}, {"type": "note_on", "time": 3, "note": 74, "velocity": 123, "channel": 0}, {"type": "note_off", "time": 154, "note": 74, "velocity": 123, "channel": 0}, {"type": "note_on", "time": 80, "note": 71, "velocity": 119, "channel": 0}, {"type": "note_off", "time": 190, "note": 71, "velocity": 119, "channel": 0}, {"type": "note_on", "time": 29, "note": 74, "velocity": 121, "channel": 0}, {"type": "note_off", "time": 112, "note": 74, "velocity": 121, "channel": 0}, {"type": "note_on", "time": 18, "note": 69, "velocity": 105, "channel": 0}, {"type": "note_off", "time": 57, "note": 69, "velocity": 105, "channel": 0}, {"type": "note_on", "time": 176, "note": 69, "velocity": 107, "channel": 0}, {"type": "note_off", "time": 42, "note": 69, "velocity": 107, "channel": 0}, {"type": "note_on", "time": 589, "note": 75, "velocity": 120, "channel": 0}, {"type": "note_off", "time": 91, "note": 75, "velocity": 120, "channel": 0}, {"type": "note_on", "time": 6, "note": 73, "velocity": 110, "channel": 0}, {"type": "note_off", "time": 90, "note": 73, "velocity": 110, "channel": 0}, {"type": "note_on", "time": 19, "note": 72, "velocity": 112, "channel": 0}, {"type": "note_off", "time": 76, "note": 72, "velocity": 112, "channel": 0}, {"type": "note_on", "time": 22, "note": 70, "velocity": 110, "channel": 0}, {"type": "note_off", "time": 80, "note": 70, "velocity": 110, "channel": 0}, {"type": "note_on", "time": 26, "note": 69, "velocity": 115, "channel": 0}, {"type": "note_off", "time": 180, "note": 69, "velocity": 115, "channel": 0}, {"type": "note_on", "time": 14, "note": 70, "velocity": 107, "channel": 0}, {"type": "note_off", "time": 69, "note": 70, "velocity": 107, "channel": 0}, {"type": "note_on", "time": 20, "note": 72, "velocity": 101, "channel": 0}, {"type": "note_off", "time": 86, "note": 72, "velocity": 101, "channel": 0}, {"type": "note_on", "time": 10, "note": 67, "velocity": 107, "channel": 0}, {"type": "note_off", "time": 80, "note": 67, "velocity": 107, "channel": 0}, {"type": "note_on", "time": 1244, "note": 72, "velocity": 110, "channel": 0}, {"type": "note_off", "time": 65, "note": 72, "velocity": 110, "channel": 0}, {"type": "note_on", "time": 9, "note": 74, "velocity": 117, "channel": 0}, {"type": "note_off", "time": 95, "note": 74, "velocity": 117, "channel": 0}, {"type": "note_on", "time": 14, "note": 76, "velocity": 114, "channel": 0}, {"type": "note_off", "time": 72, "note": 76, "velocity": 114, "channel": 0}, {"type": "note_on", "time": 14, "note": 79, "velocity": 115, "channel": 0}, {"type": "note_off", "time": 88, "note": 79, "velocity": 115, "channel": 0}, {"type": "note_on", "time": 21, "note": 77, "velocity": 118, "channel": 0}, {"type": "note_off", "time": 70, "note": 77, "velocity": 118, "channel": 0}, {"type": "note_on", "time": 12, "note": 76, "velocity": 118, "channel": 0}, {"type": "note_off", "time": 121, "note": 76, "velocity": 118, "channel": 0}, {"type": "note_on", "time": 33, "note": 70, "velocity": 102, "channel": 0}, {"type": "note_off", "time": 32, "note": 70, "velocity": 102, "channel": 0}, {"type": "note_on", "time": 15, "note": 77, "velocity": 118, "channel": 0}, {"type": "note_off", "time": 85, "note": 77, "velocity": 118, "channel": 0}, {"type": "note_on", "time": 14, "note": 75, "velocity": 121, "channel": 0}, {"type": "note_off", "time": 84, "note": 75, "velocity": 121, "channel": 0}, {"type": "note_on", "time": 33, "note": 70, "velocity": 114, "channel": 0}, {"type": "note_off", "time": 129, "note": 70, "velocity": 114, "channel": 0}, {"type": "note_on", "time": 26, "note": 68, "velocity": 99, "channel": 0}, {"type": "note_off", "time": 21, "note": 68, "velocity": 99, "channel": 0}, {"type": "note_on", "time": 13, "note": 75, "velocity": 119, "channel": 0}, {"type": "note_off", "time": 78, "note": 75, "velocity": 119, "channel": 0}, {"type": "note_on", "time": 15, "note": 73, "velocity": 118, "channel": 0}, {"type": "note_off", "time": 81, "note": 73, "velocity": 118, "channel": 0}, {"type": "note_on", "time": 12, "note": 68, "velocity": 117, "channel": 0}, {"type": "note_off", "time": 90, "note": 68, "velocity": 117, "channel": 0}, {"type": "note_on", "time": 56, "note": 73, "velocity": 119, "channel": 0}, {"type": "note_off", "time": 57, "note": 73, "velocity": 119, "channel": 0}, {"type": "note_on", "time": 15, "note": 70, "velocity": 115, "channel": 0}, {"type": "note_off", "time": 78, "note": 70, "velocity": 115, "channel": 0}, {"type": "note_on", "time": 107, "note": 71, "velocity": 105, "channel": 0}, {"type": "note_off", "time": 81, "note": 71, "velocity": 105, "channel": 0}, {"type": "note_on", "time": 25, "note": 71, "velocity": 118, "channel": 0}, {"type": "note_off", "time": 80, "note": 71, "velocity": 118, "channel": 0}, {"type": "note_on", "time": 8, "note": 73, "velocity": 114, "channel": 0}, {"type": "note_off", "time": 62, "note": 73, "velocity": 114, "channel": 0}, {"type": "note_on", "time": 9, "note": 76, "velocity": 121, "channel": 0}, {"type": "note_off", "time": 89, "note": 76, "velocity": 121, "channel": 0}, {"type": "note_on", "time": 7, "note": 75, "velocity": 119, "channel": 0}, {"type": "note_off", "time": 71, "note": 75, "velocity": 119, "channel": 0}, {"type": "note_on", "time": 17, "note": 73, "velocity": 119, "channel": 0}, {"type": "note_off", "time": 87, "note": 73, "velocity": 119, "channel": 0}, {"type": "note_on", "time": 13, "note": 71, "velocity": 116, "channel": 0}, {"type": "note_off", "time": 51, "note": 71, "velocity": 116, "channel": 0}, {"type": "note_on", "time": 106, "note": 70, "velocity": 105, "channel": 0}, {"type": "note_off", "time": 27, "note": 70, "velocity": 105, "channel": 0}, {"type": "note_on", "time": 12, "note": 73, "velocity": 119, "channel": 0}, {"type": "note_off", "time": 97, "note": 73, "velocity": 119, "channel": 0}, {"type": "note_on", "time": 11, "note": 71, "velocity": 106, "channel": 0}, {"type": "note_off", "time": 72, "note": 71, "velocity": 106, "channel": 0}, {"type": "note_on", "time": 10, "note": 72, "velocity": 118, "channel": 0}, {"type": "note_off", "time": 64, "note": 72, "velocity": 118, "channel": 0}, {"type": "note_on", "time": 66, "note": 64, "velocity": 108, "channel": 0}, {"type": "note_off", "time": 71, "note": 64, "velocity": 108, "channel": 0}, {"type": "note_on", "time": 13, "note": 65, "velocity": 101, "channel": 0}, {"type": "note_off", "time": 73, "note": 65, "velocity": 101, "channel": 0}, {"type": "note_on", "time": 32, "note": 70, "velocity": 116, "channel": 0}, {"type": "note_off", "time": 67, "note": 70, "velocity": 116, "channel": 0}, {"type": "note_on", "time": 15, "note": 67, "velocity": 112, "channel": 0}, {"type": "note_off", "time": 81, "note": 67, "velocity": 112, "channel": 0}, {"type": "note_on", "time": 18, "note": 68, "velocity": 116, "channel": 0}, {"type": "note_off", "time": 60, "note": 68, "velocity": 116, "channel": 0}, {"type": "note_on", "time": 19, "note": 69, "velocity": 117, "channel": 0}, {"type": "note_off", "time": 86, "note": 69, "velocity": 117, "channel": 0}, {"type": "note_on", "time": 41, "note": 65, "velocity": 107, "channel": 0}, {"type": "note_off", "time": 74, "note": 65, "velocity": 107, "channel": 0}, {"type": "note_on", "time": 35, "note": 63, "velocity": 104, "channel": 0}, {"type": "note_off", "time": 56, "note": 63, "velocity": 104, "channel": 0}, {"type": "note_on", "time": 95, "note": 65, "velocity": 114, "channel": 0}, {"type": "note_off", "time": 604, "note": 65, "velocity": 114, "channel": 0}, {"type": "note_on", "time": 59, "note": 67, "velocity": 113, "channel": 0}, {"type": "note_off", "time": 83, "note": 67, "velocity": 113, "channel": 0}, {"type": "note_on", "time": 45, "note": 64, "velocity": 108, "channel": 0}, {"type": "note_off", "time": 38, "note": 64, "velocity": 108, "channel": 0}, {"type": "note_on", "time": 5, "note": 65, "velocity": 104, "channel": 0}, {"type": "note_off", "time": 76, "note": 65, "velocity": 104, "channel": 0}, {"type": "note_on", "time": 49, "note": 67, "velocity": 117, "channel": 0}, {"type": "note_off", "time": 56, "note": 67, "velocity": 117, "channel": 0}, {"type": "note_on", "time": 19, "note": 69, "velocity": 116, "channel": 0}, {"type": "note_off", "time": 74, "note": 69, "velocity": 116, "channel": 0}, {"type": "note_on", "time": 24, "note": 65, "velocity": 97, "channel": 0}, {"type": "note_off", "time": 37, "note": 65, "velocity": 97, "channel": 0}, {"type": "note_on", "time": 1033, "note": 76, "velocity": 113, "channel": 0}, {"type": "note_off", "time": 84, "note": 76, "velocity": 113, "channel": 0}, {"type": "note_on", "time": 15, "note": 74, "velocity": 118, "channel": 0}, {"type": "note_off", "time": 72, "note": 74, "velocity": 118, "channel": 0}, {"type": "note_on", "time": 14, "note": 73, "velocity": 119, "channel": 0}, {"type": "note_off", "time": 103, "note": 73, "velocity": 119, "channel": 0}, {"type": "note_on", "time": 77, "note": 74, "velocity": 118, "channel": 0}, {"type": "note_off", "time": 118, "note": 74, "velocity": 118, "channel": 0}, {"type": "note_on", "time": 5, "note": 69, "velocity": 94, "channel": 0}, {"type": "note_off", "time": 65, "note": 69, "velocity": 94, "channel": 0}, {"type": "note_on", "time": 626, "note": 76, "velocity": 119, "channel": 0}, {"type": "note_off", "time": 75, "note": 76, "velocity": 119, "channel": 0}, {"type": "note_on", "time": 35, "note": 78, "velocity": 120, "channel": 0}, {"type": "note_off", "time": 59, "note": 78, "velocity": 120, "channel": 0}, {"type": "note_on", "time": 26, "note": 78, "velocity": 119, "channel": 0}, {"type": "note_off", "time": 32, "note": 78, "velocity": 119, "channel": 0}, {"type": "note_on", "time": 11, "note": 76, "velocity": 108, "channel": 0}, {"type": "note_off", "time": 31, "note": 76, "velocity": 108, "channel": 0}, {"type": "note_on", "time": 11, "note": 74, "velocity": 114, "channel": 0}, {"type": "note_off", "time": 82, "note": 74, "velocity": 114, "channel": 0}, {"type": "note_on", "time": 15, "note": 73, "velocity": 119, "channel": 0}, {"type": "note_off", "time": 75, "note": 73, "velocity": 119, "channel": 0}, {"type": "note_on", "time": 34, "note": 71, "velocity": 115, "channel": 0}, {"type": "note_off", "time": 68, "note": 71, "velocity": 115, "channel": 0}, {"type": "note_on", "time": 17, "note": 70, "velocity": 113, "channel": 0}, {"type": "note_off", "time": 59, "note": 70, "velocity": 113, "channel": 0}, {"type": "note_on", "time": 22, "note": 73, "velocity": 117, "channel": 0}, {"type": "note_off", "time": 76, "note": 73, "velocity": 117, "channel": 0}, {"type": "note_on", "time": 16, "note": 71, "velocity": 117, "channel": 0}, {"type": "note_off", "time": 76, "note": 71, "velocity": 117, "channel": 0}, {"type": "note_on", "time": 81, "note": 69, "velocity": 114, "channel": 0}, {"type": "note_off", "time": 98, "note": 69, "velocity": 114, "channel": 0}, {"type": "note_on", "time": 24, "note": 71, "velocity": 115, "channel": 0}, {"type": "note_off", "time": 66, "note": 71, "velocity": 115, "channel": 0}, {"type": "note_on", "time": 12, "note": 68, "velocity": 116, "channel": 0}, {"type": "note_off", "time": 90, "note": 68, "velocity": 116, "channel": 0}, {"type": "note_on", "time": 27, "note": 66, "velocity": 114, "channel": 0}, {"type": "note_off", "time": 59, "note": 66, "velocity": 114, "channel": 0}, {"type": "note_on", "time": 49, "note": 64, "velocity": 113, "channel": 0}, {"type": "note_off", "time": 63, "note": 64, "velocity": 113, "channel": 0}, {"type": "note_on", "time": 91, "note": 62, "velocity": 115, "channel": 0}, {"type": "note_off", "time": 105, "note": 62, "velocity": 115, "channel": 0}, {"type": "note_on", "time": 105, "note": 64, "velocity": 118, "channel": 0}, {"type": "note_off", "time": 88, "note": 64, "velocity": 118, "channel": 0}, {"type": "note_on", "time": 126, "note": 65, "velocity": 118, "channel": 0}, {"type": "note_off", "time": 66, "note": 65, "velocity": 118, "channel": 0}, {"type": "note_on", "time": 26, "note": 67, "velocity": 118, "channel": 0}, {"type": "note_off", "time": 78, "note": 67, "velocity": 118, "channel": 0}, {"type": "note_on", "time": 11, "note": 68, "velocity": 116, "channel": 0}, {"type": "note_off", "time": 78, "note": 68, "velocity": 116, "channel": 0}, {"type": "note_on", "time": 35, "note": 69, "velocity": 119, "channel": 0}, {"type": "note_off", "time": 68, "note": 69, "velocity": 119, "channel": 0}, {"type": "note_on", "time": 18, "note": 70, "velocity": 116, "channel": 0}, {"type": "note_off", "time": 65, "note": 70, "velocity": 116, "channel": 0}, {"type": "note_on", "time": 32, "note": 69, "velocity": 117, "channel": 0}, {"type": "note_off", "time": 81, "note": 69, "velocity": 117, "channel": 0}, {"type": "note_on", "time": 16, "note": 68, "velocity": 114, "channel": 0}, {"type": "note_off", "time": 68, "note": 68, "velocity": 114, "channel": 0}, {"type": "note_on", "time": 12, "note": 70, "velocity": 119, "channel": 0}, {"type": "note_off", "time": 81, "note": 70, "velocity": 119, "channel": 0}, {"type": "note_on", "time": 14, "note": 71, "velocity": 116, "channel": 0}, {"type": "note_off", "time": 71, "note": 71, "velocity": 116, "channel": 0}, {"type": "note_on", "time": 15, "note": 73, "velocity": 122, "channel": 0}, {"type": "note_off", "time": 76, "note": 73, "velocity": 122, "channel": 0}, {"type": "note_on", "time": 12, "note": 75, "velocity": 122, "channel": 0}, {"type": "note_off", "time": 79, "note": 75, "velocity": 122, "channel": 0}, {"type": "note_on", "time": 25, "note": 71, "velocity": 117, "channel": 0}, {"type": "note_off", "time": 89, "note": 71, "velocity": 117, "channel": 0}, {"type": "note_on", "time": 11, "note": 70, "velocity": 117, "channel": 0}, {"type": "note_off", "time": 94, "note": 70, "velocity": 117, "channel": 0}, {"type": "note_on", "time": 92, "note": 73, "velocity": 120, "channel": 0}, {"type": "note_off", "time": 79, "note": 73, "velocity": 120, "channel": 0}, {"type": "note_on", "time": 5, "note": 70, "velocity": 115, "channel": 0}, {"type": "note_off", "time": 85, "note": 70, "velocity": 115, "channel": 0}, {"type": "note_on", "time": 11, "note": 66, "velocity": 110, "channel": 0}, {"type": "note_off", "time": 102, "note": 66, "velocity": 110, "channel": 0}, {"type": "note_on", "time": 26, "note": 71, "velocity": 117, "channel": 0}, {"type": "note_off", "time": 75, "note": 71, "velocity": 117, "channel": 0}, {"type": "note_on", "time": 14, "note": 68, "velocity": 115, "channel": 0}, {"type": "note_off", "time": 73, "note": 68, "velocity": 115, "channel": 0}, {"type": "note_on", "time": 90, "note": 69, "velocity": 114, "channel": 0}, {"type": "note_off", "time": 74, "note": 69, "velocity": 114, "channel": 0}, {"type": "note_on", "time": 19, "note": 68, "velocity": 117, "channel": 0}, {"type": "note_off", "time": 78, "note": 68, "velocity": 117, "channel": 0}, {"type": "note_on", "time": 7, "note": 67, "velocity": 100, "channel": 0}, {"type": "note_off", "time": 28, "note": 67, "velocity": 100, "channel": 0}, {"type": "note_on", "time": 17, "note": 64, "velocity": 115, "channel": 0}, {"type": "note_off", "time": 73, "note": 64, "velocity": 115, "channel": 0}, {"type": "note_on", "time": 120, "note": 66, "velocity": 117, "channel": 0}, {"type": "note_off", "time": 94, "note": 66, "velocity": 117, "channel": 0}, {"type": "note_on", "time": 100, "note": 67, "velocity": 115, "channel": 0}, {"type": "note_off", "time": 456, "note": 67, "velocity": 115, "channel": 0}, {"type": "note_on", "time": 52, "note": 65, "velocity": 117, "channel": 0}, {"type": "note_off", "time": 56, "note": 65, "velocity": 117, "channel": 0}, {"type": "note_on", "time": 13, "note": 64, "velocity": 116, "channel": 0}, {"type": "note_off", "time": 64, "note": 64, "velocity": 116, "channel": 0}, {"type": "note_on", "time": 21, "note": 62, "velocity": 112, "channel": 0}, {"type": "note_off", "time": 47, "note": 62, "velocity": 112, "channel": 0}, {"type": "note_on", "time": 42, "note": 60, "velocity": 110, "channel": 0}, {"type": "note_off", "time": 72, "note": 60, "velocity": 110, "channel": 0}, {"type": "note_on", "time": 41, "note": 58, "velocity": 116, "channel": 0}, {"type": "note_off", "time": 33, "note": 58, "velocity": 116, "channel": 0}, {"type": "note_on", "time": 17, "note": 57, "velocity": 115, "channel": 0}, {"type": "note_off", "time": 81, "note": 57, "velocity": 115, "channel": 0}, {"type": "note_on", "time": 68, "note": 61, "velocity": 113, "channel": 0}, {"type": "note_off", "time": 55, "note": 61, "velocity": 113, "channel": 0}, {"type": "note_on", "time": 8, "note": 62, "velocity": 115, "channel": 0}, {"type": "note_off", "time": 28, "note": 62, "velocity": 115, "channel": 0}, {"type": "note_on", "time": 5, "note": 63, "velocity": 116, "channel": 0}, {"type": "note_off", "time": 34, "note": 63, "velocity": 116, "channel": 0}, {"type": "note_on", "time": 8, "note": 65, "velocity": 119, "channel": 0}, {"type": "note_off", "time": 53, "note": 65, "velocity": 119, "channel": 0}, {"type": "note_on", "time": 9, "note": 67, "velocity": 121, "channel": 0}, {"type": "note_off", "time": 35, "note": 67, "velocity": 121, "channel": 0}, {"type": "note_on", "time": 5, "note": 68, "velocity": 116, "channel": 0}, {"type": "note_off", "time": 32, "note": 68, "velocity": 116, "channel": 0}, {"type": "note_on", "time": 9, "note": 70, "velocity": 117, "channel": 0}, {"type": "note_off", "time": 37, "note": 70, "velocity": 117, "channel": 0}, {"type": "note_on", "time": 6, "note": 72, "velocity": 119, "channel": 0}, {"type": "note_off", "time": 51, "note": 72, "velocity": 119, "channel": 0}, {"type": "note_on", "time": 7, "note": 74, "velocity": 121, "channel": 0}, {"type": "note_off", "time": 48, "note": 74, "velocity": 121, "channel": 0}, {"type": "note_on", "time": 5, "note": 75, "velocity": 118, "channel": 0}, {"type": "note_off", "time": 43, "note": 75, "velocity": 118, "channel": 0}, {"type": "note_on", "time": 4, "note": 77, "velocity": 116, "channel": 0}, {"type": "note_off", "time": 50, "note": 77, "velocity": 116, "channel": 0}, {"type": "note_on", "time": 2178, "note": 74, "velocity": 118, "channel": 0}, {"type": "note_off", "time": 114, "note": 74, "velocity": 118, "channel": 0}, {"type": "note_on", "time": 23, "note": 77, "velocity": 116, "channel": 0}, {"type": "note_off", "time": 77, "note": 77, "velocity": 116, "channel": 0}, {"type": "note_on", "time": 14, "note": 77, "velocity": 105, "channel": 0}, {"type": "note_off", "time": 74, "note": 77, "velocity": 105, "channel": 0}, {"type": "note_on", "time": 1293, "note": 74, "velocity": 120, "channel": 0}, {"type": "note_off", "time": 76, "note": 74, "velocity": 120, "channel": 0}, {"type": "note_on", "time": 20, "note": 77, "velocity": 117, "channel": 0}, {"type": "note_off", "time": 80, "note": 77, "velocity": 117, "channel": 0}, {"type": "note_on", "time": 15, "note": 77, "velocity": 111, "channel": 0}, {"type": "note_off", "time": 76, "note": 77, "velocity": 111, "channel": 0}, {"type": "note_on", "time": 1285, "note": 77, "velocity": 117, "channel": 0}, {"type": "note_off", "time": 73, "note": 77, "velocity": 117, "channel": 0}, {"type": "note_on", "time": 24, "note": 81, "velocity": 118, "channel": 0}, {"type": "note_off", "time": 86, "note": 81, "velocity": 118, "channel": 0}, {"type": "note_on", "time": 19, "note": 82, "velocity": 119, "channel": 0}, {"type": "note_off", "time": 86, "note": 82, "velocity": 119, "channel": 0}, {"type": "note_on", "time": 5, "note": 81, "velocity": 123, "channel": 0}, {"type": "note_off", "time": 75, "note": 81, "velocity": 123, "channel": 0}, {"type": "note_on", "time": 9, "note": 80, "velocity": 127, "channel": 0}, {"type": "note_off", "time": 96, "note": 80, "velocity": 127, "channel": 0}, {"type": "note_on", "time": 17, "note": 81, "velocity": 116, "channel": 0}, {"type": "note_off", "time": 62, "note": 81, "velocity": 116, "channel": 0}, {"type": "note_on", "time": 11, "note": 82, "velocity": 119, "channel": 0}, {"type": "note_off", "time": 101, "note": 82, "velocity": 119, "channel": 0}, {"type": "note_on", "time": 6, "note": 83, "velocity": 118, "channel": 0}, {"type": "note_off", "time": 69, "note": 83, "velocity": 118, "channel": 0}, {"type": "note_on", "time": 14, "note": 82, "velocity": 121, "channel": 0}, {"type": "note_off", "time": 90, "note": 82, "velocity": 121, "channel": 0}, {"type": "note_on", "time": 14, "note": 81, "velocity": 122, "channel": 0}, {"type": "note_off", "time": 65, "note": 81, "velocity": 122, "channel": 0}, {"type": "note_on", "time": 8, "note": 82, "velocity": 119, "channel": 0}, {"type": "note_off", "time": 179, "note": 82, "velocity": 119, "channel": 0}, {"type": "note_on", "time": 9, "note": 81, "velocity": 116, "channel": 0}, {"type": "note_off", "time": 89, "note": 81, "velocity": 116, "channel": 0}, {"type": "note_on", "time": 908, "note": 79, "velocity": 121, "channel": 0}, {"type": "note_off", "time": 76, "note": 79, "velocity": 121, "channel": 0}, {"type": "note_on", "time": 13, "note": 81, "velocity": 120, "channel": 0}, {"type": "note_off", "time": 98, "note": 81, "velocity": 120, "channel": 0}, {"type": "note_on", "time": 5, "note": 79, "velocity": 111, "channel": 0}, {"type": "note_off", "time": 55, "note": 79, "velocity": 111, "channel": 0}, {"type": "note_on", "time": 6, "note": 77, "velocity": 117, "channel": 0}, {"type": "note_off", "time": 82, "note": 77, "velocity": 117, "channel": 0}, {"type": "note_on", "time": 7, "note": 76, "velocity": 116, "channel": 0}, {"type": "note_off", "time": 84, "note": 76, "velocity": 116, "channel": 0}, {"type": "note_on", "time": 7, "note": 74, "velocity": 117, "channel": 0}, {"type": "note_off", "time": 81, "note": 74, "velocity": 117, "channel": 0}, {"type": "note_on", "time": 12, "note": 72, "velocity": 116, "channel": 0}, {"type": "note_off", "time": 65, "note": 72, "velocity": 116, "channel": 0}, {"type": "note_on", "time": 19, "note": 71, "velocity": 114, "channel": 0}, {"type": "note_off", "time": 72, "note": 71, "velocity": 114, "channel": 0}, {"type": "note_on", "time": 26, "note": 70, "velocity": 113, "channel": 0}, {"type": "note_off", "time": 71, "note": 70, "velocity": 113, "channel": 0}, {"type": "note_on", "time": 15, "note": 69, "velocity": 115, "channel": 0}, {"type": "note_off", "time": 74, "note": 69, "velocity": 115, "channel": 0}, {"type": "note_on", "time": 15, "note": 67, "velocity": 116, "channel": 0}, {"type": "note_off", "time": 88, "note": 67, "velocity": 116, "channel": 0}, {"type": "note_on", "time": 32, "note": 69, "velocity": 117, "channel": 0}, {"type": "note_off", "time": 65, "note": 69, "velocity": 117, "channel": 0}, {"type": "note_on", "time": 12, "note": 70, "velocity": 113, "channel": 0}, {"type": "note_off", "time": 81, "note": 70, "velocity": 113, "channel": 0}, {"type": "note_on", "time": 27, "note": 72, "velocity": 118, "channel": 0}, {"type": "note_off", "time": 66, "note": 72, "velocity": 118, "channel": 0}, {"type": "note_on", "time": 7, "note": 74, "velocity": 115, "channel": 0}, {"type": "note_off", "time": 76, "note": 74, "velocity": 115, "channel": 0}, {"type": "note_on", "time": 11, "note": 77, "velocity": 120, "channel": 0}, {"type": "note_off", "time": 74, "note": 77, "velocity": 120, "channel": 0}, {"type": "note_on", "time": 35, "note": 76, "velocity": 115, "channel": 0}, {"type": "note_off", "time": 53, "note": 76, "velocity": 115, "channel": 0}, {"type": "note_on", "time": 11, "note": 75, "velocity": 116, "channel": 0}, {"type": "note_off", "time": 41, "note": 75, "velocity": 116, "channel": 0}, {"type": "note_on", "time": 12, "note": 74, "velocity": 118, "channel": 0}, {"type": "note_off", "time": 64, "note": 74, "velocity": 118, "channel": 0}, {"type": "note_on", "time": 12, "note": 73, "velocity": 116, "channel": 0}, {"type": "note_off", "time": 75, "note": 73, "velocity": 116, "channel": 0}, {"type": "note_on", "time": 12, "note": 76, "velocity": 116, "channel": 0}, {"type": "note_off", "time": 106, "note": 76, "velocity": 116, "channel": 0}, {"type": "note_on", "time": 8, "note": 74, "velocity": 115, "channel": 0}, {"type": "note_off", "time": 68, "note": 74, "velocity": 115, "channel": 0}, {"type": "note_on", "time": 56, "note": 70, "velocity": 90, "channel": 0}, {"type": "note_off", "time": 43, "note": 70, "velocity": 90, "channel": 0}, {"type": "note_on", "time": 8, "note": 74, "velocity": 117, "channel": 0}, {"type": "note_off", "time": 125, "note": 74, "velocity": 117, "channel": 0}, {"type": "note_on", "time": 7, "note": 72, "velocity": 117, "channel": 0}, {"type": "note_off", "time": 280, "note": 72, "velocity": 117, "channel": 0}, {"type": "note_on", "time": 15, "note": 70, "velocity": 116, "channel": 0}, {"type": "note_off", "time": 125, "note": 70, "velocity": 116, "channel": 0}, {"type": "note_on", "time": 39, "note": 67, "velocity": 102, "channel": 0}, {"type": "note_off", "time": 42, "note": 67, "velocity": 102, "channel": 0}, {"type": "note_on", "time": 21, "note": 69, "velocity": 116, "channel": 0}, {"type": "note_off", "time": 64, "note": 69, "velocity": 116, "channel": 0}, {"type": "note_on", "time": 71, "note": 60, "velocity": 105, "channel": 0}, {"type": "note_off", "time": 48, "note": 60, "velocity": 105, "channel": 0}, {"type": "note_on", "time": 14, "note": 65, "velocity": 91, "channel": 0}, {"type": "note_off", "time": 49, "note": 65, "velocity": 91, "channel": 0}, {"type": "note_on", "time": 15, "note": 69, "velocity": 115, "channel": 0}, {"type": "note_off", "time": 63, "note": 69, "velocity": 115, "channel": 0}, {"type": "note_on", "time": 17, "note": 67, "velocity": 115, "channel": 0}, {"type": "note_off", "time": 92, "note": 67, "velocity": 115, "channel": 0}, {"type": "note_on", "time": 113, "note": 70, "velocity": 114, "channel": 0}, {"type": "note_off", "time": 96, "note": 70, "velocity": 114, "channel": 0}, {"type": "note_on", "time": 8, "note": 67, "velocity": 105, "channel": 0}, {"type": "note_off", "time": 71, "note": 67, "velocity": 105, "channel": 0}, {"type": "note_on", "time": 6, "note": 69, "velocity": 116, "channel": 0}, {"type": "note_off", "time": 285, "note": 69, "velocity": 116, "channel": 0}, {"type": "note_on", "time": 19, "note": 72, "velocity": 117, "channel": 0}, {"type": "note_off", "time": 300, "note": 72, "velocity": 117, "channel": 0}, {"type": "note_on", "time": 13, "note": 70, "velocity": 116, "channel": 0}, {"type": "note_off", "time": 113, "note": 70, "velocity": 116, "channel": 0}, {"type": "note_on", "time": 9, "note": 69, "velocity": 117, "channel": 0}, {"type": "note_off", "time": 182, "note": 69, "velocity": 117, "channel": 0}, {"type": "note_on", "time": 12, "note": 72, "velocity": 117, "channel": 0}, {"type": "note_off", "time": 54, "note": 72, "velocity": 117, "channel": 0}, {"type": "note_on", "time": 162, "note": 70, "velocity": 114, "channel": 0}, {"type": "note_off", "time": 275, "note": 70, "velocity": 114, "channel": 0}, {"type": "note_on", "time": 28, "note": 67, "velocity": 101, "channel": 0}, {"type": "note_off", "time": 63, "note": 67, "velocity": 101, "channel": 0}, {"type": "note_on", "time": 18, "note": 69, "velocity": 115, "channel": 0}, {"type": "note_off", "time": 150, "note": 69, "velocity": 115, "channel": 0}, {"type": "note_on", "time": 23, "note": 67, "velocity": 114, "channel": 0}, {"type": "note_off", "time": 126, "note": 67, "velocity": 114, "channel": 0}, {"type": "note_on", "time": 10, "note": 66, "velocity": 115, "channel": 0}, {"type": "note_off", "time": 64, "note": 66, "velocity": 115, "channel": 0}, {"type": "note_on", "time": 123, "note": 63, "velocity": 113, "channel": 0}, {"type": "note_off", "time": 161, "note": 63, "velocity": 113, "channel": 0}, {"type": "note_on", "time": 44, "note": 65, "velocity": 114, "channel": 0}, {"type": "note_off", "time": 65, "note": 65, "velocity": 114, "channel": 0}, {"type": "note_on", "time": 23, "note": 62, "velocity": 110, "channel": 0}, {"type": "note_off", "time": 106, "note": 62, "velocity": 110, "channel": 0}, {"type": "note_on", "time": 102, "note": 64, "velocity": 114, "channel": 0}, {"type": "note_off", "time": 90, "note": 64, "velocity": 114, "channel": 0}, {"type": "note_on", "time": 98, "note": 65, "velocity": 119, "channel": 0}, {"type": "note_off", "time": 109, "note": 65, "velocity": 119, "channel": 0}, {"type": "note_on", "time": 19, "note": 67, "velocity": 113, "channel": 0}, {"type": "note_off", "time": 46, "note": 67, "velocity": 113, "channel": 0}, {"type": "note_on", "time": 10, "note": 69, "velocity": 112, "channel": 0}, {"type": "note_off", "time": 99, "note": 69, "velocity": 112, "channel": 0}, {"type": "note_on", "time": 925, "note": 65, "velocity": 116, "channel": 0}, {"type": "note_off", "time": 59, "note": 65, "velocity": 116, "channel": 0}, {"type": "note_on", "time": 15, "note": 63, "velocity": 101, "channel": 0}, {"type": "note_off", "time": 84, "note": 63, "velocity": 101, "channel": 0}, {"type": "note_on", "time": 23, "note": 65, "velocity": 111, "channel": 0}, {"type": "note_off", "time": 71, "note": 65, "velocity": 111, "channel": 0}, {"type": "note_on", "time": 33, "note": 67, "velocity": 113, "channel": 0}, {"type": "note_off", "time": 74, "note": 67, "velocity": 113, "channel": 0}, {"type": "note_on", "time": 42, "note": 65, "velocity": 106, "channel": 0}, {"type": "note_off", "time": 52, "note": 65, "velocity": 106, "channel": 0}, {"type": "note_on", "time": 39, "note": 62, "velocity": 103, "channel": 0}, {"type": "note_off", "time": 71, "note": 62, "velocity": 103, "channel": 0}, {"type": "note_on", "time": 22, "note": 63, "velocity": 105, "channel": 0}, {"type": "note_off", "time": 41, "note": 63, "velocity": 105, "channel": 0}, {"type": "note_on", "time": 34, "note": 68, "velocity": 115, "channel": 0}, {"type": "note_off", "time": 87, "note": 68, "velocity": 115, "channel": 0}, {"type": "note_on", "time": 13, "note": 69, "velocity": 116, "channel": 0}, {"type": "note_off", "time": 56, "note": 69, "velocity": 116, "channel": 0}, {"type": "note_on", "time": 11, "note": 70, "velocity": 114, "channel": 0}, {"type": "note_off", "time": 60, "note": 70, "velocity": 114, "channel": 0}, {"type": "note_on", "time": 38, "note": 71, "velocity": 115, "channel": 0}, {"type": "note_off", "time": 64, "note": 71, "velocity": 115, "channel": 0}, {"type": "note_on", "time": 11, "note": 72, "velocity": 117, "channel": 0}, {"type": "note_off", "time": 84, "note": 72, "velocity": 117, "channel": 0}, {"type": "note_on", "time": 229, "note": 70, "velocity": 116, "channel": 0}, {"type": "note_off", "time": 61, "note": 70, "velocity": 116, "channel": 0}, {"type": "note_on", "time": 16, "note": 67, "velocity": 109, "channel": 0}, {"type": "note_off", "time": 85, "note": 67, "velocity": 109, "channel": 0}, {"type": "note_on", "time": 19, "note": 68, "velocity": 116, "channel": 0}, {"type": "note_off", "time": 71, "note": 68, "velocity": 116, "channel": 0}, {"type": "note_on", "time": 16, "note": 69, "velocity": 117, "channel": 0}, {"type": "note_off", "time": 65, "note": 69, "velocity": 117, "channel": 0}, {"type": "note_on", "time": 41, "note": 64, "velocity": 102, "channel": 0}, {"type": "note_off", "time": 40, "note": 64, "velocity": 102, "channel": 0}, {"type": "note_on", "time": 24, "note": 67, "velocity": 117, "channel": 0}, {"type": "note_off", "time": 75, "note": 67, "velocity": 117, "channel": 0}, {"type": "note_on", "time": 27, "note": 69, "velocity": 117, "channel": 0}, {"type": "note_off", "time": 70, "note": 69, "velocity": 117, "channel": 0}, {"type": "note_on", "time": 9, "note": 67, "velocity": 116, "channel": 0}, {"type": "note_off", "time": 76, "note": 67, "velocity": 116, "channel": 0}, {"type": "note_on", "time": 23, "note": 65, "velocity": 117, "channel": 0}, {"type": "note_off", "time": 76, "note": 65, "velocity": 117, "channel": 0}, {"type": "note_on", "time": 13, "note": 64, "velocity": 113, "channel": 0}, {"type": "note_off", "time": 218, "note": 64, "velocity": 113, "channel": 0}, {"type": "note_on", "time": 1518, "note": 76, "velocity": 118, "channel": 0}, {"type": "note_off", "time": 88, "note": 76, "velocity": 118, "channel": 0}, {"type": "note_on", "time": 18, "note": 78, "velocity": 117, "channel": 0}, {"type": "note_off", "time": 72, "note": 78, "velocity": 117, "channel": 0}, {"type": "note_on", "time": 10, "note": 76, "velocity": 114, "channel": 0}, {"type": "note_off", "time": 61, "note": 76, "velocity": 114, "channel": 0}, {"type": "note_on", "time": 10, "note": 74, "velocity": 116, "channel": 0}, {"type": "note_off", "time": 76, "note": 74, "velocity": 116, "channel": 0}, {"type": "note_on", "time": 12, "note": 73, "velocity": 117, "channel": 0}, {"type": "note_off", "time": 90, "note": 73, "velocity": 117, "channel": 0}, {"type": "note_on", "time": 28, "note": 71, "velocity": 113, "channel": 0}, {"type": "note_off", "time": 54, "note": 71, "velocity": 113, "channel": 0}, {"type": "note_on", "time": 11, "note": 70, "velocity": 111, "channel": 0}, {"type": "note_off", "time": 91, "note": 70, "velocity": 111, "channel": 0}, {"type": "note_on", "time": 20, "note": 73, "velocity": 118, "channel": 0}, {"type": "note_off", "time": 62, "note": 73, "velocity": 118, "channel": 0}, {"type": "note_on", "time": 8, "note": 71, "velocity": 111, "channel": 0}, {"type": "note_off", "time": 78, "note": 71, "velocity": 111, "channel": 0}, {"type": "note_on", "time": 19, "note": 69, "velocity": 113, "channel": 0}, {"type": "note_off", "time": 90, "note": 69, "velocity": 113, "channel": 0}, {"type": "note_on", "time": 9, "note": 68, "velocity": 118, "channel": 0}, {"type": "note_off", "time": 65, "note": 68, "velocity": 118, "channel": 0}, {"type": "note_on", "time": 23, "note": 66, "velocity": 113, "channel": 0}, {"type": "note_off", "time": 61, "note": 66, "velocity": 113, "channel": 0}, {"type": "note_on", "time": 23, "note": 64, "velocity": 114, "channel": 0}, {"type": "note_off", "time": 90, "note": 64, "velocity": 114, "channel": 0}, {"type": "note_on", "time": 115, "note": 62, "velocity": 116, "channel": 0}, {"type": "note_off", "time": 95, "note": 62, "velocity": 116, "channel": 0}, {"type": "note_on", "time": 90, "note": 64, "velocity": 113, "channel": 0}, {"type": "note_off", "time": 84, "note": 64, "velocity": 113, "channel": 0}, {"type": "note_on", "time": 115, "note": 65, "velocity": 115, "channel": 0}, {"type": "note_off", "time": 90, "note": 65, "velocity": 115, "channel": 0}, {"type": "note_on", "time": 14, "note": 64, "velocity": 116, "channel": 0}, {"type": "note_off", "time": 75, "note": 64, "velocity": 116, "channel": 0}, {"type": "note_on", "time": 20, "note": 63, "velocity": 115, "channel": 0}, {"type": "note_off", "time": 47, "note": 63, "velocity": 115, "channel": 0}, {"type": "note_on", "time": 36, "note": 66, "velocity": 117, "channel": 0}, {"type": "note_off", "time": 48, "note": 66, "velocity": 117, "channel": 0}, {"type": "note_on", "time": 22, "note": 65, "velocity": 115, "channel": 0}, {"type": "note_off", "time": 91, "note": 65, "velocity": 115, "channel": 0}, {"type": "note_on", "time": 129, "note": 67, "velocity": 112, "channel": 0}, {"type": "note_off", "time": 42, "note": 67, "velocity": 112, "channel": 0}, {"type": "note_on", "time": 9, "note": 66, "velocity": 115, "channel": 0}, {"type": "note_off", "time": 71, "note": 66, "velocity": 115, "channel": 0}, {"type": "note_on", "time": 14, "note": 65, "velocity": 115, "channel": 0}, {"type": "note_off", "time": 103, "note": 65, "velocity": 115, "channel": 0}, {"type": "note_on", "time": 39, "note": 68, "velocity": 114, "channel": 0}, {"type": "note_off", "time": 74, "note": 68, "velocity": 114, "channel": 0}, {"type": "note_on", "time": 39, "note": 68, "velocity": 115, "channel": 0}, {"type": "note_off", "time": 68, "note": 68, "velocity": 115, "channel": 0}, {"type": "note_on", "time": 122, "note": 69, "velocity": 114, "channel": 0}, {"type": "note_off", "time": 90, "note": 69, "velocity": 114, "channel": 0}, {"type": "note_on", "time": 17, "note": 68, "velocity": 115, "channel": 0}, {"type": "note_off", "time": 67, "note": 68, "velocity": 115, "channel": 0}, {"type": "note_on", "time": 20, "note": 67, "velocity": 110, "channel": 0}, {"type": "note_off", "time": 79, "note": 67, "velocity": 110, "channel": 0}, {"type": "note_on", "time": 22, "note": 70, "velocity": 113, "channel": 0}, {"type": "note_off", "time": 67, "note": 70, "velocity": 113, "channel": 0}, {"type": "note_on", "time": 11, "note": 69, "velocity": 111, "channel": 0}, {"type": "note_off", "time": 95, "note": 69, "velocity": 111, "channel": 0}, {"type": "note_on", "time": 98, "note": 71, "velocity": 114, "channel": 0}, {"type": "note_off", "time": 71, "note": 71, "velocity": 114, "channel": 0}, {"type": "note_on", "time": 25, "note": 70, "velocity": 114, "channel": 0}, {"type": "note_off", "time": 50, "note": 70, "velocity": 114, "channel": 0}, {"type": "note_on", "time": 10, "note": 69, "velocity": 116, "channel": 0}, {"type": "note_off", "time": 81, "note": 69, "velocity": 116, "channel": 0}, {"type": "note_on", "time": 33, "note": 72, "velocity": 116, "channel": 0}, {"type": "note_off", "time": 71, "note": 72, "velocity": 116, "channel": 0}, {"type": "note_on", "time": 10, "note": 71, "velocity": 112, "channel": 0}, {"type": "note_off", "time": 81, "note": 71, "velocity": 112, "channel": 0}, {"type": "note_on", "time": 97, "note": 73, "velocity": 116, "channel": 0}, {"type": "note_off", "time": 104, "note": 73, "velocity": 116, "channel": 0}, {"type": "note_on", "time": 6, "note": 72, "velocity": 115, "channel": 0}, {"type": "note_off", "time": 71, "note": 72, "velocity": 115, "channel": 0}, {"type": "note_on", "time": 7, "note": 71, "velocity": 114, "channel": 0}, {"type": "note_off", "time": 104, "note": 71, "velocity": 114, "channel": 0}, {"type": "note_on", "time": 75, "note": 74, "velocity": 111, "channel": 0}, {"type": "note_off", "time": 107, "note": 74, "velocity": 111, "channel": 0}, {"type": "note_on", "time": 80, "note": 75, "velocity": 115, "channel": 0}, {"type": "note_off", "time": 125, "note": 75, "velocity": 115, "channel": 0}, {"type": "note_on", "time": 66, "note": 76, "velocity": 115, "channel": 0}, {"type": "note_off", "time": 133, "note": 76, "velocity": 115, "channel": 0}, {"type": "note_on", "time": 1121, "note": 77, "velocity": 112, "channel": 0}, {"type": "note_off", "time": 74, "note": 77, "velocity": 112, "channel": 0}, {"type": "note_on", "time": 4, "note": 76, "velocity": 111, "channel": 0}, {"type": "note_off", "time": 85, "note": 76, "velocity": 111, "channel": 0}, {"type": "note_on", "time": 8, "note": 74, "velocity": 114, "channel": 0}, {"type": "note_off", "time": 93, "note": 74, "velocity": 114, "channel": 0}, {"type": "note_on", "time": 11, "note": 72, "velocity": 112, "channel": 0}, {"type": "note_off", "time": 68, "note": 72, "velocity": 112, "channel": 0}, {"type": "note_on", "time": 8, "note": 71, "velocity": 112, "channel": 0}, {"type": "note_off", "time": 66, "note": 71, "velocity": 112, "channel": 0}, {"type": "note_on", "time": 13, "note": 70, "velocity": 112, "channel": 0}, {"type": "note_off", "time": 70, "note": 70, "velocity": 112, "channel": 0}, {"type": "note_on", "time": 23, "note": 69, "velocity": 115, "channel": 0}, {"type": "note_off", "time": 81, "note": 69, "velocity": 115, "channel": 0}, {"type": "note_on", "time": 14, "note": 67, "velocity": 112, "channel": 0}, {"type": "note_off", "time": 71, "note": 67, "velocity": 112, "channel": 0}, {"type": "note_on", "time": 15, "note": 69, "velocity": 116, "channel": 0}, {"type": "note_off", "time": 85, "note": 69, "velocity": 116, "channel": 0}, {"type": "note_on", "time": 20, "note": 70, "velocity": 112, "channel": 0}, {"type": "note_off", "time": 64, "note": 70, "velocity": 112, "channel": 0}, {"type": "note_on", "time": 18, "note": 72, "velocity": 118, "channel": 0}, {"type": "note_off", "time": 70, "note": 72, "velocity": 118, "channel": 0}, {"type": "note_on", "time": 18, "note": 74, "velocity": 118, "channel": 0}, {"type": "note_off", "time": 98, "note": 74, "velocity": 118, "channel": 0}, {"type": "note_on", "time": 9, "note": 73, "velocity": 117, "channel": 0}, {"type": "note_off", "time": 76, "note": 73, "velocity": 117, "channel": 0}, {"type": "note_on", "time": 7, "note": 72, "velocity": 111, "channel": 0}, {"type": "note_off", "time": 74, "note": 72, "velocity": 111, "channel": 0}, {"type": "note_on", "time": 7, "note": 71, "velocity": 115, "channel": 0}, {"type": "note_off", "time": 93, "note": 71, "velocity": 115, "channel": 0}, {"type": "note_on", "time": 12, "note": 70, "velocity": 116, "channel": 0}, {"type": "note_off", "time": 76, "note": 70, "velocity": 116, "channel": 0}, {"type": "note_on", "time": 9, "note": 69, "velocity": 113, "channel": 0}, {"type": "note_off", "time": 71, "note": 69, "velocity": 113, "channel": 0}, {"type": "note_on", "time": 23, "note": 67, "velocity": 112, "channel": 0}, {"type": "note_off", "time": 36, "note": 67, "velocity": 112, "channel": 0}, {"type": "note_on", "time": 7, "note": 68, "velocity": 101, "channel": 0}, {"type": "note_off", "time": 66, "note": 68, "velocity": 101, "channel": 0}, {"type": "note_on", "time": 14, "note": 70, "velocity": 114, "channel": 0}, {"type": "note_off", "time": 47, "note": 70, "velocity": 114, "channel": 0}, {"type": "note_on", "time": 14, "note": 69, "velocity": 111, "channel": 0}, {"type": "note_off", "time": 55, "note": 69, "velocity": 111, "channel": 0}, {"type": "note_on", "time": 62, "note": 65, "velocity": 112, "channel": 0}, {"type": "note_off", "time": 63, "note": 65, "velocity": 112, "channel": 0}, {"type": "note_on", "time": 10, "note": 62, "velocity": 113, "channel": 0}, {"type": "note_off", "time": 70, "note": 62, "velocity": 113, "channel": 0}, {"type": "note_on", "time": 115, "note": 65, "velocity": 113, "channel": 0}, {"type": "note_off", "time": 296, "note": 65, "velocity": 113, "channel": 0}, {"type": "note_on", "time": 844, "note": 67, "velocity": 117, "channel": 0}, {"type": "note_off", "time": 85, "note": 67, "velocity": 117, "channel": 0}, {"type": "note_on", "time": 26, "note": 65, "velocity": 112, "channel": 0}, {"type": "note_off", "time": 53, "note": 65, "velocity": 112, "channel": 0}, {"type": "note_on", "time": 16, "note": 62, "velocity": 106, "channel": 0}, {"type": "note_off", "time": 80, "note": 62, "velocity": 106, "channel": 0}, {"type": "note_on", "time": 104, "note": 65, "velocity": 101, "channel": 0}, {"type": "note_off", "time": 412, "note": 65, "velocity": 101, "channel": 0}, {"type": "note_on", "time": 1025, "note": 65, "velocity": 117, "channel": 0}, {"type": "note_off", "time": 63, "note": 65, "velocity": 117, "channel": 0}, {"type": "note_on", "time": 9, "note": 67, "velocity": 117, "channel": 0}, {"type": "note_off", "time": 37, "note": 67, "velocity": 117, "channel": 0}, {"type": "note_on", "time": 11, "note": 69, "velocity": 115, "channel": 0}, {"type": "note_off", "time": 62, "note": 69, "velocity": 115, "channel": 0}, {"type": "note_on", "time": 23, "note": 65, "velocity": 115, "channel": 0}, {"type": "note_off", "time": 62, "note": 65, "velocity": 115, "channel": 0}, {"type": "note_on", "time": 22, "note": 67, "velocity": 110, "channel": 0}, {"type": "note_off", "time": 61, "note": 67, "velocity": 110, "channel": 0}, {"type": "note_on", "time": 103, "note": 69, "velocity": 114, "channel": 0}, {"type": "note_off", "time": 99, "note": 69, "velocity": 114, "channel": 0}, {"type": "note_on", "time": 28, "note": 65, "velocity": 101, "channel": 0}, {"type": "note_off", "time": 38, "note": 65, "velocity": 101, "channel": 0}, {"type": "note_on", "time": 15, "note": 67, "velocity": 107, "channel": 0}, {"type": "note_off", "time": 72, "note": 67, "velocity": 107, "channel": 0}, {"type": "note_on", "time": 53, "note": 77, "velocity": 118, "channel": 0}, {"type": "note_off", "time": 75, "note": 77, "velocity": 118, "channel": 0}, {"type": "note_on", "time": 11, "note": 76, "velocity": 118, "channel": 0}, {"type": "note_off", "time": 152, "note": 76, "velocity": 118, "channel": 0}, {"type": "note_on", "time": 37, "note": 72, "velocity": 109, "channel": 0}, {"type": "note_off", "time": 62, "note": 72, "velocity": 109, "channel": 0}, {"type": "note_on", "time": 133, "note": 69, "velocity": 115, "channel": 0}, {"type": "note_off", "time": 145, "note": 69, "velocity": 115, "channel": 0}, {"type": "note_on", "time": 57, "note": 60, "velocity": 84, "channel": 0}, {"type": "note_off", "time": 102, "note": 60, "velocity": 84, "channel": 0}, {"type": "note_on", "time": 67, "note": 65, "velocity": 118, "channel": 0}, {"type": "note_off", "time": 80, "note": 65, "velocity": 118, "channel": 0}, {"type": "end_of_track", "time": 0}]]}