{"ticks_per_beat": 192, "tracks": [[{"type": "track_name", "name": "Melody", "time": 0}, {"type": "set_tempo", "tempo": 201342, "time": 0}, {"type": "key_signature", "key": "Bb", "time": 0}, {"type": "time_signature", "numerator": 4, "denominator": 4, "clocks_per_click": 24, "notated_32nd_notes_per_beat": 8, "time": 0}, {"type": "note_on", "time": 4678, "note": 74, "velocity": 114, "channel": 0}, {"type": "note_off", "time": 93, "note": 74, "velocity": 114, "channel": 0}, {"type": "note_on", "time": 15, "note": 72, "velocity": 112, "channel": 0}, {"type": "note_off", "time": 564, "note": 72, "velocity": 112, "channel": 0}, {"type": "note_on", "time": 77, "note": 67, "velocity": 111, "channel": 0}, {"type": "note_off", "time": 138, "note": 67, "velocity": 111, "channel": 0}, {"type": "note_on", "time": 5, "note": 69, "velocity": 109, "channel": 0}, {"type": "note_off", "time": 338, "note": 69, "velocity": 109, "channel": 0}, {"type": "note_on", "time": 42, "note": 67, "velocity": 109, "channel": 0}, {"type": "note_off", "time": 95, "note": 67, "velocity": 109, "channel": 0}, {"type": "note_on", "time": 13, "note": 69, "velocity": 111, "channel": 0}, {"type": "note_off", "time": 85, "note": 69, "velocity": 111, "channel": 0}, {"type": "note_on", "time": 19, "note": 67, "velocity": 102, "channel": 0}, {"type": "note_off", "time": 107, "note": 67, "velocity": 102, "channel": 0}, {"type": "note_on", "time": 20, "note": 65, "velocity": 104, "channel": 0}, {"type": "note_off", "time": 71, "note": 65, "velocity": 104, "channel": 0}, {"type": "note_on", "time": 9, "note": 64, "velocity": 107, "channel": 0}, {"type": "note_off", "time": 546, "note": 64, "velocity": 107, "channel": 0}, {"type": "note_on", "time": 17, "note": 65, "velocity": 111, "channel": 0}, {"type": "note_off", "time": 163, "note": 65, "velocity": 111, "channel": 0}, {"type": "note_on", "time": 40, "note": 62, "velocity": 107, "channel": 0}, {"type": "note_off", "time": 75, "note": 62, "velocity": 107, "channel": 0}, {"type": "note_on", "time": 15, "note": 63, "velocity": 107, "channel": 0}, {"type": "note_off", "time": 103, "note": 63, "velocity": 107, "channel": 0}, {"type": "note_on", "time": 33, "note": 60, "velocity": 100, "channel": 0}, {"type": "note_off", "time": 1228, "note": 60, "velocity": 100, "channel": 0}, {"type": "note_on", "time": 84, "note": 62, "velocity": 112, "channel": 0}, {"type": "note_off", "time": 40, "note": 62, "velocity": 112, "channel": 0}, {"type": "note_on", "time": 15, "note": 63, "velocity": 105, "channel": 0}, {"type": "note_off", "time": 58, "note": 63, "velocity": 105, "channel": 0}, {"type": "note_on", "time": 35, "note": 65, "velocity": 111, "channel": 0}, {"type": "note_off", "time": 87, "note": 65, "velocity": 111, "channel": 0}, {"type": "note_on", "time": 18, "note": 62, "velocity": 97, "channel": 0}, {"type": "note_off", "time": 102, "note": 62, "velocity": 97, "channel": 0}, {"type": "note_on", "time": 20, "note": 58, "velocity": 101, "channel": 0}, {"type": "note_off", "time": 58, "note": 58, "velocity": 101, "channel": 0}, {"type": "note_on", "time": 13, "note": 57, "velocity": 106, "channel": 0}, {"type": "note_off", "time": 328, "note": 57, "velocity": 106, "channel": 0}, {"type": "note_on", "time": 36, "note": 58, "velocity": 101, "channel": 0}, {"type": "note_off", "time": 99, "note": 58, "velocity": 101, "channel": 0}, {"type": "note_on", "time": 9, "note": 55, "velocity": 106, "channel": 0}, {"type": "note_off", "time": 330, "note": 55, "velocity": 106, "channel": 0}, {"type": "note_on", "time": 14, "note": 57, "velocity": 103, "channel": 0}, {"type": "note_off", "time": 85, "note": 57, "velocity": 103, "channel": 0}, {"type": "note_on", "time": 60, "note": 57, "velocity": 108, "channel": 0}, {"type": "note_off", "time": 56, "note": 57, "velocity": 108, "channel": 0}, {"type": "note_on", "time": 17, "note": 56, "velocity": 97, "channel": 0}, {"type": "note_off", "time": 75, "note": 56, "velocity": 97, "channel": 0}, {"type": "note_on", "time": 12, "note": 58, "velocity": 100, "channel": 0}, {"type": "note_off", "time": 74, "note": 58, "velocity": 100, "channel": 0}, {"type": "note_on", "time": 9, "note": 61, "velocity": 100, "channel": 0}, {"type": "note_off", "time": 79, "note": 61, "velocity": 100, "channel": 0}, {"type": "note_on", "time": 40, "note": 63, "velocity": 109, "channel": 0}, {"type": "note_off", "time": 68, "note": 63, "velocity": 109, "channel": 0}, {"type": "note_on", "time": 5, "note": 65, "velocity": 113, "channel": 0}, {"type": "note_off", "time": 64, "note": 65, "velocity": 113, "channel": 0}, {"type": "note_on", "time": 25, "note": 64, "velocity": 110, "channel": 0}, {"type": "note_off", "time": 85, "note": 64, "velocity": 110, "channel": 0}, {"type": "note_on", "time": 25, "note": 63, "velocity": 108, "channel": 0}, {"type": "note_off", "time": 70, "note": 63, "velocity": 108, "channel": 0}, {"type": "note_on", "time": 32, "note": 58, "velocity": 95, "channel": 0}, {"type": "note_off", "time": 83, "note": 58, "velocity": 95, "channel": 0}, {"type": "note_on", "time": 42, "note": 63, "velocity": 103, "channel": 0}, {"type": "note_off", "time": 60, "note": 63, "velocity": 103, "channel": 0}, {"type": "note_on", "time": 31, "note": 65, "velocity": 113, "channel": 0}, {"type": "note_off", "time": 77, "note": 65, "velocity": 113, "channel": 0}, {"type": "note_on", "time": 17, "note": 67, "velocity": 109, "channel": 0}, {"type": "note_off", "time": 68, "note": 67, "velocity": 109, "channel": 0}, {"type": "note_on", "time": 35, "note": 69, "velocity": 119, "channel": 0}, {"type": "note_off", "time": 95, "note": 69, "velocity": 119, "channel": 0}, {"type": "note_on", "time": 14, "note": 70, "velocity": 106, "channel": 0}, {"type": "note_off", "time": 60, "note": 70, "velocity": 106, "channel": 0}, {"type": "note_on", "time": 13, "note": 72, "velocity": 114, "channel": 0}, {"type": "note_off", "time": 97, "note": 72, "velocity": 114, "channel": 0}, {"type": "note_on", "time": 7, "note": 74, "velocity": 118, "channel": 0}, {"type": "note_off", "time": 68, "note": 74, "velocity": 118, "channel": 0}, {"type": "note_on", "time": 31, "note": 77, "velocity": 127, "channel": 0}, {"type": "note_off", "time": 68, "note": 77, "velocity": 127, "channel": 0}, {"type": "note_on", "time": 13, "note": 76, "velocity": 112, "channel": 0}, {"type": "note_off", "time": 72, "note": 76, "velocity": 112, "channel": 0}, {"type": "note_on", "time": 1115, "note": 77, "velocity": 96, "channel": 0}, {"type": "note_off", "time": 88, "note": 77, "velocity": 96, "channel": 0}, {"type": "note_on", "time": 2, "note": 81, "velocity": 126, "channel": 0}, {"type": "note_off", "time": 73, "note": 81, "velocity": 126, "channel": 0}, {"type": "note_on", "time": 9, "note": 79, "velocity": 119, "channel": 0}, {"type": "note_off", "time": 62, "note": 79, "velocity": 119, "channel": 0}, {"type": "note_on", "time": 25, "note": 77, "velocity": 123, "channel": 0}, {"type": "note_off", "time": 72, "note": 77, "velocity": 123, "channel": 0}, {"type": "note_on", "time": 32, "note": 76, "velocity": 122, "channel": 0}, {"type": "note_off", "time": 85, "note": 76, "velocity": 122, "channel": 0}, {"type": "note_on", "time": 6, "note": 74, "velocity": 117, "channel": 0}, {"type": "note_off", "time": 81, "note": 74, "velocity": 117, "channel": 0}, {"type": "note_on", "time": 31, "note": 72, "velocity": 116, "channel": 0}, {"type": "note_off", "time": 597, "note": 72, "velocity": 116, "channel": 0}, {"type": "note_on", "time": 28, "note": 79, "velocity": 114, "channel": 0}, {"type": "note_off", "time": 70, "note": 79, "velocity": 114, "channel": 0}, {"type": "note_on", "time": 141, "note": 79, "velocity": 121, "channel": 0}, {"type": "note_off", "time": 92, "note": 79, "velocity": 121, "channel": 0}, {"type": "note_on", "time": 6, "note": 80, "velocity": 117, "channel": 0}, {"type": "note_off", "time": 221, "note": 80, "velocity": 117, "channel": 0}, {"type": "note_on", "time": 48, "note": 77, "velocity": 124, "channel": 0}, {"type": "note_off", "time": 89, "note": 77, "velocity": 124, "channel": 0}, {"type": "note_on", "time": 21, "note": 75, "velocity": 109, "channel": 0}, {"type": "note_off", "time": 72, "note": 75, "velocity": 109, "channel": 0}, {"type": "note_on", "time": 29, "note": 73, "velocity": 115, "channel": 0}, {"type": "note_off", "time": 79, "note": 73, "velocity": 115, "channel": 0}, {"type": "note_on", "time": 25, "note": 70, "velocity": 116, "channel": 0}, {"type": "note_off", "time": 81, "note": 70, "velocity": 116, "channel": 0}, {"type": "note_on", "time": 19, "note": 68, "velocity": 109, "channel": 0}, {"type": "note_off", "time": 87, "note": 68, "velocity": 109, "channel": 0}, {"type": "note_on", "time": 34, "note": 65, "velocity": 102, "channel": 0}, {"type": "note_off", "time": 44, "note": 65, "velocity": 102, "channel": 0}, {"type": "note_on", "time": 8, "note": 70, "velocity": 116, "channel": 0}, {"type": "note_off", "time": 72, "note": 70, "velocity": 116, "channel": 0}, {"type": "note_on", "time": 36, "note": 69, "velocity": 113, "channel": 0}, {"type": "note_off", "time": 87, "note": 69, "velocity": 113, "channel": 0}, {"type": "note_on", "time": 16, "note": 68, "velocity": 106, "channel": 0}, {"type": "note_off", "time": 62, "note": 68, "velocity": 106, "channel": 0}, {"type": "note_on", "time": 7, "note": 70, "velocity": 113, "channel": 0}, {"type": "note_off", "time": 70, "note": 70, "velocity": 113, "channel": 0}, {"type": "note_on", "time": 21, "note": 71, "velocity": 116, "channel": 0}, {"type": "note_off", "time": 325, "note": 71, "velocity": 116, "channel": 0}, {"type": "note_on", "time": 13, "note": 73, "velocity": 121, "channel": 0}, {"type": "note_off", "time": 48, "note": 73, "velocity": 121, "channel": 0}, {"type": "note_on", "time": 19, "note": 74, "velocity": 118, "channel": 0}, {"type": "note_off", "time": 100, "note": 74, "velocity": 118, "channel": 0}, {"type": "note_on", "time": 1080, "note": 77, "velocity": 119, "channel": 0}, {"type": "note_off", "time": 79, "note": 77, "velocity": 119, "channel": 0}, {"type": "note_on", "time": 34, "note": 82, "velocity": 123, "channel": 0}, {"type": "note_off", "time": 58, "note": 82, "velocity": 123, "channel": 0}, {"type": "note_on", "time": 21, "note": 81, "velocity": 122, "channel": 0}, {"type": "note_off", "time": 87, "note": 81, "velocity": 122, "channel": 0}, {"type": "note_on", "time": 31, "note": 79, "velocity": 118, "channel": 0}, {"type": "note_off", "time": 66, "note": 79, "velocity": 118, "channel": 0}, {"type": "note_on", "time": 30, "note": 77, "velocity": 110, "channel": 0}, {"type": "note_off", "time": 66, "note": 77, "velocity": 110, "channel": 0}, {"type": "note_on", "time": 12, "note": 76, "velocity": 114, "channel": 0}, {"type": "note_off", "time": 87, "note": 76, "velocity": 114, "channel": 0}, {"type": "note_on", "time": 9, "note": 75, "velocity": 109, "channel": 0}, {"type": "note_off", "time": 54, "note": 75, "velocity": 109, "channel": 0}, {"type": "note_on", "time": 35, "note": 79, "velocity": 119, "channel": 0}, {"type": "note_off", "time": 91, "note": 79, "velocity": 119, "channel": 0}, {"type": "note_on", "time": 23, "note": 77, "velocity": 113, "channel": 0}, {"type": "note_off", "time": 46, "note": 77, "velocity": 113, "channel": 0}, {"type": "note_on", "time": 36, "note": 74, "velocity": 117, "channel": 0}, {"type": "note_off", "time": 60, "note": 74, "velocity": 117, "channel": 0}, {"type": "note_on", "time": 42, "note": 72, "velocity": 108, "channel": 0}, {"type": "note_off", "time": 77, "note": 72, "velocity": 108, "channel": 0}, {"type": "note_on", "time": 13, "note": 77, "velocity": 118, "channel": 0}, {"type": "note_off", "time": 93, "note": 77, "velocity": 118, "channel": 0}, {"type": "note_on", "time": 25, "note": 77, "velocity": 114, "channel": 0}, {"type": "note_off", "time": 114, "note": 77, "velocity": 114, "channel": 0}, {"type": "note_on", "time": 35, "note": 75, "velocity": 116, "channel": 0}, {"type": "note_off", "time": 328, "note": 75, "velocity": 116, "channel": 0}, {"type": "note_on", "time": 66, "note": 69, "velocity": 82, "channel": 0}, {"type": "note_off", "time": 53, "note": 69, "velocity": 82, "channel": 0}, {"type": "note_on", "time": 24, "note": 76, "velocity": 115, "channel": 0}, {"type": "note_off", "time": 105, "note": 76, "velocity": 115, "channel": 0}, {"type": "note_on", "time": 1037, "note": 79, "velocity": 113, "channel": 0}, {"type": "note_off", "time": 79, "note": 79, "velocity": 113, "channel": 0}, {"type": "note_on", "time": 31, "note": 82, "velocity": 121, "channel": 0}, {"type": "note_off", "time": 87, "note": 82, "velocity": 121, "channel": 0}, {"type": "note_on", "time": 108, "note": 82, "velocity": 93, "channel": 0}, {"type": "note_off", "time": 105, "note": 82, "velocity": 93, "channel": 0}, {"type": "note_on", "time": 13, "note": 85, "velocity": 120, "channel": 0}, {"type": "note_off", "time": 314, "note": 85, "velocity": 120, "channel": 0}, {"type": "note_on", "time": 44, "note": 82, "velocity": 119, "channel": 0}, {"type": "note_off", "time": 72, "note": 82, "velocity": 119, "channel": 0}, {"type": "note_on", "time": 27, "note": 80, "velocity": 107, "channel": 0}, {"type": "note_off", "time": 50, "note": 80, "velocity": 107, "channel": 0}, {"type": "note_on", "time": 20, "note": 78, "velocity": 106, "channel": 0}, {"type": "note_off", "time": 99, "note": 78, "velocity": 106, "channel": 0}, {"type": "note_on", "time": 16, "note": 75, "velocity": 109, "channel": 0}, {"type": "note_off", "time": 71, "note": 75, "velocity": 109, "channel": 0}, {"type": "note_on", "time": 8, "note": 73, "velocity": 112, "channel": 0}, {"type": "note_off", "time": 94, "note": 73, "velocity": 112, "channel": 0}, {"type": "note_on", "time": 14, "note": 70, "velocity": 112, "channel": 0}, {"type": "note_off", "time": 70, "note": 70, "velocity": 112, "channel": 0}, {"type": "note_on", "time": 32, "note": 68, "velocity": 104, "channel": 0}, {"type": "note_off", "time": 77, "note": 68, "velocity": 104, "channel": 0}, {"type": "note_on", "time": 23, "note": 65, "velocity": 95, "channel": 0}, {"type": "note_off", "time": 58, "note": 65, "velocity": 95, "channel": 0}, {"type": "note_on", "time": 12, "note": 70, "velocity": 109, "channel": 0}, {"type": "note_off", "time": 85, "note": 70, "velocity": 109, "channel": 0}, {"type": "note_on", "time": 14, "note": 69, "velocity": 110, "channel": 0}, {"type": "note_off", "time": 56, "note": 69, "velocity": 110, "channel": 0}, {"type": "note_on", "time": 13, "note": 68, "velocity": 107, "channel": 0}, {"type": "note_off", "time": 90, "note": 68, "velocity": 107, "channel": 0}, {"type": "note_on", "time": 10, "note": 70, "velocity": 113, "channel": 0}, {"type": "note_off", "time": 81, "note": 70, "velocity": 113, "channel": 0}, {"type": "note_on", "time": 12, "note": 67, "velocity": 94, "channel": 0}, {"type": "note_off", "time": 90, "note": 67, "velocity": 94, "channel": 0}, {"type": "note_on", "time": 6, "note": 73, "velocity": 113, "channel": 0}, {"type": "note_off", "time": 68, "note": 73, "velocity": 113, "channel": 0}, {"type": "note_on", "time": 19, "note": 73, "velocity": 109, "channel": 0}, {"type": "note_off", "time": 72, "note": 73, "velocity": 109, "channel": 0}, {"type": "note_on", "time": 33, "note": 72, "velocity": 114, "channel": 0}, {"type": "note_off", "time": 75, "note": 72, "velocity": 114, "channel": 0}, {"type": "note_on", "time": 14, "note": 74, "velocity": 114, "channel": 0}, {"type": "note_off", "time": 75, "note": 74, "velocity": 114, "channel": 0}, {"type": "note_on", "time": 27, "note": 77, "velocity": 115, "channel": 0}, {"type": "note_off", "time": 72, "note": 77, "velocity": 115, "channel": 0}, {"type": "note_on", "time": 17, "note": 83, "velocity": 113, "channel": 0}, {"type": "note_off", "time": 92, "note": 83, "velocity": 113, "channel": 0}, {"type": "note_on", "time": 12, "note": 84, "velocity": 109, "channel": 0}, {"type": "note_off", "time": 32, "note": 84, "velocity": 109, "channel": 0}, {"type": "note_on", "time": 12, "note": 85, "velocity": 114, "channel": 0}, {"type": "note_off", "time": 79, "note": 85, "velocity": 114, "channel": 0}, {"type": "note_on", "time": 19, "note": 84, "velocity": 115, "channel": 0}, {"type": "note_off", "time": 700, "note": 84, "velocity": 115, "channel": 0}, {"type": "note_on", "time": 58, "note": 81, "velocity": 112, "channel": 0}, {"type": "note_off", "time": 56, "note": 81, "velocity": 112, "channel": 0}, {"type": "note_on", "time": 35, "note": 84, "velocity": 112, "channel": 0}, {"type": "note_off", "time": 260, "note": 84, "velocity": 112, "channel": 0}, {"type": "note_on", "time": 11, "note": 83, "velocity": 114, "channel": 0}, {"type": "note_off", "time": 70, "note": 83, "velocity": 114, "channel": 0}, {"type": "note_on", "time": 11, "note": 84, "velocity": 113, "channel": 0}, {"type": "note_off", "time": 251, "note": 84, "velocity": 113, "channel": 0}, {"type": "note_on", "time": 11, "note": 82, "velocity": 103, "channel": 0}, {"type": "note_off", "time": 44, "note": 82, "velocity": 103, "channel": 0}, {"type": "note_on", "time": 7, "note": 81, "velocity": 113, "channel": 0}, {"type": "note_off", "time": 363, "note": 81, "velocity": 113, "channel": 0}, {"type": "note_on", "time": 11, "note": 85, "velocity": 108, "channel": 0}, {"type": "note_off", "time": 42, "note": 85, "velocity": 108, "channel": 0}, {"type": "note_on", "time": 694, "note": 79, "velocity": 110, "channel": 0}, {"type": "note_off", "time": 81, "note": 79, "velocity": 110, "channel": 0}, {"type": "note_on", "time": 19, "note": 82, "velocity": 117, "channel": 0}, {"type": "note_off", "time": 64, "note": 82, "velocity": 117, "channel": 0}, {"type": "note_on", "time": 17, "note": 81, "velocity": 115, "channel": 0}, {"type": "note_off", "time": 85, "note": 81, "velocity": 115, "channel": 0}, {"type": "note_on", "time": 21, "note": 79, "velocity": 115, "channel": 0}, {"type": "note_off", "time": 68, "note": 79, "velocity": 115, "channel": 0}, {"type": "note_on", "time": 27, "note": 77, "velocity": 115, "channel": 0}, {"type": "note_off", "time": 56, "note": 77, "velocity": 115, "channel": 0}, {"type": "note_on", "time": 42, "note": 76, "velocity": 114, "channel": 0}, {"type": "note_off", "time": 64, "note": 76, "velocity": 114, "channel": 0}, {"type": "note_on", "time": 15, "note": 75, "velocity": 112, "channel": 0}, {"type": "note_off", "time": 81, "note": 75, "velocity": 112, "channel": 0}, {"type": "note_on", "time": 29, "note": 79, "velocity": 114, "channel": 0}, {"type": "note_off", "time": 70, "note": 79, "velocity": 114, "channel": 0}, {"type": "note_on", "time": 21, "note": 77, "velocity": 102, "channel": 0}, {"type": "note_off", "time": 44, "note": 77, "velocity": 102, "channel": 0}, {"type": "note_on", "time": 33, "note": 74, "velocity": 114, "channel": 0}, {"type": "note_off", "time": 110, "note": 74, "velocity": 114, "channel": 0}, {"type": "note_on", "time": 13, "note": 72, "velocity": 106, "channel": 0}, {"type": "note_off", "time": 46, "note": 72, "velocity": 106, "channel": 0}, {"type": "note_on", "time": 46, "note": 77, "velocity": 116, "channel": 0}, {"type": "note_off", "time": 72, "note": 77, "velocity": 116, "channel": 0}, {"type": "note_on", "time": 21, "note": 75, "velocity": 111, "channel": 0}, {"type": "note_off", "time": 72, "note": 75, "velocity": 111, "channel": 0}, {"type": "note_on", "time": 46, "note": 68, "velocity": 99, "channel": 0}, {"type": "note_off", "time": 54, "note": 68, "velocity": 99, "channel": 0}, {"type": "note_on", "time": 13, "note": 70, "velocity": 109, "channel": 0}, {"type": "note_off", "time": 79, "note": 70, "velocity": 109, "channel": 0}, {"type": "note_on", "time": 40, "note": 73, "velocity": 113, "channel": 0}, {"type": "note_off", "time": 93, "note": 73, "velocity": 113, "channel": 0}, {"type": "note_on", "time": 5, "note": 71, "velocity": 110, "channel": 0}, {"type": "note_off", "time": 56, "note": 71, "velocity": 110, "channel": 0}, {"type": "note_on", "time": 59, "note": 64, "velocity": 98, "channel": 0}, {"type": "note_off", "time": 56, "note": 64, "velocity": 98, "channel": 0}, {"type": "note_on", "time": 20, "note": 69, "velocity": 110, "channel": 0}, {"type": "note_off", "time": 60, "note": 69, "velocity": 110, "channel": 0}, {"type": "note_on", "time": 19, "note": 71, "velocity": 108, "channel": 0}, {"type": "note_off", "time": 73, "note": 71, "velocity": 108, "channel": 0}, {"type": "note_on", "time": 9, "note": 73, "velocity": 108, "channel": 0}, {"type": "note_off", "time": 75, "note": 73, "velocity": 108, "channel": 0}, {"type": "note_on", "time": 38, "note": 78, "velocity": 111, "channel": 0}, {"type": "note_off", "time": 44, "note": 78, "velocity": 111, "channel": 0}, {"type": "note_on", "time": 27, "note": 73, "velocity": 104, "channel": 0}, {"type": "note_off", "time": 38, "note": 73, "velocity": 104, "channel": 0}, {"type": "note_on", "time": 11, "note": 74, "velocity": 115, "channel": 0}, {"type": "note_off", "time": 68, "note": 74, "velocity": 115, "channel": 0}, {"type": "note_on", "time": 38, "note": 76, "velocity": 112, "channel": 0}, {"type": "note_off", "time": 65, "note": 76, "velocity": 112, "channel": 0}, {"type": "note_on", "time": 17, "note": 74, "velocity": 111, "channel": 0}, {"type": "note_off", "time": 49, "note": 74, "velocity": 111, "channel": 0}, {"type": "note_on", "time": 34, "note": 71, "velocity": 101, "channel": 0}, {"type": "note_off", "time": 87, "note": 71, "velocity": 101, "channel": 0}, {"type": "note_on", "time": 28, "note": 74, "velocity": 114, "channel": 0}, {"type": "note_off", "time": 66, "note": 74, "velocity": 114, "channel": 0}, {"type": "note_on", "time": 17, "note": 71, "velocity": 104, "channel": 0}, {"type": "note_off", "time": 33, "note": 71, "velocity": 104, "channel": 0}, {"type": "note_on", "time": 24, "note": 69, "velocity": 103, "channel": 0}, {"type": "note_off", "time": 74, "note": 69, "velocity": 103, "channel": 0}, {"type": "note_on", "time": 38, "note": 72, "velocity": 106, "channel": 0}, {"type": "note_off", "time": 66, "note": 72, "velocity": 106, "channel": 0}, {"type": "note_on", "time": 9, "note": 70, "velocity": 106, "channel": 0}, {"type": "note_off", "time": 48, "note": 70, "velocity": 106, "channel": 0}, {"type": "note_on", "time": 23, "note": 67, "velocity": 104, "channel": 0}, {"type": "note_off", "time": 87, "note": 67, "velocity": 104, "channel": 0}, {"type": "note_on", "time": 100, "note": 70, "velocity": 109, "channel": 0}, {"type": "note_off", "time": 38, "note": 70, "velocity": 109, "channel": 0}, {"type": "note_on", "time": 14, "note": 69, "velocity": 97, "channel": 0}, {"type": "note_off", "time": 38, "note": 69, "velocity": 97, "channel": 0}, {"type": "note_on", "time": 576, "note": 74, "velocity": 109, "channel": 0}, {"type": "note_off", "time": 85, "note": 74, "velocity": 109, "channel": 0}, {"type": "note_on", "time": 15, "note": 73, "velocity": 110, "channel": 0}, {"type": "note_off", "time": 48, "note": 73, "velocity": 110, "channel": 0}, {"type": "note_on", "time": 17, "note": 75, "velocity": 112, "channel": 0}, {"type": "note_off", "time": 93, "note": 75, "velocity": 112, "channel": 0}, {"type": "note_on", "time": 32, "note": 78, "velocity": 116, "channel": 0}, {"type": "note_off", "time": 75, "note": 78, "velocity": 116, "channel": 0}, {"type": "note_on", "time": 16, "note": 76, "velocity": 113, "channel": 0}, {"type": "note_off", "time": 52, "note": 76, "velocity": 113, "channel": 0}, {"type": "note_on", "time": 46, "note": 73, "velocity": 110, "channel": 0}, {"type": "note_off", "time": 85, "note": 73, "velocity": 110, "channel": 0}, {"type": "note_on", "time": 7, "note": 71, "velocity": 95, "channel": 0}, {"type": "note_off", "time": 51, "note": 71, "velocity": 95, "channel": 0}, {"type": "note_on", "time": 32, "note": 76, "velocity": 117, "channel": 0}, {"type": "note_off", "time": 77, "note": 76, "velocity": 117, "channel": 0}, {"type": "note_on", "time": 23, "note": 77, "velocity": 117, "channel": 0}, {"type": "note_off", "time": 79, "note": 77, "velocity": 117, "channel": 0}, {"type": "note_on", "time": 27, "note": 79, "velocity": 106, "channel": 0}, {"type": "note_off", "time": 48, "note": 79, "velocity": 106, "channel": 0}, {"type": "note_on", "time": 2, "note": 78, "velocity": 108, "channel": 0}, {"type": "note_off", "time": 66, "note": 78, "velocity": 108, "channel": 0}, {"type": "note_on", "time": 21, "note": 74, "velocity": 104, "channel": 0}, {"type": "note_off", "time": 50, "note": 74, "velocity": 104, "channel": 0}, {"type": "note_on", "time": 955, "note": 74, "velocity": 111, "channel": 0}, {"type": "note_off", "time": 58, "note": 74, "velocity": 111, "channel": 0}, {"type": "note_on", "time": 29, "note": 74, "velocity": 114, "channel": 0}, {"type": "note_off", "time": 70, "note": 74, "velocity": 114, "channel": 0}, {"type": "note_on", "time": 40, "note": 74, "velocity": 115, "channel": 0}, {"type": "note_off", "time": 365, "note": 74, "velocity": 115, "channel": 0}, {"type": "note_on", "time": 58, "note": 72, "velocity": 106, "channel": 0}, {"type": "note_off", "time": 60, "note": 72, "velocity": 106, "channel": 0}, {"type": "note_on", "time": 122, "note": 76, "velocity": 105, "channel": 0}, {"type": "note_off", "time": 77, "note": 76, "velocity": 105, "channel": 0}, {"type": "note_on", "time": 112, "note": 74, "velocity": 103, "channel": 0}, {"type": "note_off", "time": 772, "note": 74, "velocity": 103, "channel": 0}, {"type": "note_on", "time": 1154, "note": 77, "velocity": 110, "channel": 0}, {"type": "note_off", "time": 77, "note": 77, "velocity": 110, "channel": 0}, {"type": "note_on", "time": 29, "note": 82, "velocity": 106, "channel": 0}, {"type": "note_off", "time": 52, "note": 82, "velocity": 106, "channel": 0}, {"type": "note_on", "time": 25, "note": 80, "velocity": 107, "channel": 0}, {"type": "note_off", "time": 40, "note": 80, "velocity": 107, "channel": 0}, {"type": "note_on", "time": 19, "note": 79, "velocity": 91, "channel": 0}, {"type": "note_off", "time": 50, "note": 79, "velocity": 91, "channel": 0}, {"type": "note_on", "time": 6, "note": 79, "velocity": 104, "channel": 0}, {"type": "note_off", "time": 87, "note": 79, "velocity": 104, "channel": 0}, {"type": "note_on", "time": 12, "note": 77, "velocity": 110, "channel": 0}, {"type": "note_off", "time": 40, "note": 77, "velocity": 110, "channel": 0}, {"type": "note_on", "time": 34, "note": 76, "velocity": 112, "channel": 0}, {"type": "note_off", "time": 36, "note": 76, "velocity": 112, "channel": 0}, {"type": "note_on", "time": 29, "note": 75, "velocity": 112, "channel": 0}, {"type": "note_off", "time": 73, "note": 75, "velocity": 112, "channel": 0}, {"type": "note_on", "time": 50, "note": 78, "velocity": 114, "channel": 0}, {"type": "note_off", "time": 54, "note": 78, "velocity": 114, "channel": 0}, {"type": "note_on", "time": 31, "note": 76, "velocity": 117, "channel": 0}, {"type": "note_off", "time": 68, "note": 76, "velocity": 117, "channel": 0}, {"type": "note_on", "time": 27, "note": 73, "velocity": 112, "channel": 0}, {"type": "note_off", "time": 79, "note": 73, "velocity": 112, "channel": 0}, {"type": "note_on", "time": 15, "note": 71, "velocity": 98, "channel": 0}, {"type": "note_off", "time": 58, "note": 71, "velocity": 98, "channel": 0}, {"type": "note_on", "time": 97, "note": 76, "velocity": 115, "channel": 0}, {"type": "note_off", "time": 66, "note": 76, "velocity": 115, "channel": 0}, {"type": "note_on", "time": 5, "note": 77, "velocity": 118, "channel": 0}, {"type": "note_off", "time": 73, "note": 77, "velocity": 118, "channel": 0}, {"type": "note_on", "time": 9, "note": 76, "velocity": 93, "channel": 0}, {"type": "note_off", "time": 42, "note": 76, "velocity": 93, "channel": 0}, {"type": "note_on", "time": 23, "note": 75, "velocity": 109, "channel": 0}, {"type": "note_off", "time": 89, "note": 75, "velocity": 109, "channel": 0}, {"type": "note_on", "time": 37, "note": 79, "velocity": 111, "channel": 0}, {"type": "note_off", "time": 83, "note": 79, "velocity": 111, "channel": 0}, {"type": "note_on", "time": 15, "note": 77, "velocity": 116, "channel": 0}, {"type": "note_off", "time": 52, "note": 77, "velocity": 116, "channel": 0}, {"type": "note_on", "time": 35, "note": 77, "velocity": 114, "channel": 0}, {"type": "note_off", "time": 64, "note": 77, "velocity": 114, "channel": 0}, {"type": "note_on", "time": 50, "note": 72, "velocity": 103, "channel": 0}, {"type": "note_off", "time": 42, "note": 72, "velocity": 103, "channel": 0}, {"type": "note_on", "time": 33, "note": 77, "velocity": 117, "channel": 0}, {"type": "note_off", "time": 78, "note": 77, "velocity": 117, "channel": 0}, {"type": "note_on", "time": 4, "note": 75, "velocity": 109, "channel": 0}, {"type": "note_off", "time": 74, "note": 75, "velocity": 109, "channel": 0}, {"type": "note_on", "time": 21, "note": 73, "velocity": 107, "channel": 0}, {"type": "note_off", "time": 77, "note": 73, "velocity": 107, "channel": 0}, {"type": "note_on", "time": 7, "note": 74, "velocity": 114, "channel": 0}, {"type": "note_off", "time": 81, "note": 74, "velocity": 114, "channel": 0}, {"type": "note_on", "time": 35, "note": 70, "velocity": 112, "channel": 0}, {"type": "note_off", "time": 60, "note": 70, "velocity": 112, "channel": 0}, {"type": "note_on", "time": 25, "note": 67, "velocity": 98, "channel": 0}, {"type": "note_off", "time": 52, "note": 67, "velocity": 98, "channel": 0}, {"type": "note_on", "time": 3, "note": 68, "velocity": 96, "channel": 0}, {"type": "note_off", "time": 47, "note": 68, "velocity": 96, "channel": 0}, {"type": "note_on", "time": 16, "note": 72, "velocity": 103, "channel": 0}, {"type": "note_off", "time": 33, "note": 72, "velocity": 103, "channel": 0}, {"type": "note_on", "time": 17, "note": 69, "velocity": 110, "channel": 0}, {"type": "note_off", "time": 83, "note": 69, "velocity": 110, "channel": 0}, {"type": "note_on", "time": 74, "note": 65, "velocity": 101, "channel": 0}, {"type": "note_off", "time": 50, "note": 65, "velocity": 101, "channel": 0}, {"type": "note_on", "time": 17, "note": 70, "velocity": 110, "channel": 0}, {"type": "note_off", "time": 231, "note": 70, "velocity": 110, "channel": 0}, {"type": "note_on", "time": 683, "note": 77, "velocity": 106, "channel": 0}, {"type": "note_off", "time": 97, "note": 77, "velocity": 106, "channel": 0}, {"type": "note_on", "time": 72, "note": 82, "velocity": 120, "channel": 0}, {"type": "note_off", "time": 97, "note": 82, "velocity": 120, "channel": 0}, {"type": "note_on", "time": 15, "note": 81, "velocity": 116, "channel": 0}, {"type": "note_off", "time": 70, "note": 81, "velocity": 116, "channel": 0}, {"type": "note_on", "time": 10, "note": 80, "velocity": 112, "channel": 0}, {"type": "note_off", "time": 77, "note": 80, "velocity": 112, "channel": 0}, {"type": "note_on", "time": 9, "note": 79, "velocity": 109, "channel": 0}, {"type": "note_off", "time": 37, "note": 79, "velocity": 109, "channel": 0}, {"type": "note_on", "time": 11, "note": 78, "velocity": 116, "channel": 0}, {"type": "note_off", "time": 303, "note": 78, "velocity": 116, "channel": 0}, {"type": "note_on", "time": 697, "note": 78, "velocity": 113, "channel": 0}, {"type": "note_off", "time": 146, "note": 78, "velocity": 113, "channel": 0}, {"type": "note_on", "time": 46, "note": 81, "velocity": 122, "channel": 0}, {"type": "note_off", "time": 134, "note": 81, "velocity": 122, "channel": 0}, {"type": "note_on", "time": 7, "note": 80, "velocity": 113, "channel": 0}, {"type": "note_off", "time": 114, "note": 80, "velocity": 113, "channel": 0}, {"type": "note_on", "time": 35, "note": 81, "velocity": 117, "channel": 0}, {"type": "note_off", "time": 130, "note": 81, "velocity": 117, "channel": 0}, {"type": "note_on", "time": 24, "note": 78, "velocity": 115, "channel": 0}, {"type": "note_off", "time": 289, "note": 78, "velocity": 115, "channel": 0}, {"type": "note_on", "time": 639, "note": 74, "velocity": 110, "channel": 0}, {"type": "note_off", "time": 79, "note": 74, "velocity": 110, "channel": 0}, {"type": "note_on", "time": 88, "note": 81, "velocity": 100, "channel": 0}, {"type": "note_off", "time": 94, "note": 81, "velocity": 100, "channel": 0}, {"type": "note_on", "time": 7, "note": 85, "velocity": 108, "channel": 0}, {"type": "note_off", "time": 260, "note": 85, "velocity": 108, "channel": 0}, {"type": "note_on", "time": 11, "note": 82, "velocity": 107, "channel": 0}, {"type": "note_off", "time": 116, "note": 82, "velocity": 107, "channel": 0}, {"type": "note_on", "time": 14, "note": 80, "velocity": 100, "channel": 0}, {"type": "note_off", "time": 62, "note": 80, "velocity": 100, "channel": 0}, {"type": "note_on", "time": 19, "note": 78, "velocity": 112, "channel": 0}, {"type": "note_off", "time": 101, "note": 78, "velocity": 112, "channel": 0}, {"type": "note_on", "time": 446, "note": 77, "velocity": 115, "channel": 0}, {"type": "note_off", "time": 77, "note": 77, "velocity": 115, "channel": 0}, {"type": "note_on", "time": 9, "note": 79, "velocity": 111, "channel": 0}, {"type": "note_off", "time": 68, "note": 79, "velocity": 111, "channel": 0}, {"type": "note_on", "time": 12, "note": 81, "velocity": 117, "channel": 0}, {"type": "note_off", "time": 79, "note": 81, "velocity": 117, "channel": 0}, {"type": "note_on", "time": 33, "note": 79, "velocity": 114, "channel": 0}, {"type": "note_off", "time": 63, "note": 79, "velocity": 114, "channel": 0}, {"type": "note_on", "time": 17, "note": 77, "velocity": 106, "channel": 0}, {"type": "note_off", "time": 71, "note": 77, "velocity": 106, "channel": 0}, {"type": "note_on", "time": 16, "note": 76, "velocity": 111, "channel": 0}, {"type": "note_off", "time": 60, "note": 76, "velocity": 111, "channel": 0}, {"type": "note_on", "time": 11, "note": 75, "velocity": 108, "channel": 0}, {"type": "note_off", "time": 85, "note": 75, "velocity": 108, "channel": 0}, {"type": "note_on", "time": 19, "note": 79, "velocity": 112, "channel": 0}, {"type": "note_off", "time": 76, "note": 79, "velocity": 112, "channel": 0}, {"type": "note_on", "time": 23, "note": 77, "velocity": 109, "channel": 0}, {"type": "note_off", "time": 66, "note": 77, "velocity": 109, "channel": 0}, {"type": "note_on", "time": 17, "note": 74, "velocity": 115, "channel": 0}, {"type": "note_off", "time": 74, "note": 74, "velocity": 115, "channel": 0}, {"type": "note_on", "time": 16, "note": 72, "velocity": 104, "channel": 0}, {"type": "note_off", "time": 70, "note": 72, "velocity": 104, "channel": 0}, {"type": "note_on", "time": 39, "note": 77, "velocity": 112, "channel": 0}, {"type": "note_off", "time": 58, "note": 77, "velocity": 112, "channel": 0}, {"type": "note_on", "time": 13, "note": 75, "velocity": 113, "channel": 0}, {"type": "note_off", "time": 60, "note": 75, "velocity": 113, "channel": 0}, {"type": "note_on", "time": 12, "note": 74, "velocity": 101, "channel": 0}, {"type": "note_off", "time": 39, "note": 74, "velocity": 101, "channel": 0}, {"type": "note_on", "time": 3, "note": 73, "velocity": 113, "channel": 0}, {"type": "note_off", "time": 83, "note": 73, "velocity": 113, "channel": 0}, {"type": "note_on", "time": 14, "note": 74, "velocity": 113, "channel": 0}, {"type": "note_off", "time": 135, "note": 74, "velocity": 113, "channel": 0}, {"type": "note_on", "time": 24, "note": 70, "velocity": 105, "channel": 0}, {"type": "note_off", "time": 325, "note": 70, "velocity": 105, "channel": 0}, {"type": "note_on", "time": 13, "note": 69, "velocity": 104, "channel": 0}, {"type": "note_off", "time": 94, "note": 69, "velocity": 104, "channel": 0}, {"type": "note_on", "time": 1, "note": 68, "velocity": 107, "channel": 0}, {"type": "note_off", "time": 224, "note": 68, "velocity": 107, "channel": 0}, {"type": "note_on", "time": 22, "note": 67, "velocity": 103, "channel": 0}, {"type": "note_off", "time": 67, "note": 67, "velocity": 103, "channel": 0}, {"type": "note_on", "time": 29, "note": 65, "velocity": 103, "channel": 0}, {"type": "note_off", "time": 62, "note": 65, "velocity": 103, "channel": 0}, {"type": "note_on", "time": 26, "note": 63, "velocity": 101, "channel": 0}, {"type": "note_off", "time": 67, "note": 63, "velocity": 101, "channel": 0}, {"type": "note_on", "time": 15, "note": 62, "velocity": 99, "channel": 0}, {"type": "note_off", "time": 99, "note": 62, "velocity": 99, "channel": 0}, {"type": "note_on", "time": 22, "note": 65, "velocity": 106, "channel": 0}, {"type": "note_off", "time": 58, "note": 65, "velocity": 106, "channel": 0}, {"type": "note_on", "time": 40, "note": 63, "velocity": 102, "channel": 0}, {"type": "note_off", "time": 88, "note": 63, "velocity": 102, "channel": 0}, {"type": "note_on", "time": 27, "note": 59, "velocity": 91, "channel": 0}, {"type": "note_off", "time": 51, "note": 59, "velocity": 91, "channel": 0}, {"type": "note_on", "time": 19, "note": 63, "velocity": 101, "channel": 0}, {"type": "note_off", "time": 67, "note": 63, "velocity": 101, "channel": 0}, {"type": "note_on", "time": 27, "note": 65, "velocity": 103, "channel": 0}, {"type": "note_off", "time": 44, "note": 65, "velocity": 103, "channel": 0}, {"type": "note_on", "time": 35, "note": 67, "velocity": 104, "channel": 0}, {"type": "note_off", "time": 89, "note": 67, "velocity": 104, "channel": 0}, {"type": "note_on", "time": 14, "note": 69, "velocity": 107, "channel": 0}, {"type": "note_off", "time": 74, "note": 69, "velocity": 107, "channel": 0}, {"type": "note_on", "time": 2, "note": 70, "velocity": 112, "channel": 0}, {"type": "note_off", "time": 89, "note": 70, "velocity": 112, "channel": 0}, {"type": "note_on", "time": 20, "note": 72, "velocity": 113, "channel": 0}, {"type": "note_off", "time": 63, "note": 72, "velocity": 113, "channel": 0}, {"type": "note_on", "time": 17, "note": 74, "velocity": 112, "channel": 0}, {"type": "note_off", "time": 89, "note": 74, "velocity": 112, "channel": 0}, {"type": "note_on", "time": 10, "note": 79, "velocity": 111, "channel": 0}, {"type": "note_off", "time": 58, "note": 79, "velocity": 111, "channel": 0}, {"type": "note_on", "time": 959, "note": 81, "velocity": 118, "channel": 0}, {"type": "note_off", "time": 66, "note": 81, "velocity": 118, "channel": 0}, {"type": "note_on", "time": 19, "note": 81, "velocity": 117, "channel": 0}, {"type": "note_off", "time": 71, "note": 81, "velocity": 117, "channel": 0}, {"type": "note_on", "time": 15, "note": 81, "velocity": 109, "channel": 0}, {"type": "note_off", "time": 76, "note": 81, "velocity": 109, "channel": 0}, {"type": "note_on", "time": 38, "note": 84, "velocity": 107, "channel": 0}, {"type": "note_off", "time": 74, "note": 84, "velocity": 107, "channel": 0}, {"type": "note_on", "time": 28, "note": 79, "velocity": 104, "channel": 0}, {"type": "note_off", "time": 74, "note": 79, "velocity": 104, "channel": 0}, {"type": "note_on", "time": 37, "note": 82, "velocity": 109, "channel": 0}, {"type": "note_off", "time": 69, "note": 82, "velocity": 109, "channel": 0}, {"type": "note_on", "time": 11, "note": 79, "velocity": 106, "channel": 0}, {"type": "note_off", "time": 80, "note": 79, "velocity": 106, "channel": 0}, {"type": "note_on", "time": 25, "note": 81, "velocity": 108, "channel": 0}, {"type": "note_off", "time": 67, "note": 81, "velocity": 108, "channel": 0}, {"type": "note_on", "time": 9, "note": 80, "velocity": 100, "channel": 0}, {"type": "note_off", "time": 80, "note": 80, "velocity": 100, "channel": 0}, {"type": "note_on", "time": 24, "note": 77, "velocity": 116, "channel": 0}, {"type": "note_off", "time": 80, "note": 77, "velocity": 116, "channel": 0}, {"type": "note_on", "time": 19, "note": 75, "velocity": 105, "channel": 0}, {"type": "note_off", "time": 69, "note": 75, "velocity": 105, "channel": 0}, {"type": "note_on", "time": 29, "note": 70, "velocity": 99, "channel": 0}, {"type": "note_off", "time": 41, "note": 70, "velocity": 99, "channel": 0}, {"type": "note_on", "time": 20, "note": 77, "velocity": 113, "channel": 0}, {"type": "note_off", "time": 65, "note": 77, "velocity": 113, "channel": 0}, {"type": "note_on", "time": 8, "note": 75, "velocity": 112, "channel": 0}, {"type": "note_off", "time": 78, "note": 75, "velocity": 112, "channel": 0}, {"type": "note_on", "time": 22, "note": 76, "velocity": 117, "channel": 0}, {"type": "note_off", "time": 78, "note": 76, "velocity": 117, "channel": 0}, {"type": "note_on", "time": 41, "note": 73, "velocity": 113, "channel": 0}, {"type": "note_off", "time": 78, "note": 73, "velocity": 113, "channel": 0}, {"type": "note_on", "time": 17, "note": 71, "velocity": 99, "channel": 0}, {"type": "note_off", "time": 44, "note": 71, "velocity": 99, "channel": 0}, {"type": "note_on", "time": 48, "note": 76, "velocity": 116, "channel": 0}, {"type": "note_off", "time": 81, "note": 76, "velocity": 116, "channel": 0}, {"type": "note_on", "time": 6, "note": 77, "velocity": 117, "channel": 0}, {"type": "note_off", "time": 65, "note": 77, "velocity": 117, "channel": 0}, {"type": "note_on", "time": 4, "note": 76, "velocity": 111, "channel": 0}, {"type": "note_off", "time": 70, "note": 76, "velocity": 111, "channel": 0}, {"type": "note_on", "time": 6, "note": 75, "velocity": 110, "channel": 0}, {"type": "note_off", "time": 105, "note": 75, "velocity": 110, "channel": 0}, {"type": "note_on", "time": 29, "note": 78, "velocity": 116, "channel": 0}, {"type": "note_off", "time": 55, "note": 78, "velocity": 116, "channel": 0}, {"type": "note_on", "time": 17, "note": 76, "velocity": 113, "channel": 0}, {"type": "note_off", "time": 76, "note": 76, "velocity": 113, "channel": 0}, {"type": "note_on", "time": 23, "note": 73, "velocity": 111, "channel": 0}, {"type": "note_off", "time": 94, "note": 73, "velocity": 111, "channel": 0}, {"type": "note_on", "time": 17, "note": 71, "velocity": 113, "channel": 0}, {"type": "note_off", "time": 40, "note": 71, "velocity": 113, "channel": 0}, {"type": "note_on", "time": 37, "note": 69, "velocity": 101, "channel": 0}, {"type": "note_off", "time": 59, "note": 69, "velocity": 101, "channel": 0}, {"type": "note_on", "time": 22, "note": 76, "velocity": 107, "channel": 0}, {"type": "note_off", "time": 49, "note": 76, "velocity": 107, "channel": 0}, {"type": "note_on", "time": 12, "note": 73, "velocity": 106, "channel": 0}, {"type": "note_off", "time": 41, "note": 73, "velocity": 106, "channel": 0}, {"type": "note_on", "time": 20, "note": 71, "velocity": 112, "channel": 0}, {"type": "note_off", "time": 60, "note": 71, "velocity": 112, "channel": 0}, {"type": "note_on", "time": 12, "note": 73, "velocity": 110, "channel": 0}, {"type": "note_off", "time": 55, "note": 73, "velocity": 110, "channel": 0}, {"type": "note_on", "time": 33, "note": 69, "velocity": 110, "channel": 0}, {"type": "note_off", "time": 71, "note": 69, "velocity": 110, "channel": 0}, {"type": "note_on", "time": 8, "note": 66, "velocity": 104, "channel": 0}, {"type": "note_off", "time": 78, "note": 66, "velocity": 104, "channel": 0}, {"type": "note_on", "time": 41, "note": 64, "velocity": 90, "channel": 0}, {"type": "note_off", "time": 55, "note": 64, "velocity": 90, "channel": 0}, {"type": "note_on", "time": 14, "note": 70, "velocity": 113, "channel": 0}, {"type": "note_off", "time": 89, "note": 70, "velocity": 113, "channel": 0}, {"type": "note_on", "time": 24, "note": 72, "velocity": 107, "channel": 0}, {"type": "note_off", "time": 53, "note": 72, "velocity": 107, "channel": 0}, {"type": "note_on", "time": 16, "note": 74, "velocity": 110, "channel": 0}, {"type": "note_off", "time": 69, "note": 74, "velocity": 110, "channel": 0}, {"type": "note_on", "time": 38, "note": 79, "velocity": 103, "channel": 0}, {"type": "note_off", "time": 81, "note": 79, "velocity": 103, "channel": 0}, {"type": "note_on", "time": 443, "note": 77, "velocity": 117, "channel": 0}, {"type": "note_off", "time": 68, "note": 77, "velocity": 117, "channel": 0}, {"type": "note_on", "time": 6, "note": 76, "velocity": 113, "channel": 0}, {"type": "note_off", "time": 52, "note": 76, "velocity": 113, "channel": 0}, {"type": "note_on", "time": 22, "note": 75, "velocity": 110, "channel": 0}, {"type": "note_off", "time": 89, "note": 75, "velocity": 110, "channel": 0}, {"type": "note_on", "time": 40, "note": 79, "velocity": 101, "channel": 0}, {"type": "note_off", "time": 71, "note": 79, "velocity": 101, "channel": 0}, {"type": "note_on", "time": 22, "note": 74, "velocity": 113, "channel": 0}, {"type": "note_off", "time": 45, "note": 74, "velocity": 113, "channel": 0}, {"type": "note_on", "time": 29, "note": 74, "velocity": 111, "channel": 0}, {"type": "note_off", "time": 52, "note": 74, "velocity": 111, "channel": 0}, {"type": "note_on", "time": 26, "note": 72, "velocity": 102, "channel": 0}, {"type": "note_off", "time": 66, "note": 72, "velocity": 102, "channel": 0}, {"type": "note_on", "time": 37, "note": 77, "velocity": 114, "channel": 0}, {"type": "note_off", "time": 69, "note": 77, "velocity": 114, "channel": 0}, {"type": "note_on", "time": 6, "note": 75, "velocity": 112, "channel": 0}, {"type": "note_off", "time": 48, "note": 75, "velocity": 112, "channel": 0}, {"type": "note_on", "time": 73, "note": 68, "velocity": 99, "channel": 0}, {"type": "note_off", "time": 67, "note": 68, "velocity": 99, "channel": 0}, {"type": "note_on", "time": 8, "note": 70, "velocity": 105, "channel": 0}, {"type": "note_off", "time": 67, "note": 70, "velocity": 105, "channel": 0}, {"type": "note_on", "time": 24, "note": 73, "velocity": 113, "channel": 0}, {"type": "note_off", "time": 71, "note": 73, "velocity": 113, "channel": 0}, {"type": "note_on", "time": 19, "note": 71, "velocity": 109, "channel": 0}, {"type": "note_off", "time": 91, "note": 71, "velocity": 109, "channel": 0}, {"type": "note_on", "time": 20, "note": 64, "velocity": 102, "channel": 0}, {"type": "note_off", "time": 63, "note": 64, "velocity": 102, "channel": 0}, {"type": "note_on", "time": 19, "note": 69, "velocity": 109, "channel": 0}, {"type": "note_off", "time": 76, "note": 69, "velocity": 109, "channel": 0}, {"type": "note_on", "time": 29, "note": 71, "velocity": 99, "channel": 0}, {"type": "note_off", "time": 45, "note": 71, "velocity": 99, "channel": 0}, {"type": "note_on", "time": 2, "note": 73, "velocity": 115, "channel": 0}, {"type": "note_off", "time": 129, "note": 73, "velocity": 115, "channel": 0}, {"type": "note_on", "time": 849, "note": 77, "velocity": 102, "channel": 0}, {"type": "note_off", "time": 71, "note": 77, "velocity": 102, "channel": 0}, {"type": "note_on", "time": 9, "note": 72, "velocity": 105, "channel": 0}, {"type": "note_off", "time": 62, "note": 72, "velocity": 105, "channel": 0}, {"type": "note_on", "time": 6, "note": 73, "velocity": 115, "channel": 0}, {"type": "note_off", "time": 84, "note": 73, "velocity": 115, "channel": 0}, {"type": "note_on", "time": 4, "note": 74, "velocity": 102, "channel": 0}, {"type": "note_off", "time": 48, "note": 74, "velocity": 102, "channel": 0}, {"type": "note_on", "time": 31, "note": 68, "velocity": 106, "channel": 0}, {"type": "note_off", "time": 91, "note": 68, "velocity": 106, "channel": 0}, {"type": "note_on", "time": 12, "note": 70, "velocity": 95, "channel": 0}, {"type": "note_off", "time": 45, "note": 70, "velocity": 95, "channel": 0}, {"type": "note_on", "time": 18, "note": 73, "velocity": 114, "channel": 0}, {"type": "note_off", "time": 81, "note": 73, "velocity": 114, "channel": 0}, {"type": "note_on", "time": 11, "note": 71, "velocity": 110, "channel": 0}, {"type": "note_off", "time": 60, "note": 71, "velocity": 110, "channel": 0}, {"type": "note_on", "time": 41, "note": 68, "velocity": 99, "channel": 0}, {"type": "note_off", "time": 48, "note": 68, "velocity": 99, "channel": 0}, {"type": "note_on", "time": 4, "note": 69, "velocity": 111, "channel": 0}, {"type": "note_off", "time": 95, "note": 69, "velocity": 111, "channel": 0}, {"type": "note_on", "time": 15, "note": 71, "velocity": 112, "channel": 0}, {"type": "note_off", "time": 71, "note": 71, "velocity": 112, "channel": 0}, {"type": "note_on", "time": 5, "note": 73, "velocity": 107, "channel": 0}, {"type": "note_off", "time": 42, "note": 73, "velocity": 107, "channel": 0}, {"type": "note_on", "time": 29, "note": 69, "velocity": 109, "channel": 0}, {"type": "note_off", "time": 81, "note": 69, "velocity": 109, "channel": 0}, {"type": "note_on", "time": 19, "note": 66, "velocity": 100, "channel": 0}, {"type": "note_off", "time": 113, "note": 66, "velocity": 100, "channel": 0}, {"type": "note_on", "time": 15, "note": 65, "velocity": 95, "channel": 0}, {"type": "note_off", "time": 49, "note": 65, "velocity": 95, "channel": 0}, {"type": "note_on", "time": 6, "note": 70, "velocity": 112, "channel": 0}, {"type": "note_off", "time": 89, "note": 70, "velocity": 112, "channel": 0}, {"type": "note_on", "time": 26, "note": 69, "velocity": 108, "channel": 0}, {"type": "note_off", "time": 65, "note": 69, "velocity": 108, "channel": 0}, {"type": "note_on", "time": 6, "note": 68, "velocity": 107, "channel": 0}, {"type": "note_off", "time": 71, "note": 68, "velocity": 107, "channel": 0}, {"type": "note_on", "time": 28, "note": 70, "velocity": 111, "channel": 0}, {"type": "note_off", "time": 51, "note": 70, "velocity": 111, "channel": 0}, {"type": "note_on", "time": 9, "note": 67, "velocity": 106, "channel": 0}, {"type": "note_off", "time": 99, "note": 67, "velocity": 106, "channel": 0}, {"type": "note_on", "time": 26, "note": 68, "velocity": 106, "channel": 0}, {"type": "note_off", "time": 60, "note": 68, "velocity": 106, "channel": 0}, {"type": "note_on", "time": 20, "note": 69, "velocity": 112, "channel": 0}, {"type": "note_off", "time": 78, "note": 69, "velocity": 112, "channel": 0}, {"type": "note_on", "time": 45, "note": 64, "velocity": 103, "channel": 0}, {"type": "note_off", "time": 74, "note": 64, "velocity": 103, "channel": 0}, {"type": "note_on", "time": 105, "note": 65, "velocity": 107, "channel": 0}, {"type": "note_off", "time": 76, "note": 65, "velocity": 107, "channel": 0}, {"type": "note_on", "time": 17, "note": 63, "velocity": 100, "channel": 0}, {"type": "note_off", "time": 55, "note": 63, "velocity": 100, "channel": 0}, {"type": "note_on", "time": 23, "note": 59, "velocity": 95, "channel": 0}, {"type": "note_off", "time": 60, "note": 59, "velocity": 95, "channel": 0}, {"type": "note_on", "time": 35, "note": 63, "velocity": 100, "channel": 0}, {"type": "note_off", "time": 94, "note": 63, "velocity": 100, "channel": 0}, {"type": "note_on", "time": 66, "note": 62, "velocity": 89, "channel": 0}, {"type": "note_off", "time": 59, "note": 62, "velocity": 89, "channel": 0}, {"type": "note_on", "time": 18, "note": 64, "velocity": 106, "channel": 0}, {"type": "note_off", "time": 66, "note": 64, "velocity": 106, "channel": 0}, {"type": "note_on", "time": 29, "note": 63, "velocity": 86, "channel": 0}, {"type": "note_off", "time": 65, "note": 63, "velocity": 86, "channel": 0}, {"type": "note_on", "time": 12, "note": 65, "velocity": 109, "channel": 0}, {"type": "note_off", "time": 145, "note": 65, "velocity": 109, "channel": 0}, {"type": "note_on", "time": 621, "note": 73, "velocity": 113, "channel": 0}, {"type": "note_off", "time": 84, "note": 73, "velocity": 113, "channel": 0}, {"type": "note_on", "time": 41, "note": 66, "velocity": 95, "channel": 0}, {"type": "note_off", "time": 49, "note": 66, "velocity": 95, "channel": 0}, {"type": "note_on", "time": 27, "note": 72, "velocity": 107, "channel": 0}, {"type": "note_off", "time": 345, "note": 72, "velocity": 107, "channel": 0}, {"type": "note_on", "time": 16, "note": 73, "velocity": 10, "channel": 0}, {"type": "note_off", "time": 94, "note": 73, "velocity": 10, "channel": 0}, {"type": "note_on", "time": 58, "note": 70, "velocity": 100, "channel": 0}, {"type": "note_off", "time": 49, "note": 70, "velocity": 100, "channel": 0}, {"type": "note_on", "time": 9, "note": 72, "velocity": 120, "channel": 0}, {"type": "note_off", "time": 300, "note": 72, "velocity": 120, "channel": 0}, {"type": "note_on", "time": 65, "note": 70, "velocity": 119, "channel": 0}, {"type": "note_off", "time": 77, "note": 70, "velocity": 119, "channel": 0}, {"type": "note_on", "time": 51, "note": 66, "velocity": 100, "channel": 0}, {"type": "note_off", "time": 64, "note": 66, "velocity": 100, "channel": 0}, {"type": "note_on", "time": 0, "note": 67, "velocity": 115, "channel": 0}, {"type": "note_off", "time": 327, "note": 67, "velocity": 115, "channel": 0}, {"type": "note_on", "time": 73, "note": 70, "velocity": 119, "channel": 0}, {"type": "note_off", "time": 99, "note": 70, "velocity": 119, "channel": 0}, {"type": "note_on", "time": 83, "note": 67, "velocity": 113, "channel": 0}, {"type": "note_off", "time": 274, "note": 67, "velocity": 113, "channel": 0}, {"type": "note_on", "time": 85, "note": 70, "velocity": 121, "channel": 0}, {"type": "note_off", "time": 77, "note": 70, "velocity": 121, "channel": 0}, {"type": "note_on", "time": 30, "note": 66, "velocity": 106, "channel": 0}, {"type": "note_off", "time": 56, "note": 66, "velocity": 106, "channel": 0}, {"type": "note_on", "time": 15, "note": 64, "velocity": 107, "channel": 0}, {"type": "note_off", "time": 137, "note": 64, "velocity": 107, "channel": 0}, {"type": "note_on", "time": 17, "note": 62, "velocity": 106, "channel": 0}, {"type": "note_off", "time": 715, "note": 62, "velocity": 106, "channel": 0}, {"type": "end_of_track", "time": 0}]]}