{"ticks_per_beat": 192, "tracks": [[{"type": "track_name", "name": "Melody", "time": 0}, {"type": "set_tempo", "tempo": 267857, "time": 0}, {"type": "key_signature", "key": "Db", "time": 0}, {"type": "time_signature", "numerator": 4, "denominator": 4, "clocks_per_click": 24, "notated_32nd_notes_per_beat": 8, "time": 0}, {"type": "note_on", "time": 3341, "note": 79, "velocity": 115, "channel": 0}, {"type": "note_off", "time": 85, "note": 79, "velocity": 115, "channel": 0}, {"type": "note_on", "time": 12, "note": 80, "velocity": 123, "channel": 0}, {"type": "note_off", "time": 507, "note": 80, "velocity": 123, "channel": 0}, {"type": "note_on", "time": 10, "note": 79, "velocity": 118, "channel": 0}, {"type": "note_off", "time": 119, "note": 79, "velocity": 118, "channel": 0}, {"type": "note_on", "time": 13, "note": 78, "velocity": 117, "channel": 0}, {"type": "note_off", "time": 737, "note": 78, "velocity": 117, "channel": 0}, {"type": "note_on", "time": 17, "note": 77, "velocity": 110, "channel": 0}, {"type": "note_off", "time": 76, "note": 77, "velocity": 110, "channel": 0}, {"type": "note_on", "time": 12, "note": 78, "velocity": 120, "channel": 0}, {"type": "note_off", "time": 179, "note": 78, "velocity": 120, "channel": 0}, {"type": "note_on", "time": 11, "note": 77, "velocity": 125, "channel": 0}, {"type": "note_off", "time": 130, "note": 77, "velocity": 125, "channel": 0}, {"type": "note_on", "time": 9, "note": 78, "velocity": 117, "channel": 0}, {"type": "note_off", "time": 356, "note": 78, "velocity": 117, "channel": 0}, {"type": "note_on", "time": 24, "note": 77, "velocity": 123, "channel": 0}, {"type": "note_off", "time": 107, "note": 77, "velocity": 123, "channel": 0}, {"type": "note_on", "time": 8, "note": 76, "velocity": 117, "channel": 0}, {"type": "note_off", "time": 518, "note": 76, "velocity": 117, "channel": 0}, {"type": "note_on", "time": 41, "note": 77, "velocity": 122, "channel": 0}, {"type": "note_off", "time": 112, "note": 77, "velocity": 122, "channel": 0}, {"type": "note_on", "time": 39, "note": 65, "velocity": 97, "channel": 0}, {"type": "note_off", "time": 30, "note": 65, "velocity": 97, "channel": 0}, {"type": "note_on", "time": 13, "note": 69, "velocity": 106, "channel": 0}, {"type": "note_off", "time": 131, "note": 69, "velocity": 106, "channel": 0}, {"type": "note_on", "time": 16, "note": 70, "velocity": 111, "channel": 0}, {"type": "note_off", "time": 184, "note": 70, "velocity": 111, "channel": 0}, {"type": "note_on", "time": 18, "note": 72, "velocity": 110, "channel": 0}, {"type": "note_off", "time": 166, "note": 72, "velocity": 110, "channel": 0}, {"type": "note_on", "time": 18, "note": 73, "velocity": 114, "channel": 0}, {"type": "note_off", "time": 188, "note": 73, "velocity": 114, "channel": 0}, {"type": "note_on", "time": 16, "note": 75, "velocity": 116, "channel": 0}, {"type": "note_off", "time": 352, "note": 75, "velocity": 116, "channel": 0}, {"type": "note_on", "time": 25, "note": 74, "velocity": 90, "channel": 0}, {"type": "note_off", "time": 43, "note": 74, "velocity": 90, "channel": 0}, {"type": "note_on", "time": 43, "note": 76, "velocity": 118, "channel": 0}, {"type": "note_off", "time": 549, "note": 76, "velocity": 118, "channel": 0}, {"type": "note_on", "time": 14, "note": 75, "velocity": 119, "channel": 0}, {"type": "note_off", "time": 125, "note": 75, "velocity": 119, "channel": 0}, {"type": "note_on", "time": 31, "note": 72, "velocity": 108, "channel": 0}, {"type": "note_off", "time": 571, "note": 72, "velocity": 108, "channel": 0}, {"type": "note_on", "time": 393, "note": 65, "velocity": 97, "channel": 0}, {"type": "note_off", "time": 40, "note": 65, "velocity": 97, "channel": 0}, {"type": "note_on", "time": 9, "note": 68, "velocity": 105, "channel": 0}, {"type": "note_off", "time": 124, "note": 68, "velocity": 105, "channel": 0}, {"type": "note_on", "time": 42, "note": 70, "velocity": 114, "channel": 0}, {"type": "note_off", "time": 125, "note": 70, "velocity": 114, "channel": 0}, {"type": "note_on", "time": 21, "note": 71, "velocity": 113, "channel": 0}, {"type": "note_off", "time": 115, "note": 71, "velocity": 113, "channel": 0}, {"type": "note_on", "time": 92, "note": 70, "velocity": 113, "channel": 0}, {"type": "note_off", "time": 62, "note": 70, "velocity": 113, "channel": 0}, {"type": "note_on", "time": 16, "note": 71, "velocity": 110, "channel": 0}, {"type": "note_off", "time": 299, "note": 71, "velocity": 110, "channel": 0}, {"type": "note_on", "time": 24, "note": 70, "velocity": 93, "channel": 0}, {"type": "note_off", "time": 49, "note": 70, "velocity": 93, "channel": 0}, {"type": "note_on", "time": 21, "note": 73, "velocity": 114, "channel": 0}, {"type": "note_off", "time": 100, "note": 73, "velocity": 114, "channel": 0}, {"type": "note_on", "time": 32, "note": 70, "velocity": 93, "channel": 0}, {"type": "note_off", "time": 32, "note": 70, "velocity": 93, "channel": 0}, {"type": "note_on", "time": 15, "note": 71, "velocity": 109, "channel": 0}, {"type": "note_off", "time": 114, "note": 71, "velocity": 109, "channel": 0}, {"type": "note_on", "time": 41, "note": 66, "velocity": 98, "channel": 0}, {"type": "note_off", "time": 289, "note": 66, "velocity": 98, "channel": 0}, {"type": "note_on", "time": 54, "note": 68, "velocity": 108, "channel": 0}, {"type": "note_off", "time": 85, "note": 68, "velocity": 108, "channel": 0}, {"type": "note_on", "time": 55, "note": 69, "velocity": 112, "channel": 0}, {"type": "note_off", "time": 89, "note": 69, "velocity": 112, "channel": 0}, {"type": "note_on", "time": 16, "note": 68, "velocity": 109, "channel": 0}, {"type": "note_off", "time": 104, "note": 68, "velocity": 109, "channel": 0}, {"type": "note_on", "time": 84, "note": 77, "velocity": 119, "channel": 0}, {"type": "note_off", "time": 610, "note": 77, "velocity": 119, "channel": 0}, {"type": "note_on", "time": 8, "note": 78, "velocity": 118, "channel": 0}, {"type": "note_off", "time": 111, "note": 78, "velocity": 118, "channel": 0}, {"type": "note_on", "time": 16, "note": 80, "velocity": 112, "channel": 0}, {"type": "note_off", "time": 1751, "note": 80, "velocity": 112, "channel": 0}, {"type": "note_on", "time": 10, "note": 77, "velocity": 104, "channel": 0}, {"type": "note_off", "time": 55, "note": 77, "velocity": 104, "channel": 0}, {"type": "note_on", "time": 22, "note": 78, "velocity": 117, "channel": 0}, {"type": "note_off", "time": 118, "note": 78, "velocity": 117, "channel": 0}, {"type": "note_on", "time": 75, "note": 77, "velocity": 120, "channel": 0}, {"type": "note_off", "time": 167, "note": 77, "velocity": 120, "channel": 0}, {"type": "note_on", "time": 10, "note": 75, "velocity": 114, "channel": 0}, {"type": "note_off", "time": 114, "note": 75, "velocity": 114, "channel": 0}, {"type": "note_on", "time": 16, "note": 71, "velocity": 103, "channel": 0}, {"type": "note_off", "time": 472, "note": 71, "velocity": 103, "channel": 0}, {"type": "note_on", "time": 537, "note": 65, "velocity": 93, "channel": 0}, {"type": "note_off", "time": 28, "note": 65, "velocity": 93, "channel": 0}, {"type": "note_on", "time": 22, "note": 67, "velocity": 101, "channel": 0}, {"type": "note_off", "time": 67, "note": 67, "velocity": 101, "channel": 0}, {"type": "note_on", "time": 10, "note": 69, "velocity": 110, "channel": 0}, {"type": "note_off", "time": 73, "note": 69, "velocity": 110, "channel": 0}, {"type": "note_on", "time": 106, "note": 70, "velocity": 116, "channel": 0}, {"type": "note_off", "time": 81, "note": 70, "velocity": 116, "channel": 0}, {"type": "note_on", "time": 18, "note": 72, "velocity": 113, "channel": 0}, {"type": "note_off", "time": 107, "note": 72, "velocity": 113, "channel": 0}, {"type": "note_on", "time": 27, "note": 73, "velocity": 115, "channel": 0}, {"type": "note_off", "time": 106, "note": 73, "velocity": 115, "channel": 0}, {"type": "note_on", "time": 78, "note": 75, "velocity": 119, "channel": 0}, {"type": "note_off", "time": 92, "note": 75, "velocity": 119, "channel": 0}, {"type": "note_on", "time": 106, "note": 69, "velocity": 108, "channel": 0}, {"type": "note_off", "time": 35, "note": 69, "velocity": 108, "channel": 0}, {"type": "note_on", "time": 76, "note": 76, "velocity": 106, "channel": 0}, {"type": "note_off", "time": 164, "note": 76, "velocity": 106, "channel": 0}, {"type": "note_on", "time": 14, "note": 75, "velocity": 116, "channel": 0}, {"type": "note_off", "time": 73, "note": 75, "velocity": 116, "channel": 0}, {"type": "note_on", "time": 27, "note": 73, "velocity": 112, "channel": 0}, {"type": "note_off", "time": 85, "note": 73, "velocity": 112, "channel": 0}, {"type": "note_on", "time": 15, "note": 72, "velocity": 112, "channel": 0}, {"type": "note_off", "time": 86, "note": 72, "velocity": 112, "channel": 0}, {"type": "note_on", "time": 22, "note": 70, "velocity": 112, "channel": 0}, {"type": "note_off", "time": 62, "note": 70, "velocity": 112, "channel": 0}, {"type": "note_on", "time": 23, "note": 67, "velocity": 94, "channel": 0}, {"type": "note_off", "time": 89, "note": 67, "velocity": 94, "channel": 0}, {"type": "note_on", "time": 30, "note": 68, "velocity": 102, "channel": 0}, {"type": "note_off", "time": 53, "note": 68, "velocity": 102, "channel": 0}, {"type": "note_on", "time": 15, "note": 69, "velocity": 109, "channel": 0}, {"type": "note_off", "time": 96, "note": 69, "velocity": 109, "channel": 0}, {"type": "note_on", "time": 19, "note": 64, "velocity": 91, "channel": 0}, {"type": "note_off", "time": 52, "note": 64, "velocity": 91, "channel": 0}, {"type": "note_on", "time": 15, "note": 67, "velocity": 106, "channel": 0}, {"type": "note_off", "time": 103, "note": 67, "velocity": 106, "channel": 0}, {"type": "note_on", "time": 24, "note": 64, "velocity": 89, "channel": 0}, {"type": "note_off", "time": 47, "note": 64, "velocity": 89, "channel": 0}, {"type": "note_on", "time": 19, "note": 65, "velocity": 100, "channel": 0}, {"type": "note_off", "time": 89, "note": 65, "velocity": 100, "channel": 0}, {"type": "note_on", "time": 124, "note": 69, "velocity": 111, "channel": 0}, {"type": "note_off", "time": 81, "note": 69, "velocity": 111, "channel": 0}, {"type": "note_on", "time": 36, "note": 72, "velocity": 110, "channel": 0}, {"type": "note_off", "time": 95, "note": 72, "velocity": 110, "channel": 0}, {"type": "note_on", "time": 27, "note": 69, "velocity": 77, "channel": 0}, {"type": "note_off", "time": 38, "note": 69, "velocity": 77, "channel": 0}, {"type": "note_on", "time": 7, "note": 76, "velocity": 121, "channel": 0}, {"type": "note_off", "time": 82, "note": 76, "velocity": 121, "channel": 0}, {"type": "note_on", "time": 21, "note": 79, "velocity": 111, "channel": 0}, {"type": "note_off", "time": 95, "note": 79, "velocity": 111, "channel": 0}, {"type": "note_on", "time": 19, "note": 76, "velocity": 93, "channel": 0}, {"type": "note_off", "time": 38, "note": 76, "velocity": 93, "channel": 0}, {"type": "note_on", "time": 29, "note": 77, "velocity": 119, "channel": 0}, {"type": "note_off", "time": 187, "note": 77, "velocity": 119, "channel": 0}, {"type": "note_on", "time": 11, "note": 76, "velocity": 117, "channel": 0}, {"type": "note_off", "time": 117, "note": 76, "velocity": 117, "channel": 0}, {"type": "note_on", "time": 16, "note": 73, "velocity": 97, "channel": 0}, {"type": "note_off", "time": 56, "note": 73, "velocity": 97, "channel": 0}, {"type": "note_on", "time": 12, "note": 74, "velocity": 117, "channel": 0}, {"type": "note_off", "time": 178, "note": 74, "velocity": 117, "channel": 0}, {"type": "note_on", "time": 8, "note": 73, "velocity": 113, "channel": 0}, {"type": "note_off", "time": 114, "note": 73, "velocity": 113, "channel": 0}, {"type": "note_on", "time": 23, "note": 70, "velocity": 95, "channel": 0}, {"type": "note_off", "time": 48, "note": 70, "velocity": 95, "channel": 0}, {"type": "note_on", "time": 32, "note": 71, "velocity": 106, "channel": 0}, {"type": "note_off", "time": 165, "note": 71, "velocity": 106, "channel": 0}, {"type": "note_on", "time": 20, "note": 70, "velocity": 114, "channel": 0}, {"type": "note_off", "time": 97, "note": 70, "velocity": 114, "channel": 0}, {"type": "note_on", "time": 25, "note": 67, "velocity": 94, "channel": 0}, {"type": "note_off", "time": 49, "note": 67, "velocity": 94, "channel": 0}, {"type": "note_on", "time": 16, "note": 68, "velocity": 108, "channel": 0}, {"type": "note_off", "time": 123, "note": 68, "velocity": 108, "channel": 0}, {"type": "note_on", "time": 9, "note": 65, "velocity": 94, "channel": 0}, {"type": "note_off", "time": 33, "note": 65, "velocity": 94, "channel": 0}, {"type": "note_on", "time": 20, "note": 66, "velocity": 93, "channel": 0}, {"type": "note_off", "time": 86, "note": 66, "velocity": 93, "channel": 0}, {"type": "note_on", "time": 42, "note": 68, "velocity": 108, "channel": 0}, {"type": "note_off", "time": 73, "note": 68, "velocity": 108, "channel": 0}, {"type": "note_on", "time": 110, "note": 69, "velocity": 111, "channel": 0}, {"type": "note_off", "time": 73, "note": 69, "velocity": 111, "channel": 0}, {"type": "note_on", "time": 127, "note": 68, "velocity": 106, "channel": 0}, {"type": "note_off", "time": 53, "note": 68, "velocity": 106, "channel": 0}, {"type": "note_on", "time": 35, "note": 66, "velocity": 105, "channel": 0}, {"type": "note_off", "time": 136, "note": 66, "velocity": 105, "channel": 0}, {"type": "note_on", "time": 46, "note": 68, "velocity": 107, "channel": 0}, {"type": "note_off", "time": 151, "note": 68, "velocity": 107, "channel": 0}, {"type": "note_on", "time": 8, "note": 65, "velocity": 99, "channel": 0}, {"type": "note_off", "time": 555, "note": 65, "velocity": 99, "channel": 0}, {"type": "note_on", "time": 385, "note": 65, "velocity": 95, "channel": 0}, {"type": "note_off", "time": 49, "note": 65, "velocity": 95, "channel": 0}, {"type": "note_on", "time": 29, "note": 68, "velocity": 110, "channel": 0}, {"type": "note_off", "time": 100, "note": 68, "velocity": 110, "channel": 0}, {"type": "note_on", "time": 11, "note": 70, "velocity": 116, "channel": 0}, {"type": "note_off", "time": 53, "note": 70, "velocity": 116, "channel": 0}, {"type": "note_on", "time": 11, "note": 71, "velocity": 113, "channel": 0}, {"type": "note_off", "time": 163, "note": 71, "velocity": 113, "channel": 0}, {"type": "note_on", "time": 13, "note": 70, "velocity": 114, "channel": 0}, {"type": "note_off", "time": 114, "note": 70, "velocity": 114, "channel": 0}, {"type": "note_on", "time": 115, "note": 78, "velocity": 116, "channel": 0}, {"type": "note_off", "time": 302, "note": 78, "velocity": 116, "channel": 0}, {"type": "note_on", "time": 9, "note": 77, "velocity": 122, "channel": 0}, {"type": "note_off", "time": 536, "note": 77, "velocity": 122, "channel": 0}, {"type": "note_on", "time": 50, "note": 65, "velocity": 99, "channel": 0}, {"type": "note_off", "time": 46, "note": 65, "velocity": 99, "channel": 0}, {"type": "note_on", "time": 19, "note": 66, "velocity": 99, "channel": 0}, {"type": "note_off", "time": 76, "note": 66, "velocity": 99, "channel": 0}, {"type": "note_on", "time": 10, "note": 68, "velocity": 112, "channel": 0}, {"type": "note_off", "time": 84, "note": 68, "velocity": 112, "channel": 0}, {"type": "note_on", "time": 10, "note": 69, "velocity": 115, "channel": 0}, {"type": "note_off", "time": 154, "note": 69, "velocity": 115, "channel": 0}, {"type": "note_on", "time": 18, "note": 68, "velocity": 115, "channel": 0}, {"type": "note_off", "time": 113, "note": 68, "velocity": 115, "channel": 0}, {"type": "note_on", "time": 106, "note": 76, "velocity": 114, "channel": 0}, {"type": "note_off", "time": 282, "note": 76, "velocity": 114, "channel": 0}, {"type": "note_on", "time": 18, "note": 75, "velocity": 119, "channel": 0}, {"type": "note_off", "time": 460, "note": 75, "velocity": 119, "channel": 0}, {"type": "note_on", "time": 360, "note": 72, "velocity": 116, "channel": 0}, {"type": "note_off", "time": 109, "note": 72, "velocity": 116, "channel": 0}, {"type": "note_on", "time": 5, "note": 67, "velocity": 105, "channel": 0}, {"type": "note_off", "time": 50, "note": 67, "velocity": 105, "channel": 0}, {"type": "note_on", "time": 9, "note": 64, "velocity": 107, "channel": 0}, {"type": "note_off", "time": 105, "note": 64, "velocity": 107, "channel": 0}, {"type": "note_on", "time": 19, "note": 65, "velocity": 97, "channel": 0}, {"type": "note_off", "time": 78, "note": 65, "velocity": 97, "channel": 0}, {"type": "note_on", "time": 23, "note": 68, "velocity": 104, "channel": 0}, {"type": "note_off", "time": 383, "note": 68, "velocity": 104, "channel": 0}, {"type": "note_on", "time": 105, "note": 65, "velocity": 105, "channel": 0}, {"type": "note_off", "time": 44, "note": 65, "velocity": 105, "channel": 0}, {"type": "note_on", "time": 11, "note": 63, "velocity": 106, "channel": 0}, {"type": "note_off", "time": 87, "note": 63, "velocity": 106, "channel": 0}, {"type": "note_on", "time": 5, "note": 61, "velocity": 94, "channel": 0}, {"type": "note_off", "time": 73, "note": 61, "velocity": 94, "channel": 0}, {"type": "note_on", "time": 19, "note": 69, "velocity": 116, "channel": 0}, {"type": "note_off", "time": 108, "note": 69, "velocity": 116, "channel": 0}, {"type": "note_on", "time": 9, "note": 64, "velocity": 90, "channel": 0}, {"type": "note_off", "time": 63, "note": 64, "velocity": 90, "channel": 0}, {"type": "note_on", "time": 10, "note": 65, "velocity": 102, "channel": 0}, {"type": "note_off", "time": 102, "note": 65, "velocity": 102, "channel": 0}, {"type": "note_on", "time": 12, "note": 69, "velocity": 104, "channel": 0}, {"type": "note_off", "time": 69, "note": 69, "velocity": 104, "channel": 0}, {"type": "note_on", "time": 14, "note": 73, "velocity": 117, "channel": 0}, {"type": "note_off", "time": 86, "note": 73, "velocity": 117, "channel": 0}, {"type": "note_on", "time": 97, "note": 77, "velocity": 123, "channel": 0}, {"type": "note_off", "time": 197, "note": 77, "velocity": 123, "channel": 0}, {"type": "note_on", "time": 42, "note": 81, "velocity": 115, "channel": 0}, {"type": "note_off", "time": 326, "note": 81, "velocity": 115, "channel": 0}, {"type": "note_on", "time": 38, "note": 80, "velocity": 116, "channel": 0}, {"type": "note_off", "time": 645, "note": 80, "velocity": 116, "channel": 0}, {"type": "note_on", "time": 8, "note": 77, "velocity": 108, "channel": 0}, {"type": "note_off", "time": 67, "note": 77, "velocity": 108, "channel": 0}, {"type": "note_on", "time": 6, "note": 80, "velocity": 115, "channel": 0}, {"type": "note_off", "time": 105, "note": 80, "velocity": 115, "channel": 0}, {"type": "note_on", "time": 18, "note": 77, "velocity": 106, "channel": 0}, {"type": "note_off", "time": 52, "note": 77, "velocity": 106, "channel": 0}, {"type": "note_on", "time": 9, "note": 80, "velocity": 114, "channel": 0}, {"type": "note_off", "time": 125, "note": 80, "velocity": 114, "channel": 0}, {"type": "note_on", "time": 86, "note": 80, "velocity": 114, "channel": 0}, {"type": "note_off", "time": 393, "note": 80, "velocity": 114, "channel": 0}, {"type": "note_on", "time": 13, "note": 80, "velocity": 113, "channel": 0}, {"type": "note_off", "time": 413, "note": 80, "velocity": 113, "channel": 0}, {"type": "note_on", "time": 307, "note": 78, "velocity": 118, "channel": 0}, {"type": "note_off", "time": 163, "note": 78, "velocity": 118, "channel": 0}, {"type": "note_on", "time": 10, "note": 77, "velocity": 108, "channel": 0}, {"type": "note_off", "time": 49, "note": 77, "velocity": 108, "channel": 0}, {"type": "note_on", "time": 6, "note": 78, "velocity": 120, "channel": 0}, {"type": "note_off", "time": 128, "note": 78, "velocity": 120, "channel": 0}, {"type": "note_on", "time": 8, "note": 78, "velocity": 119, "channel": 0}, {"type": "note_off", "time": 361, "note": 78, "velocity": 119, "channel": 0}, {"type": "note_on", "time": 19, "note": 77, "velocity": 122, "channel": 0}, {"type": "note_off", "time": 76, "note": 77, "velocity": 122, "channel": 0}, {"type": "note_on", "time": 12, "note": 78, "velocity": 120, "channel": 0}, {"type": "note_off", "time": 280, "note": 78, "velocity": 120, "channel": 0}, {"type": "note_on", "time": 40, "note": 79, "velocity": 114, "channel": 0}, {"type": "note_off", "time": 66, "note": 79, "velocity": 114, "channel": 0}, {"type": "note_on", "time": 24, "note": 79, "velocity": 117, "channel": 0}, {"type": "note_off", "time": 65, "note": 79, "velocity": 117, "channel": 0}, {"type": "note_on", "time": 12, "note": 80, "velocity": 110, "channel": 0}, {"type": "note_off", "time": 81, "note": 80, "velocity": 110, "channel": 0}, {"type": "note_on", "time": 20, "note": 80, "velocity": 117, "channel": 0}, {"type": "note_off", "time": 99, "note": 80, "velocity": 117, "channel": 0}, {"type": "note_on", "time": 36, "note": 79, "velocity": 99, "channel": 0}, {"type": "note_off", "time": 41, "note": 79, "velocity": 99, "channel": 0}, {"type": "note_on", "time": 10, "note": 80, "velocity": 115, "channel": 0}, {"type": "note_off", "time": 88, "note": 80, "velocity": 115, "channel": 0}, {"type": "note_on", "time": 7, "note": 82, "velocity": 108, "channel": 0}, {"type": "note_off", "time": 51, "note": 82, "velocity": 108, "channel": 0}, {"type": "note_on", "time": 8, "note": 80, "velocity": 118, "channel": 0}, {"type": "note_off", "time": 26, "note": 80, "velocity": 118, "channel": 0}, {"type": "note_on", "time": 8, "note": 79, "velocity": 114, "channel": 0}, {"type": "note_off", "time": 99, "note": 79, "velocity": 114, "channel": 0}, {"type": "note_on", "time": 36, "note": 82, "velocity": 115, "channel": 0}, {"type": "note_off", "time": 115, "note": 82, "velocity": 115, "channel": 0}, {"type": "note_on", "time": 52, "note": 80, "velocity": 118, "channel": 0}, {"type": "note_off", "time": 108, "note": 80, "velocity": 118, "channel": 0}, {"type": "note_on", "time": 86, "note": 77, "velocity": 121, "channel": 0}, {"type": "note_off", "time": 107, "note": 77, "velocity": 121, "channel": 0}, {"type": "note_on", "time": 87, "note": 73, "velocity": 115, "channel": 0}, {"type": "note_off", "time": 78, "note": 73, "velocity": 115, "channel": 0}, {"type": "note_on", "time": 10, "note": 72, "velocity": 116, "channel": 0}, {"type": "note_off", "time": 92, "note": 72, "velocity": 116, "channel": 0}, {"type": "note_on", "time": 14, "note": 71, "velocity": 118, "channel": 0}, {"type": "note_off", "time": 76, "note": 71, "velocity": 118, "channel": 0}, {"type": "note_on", "time": 23, "note": 70, "velocity": 118, "channel": 0}, {"type": "note_off", "time": 97, "note": 70, "velocity": 118, "channel": 0}, {"type": "note_on", "time": 5, "note": 69, "velocity": 115, "channel": 0}, {"type": "note_off", "time": 71, "note": 69, "velocity": 115, "channel": 0}, {"type": "note_on", "time": 15, "note": 68, "velocity": 114, "channel": 0}, {"type": "note_off", "time": 95, "note": 68, "velocity": 114, "channel": 0}, {"type": "note_on", "time": 9, "note": 64, "velocity": 112, "channel": 0}, {"type": "note_off", "time": 77, "note": 64, "velocity": 112, "channel": 0}, {"type": "note_on", "time": 30, "note": 61, "velocity": 103, "channel": 0}, {"type": "note_off", "time": 108, "note": 61, "velocity": 103, "channel": 0}, {"type": "note_on", "time": 4, "note": 64, "velocity": 98, "channel": 0}, {"type": "note_off", "time": 35, "note": 64, "velocity": 98, "channel": 0}, {"type": "note_on", "time": 16, "note": 68, "velocity": 112, "channel": 0}, {"type": "note_off", "time": 94, "note": 68, "velocity": 112, "channel": 0}, {"type": "note_on", "time": 23, "note": 71, "velocity": 88, "channel": 0}, {"type": "note_off", "time": 47, "note": 71, "velocity": 88, "channel": 0}, {"type": "note_on", "time": 24, "note": 75, "velocity": 124, "channel": 0}, {"type": "note_off", "time": 171, "note": 75, "velocity": 124, "channel": 0}, {"type": "note_on", "time": 7, "note": 78, "velocity": 115, "channel": 0}, {"type": "note_off", "time": 67, "note": 78, "velocity": 115, "channel": 0}, {"type": "note_on", "time": 121, "note": 76, "velocity": 120, "channel": 0}, {"type": "note_off", "time": 322, "note": 76, "velocity": 120, "channel": 0}, {"type": "note_on", "time": 105, "note": 77, "velocity": 123, "channel": 0}, {"type": "note_off", "time": 100, "note": 77, "velocity": 123, "channel": 0}, {"type": "note_on", "time": 20, "note": 65, "velocity": 98, "channel": 0}, {"type": "note_off", "time": 54, "note": 65, "velocity": 98, "channel": 0}, {"type": "note_on", "time": 32, "note": 68, "velocity": 105, "channel": 0}, {"type": "note_off", "time": 161, "note": 68, "velocity": 105, "channel": 0}, {"type": "note_on", "time": 24, "note": 70, "velocity": 117, "channel": 0}, {"type": "note_off", "time": 184, "note": 70, "velocity": 117, "channel": 0}, {"type": "note_on", "time": 29, "note": 68, "velocity": 98, "channel": 0}, {"type": "note_off", "time": 84, "note": 68, "velocity": 98, "channel": 0}, {"type": "note_on", "time": 21, "note": 71, "velocity": 101, "channel": 0}, {"type": "note_off", "time": 460, "note": 71, "velocity": 101, "channel": 0}, {"type": "note_on", "time": 490, "note": 77, "velocity": 122, "channel": 0}, {"type": "note_off", "time": 106, "note": 77, "velocity": 122, "channel": 0}, {"type": "note_on", "time": 94, "note": 66, "velocity": 108, "channel": 0}, {"type": "note_off", "time": 58, "note": 66, "velocity": 108, "channel": 0}, {"type": "note_on", "time": 38, "note": 68, "velocity": 110, "channel": 0}, {"type": "note_off", "time": 141, "note": 68, "velocity": 110, "channel": 0}, {"type": "note_on", "time": 10, "note": 66, "velocity": 111, "channel": 0}, {"type": "note_off", "time": 92, "note": 66, "velocity": 111, "channel": 0}, {"type": "note_on", "time": 113, "note": 69, "velocity": 113, "channel": 0}, {"type": "note_off", "time": 117, "note": 69, "velocity": 113, "channel": 0}, {"type": "note_on", "time": 141, "note": 74, "velocity": 104, "channel": 0}, {"type": "note_off", "time": 564, "note": 74, "velocity": 104, "channel": 0}, {"type": "note_on", "time": 6, "note": 73, "velocity": 116, "channel": 0}, {"type": "note_off", "time": 77, "note": 73, "velocity": 116, "channel": 0}, {"type": "note_on", "time": 14, "note": 68, "velocity": 104, "channel": 0}, {"type": "note_off", "time": 65, "note": 68, "velocity": 104, "channel": 0}, {"type": "note_on", "time": 36, "note": 65, "velocity": 105, "channel": 0}, {"type": "note_off", "time": 79, "note": 65, "velocity": 105, "channel": 0}, {"type": "note_on", "time": 84, "note": 68, "velocity": 102, "channel": 0}, {"type": "note_off", "time": 141, "note": 68, "velocity": 102, "channel": 0}, {"type": "note_on", "time": 12, "note": 67, "velocity": 104, "channel": 0}, {"type": "note_off", "time": 38, "note": 67, "velocity": 104, "channel": 0}, {"type": "note_on", "time": 11, "note": 70, "velocity": 105, "channel": 0}, {"type": "note_off", "time": 105, "note": 70, "velocity": 105, "channel": 0}, {"type": "note_on", "time": 4, "note": 67, "velocity": 96, "channel": 0}, {"type": "note_off", "time": 59, "note": 67, "velocity": 96, "channel": 0}, {"type": "note_on", "time": 16, "note": 68, "velocity": 110, "channel": 0}, {"type": "note_off", "time": 279, "note": 68, "velocity": 110, "channel": 0}, {"type": "note_on", "time": 29, "note": 65, "velocity": 114, "channel": 0}, {"type": "note_off", "time": 78, "note": 65, "velocity": 114, "channel": 0}, {"type": "note_on", "time": 27, "note": 63, "velocity": 102, "channel": 0}, {"type": "note_off", "time": 99, "note": 63, "velocity": 102, "channel": 0}, {"type": "note_on", "time": 6, "note": 61, "velocity": 97, "channel": 0}, {"type": "note_off", "time": 153, "note": 61, "velocity": 97, "channel": 0}, {"type": "note_on", "time": 694, "note": 68, "velocity": 97, "channel": 0}, {"type": "note_off", "time": 86, "note": 68, "velocity": 97, "channel": 0}, {"type": "note_on", "time": 20, "note": 70, "velocity": 115, "channel": 0}, {"type": "note_off", "time": 62, "note": 70, "velocity": 115, "channel": 0}, {"type": "note_on", "time": 12, "note": 71, "velocity": 112, "channel": 0}, {"type": "note_off", "time": 104, "note": 71, "velocity": 112, "channel": 0}, {"type": "note_on", "time": 7, "note": 73, "velocity": 116, "channel": 0}, {"type": "note_off", "time": 73, "note": 73, "velocity": 116, "channel": 0}, {"type": "note_on", "time": 9, "note": 74, "velocity": 117, "channel": 0}, {"type": "note_off", "time": 86, "note": 74, "velocity": 117, "channel": 0}, {"type": "note_on", "time": 8, "note": 76, "velocity": 120, "channel": 0}, {"type": "note_off", "time": 83, "note": 76, "velocity": 120, "channel": 0}, {"type": "note_on", "time": 8, "note": 73, "velocity": 113, "channel": 0}, {"type": "note_off", "time": 89, "note": 73, "velocity": 113, "channel": 0}, {"type": "note_on", "time": 16, "note": 71, "velocity": 111, "channel": 0}, {"type": "note_off", "time": 76, "note": 71, "velocity": 111, "channel": 0}, {"type": "note_on", "time": 18, "note": 70, "velocity": 115, "channel": 0}, {"type": "note_off", "time": 79, "note": 70, "velocity": 115, "channel": 0}, {"type": "note_on", "time": 24, "note": 68, "velocity": 112, "channel": 0}, {"type": "note_off", "time": 52, "note": 68, "velocity": 112, "channel": 0}, {"type": "note_on", "time": 20, "note": 67, "velocity": 107, "channel": 0}, {"type": "note_off", "time": 90, "note": 67, "velocity": 107, "channel": 0}, {"type": "note_on", "time": 322, "note": 72, "velocity": 114, "channel": 0}, {"type": "note_off", "time": 91, "note": 72, "velocity": 114, "channel": 0}, {"type": "note_on", "time": 18, "note": 73, "velocity": 118, "channel": 0}, {"type": "note_off", "time": 81, "note": 73, "velocity": 118, "channel": 0}, {"type": "note_on", "time": 97, "note": 75, "velocity": 119, "channel": 0}, {"type": "note_off", "time": 740, "note": 75, "velocity": 119, "channel": 0}, {"type": "note_on", "time": 26, "note": 72, "velocity": 115, "channel": 0}, {"type": "note_off", "time": 75, "note": 72, "velocity": 115, "channel": 0}, {"type": "note_on", "time": 26, "note": 69, "velocity": 113, "channel": 0}, {"type": "note_off", "time": 95, "note": 69, "velocity": 113, "channel": 0}, {"type": "note_on", "time": 20, "note": 64, "velocity": 103, "channel": 0}, {"type": "note_off", "time": 36, "note": 64, "velocity": 103, "channel": 0}, {"type": "note_on", "time": 23, "note": 67, "velocity": 109, "channel": 0}, {"type": "note_off", "time": 120, "note": 67, "velocity": 109, "channel": 0}, {"type": "note_on", "time": 10, "note": 64, "velocity": 93, "channel": 0}, {"type": "note_off", "time": 46, "note": 64, "velocity": 93, "channel": 0}, {"type": "note_on", "time": 20, "note": 65, "velocity": 101, "channel": 0}, {"type": "note_off", "time": 173, "note": 65, "velocity": 101, "channel": 0}, {"type": "note_on", "time": 43, "note": 69, "velocity": 103, "channel": 0}, {"type": "note_off", "time": 75, "note": 69, "velocity": 103, "channel": 0}, {"type": "note_on", "time": 21, "note": 74, "velocity": 91, "channel": 0}, {"type": "note_off", "time": 51, "note": 74, "velocity": 91, "channel": 0}, {"type": "note_on", "time": 29, "note": 76, "velocity": 114, "channel": 0}, {"type": "note_off", "time": 107, "note": 76, "velocity": 114, "channel": 0}, {"type": "note_on", "time": 9, "note": 77, "velocity": 9, "channel": 0}, {"type": "note_off", "time": 832, "note": 77, "velocity": 9, "channel": 0}, {"type": "note_on", "time": 8, "note": 78, "velocity": 119, "channel": 0}, {"type": "note_off", "time": 116, "note": 78, "velocity": 119, "channel": 0}, {"type": "note_on", "time": 13, "note": 80, "velocity": 101, "channel": 0}, {"type": "note_off", "time": 62, "note": 80, "velocity": 101, "channel": 0}, {"type": "note_on", "time": 10, "note": 77, "velocity": 121, "channel": 0}, {"type": "note_off", "time": 392, "note": 77, "velocity": 121, "channel": 0}, {"type": "note_on", "time": 5, "note": 78, "velocity": 117, "channel": 0}, {"type": "note_off", "time": 100, "note": 78, "velocity": 117, "channel": 0}, {"type": "note_on", "time": 9, "note": 80, "velocity": 105, "channel": 0}, {"type": "note_off", "time": 56, "note": 80, "velocity": 105, "channel": 0}, {"type": "note_on", "time": 17, "note": 77, "velocity": 120, "channel": 0}, {"type": "note_off", "time": 555, "note": 77, "velocity": 120, "channel": 0}, {"type": "note_on", "time": 19, "note": 78, "velocity": 118, "channel": 0}, {"type": "note_off", "time": 98, "note": 78, "velocity": 118, "channel": 0}, {"type": "note_on", "time": 9, "note": 80, "velocity": 105, "channel": 0}, {"type": "note_off", "time": 40, "note": 80, "velocity": 105, "channel": 0}, {"type": "note_on", "time": 56, "note": 76, "velocity": 116, "channel": 0}, {"type": "note_off", "time": 548, "note": 76, "velocity": 116, "channel": 0}, {"type": "note_on", "time": 10, "note": 78, "velocity": 116, "channel": 0}, {"type": "note_off", "time": 117, "note": 78, "velocity": 116, "channel": 0}, {"type": "note_on", "time": 5, "note": 80, "velocity": 106, "channel": 0}, {"type": "note_off", "time": 53, "note": 80, "velocity": 106, "channel": 0}, {"type": "note_on", "time": 23, "note": 77, "velocity": 115, "channel": 0}, {"type": "note_off", "time": 759, "note": 77, "velocity": 115, "channel": 0}, {"type": "note_on", "time": 24, "note": 76, "velocity": 114, "channel": 0}, {"type": "note_off", "time": 128, "note": 76, "velocity": 114, "channel": 0}, {"type": "note_on", "time": 49, "note": 77, "velocity": 119, "channel": 0}, {"type": "note_off", "time": 166, "note": 77, "velocity": 119, "channel": 0}, {"type": "note_on", "time": 29, "note": 76, "velocity": 117, "channel": 0}, {"type": "note_off", "time": 133, "note": 76, "velocity": 117, "channel": 0}, {"type": "note_on", "time": 5, "note": 78, "velocity": 112, "channel": 0}, {"type": "note_off", "time": 554, "note": 78, "velocity": 112, "channel": 0}, {"type": "note_on", "time": 402, "note": 70, "velocity": 90, "channel": 0}, {"type": "note_off", "time": 55, "note": 70, "velocity": 90, "channel": 0}, {"type": "note_on", "time": 35, "note": 84, "velocity": 127, "channel": 0}, {"type": "note_off", "time": 102, "note": 84, "velocity": 127, "channel": 0}, {"type": "note_on", "time": 13, "note": 83, "velocity": 123, "channel": 0}, {"type": "note_off", "time": 70, "note": 83, "velocity": 123, "channel": 0}, {"type": "note_on", "time": 15, "note": 82, "velocity": 121, "channel": 0}, {"type": "note_off", "time": 84, "note": 82, "velocity": 121, "channel": 0}, {"type": "note_on", "time": 13, "note": 81, "velocity": 119, "channel": 0}, {"type": "note_off", "time": 76, "note": 81, "velocity": 119, "channel": 0}, {"type": "note_on", "time": 13, "note": 80, "velocity": 117, "channel": 0}, {"type": "note_off", "time": 96, "note": 80, "velocity": 117, "channel": 0}, {"type": "note_on", "time": 13, "note": 79, "velocity": 119, "channel": 0}, {"type": "note_off", "time": 76, "note": 79, "velocity": 119, "channel": 0}, {"type": "note_on", "time": 16, "note": 78, "velocity": 118, "channel": 0}, {"type": "note_off", "time": 87, "note": 78, "velocity": 118, "channel": 0}, {"type": "note_on", "time": 11, "note": 77, "velocity": 124, "channel": 0}, {"type": "note_off", "time": 83, "note": 77, "velocity": 124, "channel": 0}, {"type": "note_on", "time": 9, "note": 75, "velocity": 118, "channel": 0}, {"type": "note_off", "time": 84, "note": 75, "velocity": 118, "channel": 0}, {"type": "note_on", "time": 11, "note": 76, "velocity": 118, "channel": 0}, {"type": "note_off", "time": 103, "note": 76, "velocity": 118, "channel": 0}, {"type": "note_on", "time": 75, "note": 73, "velocity": 115, "channel": 0}, {"type": "note_off", "time": 61, "note": 73, "velocity": 115, "channel": 0}, {"type": "note_on", "time": 19, "note": 72, "velocity": 110, "channel": 0}, {"type": "note_off", "time": 94, "note": 72, "velocity": 110, "channel": 0}, {"type": "note_on", "time": 13, "note": 71, "velocity": 115, "channel": 0}, {"type": "note_off", "time": 62, "note": 71, "velocity": 115, "channel": 0}, {"type": "note_on", "time": 20, "note": 70, "velocity": 115, "channel": 0}, {"type": "note_off", "time": 88, "note": 70, "velocity": 115, "channel": 0}, {"type": "note_on", "time": 30, "note": 69, "velocity": 115, "channel": 0}, {"type": "note_off", "time": 57, "note": 69, "velocity": 115, "channel": 0}, {"type": "note_on", "time": 19, "note": 68, "velocity": 111, "channel": 0}, {"type": "note_off", "time": 76, "note": 68, "velocity": 111, "channel": 0}, {"type": "note_on", "time": 20, "note": 64, "velocity": 110, "channel": 0}, {"type": "note_off", "time": 72, "note": 64, "velocity": 110, "channel": 0}, {"type": "note_on", "time": 31, "note": 67, "velocity": 115, "channel": 0}, {"type": "note_off", "time": 67, "note": 67, "velocity": 115, "channel": 0}, {"type": "note_on", "time": 21, "note": 64, "velocity": 110, "channel": 0}, {"type": "note_off", "time": 67, "note": 64, "velocity": 110, "channel": 0}, {"type": "note_on", "time": 24, "note": 62, "velocity": 96, "channel": 0}, {"type": "note_off", "time": 59, "note": 62, "velocity": 96, "channel": 0}, {"type": "note_on", "time": 42, "note": 60, "velocity": 95, "channel": 0}, {"type": "note_off", "time": 54, "note": 60, "velocity": 95, "channel": 0}, {"type": "note_on", "time": 33, "note": 68, "velocity": 114, "channel": 0}, {"type": "note_off", "time": 76, "note": 68, "velocity": 114, "channel": 0}, {"type": "note_on", "time": 51, "note": 61, "velocity": 104, "channel": 0}, {"type": "note_off", "time": 60, "note": 61, "velocity": 104, "channel": 0}, {"type": "note_on", "time": 17, "note": 65, "velocity": 94, "channel": 0}, {"type": "note_off", "time": 60, "note": 65, "velocity": 94, "channel": 0}, {"type": "note_on", "time": 14, "note": 68, "velocity": 109, "channel": 0}, {"type": "note_off", "time": 55, "note": 68, "velocity": 109, "channel": 0}, {"type": "note_on", "time": 43, "note": 70, "velocity": 117, "channel": 0}, {"type": "note_off", "time": 73, "note": 70, "velocity": 117, "channel": 0}, {"type": "note_on", "time": 25, "note": 65, "velocity": 100, "channel": 0}, {"type": "note_off", "time": 62, "note": 65, "velocity": 100, "channel": 0}, {"type": "note_on", "time": 24, "note": 68, "velocity": 98, "channel": 0}, {"type": "note_off", "time": 73, "note": 68, "velocity": 98, "channel": 0}, {"type": "note_on", "time": 44, "note": 67, "velocity": 112, "channel": 0}, {"type": "note_off", "time": 64, "note": 67, "velocity": 112, "channel": 0}, {"type": "note_on", "time": 113, "note": 73, "velocity": 112, "channel": 0}, {"type": "note_off", "time": 57, "note": 73, "velocity": 112, "channel": 0}, {"type": "note_on", "time": 21, "note": 76, "velocity": 119, "channel": 0}, {"type": "note_off", "time": 104, "note": 76, "velocity": 119, "channel": 0}, {"type": "note_on", "time": 105, "note": 77, "velocity": 118, "channel": 0}, {"type": "note_off", "time": 386, "note": 77, "velocity": 118, "channel": 0}, {"type": "note_on", "time": 14, "note": 77, "velocity": 119, "channel": 0}, {"type": "note_off", "time": 307, "note": 77, "velocity": 119, "channel": 0}, {"type": "note_on", "time": 53, "note": 84, "velocity": 82, "channel": 0}, {"type": "note_off", "time": 228, "note": 84, "velocity": 82, "channel": 0}, {"type": "note_on", "time": 17, "note": 79, "velocity": 96, "channel": 0}, {"type": "note_off", "time": 28, "note": 79, "velocity": 96, "channel": 0}, {"type": "note_on", "time": 0, "note": 77, "velocity": 110, "channel": 0}, {"type": "note_off", "time": 31, "note": 77, "velocity": 110, "channel": 0}, {"type": "note_on", "time": 5, "note": 75, "velocity": 109, "channel": 0}, {"type": "note_off", "time": 35, "note": 75, "velocity": 109, "channel": 0}, {"type": "note_on", "time": 1, "note": 72, "velocity": 112, "channel": 0}, {"type": "note_off", "time": 36, "note": 72, "velocity": 112, "channel": 0}, {"type": "note_on", "time": 8, "note": 71, "velocity": 112, "channel": 0}, {"type": "note_off", "time": 43, "note": 71, "velocity": 112, "channel": 0}, {"type": "note_on", "time": 11, "note": 70, "velocity": 115, "channel": 0}, {"type": "note_off", "time": 217, "note": 70, "velocity": 115, "channel": 0}, {"type": "note_on", "time": 13, "note": 68, "velocity": 98, "channel": 0}, {"type": "note_off", "time": 56, "note": 68, "velocity": 98, "channel": 0}, {"type": "note_on", "time": 13, "note": 71, "velocity": 99, "channel": 0}, {"type": "note_off", "time": 456, "note": 71, "velocity": 99, "channel": 0}, {"type": "end_of_track", "time": 0}]]}