{"ticks_per_beat": 192, "tracks": [[{"type": "track_name", "name": "Melody", "time": 0}, {"type": "set_tempo", "tempo": 434782, "time": 0}, {"type": "key_signature", "key": "B", "time": 0}, {"type": "time_signature", "numerator": 4, "denominator": 4, "clocks_per_click": 24, "notated_32nd_notes_per_beat": 8, "time": 0}, {"type": "note_on", "time": 2127, "note": 64, "velocity": 97, "channel": 0}, {"type": "note_off", "time": 109, "note": 64, "velocity": 97, "channel": 0}, {"type": "note_on", "time": 14, "note": 59, "velocity": 83, "channel": 0}, {"type": "note_off", "time": 63, "note": 59, "velocity": 83, "channel": 0}, {"type": "note_on", "time": 3, "note": 64, "velocity": 93, "channel": 0}, {"type": "note_off", "time": 100, "note": 64, "velocity": 93, "channel": 0}, {"type": "note_on", "time": 10, "note": 64, "velocity": 103, "channel": 0}, {"type": "note_off", "time": 48, "note": 64, "velocity": 103, "channel": 0}, {"type": "note_on", "time": 12, "note": 59, "velocity": 84, "channel": 0}, {"type": "note_off", "time": 73, "note": 59, "velocity": 84, "channel": 0}, {"type": "note_on", "time": 54, "note": 64, "velocity": 103, "channel": 0}, {"type": "note_off", "time": 52, "note": 64, "velocity": 103, "channel": 0}, {"type": "note_on", "time": 21, "note": 63, "velocity": 92, "channel": 0}, {"type": "note_off", "time": 97, "note": 63, "velocity": 92, "channel": 0}, {"type": "note_on", "time": 16, "note": 66, "velocity": 87, "channel": 0}, {"type": "note_off", "time": 46, "note": 66, "velocity": 87, "channel": 0}, {"type": "note_on", "time": 7, "note": 71, "velocity": 109, "channel": 0}, {"type": "note_off", "time": 102, "note": 71, "velocity": 109, "channel": 0}, {"type": "note_on", "time": 97, "note": 61, "velocity": 99, "channel": 0}, {"type": "note_off", "time": 37, "note": 61, "velocity": 99, "channel": 0}, {"type": "note_on", "time": 5, "note": 63, "velocity": 84, "channel": 0}, {"type": "note_off", "time": 95, "note": 63, "velocity": 84, "channel": 0}, {"type": "note_on", "time": 940, "note": 70, "velocity": 104, "channel": 0}, {"type": "note_off", "time": 241, "note": 70, "velocity": 104, "channel": 0}, {"type": "note_on", "time": 14, "note": 70, "velocity": 108, "channel": 0}, {"type": "note_off", "time": 118, "note": 70, "velocity": 108, "channel": 0}, {"type": "note_on", "time": 57, "note": 70, "velocity": 108, "channel": 0}, {"type": "note_off", "time": 315, "note": 70, "velocity": 108, "channel": 0}, {"type": "note_on", "time": 10, "note": 68, "velocity": 106, "channel": 0}, {"type": "note_off", "time": 79, "note": 68, "velocity": 106, "channel": 0}, {"type": "note_on", "time": 34, "note": 66, "velocity": 97, "channel": 0}, {"type": "note_off", "time": 140, "note": 66, "velocity": 97, "channel": 0}, {"type": "note_on", "time": 32, "note": 66, "velocity": 99, "channel": 0}, {"type": "note_off", "time": 104, "note": 66, "velocity": 99, "channel": 0}, {"type": "note_on", "time": 19, "note": 66, "velocity": 99, "channel": 0}, {"type": "note_off", "time": 232, "note": 66, "velocity": 99, "channel": 0}, {"type": "note_on", "time": 18, "note": 68, "velocity": 103, "channel": 0}, {"type": "note_off", "time": 95, "note": 68, "velocity": 103, "channel": 0}, {"type": "note_on", "time": 19, "note": 66, "velocity": 102, "channel": 0}, {"type": "note_off", "time": 64, "note": 66, "velocity": 102, "channel": 0}, {"type": "note_on", "time": 3, "note": 64, "velocity": 88, "channel": 0}, {"type": "note_off", "time": 122, "note": 64, "velocity": 88, "channel": 0}, {"type": "note_on", "time": 9, "note": 64, "velocity": 82, "channel": 0}, {"type": "note_off", "time": 41, "note": 64, "velocity": 82, "channel": 0}, {"type": "note_on", "time": 1, "note": 75, "velocity": 114, "channel": 0}, {"type": "note_off", "time": 126, "note": 75, "velocity": 114, "channel": 0}, {"type": "note_on", "time": 25, "note": 64, "velocity": 86, "channel": 0}, {"type": "note_off", "time": 560, "note": 64, "velocity": 86, "channel": 0}, {"type": "note_on", "time": 412, "note": 68, "velocity": 117, "channel": 0}, {"type": "note_off", "time": 48, "note": 68, "velocity": 117, "channel": 0}, {"type": "note_on", "time": 16, "note": 71, "velocity": 119, "channel": 0}, {"type": "note_off", "time": 106, "note": 71, "velocity": 119, "channel": 0}, {"type": "note_on", "time": 1, "note": 69, "velocity": 104, "channel": 0}, {"type": "note_off", "time": 55, "note": 69, "velocity": 104, "channel": 0}, {"type": "note_on", "time": 7, "note": 70, "velocity": 114, "channel": 0}, {"type": "note_off", "time": 562, "note": 70, "velocity": 114, "channel": 0}, {"type": "note_on", "time": 1, "note": 68, "velocity": 106, "channel": 0}, {"type": "note_off", "time": 120, "note": 68, "velocity": 106, "channel": 0}, {"type": "note_on", "time": 10, "note": 66, "velocity": 97, "channel": 0}, {"type": "note_off", "time": 82, "note": 66, "velocity": 97, "channel": 0}, {"type": "note_on", "time": 41, "note": 64, "velocity": 95, "channel": 0}, {"type": "note_off", "time": 122, "note": 64, "velocity": 95, "channel": 0}, {"type": "note_on", "time": 16, "note": 64, "velocity": 96, "channel": 0}, {"type": "note_off", "time": 108, "note": 64, "velocity": 96, "channel": 0}, {"type": "note_on", "time": 23, "note": 63, "velocity": 95, "channel": 0}, {"type": "note_off", "time": 356, "note": 63, "velocity": 95, "channel": 0}, {"type": "note_on", "time": 12, "note": 61, "velocity": 96, "channel": 0}, {"type": "note_off", "time": 72, "note": 61, "velocity": 96, "channel": 0}, {"type": "note_on", "time": 32, "note": 63, "velocity": 98, "channel": 0}, {"type": "note_off", "time": 73, "note": 63, "velocity": 98, "channel": 0}, {"type": "note_on", "time": 21, "note": 66, "velocity": 102, "channel": 0}, {"type": "note_off", "time": 61, "note": 66, "velocity": 102, "channel": 0}, {"type": "note_on", "time": 18, "note": 70, "velocity": 114, "channel": 0}, {"type": "note_off", "time": 93, "note": 70, "velocity": 114, "channel": 0}, {"type": "note_on", "time": 18, "note": 74, "velocity": 118, "channel": 0}, {"type": "note_off", "time": 91, "note": 74, "velocity": 118, "channel": 0}, {"type": "note_on", "time": 23, "note": 76, "velocity": 104, "channel": 0}, {"type": "note_off", "time": 23, "note": 76, "velocity": 104, "channel": 0}, {"type": "note_on", "time": 7, "note": 77, "velocity": 122, "channel": 0}, {"type": "note_off", "time": 115, "note": 77, "velocity": 122, "channel": 0}, {"type": "note_on", "time": 7, "note": 75, "velocity": 118, "channel": 0}, {"type": "note_off", "time": 97, "note": 75, "velocity": 118, "channel": 0}, {"type": "note_on", "time": 16, "note": 76, "velocity": 120, "channel": 0}, {"type": "note_off", "time": 82, "note": 76, "velocity": 120, "channel": 0}, {"type": "note_on", "time": 28, "note": 81, "velocity": 107, "channel": 0}, {"type": "note_off", "time": 52, "note": 81, "velocity": 107, "channel": 0}, {"type": "note_on", "time": 5, "note": 79, "velocity": 113, "channel": 0}, {"type": "note_off", "time": 45, "note": 79, "velocity": 113, "channel": 0}, {"type": "note_on", "time": 10, "note": 77, "velocity": 116, "channel": 0}, {"type": "note_off", "time": 39, "note": 77, "velocity": 116, "channel": 0}, {"type": "note_on", "time": 7, "note": 76, "velocity": 118, "channel": 0}, {"type": "note_off", "time": 95, "note": 76, "velocity": 118, "channel": 0}, {"type": "note_on", "time": 18, "note": 74, "velocity": 117, "channel": 0}, {"type": "note_off", "time": 81, "note": 74, "velocity": 117, "channel": 0}, {"type": "note_on", "time": 34, "note": 72, "velocity": 112, "channel": 0}, {"type": "note_off", "time": 61, "note": 72, "velocity": 112, "channel": 0}, {"type": "note_on", "time": 19, "note": 71, "velocity": 114, "channel": 0}, {"type": "note_off", "time": 54, "note": 71, "velocity": 114, "channel": 0}, {"type": "note_on", "time": 9, "note": 69, "velocity": 105, "channel": 0}, {"type": "note_off", "time": 91, "note": 69, "velocity": 105, "channel": 0}, {"type": "note_on", "time": 27, "note": 68, "velocity": 106, "channel": 0}, {"type": "note_off", "time": 75, "note": 68, "velocity": 106, "channel": 0}, {"type": "note_on", "time": 18, "note": 66, "velocity": 98, "channel": 0}, {"type": "note_off", "time": 75, "note": 66, "velocity": 98, "channel": 0}, {"type": "note_on", "time": 28, "note": 75, "velocity": 118, "channel": 0}, {"type": "note_off", "time": 77, "note": 75, "velocity": 118, "channel": 0}, {"type": "note_on", "time": 45, "note": 73, "velocity": 104, "channel": 0}, {"type": "note_off", "time": 61, "note": 73, "velocity": 104, "channel": 0}, {"type": "note_on", "time": 34, "note": 64, "velocity": 100, "channel": 0}, {"type": "note_off", "time": 64, "note": 64, "velocity": 100, "channel": 0}, {"type": "note_on", "time": 50, "note": 66, "velocity": 94, "channel": 0}, {"type": "note_off", "time": 104, "note": 66, "velocity": 94, "channel": 0}, {"type": "note_on", "time": 25, "note": 64, "velocity": 94, "channel": 0}, {"type": "note_off", "time": 127, "note": 64, "velocity": 94, "channel": 0}, {"type": "note_on", "time": 16, "note": 63, "velocity": 79, "channel": 0}, {"type": "note_off", "time": 428, "note": 63, "velocity": 79, "channel": 0}, {"type": "note_on", "time": 331, "note": 71, "velocity": 111, "channel": 0}, {"type": "note_off", "time": 200, "note": 71, "velocity": 111, "channel": 0}, {"type": "note_on", "time": 12, "note": 68, "velocity": 91, "channel": 0}, {"type": "note_off", "time": 45, "note": 68, "velocity": 91, "channel": 0}, {"type": "note_on", "time": 1, "note": 71, "velocity": 110, "channel": 0}, {"type": "note_off", "time": 127, "note": 71, "velocity": 110, "channel": 0}, {"type": "note_on", "time": 59, "note": 68, "velocity": 99, "channel": 0}, {"type": "note_off", "time": 117, "note": 68, "velocity": 99, "channel": 0}, {"type": "note_on", "time": 36, "note": 59, "velocity": 78, "channel": 0}, {"type": "note_off", "time": 255, "note": 59, "velocity": 78, "channel": 0}, {"type": "note_on", "time": 374, "note": 77, "velocity": 123, "channel": 0}, {"type": "note_off", "time": 295, "note": 77, "velocity": 123, "channel": 0}, {"type": "note_on", "time": 14, "note": 78, "velocity": 116, "channel": 0}, {"type": "note_off", "time": 99, "note": 78, "velocity": 116, "channel": 0}, {"type": "note_on", "time": 21, "note": 76, "velocity": 117, "channel": 0}, {"type": "note_off", "time": 133, "note": 76, "velocity": 117, "channel": 0}, {"type": "note_on", "time": 5, "note": 73, "velocity": 110, "channel": 0}, {"type": "note_off", "time": 109, "note": 73, "velocity": 110, "channel": 0}, {"type": "note_on", "time": 23, "note": 75, "velocity": 118, "channel": 0}, {"type": "note_off", "time": 93, "note": 75, "velocity": 118, "channel": 0}, {"type": "note_on", "time": 32, "note": 73, "velocity": 114, "channel": 0}, {"type": "note_off", "time": 142, "note": 73, "velocity": 114, "channel": 0}, {"type": "note_on", "time": 3, "note": 70, "velocity": 112, "channel": 0}, {"type": "note_off", "time": 108, "note": 70, "velocity": 112, "channel": 0}, {"type": "note_on", "time": 18, "note": 71, "velocity": 114, "channel": 0}, {"type": "note_off", "time": 64, "note": 71, "velocity": 114, "channel": 0}, {"type": "note_on", "time": 32, "note": 67, "velocity": 110, "channel": 0}, {"type": "note_off", "time": 90, "note": 67, "velocity": 110, "channel": 0}, {"type": "note_on", "time": 9, "note": 68, "velocity": 111, "channel": 0}, {"type": "note_off", "time": 70, "note": 68, "velocity": 111, "channel": 0}, {"type": "note_on", "time": 16, "note": 64, "velocity": 104, "channel": 0}, {"type": "note_off", "time": 90, "note": 64, "velocity": 104, "channel": 0}, {"type": "note_on", "time": 3, "note": 61, "velocity": 99, "channel": 0}, {"type": "note_off", "time": 77, "note": 61, "velocity": 99, "channel": 0}, {"type": "note_on", "time": 36, "note": 55, "velocity": 103, "channel": 0}, {"type": "note_off", "time": 164, "note": 55, "velocity": 103, "channel": 0}, {"type": "note_on", "time": 19, "note": 56, "velocity": 103, "channel": 0}, {"type": "note_off", "time": 133, "note": 56, "velocity": 103, "channel": 0}, {"type": "note_on", "time": 30, "note": 66, "velocity": 95, "channel": 0}, {"type": "note_off", "time": 355, "note": 66, "velocity": 95, "channel": 0}, {"type": "note_on", "time": 40, "note": 66, "velocity": 91, "channel": 0}, {"type": "note_off", "time": 317, "note": 66, "velocity": 91, "channel": 0}, {"type": "note_on", "time": 14, "note": 63, "velocity": 84, "channel": 0}, {"type": "note_off", "time": 391, "note": 63, "velocity": 84, "channel": 0}, {"type": "note_on", "time": 239, "note": 57, "velocity": 108, "channel": 0}, {"type": "note_off", "time": 115, "note": 57, "velocity": 108, "channel": 0}, {"type": "note_on", "time": 9, "note": 58, "velocity": 109, "channel": 0}, {"type": "note_off", "time": 88, "note": 58, "velocity": 109, "channel": 0}, {"type": "note_on", "time": 0, "note": 65, "velocity": 91, "channel": 0}, {"type": "note_off", "time": 21, "note": 65, "velocity": 91, "channel": 0}, {"type": "note_on", "time": 25, "note": 70, "velocity": 111, "channel": 0}, {"type": "note_off", "time": 100, "note": 70, "velocity": 111, "channel": 0}, {"type": "note_on", "time": 1, "note": 68, "velocity": 110, "channel": 0}, {"type": "note_off", "time": 129, "note": 68, "velocity": 110, "channel": 0}, {"type": "note_on", "time": 14, "note": 68, "velocity": 109, "channel": 0}, {"type": "note_off", "time": 329, "note": 68, "velocity": 109, "channel": 0}, {"type": "note_on", "time": 28, "note": 56, "velocity": 100, "channel": 0}, {"type": "note_off", "time": 61, "note": 56, "velocity": 100, "channel": 0}, {"type": "note_on", "time": 10, "note": 65, "velocity": 97, "channel": 0}, {"type": "note_off", "time": 34, "note": 65, "velocity": 97, "channel": 0}, {"type": "note_on", "time": 27, "note": 68, "velocity": 106, "channel": 0}, {"type": "note_off", "time": 127, "note": 68, "velocity": 106, "channel": 0}, {"type": "note_on", "time": 7, "note": 66, "velocity": 104, "channel": 0}, {"type": "note_off", "time": 151, "note": 66, "velocity": 104, "channel": 0}, {"type": "note_on", "time": 14, "note": 66, "velocity": 99, "channel": 0}, {"type": "note_off", "time": 234, "note": 66, "velocity": 99, "channel": 0}, {"type": "note_on", "time": 10, "note": 68, "velocity": 107, "channel": 0}, {"type": "note_off", "time": 111, "note": 68, "velocity": 107, "channel": 0}, {"type": "note_on", "time": 19, "note": 66, "velocity": 104, "channel": 0}, {"type": "note_off", "time": 75, "note": 66, "velocity": 104, "channel": 0}, {"type": "note_on", "time": 18, "note": 64, "velocity": 104, "channel": 0}, {"type": "note_off", "time": 91, "note": 64, "velocity": 104, "channel": 0}, {"type": "note_on", "time": 66, "note": 74, "velocity": 107, "channel": 0}, {"type": "note_off", "time": 50, "note": 74, "velocity": 107, "channel": 0}, {"type": "note_on", "time": 0, "note": 75, "velocity": 107, "channel": 0}, {"type": "note_off", "time": 131, "note": 75, "velocity": 107, "channel": 0}, {"type": "note_on", "time": 28, "note": 64, "velocity": 83, "channel": 0}, {"type": "note_off", "time": 549, "note": 64, "velocity": 83, "channel": 0}, {"type": "note_on", "time": 535, "note": 68, "velocity": 111, "channel": 0}, {"type": "note_off", "time": 93, "note": 68, "velocity": 111, "channel": 0}, {"type": "note_on", "time": 16, "note": 70, "velocity": 116, "channel": 0}, {"type": "note_off", "time": 99, "note": 70, "velocity": 116, "channel": 0}, {"type": "note_on", "time": 5, "note": 68, "velocity": 89, "channel": 0}, {"type": "note_off", "time": 50, "note": 68, "velocity": 89, "channel": 0}, {"type": "note_on", "time": 12, "note": 70, "velocity": 114, "channel": 0}, {"type": "note_off", "time": 102, "note": 70, "velocity": 114, "channel": 0}, {"type": "note_on", "time": 7, "note": 68, "velocity": 111, "channel": 0}, {"type": "note_off", "time": 81, "note": 68, "velocity": 111, "channel": 0}, {"type": "note_on", "time": 27, "note": 67, "velocity": 106, "channel": 0}, {"type": "note_off", "time": 145, "note": 67, "velocity": 106, "channel": 0}, {"type": "note_on", "time": 21, "note": 65, "velocity": 105, "channel": 0}, {"type": "note_off", "time": 84, "note": 65, "velocity": 105, "channel": 0}, {"type": "note_on", "time": 19, "note": 62, "velocity": 98, "channel": 0}, {"type": "note_off", "time": 91, "note": 62, "velocity": 98, "channel": 0}, {"type": "note_on", "time": 28, "note": 64, "velocity": 97, "channel": 0}, {"type": "note_off", "time": 77, "note": 64, "velocity": 97, "channel": 0}, {"type": "note_on", "time": 9, "note": 65, "velocity": 111, "channel": 0}, {"type": "note_off", "time": 64, "note": 65, "velocity": 111, "channel": 0}, {"type": "note_on", "time": 25, "note": 68, "velocity": 107, "channel": 0}, {"type": "note_off", "time": 95, "note": 68, "velocity": 107, "channel": 0}, {"type": "note_on", "time": 10, "note": 70, "velocity": 117, "channel": 0}, {"type": "note_off", "time": 88, "note": 70, "velocity": 117, "channel": 0}, {"type": "note_on", "time": 25, "note": 71, "velocity": 116, "channel": 0}, {"type": "note_off", "time": 90, "note": 71, "velocity": 116, "channel": 0}, {"type": "note_on", "time": 75, "note": 73, "velocity": 111, "channel": 0}, {"type": "note_off", "time": 365, "note": 73, "velocity": 111, "channel": 0}, {"type": "note_on", "time": 18, "note": 71, "velocity": 112, "channel": 0}, {"type": "note_off", "time": 109, "note": 71, "velocity": 112, "channel": 0}, {"type": "note_on", "time": 14, "note": 68, "velocity": 108, "channel": 0}, {"type": "note_off", "time": 79, "note": 68, "velocity": 108, "channel": 0}, {"type": "note_on", "time": 52, "note": 71, "velocity": 105, "channel": 0}, {"type": "note_off", "time": 117, "note": 71, "velocity": 105, "channel": 0}, {"type": "note_on", "time": 18, "note": 68, "velocity": 99, "channel": 0}, {"type": "note_off", "time": 135, "note": 68, "velocity": 99, "channel": 0}, {"type": "note_on", "time": 5, "note": 63, "velocity": 92, "channel": 0}, {"type": "note_off", "time": 55, "note": 63, "velocity": 92, "channel": 0}, {"type": "note_on", "time": 23, "note": 68, "velocity": 103, "channel": 0}, {"type": "note_off", "time": 95, "note": 68, "velocity": 103, "channel": 0}, {"type": "note_on", "time": 86, "note": 68, "velocity": 102, "channel": 0}, {"type": "note_off", "time": 155, "note": 68, "velocity": 102, "channel": 0}, {"type": "note_on", "time": 25, "note": 63, "velocity": 87, "channel": 0}, {"type": "note_off", "time": 295, "note": 63, "velocity": 87, "channel": 0}, {"type": "note_on", "time": 25, "note": 59, "velocity": 89, "channel": 0}, {"type": "note_off", "time": 88, "note": 59, "velocity": 89, "channel": 0}, {"type": "note_on", "time": 1, "note": 62, "velocity": 97, "channel": 0}, {"type": "note_off", "time": 37, "note": 62, "velocity": 97, "channel": 0}, {"type": "note_on", "time": 25, "note": 63, "velocity": 100, "channel": 0}, {"type": "note_off", "time": 95, "note": 63, "velocity": 100, "channel": 0}, {"type": "note_on", "time": 10, "note": 59, "velocity": 84, "channel": 0}, {"type": "note_off", "time": 117, "note": 59, "velocity": 84, "channel": 0}, {"type": "note_on", "time": 21, "note": 56, "velocity": 88, "channel": 0}, {"type": "note_off", "time": 380, "note": 56, "velocity": 88, "channel": 0}, {"type": "note_on", "time": 177, "note": 67, "velocity": 110, "channel": 0}, {"type": "note_off", "time": 71, "note": 67, "velocity": 110, "channel": 0}, {"type": "note_on", "time": 20, "note": 66, "velocity": 101, "channel": 0}, {"type": "note_off", "time": 84, "note": 66, "velocity": 101, "channel": 0}, {"type": "note_on", "time": 25, "note": 64, "velocity": 103, "channel": 0}, {"type": "note_off", "time": 76, "note": 64, "velocity": 103, "channel": 0}, {"type": "note_on", "time": 23, "note": 63, "velocity": 101, "channel": 0}, {"type": "note_off", "time": 74, "note": 63, "velocity": 101, "channel": 0}, {"type": "note_on", "time": 7, "note": 61, "velocity": 105, "channel": 0}, {"type": "note_off", "time": 69, "note": 61, "velocity": 105, "channel": 0}, {"type": "note_on", "time": 20, "note": 59, "velocity": 94, "channel": 0}, {"type": "note_off", "time": 94, "note": 59, "velocity": 94, "channel": 0}, {"type": "note_on", "time": 12, "note": 57, "velocity": 89, "channel": 0}, {"type": "note_off", "time": 61, "note": 57, "velocity": 89, "channel": 0}, {"type": "note_on", "time": 20, "note": 58, "velocity": 95, "channel": 0}, {"type": "note_off", "time": 76, "note": 58, "velocity": 95, "channel": 0}, {"type": "note_on", "time": 17, "note": 63, "velocity": 111, "channel": 0}, {"type": "note_off", "time": 58, "note": 63, "velocity": 111, "channel": 0}, {"type": "note_on", "time": 10, "note": 61, "velocity": 95, "channel": 0}, {"type": "note_off", "time": 102, "note": 61, "velocity": 95, "channel": 0}, {"type": "note_on", "time": 105, "note": 68, "velocity": 109, "channel": 0}, {"type": "note_off", "time": 87, "note": 68, "velocity": 109, "channel": 0}, {"type": "note_on", "time": 89, "note": 68, "velocity": 106, "channel": 0}, {"type": "note_off", "time": 115, "note": 68, "velocity": 106, "channel": 0}, {"type": "note_on", "time": 66, "note": 71, "velocity": 111, "channel": 0}, {"type": "note_off", "time": 248, "note": 71, "velocity": 111, "channel": 0}, {"type": "note_on", "time": 71, "note": 68, "velocity": 109, "channel": 0}, {"type": "note_off", "time": 61, "note": 68, "velocity": 109, "channel": 0}, {"type": "note_on", "time": 53, "note": 74, "velocity": 118, "channel": 0}, {"type": "note_off", "time": 56, "note": 74, "velocity": 118, "channel": 0}, {"type": "note_on", "time": 2, "note": 75, "velocity": 119, "channel": 0}, {"type": "note_off", "time": 184, "note": 75, "velocity": 119, "channel": 0}, {"type": "note_on", "time": 38, "note": 78, "velocity": 118, "channel": 0}, {"type": "note_off", "time": 79, "note": 78, "velocity": 118, "channel": 0}, {"type": "note_on", "time": 28, "note": 81, "velocity": 115, "channel": 0}, {"type": "note_off", "time": 76, "note": 81, "velocity": 115, "channel": 0}, {"type": "note_on", "time": 9, "note": 79, "velocity": 114, "channel": 0}, {"type": "note_off", "time": 64, "note": 79, "velocity": 114, "channel": 0}, {"type": "note_on", "time": 32, "note": 76, "velocity": 118, "channel": 0}, {"type": "note_off", "time": 70, "note": 76, "velocity": 118, "channel": 0}, {"type": "note_on", "time": 32, "note": 71, "velocity": 101, "channel": 0}, {"type": "note_off", "time": 72, "note": 71, "velocity": 101, "channel": 0}, {"type": "note_on", "time": 7, "note": 76, "velocity": 76, "channel": 0}, {"type": "note_off", "time": 21, "note": 76, "velocity": 76, "channel": 0}, {"type": "note_on", "time": 0, "note": 78, "velocity": 100, "channel": 0}, {"type": "note_off", "time": 39, "note": 78, "velocity": 100, "channel": 0}, {"type": "note_on", "time": 0, "note": 76, "velocity": 109, "channel": 0}, {"type": "note_off", "time": 32, "note": 76, "velocity": 109, "channel": 0}, {"type": "note_on", "time": 27, "note": 71, "velocity": 107, "channel": 0}, {"type": "note_off", "time": 43, "note": 71, "velocity": 107, "channel": 0}, {"type": "note_on", "time": 16, "note": 67, "velocity": 102, "channel": 0}, {"type": "note_off", "time": 100, "note": 67, "velocity": 102, "channel": 0}, {"type": "note_on", "time": 23, "note": 64, "velocity": 93, "channel": 0}, {"type": "note_off", "time": 37, "note": 64, "velocity": 93, "channel": 0}, {"type": "note_on", "time": 5, "note": 66, "velocity": 84, "channel": 0}, {"type": "note_off", "time": 32, "note": 66, "velocity": 84, "channel": 0}, {"type": "note_on", "time": 10, "note": 67, "velocity": 10, "channel": 0}, {"type": "note_off", "time": 136, "note": 67, "velocity": 10, "channel": 0}, {"type": "note_on", "time": 10, "note": 64, "velocity": 117, "channel": 0}, {"type": "note_off", "time": 108, "note": 64, "velocity": 117, "channel": 0}, {"type": "note_on", "time": 23, "note": 59, "velocity": 101, "channel": 0}, {"type": "note_off", "time": 34, "note": 59, "velocity": 101, "channel": 0}, {"type": "note_on", "time": 19, "note": 64, "velocity": 116, "channel": 0}, {"type": "note_off", "time": 167, "note": 64, "velocity": 116, "channel": 0}, {"type": "note_on", "time": 3, "note": 59, "velocity": 109, "channel": 0}, {"type": "note_off", "time": 129, "note": 59, "velocity": 109, "channel": 0}, {"type": "note_on", "time": 5, "note": 55, "velocity": 117, "channel": 0}, {"type": "note_off", "time": 37, "note": 55, "velocity": 117, "channel": 0}, {"type": "note_on", "time": 7, "note": 59, "velocity": 110, "channel": 0}, {"type": "note_off", "time": 151, "note": 59, "velocity": 110, "channel": 0}, {"type": "note_on", "time": 7, "note": 54, "velocity": 127, "channel": 0}, {"type": "note_off", "time": 57, "note": 54, "velocity": 127, "channel": 0}, {"type": "note_on", "time": 10, "note": 52, "velocity": 110, "channel": 0}, {"type": "note_off", "time": 73, "note": 52, "velocity": 110, "channel": 0}, {"type": "note_on", "time": 25, "note": 51, "velocity": 115, "channel": 0}, {"type": "note_off", "time": 176, "note": 51, "velocity": 115, "channel": 0}, {"type": "end_of_track", "time": 0}]]}