{"ticks_per_beat": 192, "tracks": [[{"type": "note_on", "time": 0, "note": 79, "velocity": 125, "channel": 0}, {"type": "note_off", "time": 33, "note": 79, "velocity": 125, "channel": 0}, {"type": "note_on", "time": 4, "note": 80, "velocity": 121, "channel": 0}, {"type": "track_name", "name": "Melody", "time": 35}, {"type": "set_tempo", "tempo": 392156, "time": 0}, {"type": "key_signature", "key": "C", "time": 0}, {"type": "time_signature", "numerator": 4, "denominator": 4, "clocks_per_click": 24, "notated_32nd_notes_per_beat": 8, "time": 0}, {"type": "note_off", "time": 71, "note": 80, "velocity": 121, "channel": 0}, {"type": "note_on", "time": 21, "note": 80, "velocity": 122, "channel": 0}, {"type": "note_off", "time": 120, "note": 80, "velocity": 122, "channel": 0}, {"type": "note_on", "time": 19, "note": 80, "velocity": 123, "channel": 0}, {"type": "note_off", "time": 97, "note": 80, "velocity": 123, "channel": 0}, {"type": "note_on", "time": 31, "note": 78, "velocity": 118, "channel": 0}, {"type": "note_off", "time": 71, "note": 78, "velocity": 118, "channel": 0}, {"type": "note_on", "time": 10, "note": 79, "velocity": 110, "channel": 0}, {"type": "note_off", "time": 44, "note": 79, "velocity": 110, "channel": 0}, {"type": "note_on", "time": 18, "note": 77, "velocity": 119, "channel": 0}, {"type": "note_off", "time": 153, "note": 77, "velocity": 119, "channel": 0}, {"type": "note_on", "time": 22, "note": 77, "velocity": 123, "channel": 0}, {"type": "note_off", "time": 102, "note": 77, "velocity": 123, "channel": 0}, {"type": "note_on", "time": 14, "note": 77, "velocity": 120, "channel": 0}, {"type": "note_off", "time": 79, "note": 77, "velocity": 120, "channel": 0}, {"type": "note_on", "time": 5, "note": 75, "velocity": 120, "channel": 0}, {"type": "note_off", "time": 65, "note": 75, "velocity": 120, "channel": 0}, {"type": "note_on", "time": 9, "note": 76, "velocity": 112, "channel": 0}, {"type": "note_off", "time": 44, "note": 76, "velocity": 112, "channel": 0}, {"type": "note_on", "time": 4, "note": 73, "velocity": 116, "channel": 0}, {"type": "note_off", "time": 153, "note": 73, "velocity": 116, "channel": 0}, {"type": "note_on", "time": 13, "note": 73, "velocity": 118, "channel": 0}, {"type": "note_off", "time": 122, "note": 73, "velocity": 118, "channel": 0}, {"type": "note_on", "time": 27, "note": 72, "velocity": 118, "channel": 0}, {"type": "note_off", "time": 73, "note": 72, "velocity": 118, "channel": 0}, {"type": "note_on", "time": 20, "note": 70, "velocity": 116, "channel": 0}, {"type": "note_off", "time": 44, "note": 70, "velocity": 116, "channel": 0}, {"type": "note_on", "time": 4, "note": 71, "velocity": 114, "channel": 0}, {"type": "note_off", "time": 50, "note": 71, "velocity": 114, "channel": 0}, {"type": "note_on", "time": 22, "note": 68, "velocity": 111, "channel": 0}, {"type": "note_off", "time": 149, "note": 68, "velocity": 111, "channel": 0}, {"type": "note_on", "time": 14, "note": 68, "velocity": 115, "channel": 0}, {"type": "note_off", "time": 125, "note": 68, "velocity": 115, "channel": 0}, {"type": "note_on", "time": 15, "note": 68, "velocity": 118, "channel": 0}, {"type": "note_off", "time": 58, "note": 68, "velocity": 118, "channel": 0}, {"type": "note_on", "time": 30, "note": 66, "velocity": 109, "channel": 0}, {"type": "note_off", "time": 38, "note": 66, "velocity": 109, "channel": 0}, {"type": "note_on", "time": 11, "note": 67, "velocity": 109, "channel": 0}, {"type": "note_off", "time": 39, "note": 67, "velocity": 109, "channel": 0}, {"type": "note_on", "time": 4, "note": 65, "velocity": 109, "channel": 0}, {"type": "note_off", "time": 156, "note": 65, "velocity": 109, "channel": 0}, {"type": "note_on", "time": 13, "note": 65, "velocity": 113, "channel": 0}, {"type": "note_off", "time": 96, "note": 65, "velocity": 113, "channel": 0}, {"type": "note_on", "time": 25, "note": 63, "velocity": 107, "channel": 0}, {"type": "note_off", "time": 40, "note": 63, "velocity": 107, "channel": 0}, {"type": "note_on", "time": 7, "note": 64, "velocity": 107, "channel": 0}, {"type": "note_off", "time": 49, "note": 64, "velocity": 107, "channel": 0}, {"type": "note_on", "time": 3, "note": 61, "velocity": 106, "channel": 0}, {"type": "note_off", "time": 120, "note": 61, "velocity": 106, "channel": 0}, {"type": "note_on", "time": 5, "note": 62, "velocity": 109, "channel": 0}, {"type": "note_off", "time": 78, "note": 62, "velocity": 109, "channel": 0}, {"type": "note_on", "time": 14, "note": 58, "velocity": 110, "channel": 0}, {"type": "note_off", "time": 116, "note": 58, "velocity": 110, "channel": 0}, {"type": "note_on", "time": 13, "note": 58, "velocity": 109, "channel": 0}, {"type": "note_off", "time": 62, "note": 58, "velocity": 109, "channel": 0}, {"type": "note_on", "time": 2, "note": 56, "velocity": 108, "channel": 0}, {"type": "note_off", "time": 39, "note": 56, "velocity": 108, "channel": 0}, {"type": "note_on", "time": 6, "note": 57, "velocity": 106, "channel": 0}, {"type": "note_off", "time": 31, "note": 57, "velocity": 106, "channel": 0}, {"type": "note_on", "time": 8, "note": 55, "velocity": 103, "channel": 0}, {"type": "note_off", "time": 77, "note": 55, "velocity": 103, "channel": 0}, {"type": "note_on", "time": 13, "note": 56, "velocity": 101, "channel": 0}, {"type": "note_off", "time": 376, "note": 56, "velocity": 101, "channel": 0}, {"type": "note_on", "time": 2, "note": 58, "velocity": 106, "channel": 0}, {"type": "note_off", "time": 92, "note": 58, "velocity": 106, "channel": 0}, {"type": "note_on", "time": 10, "note": 59, "velocity": 94, "channel": 0}, {"type": "note_off", "time": 83, "note": 59, "velocity": 94, "channel": 0}, {"type": "note_on", "time": 14, "note": 62, "velocity": 109, "channel": 0}, {"type": "note_off", "time": 79, "note": 62, "velocity": 109, "channel": 0}, {"type": "note_on", "time": 8, "note": 67, "velocity": 113, "channel": 0}, {"type": "note_off", "time": 83, "note": 67, "velocity": 113, "channel": 0}, {"type": "note_on", "time": 12, "note": 65, "velocity": 112, "channel": 0}, {"type": "note_off", "time": 84, "note": 65, "velocity": 112, "channel": 0}, {"type": "note_on", "time": 6, "note": 64, "velocity": 94, "channel": 0}, {"type": "note_off", "time": 95, "note": 64, "velocity": 94, "channel": 0}, {"type": "note_on", "time": 963, "note": 67, "velocity": 115, "channel": 0}, {"type": "note_off", "time": 55, "note": 67, "velocity": 115, "channel": 0}, {"type": "note_on", "time": 56, "note": 70, "velocity": 118, "channel": 0}, {"type": "note_off", "time": 84, "note": 70, "velocity": 118, "channel": 0}, {"type": "note_on", "time": 32, "note": 67, "velocity": 99, "channel": 0}, {"type": "note_off", "time": 31, "note": 67, "velocity": 99, "channel": 0}, {"type": "note_on", "time": 9, "note": 68, "velocity": 112, "channel": 0}, {"type": "note_off", "time": 105, "note": 68, "velocity": 112, "channel": 0}, {"type": "note_on", "time": 9, "note": 70, "velocity": 119, "channel": 0}, {"type": "note_off", "time": 75, "note": 70, "velocity": 119, "channel": 0}, {"type": "note_on", "time": 43, "note": 71, "velocity": 104, "channel": 0}, {"type": "note_off", "time": 64, "note": 71, "velocity": 104, "channel": 0}, {"type": "note_on", "time": 5, "note": 72, "velocity": 116, "channel": 0}, {"type": "note_off", "time": 69, "note": 72, "velocity": 116, "channel": 0}, {"type": "note_on", "time": 21, "note": 73, "velocity": 114, "channel": 0}, {"type": "note_off", "time": 82, "note": 73, "velocity": 114, "channel": 0}, {"type": "note_on", "time": 10, "note": 74, "velocity": 118, "channel": 0}, {"type": "note_off", "time": 86, "note": 74, "velocity": 118, "channel": 0}, {"type": "note_on", "time": 4, "note": 76, "velocity": 121, "channel": 0}, {"type": "note_off", "time": 98, "note": 76, "velocity": 121, "channel": 0}, {"type": "note_on", "time": 76, "note": 76, "velocity": 121, "channel": 0}, {"type": "note_off", "time": 115, "note": 76, "velocity": 121, "channel": 0}, {"type": "note_on", "time": 22, "note": 74, "velocity": 101, "channel": 0}, {"type": "note_off", "time": 43, "note": 74, "velocity": 101, "channel": 0}, {"type": "note_on", "time": 39, "note": 76, "velocity": 120, "channel": 0}, {"type": "note_off", "time": 91, "note": 76, "velocity": 120, "channel": 0}, {"type": "note_on", "time": 78, "note": 76, "velocity": 121, "channel": 0}, {"type": "note_off", "time": 99, "note": 76, "velocity": 121, "channel": 0}, {"type": "note_on", "time": 43, "note": 74, "velocity": 118, "channel": 0}, {"type": "note_off", "time": 78, "note": 74, "velocity": 118, "channel": 0}, {"type": "note_on", "time": 40, "note": 76, "velocity": 119, "channel": 0}, {"type": "note_off", "time": 82, "note": 76, "velocity": 119, "channel": 0}, {"type": "note_on", "time": 58, "note": 76, "velocity": 120, "channel": 0}, {"type": "note_off", "time": 93, "note": 76, "velocity": 120, "channel": 0}, {"type": "note_on", "time": 19, "note": 74, "velocity": 120, "channel": 0}, {"type": "note_off", "time": 64, "note": 74, "velocity": 120, "channel": 0}, {"type": "note_on", "time": 24, "note": 76, "velocity": 116, "channel": 0}, {"type": "note_off", "time": 66, "note": 76, "velocity": 116, "channel": 0}, {"type": "note_on", "time": 44, "note": 70, "velocity": 112, "channel": 0}, {"type": "note_off", "time": 68, "note": 70, "velocity": 112, "channel": 0}, {"type": "note_on", "time": 51, "note": 70, "velocity": 113, "channel": 0}, {"type": "note_off", "time": 66, "note": 70, "velocity": 113, "channel": 0}, {"type": "note_on", "time": 53, "note": 70, "velocity": 116, "channel": 0}, {"type": "note_off", "time": 66, "note": 70, "velocity": 116, "channel": 0}, {"type": "note_on", "time": 33, "note": 72, "velocity": 115, "channel": 0}, {"type": "note_off", "time": 61, "note": 72, "velocity": 115, "channel": 0}, {"type": "note_on", "time": 35, "note": 69, "velocity": 116, "channel": 0}, {"type": "note_off", "time": 88, "note": 69, "velocity": 116, "channel": 0}, {"type": "note_on", "time": 19, "note": 67, "velocity": 112, "channel": 0}, {"type": "note_off", "time": 53, "note": 67, "velocity": 112, "channel": 0}, {"type": "note_on", "time": 45, "note": 73, "velocity": 116, "channel": 0}, {"type": "note_off", "time": 26, "note": 73, "velocity": 116, "channel": 0}, {"type": "note_on", "time": 2, "note": 74, "velocity": 106, "channel": 0}, {"type": "note_off", "time": 716, "note": 74, "velocity": 106, "channel": 0}, {"type": "note_on", "time": 24, "note": 71, "velocity": 106, "channel": 0}, {"type": "note_off", "time": 75, "note": 71, "velocity": 106, "channel": 0}, {"type": "note_on", "time": 24, "note": 64, "velocity": 106, "channel": 0}, {"type": "note_off", "time": 185, "note": 64, "velocity": 106, "channel": 0}, {"type": "note_on", "time": 732, "note": 74, "velocity": 120, "channel": 0}, {"type": "note_off", "time": 27, "note": 74, "velocity": 120, "channel": 0}, {"type": "note_on", "time": 6, "note": 72, "velocity": 116, "channel": 0}, {"type": "note_off", "time": 35, "note": 72, "velocity": 116, "channel": 0}, {"type": "note_on", "time": 5, "note": 71, "velocity": 110, "channel": 0}, {"type": "note_off", "time": 90, "note": 71, "velocity": 110, "channel": 0}, {"type": "note_on", "time": 15, "note": 69, "velocity": 114, "channel": 0}, {"type": "note_off", "time": 82, "note": 69, "velocity": 114, "channel": 0}, {"type": "note_on", "time": 15, "note": 68, "velocity": 105, "channel": 0}, {"type": "note_off", "time": 93, "note": 68, "velocity": 105, "channel": 0}, {"type": "note_on", "time": 14, "note": 71, "velocity": 111, "channel": 0}, {"type": "note_off", "time": 72, "note": 71, "velocity": 111, "channel": 0}, {"type": "note_on", "time": 37, "note": 74, "velocity": 110, "channel": 0}, {"type": "note_off", "time": 61, "note": 74, "velocity": 110, "channel": 0}, {"type": "note_on", "time": 22, "note": 77, "velocity": 123, "channel": 0}, {"type": "note_off", "time": 56, "note": 77, "velocity": 123, "channel": 0}, {"type": "note_on", "time": 6, "note": 76, "velocity": 119, "channel": 0}, {"type": "note_off", "time": 125, "note": 76, "velocity": 119, "channel": 0}, {"type": "note_on", "time": 16, "note": 75, "velocity": 102, "channel": 0}, {"type": "note_off", "time": 38, "note": 75, "velocity": 102, "channel": 0}, {"type": "note_on", "time": 6, "note": 76, "velocity": 122, "channel": 0}, {"type": "note_off", "time": 582, "note": 76, "velocity": 122, "channel": 0}, {"type": "note_on", "time": 7, "note": 74, "velocity": 118, "channel": 0}, {"type": "note_off", "time": 117, "note": 74, "velocity": 118, "channel": 0}, {"type": "note_on", "time": 18, "note": 73, "velocity": 97, "channel": 0}, {"type": "note_off", "time": 39, "note": 73, "velocity": 97, "channel": 0}, {"type": "note_on", "time": 18, "note": 74, "velocity": 110, "channel": 0}, {"type": "note_off", "time": 128, "note": 74, "velocity": 110, "channel": 0}, {"type": "note_on", "time": 36, "note": 74, "velocity": 119, "channel": 0}, {"type": "note_off", "time": 104, "note": 74, "velocity": 119, "channel": 0}, {"type": "note_on", "time": 4, "note": 75, "velocity": 118, "channel": 0}, {"type": "note_off", "time": 77, "note": 75, "velocity": 118, "channel": 0}, {"type": "note_on", "time": 4, "note": 74, "velocity": 115, "channel": 0}, {"type": "note_off", "time": 584, "note": 74, "velocity": 115, "channel": 0}, {"type": "note_on", "time": 15, "note": 72, "velocity": 116, "channel": 0}, {"type": "note_off", "time": 92, "note": 72, "velocity": 116, "channel": 0}, {"type": "note_on", "time": 10, "note": 71, "velocity": 115, "channel": 0}, {"type": "note_off", "time": 74, "note": 71, "velocity": 115, "channel": 0}, {"type": "note_on", "time": 26, "note": 70, "velocity": 111, "channel": 0}, {"type": "note_off", "time": 97, "note": 70, "velocity": 111, "channel": 0}, {"type": "note_on", "time": 27, "note": 69, "velocity": 99, "channel": 0}, {"type": "note_off", "time": 36, "note": 69, "velocity": 99, "channel": 0}, {"type": "note_on", "time": 16, "note": 70, "velocity": 116, "channel": 0}, {"type": "note_off", "time": 70, "note": 70, "velocity": 116, "channel": 0}, {"type": "note_on", "time": 37, "note": 76, "velocity": 118, "channel": 0}, {"type": "note_off", "time": 59, "note": 76, "velocity": 118, "channel": 0}, {"type": "note_on", "time": 30, "note": 69, "velocity": 113, "channel": 0}, {"type": "note_off", "time": 78, "note": 69, "velocity": 113, "channel": 0}, {"type": "note_on", "time": 25, "note": 63, "velocity": 111, "channel": 0}, {"type": "note_off", "time": 79, "note": 63, "velocity": 111, "channel": 0}, {"type": "note_on", "time": 488, "note": 81, "velocity": 120, "channel": 0}, {"type": "note_off", "time": 51, "note": 81, "velocity": 120, "channel": 0}, {"type": "note_on", "time": 5, "note": 79, "velocity": 115, "channel": 0}, {"type": "note_off", "time": 16, "note": 79, "velocity": 115, "channel": 0}, {"type": "note_on", "time": 4, "note": 80, "velocity": 118, "channel": 0}, {"type": "note_off", "time": 79, "note": 80, "velocity": 118, "channel": 0}, {"type": "note_on", "time": 18, "note": 77, "velocity": 123, "channel": 0}, {"type": "note_off", "time": 78, "note": 77, "velocity": 123, "channel": 0}, {"type": "note_on", "time": 18, "note": 76, "velocity": 112, "channel": 0}, {"type": "note_off", "time": 81, "note": 76, "velocity": 112, "channel": 0}, {"type": "note_on", "time": 18, "note": 74, "velocity": 118, "channel": 0}, {"type": "note_off", "time": 74, "note": 74, "velocity": 118, "channel": 0}, {"type": "note_on", "time": 21, "note": 75, "velocity": 118, "channel": 0}, {"type": "note_off", "time": 91, "note": 75, "velocity": 118, "channel": 0}, {"type": "note_on", "time": 60, "note": 75, "velocity": 119, "channel": 0}, {"type": "note_off", "time": 178, "note": 75, "velocity": 119, "channel": 0}, {"type": "note_on", "time": 27, "note": 74, "velocity": 118, "channel": 0}, {"type": "note_off", "time": 108, "note": 74, "velocity": 118, "channel": 0}, {"type": "note_on", "time": 64, "note": 74, "velocity": 118, "channel": 0}, {"type": "note_off", "time": 185, "note": 74, "velocity": 118, "channel": 0}, {"type": "note_on", "time": 30, "note": 72, "velocity": 110, "channel": 0}, {"type": "note_off", "time": 115, "note": 72, "velocity": 110, "channel": 0}, {"type": "note_on", "time": 17, "note": 70, "velocity": 92, "channel": 0}, {"type": "note_off", "time": 39, "note": 70, "velocity": 92, "channel": 0}, {"type": "note_on", "time": 12, "note": 72, "velocity": 112, "channel": 0}, {"type": "note_off", "time": 380, "note": 72, "velocity": 112, "channel": 0}, {"type": "note_on", "time": 20, "note": 71, "velocity": 106, "channel": 0}, {"type": "note_off", "time": 81, "note": 71, "velocity": 106, "channel": 0}, {"type": "note_on", "time": 31, "note": 74, "velocity": 118, "channel": 0}, {"type": "note_off", "time": 80, "note": 74, "velocity": 118, "channel": 0}, {"type": "note_on", "time": 46, "note": 72, "velocity": 103, "channel": 0}, {"type": "note_off", "time": 64, "note": 72, "velocity": 103, "channel": 0}, {"type": "note_on", "time": 6, "note": 71, "velocity": 110, "channel": 0}, {"type": "note_off", "time": 72, "note": 71, "velocity": 110, "channel": 0}, {"type": "note_on", "time": 23, "note": 70, "velocity": 104, "channel": 0}, {"type": "note_off", "time": 75, "note": 70, "velocity": 104, "channel": 0}, {"type": "note_on", "time": 18, "note": 68, "velocity": 119, "channel": 0}, {"type": "note_off", "time": 75, "note": 68, "velocity": 119, "channel": 0}, {"type": "note_on", "time": 27, "note": 67, "velocity": 101, "channel": 0}, {"type": "note_off", "time": 59, "note": 67, "velocity": 101, "channel": 0}, {"type": "note_on", "time": 29, "note": 65, "velocity": 114, "channel": 0}, {"type": "note_off", "time": 70, "note": 65, "velocity": 114, "channel": 0}, {"type": "note_on", "time": 20, "note": 62, "velocity": 97, "channel": 0}, {"type": "note_off", "time": 78, "note": 62, "velocity": 97, "channel": 0}, {"type": "note_on", "time": 10, "note": 63, "velocity": 102, "channel": 0}, {"type": "note_off", "time": 79, "note": 63, "velocity": 102, "channel": 0}, {"type": "note_on", "time": 11, "note": 64, "velocity": 96, "channel": 0}, {"type": "note_off", "time": 115, "note": 64, "velocity": 96, "channel": 0}, {"type": "note_on", "time": 806, "note": 77, "velocity": 124, "channel": 0}, {"type": "note_off", "time": 55, "note": 77, "velocity": 124, "channel": 0}, {"type": "note_on", "time": 3, "note": 76, "velocity": 110, "channel": 0}, {"type": "note_off", "time": 49, "note": 76, "velocity": 110, "channel": 0}, {"type": "note_on", "time": 4, "note": 77, "velocity": 123, "channel": 0}, {"type": "note_off", "time": 61, "note": 77, "velocity": 123, "channel": 0}, {"type": "note_on", "time": 6, "note": 76, "velocity": 118, "channel": 0}, {"type": "note_off", "time": 51, "note": 76, "velocity": 118, "channel": 0}, {"type": "note_on", "time": 11, "note": 76, "velocity": 120, "channel": 0}, {"type": "note_off", "time": 52, "note": 76, "velocity": 120, "channel": 0}, {"type": "note_on", "time": 8, "note": 75, "velocity": 113, "channel": 0}, {"type": "note_off", "time": 38, "note": 75, "velocity": 113, "channel": 0}, {"type": "note_on", "time": 4, "note": 76, "velocity": 116, "channel": 0}, {"type": "note_off", "time": 50, "note": 76, "velocity": 116, "channel": 0}, {"type": "note_on", "time": 11, "note": 74, "velocity": 114, "channel": 0}, {"type": "note_off", "time": 54, "note": 74, "velocity": 114, "channel": 0}, {"type": "note_on", "time": 5, "note": 72, "velocity": 113, "channel": 0}, {"type": "note_off", "time": 53, "note": 72, "velocity": 113, "channel": 0}, {"type": "note_on", "time": 6, "note": 71, "velocity": 95, "channel": 0}, {"type": "note_off", "time": 46, "note": 71, "velocity": 95, "channel": 0}, {"type": "note_on", "time": 7, "note": 74, "velocity": 116, "channel": 0}, {"type": "note_off", "time": 52, "note": 74, "velocity": 116, "channel": 0}, {"type": "note_on", "time": 7, "note": 72, "velocity": 116, "channel": 0}, {"type": "note_off", "time": 44, "note": 72, "velocity": 116, "channel": 0}, {"type": "note_on", "time": 5, "note": 71, "velocity": 111, "channel": 0}, {"type": "note_off", "time": 47, "note": 71, "velocity": 111, "channel": 0}, {"type": "note_on", "time": 11, "note": 69, "velocity": 111, "channel": 0}, {"type": "note_off", "time": 42, "note": 69, "velocity": 111, "channel": 0}, {"type": "note_on", "time": 12, "note": 68, "velocity": 106, "channel": 0}, {"type": "note_off", "time": 60, "note": 68, "velocity": 106, "channel": 0}, {"type": "note_on", "time": 22, "note": 69, "velocity": 100, "channel": 0}, {"type": "note_off", "time": 31, "note": 69, "velocity": 100, "channel": 0}, {"type": "note_on", "time": 9, "note": 71, "velocity": 113, "channel": 0}, {"type": "note_off", "time": 54, "note": 71, "velocity": 113, "channel": 0}, {"type": "note_on", "time": 19, "note": 69, "velocity": 103, "channel": 0}, {"type": "note_off", "time": 35, "note": 69, "velocity": 103, "channel": 0}, {"type": "note_on", "time": 10, "note": 72, "velocity": 118, "channel": 0}, {"type": "note_off", "time": 57, "note": 72, "velocity": 118, "channel": 0}, {"type": "note_on", "time": 12, "note": 71, "velocity": 108, "channel": 0}, {"type": "note_off", "time": 44, "note": 71, "velocity": 108, "channel": 0}, {"type": "note_on", "time": 3, "note": 69, "velocity": 112, "channel": 0}, {"type": "note_off", "time": 66, "note": 69, "velocity": 112, "channel": 0}, {"type": "note_on", "time": 15, "note": 67, "velocity": 103, "channel": 0}, {"type": "note_off", "time": 31, "note": 67, "velocity": 103, "channel": 0}, {"type": "note_on", "time": 8, "note": 68, "velocity": 116, "channel": 0}, {"type": "note_off", "time": 64, "note": 68, "velocity": 116, "channel": 0}, {"type": "note_on", "time": 15, "note": 63, "velocity": 98, "channel": 0}, {"type": "note_off", "time": 28, "note": 63, "velocity": 98, "channel": 0}, {"type": "note_on", "time": 12, "note": 66, "velocity": 113, "channel": 0}, {"type": "note_off", "time": 63, "note": 66, "velocity": 113, "channel": 0}, {"type": "note_on", "time": 19, "note": 63, "velocity": 103, "channel": 0}, {"type": "note_off", "time": 31, "note": 63, "velocity": 103, "channel": 0}, {"type": "note_on", "time": 6, "note": 64, "velocity": 106, "channel": 0}, {"type": "note_off", "time": 60, "note": 64, "velocity": 106, "channel": 0}, {"type": "note_on", "time": 8, "note": 66, "velocity": 108, "channel": 0}, {"type": "note_off", "time": 49, "note": 66, "velocity": 108, "channel": 0}, {"type": "note_on", "time": 6, "note": 68, "velocity": 109, "channel": 0}, {"type": "note_off", "time": 50, "note": 68, "velocity": 109, "channel": 0}, {"type": "note_on", "time": 8, "note": 69, "velocity": 117, "channel": 0}, {"type": "note_off", "time": 48, "note": 69, "velocity": 117, "channel": 0}, {"type": "note_on", "time": 4, "note": 71, "velocity": 117, "channel": 0}, {"type": "note_off", "time": 60, "note": 71, "velocity": 117, "channel": 0}, {"type": "note_on", "time": 34, "note": 68, "velocity": 99, "channel": 0}, {"type": "note_off", "time": 34, "note": 68, "velocity": 99, "channel": 0}, {"type": "note_on", "time": 2, "note": 69, "velocity": 119, "channel": 0}, {"type": "note_off", "time": 62, "note": 69, "velocity": 119, "channel": 0}, {"type": "note_on", "time": 4, "note": 65, "velocity": 107, "channel": 0}, {"type": "note_off", "time": 40, "note": 65, "velocity": 107, "channel": 0}, {"type": "note_on", "time": 11, "note": 68, "velocity": 120, "channel": 0}, {"type": "note_off", "time": 59, "note": 68, "velocity": 120, "channel": 0}, {"type": "note_on", "time": 12, "note": 66, "velocity": 114, "channel": 0}, {"type": "note_off", "time": 47, "note": 66, "velocity": 114, "channel": 0}, {"type": "note_on", "time": 9, "note": 64, "velocity": 113, "channel": 0}, {"type": "note_off", "time": 46, "note": 64, "velocity": 113, "channel": 0}, {"type": "note_on", "time": 7, "note": 61, "velocity": 111, "channel": 0}, {"type": "note_off", "time": 45, "note": 61, "velocity": 111, "channel": 0}, {"type": "note_on", "time": 10, "note": 57, "velocity": 103, "channel": 0}, {"type": "note_off", "time": 52, "note": 57, "velocity": 103, "channel": 0}, {"type": "note_on", "time": 69, "note": 63, "velocity": 111, "channel": 0}, {"type": "note_off", "time": 62, "note": 63, "velocity": 111, "channel": 0}, {"type": "note_on", "time": 13, "note": 60, "velocity": 103, "channel": 0}, {"type": "note_off", "time": 39, "note": 60, "velocity": 103, "channel": 0}, {"type": "note_on", "time": 10, "note": 65, "velocity": 118, "channel": 0}, {"type": "note_off", "time": 61, "note": 65, "velocity": 118, "channel": 0}, {"type": "note_on", "time": 8, "note": 62, "velocity": 93, "channel": 0}, {"type": "note_off", "time": 46, "note": 62, "velocity": 93, "channel": 0}, {"type": "note_on", "time": 10, "note": 64, "velocity": 104, "channel": 0}, {"type": "note_off", "time": 52, "note": 64, "velocity": 104, "channel": 0}, {"type": "note_on", "time": 16, "note": 69, "velocity": 105, "channel": 0}, {"type": "note_off", "time": 39, "note": 69, "velocity": 105, "channel": 0}, {"type": "note_on", "time": 17, "note": 67, "velocity": 116, "channel": 0}, {"type": "note_off", "time": 47, "note": 67, "velocity": 116, "channel": 0}, {"type": "note_on", "time": 16, "note": 65, "velocity": 107, "channel": 0}, {"type": "note_off", "time": 44, "note": 65, "velocity": 107, "channel": 0}, {"type": "note_on", "time": 9, "note": 64, "velocity": 104, "channel": 0}, {"type": "note_off", "time": 50, "note": 64, "velocity": 104, "channel": 0}, {"type": "note_on", "time": 14, "note": 62, "velocity": 105, "channel": 0}, {"type": "note_off", "time": 48, "note": 62, "velocity": 105, "channel": 0}, {"type": "note_on", "time": 15, "note": 65, "velocity": 104, "channel": 0}, {"type": "note_off", "time": 46, "note": 65, "velocity": 104, "channel": 0}, {"type": "note_on", "time": 21, "note": 68, "velocity": 117, "channel": 0}, {"type": "note_off", "time": 46, "note": 68, "velocity": 117, "channel": 0}, {"type": "note_on", "time": 5, "note": 67, "velocity": 108, "channel": 0}, {"type": "note_off", "time": 50, "note": 67, "velocity": 108, "channel": 0}, {"type": "note_on", "time": 15, "note": 65, "velocity": 111, "channel": 0}, {"type": "note_off", "time": 48, "note": 65, "velocity": 111, "channel": 0}, {"type": "note_on", "time": 10, "note": 64, "velocity": 101, "channel": 0}, {"type": "note_off", "time": 64, "note": 64, "velocity": 101, "channel": 0}, {"type": "note_on", "time": 4, "note": 67, "velocity": 99, "channel": 0}, {"type": "note_off", "time": 43, "note": 67, "velocity": 99, "channel": 0}, {"type": "note_on", "time": 19, "note": 70, "velocity": 117, "channel": 0}, {"type": "note_off", "time": 64, "note": 70, "velocity": 117, "channel": 0}, {"type": "note_on", "time": 28, "note": 67, "velocity": 105, "channel": 0}, {"type": "note_off", "time": 27, "note": 67, "velocity": 105, "channel": 0}, {"type": "note_on", "time": 3, "note": 68, "velocity": 113, "channel": 0}, {"type": "note_off", "time": 47, "note": 68, "velocity": 113, "channel": 0}, {"type": "note_on", "time": 20, "note": 70, "velocity": 118, "channel": 0}, {"type": "note_off", "time": 39, "note": 70, "velocity": 118, "channel": 0}, {"type": "note_on", "time": 16, "note": 73, "velocity": 116, "channel": 0}, {"type": "note_off", "time": 66, "note": 73, "velocity": 116, "channel": 0}, {"type": "note_on", "time": 3, "note": 71, "velocity": 108, "channel": 0}, {"type": "note_off", "time": 39, "note": 71, "velocity": 108, "channel": 0}, {"type": "note_on", "time": 11, "note": 73, "velocity": 123, "channel": 0}, {"type": "note_off", "time": 54, "note": 73, "velocity": 123, "channel": 0}, {"type": "note_on", "time": 6, "note": 71, "velocity": 120, "channel": 0}, {"type": "note_off", "time": 47, "note": 71, "velocity": 120, "channel": 0}, {"type": "note_on", "time": 7, "note": 70, "velocity": 114, "channel": 0}, {"type": "note_off", "time": 46, "note": 70, "velocity": 114, "channel": 0}, {"type": "note_on", "time": 17, "note": 71, "velocity": 116, "channel": 0}, {"type": "note_off", "time": 48, "note": 71, "velocity": 116, "channel": 0}, {"type": "note_on", "time": 4, "note": 70, "velocity": 112, "channel": 0}, {"type": "note_off", "time": 57, "note": 70, "velocity": 112, "channel": 0}, {"type": "note_on", "time": 10, "note": 68, "velocity": 104, "channel": 0}, {"type": "note_off", "time": 42, "note": 68, "velocity": 104, "channel": 0}, {"type": "note_on", "time": 4, "note": 70, "velocity": 118, "channel": 0}, {"type": "note_off", "time": 58, "note": 70, "velocity": 118, "channel": 0}, {"type": "note_on", "time": 16, "note": 68, "velocity": 110, "channel": 0}, {"type": "note_off", "time": 33, "note": 68, "velocity": 110, "channel": 0}, {"type": "note_on", "time": 3, "note": 67, "velocity": 110, "channel": 0}, {"type": "note_off", "time": 52, "note": 67, "velocity": 110, "channel": 0}, {"type": "note_on", "time": 6, "note": 65, "velocity": 109, "channel": 0}, {"type": "note_off", "time": 52, "note": 65, "velocity": 109, "channel": 0}, {"type": "note_on", "time": 6, "note": 64, "velocity": 100, "channel": 0}, {"type": "note_off", "time": 34, "note": 64, "velocity": 100, "channel": 0}, {"type": "note_on", "time": 20, "note": 67, "velocity": 94, "channel": 0}, {"type": "note_off", "time": 27, "note": 67, "velocity": 94, "channel": 0}, {"type": "note_on", "time": 7, "note": 69, "velocity": 89, "channel": 0}, {"type": "note_off", "time": 19, "note": 69, "velocity": 89, "channel": 0}, {"type": "note_on", "time": 8, "note": 70, "velocity": 115, "channel": 0}, {"type": "note_off", "time": 58, "note": 70, "velocity": 115, "channel": 0}, {"type": "note_on", "time": 27, "note": 67, "velocity": 98, "channel": 0}, {"type": "note_off", "time": 32, "note": 67, "velocity": 98, "channel": 0}, {"type": "note_on", "time": 4, "note": 68, "velocity": 109, "channel": 0}, {"type": "note_off", "time": 64, "note": 68, "velocity": 109, "channel": 0}, {"type": "note_on", "time": 13, "note": 69, "velocity": 110, "channel": 0}, {"type": "note_off", "time": 44, "note": 69, "velocity": 110, "channel": 0}, {"type": "note_on", "time": 6, "note": 72, "velocity": 117, "channel": 0}, {"type": "note_off", "time": 67, "note": 72, "velocity": 117, "channel": 0}, {"type": "note_on", "time": 8, "note": 69, "velocity": 103, "channel": 0}, {"type": "note_off", "time": 47, "note": 69, "velocity": 103, "channel": 0}, {"type": "note_on", "time": 2, "note": 70, "velocity": 114, "channel": 0}, {"type": "note_off", "time": 51, "note": 70, "velocity": 114, "channel": 0}, {"type": "note_on", "time": 10, "note": 72, "velocity": 117, "channel": 0}, {"type": "note_off", "time": 60, "note": 72, "velocity": 117, "channel": 0}, {"type": "note_on", "time": 9, "note": 73, "velocity": 113, "channel": 0}, {"type": "note_off", "time": 56, "note": 73, "velocity": 113, "channel": 0}, {"type": "note_on", "time": 10, "note": 74, "velocity": 120, "channel": 0}, {"type": "note_off", "time": 55, "note": 74, "velocity": 120, "channel": 0}, {"type": "note_on", "time": 5, "note": 75, "velocity": 120, "channel": 0}, {"type": "note_off", "time": 54, "note": 75, "velocity": 120, "channel": 0}, {"type": "note_on", "time": 8, "note": 75, "velocity": 116, "channel": 0}, {"type": "note_off", "time": 53, "note": 75, "velocity": 116, "channel": 0}, {"type": "note_on", "time": 5, "note": 76, "velocity": 119, "channel": 0}, {"type": "note_off", "time": 52, "note": 76, "velocity": 119, "channel": 0}, {"type": "note_on", "time": 13, "note": 76, "velocity": 120, "channel": 0}, {"type": "note_off", "time": 54, "note": 76, "velocity": 120, "channel": 0}, {"type": "note_on", "time": 4, "note": 77, "velocity": 119, "channel": 0}, {"type": "note_off", "time": 71, "note": 77, "velocity": 119, "channel": 0}, {"type": "note_on", "time": 4, "note": 75, "velocity": 107, "channel": 0}, {"type": "note_off", "time": 45, "note": 75, "velocity": 107, "channel": 0}, {"type": "note_on", "time": 9, "note": 76, "velocity": 121, "channel": 0}, {"type": "note_off", "time": 67, "note": 76, "velocity": 121, "channel": 0}, {"type": "note_on", "time": 5, "note": 77, "velocity": 122, "channel": 0}, {"type": "note_off", "time": 59, "note": 77, "velocity": 122, "channel": 0}, {"type": "note_on", "time": 22, "note": 79, "velocity": 120, "channel": 0}, {"type": "note_off", "time": 51, "note": 79, "velocity": 120, "channel": 0}, {"type": "note_on", "time": 12, "note": 82, "velocity": 118, "channel": 0}, {"type": "note_off", "time": 52, "note": 82, "velocity": 118, "channel": 0}, {"type": "note_on", "time": 25, "note": 79, "velocity": 119, "channel": 0}, {"type": "note_off", "time": 24, "note": 79, "velocity": 119, "channel": 0}, {"type": "note_on", "time": 4, "note": 80, "velocity": 119, "channel": 0}, {"type": "note_off", "time": 39, "note": 80, "velocity": 119, "channel": 0}, {"type": "note_on", "time": 10, "note": 80, "velocity": 120, "channel": 0}, {"type": "note_off", "time": 52, "note": 80, "velocity": 120, "channel": 0}, {"type": "note_on", "time": 13, "note": 80, "velocity": 119, "channel": 0}, {"type": "note_off", "time": 52, "note": 80, "velocity": 119, "channel": 0}, {"type": "note_on", "time": 14, "note": 79, "velocity": 118, "channel": 0}, {"type": "note_off", "time": 51, "note": 79, "velocity": 118, "channel": 0}, {"type": "note_on", "time": 4, "note": 77, "velocity": 115, "channel": 0}, {"type": "note_off", "time": 43, "note": 77, "velocity": 115, "channel": 0}, {"type": "note_on", "time": 10, "note": 79, "velocity": 120, "channel": 0}, {"type": "note_off", "time": 42, "note": 79, "velocity": 120, "channel": 0}, {"type": "note_on", "time": 21, "note": 79, "velocity": 120, "channel": 0}, {"type": "note_off", "time": 40, "note": 79, "velocity": 120, "channel": 0}, {"type": "note_on", "time": 12, "note": 79, "velocity": 119, "channel": 0}, {"type": "note_off", "time": 54, "note": 79, "velocity": 119, "channel": 0}, {"type": "note_on", "time": 6, "note": 77, "velocity": 120, "channel": 0}, {"type": "note_off", "time": 53, "note": 77, "velocity": 120, "channel": 0}, {"type": "note_on", "time": 5, "note": 76, "velocity": 108, "channel": 0}, {"type": "note_off", "time": 36, "note": 76, "velocity": 108, "channel": 0}, {"type": "note_on", "time": 8, "note": 77, "velocity": 123, "channel": 0}, {"type": "note_off", "time": 52, "note": 77, "velocity": 123, "channel": 0}, {"type": "note_on", "time": 12, "note": 77, "velocity": 121, "channel": 0}, {"type": "note_off", "time": 42, "note": 77, "velocity": 121, "channel": 0}, {"type": "note_on", "time": 10, "note": 77, "velocity": 121, "channel": 0}, {"type": "note_off", "time": 24, "note": 77, "velocity": 121, "channel": 0}, {"type": "note_on", "time": 4, "note": 76, "velocity": 117, "channel": 0}, {"type": "note_off", "time": 26, "note": 76, "velocity": 117, "channel": 0}, {"type": "note_on", "time": 18, "note": 76, "velocity": 121, "channel": 0}, {"type": "note_off", "time": 68, "note": 76, "velocity": 121, "channel": 0}, {"type": "note_on", "time": 27, "note": 74, "velocity": 104, "channel": 0}, {"type": "note_off", "time": 25, "note": 74, "velocity": 104, "channel": 0}, {"type": "note_on", "time": 11, "note": 76, "velocity": 119, "channel": 0}, {"type": "note_off", "time": 58, "note": 76, "velocity": 119, "channel": 0}, {"type": "note_on", "time": 14, "note": 76, "velocity": 117, "channel": 0}, {"type": "note_off", "time": 55, "note": 76, "velocity": 117, "channel": 0}, {"type": "note_on", "time": 4, "note": 75, "velocity": 119, "channel": 0}, {"type": "note_off", "time": 73, "note": 75, "velocity": 119, "channel": 0}, {"type": "note_on", "time": 12, "note": 74, "velocity": 108, "channel": 0}, {"type": "note_off", "time": 25, "note": 74, "velocity": 108, "channel": 0}, {"type": "note_on", "time": 11, "note": 75, "velocity": 118, "channel": 0}, {"type": "note_off", "time": 67, "note": 75, "velocity": 118, "channel": 0}, {"type": "note_on", "time": 22, "note": 74, "velocity": 120, "channel": 0}, {"type": "note_off", "time": 40, "note": 74, "velocity": 120, "channel": 0}, {"type": "note_on", "time": 12, "note": 73, "velocity": 115, "channel": 0}, {"type": "note_off", "time": 63, "note": 73, "velocity": 115, "channel": 0}, {"type": "note_on", "time": 34, "note": 72, "velocity": 100, "channel": 0}, {"type": "note_off", "time": 42, "note": 72, "velocity": 100, "channel": 0}, {"type": "note_on", "time": 33, "note": 70, "velocity": 116, "channel": 0}, {"type": "note_off", "time": 44, "note": 70, "velocity": 116, "channel": 0}, {"type": "note_on", "time": 5, "note": 72, "velocity": 107, "channel": 0}, {"type": "note_off", "time": 47, "note": 72, "velocity": 107, "channel": 0}, {"type": "note_on", "time": 13, "note": 73, "velocity": 116, "channel": 0}, {"type": "note_off", "time": 70, "note": 73, "velocity": 116, "channel": 0}, {"type": "note_on", "time": 14, "note": 71, "velocity": 93, "channel": 0}, {"type": "note_off", "time": 37, "note": 71, "velocity": 93, "channel": 0}, {"type": "note_on", "time": 11, "note": 72, "velocity": 118, "channel": 0}, {"type": "note_off", "time": 66, "note": 72, "velocity": 118, "channel": 0}, {"type": "note_on", "time": 11, "note": 70, "velocity": 118, "channel": 0}, {"type": "note_off", "time": 66, "note": 70, "velocity": 118, "channel": 0}, {"type": "note_on", "time": 47, "note": 75, "velocity": 122, "channel": 0}, {"type": "note_off", "time": 58, "note": 75, "velocity": 122, "channel": 0}, {"type": "note_on", "time": 58, "note": 76, "velocity": 120, "channel": 0}, {"type": "note_off", "time": 59, "note": 76, "velocity": 120, "channel": 0}, {"type": "note_on", "time": 69, "note": 74, "velocity": 118, "channel": 0}, {"type": "note_off", "time": 63, "note": 74, "velocity": 118, "channel": 0}, {"type": "note_on", "time": 67, "note": 80, "velocity": 117, "channel": 0}, {"type": "note_off", "time": 26, "note": 80, "velocity": 117, "channel": 0}, {"type": "note_on", "time": 2, "note": 79, "velocity": 114, "channel": 0}, {"type": "note_off", "time": 22, "note": 79, "velocity": 114, "channel": 0}, {"type": "note_on", "time": 3, "note": 78, "velocity": 121, "channel": 0}, {"type": "note_off", "time": 44, "note": 78, "velocity": 121, "channel": 0}, {"type": "note_on", "time": 5, "note": 77, "velocity": 122, "channel": 0}, {"type": "note_off", "time": 65, "note": 77, "velocity": 122, "channel": 0}, {"type": "note_on", "time": 44, "note": 76, "velocity": 121, "channel": 0}, {"type": "note_off", "time": 68, "note": 76, "velocity": 121, "channel": 0}, {"type": "note_on", "time": 60, "note": 75, "velocity": 115, "channel": 0}, {"type": "note_off", "time": 70, "note": 75, "velocity": 115, "channel": 0}, {"type": "note_on", "time": 29, "note": 74, "velocity": 121, "channel": 0}, {"type": "note_off", "time": 56, "note": 74, "velocity": 121, "channel": 0}, {"type": "note_on", "time": 14, "note": 73, "velocity": 114, "channel": 0}, {"type": "note_off", "time": 61, "note": 73, "velocity": 114, "channel": 0}, {"type": "note_on", "time": 17, "note": 71, "velocity": 103, "channel": 0}, {"type": "note_off", "time": 76, "note": 71, "velocity": 103, "channel": 0}, {"type": "note_on", "time": 120, "note": 63, "velocity": 89, "channel": 0}, {"type": "note_off", "time": 301, "note": 63, "velocity": 89, "channel": 0}, {"type": "note_on", "time": 7, "note": 65, "velocity": 96, "channel": 0}, {"type": "note_off", "time": 220, "note": 65, "velocity": 96, "channel": 0}, {"type": "note_on", "time": 17, "note": 67, "velocity": 108, "channel": 0}, {"type": "note_off", "time": 109, "note": 67, "velocity": 108, "channel": 0}, {"type": "note_on", "time": 5, "note": 64, "velocity": 119, "channel": 0}, {"type": "note_off", "time": 58, "note": 64, "velocity": 119, "channel": 0}, {"type": "note_on", "time": 1097, "note": 90, "velocity": 100, "channel": 0}, {"type": "note_off", "time": 25, "note": 90, "velocity": 100, "channel": 0}, {"type": "note_on", "time": 3, "note": 85, "velocity": 119, "channel": 0}, {"type": "note_off", "time": 21, "note": 85, "velocity": 119, "channel": 0}, {"type": "note_on", "time": 0, "note": 84, "velocity": 119, "channel": 0}, {"type": "note_off", "time": 18, "note": 84, "velocity": 119, "channel": 0}, {"type": "note_on", "time": 2, "note": 83, "velocity": 118, "channel": 0}, {"type": "note_off", "time": 21, "note": 83, "velocity": 118, "channel": 0}, {"type": "note_on", "time": 8, "note": 80, "velocity": 119, "channel": 0}, {"type": "note_off", "time": 28, "note": 80, "velocity": 119, "channel": 0}, {"type": "note_on", "time": 4, "note": 79, "velocity": 118, "channel": 0}, {"type": "note_off", "time": 23, "note": 79, "velocity": 118, "channel": 0}, {"type": "note_on", "time": 3, "note": 78, "velocity": 118, "channel": 0}, {"type": "note_off", "time": 14, "note": 78, "velocity": 118, "channel": 0}, {"type": "note_on", "time": 2, "note": 76, "velocity": 122, "channel": 0}, {"type": "note_off", "time": 27, "note": 76, "velocity": 122, "channel": 0}, {"type": "note_on", "time": 3, "note": 77, "velocity": 116, "channel": 0}, {"type": "note_off", "time": 20, "note": 77, "velocity": 116, "channel": 0}, {"type": "note_on", "time": 0, "note": 75, "velocity": 111, "channel": 0}, {"type": "note_off", "time": 22, "note": 75, "velocity": 111, "channel": 0}, {"type": "note_on", "time": 1, "note": 71, "velocity": 116, "channel": 0}, {"type": "note_off", "time": 38, "note": 71, "velocity": 116, "channel": 0}, {"type": "note_on", "time": 3, "note": 70, "velocity": 106, "channel": 0}, {"type": "note_off", "time": 24, "note": 70, "velocity": 106, "channel": 0}, {"type": "note_on", "time": 4, "note": 67, "velocity": 116, "channel": 0}, {"type": "note_off", "time": 38, "note": 67, "velocity": 116, "channel": 0}, {"type": "note_on", "time": 5, "note": 65, "velocity": 104, "channel": 0}, {"type": "note_off", "time": 20, "note": 65, "velocity": 104, "channel": 0}, {"type": "note_on", "time": 1, "note": 64, "velocity": 99, "channel": 0}, {"type": "note_off", "time": 16, "note": 64, "velocity": 99, "channel": 0}, {"type": "note_on", "time": 3, "note": 65, "velocity": 105, "channel": 0}, {"type": "note_off", "time": 20, "note": 65, "velocity": 105, "channel": 0}, {"type": "note_on", "time": 6, "note": 62, "velocity": 103, "channel": 0}, {"type": "note_off", "time": 23, "note": 62, "velocity": 103, "channel": 0}, {"type": "note_on", "time": 3, "note": 60, "velocity": 103, "channel": 0}, {"type": "note_off", "time": 67, "note": 60, "velocity": 103, "channel": 0}, {"type": "note_on", "time": 9, "note": 63, "velocity": 103, "channel": 0}, {"type": "note_off", "time": 20, "note": 63, "velocity": 103, "channel": 0}, {"type": "note_on", "time": 4, "note": 65, "velocity": 111, "channel": 0}, {"type": "note_off", "time": 17, "note": 65, "velocity": 111, "channel": 0}, {"type": "note_on", "time": 4, "note": 68, "velocity": 126, "channel": 0}, {"type": "note_off", "time": 25, "note": 68, "velocity": 126, "channel": 0}, {"type": "note_on", "time": 3, "note": 67, "velocity": 116, "channel": 0}, {"type": "note_off", "time": 38, "note": 67, "velocity": 116, "channel": 0}, {"type": "note_on", "time": 5, "note": 65, "velocity": 109, "channel": 0}, {"type": "note_off", "time": 30, "note": 65, "velocity": 109, "channel": 0}, {"type": "note_on", "time": 7, "note": 62, "velocity": 104, "channel": 0}, {"type": "note_off", "time": 30, "note": 62, "velocity": 104, "channel": 0}, {"type": "note_on", "time": 4, "note": 63, "velocity": 98, "channel": 0}, {"type": "note_off", "time": 33, "note": 63, "velocity": 98, "channel": 0}, {"type": "note_on", "time": 6, "note": 65, "velocity": 121, "channel": 0}, {"type": "note_off", "time": 28, "note": 65, "velocity": 121, "channel": 0}, {"type": "note_on", "time": 4, "note": 67, "velocity": 10, "channel": 0}, {"type": "note_off", "time": 39, "note": 67, "velocity": 10, "channel": 0}, {"type": "note_on", "time": 773, "note": 71, "velocity": 106, "channel": 0}, {"type": "note_off", "time": 119, "note": 71, "velocity": 106, "channel": 0}, {"type": "note_on", "time": 15, "note": 72, "velocity": 94, "channel": 0}, {"type": "note_off", "time": 44, "note": 72, "velocity": 94, "channel": 0}, {"type": "note_on", "time": 16, "note": 74, "velocity": 116, "channel": 0}, {"type": "note_off", "time": 99, "note": 74, "velocity": 116, "channel": 0}, {"type": "note_on", "time": 26, "note": 76, "velocity": 119, "channel": 0}, {"type": "note_off", "time": 91, "note": 76, "velocity": 119, "channel": 0}, {"type": "note_on", "time": 113, "note": 76, "velocity": 121, "channel": 0}, {"type": "note_off", "time": 66, "note": 76, "velocity": 121, "channel": 0}, {"type": "note_on", "time": 124, "note": 76, "velocity": 119, "channel": 0}, {"type": "note_off", "time": 76, "note": 76, "velocity": 119, "channel": 0}, {"type": "note_on", "time": 101, "note": 76, "velocity": 121, "channel": 0}, {"type": "note_off", "time": 93, "note": 76, "velocity": 121, "channel": 0}, {"type": "note_on", "time": 102, "note": 74, "velocity": 106, "channel": 0}, {"type": "note_off", "time": 54, "note": 74, "velocity": 106, "channel": 0}, {"type": "note_on", "time": 13, "note": 76, "velocity": 120, "channel": 0}, {"type": "note_off", "time": 186, "note": 76, "velocity": 120, "channel": 0}, {"type": "note_on", "time": 10, "note": 77, "velocity": 122, "channel": 0}, {"type": "note_off", "time": 173, "note": 77, "velocity": 122, "channel": 0}, {"type": "note_on", "time": 6, "note": 79, "velocity": 115, "channel": 0}, {"type": "note_off", "time": 157, "note": 79, "velocity": 115, "channel": 0}, {"type": "note_on", "time": 31, "note": 81, "velocity": 117, "channel": 0}, {"type": "note_off", "time": 183, "note": 81, "velocity": 117, "channel": 0}, {"type": "note_on", "time": 15, "note": 78, "velocity": 115, "channel": 0}, {"type": "note_off", "time": 645, "note": 78, "velocity": 115, "channel": 0}, {"type": "note_on", "time": 62, "note": 79, "velocity": 126, "channel": 0}, {"type": "note_off", "time": 55, "note": 79, "velocity": 126, "channel": 0}, {"type": "note_on", "time": 136, "note": 76, "velocity": 127, "channel": 0}, {"type": "note_off", "time": 61, "note": 76, "velocity": 127, "channel": 0}, {"type": "note_on", "time": 20, "note": 72, "velocity": 103, "channel": 0}, {"type": "note_off", "time": 107, "note": 72, "velocity": 103, "channel": 0}, {"type": "note_on", "time": 10, "note": 65, "velocity": 101, "channel": 0}, {"type": "note_off", "time": 42, "note": 65, "velocity": 101, "channel": 0}, {"type": "note_on", "time": 2, "note": 69, "velocity": 96, "channel": 0}, {"type": "note_off", "time": 168, "note": 69, "velocity": 96, "channel": 0}, {"type": "note_on", "time": 921, "note": 77, "velocity": 98, "channel": 0}, {"type": "note_off", "time": 33, "note": 77, "velocity": 98, "channel": 0}, {"type": "note_on", "time": 70, "note": 79, "velocity": 116, "channel": 0}, {"type": "note_off", "time": 28, "note": 79, "velocity": 116, "channel": 0}, {"type": "note_on", "time": 3, "note": 80, "velocity": 112, "channel": 0}, {"type": "note_off", "time": 68, "note": 80, "velocity": 112, "channel": 0}, {"type": "note_on", "time": 7, "note": 77, "velocity": 116, "channel": 0}, {"type": "note_off", "time": 78, "note": 77, "velocity": 116, "channel": 0}, {"type": "note_on", "time": 18, "note": 76, "velocity": 111, "channel": 0}, {"type": "note_off", "time": 86, "note": 76, "velocity": 111, "channel": 0}, {"type": "note_on", "time": 7, "note": 74, "velocity": 119, "channel": 0}, {"type": "note_off", "time": 86, "note": 74, "velocity": 119, "channel": 0}, {"type": "note_on", "time": 20, "note": 72, "velocity": 105, "channel": 0}, {"type": "note_off", "time": 80, "note": 72, "velocity": 105, "channel": 0}, {"type": "note_on", "time": 9, "note": 71, "velocity": 113, "channel": 0}, {"type": "note_off", "time": 56, "note": 71, "velocity": 113, "channel": 0}, {"type": "note_on", "time": 25, "note": 69, "velocity": 114, "channel": 0}, {"type": "note_off", "time": 115, "note": 69, "velocity": 114, "channel": 0}, {"type": "note_on", "time": 20, "note": 68, "velocity": 97, "channel": 0}, {"type": "note_off", "time": 34, "note": 68, "velocity": 97, "channel": 0}, {"type": "note_on", "time": 10, "note": 69, "velocity": 115, "channel": 0}, {"type": "note_off", "time": 161, "note": 69, "velocity": 115, "channel": 0}, {"type": "note_on", "time": 8, "note": 71, "velocity": 112, "channel": 0}, {"type": "note_off", "time": 117, "note": 71, "velocity": 112, "channel": 0}, {"type": "note_on", "time": 16, "note": 71, "velocity": 114, "channel": 0}, {"type": "note_off", "time": 132, "note": 71, "velocity": 114, "channel": 0}, {"type": "note_on", "time": 4, "note": 72, "velocity": 113, "channel": 0}, {"type": "note_off", "time": 293, "note": 72, "velocity": 113, "channel": 0}, {"type": "note_on", "time": 29, "note": 71, "velocity": 118, "channel": 0}, {"type": "note_off", "time": 49, "note": 71, "velocity": 118, "channel": 0}, {"type": "note_on", "time": 6, "note": 72, "velocity": 109, "channel": 0}, {"type": "note_off", "time": 61, "note": 72, "velocity": 109, "channel": 0}, {"type": "note_on", "time": 9, "note": 71, "velocity": 119, "channel": 0}, {"type": "note_off", "time": 29, "note": 71, "velocity": 119, "channel": 0}, {"type": "note_on", "time": 3, "note": 72, "velocity": 108, "channel": 0}, {"type": "note_off", "time": 103, "note": 72, "velocity": 108, "channel": 0}, {"type": "note_on", "time": 7, "note": 71, "velocity": 118, "channel": 0}, {"type": "note_off", "time": 29, "note": 71, "velocity": 118, "channel": 0}, {"type": "note_on", "time": 8, "note": 72, "velocity": 111, "channel": 0}, {"type": "note_off", "time": 74, "note": 72, "velocity": 111, "channel": 0}, {"type": "note_on", "time": 11, "note": 70, "velocity": 111, "channel": 0}, {"type": "note_off", "time": 112, "note": 70, "velocity": 111, "channel": 0}, {"type": "note_on", "time": 14, "note": 71, "velocity": 111, "channel": 0}, {"type": "note_off", "time": 114, "note": 71, "velocity": 111, "channel": 0}, {"type": "note_on", "time": 23, "note": 70, "velocity": 117, "channel": 0}, {"type": "note_off", "time": 35, "note": 70, "velocity": 117, "channel": 0}, {"type": "note_on", "time": 3, "note": 71, "velocity": 107, "channel": 0}, {"type": "note_off", "time": 75, "note": 71, "velocity": 107, "channel": 0}, {"type": "note_on", "time": 15, "note": 70, "velocity": 115, "channel": 0}, {"type": "note_off", "time": 28, "note": 70, "velocity": 115, "channel": 0}, {"type": "note_on", "time": 3, "note": 71, "velocity": 110, "channel": 0}, {"type": "note_off", "time": 80, "note": 71, "velocity": 110, "channel": 0}, {"type": "note_on", "time": 19, "note": 71, "velocity": 109, "channel": 0}, {"type": "note_off", "time": 105, "note": 71, "velocity": 109, "channel": 0}, {"type": "note_on", "time": 37, "note": 69, "velocity": 94, "channel": 0}, {"type": "note_off", "time": 95, "note": 69, "velocity": 94, "channel": 0}, {"type": "note_on", "time": 20, "note": 70, "velocity": 112, "channel": 0}, {"type": "note_off", "time": 98, "note": 70, "velocity": 112, "channel": 0}, {"type": "note_on", "time": 22, "note": 70, "velocity": 112, "channel": 0}, {"type": "note_off", "time": 116, "note": 70, "velocity": 112, "channel": 0}, {"type": "note_on", "time": 22, "note": 70, "velocity": 112, "channel": 0}, {"type": "note_off", "time": 102, "note": 70, "velocity": 112, "channel": 0}, {"type": "note_on", "time": 16, "note": 70, "velocity": 114, "channel": 0}, {"type": "note_off", "time": 110, "note": 70, "velocity": 114, "channel": 0}, {"type": "note_on", "time": 34, "note": 68, "velocity": 103, "channel": 0}, {"type": "note_off", "time": 74, "note": 68, "velocity": 103, "channel": 0}, {"type": "note_on", "time": 13, "note": 69, "velocity": 113, "channel": 0}, {"type": "note_off", "time": 123, "note": 69, "velocity": 113, "channel": 0}, {"type": "note_on", "time": 10, "note": 69, "velocity": 111, "channel": 0}, {"type": "note_off", "time": 121, "note": 69, "velocity": 111, "channel": 0}, {"type": "note_on", "time": 11, "note": 69, "velocity": 114, "channel": 0}, {"type": "note_off", "time": 109, "note": 69, "velocity": 114, "channel": 0}, {"type": "note_on", "time": 8, "note": 67, "velocity": 98, "channel": 0}, {"type": "note_off", "time": 93, "note": 67, "velocity": 98, "channel": 0}, {"type": "note_on", "time": 20, "note": 68, "velocity": 113, "channel": 0}, {"type": "note_off", "time": 123, "note": 68, "velocity": 113, "channel": 0}, {"type": "note_on", "time": 8, "note": 68, "velocity": 115, "channel": 0}, {"type": "note_off", "time": 108, "note": 68, "velocity": 115, "channel": 0}, {"type": "note_on", "time": 11, "note": 68, "velocity": 116, "channel": 0}, {"type": "note_off", "time": 105, "note": 68, "velocity": 116, "channel": 0}, {"type": "note_on", "time": 21, "note": 66, "velocity": 99, "channel": 0}, {"type": "note_off", "time": 84, "note": 66, "velocity": 99, "channel": 0}, {"type": "note_on", "time": 40, "note": 67, "velocity": 115, "channel": 0}, {"type": "note_off", "time": 90, "note": 67, "velocity": 115, "channel": 0}, {"type": "note_on", "time": 9, "note": 69, "velocity": 117, "channel": 0}, {"type": "note_off", "time": 85, "note": 69, "velocity": 117, "channel": 0}, {"type": "note_on", "time": 36, "note": 71, "velocity": 118, "channel": 0}, {"type": "note_off", "time": 22, "note": 71, "velocity": 118, "channel": 0}, {"type": "note_on", "time": 3, "note": 72, "velocity": 103, "channel": 0}, {"type": "note_off", "time": 529, "note": 72, "velocity": 103, "channel": 0}, {"type": "note_on", "time": 24, "note": 76, "velocity": 111, "channel": 0}, {"type": "note_off", "time": 141, "note": 76, "velocity": 111, "channel": 0}, {"type": "note_on", "time": 12, "note": 72, "velocity": 105, "channel": 0}, {"type": "note_off", "time": 52, "note": 72, "velocity": 105, "channel": 0}, {"type": "note_on", "time": 975, "note": 67, "velocity": 115, "channel": 0}, {"type": "note_off", "time": 105, "note": 67, "velocity": 115, "channel": 0}, {"type": "note_on", "time": 9, "note": 65, "velocity": 96, "channel": 0}, {"type": "note_off", "time": 51, "note": 65, "velocity": 96, "channel": 0}, {"type": "note_on", "time": 23, "note": 67, "velocity": 109, "channel": 0}, {"type": "note_off", "time": 98, "note": 67, "velocity": 109, "channel": 0}, {"type": "note_on", "time": 9, "note": 69, "velocity": 119, "channel": 0}, {"type": "note_off", "time": 78, "note": 69, "velocity": 119, "channel": 0}, {"type": "note_on", "time": 32, "note": 67, "velocity": 100, "channel": 0}, {"type": "note_off", "time": 76, "note": 67, "velocity": 100, "channel": 0}, {"type": "note_on", "time": 8, "note": 65, "velocity": 117, "channel": 0}, {"type": "note_off", "time": 66, "note": 65, "velocity": 117, "channel": 0}, {"type": "note_on", "time": 24, "note": 64, "velocity": 116, "channel": 0}, {"type": "note_off", "time": 84, "note": 64, "velocity": 116, "channel": 0}, {"type": "note_on", "time": 773, "note": 73, "velocity": 112, "channel": 0}, {"type": "note_off", "time": 27, "note": 73, "velocity": 112, "channel": 0}, {"type": "note_on", "time": 3, "note": 74, "velocity": 113, "channel": 0}, {"type": "note_off", "time": 228, "note": 74, "velocity": 113, "channel": 0}, {"type": "note_on", "time": 11, "note": 74, "velocity": 115, "channel": 0}, {"type": "note_off", "time": 191, "note": 74, "velocity": 115, "channel": 0}, {"type": "note_on", "time": 12, "note": 76, "velocity": 118, "channel": 0}, {"type": "note_off", "time": 154, "note": 76, "velocity": 118, "channel": 0}, {"type": "note_on", "time": 46, "note": 72, "velocity": 107, "channel": 0}, {"type": "note_off", "time": 114, "note": 72, "velocity": 107, "channel": 0}, {"type": "note_on", "time": 27, "note": 69, "velocity": 95, "channel": 0}, {"type": "note_off", "time": 47, "note": 69, "velocity": 95, "channel": 0}, {"type": "note_on", "time": 365, "note": 71, "velocity": 107, "channel": 0}, {"type": "note_off", "time": 59, "note": 71, "velocity": 107, "channel": 0}, {"type": "note_on", "time": 4, "note": 72, "velocity": 101, "channel": 0}, {"type": "note_off", "time": 48, "note": 72, "velocity": 101, "channel": 0}, {"type": "note_on", "time": 7, "note": 74, "velocity": 117, "channel": 0}, {"type": "note_off", "time": 58, "note": 74, "velocity": 117, "channel": 0}, {"type": "note_on", "time": 7, "note": 72, "velocity": 112, "channel": 0}, {"type": "note_off", "time": 46, "note": 72, "velocity": 112, "channel": 0}, {"type": "note_on", "time": 5, "note": 71, "velocity": 112, "channel": 0}, {"type": "note_off", "time": 50, "note": 71, "velocity": 112, "channel": 0}, {"type": "note_on", "time": 8, "note": 69, "velocity": 111, "channel": 0}, {"type": "note_off", "time": 49, "note": 69, "velocity": 111, "channel": 0}, {"type": "note_on", "time": 5, "note": 68, "velocity": 105, "channel": 0}, {"type": "note_off", "time": 62, "note": 68, "velocity": 105, "channel": 0}, {"type": "note_on", "time": 22, "note": 71, "velocity": 91, "channel": 0}, {"type": "note_off", "time": 33, "note": 71, "velocity": 91, "channel": 0}, {"type": "note_on", "time": 3, "note": 74, "velocity": 112, "channel": 0}, {"type": "note_off", "time": 67, "note": 74, "velocity": 112, "channel": 0}, {"type": "note_on", "time": 5, "note": 77, "velocity": 117, "channel": 0}, {"type": "note_off", "time": 53, "note": 77, "velocity": 117, "channel": 0}, {"type": "note_on", "time": 9, "note": 74, "velocity": 110, "channel": 0}, {"type": "note_off", "time": 61, "note": 74, "velocity": 110, "channel": 0}, {"type": "note_on", "time": 10, "note": 78, "velocity": 95, "channel": 0}, {"type": "note_off", "time": 35, "note": 78, "velocity": 95, "channel": 0}, {"type": "note_on", "time": 12, "note": 76, "velocity": 112, "channel": 0}, {"type": "note_off", "time": 65, "note": 76, "velocity": 112, "channel": 0}, {"type": "note_on", "time": 5, "note": 72, "velocity": 104, "channel": 0}, {"type": "note_off", "time": 46, "note": 72, "velocity": 104, "channel": 0}, {"type": "note_on", "time": 6, "note": 71, "velocity": 101, "channel": 0}, {"type": "note_off", "time": 52, "note": 71, "velocity": 101, "channel": 0}, {"type": "note_on", "time": 17, "note": 74, "velocity": 115, "channel": 0}, {"type": "note_off", "time": 51, "note": 74, "velocity": 115, "channel": 0}, {"type": "note_on", "time": 9, "note": 72, "velocity": 109, "channel": 0}, {"type": "note_off", "time": 50, "note": 72, "velocity": 109, "channel": 0}, {"type": "note_on", "time": 10, "note": 69, "velocity": 111, "channel": 0}, {"type": "note_off", "time": 53, "note": 69, "velocity": 111, "channel": 0}, {"type": "note_on", "time": 8, "note": 68, "velocity": 103, "channel": 0}, {"type": "note_off", "time": 44, "note": 68, "velocity": 103, "channel": 0}, {"type": "note_on", "time": 8, "note": 69, "velocity": 97, "channel": 0}, {"type": "note_off", "time": 48, "note": 69, "velocity": 97, "channel": 0}, {"type": "note_on", "time": 3, "note": 71, "velocity": 113, "channel": 0}, {"type": "note_off", "time": 58, "note": 71, "velocity": 113, "channel": 0}, {"type": "note_on", "time": 11, "note": 69, "velocity": 99, "channel": 0}, {"type": "note_off", "time": 51, "note": 69, "velocity": 99, "channel": 0}, {"type": "note_on", "time": 9, "note": 70, "velocity": 112, "channel": 0}, {"type": "note_off", "time": 53, "note": 70, "velocity": 112, "channel": 0}, {"type": "note_on", "time": 8, "note": 68, "velocity": 111, "channel": 0}, {"type": "note_off", "time": 52, "note": 68, "velocity": 111, "channel": 0}, {"type": "note_on", "time": 3, "note": 67, "velocity": 104, "channel": 0}, {"type": "note_off", "time": 50, "note": 67, "velocity": 104, "channel": 0}, {"type": "note_on", "time": 18, "note": 65, "velocity": 111, "channel": 0}, {"type": "note_off", "time": 41, "note": 65, "velocity": 111, "channel": 0}, {"type": "note_on", "time": 7, "note": 64, "velocity": 103, "channel": 0}, {"type": "note_off", "time": 54, "note": 64, "velocity": 103, "channel": 0}, {"type": "note_on", "time": 24, "note": 62, "velocity": 96, "channel": 0}, {"type": "note_off", "time": 32, "note": 62, "velocity": 96, "channel": 0}, {"type": "note_on", "time": 7, "note": 65, "velocity": 111, "channel": 0}, {"type": "note_off", "time": 60, "note": 65, "velocity": 111, "channel": 0}, {"type": "note_on", "time": 6, "note": 68, "velocity": 116, "channel": 0}, {"type": "note_off", "time": 49, "note": 68, "velocity": 116, "channel": 0}, {"type": "note_on", "time": 10, "note": 67, "velocity": 106, "channel": 0}, {"type": "note_off", "time": 48, "note": 67, "velocity": 106, "channel": 0}, {"type": "note_on", "time": 21, "note": 65, "velocity": 108, "channel": 0}, {"type": "note_off", "time": 40, "note": 65, "velocity": 108, "channel": 0}, {"type": "note_on", "time": 8, "note": 64, "velocity": 96, "channel": 0}, {"type": "note_off", "time": 68, "note": 64, "velocity": 96, "channel": 0}, {"type": "note_on", "time": 10, "note": 67, "velocity": 101, "channel": 0}, {"type": "note_off", "time": 31, "note": 67, "velocity": 101, "channel": 0}, {"type": "note_on", "time": 17, "note": 70, "velocity": 113, "channel": 0}, {"type": "note_off", "time": 63, "note": 70, "velocity": 113, "channel": 0}, {"type": "note_on", "time": 33, "note": 67, "velocity": 90, "channel": 0}, {"type": "note_off", "time": 32, "note": 67, "velocity": 90, "channel": 0}, {"type": "note_on", "time": 4, "note": 68, "velocity": 107, "channel": 0}, {"type": "note_off", "time": 52, "note": 68, "velocity": 107, "channel": 0}, {"type": "note_on", "time": 6, "note": 70, "velocity": 111, "channel": 0}, {"type": "note_off", "time": 40, "note": 70, "velocity": 111, "channel": 0}, {"type": "note_on", "time": 13, "note": 71, "velocity": 107, "channel": 0}, {"type": "note_off", "time": 28, "note": 71, "velocity": 107, "channel": 0}, {"type": "note_on", "time": 5, "note": 72, "velocity": 98, "channel": 0}, {"type": "note_off", "time": 30, "note": 72, "velocity": 98, "channel": 0}, {"type": "note_on", "time": 2, "note": 73, "velocity": 108, "channel": 0}, {"type": "note_off", "time": 32, "note": 73, "velocity": 108, "channel": 0}, {"type": "note_on", "time": 8, "note": 74, "velocity": 114, "channel": 0}, {"type": "note_off", "time": 58, "note": 74, "velocity": 114, "channel": 0}, {"type": "note_on", "time": 31, "note": 71, "velocity": 95, "channel": 0}, {"type": "note_off", "time": 33, "note": 71, "velocity": 95, "channel": 0}, {"type": "note_on", "time": 6, "note": 72, "velocity": 112, "channel": 0}, {"type": "note_off", "time": 50, "note": 72, "velocity": 112, "channel": 0}, {"type": "note_on", "time": 9, "note": 73, "velocity": 114, "channel": 0}, {"type": "note_off", "time": 41, "note": 73, "velocity": 114, "channel": 0}, {"type": "note_on", "time": 9, "note": 74, "velocity": 113, "channel": 0}, {"type": "note_off", "time": 47, "note": 74, "velocity": 113, "channel": 0}, {"type": "note_on", "time": 15, "note": 75, "velocity": 115, "channel": 0}, {"type": "note_off", "time": 38, "note": 75, "velocity": 115, "channel": 0}, {"type": "note_on", "time": 9, "note": 76, "velocity": 114, "channel": 0}, {"type": "note_off", "time": 39, "note": 76, "velocity": 114, "channel": 0}, {"type": "note_on", "time": 6, "note": 77, "velocity": 113, "channel": 0}, {"type": "note_off", "time": 56, "note": 77, "velocity": 113, "channel": 0}, {"type": "note_on", "time": 9, "note": 76, "velocity": 114, "channel": 0}, {"type": "note_off", "time": 25, "note": 76, "velocity": 114, "channel": 0}, {"type": "note_on", "time": 6, "note": 77, "velocity": 118, "channel": 0}, {"type": "note_off", "time": 56, "note": 77, "velocity": 118, "channel": 0}, {"type": "note_on", "time": 10, "note": 76, "velocity": 117, "channel": 0}, {"type": "note_off", "time": 28, "note": 76, "velocity": 117, "channel": 0}, {"type": "note_on", "time": 7, "note": 77, "velocity": 116, "channel": 0}, {"type": "note_off", "time": 63, "note": 77, "velocity": 116, "channel": 0}, {"type": "note_on", "time": 19, "note": 75, "velocity": 113, "channel": 0}, {"type": "note_off", "time": 45, "note": 75, "velocity": 113, "channel": 0}, {"type": "note_on", "time": 15, "note": 76, "velocity": 114, "channel": 0}, {"type": "note_off", "time": 61, "note": 76, "velocity": 114, "channel": 0}, {"type": "note_on", "time": 11, "note": 76, "velocity": 117, "channel": 0}, {"type": "note_off", "time": 54, "note": 76, "velocity": 117, "channel": 0}, {"type": "note_on", "time": 7, "note": 75, "velocity": 113, "channel": 0}, {"type": "note_off", "time": 46, "note": 75, "velocity": 113, "channel": 0}, {"type": "note_on", "time": 10, "note": 74, "velocity": 111, "channel": 0}, {"type": "note_off", "time": 40, "note": 74, "velocity": 111, "channel": 0}, {"type": "note_on", "time": 5, "note": 75, "velocity": 113, "channel": 0}, {"type": "note_off", "time": 58, "note": 75, "velocity": 113, "channel": 0}, {"type": "note_on", "time": 11, "note": 74, "velocity": 114, "channel": 0}, {"type": "note_off", "time": 39, "note": 74, "velocity": 114, "channel": 0}, {"type": "note_on", "time": 8, "note": 73, "velocity": 110, "channel": 0}, {"type": "note_off", "time": 60, "note": 73, "velocity": 110, "channel": 0}, {"type": "note_on", "time": 12, "note": 72, "velocity": 105, "channel": 0}, {"type": "note_off", "time": 30, "note": 72, "velocity": 105, "channel": 0}, {"type": "note_on", "time": 27, "note": 73, "velocity": 116, "channel": 0}, {"type": "note_off", "time": 33, "note": 73, "velocity": 116, "channel": 0}, {"type": "note_on", "time": 3, "note": 74, "velocity": 115, "channel": 0}, {"type": "note_off", "time": 48, "note": 74, "velocity": 115, "channel": 0}, {"type": "note_on", "time": 20, "note": 73, "velocity": 110, "channel": 0}, {"type": "note_off", "time": 19, "note": 73, "velocity": 110, "channel": 0}, {"type": "note_on", "time": 1, "note": 74, "velocity": 111, "channel": 0}, {"type": "note_off", "time": 42, "note": 74, "velocity": 111, "channel": 0}, {"type": "note_on", "time": 23, "note": 73, "velocity": 113, "channel": 0}, {"type": "note_off", "time": 24, "note": 73, "velocity": 113, "channel": 0}, {"type": "note_on", "time": 1, "note": 74, "velocity": 112, "channel": 0}, {"type": "note_off", "time": 46, "note": 74, "velocity": 112, "channel": 0}, {"type": "note_on", "time": 13, "note": 72, "velocity": 109, "channel": 0}, {"type": "note_off", "time": 44, "note": 72, "velocity": 109, "channel": 0}, {"type": "note_on", "time": 5, "note": 71, "velocity": 103, "channel": 0}, {"type": "note_off", "time": 56, "note": 71, "velocity": 103, "channel": 0}, {"type": "note_on", "time": 9, "note": 72, "velocity": 101, "channel": 0}, {"type": "note_off", "time": 39, "note": 72, "velocity": 101, "channel": 0}, {"type": "note_on", "time": 14, "note": 74, "velocity": 114, "channel": 0}, {"type": "note_off", "time": 55, "note": 74, "velocity": 114, "channel": 0}, {"type": "note_on", "time": 8, "note": 73, "velocity": 115, "channel": 0}, {"type": "note_off", "time": 47, "note": 73, "velocity": 115, "channel": 0}, {"type": "note_on", "time": 7, "note": 72, "velocity": 113, "channel": 0}, {"type": "note_off", "time": 52, "note": 72, "velocity": 113, "channel": 0}, {"type": "note_on", "time": 10, "note": 71, "velocity": 112, "channel": 0}, {"type": "note_off", "time": 50, "note": 71, "velocity": 112, "channel": 0}, {"type": "note_on", "time": 14, "note": 68, "velocity": 99, "channel": 0}, {"type": "note_off", "time": 17, "note": 68, "velocity": 99, "channel": 0}, {"type": "note_on", "time": 11, "note": 69, "velocity": 108, "channel": 0}, {"type": "note_off", "time": 21, "note": 69, "velocity": 108, "channel": 0}, {"type": "note_on", "time": 5, "note": 70, "velocity": 109, "channel": 0}, {"type": "note_off", "time": 43, "note": 70, "velocity": 109, "channel": 0}, {"type": "note_on", "time": 11, "note": 69, "velocity": 113, "channel": 0}, {"type": "note_off", "time": 38, "note": 69, "velocity": 113, "channel": 0}, {"type": "note_on", "time": 3, "note": 70, "velocity": 103, "channel": 0}, {"type": "note_off", "time": 42, "note": 70, "velocity": 103, "channel": 0}, {"type": "note_on", "time": 14, "note": 69, "velocity": 111, "channel": 0}, {"type": "note_off", "time": 24, "note": 69, "velocity": 111, "channel": 0}, {"type": "note_on", "time": 3, "note": 70, "velocity": 116, "channel": 0}, {"type": "note_off", "time": 69, "note": 70, "velocity": 116, "channel": 0}, {"type": "note_on", "time": 9, "note": 67, "velocity": 100, "channel": 0}, {"type": "note_off", "time": 32, "note": 67, "velocity": 100, "channel": 0}, {"type": "note_on", "time": 14, "note": 68, "velocity": 114, "channel": 0}, {"type": "note_off", "time": 59, "note": 68, "velocity": 114, "channel": 0}, {"type": "note_on", "time": 31, "note": 67, "velocity": 96, "channel": 0}, {"type": "note_off", "time": 26, "note": 67, "velocity": 96, "channel": 0}, {"type": "note_on", "time": 16, "note": 70, "velocity": 119, "channel": 0}, {"type": "note_off", "time": 51, "note": 70, "velocity": 119, "channel": 0}, {"type": "note_on", "time": 13, "note": 68, "velocity": 112, "channel": 0}, {"type": "note_off", "time": 46, "note": 68, "velocity": 112, "channel": 0}, {"type": "note_on", "time": 11, "note": 67, "velocity": 106, "channel": 0}, {"type": "note_off", "time": 40, "note": 67, "velocity": 106, "channel": 0}, {"type": "note_on", "time": 16, "note": 65, "velocity": 108, "channel": 0}, {"type": "note_off", "time": 43, "note": 65, "velocity": 108, "channel": 0}, {"type": "note_on", "time": 12, "note": 63, "velocity": 99, "channel": 0}, {"type": "note_off", "time": 44, "note": 63, "velocity": 99, "channel": 0}, {"type": "note_on", "time": 5, "note": 62, "velocity": 107, "channel": 0}, {"type": "note_off", "time": 32, "note": 62, "velocity": 107, "channel": 0}, {"type": "note_on", "time": 13, "note": 66, "velocity": 103, "channel": 0}, {"type": "note_off", "time": 23, "note": 66, "velocity": 103, "channel": 0}, {"type": "note_on", "time": 2, "note": 67, "velocity": 109, "channel": 0}, {"type": "note_off", "time": 47, "note": 67, "velocity": 109, "channel": 0}, {"type": "note_on", "time": 22, "note": 65, "velocity": 106, "channel": 0}, {"type": "note_off", "time": 28, "note": 65, "velocity": 106, "channel": 0}, {"type": "note_on", "time": 6, "note": 67, "velocity": 110, "channel": 0}, {"type": "note_off", "time": 46, "note": 67, "velocity": 110, "channel": 0}, {"type": "note_on", "time": 24, "note": 66, "velocity": 108, "channel": 0}, {"type": "note_off", "time": 22, "note": 66, "velocity": 108, "channel": 0}, {"type": "note_on", "time": 6, "note": 67, "velocity": 111, "channel": 0}, {"type": "note_off", "time": 46, "note": 67, "velocity": 111, "channel": 0}, {"type": "note_on", "time": 66, "note": 65, "velocity": 115, "channel": 0}, {"type": "note_off", "time": 51, "note": 65, "velocity": 115, "channel": 0}, {"type": "note_on", "time": 27, "note": 63, "velocity": 93, "channel": 0}, {"type": "note_off", "time": 32, "note": 63, "velocity": 93, "channel": 0}, {"type": "note_on", "time": 27, "note": 64, "velocity": 100, "channel": 0}, {"type": "note_off", "time": 57, "note": 64, "velocity": 100, "channel": 0}, {"type": "note_on", "time": 16, "note": 65, "velocity": 109, "channel": 0}, {"type": "note_off", "time": 61, "note": 65, "velocity": 109, "channel": 0}, {"type": "note_on", "time": 26, "note": 67, "velocity": 104, "channel": 0}, {"type": "note_off", "time": 41, "note": 67, "velocity": 104, "channel": 0}, {"type": "note_on", "time": 22, "note": 70, "velocity": 113, "channel": 0}, {"type": "note_off", "time": 55, "note": 70, "velocity": 113, "channel": 0}, {"type": "note_on", "time": 51, "note": 68, "velocity": 115, "channel": 0}, {"type": "note_off", "time": 57, "note": 68, "velocity": 115, "channel": 0}, {"type": "note_on", "time": 6, "note": 67, "velocity": 117, "channel": 0}, {"type": "note_off", "time": 53, "note": 67, "velocity": 117, "channel": 0}, {"type": "note_on", "time": 11, "note": 65, "velocity": 116, "channel": 0}, {"type": "note_off", "time": 45, "note": 65, "velocity": 116, "channel": 0}, {"type": "note_on", "time": 6, "note": 62, "velocity": 101, "channel": 0}, {"type": "note_off", "time": 34, "note": 62, "velocity": 101, "channel": 0}, {"type": "note_on", "time": 11, "note": 63, "velocity": 102, "channel": 0}, {"type": "note_off", "time": 33, "note": 63, "velocity": 102, "channel": 0}, {"type": "note_on", "time": 16, "note": 64, "velocity": 109, "channel": 0}, {"type": "note_off", "time": 41, "note": 64, "velocity": 109, "channel": 0}, {"type": "note_on", "time": 8, "note": 67, "velocity": 111, "channel": 0}, {"type": "note_off", "time": 59, "note": 67, "velocity": 111, "channel": 0}, {"type": "note_on", "time": 81, "note": 69, "velocity": 103, "channel": 0}, {"type": "note_off", "time": 84, "note": 69, "velocity": 103, "channel": 0}, {"type": "note_on", "time": 43, "note": 71, "velocity": 108, "channel": 0}, {"type": "note_off", "time": 52, "note": 71, "velocity": 108, "channel": 0}, {"type": "note_on", "time": 53, "note": 74, "velocity": 119, "channel": 0}, {"type": "note_off", "time": 38, "note": 74, "velocity": 119, "channel": 0}, {"type": "note_on", "time": 2, "note": 72, "velocity": 113, "channel": 0}, {"type": "note_off", "time": 56, "note": 72, "velocity": 113, "channel": 0}, {"type": "note_on", "time": 9, "note": 71, "velocity": 108, "channel": 0}, {"type": "note_off", "time": 114, "note": 71, "velocity": 108, "channel": 0}, {"type": "note_on", "time": 8, "note": 69, "velocity": 108, "channel": 0}, {"type": "note_off", "time": 66, "note": 69, "velocity": 108, "channel": 0}, {"type": "note_on", "time": 49, "note": 70, "velocity": 115, "channel": 0}, {"type": "note_off", "time": 40, "note": 70, "velocity": 115, "channel": 0}, {"type": "note_on", "time": 9, "note": 68, "velocity": 112, "channel": 0}, {"type": "note_off", "time": 64, "note": 68, "velocity": 112, "channel": 0}, {"type": "note_on", "time": 16, "note": 63, "velocity": 100, "channel": 0}, {"type": "note_off", "time": 78, "note": 63, "velocity": 100, "channel": 0}, {"type": "note_on", "time": 9, "note": 65, "velocity": 106, "channel": 0}, {"type": "note_off", "time": 69, "note": 65, "velocity": 106, "channel": 0}, {"type": "note_on", "time": 62, "note": 67, "velocity": 110, "channel": 0}, {"type": "note_off", "time": 41, "note": 67, "velocity": 110, "channel": 0}, {"type": "note_on", "time": 5, "note": 65, "velocity": 113, "channel": 0}, {"type": "note_off", "time": 41, "note": 65, "velocity": 113, "channel": 0}, {"type": "note_on", "time": 10, "note": 61, "velocity": 90, "channel": 0}, {"type": "note_off", "time": 99, "note": 61, "velocity": 90, "channel": 0}, {"type": "note_on", "time": 12, "note": 63, "velocity": 81, "channel": 0}, {"type": "note_off", "time": 30, "note": 63, "velocity": 81, "channel": 0}, {"type": "note_on", "time": 87, "note": 64, "velocity": 111, "channel": 0}, {"type": "note_off", "time": 31, "note": 64, "velocity": 111, "channel": 0}, {"type": "note_on", "time": 7, "note": 62, "velocity": 104, "channel": 0}, {"type": "note_off", "time": 35, "note": 62, "velocity": 104, "channel": 0}, {"type": "note_on", "time": 23, "note": 59, "velocity": 87, "channel": 0}, {"type": "note_off", "time": 167, "note": 59, "velocity": 87, "channel": 0}, {"type": "note_on", "time": 15, "note": 56, "velocity": 90, "channel": 0}, {"type": "note_off", "time": 113, "note": 56, "velocity": 90, "channel": 0}, {"type": "note_on", "time": 12, "note": 55, "velocity": 87, "channel": 0}, {"type": "note_off", "time": 206, "note": 55, "velocity": 87, "channel": 0}, {"type": "note_on", "time": 14, "note": 62, "velocity": 88, "channel": 0}, {"type": "note_off", "time": 58, "note": 62, "velocity": 88, "channel": 0}, {"type": "note_on", "time": 8, "note": 65, "velocity": 90, "channel": 0}, {"type": "note_off", "time": 109, "note": 65, "velocity": 90, "channel": 0}, {"type": "note_on", "time": 12, "note": 64, "velocity": 83, "channel": 0}, {"type": "note_off", "time": 142, "note": 64, "velocity": 83, "channel": 0}, {"type": "end_of_track", "time": 0}]]}