{"ticks_per_beat": 192, "tracks": [[{"type": "note_on", "time": 0, "note": 73, "velocity": 90, "channel": 0}, {"type": "note_off", "time": 79, "note": 73, "velocity": 90, "channel": 0}, {"type": "note_on", "time": 26, "note": 74, "velocity": 114, "channel": 0}, {"type": "track_name", "name": "Melody", "time": 584}, {"type": "set_tempo", "tempo": 176991, "time": 0}, {"type": "key_signature", "key": "Bb", "time": 0}, {"type": "time_signature", "numerator": 4, "denominator": 4, "clocks_per_click": 24, "notated_32nd_notes_per_beat": 8, "time": 0}, {"type": "note_off", "time": 88, "note": 74, "velocity": 114, "channel": 0}, {"type": "note_on", "time": 8, "note": 73, "velocity": 109, "channel": 0}, {"type": "note_off", "time": 88, "note": 73, "velocity": 109, "channel": 0}, {"type": "note_on", "time": 0, "note": 74, "velocity": 112, "channel": 0}, {"type": "note_on", "time": 265, "note": 72, "velocity": 99, "channel": 0}, {"type": "note_off", "time": 0, "note": 74, "velocity": 112, "channel": 0}, {"type": "note_off", "time": 61, "note": 72, "velocity": 99, "channel": 0}, {"type": "note_on", "time": 17, "note": 74, "velocity": 103, "channel": 0}, {"type": "note_off", "time": 88, "note": 74, "velocity": 103, "channel": 0}, {"type": "note_on", "time": 8, "note": 72, "velocity": 111, "channel": 0}, {"type": "note_on", "time": 88, "note": 70, "velocity": 115, "channel": 0}, {"type": "note_off", "time": 0, "note": 72, "velocity": 111, "channel": 0}, {"type": "note_off", "time": 150, "note": 70, "velocity": 115, "channel": 0}, {"type": "note_on", "time": 8, "note": 69, "velocity": 112, "channel": 0}, {"type": "note_off", "time": 327, "note": 69, "velocity": 112, "channel": 0}, {"type": "note_on", "time": 35, "note": 69, "velocity": 114, "channel": 0}, {"type": "note_off", "time": 292, "note": 69, "velocity": 114, "channel": 0}, {"type": "note_on", "time": 26, "note": 65, "velocity": 114, "channel": 0}, {"type": "note_off", "time": 97, "note": 65, "velocity": 114, "channel": 0}, {"type": "note_on", "time": 17, "note": 67, "velocity": 107, "channel": 0}, {"type": "note_off", "time": 35, "note": 67, "velocity": 107, "channel": 0}, {"type": "note_on", "time": 8, "note": 69, "velocity": 115, "channel": 0}, {"type": "note_on", "time": 70, "note": 67, "velocity": 118, "channel": 0}, {"type": "note_off", "time": 0, "note": 69, "velocity": 115, "channel": 0}, {"type": "note_off", "time": 61, "note": 67, "velocity": 118, "channel": 0}, {"type": "note_on", "time": 0, "note": 65, "velocity": 123, "channel": 0}, {"type": "note_off", "time": 185, "note": 65, "velocity": 123, "channel": 0}, {"type": "note_on", "time": 17, "note": 67, "velocity": 106, "channel": 0}, {"type": "note_off", "time": 44, "note": 67, "velocity": 106, "channel": 0}, {"type": "note_on", "time": 0, "note": 69, "velocity": 105, "channel": 0}, {"type": "note_off", "time": 79, "note": 69, "velocity": 105, "channel": 0}, {"type": "note_on", "time": 8, "note": 67, "velocity": 110, "channel": 0}, {"type": "note_off", "time": 44, "note": 67, "velocity": 110, "channel": 0}, {"type": "note_on", "time": 0, "note": 65, "velocity": 120, "channel": 0}, {"type": "note_off", "time": 177, "note": 65, "velocity": 120, "channel": 0}, {"type": "note_on", "time": 8, "note": 62, "velocity": 113, "channel": 0}, {"type": "note_off", "time": 79, "note": 62, "velocity": 113, "channel": 0}, {"type": "note_on", "time": 2, "note": 65, "velocity": 118, "channel": 0}, {"type": "note_off", "time": 44, "note": 65, "velocity": 118, "channel": 0}, {"type": "note_on", "time": 25, "note": 62, "velocity": 121, "channel": 0}, {"type": "note_off", "time": 31, "note": 62, "velocity": 121, "channel": 0}, {"type": "note_on", "time": 6, "note": 58, "velocity": 117, "channel": 0}, {"type": "note_off", "time": 220, "note": 58, "velocity": 117, "channel": 0}, {"type": "note_on", "time": 42, "note": 65, "velocity": 104, "channel": 0}, {"type": "note_off", "time": 59, "note": 65, "velocity": 104, "channel": 0}, {"type": "note_on", "time": 4, "note": 62, "velocity": 117, "channel": 0}, {"type": "note_off", "time": 75, "note": 62, "velocity": 117, "channel": 0}, {"type": "note_on", "time": 18, "note": 58, "velocity": 116, "channel": 0}, {"type": "note_on", "time": 214, "note": 62, "velocity": 102, "channel": 0}, {"type": "note_off", "time": 0, "note": 58, "velocity": 116, "channel": 0}, {"type": "note_off", "time": 56, "note": 62, "velocity": 102, "channel": 0}, {"type": "note_on", "time": 0, "note": 65, "velocity": 102, "channel": 0}, {"type": "note_off", "time": 31, "note": 65, "velocity": 102, "channel": 0}, {"type": "note_on", "time": 50, "note": 62, "velocity": 110, "channel": 0}, {"type": "note_off", "time": 62, "note": 62, "velocity": 110, "channel": 0}, {"type": "note_on", "time": 0, "note": 58, "velocity": 118, "channel": 0}, {"type": "note_off", "time": 176, "note": 58, "velocity": 118, "channel": 0}, {"type": "note_on", "time": 31, "note": 62, "velocity": 102, "channel": 0}, {"type": "note_off", "time": 50, "note": 62, "velocity": 102, "channel": 0}, {"type": "note_on", "time": 12, "note": 65, "velocity": 107, "channel": 0}, {"type": "note_off", "time": 81, "note": 65, "velocity": 107, "channel": 0}, {"type": "note_on", "time": 6, "note": 62, "velocity": 116, "channel": 0}, {"type": "note_on", "time": 37, "note": 58, "velocity": 115, "channel": 0}, {"type": "note_off", "time": 0, "note": 62, "velocity": 116, "channel": 0}, {"type": "note_off", "time": 188, "note": 58, "velocity": 115, "channel": 0}, {"type": "note_on", "time": 31, "note": 64, "velocity": 116, "channel": 0}, {"type": "note_off", "time": 37, "note": 64, "velocity": 116, "channel": 0}, {"type": "note_on", "time": 25, "note": 65, "velocity": 101, "channel": 0}, {"type": "note_off", "time": 541, "note": 65, "velocity": 101, "channel": 0}, {"type": "note_on", "time": 736, "note": 70, "velocity": 107, "channel": 0}, {"type": "note_off", "time": 115, "note": 70, "velocity": 107, "channel": 0}, {"type": "note_on", "time": 13, "note": 69, "velocity": 115, "channel": 0}, {"type": "note_off", "time": 84, "note": 69, "velocity": 115, "channel": 0}, {"type": "note_on", "time": 17, "note": 68, "velocity": 116, "channel": 0}, {"type": "note_off", "time": 75, "note": 68, "velocity": 116, "channel": 0}, {"type": "note_on", "time": 17, "note": 67, "velocity": 115, "channel": 0}, {"type": "note_off", "time": 84, "note": 67, "velocity": 115, "channel": 0}, {"type": "note_on", "time": 0, "note": 65, "velocity": 122, "channel": 0}, {"type": "note_off", "time": 106, "note": 65, "velocity": 122, "channel": 0}, {"type": "note_on", "time": 0, "note": 63, "velocity": 118, "channel": 0}, {"type": "note_off", "time": 97, "note": 63, "velocity": 118, "channel": 0}, {"type": "note_on", "time": 0, "note": 62, "velocity": 119, "channel": 0}, {"type": "note_off", "time": 92, "note": 62, "velocity": 119, "channel": 0}, {"type": "note_on", "time": 8, "note": 60, "velocity": 116, "channel": 0}, {"type": "note_off", "time": 79, "note": 60, "velocity": 116, "channel": 0}, {"type": "note_on", "time": 8, "note": 59, "velocity": 123, "channel": 0}, {"type": "note_off", "time": 79, "note": 59, "velocity": 123, "channel": 0}, {"type": "note_on", "time": 18, "note": 58, "velocity": 123, "channel": 0}, {"type": "note_off", "time": 83, "note": 58, "velocity": 123, "channel": 0}, {"type": "note_on", "time": 24, "note": 57, "velocity": 120, "channel": 0}, {"type": "note_off", "time": 116, "note": 57, "velocity": 120, "channel": 0}, {"type": "note_on", "time": 69, "note": 58, "velocity": 98, "channel": 0}, {"type": "note_off", "time": 137, "note": 58, "velocity": 98, "channel": 0}, {"type": "note_on", "time": 67, "note": 60, "velocity": 96, "channel": 0}, {"type": "note_off", "time": 132, "note": 60, "velocity": 96, "channel": 0}, {"type": "note_on", "time": 50, "note": 62, "velocity": 117, "channel": 0}, {"type": "note_off", "time": 115, "note": 62, "velocity": 117, "channel": 0}, {"type": "note_on", "time": 0, "note": 65, "velocity": 110, "channel": 0}, {"type": "note_off", "time": 141, "note": 65, "velocity": 110, "channel": 0}, {"type": "note_on", "time": 48, "note": 63, "velocity": 111, "channel": 0}, {"type": "note_off", "time": 88, "note": 63, "velocity": 111, "channel": 0}, {"type": "note_on", "time": 0, "note": 64, "velocity": 117, "channel": 0}, {"type": "note_off", "time": 88, "note": 64, "velocity": 117, "channel": 0}, {"type": "note_on", "time": 8, "note": 65, "velocity": 121, "channel": 0}, {"type": "note_off", "time": 106, "note": 65, "velocity": 121, "channel": 0}, {"type": "note_on", "time": 22, "note": 66, "velocity": 114, "channel": 0}, {"type": "note_off", "time": 75, "note": 66, "velocity": 114, "channel": 0}, {"type": "note_on", "time": 13, "note": 68, "velocity": 99, "channel": 0}, {"type": "note_off", "time": 66, "note": 68, "velocity": 99, "channel": 0}, {"type": "note_on", "time": 13, "note": 70, "velocity": 114, "channel": 0}, {"type": "note_off", "time": 110, "note": 70, "velocity": 114, "channel": 0}, {"type": "note_on", "time": 8, "note": 66, "velocity": 112, "channel": 0}, {"type": "note_off", "time": 75, "note": 66, "velocity": 112, "channel": 0}, {"type": "note_on", "time": 26, "note": 68, "velocity": 113, "channel": 0}, {"type": "note_off", "time": 92, "note": 68, "velocity": 113, "channel": 0}, {"type": "note_on", "time": 13, "note": 65, "velocity": 117, "channel": 0}, {"type": "note_off", "time": 84, "note": 65, "velocity": 117, "channel": 0}, {"type": "note_on", "time": 22, "note": 66, "velocity": 117, "channel": 0}, {"type": "note_off", "time": 92, "note": 66, "velocity": 117, "channel": 0}, {"type": "note_on", "time": 0, "note": 64, "velocity": 119, "channel": 0}, {"type": "note_off", "time": 66, "note": 64, "velocity": 119, "channel": 0}, {"type": "note_on", "time": 4, "note": 65, "velocity": 123, "channel": 0}, {"type": "note_off", "time": 97, "note": 65, "velocity": 123, "channel": 0}, {"type": "note_on", "time": 26, "note": 63, "velocity": 118, "channel": 0}, {"type": "note_off", "time": 75, "note": 63, "velocity": 118, "channel": 0}, {"type": "note_on", "time": 32, "note": 60, "velocity": 106, "channel": 0}, {"type": "note_off", "time": 84, "note": 60, "velocity": 106, "channel": 0}, {"type": "note_on", "time": 5, "note": 61, "velocity": 104, "channel": 0}, {"type": "note_off", "time": 75, "note": 61, "velocity": 104, "channel": 0}, {"type": "note_on", "time": 12, "note": 62, "velocity": 106, "channel": 0}, {"type": "note_off", "time": 115, "note": 62, "velocity": 106, "channel": 0}, {"type": "note_on", "time": 67, "note": 65, "velocity": 115, "channel": 0}, {"type": "note_off", "time": 101, "note": 65, "velocity": 115, "channel": 0}, {"type": "note_on", "time": 116, "note": 70, "velocity": 114, "channel": 0}, {"type": "note_off", "time": 203, "note": 70, "velocity": 114, "channel": 0}, {"type": "note_on", "time": 0, "note": 72, "velocity": 113, "channel": 0}, {"type": "note_off", "time": 190, "note": 72, "velocity": 113, "channel": 0}, {"type": "note_on", "time": 0, "note": 74, "velocity": 116, "channel": 0}, {"type": "note_off", "time": 349, "note": 74, "velocity": 116, "channel": 0}, {"type": "note_on", "time": 30, "note": 74, "velocity": 117, "channel": 0}, {"type": "note_off", "time": 203, "note": 74, "velocity": 117, "channel": 0}, {"type": "note_on", "time": 13, "note": 77, "velocity": 117, "channel": 0}, {"type": "note_off", "time": 208, "note": 77, "velocity": 117, "channel": 0}, {"type": "note_on", "time": 8, "note": 76, "velocity": 108, "channel": 0}, {"type": "note_off", "time": 526, "note": 76, "velocity": 108, "channel": 0}, {"type": "note_on", "time": 1000, "note": 83, "velocity": 114, "channel": 0}, {"type": "note_off", "time": 141, "note": 83, "velocity": 114, "channel": 0}, {"type": "note_on", "time": 4, "note": 84, "velocity": 109, "channel": 0}, {"type": "note_off", "time": 428, "note": 84, "velocity": 109, "channel": 0}, {"type": "note_on", "time": 11, "note": 82, "velocity": 90, "channel": 0}, {"type": "note_off", "time": 195, "note": 82, "velocity": 90, "channel": 0}, {"type": "note_on", "time": 11, "note": 81, "velocity": 103, "channel": 0}, {"type": "note_off", "time": 345, "note": 81, "velocity": 103, "channel": 0}, {"type": "note_on", "time": 4, "note": 79, "velocity": 110, "channel": 0}, {"type": "note_off", "time": 256, "note": 79, "velocity": 110, "channel": 0}, {"type": "note_on", "time": 8, "note": 80, "velocity": 106, "channel": 0}, {"type": "note_off", "time": 39, "note": 80, "velocity": 106, "channel": 0}, {"type": "note_on", "time": 30, "note": 81, "velocity": 111, "channel": 0}, {"type": "note_off", "time": 44, "note": 81, "velocity": 111, "channel": 0}, {"type": "note_on", "time": 17, "note": 82, "velocity": 111, "channel": 0}, {"type": "note_off", "time": 345, "note": 82, "velocity": 111, "channel": 0}, {"type": "note_on", "time": 17, "note": 75, "velocity": 101, "channel": 0}, {"type": "note_off", "time": 602, "note": 75, "velocity": 101, "channel": 0}, {"type": "note_on", "time": 584, "note": 82, "velocity": 105, "channel": 0}, {"type": "note_off", "time": 119, "note": 82, "velocity": 105, "channel": 0}, {"type": "note_on", "time": 12, "note": 81, "velocity": 90, "channel": 0}, {"type": "note_off", "time": 47, "note": 81, "velocity": 90, "channel": 0}, {"type": "note_on", "time": 31, "note": 82, "velocity": 105, "channel": 0}, {"type": "note_off", "time": 75, "note": 82, "velocity": 105, "channel": 0}, {"type": "note_on", "time": 12, "note": 81, "velocity": 98, "channel": 0}, {"type": "note_off", "time": 56, "note": 81, "velocity": 98, "channel": 0}, {"type": "note_on", "time": 14, "note": 80, "velocity": 102, "channel": 0}, {"type": "note_off", "time": 50, "note": 80, "velocity": 102, "channel": 0}, {"type": "note_on", "time": 1, "note": 79, "velocity": 99, "channel": 0}, {"type": "note_off", "time": 75, "note": 79, "velocity": 99, "channel": 0}, {"type": "note_on", "time": 15, "note": 78, "velocity": 99, "channel": 0}, {"type": "note_off", "time": 81, "note": 78, "velocity": 99, "channel": 0}, {"type": "note_on", "time": 15, "note": 77, "velocity": 115, "channel": 0}, {"type": "note_off", "time": 59, "note": 77, "velocity": 115, "channel": 0}, {"type": "note_on", "time": 18, "note": 76, "velocity": 115, "channel": 0}, {"type": "note_off", "time": 119, "note": 76, "velocity": 115, "channel": 0}, {"type": "note_on", "time": 0, "note": 75, "velocity": 111, "channel": 0}, {"type": "note_off", "time": 78, "note": 75, "velocity": 111, "channel": 0}, {"type": "note_on", "time": 9, "note": 74, "velocity": 113, "channel": 0}, {"type": "note_off", "time": 81, "note": 74, "velocity": 113, "channel": 0}, {"type": "note_on", "time": 3, "note": 73, "velocity": 106, "channel": 0}, {"type": "note_off", "time": 103, "note": 73, "velocity": 106, "channel": 0}, {"type": "note_on", "time": 7, "note": 71, "velocity": 95, "channel": 0}, {"type": "note_off", "time": 61, "note": 71, "velocity": 95, "channel": 0}, {"type": "note_on", "time": 26, "note": 72, "velocity": 101, "channel": 0}, {"type": "note_off", "time": 106, "note": 72, "velocity": 101, "channel": 0}, {"type": "note_on", "time": 8, "note": 70, "velocity": 109, "channel": 0}, {"type": "note_off", "time": 66, "note": 70, "velocity": 109, "channel": 0}, {"type": "note_on", "time": 13, "note": 69, "velocity": 114, "channel": 0}, {"type": "note_off", "time": 88, "note": 69, "velocity": 114, "channel": 0}, {"type": "note_on", "time": 22, "note": 68, "velocity": 106, "channel": 0}, {"type": "note_off", "time": 70, "note": 68, "velocity": 106, "channel": 0}, {"type": "note_on", "time": 12, "note": 70, "velocity": 99, "channel": 0}, {"type": "note_off", "time": 101, "note": 70, "velocity": 99, "channel": 0}, {"type": "note_on", "time": 102, "note": 72, "velocity": 108, "channel": 0}, {"type": "note_off", "time": 203, "note": 72, "velocity": 108, "channel": 0}, {"type": "note_on", "time": 18, "note": 70, "velocity": 107, "channel": 0}, {"type": "note_off", "time": 163, "note": 70, "velocity": 107, "channel": 0}, {"type": "note_on", "time": 3, "note": 72, "velocity": 87, "channel": 0}, {"type": "note_off", "time": 106, "note": 72, "velocity": 87, "channel": 0}, {"type": "note_on", "time": 284, "note": 70, "velocity": 91, "channel": 0}, {"type": "note_off", "time": 97, "note": 70, "velocity": 91, "channel": 0}, {"type": "note_on", "time": 83, "note": 72, "velocity": 105, "channel": 0}, {"type": "note_off", "time": 239, "note": 72, "velocity": 105, "channel": 0}, {"type": "note_on", "time": 12, "note": 70, "velocity": 109, "channel": 0}, {"type": "note_off", "time": 163, "note": 70, "velocity": 109, "channel": 0}, {"type": "note_on", "time": 26, "note": 72, "velocity": 100, "channel": 0}, {"type": "note_off", "time": 70, "note": 72, "velocity": 100, "channel": 0}, {"type": "note_on", "time": 291, "note": 70, "velocity": 96, "channel": 0}, {"type": "note_off", "time": 97, "note": 70, "velocity": 96, "channel": 0}, {"type": "note_on", "time": 116, "note": 72, "velocity": 104, "channel": 0}, {"type": "note_off", "time": 181, "note": 72, "velocity": 104, "channel": 0}, {"type": "note_on", "time": 8, "note": 70, "velocity": 112, "channel": 0}, {"type": "note_off", "time": 172, "note": 70, "velocity": 112, "channel": 0}, {"type": "note_on", "time": 11, "note": 72, "velocity": 104, "channel": 0}, {"type": "note_off", "time": 119, "note": 72, "velocity": 104, "channel": 0}, {"type": "note_on", "time": 242, "note": 74, "velocity": 111, "channel": 0}, {"type": "note_off", "time": 92, "note": 74, "velocity": 111, "channel": 0}, {"type": "note_on", "time": 84, "note": 75, "velocity": 112, "channel": 0}, {"type": "note_off", "time": 208, "note": 75, "velocity": 112, "channel": 0}, {"type": "note_on", "time": 23, "note": 74, "velocity": 113, "channel": 0}, {"type": "note_off", "time": 221, "note": 74, "velocity": 113, "channel": 0}, {"type": "note_on", "time": 0, "note": 75, "velocity": 102, "channel": 0}, {"type": "note_off", "time": 101, "note": 75, "velocity": 102, "channel": 0}, {"type": "note_on", "time": 261, "note": 77, "velocity": 109, "channel": 0}, {"type": "note_off", "time": 88, "note": 77, "velocity": 109, "channel": 0}, {"type": "note_on", "time": 65, "note": 78, "velocity": 105, "channel": 0}, {"type": "note_off", "time": 216, "note": 78, "velocity": 105, "channel": 0}, {"type": "note_on", "time": 4, "note": 79, "velocity": 102, "channel": 0}, {"type": "note_off", "time": 177, "note": 79, "velocity": 102, "channel": 0}, {"type": "note_on", "time": 13, "note": 78, "velocity": 100, "channel": 0}, {"type": "note_off", "time": 101, "note": 78, "velocity": 100, "channel": 0}, {"type": "note_on", "time": 274, "note": 74, "velocity": 104, "channel": 0}, {"type": "note_off", "time": 101, "note": 74, "velocity": 104, "channel": 0}, {"type": "note_on", "time": 123, "note": 75, "velocity": 108, "channel": 0}, {"type": "note_off", "time": 181, "note": 75, "velocity": 108, "channel": 0}, {"type": "note_on", "time": 13, "note": 74, "velocity": 114, "channel": 0}, {"type": "note_off", "time": 177, "note": 74, "velocity": 114, "channel": 0}, {"type": "note_on", "time": 17, "note": 75, "velocity": 101, "channel": 0}, {"type": "note_off", "time": 92, "note": 75, "velocity": 101, "channel": 0}, {"type": "note_on", "time": 287, "note": 75, "velocity": 105, "channel": 0}, {"type": "note_off", "time": 88, "note": 75, "velocity": 105, "channel": 0}, {"type": "note_on", "time": 48, "note": 76, "velocity": 114, "channel": 0}, {"type": "note_off", "time": 225, "note": 76, "velocity": 114, "channel": 0}, {"type": "note_on", "time": 4, "note": 75, "velocity": 112, "channel": 0}, {"type": "note_off", "time": 177, "note": 75, "velocity": 112, "channel": 0}, {"type": "note_on", "time": 0, "note": 76, "velocity": 109, "channel": 0}, {"type": "note_off", "time": 97, "note": 76, "velocity": 109, "channel": 0}, {"type": "note_on", "time": 265, "note": 76, "velocity": 108, "channel": 0}, {"type": "note_off", "time": 106, "note": 76, "velocity": 108, "channel": 0}, {"type": "note_on", "time": 92, "note": 77, "velocity": 102, "channel": 0}, {"type": "note_off", "time": 216, "note": 77, "velocity": 102, "channel": 0}, {"type": "note_on", "time": 4, "note": 76, "velocity": 111, "channel": 0}, {"type": "note_off", "time": 177, "note": 76, "velocity": 111, "channel": 0}, {"type": "note_on", "time": 13, "note": 77, "velocity": 112, "channel": 0}, {"type": "note_off", "time": 296, "note": 77, "velocity": 112, "channel": 0}, {"type": "note_on", "time": 110, "note": 79, "velocity": 90, "channel": 0}, {"type": "note_off", "time": 110, "note": 79, "velocity": 90, "channel": 0}, {"type": "note_on", "time": 20, "note": 83, "velocity": 89, "channel": 0}, {"type": "note_off", "time": 59, "note": 83, "velocity": 89, "channel": 0}, {"type": "note_on", "time": 14, "note": 84, "velocity": 100, "channel": 0}, {"type": "note_off", "time": 155, "note": 84, "velocity": 100, "channel": 0}, {"type": "note_on", "time": 11, "note": 82, "velocity": 109, "channel": 0}, {"type": "note_off", "time": 168, "note": 82, "velocity": 109, "channel": 0}, {"type": "note_on", "time": 22, "note": 81, "velocity": 94, "channel": 0}, {"type": "note_off", "time": 411, "note": 81, "velocity": 94, "channel": 0}, {"type": "note_on", "time": 13, "note": 79, "velocity": 96, "channel": 0}, {"type": "note_off", "time": 84, "note": 79, "velocity": 96, "channel": 0}, {"type": "note_on", "time": 76, "note": 77, "velocity": 103, "channel": 0}, {"type": "note_off", "time": 137, "note": 77, "velocity": 103, "channel": 0}, {"type": "note_on", "time": 43, "note": 74, "velocity": 108, "channel": 0}, {"type": "note_off", "time": 61, "note": 74, "velocity": 108, "channel": 0}, {"type": "note_on", "time": 13, "note": 75, "velocity": 108, "channel": 0}, {"type": "note_off", "time": 137, "note": 75, "velocity": 108, "channel": 0}, {"type": "note_on", "time": 15, "note": 74, "velocity": 104, "channel": 0}, {"type": "note_off", "time": 526, "note": 74, "velocity": 104, "channel": 0}, {"type": "note_on", "time": 50, "note": 72, "velocity": 96, "channel": 0}, {"type": "note_off", "time": 150, "note": 72, "velocity": 96, "channel": 0}, {"type": "note_on", "time": 30, "note": 70, "velocity": 103, "channel": 0}, {"type": "note_off", "time": 172, "note": 70, "velocity": 103, "channel": 0}, {"type": "note_on", "time": 8, "note": 69, "velocity": 103, "channel": 0}, {"type": "note_off", "time": 354, "note": 69, "velocity": 103, "channel": 0}, {"type": "note_on", "time": 30, "note": 67, "velocity": 104, "channel": 0}, {"type": "note_off", "time": 123, "note": 67, "velocity": 104, "channel": 0}, {"type": "note_on", "time": 75, "note": 66, "velocity": 98, "channel": 0}, {"type": "note_off", "time": 606, "note": 66, "velocity": 98, "channel": 0}, {"type": "note_on", "time": 137, "note": 74, "velocity": 106, "channel": 0}, {"type": "note_off", "time": 115, "note": 74, "velocity": 106, "channel": 0}, {"type": "note_on", "time": 0, "note": 75, "velocity": 113, "channel": 0}, {"type": "note_on", "time": 407, "note": 73, "velocity": 112, "channel": 0}, {"type": "note_off", "time": 0, "note": 75, "velocity": 113, "channel": 0}, {"type": "note_off", "time": 115, "note": 73, "velocity": 112, "channel": 0}, {"type": "note_on", "time": 0, "note": 71, "velocity": 104, "channel": 0}, {"type": "note_off", "time": 100, "note": 71, "velocity": 104, "channel": 0}, {"type": "note_on", "time": 0, "note": 66, "velocity": 101, "channel": 0}, {"type": "note_off", "time": 425, "note": 66, "velocity": 101, "channel": 0}, {"type": "note_on", "time": 1285, "note": 73, "velocity": 113, "channel": 0}, {"type": "note_on", "time": 119, "note": 71, "velocity": 109, "channel": 0}, {"type": "note_off", "time": 0, "note": 73, "velocity": 113, "channel": 0}, {"type": "note_off", "time": 101, "note": 71, "velocity": 109, "channel": 0}, {"type": "note_on", "time": 4, "note": 73, "velocity": 116, "channel": 0}, {"type": "note_off", "time": 97, "note": 73, "velocity": 116, "channel": 0}, {"type": "note_on", "time": 0, "note": 71, "velocity": 108, "channel": 0}, {"type": "note_off", "time": 53, "note": 71, "velocity": 108, "channel": 0}, {"type": "note_on", "time": 0, "note": 69, "velocity": 117, "channel": 0}, {"type": "note_off", "time": 123, "note": 69, "velocity": 117, "channel": 0}, {"type": "note_on", "time": 8, "note": 68, "velocity": 105, "channel": 0}, {"type": "note_off", "time": 75, "note": 68, "velocity": 105, "channel": 0}, {"type": "note_on", "time": 26, "note": 71, "velocity": 113, "channel": 0}, {"type": "note_off", "time": 168, "note": 71, "velocity": 113, "channel": 0}, {"type": "note_on", "time": 13, "note": 69, "velocity": 116, "channel": 0}, {"type": "note_off", "time": 185, "note": 69, "velocity": 116, "channel": 0}, {"type": "note_on", "time": 8, "note": 68, "velocity": 116, "channel": 0}, {"type": "note_off", "time": 172, "note": 68, "velocity": 116, "channel": 0}, {"type": "note_on", "time": 13, "note": 66, "velocity": 116, "channel": 0}, {"type": "note_off", "time": 203, "note": 66, "velocity": 116, "channel": 0}, {"type": "note_on", "time": 8, "note": 64, "velocity": 106, "channel": 0}, {"type": "note_off", "time": 433, "note": 64, "velocity": 106, "channel": 0}, {"type": "note_on", "time": 747, "note": 60, "velocity": 109, "channel": 0}, {"type": "note_off", "time": 94, "note": 60, "velocity": 109, "channel": 0}, {"type": "note_on", "time": 0, "note": 64, "velocity": 111, "channel": 0}, {"type": "note_off", "time": 100, "note": 64, "velocity": 111, "channel": 0}, {"type": "note_on", "time": 0, "note": 67, "velocity": 113, "channel": 0}, {"type": "note_off", "time": 75, "note": 67, "velocity": 113, "channel": 0}, {"type": "note_on", "time": 12, "note": 64, "velocity": 115, "channel": 0}, {"type": "note_off", "time": 100, "note": 64, "velocity": 115, "channel": 0}, {"type": "note_on", "time": 12, "note": 66, "velocity": 106, "channel": 0}, {"type": "note_on", "time": 107, "note": 69, "velocity": 112, "channel": 0}, {"type": "note_off", "time": 0, "note": 66, "velocity": 106, "channel": 0}, {"type": "note_off", "time": 62, "note": 69, "velocity": 112, "channel": 0}, {"type": "note_on", "time": 12, "note": 68, "velocity": 115, "channel": 0}, {"type": "note_off", "time": 107, "note": 68, "velocity": 115, "channel": 0}, {"type": "note_on", "time": 18, "note": 66, "velocity": 110, "channel": 0}, {"type": "note_off", "time": 100, "note": 66, "velocity": 110, "channel": 0}, {"type": "note_on", "time": 0, "note": 67, "velocity": 116, "channel": 0}, {"type": "note_off", "time": 100, "note": 67, "velocity": 116, "channel": 0}, {"type": "note_on", "time": 12, "note": 69, "velocity": 112, "channel": 0}, {"type": "note_off", "time": 56, "note": 69, "velocity": 112, "channel": 0}, {"type": "note_on", "time": 18, "note": 71, "velocity": 105, "channel": 0}, {"type": "note_off", "time": 88, "note": 71, "velocity": 105, "channel": 0}, {"type": "note_on", "time": 6, "note": 72, "velocity": 97, "channel": 0}, {"type": "note_off", "time": 94, "note": 72, "velocity": 97, "channel": 0}, {"type": "note_on", "time": 6, "note": 74, "velocity": 110, "channel": 0}, {"type": "note_off", "time": 56, "note": 74, "velocity": 110, "channel": 0}, {"type": "note_on", "time": 37, "note": 71, "velocity": 108, "channel": 0}, {"type": "note_off", "time": 75, "note": 71, "velocity": 108, "channel": 0}, {"type": "note_on", "time": 12, "note": 72, "velocity": 103, "channel": 0}, {"type": "note_off", "time": 100, "note": 72, "velocity": 103, "channel": 0}, {"type": "note_on", "time": 6, "note": 69, "velocity": 111, "channel": 0}, {"type": "note_off", "time": 94, "note": 69, "velocity": 111, "channel": 0}, {"type": "note_on", "time": 0, "note": 68, "velocity": 102, "channel": 0}, {"type": "note_off", "time": 94, "note": 68, "velocity": 102, "channel": 0}, {"type": "note_on", "time": 6, "note": 69, "velocity": 101, "channel": 0}, {"type": "note_off", "time": 62, "note": 69, "velocity": 101, "channel": 0}, {"type": "note_on", "time": 44, "note": 71, "velocity": 111, "channel": 0}, {"type": "note_off", "time": 62, "note": 71, "velocity": 111, "channel": 0}, {"type": "note_on", "time": 0, "note": 68, "velocity": 111, "channel": 0}, {"type": "note_off", "time": 94, "note": 68, "velocity": 111, "channel": 0}, {"type": "note_on", "time": 37, "note": 69, "velocity": 114, "channel": 0}, {"type": "note_off", "time": 81, "note": 69, "velocity": 114, "channel": 0}, {"type": "note_on", "time": 6, "note": 67, "velocity": 115, "channel": 0}, {"type": "note_off", "time": 69, "note": 67, "velocity": 115, "channel": 0}, {"type": "note_on", "time": 0, "note": 66, "velocity": 114, "channel": 0}, {"type": "note_off", "time": 81, "note": 66, "velocity": 114, "channel": 0}, {"type": "note_on", "time": 6, "note": 64, "velocity": 122, "channel": 0}, {"type": "note_off", "time": 107, "note": 64, "velocity": 122, "channel": 0}, {"type": "note_on", "time": 25, "note": 63, "velocity": 116, "channel": 0}, {"type": "note_off", "time": 88, "note": 63, "velocity": 116, "channel": 0}, {"type": "note_on", "time": 25, "note": 64, "velocity": 113, "channel": 0}, {"type": "note_off", "time": 69, "note": 64, "velocity": 113, "channel": 0}, {"type": "note_on", "time": 0, "note": 67, "velocity": 114, "channel": 0}, {"type": "note_off", "time": 94, "note": 67, "velocity": 114, "channel": 0}, {"type": "note_on", "time": 12, "note": 64, "velocity": 114, "channel": 0}, {"type": "note_off", "time": 69, "note": 64, "velocity": 114, "channel": 0}, {"type": "note_on", "time": 0, "note": 60, "velocity": 113, "channel": 0}, {"type": "note_off", "time": 88, "note": 60, "velocity": 113, "channel": 0}, {"type": "note_on", "time": 25, "note": 55, "velocity": 114, "channel": 0}, {"type": "note_off", "time": 50, "note": 55, "velocity": 114, "channel": 0}, {"type": "note_on", "time": 6, "note": 60, "velocity": 116, "channel": 0}, {"type": "note_off", "time": 113, "note": 60, "velocity": 116, "channel": 0}, {"type": "note_on", "time": 18, "note": 55, "velocity": 114, "channel": 0}, {"type": "note_off", "time": 62, "note": 55, "velocity": 114, "channel": 0}, {"type": "note_on", "time": 17, "note": 60, "velocity": 122, "channel": 0}, {"type": "note_off", "time": 45, "note": 60, "velocity": 122, "channel": 0}, {"type": "note_on", "time": 6, "note": 62, "velocity": 108, "channel": 0}, {"type": "note_off", "time": 83, "note": 62, "velocity": 108, "channel": 0}, {"type": "note_on", "time": 11, "note": 59, "velocity": 109, "channel": 0}, {"type": "note_off", "time": 75, "note": 59, "velocity": 109, "channel": 0}, {"type": "note_on", "time": 50, "note": 59, "velocity": 113, "channel": 0}, {"type": "note_off", "time": 100, "note": 59, "velocity": 113, "channel": 0}, {"type": "note_on", "time": 25, "note": 58, "velocity": 118, "channel": 0}, {"type": "note_off", "time": 94, "note": 58, "velocity": 118, "channel": 0}, {"type": "note_on", "time": 3, "note": 59, "velocity": 114, "channel": 0}, {"type": "note_off", "time": 88, "note": 59, "velocity": 114, "channel": 0}, {"type": "note_on", "time": 6, "note": 60, "velocity": 108, "channel": 0}, {"type": "note_off", "time": 80, "note": 60, "velocity": 108, "channel": 0}, {"type": "note_on", "time": 11, "note": 62, "velocity": 106, "channel": 0}, {"type": "note_off", "time": 75, "note": 62, "velocity": 106, "channel": 0}, {"type": "note_on", "time": 31, "note": 64, "velocity": 123, "channel": 0}, {"type": "note_on", "time": 81, "note": 66, "velocity": 105, "channel": 0}, {"type": "note_off", "time": 0, "note": 64, "velocity": 123, "channel": 0}, {"type": "note_off", "time": 69, "note": 66, "velocity": 105, "channel": 0}, {"type": "note_on", "time": 6, "note": 64, "velocity": 108, "channel": 0}, {"type": "note_off", "time": 88, "note": 64, "velocity": 108, "channel": 0}, {"type": "note_on", "time": 18, "note": 65, "velocity": 113, "channel": 0}, {"type": "note_off", "time": 62, "note": 65, "velocity": 113, "channel": 0}, {"type": "note_on", "time": 0, "note": 67, "velocity": 114, "channel": 0}, {"type": "note_off", "time": 113, "note": 67, "velocity": 114, "channel": 0}, {"type": "note_on", "time": 37, "note": 69, "velocity": 111, "channel": 0}, {"type": "note_off", "time": 69, "note": 69, "velocity": 111, "channel": 0}, {"type": "note_on", "time": 0, "note": 70, "velocity": 107, "channel": 0}, {"type": "note_off", "time": 69, "note": 70, "velocity": 107, "channel": 0}, {"type": "note_on", "time": 37, "note": 72, "velocity": 95, "channel": 0}, {"type": "note_off", "time": 56, "note": 72, "velocity": 95, "channel": 0}, {"type": "note_on", "time": 31, "note": 74, "velocity": 106, "channel": 0}, {"type": "note_off", "time": 107, "note": 74, "velocity": 106, "channel": 0}, {"type": "note_on", "time": 0, "note": 70, "velocity": 106, "channel": 0}, {"type": "note_off", "time": 56, "note": 70, "velocity": 106, "channel": 0}, {"type": "note_on", "time": 6, "note": 67, "velocity": 106, "channel": 0}, {"type": "note_off", "time": 69, "note": 67, "velocity": 106, "channel": 0}, {"type": "note_on", "time": 12, "note": 65, "velocity": 99, "channel": 0}, {"type": "note_off", "time": 100, "note": 65, "velocity": 99, "channel": 0}, {"type": "note_on", "time": 31, "note": 74, "velocity": 104, "channel": 0}, {"type": "note_off", "time": 119, "note": 74, "velocity": 104, "channel": 0}, {"type": "note_on", "time": 0, "note": 72, "velocity": 116, "channel": 0}, {"type": "note_off", "time": 62, "note": 72, "velocity": 116, "channel": 0}, {"type": "note_on", "time": 6, "note": 71, "velocity": 112, "channel": 0}, {"type": "note_off", "time": 81, "note": 71, "velocity": 112, "channel": 0}, {"type": "note_on", "time": 0, "note": 69, "velocity": 116, "channel": 0}, {"type": "note_off", "time": 88, "note": 69, "velocity": 116, "channel": 0}, {"type": "note_on", "time": 12, "note": 70, "velocity": 109, "channel": 0}, {"type": "note_off", "time": 107, "note": 70, "velocity": 109, "channel": 0}, {"type": "note_on", "time": 195, "note": 65, "velocity": 98, "channel": 0}, {"type": "note_off", "time": 75, "note": 65, "velocity": 98, "channel": 0}, {"type": "note_on", "time": 0, "note": 69, "velocity": 121, "channel": 0}, {"type": "note_off", "time": 56, "note": 69, "velocity": 121, "channel": 0}, {"type": "note_on", "time": 25, "note": 67, "velocity": 121, "channel": 0}, {"type": "note_off", "time": 56, "note": 67, "velocity": 121, "channel": 0}, {"type": "note_on", "time": 0, "note": 65, "velocity": 119, "channel": 0}, {"type": "note_off", "time": 100, "note": 65, "velocity": 119, "channel": 0}, {"type": "note_on", "time": 0, "note": 64, "velocity": 117, "channel": 0}, {"type": "note_off", "time": 94, "note": 64, "velocity": 117, "channel": 0}, {"type": "note_on", "time": 12, "note": 62, "velocity": 114, "channel": 0}, {"type": "note_off", "time": 75, "note": 62, "velocity": 114, "channel": 0}, {"type": "note_on", "time": 18, "note": 63, "velocity": 120, "channel": 0}, {"type": "note_off", "time": 50, "note": 63, "velocity": 120, "channel": 0}, {"type": "note_on", "time": 18, "note": 65, "velocity": 115, "channel": 0}, {"type": "note_off", "time": 88, "note": 65, "velocity": 115, "channel": 0}, {"type": "note_on", "time": 18, "note": 67, "velocity": 111, "channel": 0}, {"type": "note_off", "time": 88, "note": 67, "velocity": 111, "channel": 0}, {"type": "note_on", "time": 31, "note": 69, "velocity": 108, "channel": 0}, {"type": "note_off", "time": 56, "note": 69, "velocity": 108, "channel": 0}, {"type": "note_on", "time": 18, "note": 70, "velocity": 106, "channel": 0}, {"type": "note_off", "time": 81, "note": 70, "velocity": 106, "channel": 0}, {"type": "note_on", "time": 79, "note": 62, "velocity": 118, "channel": 0}, {"type": "note_off", "time": 199, "note": 62, "velocity": 118, "channel": 0}, {"type": "note_on", "time": 26, "note": 63, "velocity": 117, "channel": 0}, {"type": "note_off", "time": 168, "note": 63, "velocity": 117, "channel": 0}, {"type": "note_on", "time": 26, "note": 64, "velocity": 114, "channel": 0}, {"type": "note_off", "time": 177, "note": 64, "velocity": 114, "channel": 0}, {"type": "note_on", "time": 44, "note": 65, "velocity": 117, "channel": 0}, {"type": "note_off", "time": 203, "note": 65, "velocity": 117, "channel": 0}, {"type": "note_on", "time": 26, "note": 67, "velocity": 111, "channel": 0}, {"type": "note_off", "time": 177, "note": 67, "velocity": 111, "channel": 0}, {"type": "note_on", "time": 0, "note": 65, "velocity": 113, "channel": 0}, {"type": "note_off", "time": 177, "note": 65, "velocity": 113, "channel": 0}, {"type": "note_on", "time": 0, "note": 62, "velocity": 115, "channel": 0}, {"type": "note_off", "time": 208, "note": 62, "velocity": 115, "channel": 0}, {"type": "note_on", "time": 0, "note": 60, "velocity": 113, "channel": 0}, {"type": "note_off", "time": 177, "note": 60, "velocity": 113, "channel": 0}, {"type": "note_on", "time": 17, "note": 58, "velocity": 108, "channel": 0}, {"type": "note_off", "time": 371, "note": 58, "velocity": 108, "channel": 0}, {"type": "note_on", "time": 1545, "note": 74, "velocity": 111, "channel": 0}, {"type": "note_off", "time": 84, "note": 74, "velocity": 111, "channel": 0}, {"type": "note_on", "time": 88, "note": 77, "velocity": 115, "channel": 0}, {"type": "note_off", "time": 398, "note": 77, "velocity": 115, "channel": 0}, {"type": "note_on", "time": 39, "note": 77, "velocity": 99, "channel": 0}, {"type": "note_off", "time": 56, "note": 77, "velocity": 99, "channel": 0}, {"type": "note_on", "time": 98, "note": 77, "velocity": 111, "channel": 0}, {"type": "note_off", "time": 380, "note": 77, "velocity": 111, "channel": 0}, {"type": "note_on", "time": 27, "note": 75, "velocity": 100, "channel": 0}, {"type": "note_off", "time": 66, "note": 75, "velocity": 100, "channel": 0}, {"type": "note_on", "time": 118, "note": 75, "velocity": 114, "channel": 0}, {"type": "note_off", "time": 371, "note": 75, "velocity": 114, "channel": 0}, {"type": "note_on", "time": 20, "note": 74, "velocity": 107, "channel": 0}, {"type": "note_off", "time": 73, "note": 74, "velocity": 107, "channel": 0}, {"type": "note_on", "time": 113, "note": 74, "velocity": 116, "channel": 0}, {"type": "note_off", "time": 411, "note": 74, "velocity": 116, "channel": 0}, {"type": "note_on", "time": 8, "note": 72, "velocity": 109, "channel": 0}, {"type": "note_off", "time": 66, "note": 72, "velocity": 109, "channel": 0}, {"type": "note_on", "time": 119, "note": 72, "velocity": 110, "channel": 0}, {"type": "note_off", "time": 367, "note": 72, "velocity": 110, "channel": 0}, {"type": "note_on", "time": 22, "note": 70, "velocity": 114, "channel": 0}, {"type": "note_off", "time": 92, "note": 70, "velocity": 114, "channel": 0}, {"type": "note_on", "time": 75, "note": 70, "velocity": 112, "channel": 0}, {"type": "note_off", "time": 438, "note": 70, "velocity": 112, "channel": 0}, {"type": "note_on", "time": 22, "note": 69, "velocity": 119, "channel": 0}, {"type": "note_off", "time": 84, "note": 69, "velocity": 119, "channel": 0}, {"type": "note_on", "time": 22, "note": 70, "velocity": 114, "channel": 0}, {"type": "note_off", "time": 39, "note": 70, "velocity": 114, "channel": 0}, {"type": "note_on", "time": 0, "note": 69, "velocity": 108, "channel": 0}, {"type": "note_off", "time": 429, "note": 69, "velocity": 108, "channel": 0}, {"type": "note_on", "time": 22, "note": 67, "velocity": 117, "channel": 0}, {"type": "note_on", "time": 97, "note": 69, "velocity": 118, "channel": 0}, {"type": "note_off", "time": 0, "note": 67, "velocity": 117, "channel": 0}, {"type": "note_off", "time": 61, "note": 69, "velocity": 118, "channel": 0}, {"type": "note_on", "time": 26, "note": 67, "velocity": 115, "channel": 0}, {"type": "note_off", "time": 336, "note": 67, "velocity": 115, "channel": 0}, {"type": "note_on", "time": 26, "note": 66, "velocity": 119, "channel": 0}, {"type": "note_off", "time": 66, "note": 66, "velocity": 119, "channel": 0}, {"type": "note_on", "time": 39, "note": 67, "velocity": 116, "channel": 0}, {"type": "note_off", "time": 61, "note": 67, "velocity": 116, "channel": 0}, {"type": "note_on", "time": 35, "note": 66, "velocity": 113, "channel": 0}, {"type": "note_off", "time": 336, "note": 66, "velocity": 113, "channel": 0}, {"type": "note_on", "time": 0, "note": 65, "velocity": 113, "channel": 0}, {"type": "note_off", "time": 84, "note": 65, "velocity": 113, "channel": 0}, {"type": "note_on", "time": 17, "note": 66, "velocity": 124, "channel": 0}, {"type": "note_off", "time": 61, "note": 66, "velocity": 124, "channel": 0}, {"type": "note_on", "time": 22, "note": 65, "velocity": 116, "channel": 0}, {"type": "note_off", "time": 283, "note": 65, "velocity": 116, "channel": 0}, {"type": "note_on", "time": 22, "note": 64, "velocity": 121, "channel": 0}, {"type": "note_off", "time": 75, "note": 64, "velocity": 121, "channel": 0}, {"type": "note_on", "time": 17, "note": 65, "velocity": 116, "channel": 0}, {"type": "note_off", "time": 53, "note": 65, "velocity": 116, "channel": 0}, {"type": "note_on", "time": 44, "note": 64, "velocity": 116, "channel": 0}, {"type": "note_off", "time": 309, "note": 64, "velocity": 116, "channel": 0}, {"type": "note_on", "time": 39, "note": 63, "velocity": 124, "channel": 0}, {"type": "note_off", "time": 70, "note": 63, "velocity": 124, "channel": 0}, {"type": "note_on", "time": 0, "note": 64, "velocity": 119, "channel": 0}, {"type": "note_off", "time": 84, "note": 64, "velocity": 119, "channel": 0}, {"type": "note_on", "time": 8, "note": 63, "velocity": 111, "channel": 0}, {"type": "note_off", "time": 327, "note": 63, "velocity": 111, "channel": 0}, {"type": "note_on", "time": 7, "note": 62, "velocity": 113, "channel": 0}, {"type": "note_off", "time": 83, "note": 62, "velocity": 113, "channel": 0}, {"type": "note_on", "time": 9, "note": 63, "velocity": 121, "channel": 0}, {"type": "note_on", "time": 72, "note": 62, "velocity": 114, "channel": 0}, {"type": "note_off", "time": 0, "note": 63, "velocity": 121, "channel": 0}, {"type": "note_off", "time": 385, "note": 62, "velocity": 114, "channel": 0}, {"type": "note_on", "time": 3, "note": 61, "velocity": 118, "channel": 0}, {"type": "note_off", "time": 84, "note": 61, "velocity": 118, "channel": 0}, {"type": "note_on", "time": 13, "note": 62, "velocity": 115, "channel": 0}, {"type": "note_off", "time": 79, "note": 62, "velocity": 115, "channel": 0}, {"type": "note_on", "time": 0, "note": 61, "velocity": 107, "channel": 0}, {"type": "note_off", "time": 575, "note": 61, "velocity": 107, "channel": 0}, {"type": "note_on", "time": 1115, "note": 58, "velocity": 122, "channel": 0}, {"type": "note_off", "time": 115, "note": 58, "velocity": 122, "channel": 0}, {"type": "note_on", "time": 8, "note": 60, "velocity": 109, "channel": 0}, {"type": "note_off", "time": 84, "note": 60, "velocity": 109, "channel": 0}, {"type": "note_on", "time": 8, "note": 62, "velocity": 114, "channel": 0}, {"type": "note_off", "time": 79, "note": 62, "velocity": 114, "channel": 0}, {"type": "note_on", "time": 26, "note": 66, "velocity": 99, "channel": 0}, {"type": "note_off", "time": 53, "note": 66, "velocity": 99, "channel": 0}, {"type": "note_on", "time": 0, "note": 69, "velocity": 115, "channel": 0}, {"type": "note_off", "time": 115, "note": 69, "velocity": 115, "channel": 0}, {"type": "note_on", "time": 26, "note": 67, "velocity": 111, "channel": 0}, {"type": "note_off", "time": 79, "note": 67, "velocity": 111, "channel": 0}, {"type": "note_on", "time": 8, "note": 65, "velocity": 121, "channel": 0}, {"type": "note_off", "time": 61, "note": 65, "velocity": 121, "channel": 0}, {"type": "note_on", "time": 8, "note": 63, "velocity": 118, "channel": 0}, {"type": "note_off", "time": 106, "note": 63, "velocity": 118, "channel": 0}, {"type": "note_on", "time": 13, "note": 64, "velocity": 111, "channel": 0}, {"type": "note_off", "time": 53, "note": 64, "velocity": 111, "channel": 0}, {"type": "note_on", "time": 48, "note": 65, "velocity": 119, "channel": 0}, {"type": "note_off", "time": 84, "note": 65, "velocity": 119, "channel": 0}, {"type": "note_on", "time": 13, "note": 67, "velocity": 112, "channel": 0}, {"type": "note_off", "time": 88, "note": 67, "velocity": 112, "channel": 0}, {"type": "note_on", "time": 4, "note": 69, "velocity": 109, "channel": 0}, {"type": "note_off", "time": 79, "note": 69, "velocity": 109, "channel": 0}, {"type": "note_on", "time": 22, "note": 70, "velocity": 113, "channel": 0}, {"type": "note_off", "time": 106, "note": 70, "velocity": 113, "channel": 0}, {"type": "note_on", "time": 26, "note": 69, "velocity": 116, "channel": 0}, {"type": "note_off", "time": 84, "note": 69, "velocity": 116, "channel": 0}, {"type": "note_on", "time": 4, "note": 70, "velocity": 118, "channel": 0}, {"type": "note_off", "time": 88, "note": 70, "velocity": 118, "channel": 0}, {"type": "note_on", "time": 0, "note": 72, "velocity": 115, "channel": 0}, {"type": "note_off", "time": 88, "note": 72, "velocity": 115, "channel": 0}, {"type": "note_on", "time": 8, "note": 73, "velocity": 112, "channel": 0}, {"type": "note_off", "time": 79, "note": 73, "velocity": 112, "channel": 0}, {"type": "note_on", "time": 13, "note": 74, "velocity": 116, "channel": 0}, {"type": "note_off", "time": 106, "note": 74, "velocity": 116, "channel": 0}, {"type": "note_on", "time": 0, "note": 72, "velocity": 112, "channel": 0}, {"type": "note_off", "time": 75, "note": 72, "velocity": 112, "channel": 0}, {"type": "note_on", "time": 0, "note": 70, "velocity": 108, "channel": 0}, {"type": "note_off", "time": 88, "note": 70, "velocity": 108, "channel": 0}, {"type": "note_on", "time": 8, "note": 74, "velocity": 113, "channel": 0}, {"type": "note_off", "time": 61, "note": 74, "velocity": 113, "channel": 0}, {"type": "note_on", "time": 101, "note": 82, "velocity": 107, "channel": 0}, {"type": "note_off", "time": 92, "note": 82, "velocity": 107, "channel": 0}, {"type": "note_on", "time": 22, "note": 78, "velocity": 105, "channel": 0}, {"type": "note_off", "time": 70, "note": 78, "velocity": 105, "channel": 0}, {"type": "note_on", "time": 22, "note": 77, "velocity": 105, "channel": 0}, {"type": "note_off", "time": 84, "note": 77, "velocity": 105, "channel": 0}, {"type": "note_on", "time": 0, "note": 70, "velocity": 115, "channel": 0}, {"type": "note_off", "time": 88, "note": 70, "velocity": 115, "channel": 0}, {"type": "note_on", "time": 13, "note": 68, "velocity": 116, "channel": 0}, {"type": "note_off", "time": 106, "note": 68, "velocity": 116, "channel": 0}, {"type": "note_on", "time": 8, "note": 67, "velocity": 112, "channel": 0}, {"type": "note_off", "time": 84, "note": 67, "velocity": 112, "channel": 0}, {"type": "note_on", "time": 0, "note": 70, "velocity": 115, "channel": 0}, {"type": "note_off", "time": 84, "note": 70, "velocity": 115, "channel": 0}, {"type": "note_on", "time": 0, "note": 67, "velocity": 110, "channel": 0}, {"type": "note_off", "time": 97, "note": 67, "velocity": 110, "channel": 0}, {"type": "note_on", "time": 8, "note": 68, "velocity": 113, "channel": 0}, {"type": "note_off", "time": 61, "note": 68, "velocity": 113, "channel": 0}, {"type": "note_on", "time": 13, "note": 70, "velocity": 114, "channel": 0}, {"type": "note_off", "time": 97, "note": 70, "velocity": 114, "channel": 0}, {"type": "note_on", "time": 13, "note": 72, "velocity": 102, "channel": 0}, {"type": "note_off", "time": 97, "note": 72, "velocity": 102, "channel": 0}, {"type": "note_on", "time": 17, "note": 73, "velocity": 112, "channel": 0}, {"type": "note_off", "time": 79, "note": 73, "velocity": 112, "channel": 0}, {"type": "note_on", "time": 13, "note": 74, "velocity": 112, "channel": 0}, {"type": "note_off", "time": 88, "note": 74, "velocity": 112, "channel": 0}, {"type": "note_on", "time": 13, "note": 75, "velocity": 101, "channel": 0}, {"type": "note_off", "time": 79, "note": 75, "velocity": 101, "channel": 0}, {"type": "note_on", "time": 17, "note": 76, "velocity": 106, "channel": 0}, {"type": "note_off", "time": 75, "note": 76, "velocity": 106, "channel": 0}, {"type": "note_on", "time": 17, "note": 77, "velocity": 103, "channel": 0}, {"type": "note_off", "time": 92, "note": 77, "velocity": 103, "channel": 0}, {"type": "note_on", "time": 8, "note": 78, "velocity": 105, "channel": 0}, {"type": "note_off", "time": 92, "note": 78, "velocity": 105, "channel": 0}, {"type": "note_on", "time": 35, "note": 80, "velocity": 104, "channel": 0}, {"type": "note_off", "time": 66, "note": 80, "velocity": 104, "channel": 0}, {"type": "note_on", "time": 4, "note": 78, "velocity": 103, "channel": 0}, {"type": "note_off", "time": 84, "note": 78, "velocity": 103, "channel": 0}, {"type": "note_on", "time": 22, "note": 78, "velocity": 100, "channel": 0}, {"type": "note_off", "time": 70, "note": 78, "velocity": 100, "channel": 0}, {"type": "note_on", "time": 30, "note": 78, "velocity": 105, "channel": 0}, {"type": "note_off", "time": 70, "note": 78, "velocity": 105, "channel": 0}, {"type": "note_on", "time": 13, "note": 80, "velocity": 99, "channel": 0}, {"type": "note_off", "time": 66, "note": 80, "velocity": 99, "channel": 0}, {"type": "note_on", "time": 0, "note": 77, "velocity": 107, "channel": 0}, {"type": "note_off", "time": 66, "note": 77, "velocity": 107, "channel": 0}, {"type": "note_on", "time": 0, "note": 78, "velocity": 106, "channel": 0}, {"type": "note_off", "time": 79, "note": 78, "velocity": 106, "channel": 0}, {"type": "note_on", "time": 22, "note": 77, "velocity": 103, "channel": 0}, {"type": "note_off", "time": 106, "note": 77, "velocity": 103, "channel": 0}, {"type": "note_on", "time": 0, "note": 78, "velocity": 100, "channel": 0}, {"type": "note_off", "time": 88, "note": 78, "velocity": 100, "channel": 0}, {"type": "note_on", "time": 26, "note": 78, "velocity": 106, "channel": 0}, {"type": "note_off", "time": 97, "note": 78, "velocity": 106, "channel": 0}, {"type": "note_on", "time": 4, "note": 77, "velocity": 114, "channel": 0}, {"type": "note_off", "time": 75, "note": 77, "velocity": 114, "channel": 0}, {"type": "note_on", "time": 22, "note": 78, "velocity": 104, "channel": 0}, {"type": "note_off", "time": 88, "note": 78, "velocity": 104, "channel": 0}, {"type": "note_on", "time": 0, "note": 76, "velocity": 109, "channel": 0}, {"type": "note_off", "time": 92, "note": 76, "velocity": 109, "channel": 0}, {"type": "note_on", "time": 0, "note": 77, "velocity": 111, "channel": 0}, {"type": "note_off", "time": 97, "note": 77, "velocity": 111, "channel": 0}, {"type": "note_on", "time": 0, "note": 76, "velocity": 113, "channel": 0}, {"type": "note_off", "time": 115, "note": 76, "velocity": 113, "channel": 0}, {"type": "note_on", "time": 0, "note": 75, "velocity": 109, "channel": 0}, {"type": "note_on", "time": 97, "note": 74, "velocity": 115, "channel": 0}, {"type": "note_off", "time": 0, "note": 75, "velocity": 109, "channel": 0}, {"type": "note_off", "time": 61, "note": 74, "velocity": 115, "channel": 0}, {"type": "note_on", "time": 17, "note": 73, "velocity": 111, "channel": 0}, {"type": "note_off", "time": 92, "note": 73, "velocity": 111, "channel": 0}, {"type": "note_on", "time": 0, "note": 71, "velocity": 114, "channel": 0}, {"type": "note_off", "time": 66, "note": 71, "velocity": 114, "channel": 0}, {"type": "note_on", "time": 0, "note": 72, "velocity": 109, "channel": 0}, {"type": "note_off", "time": 88, "note": 72, "velocity": 109, "channel": 0}, {"type": "note_on", "time": 17, "note": 70, "velocity": 111, "channel": 0}, {"type": "note_off", "time": 110, "note": 70, "velocity": 111, "channel": 0}, {"type": "note_on", "time": 4, "note": 69, "velocity": 117, "channel": 0}, {"type": "note_off", "time": 88, "note": 69, "velocity": 117, "channel": 0}, {"type": "note_on", "time": 8, "note": 67, "velocity": 117, "channel": 0}, {"type": "note_off", "time": 70, "note": 67, "velocity": 117, "channel": 0}, {"type": "note_on", "time": 0, "note": 66, "velocity": 114, "channel": 0}, {"type": "note_off", "time": 119, "note": 66, "velocity": 114, "channel": 0}, {"type": "note_on", "time": 4, "note": 67, "velocity": 116, "channel": 0}, {"type": "note_on", "time": 92, "note": 70, "velocity": 108, "channel": 0}, {"type": "note_off", "time": 0, "note": 67, "velocity": 116, "channel": 0}, {"type": "note_off", "time": 84, "note": 70, "velocity": 108, "channel": 0}, {"type": "note_on", "time": 13, "note": 67, "velocity": 112, "channel": 0}, {"type": "note_off", "time": 70, "note": 67, "velocity": 112, "channel": 0}, {"type": "note_on", "time": 17, "note": 63, "velocity": 113, "channel": 0}, {"type": "note_off", "time": 79, "note": 63, "velocity": 113, "channel": 0}, {"type": "note_on", "time": 26, "note": 60, "velocity": 116, "channel": 0}, {"type": "note_off", "time": 75, "note": 60, "velocity": 116, "channel": 0}, {"type": "note_on", "time": 8, "note": 69, "velocity": 115, "channel": 0}, {"type": "note_off", "time": 110, "note": 69, "velocity": 115, "channel": 0}, {"type": "note_on", "time": 4, "note": 65, "velocity": 114, "channel": 0}, {"type": "note_off", "time": 88, "note": 65, "velocity": 114, "channel": 0}, {"type": "note_on", "time": 17, "note": 67, "velocity": 115, "channel": 0}, {"type": "note_off", "time": 61, "note": 67, "velocity": 115, "channel": 0}, {"type": "note_on", "time": 30, "note": 64, "velocity": 116, "channel": 0}, {"type": "note_off", "time": 70, "note": 64, "velocity": 116, "channel": 0}, {"type": "note_on", "time": 13, "note": 65, "velocity": 113, "channel": 0}, {"type": "note_off", "time": 101, "note": 65, "velocity": 113, "channel": 0}, {"type": "note_on", "time": 4, "note": 63, "velocity": 113, "channel": 0}, {"type": "note_off", "time": 75, "note": 63, "velocity": 113, "channel": 0}, {"type": "note_on", "time": 17, "note": 61, "velocity": 105, "channel": 0}, {"type": "note_off", "time": 101, "note": 61, "velocity": 105, "channel": 0}, {"type": "note_on", "time": 10, "note": 61, "velocity": 103, "channel": 0}, {"type": "note_off", "time": 51, "note": 61, "velocity": 103, "channel": 0}, {"type": "note_on", "time": 4, "note": 63, "velocity": 110, "channel": 0}, {"type": "note_off", "time": 101, "note": 63, "velocity": 110, "channel": 0}, {"type": "note_on", "time": 26, "note": 65, "velocity": 106, "channel": 0}, {"type": "note_off", "time": 61, "note": 65, "velocity": 106, "channel": 0}, {"type": "note_on", "time": 8, "note": 61, "velocity": 104, "channel": 0}, {"type": "note_off", "time": 79, "note": 61, "velocity": 104, "channel": 0}, {"type": "note_on", "time": 22, "note": 57, "velocity": 116, "channel": 0}, {"type": "note_off", "time": 92, "note": 57, "velocity": 116, "channel": 0}, {"type": "note_on", "time": 4, "note": 59, "velocity": 118, "channel": 0}, {"type": "note_off", "time": 84, "note": 59, "velocity": 118, "channel": 0}, {"type": "note_on", "time": 13, "note": 60, "velocity": 114, "channel": 0}, {"type": "note_off", "time": 97, "note": 60, "velocity": 114, "channel": 0}, {"type": "note_on", "time": 4, "note": 62, "velocity": 110, "channel": 0}, {"type": "note_off", "time": 88, "note": 62, "velocity": 110, "channel": 0}, {"type": "note_on", "time": 13, "note": 66, "velocity": 112, "channel": 0}, {"type": "note_off", "time": 113, "note": 66, "velocity": 112, "channel": 0}, {"type": "note_on", "time": 0, "note": 70, "velocity": 110, "channel": 0}, {"type": "note_off", "time": 75, "note": 70, "velocity": 110, "channel": 0}, {"type": "note_on", "time": 18, "note": 69, "velocity": 103, "channel": 0}, {"type": "note_off", "time": 50, "note": 69, "velocity": 103, "channel": 0}, {"type": "note_on", "time": 31, "note": 70, "velocity": 110, "channel": 0}, {"type": "note_off", "time": 81, "note": 70, "velocity": 110, "channel": 0}, {"type": "note_on", "time": 25, "note": 71, "velocity": 112, "channel": 0}, {"type": "note_off", "time": 62, "note": 71, "velocity": 112, "channel": 0}, {"type": "note_on", "time": 0, "note": 70, "velocity": 109, "channel": 0}, {"type": "note_off", "time": 81, "note": 70, "velocity": 109, "channel": 0}, {"type": "note_on", "time": 6, "note": 68, "velocity": 105, "channel": 0}, {"type": "note_off", "time": 113, "note": 68, "velocity": 105, "channel": 0}, {"type": "note_on", "time": 29, "note": 75, "velocity": 108, "channel": 0}, {"type": "note_off", "time": 86, "note": 75, "velocity": 108, "channel": 0}, {"type": "note_on", "time": 17, "note": 71, "velocity": 97, "channel": 0}, {"type": "note_off", "time": 36, "note": 71, "velocity": 97, "channel": 0}, {"type": "note_on", "time": 0, "note": 72, "velocity": 104, "channel": 0}, {"type": "note_off", "time": 88, "note": 72, "velocity": 104, "channel": 0}, {"type": "note_on", "time": 44, "note": 70, "velocity": 106, "channel": 0}, {"type": "note_off", "time": 81, "note": 70, "velocity": 106, "channel": 0}, {"type": "note_on", "time": 0, "note": 72, "velocity": 100, "channel": 0}, {"type": "note_off", "time": 94, "note": 72, "velocity": 100, "channel": 0}, {"type": "note_on", "time": 6, "note": 73, "velocity": 97, "channel": 0}, {"type": "note_off", "time": 56, "note": 73, "velocity": 97, "channel": 0}, {"type": "note_on", "time": 25, "note": 74, "velocity": 105, "channel": 0}, {"type": "note_off", "time": 113, "note": 74, "velocity": 105, "channel": 0}, {"type": "note_on", "time": 12, "note": 73, "velocity": 93, "channel": 0}, {"type": "note_off", "time": 50, "note": 73, "velocity": 93, "channel": 0}, {"type": "note_on", "time": 12, "note": 74, "velocity": 100, "channel": 0}, {"type": "note_off", "time": 119, "note": 74, "velocity": 100, "channel": 0}, {"type": "note_on", "time": 6, "note": 75, "velocity": 108, "channel": 0}, {"type": "note_off", "time": 107, "note": 75, "velocity": 108, "channel": 0}, {"type": "note_on", "time": 6, "note": 74, "velocity": 104, "channel": 0}, {"type": "note_off", "time": 62, "note": 74, "velocity": 104, "channel": 0}, {"type": "note_on", "time": 6, "note": 72, "velocity": 96, "channel": 0}, {"type": "note_off", "time": 81, "note": 72, "velocity": 96, "channel": 0}, {"type": "note_on", "time": 12, "note": 76, "velocity": 9, "channel": 0}, {"type": "note_off", "time": 113, "note": 76, "velocity": 9, "channel": 0}, {"type": "note_on", "time": 20, "note": 72, "velocity": 59, "channel": 0}, {"type": "note_off", "time": 61, "note": 72, "velocity": 59, "channel": 0}, {"type": "note_on", "time": 6, "note": 76, "velocity": 99, "channel": 0}, {"type": "note_off", "time": 94, "note": 76, "velocity": 99, "channel": 0}, {"type": "note_on", "time": 31, "note": 77, "velocity": 102, "channel": 0}, {"type": "note_off", "time": 69, "note": 77, "velocity": 102, "channel": 0}, {"type": "note_on", "time": 18, "note": 76, "velocity": 103, "channel": 0}, {"type": "note_off", "time": 100, "note": 76, "velocity": 103, "channel": 0}, {"type": "note_on", "time": 12, "note": 77, "velocity": 98, "channel": 0}, {"type": "note_off", "time": 62, "note": 77, "velocity": 98, "channel": 0}, {"type": "note_on", "time": 15, "note": 78, "velocity": 98, "channel": 0}, {"type": "note_off", "time": 113, "note": 78, "velocity": 98, "channel": 0}, {"type": "note_on", "time": 12, "note": 79, "velocity": 93, "channel": 0}, {"type": "note_off", "time": 56, "note": 79, "velocity": 93, "channel": 0}, {"type": "note_on", "time": 9, "note": 80, "velocity": 100, "channel": 0}, {"type": "note_off", "time": 124, "note": 80, "velocity": 100, "channel": 0}, {"type": "note_on", "time": 0, "note": 79, "velocity": 98, "channel": 0}, {"type": "note_off", "time": 64, "note": 79, "velocity": 98, "channel": 0}, {"type": "note_on", "time": 6, "note": 78, "velocity": 95, "channel": 0}, {"type": "note_off", "time": 107, "note": 78, "velocity": 95, "channel": 0}, {"type": "note_on", "time": 25, "note": 77, "velocity": 102, "channel": 0}, {"type": "note_off", "time": 88, "note": 77, "velocity": 102, "channel": 0}, {"type": "note_on", "time": 12, "note": 78, "velocity": 106, "channel": 0}, {"type": "note_off", "time": 88, "note": 78, "velocity": 106, "channel": 0}, {"type": "note_on", "time": 61, "note": 78, "velocity": 103, "channel": 0}, {"type": "note_off", "time": 79, "note": 78, "velocity": 103, "channel": 0}, {"type": "note_on", "time": 22, "note": 77, "velocity": 101, "channel": 0}, {"type": "note_off", "time": 48, "note": 77, "velocity": 101, "channel": 0}, {"type": "note_on", "time": 26, "note": 76, "velocity": 104, "channel": 0}, {"type": "note_off", "time": 92, "note": 76, "velocity": 104, "channel": 0}, {"type": "note_on", "time": 4, "note": 75, "velocity": 105, "channel": 0}, {"type": "note_off", "time": 101, "note": 75, "velocity": 105, "channel": 0}, {"type": "note_on", "time": 11, "note": 77, "velocity": 99, "channel": 0}, {"type": "note_off", "time": 107, "note": 77, "velocity": 99, "channel": 0}, {"type": "note_on", "time": 45, "note": 76, "velocity": 110, "channel": 0}, {"type": "note_off", "time": 70, "note": 76, "velocity": 110, "channel": 0}, {"type": "note_on", "time": 26, "note": 75, "velocity": 102, "channel": 0}, {"type": "note_off", "time": 70, "note": 75, "velocity": 102, "channel": 0}, {"type": "note_on", "time": 22, "note": 74, "velocity": 100, "channel": 0}, {"type": "note_off", "time": 75, "note": 74, "velocity": 100, "channel": 0}, {"type": "note_on", "time": 22, "note": 73, "velocity": 97, "channel": 0}, {"type": "note_off", "time": 70, "note": 73, "velocity": 97, "channel": 0}, {"type": "note_on", "time": 30, "note": 74, "velocity": 111, "channel": 0}, {"type": "note_off", "time": 97, "note": 74, "velocity": 111, "channel": 0}, {"type": "note_on", "time": 13, "note": 72, "velocity": 88, "channel": 0}, {"type": "note_off", "time": 66, "note": 72, "velocity": 88, "channel": 0}, {"type": "note_on", "time": 13, "note": 73, "velocity": 109, "channel": 0}, {"type": "note_off", "time": 66, "note": 73, "velocity": 109, "channel": 0}, {"type": "note_on", "time": 25, "note": 70, "velocity": 102, "channel": 0}, {"type": "note_off", "time": 88, "note": 70, "velocity": 102, "channel": 0}, {"type": "note_on", "time": 21, "note": 67, "velocity": 99, "channel": 0}, {"type": "note_off", "time": 69, "note": 67, "velocity": 99, "channel": 0}, {"type": "note_on", "time": 11, "note": 66, "velocity": 104, "channel": 0}, {"type": "note_off", "time": 101, "note": 66, "velocity": 104, "channel": 0}, {"type": "note_on", "time": 26, "note": 72, "velocity": 103, "channel": 0}, {"type": "note_off", "time": 66, "note": 72, "velocity": 103, "channel": 0}, {"type": "note_on", "time": 8, "note": 74, "velocity": 102, "channel": 0}, {"type": "note_off", "time": 44, "note": 74, "velocity": 102, "channel": 0}, {"type": "note_on", "time": 22, "note": 72, "velocity": 111, "channel": 0}, {"type": "note_off", "time": 30, "note": 72, "velocity": 111, "channel": 0}, {"type": "note_on", "time": 4, "note": 71, "velocity": 108, "channel": 0}, {"type": "note_off", "time": 61, "note": 71, "velocity": 108, "channel": 0}, {"type": "note_on", "time": 30, "note": 69, "velocity": 107, "channel": 0}, {"type": "note_off", "time": 101, "note": 69, "velocity": 107, "channel": 0}, {"type": "note_on", "time": 176, "note": 65, "velocity": 93, "channel": 0}, {"type": "note_off", "time": 62, "note": 65, "velocity": 93, "channel": 0}, {"type": "note_on", "time": 18, "note": 66, "velocity": 96, "channel": 0}, {"type": "note_off", "time": 88, "note": 66, "velocity": 96, "channel": 0}, {"type": "note_on", "time": 25, "note": 67, "velocity": 100, "channel": 0}, {"type": "note_off", "time": 75, "note": 67, "velocity": 100, "channel": 0}, {"type": "note_on", "time": 15, "note": 65, "velocity": 95, "channel": 0}, {"type": "note_off", "time": 56, "note": 65, "velocity": 95, "channel": 0}, {"type": "note_on", "time": 3, "note": 64, "velocity": 100, "channel": 0}, {"type": "note_off", "time": 94, "note": 64, "velocity": 100, "channel": 0}, {"type": "note_on", "time": 18, "note": 63, "velocity": 99, "channel": 0}, {"type": "note_off", "time": 62, "note": 63, "velocity": 99, "channel": 0}, {"type": "note_on", "time": 14, "note": 64, "velocity": 107, "channel": 0}, {"type": "note_off", "time": 84, "note": 64, "velocity": 107, "channel": 0}, {"type": "note_on", "time": 22, "note": 65, "velocity": 109, "channel": 0}, {"type": "note_off", "time": 66, "note": 65, "velocity": 109, "channel": 0}, {"type": "note_on", "time": 26, "note": 67, "velocity": 108, "channel": 0}, {"type": "note_off", "time": 57, "note": 67, "velocity": 108, "channel": 0}, {"type": "note_on", "time": 17, "note": 69, "velocity": 105, "channel": 0}, {"type": "note_off", "time": 84, "note": 69, "velocity": 105, "channel": 0}, {"type": "note_on", "time": 35, "note": 70, "velocity": 113, "channel": 0}, {"type": "note_off", "time": 57, "note": 70, "velocity": 113, "channel": 0}, {"type": "note_on", "time": 22, "note": 70, "velocity": 107, "channel": 0}, {"type": "note_off", "time": 75, "note": 70, "velocity": 107, "channel": 0}, {"type": "note_on", "time": 22, "note": 72, "velocity": 103, "channel": 0}, {"type": "note_off", "time": 92, "note": 72, "velocity": 103, "channel": 0}, {"type": "note_on", "time": 123, "note": 74, "velocity": 111, "channel": 0}, {"type": "note_off", "time": 97, "note": 74, "velocity": 111, "channel": 0}, {"type": "note_on", "time": 13, "note": 75, "velocity": 108, "channel": 0}, {"type": "note_off", "time": 79, "note": 75, "velocity": 108, "channel": 0}, {"type": "note_on", "time": 0, "note": 76, "velocity": 107, "channel": 0}, {"type": "note_off", "time": 88, "note": 76, "velocity": 107, "channel": 0}, {"type": "note_on", "time": 8, "note": 79, "velocity": 96, "channel": 0}, {"type": "note_off", "time": 88, "note": 79, "velocity": 96, "channel": 0}, {"type": "note_on", "time": 22, "note": 79, "velocity": 98, "channel": 0}, {"type": "note_off", "time": 66, "note": 79, "velocity": 98, "channel": 0}, {"type": "note_on", "time": 13, "note": 76, "velocity": 92, "channel": 0}, {"type": "note_off", "time": 57, "note": 76, "velocity": 92, "channel": 0}, {"type": "note_on", "time": 22, "note": 77, "velocity": 113, "channel": 0}, {"type": "note_off", "time": 75, "note": 77, "velocity": 113, "channel": 0}, {"type": "note_on", "time": 30, "note": 78, "velocity": 93, "channel": 0}, {"type": "note_off", "time": 61, "note": 78, "velocity": 93, "channel": 0}, {"type": "note_on", "time": 17, "note": 75, "velocity": 109, "channel": 0}, {"type": "note_off", "time": 70, "note": 75, "velocity": 109, "channel": 0}, {"type": "note_on", "time": 34, "note": 69, "velocity": 102, "channel": 0}, {"type": "note_off", "time": 57, "note": 69, "velocity": 102, "channel": 0}, {"type": "note_on", "time": 32, "note": 67, "velocity": 99, "channel": 0}, {"type": "note_off", "time": 57, "note": 67, "velocity": 99, "channel": 0}, {"type": "note_on", "time": 14, "note": 65, "velocity": 92, "channel": 0}, {"type": "note_off", "time": 64, "note": 65, "velocity": 92, "channel": 0}, {"type": "note_on", "time": 33, "note": 75, "velocity": 76, "channel": 0}, {"type": "note_off", "time": 31, "note": 75, "velocity": 76, "channel": 0}, {"type": "note_on", "time": 4, "note": 74, "velocity": 95, "channel": 0}, {"type": "note_off", "time": 37, "note": 74, "velocity": 95, "channel": 0}, {"type": "note_on", "time": 6, "note": 72, "velocity": 91, "channel": 0}, {"type": "note_off", "time": 33, "note": 72, "velocity": 91, "channel": 0}, {"type": "note_on", "time": 15, "note": 69, "velocity": 95, "channel": 0}, {"type": "note_off", "time": 40, "note": 69, "velocity": 95, "channel": 0}, {"type": "note_on", "time": 18, "note": 69, "velocity": 100, "channel": 0}, {"type": "note_off", "time": 36, "note": 69, "velocity": 100, "channel": 0}, {"type": "note_on", "time": 7, "note": 67, "velocity": 104, "channel": 0}, {"type": "note_off", "time": 56, "note": 67, "velocity": 104, "channel": 0}, {"type": "note_on", "time": 12, "note": 62, "velocity": 98, "channel": 0}, {"type": "note_off", "time": 33, "note": 62, "velocity": 98, "channel": 0}, {"type": "note_on", "time": 23, "note": 66, "velocity": 104, "channel": 0}, {"type": "note_off", "time": 53, "note": 66, "velocity": 104, "channel": 0}, {"type": "note_on", "time": 1, "note": 74, "velocity": 106, "channel": 0}, {"type": "note_off", "time": 53, "note": 74, "velocity": 106, "channel": 0}, {"type": "note_on", "time": 13, "note": 73, "velocity": 97, "channel": 0}, {"type": "note_off", "time": 57, "note": 73, "velocity": 97, "channel": 0}, {"type": "note_on", "time": 26, "note": 72, "velocity": 95, "channel": 0}, {"type": "note_off", "time": 88, "note": 72, "velocity": 95, "channel": 0}, {"type": "note_on", "time": 70, "note": 71, "velocity": 106, "channel": 0}, {"type": "note_off", "time": 79, "note": 71, "velocity": 106, "channel": 0}, {"type": "note_on", "time": 22, "note": 70, "velocity": 100, "channel": 0}, {"type": "note_off", "time": 70, "note": 70, "velocity": 100, "channel": 0}, {"type": "note_on", "time": 22, "note": 69, "velocity": 108, "channel": 0}, {"type": "note_off", "time": 66, "note": 69, "velocity": 108, "channel": 0}, {"type": "note_on", "time": 17, "note": 70, "velocity": 101, "channel": 0}, {"type": "note_off", "time": 70, "note": 70, "velocity": 101, "channel": 0}, {"type": "note_on", "time": 35, "note": 68, "velocity": 116, "channel": 0}, {"type": "note_off", "time": 53, "note": 68, "velocity": 116, "channel": 0}, {"type": "note_on", "time": 26, "note": 69, "velocity": 110, "channel": 0}, {"type": "note_off", "time": 53, "note": 69, "velocity": 110, "channel": 0}, {"type": "note_on", "time": 13, "note": 65, "velocity": 112, "channel": 0}, {"type": "note_off", "time": 79, "note": 65, "velocity": 112, "channel": 0}, {"type": "note_on", "time": 22, "note": 63, "velocity": 104, "channel": 0}, {"type": "note_off", "time": 57, "note": 63, "velocity": 104, "channel": 0}, {"type": "note_on", "time": 13, "note": 64, "velocity": 104, "channel": 0}, {"type": "note_off", "time": 61, "note": 64, "velocity": 104, "channel": 0}, {"type": "note_on", "time": 22, "note": 63, "velocity": 114, "channel": 0}, {"type": "note_off", "time": 61, "note": 63, "velocity": 114, "channel": 0}, {"type": "note_on", "time": 0, "note": 68, "velocity": 114, "channel": 0}, {"type": "note_off", "time": 39, "note": 68, "velocity": 114, "channel": 0}, {"type": "note_on", "time": 13, "note": 66, "velocity": 108, "channel": 0}, {"type": "note_off", "time": 70, "note": 66, "velocity": 108, "channel": 0}, {"type": "note_on", "time": 26, "note": 65, "velocity": 107, "channel": 0}, {"type": "note_off", "time": 79, "note": 65, "velocity": 107, "channel": 0}, {"type": "note_on", "time": 4, "note": 64, "velocity": 117, "channel": 0}, {"type": "note_off", "time": 75, "note": 64, "velocity": 117, "channel": 0}, {"type": "note_on", "time": 35, "note": 63, "velocity": 111, "channel": 0}, {"type": "note_off", "time": 84, "note": 63, "velocity": 111, "channel": 0}, {"type": "note_on", "time": 35, "note": 65, "velocity": 116, "channel": 0}, {"type": "note_off", "time": 75, "note": 65, "velocity": 116, "channel": 0}, {"type": "note_on", "time": 30, "note": 66, "velocity": 110, "channel": 0}, {"type": "note_off", "time": 66, "note": 66, "velocity": 110, "channel": 0}, {"type": "note_on", "time": 39, "note": 68, "velocity": 110, "channel": 0}, {"type": "note_on", "time": 79, "note": 70, "velocity": 108, "channel": 0}, {"type": "note_off", "time": 0, "note": 68, "velocity": 110, "channel": 0}, {"type": "note_off", "time": 84, "note": 70, "velocity": 108, "channel": 0}, {"type": "note_on", "time": 8, "note": 66, "velocity": 110, "channel": 0}, {"type": "note_off", "time": 79, "note": 66, "velocity": 110, "channel": 0}, {"type": "note_on", "time": 21, "note": 63, "velocity": 106, "channel": 0}, {"type": "note_off", "time": 35, "note": 63, "velocity": 106, "channel": 0}, {"type": "note_on", "time": 18, "note": 58, "velocity": 119, "channel": 0}, {"type": "note_off", "time": 57, "note": 58, "velocity": 119, "channel": 0}, {"type": "note_on", "time": 53, "note": 64, "velocity": 107, "channel": 0}, {"type": "note_off", "time": 48, "note": 64, "velocity": 107, "channel": 0}, {"type": "note_on", "time": 8, "note": 66, "velocity": 110, "channel": 0}, {"type": "note_off", "time": 44, "note": 66, "velocity": 110, "channel": 0}, {"type": "note_on", "time": 22, "note": 68, "velocity": 102, "channel": 0}, {"type": "note_off", "time": 61, "note": 68, "velocity": 102, "channel": 0}, {"type": "note_on", "time": 22, "note": 62, "velocity": 113, "channel": 0}, {"type": "note_off", "time": 70, "note": 62, "velocity": 113, "channel": 0}, {"type": "note_on", "time": 4, "note": 63, "velocity": 95, "channel": 0}, {"type": "note_off", "time": 57, "note": 63, "velocity": 95, "channel": 0}, {"type": "note_on", "time": 17, "note": 65, "velocity": 105, "channel": 0}, {"type": "note_off", "time": 92, "note": 65, "velocity": 105, "channel": 0}, {"type": "note_on", "time": 48, "note": 63, "velocity": 111, "channel": 0}, {"type": "note_off", "time": 48, "note": 63, "velocity": 111, "channel": 0}, {"type": "note_on", "time": 8, "note": 60, "velocity": 107, "channel": 0}, {"type": "note_off", "time": 61, "note": 60, "velocity": 107, "channel": 0}, {"type": "note_on", "time": 21, "note": 62, "velocity": 102, "channel": 0}, {"type": "note_off", "time": 44, "note": 62, "velocity": 102, "channel": 0}, {"type": "note_on", "time": 72, "note": 63, "velocity": 114, "channel": 0}, {"type": "note_off", "time": 61, "note": 63, "velocity": 114, "channel": 0}, {"type": "note_on", "time": 48, "note": 65, "velocity": 101, "channel": 0}, {"type": "note_off", "time": 110, "note": 65, "velocity": 101, "channel": 0}, {"type": "note_on", "time": 1337, "note": 58, "velocity": 105, "channel": 0}, {"type": "note_off", "time": 110, "note": 58, "velocity": 105, "channel": 0}, {"type": "note_on", "time": 0, "note": 62, "velocity": 115, "channel": 0}, {"type": "note_off", "time": 101, "note": 62, "velocity": 115, "channel": 0}, {"type": "note_on", "time": 0, "note": 61, "velocity": 114, "channel": 0}, {"type": "note_off", "time": 92, "note": 61, "velocity": 114, "channel": 0}, {"type": "note_on", "time": 8, "note": 58, "velocity": 119, "channel": 0}, {"type": "note_off", "time": 84, "note": 58, "velocity": 119, "channel": 0}, {"type": "note_on", "time": 21, "note": 55, "velocity": 118, "channel": 0}, {"type": "note_off", "time": 92, "note": 55, "velocity": 118, "channel": 0}, {"type": "note_on", "time": 32, "note": 59, "velocity": 107, "channel": 0}, {"type": "note_off", "time": 84, "note": 59, "velocity": 107, "channel": 0}, {"type": "note_on", "time": 0, "note": 58, "velocity": 112, "channel": 0}, {"type": "note_off", "time": 75, "note": 58, "velocity": 112, "channel": 0}, {"type": "note_on", "time": 0, "note": 57, "velocity": 115, "channel": 0}, {"type": "note_off", "time": 101, "note": 57, "velocity": 115, "channel": 0}, {"type": "note_on", "time": 35, "note": 58, "velocity": 105, "channel": 0}, {"type": "note_off", "time": 70, "note": 58, "velocity": 105, "channel": 0}, {"type": "note_on", "time": 26, "note": 63, "velocity": 108, "channel": 0}, {"type": "note_off", "time": 79, "note": 63, "velocity": 108, "channel": 0}, {"type": "note_on", "time": 30, "note": 66, "velocity": 104, "channel": 0}, {"type": "note_off", "time": 66, "note": 66, "velocity": 104, "channel": 0}, {"type": "note_on", "time": 17, "note": 69, "velocity": 111, "channel": 0}, {"type": "note_off", "time": 66, "note": 69, "velocity": 111, "channel": 0}, {"type": "note_on", "time": 26, "note": 65, "velocity": 111, "channel": 0}, {"type": "note_off", "time": 61, "note": 65, "velocity": 111, "channel": 0}, {"type": "note_on", "time": 17, "note": 63, "velocity": 107, "channel": 0}, {"type": "note_off", "time": 66, "note": 63, "velocity": 107, "channel": 0}, {"type": "note_on", "time": 26, "note": 59, "velocity": 114, "channel": 0}, {"type": "note_off", "time": 61, "note": 59, "velocity": 114, "channel": 0}, {"type": "note_on", "time": 17, "note": 67, "velocity": 111, "channel": 0}, {"type": "note_off", "time": 79, "note": 67, "velocity": 111, "channel": 0}, {"type": "note_on", "time": 35, "note": 63, "velocity": 109, "channel": 0}, {"type": "note_off", "time": 66, "note": 63, "velocity": 109, "channel": 0}, {"type": "note_on", "time": 4, "note": 61, "velocity": 110, "channel": 0}, {"type": "note_off", "time": 61, "note": 61, "velocity": 110, "channel": 0}, {"type": "note_on", "time": 30, "note": 59, "velocity": 100, "channel": 0}, {"type": "note_off", "time": 53, "note": 59, "velocity": 100, "channel": 0}, {"type": "note_on", "time": 39, "note": 82, "velocity": 102, "channel": 0}, {"type": "note_off", "time": 75, "note": 82, "velocity": 102, "channel": 0}, {"type": "note_on", "time": 35, "note": 79, "velocity": 110, "channel": 0}, {"type": "note_off", "time": 53, "note": 79, "velocity": 110, "channel": 0}, {"type": "note_on", "time": 22, "note": 78, "velocity": 109, "channel": 0}, {"type": "note_off", "time": 70, "note": 78, "velocity": 109, "channel": 0}, {"type": "note_on", "time": 22, "note": 77, "velocity": 110, "channel": 0}, {"type": "note_off", "time": 66, "note": 77, "velocity": 110, "channel": 0}, {"type": "note_on", "time": 17, "note": 76, "velocity": 116, "channel": 0}, {"type": "note_off", "time": 84, "note": 76, "velocity": 116, "channel": 0}, {"type": "note_on", "time": 17, "note": 73, "velocity": 110, "channel": 0}, {"type": "note_off", "time": 53, "note": 73, "velocity": 110, "channel": 0}, {"type": "note_on", "time": 15, "note": 74, "velocity": 117, "channel": 0}, {"type": "note_off", "time": 42, "note": 74, "velocity": 117, "channel": 0}, {"type": "note_on", "time": 1, "note": 76, "velocity": 108, "channel": 0}, {"type": "note_off", "time": 42, "note": 76, "velocity": 108, "channel": 0}, {"type": "note_on", "time": 8, "note": 76, "velocity": 109, "channel": 0}, {"type": "note_off", "time": 57, "note": 76, "velocity": 109, "channel": 0}, {"type": "note_on", "time": 26, "note": 74, "velocity": 110, "channel": 0}, {"type": "note_off", "time": 44, "note": 74, "velocity": 110, "channel": 0}, {"type": "note_on", "time": 39, "note": 73, "velocity": 104, "channel": 0}, {"type": "note_off", "time": 70, "note": 73, "velocity": 104, "channel": 0}, {"type": "note_on", "time": 26, "note": 71, "velocity": 107, "channel": 0}, {"type": "note_off", "time": 92, "note": 71, "velocity": 107, "channel": 0}, {"type": "note_on", "time": 22, "note": 69, "velocity": 109, "channel": 0}, {"type": "note_off", "time": 75, "note": 69, "velocity": 109, "channel": 0}, {"type": "note_on", "time": 4, "note": 70, "velocity": 106, "channel": 0}, {"type": "note_off", "time": 79, "note": 70, "velocity": 106, "channel": 0}, {"type": "note_on", "time": 17, "note": 68, "velocity": 109, "channel": 0}, {"type": "note_off", "time": 88, "note": 68, "velocity": 109, "channel": 0}, {"type": "note_on", "time": 4, "note": 66, "velocity": 116, "channel": 0}, {"type": "note_off", "time": 75, "note": 66, "velocity": 116, "channel": 0}, {"type": "note_on", "time": 35, "note": 65, "velocity": 116, "channel": 0}, {"type": "note_off", "time": 70, "note": 65, "velocity": 116, "channel": 0}, {"type": "note_on", "time": 39, "note": 61, "velocity": 114, "channel": 0}, {"type": "note_off", "time": 75, "note": 61, "velocity": 114, "channel": 0}, {"type": "note_on", "time": 35, "note": 64, "velocity": 108, "channel": 0}, {"type": "note_off", "time": 75, "note": 64, "velocity": 108, "channel": 0}, {"type": "note_on", "time": 26, "note": 64, "velocity": 102, "channel": 0}, {"type": "note_off", "time": 62, "note": 64, "velocity": 102, "channel": 0}, {"type": "note_on", "time": 7, "note": 68, "velocity": 107, "channel": 0}, {"type": "note_off", "time": 66, "note": 68, "velocity": 107, "channel": 0}, {"type": "note_on", "time": 15, "note": 68, "velocity": 102, "channel": 0}, {"type": "note_off", "time": 50, "note": 68, "velocity": 102, "channel": 0}, {"type": "note_on", "time": 0, "note": 75, "velocity": 103, "channel": 0}, {"type": "note_off", "time": 79, "note": 75, "velocity": 103, "channel": 0}, {"type": "note_on", "time": 4, "note": 73, "velocity": 94, "channel": 0}, {"type": "note_off", "time": 61, "note": 73, "velocity": 94, "channel": 0}, {"type": "note_on", "time": 44, "note": 71, "velocity": 103, "channel": 0}, {"type": "note_on", "time": 57, "note": 69, "velocity": 110, "channel": 0}, {"type": "note_off", "time": 0, "note": 71, "velocity": 103, "channel": 0}, {"type": "note_off", "time": 88, "note": 69, "velocity": 110, "channel": 0}, {"type": "note_on", "time": 0, "note": 70, "velocity": 110, "channel": 0}, {"type": "note_off", "time": 97, "note": 70, "velocity": 110, "channel": 0}, {"type": "note_on", "time": 22, "note": 68, "velocity": 103, "channel": 0}, {"type": "note_off", "time": 84, "note": 68, "velocity": 103, "channel": 0}, {"type": "note_on", "time": 4, "note": 66, "velocity": 113, "channel": 0}, {"type": "note_off", "time": 75, "note": 66, "velocity": 113, "channel": 0}, {"type": "note_on", "time": 17, "note": 64, "velocity": 116, "channel": 0}, {"type": "note_off", "time": 79, "note": 64, "velocity": 116, "channel": 0}, {"type": "note_on", "time": 13, "note": 63, "velocity": 121, "channel": 0}, {"type": "note_off", "time": 92, "note": 63, "velocity": 121, "channel": 0}, {"type": "note_on", "time": 8, "note": 61, "velocity": 117, "channel": 0}, {"type": "note_off", "time": 75, "note": 61, "velocity": 117, "channel": 0}, {"type": "note_on", "time": 17, "note": 58, "velocity": 127, "channel": 0}, {"type": "note_off", "time": 44, "note": 58, "velocity": 127, "channel": 0}, {"type": "note_on", "time": 4, "note": 59, "velocity": 118, "channel": 0}, {"type": "note_off", "time": 92, "note": 59, "velocity": 118, "channel": 0}, {"type": "note_on", "time": 7, "note": 60, "velocity": 119, "channel": 0}, {"type": "note_off", "time": 55, "note": 60, "velocity": 119, "channel": 0}, {"type": "note_on", "time": 20, "note": 61, "velocity": 108, "channel": 0}, {"type": "note_off", "time": 99, "note": 61, "velocity": 108, "channel": 0}, {"type": "note_on", "time": 9, "note": 58, "velocity": 105, "channel": 0}, {"type": "note_off", "time": 53, "note": 58, "velocity": 105, "channel": 0}, {"type": "note_on", "time": 17, "note": 60, "velocity": 104, "channel": 0}, {"type": "note_off", "time": 48, "note": 60, "velocity": 104, "channel": 0}, {"type": "note_on", "time": 34, "note": 61, "velocity": 113, "channel": 0}, {"type": "note_off", "time": 48, "note": 61, "velocity": 113, "channel": 0}, {"type": "note_on", "time": 45, "note": 64, "velocity": 99, "channel": 0}, {"type": "note_off", "time": 61, "note": 64, "velocity": 99, "channel": 0}, {"type": "note_on", "time": 62, "note": 67, "velocity": 97, "channel": 0}, {"type": "note_off", "time": 56, "note": 67, "velocity": 97, "channel": 0}, {"type": "note_on", "time": 0, "note": 70, "velocity": 101, "channel": 0}, {"type": "note_off", "time": 66, "note": 70, "velocity": 101, "channel": 0}, {"type": "note_on", "time": 18, "note": 71, "velocity": 94, "channel": 0}, {"type": "note_off", "time": 66, "note": 71, "velocity": 94, "channel": 0}, {"type": "note_on", "time": 18, "note": 66, "velocity": 103, "channel": 0}, {"type": "note_off", "time": 69, "note": 66, "velocity": 103, "channel": 0}, {"type": "note_on", "time": 34, "note": 63, "velocity": 100, "channel": 0}, {"type": "note_off", "time": 72, "note": 63, "velocity": 100, "channel": 0}, {"type": "note_on", "time": 37, "note": 67, "velocity": 112, "channel": 0}, {"type": "note_off", "time": 69, "note": 67, "velocity": 112, "channel": 0}, {"type": "note_on", "time": 3, "note": 68, "velocity": 110, "channel": 0}, {"type": "note_off", "time": 44, "note": 68, "velocity": 110, "channel": 0}, {"type": "note_on", "time": 28, "note": 64, "velocity": 108, "channel": 0}, {"type": "note_off", "time": 94, "note": 64, "velocity": 108, "channel": 0}, {"type": "note_on", "time": 23, "note": 61, "velocity": 105, "channel": 0}, {"type": "note_off", "time": 53, "note": 61, "velocity": 105, "channel": 0}, {"type": "note_on", "time": 64, "note": 63, "velocity": 110, "channel": 0}, {"type": "note_off", "time": 59, "note": 63, "velocity": 110, "channel": 0}, {"type": "note_on", "time": 28, "note": 62, "velocity": 120, "channel": 0}, {"type": "note_off", "time": 56, "note": 62, "velocity": 120, "channel": 0}, {"type": "note_on", "time": 3, "note": 60, "velocity": 115, "channel": 0}, {"type": "note_off", "time": 78, "note": 60, "velocity": 115, "channel": 0}, {"type": "note_on", "time": 3, "note": 62, "velocity": 104, "channel": 0}, {"type": "note_off", "time": 40, "note": 62, "velocity": 104, "channel": 0}, {"type": "note_on", "time": 0, "note": 63, "velocity": 110, "channel": 0}, {"type": "note_off", "time": 72, "note": 63, "velocity": 110, "channel": 0}, {"type": "note_on", "time": 15, "note": 66, "velocity": 113, "channel": 0}, {"type": "note_off", "time": 81, "note": 66, "velocity": 113, "channel": 0}, {"type": "note_on", "time": 3, "note": 69, "velocity": 114, "channel": 0}, {"type": "note_off", "time": 88, "note": 69, "velocity": 114, "channel": 0}, {"type": "note_on", "time": 18, "note": 66, "velocity": 116, "channel": 0}, {"type": "note_off", "time": 78, "note": 66, "velocity": 116, "channel": 0}, {"type": "note_on", "time": 31, "note": 67, "velocity": 97, "channel": 0}, {"type": "note_off", "time": 50, "note": 67, "velocity": 97, "channel": 0}, {"type": "note_on", "time": 31, "note": 68, "velocity": 123, "channel": 0}, {"type": "note_off", "time": 72, "note": 68, "velocity": 123, "channel": 0}, {"type": "note_on", "time": 15, "note": 67, "velocity": 115, "channel": 0}, {"type": "note_off", "time": 85, "note": 67, "velocity": 115, "channel": 0}, {"type": "note_on", "time": 9, "note": 66, "velocity": 111, "channel": 0}, {"type": "note_off", "time": 94, "note": 66, "velocity": 111, "channel": 0}, {"type": "note_on", "time": 18, "note": 65, "velocity": 119, "channel": 0}, {"type": "note_off", "time": 85, "note": 65, "velocity": 119, "channel": 0}, {"type": "note_on", "time": 15, "note": 64, "velocity": 119, "channel": 0}, {"type": "note_off", "time": 81, "note": 64, "velocity": 119, "channel": 0}, {"type": "note_on", "time": 9, "note": 61, "velocity": 121, "channel": 0}, {"type": "note_off", "time": 62, "note": 61, "velocity": 121, "channel": 0}, {"type": "note_on", "time": 0, "note": 59, "velocity": 117, "channel": 0}, {"type": "note_off", "time": 37, "note": 59, "velocity": 117, "channel": 0}, {"type": "note_on", "time": 3, "note": 56, "velocity": 119, "channel": 0}, {"type": "note_off", "time": 88, "note": 56, "velocity": 119, "channel": 0}, {"type": "note_on", "time": 15, "note": 58, "velocity": 115, "channel": 0}, {"type": "note_off", "time": 59, "note": 58, "velocity": 115, "channel": 0}, {"type": "note_on", "time": 18, "note": 59, "velocity": 118, "channel": 0}, {"type": "note_off", "time": 116, "note": 59, "velocity": 118, "channel": 0}, {"type": "note_on", "time": 3, "note": 56, "velocity": 114, "channel": 0}, {"type": "note_off", "time": 69, "note": 56, "velocity": 114, "channel": 0}, {"type": "note_on", "time": 12, "note": 57, "velocity": 120, "channel": 0}, {"type": "note_off", "time": 88, "note": 57, "velocity": 120, "channel": 0}, {"type": "note_on", "time": 18, "note": 59, "velocity": 108, "channel": 0}, {"type": "note_off", "time": 59, "note": 59, "velocity": 108, "channel": 0}, {"type": "note_on", "time": 18, "note": 61, "velocity": 104, "channel": 0}, {"type": "note_off", "time": 75, "note": 61, "velocity": 104, "channel": 0}, {"type": "note_on", "time": 22, "note": 62, "velocity": 110, "channel": 0}, {"type": "note_off", "time": 66, "note": 62, "velocity": 110, "channel": 0}, {"type": "note_on", "time": 3, "note": 64, "velocity": 117, "channel": 0}, {"type": "note_on", "time": 91, "note": 61, "velocity": 114, "channel": 0}, {"type": "note_off", "time": 0, "note": 64, "velocity": 117, "channel": 0}, {"type": "note_off", "time": 72, "note": 61, "velocity": 114, "channel": 0}, {"type": "note_on", "time": 6, "note": 60, "velocity": 120, "channel": 0}, {"type": "note_off", "time": 69, "note": 60, "velocity": 120, "channel": 0}, {"type": "note_on", "time": 18, "note": 57, "velocity": 120, "channel": 0}, {"type": "note_off", "time": 97, "note": 57, "velocity": 120, "channel": 0}, {"type": "note_on", "time": 28, "note": 58, "velocity": 122, "channel": 0}, {"type": "note_off", "time": 50, "note": 58, "velocity": 122, "channel": 0}, {"type": "note_on", "time": 22, "note": 54, "velocity": 117, "channel": 0}, {"type": "note_off", "time": 50, "note": 54, "velocity": 117, "channel": 0}, {"type": "note_on", "time": 28, "note": 53, "velocity": 108, "channel": 0}, {"type": "note_on", "time": 110, "note": 56, "velocity": 116, "channel": 0}, {"type": "note_off", "time": 0, "note": 53, "velocity": 108, "channel": 0}, {"type": "note_off", "time": 91, "note": 56, "velocity": 116, "channel": 0}, {"type": "note_on", "time": 25, "note": 59, "velocity": 116, "channel": 0}, {"type": "note_off", "time": 103, "note": 59, "velocity": 116, "channel": 0}, {"type": "note_on", "time": 15, "note": 57, "velocity": 110, "channel": 0}, {"type": "note_off", "time": 97, "note": 57, "velocity": 110, "channel": 0}, {"type": "note_on", "time": 9, "note": 56, "velocity": 112, "channel": 0}, {"type": "note_off", "time": 50, "note": 56, "velocity": 112, "channel": 0}, {"type": "note_on", "time": 28, "note": 58, "velocity": 119, "channel": 0}, {"type": "note_off", "time": 59, "note": 58, "velocity": 119, "channel": 0}, {"type": "note_on", "time": 34, "note": 64, "velocity": 116, "channel": 0}, {"type": "note_off", "time": 94, "note": 64, "velocity": 116, "channel": 0}, {"type": "note_on", "time": 6, "note": 60, "velocity": 109, "channel": 0}, {"type": "note_off", "time": 81, "note": 60, "velocity": 109, "channel": 0}, {"type": "note_on", "time": 25, "note": 55, "velocity": 102, "channel": 0}, {"type": "note_off", "time": 59, "note": 55, "velocity": 102, "channel": 0}, {"type": "note_on", "time": 88, "note": 63, "velocity": 88, "channel": 0}, {"type": "note_off", "time": 28, "note": 63, "velocity": 88, "channel": 0}, {"type": "note_on", "time": 18, "note": 62, "velocity": 113, "channel": 0}, {"type": "note_off", "time": 40, "note": 62, "velocity": 113, "channel": 0}, {"type": "note_on", "time": 12, "note": 61, "velocity": 103, "channel": 0}, {"type": "note_off", "time": 78, "note": 61, "velocity": 103, "channel": 0}, {"type": "note_on", "time": 22, "note": 60, "velocity": 103, "channel": 0}, {"type": "note_off", "time": 103, "note": 60, "velocity": 103, "channel": 0}, {"type": "note_on", "time": 223, "note": 61, "velocity": 115, "channel": 0}, {"type": "note_off", "time": 129, "note": 61, "velocity": 115, "channel": 0}, {"type": "note_on", "time": 37, "note": 65, "velocity": 111, "channel": 0}, {"type": "note_off", "time": 97, "note": 65, "velocity": 111, "channel": 0}, {"type": "note_on", "time": 15, "note": 67, "velocity": 108, "channel": 0}, {"type": "note_off", "time": 113, "note": 67, "velocity": 108, "channel": 0}, {"type": "note_on", "time": 9, "note": 64, "velocity": 102, "channel": 0}, {"type": "note_off", "time": 81, "note": 64, "velocity": 102, "channel": 0}, {"type": "note_on", "time": 22, "note": 65, "velocity": 103, "channel": 0}, {"type": "note_off", "time": 78, "note": 65, "velocity": 103, "channel": 0}, {"type": "note_on", "time": 12, "note": 66, "velocity": 107, "channel": 0}, {"type": "note_off", "time": 88, "note": 66, "velocity": 107, "channel": 0}, {"type": "note_on", "time": 15, "note": 69, "velocity": 110, "channel": 0}, {"type": "note_off", "time": 66, "note": 69, "velocity": 110, "channel": 0}, {"type": "note_on", "time": 31, "note": 69, "velocity": 104, "channel": 0}, {"type": "note_off", "time": 81, "note": 69, "velocity": 104, "channel": 0}, {"type": "note_on", "time": 3, "note": 71, "velocity": 104, "channel": 0}, {"type": "note_off", "time": 66, "note": 71, "velocity": 104, "channel": 0}, {"type": "note_on", "time": 25, "note": 76, "velocity": 107, "channel": 0}, {"type": "note_off", "time": 94, "note": 76, "velocity": 107, "channel": 0}, {"type": "note_on", "time": 9, "note": 74, "velocity": 107, "channel": 0}, {"type": "note_off", "time": 62, "note": 74, "velocity": 107, "channel": 0}, {"type": "note_on", "time": 12, "note": 76, "velocity": 100, "channel": 0}, {"type": "note_off", "time": 107, "note": 76, "velocity": 100, "channel": 0}, {"type": "note_on", "time": 0, "note": 74, "velocity": 110, "channel": 0}, {"type": "note_off", "time": 72, "note": 74, "velocity": 110, "channel": 0}, {"type": "note_on", "time": 9, "note": 73, "velocity": 102, "channel": 0}, {"type": "note_off", "time": 56, "note": 73, "velocity": 102, "channel": 0}, {"type": "note_on", "time": 3, "note": 76, "velocity": 108, "channel": 0}, {"type": "note_off", "time": 53, "note": 76, "velocity": 108, "channel": 0}, {"type": "note_on", "time": 22, "note": 74, "velocity": 111, "channel": 0}, {"type": "note_off", "time": 81, "note": 74, "velocity": 111, "channel": 0}, {"type": "note_on", "time": 0, "note": 72, "velocity": 112, "channel": 0}, {"type": "note_off", "time": 91, "note": 72, "velocity": 112, "channel": 0}, {"type": "note_on", "time": 22, "note": 71, "velocity": 113, "channel": 0}, {"type": "note_off", "time": 94, "note": 71, "velocity": 113, "channel": 0}, {"type": "note_on", "time": 9, "note": 74, "velocity": 112, "channel": 0}, {"type": "note_on", "time": 72, "note": 72, "velocity": 109, "channel": 0}, {"type": "note_off", "time": 0, "note": 74, "velocity": 112, "channel": 0}, {"type": "note_off", "time": 97, "note": 72, "velocity": 109, "channel": 0}, {"type": "note_on", "time": 6, "note": 71, "velocity": 111, "channel": 0}, {"type": "note_off", "time": 100, "note": 71, "velocity": 111, "channel": 0}, {"type": "note_on", "time": 6, "note": 69, "velocity": 118, "channel": 0}, {"type": "note_off", "time": 72, "note": 69, "velocity": 118, "channel": 0}, {"type": "note_on", "time": 15, "note": 70, "velocity": 111, "channel": 0}, {"type": "note_off", "time": 66, "note": 70, "velocity": 111, "channel": 0}, {"type": "note_on", "time": 22, "note": 63, "velocity": 117, "channel": 0}, {"type": "note_off", "time": 85, "note": 63, "velocity": 117, "channel": 0}, {"type": "note_on", "time": 15, "note": 65, "velocity": 116, "channel": 0}, {"type": "note_off", "time": 62, "note": 65, "velocity": 116, "channel": 0}, {"type": "note_on", "time": 9, "note": 64, "velocity": 118, "channel": 0}, {"type": "note_off", "time": 100, "note": 64, "velocity": 118, "channel": 0}, {"type": "note_on", "time": 15, "note": 67, "velocity": 114, "channel": 0}, {"type": "note_off", "time": 147, "note": 67, "velocity": 114, "channel": 0}, {"type": "note_on", "time": 1300, "note": 81, "velocity": 105, "channel": 0}, {"type": "note_off", "time": 81, "note": 81, "velocity": 105, "channel": 0}, {"type": "note_on", "time": 25, "note": 79, "velocity": 107, "channel": 0}, {"type": "note_off", "time": 81, "note": 79, "velocity": 107, "channel": 0}, {"type": "note_on", "time": 0, "note": 77, "velocity": 114, "channel": 0}, {"type": "note_off", "time": 69, "note": 77, "velocity": 114, "channel": 0}, {"type": "note_on", "time": 12, "note": 76, "velocity": 118, "channel": 0}, {"type": "note_off", "time": 75, "note": 76, "velocity": 118, "channel": 0}, {"type": "note_on", "time": 25, "note": 75, "velocity": 116, "channel": 0}, {"type": "note_off", "time": 88, "note": 75, "velocity": 116, "channel": 0}, {"type": "note_on", "time": 25, "note": 73, "velocity": 84, "channel": 0}, {"type": "note_off", "time": 62, "note": 73, "velocity": 84, "channel": 0}, {"type": "note_on", "time": 6, "note": 71, "velocity": 106, "channel": 0}, {"type": "note_off", "time": 75, "note": 71, "velocity": 106, "channel": 0}, {"type": "note_on", "time": 62, "note": 69, "velocity": 113, "channel": 0}, {"type": "note_off", "time": 56, "note": 69, "velocity": 113, "channel": 0}, {"type": "note_on", "time": 25, "note": 70, "velocity": 115, "channel": 0}, {"type": "note_off", "time": 31, "note": 70, "velocity": 115, "channel": 0}, {"type": "note_on", "time": 0, "note": 68, "velocity": 113, "channel": 0}, {"type": "note_off", "time": 75, "note": 68, "velocity": 113, "channel": 0}, {"type": "note_on", "time": 40, "note": 65, "velocity": 123, "channel": 0}, {"type": "note_off", "time": 62, "note": 65, "velocity": 123, "channel": 0}, {"type": "note_on", "time": 9, "note": 66, "velocity": 108, "channel": 0}, {"type": "note_off", "time": 62, "note": 66, "velocity": 108, "channel": 0}, {"type": "note_on", "time": 44, "note": 67, "velocity": 116, "channel": 0}, {"type": "note_off", "time": 69, "note": 67, "velocity": 116, "channel": 0}, {"type": "note_on", "time": 0, "note": 65, "velocity": 116, "channel": 0}, {"type": "note_off", "time": 81, "note": 65, "velocity": 116, "channel": 0}, {"type": "note_on", "time": 6, "note": 64, "velocity": 117, "channel": 0}, {"type": "note_on", "time": 107, "note": 63, "velocity": 111, "channel": 0}, {"type": "note_off", "time": 0, "note": 64, "velocity": 117, "channel": 0}, {"type": "note_off", "time": 107, "note": 63, "velocity": 111, "channel": 0}, {"type": "note_on", "time": 12, "note": 64, "velocity": 112, "channel": 0}, {"type": "note_off", "time": 81, "note": 64, "velocity": 112, "channel": 0}, {"type": "note_on", "time": 0, "note": 65, "velocity": 111, "channel": 0}, {"type": "note_off", "time": 119, "note": 65, "velocity": 111, "channel": 0}, {"type": "note_on", "time": 0, "note": 67, "velocity": 104, "channel": 0}, {"type": "note_off", "time": 81, "note": 67, "velocity": 104, "channel": 0}, {"type": "note_on", "time": 37, "note": 69, "velocity": 109, "channel": 0}, {"type": "note_off", "time": 62, "note": 69, "velocity": 109, "channel": 0}, {"type": "note_on", "time": 12, "note": 70, "velocity": 92, "channel": 0}, {"type": "note_off", "time": 81, "note": 70, "velocity": 92, "channel": 0}, {"type": "note_on", "time": 78, "note": 72, "velocity": 92, "channel": 0}, {"type": "note_off", "time": 106, "note": 72, "velocity": 92, "channel": 0}, {"type": "note_on", "time": 66, "note": 74, "velocity": 114, "channel": 0}, {"type": "note_off", "time": 221, "note": 74, "velocity": 114, "channel": 0}, {"type": "note_on", "time": 30, "note": 75, "velocity": 111, "channel": 0}, {"type": "note_off", "time": 154, "note": 75, "velocity": 111, "channel": 0}, {"type": "note_on", "time": 4, "note": 76, "velocity": 115, "channel": 0}, {"type": "note_off", "time": 181, "note": 76, "velocity": 115, "channel": 0}, {"type": "note_on", "time": 4, "note": 77, "velocity": 108, "channel": 0}, {"type": "note_off", "time": 92, "note": 77, "velocity": 108, "channel": 0}, {"type": "note_on", "time": 314, "note": 76, "velocity": 114, "channel": 0}, {"type": "note_off", "time": 181, "note": 76, "velocity": 114, "channel": 0}, {"type": "note_on", "time": 26, "note": 77, "velocity": 110, "channel": 0}, {"type": "note_off", "time": 75, "note": 77, "velocity": 110, "channel": 0}, {"type": "note_on", "time": 53, "note": 76, "velocity": 110, "channel": 0}, {"type": "note_off", "time": 199, "note": 76, "velocity": 110, "channel": 0}, {"type": "note_on", "time": 17, "note": 77, "velocity": 103, "channel": 0}, {"type": "note_off", "time": 115, "note": 77, "velocity": 103, "channel": 0}, {"type": "note_on", "time": 243, "note": 76, "velocity": 111, "channel": 0}, {"type": "note_off", "time": 172, "note": 76, "velocity": 111, "channel": 0}, {"type": "note_on", "time": 13, "note": 77, "velocity": 108, "channel": 0}, {"type": "note_off", "time": 132, "note": 77, "velocity": 108, "channel": 0}, {"type": "note_on", "time": 88, "note": 76, "velocity": 110, "channel": 0}, {"type": "note_off", "time": 194, "note": 76, "velocity": 110, "channel": 0}, {"type": "note_on", "time": 0, "note": 77, "velocity": 105, "channel": 0}, {"type": "note_off", "time": 101, "note": 77, "velocity": 105, "channel": 0}, {"type": "note_on", "time": 283, "note": 77, "velocity": 110, "channel": 0}, {"type": "note_off", "time": 212, "note": 77, "velocity": 110, "channel": 0}, {"type": "note_on", "time": 0, "note": 78, "velocity": 100, "channel": 0}, {"type": "note_off", "time": 115, "note": 78, "velocity": 100, "channel": 0}, {"type": "note_on", "time": 35, "note": 77, "velocity": 108, "channel": 0}, {"type": "note_off", "time": 212, "note": 77, "velocity": 108, "channel": 0}, {"type": "note_on", "time": 26, "note": 78, "velocity": 94, "channel": 0}, {"type": "note_off", "time": 88, "note": 78, "velocity": 94, "channel": 0}, {"type": "note_on", "time": 332, "note": 77, "velocity": 110, "channel": 0}, {"type": "note_off", "time": 141, "note": 77, "velocity": 110, "channel": 0}, {"type": "note_on", "time": 22, "note": 78, "velocity": 93, "channel": 0}, {"type": "note_off", "time": 97, "note": 78, "velocity": 93, "channel": 0}, {"type": "note_on", "time": 48, "note": 77, "velocity": 112, "channel": 0}, {"type": "note_off", "time": 199, "note": 77, "velocity": 112, "channel": 0}, {"type": "note_on", "time": 4, "note": 78, "velocity": 97, "channel": 0}, {"type": "note_off", "time": 115, "note": 78, "velocity": 97, "channel": 0}, {"type": "note_on", "time": 232, "note": 78, "velocity": 97, "channel": 0}, {"type": "note_off", "time": 203, "note": 78, "velocity": 97, "channel": 0}, {"type": "note_on", "time": 18, "note": 79, "velocity": 89, "channel": 0}, {"type": "note_off", "time": 92, "note": 79, "velocity": 89, "channel": 0}, {"type": "note_on", "time": 91, "note": 78, "velocity": 103, "channel": 0}, {"type": "note_off", "time": 190, "note": 78, "velocity": 103, "channel": 0}, {"type": "note_on", "time": 11, "note": 79, "velocity": 95, "channel": 0}, {"type": "note_off", "time": 97, "note": 79, "velocity": 95, "channel": 0}, {"type": "note_on", "time": 280, "note": 81, "velocity": 92, "channel": 0}, {"type": "note_off", "time": 141, "note": 81, "velocity": 92, "channel": 0}, {"type": "note_on", "time": 35, "note": 79, "velocity": 90, "channel": 0}, {"type": "note_off", "time": 146, "note": 79, "velocity": 90, "channel": 0}, {"type": "note_on", "time": 66, "note": 79, "velocity": 102, "channel": 0}, {"type": "note_off", "time": 150, "note": 79, "velocity": 102, "channel": 0}, {"type": "note_on", "time": 17, "note": 80, "velocity": 86, "channel": 0}, {"type": "note_off", "time": 75, "note": 80, "velocity": 86, "channel": 0}, {"type": "note_on", "time": 327, "note": 82, "velocity": 93, "channel": 0}, {"type": "note_off", "time": 163, "note": 82, "velocity": 93, "channel": 0}, {"type": "note_on", "time": 30, "note": 81, "velocity": 93, "channel": 0}, {"type": "note_off", "time": 92, "note": 81, "velocity": 93, "channel": 0}, {"type": "note_on", "time": 101, "note": 80, "velocity": 90, "channel": 0}, {"type": "note_off", "time": 177, "note": 80, "velocity": 90, "channel": 0}, {"type": "note_on", "time": 13, "note": 81, "velocity": 94, "channel": 0}, {"type": "note_off", "time": 106, "note": 81, "velocity": 94, "channel": 0}, {"type": "note_on", "time": 283, "note": 80, "velocity": 95, "channel": 0}, {"type": "note_off", "time": 146, "note": 80, "velocity": 95, "channel": 0}, {"type": "note_on", "time": 17, "note": 81, "velocity": 83, "channel": 0}, {"type": "note_off", "time": 97, "note": 81, "velocity": 83, "channel": 0}, {"type": "note_on", "time": 119, "note": 80, "velocity": 91, "channel": 0}, {"type": "note_off", "time": 159, "note": 80, "velocity": 91, "channel": 0}, {"type": "note_on", "time": 13, "note": 81, "velocity": 107, "channel": 0}, {"type": "note_off", "time": 88, "note": 81, "velocity": 107, "channel": 0}, {"type": "note_on", "time": 357, "note": 74, "velocity": 89, "channel": 0}, {"type": "note_off", "time": 108, "note": 74, "velocity": 89, "channel": 0}, {"type": "note_on", "time": 65, "note": 83, "velocity": 102, "channel": 0}, {"type": "note_off", "time": 101, "note": 83, "velocity": 102, "channel": 0}, {"type": "note_on", "time": 13, "note": 84, "velocity": 90, "channel": 0}, {"type": "note_off", "time": 491, "note": 84, "velocity": 90, "channel": 0}, {"type": "note_on", "time": 141, "note": 82, "velocity": 109, "channel": 0}, {"type": "note_off", "time": 159, "note": 82, "velocity": 109, "channel": 0}, {"type": "end_of_track", "time": 0}]]}