{"ticks_per_beat": 192, "tracks": [[{"type": "track_name", "name": "Melody", "time": 0}, {"type": "set_tempo", "tempo": 304568, "time": 0}, {"type": "key_signature", "key": "C", "time": 0}, {"type": "time_signature", "numerator": 4, "denominator": 4, "clocks_per_click": 24, "notated_32nd_notes_per_beat": 8, "time": 0}, {"type": "note_on", "time": 1714, "note": 58, "velocity": 119, "channel": 0}, {"type": "note_off", "time": 226, "note": 58, "velocity": 119, "channel": 0}, {"type": "note_on", "time": 5, "note": 57, "velocity": 112, "channel": 0}, {"type": "note_off", "time": 37, "note": 57, "velocity": 112, "channel": 0}, {"type": "note_on", "time": 13, "note": 55, "velocity": 100, "channel": 0}, {"type": "note_off", "time": 24, "note": 55, "velocity": 100, "channel": 0}, {"type": "note_on", "time": 5, "note": 54, "velocity": 105, "channel": 0}, {"type": "note_off", "time": 21, "note": 54, "velocity": 105, "channel": 0}, {"type": "note_on", "time": 13, "note": 53, "velocity": 109, "channel": 0}, {"type": "note_off", "time": 34, "note": 53, "velocity": 109, "channel": 0}, {"type": "note_on", "time": 5, "note": 52, "velocity": 110, "channel": 0}, {"type": "note_off", "time": 560, "note": 52, "velocity": 110, "channel": 0}, {"type": "note_on", "time": 7, "note": 54, "velocity": 114, "channel": 0}, {"type": "note_off", "time": 114, "note": 54, "velocity": 114, "channel": 0}, {"type": "note_on", "time": 10, "note": 55, "velocity": 116, "channel": 0}, {"type": "note_off", "time": 102, "note": 55, "velocity": 116, "channel": 0}, {"type": "note_on", "time": 1246, "note": 58, "velocity": 114, "channel": 0}, {"type": "note_off", "time": 64, "note": 58, "velocity": 114, "channel": 0}, {"type": "note_on", "time": 196, "note": 58, "velocity": 117, "channel": 0}, {"type": "note_off", "time": 183, "note": 58, "velocity": 117, "channel": 0}, {"type": "note_on", "time": 8, "note": 60, "velocity": 113, "channel": 0}, {"type": "note_off", "time": 105, "note": 60, "velocity": 113, "channel": 0}, {"type": "note_on", "time": 36, "note": 58, "velocity": 102, "channel": 0}, {"type": "note_off", "time": 43, "note": 58, "velocity": 102, "channel": 0}, {"type": "note_on", "time": 13, "note": 61, "velocity": 114, "channel": 0}, {"type": "note_off", "time": 171, "note": 61, "velocity": 114, "channel": 0}, {"type": "note_on", "time": 10, "note": 63, "velocity": 113, "channel": 0}, {"type": "note_off", "time": 118, "note": 63, "velocity": 113, "channel": 0}, {"type": "note_on", "time": 34, "note": 63, "velocity": 91, "channel": 0}, {"type": "note_off", "time": 30, "note": 63, "velocity": 91, "channel": 0}, {"type": "note_on", "time": 5, "note": 64, "velocity": 109, "channel": 0}, {"type": "note_off", "time": 362, "note": 64, "velocity": 109, "channel": 0}, {"type": "note_on", "time": 17, "note": 65, "velocity": 96, "channel": 0}, {"type": "note_off", "time": 20, "note": 65, "velocity": 96, "channel": 0}, {"type": "note_on", "time": 4, "note": 66, "velocity": 114, "channel": 0}, {"type": "note_off", "time": 118, "note": 66, "velocity": 114, "channel": 0}, {"type": "note_on", "time": 25, "note": 63, "velocity": 100, "channel": 0}, {"type": "note_off", "time": 33, "note": 63, "velocity": 100, "channel": 0}, {"type": "note_on", "time": 7, "note": 67, "velocity": 116, "channel": 0}, {"type": "note_off", "time": 368, "note": 67, "velocity": 116, "channel": 0}, {"type": "note_on", "time": 8, "note": 69, "velocity": 121, "channel": 0}, {"type": "note_off", "time": 132, "note": 69, "velocity": 121, "channel": 0}, {"type": "note_on", "time": 22, "note": 67, "velocity": 100, "channel": 0}, {"type": "note_off", "time": 32, "note": 67, "velocity": 100, "channel": 0}, {"type": "note_on", "time": 17, "note": 70, "velocity": 118, "channel": 0}, {"type": "note_off", "time": 170, "note": 70, "velocity": 118, "channel": 0}, {"type": "note_on", "time": 10, "note": 72, "velocity": 120, "channel": 0}, {"type": "note_off", "time": 128, "note": 72, "velocity": 120, "channel": 0}, {"type": "note_on", "time": 57, "note": 74, "velocity": 118, "channel": 0}, {"type": "note_off", "time": 29, "note": 74, "velocity": 118, "channel": 0}, {"type": "note_on", "time": 12, "note": 75, "velocity": 119, "channel": 0}, {"type": "note_off", "time": 936, "note": 75, "velocity": 119, "channel": 0}, {"type": "note_on", "time": 10, "note": 76, "velocity": 117, "channel": 0}, {"type": "note_off", "time": 64, "note": 76, "velocity": 117, "channel": 0}, {"type": "note_on", "time": 34, "note": 70, "velocity": 93, "channel": 0}, {"type": "note_off", "time": 397, "note": 70, "velocity": 93, "channel": 0}, {"type": "note_on", "time": 1202, "note": 78, "velocity": 122, "channel": 0}, {"type": "note_off", "time": 106, "note": 78, "velocity": 122, "channel": 0}, {"type": "note_on", "time": 199, "note": 75, "velocity": 120, "channel": 0}, {"type": "note_off", "time": 265, "note": 75, "velocity": 120, "channel": 0}, {"type": "note_on", "time": 18, "note": 76, "velocity": 119, "channel": 0}, {"type": "note_off", "time": 370, "note": 76, "velocity": 119, "channel": 0}, {"type": "note_on", "time": 12, "note": 75, "velocity": 119, "channel": 0}, {"type": "note_off", "time": 117, "note": 75, "velocity": 119, "channel": 0}, {"type": "note_on", "time": 7, "note": 73, "velocity": 99, "channel": 0}, {"type": "note_off", "time": 55, "note": 73, "velocity": 99, "channel": 0}, {"type": "note_on", "time": 23, "note": 74, "velocity": 117, "channel": 0}, {"type": "note_off", "time": 86, "note": 74, "velocity": 117, "channel": 0}, {"type": "note_on", "time": 25, "note": 74, "velocity": 120, "channel": 0}, {"type": "note_off", "time": 60, "note": 74, "velocity": 120, "channel": 0}, {"type": "note_on", "time": 3, "note": 76, "velocity": 120, "channel": 0}, {"type": "note_off", "time": 114, "note": 76, "velocity": 120, "channel": 0}, {"type": "note_on", "time": 9, "note": 69, "velocity": 83, "channel": 0}, {"type": "note_off", "time": 45, "note": 69, "velocity": 83, "channel": 0}, {"type": "note_on", "time": 12, "note": 77, "velocity": 122, "channel": 0}, {"type": "note_off", "time": 125, "note": 77, "velocity": 122, "channel": 0}, {"type": "note_on", "time": 10, "note": 79, "velocity": 118, "channel": 0}, {"type": "note_off", "time": 103, "note": 79, "velocity": 118, "channel": 0}, {"type": "note_on", "time": 67, "note": 83, "velocity": 123, "channel": 0}, {"type": "note_off", "time": 70, "note": 83, "velocity": 123, "channel": 0}, {"type": "note_on", "time": 7, "note": 84, "velocity": 117, "channel": 0}, {"type": "note_off", "time": 70, "note": 84, "velocity": 117, "channel": 0}, {"type": "note_on", "time": 153, "note": 80, "velocity": 118, "channel": 0}, {"type": "note_off", "time": 117, "note": 80, "velocity": 118, "channel": 0}, {"type": "note_on", "time": 180, "note": 79, "velocity": 121, "channel": 0}, {"type": "note_off", "time": 96, "note": 79, "velocity": 121, "channel": 0}, {"type": "note_on", "time": 146, "note": 77, "velocity": 118, "channel": 0}, {"type": "note_off", "time": 289, "note": 77, "velocity": 118, "channel": 0}, {"type": "note_on", "time": 32, "note": 74, "velocity": 113, "channel": 0}, {"type": "note_off", "time": 77, "note": 74, "velocity": 113, "channel": 0}, {"type": "note_on", "time": 8, "note": 72, "velocity": 112, "channel": 0}, {"type": "note_off", "time": 76, "note": 72, "velocity": 112, "channel": 0}, {"type": "note_on", "time": 18, "note": 72, "velocity": 114, "channel": 0}, {"type": "note_off", "time": 47, "note": 72, "velocity": 114, "channel": 0}, {"type": "note_on", "time": 17, "note": 73, "velocity": 116, "channel": 0}, {"type": "note_off", "time": 95, "note": 73, "velocity": 116, "channel": 0}, {"type": "note_on", "time": 29, "note": 70, "velocity": 97, "channel": 0}, {"type": "note_off", "time": 32, "note": 70, "velocity": 97, "channel": 0}, {"type": "note_on", "time": 12, "note": 72, "velocity": 111, "channel": 0}, {"type": "note_off", "time": 164, "note": 72, "velocity": 111, "channel": 0}, {"type": "note_on", "time": 17, "note": 67, "velocity": 110, "channel": 0}, {"type": "note_off", "time": 100, "note": 67, "velocity": 110, "channel": 0}, {"type": "note_on", "time": 28, "note": 65, "velocity": 101, "channel": 0}, {"type": "note_off", "time": 59, "note": 65, "velocity": 101, "channel": 0}, {"type": "note_on", "time": 10, "note": 70, "velocity": 112, "channel": 0}, {"type": "note_off", "time": 96, "note": 70, "velocity": 112, "channel": 0}, {"type": "note_on", "time": 27, "note": 72, "velocity": 113, "channel": 0}, {"type": "note_off", "time": 60, "note": 72, "velocity": 113, "channel": 0}, {"type": "note_on", "time": 115, "note": 65, "velocity": 111, "channel": 0}, {"type": "note_off", "time": 38, "note": 65, "velocity": 111, "channel": 0}, {"type": "note_on", "time": 52, "note": 75, "velocity": 110, "channel": 0}, {"type": "note_off", "time": 29, "note": 75, "velocity": 110, "channel": 0}, {"type": "note_on", "time": 10, "note": 76, "velocity": 112, "channel": 0}, {"type": "note_off", "time": 244, "note": 76, "velocity": 112, "channel": 0}, {"type": "note_on", "time": 39, "note": 67, "velocity": 106, "channel": 0}, {"type": "note_off", "time": 39, "note": 67, "velocity": 106, "channel": 0}, {"type": "note_on", "time": 118, "note": 70, "velocity": 114, "channel": 0}, {"type": "note_off", "time": 81, "note": 70, "velocity": 114, "channel": 0}, {"type": "note_on", "time": 122, "note": 64, "velocity": 85, "channel": 0}, {"type": "note_off", "time": 32, "note": 64, "velocity": 85, "channel": 0}, {"type": "note_on", "time": 57, "note": 76, "velocity": 113, "channel": 0}, {"type": "note_off", "time": 271, "note": 76, "velocity": 113, "channel": 0}, {"type": "note_on", "time": 29, "note": 67, "velocity": 100, "channel": 0}, {"type": "note_off", "time": 35, "note": 67, "velocity": 100, "channel": 0}, {"type": "note_on", "time": 45, "note": 70, "velocity": 107, "channel": 0}, {"type": "note_off", "time": 63, "note": 70, "velocity": 107, "channel": 0}, {"type": "note_on", "time": 85, "note": 74, "velocity": 119, "channel": 0}, {"type": "note_off", "time": 29, "note": 74, "velocity": 119, "channel": 0}, {"type": "note_on", "time": 8, "note": 76, "velocity": 105, "channel": 0}, {"type": "note_off", "time": 286, "note": 76, "velocity": 105, "channel": 0}, {"type": "note_on", "time": 12, "note": 67, "velocity": 99, "channel": 0}, {"type": "note_off", "time": 48, "note": 67, "velocity": 99, "channel": 0}, {"type": "note_on", "time": 8, "note": 70, "velocity": 107, "channel": 0}, {"type": "note_off", "time": 110, "note": 70, "velocity": 107, "channel": 0}, {"type": "note_on", "time": 63, "note": 76, "velocity": 108, "channel": 0}, {"type": "note_off", "time": 162, "note": 76, "velocity": 108, "channel": 0}, {"type": "note_on", "time": 45, "note": 67, "velocity": 94, "channel": 0}, {"type": "note_off", "time": 124, "note": 67, "velocity": 94, "channel": 0}, {"type": "note_on", "time": 11, "note": 70, "velocity": 112, "channel": 0}, {"type": "note_off", "time": 602, "note": 70, "velocity": 112, "channel": 0}, {"type": "note_on", "time": 10, "note": 67, "velocity": 114, "channel": 0}, {"type": "note_off", "time": 109, "note": 67, "velocity": 114, "channel": 0}, {"type": "note_on", "time": 24, "note": 61, "velocity": 101, "channel": 0}, {"type": "note_off", "time": 50, "note": 61, "velocity": 101, "channel": 0}, {"type": "note_on", "time": 28, "note": 64, "velocity": 107, "channel": 0}, {"type": "note_off", "time": 78, "note": 64, "velocity": 107, "channel": 0}, {"type": "note_on", "time": 24, "note": 61, "velocity": 105, "channel": 0}, {"type": "note_off", "time": 68, "note": 61, "velocity": 105, "channel": 0}, {"type": "note_on", "time": 10, "note": 58, "velocity": 112, "channel": 0}, {"type": "note_off", "time": 79, "note": 58, "velocity": 112, "channel": 0}, {"type": "note_on", "time": 11, "note": 55, "velocity": 105, "channel": 0}, {"type": "note_off", "time": 77, "note": 55, "velocity": 105, "channel": 0}, {"type": "note_on", "time": 17, "note": 52, "velocity": 100, "channel": 0}, {"type": "note_off", "time": 70, "note": 52, "velocity": 100, "channel": 0}, {"type": "note_on", "time": 1426, "note": 78, "velocity": 116, "channel": 0}, {"type": "note_off", "time": 139, "note": 78, "velocity": 116, "channel": 0}, {"type": "note_on", "time": 53, "note": 75, "velocity": 103, "channel": 0}, {"type": "note_off", "time": 65, "note": 75, "velocity": 103, "channel": 0}, {"type": "note_on", "time": 20, "note": 76, "velocity": 115, "channel": 0}, {"type": "note_off", "time": 252, "note": 76, "velocity": 115, "channel": 0}, {"type": "note_on", "time": 23, "note": 76, "velocity": 117, "channel": 0}, {"type": "note_off", "time": 161, "note": 76, "velocity": 117, "channel": 0}, {"type": "note_on", "time": 47, "note": 73, "velocity": 102, "channel": 0}, {"type": "note_off", "time": 73, "note": 73, "velocity": 102, "channel": 0}, {"type": "note_on", "time": 16, "note": 75, "velocity": 114, "channel": 0}, {"type": "note_off", "time": 250, "note": 75, "velocity": 114, "channel": 0}, {"type": "note_on", "time": 34, "note": 78, "velocity": 115, "channel": 0}, {"type": "note_off", "time": 171, "note": 78, "velocity": 115, "channel": 0}, {"type": "note_on", "time": 19, "note": 78, "velocity": 96, "channel": 0}, {"type": "note_off", "time": 41, "note": 78, "velocity": 96, "channel": 0}, {"type": "note_on", "time": 58, "note": 76, "velocity": 115, "channel": 0}, {"type": "note_off", "time": 250, "note": 76, "velocity": 115, "channel": 0}, {"type": "note_on", "time": 28, "note": 76, "velocity": 116, "channel": 0}, {"type": "note_off", "time": 169, "note": 76, "velocity": 116, "channel": 0}, {"type": "note_on", "time": 19, "note": 73, "velocity": 96, "channel": 0}, {"type": "note_off", "time": 89, "note": 73, "velocity": 96, "channel": 0}, {"type": "note_on", "time": 19, "note": 75, "velocity": 115, "channel": 0}, {"type": "note_off", "time": 450, "note": 75, "velocity": 115, "channel": 0}, {"type": "note_on", "time": 32, "note": 78, "velocity": 115, "channel": 0}, {"type": "note_off", "time": 79, "note": 78, "velocity": 115, "channel": 0}, {"type": "note_on", "time": 24, "note": 75, "velocity": 97, "channel": 0}, {"type": "note_off", "time": 58, "note": 75, "velocity": 97, "channel": 0}, {"type": "note_on", "time": 4, "note": 76, "velocity": 114, "channel": 0}, {"type": "note_off", "time": 301, "note": 76, "velocity": 114, "channel": 0}, {"type": "note_on", "time": 32, "note": 76, "velocity": 117, "channel": 0}, {"type": "note_off", "time": 75, "note": 76, "velocity": 117, "channel": 0}, {"type": "note_on", "time": 7, "note": 73, "velocity": 109, "channel": 0}, {"type": "note_off", "time": 80, "note": 73, "velocity": 109, "channel": 0}, {"type": "note_on", "time": 27, "note": 75, "velocity": 115, "channel": 0}, {"type": "note_off", "time": 243, "note": 75, "velocity": 115, "channel": 0}, {"type": "note_on", "time": 36, "note": 76, "velocity": 117, "channel": 0}, {"type": "note_off", "time": 96, "note": 76, "velocity": 117, "channel": 0}, {"type": "note_on", "time": 20, "note": 73, "velocity": 93, "channel": 0}, {"type": "note_off", "time": 46, "note": 73, "velocity": 93, "channel": 0}, {"type": "note_on", "time": 13, "note": 75, "velocity": 113, "channel": 0}, {"type": "note_off", "time": 537, "note": 75, "velocity": 113, "channel": 0}, {"type": "note_on", "time": 38, "note": 74, "velocity": 112, "channel": 0}, {"type": "note_off", "time": 74, "note": 74, "velocity": 112, "channel": 0}, {"type": "note_on", "time": 20, "note": 74, "velocity": 115, "channel": 0}, {"type": "note_off", "time": 62, "note": 74, "velocity": 115, "channel": 0}, {"type": "note_on", "time": 9, "note": 73, "velocity": 112, "channel": 0}, {"type": "note_off", "time": 85, "note": 73, "velocity": 112, "channel": 0}, {"type": "note_on", "time": 30, "note": 73, "velocity": 116, "channel": 0}, {"type": "note_off", "time": 66, "note": 73, "velocity": 116, "channel": 0}, {"type": "note_on", "time": 20, "note": 72, "velocity": 112, "channel": 0}, {"type": "note_off", "time": 72, "note": 72, "velocity": 112, "channel": 0}, {"type": "note_on", "time": 12, "note": 68, "velocity": 108, "channel": 0}, {"type": "note_off", "time": 60, "note": 68, "velocity": 108, "channel": 0}, {"type": "note_on", "time": 186, "note": 67, "velocity": 112, "channel": 0}, {"type": "note_off", "time": 169, "note": 67, "velocity": 112, "channel": 0}, {"type": "note_on", "time": 8, "note": 68, "velocity": 111, "channel": 0}, {"type": "note_off", "time": 139, "note": 68, "velocity": 111, "channel": 0}, {"type": "note_on", "time": 36, "note": 65, "velocity": 104, "channel": 0}, {"type": "note_off", "time": 33, "note": 65, "velocity": 104, "channel": 0}, {"type": "note_on", "time": 17, "note": 68, "velocity": 112, "channel": 0}, {"type": "note_off", "time": 99, "note": 68, "velocity": 112, "channel": 0}, {"type": "note_on", "time": 16, "note": 68, "velocity": 116, "channel": 0}, {"type": "note_off", "time": 62, "note": 68, "velocity": 116, "channel": 0}, {"type": "note_on", "time": 15, "note": 67, "velocity": 114, "channel": 0}, {"type": "note_off", "time": 98, "note": 67, "velocity": 114, "channel": 0}, {"type": "note_on", "time": 18, "note": 66, "velocity": 113, "channel": 0}, {"type": "note_off", "time": 64, "note": 66, "velocity": 113, "channel": 0}, {"type": "note_on", "time": 17, "note": 65, "velocity": 109, "channel": 0}, {"type": "note_off", "time": 85, "note": 65, "velocity": 109, "channel": 0}, {"type": "note_on", "time": 27, "note": 62, "velocity": 106, "channel": 0}, {"type": "note_off", "time": 55, "note": 62, "velocity": 106, "channel": 0}, {"type": "note_on", "time": 8, "note": 58, "velocity": 98, "channel": 0}, {"type": "note_off", "time": 102, "note": 58, "velocity": 98, "channel": 0}, {"type": "note_on", "time": 10, "note": 55, "velocity": 95, "channel": 0}, {"type": "note_off", "time": 84, "note": 55, "velocity": 95, "channel": 0}, {"type": "note_on", "time": 8, "note": 56, "velocity": 98, "channel": 0}, {"type": "note_off", "time": 197, "note": 56, "velocity": 98, "channel": 0}, {"type": "note_on", "time": 1031, "note": 56, "velocity": 109, "channel": 0}, {"type": "note_off", "time": 75, "note": 56, "velocity": 109, "channel": 0}, {"type": "note_on", "time": 12, "note": 57, "velocity": 107, "channel": 0}, {"type": "note_off", "time": 87, "note": 57, "velocity": 107, "channel": 0}, {"type": "note_on", "time": 12, "note": 60, "velocity": 103, "channel": 0}, {"type": "note_off", "time": 79, "note": 60, "velocity": 103, "channel": 0}, {"type": "note_on", "time": 113, "note": 57, "velocity": 113, "channel": 0}, {"type": "note_off", "time": 65, "note": 57, "velocity": 113, "channel": 0}, {"type": "note_on", "time": 11, "note": 55, "velocity": 103, "channel": 0}, {"type": "note_off", "time": 92, "note": 55, "velocity": 103, "channel": 0}, {"type": "note_on", "time": 37, "note": 53, "velocity": 88, "channel": 0}, {"type": "note_off", "time": 56, "note": 53, "velocity": 88, "channel": 0}, {"type": "note_on", "time": 14, "note": 55, "velocity": 93, "channel": 0}, {"type": "note_off", "time": 103, "note": 55, "velocity": 93, "channel": 0}, {"type": "note_on", "time": 6, "note": 57, "velocity": 104, "channel": 0}, {"type": "note_off", "time": 61, "note": 57, "velocity": 104, "channel": 0}, {"type": "note_on", "time": 15, "note": 60, "velocity": 92, "channel": 0}, {"type": "note_off", "time": 89, "note": 60, "velocity": 92, "channel": 0}, {"type": "note_on", "time": 34, "note": 62, "velocity": 103, "channel": 0}, {"type": "note_off", "time": 62, "note": 62, "velocity": 103, "channel": 0}, {"type": "note_on", "time": 41, "note": 63, "velocity": 102, "channel": 0}, {"type": "note_off", "time": 63, "note": 63, "velocity": 102, "channel": 0}, {"type": "note_on", "time": 12, "note": 62, "velocity": 92, "channel": 0}, {"type": "note_off", "time": 62, "note": 62, "velocity": 92, "channel": 0}, {"type": "note_on", "time": 19, "note": 63, "velocity": 106, "channel": 0}, {"type": "note_off", "time": 114, "note": 63, "velocity": 106, "channel": 0}, {"type": "note_on", "time": 14, "note": 65, "velocity": 116, "channel": 0}, {"type": "note_off", "time": 75, "note": 65, "velocity": 116, "channel": 0}, {"type": "note_on", "time": 44, "note": 66, "velocity": 98, "channel": 0}, {"type": "note_off", "time": 72, "note": 66, "velocity": 98, "channel": 0}, {"type": "note_on", "time": 8, "note": 67, "velocity": 105, "channel": 0}, {"type": "note_off", "time": 61, "note": 67, "velocity": 105, "channel": 0}, {"type": "note_on", "time": 32, "note": 72, "velocity": 117, "channel": 0}, {"type": "note_off", "time": 94, "note": 72, "velocity": 117, "channel": 0}, {"type": "note_on", "time": 30, "note": 67, "velocity": 98, "channel": 0}, {"type": "note_off", "time": 42, "note": 67, "velocity": 98, "channel": 0}, {"type": "note_on", "time": 14, "note": 69, "velocity": 112, "channel": 0}, {"type": "note_off", "time": 84, "note": 69, "velocity": 112, "channel": 0}, {"type": "note_on", "time": 88, "note": 69, "velocity": 108, "channel": 0}, {"type": "note_off", "time": 206, "note": 69, "velocity": 108, "channel": 0}, {"type": "note_on", "time": 29, "note": 67, "velocity": 98, "channel": 0}, {"type": "note_off", "time": 88, "note": 67, "velocity": 98, "channel": 0}, {"type": "note_on", "time": 14, "note": 69, "velocity": 116, "channel": 0}, {"type": "note_off", "time": 57, "note": 69, "velocity": 116, "channel": 0}, {"type": "note_on", "time": 5, "note": 67, "velocity": 111, "channel": 0}, {"type": "note_off", "time": 100, "note": 67, "velocity": 111, "channel": 0}, {"type": "note_on", "time": 55, "note": 65, "velocity": 101, "channel": 0}, {"type": "note_off", "time": 52, "note": 65, "velocity": 101, "channel": 0}, {"type": "note_on", "time": 120, "note": 64, "velocity": 110, "channel": 0}, {"type": "note_off", "time": 29, "note": 64, "velocity": 110, "channel": 0}, {"type": "note_on", "time": 4, "note": 65, "velocity": 104, "channel": 0}, {"type": "note_off", "time": 225, "note": 65, "velocity": 104, "channel": 0}, {"type": "note_on", "time": 25, "note": 63, "velocity": 105, "channel": 0}, {"type": "note_off", "time": 88, "note": 63, "velocity": 105, "channel": 0}, {"type": "note_on", "time": 15, "note": 65, "velocity": 118, "channel": 0}, {"type": "note_off", "time": 57, "note": 65, "velocity": 118, "channel": 0}, {"type": "note_on", "time": 9, "note": 63, "velocity": 108, "channel": 0}, {"type": "note_off", "time": 117, "note": 63, "velocity": 108, "channel": 0}, {"type": "note_on", "time": 72, "note": 62, "velocity": 91, "channel": 0}, {"type": "note_off", "time": 75, "note": 62, "velocity": 91, "channel": 0}, {"type": "note_on", "time": 133, "note": 65, "velocity": 108, "channel": 0}, {"type": "note_off", "time": 76, "note": 65, "velocity": 108, "channel": 0}, {"type": "note_on", "time": 130, "note": 68, "velocity": 101, "channel": 0}, {"type": "note_off", "time": 94, "note": 68, "velocity": 101, "channel": 0}, {"type": "note_on", "time": 101, "note": 72, "velocity": 111, "channel": 0}, {"type": "note_off", "time": 87, "note": 72, "velocity": 111, "channel": 0}, {"type": "note_on", "time": 118, "note": 74, "velocity": 119, "channel": 0}, {"type": "note_off", "time": 118, "note": 74, "velocity": 119, "channel": 0}, {"type": "note_on", "time": 10, "note": 77, "velocity": 122, "channel": 0}, {"type": "note_off", "time": 73, "note": 77, "velocity": 122, "channel": 0}, {"type": "note_on", "time": 102, "note": 80, "velocity": 103, "channel": 0}, {"type": "note_off", "time": 400, "note": 80, "velocity": 103, "channel": 0}, {"type": "note_on", "time": 1164, "note": 84, "velocity": 120, "channel": 0}, {"type": "note_off", "time": 81, "note": 84, "velocity": 120, "channel": 0}, {"type": "note_on", "time": 41, "note": 84, "velocity": 120, "channel": 0}, {"type": "note_off", "time": 29, "note": 84, "velocity": 120, "channel": 0}, {"type": "note_on", "time": 5, "note": 85, "velocity": 119, "channel": 0}, {"type": "note_off", "time": 57, "note": 85, "velocity": 119, "channel": 0}, {"type": "note_on", "time": 41, "note": 84, "velocity": 109, "channel": 0}, {"type": "note_off", "time": 32, "note": 84, "velocity": 109, "channel": 0}, {"type": "note_on", "time": 2, "note": 85, "velocity": 126, "channel": 0}, {"type": "note_off", "time": 91, "note": 85, "velocity": 126, "channel": 0}, {"type": "note_on", "time": 11, "note": 84, "velocity": 122, "channel": 0}, {"type": "note_off", "time": 89, "note": 84, "velocity": 122, "channel": 0}, {"type": "note_on", "time": 12, "note": 82, "velocity": 114, "channel": 0}, {"type": "note_off", "time": 86, "note": 82, "velocity": 114, "channel": 0}, {"type": "note_on", "time": 10, "note": 80, "velocity": 120, "channel": 0}, {"type": "note_off", "time": 93, "note": 80, "velocity": 120, "channel": 0}, {"type": "note_on", "time": 13, "note": 79, "velocity": 113, "channel": 0}, {"type": "note_off", "time": 85, "note": 79, "velocity": 113, "channel": 0}, {"type": "note_on", "time": 7, "note": 77, "velocity": 122, "channel": 0}, {"type": "note_off", "time": 78, "note": 77, "velocity": 122, "channel": 0}, {"type": "note_on", "time": 18, "note": 75, "velocity": 120, "channel": 0}, {"type": "note_off", "time": 90, "note": 75, "velocity": 120, "channel": 0}, {"type": "note_on", "time": 9, "note": 74, "velocity": 121, "channel": 0}, {"type": "note_off", "time": 73, "note": 74, "velocity": 121, "channel": 0}, {"type": "note_on", "time": 7, "note": 73, "velocity": 116, "channel": 0}, {"type": "note_off", "time": 125, "note": 73, "velocity": 116, "channel": 0}, {"type": "note_on", "time": 47, "note": 65, "velocity": 103, "channel": 0}, {"type": "note_off", "time": 44, "note": 65, "velocity": 103, "channel": 0}, {"type": "note_on", "time": 3, "note": 68, "velocity": 100, "channel": 0}, {"type": "note_off", "time": 86, "note": 68, "velocity": 100, "channel": 0}, {"type": "note_on", "time": 76, "note": 72, "velocity": 118, "channel": 0}, {"type": "note_off", "time": 161, "note": 72, "velocity": 118, "channel": 0}, {"type": "note_on", "time": 30, "note": 74, "velocity": 99, "channel": 0}, {"type": "note_off", "time": 32, "note": 74, "velocity": 99, "channel": 0}, {"type": "note_on", "time": 4, "note": 76, "velocity": 119, "channel": 0}, {"type": "note_off", "time": 380, "note": 76, "velocity": 119, "channel": 0}, {"type": "note_on", "time": 19, "note": 76, "velocity": 116, "channel": 0}, {"type": "note_off", "time": 353, "note": 76, "velocity": 116, "channel": 0}, {"type": "note_on", "time": 25, "note": 76, "velocity": 119, "channel": 0}, {"type": "note_off", "time": 310, "note": 76, "velocity": 119, "channel": 0}, {"type": "note_on", "time": 37, "note": 65, "velocity": 98, "channel": 0}, {"type": "note_off", "time": 36, "note": 65, "velocity": 98, "channel": 0}, {"type": "note_on", "time": 17, "note": 68, "velocity": 96, "channel": 0}, {"type": "note_off", "time": 106, "note": 68, "velocity": 96, "channel": 0}, {"type": "note_on", "time": 12, "note": 72, "velocity": 113, "channel": 0}, {"type": "note_off", "time": 50, "note": 72, "velocity": 113, "channel": 0}, {"type": "note_on", "time": 114, "note": 75, "velocity": 118, "channel": 0}, {"type": "note_off", "time": 203, "note": 75, "velocity": 118, "channel": 0}, {"type": "note_on", "time": 62, "note": 65, "velocity": 94, "channel": 0}, {"type": "note_off", "time": 41, "note": 65, "velocity": 94, "channel": 0}, {"type": "note_on", "time": 7, "note": 68, "velocity": 100, "channel": 0}, {"type": "note_off", "time": 59, "note": 68, "velocity": 100, "channel": 0}, {"type": "note_on", "time": 33, "note": 72, "velocity": 116, "channel": 0}, {"type": "note_off", "time": 73, "note": 72, "velocity": 116, "channel": 0}, {"type": "note_on", "time": 117, "note": 76, "velocity": 122, "channel": 0}, {"type": "note_off", "time": 203, "note": 76, "velocity": 122, "channel": 0}, {"type": "note_on", "time": 9, "note": 65, "velocity": 104, "channel": 0}, {"type": "note_off", "time": 44, "note": 65, "velocity": 104, "channel": 0}, {"type": "note_on", "time": 30, "note": 68, "velocity": 96, "channel": 0}, {"type": "note_off", "time": 86, "note": 68, "velocity": 96, "channel": 0}, {"type": "note_on", "time": 22, "note": 72, "velocity": 117, "channel": 0}, {"type": "note_off", "time": 52, "note": 72, "velocity": 117, "channel": 0}, {"type": "note_on", "time": 687, "note": 76, "velocity": 120, "channel": 0}, {"type": "note_off", "time": 85, "note": 76, "velocity": 120, "channel": 0}, {"type": "note_on", "time": 105, "note": 75, "velocity": 120, "channel": 0}, {"type": "note_off", "time": 76, "note": 75, "velocity": 120, "channel": 0}, {"type": "note_on", "time": 117, "note": 72, "velocity": 118, "channel": 0}, {"type": "note_off", "time": 76, "note": 72, "velocity": 118, "channel": 0}, {"type": "note_on", "time": 118, "note": 73, "velocity": 115, "channel": 0}, {"type": "note_off", "time": 95, "note": 73, "velocity": 115, "channel": 0}, {"type": "note_on", "time": 99, "note": 67, "velocity": 114, "channel": 0}, {"type": "note_off", "time": 68, "note": 67, "velocity": 114, "channel": 0}, {"type": "note_on", "time": 132, "note": 70, "velocity": 10, "channel": 0}, {"type": "note_off", "time": 68, "note": 70, "velocity": 10, "channel": 0}, {"type": "note_on", "time": 145, "note": 65, "velocity": 102, "channel": 0}, {"type": "note_off", "time": 64, "note": 65, "velocity": 102, "channel": 0}, {"type": "note_on", "time": 14, "note": 67, "velocity": 118, "channel": 0}, {"type": "note_off", "time": 83, "note": 67, "velocity": 118, "channel": 0}, {"type": "note_on", "time": 46, "note": 65, "velocity": 96, "channel": 0}, {"type": "note_off", "time": 34, "note": 65, "velocity": 96, "channel": 0}, {"type": "note_on", "time": 7, "note": 69, "velocity": 102, "channel": 0}, {"type": "note_off", "time": 191, "note": 69, "velocity": 102, "channel": 0}, {"type": "note_on", "time": 8, "note": 70, "velocity": 118, "channel": 0}, {"type": "note_off", "time": 1172, "note": 70, "velocity": 118, "channel": 0}, {"type": "note_on", "time": 20, "note": 72, "velocity": 114, "channel": 0}, {"type": "note_off", "time": 102, "note": 72, "velocity": 114, "channel": 0}, {"type": "note_on", "time": 12, "note": 70, "velocity": 102, "channel": 0}, {"type": "note_off", "time": 37, "note": 70, "velocity": 102, "channel": 0}, {"type": "note_on", "time": 10, "note": 75, "velocity": 118, "channel": 0}, {"type": "note_off", "time": 272, "note": 75, "velocity": 118, "channel": 0}, {"type": "note_on", "time": 21, "note": 75, "velocity": 119, "channel": 0}, {"type": "note_off", "time": 50, "note": 75, "velocity": 119, "channel": 0}, {"type": "note_on", "time": 1222, "note": 78, "velocity": 118, "channel": 0}, {"type": "note_off", "time": 163, "note": 78, "velocity": 118, "channel": 0}, {"type": "note_on", "time": 6, "note": 76, "velocity": 112, "channel": 0}, {"type": "note_off", "time": 43, "note": 76, "velocity": 112, "channel": 0}, {"type": "note_on", "time": 75, "note": 76, "velocity": 118, "channel": 0}, {"type": "note_off", "time": 182, "note": 76, "velocity": 118, "channel": 0}, {"type": "note_on", "time": 19, "note": 75, "velocity": 100, "channel": 0}, {"type": "note_off", "time": 39, "note": 75, "velocity": 100, "channel": 0}, {"type": "note_on", "time": 42, "note": 76, "velocity": 121, "channel": 0}, {"type": "note_off", "time": 164, "note": 76, "velocity": 121, "channel": 0}, {"type": "note_on", "time": 16, "note": 75, "velocity": 118, "channel": 0}, {"type": "note_off", "time": 75, "note": 75, "velocity": 118, "channel": 0}, {"type": "note_on", "time": 43, "note": 75, "velocity": 119, "channel": 0}, {"type": "note_off", "time": 198, "note": 75, "velocity": 119, "channel": 0}, {"type": "note_on", "time": 37, "note": 72, "velocity": 99, "channel": 0}, {"type": "note_off", "time": 30, "note": 72, "velocity": 99, "channel": 0}, {"type": "note_on", "time": 15, "note": 73, "velocity": 119, "channel": 0}, {"type": "note_off", "time": 104, "note": 73, "velocity": 119, "channel": 0}, {"type": "note_on", "time": 16, "note": 63, "velocity": 103, "channel": 0}, {"type": "note_off", "time": 53, "note": 63, "velocity": 103, "channel": 0}, {"type": "note_on", "time": 10, "note": 67, "velocity": 101, "channel": 0}, {"type": "note_off", "time": 93, "note": 67, "velocity": 101, "channel": 0}, {"type": "note_on", "time": 7, "note": 69, "velocity": 121, "channel": 0}, {"type": "note_off", "time": 66, "note": 69, "velocity": 121, "channel": 0}, {"type": "note_on", "time": 19, "note": 70, "velocity": 119, "channel": 0}, {"type": "note_off", "time": 81, "note": 70, "velocity": 119, "channel": 0}, {"type": "note_on", "time": 9, "note": 67, "velocity": 117, "channel": 0}, {"type": "note_off", "time": 79, "note": 67, "velocity": 117, "channel": 0}, {"type": "note_on", "time": 28, "note": 61, "velocity": 106, "channel": 0}, {"type": "note_off", "time": 88, "note": 61, "velocity": 106, "channel": 0}, {"type": "note_on", "time": 33, "note": 56, "velocity": 99, "channel": 0}, {"type": "note_off", "time": 39, "note": 56, "velocity": 99, "channel": 0}, {"type": "note_on", "time": 2, "note": 58, "velocity": 113, "channel": 0}, {"type": "note_off", "time": 779, "note": 58, "velocity": 113, "channel": 0}, {"type": "note_on", "time": 13, "note": 57, "velocity": 101, "channel": 0}, {"type": "note_off", "time": 41, "note": 57, "velocity": 101, "channel": 0}, {"type": "note_on", "time": 4, "note": 56, "velocity": 109, "channel": 0}, {"type": "note_off", "time": 47, "note": 56, "velocity": 109, "channel": 0}, {"type": "note_on", "time": 6, "note": 55, "velocity": 113, "channel": 0}, {"type": "note_off", "time": 43, "note": 55, "velocity": 113, "channel": 0}, {"type": "note_on", "time": 12, "note": 54, "velocity": 109, "channel": 0}, {"type": "note_off", "time": 25, "note": 54, "velocity": 109, "channel": 0}, {"type": "note_on", "time": 10, "note": 53, "velocity": 106, "channel": 0}, {"type": "note_off", "time": 32, "note": 53, "velocity": 106, "channel": 0}, {"type": "note_on", "time": 13, "note": 52, "velocity": 102, "channel": 0}, {"type": "note_off", "time": 1236, "note": 52, "velocity": 102, "channel": 0}, {"type": "note_on", "time": 11, "note": 54, "velocity": 106, "channel": 0}, {"type": "note_off", "time": 164, "note": 54, "velocity": 106, "channel": 0}, {"type": "note_on", "time": 11, "note": 52, "velocity": 100, "channel": 0}, {"type": "note_off", "time": 102, "note": 52, "velocity": 100, "channel": 0}, {"type": "note_on", "time": 11, "note": 55, "velocity": 102, "channel": 0}, {"type": "note_off", "time": 418, "note": 55, "velocity": 102, "channel": 0}, {"type": "note_on", "time": 925, "note": 54, "velocity": 107, "channel": 0}, {"type": "note_off", "time": 57, "note": 54, "velocity": 107, "channel": 0}, {"type": "note_on", "time": 11, "note": 56, "velocity": 114, "channel": 0}, {"type": "note_off", "time": 84, "note": 56, "velocity": 114, "channel": 0}, {"type": "note_on", "time": 12, "note": 53, "velocity": 111, "channel": 0}, {"type": "note_off", "time": 77, "note": 53, "velocity": 111, "channel": 0}, {"type": "note_on", "time": 131, "note": 56, "velocity": 109, "channel": 0}, {"type": "note_off", "time": 60, "note": 56, "velocity": 109, "channel": 0}, {"type": "note_on", "time": 5, "note": 60, "velocity": 98, "channel": 0}, {"type": "note_off", "time": 78, "note": 60, "velocity": 98, "channel": 0}, {"type": "note_on", "time": 18, "note": 56, "velocity": 108, "channel": 0}, {"type": "note_off", "time": 70, "note": 56, "velocity": 108, "channel": 0}, {"type": "note_on", "time": 129, "note": 60, "velocity": 106, "channel": 0}, {"type": "note_off", "time": 55, "note": 60, "velocity": 106, "channel": 0}, {"type": "note_on", "time": 13, "note": 63, "velocity": 113, "channel": 0}, {"type": "note_off", "time": 109, "note": 63, "velocity": 113, "channel": 0}, {"type": "note_on", "time": 23, "note": 60, "velocity": 96, "channel": 0}, {"type": "note_off", "time": 56, "note": 60, "velocity": 96, "channel": 0}, {"type": "note_on", "time": 14, "note": 61, "velocity": 95, "channel": 0}, {"type": "note_off", "time": 78, "note": 61, "velocity": 95, "channel": 0}, {"type": "note_on", "time": 21, "note": 64, "velocity": 107, "channel": 0}, {"type": "note_off", "time": 71, "note": 64, "velocity": 107, "channel": 0}, {"type": "note_on", "time": 18, "note": 65, "velocity": 107, "channel": 0}, {"type": "note_off", "time": 72, "note": 65, "velocity": 107, "channel": 0}, {"type": "note_on", "time": 21, "note": 67, "velocity": 115, "channel": 0}, {"type": "note_off", "time": 68, "note": 67, "velocity": 115, "channel": 0}, {"type": "note_on", "time": 5, "note": 68, "velocity": 114, "channel": 0}, {"type": "note_off", "time": 104, "note": 68, "velocity": 114, "channel": 0}, {"type": "note_on", "time": 11, "note": 67, "velocity": 99, "channel": 0}, {"type": "note_off", "time": 52, "note": 67, "velocity": 99, "channel": 0}, {"type": "note_on", "time": 11, "note": 70, "velocity": 117, "channel": 0}, {"type": "note_off", "time": 103, "note": 70, "velocity": 117, "channel": 0}, {"type": "note_on", "time": 81, "note": 68, "velocity": 112, "channel": 0}, {"type": "note_off", "time": 86, "note": 68, "velocity": 112, "channel": 0}, {"type": "note_on", "time": 17, "note": 70, "velocity": 118, "channel": 0}, {"type": "note_off", "time": 77, "note": 70, "velocity": 118, "channel": 0}, {"type": "note_on", "time": 316, "note": 72, "velocity": 113, "channel": 0}, {"type": "note_off", "time": 62, "note": 72, "velocity": 113, "channel": 0}, {"type": "note_on", "time": 21, "note": 73, "velocity": 117, "channel": 0}, {"type": "note_off", "time": 72, "note": 73, "velocity": 117, "channel": 0}, {"type": "note_on", "time": 32, "note": 74, "velocity": 121, "channel": 0}, {"type": "note_off", "time": 68, "note": 74, "velocity": 121, "channel": 0}, {"type": "note_on", "time": 4, "note": 75, "velocity": 120, "channel": 0}, {"type": "note_off", "time": 106, "note": 75, "velocity": 120, "channel": 0}, {"type": "note_on", "time": 76, "note": 76, "velocity": 121, "channel": 0}, {"type": "note_off", "time": 112, "note": 76, "velocity": 121, "channel": 0}, {"type": "note_on", "time": 78, "note": 77, "velocity": 120, "channel": 0}, {"type": "note_off", "time": 99, "note": 77, "velocity": 120, "channel": 0}, {"type": "note_on", "time": 82, "note": 79, "velocity": 118, "channel": 0}, {"type": "note_off", "time": 100, "note": 79, "velocity": 118, "channel": 0}, {"type": "note_on", "time": 94, "note": 82, "velocity": 100, "channel": 0}, {"type": "note_off", "time": 72, "note": 82, "velocity": 100, "channel": 0}, {"type": "note_on", "time": 11, "note": 86, "velocity": 91, "channel": 0}, {"type": "note_off", "time": 64, "note": 86, "velocity": 91, "channel": 0}, {"type": "note_on", "time": 150, "note": 82, "velocity": 119, "channel": 0}, {"type": "note_off", "time": 1053, "note": 82, "velocity": 119, "channel": 0}, {"type": "note_on", "time": 1, "note": 84, "velocity": 125, "channel": 0}, {"type": "note_off", "time": 118, "note": 84, "velocity": 125, "channel": 0}, {"type": "note_on", "time": 8, "note": 87, "velocity": 105, "channel": 0}, {"type": "note_off", "time": 83, "note": 87, "velocity": 105, "channel": 0}, {"type": "note_on", "time": 1481, "note": 82, "velocity": 90, "channel": 0}, {"type": "note_off", "time": 45, "note": 82, "velocity": 90, "channel": 0}, {"type": "note_on", "time": 55, "note": 84, "velocity": 117, "channel": 0}, {"type": "note_off", "time": 52, "note": 84, "velocity": 117, "channel": 0}, {"type": "note_on", "time": 4, "note": 86, "velocity": 107, "channel": 0}, {"type": "note_off", "time": 66, "note": 86, "velocity": 107, "channel": 0}, {"type": "note_on", "time": 8, "note": 87, "velocity": 116, "channel": 0}, {"type": "note_off", "time": 75, "note": 87, "velocity": 116, "channel": 0}, {"type": "note_on", "time": 3, "note": 86, "velocity": 120, "channel": 0}, {"type": "note_off", "time": 144, "note": 86, "velocity": 120, "channel": 0}, {"type": "note_on", "time": 4, "note": 87, "velocity": 120, "channel": 0}, {"type": "note_off", "time": 128, "note": 87, "velocity": 120, "channel": 0}, {"type": "note_on", "time": 42, "note": 85, "velocity": 125, "channel": 0}, {"type": "note_off", "time": 123, "note": 85, "velocity": 125, "channel": 0}, {"type": "note_on", "time": 50, "note": 84, "velocity": 121, "channel": 0}, {"type": "note_off", "time": 107, "note": 84, "velocity": 121, "channel": 0}, {"type": "note_on", "time": 48, "note": 83, "velocity": 123, "channel": 0}, {"type": "note_off", "time": 88, "note": 83, "velocity": 123, "channel": 0}, {"type": "note_on", "time": 12, "note": 82, "velocity": 121, "channel": 0}, {"type": "note_off", "time": 93, "note": 82, "velocity": 121, "channel": 0}, {"type": "note_on", "time": 12, "note": 80, "velocity": 119, "channel": 0}, {"type": "note_off", "time": 79, "note": 80, "velocity": 119, "channel": 0}, {"type": "note_on", "time": 23, "note": 79, "velocity": 107, "channel": 0}, {"type": "note_off", "time": 63, "note": 79, "velocity": 107, "channel": 0}, {"type": "note_on", "time": 23, "note": 78, "velocity": 115, "channel": 0}, {"type": "note_off", "time": 77, "note": 78, "velocity": 115, "channel": 0}, {"type": "note_on", "time": 17, "note": 76, "velocity": 117, "channel": 0}, {"type": "note_off", "time": 81, "note": 76, "velocity": 117, "channel": 0}, {"type": "note_on", "time": 6, "note": 75, "velocity": 113, "channel": 0}, {"type": "note_off", "time": 35, "note": 75, "velocity": 113, "channel": 0}, {"type": "note_on", "time": 25, "note": 75, "velocity": 105, "channel": 0}, {"type": "note_off", "time": 43, "note": 75, "velocity": 105, "channel": 0}, {"type": "note_on", "time": 23, "note": 76, "velocity": 116, "channel": 0}, {"type": "note_off", "time": 77, "note": 76, "velocity": 116, "channel": 0}, {"type": "note_on", "time": 10, "note": 78, "velocity": 118, "channel": 0}, {"type": "note_off", "time": 74, "note": 78, "velocity": 118, "channel": 0}, {"type": "note_on", "time": 11, "note": 79, "velocity": 114, "channel": 0}, {"type": "note_off", "time": 77, "note": 79, "velocity": 114, "channel": 0}, {"type": "note_on", "time": 16, "note": 81, "velocity": 123, "channel": 0}, {"type": "note_off", "time": 79, "note": 81, "velocity": 123, "channel": 0}, {"type": "note_on", "time": 11, "note": 82, "velocity": 121, "channel": 0}, {"type": "note_off", "time": 97, "note": 82, "velocity": 121, "channel": 0}, {"type": "note_on", "time": 7, "note": 84, "velocity": 122, "channel": 0}, {"type": "note_off", "time": 81, "note": 84, "velocity": 122, "channel": 0}, {"type": "note_on", "time": 21, "note": 86, "velocity": 119, "channel": 0}, {"type": "note_off", "time": 124, "note": 86, "velocity": 119, "channel": 0}, {"type": "note_on", "time": 50, "note": 85, "velocity": 122, "channel": 0}, {"type": "note_off", "time": 105, "note": 85, "velocity": 122, "channel": 0}, {"type": "note_on", "time": 268, "note": 85, "velocity": 117, "channel": 0}, {"type": "note_off", "time": 136, "note": 85, "velocity": 117, "channel": 0}, {"type": "note_on", "time": 29, "note": 84, "velocity": 110, "channel": 0}, {"type": "note_off", "time": 397, "note": 84, "velocity": 110, "channel": 0}, {"type": "note_on", "time": 64, "note": 85, "velocity": 116, "channel": 0}, {"type": "note_off", "time": 87, "note": 85, "velocity": 116, "channel": 0}, {"type": "note_on", "time": 32, "note": 84, "velocity": 96, "channel": 0}, {"type": "note_off", "time": 59, "note": 84, "velocity": 96, "channel": 0}, {"type": "note_on", "time": 7, "note": 85, "velocity": 117, "channel": 0}, {"type": "note_off", "time": 92, "note": 85, "velocity": 117, "channel": 0}, {"type": "note_on", "time": 20, "note": 84, "velocity": 125, "channel": 0}, {"type": "note_off", "time": 78, "note": 84, "velocity": 125, "channel": 0}, {"type": "note_on", "time": 27, "note": 82, "velocity": 115, "channel": 0}, {"type": "note_off", "time": 81, "note": 82, "velocity": 115, "channel": 0}, {"type": "note_on", "time": 9, "note": 82, "velocity": 118, "channel": 0}, {"type": "note_off", "time": 76, "note": 82, "velocity": 118, "channel": 0}, {"type": "note_on", "time": 27, "note": 79, "velocity": 111, "channel": 0}, {"type": "note_off", "time": 80, "note": 79, "velocity": 111, "channel": 0}, {"type": "note_on", "time": 10, "note": 78, "velocity": 119, "channel": 0}, {"type": "note_off", "time": 87, "note": 78, "velocity": 119, "channel": 0}, {"type": "note_on", "time": 12, "note": 76, "velocity": 114, "channel": 0}, {"type": "note_off", "time": 109, "note": 76, "velocity": 114, "channel": 0}, {"type": "note_on", "time": 47, "note": 71, "velocity": 103, "channel": 0}, {"type": "note_off", "time": 39, "note": 71, "velocity": 103, "channel": 0}, {"type": "note_on", "time": 8, "note": 72, "velocity": 101, "channel": 0}, {"type": "note_off", "time": 81, "note": 72, "velocity": 101, "channel": 0}, {"type": "note_on", "time": 90, "note": 76, "velocity": 99, "channel": 0}, {"type": "note_off", "time": 96, "note": 76, "velocity": 99, "channel": 0}, {"type": "note_on", "time": 84, "note": 77, "velocity": 117, "channel": 0}, {"type": "note_off", "time": 122, "note": 77, "velocity": 117, "channel": 0}, {"type": "note_on", "time": 15, "note": 78, "velocity": 117, "channel": 0}, {"type": "note_off", "time": 91, "note": 78, "velocity": 117, "channel": 0}, {"type": "note_on", "time": 109, "note": 77, "velocity": 118, "channel": 0}, {"type": "note_off", "time": 78, "note": 77, "velocity": 118, "channel": 0}, {"type": "note_on", "time": 96, "note": 76, "velocity": 117, "channel": 0}, {"type": "note_off", "time": 78, "note": 76, "velocity": 117, "channel": 0}, {"type": "note_on", "time": 123, "note": 75, "velocity": 119, "channel": 0}, {"type": "note_off", "time": 73, "note": 75, "velocity": 119, "channel": 0}, {"type": "note_on", "time": 129, "note": 72, "velocity": 101, "channel": 0}, {"type": "note_off", "time": 54, "note": 72, "velocity": 101, "channel": 0}, {"type": "note_on", "time": 21, "note": 73, "velocity": 118, "channel": 0}, {"type": "note_off", "time": 106, "note": 73, "velocity": 118, "channel": 0}, {"type": "note_on", "time": 32, "note": 71, "velocity": 95, "channel": 0}, {"type": "note_off", "time": 41, "note": 71, "velocity": 95, "channel": 0}, {"type": "note_on", "time": 14, "note": 72, "velocity": 106, "channel": 0}, {"type": "note_off", "time": 93, "note": 72, "velocity": 106, "channel": 0}, {"type": "note_on", "time": 13, "note": 70, "velocity": 119, "channel": 0}, {"type": "note_off", "time": 57, "note": 70, "velocity": 119, "channel": 0}, {"type": "note_on", "time": 19, "note": 69, "velocity": 98, "channel": 0}, {"type": "note_off", "time": 107, "note": 69, "velocity": 98, "channel": 0}, {"type": "note_on", "time": 21, "note": 67, "velocity": 102, "channel": 0}, {"type": "note_off", "time": 41, "note": 67, "velocity": 102, "channel": 0}, {"type": "note_on", "time": 35, "note": 68, "velocity": 104, "channel": 0}, {"type": "note_off", "time": 76, "note": 68, "velocity": 104, "channel": 0}, {"type": "note_on", "time": 103, "note": 62, "velocity": 93, "channel": 0}, {"type": "note_off", "time": 101, "note": 62, "velocity": 93, "channel": 0}, {"type": "note_on", "time": 17, "note": 64, "velocity": 106, "channel": 0}, {"type": "note_off", "time": 54, "note": 64, "velocity": 106, "channel": 0}, {"type": "note_on", "time": 32, "note": 67, "velocity": 100, "channel": 0}, {"type": "note_off", "time": 90, "note": 67, "velocity": 100, "channel": 0}, {"type": "note_on", "time": 20, "note": 65, "velocity": 93, "channel": 0}, {"type": "note_off", "time": 60, "note": 65, "velocity": 93, "channel": 0}, {"type": "note_on", "time": 9, "note": 68, "velocity": 104, "channel": 0}, {"type": "note_off", "time": 94, "note": 68, "velocity": 104, "channel": 0}, {"type": "note_on", "time": 106, "note": 72, "velocity": 106, "channel": 0}, {"type": "note_off", "time": 84, "note": 72, "velocity": 106, "channel": 0}, {"type": "note_on", "time": 93, "note": 77, "velocity": 116, "channel": 0}, {"type": "note_off", "time": 109, "note": 77, "velocity": 116, "channel": 0}, {"type": "note_on", "time": 96, "note": 80, "velocity": 118, "channel": 0}, {"type": "note_off", "time": 111, "note": 80, "velocity": 118, "channel": 0}, {"type": "note_on", "time": 32, "note": 86, "velocity": 86, "channel": 0}, {"type": "note_off", "time": 38, "note": 86, "velocity": 86, "channel": 0}, {"type": "note_on", "time": 126, "note": 80, "velocity": 103, "channel": 0}, {"type": "note_off", "time": 217, "note": 80, "velocity": 103, "channel": 0}, {"type": "note_on", "time": 28, "note": 80, "velocity": 107, "channel": 0}, {"type": "note_off", "time": 75, "note": 80, "velocity": 107, "channel": 0}, {"type": "note_on", "time": 54, "note": 79, "velocity": 117, "channel": 0}, {"type": "note_off", "time": 70, "note": 79, "velocity": 117, "channel": 0}, {"type": "note_on", "time": 24, "note": 77, "velocity": 110, "channel": 0}, {"type": "note_off", "time": 102, "note": 77, "velocity": 110, "channel": 0}, {"type": "note_on", "time": 1403, "note": 78, "velocity": 116, "channel": 0}, {"type": "note_off", "time": 91, "note": 78, "velocity": 116, "channel": 0}, {"type": "note_on", "time": 293, "note": 76, "velocity": 122, "channel": 0}, {"type": "note_off", "time": 394, "note": 76, "velocity": 122, "channel": 0}, {"type": "note_on", "time": 12, "note": 78, "velocity": 119, "channel": 0}, {"type": "note_off", "time": 257, "note": 78, "velocity": 119, "channel": 0}, {"type": "note_on", "time": 47, "note": 70, "velocity": 108, "channel": 0}, {"type": "note_off", "time": 63, "note": 70, "velocity": 108, "channel": 0}, {"type": "note_on", "time": 791, "note": 78, "velocity": 120, "channel": 0}, {"type": "note_off", "time": 159, "note": 78, "velocity": 120, "channel": 0}, {"type": "note_on", "time": 38, "note": 76, "velocity": 103, "channel": 0}, {"type": "note_off", "time": 81, "note": 76, "velocity": 103, "channel": 0}, {"type": "note_on", "time": 27, "note": 78, "velocity": 118, "channel": 0}, {"type": "note_off", "time": 164, "note": 78, "velocity": 118, "channel": 0}, {"type": "note_on", "time": 24, "note": 76, "velocity": 110, "channel": 0}, {"type": "note_off", "time": 46, "note": 76, "velocity": 110, "channel": 0}, {"type": "note_on", "time": 54, "note": 76, "velocity": 121, "channel": 0}, {"type": "note_off", "time": 159, "note": 76, "velocity": 121, "channel": 0}, {"type": "note_on", "time": 30, "note": 75, "velocity": 102, "channel": 0}, {"type": "note_off", "time": 75, "note": 75, "velocity": 102, "channel": 0}, {"type": "note_on", "time": 23, "note": 76, "velocity": 118, "channel": 0}, {"type": "note_off", "time": 272, "note": 76, "velocity": 118, "channel": 0}, {"type": "note_on", "time": 12, "note": 75, "velocity": 120, "channel": 0}, {"type": "note_off", "time": 72, "note": 75, "velocity": 120, "channel": 0}, {"type": "note_on", "time": 99, "note": 76, "velocity": 119, "channel": 0}, {"type": "note_off", "time": 117, "note": 76, "velocity": 119, "channel": 0}, {"type": "note_on", "time": 14, "note": 74, "velocity": 99, "channel": 0}, {"type": "note_off", "time": 37, "note": 74, "velocity": 99, "channel": 0}, {"type": "note_on", "time": 19, "note": 78, "velocity": 114, "channel": 0}, {"type": "note_off", "time": 104, "note": 78, "velocity": 114, "channel": 0}, {"type": "note_on", "time": 18, "note": 75, "velocity": 99, "channel": 0}, {"type": "note_off", "time": 39, "note": 75, "velocity": 99, "channel": 0}, {"type": "note_on", "time": 12, "note": 79, "velocity": 119, "channel": 0}, {"type": "note_off", "time": 114, "note": 79, "velocity": 119, "channel": 0}, {"type": "note_on", "time": 198, "note": 78, "velocity": 120, "channel": 0}, {"type": "note_off", "time": 75, "note": 78, "velocity": 120, "channel": 0}, {"type": "note_on", "time": 111, "note": 76, "velocity": 119, "channel": 0}, {"type": "note_off", "time": 77, "note": 76, "velocity": 119, "channel": 0}, {"type": "note_on", "time": 102, "note": 75, "velocity": 120, "channel": 0}, {"type": "note_off", "time": 105, "note": 75, "velocity": 120, "channel": 0}, {"type": "note_on", "time": 126, "note": 65, "velocity": 92, "channel": 0}, {"type": "note_off", "time": 32, "note": 65, "velocity": 92, "channel": 0}, {"type": "note_on", "time": 30, "note": 76, "velocity": 115, "channel": 0}, {"type": "note_off", "time": 97, "note": 76, "velocity": 115, "channel": 0}, {"type": "note_on", "time": 35, "note": 71, "velocity": 95, "channel": 0}, {"type": "note_off", "time": 32, "note": 71, "velocity": 95, "channel": 0}, {"type": "note_on", "time": 10, "note": 75, "velocity": 119, "channel": 0}, {"type": "note_off", "time": 88, "note": 75, "velocity": 119, "channel": 0}, {"type": "note_on", "time": 68, "note": 72, "velocity": 103, "channel": 0}, {"type": "note_off", "time": 28, "note": 72, "velocity": 103, "channel": 0}, {"type": "note_on", "time": 7, "note": 73, "velocity": 116, "channel": 0}, {"type": "note_off", "time": 81, "note": 73, "velocity": 116, "channel": 0}, {"type": "note_on", "time": 215, "note": 75, "velocity": 121, "channel": 0}, {"type": "note_off", "time": 90, "note": 75, "velocity": 121, "channel": 0}, {"type": "note_on", "time": 94, "note": 76, "velocity": 119, "channel": 0}, {"type": "note_off", "time": 84, "note": 76, "velocity": 119, "channel": 0}, {"type": "note_on", "time": 113, "note": 70, "velocity": 112, "channel": 0}, {"type": "note_off", "time": 65, "note": 70, "velocity": 112, "channel": 0}, {"type": "note_on", "time": 200, "note": 72, "velocity": 116, "channel": 0}, {"type": "note_off", "time": 100, "note": 72, "velocity": 116, "channel": 0}, {"type": "note_on", "time": 79, "note": 75, "velocity": 118, "channel": 0}, {"type": "note_off", "time": 958, "note": 75, "velocity": 118, "channel": 0}, {"type": "note_on", "time": 18, "note": 73, "velocity": 119, "channel": 0}, {"type": "note_off", "time": 118, "note": 73, "velocity": 119, "channel": 0}, {"type": "note_on", "time": 68, "note": 63, "velocity": 103, "channel": 0}, {"type": "note_off", "time": 132, "note": 63, "velocity": 103, "channel": 0}, {"type": "note_on", "time": 2, "note": 64, "velocity": 104, "channel": 0}, {"type": "note_off", "time": 253, "note": 64, "velocity": 104, "channel": 0}, {"type": "note_on", "time": 42, "note": 64, "velocity": 103, "channel": 0}, {"type": "note_off", "time": 344, "note": 64, "velocity": 103, "channel": 0}, {"type": "note_on", "time": 25, "note": 64, "velocity": 105, "channel": 0}, {"type": "note_off", "time": 358, "note": 64, "velocity": 105, "channel": 0}, {"type": "note_on", "time": 42, "note": 67, "velocity": 115, "channel": 0}, {"type": "note_off", "time": 79, "note": 67, "velocity": 115, "channel": 0}, {"type": "note_on", "time": 20, "note": 65, "velocity": 114, "channel": 0}, {"type": "note_off", "time": 50, "note": 65, "velocity": 114, "channel": 0}, {"type": "note_on", "time": 17, "note": 64, "velocity": 105, "channel": 0}, {"type": "note_off", "time": 114, "note": 64, "velocity": 105, "channel": 0}, {"type": "note_on", "time": 81, "note": 64, "velocity": 104, "channel": 0}, {"type": "note_off", "time": 180, "note": 64, "velocity": 104, "channel": 0}, {"type": "note_on", "time": 17, "note": 65, "velocity": 111, "channel": 0}, {"type": "note_off", "time": 118, "note": 65, "velocity": 111, "channel": 0}, {"type": "note_on", "time": 73, "note": 67, "velocity": 106, "channel": 0}, {"type": "note_off", "time": 117, "note": 67, "velocity": 106, "channel": 0}, {"type": "note_on", "time": 71, "note": 68, "velocity": 113, "channel": 0}, {"type": "note_off", "time": 118, "note": 68, "velocity": 113, "channel": 0}, {"type": "note_on", "time": 22, "note": 65, "velocity": 98, "channel": 0}, {"type": "note_off", "time": 52, "note": 65, "velocity": 98, "channel": 0}, {"type": "note_on", "time": 11, "note": 70, "velocity": 114, "channel": 0}, {"type": "note_off", "time": 383, "note": 70, "velocity": 114, "channel": 0}, {"type": "note_on", "time": 11, "note": 72, "velocity": 107, "channel": 0}, {"type": "note_off", "time": 89, "note": 72, "velocity": 107, "channel": 0}, {"type": "note_on", "time": 31, "note": 68, "velocity": 109, "channel": 0}, {"type": "note_off", "time": 49, "note": 68, "velocity": 109, "channel": 0}, {"type": "note_on", "time": 35, "note": 65, "velocity": 102, "channel": 0}, {"type": "note_off", "time": 81, "note": 65, "velocity": 102, "channel": 0}, {"type": "note_on", "time": 40, "note": 62, "velocity": 91, "channel": 0}, {"type": "note_off", "time": 55, "note": 62, "velocity": 91, "channel": 0}, {"type": "note_on", "time": 9, "note": 64, "velocity": 97, "channel": 0}, {"type": "note_off", "time": 142, "note": 64, "velocity": 97, "channel": 0}, {"type": "note_on", "time": 21, "note": 65, "velocity": 111, "channel": 0}, {"type": "note_off", "time": 116, "note": 65, "velocity": 111, "channel": 0}, {"type": "note_on", "time": 15, "note": 67, "velocity": 91, "channel": 0}, {"type": "note_off", "time": 244, "note": 67, "velocity": 91, "channel": 0}, {"type": "note_on", "time": 1151, "note": 79, "velocity": 122, "channel": 0}, {"type": "note_off", "time": 96, "note": 79, "velocity": 122, "channel": 0}, {"type": "note_on", "time": 12, "note": 80, "velocity": 123, "channel": 0}, {"type": "note_off", "time": 86, "note": 80, "velocity": 123, "channel": 0}, {"type": "note_on", "time": 10, "note": 81, "velocity": 10, "channel": 0}, {"type": "note_off", "time": 95, "note": 81, "velocity": 10, "channel": 0}, {"type": "note_on", "time": 5, "note": 78, "velocity": 10, "channel": 0}, {"type": "note_off", "time": 87, "note": 78, "velocity": 10, "channel": 0}, {"type": "note_on", "time": 17, "note": 75, "velocity": 117, "channel": 0}, {"type": "note_off", "time": 89, "note": 75, "velocity": 117, "channel": 0}, {"type": "note_on", "time": 12, "note": 76, "velocity": 127, "channel": 0}, {"type": "note_off", "time": 76, "note": 76, "velocity": 127, "channel": 0}, {"type": "note_on", "time": 16, "note": 77, "velocity": 122, "channel": 0}, {"type": "note_off", "time": 96, "note": 77, "velocity": 122, "channel": 0}, {"type": "note_on", "time": 10, "note": 76, "velocity": 114, "channel": 0}, {"type": "note_off", "time": 81, "note": 76, "velocity": 114, "channel": 0}, {"type": "note_on", "time": 10, "note": 75, "velocity": 121, "channel": 0}, {"type": "note_off", "time": 102, "note": 75, "velocity": 121, "channel": 0}, {"type": "note_on", "time": 50, "note": 72, "velocity": 104, "channel": 0}, {"type": "note_off", "time": 37, "note": 72, "velocity": 104, "channel": 0}, {"type": "note_on", "time": 7, "note": 74, "velocity": 122, "channel": 0}, {"type": "note_off", "time": 101, "note": 74, "velocity": 122, "channel": 0}, {"type": "note_on", "time": 9, "note": 72, "velocity": 121, "channel": 0}, {"type": "note_off", "time": 85, "note": 72, "velocity": 121, "channel": 0}, {"type": "note_on", "time": 21, "note": 71, "velocity": 101, "channel": 0}, {"type": "note_off", "time": 85, "note": 71, "velocity": 101, "channel": 0}, {"type": "note_on", "time": 13, "note": 69, "velocity": 118, "channel": 0}, {"type": "note_off", "time": 60, "note": 69, "velocity": 118, "channel": 0}, {"type": "note_on", "time": 42, "note": 68, "velocity": 115, "channel": 0}, {"type": "note_off", "time": 75, "note": 68, "velocity": 115, "channel": 0}, {"type": "note_on", "time": 44, "note": 65, "velocity": 101, "channel": 0}, {"type": "note_off", "time": 41, "note": 65, "velocity": 101, "channel": 0}, {"type": "note_on", "time": 11, "note": 69, "velocity": 118, "channel": 0}, {"type": "note_off", "time": 98, "note": 69, "velocity": 118, "channel": 0}, {"type": "note_on", "time": 33, "note": 65, "velocity": 101, "channel": 0}, {"type": "note_off", "time": 36, "note": 65, "velocity": 101, "channel": 0}, {"type": "note_on", "time": 24, "note": 71, "velocity": 112, "channel": 0}, {"type": "note_off", "time": 110, "note": 71, "velocity": 112, "channel": 0}, {"type": "note_on", "time": 11, "note": 69, "velocity": 95, "channel": 0}, {"type": "note_off", "time": 43, "note": 69, "velocity": 95, "channel": 0}, {"type": "note_on", "time": 12, "note": 72, "velocity": 118, "channel": 0}, {"type": "note_off", "time": 106, "note": 72, "velocity": 118, "channel": 0}, {"type": "note_on", "time": 46, "note": 74, "velocity": 123, "channel": 0}, {"type": "note_off", "time": 88, "note": 74, "velocity": 123, "channel": 0}, {"type": "note_on", "time": 72, "note": 75, "velocity": 126, "channel": 0}, {"type": "note_off", "time": 87, "note": 75, "velocity": 126, "channel": 0}, {"type": "note_on", "time": 93, "note": 76, "velocity": 124, "channel": 0}, {"type": "note_off", "time": 91, "note": 76, "velocity": 124, "channel": 0}, {"type": "note_on", "time": 23, "note": 77, "velocity": 123, "channel": 0}, {"type": "note_off", "time": 113, "note": 77, "velocity": 123, "channel": 0}, {"type": "note_on", "time": 70, "note": 79, "velocity": 121, "channel": 0}, {"type": "note_off", "time": 97, "note": 79, "velocity": 121, "channel": 0}, {"type": "note_on", "time": 64, "note": 77, "velocity": 108, "channel": 0}, {"type": "note_off", "time": 38, "note": 77, "velocity": 108, "channel": 0}, {"type": "note_on", "time": 8, "note": 79, "velocity": 120, "channel": 0}, {"type": "note_off", "time": 46, "note": 79, "velocity": 120, "channel": 0}, {"type": "note_on", "time": 6, "note": 80, "velocity": 119, "channel": 0}, {"type": "note_off", "time": 1021, "note": 80, "velocity": 119, "channel": 0}, {"type": "note_on", "time": 10, "note": 79, "velocity": 121, "channel": 0}, {"type": "note_off", "time": 89, "note": 79, "velocity": 121, "channel": 0}, {"type": "note_on", "time": 57, "note": 80, "velocity": 120, "channel": 0}, {"type": "note_off", "time": 113, "note": 80, "velocity": 120, "channel": 0}, {"type": "note_on", "time": 4, "note": 79, "velocity": 120, "channel": 0}, {"type": "note_off", "time": 106, "note": 79, "velocity": 120, "channel": 0}, {"type": "note_on", "time": 24, "note": 74, "velocity": 117, "channel": 0}, {"type": "note_off", "time": 405, "note": 74, "velocity": 117, "channel": 0}, {"type": "note_on", "time": 5, "note": 72, "velocity": 101, "channel": 0}, {"type": "note_off", "time": 22, "note": 72, "velocity": 101, "channel": 0}, {"type": "note_on", "time": 6, "note": 74, "velocity": 117, "channel": 0}, {"type": "note_off", "time": 140, "note": 74, "velocity": 117, "channel": 0}, {"type": "note_on", "time": 3, "note": 75, "velocity": 116, "channel": 0}, {"type": "note_off", "time": 31, "note": 75, "velocity": 116, "channel": 0}, {"type": "note_on", "time": 4, "note": 72, "velocity": 111, "channel": 0}, {"type": "note_off", "time": 30, "note": 72, "velocity": 111, "channel": 0}, {"type": "note_on", "time": 8, "note": 67, "velocity": 106, "channel": 0}, {"type": "note_off", "time": 56, "note": 67, "velocity": 106, "channel": 0}, {"type": "note_on", "time": 1216, "note": 85, "velocity": 117, "channel": 0}, {"type": "note_off", "time": 43, "note": 85, "velocity": 117, "channel": 0}, {"type": "note_on", "time": 5, "note": 84, "velocity": 126, "channel": 0}, {"type": "note_off", "time": 40, "note": 84, "velocity": 126, "channel": 0}, {"type": "note_on", "time": 7, "note": 82, "velocity": 117, "channel": 0}, {"type": "note_off", "time": 101, "note": 82, "velocity": 117, "channel": 0}, {"type": "note_on", "time": 8, "note": 80, "velocity": 123, "channel": 0}, {"type": "note_off", "time": 90, "note": 80, "velocity": 123, "channel": 0}, {"type": "note_on", "time": 8, "note": 79, "velocity": 117, "channel": 0}, {"type": "note_off", "time": 91, "note": 79, "velocity": 117, "channel": 0}, {"type": "note_on", "time": 7, "note": 77, "velocity": 121, "channel": 0}, {"type": "note_off", "time": 86, "note": 77, "velocity": 121, "channel": 0}, {"type": "note_on", "time": 11, "note": 75, "velocity": 123, "channel": 0}, {"type": "note_off", "time": 92, "note": 75, "velocity": 123, "channel": 0}, {"type": "note_on", "time": 7, "note": 74, "velocity": 120, "channel": 0}, {"type": "note_off", "time": 67, "note": 74, "velocity": 120, "channel": 0}, {"type": "note_on", "time": 15, "note": 73, "velocity": 120, "channel": 0}, {"type": "note_off", "time": 90, "note": 73, "velocity": 120, "channel": 0}, {"type": "note_on", "time": 54, "note": 86, "velocity": 116, "channel": 0}, {"type": "note_off", "time": 36, "note": 86, "velocity": 116, "channel": 0}, {"type": "note_on", "time": 6, "note": 84, "velocity": 119, "channel": 0}, {"type": "note_off", "time": 26, "note": 84, "velocity": 119, "channel": 0}, {"type": "note_on", "time": 10, "note": 82, "velocity": 114, "channel": 0}, {"type": "note_off", "time": 73, "note": 82, "velocity": 114, "channel": 0}, {"type": "note_on", "time": 22, "note": 80, "velocity": 124, "channel": 0}, {"type": "note_off", "time": 79, "note": 80, "velocity": 124, "channel": 0}, {"type": "note_on", "time": 6, "note": 79, "velocity": 119, "channel": 0}, {"type": "note_off", "time": 75, "note": 79, "velocity": 119, "channel": 0}, {"type": "note_on", "time": 27, "note": 77, "velocity": 121, "channel": 0}, {"type": "note_off", "time": 60, "note": 77, "velocity": 121, "channel": 0}, {"type": "note_on", "time": 47, "note": 85, "velocity": 112, "channel": 0}, {"type": "note_off", "time": 24, "note": 85, "velocity": 112, "channel": 0}, {"type": "note_on", "time": 7, "note": 86, "velocity": 121, "channel": 0}, {"type": "note_off", "time": 22, "note": 86, "velocity": 121, "channel": 0}, {"type": "note_on", "time": 7, "note": 84, "velocity": 120, "channel": 0}, {"type": "note_off", "time": 21, "note": 84, "velocity": 120, "channel": 0}, {"type": "note_on", "time": 5, "note": 82, "velocity": 114, "channel": 0}, {"type": "note_off", "time": 86, "note": 82, "velocity": 114, "channel": 0}, {"type": "note_on", "time": 18, "note": 80, "velocity": 119, "channel": 0}, {"type": "note_off", "time": 66, "note": 80, "velocity": 119, "channel": 0}, {"type": "note_on", "time": 13, "note": 79, "velocity": 116, "channel": 0}, {"type": "note_off", "time": 83, "note": 79, "velocity": 116, "channel": 0}, {"type": "note_on", "time": 10, "note": 77, "velocity": 120, "channel": 0}, {"type": "note_off", "time": 72, "note": 77, "velocity": 120, "channel": 0}, {"type": "note_on", "time": 60, "note": 86, "velocity": 107, "channel": 0}, {"type": "note_off", "time": 30, "note": 86, "velocity": 107, "channel": 0}, {"type": "note_on", "time": 5, "note": 84, "velocity": 110, "channel": 0}, {"type": "note_off", "time": 16, "note": 84, "velocity": 110, "channel": 0}, {"type": "note_on", "time": 4, "note": 82, "velocity": 119, "channel": 0}, {"type": "note_off", "time": 93, "note": 82, "velocity": 119, "channel": 0}, {"type": "note_on", "time": 11, "note": 80, "velocity": 119, "channel": 0}, {"type": "note_off", "time": 64, "note": 80, "velocity": 119, "channel": 0}, {"type": "note_on", "time": 10, "note": 79, "velocity": 115, "channel": 0}, {"type": "note_off", "time": 72, "note": 79, "velocity": 115, "channel": 0}, {"type": "note_on", "time": 61, "note": 85, "velocity": 124, "channel": 0}, {"type": "note_off", "time": 47, "note": 85, "velocity": 124, "channel": 0}, {"type": "note_on", "time": 3, "note": 84, "velocity": 112, "channel": 0}, {"type": "note_off", "time": 45, "note": 84, "velocity": 112, "channel": 0}, {"type": "note_on", "time": 7, "note": 82, "velocity": 116, "channel": 0}, {"type": "note_off", "time": 57, "note": 82, "velocity": 116, "channel": 0}, {"type": "note_on", "time": 18, "note": 81, "velocity": 119, "channel": 0}, {"type": "note_off", "time": 50, "note": 81, "velocity": 119, "channel": 0}, {"type": "note_on", "time": 12, "note": 80, "velocity": 112, "channel": 0}, {"type": "note_off", "time": 105, "note": 80, "velocity": 112, "channel": 0}, {"type": "note_on", "time": 11, "note": 79, "velocity": 114, "channel": 0}, {"type": "note_off", "time": 65, "note": 79, "velocity": 114, "channel": 0}, {"type": "note_on", "time": 38, "note": 77, "velocity": 118, "channel": 0}, {"type": "note_off", "time": 44, "note": 77, "velocity": 118, "channel": 0}, {"type": "note_on", "time": 70, "note": 86, "velocity": 113, "channel": 0}, {"type": "note_off", "time": 22, "note": 86, "velocity": 113, "channel": 0}, {"type": "note_on", "time": 6, "note": 84, "velocity": 112, "channel": 0}, {"type": "note_off", "time": 29, "note": 84, "velocity": 112, "channel": 0}, {"type": "note_on", "time": 9, "note": 82, "velocity": 120, "channel": 0}, {"type": "note_off", "time": 50, "note": 82, "velocity": 120, "channel": 0}, {"type": "note_on", "time": 22, "note": 80, "velocity": 95, "channel": 0}, {"type": "note_off", "time": 27, "note": 80, "velocity": 95, "channel": 0}, {"type": "note_on", "time": 13, "note": 80, "velocity": 116, "channel": 0}, {"type": "note_off", "time": 72, "note": 80, "velocity": 116, "channel": 0}, {"type": "note_on", "time": 10, "note": 79, "velocity": 113, "channel": 0}, {"type": "note_off", "time": 89, "note": 79, "velocity": 113, "channel": 0}, {"type": "note_on", "time": 13, "note": 77, "velocity": 118, "channel": 0}, {"type": "note_off", "time": 82, "note": 77, "velocity": 118, "channel": 0}, {"type": "note_on", "time": 21, "note": 75, "velocity": 117, "channel": 0}, {"type": "note_off", "time": 79, "note": 75, "velocity": 117, "channel": 0}, {"type": "note_on", "time": 9, "note": 74, "velocity": 120, "channel": 0}, {"type": "note_off", "time": 70, "note": 74, "velocity": 120, "channel": 0}, {"type": "note_on", "time": 13, "note": 73, "velocity": 117, "channel": 0}, {"type": "note_off", "time": 124, "note": 73, "velocity": 117, "channel": 0}, {"type": "note_on", "time": 18, "note": 65, "velocity": 92, "channel": 0}, {"type": "note_off", "time": 41, "note": 65, "velocity": 92, "channel": 0}, {"type": "note_on", "time": 3, "note": 68, "velocity": 97, "channel": 0}, {"type": "note_off", "time": 88, "note": 68, "velocity": 97, "channel": 0}, {"type": "note_on", "time": 16, "note": 72, "velocity": 117, "channel": 0}, {"type": "note_off", "time": 66, "note": 72, "velocity": 117, "channel": 0}, {"type": "note_on", "time": 132, "note": 75, "velocity": 125, "channel": 0}, {"type": "note_off", "time": 68, "note": 75, "velocity": 125, "channel": 0}, {"type": "note_on", "time": 118, "note": 76, "velocity": 122, "channel": 0}, {"type": "note_off", "time": 80, "note": 76, "velocity": 122, "channel": 0}, {"type": "note_on", "time": 111, "note": 77, "velocity": 120, "channel": 0}, {"type": "note_off", "time": 66, "note": 77, "velocity": 120, "channel": 0}, {"type": "note_on", "time": 129, "note": 78, "velocity": 120, "channel": 0}, {"type": "note_off", "time": 82, "note": 78, "velocity": 120, "channel": 0}, {"type": "note_on", "time": 115, "note": 77, "velocity": 120, "channel": 0}, {"type": "note_off", "time": 68, "note": 77, "velocity": 120, "channel": 0}, {"type": "note_on", "time": 118, "note": 76, "velocity": 122, "channel": 0}, {"type": "note_off", "time": 65, "note": 76, "velocity": 122, "channel": 0}, {"type": "note_on", "time": 124, "note": 75, "velocity": 121, "channel": 0}, {"type": "note_off", "time": 68, "note": 75, "velocity": 121, "channel": 0}, {"type": "note_on", "time": 125, "note": 72, "velocity": 113, "channel": 0}, {"type": "note_off", "time": 70, "note": 72, "velocity": 113, "channel": 0}, {"type": "note_on", "time": 18, "note": 73, "velocity": 114, "channel": 0}, {"type": "note_off", "time": 90, "note": 73, "velocity": 114, "channel": 0}, {"type": "note_on", "time": 19, "note": 70, "velocity": 95, "channel": 0}, {"type": "note_off", "time": 45, "note": 70, "velocity": 95, "channel": 0}, {"type": "note_on", "time": 11, "note": 75, "velocity": 115, "channel": 0}, {"type": "note_off", "time": 119, "note": 75, "velocity": 115, "channel": 0}, {"type": "note_on", "time": 12, "note": 70, "velocity": 90, "channel": 0}, {"type": "note_off", "time": 55, "note": 70, "velocity": 90, "channel": 0}, {"type": "note_on", "time": 4, "note": 76, "velocity": 116, "channel": 0}, {"type": "note_off", "time": 1575, "note": 76, "velocity": 116, "channel": 0}, {"type": "note_on", "time": 15, "note": 75, "velocity": 119, "channel": 0}, {"type": "note_off", "time": 116, "note": 75, "velocity": 119, "channel": 0}, {"type": "note_on", "time": 11, "note": 72, "velocity": 98, "channel": 0}, {"type": "note_off", "time": 41, "note": 72, "velocity": 98, "channel": 0}, {"type": "note_on", "time": 13, "note": 73, "velocity": 115, "channel": 0}, {"type": "note_off", "time": 121, "note": 73, "velocity": 115, "channel": 0}, {"type": "note_on", "time": 11, "note": 66, "velocity": 93, "channel": 0}, {"type": "note_off", "time": 43, "note": 66, "velocity": 93, "channel": 0}, {"type": "note_on", "time": 11, "note": 67, "velocity": 112, "channel": 0}, {"type": "note_off", "time": 97, "note": 67, "velocity": 112, "channel": 0}, {"type": "note_on", "time": 103, "note": 70, "velocity": 117, "channel": 0}, {"type": "note_off", "time": 92, "note": 70, "velocity": 117, "channel": 0}, {"type": "note_on", "time": 27, "note": 66, "velocity": 112, "channel": 0}, {"type": "note_off", "time": 42, "note": 66, "velocity": 112, "channel": 0}, {"type": "note_on", "time": 16, "note": 61, "velocity": 105, "channel": 0}, {"type": "note_off", "time": 57, "note": 61, "velocity": 105, "channel": 0}, {"type": "note_on", "time": 1062, "note": 56, "velocity": 107, "channel": 0}, {"type": "note_off", "time": 275, "note": 56, "velocity": 107, "channel": 0}, {"type": "note_on", "time": 6, "note": 58, "velocity": 113, "channel": 0}, {"type": "note_off", "time": 922, "note": 58, "velocity": 113, "channel": 0}, {"type": "note_on", "time": 7, "note": 57, "velocity": 104, "channel": 0}, {"type": "note_off", "time": 39, "note": 57, "velocity": 104, "channel": 0}, {"type": "note_on", "time": 4, "note": 56, "velocity": 98, "channel": 0}, {"type": "note_off", "time": 33, "note": 56, "velocity": 98, "channel": 0}, {"type": "note_on", "time": 13, "note": 55, "velocity": 113, "channel": 0}, {"type": "note_off", "time": 45, "note": 55, "velocity": 113, "channel": 0}, {"type": "note_on", "time": 5, "note": 54, "velocity": 113, "channel": 0}, {"type": "note_off", "time": 43, "note": 54, "velocity": 113, "channel": 0}, {"type": "note_on", "time": 7, "note": 52, "velocity": 105, "channel": 0}, {"type": "note_off", "time": 1011, "note": 52, "velocity": 105, "channel": 0}, {"type": "note_on", "time": 10, "note": 54, "velocity": 112, "channel": 0}, {"type": "note_off", "time": 179, "note": 54, "velocity": 112, "channel": 0}, {"type": "note_on", "time": 400, "note": 61, "velocity": 113, "channel": 0}, {"type": "note_off", "time": 69, "note": 61, "velocity": 113, "channel": 0}, {"type": "note_on", "time": 137, "note": 60, "velocity": 114, "channel": 0}, {"type": "note_off", "time": 53, "note": 60, "velocity": 114, "channel": 0}, {"type": "note_on", "time": 122, "note": 55, "velocity": 105, "channel": 0}, {"type": "note_off", "time": 55, "note": 55, "velocity": 105, "channel": 0}, {"type": "note_on", "time": 152, "note": 58, "velocity": 113, "channel": 0}, {"type": "note_off", "time": 46, "note": 58, "velocity": 113, "channel": 0}, {"type": "note_on", "time": 140, "note": 60, "velocity": 109, "channel": 0}, {"type": "note_off", "time": 65, "note": 60, "velocity": 109, "channel": 0}, {"type": "note_on", "time": 145, "note": 57, "velocity": 99, "channel": 0}, {"type": "note_off", "time": 25, "note": 57, "velocity": 99, "channel": 0}, {"type": "note_on", "time": 8, "note": 61, "velocity": 97, "channel": 0}, {"type": "note_off", "time": 42, "note": 61, "velocity": 97, "channel": 0}, {"type": "note_on", "time": 7, "note": 64, "velocity": 107, "channel": 0}, {"type": "note_off", "time": 236, "note": 64, "velocity": 107, "channel": 0}, {"type": "note_on", "time": 10, "note": 53, "velocity": 106, "channel": 0}, {"type": "note_off", "time": 71, "note": 53, "velocity": 106, "channel": 0}, {"type": "note_on", "time": 23, "note": 58, "velocity": 99, "channel": 0}, {"type": "note_off", "time": 358, "note": 58, "velocity": 99, "channel": 0}, {"type": "note_on", "time": 24, "note": 58, "velocity": 107, "channel": 0}, {"type": "note_off", "time": 391, "note": 58, "velocity": 107, "channel": 0}, {"type": "note_on", "time": 22, "note": 58, "velocity": 107, "channel": 0}, {"type": "note_off", "time": 154, "note": 58, "velocity": 107, "channel": 0}, {"type": "note_on", "time": 7, "note": 60, "velocity": 100, "channel": 0}, {"type": "note_off", "time": 97, "note": 60, "velocity": 100, "channel": 0}, {"type": "note_on", "time": 94, "note": 60, "velocity": 96, "channel": 0}, {"type": "note_off", "time": 84, "note": 60, "velocity": 96, "channel": 0}, {"type": "note_on", "time": 22, "note": 58, "velocity": 100, "channel": 0}, {"type": "note_off", "time": 34, "note": 58, "velocity": 100, "channel": 0}, {"type": "note_on", "time": 21, "note": 56, "velocity": 99, "channel": 0}, {"type": "note_off", "time": 112, "note": 56, "velocity": 99, "channel": 0}, {"type": "note_on", "time": 5, "note": 55, "velocity": 88, "channel": 0}, {"type": "note_off", "time": 49, "note": 55, "velocity": 88, "channel": 0}, {"type": "note_on", "time": 12, "note": 56, "velocity": 94, "channel": 0}, {"type": "note_off", "time": 300, "note": 56, "velocity": 94, "channel": 0}, {"type": "note_on", "time": 133, "note": 56, "velocity": 97, "channel": 0}, {"type": "note_off", "time": 80, "note": 56, "velocity": 97, "channel": 0}, {"type": "note_on", "time": 16, "note": 55, "velocity": 99, "channel": 0}, {"type": "note_off", "time": 42, "note": 55, "velocity": 99, "channel": 0}, {"type": "note_on", "time": 35, "note": 53, "velocity": 100, "channel": 0}, {"type": "note_off", "time": 57, "note": 53, "velocity": 100, "channel": 0}, {"type": "note_on", "time": 643, "note": 56, "velocity": 102, "channel": 0}, {"type": "note_off", "time": 42, "note": 56, "velocity": 102, "channel": 0}, {"type": "note_on", "time": 11, "note": 55, "velocity": 99, "channel": 0}, {"type": "note_off", "time": 106, "note": 55, "velocity": 99, "channel": 0}, {"type": "note_on", "time": 92, "note": 56, "velocity": 88, "channel": 0}, {"type": "note_off", "time": 107, "note": 56, "velocity": 88, "channel": 0}, {"type": "note_on", "time": 8, "note": 60, "velocity": 87, "channel": 0}, {"type": "note_off", "time": 43, "note": 60, "velocity": 87, "channel": 0}, {"type": "note_on", "time": 3, "note": 65, "velocity": 101, "channel": 0}, {"type": "note_off", "time": 107, "note": 65, "velocity": 101, "channel": 0}, {"type": "note_on", "time": 96, "note": 67, "velocity": 70, "channel": 0}, {"type": "note_off", "time": 69, "note": 67, "velocity": 70, "channel": 0}, {"type": "note_on", "time": 25, "note": 68, "velocity": 96, "channel": 0}, {"type": "note_off", "time": 72, "note": 68, "velocity": 96, "channel": 0}, {"type": "note_on", "time": 12, "note": 72, "velocity": 90, "channel": 0}, {"type": "note_off", "time": 75, "note": 72, "velocity": 90, "channel": 0}, {"type": "note_on", "time": 24, "note": 77, "velocity": 108, "channel": 0}, {"type": "note_off", "time": 77, "note": 77, "velocity": 108, "channel": 0}, {"type": "note_on", "time": 20, "note": 75, "velocity": 98, "channel": 0}, {"type": "note_off", "time": 57, "note": 75, "velocity": 98, "channel": 0}, {"type": "note_on", "time": 5, "note": 76, "velocity": 95, "channel": 0}, {"type": "note_off", "time": 229, "note": 76, "velocity": 95, "channel": 0}, {"type": "note_on", "time": 94, "note": 75, "velocity": 112, "channel": 0}, {"type": "note_off", "time": 72, "note": 75, "velocity": 112, "channel": 0}, {"type": "note_on", "time": 27, "note": 74, "velocity": 104, "channel": 0}, {"type": "note_off", "time": 64, "note": 74, "velocity": 104, "channel": 0}, {"type": "note_on", "time": 30, "note": 73, "velocity": 94, "channel": 0}, {"type": "note_off", "time": 76, "note": 73, "velocity": 94, "channel": 0}, {"type": "note_on", "time": 17, "note": 72, "velocity": 94, "channel": 0}, {"type": "note_off", "time": 67, "note": 72, "velocity": 94, "channel": 0}, {"type": "note_on", "time": 22, "note": 70, "velocity": 88, "channel": 0}, {"type": "note_off", "time": 92, "note": 70, "velocity": 88, "channel": 0}, {"type": "note_on", "time": 17, "note": 70, "velocity": 86, "channel": 0}, {"type": "note_off", "time": 59, "note": 70, "velocity": 86, "channel": 0}, {"type": "note_on", "time": 12, "note": 72, "velocity": 86, "channel": 0}, {"type": "note_off", "time": 86, "note": 72, "velocity": 86, "channel": 0}, {"type": "note_on", "time": 61, "note": 70, "velocity": 77, "channel": 0}, {"type": "note_off", "time": 40, "note": 70, "velocity": 77, "channel": 0}, {"type": "note_on", "time": 5, "note": 75, "velocity": 89, "channel": 0}, {"type": "note_off", "time": 95, "note": 75, "velocity": 89, "channel": 0}, {"type": "note_on", "time": 41, "note": 72, "velocity": 76, "channel": 0}, {"type": "note_off", "time": 43, "note": 72, "velocity": 76, "channel": 0}, {"type": "end_of_track", "time": 0}]]}