{"ticks_per_beat": 192, "tracks": [[{"type": "track_name", "name": "Melody", "time": 0}, {"type": "set_tempo", "tempo": 480000, "time": 0}, {"type": "key_signature", "key": "Ab", "time": 0}, {"type": "time_signature", "numerator": 4, "denominator": 4, "clocks_per_click": 24, "notated_32nd_notes_per_beat": 8, "time": 0}, {"type": "note_on", "time": 2026, "note": 63, "velocity": 118, "channel": 0}, {"type": "note_off", "time": 39, "note": 63, "velocity": 118, "channel": 0}, {"type": "note_on", "time": 3, "note": 65, "velocity": 108, "channel": 0}, {"type": "note_off", "time": 28, "note": 65, "velocity": 108, "channel": 0}, {"type": "note_on", "time": 5, "note": 63, "velocity": 121, "channel": 0}, {"type": "note_off", "time": 43, "note": 63, "velocity": 121, "channel": 0}, {"type": "note_on", "time": 6, "note": 60, "velocity": 117, "channel": 0}, {"type": "note_off", "time": 55, "note": 60, "velocity": 117, "channel": 0}, {"type": "note_on", "time": 21, "note": 55, "velocity": 115, "channel": 0}, {"type": "note_off", "time": 266, "note": 55, "velocity": 115, "channel": 0}, {"type": "note_on", "time": 16, "note": 51, "velocity": 114, "channel": 0}, {"type": "note_off", "time": 85, "note": 51, "velocity": 114, "channel": 0}, {"type": "note_on", "time": 9, "note": 55, "velocity": 109, "channel": 0}, {"type": "note_off", "time": 264, "note": 55, "velocity": 109, "channel": 0}, {"type": "note_on", "time": 10, "note": 51, "velocity": 111, "channel": 0}, {"type": "note_off", "time": 102, "note": 51, "velocity": 111, "channel": 0}, {"type": "note_on", "time": 8, "note": 55, "velocity": 102, "channel": 0}, {"type": "note_off", "time": 525, "note": 55, "velocity": 102, "channel": 0}, {"type": "note_on", "time": 534, "note": 53, "velocity": 122, "channel": 0}, {"type": "note_off", "time": 257, "note": 53, "velocity": 122, "channel": 0}, {"type": "note_on", "time": 35, "note": 55, "velocity": 122, "channel": 0}, {"type": "note_off", "time": 112, "note": 55, "velocity": 122, "channel": 0}, {"type": "note_on", "time": 40, "note": 56, "velocity": 101, "channel": 0}, {"type": "note_off", "time": 398, "note": 56, "velocity": 101, "channel": 0}, {"type": "note_on", "time": 35, "note": 55, "velocity": 120, "channel": 0}, {"type": "note_off", "time": 135, "note": 55, "velocity": 120, "channel": 0}, {"type": "note_on", "time": 22, "note": 53, "velocity": 116, "channel": 0}, {"type": "note_off", "time": 106, "note": 53, "velocity": 116, "channel": 0}, {"type": "note_on", "time": 40, "note": 61, "velocity": 110, "channel": 0}, {"type": "note_off", "time": 343, "note": 61, "velocity": 110, "channel": 0}, {"type": "note_on", "time": 35, "note": 56, "velocity": 112, "channel": 0}, {"type": "note_off", "time": 56, "note": 56, "velocity": 112, "channel": 0}, {"type": "note_on", "time": 26, "note": 61, "velocity": 116, "channel": 0}, {"type": "note_off", "time": 103, "note": 61, "velocity": 116, "channel": 0}, {"type": "note_on", "time": 19, "note": 61, "velocity": 111, "channel": 0}, {"type": "note_off", "time": 138, "note": 61, "velocity": 111, "channel": 0}, {"type": "note_on", "time": 18, "note": 61, "velocity": 97, "channel": 0}, {"type": "note_off", "time": 414, "note": 61, "velocity": 97, "channel": 0}, {"type": "note_on", "time": 543, "note": 52, "velocity": 124, "channel": 0}, {"type": "note_off", "time": 130, "note": 52, "velocity": 124, "channel": 0}, {"type": "note_on", "time": 19, "note": 56, "velocity": 119, "channel": 0}, {"type": "note_off", "time": 68, "note": 56, "velocity": 119, "channel": 0}, {"type": "note_on", "time": 14, "note": 58, "velocity": 126, "channel": 0}, {"type": "note_off", "time": 57, "note": 58, "velocity": 126, "channel": 0}, {"type": "note_on", "time": 12, "note": 60, "velocity": 122, "channel": 0}, {"type": "note_off", "time": 62, "note": 60, "velocity": 122, "channel": 0}, {"type": "note_on", "time": 12, "note": 61, "velocity": 107, "channel": 0}, {"type": "note_off", "time": 446, "note": 61, "velocity": 107, "channel": 0}, {"type": "note_on", "time": 107, "note": 61, "velocity": 120, "channel": 0}, {"type": "note_off", "time": 39, "note": 61, "velocity": 120, "channel": 0}, {"type": "note_on", "time": 7, "note": 63, "velocity": 119, "channel": 0}, {"type": "note_off", "time": 28, "note": 63, "velocity": 119, "channel": 0}, {"type": "note_on", "time": 11, "note": 61, "velocity": 119, "channel": 0}, {"type": "note_off", "time": 78, "note": 61, "velocity": 119, "channel": 0}, {"type": "note_on", "time": 11, "note": 60, "velocity": 112, "channel": 0}, {"type": "note_off", "time": 140, "note": 60, "velocity": 112, "channel": 0}, {"type": "note_on", "time": 7, "note": 58, "velocity": 124, "channel": 0}, {"type": "note_off", "time": 94, "note": 58, "velocity": 124, "channel": 0}, {"type": "note_on", "time": 11, "note": 63, "velocity": 112, "channel": 0}, {"type": "note_off", "time": 351, "note": 63, "velocity": 112, "channel": 0}, {"type": "note_on", "time": 14, "note": 63, "velocity": 122, "channel": 0}, {"type": "note_off", "time": 151, "note": 63, "velocity": 122, "channel": 0}, {"type": "note_on", "time": 10, "note": 63, "velocity": 126, "channel": 0}, {"type": "note_off", "time": 102, "note": 63, "velocity": 126, "channel": 0}, {"type": "note_on", "time": 6, "note": 63, "velocity": 127, "channel": 0}, {"type": "note_off", "time": 114, "note": 63, "velocity": 127, "channel": 0}, {"type": "note_on", "time": 10, "note": 63, "velocity": 109, "channel": 0}, {"type": "note_off", "time": 247, "note": 63, "velocity": 109, "channel": 0}, {"type": "note_on", "time": 344, "note": 65, "velocity": 116, "channel": 0}, {"type": "note_off", "time": 157, "note": 65, "velocity": 116, "channel": 0}, {"type": "note_on", "time": 14, "note": 63, "velocity": 122, "channel": 0}, {"type": "note_off", "time": 68, "note": 63, "velocity": 122, "channel": 0}, {"type": "note_on", "time": 68, "note": 66, "velocity": 108, "channel": 0}, {"type": "note_off", "time": 139, "note": 66, "velocity": 108, "channel": 0}, {"type": "note_on", "time": 13, "note": 65, "velocity": 113, "channel": 0}, {"type": "note_off", "time": 103, "note": 65, "velocity": 113, "channel": 0}, {"type": "note_on", "time": 8, "note": 63, "velocity": 102, "channel": 0}, {"type": "note_off", "time": 632, "note": 63, "velocity": 102, "channel": 0}, {"type": "note_on", "time": 458, "note": 63, "velocity": 118, "channel": 0}, {"type": "note_off", "time": 42, "note": 63, "velocity": 118, "channel": 0}, {"type": "note_on", "time": 3, "note": 65, "velocity": 111, "channel": 0}, {"type": "note_off", "time": 32, "note": 65, "velocity": 111, "channel": 0}, {"type": "note_on", "time": 3, "note": 63, "velocity": 117, "channel": 0}, {"type": "note_off", "time": 62, "note": 63, "velocity": 117, "channel": 0}, {"type": "note_on", "time": 6, "note": 61, "velocity": 102, "channel": 0}, {"type": "note_off", "time": 431, "note": 61, "velocity": 102, "channel": 0}, {"type": "note_on", "time": 30, "note": 63, "velocity": 119, "channel": 0}, {"type": "note_off", "time": 173, "note": 63, "velocity": 119, "channel": 0}, {"type": "note_on", "time": 10, "note": 61, "velocity": 112, "channel": 0}, {"type": "note_off", "time": 85, "note": 61, "velocity": 112, "channel": 0}, {"type": "note_on", "time": 2, "note": 58, "velocity": 93, "channel": 0}, {"type": "note_off", "time": 30, "note": 58, "velocity": 93, "channel": 0}, {"type": "note_on", "time": 6, "note": 64, "velocity": 112, "channel": 0}, {"type": "note_off", "time": 163, "note": 64, "velocity": 112, "channel": 0}, {"type": "note_on", "time": 6, "note": 63, "velocity": 121, "channel": 0}, {"type": "note_off", "time": 96, "note": 63, "velocity": 121, "channel": 0}, {"type": "note_on", "time": 13, "note": 61, "velocity": 97, "channel": 0}, {"type": "note_off", "time": 424, "note": 61, "velocity": 97, "channel": 0}, {"type": "note_on", "time": 342, "note": 59, "velocity": 113, "channel": 0}, {"type": "note_off", "time": 283, "note": 59, "velocity": 113, "channel": 0}, {"type": "note_on", "time": 24, "note": 56, "velocity": 117, "channel": 0}, {"type": "note_off", "time": 85, "note": 56, "velocity": 117, "channel": 0}, {"type": "note_on", "time": 8, "note": 53, "velocity": 120, "channel": 0}, {"type": "note_off", "time": 60, "note": 53, "velocity": 120, "channel": 0}, {"type": "note_on", "time": 28, "note": 58, "velocity": 110, "channel": 0}, {"type": "note_off", "time": 294, "note": 58, "velocity": 110, "channel": 0}, {"type": "note_on", "time": 9, "note": 55, "velocity": 113, "channel": 0}, {"type": "note_off", "time": 138, "note": 55, "velocity": 113, "channel": 0}, {"type": "note_on", "time": 35, "note": 49, "velocity": 122, "channel": 0}, {"type": "note_off", "time": 96, "note": 49, "velocity": 122, "channel": 0}, {"type": "note_on", "time": 20, "note": 51, "velocity": 123, "channel": 0}, {"type": "note_off", "time": 93, "note": 51, "velocity": 123, "channel": 0}, {"type": "note_on", "time": 16, "note": 53, "velocity": 118, "channel": 0}, {"type": "note_off", "time": 86, "note": 53, "velocity": 118, "channel": 0}, {"type": "note_on", "time": 16, "note": 55, "velocity": 116, "channel": 0}, {"type": "note_off", "time": 238, "note": 55, "velocity": 116, "channel": 0}, {"type": "note_on", "time": 19, "note": 51, "velocity": 109, "channel": 0}, {"type": "note_off", "time": 69, "note": 51, "velocity": 109, "channel": 0}, {"type": "note_on", "time": 19, "note": 55, "velocity": 117, "channel": 0}, {"type": "note_off", "time": 100, "note": 55, "velocity": 117, "channel": 0}, {"type": "note_on", "time": 11, "note": 63, "velocity": 120, "channel": 0}, {"type": "note_off", "time": 89, "note": 63, "velocity": 120, "channel": 0}, {"type": "note_on", "time": 8, "note": 60, "velocity": 111, "channel": 0}, {"type": "note_off", "time": 84, "note": 60, "velocity": 111, "channel": 0}, {"type": "note_on", "time": 19, "note": 55, "velocity": 105, "channel": 0}, {"type": "note_off", "time": 613, "note": 55, "velocity": 105, "channel": 0}, {"type": "note_on", "time": 609, "note": 53, "velocity": 118, "channel": 0}, {"type": "note_off", "time": 298, "note": 53, "velocity": 118, "channel": 0}, {"type": "note_on", "time": 17, "note": 55, "velocity": 117, "channel": 0}, {"type": "note_off", "time": 110, "note": 55, "velocity": 117, "channel": 0}, {"type": "note_on", "time": 10, "note": 56, "velocity": 104, "channel": 0}, {"type": "note_off", "time": 352, "note": 56, "velocity": 104, "channel": 0}, {"type": "note_on", "time": 13, "note": 55, "velocity": 115, "channel": 0}, {"type": "note_off", "time": 155, "note": 55, "velocity": 115, "channel": 0}, {"type": "note_on", "time": 26, "note": 53, "velocity": 111, "channel": 0}, {"type": "note_off", "time": 119, "note": 53, "velocity": 111, "channel": 0}, {"type": "note_on", "time": 50, "note": 61, "velocity": 101, "channel": 0}, {"type": "note_off", "time": 402, "note": 61, "velocity": 101, "channel": 0}, {"type": "note_on", "time": 80, "note": 61, "velocity": 118, "channel": 0}, {"type": "note_off", "time": 105, "note": 61, "velocity": 118, "channel": 0}, {"type": "note_on", "time": 54, "note": 61, "velocity": 109, "channel": 0}, {"type": "note_off", "time": 107, "note": 61, "velocity": 109, "channel": 0}, {"type": "note_on", "time": 15, "note": 61, "velocity": 94, "channel": 0}, {"type": "note_off", "time": 561, "note": 61, "velocity": 94, "channel": 0}, {"type": "note_on", "time": 341, "note": 52, "velocity": 123, "channel": 0}, {"type": "note_off", "time": 84, "note": 52, "velocity": 123, "channel": 0}, {"type": "note_on", "time": 13, "note": 56, "velocity": 118, "channel": 0}, {"type": "note_off", "time": 87, "note": 56, "velocity": 118, "channel": 0}, {"type": "note_on", "time": 16, "note": 61, "velocity": 102, "channel": 0}, {"type": "note_off", "time": 602, "note": 61, "velocity": 102, "channel": 0}, {"type": "note_on", "time": 135, "note": 61, "velocity": 120, "channel": 0}, {"type": "note_off", "time": 46, "note": 61, "velocity": 120, "channel": 0}, {"type": "note_on", "time": 4, "note": 63, "velocity": 118, "channel": 0}, {"type": "note_off", "time": 26, "note": 63, "velocity": 118, "channel": 0}, {"type": "note_on", "time": 12, "note": 61, "velocity": 116, "channel": 0}, {"type": "note_off", "time": 98, "note": 61, "velocity": 116, "channel": 0}, {"type": "note_on", "time": 7, "note": 60, "velocity": 114, "channel": 0}, {"type": "note_off", "time": 67, "note": 60, "velocity": 114, "channel": 0}, {"type": "note_on", "time": 66, "note": 58, "velocity": 121, "channel": 0}, {"type": "note_off", "time": 89, "note": 58, "velocity": 121, "channel": 0}, {"type": "note_on", "time": 64, "note": 63, "velocity": 115, "channel": 0}, {"type": "note_off", "time": 262, "note": 63, "velocity": 115, "channel": 0}, {"type": "note_on", "time": 28, "note": 63, "velocity": 123, "channel": 0}, {"type": "note_off", "time": 144, "note": 63, "velocity": 123, "channel": 0}, {"type": "note_on", "time": 12, "note": 63, "velocity": 120, "channel": 0}, {"type": "note_off", "time": 112, "note": 63, "velocity": 120, "channel": 0}, {"type": "note_on", "time": 9, "note": 63, "velocity": 126, "channel": 0}, {"type": "note_off", "time": 102, "note": 63, "velocity": 126, "channel": 0}, {"type": "note_on", "time": 17, "note": 63, "velocity": 113, "channel": 0}, {"type": "note_off", "time": 220, "note": 63, "velocity": 113, "channel": 0}, {"type": "note_on", "time": 341, "note": 65, "velocity": 120, "channel": 0}, {"type": "note_off", "time": 177, "note": 65, "velocity": 120, "channel": 0}, {"type": "note_on", "time": 4, "note": 63, "velocity": 122, "channel": 0}, {"type": "note_off", "time": 94, "note": 63, "velocity": 122, "channel": 0}, {"type": "note_on", "time": 51, "note": 66, "velocity": 95, "channel": 0}, {"type": "note_off", "time": 492, "note": 66, "velocity": 95, "channel": 0}, {"type": "note_on", "time": 140, "note": 63, "velocity": 124, "channel": 0}, {"type": "note_off", "time": 128, "note": 63, "velocity": 124, "channel": 0}, {"type": "note_on", "time": 43, "note": 67, "velocity": 113, "channel": 0}, {"type": "note_off", "time": 268, "note": 67, "velocity": 113, "channel": 0}, {"type": "note_on", "time": 25, "note": 63, "velocity": 123, "channel": 0}, {"type": "note_off", "time": 97, "note": 63, "velocity": 123, "channel": 0}, {"type": "note_on", "time": 87, "note": 65, "velocity": 119, "channel": 0}, {"type": "note_off", "time": 118, "note": 65, "velocity": 119, "channel": 0}, {"type": "note_on", "time": 13, "note": 63, "velocity": 117, "channel": 0}, {"type": "note_off", "time": 40, "note": 63, "velocity": 117, "channel": 0}, {"type": "note_on", "time": 35, "note": 68, "velocity": 94, "channel": 0}, {"type": "note_off", "time": 304, "note": 68, "velocity": 94, "channel": 0}, {"type": "note_on", "time": 104, "note": 68, "velocity": 111, "channel": 0}, {"type": "note_off", "time": 134, "note": 68, "velocity": 111, "channel": 0}, {"type": "note_on", "time": 27, "note": 68, "velocity": 113, "channel": 0}, {"type": "note_off", "time": 127, "note": 68, "velocity": 113, "channel": 0}, {"type": "note_on", "time": 16, "note": 68, "velocity": 10, "channel": 0}, {"type": "note_off", "time": 218, "note": 68, "velocity": 10, "channel": 0}, {"type": "note_on", "time": 145, "note": 68, "velocity": 122, "channel": 0}, {"type": "note_off", "time": 87, "note": 68, "velocity": 122, "channel": 0}, {"type": "note_on", "time": 20, "note": 64, "velocity": 117, "channel": 0}, {"type": "note_off", "time": 80, "note": 64, "velocity": 117, "channel": 0}, {"type": "note_on", "time": 11, "note": 61, "velocity": 114, "channel": 0}, {"type": "note_off", "time": 67, "note": 61, "velocity": 114, "channel": 0}, {"type": "note_on", "time": 44, "note": 58, "velocity": 123, "channel": 0}, {"type": "note_off", "time": 58, "note": 58, "velocity": 123, "channel": 0}, {"type": "note_on", "time": 20, "note": 53, "velocity": 111, "channel": 0}, {"type": "note_off", "time": 53, "note": 53, "velocity": 111, "channel": 0}, {"type": "note_on", "time": 29, "note": 56, "velocity": 100, "channel": 0}, {"type": "note_off", "time": 340, "note": 56, "velocity": 100, "channel": 0}, {"type": "note_on", "time": 321, "note": 56, "velocity": 114, "channel": 0}, {"type": "note_off", "time": 80, "note": 56, "velocity": 114, "channel": 0}, {"type": "note_on", "time": 21, "note": 60, "velocity": 109, "channel": 0}, {"type": "note_off", "time": 76, "note": 60, "velocity": 109, "channel": 0}, {"type": "note_on", "time": 28, "note": 56, "velocity": 103, "channel": 0}, {"type": "note_off", "time": 59, "note": 56, "velocity": 103, "channel": 0}, {"type": "note_on", "time": 5, "note": 60, "velocity": 104, "channel": 0}, {"type": "note_off", "time": 98, "note": 60, "velocity": 104, "channel": 0}, {"type": "note_on", "time": 123, "note": 56, "velocity": 100, "channel": 0}, {"type": "note_off", "time": 154, "note": 56, "velocity": 100, "channel": 0}, {"type": "note_on", "time": 69, "note": 53, "velocity": 110, "channel": 0}, {"type": "note_off", "time": 77, "note": 53, "velocity": 110, "channel": 0}, {"type": "note_on", "time": 19, "note": 55, "velocity": 100, "channel": 0}, {"type": "note_off", "time": 255, "note": 55, "velocity": 100, "channel": 0}, {"type": "end_of_track", "time": 0}]]}