{"ticks_per_beat": 192, "tracks": [[{"type": "track_name", "name": "Melody", "time": 0}, {"type": "set_tempo", "tempo": 487804, "time": 0}, {"type": "key_signature", "key": "Ab", "time": 0}, {"type": "time_signature", "numerator": 4, "denominator": 4, "clocks_per_click": 24, "notated_32nd_notes_per_beat": 8, "time": 0}, {"type": "note_on", "time": 2239, "note": 56, "velocity": 117, "channel": 0}, {"type": "note_off", "time": 88, "note": 56, "velocity": 117, "channel": 0}, {"type": "note_on", "time": 6, "note": 55, "velocity": 115, "channel": 0}, {"type": "note_off", "time": 97, "note": 55, "velocity": 115, "channel": 0}, {"type": "note_on", "time": 20, "note": 55, "velocity": 112, "channel": 0}, {"type": "note_off", "time": 85, "note": 55, "velocity": 112, "channel": 0}, {"type": "note_on", "time": 69, "note": 56, "velocity": 120, "channel": 0}, {"type": "note_off", "time": 78, "note": 56, "velocity": 120, "channel": 0}, {"type": "note_on", "time": 15, "note": 55, "velocity": 113, "channel": 0}, {"type": "note_off", "time": 110, "note": 55, "velocity": 113, "channel": 0}, {"type": "note_on", "time": 11, "note": 55, "velocity": 104, "channel": 0}, {"type": "note_off", "time": 265, "note": 55, "velocity": 104, "channel": 0}, {"type": "note_on", "time": 68, "note": 51, "velocity": 112, "channel": 0}, {"type": "note_off", "time": 123, "note": 51, "velocity": 112, "channel": 0}, {"type": "note_on", "time": 10, "note": 55, "velocity": 112, "channel": 0}, {"type": "note_off", "time": 272, "note": 55, "velocity": 112, "channel": 0}, {"type": "note_on", "time": 420, "note": 53, "velocity": 118, "channel": 0}, {"type": "note_off", "time": 270, "note": 53, "velocity": 118, "channel": 0}, {"type": "note_on", "time": 35, "note": 55, "velocity": 116, "channel": 0}, {"type": "note_off", "time": 114, "note": 55, "velocity": 116, "channel": 0}, {"type": "note_on", "time": 48, "note": 56, "velocity": 114, "channel": 0}, {"type": "note_off", "time": 190, "note": 56, "velocity": 114, "channel": 0}, {"type": "note_on", "time": 14, "note": 55, "velocity": 120, "channel": 0}, {"type": "note_off", "time": 60, "note": 55, "velocity": 120, "channel": 0}, {"type": "note_on", "time": 2, "note": 56, "velocity": 117, "channel": 0}, {"type": "note_off", "time": 24, "note": 56, "velocity": 117, "channel": 0}, {"type": "note_on", "time": 6, "note": 55, "velocity": 125, "channel": 0}, {"type": "note_off", "time": 54, "note": 55, "velocity": 125, "channel": 0}, {"type": "note_on", "time": 5, "note": 53, "velocity": 120, "channel": 0}, {"type": "note_off", "time": 40, "note": 53, "velocity": 120, "channel": 0}, {"type": "note_on", "time": 10, "note": 52, "velocity": 115, "channel": 0}, {"type": "note_off", "time": 95, "note": 52, "velocity": 115, "channel": 0}, {"type": "note_on", "time": 8, "note": 53, "velocity": 118, "channel": 0}, {"type": "note_off", "time": 76, "note": 53, "velocity": 118, "channel": 0}, {"type": "note_on", "time": 21, "note": 55, "velocity": 112, "channel": 0}, {"type": "note_off", "time": 115, "note": 55, "velocity": 112, "channel": 0}, {"type": "note_on", "time": 16, "note": 56, "velocity": 115, "channel": 0}, {"type": "note_off", "time": 77, "note": 56, "velocity": 115, "channel": 0}, {"type": "note_on", "time": 23, "note": 61, "velocity": 111, "channel": 0}, {"type": "note_off", "time": 229, "note": 61, "velocity": 111, "channel": 0}, {"type": "note_on", "time": 10, "note": 56, "velocity": 114, "channel": 0}, {"type": "note_off", "time": 63, "note": 56, "velocity": 114, "channel": 0}, {"type": "note_on", "time": 29, "note": 61, "velocity": 112, "channel": 0}, {"type": "note_off", "time": 134, "note": 61, "velocity": 112, "channel": 0}, {"type": "note_on", "time": 18, "note": 61, "velocity": 114, "channel": 0}, {"type": "note_off", "time": 133, "note": 61, "velocity": 114, "channel": 0}, {"type": "note_on", "time": 26, "note": 61, "velocity": 98, "channel": 0}, {"type": "note_off", "time": 331, "note": 61, "velocity": 98, "channel": 0}, {"type": "note_on", "time": 238, "note": 56, "velocity": 115, "channel": 0}, {"type": "note_off", "time": 51, "note": 56, "velocity": 115, "channel": 0}, {"type": "note_on", "time": 28, "note": 61, "velocity": 118, "channel": 0}, {"type": "note_off", "time": 91, "note": 61, "velocity": 118, "channel": 0}, {"type": "note_on", "time": 11, "note": 63, "velocity": 117, "channel": 0}, {"type": "note_off", "time": 89, "note": 63, "velocity": 117, "channel": 0}, {"type": "note_on", "time": 9, "note": 61, "velocity": 112, "channel": 0}, {"type": "note_off", "time": 79, "note": 61, "velocity": 112, "channel": 0}, {"type": "note_on", "time": 12, "note": 63, "velocity": 116, "channel": 0}, {"type": "note_off", "time": 92, "note": 63, "velocity": 116, "channel": 0}, {"type": "note_on", "time": 9, "note": 64, "velocity": 113, "channel": 0}, {"type": "note_off", "time": 191, "note": 64, "velocity": 113, "channel": 0}, {"type": "note_on", "time": 12, "note": 63, "velocity": 115, "channel": 0}, {"type": "note_off", "time": 85, "note": 63, "velocity": 115, "channel": 0}, {"type": "note_on", "time": 10, "note": 61, "velocity": 112, "channel": 0}, {"type": "note_off", "time": 79, "note": 61, "velocity": 112, "channel": 0}, {"type": "note_on", "time": 31, "note": 56, "velocity": 111, "channel": 0}, {"type": "note_off", "time": 62, "note": 56, "velocity": 111, "channel": 0}, {"type": "note_on", "time": 11, "note": 52, "velocity": 110, "channel": 0}, {"type": "note_off", "time": 59, "note": 52, "velocity": 110, "channel": 0}, {"type": "note_on", "time": 15, "note": 56, "velocity": 105, "channel": 0}, {"type": "note_off", "time": 186, "note": 56, "velocity": 105, "channel": 0}, {"type": "note_on", "time": 20, "note": 52, "velocity": 103, "channel": 0}, {"type": "note_off", "time": 89, "note": 52, "velocity": 103, "channel": 0}, {"type": "note_on", "time": 6, "note": 61, "velocity": 116, "channel": 0}, {"type": "note_off", "time": 96, "note": 61, "velocity": 116, "channel": 0}, {"type": "note_on", "time": 10, "note": 60, "velocity": 107, "channel": 0}, {"type": "note_off", "time": 190, "note": 60, "velocity": 107, "channel": 0}, {"type": "note_on", "time": 24, "note": 58, "velocity": 115, "channel": 0}, {"type": "note_off", "time": 88, "note": 58, "velocity": 115, "channel": 0}, {"type": "note_on", "time": 50, "note": 63, "velocity": 118, "channel": 0}, {"type": "note_off", "time": 308, "note": 63, "velocity": 118, "channel": 0}, {"type": "note_on", "time": 10, "note": 60, "velocity": 97, "channel": 0}, {"type": "note_off", "time": 51, "note": 60, "velocity": 97, "channel": 0}, {"type": "note_on", "time": 13, "note": 63, "velocity": 114, "channel": 0}, {"type": "note_off", "time": 259, "note": 63, "velocity": 114, "channel": 0}, {"type": "note_on", "time": 43, "note": 63, "velocity": 117, "channel": 0}, {"type": "note_off", "time": 118, "note": 63, "velocity": 117, "channel": 0}, {"type": "note_on", "time": 9, "note": 63, "velocity": 119, "channel": 0}, {"type": "note_off", "time": 105, "note": 63, "velocity": 119, "channel": 0}, {"type": "note_on", "time": 14, "note": 65, "velocity": 102, "channel": 0}, {"type": "note_off", "time": 201, "note": 65, "velocity": 102, "channel": 0}, {"type": "note_on", "time": 330, "note": 63, "velocity": 120, "channel": 0}, {"type": "note_off", "time": 87, "note": 63, "velocity": 120, "channel": 0}, {"type": "note_on", "time": 62, "note": 66, "velocity": 101, "channel": 0}, {"type": "note_off", "time": 507, "note": 66, "velocity": 101, "channel": 0}, {"type": "note_on", "time": 10, "note": 65, "velocity": 111, "channel": 0}, {"type": "note_off", "time": 100, "note": 65, "velocity": 111, "channel": 0}, {"type": "note_on", "time": 13, "note": 63, "velocity": 110, "channel": 0}, {"type": "note_off", "time": 378, "note": 63, "velocity": 110, "channel": 0}, {"type": "note_on", "time": 576, "note": 53, "velocity": 119, "channel": 0}, {"type": "note_off", "time": 83, "note": 53, "velocity": 119, "channel": 0}, {"type": "note_on", "time": 18, "note": 58, "velocity": 125, "channel": 0}, {"type": "note_off", "time": 85, "note": 58, "velocity": 125, "channel": 0}, {"type": "note_on", "time": 10, "note": 60, "velocity": 119, "channel": 0}, {"type": "note_off", "time": 86, "note": 60, "velocity": 119, "channel": 0}, {"type": "note_on", "time": 6, "note": 61, "velocity": 120, "channel": 0}, {"type": "note_off", "time": 107, "note": 61, "velocity": 120, "channel": 0}, {"type": "note_on", "time": 12, "note": 63, "velocity": 118, "channel": 0}, {"type": "note_off", "time": 133, "note": 63, "velocity": 118, "channel": 0}, {"type": "note_on", "time": 17, "note": 61, "velocity": 116, "channel": 0}, {"type": "note_off", "time": 89, "note": 61, "velocity": 116, "channel": 0}, {"type": "note_on", "time": 42, "note": 64, "velocity": 115, "channel": 0}, {"type": "note_off", "time": 145, "note": 64, "velocity": 115, "channel": 0}, {"type": "note_on", "time": 10, "note": 63, "velocity": 121, "channel": 0}, {"type": "note_off", "time": 112, "note": 63, "velocity": 121, "channel": 0}, {"type": "note_on", "time": 16, "note": 61, "velocity": 103, "channel": 0}, {"type": "note_off", "time": 314, "note": 61, "velocity": 103, "channel": 0}, {"type": "note_on", "time": 25, "note": 63, "velocity": 118, "channel": 0}, {"type": "note_off", "time": 63, "note": 63, "velocity": 118, "channel": 0}, {"type": "note_on", "time": 14, "note": 61, "velocity": 110, "channel": 0}, {"type": "note_off", "time": 73, "note": 61, "velocity": 110, "channel": 0}, {"type": "note_on", "time": 16, "note": 59, "velocity": 100, "channel": 0}, {"type": "note_off", "time": 310, "note": 59, "velocity": 100, "channel": 0}, {"type": "note_on", "time": 56, "note": 65, "velocity": 113, "channel": 0}, {"type": "note_off", "time": 75, "note": 65, "velocity": 113, "channel": 0}, {"type": "note_on", "time": 11, "note": 63, "velocity": 114, "channel": 0}, {"type": "note_off", "time": 66, "note": 63, "velocity": 114, "channel": 0}, {"type": "note_on", "time": 27, "note": 59, "velocity": 112, "channel": 0}, {"type": "note_off", "time": 85, "note": 59, "velocity": 112, "channel": 0}, {"type": "note_on", "time": 4, "note": 53, "velocity": 104, "channel": 0}, {"type": "note_off", "time": 45, "note": 53, "velocity": 104, "channel": 0}, {"type": "note_on", "time": 27, "note": 58, "velocity": 106, "channel": 0}, {"type": "note_off", "time": 228, "note": 58, "velocity": 106, "channel": 0}, {"type": "note_on", "time": 308, "note": 56, "velocity": 113, "channel": 0}, {"type": "note_off", "time": 65, "note": 56, "velocity": 113, "channel": 0}, {"type": "note_on", "time": 13, "note": 58, "velocity": 122, "channel": 0}, {"type": "note_off", "time": 40, "note": 58, "velocity": 122, "channel": 0}, {"type": "note_on", "time": 17, "note": 56, "velocity": 116, "channel": 0}, {"type": "note_off", "time": 71, "note": 56, "velocity": 116, "channel": 0}, {"type": "note_on", "time": 11, "note": 55, "velocity": 114, "channel": 0}, {"type": "note_off", "time": 297, "note": 55, "velocity": 114, "channel": 0}, {"type": "note_on", "time": 10, "note": 55, "velocity": 120, "channel": 0}, {"type": "note_off", "time": 75, "note": 55, "velocity": 120, "channel": 0}, {"type": "note_on", "time": 14, "note": 55, "velocity": 116, "channel": 0}, {"type": "note_off", "time": 221, "note": 55, "velocity": 116, "channel": 0}, {"type": "note_on", "time": 21, "note": 55, "velocity": 116, "channel": 0}, {"type": "note_off", "time": 133, "note": 55, "velocity": 116, "channel": 0}, {"type": "note_on", "time": 26, "note": 55, "velocity": 109, "channel": 0}, {"type": "note_off", "time": 524, "note": 55, "velocity": 109, "channel": 0}, {"type": "note_on", "time": 39, "note": 63, "velocity": 114, "channel": 0}, {"type": "note_off", "time": 18, "note": 63, "velocity": 114, "channel": 0}, {"type": "note_on", "time": 2, "note": 64, "velocity": 108, "channel": 0}, {"type": "note_off", "time": 18, "note": 64, "velocity": 108, "channel": 0}, {"type": "note_on", "time": 6, "note": 63, "velocity": 117, "channel": 0}, {"type": "note_off", "time": 54, "note": 63, "velocity": 117, "channel": 0}, {"type": "note_on", "time": 2, "note": 60, "velocity": 113, "channel": 0}, {"type": "note_off", "time": 42, "note": 60, "velocity": 113, "channel": 0}, {"type": "note_on", "time": 15, "note": 55, "velocity": 113, "channel": 0}, {"type": "note_off", "time": 77, "note": 55, "velocity": 113, "channel": 0}, {"type": "note_on", "time": 8, "note": 53, "velocity": 108, "channel": 0}, {"type": "note_off", "time": 327, "note": 53, "velocity": 108, "channel": 0}, {"type": "note_on", "time": 310, "note": 53, "velocity": 121, "channel": 0}, {"type": "note_off", "time": 93, "note": 53, "velocity": 121, "channel": 0}, {"type": "note_on", "time": 13, "note": 55, "velocity": 123, "channel": 0}, {"type": "note_off", "time": 91, "note": 55, "velocity": 123, "channel": 0}, {"type": "note_on", "time": 12, "note": 56, "velocity": 117, "channel": 0}, {"type": "note_off", "time": 88, "note": 56, "velocity": 117, "channel": 0}, {"type": "note_on", "time": 12, "note": 55, "velocity": 121, "channel": 0}, {"type": "note_off", "time": 70, "note": 55, "velocity": 121, "channel": 0}, {"type": "note_on", "time": 13, "note": 53, "velocity": 110, "channel": 0}, {"type": "note_off", "time": 47, "note": 53, "velocity": 110, "channel": 0}, {"type": "note_on", "time": 28, "note": 56, "velocity": 111, "channel": 0}, {"type": "note_off", "time": 200, "note": 56, "velocity": 111, "channel": 0}, {"type": "note_on", "time": 6, "note": 55, "velocity": 113, "channel": 0}, {"type": "note_off", "time": 77, "note": 55, "velocity": 113, "channel": 0}, {"type": "note_on", "time": 16, "note": 53, "velocity": 110, "channel": 0}, {"type": "note_off", "time": 36, "note": 53, "velocity": 110, "channel": 0}, {"type": "note_on", "time": 42, "note": 61, "velocity": 118, "channel": 0}, {"type": "note_off", "time": 150, "note": 61, "velocity": 118, "channel": 0}, {"type": "note_on", "time": 27, "note": 61, "velocity": 117, "channel": 0}, {"type": "note_off", "time": 156, "note": 61, "velocity": 117, "channel": 0}, {"type": "note_on", "time": 38, "note": 61, "velocity": 111, "channel": 0}, {"type": "note_off", "time": 208, "note": 61, "velocity": 111, "channel": 0}, {"type": "note_on", "time": 24, "note": 56, "velocity": 115, "channel": 0}, {"type": "note_off", "time": 48, "note": 56, "velocity": 115, "channel": 0}, {"type": "note_on", "time": 16, "note": 53, "velocity": 109, "channel": 0}, {"type": "note_off", "time": 65, "note": 53, "velocity": 109, "channel": 0}, {"type": "note_on", "time": 13, "note": 61, "velocity": 121, "channel": 0}, {"type": "note_off", "time": 125, "note": 61, "velocity": 121, "channel": 0}, {"type": "note_on", "time": 16, "note": 61, "velocity": 108, "channel": 0}, {"type": "note_off", "time": 227, "note": 61, "velocity": 108, "channel": 0}, {"type": "note_on", "time": 217, "note": 56, "velocity": 116, "channel": 0}, {"type": "note_off", "time": 52, "note": 56, "velocity": 116, "channel": 0}, {"type": "note_on", "time": 4, "note": 55, "velocity": 120, "channel": 0}, {"type": "note_off", "time": 26, "note": 55, "velocity": 120, "channel": 0}, {"type": "note_on", "time": 7, "note": 54, "velocity": 119, "channel": 0}, {"type": "note_off", "time": 32, "note": 54, "velocity": 119, "channel": 0}, {"type": "note_on", "time": 10, "note": 53, "velocity": 119, "channel": 0}, {"type": "note_off", "time": 59, "note": 53, "velocity": 119, "channel": 0}, {"type": "note_on", "time": 6, "note": 52, "velocity": 111, "channel": 0}, {"type": "note_off", "time": 203, "note": 52, "velocity": 111, "channel": 0}, {"type": "note_on", "time": 13, "note": 56, "velocity": 117, "channel": 0}, {"type": "note_off", "time": 79, "note": 56, "velocity": 117, "channel": 0}, {"type": "note_on", "time": 14, "note": 58, "velocity": 118, "channel": 0}, {"type": "note_off", "time": 93, "note": 58, "velocity": 118, "channel": 0}, {"type": "note_on", "time": 10, "note": 60, "velocity": 115, "channel": 0}, {"type": "note_off", "time": 75, "note": 60, "velocity": 115, "channel": 0}, {"type": "note_on", "time": 11, "note": 61, "velocity": 117, "channel": 0}, {"type": "note_off", "time": 91, "note": 61, "velocity": 117, "channel": 0}, {"type": "note_on", "time": 20, "note": 60, "velocity": 112, "channel": 0}, {"type": "note_off", "time": 84, "note": 60, "velocity": 112, "channel": 0}, {"type": "note_on", "time": 15, "note": 58, "velocity": 105, "channel": 0}, {"type": "note_off", "time": 37, "note": 58, "velocity": 105, "channel": 0}, {"type": "note_on", "time": 18, "note": 60, "velocity": 104, "channel": 0}, {"type": "note_off", "time": 232, "note": 60, "velocity": 104, "channel": 0}, {"type": "note_on", "time": 261, "note": 61, "velocity": 118, "channel": 0}, {"type": "note_off", "time": 73, "note": 61, "velocity": 118, "channel": 0}, {"type": "note_on", "time": 31, "note": 65, "velocity": 119, "channel": 0}, {"type": "note_off", "time": 69, "note": 65, "velocity": 119, "channel": 0}, {"type": "note_on", "time": 12, "note": 64, "velocity": 118, "channel": 0}, {"type": "note_off", "time": 70, "note": 64, "velocity": 118, "channel": 0}, {"type": "note_on", "time": 14, "note": 63, "velocity": 113, "channel": 0}, {"type": "note_off", "time": 273, "note": 63, "velocity": 113, "channel": 0}, {"type": "note_on", "time": 15, "note": 63, "velocity": 114, "channel": 0}, {"type": "note_off", "time": 133, "note": 63, "velocity": 114, "channel": 0}, {"type": "note_on", "time": 19, "note": 63, "velocity": 118, "channel": 0}, {"type": "note_off", "time": 113, "note": 63, "velocity": 118, "channel": 0}, {"type": "note_on", "time": 18, "note": 63, "velocity": 112, "channel": 0}, {"type": "note_off", "time": 111, "note": 63, "velocity": 112, "channel": 0}, {"type": "note_on", "time": 15, "note": 63, "velocity": 107, "channel": 0}, {"type": "note_off", "time": 214, "note": 63, "velocity": 107, "channel": 0}, {"type": "note_on", "time": 337, "note": 65, "velocity": 116, "channel": 0}, {"type": "note_off", "time": 170, "note": 65, "velocity": 116, "channel": 0}, {"type": "note_on", "time": 8, "note": 63, "velocity": 123, "channel": 0}, {"type": "note_off", "time": 66, "note": 63, "velocity": 123, "channel": 0}, {"type": "note_on", "time": 53, "note": 66, "velocity": 112, "channel": 0}, {"type": "note_off", "time": 523, "note": 66, "velocity": 112, "channel": 0}, {"type": "note_on", "time": 15, "note": 63, "velocity": 117, "channel": 0}, {"type": "note_off", "time": 91, "note": 63, "velocity": 117, "channel": 0}, {"type": "note_on", "time": 94, "note": 67, "velocity": 110, "channel": 0}, {"type": "note_off", "time": 270, "note": 67, "velocity": 110, "channel": 0}, {"type": "note_on", "time": 253, "note": 59, "velocity": 115, "channel": 0}, {"type": "note_off", "time": 44, "note": 59, "velocity": 115, "channel": 0}, {"type": "note_on", "time": 24, "note": 60, "velocity": 111, "channel": 0}, {"type": "note_off", "time": 50, "note": 60, "velocity": 111, "channel": 0}, {"type": "note_on", "time": 12, "note": 63, "velocity": 10, "channel": 0}, {"type": "note_off", "time": 41, "note": 63, "velocity": 10, "channel": 0}, {"type": "note_on", "time": 7, "note": 65, "velocity": 123, "channel": 0}, {"type": "note_off", "time": 60, "note": 65, "velocity": 123, "channel": 0}, {"type": "note_on", "time": 39, "note": 68, "velocity": 109, "channel": 0}, {"type": "note_off", "time": 287, "note": 68, "velocity": 109, "channel": 0}, {"type": "note_on", "time": 12, "note": 68, "velocity": 116, "channel": 0}, {"type": "note_off", "time": 98, "note": 68, "velocity": 116, "channel": 0}, {"type": "note_on", "time": 9, "note": 68, "velocity": 117, "channel": 0}, {"type": "note_off", "time": 103, "note": 68, "velocity": 117, "channel": 0}, {"type": "note_on", "time": 60, "note": 68, "velocity": 113, "channel": 0}, {"type": "note_off", "time": 69, "note": 68, "velocity": 113, "channel": 0}, {"type": "note_on", "time": 31, "note": 68, "velocity": 116, "channel": 0}, {"type": "note_off", "time": 86, "note": 68, "velocity": 116, "channel": 0}, {"type": "note_on", "time": 15, "note": 68, "velocity": 94, "channel": 0}, {"type": "note_off", "time": 254, "note": 68, "velocity": 94, "channel": 0}, {"type": "note_on", "time": 26, "note": 68, "velocity": 116, "channel": 0}, {"type": "note_off", "time": 86, "note": 68, "velocity": 116, "channel": 0}, {"type": "note_on", "time": 17, "note": 68, "velocity": 114, "channel": 0}, {"type": "note_off", "time": 119, "note": 68, "velocity": 114, "channel": 0}, {"type": "note_on", "time": 44, "note": 68, "velocity": 108, "channel": 0}, {"type": "note_off", "time": 95, "note": 68, "velocity": 108, "channel": 0}, {"type": "note_on", "time": 32, "note": 68, "velocity": 100, "channel": 0}, {"type": "note_off", "time": 179, "note": 68, "velocity": 100, "channel": 0}, {"type": "note_on", "time": 204, "note": 68, "velocity": 118, "channel": 0}, {"type": "note_off", "time": 110, "note": 68, "velocity": 118, "channel": 0}, {"type": "note_on", "time": 12, "note": 68, "velocity": 120, "channel": 0}, {"type": "note_off", "time": 137, "note": 68, "velocity": 120, "channel": 0}, {"type": "note_on", "time": 14, "note": 68, "velocity": 116, "channel": 0}, {"type": "note_off", "time": 122, "note": 68, "velocity": 116, "channel": 0}, {"type": "note_on", "time": 14, "note": 68, "velocity": 104, "channel": 0}, {"type": "note_off", "time": 224, "note": 68, "velocity": 104, "channel": 0}, {"type": "note_on", "time": 36, "note": 62, "velocity": 116, "channel": 0}, {"type": "note_off", "time": 133, "note": 62, "velocity": 116, "channel": 0}, {"type": "note_on", "time": 42, "note": 65, "velocity": 117, "channel": 0}, {"type": "note_off", "time": 108, "note": 65, "velocity": 117, "channel": 0}, {"type": "note_on", "time": 23, "note": 68, "velocity": 125, "channel": 0}, {"type": "note_off", "time": 90, "note": 68, "velocity": 125, "channel": 0}, {"type": "note_on", "time": 12, "note": 65, "velocity": 116, "channel": 0}, {"type": "note_off", "time": 80, "note": 65, "velocity": 116, "channel": 0}, {"type": "note_on", "time": 14, "note": 62, "velocity": 108, "channel": 0}, {"type": "note_off", "time": 63, "note": 62, "velocity": 108, "channel": 0}, {"type": "note_on", "time": 19, "note": 68, "velocity": 99, "channel": 0}, {"type": "note_off", "time": 234, "note": 68, "velocity": 99, "channel": 0}, {"type": "note_on", "time": 145, "note": 65, "velocity": 126, "channel": 0}, {"type": "note_off", "time": 99, "note": 65, "velocity": 126, "channel": 0}, {"type": "note_on", "time": 12, "note": 61, "velocity": 123, "channel": 0}, {"type": "note_off", "time": 82, "note": 61, "velocity": 123, "channel": 0}, {"type": "note_on", "time": 10, "note": 58, "velocity": 125, "channel": 0}, {"type": "note_off", "time": 86, "note": 58, "velocity": 125, "channel": 0}, {"type": "note_on", "time": 16, "note": 53, "velocity": 112, "channel": 0}, {"type": "note_off", "time": 67, "note": 53, "velocity": 112, "channel": 0}, {"type": "note_on", "time": 34, "note": 60, "velocity": 114, "channel": 0}, {"type": "note_off", "time": 305, "note": 60, "velocity": 114, "channel": 0}, {"type": "note_on", "time": 4, "note": 63, "velocity": 120, "channel": 0}, {"type": "note_off", "time": 138, "note": 63, "velocity": 120, "channel": 0}, {"type": "note_on", "time": 13, "note": 63, "velocity": 124, "channel": 0}, {"type": "note_off", "time": 120, "note": 63, "velocity": 124, "channel": 0}, {"type": "note_on", "time": 12, "note": 63, "velocity": 112, "channel": 0}, {"type": "note_off", "time": 259, "note": 63, "velocity": 112, "channel": 0}, {"type": "note_on", "time": 166, "note": 63, "velocity": 120, "channel": 0}, {"type": "note_off", "time": 89, "note": 63, "velocity": 120, "channel": 0}, {"type": "note_on", "time": 8, "note": 65, "velocity": 122, "channel": 0}, {"type": "note_off", "time": 65, "note": 65, "velocity": 122, "channel": 0}, {"type": "note_on", "time": 8, "note": 67, "velocity": 123, "channel": 0}, {"type": "note_off", "time": 53, "note": 67, "velocity": 123, "channel": 0}, {"type": "note_on", "time": 8, "note": 68, "velocity": 127, "channel": 0}, {"type": "note_off", "time": 53, "note": 68, "velocity": 127, "channel": 0}, {"type": "note_on", "time": 9, "note": 65, "velocity": 124, "channel": 0}, {"type": "note_off", "time": 57, "note": 65, "velocity": 124, "channel": 0}, {"type": "note_on", "time": 8, "note": 67, "velocity": 118, "channel": 0}, {"type": "note_off", "time": 44, "note": 67, "velocity": 118, "channel": 0}, {"type": "note_on", "time": 10, "note": 63, "velocity": 126, "channel": 0}, {"type": "note_off", "time": 118, "note": 63, "velocity": 126, "channel": 0}, {"type": "note_on", "time": 7, "note": 64, "velocity": 102, "channel": 0}, {"type": "note_off", "time": 25, "note": 64, "velocity": 102, "channel": 0}, {"type": "note_on", "time": 14, "note": 67, "velocity": 99, "channel": 0}, {"type": "note_off", "time": 16, "note": 67, "velocity": 99, "channel": 0}, {"type": "note_on", "time": 9, "note": 65, "velocity": 114, "channel": 0}, {"type": "note_off", "time": 34, "note": 65, "velocity": 114, "channel": 0}, {"type": "note_on", "time": 7, "note": 63, "velocity": 125, "channel": 0}, {"type": "note_off", "time": 73, "note": 63, "velocity": 125, "channel": 0}, {"type": "note_on", "time": 2, "note": 60, "velocity": 116, "channel": 0}, {"type": "note_off", "time": 50, "note": 60, "velocity": 116, "channel": 0}, {"type": "note_on", "time": 20, "note": 55, "velocity": 116, "channel": 0}, {"type": "note_off", "time": 239, "note": 55, "velocity": 116, "channel": 0}, {"type": "note_on", "time": 14, "note": 55, "velocity": 120, "channel": 0}, {"type": "note_off", "time": 102, "note": 55, "velocity": 120, "channel": 0}, {"type": "note_on", "time": 14, "note": 55, "velocity": 111, "channel": 0}, {"type": "note_off", "time": 331, "note": 55, "velocity": 111, "channel": 0}, {"type": "note_on", "time": 14, "note": 51, "velocity": 110, "channel": 0}, {"type": "note_off", "time": 91, "note": 51, "velocity": 110, "channel": 0}, {"type": "note_on", "time": 13, "note": 55, "velocity": 106, "channel": 0}, {"type": "note_off", "time": 851, "note": 55, "velocity": 106, "channel": 0}, {"type": "end_of_track", "time": 0}]]}