{"ticks_per_beat": 192, "tracks": [[{"type": "track_name", "name": "Melody", "time": 0}, {"type": "set_tempo", "tempo": 277777, "time": 0}, {"type": "key_signature", "key": "D", "time": 0}, {"type": "time_signature", "numerator": 4, "denominator": 4, "clocks_per_click": 24, "notated_32nd_notes_per_beat": 8, "time": 0}, {"type": "note_on", "time": 3216, "note": 69, "velocity": 108, "channel": 0}, {"type": "note_off", "time": 96, "note": 69, "velocity": 108, "channel": 0}, {"type": "note_on", "time": 92, "note": 69, "velocity": 107, "channel": 0}, {"type": "note_off", "time": 136, "note": 69, "velocity": 107, "channel": 0}, {"type": "note_on", "time": 84, "note": 69, "velocity": 100, "channel": 0}, {"type": "note_off", "time": 296, "note": 69, "velocity": 100, "channel": 0}, {"type": "note_on", "time": 112, "note": 69, "velocity": 109, "channel": 0}, {"type": "note_off", "time": 176, "note": 69, "velocity": 109, "channel": 0}, {"type": "note_on", "time": 140, "note": 69, "velocity": 98, "channel": 0}, {"type": "note_off", "time": 308, "note": 69, "velocity": 98, "channel": 0}, {"type": "note_on", "time": 20, "note": 67, "velocity": 105, "channel": 0}, {"type": "note_off", "time": 76, "note": 67, "velocity": 105, "channel": 0}, {"type": "note_on", "time": 68, "note": 69, "velocity": 96, "channel": 0}, {"type": "note_off", "time": 329, "note": 69, "velocity": 96, "channel": 0}, {"type": "note_on", "time": 0, "note": 64, "velocity": 115, "channel": 0}, {"type": "note_off", "time": 104, "note": 64, "velocity": 115, "channel": 0}, {"type": "note_on", "time": 0, "note": 65, "velocity": 106, "channel": 0}, {"type": "note_off", "time": 44, "note": 65, "velocity": 106, "channel": 0}, {"type": "note_on", "time": 4, "note": 66, "velocity": 101, "channel": 0}, {"type": "note_off", "time": 36, "note": 66, "velocity": 101, "channel": 0}, {"type": "note_on", "time": 28, "note": 67, "velocity": 101, "channel": 0}, {"type": "note_off", "time": 80, "note": 67, "velocity": 101, "channel": 0}, {"type": "note_on", "time": 8, "note": 66, "velocity": 101, "channel": 0}, {"type": "note_off", "time": 108, "note": 66, "velocity": 101, "channel": 0}, {"type": "note_on", "time": 8, "note": 62, "velocity": 85, "channel": 0}, {"type": "note_off", "time": 56, "note": 62, "velocity": 85, "channel": 0}, {"type": "note_on", "time": 28, "note": 64, "velocity": 108, "channel": 0}, {"type": "note_off", "time": 200, "note": 64, "velocity": 108, "channel": 0}, {"type": "note_on", "time": 0, "note": 62, "velocity": 88, "channel": 0}, {"type": "note_off", "time": 84, "note": 62, "velocity": 88, "channel": 0}, {"type": "note_on", "time": 4, "note": 66, "velocity": 96, "channel": 0}, {"type": "note_off", "time": 132, "note": 66, "velocity": 96, "channel": 0}, {"type": "note_on", "time": 0, "note": 57, "velocity": 92, "channel": 0}, {"type": "note_off", "time": 441, "note": 57, "velocity": 92, "channel": 0}, {"type": "note_on", "time": 537, "note": 67, "velocity": 117, "channel": 0}, {"type": "note_off", "time": 92, "note": 67, "velocity": 117, "channel": 0}, {"type": "note_on", "time": 20, "note": 69, "velocity": 109, "channel": 0}, {"type": "note_on", "time": 168, "note": 65, "velocity": 111, "channel": 0}, {"type": "note_off", "time": 0, "note": 69, "velocity": 109, "channel": 0}, {"type": "note_off", "time": 96, "note": 65, "velocity": 111, "channel": 0}, {"type": "note_on", "time": 0, "note": 62, "velocity": 107, "channel": 0}, {"type": "note_off", "time": 92, "note": 62, "velocity": 107, "channel": 0}, {"type": "note_on", "time": 4, "note": 64, "velocity": 107, "channel": 0}, {"type": "note_off", "time": 312, "note": 64, "velocity": 107, "channel": 0}, {"type": "note_on", "time": 0, "note": 61, "velocity": 101, "channel": 0}, {"type": "note_off", "time": 92, "note": 61, "velocity": 101, "channel": 0}, {"type": "note_on", "time": 0, "note": 57, "velocity": 113, "channel": 0}, {"type": "note_off", "time": 140, "note": 57, "velocity": 113, "channel": 0}, {"type": "note_on", "time": 0, "note": 53, "velocity": 103, "channel": 0}, {"type": "note_off", "time": 108, "note": 53, "velocity": 103, "channel": 0}, {"type": "note_on", "time": 8, "note": 54, "velocity": 97, "channel": 0}, {"type": "note_off", "time": 80, "note": 54, "velocity": 97, "channel": 0}, {"type": "note_on", "time": 0, "note": 57, "velocity": 112, "channel": 0}, {"type": "note_off", "time": 132, "note": 57, "velocity": 112, "channel": 0}, {"type": "note_on", "time": 0, "note": 61, "velocity": 103, "channel": 0}, {"type": "note_on", "time": 100, "note": 64, "velocity": 116, "channel": 0}, {"type": "note_off", "time": 0, "note": 61, "velocity": 103, "channel": 0}, {"type": "note_off", "time": 84, "note": 64, "velocity": 116, "channel": 0}, {"type": "note_on", "time": 4, "note": 61, "velocity": 94, "channel": 0}, {"type": "note_off", "time": 84, "note": 61, "velocity": 94, "channel": 0}, {"type": "note_on", "time": 16, "note": 62, "velocity": 93, "channel": 0}, {"type": "note_off", "time": 325, "note": 62, "velocity": 93, "channel": 0}, {"type": "note_on", "time": 349, "note": 59, "velocity": 107, "channel": 0}, {"type": "note_off", "time": 104, "note": 59, "velocity": 107, "channel": 0}, {"type": "note_on", "time": 8, "note": 62, "velocity": 122, "channel": 0}, {"type": "note_off", "time": 84, "note": 62, "velocity": 122, "channel": 0}, {"type": "note_on", "time": 20, "note": 64, "velocity": 119, "channel": 0}, {"type": "note_off", "time": 56, "note": 64, "velocity": 119, "channel": 0}, {"type": "note_on", "time": 28, "note": 66, "velocity": 105, "channel": 0}, {"type": "note_off", "time": 465, "note": 66, "velocity": 105, "channel": 0}, {"type": "note_on", "time": 36, "note": 64, "velocity": 114, "channel": 0}, {"type": "note_off", "time": 88, "note": 64, "velocity": 114, "channel": 0}, {"type": "note_on", "time": 0, "note": 62, "velocity": 118, "channel": 0}, {"type": "note_off", "time": 100, "note": 62, "velocity": 118, "channel": 0}, {"type": "note_on", "time": 0, "note": 59, "velocity": 103, "channel": 0}, {"type": "note_off", "time": 112, "note": 59, "velocity": 103, "channel": 0}, {"type": "note_on", "time": 0, "note": 54, "velocity": 101, "channel": 0}, {"type": "note_off", "time": 140, "note": 54, "velocity": 101, "channel": 0}, {"type": "note_on", "time": 28, "note": 53, "velocity": 101, "channel": 0}, {"type": "note_off", "time": 349, "note": 53, "velocity": 101, "channel": 0}, {"type": "note_on", "time": 834, "note": 59, "velocity": 110, "channel": 0}, {"type": "note_off", "time": 100, "note": 59, "velocity": 110, "channel": 0}, {"type": "note_on", "time": 0, "note": 57, "velocity": 109, "channel": 0}, {"type": "note_off", "time": 88, "note": 57, "velocity": 109, "channel": 0}, {"type": "note_on", "time": 0, "note": 61, "velocity": 106, "channel": 0}, {"type": "note_off", "time": 88, "note": 61, "velocity": 106, "channel": 0}, {"type": "note_on", "time": 20, "note": 59, "velocity": 83, "channel": 0}, {"type": "note_off", "time": 92, "note": 59, "velocity": 83, "channel": 0}, {"type": "note_on", "time": 0, "note": 60, "velocity": 104, "channel": 0}, {"type": "note_off", "time": 369, "note": 60, "velocity": 104, "channel": 0}, {"type": "note_on", "time": 12, "note": 59, "velocity": 109, "channel": 0}, {"type": "note_off", "time": 80, "note": 59, "velocity": 109, "channel": 0}, {"type": "note_on", "time": 60, "note": 57, "velocity": 113, "channel": 0}, {"type": "note_off", "time": 132, "note": 57, "velocity": 113, "channel": 0}, {"type": "note_on", "time": 36, "note": 59, "velocity": 105, "channel": 0}, {"type": "note_off", "time": 276, "note": 59, "velocity": 105, "channel": 0}, {"type": "note_on", "time": 0, "note": 55, "velocity": 105, "channel": 0}, {"type": "note_off", "time": 92, "note": 55, "velocity": 105, "channel": 0}, {"type": "note_on", "time": 44, "note": 52, "velocity": 99, "channel": 0}, {"type": "note_off", "time": 124, "note": 52, "velocity": 99, "channel": 0}, {"type": "note_on", "time": 4, "note": 54, "velocity": 102, "channel": 0}, {"type": "note_off", "time": 112, "note": 54, "velocity": 102, "channel": 0}, {"type": "note_on", "time": 0, "note": 57, "velocity": 115, "channel": 0}, {"type": "note_off", "time": 112, "note": 57, "velocity": 115, "channel": 0}, {"type": "note_on", "time": 0, "note": 54, "velocity": 103, "channel": 0}, {"type": "note_off", "time": 68, "note": 54, "velocity": 103, "channel": 0}, {"type": "note_on", "time": 16, "note": 55, "velocity": 108, "channel": 0}, {"type": "note_off", "time": 92, "note": 55, "velocity": 108, "channel": 0}, {"type": "note_on", "time": 20, "note": 57, "velocity": 116, "channel": 0}, {"type": "note_off", "time": 100, "note": 57, "velocity": 116, "channel": 0}, {"type": "note_on", "time": 0, "note": 58, "velocity": 103, "channel": 0}, {"type": "note_off", "time": 72, "note": 58, "velocity": 103, "channel": 0}, {"type": "note_on", "time": 12, "note": 62, "velocity": 120, "channel": 0}, {"type": "note_off", "time": 92, "note": 62, "velocity": 120, "channel": 0}, {"type": "note_on", "time": 16, "note": 65, "velocity": 111, "channel": 0}, {"type": "note_off", "time": 60, "note": 65, "velocity": 111, "channel": 0}, {"type": "note_on", "time": 0, "note": 67, "velocity": 102, "channel": 0}, {"type": "note_off", "time": 76, "note": 67, "velocity": 102, "channel": 0}, {"type": "note_on", "time": 0, "note": 65, "velocity": 109, "channel": 0}, {"type": "note_off", "time": 52, "note": 65, "velocity": 109, "channel": 0}, {"type": "note_on", "time": 0, "note": 61, "velocity": 106, "channel": 0}, {"type": "note_off", "time": 124, "note": 61, "velocity": 106, "channel": 0}, {"type": "note_on", "time": 0, "note": 57, "velocity": 99, "channel": 0}, {"type": "note_off", "time": 60, "note": 57, "velocity": 99, "channel": 0}, {"type": "note_on", "time": 36, "note": 62, "velocity": 106, "channel": 0}, {"type": "note_off", "time": 469, "note": 62, "velocity": 106, "channel": 0}, {"type": "note_on", "time": 714, "note": 57, "velocity": 103, "channel": 0}, {"type": "note_off", "time": 100, "note": 57, "velocity": 103, "channel": 0}, {"type": "note_on", "time": 24, "note": 62, "velocity": 124, "channel": 0}, {"type": "note_off", "time": 92, "note": 62, "velocity": 124, "channel": 0}, {"type": "note_on", "time": 80, "note": 63, "velocity": 125, "channel": 0}, {"type": "note_off", "time": 96, "note": 63, "velocity": 125, "channel": 0}, {"type": "note_on", "time": 12, "note": 65, "velocity": 119, "channel": 0}, {"type": "note_off", "time": 220, "note": 65, "velocity": 119, "channel": 0}, {"type": "note_on", "time": 0, "note": 62, "velocity": 106, "channel": 0}, {"type": "note_off", "time": 72, "note": 62, "velocity": 106, "channel": 0}, {"type": "note_on", "time": 8, "note": 65, "velocity": 106, "channel": 0}, {"type": "note_off", "time": 296, "note": 65, "velocity": 106, "channel": 0}, {"type": "note_on", "time": 20, "note": 64, "velocity": 125, "channel": 0}, {"type": "note_off", "time": 120, "note": 64, "velocity": 125, "channel": 0}, {"type": "note_on", "time": 72, "note": 64, "velocity": 125, "channel": 0}, {"type": "note_off", "time": 84, "note": 64, "velocity": 125, "channel": 0}, {"type": "note_on", "time": 0, "note": 59, "velocity": 99, "channel": 0}, {"type": "note_off", "time": 72, "note": 59, "velocity": 99, "channel": 0}, {"type": "note_on", "time": 0, "note": 62, "velocity": 125, "channel": 0}, {"type": "note_off", "time": 104, "note": 62, "velocity": 125, "channel": 0}, {"type": "note_on", "time": 4, "note": 61, "velocity": 107, "channel": 0}, {"type": "note_off", "time": 112, "note": 61, "velocity": 107, "channel": 0}, {"type": "note_on", "time": 4, "note": 57, "velocity": 112, "channel": 0}, {"type": "note_off", "time": 88, "note": 57, "velocity": 112, "channel": 0}, {"type": "note_on", "time": 12, "note": 53, "velocity": 97, "channel": 0}, {"type": "note_off", "time": 116, "note": 53, "velocity": 97, "channel": 0}, {"type": "note_on", "time": 76, "note": 57, "velocity": 117, "channel": 0}, {"type": "note_off", "time": 92, "note": 57, "velocity": 117, "channel": 0}, {"type": "note_on", "time": 0, "note": 59, "velocity": 110, "channel": 0}, {"type": "note_off", "time": 72, "note": 59, "velocity": 110, "channel": 0}, {"type": "note_on", "time": 4, "note": 61, "velocity": 109, "channel": 0}, {"type": "note_off", "time": 96, "note": 61, "velocity": 109, "channel": 0}, {"type": "note_on", "time": 0, "note": 62, "velocity": 108, "channel": 0}, {"type": "note_off", "time": 84, "note": 62, "velocity": 108, "channel": 0}, {"type": "note_on", "time": 4, "note": 64, "velocity": 119, "channel": 0}, {"type": "note_off", "time": 128, "note": 64, "velocity": 119, "channel": 0}, {"type": "note_on", "time": 28, "note": 61, "velocity": 105, "channel": 0}, {"type": "note_off", "time": 40, "note": 61, "velocity": 105, "channel": 0}, {"type": "note_on", "time": 0, "note": 62, "velocity": 122, "channel": 0}, {"type": "note_off", "time": 96, "note": 62, "velocity": 122, "channel": 0}, {"type": "note_on", "time": 32, "note": 66, "velocity": 90, "channel": 0}, {"type": "note_off", "time": 60, "note": 66, "velocity": 90, "channel": 0}, {"type": "note_on", "time": 20, "note": 69, "velocity": 109, "channel": 0}, {"type": "note_off", "time": 88, "note": 69, "velocity": 109, "channel": 0}, {"type": "note_on", "time": 8, "note": 73, "velocity": 113, "channel": 0}, {"type": "note_off", "time": 52, "note": 73, "velocity": 113, "channel": 0}, {"type": "note_on", "time": 4, "note": 74, "velocity": 116, "channel": 0}, {"type": "note_off", "time": 92, "note": 74, "velocity": 116, "channel": 0}, {"type": "note_on", "time": 12, "note": 69, "velocity": 93, "channel": 0}, {"type": "note_off", "time": 361, "note": 69, "velocity": 93, "channel": 0}, {"type": "note_on", "time": 60, "note": 73, "velocity": 105, "channel": 0}, {"type": "note_off", "time": 76, "note": 73, "velocity": 105, "channel": 0}, {"type": "note_on", "time": 16, "note": 74, "velocity": 112, "channel": 0}, {"type": "note_off", "time": 172, "note": 74, "velocity": 112, "channel": 0}, {"type": "note_on", "time": 28, "note": 69, "velocity": 109, "channel": 0}, {"type": "note_off", "time": 120, "note": 69, "velocity": 109, "channel": 0}, {"type": "note_on", "time": 76, "note": 72, "velocity": 96, "channel": 0}, {"type": "note_off", "time": 308, "note": 72, "velocity": 96, "channel": 0}, {"type": "note_on", "time": 176, "note": 67, "velocity": 106, "channel": 0}, {"type": "note_off", "time": 88, "note": 67, "velocity": 106, "channel": 0}, {"type": "note_on", "time": 0, "note": 70, "velocity": 109, "channel": 0}, {"type": "note_on", "time": 124, "note": 66, "velocity": 100, "channel": 0}, {"type": "note_off", "time": 0, "note": 70, "velocity": 109, "channel": 0}, {"type": "note_off", "time": 76, "note": 66, "velocity": 100, "channel": 0}, {"type": "note_on", "time": 0, "note": 69, "velocity": 88, "channel": 0}, {"type": "note_off", "time": 333, "note": 69, "velocity": 88, "channel": 0}, {"type": "note_on", "time": 345, "note": 64, "velocity": 120, "channel": 0}, {"type": "note_off", "time": 80, "note": 64, "velocity": 120, "channel": 0}, {"type": "note_on", "time": 0, "note": 67, "velocity": 102, "channel": 0}, {"type": "note_off", "time": 68, "note": 67, "velocity": 102, "channel": 0}, {"type": "note_on", "time": 4, "note": 68, "velocity": 105, "channel": 0}, {"type": "note_off", "time": 48, "note": 68, "velocity": 105, "channel": 0}, {"type": "note_on", "time": 0, "note": 67, "velocity": 102, "channel": 0}, {"type": "note_off", "time": 44, "note": 67, "velocity": 102, "channel": 0}, {"type": "note_on", "time": 0, "note": 64, "velocity": 113, "channel": 0}, {"type": "note_off", "time": 116, "note": 64, "velocity": 113, "channel": 0}, {"type": "note_on", "time": 8, "note": 65, "velocity": 107, "channel": 0}, {"type": "note_off", "time": 88, "note": 65, "velocity": 107, "channel": 0}, {"type": "note_on", "time": 8, "note": 66, "velocity": 99, "channel": 0}, {"type": "note_off", "time": 120, "note": 66, "velocity": 99, "channel": 0}, {"type": "note_on", "time": 0, "note": 61, "velocity": 83, "channel": 0}, {"type": "note_off", "time": 40, "note": 61, "velocity": 83, "channel": 0}, {"type": "note_on", "time": 36, "note": 64, "velocity": 104, "channel": 0}, {"type": "note_off", "time": 329, "note": 64, "velocity": 104, "channel": 0}, {"type": "note_on", "time": 0, "note": 62, "velocity": 104, "channel": 0}, {"type": "note_off", "time": 140, "note": 62, "velocity": 104, "channel": 0}, {"type": "note_on", "time": 76, "note": 64, "velocity": 113, "channel": 0}, {"type": "note_off", "time": 80, "note": 64, "velocity": 113, "channel": 0}, {"type": "note_on", "time": 4, "note": 66, "velocity": 98, "channel": 0}, {"type": "note_off", "time": 288, "note": 66, "velocity": 98, "channel": 0}, {"type": "note_on", "time": 40, "note": 71, "velocity": 107, "channel": 0}, {"type": "note_off", "time": 92, "note": 71, "velocity": 107, "channel": 0}, {"type": "note_on", "time": 8, "note": 73, "velocity": 105, "channel": 0}, {"type": "note_off", "time": 112, "note": 73, "velocity": 105, "channel": 0}, {"type": "note_on", "time": 0, "note": 71, "velocity": 90, "channel": 0}, {"type": "note_off", "time": 300, "note": 71, "velocity": 90, "channel": 0}, {"type": "note_on", "time": 421, "note": 70, "velocity": 106, "channel": 0}, {"type": "note_off", "time": 92, "note": 70, "velocity": 106, "channel": 0}, {"type": "note_on", "time": 20, "note": 72, "velocity": 111, "channel": 0}, {"type": "note_off", "time": 84, "note": 72, "velocity": 111, "channel": 0}, {"type": "note_on", "time": 24, "note": 69, "velocity": 104, "channel": 0}, {"type": "note_off", "time": 44, "note": 69, "velocity": 104, "channel": 0}, {"type": "note_on", "time": 20, "note": 71, "velocity": 111, "channel": 0}, {"type": "note_off", "time": 52, "note": 71, "velocity": 111, "channel": 0}, {"type": "note_on", "time": 0, "note": 69, "velocity": 107, "channel": 0}, {"type": "note_off", "time": 84, "note": 69, "velocity": 107, "channel": 0}, {"type": "note_on", "time": 20, "note": 66, "velocity": 98, "channel": 0}, {"type": "note_off", "time": 96, "note": 66, "velocity": 98, "channel": 0}, {"type": "note_on", "time": 64, "note": 62, "velocity": 98, "channel": 0}, {"type": "note_off", "time": 312, "note": 62, "velocity": 98, "channel": 0}, {"type": "note_on", "time": 68, "note": 64, "velocity": 108, "channel": 0}, {"type": "note_on", "time": 56, "note": 66, "velocity": 93, "channel": 0}, {"type": "note_off", "time": 0, "note": 64, "velocity": 108, "channel": 0}, {"type": "note_off", "time": 44, "note": 66, "velocity": 93, "channel": 0}, {"type": "note_on", "time": 12, "note": 65, "velocity": 104, "channel": 0}, {"type": "note_off", "time": 72, "note": 65, "velocity": 104, "channel": 0}, {"type": "note_on", "time": 16, "note": 64, "velocity": 113, "channel": 0}, {"type": "note_off", "time": 84, "note": 64, "velocity": 113, "channel": 0}, {"type": "note_on", "time": 0, "note": 62, "velocity": 112, "channel": 0}, {"type": "note_off", "time": 84, "note": 62, "velocity": 112, "channel": 0}, {"type": "note_on", "time": 0, "note": 64, "velocity": 106, "channel": 0}, {"type": "note_off", "time": 284, "note": 64, "velocity": 106, "channel": 0}, {"type": "note_on", "time": 4, "note": 62, "velocity": 110, "channel": 0}, {"type": "note_off", "time": 80, "note": 62, "velocity": 110, "channel": 0}, {"type": "note_on", "time": 20, "note": 59, "velocity": 101, "channel": 0}, {"type": "note_off", "time": 88, "note": 59, "velocity": 101, "channel": 0}, {"type": "note_on", "time": 16, "note": 55, "velocity": 102, "channel": 0}, {"type": "note_off", "time": 108, "note": 55, "velocity": 102, "channel": 0}, {"type": "note_on", "time": 8, "note": 52, "velocity": 95, "channel": 0}, {"type": "note_off", "time": 361, "note": 52, "velocity": 95, "channel": 0}, {"type": "note_on", "time": 0, "note": 55, "velocity": 106, "channel": 0}, {"type": "note_off", "time": 84, "note": 55, "velocity": 106, "channel": 0}, {"type": "note_on", "time": 76, "note": 59, "velocity": 104, "channel": 0}, {"type": "note_off", "time": 124, "note": 59, "velocity": 104, "channel": 0}, {"type": "note_on", "time": 20, "note": 62, "velocity": 116, "channel": 0}, {"type": "note_off", "time": 92, "note": 62, "velocity": 116, "channel": 0}, {"type": "note_on", "time": 4, "note": 59, "velocity": 97, "channel": 0}, {"type": "note_off", "time": 112, "note": 59, "velocity": 97, "channel": 0}, {"type": "note_on", "time": 24, "note": 61, "velocity": 97, "channel": 0}, {"type": "note_off", "time": 325, "note": 61, "velocity": 97, "channel": 0}, {"type": "note_on", "time": 0, "note": 57, "velocity": 85, "channel": 0}, {"type": "note_off", "time": 104, "note": 57, "velocity": 85, "channel": 0}, {"type": "note_on", "time": 0, "note": 61, "velocity": 107, "channel": 0}, {"type": "note_off", "time": 96, "note": 61, "velocity": 107, "channel": 0}, {"type": "note_on", "time": 0, "note": 66, "velocity": 105, "channel": 0}, {"type": "note_off", "time": 92, "note": 66, "velocity": 105, "channel": 0}, {"type": "note_on", "time": 0, "note": 62, "velocity": 100, "channel": 0}, {"type": "note_off", "time": 365, "note": 62, "velocity": 100, "channel": 0}, {"type": "note_on", "time": 637, "note": 57, "velocity": 107, "channel": 0}, {"type": "note_off", "time": 108, "note": 57, "velocity": 107, "channel": 0}, {"type": "note_on", "time": 8, "note": 62, "velocity": 117, "channel": 0}, {"type": "note_off", "time": 100, "note": 62, "velocity": 117, "channel": 0}, {"type": "note_on", "time": 8, "note": 61, "velocity": 106, "channel": 0}, {"type": "note_off", "time": 88, "note": 61, "velocity": 106, "channel": 0}, {"type": "note_on", "time": 16, "note": 60, "velocity": 107, "channel": 0}, {"type": "note_off", "time": 96, "note": 60, "velocity": 107, "channel": 0}, {"type": "note_on", "time": 0, "note": 57, "velocity": 113, "channel": 0}, {"type": "note_off", "time": 96, "note": 57, "velocity": 113, "channel": 0}, {"type": "note_on", "time": 4, "note": 53, "velocity": 96, "channel": 0}, {"type": "note_off", "time": 80, "note": 53, "velocity": 96, "channel": 0}, {"type": "note_on", "time": 12, "note": 52, "velocity": 103, "channel": 0}, {"type": "note_off", "time": 60, "note": 52, "velocity": 103, "channel": 0}, {"type": "note_on", "time": 12, "note": 55, "velocity": 111, "channel": 0}, {"type": "note_off", "time": 124, "note": 55, "velocity": 111, "channel": 0}, {"type": "note_on", "time": 12, "note": 52, "velocity": 101, "channel": 0}, {"type": "note_off", "time": 56, "note": 52, "velocity": 101, "channel": 0}, {"type": "note_on", "time": 16, "note": 53, "velocity": 105, "channel": 0}, {"type": "note_off", "time": 40, "note": 53, "velocity": 105, "channel": 0}, {"type": "note_on", "time": 12, "note": 55, "velocity": 108, "channel": 0}, {"type": "note_off", "time": 52, "note": 55, "velocity": 108, "channel": 0}, {"type": "note_on", "time": 4, "note": 53, "velocity": 109, "channel": 0}, {"type": "note_off", "time": 64, "note": 53, "velocity": 109, "channel": 0}, {"type": "note_on", "time": 0, "note": 52, "velocity": 106, "channel": 0}, {"type": "note_off", "time": 100, "note": 52, "velocity": 106, "channel": 0}, {"type": "note_on", "time": 0, "note": 53, "velocity": 104, "channel": 0}, {"type": "note_off", "time": 80, "note": 53, "velocity": 104, "channel": 0}, {"type": "note_on", "time": 16, "note": 57, "velocity": 118, "channel": 0}, {"type": "note_off", "time": 100, "note": 57, "velocity": 118, "channel": 0}, {"type": "note_on", "time": 4, "note": 60, "velocity": 118, "channel": 0}, {"type": "note_off", "time": 88, "note": 60, "velocity": 118, "channel": 0}, {"type": "note_on", "time": 16, "note": 64, "velocity": 119, "channel": 0}, {"type": "note_off", "time": 68, "note": 64, "velocity": 119, "channel": 0}, {"type": "note_on", "time": 4, "note": 67, "velocity": 110, "channel": 0}, {"type": "note_off", "time": 36, "note": 67, "velocity": 110, "channel": 0}, {"type": "note_on", "time": 0, "note": 65, "velocity": 115, "channel": 0}, {"type": "note_off", "time": 84, "note": 65, "velocity": 115, "channel": 0}, {"type": "note_on", "time": 0, "note": 64, "velocity": 124, "channel": 0}, {"type": "note_off", "time": 104, "note": 64, "velocity": 124, "channel": 0}, {"type": "note_on", "time": 4, "note": 62, "velocity": 107, "channel": 0}, {"type": "note_off", "time": 60, "note": 62, "velocity": 107, "channel": 0}, {"type": "note_on", "time": 12, "note": 64, "velocity": 113, "channel": 0}, {"type": "note_off", "time": 300, "note": 64, "velocity": 113, "channel": 0}, {"type": "note_on", "time": 8, "note": 62, "velocity": 119, "channel": 0}, {"type": "note_off", "time": 88, "note": 62, "velocity": 119, "channel": 0}, {"type": "note_on", "time": 0, "note": 57, "velocity": 113, "channel": 0}, {"type": "note_off", "time": 120, "note": 57, "velocity": 113, "channel": 0}, {"type": "note_on", "time": 8, "note": 53, "velocity": 104, "channel": 0}, {"type": "note_off", "time": 100, "note": 53, "velocity": 104, "channel": 0}, {"type": "note_on", "time": 0, "note": 54, "velocity": 103, "channel": 0}, {"type": "note_on", "time": 80, "note": 57, "velocity": 111, "channel": 0}, {"type": "note_off", "time": 0, "note": 54, "velocity": 103, "channel": 0}, {"type": "note_off", "time": 84, "note": 57, "velocity": 111, "channel": 0}, {"type": "note_on", "time": 12, "note": 59, "velocity": 105, "channel": 0}, {"type": "note_off", "time": 96, "note": 59, "velocity": 105, "channel": 0}, {"type": "note_on", "time": 12, "note": 61, "velocity": 110, "channel": 0}, {"type": "note_off", "time": 100, "note": 61, "velocity": 110, "channel": 0}, {"type": "note_on", "time": 0, "note": 64, "velocity": 122, "channel": 0}, {"type": "note_off", "time": 88, "note": 64, "velocity": 122, "channel": 0}, {"type": "note_on", "time": 0, "note": 61, "velocity": 102, "channel": 0}, {"type": "note_off", "time": 60, "note": 61, "velocity": 102, "channel": 0}, {"type": "note_on", "time": 8, "note": 62, "velocity": 121, "channel": 0}, {"type": "note_off", "time": 73, "note": 62, "velocity": 121, "channel": 0}, {"type": "note_on", "time": 51, "note": 66, "velocity": 89, "channel": 0}, {"type": "note_off", "time": 60, "note": 66, "velocity": 89, "channel": 0}, {"type": "note_on", "time": 20, "note": 69, "velocity": 110, "channel": 0}, {"type": "note_off", "time": 84, "note": 69, "velocity": 110, "channel": 0}, {"type": "note_on", "time": 20, "note": 72, "velocity": 118, "channel": 0}, {"type": "note_off", "time": 72, "note": 72, "velocity": 118, "channel": 0}, {"type": "note_on", "time": 0, "note": 74, "velocity": 112, "channel": 0}, {"type": "note_off", "time": 341, "note": 74, "velocity": 112, "channel": 0}, {"type": "note_on", "time": 40, "note": 69, "velocity": 102, "channel": 0}, {"type": "note_off", "time": 389, "note": 69, "velocity": 102, "channel": 0}, {"type": "note_on", "time": 96, "note": 70, "velocity": 104, "channel": 0}, {"type": "note_off", "time": 56, "note": 70, "velocity": 104, "channel": 0}, {"type": "note_on", "time": 32, "note": 72, "velocity": 111, "channel": 0}, {"type": "note_off", "time": 192, "note": 72, "velocity": 111, "channel": 0}, {"type": "note_on", "time": 0, "note": 69, "velocity": 98, "channel": 0}, {"type": "note_off", "time": 345, "note": 69, "velocity": 98, "channel": 0}, {"type": "note_on", "time": 24, "note": 67, "velocity": 102, "channel": 0}, {"type": "note_off", "time": 88, "note": 67, "velocity": 102, "channel": 0}, {"type": "note_on", "time": 8, "note": 69, "velocity": 104, "channel": 0}, {"type": "note_off", "time": 108, "note": 69, "velocity": 104, "channel": 0}, {"type": "note_on", "time": 0, "note": 66, "velocity": 100, "channel": 0}, {"type": "note_off", "time": 96, "note": 66, "velocity": 100, "channel": 0}, {"type": "note_on", "time": 0, "note": 64, "velocity": 108, "channel": 0}, {"type": "note_off", "time": 92, "note": 64, "velocity": 108, "channel": 0}, {"type": "note_on", "time": 8, "note": 62, "velocity": 117, "channel": 0}, {"type": "note_off", "time": 92, "note": 62, "velocity": 117, "channel": 0}, {"type": "note_on", "time": 0, "note": 64, "velocity": 104, "channel": 0}, {"type": "note_off", "time": 72, "note": 64, "velocity": 104, "channel": 0}, {"type": "note_on", "time": 0, "note": 66, "velocity": 102, "channel": 0}, {"type": "note_off", "time": 116, "note": 66, "velocity": 102, "channel": 0}, {"type": "note_on", "time": 16, "note": 59, "velocity": 96, "channel": 0}, {"type": "note_off", "time": 365, "note": 59, "velocity": 96, "channel": 0}, {"type": "note_on", "time": 361, "note": 63, "velocity": 119, "channel": 0}, {"type": "note_off", "time": 92, "note": 63, "velocity": 119, "channel": 0}, {"type": "note_on", "time": 8, "note": 66, "velocity": 108, "channel": 0}, {"type": "note_off", "time": 184, "note": 66, "velocity": 108, "channel": 0}, {"type": "note_on", "time": 4, "note": 64, "velocity": 122, "channel": 0}, {"type": "note_off", "time": 112, "note": 64, "velocity": 122, "channel": 0}, {"type": "note_on", "time": 0, "note": 62, "velocity": 125, "channel": 0}, {"type": "note_off", "time": 92, "note": 62, "velocity": 125, "channel": 0}, {"type": "note_on", "time": 4, "note": 59, "velocity": 114, "channel": 0}, {"type": "note_off", "time": 112, "note": 59, "velocity": 114, "channel": 0}, {"type": "note_on", "time": 0, "note": 54, "velocity": 105, "channel": 0}, {"type": "note_off", "time": 100, "note": 54, "velocity": 105, "channel": 0}, {"type": "note_on", "time": 24, "note": 50, "velocity": 86, "channel": 0}, {"type": "note_on", "time": 76, "note": 52, "velocity": 108, "channel": 0}, {"type": "note_off", "time": 0, "note": 50, "velocity": 86, "channel": 0}, {"type": "note_off", "time": 88, "note": 52, "velocity": 108, "channel": 0}, {"type": "note_on", "time": 0, "note": 53, "velocity": 113, "channel": 0}, {"type": "note_off", "time": 180, "note": 53, "velocity": 113, "channel": 0}, {"type": "note_on", "time": 12, "note": 52, "velocity": 107, "channel": 0}, {"type": "note_off", "time": 80, "note": 52, "velocity": 107, "channel": 0}, {"type": "note_on", "time": 24, "note": 53, "velocity": 101, "channel": 0}, {"type": "note_off", "time": 357, "note": 53, "velocity": 101, "channel": 0}, {"type": "note_on", "time": 373, "note": 52, "velocity": 104, "channel": 0}, {"type": "note_off", "time": 28, "note": 52, "velocity": 104, "channel": 0}, {"type": "note_on", "time": 0, "note": 50, "velocity": 114, "channel": 0}, {"type": "note_off", "time": 72, "note": 50, "velocity": 114, "channel": 0}, {"type": "note_on", "time": 8, "note": 49, "velocity": 98, "channel": 0}, {"type": "note_off", "time": 100, "note": 49, "velocity": 98, "channel": 0}, {"type": "note_on", "time": 8, "note": 50, "velocity": 102, "channel": 0}, {"type": "note_off", "time": 80, "note": 50, "velocity": 102, "channel": 0}, {"type": "note_on", "time": 20, "note": 53, "velocity": 106, "channel": 0}, {"type": "note_off", "time": 84, "note": 53, "velocity": 106, "channel": 0}, {"type": "note_on", "time": 8, "note": 57, "velocity": 118, "channel": 0}, {"type": "note_off", "time": 76, "note": 57, "velocity": 118, "channel": 0}, {"type": "note_on", "time": 0, "note": 59, "velocity": 111, "channel": 0}, {"type": "note_off", "time": 68, "note": 59, "velocity": 111, "channel": 0}, {"type": "note_on", "time": 8, "note": 60, "velocity": 115, "channel": 0}, {"type": "note_off", "time": 76, "note": 60, "velocity": 115, "channel": 0}, {"type": "note_on", "time": 0, "note": 58, "velocity": 108, "channel": 0}, {"type": "note_off", "time": 68, "note": 58, "velocity": 108, "channel": 0}, {"type": "note_on", "time": 0, "note": 57, "velocity": 113, "channel": 0}, {"type": "note_off", "time": 80, "note": 57, "velocity": 113, "channel": 0}, {"type": "note_on", "time": 0, "note": 59, "velocity": 100, "channel": 0}, {"type": "note_off", "time": 349, "note": 59, "velocity": 100, "channel": 0}, {"type": "note_on", "time": 40, "note": 59, "velocity": 112, "channel": 0}, {"type": "note_off", "time": 52, "note": 59, "velocity": 112, "channel": 0}, {"type": "note_on", "time": 0, "note": 55, "velocity": 112, "channel": 0}, {"type": "note_off", "time": 124, "note": 55, "velocity": 112, "channel": 0}, {"type": "note_on", "time": 8, "note": 52, "velocity": 99, "channel": 0}, {"type": "note_off", "time": 417, "note": 52, "velocity": 99, "channel": 0}, {"type": "note_on", "time": 316, "note": 62, "velocity": 117, "channel": 0}, {"type": "note_off", "time": 76, "note": 62, "velocity": 117, "channel": 0}, {"type": "note_on", "time": 24, "note": 64, "velocity": 118, "channel": 0}, {"type": "note_off", "time": 457, "note": 64, "velocity": 118, "channel": 0}, {"type": "note_on", "time": 0, "note": 62, "velocity": 118, "channel": 0}, {"type": "note_off", "time": 64, "note": 62, "velocity": 118, "channel": 0}, {"type": "note_on", "time": 0, "note": 61, "velocity": 111, "channel": 0}, {"type": "note_off", "time": 28, "note": 61, "velocity": 111, "channel": 0}, {"type": "note_on", "time": 0, "note": 59, "velocity": 110, "channel": 0}, {"type": "note_off", "time": 80, "note": 59, "velocity": 110, "channel": 0}, {"type": "note_on", "time": 0, "note": 57, "velocity": 114, "channel": 0}, {"type": "note_off", "time": 92, "note": 57, "velocity": 114, "channel": 0}, {"type": "note_on", "time": 0, "note": 55, "velocity": 106, "channel": 0}, {"type": "note_off", "time": 100, "note": 55, "velocity": 106, "channel": 0}, {"type": "note_on", "time": 24, "note": 53, "velocity": 103, "channel": 0}, {"type": "note_off", "time": 68, "note": 53, "velocity": 103, "channel": 0}, {"type": "note_on", "time": 0, "note": 57, "velocity": 108, "channel": 0}, {"type": "note_off", "time": 120, "note": 57, "velocity": 108, "channel": 0}, {"type": "note_on", "time": 12, "note": 62, "velocity": 111, "channel": 0}, {"type": "note_off", "time": 192, "note": 62, "velocity": 111, "channel": 0}, {"type": "note_on", "time": 1183, "note": 69, "velocity": 116, "channel": 0}, {"type": "note_off", "time": 128, "note": 69, "velocity": 116, "channel": 0}, {"type": "note_on", "time": 60, "note": 64, "velocity": 105, "channel": 0}, {"type": "note_off", "time": 136, "note": 64, "velocity": 105, "channel": 0}, {"type": "note_on", "time": 80, "note": 67, "velocity": 112, "channel": 0}, {"type": "note_off", "time": 72, "note": 67, "velocity": 112, "channel": 0}, {"type": "note_on", "time": 12, "note": 68, "velocity": 111, "channel": 0}, {"type": "note_off", "time": 44, "note": 68, "velocity": 111, "channel": 0}, {"type": "note_on", "time": 12, "note": 67, "velocity": 108, "channel": 0}, {"type": "note_off", "time": 28, "note": 67, "velocity": 108, "channel": 0}, {"type": "note_on", "time": 0, "note": 64, "velocity": 118, "channel": 0}, {"type": "note_off", "time": 116, "note": 64, "velocity": 118, "channel": 0}, {"type": "note_on", "time": 76, "note": 66, "velocity": 9, "channel": 0}, {"type": "note_off", "time": 316, "note": 66, "velocity": 9, "channel": 0}, {"type": "note_on", "time": 20, "note": 69, "velocity": 112, "channel": 0}, {"type": "note_off", "time": 92, "note": 69, "velocity": 112, "channel": 0}, {"type": "note_on", "time": 92, "note": 69, "velocity": 101, "channel": 0}, {"type": "note_off", "time": 288, "note": 69, "velocity": 101, "channel": 0}, {"type": "note_on", "time": 0, "note": 66, "velocity": 94, "channel": 0}, {"type": "note_off", "time": 148, "note": 66, "velocity": 94, "channel": 0}, {"type": "note_on", "time": 389, "note": 66, "velocity": 105, "channel": 0}, {"type": "note_off", "time": 104, "note": 66, "velocity": 105, "channel": 0}, {"type": "note_on", "time": 0, "note": 64, "velocity": 124, "channel": 0}, {"type": "note_off", "time": 104, "note": 64, "velocity": 124, "channel": 0}, {"type": "note_on", "time": 0, "note": 62, "velocity": 121, "channel": 0}, {"type": "note_off", "time": 104, "note": 62, "velocity": 121, "channel": 0}, {"type": "note_on", "time": 0, "note": 57, "velocity": 104, "channel": 0}, {"type": "note_off", "time": 88, "note": 57, "velocity": 104, "channel": 0}, {"type": "note_on", "time": 0, "note": 59, "velocity": 103, "channel": 0}, {"type": "note_off", "time": 80, "note": 59, "velocity": 103, "channel": 0}, {"type": "note_on", "time": 88, "note": 62, "velocity": 117, "channel": 0}, {"type": "note_on", "time": 581, "note": 60, "velocity": 98, "channel": 0}, {"type": "note_off", "time": 0, "note": 62, "velocity": 117, "channel": 0}, {"type": "note_off", "time": 184, "note": 60, "velocity": 98, "channel": 0}, {"type": "note_on", "time": 0, "note": 57, "velocity": 120, "channel": 0}, {"type": "note_off", "time": 124, "note": 57, "velocity": 120, "channel": 0}, {"type": "note_on", "time": 0, "note": 55, "velocity": 101, "channel": 0}, {"type": "note_off", "time": 529, "note": 55, "velocity": 101, "channel": 0}, {"type": "note_on", "time": 8, "note": 57, "velocity": 108, "channel": 0}, {"type": "note_off", "time": 136, "note": 57, "velocity": 108, "channel": 0}, {"type": "note_on", "time": 0, "note": 54, "velocity": 100, "channel": 0}, {"type": "note_off", "time": 156, "note": 54, "velocity": 100, "channel": 0}, {"type": "note_on", "time": 0, "note": 55, "velocity": 119, "channel": 0}, {"type": "note_off", "time": 112, "note": 55, "velocity": 119, "channel": 0}, {"type": "note_on", "time": 8, "note": 57, "velocity": 104, "channel": 0}, {"type": "note_on", "time": 80, "note": 59, "velocity": 103, "channel": 0}, {"type": "note_off", "time": 0, "note": 57, "velocity": 104, "channel": 0}, {"type": "note_off", "time": 104, "note": 59, "velocity": 103, "channel": 0}, {"type": "note_on", "time": 4, "note": 61, "velocity": 102, "channel": 0}, {"type": "note_off", "time": 92, "note": 61, "velocity": 102, "channel": 0}, {"type": "note_on", "time": 4, "note": 64, "velocity": 114, "channel": 0}, {"type": "note_off", "time": 100, "note": 64, "velocity": 114, "channel": 0}, {"type": "note_on", "time": 0, "note": 61, "velocity": 95, "channel": 0}, {"type": "note_off", "time": 56, "note": 61, "velocity": 95, "channel": 0}, {"type": "note_on", "time": 20, "note": 62, "velocity": 116, "channel": 0}, {"type": "note_off", "time": 116, "note": 62, "velocity": 116, "channel": 0}, {"type": "note_on", "time": 0, "note": 64, "velocity": 106, "channel": 0}, {"type": "note_off", "time": 72, "note": 64, "velocity": 106, "channel": 0}, {"type": "note_on", "time": 12, "note": 66, "velocity": 92, "channel": 0}, {"type": "note_off", "time": 357, "note": 66, "velocity": 92, "channel": 0}, {"type": "note_on", "time": 52, "note": 62, "velocity": 77, "channel": 0}, {"type": "note_off", "time": 108, "note": 62, "velocity": 77, "channel": 0}, {"type": "note_on", "time": 8, "note": 66, "velocity": 100, "channel": 0}, {"type": "note_off", "time": 164, "note": 66, "velocity": 100, "channel": 0}, {"type": "note_on", "time": 28, "note": 61, "velocity": 103, "channel": 0}, {"type": "note_off", "time": 116, "note": 61, "velocity": 103, "channel": 0}, {"type": "note_on", "time": 24, "note": 64, "velocity": 103, "channel": 0}, {"type": "note_off", "time": 369, "note": 64, "velocity": 103, "channel": 0}, {"type": "note_on", "time": 96, "note": 63, "velocity": 110, "channel": 0}, {"type": "note_off", "time": 68, "note": 63, "velocity": 110, "channel": 0}, {"type": "note_on", "time": 28, "note": 65, "velocity": 103, "channel": 0}, {"type": "note_off", "time": 140, "note": 65, "velocity": 103, "channel": 0}, {"type": "note_on", "time": 8, "note": 60, "velocity": 99, "channel": 0}, {"type": "note_off", "time": 96, "note": 60, "velocity": 99, "channel": 0}, {"type": "note_on", "time": 0, "note": 64, "velocity": 96, "channel": 0}, {"type": "note_off", "time": 381, "note": 64, "velocity": 96, "channel": 0}, {"type": "note_on", "time": 304, "note": 64, "velocity": 114, "channel": 0}, {"type": "note_off", "time": 72, "note": 64, "velocity": 114, "channel": 0}, {"type": "note_on", "time": 0, "note": 62, "velocity": 118, "channel": 0}, {"type": "note_off", "time": 80, "note": 62, "velocity": 118, "channel": 0}, {"type": "note_on", "time": 0, "note": 61, "velocity": 108, "channel": 0}, {"type": "note_off", "time": 76, "note": 61, "velocity": 108, "channel": 0}, {"type": "note_on", "time": 0, "note": 57, "velocity": 112, "channel": 0}, {"type": "note_off", "time": 100, "note": 57, "velocity": 112, "channel": 0}, {"type": "note_on", "time": 0, "note": 54, "velocity": 102, "channel": 0}, {"type": "note_off", "time": 96, "note": 54, "velocity": 102, "channel": 0}, {"type": "note_on", "time": 4, "note": 50, "velocity": 95, "channel": 0}, {"type": "note_off", "time": 88, "note": 50, "velocity": 95, "channel": 0}, {"type": "note_on", "time": 0, "note": 53, "velocity": 105, "channel": 0}, {"type": "note_off", "time": 152, "note": 53, "velocity": 105, "channel": 0}, {"type": "note_on", "time": 16, "note": 50, "velocity": 100, "channel": 0}, {"type": "note_off", "time": 108, "note": 50, "velocity": 100, "channel": 0}, {"type": "note_on", "time": 0, "note": 57, "velocity": 112, "channel": 0}, {"type": "note_off", "time": 76, "note": 57, "velocity": 112, "channel": 0}, {"type": "note_on", "time": 16, "note": 59, "velocity": 103, "channel": 0}, {"type": "note_off", "time": 365, "note": 59, "velocity": 103, "channel": 0}, {"type": "note_on", "time": 4, "note": 55, "velocity": 107, "channel": 0}, {"type": "note_on", "time": 108, "note": 52, "velocity": 103, "channel": 0}, {"type": "note_off", "time": 0, "note": 55, "velocity": 107, "channel": 0}, {"type": "note_off", "time": 373, "note": 52, "velocity": 103, "channel": 0}, {"type": "note_on", "time": 0, "note": 55, "velocity": 103, "channel": 0}, {"type": "note_off", "time": 76, "note": 55, "velocity": 103, "channel": 0}, {"type": "note_on", "time": 0, "note": 59, "velocity": 101, "channel": 0}, {"type": "note_on", "time": 104, "note": 62, "velocity": 119, "channel": 0}, {"type": "note_off", "time": 0, "note": 59, "velocity": 101, "channel": 0}, {"type": "note_off", "time": 88, "note": 62, "velocity": 119, "channel": 0}, {"type": "note_on", "time": 8, "note": 61, "velocity": 104, "channel": 0}, {"type": "note_on", "time": 104, "note": 64, "velocity": 97, "channel": 0}, {"type": "note_off", "time": 0, "note": 61, "velocity": 104, "channel": 0}, {"type": "note_off", "time": 76, "note": 64, "velocity": 97, "channel": 0}, {"type": "note_on", "time": 8, "note": 67, "velocity": 102, "channel": 0}, {"type": "note_off", "time": 84, "note": 67, "velocity": 102, "channel": 0}, {"type": "note_on", "time": 44, "note": 69, "velocity": 110, "channel": 0}, {"type": "note_off", "time": 40, "note": 69, "velocity": 110, "channel": 0}, {"type": "note_on", "time": 20, "note": 71, "velocity": 103, "channel": 0}, {"type": "note_off", "time": 373, "note": 71, "velocity": 103, "channel": 0}, {"type": "note_on", "time": 16, "note": 69, "velocity": 98, "channel": 0}, {"type": "note_off", "time": 100, "note": 69, "velocity": 98, "channel": 0}, {"type": "note_on", "time": 68, "note": 66, "velocity": 94, "channel": 0}, {"type": "note_off", "time": 116, "note": 66, "velocity": 94, "channel": 0}, {"type": "note_on", "time": 68, "note": 57, "velocity": 97, "channel": 0}, {"type": "note_off", "time": 525, "note": 57, "velocity": 97, "channel": 0}, {"type": "note_on", "time": 617, "note": 69, "velocity": 121, "channel": 0}, {"type": "note_off", "time": 136, "note": 69, "velocity": 121, "channel": 0}, {"type": "note_on", "time": 40, "note": 74, "velocity": 125, "channel": 0}, {"type": "note_on", "time": 128, "note": 69, "velocity": 109, "channel": 0}, {"type": "note_off", "time": 0, "note": 74, "velocity": 125, "channel": 0}, {"type": "note_off", "time": 68, "note": 69, "velocity": 109, "channel": 0}, {"type": "note_on", "time": 0, "note": 74, "velocity": 125, "channel": 0}, {"type": "note_off", "time": 116, "note": 74, "velocity": 125, "channel": 0}, {"type": "note_on", "time": 12, "note": 69, "velocity": 118, "channel": 0}, {"type": "note_off", "time": 88, "note": 69, "velocity": 118, "channel": 0}, {"type": "note_on", "time": 88, "note": 70, "velocity": 125, "channel": 0}, {"type": "note_off", "time": 104, "note": 70, "velocity": 125, "channel": 0}, {"type": "note_on", "time": 16, "note": 72, "velocity": 119, "channel": 0}, {"type": "note_off", "time": 248, "note": 72, "velocity": 119, "channel": 0}, {"type": "note_on", "time": 92, "note": 69, "velocity": 115, "channel": 0}, {"type": "note_off", "time": 417, "note": 69, "velocity": 115, "channel": 0}, {"type": "note_on", "time": 128, "note": 72, "velocity": 122, "channel": 0}, {"type": "note_off", "time": 80, "note": 72, "velocity": 122, "channel": 0}, {"type": "note_on", "time": 12, "note": 74, "velocity": 121, "channel": 0}, {"type": "note_off", "time": 56, "note": 74, "velocity": 121, "channel": 0}, {"type": "note_on", "time": 8, "note": 72, "velocity": 121, "channel": 0}, {"type": "note_off", "time": 48, "note": 72, "velocity": 121, "channel": 0}, {"type": "note_on", "time": 16, "note": 69, "velocity": 119, "channel": 0}, {"type": "note_off", "time": 100, "note": 69, "velocity": 119, "channel": 0}, {"type": "note_on", "time": 48, "note": 69, "velocity": 105, "channel": 0}, {"type": "note_off", "time": 316, "note": 69, "velocity": 105, "channel": 0}, {"type": "note_on", "time": 20, "note": 67, "velocity": 115, "channel": 0}, {"type": "note_off", "time": 96, "note": 67, "velocity": 115, "channel": 0}, {"type": "note_on", "time": 12, "note": 66, "velocity": 110, "channel": 0}, {"type": "note_off", "time": 104, "note": 66, "velocity": 110, "channel": 0}, {"type": "note_on", "time": 4, "note": 57, "velocity": 93, "channel": 0}, {"type": "note_off", "time": 84, "note": 57, "velocity": 93, "channel": 0}, {"type": "note_on", "time": 0, "note": 59, "velocity": 101, "channel": 0}, {"type": "note_off", "time": 88, "note": 59, "velocity": 101, "channel": 0}, {"type": "note_on", "time": 0, "note": 61, "velocity": 118, "channel": 0}, {"type": "note_off", "time": 112, "note": 61, "velocity": 118, "channel": 0}, {"type": "note_on", "time": 0, "note": 64, "velocity": 122, "channel": 0}, {"type": "note_off", "time": 76, "note": 64, "velocity": 122, "channel": 0}, {"type": "note_on", "time": 0, "note": 61, "velocity": 100, "channel": 0}, {"type": "note_off", "time": 80, "note": 61, "velocity": 100, "channel": 0}, {"type": "note_on", "time": 0, "note": 62, "velocity": 127, "channel": 0}, {"type": "note_off", "time": 92, "note": 62, "velocity": 127, "channel": 0}, {"type": "note_on", "time": 4, "note": 64, "velocity": 120, "channel": 0}, {"type": "note_off", "time": 112, "note": 64, "velocity": 120, "channel": 0}, {"type": "note_on", "time": 28, "note": 65, "velocity": 109, "channel": 0}, {"type": "note_off", "time": 36, "note": 65, "velocity": 109, "channel": 0}, {"type": "note_on", "time": 0, "note": 66, "velocity": 95, "channel": 0}, {"type": "note_off", "time": 36, "note": 66, "velocity": 95, "channel": 0}, {"type": "note_on", "time": 0, "note": 65, "velocity": 114, "channel": 0}, {"type": "note_on", "time": 84, "note": 62, "velocity": 125, "channel": 0}, {"type": "note_off", "time": 0, "note": 65, "velocity": 114, "channel": 0}, {"type": "note_off", "time": 116, "note": 62, "velocity": 125, "channel": 0}, {"type": "note_on", "time": 32, "note": 57, "velocity": 108, "channel": 0}, {"type": "note_off", "time": 325, "note": 57, "velocity": 108, "channel": 0}, {"type": "note_on", "time": 24, "note": 62, "velocity": 123, "channel": 0}, {"type": "note_off", "time": 96, "note": 62, "velocity": 123, "channel": 0}, {"type": "note_on", "time": 12, "note": 64, "velocity": 120, "channel": 0}, {"type": "note_on", "time": 148, "note": 61, "velocity": 114, "channel": 0}, {"type": "note_off", "time": 0, "note": 64, "velocity": 120, "channel": 0}, {"type": "note_off", "time": 108, "note": 61, "velocity": 114, "channel": 0}, {"type": "note_on", "time": 4, "note": 57, "velocity": 118, "channel": 0}, {"type": "note_off", "time": 104, "note": 57, "velocity": 118, "channel": 0}, {"type": "note_on", "time": 0, "note": 55, "velocity": 114, "channel": 0}, {"type": "note_off", "time": 100, "note": 55, "velocity": 114, "channel": 0}, {"type": "note_on", "time": 0, "note": 53, "velocity": 104, "channel": 0}, {"type": "note_off", "time": 72, "note": 53, "velocity": 104, "channel": 0}, {"type": "note_on", "time": 28, "note": 54, "velocity": 101, "channel": 0}, {"type": "note_off", "time": 353, "note": 54, "velocity": 101, "channel": 0}, {"type": "note_on", "time": 92, "note": 55, "velocity": 110, "channel": 0}, {"type": "note_off", "time": 84, "note": 55, "velocity": 110, "channel": 0}, {"type": "note_on", "time": 28, "note": 57, "velocity": 110, "channel": 0}, {"type": "note_off", "time": 80, "note": 57, "velocity": 110, "channel": 0}, {"type": "note_on", "time": 0, "note": 59, "velocity": 106, "channel": 0}, {"type": "note_off", "time": 100, "note": 59, "velocity": 106, "channel": 0}, {"type": "note_on", "time": 0, "note": 61, "velocity": 112, "channel": 0}, {"type": "note_off", "time": 88, "note": 61, "velocity": 112, "channel": 0}, {"type": "note_on", "time": 0, "note": 59, "velocity": 100, "channel": 0}, {"type": "note_off", "time": 421, "note": 59, "velocity": 100, "channel": 0}, {"type": "note_on", "time": 401, "note": 59, "velocity": 110, "channel": 0}, {"type": "note_off", "time": 104, "note": 59, "velocity": 110, "channel": 0}, {"type": "note_on", "time": 4, "note": 61, "velocity": 111, "channel": 0}, {"type": "note_on", "time": 88, "note": 62, "velocity": 123, "channel": 0}, {"type": "note_off", "time": 0, "note": 61, "velocity": 111, "channel": 0}, {"type": "note_off", "time": 84, "note": 62, "velocity": 123, "channel": 0}, {"type": "note_on", "time": 20, "note": 64, "velocity": 125, "channel": 0}, {"type": "note_off", "time": 88, "note": 64, "velocity": 125, "channel": 0}, {"type": "note_on", "time": 16, "note": 66, "velocity": 112, "channel": 0}, {"type": "note_off", "time": 104, "note": 66, "velocity": 112, "channel": 0}, {"type": "note_on", "time": 248, "note": 58, "velocity": 104, "channel": 0}, {"type": "note_off", "time": 84, "note": 58, "velocity": 104, "channel": 0}, {"type": "note_on", "time": 0, "note": 60, "velocity": 102, "channel": 0}, {"type": "note_off", "time": 80, "note": 60, "velocity": 102, "channel": 0}, {"type": "note_on", "time": 16, "note": 61, "velocity": 111, "channel": 0}, {"type": "note_off", "time": 108, "note": 61, "velocity": 111, "channel": 0}, {"type": "note_on", "time": 8, "note": 63, "velocity": 122, "channel": 0}, {"type": "note_off", "time": 84, "note": 63, "velocity": 122, "channel": 0}, {"type": "note_on", "time": 16, "note": 65, "velocity": 114, "channel": 0}, {"type": "note_off", "time": 112, "note": 65, "velocity": 114, "channel": 0}, {"type": "note_on", "time": 405, "note": 57, "velocity": 105, "channel": 0}, {"type": "note_off", "time": 92, "note": 57, "velocity": 105, "channel": 0}, {"type": "note_on", "time": 0, "note": 59, "velocity": 105, "channel": 0}, {"type": "note_off", "time": 76, "note": 59, "velocity": 105, "channel": 0}, {"type": "note_on", "time": 20, "note": 61, "velocity": 111, "channel": 0}, {"type": "note_off", "time": 88, "note": 61, "velocity": 111, "channel": 0}, {"type": "note_on", "time": 8, "note": 62, "velocity": 123, "channel": 0}, {"type": "note_off", "time": 80, "note": 62, "velocity": 123, "channel": 0}, {"type": "note_on", "time": 16, "note": 64, "velocity": 124, "channel": 0}, {"type": "note_off", "time": 92, "note": 64, "velocity": 124, "channel": 0}, {"type": "note_on", "time": 84, "note": 64, "velocity": 120, "channel": 0}, {"type": "note_off", "time": 136, "note": 64, "velocity": 120, "channel": 0}, {"type": "note_on", "time": 0, "note": 61, "velocity": 102, "channel": 0}, {"type": "note_off", "time": 52, "note": 61, "velocity": 102, "channel": 0}, {"type": "note_on", "time": 20, "note": 63, "velocity": 120, "channel": 0}, {"type": "note_off", "time": 96, "note": 63, "velocity": 120, "channel": 0}, {"type": "note_on", "time": 20, "note": 69, "velocity": 120, "channel": 0}, {"type": "note_off", "time": 68, "note": 69, "velocity": 120, "channel": 0}, {"type": "note_on", "time": 12, "note": 71, "velocity": 115, "channel": 0}, {"type": "note_off", "time": 469, "note": 71, "velocity": 115, "channel": 0}, {"type": "note_on", "time": 0, "note": 69, "velocity": 109, "channel": 0}, {"type": "note_off", "time": 72, "note": 69, "velocity": 109, "channel": 0}, {"type": "note_on", "time": 0, "note": 67, "velocity": 109, "channel": 0}, {"type": "note_off", "time": 92, "note": 67, "velocity": 109, "channel": 0}, {"type": "note_on", "time": 0, "note": 59, "velocity": 90, "channel": 0}, {"type": "note_off", "time": 88, "note": 59, "velocity": 90, "channel": 0}, {"type": "note_on", "time": 8, "note": 62, "velocity": 119, "channel": 0}, {"type": "note_off", "time": 100, "note": 62, "velocity": 119, "channel": 0}, {"type": "note_on", "time": 0, "note": 64, "velocity": 115, "channel": 0}, {"type": "note_off", "time": 72, "note": 64, "velocity": 115, "channel": 0}, {"type": "note_on", "time": 8, "note": 66, "velocity": 104, "channel": 0}, {"type": "note_off", "time": 188, "note": 66, "velocity": 104, "channel": 0}, {"type": "note_on", "time": 24, "note": 62, "velocity": 119, "channel": 0}, {"type": "note_off", "time": 96, "note": 62, "velocity": 119, "channel": 0}, {"type": "note_on", "time": 88, "note": 64, "velocity": 116, "channel": 0}, {"type": "note_off", "time": 64, "note": 64, "velocity": 116, "channel": 0}, {"type": "note_on", "time": 4, "note": 65, "velocity": 100, "channel": 0}, {"type": "note_off", "time": 228, "note": 65, "velocity": 100, "channel": 0}, {"type": "note_on", "time": 0, "note": 62, "velocity": 112, "channel": 0}, {"type": "note_off", "time": 104, "note": 62, "velocity": 112, "channel": 0}, {"type": "note_on", "time": 20, "note": 57, "velocity": 110, "channel": 0}, {"type": "note_off", "time": 100, "note": 57, "velocity": 110, "channel": 0}, {"type": "note_on", "time": 14, "note": 54, "velocity": 103, "channel": 0}, {"type": "note_off", "time": 121, "note": 54, "velocity": 103, "channel": 0}, {"type": "note_on", "time": 24, "note": 57, "velocity": 106, "channel": 0}, {"type": "note_off", "time": 80, "note": 57, "velocity": 106, "channel": 0}, {"type": "note_on", "time": 0, "note": 59, "velocity": 101, "channel": 0}, {"type": "note_off", "time": 144, "note": 59, "velocity": 101, "channel": 0}, {"type": "note_on", "time": 4, "note": 62, "velocity": 92, "channel": 0}, {"type": "note_off", "time": 601, "note": 62, "velocity": 92, "channel": 0}, {"type": "note_on", "time": 72, "note": 57, "velocity": 117, "channel": 0}, {"type": "note_off", "time": 92, "note": 57, "velocity": 117, "channel": 0}, {"type": "note_on", "time": 0, "note": 62, "velocity": 122, "channel": 0}, {"type": "note_off", "time": 96, "note": 62, "velocity": 122, "channel": 0}, {"type": "note_on", "time": 0, "note": 61, "velocity": 110, "channel": 0}, {"type": "note_off", "time": 92, "note": 61, "velocity": 110, "channel": 0}, {"type": "note_on", "time": 8, "note": 60, "velocity": 102, "channel": 0}, {"type": "note_off", "time": 304, "note": 60, "velocity": 102, "channel": 0}, {"type": "end_of_track", "time": 0}]]}