{"ticks_per_beat": 192, "tracks": [[{"type": "track_name", "name": "Melody", "time": 0}, {"type": "set_tempo", "tempo": 357142, "time": 0}, {"type": "key_signature", "key": "Eb", "time": 0}, {"type": "time_signature", "numerator": 4, "denominator": 4, "clocks_per_click": 24, "notated_32nd_notes_per_beat": 8, "time": 0}, {"type": "note_on", "time": 882, "note": 58, "velocity": 96, "channel": 0}, {"type": "note_off", "time": 84, "note": 58, "velocity": 96, "channel": 0}, {"type": "note_on", "time": 102, "note": 58, "velocity": 93, "channel": 0}, {"type": "note_off", "time": 82, "note": 58, "velocity": 93, "channel": 0}, {"type": "note_on", "time": 6, "note": 63, "velocity": 102, "channel": 0}, {"type": "note_off", "time": 95, "note": 63, "velocity": 102, "channel": 0}, {"type": "note_on", "time": 14, "note": 65, "velocity": 103, "channel": 0}, {"type": "note_off", "time": 95, "note": 65, "velocity": 103, "channel": 0}, {"type": "note_on", "time": 10, "note": 62, "velocity": 91, "channel": 0}, {"type": "note_off", "time": 110, "note": 62, "velocity": 91, "channel": 0}, {"type": "note_on", "time": 14, "note": 63, "velocity": 102, "channel": 0}, {"type": "note_off", "time": 59, "note": 63, "velocity": 102, "channel": 0}, {"type": "note_on", "time": 7, "note": 65, "velocity": 99, "channel": 0}, {"type": "note_off", "time": 132, "note": 65, "velocity": 99, "channel": 0}, {"type": "note_on", "time": 4, "note": 62, "velocity": 86, "channel": 0}, {"type": "note_off", "time": 68, "note": 62, "velocity": 86, "channel": 0}, {"type": "note_on", "time": 12, "note": 65, "velocity": 100, "channel": 0}, {"type": "note_off", "time": 141, "note": 65, "velocity": 100, "channel": 0}, {"type": "note_on", "time": 11, "note": 62, "velocity": 84, "channel": 0}, {"type": "note_off", "time": 41, "note": 62, "velocity": 84, "channel": 0}, {"type": "note_on", "time": 12, "note": 64, "velocity": 104, "channel": 0}, {"type": "note_off", "time": 124, "note": 64, "velocity": 104, "channel": 0}, {"type": "note_on", "time": 13, "note": 61, "velocity": 91, "channel": 0}, {"type": "note_off", "time": 73, "note": 61, "velocity": 91, "channel": 0}, {"type": "note_on", "time": 10, "note": 64, "velocity": 103, "channel": 0}, {"type": "note_off", "time": 112, "note": 64, "velocity": 103, "channel": 0}, {"type": "note_on", "time": 27, "note": 61, "velocity": 95, "channel": 0}, {"type": "note_off", "time": 52, "note": 61, "velocity": 95, "channel": 0}, {"type": "note_on", "time": 22, "note": 63, "velocity": 97, "channel": 0}, {"type": "note_off", "time": 322, "note": 63, "velocity": 97, "channel": 0}, {"type": "note_on", "time": 24, "note": 60, "velocity": 91, "channel": 0}, {"type": "note_off", "time": 57, "note": 60, "velocity": 91, "channel": 0}, {"type": "note_on", "time": 42, "note": 67, "velocity": 108, "channel": 0}, {"type": "note_off", "time": 100, "note": 67, "velocity": 108, "channel": 0}, {"type": "note_on", "time": 1, "note": 65, "velocity": 104, "channel": 0}, {"type": "note_off", "time": 80, "note": 65, "velocity": 104, "channel": 0}, {"type": "note_on", "time": 18, "note": 63, "velocity": 101, "channel": 0}, {"type": "note_off", "time": 85, "note": 63, "velocity": 101, "channel": 0}, {"type": "note_on", "time": 15, "note": 60, "velocity": 102, "channel": 0}, {"type": "note_off", "time": 82, "note": 60, "velocity": 102, "channel": 0}, {"type": "note_on", "time": 7, "note": 56, "velocity": 92, "channel": 0}, {"type": "note_off", "time": 99, "note": 56, "velocity": 92, "channel": 0}, {"type": "note_on", "time": 8, "note": 60, "velocity": 87, "channel": 0}, {"type": "note_off", "time": 83, "note": 60, "velocity": 87, "channel": 0}, {"type": "note_on", "time": 10, "note": 63, "velocity": 105, "channel": 0}, {"type": "note_off", "time": 97, "note": 63, "velocity": 105, "channel": 0}, {"type": "note_on", "time": 24, "note": 67, "velocity": 104, "channel": 0}, {"type": "note_off", "time": 110, "note": 67, "velocity": 104, "channel": 0}, {"type": "note_on", "time": 7, "note": 66, "velocity": 104, "channel": 0}, {"type": "note_off", "time": 95, "note": 66, "velocity": 104, "channel": 0}, {"type": "note_on", "time": 10, "note": 62, "velocity": 104, "channel": 0}, {"type": "note_off", "time": 90, "note": 62, "velocity": 104, "channel": 0}, {"type": "note_on", "time": 11, "note": 58, "velocity": 102, "channel": 0}, {"type": "note_off", "time": 76, "note": 58, "velocity": 102, "channel": 0}, {"type": "note_on", "time": 23, "note": 57, "velocity": 103, "channel": 0}, {"type": "note_off", "time": 70, "note": 57, "velocity": 103, "channel": 0}, {"type": "note_on", "time": 32, "note": 56, "velocity": 99, "channel": 0}, {"type": "note_off", "time": 77, "note": 56, "velocity": 99, "channel": 0}, {"type": "note_on", "time": 24, "note": 60, "velocity": 101, "channel": 0}, {"type": "note_off", "time": 65, "note": 60, "velocity": 101, "channel": 0}, {"type": "note_on", "time": 9, "note": 59, "velocity": 89, "channel": 0}, {"type": "note_off", "time": 101, "note": 59, "velocity": 89, "channel": 0}, {"type": "note_on", "time": 15, "note": 57, "velocity": 95, "channel": 0}, {"type": "note_off", "time": 45, "note": 57, "velocity": 95, "channel": 0}, {"type": "note_on", "time": 15, "note": 58, "velocity": 99, "channel": 0}, {"type": "note_off", "time": 129, "note": 58, "velocity": 99, "channel": 0}, {"type": "note_on", "time": 24, "note": 51, "velocity": 91, "channel": 0}, {"type": "note_off", "time": 199, "note": 51, "velocity": 91, "channel": 0}, {"type": "note_on", "time": 12, "note": 51, "velocity": 94, "channel": 0}, {"type": "note_off", "time": 55, "note": 51, "velocity": 94, "channel": 0}, {"type": "note_on", "time": 853, "note": 55, "velocity": 101, "channel": 0}, {"type": "note_off", "time": 90, "note": 55, "velocity": 101, "channel": 0}, {"type": "note_on", "time": 8, "note": 56, "velocity": 105, "channel": 0}, {"type": "note_off", "time": 29, "note": 56, "velocity": 105, "channel": 0}, {"type": "note_on", "time": 12, "note": 55, "velocity": 95, "channel": 0}, {"type": "note_off", "time": 28, "note": 55, "velocity": 95, "channel": 0}, {"type": "note_on", "time": 148, "note": 55, "velocity": 103, "channel": 0}, {"type": "note_off", "time": 44, "note": 55, "velocity": 103, "channel": 0}, {"type": "note_on", "time": 10, "note": 56, "velocity": 105, "channel": 0}, {"type": "note_off", "time": 106, "note": 56, "velocity": 105, "channel": 0}, {"type": "note_on", "time": 16, "note": 54, "velocity": 99, "channel": 0}, {"type": "note_off", "time": 67, "note": 54, "velocity": 99, "channel": 0}, {"type": "note_on", "time": 441, "note": 54, "velocity": 101, "channel": 0}, {"type": "note_off", "time": 62, "note": 54, "velocity": 101, "channel": 0}, {"type": "note_on", "time": 7, "note": 55, "velocity": 101, "channel": 0}, {"type": "note_off", "time": 40, "note": 55, "velocity": 101, "channel": 0}, {"type": "note_on", "time": 10, "note": 61, "velocity": 104, "channel": 0}, {"type": "note_off", "time": 85, "note": 61, "velocity": 104, "channel": 0}, {"type": "note_on", "time": 9, "note": 58, "velocity": 102, "channel": 0}, {"type": "note_off", "time": 170, "note": 58, "velocity": 102, "channel": 0}, {"type": "note_on", "time": 22, "note": 61, "velocity": 103, "channel": 0}, {"type": "note_off", "time": 111, "note": 61, "velocity": 103, "channel": 0}, {"type": "note_on", "time": 21, "note": 59, "velocity": 83, "channel": 0}, {"type": "note_off", "time": 42, "note": 59, "velocity": 83, "channel": 0}, {"type": "note_on", "time": 24, "note": 60, "velocity": 95, "channel": 0}, {"type": "note_off", "time": 188, "note": 60, "velocity": 95, "channel": 0}, {"type": "note_on", "time": 22, "note": 61, "velocity": 101, "channel": 0}, {"type": "note_off", "time": 73, "note": 61, "velocity": 101, "channel": 0}, {"type": "note_on", "time": 15, "note": 62, "velocity": 103, "channel": 0}, {"type": "note_off", "time": 63, "note": 62, "velocity": 103, "channel": 0}, {"type": "note_on", "time": 26, "note": 63, "velocity": 100, "channel": 0}, {"type": "note_off", "time": 93, "note": 63, "velocity": 100, "channel": 0}, {"type": "note_on", "time": 21, "note": 65, "velocity": 101, "channel": 0}, {"type": "note_off", "time": 69, "note": 65, "velocity": 101, "channel": 0}, {"type": "note_on", "time": 30, "note": 60, "velocity": 90, "channel": 0}, {"type": "note_off", "time": 70, "note": 60, "velocity": 90, "channel": 0}, {"type": "note_on", "time": 13, "note": 61, "velocity": 92, "channel": 0}, {"type": "note_off", "time": 71, "note": 61, "velocity": 92, "channel": 0}, {"type": "note_on", "time": 21, "note": 63, "velocity": 101, "channel": 0}, {"type": "note_off", "time": 117, "note": 63, "velocity": 101, "channel": 0}, {"type": "note_on", "time": 10, "note": 65, "velocity": 103, "channel": 0}, {"type": "note_off", "time": 64, "note": 65, "velocity": 103, "channel": 0}, {"type": "note_on", "time": 47, "note": 60, "velocity": 83, "channel": 0}, {"type": "note_off", "time": 77, "note": 60, "velocity": 83, "channel": 0}, {"type": "note_on", "time": 9, "note": 61, "velocity": 93, "channel": 0}, {"type": "note_off", "time": 51, "note": 61, "velocity": 93, "channel": 0}, {"type": "note_on", "time": 30, "note": 63, "velocity": 102, "channel": 0}, {"type": "note_off", "time": 105, "note": 63, "velocity": 102, "channel": 0}, {"type": "note_on", "time": 9, "note": 65, "velocity": 103, "channel": 0}, {"type": "note_off", "time": 79, "note": 65, "velocity": 103, "channel": 0}, {"type": "note_on", "time": 21, "note": 60, "velocity": 92, "channel": 0}, {"type": "note_off", "time": 95, "note": 60, "velocity": 92, "channel": 0}, {"type": "note_on", "time": 6, "note": 61, "velocity": 92, "channel": 0}, {"type": "note_off", "time": 58, "note": 61, "velocity": 92, "channel": 0}, {"type": "note_on", "time": 13, "note": 63, "velocity": 100, "channel": 0}, {"type": "note_off", "time": 128, "note": 63, "velocity": 100, "channel": 0}, {"type": "note_on", "time": 7, "note": 65, "velocity": 100, "channel": 0}, {"type": "note_off", "time": 72, "note": 65, "velocity": 100, "channel": 0}, {"type": "note_on", "time": 16, "note": 63, "velocity": 95, "channel": 0}, {"type": "note_off", "time": 106, "note": 63, "velocity": 95, "channel": 0}, {"type": "note_on", "time": 4, "note": 65, "velocity": 86, "channel": 0}, {"type": "note_off", "time": 253, "note": 65, "velocity": 86, "channel": 0}, {"type": "note_on", "time": 1019, "note": 66, "velocity": 113, "channel": 0}, {"type": "note_off", "time": 110, "note": 66, "velocity": 113, "channel": 0}, {"type": "note_on", "time": 9, "note": 65, "velocity": 101, "channel": 0}, {"type": "note_off", "time": 56, "note": 65, "velocity": 101, "channel": 0}, {"type": "note_on", "time": 25, "note": 63, "velocity": 101, "channel": 0}, {"type": "note_off", "time": 98, "note": 63, "velocity": 101, "channel": 0}, {"type": "note_on", "time": 10, "note": 65, "velocity": 93, "channel": 0}, {"type": "note_off", "time": 280, "note": 65, "velocity": 93, "channel": 0}, {"type": "note_on", "time": 234, "note": 62, "velocity": 105, "channel": 0}, {"type": "note_off", "time": 107, "note": 62, "velocity": 105, "channel": 0}, {"type": "note_on", "time": 275, "note": 58, "velocity": 95, "channel": 0}, {"type": "note_off", "time": 68, "note": 58, "velocity": 95, "channel": 0}, {"type": "note_on", "time": 4, "note": 60, "velocity": 100, "channel": 0}, {"type": "note_off", "time": 91, "note": 60, "velocity": 100, "channel": 0}, {"type": "note_on", "time": 5, "note": 61, "velocity": 100, "channel": 0}, {"type": "note_off", "time": 103, "note": 61, "velocity": 100, "channel": 0}, {"type": "note_on", "time": 17, "note": 63, "velocity": 104, "channel": 0}, {"type": "note_off", "time": 70, "note": 63, "velocity": 104, "channel": 0}, {"type": "note_on", "time": 34, "note": 59, "velocity": 92, "channel": 0}, {"type": "note_off", "time": 90, "note": 59, "velocity": 92, "channel": 0}, {"type": "note_on", "time": 8, "note": 60, "velocity": 98, "channel": 0}, {"type": "note_off", "time": 64, "note": 60, "velocity": 98, "channel": 0}, {"type": "note_on", "time": 24, "note": 55, "velocity": 101, "channel": 0}, {"type": "note_off", "time": 102, "note": 55, "velocity": 101, "channel": 0}, {"type": "note_on", "time": 10, "note": 58, "velocity": 105, "channel": 0}, {"type": "note_off", "time": 78, "note": 58, "velocity": 105, "channel": 0}, {"type": "note_on", "time": 125, "note": 56, "velocity": 104, "channel": 0}, {"type": "note_off", "time": 51, "note": 56, "velocity": 104, "channel": 0}, {"type": "note_on", "time": 7, "note": 57, "velocity": 98, "channel": 0}, {"type": "note_off", "time": 167, "note": 57, "velocity": 98, "channel": 0}, {"type": "note_on", "time": 40, "note": 60, "velocity": 105, "channel": 0}, {"type": "note_off", "time": 110, "note": 60, "velocity": 105, "channel": 0}, {"type": "note_on", "time": 6, "note": 57, "velocity": 100, "channel": 0}, {"type": "note_off", "time": 277, "note": 57, "velocity": 100, "channel": 0}, {"type": "note_on", "time": 8, "note": 60, "velocity": 102, "channel": 0}, {"type": "note_off", "time": 109, "note": 60, "velocity": 102, "channel": 0}, {"type": "note_on", "time": 9, "note": 63, "velocity": 95, "channel": 0}, {"type": "note_off", "time": 259, "note": 63, "velocity": 95, "channel": 0}, {"type": "note_on", "time": 11, "note": 60, "velocity": 93, "channel": 0}, {"type": "note_off", "time": 110, "note": 60, "velocity": 93, "channel": 0}, {"type": "note_on", "time": 6, "note": 53, "velocity": 95, "channel": 0}, {"type": "note_off", "time": 195, "note": 53, "velocity": 95, "channel": 0}, {"type": "note_on", "time": 8, "note": 53, "velocity": 99, "channel": 0}, {"type": "note_off", "time": 66, "note": 53, "velocity": 99, "channel": 0}, {"type": "note_on", "time": 802, "note": 50, "velocity": 101, "channel": 0}, {"type": "note_off", "time": 106, "note": 50, "velocity": 101, "channel": 0}, {"type": "note_on", "time": 56, "note": 51, "velocity": 105, "channel": 0}, {"type": "note_off", "time": 70, "note": 51, "velocity": 105, "channel": 0}, {"type": "note_on", "time": 90, "note": 55, "velocity": 103, "channel": 0}, {"type": "note_off", "time": 42, "note": 55, "velocity": 103, "channel": 0}, {"type": "note_on", "time": 73, "note": 60, "velocity": 100, "channel": 0}, {"type": "note_off", "time": 78, "note": 60, "velocity": 100, "channel": 0}, {"type": "note_on", "time": 51, "note": 57, "velocity": 100, "channel": 0}, {"type": "note_off", "time": 64, "note": 57, "velocity": 100, "channel": 0}, {"type": "note_on", "time": 561, "note": 60, "velocity": 101, "channel": 0}, {"type": "note_off", "time": 52, "note": 60, "velocity": 101, "channel": 0}, {"type": "note_on", "time": 25, "note": 56, "velocity": 94, "channel": 0}, {"type": "note_off", "time": 90, "note": 56, "velocity": 94, "channel": 0}, {"type": "note_on", "time": 28, "note": 60, "velocity": 94, "channel": 0}, {"type": "note_off", "time": 66, "note": 60, "velocity": 94, "channel": 0}, {"type": "note_on", "time": 36, "note": 63, "velocity": 103, "channel": 0}, {"type": "note_off", "time": 70, "note": 63, "velocity": 103, "channel": 0}, {"type": "note_on", "time": 25, "note": 66, "velocity": 107, "channel": 0}, {"type": "note_off", "time": 69, "note": 66, "velocity": 107, "channel": 0}, {"type": "note_on", "time": 32, "note": 67, "velocity": 104, "channel": 0}, {"type": "note_off", "time": 79, "note": 67, "velocity": 104, "channel": 0}, {"type": "note_on", "time": 10, "note": 68, "velocity": 100, "channel": 0}, {"type": "note_off", "time": 89, "note": 68, "velocity": 100, "channel": 0}, {"type": "note_on", "time": 546, "note": 66, "velocity": 91, "channel": 0}, {"type": "note_off", "time": 39, "note": 66, "velocity": 91, "channel": 0}, {"type": "note_on", "time": 124, "note": 70, "velocity": 115, "channel": 0}, {"type": "note_off", "time": 70, "note": 70, "velocity": 115, "channel": 0}, {"type": "note_on", "time": 24, "note": 75, "velocity": 122, "channel": 0}, {"type": "note_off", "time": 113, "note": 75, "velocity": 122, "channel": 0}, {"type": "note_on", "time": 6, "note": 74, "velocity": 112, "channel": 0}, {"type": "note_off", "time": 65, "note": 74, "velocity": 112, "channel": 0}, {"type": "note_on", "time": 11, "note": 77, "velocity": 116, "channel": 0}, {"type": "note_off", "time": 105, "note": 77, "velocity": 116, "channel": 0}, {"type": "note_on", "time": 4, "note": 75, "velocity": 119, "channel": 0}, {"type": "note_off", "time": 85, "note": 75, "velocity": 119, "channel": 0}, {"type": "note_on", "time": 58, "note": 70, "velocity": 101, "channel": 0}, {"type": "note_off", "time": 91, "note": 70, "velocity": 101, "channel": 0}, {"type": "note_on", "time": 70, "note": 68, "velocity": 95, "channel": 0}, {"type": "note_off", "time": 158, "note": 68, "velocity": 95, "channel": 0}, {"type": "note_on", "time": 24, "note": 72, "velocity": 110, "channel": 0}, {"type": "note_off", "time": 105, "note": 72, "velocity": 110, "channel": 0}, {"type": "note_on", "time": 102, "note": 70, "velocity": 97, "channel": 0}, {"type": "note_off", "time": 273, "note": 70, "velocity": 97, "channel": 0}, {"type": "note_on", "time": 46, "note": 67, "velocity": 101, "channel": 0}, {"type": "note_off", "time": 50, "note": 67, "velocity": 101, "channel": 0}, {"type": "note_on", "time": 31, "note": 63, "velocity": 101, "channel": 0}, {"type": "note_off", "time": 125, "note": 63, "velocity": 101, "channel": 0}, {"type": "note_on", "time": 11, "note": 61, "velocity": 102, "channel": 0}, {"type": "note_off", "time": 46, "note": 61, "velocity": 102, "channel": 0}, {"type": "note_on", "time": 117, "note": 61, "velocity": 92, "channel": 0}, {"type": "note_off", "time": 252, "note": 61, "velocity": 92, "channel": 0}, {"type": "note_on", "time": 9, "note": 65, "velocity": 101, "channel": 0}, {"type": "note_off", "time": 95, "note": 65, "velocity": 101, "channel": 0}, {"type": "note_on", "time": 23, "note": 68, "velocity": 99, "channel": 0}, {"type": "note_off", "time": 95, "note": 68, "velocity": 99, "channel": 0}, {"type": "note_on", "time": 12, "note": 67, "velocity": 98, "channel": 0}, {"type": "note_off", "time": 86, "note": 67, "velocity": 98, "channel": 0}, {"type": "note_on", "time": 17, "note": 63, "velocity": 95, "channel": 0}, {"type": "note_off", "time": 61, "note": 63, "velocity": 95, "channel": 0}, {"type": "note_on", "time": 12, "note": 65, "velocity": 101, "channel": 0}, {"type": "note_off", "time": 123, "note": 65, "velocity": 101, "channel": 0}, {"type": "note_on", "time": 9, "note": 60, "velocity": 91, "channel": 0}, {"type": "note_off", "time": 54, "note": 60, "velocity": 91, "channel": 0}, {"type": "note_on", "time": 8, "note": 63, "velocity": 95, "channel": 0}, {"type": "note_off", "time": 307, "note": 63, "velocity": 95, "channel": 0}, {"type": "note_on", "time": 16, "note": 60, "velocity": 88, "channel": 0}, {"type": "note_off", "time": 59, "note": 60, "velocity": 88, "channel": 0}, {"type": "note_on", "time": 9, "note": 65, "velocity": 103, "channel": 0}, {"type": "note_off", "time": 116, "note": 65, "velocity": 103, "channel": 0}, {"type": "note_on", "time": 24, "note": 63, "velocity": 98, "channel": 0}, {"type": "note_off", "time": 57, "note": 63, "velocity": 98, "channel": 0}, {"type": "note_on", "time": 1108, "note": 56, "velocity": 100, "channel": 0}, {"type": "note_off", "time": 59, "note": 56, "velocity": 100, "channel": 0}, {"type": "note_on", "time": 32, "note": 60, "velocity": 88, "channel": 0}, {"type": "note_off", "time": 88, "note": 60, "velocity": 88, "channel": 0}, {"type": "note_on", "time": 23, "note": 63, "velocity": 101, "channel": 0}, {"type": "note_off", "time": 68, "note": 63, "velocity": 101, "channel": 0}, {"type": "note_on", "time": 36, "note": 65, "velocity": 103, "channel": 0}, {"type": "note_off", "time": 120, "note": 65, "velocity": 103, "channel": 0}, {"type": "note_on", "time": 20, "note": 63, "velocity": 97, "channel": 0}, {"type": "note_off", "time": 56, "note": 63, "velocity": 97, "channel": 0}, {"type": "note_on", "time": 86, "note": 66, "velocity": 104, "channel": 0}, {"type": "note_off", "time": 91, "note": 66, "velocity": 104, "channel": 0}, {"type": "note_on", "time": 32, "note": 63, "velocity": 101, "channel": 0}, {"type": "note_off", "time": 79, "note": 63, "velocity": 101, "channel": 0}, {"type": "note_on", "time": 71, "note": 63, "velocity": 95, "channel": 0}, {"type": "note_off", "time": 306, "note": 63, "velocity": 95, "channel": 0}, {"type": "note_on", "time": 539, "note": 63, "velocity": 94, "channel": 0}, {"type": "note_off", "time": 57, "note": 63, "velocity": 94, "channel": 0}, {"type": "note_on", "time": 14, "note": 67, "velocity": 89, "channel": 0}, {"type": "note_off", "time": 55, "note": 67, "velocity": 89, "channel": 0}, {"type": "note_on", "time": 14, "note": 72, "velocity": 119, "channel": 0}, {"type": "note_off", "time": 128, "note": 72, "velocity": 119, "channel": 0}, {"type": "note_on", "time": 17, "note": 75, "velocity": 118, "channel": 0}, {"type": "note_off", "time": 119, "note": 75, "velocity": 118, "channel": 0}, {"type": "note_on", "time": 54, "note": 72, "velocity": 114, "channel": 0}, {"type": "note_off", "time": 119, "note": 72, "velocity": 114, "channel": 0}, {"type": "note_on", "time": 48, "note": 66, "velocity": 100, "channel": 0}, {"type": "note_off", "time": 129, "note": 66, "velocity": 100, "channel": 0}, {"type": "note_on", "time": 173, "note": 63, "velocity": 96, "channel": 0}, {"type": "note_off", "time": 174, "note": 63, "velocity": 96, "channel": 0}, {"type": "note_on", "time": 10, "note": 60, "velocity": 96, "channel": 0}, {"type": "note_off", "time": 110, "note": 60, "velocity": 96, "channel": 0}, {"type": "note_on", "time": 16, "note": 63, "velocity": 85, "channel": 0}, {"type": "note_off", "time": 57, "note": 63, "velocity": 85, "channel": 0}, {"type": "note_on", "time": 30, "note": 67, "velocity": 107, "channel": 0}, {"type": "note_off", "time": 71, "note": 67, "velocity": 107, "channel": 0}, {"type": "note_on", "time": 28, "note": 72, "velocity": 115, "channel": 0}, {"type": "note_off", "time": 96, "note": 72, "velocity": 115, "channel": 0}, {"type": "note_on", "time": 9, "note": 67, "velocity": 99, "channel": 0}, {"type": "note_off", "time": 88, "note": 67, "velocity": 99, "channel": 0}, {"type": "note_on", "time": 19, "note": 65, "velocity": 104, "channel": 0}, {"type": "note_off", "time": 66, "note": 65, "velocity": 104, "channel": 0}, {"type": "note_on", "time": 26, "note": 63, "velocity": 99, "channel": 0}, {"type": "note_off", "time": 92, "note": 63, "velocity": 99, "channel": 0}, {"type": "note_on", "time": 19, "note": 60, "velocity": 97, "channel": 0}, {"type": "note_off", "time": 57, "note": 60, "velocity": 97, "channel": 0}, {"type": "note_on", "time": 34, "note": 63, "velocity": 104, "channel": 0}, {"type": "note_off", "time": 74, "note": 63, "velocity": 104, "channel": 0}, {"type": "note_on", "time": 12, "note": 66, "velocity": 105, "channel": 0}, {"type": "note_off", "time": 67, "note": 66, "velocity": 105, "channel": 0}, {"type": "note_on", "time": 1, "note": 67, "velocity": 103, "channel": 0}, {"type": "note_off", "time": 116, "note": 67, "velocity": 103, "channel": 0}, {"type": "note_on", "time": 6, "note": 66, "velocity": 102, "channel": 0}, {"type": "note_off", "time": 74, "note": 66, "velocity": 102, "channel": 0}, {"type": "note_on", "time": 3, "note": 67, "velocity": 102, "channel": 0}, {"type": "note_off", "time": 213, "note": 67, "velocity": 102, "channel": 0}, {"type": "note_on", "time": 9, "note": 63, "velocity": 106, "channel": 0}, {"type": "note_off", "time": 102, "note": 63, "velocity": 106, "channel": 0}, {"type": "note_on", "time": 5, "note": 58, "velocity": 102, "channel": 0}, {"type": "note_off", "time": 76, "note": 58, "velocity": 102, "channel": 0}, {"type": "note_on", "time": 16, "note": 55, "velocity": 101, "channel": 0}, {"type": "note_off", "time": 106, "note": 55, "velocity": 101, "channel": 0}, {"type": "note_on", "time": 7, "note": 56, "velocity": 97, "channel": 0}, {"type": "note_off", "time": 31, "note": 56, "velocity": 97, "channel": 0}, {"type": "note_on", "time": 20, "note": 58, "velocity": 101, "channel": 0}, {"type": "note_off", "time": 116, "note": 58, "velocity": 101, "channel": 0}, {"type": "note_on", "time": 7, "note": 63, "velocity": 88, "channel": 0}, {"type": "note_off", "time": 233, "note": 63, "velocity": 88, "channel": 0}, {"type": "note_on", "time": 170, "note": 67, "velocity": 87, "channel": 0}, {"type": "note_off", "time": 69, "note": 67, "velocity": 87, "channel": 0}, {"type": "note_on", "time": 7, "note": 72, "velocity": 106, "channel": 0}, {"type": "note_off", "time": 103, "note": 72, "velocity": 106, "channel": 0}, {"type": "note_on", "time": 230, "note": 67, "velocity": 88, "channel": 0}, {"type": "note_off", "time": 71, "note": 67, "velocity": 88, "channel": 0}, {"type": "note_on", "time": 2, "note": 72, "velocity": 100, "channel": 0}, {"type": "note_off", "time": 93, "note": 72, "velocity": 100, "channel": 0}, {"type": "note_on", "time": 95, "note": 75, "velocity": 121, "channel": 0}, {"type": "note_off", "time": 246, "note": 75, "velocity": 121, "channel": 0}, {"type": "note_on", "time": 5, "note": 72, "velocity": 100, "channel": 0}, {"type": "note_off", "time": 69, "note": 72, "velocity": 100, "channel": 0}, {"type": "note_on", "time": 133, "note": 75, "velocity": 111, "channel": 0}, {"type": "note_off", "time": 289, "note": 75, "velocity": 111, "channel": 0}, {"type": "note_on", "time": 42, "note": 72, "velocity": 114, "channel": 0}, {"type": "note_off", "time": 73, "note": 72, "velocity": 114, "channel": 0}, {"type": "note_on", "time": 33, "note": 67, "velocity": 97, "channel": 0}, {"type": "note_off", "time": 85, "note": 67, "velocity": 97, "channel": 0}, {"type": "note_on", "time": 33, "note": 63, "velocity": 98, "channel": 0}, {"type": "note_off", "time": 67, "note": 63, "velocity": 98, "channel": 0}, {"type": "note_on", "time": 601, "note": 67, "velocity": 99, "channel": 0}, {"type": "note_off", "time": 75, "note": 67, "velocity": 99, "channel": 0}, {"type": "note_on", "time": 29, "note": 70, "velocity": 113, "channel": 0}, {"type": "note_off", "time": 79, "note": 70, "velocity": 113, "channel": 0}, {"type": "note_on", "time": 11, "note": 67, "velocity": 100, "channel": 0}, {"type": "note_off", "time": 85, "note": 67, "velocity": 100, "channel": 0}, {"type": "note_on", "time": 22, "note": 65, "velocity": 104, "channel": 0}, {"type": "note_off", "time": 68, "note": 65, "velocity": 104, "channel": 0}, {"type": "note_on", "time": 21, "note": 63, "velocity": 100, "channel": 0}, {"type": "note_off", "time": 68, "note": 63, "velocity": 100, "channel": 0}, {"type": "note_on", "time": 10, "note": 65, "velocity": 100, "channel": 0}, {"type": "note_off", "time": 32, "note": 65, "velocity": 100, "channel": 0}, {"type": "note_on", "time": 6, "note": 63, "velocity": 102, "channel": 0}, {"type": "note_off", "time": 51, "note": 63, "velocity": 102, "channel": 0}, {"type": "note_on", "time": 15, "note": 62, "velocity": 98, "channel": 0}, {"type": "note_off", "time": 97, "note": 62, "velocity": 98, "channel": 0}, {"type": "note_on", "time": 10, "note": 65, "velocity": 103, "channel": 0}, {"type": "note_off", "time": 83, "note": 65, "velocity": 103, "channel": 0}, {"type": "note_on", "time": 14, "note": 63, "velocity": 104, "channel": 0}, {"type": "note_off", "time": 105, "note": 63, "velocity": 104, "channel": 0}, {"type": "note_on", "time": 40, "note": 58, "velocity": 98, "channel": 0}, {"type": "note_off", "time": 65, "note": 58, "velocity": 98, "channel": 0}, {"type": "note_on", "time": 71, "note": 58, "velocity": 88, "channel": 0}, {"type": "note_off", "time": 182, "note": 58, "velocity": 88, "channel": 0}, {"type": "note_on", "time": 15, "note": 58, "velocity": 97, "channel": 0}, {"type": "note_off", "time": 62, "note": 58, "velocity": 97, "channel": 0}, {"type": "note_on", "time": 983, "note": 70, "velocity": 116, "channel": 0}, {"type": "note_off", "time": 102, "note": 70, "velocity": 116, "channel": 0}, {"type": "note_on", "time": 10, "note": 72, "velocity": 92, "channel": 0}, {"type": "note_off", "time": 29, "note": 72, "velocity": 92, "channel": 0}, {"type": "note_on", "time": 9, "note": 70, "velocity": 112, "channel": 0}, {"type": "note_off", "time": 59, "note": 70, "velocity": 112, "channel": 0}, {"type": "note_on", "time": 17, "note": 68, "velocity": 86, "channel": 0}, {"type": "note_off", "time": 84, "note": 68, "velocity": 86, "channel": 0}, {"type": "note_on", "time": 492, "note": 67, "velocity": 92, "channel": 0}, {"type": "note_off", "time": 147, "note": 67, "velocity": 92, "channel": 0}, {"type": "note_on", "time": 11, "note": 70, "velocity": 112, "channel": 0}, {"type": "note_off", "time": 109, "note": 70, "velocity": 112, "channel": 0}, {"type": "note_on", "time": 8, "note": 71, "velocity": 112, "channel": 0}, {"type": "note_off", "time": 92, "note": 71, "velocity": 112, "channel": 0}, {"type": "note_on", "time": 9, "note": 72, "velocity": 113, "channel": 0}, {"type": "note_off", "time": 100, "note": 72, "velocity": 113, "channel": 0}, {"type": "note_on", "time": 8, "note": 73, "velocity": 105, "channel": 0}, {"type": "note_off", "time": 62, "note": 73, "velocity": 105, "channel": 0}, {"type": "note_on", "time": 12, "note": 74, "velocity": 116, "channel": 0}, {"type": "note_off", "time": 110, "note": 74, "velocity": 116, "channel": 0}, {"type": "note_on", "time": 9, "note": 75, "velocity": 115, "channel": 0}, {"type": "note_off", "time": 84, "note": 75, "velocity": 115, "channel": 0}, {"type": "note_on", "time": 12, "note": 77, "velocity": 116, "channel": 0}, {"type": "note_off", "time": 88, "note": 77, "velocity": 116, "channel": 0}, {"type": "note_on", "time": 10, "note": 75, "velocity": 115, "channel": 0}, {"type": "note_off", "time": 92, "note": 75, "velocity": 115, "channel": 0}, {"type": "note_on", "time": 5, "note": 74, "velocity": 110, "channel": 0}, {"type": "note_off", "time": 92, "note": 74, "velocity": 110, "channel": 0}, {"type": "note_on", "time": 2, "note": 77, "velocity": 114, "channel": 0}, {"type": "note_off", "time": 84, "note": 77, "velocity": 114, "channel": 0}, {"type": "note_on", "time": 15, "note": 75, "velocity": 113, "channel": 0}, {"type": "note_off", "time": 96, "note": 75, "velocity": 113, "channel": 0}, {"type": "note_on", "time": 205, "note": 72, "velocity": 111, "channel": 0}, {"type": "note_off", "time": 59, "note": 72, "velocity": 111, "channel": 0}, {"type": "note_on", "time": 7, "note": 75, "velocity": 112, "channel": 0}, {"type": "note_off", "time": 100, "note": 75, "velocity": 112, "channel": 0}, {"type": "note_on", "time": 4, "note": 77, "velocity": 112, "channel": 0}, {"type": "note_off", "time": 42, "note": 77, "velocity": 112, "channel": 0}, {"type": "note_on", "time": 5, "note": 75, "velocity": 115, "channel": 0}, {"type": "note_off", "time": 57, "note": 75, "velocity": 115, "channel": 0}, {"type": "note_on", "time": 7, "note": 72, "velocity": 103, "channel": 0}, {"type": "note_off", "time": 91, "note": 72, "velocity": 103, "channel": 0}, {"type": "note_on", "time": 21, "note": 75, "velocity": 111, "channel": 0}, {"type": "note_off", "time": 58, "note": 75, "velocity": 111, "channel": 0}, {"type": "note_on", "time": 8, "note": 77, "velocity": 110, "channel": 0}, {"type": "note_off", "time": 128, "note": 77, "velocity": 110, "channel": 0}, {"type": "note_on", "time": 6, "note": 75, "velocity": 107, "channel": 0}, {"type": "note_off", "time": 78, "note": 75, "velocity": 107, "channel": 0}, {"type": "note_on", "time": 65, "note": 75, "velocity": 94, "channel": 0}, {"type": "note_off", "time": 298, "note": 75, "velocity": 94, "channel": 0}, {"type": "note_on", "time": 460, "note": 71, "velocity": 103, "channel": 0}, {"type": "note_off", "time": 55, "note": 71, "velocity": 103, "channel": 0}, {"type": "note_on", "time": 26, "note": 82, "velocity": 108, "channel": 0}, {"type": "note_off", "time": 126, "note": 82, "velocity": 108, "channel": 0}, {"type": "note_on", "time": 6, "note": 80, "velocity": 110, "channel": 0}, {"type": "note_off", "time": 96, "note": 80, "velocity": 110, "channel": 0}, {"type": "note_on", "time": 944, "note": 79, "velocity": 112, "channel": 0}, {"type": "note_off", "time": 85, "note": 79, "velocity": 112, "channel": 0}, {"type": "note_on", "time": 90, "note": 84, "velocity": 114, "channel": 0}, {"type": "note_off", "time": 123, "note": 84, "velocity": 114, "channel": 0}, {"type": "note_on", "time": 10, "note": 86, "velocity": 111, "channel": 0}, {"type": "note_off", "time": 78, "note": 86, "velocity": 111, "channel": 0}, {"type": "note_on", "time": 480, "note": 79, "velocity": 96, "channel": 0}, {"type": "note_off", "time": 58, "note": 79, "velocity": 96, "channel": 0}, {"type": "note_on", "time": 20, "note": 85, "velocity": 112, "channel": 0}, {"type": "note_off", "time": 110, "note": 85, "velocity": 112, "channel": 0}, {"type": "note_on", "time": 5, "note": 86, "velocity": 118, "channel": 0}, {"type": "note_off", "time": 85, "note": 86, "velocity": 118, "channel": 0}, {"type": "note_on", "time": 19, "note": 84, "velocity": 105, "channel": 0}, {"type": "note_off", "time": 638, "note": 84, "velocity": 105, "channel": 0}, {"type": "note_on", "time": 127, "note": 79, "velocity": 113, "channel": 0}, {"type": "note_off", "time": 89, "note": 79, "velocity": 113, "channel": 0}, {"type": "note_on", "time": 3, "note": 80, "velocity": 103, "channel": 0}, {"type": "note_off", "time": 28, "note": 80, "velocity": 103, "channel": 0}, {"type": "note_on", "time": 5, "note": 79, "velocity": 111, "channel": 0}, {"type": "note_off", "time": 45, "note": 79, "velocity": 111, "channel": 0}, {"type": "note_on", "time": 6, "note": 75, "velocity": 111, "channel": 0}, {"type": "note_off", "time": 94, "note": 75, "velocity": 111, "channel": 0}, {"type": "note_on", "time": 12, "note": 79, "velocity": 115, "channel": 0}, {"type": "note_off", "time": 75, "note": 79, "velocity": 115, "channel": 0}, {"type": "note_on", "time": 7, "note": 77, "velocity": 109, "channel": 0}, {"type": "note_off", "time": 90, "note": 77, "velocity": 109, "channel": 0}, {"type": "note_on", "time": 7, "note": 79, "velocity": 110, "channel": 0}, {"type": "note_off", "time": 21, "note": 79, "velocity": 110, "channel": 0}, {"type": "note_on", "time": 4, "note": 77, "velocity": 113, "channel": 0}, {"type": "note_off", "time": 56, "note": 77, "velocity": 113, "channel": 0}, {"type": "note_on", "time": 17, "note": 72, "velocity": 105, "channel": 0}, {"type": "note_off", "time": 78, "note": 72, "velocity": 105, "channel": 0}, {"type": "note_on", "time": 12, "note": 75, "velocity": 115, "channel": 0}, {"type": "note_off", "time": 89, "note": 75, "velocity": 115, "channel": 0}, {"type": "note_on", "time": 10, "note": 74, "velocity": 114, "channel": 0}, {"type": "note_off", "time": 102, "note": 74, "velocity": 114, "channel": 0}, {"type": "note_on", "time": 35, "note": 70, "velocity": 101, "channel": 0}, {"type": "note_off", "time": 63, "note": 70, "velocity": 101, "channel": 0}, {"type": "note_on", "time": 90, "note": 70, "velocity": 107, "channel": 0}, {"type": "note_off", "time": 195, "note": 70, "velocity": 107, "channel": 0}, {"type": "note_on", "time": 275, "note": 74, "velocity": 115, "channel": 0}, {"type": "note_off", "time": 120, "note": 74, "velocity": 115, "channel": 0}, {"type": "note_on", "time": 283, "note": 77, "velocity": 113, "channel": 0}, {"type": "note_off", "time": 118, "note": 77, "velocity": 113, "channel": 0}, {"type": "note_on", "time": 8, "note": 75, "velocity": 110, "channel": 0}, {"type": "note_off", "time": 68, "note": 75, "velocity": 110, "channel": 0}, {"type": "note_on", "time": 519, "note": 69, "velocity": 97, "channel": 0}, {"type": "note_off", "time": 58, "note": 69, "velocity": 97, "channel": 0}, {"type": "note_on", "time": 12, "note": 72, "velocity": 74, "channel": 0}, {"type": "note_off", "time": 111, "note": 72, "velocity": 74, "channel": 0}, {"type": "note_on", "time": 19, "note": 75, "velocity": 109, "channel": 0}, {"type": "note_off", "time": 51, "note": 75, "velocity": 109, "channel": 0}, {"type": "note_on", "time": 7, "note": 79, "velocity": 109, "channel": 0}, {"type": "note_off", "time": 193, "note": 79, "velocity": 109, "channel": 0}, {"type": "note_on", "time": 12, "note": 75, "velocity": 116, "channel": 0}, {"type": "note_off", "time": 95, "note": 75, "velocity": 116, "channel": 0}, {"type": "note_on", "time": 28, "note": 70, "velocity": 102, "channel": 0}, {"type": "note_off", "time": 91, "note": 70, "velocity": 102, "channel": 0}, {"type": "note_on", "time": 170, "note": 68, "velocity": 95, "channel": 0}, {"type": "note_off", "time": 97, "note": 68, "velocity": 95, "channel": 0}, {"type": "note_on", "time": 12, "note": 66, "velocity": 90, "channel": 0}, {"type": "note_off", "time": 35, "note": 66, "velocity": 90, "channel": 0}, {"type": "note_on", "time": 22, "note": 67, "velocity": 100, "channel": 0}, {"type": "note_off", "time": 110, "note": 67, "velocity": 100, "channel": 0}, {"type": "note_on", "time": 17, "note": 70, "velocity": 93, "channel": 0}, {"type": "note_off", "time": 290, "note": 70, "velocity": 93, "channel": 0}, {"type": "note_on", "time": 899, "note": 79, "velocity": 119, "channel": 0}, {"type": "note_off", "time": 93, "note": 79, "velocity": 119, "channel": 0}, {"type": "note_on", "time": 3, "note": 80, "velocity": 116, "channel": 0}, {"type": "note_off", "time": 48, "note": 80, "velocity": 116, "channel": 0}, {"type": "note_on", "time": 2, "note": 81, "velocity": 117, "channel": 0}, {"type": "note_off", "time": 39, "note": 81, "velocity": 117, "channel": 0}, {"type": "note_on", "time": 2, "note": 82, "velocity": 110, "channel": 0}, {"type": "note_off", "time": 46, "note": 82, "velocity": 110, "channel": 0}, {"type": "note_on", "time": 19, "note": 83, "velocity": 112, "channel": 0}, {"type": "note_off", "time": 29, "note": 83, "velocity": 112, "channel": 0}, {"type": "note_on", "time": 5, "note": 84, "velocity": 112, "channel": 0}, {"type": "note_off", "time": 40, "note": 84, "velocity": 112, "channel": 0}, {"type": "note_on", "time": 7, "note": 85, "velocity": 120, "channel": 0}, {"type": "note_off", "time": 42, "note": 85, "velocity": 120, "channel": 0}, {"type": "note_on", "time": 4, "note": 86, "velocity": 111, "channel": 0}, {"type": "note_off", "time": 39, "note": 86, "velocity": 111, "channel": 0}, {"type": "note_on", "time": 4, "note": 87, "velocity": 111, "channel": 0}, {"type": "note_off", "time": 59, "note": 87, "velocity": 111, "channel": 0}, {"type": "note_on", "time": 10, "note": 86, "velocity": 112, "channel": 0}, {"type": "note_off", "time": 42, "note": 86, "velocity": 112, "channel": 0}, {"type": "note_on", "time": 7, "note": 85, "velocity": 114, "channel": 0}, {"type": "note_off", "time": 48, "note": 85, "velocity": 114, "channel": 0}, {"type": "note_on", "time": 7, "note": 84, "velocity": 111, "channel": 0}, {"type": "note_off", "time": 76, "note": 84, "velocity": 111, "channel": 0}, {"type": "note_on", "time": 501, "note": 82, "velocity": 111, "channel": 0}, {"type": "note_off", "time": 180, "note": 82, "velocity": 111, "channel": 0}, {"type": "note_on", "time": 10, "note": 79, "velocity": 115, "channel": 0}, {"type": "note_off", "time": 95, "note": 79, "velocity": 115, "channel": 0}, {"type": "note_on", "time": 7, "note": 82, "velocity": 110, "channel": 0}, {"type": "note_off", "time": 88, "note": 82, "velocity": 110, "channel": 0}, {"type": "note_on", "time": 14, "note": 80, "velocity": 109, "channel": 0}, {"type": "note_off", "time": 92, "note": 80, "velocity": 109, "channel": 0}, {"type": "note_on", "time": 42, "note": 75, "velocity": 103, "channel": 0}, {"type": "note_off", "time": 69, "note": 75, "velocity": 103, "channel": 0}, {"type": "note_on", "time": 181, "note": 77, "velocity": 113, "channel": 0}, {"type": "note_off", "time": 120, "note": 77, "velocity": 113, "channel": 0}, {"type": "note_on", "time": 13, "note": 73, "velocity": 100, "channel": 0}, {"type": "note_off", "time": 65, "note": 73, "velocity": 100, "channel": 0}, {"type": "note_on", "time": 126, "note": 75, "velocity": 113, "channel": 0}, {"type": "note_off", "time": 113, "note": 75, "velocity": 113, "channel": 0}, {"type": "note_on", "time": 70, "note": 72, "velocity": 94, "channel": 0}, {"type": "note_off", "time": 58, "note": 72, "velocity": 94, "channel": 0}, {"type": "note_on", "time": 190, "note": 73, "velocity": 110, "channel": 0}, {"type": "note_off", "time": 95, "note": 73, "velocity": 110, "channel": 0}, {"type": "note_on", "time": 105, "note": 74, "velocity": 116, "channel": 0}, {"type": "note_off", "time": 112, "note": 74, "velocity": 116, "channel": 0}, {"type": "note_on", "time": 85, "note": 75, "velocity": 112, "channel": 0}, {"type": "note_off", "time": 308, "note": 75, "velocity": 112, "channel": 0}, {"type": "note_on", "time": 18, "note": 72, "velocity": 97, "channel": 0}, {"type": "note_off", "time": 59, "note": 72, "velocity": 97, "channel": 0}, {"type": "note_on", "time": 9, "note": 77, "velocity": 108, "channel": 0}, {"type": "note_off", "time": 114, "note": 77, "velocity": 108, "channel": 0}, {"type": "note_on", "time": 6, "note": 75, "velocity": 114, "channel": 0}, {"type": "note_off", "time": 69, "note": 75, "velocity": 114, "channel": 0}, {"type": "note_on", "time": 566, "note": 71, "velocity": 115, "channel": 0}, {"type": "note_off", "time": 120, "note": 71, "velocity": 115, "channel": 0}, {"type": "note_on", "time": 8, "note": 70, "velocity": 111, "channel": 0}, {"type": "note_off", "time": 69, "note": 70, "velocity": 111, "channel": 0}, {"type": "note_on", "time": 599, "note": 66, "velocity": 98, "channel": 0}, {"type": "note_off", "time": 91, "note": 66, "velocity": 98, "channel": 0}, {"type": "note_on", "time": 9, "note": 67, "velocity": 91, "channel": 0}, {"type": "note_off", "time": 52, "note": 67, "velocity": 91, "channel": 0}, {"type": "note_on", "time": 13, "note": 68, "velocity": 94, "channel": 0}, {"type": "note_off", "time": 117, "note": 68, "velocity": 94, "channel": 0}, {"type": "note_on", "time": 183, "note": 66, "velocity": 95, "channel": 0}, {"type": "note_off", "time": 74, "note": 66, "velocity": 95, "channel": 0}, {"type": "note_on", "time": 30, "note": 67, "velocity": 87, "channel": 0}, {"type": "note_off", "time": 77, "note": 67, "velocity": 87, "channel": 0}, {"type": "note_on", "time": 14, "note": 70, "velocity": 108, "channel": 0}, {"type": "note_off", "time": 69, "note": 70, "velocity": 108, "channel": 0}, {"type": "note_on", "time": 11, "note": 74, "velocity": 115, "channel": 0}, {"type": "note_off", "time": 88, "note": 74, "velocity": 115, "channel": 0}, {"type": "note_on", "time": 11, "note": 77, "velocity": 115, "channel": 0}, {"type": "note_off", "time": 82, "note": 77, "velocity": 115, "channel": 0}, {"type": "note_on", "time": 7, "note": 76, "velocity": 110, "channel": 0}, {"type": "note_off", "time": 79, "note": 76, "velocity": 110, "channel": 0}, {"type": "note_on", "time": 15, "note": 74, "velocity": 114, "channel": 0}, {"type": "note_off", "time": 63, "note": 74, "velocity": 114, "channel": 0}, {"type": "note_on", "time": 8, "note": 75, "velocity": 111, "channel": 0}, {"type": "note_off", "time": 110, "note": 75, "velocity": 111, "channel": 0}, {"type": "note_on", "time": 38, "note": 72, "velocity": 100, "channel": 0}, {"type": "note_off", "time": 41, "note": 72, "velocity": 100, "channel": 0}, {"type": "note_on", "time": 200, "note": 69, "velocity": 102, "channel": 0}, {"type": "note_off", "time": 92, "note": 69, "velocity": 102, "channel": 0}, {"type": "note_on", "time": 92, "note": 75, "velocity": 117, "channel": 0}, {"type": "note_off", "time": 108, "note": 75, "velocity": 117, "channel": 0}, {"type": "note_on", "time": 16, "note": 79, "velocity": 116, "channel": 0}, {"type": "note_off", "time": 91, "note": 79, "velocity": 116, "channel": 0}, {"type": "note_on", "time": 10, "note": 78, "velocity": 105, "channel": 0}, {"type": "note_off", "time": 66, "note": 78, "velocity": 105, "channel": 0}, {"type": "note_on", "time": 30, "note": 74, "velocity": 116, "channel": 0}, {"type": "note_off", "time": 74, "note": 74, "velocity": 116, "channel": 0}, {"type": "note_on", "time": 13, "note": 70, "velocity": 103, "channel": 0}, {"type": "note_off", "time": 85, "note": 70, "velocity": 103, "channel": 0}, {"type": "note_on", "time": 15, "note": 69, "velocity": 104, "channel": 0}, {"type": "note_off", "time": 58, "note": 69, "velocity": 104, "channel": 0}, {"type": "note_on", "time": 14, "note": 68, "velocity": 94, "channel": 0}, {"type": "note_off", "time": 89, "note": 68, "velocity": 94, "channel": 0}, {"type": "note_on", "time": 30, "note": 72, "velocity": 110, "channel": 0}, {"type": "note_off", "time": 60, "note": 72, "velocity": 110, "channel": 0}, {"type": "note_on", "time": 19, "note": 71, "velocity": 103, "channel": 0}, {"type": "note_off", "time": 77, "note": 71, "velocity": 103, "channel": 0}, {"type": "note_on", "time": 54, "note": 65, "velocity": 93, "channel": 0}, {"type": "note_off", "time": 39, "note": 65, "velocity": 93, "channel": 0}, {"type": "note_on", "time": 29, "note": 70, "velocity": 104, "channel": 0}, {"type": "note_off", "time": 70, "note": 70, "velocity": 104, "channel": 0}, {"type": "note_on", "time": 216, "note": 70, "velocity": 93, "channel": 0}, {"type": "note_off", "time": 66, "note": 70, "velocity": 93, "channel": 0}, {"type": "note_on", "time": 4, "note": 75, "velocity": 115, "channel": 0}, {"type": "note_off", "time": 111, "note": 75, "velocity": 115, "channel": 0}, {"type": "note_on", "time": 10, "note": 70, "velocity": 80, "channel": 0}, {"type": "note_off", "time": 86, "note": 70, "velocity": 80, "channel": 0}, {"type": "note_on", "time": 92, "note": 75, "velocity": 108, "channel": 0}, {"type": "note_off", "time": 101, "note": 75, "velocity": 108, "channel": 0}, {"type": "note_on", "time": 118, "note": 75, "velocity": 118, "channel": 0}, {"type": "note_off", "time": 61, "note": 75, "velocity": 118, "channel": 0}, {"type": "note_on", "time": 11, "note": 78, "velocity": 113, "channel": 0}, {"type": "note_off", "time": 97, "note": 78, "velocity": 113, "channel": 0}, {"type": "note_on", "time": 8, "note": 79, "velocity": 113, "channel": 0}, {"type": "note_off", "time": 67, "note": 79, "velocity": 113, "channel": 0}, {"type": "note_on", "time": 4, "note": 75, "velocity": 114, "channel": 0}, {"type": "note_off", "time": 125, "note": 75, "velocity": 114, "channel": 0}, {"type": "note_on", "time": 2, "note": 77, "velocity": 102, "channel": 0}, {"type": "note_off", "time": 70, "note": 77, "velocity": 102, "channel": 0}, {"type": "note_on", "time": 83, "note": 75, "velocity": 90, "channel": 0}, {"type": "note_off", "time": 260, "note": 75, "velocity": 90, "channel": 0}, {"type": "note_on", "time": 578, "note": 87, "velocity": 117, "channel": 0}, {"type": "note_off", "time": 106, "note": 87, "velocity": 117, "channel": 0}, {"type": "note_on", "time": 657, "note": 87, "velocity": 119, "channel": 0}, {"type": "note_off", "time": 115, "note": 87, "velocity": 119, "channel": 0}, {"type": "note_on", "time": 93, "note": 85, "velocity": 116, "channel": 0}, {"type": "note_off", "time": 95, "note": 85, "velocity": 116, "channel": 0}, {"type": "note_on", "time": 10, "note": 84, "velocity": 116, "channel": 0}, {"type": "note_off", "time": 76, "note": 84, "velocity": 116, "channel": 0}, {"type": "note_on", "time": 19, "note": 82, "velocity": 106, "channel": 0}, {"type": "note_off", "time": 105, "note": 82, "velocity": 106, "channel": 0}, {"type": "note_on", "time": 18, "note": 84, "velocity": 114, "channel": 0}, {"type": "note_off", "time": 74, "note": 84, "velocity": 114, "channel": 0}, {"type": "note_on", "time": 91, "note": 82, "velocity": 104, "channel": 0}, {"type": "note_off", "time": 259, "note": 82, "velocity": 104, "channel": 0}, {"type": "note_on", "time": 24, "note": 80, "velocity": 109, "channel": 0}, {"type": "note_off", "time": 80, "note": 80, "velocity": 109, "channel": 0}, {"type": "note_on", "time": 14, "note": 78, "velocity": 115, "channel": 0}, {"type": "note_off", "time": 70, "note": 78, "velocity": 115, "channel": 0}, {"type": "note_on", "time": 23, "note": 75, "velocity": 112, "channel": 0}, {"type": "note_off", "time": 117, "note": 75, "velocity": 112, "channel": 0}, {"type": "note_on", "time": 12, "note": 77, "velocity": 109, "channel": 0}, {"type": "note_off", "time": 68, "note": 77, "velocity": 109, "channel": 0}, {"type": "note_on", "time": 85, "note": 75, "velocity": 102, "channel": 0}, {"type": "note_off", "time": 284, "note": 75, "velocity": 102, "channel": 0}, {"type": "note_on", "time": 532, "note": 78, "velocity": 119, "channel": 0}, {"type": "note_off", "time": 44, "note": 78, "velocity": 119, "channel": 0}, {"type": "note_on", "time": 3, "note": 79, "velocity": 105, "channel": 0}, {"type": "note_off", "time": 34, "note": 79, "velocity": 105, "channel": 0}, {"type": "note_on", "time": 3, "note": 78, "velocity": 113, "channel": 0}, {"type": "note_off", "time": 34, "note": 78, "velocity": 113, "channel": 0}, {"type": "note_on", "time": 3, "note": 75, "velocity": 114, "channel": 0}, {"type": "note_off", "time": 78, "note": 75, "velocity": 114, "channel": 0}, {"type": "note_on", "time": 7, "note": 77, "velocity": 114, "channel": 0}, {"type": "note_off", "time": 45, "note": 77, "velocity": 114, "channel": 0}, {"type": "note_on", "time": 2, "note": 79, "velocity": 101, "channel": 0}, {"type": "note_off", "time": 21, "note": 79, "velocity": 101, "channel": 0}, {"type": "note_on", "time": 2, "note": 77, "velocity": 109, "channel": 0}, {"type": "note_off", "time": 27, "note": 77, "velocity": 109, "channel": 0}, {"type": "note_on", "time": 2, "note": 73, "velocity": 112, "channel": 0}, {"type": "note_off", "time": 73, "note": 73, "velocity": 112, "channel": 0}, {"type": "note_on", "time": 6, "note": 75, "velocity": 116, "channel": 0}, {"type": "note_off", "time": 118, "note": 75, "velocity": 116, "channel": 0}, {"type": "note_on", "time": 12, "note": 75, "velocity": 116, "channel": 0}, {"type": "note_off", "time": 53, "note": 75, "velocity": 116, "channel": 0}, {"type": "note_on", "time": 10, "note": 77, "velocity": 111, "channel": 0}, {"type": "note_off", "time": 78, "note": 77, "velocity": 111, "channel": 0}, {"type": "note_on", "time": 378, "note": 75, "velocity": 104, "channel": 0}, {"type": "note_off", "time": 76, "note": 75, "velocity": 104, "channel": 0}, {"type": "note_on", "time": 4, "note": 78, "velocity": 118, "channel": 0}, {"type": "note_off", "time": 57, "note": 78, "velocity": 118, "channel": 0}, {"type": "note_on", "time": 2, "note": 79, "velocity": 109, "channel": 0}, {"type": "note_off", "time": 28, "note": 79, "velocity": 109, "channel": 0}, {"type": "note_on", "time": 6, "note": 77, "velocity": 109, "channel": 0}, {"type": "note_off", "time": 22, "note": 77, "velocity": 109, "channel": 0}, {"type": "note_on", "time": 4, "note": 75, "velocity": 110, "channel": 0}, {"type": "note_off", "time": 56, "note": 75, "velocity": 110, "channel": 0}, {"type": "note_on", "time": 5, "note": 77, "velocity": 111, "channel": 0}, {"type": "note_off", "time": 110, "note": 77, "velocity": 111, "channel": 0}, {"type": "note_on", "time": 9, "note": 75, "velocity": 108, "channel": 0}, {"type": "note_off", "time": 255, "note": 75, "velocity": 108, "channel": 0}, {"type": "note_on", "time": 8, "note": 77, "velocity": 110, "channel": 0}, {"type": "note_off", "time": 97, "note": 77, "velocity": 110, "channel": 0}, {"type": "note_on", "time": 392, "note": 75, "velocity": 101, "channel": 0}, {"type": "note_off", "time": 71, "note": 75, "velocity": 101, "channel": 0}, {"type": "note_on", "time": 1, "note": 78, "velocity": 114, "channel": 0}, {"type": "note_off", "time": 170, "note": 78, "velocity": 114, "channel": 0}, {"type": "note_on", "time": 14, "note": 75, "velocity": 112, "channel": 0}, {"type": "note_off", "time": 133, "note": 75, "velocity": 112, "channel": 0}, {"type": "note_on", "time": 5, "note": 73, "velocity": 95, "channel": 0}, {"type": "note_off", "time": 46, "note": 73, "velocity": 95, "channel": 0}, {"type": "note_on", "time": 15, "note": 75, "velocity": 110, "channel": 0}, {"type": "note_off", "time": 284, "note": 75, "velocity": 110, "channel": 0}, {"type": "note_on", "time": 288, "note": 81, "velocity": 112, "channel": 0}, {"type": "note_off", "time": 102, "note": 81, "velocity": 112, "channel": 0}, {"type": "note_on", "time": 12, "note": 80, "velocity": 111, "channel": 0}, {"type": "note_off", "time": 82, "note": 80, "velocity": 111, "channel": 0}, {"type": "note_on", "time": 10, "note": 78, "velocity": 116, "channel": 0}, {"type": "note_off", "time": 107, "note": 78, "velocity": 116, "channel": 0}, {"type": "note_on", "time": 7, "note": 75, "velocity": 106, "channel": 0}, {"type": "note_off", "time": 69, "note": 75, "velocity": 106, "channel": 0}, {"type": "note_on", "time": 898, "note": 81, "velocity": 106, "channel": 0}, {"type": "note_off", "time": 132, "note": 81, "velocity": 106, "channel": 0}, {"type": "note_on", "time": 5, "note": 80, "velocity": 97, "channel": 0}, {"type": "note_off", "time": 37, "note": 80, "velocity": 97, "channel": 0}, {"type": "note_on", "time": 6, "note": 78, "velocity": 111, "channel": 0}, {"type": "note_off", "time": 128, "note": 78, "velocity": 111, "channel": 0}, {"type": "note_on", "time": 6, "note": 75, "velocity": 117, "channel": 0}, {"type": "note_off", "time": 235, "note": 75, "velocity": 117, "channel": 0}, {"type": "note_on", "time": 14, "note": 72, "velocity": 103, "channel": 0}, {"type": "note_off", "time": 102, "note": 72, "velocity": 103, "channel": 0}, {"type": "note_on", "time": 92, "note": 79, "velocity": 115, "channel": 0}, {"type": "note_off", "time": 104, "note": 79, "velocity": 115, "channel": 0}, {"type": "note_on", "time": 4, "note": 84, "velocity": 118, "channel": 0}, {"type": "note_off", "time": 93, "note": 84, "velocity": 118, "channel": 0}, {"type": "note_on", "time": 11, "note": 79, "velocity": 111, "channel": 0}, {"type": "note_off", "time": 82, "note": 79, "velocity": 111, "channel": 0}, {"type": "note_on", "time": 8, "note": 77, "velocity": 114, "channel": 0}, {"type": "note_off", "time": 77, "note": 77, "velocity": 114, "channel": 0}, {"type": "note_on", "time": 8, "note": 75, "velocity": 114, "channel": 0}, {"type": "note_off", "time": 78, "note": 75, "velocity": 114, "channel": 0}, {"type": "note_on", "time": 5, "note": 77, "velocity": 99, "channel": 0}, {"type": "note_off", "time": 31, "note": 77, "velocity": 99, "channel": 0}, {"type": "note_on", "time": 3, "note": 75, "velocity": 115, "channel": 0}, {"type": "note_off", "time": 51, "note": 75, "velocity": 115, "channel": 0}, {"type": "note_on", "time": 6, "note": 72, "velocity": 105, "channel": 0}, {"type": "note_off", "time": 103, "note": 72, "velocity": 105, "channel": 0}, {"type": "note_on", "time": 6, "note": 75, "velocity": 112, "channel": 0}, {"type": "note_off", "time": 251, "note": 75, "velocity": 112, "channel": 0}, {"type": "note_on", "time": 37, "note": 72, "velocity": 102, "channel": 0}, {"type": "note_off", "time": 38, "note": 72, "velocity": 102, "channel": 0}, {"type": "note_on", "time": 64, "note": 79, "velocity": 109, "channel": 0}, {"type": "note_off", "time": 54, "note": 79, "velocity": 109, "channel": 0}, {"type": "note_on", "time": 12, "note": 84, "velocity": 113, "channel": 0}, {"type": "note_off", "time": 108, "note": 84, "velocity": 113, "channel": 0}, {"type": "note_on", "time": 8, "note": 87, "velocity": 96, "channel": 0}, {"type": "note_off", "time": 86, "note": 87, "velocity": 96, "channel": 0}, {"type": "note_on", "time": 844, "note": 91, "velocity": 127, "channel": 0}, {"type": "note_off", "time": 92, "note": 91, "velocity": 127, "channel": 0}, {"type": "note_on", "time": 368, "note": 91, "velocity": 99, "channel": 0}, {"type": "note_off", "time": 298, "note": 91, "velocity": 99, "channel": 0}, {"type": "note_on", "time": 15, "note": 91, "velocity": 114, "channel": 0}, {"type": "note_off", "time": 92, "note": 91, "velocity": 114, "channel": 0}, {"type": "note_on", "time": 727, "note": 87, "velocity": 111, "channel": 0}, {"type": "note_off", "time": 94, "note": 87, "velocity": 111, "channel": 0}, {"type": "note_on", "time": 673, "note": 85, "velocity": 120, "channel": 0}, {"type": "note_off", "time": 117, "note": 85, "velocity": 120, "channel": 0}, {"type": "note_on", "time": 13, "note": 83, "velocity": 112, "channel": 0}, {"type": "note_off", "time": 69, "note": 83, "velocity": 112, "channel": 0}, {"type": "note_on", "time": 24, "note": 82, "velocity": 99, "channel": 0}, {"type": "note_off", "time": 72, "note": 82, "velocity": 99, "channel": 0}, {"type": "note_on", "time": 470, "note": 80, "velocity": 111, "channel": 0}, {"type": "note_off", "time": 80, "note": 80, "velocity": 111, "channel": 0}, {"type": "note_on", "time": 8, "note": 81, "velocity": 91, "channel": 0}, {"type": "note_off", "time": 28, "note": 81, "velocity": 91, "channel": 0}, {"type": "note_on", "time": 10, "note": 80, "velocity": 106, "channel": 0}, {"type": "note_off", "time": 55, "note": 80, "velocity": 106, "channel": 0}, {"type": "note_on", "time": 1, "note": 78, "velocity": 107, "channel": 0}, {"type": "note_off", "time": 92, "note": 78, "velocity": 107, "channel": 0}, {"type": "note_on", "time": 10, "note": 79, "velocity": 109, "channel": 0}, {"type": "note_off", "time": 74, "note": 79, "velocity": 109, "channel": 0}, {"type": "note_on", "time": 18, "note": 80, "velocity": 115, "channel": 0}, {"type": "note_off", "time": 108, "note": 80, "velocity": 115, "channel": 0}, {"type": "note_on", "time": 13, "note": 78, "velocity": 99, "channel": 0}, {"type": "note_off", "time": 48, "note": 78, "velocity": 99, "channel": 0}, {"type": "note_on", "time": 6, "note": 79, "velocity": 114, "channel": 0}, {"type": "note_off", "time": 86, "note": 79, "velocity": 114, "channel": 0}, {"type": "note_on", "time": 17, "note": 75, "velocity": 114, "channel": 0}, {"type": "note_off", "time": 78, "note": 75, "velocity": 114, "channel": 0}, {"type": "note_on", "time": 13, "note": 77, "velocity": 107, "channel": 0}, {"type": "note_off", "time": 74, "note": 77, "velocity": 107, "channel": 0}, {"type": "note_on", "time": 5, "note": 79, "velocity": 80, "channel": 0}, {"type": "note_off", "time": 24, "note": 79, "velocity": 80, "channel": 0}, {"type": "note_on", "time": 7, "note": 77, "velocity": 109, "channel": 0}, {"type": "note_off", "time": 68, "note": 77, "velocity": 109, "channel": 0}, {"type": "note_on", "time": 10, "note": 73, "velocity": 109, "channel": 0}, {"type": "note_off", "time": 78, "note": 73, "velocity": 109, "channel": 0}, {"type": "note_on", "time": 18, "note": 77, "velocity": 113, "channel": 0}, {"type": "note_off", "time": 68, "note": 77, "velocity": 113, "channel": 0}, {"type": "note_on", "time": 5, "note": 76, "velocity": 109, "channel": 0}, {"type": "note_off", "time": 99, "note": 76, "velocity": 109, "channel": 0}, {"type": "note_on", "time": 37, "note": 72, "velocity": 94, "channel": 0}, {"type": "note_off", "time": 47, "note": 72, "velocity": 94, "channel": 0}, {"type": "note_on", "time": 15, "note": 75, "velocity": 117, "channel": 0}, {"type": "note_off", "time": 92, "note": 75, "velocity": 117, "channel": 0}, {"type": "note_on", "time": 12, "note": 74, "velocity": 113, "channel": 0}, {"type": "note_off", "time": 89, "note": 74, "velocity": 113, "channel": 0}, {"type": "note_on", "time": 8, "note": 73, "velocity": 108, "channel": 0}, {"type": "note_off", "time": 105, "note": 73, "velocity": 108, "channel": 0}, {"type": "note_on", "time": 85, "note": 65, "velocity": 95, "channel": 0}, {"type": "note_off", "time": 77, "note": 65, "velocity": 95, "channel": 0}, {"type": "note_on", "time": 99, "note": 68, "velocity": 95, "channel": 0}, {"type": "note_off", "time": 159, "note": 68, "velocity": 95, "channel": 0}, {"type": "note_on", "time": 38, "note": 72, "velocity": 108, "channel": 0}, {"type": "note_off", "time": 80, "note": 72, "velocity": 108, "channel": 0}, {"type": "note_on", "time": 98, "note": 75, "velocity": 108, "channel": 0}, {"type": "note_off", "time": 278, "note": 75, "velocity": 108, "channel": 0}, {"type": "note_on", "time": 29, "note": 72, "velocity": 110, "channel": 0}, {"type": "note_off", "time": 53, "note": 72, "velocity": 110, "channel": 0}, {"type": "note_on", "time": 24, "note": 67, "velocity": 95, "channel": 0}, {"type": "note_off", "time": 97, "note": 67, "velocity": 95, "channel": 0}, {"type": "note_on", "time": 23, "note": 65, "velocity": 97, "channel": 0}, {"type": "note_off", "time": 59, "note": 65, "velocity": 97, "channel": 0}, {"type": "note_on", "time": 668, "note": 63, "velocity": 100, "channel": 0}, {"type": "note_off", "time": 51, "note": 63, "velocity": 100, "channel": 0}, {"type": "note_on", "time": 3, "note": 60, "velocity": 87, "channel": 0}, {"type": "note_off", "time": 70, "note": 60, "velocity": 87, "channel": 0}, {"type": "note_on", "time": 19, "note": 67, "velocity": 101, "channel": 0}, {"type": "note_off", "time": 96, "note": 67, "velocity": 101, "channel": 0}, {"type": "note_on", "time": 17, "note": 70, "velocity": 115, "channel": 0}, {"type": "note_off", "time": 112, "note": 70, "velocity": 115, "channel": 0}, {"type": "note_on", "time": 369, "note": 67, "velocity": 105, "channel": 0}, {"type": "note_off", "time": 78, "note": 67, "velocity": 105, "channel": 0}, {"type": "note_on", "time": 9, "note": 68, "velocity": 93, "channel": 0}, {"type": "note_off", "time": 85, "note": 68, "velocity": 93, "channel": 0}, {"type": "note_on", "time": 14, "note": 63, "velocity": 86, "channel": 0}, {"type": "note_off", "time": 263, "note": 63, "velocity": 86, "channel": 0}, {"type": "note_on", "time": 660, "note": 66, "velocity": 98, "channel": 0}, {"type": "note_off", "time": 70, "note": 66, "velocity": 98, "channel": 0}, {"type": "note_on", "time": 12, "note": 67, "velocity": 84, "channel": 0}, {"type": "note_off", "time": 43, "note": 67, "velocity": 84, "channel": 0}, {"type": "note_on", "time": 30, "note": 70, "velocity": 100, "channel": 0}, {"type": "note_off", "time": 23, "note": 70, "velocity": 100, "channel": 0}, {"type": "note_on", "time": 5, "note": 74, "velocity": 114, "channel": 0}, {"type": "note_off", "time": 72, "note": 74, "velocity": 114, "channel": 0}, {"type": "note_on", "time": 22, "note": 77, "velocity": 112, "channel": 0}, {"type": "note_off", "time": 91, "note": 77, "velocity": 112, "channel": 0}, {"type": "note_on", "time": 215, "note": 70, "velocity": 102, "channel": 0}, {"type": "note_off", "time": 49, "note": 70, "velocity": 102, "channel": 0}, {"type": "note_on", "time": 20, "note": 74, "velocity": 110, "channel": 0}, {"type": "note_off", "time": 80, "note": 74, "velocity": 110, "channel": 0}, {"type": "note_on", "time": 75, "note": 77, "velocity": 108, "channel": 0}, {"type": "note_off", "time": 53, "note": 77, "velocity": 108, "channel": 0}, {"type": "note_on", "time": 3, "note": 79, "velocity": 110, "channel": 0}, {"type": "note_off", "time": 31, "note": 79, "velocity": 110, "channel": 0}, {"type": "note_on", "time": 3, "note": 77, "velocity": 105, "channel": 0}, {"type": "note_off", "time": 21, "note": 77, "velocity": 105, "channel": 0}, {"type": "note_on", "time": 7, "note": 74, "velocity": 111, "channel": 0}, {"type": "note_off", "time": 68, "note": 74, "velocity": 111, "channel": 0}, {"type": "note_on", "time": 23, "note": 76, "velocity": 111, "channel": 0}, {"type": "note_off", "time": 87, "note": 76, "velocity": 111, "channel": 0}, {"type": "note_on", "time": 44, "note": 72, "velocity": 86, "channel": 0}, {"type": "note_off", "time": 49, "note": 72, "velocity": 86, "channel": 0}, {"type": "note_on", "time": 296, "note": 75, "velocity": 104, "channel": 0}, {"type": "note_off", "time": 35, "note": 75, "velocity": 104, "channel": 0}, {"type": "note_on", "time": 4, "note": 72, "velocity": 96, "channel": 0}, {"type": "note_off", "time": 46, "note": 72, "velocity": 96, "channel": 0}, {"type": "note_on", "time": 23, "note": 79, "velocity": 105, "channel": 0}, {"type": "note_off", "time": 54, "note": 79, "velocity": 105, "channel": 0}, {"type": "note_on", "time": 3, "note": 84, "velocity": 113, "channel": 0}, {"type": "note_off", "time": 70, "note": 84, "velocity": 113, "channel": 0}, {"type": "note_on", "time": 17, "note": 79, "velocity": 112, "channel": 0}, {"type": "note_off", "time": 179, "note": 79, "velocity": 112, "channel": 0}, {"type": "note_on", "time": 23, "note": 72, "velocity": 99, "channel": 0}, {"type": "note_off", "time": 66, "note": 72, "velocity": 99, "channel": 0}, {"type": "note_on", "time": 113, "note": 75, "velocity": 109, "channel": 0}, {"type": "note_off", "time": 174, "note": 75, "velocity": 109, "channel": 0}, {"type": "note_on", "time": 14, "note": 72, "velocity": 105, "channel": 0}, {"type": "note_off", "time": 102, "note": 72, "velocity": 105, "channel": 0}, {"type": "note_on", "time": 90, "note": 79, "velocity": 115, "channel": 0}, {"type": "note_off", "time": 105, "note": 79, "velocity": 115, "channel": 0}, {"type": "note_on", "time": 4, "note": 82, "velocity": 106, "channel": 0}, {"type": "note_off", "time": 84, "note": 82, "velocity": 106, "channel": 0}, {"type": "note_on", "time": 7, "note": 79, "velocity": 112, "channel": 0}, {"type": "note_off", "time": 91, "note": 79, "velocity": 112, "channel": 0}, {"type": "note_on", "time": 6, "note": 77, "velocity": 109, "channel": 0}, {"type": "note_off", "time": 72, "note": 77, "velocity": 109, "channel": 0}, {"type": "note_on", "time": 6, "note": 75, "velocity": 109, "channel": 0}, {"type": "note_off", "time": 98, "note": 75, "velocity": 109, "channel": 0}, {"type": "note_on", "time": 13, "note": 70, "velocity": 80, "channel": 0}, {"type": "note_off", "time": 80, "note": 70, "velocity": 80, "channel": 0}, {"type": "note_on", "time": 166, "note": 75, "velocity": 111, "channel": 0}, {"type": "note_off", "time": 93, "note": 75, "velocity": 111, "channel": 0}, {"type": "note_on", "time": 2, "note": 77, "velocity": 113, "channel": 0}, {"type": "note_off", "time": 54, "note": 77, "velocity": 113, "channel": 0}, {"type": "note_on", "time": 5, "note": 75, "velocity": 108, "channel": 0}, {"type": "note_off", "time": 34, "note": 75, "velocity": 108, "channel": 0}, {"type": "note_on", "time": 10, "note": 74, "velocity": 107, "channel": 0}, {"type": "note_off", "time": 86, "note": 74, "velocity": 107, "channel": 0}, {"type": "note_on", "time": 8, "note": 77, "velocity": 111, "channel": 0}, {"type": "note_off", "time": 80, "note": 77, "velocity": 111, "channel": 0}, {"type": "note_on", "time": 7, "note": 75, "velocity": 108, "channel": 0}, {"type": "note_off", "time": 98, "note": 75, "velocity": 108, "channel": 0}, {"type": "note_on", "time": 21, "note": 66, "velocity": 75, "channel": 0}, {"type": "note_off", "time": 102, "note": 66, "velocity": 75, "channel": 0}, {"type": "note_on", "time": 71, "note": 70, "velocity": 98, "channel": 0}, {"type": "note_off", "time": 85, "note": 70, "velocity": 98, "channel": 0}, {"type": "note_on", "time": 8, "note": 74, "velocity": 113, "channel": 0}, {"type": "note_off", "time": 99, "note": 74, "velocity": 113, "channel": 0}, {"type": "note_on", "time": 6, "note": 77, "velocity": 113, "channel": 0}, {"type": "note_off", "time": 80, "note": 77, "velocity": 113, "channel": 0}, {"type": "note_on", "time": 5, "note": 76, "velocity": 105, "channel": 0}, {"type": "note_off", "time": 106, "note": 76, "velocity": 105, "channel": 0}, {"type": "note_on", "time": 13, "note": 74, "velocity": 110, "channel": 0}, {"type": "note_off", "time": 60, "note": 74, "velocity": 110, "channel": 0}, {"type": "note_on", "time": 11, "note": 75, "velocity": 115, "channel": 0}, {"type": "note_off", "time": 86, "note": 75, "velocity": 115, "channel": 0}, {"type": "note_on", "time": 466, "note": 69, "velocity": 106, "channel": 0}, {"type": "note_off", "time": 72, "note": 69, "velocity": 106, "channel": 0}, {"type": "note_on", "time": 6, "note": 74, "velocity": 111, "channel": 0}, {"type": "note_off", "time": 36, "note": 74, "velocity": 111, "channel": 0}, {"type": "note_on", "time": 5, "note": 75, "velocity": 113, "channel": 0}, {"type": "note_off", "time": 24, "note": 75, "velocity": 113, "channel": 0}, {"type": "note_on", "time": 6, "note": 79, "velocity": 111, "channel": 0}, {"type": "note_off", "time": 41, "note": 79, "velocity": 111, "channel": 0}, {"type": "note_on", "time": 10, "note": 78, "velocity": 106, "channel": 0}, {"type": "note_off", "time": 69, "note": 78, "velocity": 106, "channel": 0}, {"type": "note_on", "time": 26, "note": 74, "velocity": 100, "channel": 0}, {"type": "note_off", "time": 58, "note": 74, "velocity": 100, "channel": 0}, {"type": "note_on", "time": 577, "note": 77, "velocity": 112, "channel": 0}, {"type": "note_off", "time": 52, "note": 77, "velocity": 112, "channel": 0}, {"type": "note_on", "time": 3, "note": 79, "velocity": 115, "channel": 0}, {"type": "note_off", "time": 31, "note": 79, "velocity": 115, "channel": 0}, {"type": "note_on", "time": 4, "note": 77, "velocity": 107, "channel": 0}, {"type": "note_off", "time": 38, "note": 77, "velocity": 107, "channel": 0}, {"type": "note_on", "time": 8, "note": 74, "velocity": 99, "channel": 0}, {"type": "note_off", "time": 44, "note": 74, "velocity": 99, "channel": 0}, {"type": "note_on", "time": 17, "note": 76, "velocity": 112, "channel": 0}, {"type": "note_off", "time": 54, "note": 76, "velocity": 112, "channel": 0}, {"type": "note_on", "time": 3, "note": 79, "velocity": 110, "channel": 0}, {"type": "note_off", "time": 25, "note": 79, "velocity": 110, "channel": 0}, {"type": "note_on", "time": 3, "note": 76, "velocity": 114, "channel": 0}, {"type": "note_off", "time": 49, "note": 76, "velocity": 114, "channel": 0}, {"type": "note_on", "time": 2, "note": 74, "velocity": 116, "channel": 0}, {"type": "note_off", "time": 72, "note": 74, "velocity": 116, "channel": 0}, {"type": "note_on", "time": 7, "note": 75, "velocity": 115, "channel": 0}, {"type": "note_off", "time": 85, "note": 75, "velocity": 115, "channel": 0}, {"type": "note_on", "time": 24, "note": 70, "velocity": 107, "channel": 0}, {"type": "note_off", "time": 61, "note": 70, "velocity": 107, "channel": 0}, {"type": "note_on", "time": 13, "note": 67, "velocity": 88, "channel": 0}, {"type": "note_off", "time": 92, "note": 67, "velocity": 88, "channel": 0}, {"type": "note_on", "time": 8, "note": 68, "velocity": 90, "channel": 0}, {"type": "note_off", "time": 40, "note": 68, "velocity": 90, "channel": 0}, {"type": "note_on", "time": 13, "note": 70, "velocity": 112, "channel": 0}, {"type": "note_off", "time": 94, "note": 70, "velocity": 112, "channel": 0}, {"type": "note_on", "time": 381, "note": 75, "velocity": 106, "channel": 0}, {"type": "note_off", "time": 64, "note": 75, "velocity": 106, "channel": 0}, {"type": "note_on", "time": 10, "note": 79, "velocity": 117, "channel": 0}, {"type": "note_off", "time": 100, "note": 79, "velocity": 117, "channel": 0}, {"type": "note_on", "time": 15, "note": 82, "velocity": 108, "channel": 0}, {"type": "note_off", "time": 77, "note": 82, "velocity": 108, "channel": 0}, {"type": "note_on", "time": 743, "note": 85, "velocity": 114, "channel": 0}, {"type": "note_off", "time": 120, "note": 85, "velocity": 114, "channel": 0}, {"type": "note_on", "time": 69, "note": 84, "velocity": 111, "channel": 0}, {"type": "note_off", "time": 92, "note": 84, "velocity": 111, "channel": 0}, {"type": "note_on", "time": 10, "note": 83, "velocity": 114, "channel": 0}, {"type": "note_off", "time": 98, "note": 83, "velocity": 114, "channel": 0}, {"type": "note_on", "time": 17, "note": 81, "velocity": 112, "channel": 0}, {"type": "note_off", "time": 97, "note": 81, "velocity": 112, "channel": 0}, {"type": "note_on", "time": 980, "note": 84, "velocity": 109, "channel": 0}, {"type": "note_off", "time": 256, "note": 84, "velocity": 109, "channel": 0}, {"type": "note_on", "time": 51, "note": 82, "velocity": 110, "channel": 0}, {"type": "note_off", "time": 82, "note": 82, "velocity": 110, "channel": 0}, {"type": "note_on", "time": 24, "note": 80, "velocity": 106, "channel": 0}, {"type": "note_off", "time": 110, "note": 80, "velocity": 106, "channel": 0}, {"type": "note_on", "time": 20, "note": 82, "velocity": 107, "channel": 0}, {"type": "note_off", "time": 68, "note": 82, "velocity": 107, "channel": 0}, {"type": "note_on", "time": 89, "note": 80, "velocity": 102, "channel": 0}, {"type": "note_off", "time": 228, "note": 80, "velocity": 102, "channel": 0}, {"type": "note_on", "time": 22, "note": 78, "velocity": 111, "channel": 0}, {"type": "note_off", "time": 92, "note": 78, "velocity": 111, "channel": 0}, {"type": "note_on", "time": 10, "note": 77, "velocity": 110, "channel": 0}, {"type": "note_off", "time": 85, "note": 77, "velocity": 110, "channel": 0}, {"type": "note_on", "time": 18, "note": 75, "velocity": 111, "channel": 0}, {"type": "note_off", "time": 93, "note": 75, "velocity": 111, "channel": 0}, {"type": "note_on", "time": 3, "note": 77, "velocity": 107, "channel": 0}, {"type": "note_off", "time": 71, "note": 77, "velocity": 107, "channel": 0}, {"type": "note_on", "time": 10, "note": 75, "velocity": 104, "channel": 0}, {"type": "note_off", "time": 89, "note": 75, "velocity": 104, "channel": 0}, {"type": "note_on", "time": 8, "note": 77, "velocity": 97, "channel": 0}, {"type": "note_off", "time": 314, "note": 77, "velocity": 97, "channel": 0}, {"type": "note_on", "time": 605, "note": 75, "velocity": 108, "channel": 0}, {"type": "note_off", "time": 64, "note": 75, "velocity": 108, "channel": 0}, {"type": "note_on", "time": 9, "note": 79, "velocity": 111, "channel": 0}, {"type": "note_off", "time": 85, "note": 79, "velocity": 111, "channel": 0}, {"type": "note_on", "time": 469, "note": 82, "velocity": 113, "channel": 0}, {"type": "note_off", "time": 119, "note": 82, "velocity": 113, "channel": 0}, {"type": "note_on", "time": 181, "note": 79, "velocity": 106, "channel": 0}, {"type": "note_off", "time": 76, "note": 79, "velocity": 106, "channel": 0}, {"type": "note_on", "time": 15, "note": 82, "velocity": 109, "channel": 0}, {"type": "note_off", "time": 108, "note": 82, "velocity": 109, "channel": 0}, {"type": "note_on", "time": 13, "note": 86, "velocity": 102, "channel": 0}, {"type": "note_off", "time": 316, "note": 86, "velocity": 102, "channel": 0}, {"type": "note_on", "time": 481, "note": 84, "velocity": 114, "channel": 0}, {"type": "note_off", "time": 93, "note": 84, "velocity": 114, "channel": 0}, {"type": "note_on", "time": 65, "note": 87, "velocity": 104, "channel": 0}, {"type": "note_off", "time": 82, "note": 87, "velocity": 104, "channel": 0}, {"type": "note_on", "time": 31, "note": 85, "velocity": 112, "channel": 0}, {"type": "note_off", "time": 49, "note": 85, "velocity": 112, "channel": 0}, {"type": "note_on", "time": 4, "note": 84, "velocity": 110, "channel": 0}, {"type": "note_off", "time": 36, "note": 84, "velocity": 110, "channel": 0}, {"type": "note_on", "time": 4, "note": 83, "velocity": 118, "channel": 0}, {"type": "note_off", "time": 86, "note": 83, "velocity": 118, "channel": 0}, {"type": "note_on", "time": 20, "note": 86, "velocity": 111, "channel": 0}, {"type": "note_off", "time": 75, "note": 86, "velocity": 111, "channel": 0}, {"type": "note_on", "time": 9, "note": 84, "velocity": 112, "channel": 0}, {"type": "note_off", "time": 92, "note": 84, "velocity": 112, "channel": 0}, {"type": "note_on", "time": 17, "note": 79, "velocity": 112, "channel": 0}, {"type": "note_off", "time": 93, "note": 79, "velocity": 112, "channel": 0}, {"type": "note_on", "time": 4, "note": 77, "velocity": 101, "channel": 0}, {"type": "note_off", "time": 89, "note": 77, "velocity": 101, "channel": 0}, {"type": "note_on", "time": 7, "note": 75, "velocity": 105, "channel": 0}, {"type": "note_off", "time": 57, "note": 75, "velocity": 105, "channel": 0}, {"type": "note_on", "time": 9, "note": 79, "velocity": 111, "channel": 0}, {"type": "note_off", "time": 108, "note": 79, "velocity": 111, "channel": 0}, {"type": "note_on", "time": 38, "note": 72, "velocity": 95, "channel": 0}, {"type": "note_off", "time": 70, "note": 72, "velocity": 95, "channel": 0}, {"type": "note_on", "time": 76, "note": 75, "velocity": 114, "channel": 0}, {"type": "note_off", "time": 100, "note": 75, "velocity": 114, "channel": 0}, {"type": "note_on", "time": 7, "note": 74, "velocity": 111, "channel": 0}, {"type": "note_off", "time": 104, "note": 74, "velocity": 111, "channel": 0}, {"type": "note_on", "time": 13, "note": 70, "velocity": 105, "channel": 0}, {"type": "note_off", "time": 252, "note": 70, "velocity": 105, "channel": 0}, {"type": "note_on", "time": 330, "note": 72, "velocity": 110, "channel": 0}, {"type": "note_off", "time": 131, "note": 72, "velocity": 110, "channel": 0}, {"type": "note_on", "time": 25, "note": 77, "velocity": 112, "channel": 0}, {"type": "note_off", "time": 163, "note": 77, "velocity": 112, "channel": 0}, {"type": "note_on", "time": 6, "note": 75, "velocity": 102, "channel": 0}, {"type": "note_off", "time": 47, "note": 75, "velocity": 102, "channel": 0}, {"type": "note_on", "time": 7, "note": 79, "velocity": 112, "channel": 0}, {"type": "note_off", "time": 96, "note": 79, "velocity": 112, "channel": 0}, {"type": "note_on", "time": 39, "note": 72, "velocity": 91, "channel": 0}, {"type": "note_off", "time": 49, "note": 72, "velocity": 91, "channel": 0}, {"type": "note_on", "time": 518, "note": 75, "velocity": 105, "channel": 0}, {"type": "note_off", "time": 49, "note": 75, "velocity": 105, "channel": 0}, {"type": "note_on", "time": 24, "note": 78, "velocity": 101, "channel": 0}, {"type": "note_off", "time": 78, "note": 78, "velocity": 101, "channel": 0}, {"type": "note_on", "time": 7, "note": 79, "velocity": 111, "channel": 0}, {"type": "note_off", "time": 83, "note": 79, "velocity": 111, "channel": 0}, {"type": "note_on", "time": 15, "note": 80, "velocity": 109, "channel": 0}, {"type": "note_off", "time": 86, "note": 80, "velocity": 109, "channel": 0}, {"type": "note_on", "time": 16, "note": 81, "velocity": 116, "channel": 0}, {"type": "note_off", "time": 75, "note": 81, "velocity": 116, "channel": 0}, {"type": "note_on", "time": 12, "note": 82, "velocity": 108, "channel": 0}, {"type": "note_off", "time": 86, "note": 82, "velocity": 108, "channel": 0}, {"type": "note_on", "time": 22, "note": 75, "velocity": 104, "channel": 0}, {"type": "note_off", "time": 55, "note": 75, "velocity": 104, "channel": 0}, {"type": "note_on", "time": 19, "note": 78, "velocity": 100, "channel": 0}, {"type": "note_off", "time": 97, "note": 78, "velocity": 100, "channel": 0}, {"type": "note_on", "time": 9, "note": 79, "velocity": 110, "channel": 0}, {"type": "note_off", "time": 72, "note": 79, "velocity": 110, "channel": 0}, {"type": "note_on", "time": 15, "note": 75, "velocity": 107, "channel": 0}, {"type": "note_off", "time": 84, "note": 75, "velocity": 107, "channel": 0}, {"type": "note_on", "time": 9, "note": 77, "velocity": 110, "channel": 0}, {"type": "note_off", "time": 44, "note": 77, "velocity": 110, "channel": 0}, {"type": "note_on", "time": 8, "note": 75, "velocity": 105, "channel": 0}, {"type": "note_off", "time": 37, "note": 75, "velocity": 105, "channel": 0}, {"type": "note_on", "time": 6, "note": 73, "velocity": 107, "channel": 0}, {"type": "note_off", "time": 114, "note": 73, "velocity": 107, "channel": 0}, {"type": "note_on", "time": 6, "note": 70, "velocity": 101, "channel": 0}, {"type": "note_off", "time": 49, "note": 70, "velocity": 101, "channel": 0}, {"type": "note_on", "time": 12, "note": 73, "velocity": 113, "channel": 0}, {"type": "note_off", "time": 125, "note": 73, "velocity": 113, "channel": 0}, {"type": "note_on", "time": 7, "note": 75, "velocity": 105, "channel": 0}, {"type": "note_off", "time": 270, "note": 75, "velocity": 105, "channel": 0}, {"type": "note_on", "time": 600, "note": 70, "velocity": 112, "channel": 0}, {"type": "note_off", "time": 60, "note": 70, "velocity": 112, "channel": 0}, {"type": "note_on", "time": 9, "note": 73, "velocity": 114, "channel": 0}, {"type": "note_off", "time": 116, "note": 73, "velocity": 114, "channel": 0}, {"type": "note_on", "time": 25, "note": 77, "velocity": 112, "channel": 0}, {"type": "note_off", "time": 84, "note": 77, "velocity": 112, "channel": 0}, {"type": "note_on", "time": 91, "note": 72, "velocity": 107, "channel": 0}, {"type": "note_off", "time": 78, "note": 72, "velocity": 107, "channel": 0}, {"type": "note_on", "time": 90, "note": 75, "velocity": 97, "channel": 0}, {"type": "note_off", "time": 246, "note": 75, "velocity": 97, "channel": 0}, {"type": "note_on", "time": 29, "note": 73, "velocity": 109, "channel": 0}, {"type": "note_off", "time": 89, "note": 73, "velocity": 109, "channel": 0}, {"type": "note_on", "time": 98, "note": 65, "velocity": 94, "channel": 0}, {"type": "note_off", "time": 85, "note": 65, "velocity": 94, "channel": 0}, {"type": "note_on", "time": 91, "note": 68, "velocity": 96, "channel": 0}, {"type": "note_off", "time": 166, "note": 68, "velocity": 96, "channel": 0}, {"type": "note_on", "time": 28, "note": 72, "velocity": 104, "channel": 0}, {"type": "note_off", "time": 101, "note": 72, "velocity": 104, "channel": 0}, {"type": "note_on", "time": 75, "note": 75, "velocity": 101, "channel": 0}, {"type": "note_off", "time": 270, "note": 75, "velocity": 101, "channel": 0}, {"type": "note_on", "time": 568, "note": 68, "velocity": 93, "channel": 0}, {"type": "note_off", "time": 67, "note": 68, "velocity": 93, "channel": 0}, {"type": "note_on", "time": 9, "note": 72, "velocity": 96, "channel": 0}, {"type": "note_off", "time": 84, "note": 72, "velocity": 96, "channel": 0}, {"type": "note_on", "time": 17, "note": 75, "velocity": 110, "channel": 0}, {"type": "note_off", "time": 70, "note": 75, "velocity": 110, "channel": 0}, {"type": "note_on", "time": 18, "note": 77, "velocity": 114, "channel": 0}, {"type": "note_off", "time": 74, "note": 77, "velocity": 114, "channel": 0}, {"type": "note_on", "time": 24, "note": 75, "velocity": 112, "channel": 0}, {"type": "note_off", "time": 79, "note": 75, "velocity": 112, "channel": 0}, {"type": "note_on", "time": 13, "note": 72, "velocity": 102, "channel": 0}, {"type": "note_off", "time": 78, "note": 72, "velocity": 102, "channel": 0}, {"type": "note_on", "time": 91, "note": 75, "velocity": 98, "channel": 0}, {"type": "note_off", "time": 252, "note": 75, "velocity": 98, "channel": 0}, {"type": "note_on", "time": 745, "note": 68, "velocity": 89, "channel": 0}, {"type": "note_off", "time": 66, "note": 68, "velocity": 89, "channel": 0}, {"type": "note_on", "time": 4, "note": 71, "velocity": 9, "channel": 0}, {"type": "note_off", "time": 122, "note": 71, "velocity": 9, "channel": 0}, {"type": "note_on", "time": 9, "note": 75, "velocity": 9, "channel": 0}, {"type": "note_off", "time": 101, "note": 75, "velocity": 9, "channel": 0}, {"type": "note_on", "time": 435, "note": 67, "velocity": 98, "channel": 0}, {"type": "note_off", "time": 55, "note": 67, "velocity": 98, "channel": 0}, {"type": "note_on", "time": 4, "note": 70, "velocity": 113, "channel": 0}, {"type": "note_off", "time": 144, "note": 70, "velocity": 113, "channel": 0}, {"type": "note_on", "time": 5, "note": 74, "velocity": 116, "channel": 0}, {"type": "note_off", "time": 40, "note": 74, "velocity": 116, "channel": 0}, {"type": "note_on", "time": 5, "note": 77, "velocity": 120, "channel": 0}, {"type": "note_off", "time": 109, "note": 77, "velocity": 120, "channel": 0}, {"type": "note_on", "time": 23, "note": 74, "velocity": 121, "channel": 0}, {"type": "note_off", "time": 81, "note": 74, "velocity": 121, "channel": 0}, {"type": "note_on", "time": 77, "note": 77, "velocity": 109, "channel": 0}, {"type": "note_off", "time": 176, "note": 77, "velocity": 109, "channel": 0}, {"type": "note_on", "time": 5, "note": 79, "velocity": 123, "channel": 0}, {"type": "note_off", "time": 44, "note": 79, "velocity": 123, "channel": 0}, {"type": "note_on", "time": 4, "note": 77, "velocity": 114, "channel": 0}, {"type": "note_off", "time": 41, "note": 77, "velocity": 114, "channel": 0}, {"type": "note_on", "time": 13, "note": 76, "velocity": 111, "channel": 0}, {"type": "note_off", "time": 74, "note": 76, "velocity": 111, "channel": 0}, {"type": "note_on", "time": 10, "note": 72, "velocity": 107, "channel": 0}, {"type": "note_off", "time": 69, "note": 72, "velocity": 107, "channel": 0}, {"type": "note_on", "time": 12, "note": 75, "velocity": 116, "channel": 0}, {"type": "note_off", "time": 83, "note": 75, "velocity": 116, "channel": 0}, {"type": "note_on", "time": 107, "note": 78, "velocity": 116, "channel": 0}, {"type": "note_off", "time": 71, "note": 78, "velocity": 116, "channel": 0}, {"type": "note_on", "time": 10, "note": 79, "velocity": 112, "channel": 0}, {"type": "note_off", "time": 483, "note": 79, "velocity": 112, "channel": 0}, {"type": "note_on", "time": 76, "note": 75, "velocity": 115, "channel": 0}, {"type": "note_off", "time": 69, "note": 75, "velocity": 115, "channel": 0}, {"type": "note_on", "time": 9, "note": 78, "velocity": 115, "channel": 0}, {"type": "note_off", "time": 90, "note": 78, "velocity": 115, "channel": 0}, {"type": "note_on", "time": 8, "note": 79, "velocity": 118, "channel": 0}, {"type": "note_off", "time": 77, "note": 79, "velocity": 118, "channel": 0}, {"type": "note_on", "time": 8, "note": 80, "velocity": 117, "channel": 0}, {"type": "note_off", "time": 104, "note": 80, "velocity": 117, "channel": 0}, {"type": "note_on", "time": 9, "note": 79, "velocity": 118, "channel": 0}, {"type": "note_off", "time": 70, "note": 79, "velocity": 118, "channel": 0}, {"type": "note_on", "time": 26, "note": 75, "velocity": 114, "channel": 0}, {"type": "note_off", "time": 73, "note": 75, "velocity": 114, "channel": 0}, {"type": "note_on", "time": 10, "note": 79, "velocity": 115, "channel": 0}, {"type": "note_off", "time": 35, "note": 79, "velocity": 115, "channel": 0}, {"type": "note_on", "time": 5, "note": 75, "velocity": 117, "channel": 0}, {"type": "note_off", "time": 31, "note": 75, "velocity": 117, "channel": 0}, {"type": "note_on", "time": 4, "note": 73, "velocity": 115, "channel": 0}, {"type": "note_off", "time": 97, "note": 73, "velocity": 115, "channel": 0}, {"type": "note_on", "time": 16, "note": 75, "velocity": 121, "channel": 0}, {"type": "note_off", "time": 102, "note": 75, "velocity": 121, "channel": 0}, {"type": "end_of_track", "time": 0}]]}