{"ticks_per_beat": 192, "tracks": [[{"type": "track_name", "name": "Melody", "time": 0}, {"type": "set_tempo", "tempo": 428571, "time": 0}, {"type": "key_signature", "key": "F", "time": 0}, {"type": "time_signature", "numerator": 4, "denominator": 4, "clocks_per_click": 24, "notated_32nd_notes_per_beat": 8, "time": 0}, {"type": "note_on", "time": 1154, "note": 64, "velocity": 107, "channel": 0}, {"type": "note_off", "time": 46, "note": 64, "velocity": 107, "channel": 0}, {"type": "note_on", "time": 7, "note": 60, "velocity": 106, "channel": 0}, {"type": "note_off", "time": 27, "note": 60, "velocity": 106, "channel": 0}, {"type": "note_on", "time": 11, "note": 58, "velocity": 106, "channel": 0}, {"type": "note_off", "time": 50, "note": 58, "velocity": 106, "channel": 0}, {"type": "note_on", "time": 4, "note": 62, "velocity": 104, "channel": 0}, {"type": "note_off", "time": 57, "note": 62, "velocity": 104, "channel": 0}, {"type": "note_on", "time": 92, "note": 60, "velocity": 106, "channel": 0}, {"type": "note_off", "time": 53, "note": 60, "velocity": 106, "channel": 0}, {"type": "note_on", "time": 23, "note": 58, "velocity": 98, "channel": 0}, {"type": "note_off", "time": 40, "note": 58, "velocity": 98, "channel": 0}, {"type": "note_on", "time": 9, "note": 61, "velocity": 98, "channel": 0}, {"type": "note_off", "time": 42, "note": 61, "velocity": 98, "channel": 0}, {"type": "note_on", "time": 13, "note": 63, "velocity": 112, "channel": 0}, {"type": "note_off", "time": 50, "note": 63, "velocity": 112, "channel": 0}, {"type": "note_on", "time": 5, "note": 61, "velocity": 113, "channel": 0}, {"type": "note_off", "time": 36, "note": 61, "velocity": 113, "channel": 0}, {"type": "note_on", "time": 11, "note": 60, "velocity": 108, "channel": 0}, {"type": "note_off", "time": 34, "note": 60, "velocity": 108, "channel": 0}, {"type": "note_on", "time": 10, "note": 58, "velocity": 108, "channel": 0}, {"type": "note_off", "time": 26, "note": 58, "velocity": 108, "channel": 0}, {"type": "note_on", "time": 12, "note": 57, "velocity": 109, "channel": 0}, {"type": "note_off", "time": 53, "note": 57, "velocity": 109, "channel": 0}, {"type": "note_on", "time": 345, "note": 60, "velocity": 100, "channel": 0}, {"type": "note_off", "time": 48, "note": 60, "velocity": 100, "channel": 0}, {"type": "note_on", "time": 56, "note": 57, "velocity": 96, "channel": 0}, {"type": "note_off", "time": 24, "note": 57, "velocity": 96, "channel": 0}, {"type": "note_on", "time": 9, "note": 60, "velocity": 84, "channel": 0}, {"type": "note_off", "time": 38, "note": 60, "velocity": 84, "channel": 0}, {"type": "note_on", "time": 6, "note": 64, "velocity": 105, "channel": 0}, {"type": "note_off", "time": 63, "note": 64, "velocity": 105, "channel": 0}, {"type": "note_on", "time": 4, "note": 67, "velocity": 112, "channel": 0}, {"type": "note_off", "time": 71, "note": 67, "velocity": 112, "channel": 0}, {"type": "note_on", "time": 212, "note": 64, "velocity": 99, "channel": 0}, {"type": "note_off", "time": 24, "note": 64, "velocity": 99, "channel": 0}, {"type": "note_on", "time": 2, "note": 60, "velocity": 93, "channel": 0}, {"type": "note_off", "time": 18, "note": 60, "velocity": 93, "channel": 0}, {"type": "note_on", "time": 71, "note": 64, "velocity": 97, "channel": 0}, {"type": "note_off", "time": 60, "note": 64, "velocity": 97, "channel": 0}, {"type": "note_on", "time": 10, "note": 67, "velocity": 104, "channel": 0}, {"type": "note_off", "time": 37, "note": 67, "velocity": 104, "channel": 0}, {"type": "note_on", "time": 38, "note": 64, "velocity": 99, "channel": 0}, {"type": "note_off", "time": 27, "note": 64, "velocity": 99, "channel": 0}, {"type": "note_on", "time": 3, "note": 65, "velocity": 105, "channel": 0}, {"type": "note_off", "time": 42, "note": 65, "velocity": 105, "channel": 0}, {"type": "note_on", "time": 6, "note": 69, "velocity": 113, "channel": 0}, {"type": "note_off", "time": 76, "note": 69, "velocity": 113, "channel": 0}, {"type": "note_on", "time": 10, "note": 74, "velocity": 115, "channel": 0}, {"type": "note_off", "time": 61, "note": 74, "velocity": 115, "channel": 0}, {"type": "note_on", "time": 6, "note": 72, "velocity": 117, "channel": 0}, {"type": "note_off", "time": 57, "note": 72, "velocity": 117, "channel": 0}, {"type": "note_on", "time": 458, "note": 67, "velocity": 107, "channel": 0}, {"type": "note_off", "time": 41, "note": 67, "velocity": 107, "channel": 0}, {"type": "note_on", "time": 245, "note": 69, "velocity": 87, "channel": 0}, {"type": "note_off", "time": 46, "note": 69, "velocity": 87, "channel": 0}, {"type": "note_on", "time": 14, "note": 71, "velocity": 115, "channel": 0}, {"type": "note_off", "time": 56, "note": 71, "velocity": 115, "channel": 0}, {"type": "note_on", "time": 8, "note": 75, "velocity": 115, "channel": 0}, {"type": "note_off", "time": 148, "note": 75, "velocity": 115, "channel": 0}, {"type": "note_on", "time": 9, "note": 71, "velocity": 118, "channel": 0}, {"type": "note_off", "time": 181, "note": 71, "velocity": 118, "channel": 0}, {"type": "note_on", "time": 10, "note": 74, "velocity": 106, "channel": 0}, {"type": "note_off", "time": 132, "note": 74, "velocity": 106, "channel": 0}, {"type": "note_on", "time": 6, "note": 71, "velocity": 109, "channel": 0}, {"type": "note_off", "time": 40, "note": 71, "velocity": 109, "channel": 0}, {"type": "note_on", "time": 5, "note": 74, "velocity": 108, "channel": 0}, {"type": "note_off", "time": 62, "note": 74, "velocity": 108, "channel": 0}, {"type": "note_on", "time": 13, "note": 67, "velocity": 107, "channel": 0}, {"type": "note_off", "time": 42, "note": 67, "velocity": 107, "channel": 0}, {"type": "note_on", "time": 569, "note": 70, "velocity": 113, "channel": 0}, {"type": "note_off", "time": 36, "note": 70, "velocity": 113, "channel": 0}, {"type": "note_on", "time": 7, "note": 69, "velocity": 119, "channel": 0}, {"type": "note_off", "time": 45, "note": 69, "velocity": 119, "channel": 0}, {"type": "note_on", "time": 4, "note": 67, "velocity": 116, "channel": 0}, {"type": "note_off", "time": 45, "note": 67, "velocity": 116, "channel": 0}, {"type": "note_on", "time": 2, "note": 65, "velocity": 113, "channel": 0}, {"type": "note_off", "time": 34, "note": 65, "velocity": 113, "channel": 0}, {"type": "note_on", "time": 7, "note": 64, "velocity": 106, "channel": 0}, {"type": "note_off", "time": 51, "note": 64, "velocity": 106, "channel": 0}, {"type": "note_on", "time": 212, "note": 67, "velocity": 116, "channel": 0}, {"type": "note_off", "time": 45, "note": 67, "velocity": 116, "channel": 0}, {"type": "note_on", "time": 6, "note": 65, "velocity": 118, "channel": 0}, {"type": "note_off", "time": 47, "note": 65, "velocity": 118, "channel": 0}, {"type": "note_on", "time": 9, "note": 64, "velocity": 107, "channel": 0}, {"type": "note_off", "time": 35, "note": 64, "velocity": 107, "channel": 0}, {"type": "note_on", "time": 6, "note": 62, "velocity": 110, "channel": 0}, {"type": "note_off", "time": 43, "note": 62, "velocity": 110, "channel": 0}, {"type": "note_on", "time": 11, "note": 60, "velocity": 104, "channel": 0}, {"type": "note_off", "time": 32, "note": 60, "velocity": 104, "channel": 0}, {"type": "note_on", "time": 14, "note": 60, "velocity": 99, "channel": 0}, {"type": "note_off", "time": 38, "note": 60, "velocity": 99, "channel": 0}, {"type": "note_on", "time": 58, "note": 62, "velocity": 106, "channel": 0}, {"type": "note_off", "time": 55, "note": 62, "velocity": 106, "channel": 0}, {"type": "note_on", "time": 24, "note": 55, "velocity": 92, "channel": 0}, {"type": "note_off", "time": 37, "note": 55, "velocity": 92, "channel": 0}, {"type": "note_on", "time": 31, "note": 60, "velocity": 108, "channel": 0}, {"type": "note_off", "time": 48, "note": 60, "velocity": 108, "channel": 0}, {"type": "note_on", "time": 438, "note": 57, "velocity": 100, "channel": 0}, {"type": "note_off", "time": 26, "note": 57, "velocity": 100, "channel": 0}, {"type": "note_on", "time": 8, "note": 60, "velocity": 106, "channel": 0}, {"type": "note_off", "time": 68, "note": 60, "velocity": 106, "channel": 0}, {"type": "note_on", "time": 443, "note": 63, "velocity": 115, "channel": 0}, {"type": "note_off", "time": 38, "note": 63, "velocity": 115, "channel": 0}, {"type": "note_on", "time": 11, "note": 62, "velocity": 117, "channel": 0}, {"type": "note_off", "time": 35, "note": 62, "velocity": 117, "channel": 0}, {"type": "note_on", "time": 6, "note": 60, "velocity": 115, "channel": 0}, {"type": "note_off", "time": 44, "note": 60, "velocity": 115, "channel": 0}, {"type": "note_on", "time": 4, "note": 58, "velocity": 116, "channel": 0}, {"type": "note_off", "time": 33, "note": 58, "velocity": 116, "channel": 0}, {"type": "note_on", "time": 13, "note": 56, "velocity": 107, "channel": 0}, {"type": "note_off", "time": 30, "note": 56, "velocity": 107, "channel": 0}, {"type": "note_on", "time": 3, "note": 57, "velocity": 107, "channel": 0}, {"type": "note_off", "time": 38, "note": 57, "velocity": 107, "channel": 0}, {"type": "note_on", "time": 12, "note": 60, "velocity": 114, "channel": 0}, {"type": "note_off", "time": 59, "note": 60, "velocity": 114, "channel": 0}, {"type": "note_on", "time": 1, "note": 57, "velocity": 111, "channel": 0}, {"type": "note_off", "time": 34, "note": 57, "velocity": 111, "channel": 0}, {"type": "note_on", "time": 4, "note": 58, "velocity": 114, "channel": 0}, {"type": "note_off", "time": 59, "note": 58, "velocity": 114, "channel": 0}, {"type": "note_on", "time": 6, "note": 55, "velocity": 114, "channel": 0}, {"type": "note_off", "time": 17, "note": 55, "velocity": 114, "channel": 0}, {"type": "note_on", "time": 3, "note": 57, "velocity": 111, "channel": 0}, {"type": "note_off", "time": 40, "note": 57, "velocity": 111, "channel": 0}, {"type": "note_on", "time": 373, "note": 69, "velocity": 119, "channel": 0}, {"type": "note_off", "time": 55, "note": 69, "velocity": 119, "channel": 0}, {"type": "note_on", "time": 15, "note": 72, "velocity": 120, "channel": 0}, {"type": "note_off", "time": 98, "note": 72, "velocity": 120, "channel": 0}, {"type": "note_on", "time": 10, "note": 70, "velocity": 115, "channel": 0}, {"type": "note_off", "time": 75, "note": 70, "velocity": 115, "channel": 0}, {"type": "note_on", "time": 387, "note": 69, "velocity": 122, "channel": 0}, {"type": "note_off", "time": 104, "note": 69, "velocity": 122, "channel": 0}, {"type": "note_on", "time": 15, "note": 67, "velocity": 105, "channel": 0}, {"type": "note_off", "time": 44, "note": 67, "velocity": 105, "channel": 0}, {"type": "note_on", "time": 16, "note": 70, "velocity": 114, "channel": 0}, {"type": "note_off", "time": 107, "note": 70, "velocity": 114, "channel": 0}, {"type": "note_on", "time": 9, "note": 69, "velocity": 122, "channel": 0}, {"type": "note_off", "time": 70, "note": 69, "velocity": 122, "channel": 0}, {"type": "note_on", "time": 32, "note": 63, "velocity": 106, "channel": 0}, {"type": "note_off", "time": 84, "note": 63, "velocity": 106, "channel": 0}, {"type": "note_on", "time": 6, "note": 64, "velocity": 108, "channel": 0}, {"type": "note_off", "time": 94, "note": 64, "velocity": 108, "channel": 0}, {"type": "note_on", "time": 6, "note": 66, "velocity": 115, "channel": 0}, {"type": "note_off", "time": 170, "note": 66, "velocity": 115, "channel": 0}, {"type": "note_on", "time": 10, "note": 69, "velocity": 122, "channel": 0}, {"type": "note_off", "time": 107, "note": 69, "velocity": 122, "channel": 0}, {"type": "note_on", "time": 7, "note": 66, "velocity": 112, "channel": 0}, {"type": "note_off", "time": 96, "note": 66, "velocity": 112, "channel": 0}, {"type": "note_on", "time": 171, "note": 62, "velocity": 95, "channel": 0}, {"type": "note_off", "time": 27, "note": 62, "velocity": 95, "channel": 0}, {"type": "note_on", "time": 10, "note": 64, "velocity": 104, "channel": 0}, {"type": "note_off", "time": 53, "note": 64, "velocity": 104, "channel": 0}, {"type": "note_on", "time": 12, "note": 61, "velocity": 100, "channel": 0}, {"type": "note_off", "time": 32, "note": 61, "velocity": 100, "channel": 0}, {"type": "note_on", "time": 5, "note": 62, "velocity": 102, "channel": 0}, {"type": "note_off", "time": 25, "note": 62, "velocity": 102, "channel": 0}, {"type": "note_on", "time": 8, "note": 64, "velocity": 98, "channel": 0}, {"type": "note_off", "time": 31, "note": 64, "velocity": 98, "channel": 0}, {"type": "note_on", "time": 11, "note": 66, "velocity": 114, "channel": 0}, {"type": "note_off", "time": 126, "note": 66, "velocity": 114, "channel": 0}, {"type": "note_on", "time": 5, "note": 69, "velocity": 119, "channel": 0}, {"type": "note_off", "time": 52, "note": 69, "velocity": 119, "channel": 0}, {"type": "note_on", "time": 19, "note": 64, "velocity": 93, "channel": 0}, {"type": "note_off", "time": 200, "note": 64, "velocity": 93, "channel": 0}, {"type": "note_on", "time": 532, "note": 68, "velocity": 121, "channel": 0}, {"type": "note_off", "time": 96, "note": 68, "velocity": 121, "channel": 0}, {"type": "note_on", "time": 7, "note": 67, "velocity": 117, "channel": 0}, {"type": "note_off", "time": 97, "note": 67, "velocity": 117, "channel": 0}, {"type": "note_on", "time": 17, "note": 65, "velocity": 122, "channel": 0}, {"type": "note_off", "time": 77, "note": 65, "velocity": 122, "channel": 0}, {"type": "note_on", "time": 192, "note": 62, "velocity": 106, "channel": 0}, {"type": "note_off", "time": 22, "note": 62, "velocity": 106, "channel": 0}, {"type": "note_on", "time": 6, "note": 60, "velocity": 104, "channel": 0}, {"type": "note_off", "time": 57, "note": 60, "velocity": 104, "channel": 0}, {"type": "note_on", "time": 8, "note": 59, "velocity": 91, "channel": 0}, {"type": "note_off", "time": 56, "note": 59, "velocity": 91, "channel": 0}, {"type": "note_on", "time": 31, "note": 65, "velocity": 127, "channel": 0}, {"type": "note_off", "time": 68, "note": 65, "velocity": 127, "channel": 0}, {"type": "note_on", "time": 2, "note": 67, "velocity": 100, "channel": 0}, {"type": "note_off", "time": 29, "note": 67, "velocity": 100, "channel": 0}, {"type": "note_on", "time": 5, "note": 68, "velocity": 119, "channel": 0}, {"type": "note_off", "time": 48, "note": 68, "velocity": 119, "channel": 0}, {"type": "note_on", "time": 6, "note": 65, "velocity": 114, "channel": 0}, {"type": "note_off", "time": 47, "note": 65, "velocity": 114, "channel": 0}, {"type": "note_on", "time": 44, "note": 60, "velocity": 98, "channel": 0}, {"type": "note_off", "time": 24, "note": 60, "velocity": 98, "channel": 0}, {"type": "note_on", "time": 21, "note": 67, "velocity": 117, "channel": 0}, {"type": "note_off", "time": 143, "note": 67, "velocity": 117, "channel": 0}, {"type": "note_on", "time": 5, "note": 65, "velocity": 103, "channel": 0}, {"type": "note_off", "time": 27, "note": 65, "velocity": 103, "channel": 0}, {"type": "note_on", "time": 5, "note": 67, "velocity": 117, "channel": 0}, {"type": "note_off", "time": 77, "note": 67, "velocity": 117, "channel": 0}, {"type": "note_on", "time": 5, "note": 65, "velocity": 113, "channel": 0}, {"type": "note_off", "time": 63, "note": 65, "velocity": 113, "channel": 0}, {"type": "note_on", "time": 620, "note": 67, "velocity": 115, "channel": 0}, {"type": "note_off", "time": 105, "note": 67, "velocity": 115, "channel": 0}, {"type": "note_on", "time": 4, "note": 72, "velocity": 116, "channel": 0}, {"type": "note_off", "time": 360, "note": 72, "velocity": 116, "channel": 0}, {"type": "note_on", "time": 89, "note": 70, "velocity": 114, "channel": 0}, {"type": "note_off", "time": 60, "note": 70, "velocity": 114, "channel": 0}, {"type": "note_on", "time": 6, "note": 72, "velocity": 112, "channel": 0}, {"type": "note_off", "time": 37, "note": 72, "velocity": 112, "channel": 0}, {"type": "note_on", "time": 6, "note": 75, "velocity": 113, "channel": 0}, {"type": "note_off", "time": 43, "note": 75, "velocity": 113, "channel": 0}, {"type": "note_on", "time": 3, "note": 72, "velocity": 112, "channel": 0}, {"type": "note_off", "time": 505, "note": 72, "velocity": 112, "channel": 0}, {"type": "note_on", "time": 30, "note": 69, "velocity": 124, "channel": 0}, {"type": "note_off", "time": 71, "note": 69, "velocity": 124, "channel": 0}, {"type": "note_on", "time": 42, "note": 64, "velocity": 102, "channel": 0}, {"type": "note_off", "time": 61, "note": 64, "velocity": 102, "channel": 0}, {"type": "note_on", "time": 15, "note": 67, "velocity": 119, "channel": 0}, {"type": "note_off", "time": 78, "note": 67, "velocity": 119, "channel": 0}, {"type": "note_on", "time": 16, "note": 65, "velocity": 111, "channel": 0}, {"type": "note_off", "time": 86, "note": 65, "velocity": 111, "channel": 0}, {"type": "note_on", "time": 36, "note": 60, "velocity": 104, "channel": 0}, {"type": "note_off", "time": 64, "note": 60, "velocity": 104, "channel": 0}, {"type": "note_on", "time": 35, "note": 57, "velocity": 97, "channel": 0}, {"type": "note_off", "time": 137, "note": 57, "velocity": 97, "channel": 0}, {"type": "note_on", "time": 28, "note": 60, "velocity": 98, "channel": 0}, {"type": "note_off", "time": 72, "note": 60, "velocity": 98, "channel": 0}, {"type": "note_on", "time": 13, "note": 64, "velocity": 103, "channel": 0}, {"type": "note_off", "time": 69, "note": 64, "velocity": 103, "channel": 0}, {"type": "note_on", "time": 10, "note": 67, "velocity": 118, "channel": 0}, {"type": "note_off", "time": 120, "note": 67, "velocity": 118, "channel": 0}, {"type": "note_on", "time": 14, "note": 65, "velocity": 117, "channel": 0}, {"type": "note_off", "time": 62, "note": 65, "velocity": 117, "channel": 0}, {"type": "note_on", "time": 597, "note": 62, "velocity": 100, "channel": 0}, {"type": "note_off", "time": 44, "note": 62, "velocity": 100, "channel": 0}, {"type": "note_on", "time": 120, "note": 60, "velocity": 99, "channel": 0}, {"type": "note_off", "time": 38, "note": 60, "velocity": 99, "channel": 0}, {"type": "note_on", "time": 9, "note": 62, "velocity": 93, "channel": 0}, {"type": "note_off", "time": 38, "note": 62, "velocity": 93, "channel": 0}, {"type": "note_on", "time": 13, "note": 64, "velocity": 106, "channel": 0}, {"type": "note_off", "time": 42, "note": 64, "velocity": 106, "channel": 0}, {"type": "note_on", "time": 7, "note": 61, "velocity": 103, "channel": 0}, {"type": "note_off", "time": 33, "note": 61, "velocity": 103, "channel": 0}, {"type": "note_on", "time": 11, "note": 62, "velocity": 99, "channel": 0}, {"type": "note_off", "time": 31, "note": 62, "velocity": 99, "channel": 0}, {"type": "note_on", "time": 6, "note": 64, "velocity": 101, "channel": 0}, {"type": "note_off", "time": 33, "note": 64, "velocity": 101, "channel": 0}, {"type": "note_on", "time": 6, "note": 65, "velocity": 120, "channel": 0}, {"type": "note_off", "time": 58, "note": 65, "velocity": 120, "channel": 0}, {"type": "note_on", "time": 5, "note": 67, "velocity": 114, "channel": 0}, {"type": "note_off", "time": 35, "note": 67, "velocity": 114, "channel": 0}, {"type": "note_on", "time": 3, "note": 69, "velocity": 123, "channel": 0}, {"type": "note_off", "time": 66, "note": 69, "velocity": 123, "channel": 0}, {"type": "note_on", "time": 105, "note": 76, "velocity": 99, "channel": 0}, {"type": "note_off", "time": 25, "note": 76, "velocity": 99, "channel": 0}, {"type": "note_on", "time": 5, "note": 75, "velocity": 113, "channel": 0}, {"type": "note_off", "time": 46, "note": 75, "velocity": 113, "channel": 0}, {"type": "note_on", "time": 7, "note": 74, "velocity": 110, "channel": 0}, {"type": "note_off", "time": 21, "note": 74, "velocity": 110, "channel": 0}, {"type": "note_on", "time": 5, "note": 73, "velocity": 118, "channel": 0}, {"type": "note_off", "time": 59, "note": 73, "velocity": 118, "channel": 0}, {"type": "note_on", "time": 3, "note": 76, "velocity": 112, "channel": 0}, {"type": "note_off", "time": 42, "note": 76, "velocity": 112, "channel": 0}, {"type": "note_on", "time": 4, "note": 74, "velocity": 111, "channel": 0}, {"type": "note_off", "time": 58, "note": 74, "velocity": 111, "channel": 0}, {"type": "note_on", "time": 9, "note": 69, "velocity": 108, "channel": 0}, {"type": "note_off", "time": 57, "note": 69, "velocity": 108, "channel": 0}, {"type": "note_on", "time": 533, "note": 74, "velocity": 110, "channel": 0}, {"type": "note_off", "time": 62, "note": 74, "velocity": 110, "channel": 0}, {"type": "note_on", "time": 2, "note": 77, "velocity": 115, "channel": 0}, {"type": "note_off", "time": 90, "note": 77, "velocity": 115, "channel": 0}, {"type": "note_on", "time": 8, "note": 74, "velocity": 108, "channel": 0}, {"type": "note_off", "time": 44, "note": 74, "velocity": 108, "channel": 0}, {"type": "note_on", "time": 250, "note": 67, "velocity": 116, "channel": 0}, {"type": "note_off", "time": 48, "note": 67, "velocity": 116, "channel": 0}, {"type": "note_on", "time": 3, "note": 70, "velocity": 112, "channel": 0}, {"type": "note_off", "time": 47, "note": 70, "velocity": 112, "channel": 0}, {"type": "note_on", "time": 4, "note": 67, "velocity": 115, "channel": 0}, {"type": "note_off", "time": 38, "note": 67, "velocity": 115, "channel": 0}, {"type": "note_on", "time": 5, "note": 65, "velocity": 116, "channel": 0}, {"type": "note_off", "time": 53, "note": 65, "velocity": 116, "channel": 0}, {"type": "note_on", "time": 7, "note": 64, "velocity": 99, "channel": 0}, {"type": "note_off", "time": 63, "note": 64, "velocity": 99, "channel": 0}, {"type": "note_on", "time": 18, "note": 67, "velocity": 118, "channel": 0}, {"type": "note_off", "time": 65, "note": 67, "velocity": 118, "channel": 0}, {"type": "note_on", "time": 46, "note": 75, "velocity": 120, "channel": 0}, {"type": "note_off", "time": 61, "note": 75, "velocity": 120, "channel": 0}, {"type": "note_on", "time": 8, "note": 73, "velocity": 111, "channel": 0}, {"type": "note_off", "time": 57, "note": 73, "velocity": 111, "channel": 0}, {"type": "note_on", "time": 446, "note": 75, "velocity": 121, "channel": 0}, {"type": "note_off", "time": 111, "note": 75, "velocity": 121, "channel": 0}, {"type": "note_on", "time": 3, "note": 74, "velocity": 114, "channel": 0}, {"type": "note_off", "time": 36, "note": 74, "velocity": 114, "channel": 0}, {"type": "note_on", "time": 11, "note": 73, "velocity": 122, "channel": 0}, {"type": "note_off", "time": 46, "note": 73, "velocity": 122, "channel": 0}, {"type": "note_on", "time": 9, "note": 72, "velocity": 123, "channel": 0}, {"type": "note_off", "time": 75, "note": 72, "velocity": 123, "channel": 0}, {"type": "note_on", "time": 10, "note": 70, "velocity": 120, "channel": 0}, {"type": "note_off", "time": 64, "note": 70, "velocity": 120, "channel": 0}, {"type": "note_on", "time": 24, "note": 69, "velocity": 122, "channel": 0}, {"type": "note_off", "time": 72, "note": 69, "velocity": 122, "channel": 0}, {"type": "note_on", "time": 16, "note": 70, "velocity": 115, "channel": 0}, {"type": "note_off", "time": 38, "note": 70, "velocity": 115, "channel": 0}, {"type": "note_on", "time": 7, "note": 69, "velocity": 123, "channel": 0}, {"type": "note_off", "time": 37, "note": 69, "velocity": 123, "channel": 0}, {"type": "note_on", "time": 6, "note": 67, "velocity": 116, "channel": 0}, {"type": "note_off", "time": 79, "note": 67, "velocity": 116, "channel": 0}, {"type": "note_on", "time": 15, "note": 69, "velocity": 121, "channel": 0}, {"type": "note_off", "time": 35, "note": 69, "velocity": 121, "channel": 0}, {"type": "note_on", "time": 1, "note": 67, "velocity": 116, "channel": 0}, {"type": "note_off", "time": 45, "note": 67, "velocity": 116, "channel": 0}, {"type": "note_on", "time": 7, "note": 66, "velocity": 115, "channel": 0}, {"type": "note_off", "time": 84, "note": 66, "velocity": 115, "channel": 0}, {"type": "note_on", "time": 18, "note": 63, "velocity": 109, "channel": 0}, {"type": "note_off", "time": 79, "note": 63, "velocity": 109, "channel": 0}, {"type": "note_on", "time": 18, "note": 62, "velocity": 106, "channel": 0}, {"type": "note_off", "time": 68, "note": 62, "velocity": 106, "channel": 0}, {"type": "note_on", "time": 26, "note": 60, "velocity": 107, "channel": 0}, {"type": "note_off", "time": 80, "note": 60, "velocity": 107, "channel": 0}, {"type": "note_on", "time": 28, "note": 58, "velocity": 95, "channel": 0}, {"type": "note_off", "time": 193, "note": 58, "velocity": 95, "channel": 0}, {"type": "note_on", "time": 89, "note": 72, "velocity": 119, "channel": 0}, {"type": "note_off", "time": 84, "note": 72, "velocity": 119, "channel": 0}, {"type": "note_on", "time": 19, "note": 70, "velocity": 114, "channel": 0}, {"type": "note_off", "time": 91, "note": 70, "velocity": 114, "channel": 0}, {"type": "note_on", "time": 14, "note": 69, "velocity": 121, "channel": 0}, {"type": "note_off", "time": 112, "note": 69, "velocity": 121, "channel": 0}, {"type": "note_on", "time": 12, "note": 67, "velocity": 109, "channel": 0}, {"type": "note_off", "time": 53, "note": 67, "velocity": 109, "channel": 0}, {"type": "note_on", "time": 59, "note": 70, "velocity": 97, "channel": 0}, {"type": "note_off", "time": 222, "note": 70, "velocity": 97, "channel": 0}, {"type": "note_on", "time": 267, "note": 69, "velocity": 124, "channel": 0}, {"type": "note_off", "time": 78, "note": 69, "velocity": 124, "channel": 0}, {"type": "note_on", "time": 16, "note": 67, "velocity": 118, "channel": 0}, {"type": "note_off", "time": 102, "note": 67, "velocity": 118, "channel": 0}, {"type": "note_on", "time": 23, "note": 65, "velocity": 114, "channel": 0}, {"type": "note_off", "time": 51, "note": 65, "velocity": 114, "channel": 0}, {"type": "note_on", "time": 201, "note": 67, "velocity": 118, "channel": 0}, {"type": "note_off", "time": 47, "note": 67, "velocity": 118, "channel": 0}, {"type": "note_on", "time": 7, "note": 68, "velocity": 114, "channel": 0}, {"type": "note_off", "time": 44, "note": 68, "velocity": 114, "channel": 0}, {"type": "note_on", "time": 7, "note": 67, "velocity": 113, "channel": 0}, {"type": "note_off", "time": 22, "note": 67, "velocity": 113, "channel": 0}, {"type": "note_on", "time": 10, "note": 65, "velocity": 119, "channel": 0}, {"type": "note_off", "time": 50, "note": 65, "velocity": 119, "channel": 0}, {"type": "note_on", "time": 25, "note": 67, "velocity": 103, "channel": 0}, {"type": "note_off", "time": 260, "note": 67, "velocity": 103, "channel": 0}, {"type": "note_on", "time": 492, "note": 64, "velocity": 114, "channel": 0}, {"type": "note_off", "time": 80, "note": 64, "velocity": 114, "channel": 0}, {"type": "note_on", "time": 93, "note": 64, "velocity": 108, "channel": 0}, {"type": "note_off", "time": 481, "note": 64, "velocity": 108, "channel": 0}, {"type": "note_on", "time": 24, "note": 66, "velocity": 119, "channel": 0}, {"type": "note_off", "time": 61, "note": 66, "velocity": 119, "channel": 0}, {"type": "note_on", "time": 325, "note": 64, "velocity": 107, "channel": 0}, {"type": "note_off", "time": 59, "note": 64, "velocity": 107, "channel": 0}, {"type": "note_on", "time": 20, "note": 69, "velocity": 125, "channel": 0}, {"type": "note_off", "time": 97, "note": 69, "velocity": 125, "channel": 0}, {"type": "note_on", "time": 227, "note": 58, "velocity": 111, "channel": 0}, {"type": "note_off", "time": 52, "note": 58, "velocity": 111, "channel": 0}, {"type": "note_on", "time": 32, "note": 61, "velocity": 110, "channel": 0}, {"type": "note_off", "time": 108, "note": 61, "velocity": 110, "channel": 0}, {"type": "note_on", "time": 16, "note": 64, "velocity": 110, "channel": 0}, {"type": "note_off", "time": 72, "note": 64, "velocity": 110, "channel": 0}, {"type": "note_on", "time": 488, "note": 62, "velocity": 109, "channel": 0}, {"type": "note_off", "time": 62, "note": 62, "velocity": 109, "channel": 0}, {"type": "note_on", "time": 115, "note": 66, "velocity": 121, "channel": 0}, {"type": "note_off", "time": 60, "note": 66, "velocity": 121, "channel": 0}, {"type": "note_on", "time": 21, "note": 69, "velocity": 126, "channel": 0}, {"type": "note_off", "time": 86, "note": 69, "velocity": 126, "channel": 0}, {"type": "note_on", "time": 17, "note": 71, "velocity": 121, "channel": 0}, {"type": "note_off", "time": 78, "note": 71, "velocity": 121, "channel": 0}, {"type": "note_on", "time": 9, "note": 68, "velocity": 119, "channel": 0}, {"type": "note_off", "time": 102, "note": 68, "velocity": 119, "channel": 0}, {"type": "note_on", "time": 91, "note": 64, "velocity": 105, "channel": 0}, {"type": "note_off", "time": 32, "note": 64, "velocity": 105, "channel": 0}, {"type": "note_on", "time": 3, "note": 65, "velocity": 97, "channel": 0}, {"type": "note_off", "time": 42, "note": 65, "velocity": 97, "channel": 0}, {"type": "note_on", "time": 5, "note": 64, "velocity": 104, "channel": 0}, {"type": "note_off", "time": 23, "note": 64, "velocity": 104, "channel": 0}, {"type": "note_on", "time": 13, "note": 62, "velocity": 111, "channel": 0}, {"type": "note_off", "time": 65, "note": 62, "velocity": 111, "channel": 0}, {"type": "note_on", "time": 27, "note": 64, "velocity": 103, "channel": 0}, {"type": "note_off", "time": 391, "note": 64, "velocity": 103, "channel": 0}, {"type": "note_on", "time": 270, "note": 64, "velocity": 99, "channel": 0}, {"type": "note_off", "time": 36, "note": 64, "velocity": 99, "channel": 0}, {"type": "note_on", "time": 8, "note": 66, "velocity": 117, "channel": 0}, {"type": "note_off", "time": 64, "note": 66, "velocity": 117, "channel": 0}, {"type": "note_on", "time": 18, "note": 68, "velocity": 122, "channel": 0}, {"type": "note_off", "time": 97, "note": 68, "velocity": 122, "channel": 0}, {"type": "note_on", "time": 17, "note": 69, "velocity": 113, "channel": 0}, {"type": "note_off", "time": 44, "note": 69, "velocity": 113, "channel": 0}, {"type": "note_on", "time": 368, "note": 71, "velocity": 123, "channel": 0}, {"type": "note_off", "time": 104, "note": 71, "velocity": 123, "channel": 0}, {"type": "note_on", "time": 10, "note": 69, "velocity": 122, "channel": 0}, {"type": "note_off", "time": 73, "note": 69, "velocity": 122, "channel": 0}, {"type": "note_on", "time": 61, "note": 61, "velocity": 97, "channel": 0}, {"type": "note_off", "time": 69, "note": 61, "velocity": 97, "channel": 0}, {"type": "note_on", "time": 13, "note": 62, "velocity": 108, "channel": 0}, {"type": "note_off", "time": 106, "note": 62, "velocity": 108, "channel": 0}, {"type": "note_on", "time": 60, "note": 64, "velocity": 105, "channel": 0}, {"type": "note_off", "time": 156, "note": 64, "velocity": 105, "channel": 0}, {"type": "note_on", "time": 29, "note": 66, "velocity": 117, "channel": 0}, {"type": "note_off", "time": 85, "note": 66, "velocity": 117, "channel": 0}, {"type": "note_on", "time": 15, "note": 64, "velocity": 93, "channel": 0}, {"type": "note_off", "time": 235, "note": 64, "velocity": 93, "channel": 0}, {"type": "note_on", "time": 533, "note": 64, "velocity": 103, "channel": 0}, {"type": "note_off", "time": 40, "note": 64, "velocity": 103, "channel": 0}, {"type": "note_on", "time": 8, "note": 68, "velocity": 107, "channel": 0}, {"type": "note_off", "time": 46, "note": 68, "velocity": 107, "channel": 0}, {"type": "note_on", "time": 5, "note": 72, "velocity": 109, "channel": 0}, {"type": "note_off", "time": 34, "note": 72, "velocity": 109, "channel": 0}, {"type": "note_on", "time": 6, "note": 76, "velocity": 112, "channel": 0}, {"type": "note_off", "time": 52, "note": 76, "velocity": 112, "channel": 0}, {"type": "note_on", "time": 5, "note": 73, "velocity": 107, "channel": 0}, {"type": "note_off", "time": 171, "note": 73, "velocity": 107, "channel": 0}, {"type": "note_on", "time": 8, "note": 76, "velocity": 106, "channel": 0}, {"type": "note_off", "time": 226, "note": 76, "velocity": 106, "channel": 0}, {"type": "note_on", "time": 436, "note": 72, "velocity": 115, "channel": 0}, {"type": "note_off", "time": 65, "note": 72, "velocity": 115, "channel": 0}, {"type": "note_on", "time": 2, "note": 75, "velocity": 93, "channel": 0}, {"type": "note_off", "time": 33, "note": 75, "velocity": 93, "channel": 0}, {"type": "note_on", "time": 5, "note": 76, "velocity": 111, "channel": 0}, {"type": "note_off", "time": 37, "note": 76, "velocity": 111, "channel": 0}, {"type": "note_on", "time": 7, "note": 77, "velocity": 117, "channel": 0}, {"type": "note_off", "time": 46, "note": 77, "velocity": 117, "channel": 0}, {"type": "note_on", "time": 10, "note": 76, "velocity": 109, "channel": 0}, {"type": "note_off", "time": 31, "note": 76, "velocity": 109, "channel": 0}, {"type": "note_on", "time": 7, "note": 74, "velocity": 113, "channel": 0}, {"type": "note_off", "time": 46, "note": 74, "velocity": 113, "channel": 0}, {"type": "note_on", "time": 3, "note": 72, "velocity": 121, "channel": 0}, {"type": "note_off", "time": 61, "note": 72, "velocity": 121, "channel": 0}, {"type": "note_on", "time": 131, "note": 67, "velocity": 106, "channel": 0}, {"type": "note_off", "time": 65, "note": 67, "velocity": 106, "channel": 0}, {"type": "note_on", "time": 46, "note": 69, "velocity": 122, "channel": 0}, {"type": "note_off", "time": 125, "note": 69, "velocity": 122, "channel": 0}, {"type": "note_on", "time": 7, "note": 67, "velocity": 111, "channel": 0}, {"type": "note_off", "time": 31, "note": 67, "velocity": 111, "channel": 0}, {"type": "note_on", "time": 18, "note": 64, "velocity": 106, "channel": 0}, {"type": "note_off", "time": 40, "note": 64, "velocity": 106, "channel": 0}, {"type": "note_on", "time": 11, "note": 62, "velocity": 108, "channel": 0}, {"type": "note_off", "time": 31, "note": 62, "velocity": 108, "channel": 0}, {"type": "note_on", "time": 8, "note": 61, "velocity": 99, "channel": 0}, {"type": "note_off", "time": 57, "note": 61, "velocity": 99, "channel": 0}, {"type": "note_on", "time": 14, "note": 57, "velocity": 104, "channel": 0}, {"type": "note_off", "time": 44, "note": 57, "velocity": 104, "channel": 0}, {"type": "note_on", "time": 447, "note": 64, "velocity": 104, "channel": 0}, {"type": "note_off", "time": 52, "note": 64, "velocity": 104, "channel": 0}, {"type": "note_on", "time": 10, "note": 61, "velocity": 101, "channel": 0}, {"type": "note_off", "time": 41, "note": 61, "velocity": 101, "channel": 0}, {"type": "note_on", "time": 10, "note": 62, "velocity": 95, "channel": 0}, {"type": "note_off", "time": 29, "note": 62, "velocity": 95, "channel": 0}, {"type": "note_on", "time": 7, "note": 64, "velocity": 96, "channel": 0}, {"type": "note_off", "time": 26, "note": 64, "velocity": 96, "channel": 0}, {"type": "note_on", "time": 5, "note": 65, "velocity": 118, "channel": 0}, {"type": "note_off", "time": 69, "note": 65, "velocity": 118, "channel": 0}, {"type": "note_on", "time": 1, "note": 67, "velocity": 101, "channel": 0}, {"type": "note_off", "time": 19, "note": 67, "velocity": 101, "channel": 0}, {"type": "note_on", "time": 4, "note": 69, "velocity": 120, "channel": 0}, {"type": "note_off", "time": 51, "note": 69, "velocity": 120, "channel": 0}, {"type": "note_on", "time": 10, "note": 65, "velocity": 114, "channel": 0}, {"type": "note_off", "time": 33, "note": 65, "velocity": 114, "channel": 0}, {"type": "note_on", "time": 20, "note": 62, "velocity": 93, "channel": 0}, {"type": "note_off", "time": 39, "note": 62, "velocity": 93, "channel": 0}, {"type": "note_on", "time": 144, "note": 67, "velocity": 114, "channel": 0}, {"type": "note_off", "time": 31, "note": 67, "velocity": 114, "channel": 0}, {"type": "note_on", "time": 4, "note": 68, "velocity": 114, "channel": 0}, {"type": "note_off", "time": 28, "note": 68, "velocity": 114, "channel": 0}, {"type": "note_on", "time": 4, "note": 67, "velocity": 108, "channel": 0}, {"type": "note_off", "time": 22, "note": 67, "velocity": 108, "channel": 0}, {"type": "note_on", "time": 5, "note": 65, "velocity": 113, "channel": 0}, {"type": "note_off", "time": 41, "note": 65, "velocity": 113, "channel": 0}, {"type": "note_on", "time": 2, "note": 67, "velocity": 112, "channel": 0}, {"type": "note_off", "time": 25, "note": 67, "velocity": 112, "channel": 0}, {"type": "note_on", "time": 5, "note": 68, "velocity": 112, "channel": 0}, {"type": "note_off", "time": 34, "note": 68, "velocity": 112, "channel": 0}, {"type": "note_on", "time": 3, "note": 67, "velocity": 107, "channel": 0}, {"type": "note_off", "time": 29, "note": 67, "velocity": 107, "channel": 0}, {"type": "note_on", "time": 5, "note": 65, "velocity": 115, "channel": 0}, {"type": "note_off", "time": 32, "note": 65, "velocity": 115, "channel": 0}, {"type": "note_on", "time": 8, "note": 70, "velocity": 99, "channel": 0}, {"type": "note_off", "time": 214, "note": 70, "velocity": 99, "channel": 0}, {"type": "note_on", "time": 328, "note": 67, "velocity": 100, "channel": 0}, {"type": "note_off", "time": 25, "note": 67, "velocity": 100, "channel": 0}, {"type": "note_on", "time": 7, "note": 66, "velocity": 100, "channel": 0}, {"type": "note_off", "time": 45, "note": 66, "velocity": 100, "channel": 0}, {"type": "note_on", "time": 4, "note": 67, "velocity": 93, "channel": 0}, {"type": "note_off", "time": 32, "note": 67, "velocity": 93, "channel": 0}, {"type": "note_on", "time": 10, "note": 69, "velocity": 113, "channel": 0}, {"type": "note_off", "time": 48, "note": 69, "velocity": 113, "channel": 0}, {"type": "note_on", "time": 8, "note": 66, "velocity": 111, "channel": 0}, {"type": "note_off", "time": 33, "note": 66, "velocity": 111, "channel": 0}, {"type": "note_on", "time": 2, "note": 67, "velocity": 110, "channel": 0}, {"type": "note_off", "time": 39, "note": 67, "velocity": 110, "channel": 0}, {"type": "note_on", "time": 5, "note": 69, "velocity": 113, "channel": 0}, {"type": "note_off", "time": 40, "note": 69, "velocity": 113, "channel": 0}, {"type": "note_on", "time": 5, "note": 70, "velocity": 116, "channel": 0}, {"type": "note_off", "time": 45, "note": 70, "velocity": 116, "channel": 0}, {"type": "note_on", "time": 4, "note": 72, "velocity": 113, "channel": 0}, {"type": "note_off", "time": 36, "note": 72, "velocity": 113, "channel": 0}, {"type": "note_on", "time": 1, "note": 74, "velocity": 110, "channel": 0}, {"type": "note_off", "time": 75, "note": 74, "velocity": 110, "channel": 0}, {"type": "note_on", "time": 768, "note": 77, "velocity": 120, "channel": 0}, {"type": "note_off", "time": 99, "note": 77, "velocity": 120, "channel": 0}, {"type": "note_on", "time": 5, "note": 74, "velocity": 110, "channel": 0}, {"type": "note_off", "time": 31, "note": 74, "velocity": 110, "channel": 0}, {"type": "note_on", "time": 4, "note": 70, "velocity": 111, "channel": 0}, {"type": "note_off", "time": 22, "note": 70, "velocity": 111, "channel": 0}, {"type": "note_on", "time": 5, "note": 67, "velocity": 109, "channel": 0}, {"type": "note_off", "time": 40, "note": 67, "velocity": 109, "channel": 0}, {"type": "note_on", "time": 148, "note": 76, "velocity": 105, "channel": 0}, {"type": "note_off", "time": 107, "note": 76, "velocity": 105, "channel": 0}, {"type": "note_on", "time": 10, "note": 72, "velocity": 113, "channel": 0}, {"type": "note_off", "time": 48, "note": 72, "velocity": 113, "channel": 0}, {"type": "note_on", "time": 3, "note": 67, "velocity": 114, "channel": 0}, {"type": "note_off", "time": 11, "note": 67, "velocity": 114, "channel": 0}, {"type": "note_on", "time": 2, "note": 65, "velocity": 118, "channel": 0}, {"type": "note_off", "time": 53, "note": 65, "velocity": 118, "channel": 0}, {"type": "note_on", "time": 8, "note": 74, "velocity": 106, "channel": 0}, {"type": "note_off", "time": 50, "note": 74, "velocity": 106, "channel": 0}, {"type": "note_on", "time": 4, "note": 70, "velocity": 100, "channel": 0}, {"type": "note_off", "time": 28, "note": 70, "velocity": 100, "channel": 0}, {"type": "note_on", "time": 248, "note": 72, "velocity": 119, "channel": 0}, {"type": "note_off", "time": 50, "note": 72, "velocity": 119, "channel": 0}, {"type": "note_on", "time": 3, "note": 71, "velocity": 117, "channel": 0}, {"type": "note_off", "time": 36, "note": 71, "velocity": 117, "channel": 0}, {"type": "note_on", "time": 3, "note": 70, "velocity": 108, "channel": 0}, {"type": "note_off", "time": 43, "note": 70, "velocity": 108, "channel": 0}, {"type": "note_on", "time": 5, "note": 67, "velocity": 113, "channel": 0}, {"type": "note_off", "time": 43, "note": 67, "velocity": 113, "channel": 0}, {"type": "note_on", "time": 4, "note": 65, "velocity": 110, "channel": 0}, {"type": "note_off", "time": 47, "note": 65, "velocity": 110, "channel": 0}, {"type": "note_on", "time": 19, "note": 63, "velocity": 100, "channel": 0}, {"type": "note_off", "time": 34, "note": 63, "velocity": 100, "channel": 0}, {"type": "note_on", "time": 9, "note": 64, "velocity": 99, "channel": 0}, {"type": "note_off", "time": 35, "note": 64, "velocity": 99, "channel": 0}, {"type": "note_on", "time": 11, "note": 67, "velocity": 97, "channel": 0}, {"type": "note_off", "time": 23, "note": 67, "velocity": 97, "channel": 0}, {"type": "note_on", "time": 12, "note": 70, "velocity": 116, "channel": 0}, {"type": "note_off", "time": 41, "note": 70, "velocity": 116, "channel": 0}, {"type": "note_on", "time": 6, "note": 75, "velocity": 117, "channel": 0}, {"type": "note_off", "time": 42, "note": 75, "velocity": 117, "channel": 0}, {"type": "note_on", "time": 6, "note": 73, "velocity": 112, "channel": 0}, {"type": "note_off", "time": 48, "note": 73, "velocity": 112, "channel": 0}, {"type": "note_on", "time": 5, "note": 70, "velocity": 102, "channel": 0}, {"type": "note_off", "time": 26, "note": 70, "velocity": 102, "channel": 0}, {"type": "note_on", "time": 5, "note": 72, "velocity": 112, "channel": 0}, {"type": "note_off", "time": 83, "note": 72, "velocity": 112, "channel": 0}, {"type": "note_on", "time": 227, "note": 60, "velocity": 90, "channel": 0}, {"type": "note_off", "time": 37, "note": 60, "velocity": 90, "channel": 0}, {"type": "note_on", "time": 9, "note": 62, "velocity": 96, "channel": 0}, {"type": "note_off", "time": 43, "note": 62, "velocity": 96, "channel": 0}, {"type": "note_on", "time": 37, "note": 64, "velocity": 107, "channel": 0}, {"type": "note_off", "time": 103, "note": 64, "velocity": 107, "channel": 0}, {"type": "note_on", "time": 11, "note": 65, "velocity": 122, "channel": 0}, {"type": "note_off", "time": 67, "note": 65, "velocity": 122, "channel": 0}, {"type": "note_on", "time": 463, "note": 64, "velocity": 109, "channel": 0}, {"type": "note_off", "time": 31, "note": 64, "velocity": 109, "channel": 0}, {"type": "note_on", "time": 9, "note": 62, "velocity": 106, "channel": 0}, {"type": "note_off", "time": 37, "note": 62, "velocity": 106, "channel": 0}, {"type": "note_on", "time": 7, "note": 61, "velocity": 101, "channel": 0}, {"type": "note_off", "time": 88, "note": 61, "velocity": 101, "channel": 0}, {"type": "note_on", "time": 12, "note": 62, "velocity": 94, "channel": 0}, {"type": "note_off", "time": 288, "note": 62, "velocity": 94, "channel": 0}, {"type": "note_on", "time": 191, "note": 65, "velocity": 123, "channel": 0}, {"type": "note_off", "time": 103, "note": 65, "velocity": 123, "channel": 0}, {"type": "note_on", "time": 107, "note": 61, "velocity": 91, "channel": 0}, {"type": "note_off", "time": 245, "note": 61, "velocity": 91, "channel": 0}, {"type": "note_on", "time": 396, "note": 64, "velocity": 107, "channel": 0}, {"type": "note_off", "time": 74, "note": 64, "velocity": 107, "channel": 0}, {"type": "note_on", "time": 117, "note": 62, "velocity": 100, "channel": 0}, {"type": "note_off", "time": 61, "note": 62, "velocity": 100, "channel": 0}, {"type": "note_on", "time": 6, "note": 65, "velocity": 110, "channel": 0}, {"type": "note_off", "time": 473, "note": 65, "velocity": 110, "channel": 0}, {"type": "note_on", "time": 137, "note": 62, "velocity": 90, "channel": 0}, {"type": "note_off", "time": 74, "note": 62, "velocity": 90, "channel": 0}, {"type": "note_on", "time": 14, "note": 64, "velocity": 108, "channel": 0}, {"type": "note_off", "time": 75, "note": 64, "velocity": 108, "channel": 0}, {"type": "note_on", "time": 13, "note": 65, "velocity": 120, "channel": 0}, {"type": "note_off", "time": 83, "note": 65, "velocity": 120, "channel": 0}, {"type": "note_on", "time": 17, "note": 67, "velocity": 114, "channel": 0}, {"type": "note_off", "time": 89, "note": 67, "velocity": 114, "channel": 0}, {"type": "note_on", "time": 13, "note": 65, "velocity": 106, "channel": 0}, {"type": "note_off", "time": 239, "note": 65, "velocity": 106, "channel": 0}, {"type": "note_on", "time": 407, "note": 64, "velocity": 92, "channel": 0}, {"type": "note_off", "time": 53, "note": 64, "velocity": 92, "channel": 0}, {"type": "note_on", "time": 29, "note": 74, "velocity": 116, "channel": 0}, {"type": "note_off", "time": 99, "note": 74, "velocity": 116, "channel": 0}, {"type": "note_on", "time": 5, "note": 73, "velocity": 117, "channel": 0}, {"type": "note_off", "time": 81, "note": 73, "velocity": 117, "channel": 0}, {"type": "note_on", "time": 9, "note": 72, "velocity": 116, "channel": 0}, {"type": "note_off", "time": 96, "note": 72, "velocity": 116, "channel": 0}, {"type": "note_on", "time": 577, "note": 70, "velocity": 111, "channel": 0}, {"type": "note_off", "time": 61, "note": 70, "velocity": 111, "channel": 0}, {"type": "note_on", "time": 9, "note": 69, "velocity": 120, "channel": 0}, {"type": "note_off", "time": 48, "note": 69, "velocity": 120, "channel": 0}, {"type": "note_on", "time": 5, "note": 71, "velocity": 116, "channel": 0}, {"type": "note_off", "time": 32, "note": 71, "velocity": 116, "channel": 0}, {"type": "note_on", "time": 10, "note": 72, "velocity": 112, "channel": 0}, {"type": "note_off", "time": 76, "note": 72, "velocity": 112, "channel": 0}, {"type": "note_on", "time": 5, "note": 71, "velocity": 115, "channel": 0}, {"type": "note_off", "time": 20, "note": 71, "velocity": 115, "channel": 0}, {"type": "note_on", "time": 4, "note": 70, "velocity": 109, "channel": 0}, {"type": "note_off", "time": 21, "note": 70, "velocity": 109, "channel": 0}, {"type": "note_on", "time": 4, "note": 69, "velocity": 119, "channel": 0}, {"type": "note_off", "time": 105, "note": 69, "velocity": 119, "channel": 0}, {"type": "note_on", "time": 16, "note": 67, "velocity": 113, "channel": 0}, {"type": "note_off", "time": 48, "note": 67, "velocity": 113, "channel": 0}, {"type": "note_on", "time": 11, "note": 66, "velocity": 111, "channel": 0}, {"type": "note_off", "time": 50, "note": 66, "velocity": 111, "channel": 0}, {"type": "note_on", "time": 30, "note": 62, "velocity": 98, "channel": 0}, {"type": "note_off", "time": 31, "note": 62, "velocity": 98, "channel": 0}, {"type": "note_on", "time": 370, "note": 67, "velocity": 105, "channel": 0}, {"type": "note_off", "time": 67, "note": 67, "velocity": 105, "channel": 0}, {"type": "note_on", "time": 22, "note": 70, "velocity": 101, "channel": 0}, {"type": "note_off", "time": 80, "note": 70, "velocity": 101, "channel": 0}, {"type": "note_on", "time": 11, "note": 74, "velocity": 111, "channel": 0}, {"type": "note_off", "time": 88, "note": 74, "velocity": 111, "channel": 0}, {"type": "note_on", "time": 7, "note": 77, "velocity": 111, "channel": 0}, {"type": "note_off", "time": 421, "note": 77, "velocity": 111, "channel": 0}, {"type": "note_on", "time": 27, "note": 73, "velocity": 110, "channel": 0}, {"type": "note_off", "time": 50, "note": 73, "velocity": 110, "channel": 0}, {"type": "note_on", "time": 4, "note": 72, "velocity": 113, "channel": 0}, {"type": "note_off", "time": 16, "note": 72, "velocity": 113, "channel": 0}, {"type": "note_on", "time": 1, "note": 70, "velocity": 103, "channel": 0}, {"type": "note_off", "time": 54, "note": 70, "velocity": 103, "channel": 0}, {"type": "note_on", "time": 3, "note": 75, "velocity": 116, "channel": 0}, {"type": "note_off", "time": 100, "note": 75, "velocity": 116, "channel": 0}, {"type": "note_on", "time": 5, "note": 73, "velocity": 112, "channel": 0}, {"type": "note_off", "time": 56, "note": 73, "velocity": 112, "channel": 0}, {"type": "note_on", "time": 380, "note": 72, "velocity": 115, "channel": 0}, {"type": "note_off", "time": 102, "note": 72, "velocity": 115, "channel": 0}, {"type": "note_on", "time": 7, "note": 69, "velocity": 123, "channel": 0}, {"type": "note_off", "time": 90, "note": 69, "velocity": 123, "channel": 0}, {"type": "note_on", "time": 28, "note": 64, "velocity": 89, "channel": 0}, {"type": "note_off", "time": 213, "note": 64, "velocity": 89, "channel": 0}, {"type": "note_on", "time": 439, "note": 71, "velocity": 113, "channel": 0}, {"type": "note_off", "time": 74, "note": 71, "velocity": 113, "channel": 0}, {"type": "note_on", "time": 18, "note": 74, "velocity": 109, "channel": 0}, {"type": "note_off", "time": 120, "note": 74, "velocity": 109, "channel": 0}, {"type": "note_on", "time": 5, "note": 73, "velocity": 113, "channel": 0}, {"type": "note_off", "time": 25, "note": 73, "velocity": 113, "channel": 0}, {"type": "note_on", "time": 6, "note": 72, "velocity": 114, "channel": 0}, {"type": "note_off", "time": 29, "note": 72, "velocity": 114, "channel": 0}, {"type": "note_on", "time": 2, "note": 71, "velocity": 115, "channel": 0}, {"type": "note_off", "time": 82, "note": 71, "velocity": 115, "channel": 0}, {"type": "note_on", "time": 474, "note": 67, "velocity": 110, "channel": 0}, {"type": "note_off", "time": 67, "note": 67, "velocity": 110, "channel": 0}, {"type": "note_on", "time": 408, "note": 67, "velocity": 111, "channel": 0}, {"type": "note_off", "time": 54, "note": 67, "velocity": 111, "channel": 0}, {"type": "note_on", "time": 1, "note": 69, "velocity": 107, "channel": 0}, {"type": "note_off", "time": 39, "note": 69, "velocity": 107, "channel": 0}, {"type": "note_on", "time": 6, "note": 71, "velocity": 118, "channel": 0}, {"type": "note_off", "time": 53, "note": 71, "velocity": 118, "channel": 0}, {"type": "note_on", "time": 6, "note": 72, "velocity": 106, "channel": 0}, {"type": "note_off", "time": 37, "note": 72, "velocity": 106, "channel": 0}, {"type": "note_on", "time": 2, "note": 74, "velocity": 112, "channel": 0}, {"type": "note_off", "time": 57, "note": 74, "velocity": 112, "channel": 0}, {"type": "note_on", "time": 5, "note": 73, "velocity": 115, "channel": 0}, {"type": "note_off", "time": 20, "note": 73, "velocity": 115, "channel": 0}, {"type": "note_on", "time": 4, "note": 72, "velocity": 115, "channel": 0}, {"type": "note_off", "time": 18, "note": 72, "velocity": 115, "channel": 0}, {"type": "note_on", "time": 3, "note": 71, "velocity": 118, "channel": 0}, {"type": "note_off", "time": 131, "note": 71, "velocity": 118, "channel": 0}, {"type": "note_on", "time": 9, "note": 67, "velocity": 107, "channel": 0}, {"type": "note_off", "time": 23, "note": 67, "velocity": 107, "channel": 0}, {"type": "note_on", "time": 6, "note": 69, "velocity": 120, "channel": 0}, {"type": "note_off", "time": 65, "note": 69, "velocity": 120, "channel": 0}, {"type": "note_on", "time": 4, "note": 67, "velocity": 105, "channel": 0}, {"type": "note_off", "time": 48, "note": 67, "velocity": 105, "channel": 0}, {"type": "note_on", "time": 351, "note": 70, "velocity": 109, "channel": 0}, {"type": "note_off", "time": 44, "note": 70, "velocity": 109, "channel": 0}, {"type": "note_on", "time": 5, "note": 72, "velocity": 111, "channel": 0}, {"type": "note_off", "time": 44, "note": 72, "velocity": 111, "channel": 0}, {"type": "note_on", "time": 3, "note": 73, "velocity": 114, "channel": 0}, {"type": "note_off", "time": 43, "note": 73, "velocity": 114, "channel": 0}, {"type": "note_on", "time": 5, "note": 72, "velocity": 112, "channel": 0}, {"type": "note_off", "time": 16, "note": 72, "velocity": 112, "channel": 0}, {"type": "note_on", "time": 8, "note": 70, "velocity": 109, "channel": 0}, {"type": "note_off", "time": 36, "note": 70, "velocity": 109, "channel": 0}, {"type": "note_on", "time": 265, "note": 75, "velocity": 110, "channel": 0}, {"type": "note_off", "time": 112, "note": 75, "velocity": 110, "channel": 0}, {"type": "note_on", "time": 13, "note": 73, "velocity": 106, "channel": 0}, {"type": "note_off", "time": 48, "note": 73, "velocity": 106, "channel": 0}, {"type": "note_on", "time": 1, "note": 75, "velocity": 115, "channel": 0}, {"type": "note_off", "time": 131, "note": 75, "velocity": 115, "channel": 0}, {"type": "note_on", "time": 8, "note": 76, "velocity": 110, "channel": 0}, {"type": "note_off", "time": 25, "note": 76, "velocity": 110, "channel": 0}, {"type": "note_on", "time": 4, "note": 75, "velocity": 114, "channel": 0}, {"type": "note_off", "time": 41, "note": 75, "velocity": 114, "channel": 0}, {"type": "note_on", "time": 4, "note": 73, "velocity": 111, "channel": 0}, {"type": "note_off", "time": 101, "note": 73, "velocity": 111, "channel": 0}, {"type": "note_on", "time": 9, "note": 75, "velocity": 116, "channel": 0}, {"type": "note_off", "time": 71, "note": 75, "velocity": 116, "channel": 0}, {"type": "note_on", "time": 485, "note": 67, "velocity": 106, "channel": 0}, {"type": "note_off", "time": 32, "note": 67, "velocity": 106, "channel": 0}, {"type": "note_on", "time": 4, "note": 69, "velocity": 100, "channel": 0}, {"type": "note_off", "time": 41, "note": 69, "velocity": 100, "channel": 0}, {"type": "note_on", "time": 17, "note": 71, "velocity": 108, "channel": 0}, {"type": "note_off", "time": 63, "note": 71, "velocity": 108, "channel": 0}, {"type": "note_on", "time": 30, "note": 74, "velocity": 108, "channel": 0}, {"type": "note_off", "time": 57, "note": 74, "velocity": 108, "channel": 0}, {"type": "note_on", "time": 4, "note": 73, "velocity": 113, "channel": 0}, {"type": "note_off", "time": 25, "note": 73, "velocity": 113, "channel": 0}, {"type": "note_on", "time": 6, "note": 72, "velocity": 114, "channel": 0}, {"type": "note_off", "time": 18, "note": 72, "velocity": 114, "channel": 0}, {"type": "note_on", "time": 6, "note": 71, "velocity": 116, "channel": 0}, {"type": "note_off", "time": 52, "note": 71, "velocity": 116, "channel": 0}, {"type": "note_on", "time": 2, "note": 67, "velocity": 111, "channel": 0}, {"type": "note_off", "time": 47, "note": 67, "velocity": 111, "channel": 0}, {"type": "note_on", "time": 341, "note": 72, "velocity": 117, "channel": 0}, {"type": "note_off", "time": 46, "note": 72, "velocity": 117, "channel": 0}, {"type": "note_on", "time": 5, "note": 76, "velocity": 101, "channel": 0}, {"type": "note_off", "time": 31, "note": 76, "velocity": 101, "channel": 0}, {"type": "note_on", "time": 8, "note": 70, "velocity": 110, "channel": 0}, {"type": "note_off", "time": 44, "note": 70, "velocity": 110, "channel": 0}, {"type": "note_on", "time": 9, "note": 74, "velocity": 107, "channel": 0}, {"type": "note_off", "time": 44, "note": 74, "velocity": 107, "channel": 0}, {"type": "note_on", "time": 3, "note": 72, "velocity": 114, "channel": 0}, {"type": "note_off", "time": 43, "note": 72, "velocity": 114, "channel": 0}, {"type": "note_on", "time": 5, "note": 68, "velocity": 115, "channel": 0}, {"type": "note_off", "time": 34, "note": 68, "velocity": 115, "channel": 0}, {"type": "note_on", "time": 11, "note": 64, "velocity": 107, "channel": 0}, {"type": "note_off", "time": 47, "note": 64, "velocity": 107, "channel": 0}, {"type": "note_on", "time": 8, "note": 60, "velocity": 106, "channel": 0}, {"type": "note_off", "time": 34, "note": 60, "velocity": 106, "channel": 0}, {"type": "note_on", "time": 8, "note": 58, "velocity": 104, "channel": 0}, {"type": "note_off", "time": 48, "note": 58, "velocity": 104, "channel": 0}, {"type": "note_on", "time": 209, "note": 60, "velocity": 103, "channel": 0}, {"type": "note_off", "time": 31, "note": 60, "velocity": 103, "channel": 0}, {"type": "note_on", "time": 2, "note": 57, "velocity": 95, "channel": 0}, {"type": "note_off", "time": 63, "note": 57, "velocity": 95, "channel": 0}, {"type": "note_on", "time": 79, "note": 60, "velocity": 99, "channel": 0}, {"type": "note_off", "time": 38, "note": 60, "velocity": 99, "channel": 0}, {"type": "note_on", "time": 29, "note": 65, "velocity": 119, "channel": 0}, {"type": "note_off", "time": 75, "note": 65, "velocity": 119, "channel": 0}, {"type": "note_on", "time": 15, "note": 67, "velocity": 114, "channel": 0}, {"type": "note_off", "time": 76, "note": 67, "velocity": 114, "channel": 0}, {"type": "note_on", "time": 13, "note": 69, "velocity": 120, "channel": 0}, {"type": "note_off", "time": 88, "note": 69, "velocity": 120, "channel": 0}, {"type": "note_on", "time": 12, "note": 65, "velocity": 116, "channel": 0}, {"type": "note_off", "time": 72, "note": 65, "velocity": 116, "channel": 0}, {"type": "note_on", "time": 31, "note": 60, "velocity": 102, "channel": 0}, {"type": "note_off", "time": 69, "note": 60, "velocity": 102, "channel": 0}, {"type": "note_on", "time": 109, "note": 60, "velocity": 102, "channel": 0}, {"type": "note_off", "time": 88, "note": 60, "velocity": 102, "channel": 0}, {"type": "note_on", "time": 100, "note": 63, "velocity": 101, "channel": 0}, {"type": "note_off", "time": 250, "note": 63, "velocity": 101, "channel": 0}, {"type": "note_on", "time": 9, "note": 61, "velocity": 102, "channel": 0}, {"type": "note_off", "time": 44, "note": 61, "velocity": 102, "channel": 0}, {"type": "note_on", "time": 8, "note": 63, "velocity": 102, "channel": 0}, {"type": "note_off", "time": 49, "note": 63, "velocity": 102, "channel": 0}, {"type": "note_on", "time": 7, "note": 60, "velocity": 96, "channel": 0}, {"type": "note_off", "time": 234, "note": 60, "velocity": 96, "channel": 0}, {"type": "end_of_track", "time": 0}]]}