{"ticks_per_beat": 20160, "tracks": [[{"type": "track_name", "name": "Melody", "time": 0}, {"type": "set_tempo", "tempo": 983606, "time": 0}, {"type": "key_signature", "key": "Eb", "time": 0}, {"type": "time_signature", "numerator": 4, "denominator": 4, "clocks_per_click": 24, "notated_32nd_notes_per_beat": 8, "time": 0}, {"type": "note_on", "time": 179635, "note": 62, "velocity": 111, "channel": 0}, {"type": "note_off", "time": 3848, "note": 62, "velocity": 111, "channel": 0}, {"type": "note_on", "time": 836, "note": 63, "velocity": 104, "channel": 0}, {"type": "note_off", "time": 5354, "note": 63, "velocity": 104, "channel": 0}, {"type": "note_on", "time": 10038, "note": 64, "velocity": 106, "channel": 0}, {"type": "note_off", "time": 4759, "note": 64, "velocity": 106, "channel": 0}, {"type": "note_on", "time": 267, "note": 60, "velocity": 91, "channel": 0}, {"type": "note_off", "time": 1903, "note": 60, "velocity": 91, "channel": 0}, {"type": "note_on", "time": 237, "note": 65, "velocity": 115, "channel": 0}, {"type": "note_off", "time": 22962, "note": 65, "velocity": 115, "channel": 0}, {"type": "note_on", "time": 475, "note": 63, "velocity": 99, "channel": 0}, {"type": "note_off", "time": 6424, "note": 63, "velocity": 99, "channel": 0}, {"type": "note_on", "time": 951, "note": 60, "velocity": 98, "channel": 0}, {"type": "note_off", "time": 24985, "note": 60, "velocity": 98, "channel": 0}, {"type": "note_on", "time": 8138, "note": 55, "velocity": 111, "channel": 0}, {"type": "note_off", "time": 2593, "note": 55, "velocity": 111, "channel": 0}, {"type": "note_on", "time": 836, "note": 56, "velocity": 102, "channel": 0}, {"type": "note_off", "time": 5019, "note": 56, "velocity": 102, "channel": 0}, {"type": "note_on", "time": 334, "note": 53, "velocity": 88, "channel": 0}, {"type": "note_off", "time": 35219, "note": 53, "velocity": 88, "channel": 0}, {"type": "note_on", "time": 28694, "note": 56, "velocity": 110, "channel": 0}, {"type": "note_off", "time": 3429, "note": 56, "velocity": 110, "channel": 0}, {"type": "note_on", "time": 250, "note": 60, "velocity": 115, "channel": 0}, {"type": "note_off", "time": 4684, "note": 60, "velocity": 115, "channel": 0}, {"type": "note_on", "time": 334, "note": 63, "velocity": 114, "channel": 0}, {"type": "note_off", "time": 4266, "note": 63, "velocity": 114, "channel": 0}, {"type": "note_on", "time": 15058, "note": 63, "velocity": 105, "channel": 0}, {"type": "note_off", "time": 3262, "note": 63, "velocity": 105, "channel": 0}, {"type": "note_on", "time": 1422, "note": 65, "velocity": 126, "channel": 0}, {"type": "note_off", "time": 1422, "note": 65, "velocity": 126, "channel": 0}, {"type": "note_on", "time": 0, "note": 67, "velocity": 117, "channel": 0}, {"type": "note_off", "time": 4182, "note": 67, "velocity": 117, "channel": 0}, {"type": "note_on", "time": 83, "note": 65, "velocity": 123, "channel": 0}, {"type": "note_off", "time": 2509, "note": 65, "velocity": 123, "channel": 0}, {"type": "note_on", "time": 250, "note": 67, "velocity": 113, "channel": 0}, {"type": "note_off", "time": 42999, "note": 67, "velocity": 113, "channel": 0}, {"type": "note_on", "time": 334, "note": 66, "velocity": 110, "channel": 0}, {"type": "note_off", "time": 5103, "note": 66, "velocity": 110, "channel": 0}, {"type": "note_on", "time": 3513, "note": 65, "velocity": 105, "channel": 0}, {"type": "note_off", "time": 23758, "note": 65, "velocity": 105, "channel": 0}, {"type": "note_on", "time": 1171, "note": 63, "velocity": 98, "channel": 0}, {"type": "note_off", "time": 4015, "note": 63, "velocity": 98, "channel": 0}, {"type": "note_on", "time": 501, "note": 59, "velocity": 105, "channel": 0}, {"type": "note_off", "time": 4015, "note": 59, "velocity": 105, "channel": 0}, {"type": "note_on", "time": 250, "note": 56, "velocity": 107, "channel": 0}, {"type": "note_off", "time": 5521, "note": 56, "velocity": 107, "channel": 0}, {"type": "note_on", "time": 167, "note": 55, "velocity": 98, "channel": 0}, {"type": "note_off", "time": 7445, "note": 55, "velocity": 98, "channel": 0}, {"type": "note_on", "time": 418, "note": 53, "velocity": 87, "channel": 0}, {"type": "note_off", "time": 18822, "note": 53, "velocity": 87, "channel": 0}, {"type": "note_on", "time": 26179, "note": 54, "velocity": 87, "channel": 0}, {"type": "note_off", "time": 1308, "note": 54, "velocity": 87, "channel": 0}, {"type": "note_on", "time": 59, "note": 55, "velocity": 107, "channel": 0}, {"type": "note_off", "time": 4075, "note": 55, "velocity": 107, "channel": 0}, {"type": "note_on", "time": 0, "note": 58, "velocity": 88, "channel": 0}, {"type": "note_off", "time": 1606, "note": 58, "velocity": 88, "channel": 0}, {"type": "note_on", "time": 386, "note": 60, "velocity": 114, "channel": 0}, {"type": "note_on", "time": 5592, "note": 58, "velocity": 101, "channel": 0}, {"type": "note_off", "time": 0, "note": 60, "velocity": 114, "channel": 0}, {"type": "note_off", "time": 1963, "note": 58, "velocity": 101, "channel": 0}, {"type": "note_on", "time": 0, "note": 63, "velocity": 110, "channel": 0}, {"type": "note_off", "time": 7019, "note": 63, "velocity": 110, "channel": 0}, {"type": "note_on", "time": 594, "note": 63, "velocity": 101, "channel": 0}, {"type": "note_off", "time": 29447, "note": 63, "velocity": 101, "channel": 0}, {"type": "note_on", "time": 34265, "note": 62, "velocity": 112, "channel": 0}, {"type": "note_off", "time": 4818, "note": 62, "velocity": 112, "channel": 0}, {"type": "note_on", "time": 416, "note": 67, "velocity": 119, "channel": 0}, {"type": "note_off", "time": 6543, "note": 67, "velocity": 119, "channel": 0}, {"type": "note_on", "time": 8863, "note": 62, "velocity": 111, "channel": 0}, {"type": "note_off", "time": 4580, "note": 62, "velocity": 111, "channel": 0}, {"type": "note_on", "time": 297, "note": 58, "velocity": 113, "channel": 0}, {"type": "note_off", "time": 4580, "note": 58, "velocity": 113, "channel": 0}, {"type": "note_on", "time": 178, "note": 55, "velocity": 112, "channel": 0}, {"type": "note_off", "time": 11659, "note": 55, "velocity": 112, "channel": 0}, {"type": "note_on", "time": 1784, "note": 61, "velocity": 111, "channel": 0}, {"type": "note_off", "time": 5829, "note": 61, "velocity": 111, "channel": 0}, {"type": "note_on", "time": 36169, "note": 60, "velocity": 114, "channel": 0}, {"type": "note_off", "time": 4699, "note": 60, "velocity": 114, "channel": 0}, {"type": "note_on", "time": 237, "note": 63, "velocity": 110, "channel": 0}, {"type": "note_off", "time": 4878, "note": 63, "velocity": 110, "channel": 0}, {"type": "note_on", "time": 178, "note": 60, "velocity": 110, "channel": 0}, {"type": "note_off", "time": 5294, "note": 60, "velocity": 110, "channel": 0}, {"type": "note_on", "time": 594, "note": 56, "velocity": 116, "channel": 0}, {"type": "note_off", "time": 5889, "note": 56, "velocity": 116, "channel": 0}, {"type": "note_on", "time": 178, "note": 58, "velocity": 113, "channel": 0}, {"type": "note_off", "time": 12849, "note": 58, "velocity": 113, "channel": 0}, {"type": "note_on", "time": 356, "note": 55, "velocity": 103, "channel": 0}, {"type": "note_off", "time": 4937, "note": 55, "velocity": 103, "channel": 0}, {"type": "note_on", "time": 118, "note": 56, "velocity": 113, "channel": 0}, {"type": "note_off", "time": 8744, "note": 56, "velocity": 113, "channel": 0}, {"type": "note_on", "time": 107, "note": 55, "velocity": 107, "channel": 0}, {"type": "note_off", "time": 2007, "note": 55, "velocity": 107, "channel": 0}, {"type": "note_on", "time": 167, "note": 54, "velocity": 105, "channel": 0}, {"type": "note_off", "time": 2677, "note": 54, "velocity": 105, "channel": 0}, {"type": "note_on", "time": 215, "note": 53, "velocity": 101, "channel": 0}, {"type": "note_off", "time": 38132, "note": 53, "velocity": 101, "channel": 0}, {"type": "note_on", "time": 26591, "note": 55, "velocity": 113, "channel": 0}, {"type": "note_off", "time": 3866, "note": 55, "velocity": 113, "channel": 0}, {"type": "note_on", "time": 178, "note": 53, "velocity": 109, "channel": 0}, {"type": "note_off", "time": 5175, "note": 53, "velocity": 109, "channel": 0}, {"type": "note_on", "time": 237, "note": 52, "velocity": 91, "channel": 0}, {"type": "note_off", "time": 4223, "note": 52, "velocity": 91, "channel": 0}, {"type": "note_on", "time": 416, "note": 53, "velocity": 110, "channel": 0}, {"type": "note_off", "time": 6841, "note": 53, "velocity": 110, "channel": 0}, {"type": "note_on", "time": 535, "note": 58, "velocity": 115, "channel": 0}, {"type": "note_off", "time": 4997, "note": 58, "velocity": 115, "channel": 0}, {"type": "note_on", "time": 59, "note": 56, "velocity": 102, "channel": 0}, {"type": "note_off", "time": 2617, "note": 56, "velocity": 102, "channel": 0}, {"type": "note_on", "time": 297, "note": 58, "velocity": 108, "channel": 0}, {"type": "note_off", "time": 26948, "note": 58, "velocity": 108, "channel": 0}, {"type": "note_on", "time": 44081, "note": 51, "velocity": 117, "channel": 0}, {"type": "note_off", "time": 3093, "note": 51, "velocity": 117, "channel": 0}, {"type": "note_on", "time": 178, "note": 50, "velocity": 116, "channel": 0}, {"type": "note_off", "time": 9101, "note": 50, "velocity": 116, "channel": 0}, {"type": "note_on", "time": 416, "note": 58, "velocity": 103, "channel": 0}, {"type": "note_off", "time": 2736, "note": 58, "velocity": 103, "channel": 0}, {"type": "note_on", "time": 297, "note": 56, "velocity": 117, "channel": 0}, {"type": "note_off", "time": 20523, "note": 56, "velocity": 117, "channel": 0}, {"type": "note_on", "time": 297, "note": 62, "velocity": 92, "channel": 0}, {"type": "note_off", "time": 2320, "note": 62, "velocity": 92, "channel": 0}, {"type": "note_on", "time": 118, "note": 61, "velocity": 101, "channel": 0}, {"type": "note_off", "time": 1546, "note": 61, "velocity": 101, "channel": 0}, {"type": "note_on", "time": 178, "note": 59, "velocity": 113, "channel": 0}, {"type": "note_off", "time": 2320, "note": 59, "velocity": 113, "channel": 0}, {"type": "note_on", "time": 118, "note": 58, "velocity": 113, "channel": 0}, {"type": "note_off", "time": 7912, "note": 58, "velocity": 113, "channel": 0}, {"type": "note_on", "time": 178, "note": 56, "velocity": 111, "channel": 0}, {"type": "note_off", "time": 2498, "note": 56, "velocity": 111, "channel": 0}, {"type": "note_on", "time": 178, "note": 54, "velocity": 107, "channel": 0}, {"type": "note_off", "time": 7674, "note": 54, "velocity": 107, "channel": 0}, {"type": "note_on", "time": 773, "note": 56, "velocity": 98, "channel": 0}, {"type": "note_off", "time": 3450, "note": 56, "velocity": 98, "channel": 0}, {"type": "note_on", "time": 237, "note": 58, "velocity": 107, "channel": 0}, {"type": "note_off", "time": 1606, "note": 58, "velocity": 107, "channel": 0}, {"type": "note_on", "time": 297, "note": 56, "velocity": 115, "channel": 0}, {"type": "note_off", "time": 4164, "note": 56, "velocity": 115, "channel": 0}, {"type": "note_on", "time": 356, "note": 61, "velocity": 102, "channel": 0}, {"type": "note_off", "time": 4164, "note": 61, "velocity": 102, "channel": 0}, {"type": "note_on", "time": 20047, "note": 58, "velocity": 114, "channel": 0}, {"type": "note_off", "time": 3747, "note": 58, "velocity": 114, "channel": 0}, {"type": "note_on", "time": 118, "note": 55, "velocity": 89, "channel": 0}, {"type": "note_off", "time": 2558, "note": 55, "velocity": 89, "channel": 0}, {"type": "note_on", "time": 594, "note": 57, "velocity": 77, "channel": 0}, {"type": "note_off", "time": 2379, "note": 57, "velocity": 77, "channel": 0}, {"type": "note_on", "time": 535, "note": 60, "velocity": 110, "channel": 0}, {"type": "note_off", "time": 4759, "note": 60, "velocity": 110, "channel": 0}, {"type": "note_on", "time": 178, "note": 55, "velocity": 80, "channel": 0}, {"type": "note_off", "time": 2141, "note": 55, "velocity": 80, "channel": 0}, {"type": "note_on", "time": 416, "note": 58, "velocity": 114, "channel": 0}, {"type": "note_off", "time": 5354, "note": 58, "velocity": 114, "channel": 0}, {"type": "note_on", "time": 356, "note": 60, "velocity": 97, "channel": 0}, {"type": "note_off", "time": 12492, "note": 60, "velocity": 97, "channel": 0}, {"type": "note_on", "time": 42594, "note": 58, "velocity": 103, "channel": 0}, {"type": "note_off", "time": 4878, "note": 58, "velocity": 103, "channel": 0}, {"type": "note_on", "time": 237, "note": 60, "velocity": 114, "channel": 0}, {"type": "note_off", "time": 6722, "note": 60, "velocity": 114, "channel": 0}, {"type": "note_on", "time": 297, "note": 58, "velocity": 109, "channel": 0}, {"type": "note_off", "time": 4580, "note": 58, "velocity": 109, "channel": 0}, {"type": "note_on", "time": 7793, "note": 58, "velocity": 104, "channel": 0}, {"type": "note_off", "time": 4580, "note": 58, "velocity": 104, "channel": 0}, {"type": "note_on", "time": 3331, "note": 63, "velocity": 113, "channel": 0}, {"type": "note_off", "time": 2082, "note": 63, "velocity": 113, "channel": 0}, {"type": "note_on", "time": 136, "note": 65, "velocity": 121, "channel": 0}, {"type": "note_off", "time": 5103, "note": 65, "velocity": 121, "channel": 0}, {"type": "note_on", "time": 209, "note": 61, "velocity": 95, "channel": 0}, {"type": "note_off", "time": 1589, "note": 61, "velocity": 95, "channel": 0}, {"type": "note_on", "time": 418, "note": 62, "velocity": 108, "channel": 0}, {"type": "note_off", "time": 4182, "note": 62, "velocity": 108, "channel": 0}, {"type": "note_on", "time": 209, "note": 58, "velocity": 110, "channel": 0}, {"type": "note_off", "time": 12799, "note": 58, "velocity": 110, "channel": 0}, {"type": "note_on", "time": 13259, "note": 60, "velocity": 103, "channel": 0}, {"type": "note_off", "time": 2802, "note": 60, "velocity": 103, "channel": 0}, {"type": "note_on", "time": 125, "note": 63, "velocity": 101, "channel": 0}, {"type": "note_off", "time": 2718, "note": 63, "velocity": 101, "channel": 0}, {"type": "note_on", "time": 250, "note": 65, "velocity": 120, "channel": 0}, {"type": "note_off", "time": 5019, "note": 65, "velocity": 120, "channel": 0}, {"type": "note_on", "time": 585, "note": 63, "velocity": 88, "channel": 0}, {"type": "note_off", "time": 1254, "note": 63, "velocity": 88, "channel": 0}, {"type": "note_on", "time": 167, "note": 65, "velocity": 126, "channel": 0}, {"type": "note_off", "time": 2384, "note": 65, "velocity": 126, "channel": 0}, {"type": "note_on", "time": 209, "note": 67, "velocity": 115, "channel": 0}, {"type": "note_off", "time": 25218, "note": 67, "velocity": 115, "channel": 0}, {"type": "note_on", "time": 212, "note": 65, "velocity": 107, "channel": 0}, {"type": "note_off", "time": 1924, "note": 65, "velocity": 107, "channel": 0}, {"type": "note_on", "time": 167, "note": 63, "velocity": 101, "channel": 0}, {"type": "note_off", "time": 2384, "note": 63, "velocity": 101, "channel": 0}, {"type": "note_on", "time": 167, "note": 60, "velocity": 93, "channel": 0}, {"type": "note_off", "time": 11168, "note": 60, "velocity": 93, "channel": 0}, {"type": "note_on", "time": 33881, "note": 62, "velocity": 112, "channel": 0}, {"type": "note_off", "time": 5646, "note": 62, "velocity": 112, "channel": 0}, {"type": "note_on", "time": 334, "note": 66, "velocity": 120, "channel": 0}, {"type": "note_off", "time": 2258, "note": 66, "velocity": 120, "channel": 0}, {"type": "note_on", "time": 41, "note": 67, "velocity": 117, "channel": 0}, {"type": "note_off", "time": 9578, "note": 67, "velocity": 117, "channel": 0}, {"type": "note_on", "time": 1129, "note": 62, "velocity": 99, "channel": 0}, {"type": "note_off", "time": 5772, "note": 62, "velocity": 99, "channel": 0}, {"type": "note_on", "time": 334, "note": 58, "velocity": 87, "channel": 0}, {"type": "note_off", "time": 1924, "note": 58, "velocity": 87, "channel": 0}, {"type": "note_on", "time": 83, "note": 61, "velocity": 9, "channel": 0}, {"type": "note_off", "time": 15978, "note": 61, "velocity": 9, "channel": 0}, {"type": "note_on", "time": 2760, "note": 67, "velocity": 114, "channel": 0}, {"type": "note_off", "time": 5061, "note": 67, "velocity": 114, "channel": 0}, {"type": "note_on", "time": 2007, "note": 61, "velocity": 97, "channel": 0}, {"type": "note_off", "time": 7320, "note": 61, "velocity": 97, "channel": 0}, {"type": "note_on", "time": 24218, "note": 58, "velocity": 109, "channel": 0}, {"type": "note_off", "time": 4684, "note": 58, "velocity": 109, "channel": 0}, {"type": "note_on", "time": 8198, "note": 58, "velocity": 106, "channel": 0}, {"type": "note_off", "time": 5688, "note": 58, "velocity": 106, "channel": 0}, {"type": "note_on", "time": 9495, "note": 59, "velocity": 83, "channel": 0}, {"type": "note_off", "time": 1171, "note": 59, "velocity": 83, "channel": 0}, {"type": "note_on", "time": 83, "note": 60, "velocity": 118, "channel": 0}, {"type": "note_off", "time": 4935, "note": 60, "velocity": 118, "channel": 0}, {"type": "note_on", "time": 250, "note": 65, "velocity": 123, "channel": 0}, {"type": "note_off", "time": 7780, "note": 65, "velocity": 123, "channel": 0}, {"type": "note_on", "time": 1296, "note": 59, "velocity": 106, "channel": 0}, {"type": "note_off", "time": 8156, "note": 59, "velocity": 106, "channel": 0}, {"type": "note_on", "time": 209, "note": 57, "velocity": 96, "channel": 0}, {"type": "note_off", "time": 2844, "note": 57, "velocity": 96, "channel": 0}, {"type": "note_on", "time": 125, "note": 58, "velocity": 105, "channel": 0}, {"type": "note_off", "time": 30785, "note": 58, "velocity": 105, "channel": 0}, {"type": "note_on", "time": 36181, "note": 62, "velocity": 114, "channel": 0}, {"type": "note_off", "time": 4182, "note": 62, "velocity": 114, "channel": 0}, {"type": "note_on", "time": 418, "note": 63, "velocity": 110, "channel": 0}, {"type": "note_off", "time": 5061, "note": 63, "velocity": 110, "channel": 0}, {"type": "note_on", "time": 418, "note": 64, "velocity": 107, "channel": 0}, {"type": "note_off", "time": 5395, "note": 64, "velocity": 107, "channel": 0}, {"type": "note_on", "time": 167, "note": 63, "velocity": 98, "channel": 0}, {"type": "note_off", "time": 2175, "note": 63, "velocity": 98, "channel": 0}, {"type": "note_on", "time": 209, "note": 65, "velocity": 114, "channel": 0}, {"type": "note_off", "time": 28317, "note": 65, "velocity": 114, "channel": 0}, {"type": "note_on", "time": 125, "note": 63, "velocity": 94, "channel": 0}, {"type": "note_off", "time": 9034, "note": 63, "velocity": 94, "channel": 0}, {"type": "note_on", "time": 250, "note": 60, "velocity": 107, "channel": 0}, {"type": "note_off", "time": 32626, "note": 60, "velocity": 107, "channel": 0}, {"type": "note_on", "time": 376, "note": 55, "velocity": 107, "channel": 0}, {"type": "note_off", "time": 3513, "note": 55, "velocity": 107, "channel": 0}, {"type": "note_on", "time": 167, "note": 56, "velocity": 108, "channel": 0}, {"type": "note_off", "time": 5186, "note": 56, "velocity": 108, "channel": 0}, {"type": "note_on", "time": 209, "note": 53, "velocity": 97, "channel": 0}, {"type": "note_off", "time": 27355, "note": 53, "velocity": 97, "channel": 0}, {"type": "note_on", "time": 37754, "note": 56, "velocity": 108, "channel": 0}, {"type": "note_off", "time": 4342, "note": 56, "velocity": 108, "channel": 0}, {"type": "note_on", "time": 356, "note": 60, "velocity": 115, "channel": 0}, {"type": "note_off", "time": 5116, "note": 60, "velocity": 115, "channel": 0}, {"type": "note_on", "time": 356, "note": 63, "velocity": 109, "channel": 0}, {"type": "note_off", "time": 3777, "note": 63, "velocity": 109, "channel": 0}, {"type": "note_on", "time": 18144, "note": 60, "velocity": 97, "channel": 0}, {"type": "note_off", "time": 3182, "note": 60, "velocity": 97, "channel": 0}, {"type": "note_on", "time": 178, "note": 68, "velocity": 119, "channel": 0}, {"type": "note_off", "time": 1516, "note": 68, "velocity": 119, "channel": 0}, {"type": "note_on", "time": 89, "note": 70, "velocity": 116, "channel": 0}, {"type": "note_off", "time": 4937, "note": 70, "velocity": 116, "channel": 0}, {"type": "note_on", "time": 148, "note": 68, "velocity": 119, "channel": 0}, {"type": "note_off", "time": 1963, "note": 68, "velocity": 119, "channel": 0}, {"type": "note_on", "time": 118, "note": 70, "velocity": 120, "channel": 0}, {"type": "note_off", "time": 23349, "note": 70, "velocity": 120, "channel": 0}, {"type": "note_on", "time": 2796, "note": 68, "velocity": 111, "channel": 0}, {"type": "note_off", "time": 2201, "note": 68, "velocity": 111, "channel": 0}, {"type": "note_on", "time": 89, "note": 70, "velocity": 110, "channel": 0}, {"type": "note_off", "time": 1903, "note": 70, "velocity": 110, "channel": 0}, {"type": "note_on", "time": 59, "note": 68, "velocity": 110, "channel": 0}, {"type": "note_off", "time": 1368, "note": 68, "velocity": 110, "channel": 0}, {"type": "note_on", "time": 89, "note": 66, "velocity": 111, "channel": 0}, {"type": "note_off", "time": 3420, "note": 66, "velocity": 111, "channel": 0}, {"type": "note_on", "time": 178, "note": 68, "velocity": 116, "channel": 0}, {"type": "note_off", "time": 13266, "note": 68, "velocity": 116, "channel": 0}, {"type": "note_on", "time": 654, "note": 66, "velocity": 113, "channel": 0}, {"type": "note_off", "time": 3896, "note": 66, "velocity": 113, "channel": 0}, {"type": "note_on", "time": 446, "note": 63, "velocity": 94, "channel": 0}, {"type": "note_off", "time": 5026, "note": 63, "velocity": 94, "channel": 0}, {"type": "note_on", "time": 475, "note": 61, "velocity": 88, "channel": 0}, {"type": "note_off", "time": 2439, "note": 61, "velocity": 88, "channel": 0}, {"type": "note_on", "time": 89, "note": 63, "velocity": 94, "channel": 0}, {"type": "note_off", "time": 13563, "note": 63, "velocity": 94, "channel": 0}, {"type": "note_on", "time": 30399, "note": 56, "velocity": 92, "channel": 0}, {"type": "note_off", "time": 2974, "note": 56, "velocity": 92, "channel": 0}, {"type": "note_on", "time": 89, "note": 60, "velocity": 98, "channel": 0}, {"type": "note_off", "time": 2022, "note": 60, "velocity": 98, "channel": 0}, {"type": "note_on", "time": 89, "note": 63, "velocity": 107, "channel": 0}, {"type": "note_off", "time": 2528, "note": 63, "velocity": 107, "channel": 0}, {"type": "note_on", "time": 267, "note": 66, "velocity": 123, "channel": 0}, {"type": "note_off", "time": 4491, "note": 66, "velocity": 123, "channel": 0}, {"type": "note_on", "time": 267, "note": 63, "velocity": 93, "channel": 0}, {"type": "note_off", "time": 1814, "note": 63, "velocity": 93, "channel": 0}, {"type": "note_on", "time": 178, "note": 68, "velocity": 120, "channel": 0}, {"type": "note_off", "time": 4253, "note": 68, "velocity": 120, "channel": 0}, {"type": "note_on", "time": 148, "note": 66, "velocity": 115, "channel": 0}, {"type": "note_off", "time": 4015, "note": 66, "velocity": 115, "channel": 0}, {"type": "note_on", "time": 446, "note": 63, "velocity": 94, "channel": 0}, {"type": "note_off", "time": 4788, "note": 63, "velocity": 94, "channel": 0}, {"type": "note_on", "time": 59, "note": 62, "velocity": 88, "channel": 0}, {"type": "note_off", "time": 2052, "note": 62, "velocity": 88, "channel": 0}, {"type": "note_on", "time": 356, "note": 65, "velocity": 125, "channel": 0}, {"type": "note_off", "time": 1933, "note": 65, "velocity": 125, "channel": 0}, {"type": "note_on", "time": 89, "note": 67, "velocity": 119, "channel": 0}, {"type": "note_off", "time": 4134, "note": 67, "velocity": 119, "channel": 0}, {"type": "note_on", "time": 118, "note": 70, "velocity": 113, "channel": 0}, {"type": "note_off", "time": 37180, "note": 70, "velocity": 113, "channel": 0}, {"type": "note_on", "time": 28122, "note": 67, "velocity": 122, "channel": 0}, {"type": "note_off", "time": 3639, "note": 67, "velocity": 122, "channel": 0}, {"type": "note_on", "time": 460, "note": 70, "velocity": 110, "channel": 0}, {"type": "note_off", "time": 2928, "note": 70, "velocity": 110, "channel": 0}, {"type": "note_on", "time": 13780, "note": 67, "velocity": 114, "channel": 0}, {"type": "note_off", "time": 1992, "note": 67, "velocity": 114, "channel": 0}, {"type": "note_on", "time": 118, "note": 70, "velocity": 114, "channel": 0}, {"type": "note_off", "time": 3212, "note": 70, "velocity": 114, "channel": 0}, {"type": "note_on", "time": 208, "note": 74, "velocity": 114, "channel": 0}, {"type": "note_off", "time": 5740, "note": 74, "velocity": 114, "channel": 0}, {"type": "note_on", "time": 922, "note": 74, "velocity": 114, "channel": 0}, {"type": "note_off", "time": 8328, "note": 74, "velocity": 114, "channel": 0}, {"type": "note_on", "time": 297, "note": 67, "velocity": 111, "channel": 0}, {"type": "note_off", "time": 3390, "note": 67, "velocity": 111, "channel": 0}, {"type": "note_on", "time": 4134, "note": 70, "velocity": 125, "channel": 0}, {"type": "note_off", "time": 2914, "note": 70, "velocity": 125, "channel": 0}, {"type": "note_on", "time": 59, "note": 72, "velocity": 118, "channel": 0}, {"type": "note_off", "time": 3480, "note": 72, "velocity": 118, "channel": 0}, {"type": "note_on", "time": 89, "note": 70, "velocity": 116, "channel": 0}, {"type": "note_off", "time": 1903, "note": 70, "velocity": 116, "channel": 0}, {"type": "note_on", "time": 59, "note": 72, "velocity": 117, "channel": 0}, {"type": "note_off", "time": 1844, "note": 72, "velocity": 117, "channel": 0}, {"type": "note_on", "time": 118, "note": 73, "velocity": 113, "channel": 0}, {"type": "note_off", "time": 28090, "note": 73, "velocity": 113, "channel": 0}, {"type": "note_on", "time": 286, "note": 72, "velocity": 96, "channel": 0}, {"type": "note_off", "time": 34622, "note": 72, "velocity": 96, "channel": 0}, {"type": "note_on", "time": 17489, "note": 75, "velocity": 118, "channel": 0}, {"type": "note_off", "time": 4640, "note": 75, "velocity": 118, "channel": 0}, {"type": "note_on", "time": 535, "note": 72, "velocity": 112, "channel": 0}, {"type": "note_off", "time": 5770, "note": 72, "velocity": 112, "channel": 0}, {"type": "note_on", "time": 356, "note": 68, "velocity": 123, "channel": 0}, {"type": "note_off", "time": 4818, "note": 68, "velocity": 123, "channel": 0}, {"type": "note_on", "time": 237, "note": 70, "velocity": 120, "channel": 0}, {"type": "note_off", "time": 7495, "note": 70, "velocity": 120, "channel": 0}, {"type": "note_on", "time": 237, "note": 67, "velocity": 118, "channel": 0}, {"type": "note_off", "time": 2379, "note": 67, "velocity": 118, "channel": 0}, {"type": "note_on", "time": 178, "note": 68, "velocity": 114, "channel": 0}, {"type": "note_off", "time": 5116, "note": 68, "velocity": 114, "channel": 0}, {"type": "note_on", "time": 118, "note": 65, "velocity": 110, "channel": 0}, {"type": "note_off", "time": 31886, "note": 65, "velocity": 110, "channel": 0}, {"type": "note_on", "time": 19334, "note": 67, "velocity": 119, "channel": 0}, {"type": "note_off", "time": 1814, "note": 67, "velocity": 119, "channel": 0}, {"type": "note_on", "time": 89, "note": 65, "velocity": 118, "channel": 0}, {"type": "note_off", "time": 1784, "note": 65, "velocity": 118, "channel": 0}, {"type": "note_on", "time": 118, "note": 64, "velocity": 111, "channel": 0}, {"type": "note_off", "time": 2230, "note": 64, "velocity": 111, "channel": 0}, {"type": "note_on", "time": 7436, "note": 67, "velocity": 122, "channel": 0}, {"type": "note_off", "time": 3242, "note": 67, "velocity": 122, "channel": 0}, {"type": "note_on", "time": 267, "note": 65, "velocity": 117, "channel": 0}, {"type": "note_off", "time": 3688, "note": 65, "velocity": 117, "channel": 0}, {"type": "note_on", "time": 208, "note": 64, "velocity": 99, "channel": 0}, {"type": "note_off", "time": 2766, "note": 64, "velocity": 99, "channel": 0}, {"type": "note_on", "time": 118, "note": 65, "velocity": 105, "channel": 0}, {"type": "note_off", "time": 2558, "note": 65, "velocity": 105, "channel": 0}, {"type": "note_on", "time": 12135, "note": 68, "velocity": 123, "channel": 0}, {"type": "note_off", "time": 2498, "note": 68, "velocity": 123, "channel": 0}, {"type": "note_on", "time": 29, "note": 70, "velocity": 118, "channel": 0}, {"type": "note_off", "time": 15021, "note": 70, "velocity": 118, "channel": 0}, {"type": "note_on", "time": 505, "note": 69, "velocity": 116, "channel": 0}, {"type": "note_off", "time": 4907, "note": 69, "velocity": 116, "channel": 0}, {"type": "note_on", "time": 713, "note": 63, "velocity": 76, "channel": 0}, {"type": "note_off", "time": 2230, "note": 63, "velocity": 76, "channel": 0}, {"type": "note_on", "time": 178, "note": 68, "velocity": 105, "channel": 0}, {"type": "note_off", "time": 19601, "note": 68, "velocity": 105, "channel": 0}, {"type": "note_on", "time": 51144, "note": 70, "velocity": 122, "channel": 0}, {"type": "note_off", "time": 4852, "note": 70, "velocity": 122, "channel": 0}, {"type": "note_on", "time": 125, "note": 68, "velocity": 123, "channel": 0}, {"type": "note_off", "time": 13050, "note": 68, "velocity": 123, "channel": 0}, {"type": "note_on", "time": 2928, "note": 73, "velocity": 118, "channel": 0}, {"type": "note_off", "time": 3304, "note": 73, "velocity": 118, "channel": 0}, {"type": "note_on", "time": 167, "note": 70, "velocity": 118, "channel": 0}, {"type": "note_off", "time": 11210, "note": 70, "velocity": 118, "channel": 0}, {"type": "note_on", "time": 209, "note": 68, "velocity": 123, "channel": 0}, {"type": "note_off", "time": 3680, "note": 68, "velocity": 123, "channel": 0}, {"type": "note_on", "time": 125, "note": 66, "velocity": 112, "channel": 0}, {"type": "note_off", "time": 1714, "note": 66, "velocity": 112, "channel": 0}, {"type": "note_on", "time": 125, "note": 63, "velocity": 102, "channel": 0}, {"type": "note_off", "time": 2467, "note": 63, "velocity": 102, "channel": 0}, {"type": "note_on", "time": 376, "note": 58, "velocity": 112, "channel": 0}, {"type": "note_off", "time": 4308, "note": 58, "velocity": 112, "channel": 0}, {"type": "note_on", "time": 376, "note": 56, "velocity": 115, "channel": 0}, {"type": "note_off", "time": 5354, "note": 56, "velocity": 115, "channel": 0}, {"type": "note_on", "time": 167, "note": 55, "velocity": 96, "channel": 0}, {"type": "note_off", "time": 29614, "note": 55, "velocity": 96, "channel": 0}, {"type": "note_on", "time": 167, "note": 58, "velocity": 109, "channel": 0}, {"type": "note_off", "time": 8156, "note": 58, "velocity": 109, "channel": 0}, {"type": "note_on", "time": 167, "note": 63, "velocity": 91, "channel": 0}, {"type": "note_off", "time": 14974, "note": 63, "velocity": 91, "channel": 0}, {"type": "note_on", "time": 19575, "note": 67, "velocity": 125, "channel": 0}, {"type": "note_off", "time": 1422, "note": 67, "velocity": 125, "channel": 0}, {"type": "note_on", "time": 167, "note": 68, "velocity": 121, "channel": 0}, {"type": "note_off", "time": 1045, "note": 68, "velocity": 121, "channel": 0}, {"type": "note_on", "time": 83, "note": 70, "velocity": 119, "channel": 0}, {"type": "note_off", "time": 836, "note": 70, "velocity": 119, "channel": 0}, {"type": "note_on", "time": 125, "note": 74, "velocity": 117, "channel": 0}, {"type": "note_off", "time": 2677, "note": 74, "velocity": 117, "channel": 0}, {"type": "note_on", "time": 167, "note": 77, "velocity": 117, "channel": 0}, {"type": "note_off", "time": 2551, "note": 77, "velocity": 117, "channel": 0}, {"type": "note_on", "time": 125, "note": 74, "velocity": 110, "channel": 0}, {"type": "note_off", "time": 21876, "note": 74, "velocity": 110, "channel": 0}, {"type": "note_on", "time": 24697, "note": 71, "velocity": 104, "channel": 0}, {"type": "note_off", "time": 773, "note": 71, "velocity": 104, "channel": 0}, {"type": "note_on", "time": 148, "note": 73, "velocity": 124, "channel": 0}, {"type": "note_off", "time": 1427, "note": 73, "velocity": 124, "channel": 0}, {"type": "note_on", "time": 89, "note": 72, "velocity": 117, "channel": 0}, {"type": "note_off", "time": 4907, "note": 72, "velocity": 117, "channel": 0}, {"type": "note_on", "time": 892, "note": 72, "velocity": 110, "channel": 0}, {"type": "note_off", "time": 27631, "note": 72, "velocity": 110, "channel": 0}, {"type": "note_on", "time": 292, "note": 75, "velocity": 106, "channel": 0}, {"type": "note_off", "time": 14472, "note": 75, "velocity": 106, "channel": 0}, {"type": "note_on", "time": 29734, "note": 72, "velocity": 119, "channel": 0}, {"type": "note_off", "time": 3569, "note": 72, "velocity": 119, "channel": 0}, {"type": "note_on", "time": 148, "note": 68, "velocity": 123, "channel": 0}, {"type": "note_off", "time": 3123, "note": 68, "velocity": 123, "channel": 0}, {"type": "note_on", "time": 59, "note": 70, "velocity": 118, "channel": 0}, {"type": "note_off", "time": 5086, "note": 70, "velocity": 118, "channel": 0}, {"type": "note_on", "time": 446, "note": 67, "velocity": 118, "channel": 0}, {"type": "note_off", "time": 2587, "note": 67, "velocity": 118, "channel": 0}, {"type": "note_on", "time": 208, "note": 68, "velocity": 9, "channel": 0}, {"type": "note_off", "time": 15229, "note": 68, "velocity": 9, "channel": 0}, {"type": "note_on", "time": 24807, "note": 67, "velocity": 122, "channel": 0}, {"type": "note_off", "time": 5235, "note": 67, "velocity": 122, "channel": 0}, {"type": "note_on", "time": 89, "note": 69, "velocity": 121, "channel": 0}, {"type": "note_off", "time": 1814, "note": 69, "velocity": 121, "channel": 0}, {"type": "note_on", "time": 59, "note": 70, "velocity": 120, "channel": 0}, {"type": "note_off", "time": 16300, "note": 70, "velocity": 120, "channel": 0}, {"type": "note_on", "time": 178, "note": 66, "velocity": 106, "channel": 0}, {"type": "note_off", "time": 1160, "note": 66, "velocity": 106, "channel": 0}, {"type": "note_on", "time": 118, "note": 67, "velocity": 118, "channel": 0}, {"type": "note_off", "time": 5145, "note": 67, "velocity": 118, "channel": 0}, {"type": "note_on", "time": 118, "note": 68, "velocity": 125, "channel": 0}, {"type": "note_off", "time": 5026, "note": 68, "velocity": 125, "channel": 0}, {"type": "note_on", "time": 89, "note": 67, "velocity": 122, "channel": 0}, {"type": "note_off", "time": 8001, "note": 67, "velocity": 122, "channel": 0}, {"type": "note_on", "time": 472, "note": 63, "velocity": 102, "channel": 0}, {"type": "note_off", "time": 1965, "note": 63, "velocity": 102, "channel": 0}, {"type": "note_on", "time": 271, "note": 58, "velocity": 105, "channel": 0}, {"type": "note_off", "time": 1359, "note": 58, "velocity": 105, "channel": 0}, {"type": "note_on", "time": 376, "note": 56, "velocity": 111, "channel": 0}, {"type": "note_off", "time": 10143, "note": 56, "velocity": 111, "channel": 0}, {"type": "note_on", "time": 104, "note": 58, "velocity": 112, "channel": 0}, {"type": "note_off", "time": 1589, "note": 58, "velocity": 112, "channel": 0}, {"type": "note_on", "time": 104, "note": 56, "velocity": 112, "channel": 0}, {"type": "note_off", "time": 1631, "note": 56, "velocity": 112, "channel": 0}, {"type": "note_on", "time": 104, "note": 54, "velocity": 111, "channel": 0}, {"type": "note_off", "time": 1798, "note": 54, "velocity": 111, "channel": 0}, {"type": "note_on", "time": 41, "note": 55, "velocity": 108, "channel": 0}, {"type": "note_off", "time": 3011, "note": 55, "velocity": 108, "channel": 0}, {"type": "note_on", "time": 9453, "note": 55, "velocity": 104, "channel": 0}, {"type": "note_off", "time": 2321, "note": 55, "velocity": 104, "channel": 0}, {"type": "note_on", "time": 139, "note": 57, "velocity": 109, "channel": 0}, {"type": "note_off", "time": 1070, "note": 57, "velocity": 109, "channel": 0}, {"type": "note_on", "time": 128, "note": 63, "velocity": 115, "channel": 0}, {"type": "note_off", "time": 3074, "note": 63, "velocity": 115, "channel": 0}, {"type": "note_on", "time": 146, "note": 58, "velocity": 105, "channel": 0}, {"type": "note_off", "time": 2091, "note": 58, "velocity": 105, "channel": 0}, {"type": "note_on", "time": 125, "note": 61, "velocity": 111, "channel": 0}, {"type": "note_off", "time": 3158, "note": 61, "velocity": 111, "channel": 0}, {"type": "note_on", "time": 146, "note": 63, "velocity": 101, "channel": 0}, {"type": "note_off", "time": 12569, "note": 63, "velocity": 101, "channel": 0}, {"type": "note_on", "time": 21273, "note": 58, "velocity": 116, "channel": 0}, {"type": "note_off", "time": 3673, "note": 58, "velocity": 116, "channel": 0}, {"type": "note_on", "time": 0, "note": 56, "velocity": 119, "channel": 0}, {"type": "note_off", "time": 4164, "note": 56, "velocity": 119, "channel": 0}, {"type": "note_on", "time": 482, "note": 63, "velocity": 102, "channel": 0}, {"type": "note_off", "time": 12109, "note": 63, "velocity": 102, "channel": 0}, {"type": "note_on", "time": 21451, "note": 55, "velocity": 89, "channel": 0}, {"type": "note_off", "time": 4283, "note": 55, "velocity": 89, "channel": 0}, {"type": "note_on", "time": 4907, "note": 55, "velocity": 114, "channel": 0}, {"type": "note_off", "time": 1965, "note": 55, "velocity": 114, "channel": 0}, {"type": "note_on", "time": 116, "note": 56, "velocity": 114, "channel": 0}, {"type": "note_off", "time": 1526, "note": 56, "velocity": 114, "channel": 0}, {"type": "note_on", "time": 79, "note": 58, "velocity": 118, "channel": 0}, {"type": "note_off", "time": 2196, "note": 58, "velocity": 118, "channel": 0}, {"type": "note_on", "time": 124, "note": 54, "velocity": 109, "channel": 0}, {"type": "note_off", "time": 1777, "note": 54, "velocity": 109, "channel": 0}, {"type": "note_on", "time": 155, "note": 55, "velocity": 111, "channel": 0}, {"type": "note_off", "time": 1631, "note": 55, "velocity": 111, "channel": 0}, {"type": "note_on", "time": 183, "note": 57, "velocity": 97, "channel": 0}, {"type": "note_off", "time": 1457, "note": 57, "velocity": 97, "channel": 0}, {"type": "note_on", "time": 862, "note": 61, "velocity": 122, "channel": 0}, {"type": "note_off", "time": 2617, "note": 61, "velocity": 122, "channel": 0}, {"type": "note_on", "time": 178, "note": 65, "velocity": 117, "channel": 0}, {"type": "note_off", "time": 2825, "note": 65, "velocity": 117, "channel": 0}, {"type": "note_on", "time": 29, "note": 64, "velocity": 116, "channel": 0}, {"type": "note_off", "time": 2171, "note": 64, "velocity": 116, "channel": 0}, {"type": "note_on", "time": 59, "note": 62, "velocity": 106, "channel": 0}, {"type": "note_off", "time": 1903, "note": 62, "velocity": 106, "channel": 0}, {"type": "note_on", "time": 59, "note": 63, "velocity": 107, "channel": 0}, {"type": "note_off", "time": 3747, "note": 63, "velocity": 107, "channel": 0}, {"type": "note_on", "time": 1308, "note": 61, "velocity": 79, "channel": 0}, {"type": "note_off", "time": 1160, "note": 61, "velocity": 79, "channel": 0}, {"type": "note_on", "time": 59, "note": 63, "velocity": 104, "channel": 0}, {"type": "note_off", "time": 1814, "note": 63, "velocity": 104, "channel": 0}, {"type": "note_on", "time": 29, "note": 62, "velocity": 107, "channel": 0}, {"type": "note_off", "time": 1606, "note": 62, "velocity": 107, "channel": 0}, {"type": "note_on", "time": 148, "note": 61, "velocity": 108, "channel": 0}, {"type": "note_off", "time": 1784, "note": 61, "velocity": 108, "channel": 0}, {"type": "note_on", "time": 89, "note": 62, "velocity": 104, "channel": 0}, {"type": "note_off", "time": 1516, "note": 62, "velocity": 104, "channel": 0}, {"type": "note_on", "time": 29, "note": 65, "velocity": 123, "channel": 0}, {"type": "note_off", "time": 2706, "note": 65, "velocity": 123, "channel": 0}, {"type": "note_on", "time": 89, "note": 68, "velocity": 114, "channel": 0}, {"type": "note_off", "time": 1546, "note": 68, "velocity": 114, "channel": 0}, {"type": "note_on", "time": 118, "note": 72, "velocity": 122, "channel": 0}, {"type": "note_off", "time": 2528, "note": 72, "velocity": 122, "channel": 0}, {"type": "note_on", "time": 89, "note": 70, "velocity": 121, "channel": 0}, {"type": "note_off", "time": 1873, "note": 70, "velocity": 121, "channel": 0}, {"type": "note_on", "time": 89, "note": 71, "velocity": 119, "channel": 0}, {"type": "note_off", "time": 1933, "note": 71, "velocity": 119, "channel": 0}, {"type": "note_on", "time": 118, "note": 67, "velocity": 120, "channel": 0}, {"type": "note_off", "time": 2022, "note": 67, "velocity": 120, "channel": 0}, {"type": "note_on", "time": 118, "note": 63, "velocity": 107, "channel": 0}, {"type": "note_off", "time": 2082, "note": 63, "velocity": 107, "channel": 0}, {"type": "note_on", "time": 89, "note": 62, "velocity": 110, "channel": 0}, {"type": "note_off", "time": 1903, "note": 62, "velocity": 110, "channel": 0}, {"type": "note_on", "time": 148, "note": 61, "velocity": 109, "channel": 0}, {"type": "note_off", "time": 2647, "note": 61, "velocity": 109, "channel": 0}, {"type": "note_on", "time": 178, "note": 65, "velocity": 117, "channel": 0}, {"type": "note_off", "time": 2766, "note": 65, "velocity": 117, "channel": 0}, {"type": "note_on", "time": 0, "note": 64, "velocity": 113, "channel": 0}, {"type": "note_off", "time": 2260, "note": 64, "velocity": 113, "channel": 0}, {"type": "note_on", "time": 829, "note": 60, "velocity": 97, "channel": 0}, {"type": "note_off", "time": 1547, "note": 60, "velocity": 97, "channel": 0}, {"type": "note_on", "time": 121, "note": 63, "velocity": 88, "channel": 0}, {"type": "note_off", "time": 18084, "note": 63, "velocity": 88, "channel": 0}, {"type": "note_on", "time": 30994, "note": 63, "velocity": 119, "channel": 0}, {"type": "note_off", "time": 3807, "note": 63, "velocity": 119, "channel": 0}, {"type": "note_on", "time": 594, "note": 65, "velocity": 125, "channel": 0}, {"type": "note_off", "time": 4431, "note": 65, "velocity": 125, "channel": 0}, {"type": "note_on", "time": 11124, "note": 66, "velocity": 115, "channel": 0}, {"type": "note_off", "time": 4342, "note": 66, "velocity": 115, "channel": 0}, {"type": "note_on", "time": 118, "note": 65, "velocity": 116, "channel": 0}, {"type": "note_off", "time": 2825, "note": 65, "velocity": 116, "channel": 0}, {"type": "note_on", "time": 505, "note": 63, "velocity": 100, "channel": 0}, {"type": "note_off", "time": 3093, "note": 63, "velocity": 100, "channel": 0}, {"type": "note_on", "time": 15783, "note": 63, "velocity": 104, "channel": 0}, {"type": "note_off", "time": 3053, "note": 63, "velocity": 104, "channel": 0}, {"type": "note_on", "time": 125, "note": 68, "velocity": 126, "channel": 0}, {"type": "note_off", "time": 4141, "note": 68, "velocity": 126, "channel": 0}, {"type": "note_on", "time": 125, "note": 70, "velocity": 126, "channel": 0}, {"type": "note_off", "time": 3304, "note": 70, "velocity": 126, "channel": 0}, {"type": "note_on", "time": 41, "note": 71, "velocity": 119, "channel": 0}, {"type": "note_off", "time": 1882, "note": 71, "velocity": 119, "channel": 0}, {"type": "note_on", "time": 83, "note": 72, "velocity": 116, "channel": 0}, {"type": "note_off", "time": 16731, "note": 72, "velocity": 116, "channel": 0}, {"type": "note_on", "time": 504, "note": 68, "velocity": 116, "channel": 0}, {"type": "note_off", "time": 5740, "note": 68, "velocity": 116, "channel": 0}, {"type": "note_on", "time": 922, "note": 63, "velocity": 94, "channel": 0}, {"type": "note_off", "time": 2974, "note": 63, "velocity": 94, "channel": 0}, {"type": "note_on", "time": 713, "note": 70, "velocity": 122, "channel": 0}, {"type": "note_off", "time": 7138, "note": 70, "velocity": 122, "channel": 0}, {"type": "note_on", "time": 237, "note": 68, "velocity": 120, "channel": 0}, {"type": "note_off", "time": 4759, "note": 68, "velocity": 120, "channel": 0}, {"type": "note_on", "time": 2260, "note": 68, "velocity": 110, "channel": 0}, {"type": "note_off", "time": 14545, "note": 68, "velocity": 110, "channel": 0}, {"type": "note_on", "time": 3123, "note": 71, "velocity": 119, "channel": 0}, {"type": "note_off", "time": 2022, "note": 71, "velocity": 119, "channel": 0}, {"type": "note_on", "time": 29, "note": 70, "velocity": 118, "channel": 0}, {"type": "note_off", "time": 3361, "note": 70, "velocity": 118, "channel": 0}, {"type": "note_on", "time": 118, "note": 68, "velocity": 123, "channel": 0}, {"type": "note_off", "time": 2647, "note": 68, "velocity": 123, "channel": 0}, {"type": "note_on", "time": 28257, "note": 71, "velocity": 124, "channel": 0}, {"type": "note_off", "time": 3331, "note": 71, "velocity": 124, "channel": 0}, {"type": "note_on", "time": 89, "note": 70, "velocity": 125, "channel": 0}, {"type": "note_off", "time": 2230, "note": 70, "velocity": 125, "channel": 0}, {"type": "note_on", "time": 178, "note": 68, "velocity": 121, "channel": 0}, {"type": "note_off", "time": 3599, "note": 68, "velocity": 121, "channel": 0}, {"type": "note_on", "time": 1771, "note": 75, "velocity": 118, "channel": 0}, {"type": "note_off", "time": 30158, "note": 75, "velocity": 118, "channel": 0}, {"type": "note_on", "time": 19498, "note": 73, "velocity": 119, "channel": 0}, {"type": "note_off", "time": 6365, "note": 73, "velocity": 119, "channel": 0}, {"type": "note_on", "time": 89, "note": 71, "velocity": 108, "channel": 0}, {"type": "note_off", "time": 2677, "note": 71, "velocity": 108, "channel": 0}, {"type": "note_on", "time": 178, "note": 73, "velocity": 122, "channel": 0}, {"type": "note_off", "time": 10232, "note": 73, "velocity": 122, "channel": 0}, {"type": "note_on", "time": 2498, "note": 70, "velocity": 123, "channel": 0}, {"type": "note_off", "time": 2587, "note": 70, "velocity": 123, "channel": 0}, {"type": "note_on", "time": 64, "note": 72, "velocity": 107, "channel": 0}, {"type": "note_off", "time": 1129, "note": 72, "velocity": 107, "channel": 0}, {"type": "note_on", "time": 62, "note": 70, "velocity": 120, "channel": 0}, {"type": "note_off", "time": 1192, "note": 70, "velocity": 120, "channel": 0}, {"type": "note_on", "time": 104, "note": 68, "velocity": 123, "channel": 0}, {"type": "note_off", "time": 4433, "note": 68, "velocity": 123, "channel": 0}, {"type": "note_on", "time": 271, "note": 70, "velocity": 115, "channel": 0}, {"type": "note_off", "time": 11628, "note": 70, "velocity": 115, "channel": 0}, {"type": "note_on", "time": 292, "note": 68, "velocity": 120, "channel": 0}, {"type": "note_off", "time": 4245, "note": 68, "velocity": 120, "channel": 0}, {"type": "note_on", "time": 167, "note": 70, "velocity": 118, "channel": 0}, {"type": "note_off", "time": 3869, "note": 70, "velocity": 118, "channel": 0}, {"type": "note_on", "time": 397, "note": 66, "velocity": 114, "channel": 0}, {"type": "note_off", "time": 1986, "note": 66, "velocity": 114, "channel": 0}, {"type": "note_on", "time": 284, "note": 67, "velocity": 107, "channel": 0}, {"type": "note_off", "time": 29982, "note": 67, "velocity": 107, "channel": 0}, {"type": "note_on", "time": 21981, "note": 58, "velocity": 106, "channel": 0}, {"type": "note_off", "time": 2796, "note": 58, "velocity": 106, "channel": 0}, {"type": "note_on", "time": 237, "note": 60, "velocity": 105, "channel": 0}, {"type": "note_off", "time": 3837, "note": 60, "velocity": 105, "channel": 0}, {"type": "note_on", "time": 565, "note": 63, "velocity": 110, "channel": 0}, {"type": "note_off", "time": 4134, "note": 63, "velocity": 110, "channel": 0}, {"type": "note_on", "time": 297, "note": 65, "velocity": 125, "channel": 0}, {"type": "note_off", "time": 4194, "note": 65, "velocity": 125, "channel": 0}, {"type": "note_on", "time": 565, "note": 67, "velocity": 123, "channel": 0}, {"type": "note_off", "time": 4104, "note": 67, "velocity": 123, "channel": 0}, {"type": "note_on", "time": 386, "note": 70, "velocity": 119, "channel": 0}, {"type": "note_off", "time": 3093, "note": 70, "velocity": 119, "channel": 0}, {"type": "note_on", "time": 1844, "note": 74, "velocity": 114, "channel": 0}, {"type": "note_off", "time": 5502, "note": 74, "velocity": 114, "channel": 0}, {"type": "note_on", "time": 267, "note": 70, "velocity": 113, "channel": 0}, {"type": "note_off", "time": 2677, "note": 70, "velocity": 113, "channel": 0}, {"type": "note_on", "time": 118, "note": 74, "velocity": 107, "channel": 0}, {"type": "note_off", "time": 12730, "note": 74, "velocity": 107, "channel": 0}, {"type": "note_on", "time": 27186, "note": 65, "velocity": 112, "channel": 0}, {"type": "note_off", "time": 1487, "note": 65, "velocity": 112, "channel": 0}, {"type": "note_on", "time": 148, "note": 67, "velocity": 118, "channel": 0}, {"type": "note_off", "time": 3480, "note": 67, "velocity": 118, "channel": 0}, {"type": "note_on", "time": 178, "note": 70, "velocity": 103, "channel": 0}, {"type": "note_off", "time": 1041, "note": 70, "velocity": 103, "channel": 0}, {"type": "note_on", "time": 29, "note": 72, "velocity": 118, "channel": 0}, {"type": "note_off", "time": 4788, "note": 72, "velocity": 118, "channel": 0}, {"type": "note_on", "time": 208, "note": 70, "velocity": 109, "channel": 0}, {"type": "note_off", "time": 1487, "note": 70, "velocity": 109, "channel": 0}, {"type": "note_on", "time": 267, "note": 72, "velocity": 118, "channel": 0}, {"type": "note_off", "time": 1606, "note": 72, "velocity": 118, "channel": 0}, {"type": "note_on", "time": 148, "note": 73, "velocity": 119, "channel": 0}, {"type": "note_off", "time": 11689, "note": 73, "velocity": 119, "channel": 0}, {"type": "note_on", "time": 475, "note": 72, "velocity": 114, "channel": 0}, {"type": "note_off", "time": 5235, "note": 72, "velocity": 114, "channel": 0}, {"type": "note_on", "time": 535, "note": 65, "velocity": 116, "channel": 0}, {"type": "note_off", "time": 5473, "note": 65, "velocity": 116, "channel": 0}, {"type": "note_on", "time": 2260, "note": 65, "velocity": 104, "channel": 0}, {"type": "note_off", "time": 14069, "note": 65, "velocity": 104, "channel": 0}, {"type": "note_on", "time": 30063, "note": 60, "velocity": 114, "channel": 0}, {"type": "note_off", "time": 2718, "note": 60, "velocity": 114, "channel": 0}, {"type": "note_on", "time": 167, "note": 64, "velocity": 108, "channel": 0}, {"type": "note_off", "time": 5186, "note": 64, "velocity": 108, "channel": 0}, {"type": "note_on", "time": 323, "note": 72, "velocity": 111, "channel": 0}, {"type": "note_off", "time": 13444, "note": 72, "velocity": 111, "channel": 0}, {"type": "note_on", "time": 16984, "note": 60, "velocity": 115, "channel": 0}, {"type": "note_off", "time": 3361, "note": 60, "velocity": 115, "channel": 0}, {"type": "note_on", "time": 446, "note": 67, "velocity": 121, "channel": 0}, {"type": "note_off", "time": 2290, "note": 67, "velocity": 121, "channel": 0}, {"type": "note_on", "time": 178, "note": 68, "velocity": 124, "channel": 0}, {"type": "note_off", "time": 1398, "note": 68, "velocity": 124, "channel": 0}, {"type": "note_on", "time": 89, "note": 67, "velocity": 119, "channel": 0}, {"type": "note_off", "time": 1516, "note": 67, "velocity": 119, "channel": 0}, {"type": "note_on", "time": 178, "note": 65, "velocity": 115, "channel": 0}, {"type": "note_off", "time": 3807, "note": 65, "velocity": 115, "channel": 0}, {"type": "note_on", "time": 148, "note": 67, "velocity": 103, "channel": 0}, {"type": "note_off", "time": 12165, "note": 67, "velocity": 103, "channel": 0}, {"type": "note_on", "time": 29923, "note": 60, "velocity": 113, "channel": 0}, {"type": "note_off", "time": 2409, "note": 60, "velocity": 113, "channel": 0}, {"type": "note_on", "time": 208, "note": 62, "velocity": 106, "channel": 0}, {"type": "note_off", "time": 2528, "note": 62, "velocity": 106, "channel": 0}, {"type": "note_on", "time": 17668, "note": 58, "velocity": 101, "channel": 0}, {"type": "note_off", "time": 2766, "note": 58, "velocity": 101, "channel": 0}, {"type": "note_on", "time": 386, "note": 62, "velocity": 109, "channel": 0}, {"type": "note_off", "time": 3004, "note": 62, "velocity": 109, "channel": 0}, {"type": "note_on", "time": 743, "note": 61, "velocity": 119, "channel": 0}, {"type": "note_off", "time": 2082, "note": 61, "velocity": 119, "channel": 0}, {"type": "note_on", "time": 89, "note": 62, "velocity": 116, "channel": 0}, {"type": "note_off", "time": 4104, "note": 62, "velocity": 116, "channel": 0}, {"type": "note_on", "time": 178, "note": 65, "velocity": 126, "channel": 0}, {"type": "note_off", "time": 4818, "note": 65, "velocity": 126, "channel": 0}, {"type": "note_on", "time": 26015, "note": 58, "velocity": 107, "channel": 0}, {"type": "note_off", "time": 4057, "note": 58, "velocity": 107, "channel": 0}, {"type": "note_on", "time": 501, "note": 60, "velocity": 80, "channel": 0}, {"type": "note_off", "time": 4601, "note": 60, "velocity": 80, "channel": 0}, {"type": "note_on", "time": 1380, "note": 63, "velocity": 106, "channel": 0}, {"type": "note_off", "time": 4392, "note": 63, "velocity": 106, "channel": 0}, {"type": "note_on", "time": 543, "note": 67, "velocity": 123, "channel": 0}, {"type": "note_off", "time": 4893, "note": 67, "velocity": 123, "channel": 0}, {"type": "note_on", "time": 418, "note": 70, "velocity": 119, "channel": 0}, {"type": "note_off", "time": 5772, "note": 70, "velocity": 119, "channel": 0}, {"type": "note_on", "time": 334, "note": 68, "velocity": 119, "channel": 0}, {"type": "note_off", "time": 5814, "note": 68, "velocity": 119, "channel": 0}, {"type": "note_on", "time": 1714, "note": 60, "velocity": 89, "channel": 0}, {"type": "note_off", "time": 5437, "note": 60, "velocity": 89, "channel": 0}, {"type": "note_on", "time": 1820, "note": 60, "velocity": 94, "channel": 0}, {"type": "note_off", "time": 12135, "note": 60, "velocity": 94, "channel": 0}, {"type": "note_on", "time": 788, "note": 67, "velocity": 122, "channel": 0}, {"type": "note_off", "time": 758, "note": 67, "velocity": 122, "channel": 0}, {"type": "note_on", "time": 29, "note": 68, "velocity": 125, "channel": 0}, {"type": "note_off", "time": 1606, "note": 68, "velocity": 125, "channel": 0}, {"type": "note_on", "time": 24, "note": 67, "velocity": 120, "channel": 0}, {"type": "note_off", "time": 2405, "note": 67, "velocity": 120, "channel": 0}, {"type": "note_on", "time": 4774, "note": 66, "velocity": 110, "channel": 0}, {"type": "note_off", "time": 11921, "note": 66, "velocity": 110, "channel": 0}, {"type": "note_on", "time": 713, "note": 62, "velocity": 107, "channel": 0}, {"type": "note_off", "time": 2349, "note": 62, "velocity": 107, "channel": 0}, {"type": "note_on", "time": 118, "note": 58, "velocity": 107, "channel": 0}, {"type": "note_off", "time": 2052, "note": 58, "velocity": 107, "channel": 0}, {"type": "note_on", "time": 178, "note": 56, "velocity": 109, "channel": 0}, {"type": "note_off", "time": 5532, "note": 56, "velocity": 109, "channel": 0}, {"type": "note_on", "time": 118, "note": 58, "velocity": 102, "channel": 0}, {"type": "note_off", "time": 12611, "note": 58, "velocity": 102, "channel": 0}, {"type": "note_on", "time": 34751, "note": 58, "velocity": 106, "channel": 0}, {"type": "note_off", "time": 1595, "note": 58, "velocity": 106, "channel": 0}, {"type": "note_on", "time": 40, "note": 60, "velocity": 108, "channel": 0}, {"type": "note_off", "time": 1216, "note": 60, "velocity": 108, "channel": 0}, {"type": "note_on", "time": 30, "note": 62, "velocity": 108, "channel": 0}, {"type": "note_off", "time": 1830, "note": 62, "velocity": 108, "channel": 0}, {"type": "note_on", "time": 419, "note": 65, "velocity": 117, "channel": 0}, {"type": "note_off", "time": 2781, "note": 65, "velocity": 117, "channel": 0}, {"type": "note_on", "time": 345, "note": 62, "velocity": 97, "channel": 0}, {"type": "note_off", "time": 1085, "note": 62, "velocity": 97, "channel": 0}, {"type": "note_on", "time": 44, "note": 63, "velocity": 94, "channel": 0}, {"type": "note_off", "time": 1279, "note": 63, "velocity": 94, "channel": 0}, {"type": "note_on", "time": 29, "note": 62, "velocity": 98, "channel": 0}, {"type": "note_off", "time": 996, "note": 62, "velocity": 98, "channel": 0}, {"type": "note_on", "time": 12, "note": 67, "velocity": 122, "channel": 0}, {"type": "note_off", "time": 3098, "note": 67, "velocity": 122, "channel": 0}, {"type": "note_on", "time": 10, "note": 68, "velocity": 116, "channel": 0}, {"type": "note_off", "time": 1717, "note": 68, "velocity": 116, "channel": 0}, {"type": "note_on", "time": 593, "note": 70, "velocity": 120, "channel": 0}, {"type": "note_off", "time": 1932, "note": 70, "velocity": 120, "channel": 0}, {"type": "note_on", "time": 125, "note": 66, "velocity": 115, "channel": 0}, {"type": "note_off", "time": 2593, "note": 66, "velocity": 115, "channel": 0}, {"type": "note_on", "time": 62, "note": 67, "velocity": 122, "channel": 0}, {"type": "note_off", "time": 2509, "note": 67, "velocity": 122, "channel": 0}, {"type": "note_on", "time": 41, "note": 68, "velocity": 109, "channel": 0}, {"type": "note_off", "time": 1066, "note": 68, "velocity": 109, "channel": 0}, {"type": "note_on", "time": 62, "note": 70, "velocity": 101, "channel": 0}, {"type": "note_off", "time": 1568, "note": 70, "velocity": 101, "channel": 0}, {"type": "note_on", "time": 104, "note": 74, "velocity": 114, "channel": 0}, {"type": "note_off", "time": 3304, "note": 74, "velocity": 114, "channel": 0}, {"type": "note_on", "time": 104, "note": 72, "velocity": 110, "channel": 0}, {"type": "note_off", "time": 1945, "note": 72, "velocity": 110, "channel": 0}, {"type": "note_on", "time": 209, "note": 74, "velocity": 112, "channel": 0}, {"type": "note_off", "time": 2405, "note": 74, "velocity": 112, "channel": 0}, {"type": "note_on", "time": 292, "note": 72, "velocity": 119, "channel": 0}, {"type": "note_off", "time": 2091, "note": 72, "velocity": 119, "channel": 0}, {"type": "note_on", "time": 209, "note": 70, "velocity": 119, "channel": 0}, {"type": "note_off", "time": 2677, "note": 70, "velocity": 119, "channel": 0}, {"type": "note_on", "time": 146, "note": 67, "velocity": 116, "channel": 0}, {"type": "note_off", "time": 2823, "note": 67, "velocity": 116, "channel": 0}, {"type": "note_on", "time": 292, "note": 62, "velocity": 102, "channel": 0}, {"type": "note_off", "time": 2551, "note": 62, "velocity": 102, "channel": 0}, {"type": "note_on", "time": 167, "note": 58, "velocity": 102, "channel": 0}, {"type": "note_off", "time": 1610, "note": 58, "velocity": 102, "channel": 0}, {"type": "note_on", "time": 104, "note": 65, "velocity": 122, "channel": 0}, {"type": "note_off", "time": 4412, "note": 65, "velocity": 122, "channel": 0}, {"type": "note_on", "time": 65, "note": 70, "velocity": 118, "channel": 0}, {"type": "note_off", "time": 2944, "note": 70, "velocity": 118, "channel": 0}, {"type": "note_on", "time": 178, "note": 65, "velocity": 110, "channel": 0}, {"type": "note_off", "time": 11451, "note": 65, "velocity": 110, "channel": 0}, {"type": "note_on", "time": 33001, "note": 67, "velocity": 86, "channel": 0}, {"type": "note_off", "time": 1505, "note": 67, "velocity": 86, "channel": 0}, {"type": "note_on", "time": 338, "note": 68, "velocity": 123, "channel": 0}, {"type": "note_off", "time": 1814, "note": 68, "velocity": 123, "channel": 0}, {"type": "note_on", "time": 104, "note": 65, "velocity": 115, "channel": 0}, {"type": "note_off", "time": 1621, "note": 65, "velocity": 115, "channel": 0}, {"type": "note_on", "time": 74, "note": 63, "velocity": 104, "channel": 0}, {"type": "note_off", "time": 1115, "note": 63, "velocity": 104, "channel": 0}, {"type": "note_on", "time": 44, "note": 64, "velocity": 110, "channel": 0}, {"type": "note_off", "time": 1695, "note": 64, "velocity": 110, "channel": 0}, {"type": "note_on", "time": 342, "note": 67, "velocity": 117, "channel": 0}, {"type": "note_off", "time": 1175, "note": 67, "velocity": 117, "channel": 0}, {"type": "note_on", "time": 40, "note": 70, "velocity": 116, "channel": 0}, {"type": "note_off", "time": 695, "note": 70, "velocity": 116, "channel": 0}, {"type": "note_on", "time": 65, "note": 73, "velocity": 120, "channel": 0}, {"type": "note_off", "time": 1903, "note": 73, "velocity": 120, "channel": 0}, {"type": "note_on", "time": 55, "note": 72, "velocity": 116, "channel": 0}, {"type": "note_off", "time": 2126, "note": 72, "velocity": 116, "channel": 0}, {"type": "note_on", "time": 10, "note": 71, "velocity": 117, "channel": 0}, {"type": "note_off", "time": 1257, "note": 71, "velocity": 117, "channel": 0}, {"type": "note_on", "time": 40, "note": 72, "velocity": 118, "channel": 0}, {"type": "note_off", "time": 1400, "note": 72, "velocity": 118, "channel": 0}, {"type": "note_on", "time": 20, "note": 74, "velocity": 111, "channel": 0}, {"type": "note_off", "time": 756, "note": 74, "velocity": 111, "channel": 0}, {"type": "note_on", "time": 112, "note": 79, "velocity": 108, "channel": 0}, {"type": "note_off", "time": 2126, "note": 79, "velocity": 108, "channel": 0}, {"type": "note_on", "time": 51, "note": 76, "velocity": 122, "channel": 0}, {"type": "note_off", "time": 2034, "note": 76, "velocity": 122, "channel": 0}, {"type": "note_on", "time": 30, "note": 77, "velocity": 114, "channel": 0}, {"type": "note_off", "time": 1574, "note": 77, "velocity": 114, "channel": 0}, {"type": "note_on", "time": 31024, "note": 84, "velocity": 111, "channel": 0}, {"type": "note_off", "time": 11897, "note": 84, "velocity": 111, "channel": 0}, {"type": "note_on", "time": 15021, "note": 79, "velocity": 119, "channel": 0}, {"type": "note_off", "time": 4967, "note": 79, "velocity": 119, "channel": 0}, {"type": "note_on", "time": 922, "note": 77, "velocity": 116, "channel": 0}, {"type": "note_off", "time": 4223, "note": 77, "velocity": 116, "channel": 0}, {"type": "note_on", "time": 2004, "note": 77, "velocity": 113, "channel": 0}, {"type": "note_off", "time": 12088, "note": 77, "velocity": 113, "channel": 0}, {"type": "note_on", "time": 809, "note": 75, "velocity": 112, "channel": 0}, {"type": "note_off", "time": 3242, "note": 75, "velocity": 112, "channel": 0}, {"type": "note_on", "time": 13432, "note": 74, "velocity": 117, "channel": 0}, {"type": "note_off", "time": 1840, "note": 74, "velocity": 117, "channel": 0}, {"type": "note_on", "time": 62, "note": 76, "velocity": 120, "channel": 0}, {"type": "note_off", "time": 1568, "note": 76, "velocity": 120, "channel": 0}, {"type": "note_on", "time": 83, "note": 74, "velocity": 118, "channel": 0}, {"type": "note_off", "time": 1610, "note": 74, "velocity": 118, "channel": 0}, {"type": "note_on", "time": 146, "note": 72, "velocity": 120, "channel": 0}, {"type": "note_off", "time": 3534, "note": 72, "velocity": 120, "channel": 0}, {"type": "note_on", "time": 1516, "note": 74, "velocity": 114, "channel": 0}, {"type": "note_off", "time": 11957, "note": 74, "velocity": 114, "channel": 0}, {"type": "note_on", "time": 78, "note": 79, "velocity": 108, "channel": 0}, {"type": "note_off", "time": 3283, "note": 79, "velocity": 108, "channel": 0}, {"type": "note_on", "time": 418, "note": 73, "velocity": 114, "channel": 0}, {"type": "note_off", "time": 1903, "note": 73, "velocity": 114, "channel": 0}, {"type": "note_on", "time": 62, "note": 74, "velocity": 114, "channel": 0}, {"type": "note_off", "time": 16229, "note": 74, "velocity": 114, "channel": 0}, {"type": "note_on", "time": 355, "note": 72, "velocity": 114, "channel": 0}, {"type": "note_off", "time": 4580, "note": 72, "velocity": 114, "channel": 0}, {"type": "note_on", "time": 585, "note": 74, "velocity": 115, "channel": 0}, {"type": "note_off", "time": 6546, "note": 74, "velocity": 115, "channel": 0}, {"type": "note_on", "time": 83, "note": 72, "velocity": 116, "channel": 0}, {"type": "note_off", "time": 3346, "note": 72, "velocity": 116, "channel": 0}, {"type": "note_on", "time": 2196, "note": 75, "velocity": 113, "channel": 0}, {"type": "note_off", "time": 13949, "note": 75, "velocity": 113, "channel": 0}, {"type": "note_on", "time": 271, "note": 72, "velocity": 116, "channel": 0}, {"type": "note_off", "time": 3931, "note": 72, "velocity": 116, "channel": 0}, {"type": "note_on", "time": 146, "note": 68, "velocity": 121, "channel": 0}, {"type": "note_off", "time": 4392, "note": 68, "velocity": 121, "channel": 0}, {"type": "note_on", "time": 271, "note": 65, "velocity": 109, "channel": 0}, {"type": "note_off", "time": 2865, "note": 65, "velocity": 109, "channel": 0}, {"type": "note_on", "time": 25669, "note": 73, "velocity": 116, "channel": 0}, {"type": "note_off", "time": 22516, "note": 73, "velocity": 116, "channel": 0}, {"type": "note_on", "time": 59, "note": 74, "velocity": 114, "channel": 0}, {"type": "note_off", "time": 14545, "note": 74, "velocity": 114, "channel": 0}, {"type": "note_on", "time": 148, "note": 72, "velocity": 109, "channel": 0}, {"type": "note_off", "time": 13504, "note": 72, "velocity": 109, "channel": 0}, {"type": "note_on", "time": 14217, "note": 68, "velocity": 123, "channel": 0}, {"type": "note_off", "time": 3390, "note": 68, "velocity": 123, "channel": 0}, {"type": "note_on", "time": 59, "note": 67, "velocity": 121, "channel": 0}, {"type": "note_off", "time": 3212, "note": 67, "velocity": 121, "channel": 0}, {"type": "note_on", "time": 11243, "note": 70, "velocity": 124, "channel": 0}, {"type": "note_off", "time": 1561, "note": 70, "velocity": 124, "channel": 0}, {"type": "note_on", "time": 59, "note": 72, "velocity": 118, "channel": 0}, {"type": "note_off", "time": 1174, "note": 72, "velocity": 118, "channel": 0}, {"type": "note_on", "time": 29, "note": 70, "velocity": 119, "channel": 0}, {"type": "note_off", "time": 803, "note": 70, "velocity": 119, "channel": 0}, {"type": "note_on", "time": 133, "note": 68, "velocity": 122, "channel": 0}, {"type": "note_off", "time": 3405, "note": 68, "velocity": 122, "channel": 0}, {"type": "note_on", "time": 193, "note": 70, "velocity": 120, "channel": 0}, {"type": "note_off", "time": 6930, "note": 70, "velocity": 120, "channel": 0}, {"type": "note_on", "time": 133, "note": 66, "velocity": 109, "channel": 0}, {"type": "note_off", "time": 1591, "note": 66, "velocity": 109, "channel": 0}, {"type": "note_on", "time": 148, "note": 62, "velocity": 101, "channel": 0}, {"type": "note_off", "time": 1293, "note": 62, "velocity": 101, "channel": 0}, {"type": "note_on", "time": 118, "note": 58, "velocity": 109, "channel": 0}, {"type": "note_off", "time": 1412, "note": 58, "velocity": 109, "channel": 0}, {"type": "note_on", "time": 29, "note": 56, "velocity": 107, "channel": 0}, {"type": "note_off", "time": 3271, "note": 56, "velocity": 107, "channel": 0}, {"type": "note_on", "time": 44, "note": 60, "velocity": 107, "channel": 0}, {"type": "note_off", "time": 2513, "note": 60, "velocity": 107, "channel": 0}, {"type": "note_on", "time": 3138, "note": 55, "velocity": 97, "channel": 0}, {"type": "note_off", "time": 1740, "note": 55, "velocity": 97, "channel": 0}, {"type": "note_on", "time": 237, "note": 58, "velocity": 115, "channel": 0}, {"type": "note_off", "time": 4283, "note": 58, "velocity": 115, "channel": 0}, {"type": "note_on", "time": 44, "note": 56, "velocity": 106, "channel": 0}, {"type": "note_off", "time": 2796, "note": 56, "velocity": 106, "channel": 0}, {"type": "note_on", "time": 30208, "note": 60, "velocity": 102, "channel": 0}, {"type": "note_off", "time": 4224, "note": 60, "velocity": 102, "channel": 0}, {"type": "note_on", "time": 711, "note": 63, "velocity": 99, "channel": 0}, {"type": "note_off", "time": 3848, "note": 63, "velocity": 99, "channel": 0}, {"type": "note_on", "time": 585, "note": 68, "velocity": 123, "channel": 0}, {"type": "note_off", "time": 4684, "note": 68, "velocity": 123, "channel": 0}, {"type": "note_on", "time": 8240, "note": 72, "velocity": 120, "channel": 0}, {"type": "note_off", "time": 2697, "note": 72, "velocity": 120, "channel": 0}, {"type": "note_on", "time": 49, "note": 73, "velocity": 118, "channel": 0}, {"type": "note_off", "time": 1264, "note": 73, "velocity": 118, "channel": 0}, {"type": "note_on", "time": 29, "note": 72, "velocity": 117, "channel": 0}, {"type": "note_off", "time": 1055, "note": 72, "velocity": 117, "channel": 0}, {"type": "note_on", "time": 22, "note": 68, "velocity": 122, "channel": 0}, {"type": "note_off", "time": 3316, "note": 68, "velocity": 122, "channel": 0}, {"type": "note_on", "time": 52, "note": 70, "velocity": 123, "channel": 0}, {"type": "note_off", "time": 3584, "note": 70, "velocity": 123, "channel": 0}, {"type": "note_on", "time": 163, "note": 72, "velocity": 117, "channel": 0}, {"type": "note_off", "time": 4684, "note": 72, "velocity": 117, "channel": 0}, {"type": "note_on", "time": 148, "note": 68, "velocity": 118, "channel": 0}, {"type": "note_off", "time": 3896, "note": 68, "velocity": 118, "channel": 0}, {"type": "note_on", "time": 676, "note": 63, "velocity": 100, "channel": 0}, {"type": "note_off", "time": 3584, "note": 63, "velocity": 100, "channel": 0}, {"type": "note_on", "time": 52611, "note": 63, "velocity": 100, "channel": 0}, {"type": "note_off", "time": 2944, "note": 63, "velocity": 100, "channel": 0}, {"type": "note_on", "time": 267, "note": 68, "velocity": 124, "channel": 0}, {"type": "note_off", "time": 4283, "note": 68, "velocity": 124, "channel": 0}, {"type": "note_on", "time": 89, "note": 70, "velocity": 122, "channel": 0}, {"type": "note_off", "time": 4045, "note": 70, "velocity": 122, "channel": 0}, {"type": "note_on", "time": 297, "note": 70, "velocity": 121, "channel": 0}, {"type": "note_off", "time": 3956, "note": 70, "velocity": 121, "channel": 0}, {"type": "note_on", "time": 266, "note": 68, "velocity": 122, "channel": 0}, {"type": "note_off", "time": 1882, "note": 68, "velocity": 122, "channel": 0}, {"type": "note_on", "time": 20, "note": 70, "velocity": 113, "channel": 0}, {"type": "note_off", "time": 564, "note": 70, "velocity": 113, "channel": 0}, {"type": "note_on", "time": 62, "note": 72, "velocity": 118, "channel": 0}, {"type": "note_off", "time": 4789, "note": 72, "velocity": 118, "channel": 0}, {"type": "note_on", "time": 176, "note": 75, "velocity": 110, "channel": 0}, {"type": "note_off", "time": 12641, "note": 75, "velocity": 110, "channel": 0}, {"type": "note_on", "time": 25134, "note": 63, "velocity": 99, "channel": 0}, {"type": "note_off", "time": 3182, "note": 63, "velocity": 99, "channel": 0}, {"type": "note_on", "time": 237, "note": 68, "velocity": 122, "channel": 0}, {"type": "note_off", "time": 4223, "note": 68, "velocity": 122, "channel": 0}, {"type": "note_on", "time": 12314, "note": 63, "velocity": 88, "channel": 0}, {"type": "note_off", "time": 3807, "note": 63, "velocity": 88, "channel": 0}, {"type": "note_on", "time": 446, "note": 68, "velocity": 124, "channel": 0}, {"type": "note_off", "time": 4283, "note": 68, "velocity": 124, "channel": 0}, {"type": "note_on", "time": 208, "note": 70, "velocity": 118, "channel": 0}, {"type": "note_off", "time": 4253, "note": 70, "velocity": 118, "channel": 0}, {"type": "note_on", "time": 416, "note": 70, "velocity": 122, "channel": 0}, {"type": "note_off", "time": 3539, "note": 70, "velocity": 122, "channel": 0}, {"type": "note_on", "time": 148, "note": 72, "velocity": 113, "channel": 0}, {"type": "note_off", "time": 1279, "note": 72, "velocity": 113, "channel": 0}, {"type": "note_on", "time": 44, "note": 70, "velocity": 122, "channel": 0}, {"type": "note_off", "time": 1219, "note": 70, "velocity": 122, "channel": 0}, {"type": "note_on", "time": 104, "note": 68, "velocity": 122, "channel": 0}, {"type": "note_off", "time": 3658, "note": 68, "velocity": 122, "channel": 0}, {"type": "note_on", "time": 401, "note": 70, "velocity": 119, "channel": 0}, {"type": "note_off", "time": 7718, "note": 70, "velocity": 119, "channel": 0}, {"type": "note_on", "time": 104, "note": 72, "velocity": 110, "channel": 0}, {"type": "note_off", "time": 1442, "note": 72, "velocity": 110, "channel": 0}, {"type": "note_on", "time": 44, "note": 70, "velocity": 119, "channel": 0}, {"type": "note_off", "time": 951, "note": 70, "velocity": 119, "channel": 0}, {"type": "note_on", "time": 74, "note": 68, "velocity": 119, "channel": 0}, {"type": "note_off", "time": 2781, "note": 68, "velocity": 119, "channel": 0}, {"type": "note_on", "time": 16567, "note": 68, "velocity": 120, "channel": 0}, {"type": "note_off", "time": 2022, "note": 68, "velocity": 120, "channel": 0}, {"type": "note_on", "time": 163, "note": 71, "velocity": 113, "channel": 0}, {"type": "note_off", "time": 3762, "note": 71, "velocity": 113, "channel": 0}, {"type": "note_on", "time": 44, "note": 75, "velocity": 116, "channel": 0}, {"type": "note_off", "time": 18709, "note": 75, "velocity": 116, "channel": 0}, {"type": "note_on", "time": 2067, "note": 73, "velocity": 119, "channel": 0}, {"type": "note_off", "time": 1323, "note": 73, "velocity": 119, "channel": 0}, {"type": "note_on", "time": 104, "note": 72, "velocity": 117, "channel": 0}, {"type": "note_off", "time": 1606, "note": 72, "velocity": 117, "channel": 0}, {"type": "note_on", "time": 29, "note": 71, "velocity": 120, "channel": 0}, {"type": "note_off", "time": 1546, "note": 71, "velocity": 120, "channel": 0}, {"type": "note_on", "time": 44, "note": 70, "velocity": 119, "channel": 0}, {"type": "note_off", "time": 14366, "note": 70, "velocity": 119, "channel": 0}, {"type": "note_on", "time": 46907, "note": 67, "velocity": 109, "channel": 0}, {"type": "note_off", "time": 2558, "note": 67, "velocity": 109, "channel": 0}, {"type": "note_on", "time": 386, "note": 70, "velocity": 120, "channel": 0}, {"type": "note_off", "time": 4342, "note": 70, "velocity": 120, "channel": 0}, {"type": "note_on", "time": 178, "note": 72, "velocity": 118, "channel": 0}, {"type": "note_off", "time": 4312, "note": 72, "velocity": 118, "channel": 0}, {"type": "note_on", "time": 117, "note": 67, "velocity": 115, "channel": 0}, {"type": "note_off", "time": 2279, "note": 67, "velocity": 115, "channel": 0}, {"type": "note_on", "time": 125, "note": 70, "velocity": 115, "channel": 0}, {"type": "note_off", "time": 15162, "note": 70, "velocity": 115, "channel": 0}, {"type": "note_on", "time": 585, "note": 67, "velocity": 118, "channel": 0}, {"type": "note_off", "time": 5437, "note": 67, "velocity": 118, "channel": 0}, {"type": "note_on", "time": 334, "note": 65, "velocity": 116, "channel": 0}, {"type": "note_off", "time": 6525, "note": 65, "velocity": 116, "channel": 0}, {"type": "note_on", "time": 98, "note": 70, "velocity": 103, "channel": 0}, {"type": "note_off", "time": 11897, "note": 70, "velocity": 103, "channel": 0}, {"type": "note_on", "time": 20964, "note": 62, "velocity": 111, "channel": 0}, {"type": "note_off", "time": 4768, "note": 62, "velocity": 111, "channel": 0}, {"type": "note_on", "time": 418, "note": 63, "velocity": 106, "channel": 0}, {"type": "note_off", "time": 4810, "note": 63, "velocity": 106, "channel": 0}, {"type": "note_on", "time": 14619, "note": 62, "velocity": 97, "channel": 0}, {"type": "note_off", "time": 1338, "note": 62, "velocity": 97, "channel": 0}, {"type": "note_on", "time": 41, "note": 64, "velocity": 108, "channel": 0}, {"type": "note_off", "time": 1819, "note": 64, "velocity": 108, "channel": 0}, {"type": "note_on", "time": 893, "note": 65, "velocity": 121, "channel": 0}, {"type": "note_off", "time": 4208, "note": 65, "velocity": 121, "channel": 0}, {"type": "note_on", "time": 63, "note": 63, "velocity": 98, "channel": 0}, {"type": "note_off", "time": 2907, "note": 63, "velocity": 98, "channel": 0}, {"type": "note_on", "time": 62, "note": 64, "velocity": 91, "channel": 0}, {"type": "note_off", "time": 14974, "note": 64, "velocity": 91, "channel": 0}, {"type": "note_on", "time": 30179, "note": 65, "velocity": 85, "channel": 0}, {"type": "note_off", "time": 4057, "note": 65, "velocity": 85, "channel": 0}, {"type": "note_on", "time": 334, "note": 68, "velocity": 123, "channel": 0}, {"type": "note_off", "time": 5521, "note": 68, "velocity": 123, "channel": 0}, {"type": "note_on", "time": 125, "note": 71, "velocity": 119, "channel": 0}, {"type": "note_off", "time": 752, "note": 71, "velocity": 119, "channel": 0}, {"type": "note_on", "time": 125, "note": 72, "velocity": 113, "channel": 0}, {"type": "note_off", "time": 7947, "note": 72, "velocity": 113, "channel": 0}, {"type": "note_on", "time": 41, "note": 70, "velocity": 114, "channel": 0}, {"type": "note_off", "time": 26895, "note": 70, "velocity": 114, "channel": 0}, {"type": "note_on", "time": 376, "note": 67, "velocity": 109, "channel": 0}, {"type": "note_off", "time": 2216, "note": 67, "velocity": 109, "channel": 0}, {"type": "note_on", "time": 292, "note": 64, "velocity": 107, "channel": 0}, {"type": "note_off", "time": 3011, "note": 64, "velocity": 107, "channel": 0}, {"type": "note_on", "time": 167, "note": 61, "velocity": 104, "channel": 0}, {"type": "note_off", "time": 10080, "note": 61, "velocity": 104, "channel": 0}, {"type": "note_on", "time": 30928, "note": 60, "velocity": 113, "channel": 0}, {"type": "note_off", "time": 4223, "note": 60, "velocity": 113, "channel": 0}, {"type": "note_on", "time": 118, "note": 62, "velocity": 90, "channel": 0}, {"type": "note_off", "time": 3301, "note": 62, "velocity": 90, "channel": 0}, {"type": "note_on", "time": 3123, "note": 67, "velocity": 125, "channel": 0}, {"type": "note_off", "time": 2171, "note": 67, "velocity": 125, "channel": 0}, {"type": "note_on", "time": 89, "note": 68, "velocity": 126, "channel": 0}, {"type": "note_off", "time": 2439, "note": 68, "velocity": 126, "channel": 0}, {"type": "note_on", "time": 29, "note": 67, "velocity": 122, "channel": 0}, {"type": "note_off", "time": 1041, "note": 67, "velocity": 122, "channel": 0}, {"type": "note_on", "time": 44, "note": 65, "velocity": 117, "channel": 0}, {"type": "note_off", "time": 3970, "note": 65, "velocity": 117, "channel": 0}, {"type": "note_on", "time": 1650, "note": 64, "velocity": 99, "channel": 0}, {"type": "note_off", "time": 4149, "note": 64, "velocity": 99, "channel": 0}, {"type": "note_on", "time": 148, "note": 67, "velocity": 122, "channel": 0}, {"type": "note_off", "time": 5443, "note": 67, "velocity": 122, "channel": 0}, {"type": "note_on", "time": 490, "note": 64, "velocity": 98, "channel": 0}, {"type": "note_off", "time": 4208, "note": 64, "velocity": 98, "channel": 0}, {"type": "note_on", "time": 89, "note": 65, "velocity": 122, "channel": 0}, {"type": "note_off", "time": 5859, "note": 65, "velocity": 122, "channel": 0}, {"type": "note_on", "time": 996, "note": 67, "velocity": 116, "channel": 0}, {"type": "note_off", "time": 5458, "note": 67, "velocity": 116, "channel": 0}, {"type": "note_on", "time": 237, "note": 65, "velocity": 115, "channel": 0}, {"type": "note_off", "time": 3286, "note": 65, "velocity": 115, "channel": 0}, {"type": "note_on", "time": 431, "note": 68, "velocity": 124, "channel": 0}, {"type": "note_off", "time": 2796, "note": 68, "velocity": 124, "channel": 0}, {"type": "note_on", "time": 118, "note": 70, "velocity": 117, "channel": 0}, {"type": "note_off", "time": 27781, "note": 70, "velocity": 117, "channel": 0}, {"type": "note_on", "time": 230, "note": 69, "velocity": 116, "channel": 0}, {"type": "note_off", "time": 3931, "note": 69, "velocity": 116, "channel": 0}, {"type": "note_on", "time": 53988, "note": 68, "velocity": 122, "channel": 0}, {"type": "note_off", "time": 3628, "note": 68, "velocity": 122, "channel": 0}, {"type": "note_on", "time": 89, "note": 67, "velocity": 120, "channel": 0}, {"type": "note_off", "time": 1427, "note": 67, "velocity": 120, "channel": 0}, {"type": "note_on", "time": 89, "note": 65, "velocity": 114, "channel": 0}, {"type": "note_off", "time": 2796, "note": 65, "velocity": 114, "channel": 0}, {"type": "note_on", "time": 10762, "note": 66, "velocity": 121, "channel": 0}, {"type": "note_off", "time": 3409, "note": 66, "velocity": 121, "channel": 0}, {"type": "note_on", "time": 0, "note": 65, "velocity": 114, "channel": 0}, {"type": "note_off", "time": 2551, "note": 65, "velocity": 114, "channel": 0}, {"type": "note_on", "time": 125, "note": 63, "velocity": 100, "channel": 0}, {"type": "note_off", "time": 2802, "note": 63, "velocity": 100, "channel": 0}, {"type": "note_on", "time": 3409, "note": 61, "velocity": 114, "channel": 0}, {"type": "note_off", "time": 2112, "note": 61, "velocity": 114, "channel": 0}, {"type": "note_on", "time": 104, "note": 63, "velocity": 103, "channel": 0}, {"type": "note_off", "time": 1087, "note": 63, "velocity": 103, "channel": 0}, {"type": "note_on", "time": 83, "note": 61, "velocity": 110, "channel": 0}, {"type": "note_off", "time": 1003, "note": 61, "velocity": 110, "channel": 0}, {"type": "note_on", "time": 83, "note": 60, "velocity": 110, "channel": 0}, {"type": "note_off", "time": 836, "note": 60, "velocity": 110, "channel": 0}, {"type": "note_on", "time": 83, "note": 58, "velocity": 112, "channel": 0}, {"type": "note_off", "time": 2697, "note": 58, "velocity": 112, "channel": 0}, {"type": "note_on", "time": 83, "note": 57, "velocity": 112, "channel": 0}, {"type": "note_off", "time": 1840, "note": 57, "velocity": 112, "channel": 0}, {"type": "note_on", "time": 230, "note": 56, "velocity": 105, "channel": 0}, {"type": "note_off", "time": 2551, "note": 56, "velocity": 105, "channel": 0}, {"type": "note_on", "time": 104, "note": 60, "velocity": 108, "channel": 0}, {"type": "note_off", "time": 2614, "note": 60, "velocity": 108, "channel": 0}, {"type": "note_on", "time": 104, "note": 55, "velocity": 100, "channel": 0}, {"type": "note_off", "time": 2196, "note": 55, "velocity": 100, "channel": 0}, {"type": "note_on", "time": 167, "note": 53, "velocity": 99, "channel": 0}, {"type": "note_off", "time": 1714, "note": 53, "velocity": 99, "channel": 0}, {"type": "note_on", "time": 334, "note": 58, "velocity": 112, "channel": 0}, {"type": "note_off", "time": 3053, "note": 58, "velocity": 112, "channel": 0}, {"type": "note_on", "time": 146, "note": 55, "velocity": 106, "channel": 0}, {"type": "note_off", "time": 1840, "note": 55, "velocity": 106, "channel": 0}, {"type": "note_on", "time": 83, "note": 56, "velocity": 108, "channel": 0}, {"type": "note_off", "time": 3011, "note": 56, "velocity": 108, "channel": 0}, {"type": "note_on", "time": 83, "note": 58, "velocity": 110, "channel": 0}, {"type": "note_off", "time": 2091, "note": 58, "velocity": 110, "channel": 0}, {"type": "note_on", "time": 209, "note": 61, "velocity": 120, "channel": 0}, {"type": "note_off", "time": 3011, "note": 61, "velocity": 120, "channel": 0}, {"type": "note_on", "time": 104, "note": 59, "velocity": 118, "channel": 0}, {"type": "note_off", "time": 2446, "note": 59, "velocity": 118, "channel": 0}, {"type": "note_on", "time": 62, "note": 58, "velocity": 114, "channel": 0}, {"type": "note_off", "time": 2258, "note": 58, "velocity": 114, "channel": 0}, {"type": "note_on", "time": 83, "note": 56, "velocity": 115, "channel": 0}, {"type": "note_off", "time": 1673, "note": 56, "velocity": 115, "channel": 0}, {"type": "note_on", "time": 41, "note": 55, "velocity": 115, "channel": 0}, {"type": "note_off", "time": 3137, "note": 55, "velocity": 115, "channel": 0}, {"type": "note_on", "time": 376, "note": 60, "velocity": 112, "channel": 0}, {"type": "note_off", "time": 2718, "note": 60, "velocity": 112, "channel": 0}, {"type": "note_on", "time": 167, "note": 53, "velocity": 84, "channel": 0}, {"type": "note_off", "time": 2969, "note": 53, "velocity": 84, "channel": 0}, {"type": "note_on", "time": 83, "note": 60, "velocity": 113, "channel": 0}, {"type": "note_off", "time": 2467, "note": 60, "velocity": 113, "channel": 0}, {"type": "note_on", "time": 688, "note": 51, "velocity": 97, "channel": 0}, {"type": "note_off", "time": 11184, "note": 51, "velocity": 97, "channel": 0}, {"type": "note_on", "time": 31482, "note": 58, "velocity": 116, "channel": 0}, {"type": "note_off", "time": 2718, "note": 58, "velocity": 116, "channel": 0}, {"type": "note_on", "time": 104, "note": 56, "velocity": 103, "channel": 0}, {"type": "note_off", "time": 1714, "note": 56, "velocity": 103, "channel": 0}, {"type": "note_on", "time": 0, "note": 60, "velocity": 100, "channel": 0}, {"type": "note_off", "time": 920, "note": 60, "velocity": 100, "channel": 0}, {"type": "note_on", "time": 0, "note": 63, "velocity": 104, "channel": 0}, {"type": "note_off", "time": 1338, "note": 63, "velocity": 104, "channel": 0}, {"type": "note_on", "time": 355, "note": 65, "velocity": 123, "channel": 0}, {"type": "note_off", "time": 2739, "note": 65, "velocity": 123, "channel": 0}, {"type": "note_on", "time": 1714, "note": 63, "velocity": 111, "channel": 0}, {"type": "note_off", "time": 1798, "note": 63, "velocity": 111, "channel": 0}, {"type": "note_on", "time": 104, "note": 67, "velocity": 122, "channel": 0}, {"type": "note_off", "time": 1526, "note": 67, "velocity": 122, "channel": 0}, {"type": "note_on", "time": 83, "note": 70, "velocity": 115, "channel": 0}, {"type": "note_off", "time": 920, "note": 70, "velocity": 115, "channel": 0}, {"type": "note_on", "time": 167, "note": 74, "velocity": 117, "channel": 0}, {"type": "note_off", "time": 1756, "note": 74, "velocity": 117, "channel": 0}, {"type": "note_on", "time": 104, "note": 70, "velocity": 121, "channel": 0}, {"type": "note_off", "time": 2405, "note": 70, "velocity": 121, "channel": 0}, {"type": "note_on", "time": 18948, "note": 70, "velocity": 105, "channel": 0}, {"type": "note_off", "time": 2007, "note": 70, "velocity": 105, "channel": 0}, {"type": "note_on", "time": 292, "note": 74, "velocity": 119, "channel": 0}, {"type": "note_off", "time": 3848, "note": 74, "velocity": 119, "channel": 0}, {"type": "note_on", "time": 250, "note": 77, "velocity": 120, "channel": 0}, {"type": "note_off", "time": 16229, "note": 77, "velocity": 120, "channel": 0}, {"type": "note_on", "time": 18718, "note": 79, "velocity": 118, "channel": 0}, {"type": "note_off", "time": 3409, "note": 79, "velocity": 118, "channel": 0}, {"type": "note_on", "time": 62, "note": 80, "velocity": 125, "channel": 0}, {"type": "note_off", "time": 15309, "note": 80, "velocity": 125, "channel": 0}, {"type": "note_on", "time": 460, "note": 79, "velocity": 117, "channel": 0}, {"type": "note_off", "time": 4078, "note": 79, "velocity": 117, "channel": 0}, {"type": "note_on", "time": 752, "note": 75, "velocity": 119, "channel": 0}, {"type": "note_off", "time": 5605, "note": 75, "velocity": 119, "channel": 0}, {"type": "note_on", "time": 1409, "note": 75, "velocity": 113, "channel": 0}, {"type": "note_off", "time": 14069, "note": 75, "velocity": 113, "channel": 0}, {"type": "note_on", "time": 33460, "note": 84, "velocity": 117, "channel": 0}, {"type": "note_off", "time": 12715, "note": 84, "velocity": 117, "channel": 0}, {"type": "note_on", "time": 27355, "note": 82, "velocity": 127, "channel": 0}, {"type": "note_off", "time": 14138, "note": 82, "velocity": 127, "channel": 0}, {"type": "note_on", "time": 10498, "note": 80, "velocity": 126, "channel": 0}, {"type": "note_off", "time": 4977, "note": 80, "velocity": 126, "channel": 0}, {"type": "note_on", "time": 0, "note": 77, "velocity": 115, "channel": 0}, {"type": "note_off", "time": 1505, "note": 77, "velocity": 115, "channel": 0}, {"type": "note_on", "time": 167, "note": 78, "velocity": 120, "channel": 0}, {"type": "note_off", "time": 12799, "note": 78, "velocity": 120, "channel": 0}, {"type": "note_on", "time": 606, "note": 75, "velocity": 117, "channel": 0}, {"type": "note_off", "time": 5144, "note": 75, "velocity": 117, "channel": 0}, {"type": "note_on", "time": 188, "note": 72, "velocity": 118, "channel": 0}, {"type": "note_off", "time": 1924, "note": 72, "velocity": 118, "channel": 0}, {"type": "note_on", "time": 418, "note": 73, "velocity": 120, "channel": 0}, {"type": "note_off", "time": 16145, "note": 73, "velocity": 120, "channel": 0}, {"type": "note_on", "time": 9787, "note": 70, "velocity": 113, "channel": 0}, {"type": "note_off", "time": 2593, "note": 70, "velocity": 113, "channel": 0}, {"type": "note_on", "time": 188, "note": 72, "velocity": 121, "channel": 0}, {"type": "note_off", "time": 1192, "note": 72, "velocity": 121, "channel": 0}, {"type": "note_on", "time": 62, "note": 70, "velocity": 124, "channel": 0}, {"type": "note_off", "time": 1443, "note": 70, "velocity": 124, "channel": 0}, {"type": "note_on", "time": 104, "note": 68, "velocity": 124, "channel": 0}, {"type": "note_off", "time": 3827, "note": 68, "velocity": 124, "channel": 0}, {"type": "note_on", "time": 271, "note": 66, "velocity": 123, "channel": 0}, {"type": "note_off", "time": 1631, "note": 66, "velocity": 123, "channel": 0}, {"type": "note_on", "time": 62, "note": 67, "velocity": 125, "channel": 0}, {"type": "note_off", "time": 7194, "note": 67, "velocity": 125, "channel": 0}, {"type": "note_on", "time": 230, "note": 62, "velocity": 101, "channel": 0}, {"type": "note_off", "time": 1484, "note": 62, "velocity": 101, "channel": 0}, {"type": "note_on", "time": 83, "note": 58, "velocity": 107, "channel": 0}, {"type": "note_off", "time": 1422, "note": 58, "velocity": 107, "channel": 0}, {"type": "note_on", "time": 125, "note": 56, "velocity": 118, "channel": 0}, {"type": "note_off", "time": 2154, "note": 56, "velocity": 118, "channel": 0}, {"type": "note_on", "time": 167, "note": 58, "velocity": 116, "channel": 0}, {"type": "note_off", "time": 2530, "note": 58, "velocity": 116, "channel": 0}, {"type": "note_on", "time": 41, "note": 54, "velocity": 89, "channel": 0}, {"type": "note_off", "time": 1192, "note": 54, "velocity": 89, "channel": 0}, {"type": "note_on", "time": 41, "note": 55, "velocity": 103, "channel": 0}, {"type": "note_off", "time": 4392, "note": 55, "velocity": 103, "channel": 0}, {"type": "note_on", "time": 481, "note": 63, "velocity": 102, "channel": 0}, {"type": "note_off", "time": 14054, "note": 63, "velocity": 102, "channel": 0}, {"type": "note_on", "time": 32689, "note": 58, "velocity": 98, "channel": 0}, {"type": "note_off", "time": 2279, "note": 58, "velocity": 98, "channel": 0}, {"type": "note_on", "time": 104, "note": 63, "velocity": 115, "channel": 0}, {"type": "note_off", "time": 7968, "note": 63, "velocity": 115, "channel": 0}, {"type": "note_on", "time": 1652, "note": 61, "velocity": 111, "channel": 0}, {"type": "note_off", "time": 3576, "note": 61, "velocity": 111, "channel": 0}, {"type": "note_on", "time": 104, "note": 63, "velocity": 115, "channel": 0}, {"type": "note_off", "time": 7654, "note": 63, "velocity": 115, "channel": 0}, {"type": "note_on", "time": 292, "note": 58, "velocity": 98, "channel": 0}, {"type": "note_off", "time": 1589, "note": 58, "velocity": 98, "channel": 0}, {"type": "note_on", "time": 146, "note": 61, "velocity": 112, "channel": 0}, {"type": "note_off", "time": 2760, "note": 61, "velocity": 112, "channel": 0}, {"type": "note_on", "time": 62, "note": 63, "velocity": 112, "channel": 0}, {"type": "note_off", "time": 2154, "note": 63, "velocity": 112, "channel": 0}, {"type": "note_on", "time": 8763, "note": 61, "velocity": 113, "channel": 0}, {"type": "note_off", "time": 2677, "note": 61, "velocity": 113, "channel": 0}, {"type": "note_on", "time": 146, "note": 63, "velocity": 107, "channel": 0}, {"type": "note_off", "time": 4433, "note": 63, "velocity": 107, "channel": 0}, {"type": "note_on", "time": 2426, "note": 58, "velocity": 83, "channel": 0}, {"type": "note_off", "time": 2509, "note": 58, "velocity": 83, "channel": 0}, {"type": "note_on", "time": 104, "note": 61, "velocity": 114, "channel": 0}, {"type": "note_off", "time": 2321, "note": 61, "velocity": 114, "channel": 0}, {"type": "note_on", "time": 167, "note": 63, "velocity": 101, "channel": 0}, {"type": "note_off", "time": 3701, "note": 63, "velocity": 101, "channel": 0}, {"type": "note_on", "time": 920, "note": 72, "velocity": 124, "channel": 0}, {"type": "note_off", "time": 3973, "note": 72, "velocity": 124, "channel": 0}, {"type": "note_on", "time": 41, "note": 70, "velocity": 112, "channel": 0}, {"type": "note_off", "time": 2237, "note": 70, "velocity": 112, "channel": 0}, {"type": "note_on", "time": 209, "note": 71, "velocity": 121, "channel": 0}, {"type": "note_off", "time": 1589, "note": 71, "velocity": 121, "channel": 0}, {"type": "note_on", "time": 167, "note": 72, "velocity": 121, "channel": 0}, {"type": "note_off", "time": 6818, "note": 72, "velocity": 121, "channel": 0}, {"type": "note_on", "time": 0, "note": 70, "velocity": 124, "channel": 0}, {"type": "note_off", "time": 3074, "note": 70, "velocity": 124, "channel": 0}, {"type": "note_on", "time": 125, "note": 72, "velocity": 117, "channel": 0}, {"type": "note_off", "time": 3325, "note": 72, "velocity": 117, "channel": 0}, {"type": "note_on", "time": 188, "note": 68, "velocity": 124, "channel": 0}, {"type": "note_off", "time": 4036, "note": 68, "velocity": 124, "channel": 0}, {"type": "note_on", "time": 292, "note": 63, "velocity": 96, "channel": 0}, {"type": "note_off", "time": 3639, "note": 63, "velocity": 96, "channel": 0}, {"type": "note_on", "time": 669, "note": 63, "velocity": 94, "channel": 0}, {"type": "note_off", "time": 11544, "note": 63, "velocity": 94, "channel": 0}, {"type": "end_of_track", "time": 0}]]}