{"ticks_per_beat": 192, "tracks": [[{"type": "track_name", "name": "Melody", "time": 0}, {"type": "set_tempo", "tempo": 273972, "time": 0}, {"type": "key_signature", "key": "Bb", "time": 0}, {"type": "time_signature", "numerator": 4, "denominator": 4, "clocks_per_click": 24, "notated_32nd_notes_per_beat": 8, "time": 0}, {"type": "note_on", "time": 7248, "note": 65, "velocity": 104, "channel": 0}, {"type": "note_off", "time": 97, "note": 65, "velocity": 104, "channel": 0}, {"type": "note_on", "time": 108, "note": 63, "velocity": 109, "channel": 0}, {"type": "note_off", "time": 120, "note": 63, "velocity": 109, "channel": 0}, {"type": "note_on", "time": 24, "note": 58, "velocity": 103, "channel": 0}, {"type": "note_off", "time": 56, "note": 58, "velocity": 103, "channel": 0}, {"type": "note_on", "time": 16, "note": 61, "velocity": 104, "channel": 0}, {"type": "note_off", "time": 164, "note": 61, "velocity": 104, "channel": 0}, {"type": "note_on", "time": 34, "note": 63, "velocity": 114, "channel": 0}, {"type": "note_off", "time": 91, "note": 63, "velocity": 114, "channel": 0}, {"type": "note_on", "time": 132, "note": 58, "velocity": 106, "channel": 0}, {"type": "note_off", "time": 132, "note": 58, "velocity": 106, "channel": 0}, {"type": "note_on", "time": 83, "note": 58, "velocity": 98, "channel": 0}, {"type": "note_off", "time": 337, "note": 58, "velocity": 98, "channel": 0}, {"type": "note_on", "time": 1537, "note": 50, "velocity": 90, "channel": 0}, {"type": "note_off", "time": 111, "note": 50, "velocity": 90, "channel": 0}, {"type": "note_on", "time": 73, "note": 57, "velocity": 113, "channel": 0}, {"type": "note_off", "time": 101, "note": 57, "velocity": 113, "channel": 0}, {"type": "note_on", "time": 20, "note": 60, "velocity": 110, "channel": 0}, {"type": "note_off", "time": 77, "note": 60, "velocity": 110, "channel": 0}, {"type": "note_on", "time": 22, "note": 58, "velocity": 111, "channel": 0}, {"type": "note_off", "time": 91, "note": 58, "velocity": 111, "channel": 0}, {"type": "note_on", "time": 26, "note": 55, "velocity": 103, "channel": 0}, {"type": "note_off", "time": 68, "note": 55, "velocity": 103, "channel": 0}, {"type": "note_on", "time": 118, "note": 58, "velocity": 106, "channel": 0}, {"type": "note_off", "time": 63, "note": 58, "velocity": 106, "channel": 0}, {"type": "note_on", "time": 15, "note": 61, "velocity": 106, "channel": 0}, {"type": "note_off", "time": 198, "note": 61, "velocity": 106, "channel": 0}, {"type": "note_on", "time": 9, "note": 60, "velocity": 112, "channel": 0}, {"type": "note_off", "time": 105, "note": 60, "velocity": 112, "channel": 0}, {"type": "note_on", "time": 11, "note": 58, "velocity": 100, "channel": 0}, {"type": "note_off", "time": 61, "note": 58, "velocity": 100, "channel": 0}, {"type": "note_on", "time": 13, "note": 60, "velocity": 105, "channel": 0}, {"type": "note_off", "time": 268, "note": 60, "velocity": 105, "channel": 0}, {"type": "note_on", "time": 28, "note": 58, "velocity": 109, "channel": 0}, {"type": "note_off", "time": 93, "note": 58, "velocity": 109, "channel": 0}, {"type": "note_on", "time": 16, "note": 56, "velocity": 107, "channel": 0}, {"type": "note_off", "time": 95, "note": 56, "velocity": 107, "channel": 0}, {"type": "note_on", "time": 18, "note": 60, "velocity": 106, "channel": 0}, {"type": "note_off", "time": 88, "note": 60, "velocity": 106, "channel": 0}, {"type": "note_on", "time": 13, "note": 59, "velocity": 101, "channel": 0}, {"type": "note_off", "time": 74, "note": 59, "velocity": 101, "channel": 0}, {"type": "note_on", "time": 22, "note": 57, "velocity": 103, "channel": 0}, {"type": "note_off", "time": 70, "note": 57, "velocity": 103, "channel": 0}, {"type": "note_on", "time": 10, "note": 58, "velocity": 111, "channel": 0}, {"type": "note_off", "time": 110, "note": 58, "velocity": 111, "channel": 0}, {"type": "note_on", "time": 13, "note": 54, "velocity": 102, "channel": 0}, {"type": "note_off", "time": 115, "note": 54, "velocity": 102, "channel": 0}, {"type": "note_on", "time": 9, "note": 55, "velocity": 97, "channel": 0}, {"type": "note_off", "time": 66, "note": 55, "velocity": 97, "channel": 0}, {"type": "note_on", "time": 19, "note": 58, "velocity": 109, "channel": 0}, {"type": "note_off", "time": 48, "note": 58, "velocity": 109, "channel": 0}, {"type": "note_on", "time": 14, "note": 61, "velocity": 107, "channel": 0}, {"type": "note_off", "time": 112, "note": 61, "velocity": 107, "channel": 0}, {"type": "note_on", "time": 48, "note": 56, "velocity": 103, "channel": 0}, {"type": "note_off", "time": 38, "note": 56, "velocity": 103, "channel": 0}, {"type": "note_on", "time": 27, "note": 61, "velocity": 113, "channel": 0}, {"type": "note_off", "time": 95, "note": 61, "velocity": 113, "channel": 0}, {"type": "note_on", "time": 12, "note": 62, "velocity": 114, "channel": 0}, {"type": "note_off", "time": 79, "note": 62, "velocity": 114, "channel": 0}, {"type": "note_on", "time": 12, "note": 58, "velocity": 110, "channel": 0}, {"type": "note_off", "time": 85, "note": 58, "velocity": 110, "channel": 0}, {"type": "note_on", "time": 16, "note": 60, "velocity": 112, "channel": 0}, {"type": "note_off", "time": 84, "note": 60, "velocity": 112, "channel": 0}, {"type": "note_on", "time": 11, "note": 55, "velocity": 107, "channel": 0}, {"type": "note_off", "time": 87, "note": 55, "velocity": 107, "channel": 0}, {"type": "note_on", "time": 15, "note": 58, "velocity": 104, "channel": 0}, {"type": "note_off", "time": 178, "note": 58, "velocity": 104, "channel": 0}, {"type": "note_on", "time": 25, "note": 58, "velocity": 96, "channel": 0}, {"type": "note_off", "time": 57, "note": 58, "velocity": 96, "channel": 0}, {"type": "note_on", "time": 1138, "note": 65, "velocity": 109, "channel": 0}, {"type": "note_off", "time": 64, "note": 65, "velocity": 109, "channel": 0}, {"type": "note_on", "time": 7, "note": 62, "velocity": 108, "channel": 0}, {"type": "note_off", "time": 105, "note": 62, "velocity": 108, "channel": 0}, {"type": "note_on", "time": 10, "note": 60, "velocity": 110, "channel": 0}, {"type": "note_off", "time": 100, "note": 60, "velocity": 110, "channel": 0}, {"type": "note_on", "time": 19, "note": 59, "velocity": 105, "channel": 0}, {"type": "note_off", "time": 96, "note": 59, "velocity": 105, "channel": 0}, {"type": "note_on", "time": 36, "note": 55, "velocity": 102, "channel": 0}, {"type": "note_off", "time": 64, "note": 55, "velocity": 102, "channel": 0}, {"type": "note_on", "time": 207, "note": 60, "velocity": 111, "channel": 0}, {"type": "note_off", "time": 120, "note": 60, "velocity": 111, "channel": 0}, {"type": "note_on", "time": 36, "note": 58, "velocity": 111, "channel": 0}, {"type": "note_off", "time": 75, "note": 58, "velocity": 111, "channel": 0}, {"type": "note_on", "time": 11, "note": 60, "velocity": 108, "channel": 0}, {"type": "note_off", "time": 28, "note": 60, "velocity": 108, "channel": 0}, {"type": "note_on", "time": 8, "note": 58, "velocity": 111, "channel": 0}, {"type": "note_off", "time": 19, "note": 58, "velocity": 111, "channel": 0}, {"type": "note_on", "time": 7, "note": 55, "velocity": 111, "channel": 0}, {"type": "note_off", "time": 77, "note": 55, "velocity": 111, "channel": 0}, {"type": "note_on", "time": 34, "note": 57, "velocity": 115, "channel": 0}, {"type": "note_off", "time": 80, "note": 57, "velocity": 115, "channel": 0}, {"type": "note_on", "time": 11, "note": 53, "velocity": 98, "channel": 0}, {"type": "note_off", "time": 81, "note": 53, "velocity": 98, "channel": 0}, {"type": "note_on", "time": 618, "note": 50, "velocity": 102, "channel": 0}, {"type": "note_off", "time": 90, "note": 50, "velocity": 102, "channel": 0}, {"type": "note_on", "time": 77, "note": 56, "velocity": 114, "channel": 0}, {"type": "note_off", "time": 108, "note": 56, "velocity": 114, "channel": 0}, {"type": "note_on", "time": 7, "note": 58, "velocity": 113, "channel": 0}, {"type": "note_off", "time": 94, "note": 58, "velocity": 113, "channel": 0}, {"type": "note_on", "time": 18, "note": 54, "velocity": 107, "channel": 0}, {"type": "note_off", "time": 89, "note": 54, "velocity": 107, "channel": 0}, {"type": "note_on", "time": 3, "note": 55, "velocity": 107, "channel": 0}, {"type": "note_off", "time": 88, "note": 55, "velocity": 107, "channel": 0}, {"type": "note_on", "time": 3, "note": 60, "velocity": 114, "channel": 0}, {"type": "note_off", "time": 95, "note": 60, "velocity": 114, "channel": 0}, {"type": "note_on", "time": 14, "note": 58, "velocity": 113, "channel": 0}, {"type": "note_off", "time": 83, "note": 58, "velocity": 113, "channel": 0}, {"type": "note_on", "time": 15, "note": 57, "velocity": 108, "channel": 0}, {"type": "note_off", "time": 103, "note": 57, "velocity": 108, "channel": 0}, {"type": "note_on", "time": 14, "note": 60, "velocity": 106, "channel": 0}, {"type": "note_off", "time": 66, "note": 60, "velocity": 106, "channel": 0}, {"type": "note_on", "time": 19, "note": 63, "velocity": 108, "channel": 0}, {"type": "note_off", "time": 136, "note": 63, "velocity": 108, "channel": 0}, {"type": "note_on", "time": 75, "note": 68, "velocity": 108, "channel": 0}, {"type": "note_off", "time": 197, "note": 68, "velocity": 108, "channel": 0}, {"type": "note_on", "time": 9, "note": 67, "velocity": 110, "channel": 0}, {"type": "note_off", "time": 91, "note": 67, "velocity": 110, "channel": 0}, {"type": "note_on", "time": 6, "note": 66, "velocity": 114, "channel": 0}, {"type": "note_off", "time": 92, "note": 66, "velocity": 114, "channel": 0}, {"type": "note_on", "time": 14, "note": 65, "velocity": 112, "channel": 0}, {"type": "note_off", "time": 89, "note": 65, "velocity": 112, "channel": 0}, {"type": "note_on", "time": 12, "note": 62, "velocity": 113, "channel": 0}, {"type": "note_off", "time": 86, "note": 62, "velocity": 113, "channel": 0}, {"type": "note_on", "time": 4, "note": 58, "velocity": 112, "channel": 0}, {"type": "note_off", "time": 100, "note": 58, "velocity": 112, "channel": 0}, {"type": "note_on", "time": 83, "note": 63, "velocity": 112, "channel": 0}, {"type": "note_off", "time": 123, "note": 63, "velocity": 112, "channel": 0}, {"type": "note_on", "time": 67, "note": 58, "velocity": 110, "channel": 0}, {"type": "note_off", "time": 112, "note": 58, "velocity": 110, "channel": 0}, {"type": "note_on", "time": 13, "note": 55, "velocity": 102, "channel": 0}, {"type": "note_off", "time": 57, "note": 55, "velocity": 102, "channel": 0}, {"type": "note_on", "time": 13, "note": 61, "velocity": 106, "channel": 0}, {"type": "note_off", "time": 292, "note": 61, "velocity": 106, "channel": 0}, {"type": "note_on", "time": 33, "note": 58, "velocity": 108, "channel": 0}, {"type": "note_off", "time": 66, "note": 58, "velocity": 108, "channel": 0}, {"type": "note_on", "time": 12, "note": 60, "velocity": 112, "channel": 0}, {"type": "note_off", "time": 25, "note": 60, "velocity": 112, "channel": 0}, {"type": "note_on", "time": 9, "note": 62, "velocity": 117, "channel": 0}, {"type": "note_off", "time": 40, "note": 62, "velocity": 117, "channel": 0}, {"type": "note_on", "time": 7, "note": 60, "velocity": 112, "channel": 0}, {"type": "note_off", "time": 55, "note": 60, "velocity": 112, "channel": 0}, {"type": "note_on", "time": 13, "note": 58, "velocity": 114, "channel": 0}, {"type": "note_off", "time": 29, "note": 58, "velocity": 114, "channel": 0}, {"type": "note_on", "time": 11, "note": 57, "velocity": 113, "channel": 0}, {"type": "note_off", "time": 108, "note": 57, "velocity": 113, "channel": 0}, {"type": "note_on", "time": 15, "note": 58, "velocity": 102, "channel": 0}, {"type": "note_off", "time": 307, "note": 58, "velocity": 102, "channel": 0}, {"type": "note_on", "time": 928, "note": 62, "velocity": 114, "channel": 0}, {"type": "note_off", "time": 110, "note": 62, "velocity": 114, "channel": 0}, {"type": "note_on", "time": 25, "note": 66, "velocity": 102, "channel": 0}, {"type": "note_off", "time": 90, "note": 66, "velocity": 102, "channel": 0}, {"type": "note_on", "time": 598, "note": 60, "velocity": 107, "channel": 0}, {"type": "note_off", "time": 78, "note": 60, "velocity": 107, "channel": 0}, {"type": "note_on", "time": 106, "note": 64, "velocity": 111, "channel": 0}, {"type": "note_off", "time": 117, "note": 64, "velocity": 111, "channel": 0}, {"type": "note_on", "time": 32, "note": 60, "velocity": 102, "channel": 0}, {"type": "note_off", "time": 35, "note": 60, "velocity": 102, "channel": 0}, {"type": "note_on", "time": 17, "note": 62, "velocity": 99, "channel": 0}, {"type": "note_off", "time": 341, "note": 62, "velocity": 99, "channel": 0}, {"type": "note_on", "time": 419, "note": 59, "velocity": 98, "channel": 0}, {"type": "note_off", "time": 97, "note": 59, "velocity": 98, "channel": 0}, {"type": "note_on", "time": 112, "note": 67, "velocity": 114, "channel": 0}, {"type": "note_off", "time": 110, "note": 67, "velocity": 114, "channel": 0}, {"type": "note_on", "time": 31, "note": 62, "velocity": 107, "channel": 0}, {"type": "note_off", "time": 57, "note": 62, "velocity": 107, "channel": 0}, {"type": "note_on", "time": 18, "note": 65, "velocity": 111, "channel": 0}, {"type": "note_off", "time": 88, "note": 65, "velocity": 111, "channel": 0}, {"type": "note_on", "time": 30, "note": 67, "velocity": 111, "channel": 0}, {"type": "note_off", "time": 92, "note": 67, "velocity": 111, "channel": 0}, {"type": "note_on", "time": 973, "note": 64, "velocity": 105, "channel": 0}, {"type": "note_off", "time": 105, "note": 64, "velocity": 105, "channel": 0}, {"type": "note_on", "time": 5, "note": 65, "velocity": 93, "channel": 0}, {"type": "note_off", "time": 49, "note": 65, "velocity": 93, "channel": 0}, {"type": "note_on", "time": 4, "note": 67, "velocity": 110, "channel": 0}, {"type": "note_off", "time": 107, "note": 67, "velocity": 110, "channel": 0}, {"type": "note_on", "time": 7, "note": 69, "velocity": 118, "channel": 0}, {"type": "note_off", "time": 104, "note": 69, "velocity": 118, "channel": 0}, {"type": "note_on", "time": 10, "note": 70, "velocity": 114, "channel": 0}, {"type": "note_off", "time": 133, "note": 70, "velocity": 114, "channel": 0}, {"type": "note_on", "time": 8, "note": 72, "velocity": 98, "channel": 0}, {"type": "note_off", "time": 62, "note": 72, "velocity": 98, "channel": 0}, {"type": "note_on", "time": 9, "note": 74, "velocity": 118, "channel": 0}, {"type": "note_off", "time": 92, "note": 74, "velocity": 118, "channel": 0}, {"type": "note_on", "time": 4, "note": 72, "velocity": 116, "channel": 0}, {"type": "note_off", "time": 81, "note": 72, "velocity": 116, "channel": 0}, {"type": "note_on", "time": 13, "note": 70, "velocity": 117, "channel": 0}, {"type": "note_off", "time": 97, "note": 70, "velocity": 117, "channel": 0}, {"type": "note_on", "time": 6, "note": 67, "velocity": 105, "channel": 0}, {"type": "note_off", "time": 75, "note": 67, "velocity": 105, "channel": 0}, {"type": "note_on", "time": 572, "note": 67, "velocity": 113, "channel": 0}, {"type": "note_off", "time": 99, "note": 67, "velocity": 113, "channel": 0}, {"type": "note_on", "time": 14, "note": 63, "velocity": 110, "channel": 0}, {"type": "note_off", "time": 89, "note": 63, "velocity": 110, "channel": 0}, {"type": "note_on", "time": 10, "note": 60, "velocity": 109, "channel": 0}, {"type": "note_off", "time": 84, "note": 60, "velocity": 109, "channel": 0}, {"type": "note_on", "time": 12, "note": 58, "velocity": 109, "channel": 0}, {"type": "note_off", "time": 89, "note": 58, "velocity": 109, "channel": 0}, {"type": "note_on", "time": 10, "note": 57, "velocity": 112, "channel": 0}, {"type": "note_off", "time": 89, "note": 57, "velocity": 112, "channel": 0}, {"type": "note_on", "time": 118, "note": 65, "velocity": 110, "channel": 0}, {"type": "note_off", "time": 91, "note": 65, "velocity": 110, "channel": 0}, {"type": "note_on", "time": 21, "note": 60, "velocity": 102, "channel": 0}, {"type": "note_off", "time": 61, "note": 60, "velocity": 102, "channel": 0}, {"type": "note_on", "time": 9, "note": 63, "velocity": 110, "channel": 0}, {"type": "note_off", "time": 122, "note": 63, "velocity": 110, "channel": 0}, {"type": "note_on", "time": 13, "note": 65, "velocity": 106, "channel": 0}, {"type": "note_off", "time": 78, "note": 65, "velocity": 106, "channel": 0}, {"type": "note_on", "time": 697, "note": 61, "velocity": 102, "channel": 0}, {"type": "note_off", "time": 134, "note": 61, "velocity": 102, "channel": 0}, {"type": "note_on", "time": 71, "note": 65, "velocity": 92, "channel": 0}, {"type": "note_off", "time": 49, "note": 65, "velocity": 92, "channel": 0}, {"type": "note_on", "time": 25, "note": 70, "velocity": 114, "channel": 0}, {"type": "note_off", "time": 113, "note": 70, "velocity": 114, "channel": 0}, {"type": "note_on", "time": 20, "note": 65, "velocity": 95, "channel": 0}, {"type": "note_off", "time": 81, "note": 65, "velocity": 95, "channel": 0}, {"type": "note_on", "time": 129, "note": 60, "velocity": 108, "channel": 0}, {"type": "note_off", "time": 30, "note": 60, "velocity": 108, "channel": 0}, {"type": "note_on", "time": 13, "note": 63, "velocity": 106, "channel": 0}, {"type": "note_off", "time": 159, "note": 63, "velocity": 106, "channel": 0}, {"type": "note_on", "time": 18, "note": 70, "velocity": 113, "channel": 0}, {"type": "note_off", "time": 225, "note": 70, "velocity": 113, "channel": 0}, {"type": "note_on", "time": 749, "note": 63, "velocity": 103, "channel": 0}, {"type": "note_off", "time": 125, "note": 63, "velocity": 103, "channel": 0}, {"type": "note_on", "time": 64, "note": 70, "velocity": 115, "channel": 0}, {"type": "note_off", "time": 145, "note": 70, "velocity": 115, "channel": 0}, {"type": "note_on", "time": 56, "note": 64, "velocity": 104, "channel": 0}, {"type": "note_off", "time": 176, "note": 64, "velocity": 104, "channel": 0}, {"type": "note_on", "time": 16, "note": 70, "velocity": 111, "channel": 0}, {"type": "note_off", "time": 890, "note": 70, "velocity": 111, "channel": 0}, {"type": "note_on", "time": 90, "note": 68, "velocity": 108, "channel": 0}, {"type": "note_off", "time": 114, "note": 68, "velocity": 108, "channel": 0}, {"type": "note_on", "time": 13, "note": 67, "velocity": 92, "channel": 0}, {"type": "note_off", "time": 72, "note": 67, "velocity": 92, "channel": 0}, {"type": "note_on", "time": 27, "note": 68, "velocity": 106, "channel": 0}, {"type": "note_off", "time": 88, "note": 68, "velocity": 106, "channel": 0}, {"type": "note_on", "time": 18, "note": 67, "velocity": 112, "channel": 0}, {"type": "note_off", "time": 70, "note": 67, "velocity": 112, "channel": 0}, {"type": "note_on", "time": 13, "note": 65, "velocity": 107, "channel": 0}, {"type": "note_off", "time": 74, "note": 65, "velocity": 107, "channel": 0}, {"type": "note_on", "time": 31, "note": 63, "velocity": 108, "channel": 0}, {"type": "note_off", "time": 58, "note": 63, "velocity": 108, "channel": 0}, {"type": "note_on", "time": 12, "note": 60, "velocity": 108, "channel": 0}, {"type": "note_off", "time": 112, "note": 60, "velocity": 108, "channel": 0}, {"type": "note_on", "time": 13, "note": 61, "velocity": 98, "channel": 0}, {"type": "note_off", "time": 60, "note": 61, "velocity": 98, "channel": 0}, {"type": "note_on", "time": 15, "note": 62, "velocity": 111, "channel": 0}, {"type": "note_off", "time": 88, "note": 62, "velocity": 111, "channel": 0}, {"type": "note_on", "time": 7, "note": 58, "velocity": 107, "channel": 0}, {"type": "note_off", "time": 81, "note": 58, "velocity": 107, "channel": 0}, {"type": "note_on", "time": 12, "note": 56, "velocity": 109, "channel": 0}, {"type": "note_off", "time": 92, "note": 56, "velocity": 109, "channel": 0}, {"type": "note_on", "time": 16, "note": 58, "velocity": 101, "channel": 0}, {"type": "note_off", "time": 373, "note": 58, "velocity": 101, "channel": 0}, {"type": "note_on", "time": 1009, "note": 70, "velocity": 117, "channel": 0}, {"type": "note_off", "time": 93, "note": 70, "velocity": 117, "channel": 0}, {"type": "note_on", "time": 10, "note": 74, "velocity": 116, "channel": 0}, {"type": "note_off", "time": 128, "note": 74, "velocity": 116, "channel": 0}, {"type": "note_on", "time": 9, "note": 75, "velocity": 110, "channel": 0}, {"type": "note_off", "time": 47, "note": 75, "velocity": 110, "channel": 0}, {"type": "note_on", "time": 5, "note": 77, "velocity": 118, "channel": 0}, {"type": "note_off", "time": 129, "note": 77, "velocity": 118, "channel": 0}, {"type": "note_on", "time": 15, "note": 79, "velocity": 116, "channel": 0}, {"type": "note_off", "time": 83, "note": 79, "velocity": 116, "channel": 0}, {"type": "note_on", "time": 1235, "note": 73, "velocity": 118, "channel": 0}, {"type": "note_off", "time": 72, "note": 73, "velocity": 118, "channel": 0}, {"type": "note_on", "time": 15, "note": 74, "velocity": 108, "channel": 0}, {"type": "note_off", "time": 98, "note": 74, "velocity": 108, "channel": 0}, {"type": "note_on", "time": 36, "note": 77, "velocity": 102, "channel": 0}, {"type": "note_off", "time": 44, "note": 77, "velocity": 102, "channel": 0}, {"type": "note_on", "time": 14, "note": 80, "velocity": 119, "channel": 0}, {"type": "note_off", "time": 96, "note": 80, "velocity": 119, "channel": 0}, {"type": "note_on", "time": 19, "note": 79, "velocity": 117, "channel": 0}, {"type": "note_off", "time": 79, "note": 79, "velocity": 117, "channel": 0}, {"type": "note_on", "time": 10, "note": 77, "velocity": 114, "channel": 0}, {"type": "note_off", "time": 81, "note": 77, "velocity": 114, "channel": 0}, {"type": "note_on", "time": 18, "note": 75, "velocity": 116, "channel": 0}, {"type": "note_off", "time": 90, "note": 75, "velocity": 116, "channel": 0}, {"type": "note_on", "time": 25, "note": 72, "velocity": 105, "channel": 0}, {"type": "note_off", "time": 57, "note": 72, "velocity": 105, "channel": 0}, {"type": "note_on", "time": 9, "note": 73, "velocity": 106, "channel": 0}, {"type": "note_off", "time": 72, "note": 73, "velocity": 106, "channel": 0}, {"type": "note_on", "time": 22, "note": 74, "velocity": 120, "channel": 0}, {"type": "note_off", "time": 98, "note": 74, "velocity": 120, "channel": 0}, {"type": "note_on", "time": 18, "note": 70, "velocity": 110, "channel": 0}, {"type": "note_off", "time": 74, "note": 70, "velocity": 110, "channel": 0}, {"type": "note_on", "time": 23, "note": 65, "velocity": 103, "channel": 0}, {"type": "note_off", "time": 60, "note": 65, "velocity": 103, "channel": 0}, {"type": "note_on", "time": 14, "note": 64, "velocity": 106, "channel": 0}, {"type": "note_off", "time": 92, "note": 64, "velocity": 106, "channel": 0}, {"type": "note_on", "time": 15, "note": 62, "velocity": 107, "channel": 0}, {"type": "note_off", "time": 29, "note": 62, "velocity": 107, "channel": 0}, {"type": "note_on", "time": 14, "note": 63, "velocity": 104, "channel": 0}, {"type": "note_off", "time": 38, "note": 63, "velocity": 104, "channel": 0}, {"type": "note_on", "time": 18, "note": 67, "velocity": 110, "channel": 0}, {"type": "note_off", "time": 117, "note": 67, "velocity": 110, "channel": 0}, {"type": "note_on", "time": 18, "note": 66, "velocity": 101, "channel": 0}, {"type": "note_off", "time": 96, "note": 66, "velocity": 101, "channel": 0}, {"type": "note_on", "time": 11, "note": 64, "velocity": 100, "channel": 0}, {"type": "note_off", "time": 62, "note": 64, "velocity": 100, "channel": 0}, {"type": "note_on", "time": 9, "note": 65, "velocity": 109, "channel": 0}, {"type": "note_off", "time": 77, "note": 65, "velocity": 109, "channel": 0}, {"type": "note_on", "time": 16, "note": 61, "velocity": 105, "channel": 0}, {"type": "note_off", "time": 80, "note": 61, "velocity": 105, "channel": 0}, {"type": "note_on", "time": 93, "note": 65, "velocity": 105, "channel": 0}, {"type": "note_off", "time": 51, "note": 65, "velocity": 105, "channel": 0}, {"type": "note_on", "time": 29, "note": 70, "velocity": 114, "channel": 0}, {"type": "note_off", "time": 254, "note": 70, "velocity": 114, "channel": 0}, {"type": "note_on", "time": 25, "note": 67, "velocity": 104, "channel": 0}, {"type": "note_off", "time": 42, "note": 67, "velocity": 104, "channel": 0}, {"type": "note_on", "time": 9, "note": 63, "velocity": 104, "channel": 0}, {"type": "note_off", "time": 40, "note": 63, "velocity": 104, "channel": 0}, {"type": "note_on", "time": 4, "note": 60, "velocity": 105, "channel": 0}, {"type": "note_off", "time": 57, "note": 60, "velocity": 105, "channel": 0}, {"type": "note_on", "time": 8, "note": 61, "velocity": 105, "channel": 0}, {"type": "note_off", "time": 92, "note": 61, "velocity": 105, "channel": 0}, {"type": "note_on", "time": 18, "note": 68, "velocity": 103, "channel": 0}, {"type": "note_off", "time": 75, "note": 68, "velocity": 103, "channel": 0}, {"type": "note_on", "time": 704, "note": 65, "velocity": 114, "channel": 0}, {"type": "note_off", "time": 80, "note": 65, "velocity": 114, "channel": 0}, {"type": "note_on", "time": 18, "note": 64, "velocity": 105, "channel": 0}, {"type": "note_off", "time": 210, "note": 64, "velocity": 105, "channel": 0}, {"type": "note_on", "time": 27, "note": 67, "velocity": 108, "channel": 0}, {"type": "note_off", "time": 67, "note": 67, "velocity": 108, "channel": 0}, {"type": "note_on", "time": 15, "note": 63, "velocity": 91, "channel": 0}, {"type": "note_off", "time": 61, "note": 63, "velocity": 91, "channel": 0}, {"type": "note_on", "time": 80, "note": 60, "velocity": 95, "channel": 0}, {"type": "note_off", "time": 39, "note": 60, "velocity": 95, "channel": 0}, {"type": "note_on", "time": 31, "note": 65, "velocity": 113, "channel": 0}, {"type": "note_off", "time": 86, "note": 65, "velocity": 113, "channel": 0}, {"type": "note_on", "time": 27, "note": 62, "velocity": 104, "channel": 0}, {"type": "note_off", "time": 76, "note": 62, "velocity": 104, "channel": 0}, {"type": "note_on", "time": 16, "note": 63, "velocity": 111, "channel": 0}, {"type": "note_off", "time": 76, "note": 63, "velocity": 111, "channel": 0}, {"type": "note_on", "time": 31, "note": 65, "velocity": 112, "channel": 0}, {"type": "note_off", "time": 57, "note": 65, "velocity": 112, "channel": 0}, {"type": "note_on", "time": 27, "note": 61, "velocity": 101, "channel": 0}, {"type": "note_off", "time": 89, "note": 61, "velocity": 101, "channel": 0}, {"type": "note_on", "time": 16, "note": 62, "velocity": 99, "channel": 0}, {"type": "note_off", "time": 58, "note": 62, "velocity": 99, "channel": 0}, {"type": "note_on", "time": 12, "note": 63, "velocity": 111, "channel": 0}, {"type": "note_off", "time": 105, "note": 63, "velocity": 111, "channel": 0}, {"type": "note_on", "time": 22, "note": 61, "velocity": 105, "channel": 0}, {"type": "note_off", "time": 52, "note": 61, "velocity": 105, "channel": 0}, {"type": "note_on", "time": 13, "note": 62, "velocity": 114, "channel": 0}, {"type": "note_off", "time": 96, "note": 62, "velocity": 114, "channel": 0}, {"type": "note_on", "time": 11, "note": 58, "velocity": 114, "channel": 0}, {"type": "note_off", "time": 79, "note": 58, "velocity": 114, "channel": 0}, {"type": "note_on", "time": 13, "note": 53, "velocity": 106, "channel": 0}, {"type": "note_off", "time": 97, "note": 53, "velocity": 106, "channel": 0}, {"type": "note_on", "time": 16, "note": 51, "velocity": 107, "channel": 0}, {"type": "note_off", "time": 342, "note": 51, "velocity": 107, "channel": 0}, {"type": "note_on", "time": 22, "note": 58, "velocity": 112, "channel": 0}, {"type": "note_off", "time": 71, "note": 58, "velocity": 112, "channel": 0}, {"type": "note_on", "time": 20, "note": 51, "velocity": 108, "channel": 0}, {"type": "note_off", "time": 100, "note": 51, "velocity": 108, "channel": 0}, {"type": "note_on", "time": 12, "note": 52, "velocity": 110, "channel": 0}, {"type": "note_off", "time": 183, "note": 52, "velocity": 110, "channel": 0}, {"type": "note_on", "time": 17, "note": 53, "velocity": 109, "channel": 0}, {"type": "note_off", "time": 343, "note": 53, "velocity": 109, "channel": 0}, {"type": "note_on", "time": 609, "note": 53, "velocity": 111, "channel": 0}, {"type": "note_off", "time": 75, "note": 53, "velocity": 111, "channel": 0}, {"type": "note_on", "time": 10, "note": 51, "velocity": 106, "channel": 0}, {"type": "note_off", "time": 104, "note": 51, "velocity": 106, "channel": 0}, {"type": "note_on", "time": 12, "note": 55, "velocity": 106, "channel": 0}, {"type": "note_off", "time": 52, "note": 55, "velocity": 106, "channel": 0}, {"type": "note_on", "time": 16, "note": 58, "velocity": 113, "channel": 0}, {"type": "note_off", "time": 109, "note": 58, "velocity": 113, "channel": 0}, {"type": "note_on", "time": 18, "note": 61, "velocity": 108, "channel": 0}, {"type": "note_off", "time": 94, "note": 61, "velocity": 108, "channel": 0}, {"type": "note_on", "time": 15, "note": 57, "velocity": 113, "channel": 0}, {"type": "note_off", "time": 79, "note": 57, "velocity": 113, "channel": 0}, {"type": "note_on", "time": 30, "note": 60, "velocity": 113, "channel": 0}, {"type": "note_off", "time": 70, "note": 60, "velocity": 113, "channel": 0}, {"type": "note_on", "time": 9, "note": 57, "velocity": 103, "channel": 0}, {"type": "note_off", "time": 57, "note": 57, "velocity": 103, "channel": 0}, {"type": "note_on", "time": 56, "note": 58, "velocity": 105, "channel": 0}, {"type": "note_off", "time": 33, "note": 58, "velocity": 105, "channel": 0}, {"type": "note_on", "time": 29, "note": 62, "velocity": 116, "channel": 0}, {"type": "note_off", "time": 84, "note": 62, "velocity": 116, "channel": 0}, {"type": "note_on", "time": 16, "note": 58, "velocity": 108, "channel": 0}, {"type": "note_off", "time": 69, "note": 58, "velocity": 108, "channel": 0}, {"type": "note_on", "time": 31, "note": 65, "velocity": 115, "channel": 0}, {"type": "note_off", "time": 113, "note": 65, "velocity": 115, "channel": 0}, {"type": "note_on", "time": 5, "note": 62, "velocity": 106, "channel": 0}, {"type": "note_off", "time": 69, "note": 62, "velocity": 106, "channel": 0}, {"type": "note_on", "time": 7, "note": 58, "velocity": 111, "channel": 0}, {"type": "note_off", "time": 73, "note": 58, "velocity": 111, "channel": 0}, {"type": "note_on", "time": 26, "note": 63, "velocity": 105, "channel": 0}, {"type": "note_off", "time": 347, "note": 63, "velocity": 105, "channel": 0}, {"type": "note_on", "time": 107, "note": 61, "velocity": 114, "channel": 0}, {"type": "note_off", "time": 122, "note": 61, "velocity": 114, "channel": 0}, {"type": "note_on", "time": 8, "note": 58, "velocity": 109, "channel": 0}, {"type": "note_off", "time": 62, "note": 58, "velocity": 109, "channel": 0}, {"type": "note_on", "time": 11, "note": 60, "velocity": 116, "channel": 0}, {"type": "note_off", "time": 129, "note": 60, "velocity": 116, "channel": 0}, {"type": "note_on", "time": 73, "note": 58, "velocity": 113, "channel": 0}, {"type": "note_off", "time": 107, "note": 58, "velocity": 113, "channel": 0}, {"type": "note_on", "time": 15, "note": 53, "velocity": 101, "channel": 0}, {"type": "note_off", "time": 42, "note": 53, "velocity": 101, "channel": 0}, {"type": "note_on", "time": 3, "note": 57, "velocity": 109, "channel": 0}, {"type": "note_off", "time": 114, "note": 57, "velocity": 109, "channel": 0}, {"type": "note_on", "time": 12, "note": 58, "velocity": 101, "channel": 0}, {"type": "note_off", "time": 311, "note": 58, "velocity": 101, "channel": 0}, {"type": "note_on", "time": 880, "note": 64, "velocity": 109, "channel": 0}, {"type": "note_off", "time": 64, "note": 64, "velocity": 109, "channel": 0}, {"type": "note_on", "time": 92, "note": 67, "velocity": 110, "channel": 0}, {"type": "note_off", "time": 102, "note": 67, "velocity": 110, "channel": 0}, {"type": "note_on", "time": 557, "note": 66, "velocity": 100, "channel": 0}, {"type": "note_off", "time": 83, "note": 66, "velocity": 100, "channel": 0}, {"type": "note_on", "time": 114, "note": 69, "velocity": 115, "channel": 0}, {"type": "note_off", "time": 126, "note": 69, "velocity": 115, "channel": 0}, {"type": "note_on", "time": 66, "note": 74, "velocity": 118, "channel": 0}, {"type": "note_off", "time": 689, "note": 74, "velocity": 118, "channel": 0}, {"type": "note_on", "time": 97, "note": 71, "velocity": 114, "channel": 0}, {"type": "note_off", "time": 113, "note": 71, "velocity": 114, "channel": 0}, {"type": "note_on", "time": 21, "note": 74, "velocity": 101, "channel": 0}, {"type": "note_off", "time": 41, "note": 74, "velocity": 101, "channel": 0}, {"type": "note_on", "time": 11, "note": 79, "velocity": 120, "channel": 0}, {"type": "note_off", "time": 106, "note": 79, "velocity": 120, "channel": 0}, {"type": "note_on", "time": 9, "note": 78, "velocity": 115, "channel": 0}, {"type": "note_off", "time": 67, "note": 78, "velocity": 115, "channel": 0}, {"type": "note_on", "time": 10, "note": 77, "velocity": 117, "channel": 0}, {"type": "note_off", "time": 118, "note": 77, "velocity": 117, "channel": 0}, {"type": "note_on", "time": 91, "note": 74, "velocity": 118, "channel": 0}, {"type": "note_off", "time": 75, "note": 74, "velocity": 118, "channel": 0}, {"type": "note_on", "time": 2, "note": 75, "velocity": 109, "channel": 0}, {"type": "note_off", "time": 40, "note": 75, "velocity": 109, "channel": 0}, {"type": "note_on", "time": 7, "note": 74, "velocity": 119, "channel": 0}, {"type": "note_off", "time": 50, "note": 74, "velocity": 119, "channel": 0}, {"type": "note_on", "time": 6, "note": 72, "velocity": 113, "channel": 0}, {"type": "note_off", "time": 116, "note": 72, "velocity": 113, "channel": 0}, {"type": "note_on", "time": 14, "note": 71, "velocity": 115, "channel": 0}, {"type": "note_off", "time": 82, "note": 71, "velocity": 115, "channel": 0}, {"type": "note_on", "time": 719, "note": 74, "velocity": 119, "channel": 0}, {"type": "note_off", "time": 104, "note": 74, "velocity": 119, "channel": 0}, {"type": "note_on", "time": 11, "note": 81, "velocity": 104, "channel": 0}, {"type": "note_off", "time": 355, "note": 81, "velocity": 104, "channel": 0}, {"type": "note_on", "time": 274, "note": 79, "velocity": 119, "channel": 0}, {"type": "note_off", "time": 116, "note": 79, "velocity": 119, "channel": 0}, {"type": "note_on", "time": 21, "note": 82, "velocity": 113, "channel": 0}, {"type": "note_off", "time": 339, "note": 82, "velocity": 113, "channel": 0}, {"type": "note_on", "time": 517, "note": 79, "velocity": 117, "channel": 0}, {"type": "note_off", "time": 85, "note": 79, "velocity": 117, "channel": 0}, {"type": "note_on", "time": 2, "note": 81, "velocity": 110, "channel": 0}, {"type": "note_off", "time": 32, "note": 81, "velocity": 110, "channel": 0}, {"type": "note_on", "time": 3, "note": 79, "velocity": 115, "channel": 0}, {"type": "note_off", "time": 43, "note": 79, "velocity": 115, "channel": 0}, {"type": "note_on", "time": 6, "note": 75, "velocity": 107, "channel": 0}, {"type": "note_off", "time": 136, "note": 75, "velocity": 107, "channel": 0}, {"type": "note_on", "time": 11, "note": 77, "velocity": 98, "channel": 0}, {"type": "note_off", "time": 34, "note": 77, "velocity": 98, "channel": 0}, {"type": "note_on", "time": 18, "note": 82, "velocity": 119, "channel": 0}, {"type": "note_off", "time": 111, "note": 82, "velocity": 119, "channel": 0}, {"type": "note_on", "time": 14, "note": 84, "velocity": 116, "channel": 0}, {"type": "note_off", "time": 109, "note": 84, "velocity": 116, "channel": 0}, {"type": "note_on", "time": 859, "note": 84, "velocity": 127, "channel": 0}, {"type": "note_off", "time": 104, "note": 84, "velocity": 127, "channel": 0}, {"type": "note_on", "time": 15, "note": 86, "velocity": 115, "channel": 0}, {"type": "note_off", "time": 996, "note": 86, "velocity": 115, "channel": 0}, {"type": "note_on", "time": 467, "note": 82, "velocity": 119, "channel": 0}, {"type": "note_off", "time": 111, "note": 82, "velocity": 119, "channel": 0}, {"type": "note_on", "time": 10, "note": 80, "velocity": 95, "channel": 0}, {"type": "note_off", "time": 69, "note": 80, "velocity": 95, "channel": 0}, {"type": "note_on", "time": 18, "note": 82, "velocity": 117, "channel": 0}, {"type": "note_off", "time": 94, "note": 82, "velocity": 117, "channel": 0}, {"type": "note_on", "time": 17, "note": 80, "velocity": 115, "channel": 0}, {"type": "note_off", "time": 77, "note": 80, "velocity": 115, "channel": 0}, {"type": "note_on", "time": 8, "note": 77, "velocity": 114, "channel": 0}, {"type": "note_off", "time": 85, "note": 77, "velocity": 114, "channel": 0}, {"type": "note_on", "time": 8, "note": 79, "velocity": 116, "channel": 0}, {"type": "note_off", "time": 47, "note": 79, "velocity": 116, "channel": 0}, {"type": "note_on", "time": 7, "note": 77, "velocity": 107, "channel": 0}, {"type": "note_off", "time": 37, "note": 77, "velocity": 107, "channel": 0}, {"type": "note_on", "time": 6, "note": 76, "velocity": 113, "channel": 0}, {"type": "note_off", "time": 91, "note": 76, "velocity": 113, "channel": 0}, {"type": "note_on", "time": 17, "note": 79, "velocity": 119, "channel": 0}, {"type": "note_off", "time": 69, "note": 79, "velocity": 119, "channel": 0}, {"type": "note_on", "time": 19, "note": 77, "velocity": 118, "channel": 0}, {"type": "note_off", "time": 61, "note": 77, "velocity": 118, "channel": 0}, {"type": "note_on", "time": 6, "note": 76, "velocity": 117, "channel": 0}, {"type": "note_off", "time": 23, "note": 76, "velocity": 117, "channel": 0}, {"type": "note_on", "time": 8, "note": 74, "velocity": 118, "channel": 0}, {"type": "note_off", "time": 93, "note": 74, "velocity": 118, "channel": 0}, {"type": "note_on", "time": 4, "note": 70, "velocity": 111, "channel": 0}, {"type": "note_off", "time": 97, "note": 70, "velocity": 111, "channel": 0}, {"type": "note_on", "time": 16, "note": 68, "velocity": 100, "channel": 0}, {"type": "note_off", "time": 235, "note": 68, "velocity": 100, "channel": 0}, {"type": "note_on", "time": 15, "note": 72, "velocity": 113, "channel": 0}, {"type": "note_off", "time": 121, "note": 72, "velocity": 113, "channel": 0}, {"type": "note_on", "time": 65, "note": 70, "velocity": 115, "channel": 0}, {"type": "note_off", "time": 108, "note": 70, "velocity": 115, "channel": 0}, {"type": "note_on", "time": 24, "note": 66, "velocity": 99, "channel": 0}, {"type": "note_off", "time": 80, "note": 66, "velocity": 99, "channel": 0}, {"type": "note_on", "time": 557, "note": 66, "velocity": 100, "channel": 0}, {"type": "note_off", "time": 132, "note": 66, "velocity": 100, "channel": 0}, {"type": "note_on", "time": 27, "note": 70, "velocity": 119, "channel": 0}, {"type": "note_off", "time": 99, "note": 70, "velocity": 119, "channel": 0}, {"type": "note_on", "time": 12, "note": 72, "velocity": 119, "channel": 0}, {"type": "note_off", "time": 70, "note": 72, "velocity": 119, "channel": 0}, {"type": "note_on", "time": 15, "note": 73, "velocity": 119, "channel": 0}, {"type": "note_off", "time": 133, "note": 73, "velocity": 119, "channel": 0}, {"type": "note_on", "time": 14, "note": 74, "velocity": 113, "channel": 0}, {"type": "note_off", "time": 54, "note": 74, "velocity": 113, "channel": 0}, {"type": "note_on", "time": 9, "note": 75, "velocity": 120, "channel": 0}, {"type": "note_off", "time": 105, "note": 75, "velocity": 120, "channel": 0}, {"type": "note_on", "time": 22, "note": 73, "velocity": 116, "channel": 0}, {"type": "note_off", "time": 84, "note": 73, "velocity": 116, "channel": 0}, {"type": "note_on", "time": 10, "note": 74, "velocity": 119, "channel": 0}, {"type": "note_off", "time": 86, "note": 74, "velocity": 119, "channel": 0}, {"type": "note_on", "time": 44, "note": 70, "velocity": 110, "channel": 0}, {"type": "note_off", "time": 52, "note": 70, "velocity": 110, "channel": 0}, {"type": "note_on", "time": 27, "note": 65, "velocity": 102, "channel": 0}, {"type": "note_off", "time": 70, "note": 65, "velocity": 102, "channel": 0}, {"type": "note_on", "time": 26, "note": 64, "velocity": 103, "channel": 0}, {"type": "note_off", "time": 60, "note": 64, "velocity": 103, "channel": 0}, {"type": "note_on", "time": 93, "note": 67, "velocity": 112, "channel": 0}, {"type": "note_off", "time": 107, "note": 67, "velocity": 112, "channel": 0}, {"type": "note_on", "time": 7, "note": 66, "velocity": 106, "channel": 0}, {"type": "note_off", "time": 69, "note": 66, "velocity": 106, "channel": 0}, {"type": "note_on", "time": 105, "note": 65, "velocity": 108, "channel": 0}, {"type": "note_off", "time": 120, "note": 65, "velocity": 108, "channel": 0}, {"type": "note_on", "time": 230, "note": 70, "velocity": 115, "channel": 0}, {"type": "note_off", "time": 128, "note": 70, "velocity": 115, "channel": 0}, {"type": "note_on", "time": 35, "note": 65, "velocity": 91, "channel": 0}, {"type": "note_off", "time": 47, "note": 65, "velocity": 91, "channel": 0}, {"type": "note_on", "time": 552, "note": 72, "velocity": 116, "channel": 0}, {"type": "note_off", "time": 120, "note": 72, "velocity": 116, "channel": 0}, {"type": "note_on", "time": 16, "note": 69, "velocity": 107, "channel": 0}, {"type": "note_off", "time": 89, "note": 69, "velocity": 107, "channel": 0}, {"type": "note_on", "time": 667, "note": 74, "velocity": 111, "channel": 0}, {"type": "note_off", "time": 32, "note": 74, "velocity": 111, "channel": 0}, {"type": "note_on", "time": 7, "note": 72, "velocity": 111, "channel": 0}, {"type": "note_off", "time": 65, "note": 72, "velocity": 111, "channel": 0}, {"type": "note_on", "time": 11, "note": 71, "velocity": 110, "channel": 0}, {"type": "note_off", "time": 78, "note": 71, "velocity": 110, "channel": 0}, {"type": "note_on", "time": 460, "note": 72, "velocity": 117, "channel": 0}, {"type": "note_off", "time": 107, "note": 72, "velocity": 117, "channel": 0}, {"type": "note_on", "time": 10, "note": 74, "velocity": 117, "channel": 0}, {"type": "note_off", "time": 33, "note": 74, "velocity": 117, "channel": 0}, {"type": "note_on", "time": 9, "note": 72, "velocity": 114, "channel": 0}, {"type": "note_off", "time": 54, "note": 72, "velocity": 114, "channel": 0}, {"type": "note_on", "time": 6, "note": 69, "velocity": 109, "channel": 0}, {"type": "note_off", "time": 84, "note": 69, "velocity": 109, "channel": 0}, {"type": "note_on", "time": 9, "note": 72, "velocity": 101, "channel": 0}, {"type": "note_off", "time": 56, "note": 72, "velocity": 101, "channel": 0}, {"type": "note_on", "time": 8, "note": 75, "velocity": 118, "channel": 0}, {"type": "note_off", "time": 125, "note": 75, "velocity": 118, "channel": 0}, {"type": "note_on", "time": 7, "note": 79, "velocity": 122, "channel": 0}, {"type": "note_off", "time": 91, "note": 79, "velocity": 122, "channel": 0}, {"type": "note_on", "time": 4, "note": 78, "velocity": 118, "channel": 0}, {"type": "note_off", "time": 87, "note": 78, "velocity": 118, "channel": 0}, {"type": "note_on", "time": 46, "note": 76, "velocity": 116, "channel": 0}, {"type": "note_off", "time": 44, "note": 76, "velocity": 116, "channel": 0}, {"type": "note_on", "time": 4, "note": 77, "velocity": 117, "channel": 0}, {"type": "note_off", "time": 70, "note": 77, "velocity": 117, "channel": 0}, {"type": "note_on", "time": 10, "note": 74, "velocity": 120, "channel": 0}, {"type": "note_off", "time": 97, "note": 74, "velocity": 120, "channel": 0}, {"type": "note_on", "time": 3, "note": 70, "velocity": 106, "channel": 0}, {"type": "note_off", "time": 95, "note": 70, "velocity": 106, "channel": 0}, {"type": "note_on", "time": 0, "note": 74, "velocity": 117, "channel": 0}, {"type": "note_off", "time": 82, "note": 74, "velocity": 117, "channel": 0}, {"type": "note_on", "time": 7, "note": 77, "velocity": 119, "channel": 0}, {"type": "note_off", "time": 116, "note": 77, "velocity": 119, "channel": 0}, {"type": "note_on", "time": 5, "note": 74, "velocity": 113, "channel": 0}, {"type": "note_off", "time": 61, "note": 74, "velocity": 113, "channel": 0}, {"type": "note_on", "time": 6, "note": 75, "velocity": 122, "channel": 0}, {"type": "note_off", "time": 106, "note": 75, "velocity": 122, "channel": 0}, {"type": "note_on", "time": 7, "note": 72, "velocity": 115, "channel": 0}, {"type": "note_off", "time": 83, "note": 72, "velocity": 115, "channel": 0}, {"type": "note_on", "time": 8, "note": 70, "velocity": 120, "channel": 0}, {"type": "note_off", "time": 82, "note": 70, "velocity": 120, "channel": 0}, {"type": "note_on", "time": 117, "note": 73, "velocity": 119, "channel": 0}, {"type": "note_off", "time": 74, "note": 73, "velocity": 119, "channel": 0}, {"type": "note_on", "time": 7, "note": 72, "velocity": 117, "channel": 0}, {"type": "note_off", "time": 75, "note": 72, "velocity": 117, "channel": 0}, {"type": "note_on", "time": 7, "note": 70, "velocity": 120, "channel": 0}, {"type": "note_off", "time": 110, "note": 70, "velocity": 120, "channel": 0}, {"type": "note_on", "time": 22, "note": 65, "velocity": 107, "channel": 0}, {"type": "note_off", "time": 42, "note": 65, "velocity": 107, "channel": 0}, {"type": "note_on", "time": 16, "note": 64, "velocity": 96, "channel": 0}, {"type": "note_off", "time": 105, "note": 64, "velocity": 96, "channel": 0}, {"type": "note_on", "time": 16, "note": 62, "velocity": 101, "channel": 0}, {"type": "note_off", "time": 71, "note": 62, "velocity": 101, "channel": 0}, {"type": "note_on", "time": 8, "note": 63, "velocity": 108, "channel": 0}, {"type": "note_off", "time": 90, "note": 63, "velocity": 108, "channel": 0}, {"type": "note_on", "time": 18, "note": 61, "velocity": 107, "channel": 0}, {"type": "note_off", "time": 69, "note": 61, "velocity": 107, "channel": 0}, {"type": "note_on", "time": 14, "note": 62, "velocity": 104, "channel": 0}, {"type": "note_off", "time": 94, "note": 62, "velocity": 104, "channel": 0}, {"type": "note_on", "time": 22, "note": 65, "velocity": 92, "channel": 0}, {"type": "note_off", "time": 34, "note": 65, "velocity": 92, "channel": 0}, {"type": "note_on", "time": 11, "note": 70, "velocity": 111, "channel": 0}, {"type": "note_off", "time": 318, "note": 70, "velocity": 111, "channel": 0}, {"type": "note_on", "time": 7, "note": 65, "velocity": 100, "channel": 0}, {"type": "note_off", "time": 38, "note": 65, "velocity": 100, "channel": 0}, {"type": "note_on", "time": 13, "note": 72, "velocity": 117, "channel": 0}, {"type": "note_off", "time": 112, "note": 72, "velocity": 117, "channel": 0}, {"type": "note_on", "time": 17, "note": 65, "velocity": 95, "channel": 0}, {"type": "note_off", "time": 41, "note": 65, "velocity": 95, "channel": 0}, {"type": "note_on", "time": 1103, "note": 77, "velocity": 109, "channel": 0}, {"type": "note_off", "time": 168, "note": 77, "velocity": 109, "channel": 0}, {"type": "note_on", "time": 25, "note": 82, "velocity": 119, "channel": 0}, {"type": "note_off", "time": 103, "note": 82, "velocity": 119, "channel": 0}, {"type": "note_on", "time": 24, "note": 86, "velocity": 113, "channel": 0}, {"type": "note_off", "time": 563, "note": 86, "velocity": 113, "channel": 0}, {"type": "note_on", "time": 97, "note": 82, "velocity": 114, "channel": 0}, {"type": "note_off", "time": 104, "note": 82, "velocity": 114, "channel": 0}, {"type": "note_on", "time": 20, "note": 77, "velocity": 106, "channel": 0}, {"type": "note_off", "time": 61, "note": 77, "velocity": 106, "channel": 0}, {"type": "note_on", "time": 525, "note": 80, "velocity": 116, "channel": 0}, {"type": "note_off", "time": 107, "note": 80, "velocity": 116, "channel": 0}, {"type": "note_on", "time": 7, "note": 79, "velocity": 117, "channel": 0}, {"type": "note_off", "time": 34, "note": 79, "velocity": 117, "channel": 0}, {"type": "note_on", "time": 10, "note": 78, "velocity": 114, "channel": 0}, {"type": "note_off", "time": 30, "note": 78, "velocity": 114, "channel": 0}, {"type": "note_on", "time": 6, "note": 77, "velocity": 118, "channel": 0}, {"type": "note_off", "time": 493, "note": 77, "velocity": 118, "channel": 0}, {"type": "note_on", "time": 80, "note": 75, "velocity": 121, "channel": 0}, {"type": "note_off", "time": 95, "note": 75, "velocity": 121, "channel": 0}, {"type": "note_on", "time": 8, "note": 77, "velocity": 116, "channel": 0}, {"type": "note_off", "time": 84, "note": 77, "velocity": 116, "channel": 0}, {"type": "note_on", "time": 11, "note": 73, "velocity": 114, "channel": 0}, {"type": "note_off", "time": 90, "note": 73, "velocity": 114, "channel": 0}, {"type": "note_on", "time": 9, "note": 74, "velocity": 117, "channel": 0}, {"type": "note_off", "time": 81, "note": 74, "velocity": 117, "channel": 0}, {"type": "note_on", "time": 10, "note": 70, "velocity": 111, "channel": 0}, {"type": "note_off", "time": 101, "note": 70, "velocity": 111, "channel": 0}, {"type": "note_on", "time": 11, "note": 65, "velocity": 106, "channel": 0}, {"type": "note_off", "time": 46, "note": 65, "velocity": 106, "channel": 0}, {"type": "note_on", "time": 6, "note": 64, "velocity": 102, "channel": 0}, {"type": "note_off", "time": 110, "note": 64, "velocity": 102, "channel": 0}, {"type": "note_on", "time": 30, "note": 62, "velocity": 90, "channel": 0}, {"type": "note_off", "time": 58, "note": 62, "velocity": 90, "channel": 0}, {"type": "note_on", "time": 10, "note": 63, "velocity": 107, "channel": 0}, {"type": "note_off", "time": 84, "note": 63, "velocity": 107, "channel": 0}, {"type": "note_on", "time": 16, "note": 61, "velocity": 108, "channel": 0}, {"type": "note_off", "time": 73, "note": 61, "velocity": 108, "channel": 0}, {"type": "note_on", "time": 9, "note": 62, "velocity": 105, "channel": 0}, {"type": "note_off", "time": 107, "note": 62, "velocity": 105, "channel": 0}, {"type": "note_on", "time": 18, "note": 65, "velocity": 100, "channel": 0}, {"type": "note_off", "time": 29, "note": 65, "velocity": 100, "channel": 0}, {"type": "note_on", "time": 10, "note": 70, "velocity": 116, "channel": 0}, {"type": "note_off", "time": 110, "note": 70, "velocity": 116, "channel": 0}, {"type": "note_on", "time": 11, "note": 72, "velocity": 113, "channel": 0}, {"type": "note_off", "time": 53, "note": 72, "velocity": 113, "channel": 0}, {"type": "note_on", "time": 14, "note": 67, "velocity": 100, "channel": 0}, {"type": "note_off", "time": 67, "note": 67, "velocity": 100, "channel": 0}, {"type": "note_on", "time": 25, "note": 70, "velocity": 104, "channel": 0}, {"type": "note_off", "time": 351, "note": 70, "velocity": 104, "channel": 0}, {"type": "note_on", "time": 601, "note": 74, "velocity": 115, "channel": 0}, {"type": "note_off", "time": 78, "note": 74, "velocity": 115, "channel": 0}, {"type": "note_on", "time": 163, "note": 78, "velocity": 114, "channel": 0}, {"type": "note_off", "time": 123, "note": 78, "velocity": 114, "channel": 0}, {"type": "note_on", "time": 7, "note": 79, "velocity": 118, "channel": 0}, {"type": "note_off", "time": 35, "note": 79, "velocity": 118, "channel": 0}, {"type": "note_on", "time": 3, "note": 80, "velocity": 115, "channel": 0}, {"type": "note_off", "time": 22, "note": 80, "velocity": 115, "channel": 0}, {"type": "note_on", "time": 12, "note": 81, "velocity": 116, "channel": 0}, {"type": "note_off", "time": 94, "note": 81, "velocity": 116, "channel": 0}, {"type": "note_on", "time": 8, "note": 80, "velocity": 114, "channel": 0}, {"type": "note_off", "time": 25, "note": 80, "velocity": 114, "channel": 0}, {"type": "note_on", "time": 8, "note": 79, "velocity": 118, "channel": 0}, {"type": "note_off", "time": 51, "note": 79, "velocity": 118, "channel": 0}, {"type": "note_on", "time": 9, "note": 78, "velocity": 118, "channel": 0}, {"type": "note_off", "time": 84, "note": 78, "velocity": 118, "channel": 0}, {"type": "note_on", "time": 27, "note": 74, "velocity": 108, "channel": 0}, {"type": "note_off", "time": 71, "note": 74, "velocity": 108, "channel": 0}, {"type": "note_on", "time": 704, "note": 79, "velocity": 118, "channel": 0}, {"type": "note_off", "time": 85, "note": 79, "velocity": 118, "channel": 0}, {"type": "note_on", "time": 33, "note": 83, "velocity": 118, "channel": 0}, {"type": "note_off", "time": 105, "note": 83, "velocity": 118, "channel": 0}, {"type": "note_on", "time": 49, "note": 89, "velocity": 117, "channel": 0}, {"type": "note_off", "time": 76, "note": 89, "velocity": 117, "channel": 0}, {"type": "note_on", "time": 196, "note": 85, "velocity": 115, "channel": 0}, {"type": "note_off", "time": 111, "note": 85, "velocity": 115, "channel": 0}, {"type": "note_on", "time": 87, "note": 86, "velocity": 118, "channel": 0}, {"type": "note_off", "time": 109, "note": 86, "velocity": 118, "channel": 0}, {"type": "note_on", "time": 96, "note": 83, "velocity": 115, "channel": 0}, {"type": "note_off", "time": 115, "note": 83, "velocity": 115, "channel": 0}, {"type": "note_on", "time": 90, "note": 79, "velocity": 114, "channel": 0}, {"type": "note_off", "time": 101, "note": 79, "velocity": 114, "channel": 0}, {"type": "note_on", "time": 101, "note": 81, "velocity": 113, "channel": 0}, {"type": "note_off", "time": 63, "note": 81, "velocity": 113, "channel": 0}, {"type": "note_on", "time": 6, "note": 82, "velocity": 110, "channel": 0}, {"type": "note_off", "time": 42, "note": 82, "velocity": 110, "channel": 0}, {"type": "note_on", "time": 6, "note": 81, "velocity": 111, "channel": 0}, {"type": "note_off", "time": 42, "note": 81, "velocity": 111, "channel": 0}, {"type": "note_on", "time": 10, "note": 79, "velocity": 115, "channel": 0}, {"type": "note_off", "time": 87, "note": 79, "velocity": 115, "channel": 0}, {"type": "note_on", "time": 24, "note": 82, "velocity": 112, "channel": 0}, {"type": "note_off", "time": 331, "note": 82, "velocity": 112, "channel": 0}, {"type": "note_on", "time": 467, "note": 78, "velocity": 115, "channel": 0}, {"type": "note_off", "time": 72, "note": 78, "velocity": 115, "channel": 0}, {"type": "note_on", "time": 5, "note": 80, "velocity": 113, "channel": 0}, {"type": "note_off", "time": 88, "note": 80, "velocity": 113, "channel": 0}, {"type": "note_on", "time": 14, "note": 81, "velocity": 116, "channel": 0}, {"type": "note_off", "time": 97, "note": 81, "velocity": 116, "channel": 0}, {"type": "note_on", "time": 4, "note": 80, "velocity": 113, "channel": 0}, {"type": "note_off", "time": 32, "note": 80, "velocity": 113, "channel": 0}, {"type": "note_on", "time": 10, "note": 79, "velocity": 116, "channel": 0}, {"type": "note_off", "time": 56, "note": 79, "velocity": 116, "channel": 0}, {"type": "note_on", "time": 10, "note": 78, "velocity": 113, "channel": 0}, {"type": "note_off", "time": 115, "note": 78, "velocity": 113, "channel": 0}, {"type": "note_on", "time": 3, "note": 79, "velocity": 115, "channel": 0}, {"type": "note_off", "time": 536, "note": 79, "velocity": 115, "channel": 0}, {"type": "note_on", "time": 91, "note": 75, "velocity": 111, "channel": 0}, {"type": "note_off", "time": 51, "note": 75, "velocity": 111, "channel": 0}, {"type": "note_on", "time": 6, "note": 77, "velocity": 108, "channel": 0}, {"type": "note_off", "time": 67, "note": 77, "velocity": 108, "channel": 0}, {"type": "note_on", "time": 10, "note": 75, "velocity": 114, "channel": 0}, {"type": "note_off", "time": 50, "note": 75, "velocity": 114, "channel": 0}, {"type": "note_on", "time": 8, "note": 72, "velocity": 109, "channel": 0}, {"type": "note_off", "time": 100, "note": 72, "velocity": 109, "channel": 0}, {"type": "note_on", "time": 115, "note": 79, "velocity": 116, "channel": 0}, {"type": "note_off", "time": 65, "note": 79, "velocity": 116, "channel": 0}, {"type": "note_on", "time": 7, "note": 82, "velocity": 112, "channel": 0}, {"type": "note_off", "time": 92, "note": 82, "velocity": 112, "channel": 0}, {"type": "note_on", "time": 8, "note": 79, "velocity": 114, "channel": 0}, {"type": "note_off", "time": 110, "note": 79, "velocity": 114, "channel": 0}, {"type": "note_on", "time": 8, "note": 80, "velocity": 94, "channel": 0}, {"type": "note_off", "time": 49, "note": 80, "velocity": 94, "channel": 0}, {"type": "note_on", "time": 12, "note": 81, "velocity": 116, "channel": 0}, {"type": "note_off", "time": 88, "note": 81, "velocity": 116, "channel": 0}, {"type": "note_on", "time": 13, "note": 77, "velocity": 96, "channel": 0}, {"type": "note_off", "time": 67, "note": 77, "velocity": 96, "channel": 0}, {"type": "note_on", "time": 20, "note": 79, "velocity": 118, "channel": 0}, {"type": "note_off", "time": 92, "note": 79, "velocity": 118, "channel": 0}, {"type": "note_on", "time": 8, "note": 75, "velocity": 115, "channel": 0}, {"type": "note_off", "time": 100, "note": 75, "velocity": 115, "channel": 0}, {"type": "note_on", "time": 11, "note": 72, "velocity": 102, "channel": 0}, {"type": "note_off", "time": 71, "note": 72, "velocity": 102, "channel": 0}, {"type": "note_on", "time": 95, "note": 77, "velocity": 117, "channel": 0}, {"type": "note_off", "time": 94, "note": 77, "velocity": 117, "channel": 0}, {"type": "note_on", "time": 5, "note": 75, "velocity": 120, "channel": 0}, {"type": "note_off", "time": 101, "note": 75, "velocity": 120, "channel": 0}, {"type": "note_on", "time": 14, "note": 74, "velocity": 119, "channel": 0}, {"type": "note_off", "time": 76, "note": 74, "velocity": 119, "channel": 0}, {"type": "note_on", "time": 27, "note": 70, "velocity": 107, "channel": 0}, {"type": "note_off", "time": 71, "note": 70, "velocity": 107, "channel": 0}, {"type": "note_on", "time": 20, "note": 65, "velocity": 107, "channel": 0}, {"type": "note_off", "time": 58, "note": 65, "velocity": 107, "channel": 0}, {"type": "note_on", "time": 14, "note": 64, "velocity": 108, "channel": 0}, {"type": "note_off", "time": 63, "note": 64, "velocity": 108, "channel": 0}, {"type": "note_on", "time": 11, "note": 62, "velocity": 108, "channel": 0}, {"type": "note_off", "time": 30, "note": 62, "velocity": 108, "channel": 0}, {"type": "note_on", "time": 21, "note": 63, "velocity": 110, "channel": 0}, {"type": "note_off", "time": 53, "note": 63, "velocity": 110, "channel": 0}, {"type": "note_on", "time": 19, "note": 67, "velocity": 115, "channel": 0}, {"type": "note_off", "time": 91, "note": 67, "velocity": 115, "channel": 0}, {"type": "note_on", "time": 5, "note": 66, "velocity": 107, "channel": 0}, {"type": "note_off", "time": 73, "note": 66, "velocity": 107, "channel": 0}, {"type": "note_on", "time": 22, "note": 64, "velocity": 106, "channel": 0}, {"type": "note_off", "time": 75, "note": 64, "velocity": 106, "channel": 0}, {"type": "note_on", "time": 14, "note": 65, "velocity": 113, "channel": 0}, {"type": "note_off", "time": 91, "note": 65, "velocity": 113, "channel": 0}, {"type": "note_on", "time": 11, "note": 62, "velocity": 111, "channel": 0}, {"type": "note_off", "time": 81, "note": 62, "velocity": 111, "channel": 0}, {"type": "note_on", "time": 13, "note": 63, "velocity": 103, "channel": 0}, {"type": "note_off", "time": 109, "note": 63, "velocity": 103, "channel": 0}, {"type": "note_on", "time": 12, "note": 61, "velocity": 94, "channel": 0}, {"type": "note_off", "time": 45, "note": 61, "velocity": 94, "channel": 0}, {"type": "note_on", "time": 12, "note": 62, "velocity": 104, "channel": 0}, {"type": "note_off", "time": 326, "note": 62, "velocity": 104, "channel": 0}, {"type": "note_on", "time": 27, "note": 70, "velocity": 115, "channel": 0}, {"type": "note_off", "time": 140, "note": 70, "velocity": 115, "channel": 0}, {"type": "note_on", "time": 603, "note": 63, "velocity": 102, "channel": 0}, {"type": "note_off", "time": 122, "note": 63, "velocity": 102, "channel": 0}, {"type": "note_on", "time": 8, "note": 65, "velocity": 90, "channel": 0}, {"type": "note_off", "time": 42, "note": 65, "velocity": 90, "channel": 0}, {"type": "note_on", "time": 19, "note": 70, "velocity": 116, "channel": 0}, {"type": "note_off", "time": 108, "note": 70, "velocity": 116, "channel": 0}, {"type": "note_on", "time": 96, "note": 74, "velocity": 118, "channel": 0}, {"type": "note_off", "time": 567, "note": 74, "velocity": 118, "channel": 0}, {"type": "note_on", "time": 201, "note": 75, "velocity": 117, "channel": 0}, {"type": "note_off", "time": 274, "note": 75, "velocity": 117, "channel": 0}, {"type": "note_on", "time": 39, "note": 72, "velocity": 78, "channel": 0}, {"type": "note_off", "time": 41, "note": 72, "velocity": 78, "channel": 0}, {"type": "note_on", "time": 0, "note": 73, "velocity": 114, "channel": 0}, {"type": "note_off", "time": 125, "note": 73, "velocity": 114, "channel": 0}, {"type": "note_on", "time": 18, "note": 74, "velocity": 117, "channel": 0}, {"type": "note_off", "time": 115, "note": 74, "velocity": 117, "channel": 0}, {"type": "note_on", "time": 47, "note": 70, "velocity": 113, "channel": 0}, {"type": "note_off", "time": 130, "note": 70, "velocity": 113, "channel": 0}, {"type": "note_on", "time": 72, "note": 70, "velocity": 99, "channel": 0}, {"type": "note_off", "time": 355, "note": 70, "velocity": 99, "channel": 0}, {"type": "note_on", "time": 835, "note": 77, "velocity": 117, "channel": 0}, {"type": "note_off", "time": 105, "note": 77, "velocity": 117, "channel": 0}, {"type": "note_on", "time": 5, "note": 79, "velocity": 107, "channel": 0}, {"type": "note_off", "time": 67, "note": 79, "velocity": 107, "channel": 0}, {"type": "note_on", "time": 13, "note": 82, "velocity": 117, "channel": 0}, {"type": "note_off", "time": 96, "note": 82, "velocity": 117, "channel": 0}, {"type": "note_on", "time": 20, "note": 84, "velocity": 118, "channel": 0}, {"type": "note_off", "time": 97, "note": 84, "velocity": 118, "channel": 0}, {"type": "note_on", "time": 15, "note": 86, "velocity": 117, "channel": 0}, {"type": "note_off", "time": 339, "note": 86, "velocity": 117, "channel": 0}, {"type": "note_on", "time": 545, "note": 91, "velocity": 110, "channel": 0}, {"type": "note_off", "time": 315, "note": 91, "velocity": 110, "channel": 0}, {"type": "note_on", "time": 465, "note": 89, "velocity": 115, "channel": 0}, {"type": "note_off", "time": 117, "note": 89, "velocity": 115, "channel": 0}, {"type": "note_on", "time": 266, "note": 87, "velocity": 120, "channel": 0}, {"type": "note_off", "time": 132, "note": 87, "velocity": 120, "channel": 0}, {"type": "note_on", "time": 99, "note": 85, "velocity": 113, "channel": 0}, {"type": "note_off", "time": 819, "note": 85, "velocity": 113, "channel": 0}, {"type": "note_on", "time": 96, "note": 82, "velocity": 115, "channel": 0}, {"type": "note_off", "time": 126, "note": 82, "velocity": 115, "channel": 0}, {"type": "note_on", "time": 21, "note": 80, "velocity": 117, "channel": 0}, {"type": "note_off", "time": 75, "note": 80, "velocity": 117, "channel": 0}, {"type": "note_on", "time": 81, "note": 80, "velocity": 110, "channel": 0}, {"type": "note_off", "time": 277, "note": 80, "velocity": 110, "channel": 0}, {"type": "note_on", "time": 13, "note": 79, "velocity": 121, "channel": 0}, {"type": "note_off", "time": 72, "note": 79, "velocity": 121, "channel": 0}, {"type": "note_on", "time": 25, "note": 78, "velocity": 117, "channel": 0}, {"type": "note_off", "time": 68, "note": 78, "velocity": 117, "channel": 0}, {"type": "note_on", "time": 11, "note": 77, "velocity": 120, "channel": 0}, {"type": "note_off", "time": 74, "note": 77, "velocity": 120, "channel": 0}, {"type": "note_on", "time": 17, "note": 76, "velocity": 122, "channel": 0}, {"type": "note_off", "time": 61, "note": 76, "velocity": 122, "channel": 0}, {"type": "note_on", "time": 24, "note": 75, "velocity": 122, "channel": 0}, {"type": "note_off", "time": 97, "note": 75, "velocity": 122, "channel": 0}, {"type": "note_on", "time": 9, "note": 79, "velocity": 120, "channel": 0}, {"type": "note_off", "time": 82, "note": 79, "velocity": 120, "channel": 0}, {"type": "note_on", "time": 12, "note": 74, "velocity": 118, "channel": 0}, {"type": "note_off", "time": 93, "note": 74, "velocity": 118, "channel": 0}, {"type": "note_on", "time": 4, "note": 72, "velocity": 102, "channel": 0}, {"type": "note_off", "time": 43, "note": 72, "velocity": 102, "channel": 0}, {"type": "note_on", "time": 39, "note": 77, "velocity": 118, "channel": 0}, {"type": "note_off", "time": 88, "note": 77, "velocity": 118, "channel": 0}, {"type": "note_on", "time": 12, "note": 75, "velocity": 123, "channel": 0}, {"type": "note_off", "time": 78, "note": 75, "velocity": 123, "channel": 0}, {"type": "note_on", "time": 21, "note": 74, "velocity": 120, "channel": 0}, {"type": "note_off", "time": 67, "note": 74, "velocity": 120, "channel": 0}, {"type": "note_on", "time": 16, "note": 70, "velocity": 112, "channel": 0}, {"type": "note_off", "time": 78, "note": 70, "velocity": 112, "channel": 0}, {"type": "note_on", "time": 19, "note": 65, "velocity": 108, "channel": 0}, {"type": "note_off", "time": 62, "note": 65, "velocity": 108, "channel": 0}, {"type": "note_on", "time": 22, "note": 64, "velocity": 113, "channel": 0}, {"type": "note_off", "time": 62, "note": 64, "velocity": 113, "channel": 0}, {"type": "note_on", "time": 17, "note": 62, "velocity": 114, "channel": 0}, {"type": "note_off", "time": 34, "note": 62, "velocity": 114, "channel": 0}, {"type": "note_on", "time": 17, "note": 63, "velocity": 112, "channel": 0}, {"type": "note_off", "time": 40, "note": 63, "velocity": 112, "channel": 0}, {"type": "note_on", "time": 23, "note": 67, "velocity": 113, "channel": 0}, {"type": "note_off", "time": 98, "note": 67, "velocity": 113, "channel": 0}, {"type": "note_on", "time": 19, "note": 66, "velocity": 111, "channel": 0}, {"type": "note_off", "time": 67, "note": 66, "velocity": 111, "channel": 0}, {"type": "note_on", "time": 89, "note": 65, "velocity": 115, "channel": 0}, {"type": "note_off", "time": 106, "note": 65, "velocity": 115, "channel": 0}, {"type": "note_on", "time": 84, "note": 63, "velocity": 110, "channel": 0}, {"type": "note_off", "time": 121, "note": 63, "velocity": 110, "channel": 0}, {"type": "note_on", "time": 74, "note": 62, "velocity": 115, "channel": 0}, {"type": "note_off", "time": 103, "note": 62, "velocity": 115, "channel": 0}, {"type": "note_on", "time": 14, "note": 70, "velocity": 115, "channel": 0}, {"type": "note_off", "time": 289, "note": 70, "velocity": 115, "channel": 0}, {"type": "note_on", "time": 495, "note": 70, "velocity": 120, "channel": 0}, {"type": "note_off", "time": 76, "note": 70, "velocity": 120, "channel": 0}, {"type": "note_on", "time": 7, "note": 72, "velocity": 112, "channel": 0}, {"type": "note_off", "time": 44, "note": 72, "velocity": 112, "channel": 0}, {"type": "note_on", "time": 15, "note": 70, "velocity": 119, "channel": 0}, {"type": "note_off", "time": 69, "note": 70, "velocity": 119, "channel": 0}, {"type": "note_on", "time": 9, "note": 68, "velocity": 104, "channel": 0}, {"type": "note_off", "time": 76, "note": 68, "velocity": 104, "channel": 0}, {"type": "note_on", "time": 30, "note": 72, "velocity": 119, "channel": 0}, {"type": "note_off", "time": 118, "note": 72, "velocity": 119, "channel": 0}, {"type": "note_on", "time": 459, "note": 70, "velocity": 116, "channel": 0}, {"type": "note_off", "time": 120, "note": 70, "velocity": 116, "channel": 0}, {"type": "note_on", "time": 13, "note": 74, "velocity": 119, "channel": 0}, {"type": "note_off", "time": 84, "note": 74, "velocity": 119, "channel": 0}, {"type": "note_on", "time": 467, "note": 70, "velocity": 113, "channel": 0}, {"type": "note_off", "time": 66, "note": 70, "velocity": 113, "channel": 0}, {"type": "note_on", "time": 11, "note": 75, "velocity": 122, "channel": 0}, {"type": "note_off", "time": 98, "note": 75, "velocity": 122, "channel": 0}, {"type": "note_on", "time": 23, "note": 79, "velocity": 122, "channel": 0}, {"type": "note_off", "time": 89, "note": 79, "velocity": 122, "channel": 0}, {"type": "note_on", "time": 516, "note": 74, "velocity": 120, "channel": 0}, {"type": "note_off", "time": 133, "note": 74, "velocity": 120, "channel": 0}, {"type": "note_on", "time": 60, "note": 82, "velocity": 116, "channel": 0}, {"type": "note_off", "time": 95, "note": 82, "velocity": 116, "channel": 0}, {"type": "note_on", "time": 41, "note": 75, "velocity": 118, "channel": 0}, {"type": "note_off", "time": 87, "note": 75, "velocity": 118, "channel": 0}, {"type": "note_on", "time": 83, "note": 82, "velocity": 119, "channel": 0}, {"type": "note_off", "time": 100, "note": 82, "velocity": 119, "channel": 0}, {"type": "note_on", "time": 75, "note": 75, "velocity": 120, "channel": 0}, {"type": "note_off", "time": 59, "note": 75, "velocity": 120, "channel": 0}, {"type": "note_on", "time": 6, "note": 76, "velocity": 117, "channel": 0}, {"type": "note_off", "time": 150, "note": 76, "velocity": 117, "channel": 0}, {"type": "note_on", "time": 20, "note": 82, "velocity": 115, "channel": 0}, {"type": "note_off", "time": 479, "note": 82, "velocity": 115, "channel": 0}, {"type": "note_on", "time": 111, "note": 80, "velocity": 109, "channel": 0}, {"type": "note_off", "time": 97, "note": 80, "velocity": 109, "channel": 0}, {"type": "note_on", "time": 9, "note": 81, "velocity": 116, "channel": 0}, {"type": "note_off", "time": 33, "note": 81, "velocity": 116, "channel": 0}, {"type": "note_on", "time": 6, "note": 80, "velocity": 113, "channel": 0}, {"type": "note_off", "time": 49, "note": 80, "velocity": 113, "channel": 0}, {"type": "note_on", "time": 10, "note": 77, "velocity": 120, "channel": 0}, {"type": "note_off", "time": 87, "note": 77, "velocity": 120, "channel": 0}, {"type": "note_on", "time": 20, "note": 75, "velocity": 121, "channel": 0}, {"type": "note_off", "time": 83, "note": 75, "velocity": 121, "channel": 0}, {"type": "note_on", "time": 6, "note": 74, "velocity": 121, "channel": 0}, {"type": "note_off", "time": 91, "note": 74, "velocity": 121, "channel": 0}, {"type": "note_on", "time": 39, "note": 70, "velocity": 108, "channel": 0}, {"type": "note_off", "time": 67, "note": 70, "velocity": 108, "channel": 0}, {"type": "note_on", "time": 61, "note": 70, "velocity": 105, "channel": 0}, {"type": "note_off", "time": 304, "note": 70, "velocity": 105, "channel": 0}, {"type": "note_on", "time": 484, "note": 76, "velocity": 122, "channel": 0}, {"type": "note_off", "time": 52, "note": 76, "velocity": 122, "channel": 0}, {"type": "note_on", "time": 15, "note": 79, "velocity": 120, "channel": 0}, {"type": "note_off", "time": 100, "note": 79, "velocity": 120, "channel": 0}, {"type": "note_on", "time": 15, "note": 76, "velocity": 120, "channel": 0}, {"type": "note_off", "time": 93, "note": 76, "velocity": 120, "channel": 0}, {"type": "note_on", "time": 288, "note": 78, "velocity": 120, "channel": 0}, {"type": "note_off", "time": 40, "note": 78, "velocity": 120, "channel": 0}, {"type": "note_on", "time": 2, "note": 79, "velocity": 119, "channel": 0}, {"type": "note_off", "time": 28, "note": 79, "velocity": 119, "channel": 0}, {"type": "note_on", "time": 8, "note": 81, "velocity": 113, "channel": 0}, {"type": "note_off", "time": 43, "note": 81, "velocity": 113, "channel": 0}, {"type": "note_on", "time": 28, "note": 90, "velocity": 108, "channel": 0}, {"type": "note_off", "time": 82, "note": 90, "velocity": 108, "channel": 0}, {"type": "note_on", "time": 70, "note": 61, "velocity": 95, "channel": 0}, {"type": "note_off", "time": 29, "note": 61, "velocity": 95, "channel": 0}, {"type": "note_on", "time": 7, "note": 59, "velocity": 87, "channel": 0}, {"type": "note_off", "time": 39, "note": 59, "velocity": 87, "channel": 0}, {"type": "note_on", "time": 13, "note": 57, "velocity": 107, "channel": 0}, {"type": "note_off", "time": 83, "note": 57, "velocity": 107, "channel": 0}, {"type": "note_on", "time": 500, "note": 55, "velocity": 114, "channel": 0}, {"type": "note_off", "time": 91, "note": 55, "velocity": 114, "channel": 0}, {"type": "note_on", "time": 13, "note": 57, "velocity": 109, "channel": 0}, {"type": "note_off", "time": 95, "note": 57, "velocity": 109, "channel": 0}, {"type": "note_on", "time": 90, "note": 57, "velocity": 107, "channel": 0}, {"type": "note_off", "time": 32, "note": 57, "velocity": 107, "channel": 0}, {"type": "note_on", "time": 6, "note": 60, "velocity": 103, "channel": 0}, {"type": "note_off", "time": 44, "note": 60, "velocity": 103, "channel": 0}, {"type": "note_on", "time": 18, "note": 62, "velocity": 117, "channel": 0}, {"type": "note_off", "time": 86, "note": 62, "velocity": 117, "channel": 0}, {"type": "note_on", "time": 5, "note": 58, "velocity": 104, "channel": 0}, {"type": "note_off", "time": 136, "note": 58, "velocity": 104, "channel": 0}, {"type": "note_on", "time": 12, "note": 59, "velocity": 101, "channel": 0}, {"type": "note_off", "time": 58, "note": 59, "velocity": 101, "channel": 0}, {"type": "note_on", "time": 10, "note": 62, "velocity": 107, "channel": 0}, {"type": "note_off", "time": 46, "note": 62, "velocity": 107, "channel": 0}, {"type": "note_on", "time": 16, "note": 67, "velocity": 112, "channel": 0}, {"type": "note_off", "time": 640, "note": 67, "velocity": 112, "channel": 0}, {"type": "note_on", "time": 106, "note": 64, "velocity": 104, "channel": 0}, {"type": "note_off", "time": 74, "note": 64, "velocity": 104, "channel": 0}, {"type": "note_on", "time": 5, "note": 67, "velocity": 102, "channel": 0}, {"type": "note_off", "time": 71, "note": 67, "velocity": 102, "channel": 0}, {"type": "note_on", "time": 17, "note": 70, "velocity": 121, "channel": 0}, {"type": "note_off", "time": 97, "note": 70, "velocity": 121, "channel": 0}, {"type": "note_on", "time": 4, "note": 72, "velocity": 117, "channel": 0}, {"type": "note_off", "time": 83, "note": 72, "velocity": 117, "channel": 0}, {"type": "note_on", "time": 9, "note": 74, "velocity": 123, "channel": 0}, {"type": "note_off", "time": 99, "note": 74, "velocity": 123, "channel": 0}, {"type": "note_on", "time": 5, "note": 72, "velocity": 110, "channel": 0}, {"type": "note_off", "time": 74, "note": 72, "velocity": 110, "channel": 0}, {"type": "note_on", "time": 7, "note": 74, "velocity": 118, "channel": 0}, {"type": "note_off", "time": 91, "note": 74, "velocity": 118, "channel": 0}, {"type": "note_on", "time": 2, "note": 72, "velocity": 116, "channel": 0}, {"type": "note_off", "time": 90, "note": 72, "velocity": 116, "channel": 0}, {"type": "note_on", "time": 6, "note": 70, "velocity": 118, "channel": 0}, {"type": "note_off", "time": 103, "note": 70, "velocity": 118, "channel": 0}, {"type": "note_on", "time": 14, "note": 67, "velocity": 111, "channel": 0}, {"type": "note_off", "time": 72, "note": 67, "velocity": 111, "channel": 0}, {"type": "note_on", "time": 535, "note": 63, "velocity": 105, "channel": 0}, {"type": "note_off", "time": 115, "note": 63, "velocity": 105, "channel": 0}, {"type": "note_on", "time": 71, "note": 70, "velocity": 113, "channel": 0}, {"type": "note_off", "time": 126, "note": 70, "velocity": 113, "channel": 0}, {"type": "note_on", "time": 84, "note": 77, "velocity": 119, "channel": 0}, {"type": "note_off", "time": 90, "note": 77, "velocity": 119, "channel": 0}, {"type": "note_on", "time": 15, "note": 74, "velocity": 116, "channel": 0}, {"type": "note_off", "time": 65, "note": 74, "velocity": 116, "channel": 0}, {"type": "note_on", "time": 10, "note": 75, "velocity": 117, "channel": 0}, {"type": "note_off", "time": 93, "note": 75, "velocity": 117, "channel": 0}, {"type": "note_on", "time": 6, "note": 77, "velocity": 90, "channel": 0}, {"type": "note_off", "time": 55, "note": 77, "velocity": 90, "channel": 0}, {"type": "note_on", "time": 10, "note": 80, "velocity": 121, "channel": 0}, {"type": "note_off", "time": 104, "note": 80, "velocity": 121, "channel": 0}, {"type": "note_on", "time": 7, "note": 78, "velocity": 118, "channel": 0}, {"type": "note_off", "time": 79, "note": 78, "velocity": 118, "channel": 0}, {"type": "note_on", "time": 10, "note": 77, "velocity": 116, "channel": 0}, {"type": "note_off", "time": 88, "note": 77, "velocity": 116, "channel": 0}, {"type": "note_on", "time": 5, "note": 75, "velocity": 124, "channel": 0}, {"type": "note_off", "time": 82, "note": 75, "velocity": 124, "channel": 0}, {"type": "note_on", "time": 6, "note": 74, "velocity": 119, "channel": 0}, {"type": "note_off", "time": 93, "note": 74, "velocity": 119, "channel": 0}, {"type": "note_on", "time": 7, "note": 70, "velocity": 105, "channel": 0}, {"type": "note_off", "time": 78, "note": 70, "velocity": 105, "channel": 0}, {"type": "note_on", "time": 359, "note": 74, "velocity": 119, "channel": 0}, {"type": "note_off", "time": 101, "note": 74, "velocity": 119, "channel": 0}, {"type": "note_on", "time": 13, "note": 75, "velocity": 115, "channel": 0}, {"type": "note_off", "time": 85, "note": 75, "velocity": 115, "channel": 0}, {"type": "note_on", "time": 82, "note": 70, "velocity": 107, "channel": 0}, {"type": "note_off", "time": 92, "note": 70, "velocity": 107, "channel": 0}, {"type": "note_on", "time": 551, "note": 76, "velocity": 118, "channel": 0}, {"type": "note_off", "time": 122, "note": 76, "velocity": 118, "channel": 0}, {"type": "note_on", "time": 49, "note": 77, "velocity": 123, "channel": 0}, {"type": "note_off", "time": 128, "note": 77, "velocity": 123, "channel": 0}, {"type": "note_on", "time": 13, "note": 76, "velocity": 107, "channel": 0}, {"type": "note_off", "time": 54, "note": 76, "velocity": 107, "channel": 0}, {"type": "note_on", "time": 6, "note": 77, "velocity": 123, "channel": 0}, {"type": "note_off", "time": 91, "note": 77, "velocity": 123, "channel": 0}, {"type": "note_on", "time": 26, "note": 76, "velocity": 111, "channel": 0}, {"type": "note_off", "time": 104, "note": 76, "velocity": 111, "channel": 0}, {"type": "note_on", "time": 56, "note": 75, "velocity": 110, "channel": 0}, {"type": "note_off", "time": 99, "note": 75, "velocity": 110, "channel": 0}, {"type": "note_on", "time": 85, "note": 77, "velocity": 107, "channel": 0}, {"type": "note_off", "time": 77, "note": 77, "velocity": 107, "channel": 0}, {"type": "note_on", "time": 191, "note": 80, "velocity": 118, "channel": 0}, {"type": "note_off", "time": 81, "note": 80, "velocity": 118, "channel": 0}, {"type": "note_on", "time": 14, "note": 79, "velocity": 101, "channel": 0}, {"type": "note_off", "time": 56, "note": 79, "velocity": 101, "channel": 0}, {"type": "note_on", "time": 20, "note": 80, "velocity": 120, "channel": 0}, {"type": "note_off", "time": 458, "note": 80, "velocity": 120, "channel": 0}, {"type": "note_on", "time": 125, "note": 86, "velocity": 120, "channel": 0}, {"type": "note_off", "time": 98, "note": 86, "velocity": 120, "channel": 0}, {"type": "note_on", "time": 19, "note": 79, "velocity": 111, "channel": 0}, {"type": "note_off", "time": 31, "note": 79, "velocity": 111, "channel": 0}, {"type": "note_on", "time": 3, "note": 77, "velocity": 114, "channel": 0}, {"type": "note_off", "time": 38, "note": 77, "velocity": 114, "channel": 0}, {"type": "note_on", "time": 6, "note": 75, "velocity": 119, "channel": 0}, {"type": "note_off", "time": 90, "note": 75, "velocity": 119, "channel": 0}, {"type": "note_on", "time": 8, "note": 77, "velocity": 113, "channel": 0}, {"type": "note_off", "time": 255, "note": 77, "velocity": 113, "channel": 0}, {"type": "note_on", "time": 7, "note": 75, "velocity": 118, "channel": 0}, {"type": "note_off", "time": 106, "note": 75, "velocity": 118, "channel": 0}, {"type": "note_on", "time": 12, "note": 72, "velocity": 117, "channel": 0}, {"type": "note_off", "time": 34, "note": 72, "velocity": 117, "channel": 0}, {"type": "note_on", "time": 2, "note": 70, "velocity": 119, "channel": 0}, {"type": "note_off", "time": 132, "note": 70, "velocity": 119, "channel": 0}, {"type": "note_on", "time": 5, "note": 68, "velocity": 106, "channel": 0}, {"type": "note_off", "time": 84, "note": 68, "velocity": 106, "channel": 0}, {"type": "note_on", "time": 351, "note": 65, "velocity": 114, "channel": 0}, {"type": "note_off", "time": 60, "note": 65, "velocity": 114, "channel": 0}, {"type": "note_on", "time": 12, "note": 64, "velocity": 112, "channel": 0}, {"type": "note_off", "time": 104, "note": 64, "velocity": 112, "channel": 0}, {"type": "note_on", "time": 13, "note": 63, "velocity": 111, "channel": 0}, {"type": "note_off", "time": 82, "note": 63, "velocity": 111, "channel": 0}, {"type": "note_on", "time": 27, "note": 67, "velocity": 113, "channel": 0}, {"type": "note_off", "time": 74, "note": 67, "velocity": 113, "channel": 0}, {"type": "note_on", "time": 114, "note": 60, "velocity": 105, "channel": 0}, {"type": "note_off", "time": 51, "note": 60, "velocity": 105, "channel": 0}, {"type": "note_on", "time": 23, "note": 65, "velocity": 112, "channel": 0}, {"type": "note_off", "time": 94, "note": 65, "velocity": 112, "channel": 0}, {"type": "note_on", "time": 18, "note": 62, "velocity": 104, "channel": 0}, {"type": "note_off", "time": 71, "note": 62, "velocity": 104, "channel": 0}, {"type": "note_on", "time": 12, "note": 63, "velocity": 98, "channel": 0}, {"type": "note_off", "time": 70, "note": 63, "velocity": 98, "channel": 0}, {"type": "note_on", "time": 14, "note": 65, "velocity": 100, "channel": 0}, {"type": "note_off", "time": 36, "note": 65, "velocity": 100, "channel": 0}, {"type": "note_on", "time": 25, "note": 68, "velocity": 110, "channel": 0}, {"type": "note_off", "time": 110, "note": 68, "velocity": 110, "channel": 0}, {"type": "note_on", "time": 9, "note": 66, "velocity": 117, "channel": 0}, {"type": "note_off", "time": 96, "note": 66, "velocity": 117, "channel": 0}, {"type": "note_on", "time": 11, "note": 65, "velocity": 113, "channel": 0}, {"type": "note_off", "time": 71, "note": 65, "velocity": 113, "channel": 0}, {"type": "note_on", "time": 9, "note": 63, "velocity": 110, "channel": 0}, {"type": "note_off", "time": 73, "note": 63, "velocity": 110, "channel": 0}, {"type": "note_on", "time": 15, "note": 62, "velocity": 118, "channel": 0}, {"type": "note_off", "time": 77, "note": 62, "velocity": 118, "channel": 0}, {"type": "note_on", "time": 37, "note": 70, "velocity": 115, "channel": 0}, {"type": "note_off", "time": 131, "note": 70, "velocity": 115, "channel": 0}, {"type": "end_of_track", "time": 0}]]}