{"ticks_per_beat": 20160, "tracks": [[{"type": "track_name", "name": "Melody", "time": 0}, {"type": "set_tempo", "tempo": 1000000, "time": 0}, {"type": "key_signature", "key": "Eb", "time": 0}, {"type": "time_signature", "numerator": 4, "denominator": 4, "clocks_per_click": 24, "notated_32nd_notes_per_beat": 8, "time": 0}, {"type": "note_on", "time": 112704, "note": 58, "velocity": 109, "channel": 0}, {"type": "note_off", "time": 3373, "note": 58, "velocity": 109, "channel": 0}, {"type": "note_on", "time": 1062, "note": 70, "velocity": 113, "channel": 0}, {"type": "note_off", "time": 9947, "note": 70, "velocity": 113, "channel": 0}, {"type": "note_on", "time": 6670, "note": 58, "velocity": 99, "channel": 0}, {"type": "note_off", "time": 3510, "note": 58, "velocity": 99, "channel": 0}, {"type": "note_on", "time": 1170, "note": 70, "velocity": 111, "channel": 0}, {"type": "note_off", "time": 11819, "note": 70, "velocity": 111, "channel": 0}, {"type": "note_on", "time": 2457, "note": 68, "velocity": 114, "channel": 0}, {"type": "note_off", "time": 3042, "note": 68, "velocity": 114, "channel": 0}, {"type": "note_on", "time": 702, "note": 72, "velocity": 112, "channel": 0}, {"type": "note_off", "time": 3978, "note": 72, "velocity": 112, "channel": 0}, {"type": "note_on", "time": 811, "note": 68, "velocity": 109, "channel": 0}, {"type": "note_off", "time": 6253, "note": 68, "velocity": 109, "channel": 0}, {"type": "note_on", "time": 329, "note": 68, "velocity": 101, "channel": 0}, {"type": "note_off", "time": 11931, "note": 68, "velocity": 101, "channel": 0}, {"type": "note_on", "time": 34230, "note": 70, "velocity": 117, "channel": 0}, {"type": "note_off", "time": 2468, "note": 70, "velocity": 117, "channel": 0}, {"type": "note_on", "time": 493, "note": 72, "velocity": 113, "channel": 0}, {"type": "note_off", "time": 1398, "note": 72, "velocity": 113, "channel": 0}, {"type": "note_on", "time": 164, "note": 70, "velocity": 118, "channel": 0}, {"type": "note_off", "time": 1727, "note": 70, "velocity": 118, "channel": 0}, {"type": "note_on", "time": 164, "note": 68, "velocity": 123, "channel": 0}, {"type": "note_off", "time": 3456, "note": 68, "velocity": 123, "channel": 0}, {"type": "note_on", "time": 781, "note": 72, "velocity": 113, "channel": 0}, {"type": "note_off", "time": 1892, "note": 72, "velocity": 113, "channel": 0}, {"type": "note_on", "time": 32022, "note": 63, "velocity": 103, "channel": 0}, {"type": "note_off", "time": 2808, "note": 63, "velocity": 103, "channel": 0}, {"type": "note_on", "time": 819, "note": 68, "velocity": 122, "channel": 0}, {"type": "note_off", "time": 3861, "note": 68, "velocity": 122, "channel": 0}, {"type": "note_on", "time": 351, "note": 72, "velocity": 113, "channel": 0}, {"type": "note_off", "time": 4037, "note": 72, "velocity": 113, "channel": 0}, {"type": "note_on", "time": 585, "note": 68, "velocity": 119, "channel": 0}, {"type": "note_off", "time": 4037, "note": 68, "velocity": 119, "channel": 0}, {"type": "note_on", "time": 8835, "note": 63, "velocity": 112, "channel": 0}, {"type": "note_off", "time": 3276, "note": 63, "velocity": 112, "channel": 0}, {"type": "note_on", "time": 526, "note": 63, "velocity": 115, "channel": 0}, {"type": "note_off", "time": 2750, "note": 63, "velocity": 115, "channel": 0}, {"type": "note_on", "time": 877, "note": 68, "velocity": 119, "channel": 0}, {"type": "note_off", "time": 4154, "note": 68, "velocity": 119, "channel": 0}, {"type": "note_on", "time": 877, "note": 68, "velocity": 119, "channel": 0}, {"type": "note_off", "time": 2750, "note": 68, "velocity": 119, "channel": 0}, {"type": "note_on", "time": 585, "note": 68, "velocity": 121, "channel": 0}, {"type": "note_off", "time": 1755, "note": 68, "velocity": 121, "channel": 0}, {"type": "note_on", "time": 877, "note": 70, "velocity": 114, "channel": 0}, {"type": "note_off", "time": 4505, "note": 70, "velocity": 114, "channel": 0}, {"type": "note_on", "time": 409, "note": 72, "velocity": 116, "channel": 0}, {"type": "note_off", "time": 4915, "note": 72, "velocity": 116, "channel": 0}, {"type": "note_on", "time": 11995, "note": 63, "velocity": 111, "channel": 0}, {"type": "note_off", "time": 3159, "note": 63, "velocity": 111, "channel": 0}, {"type": "note_on", "time": 10883, "note": 63, "velocity": 93, "channel": 0}, {"type": "note_off", "time": 2516, "note": 63, "velocity": 93, "channel": 0}, {"type": "note_on", "time": 643, "note": 68, "velocity": 119, "channel": 0}, {"type": "note_off", "time": 3510, "note": 68, "velocity": 119, "channel": 0}, {"type": "note_on", "time": 351, "note": 68, "velocity": 119, "channel": 0}, {"type": "note_off", "time": 2633, "note": 68, "velocity": 119, "channel": 0}, {"type": "note_on", "time": 380, "note": 68, "velocity": 116, "channel": 0}, {"type": "note_off", "time": 1287, "note": 68, "velocity": 116, "channel": 0}, {"type": "note_on", "time": 568, "note": 70, "velocity": 117, "channel": 0}, {"type": "note_off", "time": 4690, "note": 70, "velocity": 117, "channel": 0}, {"type": "note_on", "time": 592, "note": 71, "velocity": 121, "channel": 0}, {"type": "note_off", "time": 4710, "note": 71, "velocity": 121, "channel": 0}, {"type": "note_on", "time": 8603, "note": 70, "velocity": 114, "channel": 0}, {"type": "note_off", "time": 1810, "note": 70, "velocity": 114, "channel": 0}, {"type": "note_on", "time": 329, "note": 68, "velocity": 119, "channel": 0}, {"type": "note_off", "time": 3044, "note": 68, "velocity": 119, "channel": 0}, {"type": "note_on", "time": 1851, "note": 70, "velocity": 115, "channel": 0}, {"type": "note_off", "time": 9257, "note": 70, "velocity": 115, "channel": 0}, {"type": "note_on", "time": 123, "note": 72, "velocity": 113, "channel": 0}, {"type": "note_off", "time": 1316, "note": 72, "velocity": 113, "channel": 0}, {"type": "note_on", "time": 164, "note": 70, "velocity": 117, "channel": 0}, {"type": "note_off", "time": 1563, "note": 70, "velocity": 117, "channel": 0}, {"type": "note_on", "time": 123, "note": 68, "velocity": 120, "channel": 0}, {"type": "note_off", "time": 3126, "note": 68, "velocity": 120, "channel": 0}, {"type": "note_on", "time": 23040, "note": 68, "velocity": 113, "channel": 0}, {"type": "note_off", "time": 2386, "note": 68, "velocity": 113, "channel": 0}, {"type": "note_on", "time": 82, "note": 70, "velocity": 118, "channel": 0}, {"type": "note_off", "time": 1851, "note": 70, "velocity": 118, "channel": 0}, {"type": "note_on", "time": 82, "note": 73, "velocity": 116, "channel": 0}, {"type": "note_off", "time": 2550, "note": 73, "velocity": 116, "channel": 0}, {"type": "note_on", "time": 205, "note": 70, "velocity": 114, "channel": 0}, {"type": "note_off", "time": 12795, "note": 70, "velocity": 114, "channel": 0}, {"type": "note_on", "time": 288, "note": 68, "velocity": 120, "channel": 0}, {"type": "note_off", "time": 3826, "note": 68, "velocity": 120, "channel": 0}, {"type": "note_on", "time": 205, "note": 66, "velocity": 114, "channel": 0}, {"type": "note_off", "time": 3661, "note": 66, "velocity": 114, "channel": 0}, {"type": "note_on", "time": 205, "note": 63, "velocity": 101, "channel": 0}, {"type": "note_off", "time": 3455, "note": 63, "velocity": 101, "channel": 0}, {"type": "note_on", "time": 329, "note": 58, "velocity": 108, "channel": 0}, {"type": "note_off", "time": 3826, "note": 58, "velocity": 108, "channel": 0}, {"type": "note_on", "time": 452, "note": 56, "velocity": 109, "channel": 0}, {"type": "note_off", "time": 3456, "note": 56, "velocity": 109, "channel": 0}, {"type": "note_on", "time": 1110, "note": 63, "velocity": 103, "channel": 0}, {"type": "note_off", "time": 14194, "note": 63, "velocity": 103, "channel": 0}, {"type": "note_on", "time": 1563, "note": 56, "velocity": 116, "channel": 0}, {"type": "note_off", "time": 2879, "note": 56, "velocity": 116, "channel": 0}, {"type": "note_on", "time": 370, "note": 63, "velocity": 101, "channel": 0}, {"type": "note_off", "time": 3949, "note": 63, "velocity": 101, "channel": 0}, {"type": "note_on", "time": 534, "note": 55, "velocity": 90, "channel": 0}, {"type": "note_off", "time": 25755, "note": 55, "velocity": 90, "channel": 0}, {"type": "note_on", "time": 37110, "note": 58, "velocity": 102, "channel": 0}, {"type": "note_off", "time": 1686, "note": 58, "velocity": 102, "channel": 0}, {"type": "note_on", "time": 452, "note": 60, "velocity": 107, "channel": 0}, {"type": "note_off", "time": 1440, "note": 60, "velocity": 107, "channel": 0}, {"type": "note_on", "time": 246, "note": 62, "velocity": 103, "channel": 0}, {"type": "note_off", "time": 1522, "note": 62, "velocity": 103, "channel": 0}, {"type": "note_on", "time": 699, "note": 65, "velocity": 118, "channel": 0}, {"type": "note_off", "time": 2345, "note": 65, "velocity": 118, "channel": 0}, {"type": "note_on", "time": 329, "note": 62, "velocity": 98, "channel": 0}, {"type": "note_off", "time": 1275, "note": 62, "velocity": 98, "channel": 0}, {"type": "note_on", "time": 164, "note": 63, "velocity": 98, "channel": 0}, {"type": "note_off", "time": 1398, "note": 63, "velocity": 98, "channel": 0}, {"type": "note_on", "time": 41, "note": 67, "velocity": 104, "channel": 0}, {"type": "note_off", "time": 3620, "note": 67, "velocity": 104, "channel": 0}, {"type": "note_on", "time": 12754, "note": 66, "velocity": 80, "channel": 0}, {"type": "note_off", "time": 1645, "note": 66, "velocity": 80, "channel": 0}, {"type": "note_on", "time": 329, "note": 68, "velocity": 118, "channel": 0}, {"type": "note_off", "time": 2057, "note": 68, "velocity": 118, "channel": 0}, {"type": "note_on", "time": 82, "note": 67, "velocity": 117, "channel": 0}, {"type": "note_off", "time": 1258, "note": 67, "velocity": 117, "channel": 0}, {"type": "note_on", "time": 29, "note": 66, "velocity": 113, "channel": 0}, {"type": "note_off", "time": 1170, "note": 66, "velocity": 113, "channel": 0}, {"type": "note_on", "time": 204, "note": 67, "velocity": 112, "channel": 0}, {"type": "note_off", "time": 906, "note": 67, "velocity": 112, "channel": 0}, {"type": "note_on", "time": 146, "note": 74, "velocity": 110, "channel": 0}, {"type": "note_off", "time": 1784, "note": 74, "velocity": 110, "channel": 0}, {"type": "note_on", "time": 671, "note": 67, "velocity": 118, "channel": 0}, {"type": "note_off", "time": 3702, "note": 67, "velocity": 118, "channel": 0}, {"type": "note_on", "time": 15169, "note": 68, "velocity": 120, "channel": 0}, {"type": "note_off", "time": 1616, "note": 68, "velocity": 120, "channel": 0}, {"type": "note_on", "time": 0, "note": 67, "velocity": 113, "channel": 0}, {"type": "note_off", "time": 748, "note": 67, "velocity": 113, "channel": 0}, {"type": "note_on", "time": 0, "note": 65, "velocity": 103, "channel": 0}, {"type": "note_off", "time": 854, "note": 65, "velocity": 103, "channel": 0}, {"type": "note_on", "time": 925, "note": 64, "velocity": 106, "channel": 0}, {"type": "note_off", "time": 1508, "note": 64, "velocity": 106, "channel": 0}, {"type": "note_on", "time": 65, "note": 67, "velocity": 113, "channel": 0}, {"type": "note_off", "time": 1506, "note": 67, "velocity": 113, "channel": 0}, {"type": "note_on", "time": 43, "note": 70, "velocity": 113, "channel": 0}, {"type": "note_off", "time": 599, "note": 70, "velocity": 113, "channel": 0}, {"type": "note_on", "time": 41, "note": 73, "velocity": 118, "channel": 0}, {"type": "note_off", "time": 1707, "note": 73, "velocity": 118, "channel": 0}, {"type": "note_on", "time": 138, "note": 72, "velocity": 113, "channel": 0}, {"type": "note_off", "time": 1813, "note": 72, "velocity": 113, "channel": 0}, {"type": "note_on", "time": 131, "note": 71, "velocity": 115, "channel": 0}, {"type": "note_off", "time": 1228, "note": 71, "velocity": 115, "channel": 0}, {"type": "note_on", "time": 73, "note": 72, "velocity": 116, "channel": 0}, {"type": "note_off", "time": 1682, "note": 72, "velocity": 116, "channel": 0}, {"type": "note_on", "time": 33, "note": 78, "velocity": 111, "channel": 0}, {"type": "note_off", "time": 2427, "note": 78, "velocity": 111, "channel": 0}, {"type": "note_on", "time": 61, "note": 77, "velocity": 118, "channel": 0}, {"type": "note_off", "time": 1337, "note": 77, "velocity": 118, "channel": 0}, {"type": "note_on", "time": 82, "note": 76, "velocity": 119, "channel": 0}, {"type": "note_off", "time": 3229, "note": 76, "velocity": 119, "channel": 0}, {"type": "note_on", "time": 31433, "note": 65, "velocity": 95, "channel": 0}, {"type": "note_off", "time": 3456, "note": 65, "velocity": 95, "channel": 0}, {"type": "note_on", "time": 9133, "note": 65, "velocity": 119, "channel": 0}, {"type": "note_off", "time": 3126, "note": 65, "velocity": 119, "channel": 0}, {"type": "note_on", "time": 389, "note": 68, "velocity": 121, "channel": 0}, {"type": "note_off", "time": 3657, "note": 68, "velocity": 121, "channel": 0}, {"type": "note_on", "time": 234, "note": 72, "velocity": 116, "channel": 0}, {"type": "note_off", "time": 12375, "note": 72, "velocity": 116, "channel": 0}, {"type": "note_on", "time": 212, "note": 67, "velocity": 113, "channel": 0}, {"type": "note_off", "time": 1645, "note": 67, "velocity": 113, "channel": 0}, {"type": "note_on", "time": 82, "note": 70, "velocity": 105, "channel": 0}, {"type": "note_off", "time": 27668, "note": 70, "velocity": 105, "channel": 0}, {"type": "note_on", "time": 534, "note": 67, "velocity": 112, "channel": 0}, {"type": "note_off", "time": 3003, "note": 67, "velocity": 112, "channel": 0}, {"type": "note_on", "time": 185, "note": 68, "velocity": 113, "channel": 0}, {"type": "note_off", "time": 4998, "note": 68, "velocity": 113, "channel": 0}, {"type": "note_on", "time": 61, "note": 65, "velocity": 110, "channel": 0}, {"type": "note_off", "time": 5513, "note": 65, "velocity": 110, "channel": 0}, {"type": "note_on", "time": 781, "note": 65, "velocity": 96, "channel": 0}, {"type": "note_off", "time": 13001, "note": 65, "velocity": 96, "channel": 0}, {"type": "note_on", "time": 26434, "note": 59, "velocity": 114, "channel": 0}, {"type": "note_off", "time": 1254, "note": 59, "velocity": 114, "channel": 0}, {"type": "note_on", "time": 82, "note": 60, "velocity": 114, "channel": 0}, {"type": "note_off", "time": 6336, "note": 60, "velocity": 114, "channel": 0}, {"type": "note_on", "time": 49, "note": 62, "velocity": 94, "channel": 0}, {"type": "note_off", "time": 1699, "note": 62, "velocity": 94, "channel": 0}, {"type": "note_on", "time": 63, "note": 60, "velocity": 106, "channel": 0}, {"type": "note_off", "time": 2252, "note": 60, "velocity": 106, "channel": 0}, {"type": "note_on", "time": 58, "note": 59, "velocity": 106, "channel": 0}, {"type": "note_off", "time": 1696, "note": 59, "velocity": 106, "channel": 0}, {"type": "note_on", "time": 21, "note": 60, "velocity": 100, "channel": 0}, {"type": "note_off", "time": 2324, "note": 60, "velocity": 100, "channel": 0}, {"type": "note_on", "time": 7570, "note": 59, "velocity": 109, "channel": 0}, {"type": "note_off", "time": 1296, "note": 59, "velocity": 109, "channel": 0}, {"type": "note_on", "time": 164, "note": 60, "velocity": 109, "channel": 0}, {"type": "note_off", "time": 2859, "note": 60, "velocity": 109, "channel": 0}, {"type": "note_on", "time": 494, "note": 67, "velocity": 121, "channel": 0}, {"type": "note_off", "time": 4286, "note": 67, "velocity": 121, "channel": 0}, {"type": "note_on", "time": 102, "note": 65, "velocity": 111, "channel": 0}, {"type": "note_off", "time": 4432, "note": 65, "velocity": 111, "channel": 0}, {"type": "note_on", "time": 424, "note": 64, "velocity": 96, "channel": 0}, {"type": "note_off", "time": 4081, "note": 64, "velocity": 96, "channel": 0}, {"type": "note_on", "time": 764, "note": 65, "velocity": 103, "channel": 0}, {"type": "note_off", "time": 4114, "note": 65, "velocity": 103, "channel": 0}, {"type": "note_on", "time": 1974, "note": 69, "velocity": 113, "channel": 0}, {"type": "note_off", "time": 2304, "note": 69, "velocity": 113, "channel": 0}, {"type": "note_on", "time": 164, "note": 70, "velocity": 112, "channel": 0}, {"type": "note_off", "time": 22793, "note": 70, "velocity": 112, "channel": 0}, {"type": "note_on", "time": 257, "note": 69, "velocity": 111, "channel": 0}, {"type": "note_off", "time": 4300, "note": 69, "velocity": 111, "channel": 0}, {"type": "note_on", "time": 3715, "note": 68, "velocity": 102, "channel": 0}, {"type": "note_off", "time": 18285, "note": 68, "velocity": 102, "channel": 0}, {"type": "note_on", "time": 40914, "note": 66, "velocity": 115, "channel": 0}, {"type": "note_off", "time": 6006, "note": 66, "velocity": 115, "channel": 0}, {"type": "note_on", "time": 270, "note": 65, "velocity": 96, "channel": 0}, {"type": "note_off", "time": 1579, "note": 65, "velocity": 96, "channel": 0}, {"type": "note_on", "time": 13536, "note": 66, "velocity": 112, "channel": 0}, {"type": "note_off", "time": 4608, "note": 66, "velocity": 112, "channel": 0}, {"type": "note_on", "time": 288, "note": 65, "velocity": 111, "channel": 0}, {"type": "note_off", "time": 4710, "note": 65, "velocity": 111, "channel": 0}, {"type": "note_on", "time": 226, "note": 63, "velocity": 97, "channel": 0}, {"type": "note_off", "time": 3209, "note": 63, "velocity": 97, "channel": 0}, {"type": "note_on", "time": 4114, "note": 70, "velocity": 118, "channel": 0}, {"type": "note_off", "time": 2159, "note": 70, "velocity": 118, "channel": 0}, {"type": "note_on", "time": 82, "note": 72, "velocity": 111, "channel": 0}, {"type": "note_off", "time": 1275, "note": 72, "velocity": 111, "channel": 0}, {"type": "note_on", "time": 102, "note": 70, "velocity": 118, "channel": 0}, {"type": "note_off", "time": 2530, "note": 70, "velocity": 118, "channel": 0}, {"type": "note_on", "time": 144, "note": 68, "velocity": 119, "channel": 0}, {"type": "note_off", "time": 10964, "note": 68, "velocity": 119, "channel": 0}, {"type": "note_on", "time": 720, "note": 70, "velocity": 113, "channel": 0}, {"type": "note_off", "time": 3826, "note": 70, "velocity": 113, "channel": 0}, {"type": "note_on", "time": 390, "note": 68, "velocity": 114, "channel": 0}, {"type": "note_off", "time": 2921, "note": 68, "velocity": 114, "channel": 0}, {"type": "note_on", "time": 82, "note": 70, "velocity": 111, "channel": 0}, {"type": "note_off", "time": 4011, "note": 70, "velocity": 111, "channel": 0}, {"type": "note_on", "time": 246, "note": 66, "velocity": 111, "channel": 0}, {"type": "note_off", "time": 1398, "note": 66, "velocity": 111, "channel": 0}, {"type": "note_on", "time": 211, "note": 67, "velocity": 103, "channel": 0}, {"type": "note_off", "time": 19924, "note": 67, "velocity": 103, "channel": 0}, {"type": "note_on", "time": 34708, "note": 70, "velocity": 119, "channel": 0}, {"type": "note_off", "time": 2160, "note": 70, "velocity": 119, "channel": 0}, {"type": "note_on", "time": 0, "note": 72, "velocity": 118, "channel": 0}, {"type": "note_off", "time": 2036, "note": 72, "velocity": 118, "channel": 0}, {"type": "note_on", "time": 82, "note": 74, "velocity": 112, "channel": 0}, {"type": "note_off", "time": 2406, "note": 74, "velocity": 112, "channel": 0}, {"type": "note_on", "time": 9936, "note": 70, "velocity": 105, "channel": 0}, {"type": "note_off", "time": 1234, "note": 70, "velocity": 105, "channel": 0}, {"type": "note_on", "time": 0, "note": 72, "velocity": 114, "channel": 0}, {"type": "note_off", "time": 1226, "note": 72, "velocity": 114, "channel": 0}, {"type": "note_on", "time": 0, "note": 74, "velocity": 113, "channel": 0}, {"type": "note_off", "time": 1971, "note": 74, "velocity": 113, "channel": 0}, {"type": "note_on", "time": 93, "note": 77, "velocity": 114, "channel": 0}, {"type": "note_off", "time": 1913, "note": 77, "velocity": 114, "channel": 0}, {"type": "note_on", "time": 61, "note": 74, "velocity": 106, "channel": 0}, {"type": "note_off", "time": 24562, "note": 74, "velocity": 106, "channel": 0}, {"type": "note_on", "time": 14975, "note": 84, "velocity": 117, "channel": 0}, {"type": "note_off", "time": 4278, "note": 84, "velocity": 117, "channel": 0}, {"type": "note_on", "time": 20530, "note": 78, "velocity": 112, "channel": 0}, {"type": "note_off", "time": 2574, "note": 78, "velocity": 112, "channel": 0}, {"type": "note_on", "time": 819, "note": 79, "velocity": 110, "channel": 0}, {"type": "note_off", "time": 14628, "note": 79, "velocity": 110, "channel": 0}, {"type": "note_on", "time": 7650, "note": 78, "velocity": 121, "channel": 0}, {"type": "note_off", "time": 5760, "note": 78, "velocity": 121, "channel": 0}, {"type": "note_on", "time": 164, "note": 77, "velocity": 111, "channel": 0}, {"type": "note_off", "time": 3774, "note": 77, "velocity": 111, "channel": 0}, {"type": "note_on", "time": 1872, "note": 77, "velocity": 106, "channel": 0}, {"type": "note_off", "time": 10269, "note": 77, "velocity": 106, "channel": 0}, {"type": "note_on", "time": 409, "note": 75, "velocity": 113, "channel": 0}, {"type": "note_off", "time": 4066, "note": 75, "velocity": 113, "channel": 0}, {"type": "note_on", "time": 321, "note": 72, "velocity": 114, "channel": 0}, {"type": "note_off", "time": 2545, "note": 72, "velocity": 114, "channel": 0}, {"type": "note_on", "time": 19117, "note": 66, "velocity": 119, "channel": 0}, {"type": "note_off", "time": 2139, "note": 66, "velocity": 119, "channel": 0}, {"type": "note_on", "time": 164, "note": 65, "velocity": 117, "channel": 0}, {"type": "note_off", "time": 1049, "note": 65, "velocity": 117, "channel": 0}, {"type": "note_on", "time": 43, "note": 63, "velocity": 103, "channel": 0}, {"type": "note_off", "time": 1625, "note": 63, "velocity": 103, "channel": 0}, {"type": "note_on", "time": 94, "note": 60, "velocity": 105, "channel": 0}, {"type": "note_off", "time": 2756, "note": 60, "velocity": 105, "channel": 0}, {"type": "note_on", "time": 417, "note": 63, "velocity": 99, "channel": 0}, {"type": "note_off", "time": 2900, "note": 63, "velocity": 99, "channel": 0}, {"type": "note_on", "time": 18102, "note": 58, "velocity": 95, "channel": 0}, {"type": "note_off", "time": 658, "note": 58, "velocity": 95, "channel": 0}, {"type": "note_on", "time": 0, "note": 60, "velocity": 103, "channel": 0}, {"type": "note_off", "time": 740, "note": 60, "velocity": 103, "channel": 0}, {"type": "note_on", "time": 193, "note": 62, "velocity": 104, "channel": 0}, {"type": "note_off", "time": 1024, "note": 62, "velocity": 104, "channel": 0}, {"type": "note_on", "time": 606, "note": 58, "velocity": 108, "channel": 0}, {"type": "note_off", "time": 1709, "note": 58, "velocity": 108, "channel": 0}, {"type": "note_on", "time": 518, "note": 63, "velocity": 104, "channel": 0}, {"type": "note_off", "time": 1645, "note": 63, "velocity": 104, "channel": 0}, {"type": "note_on", "time": 617, "note": 65, "velocity": 119, "channel": 0}, {"type": "note_off", "time": 1439, "note": 65, "velocity": 119, "channel": 0}, {"type": "note_on", "time": 122, "note": 70, "velocity": 118, "channel": 0}, {"type": "note_off", "time": 1777, "note": 70, "velocity": 118, "channel": 0}, {"type": "note_on", "time": 54, "note": 65, "velocity": 113, "channel": 0}, {"type": "note_off", "time": 18349, "note": 65, "velocity": 113, "channel": 0}, {"type": "note_on", "time": 6006, "note": 70, "velocity": 115, "channel": 0}, {"type": "note_off", "time": 4831, "note": 70, "velocity": 115, "channel": 0}, {"type": "note_on", "time": 0, "note": 68, "velocity": 106, "channel": 0}, {"type": "note_off", "time": 3364, "note": 68, "velocity": 106, "channel": 0}, {"type": "note_on", "time": 409, "note": 73, "velocity": 118, "channel": 0}, {"type": "note_off", "time": 3598, "note": 73, "velocity": 118, "channel": 0}, {"type": "note_on", "time": 292, "note": 69, "velocity": 118, "channel": 0}, {"type": "note_off", "time": 1813, "note": 69, "velocity": 118, "channel": 0}, {"type": "note_on", "time": 117, "note": 70, "velocity": 120, "channel": 0}, {"type": "note_off", "time": 10620, "note": 70, "velocity": 120, "channel": 0}, {"type": "note_on", "time": 936, "note": 66, "velocity": 113, "channel": 0}, {"type": "note_off", "time": 3276, "note": 66, "velocity": 113, "channel": 0}, {"type": "note_on", "time": 263, "note": 62, "velocity": 104, "channel": 0}, {"type": "note_off", "time": 4242, "note": 62, "velocity": 104, "channel": 0}, {"type": "note_on", "time": 321, "note": 58, "velocity": 105, "channel": 0}, {"type": "note_off", "time": 3189, "note": 58, "velocity": 105, "channel": 0}, {"type": "note_on", "time": 204, "note": 65, "velocity": 118, "channel": 0}, {"type": "note_off", "time": 5295, "note": 65, "velocity": 118, "channel": 0}, {"type": "note_on", "time": 672, "note": 63, "velocity": 81, "channel": 0}, {"type": "note_off", "time": 4798, "note": 63, "velocity": 81, "channel": 0}, {"type": "note_on", "time": 1316, "note": 63, "velocity": 97, "channel": 0}, {"type": "note_off", "time": 12053, "note": 63, "velocity": 97, "channel": 0}, {"type": "note_on", "time": 26714, "note": 60, "velocity": 102, "channel": 0}, {"type": "note_off", "time": 1110, "note": 60, "velocity": 102, "channel": 0}, {"type": "note_on", "time": 144, "note": 63, "velocity": 103, "channel": 0}, {"type": "note_off", "time": 1460, "note": 63, "velocity": 103, "channel": 0}, {"type": "note_on", "time": 287, "note": 67, "velocity": 123, "channel": 0}, {"type": "note_off", "time": 1974, "note": 67, "velocity": 123, "channel": 0}, {"type": "note_on", "time": 781, "note": 72, "velocity": 122, "channel": 0}, {"type": "note_off", "time": 3003, "note": 72, "velocity": 122, "channel": 0}, {"type": "note_on", "time": 205, "note": 70, "velocity": 124, "channel": 0}, {"type": "note_off", "time": 2139, "note": 70, "velocity": 124, "channel": 0}, {"type": "note_on", "time": 2112, "note": 70, "velocity": 126, "channel": 0}, {"type": "note_off", "time": 1872, "note": 70, "velocity": 126, "channel": 0}, {"type": "note_on", "time": 87, "note": 73, "velocity": 118, "channel": 0}, {"type": "note_off", "time": 12229, "note": 73, "velocity": 118, "channel": 0}, {"type": "note_on", "time": 1316, "note": 70, "velocity": 122, "channel": 0}, {"type": "note_off", "time": 4125, "note": 70, "velocity": 122, "channel": 0}, {"type": "note_on", "time": 614, "note": 68, "velocity": 122, "channel": 0}, {"type": "note_off", "time": 4768, "note": 68, "velocity": 122, "channel": 0}, {"type": "note_on", "time": 351, "note": 66, "velocity": 105, "channel": 0}, {"type": "note_off", "time": 1901, "note": 66, "velocity": 105, "channel": 0}, {"type": "note_on", "time": 468, "note": 68, "velocity": 122, "channel": 0}, {"type": "note_off", "time": 4768, "note": 68, "velocity": 122, "channel": 0}, {"type": "note_on", "time": 146, "note": 66, "velocity": 107, "channel": 0}, {"type": "note_off", "time": 1930, "note": 66, "velocity": 107, "channel": 0}, {"type": "note_on", "time": 251, "note": 68, "velocity": 114, "channel": 0}, {"type": "note_off", "time": 32626, "note": 68, "velocity": 114, "channel": 0}, {"type": "note_on", "time": 4854, "note": 69, "velocity": 114, "channel": 0}, {"type": "note_off", "time": 4937, "note": 69, "velocity": 114, "channel": 0}, {"type": "note_on", "time": 864, "note": 68, "velocity": 121, "channel": 0}, {"type": "note_off", "time": 2077, "note": 68, "velocity": 121, "channel": 0}, {"type": "note_on", "time": 164, "note": 66, "velocity": 116, "channel": 0}, {"type": "note_off", "time": 1419, "note": 66, "velocity": 116, "channel": 0}, {"type": "note_on", "time": 143, "note": 63, "velocity": 104, "channel": 0}, {"type": "note_off", "time": 2077, "note": 63, "velocity": 104, "channel": 0}, {"type": "note_on", "time": 390, "note": 61, "velocity": 105, "channel": 0}, {"type": "note_off", "time": 8434, "note": 61, "velocity": 105, "channel": 0}, {"type": "note_on", "time": 288, "note": 63, "velocity": 104, "channel": 0}, {"type": "note_off", "time": 6644, "note": 63, "velocity": 104, "channel": 0}, {"type": "note_on", "time": 185, "note": 61, "velocity": 95, "channel": 0}, {"type": "note_off", "time": 1871, "note": 61, "velocity": 95, "channel": 0}, {"type": "note_on", "time": 410, "note": 63, "velocity": 92, "channel": 0}, {"type": "note_off", "time": 17671, "note": 63, "velocity": 92, "channel": 0}, {"type": "note_on", "time": 468, "note": 61, "velocity": 89, "channel": 0}, {"type": "note_off", "time": 3218, "note": 61, "velocity": 89, "channel": 0}, {"type": "note_on", "time": 87, "note": 63, "velocity": 105, "channel": 0}, {"type": "note_off", "time": 5763, "note": 63, "velocity": 105, "channel": 0}, {"type": "note_on", "time": 789, "note": 67, "velocity": 116, "channel": 0}, {"type": "note_off", "time": 4915, "note": 67, "velocity": 116, "channel": 0}, {"type": "note_on", "time": 58135, "note": 58, "velocity": 113, "channel": 0}, {"type": "note_off", "time": 4690, "note": 58, "velocity": 113, "channel": 0}, {"type": "note_on", "time": 329, "note": 51, "velocity": 96, "channel": 0}, {"type": "note_off", "time": 18966, "note": 51, "velocity": 96, "channel": 0}, {"type": "note_on", "time": 493, "note": 54, "velocity": 103, "channel": 0}, {"type": "note_off", "time": 4813, "note": 54, "velocity": 103, "channel": 0}, {"type": "note_on", "time": 6336, "note": 56, "velocity": 115, "channel": 0}, {"type": "note_off", "time": 6336, "note": 56, "velocity": 115, "channel": 0}, {"type": "note_on", "time": 164, "note": 54, "velocity": 98, "channel": 0}, {"type": "note_off", "time": 3414, "note": 54, "velocity": 98, "channel": 0}, {"type": "note_on", "time": 41, "note": 56, "velocity": 118, "channel": 0}, {"type": "note_off", "time": 8187, "note": 56, "velocity": 118, "channel": 0}, {"type": "note_on", "time": 57, "note": 54, "velocity": 100, "channel": 0}, {"type": "note_off", "time": 2408, "note": 54, "velocity": 100, "channel": 0}, {"type": "note_on", "time": 43, "note": 56, "velocity": 115, "channel": 0}, {"type": "note_off", "time": 10697, "note": 56, "velocity": 115, "channel": 0}, {"type": "note_on", "time": 396, "note": 58, "velocity": 120, "channel": 0}, {"type": "note_off", "time": 4125, "note": 58, "velocity": 120, "channel": 0}, {"type": "note_on", "time": 380, "note": 56, "velocity": 117, "channel": 0}, {"type": "note_off", "time": 3686, "note": 56, "velocity": 117, "channel": 0}, {"type": "note_on", "time": 585, "note": 53, "velocity": 101, "channel": 0}, {"type": "note_off", "time": 1960, "note": 53, "velocity": 101, "channel": 0}, {"type": "note_on", "time": 146, "note": 55, "velocity": 105, "channel": 0}, {"type": "note_off", "time": 16501, "note": 55, "velocity": 105, "channel": 0}, {"type": "note_on", "time": 351, "note": 58, "velocity": 103, "channel": 0}, {"type": "note_off", "time": 3072, "note": 58, "velocity": 103, "channel": 0}, {"type": "note_on", "time": 643, "note": 63, "velocity": 112, "channel": 0}, {"type": "note_off", "time": 6933, "note": 63, "velocity": 112, "channel": 0}, {"type": "note_on", "time": 263, "note": 61, "velocity": 107, "channel": 0}, {"type": "note_off", "time": 3189, "note": 61, "velocity": 107, "channel": 0}, {"type": "note_on", "time": 56437, "note": 63, "velocity": 102, "channel": 0}, {"type": "note_off", "time": 2574, "note": 63, "velocity": 102, "channel": 0}, {"type": "note_on", "time": 672, "note": 66, "velocity": 116, "channel": 0}, {"type": "note_off", "time": 5880, "note": 66, "velocity": 116, "channel": 0}, {"type": "note_on", "time": 5383, "note": 63, "velocity": 97, "channel": 0}, {"type": "note_off", "time": 9333, "note": 63, "velocity": 97, "channel": 0}, {"type": "note_on", "time": 204, "note": 66, "velocity": 117, "channel": 0}, {"type": "note_off", "time": 4651, "note": 66, "velocity": 117, "channel": 0}, {"type": "note_on", "time": 21626, "note": 63, "velocity": 106, "channel": 0}, {"type": "note_off", "time": 2427, "note": 63, "velocity": 106, "channel": 0}, {"type": "note_on", "time": 226, "note": 58, "velocity": 99, "channel": 0}, {"type": "note_off", "time": 1337, "note": 58, "velocity": 99, "channel": 0}, {"type": "note_on", "time": 144, "note": 61, "velocity": 115, "channel": 0}, {"type": "note_off", "time": 3065, "note": 61, "velocity": 115, "channel": 0}, {"type": "note_on", "time": 246, "note": 63, "velocity": 110, "channel": 0}, {"type": "note_off", "time": 2427, "note": 63, "velocity": 110, "channel": 0}, {"type": "note_on", "time": 5480, "note": 63, "velocity": 115, "channel": 0}, {"type": "note_off", "time": 3335, "note": 63, "velocity": 115, "channel": 0}, {"type": "note_on", "time": 234, "note": 66, "velocity": 117, "channel": 0}, {"type": "note_off", "time": 3452, "note": 66, "velocity": 117, "channel": 0}, {"type": "note_on", "time": 87, "note": 60, "velocity": 90, "channel": 0}, {"type": "note_off", "time": 3042, "note": 60, "velocity": 90, "channel": 0}, {"type": "note_on", "time": 227, "note": 61, "velocity": 110, "channel": 0}, {"type": "note_off", "time": 3085, "note": 61, "velocity": 110, "channel": 0}, {"type": "note_on", "time": 41, "note": 63, "velocity": 106, "channel": 0}, {"type": "note_off", "time": 5636, "note": 63, "velocity": 106, "channel": 0}, {"type": "note_on", "time": 164, "note": 61, "velocity": 94, "channel": 0}, {"type": "note_off", "time": 1995, "note": 61, "velocity": 94, "channel": 0}, {"type": "note_on", "time": 102, "note": 63, "velocity": 108, "channel": 0}, {"type": "note_off", "time": 9154, "note": 63, "velocity": 108, "channel": 0}, {"type": "note_on", "time": 144, "note": 61, "velocity": 103, "channel": 0}, {"type": "note_off", "time": 1337, "note": 61, "velocity": 103, "channel": 0}, {"type": "note_on", "time": 144, "note": 63, "velocity": 103, "channel": 0}, {"type": "note_off", "time": 9545, "note": 63, "velocity": 103, "channel": 0}, {"type": "note_on", "time": 205, "note": 72, "velocity": 119, "channel": 0}, {"type": "note_off", "time": 4237, "note": 72, "velocity": 119, "channel": 0}, {"type": "note_on", "time": 164, "note": 70, "velocity": 119, "channel": 0}, {"type": "note_off", "time": 3538, "note": 70, "velocity": 119, "channel": 0}, {"type": "note_on", "time": 64752, "note": 63, "velocity": 103, "channel": 0}, {"type": "note_off", "time": 2428, "note": 63, "velocity": 103, "channel": 0}, {"type": "note_on", "time": 17156, "note": 63, "velocity": 107, "channel": 0}, {"type": "note_off", "time": 1639, "note": 63, "velocity": 107, "channel": 0}, {"type": "note_on", "time": 60, "note": 64, "velocity": 105, "channel": 0}, {"type": "note_off", "time": 1498, "note": 64, "velocity": 105, "channel": 0}, {"type": "note_on", "time": 98, "note": 63, "velocity": 104, "channel": 0}, {"type": "note_off", "time": 1378, "note": 63, "velocity": 104, "channel": 0}, {"type": "note_on", "time": 267, "note": 60, "velocity": 102, "channel": 0}, {"type": "note_off", "time": 2797, "note": 60, "velocity": 102, "channel": 0}, {"type": "note_on", "time": 205, "note": 63, "velocity": 96, "channel": 0}, {"type": "note_off", "time": 1974, "note": 63, "velocity": 96, "channel": 0}, {"type": "note_on", "time": 390, "note": 66, "velocity": 118, "channel": 0}, {"type": "note_off", "time": 3209, "note": 66, "velocity": 118, "channel": 0}, {"type": "note_on", "time": 143, "note": 68, "velocity": 120, "channel": 0}, {"type": "note_off", "time": 1789, "note": 68, "velocity": 120, "channel": 0}, {"type": "note_on", "time": 82, "note": 70, "velocity": 122, "channel": 0}, {"type": "note_off", "time": 2489, "note": 70, "velocity": 122, "channel": 0}, {"type": "note_on", "time": 102, "note": 66, "velocity": 111, "channel": 0}, {"type": "note_off", "time": 2242, "note": 66, "velocity": 111, "channel": 0}, {"type": "note_on", "time": 473, "note": 63, "velocity": 97, "channel": 0}, {"type": "note_off", "time": 1830, "note": 63, "velocity": 97, "channel": 0}, {"type": "note_on", "time": 308, "note": 60, "velocity": 100, "channel": 0}, {"type": "note_off", "time": 2139, "note": 60, "velocity": 100, "channel": 0}, {"type": "note_on", "time": 370, "note": 68, "velocity": 121, "channel": 0}, {"type": "note_off", "time": 2015, "note": 68, "velocity": 121, "channel": 0}, {"type": "note_on", "time": 82, "note": 72, "velocity": 96, "channel": 0}, {"type": "note_off", "time": 863, "note": 72, "velocity": 96, "channel": 0}, {"type": "note_on", "time": 102, "note": 70, "velocity": 112, "channel": 0}, {"type": "note_off", "time": 1506, "note": 70, "velocity": 112, "channel": 0}, {"type": "note_on", "time": 263, "note": 66, "velocity": 117, "channel": 0}, {"type": "note_off", "time": 3189, "note": 66, "velocity": 117, "channel": 0}, {"type": "note_on", "time": 131, "note": 68, "velocity": 122, "channel": 0}, {"type": "note_off", "time": 4271, "note": 68, "velocity": 122, "channel": 0}, {"type": "note_on", "time": 219, "note": 70, "velocity": 113, "channel": 0}, {"type": "note_off", "time": 1843, "note": 70, "velocity": 113, "channel": 0}, {"type": "note_on", "time": 58, "note": 68, "velocity": 119, "channel": 0}, {"type": "note_off", "time": 980, "note": 68, "velocity": 119, "channel": 0}, {"type": "note_on", "time": 73, "note": 66, "velocity": 115, "channel": 0}, {"type": "note_off", "time": 2618, "note": 66, "velocity": 115, "channel": 0}, {"type": "note_on", "time": 29, "note": 67, "velocity": 120, "channel": 0}, {"type": "note_off", "time": 7840, "note": 67, "velocity": 120, "channel": 0}, {"type": "note_on", "time": 394, "note": 63, "velocity": 97, "channel": 0}, {"type": "note_off", "time": 2091, "note": 63, "velocity": 97, "channel": 0}, {"type": "note_on", "time": 321, "note": 58, "velocity": 95, "channel": 0}, {"type": "note_off", "time": 3159, "note": 58, "velocity": 95, "channel": 0}, {"type": "note_on", "time": 23752, "note": 63, "velocity": 114, "channel": 0}, {"type": "note_off", "time": 1954, "note": 63, "velocity": 114, "channel": 0}, {"type": "note_on", "time": 82, "note": 64, "velocity": 110, "channel": 0}, {"type": "note_off", "time": 1933, "note": 64, "velocity": 110, "channel": 0}, {"type": "note_on", "time": 61, "note": 63, "velocity": 107, "channel": 0}, {"type": "note_off", "time": 1049, "note": 63, "velocity": 107, "channel": 0}, {"type": "note_on", "time": 308, "note": 58, "velocity": 105, "channel": 0}, {"type": "note_off", "time": 2180, "note": 58, "velocity": 105, "channel": 0}, {"type": "note_on", "time": 185, "note": 60, "velocity": 100, "channel": 0}, {"type": "note_off", "time": 2530, "note": 60, "velocity": 100, "channel": 0}, {"type": "note_on", "time": 46, "note": 62, "velocity": 86, "channel": 0}, {"type": "note_off", "time": 1184, "note": 62, "velocity": 86, "channel": 0}, {"type": "note_on", "time": 58, "note": 60, "velocity": 92, "channel": 0}, {"type": "note_off", "time": 1228, "note": 60, "velocity": 92, "channel": 0}, {"type": "note_on", "time": 160, "note": 58, "velocity": 106, "channel": 0}, {"type": "note_off", "time": 2384, "note": 58, "velocity": 106, "channel": 0}, {"type": "note_on", "time": 263, "note": 63, "velocity": 110, "channel": 0}, {"type": "note_off", "time": 2150, "note": 63, "velocity": 110, "channel": 0}, {"type": "note_on", "time": 43, "note": 64, "velocity": 108, "channel": 0}, {"type": "note_off", "time": 1711, "note": 64, "velocity": 108, "channel": 0}, {"type": "note_on", "time": 73, "note": 63, "velocity": 106, "channel": 0}, {"type": "note_off", "time": 1097, "note": 63, "velocity": 106, "channel": 0}, {"type": "note_on", "time": 468, "note": 58, "velocity": 103, "channel": 0}, {"type": "note_off", "time": 1565, "note": 58, "velocity": 103, "channel": 0}, {"type": "note_on", "time": 160, "note": 60, "velocity": 110, "channel": 0}, {"type": "note_off", "time": 2442, "note": 60, "velocity": 110, "channel": 0}, {"type": "note_on", "time": 175, "note": 63, "velocity": 103, "channel": 0}, {"type": "note_off", "time": 1579, "note": 63, "velocity": 103, "channel": 0}, {"type": "note_on", "time": 58, "note": 60, "velocity": 108, "channel": 0}, {"type": "note_off", "time": 1199, "note": 60, "velocity": 108, "channel": 0}, {"type": "note_on", "time": 87, "note": 58, "velocity": 108, "channel": 0}, {"type": "note_off", "time": 2048, "note": 58, "velocity": 108, "channel": 0}, {"type": "note_on", "time": 190, "note": 63, "velocity": 114, "channel": 0}, {"type": "note_off", "time": 2442, "note": 63, "velocity": 114, "channel": 0}, {"type": "note_on", "time": 29, "note": 64, "velocity": 109, "channel": 0}, {"type": "note_off", "time": 2296, "note": 64, "velocity": 109, "channel": 0}, {"type": "note_on", "time": 87, "note": 60, "velocity": 111, "channel": 0}, {"type": "note_off", "time": 2574, "note": 60, "velocity": 111, "channel": 0}, {"type": "note_on", "time": 482, "note": 63, "velocity": 111, "channel": 0}, {"type": "note_off", "time": 3291, "note": 63, "velocity": 111, "channel": 0}, {"type": "note_on", "time": 102, "note": 64, "velocity": 104, "channel": 0}, {"type": "note_off", "time": 2442, "note": 64, "velocity": 104, "channel": 0}, {"type": "note_on", "time": 29, "note": 63, "velocity": 107, "channel": 0}, {"type": "note_off", "time": 1053, "note": 63, "velocity": 107, "channel": 0}, {"type": "note_on", "time": 87, "note": 60, "velocity": 100, "channel": 0}, {"type": "note_off", "time": 2355, "note": 60, "velocity": 100, "channel": 0}, {"type": "note_on", "time": 585, "note": 63, "velocity": 93, "channel": 0}, {"type": "note_off", "time": 1550, "note": 63, "velocity": 93, "channel": 0}, {"type": "note_on", "time": 190, "note": 65, "velocity": 123, "channel": 0}, {"type": "note_off", "time": 3569, "note": 65, "velocity": 123, "channel": 0}, {"type": "note_on", "time": 102, "note": 63, "velocity": 104, "channel": 0}, {"type": "note_off", "time": 2647, "note": 63, "velocity": 104, "channel": 0}, {"type": "note_on", "time": 87, "note": 64, "velocity": 103, "channel": 0}, {"type": "note_off", "time": 1887, "note": 64, "velocity": 103, "channel": 0}, {"type": "note_on", "time": 73, "note": 63, "velocity": 109, "channel": 0}, {"type": "note_off", "time": 1272, "note": 63, "velocity": 109, "channel": 0}, {"type": "note_on", "time": 43, "note": 60, "velocity": 108, "channel": 0}, {"type": "note_off", "time": 3159, "note": 60, "velocity": 108, "channel": 0}, {"type": "note_on", "time": 117, "note": 63, "velocity": 93, "channel": 0}, {"type": "note_off", "time": 1565, "note": 63, "velocity": 93, "channel": 0}, {"type": "note_on", "time": 131, "note": 66, "velocity": 118, "channel": 0}, {"type": "note_off", "time": 3174, "note": 66, "velocity": 118, "channel": 0}, {"type": "note_on", "time": 73, "note": 63, "velocity": 107, "channel": 0}, {"type": "note_off", "time": 2837, "note": 63, "velocity": 107, "channel": 0}, {"type": "note_on", "time": 58, "note": 64, "velocity": 102, "channel": 0}, {"type": "note_off", "time": 1477, "note": 64, "velocity": 102, "channel": 0}, {"type": "note_on", "time": 73, "note": 63, "velocity": 104, "channel": 0}, {"type": "note_off", "time": 1258, "note": 63, "velocity": 104, "channel": 0}, {"type": "note_on", "time": 160, "note": 60, "velocity": 110, "channel": 0}, {"type": "note_off", "time": 2589, "note": 60, "velocity": 110, "channel": 0}, {"type": "note_on", "time": 43, "note": 63, "velocity": 86, "channel": 0}, {"type": "note_off", "time": 1638, "note": 63, "velocity": 86, "channel": 0}, {"type": "note_on", "time": 204, "note": 65, "velocity": 123, "channel": 0}, {"type": "note_off", "time": 3349, "note": 65, "velocity": 123, "channel": 0}, {"type": "note_on", "time": 73, "note": 63, "velocity": 104, "channel": 0}, {"type": "note_off", "time": 4154, "note": 63, "velocity": 104, "channel": 0}, {"type": "note_on", "time": 117, "note": 64, "velocity": 108, "channel": 0}, {"type": "note_off", "time": 1711, "note": 64, "velocity": 108, "channel": 0}, {"type": "note_on", "time": 58, "note": 63, "velocity": 109, "channel": 0}, {"type": "note_off", "time": 658, "note": 63, "velocity": 109, "channel": 0}, {"type": "note_on", "time": 29, "note": 60, "velocity": 110, "channel": 0}, {"type": "note_off", "time": 3291, "note": 60, "velocity": 110, "channel": 0}, {"type": "note_on", "time": 58, "note": 63, "velocity": 89, "channel": 0}, {"type": "note_off", "time": 1506, "note": 63, "velocity": 89, "channel": 0}, {"type": "note_on", "time": 58, "note": 66, "velocity": 120, "channel": 0}, {"type": "note_off", "time": 2837, "note": 66, "velocity": 120, "channel": 0}, {"type": "note_on", "time": 234, "note": 68, "velocity": 124, "channel": 0}, {"type": "note_off", "time": 4213, "note": 68, "velocity": 124, "channel": 0}, {"type": "note_on", "time": 178, "note": 72, "velocity": 102, "channel": 0}, {"type": "note_off", "time": 884, "note": 72, "velocity": 102, "channel": 0}, {"type": "note_on", "time": 92, "note": 68, "velocity": 121, "channel": 0}, {"type": "note_off", "time": 1141, "note": 68, "velocity": 121, "channel": 0}, {"type": "note_on", "time": 58, "note": 66, "velocity": 113, "channel": 0}, {"type": "note_off", "time": 2530, "note": 66, "velocity": 113, "channel": 0}, {"type": "note_on", "time": 117, "note": 68, "velocity": 118, "channel": 0}, {"type": "note_off", "time": 3540, "note": 68, "velocity": 118, "channel": 0}, {"type": "note_on", "time": 117, "note": 72, "velocity": 97, "channel": 0}, {"type": "note_off", "time": 921, "note": 72, "velocity": 97, "channel": 0}, {"type": "note_on", "time": 58, "note": 68, "velocity": 103, "channel": 0}, {"type": "note_off", "time": 950, "note": 68, "velocity": 103, "channel": 0}, {"type": "note_on", "time": 73, "note": 66, "velocity": 119, "channel": 0}, {"type": "note_off", "time": 1901, "note": 66, "velocity": 119, "channel": 0}, {"type": "note_on", "time": 190, "note": 68, "velocity": 120, "channel": 0}, {"type": "note_off", "time": 3189, "note": 68, "velocity": 120, "channel": 0}, {"type": "note_on", "time": 73, "note": 72, "velocity": 97, "channel": 0}, {"type": "note_off", "time": 1301, "note": 72, "velocity": 97, "channel": 0}, {"type": "note_on", "time": 146, "note": 68, "velocity": 110, "channel": 0}, {"type": "note_off", "time": 1243, "note": 68, "velocity": 110, "channel": 0}, {"type": "note_on", "time": 102, "note": 66, "velocity": 110, "channel": 0}, {"type": "note_off", "time": 2106, "note": 66, "velocity": 110, "channel": 0}, {"type": "note_on", "time": 73, "note": 68, "velocity": 119, "channel": 0}, {"type": "note_off", "time": 3335, "note": 68, "velocity": 119, "channel": 0}, {"type": "note_on", "time": 102, "note": 72, "velocity": 93, "channel": 0}, {"type": "note_off", "time": 1214, "note": 72, "velocity": 93, "channel": 0}, {"type": "note_on", "time": 131, "note": 68, "velocity": 113, "channel": 0}, {"type": "note_off", "time": 1082, "note": 68, "velocity": 113, "channel": 0}, {"type": "note_on", "time": 73, "note": 66, "velocity": 113, "channel": 0}, {"type": "note_off", "time": 1579, "note": 66, "velocity": 113, "channel": 0}, {"type": "note_on", "time": 73, "note": 67, "velocity": 115, "channel": 0}, {"type": "note_off", "time": 5588, "note": 67, "velocity": 115, "channel": 0}, {"type": "note_on", "time": 117, "note": 75, "velocity": 119, "channel": 0}, {"type": "note_off", "time": 3861, "note": 75, "velocity": 119, "channel": 0}, {"type": "note_on", "time": 79407, "note": 77, "velocity": 125, "channel": 0}, {"type": "note_off", "time": 5513, "note": 77, "velocity": 125, "channel": 0}, {"type": "note_on", "time": 34930, "note": 87, "velocity": 120, "channel": 0}, {"type": "note_off", "time": 4690, "note": 87, "velocity": 120, "channel": 0}, {"type": "note_on", "time": 4525, "note": 87, "velocity": 110, "channel": 0}, {"type": "note_off", "time": 12178, "note": 87, "velocity": 110, "channel": 0}, {"type": "note_on", "time": 36164, "note": 80, "velocity": 120, "channel": 0}, {"type": "note_off", "time": 16292, "note": 80, "velocity": 120, "channel": 0}, {"type": "note_on", "time": 8064, "note": 78, "velocity": 116, "channel": 0}, {"type": "note_off", "time": 4155, "note": 78, "velocity": 116, "channel": 0}, {"type": "note_on", "time": 288, "note": 77, "velocity": 121, "channel": 0}, {"type": "note_off", "time": 3332, "note": 77, "velocity": 121, "channel": 0}, {"type": "note_on", "time": 370, "note": 75, "velocity": 98, "channel": 0}, {"type": "note_off", "time": 4319, "note": 75, "velocity": 98, "channel": 0}, {"type": "note_on", "time": 205, "note": 77, "velocity": 107, "channel": 0}, {"type": "note_off", "time": 905, "note": 77, "velocity": 107, "channel": 0}, {"type": "note_on", "time": 246, "note": 78, "velocity": 122, "channel": 0}, {"type": "note_off", "time": 2016, "note": 78, "velocity": 122, "channel": 0}, {"type": "note_on", "time": 0, "note": 77, "velocity": 119, "channel": 0}, {"type": "note_off", "time": 2880, "note": 77, "velocity": 119, "channel": 0}, {"type": "note_on", "time": 1110, "note": 75, "velocity": 109, "channel": 0}, {"type": "note_off", "time": 11808, "note": 75, "velocity": 109, "channel": 0}, {"type": "note_on", "time": 27442, "note": 73, "velocity": 121, "channel": 0}, {"type": "note_off", "time": 3490, "note": 73, "velocity": 121, "channel": 0}, {"type": "note_on", "time": 0, "note": 72, "velocity": 120, "channel": 0}, {"type": "note_off", "time": 1462, "note": 72, "velocity": 120, "channel": 0}, {"type": "note_on", "time": 117, "note": 71, "velocity": 119, "channel": 0}, {"type": "note_off", "time": 1024, "note": 71, "velocity": 119, "channel": 0}, {"type": "note_on", "time": 146, "note": 70, "velocity": 121, "channel": 0}, {"type": "note_off", "time": 24166, "note": 70, "velocity": 121, "channel": 0}, {"type": "note_on", "time": 2457, "note": 68, "velocity": 123, "channel": 0}, {"type": "note_off", "time": 3540, "note": 68, "velocity": 123, "channel": 0}, {"type": "note_on", "time": 409, "note": 66, "velocity": 114, "channel": 0}, {"type": "note_off", "time": 3013, "note": 66, "velocity": 114, "channel": 0}, {"type": "note_on", "time": 2808, "note": 63, "velocity": 98, "channel": 0}, {"type": "note_off", "time": 12960, "note": 63, "velocity": 98, "channel": 0}, {"type": "note_on", "time": 36161, "note": 66, "velocity": 102, "channel": 0}, {"type": "note_off", "time": 1813, "note": 66, "velocity": 102, "channel": 0}, {"type": "note_on", "time": 321, "note": 67, "velocity": 115, "channel": 0}, {"type": "note_off", "time": 2896, "note": 67, "velocity": 115, "channel": 0}, {"type": "note_on", "time": 87, "note": 70, "velocity": 100, "channel": 0}, {"type": "note_off", "time": 819, "note": 70, "velocity": 100, "channel": 0}, {"type": "note_on", "time": 175, "note": 72, "velocity": 119, "channel": 0}, {"type": "note_off", "time": 3364, "note": 72, "velocity": 119, "channel": 0}, {"type": "note_on", "time": 234, "note": 70, "velocity": 113, "channel": 0}, {"type": "note_off", "time": 1258, "note": 70, "velocity": 113, "channel": 0}, {"type": "note_on", "time": 146, "note": 75, "velocity": 120, "channel": 0}, {"type": "note_off", "time": 3598, "note": 75, "velocity": 120, "channel": 0}, {"type": "note_on", "time": 1024, "note": 63, "velocity": 96, "channel": 0}, {"type": "note_off", "time": 1638, "note": 63, "velocity": 96, "channel": 0}, {"type": "note_on", "time": 19104, "note": 63, "velocity": 101, "channel": 0}, {"type": "note_off", "time": 2457, "note": 63, "velocity": 101, "channel": 0}, {"type": "note_on", "time": 175, "note": 66, "velocity": 100, "channel": 0}, {"type": "note_off", "time": 6407, "note": 66, "velocity": 100, "channel": 0}, {"type": "note_on", "time": 5002, "note": 68, "velocity": 117, "channel": 0}, {"type": "note_off", "time": 7519, "note": 68, "velocity": 117, "channel": 0}, {"type": "note_on", "time": 321, "note": 66, "velocity": 106, "channel": 0}, {"type": "note_off", "time": 2252, "note": 66, "velocity": 106, "channel": 0}, {"type": "note_on", "time": 234, "note": 68, "velocity": 115, "channel": 0}, {"type": "note_off", "time": 14804, "note": 68, "velocity": 115, "channel": 0}, {"type": "note_on", "time": 5734, "note": 66, "velocity": 118, "channel": 0}, {"type": "note_off", "time": 1872, "note": 66, "velocity": 118, "channel": 0}, {"type": "note_on", "time": 87, "note": 65, "velocity": 113, "channel": 0}, {"type": "note_off", "time": 1462, "note": 65, "velocity": 113, "channel": 0}, {"type": "note_on", "time": 87, "note": 64, "velocity": 106, "channel": 0}, {"type": "note_off", "time": 1579, "note": 64, "velocity": 106, "channel": 0}, {"type": "note_on", "time": 146, "note": 63, "velocity": 98, "channel": 0}, {"type": "note_off", "time": 1872, "note": 63, "velocity": 98, "channel": 0}, {"type": "note_on", "time": 12200, "note": 70, "velocity": 124, "channel": 0}, {"type": "note_off", "time": 2428, "note": 70, "velocity": 124, "channel": 0}, {"type": "note_on", "time": 175, "note": 68, "velocity": 120, "channel": 0}, {"type": "note_off", "time": 2135, "note": 68, "velocity": 120, "channel": 0}, {"type": "note_on", "time": 87, "note": 70, "velocity": 121, "channel": 0}, {"type": "note_off", "time": 2282, "note": 70, "velocity": 121, "channel": 0}, {"type": "note_on", "time": 146, "note": 68, "velocity": 110, "channel": 0}, {"type": "note_off", "time": 2018, "note": 68, "velocity": 110, "channel": 0}, {"type": "note_on", "time": 1024, "note": 66, "velocity": 89, "channel": 0}, {"type": "note_off", "time": 2252, "note": 66, "velocity": 89, "channel": 0}, {"type": "note_on", "time": 234, "note": 67, "velocity": 118, "channel": 0}, {"type": "note_off", "time": 2545, "note": 67, "velocity": 118, "channel": 0}, {"type": "note_on", "time": 175, "note": 68, "velocity": 120, "channel": 0}, {"type": "note_off", "time": 2428, "note": 68, "velocity": 120, "channel": 0}, {"type": "note_on", "time": 146, "note": 66, "velocity": 105, "channel": 0}, {"type": "note_off", "time": 1784, "note": 66, "velocity": 105, "channel": 0}, {"type": "note_on", "time": 58, "note": 67, "velocity": 121, "channel": 0}, {"type": "note_off", "time": 2574, "note": 67, "velocity": 121, "channel": 0}, {"type": "note_on", "time": 175, "note": 63, "velocity": 102, "channel": 0}, {"type": "note_off", "time": 2165, "note": 63, "velocity": 102, "channel": 0}, {"type": "note_on", "time": 146, "note": 58, "velocity": 107, "channel": 0}, {"type": "note_off", "time": 2662, "note": 58, "velocity": 107, "channel": 0}, {"type": "note_on", "time": 87, "note": 57, "velocity": 107, "channel": 0}, {"type": "note_off", "time": 2369, "note": 57, "velocity": 107, "channel": 0}, {"type": "note_on", "time": 87, "note": 56, "velocity": 98, "channel": 0}, {"type": "note_off", "time": 2516, "note": 56, "velocity": 98, "channel": 0}, {"type": "note_on", "time": 117, "note": 60, "velocity": 114, "channel": 0}, {"type": "note_off", "time": 2779, "note": 60, "velocity": 114, "channel": 0}, {"type": "note_on", "time": 27, "note": 59, "velocity": 109, "channel": 0}, {"type": "note_off", "time": 1892, "note": 59, "velocity": 109, "channel": 0}, {"type": "note_on", "time": 905, "note": 58, "velocity": 107, "channel": 0}, {"type": "note_off", "time": 4635, "note": 58, "velocity": 107, "channel": 0}, {"type": "note_on", "time": 0, "note": 51, "velocity": 93, "channel": 0}, {"type": "note_off", "time": 3686, "note": 51, "velocity": 93, "channel": 0}, {"type": "note_on", "time": 38180, "note": 56, "velocity": 114, "channel": 0}, {"type": "note_off", "time": 2603, "note": 56, "velocity": 114, "channel": 0}, {"type": "note_on", "time": 117, "note": 58, "velocity": 107, "channel": 0}, {"type": "note_off", "time": 1462, "note": 58, "velocity": 107, "channel": 0}, {"type": "note_on", "time": 146, "note": 60, "velocity": 103, "channel": 0}, {"type": "note_off", "time": 5675, "note": 60, "velocity": 103, "channel": 0}, {"type": "note_on", "time": 146, "note": 63, "velocity": 113, "channel": 0}, {"type": "note_off", "time": 3159, "note": 63, "velocity": 113, "channel": 0}, {"type": "note_on", "time": 175, "note": 63, "velocity": 109, "channel": 0}, {"type": "note_off", "time": 6524, "note": 63, "velocity": 109, "channel": 0}, {"type": "note_on", "time": 3101, "note": 63, "velocity": 113, "channel": 0}, {"type": "note_off", "time": 9801, "note": 63, "velocity": 113, "channel": 0}, {"type": "note_on", "time": 234, "note": 65, "velocity": 121, "channel": 0}, {"type": "note_off", "time": 3978, "note": 65, "velocity": 121, "channel": 0}, {"type": "note_on", "time": 24966, "note": 66, "velocity": 116, "channel": 0}, {"type": "note_off", "time": 3024, "note": 66, "velocity": 116, "channel": 0}, {"type": "note_on", "time": 102, "note": 68, "velocity": 118, "channel": 0}, {"type": "note_off", "time": 2921, "note": 68, "velocity": 118, "channel": 0}, {"type": "note_on", "time": 185, "note": 67, "velocity": 118, "channel": 0}, {"type": "note_off", "time": 1090, "note": 67, "velocity": 118, "channel": 0}, {"type": "note_on", "time": 144, "note": 69, "velocity": 110, "channel": 0}, {"type": "note_off", "time": 2427, "note": 69, "velocity": 110, "channel": 0}, {"type": "note_on", "time": 144, "note": 70, "velocity": 119, "channel": 0}, {"type": "note_off", "time": 2304, "note": 70, "velocity": 119, "channel": 0}, {"type": "note_on", "time": 185, "note": 66, "velocity": 113, "channel": 0}, {"type": "note_off", "time": 2118, "note": 66, "velocity": 113, "channel": 0}, {"type": "note_on", "time": 61, "note": 67, "velocity": 121, "channel": 0}, {"type": "note_off", "time": 3661, "note": 67, "velocity": 121, "channel": 0}, {"type": "note_on", "time": 102, "note": 70, "velocity": 102, "channel": 0}, {"type": "note_off", "time": 1337, "note": 70, "velocity": 102, "channel": 0}, {"type": "note_on", "time": 123, "note": 73, "velocity": 121, "channel": 0}, {"type": "note_off", "time": 2900, "note": 73, "velocity": 121, "channel": 0}, {"type": "note_on", "time": 61, "note": 70, "velocity": 110, "channel": 0}, {"type": "note_off", "time": 1481, "note": 70, "velocity": 110, "channel": 0}, {"type": "note_on", "time": 82, "note": 72, "velocity": 116, "channel": 0}, {"type": "note_off", "time": 1584, "note": 72, "velocity": 116, "channel": 0}, {"type": "note_on", "time": 61, "note": 73, "velocity": 121, "channel": 0}, {"type": "note_off", "time": 3517, "note": 73, "velocity": 121, "channel": 0}, {"type": "note_on", "time": 144, "note": 70, "velocity": 121, "channel": 0}, {"type": "note_off", "time": 3065, "note": 70, "velocity": 121, "channel": 0}, {"type": "note_on", "time": 102, "note": 68, "velocity": 112, "channel": 0}, {"type": "note_off", "time": 1872, "note": 68, "velocity": 112, "channel": 0}, {"type": "note_on", "time": 102, "note": 70, "velocity": 118, "channel": 0}, {"type": "note_off", "time": 5554, "note": 70, "velocity": 118, "channel": 0}, {"type": "note_on", "time": 61, "note": 68, "velocity": 118, "channel": 0}, {"type": "note_off", "time": 2653, "note": 68, "velocity": 118, "channel": 0}, {"type": "note_on", "time": 123, "note": 66, "velocity": 105, "channel": 0}, {"type": "note_off", "time": 1686, "note": 66, "velocity": 105, "channel": 0}, {"type": "note_on", "time": 226, "note": 68, "velocity": 118, "channel": 0}, {"type": "note_off", "time": 5739, "note": 68, "velocity": 118, "channel": 0}, {"type": "note_on", "time": 82, "note": 66, "velocity": 111, "channel": 0}, {"type": "note_off", "time": 1913, "note": 66, "velocity": 111, "channel": 0}, {"type": "note_on", "time": 61, "note": 63, "velocity": 100, "channel": 0}, {"type": "note_off", "time": 2077, "note": 63, "velocity": 100, "channel": 0}, {"type": "note_on", "time": 185, "note": 61, "velocity": 104, "channel": 0}, {"type": "note_off", "time": 3929, "note": 61, "velocity": 104, "channel": 0}, {"type": "note_on", "time": 226, "note": 63, "velocity": 108, "channel": 0}, {"type": "note_off", "time": 7817, "note": 63, "velocity": 108, "channel": 0}, {"type": "note_on", "time": 164, "note": 61, "velocity": 101, "channel": 0}, {"type": "note_off", "time": 1810, "note": 61, "velocity": 101, "channel": 0}, {"type": "note_on", "time": 144, "note": 63, "velocity": 110, "channel": 0}, {"type": "note_off", "time": 9730, "note": 63, "velocity": 110, "channel": 0}, {"type": "note_on", "time": 185, "note": 58, "velocity": 115, "channel": 0}, {"type": "note_off", "time": 2345, "note": 58, "velocity": 115, "channel": 0}, {"type": "note_on", "time": 102, "note": 56, "velocity": 108, "channel": 0}, {"type": "note_off", "time": 2345, "note": 56, "velocity": 108, "channel": 0}, {"type": "note_on", "time": 61, "note": 58, "velocity": 117, "channel": 0}, {"type": "note_off", "time": 2221, "note": 58, "velocity": 117, "channel": 0}, {"type": "note_on", "time": 123, "note": 56, "velocity": 115, "channel": 0}, {"type": "note_off", "time": 2509, "note": 56, "velocity": 115, "channel": 0}, {"type": "note_on", "time": 82, "note": 54, "velocity": 109, "channel": 0}, {"type": "note_off", "time": 2221, "note": 54, "velocity": 109, "channel": 0}, {"type": "note_on", "time": 761, "note": 51, "velocity": 102, "channel": 0}, {"type": "note_off", "time": 26660, "note": 51, "velocity": 102, "channel": 0}, {"type": "note_on", "time": 172, "note": 54, "velocity": 109, "channel": 0}, {"type": "note_off", "time": 5149, "note": 54, "velocity": 109, "channel": 0}, {"type": "note_on", "time": 175, "note": 56, "velocity": 104, "channel": 0}, {"type": "note_off", "time": 5207, "note": 56, "velocity": 104, "channel": 0}, {"type": "note_on", "time": 38213, "note": 63, "velocity": 114, "channel": 0}, {"type": "note_off", "time": 5801, "note": 63, "velocity": 114, "channel": 0}, {"type": "note_on", "time": 4895, "note": 61, "velocity": 106, "channel": 0}, {"type": "note_off", "time": 5595, "note": 61, "velocity": 106, "channel": 0}, {"type": "note_on", "time": 205, "note": 63, "velocity": 109, "channel": 0}, {"type": "note_off", "time": 8516, "note": 63, "velocity": 109, "channel": 0}, {"type": "note_on", "time": 10704, "note": 58, "velocity": 98, "channel": 0}, {"type": "note_off", "time": 1609, "note": 58, "velocity": 98, "channel": 0}, {"type": "note_on", "time": 87, "note": 61, "velocity": 116, "channel": 0}, {"type": "note_off", "time": 3218, "note": 61, "velocity": 116, "channel": 0}, {"type": "note_on", "time": 146, "note": 63, "velocity": 109, "channel": 0}, {"type": "note_off", "time": 3072, "note": 63, "velocity": 109, "channel": 0}, {"type": "note_on", "time": 7534, "note": 58, "velocity": 98, "channel": 0}, {"type": "note_off", "time": 1254, "note": 58, "velocity": 98, "channel": 0}, {"type": "note_on", "time": 226, "note": 61, "velocity": 111, "channel": 0}, {"type": "note_off", "time": 2509, "note": 61, "velocity": 111, "channel": 0}, {"type": "note_on", "time": 144, "note": 63, "velocity": 114, "channel": 0}, {"type": "note_off", "time": 6274, "note": 63, "velocity": 114, "channel": 0}, {"type": "note_on", "time": 1044, "note": 61, "velocity": 115, "channel": 0}, {"type": "note_off", "time": 3832, "note": 61, "velocity": 115, "channel": 0}, {"type": "note_on", "time": 146, "note": 63, "velocity": 112, "channel": 0}, {"type": "note_off", "time": 5646, "note": 63, "velocity": 112, "channel": 0}, {"type": "note_on", "time": 1375, "note": 61, "velocity": 116, "channel": 0}, {"type": "note_off", "time": 3247, "note": 61, "velocity": 116, "channel": 0}, {"type": "note_on", "time": 204, "note": 63, "velocity": 107, "channel": 0}, {"type": "note_off", "time": 11966, "note": 63, "velocity": 107, "channel": 0}, {"type": "note_on", "time": 11790, "note": 56, "velocity": 108, "channel": 0}, {"type": "note_off", "time": 1258, "note": 56, "velocity": 108, "channel": 0}, {"type": "note_on", "time": 87, "note": 60, "velocity": 114, "channel": 0}, {"type": "note_off", "time": 3291, "note": 60, "velocity": 114, "channel": 0}, {"type": "note_on", "time": 73, "note": 63, "velocity": 114, "channel": 0}, {"type": "note_off", "time": 6246, "note": 63, "velocity": 114, "channel": 0}, {"type": "note_on", "time": 1550, "note": 60, "velocity": 116, "channel": 0}, {"type": "note_off", "time": 2296, "note": 60, "velocity": 116, "channel": 0}, {"type": "note_on", "time": 146, "note": 63, "velocity": 108, "channel": 0}, {"type": "note_off", "time": 11878, "note": 63, "velocity": 108, "channel": 0}, {"type": "note_on", "time": 34676, "note": 60, "velocity": 98, "channel": 0}, {"type": "note_off", "time": 2592, "note": 60, "velocity": 98, "channel": 0}, {"type": "note_on", "time": 1563, "note": 63, "velocity": 111, "channel": 0}, {"type": "note_off", "time": 2427, "note": 63, "velocity": 111, "channel": 0}, {"type": "note_on", "time": 61, "note": 64, "velocity": 103, "channel": 0}, {"type": "note_off", "time": 1522, "note": 64, "velocity": 103, "channel": 0}, {"type": "note_on", "time": 82, "note": 63, "velocity": 105, "channel": 0}, {"type": "note_off", "time": 1008, "note": 63, "velocity": 105, "channel": 0}, {"type": "note_on", "time": 102, "note": 60, "velocity": 108, "channel": 0}, {"type": "note_off", "time": 3065, "note": 60, "velocity": 108, "channel": 0}, {"type": "note_on", "time": 20, "note": 63, "velocity": 95, "channel": 0}, {"type": "note_off", "time": 1440, "note": 63, "velocity": 95, "channel": 0}, {"type": "note_on", "time": 123, "note": 67, "velocity": 123, "channel": 0}, {"type": "note_off", "time": 3291, "note": 67, "velocity": 123, "channel": 0}, {"type": "note_on", "time": 123, "note": 70, "velocity": 119, "channel": 0}, {"type": "note_off", "time": 2838, "note": 70, "velocity": 119, "channel": 0}, {"type": "note_on", "time": 534, "note": 67, "velocity": 118, "channel": 0}, {"type": "note_off", "time": 3538, "note": 67, "velocity": 118, "channel": 0}, {"type": "note_on", "time": 2448, "note": 60, "velocity": 94, "channel": 0}, {"type": "note_off", "time": 1974, "note": 60, "velocity": 94, "channel": 0}, {"type": "note_on", "time": 3641, "note": 63, "velocity": 104, "channel": 0}, {"type": "note_off", "time": 10018, "note": 63, "velocity": 104, "channel": 0}, {"type": "note_on", "time": 25200, "note": 63, "velocity": 111, "channel": 0}, {"type": "note_off", "time": 1357, "note": 63, "velocity": 111, "channel": 0}, {"type": "note_on", "time": 61, "note": 64, "velocity": 110, "channel": 0}, {"type": "note_off", "time": 1440, "note": 64, "velocity": 110, "channel": 0}, {"type": "note_on", "time": 61, "note": 63, "velocity": 106, "channel": 0}, {"type": "note_off", "time": 1090, "note": 63, "velocity": 106, "channel": 0}, {"type": "note_on", "time": 117, "note": 60, "velocity": 108, "channel": 0}, {"type": "note_off", "time": 2896, "note": 60, "velocity": 108, "channel": 0}, {"type": "note_on", "time": 87, "note": 63, "velocity": 107, "channel": 0}, {"type": "note_off", "time": 1214, "note": 63, "velocity": 107, "channel": 0}, {"type": "note_on", "time": 804, "note": 66, "velocity": 117, "channel": 0}, {"type": "note_off", "time": 3072, "note": 66, "velocity": 117, "channel": 0}, {"type": "note_on", "time": 263, "note": 63, "velocity": 105, "channel": 0}, {"type": "note_off", "time": 1301, "note": 63, "velocity": 105, "channel": 0}, {"type": "note_on", "time": 43, "note": 68, "velocity": 122, "channel": 0}, {"type": "note_off", "time": 3174, "note": 68, "velocity": 122, "channel": 0}, {"type": "note_on", "time": 121, "note": 66, "velocity": 106, "channel": 0}, {"type": "note_off", "time": 1277, "note": 66, "velocity": 106, "channel": 0}, {"type": "note_on", "time": 60, "note": 68, "velocity": 116, "channel": 0}, {"type": "note_off", "time": 4103, "note": 68, "velocity": 116, "channel": 0}, {"type": "note_on", "time": 58, "note": 66, "velocity": 83, "channel": 0}, {"type": "note_off", "time": 1045, "note": 66, "velocity": 83, "channel": 0}, {"type": "note_on", "time": 62, "note": 68, "velocity": 121, "channel": 0}, {"type": "note_off", "time": 7542, "note": 68, "velocity": 121, "channel": 0}, {"type": "note_on", "time": 80, "note": 66, "velocity": 99, "channel": 0}, {"type": "note_off", "time": 1035, "note": 66, "velocity": 99, "channel": 0}, {"type": "note_on", "time": 211, "note": 68, "velocity": 120, "channel": 0}, {"type": "note_off", "time": 4234, "note": 68, "velocity": 120, "channel": 0}, {"type": "note_on", "time": 50, "note": 70, "velocity": 106, "channel": 0}, {"type": "note_off", "time": 3027, "note": 70, "velocity": 106, "channel": 0}, {"type": "note_on", "time": 181, "note": 66, "velocity": 108, "channel": 0}, {"type": "note_off", "time": 3721, "note": 66, "velocity": 108, "channel": 0}, {"type": "note_on", "time": 19008, "note": 66, "velocity": 124, "channel": 0}, {"type": "note_off", "time": 1941, "note": 66, "velocity": 124, "channel": 0}, {"type": "note_on", "time": 40, "note": 65, "velocity": 127, "channel": 0}, {"type": "note_off", "time": 2152, "note": 65, "velocity": 127, "channel": 0}, {"type": "note_on", "time": 30, "note": 66, "velocity": 78, "channel": 0}, {"type": "note_off", "time": 1699, "note": 66, "velocity": 78, "channel": 0}, {"type": "note_on", "time": 4547, "note": 63, "velocity": 114, "channel": 0}, {"type": "note_off", "time": 5617, "note": 63, "velocity": 114, "channel": 0}, {"type": "note_on", "time": 58, "note": 62, "velocity": 114, "channel": 0}, {"type": "note_off", "time": 1448, "note": 62, "velocity": 114, "channel": 0}, {"type": "note_on", "time": 58, "note": 61, "velocity": 112, "channel": 0}, {"type": "note_off", "time": 2647, "note": 61, "velocity": 112, "channel": 0}, {"type": "note_on", "time": 599, "note": 58, "velocity": 116, "channel": 0}, {"type": "note_off", "time": 2706, "note": 58, "velocity": 116, "channel": 0}, {"type": "note_on", "time": 234, "note": 56, "velocity": 112, "channel": 0}, {"type": "note_off", "time": 2925, "note": 56, "velocity": 112, "channel": 0}, {"type": "note_on", "time": 20891, "note": 58, "velocity": 107, "channel": 0}, {"type": "note_off", "time": 905, "note": 58, "velocity": 107, "channel": 0}, {"type": "note_on", "time": 82, "note": 56, "velocity": 105, "channel": 0}, {"type": "note_off", "time": 1234, "note": 56, "velocity": 105, "channel": 0}, {"type": "note_on", "time": 61, "note": 55, "velocity": 104, "channel": 0}, {"type": "note_off", "time": 3620, "note": 55, "velocity": 104, "channel": 0}, {"type": "note_on", "time": 185, "note": 58, "velocity": 105, "channel": 0}, {"type": "note_off", "time": 1707, "note": 58, "velocity": 105, "channel": 0}, {"type": "note_on", "time": 226, "note": 63, "velocity": 114, "channel": 0}, {"type": "note_off", "time": 3024, "note": 63, "velocity": 114, "channel": 0}, {"type": "note_on", "time": 144, "note": 58, "velocity": 106, "channel": 0}, {"type": "note_off", "time": 1748, "note": 58, "velocity": 106, "channel": 0}, {"type": "note_on", "time": 143, "note": 61, "velocity": 111, "channel": 0}, {"type": "note_off", "time": 2221, "note": 61, "velocity": 111, "channel": 0}, {"type": "note_on", "time": 102, "note": 65, "velocity": 118, "channel": 0}, {"type": "note_off", "time": 2509, "note": 65, "velocity": 118, "channel": 0}, {"type": "note_on", "time": 61, "note": 64, "velocity": 116, "channel": 0}, {"type": "note_off", "time": 2304, "note": 64, "velocity": 116, "channel": 0}, {"type": "note_on", "time": 164, "note": 62, "velocity": 107, "channel": 0}, {"type": "note_off", "time": 1398, "note": 62, "velocity": 107, "channel": 0}, {"type": "note_on", "time": 164, "note": 63, "velocity": 113, "channel": 0}, {"type": "note_off", "time": 3579, "note": 63, "velocity": 113, "channel": 0}, {"type": "note_on", "time": 21209, "note": 58, "velocity": 119, "channel": 0}, {"type": "note_off", "time": 2427, "note": 58, "velocity": 119, "channel": 0}, {"type": "note_on", "time": 102, "note": 60, "velocity": 113, "channel": 0}, {"type": "note_off", "time": 1728, "note": 60, "velocity": 113, "channel": 0}, {"type": "note_on", "time": 164, "note": 63, "velocity": 114, "channel": 0}, {"type": "note_off", "time": 2077, "note": 63, "velocity": 114, "channel": 0}, {"type": "note_on", "time": 144, "note": 66, "velocity": 121, "channel": 0}, {"type": "note_off", "time": 2036, "note": 66, "velocity": 121, "channel": 0}, {"type": "note_on", "time": 205, "note": 67, "velocity": 118, "channel": 0}, {"type": "note_off", "time": 3641, "note": 67, "velocity": 118, "channel": 0}, {"type": "note_on", "time": 411, "note": 73, "velocity": 120, "channel": 0}, {"type": "note_off", "time": 3538, "note": 73, "velocity": 120, "channel": 0}, {"type": "note_on", "time": 102, "note": 72, "velocity": 113, "channel": 0}, {"type": "note_off", "time": 2221, "note": 72, "velocity": 113, "channel": 0}, {"type": "note_on", "time": 61, "note": 73, "velocity": 124, "channel": 0}, {"type": "note_off", "time": 2036, "note": 73, "velocity": 124, "channel": 0}, {"type": "note_on", "time": 61, "note": 72, "velocity": 117, "channel": 0}, {"type": "note_off", "time": 2180, "note": 72, "velocity": 117, "channel": 0}, {"type": "note_on", "time": 41, "note": 70, "velocity": 120, "channel": 0}, {"type": "note_off", "time": 2612, "note": 70, "velocity": 120, "channel": 0}, {"type": "note_on", "time": 226, "note": 69, "velocity": 114, "channel": 0}, {"type": "note_off", "time": 2509, "note": 69, "velocity": 114, "channel": 0}, {"type": "note_on", "time": 1254, "note": 68, "velocity": 120, "channel": 0}, {"type": "note_off", "time": 7817, "note": 68, "velocity": 120, "channel": 0}, {"type": "note_on", "time": 164, "note": 70, "velocity": 116, "channel": 0}, {"type": "note_off", "time": 2550, "note": 70, "velocity": 116, "channel": 0}, {"type": "note_on", "time": 143, "note": 68, "velocity": 117, "channel": 0}, {"type": "note_off", "time": 2283, "note": 68, "velocity": 117, "channel": 0}, {"type": "note_on", "time": 205, "note": 66, "velocity": 112, "channel": 0}, {"type": "note_off", "time": 2386, "note": 66, "velocity": 112, "channel": 0}, {"type": "note_on", "time": 82, "note": 63, "velocity": 107, "channel": 0}, {"type": "note_off", "time": 2221, "note": 63, "velocity": 107, "channel": 0}, {"type": "note_on", "time": 20, "note": 58, "velocity": 109, "channel": 0}, {"type": "note_off", "time": 2365, "note": 58, "velocity": 109, "channel": 0}, {"type": "note_on", "time": 61, "note": 57, "velocity": 109, "channel": 0}, {"type": "note_off", "time": 2345, "note": 57, "velocity": 109, "channel": 0}, {"type": "note_on", "time": 41, "note": 56, "velocity": 103, "channel": 0}, {"type": "note_off", "time": 2386, "note": 56, "velocity": 103, "channel": 0}, {"type": "note_on", "time": 8228, "note": 61, "velocity": 120, "channel": 0}, {"type": "note_off", "time": 2386, "note": 61, "velocity": 120, "channel": 0}, {"type": "note_on", "time": 123, "note": 59, "velocity": 111, "channel": 0}, {"type": "note_off", "time": 1522, "note": 59, "velocity": 111, "channel": 0}, {"type": "note_on", "time": 740, "note": 61, "velocity": 119, "channel": 0}, {"type": "note_off", "time": 2016, "note": 61, "velocity": 119, "channel": 0}, {"type": "note_on", "time": 102, "note": 59, "velocity": 115, "channel": 0}, {"type": "note_off", "time": 2077, "note": 59, "velocity": 115, "channel": 0}, {"type": "note_on", "time": 185, "note": 58, "velocity": 113, "channel": 0}, {"type": "note_off", "time": 1707, "note": 58, "velocity": 113, "channel": 0}, {"type": "note_on", "time": 390, "note": 56, "velocity": 109, "channel": 0}, {"type": "note_off", "time": 2736, "note": 56, "velocity": 109, "channel": 0}, {"type": "note_on", "time": 144, "note": 55, "velocity": 97, "channel": 0}, {"type": "note_off", "time": 1193, "note": 55, "velocity": 97, "channel": 0}, {"type": "note_on", "time": 3538, "note": 55, "velocity": 98, "channel": 0}, {"type": "note_off", "time": 3085, "note": 55, "velocity": 98, "channel": 0}, {"type": "note_on", "time": 1398, "note": 60, "velocity": 116, "channel": 0}, {"type": "note_off", "time": 3168, "note": 60, "velocity": 116, "channel": 0}, {"type": "note_on", "time": 61, "note": 58, "velocity": 103, "channel": 0}, {"type": "note_off", "time": 1357, "note": 58, "velocity": 103, "channel": 0}, {"type": "note_on", "time": 308, "note": 63, "velocity": 114, "channel": 0}, {"type": "note_off", "time": 6912, "note": 63, "velocity": 114, "channel": 0}, {"type": "note_on", "time": 2571, "note": 61, "velocity": 106, "channel": 0}, {"type": "note_off", "time": 2406, "note": 61, "velocity": 106, "channel": 0}, {"type": "note_on", "time": 41, "note": 63, "velocity": 111, "channel": 0}, {"type": "note_off", "time": 6109, "note": 63, "velocity": 111, "channel": 0}, {"type": "note_on", "time": 411, "note": 59, "velocity": 92, "channel": 0}, {"type": "note_off", "time": 1563, "note": 59, "velocity": 92, "channel": 0}, {"type": "note_on", "time": 123, "note": 61, "velocity": 113, "channel": 0}, {"type": "note_off", "time": 2242, "note": 61, "velocity": 113, "channel": 0}, {"type": "note_on", "time": 185, "note": 63, "velocity": 112, "channel": 0}, {"type": "note_off", "time": 5019, "note": 63, "velocity": 112, "channel": 0}, {"type": "note_on", "time": 143, "note": 58, "velocity": 91, "channel": 0}, {"type": "note_off", "time": 1110, "note": 58, "velocity": 91, "channel": 0}, {"type": "note_on", "time": 658, "note": 61, "velocity": 116, "channel": 0}, {"type": "note_off", "time": 2756, "note": 61, "velocity": 116, "channel": 0}, {"type": "note_on", "time": 123, "note": 63, "velocity": 109, "channel": 0}, {"type": "note_off", "time": 10162, "note": 63, "velocity": 109, "channel": 0}, {"type": "note_on", "time": 13371, "note": 63, "velocity": 114, "channel": 0}, {"type": "note_off", "time": 2118, "note": 63, "velocity": 114, "channel": 0}, {"type": "note_on", "time": 164, "note": 66, "velocity": 120, "channel": 0}, {"type": "note_off", "time": 1892, "note": 66, "velocity": 120, "channel": 0}, {"type": "note_on", "time": 41, "note": 68, "velocity": 119, "channel": 0}, {"type": "note_off", "time": 5369, "note": 68, "velocity": 119, "channel": 0}, {"type": "note_on", "time": 102, "note": 63, "velocity": 108, "channel": 0}, {"type": "note_off", "time": 1419, "note": 63, "velocity": 108, "channel": 0}, {"type": "note_on", "time": 185, "note": 66, "velocity": 113, "channel": 0}, {"type": "note_off", "time": 1769, "note": 66, "velocity": 113, "channel": 0}, {"type": "note_on", "time": 390, "note": 68, "velocity": 120, "channel": 0}, {"type": "note_off", "time": 10121, "note": 68, "velocity": 120, "channel": 0}, {"type": "note_on", "time": 75, "note": 70, "velocity": 116, "channel": 0}, {"type": "note_off", "time": 1287, "note": 70, "velocity": 116, "channel": 0}, {"type": "note_on", "time": 29, "note": 68, "velocity": 114, "channel": 0}, {"type": "note_off", "time": 804, "note": 68, "velocity": 114, "channel": 0}, {"type": "note_on", "time": 43, "note": 66, "velocity": 113, "channel": 0}, {"type": "note_off", "time": 2077, "note": 66, "velocity": 113, "channel": 0}, {"type": "note_on", "time": 58, "note": 68, "velocity": 120, "channel": 0}, {"type": "note_off", "time": 6012, "note": 68, "velocity": 120, "channel": 0}, {"type": "note_on", "time": 117, "note": 70, "velocity": 110, "channel": 0}, {"type": "note_off", "time": 1594, "note": 70, "velocity": 110, "channel": 0}, {"type": "note_on", "time": 29, "note": 68, "velocity": 118, "channel": 0}, {"type": "note_off", "time": 1126, "note": 68, "velocity": 118, "channel": 0}, {"type": "note_on", "time": 117, "note": 66, "velocity": 114, "channel": 0}, {"type": "note_off", "time": 1857, "note": 66, "velocity": 114, "channel": 0}, {"type": "note_on", "time": 87, "note": 68, "velocity": 118, "channel": 0}, {"type": "note_off", "time": 3627, "note": 68, "velocity": 118, "channel": 0}, {"type": "note_on", "time": 9011, "note": 70, "velocity": 117, "channel": 0}, {"type": "note_off", "time": 1960, "note": 70, "velocity": 117, "channel": 0}, {"type": "note_on", "time": 87, "note": 68, "velocity": 120, "channel": 0}, {"type": "note_off", "time": 906, "note": 68, "velocity": 120, "channel": 0}, {"type": "note_on", "time": 102, "note": 66, "velocity": 113, "channel": 0}, {"type": "note_off", "time": 1214, "note": 66, "velocity": 113, "channel": 0}, {"type": "note_on", "time": 58, "note": 63, "velocity": 108, "channel": 0}, {"type": "note_off", "time": 3744, "note": 63, "velocity": 108, "channel": 0}, {"type": "note_on", "time": 5237, "note": 63, "velocity": 114, "channel": 0}, {"type": "note_off", "time": 1389, "note": 63, "velocity": 114, "channel": 0}, {"type": "note_on", "time": 29, "note": 66, "velocity": 117, "channel": 0}, {"type": "note_off", "time": 1389, "note": 66, "velocity": 117, "channel": 0}, {"type": "note_on", "time": 117, "note": 68, "velocity": 116, "channel": 0}, {"type": "note_off", "time": 980, "note": 68, "velocity": 116, "channel": 0}, {"type": "note_on", "time": 29, "note": 70, "velocity": 118, "channel": 0}, {"type": "note_off", "time": 1594, "note": 70, "velocity": 118, "channel": 0}, {"type": "note_on", "time": 29, "note": 68, "velocity": 119, "channel": 0}, {"type": "note_off", "time": 1170, "note": 68, "velocity": 119, "channel": 0}, {"type": "note_on", "time": 73, "note": 66, "velocity": 114, "channel": 0}, {"type": "note_off", "time": 1740, "note": 66, "velocity": 114, "channel": 0}, {"type": "note_on", "time": 43, "note": 63, "velocity": 110, "channel": 0}, {"type": "note_off", "time": 4198, "note": 63, "velocity": 110, "channel": 0}, {"type": "note_on", "time": 43, "note": 66, "velocity": 117, "channel": 0}, {"type": "note_off", "time": 1492, "note": 66, "velocity": 117, "channel": 0}, {"type": "note_on", "time": 29, "note": 68, "velocity": 120, "channel": 0}, {"type": "note_off", "time": 1301, "note": 68, "velocity": 120, "channel": 0}, {"type": "note_on", "time": 73, "note": 70, "velocity": 116, "channel": 0}, {"type": "note_off", "time": 1813, "note": 70, "velocity": 116, "channel": 0}, {"type": "note_on", "time": 29, "note": 68, "velocity": 115, "channel": 0}, {"type": "note_off", "time": 672, "note": 68, "velocity": 115, "channel": 0}, {"type": "note_on", "time": 29, "note": 66, "velocity": 117, "channel": 0}, {"type": "note_off", "time": 2223, "note": 66, "velocity": 117, "channel": 0}, {"type": "note_on", "time": 190, "note": 63, "velocity": 110, "channel": 0}, {"type": "note_off", "time": 2457, "note": 63, "velocity": 110, "channel": 0}, {"type": "note_on", "time": 1153, "note": 66, "velocity": 117, "channel": 0}, {"type": "note_off", "time": 1679, "note": 66, "velocity": 117, "channel": 0}, {"type": "note_on", "time": 85, "note": 68, "velocity": 116, "channel": 0}, {"type": "note_off", "time": 966, "note": 68, "velocity": 116, "channel": 0}, {"type": "note_on", "time": 123, "note": 70, "velocity": 116, "channel": 0}, {"type": "note_off", "time": 1419, "note": 70, "velocity": 116, "channel": 0}, {"type": "note_on", "time": 185, "note": 68, "velocity": 121, "channel": 0}, {"type": "note_off", "time": 1069, "note": 68, "velocity": 121, "channel": 0}, {"type": "note_on", "time": 267, "note": 66, "velocity": 115, "channel": 0}, {"type": "note_off", "time": 2756, "note": 66, "velocity": 115, "channel": 0}, {"type": "note_on", "time": 22753, "note": 63, "velocity": 110, "channel": 0}, {"type": "note_off", "time": 2135, "note": 63, "velocity": 110, "channel": 0}, {"type": "note_on", "time": 87, "note": 67, "velocity": 113, "channel": 0}, {"type": "note_off", "time": 3364, "note": 67, "velocity": 113, "channel": 0}, {"type": "note_on", "time": 9735, "note": 63, "velocity": 112, "channel": 0}, {"type": "note_off", "time": 2160, "note": 63, "velocity": 112, "channel": 0}, {"type": "note_on", "time": 144, "note": 61, "velocity": 116, "channel": 0}, {"type": "note_off", "time": 1748, "note": 61, "velocity": 116, "channel": 0}, {"type": "note_on", "time": 123, "note": 63, "velocity": 111, "channel": 0}, {"type": "note_off", "time": 1707, "note": 63, "velocity": 111, "channel": 0}, {"type": "note_on", "time": 205, "note": 67, "velocity": 123, "channel": 0}, {"type": "note_off", "time": 2509, "note": 67, "velocity": 123, "channel": 0}, {"type": "note_on", "time": 61, "note": 68, "velocity": 120, "channel": 0}, {"type": "note_off", "time": 3764, "note": 68, "velocity": 120, "channel": 0}, {"type": "note_on", "time": 10882, "note": 63, "velocity": 109, "channel": 0}, {"type": "note_off", "time": 1728, "note": 63, "velocity": 109, "channel": 0}, {"type": "note_on", "time": 102, "note": 61, "velocity": 114, "channel": 0}, {"type": "note_off", "time": 1625, "note": 61, "velocity": 114, "channel": 0}, {"type": "note_on", "time": 20, "note": 63, "velocity": 106, "channel": 0}, {"type": "note_off", "time": 1728, "note": 63, "velocity": 106, "channel": 0}, {"type": "note_on", "time": 61, "note": 67, "velocity": 124, "channel": 0}, {"type": "note_off", "time": 1789, "note": 67, "velocity": 124, "channel": 0}, {"type": "note_on", "time": 82, "note": 68, "velocity": 121, "channel": 0}, {"type": "note_off", "time": 1892, "note": 68, "velocity": 121, "channel": 0}, {"type": "note_on", "time": 61, "note": 67, "velocity": 120, "channel": 0}, {"type": "note_off", "time": 1995, "note": 67, "velocity": 120, "channel": 0}, {"type": "note_on", "time": 144, "note": 63, "velocity": 109, "channel": 0}, {"type": "note_off", "time": 1583, "note": 63, "velocity": 109, "channel": 0}, {"type": "note_on", "time": 288, "note": 61, "velocity": 110, "channel": 0}, {"type": "note_off", "time": 2756, "note": 61, "velocity": 110, "channel": 0}, {"type": "note_on", "time": 7913, "note": 63, "velocity": 102, "channel": 0}, {"type": "note_off", "time": 1170, "note": 63, "velocity": 102, "channel": 0}, {"type": "note_on", "time": 0, "note": 61, "velocity": 108, "channel": 0}, {"type": "note_off", "time": 1579, "note": 61, "velocity": 108, "channel": 0}, {"type": "note_on", "time": 146, "note": 63, "velocity": 101, "channel": 0}, {"type": "note_off", "time": 1726, "note": 63, "velocity": 101, "channel": 0}, {"type": "note_on", "time": 87, "note": 67, "velocity": 124, "channel": 0}, {"type": "note_off", "time": 1770, "note": 67, "velocity": 124, "channel": 0}, {"type": "note_on", "time": 29, "note": 68, "velocity": 121, "channel": 0}, {"type": "note_off", "time": 1579, "note": 68, "velocity": 121, "channel": 0}, {"type": "note_on", "time": 14, "note": 67, "velocity": 120, "channel": 0}, {"type": "note_off", "time": 1375, "note": 67, "velocity": 120, "channel": 0}, {"type": "note_on", "time": 102, "note": 63, "velocity": 104, "channel": 0}, {"type": "note_off", "time": 1389, "note": 63, "velocity": 104, "channel": 0}, {"type": "note_on", "time": 73, "note": 61, "velocity": 111, "channel": 0}, {"type": "note_off", "time": 1565, "note": 61, "velocity": 111, "channel": 0}, {"type": "note_on", "time": 29, "note": 60, "velocity": 113, "channel": 0}, {"type": "note_off", "time": 921, "note": 60, "velocity": 113, "channel": 0}, {"type": "note_on", "time": 716, "note": 55, "velocity": 111, "channel": 0}, {"type": "note_off", "time": 1375, "note": 55, "velocity": 111, "channel": 0}, {"type": "note_on", "time": 58, "note": 53, "velocity": 113, "channel": 0}, {"type": "note_off", "time": 1155, "note": 53, "velocity": 113, "channel": 0}, {"type": "note_on", "time": 43, "note": 51, "velocity": 116, "channel": 0}, {"type": "note_off", "time": 2018, "note": 51, "velocity": 116, "channel": 0}, {"type": "note_on", "time": 234, "note": 49, "velocity": 121, "channel": 0}, {"type": "note_off", "time": 2004, "note": 49, "velocity": 121, "channel": 0}, {"type": "note_on", "time": 14, "note": 51, "velocity": 105, "channel": 0}, {"type": "note_off", "time": 3510, "note": 51, "velocity": 105, "channel": 0}, {"type": "note_on", "time": 22236, "note": 58, "velocity": 9, "channel": 0}, {"type": "note_off", "time": 9216, "note": 58, "velocity": 9, "channel": 0}, {"type": "note_on", "time": 267, "note": 63, "velocity": 112, "channel": 0}, {"type": "note_off", "time": 5842, "note": 63, "velocity": 112, "channel": 0}, {"type": "note_on", "time": 102, "note": 66, "velocity": 121, "channel": 0}, {"type": "note_off", "time": 2921, "note": 66, "velocity": 121, "channel": 0}, {"type": "note_on", "time": 82, "note": 67, "velocity": 116, "channel": 0}, {"type": "note_off", "time": 8578, "note": 67, "velocity": 116, "channel": 0}, {"type": "note_on", "time": 61, "note": 70, "velocity": 112, "channel": 0}, {"type": "note_off", "time": 2427, "note": 70, "velocity": 112, "channel": 0}, {"type": "note_on", "time": 267, "note": 75, "velocity": 112, "channel": 0}, {"type": "note_off", "time": 5513, "note": 75, "velocity": 112, "channel": 0}, {"type": "note_on", "time": 54493, "note": 79, "velocity": 117, "channel": 0}, {"type": "note_off", "time": 6192, "note": 79, "velocity": 117, "channel": 0}, {"type": "note_on", "time": 15780, "note": 75, "velocity": 114, "channel": 0}, {"type": "note_off", "time": 6114, "note": 75, "velocity": 114, "channel": 0}, {"type": "note_on", "time": 292, "note": 73, "velocity": 97, "channel": 0}, {"type": "note_off", "time": 2457, "note": 73, "velocity": 97, "channel": 0}, {"type": "note_on", "time": 146, "note": 75, "velocity": 115, "channel": 0}, {"type": "note_off", "time": 10093, "note": 75, "velocity": 115, "channel": 0}, {"type": "note_on", "time": 204, "note": 78, "velocity": 114, "channel": 0}, {"type": "note_off", "time": 5441, "note": 78, "velocity": 114, "channel": 0}, {"type": "note_on", "time": 263, "note": 75, "velocity": 109, "channel": 0}, {"type": "note_off", "time": 2574, "note": 75, "velocity": 109, "channel": 0}, {"type": "note_on", "time": 48543, "note": 71, "velocity": 121, "channel": 0}, {"type": "note_off", "time": 1398, "note": 71, "velocity": 121, "channel": 0}, {"type": "note_on", "time": 82, "note": 73, "velocity": 121, "channel": 0}, {"type": "note_off", "time": 2982, "note": 73, "velocity": 121, "channel": 0}, {"type": "note_on", "time": 61, "note": 72, "velocity": 115, "channel": 0}, {"type": "note_off", "time": 1131, "note": 72, "velocity": 115, "channel": 0}, {"type": "note_on", "time": 20, "note": 73, "velocity": 118, "channel": 0}, {"type": "note_off", "time": 2530, "note": 73, "velocity": 118, "channel": 0}, {"type": "note_on", "time": 102, "note": 72, "velocity": 115, "channel": 0}, {"type": "note_off", "time": 3456, "note": 72, "velocity": 115, "channel": 0}, {"type": "note_on", "time": 82, "note": 70, "velocity": 118, "channel": 0}, {"type": "note_off", "time": 5122, "note": 70, "velocity": 118, "channel": 0}, {"type": "note_on", "time": 82, "note": 72, "velocity": 115, "channel": 0}, {"type": "note_off", "time": 1398, "note": 72, "velocity": 115, "channel": 0}, {"type": "note_on", "time": 61, "note": 70, "velocity": 120, "channel": 0}, {"type": "note_off", "time": 2859, "note": 70, "velocity": 120, "channel": 0}, {"type": "note_on", "time": 82, "note": 68, "velocity": 118, "channel": 0}, {"type": "note_off", "time": 4710, "note": 68, "velocity": 118, "channel": 0}, {"type": "note_on", "time": 61, "note": 67, "velocity": 116, "channel": 0}, {"type": "note_off", "time": 4443, "note": 67, "velocity": 116, "channel": 0}, {"type": "note_on", "time": 452, "note": 63, "velocity": 101, "channel": 0}, {"type": "note_off", "time": 6809, "note": 63, "velocity": 101, "channel": 0}, {"type": "note_on", "time": 144, "note": 60, "velocity": 80, "channel": 0}, {"type": "note_off", "time": 2283, "note": 60, "velocity": 80, "channel": 0}, {"type": "note_on", "time": 82, "note": 63, "velocity": 109, "channel": 0}, {"type": "note_off", "time": 10553, "note": 63, "velocity": 109, "channel": 0}, {"type": "note_on", "time": 61, "note": 61, "velocity": 111, "channel": 0}, {"type": "note_off", "time": 2674, "note": 61, "velocity": 111, "channel": 0}, {"type": "note_on", "time": 61, "note": 63, "velocity": 107, "channel": 0}, {"type": "note_off", "time": 1090, "note": 63, "velocity": 107, "channel": 0}, {"type": "note_on", "time": 82, "note": 61, "velocity": 116, "channel": 0}, {"type": "note_off", "time": 1563, "note": 61, "velocity": 116, "channel": 0}, {"type": "note_on", "time": 61, "note": 58, "velocity": 115, "channel": 0}, {"type": "note_off", "time": 3908, "note": 58, "velocity": 115, "channel": 0}, {"type": "note_on", "time": 164, "note": 56, "velocity": 116, "channel": 0}, {"type": "note_off", "time": 10203, "note": 56, "velocity": 116, "channel": 0}, {"type": "note_on", "time": 205, "note": 54, "velocity": 111, "channel": 0}, {"type": "note_off", "time": 3024, "note": 54, "velocity": 111, "channel": 0}, {"type": "note_on", "time": 143, "note": 51, "velocity": 94, "channel": 0}, {"type": "note_off", "time": 1131, "note": 51, "velocity": 94, "channel": 0}, {"type": "note_on", "time": 22669, "note": 58, "velocity": 102, "channel": 0}, {"type": "note_off", "time": 2406, "note": 58, "velocity": 102, "channel": 0}, {"type": "note_on", "time": 15344, "note": 58, "velocity": 108, "channel": 0}, {"type": "note_off", "time": 3510, "note": 58, "velocity": 108, "channel": 0}, {"type": "note_on", "time": 175, "note": 60, "velocity": 95, "channel": 0}, {"type": "note_off", "time": 2837, "note": 60, "velocity": 95, "channel": 0}, {"type": "note_on", "time": 175, "note": 63, "velocity": 100, "channel": 0}, {"type": "note_off", "time": 1579, "note": 63, "velocity": 100, "channel": 0}, {"type": "note_on", "time": 702, "note": 66, "velocity": 116, "channel": 0}, {"type": "note_off", "time": 3306, "note": 66, "velocity": 116, "channel": 0}, {"type": "note_on", "time": 731, "note": 68, "velocity": 119, "channel": 0}, {"type": "note_off", "time": 2867, "note": 68, "velocity": 119, "channel": 0}, {"type": "note_on", "time": 117, "note": 70, "velocity": 110, "channel": 0}, {"type": "note_off", "time": 3423, "note": 70, "velocity": 110, "channel": 0}, {"type": "note_on", "time": 146, "note": 68, "velocity": 118, "channel": 0}, {"type": "note_off", "time": 3130, "note": 68, "velocity": 118, "channel": 0}, {"type": "note_on", "time": 321, "note": 66, "velocity": 111, "channel": 0}, {"type": "note_off", "time": 5939, "note": 66, "velocity": 111, "channel": 0}, {"type": "note_on", "time": 3452, "note": 63, "velocity": 104, "channel": 0}, {"type": "note_off", "time": 3335, "note": 63, "velocity": 104, "channel": 0}, {"type": "note_on", "time": 146, "note": 60, "velocity": 106, "channel": 0}, {"type": "note_off", "time": 1696, "note": 60, "velocity": 106, "channel": 0}, {"type": "note_on", "time": 237, "note": 63, "velocity": 95, "channel": 0}, {"type": "note_off", "time": 1481, "note": 63, "velocity": 95, "channel": 0}, {"type": "note_on", "time": 10452, "note": 63, "velocity": 99, "channel": 0}, {"type": "note_off", "time": 2954, "note": 63, "velocity": 99, "channel": 0}, {"type": "note_on", "time": 4242, "note": 64, "velocity": 92, "channel": 0}, {"type": "note_off", "time": 1784, "note": 64, "velocity": 92, "channel": 0}, {"type": "note_on", "time": 263, "note": 67, "velocity": 122, "channel": 0}, {"type": "note_off", "time": 3276, "note": 67, "velocity": 122, "channel": 0}, {"type": "note_on", "time": 380, "note": 68, "velocity": 123, "channel": 0}, {"type": "note_off", "time": 5090, "note": 68, "velocity": 123, "channel": 0}, {"type": "note_on", "time": 117, "note": 70, "velocity": 122, "channel": 0}, {"type": "note_off", "time": 4271, "note": 70, "velocity": 122, "channel": 0}, {"type": "note_on", "time": 438, "note": 70, "velocity": 118, "channel": 0}, {"type": "note_off", "time": 6933, "note": 70, "velocity": 118, "channel": 0}, {"type": "note_on", "time": 146, "note": 68, "velocity": 108, "channel": 0}, {"type": "note_off", "time": 2545, "note": 68, "velocity": 108, "channel": 0}, {"type": "note_on", "time": 146, "note": 70, "velocity": 112, "channel": 0}, {"type": "note_off", "time": 11615, "note": 70, "velocity": 112, "channel": 0}, {"type": "note_on", "time": 46226, "note": 68, "velocity": 116, "channel": 0}, {"type": "note_off", "time": 4622, "note": 68, "velocity": 116, "channel": 0}, {"type": "note_on", "time": 468, "note": 63, "velocity": 97, "channel": 0}, {"type": "note_off", "time": 2018, "note": 63, "velocity": 97, "channel": 0}, {"type": "note_on", "time": 21825, "note": 63, "velocity": 101, "channel": 0}, {"type": "note_off", "time": 3306, "note": 63, "velocity": 101, "channel": 0}, {"type": "note_on", "time": 3481, "note": 60, "velocity": 90, "channel": 0}, {"type": "note_off", "time": 1550, "note": 60, "velocity": 90, "channel": 0}, {"type": "note_on", "time": 146, "note": 63, "velocity": 95, "channel": 0}, {"type": "note_off", "time": 1316, "note": 63, "velocity": 95, "channel": 0}, {"type": "note_on", "time": 175, "note": 66, "velocity": 116, "channel": 0}, {"type": "note_off", "time": 2633, "note": 66, "velocity": 116, "channel": 0}, {"type": "note_on", "time": 234, "note": 68, "velocity": 116, "channel": 0}, {"type": "note_off", "time": 2808, "note": 68, "velocity": 116, "channel": 0}, {"type": "note_on", "time": 3452, "note": 70, "velocity": 117, "channel": 0}, {"type": "note_off", "time": 3130, "note": 70, "velocity": 117, "channel": 0}, {"type": "note_on", "time": 819, "note": 63, "velocity": 98, "channel": 0}, {"type": "note_off", "time": 2252, "note": 63, "velocity": 98, "channel": 0}, {"type": "note_on", "time": 555, "note": 60, "velocity": 91, "channel": 0}, {"type": "note_off", "time": 2399, "note": 60, "velocity": 91, "channel": 0}, {"type": "note_on", "time": 9203, "note": 63, "velocity": 94, "channel": 0}, {"type": "note_off", "time": 1275, "note": 63, "velocity": 94, "channel": 0}, {"type": "note_on", "time": 82, "note": 67, "velocity": 117, "channel": 0}, {"type": "note_off", "time": 3126, "note": 67, "velocity": 117, "channel": 0}, {"type": "note_on", "time": 82, "note": 65, "velocity": 105, "channel": 0}, {"type": "note_off", "time": 2530, "note": 65, "velocity": 105, "channel": 0}, {"type": "note_on", "time": 4978, "note": 63, "velocity": 107, "channel": 0}, {"type": "note_off", "time": 2756, "note": 63, "velocity": 107, "channel": 0}, {"type": "note_on", "time": 82, "note": 61, "velocity": 98, "channel": 0}, {"type": "note_off", "time": 3517, "note": 61, "velocity": 98, "channel": 0}, {"type": "note_on", "time": 843, "note": 58, "velocity": 107, "channel": 0}, {"type": "note_off", "time": 5492, "note": 58, "velocity": 107, "channel": 0}, {"type": "note_on", "time": 3456, "note": 58, "velocity": 110, "channel": 0}, {"type": "note_off", "time": 1501, "note": 58, "velocity": 110, "channel": 0}, {"type": "note_on", "time": 164, "note": 61, "velocity": 113, "channel": 0}, {"type": "note_off", "time": 1995, "note": 61, "velocity": 113, "channel": 0}, {"type": "note_on", "time": 102, "note": 63, "velocity": 107, "channel": 0}, {"type": "note_off", "time": 8002, "note": 63, "velocity": 107, "channel": 0}, {"type": "note_on", "time": 82, "note": 61, "velocity": 106, "channel": 0}, {"type": "note_off", "time": 1810, "note": 61, "velocity": 106, "channel": 0}, {"type": "note_on", "time": 61, "note": 63, "velocity": 110, "channel": 0}, {"type": "note_off", "time": 6994, "note": 63, "velocity": 110, "channel": 0}, {"type": "note_on", "time": 70, "note": 58, "velocity": 96, "channel": 0}, {"type": "note_off", "time": 925, "note": 58, "velocity": 96, "channel": 0}, {"type": "note_on", "time": 50, "note": 61, "velocity": 114, "channel": 0}, {"type": "note_off", "time": 2132, "note": 61, "velocity": 114, "channel": 0}, {"type": "note_on", "time": 51, "note": 63, "velocity": 109, "channel": 0}, {"type": "note_off", "time": 6500, "note": 63, "velocity": 109, "channel": 0}, {"type": "note_on", "time": 0, "note": 58, "velocity": 99, "channel": 0}, {"type": "note_off", "time": 1481, "note": 58, "velocity": 99, "channel": 0}, {"type": "note_on", "time": 133, "note": 61, "velocity": 117, "channel": 0}, {"type": "note_off", "time": 2152, "note": 61, "velocity": 117, "channel": 0}, {"type": "note_on", "time": 186, "note": 63, "velocity": 104, "channel": 0}, {"type": "note_off", "time": 10210, "note": 63, "velocity": 104, "channel": 0}, {"type": "note_on", "time": 17232, "note": 66, "velocity": 113, "channel": 0}, {"type": "note_off", "time": 2633, "note": 66, "velocity": 113, "channel": 0}, {"type": "note_on", "time": 117, "note": 68, "velocity": 110, "channel": 0}, {"type": "note_off", "time": 2457, "note": 68, "velocity": 110, "channel": 0}, {"type": "note_on", "time": 61192, "note": 66, "velocity": 113, "channel": 0}, {"type": "note_off", "time": 1686, "note": 66, "velocity": 113, "channel": 0}, {"type": "note_on", "time": 185, "note": 67, "velocity": 114, "channel": 0}, {"type": "note_off", "time": 3600, "note": 67, "velocity": 114, "channel": 0}, {"type": "note_on", "time": 102, "note": 70, "velocity": 107, "channel": 0}, {"type": "note_off", "time": 1357, "note": 70, "velocity": 107, "channel": 0}, {"type": "note_on", "time": 41, "note": 72, "velocity": 116, "channel": 0}, {"type": "note_off", "time": 3106, "note": 72, "velocity": 116, "channel": 0}, {"type": "note_on", "time": 102, "note": 70, "velocity": 102, "channel": 0}, {"type": "note_off", "time": 1254, "note": 70, "velocity": 102, "channel": 0}, {"type": "note_on", "time": 41, "note": 73, "velocity": 120, "channel": 0}, {"type": "note_off", "time": 3538, "note": 73, "velocity": 120, "channel": 0}, {"type": "note_on", "time": 102, "note": 72, "velocity": 115, "channel": 0}, {"type": "note_off", "time": 2016, "note": 72, "velocity": 115, "channel": 0}, {"type": "note_on", "time": 843, "note": 70, "velocity": 109, "channel": 0}, {"type": "note_off", "time": 5184, "note": 70, "velocity": 109, "channel": 0}, {"type": "note_on", "time": 27611, "note": 75, "velocity": 124, "channel": 0}, {"type": "note_off", "time": 3423, "note": 75, "velocity": 124, "channel": 0}, {"type": "note_on", "time": 643, "note": 75, "velocity": 111, "channel": 0}, {"type": "note_off", "time": 3423, "note": 75, "velocity": 111, "channel": 0}, {"type": "note_on", "time": 204, "note": 73, "velocity": 108, "channel": 0}, {"type": "note_off", "time": 1521, "note": 73, "velocity": 108, "channel": 0}, {"type": "note_on", "time": 175, "note": 75, "velocity": 116, "channel": 0}, {"type": "note_off", "time": 4622, "note": 75, "velocity": 116, "channel": 0}, {"type": "note_on", "time": 117, "note": 78, "velocity": 112, "channel": 0}, {"type": "note_off", "time": 2282, "note": 78, "velocity": 112, "channel": 0}, {"type": "note_on", "time": 438, "note": 75, "velocity": 116, "channel": 0}, {"type": "note_off", "time": 9567, "note": 75, "velocity": 116, "channel": 0}, {"type": "note_on", "time": 146, "note": 73, "velocity": 112, "channel": 0}, {"type": "note_off", "time": 2135, "note": 73, "velocity": 112, "channel": 0}, {"type": "note_on", "time": 204, "note": 75, "velocity": 114, "channel": 0}, {"type": "note_off", "time": 2750, "note": 75, "velocity": 114, "channel": 0}, {"type": "note_on", "time": 87, "note": 73, "velocity": 106, "channel": 0}, {"type": "note_off", "time": 1989, "note": 73, "velocity": 106, "channel": 0}, {"type": "note_on", "time": 25746, "note": 80, "velocity": 118, "channel": 0}, {"type": "note_off", "time": 5266, "note": 80, "velocity": 118, "channel": 0}, {"type": "note_on", "time": 3569, "note": 78, "velocity": 113, "channel": 0}, {"type": "note_off", "time": 5266, "note": 78, "velocity": 113, "channel": 0}, {"type": "note_on", "time": 4710, "note": 75, "velocity": 112, "channel": 0}, {"type": "note_off", "time": 10591, "note": 75, "velocity": 112, "channel": 0}, {"type": "note_on", "time": 146, "note": 73, "velocity": 116, "channel": 0}, {"type": "note_off", "time": 4388, "note": 73, "velocity": 116, "channel": 0}, {"type": "note_on", "time": 468, "note": 70, "velocity": 115, "channel": 0}, {"type": "note_off", "time": 4417, "note": 70, "velocity": 115, "channel": 0}, {"type": "note_on", "time": 848, "note": 69, "velocity": 114, "channel": 0}, {"type": "note_off", "time": 1901, "note": 69, "velocity": 114, "channel": 0}, {"type": "note_on", "time": 146, "note": 70, "velocity": 114, "channel": 0}, {"type": "note_off", "time": 1989, "note": 70, "velocity": 114, "channel": 0}, {"type": "note_on", "time": 117, "note": 69, "velocity": 106, "channel": 0}, {"type": "note_off", "time": 1989, "note": 69, "velocity": 106, "channel": 0}, {"type": "note_on", "time": 321, "note": 63, "velocity": 102, "channel": 0}, {"type": "note_off", "time": 3657, "note": 63, "velocity": 102, "channel": 0}, {"type": "note_on", "time": 906, "note": 68, "velocity": 119, "channel": 0}, {"type": "note_off", "time": 4564, "note": 68, "velocity": 119, "channel": 0}, {"type": "note_on", "time": 351, "note": 70, "velocity": 113, "channel": 0}, {"type": "note_off", "time": 4300, "note": 70, "velocity": 113, "channel": 0}, {"type": "note_on", "time": 146, "note": 66, "velocity": 117, "channel": 0}, {"type": "note_off", "time": 1813, "note": 66, "velocity": 117, "channel": 0}, {"type": "note_on", "time": 0, "note": 67, "velocity": 117, "channel": 0}, {"type": "note_off", "time": 7402, "note": 67, "velocity": 117, "channel": 0}, {"type": "note_on", "time": 321, "note": 63, "velocity": 99, "channel": 0}, {"type": "note_off", "time": 5675, "note": 63, "velocity": 99, "channel": 0}, {"type": "note_on", "time": 3657, "note": 61, "velocity": 104, "channel": 0}, {"type": "note_off", "time": 10795, "note": 61, "velocity": 104, "channel": 0}, {"type": "note_on", "time": 175, "note": 63, "velocity": 113, "channel": 0}, {"type": "note_off", "time": 4944, "note": 63, "velocity": 113, "channel": 0}, {"type": "note_on", "time": 1258, "note": 58, "velocity": 83, "channel": 0}, {"type": "note_off", "time": 2077, "note": 58, "velocity": 83, "channel": 0}, {"type": "note_on", "time": 117, "note": 61, "velocity": 104, "channel": 0}, {"type": "note_off", "time": 8660, "note": 61, "velocity": 104, "channel": 0}, {"type": "note_on", "time": 146, "note": 63, "velocity": 104, "channel": 0}, {"type": "note_off", "time": 1901, "note": 63, "velocity": 104, "channel": 0}, {"type": "note_on", "time": 117, "note": 66, "velocity": 111, "channel": 0}, {"type": "note_off", "time": 6114, "note": 66, "velocity": 111, "channel": 0}, {"type": "note_on", "time": 263, "note": 68, "velocity": 117, "channel": 0}, {"type": "note_off", "time": 15564, "note": 68, "velocity": 117, "channel": 0}, {"type": "note_on", "time": 181, "note": 66, "velocity": 101, "channel": 0}, {"type": "note_off", "time": 1707, "note": 66, "velocity": 101, "channel": 0}, {"type": "note_on", "time": 123, "note": 63, "velocity": 104, "channel": 0}, {"type": "note_off", "time": 2036, "note": 63, "velocity": 104, "channel": 0}, {"type": "note_on", "time": 308, "note": 58, "velocity": 96, "channel": 0}, {"type": "note_off", "time": 1419, "note": 58, "velocity": 96, "channel": 0}, {"type": "note_on", "time": 678, "note": 61, "velocity": 109, "channel": 0}, {"type": "note_off", "time": 3003, "note": 61, "velocity": 109, "channel": 0}, {"type": "note_on", "time": 226, "note": 63, "velocity": 105, "channel": 0}, {"type": "note_off", "time": 4114, "note": 63, "velocity": 105, "channel": 0}, {"type": "note_on", "time": 18802, "note": 58, "velocity": 106, "channel": 0}, {"type": "note_off", "time": 1542, "note": 58, "velocity": 106, "channel": 0}, {"type": "note_on", "time": 61, "note": 57, "velocity": 95, "channel": 0}, {"type": "note_off", "time": 1810, "note": 57, "velocity": 95, "channel": 0}, {"type": "note_on", "time": 61, "note": 55, "velocity": 93, "channel": 0}, {"type": "note_off", "time": 884, "note": 55, "velocity": 93, "channel": 0}, {"type": "note_on", "time": 102, "note": 56, "velocity": 95, "channel": 0}, {"type": "note_off", "time": 1213, "note": 56, "velocity": 95, "channel": 0}, {"type": "note_on", "time": 123, "note": 60, "velocity": 94, "channel": 0}, {"type": "note_off", "time": 2448, "note": 60, "velocity": 94, "channel": 0}, {"type": "note_on", "time": 205, "note": 63, "velocity": 113, "channel": 0}, {"type": "note_off", "time": 2756, "note": 63, "velocity": 113, "channel": 0}, {"type": "note_on", "time": 123, "note": 66, "velocity": 113, "channel": 0}, {"type": "note_off", "time": 2880, "note": 66, "velocity": 113, "channel": 0}, {"type": "note_on", "time": 123, "note": 65, "velocity": 111, "channel": 0}, {"type": "note_off", "time": 2756, "note": 65, "velocity": 111, "channel": 0}, {"type": "note_on", "time": 21134, "note": 63, "velocity": 102, "channel": 0}, {"type": "note_off", "time": 2633, "note": 63, "velocity": 102, "channel": 0}, {"type": "note_on", "time": 146, "note": 60, "velocity": 97, "channel": 0}, {"type": "note_off", "time": 2282, "note": 60, "velocity": 97, "channel": 0}, {"type": "note_on", "time": 234, "note": 63, "velocity": 103, "channel": 0}, {"type": "note_off", "time": 2223, "note": 63, "velocity": 103, "channel": 0}, {"type": "note_on", "time": 117, "note": 66, "velocity": 118, "channel": 0}, {"type": "note_off", "time": 2048, "note": 66, "velocity": 118, "channel": 0}, {"type": "note_on", "time": 58, "note": 67, "velocity": 122, "channel": 0}, {"type": "note_off", "time": 4885, "note": 67, "velocity": 122, "channel": 0}, {"type": "note_on", "time": 117, "note": 63, "velocity": 100, "channel": 0}, {"type": "note_off", "time": 2282, "note": 63, "velocity": 100, "channel": 0}, {"type": "note_on", "time": 55787, "note": 68, "velocity": 114, "channel": 0}, {"type": "note_off", "time": 4690, "note": 68, "velocity": 114, "channel": 0}, {"type": "note_on", "time": 1234, "note": 63, "velocity": 101, "channel": 0}, {"type": "note_off", "time": 1769, "note": 63, "velocity": 101, "channel": 0}, {"type": "note_on", "time": 185, "note": 68, "velocity": 101, "channel": 0}, {"type": "note_off", "time": 2242, "note": 68, "velocity": 101, "channel": 0}, {"type": "note_on", "time": 123, "note": 72, "velocity": 117, "channel": 0}, {"type": "note_off", "time": 3126, "note": 72, "velocity": 117, "channel": 0}, {"type": "note_on", "time": 41, "note": 73, "velocity": 103, "channel": 0}, {"type": "note_off", "time": 966, "note": 73, "velocity": 103, "channel": 0}, {"type": "note_on", "time": 61, "note": 72, "velocity": 115, "channel": 0}, {"type": "note_off", "time": 1172, "note": 72, "velocity": 115, "channel": 0}, {"type": "note_on", "time": 61, "note": 68, "velocity": 119, "channel": 0}, {"type": "note_off", "time": 2036, "note": 68, "velocity": 119, "channel": 0}, {"type": "note_on", "time": 144, "note": 70, "velocity": 118, "channel": 0}, {"type": "note_off", "time": 2139, "note": 70, "velocity": 118, "channel": 0}, {"type": "note_on", "time": 144, "note": 72, "velocity": 114, "channel": 0}, {"type": "note_off", "time": 1254, "note": 72, "velocity": 114, "channel": 0}, {"type": "note_on", "time": 61, "note": 70, "velocity": 116, "channel": 0}, {"type": "note_off", "time": 1131, "note": 70, "velocity": 116, "channel": 0}, {"type": "note_on", "time": 123, "note": 67, "velocity": 122, "channel": 0}, {"type": "note_off", "time": 2283, "note": 67, "velocity": 122, "channel": 0}, {"type": "note_on", "time": 82, "note": 68, "velocity": 118, "channel": 0}, {"type": "note_off", "time": 5945, "note": 68, "velocity": 118, "channel": 0}, {"type": "note_on", "time": 267, "note": 66, "velocity": 112, "channel": 0}, {"type": "note_off", "time": 2674, "note": 66, "velocity": 112, "channel": 0}, {"type": "note_on", "time": 329, "note": 63, "velocity": 97, "channel": 0}, {"type": "note_off", "time": 2386, "note": 63, "velocity": 97, "channel": 0}, {"type": "note_on", "time": 26948, "note": 70, "velocity": 116, "channel": 0}, {"type": "note_off", "time": 3538, "note": 70, "velocity": 116, "channel": 0}, {"type": "note_on", "time": 123, "note": 72, "velocity": 104, "channel": 0}, {"type": "note_off", "time": 596, "note": 72, "velocity": 104, "channel": 0}, {"type": "note_on", "time": 82, "note": 75, "velocity": 117, "channel": 0}, {"type": "note_off", "time": 3147, "note": 75, "velocity": 117, "channel": 0}, {"type": "note_on", "time": 26082, "note": 70, "velocity": 117, "channel": 0}, {"type": "note_off", "time": 2238, "note": 70, "velocity": 117, "channel": 0}, {"type": "note_on", "time": 102, "note": 72, "velocity": 110, "channel": 0}, {"type": "note_off", "time": 1755, "note": 72, "velocity": 110, "channel": 0}, {"type": "note_on", "time": 58, "note": 70, "velocity": 117, "channel": 0}, {"type": "note_off", "time": 1711, "note": 70, "velocity": 117, "channel": 0}, {"type": "note_on", "time": 29, "note": 69, "velocity": 113, "channel": 0}, {"type": "note_off", "time": 2296, "note": 69, "velocity": 113, "channel": 0}, {"type": "note_on", "time": 73, "note": 72, "velocity": 107, "channel": 0}, {"type": "note_off", "time": 2647, "note": 72, "velocity": 107, "channel": 0}, {"type": "note_on", "time": 87, "note": 70, "velocity": 118, "channel": 0}, {"type": "note_off", "time": 1974, "note": 70, "velocity": 118, "channel": 0}, {"type": "note_on", "time": 73, "note": 67, "velocity": 110, "channel": 0}, {"type": "note_off", "time": 2486, "note": 67, "velocity": 110, "channel": 0}, {"type": "note_on", "time": 87, "note": 63, "velocity": 97, "channel": 0}, {"type": "note_off", "time": 2662, "note": 63, "velocity": 97, "channel": 0}, {"type": "note_on", "time": 11849, "note": 70, "velocity": 119, "channel": 0}, {"type": "note_off", "time": 2325, "note": 70, "velocity": 119, "channel": 0}, {"type": "note_on", "time": 102, "note": 72, "velocity": 111, "channel": 0}, {"type": "note_off", "time": 1536, "note": 72, "velocity": 111, "channel": 0}, {"type": "note_on", "time": 73, "note": 70, "velocity": 115, "channel": 0}, {"type": "note_off", "time": 892, "note": 70, "velocity": 115, "channel": 0}, {"type": "note_on", "time": 58, "note": 69, "velocity": 113, "channel": 0}, {"type": "note_off", "time": 1916, "note": 69, "velocity": 113, "channel": 0}, {"type": "note_on", "time": 29, "note": 72, "velocity": 109, "channel": 0}, {"type": "note_off", "time": 2252, "note": 72, "velocity": 109, "channel": 0}, {"type": "note_on", "time": 43, "note": 73, "velocity": 111, "channel": 0}, {"type": "note_off", "time": 1155, "note": 73, "velocity": 111, "channel": 0}, {"type": "note_on", "time": 87, "note": 72, "velocity": 111, "channel": 0}, {"type": "note_off", "time": 1111, "note": 72, "velocity": 111, "channel": 0}, {"type": "note_on", "time": 58, "note": 69, "velocity": 113, "channel": 0}, {"type": "note_off", "time": 1916, "note": 69, "velocity": 113, "channel": 0}, {"type": "note_on", "time": 43, "note": 70, "velocity": 114, "channel": 0}, {"type": "note_off", "time": 10678, "note": 70, "velocity": 114, "channel": 0}, {"type": "note_on", "time": 7021, "note": 70, "velocity": 9, "channel": 0}, {"type": "note_off", "time": 1579, "note": 70, "velocity": 9, "channel": 0}, {"type": "note_on", "time": 43, "note": 72, "velocity": 72, "channel": 0}, {"type": "note_off", "time": 1184, "note": 72, "velocity": 72, "channel": 0}, {"type": "note_on", "time": 87, "note": 70, "velocity": 121, "channel": 0}, {"type": "note_off", "time": 1638, "note": 70, "velocity": 121, "channel": 0}, {"type": "note_on", "time": 131, "note": 68, "velocity": 121, "channel": 0}, {"type": "note_off", "time": 2442, "note": 68, "velocity": 121, "channel": 0}, {"type": "note_on", "time": 87, "note": 72, "velocity": 113, "channel": 0}, {"type": "note_off", "time": 2516, "note": 72, "velocity": 113, "channel": 0}, {"type": "note_on", "time": 87, "note": 70, "velocity": 121, "channel": 0}, {"type": "note_off", "time": 2135, "note": 70, "velocity": 121, "channel": 0}, {"type": "note_on", "time": 73, "note": 68, "velocity": 119, "channel": 0}, {"type": "note_off", "time": 2442, "note": 68, "velocity": 119, "channel": 0}, {"type": "note_on", "time": 204, "note": 66, "velocity": 103, "channel": 0}, {"type": "note_off", "time": 2808, "note": 66, "velocity": 103, "channel": 0}, {"type": "note_on", "time": 10202, "note": 70, "velocity": 123, "channel": 0}, {"type": "note_off", "time": 2122, "note": 70, "velocity": 123, "channel": 0}, {"type": "note_on", "time": 20, "note": 72, "velocity": 114, "channel": 0}, {"type": "note_off", "time": 1418, "note": 72, "velocity": 114, "channel": 0}, {"type": "note_on", "time": 10, "note": 70, "velocity": 119, "channel": 0}, {"type": "note_off", "time": 1096, "note": 70, "velocity": 119, "channel": 0}, {"type": "note_on", "time": 22, "note": 68, "velocity": 122, "channel": 0}, {"type": "note_off", "time": 2282, "note": 68, "velocity": 122, "channel": 0}, {"type": "note_on", "time": 73, "note": 72, "velocity": 118, "channel": 0}, {"type": "note_off", "time": 1828, "note": 72, "velocity": 118, "channel": 0}, {"type": "note_on", "time": 43, "note": 73, "velocity": 116, "channel": 0}, {"type": "note_off", "time": 1770, "note": 73, "velocity": 116, "channel": 0}, {"type": "note_on", "time": 14, "note": 72, "velocity": 117, "channel": 0}, {"type": "note_off", "time": 863, "note": 72, "velocity": 117, "channel": 0}, {"type": "note_on", "time": 46, "note": 70, "velocity": 118, "channel": 0}, {"type": "note_off", "time": 2386, "note": 70, "velocity": 118, "channel": 0}, {"type": "note_on", "time": 41, "note": 73, "velocity": 117, "channel": 0}, {"type": "note_off", "time": 11478, "note": 73, "velocity": 117, "channel": 0}, {"type": "note_on", "time": 5225, "note": 70, "velocity": 120, "channel": 0}, {"type": "note_off", "time": 1623, "note": 70, "velocity": 120, "channel": 0}, {"type": "note_on", "time": 47, "note": 72, "velocity": 112, "channel": 0}, {"type": "note_off", "time": 1448, "note": 72, "velocity": 112, "channel": 0}, {"type": "note_on", "time": 80, "note": 70, "velocity": 123, "channel": 0}, {"type": "note_off", "time": 1739, "note": 70, "velocity": 123, "channel": 0}, {"type": "note_on", "time": 90, "note": 68, "velocity": 121, "channel": 0}, {"type": "note_off", "time": 2584, "note": 68, "velocity": 121, "channel": 0}, {"type": "note_on", "time": 50, "note": 72, "velocity": 119, "channel": 0}, {"type": "note_off", "time": 2464, "note": 72, "velocity": 119, "channel": 0}, {"type": "note_on", "time": 10, "note": 70, "velocity": 120, "channel": 0}, {"type": "note_off", "time": 2584, "note": 70, "velocity": 120, "channel": 0}, {"type": "note_on", "time": 191, "note": 68, "velocity": 120, "channel": 0}, {"type": "note_off", "time": 1961, "note": 68, "velocity": 120, "channel": 0}, {"type": "note_on", "time": 50, "note": 66, "velocity": 114, "channel": 0}, {"type": "note_off", "time": 2172, "note": 66, "velocity": 114, "channel": 0}, {"type": "note_on", "time": 12702, "note": 70, "velocity": 118, "channel": 0}, {"type": "note_off", "time": 2222, "note": 70, "velocity": 118, "channel": 0}, {"type": "note_on", "time": 10, "note": 72, "velocity": 110, "channel": 0}, {"type": "note_off", "time": 1468, "note": 72, "velocity": 110, "channel": 0}, {"type": "note_on", "time": 28, "note": 70, "velocity": 111, "channel": 0}, {"type": "note_off", "time": 2530, "note": 70, "velocity": 111, "channel": 0}, {"type": "note_on", "time": 61, "note": 69, "velocity": 104, "channel": 0}, {"type": "note_off", "time": 2427, "note": 69, "velocity": 104, "channel": 0}, {"type": "note_on", "time": 41, "note": 70, "velocity": 111, "channel": 0}, {"type": "note_off", "time": 1954, "note": 70, "velocity": 111, "channel": 0}, {"type": "note_on", "time": 20, "note": 72, "velocity": 113, "channel": 0}, {"type": "note_off", "time": 3435, "note": 72, "velocity": 113, "channel": 0}, {"type": "note_on", "time": 50, "note": 69, "velocity": 109, "channel": 0}, {"type": "note_off", "time": 1367, "note": 69, "velocity": 109, "channel": 0}, {"type": "note_on", "time": 20, "note": 70, "velocity": 120, "channel": 0}, {"type": "note_off", "time": 2634, "note": 70, "velocity": 120, "channel": 0}, {"type": "note_on", "time": 20, "note": 72, "velocity": 114, "channel": 0}, {"type": "note_off", "time": 1287, "note": 72, "velocity": 114, "channel": 0}, {"type": "note_on", "time": 30, "note": 70, "velocity": 117, "channel": 0}, {"type": "note_off", "time": 5300, "note": 70, "velocity": 117, "channel": 0}, {"type": "note_on", "time": 40, "note": 72, "velocity": 118, "channel": 0}, {"type": "note_off", "time": 3117, "note": 72, "velocity": 118, "channel": 0}, {"type": "note_on", "time": 30, "note": 70, "velocity": 122, "channel": 0}, {"type": "note_off", "time": 4535, "note": 70, "velocity": 122, "channel": 0}, {"type": "note_on", "time": 40, "note": 72, "velocity": 115, "channel": 0}, {"type": "note_off", "time": 1578, "note": 72, "velocity": 115, "channel": 0}, {"type": "note_on", "time": 40, "note": 70, "velocity": 122, "channel": 0}, {"type": "note_off", "time": 2041, "note": 70, "velocity": 122, "channel": 0}, {"type": "note_on", "time": 50, "note": 69, "velocity": 115, "channel": 0}, {"type": "note_off", "time": 1900, "note": 69, "velocity": 115, "channel": 0}, {"type": "note_on", "time": 30, "note": 70, "velocity": 117, "channel": 0}, {"type": "note_off", "time": 1589, "note": 70, "velocity": 117, "channel": 0}, {"type": "note_on", "time": 50, "note": 75, "velocity": 119, "channel": 0}, {"type": "note_off", "time": 2735, "note": 75, "velocity": 119, "channel": 0}, {"type": "note_on", "time": 34, "note": 70, "velocity": 120, "channel": 0}, {"type": "note_off", "time": 7182, "note": 70, "velocity": 120, "channel": 0}, {"type": "note_on", "time": 29, "note": 69, "velocity": 118, "channel": 0}, {"type": "note_off", "time": 1360, "note": 69, "velocity": 118, "channel": 0}, {"type": "note_on", "time": 21, "note": 70, "velocity": 115, "channel": 0}, {"type": "note_off", "time": 2805, "note": 70, "velocity": 115, "channel": 0}, {"type": "note_on", "time": 53, "note": 72, "velocity": 115, "channel": 0}, {"type": "note_off", "time": 2779, "note": 72, "velocity": 115, "channel": 0}, {"type": "note_on", "time": 73, "note": 70, "velocity": 117, "channel": 0}, {"type": "note_off", "time": 4403, "note": 70, "velocity": 117, "channel": 0}, {"type": "note_on", "time": 43, "note": 72, "velocity": 110, "channel": 0}, {"type": "note_off", "time": 1184, "note": 72, "velocity": 110, "channel": 0}, {"type": "note_on", "time": 43, "note": 70, "velocity": 119, "channel": 0}, {"type": "note_off", "time": 1316, "note": 70, "velocity": 119, "channel": 0}, {"type": "note_on", "time": 43, "note": 66, "velocity": 109, "channel": 0}, {"type": "note_off", "time": 2223, "note": 66, "velocity": 109, "channel": 0}, {"type": "note_on", "time": 2894, "note": 68, "velocity": 117, "channel": 0}, {"type": "note_off", "time": 8454, "note": 68, "velocity": 117, "channel": 0}, {"type": "note_on", "time": 61, "note": 66, "velocity": 98, "channel": 0}, {"type": "note_off", "time": 1131, "note": 66, "velocity": 98, "channel": 0}, {"type": "note_on", "time": 144, "note": 68, "velocity": 120, "channel": 0}, {"type": "note_off", "time": 8228, "note": 68, "velocity": 120, "channel": 0}, {"type": "note_on", "time": 41, "note": 66, "velocity": 90, "channel": 0}, {"type": "note_off", "time": 1542, "note": 66, "velocity": 90, "channel": 0}, {"type": "note_on", "time": 102, "note": 68, "velocity": 122, "channel": 0}, {"type": "note_off", "time": 8228, "note": 68, "velocity": 122, "channel": 0}, {"type": "note_on", "time": 102, "note": 66, "velocity": 93, "channel": 0}, {"type": "note_off", "time": 1481, "note": 66, "velocity": 93, "channel": 0}, {"type": "note_on", "time": 119, "note": 70, "velocity": 115, "channel": 0}, {"type": "note_off", "time": 4066, "note": 70, "velocity": 115, "channel": 0}, {"type": "note_on", "time": 263, "note": 63, "velocity": 97, "channel": 0}, {"type": "note_off", "time": 2282, "note": 63, "velocity": 97, "channel": 0}, {"type": "note_on", "time": 29370, "note": 63, "velocity": 116, "channel": 0}, {"type": "note_off", "time": 2489, "note": 63, "velocity": 116, "channel": 0}, {"type": "note_on", "time": 164, "note": 65, "velocity": 123, "channel": 0}, {"type": "note_off", "time": 1707, "note": 65, "velocity": 123, "channel": 0}, {"type": "note_on", "time": 102, "note": 67, "velocity": 118, "channel": 0}, {"type": "note_off", "time": 3723, "note": 67, "velocity": 118, "channel": 0}, {"type": "note_on", "time": 1686, "note": 63, "velocity": 107, "channel": 0}, {"type": "note_off", "time": 3538, "note": 63, "velocity": 107, "channel": 0}, {"type": "note_on", "time": 4998, "note": 63, "velocity": 96, "channel": 0}, {"type": "note_off", "time": 14338, "note": 63, "velocity": 96, "channel": 0}, {"type": "note_on", "time": 82, "note": 63, "velocity": 118, "channel": 0}, {"type": "note_off", "time": 4875, "note": 63, "velocity": 118, "channel": 0}, {"type": "note_on", "time": 42829, "note": 62, "velocity": 114, "channel": 0}, {"type": "note_off", "time": 2633, "note": 62, "velocity": 114, "channel": 0}, {"type": "note_on", "time": 123, "note": 63, "velocity": 117, "channel": 0}, {"type": "note_off", "time": 2962, "note": 63, "velocity": 117, "channel": 0}, {"type": "note_on", "time": 319, "note": 63, "velocity": 105, "channel": 0}, {"type": "note_off", "time": 15974, "note": 63, "velocity": 105, "channel": 0}, {"type": "note_on", "time": 292, "note": 63, "velocity": 100, "channel": 0}, {"type": "note_off", "time": 11293, "note": 63, "velocity": 100, "channel": 0}, {"type": "note_on", "time": 175, "note": 63, "velocity": 111, "channel": 0}, {"type": "note_off", "time": 7723, "note": 63, "velocity": 111, "channel": 0}, {"type": "note_on", "time": 117, "note": 63, "velocity": 110, "channel": 0}, {"type": "note_off", "time": 6026, "note": 63, "velocity": 110, "channel": 0}, {"type": "note_on", "time": 175, "note": 63, "velocity": 120, "channel": 0}, {"type": "note_off", "time": 4447, "note": 63, "velocity": 120, "channel": 0}, {"type": "note_on", "time": 17802, "note": 63, "velocity": 105, "channel": 0}, {"type": "note_off", "time": 3785, "note": 63, "velocity": 105, "channel": 0}, {"type": "note_on", "time": 123, "note": 63, "velocity": 116, "channel": 0}, {"type": "note_off", "time": 5307, "note": 63, "velocity": 116, "channel": 0}, {"type": "note_on", "time": 164, "note": 63, "velocity": 99, "channel": 0}, {"type": "note_off", "time": 4649, "note": 63, "velocity": 99, "channel": 0}, {"type": "note_on", "time": 164, "note": 63, "velocity": 119, "channel": 0}, {"type": "note_off", "time": 4566, "note": 63, "velocity": 119, "channel": 0}, {"type": "note_on", "time": 82, "note": 66, "velocity": 115, "channel": 0}, {"type": "note_off", "time": 3209, "note": 66, "velocity": 115, "channel": 0}, {"type": "note_on", "time": 3211, "note": 63, "velocity": 106, "channel": 0}, {"type": "note_off", "time": 8367, "note": 63, "velocity": 106, "channel": 0}, {"type": "note_on", "time": 117, "note": 61, "velocity": 105, "channel": 0}, {"type": "note_off", "time": 1930, "note": 61, "velocity": 105, "channel": 0}, {"type": "note_on", "time": 117, "note": 63, "velocity": 115, "channel": 0}, {"type": "note_off", "time": 3072, "note": 63, "velocity": 115, "channel": 0}, {"type": "note_on", "time": 204, "note": 58, "velocity": 107, "channel": 0}, {"type": "note_off", "time": 3159, "note": 58, "velocity": 107, "channel": 0}, {"type": "note_on", "time": 42109, "note": 58, "velocity": 110, "channel": 0}, {"type": "note_off", "time": 2057, "note": 58, "velocity": 110, "channel": 0}, {"type": "note_on", "time": 144, "note": 59, "velocity": 98, "channel": 0}, {"type": "note_off", "time": 1357, "note": 59, "velocity": 98, "channel": 0}, {"type": "note_on", "time": 102, "note": 61, "velocity": 93, "channel": 0}, {"type": "note_off", "time": 1008, "note": 61, "velocity": 93, "channel": 0}, {"type": "note_on", "time": 205, "note": 63, "velocity": 112, "channel": 0}, {"type": "note_off", "time": 2653, "note": 63, "velocity": 112, "channel": 0}, {"type": "note_on", "time": 2427, "note": 66, "velocity": 118, "channel": 0}, {"type": "note_off", "time": 3332, "note": 66, "velocity": 118, "channel": 0}, {"type": "note_on", "time": 123, "note": 63, "velocity": 100, "channel": 0}, {"type": "note_off", "time": 2262, "note": 63, "velocity": 100, "channel": 0}, {"type": "note_on", "time": 1069, "note": 61, "velocity": 94, "channel": 0}, {"type": "note_off", "time": 1933, "note": 61, "velocity": 94, "channel": 0}, {"type": "note_on", "time": 12116, "note": 61, "velocity": 110, "channel": 0}, {"type": "note_off", "time": 2736, "note": 61, "velocity": 110, "channel": 0}, {"type": "note_on", "time": 144, "note": 63, "velocity": 102, "channel": 0}, {"type": "note_off", "time": 2036, "note": 63, "velocity": 102, "channel": 0}, {"type": "note_on", "time": 246, "note": 66, "velocity": 115, "channel": 0}, {"type": "note_off", "time": 2777, "note": 66, "velocity": 115, "channel": 0}, {"type": "note_on", "time": 1460, "note": 68, "velocity": 124, "channel": 0}, {"type": "note_off", "time": 3126, "note": 68, "velocity": 124, "channel": 0}, {"type": "note_on", "time": 123, "note": 66, "velocity": 111, "channel": 0}, {"type": "note_off", "time": 2715, "note": 66, "velocity": 111, "channel": 0}, {"type": "note_on", "time": 164, "note": 63, "velocity": 101, "channel": 0}, {"type": "note_off", "time": 3209, "note": 63, "velocity": 101, "channel": 0}, {"type": "note_on", "time": 123, "note": 58, "velocity": 96, "channel": 0}, {"type": "note_off", "time": 3702, "note": 58, "velocity": 96, "channel": 0}, {"type": "note_on", "time": 0, "note": 61, "velocity": 88, "channel": 0}, {"type": "note_off", "time": 2468, "note": 61, "velocity": 88, "channel": 0}, {"type": "note_on", "time": 0, "note": 63, "velocity": 103, "channel": 0}, {"type": "note_off", "time": 3867, "note": 63, "velocity": 103, "channel": 0}, {"type": "note_on", "time": 2378, "note": 61, "velocity": 98, "channel": 0}, {"type": "note_off", "time": 1604, "note": 61, "velocity": 98, "channel": 0}, {"type": "note_on", "time": 90, "note": 63, "velocity": 108, "channel": 0}, {"type": "note_off", "time": 2838, "note": 63, "velocity": 108, "channel": 0}, {"type": "note_on", "time": 20, "note": 61, "velocity": 106, "channel": 0}, {"type": "note_off", "time": 3579, "note": 61, "velocity": 106, "channel": 0}, {"type": "note_on", "time": 82, "note": 63, "velocity": 111, "channel": 0}, {"type": "note_off", "time": 2715, "note": 63, "velocity": 111, "channel": 0}, {"type": "note_on", "time": 102, "note": 66, "velocity": 115, "channel": 0}, {"type": "note_off", "time": 2674, "note": 66, "velocity": 115, "channel": 0}, {"type": "note_on", "time": 102, "note": 68, "velocity": 117, "channel": 0}, {"type": "note_off", "time": 3723, "note": 68, "velocity": 117, "channel": 0}, {"type": "note_on", "time": 329, "note": 70, "velocity": 116, "channel": 0}, {"type": "note_off", "time": 3682, "note": 70, "velocity": 116, "channel": 0}, {"type": "note_on", "time": 58, "note": 68, "velocity": 94, "channel": 0}, {"type": "note_off", "time": 2413, "note": 68, "velocity": 94, "channel": 0}, {"type": "note_on", "time": 365, "note": 70, "velocity": 115, "channel": 0}, {"type": "note_off", "time": 3715, "note": 70, "velocity": 115, "channel": 0}, {"type": "note_on", "time": 69, "note": 68, "velocity": 121, "channel": 0}, {"type": "note_off", "time": 3209, "note": 68, "velocity": 121, "channel": 0}, {"type": "note_on", "time": 61, "note": 66, "velocity": 110, "channel": 0}, {"type": "note_off", "time": 2921, "note": 66, "velocity": 110, "channel": 0}, {"type": "note_on", "time": 411, "note": 63, "velocity": 102, "channel": 0}, {"type": "note_off", "time": 3270, "note": 63, "velocity": 102, "channel": 0}, {"type": "note_on", "time": 1296, "note": 61, "velocity": 104, "channel": 0}, {"type": "note_off", "time": 3620, "note": 61, "velocity": 104, "channel": 0}, {"type": "note_on", "time": 61, "note": 63, "velocity": 92, "channel": 0}, {"type": "note_off", "time": 2098, "note": 63, "velocity": 92, "channel": 0}, {"type": "note_on", "time": 308, "note": 61, "velocity": 100, "channel": 0}, {"type": "note_off", "time": 4032, "note": 61, "velocity": 100, "channel": 0}, {"type": "note_on", "time": 349, "note": 63, "velocity": 110, "channel": 0}, {"type": "note_off", "time": 2838, "note": 63, "velocity": 110, "channel": 0}, {"type": "note_on", "time": 164, "note": 66, "velocity": 117, "channel": 0}, {"type": "note_off", "time": 2180, "note": 66, "velocity": 117, "channel": 0}, {"type": "note_on", "time": 144, "note": 68, "velocity": 118, "channel": 0}, {"type": "note_off", "time": 3764, "note": 68, "velocity": 118, "channel": 0}, {"type": "note_on", "time": 164, "note": 70, "velocity": 116, "channel": 0}, {"type": "note_off", "time": 4093, "note": 70, "velocity": 116, "channel": 0}, {"type": "note_on", "time": 82, "note": 68, "velocity": 95, "channel": 0}, {"type": "note_off", "time": 2201, "note": 68, "velocity": 95, "channel": 0}, {"type": "note_on", "time": 185, "note": 70, "velocity": 118, "channel": 0}, {"type": "note_off", "time": 4237, "note": 70, "velocity": 118, "channel": 0}, {"type": "note_on", "time": 185, "note": 68, "velocity": 118, "channel": 0}, {"type": "note_off", "time": 3394, "note": 68, "velocity": 118, "channel": 0}, {"type": "note_on", "time": 123, "note": 66, "velocity": 106, "channel": 0}, {"type": "note_off", "time": 1954, "note": 66, "velocity": 106, "channel": 0}, {"type": "note_on", "time": 144, "note": 63, "velocity": 100, "channel": 0}, {"type": "note_off", "time": 3517, "note": 63, "velocity": 100, "channel": 0}, {"type": "note_on", "time": 493, "note": 61, "velocity": 109, "channel": 0}, {"type": "note_off", "time": 3023, "note": 61, "velocity": 109, "channel": 0}, {"type": "note_on", "time": 123, "note": 63, "velocity": 103, "channel": 0}, {"type": "note_off", "time": 3003, "note": 63, "velocity": 103, "channel": 0}, {"type": "note_on", "time": 144, "note": 61, "velocity": 92, "channel": 0}, {"type": "note_off", "time": 2386, "note": 61, "velocity": 92, "channel": 0}, {"type": "note_on", "time": 82, "note": 63, "velocity": 109, "channel": 0}, {"type": "note_off", "time": 4813, "note": 63, "velocity": 109, "channel": 0}, {"type": "note_on", "time": 123, "note": 61, "velocity": 94, "channel": 0}, {"type": "note_off", "time": 2036, "note": 61, "velocity": 94, "channel": 0}, {"type": "note_on", "time": 123, "note": 63, "velocity": 111, "channel": 0}, {"type": "note_off", "time": 2879, "note": 63, "velocity": 111, "channel": 0}, {"type": "note_on", "time": 0, "note": 66, "velocity": 112, "channel": 0}, {"type": "note_off", "time": 4361, "note": 66, "velocity": 112, "channel": 0}, {"type": "note_on", "time": 82, "note": 63, "velocity": 96, "channel": 0}, {"type": "note_off", "time": 2035, "note": 63, "velocity": 96, "channel": 0}, {"type": "note_on", "time": 0, "note": 66, "velocity": 112, "channel": 0}, {"type": "note_off", "time": 3701, "note": 66, "velocity": 112, "channel": 0}, {"type": "note_on", "time": 87, "note": 68, "velocity": 118, "channel": 0}, {"type": "note_off", "time": 3613, "note": 68, "velocity": 118, "channel": 0}, {"type": "note_on", "time": 117, "note": 66, "velocity": 113, "channel": 0}, {"type": "note_off", "time": 2720, "note": 66, "velocity": 113, "channel": 0}, {"type": "note_on", "time": 58, "note": 63, "velocity": 110, "channel": 0}, {"type": "note_off", "time": 3349, "note": 63, "velocity": 110, "channel": 0}, {"type": "note_on", "time": 73, "note": 61, "velocity": 108, "channel": 0}, {"type": "note_off", "time": 3525, "note": 61, "velocity": 108, "channel": 0}, {"type": "note_on", "time": 87, "note": 63, "velocity": 97, "channel": 0}, {"type": "note_off", "time": 2048, "note": 63, "velocity": 97, "channel": 0}, {"type": "note_on", "time": 73, "note": 61, "velocity": 108, "channel": 0}, {"type": "note_off", "time": 3335, "note": 61, "velocity": 108, "channel": 0}, {"type": "note_on", "time": 102, "note": 63, "velocity": 109, "channel": 0}, {"type": "note_off", "time": 4637, "note": 63, "velocity": 109, "channel": 0}, {"type": "note_on", "time": 190, "note": 61, "velocity": 108, "channel": 0}, {"type": "note_off", "time": 2633, "note": 61, "velocity": 108, "channel": 0}, {"type": "note_on", "time": 58, "note": 63, "velocity": 114, "channel": 0}, {"type": "note_off", "time": 2545, "note": 63, "velocity": 114, "channel": 0}, {"type": "note_on", "time": 117, "note": 66, "velocity": 110, "channel": 0}, {"type": "note_off", "time": 4461, "note": 66, "velocity": 110, "channel": 0}, {"type": "note_on", "time": 7, "note": 63, "velocity": 101, "channel": 0}, {"type": "note_off", "time": 2018, "note": 63, "velocity": 101, "channel": 0}, {"type": "note_on", "time": 95, "note": 66, "velocity": 114, "channel": 0}, {"type": "note_off", "time": 1989, "note": 66, "velocity": 114, "channel": 0}, {"type": "note_on", "time": 586, "note": 68, "velocity": 118, "channel": 0}, {"type": "note_off", "time": 2962, "note": 68, "velocity": 118, "channel": 0}, {"type": "note_on", "time": 13392, "note": 63, "velocity": 114, "channel": 0}, {"type": "note_off", "time": 3353, "note": 63, "velocity": 114, "channel": 0}, {"type": "note_on", "time": 102, "note": 66, "velocity": 109, "channel": 0}, {"type": "note_off", "time": 3949, "note": 66, "velocity": 109, "channel": 0}, {"type": "note_on", "time": 205, "note": 63, "velocity": 69, "channel": 0}, {"type": "note_off", "time": 2550, "note": 63, "velocity": 69, "channel": 0}, {"type": "note_on", "time": 123, "note": 66, "velocity": 116, "channel": 0}, {"type": "note_off", "time": 3744, "note": 66, "velocity": 116, "channel": 0}, {"type": "note_on", "time": 226, "note": 68, "velocity": 118, "channel": 0}, {"type": "note_off", "time": 4093, "note": 68, "velocity": 118, "channel": 0}, {"type": "note_on", "time": 82, "note": 66, "velocity": 78, "channel": 0}, {"type": "note_off", "time": 2180, "note": 66, "velocity": 78, "channel": 0}, {"type": "note_on", "time": 164, "note": 68, "velocity": 120, "channel": 0}, {"type": "note_off", "time": 3373, "note": 68, "velocity": 120, "channel": 0}, {"type": "note_on", "time": 82, "note": 69, "velocity": 114, "channel": 0}, {"type": "note_off", "time": 3517, "note": 69, "velocity": 114, "channel": 0}, {"type": "note_on", "time": 41, "note": 66, "velocity": 107, "channel": 0}, {"type": "note_off", "time": 2098, "note": 66, "velocity": 107, "channel": 0}, {"type": "note_on", "time": 82, "note": 69, "velocity": 117, "channel": 0}, {"type": "note_off", "time": 3414, "note": 69, "velocity": 117, "channel": 0}, {"type": "note_on", "time": 61, "note": 68, "velocity": 118, "channel": 0}, {"type": "note_off", "time": 1810, "note": 68, "velocity": 118, "channel": 0}, {"type": "note_on", "time": 111, "note": 70, "velocity": 117, "channel": 0}, {"type": "note_off", "time": 29666, "note": 70, "velocity": 117, "channel": 0}, {"type": "note_on", "time": 27882, "note": 68, "velocity": 120, "channel": 0}, {"type": "note_off", "time": 1960, "note": 68, "velocity": 120, "channel": 0}, {"type": "note_on", "time": 57, "note": 70, "velocity": 120, "channel": 0}, {"type": "note_off", "time": 23492, "note": 70, "velocity": 120, "channel": 0}, {"type": "note_on", "time": 15058, "note": 68, "velocity": 121, "channel": 0}, {"type": "note_off", "time": 2016, "note": 68, "velocity": 121, "channel": 0}, {"type": "note_on", "time": 205, "note": 70, "velocity": 114, "channel": 0}, {"type": "note_off", "time": 17979, "note": 70, "velocity": 114, "channel": 0}, {"type": "note_on", "time": 19775, "note": 69, "velocity": 119, "channel": 0}, {"type": "note_off", "time": 2867, "note": 69, "velocity": 119, "channel": 0}, {"type": "note_on", "time": 117, "note": 68, "velocity": 124, "channel": 0}, {"type": "note_off", "time": 8806, "note": 68, "velocity": 124, "channel": 0}, {"type": "note_on", "time": 702, "note": 66, "velocity": 117, "channel": 0}, {"type": "note_off", "time": 2135, "note": 66, "velocity": 117, "channel": 0}, {"type": "note_on", "time": 65, "note": 63, "velocity": 113, "channel": 0}, {"type": "note_off", "time": 7987, "note": 63, "velocity": 113, "channel": 0}, {"type": "note_on", "time": 1360, "note": 61, "velocity": 120, "channel": 0}, {"type": "note_off", "time": 1625, "note": 61, "velocity": 120, "channel": 0}, {"type": "note_on", "time": 61, "note": 58, "velocity": 119, "channel": 0}, {"type": "note_off", "time": 6521, "note": 58, "velocity": 119, "channel": 0}, {"type": "note_on", "time": 41, "note": 56, "velocity": 119, "channel": 0}, {"type": "note_off", "time": 1933, "note": 56, "velocity": 119, "channel": 0}, {"type": "note_on", "time": 82, "note": 54, "velocity": 112, "channel": 0}, {"type": "note_off", "time": 3867, "note": 54, "velocity": 112, "channel": 0}, {"type": "note_on", "time": 210, "note": 51, "velocity": 113, "channel": 0}, {"type": "note_off", "time": 20275, "note": 51, "velocity": 113, "channel": 0}, {"type": "note_on", "time": 22035, "note": 53, "velocity": 107, "channel": 0}, {"type": "note_off", "time": 1481, "note": 53, "velocity": 107, "channel": 0}, {"type": "note_on", "time": 82, "note": 55, "velocity": 104, "channel": 0}, {"type": "note_off", "time": 7981, "note": 55, "velocity": 104, "channel": 0}, {"type": "note_on", "time": 411, "note": 58, "velocity": 91, "channel": 0}, {"type": "note_off", "time": 1193, "note": 58, "velocity": 91, "channel": 0}, {"type": "note_on", "time": 102, "note": 63, "velocity": 106, "channel": 0}, {"type": "note_off", "time": 7035, "note": 63, "velocity": 106, "channel": 0}, {"type": "note_on", "time": 493, "note": 58, "velocity": 89, "channel": 0}, {"type": "note_off", "time": 1954, "note": 58, "velocity": 89, "channel": 0}, {"type": "note_on", "time": 82, "note": 61, "velocity": 115, "channel": 0}, {"type": "note_off", "time": 6233, "note": 61, "velocity": 115, "channel": 0}, {"type": "note_on", "time": 144, "note": 63, "velocity": 103, "channel": 0}, {"type": "note_off", "time": 23986, "note": 63, "velocity": 103, "channel": 0}, {"type": "note_on", "time": 19707, "note": 58, "velocity": 113, "channel": 0}, {"type": "note_off", "time": 5204, "note": 58, "velocity": 113, "channel": 0}, {"type": "note_on", "time": 205, "note": 56, "velocity": 114, "channel": 0}, {"type": "note_off", "time": 5554, "note": 56, "velocity": 114, "channel": 0}, {"type": "note_on", "time": 802, "note": 54, "velocity": 112, "channel": 0}, {"type": "note_off", "time": 7837, "note": 54, "velocity": 112, "channel": 0}, {"type": "note_on", "time": 1440, "note": 51, "velocity": 109, "channel": 0}, {"type": "note_off", "time": 3147, "note": 51, "velocity": 109, "channel": 0}, {"type": "note_on", "time": 226, "note": 51, "velocity": 112, "channel": 0}, {"type": "note_off", "time": 3023, "note": 51, "velocity": 112, "channel": 0}, {"type": "note_on", "time": 114, "note": 49, "velocity": 105, "channel": 0}, {"type": "note_off", "time": 3540, "note": 49, "velocity": 105, "channel": 0}, {"type": "note_on", "time": 830, "note": 51, "velocity": 91, "channel": 0}, {"type": "note_off", "time": 25755, "note": 51, "velocity": 91, "channel": 0}, {"type": "end_of_track", "time": 0}]]}