{"ticks_per_beat": 192, "tracks": [[{"type": "track_name", "name": "Melody", "time": 0}, {"type": "set_tempo", "tempo": 303030, "time": 0}, {"type": "key_signature", "key": "Eb", "time": 0}, {"type": "time_signature", "numerator": 4, "denominator": 4, "clocks_per_click": 24, "notated_32nd_notes_per_beat": 8, "time": 0}, {"type": "note_on", "time": 2074, "note": 70, "velocity": 112, "channel": 0}, {"type": "note_off", "time": 75, "note": 70, "velocity": 112, "channel": 0}, {"type": "note_on", "time": 5, "note": 73, "velocity": 117, "channel": 0}, {"type": "note_off", "time": 99, "note": 73, "velocity": 117, "channel": 0}, {"type": "note_on", "time": 14, "note": 75, "velocity": 107, "channel": 0}, {"type": "note_off", "time": 69, "note": 75, "velocity": 107, "channel": 0}, {"type": "note_on", "time": 343, "note": 63, "velocity": 110, "channel": 0}, {"type": "note_off", "time": 51, "note": 63, "velocity": 110, "channel": 0}, {"type": "note_on", "time": 5, "note": 66, "velocity": 114, "channel": 0}, {"type": "note_off", "time": 93, "note": 66, "velocity": 114, "channel": 0}, {"type": "note_on", "time": 121, "note": 68, "velocity": 113, "channel": 0}, {"type": "note_off", "time": 353, "note": 68, "velocity": 113, "channel": 0}, {"type": "note_on", "time": 386, "note": 63, "velocity": 100, "channel": 0}, {"type": "note_off", "time": 53, "note": 63, "velocity": 100, "channel": 0}, {"type": "note_on", "time": 16, "note": 67, "velocity": 118, "channel": 0}, {"type": "note_off", "time": 112, "note": 67, "velocity": 118, "channel": 0}, {"type": "note_on", "time": 18, "note": 70, "velocity": 101, "channel": 0}, {"type": "note_off", "time": 64, "note": 70, "velocity": 101, "channel": 0}, {"type": "note_on", "time": 722, "note": 67, "velocity": 101, "channel": 0}, {"type": "note_off", "time": 40, "note": 67, "velocity": 101, "channel": 0}, {"type": "note_on", "time": 44, "note": 70, "velocity": 103, "channel": 0}, {"type": "note_off", "time": 45, "note": 70, "velocity": 103, "channel": 0}, {"type": "note_on", "time": 461, "note": 70, "velocity": 106, "channel": 0}, {"type": "note_off", "time": 69, "note": 70, "velocity": 106, "channel": 0}, {"type": "note_on", "time": 0, "note": 75, "velocity": 117, "channel": 0}, {"type": "note_off", "time": 119, "note": 75, "velocity": 117, "channel": 0}, {"type": "note_on", "time": 14, "note": 70, "velocity": 95, "channel": 0}, {"type": "note_off", "time": 60, "note": 70, "velocity": 95, "channel": 0}, {"type": "note_on", "time": 327, "note": 70, "velocity": 113, "channel": 0}, {"type": "note_off", "time": 55, "note": 70, "velocity": 113, "channel": 0}, {"type": "note_on", "time": 1, "note": 73, "velocity": 113, "channel": 0}, {"type": "note_off", "time": 69, "note": 73, "velocity": 113, "channel": 0}, {"type": "note_on", "time": 145, "note": 75, "velocity": 113, "channel": 0}, {"type": "note_off", "time": 331, "note": 75, "velocity": 113, "channel": 0}, {"type": "note_on", "time": 16, "note": 73, "velocity": 103, "channel": 0}, {"type": "note_off", "time": 51, "note": 73, "velocity": 103, "channel": 0}, {"type": "note_on", "time": 12, "note": 77, "velocity": 119, "channel": 0}, {"type": "note_off", "time": 119, "note": 77, "velocity": 119, "channel": 0}, {"type": "note_on", "time": 11, "note": 70, "velocity": 106, "channel": 0}, {"type": "note_off", "time": 90, "note": 70, "velocity": 106, "channel": 0}, {"type": "note_on", "time": 858, "note": 70, "velocity": 117, "channel": 0}, {"type": "note_off", "time": 60, "note": 70, "velocity": 117, "channel": 0}, {"type": "note_on", "time": 3, "note": 75, "velocity": 119, "channel": 0}, {"type": "note_off", "time": 136, "note": 75, "velocity": 119, "channel": 0}, {"type": "note_on", "time": 11, "note": 70, "velocity": 107, "channel": 0}, {"type": "note_off", "time": 55, "note": 70, "velocity": 107, "channel": 0}, {"type": "note_on", "time": 12, "note": 73, "velocity": 115, "channel": 0}, {"type": "note_off", "time": 101, "note": 73, "velocity": 115, "channel": 0}, {"type": "note_on", "time": 400, "note": 70, "velocity": 104, "channel": 0}, {"type": "note_off", "time": 79, "note": 70, "velocity": 104, "channel": 0}, {"type": "note_on", "time": 3, "note": 75, "velocity": 116, "channel": 0}, {"type": "note_off", "time": 104, "note": 75, "velocity": 116, "channel": 0}, {"type": "note_on", "time": 16, "note": 73, "velocity": 114, "channel": 0}, {"type": "note_off", "time": 79, "note": 73, "velocity": 114, "channel": 0}, {"type": "note_on", "time": 3, "note": 70, "velocity": 116, "channel": 0}, {"type": "note_off", "time": 108, "note": 70, "velocity": 116, "channel": 0}, {"type": "note_on", "time": 5, "note": 68, "velocity": 113, "channel": 0}, {"type": "note_off", "time": 408, "note": 68, "velocity": 113, "channel": 0}, {"type": "note_on", "time": 58, "note": 70, "velocity": 116, "channel": 0}, {"type": "note_off", "time": 297, "note": 70, "velocity": 116, "channel": 0}, {"type": "note_on", "time": 0, "note": 68, "velocity": 112, "channel": 0}, {"type": "note_off", "time": 101, "note": 68, "velocity": 112, "channel": 0}, {"type": "note_on", "time": 5, "note": 65, "velocity": 116, "channel": 0}, {"type": "note_off", "time": 49, "note": 65, "velocity": 116, "channel": 0}, {"type": "note_on", "time": 7, "note": 67, "velocity": 118, "channel": 0}, {"type": "note_off", "time": 147, "note": 67, "velocity": 118, "channel": 0}, {"type": "note_on", "time": 5, "note": 63, "velocity": 106, "channel": 0}, {"type": "note_off", "time": 128, "note": 63, "velocity": 106, "channel": 0}, {"type": "note_on", "time": 16, "note": 61, "velocity": 102, "channel": 0}, {"type": "note_off", "time": 42, "note": 61, "velocity": 102, "channel": 0}, {"type": "note_on", "time": 5, "note": 63, "velocity": 108, "channel": 0}, {"type": "note_off", "time": 336, "note": 63, "velocity": 108, "channel": 0}, {"type": "note_on", "time": 965, "note": 63, "velocity": 117, "channel": 0}, {"type": "note_off", "time": 71, "note": 63, "velocity": 117, "channel": 0}, {"type": "note_on", "time": 22, "note": 63, "velocity": 119, "channel": 0}, {"type": "note_off", "time": 71, "note": 63, "velocity": 119, "channel": 0}, {"type": "note_on", "time": 27, "note": 63, "velocity": 115, "channel": 0}, {"type": "note_off", "time": 79, "note": 63, "velocity": 115, "channel": 0}, {"type": "note_on", "time": 38, "note": 67, "velocity": 116, "channel": 0}, {"type": "note_off", "time": 115, "note": 67, "velocity": 116, "channel": 0}, {"type": "note_on", "time": 5, "note": 70, "velocity": 93, "channel": 0}, {"type": "note_off", "time": 31, "note": 70, "velocity": 93, "channel": 0}, {"type": "note_on", "time": 22, "note": 72, "velocity": 116, "channel": 0}, {"type": "note_off", "time": 126, "note": 72, "velocity": 116, "channel": 0}, {"type": "note_on", "time": 9, "note": 75, "velocity": 113, "channel": 0}, {"type": "note_off", "time": 274, "note": 75, "velocity": 113, "channel": 0}, {"type": "note_on", "time": 7, "note": 73, "velocity": 112, "channel": 0}, {"type": "note_off", "time": 112, "note": 73, "velocity": 112, "channel": 0}, {"type": "note_on", "time": 14, "note": 72, "velocity": 114, "channel": 0}, {"type": "note_off", "time": 84, "note": 72, "velocity": 114, "channel": 0}, {"type": "note_on", "time": 1, "note": 70, "velocity": 118, "channel": 0}, {"type": "note_off", "time": 112, "note": 70, "velocity": 118, "channel": 0}, {"type": "note_on", "time": 14, "note": 72, "velocity": 109, "channel": 0}, {"type": "note_off", "time": 75, "note": 72, "velocity": 109, "channel": 0}, {"type": "note_on", "time": 191, "note": 63, "velocity": 116, "channel": 0}, {"type": "note_off", "time": 90, "note": 63, "velocity": 116, "channel": 0}, {"type": "note_on", "time": 99, "note": 63, "velocity": 115, "channel": 0}, {"type": "note_off", "time": 114, "note": 63, "velocity": 115, "channel": 0}, {"type": "note_on", "time": 106, "note": 63, "velocity": 118, "channel": 0}, {"type": "note_off", "time": 279, "note": 63, "velocity": 118, "channel": 0}, {"type": "note_on", "time": 25, "note": 67, "velocity": 115, "channel": 0}, {"type": "note_off", "time": 73, "note": 67, "velocity": 115, "channel": 0}, {"type": "note_on", "time": 12, "note": 65, "velocity": 117, "channel": 0}, {"type": "note_off", "time": 119, "note": 65, "velocity": 117, "channel": 0}, {"type": "note_on", "time": 20, "note": 61, "velocity": 111, "channel": 0}, {"type": "note_off", "time": 64, "note": 61, "velocity": 111, "channel": 0}, {"type": "note_on", "time": 910, "note": 63, "velocity": 113, "channel": 0}, {"type": "note_off", "time": 64, "note": 63, "velocity": 113, "channel": 0}, {"type": "note_on", "time": 319, "note": 63, "velocity": 102, "channel": 0}, {"type": "note_off", "time": 58, "note": 63, "velocity": 102, "channel": 0}, {"type": "note_on", "time": 18, "note": 68, "velocity": 117, "channel": 0}, {"type": "note_off", "time": 130, "note": 68, "velocity": 117, "channel": 0}, {"type": "note_on", "time": 11, "note": 70, "velocity": 96, "channel": 0}, {"type": "note_off", "time": 40, "note": 70, "velocity": 96, "channel": 0}, {"type": "note_on", "time": 20, "note": 72, "velocity": 117, "channel": 0}, {"type": "note_off", "time": 137, "note": 72, "velocity": 117, "channel": 0}, {"type": "note_on", "time": 10, "note": 75, "velocity": 101, "channel": 0}, {"type": "note_off", "time": 38, "note": 75, "velocity": 101, "channel": 0}, {"type": "note_on", "time": 14, "note": 78, "velocity": 113, "channel": 0}, {"type": "note_off", "time": 112, "note": 78, "velocity": 113, "channel": 0}, {"type": "note_on", "time": 9, "note": 77, "velocity": 124, "channel": 0}, {"type": "note_off", "time": 66, "note": 77, "velocity": 124, "channel": 0}, {"type": "note_on", "time": 11, "note": 75, "velocity": 118, "channel": 0}, {"type": "note_off", "time": 91, "note": 75, "velocity": 118, "channel": 0}, {"type": "note_on", "time": 11, "note": 73, "velocity": 113, "channel": 0}, {"type": "note_off", "time": 285, "note": 73, "velocity": 113, "channel": 0}, {"type": "note_on", "time": 9, "note": 72, "velocity": 113, "channel": 0}, {"type": "note_off", "time": 93, "note": 72, "velocity": 113, "channel": 0}, {"type": "note_on", "time": 7, "note": 71, "velocity": 116, "channel": 0}, {"type": "note_off", "time": 77, "note": 71, "velocity": 116, "channel": 0}, {"type": "note_on", "time": 1, "note": 70, "velocity": 115, "channel": 0}, {"type": "note_off", "time": 93, "note": 70, "velocity": 115, "channel": 0}, {"type": "note_on", "time": 599, "note": 63, "velocity": 109, "channel": 0}, {"type": "note_off", "time": 62, "note": 63, "velocity": 109, "channel": 0}, {"type": "note_on", "time": 9, "note": 65, "velocity": 123, "channel": 0}, {"type": "note_off", "time": 42, "note": 65, "velocity": 123, "channel": 0}, {"type": "note_on", "time": 24, "note": 67, "velocity": 119, "channel": 0}, {"type": "note_off", "time": 79, "note": 67, "velocity": 119, "channel": 0}, {"type": "note_on", "time": 3, "note": 70, "velocity": 110, "channel": 0}, {"type": "note_off", "time": 855, "note": 70, "velocity": 110, "channel": 0}, {"type": "note_on", "time": 9, "note": 72, "velocity": 111, "channel": 0}, {"type": "note_off", "time": 73, "note": 72, "velocity": 111, "channel": 0}, {"type": "note_on", "time": 112, "note": 66, "velocity": 115, "channel": 0}, {"type": "note_off", "time": 108, "note": 66, "velocity": 115, "channel": 0}, {"type": "note_on", "time": 9, "note": 65, "velocity": 119, "channel": 0}, {"type": "note_off", "time": 62, "note": 65, "velocity": 119, "channel": 0}, {"type": "note_on", "time": 36, "note": 63, "velocity": 106, "channel": 0}, {"type": "note_off", "time": 77, "note": 63, "velocity": 106, "channel": 0}, {"type": "note_on", "time": 23, "note": 60, "velocity": 108, "channel": 0}, {"type": "note_off", "time": 57, "note": 60, "velocity": 108, "channel": 0}, {"type": "note_on", "time": 7, "note": 63, "velocity": 116, "channel": 0}, {"type": "note_off", "time": 97, "note": 63, "velocity": 116, "channel": 0}, {"type": "note_on", "time": 9, "note": 66, "velocity": 118, "channel": 0}, {"type": "note_off", "time": 93, "note": 66, "velocity": 118, "channel": 0}, {"type": "note_on", "time": 18, "note": 65, "velocity": 118, "channel": 0}, {"type": "note_off", "time": 99, "note": 65, "velocity": 118, "channel": 0}, {"type": "note_on", "time": 3, "note": 63, "velocity": 109, "channel": 0}, {"type": "note_off", "time": 262, "note": 63, "velocity": 109, "channel": 0}, {"type": "note_on", "time": 11, "note": 65, "velocity": 121, "channel": 0}, {"type": "note_off", "time": 95, "note": 65, "velocity": 121, "channel": 0}, {"type": "note_on", "time": 619, "note": 72, "velocity": 119, "channel": 0}, {"type": "note_off", "time": 64, "note": 72, "velocity": 119, "channel": 0}, {"type": "note_on", "time": 595, "note": 73, "velocity": 123, "channel": 0}, {"type": "note_off", "time": 93, "note": 73, "velocity": 123, "channel": 0}, {"type": "note_on", "time": 97, "note": 72, "velocity": 113, "channel": 0}, {"type": "note_off", "time": 97, "note": 72, "velocity": 113, "channel": 0}, {"type": "note_on", "time": 114, "note": 73, "velocity": 121, "channel": 0}, {"type": "note_off", "time": 121, "note": 73, "velocity": 121, "channel": 0}, {"type": "note_on", "time": 1, "note": 72, "velocity": 113, "channel": 0}, {"type": "note_off", "time": 73, "note": 72, "velocity": 113, "channel": 0}, {"type": "note_on", "time": 99, "note": 70, "velocity": 115, "channel": 0}, {"type": "note_off", "time": 114, "note": 70, "velocity": 115, "channel": 0}, {"type": "note_on", "time": 82, "note": 72, "velocity": 109, "channel": 0}, {"type": "note_off", "time": 95, "note": 72, "velocity": 109, "channel": 0}, {"type": "note_on", "time": 110, "note": 70, "velocity": 109, "channel": 0}, {"type": "note_off", "time": 66, "note": 70, "velocity": 109, "channel": 0}, {"type": "note_on", "time": 7, "note": 73, "velocity": 114, "channel": 0}, {"type": "note_off", "time": 114, "note": 73, "velocity": 114, "channel": 0}, {"type": "note_on", "time": 9, "note": 70, "velocity": 117, "channel": 0}, {"type": "note_off", "time": 60, "note": 70, "velocity": 117, "channel": 0}, {"type": "note_on", "time": 5, "note": 72, "velocity": 115, "channel": 0}, {"type": "note_off", "time": 88, "note": 72, "velocity": 115, "channel": 0}, {"type": "note_on", "time": 108, "note": 73, "velocity": 112, "channel": 0}, {"type": "note_off", "time": 115, "note": 73, "velocity": 112, "channel": 0}, {"type": "note_on", "time": 90, "note": 72, "velocity": 112, "channel": 0}, {"type": "note_off", "time": 114, "note": 72, "velocity": 112, "channel": 0}, {"type": "note_on", "time": 7, "note": 70, "velocity": 114, "channel": 0}, {"type": "note_off", "time": 64, "note": 70, "velocity": 114, "channel": 0}, {"type": "note_on", "time": 7, "note": 72, "velocity": 115, "channel": 0}, {"type": "note_off", "time": 33, "note": 72, "velocity": 115, "channel": 0}, {"type": "note_on", "time": 11, "note": 73, "velocity": 113, "channel": 0}, {"type": "note_off", "time": 73, "note": 73, "velocity": 113, "channel": 0}, {"type": "note_on", "time": 5, "note": 72, "velocity": 111, "channel": 0}, {"type": "note_off", "time": 69, "note": 72, "velocity": 111, "channel": 0}, {"type": "note_on", "time": 97, "note": 70, "velocity": 115, "channel": 0}, {"type": "note_off", "time": 274, "note": 70, "velocity": 115, "channel": 0}, {"type": "note_on", "time": 9, "note": 72, "velocity": 111, "channel": 0}, {"type": "note_off", "time": 90, "note": 72, "velocity": 111, "channel": 0}, {"type": "note_on", "time": 108, "note": 66, "velocity": 118, "channel": 0}, {"type": "note_off", "time": 106, "note": 66, "velocity": 118, "channel": 0}, {"type": "note_on", "time": 11, "note": 65, "velocity": 119, "channel": 0}, {"type": "note_off", "time": 77, "note": 65, "velocity": 119, "channel": 0}, {"type": "note_on", "time": 9, "note": 63, "velocity": 105, "channel": 0}, {"type": "note_off", "time": 95, "note": 63, "velocity": 105, "channel": 0}, {"type": "note_on", "time": 33, "note": 60, "velocity": 102, "channel": 0}, {"type": "note_off", "time": 53, "note": 60, "velocity": 102, "channel": 0}, {"type": "note_on", "time": 2, "note": 65, "velocity": 127, "channel": 0}, {"type": "note_off", "time": 51, "note": 65, "velocity": 127, "channel": 0}, {"type": "note_on", "time": 5, "note": 66, "velocity": 116, "channel": 0}, {"type": "note_off", "time": 57, "note": 66, "velocity": 116, "channel": 0}, {"type": "note_on", "time": 23, "note": 65, "velocity": 118, "channel": 0}, {"type": "note_off", "time": 55, "note": 65, "velocity": 118, "channel": 0}, {"type": "note_on", "time": 14, "note": 63, "velocity": 110, "channel": 0}, {"type": "note_off", "time": 84, "note": 63, "velocity": 110, "channel": 0}, {"type": "note_on", "time": 5, "note": 65, "velocity": 115, "channel": 0}, {"type": "note_off", "time": 93, "note": 65, "velocity": 115, "channel": 0}, {"type": "note_on", "time": 9, "note": 63, "velocity": 112, "channel": 0}, {"type": "note_off", "time": 90, "note": 63, "velocity": 112, "channel": 0}, {"type": "note_on", "time": 16, "note": 65, "velocity": 112, "channel": 0}, {"type": "note_off", "time": 84, "note": 65, "velocity": 112, "channel": 0}, {"type": "note_on", "time": 106, "note": 63, "velocity": 108, "channel": 0}, {"type": "note_off", "time": 283, "note": 63, "velocity": 108, "channel": 0}, {"type": "note_on", "time": 14, "note": 61, "velocity": 118, "channel": 0}, {"type": "note_off", "time": 66, "note": 61, "velocity": 118, "channel": 0}, {"type": "note_on", "time": 11, "note": 60, "velocity": 102, "channel": 0}, {"type": "note_off", "time": 77, "note": 60, "velocity": 102, "channel": 0}, {"type": "note_on", "time": 707, "note": 58, "velocity": 116, "channel": 0}, {"type": "note_off", "time": 42, "note": 58, "velocity": 116, "channel": 0}, {"type": "note_on", "time": 6, "note": 56, "velocity": 120, "channel": 0}, {"type": "note_off", "time": 33, "note": 56, "velocity": 120, "channel": 0}, {"type": "note_on", "time": 6, "note": 55, "velocity": 112, "channel": 0}, {"type": "note_off", "time": 36, "note": 55, "velocity": 112, "channel": 0}, {"type": "note_on", "time": 464, "note": 53, "velocity": 104, "channel": 0}, {"type": "note_off", "time": 48, "note": 53, "velocity": 104, "channel": 0}, {"type": "note_on", "time": 4, "note": 55, "velocity": 98, "channel": 0}, {"type": "note_off", "time": 44, "note": 55, "velocity": 98, "channel": 0}, {"type": "note_on", "time": 12, "note": 62, "velocity": 111, "channel": 0}, {"type": "note_off", "time": 58, "note": 62, "velocity": 111, "channel": 0}, {"type": "note_on", "time": 3, "note": 65, "velocity": 124, "channel": 0}, {"type": "note_off", "time": 69, "note": 65, "velocity": 124, "channel": 0}, {"type": "note_on", "time": 9, "note": 64, "velocity": 112, "channel": 0}, {"type": "note_off", "time": 53, "note": 64, "velocity": 112, "channel": 0}, {"type": "note_on", "time": 34, "note": 68, "velocity": 115, "channel": 0}, {"type": "note_off", "time": 23, "note": 68, "velocity": 115, "channel": 0}, {"type": "note_on", "time": 1, "note": 70, "velocity": 112, "channel": 0}, {"type": "note_off", "time": 20, "note": 70, "velocity": 112, "channel": 0}, {"type": "note_on", "time": 0, "note": 73, "velocity": 114, "channel": 0}, {"type": "note_off", "time": 68, "note": 73, "velocity": 114, "channel": 0}, {"type": "note_on", "time": 9, "note": 72, "velocity": 116, "channel": 0}, {"type": "note_off", "time": 90, "note": 72, "velocity": 116, "channel": 0}, {"type": "note_on", "time": 7, "note": 70, "velocity": 117, "channel": 0}, {"type": "note_off", "time": 75, "note": 70, "velocity": 117, "channel": 0}, {"type": "note_on", "time": 12, "note": 68, "velocity": 116, "channel": 0}, {"type": "note_off", "time": 88, "note": 68, "velocity": 116, "channel": 0}, {"type": "note_on", "time": 246, "note": 63, "velocity": 105, "channel": 0}, {"type": "note_off", "time": 47, "note": 63, "velocity": 105, "channel": 0}, {"type": "note_on", "time": 7, "note": 67, "velocity": 119, "channel": 0}, {"type": "note_off", "time": 130, "note": 67, "velocity": 119, "channel": 0}, {"type": "note_on", "time": 9, "note": 68, "velocity": 114, "channel": 0}, {"type": "note_off", "time": 102, "note": 68, "velocity": 114, "channel": 0}, {"type": "note_on", "time": 469, "note": 64, "velocity": 119, "channel": 0}, {"type": "note_off", "time": 71, "note": 64, "velocity": 119, "channel": 0}, {"type": "note_on", "time": 4, "note": 65, "velocity": 120, "channel": 0}, {"type": "note_off", "time": 84, "note": 65, "velocity": 120, "channel": 0}, {"type": "note_on", "time": 27, "note": 62, "velocity": 113, "channel": 0}, {"type": "note_off", "time": 80, "note": 62, "velocity": 113, "channel": 0}, {"type": "note_on", "time": 5, "note": 58, "velocity": 103, "channel": 0}, {"type": "note_off", "time": 102, "note": 58, "velocity": 103, "channel": 0}, {"type": "note_on", "time": 360, "note": 62, "velocity": 104, "channel": 0}, {"type": "note_off", "time": 68, "note": 62, "velocity": 104, "channel": 0}, {"type": "note_on", "time": 7, "note": 65, "velocity": 118, "channel": 0}, {"type": "note_off", "time": 110, "note": 65, "velocity": 118, "channel": 0}, {"type": "note_on", "time": 9, "note": 67, "velocity": 115, "channel": 0}, {"type": "note_off", "time": 88, "note": 67, "velocity": 115, "channel": 0}, {"type": "note_on", "time": 5, "note": 64, "velocity": 109, "channel": 0}, {"type": "note_off", "time": 114, "note": 64, "velocity": 109, "channel": 0}, {"type": "note_on", "time": 11, "note": 62, "velocity": 101, "channel": 0}, {"type": "note_off", "time": 60, "note": 62, "velocity": 101, "channel": 0}, {"type": "note_on", "time": 13, "note": 63, "velocity": 117, "channel": 0}, {"type": "note_off", "time": 93, "note": 63, "velocity": 117, "channel": 0}, {"type": "note_on", "time": 18, "note": 60, "velocity": 116, "channel": 0}, {"type": "note_off", "time": 80, "note": 60, "velocity": 116, "channel": 0}, {"type": "note_on", "time": 11, "note": 56, "velocity": 107, "channel": 0}, {"type": "note_off", "time": 126, "note": 56, "velocity": 107, "channel": 0}, {"type": "note_on", "time": 77, "note": 54, "velocity": 113, "channel": 0}, {"type": "note_off", "time": 69, "note": 54, "velocity": 113, "channel": 0}, {"type": "note_on", "time": 18, "note": 61, "velocity": 116, "channel": 0}, {"type": "note_off", "time": 80, "note": 61, "velocity": 116, "channel": 0}, {"type": "note_on", "time": 18, "note": 59, "velocity": 106, "channel": 0}, {"type": "note_off", "time": 80, "note": 59, "velocity": 106, "channel": 0}, {"type": "note_on", "time": 23, "note": 57, "velocity": 104, "channel": 0}, {"type": "note_off", "time": 60, "note": 57, "velocity": 104, "channel": 0}, {"type": "note_on", "time": 5, "note": 58, "velocity": 117, "channel": 0}, {"type": "note_off", "time": 77, "note": 58, "velocity": 117, "channel": 0}, {"type": "note_on", "time": 30, "note": 51, "velocity": 108, "channel": 0}, {"type": "note_off", "time": 321, "note": 51, "velocity": 108, "channel": 0}, {"type": "note_on", "time": 953, "note": 57, "velocity": 117, "channel": 0}, {"type": "note_off", "time": 30, "note": 57, "velocity": 117, "channel": 0}, {"type": "note_on", "time": 3, "note": 55, "velocity": 117, "channel": 0}, {"type": "note_off", "time": 46, "note": 55, "velocity": 117, "channel": 0}, {"type": "note_on", "time": 12, "note": 51, "velocity": 118, "channel": 0}, {"type": "note_off", "time": 59, "note": 51, "velocity": 118, "channel": 0}, {"type": "note_on", "time": 5, "note": 49, "velocity": 119, "channel": 0}, {"type": "note_off", "time": 353, "note": 49, "velocity": 119, "channel": 0}, {"type": "note_on", "time": 38, "note": 56, "velocity": 112, "channel": 0}, {"type": "note_off", "time": 91, "note": 56, "velocity": 112, "channel": 0}, {"type": "note_on", "time": 483, "note": 56, "velocity": 113, "channel": 0}, {"type": "note_off", "time": 36, "note": 56, "velocity": 113, "channel": 0}, {"type": "note_on", "time": 5, "note": 55, "velocity": 117, "channel": 0}, {"type": "note_off", "time": 45, "note": 55, "velocity": 117, "channel": 0}, {"type": "note_on", "time": 3, "note": 53, "velocity": 116, "channel": 0}, {"type": "note_off", "time": 47, "note": 53, "velocity": 116, "channel": 0}, {"type": "note_on", "time": 3, "note": 56, "velocity": 120, "channel": 0}, {"type": "note_off", "time": 23, "note": 56, "velocity": 120, "channel": 0}, {"type": "note_on", "time": 3, "note": 59, "velocity": 118, "channel": 0}, {"type": "note_off", "time": 44, "note": 59, "velocity": 118, "channel": 0}, {"type": "note_on", "time": 14, "note": 63, "velocity": 113, "channel": 0}, {"type": "note_off", "time": 33, "note": 63, "velocity": 113, "channel": 0}, {"type": "note_on", "time": 25, "note": 70, "velocity": 116, "channel": 0}, {"type": "note_off", "time": 36, "note": 70, "velocity": 116, "channel": 0}, {"type": "note_on", "time": 3, "note": 67, "velocity": 117, "channel": 0}, {"type": "note_off", "time": 29, "note": 67, "velocity": 117, "channel": 0}, {"type": "note_on", "time": 13, "note": 65, "velocity": 119, "channel": 0}, {"type": "note_off", "time": 88, "note": 65, "velocity": 119, "channel": 0}, {"type": "note_on", "time": 472, "note": 65, "velocity": 120, "channel": 0}, {"type": "note_off", "time": 101, "note": 65, "velocity": 120, "channel": 0}, {"type": "note_on", "time": 18, "note": 63, "velocity": 92, "channel": 0}, {"type": "note_off", "time": 49, "note": 63, "velocity": 92, "channel": 0}, {"type": "note_on", "time": 139, "note": 63, "velocity": 103, "channel": 0}, {"type": "note_off", "time": 57, "note": 63, "velocity": 103, "channel": 0}, {"type": "note_on", "time": 14, "note": 66, "velocity": 119, "channel": 0}, {"type": "note_off", "time": 55, "note": 66, "velocity": 119, "channel": 0}, {"type": "note_on", "time": 20, "note": 68, "velocity": 118, "channel": 0}, {"type": "note_off", "time": 45, "note": 68, "velocity": 118, "channel": 0}, {"type": "note_on", "time": 5, "note": 67, "velocity": 118, "channel": 0}, {"type": "note_off", "time": 34, "note": 67, "velocity": 118, "channel": 0}, {"type": "note_on", "time": 5, "note": 69, "velocity": 115, "channel": 0}, {"type": "note_off", "time": 25, "note": 69, "velocity": 115, "channel": 0}, {"type": "note_on", "time": 9, "note": 70, "velocity": 117, "channel": 0}, {"type": "note_off", "time": 18, "note": 70, "velocity": 117, "channel": 0}, {"type": "note_on", "time": 12, "note": 71, "velocity": 118, "channel": 0}, {"type": "note_off", "time": 40, "note": 71, "velocity": 118, "channel": 0}, {"type": "note_on", "time": 11, "note": 72, "velocity": 115, "channel": 0}, {"type": "note_off", "time": 84, "note": 72, "velocity": 115, "channel": 0}, {"type": "note_on", "time": 7, "note": 73, "velocity": 116, "channel": 0}, {"type": "note_off", "time": 51, "note": 73, "velocity": 116, "channel": 0}, {"type": "note_on", "time": 7, "note": 72, "velocity": 114, "channel": 0}, {"type": "note_off", "time": 60, "note": 72, "velocity": 114, "channel": 0}, {"type": "note_on", "time": 3, "note": 71, "velocity": 116, "channel": 0}, {"type": "note_off", "time": 53, "note": 71, "velocity": 116, "channel": 0}, {"type": "note_on", "time": 20, "note": 70, "velocity": 114, "channel": 0}, {"type": "note_off", "time": 351, "note": 70, "velocity": 114, "channel": 0}, {"type": "note_on", "time": 783, "note": 67, "velocity": 123, "channel": 0}, {"type": "note_off", "time": 84, "note": 67, "velocity": 123, "channel": 0}, {"type": "note_on", "time": 38, "note": 75, "velocity": 120, "channel": 0}, {"type": "note_off", "time": 60, "note": 75, "velocity": 120, "channel": 0}, {"type": "note_on", "time": 11, "note": 73, "velocity": 113, "channel": 0}, {"type": "note_off", "time": 110, "note": 73, "velocity": 113, "channel": 0}, {"type": "note_on", "time": 1, "note": 74, "velocity": 110, "channel": 0}, {"type": "note_off", "time": 27, "note": 74, "velocity": 110, "channel": 0}, {"type": "note_on", "time": 5, "note": 73, "velocity": 119, "channel": 0}, {"type": "note_off", "time": 31, "note": 73, "velocity": 119, "channel": 0}, {"type": "note_on", "time": 7, "note": 72, "velocity": 116, "channel": 0}, {"type": "note_off", "time": 23, "note": 72, "velocity": 116, "channel": 0}, {"type": "note_on", "time": 5, "note": 69, "velocity": 113, "channel": 0}, {"type": "note_off", "time": 66, "note": 69, "velocity": 113, "channel": 0}, {"type": "note_on", "time": 25, "note": 72, "velocity": 119, "channel": 0}, {"type": "note_off", "time": 84, "note": 72, "velocity": 119, "channel": 0}, {"type": "note_on", "time": 1, "note": 70, "velocity": 119, "channel": 0}, {"type": "note_off", "time": 80, "note": 70, "velocity": 119, "channel": 0}, {"type": "note_on", "time": 16, "note": 67, "velocity": 116, "channel": 0}, {"type": "note_off", "time": 69, "note": 67, "velocity": 116, "channel": 0}, {"type": "note_on", "time": 16, "note": 63, "velocity": 102, "channel": 0}, {"type": "note_off", "time": 58, "note": 63, "velocity": 102, "channel": 0}, {"type": "note_on", "time": 78, "note": 60, "velocity": 102, "channel": 0}, {"type": "note_off", "time": 34, "note": 60, "velocity": 102, "channel": 0}, {"type": "note_on", "time": 22, "note": 68, "velocity": 117, "channel": 0}, {"type": "note_off", "time": 91, "note": 68, "velocity": 117, "channel": 0}, {"type": "note_on", "time": 7, "note": 70, "velocity": 111, "channel": 0}, {"type": "note_off", "time": 77, "note": 70, "velocity": 111, "channel": 0}, {"type": "note_on", "time": 1, "note": 67, "velocity": 118, "channel": 0}, {"type": "note_off", "time": 106, "note": 67, "velocity": 118, "channel": 0}, {"type": "note_on", "time": 3, "note": 65, "velocity": 119, "channel": 0}, {"type": "note_off", "time": 75, "note": 65, "velocity": 119, "channel": 0}, {"type": "note_on", "time": 3, "note": 63, "velocity": 110, "channel": 0}, {"type": "note_off", "time": 66, "note": 63, "velocity": 110, "channel": 0}, {"type": "note_on", "time": 148, "note": 62, "velocity": 103, "channel": 0}, {"type": "note_off", "time": 75, "note": 62, "velocity": 103, "channel": 0}, {"type": "note_on", "time": 9, "note": 65, "velocity": 117, "channel": 0}, {"type": "note_off", "time": 82, "note": 65, "velocity": 117, "channel": 0}, {"type": "note_on", "time": 18, "note": 62, "velocity": 105, "channel": 0}, {"type": "note_off", "time": 71, "note": 62, "velocity": 105, "channel": 0}, {"type": "note_on", "time": 12, "note": 63, "velocity": 105, "channel": 0}, {"type": "note_off", "time": 57, "note": 63, "velocity": 105, "channel": 0}, {"type": "note_on", "time": 16, "note": 65, "velocity": 119, "channel": 0}, {"type": "note_off", "time": 104, "note": 65, "velocity": 119, "channel": 0}, {"type": "note_on", "time": 14, "note": 67, "velocity": 115, "channel": 0}, {"type": "note_off", "time": 80, "note": 67, "velocity": 115, "channel": 0}, {"type": "note_on", "time": 3, "note": 63, "velocity": 109, "channel": 0}, {"type": "note_off", "time": 110, "note": 63, "velocity": 109, "channel": 0}, {"type": "note_on", "time": 22, "note": 58, "velocity": 102, "channel": 0}, {"type": "note_off", "time": 32, "note": 58, "velocity": 102, "channel": 0}, {"type": "note_on", "time": 13, "note": 61, "velocity": 9, "channel": 0}, {"type": "note_off", "time": 106, "note": 61, "velocity": 9, "channel": 0}, {"type": "note_on", "time": 7, "note": 63, "velocity": 9, "channel": 0}, {"type": "note_off", "time": 340, "note": 63, "velocity": 9, "channel": 0}, {"type": "note_on", "time": 1062, "note": 70, "velocity": 116, "channel": 0}, {"type": "note_off", "time": 139, "note": 70, "velocity": 116, "channel": 0}, {"type": "note_on", "time": 16, "note": 73, "velocity": 101, "channel": 0}, {"type": "note_off", "time": 31, "note": 73, "velocity": 101, "channel": 0}, {"type": "note_on", "time": 1, "note": 75, "velocity": 118, "channel": 0}, {"type": "note_off", "time": 112, "note": 75, "velocity": 118, "channel": 0}, {"type": "note_on", "time": 9, "note": 73, "velocity": 114, "channel": 0}, {"type": "note_off", "time": 66, "note": 73, "velocity": 114, "channel": 0}, {"type": "note_on", "time": 557, "note": 75, "velocity": 116, "channel": 0}, {"type": "note_off", "time": 123, "note": 75, "velocity": 116, "channel": 0}, {"type": "note_on", "time": 64, "note": 78, "velocity": 113, "channel": 0}, {"type": "note_off", "time": 161, "note": 78, "velocity": 113, "channel": 0}, {"type": "note_on", "time": 11, "note": 77, "velocity": 108, "channel": 0}, {"type": "note_off", "time": 25, "note": 77, "velocity": 108, "channel": 0}, {"type": "note_on", "time": 9, "note": 75, "velocity": 116, "channel": 0}, {"type": "note_off", "time": 112, "note": 75, "velocity": 116, "channel": 0}, {"type": "note_on", "time": 11, "note": 73, "velocity": 111, "channel": 0}, {"type": "note_off", "time": 80, "note": 73, "velocity": 111, "channel": 0}, {"type": "note_on", "time": 90, "note": 75, "velocity": 110, "channel": 0}, {"type": "note_off", "time": 275, "note": 75, "velocity": 110, "channel": 0}, {"type": "note_on", "time": 3, "note": 73, "velocity": 115, "channel": 0}, {"type": "note_off", "time": 82, "note": 73, "velocity": 115, "channel": 0}, {"type": "note_on", "time": 18, "note": 70, "velocity": 116, "channel": 0}, {"type": "note_off", "time": 102, "note": 70, "velocity": 116, "channel": 0}, {"type": "note_on", "time": 5, "note": 69, "velocity": 113, "channel": 0}, {"type": "note_off", "time": 101, "note": 69, "velocity": 113, "channel": 0}, {"type": "note_on", "time": 3, "note": 67, "velocity": 111, "channel": 0}, {"type": "note_off", "time": 69, "note": 67, "velocity": 111, "channel": 0}, {"type": "note_on", "time": 5, "note": 68, "velocity": 115, "channel": 0}, {"type": "note_off", "time": 139, "note": 68, "velocity": 115, "channel": 0}, {"type": "note_on", "time": 12, "note": 65, "velocity": 102, "channel": 0}, {"type": "note_off", "time": 33, "note": 65, "velocity": 102, "channel": 0}, {"type": "note_on", "time": 5, "note": 66, "velocity": 113, "channel": 0}, {"type": "note_off", "time": 104, "note": 66, "velocity": 113, "channel": 0}, {"type": "note_on", "time": 12, "note": 63, "velocity": 110, "channel": 0}, {"type": "note_off", "time": 66, "note": 63, "velocity": 110, "channel": 0}, {"type": "note_on", "time": 9, "note": 60, "velocity": 103, "channel": 0}, {"type": "note_off", "time": 117, "note": 60, "velocity": 103, "channel": 0}, {"type": "note_on", "time": 71, "note": 65, "velocity": 119, "channel": 0}, {"type": "note_off", "time": 123, "note": 65, "velocity": 119, "channel": 0}, {"type": "note_on", "time": 5, "note": 63, "velocity": 107, "channel": 0}, {"type": "note_off", "time": 38, "note": 63, "velocity": 107, "channel": 0}, {"type": "note_on", "time": 4, "note": 65, "velocity": 122, "channel": 0}, {"type": "note_off", "time": 56, "note": 65, "velocity": 122, "channel": 0}, {"type": "note_on", "time": 4, "note": 66, "velocity": 115, "channel": 0}, {"type": "note_off", "time": 64, "note": 66, "velocity": 115, "channel": 0}, {"type": "note_on", "time": 9, "note": 63, "velocity": 109, "channel": 0}, {"type": "note_off", "time": 356, "note": 63, "velocity": 109, "channel": 0}, {"type": "note_on", "time": 1053, "note": 59, "velocity": 107, "channel": 0}, {"type": "note_off", "time": 19, "note": 59, "velocity": 107, "channel": 0}, {"type": "note_on", "time": 2, "note": 60, "velocity": 109, "channel": 0}, {"type": "note_off", "time": 43, "note": 60, "velocity": 109, "channel": 0}, {"type": "note_on", "time": 6, "note": 62, "velocity": 109, "channel": 0}, {"type": "note_off", "time": 41, "note": 62, "velocity": 109, "channel": 0}, {"type": "note_on", "time": 9, "note": 63, "velocity": 101, "channel": 0}, {"type": "note_off", "time": 41, "note": 63, "velocity": 101, "channel": 0}, {"type": "note_on", "time": 12, "note": 65, "velocity": 123, "channel": 0}, {"type": "note_off", "time": 57, "note": 65, "velocity": 123, "channel": 0}, {"type": "note_on", "time": 8, "note": 67, "velocity": 117, "channel": 0}, {"type": "note_off", "time": 20, "note": 67, "velocity": 117, "channel": 0}, {"type": "note_on", "time": 9, "note": 68, "velocity": 118, "channel": 0}, {"type": "note_off", "time": 41, "note": 68, "velocity": 118, "channel": 0}, {"type": "note_on", "time": 19, "note": 69, "velocity": 112, "channel": 0}, {"type": "note_off", "time": 40, "note": 69, "velocity": 112, "channel": 0}, {"type": "note_on", "time": 9, "note": 70, "velocity": 117, "channel": 0}, {"type": "note_off", "time": 56, "note": 70, "velocity": 117, "channel": 0}, {"type": "note_on", "time": 6, "note": 66, "velocity": 111, "channel": 0}, {"type": "note_off", "time": 36, "note": 66, "velocity": 111, "channel": 0}, {"type": "note_on", "time": 9, "note": 67, "velocity": 119, "channel": 0}, {"type": "note_off", "time": 29, "note": 67, "velocity": 119, "channel": 0}, {"type": "note_on", "time": 24, "note": 74, "velocity": 110, "channel": 0}, {"type": "note_off", "time": 76, "note": 74, "velocity": 110, "channel": 0}, {"type": "note_on", "time": 627, "note": 77, "velocity": 123, "channel": 0}, {"type": "note_off", "time": 62, "note": 77, "velocity": 123, "channel": 0}, {"type": "note_on", "time": 5, "note": 76, "velocity": 120, "channel": 0}, {"type": "note_off", "time": 25, "note": 76, "velocity": 120, "channel": 0}, {"type": "note_on", "time": 9, "note": 75, "velocity": 117, "channel": 0}, {"type": "note_off", "time": 94, "note": 75, "velocity": 117, "channel": 0}, {"type": "note_on", "time": 1, "note": 72, "velocity": 113, "channel": 0}, {"type": "note_off", "time": 89, "note": 72, "velocity": 113, "channel": 0}, {"type": "note_on", "time": 31, "note": 68, "velocity": 100, "channel": 0}, {"type": "note_off", "time": 71, "note": 68, "velocity": 100, "channel": 0}, {"type": "note_on", "time": 29, "note": 65, "velocity": 102, "channel": 0}, {"type": "note_off", "time": 62, "note": 65, "velocity": 102, "channel": 0}, {"type": "note_on", "time": 20, "note": 74, "velocity": 113, "channel": 0}, {"type": "note_off", "time": 95, "note": 74, "velocity": 113, "channel": 0}, {"type": "note_on", "time": 2, "note": 76, "velocity": 111, "channel": 0}, {"type": "note_off", "time": 42, "note": 76, "velocity": 111, "channel": 0}, {"type": "note_on", "time": 1, "note": 74, "velocity": 111, "channel": 0}, {"type": "note_off", "time": 43, "note": 74, "velocity": 111, "channel": 0}, {"type": "note_on", "time": 9, "note": 70, "velocity": 118, "channel": 0}, {"type": "note_off", "time": 99, "note": 70, "velocity": 118, "channel": 0}, {"type": "note_on", "time": 7, "note": 72, "velocity": 113, "channel": 0}, {"type": "note_off", "time": 113, "note": 72, "velocity": 113, "channel": 0}, {"type": "note_on", "time": 3, "note": 74, "velocity": 104, "channel": 0}, {"type": "note_off", "time": 45, "note": 74, "velocity": 104, "channel": 0}, {"type": "note_on", "time": 3, "note": 72, "velocity": 112, "channel": 0}, {"type": "note_off", "time": 29, "note": 72, "velocity": 112, "channel": 0}, {"type": "note_on", "time": 1, "note": 68, "velocity": 114, "channel": 0}, {"type": "note_off", "time": 69, "note": 68, "velocity": 114, "channel": 0}, {"type": "note_on", "time": 5, "note": 65, "velocity": 118, "channel": 0}, {"type": "note_off", "time": 100, "note": 65, "velocity": 118, "channel": 0}, {"type": "note_on", "time": 10, "note": 63, "velocity": 113, "channel": 0}, {"type": "note_off", "time": 64, "note": 63, "velocity": 113, "channel": 0}, {"type": "note_on", "time": 9, "note": 62, "velocity": 113, "channel": 0}, {"type": "note_off", "time": 84, "note": 62, "velocity": 113, "channel": 0}, {"type": "note_on", "time": 9, "note": 65, "velocity": 108, "channel": 0}, {"type": "note_off", "time": 74, "note": 65, "velocity": 108, "channel": 0}, {"type": "note_on", "time": 11, "note": 70, "velocity": 116, "channel": 0}, {"type": "note_off", "time": 124, "note": 70, "velocity": 116, "channel": 0}, {"type": "note_on", "time": 2, "note": 68, "velocity": 115, "channel": 0}, {"type": "note_off", "time": 74, "note": 68, "velocity": 115, "channel": 0}, {"type": "note_on", "time": 9, "note": 67, "velocity": 116, "channel": 0}, {"type": "note_off", "time": 109, "note": 67, "velocity": 116, "channel": 0}, {"type": "note_on", "time": 6, "note": 63, "velocity": 105, "channel": 0}, {"type": "note_off", "time": 68, "note": 63, "velocity": 105, "channel": 0}, {"type": "note_on", "time": 12, "note": 61, "velocity": 108, "channel": 0}, {"type": "note_off", "time": 90, "note": 61, "velocity": 108, "channel": 0}, {"type": "note_on", "time": 15, "note": 63, "velocity": 110, "channel": 0}, {"type": "note_off", "time": 342, "note": 63, "velocity": 110, "channel": 0}, {"type": "note_on", "time": 950, "note": 67, "velocity": 118, "channel": 0}, {"type": "note_off", "time": 80, "note": 67, "velocity": 118, "channel": 0}, {"type": "note_on", "time": 14, "note": 68, "velocity": 98, "channel": 0}, {"type": "note_off", "time": 29, "note": 68, "velocity": 98, "channel": 0}, {"type": "note_on", "time": 1, "note": 70, "velocity": 117, "channel": 0}, {"type": "note_off", "time": 49, "note": 70, "velocity": 117, "channel": 0}, {"type": "note_on", "time": 16, "note": 66, "velocity": 116, "channel": 0}, {"type": "note_off", "time": 47, "note": 66, "velocity": 116, "channel": 0}, {"type": "note_on", "time": 3, "note": 67, "velocity": 115, "channel": 0}, {"type": "note_off", "time": 34, "note": 67, "velocity": 115, "channel": 0}, {"type": "note_on", "time": 9, "note": 70, "velocity": 97, "channel": 0}, {"type": "note_off", "time": 25, "note": 70, "velocity": 97, "channel": 0}, {"type": "note_on", "time": 13, "note": 75, "velocity": 118, "channel": 0}, {"type": "note_off", "time": 71, "note": 75, "velocity": 118, "channel": 0}, {"type": "note_on", "time": 22, "note": 73, "velocity": 108, "channel": 0}, {"type": "note_off", "time": 82, "note": 73, "velocity": 108, "channel": 0}, {"type": "note_on", "time": 549, "note": 70, "velocity": 115, "channel": 0}, {"type": "note_off", "time": 128, "note": 70, "velocity": 115, "channel": 0}, {"type": "note_on", "time": 7, "note": 72, "velocity": 109, "channel": 0}, {"type": "note_off", "time": 33, "note": 72, "velocity": 109, "channel": 0}, {"type": "note_on", "time": 3, "note": 70, "velocity": 112, "channel": 0}, {"type": "note_off", "time": 34, "note": 70, "velocity": 112, "channel": 0}, {"type": "note_on", "time": 5, "note": 67, "velocity": 117, "channel": 0}, {"type": "note_off", "time": 114, "note": 67, "velocity": 117, "channel": 0}, {"type": "note_on", "time": 0, "note": 75, "velocity": 117, "channel": 0}, {"type": "note_off", "time": 80, "note": 75, "velocity": 117, "channel": 0}, {"type": "note_on", "time": 9, "note": 76, "velocity": 116, "channel": 0}, {"type": "note_off", "time": 53, "note": 76, "velocity": 116, "channel": 0}, {"type": "note_on", "time": 7, "note": 75, "velocity": 115, "channel": 0}, {"type": "note_off", "time": 38, "note": 75, "velocity": 115, "channel": 0}, {"type": "note_on", "time": 12, "note": 70, "velocity": 110, "channel": 0}, {"type": "note_off", "time": 69, "note": 70, "velocity": 110, "channel": 0}, {"type": "note_on", "time": 1, "note": 73, "velocity": 113, "channel": 0}, {"type": "note_off", "time": 108, "note": 73, "velocity": 113, "channel": 0}, {"type": "note_on", "time": 0, "note": 74, "velocity": 104, "channel": 0}, {"type": "note_off", "time": 33, "note": 74, "velocity": 104, "channel": 0}, {"type": "note_on", "time": 7, "note": 73, "velocity": 113, "channel": 0}, {"type": "note_off", "time": 40, "note": 73, "velocity": 113, "channel": 0}, {"type": "note_on", "time": 1, "note": 70, "velocity": 118, "channel": 0}, {"type": "note_off", "time": 125, "note": 70, "velocity": 118, "channel": 0}, {"type": "note_on", "time": 1, "note": 68, "velocity": 114, "channel": 0}, {"type": "note_off", "time": 115, "note": 68, "velocity": 114, "channel": 0}, {"type": "note_on", "time": 9, "note": 72, "velocity": 105, "channel": 0}, {"type": "note_off", "time": 27, "note": 72, "velocity": 105, "channel": 0}, {"type": "note_on", "time": 1, "note": 70, "velocity": 110, "channel": 0}, {"type": "note_off", "time": 23, "note": 70, "velocity": 110, "channel": 0}, {"type": "note_on", "time": 7, "note": 68, "velocity": 116, "channel": 0}, {"type": "note_off", "time": 29, "note": 68, "velocity": 116, "channel": 0}, {"type": "note_on", "time": 5, "note": 66, "velocity": 115, "channel": 0}, {"type": "note_off", "time": 36, "note": 66, "velocity": 115, "channel": 0}, {"type": "note_on", "time": 18, "note": 68, "velocity": 114, "channel": 0}, {"type": "note_off", "time": 297, "note": 68, "velocity": 114, "channel": 0}, {"type": "note_on", "time": 10, "note": 66, "velocity": 108, "channel": 0}, {"type": "note_off", "time": 32, "note": 66, "velocity": 108, "channel": 0}, {"type": "note_on", "time": 8, "note": 68, "velocity": 118, "channel": 0}, {"type": "note_off", "time": 54, "note": 68, "velocity": 118, "channel": 0}, {"type": "note_on", "time": 9, "note": 69, "velocity": 112, "channel": 0}, {"type": "note_off", "time": 57, "note": 69, "velocity": 112, "channel": 0}, {"type": "note_on", "time": 3, "note": 68, "velocity": 115, "channel": 0}, {"type": "note_off", "time": 40, "note": 68, "velocity": 115, "channel": 0}, {"type": "note_on", "time": 7, "note": 63, "velocity": 109, "channel": 0}, {"type": "note_off", "time": 49, "note": 63, "velocity": 109, "channel": 0}, {"type": "note_on", "time": 2, "note": 61, "velocity": 109, "channel": 0}, {"type": "note_off", "time": 102, "note": 61, "velocity": 109, "channel": 0}, {"type": "note_on", "time": 18, "note": 63, "velocity": 104, "channel": 0}, {"type": "note_off", "time": 334, "note": 63, "velocity": 104, "channel": 0}, {"type": "note_on", "time": 1390, "note": 66, "velocity": 99, "channel": 0}, {"type": "note_off", "time": 42, "note": 66, "velocity": 99, "channel": 0}, {"type": "note_on", "time": 1, "note": 67, "velocity": 104, "channel": 0}, {"type": "note_off", "time": 97, "note": 67, "velocity": 104, "channel": 0}, {"type": "note_on", "time": 23, "note": 74, "velocity": 114, "channel": 0}, {"type": "note_off", "time": 71, "note": 74, "velocity": 114, "channel": 0}, {"type": "note_on", "time": 22, "note": 77, "velocity": 119, "channel": 0}, {"type": "note_off", "time": 106, "note": 77, "velocity": 119, "channel": 0}, {"type": "note_on", "time": 3, "note": 76, "velocity": 120, "channel": 0}, {"type": "note_off", "time": 23, "note": 76, "velocity": 120, "channel": 0}, {"type": "note_on", "time": 11, "note": 75, "velocity": 117, "channel": 0}, {"type": "note_off", "time": 53, "note": 75, "velocity": 117, "channel": 0}, {"type": "note_on", "time": 11, "note": 74, "velocity": 112, "channel": 0}, {"type": "note_off", "time": 66, "note": 74, "velocity": 112, "channel": 0}, {"type": "note_on", "time": 27, "note": 72, "velocity": 111, "channel": 0}, {"type": "note_off", "time": 82, "note": 72, "velocity": 111, "channel": 0}, {"type": "note_on", "time": 9, "note": 70, "velocity": 118, "channel": 0}, {"type": "note_off", "time": 91, "note": 70, "velocity": 118, "channel": 0}, {"type": "note_on", "time": 16, "note": 68, "velocity": 116, "channel": 0}, {"type": "note_off", "time": 97, "note": 68, "velocity": 116, "channel": 0}, {"type": "note_on", "time": 12, "note": 67, "velocity": 116, "channel": 0}, {"type": "note_off", "time": 77, "note": 67, "velocity": 116, "channel": 0}, {"type": "note_on", "time": 5, "note": 65, "velocity": 118, "channel": 0}, {"type": "note_off", "time": 80, "note": 65, "velocity": 118, "channel": 0}, {"type": "note_on", "time": 12, "note": 64, "velocity": 110, "channel": 0}, {"type": "note_off", "time": 79, "note": 64, "velocity": 110, "channel": 0}, {"type": "note_on", "time": 11, "note": 67, "velocity": 113, "channel": 0}, {"type": "note_off", "time": 73, "note": 67, "velocity": 113, "channel": 0}, {"type": "note_on", "time": 1, "note": 70, "velocity": 117, "channel": 0}, {"type": "note_off", "time": 101, "note": 70, "velocity": 117, "channel": 0}, {"type": "note_on", "time": 14, "note": 73, "velocity": 117, "channel": 0}, {"type": "note_off", "time": 80, "note": 73, "velocity": 117, "channel": 0}, {"type": "note_on", "time": 5, "note": 72, "velocity": 112, "channel": 0}, {"type": "note_off", "time": 106, "note": 72, "velocity": 112, "channel": 0}, {"type": "note_on", "time": 80, "note": 68, "velocity": 116, "channel": 0}, {"type": "note_off", "time": 91, "note": 68, "velocity": 116, "channel": 0}, {"type": "note_on", "time": 9, "note": 72, "velocity": 111, "channel": 0}, {"type": "note_off", "time": 49, "note": 72, "velocity": 111, "channel": 0}, {"type": "note_on", "time": 11, "note": 68, "velocity": 115, "channel": 0}, {"type": "note_off", "time": 45, "note": 68, "velocity": 115, "channel": 0}, {"type": "note_on", "time": 1, "note": 65, "velocity": 107, "channel": 0}, {"type": "note_off", "time": 86, "note": 65, "velocity": 107, "channel": 0}, {"type": "note_on", "time": 52, "note": 70, "velocity": 117, "channel": 0}, {"type": "note_off", "time": 114, "note": 70, "velocity": 117, "channel": 0}, {"type": "note_on", "time": 26, "note": 68, "velocity": 114, "channel": 0}, {"type": "note_off", "time": 58, "note": 68, "velocity": 114, "channel": 0}, {"type": "note_on", "time": 14, "note": 67, "velocity": 112, "channel": 0}, {"type": "note_off", "time": 44, "note": 67, "velocity": 112, "channel": 0}, {"type": "note_on", "time": 23, "note": 68, "velocity": 112, "channel": 0}, {"type": "note_off", "time": 253, "note": 68, "velocity": 112, "channel": 0}, {"type": "note_on", "time": 58, "note": 67, "velocity": 114, "channel": 0}, {"type": "note_off", "time": 303, "note": 67, "velocity": 114, "channel": 0}, {"type": "note_on", "time": 3, "note": 68, "velocity": 115, "channel": 0}, {"type": "note_off", "time": 77, "note": 68, "velocity": 115, "channel": 0}, {"type": "note_on", "time": 7, "note": 67, "velocity": 117, "channel": 0}, {"type": "note_off", "time": 125, "note": 67, "velocity": 117, "channel": 0}, {"type": "note_on", "time": 11, "note": 63, "velocity": 104, "channel": 0}, {"type": "note_off", "time": 90, "note": 63, "velocity": 104, "channel": 0}, {"type": "note_on", "time": 58, "note": 63, "velocity": 111, "channel": 0}, {"type": "note_off", "time": 349, "note": 63, "velocity": 111, "channel": 0}, {"type": "note_on", "time": 828, "note": 58, "velocity": 117, "channel": 0}, {"type": "note_off", "time": 35, "note": 58, "velocity": 117, "channel": 0}, {"type": "note_on", "time": 1, "note": 60, "velocity": 117, "channel": 0}, {"type": "note_off", "time": 21, "note": 60, "velocity": 117, "channel": 0}, {"type": "note_on", "time": 2, "note": 61, "velocity": 118, "channel": 0}, {"type": "note_off", "time": 46, "note": 61, "velocity": 118, "channel": 0}, {"type": "note_on", "time": 12, "note": 58, "velocity": 115, "channel": 0}, {"type": "note_off", "time": 43, "note": 58, "velocity": 115, "channel": 0}, {"type": "note_on", "time": 16, "note": 64, "velocity": 116, "channel": 0}, {"type": "note_off", "time": 34, "note": 64, "velocity": 116, "channel": 0}, {"type": "note_on", "time": 2, "note": 65, "velocity": 121, "channel": 0}, {"type": "note_off", "time": 34, "note": 65, "velocity": 121, "channel": 0}, {"type": "note_on", "time": 4, "note": 67, "velocity": 115, "channel": 0}, {"type": "note_off", "time": 21, "note": 67, "velocity": 115, "channel": 0}, {"type": "note_on", "time": 0, "note": 70, "velocity": 110, "channel": 0}, {"type": "note_off", "time": 19, "note": 70, "velocity": 110, "channel": 0}, {"type": "note_on", "time": 1, "note": 72, "velocity": 114, "channel": 0}, {"type": "note_off", "time": 40, "note": 72, "velocity": 114, "channel": 0}, {"type": "note_on", "time": 21, "note": 70, "velocity": 110, "channel": 0}, {"type": "note_off", "time": 33, "note": 70, "velocity": 110, "channel": 0}, {"type": "note_on", "time": 31, "note": 75, "velocity": 119, "channel": 0}, {"type": "note_off", "time": 38, "note": 75, "velocity": 119, "channel": 0}, {"type": "note_on", "time": 1, "note": 73, "velocity": 114, "channel": 0}, {"type": "note_off", "time": 94, "note": 73, "velocity": 114, "channel": 0}, {"type": "note_on", "time": 7, "note": 72, "velocity": 109, "channel": 0}, {"type": "note_off", "time": 64, "note": 72, "velocity": 109, "channel": 0}, {"type": "note_on", "time": 519, "note": 75, "velocity": 119, "channel": 0}, {"type": "note_off", "time": 138, "note": 75, "velocity": 119, "channel": 0}, {"type": "note_on", "time": 50, "note": 66, "velocity": 109, "channel": 0}, {"type": "note_off", "time": 133, "note": 66, "velocity": 109, "channel": 0}, {"type": "note_on", "time": 3, "note": 78, "velocity": 102, "channel": 0}, {"type": "note_off", "time": 45, "note": 78, "velocity": 102, "channel": 0}, {"type": "note_on", "time": 9, "note": 75, "velocity": 118, "channel": 0}, {"type": "note_off", "time": 126, "note": 75, "velocity": 118, "channel": 0}, {"type": "note_on", "time": 10, "note": 73, "velocity": 110, "channel": 0}, {"type": "note_off", "time": 94, "note": 73, "velocity": 110, "channel": 0}, {"type": "note_on", "time": 161, "note": 72, "velocity": 116, "channel": 0}, {"type": "note_off", "time": 47, "note": 72, "velocity": 116, "channel": 0}, {"type": "note_on", "time": 11, "note": 73, "velocity": 115, "channel": 0}, {"type": "note_off", "time": 146, "note": 73, "velocity": 115, "channel": 0}, {"type": "note_on", "time": 10, "note": 72, "velocity": 114, "channel": 0}, {"type": "note_off", "time": 91, "note": 72, "velocity": 114, "channel": 0}, {"type": "note_on", "time": 2, "note": 71, "velocity": 113, "channel": 0}, {"type": "note_off", "time": 77, "note": 71, "velocity": 113, "channel": 0}, {"type": "note_on", "time": 5, "note": 70, "velocity": 115, "channel": 0}, {"type": "note_off", "time": 102, "note": 70, "velocity": 115, "channel": 0}, {"type": "note_on", "time": 9, "note": 68, "velocity": 114, "channel": 0}, {"type": "note_off", "time": 86, "note": 68, "velocity": 114, "channel": 0}, {"type": "note_on", "time": 23, "note": 63, "velocity": 97, "channel": 0}, {"type": "note_off", "time": 77, "note": 63, "velocity": 97, "channel": 0}, {"type": "note_on", "time": 9, "note": 60, "velocity": 102, "channel": 0}, {"type": "note_off", "time": 58, "note": 60, "velocity": 102, "channel": 0}, {"type": "note_on", "time": 22, "note": 66, "velocity": 111, "channel": 0}, {"type": "note_off", "time": 119, "note": 66, "velocity": 111, "channel": 0}, {"type": "note_on", "time": 9, "note": 63, "velocity": 98, "channel": 0}, {"type": "note_off", "time": 53, "note": 63, "velocity": 98, "channel": 0}, {"type": "note_on", "time": 9, "note": 65, "velocity": 116, "channel": 0}, {"type": "note_off", "time": 132, "note": 65, "velocity": 116, "channel": 0}, {"type": "note_on", "time": 16, "note": 63, "velocity": 105, "channel": 0}, {"type": "note_off", "time": 27, "note": 63, "velocity": 105, "channel": 0}, {"type": "note_on", "time": 18, "note": 66, "velocity": 114, "channel": 0}, {"type": "note_off", "time": 139, "note": 66, "velocity": 114, "channel": 0}, {"type": "note_on", "time": 7, "note": 63, "velocity": 96, "channel": 0}, {"type": "note_off", "time": 29, "note": 63, "velocity": 96, "channel": 0}, {"type": "note_on", "time": 9, "note": 65, "velocity": 118, "channel": 0}, {"type": "note_off", "time": 104, "note": 65, "velocity": 118, "channel": 0}, {"type": "note_on", "time": 20, "note": 63, "velocity": 109, "channel": 0}, {"type": "note_off", "time": 262, "note": 63, "velocity": 109, "channel": 0}, {"type": "note_on", "time": 9, "note": 65, "velocity": 118, "channel": 0}, {"type": "note_off", "time": 90, "note": 65, "velocity": 118, "channel": 0}, {"type": "note_on", "time": 844, "note": 66, "velocity": 113, "channel": 0}, {"type": "note_off", "time": 121, "note": 66, "velocity": 113, "channel": 0}, {"type": "note_on", "time": 51, "note": 65, "velocity": 119, "channel": 0}, {"type": "note_off", "time": 123, "note": 65, "velocity": 119, "channel": 0}, {"type": "note_on", "time": 5, "note": 63, "velocity": 111, "channel": 0}, {"type": "note_off", "time": 250, "note": 63, "velocity": 111, "channel": 0}, {"type": "note_on", "time": 9, "note": 65, "velocity": 119, "channel": 0}, {"type": "note_off", "time": 97, "note": 65, "velocity": 119, "channel": 0}, {"type": "note_on", "time": 474, "note": 61, "velocity": 117, "channel": 0}, {"type": "note_off", "time": 119, "note": 61, "velocity": 117, "channel": 0}, {"type": "note_on", "time": 5, "note": 58, "velocity": 108, "channel": 0}, {"type": "note_off", "time": 53, "note": 58, "velocity": 108, "channel": 0}, {"type": "note_on", "time": 11, "note": 60, "velocity": 114, "channel": 0}, {"type": "note_off", "time": 126, "note": 60, "velocity": 114, "channel": 0}, {"type": "note_on", "time": 9, "note": 58, "velocity": 109, "channel": 0}, {"type": "note_off", "time": 45, "note": 58, "velocity": 109, "channel": 0}, {"type": "note_on", "time": 5, "note": 60, "velocity": 116, "channel": 0}, {"type": "note_off", "time": 44, "note": 60, "velocity": 116, "channel": 0}, {"type": "note_on", "time": 11, "note": 61, "velocity": 110, "channel": 0}, {"type": "note_off", "time": 237, "note": 61, "velocity": 110, "channel": 0}, {"type": "note_on", "time": 38, "note": 58, "velocity": 112, "channel": 0}, {"type": "note_off", "time": 42, "note": 58, "velocity": 112, "channel": 0}, {"type": "note_on", "time": 9, "note": 60, "velocity": 113, "channel": 0}, {"type": "note_off", "time": 114, "note": 60, "velocity": 113, "channel": 0}, {"type": "note_on", "time": 20, "note": 58, "velocity": 108, "channel": 0}, {"type": "note_off", "time": 106, "note": 58, "velocity": 108, "channel": 0}, {"type": "note_on", "time": 42, "note": 56, "velocity": 113, "channel": 0}, {"type": "note_off", "time": 264, "note": 56, "velocity": 113, "channel": 0}, {"type": "note_on", "time": 20, "note": 58, "velocity": 113, "channel": 0}, {"type": "note_off", "time": 82, "note": 58, "velocity": 113, "channel": 0}, {"type": "note_on", "time": 626, "note": 54, "velocity": 110, "channel": 0}, {"type": "note_off", "time": 37, "note": 54, "velocity": 110, "channel": 0}, {"type": "note_on", "time": 5, "note": 55, "velocity": 112, "channel": 0}, {"type": "note_off", "time": 114, "note": 55, "velocity": 112, "channel": 0}, {"type": "note_on", "time": 4, "note": 58, "velocity": 113, "channel": 0}, {"type": "note_off", "time": 154, "note": 58, "velocity": 113, "channel": 0}, {"type": "note_on", "time": 34, "note": 51, "velocity": 109, "channel": 0}, {"type": "note_off", "time": 345, "note": 51, "velocity": 109, "channel": 0}, {"type": "note_on", "time": 770, "note": 63, "velocity": 117, "channel": 0}, {"type": "note_off", "time": 75, "note": 63, "velocity": 117, "channel": 0}, {"type": "note_on", "time": 9, "note": 67, "velocity": 112, "channel": 0}, {"type": "note_off", "time": 128, "note": 67, "velocity": 112, "channel": 0}, {"type": "note_on", "time": 5, "note": 70, "velocity": 106, "channel": 0}, {"type": "note_off", "time": 45, "note": 70, "velocity": 106, "channel": 0}, {"type": "note_on", "time": 5, "note": 75, "velocity": 121, "channel": 0}, {"type": "note_off", "time": 102, "note": 75, "velocity": 121, "channel": 0}, {"type": "note_on", "time": 9, "note": 73, "velocity": 114, "channel": 0}, {"type": "note_off", "time": 123, "note": 73, "velocity": 114, "channel": 0}, {"type": "note_on", "time": 9, "note": 72, "velocity": 113, "channel": 0}, {"type": "note_off", "time": 62, "note": 72, "velocity": 113, "channel": 0}, {"type": "note_on", "time": 11, "note": 71, "velocity": 112, "channel": 0}, {"type": "note_off", "time": 82, "note": 71, "velocity": 112, "channel": 0}, {"type": "note_on", "time": 12, "note": 70, "velocity": 119, "channel": 0}, {"type": "note_off", "time": 80, "note": 70, "velocity": 119, "channel": 0}, {"type": "note_on", "time": 12, "note": 68, "velocity": 115, "channel": 0}, {"type": "note_off", "time": 80, "note": 68, "velocity": 115, "channel": 0}, {"type": "note_on", "time": 9, "note": 63, "velocity": 105, "channel": 0}, {"type": "note_off", "time": 86, "note": 63, "velocity": 105, "channel": 0}, {"type": "note_on", "time": 18, "note": 60, "velocity": 101, "channel": 0}, {"type": "note_off", "time": 51, "note": 60, "velocity": 101, "channel": 0}, {"type": "note_on", "time": 12, "note": 66, "velocity": 114, "channel": 0}, {"type": "note_off", "time": 119, "note": 66, "velocity": 114, "channel": 0}, {"type": "note_on", "time": 7, "note": 63, "velocity": 93, "channel": 0}, {"type": "note_off", "time": 45, "note": 63, "velocity": 93, "channel": 0}, {"type": "note_on", "time": 7, "note": 66, "velocity": 115, "channel": 0}, {"type": "note_off", "time": 114, "note": 66, "velocity": 115, "channel": 0}, {"type": "note_on", "time": 5, "note": 67, "velocity": 116, "channel": 0}, {"type": "note_off", "time": 91, "note": 67, "velocity": 116, "channel": 0}, {"type": "note_on", "time": 3, "note": 63, "velocity": 108, "channel": 0}, {"type": "note_off", "time": 91, "note": 63, "velocity": 108, "channel": 0}, {"type": "note_on", "time": 3, "note": 65, "velocity": 116, "channel": 0}, {"type": "note_off", "time": 84, "note": 65, "velocity": 116, "channel": 0}, {"type": "note_on", "time": 1, "note": 60, "velocity": 97, "channel": 0}, {"type": "note_off", "time": 101, "note": 60, "velocity": 97, "channel": 0}, {"type": "note_on", "time": 84, "note": 63, "velocity": 107, "channel": 0}, {"type": "note_off", "time": 283, "note": 63, "velocity": 107, "channel": 0}, {"type": "note_on", "time": 603, "note": 63, "velocity": 97, "channel": 0}, {"type": "note_off", "time": 40, "note": 63, "velocity": 97, "channel": 0}, {"type": "note_on", "time": 31, "note": 68, "velocity": 114, "channel": 0}, {"type": "note_off", "time": 91, "note": 68, "velocity": 114, "channel": 0}, {"type": "note_on", "time": 11, "note": 71, "velocity": 114, "channel": 0}, {"type": "note_off", "time": 64, "note": 71, "velocity": 114, "channel": 0}, {"type": "note_on", "time": 0, "note": 72, "velocity": 114, "channel": 0}, {"type": "note_off", "time": 165, "note": 72, "velocity": 114, "channel": 0}, {"type": "note_on", "time": 9, "note": 68, "velocity": 105, "channel": 0}, {"type": "note_off", "time": 58, "note": 68, "velocity": 105, "channel": 0}, {"type": "note_on", "time": 134, "note": 68, "velocity": 110, "channel": 0}, {"type": "note_off", "time": 47, "note": 68, "velocity": 110, "channel": 0}, {"type": "note_on", "time": 23, "note": 73, "velocity": 113, "channel": 0}, {"type": "note_off", "time": 93, "note": 73, "velocity": 113, "channel": 0}, {"type": "note_on", "time": 16, "note": 68, "velocity": 109, "channel": 0}, {"type": "note_off", "time": 45, "note": 68, "velocity": 109, "channel": 0}, {"type": "note_on", "time": 152, "note": 68, "velocity": 109, "channel": 0}, {"type": "note_off", "time": 44, "note": 68, "velocity": 109, "channel": 0}, {"type": "note_on", "time": 18, "note": 74, "velocity": 114, "channel": 0}, {"type": "note_off", "time": 90, "note": 74, "velocity": 114, "channel": 0}, {"type": "note_on", "time": 14, "note": 68, "velocity": 100, "channel": 0}, {"type": "note_off", "time": 51, "note": 68, "velocity": 100, "channel": 0}, {"type": "note_on", "time": 16, "note": 74, "velocity": 114, "channel": 0}, {"type": "note_off", "time": 101, "note": 74, "velocity": 114, "channel": 0}, {"type": "note_on", "time": 11, "note": 75, "velocity": 114, "channel": 0}, {"type": "note_off", "time": 106, "note": 75, "velocity": 114, "channel": 0}, {"type": "note_on", "time": 60, "note": 78, "velocity": 109, "channel": 0}, {"type": "note_off", "time": 112, "note": 78, "velocity": 109, "channel": 0}, {"type": "note_on", "time": 77, "note": 77, "velocity": 121, "channel": 0}, {"type": "note_off", "time": 80, "note": 77, "velocity": 121, "channel": 0}, {"type": "note_on", "time": 23, "note": 75, "velocity": 114, "channel": 0}, {"type": "note_off", "time": 106, "note": 75, "velocity": 114, "channel": 0}, {"type": "note_on", "time": 102, "note": 73, "velocity": 112, "channel": 0}, {"type": "note_off", "time": 114, "note": 73, "velocity": 112, "channel": 0}, {"type": "note_on", "time": 62, "note": 72, "velocity": 111, "channel": 0}, {"type": "note_off", "time": 194, "note": 72, "velocity": 111, "channel": 0}, {"type": "note_on", "time": 9, "note": 71, "velocity": 114, "channel": 0}, {"type": "note_off", "time": 91, "note": 71, "velocity": 114, "channel": 0}, {"type": "note_on", "time": 7, "note": 69, "velocity": 107, "channel": 0}, {"type": "note_off", "time": 69, "note": 69, "velocity": 107, "channel": 0}, {"type": "note_on", "time": 1, "note": 70, "velocity": 116, "channel": 0}, {"type": "note_off", "time": 281, "note": 70, "velocity": 116, "channel": 0}, {"type": "note_on", "time": 5, "note": 68, "velocity": 113, "channel": 0}, {"type": "note_off", "time": 79, "note": 68, "velocity": 113, "channel": 0}, {"type": "note_on", "time": 9, "note": 67, "velocity": 117, "channel": 0}, {"type": "note_off", "time": 36, "note": 67, "velocity": 117, "channel": 0}, {"type": "note_on", "time": 3, "note": 68, "velocity": 118, "channel": 0}, {"type": "note_off", "time": 38, "note": 68, "velocity": 118, "channel": 0}, {"type": "note_on", "time": 5, "note": 67, "velocity": 116, "channel": 0}, {"type": "note_off", "time": 31, "note": 67, "velocity": 116, "channel": 0}, {"type": "note_on", "time": 9, "note": 65, "velocity": 118, "channel": 0}, {"type": "note_off", "time": 45, "note": 65, "velocity": 118, "channel": 0}, {"type": "note_on", "time": 7, "note": 64, "velocity": 111, "channel": 0}, {"type": "note_off", "time": 82, "note": 64, "velocity": 111, "channel": 0}, {"type": "note_on", "time": 481, "note": 67, "velocity": 117, "channel": 0}, {"type": "note_off", "time": 38, "note": 67, "velocity": 117, "channel": 0}, {"type": "note_on", "time": 5, "note": 68, "velocity": 118, "channel": 0}, {"type": "note_off", "time": 36, "note": 68, "velocity": 118, "channel": 0}, {"type": "note_on", "time": 1, "note": 67, "velocity": 116, "channel": 0}, {"type": "note_off", "time": 36, "note": 67, "velocity": 116, "channel": 0}, {"type": "note_on", "time": 11, "note": 65, "velocity": 110, "channel": 0}, {"type": "note_off", "time": 44, "note": 65, "velocity": 110, "channel": 0}, {"type": "note_on", "time": 130, "note": 65, "velocity": 117, "channel": 0}, {"type": "note_off", "time": 58, "note": 65, "velocity": 117, "channel": 0}, {"type": "note_on", "time": 12, "note": 70, "velocity": 118, "channel": 0}, {"type": "note_off", "time": 114, "note": 70, "velocity": 118, "channel": 0}, {"type": "note_on", "time": 8, "note": 72, "velocity": 103, "channel": 0}, {"type": "note_off", "time": 42, "note": 72, "velocity": 103, "channel": 0}, {"type": "note_on", "time": 3, "note": 70, "velocity": 119, "channel": 0}, {"type": "note_off", "time": 31, "note": 70, "velocity": 119, "channel": 0}, {"type": "note_on", "time": 1, "note": 68, "velocity": 117, "channel": 0}, {"type": "note_off", "time": 106, "note": 68, "velocity": 117, "channel": 0}, {"type": "note_on", "time": 14, "note": 73, "velocity": 114, "channel": 0}, {"type": "note_off", "time": 75, "note": 73, "velocity": 114, "channel": 0}, {"type": "note_on", "time": 27, "note": 76, "velocity": 115, "channel": 0}, {"type": "note_off", "time": 42, "note": 76, "velocity": 115, "channel": 0}, {"type": "note_on", "time": 5, "note": 73, "velocity": 115, "channel": 0}, {"type": "note_off", "time": 40, "note": 73, "velocity": 115, "channel": 0}, {"type": "note_on", "time": 5, "note": 70, "velocity": 116, "channel": 0}, {"type": "note_off", "time": 62, "note": 70, "velocity": 116, "channel": 0}, {"type": "note_on", "time": 11, "note": 72, "velocity": 113, "channel": 0}, {"type": "note_off", "time": 422, "note": 72, "velocity": 113, "channel": 0}, {"type": "note_on", "time": 5, "note": 73, "velocity": 99, "channel": 0}, {"type": "note_off", "time": 60, "note": 73, "velocity": 99, "channel": 0}, {"type": "note_on", "time": 7, "note": 72, "velocity": 111, "channel": 0}, {"type": "note_off", "time": 38, "note": 72, "velocity": 111, "channel": 0}, {"type": "note_on", "time": 5, "note": 70, "velocity": 118, "channel": 0}, {"type": "note_off", "time": 102, "note": 70, "velocity": 118, "channel": 0}, {"type": "note_on", "time": 33, "note": 63, "velocity": 103, "channel": 0}, {"type": "note_off", "time": 38, "note": 63, "velocity": 103, "channel": 0}, {"type": "note_on", "time": 584, "note": 73, "velocity": 117, "channel": 0}, {"type": "note_off", "time": 136, "note": 73, "velocity": 117, "channel": 0}, {"type": "note_on", "time": 0, "note": 72, "velocity": 111, "channel": 0}, {"type": "note_off", "time": 38, "note": 72, "velocity": 111, "channel": 0}, {"type": "note_on", "time": 12, "note": 70, "velocity": 116, "channel": 0}, {"type": "note_off", "time": 121, "note": 70, "velocity": 116, "channel": 0}, {"type": "note_on", "time": 5, "note": 72, "velocity": 9, "channel": 0}, {"type": "note_off", "time": 244, "note": 72, "velocity": 9, "channel": 0}, {"type": "note_on", "time": 14, "note": 73, "velocity": 9, "channel": 0}, {"type": "note_off", "time": 119, "note": 73, "velocity": 9, "channel": 0}, {"type": "note_on", "time": 3, "note": 72, "velocity": 114, "channel": 0}, {"type": "note_off", "time": 53, "note": 72, "velocity": 114, "channel": 0}, {"type": "note_on", "time": 1, "note": 70, "velocity": 118, "channel": 0}, {"type": "note_off", "time": 115, "note": 70, "velocity": 118, "channel": 0}, {"type": "note_on", "time": 0, "note": 72, "velocity": 113, "channel": 0}, {"type": "note_off", "time": 71, "note": 72, "velocity": 113, "channel": 0}, {"type": "note_on", "time": 408, "note": 73, "velocity": 116, "channel": 0}, {"type": "note_off", "time": 123, "note": 73, "velocity": 116, "channel": 0}, {"type": "note_on", "time": 5, "note": 72, "velocity": 110, "channel": 0}, {"type": "note_off", "time": 33, "note": 72, "velocity": 110, "channel": 0}, {"type": "note_on", "time": 7, "note": 70, "velocity": 118, "channel": 0}, {"type": "note_off", "time": 114, "note": 70, "velocity": 118, "channel": 0}, {"type": "note_on", "time": 5, "note": 72, "velocity": 115, "channel": 0}, {"type": "note_off", "time": 178, "note": 72, "velocity": 115, "channel": 0}, {"type": "note_on", "time": 3, "note": 73, "velocity": 115, "channel": 0}, {"type": "note_off", "time": 40, "note": 73, "velocity": 115, "channel": 0}, {"type": "note_on", "time": 0, "note": 72, "velocity": 119, "channel": 0}, {"type": "note_off", "time": 47, "note": 72, "velocity": 119, "channel": 0}, {"type": "note_on", "time": 0, "note": 70, "velocity": 118, "channel": 0}, {"type": "note_off", "time": 95, "note": 70, "velocity": 118, "channel": 0}, {"type": "note_on", "time": 18, "note": 73, "velocity": 117, "channel": 0}, {"type": "note_off", "time": 82, "note": 73, "velocity": 117, "channel": 0}, {"type": "note_on", "time": 3, "note": 73, "velocity": 110, "channel": 0}, {"type": "note_off", "time": 36, "note": 73, "velocity": 110, "channel": 0}, {"type": "note_on", "time": 9, "note": 72, "velocity": 111, "channel": 0}, {"type": "note_off", "time": 38, "note": 72, "velocity": 111, "channel": 0}, {"type": "note_on", "time": 7, "note": 70, "velocity": 117, "channel": 0}, {"type": "note_off", "time": 69, "note": 70, "velocity": 117, "channel": 0}, {"type": "note_on", "time": 1, "note": 72, "velocity": 113, "channel": 0}, {"type": "note_off", "time": 119, "note": 72, "velocity": 113, "channel": 0}, {"type": "note_on", "time": 9, "note": 70, "velocity": 115, "channel": 0}, {"type": "note_off", "time": 47, "note": 70, "velocity": 115, "channel": 0}, {"type": "note_on", "time": 385, "note": 73, "velocity": 119, "channel": 0}, {"type": "note_off", "time": 110, "note": 73, "velocity": 119, "channel": 0}, {"type": "note_on", "time": 21, "note": 72, "velocity": 109, "channel": 0}, {"type": "note_off", "time": 51, "note": 72, "velocity": 109, "channel": 0}, {"type": "note_on", "time": 1, "note": 70, "velocity": 118, "channel": 0}, {"type": "note_off", "time": 114, "note": 70, "velocity": 118, "channel": 0}, {"type": "note_on", "time": 3, "note": 72, "velocity": 113, "channel": 0}, {"type": "note_off", "time": 73, "note": 72, "velocity": 113, "channel": 0}, {"type": "note_on", "time": 557, "note": 75, "velocity": 118, "channel": 0}, {"type": "note_off", "time": 115, "note": 75, "velocity": 118, "channel": 0}, {"type": "note_on", "time": 614, "note": 79, "velocity": 120, "channel": 0}, {"type": "note_off", "time": 112, "note": 79, "velocity": 120, "channel": 0}, {"type": "note_on", "time": 80, "note": 79, "velocity": 116, "channel": 0}, {"type": "note_off", "time": 452, "note": 79, "velocity": 116, "channel": 0}, {"type": "note_on", "time": 97, "note": 75, "velocity": 120, "channel": 0}, {"type": "note_off", "time": 49, "note": 75, "velocity": 120, "channel": 0}, {"type": "note_on", "time": 1, "note": 76, "velocity": 122, "channel": 0}, {"type": "note_off", "time": 49, "note": 76, "velocity": 122, "channel": 0}, {"type": "note_on", "time": 12, "note": 75, "velocity": 120, "channel": 0}, {"type": "note_off", "time": 73, "note": 75, "velocity": 120, "channel": 0}, {"type": "note_on", "time": 14, "note": 74, "velocity": 111, "channel": 0}, {"type": "note_off", "time": 90, "note": 74, "velocity": 111, "channel": 0}, {"type": "note_on", "time": 14, "note": 77, "velocity": 120, "channel": 0}, {"type": "note_off", "time": 86, "note": 77, "velocity": 120, "channel": 0}, {"type": "note_on", "time": 7, "note": 75, "velocity": 119, "channel": 0}, {"type": "note_off", "time": 79, "note": 75, "velocity": 119, "channel": 0}, {"type": "note_on", "time": 16, "note": 70, "velocity": 111, "channel": 0}, {"type": "note_off", "time": 77, "note": 70, "velocity": 111, "channel": 0}, {"type": "note_on", "time": 9, "note": 67, "velocity": 96, "channel": 0}, {"type": "note_off", "time": 80, "note": 67, "velocity": 96, "channel": 0}, {"type": "note_on", "time": 46, "note": 70, "velocity": 86, "channel": 0}, {"type": "note_off", "time": 36, "note": 70, "velocity": 86, "channel": 0}, {"type": "note_on", "time": 46, "note": 74, "velocity": 114, "channel": 0}, {"type": "note_off", "time": 78, "note": 74, "velocity": 114, "channel": 0}, {"type": "note_on", "time": 13, "note": 72, "velocity": 114, "channel": 0}, {"type": "note_off", "time": 45, "note": 72, "velocity": 114, "channel": 0}, {"type": "note_on", "time": 22, "note": 71, "velocity": 116, "channel": 0}, {"type": "note_off", "time": 38, "note": 71, "velocity": 116, "channel": 0}, {"type": "note_on", "time": 9, "note": 70, "velocity": 118, "channel": 0}, {"type": "note_off", "time": 49, "note": 70, "velocity": 118, "channel": 0}, {"type": "note_on", "time": 22, "note": 70, "velocity": 113, "channel": 0}, {"type": "note_off", "time": 30, "note": 70, "velocity": 113, "channel": 0}, {"type": "note_on", "time": 3, "note": 69, "velocity": 116, "channel": 0}, {"type": "note_off", "time": 57, "note": 69, "velocity": 116, "channel": 0}, {"type": "note_on", "time": 7, "note": 68, "velocity": 119, "channel": 0}, {"type": "note_off", "time": 95, "note": 68, "velocity": 119, "channel": 0}, {"type": "note_on", "time": 7, "note": 72, "velocity": 111, "channel": 0}, {"type": "note_off", "time": 93, "note": 72, "velocity": 111, "channel": 0}, {"type": "note_on", "time": 12, "note": 67, "velocity": 111, "channel": 0}, {"type": "note_off", "time": 79, "note": 67, "velocity": 111, "channel": 0}, {"type": "note_on", "time": 14, "note": 65, "velocity": 114, "channel": 0}, {"type": "note_off", "time": 45, "note": 65, "velocity": 114, "channel": 0}, {"type": "note_on", "time": 4, "note": 70, "velocity": 116, "channel": 0}, {"type": "note_off", "time": 106, "note": 70, "velocity": 116, "channel": 0}, {"type": "note_on", "time": 11, "note": 67, "velocity": 115, "channel": 0}, {"type": "note_off", "time": 68, "note": 67, "velocity": 115, "channel": 0}, {"type": "note_on", "time": 21, "note": 68, "velocity": 105, "channel": 0}, {"type": "note_off", "time": 116, "note": 68, "velocity": 105, "channel": 0}, {"type": "note_on", "time": 12, "note": 70, "velocity": 96, "channel": 0}, {"type": "note_off", "time": 33, "note": 70, "velocity": 96, "channel": 0}, {"type": "note_on", "time": 14, "note": 73, "velocity": 115, "channel": 0}, {"type": "note_off", "time": 91, "note": 73, "velocity": 115, "channel": 0}, {"type": "note_on", "time": 5, "note": 71, "velocity": 108, "channel": 0}, {"type": "note_off", "time": 71, "note": 71, "velocity": 108, "channel": 0}, {"type": "note_on", "time": 1, "note": 73, "velocity": 111, "channel": 0}, {"type": "note_off", "time": 91, "note": 73, "velocity": 111, "channel": 0}, {"type": "note_on", "time": 14, "note": 71, "velocity": 114, "channel": 0}, {"type": "note_off", "time": 73, "note": 71, "velocity": 114, "channel": 0}, {"type": "note_on", "time": 14, "note": 70, "velocity": 116, "channel": 0}, {"type": "note_off", "time": 90, "note": 70, "velocity": 116, "channel": 0}, {"type": "note_on", "time": 7, "note": 66, "velocity": 115, "channel": 0}, {"type": "note_off", "time": 75, "note": 66, "velocity": 115, "channel": 0}, {"type": "note_on", "time": 20, "note": 62, "velocity": 108, "channel": 0}, {"type": "note_off", "time": 91, "note": 62, "velocity": 108, "channel": 0}, {"type": "note_on", "time": 37, "note": 58, "velocity": 116, "channel": 0}, {"type": "note_off", "time": 42, "note": 58, "velocity": 116, "channel": 0}, {"type": "note_on", "time": 13, "note": 63, "velocity": 115, "channel": 0}, {"type": "note_off", "time": 112, "note": 63, "velocity": 115, "channel": 0}, {"type": "note_on", "time": 25, "note": 58, "velocity": 108, "channel": 0}, {"type": "note_off", "time": 34, "note": 58, "velocity": 108, "channel": 0}, {"type": "note_on", "time": 3, "note": 61, "velocity": 110, "channel": 0}, {"type": "note_off", "time": 316, "note": 61, "velocity": 110, "channel": 0}, {"type": "note_on", "time": 1072, "note": 58, "velocity": 118, "channel": 0}, {"type": "note_off", "time": 34, "note": 58, "velocity": 118, "channel": 0}, {"type": "note_on", "time": 3, "note": 61, "velocity": 118, "channel": 0}, {"type": "note_off", "time": 57, "note": 61, "velocity": 118, "channel": 0}, {"type": "note_on", "time": 7, "note": 63, "velocity": 115, "channel": 0}, {"type": "note_off", "time": 193, "note": 63, "velocity": 115, "channel": 0}, {"type": "note_on", "time": 62, "note": 58, "velocity": 112, "channel": 0}, {"type": "note_off", "time": 31, "note": 58, "velocity": 112, "channel": 0}, {"type": "note_on", "time": 6, "note": 61, "velocity": 117, "channel": 0}, {"type": "note_off", "time": 44, "note": 61, "velocity": 117, "channel": 0}, {"type": "note_on", "time": 1, "note": 63, "velocity": 116, "channel": 0}, {"type": "note_off", "time": 258, "note": 63, "velocity": 116, "channel": 0}, {"type": "note_on", "time": 18, "note": 58, "velocity": 112, "channel": 0}, {"type": "note_off", "time": 55, "note": 58, "velocity": 112, "channel": 0}, {"type": "note_on", "time": 12, "note": 61, "velocity": 116, "channel": 0}, {"type": "note_off", "time": 38, "note": 61, "velocity": 116, "channel": 0}, {"type": "note_on", "time": 7, "note": 60, "velocity": 118, "channel": 0}, {"type": "note_off", "time": 41, "note": 60, "velocity": 118, "channel": 0}, {"type": "note_on", "time": 12, "note": 58, "velocity": 112, "channel": 0}, {"type": "note_off", "time": 170, "note": 58, "velocity": 112, "channel": 0}, {"type": "note_on", "time": 5, "note": 60, "velocity": 113, "channel": 0}, {"type": "note_off", "time": 37, "note": 60, "velocity": 113, "channel": 0}, {"type": "note_on", "time": 3, "note": 63, "velocity": 115, "channel": 0}, {"type": "note_off", "time": 67, "note": 63, "velocity": 115, "channel": 0}, {"type": "note_on", "time": 6, "note": 61, "velocity": 110, "channel": 0}, {"type": "note_off", "time": 59, "note": 61, "velocity": 110, "channel": 0}, {"type": "note_on", "time": 433, "note": 58, "velocity": 108, "channel": 0}, {"type": "note_off", "time": 41, "note": 58, "velocity": 108, "channel": 0}, {"type": "note_on", "time": 0, "note": 61, "velocity": 117, "channel": 0}, {"type": "note_off", "time": 54, "note": 61, "velocity": 117, "channel": 0}, {"type": "note_on", "time": 6, "note": 63, "velocity": 115, "channel": 0}, {"type": "note_off", "time": 171, "note": 63, "velocity": 115, "channel": 0}, {"type": "note_on", "time": 2, "note": 60, "velocity": 114, "channel": 0}, {"type": "note_off", "time": 51, "note": 60, "velocity": 114, "channel": 0}, {"type": "note_on", "time": 16, "note": 58, "velocity": 114, "channel": 0}, {"type": "note_off", "time": 222, "note": 58, "velocity": 114, "channel": 0}, {"type": "note_on", "time": 12, "note": 60, "velocity": 111, "channel": 0}, {"type": "note_off", "time": 29, "note": 60, "velocity": 111, "channel": 0}, {"type": "note_on", "time": 20, "note": 63, "velocity": 114, "channel": 0}, {"type": "note_off", "time": 46, "note": 63, "velocity": 114, "channel": 0}, {"type": "note_on", "time": 29, "note": 58, "velocity": 113, "channel": 0}, {"type": "note_off", "time": 26, "note": 58, "velocity": 113, "channel": 0}, {"type": "note_on", "time": 8, "note": 60, "velocity": 114, "channel": 0}, {"type": "note_off", "time": 25, "note": 60, "velocity": 114, "channel": 0}, {"type": "note_on", "time": 7, "note": 61, "velocity": 114, "channel": 0}, {"type": "note_off", "time": 37, "note": 61, "velocity": 114, "channel": 0}, {"type": "note_on", "time": 9, "note": 63, "velocity": 115, "channel": 0}, {"type": "note_off", "time": 50, "note": 63, "velocity": 115, "channel": 0}, {"type": "note_on", "time": 12, "note": 61, "velocity": 113, "channel": 0}, {"type": "note_off", "time": 59, "note": 61, "velocity": 113, "channel": 0}, {"type": "note_on", "time": 483, "note": 63, "velocity": 114, "channel": 0}, {"type": "note_off", "time": 45, "note": 63, "velocity": 114, "channel": 0}, {"type": "note_on", "time": 5, "note": 66, "velocity": 120, "channel": 0}, {"type": "note_off", "time": 53, "note": 66, "velocity": 120, "channel": 0}, {"type": "note_on", "time": 21, "note": 68, "velocity": 113, "channel": 0}, {"type": "note_off", "time": 224, "note": 68, "velocity": 113, "channel": 0}, {"type": "note_on", "time": 11, "note": 66, "velocity": 115, "channel": 0}, {"type": "note_off", "time": 33, "note": 66, "velocity": 115, "channel": 0}, {"type": "note_on", "time": 18, "note": 68, "velocity": 113, "channel": 0}, {"type": "note_off", "time": 59, "note": 68, "velocity": 113, "channel": 0}, {"type": "note_on", "time": 1, "note": 66, "velocity": 116, "channel": 0}, {"type": "note_off", "time": 40, "note": 66, "velocity": 116, "channel": 0}, {"type": "note_on", "time": 10, "note": 63, "velocity": 108, "channel": 0}, {"type": "note_off", "time": 42, "note": 63, "velocity": 108, "channel": 0}, {"type": "note_on", "time": 11, "note": 61, "velocity": 115, "channel": 0}, {"type": "note_off", "time": 28, "note": 61, "velocity": 115, "channel": 0}, {"type": "note_on", "time": 6, "note": 58, "velocity": 115, "channel": 0}, {"type": "note_off", "time": 55, "note": 58, "velocity": 115, "channel": 0}, {"type": "note_on", "time": 5, "note": 60, "velocity": 113, "channel": 0}, {"type": "note_off", "time": 27, "note": 60, "velocity": 113, "channel": 0}, {"type": "note_on", "time": 20, "note": 55, "velocity": 115, "channel": 0}, {"type": "note_off", "time": 60, "note": 55, "velocity": 115, "channel": 0}, {"type": "note_on", "time": 10, "note": 52, "velocity": 111, "channel": 0}, {"type": "note_off", "time": 31, "note": 52, "velocity": 111, "channel": 0}, {"type": "note_on", "time": 5, "note": 53, "velocity": 116, "channel": 0}, {"type": "note_off", "time": 43, "note": 53, "velocity": 116, "channel": 0}, {"type": "note_on", "time": 11, "note": 56, "velocity": 115, "channel": 0}, {"type": "note_off", "time": 43, "note": 56, "velocity": 115, "channel": 0}, {"type": "note_on", "time": 12, "note": 60, "velocity": 110, "channel": 0}, {"type": "note_off", "time": 38, "note": 60, "velocity": 110, "channel": 0}, {"type": "note_on", "time": 0, "note": 63, "velocity": 117, "channel": 0}, {"type": "note_off", "time": 37, "note": 63, "velocity": 117, "channel": 0}, {"type": "note_on", "time": 12, "note": 70, "velocity": 113, "channel": 0}, {"type": "note_off", "time": 35, "note": 70, "velocity": 113, "channel": 0}, {"type": "note_on", "time": 10, "note": 68, "velocity": 117, "channel": 0}, {"type": "note_off", "time": 27, "note": 68, "velocity": 117, "channel": 0}, {"type": "note_on", "time": 7, "note": 66, "velocity": 115, "channel": 0}, {"type": "note_off", "time": 58, "note": 66, "velocity": 115, "channel": 0}, {"type": "note_on", "time": 403, "note": 58, "velocity": 109, "channel": 0}, {"type": "note_off", "time": 29, "note": 58, "velocity": 109, "channel": 0}, {"type": "note_on", "time": 11, "note": 61, "velocity": 116, "channel": 0}, {"type": "note_off", "time": 43, "note": 61, "velocity": 116, "channel": 0}, {"type": "note_on", "time": 8, "note": 63, "velocity": 115, "channel": 0}, {"type": "note_off", "time": 217, "note": 63, "velocity": 115, "channel": 0}, {"type": "note_on", "time": 11, "note": 61, "velocity": 114, "channel": 0}, {"type": "note_off", "time": 40, "note": 61, "velocity": 114, "channel": 0}, {"type": "note_on", "time": 3, "note": 63, "velocity": 115, "channel": 0}, {"type": "note_off", "time": 173, "note": 63, "velocity": 115, "channel": 0}, {"type": "note_on", "time": 29, "note": 58, "velocity": 115, "channel": 0}, {"type": "note_off", "time": 54, "note": 58, "velocity": 115, "channel": 0}, {"type": "note_on", "time": 9, "note": 60, "velocity": 119, "channel": 0}, {"type": "note_off", "time": 33, "note": 60, "velocity": 119, "channel": 0}, {"type": "note_on", "time": 10, "note": 64, "velocity": 114, "channel": 0}, {"type": "note_off", "time": 42, "note": 64, "velocity": 114, "channel": 0}, {"type": "note_on", "time": 25, "note": 65, "velocity": 123, "channel": 0}, {"type": "note_off", "time": 40, "note": 65, "velocity": 123, "channel": 0}, {"type": "note_on", "time": 1, "note": 67, "velocity": 113, "channel": 0}, {"type": "note_off", "time": 19, "note": 67, "velocity": 113, "channel": 0}, {"type": "note_on", "time": 11, "note": 72, "velocity": 115, "channel": 0}, {"type": "note_off", "time": 40, "note": 72, "velocity": 115, "channel": 0}, {"type": "note_on", "time": 0, "note": 75, "velocity": 120, "channel": 0}, {"type": "note_off", "time": 58, "note": 75, "velocity": 120, "channel": 0}, {"type": "note_on", "time": 6, "note": 73, "velocity": 111, "channel": 0}, {"type": "note_off", "time": 84, "note": 73, "velocity": 111, "channel": 0}, {"type": "note_on", "time": 720, "note": 63, "velocity": 122, "channel": 0}, {"type": "note_off", "time": 41, "note": 63, "velocity": 122, "channel": 0}, {"type": "note_on", "time": 7, "note": 66, "velocity": 112, "channel": 0}, {"type": "note_off", "time": 111, "note": 66, "velocity": 112, "channel": 0}, {"type": "note_on", "time": 12, "note": 63, "velocity": 112, "channel": 0}, {"type": "note_off", "time": 382, "note": 63, "velocity": 112, "channel": 0}, {"type": "note_on", "time": 5, "note": 61, "velocity": 105, "channel": 0}, {"type": "note_off", "time": 46, "note": 61, "velocity": 105, "channel": 0}, {"type": "note_on", "time": 23, "note": 63, "velocity": 113, "channel": 0}, {"type": "note_off", "time": 393, "note": 63, "velocity": 113, "channel": 0}, {"type": "note_on", "time": 18, "note": 58, "velocity": 115, "channel": 0}, {"type": "note_off", "time": 50, "note": 58, "velocity": 115, "channel": 0}, {"type": "note_on", "time": 14, "note": 60, "velocity": 114, "channel": 0}, {"type": "note_off", "time": 32, "note": 60, "velocity": 114, "channel": 0}, {"type": "note_on", "time": 2, "note": 63, "velocity": 117, "channel": 0}, {"type": "note_off", "time": 60, "note": 63, "velocity": 117, "channel": 0}, {"type": "note_on", "time": 5, "note": 61, "velocity": 118, "channel": 0}, {"type": "note_off", "time": 40, "note": 61, "velocity": 118, "channel": 0}, {"type": "note_on", "time": 3, "note": 60, "velocity": 116, "channel": 0}, {"type": "note_off", "time": 25, "note": 60, "velocity": 116, "channel": 0}, {"type": "note_on", "time": 12, "note": 63, "velocity": 113, "channel": 0}, {"type": "note_off", "time": 61, "note": 63, "velocity": 113, "channel": 0}, {"type": "note_on", "time": 7, "note": 66, "velocity": 117, "channel": 0}, {"type": "note_off", "time": 38, "note": 66, "velocity": 117, "channel": 0}, {"type": "note_on", "time": 4, "note": 67, "velocity": 114, "channel": 0}, {"type": "note_off", "time": 20, "note": 67, "velocity": 114, "channel": 0}, {"type": "note_on", "time": 3, "note": 70, "velocity": 109, "channel": 0}, {"type": "note_off", "time": 22, "note": 70, "velocity": 109, "channel": 0}, {"type": "note_on", "time": 0, "note": 75, "velocity": 113, "channel": 0}, {"type": "note_off", "time": 45, "note": 75, "velocity": 113, "channel": 0}, {"type": "note_on", "time": 14, "note": 72, "velocity": 123, "channel": 0}, {"type": "note_off", "time": 28, "note": 72, "velocity": 123, "channel": 0}, {"type": "note_on", "time": 3, "note": 73, "velocity": 114, "channel": 0}, {"type": "note_off", "time": 34, "note": 73, "velocity": 114, "channel": 0}, {"type": "note_on", "time": 213, "note": 63, "velocity": 92, "channel": 0}, {"type": "note_off", "time": 41, "note": 63, "velocity": 92, "channel": 0}, {"type": "note_on", "time": 31, "note": 60, "velocity": 118, "channel": 0}, {"type": "note_off", "time": 33, "note": 60, "velocity": 118, "channel": 0}, {"type": "note_on", "time": 9, "note": 62, "velocity": 111, "channel": 0}, {"type": "note_off", "time": 36, "note": 62, "velocity": 111, "channel": 0}, {"type": "note_on", "time": 27, "note": 63, "velocity": 111, "channel": 0}, {"type": "note_off", "time": 45, "note": 63, "velocity": 111, "channel": 0}, {"type": "note_on", "time": 20, "note": 58, "velocity": 118, "channel": 0}, {"type": "note_off", "time": 31, "note": 58, "velocity": 118, "channel": 0}, {"type": "note_on", "time": 1, "note": 60, "velocity": 114, "channel": 0}, {"type": "note_off", "time": 15, "note": 60, "velocity": 114, "channel": 0}, {"type": "note_on", "time": 8, "note": 62, "velocity": 119, "channel": 0}, {"type": "note_off", "time": 24, "note": 62, "velocity": 119, "channel": 0}, {"type": "note_on", "time": 2, "note": 63, "velocity": 116, "channel": 0}, {"type": "note_off", "time": 34, "note": 63, "velocity": 116, "channel": 0}, {"type": "note_on", "time": 9, "note": 66, "velocity": 115, "channel": 0}, {"type": "note_off", "time": 38, "note": 66, "velocity": 115, "channel": 0}, {"type": "note_on", "time": 7, "note": 67, "velocity": 116, "channel": 0}, {"type": "note_off", "time": 29, "note": 67, "velocity": 116, "channel": 0}, {"type": "note_on", "time": 2, "note": 70, "velocity": 116, "channel": 0}, {"type": "note_off", "time": 24, "note": 70, "velocity": 116, "channel": 0}, {"type": "note_on", "time": 6, "note": 67, "velocity": 112, "channel": 0}, {"type": "note_off", "time": 26, "note": 67, "velocity": 112, "channel": 0}, {"type": "note_on", "time": 5, "note": 72, "velocity": 110, "channel": 0}, {"type": "note_off", "time": 23, "note": 72, "velocity": 110, "channel": 0}, {"type": "note_on", "time": 1, "note": 74, "velocity": 116, "channel": 0}, {"type": "note_off", "time": 33, "note": 74, "velocity": 116, "channel": 0}, {"type": "note_on", "time": 0, "note": 73, "velocity": 108, "channel": 0}, {"type": "note_off", "time": 45, "note": 73, "velocity": 108, "channel": 0}, {"type": "note_on", "time": 365, "note": 58, "velocity": 119, "channel": 0}, {"type": "note_off", "time": 29, "note": 58, "velocity": 119, "channel": 0}, {"type": "note_on", "time": 3, "note": 60, "velocity": 111, "channel": 0}, {"type": "note_off", "time": 53, "note": 60, "velocity": 111, "channel": 0}, {"type": "note_on", "time": 5, "note": 61, "velocity": 114, "channel": 0}, {"type": "note_off", "time": 83, "note": 61, "velocity": 114, "channel": 0}, {"type": "note_on", "time": 13, "note": 60, "velocity": 108, "channel": 0}, {"type": "note_off", "time": 40, "note": 60, "velocity": 108, "channel": 0}, {"type": "note_on", "time": 10, "note": 58, "velocity": 117, "channel": 0}, {"type": "note_off", "time": 102, "note": 58, "velocity": 117, "channel": 0}, {"type": "note_on", "time": 13, "note": 60, "velocity": 116, "channel": 0}, {"type": "note_off", "time": 69, "note": 60, "velocity": 116, "channel": 0}, {"type": "note_on", "time": 9, "note": 58, "velocity": 115, "channel": 0}, {"type": "note_off", "time": 51, "note": 58, "velocity": 115, "channel": 0}, {"type": "note_on", "time": 6, "note": 64, "velocity": 120, "channel": 0}, {"type": "note_off", "time": 43, "note": 64, "velocity": 120, "channel": 0}, {"type": "note_on", "time": 11, "note": 65, "velocity": 122, "channel": 0}, {"type": "note_on", "time": 73, "note": 68, "velocity": 111, "channel": 0}, {"type": "note_off", "time": 0, "note": 65, "velocity": 122, "channel": 0}, {"type": "note_off", "time": 20, "note": 68, "velocity": 111, "channel": 0}, {"type": "note_on", "time": 18, "note": 71, "velocity": 110, "channel": 0}, {"type": "note_off", "time": 46, "note": 71, "velocity": 110, "channel": 0}, {"type": "note_on", "time": 25, "note": 70, "velocity": 114, "channel": 0}, {"type": "note_off", "time": 46, "note": 70, "velocity": 114, "channel": 0}, {"type": "note_on", "time": 3, "note": 72, "velocity": 108, "channel": 0}, {"type": "note_off", "time": 31, "note": 72, "velocity": 108, "channel": 0}, {"type": "note_on", "time": 2, "note": 77, "velocity": 118, "channel": 0}, {"type": "note_off", "time": 59, "note": 77, "velocity": 118, "channel": 0}, {"type": "note_on", "time": 5, "note": 72, "velocity": 112, "channel": 0}, {"type": "note_off", "time": 62, "note": 72, "velocity": 112, "channel": 0}, {"type": "note_on", "time": 403, "note": 57, "velocity": 111, "channel": 0}, {"type": "note_off", "time": 49, "note": 57, "velocity": 111, "channel": 0}, {"type": "note_on", "time": 13, "note": 60, "velocity": 111, "channel": 0}, {"type": "note_off", "time": 51, "note": 60, "velocity": 111, "channel": 0}, {"type": "note_on", "time": 2, "note": 57, "velocity": 110, "channel": 0}, {"type": "note_off", "time": 24, "note": 57, "velocity": 110, "channel": 0}, {"type": "note_on", "time": 4, "note": 58, "velocity": 118, "channel": 0}, {"type": "note_off", "time": 35, "note": 58, "velocity": 118, "channel": 0}, {"type": "note_on", "time": 4, "note": 55, "velocity": 116, "channel": 0}, {"type": "note_off", "time": 41, "note": 55, "velocity": 116, "channel": 0}, {"type": "note_on", "time": 18, "note": 53, "velocity": 119, "channel": 0}, {"type": "note_off", "time": 25, "note": 53, "velocity": 119, "channel": 0}, {"type": "note_on", "time": 6, "note": 52, "velocity": 114, "channel": 0}, {"type": "note_off", "time": 60, "note": 52, "velocity": 114, "channel": 0}, {"type": "note_on", "time": 10, "note": 53, "velocity": 116, "channel": 0}, {"type": "note_off", "time": 72, "note": 53, "velocity": 116, "channel": 0}, {"type": "note_on", "time": 3, "note": 52, "velocity": 113, "channel": 0}, {"type": "note_off", "time": 49, "note": 52, "velocity": 113, "channel": 0}, {"type": "note_on", "time": 2, "note": 53, "velocity": 116, "channel": 0}, {"type": "note_off", "time": 37, "note": 53, "velocity": 116, "channel": 0}, {"type": "note_on", "time": 2, "note": 55, "velocity": 112, "channel": 0}, {"type": "note_off", "time": 18, "note": 55, "velocity": 112, "channel": 0}, {"type": "note_on", "time": 3, "note": 61, "velocity": 114, "channel": 0}, {"type": "note_off", "time": 16, "note": 61, "velocity": 114, "channel": 0}, {"type": "note_on", "time": 1, "note": 60, "velocity": 113, "channel": 0}, {"type": "note_off", "time": 22, "note": 60, "velocity": 113, "channel": 0}, {"type": "note_on", "time": 5, "note": 71, "velocity": 118, "channel": 0}, {"type": "note_off", "time": 50, "note": 71, "velocity": 118, "channel": 0}, {"type": "note_on", "time": 22, "note": 71, "velocity": 109, "channel": 0}, {"type": "note_off", "time": 53, "note": 71, "velocity": 109, "channel": 0}, {"type": "note_on", "time": 7, "note": 63, "velocity": 115, "channel": 0}, {"type": "note_off", "time": 24, "note": 63, "velocity": 115, "channel": 0}, {"type": "note_on", "time": 2, "note": 62, "velocity": 111, "channel": 0}, {"type": "note_off", "time": 28, "note": 62, "velocity": 111, "channel": 0}, {"type": "note_on", "time": 0, "note": 65, "velocity": 121, "channel": 0}, {"type": "note_off", "time": 43, "note": 65, "velocity": 121, "channel": 0}, {"type": "note_on", "time": 11, "note": 72, "velocity": 108, "channel": 0}, {"type": "note_off", "time": 37, "note": 72, "velocity": 108, "channel": 0}, {"type": "note_on", "time": 6, "note": 73, "velocity": 100, "channel": 0}, {"type": "note_off", "time": 35, "note": 73, "velocity": 100, "channel": 0}, {"type": "note_on", "time": 8, "note": 65, "velocity": 118, "channel": 0}, {"type": "note_off", "time": 36, "note": 65, "velocity": 118, "channel": 0}, {"type": "note_on", "time": 13, "note": 72, "velocity": 113, "channel": 0}, {"type": "note_off", "time": 35, "note": 72, "velocity": 113, "channel": 0}, {"type": "note_on", "time": 3, "note": 74, "velocity": 109, "channel": 0}, {"type": "note_off", "time": 32, "note": 74, "velocity": 109, "channel": 0}, {"type": "note_on", "time": 5, "note": 78, "velocity": 111, "channel": 0}, {"type": "note_off", "time": 24, "note": 78, "velocity": 111, "channel": 0}, {"type": "note_on", "time": 6, "note": 77, "velocity": 121, "channel": 0}, {"type": "note_off", "time": 98, "note": 77, "velocity": 121, "channel": 0}, {"type": "note_on", "time": 484, "note": 75, "velocity": 109, "channel": 0}, {"type": "note_off", "time": 133, "note": 75, "velocity": 109, "channel": 0}, {"type": "note_on", "time": 602, "note": 86, "velocity": 117, "channel": 0}, {"type": "note_off", "time": 96, "note": 86, "velocity": 117, "channel": 0}, {"type": "note_on", "time": 93, "note": 86, "velocity": 118, "channel": 0}, {"type": "note_off", "time": 55, "note": 86, "velocity": 118, "channel": 0}, {"type": "note_on", "time": 6, "note": 87, "velocity": 113, "channel": 0}, {"type": "note_off", "time": 28, "note": 87, "velocity": 113, "channel": 0}, {"type": "note_on", "time": 1, "note": 86, "velocity": 119, "channel": 0}, {"type": "note_off", "time": 102, "note": 86, "velocity": 119, "channel": 0}, {"type": "note_on", "time": 539, "note": 81, "velocity": 117, "channel": 0}, {"type": "note_off", "time": 43, "note": 81, "velocity": 117, "channel": 0}, {"type": "note_on", "time": 2, "note": 82, "velocity": 112, "channel": 0}, {"type": "note_off", "time": 411, "note": 82, "velocity": 112, "channel": 0}, {"type": "note_on", "time": 93, "note": 79, "velocity": 116, "channel": 0}, {"type": "note_off", "time": 148, "note": 79, "velocity": 116, "channel": 0}, {"type": "note_on", "time": 3, "note": 80, "velocity": 116, "channel": 0}, {"type": "note_off", "time": 73, "note": 80, "velocity": 116, "channel": 0}, {"type": "note_on", "time": 77, "note": 66, "velocity": 103, "channel": 0}, {"type": "note_off", "time": 228, "note": 66, "velocity": 103, "channel": 0}, {"type": "note_on", "time": 10, "note": 79, "velocity": 118, "channel": 0}, {"type": "note_off", "time": 51, "note": 79, "velocity": 118, "channel": 0}, {"type": "note_on", "time": 0, "note": 75, "velocity": 117, "channel": 0}, {"type": "note_off", "time": 87, "note": 75, "velocity": 117, "channel": 0}, {"type": "note_on", "time": 86, "note": 73, "velocity": 116, "channel": 0}, {"type": "note_off", "time": 210, "note": 73, "velocity": 116, "channel": 0}, {"type": "note_on", "time": 2, "note": 72, "velocity": 112, "channel": 0}, {"type": "note_off", "time": 80, "note": 72, "velocity": 112, "channel": 0}, {"type": "note_on", "time": 3, "note": 71, "velocity": 112, "channel": 0}, {"type": "note_off", "time": 90, "note": 71, "velocity": 112, "channel": 0}, {"type": "note_on", "time": 11, "note": 70, "velocity": 118, "channel": 0}, {"type": "note_off", "time": 90, "note": 70, "velocity": 118, "channel": 0}, {"type": "note_on", "time": 3, "note": 68, "velocity": 112, "channel": 0}, {"type": "note_off", "time": 85, "note": 68, "velocity": 112, "channel": 0}, {"type": "note_on", "time": 9, "note": 63, "velocity": 104, "channel": 0}, {"type": "note_off", "time": 71, "note": 63, "velocity": 104, "channel": 0}, {"type": "note_on", "time": 34, "note": 60, "velocity": 108, "channel": 0}, {"type": "note_off", "time": 38, "note": 60, "velocity": 108, "channel": 0}, {"type": "note_on", "time": 4, "note": 65, "velocity": 118, "channel": 0}, {"type": "note_off", "time": 42, "note": 65, "velocity": 118, "channel": 0}, {"type": "note_on", "time": 3, "note": 67, "velocity": 117, "channel": 0}, {"type": "note_off", "time": 148, "note": 67, "velocity": 117, "channel": 0}, {"type": "note_on", "time": 2, "note": 70, "velocity": 115, "channel": 0}, {"type": "note_off", "time": 98, "note": 70, "velocity": 115, "channel": 0}, {"type": "note_on", "time": 82, "note": 63, "velocity": 119, "channel": 0}, {"type": "note_off", "time": 85, "note": 63, "velocity": 119, "channel": 0}, {"type": "note_on", "time": 407, "note": 60, "velocity": 115, "channel": 0}, {"type": "note_off", "time": 34, "note": 60, "velocity": 115, "channel": 0}, {"type": "note_on", "time": 5, "note": 61, "velocity": 116, "channel": 0}, {"type": "note_off", "time": 135, "note": 61, "velocity": 116, "channel": 0}, {"type": "note_on", "time": 12, "note": 63, "velocity": 113, "channel": 0}, {"type": "note_off", "time": 378, "note": 63, "velocity": 113, "channel": 0}, {"type": "note_on", "time": 6, "note": 58, "velocity": 100, "channel": 0}, {"type": "note_off", "time": 40, "note": 58, "velocity": 100, "channel": 0}, {"type": "note_on", "time": 2, "note": 61, "velocity": 114, "channel": 0}, {"type": "note_off", "time": 140, "note": 61, "velocity": 114, "channel": 0}, {"type": "note_on", "time": 13, "note": 63, "velocity": 109, "channel": 0}, {"type": "note_off", "time": 39, "note": 63, "velocity": 109, "channel": 0}, {"type": "note_on", "time": 11, "note": 66, "velocity": 116, "channel": 0}, {"type": "note_off", "time": 128, "note": 66, "velocity": 116, "channel": 0}, {"type": "note_on", "time": 14, "note": 63, "velocity": 101, "channel": 0}, {"type": "note_off", "time": 311, "note": 63, "velocity": 101, "channel": 0}, {"type": "end_of_track", "time": 0}]]}