{"ticks_per_beat": 18480, "tracks": [[{"type": "track_name", "name": "Melody", "time": 0}, {"type": "set_tempo", "tempo": 882352, "time": 0}, {"type": "key_signature", "key": "Db", "time": 0}, {"type": "time_signature", "numerator": 4, "denominator": 4, "clocks_per_click": 24, "notated_32nd_notes_per_beat": 8, "time": 0}, {"type": "note_on", "time": 2917, "note": 55, "velocity": 113, "channel": 0}, {"type": "note_off", "time": 14832, "note": 55, "velocity": 113, "channel": 0}, {"type": "note_on", "time": 729, "note": 56, "velocity": 99, "channel": 0}, {"type": "note_off", "time": 24315, "note": 56, "velocity": 99, "channel": 0}, {"type": "note_on", "time": 0, "note": 67, "velocity": 81, "channel": 0}, {"type": "note_off", "time": 2553, "note": 67, "velocity": 81, "channel": 0}, {"type": "note_on", "time": 364, "note": 70, "velocity": 94, "channel": 0}, {"type": "note_off", "time": 10455, "note": 70, "velocity": 94, "channel": 0}, {"type": "note_on", "time": 0, "note": 68, "velocity": 73, "channel": 0}, {"type": "note_off", "time": 41093, "note": 68, "velocity": 73, "channel": 0}, {"type": "note_on", "time": 11793, "note": 53, "velocity": 92, "channel": 0}, {"type": "note_off", "time": 5227, "note": 53, "velocity": 92, "channel": 0}, {"type": "note_on", "time": 121, "note": 54, "velocity": 92, "channel": 0}, {"type": "note_off", "time": 4255, "note": 54, "velocity": 92, "channel": 0}, {"type": "note_on", "time": 0, "note": 57, "velocity": 86, "channel": 0}, {"type": "note_on", "time": 4133, "note": 60, "velocity": 81, "channel": 0}, {"type": "note_off", "time": 0, "note": 57, "velocity": 86, "channel": 0}, {"type": "note_off", "time": 5957, "note": 60, "velocity": 81, "channel": 0}, {"type": "note_on", "time": 0, "note": 63, "velocity": 89, "channel": 0}, {"type": "note_off", "time": 5957, "note": 63, "velocity": 89, "channel": 0}, {"type": "note_on", "time": 121, "note": 60, "velocity": 82, "channel": 0}, {"type": "note_off", "time": 4498, "note": 60, "velocity": 82, "channel": 0}, {"type": "note_on", "time": 243, "note": 61, "velocity": 71, "channel": 0}, {"type": "note_off", "time": 23829, "note": 61, "velocity": 71, "channel": 0}, {"type": "note_on", "time": 28426, "note": 63, "velocity": 104, "channel": 0}, {"type": "note_off", "time": 4445, "note": 63, "velocity": 104, "channel": 0}, {"type": "note_on", "time": 341, "note": 65, "velocity": 84, "channel": 0}, {"type": "note_off", "time": 32655, "note": 65, "velocity": 84, "channel": 0}, {"type": "note_on", "time": 0, "note": 61, "velocity": 91, "channel": 0}, {"type": "note_off", "time": 4616, "note": 61, "velocity": 91, "channel": 0}, {"type": "note_on", "time": 0, "note": 58, "velocity": 101, "channel": 0}, {"type": "note_on", "time": 6667, "note": 64, "velocity": 94, "channel": 0}, {"type": "note_off", "time": 0, "note": 58, "velocity": 101, "channel": 0}, {"type": "note_off", "time": 3248, "note": 64, "velocity": 94, "channel": 0}, {"type": "note_on", "time": 341, "note": 65, "velocity": 78, "channel": 0}, {"type": "note_off", "time": 62917, "note": 65, "velocity": 78, "channel": 0}, {"type": "note_on", "time": 16755, "note": 56, "velocity": 104, "channel": 0}, {"type": "note_off", "time": 4616, "note": 56, "velocity": 104, "channel": 0}, {"type": "note_on", "time": 0, "note": 58, "velocity": 109, "channel": 0}, {"type": "note_on", "time": 6394, "note": 61, "velocity": 81, "channel": 0}, {"type": "note_off", "time": 0, "note": 58, "velocity": 109, "channel": 0}, {"type": "note_off", "time": 4498, "note": 61, "velocity": 81, "channel": 0}, {"type": "note_on", "time": 121, "note": 63, "velocity": 92, "channel": 0}, {"type": "note_off", "time": 5471, "note": 63, "velocity": 92, "channel": 0}, {"type": "note_on", "time": 607, "note": 65, "velocity": 86, "channel": 0}, {"type": "note_on", "time": 6200, "note": 61, "velocity": 73, "channel": 0}, {"type": "note_off", "time": 0, "note": 65, "velocity": 86, "channel": 0}, {"type": "note_off", "time": 21762, "note": 61, "velocity": 73, "channel": 0}, {"type": "note_on", "time": 0, "note": 63, "velocity": 93, "channel": 0}, {"type": "note_off", "time": 7902, "note": 63, "velocity": 93, "channel": 0}, {"type": "note_on", "time": 0, "note": 65, "velocity": 102, "channel": 0}, {"type": "note_off", "time": 7781, "note": 65, "velocity": 102, "channel": 0}, {"type": "note_on", "time": 121, "note": 68, "velocity": 89, "channel": 0}, {"type": "note_off", "time": 52522, "note": 68, "velocity": 89, "channel": 0}, {"type": "note_on", "time": 243, "note": 61, "velocity": 87, "channel": 0}, {"type": "note_off", "time": 4620, "note": 61, "velocity": 87, "channel": 0}, {"type": "note_on", "time": 121, "note": 63, "velocity": 90, "channel": 0}, {"type": "note_on", "time": 3525, "note": 58, "velocity": 91, "channel": 0}, {"type": "note_off", "time": 0, "note": 63, "velocity": 90, "channel": 0}, {"type": "note_off", "time": 4965, "note": 58, "velocity": 91, "channel": 0}, {"type": "note_on", "time": 0, "note": 61, "velocity": 73, "channel": 0}, {"type": "note_off", "time": 20003, "note": 61, "velocity": 73, "channel": 0}, {"type": "note_on", "time": 33852, "note": 71, "velocity": 111, "channel": 0}, {"type": "note_off", "time": 2906, "note": 71, "velocity": 111, "channel": 0}, {"type": "note_on", "time": 341, "note": 73, "velocity": 125, "channel": 0}, {"type": "note_off", "time": 3932, "note": 73, "velocity": 125, "channel": 0}, {"type": "note_on", "time": 0, "note": 68, "velocity": 113, "channel": 0}, {"type": "note_off", "time": 4445, "note": 68, "velocity": 113, "channel": 0}, {"type": "note_on", "time": 170, "note": 65, "velocity": 100, "channel": 0}, {"type": "note_off", "time": 4103, "note": 65, "velocity": 100, "channel": 0}, {"type": "note_on", "time": 0, "note": 60, "velocity": 100, "channel": 0}, {"type": "note_on", "time": 3248, "note": 61, "velocity": 82, "channel": 0}, {"type": "note_off", "time": 0, "note": 60, "velocity": 100, "channel": 0}, {"type": "note_off", "time": 9574, "note": 61, "velocity": 82, "channel": 0}, {"type": "note_on", "time": 0, "note": 58, "velocity": 91, "channel": 0}, {"type": "note_off", "time": 6838, "note": 58, "velocity": 91, "channel": 0}, {"type": "note_on", "time": 1538, "note": 66, "velocity": 88, "channel": 0}, {"type": "note_off", "time": 3248, "note": 66, "velocity": 88, "channel": 0}, {"type": "note_on", "time": 0, "note": 61, "velocity": 83, "channel": 0}, {"type": "note_off", "time": 3932, "note": 61, "velocity": 83, "channel": 0}, {"type": "note_on", "time": 0, "note": 58, "velocity": 88, "channel": 0}, {"type": "note_off", "time": 5129, "note": 58, "velocity": 88, "channel": 0}, {"type": "note_on", "time": 0, "note": 54, "velocity": 87, "channel": 0}, {"type": "note_off", "time": 5322, "note": 54, "velocity": 87, "channel": 0}, {"type": "note_on", "time": 0, "note": 53, "velocity": 96, "channel": 0}, {"type": "note_off", "time": 5227, "note": 53, "velocity": 96, "channel": 0}, {"type": "note_on", "time": 0, "note": 56, "velocity": 92, "channel": 0}, {"type": "note_off", "time": 3890, "note": 56, "velocity": 92, "channel": 0}, {"type": "note_on", "time": 0, "note": 52, "velocity": 92, "channel": 0}, {"type": "note_off", "time": 5106, "note": 52, "velocity": 92, "channel": 0}, {"type": "note_on", "time": 0, "note": 56, "velocity": 89, "channel": 0}, {"type": "note_off", "time": 4620, "note": 56, "velocity": 89, "channel": 0}, {"type": "note_on", "time": 0, "note": 51, "velocity": 82, "channel": 0}, {"type": "note_off", "time": 13860, "note": 51, "velocity": 82, "channel": 0}, {"type": "note_on", "time": 22978, "note": 55, "velocity": 107, "channel": 0}, {"type": "note_off", "time": 7294, "note": 55, "velocity": 107, "channel": 0}, {"type": "note_on", "time": 121, "note": 56, "velocity": 102, "channel": 0}, {"type": "note_off", "time": 4012, "note": 56, "velocity": 102, "channel": 0}, {"type": "note_on", "time": 0, "note": 60, "velocity": 91, "channel": 0}, {"type": "note_off", "time": 4620, "note": 60, "velocity": 91, "channel": 0}, {"type": "note_on", "time": 0, "note": 61, "velocity": 94, "channel": 0}, {"type": "note_off", "time": 3647, "note": 61, "velocity": 94, "channel": 0}, {"type": "note_on", "time": 680, "note": 67, "velocity": 97, "channel": 0}, {"type": "note_off", "time": 2359, "note": 67, "velocity": 97, "channel": 0}, {"type": "note_on", "time": 0, "note": 69, "velocity": 97, "channel": 0}, {"type": "note_off", "time": 2917, "note": 69, "velocity": 97, "channel": 0}, {"type": "note_on", "time": 1215, "note": 68, "velocity": 90, "channel": 0}, {"type": "note_off", "time": 4790, "note": 68, "velocity": 90, "channel": 0}, {"type": "note_on", "time": 0, "note": 65, "velocity": 84, "channel": 0}, {"type": "note_off", "time": 4188, "note": 65, "velocity": 84, "channel": 0}, {"type": "note_on", "time": 0, "note": 60, "velocity": 70, "channel": 0}, {"type": "note_off", "time": 14105, "note": 60, "velocity": 70, "channel": 0}, {"type": "note_on", "time": 18556, "note": 58, "velocity": 78, "channel": 0}, {"type": "note_off", "time": 2431, "note": 58, "velocity": 78, "channel": 0}, {"type": "note_on", "time": 0, "note": 59, "velocity": 92, "channel": 0}, {"type": "note_off", "time": 1398, "note": 59, "velocity": 92, "channel": 0}, {"type": "note_on", "time": 0, "note": 60, "velocity": 92, "channel": 0}, {"type": "note_off", "time": 1580, "note": 60, "velocity": 92, "channel": 0}, {"type": "note_on", "time": 0, "note": 63, "velocity": 94, "channel": 0}, {"type": "note_off", "time": 1945, "note": 63, "velocity": 94, "channel": 0}, {"type": "note_on", "time": 0, "note": 65, "velocity": 110, "channel": 0}, {"type": "note_off", "time": 4376, "note": 65, "velocity": 110, "channel": 0}, {"type": "note_on", "time": 243, "note": 66, "velocity": 104, "channel": 0}, {"type": "note_off", "time": 4072, "note": 66, "velocity": 104, "channel": 0}, {"type": "note_on", "time": 182, "note": 72, "velocity": 100, "channel": 0}, {"type": "note_off", "time": 3829, "note": 72, "velocity": 100, "channel": 0}, {"type": "note_on", "time": 0, "note": 69, "velocity": 101, "channel": 0}, {"type": "note_off", "time": 4498, "note": 69, "velocity": 101, "channel": 0}, {"type": "note_on", "time": 121, "note": 70, "velocity": 82, "channel": 0}, {"type": "note_off", "time": 3708, "note": 70, "velocity": 82, "channel": 0}, {"type": "note_on", "time": 0, "note": 65, "velocity": 75, "channel": 0}, {"type": "note_off", "time": 5896, "note": 65, "velocity": 75, "channel": 0}, {"type": "note_on", "time": 60, "note": 61, "velocity": 67, "channel": 0}, {"type": "note_off", "time": 2370, "note": 61, "velocity": 67, "channel": 0}, {"type": "note_on", "time": 0, "note": 58, "velocity": 85, "channel": 0}, {"type": "note_off", "time": 3951, "note": 58, "velocity": 85, "channel": 0}, {"type": "note_on", "time": 121, "note": 56, "velocity": 86, "channel": 0}, {"type": "note_off", "time": 1337, "note": 56, "velocity": 86, "channel": 0}, {"type": "note_on", "time": 60, "note": 57, "velocity": 86, "channel": 0}, {"type": "note_off", "time": 1458, "note": 57, "velocity": 86, "channel": 0}, {"type": "note_on", "time": 243, "note": 56, "velocity": 84, "channel": 0}, {"type": "note_off", "time": 1458, "note": 56, "velocity": 84, "channel": 0}, {"type": "note_on", "time": 0, "note": 54, "velocity": 79, "channel": 0}, {"type": "note_on", "time": 4255, "note": 63, "velocity": 86, "channel": 0}, {"type": "note_off", "time": 0, "note": 54, "velocity": 79, "channel": 0}, {"type": "note_off", "time": 1155, "note": 63, "velocity": 86, "channel": 0}, {"type": "note_on", "time": 0, "note": 65, "velocity": 79, "channel": 0}, {"type": "note_off", "time": 3647, "note": 65, "velocity": 79, "channel": 0}, {"type": "note_on", "time": 0, "note": 61, "velocity": 76, "channel": 0}, {"type": "note_off", "time": 3465, "note": 61, "velocity": 76, "channel": 0}, {"type": "note_on", "time": 0, "note": 55, "velocity": 79, "channel": 0}, {"type": "note_off", "time": 6990, "note": 55, "velocity": 79, "channel": 0}, {"type": "note_on", "time": 0, "note": 63, "velocity": 89, "channel": 0}, {"type": "note_off", "time": 1702, "note": 63, "velocity": 89, "channel": 0}, {"type": "note_on", "time": 0, "note": 65, "velocity": 81, "channel": 0}, {"type": "note_off", "time": 3525, "note": 65, "velocity": 81, "channel": 0}, {"type": "note_on", "time": 0, "note": 64, "velocity": 79, "channel": 0}, {"type": "note_off", "time": 1337, "note": 64, "velocity": 79, "channel": 0}, {"type": "note_on", "time": 60, "note": 61, "velocity": 85, "channel": 0}, {"type": "note_off", "time": 668, "note": 61, "velocity": 85, "channel": 0}, {"type": "note_on", "time": 0, "note": 59, "velocity": 90, "channel": 0}, {"type": "note_off", "time": 972, "note": 59, "velocity": 90, "channel": 0}, {"type": "note_on", "time": 0, "note": 55, "velocity": 85, "channel": 0}, {"type": "note_off", "time": 4559, "note": 55, "velocity": 85, "channel": 0}, {"type": "note_on", "time": 182, "note": 56, "velocity": 89, "channel": 0}, {"type": "note_off", "time": 4620, "note": 56, "velocity": 89, "channel": 0}, {"type": "note_on", "time": 0, "note": 65, "velocity": 76, "channel": 0}, {"type": "note_off", "time": 5410, "note": 65, "velocity": 76, "channel": 0}, {"type": "note_on", "time": 486, "note": 63, "velocity": 79, "channel": 0}, {"type": "note_off", "time": 425, "note": 63, "velocity": 79, "channel": 0}, {"type": "note_on", "time": 0, "note": 61, "velocity": 81, "channel": 0}, {"type": "note_off", "time": 1033, "note": 61, "velocity": 81, "channel": 0}, {"type": "note_on", "time": 182, "note": 59, "velocity": 88, "channel": 0}, {"type": "note_off", "time": 2066, "note": 59, "velocity": 88, "channel": 0}, {"type": "note_on", "time": 0, "note": 56, "velocity": 89, "channel": 0}, {"type": "note_off", "time": 3343, "note": 56, "velocity": 89, "channel": 0}, {"type": "note_on", "time": 0, "note": 57, "velocity": 81, "channel": 0}, {"type": "note_off", "time": 5714, "note": 57, "velocity": 81, "channel": 0}, {"type": "note_on", "time": 0, "note": 63, "velocity": 91, "channel": 0}, {"type": "note_off", "time": 1945, "note": 63, "velocity": 91, "channel": 0}, {"type": "note_on", "time": 60, "note": 65, "velocity": 82, "channel": 0}, {"type": "note_off", "time": 4316, "note": 65, "velocity": 82, "channel": 0}, {"type": "note_on", "time": 0, "note": 63, "velocity": 78, "channel": 0}, {"type": "note_on", "time": 790, "note": 59, "velocity": 83, "channel": 0}, {"type": "note_off", "time": 0, "note": 63, "velocity": 78, "channel": 0}, {"type": "note_off", "time": 972, "note": 59, "velocity": 83, "channel": 0}, {"type": "note_on", "time": 182, "note": 58, "velocity": 92, "channel": 0}, {"type": "note_off", "time": 790, "note": 58, "velocity": 92, "channel": 0}, {"type": "note_on", "time": 425, "note": 57, "velocity": 84, "channel": 0}, {"type": "note_off", "time": 3525, "note": 57, "velocity": 84, "channel": 0}, {"type": "note_on", "time": 303, "note": 58, "velocity": 76, "channel": 0}, {"type": "note_off", "time": 11671, "note": 58, "velocity": 76, "channel": 0}, {"type": "note_on", "time": 20976, "note": 60, "velocity": 106, "channel": 0}, {"type": "note_off", "time": 5129, "note": 60, "velocity": 106, "channel": 0}, {"type": "note_on", "time": 427, "note": 61, "velocity": 107, "channel": 0}, {"type": "note_on", "time": 5385, "note": 65, "velocity": 108, "channel": 0}, {"type": "note_off", "time": 0, "note": 61, "velocity": 107, "channel": 0}, {"type": "note_off", "time": 4958, "note": 65, "velocity": 108, "channel": 0}, {"type": "note_on", "time": 0, "note": 69, "velocity": 114, "channel": 0}, {"type": "note_off", "time": 6154, "note": 69, "velocity": 114, "channel": 0}, {"type": "note_on", "time": 0, "note": 70, "velocity": 111, "channel": 0}, {"type": "note_off", "time": 341, "note": 70, "velocity": 111, "channel": 0}, {"type": "note_on", "time": 85, "note": 71, "velocity": 114, "channel": 0}, {"type": "note_off", "time": 2393, "note": 71, "velocity": 114, "channel": 0}, {"type": "note_on", "time": 170, "note": 72, "velocity": 113, "channel": 0}, {"type": "note_off", "time": 3932, "note": 72, "velocity": 113, "channel": 0}, {"type": "note_on", "time": 0, "note": 70, "velocity": 101, "channel": 0}, {"type": "note_off", "time": 3846, "note": 70, "velocity": 101, "channel": 0}, {"type": "note_on", "time": 0, "note": 65, "velocity": 84, "channel": 0}, {"type": "note_off", "time": 4445, "note": 65, "velocity": 84, "channel": 0}, {"type": "note_on", "time": 0, "note": 61, "velocity": 76, "channel": 0}, {"type": "note_off", "time": 4017, "note": 61, "velocity": 76, "channel": 0}, {"type": "note_on", "time": 43, "note": 67, "velocity": 88, "channel": 0}, {"type": "note_off", "time": 1762, "note": 67, "velocity": 88, "channel": 0}, {"type": "note_on", "time": 60, "note": 69, "velocity": 87, "channel": 0}, {"type": "note_off", "time": 851, "note": 69, "velocity": 87, "channel": 0}, {"type": "note_on", "time": 121, "note": 67, "velocity": 87, "channel": 0}, {"type": "note_off", "time": 1823, "note": 67, "velocity": 87, "channel": 0}, {"type": "note_on", "time": 0, "note": 65, "velocity": 81, "channel": 0}, {"type": "note_off", "time": 3282, "note": 65, "velocity": 81, "channel": 0}, {"type": "note_on", "time": 790, "note": 61, "velocity": 76, "channel": 0}, {"type": "note_off", "time": 3282, "note": 61, "velocity": 76, "channel": 0}, {"type": "note_on", "time": 0, "note": 55, "velocity": 87, "channel": 0}, {"type": "note_off", "time": 5045, "note": 55, "velocity": 87, "channel": 0}, {"type": "note_on", "time": 60, "note": 54, "velocity": 95, "channel": 0}, {"type": "note_on", "time": 6382, "note": 60, "velocity": 78, "channel": 0}, {"type": "note_off", "time": 0, "note": 54, "velocity": 95, "channel": 0}, {"type": "note_off", "time": 972, "note": 60, "velocity": 78, "channel": 0}, {"type": "note_on", "time": 364, "note": 63, "velocity": 77, "channel": 0}, {"type": "note_off", "time": 4741, "note": 63, "velocity": 77, "channel": 0}, {"type": "note_on", "time": 121, "note": 58, "velocity": 78, "channel": 0}, {"type": "note_off", "time": 5531, "note": 58, "velocity": 78, "channel": 0}, {"type": "note_on", "time": 0, "note": 65, "velocity": 70, "channel": 0}, {"type": "note_off", "time": 5349, "note": 65, "velocity": 70, "channel": 0}, {"type": "note_on", "time": 0, "note": 63, "velocity": 69, "channel": 0}, {"type": "note_off", "time": 9118, "note": 63, "velocity": 69, "channel": 0}, {"type": "note_on", "time": 26629, "note": 58, "velocity": 95, "channel": 0}, {"type": "note_off", "time": 5953, "note": 58, "velocity": 95, "channel": 0}, {"type": "note_on", "time": 0, "note": 61, "velocity": 79, "channel": 0}, {"type": "note_off", "time": 3404, "note": 61, "velocity": 79, "channel": 0}, {"type": "note_on", "time": 0, "note": 65, "velocity": 98, "channel": 0}, {"type": "note_off", "time": 4802, "note": 65, "velocity": 98, "channel": 0}, {"type": "note_on", "time": 790, "note": 68, "velocity": 112, "channel": 0}, {"type": "note_on", "time": 4498, "note": 66, "velocity": 96, "channel": 0}, {"type": "note_off", "time": 0, "note": 68, "velocity": 112, "channel": 0}, {"type": "note_off", "time": 4194, "note": 66, "velocity": 96, "channel": 0}, {"type": "note_on", "time": 60, "note": 65, "velocity": 75, "channel": 0}, {"type": "note_off", "time": 4255, "note": 65, "velocity": 75, "channel": 0}, {"type": "note_on", "time": 0, "note": 63, "velocity": 89, "channel": 0}, {"type": "note_off", "time": 4376, "note": 63, "velocity": 89, "channel": 0}, {"type": "note_on", "time": 0, "note": 62, "velocity": 89, "channel": 0}, {"type": "note_off", "time": 4012, "note": 62, "velocity": 89, "channel": 0}, {"type": "note_on", "time": 0, "note": 59, "velocity": 90, "channel": 0}, {"type": "note_off", "time": 4437, "note": 59, "velocity": 90, "channel": 0}, {"type": "note_on", "time": 243, "note": 58, "velocity": 86, "channel": 0}, {"type": "note_off", "time": 4255, "note": 58, "velocity": 86, "channel": 0}, {"type": "note_on", "time": 0, "note": 56, "velocity": 97, "channel": 0}, {"type": "note_on", "time": 4498, "note": 55, "velocity": 93, "channel": 0}, {"type": "note_off", "time": 0, "note": 56, "velocity": 97, "channel": 0}, {"type": "note_off", "time": 5592, "note": 55, "velocity": 93, "channel": 0}, {"type": "note_on", "time": 0, "note": 58, "velocity": 82, "channel": 0}, {"type": "note_off", "time": 2978, "note": 58, "velocity": 82, "channel": 0}, {"type": "note_on", "time": 182, "note": 61, "velocity": 88, "channel": 0}, {"type": "note_off", "time": 4316, "note": 61, "velocity": 88, "channel": 0}, {"type": "note_on", "time": 729, "note": 62, "velocity": 83, "channel": 0}, {"type": "note_off", "time": 1033, "note": 62, "velocity": 83, "channel": 0}, {"type": "note_on", "time": 486, "note": 64, "velocity": 88, "channel": 0}, {"type": "note_off", "time": 6565, "note": 64, "velocity": 88, "channel": 0}, {"type": "note_on", "time": 1155, "note": 56, "velocity": 89, "channel": 0}, {"type": "note_off", "time": 3465, "note": 56, "velocity": 89, "channel": 0}, {"type": "note_on", "time": 0, "note": 58, "velocity": 84, "channel": 0}, {"type": "note_off", "time": 6261, "note": 58, "velocity": 84, "channel": 0}, {"type": "note_on", "time": 0, "note": 61, "velocity": 67, "channel": 0}, {"type": "note_off", "time": 17264, "note": 61, "velocity": 67, "channel": 0}, {"type": "note_on", "time": 27646, "note": 66, "velocity": 103, "channel": 0}, {"type": "note_off", "time": 1282, "note": 66, "velocity": 103, "channel": 0}, {"type": "note_on", "time": 0, "note": 68, "velocity": 99, "channel": 0}, {"type": "note_off", "time": 3504, "note": 68, "velocity": 99, "channel": 0}, {"type": "note_on", "time": 0, "note": 66, "velocity": 81, "channel": 0}, {"type": "note_off", "time": 5043, "note": 66, "velocity": 81, "channel": 0}, {"type": "note_on", "time": 0, "note": 65, "velocity": 85, "channel": 0}, {"type": "note_off", "time": 4530, "note": 65, "velocity": 85, "channel": 0}, {"type": "note_on", "time": 0, "note": 63, "velocity": 89, "channel": 0}, {"type": "note_off", "time": 1709, "note": 63, "velocity": 89, "channel": 0}, {"type": "note_on", "time": 170, "note": 64, "velocity": 88, "channel": 0}, {"type": "note_off", "time": 2992, "note": 64, "velocity": 88, "channel": 0}, {"type": "note_on", "time": 0, "note": 63, "velocity": 87, "channel": 0}, {"type": "note_off", "time": 3419, "note": 63, "velocity": 87, "channel": 0}, {"type": "note_on", "time": 0, "note": 61, "velocity": 82, "channel": 0}, {"type": "note_off", "time": 4445, "note": 61, "velocity": 82, "channel": 0}, {"type": "note_on", "time": 0, "note": 57, "velocity": 91, "channel": 0}, {"type": "note_off", "time": 4359, "note": 57, "velocity": 91, "channel": 0}, {"type": "note_on", "time": 85, "note": 56, "velocity": 83, "channel": 0}, {"type": "note_off", "time": 9317, "note": 56, "velocity": 83, "channel": 0}, {"type": "note_on", "time": 341, "note": 58, "velocity": 90, "channel": 0}, {"type": "note_off", "time": 5300, "note": 58, "velocity": 90, "channel": 0}, {"type": "note_on", "time": 3077, "note": 61, "velocity": 65, "channel": 0}, {"type": "note_off", "time": 9745, "note": 61, "velocity": 65, "channel": 0}, {"type": "note_on", "time": 13390, "note": 58, "velocity": 94, "channel": 0}, {"type": "note_off", "time": 4437, "note": 58, "velocity": 94, "channel": 0}, {"type": "note_on", "time": 425, "note": 59, "velocity": 85, "channel": 0}, {"type": "note_off", "time": 1215, "note": 59, "velocity": 85, "channel": 0}, {"type": "note_on", "time": 182, "note": 60, "velocity": 76, "channel": 0}, {"type": "note_off", "time": 1215, "note": 60, "velocity": 76, "channel": 0}, {"type": "note_on", "time": 0, "note": 63, "velocity": 81, "channel": 0}, {"type": "note_off", "time": 1884, "note": 63, "velocity": 81, "channel": 0}, {"type": "note_on", "time": 121, "note": 66, "velocity": 94, "channel": 0}, {"type": "note_off", "time": 3282, "note": 66, "velocity": 94, "channel": 0}, {"type": "note_on", "time": 1823, "note": 69, "velocity": 108, "channel": 0}, {"type": "note_off", "time": 2127, "note": 69, "velocity": 108, "channel": 0}, {"type": "note_on", "time": 303, "note": 70, "velocity": 101, "channel": 0}, {"type": "note_off", "time": 2857, "note": 70, "velocity": 101, "channel": 0}, {"type": "note_on", "time": 60, "note": 69, "velocity": 99, "channel": 0}, {"type": "note_off", "time": 4194, "note": 69, "velocity": 99, "channel": 0}, {"type": "note_on", "time": 182, "note": 68, "velocity": 70, "channel": 0}, {"type": "note_off", "time": 3525, "note": 68, "velocity": 70, "channel": 0}, {"type": "note_on", "time": 60, "note": 67, "velocity": 95, "channel": 0}, {"type": "note_off", "time": 3890, "note": 67, "velocity": 95, "channel": 0}, {"type": "note_on", "time": 243, "note": 66, "velocity": 70, "channel": 0}, {"type": "note_off", "time": 10942, "note": 66, "velocity": 70, "channel": 0}, {"type": "note_on", "time": 30030, "note": 63, "velocity": 111, "channel": 0}, {"type": "note_off", "time": 6565, "note": 63, "velocity": 111, "channel": 0}, {"type": "note_on", "time": 0, "note": 65, "velocity": 110, "channel": 0}, {"type": "note_off", "time": 5957, "note": 65, "velocity": 110, "channel": 0}, {"type": "note_on", "time": 121, "note": 68, "velocity": 94, "channel": 0}, {"type": "note_off", "time": 5349, "note": 68, "velocity": 94, "channel": 0}, {"type": "note_on", "time": 851, "note": 70, "velocity": 104, "channel": 0}, {"type": "note_off", "time": 1580, "note": 70, "velocity": 104, "channel": 0}, {"type": "note_on", "time": 243, "note": 68, "velocity": 103, "channel": 0}, {"type": "note_off", "time": 1580, "note": 68, "velocity": 103, "channel": 0}, {"type": "note_on", "time": 0, "note": 66, "velocity": 81, "channel": 0}, {"type": "note_off", "time": 3404, "note": 66, "velocity": 81, "channel": 0}, {"type": "note_on", "time": 729, "note": 68, "velocity": 105, "channel": 0}, {"type": "note_off", "time": 1945, "note": 68, "velocity": 105, "channel": 0}, {"type": "note_on", "time": 486, "note": 70, "velocity": 10, "channel": 0}, {"type": "note_off", "time": 1337, "note": 70, "velocity": 10, "channel": 0}, {"type": "note_on", "time": 0, "note": 68, "velocity": 10, "channel": 0}, {"type": "note_off", "time": 2553, "note": 68, "velocity": 10, "channel": 0}, {"type": "note_on", "time": 486, "note": 66, "velocity": 84, "channel": 0}, {"type": "note_on", "time": 1823, "note": 65, "velocity": 86, "channel": 0}, {"type": "note_off", "time": 0, "note": 66, "velocity": 84, "channel": 0}, {"type": "note_off", "time": 6930, "note": 65, "velocity": 86, "channel": 0}, {"type": "note_on", "time": 0, "note": 63, "velocity": 75, "channel": 0}, {"type": "note_off", "time": 30273, "note": 63, "velocity": 75, "channel": 0}, {"type": "note_on", "time": 43525, "note": 58, "velocity": 94, "channel": 0}, {"type": "note_on", "time": 5227, "note": 61, "velocity": 117, "channel": 0}, {"type": "note_off", "time": 0, "note": 58, "velocity": 94, "channel": 0}, {"type": "note_off", "time": 6200, "note": 61, "velocity": 117, "channel": 0}, {"type": "note_on", "time": 364, "note": 63, "velocity": 90, "channel": 0}, {"type": "note_off", "time": 4255, "note": 63, "velocity": 90, "channel": 0}, {"type": "note_on", "time": 0, "note": 65, "velocity": 114, "channel": 0}, {"type": "note_off", "time": 4984, "note": 65, "velocity": 114, "channel": 0}, {"type": "note_on", "time": 121, "note": 66, "velocity": 93, "channel": 0}, {"type": "note_off", "time": 3404, "note": 66, "velocity": 93, "channel": 0}, {"type": "note_on", "time": 1094, "note": 68, "velocity": 124, "channel": 0}, {"type": "note_off", "time": 5106, "note": 68, "velocity": 124, "channel": 0}, {"type": "note_on", "time": 0, "note": 66, "velocity": 97, "channel": 0}, {"type": "note_off", "time": 3647, "note": 66, "velocity": 97, "channel": 0}, {"type": "note_on", "time": 0, "note": 73, "velocity": 122, "channel": 0}, {"type": "note_off", "time": 4741, "note": 73, "velocity": 122, "channel": 0}, {"type": "note_on", "time": 121, "note": 69, "velocity": 111, "channel": 0}, {"type": "note_off", "time": 4498, "note": 69, "velocity": 111, "channel": 0}, {"type": "note_on", "time": 0, "note": 68, "velocity": 80, "channel": 0}, {"type": "note_off", "time": 851, "note": 68, "velocity": 80, "channel": 0}, {"type": "note_on", "time": 0, "note": 70, "velocity": 83, "channel": 0}, {"type": "note_off", "time": 1823, "note": 70, "velocity": 83, "channel": 0}, {"type": "note_on", "time": 121, "note": 68, "velocity": 87, "channel": 0}, {"type": "note_off", "time": 1094, "note": 68, "velocity": 87, "channel": 0}, {"type": "note_on", "time": 121, "note": 66, "velocity": 94, "channel": 0}, {"type": "note_off", "time": 3404, "note": 66, "velocity": 94, "channel": 0}, {"type": "note_on", "time": 0, "note": 61, "velocity": 100, "channel": 0}, {"type": "note_off", "time": 4741, "note": 61, "velocity": 100, "channel": 0}, {"type": "note_on", "time": 0, "note": 57, "velocity": 93, "channel": 0}, {"type": "note_off", "time": 3890, "note": 57, "velocity": 93, "channel": 0}, {"type": "note_on", "time": 0, "note": 59, "velocity": 95, "channel": 0}, {"type": "note_off", "time": 4984, "note": 59, "velocity": 95, "channel": 0}, {"type": "note_on", "time": 121, "note": 66, "velocity": 86, "channel": 0}, {"type": "note_off", "time": 4984, "note": 66, "velocity": 86, "channel": 0}, {"type": "note_on", "time": 121, "note": 65, "velocity": 89, "channel": 0}, {"type": "note_off", "time": 3404, "note": 65, "velocity": 89, "channel": 0}, {"type": "note_on", "time": 0, "note": 63, "velocity": 87, "channel": 0}, {"type": "note_off", "time": 4376, "note": 63, "velocity": 87, "channel": 0}, {"type": "note_on", "time": 0, "note": 54, "velocity": 81, "channel": 0}, {"type": "note_off", "time": 36473, "note": 54, "velocity": 81, "channel": 0}, {"type": "note_on", "time": 32826, "note": 57, "velocity": 89, "channel": 0}, {"type": "note_off", "time": 4133, "note": 57, "velocity": 89, "channel": 0}, {"type": "note_on", "time": 1215, "note": 60, "velocity": 112, "channel": 0}, {"type": "note_off", "time": 8510, "note": 60, "velocity": 112, "channel": 0}, {"type": "note_on", "time": 2431, "note": 61, "velocity": 103, "channel": 0}, {"type": "note_off", "time": 7781, "note": 61, "velocity": 103, "channel": 0}, {"type": "note_on", "time": 2431, "note": 60, "velocity": 85, "channel": 0}, {"type": "note_off", "time": 5592, "note": 60, "velocity": 85, "channel": 0}, {"type": "note_on", "time": 0, "note": 61, "velocity": 91, "channel": 0}, {"type": "note_off", "time": 4376, "note": 61, "velocity": 91, "channel": 0}, {"type": "note_on", "time": 0, "note": 60, "velocity": 71, "channel": 0}, {"type": "note_off", "time": 4620, "note": 60, "velocity": 71, "channel": 0}, {"type": "note_on", "time": 243, "note": 61, "velocity": 95, "channel": 0}, {"type": "note_off", "time": 3404, "note": 61, "velocity": 95, "channel": 0}, {"type": "note_on", "time": 0, "note": 60, "velocity": 81, "channel": 0}, {"type": "note_off", "time": 3404, "note": 60, "velocity": 81, "channel": 0}, {"type": "note_on", "time": 972, "note": 61, "velocity": 94, "channel": 0}, {"type": "note_off", "time": 4133, "note": 61, "velocity": 94, "channel": 0}, {"type": "note_on", "time": 0, "note": 64, "velocity": 97, "channel": 0}, {"type": "note_off", "time": 3647, "note": 64, "velocity": 97, "channel": 0}, {"type": "note_on", "time": 0, "note": 65, "velocity": 104, "channel": 0}, {"type": "note_off", "time": 3161, "note": 65, "velocity": 104, "channel": 0}, {"type": "note_on", "time": 930, "note": 68, "velocity": 117, "channel": 0}, {"type": "note_off", "time": 3248, "note": 68, "velocity": 117, "channel": 0}, {"type": "note_on", "time": 341, "note": 71, "velocity": 108, "channel": 0}, {"type": "note_off", "time": 2906, "note": 71, "velocity": 108, "channel": 0}, {"type": "note_on", "time": 0, "note": 72, "velocity": 98, "channel": 0}, {"type": "note_off", "time": 2906, "note": 72, "velocity": 98, "channel": 0}, {"type": "note_on", "time": 683, "note": 68, "velocity": 105, "channel": 0}, {"type": "note_off", "time": 3419, "note": 68, "velocity": 105, "channel": 0}, {"type": "note_on", "time": 512, "note": 63, "velocity": 93, "channel": 0}, {"type": "note_on", "time": 3590, "note": 60, "velocity": 87, "channel": 0}, {"type": "note_off", "time": 0, "note": 63, "velocity": 93, "channel": 0}, {"type": "note_off", "time": 4616, "note": 60, "velocity": 87, "channel": 0}, {"type": "note_on", "time": 0, "note": 68, "velocity": 96, "channel": 0}, {"type": "note_off", "time": 1880, "note": 68, "velocity": 96, "channel": 0}, {"type": "note_on", "time": 0, "note": 70, "velocity": 83, "channel": 0}, {"type": "note_on", "time": 3932, "note": 68, "velocity": 89, "channel": 0}, {"type": "note_off", "time": 0, "note": 70, "velocity": 83, "channel": 0}, {"type": "note_off", "time": 4274, "note": 68, "velocity": 89, "channel": 0}, {"type": "note_on", "time": 0, "note": 62, "velocity": 77, "channel": 0}, {"type": "note_off", "time": 7693, "note": 62, "velocity": 77, "channel": 0}, {"type": "note_on", "time": 20094, "note": 57, "velocity": 95, "channel": 0}, {"type": "note_off", "time": 4863, "note": 57, "velocity": 95, "channel": 0}, {"type": "note_on", "time": 0, "note": 58, "velocity": 94, "channel": 0}, {"type": "note_off", "time": 3039, "note": 58, "velocity": 94, "channel": 0}, {"type": "note_on", "time": 0, "note": 62, "velocity": 87, "channel": 0}, {"type": "note_off", "time": 1945, "note": 62, "velocity": 87, "channel": 0}, {"type": "note_on", "time": 0, "note": 65, "velocity": 92, "channel": 0}, {"type": "note_off", "time": 4376, "note": 65, "velocity": 92, "channel": 0}, {"type": "note_on", "time": 0, "note": 68, "velocity": 103, "channel": 0}, {"type": "note_off", "time": 2674, "note": 68, "velocity": 103, "channel": 0}, {"type": "note_on", "time": 0, "note": 70, "velocity": 95, "channel": 0}, {"type": "note_off", "time": 1702, "note": 70, "velocity": 95, "channel": 0}, {"type": "note_on", "time": 121, "note": 68, "velocity": 100, "channel": 0}, {"type": "note_off", "time": 972, "note": 68, "velocity": 100, "channel": 0}, {"type": "note_on", "time": 0, "note": 66, "velocity": 93, "channel": 0}, {"type": "note_off", "time": 3282, "note": 66, "velocity": 93, "channel": 0}, {"type": "note_on", "time": 1458, "note": 73, "velocity": 117, "channel": 0}, {"type": "note_off", "time": 4133, "note": 73, "velocity": 117, "channel": 0}, {"type": "note_on", "time": 0, "note": 70, "velocity": 107, "channel": 0}, {"type": "note_off", "time": 3404, "note": 70, "velocity": 107, "channel": 0}, {"type": "note_on", "time": 0, "note": 66, "velocity": 84, "channel": 0}, {"type": "note_off", "time": 4498, "note": 66, "velocity": 84, "channel": 0}, {"type": "note_on", "time": 364, "note": 65, "velocity": 95, "channel": 0}, {"type": "note_off", "time": 3647, "note": 65, "velocity": 95, "channel": 0}, {"type": "note_on", "time": 0, "note": 61, "velocity": 83, "channel": 0}, {"type": "note_off", "time": 3890, "note": 61, "velocity": 83, "channel": 0}, {"type": "note_on", "time": 0, "note": 58, "velocity": 88, "channel": 0}, {"type": "note_off", "time": 4376, "note": 58, "velocity": 88, "channel": 0}, {"type": "note_on", "time": 2917, "note": 65, "velocity": 100, "channel": 0}, {"type": "note_off", "time": 1337, "note": 65, "velocity": 100, "channel": 0}, {"type": "note_on", "time": 0, "note": 66, "velocity": 83, "channel": 0}, {"type": "note_off", "time": 1945, "note": 66, "velocity": 83, "channel": 0}, {"type": "note_on", "time": 0, "note": 68, "velocity": 98, "channel": 0}, {"type": "note_off", "time": 3890, "note": 68, "velocity": 98, "channel": 0}, {"type": "note_on", "time": 0, "note": 64, "velocity": 85, "channel": 0}, {"type": "note_off", "time": 4376, "note": 64, "velocity": 85, "channel": 0}, {"type": "note_on", "time": 0, "note": 61, "velocity": 77, "channel": 0}, {"type": "note_off", "time": 3282, "note": 61, "velocity": 77, "channel": 0}, {"type": "note_on", "time": 243, "note": 63, "velocity": 74, "channel": 0}, {"type": "note_off", "time": 12279, "note": 63, "velocity": 74, "channel": 0}, {"type": "note_on", "time": 11914, "note": 55, "velocity": 107, "channel": 0}, {"type": "note_off", "time": 5592, "note": 55, "velocity": 107, "channel": 0}, {"type": "note_on", "time": 0, "note": 59, "velocity": 91, "channel": 0}, {"type": "note_off", "time": 3768, "note": 59, "velocity": 91, "channel": 0}, {"type": "note_on", "time": 0, "note": 63, "velocity": 102, "channel": 0}, {"type": "note_off", "time": 4012, "note": 63, "velocity": 102, "channel": 0}, {"type": "note_on", "time": 0, "note": 69, "velocity": 116, "channel": 0}, {"type": "note_off", "time": 4620, "note": 69, "velocity": 116, "channel": 0}, {"type": "note_on", "time": 243, "note": 63, "velocity": 98, "channel": 0}, {"type": "note_off", "time": 3525, "note": 63, "velocity": 98, "channel": 0}, {"type": "note_on", "time": 0, "note": 59, "velocity": 90, "channel": 0}, {"type": "note_off", "time": 3404, "note": 59, "velocity": 90, "channel": 0}, {"type": "note_on", "time": 121, "note": 57, "velocity": 99, "channel": 0}, {"type": "note_off", "time": 4863, "note": 57, "velocity": 99, "channel": 0}, {"type": "note_on", "time": 851, "note": 56, "velocity": 102, "channel": 0}, {"type": "note_off", "time": 3404, "note": 56, "velocity": 102, "channel": 0}, {"type": "note_on", "time": 729, "note": 66, "velocity": 101, "channel": 0}, {"type": "note_off", "time": 2066, "note": 66, "velocity": 101, "channel": 0}, {"type": "note_on", "time": 121, "note": 68, "velocity": 90, "channel": 0}, {"type": "note_off", "time": 4133, "note": 68, "velocity": 90, "channel": 0}, {"type": "note_on", "time": 0, "note": 65, "velocity": 85, "channel": 0}, {"type": "note_off", "time": 4741, "note": 65, "velocity": 85, "channel": 0}, {"type": "note_on", "time": 0, "note": 60, "velocity": 80, "channel": 0}, {"type": "note_off", "time": 11306, "note": 60, "velocity": 80, "channel": 0}, {"type": "note_on", "time": 27355, "note": 54, "velocity": 107, "channel": 0}, {"type": "note_off", "time": 2066, "note": 54, "velocity": 107, "channel": 0}, {"type": "note_on", "time": 0, "note": 55, "velocity": 114, "channel": 0}, {"type": "note_off", "time": 4741, "note": 55, "velocity": 114, "channel": 0}, {"type": "note_on", "time": 0, "note": 56, "velocity": 113, "channel": 0}, {"type": "note_off", "time": 4255, "note": 56, "velocity": 113, "channel": 0}, {"type": "note_on", "time": 243, "note": 60, "velocity": 90, "channel": 0}, {"type": "note_off", "time": 3890, "note": 60, "velocity": 90, "channel": 0}, {"type": "note_on", "time": 224, "note": 61, "velocity": 101, "channel": 0}, {"type": "note_off", "time": 4530, "note": 61, "velocity": 101, "channel": 0}, {"type": "note_on", "time": 229, "note": 64, "velocity": 101, "channel": 0}, {"type": "note_off", "time": 4255, "note": 64, "velocity": 101, "channel": 0}, {"type": "note_on", "time": 121, "note": 65, "velocity": 111, "channel": 0}, {"type": "note_off", "time": 3890, "note": 65, "velocity": 111, "channel": 0}, {"type": "note_on", "time": 51, "note": 67, "velocity": 90, "channel": 0}, {"type": "note_off", "time": 3675, "note": 67, "velocity": 90, "channel": 0}, {"type": "note_on", "time": 0, "note": 68, "velocity": 117, "channel": 0}, {"type": "note_off", "time": 3590, "note": 68, "velocity": 117, "channel": 0}, {"type": "note_on", "time": 769, "note": 70, "velocity": 114, "channel": 0}, {"type": "note_off", "time": 4188, "note": 70, "velocity": 114, "channel": 0}, {"type": "note_on", "time": 427, "note": 66, "velocity": 107, "channel": 0}, {"type": "note_off", "time": 3590, "note": 66, "velocity": 107, "channel": 0}, {"type": "note_on", "time": 170, "note": 61, "velocity": 88, "channel": 0}, {"type": "note_off", "time": 3761, "note": 61, "velocity": 88, "channel": 0}, {"type": "note_on", "time": 256, "note": 58, "velocity": 95, "channel": 0}, {"type": "note_off", "time": 4359, "note": 58, "velocity": 95, "channel": 0}, {"type": "note_on", "time": 256, "note": 67, "velocity": 107, "channel": 0}, {"type": "note_off", "time": 2051, "note": 67, "velocity": 107, "channel": 0}, {"type": "note_on", "time": 170, "note": 68, "velocity": 94, "channel": 0}, {"type": "note_off", "time": 3333, "note": 68, "velocity": 94, "channel": 0}, {"type": "note_on", "time": 683, "note": 65, "velocity": 94, "channel": 0}, {"type": "note_off", "time": 4103, "note": 65, "velocity": 94, "channel": 0}, {"type": "note_on", "time": 0, "note": 61, "velocity": 82, "channel": 0}, {"type": "note_off", "time": 3248, "note": 61, "velocity": 82, "channel": 0}, {"type": "note_on", "time": 0, "note": 58, "velocity": 93, "channel": 0}, {"type": "note_on", "time": 4445, "note": 65, "velocity": 103, "channel": 0}, {"type": "note_off", "time": 0, "note": 58, "velocity": 93, "channel": 0}, {"type": "note_off", "time": 2222, "note": 65, "velocity": 103, "channel": 0}, {"type": "note_on", "time": 170, "note": 66, "velocity": 94, "channel": 0}, {"type": "note_off", "time": 2222, "note": 66, "velocity": 94, "channel": 0}, {"type": "note_on", "time": 256, "note": 65, "velocity": 86, "channel": 0}, {"type": "note_off", "time": 4103, "note": 65, "velocity": 86, "channel": 0}, {"type": "note_on", "time": 0, "note": 61, "velocity": 82, "channel": 0}, {"type": "note_off", "time": 4616, "note": 61, "velocity": 82, "channel": 0}, {"type": "note_on", "time": 0, "note": 58, "velocity": 101, "channel": 0}, {"type": "note_off", "time": 4274, "note": 58, "velocity": 101, "channel": 0}, {"type": "note_on", "time": 256, "note": 57, "velocity": 104, "channel": 0}, {"type": "note_off", "time": 2821, "note": 57, "velocity": 104, "channel": 0}, {"type": "note_on", "time": 0, "note": 58, "velocity": 102, "channel": 0}, {"type": "note_off", "time": 1795, "note": 58, "velocity": 102, "channel": 0}, {"type": "note_on", "time": 0, "note": 59, "velocity": 103, "channel": 0}, {"type": "note_off", "time": 1624, "note": 59, "velocity": 103, "channel": 0}, {"type": "note_on", "time": 427, "note": 60, "velocity": 86, "channel": 0}, {"type": "note_off", "time": 2735, "note": 60, "velocity": 86, "channel": 0}, {"type": "note_on", "time": 256, "note": 57, "velocity": 91, "channel": 0}, {"type": "note_off", "time": 4274, "note": 57, "velocity": 91, "channel": 0}, {"type": "note_on", "time": 85, "note": 58, "velocity": 99, "channel": 0}, {"type": "note_off", "time": 4188, "note": 58, "velocity": 99, "channel": 0}, {"type": "note_on", "time": 0, "note": 53, "velocity": 105, "channel": 0}, {"type": "note_off", "time": 4787, "note": 53, "velocity": 105, "channel": 0}, {"type": "note_on", "time": 427, "note": 54, "velocity": 104, "channel": 0}, {"type": "note_off", "time": 683, "note": 54, "velocity": 104, "channel": 0}, {"type": "note_on", "time": 256, "note": 55, "velocity": 94, "channel": 0}, {"type": "note_off", "time": 598, "note": 55, "velocity": 94, "channel": 0}, {"type": "note_on", "time": 85, "note": 56, "velocity": 98, "channel": 0}, {"type": "note_off", "time": 3932, "note": 56, "velocity": 98, "channel": 0}, {"type": "note_on", "time": 0, "note": 53, "velocity": 93, "channel": 0}, {"type": "note_off", "time": 5043, "note": 53, "velocity": 93, "channel": 0}, {"type": "note_on", "time": 0, "note": 54, "velocity": 99, "channel": 0}, {"type": "note_off", "time": 4530, "note": 54, "velocity": 99, "channel": 0}, {"type": "note_on", "time": 85, "note": 55, "velocity": 93, "channel": 0}, {"type": "note_off", "time": 5300, "note": 55, "velocity": 93, "channel": 0}, {"type": "note_on", "time": 0, "note": 58, "velocity": 86, "channel": 0}, {"type": "note_off", "time": 3333, "note": 58, "velocity": 86, "channel": 0}, {"type": "note_on", "time": 0, "note": 61, "velocity": 88, "channel": 0}, {"type": "note_off", "time": 6411, "note": 61, "velocity": 88, "channel": 0}, {"type": "note_on", "time": 170, "note": 64, "velocity": 94, "channel": 0}, {"type": "note_off", "time": 1966, "note": 64, "velocity": 94, "channel": 0}, {"type": "note_on", "time": 427, "note": 65, "velocity": 91, "channel": 0}, {"type": "note_off", "time": 4017, "note": 65, "velocity": 91, "channel": 0}, {"type": "note_on", "time": 0, "note": 58, "velocity": 92, "channel": 0}, {"type": "note_off", "time": 5385, "note": 58, "velocity": 92, "channel": 0}, {"type": "note_on", "time": 0, "note": 61, "velocity": 82, "channel": 0}, {"type": "note_off", "time": 4274, "note": 61, "velocity": 82, "channel": 0}, {"type": "note_on", "time": 3333, "note": 65, "velocity": 87, "channel": 0}, {"type": "note_off", "time": 2821, "note": 65, "velocity": 87, "channel": 0}, {"type": "note_on", "time": 1880, "note": 58, "velocity": 83, "channel": 0}, {"type": "note_off", "time": 11797, "note": 58, "velocity": 83, "channel": 0}, {"type": "note_on", "time": 28210, "note": 58, "velocity": 114, "channel": 0}, {"type": "note_off", "time": 5043, "note": 58, "velocity": 114, "channel": 0}, {"type": "note_on", "time": 427, "note": 61, "velocity": 114, "channel": 0}, {"type": "note_off", "time": 4530, "note": 61, "velocity": 114, "channel": 0}, {"type": "note_on", "time": 0, "note": 65, "velocity": 105, "channel": 0}, {"type": "note_off", "time": 3333, "note": 65, "velocity": 105, "channel": 0}, {"type": "note_on", "time": 170, "note": 69, "velocity": 127, "channel": 0}, {"type": "note_off", "time": 4787, "note": 69, "velocity": 127, "channel": 0}, {"type": "note_on", "time": 683, "note": 72, "velocity": 125, "channel": 0}, {"type": "note_off", "time": 4188, "note": 72, "velocity": 125, "channel": 0}, {"type": "note_on", "time": 0, "note": 70, "velocity": 119, "channel": 0}, {"type": "note_off", "time": 4103, "note": 70, "velocity": 119, "channel": 0}, {"type": "note_on", "time": 0, "note": 77, "velocity": 119, "channel": 0}, {"type": "note_off", "time": 5043, "note": 77, "velocity": 119, "channel": 0}, {"type": "note_on", "time": 85, "note": 73, "velocity": 119, "channel": 0}, {"type": "note_off", "time": 4530, "note": 73, "velocity": 119, "channel": 0}, {"type": "note_on", "time": 85, "note": 69, "velocity": 121, "channel": 0}, {"type": "note_off", "time": 4359, "note": 69, "velocity": 121, "channel": 0}, {"type": "note_on", "time": 1025, "note": 70, "velocity": 105, "channel": 0}, {"type": "note_off", "time": 940, "note": 70, "velocity": 105, "channel": 0}, {"type": "note_on", "time": 427, "note": 71, "velocity": 103, "channel": 0}, {"type": "note_off", "time": 1880, "note": 71, "velocity": 103, "channel": 0}, {"type": "note_on", "time": 256, "note": 72, "velocity": 99, "channel": 0}, {"type": "note_off", "time": 3504, "note": 72, "velocity": 99, "channel": 0}, {"type": "note_on", "time": 341, "note": 70, "velocity": 100, "channel": 0}, {"type": "note_on", "time": 3504, "note": 65, "velocity": 99, "channel": 0}, {"type": "note_off", "time": 0, "note": 70, "velocity": 100, "channel": 0}, {"type": "note_off", "time": 2906, "note": 65, "velocity": 99, "channel": 0}, {"type": "note_on", "time": 0, "note": 61, "velocity": 89, "channel": 0}, {"type": "note_off", "time": 2735, "note": 61, "velocity": 89, "channel": 0}, {"type": "note_on", "time": 0, "note": 58, "velocity": 99, "channel": 0}, {"type": "note_off", "time": 2906, "note": 58, "velocity": 99, "channel": 0}, {"type": "note_on", "time": 341, "note": 56, "velocity": 95, "channel": 0}, {"type": "note_off", "time": 3419, "note": 56, "velocity": 95, "channel": 0}, {"type": "note_on", "time": 512, "note": 55, "velocity": 102, "channel": 0}, {"type": "note_off", "time": 2479, "note": 55, "velocity": 102, "channel": 0}, {"type": "note_on", "time": 256, "note": 54, "velocity": 103, "channel": 0}, {"type": "note_off", "time": 6325, "note": 54, "velocity": 103, "channel": 0}, {"type": "note_on", "time": 0, "note": 61, "velocity": 88, "channel": 0}, {"type": "note_off", "time": 1880, "note": 61, "velocity": 88, "channel": 0}, {"type": "note_on", "time": 0, "note": 63, "velocity": 83, "channel": 0}, {"type": "note_off", "time": 4530, "note": 63, "velocity": 83, "channel": 0}, {"type": "note_on", "time": 170, "note": 58, "velocity": 86, "channel": 0}, {"type": "note_off", "time": 7437, "note": 58, "velocity": 86, "channel": 0}, {"type": "note_on", "time": 683, "note": 64, "velocity": 94, "channel": 0}, {"type": "note_off", "time": 1196, "note": 64, "velocity": 94, "channel": 0}, {"type": "note_on", "time": 427, "note": 65, "velocity": 91, "channel": 0}, {"type": "note_off", "time": 2393, "note": 65, "velocity": 91, "channel": 0}, {"type": "note_on", "time": 85, "note": 66, "velocity": 89, "channel": 0}, {"type": "note_off", "time": 1453, "note": 66, "velocity": 89, "channel": 0}, {"type": "note_on", "time": 85, "note": 67, "velocity": 90, "channel": 0}, {"type": "note_off", "time": 769, "note": 67, "velocity": 90, "channel": 0}, {"type": "note_on", "time": 85, "note": 68, "velocity": 89, "channel": 0}, {"type": "note_off", "time": 4274, "note": 68, "velocity": 89, "channel": 0}, {"type": "note_on", "time": 256, "note": 63, "velocity": 77, "channel": 0}, {"type": "note_off", "time": 11882, "note": 63, "velocity": 77, "channel": 0}, {"type": "note_on", "time": 37442, "note": 65, "velocity": 110, "channel": 0}, {"type": "note_off", "time": 4616, "note": 65, "velocity": 110, "channel": 0}, {"type": "note_on", "time": 341, "note": 63, "velocity": 89, "channel": 0}, {"type": "note_off", "time": 4359, "note": 63, "velocity": 89, "channel": 0}, {"type": "note_on", "time": 0, "note": 60, "velocity": 87, "channel": 0}, {"type": "note_off", "time": 4445, "note": 60, "velocity": 87, "channel": 0}, {"type": "note_on", "time": 1111, "note": 61, "velocity": 95, "channel": 0}, {"type": "note_off", "time": 1453, "note": 61, "velocity": 95, "channel": 0}, {"type": "note_on", "time": 256, "note": 62, "velocity": 95, "channel": 0}, {"type": "note_off", "time": 3504, "note": 62, "velocity": 95, "channel": 0}, {"type": "note_on", "time": 769, "note": 70, "velocity": 89, "channel": 0}, {"type": "note_off", "time": 4103, "note": 70, "velocity": 89, "channel": 0}, {"type": "note_on", "time": 0, "note": 68, "velocity": 99, "channel": 0}, {"type": "note_off", "time": 1025, "note": 68, "velocity": 99, "channel": 0}, {"type": "note_on", "time": 170, "note": 70, "velocity": 89, "channel": 0}, {"type": "note_off", "time": 1453, "note": 70, "velocity": 89, "channel": 0}, {"type": "note_on", "time": 170, "note": 68, "velocity": 96, "channel": 0}, {"type": "note_off", "time": 1367, "note": 68, "velocity": 96, "channel": 0}, {"type": "note_on", "time": 170, "note": 65, "velocity": 89, "channel": 0}, {"type": "note_off", "time": 3419, "note": 65, "velocity": 89, "channel": 0}, {"type": "note_on", "time": 85, "note": 67, "velocity": 96, "channel": 0}, {"type": "note_off", "time": 5471, "note": 67, "velocity": 96, "channel": 0}, {"type": "note_on", "time": 2564, "note": 73, "velocity": 112, "channel": 0}, {"type": "note_off", "time": 4787, "note": 73, "velocity": 112, "channel": 0}, {"type": "note_on", "time": 543, "note": 77, "velocity": 105, "channel": 0}, {"type": "note_off", "time": 4103, "note": 77, "velocity": 105, "channel": 0}, {"type": "note_on", "time": 140, "note": 75, "velocity": 111, "channel": 0}, {"type": "note_off", "time": 4017, "note": 75, "velocity": 111, "channel": 0}, {"type": "note_on", "time": 0, "note": 72, "velocity": 106, "channel": 0}, {"type": "note_off", "time": 4616, "note": 72, "velocity": 106, "channel": 0}, {"type": "note_on", "time": 512, "note": 69, "velocity": 59, "channel": 0}, {"type": "note_off", "time": 3504, "note": 69, "velocity": 59, "channel": 0}, {"type": "note_on", "time": 0, "note": 66, "velocity": 100, "channel": 0}, {"type": "note_off", "time": 3932, "note": 66, "velocity": 100, "channel": 0}, {"type": "note_on", "time": 427, "note": 65, "velocity": 102, "channel": 0}, {"type": "note_on", "time": 5813, "note": 72, "velocity": 104, "channel": 0}, {"type": "note_off", "time": 0, "note": 65, "velocity": 102, "channel": 0}, {"type": "note_off", "time": 1367, "note": 72, "velocity": 104, "channel": 0}, {"type": "note_on", "time": 427, "note": 73, "velocity": 100, "channel": 0}, {"type": "note_off", "time": 2479, "note": 73, "velocity": 100, "channel": 0}, {"type": "note_on", "time": 256, "note": 68, "velocity": 95, "channel": 0}, {"type": "note_off", "time": 4103, "note": 68, "velocity": 95, "channel": 0}, {"type": "note_on", "time": 0, "note": 65, "velocity": 92, "channel": 0}, {"type": "note_off", "time": 4530, "note": 65, "velocity": 92, "channel": 0}, {"type": "note_on", "time": 0, "note": 61, "velocity": 87, "channel": 0}, {"type": "note_off", "time": 4445, "note": 61, "velocity": 87, "channel": 0}, {"type": "note_on", "time": 341, "note": 58, "velocity": 93, "channel": 0}, {"type": "note_off", "time": 4103, "note": 58, "velocity": 93, "channel": 0}, {"type": "note_on", "time": 427, "note": 57, "velocity": 89, "channel": 0}, {"type": "note_off", "time": 4274, "note": 57, "velocity": 89, "channel": 0}, {"type": "note_on", "time": 512, "note": 56, "velocity": 83, "channel": 0}, {"type": "note_off", "time": 11369, "note": 56, "velocity": 83, "channel": 0}, {"type": "note_on", "time": 35733, "note": 54, "velocity": 81, "channel": 0}, {"type": "note_off", "time": 683, "note": 54, "velocity": 81, "channel": 0}, {"type": "note_on", "time": 170, "note": 55, "velocity": 114, "channel": 0}, {"type": "note_off", "time": 4616, "note": 55, "velocity": 114, "channel": 0}, {"type": "note_on", "time": 512, "note": 56, "velocity": 113, "channel": 0}, {"type": "note_off", "time": 4103, "note": 56, "velocity": 113, "channel": 0}, {"type": "note_on", "time": 0, "note": 58, "velocity": 105, "channel": 0}, {"type": "note_off", "time": 3932, "note": 58, "velocity": 105, "channel": 0}, {"type": "note_on", "time": 427, "note": 59, "velocity": 109, "channel": 0}, {"type": "note_off", "time": 4787, "note": 59, "velocity": 109, "channel": 0}, {"type": "note_on", "time": 256, "note": 63, "velocity": 107, "channel": 0}, {"type": "note_on", "time": 3322, "note": 66, "velocity": 113, "channel": 0}, {"type": "note_off", "time": 0, "note": 63, "velocity": 107, "channel": 0}, {"type": "note_off", "time": 3586, "note": 66, "velocity": 113, "channel": 0}, {"type": "note_on", "time": 486, "note": 65, "velocity": 107, "channel": 0}, {"type": "note_off", "time": 1094, "note": 65, "velocity": 107, "channel": 0}, {"type": "note_on", "time": 182, "note": 67, "velocity": 106, "channel": 0}, {"type": "note_off", "time": 1337, "note": 67, "velocity": 106, "channel": 0}, {"type": "note_on", "time": 486, "note": 69, "velocity": 100, "channel": 0}, {"type": "note_off", "time": 2857, "note": 69, "velocity": 100, "channel": 0}, {"type": "note_on", "time": 1276, "note": 72, "velocity": 82, "channel": 0}, {"type": "note_off", "time": 1215, "note": 72, "velocity": 82, "channel": 0}, {"type": "note_on", "time": 243, "note": 70, "velocity": 88, "channel": 0}, {"type": "note_off", "time": 1398, "note": 70, "velocity": 88, "channel": 0}, {"type": "note_on", "time": 303, "note": 68, "velocity": 102, "channel": 0}, {"type": "note_off", "time": 3647, "note": 68, "velocity": 102, "channel": 0}, {"type": "note_on", "time": 0, "note": 66, "velocity": 106, "channel": 0}, {"type": "note_off", "time": 5592, "note": 66, "velocity": 106, "channel": 0}, {"type": "note_on", "time": 0, "note": 63, "velocity": 89, "channel": 0}, {"type": "note_off", "time": 2674, "note": 63, "velocity": 89, "channel": 0}, {"type": "note_on", "time": 0, "note": 65, "velocity": 105, "channel": 0}, {"type": "note_off", "time": 6261, "note": 65, "velocity": 105, "channel": 0}, {"type": "note_on", "time": 0, "note": 68, "velocity": 102, "channel": 0}, {"type": "note_off", "time": 4133, "note": 68, "velocity": 102, "channel": 0}, {"type": "note_on", "time": 0, "note": 61, "velocity": 88, "channel": 0}, {"type": "note_off", "time": 4680, "note": 61, "velocity": 88, "channel": 0}, {"type": "note_on", "time": 486, "note": 59, "velocity": 91, "channel": 0}, {"type": "note_off", "time": 3951, "note": 59, "velocity": 91, "channel": 0}, {"type": "note_on", "time": 1641, "note": 58, "velocity": 86, "channel": 0}, {"type": "note_off", "time": 13677, "note": 58, "velocity": 86, "channel": 0}, {"type": "note_on", "time": 13980, "note": 57, "velocity": 98, "channel": 0}, {"type": "note_off", "time": 3376, "note": 57, "velocity": 98, "channel": 0}, {"type": "note_on", "time": 384, "note": 58, "velocity": 102, "channel": 0}, {"type": "note_off", "time": 3034, "note": 58, "velocity": 102, "channel": 0}, {"type": "note_on", "time": 299, "note": 61, "velocity": 96, "channel": 0}, {"type": "note_off", "time": 2137, "note": 61, "velocity": 96, "channel": 0}, {"type": "note_on", "time": 384, "note": 65, "velocity": 112, "channel": 0}, {"type": "note_off", "time": 4359, "note": 65, "velocity": 112, "channel": 0}, {"type": "note_on", "time": 128, "note": 64, "velocity": 89, "channel": 0}, {"type": "note_off", "time": 1453, "note": 64, "velocity": 89, "channel": 0}, {"type": "note_on", "time": 0, "note": 66, "velocity": 112, "channel": 0}, {"type": "note_off", "time": 3675, "note": 66, "velocity": 112, "channel": 0}, {"type": "note_on", "time": 384, "note": 70, "velocity": 113, "channel": 0}, {"type": "note_off", "time": 3419, "note": 70, "velocity": 113, "channel": 0}, {"type": "note_on", "time": 42, "note": 73, "velocity": 119, "channel": 0}, {"type": "note_off", "time": 3120, "note": 73, "velocity": 119, "channel": 0}, {"type": "note_on", "time": 1795, "note": 77, "velocity": 109, "channel": 0}, {"type": "note_off", "time": 3633, "note": 77, "velocity": 109, "channel": 0}, {"type": "note_on", "time": 170, "note": 73, "velocity": 110, "channel": 0}, {"type": "note_off", "time": 2308, "note": 73, "velocity": 110, "channel": 0}, {"type": "note_on", "time": 128, "note": 70, "velocity": 90, "channel": 0}, {"type": "note_off", "time": 1795, "note": 70, "velocity": 90, "channel": 0}, {"type": "note_on", "time": 256, "note": 66, "velocity": 89, "channel": 0}, {"type": "note_off", "time": 1923, "note": 66, "velocity": 89, "channel": 0}, {"type": "note_on", "time": 0, "note": 61, "velocity": 92, "channel": 0}, {"type": "note_off", "time": 2265, "note": 61, "velocity": 92, "channel": 0}, {"type": "note_on", "time": 854, "note": 60, "velocity": 85, "channel": 0}, {"type": "note_off", "time": 1325, "note": 60, "velocity": 85, "channel": 0}, {"type": "note_on", "time": 683, "note": 58, "velocity": 99, "channel": 0}, {"type": "note_off", "time": 2051, "note": 58, "velocity": 99, "channel": 0}, {"type": "note_on", "time": 769, "note": 57, "velocity": 90, "channel": 0}, {"type": "note_off", "time": 1025, "note": 57, "velocity": 90, "channel": 0}, {"type": "note_on", "time": 299, "note": 56, "velocity": 100, "channel": 0}, {"type": "note_off", "time": 2992, "note": 56, "velocity": 100, "channel": 0}, {"type": "note_on", "time": 512, "note": 55, "velocity": 96, "channel": 0}, {"type": "note_off", "time": 3462, "note": 55, "velocity": 96, "channel": 0}, {"type": "note_on", "time": 213, "note": 54, "velocity": 99, "channel": 0}, {"type": "note_off", "time": 3419, "note": 54, "velocity": 99, "channel": 0}, {"type": "note_on", "time": 213, "note": 58, "velocity": 95, "channel": 0}, {"type": "note_off", "time": 3077, "note": 58, "velocity": 95, "channel": 0}, {"type": "note_on", "time": 42, "note": 53, "velocity": 97, "channel": 0}, {"type": "note_off", "time": 4188, "note": 53, "velocity": 97, "channel": 0}, {"type": "note_on", "time": 128, "note": 51, "velocity": 93, "channel": 0}, {"type": "note_off", "time": 3633, "note": 51, "velocity": 93, "channel": 0}, {"type": "note_on", "time": 470, "note": 50, "velocity": 104, "channel": 0}, {"type": "note_off", "time": 3889, "note": 50, "velocity": 104, "channel": 0}, {"type": "note_on", "time": 384, "note": 49, "velocity": 98, "channel": 0}, {"type": "note_off", "time": 12694, "note": 49, "velocity": 98, "channel": 0}, {"type": "note_on", "time": 16776, "note": 61, "velocity": 110, "channel": 0}, {"type": "note_off", "time": 5227, "note": 61, "velocity": 110, "channel": 0}, {"type": "note_on", "time": 0, "note": 63, "velocity": 113, "channel": 0}, {"type": "note_off", "time": 5349, "note": 63, "velocity": 113, "channel": 0}, {"type": "note_on", "time": 0, "note": 65, "velocity": 111, "channel": 0}, {"type": "note_off", "time": 4703, "note": 65, "velocity": 111, "channel": 0}, {"type": "note_on", "time": 0, "note": 66, "velocity": 92, "channel": 0}, {"type": "note_off", "time": 1154, "note": 66, "velocity": 92, "channel": 0}, {"type": "note_on", "time": 85, "note": 68, "velocity": 121, "channel": 0}, {"type": "note_off", "time": 2137, "note": 68, "velocity": 121, "channel": 0}, {"type": "note_on", "time": 726, "note": 70, "velocity": 10, "channel": 0}, {"type": "note_off", "time": 1111, "note": 70, "velocity": 10, "channel": 0}, {"type": "note_on", "time": 341, "note": 68, "velocity": 112, "channel": 0}, {"type": "note_off", "time": 1282, "note": 68, "velocity": 112, "channel": 0}, {"type": "note_on", "time": 433, "note": 66, "velocity": 97, "channel": 0}, {"type": "note_off", "time": 3920, "note": 66, "velocity": 97, "channel": 0}, {"type": "note_on", "time": 2370, "note": 68, "velocity": 107, "channel": 0}, {"type": "note_off", "time": 1823, "note": 68, "velocity": 107, "channel": 0}, {"type": "note_on", "time": 0, "note": 70, "velocity": 92, "channel": 0}, {"type": "note_off", "time": 1550, "note": 70, "velocity": 92, "channel": 0}, {"type": "note_on", "time": 0, "note": 68, "velocity": 96, "channel": 0}, {"type": "note_off", "time": 1367, "note": 68, "velocity": 96, "channel": 0}, {"type": "note_on", "time": 0, "note": 66, "velocity": 86, "channel": 0}, {"type": "note_off", "time": 3920, "note": 66, "velocity": 86, "channel": 0}, {"type": "note_on", "time": 0, "note": 73, "velocity": 118, "channel": 0}, {"type": "note_off", "time": 4832, "note": 73, "velocity": 118, "channel": 0}, {"type": "note_on", "time": 455, "note": 68, "velocity": 100, "channel": 0}, {"type": "note_off", "time": 3920, "note": 68, "velocity": 100, "channel": 0}, {"type": "note_on", "time": 91, "note": 61, "velocity": 69, "channel": 0}, {"type": "note_off", "time": 10850, "note": 61, "velocity": 69, "channel": 0}, {"type": "note_on", "time": 14127, "note": 61, "velocity": 88, "channel": 0}, {"type": "note_off", "time": 4359, "note": 61, "velocity": 88, "channel": 0}, {"type": "note_on", "time": 1025, "note": 68, "velocity": 109, "channel": 0}, {"type": "note_off", "time": 1453, "note": 68, "velocity": 109, "channel": 0}, {"type": "note_on", "time": 0, "note": 70, "velocity": 101, "channel": 0}, {"type": "note_off", "time": 1453, "note": 70, "velocity": 101, "channel": 0}, {"type": "note_on", "time": 170, "note": 68, "velocity": 108, "channel": 0}, {"type": "note_off", "time": 1282, "note": 68, "velocity": 108, "channel": 0}, {"type": "note_on", "time": 598, "note": 66, "velocity": 102, "channel": 0}, {"type": "note_off", "time": 2992, "note": 66, "velocity": 102, "channel": 0}, {"type": "note_on", "time": 1880, "note": 68, "velocity": 119, "channel": 0}, {"type": "note_off", "time": 1196, "note": 68, "velocity": 119, "channel": 0}, {"type": "note_on", "time": 683, "note": 70, "velocity": 102, "channel": 0}, {"type": "note_off", "time": 1453, "note": 70, "velocity": 102, "channel": 0}, {"type": "note_on", "time": 0, "note": 68, "velocity": 100, "channel": 0}, {"type": "note_off", "time": 1795, "note": 68, "velocity": 100, "channel": 0}, {"type": "note_on", "time": 85, "note": 66, "velocity": 85, "channel": 0}, {"type": "note_off", "time": 3419, "note": 66, "velocity": 85, "channel": 0}, {"type": "note_on", "time": 769, "note": 72, "velocity": 90, "channel": 0}, {"type": "note_off", "time": 1453, "note": 72, "velocity": 90, "channel": 0}, {"type": "note_on", "time": 341, "note": 73, "velocity": 112, "channel": 0}, {"type": "note_off", "time": 3504, "note": 73, "velocity": 112, "channel": 0}, {"type": "note_on", "time": 85, "note": 68, "velocity": 103, "channel": 0}, {"type": "note_off", "time": 3077, "note": 68, "velocity": 103, "channel": 0}, {"type": "note_on", "time": 341, "note": 61, "velocity": 69, "channel": 0}, {"type": "note_off", "time": 10087, "note": 61, "velocity": 69, "channel": 0}, {"type": "note_on", "time": 13848, "note": 61, "velocity": 78, "channel": 0}, {"type": "note_off", "time": 4359, "note": 61, "velocity": 78, "channel": 0}, {"type": "note_on", "time": 85, "note": 68, "velocity": 90, "channel": 0}, {"type": "note_off", "time": 1196, "note": 68, "velocity": 90, "channel": 0}, {"type": "note_on", "time": 341, "note": 70, "velocity": 104, "channel": 0}, {"type": "note_off", "time": 1624, "note": 70, "velocity": 104, "channel": 0}, {"type": "note_on", "time": 0, "note": 68, "velocity": 112, "channel": 0}, {"type": "note_off", "time": 1538, "note": 68, "velocity": 112, "channel": 0}, {"type": "note_on", "time": 512, "note": 66, "velocity": 95, "channel": 0}, {"type": "note_off", "time": 3675, "note": 66, "velocity": 95, "channel": 0}, {"type": "note_on", "time": 0, "note": 72, "velocity": 75, "channel": 0}, {"type": "note_off", "time": 1624, "note": 72, "velocity": 75, "channel": 0}, {"type": "note_on", "time": 598, "note": 73, "velocity": 111, "channel": 0}, {"type": "note_off", "time": 2821, "note": 73, "velocity": 111, "channel": 0}, {"type": "note_on", "time": 0, "note": 68, "velocity": 105, "channel": 0}, {"type": "note_off", "time": 2906, "note": 68, "velocity": 105, "channel": 0}, {"type": "note_on", "time": 170, "note": 61, "velocity": 82, "channel": 0}, {"type": "note_off", "time": 2821, "note": 61, "velocity": 82, "channel": 0}, {"type": "note_on", "time": 0, "note": 67, "velocity": 95, "channel": 0}, {"type": "note_off", "time": 1624, "note": 67, "velocity": 95, "channel": 0}, {"type": "note_on", "time": 0, "note": 68, "velocity": 106, "channel": 0}, {"type": "note_off", "time": 2564, "note": 68, "velocity": 106, "channel": 0}, {"type": "note_on", "time": 0, "note": 66, "velocity": 97, "channel": 0}, {"type": "note_off", "time": 3419, "note": 66, "velocity": 97, "channel": 0}, {"type": "note_on", "time": 0, "note": 61, "velocity": 88, "channel": 0}, {"type": "note_off", "time": 3162, "note": 61, "velocity": 88, "channel": 0}, {"type": "note_on", "time": 341, "note": 56, "velocity": 82, "channel": 0}, {"type": "note_off", "time": 13250, "note": 56, "velocity": 82, "channel": 0}, {"type": "note_on", "time": 23722, "note": 54, "velocity": 65, "channel": 0}, {"type": "note_off", "time": 683, "note": 54, "velocity": 65, "channel": 0}, {"type": "note_on", "time": 213, "note": 55, "velocity": 109, "channel": 0}, {"type": "note_off", "time": 5086, "note": 55, "velocity": 109, "channel": 0}, {"type": "note_on", "time": 256, "note": 56, "velocity": 105, "channel": 0}, {"type": "note_on", "time": 4231, "note": 60, "velocity": 103, "channel": 0}, {"type": "note_off", "time": 0, "note": 56, "velocity": 105, "channel": 0}, {"type": "note_off", "time": 4231, "note": 60, "velocity": 103, "channel": 0}, {"type": "note_on", "time": 0, "note": 61, "velocity": 100, "channel": 0}, {"type": "note_off", "time": 4060, "note": 61, "velocity": 100, "channel": 0}, {"type": "note_on", "time": 299, "note": 65, "velocity": 105, "channel": 0}, {"type": "note_off", "time": 4146, "note": 65, "velocity": 105, "channel": 0}, {"type": "note_on", "time": 256, "note": 67, "velocity": 117, "channel": 0}, {"type": "note_off", "time": 2906, "note": 67, "velocity": 117, "channel": 0}, {"type": "note_on", "time": 384, "note": 68, "velocity": 118, "channel": 0}, {"type": "note_off", "time": 1624, "note": 68, "velocity": 118, "channel": 0}, {"type": "note_on", "time": 897, "note": 70, "velocity": 113, "channel": 0}, {"type": "note_off", "time": 1624, "note": 70, "velocity": 113, "channel": 0}, {"type": "note_on", "time": 299, "note": 71, "velocity": 118, "channel": 0}, {"type": "note_off", "time": 1538, "note": 71, "velocity": 118, "channel": 0}, {"type": "note_on", "time": 128, "note": 72, "velocity": 121, "channel": 0}, {"type": "note_off", "time": 4188, "note": 72, "velocity": 121, "channel": 0}, {"type": "note_on", "time": 0, "note": 68, "velocity": 114, "channel": 0}, {"type": "note_off", "time": 4017, "note": 68, "velocity": 114, "channel": 0}, {"type": "note_on", "time": 128, "note": 63, "velocity": 98, "channel": 0}, {"type": "note_off", "time": 4915, "note": 63, "velocity": 98, "channel": 0}, {"type": "note_on", "time": 0, "note": 60, "velocity": 92, "channel": 0}, {"type": "note_off", "time": 4317, "note": 60, "velocity": 92, "channel": 0}, {"type": "note_on", "time": 42, "note": 61, "velocity": 95, "channel": 0}, {"type": "note_off", "time": 5342, "note": 61, "velocity": 95, "channel": 0}, {"type": "note_on", "time": 85, "note": 62, "velocity": 97, "channel": 0}, {"type": "note_off", "time": 5129, "note": 62, "velocity": 97, "channel": 0}, {"type": "note_on", "time": 2607, "note": 69, "velocity": 108, "channel": 0}, {"type": "note_off", "time": 983, "note": 69, "velocity": 108, "channel": 0}, {"type": "note_on", "time": 299, "note": 70, "velocity": 101, "channel": 0}, {"type": "note_off", "time": 2265, "note": 70, "velocity": 101, "channel": 0}, {"type": "note_on", "time": 213, "note": 67, "velocity": 102, "channel": 0}, {"type": "note_off", "time": 2265, "note": 67, "velocity": 102, "channel": 0}, {"type": "note_on", "time": 213, "note": 68, "velocity": 91, "channel": 0}, {"type": "note_off", "time": 3504, "note": 68, "velocity": 91, "channel": 0}, {"type": "note_on", "time": 256, "note": 65, "velocity": 92, "channel": 0}, {"type": "note_off", "time": 4402, "note": 65, "velocity": 92, "channel": 0}, {"type": "note_on", "time": 0, "note": 62, "velocity": 83, "channel": 0}, {"type": "note_off", "time": 3804, "note": 62, "velocity": 83, "channel": 0}, {"type": "note_on", "time": 85, "note": 58, "velocity": 95, "channel": 0}, {"type": "note_off", "time": 3889, "note": 58, "velocity": 95, "channel": 0}, {"type": "note_on", "time": 256, "note": 56, "velocity": 79, "channel": 0}, {"type": "note_off", "time": 9617, "note": 56, "velocity": 79, "channel": 0}, {"type": "note_on", "time": 13421, "note": 53, "velocity": 98, "channel": 0}, {"type": "note_off", "time": 4787, "note": 53, "velocity": 98, "channel": 0}, {"type": "note_on", "time": 170, "note": 54, "velocity": 92, "channel": 0}, {"type": "note_off", "time": 4445, "note": 54, "velocity": 92, "channel": 0}, {"type": "note_on", "time": 170, "note": 58, "velocity": 95, "channel": 0}, {"type": "note_off", "time": 5129, "note": 58, "velocity": 95, "channel": 0}, {"type": "note_on", "time": 170, "note": 61, "velocity": 96, "channel": 0}, {"type": "note_off", "time": 4530, "note": 61, "velocity": 96, "channel": 0}, {"type": "note_on", "time": 341, "note": 64, "velocity": 106, "channel": 0}, {"type": "note_off", "time": 2992, "note": 64, "velocity": 106, "channel": 0}, {"type": "note_on", "time": 85, "note": 65, "velocity": 97, "channel": 0}, {"type": "note_off", "time": 4701, "note": 65, "velocity": 97, "channel": 0}, {"type": "note_on", "time": 0, "note": 61, "velocity": 87, "channel": 0}, {"type": "note_off", "time": 3590, "note": 61, "velocity": 87, "channel": 0}, {"type": "note_on", "time": 0, "note": 58, "velocity": 94, "channel": 0}, {"type": "note_off", "time": 7779, "note": 58, "velocity": 94, "channel": 0}, {"type": "note_on", "time": 256, "note": 61, "velocity": 85, "channel": 0}, {"type": "note_off", "time": 5984, "note": 61, "velocity": 85, "channel": 0}, {"type": "note_on", "time": 683, "note": 64, "velocity": 96, "channel": 0}, {"type": "note_off", "time": 1795, "note": 64, "velocity": 96, "channel": 0}, {"type": "note_on", "time": 1111, "note": 65, "velocity": 68, "channel": 0}, {"type": "note_off", "time": 10001, "note": 65, "velocity": 68, "channel": 0}, {"type": "note_on", "time": 13126, "note": 55, "velocity": 102, "channel": 0}, {"type": "note_off", "time": 5592, "note": 55, "velocity": 102, "channel": 0}, {"type": "note_on", "time": 0, "note": 59, "velocity": 82, "channel": 0}, {"type": "note_off", "time": 3039, "note": 59, "velocity": 82, "channel": 0}, {"type": "note_on", "time": 243, "note": 63, "velocity": 93, "channel": 0}, {"type": "note_off", "time": 4802, "note": 63, "velocity": 93, "channel": 0}, {"type": "note_on", "time": 0, "note": 64, "velocity": 108, "channel": 0}, {"type": "note_off", "time": 1762, "note": 64, "velocity": 108, "channel": 0}, {"type": "note_on", "time": 243, "note": 65, "velocity": 107, "channel": 0}, {"type": "note_off", "time": 3343, "note": 65, "velocity": 107, "channel": 0}, {"type": "note_on", "time": 364, "note": 61, "velocity": 89, "channel": 0}, {"type": "note_off", "time": 2735, "note": 61, "velocity": 89, "channel": 0}, {"type": "note_on", "time": 182, "note": 57, "velocity": 99, "channel": 0}, {"type": "note_off", "time": 6018, "note": 57, "velocity": 99, "channel": 0}, {"type": "note_on", "time": 0, "note": 55, "velocity": 85, "channel": 0}, {"type": "note_off", "time": 3282, "note": 55, "velocity": 85, "channel": 0}, {"type": "note_on", "time": 243, "note": 56, "velocity": 104, "channel": 0}, {"type": "note_off", "time": 4255, "note": 56, "velocity": 104, "channel": 0}, {"type": "note_on", "time": 607, "note": 66, "velocity": 104, "channel": 0}, {"type": "note_off", "time": 1155, "note": 66, "velocity": 104, "channel": 0}, {"type": "note_on", "time": 0, "note": 68, "velocity": 100, "channel": 0}, {"type": "note_off", "time": 3708, "note": 68, "velocity": 100, "channel": 0}, {"type": "note_on", "time": 0, "note": 66, "velocity": 90, "channel": 0}, {"type": "note_off", "time": 4072, "note": 66, "velocity": 90, "channel": 0}, {"type": "note_on", "time": 303, "note": 58, "velocity": 87, "channel": 0}, {"type": "note_off", "time": 3768, "note": 58, "velocity": 87, "channel": 0}, {"type": "note_on", "time": 406, "note": 64, "velocity": 83, "channel": 0}, {"type": "note_off", "time": 2992, "note": 64, "velocity": 83, "channel": 0}, {"type": "note_on", "time": 248, "note": 65, "velocity": 97, "channel": 0}, {"type": "note_off", "time": 3890, "note": 65, "velocity": 97, "channel": 0}, {"type": "note_on", "time": 220, "note": 64, "velocity": 86, "channel": 0}, {"type": "note_off", "time": 3504, "note": 64, "velocity": 86, "channel": 0}, {"type": "note_on", "time": 170, "note": 63, "velocity": 88, "channel": 0}, {"type": "note_off", "time": 4274, "note": 63, "velocity": 88, "channel": 0}, {"type": "note_on", "time": 683, "note": 62, "velocity": 88, "channel": 0}, {"type": "note_off", "time": 3932, "note": 62, "velocity": 88, "channel": 0}, {"type": "note_on", "time": 854, "note": 61, "velocity": 76, "channel": 0}, {"type": "note_off", "time": 7693, "note": 61, "velocity": 76, "channel": 0}, {"type": "note_on", "time": 15985, "note": 54, "velocity": 63, "channel": 0}, {"type": "note_off", "time": 1709, "note": 54, "velocity": 63, "channel": 0}, {"type": "note_on", "time": 170, "note": 55, "velocity": 105, "channel": 0}, {"type": "note_off", "time": 5129, "note": 55, "velocity": 105, "channel": 0}, {"type": "note_on", "time": 0, "note": 56, "velocity": 110, "channel": 0}, {"type": "note_off", "time": 5129, "note": 56, "velocity": 110, "channel": 0}, {"type": "note_on", "time": 512, "note": 67, "velocity": 101, "channel": 0}, {"type": "note_off", "time": 2906, "note": 67, "velocity": 101, "channel": 0}, {"type": "note_on", "time": 170, "note": 70, "velocity": 117, "channel": 0}, {"type": "note_off", "time": 6496, "note": 70, "velocity": 117, "channel": 0}, {"type": "note_on", "time": 683, "note": 68, "velocity": 78, "channel": 0}, {"type": "note_off", "time": 21542, "note": 68, "velocity": 78, "channel": 0}, {"type": "note_on", "time": 15976, "note": 56, "velocity": 88, "channel": 0}, {"type": "note_on", "time": 851, "note": 57, "velocity": 109, "channel": 0}, {"type": "note_off", "time": 0, "note": 56, "velocity": 88, "channel": 0}, {"type": "note_off", "time": 4620, "note": 57, "velocity": 109, "channel": 0}, {"type": "note_on", "time": 364, "note": 59, "velocity": 106, "channel": 0}, {"type": "note_off", "time": 2310, "note": 59, "velocity": 106, "channel": 0}, {"type": "note_on", "time": 729, "note": 62, "velocity": 106, "channel": 0}, {"type": "note_off", "time": 2431, "note": 62, "velocity": 106, "channel": 0}, {"type": "note_on", "time": 0, "note": 64, "velocity": 111, "channel": 0}, {"type": "note_off", "time": 1215, "note": 64, "velocity": 111, "channel": 0}, {"type": "note_on", "time": 851, "note": 66, "velocity": 115, "channel": 0}, {"type": "note_off", "time": 2796, "note": 66, "velocity": 115, "channel": 0}, {"type": "note_on", "time": 607, "note": 65, "velocity": 97, "channel": 0}, {"type": "note_off", "time": 3768, "note": 65, "velocity": 97, "channel": 0}, {"type": "note_on", "time": 0, "note": 63, "velocity": 87, "channel": 0}, {"type": "note_off", "time": 4133, "note": 63, "velocity": 87, "channel": 0}, {"type": "note_on", "time": 0, "note": 60, "velocity": 83, "channel": 0}, {"type": "note_off", "time": 4741, "note": 60, "velocity": 83, "channel": 0}, {"type": "note_on", "time": 1337, "note": 61, "velocity": 95, "channel": 0}, {"type": "note_on", "time": 1458, "note": 63, "velocity": 94, "channel": 0}, {"type": "note_off", "time": 0, "note": 61, "velocity": 95, "channel": 0}, {"type": "note_off", "time": 3161, "note": 63, "velocity": 94, "channel": 0}, {"type": "note_on", "time": 0, "note": 65, "velocity": 87, "channel": 0}, {"type": "note_off", "time": 4376, "note": 65, "velocity": 87, "channel": 0}, {"type": "note_on", "time": 0, "note": 61, "velocity": 68, "channel": 0}, {"type": "note_off", "time": 16170, "note": 61, "velocity": 68, "channel": 0}, {"type": "note_on", "time": 27355, "note": 58, "velocity": 111, "channel": 0}, {"type": "note_off", "time": 9240, "note": 58, "velocity": 111, "channel": 0}, {"type": "note_on", "time": 0, "note": 62, "velocity": 97, "channel": 0}, {"type": "note_off", "time": 2431, "note": 62, "velocity": 97, "channel": 0}, {"type": "note_on", "time": 729, "note": 65, "velocity": 108, "channel": 0}, {"type": "note_off", "time": 10091, "note": 65, "velocity": 108, "channel": 0}, {"type": "note_on", "time": 243, "note": 58, "velocity": 96, "channel": 0}, {"type": "note_off", "time": 7659, "note": 58, "velocity": 96, "channel": 0}, {"type": "note_on", "time": 486, "note": 61, "velocity": 101, "channel": 0}, {"type": "note_off", "time": 7294, "note": 61, "velocity": 101, "channel": 0}, {"type": "note_on", "time": 1094, "note": 65, "velocity": 101, "channel": 0}, {"type": "note_off", "time": 5714, "note": 65, "velocity": 101, "channel": 0}, {"type": "note_on", "time": 0, "note": 58, "velocity": 95, "channel": 0}, {"type": "note_off", "time": 6078, "note": 58, "velocity": 95, "channel": 0}, {"type": "note_on", "time": 0, "note": 61, "velocity": 91, "channel": 0}, {"type": "note_off", "time": 5957, "note": 61, "velocity": 91, "channel": 0}, {"type": "note_on", "time": 972, "note": 65, "velocity": 96, "channel": 0}, {"type": "note_off", "time": 4498, "note": 65, "velocity": 96, "channel": 0}, {"type": "note_on", "time": 121, "note": 58, "velocity": 85, "channel": 0}, {"type": "note_off", "time": 6322, "note": 58, "velocity": 85, "channel": 0}, {"type": "note_on", "time": 121, "note": 61, "velocity": 89, "channel": 0}, {"type": "note_off", "time": 6686, "note": 61, "velocity": 89, "channel": 0}, {"type": "note_on", "time": 607, "note": 65, "velocity": 98, "channel": 0}, {"type": "note_off", "time": 3525, "note": 65, "velocity": 98, "channel": 0}, {"type": "note_on", "time": 121, "note": 58, "velocity": 81, "channel": 0}, {"type": "note_off", "time": 4012, "note": 58, "velocity": 81, "channel": 0}, {"type": "note_on", "time": 0, "note": 61, "velocity": 71, "channel": 0}, {"type": "note_off", "time": 16899, "note": 61, "velocity": 71, "channel": 0}, {"type": "note_on", "time": 33434, "note": 58, "velocity": 99, "channel": 0}, {"type": "note_off", "time": 6200, "note": 58, "velocity": 99, "channel": 0}, {"type": "note_on", "time": 121, "note": 61, "velocity": 81, "channel": 0}, {"type": "note_on", "time": 3647, "note": 65, "velocity": 112, "channel": 0}, {"type": "note_off", "time": 0, "note": 61, "velocity": 81, "channel": 0}, {"type": "note_off", "time": 4498, "note": 65, "velocity": 112, "channel": 0}, {"type": "note_on", "time": 364, "note": 64, "velocity": 97, "channel": 0}, {"type": "note_off", "time": 3890, "note": 64, "velocity": 97, "channel": 0}, {"type": "note_on", "time": 0, "note": 63, "velocity": 97, "channel": 0}, {"type": "note_off", "time": 3525, "note": 63, "velocity": 97, "channel": 0}, {"type": "note_on", "time": 176, "note": 61, "velocity": 82, "channel": 0}, {"type": "note_off", "time": 2393, "note": 61, "velocity": 82, "channel": 0}, {"type": "note_on", "time": 0, "note": 63, "velocity": 89, "channel": 0}, {"type": "note_off", "time": 1538, "note": 63, "velocity": 89, "channel": 0}, {"type": "note_on", "time": 341, "note": 61, "velocity": 95, "channel": 0}, {"type": "note_off", "time": 1709, "note": 61, "velocity": 95, "channel": 0}, {"type": "note_on", "time": 0, "note": 58, "velocity": 86, "channel": 0}, {"type": "note_off", "time": 4445, "note": 58, "velocity": 86, "channel": 0}, {"type": "note_on", "time": 1880, "note": 61, "velocity": 95, "channel": 0}, {"type": "note_off", "time": 3077, "note": 61, "velocity": 95, "channel": 0}, {"type": "note_on", "time": 0, "note": 58, "velocity": 68, "channel": 0}, {"type": "note_off", "time": 26158, "note": 58, "velocity": 68, "channel": 0}, {"type": "note_on", "time": 6665, "note": 64, "velocity": 105, "channel": 0}, {"type": "note_off", "time": 3333, "note": 64, "velocity": 105, "channel": 0}, {"type": "note_on", "time": 600, "note": 66, "velocity": 114, "channel": 0}, {"type": "note_off", "time": 2393, "note": 66, "velocity": 114, "channel": 0}, {"type": "note_on", "time": 85, "note": 67, "velocity": 115, "channel": 0}, {"type": "note_off", "time": 1795, "note": 67, "velocity": 115, "channel": 0}, {"type": "note_on", "time": 341, "note": 68, "velocity": 118, "channel": 0}, {"type": "note_off", "time": 4616, "note": 68, "velocity": 118, "channel": 0}, {"type": "note_on", "time": 0, "note": 66, "velocity": 105, "channel": 0}, {"type": "note_off", "time": 4017, "note": 66, "velocity": 105, "channel": 0}, {"type": "note_on", "time": 598, "note": 65, "velocity": 84, "channel": 0}, {"type": "note_off", "time": 3675, "note": 65, "velocity": 84, "channel": 0}, {"type": "note_on", "time": 170, "note": 63, "velocity": 95, "channel": 0}, {"type": "note_off", "time": 4359, "note": 63, "velocity": 95, "channel": 0}, {"type": "note_on", "time": 150, "note": 60, "velocity": 87, "channel": 0}, {"type": "note_off", "time": 4133, "note": 60, "velocity": 87, "channel": 0}, {"type": "note_on", "time": 486, "note": 61, "velocity": 93, "channel": 0}, {"type": "note_off", "time": 4012, "note": 61, "velocity": 93, "channel": 0}, {"type": "note_on", "time": 364, "note": 62, "velocity": 96, "channel": 0}, {"type": "note_off", "time": 4863, "note": 62, "velocity": 96, "channel": 0}, {"type": "note_on", "time": 607, "note": 68, "velocity": 103, "channel": 0}, {"type": "note_off", "time": 972, "note": 68, "velocity": 103, "channel": 0}, {"type": "note_on", "time": 364, "note": 70, "velocity": 92, "channel": 0}, {"type": "note_off", "time": 4012, "note": 70, "velocity": 92, "channel": 0}, {"type": "note_on", "time": 486, "note": 68, "velocity": 94, "channel": 0}, {"type": "note_on", "time": 3404, "note": 65, "velocity": 93, "channel": 0}, {"type": "note_off", "time": 0, "note": 68, "velocity": 94, "channel": 0}, {"type": "note_off", "time": 4376, "note": 65, "velocity": 93, "channel": 0}, {"type": "note_on", "time": 121, "note": 61, "velocity": 93, "channel": 0}, {"type": "note_on", "time": 2310, "note": 62, "velocity": 91, "channel": 0}, {"type": "note_off", "time": 0, "note": 61, "velocity": 93, "channel": 0}, {"type": "note_off", "time": 2431, "note": 62, "velocity": 91, "channel": 0}, {"type": "note_on", "time": 0, "note": 56, "velocity": 96, "channel": 0}, {"type": "note_off", "time": 4498, "note": 56, "velocity": 96, "channel": 0}, {"type": "note_on", "time": 0, "note": 53, "velocity": 96, "channel": 0}, {"type": "note_off", "time": 4376, "note": 53, "velocity": 96, "channel": 0}, {"type": "note_on", "time": 121, "note": 54, "velocity": 101, "channel": 0}, {"type": "note_off", "time": 4376, "note": 54, "velocity": 101, "channel": 0}, {"type": "note_on", "time": 0, "note": 55, "velocity": 97, "channel": 0}, {"type": "note_off", "time": 5835, "note": 55, "velocity": 97, "channel": 0}, {"type": "note_on", "time": 0, "note": 58, "velocity": 93, "channel": 0}, {"type": "note_off", "time": 4133, "note": 58, "velocity": 93, "channel": 0}, {"type": "note_on", "time": 486, "note": 61, "velocity": 89, "channel": 0}, {"type": "note_off", "time": 4376, "note": 61, "velocity": 89, "channel": 0}, {"type": "note_on", "time": 364, "note": 60, "velocity": 81, "channel": 0}, {"type": "note_off", "time": 1215, "note": 60, "velocity": 81, "channel": 0}, {"type": "note_on", "time": 972, "note": 64, "velocity": 93, "channel": 0}, {"type": "note_off", "time": 5835, "note": 64, "velocity": 93, "channel": 0}, {"type": "note_on", "time": 26504, "note": 56, "velocity": 102, "channel": 0}, {"type": "note_off", "time": 5106, "note": 56, "velocity": 102, "channel": 0}, {"type": "note_on", "time": 243, "note": 57, "velocity": 99, "channel": 0}, {"type": "note_off", "time": 4012, "note": 57, "velocity": 99, "channel": 0}, {"type": "note_on", "time": 851, "note": 58, "velocity": 94, "channel": 0}, {"type": "note_off", "time": 4620, "note": 58, "velocity": 94, "channel": 0}, {"type": "note_on", "time": 364, "note": 65, "velocity": 91, "channel": 0}, {"type": "note_off", "time": 4376, "note": 65, "velocity": 91, "channel": 0}, {"type": "note_on", "time": 0, "note": 60, "velocity": 79, "channel": 0}, {"type": "note_off", "time": 4620, "note": 60, "velocity": 79, "channel": 0}, {"type": "note_on", "time": 0, "note": 63, "velocity": 87, "channel": 0}, {"type": "note_off", "time": 3989, "note": 63, "velocity": 87, "channel": 0}, {"type": "note_on", "time": 0, "note": 61, "velocity": 72, "channel": 0}, {"type": "note_off", "time": 161738, "note": 61, "velocity": 72, "channel": 0}, {"type": "end_of_track", "time": 0}]]}