{"ticks_per_beat": 192, "tracks": [[{"type": "track_name", "name": "Melody", "time": 0}, {"type": "set_tempo", "tempo": 322580, "time": 0}, {"type": "key_signature", "key": "F", "time": 0}, {"type": "time_signature", "numerator": 4, "denominator": 4, "clocks_per_click": 24, "notated_32nd_notes_per_beat": 8, "time": 0}, {"type": "note_on", "time": 2574, "note": 60, "velocity": 77, "channel": 0}, {"type": "note_off", "time": 41, "note": 60, "velocity": 77, "channel": 0}, {"type": "note_on", "time": 9, "note": 61, "velocity": 107, "channel": 0}, {"type": "note_off", "time": 44, "note": 61, "velocity": 107, "channel": 0}, {"type": "note_on", "time": 10, "note": 62, "velocity": 101, "channel": 0}, {"type": "note_off", "time": 81, "note": 62, "velocity": 101, "channel": 0}, {"type": "note_on", "time": 10, "note": 65, "velocity": 110, "channel": 0}, {"type": "note_off", "time": 84, "note": 65, "velocity": 110, "channel": 0}, {"type": "note_on", "time": 104, "note": 64, "velocity": 103, "channel": 0}, {"type": "note_off", "time": 73, "note": 64, "velocity": 103, "channel": 0}, {"type": "note_on", "time": 8, "note": 67, "velocity": 117, "channel": 0}, {"type": "note_off", "time": 114, "note": 67, "velocity": 117, "channel": 0}, {"type": "note_on", "time": 14, "note": 70, "velocity": 70, "channel": 0}, {"type": "note_off", "time": 58, "note": 70, "velocity": 70, "channel": 0}, {"type": "note_on", "time": 7, "note": 74, "velocity": 114, "channel": 0}, {"type": "note_off", "time": 104, "note": 74, "velocity": 114, "channel": 0}, {"type": "note_on", "time": 10, "note": 73, "velocity": 119, "channel": 0}, {"type": "note_off", "time": 80, "note": 73, "velocity": 119, "channel": 0}, {"type": "note_on", "time": 103, "note": 70, "velocity": 120, "channel": 0}, {"type": "note_off", "time": 75, "note": 70, "velocity": 120, "channel": 0}, {"type": "note_on", "time": 6, "note": 67, "velocity": 109, "channel": 0}, {"type": "note_off", "time": 83, "note": 67, "velocity": 109, "channel": 0}, {"type": "note_on", "time": 2, "note": 68, "velocity": 111, "channel": 0}, {"type": "note_off", "time": 88, "note": 68, "velocity": 111, "channel": 0}, {"type": "note_on", "time": 19, "note": 69, "velocity": 118, "channel": 0}, {"type": "note_off", "time": 93, "note": 69, "velocity": 118, "channel": 0}, {"type": "note_on", "time": 25, "note": 65, "velocity": 100, "channel": 0}, {"type": "note_off", "time": 82, "note": 65, "velocity": 100, "channel": 0}, {"type": "note_on", "time": 120, "note": 61, "velocity": 105, "channel": 0}, {"type": "note_off", "time": 87, "note": 61, "velocity": 105, "channel": 0}, {"type": "note_on", "time": 9, "note": 60, "velocity": 108, "channel": 0}, {"type": "note_off", "time": 80, "note": 60, "velocity": 108, "channel": 0}, {"type": "note_on", "time": 16, "note": 57, "velocity": 106, "channel": 0}, {"type": "note_off", "time": 63, "note": 57, "velocity": 106, "channel": 0}, {"type": "note_on", "time": 13, "note": 58, "velocity": 100, "channel": 0}, {"type": "note_off", "time": 62, "note": 58, "velocity": 100, "channel": 0}, {"type": "note_on", "time": 11, "note": 62, "velocity": 90, "channel": 0}, {"type": "note_off", "time": 31, "note": 62, "velocity": 90, "channel": 0}, {"type": "note_on", "time": 10, "note": 65, "velocity": 101, "channel": 0}, {"type": "note_off", "time": 63, "note": 65, "velocity": 101, "channel": 0}, {"type": "note_on", "time": 17, "note": 69, "velocity": 114, "channel": 0}, {"type": "note_off", "time": 96, "note": 69, "velocity": 114, "channel": 0}, {"type": "note_on", "time": 15, "note": 67, "velocity": 113, "channel": 0}, {"type": "note_off", "time": 71, "note": 67, "velocity": 113, "channel": 0}, {"type": "note_on", "time": 14, "note": 65, "velocity": 91, "channel": 0}, {"type": "note_off", "time": 88, "note": 65, "velocity": 91, "channel": 0}, {"type": "note_on", "time": 11, "note": 64, "velocity": 101, "channel": 0}, {"type": "note_off", "time": 77, "note": 64, "velocity": 101, "channel": 0}, {"type": "note_on", "time": 6, "note": 67, "velocity": 97, "channel": 0}, {"type": "note_off", "time": 47, "note": 67, "velocity": 97, "channel": 0}, {"type": "note_on", "time": 1, "note": 69, "velocity": 88, "channel": 0}, {"type": "note_off", "time": 22, "note": 69, "velocity": 88, "channel": 0}, {"type": "note_on", "time": 4, "note": 67, "velocity": 97, "channel": 0}, {"type": "note_off", "time": 37, "note": 67, "velocity": 97, "channel": 0}, {"type": "note_on", "time": 7, "note": 65, "velocity": 93, "channel": 0}, {"type": "note_off", "time": 65, "note": 65, "velocity": 93, "channel": 0}, {"type": "note_on", "time": 6, "note": 64, "velocity": 101, "channel": 0}, {"type": "note_off", "time": 101, "note": 64, "velocity": 101, "channel": 0}, {"type": "note_on", "time": 13, "note": 62, "velocity": 95, "channel": 0}, {"type": "note_off", "time": 54, "note": 62, "velocity": 95, "channel": 0}, {"type": "note_on", "time": 16, "note": 60, "velocity": 95, "channel": 0}, {"type": "note_off", "time": 92, "note": 60, "velocity": 95, "channel": 0}, {"type": "note_on", "time": 595, "note": 57, "velocity": 104, "channel": 0}, {"type": "note_off", "time": 83, "note": 57, "velocity": 104, "channel": 0}, {"type": "note_on", "time": 9, "note": 58, "velocity": 101, "channel": 0}, {"type": "note_off", "time": 37, "note": 58, "velocity": 101, "channel": 0}, {"type": "note_on", "time": 6, "note": 62, "velocity": 96, "channel": 0}, {"type": "note_off", "time": 45, "note": 62, "velocity": 96, "channel": 0}, {"type": "note_on", "time": 10, "note": 65, "velocity": 107, "channel": 0}, {"type": "note_off", "time": 52, "note": 65, "velocity": 107, "channel": 0}, {"type": "note_on", "time": 0, "note": 69, "velocity": 108, "channel": 0}, {"type": "note_off", "time": 44, "note": 69, "velocity": 108, "channel": 0}, {"type": "note_on", "time": 1, "note": 72, "velocity": 125, "channel": 0}, {"type": "note_off", "time": 58, "note": 72, "velocity": 125, "channel": 0}, {"type": "note_on", "time": 8, "note": 70, "velocity": 108, "channel": 0}, {"type": "note_off", "time": 70, "note": 70, "velocity": 108, "channel": 0}, {"type": "note_on", "time": 6, "note": 67, "velocity": 113, "channel": 0}, {"type": "note_off", "time": 48, "note": 67, "velocity": 113, "channel": 0}, {"type": "note_on", "time": 4, "note": 64, "velocity": 101, "channel": 0}, {"type": "note_off", "time": 38, "note": 64, "velocity": 101, "channel": 0}, {"type": "note_on", "time": 1, "note": 61, "velocity": 101, "channel": 0}, {"type": "note_off", "time": 47, "note": 61, "velocity": 101, "channel": 0}, {"type": "note_on", "time": 9, "note": 60, "velocity": 102, "channel": 0}, {"type": "note_off", "time": 38, "note": 60, "velocity": 102, "channel": 0}, {"type": "note_on", "time": 6, "note": 59, "velocity": 112, "channel": 0}, {"type": "note_off", "time": 40, "note": 59, "velocity": 112, "channel": 0}, {"type": "note_on", "time": 9, "note": 58, "velocity": 107, "channel": 0}, {"type": "note_off", "time": 43, "note": 58, "velocity": 107, "channel": 0}, {"type": "note_on", "time": 5, "note": 56, "velocity": 99, "channel": 0}, {"type": "note_off", "time": 28, "note": 56, "velocity": 99, "channel": 0}, {"type": "note_on", "time": 4, "note": 57, "velocity": 98, "channel": 0}, {"type": "note_off", "time": 47, "note": 57, "velocity": 98, "channel": 0}, {"type": "note_on", "time": 13, "note": 60, "velocity": 101, "channel": 0}, {"type": "note_off", "time": 35, "note": 60, "velocity": 101, "channel": 0}, {"type": "note_on", "time": 6, "note": 67, "velocity": 105, "channel": 0}, {"type": "note_off", "time": 83, "note": 67, "velocity": 105, "channel": 0}, {"type": "note_on", "time": 21, "note": 64, "velocity": 108, "channel": 0}, {"type": "note_off", "time": 79, "note": 64, "velocity": 108, "channel": 0}, {"type": "note_on", "time": 10, "note": 67, "velocity": 100, "channel": 0}, {"type": "note_off", "time": 42, "note": 67, "velocity": 100, "channel": 0}, {"type": "note_on", "time": 3, "note": 69, "velocity": 84, "channel": 0}, {"type": "note_off", "time": 17, "note": 69, "velocity": 84, "channel": 0}, {"type": "note_on", "time": 3, "note": 67, "velocity": 101, "channel": 0}, {"type": "note_off", "time": 41, "note": 67, "velocity": 101, "channel": 0}, {"type": "note_on", "time": 6, "note": 65, "velocity": 100, "channel": 0}, {"type": "note_off", "time": 53, "note": 65, "velocity": 100, "channel": 0}, {"type": "note_on", "time": 3, "note": 72, "velocity": 123, "channel": 0}, {"type": "note_off", "time": 104, "note": 72, "velocity": 123, "channel": 0}, {"type": "note_on", "time": 7, "note": 69, "velocity": 116, "channel": 0}, {"type": "note_off", "time": 76, "note": 69, "velocity": 116, "channel": 0}, {"type": "note_on", "time": 8, "note": 65, "velocity": 90, "channel": 0}, {"type": "note_off", "time": 107, "note": 65, "velocity": 90, "channel": 0}, {"type": "note_on", "time": 92, "note": 67, "velocity": 116, "channel": 0}, {"type": "note_off", "time": 105, "note": 67, "velocity": 116, "channel": 0}, {"type": "note_on", "time": 4, "note": 65, "velocity": 107, "channel": 0}, {"type": "note_off", "time": 71, "note": 65, "velocity": 107, "channel": 0}, {"type": "note_on", "time": 137, "note": 61, "velocity": 106, "channel": 0}, {"type": "note_off", "time": 62, "note": 61, "velocity": 106, "channel": 0}, {"type": "note_on", "time": 8, "note": 60, "velocity": 107, "channel": 0}, {"type": "note_off", "time": 89, "note": 60, "velocity": 107, "channel": 0}, {"type": "note_on", "time": 11, "note": 58, "velocity": 107, "channel": 0}, {"type": "note_off", "time": 98, "note": 58, "velocity": 107, "channel": 0}, {"type": "note_on", "time": 6, "note": 55, "velocity": 96, "channel": 0}, {"type": "note_off", "time": 88, "note": 55, "velocity": 96, "channel": 0}, {"type": "note_on", "time": 8, "note": 56, "velocity": 106, "channel": 0}, {"type": "note_off", "time": 72, "note": 56, "velocity": 106, "channel": 0}, {"type": "note_on", "time": 32, "note": 57, "velocity": 108, "channel": 0}, {"type": "note_off", "time": 89, "note": 57, "velocity": 108, "channel": 0}, {"type": "note_on", "time": 10, "note": 60, "velocity": 104, "channel": 0}, {"type": "note_off", "time": 62, "note": 60, "velocity": 104, "channel": 0}, {"type": "note_on", "time": 20, "note": 55, "velocity": 109, "channel": 0}, {"type": "note_off", "time": 86, "note": 55, "velocity": 109, "channel": 0}, {"type": "note_on", "time": 11, "note": 53, "velocity": 103, "channel": 0}, {"type": "note_off", "time": 64, "note": 53, "velocity": 103, "channel": 0}, {"type": "note_on", "time": 7, "note": 54, "velocity": 111, "channel": 0}, {"type": "note_off", "time": 126, "note": 54, "velocity": 111, "channel": 0}, {"type": "note_on", "time": 12, "note": 57, "velocity": 99, "channel": 0}, {"type": "note_off", "time": 61, "note": 57, "velocity": 99, "channel": 0}, {"type": "note_on", "time": 7, "note": 60, "velocity": 106, "channel": 0}, {"type": "note_off", "time": 96, "note": 60, "velocity": 106, "channel": 0}, {"type": "note_on", "time": 23, "note": 63, "velocity": 106, "channel": 0}, {"type": "note_off", "time": 71, "note": 63, "velocity": 106, "channel": 0}, {"type": "note_on", "time": 8, "note": 62, "velocity": 96, "channel": 0}, {"type": "note_off", "time": 103, "note": 62, "velocity": 96, "channel": 0}, {"type": "note_on", "time": 12, "note": 58, "velocity": 106, "channel": 0}, {"type": "note_off", "time": 69, "note": 58, "velocity": 106, "channel": 0}, {"type": "note_on", "time": 5, "note": 55, "velocity": 95, "channel": 0}, {"type": "note_off", "time": 30, "note": 55, "velocity": 95, "channel": 0}, {"type": "note_on", "time": 4, "note": 57, "velocity": 93, "channel": 0}, {"type": "note_off", "time": 33, "note": 57, "velocity": 93, "channel": 0}, {"type": "note_on", "time": 4, "note": 55, "velocity": 92, "channel": 0}, {"type": "note_off", "time": 35, "note": 55, "velocity": 92, "channel": 0}, {"type": "note_on", "time": 5, "note": 53, "velocity": 100, "channel": 0}, {"type": "note_off", "time": 61, "note": 53, "velocity": 100, "channel": 0}, {"type": "note_on", "time": 20, "note": 60, "velocity": 105, "channel": 0}, {"type": "note_off", "time": 87, "note": 60, "velocity": 105, "channel": 0}, {"type": "note_on", "time": 403, "note": 57, "velocity": 109, "channel": 0}, {"type": "note_off", "time": 95, "note": 57, "velocity": 109, "channel": 0}, {"type": "note_on", "time": 5, "note": 58, "velocity": 105, "channel": 0}, {"type": "note_off", "time": 74, "note": 58, "velocity": 105, "channel": 0}, {"type": "note_on", "time": 2, "note": 59, "velocity": 101, "channel": 0}, {"type": "note_off", "time": 31, "note": 59, "velocity": 101, "channel": 0}, {"type": "note_on", "time": 7, "note": 60, "velocity": 98, "channel": 0}, {"type": "note_off", "time": 33, "note": 60, "velocity": 98, "channel": 0}, {"type": "note_on", "time": 11, "note": 63, "velocity": 99, "channel": 0}, {"type": "note_off", "time": 31, "note": 63, "velocity": 99, "channel": 0}, {"type": "note_on", "time": 12, "note": 68, "velocity": 112, "channel": 0}, {"type": "note_off", "time": 43, "note": 68, "velocity": 112, "channel": 0}, {"type": "note_on", "time": 2, "note": 70, "velocity": 107, "channel": 0}, {"type": "note_off", "time": 26, "note": 70, "velocity": 107, "channel": 0}, {"type": "note_on", "time": 7, "note": 72, "velocity": 107, "channel": 0}, {"type": "note_off", "time": 42, "note": 72, "velocity": 107, "channel": 0}, {"type": "note_on", "time": 4, "note": 75, "velocity": 110, "channel": 0}, {"type": "note_off", "time": 34, "note": 75, "velocity": 110, "channel": 0}, {"type": "note_on", "time": 6, "note": 80, "velocity": 115, "channel": 0}, {"type": "note_off", "time": 100, "note": 80, "velocity": 115, "channel": 0}, {"type": "note_on", "time": 7, "note": 77, "velocity": 126, "channel": 0}, {"type": "note_off", "time": 82, "note": 77, "velocity": 126, "channel": 0}, {"type": "note_on", "time": 10, "note": 75, "velocity": 108, "channel": 0}, {"type": "note_off", "time": 95, "note": 75, "velocity": 108, "channel": 0}, {"type": "note_on", "time": 4, "note": 73, "velocity": 124, "channel": 0}, {"type": "note_off", "time": 75, "note": 73, "velocity": 124, "channel": 0}, {"type": "note_on", "time": 10, "note": 72, "velocity": 113, "channel": 0}, {"type": "note_off", "time": 89, "note": 72, "velocity": 113, "channel": 0}, {"type": "note_on", "time": 9, "note": 70, "velocity": 118, "channel": 0}, {"type": "note_off", "time": 85, "note": 70, "velocity": 118, "channel": 0}, {"type": "note_on", "time": 5, "note": 69, "velocity": 97, "channel": 0}, {"type": "note_off", "time": 24, "note": 69, "velocity": 97, "channel": 0}, {"type": "note_on", "time": 1, "note": 70, "velocity": 100, "channel": 0}, {"type": "note_off", "time": 39, "note": 70, "velocity": 100, "channel": 0}, {"type": "note_on", "time": 4, "note": 68, "velocity": 106, "channel": 0}, {"type": "note_off", "time": 34, "note": 68, "velocity": 106, "channel": 0}, {"type": "note_on", "time": 3, "note": 67, "velocity": 107, "channel": 0}, {"type": "note_off", "time": 67, "note": 67, "velocity": 107, "channel": 0}, {"type": "note_on", "time": 4, "note": 70, "velocity": 118, "channel": 0}, {"type": "note_off", "time": 98, "note": 70, "velocity": 118, "channel": 0}, {"type": "note_on", "time": 18, "note": 68, "velocity": 121, "channel": 0}, {"type": "note_off", "time": 69, "note": 68, "velocity": 121, "channel": 0}, {"type": "note_on", "time": 13, "note": 63, "velocity": 106, "channel": 0}, {"type": "note_off", "time": 119, "note": 63, "velocity": 106, "channel": 0}, {"type": "note_on", "time": 14, "note": 60, "velocity": 84, "channel": 0}, {"type": "note_off", "time": 50, "note": 60, "velocity": 84, "channel": 0}, {"type": "note_on", "time": 13, "note": 67, "velocity": 111, "channel": 0}, {"type": "note_off", "time": 110, "note": 67, "velocity": 111, "channel": 0}, {"type": "note_on", "time": 12, "note": 65, "velocity": 92, "channel": 0}, {"type": "note_off", "time": 180, "note": 65, "velocity": 92, "channel": 0}, {"type": "note_on", "time": 387, "note": 57, "velocity": 112, "channel": 0}, {"type": "note_off", "time": 88, "note": 57, "velocity": 112, "channel": 0}, {"type": "note_on", "time": 6, "note": 59, "velocity": 105, "channel": 0}, {"type": "note_off", "time": 100, "note": 59, "velocity": 105, "channel": 0}, {"type": "note_on", "time": 3, "note": 62, "velocity": 108, "channel": 0}, {"type": "note_off", "time": 68, "note": 62, "velocity": 108, "channel": 0}, {"type": "note_on", "time": 14, "note": 65, "velocity": 112, "channel": 0}, {"type": "note_off", "time": 100, "note": 65, "velocity": 112, "channel": 0}, {"type": "note_on", "time": 7, "note": 69, "velocity": 127, "channel": 0}, {"type": "note_off", "time": 85, "note": 69, "velocity": 127, "channel": 0}, {"type": "note_on", "time": 7, "note": 69, "velocity": 105, "channel": 0}, {"type": "note_off", "time": 44, "note": 69, "velocity": 105, "channel": 0}, {"type": "note_on", "time": 9, "note": 67, "velocity": 98, "channel": 0}, {"type": "note_off", "time": 41, "note": 67, "velocity": 98, "channel": 0}, {"type": "note_on", "time": 9, "note": 65, "velocity": 100, "channel": 0}, {"type": "note_off", "time": 64, "note": 65, "velocity": 100, "channel": 0}, {"type": "note_on", "time": 9, "note": 64, "velocity": 109, "channel": 0}, {"type": "note_off", "time": 102, "note": 64, "velocity": 109, "channel": 0}, {"type": "note_on", "time": 15, "note": 67, "velocity": 90, "channel": 0}, {"type": "note_off", "time": 56, "note": 67, "velocity": 90, "channel": 0}, {"type": "note_on", "time": 9, "note": 71, "velocity": 120, "channel": 0}, {"type": "note_off", "time": 92, "note": 71, "velocity": 120, "channel": 0}, {"type": "note_on", "time": 22, "note": 74, "velocity": 111, "channel": 0}, {"type": "note_off", "time": 270, "note": 74, "velocity": 111, "channel": 0}, {"type": "note_on", "time": 12, "note": 72, "velocity": 120, "channel": 0}, {"type": "note_off", "time": 123, "note": 72, "velocity": 120, "channel": 0}, {"type": "note_on", "time": 6, "note": 70, "velocity": 97, "channel": 0}, {"type": "note_off", "time": 183, "note": 70, "velocity": 97, "channel": 0}, {"type": "note_on", "time": 392, "note": 61, "velocity": 102, "channel": 0}, {"type": "note_off", "time": 77, "note": 61, "velocity": 102, "channel": 0}, {"type": "note_on", "time": 8, "note": 62, "velocity": 88, "channel": 0}, {"type": "note_off", "time": 29, "note": 62, "velocity": 88, "channel": 0}, {"type": "note_on", "time": 18, "note": 65, "velocity": 89, "channel": 0}, {"type": "note_off", "time": 27, "note": 65, "velocity": 89, "channel": 0}, {"type": "note_on", "time": 5, "note": 69, "velocity": 104, "channel": 0}, {"type": "note_off", "time": 72, "note": 69, "velocity": 104, "channel": 0}, {"type": "note_on", "time": 6, "note": 72, "velocity": 121, "channel": 0}, {"type": "note_off", "time": 103, "note": 72, "velocity": 121, "channel": 0}, {"type": "note_on", "time": 7, "note": 70, "velocity": 113, "channel": 0}, {"type": "note_off", "time": 82, "note": 70, "velocity": 113, "channel": 0}, {"type": "note_on", "time": 112, "note": 65, "velocity": 108, "channel": 0}, {"type": "note_off", "time": 75, "note": 65, "velocity": 108, "channel": 0}, {"type": "note_on", "time": 10, "note": 69, "velocity": 121, "channel": 0}, {"type": "note_off", "time": 103, "note": 69, "velocity": 121, "channel": 0}, {"type": "note_on", "time": 7, "note": 72, "velocity": 116, "channel": 0}, {"type": "note_off", "time": 60, "note": 72, "velocity": 116, "channel": 0}, {"type": "note_on", "time": 10, "note": 66, "velocity": 101, "channel": 0}, {"type": "note_off", "time": 98, "note": 66, "velocity": 101, "channel": 0}, {"type": "note_on", "time": 13, "note": 67, "velocity": 111, "channel": 0}, {"type": "note_off", "time": 69, "note": 67, "velocity": 111, "channel": 0}, {"type": "note_on", "time": 111, "note": 60, "velocity": 99, "channel": 0}, {"type": "note_off", "time": 117, "note": 60, "velocity": 99, "channel": 0}, {"type": "note_on", "time": 9, "note": 61, "velocity": 89, "channel": 0}, {"type": "note_off", "time": 76, "note": 61, "velocity": 89, "channel": 0}, {"type": "note_on", "time": 13, "note": 62, "velocity": 97, "channel": 0}, {"type": "note_off", "time": 68, "note": 62, "velocity": 97, "channel": 0}, {"type": "note_on", "time": 6, "note": 70, "velocity": 112, "channel": 0}, {"type": "note_off", "time": 113, "note": 70, "velocity": 112, "channel": 0}, {"type": "note_on", "time": 76, "note": 69, "velocity": 117, "channel": 0}, {"type": "note_off", "time": 120, "note": 69, "velocity": 117, "channel": 0}, {"type": "note_on", "time": 80, "note": 65, "velocity": 107, "channel": 0}, {"type": "note_off", "time": 117, "note": 65, "velocity": 107, "channel": 0}, {"type": "note_on", "time": 304, "note": 60, "velocity": 96, "channel": 0}, {"type": "note_off", "time": 105, "note": 60, "velocity": 96, "channel": 0}, {"type": "note_on", "time": 11, "note": 62, "velocity": 84, "channel": 0}, {"type": "note_off", "time": 47, "note": 62, "velocity": 84, "channel": 0}, {"type": "note_on", "time": 0, "note": 65, "velocity": 100, "channel": 0}, {"type": "note_off", "time": 132, "note": 65, "velocity": 100, "channel": 0}, {"type": "note_on", "time": 10, "note": 65, "velocity": 88, "channel": 0}, {"type": "note_off", "time": 215, "note": 65, "velocity": 88, "channel": 0}, {"type": "note_on", "time": 14, "note": 65, "velocity": 92, "channel": 0}, {"type": "note_off", "time": 123, "note": 65, "velocity": 92, "channel": 0}, {"type": "note_on", "time": 48, "note": 65, "velocity": 107, "channel": 0}, {"type": "note_off", "time": 82, "note": 65, "velocity": 107, "channel": 0}, {"type": "note_on", "time": 4, "note": 65, "velocity": 104, "channel": 0}, {"type": "note_off", "time": 139, "note": 65, "velocity": 104, "channel": 0}, {"type": "note_on", "time": 42, "note": 65, "velocity": 103, "channel": 0}, {"type": "note_off", "time": 149, "note": 65, "velocity": 103, "channel": 0}, {"type": "note_on", "time": 46, "note": 65, "velocity": 88, "channel": 0}, {"type": "note_off", "time": 153, "note": 65, "velocity": 88, "channel": 0}, {"type": "note_on", "time": 312, "note": 69, "velocity": 123, "channel": 0}, {"type": "note_off", "time": 88, "note": 69, "velocity": 123, "channel": 0}, {"type": "note_on", "time": 12, "note": 65, "velocity": 103, "channel": 0}, {"type": "note_off", "time": 91, "note": 65, "velocity": 103, "channel": 0}, {"type": "note_on", "time": 17, "note": 60, "velocity": 111, "channel": 0}, {"type": "note_off", "time": 67, "note": 60, "velocity": 111, "channel": 0}, {"type": "note_on", "time": 13, "note": 58, "velocity": 102, "channel": 0}, {"type": "note_off", "time": 98, "note": 58, "velocity": 102, "channel": 0}, {"type": "note_on", "time": 16, "note": 62, "velocity": 101, "channel": 0}, {"type": "note_off", "time": 42, "note": 62, "velocity": 101, "channel": 0}, {"type": "note_on", "time": 27, "note": 65, "velocity": 106, "channel": 0}, {"type": "note_off", "time": 91, "note": 65, "velocity": 106, "channel": 0}, {"type": "note_on", "time": 7, "note": 69, "velocity": 118, "channel": 0}, {"type": "note_off", "time": 80, "note": 69, "velocity": 118, "channel": 0}, {"type": "note_on", "time": 100, "note": 67, "velocity": 119, "channel": 0}, {"type": "note_off", "time": 77, "note": 67, "velocity": 119, "channel": 0}, {"type": "note_on", "time": 7, "note": 65, "velocity": 98, "channel": 0}, {"type": "note_off", "time": 99, "note": 65, "velocity": 98, "channel": 0}, {"type": "note_on", "time": 17, "note": 64, "velocity": 105, "channel": 0}, {"type": "note_off", "time": 60, "note": 64, "velocity": 105, "channel": 0}, {"type": "note_on", "time": 23, "note": 60, "velocity": 93, "channel": 0}, {"type": "note_off", "time": 95, "note": 60, "velocity": 93, "channel": 0}, {"type": "note_on", "time": 589, "note": 61, "velocity": 106, "channel": 0}, {"type": "note_off", "time": 93, "note": 61, "velocity": 106, "channel": 0}, {"type": "note_on", "time": 5, "note": 62, "velocity": 95, "channel": 0}, {"type": "note_off", "time": 89, "note": 62, "velocity": 95, "channel": 0}, {"type": "note_on", "time": 9, "note": 65, "velocity": 109, "channel": 0}, {"type": "note_off", "time": 85, "note": 65, "velocity": 109, "channel": 0}, {"type": "note_on", "time": 20, "note": 62, "velocity": 83, "channel": 0}, {"type": "note_off", "time": 61, "note": 62, "velocity": 83, "channel": 0}, {"type": "note_on", "time": 18, "note": 61, "velocity": 103, "channel": 0}, {"type": "note_off", "time": 90, "note": 61, "velocity": 103, "channel": 0}, {"type": "note_on", "time": 8, "note": 62, "velocity": 100, "channel": 0}, {"type": "note_off", "time": 89, "note": 62, "velocity": 100, "channel": 0}, {"type": "note_on", "time": 9, "note": 67, "velocity": 108, "channel": 0}, {"type": "note_off", "time": 67, "note": 67, "velocity": 108, "channel": 0}, {"type": "note_on", "time": 500, "note": 61, "velocity": 105, "channel": 0}, {"type": "note_off", "time": 77, "note": 61, "velocity": 105, "channel": 0}, {"type": "note_on", "time": 7, "note": 62, "velocity": 106, "channel": 0}, {"type": "note_off", "time": 93, "note": 62, "velocity": 106, "channel": 0}, {"type": "note_on", "time": 12, "note": 69, "velocity": 118, "channel": 0}, {"type": "note_off", "time": 78, "note": 69, "velocity": 118, "channel": 0}, {"type": "note_on", "time": 23, "note": 62, "velocity": 105, "channel": 0}, {"type": "note_off", "time": 86, "note": 62, "velocity": 105, "channel": 0}, {"type": "note_on", "time": 10, "note": 61, "velocity": 88, "channel": 0}, {"type": "note_off", "time": 69, "note": 61, "velocity": 88, "channel": 0}, {"type": "note_on", "time": 11, "note": 62, "velocity": 107, "channel": 0}, {"type": "note_off", "time": 99, "note": 62, "velocity": 107, "channel": 0}, {"type": "note_on", "time": 16, "note": 70, "velocity": 116, "channel": 0}, {"type": "note_off", "time": 73, "note": 70, "velocity": 116, "channel": 0}, {"type": "note_on", "time": 499, "note": 61, "velocity": 109, "channel": 0}, {"type": "note_off", "time": 60, "note": 61, "velocity": 109, "channel": 0}, {"type": "note_on", "time": 4, "note": 62, "velocity": 108, "channel": 0}, {"type": "note_off", "time": 99, "note": 62, "velocity": 108, "channel": 0}, {"type": "note_on", "time": 14, "note": 72, "velocity": 122, "channel": 0}, {"type": "note_off", "time": 75, "note": 72, "velocity": 122, "channel": 0}, {"type": "note_on", "time": 3, "note": 70, "velocity": 124, "channel": 0}, {"type": "note_off", "time": 112, "note": 70, "velocity": 124, "channel": 0}, {"type": "note_on", "time": 6, "note": 68, "velocity": 96, "channel": 0}, {"type": "note_off", "time": 49, "note": 68, "velocity": 96, "channel": 0}, {"type": "note_on", "time": 14, "note": 69, "velocity": 125, "channel": 0}, {"type": "note_off", "time": 114, "note": 69, "velocity": 125, "channel": 0}, {"type": "note_on", "time": 11, "note": 63, "velocity": 103, "channel": 0}, {"type": "note_off", "time": 78, "note": 63, "velocity": 103, "channel": 0}, {"type": "note_on", "time": 6, "note": 67, "velocity": 99, "channel": 0}, {"type": "note_off", "time": 25, "note": 67, "velocity": 99, "channel": 0}, {"type": "note_on", "time": 8, "note": 70, "velocity": 94, "channel": 0}, {"type": "note_off", "time": 27, "note": 70, "velocity": 94, "channel": 0}, {"type": "note_on", "time": 6, "note": 67, "velocity": 98, "channel": 0}, {"type": "note_off", "time": 43, "note": 67, "velocity": 98, "channel": 0}, {"type": "note_on", "time": 5, "note": 65, "velocity": 97, "channel": 0}, {"type": "note_off", "time": 55, "note": 65, "velocity": 97, "channel": 0}, {"type": "note_on", "time": 13, "note": 63, "velocity": 110, "channel": 0}, {"type": "note_off", "time": 97, "note": 63, "velocity": 110, "channel": 0}, {"type": "note_on", "time": 19, "note": 60, "velocity": 105, "channel": 0}, {"type": "note_off", "time": 67, "note": 60, "velocity": 105, "channel": 0}, {"type": "note_on", "time": 13, "note": 55, "velocity": 99, "channel": 0}, {"type": "note_off", "time": 80, "note": 55, "velocity": 99, "channel": 0}, {"type": "note_on", "time": 7, "note": 56, "velocity": 104, "channel": 0}, {"type": "note_off", "time": 75, "note": 56, "velocity": 104, "channel": 0}, {"type": "note_on", "time": 13, "note": 57, "velocity": 103, "channel": 0}, {"type": "note_off", "time": 111, "note": 57, "velocity": 103, "channel": 0}, {"type": "note_on", "time": 12, "note": 53, "velocity": 106, "channel": 0}, {"type": "note_off", "time": 66, "note": 53, "velocity": 106, "channel": 0}, {"type": "note_on", "time": 12, "note": 51, "velocity": 90, "channel": 0}, {"type": "note_off", "time": 105, "note": 51, "velocity": 90, "channel": 0}, {"type": "note_on", "time": 15, "note": 53, "velocity": 105, "channel": 0}, {"type": "note_off", "time": 61, "note": 53, "velocity": 105, "channel": 0}, {"type": "note_on", "time": 18, "note": 50, "velocity": 107, "channel": 0}, {"type": "note_off", "time": 118, "note": 50, "velocity": 107, "channel": 0}, {"type": "note_on", "time": 75, "note": 53, "velocity": 103, "channel": 0}, {"type": "note_off", "time": 93, "note": 53, "velocity": 103, "channel": 0}, {"type": "note_on", "time": 18, "note": 57, "velocity": 99, "channel": 0}, {"type": "note_off", "time": 60, "note": 57, "velocity": 99, "channel": 0}, {"type": "note_on", "time": 17, "note": 60, "velocity": 106, "channel": 0}, {"type": "note_off", "time": 88, "note": 60, "velocity": 106, "channel": 0}, {"type": "note_on", "time": 19, "note": 57, "velocity": 89, "channel": 0}, {"type": "note_off", "time": 68, "note": 57, "velocity": 89, "channel": 0}, {"type": "note_on", "time": 14, "note": 58, "velocity": 103, "channel": 0}, {"type": "note_off", "time": 99, "note": 58, "velocity": 103, "channel": 0}, {"type": "note_on", "time": 14, "note": 65, "velocity": 105, "channel": 0}, {"type": "note_off", "time": 76, "note": 65, "velocity": 105, "channel": 0}, {"type": "note_on", "time": 16, "note": 61, "velocity": 87, "channel": 0}, {"type": "note_off", "time": 63, "note": 61, "velocity": 87, "channel": 0}, {"type": "note_on", "time": 16, "note": 58, "velocity": 102, "channel": 0}, {"type": "note_off", "time": 79, "note": 58, "velocity": 102, "channel": 0}, {"type": "note_on", "time": 12, "note": 55, "velocity": 96, "channel": 0}, {"type": "note_off", "time": 97, "note": 55, "velocity": 96, "channel": 0}, {"type": "note_on", "time": 11, "note": 53, "velocity": 99, "channel": 0}, {"type": "note_off", "time": 62, "note": 53, "velocity": 99, "channel": 0}, {"type": "note_on", "time": 13, "note": 60, "velocity": 100, "channel": 0}, {"type": "note_off", "time": 119, "note": 60, "velocity": 100, "channel": 0}, {"type": "note_on", "time": 10, "note": 59, "velocity": 105, "channel": 0}, {"type": "note_off", "time": 74, "note": 59, "velocity": 105, "channel": 0}, {"type": "note_on", "time": 18, "note": 58, "velocity": 105, "channel": 0}, {"type": "note_off", "time": 71, "note": 58, "velocity": 105, "channel": 0}, {"type": "note_on", "time": 15, "note": 56, "velocity": 100, "channel": 0}, {"type": "note_off", "time": 92, "note": 56, "velocity": 100, "channel": 0}, {"type": "note_on", "time": 12, "note": 57, "velocity": 96, "channel": 0}, {"type": "note_off", "time": 63, "note": 57, "velocity": 96, "channel": 0}, {"type": "note_on", "time": 4, "note": 60, "velocity": 91, "channel": 0}, {"type": "note_off", "time": 36, "note": 60, "velocity": 91, "channel": 0}, {"type": "note_on", "time": 7, "note": 64, "velocity": 94, "channel": 0}, {"type": "note_off", "time": 42, "note": 64, "velocity": 94, "channel": 0}, {"type": "note_on", "time": 9, "note": 67, "velocity": 113, "channel": 0}, {"type": "note_off", "time": 97, "note": 67, "velocity": 113, "channel": 0}, {"type": "note_on", "time": 17, "note": 65, "velocity": 84, "channel": 0}, {"type": "note_off", "time": 70, "note": 65, "velocity": 84, "channel": 0}, {"type": "note_on", "time": 26, "note": 62, "velocity": 96, "channel": 0}, {"type": "note_off", "time": 104, "note": 62, "velocity": 96, "channel": 0}, {"type": "note_on", "time": 386, "note": 61, "velocity": 101, "channel": 0}, {"type": "note_off", "time": 78, "note": 61, "velocity": 101, "channel": 0}, {"type": "note_on", "time": 5, "note": 62, "velocity": 88, "channel": 0}, {"type": "note_off", "time": 38, "note": 62, "velocity": 88, "channel": 0}, {"type": "note_on", "time": 16, "note": 65, "velocity": 89, "channel": 0}, {"type": "note_off", "time": 44, "note": 65, "velocity": 89, "channel": 0}, {"type": "note_on", "time": 7, "note": 69, "velocity": 100, "channel": 0}, {"type": "note_off", "time": 54, "note": 69, "velocity": 100, "channel": 0}, {"type": "note_on", "time": 8, "note": 72, "velocity": 124, "channel": 0}, {"type": "note_off", "time": 98, "note": 72, "velocity": 124, "channel": 0}, {"type": "note_on", "time": 15, "note": 70, "velocity": 122, "channel": 0}, {"type": "note_off", "time": 87, "note": 70, "velocity": 122, "channel": 0}, {"type": "note_on", "time": 8, "note": 67, "velocity": 94, "channel": 0}, {"type": "note_off", "time": 96, "note": 67, "velocity": 94, "channel": 0}, {"type": "note_on", "time": 7, "note": 68, "velocity": 120, "channel": 0}, {"type": "note_off", "time": 76, "note": 68, "velocity": 120, "channel": 0}, {"type": "note_on", "time": 9, "note": 69, "velocity": 123, "channel": 0}, {"type": "note_off", "time": 93, "note": 69, "velocity": 123, "channel": 0}, {"type": "note_on", "time": 10, "note": 65, "velocity": 108, "channel": 0}, {"type": "note_off", "time": 77, "note": 65, "velocity": 108, "channel": 0}, {"type": "note_on", "time": 7, "note": 62, "velocity": 81, "channel": 0}, {"type": "note_off", "time": 87, "note": 62, "velocity": 81, "channel": 0}, {"type": "note_on", "time": 19, "note": 61, "velocity": 107, "channel": 0}, {"type": "note_off", "time": 67, "note": 61, "velocity": 107, "channel": 0}, {"type": "note_on", "time": 12, "note": 60, "velocity": 108, "channel": 0}, {"type": "note_off", "time": 106, "note": 60, "velocity": 108, "channel": 0}, {"type": "note_on", "time": 18, "note": 58, "velocity": 106, "channel": 0}, {"type": "note_off", "time": 168, "note": 58, "velocity": 106, "channel": 0}, {"type": "note_on", "time": 20, "note": 60, "velocity": 100, "channel": 0}, {"type": "note_off", "time": 57, "note": 60, "velocity": 100, "channel": 0}, {"type": "note_on", "time": 139, "note": 58, "velocity": 107, "channel": 0}, {"type": "note_off", "time": 79, "note": 58, "velocity": 107, "channel": 0}, {"type": "note_on", "time": 11, "note": 60, "velocity": 106, "channel": 0}, {"type": "note_off", "time": 81, "note": 60, "velocity": 106, "channel": 0}, {"type": "note_on", "time": 20, "note": 57, "velocity": 94, "channel": 0}, {"type": "note_off", "time": 66, "note": 57, "velocity": 94, "channel": 0}, {"type": "note_on", "time": 9, "note": 58, "velocity": 106, "channel": 0}, {"type": "note_off", "time": 111, "note": 58, "velocity": 106, "channel": 0}, {"type": "note_on", "time": 4, "note": 60, "velocity": 105, "channel": 0}, {"type": "note_off", "time": 61, "note": 60, "velocity": 105, "channel": 0}, {"type": "note_on", "time": 6, "note": 57, "velocity": 94, "channel": 0}, {"type": "note_off", "time": 85, "note": 57, "velocity": 94, "channel": 0}, {"type": "note_on", "time": 14, "note": 58, "velocity": 107, "channel": 0}, {"type": "note_off", "time": 86, "note": 58, "velocity": 107, "channel": 0}, {"type": "note_on", "time": 8, "note": 60, "velocity": 100, "channel": 0}, {"type": "note_off", "time": 153, "note": 60, "velocity": 100, "channel": 0}, {"type": "end_of_track", "time": 0}]]}