{"ticks_per_beat": 2520, "tracks": [[{"type": "track_name", "name": "Melody", "time": 0}, {"type": "set_tempo", "tempo": 652173, "time": 0}, {"type": "key_signature", "key": "G", "time": 0}, {"type": "time_signature", "numerator": 4, "denominator": 4, "clocks_per_click": 24, "notated_32nd_notes_per_beat": 8, "time": 0}, {"type": "note_on", "time": 14265, "note": 62, "velocity": 102, "channel": 0}, {"type": "note_off", "time": 414, "note": 62, "velocity": 102, "channel": 0}, {"type": "note_on", "time": 257, "note": 67, "velocity": 110, "channel": 0}, {"type": "note_off", "time": 381, "note": 67, "velocity": 110, "channel": 0}, {"type": "note_on", "time": 179, "note": 71, "velocity": 110, "channel": 0}, {"type": "note_off", "time": 571, "note": 71, "velocity": 110, "channel": 0}, {"type": "note_on", "time": 67, "note": 72, "velocity": 111, "channel": 0}, {"type": "note_off", "time": 403, "note": 72, "velocity": 111, "channel": 0}, {"type": "note_on", "time": 257, "note": 68, "velocity": 118, "channel": 0}, {"type": "note_off", "time": 650, "note": 68, "velocity": 118, "channel": 0}, {"type": "note_on", "time": 33, "note": 71, "velocity": 110, "channel": 0}, {"type": "note_off", "time": 403, "note": 71, "velocity": 110, "channel": 0}, {"type": "note_on", "time": 123, "note": 69, "velocity": 118, "channel": 0}, {"type": "note_off", "time": 571, "note": 69, "velocity": 118, "channel": 0}, {"type": "note_on", "time": 179, "note": 64, "velocity": 107, "channel": 0}, {"type": "note_off", "time": 583, "note": 64, "velocity": 107, "channel": 0}, {"type": "note_on", "time": 144, "note": 68, "velocity": 105, "channel": 0}, {"type": "note_off", "time": 157, "note": 68, "velocity": 105, "channel": 0}, {"type": "note_on", "time": 0, "note": 69, "velocity": 106, "channel": 0}, {"type": "note_off", "time": 201, "note": 69, "velocity": 106, "channel": 0}, {"type": "note_on", "time": 89, "note": 67, "velocity": 112, "channel": 0}, {"type": "note_off", "time": 257, "note": 67, "velocity": 112, "channel": 0}, {"type": "note_on", "time": 89, "note": 66, "velocity": 111, "channel": 0}, {"type": "note_off", "time": 381, "note": 66, "velocity": 111, "channel": 0}, {"type": "note_on", "time": 179, "note": 64, "velocity": 108, "channel": 0}, {"type": "note_off", "time": 459, "note": 64, "velocity": 108, "channel": 0}, {"type": "note_on", "time": 246, "note": 60, "velocity": 108, "channel": 0}, {"type": "note_off", "time": 347, "note": 60, "velocity": 108, "channel": 0}, {"type": "note_on", "time": 198, "note": 57, "velocity": 105, "channel": 0}, {"type": "note_off", "time": 465, "note": 57, "velocity": 105, "channel": 0}, {"type": "note_on", "time": 599, "note": 62, "velocity": 100, "channel": 0}, {"type": "note_off", "time": 1703, "note": 62, "velocity": 100, "channel": 0}, {"type": "note_on", "time": 2192, "note": 59, "velocity": 102, "channel": 0}, {"type": "note_off", "time": 780, "note": 59, "velocity": 102, "channel": 0}, {"type": "note_on", "time": 23, "note": 62, "velocity": 113, "channel": 0}, {"type": "note_off", "time": 1640, "note": 62, "velocity": 113, "channel": 0}, {"type": "note_on", "time": 78, "note": 59, "velocity": 106, "channel": 0}, {"type": "note_off", "time": 449, "note": 59, "velocity": 106, "channel": 0}, {"type": "note_on", "time": 173, "note": 62, "velocity": 108, "channel": 0}, {"type": "note_off", "time": 559, "note": 62, "velocity": 108, "channel": 0}, {"type": "note_on", "time": 260, "note": 60, "velocity": 105, "channel": 0}, {"type": "note_off", "time": 630, "note": 60, "velocity": 105, "channel": 0}, {"type": "note_on", "time": 157, "note": 57, "velocity": 105, "channel": 0}, {"type": "note_off", "time": 662, "note": 57, "velocity": 105, "channel": 0}, {"type": "note_on", "time": 3469, "note": 59, "velocity": 104, "channel": 0}, {"type": "note_off", "time": 441, "note": 59, "velocity": 104, "channel": 0}, {"type": "note_on", "time": 149, "note": 56, "velocity": 109, "channel": 0}, {"type": "note_off", "time": 622, "note": 56, "velocity": 109, "channel": 0}, {"type": "note_on", "time": 4408, "note": 60, "velocity": 115, "channel": 0}, {"type": "note_off", "time": 441, "note": 60, "velocity": 115, "channel": 0}, {"type": "note_on", "time": 134, "note": 64, "velocity": 113, "channel": 0}, {"type": "note_off", "time": 504, "note": 64, "velocity": 113, "channel": 0}, {"type": "note_on", "time": 149, "note": 67, "velocity": 125, "channel": 0}, {"type": "note_off", "time": 473, "note": 67, "velocity": 125, "channel": 0}, {"type": "note_on", "time": 110, "note": 71, "velocity": 116, "channel": 0}, {"type": "note_off", "time": 638, "note": 71, "velocity": 116, "channel": 0}, {"type": "note_on", "time": 39, "note": 72, "velocity": 118, "channel": 0}, {"type": "note_off", "time": 449, "note": 72, "velocity": 118, "channel": 0}, {"type": "note_on", "time": 134, "note": 69, "velocity": 117, "channel": 0}, {"type": "note_off", "time": 599, "note": 69, "velocity": 117, "channel": 0}, {"type": "note_on", "time": 134, "note": 70, "velocity": 111, "channel": 0}, {"type": "note_off", "time": 441, "note": 70, "velocity": 111, "channel": 0}, {"type": "note_on", "time": 102, "note": 71, "velocity": 109, "channel": 0}, {"type": "note_off", "time": 544, "note": 71, "velocity": 109, "channel": 0}, {"type": "note_on", "time": 212, "note": 66, "velocity": 117, "channel": 0}, {"type": "note_off", "time": 504, "note": 66, "velocity": 117, "channel": 0}, {"type": "note_on", "time": 157, "note": 63, "velocity": 106, "channel": 0}, {"type": "note_off", "time": 481, "note": 63, "velocity": 106, "channel": 0}, {"type": "note_on", "time": 126, "note": 59, "velocity": 102, "channel": 0}, {"type": "note_off", "time": 410, "note": 59, "velocity": 102, "channel": 0}, {"type": "note_on", "time": 236, "note": 64, "velocity": 98, "channel": 0}, {"type": "note_off", "time": 1316, "note": 64, "velocity": 98, "channel": 0}, {"type": "note_on", "time": 3177, "note": 59, "velocity": 116, "channel": 0}, {"type": "note_off", "time": 410, "note": 59, "velocity": 116, "channel": 0}, {"type": "note_on", "time": 94, "note": 62, "velocity": 111, "channel": 0}, {"type": "note_off", "time": 654, "note": 62, "velocity": 111, "channel": 0}, {"type": "note_on", "time": 94, "note": 65, "velocity": 127, "channel": 0}, {"type": "note_off", "time": 544, "note": 65, "velocity": 127, "channel": 0}, {"type": "note_on", "time": 157, "note": 64, "velocity": 112, "channel": 0}, {"type": "note_off", "time": 504, "note": 64, "velocity": 112, "channel": 0}, {"type": "note_on", "time": 197, "note": 67, "velocity": 126, "channel": 0}, {"type": "note_off", "time": 386, "note": 67, "velocity": 126, "channel": 0}, {"type": "note_on", "time": 173, "note": 71, "velocity": 120, "channel": 0}, {"type": "note_off", "time": 559, "note": 71, "velocity": 120, "channel": 0}, {"type": "note_on", "time": 55, "note": 74, "velocity": 114, "channel": 0}, {"type": "note_off", "time": 544, "note": 74, "velocity": 114, "channel": 0}, {"type": "note_on", "time": 118, "note": 79, "velocity": 98, "channel": 0}, {"type": "note_off", "time": 496, "note": 79, "velocity": 98, "channel": 0}, {"type": "note_on", "time": 220, "note": 76, "velocity": 106, "channel": 0}, {"type": "note_off", "time": 749, "note": 76, "velocity": 106, "channel": 0}, {"type": "note_on", "time": 2042, "note": 72, "velocity": 104, "channel": 0}, {"type": "note_off", "time": 283, "note": 72, "velocity": 104, "channel": 0}, {"type": "note_on", "time": 78, "note": 74, "velocity": 102, "channel": 0}, {"type": "note_off", "time": 260, "note": 74, "velocity": 102, "channel": 0}, {"type": "note_on", "time": 94, "note": 72, "velocity": 107, "channel": 0}, {"type": "note_off", "time": 346, "note": 72, "velocity": 107, "channel": 0}, {"type": "note_on", "time": 157, "note": 69, "velocity": 114, "channel": 0}, {"type": "note_off", "time": 764, "note": 69, "velocity": 114, "channel": 0}, {"type": "note_on", "time": 94, "note": 70, "velocity": 107, "channel": 0}, {"type": "note_off", "time": 315, "note": 70, "velocity": 107, "channel": 0}, {"type": "note_on", "time": 63, "note": 71, "velocity": 104, "channel": 0}, {"type": "note_off", "time": 788, "note": 71, "velocity": 104, "channel": 0}, {"type": "note_on", "time": 2870, "note": 71, "velocity": 108, "channel": 0}, {"type": "note_off", "time": 362, "note": 71, "velocity": 108, "channel": 0}, {"type": "note_on", "time": 622, "note": 72, "velocity": 117, "channel": 0}, {"type": "note_off", "time": 425, "note": 72, "velocity": 117, "channel": 0}, {"type": "note_on", "time": 189, "note": 68, "velocity": 121, "channel": 0}, {"type": "note_off", "time": 473, "note": 68, "velocity": 121, "channel": 0}, {"type": "note_on", "time": 252, "note": 71, "velocity": 112, "channel": 0}, {"type": "note_off", "time": 457, "note": 71, "velocity": 112, "channel": 0}, {"type": "note_on", "time": 662, "note": 68, "velocity": 119, "channel": 0}, {"type": "note_off", "time": 520, "note": 68, "velocity": 119, "channel": 0}, {"type": "note_on", "time": 236, "note": 62, "velocity": 97, "channel": 0}, {"type": "note_off", "time": 536, "note": 62, "velocity": 97, "channel": 0}, {"type": "note_on", "time": 70, "note": 64, "velocity": 104, "channel": 0}, {"type": "note_off", "time": 354, "note": 64, "velocity": 104, "channel": 0}, {"type": "note_on", "time": 197, "note": 59, "velocity": 103, "channel": 0}, {"type": "note_off", "time": 575, "note": 59, "velocity": 103, "channel": 0}, {"type": "note_on", "time": 323, "note": 62, "velocity": 103, "channel": 0}, {"type": "note_off", "time": 228, "note": 62, "velocity": 103, "channel": 0}, {"type": "note_on", "time": 205, "note": 61, "velocity": 100, "channel": 0}, {"type": "note_off", "time": 536, "note": 61, "velocity": 100, "channel": 0}, {"type": "note_on", "time": 165, "note": 64, "velocity": 98, "channel": 0}, {"type": "note_off", "time": 307, "note": 64, "velocity": 98, "channel": 0}, {"type": "note_on", "time": 244, "note": 67, "velocity": 107, "channel": 0}, {"type": "note_off", "time": 473, "note": 67, "velocity": 107, "channel": 0}, {"type": "note_on", "time": 220, "note": 69, "velocity": 112, "channel": 0}, {"type": "note_off", "time": 425, "note": 69, "velocity": 112, "channel": 0}, {"type": "note_on", "time": 149, "note": 71, "velocity": 109, "channel": 0}, {"type": "note_off", "time": 473, "note": 71, "velocity": 109, "channel": 0}, {"type": "note_on", "time": 94, "note": 73, "velocity": 112, "channel": 0}, {"type": "note_off", "time": 544, "note": 73, "velocity": 112, "channel": 0}, {"type": "note_on", "time": 149, "note": 69, "velocity": 111, "channel": 0}, {"type": "note_off", "time": 670, "note": 69, "velocity": 111, "channel": 0}, {"type": "note_on", "time": 63, "note": 70, "velocity": 108, "channel": 0}, {"type": "note_off", "time": 268, "note": 70, "velocity": 108, "channel": 0}, {"type": "note_on", "time": 110, "note": 71, "velocity": 106, "channel": 0}, {"type": "note_off", "time": 693, "note": 71, "velocity": 106, "channel": 0}, {"type": "note_on", "time": 78, "note": 72, "velocity": 106, "channel": 0}, {"type": "note_off", "time": 488, "note": 72, "velocity": 106, "channel": 0}, {"type": "note_on", "time": 205, "note": 67, "velocity": 105, "channel": 0}, {"type": "note_off", "time": 544, "note": 67, "velocity": 105, "channel": 0}, {"type": "note_on", "time": 63, "note": 66, "velocity": 110, "channel": 0}, {"type": "note_off", "time": 402, "note": 66, "velocity": 110, "channel": 0}, {"type": "note_on", "time": 47, "note": 64, "velocity": 100, "channel": 0}, {"type": "note_off", "time": 772, "note": 64, "velocity": 100, "channel": 0}, {"type": "note_on", "time": 78, "note": 60, "velocity": 102, "channel": 0}, {"type": "note_off", "time": 402, "note": 60, "velocity": 102, "channel": 0}, {"type": "note_on", "time": 47, "note": 58, "velocity": 105, "channel": 0}, {"type": "note_off", "time": 552, "note": 58, "velocity": 105, "channel": 0}, {"type": "note_on", "time": 228, "note": 56, "velocity": 109, "channel": 0}, {"type": "note_off", "time": 394, "note": 56, "velocity": 109, "channel": 0}, {"type": "note_on", "time": 126, "note": 57, "velocity": 95, "channel": 0}, {"type": "note_off", "time": 622, "note": 57, "velocity": 95, "channel": 0}, {"type": "note_on", "time": 39, "note": 60, "velocity": 97, "channel": 0}, {"type": "note_off", "time": 599, "note": 60, "velocity": 97, "channel": 0}, {"type": "note_on", "time": 55, "note": 55, "velocity": 101, "channel": 0}, {"type": "note_off", "time": 544, "note": 55, "velocity": 101, "channel": 0}, {"type": "note_on", "time": 141, "note": 53, "velocity": 106, "channel": 0}, {"type": "note_off", "time": 299, "note": 53, "velocity": 106, "channel": 0}, {"type": "note_on", "time": 94, "note": 54, "velocity": 100, "channel": 0}, {"type": "note_off", "time": 969, "note": 54, "velocity": 100, "channel": 0}, {"type": "note_on", "time": 23, "note": 62, "velocity": 94, "channel": 0}, {"type": "note_off", "time": 615, "note": 62, "velocity": 94, "channel": 0}, {"type": "note_on", "time": 47, "note": 60, "velocity": 91, "channel": 0}, {"type": "note_off", "time": 567, "note": 60, "velocity": 91, "channel": 0}, {"type": "note_on", "time": 291, "note": 59, "velocity": 92, "channel": 0}, {"type": "note_off", "time": 1206, "note": 59, "velocity": 92, "channel": 0}, {"type": "note_on", "time": 5244, "note": 64, "velocity": 108, "channel": 0}, {"type": "note_off", "time": 496, "note": 64, "velocity": 108, "channel": 0}, {"type": "note_on", "time": 141, "note": 68, "velocity": 125, "channel": 0}, {"type": "note_off", "time": 457, "note": 68, "velocity": 125, "channel": 0}, {"type": "note_on", "time": 110, "note": 71, "velocity": 116, "channel": 0}, {"type": "note_off", "time": 473, "note": 71, "velocity": 116, "channel": 0}, {"type": "note_on", "time": 189, "note": 74, "velocity": 116, "channel": 0}, {"type": "note_off", "time": 465, "note": 74, "velocity": 116, "channel": 0}, {"type": "note_on", "time": 197, "note": 76, "velocity": 117, "channel": 0}, {"type": "note_off", "time": 189, "note": 76, "velocity": 117, "channel": 0}, {"type": "note_on", "time": 55, "note": 77, "velocity": 117, "channel": 0}, {"type": "note_off", "time": 307, "note": 77, "velocity": 117, "channel": 0}, {"type": "note_on", "time": 94, "note": 76, "velocity": 115, "channel": 0}, {"type": "note_off", "time": 394, "note": 76, "velocity": 115, "channel": 0}, {"type": "note_on", "time": 228, "note": 72, "velocity": 119, "channel": 0}, {"type": "note_off", "time": 504, "note": 72, "velocity": 119, "channel": 0}, {"type": "note_on", "time": 157, "note": 67, "velocity": 121, "channel": 0}, {"type": "note_off", "time": 441, "note": 67, "velocity": 121, "channel": 0}, {"type": "note_on", "time": 110, "note": 64, "velocity": 103, "channel": 0}, {"type": "note_off", "time": 449, "note": 64, "velocity": 103, "channel": 0}, {"type": "note_on", "time": 31, "note": 60, "velocity": 96, "channel": 0}, {"type": "note_off", "time": 599, "note": 60, "velocity": 96, "channel": 0}, {"type": "note_on", "time": 197, "note": 57, "velocity": 115, "channel": 0}, {"type": "note_off", "time": 599, "note": 57, "velocity": 115, "channel": 0}, {"type": "note_on", "time": 118, "note": 56, "velocity": 112, "channel": 0}, {"type": "note_off", "time": 417, "note": 56, "velocity": 112, "channel": 0}, {"type": "note_on", "time": 134, "note": 55, "velocity": 107, "channel": 0}, {"type": "note_off", "time": 638, "note": 55, "velocity": 107, "channel": 0}, {"type": "note_on", "time": 102, "note": 53, "velocity": 111, "channel": 0}, {"type": "note_off", "time": 339, "note": 53, "velocity": 111, "channel": 0}, {"type": "note_on", "time": 63, "note": 54, "velocity": 103, "channel": 0}, {"type": "note_off", "time": 662, "note": 54, "velocity": 103, "channel": 0}, {"type": "note_on", "time": 173, "note": 59, "velocity": 104, "channel": 0}, {"type": "note_off", "time": 449, "note": 59, "velocity": 104, "channel": 0}, {"type": "note_on", "time": 173, "note": 56, "velocity": 107, "channel": 0}, {"type": "note_off", "time": 496, "note": 56, "velocity": 107, "channel": 0}, {"type": "note_on", "time": 149, "note": 57, "velocity": 107, "channel": 0}, {"type": "note_off", "time": 496, "note": 57, "velocity": 107, "channel": 0}, {"type": "note_on", "time": 149, "note": 59, "velocity": 104, "channel": 0}, {"type": "note_off", "time": 417, "note": 59, "velocity": 104, "channel": 0}, {"type": "note_on", "time": 149, "note": 60, "velocity": 106, "channel": 0}, {"type": "note_off", "time": 583, "note": 60, "velocity": 106, "channel": 0}, {"type": "note_on", "time": 134, "note": 64, "velocity": 100, "channel": 0}, {"type": "note_off", "time": 528, "note": 64, "velocity": 100, "channel": 0}, {"type": "note_on", "time": 118, "note": 65, "velocity": 118, "channel": 0}, {"type": "note_off", "time": 417, "note": 65, "velocity": 118, "channel": 0}, {"type": "note_on", "time": 63, "note": 66, "velocity": 113, "channel": 0}, {"type": "note_off", "time": 583, "note": 66, "velocity": 113, "channel": 0}, {"type": "note_on", "time": 212, "note": 71, "velocity": 108, "channel": 0}, {"type": "note_off", "time": 402, "note": 71, "velocity": 108, "channel": 0}, {"type": "note_on", "time": 141, "note": 69, "velocity": 112, "channel": 0}, {"type": "note_off", "time": 544, "note": 69, "velocity": 112, "channel": 0}, {"type": "note_on", "time": 149, "note": 62, "velocity": 99, "channel": 0}, {"type": "note_off", "time": 646, "note": 62, "velocity": 99, "channel": 0}, {"type": "note_on", "time": 78, "note": 59, "velocity": 104, "channel": 0}, {"type": "note_off", "time": 599, "note": 59, "velocity": 104, "channel": 0}, {"type": "note_on", "time": 181, "note": 58, "velocity": 107, "channel": 0}, {"type": "note_off", "time": 552, "note": 58, "velocity": 107, "channel": 0}, {"type": "note_on", "time": 157, "note": 57, "velocity": 103, "channel": 0}, {"type": "note_off", "time": 615, "note": 57, "velocity": 103, "channel": 0}, {"type": "note_on", "time": 165, "note": 55, "velocity": 106, "channel": 0}, {"type": "note_off", "time": 859, "note": 55, "velocity": 106, "channel": 0}, {"type": "note_on", "time": 31, "note": 56, "velocity": 109, "channel": 0}, {"type": "note_off", "time": 725, "note": 56, "velocity": 109, "channel": 0}, {"type": "note_on", "time": 559, "note": 62, "velocity": 102, "channel": 0}, {"type": "note_off", "time": 583, "note": 62, "velocity": 102, "channel": 0}, {"type": "note_on", "time": 23, "note": 64, "velocity": 95, "channel": 0}, {"type": "note_off", "time": 1955, "note": 64, "velocity": 95, "channel": 0}, {"type": "note_on", "time": 4195, "note": 60, "velocity": 103, "channel": 0}, {"type": "note_off", "time": 134, "note": 60, "velocity": 103, "channel": 0}, {"type": "note_on", "time": 86, "note": 61, "velocity": 89, "channel": 0}, {"type": "note_off", "time": 149, "note": 61, "velocity": 89, "channel": 0}, {"type": "note_on", "time": 70, "note": 60, "velocity": 96, "channel": 0}, {"type": "note_off", "time": 197, "note": 60, "velocity": 96, "channel": 0}, {"type": "note_on", "time": 118, "note": 57, "velocity": 99, "channel": 0}, {"type": "note_off", "time": 465, "note": 57, "velocity": 99, "channel": 0}, {"type": "note_on", "time": 134, "note": 59, "velocity": 99, "channel": 0}, {"type": "note_off", "time": 607, "note": 59, "velocity": 99, "channel": 0}, {"type": "note_on", "time": 228, "note": 62, "velocity": 97, "channel": 0}, {"type": "note_off", "time": 394, "note": 62, "velocity": 97, "channel": 0}, {"type": "note_on", "time": 875, "note": 58, "velocity": 111, "channel": 0}, {"type": "note_off", "time": 181, "note": 58, "velocity": 111, "channel": 0}, {"type": "note_on", "time": 47, "note": 59, "velocity": 100, "channel": 0}, {"type": "note_off", "time": 528, "note": 59, "velocity": 100, "channel": 0}, {"type": "note_on", "time": 867, "note": 57, "velocity": 103, "channel": 0}, {"type": "note_off", "time": 654, "note": 57, "velocity": 103, "channel": 0}, {"type": "note_on", "time": 283, "note": 54, "velocity": 106, "channel": 0}, {"type": "note_off", "time": 567, "note": 54, "velocity": 106, "channel": 0}, {"type": "note_on", "time": 63, "note": 55, "velocity": 106, "channel": 0}, {"type": "note_off", "time": 843, "note": 55, "velocity": 106, "channel": 0}, {"type": "note_on", "time": 528, "note": 59, "velocity": 101, "channel": 0}, {"type": "note_off", "time": 457, "note": 59, "velocity": 101, "channel": 0}, {"type": "note_on", "time": 449, "note": 55, "velocity": 103, "channel": 0}, {"type": "note_off", "time": 1143, "note": 55, "velocity": 103, "channel": 0}, {"type": "note_on", "time": 3974, "note": 67, "velocity": 117, "channel": 0}, {"type": "note_off", "time": 465, "note": 67, "velocity": 117, "channel": 0}, {"type": "note_on", "time": 283, "note": 64, "velocity": 102, "channel": 0}, {"type": "note_off", "time": 386, "note": 64, "velocity": 102, "channel": 0}, {"type": "note_on", "time": 70, "note": 65, "velocity": 107, "channel": 0}, {"type": "note_off", "time": 496, "note": 65, "velocity": 107, "channel": 0}, {"type": "note_on", "time": 212, "note": 69, "velocity": 115, "channel": 0}, {"type": "note_off", "time": 575, "note": 69, "velocity": 115, "channel": 0}, {"type": "note_on", "time": 149, "note": 64, "velocity": 100, "channel": 0}, {"type": "note_off", "time": 504, "note": 64, "velocity": 100, "channel": 0}, {"type": "note_on", "time": 2980, "note": 62, "velocity": 98, "channel": 0}, {"type": "note_off", "time": 220, "note": 62, "velocity": 98, "channel": 0}, {"type": "note_on", "time": 15, "note": 64, "velocity": 101, "channel": 0}, {"type": "note_off", "time": 465, "note": 64, "velocity": 101, "channel": 0}, {"type": "note_on", "time": 118, "note": 66, "velocity": 114, "channel": 0}, {"type": "note_off", "time": 552, "note": 66, "velocity": 114, "channel": 0}, {"type": "note_on", "time": 63, "note": 67, "velocity": 112, "channel": 0}, {"type": "note_off", "time": 686, "note": 67, "velocity": 112, "channel": 0}, {"type": "note_on", "time": 339, "note": 69, "velocity": 113, "channel": 0}, {"type": "note_off", "time": 693, "note": 69, "velocity": 113, "channel": 0}, {"type": "note_on", "time": 559, "note": 71, "velocity": 102, "channel": 0}, {"type": "note_off", "time": 512, "note": 71, "velocity": 102, "channel": 0}, {"type": "note_on", "time": 536, "note": 67, "velocity": 109, "channel": 0}, {"type": "note_off", "time": 575, "note": 67, "velocity": 109, "channel": 0}, {"type": "note_on", "time": 86, "note": 66, "velocity": 103, "channel": 0}, {"type": "note_off", "time": 622, "note": 66, "velocity": 103, "channel": 0}, {"type": "note_on", "time": 449, "note": 64, "velocity": 97, "channel": 0}, {"type": "note_off", "time": 828, "note": 64, "velocity": 97, "channel": 0}, {"type": "note_on", "time": 197, "note": 66, "velocity": 105, "channel": 0}, {"type": "note_off", "time": 394, "note": 66, "velocity": 105, "channel": 0}, {"type": "note_on", "time": 118, "note": 62, "velocity": 112, "channel": 0}, {"type": "note_off", "time": 496, "note": 62, "velocity": 112, "channel": 0}, {"type": "note_on", "time": 31, "note": 64, "velocity": 97, "channel": 0}, {"type": "note_off", "time": 410, "note": 64, "velocity": 97, "channel": 0}, {"type": "note_on", "time": 220, "note": 59, "velocity": 100, "channel": 0}, {"type": "note_off", "time": 583, "note": 59, "velocity": 100, "channel": 0}, {"type": "note_on", "time": 3004, "note": 61, "velocity": 91, "channel": 0}, {"type": "note_off", "time": 457, "note": 61, "velocity": 91, "channel": 0}, {"type": "note_on", "time": 410, "note": 64, "velocity": 101, "channel": 0}, {"type": "note_off", "time": 220, "note": 64, "velocity": 101, "channel": 0}, {"type": "note_on", "time": 189, "note": 67, "velocity": 101, "channel": 0}, {"type": "note_off", "time": 559, "note": 67, "velocity": 101, "channel": 0}, {"type": "note_on", "time": 275, "note": 71, "velocity": 104, "channel": 0}, {"type": "note_off", "time": 512, "note": 71, "velocity": 104, "channel": 0}, {"type": "note_on", "time": 94, "note": 69, "velocity": 101, "channel": 0}, {"type": "note_off", "time": 520, "note": 69, "velocity": 101, "channel": 0}, {"type": "note_on", "time": 205, "note": 67, "velocity": 110, "channel": 0}, {"type": "note_off", "time": 370, "note": 67, "velocity": 110, "channel": 0}, {"type": "note_on", "time": 126, "note": 66, "velocity": 110, "channel": 0}, {"type": "note_off", "time": 520, "note": 66, "velocity": 110, "channel": 0}, {"type": "note_on", "time": 78, "note": 69, "velocity": 116, "channel": 0}, {"type": "note_off", "time": 504, "note": 69, "velocity": 116, "channel": 0}, {"type": "note_on", "time": 134, "note": 72, "velocity": 116, "channel": 0}, {"type": "note_off", "time": 575, "note": 72, "velocity": 116, "channel": 0}, {"type": "note_on", "time": 118, "note": 76, "velocity": 103, "channel": 0}, {"type": "note_off", "time": 544, "note": 76, "velocity": 103, "channel": 0}, {"type": "note_on", "time": 86, "note": 72, "velocity": 107, "channel": 0}, {"type": "note_off", "time": 197, "note": 72, "velocity": 107, "channel": 0}, {"type": "note_on", "time": 55, "note": 74, "velocity": 106, "channel": 0}, {"type": "note_off", "time": 228, "note": 74, "velocity": 106, "channel": 0}, {"type": "note_on", "time": 47, "note": 72, "velocity": 106, "channel": 0}, {"type": "note_off", "time": 212, "note": 72, "velocity": 106, "channel": 0}, {"type": "note_on", "time": 86, "note": 69, "velocity": 109, "channel": 0}, {"type": "note_off", "time": 260, "note": 69, "velocity": 109, "channel": 0}, {"type": "note_on", "time": 252, "note": 69, "velocity": 116, "channel": 0}, {"type": "note_off", "time": 670, "note": 69, "velocity": 116, "channel": 0}, {"type": "note_on", "time": 3698, "note": 69, "velocity": 107, "channel": 0}, {"type": "note_off", "time": 331, "note": 69, "velocity": 107, "channel": 0}, {"type": "note_on", "time": 63, "note": 71, "velocity": 112, "channel": 0}, {"type": "note_off", "time": 410, "note": 71, "velocity": 112, "channel": 0}, {"type": "note_on", "time": 55, "note": 72, "velocity": 115, "channel": 0}, {"type": "note_off", "time": 733, "note": 72, "velocity": 115, "channel": 0}, {"type": "note_on", "time": 0, "note": 74, "velocity": 112, "channel": 0}, {"type": "note_off", "time": 607, "note": 74, "velocity": 112, "channel": 0}, {"type": "note_on", "time": 276, "note": 71, "velocity": 112, "channel": 0}, {"type": "note_off", "time": 402, "note": 71, "velocity": 112, "channel": 0}, {"type": "note_on", "time": 78, "note": 67, "velocity": 118, "channel": 0}, {"type": "note_off", "time": 567, "note": 67, "velocity": 118, "channel": 0}, {"type": "note_on", "time": 165, "note": 64, "velocity": 106, "channel": 0}, {"type": "note_off", "time": 473, "note": 64, "velocity": 106, "channel": 0}, {"type": "note_on", "time": 47, "note": 61, "velocity": 98, "channel": 0}, {"type": "note_off", "time": 212, "note": 61, "velocity": 98, "channel": 0}, {"type": "note_on", "time": 31, "note": 62, "velocity": 107, "channel": 0}, {"type": "note_off", "time": 173, "note": 62, "velocity": 107, "channel": 0}, {"type": "note_on", "time": 126, "note": 60, "velocity": 107, "channel": 0}, {"type": "note_off", "time": 149, "note": 60, "velocity": 107, "channel": 0}, {"type": "note_on", "time": 126, "note": 57, "velocity": 111, "channel": 0}, {"type": "note_off", "time": 465, "note": 57, "velocity": 111, "channel": 0}, {"type": "note_on", "time": 173, "note": 62, "velocity": 107, "channel": 0}, {"type": "note_off", "time": 630, "note": 62, "velocity": 107, "channel": 0}, {"type": "note_on", "time": 134, "note": 61, "velocity": 107, "channel": 0}, {"type": "note_off", "time": 331, "note": 61, "velocity": 107, "channel": 0}, {"type": "note_on", "time": 126, "note": 60, "velocity": 104, "channel": 0}, {"type": "note_off", "time": 425, "note": 60, "velocity": 104, "channel": 0}, {"type": "note_on", "time": 276, "note": 56, "velocity": 118, "channel": 0}, {"type": "note_off", "time": 473, "note": 56, "velocity": 118, "channel": 0}, {"type": "note_on", "time": 331, "note": 57, "velocity": 112, "channel": 0}, {"type": "note_off", "time": 276, "note": 57, "velocity": 112, "channel": 0}, {"type": "note_on", "time": 118, "note": 60, "velocity": 108, "channel": 0}, {"type": "note_off", "time": 425, "note": 60, "velocity": 108, "channel": 0}, {"type": "note_on", "time": 212, "note": 57, "velocity": 118, "channel": 0}, {"type": "note_off", "time": 559, "note": 57, "velocity": 118, "channel": 0}, {"type": "note_on", "time": 141, "note": 55, "velocity": 120, "channel": 0}, {"type": "note_off", "time": 749, "note": 55, "velocity": 120, "channel": 0}, {"type": "note_on", "time": 197, "note": 50, "velocity": 115, "channel": 0}, {"type": "note_off", "time": 228, "note": 50, "velocity": 115, "channel": 0}, {"type": "note_on", "time": 0, "note": 51, "velocity": 123, "channel": 0}, {"type": "note_off", "time": 914, "note": 51, "velocity": 123, "channel": 0}, {"type": "note_on", "time": 118, "note": 57, "velocity": 111, "channel": 0}, {"type": "note_off", "time": 843, "note": 57, "velocity": 111, "channel": 0}, {"type": "note_on", "time": 733, "note": 50, "velocity": 123, "channel": 0}, {"type": "note_off", "time": 2081, "note": 50, "velocity": 123, "channel": 0}, {"type": "note_on", "time": 3714, "note": 60, "velocity": 109, "channel": 0}, {"type": "note_off", "time": 236, "note": 60, "velocity": 109, "channel": 0}, {"type": "note_on", "time": 39, "note": 62, "velocity": 119, "channel": 0}, {"type": "note_off", "time": 622, "note": 62, "velocity": 119, "channel": 0}, {"type": "note_on", "time": 63, "note": 65, "velocity": 124, "channel": 0}, {"type": "note_off", "time": 749, "note": 65, "velocity": 124, "channel": 0}, {"type": "note_on", "time": 141, "note": 64, "velocity": 113, "channel": 0}, {"type": "note_off", "time": 654, "note": 64, "velocity": 113, "channel": 0}, {"type": "note_on", "time": 417, "note": 67, "velocity": 119, "channel": 0}, {"type": "note_off", "time": 591, "note": 67, "velocity": 119, "channel": 0}, {"type": "note_on", "time": 102, "note": 69, "velocity": 119, "channel": 0}, {"type": "note_off", "time": 764, "note": 69, "velocity": 119, "channel": 0}, {"type": "note_on", "time": 102, "note": 71, "velocity": 114, "channel": 0}, {"type": "note_off", "time": 575, "note": 71, "velocity": 114, "channel": 0}, {"type": "note_on", "time": 276, "note": 74, "velocity": 112, "channel": 0}, {"type": "note_off", "time": 536, "note": 74, "velocity": 112, "channel": 0}, {"type": "note_on", "time": 323, "note": 72, "velocity": 113, "channel": 0}, {"type": "note_off", "time": 520, "note": 72, "velocity": 113, "channel": 0}, {"type": "note_on", "time": 473, "note": 71, "velocity": 112, "channel": 0}, {"type": "note_off", "time": 575, "note": 71, "velocity": 112, "channel": 0}, {"type": "note_on", "time": 457, "note": 69, "velocity": 116, "channel": 0}, {"type": "note_off", "time": 496, "note": 69, "velocity": 116, "channel": 0}, {"type": "note_on", "time": 126, "note": 68, "velocity": 114, "channel": 0}, {"type": "note_off", "time": 559, "note": 68, "velocity": 114, "channel": 0}, {"type": "note_on", "time": 134, "note": 71, "velocity": 108, "channel": 0}, {"type": "note_off", "time": 473, "note": 71, "velocity": 108, "channel": 0}, {"type": "note_on", "time": 465, "note": 64, "velocity": 101, "channel": 0}, {"type": "note_off", "time": 496, "note": 64, "velocity": 101, "channel": 0}, {"type": "note_on", "time": 465, "note": 62, "velocity": 100, "channel": 0}, {"type": "note_off", "time": 536, "note": 62, "velocity": 100, "channel": 0}, {"type": "note_on", "time": 260, "note": 59, "velocity": 105, "channel": 0}, {"type": "note_off", "time": 575, "note": 59, "velocity": 105, "channel": 0}, {"type": "note_on", "time": 197, "note": 60, "velocity": 103, "channel": 0}, {"type": "note_off", "time": 638, "note": 60, "velocity": 103, "channel": 0}, {"type": "note_on", "time": 205, "note": 64, "velocity": 94, "channel": 0}, {"type": "note_off", "time": 512, "note": 64, "velocity": 94, "channel": 0}, {"type": "note_on", "time": 8674, "note": 69, "velocity": 125, "channel": 0}, {"type": "note_off", "time": 441, "note": 69, "velocity": 125, "channel": 0}, {"type": "note_on", "time": 63, "note": 71, "velocity": 122, "channel": 0}, {"type": "note_off", "time": 615, "note": 71, "velocity": 122, "channel": 0}, {"type": "note_on", "time": 134, "note": 72, "velocity": 122, "channel": 0}, {"type": "note_off", "time": 441, "note": 72, "velocity": 122, "channel": 0}, {"type": "note_on", "time": 141, "note": 69, "velocity": 120, "channel": 0}, {"type": "note_off", "time": 496, "note": 69, "velocity": 120, "channel": 0}, {"type": "note_on", "time": 197, "note": 64, "velocity": 111, "channel": 0}, {"type": "note_off", "time": 378, "note": 64, "velocity": 111, "channel": 0}, {"type": "note_on", "time": 23, "note": 62, "velocity": 98, "channel": 0}, {"type": "note_off", "time": 134, "note": 62, "velocity": 98, "channel": 0}, {"type": "note_on", "time": 70, "note": 63, "velocity": 105, "channel": 0}, {"type": "note_off", "time": 126, "note": 63, "velocity": 105, "channel": 0}, {"type": "note_on", "time": 47, "note": 62, "velocity": 102, "channel": 0}, {"type": "note_off", "time": 173, "note": 62, "velocity": 102, "channel": 0}, {"type": "note_on", "time": 55, "note": 59, "velocity": 102, "channel": 0}, {"type": "note_off", "time": 189, "note": 59, "velocity": 102, "channel": 0}, {"type": "note_on", "time": 126, "note": 57, "velocity": 110, "channel": 0}, {"type": "note_off", "time": 260, "note": 57, "velocity": 110, "channel": 0}, {"type": "note_on", "time": 78, "note": 56, "velocity": 121, "channel": 0}, {"type": "note_off", "time": 465, "note": 56, "velocity": 121, "channel": 0}, {"type": "note_on", "time": 189, "note": 59, "velocity": 111, "channel": 0}, {"type": "note_off", "time": 583, "note": 59, "velocity": 111, "channel": 0}, {"type": "note_on", "time": 378, "note": 64, "velocity": 108, "channel": 0}, {"type": "note_off", "time": 378, "note": 64, "velocity": 108, "channel": 0}, {"type": "note_on", "time": 31, "note": 65, "velocity": 124, "channel": 0}, {"type": "note_off", "time": 441, "note": 65, "velocity": 124, "channel": 0}, {"type": "note_on", "time": 165, "note": 64, "velocity": 111, "channel": 0}, {"type": "note_off", "time": 536, "note": 64, "velocity": 111, "channel": 0}, {"type": "note_on", "time": 110, "note": 65, "velocity": 122, "channel": 0}, {"type": "note_off", "time": 339, "note": 65, "velocity": 122, "channel": 0}, {"type": "note_on", "time": 102, "note": 68, "velocity": 125, "channel": 0}, {"type": "note_off", "time": 615, "note": 68, "velocity": 125, "channel": 0}, {"type": "note_on", "time": 197, "note": 71, "velocity": 116, "channel": 0}, {"type": "note_off", "time": 402, "note": 71, "velocity": 116, "channel": 0}, {"type": "note_on", "time": 260, "note": 74, "velocity": 113, "channel": 0}, {"type": "note_off", "time": 520, "note": 74, "velocity": 113, "channel": 0}, {"type": "note_on", "time": 78, "note": 76, "velocity": 110, "channel": 0}, {"type": "note_off", "time": 386, "note": 76, "velocity": 110, "channel": 0}, {"type": "note_on", "time": 260, "note": 72, "velocity": 113, "channel": 0}, {"type": "note_off", "time": 512, "note": 72, "velocity": 113, "channel": 0}, {"type": "note_on", "time": 3106, "note": 72, "velocity": 110, "channel": 0}, {"type": "note_off", "time": 315, "note": 72, "velocity": 110, "channel": 0}, {"type": "note_on", "time": 70, "note": 74, "velocity": 108, "channel": 0}, {"type": "note_off", "time": 189, "note": 74, "velocity": 108, "channel": 0}, {"type": "note_on", "time": 110, "note": 72, "velocity": 117, "channel": 0}, {"type": "note_off", "time": 307, "note": 72, "velocity": 117, "channel": 0}, {"type": "note_on", "time": 102, "note": 71, "velocity": 117, "channel": 0}, {"type": "note_off", "time": 339, "note": 71, "velocity": 117, "channel": 0}, {"type": "note_on", "time": 47, "note": 70, "velocity": 114, "channel": 0}, {"type": "note_off", "time": 417, "note": 70, "velocity": 114, "channel": 0}, {"type": "note_on", "time": 205, "note": 67, "velocity": 121, "channel": 0}, {"type": "note_off", "time": 425, "note": 67, "velocity": 121, "channel": 0}, {"type": "note_on", "time": 78, "note": 64, "velocity": 10, "channel": 0}, {"type": "note_off", "time": 591, "note": 64, "velocity": 10, "channel": 0}, {"type": "note_on", "time": 212, "note": 60, "velocity": 110, "channel": 0}, {"type": "note_off", "time": 457, "note": 60, "velocity": 110, "channel": 0}, {"type": "note_on", "time": 23, "note": 58, "velocity": 109, "channel": 0}, {"type": "note_off", "time": 441, "note": 58, "velocity": 109, "channel": 0}, {"type": "note_on", "time": 141, "note": 57, "velocity": 111, "channel": 0}, {"type": "note_off", "time": 181, "note": 57, "velocity": 111, "channel": 0}, {"type": "note_on", "time": 126, "note": 56, "velocity": 112, "channel": 0}, {"type": "note_off", "time": 457, "note": 56, "velocity": 112, "channel": 0}, {"type": "note_on", "time": 157, "note": 57, "velocity": 106, "channel": 0}, {"type": "note_off", "time": 402, "note": 57, "velocity": 106, "channel": 0}, {"type": "note_on", "time": 252, "note": 60, "velocity": 103, "channel": 0}, {"type": "note_off", "time": 402, "note": 60, "velocity": 103, "channel": 0}, {"type": "note_on", "time": 149, "note": 65, "velocity": 112, "channel": 0}, {"type": "note_off", "time": 552, "note": 65, "velocity": 112, "channel": 0}, {"type": "note_on", "time": 86, "note": 66, "velocity": 109, "channel": 0}, {"type": "note_off", "time": 528, "note": 66, "velocity": 109, "channel": 0}, {"type": "note_on", "time": 70, "note": 67, "velocity": 107, "channel": 0}, {"type": "note_off", "time": 559, "note": 67, "velocity": 107, "channel": 0}, {"type": "note_on", "time": 8082, "note": 62, "velocity": 96, "channel": 0}, {"type": "note_off", "time": 567, "note": 62, "velocity": 96, "channel": 0}, {"type": "note_on", "time": 23, "note": 64, "velocity": 105, "channel": 0}, {"type": "note_off", "time": 764, "note": 64, "velocity": 105, "channel": 0}, {"type": "note_on", "time": 410, "note": 67, "velocity": 109, "channel": 0}, {"type": "note_off", "time": 520, "note": 67, "velocity": 109, "channel": 0}, {"type": "note_on", "time": 473, "note": 64, "velocity": 100, "channel": 0}, {"type": "note_off", "time": 528, "note": 64, "velocity": 100, "channel": 0}, {"type": "note_on", "time": 236, "note": 67, "velocity": 104, "channel": 0}, {"type": "note_off", "time": 622, "note": 67, "velocity": 104, "channel": 0}, {"type": "note_on", "time": 236, "note": 64, "velocity": 101, "channel": 0}, {"type": "note_off", "time": 544, "note": 64, "velocity": 101, "channel": 0}, {"type": "note_on", "time": 339, "note": 59, "velocity": 94, "channel": 0}, {"type": "note_off", "time": 1040, "note": 59, "velocity": 94, "channel": 0}, {"type": "note_on", "time": 5157, "note": 69, "velocity": 113, "channel": 0}, {"type": "note_off", "time": 386, "note": 69, "velocity": 113, "channel": 0}, {"type": "note_on", "time": 291, "note": 71, "velocity": 108, "channel": 0}, {"type": "note_off", "time": 567, "note": 71, "velocity": 108, "channel": 0}, {"type": "note_on", "time": 141, "note": 72, "velocity": 108, "channel": 0}, {"type": "note_off", "time": 528, "note": 72, "velocity": 108, "channel": 0}, {"type": "note_on", "time": 205, "note": 74, "velocity": 105, "channel": 0}, {"type": "note_off", "time": 441, "note": 74, "velocity": 105, "channel": 0}, {"type": "note_on", "time": 402, "note": 72, "velocity": 103, "channel": 0}, {"type": "note_off", "time": 425, "note": 72, "velocity": 103, "channel": 0}, {"type": "note_on", "time": 481, "note": 71, "velocity": 105, "channel": 0}, {"type": "note_off", "time": 559, "note": 71, "velocity": 105, "channel": 0}, {"type": "note_on", "time": 441, "note": 68, "velocity": 113, "channel": 0}, {"type": "note_off", "time": 481, "note": 68, "velocity": 113, "channel": 0}, {"type": "note_on", "time": 583, "note": 64, "velocity": 103, "channel": 0}, {"type": "note_off", "time": 638, "note": 64, "velocity": 103, "channel": 0}, {"type": "note_on", "time": 3138, "note": 64, "velocity": 106, "channel": 0}, {"type": "note_off", "time": 323, "note": 64, "velocity": 106, "channel": 0}, {"type": "note_on", "time": 244, "note": 69, "velocity": 113, "channel": 0}, {"type": "note_off", "time": 512, "note": 69, "velocity": 113, "channel": 0}, {"type": "note_on", "time": 118, "note": 71, "velocity": 109, "channel": 0}, {"type": "note_off", "time": 504, "note": 71, "velocity": 109, "channel": 0}, {"type": "note_on", "time": 149, "note": 68, "velocity": 100, "channel": 0}, {"type": "note_off", "time": 504, "note": 68, "velocity": 100, "channel": 0}, {"type": "note_on", "time": 173, "note": 71, "velocity": 108, "channel": 0}, {"type": "note_off", "time": 315, "note": 71, "velocity": 108, "channel": 0}, {"type": "note_on", "time": 260, "note": 69, "velocity": 102, "channel": 0}, {"type": "note_off", "time": 520, "note": 69, "velocity": 102, "channel": 0}, {"type": "note_on", "time": 205, "note": 66, "velocity": 110, "channel": 0}, {"type": "note_off", "time": 449, "note": 66, "velocity": 110, "channel": 0}, {"type": "note_on", "time": 110, "note": 64, "velocity": 98, "channel": 0}, {"type": "note_off", "time": 488, "note": 64, "velocity": 98, "channel": 0}, {"type": "note_on", "time": 307, "note": 60, "velocity": 109, "channel": 0}, {"type": "note_off", "time": 268, "note": 60, "velocity": 109, "channel": 0}, {"type": "note_on", "time": 197, "note": 57, "velocity": 107, "channel": 0}, {"type": "note_off", "time": 488, "note": 57, "velocity": 107, "channel": 0}, {"type": "note_on", "time": 283, "note": 55, "velocity": 108, "channel": 0}, {"type": "note_off", "time": 228, "note": 55, "velocity": 108, "channel": 0}, {"type": "note_on", "time": 110, "note": 54, "velocity": 102, "channel": 0}, {"type": "note_off", "time": 465, "note": 54, "velocity": 102, "channel": 0}, {"type": "note_on", "time": 425, "note": 62, "velocity": 102, "channel": 0}, {"type": "note_off", "time": 362, "note": 62, "velocity": 102, "channel": 0}, {"type": "note_on", "time": 220, "note": 59, "velocity": 92, "channel": 0}, {"type": "note_off", "time": 1703, "note": 59, "velocity": 92, "channel": 0}, {"type": "note_on", "time": 1577, "note": 71, "velocity": 110, "channel": 0}, {"type": "note_off", "time": 662, "note": 71, "velocity": 110, "channel": 0}, {"type": "note_on", "time": 205, "note": 70, "velocity": 109, "channel": 0}, {"type": "note_off", "time": 544, "note": 70, "velocity": 109, "channel": 0}, {"type": "note_on", "time": 425, "note": 71, "velocity": 106, "channel": 0}, {"type": "note_off", "time": 883, "note": 71, "velocity": 106, "channel": 0}, {"type": "note_on", "time": 260, "note": 70, "velocity": 103, "channel": 0}, {"type": "note_off", "time": 733, "note": 70, "velocity": 103, "channel": 0}, {"type": "note_on", "time": 70, "note": 71, "velocity": 105, "channel": 0}, {"type": "note_off", "time": 701, "note": 71, "velocity": 105, "channel": 0}, {"type": "note_on", "time": 512, "note": 70, "velocity": 108, "channel": 0}, {"type": "note_off", "time": 465, "note": 70, "velocity": 108, "channel": 0}, {"type": "note_on", "time": 149, "note": 71, "velocity": 108, "channel": 0}, {"type": "note_off", "time": 638, "note": 71, "velocity": 108, "channel": 0}, {"type": "note_on", "time": 2602, "note": 66, "velocity": 121, "channel": 0}, {"type": "note_off", "time": 709, "note": 66, "velocity": 121, "channel": 0}, {"type": "note_on", "time": 47, "note": 69, "velocity": 121, "channel": 0}, {"type": "note_off", "time": 354, "note": 69, "velocity": 121, "channel": 0}, {"type": "note_on", "time": 118, "note": 71, "velocity": 117, "channel": 0}, {"type": "note_off", "time": 512, "note": 71, "velocity": 117, "channel": 0}, {"type": "note_on", "time": 94, "note": 72, "velocity": 114, "channel": 0}, {"type": "note_off", "time": 536, "note": 72, "velocity": 114, "channel": 0}, {"type": "note_on", "time": 134, "note": 74, "velocity": 110, "channel": 0}, {"type": "note_off", "time": 504, "note": 74, "velocity": 110, "channel": 0}, {"type": "note_on", "time": 205, "note": 71, "velocity": 110, "channel": 0}, {"type": "note_off", "time": 544, "note": 71, "velocity": 110, "channel": 0}, {"type": "note_on", "time": 94, "note": 70, "velocity": 111, "channel": 0}, {"type": "note_off", "time": 402, "note": 70, "velocity": 111, "channel": 0}, {"type": "note_on", "time": 134, "note": 69, "velocity": 110, "channel": 0}, {"type": "note_off", "time": 528, "note": 69, "velocity": 110, "channel": 0}, {"type": "note_on", "time": 118, "note": 67, "velocity": 112, "channel": 0}, {"type": "note_off", "time": 386, "note": 67, "velocity": 112, "channel": 0}, {"type": "note_on", "time": 134, "note": 66, "velocity": 110, "channel": 0}, {"type": "note_off", "time": 686, "note": 66, "velocity": 110, "channel": 0}, {"type": "note_on", "time": 86, "note": 69, "velocity": 111, "channel": 0}, {"type": "note_off", "time": 567, "note": 69, "velocity": 111, "channel": 0}, {"type": "note_on", "time": 2018, "note": 63, "velocity": 105, "channel": 0}, {"type": "note_off", "time": 339, "note": 63, "velocity": 105, "channel": 0}, {"type": "note_on", "time": 78, "note": 64, "velocity": 100, "channel": 0}, {"type": "note_off", "time": 607, "note": 64, "velocity": 100, "channel": 0}, {"type": "note_on", "time": 189, "note": 66, "velocity": 109, "channel": 0}, {"type": "note_off", "time": 346, "note": 66, "velocity": 109, "channel": 0}, {"type": "note_on", "time": 126, "note": 67, "velocity": 103, "channel": 0}, {"type": "note_off", "time": 717, "note": 67, "velocity": 103, "channel": 0}, {"type": "note_on", "time": 63, "note": 69, "velocity": 109, "channel": 0}, {"type": "note_off", "time": 402, "note": 69, "velocity": 109, "channel": 0}, {"type": "note_on", "time": 118, "note": 71, "velocity": 109, "channel": 0}, {"type": "note_off", "time": 686, "note": 71, "velocity": 109, "channel": 0}, {"type": "note_on", "time": 544, "note": 69, "velocity": 117, "channel": 0}, {"type": "note_off", "time": 678, "note": 69, "velocity": 117, "channel": 0}, {"type": "note_on", "time": 173, "note": 65, "velocity": 118, "channel": 0}, {"type": "note_off", "time": 370, "note": 65, "velocity": 118, "channel": 0}, {"type": "note_on", "time": 291, "note": 58, "velocity": 112, "channel": 0}, {"type": "note_off", "time": 236, "note": 58, "velocity": 112, "channel": 0}, {"type": "note_on", "time": 78, "note": 59, "velocity": 106, "channel": 0}, {"type": "note_off", "time": 252, "note": 59, "velocity": 106, "channel": 0}, {"type": "note_on", "time": 31, "note": 60, "velocity": 107, "channel": 0}, {"type": "note_off", "time": 410, "note": 60, "velocity": 107, "channel": 0}, {"type": "note_on", "time": 102, "note": 59, "velocity": 104, "channel": 0}, {"type": "note_off", "time": 528, "note": 59, "velocity": 104, "channel": 0}, {"type": "note_on", "time": 31, "note": 62, "velocity": 108, "channel": 0}, {"type": "note_off", "time": 488, "note": 62, "velocity": 108, "channel": 0}, {"type": "note_on", "time": 260, "note": 57, "velocity": 113, "channel": 0}, {"type": "note_off", "time": 299, "note": 57, "velocity": 113, "channel": 0}, {"type": "note_on", "time": 212, "note": 56, "velocity": 113, "channel": 0}, {"type": "note_off", "time": 544, "note": 56, "velocity": 113, "channel": 0}, {"type": "note_on", "time": 78, "note": 55, "velocity": 110, "channel": 0}, {"type": "note_off", "time": 654, "note": 55, "velocity": 110, "channel": 0}, {"type": "note_on", "time": 110, "note": 60, "velocity": 95, "channel": 0}, {"type": "note_off", "time": 630, "note": 60, "velocity": 95, "channel": 0}, {"type": "note_on", "time": 23, "note": 64, "velocity": 96, "channel": 0}, {"type": "note_off", "time": 701, "note": 64, "velocity": 96, "channel": 0}, {"type": "note_on", "time": 3706, "note": 66, "velocity": 111, "channel": 0}, {"type": "note_off", "time": 473, "note": 66, "velocity": 111, "channel": 0}, {"type": "note_on", "time": 141, "note": 67, "velocity": 105, "channel": 0}, {"type": "note_off", "time": 607, "note": 67, "velocity": 105, "channel": 0}, {"type": "note_on", "time": 141, "note": 69, "velocity": 109, "channel": 0}, {"type": "note_off", "time": 575, "note": 69, "velocity": 109, "channel": 0}, {"type": "note_on", "time": 457, "note": 71, "velocity": 109, "channel": 0}, {"type": "note_off", "time": 622, "note": 71, "velocity": 109, "channel": 0}, {"type": "note_on", "time": 220, "note": 67, "velocity": 114, "channel": 0}, {"type": "note_off", "time": 465, "note": 67, "velocity": 114, "channel": 0}, {"type": "note_on", "time": 307, "note": 66, "velocity": 113, "channel": 0}, {"type": "note_off", "time": 504, "note": 66, "velocity": 113, "channel": 0}, {"type": "note_on", "time": 504, "note": 64, "velocity": 107, "channel": 0}, {"type": "note_off", "time": 394, "note": 64, "velocity": 107, "channel": 0}, {"type": "note_on", "time": 796, "note": 59, "velocity": 101, "channel": 0}, {"type": "note_off", "time": 299, "note": 59, "velocity": 101, "channel": 0}, {"type": "note_on", "time": 268, "note": 58, "velocity": 111, "channel": 0}, {"type": "note_off", "time": 441, "note": 58, "velocity": 111, "channel": 0}, {"type": "note_on", "time": 212, "note": 57, "velocity": 104, "channel": 0}, {"type": "note_off", "time": 583, "note": 57, "velocity": 104, "channel": 0}, {"type": "note_on", "time": 323, "note": 56, "velocity": 109, "channel": 0}, {"type": "note_off", "time": 378, "note": 56, "velocity": 109, "channel": 0}, {"type": "note_on", "time": 346, "note": 59, "velocity": 107, "channel": 0}, {"type": "note_off", "time": 591, "note": 59, "velocity": 107, "channel": 0}, {"type": "note_on", "time": 323, "note": 55, "velocity": 110, "channel": 0}, {"type": "note_off", "time": 488, "note": 55, "velocity": 110, "channel": 0}, {"type": "note_on", "time": 512, "note": 61, "velocity": 97, "channel": 0}, {"type": "note_off", "time": 473, "note": 61, "velocity": 97, "channel": 0}, {"type": "note_on", "time": 5062, "note": 62, "velocity": 107, "channel": 0}, {"type": "note_off", "time": 252, "note": 62, "velocity": 107, "channel": 0}, {"type": "note_on", "time": 165, "note": 64, "velocity": 107, "channel": 0}, {"type": "note_off", "time": 662, "note": 64, "velocity": 107, "channel": 0}, {"type": "note_on", "time": 102, "note": 67, "velocity": 122, "channel": 0}, {"type": "note_off", "time": 488, "note": 67, "velocity": 122, "channel": 0}, {"type": "note_on", "time": 39, "note": 66, "velocity": 117, "channel": 0}, {"type": "note_off", "time": 583, "note": 66, "velocity": 117, "channel": 0}, {"type": "note_on", "time": 205, "note": 64, "velocity": 110, "channel": 0}, {"type": "note_off", "time": 378, "note": 64, "velocity": 110, "channel": 0}, {"type": "note_on", "time": 307, "note": 62, "velocity": 107, "channel": 0}, {"type": "note_off", "time": 228, "note": 62, "velocity": 107, "channel": 0}, {"type": "note_on", "time": 173, "note": 60, "velocity": 104, "channel": 0}, {"type": "note_off", "time": 118, "note": 60, "velocity": 104, "channel": 0}, {"type": "note_on", "time": 228, "note": 57, "velocity": 108, "channel": 0}, {"type": "note_off", "time": 181, "note": 57, "velocity": 108, "channel": 0}, {"type": "note_on", "time": 236, "note": 62, "velocity": 111, "channel": 0}, {"type": "note_off", "time": 536, "note": 62, "velocity": 111, "channel": 0}, {"type": "note_on", "time": 157, "note": 61, "velocity": 106, "channel": 0}, {"type": "note_off", "time": 425, "note": 61, "velocity": 106, "channel": 0}, {"type": "note_on", "time": 141, "note": 60, "velocity": 106, "channel": 0}, {"type": "note_off", "time": 433, "note": 60, "velocity": 106, "channel": 0}, {"type": "note_on", "time": 220, "note": 56, "velocity": 112, "channel": 0}, {"type": "note_off", "time": 181, "note": 56, "velocity": 112, "channel": 0}, {"type": "note_on", "time": 63, "note": 55, "velocity": 111, "channel": 0}, {"type": "note_off", "time": 228, "note": 55, "velocity": 111, "channel": 0}, {"type": "note_on", "time": 63, "note": 57, "velocity": 106, "channel": 0}, {"type": "note_off", "time": 220, "note": 57, "velocity": 106, "channel": 0}, {"type": "note_on", "time": 212, "note": 62, "velocity": 107, "channel": 0}, {"type": "note_off", "time": 457, "note": 62, "velocity": 107, "channel": 0}, {"type": "note_on", "time": 275, "note": 67, "velocity": 109, "channel": 0}, {"type": "note_off", "time": 559, "note": 67, "velocity": 109, "channel": 0}, {"type": "note_on", "time": 323, "note": 67, "velocity": 111, "channel": 0}, {"type": "note_off", "time": 488, "note": 67, "velocity": 111, "channel": 0}, {"type": "note_on", "time": 1285, "note": 67, "velocity": 106, "channel": 0}, {"type": "note_off", "time": 1033, "note": 67, "velocity": 106, "channel": 0}, {"type": "note_on", "time": 693, "note": 64, "velocity": 102, "channel": 0}, {"type": "note_off", "time": 693, "note": 64, "velocity": 102, "channel": 0}, {"type": "note_on", "time": 276, "note": 67, "velocity": 109, "channel": 0}, {"type": "note_off", "time": 449, "note": 67, "velocity": 109, "channel": 0}, {"type": "note_on", "time": 236, "note": 71, "velocity": 115, "channel": 0}, {"type": "note_off", "time": 552, "note": 71, "velocity": 115, "channel": 0}, {"type": "note_on", "time": 670, "note": 67, "velocity": 117, "channel": 0}, {"type": "note_off", "time": 481, "note": 67, "velocity": 117, "channel": 0}, {"type": "note_on", "time": 244, "note": 66, "velocity": 113, "channel": 0}, {"type": "note_off", "time": 457, "note": 66, "velocity": 113, "channel": 0}, {"type": "note_on", "time": 126, "note": 64, "velocity": 108, "channel": 0}, {"type": "note_off", "time": 425, "note": 64, "velocity": 108, "channel": 0}, {"type": "note_on", "time": 946, "note": 57, "velocity": 111, "channel": 0}, {"type": "note_off", "time": 481, "note": 57, "velocity": 111, "channel": 0}, {"type": "note_on", "time": 63, "note": 62, "velocity": 110, "channel": 0}, {"type": "note_off", "time": 441, "note": 62, "velocity": 110, "channel": 0}, {"type": "note_on", "time": 141, "note": 61, "velocity": 105, "channel": 0}, {"type": "note_off", "time": 394, "note": 61, "velocity": 105, "channel": 0}, {"type": "note_on", "time": 260, "note": 60, "velocity": 102, "channel": 0}, {"type": "note_off", "time": 323, "note": 60, "velocity": 102, "channel": 0}, {"type": "note_on", "time": 339, "note": 59, "velocity": 112, "channel": 0}, {"type": "note_off", "time": 339, "note": 59, "velocity": 112, "channel": 0}, {"type": "note_on", "time": 205, "note": 58, "velocity": 113, "channel": 0}, {"type": "note_off", "time": 291, "note": 58, "velocity": 113, "channel": 0}, {"type": "note_on", "time": 402, "note": 56, "velocity": 114, "channel": 0}, {"type": "note_off", "time": 283, "note": 56, "velocity": 114, "channel": 0}, {"type": "note_on", "time": 323, "note": 57, "velocity": 107, "channel": 0}, {"type": "note_off", "time": 299, "note": 57, "velocity": 107, "channel": 0}, {"type": "note_on", "time": 346, "note": 60, "velocity": 102, "channel": 0}, {"type": "note_off", "time": 346, "note": 60, "velocity": 102, "channel": 0}, {"type": "note_on", "time": 315, "note": 57, "velocity": 110, "channel": 0}, {"type": "note_off", "time": 331, "note": 57, "velocity": 110, "channel": 0}, {"type": "note_on", "time": 315, "note": 56, "velocity": 109, "channel": 0}, {"type": "note_off", "time": 457, "note": 56, "velocity": 109, "channel": 0}, {"type": "note_on", "time": 141, "note": 55, "velocity": 104, "channel": 0}, {"type": "note_off", "time": 386, "note": 55, "velocity": 104, "channel": 0}, {"type": "note_on", "time": 236, "note": 53, "velocity": 111, "channel": 0}, {"type": "note_off", "time": 339, "note": 53, "velocity": 111, "channel": 0}, {"type": "note_on", "time": 228, "note": 54, "velocity": 104, "channel": 0}, {"type": "note_off", "time": 449, "note": 54, "velocity": 104, "channel": 0}, {"type": "note_on", "time": 205, "note": 57, "velocity": 108, "channel": 0}, {"type": "note_off", "time": 362, "note": 57, "velocity": 108, "channel": 0}, {"type": "note_on", "time": 402, "note": 51, "velocity": 122, "channel": 0}, {"type": "note_off", "time": 615, "note": 51, "velocity": 122, "channel": 0}, {"type": "note_on", "time": 181, "note": 57, "velocity": 99, "channel": 0}, {"type": "note_off", "time": 827, "note": 57, "velocity": 99, "channel": 0}, {"type": "note_on", "time": 252, "note": 50, "velocity": 124, "channel": 0}, {"type": "note_off", "time": 3091, "note": 50, "velocity": 124, "channel": 0}, {"type": "end_of_track", "time": 0}]]}