{"ticks_per_beat": 192, "tracks": [[{"type": "track_name", "name": "Melody", "time": 0}, {"type": "set_tempo", "tempo": 223048, "time": 0}, {"type": "key_signature", "key": "Ab", "time": 0}, {"type": "time_signature", "numerator": 4, "denominator": 4, "clocks_per_click": 24, "notated_32nd_notes_per_beat": 8, "time": 0}, {"type": "note_on", "time": 3256, "note": 80, "velocity": 106, "channel": 0}, {"type": "note_off", "time": 727, "note": 80, "velocity": 106, "channel": 0}, {"type": "note_on", "time": 7, "note": 77, "velocity": 107, "channel": 0}, {"type": "note_off", "time": 119, "note": 77, "velocity": 107, "channel": 0}, {"type": "note_on", "time": 63, "note": 80, "velocity": 91, "channel": 0}, {"type": "note_off", "time": 182, "note": 80, "velocity": 91, "channel": 0}, {"type": "note_on", "time": 39, "note": 77, "velocity": 104, "channel": 0}, {"type": "note_off", "time": 144, "note": 77, "velocity": 104, "channel": 0}, {"type": "note_on", "time": 44, "note": 80, "velocity": 103, "channel": 0}, {"type": "note_off", "time": 149, "note": 80, "velocity": 103, "channel": 0}, {"type": "note_on", "time": 57, "note": 77, "velocity": 96, "channel": 0}, {"type": "note_off", "time": 119, "note": 77, "velocity": 96, "channel": 0}, {"type": "note_on", "time": 42, "note": 80, "velocity": 110, "channel": 0}, {"type": "note_off", "time": 112, "note": 80, "velocity": 110, "channel": 0}, {"type": "note_on", "time": 79, "note": 77, "velocity": 93, "channel": 0}, {"type": "note_off", "time": 177, "note": 77, "velocity": 93, "channel": 0}, {"type": "note_on", "time": 59, "note": 83, "velocity": 107, "channel": 0}, {"type": "note_off", "time": 119, "note": 83, "velocity": 107, "channel": 0}, {"type": "note_on", "time": 72, "note": 84, "velocity": 106, "channel": 0}, {"type": "note_off", "time": 94, "note": 84, "velocity": 106, "channel": 0}, {"type": "note_on", "time": 44, "note": 80, "velocity": 96, "channel": 0}, {"type": "note_off", "time": 154, "note": 80, "velocity": 96, "channel": 0}, {"type": "note_on", "time": 16, "note": 77, "velocity": 93, "channel": 0}, {"type": "note_off", "time": 42, "note": 77, "velocity": 93, "channel": 0}, {"type": "note_on", "time": 94, "note": 80, "velocity": 98, "channel": 0}, {"type": "note_off", "time": 387, "note": 80, "velocity": 98, "channel": 0}, {"type": "note_on", "time": 97, "note": 77, "velocity": 117, "channel": 0}, {"type": "note_off", "time": 119, "note": 77, "velocity": 117, "channel": 0}, {"type": "note_on", "time": 7, "note": 75, "velocity": 115, "channel": 0}, {"type": "note_off", "time": 84, "note": 75, "velocity": 115, "channel": 0}, {"type": "note_on", "time": 0, "note": 72, "velocity": 111, "channel": 0}, {"type": "note_off", "time": 80, "note": 72, "velocity": 111, "channel": 0}, {"type": "note_on", "time": 73, "note": 75, "velocity": 114, "channel": 0}, {"type": "note_off", "time": 87, "note": 75, "velocity": 114, "channel": 0}, {"type": "note_on", "time": 84, "note": 67, "velocity": 110, "channel": 0}, {"type": "note_off", "time": 56, "note": 67, "velocity": 110, "channel": 0}, {"type": "note_on", "time": 0, "note": 70, "velocity": 113, "channel": 0}, {"type": "note_off", "time": 952, "note": 70, "velocity": 113, "channel": 0}, {"type": "note_on", "time": 0, "note": 68, "velocity": 109, "channel": 0}, {"type": "note_off", "time": 193, "note": 68, "velocity": 109, "channel": 0}, {"type": "note_on", "time": 14, "note": 75, "velocity": 109, "channel": 0}, {"type": "note_off", "time": 470, "note": 75, "velocity": 109, "channel": 0}, {"type": "note_on", "time": 105, "note": 70, "velocity": 111, "channel": 0}, {"type": "note_off", "time": 175, "note": 70, "velocity": 111, "channel": 0}, {"type": "note_on", "time": 10, "note": 68, "velocity": 103, "channel": 0}, {"type": "note_off", "time": 179, "note": 68, "velocity": 103, "channel": 0}, {"type": "note_on", "time": 7, "note": 75, "velocity": 113, "channel": 0}, {"type": "note_off", "time": 182, "note": 75, "velocity": 113, "channel": 0}, {"type": "note_on", "time": 182, "note": 68, "velocity": 99, "channel": 0}, {"type": "note_off", "time": 115, "note": 68, "velocity": 99, "channel": 0}, {"type": "note_on", "time": 80, "note": 70, "velocity": 115, "channel": 0}, {"type": "note_off", "time": 368, "note": 70, "velocity": 115, "channel": 0}, {"type": "note_on", "time": 49, "note": 68, "velocity": 89, "channel": 0}, {"type": "note_off", "time": 151, "note": 68, "velocity": 89, "channel": 0}, {"type": "note_on", "time": 3, "note": 75, "velocity": 98, "channel": 0}, {"type": "note_off", "time": 344, "note": 75, "velocity": 98, "channel": 0}, {"type": "note_on", "time": 221, "note": 70, "velocity": 108, "channel": 0}, {"type": "note_off", "time": 379, "note": 70, "velocity": 108, "channel": 0}, {"type": "note_on", "time": 14, "note": 68, "velocity": 95, "channel": 0}, {"type": "note_off", "time": 161, "note": 68, "velocity": 95, "channel": 0}, {"type": "note_on", "time": 28, "note": 77, "velocity": 112, "channel": 0}, {"type": "note_off", "time": 326, "note": 77, "velocity": 112, "channel": 0}, {"type": "note_on", "time": 38, "note": 70, "velocity": 110, "channel": 0}, {"type": "note_off", "time": 101, "note": 70, "velocity": 110, "channel": 0}, {"type": "note_on", "time": 21, "note": 72, "velocity": 94, "channel": 0}, {"type": "note_off", "time": 56, "note": 72, "velocity": 94, "channel": 0}, {"type": "note_on", "time": 0, "note": 75, "velocity": 112, "channel": 0}, {"type": "note_off", "time": 147, "note": 75, "velocity": 112, "channel": 0}, {"type": "note_on", "time": 491, "note": 85, "velocity": 99, "channel": 0}, {"type": "note_off", "time": 122, "note": 85, "velocity": 99, "channel": 0}, {"type": "note_on", "time": 24, "note": 87, "velocity": 109, "channel": 0}, {"type": "note_off", "time": 530, "note": 87, "velocity": 109, "channel": 0}, {"type": "note_on", "time": 0, "note": 84, "velocity": 126, "channel": 0}, {"type": "note_off", "time": 126, "note": 84, "velocity": 126, "channel": 0}, {"type": "note_on", "time": 3, "note": 82, "velocity": 114, "channel": 0}, {"type": "note_off", "time": 84, "note": 82, "velocity": 114, "channel": 0}, {"type": "note_on", "time": 3, "note": 79, "velocity": 109, "channel": 0}, {"type": "note_off", "time": 87, "note": 79, "velocity": 109, "channel": 0}, {"type": "note_on", "time": 7, "note": 77, "velocity": 113, "channel": 0}, {"type": "note_off", "time": 73, "note": 77, "velocity": 113, "channel": 0}, {"type": "note_on", "time": 7, "note": 75, "velocity": 101, "channel": 0}, {"type": "note_off", "time": 56, "note": 75, "velocity": 101, "channel": 0}, {"type": "note_on", "time": 119, "note": 79, "velocity": 111, "channel": 0}, {"type": "note_on", "time": 101, "note": 80, "velocity": 113, "channel": 0}, {"type": "note_off", "time": 0, "note": 79, "velocity": 111, "channel": 0}, {"type": "note_off", "time": 66, "note": 80, "velocity": 113, "channel": 0}, {"type": "note_on", "time": 14, "note": 81, "velocity": 125, "channel": 0}, {"type": "note_off", "time": 112, "note": 81, "velocity": 125, "channel": 0}, {"type": "note_on", "time": 7, "note": 82, "velocity": 114, "channel": 0}, {"type": "note_off", "time": 56, "note": 82, "velocity": 114, "channel": 0}, {"type": "note_on", "time": 14, "note": 83, "velocity": 114, "channel": 0}, {"type": "note_off", "time": 108, "note": 83, "velocity": 114, "channel": 0}, {"type": "note_on", "time": 0, "note": 84, "velocity": 113, "channel": 0}, {"type": "note_off", "time": 80, "note": 84, "velocity": 113, "channel": 0}, {"type": "note_on", "time": 7, "note": 82, "velocity": 117, "channel": 0}, {"type": "note_off", "time": 80, "note": 82, "velocity": 117, "channel": 0}, {"type": "note_on", "time": 0, "note": 83, "velocity": 110, "channel": 0}, {"type": "note_off", "time": 49, "note": 83, "velocity": 110, "channel": 0}, {"type": "note_on", "time": 7, "note": 81, "velocity": 115, "channel": 0}, {"type": "note_on", "time": 66, "note": 82, "velocity": 102, "channel": 0}, {"type": "note_off", "time": 0, "note": 81, "velocity": 115, "channel": 0}, {"type": "note_off", "time": 70, "note": 82, "velocity": 102, "channel": 0}, {"type": "note_on", "time": 0, "note": 80, "velocity": 110, "channel": 0}, {"type": "note_off", "time": 84, "note": 80, "velocity": 110, "channel": 0}, {"type": "note_on", "time": 17, "note": 77, "velocity": 116, "channel": 0}, {"type": "note_off", "time": 91, "note": 77, "velocity": 116, "channel": 0}, {"type": "note_on", "time": 38, "note": 75, "velocity": 112, "channel": 0}, {"type": "note_off", "time": 52, "note": 75, "velocity": 112, "channel": 0}, {"type": "note_on", "time": 31, "note": 72, "velocity": 96, "channel": 0}, {"type": "note_off", "time": 73, "note": 72, "velocity": 96, "channel": 0}, {"type": "note_on", "time": 11, "note": 68, "velocity": 98, "channel": 0}, {"type": "note_off", "time": 92, "note": 68, "velocity": 98, "channel": 0}, {"type": "note_on", "time": 177, "note": 80, "velocity": 112, "channel": 0}, {"type": "note_off", "time": 344, "note": 80, "velocity": 112, "channel": 0}, {"type": "note_on", "time": 31, "note": 76, "velocity": 123, "channel": 0}, {"type": "note_off", "time": 119, "note": 76, "velocity": 123, "channel": 0}, {"type": "note_on", "time": 84, "note": 71, "velocity": 116, "channel": 0}, {"type": "note_off", "time": 144, "note": 71, "velocity": 116, "channel": 0}, {"type": "note_on", "time": 35, "note": 68, "velocity": 88, "channel": 0}, {"type": "note_off", "time": 172, "note": 68, "velocity": 88, "channel": 0}, {"type": "note_on", "time": 21, "note": 71, "velocity": 109, "channel": 0}, {"type": "note_off", "time": 168, "note": 71, "velocity": 109, "channel": 0}, {"type": "note_on", "time": 10, "note": 68, "velocity": 90, "channel": 0}, {"type": "note_off", "time": 175, "note": 68, "velocity": 90, "channel": 0}, {"type": "note_on", "time": 10, "note": 77, "velocity": 116, "channel": 0}, {"type": "note_off", "time": 52, "note": 77, "velocity": 116, "channel": 0}, {"type": "note_on", "time": 14, "note": 75, "velocity": 95, "channel": 0}, {"type": "note_off", "time": 122, "note": 75, "velocity": 95, "channel": 0}, {"type": "note_on", "time": 119, "note": 75, "velocity": 99, "channel": 0}, {"type": "note_off", "time": 158, "note": 75, "velocity": 99, "channel": 0}, {"type": "note_on", "time": 309, "note": 71, "velocity": 120, "channel": 0}, {"type": "note_off", "time": 94, "note": 71, "velocity": 120, "channel": 0}, {"type": "note_on", "time": 7, "note": 75, "velocity": 106, "channel": 0}, {"type": "note_off", "time": 77, "note": 75, "velocity": 106, "channel": 0}, {"type": "note_on", "time": 7, "note": 77, "velocity": 110, "channel": 0}, {"type": "note_off", "time": 119, "note": 77, "velocity": 110, "channel": 0}, {"type": "note_on", "time": 10, "note": 75, "velocity": 102, "channel": 0}, {"type": "note_off", "time": 70, "note": 75, "velocity": 102, "channel": 0}, {"type": "note_on", "time": 0, "note": 80, "velocity": 97, "channel": 0}, {"type": "note_off", "time": 98, "note": 80, "velocity": 97, "channel": 0}, {"type": "note_on", "time": 3, "note": 82, "velocity": 114, "channel": 0}, {"type": "note_off", "time": 84, "note": 82, "velocity": 114, "channel": 0}, {"type": "note_on", "time": 0, "note": 80, "velocity": 111, "channel": 0}, {"type": "note_off", "time": 84, "note": 80, "velocity": 111, "channel": 0}, {"type": "note_on", "time": 3, "note": 77, "velocity": 110, "channel": 0}, {"type": "note_off", "time": 105, "note": 77, "velocity": 110, "channel": 0}, {"type": "note_on", "time": 3, "note": 75, "velocity": 103, "channel": 0}, {"type": "note_off", "time": 77, "note": 75, "velocity": 103, "channel": 0}, {"type": "note_on", "time": 17, "note": 72, "velocity": 114, "channel": 0}, {"type": "note_off", "time": 77, "note": 72, "velocity": 114, "channel": 0}, {"type": "note_on", "time": 7, "note": 70, "velocity": 121, "channel": 0}, {"type": "note_off", "time": 80, "note": 70, "velocity": 121, "channel": 0}, {"type": "note_on", "time": 17, "note": 68, "velocity": 97, "channel": 0}, {"type": "note_off", "time": 77, "note": 68, "velocity": 97, "channel": 0}, {"type": "note_on", "time": 14, "note": 65, "velocity": 107, "channel": 0}, {"type": "note_off", "time": 84, "note": 65, "velocity": 107, "channel": 0}, {"type": "note_on", "time": 10, "note": 63, "velocity": 100, "channel": 0}, {"type": "note_off", "time": 63, "note": 63, "velocity": 100, "channel": 0}, {"type": "note_on", "time": 207, "note": 63, "velocity": 105, "channel": 0}, {"type": "note_off", "time": 168, "note": 63, "velocity": 105, "channel": 0}, {"type": "note_on", "time": 193, "note": 70, "velocity": 112, "channel": 0}, {"type": "note_off", "time": 105, "note": 70, "velocity": 112, "channel": 0}, {"type": "note_on", "time": 7, "note": 72, "velocity": 104, "channel": 0}, {"type": "note_off", "time": 63, "note": 72, "velocity": 104, "channel": 0}, {"type": "note_on", "time": 7, "note": 75, "velocity": 101, "channel": 0}, {"type": "note_off", "time": 108, "note": 75, "velocity": 101, "channel": 0}, {"type": "note_on", "time": 0, "note": 72, "velocity": 100, "channel": 0}, {"type": "note_off", "time": 98, "note": 72, "velocity": 100, "channel": 0}, {"type": "note_on", "time": 0, "note": 80, "velocity": 110, "channel": 0}, {"type": "note_off", "time": 112, "note": 80, "velocity": 110, "channel": 0}, {"type": "note_on", "time": 203, "note": 77, "velocity": 117, "channel": 0}, {"type": "note_off", "time": 87, "note": 77, "velocity": 117, "channel": 0}, {"type": "note_on", "time": 7, "note": 75, "velocity": 104, "channel": 0}, {"type": "note_off", "time": 66, "note": 75, "velocity": 104, "channel": 0}, {"type": "note_on", "time": 10, "note": 72, "velocity": 107, "channel": 0}, {"type": "note_off", "time": 49, "note": 72, "velocity": 107, "channel": 0}, {"type": "note_on", "time": 21, "note": 70, "velocity": 117, "channel": 0}, {"type": "note_off", "time": 151, "note": 70, "velocity": 117, "channel": 0}, {"type": "note_on", "time": 49, "note": 75, "velocity": 105, "channel": 0}, {"type": "note_off", "time": 144, "note": 75, "velocity": 105, "channel": 0}, {"type": "note_on", "time": 63, "note": 75, "velocity": 112, "channel": 0}, {"type": "note_off", "time": 112, "note": 75, "velocity": 112, "channel": 0}, {"type": "note_on", "time": 70, "note": 75, "velocity": 113, "channel": 0}, {"type": "note_off", "time": 129, "note": 75, "velocity": 113, "channel": 0}, {"type": "note_on", "time": 7, "note": 74, "velocity": 90, "channel": 0}, {"type": "note_off", "time": 70, "note": 74, "velocity": 90, "channel": 0}, {"type": "note_on", "time": 337, "note": 79, "velocity": 115, "channel": 0}, {"type": "note_off", "time": 119, "note": 79, "velocity": 115, "channel": 0}, {"type": "note_on", "time": 10, "note": 80, "velocity": 113, "channel": 0}, {"type": "note_off", "time": 252, "note": 80, "velocity": 113, "channel": 0}, {"type": "note_on", "time": 0, "note": 77, "velocity": 108, "channel": 0}, {"type": "note_off", "time": 101, "note": 77, "velocity": 108, "channel": 0}, {"type": "note_on", "time": 66, "note": 80, "velocity": 109, "channel": 0}, {"type": "note_off", "time": 189, "note": 80, "velocity": 109, "channel": 0}, {"type": "note_on", "time": 154, "note": 77, "velocity": 108, "channel": 0}, {"type": "note_off", "time": 70, "note": 77, "velocity": 108, "channel": 0}, {"type": "note_on", "time": 0, "note": 74, "velocity": 113, "channel": 0}, {"type": "note_off", "time": 80, "note": 74, "velocity": 113, "channel": 0}, {"type": "note_on", "time": 21, "note": 71, "velocity": 117, "channel": 0}, {"type": "note_off", "time": 87, "note": 71, "velocity": 117, "channel": 0}, {"type": "note_on", "time": 3, "note": 68, "velocity": 110, "channel": 0}, {"type": "note_off", "time": 94, "note": 68, "velocity": 110, "channel": 0}, {"type": "note_on", "time": 0, "note": 65, "velocity": 108, "channel": 0}, {"type": "note_off", "time": 80, "note": 65, "velocity": 108, "channel": 0}, {"type": "note_on", "time": 21, "note": 62, "velocity": 102, "channel": 0}, {"type": "note_off", "time": 66, "note": 62, "velocity": 102, "channel": 0}, {"type": "note_on", "time": 21, "note": 65, "velocity": 107, "channel": 0}, {"type": "note_off", "time": 80, "note": 65, "velocity": 107, "channel": 0}, {"type": "note_on", "time": 21, "note": 59, "velocity": 87, "channel": 0}, {"type": "note_off", "time": 70, "note": 59, "velocity": 87, "channel": 0}, {"type": "note_on", "time": 10, "note": 62, "velocity": 102, "channel": 0}, {"type": "note_off", "time": 91, "note": 62, "velocity": 102, "channel": 0}, {"type": "note_on", "time": 0, "note": 65, "velocity": 102, "channel": 0}, {"type": "note_on", "time": 94, "note": 68, "velocity": 105, "channel": 0}, {"type": "note_off", "time": 0, "note": 65, "velocity": 102, "channel": 0}, {"type": "note_off", "time": 77, "note": 68, "velocity": 105, "channel": 0}, {"type": "note_on", "time": 3, "note": 71, "velocity": 114, "channel": 0}, {"type": "note_off", "time": 105, "note": 71, "velocity": 114, "channel": 0}, {"type": "note_on", "time": 0, "note": 77, "velocity": 110, "channel": 0}, {"type": "note_off", "time": 77, "note": 77, "velocity": 110, "channel": 0}, {"type": "note_on", "time": 3, "note": 75, "velocity": 99, "channel": 0}, {"type": "note_off", "time": 175, "note": 75, "velocity": 99, "channel": 0}, {"type": "note_on", "time": 98, "note": 67, "velocity": 94, "channel": 0}, {"type": "note_off", "time": 77, "note": 67, "velocity": 94, "channel": 0}, {"type": "note_on", "time": 24, "note": 71, "velocity": 115, "channel": 0}, {"type": "note_off", "time": 91, "note": 71, "velocity": 115, "channel": 0}, {"type": "note_on", "time": 28, "note": 72, "velocity": 107, "channel": 0}, {"type": "note_off", "time": 52, "note": 72, "velocity": 107, "channel": 0}, {"type": "note_on", "time": 3, "note": 75, "velocity": 107, "channel": 0}, {"type": "note_off", "time": 73, "note": 75, "velocity": 107, "channel": 0}, {"type": "note_on", "time": 3, "note": 72, "velocity": 105, "channel": 0}, {"type": "note_off", "time": 101, "note": 72, "velocity": 105, "channel": 0}, {"type": "note_on", "time": 17, "note": 79, "velocity": 108, "channel": 0}, {"type": "note_off", "time": 112, "note": 79, "velocity": 108, "channel": 0}, {"type": "note_on", "time": 0, "note": 76, "velocity": 104, "channel": 0}, {"type": "note_off", "time": 80, "note": 76, "velocity": 104, "channel": 0}, {"type": "note_on", "time": 10, "note": 77, "velocity": 100, "channel": 0}, {"type": "note_off", "time": 91, "note": 77, "velocity": 100, "channel": 0}, {"type": "note_on", "time": 0, "note": 75, "velocity": 101, "channel": 0}, {"type": "note_off", "time": 73, "note": 75, "velocity": 101, "channel": 0}, {"type": "note_on", "time": 10, "note": 72, "velocity": 105, "channel": 0}, {"type": "note_off", "time": 98, "note": 72, "velocity": 105, "channel": 0}, {"type": "note_on", "time": 10, "note": 68, "velocity": 98, "channel": 0}, {"type": "note_off", "time": 84, "note": 68, "velocity": 98, "channel": 0}, {"type": "note_on", "time": 0, "note": 65, "velocity": 98, "channel": 0}, {"type": "note_off", "time": 73, "note": 65, "velocity": 98, "channel": 0}, {"type": "note_on", "time": 94, "note": 76, "velocity": 101, "channel": 0}, {"type": "note_off", "time": 59, "note": 76, "velocity": 101, "channel": 0}, {"type": "note_on", "time": 0, "note": 77, "velocity": 99, "channel": 0}, {"type": "note_off", "time": 73, "note": 77, "velocity": 99, "channel": 0}, {"type": "note_on", "time": 0, "note": 76, "velocity": 96, "channel": 0}, {"type": "note_off", "time": 70, "note": 76, "velocity": 96, "channel": 0}, {"type": "note_on", "time": 3, "note": 77, "velocity": 94, "channel": 0}, {"type": "note_off", "time": 158, "note": 77, "velocity": 94, "channel": 0}, {"type": "note_on", "time": 10, "note": 74, "velocity": 101, "channel": 0}, {"type": "note_on", "time": 70, "note": 75, "velocity": 107, "channel": 0}, {"type": "note_off", "time": 0, "note": 74, "velocity": 101, "channel": 0}, {"type": "note_off", "time": 63, "note": 75, "velocity": 107, "channel": 0}, {"type": "note_on", "time": 0, "note": 74, "velocity": 104, "channel": 0}, {"type": "note_off", "time": 45, "note": 74, "velocity": 104, "channel": 0}, {"type": "note_on", "time": 14, "note": 75, "velocity": 87, "channel": 0}, {"type": "note_off", "time": 186, "note": 75, "velocity": 87, "channel": 0}, {"type": "note_on", "time": 17, "note": 73, "velocity": 104, "channel": 0}, {"type": "note_off", "time": 45, "note": 73, "velocity": 104, "channel": 0}, {"type": "note_on", "time": 0, "note": 74, "velocity": 106, "channel": 0}, {"type": "note_off", "time": 59, "note": 74, "velocity": 106, "channel": 0}, {"type": "note_on", "time": 14, "note": 73, "velocity": 107, "channel": 0}, {"type": "note_off", "time": 59, "note": 73, "velocity": 107, "channel": 0}, {"type": "note_on", "time": 21, "note": 74, "velocity": 91, "channel": 0}, {"type": "note_off", "time": 154, "note": 74, "velocity": 91, "channel": 0}, {"type": "note_on", "time": 35, "note": 72, "velocity": 118, "channel": 0}, {"type": "note_off", "time": 73, "note": 72, "velocity": 118, "channel": 0}, {"type": "note_on", "time": 3, "note": 73, "velocity": 110, "channel": 0}, {"type": "note_on", "time": 70, "note": 72, "velocity": 111, "channel": 0}, {"type": "note_off", "time": 0, "note": 73, "velocity": 110, "channel": 0}, {"type": "note_off", "time": 59, "note": 72, "velocity": 111, "channel": 0}, {"type": "note_on", "time": 7, "note": 73, "velocity": 79, "channel": 0}, {"type": "note_off", "time": 140, "note": 73, "velocity": 79, "channel": 0}, {"type": "note_on", "time": 221, "note": 70, "velocity": 112, "channel": 0}, {"type": "note_off", "time": 45, "note": 70, "velocity": 112, "channel": 0}, {"type": "note_on", "time": 10, "note": 71, "velocity": 124, "channel": 0}, {"type": "note_off", "time": 73, "note": 71, "velocity": 124, "channel": 0}, {"type": "note_on", "time": 3, "note": 72, "velocity": 108, "channel": 0}, {"type": "note_off", "time": 52, "note": 72, "velocity": 108, "channel": 0}, {"type": "note_on", "time": 14, "note": 71, "velocity": 104, "channel": 0}, {"type": "note_off", "time": 91, "note": 71, "velocity": 104, "channel": 0}, {"type": "note_on", "time": 10, "note": 72, "velocity": 102, "channel": 0}, {"type": "note_off", "time": 66, "note": 72, "velocity": 102, "channel": 0}, {"type": "note_on", "time": 14, "note": 71, "velocity": 107, "channel": 0}, {"type": "note_off", "time": 94, "note": 71, "velocity": 107, "channel": 0}, {"type": "note_on", "time": 17, "note": 72, "velocity": 98, "channel": 0}, {"type": "note_off", "time": 73, "note": 72, "velocity": 98, "channel": 0}, {"type": "note_on", "time": 7, "note": 71, "velocity": 110, "channel": 0}, {"type": "note_off", "time": 59, "note": 71, "velocity": 110, "channel": 0}, {"type": "note_on", "time": 3, "note": 72, "velocity": 99, "channel": 0}, {"type": "note_off", "time": 73, "note": 72, "velocity": 99, "channel": 0}, {"type": "note_on", "time": 31, "note": 71, "velocity": 112, "channel": 0}, {"type": "note_off", "time": 87, "note": 71, "velocity": 112, "channel": 0}, {"type": "note_on", "time": 0, "note": 72, "velocity": 107, "channel": 0}, {"type": "note_off", "time": 66, "note": 72, "velocity": 107, "channel": 0}, {"type": "note_on", "time": 7, "note": 71, "velocity": 109, "channel": 0}, {"type": "note_off", "time": 84, "note": 71, "velocity": 109, "channel": 0}, {"type": "note_on", "time": 3, "note": 72, "velocity": 107, "channel": 0}, {"type": "note_off", "time": 56, "note": 72, "velocity": 107, "channel": 0}, {"type": "note_on", "time": 14, "note": 71, "velocity": 112, "channel": 0}, {"type": "note_off", "time": 17, "note": 71, "velocity": 112, "channel": 0}, {"type": "note_on", "time": 10, "note": 72, "velocity": 95, "channel": 0}, {"type": "note_off", "time": 189, "note": 72, "velocity": 95, "channel": 0}, {"type": "note_on", "time": 361, "note": 80, "velocity": 123, "channel": 0}, {"type": "note_off", "time": 140, "note": 80, "velocity": 123, "channel": 0}, {"type": "note_on", "time": 21, "note": 80, "velocity": 111, "channel": 0}, {"type": "note_off", "time": 158, "note": 80, "velocity": 111, "channel": 0}, {"type": "note_on", "time": 10, "note": 77, "velocity": 115, "channel": 0}, {"type": "note_off", "time": 101, "note": 77, "velocity": 115, "channel": 0}, {"type": "note_on", "time": 0, "note": 75, "velocity": 110, "channel": 0}, {"type": "note_off", "time": 84, "note": 75, "velocity": 110, "channel": 0}, {"type": "note_on", "time": 7, "note": 72, "velocity": 106, "channel": 0}, {"type": "note_off", "time": 66, "note": 72, "velocity": 106, "channel": 0}, {"type": "note_on", "time": 24, "note": 70, "velocity": 112, "channel": 0}, {"type": "note_off", "time": 87, "note": 70, "velocity": 112, "channel": 0}, {"type": "note_on", "time": 87, "note": 75, "velocity": 103, "channel": 0}, {"type": "note_off", "time": 217, "note": 75, "velocity": 103, "channel": 0}, {"type": "note_on", "time": 393, "note": 62, "velocity": 103, "channel": 0}, {"type": "note_off", "time": 91, "note": 62, "velocity": 103, "channel": 0}, {"type": "note_on", "time": 14, "note": 65, "velocity": 108, "channel": 0}, {"type": "note_off", "time": 94, "note": 65, "velocity": 108, "channel": 0}, {"type": "note_on", "time": 0, "note": 59, "velocity": 77, "channel": 0}, {"type": "note_off", "time": 73, "note": 59, "velocity": 77, "channel": 0}, {"type": "note_on", "time": 14, "note": 62, "velocity": 95, "channel": 0}, {"type": "note_off", "time": 84, "note": 62, "velocity": 95, "channel": 0}, {"type": "note_on", "time": 10, "note": 65, "velocity": 104, "channel": 0}, {"type": "note_off", "time": 105, "note": 65, "velocity": 104, "channel": 0}, {"type": "note_on", "time": 7, "note": 68, "velocity": 101, "channel": 0}, {"type": "note_off", "time": 63, "note": 68, "velocity": 101, "channel": 0}, {"type": "note_on", "time": 31, "note": 71, "velocity": 121, "channel": 0}, {"type": "note_off", "time": 84, "note": 71, "velocity": 121, "channel": 0}, {"type": "note_on", "time": 17, "note": 74, "velocity": 122, "channel": 0}, {"type": "note_off", "time": 63, "note": 74, "velocity": 122, "channel": 0}, {"type": "note_on", "time": 21, "note": 72, "velocity": 100, "channel": 0}, {"type": "note_off", "time": 172, "note": 72, "velocity": 100, "channel": 0}, {"type": "note_on", "time": 14, "note": 79, "velocity": 114, "channel": 0}, {"type": "note_off", "time": 168, "note": 79, "velocity": 114, "channel": 0}, {"type": "note_on", "time": 14, "note": 82, "velocity": 119, "channel": 0}, {"type": "note_off", "time": 98, "note": 82, "velocity": 119, "channel": 0}, {"type": "note_on", "time": 309, "note": 83, "velocity": 110, "channel": 0}, {"type": "note_off", "time": 115, "note": 83, "velocity": 110, "channel": 0}, {"type": "note_on", "time": 0, "note": 84, "velocity": 111, "channel": 0}, {"type": "note_off", "time": 77, "note": 84, "velocity": 111, "channel": 0}, {"type": "note_on", "time": 17, "note": 79, "velocity": 113, "channel": 0}, {"type": "note_off", "time": 80, "note": 79, "velocity": 113, "channel": 0}, {"type": "note_on", "time": 0, "note": 82, "velocity": 114, "channel": 0}, {"type": "note_off", "time": 87, "note": 82, "velocity": 114, "channel": 0}, {"type": "note_on", "time": 7, "note": 80, "velocity": 117, "channel": 0}, {"type": "note_off", "time": 77, "note": 80, "velocity": 117, "channel": 0}, {"type": "note_on", "time": 28, "note": 77, "velocity": 111, "channel": 0}, {"type": "note_off", "time": 80, "note": 77, "velocity": 111, "channel": 0}, {"type": "note_on", "time": 0, "note": 75, "velocity": 113, "channel": 0}, {"type": "note_off", "time": 84, "note": 75, "velocity": 113, "channel": 0}, {"type": "note_on", "time": 3, "note": 72, "velocity": 115, "channel": 0}, {"type": "note_off", "time": 91, "note": 72, "velocity": 115, "channel": 0}, {"type": "note_on", "time": 7, "note": 70, "velocity": 123, "channel": 0}, {"type": "note_off", "time": 87, "note": 70, "velocity": 123, "channel": 0}, {"type": "note_on", "time": 21, "note": 68, "velocity": 108, "channel": 0}, {"type": "note_off", "time": 84, "note": 68, "velocity": 108, "channel": 0}, {"type": "note_on", "time": 3, "note": 65, "velocity": 104, "channel": 0}, {"type": "note_off", "time": 165, "note": 65, "velocity": 104, "channel": 0}, {"type": "note_on", "time": 42, "note": 73, "velocity": 113, "channel": 0}, {"type": "note_off", "time": 87, "note": 73, "velocity": 113, "channel": 0}, {"type": "note_on", "time": 10, "note": 75, "velocity": 108, "channel": 0}, {"type": "note_off", "time": 66, "note": 75, "velocity": 108, "channel": 0}, {"type": "note_on", "time": 14, "note": 71, "velocity": 114, "channel": 0}, {"type": "note_off", "time": 98, "note": 71, "velocity": 114, "channel": 0}, {"type": "note_on", "time": 10, "note": 72, "velocity": 108, "channel": 0}, {"type": "note_off", "time": 84, "note": 72, "velocity": 108, "channel": 0}, {"type": "note_on", "time": 0, "note": 63, "velocity": 95, "channel": 0}, {"type": "note_off", "time": 84, "note": 63, "velocity": 95, "channel": 0}, {"type": "note_on", "time": 0, "note": 66, "velocity": 97, "channel": 0}, {"type": "note_off", "time": 52, "note": 66, "velocity": 97, "channel": 0}, {"type": "note_on", "time": 3, "note": 67, "velocity": 100, "channel": 0}, {"type": "note_on", "time": 31, "note": 71, "velocity": 120, "channel": 0}, {"type": "note_off", "time": 0, "note": 67, "velocity": 100, "channel": 0}, {"type": "note_off", "time": 105, "note": 71, "velocity": 120, "channel": 0}, {"type": "note_on", "time": 0, "note": 72, "velocity": 112, "channel": 0}, {"type": "note_off", "time": 80, "note": 72, "velocity": 112, "channel": 0}, {"type": "note_on", "time": 3, "note": 75, "velocity": 111, "channel": 0}, {"type": "note_off", "time": 77, "note": 75, "velocity": 111, "channel": 0}, {"type": "note_on", "time": 14, "note": 72, "velocity": 109, "channel": 0}, {"type": "note_off", "time": 77, "note": 72, "velocity": 109, "channel": 0}, {"type": "note_on", "time": 28, "note": 79, "velocity": 111, "channel": 0}, {"type": "note_off", "time": 73, "note": 79, "velocity": 111, "channel": 0}, {"type": "note_on", "time": 14, "note": 80, "velocity": 115, "channel": 0}, {"type": "note_off", "time": 87, "note": 80, "velocity": 115, "channel": 0}, {"type": "note_on", "time": 7, "note": 81, "velocity": 127, "channel": 0}, {"type": "note_off", "time": 87, "note": 81, "velocity": 127, "channel": 0}, {"type": "note_on", "time": 3, "note": 82, "velocity": 116, "channel": 0}, {"type": "note_off", "time": 84, "note": 82, "velocity": 116, "channel": 0}, {"type": "note_on", "time": 3, "note": 83, "velocity": 112, "channel": 0}, {"type": "note_off", "time": 77, "note": 83, "velocity": 112, "channel": 0}, {"type": "note_on", "time": 3, "note": 84, "velocity": 110, "channel": 0}, {"type": "note_off", "time": 84, "note": 84, "velocity": 110, "channel": 0}, {"type": "note_on", "time": 7, "note": 82, "velocity": 111, "channel": 0}, {"type": "note_off", "time": 73, "note": 82, "velocity": 111, "channel": 0}, {"type": "note_on", "time": 24, "note": 81, "velocity": 123, "channel": 0}, {"type": "note_off", "time": 119, "note": 81, "velocity": 123, "channel": 0}, {"type": "note_on", "time": 7, "note": 80, "velocity": 107, "channel": 0}, {"type": "note_off", "time": 98, "note": 80, "velocity": 107, "channel": 0}, {"type": "end_of_track", "time": 0}]]}