{"ticks_per_beat": 192, "tracks": [[{"type": "track_name", "name": "Melody", "time": 0}, {"type": "set_tempo", "tempo": 292682, "time": 0}, {"type": "key_signature", "key": "Bb", "time": 0}, {"type": "time_signature", "numerator": 4, "denominator": 4, "clocks_per_click": 24, "notated_32nd_notes_per_beat": 8, "time": 0}, {"type": "note_on", "time": 4732, "note": 60, "velocity": 106, "channel": 0}, {"type": "note_off", "time": 24, "note": 60, "velocity": 106, "channel": 0}, {"type": "note_on", "time": 6, "note": 61, "velocity": 105, "channel": 0}, {"type": "note_off", "time": 80, "note": 61, "velocity": 105, "channel": 0}, {"type": "note_on", "time": 10, "note": 62, "velocity": 102, "channel": 0}, {"type": "note_off", "time": 77, "note": 62, "velocity": 102, "channel": 0}, {"type": "note_on", "time": 10, "note": 65, "velocity": 115, "channel": 0}, {"type": "note_off", "time": 77, "note": 65, "velocity": 115, "channel": 0}, {"type": "note_on", "time": 17, "note": 67, "velocity": 108, "channel": 0}, {"type": "note_off", "time": 99, "note": 67, "velocity": 108, "channel": 0}, {"type": "note_on", "time": 8, "note": 65, "velocity": 105, "channel": 0}, {"type": "note_off", "time": 79, "note": 65, "velocity": 105, "channel": 0}, {"type": "note_on", "time": 24, "note": 74, "velocity": 96, "channel": 0}, {"type": "note_off", "time": 86, "note": 74, "velocity": 96, "channel": 0}, {"type": "note_on", "time": 8, "note": 73, "velocity": 109, "channel": 0}, {"type": "note_off", "time": 76, "note": 73, "velocity": 109, "channel": 0}, {"type": "note_on", "time": 5, "note": 72, "velocity": 107, "channel": 0}, {"type": "note_off", "time": 121, "note": 72, "velocity": 107, "channel": 0}, {"type": "note_on", "time": 4, "note": 71, "velocity": 104, "channel": 0}, {"type": "note_off", "time": 77, "note": 71, "velocity": 104, "channel": 0}, {"type": "note_on", "time": 9, "note": 70, "velocity": 103, "channel": 0}, {"type": "note_off", "time": 91, "note": 70, "velocity": 103, "channel": 0}, {"type": "note_on", "time": 12, "note": 65, "velocity": 107, "channel": 0}, {"type": "note_off", "time": 70, "note": 65, "velocity": 107, "channel": 0}, {"type": "note_on", "time": 10, "note": 62, "velocity": 96, "channel": 0}, {"type": "note_off", "time": 80, "note": 62, "velocity": 96, "channel": 0}, {"type": "note_on", "time": 2, "note": 60, "velocity": 95, "channel": 0}, {"type": "note_off", "time": 60, "note": 60, "velocity": 95, "channel": 0}, {"type": "note_on", "time": 11, "note": 58, "velocity": 103, "channel": 0}, {"type": "note_off", "time": 134, "note": 58, "velocity": 103, "channel": 0}, {"type": "note_on", "time": 16, "note": 55, "velocity": 103, "channel": 0}, {"type": "note_off", "time": 66, "note": 55, "velocity": 103, "channel": 0}, {"type": "note_on", "time": 19, "note": 53, "velocity": 92, "channel": 0}, {"type": "note_off", "time": 60, "note": 53, "velocity": 92, "channel": 0}, {"type": "note_on", "time": 56, "note": 60, "velocity": 100, "channel": 0}, {"type": "note_off", "time": 53, "note": 60, "velocity": 100, "channel": 0}, {"type": "note_on", "time": 11, "note": 58, "velocity": 93, "channel": 0}, {"type": "note_off", "time": 98, "note": 58, "velocity": 93, "channel": 0}, {"type": "note_on", "time": 13, "note": 61, "velocity": 92, "channel": 0}, {"type": "note_off", "time": 63, "note": 61, "velocity": 92, "channel": 0}, {"type": "note_on", "time": 17, "note": 65, "velocity": 110, "channel": 0}, {"type": "note_off", "time": 106, "note": 65, "velocity": 110, "channel": 0}, {"type": "note_on", "time": 73, "note": 65, "velocity": 106, "channel": 0}, {"type": "note_off", "time": 100, "note": 65, "velocity": 106, "channel": 0}, {"type": "note_on", "time": 24, "note": 70, "velocity": 104, "channel": 0}, {"type": "note_off", "time": 69, "note": 70, "velocity": 104, "channel": 0}, {"type": "note_on", "time": 20, "note": 65, "velocity": 98, "channel": 0}, {"type": "note_off", "time": 68, "note": 65, "velocity": 98, "channel": 0}, {"type": "note_on", "time": 36, "note": 70, "velocity": 101, "channel": 0}, {"type": "note_off", "time": 64, "note": 70, "velocity": 101, "channel": 0}, {"type": "note_on", "time": 5, "note": 73, "velocity": 105, "channel": 0}, {"type": "note_off", "time": 88, "note": 73, "velocity": 105, "channel": 0}, {"type": "note_on", "time": 9, "note": 72, "velocity": 105, "channel": 0}, {"type": "note_off", "time": 54, "note": 72, "velocity": 105, "channel": 0}, {"type": "note_on", "time": 5, "note": 71, "velocity": 103, "channel": 0}, {"type": "note_off", "time": 32, "note": 71, "velocity": 103, "channel": 0}, {"type": "note_on", "time": 1, "note": 70, "velocity": 105, "channel": 0}, {"type": "note_off", "time": 99, "note": 70, "velocity": 105, "channel": 0}, {"type": "note_on", "time": 5, "note": 67, "velocity": 112, "channel": 0}, {"type": "note_off", "time": 63, "note": 67, "velocity": 112, "channel": 0}, {"type": "note_on", "time": 26, "note": 61, "velocity": 102, "channel": 0}, {"type": "note_off", "time": 66, "note": 61, "velocity": 102, "channel": 0}, {"type": "note_on", "time": 13, "note": 60, "velocity": 97, "channel": 0}, {"type": "note_off", "time": 32, "note": 60, "velocity": 97, "channel": 0}, {"type": "note_on", "time": 7, "note": 59, "velocity": 103, "channel": 0}, {"type": "note_off", "time": 28, "note": 59, "velocity": 103, "channel": 0}, {"type": "note_on", "time": 12, "note": 58, "velocity": 103, "channel": 0}, {"type": "note_off", "time": 103, "note": 58, "velocity": 103, "channel": 0}, {"type": "note_on", "time": 50, "note": 56, "velocity": 103, "channel": 0}, {"type": "note_off", "time": 45, "note": 56, "velocity": 103, "channel": 0}, {"type": "note_on", "time": 27, "note": 57, "velocity": 93, "channel": 0}, {"type": "note_off", "time": 68, "note": 57, "velocity": 93, "channel": 0}, {"type": "note_on", "time": 27, "note": 58, "velocity": 100, "channel": 0}, {"type": "note_off", "time": 56, "note": 58, "velocity": 100, "channel": 0}, {"type": "note_on", "time": 52, "note": 59, "velocity": 93, "channel": 0}, {"type": "note_off", "time": 61, "note": 59, "velocity": 93, "channel": 0}, {"type": "note_on", "time": 33, "note": 60, "velocity": 95, "channel": 0}, {"type": "note_off", "time": 52, "note": 60, "velocity": 95, "channel": 0}, {"type": "note_on", "time": 22, "note": 62, "velocity": 96, "channel": 0}, {"type": "note_off", "time": 62, "note": 62, "velocity": 96, "channel": 0}, {"type": "note_on", "time": 50, "note": 59, "velocity": 92, "channel": 0}, {"type": "note_off", "time": 59, "note": 59, "velocity": 92, "channel": 0}, {"type": "note_on", "time": 34, "note": 60, "velocity": 86, "channel": 0}, {"type": "note_off", "time": 56, "note": 60, "velocity": 86, "channel": 0}, {"type": "note_on", "time": 34, "note": 62, "velocity": 95, "channel": 0}, {"type": "note_off", "time": 60, "note": 62, "velocity": 95, "channel": 0}, {"type": "note_on", "time": 23, "note": 64, "velocity": 96, "channel": 0}, {"type": "note_off", "time": 78, "note": 64, "velocity": 96, "channel": 0}, {"type": "note_on", "time": 21, "note": 65, "velocity": 110, "channel": 0}, {"type": "note_off", "time": 75, "note": 65, "velocity": 110, "channel": 0}, {"type": "note_on", "time": 9, "note": 67, "velocity": 110, "channel": 0}, {"type": "note_off", "time": 113, "note": 67, "velocity": 110, "channel": 0}, {"type": "note_on", "time": 25, "note": 64, "velocity": 94, "channel": 0}, {"type": "note_off", "time": 64, "note": 64, "velocity": 94, "channel": 0}, {"type": "note_on", "time": 10, "note": 65, "velocity": 108, "channel": 0}, {"type": "note_off", "time": 78, "note": 65, "velocity": 108, "channel": 0}, {"type": "note_on", "time": 9, "note": 67, "velocity": 104, "channel": 0}, {"type": "note_off", "time": 87, "note": 67, "velocity": 104, "channel": 0}, {"type": "note_on", "time": 401, "note": 67, "velocity": 106, "channel": 0}, {"type": "note_off", "time": 64, "note": 67, "velocity": 106, "channel": 0}, {"type": "note_on", "time": 50, "note": 68, "velocity": 111, "channel": 0}, {"type": "note_off", "time": 67, "note": 68, "velocity": 111, "channel": 0}, {"type": "note_on", "time": 64, "note": 64, "velocity": 87, "channel": 0}, {"type": "note_off", "time": 62, "note": 64, "velocity": 87, "channel": 0}, {"type": "note_on", "time": 43, "note": 65, "velocity": 108, "channel": 0}, {"type": "note_off", "time": 99, "note": 65, "velocity": 108, "channel": 0}, {"type": "note_on", "time": 60, "note": 61, "velocity": 95, "channel": 0}, {"type": "note_off", "time": 73, "note": 61, "velocity": 95, "channel": 0}, {"type": "note_on", "time": 99, "note": 62, "velocity": 97, "channel": 0}, {"type": "note_off", "time": 82, "note": 62, "velocity": 97, "channel": 0}, {"type": "note_on", "time": 113, "note": 58, "velocity": 101, "channel": 0}, {"type": "note_off", "time": 58, "note": 58, "velocity": 101, "channel": 0}, {"type": "note_on", "time": 16, "note": 59, "velocity": 94, "channel": 0}, {"type": "note_off", "time": 70, "note": 59, "velocity": 94, "channel": 0}, {"type": "note_on", "time": 41, "note": 55, "velocity": 96, "channel": 0}, {"type": "note_off", "time": 65, "note": 55, "velocity": 96, "channel": 0}, {"type": "note_on", "time": 18, "note": 56, "velocity": 97, "channel": 0}, {"type": "note_off", "time": 64, "note": 56, "velocity": 97, "channel": 0}, {"type": "note_on", "time": 61, "note": 62, "velocity": 96, "channel": 0}, {"type": "note_off", "time": 57, "note": 62, "velocity": 96, "channel": 0}, {"type": "note_on", "time": 15, "note": 58, "velocity": 93, "channel": 0}, {"type": "note_off", "time": 152, "note": 58, "velocity": 93, "channel": 0}, {"type": "note_on", "time": 333, "note": 55, "velocity": 100, "channel": 0}, {"type": "note_off", "time": 22, "note": 55, "velocity": 100, "channel": 0}, {"type": "note_on", "time": 15, "note": 58, "velocity": 102, "channel": 0}, {"type": "note_off", "time": 64, "note": 58, "velocity": 102, "channel": 0}, {"type": "note_on", "time": 6, "note": 62, "velocity": 91, "channel": 0}, {"type": "note_off", "time": 69, "note": 62, "velocity": 91, "channel": 0}, {"type": "note_on", "time": 12, "note": 65, "velocity": 113, "channel": 0}, {"type": "note_off", "time": 85, "note": 65, "velocity": 113, "channel": 0}, {"type": "note_on", "time": 19, "note": 64, "velocity": 102, "channel": 0}, {"type": "note_off", "time": 73, "note": 64, "velocity": 102, "channel": 0}, {"type": "note_on", "time": 12, "note": 67, "velocity": 111, "channel": 0}, {"type": "note_off", "time": 79, "note": 67, "velocity": 111, "channel": 0}, {"type": "note_on", "time": 15, "note": 70, "velocity": 102, "channel": 0}, {"type": "note_off", "time": 88, "note": 70, "velocity": 102, "channel": 0}, {"type": "note_on", "time": 20, "note": 74, "velocity": 104, "channel": 0}, {"type": "note_off", "time": 85, "note": 74, "velocity": 104, "channel": 0}, {"type": "note_on", "time": 11, "note": 72, "velocity": 104, "channel": 0}, {"type": "note_off", "time": 35, "note": 72, "velocity": 104, "channel": 0}, {"type": "note_on", "time": 3, "note": 74, "velocity": 103, "channel": 0}, {"type": "note_off", "time": 43, "note": 74, "velocity": 103, "channel": 0}, {"type": "note_on", "time": 5, "note": 72, "velocity": 103, "channel": 0}, {"type": "note_off", "time": 38, "note": 72, "velocity": 103, "channel": 0}, {"type": "note_on", "time": 12, "note": 71, "velocity": 102, "channel": 0}, {"type": "note_off", "time": 37, "note": 71, "velocity": 102, "channel": 0}, {"type": "note_on", "time": 10, "note": 70, "velocity": 96, "channel": 0}, {"type": "note_off", "time": 27, "note": 70, "velocity": 96, "channel": 0}, {"type": "note_on", "time": 8, "note": 67, "velocity": 102, "channel": 0}, {"type": "note_off", "time": 23, "note": 67, "velocity": 102, "channel": 0}, {"type": "note_on", "time": 13, "note": 64, "velocity": 96, "channel": 0}, {"type": "note_off", "time": 26, "note": 64, "velocity": 96, "channel": 0}, {"type": "note_on", "time": 9, "note": 61, "velocity": 95, "channel": 0}, {"type": "note_off", "time": 50, "note": 61, "velocity": 95, "channel": 0}, {"type": "note_on", "time": 15, "note": 60, "velocity": 99, "channel": 0}, {"type": "note_off", "time": 67, "note": 60, "velocity": 99, "channel": 0}, {"type": "note_on", "time": 58, "note": 69, "velocity": 105, "channel": 0}, {"type": "note_off", "time": 69, "note": 69, "velocity": 105, "channel": 0}, {"type": "note_on", "time": 20, "note": 64, "velocity": 96, "channel": 0}, {"type": "note_off", "time": 70, "note": 64, "velocity": 96, "channel": 0}, {"type": "note_on", "time": 25, "note": 60, "velocity": 96, "channel": 0}, {"type": "note_off", "time": 45, "note": 60, "velocity": 96, "channel": 0}, {"type": "note_on", "time": 3, "note": 59, "velocity": 98, "channel": 0}, {"type": "note_off", "time": 18, "note": 59, "velocity": 98, "channel": 0}, {"type": "note_on", "time": 10, "note": 58, "velocity": 95, "channel": 0}, {"type": "note_off", "time": 83, "note": 58, "velocity": 95, "channel": 0}, {"type": "note_on", "time": 31, "note": 56, "velocity": 105, "channel": 0}, {"type": "note_off", "time": 67, "note": 56, "velocity": 105, "channel": 0}, {"type": "note_on", "time": 28, "note": 57, "velocity": 93, "channel": 0}, {"type": "note_off", "time": 44, "note": 57, "velocity": 93, "channel": 0}, {"type": "note_on", "time": 39, "note": 60, "velocity": 91, "channel": 0}, {"type": "note_off", "time": 59, "note": 60, "velocity": 91, "channel": 0}, {"type": "note_on", "time": 26, "note": 67, "velocity": 102, "channel": 0}, {"type": "note_off", "time": 80, "note": 67, "velocity": 102, "channel": 0}, {"type": "note_on", "time": 22, "note": 64, "velocity": 94, "channel": 0}, {"type": "note_off", "time": 80, "note": 64, "velocity": 94, "channel": 0}, {"type": "note_on", "time": 11, "note": 65, "velocity": 100, "channel": 0}, {"type": "note_off", "time": 78, "note": 65, "velocity": 100, "channel": 0}, {"type": "note_on", "time": 24, "note": 69, "velocity": 104, "channel": 0}, {"type": "note_off", "time": 63, "note": 69, "velocity": 104, "channel": 0}, {"type": "note_on", "time": 22, "note": 72, "velocity": 101, "channel": 0}, {"type": "note_off", "time": 83, "note": 72, "velocity": 101, "channel": 0}, {"type": "note_on", "time": 29, "note": 76, "velocity": 90, "channel": 0}, {"type": "note_off", "time": 62, "note": 76, "velocity": 90, "channel": 0}, {"type": "note_on", "time": 63, "note": 77, "velocity": 86, "channel": 0}, {"type": "note_off", "time": 28, "note": 77, "velocity": 86, "channel": 0}, {"type": "note_on", "time": 19, "note": 79, "velocity": 92, "channel": 0}, {"type": "note_off", "time": 135, "note": 79, "velocity": 92, "channel": 0}, {"type": "note_on", "time": 63, "note": 75, "velocity": 99, "channel": 0}, {"type": "note_off", "time": 32, "note": 75, "velocity": 99, "channel": 0}, {"type": "note_on", "time": 5, "note": 76, "velocity": 92, "channel": 0}, {"type": "note_off", "time": 60, "note": 76, "velocity": 92, "channel": 0}, {"type": "note_on", "time": 60, "note": 70, "velocity": 95, "channel": 0}, {"type": "note_off", "time": 51, "note": 70, "velocity": 95, "channel": 0}, {"type": "note_on", "time": 13, "note": 71, "velocity": 96, "channel": 0}, {"type": "note_off", "time": 55, "note": 71, "velocity": 96, "channel": 0}, {"type": "note_on", "time": 48, "note": 67, "velocity": 97, "channel": 0}, {"type": "note_off", "time": 124, "note": 67, "velocity": 97, "channel": 0}, {"type": "note_on", "time": 42, "note": 69, "velocity": 98, "channel": 0}, {"type": "note_off", "time": 105, "note": 69, "velocity": 98, "channel": 0}, {"type": "note_on", "time": 49, "note": 65, "velocity": 99, "channel": 0}, {"type": "note_off", "time": 115, "note": 65, "velocity": 99, "channel": 0}, {"type": "note_on", "time": 58, "note": 62, "velocity": 96, "channel": 0}, {"type": "note_off", "time": 110, "note": 62, "velocity": 96, "channel": 0}, {"type": "note_on", "time": 79, "note": 59, "velocity": 98, "channel": 0}, {"type": "note_off", "time": 81, "note": 59, "velocity": 98, "channel": 0}, {"type": "note_on", "time": 114, "note": 55, "velocity": 101, "channel": 0}, {"type": "note_off", "time": 47, "note": 55, "velocity": 101, "channel": 0}, {"type": "note_on", "time": 37, "note": 64, "velocity": 95, "channel": 0}, {"type": "note_off", "time": 127, "note": 64, "velocity": 95, "channel": 0}, {"type": "note_on", "time": 409, "note": 60, "velocity": 107, "channel": 0}, {"type": "note_off", "time": 38, "note": 60, "velocity": 107, "channel": 0}, {"type": "note_on", "time": 7, "note": 62, "velocity": 102, "channel": 0}, {"type": "note_off", "time": 19, "note": 62, "velocity": 102, "channel": 0}, {"type": "note_on", "time": 12, "note": 60, "velocity": 102, "channel": 0}, {"type": "note_off", "time": 30, "note": 60, "velocity": 102, "channel": 0}, {"type": "note_on", "time": 16, "note": 59, "velocity": 105, "channel": 0}, {"type": "note_off", "time": 54, "note": 59, "velocity": 105, "channel": 0}, {"type": "note_on", "time": 18, "note": 58, "velocity": 104, "channel": 0}, {"type": "note_off", "time": 71, "note": 58, "velocity": 104, "channel": 0}, {"type": "note_on", "time": 30, "note": 56, "velocity": 109, "channel": 0}, {"type": "note_off", "time": 74, "note": 56, "velocity": 109, "channel": 0}, {"type": "note_on", "time": 19, "note": 57, "velocity": 95, "channel": 0}, {"type": "note_off", "time": 79, "note": 57, "velocity": 95, "channel": 0}, {"type": "note_on", "time": 27, "note": 60, "velocity": 96, "channel": 0}, {"type": "note_off", "time": 60, "note": 60, "velocity": 96, "channel": 0}, {"type": "note_on", "time": 24, "note": 65, "velocity": 110, "channel": 0}, {"type": "note_off", "time": 81, "note": 65, "velocity": 110, "channel": 0}, {"type": "note_on", "time": 6, "note": 66, "velocity": 106, "channel": 0}, {"type": "note_off", "time": 79, "note": 66, "velocity": 106, "channel": 0}, {"type": "note_on", "time": 21, "note": 63, "velocity": 97, "channel": 0}, {"type": "note_off", "time": 78, "note": 63, "velocity": 97, "channel": 0}, {"type": "note_on", "time": 37, "note": 59, "velocity": 98, "channel": 0}, {"type": "note_off", "time": 62, "note": 59, "velocity": 98, "channel": 0}, {"type": "note_on", "time": 22, "note": 58, "velocity": 95, "channel": 0}, {"type": "note_off", "time": 86, "note": 58, "velocity": 95, "channel": 0}, {"type": "note_on", "time": 11, "note": 65, "velocity": 110, "channel": 0}, {"type": "note_off", "time": 75, "note": 65, "velocity": 110, "channel": 0}, {"type": "note_on", "time": 28, "note": 62, "velocity": 95, "channel": 0}, {"type": "note_off", "time": 59, "note": 62, "velocity": 95, "channel": 0}, {"type": "note_on", "time": 48, "note": 57, "velocity": 96, "channel": 0}, {"type": "note_off", "time": 72, "note": 57, "velocity": 96, "channel": 0}, {"type": "note_on", "time": 13, "note": 60, "velocity": 96, "channel": 0}, {"type": "note_off", "time": 97, "note": 60, "velocity": 96, "channel": 0}, {"type": "note_on", "time": 57, "note": 58, "velocity": 94, "channel": 0}, {"type": "note_off", "time": 484, "note": 58, "velocity": 94, "channel": 0}, {"type": "note_on", "time": 5, "note": 60, "velocity": 91, "channel": 0}, {"type": "note_off", "time": 52, "note": 60, "velocity": 91, "channel": 0}, {"type": "note_on", "time": 8, "note": 62, "velocity": 94, "channel": 0}, {"type": "note_off", "time": 59, "note": 62, "velocity": 94, "channel": 0}, {"type": "note_on", "time": 6, "note": 65, "velocity": 106, "channel": 0}, {"type": "note_off", "time": 85, "note": 65, "velocity": 106, "channel": 0}, {"type": "note_on", "time": 21, "note": 69, "velocity": 110, "channel": 0}, {"type": "note_off", "time": 61, "note": 69, "velocity": 110, "channel": 0}, {"type": "note_on", "time": 18, "note": 72, "velocity": 101, "channel": 0}, {"type": "note_off", "time": 99, "note": 72, "velocity": 101, "channel": 0}, {"type": "note_on", "time": 13, "note": 69, "velocity": 105, "channel": 0}, {"type": "note_off", "time": 62, "note": 69, "velocity": 105, "channel": 0}, {"type": "note_on", "time": 20, "note": 70, "velocity": 100, "channel": 0}, {"type": "note_off", "time": 82, "note": 70, "velocity": 100, "channel": 0}, {"type": "note_on", "time": 21, "note": 72, "velocity": 102, "channel": 0}, {"type": "note_off", "time": 46, "note": 72, "velocity": 102, "channel": 0}, {"type": "note_on", "time": 10, "note": 70, "velocity": 100, "channel": 0}, {"type": "note_off", "time": 24, "note": 70, "velocity": 100, "channel": 0}, {"type": "note_on", "time": 19, "note": 69, "velocity": 101, "channel": 0}, {"type": "note_off", "time": 54, "note": 69, "velocity": 101, "channel": 0}, {"type": "note_on", "time": 42, "note": 70, "velocity": 103, "channel": 0}, {"type": "note_off", "time": 101, "note": 70, "velocity": 103, "channel": 0}, {"type": "note_on", "time": 29, "note": 72, "velocity": 91, "channel": 0}, {"type": "note_off", "time": 36, "note": 72, "velocity": 91, "channel": 0}, {"type": "note_on", "time": 4, "note": 70, "velocity": 97, "channel": 0}, {"type": "note_off", "time": 13, "note": 70, "velocity": 97, "channel": 0}, {"type": "note_on", "time": 2, "note": 69, "velocity": 103, "channel": 0}, {"type": "note_off", "time": 62, "note": 69, "velocity": 103, "channel": 0}, {"type": "note_on", "time": 42, "note": 70, "velocity": 103, "channel": 0}, {"type": "note_off", "time": 119, "note": 70, "velocity": 103, "channel": 0}, {"type": "note_on", "time": 8, "note": 72, "velocity": 91, "channel": 0}, {"type": "note_off", "time": 26, "note": 72, "velocity": 91, "channel": 0}, {"type": "note_on", "time": 18, "note": 69, "velocity": 101, "channel": 0}, {"type": "note_off", "time": 94, "note": 69, "velocity": 101, "channel": 0}, {"type": "note_on", "time": 35, "note": 70, "velocity": 106, "channel": 0}, {"type": "note_off", "time": 109, "note": 70, "velocity": 106, "channel": 0}, {"type": "note_on", "time": 11, "note": 72, "velocity": 99, "channel": 0}, {"type": "note_off", "time": 31, "note": 72, "velocity": 99, "channel": 0}, {"type": "note_on", "time": 15, "note": 70, "velocity": 99, "channel": 0}, {"type": "note_off", "time": 39, "note": 70, "velocity": 99, "channel": 0}, {"type": "note_on", "time": 21, "note": 69, "velocity": 97, "channel": 0}, {"type": "note_off", "time": 59, "note": 69, "velocity": 97, "channel": 0}, {"type": "note_on", "time": 18, "note": 70, "velocity": 106, "channel": 0}, {"type": "note_off", "time": 150, "note": 70, "velocity": 106, "channel": 0}, {"type": "note_on", "time": 7, "note": 67, "velocity": 101, "channel": 0}, {"type": "note_off", "time": 81, "note": 67, "velocity": 101, "channel": 0}, {"type": "note_on", "time": 43, "note": 68, "velocity": 101, "channel": 0}, {"type": "note_off", "time": 69, "note": 68, "velocity": 101, "channel": 0}, {"type": "note_on", "time": 11, "note": 69, "velocity": 98, "channel": 0}, {"type": "note_off", "time": 81, "note": 69, "velocity": 98, "channel": 0}, {"type": "note_on", "time": 44, "note": 71, "velocity": 103, "channel": 0}, {"type": "note_off", "time": 40, "note": 71, "velocity": 103, "channel": 0}, {"type": "note_on", "time": 13, "note": 72, "velocity": 103, "channel": 0}, {"type": "note_off", "time": 102, "note": 72, "velocity": 103, "channel": 0}, {"type": "note_on", "time": 25, "note": 69, "velocity": 110, "channel": 0}, {"type": "note_off", "time": 64, "note": 69, "velocity": 110, "channel": 0}, {"type": "note_on", "time": 17, "note": 64, "velocity": 91, "channel": 0}, {"type": "note_off", "time": 99, "note": 64, "velocity": 91, "channel": 0}, {"type": "note_on", "time": 35, "note": 64, "velocity": 87, "channel": 0}, {"type": "note_off", "time": 33, "note": 64, "velocity": 87, "channel": 0}, {"type": "note_on", "time": 5, "note": 67, "velocity": 102, "channel": 0}, {"type": "note_off", "time": 117, "note": 67, "velocity": 102, "channel": 0}, {"type": "note_on", "time": 17, "note": 64, "velocity": 87, "channel": 0}, {"type": "note_off", "time": 44, "note": 64, "velocity": 87, "channel": 0}, {"type": "note_on", "time": 3, "note": 65, "velocity": 106, "channel": 0}, {"type": "note_off", "time": 107, "note": 65, "velocity": 106, "channel": 0}, {"type": "note_on", "time": 66, "note": 76, "velocity": 99, "channel": 0}, {"type": "note_off", "time": 58, "note": 76, "velocity": 99, "channel": 0}, {"type": "note_on", "time": 95, "note": 71, "velocity": 98, "channel": 0}, {"type": "note_off", "time": 30, "note": 71, "velocity": 98, "channel": 0}, {"type": "note_on", "time": 4, "note": 72, "velocity": 104, "channel": 0}, {"type": "note_off", "time": 51, "note": 72, "velocity": 104, "channel": 0}, {"type": "note_on", "time": 233, "note": 73, "velocity": 102, "channel": 0}, {"type": "note_off", "time": 39, "note": 73, "velocity": 102, "channel": 0}, {"type": "note_on", "time": 3, "note": 74, "velocity": 96, "channel": 0}, {"type": "note_off", "time": 45, "note": 74, "velocity": 96, "channel": 0}, {"type": "note_on", "time": 80, "note": 70, "velocity": 96, "channel": 0}, {"type": "note_off", "time": 52, "note": 70, "velocity": 96, "channel": 0}, {"type": "note_on", "time": 84, "note": 71, "velocity": 95, "channel": 0}, {"type": "note_off", "time": 44, "note": 71, "velocity": 95, "channel": 0}, {"type": "note_on", "time": 79, "note": 67, "velocity": 100, "channel": 0}, {"type": "note_off", "time": 59, "note": 67, "velocity": 100, "channel": 0}, {"type": "note_on", "time": 73, "note": 68, "velocity": 104, "channel": 0}, {"type": "note_off", "time": 67, "note": 68, "velocity": 104, "channel": 0}, {"type": "note_on", "time": 102, "note": 64, "velocity": 90, "channel": 0}, {"type": "note_off", "time": 55, "note": 64, "velocity": 90, "channel": 0}, {"type": "note_on", "time": 37, "note": 65, "velocity": 94, "channel": 0}, {"type": "note_off", "time": 60, "note": 65, "velocity": 94, "channel": 0}, {"type": "note_on", "time": 54, "note": 61, "velocity": 85, "channel": 0}, {"type": "note_off", "time": 45, "note": 61, "velocity": 85, "channel": 0}, {"type": "note_on", "time": 42, "note": 62, "velocity": 87, "channel": 0}, {"type": "note_off", "time": 49, "note": 62, "velocity": 87, "channel": 0}, {"type": "note_on", "time": 51, "note": 58, "velocity": 96, "channel": 0}, {"type": "note_off", "time": 41, "note": 58, "velocity": 96, "channel": 0}, {"type": "note_on", "time": 53, "note": 59, "velocity": 99, "channel": 0}, {"type": "note_off", "time": 45, "note": 59, "velocity": 99, "channel": 0}, {"type": "note_on", "time": 35, "note": 55, "velocity": 100, "channel": 0}, {"type": "note_off", "time": 51, "note": 55, "velocity": 100, "channel": 0}, {"type": "note_on", "time": 50, "note": 56, "velocity": 100, "channel": 0}, {"type": "note_off", "time": 54, "note": 56, "velocity": 100, "channel": 0}, {"type": "note_on", "time": 397, "note": 58, "velocity": 103, "channel": 0}, {"type": "note_off", "time": 75, "note": 58, "velocity": 103, "channel": 0}, {"type": "note_on", "time": 22, "note": 62, "velocity": 98, "channel": 0}, {"type": "note_off", "time": 51, "note": 62, "velocity": 98, "channel": 0}, {"type": "note_on", "time": 19, "note": 65, "velocity": 111, "channel": 0}, {"type": "note_off", "time": 95, "note": 65, "velocity": 111, "channel": 0}, {"type": "note_on", "time": 17, "note": 69, "velocity": 112, "channel": 0}, {"type": "note_off", "time": 84, "note": 69, "velocity": 112, "channel": 0}, {"type": "note_on", "time": 9, "note": 67, "velocity": 101, "channel": 0}, {"type": "note_off", "time": 26, "note": 67, "velocity": 101, "channel": 0}, {"type": "note_on", "time": 7, "note": 68, "velocity": 100, "channel": 0}, {"type": "note_off", "time": 31, "note": 68, "velocity": 100, "channel": 0}, {"type": "note_on", "time": 9, "note": 67, "velocity": 97, "channel": 0}, {"type": "note_off", "time": 19, "note": 67, "velocity": 97, "channel": 0}, {"type": "note_on", "time": 18, "note": 65, "velocity": 99, "channel": 0}, {"type": "note_off", "time": 58, "note": 65, "velocity": 99, "channel": 0}, {"type": "note_on", "time": 26, "note": 64, "velocity": 93, "channel": 0}, {"type": "note_off", "time": 79, "note": 64, "velocity": 93, "channel": 0}, {"type": "note_on", "time": 20, "note": 67, "velocity": 104, "channel": 0}, {"type": "note_off", "time": 83, "note": 67, "velocity": 104, "channel": 0}, {"type": "note_on", "time": 5, "note": 70, "velocity": 103, "channel": 0}, {"type": "note_off", "time": 82, "note": 70, "velocity": 103, "channel": 0}, {"type": "note_on", "time": 10, "note": 73, "velocity": 105, "channel": 0}, {"type": "note_off", "time": 96, "note": 73, "velocity": 105, "channel": 0}, {"type": "note_on", "time": 9, "note": 74, "velocity": 102, "channel": 0}, {"type": "note_off", "time": 92, "note": 74, "velocity": 102, "channel": 0}, {"type": "note_on", "time": 17, "note": 70, "velocity": 102, "channel": 0}, {"type": "note_off", "time": 67, "note": 70, "velocity": 102, "channel": 0}, {"type": "note_on", "time": 15, "note": 67, "velocity": 106, "channel": 0}, {"type": "note_off", "time": 89, "note": 67, "velocity": 106, "channel": 0}, {"type": "note_on", "time": 7, "note": 64, "velocity": 96, "channel": 0}, {"type": "note_off", "time": 58, "note": 64, "velocity": 96, "channel": 0}, {"type": "note_on", "time": 51, "note": 72, "velocity": 89, "channel": 0}, {"type": "note_off", "time": 19, "note": 72, "velocity": 89, "channel": 0}, {"type": "note_on", "time": 11, "note": 74, "velocity": 98, "channel": 0}, {"type": "note_off", "time": 31, "note": 74, "velocity": 98, "channel": 0}, {"type": "note_on", "time": 10, "note": 72, "velocity": 101, "channel": 0}, {"type": "note_off", "time": 63, "note": 72, "velocity": 101, "channel": 0}, {"type": "note_on", "time": 16, "note": 70, "velocity": 102, "channel": 0}, {"type": "note_off", "time": 101, "note": 70, "velocity": 102, "channel": 0}, {"type": "note_on", "time": 31, "note": 67, "velocity": 109, "channel": 0}, {"type": "note_off", "time": 70, "note": 67, "velocity": 109, "channel": 0}, {"type": "note_on", "time": 12, "note": 64, "velocity": 99, "channel": 0}, {"type": "note_off", "time": 99, "note": 64, "velocity": 99, "channel": 0}, {"type": "note_on", "time": 5, "note": 61, "velocity": 99, "channel": 0}, {"type": "note_off", "time": 87, "note": 61, "velocity": 99, "channel": 0}, {"type": "note_on", "time": 10, "note": 60, "velocity": 101, "channel": 0}, {"type": "note_off", "time": 72, "note": 60, "velocity": 101, "channel": 0}, {"type": "note_on", "time": 5, "note": 58, "velocity": 101, "channel": 0}, {"type": "note_off", "time": 84, "note": 58, "velocity": 101, "channel": 0}, {"type": "note_on", "time": 17, "note": 57, "velocity": 105, "channel": 0}, {"type": "note_off", "time": 119, "note": 57, "velocity": 105, "channel": 0}, {"type": "note_on", "time": 8, "note": 59, "velocity": 102, "channel": 0}, {"type": "note_off", "time": 62, "note": 59, "velocity": 102, "channel": 0}, {"type": "note_on", "time": 7, "note": 60, "velocity": 96, "channel": 0}, {"type": "note_off", "time": 65, "note": 60, "velocity": 96, "channel": 0}, {"type": "note_on", "time": 21, "note": 69, "velocity": 112, "channel": 0}, {"type": "note_off", "time": 80, "note": 69, "velocity": 112, "channel": 0}, {"type": "note_on", "time": 42, "note": 64, "velocity": 97, "channel": 0}, {"type": "note_off", "time": 60, "note": 64, "velocity": 97, "channel": 0}, {"type": "note_on", "time": 26, "note": 60, "velocity": 95, "channel": 0}, {"type": "note_off", "time": 59, "note": 60, "velocity": 95, "channel": 0}, {"type": "note_on", "time": 28, "note": 57, "velocity": 102, "channel": 0}, {"type": "note_off", "time": 78, "note": 57, "velocity": 102, "channel": 0}, {"type": "note_on", "time": 6, "note": 58, "velocity": 101, "channel": 0}, {"type": "note_off", "time": 73, "note": 58, "velocity": 101, "channel": 0}, {"type": "note_on", "time": 17, "note": 59, "velocity": 93, "channel": 0}, {"type": "note_off", "time": 88, "note": 59, "velocity": 93, "channel": 0}, {"type": "note_on", "time": 45, "note": 65, "velocity": 109, "channel": 0}, {"type": "note_off", "time": 39, "note": 65, "velocity": 109, "channel": 0}, {"type": "note_on", "time": 14, "note": 69, "velocity": 110, "channel": 0}, {"type": "note_off", "time": 96, "note": 69, "velocity": 110, "channel": 0}, {"type": "note_on", "time": 29, "note": 66, "velocity": 101, "channel": 0}, {"type": "note_off", "time": 56, "note": 66, "velocity": 101, "channel": 0}, {"type": "note_on", "time": 14, "note": 67, "velocity": 106, "channel": 0}, {"type": "note_off", "time": 86, "note": 67, "velocity": 106, "channel": 0}, {"type": "note_on", "time": 19, "note": 71, "velocity": 100, "channel": 0}, {"type": "note_off", "time": 60, "note": 71, "velocity": 100, "channel": 0}, {"type": "note_on", "time": 68, "note": 74, "velocity": 101, "channel": 0}, {"type": "note_off", "time": 79, "note": 74, "velocity": 101, "channel": 0}, {"type": "note_on", "time": 26, "note": 77, "velocity": 100, "channel": 0}, {"type": "note_off", "time": 48, "note": 77, "velocity": 100, "channel": 0}, {"type": "note_on", "time": 7, "note": 79, "velocity": 100, "channel": 0}, {"type": "note_off", "time": 62, "note": 79, "velocity": 100, "channel": 0}, {"type": "note_on", "time": 65, "note": 76, "velocity": 101, "channel": 0}, {"type": "note_off", "time": 59, "note": 76, "velocity": 101, "channel": 0}, {"type": "note_on", "time": 121, "note": 71, "velocity": 100, "channel": 0}, {"type": "note_off", "time": 28, "note": 71, "velocity": 100, "channel": 0}, {"type": "note_on", "time": 6, "note": 72, "velocity": 101, "channel": 0}, {"type": "note_off", "time": 53, "note": 72, "velocity": 101, "channel": 0}, {"type": "note_on", "time": 90, "note": 68, "velocity": 106, "channel": 0}, {"type": "note_off", "time": 24, "note": 68, "velocity": 106, "channel": 0}, {"type": "note_on", "time": 6, "note": 69, "velocity": 104, "channel": 0}, {"type": "note_off", "time": 56, "note": 69, "velocity": 104, "channel": 0}, {"type": "note_on", "time": 97, "note": 65, "velocity": 96, "channel": 0}, {"type": "note_off", "time": 73, "note": 65, "velocity": 96, "channel": 0}, {"type": "note_on", "time": 26, "note": 60, "velocity": 94, "channel": 0}, {"type": "note_off", "time": 77, "note": 60, "velocity": 94, "channel": 0}, {"type": "note_on", "time": 54, "note": 65, "velocity": 105, "channel": 0}, {"type": "note_off", "time": 68, "note": 65, "velocity": 105, "channel": 0}, {"type": "note_on", "time": 187, "note": 65, "velocity": 98, "channel": 0}, {"type": "note_off", "time": 149, "note": 65, "velocity": 98, "channel": 0}, {"type": "note_on", "time": 345, "note": 58, "velocity": 106, "channel": 0}, {"type": "note_off", "time": 50, "note": 58, "velocity": 106, "channel": 0}, {"type": "note_on", "time": 12, "note": 60, "velocity": 100, "channel": 0}, {"type": "note_off", "time": 70, "note": 60, "velocity": 100, "channel": 0}, {"type": "note_on", "time": 30, "note": 65, "velocity": 109, "channel": 0}, {"type": "note_off", "time": 99, "note": 65, "velocity": 109, "channel": 0}, {"type": "note_on", "time": 16, "note": 69, "velocity": 110, "channel": 0}, {"type": "note_off", "time": 113, "note": 69, "velocity": 110, "channel": 0}, {"type": "note_on", "time": 22, "note": 72, "velocity": 107, "channel": 0}, {"type": "note_off", "time": 103, "note": 72, "velocity": 107, "channel": 0}, {"type": "note_on", "time": 34, "note": 68, "velocity": 113, "channel": 0}, {"type": "note_off", "time": 50, "note": 68, "velocity": 113, "channel": 0}, {"type": "note_on", "time": 11, "note": 67, "velocity": 111, "channel": 0}, {"type": "note_off", "time": 68, "note": 67, "velocity": 111, "channel": 0}, {"type": "note_on", "time": 5, "note": 68, "velocity": 109, "channel": 0}, {"type": "note_off", "time": 41, "note": 68, "velocity": 109, "channel": 0}, {"type": "note_on", "time": 109, "note": 74, "velocity": 105, "channel": 0}, {"type": "note_off", "time": 78, "note": 74, "velocity": 105, "channel": 0}, {"type": "note_on", "time": 60, "note": 77, "velocity": 105, "channel": 0}, {"type": "note_off", "time": 77, "note": 77, "velocity": 105, "channel": 0}, {"type": "note_on", "time": 476, "note": 81, "velocity": 105, "channel": 0}, {"type": "note_off", "time": 34, "note": 81, "velocity": 105, "channel": 0}, {"type": "note_on", "time": 6, "note": 82, "velocity": 101, "channel": 0}, {"type": "note_off", "time": 40, "note": 82, "velocity": 101, "channel": 0}, {"type": "note_on", "time": 96, "note": 77, "velocity": 96, "channel": 0}, {"type": "note_off", "time": 58, "note": 77, "velocity": 96, "channel": 0}, {"type": "note_on", "time": 67, "note": 73, "velocity": 100, "channel": 0}, {"type": "note_off", "time": 29, "note": 73, "velocity": 100, "channel": 0}, {"type": "note_on", "time": 1, "note": 74, "velocity": 102, "channel": 0}, {"type": "note_off", "time": 76, "note": 74, "velocity": 102, "channel": 0}, {"type": "note_on", "time": 47, "note": 70, "velocity": 98, "channel": 0}, {"type": "note_off", "time": 84, "note": 70, "velocity": 98, "channel": 0}, {"type": "note_on", "time": 32, "note": 67, "velocity": 103, "channel": 0}, {"type": "note_off", "time": 74, "note": 67, "velocity": 103, "channel": 0}, {"type": "note_on", "time": 122, "note": 71, "velocity": 100, "channel": 0}, {"type": "note_off", "time": 59, "note": 71, "velocity": 100, "channel": 0}, {"type": "note_on", "time": 8, "note": 72, "velocity": 104, "channel": 0}, {"type": "note_off", "time": 78, "note": 72, "velocity": 104, "channel": 0}, {"type": "note_on", "time": 17, "note": 69, "velocity": 106, "channel": 0}, {"type": "note_off", "time": 92, "note": 69, "velocity": 106, "channel": 0}, {"type": "note_on", "time": 12, "note": 70, "velocity": 99, "channel": 0}, {"type": "note_off", "time": 84, "note": 70, "velocity": 99, "channel": 0}, {"type": "note_on", "time": 18, "note": 67, "velocity": 107, "channel": 0}, {"type": "note_off", "time": 74, "note": 67, "velocity": 107, "channel": 0}, {"type": "note_on", "time": 4, "note": 68, "velocity": 113, "channel": 0}, {"type": "note_off", "time": 101, "note": 68, "velocity": 113, "channel": 0}, {"type": "note_on", "time": 16, "note": 65, "velocity": 109, "channel": 0}, {"type": "note_off", "time": 67, "note": 65, "velocity": 109, "channel": 0}, {"type": "note_on", "time": 24, "note": 61, "velocity": 97, "channel": 0}, {"type": "note_off", "time": 56, "note": 61, "velocity": 97, "channel": 0}, {"type": "note_on", "time": 25, "note": 60, "velocity": 99, "channel": 0}, {"type": "note_off", "time": 24, "note": 60, "velocity": 99, "channel": 0}, {"type": "note_on", "time": 18, "note": 59, "velocity": 101, "channel": 0}, {"type": "note_off", "time": 24, "note": 59, "velocity": 101, "channel": 0}, {"type": "note_on", "time": 12, "note": 58, "velocity": 103, "channel": 0}, {"type": "note_off", "time": 100, "note": 58, "velocity": 103, "channel": 0}, {"type": "note_on", "time": 33, "note": 56, "velocity": 107, "channel": 0}, {"type": "note_off", "time": 79, "note": 56, "velocity": 107, "channel": 0}, {"type": "note_on", "time": 9, "note": 55, "velocity": 100, "channel": 0}, {"type": "note_off", "time": 66, "note": 55, "velocity": 100, "channel": 0}, {"type": "note_on", "time": 28, "note": 60, "velocity": 96, "channel": 0}, {"type": "note_off", "time": 69, "note": 60, "velocity": 96, "channel": 0}, {"type": "note_on", "time": 21, "note": 58, "velocity": 100, "channel": 0}, {"type": "note_off", "time": 85, "note": 58, "velocity": 100, "channel": 0}, {"type": "note_on", "time": 26, "note": 56, "velocity": 101, "channel": 0}, {"type": "note_off", "time": 90, "note": 56, "velocity": 101, "channel": 0}, {"type": "note_on", "time": 19, "note": 57, "velocity": 106, "channel": 0}, {"type": "note_off", "time": 79, "note": 57, "velocity": 106, "channel": 0}, {"type": "note_on", "time": 14, "note": 60, "velocity": 94, "channel": 0}, {"type": "note_off", "time": 58, "note": 60, "velocity": 94, "channel": 0}, {"type": "note_on", "time": 36, "note": 55, "velocity": 101, "channel": 0}, {"type": "note_off", "time": 64, "note": 55, "velocity": 101, "channel": 0}, {"type": "note_on", "time": 33, "note": 60, "velocity": 98, "channel": 0}, {"type": "note_off", "time": 61, "note": 60, "velocity": 98, "channel": 0}, {"type": "note_on", "time": 27, "note": 53, "velocity": 100, "channel": 0}, {"type": "note_off", "time": 199, "note": 53, "velocity": 100, "channel": 0}, {"type": "note_on", "time": 467, "note": 53, "velocity": 101, "channel": 0}, {"type": "note_off", "time": 145, "note": 53, "velocity": 101, "channel": 0}, {"type": "note_on", "time": 58, "note": 58, "velocity": 101, "channel": 0}, {"type": "note_off", "time": 44, "note": 58, "velocity": 101, "channel": 0}, {"type": "note_on", "time": 151, "note": 52, "velocity": 101, "channel": 0}, {"type": "note_off", "time": 132, "note": 52, "velocity": 101, "channel": 0}, {"type": "note_on", "time": 54, "note": 60, "velocity": 98, "channel": 0}, {"type": "note_off", "time": 40, "note": 60, "velocity": 98, "channel": 0}, {"type": "note_on", "time": 227, "note": 50, "velocity": 109, "channel": 0}, {"type": "note_off", "time": 238, "note": 50, "velocity": 109, "channel": 0}, {"type": "note_on", "time": 467, "note": 55, "velocity": 107, "channel": 0}, {"type": "note_off", "time": 61, "note": 55, "velocity": 107, "channel": 0}, {"type": "note_on", "time": 8, "note": 56, "velocity": 104, "channel": 0}, {"type": "note_off", "time": 69, "note": 56, "velocity": 104, "channel": 0}, {"type": "note_on", "time": 16, "note": 59, "velocity": 98, "channel": 0}, {"type": "note_off", "time": 74, "note": 59, "velocity": 98, "channel": 0}, {"type": "note_on", "time": 36, "note": 62, "velocity": 100, "channel": 0}, {"type": "note_off", "time": 85, "note": 62, "velocity": 100, "channel": 0}, {"type": "note_on", "time": 16, "note": 65, "velocity": 110, "channel": 0}, {"type": "note_off", "time": 89, "note": 65, "velocity": 110, "channel": 0}, {"type": "note_on", "time": 10, "note": 62, "velocity": 100, "channel": 0}, {"type": "note_off", "time": 76, "note": 62, "velocity": 100, "channel": 0}, {"type": "note_on", "time": 21, "note": 60, "velocity": 101, "channel": 0}, {"type": "note_off", "time": 34, "note": 60, "velocity": 101, "channel": 0}, {"type": "note_on", "time": 6, "note": 59, "velocity": 102, "channel": 0}, {"type": "note_off", "time": 40, "note": 59, "velocity": 102, "channel": 0}, {"type": "note_on", "time": 14, "note": 58, "velocity": 105, "channel": 0}, {"type": "note_off", "time": 74, "note": 58, "velocity": 105, "channel": 0}, {"type": "note_on", "time": 16, "note": 55, "velocity": 102, "channel": 0}, {"type": "note_off", "time": 80, "note": 55, "velocity": 102, "channel": 0}, {"type": "note_on", "time": 24, "note": 60, "velocity": 95, "channel": 0}, {"type": "note_off", "time": 77, "note": 60, "velocity": 95, "channel": 0}, {"type": "note_on", "time": 38, "note": 57, "velocity": 95, "channel": 0}, {"type": "note_off", "time": 84, "note": 57, "velocity": 95, "channel": 0}, {"type": "note_on", "time": 89, "note": 58, "velocity": 96, "channel": 0}, {"type": "note_off", "time": 105, "note": 58, "velocity": 96, "channel": 0}, {"type": "note_on", "time": 439, "note": 59, "velocity": 91, "channel": 0}, {"type": "note_off", "time": 56, "note": 59, "velocity": 91, "channel": 0}, {"type": "note_on", "time": 46, "note": 62, "velocity": 95, "channel": 0}, {"type": "note_off", "time": 64, "note": 62, "velocity": 95, "channel": 0}, {"type": "note_on", "time": 4, "note": 65, "velocity": 108, "channel": 0}, {"type": "note_off", "time": 87, "note": 65, "velocity": 108, "channel": 0}, {"type": "note_on", "time": 16, "note": 64, "velocity": 97, "channel": 0}, {"type": "note_off", "time": 85, "note": 64, "velocity": 97, "channel": 0}, {"type": "note_on", "time": 8, "note": 67, "velocity": 112, "channel": 0}, {"type": "note_off", "time": 72, "note": 67, "velocity": 112, "channel": 0}, {"type": "note_on", "time": 17, "note": 64, "velocity": 95, "channel": 0}, {"type": "note_off", "time": 74, "note": 64, "velocity": 95, "channel": 0}, {"type": "note_on", "time": 30, "note": 60, "velocity": 101, "channel": 0}, {"type": "note_off", "time": 62, "note": 60, "velocity": 101, "channel": 0}, {"type": "note_on", "time": 14, "note": 57, "velocity": 106, "channel": 0}, {"type": "note_off", "time": 77, "note": 57, "velocity": 106, "channel": 0}, {"type": "note_on", "time": 21, "note": 58, "velocity": 102, "channel": 0}, {"type": "note_off", "time": 57, "note": 58, "velocity": 102, "channel": 0}, {"type": "note_on", "time": 9, "note": 59, "velocity": 98, "channel": 0}, {"type": "note_off", "time": 30, "note": 59, "velocity": 98, "channel": 0}, {"type": "note_on", "time": 10, "note": 60, "velocity": 96, "channel": 0}, {"type": "note_off", "time": 69, "note": 60, "velocity": 96, "channel": 0}, {"type": "note_on", "time": 25, "note": 57, "velocity": 104, "channel": 0}, {"type": "note_off", "time": 70, "note": 57, "velocity": 104, "channel": 0}, {"type": "note_on", "time": 26, "note": 53, "velocity": 104, "channel": 0}, {"type": "note_off", "time": 101, "note": 53, "velocity": 104, "channel": 0}, {"type": "note_on", "time": 41, "note": 60, "velocity": 98, "channel": 0}, {"type": "note_off", "time": 38, "note": 60, "velocity": 98, "channel": 0}, {"type": "note_on", "time": 8, "note": 62, "velocity": 95, "channel": 0}, {"type": "note_off", "time": 83, "note": 62, "velocity": 95, "channel": 0}, {"type": "note_on", "time": 42, "note": 57, "velocity": 101, "channel": 0}, {"type": "note_off", "time": 80, "note": 57, "velocity": 101, "channel": 0}, {"type": "note_on", "time": 113, "note": 53, "velocity": 103, "channel": 0}, {"type": "note_off", "time": 77, "note": 53, "velocity": 103, "channel": 0}, {"type": "note_on", "time": 104, "note": 57, "velocity": 103, "channel": 0}, {"type": "note_off", "time": 77, "note": 57, "velocity": 103, "channel": 0}, {"type": "note_on", "time": 96, "note": 59, "velocity": 101, "channel": 0}, {"type": "note_off", "time": 80, "note": 59, "velocity": 101, "channel": 0}, {"type": "note_on", "time": 100, "note": 62, "velocity": 94, "channel": 0}, {"type": "note_off", "time": 92, "note": 62, "velocity": 94, "channel": 0}, {"type": "note_on", "time": 113, "note": 65, "velocity": 111, "channel": 0}, {"type": "note_off", "time": 80, "note": 65, "velocity": 111, "channel": 0}, {"type": "note_on", "time": 112, "note": 69, "velocity": 113, "channel": 0}, {"type": "note_off", "time": 93, "note": 69, "velocity": 113, "channel": 0}, {"type": "note_on", "time": 105, "note": 71, "velocity": 105, "channel": 0}, {"type": "note_off", "time": 83, "note": 71, "velocity": 105, "channel": 0}, {"type": "note_on", "time": 104, "note": 74, "velocity": 105, "channel": 0}, {"type": "note_off", "time": 70, "note": 74, "velocity": 105, "channel": 0}, {"type": "note_on", "time": 140, "note": 79, "velocity": 91, "channel": 0}, {"type": "note_off", "time": 41, "note": 79, "velocity": 91, "channel": 0}, {"type": "note_on", "time": 25, "note": 76, "velocity": 95, "channel": 0}, {"type": "note_off", "time": 73, "note": 76, "velocity": 95, "channel": 0}, {"type": "note_on", "time": 44, "note": 72, "velocity": 9, "channel": 0}, {"type": "note_off", "time": 76, "note": 72, "velocity": 9, "channel": 0}, {"type": "note_on", "time": 91, "note": 74, "velocity": 99, "channel": 0}, {"type": "note_off", "time": 74, "note": 74, "velocity": 99, "channel": 0}, {"type": "note_on", "time": 33, "note": 70, "velocity": 99, "channel": 0}, {"type": "note_off", "time": 92, "note": 70, "velocity": 99, "channel": 0}, {"type": "note_on", "time": 33, "note": 67, "velocity": 105, "channel": 0}, {"type": "note_off", "time": 76, "note": 67, "velocity": 105, "channel": 0}, {"type": "note_on", "time": 84, "note": 72, "velocity": 102, "channel": 0}, {"type": "note_off", "time": 69, "note": 72, "velocity": 102, "channel": 0}, {"type": "note_on", "time": 28, "note": 69, "velocity": 108, "channel": 0}, {"type": "note_off", "time": 89, "note": 69, "velocity": 108, "channel": 0}, {"type": "note_on", "time": 61, "note": 64, "velocity": 94, "channel": 0}, {"type": "note_off", "time": 68, "note": 64, "velocity": 94, "channel": 0}, {"type": "note_on", "time": 88, "note": 69, "velocity": 104, "channel": 0}, {"type": "note_off", "time": 68, "note": 69, "velocity": 104, "channel": 0}, {"type": "note_on", "time": 34, "note": 64, "velocity": 93, "channel": 0}, {"type": "note_off", "time": 89, "note": 64, "velocity": 93, "channel": 0}, {"type": "note_on", "time": 17, "note": 63, "velocity": 92, "channel": 0}, {"type": "note_off", "time": 107, "note": 63, "velocity": 92, "channel": 0}, {"type": "note_on", "time": 477, "note": 60, "velocity": 100, "channel": 0}, {"type": "note_off", "time": 17, "note": 60, "velocity": 100, "channel": 0}, {"type": "note_on", "time": 2, "note": 62, "velocity": 102, "channel": 0}, {"type": "note_off", "time": 76, "note": 62, "velocity": 102, "channel": 0}, {"type": "note_on", "time": 80, "note": 67, "velocity": 102, "channel": 0}, {"type": "note_off", "time": 44, "note": 67, "velocity": 102, "channel": 0}, {"type": "note_on", "time": 17, "note": 67, "velocity": 105, "channel": 0}, {"type": "note_off", "time": 120, "note": 67, "velocity": 105, "channel": 0}, {"type": "note_on", "time": 376, "note": 59, "velocity": 94, "channel": 0}, {"type": "note_off", "time": 53, "note": 59, "velocity": 94, "channel": 0}, {"type": "note_on", "time": 5, "note": 62, "velocity": 98, "channel": 0}, {"type": "note_off", "time": 69, "note": 62, "velocity": 98, "channel": 0}, {"type": "note_on", "time": 18, "note": 65, "velocity": 99, "channel": 0}, {"type": "note_off", "time": 44, "note": 65, "velocity": 99, "channel": 0}, {"type": "note_on", "time": 34, "note": 67, "velocity": 107, "channel": 0}, {"type": "note_off", "time": 69, "note": 67, "velocity": 107, "channel": 0}, {"type": "note_on", "time": 24, "note": 67, "velocity": 109, "channel": 0}, {"type": "note_off", "time": 131, "note": 67, "velocity": 109, "channel": 0}, {"type": "note_on", "time": 370, "note": 59, "velocity": 99, "channel": 0}, {"type": "note_off", "time": 62, "note": 59, "velocity": 99, "channel": 0}, {"type": "note_on", "time": 53, "note": 62, "velocity": 103, "channel": 0}, {"type": "note_off", "time": 78, "note": 62, "velocity": 103, "channel": 0}, {"type": "note_on", "time": 30, "note": 65, "velocity": 114, "channel": 0}, {"type": "note_off", "time": 100, "note": 65, "velocity": 114, "channel": 0}, {"type": "note_on", "time": 50, "note": 67, "velocity": 114, "channel": 0}, {"type": "note_off", "time": 87, "note": 67, "velocity": 114, "channel": 0}, {"type": "note_on", "time": 81, "note": 70, "velocity": 108, "channel": 0}, {"type": "note_off", "time": 96, "note": 70, "velocity": 108, "channel": 0}, {"type": "note_on", "time": 74, "note": 61, "velocity": 98, "channel": 0}, {"type": "note_off", "time": 174, "note": 61, "velocity": 98, "channel": 0}, {"type": "note_on", "time": 609, "note": 60, "velocity": 103, "channel": 0}, {"type": "note_off", "time": 115, "note": 60, "velocity": 103, "channel": 0}, {"type": "note_on", "time": 12, "note": 62, "velocity": 101, "channel": 0}, {"type": "note_off", "time": 115, "note": 62, "velocity": 101, "channel": 0}, {"type": "note_on", "time": 42, "note": 64, "velocity": 100, "channel": 0}, {"type": "note_off", "time": 132, "note": 64, "velocity": 100, "channel": 0}, {"type": "note_on", "time": 22, "note": 65, "velocity": 108, "channel": 0}, {"type": "note_off", "time": 84, "note": 65, "velocity": 108, "channel": 0}, {"type": "note_on", "time": 77, "note": 62, "velocity": 96, "channel": 0}, {"type": "note_off", "time": 131, "note": 62, "velocity": 96, "channel": 0}, {"type": "note_on", "time": 10, "note": 64, "velocity": 94, "channel": 0}, {"type": "note_off", "time": 116, "note": 64, "velocity": 94, "channel": 0}, {"type": "note_on", "time": 12, "note": 65, "velocity": 109, "channel": 0}, {"type": "note_off", "time": 123, "note": 65, "velocity": 109, "channel": 0}, {"type": "note_on", "time": 14, "note": 67, "velocity": 105, "channel": 0}, {"type": "note_off", "time": 119, "note": 67, "velocity": 105, "channel": 0}, {"type": "note_on", "time": 70, "note": 64, "velocity": 90, "channel": 0}, {"type": "note_off", "time": 89, "note": 64, "velocity": 90, "channel": 0}, {"type": "note_on", "time": 16, "note": 65, "velocity": 106, "channel": 0}, {"type": "note_off", "time": 108, "note": 65, "velocity": 106, "channel": 0}, {"type": "note_on", "time": 45, "note": 67, "velocity": 108, "channel": 0}, {"type": "note_off", "time": 113, "note": 67, "velocity": 108, "channel": 0}, {"type": "note_on", "time": 24, "note": 68, "velocity": 108, "channel": 0}, {"type": "note_off", "time": 139, "note": 68, "velocity": 108, "channel": 0}, {"type": "note_on", "time": 17, "note": 67, "velocity": 108, "channel": 0}, {"type": "note_off", "time": 109, "note": 67, "velocity": 108, "channel": 0}, {"type": "note_on", "time": 18, "note": 68, "velocity": 113, "channel": 0}, {"type": "note_off", "time": 116, "note": 68, "velocity": 113, "channel": 0}, {"type": "note_on", "time": 53, "note": 70, "velocity": 101, "channel": 0}, {"type": "note_off", "time": 105, "note": 70, "velocity": 101, "channel": 0}, {"type": "note_on", "time": 21, "note": 71, "velocity": 101, "channel": 0}, {"type": "note_off", "time": 103, "note": 71, "velocity": 101, "channel": 0}, {"type": "note_on", "time": 53, "note": 73, "velocity": 101, "channel": 0}, {"type": "note_off", "time": 108, "note": 73, "velocity": 101, "channel": 0}, {"type": "note_on", "time": 26, "note": 74, "velocity": 96, "channel": 0}, {"type": "note_off", "time": 105, "note": 74, "velocity": 96, "channel": 0}, {"type": "note_on", "time": 78, "note": 76, "velocity": 97, "channel": 0}, {"type": "note_off", "time": 73, "note": 76, "velocity": 97, "channel": 0}, {"type": "note_on", "time": 22, "note": 74, "velocity": 95, "channel": 0}, {"type": "note_off", "time": 57, "note": 74, "velocity": 95, "channel": 0}, {"type": "note_on", "time": 17, "note": 76, "velocity": 96, "channel": 0}, {"type": "note_off", "time": 61, "note": 76, "velocity": 96, "channel": 0}, {"type": "note_on", "time": 155, "note": 74, "velocity": 97, "channel": 0}, {"type": "note_off", "time": 166, "note": 74, "velocity": 97, "channel": 0}, {"type": "note_on", "time": 0, "note": 74, "velocity": 80, "channel": 0}, {"type": "note_off", "time": 0, "note": 74, "velocity": 80, "channel": 0}, {"type": "note_on", "time": 420, "note": 67, "velocity": 101, "channel": 0}, {"type": "note_off", "time": 54, "note": 67, "velocity": 101, "channel": 0}, {"type": "note_on", "time": 29, "note": 69, "velocity": 109, "channel": 0}, {"type": "note_off", "time": 76, "note": 69, "velocity": 109, "channel": 0}, {"type": "note_on", "time": 26, "note": 72, "velocity": 107, "channel": 0}, {"type": "note_off", "time": 92, "note": 72, "velocity": 107, "channel": 0}, {"type": "note_on", "time": 21, "note": 69, "velocity": 108, "channel": 0}, {"type": "note_off", "time": 92, "note": 69, "velocity": 108, "channel": 0}, {"type": "note_on", "time": 26, "note": 64, "velocity": 94, "channel": 0}, {"type": "note_off", "time": 40, "note": 64, "velocity": 94, "channel": 0}, {"type": "note_on", "time": 26, "note": 67, "velocity": 114, "channel": 0}, {"type": "note_off", "time": 88, "note": 67, "velocity": 114, "channel": 0}, {"type": "note_on", "time": 26, "note": 64, "velocity": 104, "channel": 0}, {"type": "note_off", "time": 53, "note": 64, "velocity": 104, "channel": 0}, {"type": "note_on", "time": 26, "note": 61, "velocity": 94, "channel": 0}, {"type": "note_off", "time": 26, "note": 61, "velocity": 94, "channel": 0}, {"type": "note_on", "time": 12, "note": 62, "velocity": 92, "channel": 0}, {"type": "note_off", "time": 25, "note": 62, "velocity": 92, "channel": 0}, {"type": "note_on", "time": 13, "note": 60, "velocity": 95, "channel": 0}, {"type": "note_off", "time": 26, "note": 60, "velocity": 95, "channel": 0}, {"type": "note_on", "time": 10, "note": 57, "velocity": 103, "channel": 0}, {"type": "note_off", "time": 56, "note": 57, "velocity": 103, "channel": 0}, {"type": "note_on", "time": 18, "note": 58, "velocity": 105, "channel": 0}, {"type": "note_off", "time": 153, "note": 58, "velocity": 105, "channel": 0}, {"type": "note_on", "time": 21, "note": 69, "velocity": 114, "channel": 0}, {"type": "note_off", "time": 95, "note": 69, "velocity": 114, "channel": 0}, {"type": "note_on", "time": 62, "note": 64, "velocity": 97, "channel": 0}, {"type": "note_off", "time": 113, "note": 64, "velocity": 97, "channel": 0}, {"type": "note_on", "time": 72, "note": 61, "velocity": 101, "channel": 0}, {"type": "note_off", "time": 68, "note": 61, "velocity": 101, "channel": 0}, {"type": "note_on", "time": 101, "note": 62, "velocity": 98, "channel": 0}, {"type": "note_off", "time": 104, "note": 62, "velocity": 98, "channel": 0}, {"type": "note_on", "time": 481, "note": 64, "velocity": 97, "channel": 0}, {"type": "note_off", "time": 48, "note": 64, "velocity": 97, "channel": 0}, {"type": "note_on", "time": 5, "note": 65, "velocity": 112, "channel": 0}, {"type": "note_off", "time": 81, "note": 65, "velocity": 112, "channel": 0}, {"type": "note_on", "time": 17, "note": 69, "velocity": 109, "channel": 0}, {"type": "note_off", "time": 72, "note": 69, "velocity": 109, "channel": 0}, {"type": "note_on", "time": 16, "note": 68, "velocity": 107, "channel": 0}, {"type": "note_off", "time": 41, "note": 68, "velocity": 107, "channel": 0}, {"type": "note_on", "time": 17, "note": 69, "velocity": 99, "channel": 0}, {"type": "note_off", "time": 44, "note": 69, "velocity": 99, "channel": 0}, {"type": "note_on", "time": 103, "note": 74, "velocity": 103, "channel": 0}, {"type": "note_off", "time": 77, "note": 74, "velocity": 103, "channel": 0}, {"type": "note_on", "time": 36, "note": 69, "velocity": 111, "channel": 0}, {"type": "note_off", "time": 58, "note": 69, "velocity": 111, "channel": 0}, {"type": "note_on", "time": 22, "note": 65, "velocity": 101, "channel": 0}, {"type": "note_off", "time": 84, "note": 65, "velocity": 101, "channel": 0}, {"type": "note_on", "time": 32, "note": 62, "velocity": 97, "channel": 0}, {"type": "note_off", "time": 62, "note": 62, "velocity": 97, "channel": 0}, {"type": "note_on", "time": 20, "note": 59, "velocity": 98, "channel": 0}, {"type": "note_off", "time": 93, "note": 59, "velocity": 98, "channel": 0}, {"type": "note_on", "time": 16, "note": 58, "velocity": 98, "channel": 0}, {"type": "note_off", "time": 273, "note": 58, "velocity": 98, "channel": 0}, {"type": "note_on", "time": 17, "note": 55, "velocity": 98, "channel": 0}, {"type": "note_off", "time": 56, "note": 55, "velocity": 98, "channel": 0}, {"type": "note_on", "time": 8, "note": 57, "velocity": 98, "channel": 0}, {"type": "note_off", "time": 68, "note": 57, "velocity": 98, "channel": 0}, {"type": "note_on", "time": 12, "note": 58, "velocity": 100, "channel": 0}, {"type": "note_off", "time": 29, "note": 58, "velocity": 100, "channel": 0}, {"type": "note_on", "time": 10, "note": 60, "velocity": 95, "channel": 0}, {"type": "note_off", "time": 30, "note": 60, "velocity": 95, "channel": 0}, {"type": "note_on", "time": 28, "note": 63, "velocity": 91, "channel": 0}, {"type": "note_off", "time": 32, "note": 63, "velocity": 91, "channel": 0}, {"type": "note_on", "time": 18, "note": 69, "velocity": 106, "channel": 0}, {"type": "note_off", "time": 113, "note": 69, "velocity": 106, "channel": 0}, {"type": "note_on", "time": 42, "note": 65, "velocity": 107, "channel": 0}, {"type": "note_off", "time": 92, "note": 65, "velocity": 107, "channel": 0}, {"type": "note_on", "time": 116, "note": 65, "velocity": 109, "channel": 0}, {"type": "note_off", "time": 88, "note": 65, "velocity": 109, "channel": 0}, {"type": "note_on", "time": 112, "note": 60, "velocity": 100, "channel": 0}, {"type": "note_off", "time": 44, "note": 60, "velocity": 100, "channel": 0}, {"type": "note_on", "time": 24, "note": 65, "velocity": 103, "channel": 0}, {"type": "note_off", "time": 88, "note": 65, "velocity": 103, "channel": 0}, {"type": "note_on", "time": 400, "note": 62, "velocity": 99, "channel": 0}, {"type": "note_off", "time": 76, "note": 62, "velocity": 99, "channel": 0}, {"type": "note_on", "time": 18, "note": 65, "velocity": 108, "channel": 0}, {"type": "note_off", "time": 65, "note": 65, "velocity": 108, "channel": 0}, {"type": "note_on", "time": 36, "note": 69, "velocity": 112, "channel": 0}, {"type": "note_off", "time": 52, "note": 69, "velocity": 112, "channel": 0}, {"type": "note_on", "time": 16, "note": 72, "velocity": 105, "channel": 0}, {"type": "note_off", "time": 95, "note": 72, "velocity": 105, "channel": 0}, {"type": "note_on", "time": 29, "note": 77, "velocity": 97, "channel": 0}, {"type": "note_off", "time": 78, "note": 77, "velocity": 97, "channel": 0}, {"type": "note_on", "time": 20, "note": 76, "velocity": 99, "channel": 0}, {"type": "note_off", "time": 66, "note": 76, "velocity": 99, "channel": 0}, {"type": "note_on", "time": 14, "note": 75, "velocity": 101, "channel": 0}, {"type": "note_off", "time": 85, "note": 75, "velocity": 101, "channel": 0}, {"type": "note_on", "time": 6, "note": 74, "velocity": 102, "channel": 0}, {"type": "note_off", "time": 76, "note": 74, "velocity": 102, "channel": 0}, {"type": "note_on", "time": 34, "note": 62, "velocity": 93, "channel": 0}, {"type": "note_off", "time": 50, "note": 62, "velocity": 93, "channel": 0}, {"type": "note_on", "time": 13, "note": 65, "velocity": 101, "channel": 0}, {"type": "note_off", "time": 70, "note": 65, "velocity": 101, "channel": 0}, {"type": "note_on", "time": 60, "note": 69, "velocity": 109, "channel": 0}, {"type": "note_off", "time": 52, "note": 69, "velocity": 109, "channel": 0}, {"type": "note_on", "time": 21, "note": 72, "velocity": 104, "channel": 0}, {"type": "note_off", "time": 46, "note": 72, "velocity": 104, "channel": 0}, {"type": "note_on", "time": 8, "note": 74, "velocity": 99, "channel": 0}, {"type": "note_off", "time": 32, "note": 74, "velocity": 99, "channel": 0}, {"type": "note_on", "time": 10, "note": 72, "velocity": 103, "channel": 0}, {"type": "note_off", "time": 28, "note": 72, "velocity": 103, "channel": 0}, {"type": "note_on", "time": 6, "note": 71, "velocity": 101, "channel": 0}, {"type": "note_off", "time": 48, "note": 71, "velocity": 101, "channel": 0}, {"type": "note_on", "time": 10, "note": 70, "velocity": 98, "channel": 0}, {"type": "note_off", "time": 91, "note": 70, "velocity": 98, "channel": 0}, {"type": "note_on", "time": 29, "note": 65, "velocity": 109, "channel": 0}, {"type": "note_off", "time": 73, "note": 65, "velocity": 109, "channel": 0}, {"type": "note_on", "time": 13, "note": 62, "velocity": 96, "channel": 0}, {"type": "note_off", "time": 78, "note": 62, "velocity": 96, "channel": 0}, {"type": "note_on", "time": 37, "note": 59, "velocity": 98, "channel": 0}, {"type": "note_off", "time": 41, "note": 59, "velocity": 98, "channel": 0}, {"type": "note_on", "time": 20, "note": 58, "velocity": 102, "channel": 0}, {"type": "note_off", "time": 91, "note": 58, "velocity": 102, "channel": 0}, {"type": "note_on", "time": 20, "note": 55, "velocity": 103, "channel": 0}, {"type": "note_off", "time": 87, "note": 55, "velocity": 103, "channel": 0}, {"type": "note_on", "time": 21, "note": 53, "velocity": 99, "channel": 0}, {"type": "note_off", "time": 80, "note": 53, "velocity": 99, "channel": 0}, {"type": "note_on", "time": 18, "note": 60, "velocity": 96, "channel": 0}, {"type": "note_off", "time": 70, "note": 60, "velocity": 96, "channel": 0}, {"type": "note_on", "time": 17, "note": 58, "velocity": 98, "channel": 0}, {"type": "note_off", "time": 70, "note": 58, "velocity": 98, "channel": 0}, {"type": "note_on", "time": 56, "note": 65, "velocity": 108, "channel": 0}, {"type": "note_off", "time": 70, "note": 65, "velocity": 108, "channel": 0}, {"type": "note_on", "time": 96, "note": 61, "velocity": 98, "channel": 0}, {"type": "note_off", "time": 83, "note": 61, "velocity": 98, "channel": 0}, {"type": "note_on", "time": 24, "note": 58, "velocity": 98, "channel": 0}, {"type": "note_off", "time": 101, "note": 58, "velocity": 98, "channel": 0}, {"type": "note_on", "time": 44, "note": 67, "velocity": 102, "channel": 0}, {"type": "note_off", "time": 70, "note": 67, "velocity": 102, "channel": 0}, {"type": "note_on", "time": 105, "note": 65, "velocity": 103, "channel": 0}, {"type": "note_off", "time": 64, "note": 65, "velocity": 103, "channel": 0}, {"type": "note_on", "time": 638, "note": 69, "velocity": 83, "channel": 0}, {"type": "note_off", "time": 21, "note": 69, "velocity": 83, "channel": 0}, {"type": "note_on", "time": 1, "note": 70, "velocity": 98, "channel": 0}, {"type": "note_off", "time": 74, "note": 70, "velocity": 98, "channel": 0}, {"type": "note_on", "time": 103, "note": 67, "velocity": 107, "channel": 0}, {"type": "note_off", "time": 72, "note": 67, "velocity": 107, "channel": 0}, {"type": "note_on", "time": 29, "note": 69, "velocity": 108, "channel": 0}, {"type": "note_off", "time": 95, "note": 69, "velocity": 108, "channel": 0}, {"type": "note_on", "time": 44, "note": 72, "velocity": 105, "channel": 0}, {"type": "note_off", "time": 91, "note": 72, "velocity": 105, "channel": 0}, {"type": "note_on", "time": 21, "note": 69, "velocity": 110, "channel": 0}, {"type": "note_off", "time": 89, "note": 69, "velocity": 110, "channel": 0}, {"type": "note_on", "time": 12, "note": 64, "velocity": 96, "channel": 0}, {"type": "note_off", "time": 29, "note": 64, "velocity": 96, "channel": 0}, {"type": "note_on", "time": 5, "note": 63, "velocity": 97, "channel": 0}, {"type": "note_off", "time": 38, "note": 63, "velocity": 97, "channel": 0}, {"type": "note_on", "time": 5, "note": 64, "velocity": 99, "channel": 0}, {"type": "note_off", "time": 85, "note": 64, "velocity": 99, "channel": 0}, {"type": "note_on", "time": 26, "note": 60, "velocity": 96, "channel": 0}, {"type": "note_off", "time": 104, "note": 60, "velocity": 96, "channel": 0}, {"type": "note_on", "time": 25, "note": 67, "velocity": 109, "channel": 0}, {"type": "note_off", "time": 100, "note": 67, "velocity": 109, "channel": 0}, {"type": "note_on", "time": 46, "note": 64, "velocity": 95, "channel": 0}, {"type": "note_off", "time": 93, "note": 64, "velocity": 95, "channel": 0}, {"type": "note_on", "time": 8, "note": 65, "velocity": 110, "channel": 0}, {"type": "note_off", "time": 136, "note": 65, "velocity": 110, "channel": 0}, {"type": "note_on", "time": 34, "note": 64, "velocity": 101, "channel": 0}, {"type": "note_off", "time": 83, "note": 64, "velocity": 101, "channel": 0}, {"type": "note_on", "time": 100, "note": 60, "velocity": 98, "channel": 0}, {"type": "note_off", "time": 89, "note": 60, "velocity": 98, "channel": 0}, {"type": "note_on", "time": 64, "note": 57, "velocity": 99, "channel": 0}, {"type": "note_off", "time": 87, "note": 57, "velocity": 99, "channel": 0}, {"type": "note_on", "time": 25, "note": 55, "velocity": 102, "channel": 0}, {"type": "note_off", "time": 159, "note": 55, "velocity": 102, "channel": 0}, {"type": "note_on", "time": 13, "note": 56, "velocity": 104, "channel": 0}, {"type": "note_off", "time": 136, "note": 56, "velocity": 104, "channel": 0}, {"type": "note_on", "time": 30, "note": 58, "velocity": 97, "channel": 0}, {"type": "note_off", "time": 70, "note": 58, "velocity": 97, "channel": 0}, {"type": "note_on", "time": 104, "note": 59, "velocity": 99, "channel": 0}, {"type": "note_off", "time": 81, "note": 59, "velocity": 99, "channel": 0}, {"type": "note_on", "time": 107, "note": 61, "velocity": 94, "channel": 0}, {"type": "note_off", "time": 104, "note": 61, "velocity": 94, "channel": 0}, {"type": "note_on", "time": 52, "note": 62, "velocity": 94, "channel": 0}, {"type": "note_off", "time": 87, "note": 62, "velocity": 94, "channel": 0}, {"type": "note_on", "time": 64, "note": 64, "velocity": 82, "channel": 0}, {"type": "note_off", "time": 73, "note": 64, "velocity": 82, "channel": 0}, {"type": "note_on", "time": 33, "note": 65, "velocity": 106, "channel": 0}, {"type": "note_off", "time": 91, "note": 65, "velocity": 106, "channel": 0}, {"type": "note_on", "time": 85, "note": 67, "velocity": 102, "channel": 0}, {"type": "note_off", "time": 76, "note": 67, "velocity": 102, "channel": 0}, {"type": "note_on", "time": 12, "note": 68, "velocity": 104, "channel": 0}, {"type": "note_off", "time": 113, "note": 68, "velocity": 104, "channel": 0}, {"type": "note_on", "time": 70, "note": 71, "velocity": 94, "channel": 0}, {"type": "note_off", "time": 97, "note": 71, "velocity": 94, "channel": 0}, {"type": "note_on", "time": 48, "note": 70, "velocity": 96, "channel": 0}, {"type": "note_off", "time": 103, "note": 70, "velocity": 96, "channel": 0}, {"type": "note_on", "time": 36, "note": 62, "velocity": 92, "channel": 0}, {"type": "note_off", "time": 183, "note": 62, "velocity": 92, "channel": 0}, {"type": "note_on", "time": 816, "note": 72, "velocity": 107, "channel": 0}, {"type": "note_off", "time": 45, "note": 72, "velocity": 107, "channel": 0}, {"type": "note_on", "time": 5, "note": 74, "velocity": 94, "channel": 0}, {"type": "note_off", "time": 18, "note": 74, "velocity": 94, "channel": 0}, {"type": "note_on", "time": 13, "note": 72, "velocity": 109, "channel": 0}, {"type": "note_off", "time": 38, "note": 72, "velocity": 109, "channel": 0}, {"type": "note_on", "time": 9, "note": 71, "velocity": 109, "channel": 0}, {"type": "note_off", "time": 33, "note": 71, "velocity": 109, "channel": 0}, {"type": "note_on", "time": 9, "note": 70, "velocity": 111, "channel": 0}, {"type": "note_off", "time": 107, "note": 70, "velocity": 111, "channel": 0}, {"type": "note_on", "time": 13, "note": 69, "velocity": 114, "channel": 0}, {"type": "note_off", "time": 89, "note": 69, "velocity": 114, "channel": 0}, {"type": "note_on", "time": 21, "note": 64, "velocity": 96, "channel": 0}, {"type": "note_off", "time": 88, "note": 64, "velocity": 96, "channel": 0}, {"type": "note_on", "time": 9, "note": 65, "velocity": 84, "channel": 0}, {"type": "note_off", "time": 44, "note": 65, "velocity": 84, "channel": 0}, {"type": "note_on", "time": 4, "note": 67, "velocity": 115, "channel": 0}, {"type": "note_off", "time": 104, "note": 67, "velocity": 115, "channel": 0}, {"type": "note_on", "time": 42, "note": 64, "velocity": 89, "channel": 0}, {"type": "note_off", "time": 44, "note": 64, "velocity": 89, "channel": 0}, {"type": "note_on", "time": 4, "note": 65, "velocity": 115, "channel": 0}, {"type": "note_off", "time": 111, "note": 65, "velocity": 115, "channel": 0}, {"type": "note_on", "time": 18, "note": 64, "velocity": 102, "channel": 0}, {"type": "note_off", "time": 70, "note": 64, "velocity": 102, "channel": 0}, {"type": "note_on", "time": 30, "note": 60, "velocity": 94, "channel": 0}, {"type": "note_off", "time": 69, "note": 60, "velocity": 94, "channel": 0}, {"type": "note_on", "time": 6, "note": 57, "velocity": 99, "channel": 0}, {"type": "note_off", "time": 72, "note": 57, "velocity": 99, "channel": 0}, {"type": "note_on", "time": 30, "note": 60, "velocity": 99, "channel": 0}, {"type": "note_off", "time": 32, "note": 60, "velocity": 99, "channel": 0}, {"type": "note_on", "time": 12, "note": 62, "velocity": 98, "channel": 0}, {"type": "note_off", "time": 81, "note": 62, "velocity": 98, "channel": 0}, {"type": "note_on", "time": 12, "note": 57, "velocity": 101, "channel": 0}, {"type": "note_off", "time": 101, "note": 57, "velocity": 101, "channel": 0}, {"type": "note_on", "time": 37, "note": 53, "velocity": 101, "channel": 0}, {"type": "note_off", "time": 183, "note": 53, "velocity": 101, "channel": 0}, {"type": "note_on", "time": 12, "note": 50, "velocity": 114, "channel": 0}, {"type": "note_off", "time": 259, "note": 50, "velocity": 114, "channel": 0}, {"type": "note_on", "time": 14, "note": 59, "velocity": 103, "channel": 0}, {"type": "note_off", "time": 103, "note": 59, "velocity": 103, "channel": 0}, {"type": "note_on", "time": 68, "note": 62, "velocity": 98, "channel": 0}, {"type": "note_off", "time": 273, "note": 62, "velocity": 98, "channel": 0}, {"type": "note_on", "time": 37, "note": 60, "velocity": 90, "channel": 0}, {"type": "note_off", "time": 58, "note": 60, "velocity": 90, "channel": 0}, {"type": "note_on", "time": 38, "note": 57, "velocity": 98, "channel": 0}, {"type": "note_off", "time": 93, "note": 57, "velocity": 98, "channel": 0}, {"type": "note_on", "time": 49, "note": 59, "velocity": 94, "channel": 0}, {"type": "note_off", "time": 155, "note": 59, "velocity": 94, "channel": 0}, {"type": "note_on", "time": 415, "note": 69, "velocity": 115, "channel": 0}, {"type": "note_off", "time": 89, "note": 69, "velocity": 115, "channel": 0}, {"type": "note_on", "time": 266, "note": 66, "velocity": 109, "channel": 0}, {"type": "note_off", "time": 108, "note": 66, "velocity": 109, "channel": 0}, {"type": "note_on", "time": 10, "note": 67, "velocity": 104, "channel": 0}, {"type": "note_off", "time": 128, "note": 67, "velocity": 104, "channel": 0}, {"type": "note_on", "time": 9, "note": 66, "velocity": 100, "channel": 0}, {"type": "note_off", "time": 109, "note": 66, "velocity": 100, "channel": 0}, {"type": "note_on", "time": 56, "note": 58, "velocity": 103, "channel": 0}, {"type": "note_off", "time": 85, "note": 58, "velocity": 103, "channel": 0}, {"type": "note_on", "time": 85, "note": 62, "velocity": 95, "channel": 0}, {"type": "note_off", "time": 38, "note": 62, "velocity": 95, "channel": 0}, {"type": "note_on", "time": 30, "note": 64, "velocity": 95, "channel": 0}, {"type": "note_off", "time": 54, "note": 64, "velocity": 95, "channel": 0}, {"type": "note_on", "time": 257, "note": 64, "velocity": 95, "channel": 0}, {"type": "note_off", "time": 79, "note": 64, "velocity": 95, "channel": 0}, {"type": "note_on", "time": 27, "note": 63, "velocity": 92, "channel": 0}, {"type": "note_off", "time": 107, "note": 63, "velocity": 92, "channel": 0}, {"type": "note_on", "time": 62, "note": 58, "velocity": 96, "channel": 0}, {"type": "note_off", "time": 68, "note": 58, "velocity": 96, "channel": 0}, {"type": "note_on", "time": 10, "note": 63, "velocity": 97, "channel": 0}, {"type": "note_off", "time": 129, "note": 63, "velocity": 97, "channel": 0}, {"type": "note_on", "time": 160, "note": 62, "velocity": 98, "channel": 0}, {"type": "note_off", "time": 184, "note": 62, "velocity": 98, "channel": 0}, {"type": "note_on", "time": 3, "note": 61, "velocity": 88, "channel": 0}, {"type": "note_off", "time": 74, "note": 61, "velocity": 88, "channel": 0}, {"type": "note_on", "time": 422, "note": 67, "velocity": 109, "channel": 0}, {"type": "note_off", "time": 32, "note": 67, "velocity": 109, "channel": 0}, {"type": "note_on", "time": 14, "note": 69, "velocity": 112, "channel": 0}, {"type": "note_off", "time": 49, "note": 69, "velocity": 112, "channel": 0}, {"type": "note_on", "time": 9, "note": 71, "velocity": 101, "channel": 0}, {"type": "note_off", "time": 22, "note": 71, "velocity": 101, "channel": 0}, {"type": "note_on", "time": 13, "note": 69, "velocity": 110, "channel": 0}, {"type": "note_off", "time": 46, "note": 69, "velocity": 110, "channel": 0}, {"type": "note_on", "time": 20, "note": 67, "velocity": 107, "channel": 0}, {"type": "note_off", "time": 57, "note": 67, "velocity": 107, "channel": 0}, {"type": "note_on", "time": 28, "note": 72, "velocity": 110, "channel": 0}, {"type": "note_off", "time": 117, "note": 72, "velocity": 110, "channel": 0}, {"type": "note_on", "time": 29, "note": 69, "velocity": 109, "channel": 0}, {"type": "note_off", "time": 76, "note": 69, "velocity": 109, "channel": 0}, {"type": "note_on", "time": 105, "note": 61, "velocity": 90, "channel": 0}, {"type": "note_off", "time": 389, "note": 61, "velocity": 90, "channel": 0}, {"type": "note_on", "time": 498, "note": 67, "velocity": 102, "channel": 0}, {"type": "note_off", "time": 52, "note": 67, "velocity": 102, "channel": 0}, {"type": "note_on", "time": 52, "note": 69, "velocity": 99, "channel": 0}, {"type": "note_off", "time": 100, "note": 69, "velocity": 99, "channel": 0}, {"type": "note_on", "time": 10, "note": 67, "velocity": 104, "channel": 0}, {"type": "note_off", "time": 105, "note": 67, "velocity": 104, "channel": 0}, {"type": "note_on", "time": 46, "note": 72, "velocity": 105, "channel": 0}, {"type": "note_off", "time": 175, "note": 72, "velocity": 105, "channel": 0}, {"type": "note_on", "time": 4, "note": 69, "velocity": 108, "channel": 0}, {"type": "note_off", "time": 112, "note": 69, "velocity": 108, "channel": 0}, {"type": "note_on", "time": 10, "note": 68, "velocity": 107, "channel": 0}, {"type": "note_off", "time": 68, "note": 68, "velocity": 107, "channel": 0}, {"type": "note_on", "time": 52, "note": 56, "velocity": 96, "channel": 0}, {"type": "note_off", "time": 85, "note": 56, "velocity": 96, "channel": 0}, {"type": "note_on", "time": 16, "note": 58, "velocity": 96, "channel": 0}, {"type": "note_off", "time": 124, "note": 58, "velocity": 96, "channel": 0}, {"type": "note_on", "time": 25, "note": 60, "velocity": 87, "channel": 0}, {"type": "note_off", "time": 504, "note": 60, "velocity": 87, "channel": 0}, {"type": "note_on", "time": 87, "note": 67, "velocity": 101, "channel": 0}, {"type": "note_off", "time": 92, "note": 67, "velocity": 101, "channel": 0}, {"type": "note_on", "time": 46, "note": 64, "velocity": 95, "channel": 0}, {"type": "note_off", "time": 108, "note": 64, "velocity": 95, "channel": 0}, {"type": "note_on", "time": 14, "note": 65, "velocity": 110, "channel": 0}, {"type": "note_off", "time": 125, "note": 65, "velocity": 110, "channel": 0}, {"type": "note_on", "time": 12, "note": 64, "velocity": 96, "channel": 0}, {"type": "note_off", "time": 85, "note": 64, "velocity": 96, "channel": 0}, {"type": "note_on", "time": 18, "note": 60, "velocity": 97, "channel": 0}, {"type": "note_off", "time": 112, "note": 60, "velocity": 97, "channel": 0}, {"type": "note_on", "time": 30, "note": 59, "velocity": 98, "channel": 0}, {"type": "note_off", "time": 116, "note": 59, "velocity": 98, "channel": 0}, {"type": "note_on", "time": 17, "note": 62, "velocity": 99, "channel": 0}, {"type": "note_off", "time": 99, "note": 62, "velocity": 99, "channel": 0}, {"type": "note_on", "time": 21, "note": 57, "velocity": 103, "channel": 0}, {"type": "note_off", "time": 104, "note": 57, "velocity": 103, "channel": 0}, {"type": "note_on", "time": 20, "note": 55, "velocity": 105, "channel": 0}, {"type": "note_off", "time": 136, "note": 55, "velocity": 105, "channel": 0}, {"type": "note_on", "time": 10, "note": 56, "velocity": 106, "channel": 0}, {"type": "note_off", "time": 111, "note": 56, "velocity": 106, "channel": 0}, {"type": "note_on", "time": 32, "note": 52, "velocity": 102, "channel": 0}, {"type": "note_off", "time": 156, "note": 52, "velocity": 102, "channel": 0}, {"type": "note_on", "time": 12, "note": 53, "velocity": 106, "channel": 0}, {"type": "note_off", "time": 125, "note": 53, "velocity": 106, "channel": 0}, {"type": "note_on", "time": 432, "note": 58, "velocity": 106, "channel": 0}, {"type": "note_off", "time": 68, "note": 58, "velocity": 106, "channel": 0}, {"type": "note_on", "time": 24, "note": 62, "velocity": 100, "channel": 0}, {"type": "note_off", "time": 56, "note": 62, "velocity": 100, "channel": 0}, {"type": "note_on", "time": 30, "note": 65, "velocity": 111, "channel": 0}, {"type": "note_off", "time": 92, "note": 65, "velocity": 111, "channel": 0}, {"type": "note_on", "time": 25, "note": 62, "velocity": 85, "channel": 0}, {"type": "note_off", "time": 70, "note": 62, "velocity": 85, "channel": 0}, {"type": "note_on", "time": 16, "note": 63, "velocity": 96, "channel": 0}, {"type": "note_off", "time": 78, "note": 63, "velocity": 96, "channel": 0}, {"type": "note_on", "time": 9, "note": 64, "velocity": 91, "channel": 0}, {"type": "note_off", "time": 62, "note": 64, "velocity": 91, "channel": 0}, {"type": "note_on", "time": 18, "note": 67, "velocity": 105, "channel": 0}, {"type": "note_off", "time": 77, "note": 67, "velocity": 105, "channel": 0}, {"type": "note_on", "time": 26, "note": 70, "velocity": 98, "channel": 0}, {"type": "note_off", "time": 68, "note": 70, "velocity": 98, "channel": 0}, {"type": "note_on", "time": 14, "note": 74, "velocity": 94, "channel": 0}, {"type": "note_off", "time": 84, "note": 74, "velocity": 94, "channel": 0}, {"type": "note_on", "time": 8, "note": 72, "velocity": 98, "channel": 0}, {"type": "note_off", "time": 83, "note": 72, "velocity": 98, "channel": 0}, {"type": "note_on", "time": 26, "note": 69, "velocity": 99, "channel": 0}, {"type": "note_off", "time": 81, "note": 69, "velocity": 99, "channel": 0}, {"type": "note_on", "time": 6, "note": 70, "velocity": 95, "channel": 0}, {"type": "note_off", "time": 68, "note": 70, "velocity": 95, "channel": 0}, {"type": "note_on", "time": 13, "note": 67, "velocity": 103, "channel": 0}, {"type": "note_off", "time": 87, "note": 67, "velocity": 103, "channel": 0}, {"type": "note_on", "time": 18, "note": 64, "velocity": 92, "channel": 0}, {"type": "note_off", "time": 93, "note": 64, "velocity": 92, "channel": 0}, {"type": "note_on", "time": 22, "note": 60, "velocity": 91, "channel": 0}, {"type": "note_off", "time": 136, "note": 60, "velocity": 91, "channel": 0}, {"type": "note_on", "time": 8, "note": 57, "velocity": 96, "channel": 0}, {"type": "note_off", "time": 200, "note": 57, "velocity": 96, "channel": 0}, {"type": "note_on", "time": 28, "note": 58, "velocity": 100, "channel": 0}, {"type": "note_off", "time": 128, "note": 58, "velocity": 100, "channel": 0}, {"type": "note_on", "time": 33, "note": 69, "velocity": 100, "channel": 0}, {"type": "note_off", "time": 87, "note": 69, "velocity": 100, "channel": 0}, {"type": "note_on", "time": 117, "note": 64, "velocity": 90, "channel": 0}, {"type": "note_off", "time": 92, "note": 64, "velocity": 90, "channel": 0}, {"type": "note_on", "time": 66, "note": 60, "velocity": 98, "channel": 0}, {"type": "note_off", "time": 104, "note": 60, "velocity": 98, "channel": 0}, {"type": "note_on", "time": 100, "note": 73, "velocity": 102, "channel": 0}, {"type": "note_off", "time": 32, "note": 73, "velocity": 102, "channel": 0}, {"type": "note_on", "time": 8, "note": 74, "velocity": 101, "channel": 0}, {"type": "note_off", "time": 68, "note": 74, "velocity": 101, "channel": 0}, {"type": "note_on", "time": 85, "note": 69, "velocity": 104, "channel": 0}, {"type": "note_off", "time": 50, "note": 69, "velocity": 104, "channel": 0}, {"type": "note_on", "time": 108, "note": 64, "velocity": 97, "channel": 0}, {"type": "note_off", "time": 87, "note": 64, "velocity": 97, "channel": 0}, {"type": "note_on", "time": 108, "note": 65, "velocity": 109, "channel": 0}, {"type": "note_off", "time": 77, "note": 65, "velocity": 109, "channel": 0}, {"type": "note_on", "time": 432, "note": 62, "velocity": 98, "channel": 0}, {"type": "note_off", "time": 80, "note": 62, "velocity": 98, "channel": 0}, {"type": "note_on", "time": 30, "note": 65, "velocity": 100, "channel": 0}, {"type": "note_off", "time": 85, "note": 65, "velocity": 100, "channel": 0}, {"type": "note_on", "time": 50, "note": 69, "velocity": 105, "channel": 0}, {"type": "note_off", "time": 107, "note": 69, "velocity": 105, "channel": 0}, {"type": "note_on", "time": 38, "note": 73, "velocity": 100, "channel": 0}, {"type": "note_off", "time": 18, "note": 73, "velocity": 100, "channel": 0}, {"type": "note_on", "time": 12, "note": 74, "velocity": 101, "channel": 0}, {"type": "note_off", "time": 61, "note": 74, "velocity": 101, "channel": 0}, {"type": "note_on", "time": 77, "note": 69, "velocity": 107, "channel": 0}, {"type": "note_off", "time": 73, "note": 69, "velocity": 107, "channel": 0}, {"type": "note_on", "time": 109, "note": 65, "velocity": 108, "channel": 0}, {"type": "note_off", "time": 70, "note": 65, "velocity": 108, "channel": 0}, {"type": "note_on", "time": 66, "note": 60, "velocity": 96, "channel": 0}, {"type": "note_off", "time": 36, "note": 60, "velocity": 96, "channel": 0}, {"type": "note_on", "time": 24, "note": 64, "velocity": 95, "channel": 0}, {"type": "note_off", "time": 70, "note": 64, "velocity": 95, "channel": 0}, {"type": "note_on", "time": 37, "note": 65, "velocity": 111, "channel": 0}, {"type": "note_off", "time": 80, "note": 65, "velocity": 111, "channel": 0}, {"type": "note_on", "time": 121, "note": 61, "velocity": 102, "channel": 0}, {"type": "note_off", "time": 45, "note": 61, "velocity": 102, "channel": 0}, {"type": "note_on", "time": 8, "note": 62, "velocity": 100, "channel": 0}, {"type": "note_off", "time": 53, "note": 62, "velocity": 100, "channel": 0}, {"type": "note_on", "time": 13, "note": 72, "velocity": 99, "channel": 0}, {"type": "note_off", "time": 44, "note": 72, "velocity": 99, "channel": 0}, {"type": "note_on", "time": 13, "note": 70, "velocity": 104, "channel": 0}, {"type": "note_off", "time": 65, "note": 70, "velocity": 104, "channel": 0}, {"type": "note_on", "time": 10, "note": 67, "velocity": 101, "channel": 0}, {"type": "note_off", "time": 77, "note": 67, "velocity": 101, "channel": 0}, {"type": "note_on", "time": 20, "note": 68, "velocity": 108, "channel": 0}, {"type": "note_off", "time": 65, "note": 68, "velocity": 108, "channel": 0}, {"type": "note_on", "time": 16, "note": 69, "velocity": 99, "channel": 0}, {"type": "note_off", "time": 77, "note": 69, "velocity": 99, "channel": 0}, {"type": "note_on", "time": 29, "note": 65, "velocity": 99, "channel": 0}, {"type": "note_off", "time": 49, "note": 65, "velocity": 99, "channel": 0}, {"type": "note_on", "time": 65, "note": 60, "velocity": 103, "channel": 0}, {"type": "note_off", "time": 28, "note": 60, "velocity": 103, "channel": 0}, {"type": "note_on", "time": 12, "note": 62, "velocity": 105, "channel": 0}, {"type": "note_off", "time": 34, "note": 62, "velocity": 105, "channel": 0}, {"type": "note_on", "time": 6, "note": 60, "velocity": 101, "channel": 0}, {"type": "note_off", "time": 41, "note": 60, "velocity": 101, "channel": 0}, {"type": "note_on", "time": 8, "note": 59, "velocity": 105, "channel": 0}, {"type": "note_off", "time": 33, "note": 59, "velocity": 105, "channel": 0}, {"type": "note_on", "time": 5, "note": 58, "velocity": 103, "channel": 0}, {"type": "note_off", "time": 36, "note": 58, "velocity": 103, "channel": 0}, {"type": "note_on", "time": 8, "note": 57, "velocity": 108, "channel": 0}, {"type": "note_off", "time": 44, "note": 57, "velocity": 108, "channel": 0}, {"type": "note_on", "time": 13, "note": 56, "velocity": 107, "channel": 0}, {"type": "note_off", "time": 42, "note": 56, "velocity": 107, "channel": 0}, {"type": "note_on", "time": 60, "note": 57, "velocity": 101, "channel": 0}, {"type": "note_off", "time": 56, "note": 57, "velocity": 101, "channel": 0}, {"type": "note_on", "time": 18, "note": 60, "velocity": 101, "channel": 0}, {"type": "note_off", "time": 53, "note": 60, "velocity": 101, "channel": 0}, {"type": "note_on", "time": 17, "note": 57, "velocity": 100, "channel": 0}, {"type": "note_off", "time": 61, "note": 57, "velocity": 100, "channel": 0}, {"type": "end_of_track", "time": 0}]]}