{"ticks_per_beat": 192, "tracks": [[{"type": "track_name", "name": "Melody", "time": 0}, {"type": "set_tempo", "tempo": 222222, "time": 0}, {"type": "key_signature", "key": "Ab", "time": 0}, {"type": "time_signature", "numerator": 4, "denominator": 4, "clocks_per_click": 24, "notated_32nd_notes_per_beat": 8, "time": 0}, {"type": "note_on", "time": 2194, "note": 53, "velocity": 90, "channel": 0}, {"type": "note_off", "time": 52, "note": 53, "velocity": 90, "channel": 0}, {"type": "note_on", "time": 25, "note": 63, "velocity": 116, "channel": 0}, {"type": "note_off", "time": 878, "note": 63, "velocity": 116, "channel": 0}, {"type": "note_on", "time": 118, "note": 59, "velocity": 98, "channel": 0}, {"type": "note_off", "time": 202, "note": 59, "velocity": 98, "channel": 0}, {"type": "note_on", "time": 16, "note": 60, "velocity": 100, "channel": 0}, {"type": "note_off", "time": 189, "note": 60, "velocity": 100, "channel": 0}, {"type": "note_on", "time": 15, "note": 63, "velocity": 104, "channel": 0}, {"type": "note_off", "time": 182, "note": 63, "velocity": 104, "channel": 0}, {"type": "note_on", "time": 55, "note": 59, "velocity": 91, "channel": 0}, {"type": "note_off", "time": 154, "note": 59, "velocity": 91, "channel": 0}, {"type": "note_on", "time": 9, "note": 60, "velocity": 98, "channel": 0}, {"type": "note_off", "time": 178, "note": 60, "velocity": 98, "channel": 0}, {"type": "note_on", "time": 13, "note": 63, "velocity": 109, "channel": 0}, {"type": "note_off", "time": 184, "note": 63, "velocity": 109, "channel": 0}, {"type": "note_on", "time": 18, "note": 59, "velocity": 96, "channel": 0}, {"type": "note_off", "time": 203, "note": 59, "velocity": 96, "channel": 0}, {"type": "note_on", "time": 10, "note": 60, "velocity": 100, "channel": 0}, {"type": "note_off", "time": 171, "note": 60, "velocity": 100, "channel": 0}, {"type": "note_on", "time": 6, "note": 65, "velocity": 106, "channel": 0}, {"type": "note_off", "time": 166, "note": 65, "velocity": 106, "channel": 0}, {"type": "note_on", "time": 31, "note": 59, "velocity": 98, "channel": 0}, {"type": "note_off", "time": 179, "note": 59, "velocity": 98, "channel": 0}, {"type": "note_on", "time": 16, "note": 60, "velocity": 98, "channel": 0}, {"type": "note_off", "time": 173, "note": 60, "velocity": 98, "channel": 0}, {"type": "note_on", "time": 20, "note": 63, "velocity": 101, "channel": 0}, {"type": "note_off", "time": 205, "note": 63, "velocity": 101, "channel": 0}, {"type": "note_on", "time": 4, "note": 53, "velocity": 100, "channel": 0}, {"type": "note_off", "time": 152, "note": 53, "velocity": 100, "channel": 0}, {"type": "note_on", "time": 43, "note": 51, "velocity": 92, "channel": 0}, {"type": "note_off", "time": 166, "note": 51, "velocity": 92, "channel": 0}, {"type": "note_on", "time": 18, "note": 56, "velocity": 99, "channel": 0}, {"type": "note_off", "time": 351, "note": 56, "velocity": 99, "channel": 0}, {"type": "note_on", "time": 19, "note": 51, "velocity": 101, "channel": 0}, {"type": "note_off", "time": 133, "note": 51, "velocity": 101, "channel": 0}, {"type": "note_on", "time": 6, "note": 53, "velocity": 86, "channel": 0}, {"type": "note_off", "time": 66, "note": 53, "velocity": 86, "channel": 0}, {"type": "note_on", "time": 7, "note": 56, "velocity": 107, "channel": 0}, {"type": "note_off", "time": 119, "note": 56, "velocity": 107, "channel": 0}, {"type": "note_on", "time": 9, "note": 60, "velocity": 105, "channel": 0}, {"type": "note_off", "time": 60, "note": 60, "velocity": 105, "channel": 0}, {"type": "note_on", "time": 6, "note": 63, "velocity": 105, "channel": 0}, {"type": "note_off", "time": 188, "note": 63, "velocity": 105, "channel": 0}, {"type": "note_on", "time": 22, "note": 51, "velocity": 118, "channel": 0}, {"type": "note_off", "time": 103, "note": 51, "velocity": 118, "channel": 0}, {"type": "note_on", "time": 7, "note": 53, "velocity": 98, "channel": 0}, {"type": "note_off", "time": 71, "note": 53, "velocity": 98, "channel": 0}, {"type": "note_on", "time": 7, "note": 56, "velocity": 101, "channel": 0}, {"type": "note_off", "time": 111, "note": 56, "velocity": 101, "channel": 0}, {"type": "note_on", "time": 9, "note": 60, "velocity": 107, "channel": 0}, {"type": "note_off", "time": 55, "note": 60, "velocity": 107, "channel": 0}, {"type": "note_on", "time": 6, "note": 63, "velocity": 111, "channel": 0}, {"type": "note_off", "time": 169, "note": 63, "velocity": 111, "channel": 0}, {"type": "note_on", "time": 13, "note": 63, "velocity": 112, "channel": 0}, {"type": "note_off", "time": 321, "note": 63, "velocity": 112, "channel": 0}, {"type": "note_on", "time": 26, "note": 51, "velocity": 92, "channel": 0}, {"type": "note_off", "time": 225, "note": 51, "velocity": 92, "channel": 0}, {"type": "note_on", "time": 340, "note": 58, "velocity": 93, "channel": 0}, {"type": "note_off", "time": 30, "note": 58, "velocity": 93, "channel": 0}, {"type": "note_on", "time": 3, "note": 65, "velocity": 123, "channel": 0}, {"type": "note_off", "time": 148, "note": 65, "velocity": 123, "channel": 0}, {"type": "note_on", "time": 1, "note": 64, "velocity": 113, "channel": 0}, {"type": "note_off", "time": 92, "note": 64, "velocity": 113, "channel": 0}, {"type": "note_on", "time": 1, "note": 65, "velocity": 122, "channel": 0}, {"type": "note_off", "time": 103, "note": 65, "velocity": 122, "channel": 0}, {"type": "note_on", "time": 2, "note": 64, "velocity": 113, "channel": 0}, {"type": "note_off", "time": 83, "note": 64, "velocity": 113, "channel": 0}, {"type": "note_on", "time": 3, "note": 65, "velocity": 123, "channel": 0}, {"type": "note_off", "time": 113, "note": 65, "velocity": 123, "channel": 0}, {"type": "note_on", "time": 7, "note": 64, "velocity": 109, "channel": 0}, {"type": "note_off", "time": 71, "note": 64, "velocity": 109, "channel": 0}, {"type": "note_on", "time": 4, "note": 65, "velocity": 108, "channel": 0}, {"type": "note_off", "time": 346, "note": 65, "velocity": 108, "channel": 0}, {"type": "note_on", "time": 6, "note": 60, "velocity": 105, "channel": 0}, {"type": "note_off", "time": 184, "note": 60, "velocity": 105, "channel": 0}, {"type": "note_on", "time": 9, "note": 65, "velocity": 106, "channel": 0}, {"type": "note_off", "time": 373, "note": 65, "velocity": 106, "channel": 0}, {"type": "note_on", "time": 7, "note": 65, "velocity": 104, "channel": 0}, {"type": "note_off", "time": 90, "note": 65, "velocity": 104, "channel": 0}, {"type": "note_on", "time": 255, "note": 63, "velocity": 104, "channel": 0}, {"type": "note_off", "time": 43, "note": 63, "velocity": 104, "channel": 0}, {"type": "note_on", "time": 3, "note": 65, "velocity": 123, "channel": 0}, {"type": "note_off", "time": 110, "note": 65, "velocity": 123, "channel": 0}, {"type": "note_on", "time": 7, "note": 64, "velocity": 111, "channel": 0}, {"type": "note_off", "time": 88, "note": 64, "velocity": 111, "channel": 0}, {"type": "note_on", "time": 3, "note": 65, "velocity": 117, "channel": 0}, {"type": "note_off", "time": 370, "note": 65, "velocity": 117, "channel": 0}, {"type": "note_on", "time": 10, "note": 60, "velocity": 108, "channel": 0}, {"type": "note_off", "time": 171, "note": 60, "velocity": 108, "channel": 0}, {"type": "note_on", "time": 7, "note": 65, "velocity": 108, "channel": 0}, {"type": "note_off", "time": 349, "note": 65, "velocity": 108, "channel": 0}, {"type": "note_on", "time": 11, "note": 65, "velocity": 119, "channel": 0}, {"type": "note_off", "time": 134, "note": 65, "velocity": 119, "channel": 0}, {"type": "note_on", "time": 12, "note": 60, "velocity": 109, "channel": 0}, {"type": "note_off", "time": 58, "note": 60, "velocity": 109, "channel": 0}, {"type": "note_on", "time": 7, "note": 61, "velocity": 107, "channel": 0}, {"type": "note_off", "time": 95, "note": 61, "velocity": 107, "channel": 0}, {"type": "note_on", "time": 8, "note": 58, "velocity": 107, "channel": 0}, {"type": "note_off", "time": 72, "note": 58, "velocity": 107, "channel": 0}, {"type": "note_on", "time": 5, "note": 55, "velocity": 101, "channel": 0}, {"type": "note_off", "time": 111, "note": 55, "velocity": 101, "channel": 0}, {"type": "note_on", "time": 13, "note": 51, "velocity": 97, "channel": 0}, {"type": "note_off", "time": 63, "note": 51, "velocity": 97, "channel": 0}, {"type": "note_on", "time": 26, "note": 60, "velocity": 109, "channel": 0}, {"type": "note_off", "time": 104, "note": 60, "velocity": 109, "channel": 0}, {"type": "note_on", "time": 2, "note": 58, "velocity": 101, "channel": 0}, {"type": "note_off", "time": 57, "note": 58, "velocity": 101, "channel": 0}, {"type": "note_on", "time": 5, "note": 63, "velocity": 120, "channel": 0}, {"type": "note_off", "time": 114, "note": 63, "velocity": 120, "channel": 0}, {"type": "note_on", "time": 5, "note": 62, "velocity": 116, "channel": 0}, {"type": "note_off", "time": 78, "note": 62, "velocity": 116, "channel": 0}, {"type": "note_on", "time": 8, "note": 61, "velocity": 109, "channel": 0}, {"type": "note_off", "time": 87, "note": 61, "velocity": 109, "channel": 0}, {"type": "note_on", "time": 10, "note": 58, "velocity": 101, "channel": 0}, {"type": "note_off", "time": 84, "note": 58, "velocity": 101, "channel": 0}, {"type": "note_on", "time": 13, "note": 55, "velocity": 103, "channel": 0}, {"type": "note_off", "time": 99, "note": 55, "velocity": 103, "channel": 0}, {"type": "note_on", "time": 10, "note": 51, "velocity": 96, "channel": 0}, {"type": "note_off", "time": 51, "note": 51, "velocity": 96, "channel": 0}, {"type": "note_on", "time": 22, "note": 58, "velocity": 96, "channel": 0}, {"type": "note_off", "time": 220, "note": 58, "velocity": 96, "channel": 0}, {"type": "note_on", "time": 353, "note": 55, "velocity": 109, "channel": 0}, {"type": "note_off", "time": 59, "note": 55, "velocity": 109, "channel": 0}, {"type": "note_on", "time": 3, "note": 56, "velocity": 100, "channel": 0}, {"type": "note_off", "time": 114, "note": 56, "velocity": 100, "channel": 0}, {"type": "note_on", "time": 42, "note": 55, "velocity": 115, "channel": 0}, {"type": "note_off", "time": 48, "note": 55, "velocity": 115, "channel": 0}, {"type": "note_on", "time": 4, "note": 56, "velocity": 103, "channel": 0}, {"type": "note_off", "time": 82, "note": 56, "velocity": 103, "channel": 0}, {"type": "note_on", "time": 8, "note": 55, "velocity": 104, "channel": 0}, {"type": "note_off", "time": 118, "note": 55, "velocity": 104, "channel": 0}, {"type": "note_on", "time": 2, "note": 56, "velocity": 99, "channel": 0}, {"type": "note_off", "time": 81, "note": 56, "velocity": 99, "channel": 0}, {"type": "note_on", "time": 13, "note": 53, "velocity": 100, "channel": 0}, {"type": "note_off", "time": 98, "note": 53, "velocity": 100, "channel": 0}, {"type": "note_on", "time": 6, "note": 56, "velocity": 98, "channel": 0}, {"type": "note_off", "time": 75, "note": 56, "velocity": 98, "channel": 0}, {"type": "note_on", "time": 6, "note": 55, "velocity": 100, "channel": 0}, {"type": "note_off", "time": 100, "note": 55, "velocity": 100, "channel": 0}, {"type": "note_on", "time": 4, "note": 56, "velocity": 92, "channel": 0}, {"type": "note_off", "time": 69, "note": 56, "velocity": 92, "channel": 0}, {"type": "note_on", "time": 6, "note": 55, "velocity": 98, "channel": 0}, {"type": "note_off", "time": 99, "note": 55, "velocity": 98, "channel": 0}, {"type": "note_on", "time": 4, "note": 56, "velocity": 94, "channel": 0}, {"type": "note_off", "time": 79, "note": 56, "velocity": 94, "channel": 0}, {"type": "note_on", "time": 6, "note": 55, "velocity": 98, "channel": 0}, {"type": "note_off", "time": 113, "note": 55, "velocity": 98, "channel": 0}, {"type": "note_on", "time": 5, "note": 56, "velocity": 92, "channel": 0}, {"type": "note_off", "time": 76, "note": 56, "velocity": 92, "channel": 0}, {"type": "note_on", "time": 2, "note": 53, "velocity": 89, "channel": 0}, {"type": "note_off", "time": 103, "note": 53, "velocity": 89, "channel": 0}, {"type": "note_on", "time": 7, "note": 56, "velocity": 93, "channel": 0}, {"type": "note_off", "time": 81, "note": 56, "velocity": 93, "channel": 0}, {"type": "note_on", "time": 6, "note": 55, "velocity": 99, "channel": 0}, {"type": "note_off", "time": 94, "note": 55, "velocity": 99, "channel": 0}, {"type": "note_on", "time": 2, "note": 56, "velocity": 92, "channel": 0}, {"type": "note_off", "time": 89, "note": 56, "velocity": 92, "channel": 0}, {"type": "note_on", "time": 5, "note": 55, "velocity": 98, "channel": 0}, {"type": "note_off", "time": 87, "note": 55, "velocity": 98, "channel": 0}, {"type": "note_on", "time": 0, "note": 56, "velocity": 91, "channel": 0}, {"type": "note_off", "time": 88, "note": 56, "velocity": 91, "channel": 0}, {"type": "note_on", "time": 12, "note": 54, "velocity": 109, "channel": 0}, {"type": "note_off", "time": 101, "note": 54, "velocity": 109, "channel": 0}, {"type": "note_on", "time": 3, "note": 56, "velocity": 95, "channel": 0}, {"type": "note_off", "time": 96, "note": 56, "velocity": 95, "channel": 0}, {"type": "note_on", "time": 12, "note": 58, "velocity": 96, "channel": 0}, {"type": "note_off", "time": 105, "note": 58, "velocity": 96, "channel": 0}, {"type": "note_on", "time": 1, "note": 56, "velocity": 96, "channel": 0}, {"type": "note_off", "time": 87, "note": 56, "velocity": 96, "channel": 0}, {"type": "note_on", "time": 3, "note": 55, "velocity": 102, "channel": 0}, {"type": "note_off", "time": 104, "note": 55, "velocity": 102, "channel": 0}, {"type": "note_on", "time": 4, "note": 56, "velocity": 94, "channel": 0}, {"type": "note_off", "time": 63, "note": 56, "velocity": 94, "channel": 0}, {"type": "note_on", "time": 9, "note": 55, "velocity": 100, "channel": 0}, {"type": "note_off", "time": 94, "note": 55, "velocity": 100, "channel": 0}, {"type": "note_on", "time": 5, "note": 56, "velocity": 94, "channel": 0}, {"type": "note_off", "time": 82, "note": 56, "velocity": 94, "channel": 0}, {"type": "note_on", "time": 16, "note": 55, "velocity": 102, "channel": 0}, {"type": "note_off", "time": 131, "note": 55, "velocity": 102, "channel": 0}, {"type": "note_on", "time": 4, "note": 56, "velocity": 95, "channel": 0}, {"type": "note_off", "time": 25, "note": 56, "velocity": 95, "channel": 0}, {"type": "note_on", "time": 3, "note": 60, "velocity": 107, "channel": 0}, {"type": "note_off", "time": 157, "note": 60, "velocity": 107, "channel": 0}, {"type": "note_on", "time": 8, "note": 56, "velocity": 99, "channel": 0}, {"type": "note_off", "time": 58, "note": 56, "velocity": 99, "channel": 0}, {"type": "note_on", "time": 8, "note": 55, "velocity": 110, "channel": 0}, {"type": "note_off", "time": 60, "note": 55, "velocity": 110, "channel": 0}, {"type": "note_on", "time": 6, "note": 56, "velocity": 96, "channel": 0}, {"type": "note_off", "time": 96, "note": 56, "velocity": 96, "channel": 0}, {"type": "note_on", "time": 9, "note": 55, "velocity": 99, "channel": 0}, {"type": "note_off", "time": 96, "note": 55, "velocity": 99, "channel": 0}, {"type": "note_on", "time": 6, "note": 56, "velocity": 92, "channel": 0}, {"type": "note_off", "time": 85, "note": 56, "velocity": 92, "channel": 0}, {"type": "note_on", "time": 6, "note": 55, "velocity": 110, "channel": 0}, {"type": "note_off", "time": 79, "note": 55, "velocity": 110, "channel": 0}, {"type": "note_on", "time": 5, "note": 56, "velocity": 97, "channel": 0}, {"type": "note_off", "time": 68, "note": 56, "velocity": 97, "channel": 0}, {"type": "note_on", "time": 14, "note": 51, "velocity": 103, "channel": 0}, {"type": "note_off", "time": 128, "note": 51, "velocity": 103, "channel": 0}, {"type": "note_on", "time": 9, "note": 56, "velocity": 102, "channel": 0}, {"type": "note_off", "time": 60, "note": 56, "velocity": 102, "channel": 0}, {"type": "note_on", "time": 8, "note": 55, "velocity": 106, "channel": 0}, {"type": "note_off", "time": 115, "note": 55, "velocity": 106, "channel": 0}, {"type": "note_on", "time": 3, "note": 56, "velocity": 97, "channel": 0}, {"type": "note_off", "time": 71, "note": 56, "velocity": 97, "channel": 0}, {"type": "note_on", "time": 8, "note": 55, "velocity": 101, "channel": 0}, {"type": "note_off", "time": 82, "note": 55, "velocity": 101, "channel": 0}, {"type": "note_on", "time": 3, "note": 56, "velocity": 101, "channel": 0}, {"type": "note_off", "time": 88, "note": 56, "velocity": 101, "channel": 0}, {"type": "note_on", "time": 8, "note": 55, "velocity": 116, "channel": 0}, {"type": "note_off", "time": 114, "note": 55, "velocity": 116, "channel": 0}, {"type": "note_on", "time": 7, "note": 56, "velocity": 98, "channel": 0}, {"type": "note_off", "time": 77, "note": 56, "velocity": 98, "channel": 0}, {"type": "note_on", "time": 12, "note": 63, "velocity": 115, "channel": 0}, {"type": "note_off", "time": 125, "note": 63, "velocity": 115, "channel": 0}, {"type": "note_on", "time": 8, "note": 56, "velocity": 101, "channel": 0}, {"type": "note_off", "time": 63, "note": 56, "velocity": 101, "channel": 0}, {"type": "note_on", "time": 3, "note": 55, "velocity": 112, "channel": 0}, {"type": "note_off", "time": 121, "note": 55, "velocity": 112, "channel": 0}, {"type": "note_on", "time": 3, "note": 56, "velocity": 95, "channel": 0}, {"type": "note_off", "time": 57, "note": 56, "velocity": 95, "channel": 0}, {"type": "note_on", "time": 14, "note": 60, "velocity": 110, "channel": 0}, {"type": "note_off", "time": 110, "note": 60, "velocity": 110, "channel": 0}, {"type": "note_on", "time": 3, "note": 56, "velocity": 99, "channel": 0}, {"type": "note_off", "time": 68, "note": 56, "velocity": 99, "channel": 0}, {"type": "note_on", "time": 6, "note": 55, "velocity": 99, "channel": 0}, {"type": "note_off", "time": 103, "note": 55, "velocity": 99, "channel": 0}, {"type": "note_on", "time": 1, "note": 56, "velocity": 93, "channel": 0}, {"type": "note_off", "time": 79, "note": 56, "velocity": 93, "channel": 0}, {"type": "note_on", "time": 3, "note": 65, "velocity": 119, "channel": 0}, {"type": "note_off", "time": 118, "note": 65, "velocity": 119, "channel": 0}, {"type": "note_on", "time": 8, "note": 56, "velocity": 96, "channel": 0}, {"type": "note_off", "time": 68, "note": 56, "velocity": 96, "channel": 0}, {"type": "note_on", "time": 3, "note": 55, "velocity": 101, "channel": 0}, {"type": "note_off", "time": 114, "note": 55, "velocity": 101, "channel": 0}, {"type": "note_on", "time": 6, "note": 56, "velocity": 93, "channel": 0}, {"type": "note_off", "time": 63, "note": 56, "velocity": 93, "channel": 0}, {"type": "note_on", "time": 9, "note": 63, "velocity": 117, "channel": 0}, {"type": "note_off", "time": 132, "note": 63, "velocity": 117, "channel": 0}, {"type": "note_on", "time": 6, "note": 56, "velocity": 96, "channel": 0}, {"type": "note_off", "time": 58, "note": 56, "velocity": 96, "channel": 0}, {"type": "note_on", "time": 3, "note": 55, "velocity": 103, "channel": 0}, {"type": "note_off", "time": 119, "note": 55, "velocity": 103, "channel": 0}, {"type": "note_on", "time": 2, "note": 56, "velocity": 97, "channel": 0}, {"type": "note_off", "time": 62, "note": 56, "velocity": 97, "channel": 0}, {"type": "note_on", "time": 3, "note": 60, "velocity": 110, "channel": 0}, {"type": "note_off", "time": 121, "note": 60, "velocity": 110, "channel": 0}, {"type": "note_on", "time": 8, "note": 57, "velocity": 106, "channel": 0}, {"type": "note_off", "time": 53, "note": 57, "velocity": 106, "channel": 0}, {"type": "note_on", "time": 7, "note": 58, "velocity": 105, "channel": 0}, {"type": "note_off", "time": 141, "note": 58, "velocity": 105, "channel": 0}, {"type": "note_on", "time": 3, "note": 57, "velocity": 99, "channel": 0}, {"type": "note_off", "time": 49, "note": 57, "velocity": 99, "channel": 0}, {"type": "note_on", "time": 7, "note": 58, "velocity": 103, "channel": 0}, {"type": "note_off", "time": 113, "note": 58, "velocity": 103, "channel": 0}, {"type": "note_on", "time": 6, "note": 56, "velocity": 98, "channel": 0}, {"type": "note_off", "time": 63, "note": 56, "velocity": 98, "channel": 0}, {"type": "note_on", "time": 5, "note": 53, "velocity": 109, "channel": 0}, {"type": "note_off", "time": 99, "note": 53, "velocity": 109, "channel": 0}, {"type": "note_on", "time": 6, "note": 51, "velocity": 96, "channel": 0}, {"type": "note_off", "time": 59, "note": 51, "velocity": 96, "channel": 0}, {"type": "note_on", "time": 13, "note": 56, "velocity": 93, "channel": 0}, {"type": "note_off", "time": 146, "note": 56, "velocity": 93, "channel": 0}, {"type": "note_on", "time": 390, "note": 53, "velocity": 102, "channel": 0}, {"type": "note_off", "time": 31, "note": 53, "velocity": 102, "channel": 0}, {"type": "note_on", "time": 4, "note": 57, "velocity": 103, "channel": 0}, {"type": "note_off", "time": 25, "note": 57, "velocity": 103, "channel": 0}, {"type": "note_on", "time": 1, "note": 66, "velocity": 122, "channel": 0}, {"type": "note_off", "time": 36, "note": 66, "velocity": 122, "channel": 0}, {"type": "note_on", "time": 7, "note": 68, "velocity": 118, "channel": 0}, {"type": "note_off", "time": 806, "note": 68, "velocity": 118, "channel": 0}, {"type": "note_on", "time": 99, "note": 65, "velocity": 127, "channel": 0}, {"type": "note_off", "time": 174, "note": 65, "velocity": 127, "channel": 0}, {"type": "note_on", "time": 185, "note": 67, "velocity": 93, "channel": 0}, {"type": "note_off", "time": 26, "note": 67, "velocity": 93, "channel": 0}, {"type": "note_on", "time": 4, "note": 68, "velocity": 123, "channel": 0}, {"type": "note_off", "time": 181, "note": 68, "velocity": 123, "channel": 0}, {"type": "note_on", "time": 110, "note": 65, "velocity": 124, "channel": 0}, {"type": "note_off", "time": 149, "note": 65, "velocity": 124, "channel": 0}, {"type": "note_on", "time": 131, "note": 71, "velocity": 119, "channel": 0}, {"type": "note_off", "time": 103, "note": 71, "velocity": 119, "channel": 0}, {"type": "note_on", "time": 8, "note": 72, "velocity": 114, "channel": 0}, {"type": "note_off", "time": 72, "note": 72, "velocity": 114, "channel": 0}, {"type": "note_on", "time": 1, "note": 71, "velocity": 110, "channel": 0}, {"type": "note_off", "time": 63, "note": 71, "velocity": 110, "channel": 0}, {"type": "note_on", "time": 6, "note": 72, "velocity": 110, "channel": 0}, {"type": "note_off", "time": 31, "note": 72, "velocity": 110, "channel": 0}, {"type": "note_on", "time": 4, "note": 71, "velocity": 113, "channel": 0}, {"type": "note_off", "time": 56, "note": 71, "velocity": 113, "channel": 0}, {"type": "note_on", "time": 3, "note": 70, "velocity": 119, "channel": 0}, {"type": "note_off", "time": 157, "note": 70, "velocity": 119, "channel": 0}, {"type": "note_on", "time": 37, "note": 68, "velocity": 113, "channel": 0}, {"type": "note_off", "time": 176, "note": 68, "velocity": 113, "channel": 0}, {"type": "note_on", "time": 16, "note": 65, "velocity": 107, "channel": 0}, {"type": "note_off", "time": 181, "note": 65, "velocity": 107, "channel": 0}, {"type": "note_on", "time": 12, "note": 72, "velocity": 111, "channel": 0}, {"type": "note_off", "time": 242, "note": 72, "velocity": 111, "channel": 0}, {"type": "note_on", "time": 42, "note": 65, "velocity": 105, "channel": 0}, {"type": "note_off", "time": 299, "note": 65, "velocity": 105, "channel": 0}, {"type": "note_on", "time": 9, "note": 60, "velocity": 111, "channel": 0}, {"type": "note_off", "time": 114, "note": 60, "velocity": 111, "channel": 0}, {"type": "note_on", "time": 3, "note": 61, "velocity": 113, "channel": 0}, {"type": "note_off", "time": 68, "note": 61, "velocity": 113, "channel": 0}, {"type": "note_on", "time": 1, "note": 62, "velocity": 119, "channel": 0}, {"type": "note_off", "time": 89, "note": 62, "velocity": 119, "channel": 0}, {"type": "note_on", "time": 3, "note": 63, "velocity": 121, "channel": 0}, {"type": "note_off", "time": 64, "note": 63, "velocity": 121, "channel": 0}, {"type": "note_on", "time": 10, "note": 60, "velocity": 112, "channel": 0}, {"type": "note_off", "time": 90, "note": 60, "velocity": 112, "channel": 0}, {"type": "note_on", "time": 5, "note": 58, "velocity": 106, "channel": 0}, {"type": "note_off", "time": 72, "note": 58, "velocity": 106, "channel": 0}, {"type": "note_on", "time": 9, "note": 56, "velocity": 106, "channel": 0}, {"type": "note_off", "time": 100, "note": 56, "velocity": 106, "channel": 0}, {"type": "note_on", "time": 7, "note": 53, "velocity": 98, "channel": 0}, {"type": "note_off", "time": 67, "note": 53, "velocity": 98, "channel": 0}, {"type": "note_on", "time": 29, "note": 60, "velocity": 109, "channel": 0}, {"type": "note_off", "time": 102, "note": 60, "velocity": 109, "channel": 0}, {"type": "note_on", "time": 1, "note": 61, "velocity": 110, "channel": 0}, {"type": "note_off", "time": 68, "note": 61, "velocity": 110, "channel": 0}, {"type": "note_on", "time": 2, "note": 62, "velocity": 118, "channel": 0}, {"type": "note_off", "time": 75, "note": 62, "velocity": 118, "channel": 0}, {"type": "note_on", "time": 2, "note": 63, "velocity": 122, "channel": 0}, {"type": "note_off", "time": 113, "note": 63, "velocity": 122, "channel": 0}, {"type": "note_on", "time": 6, "note": 60, "velocity": 113, "channel": 0}, {"type": "note_off", "time": 88, "note": 60, "velocity": 113, "channel": 0}, {"type": "note_on", "time": 3, "note": 58, "velocity": 103, "channel": 0}, {"type": "note_off", "time": 74, "note": 58, "velocity": 103, "channel": 0}, {"type": "note_on", "time": 2, "note": 56, "velocity": 106, "channel": 0}, {"type": "note_off", "time": 92, "note": 56, "velocity": 106, "channel": 0}, {"type": "note_on", "time": 1, "note": 53, "velocity": 97, "channel": 0}, {"type": "note_off", "time": 106, "note": 53, "velocity": 97, "channel": 0}, {"type": "note_on", "time": 4, "note": 51, "velocity": 111, "channel": 0}, {"type": "note_off", "time": 117, "note": 51, "velocity": 111, "channel": 0}, {"type": "note_on", "time": 6, "note": 53, "velocity": 97, "channel": 0}, {"type": "note_off", "time": 62, "note": 53, "velocity": 97, "channel": 0}, {"type": "note_on", "time": 6, "note": 56, "velocity": 101, "channel": 0}, {"type": "note_off", "time": 119, "note": 56, "velocity": 101, "channel": 0}, {"type": "note_on", "time": 290, "note": 51, "velocity": 121, "channel": 0}, {"type": "note_off", "time": 78, "note": 51, "velocity": 121, "channel": 0}, {"type": "note_on", "time": 6, "note": 53, "velocity": 112, "channel": 0}, {"type": "note_off", "time": 102, "note": 53, "velocity": 112, "channel": 0}, {"type": "note_on", "time": 6, "note": 57, "velocity": 112, "channel": 0}, {"type": "note_off", "time": 95, "note": 57, "velocity": 112, "channel": 0}, {"type": "note_on", "time": 6, "note": 60, "velocity": 110, "channel": 0}, {"type": "note_off", "time": 55, "note": 60, "velocity": 110, "channel": 0}, {"type": "note_on", "time": 5, "note": 65, "velocity": 118, "channel": 0}, {"type": "note_off", "time": 274, "note": 65, "velocity": 118, "channel": 0}, {"type": "note_on", "time": 4, "note": 63, "velocity": 118, "channel": 0}, {"type": "note_off", "time": 97, "note": 63, "velocity": 118, "channel": 0}, {"type": "note_on", "time": 5, "note": 60, "velocity": 122, "channel": 0}, {"type": "note_off", "time": 90, "note": 60, "velocity": 122, "channel": 0}, {"type": "note_on", "time": 2, "note": 56, "velocity": 104, "channel": 0}, {"type": "note_off", "time": 91, "note": 56, "velocity": 104, "channel": 0}, {"type": "note_on", "time": 7, "note": 53, "velocity": 116, "channel": 0}, {"type": "note_off", "time": 103, "note": 53, "velocity": 116, "channel": 0}, {"type": "note_on", "time": 5, "note": 51, "velocity": 93, "channel": 0}, {"type": "note_off", "time": 59, "note": 51, "velocity": 93, "channel": 0}, {"type": "note_on", "time": 5, "note": 56, "velocity": 97, "channel": 0}, {"type": "note_off", "time": 182, "note": 56, "velocity": 97, "channel": 0}, {"type": "end_of_track", "time": 0}]]}