{"ticks_per_beat": 192, "tracks": [[{"type": "track_name", "name": "Melody", "time": 0}, {"type": "set_tempo", "tempo": 472440, "time": 0}, {"type": "key_signature", "key": "C", "time": 0}, {"type": "time_signature", "numerator": 4, "denominator": 4, "clocks_per_click": 24, "notated_32nd_notes_per_beat": 8, "time": 0}, {"type": "note_on", "time": 1206, "note": 60, "velocity": 92, "channel": 0}, {"type": "note_off", "time": 24, "note": 60, "velocity": 92, "channel": 0}, {"type": "note_on", "time": 31, "note": 62, "velocity": 105, "channel": 0}, {"type": "note_off", "time": 19, "note": 62, "velocity": 105, "channel": 0}, {"type": "note_on", "time": 34, "note": 64, "velocity": 104, "channel": 0}, {"type": "note_off", "time": 46, "note": 64, "velocity": 104, "channel": 0}, {"type": "note_on", "time": 227, "note": 64, "velocity": 111, "channel": 0}, {"type": "note_off", "time": 37, "note": 64, "velocity": 111, "channel": 0}, {"type": "note_on", "time": 11, "note": 65, "velocity": 123, "channel": 0}, {"type": "note_off", "time": 48, "note": 65, "velocity": 123, "channel": 0}, {"type": "note_on", "time": 4, "note": 67, "velocity": 122, "channel": 0}, {"type": "note_off", "time": 63, "note": 67, "velocity": 122, "channel": 0}, {"type": "note_on", "time": 205, "note": 67, "velocity": 110, "channel": 0}, {"type": "note_off", "time": 46, "note": 67, "velocity": 110, "channel": 0}, {"type": "note_on", "time": 18, "note": 69, "velocity": 116, "channel": 0}, {"type": "note_off", "time": 53, "note": 69, "velocity": 116, "channel": 0}, {"type": "note_on", "time": 10, "note": 70, "velocity": 115, "channel": 0}, {"type": "note_off", "time": 57, "note": 70, "velocity": 115, "channel": 0}, {"type": "note_on", "time": 59, "note": 71, "velocity": 106, "channel": 0}, {"type": "note_off", "time": 16, "note": 71, "velocity": 106, "channel": 0}, {"type": "note_on", "time": 2, "note": 69, "velocity": 115, "channel": 0}, {"type": "note_off", "time": 28, "note": 69, "velocity": 115, "channel": 0}, {"type": "note_on", "time": 228, "note": 72, "velocity": 111, "channel": 0}, {"type": "note_off", "time": 56, "note": 72, "velocity": 111, "channel": 0}, {"type": "note_on", "time": 5, "note": 69, "velocity": 118, "channel": 0}, {"type": "note_off", "time": 58, "note": 69, "velocity": 118, "channel": 0}, {"type": "note_on", "time": 40, "note": 63, "velocity": 112, "channel": 0}, {"type": "note_off", "time": 53, "note": 63, "velocity": 112, "channel": 0}, {"type": "note_on", "time": 232, "note": 60, "velocity": 102, "channel": 0}, {"type": "note_off", "time": 36, "note": 60, "velocity": 102, "channel": 0}, {"type": "note_on", "time": 7, "note": 62, "velocity": 109, "channel": 0}, {"type": "note_off", "time": 51, "note": 62, "velocity": 109, "channel": 0}, {"type": "note_on", "time": 28, "note": 57, "velocity": 116, "channel": 0}, {"type": "note_off", "time": 48, "note": 57, "velocity": 116, "channel": 0}, {"type": "note_on", "time": 23, "note": 60, "velocity": 112, "channel": 0}, {"type": "note_off", "time": 54, "note": 60, "velocity": 112, "channel": 0}, {"type": "note_on", "time": 75, "note": 62, "velocity": 105, "channel": 0}, {"type": "note_off", "time": 66, "note": 62, "velocity": 105, "channel": 0}, {"type": "note_on", "time": 66, "note": 60, "velocity": 113, "channel": 0}, {"type": "note_off", "time": 68, "note": 60, "velocity": 113, "channel": 0}, {"type": "note_on", "time": 230, "note": 60, "velocity": 102, "channel": 0}, {"type": "note_off", "time": 45, "note": 60, "velocity": 102, "channel": 0}, {"type": "note_on", "time": 7, "note": 64, "velocity": 115, "channel": 0}, {"type": "note_off", "time": 33, "note": 64, "velocity": 115, "channel": 0}, {"type": "note_on", "time": 11, "note": 67, "velocity": 119, "channel": 0}, {"type": "note_off", "time": 47, "note": 67, "velocity": 119, "channel": 0}, {"type": "note_on", "time": 20, "note": 69, "velocity": 123, "channel": 0}, {"type": "note_off", "time": 49, "note": 69, "velocity": 123, "channel": 0}, {"type": "note_on", "time": 8, "note": 71, "velocity": 116, "channel": 0}, {"type": "note_off", "time": 50, "note": 71, "velocity": 116, "channel": 0}, {"type": "note_on", "time": 1, "note": 72, "velocity": 115, "channel": 0}, {"type": "note_off", "time": 40, "note": 72, "velocity": 115, "channel": 0}, {"type": "note_on", "time": 27, "note": 69, "velocity": 120, "channel": 0}, {"type": "note_off", "time": 46, "note": 69, "velocity": 120, "channel": 0}, {"type": "note_on", "time": 24, "note": 63, "velocity": 115, "channel": 0}, {"type": "note_off", "time": 47, "note": 63, "velocity": 115, "channel": 0}, {"type": "note_on", "time": 1, "note": 64, "velocity": 114, "channel": 0}, {"type": "note_off", "time": 52, "note": 64, "velocity": 114, "channel": 0}, {"type": "note_on", "time": 4, "note": 62, "velocity": 103, "channel": 0}, {"type": "note_off", "time": 24, "note": 62, "velocity": 103, "channel": 0}, {"type": "note_on", "time": 9, "note": 57, "velocity": 111, "channel": 0}, {"type": "note_off", "time": 99, "note": 57, "velocity": 111, "channel": 0}, {"type": "note_on", "time": 20, "note": 60, "velocity": 108, "channel": 0}, {"type": "note_off", "time": 55, "note": 60, "velocity": 108, "channel": 0}, {"type": "note_on", "time": 22, "note": 62, "velocity": 107, "channel": 0}, {"type": "note_off", "time": 97, "note": 62, "velocity": 107, "channel": 0}, {"type": "note_on", "time": 10, "note": 60, "velocity": 104, "channel": 0}, {"type": "note_off", "time": 55, "note": 60, "velocity": 104, "channel": 0}, {"type": "note_on", "time": 17, "note": 69, "velocity": 121, "channel": 0}, {"type": "note_off", "time": 74, "note": 69, "velocity": 121, "channel": 0}, {"type": "note_on", "time": 44, "note": 62, "velocity": 112, "channel": 0}, {"type": "note_off", "time": 21, "note": 62, "velocity": 112, "channel": 0}, {"type": "note_on", "time": 9, "note": 63, "velocity": 110, "channel": 0}, {"type": "note_off", "time": 41, "note": 63, "velocity": 110, "channel": 0}, {"type": "note_on", "time": 4, "note": 62, "velocity": 92, "channel": 0}, {"type": "note_off", "time": 71, "note": 62, "velocity": 92, "channel": 0}, {"type": "note_on", "time": 39, "note": 57, "velocity": 101, "channel": 0}, {"type": "note_off", "time": 47, "note": 57, "velocity": 101, "channel": 0}, {"type": "note_on", "time": 17, "note": 60, "velocity": 108, "channel": 0}, {"type": "note_off", "time": 107, "note": 60, "velocity": 108, "channel": 0}, {"type": "note_on", "time": 17, "note": 62, "velocity": 109, "channel": 0}, {"type": "note_off", "time": 22, "note": 62, "velocity": 109, "channel": 0}, {"type": "note_on", "time": 7, "note": 60, "velocity": 114, "channel": 0}, {"type": "note_off", "time": 25, "note": 60, "velocity": 114, "channel": 0}, {"type": "note_on", "time": 8, "note": 59, "velocity": 113, "channel": 0}, {"type": "note_off", "time": 18, "note": 59, "velocity": 113, "channel": 0}, {"type": "note_on", "time": 7, "note": 58, "velocity": 104, "channel": 0}, {"type": "note_off", "time": 79, "note": 58, "velocity": 104, "channel": 0}, {"type": "note_on", "time": 24, "note": 56, "velocity": 111, "channel": 0}, {"type": "note_off", "time": 43, "note": 56, "velocity": 111, "channel": 0}, {"type": "note_on", "time": 24, "note": 57, "velocity": 103, "channel": 0}, {"type": "note_off", "time": 73, "note": 57, "velocity": 103, "channel": 0}, {"type": "note_on", "time": 32, "note": 69, "velocity": 118, "channel": 0}, {"type": "note_off", "time": 51, "note": 69, "velocity": 118, "channel": 0}, {"type": "note_on", "time": 15, "note": 66, "velocity": 111, "channel": 0}, {"type": "note_off", "time": 84, "note": 66, "velocity": 111, "channel": 0}, {"type": "note_on", "time": 100, "note": 71, "velocity": 106, "channel": 0}, {"type": "note_off", "time": 166, "note": 71, "velocity": 106, "channel": 0}, {"type": "note_on", "time": 31, "note": 69, "velocity": 117, "channel": 0}, {"type": "note_off", "time": 86, "note": 69, "velocity": 117, "channel": 0}, {"type": "note_on", "time": 112, "note": 73, "velocity": 108, "channel": 0}, {"type": "note_off", "time": 45, "note": 73, "velocity": 108, "channel": 0}, {"type": "note_on", "time": 2, "note": 74, "velocity": 112, "channel": 0}, {"type": "note_off", "time": 32, "note": 74, "velocity": 112, "channel": 0}, {"type": "note_on", "time": 234, "note": 69, "velocity": 116, "channel": 0}, {"type": "note_off", "time": 55, "note": 69, "velocity": 116, "channel": 0}, {"type": "note_on", "time": 3, "note": 71, "velocity": 117, "channel": 0}, {"type": "note_off", "time": 55, "note": 71, "velocity": 117, "channel": 0}, {"type": "note_on", "time": 24, "note": 74, "velocity": 102, "channel": 0}, {"type": "note_off", "time": 33, "note": 74, "velocity": 102, "channel": 0}, {"type": "note_on", "time": 2, "note": 71, "velocity": 106, "channel": 0}, {"type": "note_off", "time": 27, "note": 71, "velocity": 106, "channel": 0}, {"type": "note_on", "time": 12, "note": 67, "velocity": 113, "channel": 0}, {"type": "note_off", "time": 41, "note": 67, "velocity": 113, "channel": 0}, {"type": "note_on", "time": 9, "note": 69, "velocity": 118, "channel": 0}, {"type": "note_off", "time": 116, "note": 69, "velocity": 118, "channel": 0}, {"type": "note_on", "time": 25, "note": 64, "velocity": 107, "channel": 0}, {"type": "note_off", "time": 25, "note": 64, "velocity": 107, "channel": 0}, {"type": "note_on", "time": 17, "note": 67, "velocity": 108, "channel": 0}, {"type": "note_off", "time": 158, "note": 67, "velocity": 108, "channel": 0}, {"type": "note_on", "time": 14, "note": 69, "velocity": 120, "channel": 0}, {"type": "note_off", "time": 133, "note": 69, "velocity": 120, "channel": 0}, {"type": "note_on", "time": 55, "note": 72, "velocity": 106, "channel": 0}, {"type": "note_off", "time": 80, "note": 72, "velocity": 106, "channel": 0}, {"type": "note_on", "time": 6, "note": 67, "velocity": 112, "channel": 0}, {"type": "note_off", "time": 26, "note": 67, "velocity": 112, "channel": 0}, {"type": "note_on", "time": 5, "note": 69, "velocity": 114, "channel": 0}, {"type": "note_off", "time": 48, "note": 69, "velocity": 114, "channel": 0}, {"type": "note_on", "time": 63, "note": 63, "velocity": 110, "channel": 0}, {"type": "note_off", "time": 50, "note": 63, "velocity": 110, "channel": 0}, {"type": "note_on", "time": 525, "note": 67, "velocity": 117, "channel": 0}, {"type": "note_off", "time": 47, "note": 67, "velocity": 117, "channel": 0}, {"type": "note_on", "time": 14, "note": 69, "velocity": 124, "channel": 0}, {"type": "note_off", "time": 53, "note": 69, "velocity": 124, "channel": 0}, {"type": "note_on", "time": 11, "note": 67, "velocity": 119, "channel": 0}, {"type": "note_off", "time": 53, "note": 67, "velocity": 119, "channel": 0}, {"type": "note_on", "time": 41, "note": 71, "velocity": 112, "channel": 0}, {"type": "note_off", "time": 17, "note": 71, "velocity": 112, "channel": 0}, {"type": "note_on", "time": 3, "note": 72, "velocity": 113, "channel": 0}, {"type": "note_off", "time": 39, "note": 72, "velocity": 113, "channel": 0}, {"type": "note_on", "time": 10, "note": 69, "velocity": 122, "channel": 0}, {"type": "note_off", "time": 59, "note": 69, "velocity": 122, "channel": 0}, {"type": "note_on", "time": 70, "note": 63, "velocity": 110, "channel": 0}, {"type": "note_off", "time": 62, "note": 63, "velocity": 110, "channel": 0}, {"type": "note_on", "time": 365, "note": 64, "velocity": 104, "channel": 0}, {"type": "note_off", "time": 111, "note": 64, "velocity": 104, "channel": 0}, {"type": "note_on", "time": 4, "note": 67, "velocity": 120, "channel": 0}, {"type": "note_off", "time": 41, "note": 67, "velocity": 120, "channel": 0}, {"type": "note_on", "time": 6, "note": 69, "velocity": 120, "channel": 0}, {"type": "note_off", "time": 63, "note": 69, "velocity": 120, "channel": 0}, {"type": "note_on", "time": 4, "note": 67, "velocity": 116, "channel": 0}, {"type": "note_off", "time": 43, "note": 67, "velocity": 116, "channel": 0}, {"type": "note_on", "time": 6, "note": 70, "velocity": 104, "channel": 0}, {"type": "note_off", "time": 11, "note": 70, "velocity": 104, "channel": 0}, {"type": "note_on", "time": 2, "note": 72, "velocity": 109, "channel": 0}, {"type": "note_off", "time": 50, "note": 72, "velocity": 109, "channel": 0}, {"type": "note_on", "time": 17, "note": 69, "velocity": 117, "channel": 0}, {"type": "note_off", "time": 58, "note": 69, "velocity": 117, "channel": 0}, {"type": "note_on", "time": 69, "note": 63, "velocity": 117, "channel": 0}, {"type": "note_off", "time": 33, "note": 63, "velocity": 117, "channel": 0}, {"type": "note_on", "time": 3, "note": 62, "velocity": 110, "channel": 0}, {"type": "note_off", "time": 37, "note": 62, "velocity": 110, "channel": 0}, {"type": "note_on", "time": 230, "note": 60, "velocity": 114, "channel": 0}, {"type": "note_off", "time": 26, "note": 60, "velocity": 114, "channel": 0}, {"type": "note_on", "time": 6, "note": 62, "velocity": 110, "channel": 0}, {"type": "note_off", "time": 16, "note": 62, "velocity": 110, "channel": 0}, {"type": "note_on", "time": 5, "note": 60, "velocity": 115, "channel": 0}, {"type": "note_off", "time": 18, "note": 60, "velocity": 115, "channel": 0}, {"type": "note_on", "time": 8, "note": 59, "velocity": 116, "channel": 0}, {"type": "note_off", "time": 53, "note": 59, "velocity": 116, "channel": 0}, {"type": "note_on", "time": 5, "note": 60, "velocity": 105, "channel": 0}, {"type": "note_off", "time": 54, "note": 60, "velocity": 105, "channel": 0}, {"type": "note_on", "time": 17, "note": 70, "velocity": 115, "channel": 0}, {"type": "note_off", "time": 47, "note": 70, "velocity": 115, "channel": 0}, {"type": "note_on", "time": 10, "note": 68, "velocity": 122, "channel": 0}, {"type": "note_off", "time": 51, "note": 68, "velocity": 122, "channel": 0}, {"type": "note_on", "time": 13, "note": 62, "velocity": 92, "channel": 0}, {"type": "note_off", "time": 43, "note": 62, "velocity": 92, "channel": 0}, {"type": "note_on", "time": 8, "note": 67, "velocity": 113, "channel": 0}, {"type": "note_off", "time": 55, "note": 67, "velocity": 113, "channel": 0}, {"type": "note_on", "time": 16, "note": 65, "velocity": 115, "channel": 0}, {"type": "note_off", "time": 53, "note": 65, "velocity": 115, "channel": 0}, {"type": "note_on", "time": 17, "note": 62, "velocity": 104, "channel": 0}, {"type": "note_off", "time": 34, "note": 62, "velocity": 104, "channel": 0}, {"type": "note_on", "time": 26, "note": 56, "velocity": 112, "channel": 0}, {"type": "note_off", "time": 52, "note": 56, "velocity": 112, "channel": 0}, {"type": "note_on", "time": 5, "note": 55, "velocity": 109, "channel": 0}, {"type": "note_off", "time": 59, "note": 55, "velocity": 109, "channel": 0}, {"type": "note_on", "time": 26, "note": 64, "velocity": 105, "channel": 0}, {"type": "note_off", "time": 40, "note": 64, "velocity": 105, "channel": 0}, {"type": "note_on", "time": 26, "note": 59, "velocity": 105, "channel": 0}, {"type": "note_off", "time": 33, "note": 59, "velocity": 105, "channel": 0}, {"type": "note_on", "time": 11, "note": 62, "velocity": 107, "channel": 0}, {"type": "note_off", "time": 62, "note": 62, "velocity": 107, "channel": 0}, {"type": "note_on", "time": 11, "note": 60, "velocity": 105, "channel": 0}, {"type": "note_off", "time": 58, "note": 60, "velocity": 105, "channel": 0}, {"type": "note_on", "time": 143, "note": 71, "velocity": 109, "channel": 0}, {"type": "note_off", "time": 63, "note": 71, "velocity": 109, "channel": 0}, {"type": "note_on", "time": 16, "note": 67, "velocity": 101, "channel": 0}, {"type": "note_off", "time": 34, "note": 67, "velocity": 101, "channel": 0}, {"type": "note_on", "time": 6, "note": 69, "velocity": 117, "channel": 0}, {"type": "note_off", "time": 70, "note": 69, "velocity": 117, "channel": 0}, {"type": "note_on", "time": 5, "note": 67, "velocity": 116, "channel": 0}, {"type": "note_off", "time": 56, "note": 67, "velocity": 116, "channel": 0}, {"type": "note_on", "time": 121, "note": 76, "velocity": 116, "channel": 0}, {"type": "note_off", "time": 19, "note": 76, "velocity": 116, "channel": 0}, {"type": "note_on", "time": 5, "note": 77, "velocity": 111, "channel": 0}, {"type": "note_off", "time": 39, "note": 77, "velocity": 111, "channel": 0}, {"type": "note_on", "time": 20, "note": 70, "velocity": 112, "channel": 0}, {"type": "note_off", "time": 61, "note": 70, "velocity": 112, "channel": 0}, {"type": "note_on", "time": 54, "note": 74, "velocity": 111, "channel": 0}, {"type": "note_off", "time": 43, "note": 74, "velocity": 111, "channel": 0}, {"type": "note_on", "time": 67, "note": 69, "velocity": 117, "channel": 0}, {"type": "note_off", "time": 46, "note": 69, "velocity": 117, "channel": 0}, {"type": "note_on", "time": 27, "note": 71, "velocity": 116, "channel": 0}, {"type": "note_off", "time": 43, "note": 71, "velocity": 116, "channel": 0}, {"type": "note_on", "time": 21, "note": 64, "velocity": 102, "channel": 0}, {"type": "note_off", "time": 37, "note": 64, "velocity": 102, "channel": 0}, {"type": "note_on", "time": 19, "note": 66, "velocity": 109, "channel": 0}, {"type": "note_off", "time": 55, "note": 66, "velocity": 109, "channel": 0}, {"type": "note_on", "time": 9, "note": 69, "velocity": 114, "channel": 0}, {"type": "note_off", "time": 60, "note": 69, "velocity": 114, "channel": 0}, {"type": "note_on", "time": 57, "note": 57, "velocity": 117, "channel": 0}, {"type": "note_off", "time": 153, "note": 57, "velocity": 117, "channel": 0}, {"type": "note_on", "time": 6, "note": 56, "velocity": 104, "channel": 0}, {"type": "note_off", "time": 80, "note": 56, "velocity": 104, "channel": 0}, {"type": "note_on", "time": 7, "note": 64, "velocity": 112, "channel": 0}, {"type": "note_off", "time": 68, "note": 64, "velocity": 112, "channel": 0}, {"type": "note_on", "time": 58, "note": 57, "velocity": 108, "channel": 0}, {"type": "note_off", "time": 80, "note": 57, "velocity": 108, "channel": 0}, {"type": "note_on", "time": 16, "note": 60, "velocity": 111, "channel": 0}, {"type": "note_off", "time": 77, "note": 60, "velocity": 111, "channel": 0}, {"type": "note_on", "time": 16, "note": 60, "velocity": 111, "channel": 0}, {"type": "note_off", "time": 159, "note": 60, "velocity": 111, "channel": 0}, {"type": "note_on", "time": 29, "note": 60, "velocity": 106, "channel": 0}, {"type": "note_off", "time": 111, "note": 60, "velocity": 106, "channel": 0}, {"type": "note_on", "time": 169, "note": 62, "velocity": 116, "channel": 0}, {"type": "note_off", "time": 42, "note": 62, "velocity": 116, "channel": 0}, {"type": "note_on", "time": 1, "note": 64, "velocity": 115, "channel": 0}, {"type": "note_off", "time": 49, "note": 64, "velocity": 115, "channel": 0}, {"type": "note_on", "time": 12, "note": 67, "velocity": 121, "channel": 0}, {"type": "note_off", "time": 51, "note": 67, "velocity": 121, "channel": 0}, {"type": "note_on", "time": 9, "note": 69, "velocity": 122, "channel": 0}, {"type": "note_off", "time": 53, "note": 69, "velocity": 122, "channel": 0}, {"type": "note_on", "time": 12, "note": 72, "velocity": 117, "channel": 0}, {"type": "note_off", "time": 43, "note": 72, "velocity": 117, "channel": 0}, {"type": "note_on", "time": 24, "note": 72, "velocity": 114, "channel": 0}, {"type": "note_off", "time": 92, "note": 72, "velocity": 114, "channel": 0}, {"type": "note_on", "time": 1, "note": 74, "velocity": 101, "channel": 0}, {"type": "note_off", "time": 12, "note": 74, "velocity": 101, "channel": 0}, {"type": "note_on", "time": 1, "note": 72, "velocity": 111, "channel": 0}, {"type": "note_off", "time": 26, "note": 72, "velocity": 111, "channel": 0}, {"type": "note_on", "time": 4, "note": 69, "velocity": 121, "channel": 0}, {"type": "note_off", "time": 53, "note": 69, "velocity": 121, "channel": 0}, {"type": "note_on", "time": 24, "note": 72, "velocity": 113, "channel": 0}, {"type": "note_off", "time": 173, "note": 72, "velocity": 113, "channel": 0}, {"type": "note_on", "time": 13, "note": 74, "velocity": 113, "channel": 0}, {"type": "note_off", "time": 51, "note": 74, "velocity": 113, "channel": 0}, {"type": "note_on", "time": 3, "note": 76, "velocity": 120, "channel": 0}, {"type": "note_off", "time": 28, "note": 76, "velocity": 120, "channel": 0}, {"type": "note_on", "time": 195, "note": 69, "velocity": 100, "channel": 0}, {"type": "note_off", "time": 36, "note": 69, "velocity": 100, "channel": 0}, {"type": "note_on", "time": 3, "note": 72, "velocity": 104, "channel": 0}, {"type": "note_off", "time": 43, "note": 72, "velocity": 104, "channel": 0}, {"type": "note_on", "time": 35, "note": 71, "velocity": 112, "channel": 0}, {"type": "note_off", "time": 21, "note": 71, "velocity": 112, "channel": 0}, {"type": "note_on", "time": 4, "note": 72, "velocity": 113, "channel": 0}, {"type": "note_off", "time": 43, "note": 72, "velocity": 113, "channel": 0}, {"type": "note_on", "time": 10, "note": 74, "velocity": 107, "channel": 0}, {"type": "note_off", "time": 14, "note": 74, "velocity": 107, "channel": 0}, {"type": "note_on", "time": 2, "note": 72, "velocity": 108, "channel": 0}, {"type": "note_off", "time": 19, "note": 72, "velocity": 108, "channel": 0}, {"type": "note_on", "time": 6, "note": 69, "velocity": 118, "channel": 0}, {"type": "note_off", "time": 57, "note": 69, "velocity": 118, "channel": 0}, {"type": "note_on", "time": 58, "note": 72, "velocity": 110, "channel": 0}, {"type": "note_off", "time": 69, "note": 72, "velocity": 110, "channel": 0}, {"type": "note_on", "time": 74, "note": 78, "velocity": 110, "channel": 0}, {"type": "note_off", "time": 12, "note": 78, "velocity": 110, "channel": 0}, {"type": "note_on", "time": 4, "note": 79, "velocity": 117, "channel": 0}, {"type": "note_off", "time": 56, "note": 79, "velocity": 117, "channel": 0}, {"type": "note_on", "time": 213, "note": 72, "velocity": 110, "channel": 0}, {"type": "note_off", "time": 38, "note": 72, "velocity": 110, "channel": 0}, {"type": "note_on", "time": 55, "note": 72, "velocity": 113, "channel": 0}, {"type": "note_off", "time": 46, "note": 72, "velocity": 113, "channel": 0}, {"type": "note_on", "time": 3, "note": 74, "velocity": 113, "channel": 0}, {"type": "note_off", "time": 14, "note": 74, "velocity": 113, "channel": 0}, {"type": "note_on", "time": 2, "note": 72, "velocity": 110, "channel": 0}, {"type": "note_off", "time": 16, "note": 72, "velocity": 110, "channel": 0}, {"type": "note_on", "time": 10, "note": 69, "velocity": 117, "channel": 0}, {"type": "note_off", "time": 51, "note": 69, "velocity": 117, "channel": 0}, {"type": "note_on", "time": 38, "note": 72, "velocity": 113, "channel": 0}, {"type": "note_off", "time": 82, "note": 72, "velocity": 113, "channel": 0}, {"type": "note_on", "time": 97, "note": 81, "velocity": 110, "channel": 0}, {"type": "note_off", "time": 44, "note": 81, "velocity": 110, "channel": 0}, {"type": "note_on", "time": 208, "note": 71, "velocity": 110, "channel": 0}, {"type": "note_off", "time": 15, "note": 71, "velocity": 110, "channel": 0}, {"type": "note_on", "time": 3, "note": 72, "velocity": 110, "channel": 0}, {"type": "note_off", "time": 44, "note": 72, "velocity": 110, "channel": 0}, {"type": "note_on", "time": 52, "note": 72, "velocity": 113, "channel": 0}, {"type": "note_off", "time": 44, "note": 72, "velocity": 113, "channel": 0}, {"type": "note_on", "time": 1, "note": 74, "velocity": 109, "channel": 0}, {"type": "note_off", "time": 21, "note": 74, "velocity": 109, "channel": 0}, {"type": "note_on", "time": 1, "note": 72, "velocity": 114, "channel": 0}, {"type": "note_off", "time": 30, "note": 72, "velocity": 114, "channel": 0}, {"type": "note_on", "time": 3, "note": 69, "velocity": 120, "channel": 0}, {"type": "note_off", "time": 61, "note": 69, "velocity": 120, "channel": 0}, {"type": "note_on", "time": 37, "note": 72, "velocity": 110, "channel": 0}, {"type": "note_off", "time": 74, "note": 72, "velocity": 110, "channel": 0}, {"type": "note_on", "time": 83, "note": 84, "velocity": 111, "channel": 0}, {"type": "note_off", "time": 43, "note": 84, "velocity": 111, "channel": 0}, {"type": "note_on", "time": 324, "note": 81, "velocity": 111, "channel": 0}, {"type": "note_off", "time": 33, "note": 81, "velocity": 111, "channel": 0}, {"type": "note_on", "time": 56, "note": 76, "velocity": 114, "channel": 0}, {"type": "note_off", "time": 46, "note": 76, "velocity": 114, "channel": 0}, {"type": "note_on", "time": 51, "note": 72, "velocity": 108, "channel": 0}, {"type": "note_off", "time": 47, "note": 72, "velocity": 108, "channel": 0}, {"type": "note_on", "time": 28, "note": 67, "velocity": 110, "channel": 0}, {"type": "note_off", "time": 48, "note": 67, "velocity": 110, "channel": 0}, {"type": "note_on", "time": 33, "note": 74, "velocity": 106, "channel": 0}, {"type": "note_off", "time": 44, "note": 74, "velocity": 106, "channel": 0}, {"type": "note_on", "time": 19, "note": 72, "velocity": 103, "channel": 0}, {"type": "note_off", "time": 49, "note": 72, "velocity": 103, "channel": 0}, {"type": "note_on", "time": 15, "note": 67, "velocity": 114, "channel": 0}, {"type": "note_off", "time": 39, "note": 67, "velocity": 114, "channel": 0}, {"type": "note_on", "time": 9, "note": 64, "velocity": 106, "channel": 0}, {"type": "note_off", "time": 49, "note": 64, "velocity": 106, "channel": 0}, {"type": "note_on", "time": 5, "note": 60, "velocity": 109, "channel": 0}, {"type": "note_off", "time": 48, "note": 60, "velocity": 109, "channel": 0}, {"type": "note_on", "time": 6, "note": 57, "velocity": 111, "channel": 0}, {"type": "note_off", "time": 110, "note": 57, "velocity": 111, "channel": 0}, {"type": "note_on", "time": 5, "note": 56, "velocity": 108, "channel": 0}, {"type": "note_off", "time": 36, "note": 56, "velocity": 108, "channel": 0}, {"type": "note_on", "time": 11, "note": 59, "velocity": 102, "channel": 0}, {"type": "note_off", "time": 85, "note": 59, "velocity": 102, "channel": 0}, {"type": "note_on", "time": 2, "note": 62, "velocity": 109, "channel": 0}, {"type": "note_off", "time": 128, "note": 62, "velocity": 109, "channel": 0}, {"type": "note_on", "time": 10, "note": 58, "velocity": 116, "channel": 0}, {"type": "note_off", "time": 49, "note": 58, "velocity": 116, "channel": 0}, {"type": "note_on", "time": 12, "note": 62, "velocity": 110, "channel": 0}, {"type": "note_off", "time": 44, "note": 62, "velocity": 110, "channel": 0}, {"type": "note_on", "time": 20, "note": 65, "velocity": 114, "channel": 0}, {"type": "note_off", "time": 41, "note": 65, "velocity": 114, "channel": 0}, {"type": "note_on", "time": 47, "note": 70, "velocity": 114, "channel": 0}, {"type": "note_off", "time": 34, "note": 70, "velocity": 114, "channel": 0}, {"type": "note_on", "time": 19, "note": 68, "velocity": 119, "channel": 0}, {"type": "note_off", "time": 34, "note": 68, "velocity": 119, "channel": 0}, {"type": "note_on", "time": 12, "note": 69, "velocity": 119, "channel": 0}, {"type": "note_off", "time": 51, "note": 69, "velocity": 119, "channel": 0}, {"type": "note_on", "time": 20, "note": 64, "velocity": 106, "channel": 0}, {"type": "note_off", "time": 41, "note": 64, "velocity": 106, "channel": 0}, {"type": "note_on", "time": 22, "note": 67, "velocity": 115, "channel": 0}, {"type": "note_off", "time": 52, "note": 67, "velocity": 115, "channel": 0}, {"type": "note_on", "time": 7, "note": 61, "velocity": 91, "channel": 0}, {"type": "note_off", "time": 33, "note": 61, "velocity": 91, "channel": 0}, {"type": "note_on", "time": 27, "note": 61, "velocity": 105, "channel": 0}, {"type": "note_off", "time": 51, "note": 61, "velocity": 105, "channel": 0}, {"type": "note_on", "time": 21, "note": 57, "velocity": 105, "channel": 0}, {"type": "note_off", "time": 91, "note": 57, "velocity": 105, "channel": 0}, {"type": "note_on", "time": 20, "note": 55, "velocity": 105, "channel": 0}, {"type": "note_off", "time": 80, "note": 55, "velocity": 105, "channel": 0}, {"type": "note_on", "time": 24, "note": 53, "velocity": 105, "channel": 0}, {"type": "note_off", "time": 68, "note": 53, "velocity": 105, "channel": 0}, {"type": "note_on", "time": 41, "note": 54, "velocity": 105, "channel": 0}, {"type": "note_off", "time": 74, "note": 54, "velocity": 105, "channel": 0}, {"type": "note_on", "time": 34, "note": 59, "velocity": 106, "channel": 0}, {"type": "note_off", "time": 62, "note": 59, "velocity": 106, "channel": 0}, {"type": "note_on", "time": 16, "note": 57, "velocity": 103, "channel": 0}, {"type": "note_off", "time": 83, "note": 57, "velocity": 103, "channel": 0}, {"type": "note_on", "time": 23, "note": 64, "velocity": 106, "channel": 0}, {"type": "note_off", "time": 56, "note": 64, "velocity": 106, "channel": 0}, {"type": "note_on", "time": 1, "note": 60, "velocity": 108, "channel": 0}, {"type": "note_off", "time": 102, "note": 60, "velocity": 108, "channel": 0}, {"type": "note_on", "time": 13, "note": 57, "velocity": 109, "channel": 0}, {"type": "note_off", "time": 48, "note": 57, "velocity": 109, "channel": 0}, {"type": "note_on", "time": 12, "note": 62, "velocity": 93, "channel": 0}, {"type": "note_off", "time": 205, "note": 62, "velocity": 93, "channel": 0}, {"type": "note_on", "time": 138, "note": 61, "velocity": 102, "channel": 0}, {"type": "note_off", "time": 71, "note": 61, "velocity": 102, "channel": 0}, {"type": "note_on", "time": 2, "note": 64, "velocity": 115, "channel": 0}, {"type": "note_off", "time": 49, "note": 64, "velocity": 115, "channel": 0}, {"type": "note_on", "time": 12, "note": 67, "velocity": 121, "channel": 0}, {"type": "note_off", "time": 33, "note": 67, "velocity": 121, "channel": 0}, {"type": "note_on", "time": 7, "note": 69, "velocity": 119, "channel": 0}, {"type": "note_off", "time": 46, "note": 69, "velocity": 119, "channel": 0}, {"type": "note_on", "time": 11, "note": 72, "velocity": 115, "channel": 0}, {"type": "note_off", "time": 52, "note": 72, "velocity": 115, "channel": 0}, {"type": "note_on", "time": 73, "note": 69, "velocity": 118, "channel": 0}, {"type": "note_off", "time": 71, "note": 69, "velocity": 118, "channel": 0}, {"type": "note_on", "time": 241, "note": 60, "velocity": 103, "channel": 0}, {"type": "note_off", "time": 46, "note": 60, "velocity": 103, "channel": 0}, {"type": "note_on", "time": 3, "note": 63, "velocity": 108, "channel": 0}, {"type": "note_off", "time": 27, "note": 63, "velocity": 108, "channel": 0}, {"type": "note_on", "time": 4, "note": 67, "velocity": 114, "channel": 0}, {"type": "note_off", "time": 16, "note": 67, "velocity": 114, "channel": 0}, {"type": "note_on", "time": 8, "note": 69, "velocity": 116, "channel": 0}, {"type": "note_off", "time": 31, "note": 69, "velocity": 116, "channel": 0}, {"type": "note_on", "time": 10, "note": 72, "velocity": 111, "channel": 0}, {"type": "note_off", "time": 86, "note": 72, "velocity": 111, "channel": 0}, {"type": "note_on", "time": 4, "note": 69, "velocity": 120, "channel": 0}, {"type": "note_off", "time": 58, "note": 69, "velocity": 120, "channel": 0}, {"type": "note_on", "time": 114, "note": 63, "velocity": 107, "channel": 0}, {"type": "note_off", "time": 24, "note": 63, "velocity": 107, "channel": 0}, {"type": "note_on", "time": 8, "note": 64, "velocity": 105, "channel": 0}, {"type": "note_off", "time": 23, "note": 64, "velocity": 105, "channel": 0}, {"type": "note_on", "time": 11, "note": 67, "velocity": 105, "channel": 0}, {"type": "note_off", "time": 18, "note": 67, "velocity": 105, "channel": 0}, {"type": "note_on", "time": 4, "note": 69, "velocity": 110, "channel": 0}, {"type": "note_off", "time": 29, "note": 69, "velocity": 110, "channel": 0}, {"type": "note_on", "time": 8, "note": 72, "velocity": 112, "channel": 0}, {"type": "note_off", "time": 209, "note": 72, "velocity": 112, "channel": 0}, {"type": "note_on", "time": 14, "note": 74, "velocity": 109, "channel": 0}, {"type": "note_off", "time": 18, "note": 74, "velocity": 109, "channel": 0}, {"type": "note_on", "time": 6, "note": 72, "velocity": 111, "channel": 0}, {"type": "note_off", "time": 17, "note": 72, "velocity": 111, "channel": 0}, {"type": "note_on", "time": 5, "note": 71, "velocity": 113, "channel": 0}, {"type": "note_off", "time": 13, "note": 71, "velocity": 113, "channel": 0}, {"type": "note_on", "time": 4, "note": 70, "velocity": 114, "channel": 0}, {"type": "note_off", "time": 24, "note": 70, "velocity": 114, "channel": 0}, {"type": "note_on", "time": 17, "note": 67, "velocity": 116, "channel": 0}, {"type": "note_off", "time": 38, "note": 67, "velocity": 116, "channel": 0}, {"type": "note_on", "time": 16, "note": 64, "velocity": 106, "channel": 0}, {"type": "note_off", "time": 38, "note": 64, "velocity": 106, "channel": 0}, {"type": "note_on", "time": 12, "note": 61, "velocity": 106, "channel": 0}, {"type": "note_off", "time": 38, "note": 61, "velocity": 106, "channel": 0}, {"type": "note_on", "time": 6, "note": 60, "velocity": 109, "channel": 0}, {"type": "note_off", "time": 48, "note": 60, "velocity": 109, "channel": 0}, {"type": "note_on", "time": 7, "note": 58, "velocity": 110, "channel": 0}, {"type": "note_off", "time": 30, "note": 58, "velocity": 110, "channel": 0}, {"type": "note_on", "time": 7, "note": 57, "velocity": 109, "channel": 0}, {"type": "note_off", "time": 40, "note": 57, "velocity": 109, "channel": 0}, {"type": "note_on", "time": 16, "note": 59, "velocity": 110, "channel": 0}, {"type": "note_off", "time": 29, "note": 59, "velocity": 110, "channel": 0}, {"type": "note_on", "time": 3, "note": 60, "velocity": 108, "channel": 0}, {"type": "note_off", "time": 50, "note": 60, "velocity": 108, "channel": 0}, {"type": "note_on", "time": 13, "note": 69, "velocity": 115, "channel": 0}, {"type": "note_off", "time": 55, "note": 69, "velocity": 115, "channel": 0}, {"type": "note_on", "time": 29, "note": 64, "velocity": 104, "channel": 0}, {"type": "note_off", "time": 34, "note": 64, "velocity": 104, "channel": 0}, {"type": "note_on", "time": 9, "note": 67, "velocity": 112, "channel": 0}, {"type": "note_off", "time": 56, "note": 67, "velocity": 112, "channel": 0}, {"type": "note_on", "time": 35, "note": 64, "velocity": 107, "channel": 0}, {"type": "note_off", "time": 53, "note": 64, "velocity": 107, "channel": 0}, {"type": "note_on", "time": 6, "note": 65, "velocity": 109, "channel": 0}, {"type": "note_off", "time": 70, "note": 65, "velocity": 109, "channel": 0}, {"type": "note_on", "time": 241, "note": 57, "velocity": 107, "channel": 0}, {"type": "note_off", "time": 37, "note": 57, "velocity": 107, "channel": 0}, {"type": "note_on", "time": 30, "note": 60, "velocity": 111, "channel": 0}, {"type": "note_off", "time": 38, "note": 60, "velocity": 111, "channel": 0}, {"type": "note_on", "time": 15, "note": 64, "velocity": 106, "channel": 0}, {"type": "note_off", "time": 53, "note": 64, "velocity": 106, "channel": 0}, {"type": "note_on", "time": 29, "note": 56, "velocity": 114, "channel": 0}, {"type": "note_off", "time": 381, "note": 56, "velocity": 114, "channel": 0}, {"type": "note_on", "time": 9, "note": 62, "velocity": 101, "channel": 0}, {"type": "note_off", "time": 111, "note": 62, "velocity": 101, "channel": 0}, {"type": "note_on", "time": 8, "note": 59, "velocity": 91, "channel": 0}, {"type": "note_off", "time": 29, "note": 59, "velocity": 91, "channel": 0}, {"type": "note_on", "time": 307, "note": 55, "velocity": 108, "channel": 0}, {"type": "note_off", "time": 24, "note": 55, "velocity": 108, "channel": 0}, {"type": "note_on", "time": 17, "note": 57, "velocity": 103, "channel": 0}, {"type": "note_off", "time": 60, "note": 57, "velocity": 103, "channel": 0}, {"type": "note_on", "time": 9, "note": 60, "velocity": 113, "channel": 0}, {"type": "note_off", "time": 55, "note": 60, "velocity": 113, "channel": 0}, {"type": "note_on", "time": 14, "note": 62, "velocity": 111, "channel": 0}, {"type": "note_off", "time": 70, "note": 62, "velocity": 111, "channel": 0}, {"type": "note_on", "time": 18, "note": 64, "velocity": 110, "channel": 0}, {"type": "note_off", "time": 98, "note": 64, "velocity": 110, "channel": 0}, {"type": "note_on", "time": 27, "note": 67, "velocity": 116, "channel": 0}, {"type": "note_off", "time": 69, "note": 67, "velocity": 116, "channel": 0}, {"type": "note_on", "time": 10, "note": 69, "velocity": 123, "channel": 0}, {"type": "note_off", "time": 116, "note": 69, "velocity": 123, "channel": 0}, {"type": "note_on", "time": 13, "note": 67, "velocity": 103, "channel": 0}, {"type": "note_off", "time": 34, "note": 67, "velocity": 103, "channel": 0}, {"type": "note_on", "time": 21, "note": 69, "velocity": 110, "channel": 0}, {"type": "note_off", "time": 46, "note": 69, "velocity": 110, "channel": 0}, {"type": "note_on", "time": 4, "note": 70, "velocity": 107, "channel": 0}, {"type": "note_off", "time": 42, "note": 70, "velocity": 107, "channel": 0}, {"type": "note_on", "time": 3, "note": 71, "velocity": 115, "channel": 0}, {"type": "note_off", "time": 32, "note": 71, "velocity": 115, "channel": 0}, {"type": "note_on", "time": 357, "note": 64, "velocity": 111, "channel": 0}, {"type": "note_off", "time": 53, "note": 64, "velocity": 111, "channel": 0}, {"type": "note_on", "time": 18, "note": 69, "velocity": 122, "channel": 0}, {"type": "note_off", "time": 110, "note": 69, "velocity": 122, "channel": 0}, {"type": "note_on", "time": 11, "note": 71, "velocity": 117, "channel": 0}, {"type": "note_off", "time": 72, "note": 71, "velocity": 117, "channel": 0}, {"type": "note_on", "time": 7, "note": 72, "velocity": 107, "channel": 0}, {"type": "note_off", "time": 91, "note": 72, "velocity": 107, "channel": 0}, {"type": "note_on", "time": 48, "note": 66, "velocity": 9, "channel": 0}, {"type": "note_off", "time": 111, "note": 66, "velocity": 9, "channel": 0}, {"type": "note_on", "time": 7, "note": 69, "velocity": 127, "channel": 0}, {"type": "note_off", "time": 92, "note": 69, "velocity": 127, "channel": 0}, {"type": "note_on", "time": 34, "note": 63, "velocity": 118, "channel": 0}, {"type": "note_off", "time": 104, "note": 63, "velocity": 118, "channel": 0}, {"type": "note_on", "time": 31, "note": 57, "velocity": 121, "channel": 0}, {"type": "note_off", "time": 33, "note": 57, "velocity": 121, "channel": 0}, {"type": "note_on", "time": 26, "note": 62, "velocity": 118, "channel": 0}, {"type": "note_off", "time": 100, "note": 62, "velocity": 118, "channel": 0}, {"type": "note_on", "time": 13, "note": 60, "velocity": 110, "channel": 0}, {"type": "note_off", "time": 744, "note": 60, "velocity": 110, "channel": 0}, {"type": "end_of_track", "time": 0}]]}