{"ticks_per_beat": 192, "tracks": [[{"type": "track_name", "name": "Melody", "time": 0}, {"type": "set_tempo", "tempo": 331491, "time": 0}, {"type": "key_signature", "key": "D", "time": 0}, {"type": "time_signature", "numerator": 4, "denominator": 4, "clocks_per_click": 24, "notated_32nd_notes_per_beat": 8, "time": 0}, {"type": "note_on", "time": 4656, "note": 53, "velocity": 94, "channel": 0}, {"type": "note_off", "time": 119, "note": 53, "velocity": 94, "channel": 0}, {"type": "note_on", "time": 8, "note": 57, "velocity": 95, "channel": 0}, {"type": "note_off", "time": 557, "note": 57, "velocity": 95, "channel": 0}, {"type": "note_on", "time": 509, "note": 59, "velocity": 96, "channel": 0}, {"type": "note_off", "time": 261, "note": 59, "velocity": 96, "channel": 0}, {"type": "note_on", "time": 14, "note": 61, "velocity": 115, "channel": 0}, {"type": "note_off", "time": 134, "note": 61, "velocity": 115, "channel": 0}, {"type": "note_on", "time": 34, "note": 59, "velocity": 92, "channel": 0}, {"type": "note_off", "time": 126, "note": 59, "velocity": 92, "channel": 0}, {"type": "note_on", "time": 18, "note": 57, "velocity": 109, "channel": 0}, {"type": "note_off", "time": 150, "note": 57, "velocity": 109, "channel": 0}, {"type": "note_on", "time": 23, "note": 54, "velocity": 102, "channel": 0}, {"type": "note_off", "time": 186, "note": 54, "velocity": 102, "channel": 0}, {"type": "note_on", "time": 2, "note": 53, "velocity": 98, "channel": 0}, {"type": "note_off", "time": 61, "note": 53, "velocity": 98, "channel": 0}, {"type": "note_on", "time": 9, "note": 54, "velocity": 97, "channel": 0}, {"type": "note_off", "time": 187, "note": 54, "velocity": 97, "channel": 0}, {"type": "note_on", "time": 709, "note": 57, "velocity": 109, "channel": 0}, {"type": "note_off", "time": 56, "note": 57, "velocity": 109, "channel": 0}, {"type": "note_on", "time": 15, "note": 58, "velocity": 112, "channel": 0}, {"type": "note_off", "time": 100, "note": 58, "velocity": 112, "channel": 0}, {"type": "note_on", "time": 11, "note": 60, "velocity": 111, "channel": 0}, {"type": "note_off", "time": 142, "note": 60, "velocity": 111, "channel": 0}, {"type": "note_on", "time": 49, "note": 67, "velocity": 118, "channel": 0}, {"type": "note_off", "time": 70, "note": 67, "velocity": 118, "channel": 0}, {"type": "note_on", "time": 7, "note": 65, "velocity": 114, "channel": 0}, {"type": "note_off", "time": 106, "note": 65, "velocity": 114, "channel": 0}, {"type": "note_on", "time": 10, "note": 62, "velocity": 106, "channel": 0}, {"type": "note_off", "time": 68, "note": 62, "velocity": 106, "channel": 0}, {"type": "note_on", "time": 0, "note": 64, "velocity": 111, "channel": 0}, {"type": "note_off", "time": 256, "note": 64, "velocity": 111, "channel": 0}, {"type": "note_on", "time": 29, "note": 62, "velocity": 117, "channel": 0}, {"type": "note_off", "time": 77, "note": 62, "velocity": 117, "channel": 0}, {"type": "note_on", "time": 12, "note": 61, "velocity": 111, "channel": 0}, {"type": "note_off", "time": 106, "note": 61, "velocity": 111, "channel": 0}, {"type": "note_on", "time": 63, "note": 59, "velocity": 93, "channel": 0}, {"type": "note_off", "time": 115, "note": 59, "velocity": 93, "channel": 0}, {"type": "note_on", "time": 19, "note": 61, "velocity": 115, "channel": 0}, {"type": "note_off", "time": 113, "note": 61, "velocity": 115, "channel": 0}, {"type": "note_on", "time": 69, "note": 59, "velocity": 95, "channel": 0}, {"type": "note_off", "time": 54, "note": 59, "velocity": 95, "channel": 0}, {"type": "note_on", "time": 12, "note": 57, "velocity": 105, "channel": 0}, {"type": "note_off", "time": 140, "note": 57, "velocity": 105, "channel": 0}, {"type": "note_on", "time": 47, "note": 62, "velocity": 112, "channel": 0}, {"type": "note_off", "time": 126, "note": 62, "velocity": 112, "channel": 0}, {"type": "note_on", "time": 20, "note": 59, "velocity": 83, "channel": 0}, {"type": "note_off", "time": 203, "note": 59, "velocity": 83, "channel": 0}, {"type": "note_on", "time": 539, "note": 57, "velocity": 111, "channel": 0}, {"type": "note_off", "time": 63, "note": 57, "velocity": 111, "channel": 0}, {"type": "note_on", "time": 6, "note": 59, "velocity": 105, "channel": 0}, {"type": "note_off", "time": 83, "note": 59, "velocity": 105, "channel": 0}, {"type": "note_on", "time": 35, "note": 62, "velocity": 113, "channel": 0}, {"type": "note_off", "time": 59, "note": 62, "velocity": 113, "channel": 0}, {"type": "note_on", "time": 14, "note": 65, "velocity": 116, "channel": 0}, {"type": "note_off", "time": 102, "note": 65, "velocity": 116, "channel": 0}, {"type": "note_on", "time": 11, "note": 66, "velocity": 123, "channel": 0}, {"type": "note_off", "time": 64, "note": 66, "velocity": 123, "channel": 0}, {"type": "note_on", "time": 8, "note": 65, "velocity": 112, "channel": 0}, {"type": "note_off", "time": 91, "note": 65, "velocity": 112, "channel": 0}, {"type": "note_on", "time": 21, "note": 66, "velocity": 114, "channel": 0}, {"type": "note_off", "time": 168, "note": 66, "velocity": 114, "channel": 0}, {"type": "note_on", "time": 13, "note": 62, "velocity": 110, "channel": 0}, {"type": "note_off", "time": 66, "note": 62, "velocity": 110, "channel": 0}, {"type": "note_on", "time": 12, "note": 59, "velocity": 95, "channel": 0}, {"type": "note_off", "time": 117, "note": 59, "velocity": 95, "channel": 0}, {"type": "note_on", "time": 5, "note": 53, "velocity": 107, "channel": 0}, {"type": "note_off", "time": 63, "note": 53, "velocity": 107, "channel": 0}, {"type": "note_on", "time": 14, "note": 65, "velocity": 116, "channel": 0}, {"type": "note_off", "time": 146, "note": 65, "velocity": 116, "channel": 0}, {"type": "note_on", "time": 15, "note": 62, "velocity": 118, "channel": 0}, {"type": "note_off", "time": 129, "note": 62, "velocity": 118, "channel": 0}, {"type": "note_on", "time": 13, "note": 64, "velocity": 110, "channel": 0}, {"type": "note_off", "time": 269, "note": 64, "velocity": 110, "channel": 0}, {"type": "note_on", "time": 474, "note": 52, "velocity": 118, "channel": 0}, {"type": "note_off", "time": 45, "note": 52, "velocity": 118, "channel": 0}, {"type": "note_on", "time": 5, "note": 53, "velocity": 116, "channel": 0}, {"type": "note_off", "time": 46, "note": 53, "velocity": 116, "channel": 0}, {"type": "note_on", "time": 5, "note": 54, "velocity": 106, "channel": 0}, {"type": "note_off", "time": 89, "note": 54, "velocity": 106, "channel": 0}, {"type": "note_on", "time": 12, "note": 57, "velocity": 106, "channel": 0}, {"type": "note_off", "time": 74, "note": 57, "velocity": 106, "channel": 0}, {"type": "note_on", "time": 6, "note": 59, "velocity": 105, "channel": 0}, {"type": "note_off", "time": 110, "note": 59, "velocity": 105, "channel": 0}, {"type": "note_on", "time": 1, "note": 61, "velocity": 108, "channel": 0}, {"type": "note_off", "time": 69, "note": 61, "velocity": 108, "channel": 0}, {"type": "note_on", "time": 15, "note": 64, "velocity": 119, "channel": 0}, {"type": "note_off", "time": 169, "note": 64, "velocity": 119, "channel": 0}, {"type": "note_on", "time": 11, "note": 63, "velocity": 96, "channel": 0}, {"type": "note_off", "time": 88, "note": 63, "velocity": 96, "channel": 0}, {"type": "note_on", "time": 15, "note": 62, "velocity": 111, "channel": 0}, {"type": "note_off", "time": 235, "note": 62, "velocity": 111, "channel": 0}, {"type": "note_on", "time": 10, "note": 61, "velocity": 115, "channel": 0}, {"type": "note_off", "time": 108, "note": 61, "velocity": 115, "channel": 0}, {"type": "note_on", "time": 34, "note": 64, "velocity": 119, "channel": 0}, {"type": "note_off", "time": 121, "note": 64, "velocity": 119, "channel": 0}, {"type": "note_on", "time": 24, "note": 66, "velocity": 104, "channel": 0}, {"type": "note_off", "time": 106, "note": 66, "velocity": 104, "channel": 0}, {"type": "note_on", "time": 19, "note": 57, "velocity": 99, "channel": 0}, {"type": "note_off", "time": 115, "note": 57, "velocity": 99, "channel": 0}, {"type": "note_on", "time": 30, "note": 57, "velocity": 91, "channel": 0}, {"type": "note_off", "time": 221, "note": 57, "velocity": 91, "channel": 0}, {"type": "note_on", "time": 580, "note": 69, "velocity": 102, "channel": 0}, {"type": "note_off", "time": 141, "note": 69, "velocity": 102, "channel": 0}, {"type": "note_on", "time": 10, "note": 69, "velocity": 105, "channel": 0}, {"type": "note_off", "time": 115, "note": 69, "velocity": 105, "channel": 0}, {"type": "note_on", "time": 47, "note": 69, "velocity": 105, "channel": 0}, {"type": "note_off", "time": 365, "note": 69, "velocity": 105, "channel": 0}, {"type": "note_on", "time": 16, "note": 62, "velocity": 108, "channel": 0}, {"type": "note_off", "time": 82, "note": 62, "velocity": 108, "channel": 0}, {"type": "note_on", "time": 100, "note": 62, "velocity": 110, "channel": 0}, {"type": "note_off", "time": 176, "note": 62, "velocity": 110, "channel": 0}, {"type": "note_on", "time": 21, "note": 61, "velocity": 111, "channel": 0}, {"type": "note_off", "time": 58, "note": 61, "velocity": 111, "channel": 0}, {"type": "note_on", "time": 25, "note": 62, "velocity": 102, "channel": 0}, {"type": "note_off", "time": 208, "note": 62, "velocity": 102, "channel": 0}, {"type": "note_on", "time": 474, "note": 57, "velocity": 90, "channel": 0}, {"type": "note_off", "time": 56, "note": 57, "velocity": 90, "channel": 0}, {"type": "note_on", "time": 16, "note": 58, "velocity": 102, "channel": 0}, {"type": "note_off", "time": 129, "note": 58, "velocity": 102, "channel": 0}, {"type": "note_on", "time": 2, "note": 60, "velocity": 99, "channel": 0}, {"type": "note_off", "time": 43, "note": 60, "velocity": 99, "channel": 0}, {"type": "note_on", "time": 3, "note": 62, "velocity": 115, "channel": 0}, {"type": "note_off", "time": 114, "note": 62, "velocity": 115, "channel": 0}, {"type": "note_on", "time": 1, "note": 67, "velocity": 111, "channel": 0}, {"type": "note_off", "time": 79, "note": 67, "velocity": 111, "channel": 0}, {"type": "note_on", "time": 16, "note": 65, "velocity": 106, "channel": 0}, {"type": "note_off", "time": 57, "note": 65, "velocity": 106, "channel": 0}, {"type": "note_on", "time": 0, "note": 67, "velocity": 96, "channel": 0}, {"type": "note_off", "time": 44, "note": 67, "velocity": 96, "channel": 0}, {"type": "note_on", "time": 2, "note": 65, "velocity": 105, "channel": 0}, {"type": "note_off", "time": 36, "note": 65, "velocity": 105, "channel": 0}, {"type": "note_on", "time": 0, "note": 62, "velocity": 109, "channel": 0}, {"type": "note_off", "time": 41, "note": 62, "velocity": 109, "channel": 0}, {"type": "note_on", "time": 15, "note": 58, "velocity": 99, "channel": 0}, {"type": "note_off", "time": 121, "note": 58, "velocity": 99, "channel": 0}, {"type": "note_on", "time": 8, "note": 55, "velocity": 95, "channel": 0}, {"type": "note_off", "time": 30, "note": 55, "velocity": 95, "channel": 0}, {"type": "note_on", "time": 14, "note": 57, "velocity": 95, "channel": 0}, {"type": "note_off", "time": 129, "note": 57, "velocity": 95, "channel": 0}, {"type": "note_on", "time": 21, "note": 56, "velocity": 107, "channel": 0}, {"type": "note_off", "time": 147, "note": 56, "velocity": 107, "channel": 0}, {"type": "note_on", "time": 31, "note": 65, "velocity": 108, "channel": 0}, {"type": "note_off", "time": 83, "note": 65, "velocity": 108, "channel": 0}, {"type": "note_on", "time": 95, "note": 55, "velocity": 100, "channel": 0}, {"type": "note_off", "time": 111, "note": 55, "velocity": 100, "channel": 0}, {"type": "note_on", "time": 23, "note": 64, "velocity": 111, "channel": 0}, {"type": "note_off", "time": 110, "note": 64, "velocity": 111, "channel": 0}, {"type": "note_on", "time": 15, "note": 62, "velocity": 108, "channel": 0}, {"type": "note_off", "time": 181, "note": 62, "velocity": 108, "channel": 0}, {"type": "note_on", "time": 12, "note": 59, "velocity": 81, "channel": 0}, {"type": "note_off", "time": 154, "note": 59, "velocity": 81, "channel": 0}, {"type": "note_on", "time": 16, "note": 59, "velocity": 79, "channel": 0}, {"type": "note_off", "time": 191, "note": 59, "velocity": 79, "channel": 0}, {"type": "note_on", "time": 714, "note": 57, "velocity": 104, "channel": 0}, {"type": "note_off", "time": 180, "note": 57, "velocity": 104, "channel": 0}, {"type": "note_on", "time": 20, "note": 57, "velocity": 104, "channel": 0}, {"type": "note_off", "time": 154, "note": 57, "velocity": 104, "channel": 0}, {"type": "note_on", "time": 21, "note": 57, "velocity": 87, "channel": 0}, {"type": "note_off", "time": 442, "note": 57, "velocity": 87, "channel": 0}, {"type": "note_on", "time": 589, "note": 55, "velocity": 101, "channel": 0}, {"type": "note_off", "time": 132, "note": 55, "velocity": 101, "channel": 0}, {"type": "note_on", "time": 4, "note": 56, "velocity": 110, "channel": 0}, {"type": "note_off", "time": 61, "note": 56, "velocity": 110, "channel": 0}, {"type": "note_on", "time": 5, "note": 57, "velocity": 107, "channel": 0}, {"type": "note_off", "time": 148, "note": 57, "velocity": 107, "channel": 0}, {"type": "note_on", "time": 42, "note": 55, "velocity": 100, "channel": 0}, {"type": "note_off", "time": 89, "note": 55, "velocity": 100, "channel": 0}, {"type": "note_on", "time": 6, "note": 57, "velocity": 106, "channel": 0}, {"type": "note_off", "time": 96, "note": 57, "velocity": 106, "channel": 0}, {"type": "note_on", "time": 9, "note": 52, "velocity": 103, "channel": 0}, {"type": "note_off", "time": 81, "note": 52, "velocity": 103, "channel": 0}, {"type": "note_on", "time": 10, "note": 53, "velocity": 95, "channel": 0}, {"type": "note_off", "time": 67, "note": 53, "velocity": 95, "channel": 0}, {"type": "note_on", "time": 7, "note": 54, "velocity": 96, "channel": 0}, {"type": "note_off", "time": 121, "note": 54, "velocity": 96, "channel": 0}, {"type": "note_on", "time": 10, "note": 62, "velocity": 101, "channel": 0}, {"type": "note_off", "time": 249, "note": 62, "velocity": 101, "channel": 0}, {"type": "note_on", "time": 12, "note": 57, "velocity": 92, "channel": 0}, {"type": "note_off", "time": 47, "note": 57, "velocity": 92, "channel": 0}, {"type": "note_on", "time": 5, "note": 59, "velocity": 94, "channel": 0}, {"type": "note_off", "time": 52, "note": 59, "velocity": 94, "channel": 0}, {"type": "note_on", "time": 5, "note": 57, "velocity": 92, "channel": 0}, {"type": "note_off", "time": 47, "note": 57, "velocity": 92, "channel": 0}, {"type": "note_on", "time": 5, "note": 64, "velocity": 110, "channel": 0}, {"type": "note_off", "time": 145, "note": 64, "velocity": 110, "channel": 0}, {"type": "note_on", "time": 10, "note": 62, "velocity": 99, "channel": 0}, {"type": "note_off", "time": 258, "note": 62, "velocity": 99, "channel": 0}, {"type": "note_on", "time": 10, "note": 57, "velocity": 94, "channel": 0}, {"type": "note_off", "time": 105, "note": 57, "velocity": 94, "channel": 0}, {"type": "note_on", "time": 93, "note": 62, "velocity": 103, "channel": 0}, {"type": "note_off", "time": 163, "note": 62, "velocity": 103, "channel": 0}, {"type": "note_on", "time": 485, "note": 59, "velocity": 83, "channel": 0}, {"type": "note_off", "time": 71, "note": 59, "velocity": 83, "channel": 0}, {"type": "note_on", "time": 8, "note": 62, "velocity": 118, "channel": 0}, {"type": "note_off", "time": 110, "note": 62, "velocity": 118, "channel": 0}, {"type": "note_on", "time": 7, "note": 66, "velocity": 106, "channel": 0}, {"type": "note_off", "time": 163, "note": 66, "velocity": 106, "channel": 0}, {"type": "note_on", "time": 28, "note": 62, "velocity": 104, "channel": 0}, {"type": "note_off", "time": 245, "note": 62, "velocity": 104, "channel": 0}, {"type": "note_on", "time": 12, "note": 59, "velocity": 99, "channel": 0}, {"type": "note_off", "time": 100, "note": 59, "velocity": 99, "channel": 0}, {"type": "note_on", "time": 15, "note": 57, "velocity": 96, "channel": 0}, {"type": "note_off", "time": 64, "note": 57, "velocity": 96, "channel": 0}, {"type": "note_on", "time": 46, "note": 71, "velocity": 111, "channel": 0}, {"type": "note_off", "time": 89, "note": 71, "velocity": 111, "channel": 0}, {"type": "note_on", "time": 5, "note": 69, "velocity": 101, "channel": 0}, {"type": "note_off", "time": 61, "note": 69, "velocity": 101, "channel": 0}, {"type": "note_on", "time": 15, "note": 66, "velocity": 106, "channel": 0}, {"type": "note_off", "time": 87, "note": 66, "velocity": 106, "channel": 0}, {"type": "note_on", "time": 5, "note": 62, "velocity": 102, "channel": 0}, {"type": "note_off", "time": 74, "note": 62, "velocity": 102, "channel": 0}, {"type": "note_on", "time": 23, "note": 62, "velocity": 101, "channel": 0}, {"type": "note_off", "time": 155, "note": 62, "velocity": 101, "channel": 0}, {"type": "note_on", "time": 42, "note": 59, "velocity": 77, "channel": 0}, {"type": "note_off", "time": 94, "note": 59, "velocity": 77, "channel": 0}, {"type": "note_on", "time": 68, "note": 64, "velocity": 109, "channel": 0}, {"type": "note_off", "time": 284, "note": 64, "velocity": 109, "channel": 0}, {"type": "note_on", "time": 13, "note": 62, "velocity": 107, "channel": 0}, {"type": "note_off", "time": 54, "note": 62, "velocity": 107, "channel": 0}, {"type": "note_on", "time": 5, "note": 64, "velocity": 104, "channel": 0}, {"type": "note_off", "time": 37, "note": 64, "velocity": 104, "channel": 0}, {"type": "note_on", "time": 8, "note": 62, "velocity": 95, "channel": 0}, {"type": "note_off", "time": 39, "note": 62, "velocity": 95, "channel": 0}, {"type": "note_on", "time": 27, "note": 56, "velocity": 106, "channel": 0}, {"type": "note_off", "time": 95, "note": 56, "velocity": 106, "channel": 0}, {"type": "note_on", "time": 60, "note": 64, "velocity": 110, "channel": 0}, {"type": "note_off", "time": 156, "note": 64, "velocity": 110, "channel": 0}, {"type": "note_on", "time": 13, "note": 62, "velocity": 106, "channel": 0}, {"type": "note_off", "time": 47, "note": 62, "velocity": 106, "channel": 0}, {"type": "note_on", "time": 9, "note": 64, "velocity": 98, "channel": 0}, {"type": "note_off", "time": 17, "note": 64, "velocity": 98, "channel": 0}, {"type": "note_on", "time": 10, "note": 62, "velocity": 98, "channel": 0}, {"type": "note_off", "time": 36, "note": 62, "velocity": 98, "channel": 0}, {"type": "note_on", "time": 8, "note": 55, "velocity": 88, "channel": 0}, {"type": "note_off", "time": 180, "note": 55, "velocity": 88, "channel": 0}, {"type": "note_on", "time": 351, "note": 56, "velocity": 91, "channel": 0}, {"type": "note_off", "time": 38, "note": 56, "velocity": 91, "channel": 0}, {"type": "note_on", "time": 5, "note": 59, "velocity": 88, "channel": 0}, {"type": "note_off", "time": 127, "note": 59, "velocity": 88, "channel": 0}, {"type": "note_on", "time": 9, "note": 62, "velocity": 115, "channel": 0}, {"type": "note_off", "time": 76, "note": 62, "velocity": 115, "channel": 0}, {"type": "note_on", "time": 123, "note": 60, "velocity": 109, "channel": 0}, {"type": "note_off", "time": 76, "note": 60, "velocity": 109, "channel": 0}, {"type": "note_on", "time": 2, "note": 61, "velocity": 111, "channel": 0}, {"type": "note_off", "time": 88, "note": 61, "velocity": 111, "channel": 0}, {"type": "note_on", "time": 10, "note": 64, "velocity": 108, "channel": 0}, {"type": "note_off", "time": 260, "note": 64, "velocity": 108, "channel": 0}, {"type": "note_on", "time": 6, "note": 62, "velocity": 110, "channel": 0}, {"type": "note_off", "time": 136, "note": 62, "velocity": 110, "channel": 0}, {"type": "note_on", "time": 9, "note": 59, "velocity": 93, "channel": 0}, {"type": "note_off", "time": 20, "note": 59, "velocity": 93, "channel": 0}, {"type": "note_on", "time": 34, "note": 52, "velocity": 100, "channel": 0}, {"type": "note_off", "time": 84, "note": 52, "velocity": 100, "channel": 0}, {"type": "note_on", "time": 16, "note": 53, "velocity": 96, "channel": 0}, {"type": "note_off", "time": 55, "note": 53, "velocity": 96, "channel": 0}, {"type": "note_on", "time": 20, "note": 54, "velocity": 91, "channel": 0}, {"type": "note_off", "time": 118, "note": 54, "velocity": 91, "channel": 0}, {"type": "note_on", "time": 7, "note": 57, "velocity": 98, "channel": 0}, {"type": "note_off", "time": 45, "note": 57, "velocity": 98, "channel": 0}, {"type": "note_on", "time": 11, "note": 62, "velocity": 97, "channel": 0}, {"type": "note_off", "time": 193, "note": 62, "velocity": 97, "channel": 0}, {"type": "note_on", "time": 877, "note": 59, "velocity": 94, "channel": 0}, {"type": "note_off", "time": 223, "note": 59, "velocity": 94, "channel": 0}, {"type": "note_on", "time": 8, "note": 60, "velocity": 109, "channel": 0}, {"type": "note_off", "time": 113, "note": 60, "velocity": 109, "channel": 0}, {"type": "note_on", "time": 10, "note": 60, "velocity": 106, "channel": 0}, {"type": "note_off", "time": 141, "note": 60, "velocity": 106, "channel": 0}, {"type": "note_on", "time": 101, "note": 60, "velocity": 107, "channel": 0}, {"type": "note_off", "time": 250, "note": 60, "velocity": 107, "channel": 0}, {"type": "note_on", "time": 130, "note": 58, "velocity": 102, "channel": 0}, {"type": "note_off", "time": 33, "note": 58, "velocity": 102, "channel": 0}, {"type": "note_on", "time": 11, "note": 60, "velocity": 109, "channel": 0}, {"type": "note_off", "time": 95, "note": 60, "velocity": 109, "channel": 0}, {"type": "note_on", "time": 12, "note": 61, "velocity": 110, "channel": 0}, {"type": "note_off", "time": 69, "note": 61, "velocity": 110, "channel": 0}, {"type": "note_on", "time": 15, "note": 62, "velocity": 112, "channel": 0}, {"type": "note_off", "time": 111, "note": 62, "velocity": 112, "channel": 0}, {"type": "note_on", "time": 14, "note": 58, "velocity": 92, "channel": 0}, {"type": "note_off", "time": 106, "note": 58, "velocity": 92, "channel": 0}, {"type": "note_on", "time": 74, "note": 55, "velocity": 90, "channel": 0}, {"type": "note_off", "time": 140, "note": 55, "velocity": 90, "channel": 0}, {"type": "note_on", "time": 27, "note": 56, "velocity": 106, "channel": 0}, {"type": "note_off", "time": 164, "note": 56, "velocity": 106, "channel": 0}, {"type": "note_on", "time": 23, "note": 57, "velocity": 88, "channel": 0}, {"type": "note_off", "time": 254, "note": 57, "velocity": 88, "channel": 0}, {"type": "note_on", "time": 524, "note": 56, "velocity": 113, "channel": 0}, {"type": "note_off", "time": 130, "note": 56, "velocity": 113, "channel": 0}, {"type": "note_on", "time": 5, "note": 58, "velocity": 105, "channel": 0}, {"type": "note_off", "time": 101, "note": 58, "velocity": 105, "channel": 0}, {"type": "note_on", "time": 33, "note": 60, "velocity": 108, "channel": 0}, {"type": "note_off", "time": 123, "note": 60, "velocity": 108, "channel": 0}, {"type": "note_on", "time": 81, "note": 67, "velocity": 112, "channel": 0}, {"type": "note_off", "time": 116, "note": 67, "velocity": 112, "channel": 0}, {"type": "note_on", "time": 10, "note": 66, "velocity": 104, "channel": 0}, {"type": "note_off", "time": 49, "note": 66, "velocity": 104, "channel": 0}, {"type": "note_on", "time": 14, "note": 65, "velocity": 109, "channel": 0}, {"type": "note_off", "time": 86, "note": 65, "velocity": 109, "channel": 0}, {"type": "note_on", "time": 12, "note": 62, "velocity": 115, "channel": 0}, {"type": "note_off", "time": 52, "note": 62, "velocity": 115, "channel": 0}, {"type": "note_on", "time": 11, "note": 60, "velocity": 104, "channel": 0}, {"type": "note_off", "time": 132, "note": 60, "velocity": 104, "channel": 0}, {"type": "note_on", "time": 36, "note": 60, "velocity": 103, "channel": 0}, {"type": "note_off", "time": 132, "note": 60, "velocity": 103, "channel": 0}, {"type": "note_on", "time": 15, "note": 58, "velocity": 103, "channel": 0}, {"type": "note_off", "time": 59, "note": 58, "velocity": 103, "channel": 0}, {"type": "note_on", "time": 13, "note": 55, "velocity": 96, "channel": 0}, {"type": "note_off", "time": 170, "note": 55, "velocity": 96, "channel": 0}, {"type": "note_on", "time": 11, "note": 57, "velocity": 105, "channel": 0}, {"type": "note_off", "time": 123, "note": 57, "velocity": 105, "channel": 0}, {"type": "note_on", "time": 16, "note": 65, "velocity": 100, "channel": 0}, {"type": "note_off", "time": 252, "note": 65, "velocity": 100, "channel": 0}, {"type": "note_on", "time": 13, "note": 64, "velocity": 110, "channel": 0}, {"type": "note_off", "time": 121, "note": 64, "velocity": 110, "channel": 0}, {"type": "note_on", "time": 60, "note": 67, "velocity": 97, "channel": 0}, {"type": "note_off", "time": 141, "note": 67, "velocity": 97, "channel": 0}, {"type": "note_on", "time": 5, "note": 66, "velocity": 97, "channel": 0}, {"type": "note_off", "time": 96, "note": 66, "velocity": 97, "channel": 0}, {"type": "note_on", "time": 55, "note": 62, "velocity": 106, "channel": 0}, {"type": "note_off", "time": 65, "note": 62, "velocity": 106, "channel": 0}, {"type": "note_on", "time": 23, "note": 57, "velocity": 87, "channel": 0}, {"type": "note_off", "time": 119, "note": 57, "velocity": 87, "channel": 0}, {"type": "note_on", "time": 567, "note": 64, "velocity": 117, "channel": 0}, {"type": "note_off", "time": 152, "note": 64, "velocity": 117, "channel": 0}, {"type": "note_on", "time": 12, "note": 65, "velocity": 117, "channel": 0}, {"type": "note_off", "time": 71, "note": 65, "velocity": 117, "channel": 0}, {"type": "note_on", "time": 10, "note": 66, "velocity": 117, "channel": 0}, {"type": "note_off", "time": 90, "note": 66, "velocity": 117, "channel": 0}, {"type": "note_on", "time": 13, "note": 65, "velocity": 113, "channel": 0}, {"type": "note_off", "time": 64, "note": 65, "velocity": 113, "channel": 0}, {"type": "note_on", "time": 7, "note": 66, "velocity": 113, "channel": 0}, {"type": "note_off", "time": 113, "note": 66, "velocity": 113, "channel": 0}, {"type": "note_on", "time": 9, "note": 65, "velocity": 105, "channel": 0}, {"type": "note_off", "time": 49, "note": 65, "velocity": 105, "channel": 0}, {"type": "note_on", "time": 12, "note": 66, "velocity": 111, "channel": 0}, {"type": "note_off", "time": 118, "note": 66, "velocity": 111, "channel": 0}, {"type": "note_on", "time": 8, "note": 62, "velocity": 115, "channel": 0}, {"type": "note_off", "time": 75, "note": 62, "velocity": 115, "channel": 0}, {"type": "note_on", "time": 197, "note": 65, "velocity": 114, "channel": 0}, {"type": "note_off", "time": 139, "note": 65, "velocity": 114, "channel": 0}, {"type": "note_on", "time": 21, "note": 62, "velocity": 114, "channel": 0}, {"type": "note_off", "time": 112, "note": 62, "velocity": 114, "channel": 0}, {"type": "note_on", "time": 35, "note": 64, "velocity": 105, "channel": 0}, {"type": "note_off", "time": 226, "note": 64, "velocity": 105, "channel": 0}, {"type": "note_on", "time": 502, "note": 66, "velocity": 97, "channel": 0}, {"type": "note_off", "time": 206, "note": 66, "velocity": 97, "channel": 0}, {"type": "note_on", "time": 9, "note": 69, "velocity": 101, "channel": 0}, {"type": "note_off", "time": 51, "note": 69, "velocity": 101, "channel": 0}, {"type": "note_on", "time": 10, "note": 71, "velocity": 112, "channel": 0}, {"type": "note_off", "time": 116, "note": 71, "velocity": 112, "channel": 0}, {"type": "note_on", "time": 15, "note": 69, "velocity": 99, "channel": 0}, {"type": "note_off", "time": 44, "note": 69, "velocity": 99, "channel": 0}, {"type": "note_on", "time": 0, "note": 71, "velocity": 105, "channel": 0}, {"type": "note_off", "time": 111, "note": 71, "velocity": 105, "channel": 0}, {"type": "note_on", "time": 14, "note": 69, "velocity": 98, "channel": 0}, {"type": "note_off", "time": 130, "note": 69, "velocity": 98, "channel": 0}, {"type": "note_on", "time": 47, "note": 65, "velocity": 100, "channel": 0}, {"type": "note_off", "time": 190, "note": 65, "velocity": 100, "channel": 0}, {"type": "note_on", "time": 10, "note": 64, "velocity": 110, "channel": 0}, {"type": "note_off", "time": 170, "note": 64, "velocity": 110, "channel": 0}, {"type": "note_on", "time": 29, "note": 62, "velocity": 114, "channel": 0}, {"type": "note_off", "time": 113, "note": 62, "velocity": 114, "channel": 0}, {"type": "note_on", "time": 77, "note": 69, "velocity": 107, "channel": 0}, {"type": "note_off", "time": 57, "note": 69, "velocity": 107, "channel": 0}, {"type": "note_on", "time": 51, "note": 66, "velocity": 99, "channel": 0}, {"type": "note_off", "time": 121, "note": 66, "velocity": 99, "channel": 0}, {"type": "note_on", "time": 57, "note": 64, "velocity": 109, "channel": 0}, {"type": "note_off", "time": 97, "note": 64, "velocity": 109, "channel": 0}, {"type": "note_on", "time": 27, "note": 57, "velocity": 95, "channel": 0}, {"type": "note_off", "time": 126, "note": 57, "velocity": 95, "channel": 0}, {"type": "note_on", "time": 18, "note": 57, "velocity": 94, "channel": 0}, {"type": "note_off", "time": 168, "note": 57, "velocity": 94, "channel": 0}, {"type": "note_on", "time": 391, "note": 57, "velocity": 107, "channel": 0}, {"type": "note_off", "time": 49, "note": 57, "velocity": 107, "channel": 0}, {"type": "note_on", "time": 19, "note": 62, "velocity": 111, "channel": 0}, {"type": "note_off", "time": 131, "note": 62, "velocity": 111, "channel": 0}, {"type": "note_on", "time": 10, "note": 62, "velocity": 101, "channel": 0}, {"type": "note_off", "time": 238, "note": 62, "velocity": 101, "channel": 0}, {"type": "note_on", "time": 15, "note": 59, "velocity": 93, "channel": 0}, {"type": "note_off", "time": 128, "note": 59, "velocity": 93, "channel": 0}, {"type": "note_on", "time": 32, "note": 62, "velocity": 98, "channel": 0}, {"type": "note_off", "time": 221, "note": 62, "velocity": 98, "channel": 0}, {"type": "note_on", "time": 1233, "note": 69, "velocity": 100, "channel": 0}, {"type": "note_off", "time": 147, "note": 69, "velocity": 100, "channel": 0}, {"type": "note_on", "time": 73, "note": 69, "velocity": 100, "channel": 0}, {"type": "note_off", "time": 139, "note": 69, "velocity": 100, "channel": 0}, {"type": "note_on", "time": 28, "note": 69, "velocity": 98, "channel": 0}, {"type": "note_off", "time": 124, "note": 69, "velocity": 98, "channel": 0}, {"type": "note_on", "time": 33, "note": 69, "velocity": 94, "channel": 0}, {"type": "note_off", "time": 118, "note": 69, "velocity": 94, "channel": 0}, {"type": "note_on", "time": 48, "note": 69, "velocity": 97, "channel": 0}, {"type": "note_off", "time": 119, "note": 69, "velocity": 97, "channel": 0}, {"type": "note_on", "time": 39, "note": 69, "velocity": 94, "channel": 0}, {"type": "note_off", "time": 121, "note": 69, "velocity": 94, "channel": 0}, {"type": "note_on", "time": 36, "note": 69, "velocity": 91, "channel": 0}, {"type": "note_off", "time": 115, "note": 69, "velocity": 91, "channel": 0}, {"type": "note_on", "time": 16, "note": 69, "velocity": 101, "channel": 0}, {"type": "note_off", "time": 84, "note": 69, "velocity": 101, "channel": 0}, {"type": "note_on", "time": 13, "note": 67, "velocity": 93, "channel": 0}, {"type": "note_off", "time": 60, "note": 67, "velocity": 93, "channel": 0}, {"type": "note_on", "time": 7, "note": 62, "velocity": 102, "channel": 0}, {"type": "note_off", "time": 141, "note": 62, "velocity": 102, "channel": 0}, {"type": "note_on", "time": 39, "note": 67, "velocity": 102, "channel": 0}, {"type": "note_off", "time": 92, "note": 67, "velocity": 102, "channel": 0}, {"type": "note_on", "time": 11, "note": 66, "velocity": 94, "channel": 0}, {"type": "note_off", "time": 90, "note": 66, "velocity": 94, "channel": 0}, {"type": "note_on", "time": 14, "note": 62, "velocity": 95, "channel": 0}, {"type": "note_off", "time": 94, "note": 62, "velocity": 95, "channel": 0}, {"type": "note_on", "time": 6, "note": 59, "velocity": 75, "channel": 0}, {"type": "note_off", "time": 73, "note": 59, "velocity": 75, "channel": 0}, {"type": "note_on", "time": 73, "note": 62, "velocity": 97, "channel": 0}, {"type": "note_off", "time": 333, "note": 62, "velocity": 97, "channel": 0}, {"type": "note_on", "time": 17, "note": 59, "velocity": 83, "channel": 0}, {"type": "note_off", "time": 103, "note": 59, "velocity": 83, "channel": 0}, {"type": "note_on", "time": 674, "note": 68, "velocity": 90, "channel": 0}, {"type": "note_off", "time": 358, "note": 68, "velocity": 90, "channel": 0}, {"type": "note_on", "time": 11, "note": 69, "velocity": 95, "channel": 0}, {"type": "note_off", "time": 118, "note": 69, "velocity": 95, "channel": 0}, {"type": "note_on", "time": 81, "note": 57, "velocity": 90, "channel": 0}, {"type": "note_off", "time": 104, "note": 57, "velocity": 90, "channel": 0}, {"type": "note_on", "time": 13, "note": 62, "velocity": 105, "channel": 0}, {"type": "note_off", "time": 254, "note": 62, "velocity": 105, "channel": 0}, {"type": "note_on", "time": 5, "note": 61, "velocity": 110, "channel": 0}, {"type": "note_off", "time": 91, "note": 61, "velocity": 110, "channel": 0}, {"type": "note_on", "time": 69, "note": 59, "velocity": 94, "channel": 0}, {"type": "note_off", "time": 49, "note": 59, "velocity": 94, "channel": 0}, {"type": "note_on", "time": 5, "note": 64, "velocity": 111, "channel": 0}, {"type": "note_off", "time": 105, "note": 64, "velocity": 111, "channel": 0}, {"type": "note_on", "time": 8, "note": 62, "velocity": 113, "channel": 0}, {"type": "note_off", "time": 163, "note": 62, "velocity": 113, "channel": 0}, {"type": "note_on", "time": 44, "note": 66, "velocity": 93, "channel": 0}, {"type": "note_off", "time": 164, "note": 66, "velocity": 93, "channel": 0}, {"type": "note_on", "time": 16, "note": 69, "velocity": 97, "channel": 0}, {"type": "note_off", "time": 49, "note": 69, "velocity": 97, "channel": 0}, {"type": "note_on", "time": 142, "note": 67, "velocity": 105, "channel": 0}, {"type": "note_off", "time": 40, "note": 67, "velocity": 105, "channel": 0}, {"type": "note_on", "time": 23, "note": 61, "velocity": 88, "channel": 0}, {"type": "note_off", "time": 130, "note": 61, "velocity": 88, "channel": 0}, {"type": "note_on", "time": 35, "note": 59, "velocity": 81, "channel": 0}, {"type": "note_off", "time": 130, "note": 59, "velocity": 81, "channel": 0}, {"type": "note_on", "time": 15, "note": 59, "velocity": 87, "channel": 0}, {"type": "note_off", "time": 131, "note": 59, "velocity": 87, "channel": 0}, {"type": "note_on", "time": 15, "note": 62, "velocity": 97, "channel": 0}, {"type": "note_off", "time": 128, "note": 62, "velocity": 97, "channel": 0}, {"type": "note_on", "time": 7, "note": 65, "velocity": 105, "channel": 0}, {"type": "note_off", "time": 50, "note": 65, "velocity": 105, "channel": 0}, {"type": "note_on", "time": 11, "note": 66, "velocity": 95, "channel": 0}, {"type": "note_off", "time": 52, "note": 66, "velocity": 95, "channel": 0}, {"type": "note_on", "time": 15, "note": 57, "velocity": 103, "channel": 0}, {"type": "note_off", "time": 207, "note": 57, "velocity": 103, "channel": 0}, {"type": "note_on", "time": 12, "note": 56, "velocity": 100, "channel": 0}, {"type": "note_off", "time": 148, "note": 56, "velocity": 100, "channel": 0}, {"type": "note_on", "time": 31, "note": 66, "velocity": 90, "channel": 0}, {"type": "note_off", "time": 98, "note": 66, "velocity": 90, "channel": 0}, {"type": "note_on", "time": 294, "note": 56, "velocity": 103, "channel": 0}, {"type": "note_off", "time": 135, "note": 56, "velocity": 103, "channel": 0}, {"type": "note_on", "time": 14, "note": 55, "velocity": 97, "channel": 0}, {"type": "note_off", "time": 141, "note": 55, "velocity": 97, "channel": 0}, {"type": "note_on", "time": 15, "note": 65, "velocity": 106, "channel": 0}, {"type": "note_off", "time": 225, "note": 65, "velocity": 106, "channel": 0}, {"type": "note_on", "time": 8, "note": 64, "velocity": 105, "channel": 0}, {"type": "note_off", "time": 144, "note": 64, "velocity": 105, "channel": 0}, {"type": "note_on", "time": 6, "note": 62, "velocity": 94, "channel": 0}, {"type": "note_off", "time": 44, "note": 62, "velocity": 94, "channel": 0}, {"type": "note_on", "time": 8, "note": 64, "velocity": 107, "channel": 0}, {"type": "note_off", "time": 117, "note": 64, "velocity": 107, "channel": 0}, {"type": "note_on", "time": 0, "note": 62, "velocity": 103, "channel": 0}, {"type": "note_off", "time": 49, "note": 62, "velocity": 103, "channel": 0}, {"type": "note_on", "time": 8, "note": 62, "velocity": 87, "channel": 0}, {"type": "note_off", "time": 183, "note": 62, "velocity": 87, "channel": 0}, {"type": "note_on", "time": 37, "note": 62, "velocity": 94, "channel": 0}, {"type": "note_off", "time": 203, "note": 62, "velocity": 94, "channel": 0}, {"type": "note_on", "time": 488, "note": 59, "velocity": 91, "channel": 0}, {"type": "note_off", "time": 129, "note": 59, "velocity": 91, "channel": 0}, {"type": "note_on", "time": 36, "note": 61, "velocity": 117, "channel": 0}, {"type": "note_off", "time": 62, "note": 61, "velocity": 117, "channel": 0}, {"type": "note_on", "time": 100, "note": 64, "velocity": 121, "channel": 0}, {"type": "note_off", "time": 269, "note": 64, "velocity": 121, "channel": 0}, {"type": "note_on", "time": 17, "note": 64, "velocity": 107, "channel": 0}, {"type": "note_off", "time": 59, "note": 64, "velocity": 107, "channel": 0}, {"type": "note_on", "time": 10, "note": 62, "velocity": 107, "channel": 0}, {"type": "note_off", "time": 47, "note": 62, "velocity": 107, "channel": 0}, {"type": "note_on", "time": 7, "note": 59, "velocity": 83, "channel": 0}, {"type": "note_off", "time": 42, "note": 59, "velocity": 83, "channel": 0}, {"type": "note_on", "time": 37, "note": 64, "velocity": 113, "channel": 0}, {"type": "note_off", "time": 147, "note": 64, "velocity": 113, "channel": 0}, {"type": "note_on", "time": 15, "note": 64, "velocity": 102, "channel": 0}, {"type": "note_off", "time": 69, "note": 64, "velocity": 102, "channel": 0}, {"type": "note_on", "time": 18, "note": 62, "velocity": 103, "channel": 0}, {"type": "note_off", "time": 42, "note": 62, "velocity": 103, "channel": 0}, {"type": "note_on", "time": 17, "note": 59, "velocity": 94, "channel": 0}, {"type": "note_off", "time": 44, "note": 59, "velocity": 94, "channel": 0}, {"type": "note_on", "time": 21, "note": 64, "velocity": 109, "channel": 0}, {"type": "note_off", "time": 150, "note": 64, "velocity": 109, "channel": 0}, {"type": "note_on", "time": 17, "note": 64, "velocity": 99, "channel": 0}, {"type": "note_off", "time": 70, "note": 64, "velocity": 99, "channel": 0}, {"type": "note_on", "time": 7, "note": 62, "velocity": 104, "channel": 0}, {"type": "note_off", "time": 57, "note": 62, "velocity": 104, "channel": 0}, {"type": "note_on", "time": 19, "note": 57, "velocity": 93, "channel": 0}, {"type": "note_off", "time": 124, "note": 57, "velocity": 93, "channel": 0}, {"type": "note_on", "time": 20, "note": 55, "velocity": 103, "channel": 0}, {"type": "note_off", "time": 110, "note": 55, "velocity": 103, "channel": 0}, {"type": "note_on", "time": 25, "note": 54, "velocity": 90, "channel": 0}, {"type": "note_off", "time": 105, "note": 54, "velocity": 90, "channel": 0}, {"type": "note_on", "time": 15, "note": 52, "velocity": 88, "channel": 0}, {"type": "note_off", "time": 126, "note": 52, "velocity": 88, "channel": 0}, {"type": "note_on", "time": 47, "note": 54, "velocity": 89, "channel": 0}, {"type": "note_off", "time": 104, "note": 54, "velocity": 89, "channel": 0}, {"type": "note_on", "time": 35, "note": 50, "velocity": 95, "channel": 0}, {"type": "note_off", "time": 111, "note": 50, "velocity": 95, "channel": 0}, {"type": "note_on", "time": 494, "note": 52, "velocity": 111, "channel": 0}, {"type": "note_off", "time": 63, "note": 52, "velocity": 111, "channel": 0}, {"type": "note_on", "time": 7, "note": 54, "velocity": 101, "channel": 0}, {"type": "note_off", "time": 115, "note": 54, "velocity": 101, "channel": 0}, {"type": "note_on", "time": 10, "note": 57, "velocity": 106, "channel": 0}, {"type": "note_off", "time": 45, "note": 57, "velocity": 106, "channel": 0}, {"type": "note_on", "time": 28, "note": 64, "velocity": 120, "channel": 0}, {"type": "note_off", "time": 87, "note": 64, "velocity": 120, "channel": 0}, {"type": "note_on", "time": 9, "note": 62, "velocity": 112, "channel": 0}, {"type": "note_off", "time": 103, "note": 62, "velocity": 112, "channel": 0}, {"type": "note_on", "time": 170, "note": 58, "velocity": 97, "channel": 0}, {"type": "note_off", "time": 139, "note": 58, "velocity": 97, "channel": 0}, {"type": "note_on", "time": 181, "note": 60, "velocity": 109, "channel": 0}, {"type": "note_off", "time": 56, "note": 60, "velocity": 109, "channel": 0}, {"type": "note_on", "time": 10, "note": 62, "velocity": 116, "channel": 0}, {"type": "note_off", "time": 108, "note": 62, "velocity": 116, "channel": 0}, {"type": "note_on", "time": 9, "note": 67, "velocity": 107, "channel": 0}, {"type": "note_off", "time": 65, "note": 67, "velocity": 107, "channel": 0}, {"type": "note_on", "time": 8, "note": 65, "velocity": 108, "channel": 0}, {"type": "note_off", "time": 118, "note": 65, "velocity": 108, "channel": 0}, {"type": "note_on", "time": 11, "note": 62, "velocity": 99, "channel": 0}, {"type": "note_off", "time": 46, "note": 62, "velocity": 99, "channel": 0}, {"type": "note_on", "time": 3, "note": 64, "velocity": 105, "channel": 0}, {"type": "note_off", "time": 226, "note": 64, "velocity": 105, "channel": 0}, {"type": "note_on", "time": 516, "note": 57, "velocity": 92, "channel": 0}, {"type": "note_off", "time": 41, "note": 57, "velocity": 92, "channel": 0}, {"type": "note_on", "time": 28, "note": 59, "velocity": 84, "channel": 0}, {"type": "note_off", "time": 56, "note": 59, "velocity": 84, "channel": 0}, {"type": "note_on", "time": 2, "note": 61, "velocity": 108, "channel": 0}, {"type": "note_off", "time": 78, "note": 61, "velocity": 108, "channel": 0}, {"type": "note_on", "time": 194, "note": 61, "velocity": 93, "channel": 0}, {"type": "note_off", "time": 331, "note": 61, "velocity": 93, "channel": 0}, {"type": "note_on", "time": 45, "note": 61, "velocity": 101, "channel": 0}, {"type": "note_off", "time": 131, "note": 61, "velocity": 101, "channel": 0}, {"type": "note_on", "time": 20, "note": 57, "velocity": 101, "channel": 0}, {"type": "note_off", "time": 46, "note": 57, "velocity": 101, "channel": 0}, {"type": "note_on", "time": 18, "note": 64, "velocity": 114, "channel": 0}, {"type": "note_off", "time": 122, "note": 64, "velocity": 114, "channel": 0}, {"type": "note_on", "time": 10, "note": 61, "velocity": 101, "channel": 0}, {"type": "note_off", "time": 51, "note": 61, "velocity": 101, "channel": 0}, {"type": "note_on", "time": 12, "note": 62, "velocity": 109, "channel": 0}, {"type": "note_off", "time": 133, "note": 62, "velocity": 109, "channel": 0}, {"type": "note_on", "time": 10, "note": 57, "velocity": 96, "channel": 0}, {"type": "note_off", "time": 67, "note": 57, "velocity": 96, "channel": 0}, {"type": "note_on", "time": 94, "note": 53, "velocity": 105, "channel": 0}, {"type": "note_off", "time": 163, "note": 53, "velocity": 105, "channel": 0}, {"type": "note_on", "time": 750, "note": 52, "velocity": 113, "channel": 0}, {"type": "note_off", "time": 185, "note": 52, "velocity": 113, "channel": 0}, {"type": "note_on", "time": 2, "note": 51, "velocity": 109, "channel": 0}, {"type": "note_off", "time": 32, "note": 51, "velocity": 109, "channel": 0}, {"type": "note_on", "time": 5, "note": 50, "velocity": 107, "channel": 0}, {"type": "note_off", "time": 29, "note": 50, "velocity": 107, "channel": 0}, {"type": "note_on", "time": 3, "note": 49, "velocity": 113, "channel": 0}, {"type": "note_off", "time": 173, "note": 49, "velocity": 113, "channel": 0}, {"type": "note_on", "time": 18, "note": 52, "velocity": 109, "channel": 0}, {"type": "note_off", "time": 111, "note": 52, "velocity": 109, "channel": 0}, {"type": "note_on", "time": 18, "note": 55, "velocity": 103, "channel": 0}, {"type": "note_off", "time": 121, "note": 55, "velocity": 103, "channel": 0}, {"type": "note_on", "time": 17, "note": 62, "velocity": 86, "channel": 0}, {"type": "note_off", "time": 225, "note": 62, "velocity": 86, "channel": 0}, {"type": "note_on", "time": 9, "note": 57, "velocity": 94, "channel": 0}, {"type": "note_off", "time": 73, "note": 57, "velocity": 94, "channel": 0}, {"type": "note_on", "time": 9, "note": 62, "velocity": 103, "channel": 0}, {"type": "note_off", "time": 190, "note": 62, "velocity": 103, "channel": 0}, {"type": "note_on", "time": 10, "note": 59, "velocity": 84, "channel": 0}, {"type": "note_off", "time": 89, "note": 59, "velocity": 84, "channel": 0}, {"type": "note_on", "time": 10, "note": 57, "velocity": 93, "channel": 0}, {"type": "note_off", "time": 104, "note": 57, "velocity": 93, "channel": 0}, {"type": "note_on", "time": 497, "note": 59, "velocity": 99, "channel": 0}, {"type": "note_off", "time": 211, "note": 59, "velocity": 99, "channel": 0}, {"type": "note_on", "time": 38, "note": 62, "velocity": 118, "channel": 0}, {"type": "note_off", "time": 102, "note": 62, "velocity": 118, "channel": 0}, {"type": "note_on", "time": 12, "note": 65, "velocity": 114, "channel": 0}, {"type": "note_off", "time": 70, "note": 65, "velocity": 114, "channel": 0}, {"type": "note_on", "time": 13, "note": 66, "velocity": 116, "channel": 0}, {"type": "note_off", "time": 105, "note": 66, "velocity": 116, "channel": 0}, {"type": "note_on", "time": 11, "note": 61, "velocity": 106, "channel": 0}, {"type": "note_off", "time": 45, "note": 61, "velocity": 106, "channel": 0}, {"type": "note_on", "time": 15, "note": 57, "velocity": 107, "channel": 0}, {"type": "note_off", "time": 187, "note": 57, "velocity": 107, "channel": 0}, {"type": "note_on", "time": 6, "note": 56, "velocity": 108, "channel": 0}, {"type": "note_off", "time": 167, "note": 56, "velocity": 108, "channel": 0}, {"type": "note_on", "time": 57, "note": 65, "velocity": 110, "channel": 0}, {"type": "note_off", "time": 143, "note": 65, "velocity": 110, "channel": 0}, {"type": "note_on", "time": 10, "note": 62, "velocity": 112, "channel": 0}, {"type": "note_off", "time": 119, "note": 62, "velocity": 112, "channel": 0}, {"type": "note_on", "time": 23, "note": 64, "velocity": 111, "channel": 0}, {"type": "note_off", "time": 212, "note": 64, "velocity": 111, "channel": 0}, {"type": "note_on", "time": 702, "note": 69, "velocity": 110, "channel": 0}, {"type": "note_off", "time": 121, "note": 69, "velocity": 110, "channel": 0}, {"type": "note_on", "time": 68, "note": 71, "velocity": 109, "channel": 0}, {"type": "note_off", "time": 62, "note": 71, "velocity": 109, "channel": 0}, {"type": "note_on", "time": 6, "note": 72, "velocity": 102, "channel": 0}, {"type": "note_off", "time": 61, "note": 72, "velocity": 102, "channel": 0}, {"type": "note_on", "time": 5, "note": 71, "velocity": 100, "channel": 0}, {"type": "note_off", "time": 39, "note": 71, "velocity": 100, "channel": 0}, {"type": "note_on", "time": 4, "note": 69, "velocity": 97, "channel": 0}, {"type": "note_off", "time": 52, "note": 69, "velocity": 97, "channel": 0}, {"type": "note_on", "time": 10, "note": 71, "velocity": 99, "channel": 0}, {"type": "note_off", "time": 242, "note": 71, "velocity": 99, "channel": 0}, {"type": "note_on", "time": 18, "note": 70, "velocity": 101, "channel": 0}, {"type": "note_off", "time": 30, "note": 70, "velocity": 101, "channel": 0}, {"type": "note_on", "time": 3, "note": 67, "velocity": 112, "channel": 0}, {"type": "note_off", "time": 36, "note": 67, "velocity": 112, "channel": 0}, {"type": "note_on", "time": 9, "note": 65, "velocity": 115, "channel": 0}, {"type": "note_off", "time": 41, "note": 65, "velocity": 115, "channel": 0}, {"type": "note_on", "time": 11, "note": 64, "velocity": 112, "channel": 0}, {"type": "note_off", "time": 73, "note": 64, "velocity": 112, "channel": 0}, {"type": "note_on", "time": 8, "note": 62, "velocity": 99, "channel": 0}, {"type": "note_off", "time": 43, "note": 62, "velocity": 99, "channel": 0}, {"type": "note_on", "time": 18, "note": 64, "velocity": 108, "channel": 0}, {"type": "note_off", "time": 244, "note": 64, "velocity": 108, "channel": 0}, {"type": "note_on", "time": 121, "note": 57, "velocity": 103, "channel": 0}, {"type": "note_off", "time": 58, "note": 57, "velocity": 103, "channel": 0}, {"type": "note_on", "time": 10, "note": 59, "velocity": 105, "channel": 0}, {"type": "note_off", "time": 97, "note": 59, "velocity": 105, "channel": 0}, {"type": "note_on", "time": 34, "note": 62, "velocity": 110, "channel": 0}, {"type": "note_off", "time": 54, "note": 62, "velocity": 110, "channel": 0}, {"type": "note_on", "time": 7, "note": 65, "velocity": 108, "channel": 0}, {"type": "note_off", "time": 207, "note": 65, "velocity": 108, "channel": 0}, {"type": "note_on", "time": 5, "note": 66, "velocity": 93, "channel": 0}, {"type": "note_off", "time": 155, "note": 66, "velocity": 93, "channel": 0}, {"type": "note_on", "time": 209, "note": 57, "velocity": 100, "channel": 0}, {"type": "note_off", "time": 128, "note": 57, "velocity": 100, "channel": 0}, {"type": "note_on", "time": 26, "note": 67, "velocity": 110, "channel": 0}, {"type": "note_off", "time": 135, "note": 67, "velocity": 110, "channel": 0}, {"type": "note_on", "time": 17, "note": 66, "velocity": 102, "channel": 0}, {"type": "note_off", "time": 143, "note": 66, "velocity": 102, "channel": 0}, {"type": "note_on", "time": 33, "note": 62, "velocity": 109, "channel": 0}, {"type": "note_off", "time": 105, "note": 62, "velocity": 109, "channel": 0}, {"type": "note_on", "time": 138, "note": 62, "velocity": 105, "channel": 0}, {"type": "note_off", "time": 200, "note": 62, "velocity": 105, "channel": 0}, {"type": "note_on", "time": 10, "note": 57, "velocity": 90, "channel": 0}, {"type": "note_off", "time": 192, "note": 57, "velocity": 90, "channel": 0}, {"type": "note_on", "time": 551, "note": 60, "velocity": 100, "channel": 0}, {"type": "note_off", "time": 335, "note": 60, "velocity": 100, "channel": 0}, {"type": "note_on", "time": 82, "note": 67, "velocity": 112, "channel": 0}, {"type": "note_off", "time": 98, "note": 67, "velocity": 112, "channel": 0}, {"type": "note_on", "time": 11, "note": 65, "velocity": 104, "channel": 0}, {"type": "note_off", "time": 246, "note": 65, "velocity": 104, "channel": 0}, {"type": "note_on", "time": 11, "note": 62, "velocity": 112, "channel": 0}, {"type": "note_off", "time": 131, "note": 62, "velocity": 112, "channel": 0}, {"type": "note_on", "time": 17, "note": 60, "velocity": 100, "channel": 0}, {"type": "note_off", "time": 32, "note": 60, "velocity": 100, "channel": 0}, {"type": "note_on", "time": 20, "note": 64, "velocity": 114, "channel": 0}, {"type": "note_off", "time": 99, "note": 64, "velocity": 114, "channel": 0}, {"type": "note_on", "time": 8, "note": 62, "velocity": 108, "channel": 0}, {"type": "note_off", "time": 66, "note": 62, "velocity": 108, "channel": 0}, {"type": "note_on", "time": 12, "note": 60, "velocity": 105, "channel": 0}, {"type": "note_off", "time": 104, "note": 60, "velocity": 105, "channel": 0}, {"type": "note_on", "time": 15, "note": 57, "velocity": 103, "channel": 0}, {"type": "note_off", "time": 209, "note": 57, "velocity": 103, "channel": 0}, {"type": "note_on", "time": 619, "note": 57, "velocity": 94, "channel": 0}, {"type": "note_off", "time": 718, "note": 57, "velocity": 94, "channel": 0}, {"type": "note_on", "time": 8, "note": 56, "velocity": 100, "channel": 0}, {"type": "note_off", "time": 29, "note": 56, "velocity": 100, "channel": 0}, {"type": "note_on", "time": 6, "note": 55, "velocity": 103, "channel": 0}, {"type": "note_off", "time": 30, "note": 55, "velocity": 103, "channel": 0}, {"type": "note_on", "time": 5, "note": 54, "velocity": 102, "channel": 0}, {"type": "note_off", "time": 85, "note": 54, "velocity": 102, "channel": 0}, {"type": "note_on", "time": 4, "note": 57, "velocity": 104, "channel": 0}, {"type": "note_off", "time": 97, "note": 57, "velocity": 104, "channel": 0}, {"type": "note_on", "time": 345, "note": 52, "velocity": 100, "channel": 0}, {"type": "note_off", "time": 187, "note": 52, "velocity": 100, "channel": 0}, {"type": "note_on", "time": 10, "note": 53, "velocity": 95, "channel": 0}, {"type": "note_off", "time": 249, "note": 53, "velocity": 95, "channel": 0}, {"type": "note_on", "time": 114, "note": 57, "velocity": 104, "channel": 0}, {"type": "note_off", "time": 156, "note": 57, "velocity": 104, "channel": 0}, {"type": "note_on", "time": 60, "note": 67, "velocity": 107, "channel": 0}, {"type": "note_off", "time": 107, "note": 67, "velocity": 107, "channel": 0}, {"type": "note_on", "time": 16, "note": 65, "velocity": 108, "channel": 0}, {"type": "note_off", "time": 207, "note": 65, "velocity": 108, "channel": 0}, {"type": "note_on", "time": 606, "note": 64, "velocity": 125, "channel": 0}, {"type": "note_off", "time": 121, "note": 64, "velocity": 125, "channel": 0}, {"type": "note_on", "time": 13, "note": 66, "velocity": 110, "channel": 0}, {"type": "note_off", "time": 173, "note": 66, "velocity": 110, "channel": 0}, {"type": "note_on", "time": 25, "note": 69, "velocity": 107, "channel": 0}, {"type": "note_off", "time": 195, "note": 69, "velocity": 107, "channel": 0}, {"type": "note_on", "time": 193, "note": 66, "velocity": 111, "channel": 0}, {"type": "note_off", "time": 52, "note": 66, "velocity": 111, "channel": 0}, {"type": "note_on", "time": 9, "note": 64, "velocity": 116, "channel": 0}, {"type": "note_off", "time": 93, "note": 64, "velocity": 116, "channel": 0}, {"type": "note_on", "time": 18, "note": 62, "velocity": 119, "channel": 0}, {"type": "note_off", "time": 67, "note": 62, "velocity": 119, "channel": 0}, {"type": "note_on", "time": 9, "note": 57, "velocity": 97, "channel": 0}, {"type": "note_off", "time": 121, "note": 57, "velocity": 97, "channel": 0}, {"type": "note_on", "time": 12, "note": 62, "velocity": 107, "channel": 0}, {"type": "note_off", "time": 139, "note": 62, "velocity": 107, "channel": 0}, {"type": "note_on", "time": 48, "note": 66, "velocity": 103, "channel": 0}, {"type": "note_off", "time": 192, "note": 66, "velocity": 103, "channel": 0}, {"type": "note_on", "time": 22, "note": 66, "velocity": 116, "channel": 0}, {"type": "note_off", "time": 56, "note": 66, "velocity": 116, "channel": 0}, {"type": "note_on", "time": 8, "note": 65, "velocity": 108, "channel": 0}, {"type": "note_off", "time": 76, "note": 65, "velocity": 108, "channel": 0}, {"type": "note_on", "time": 29, "note": 62, "velocity": 112, "channel": 0}, {"type": "note_off", "time": 130, "note": 62, "velocity": 112, "channel": 0}, {"type": "note_on", "time": 177, "note": 65, "velocity": 116, "channel": 0}, {"type": "note_off", "time": 153, "note": 65, "velocity": 116, "channel": 0}, {"type": "note_on", "time": 693, "note": 57, "velocity": 107, "channel": 0}, {"type": "note_off", "time": 199, "note": 57, "velocity": 107, "channel": 0}, {"type": "note_on", "time": 15, "note": 64, "velocity": 123, "channel": 0}, {"type": "note_off", "time": 159, "note": 64, "velocity": 123, "channel": 0}, {"type": "note_on", "time": 4, "note": 64, "velocity": 127, "channel": 0}, {"type": "note_off", "time": 138, "note": 64, "velocity": 127, "channel": 0}, {"type": "note_on", "time": 45, "note": 62, "velocity": 108, "channel": 0}, {"type": "note_off", "time": 55, "note": 62, "velocity": 108, "channel": 0}, {"type": "note_on", "time": 10, "note": 64, "velocity": 114, "channel": 0}, {"type": "note_off", "time": 197, "note": 64, "velocity": 114, "channel": 0}, {"type": "note_on", "time": 1, "note": 63, "velocity": 100, "channel": 0}, {"type": "note_off", "time": 105, "note": 63, "velocity": 100, "channel": 0}, {"type": "note_on", "time": 4, "note": 62, "velocity": 110, "channel": 0}, {"type": "note_off", "time": 172, "note": 62, "velocity": 110, "channel": 0}, {"type": "note_on", "time": 223, "note": 61, "velocity": 119, "channel": 0}, {"type": "note_off", "time": 118, "note": 61, "velocity": 119, "channel": 0}, {"type": "note_on", "time": 108, "note": 61, "velocity": 107, "channel": 0}, {"type": "note_off", "time": 86, "note": 61, "velocity": 107, "channel": 0}, {"type": "note_on", "time": 34, "note": 64, "velocity": 114, "channel": 0}, {"type": "note_off", "time": 88, "note": 64, "velocity": 114, "channel": 0}, {"type": "note_on", "time": 42, "note": 57, "velocity": 102, "channel": 0}, {"type": "note_off", "time": 180, "note": 57, "velocity": 102, "channel": 0}, {"type": "note_on", "time": 543, "note": 59, "velocity": 90, "channel": 0}, {"type": "note_off", "time": 121, "note": 59, "velocity": 90, "channel": 0}, {"type": "note_on", "time": 15, "note": 62, "velocity": 102, "channel": 0}, {"type": "note_off", "time": 187, "note": 62, "velocity": 102, "channel": 0}, {"type": "note_on", "time": 15, "note": 62, "velocity": 104, "channel": 0}, {"type": "note_off", "time": 395, "note": 62, "velocity": 104, "channel": 0}, {"type": "note_on", "time": 60, "note": 58, "velocity": 96, "channel": 0}, {"type": "note_off", "time": 131, "note": 58, "velocity": 96, "channel": 0}, {"type": "note_on", "time": 382, "note": 52, "velocity": 111, "channel": 0}, {"type": "note_off", "time": 57, "note": 52, "velocity": 111, "channel": 0}, {"type": "note_on", "time": 6, "note": 54, "velocity": 105, "channel": 0}, {"type": "note_off", "time": 116, "note": 54, "velocity": 105, "channel": 0}, {"type": "note_on", "time": 18, "note": 57, "velocity": 101, "channel": 0}, {"type": "note_off", "time": 70, "note": 57, "velocity": 101, "channel": 0}, {"type": "note_on", "time": 7, "note": 59, "velocity": 78, "channel": 0}, {"type": "note_off", "time": 61, "note": 59, "velocity": 78, "channel": 0}, {"type": "note_on", "time": 37, "note": 57, "velocity": 95, "channel": 0}, {"type": "note_off", "time": 69, "note": 57, "velocity": 95, "channel": 0}, {"type": "note_on", "time": 20, "note": 54, "velocity": 93, "channel": 0}, {"type": "note_off", "time": 103, "note": 54, "velocity": 93, "channel": 0}, {"type": "end_of_track", "time": 0}]]}