{"ticks_per_beat": 2520, "tracks": [[{"type": "track_name", "name": "Melody", "time": 0}, {"type": "set_tempo", "tempo": 731707, "time": 0}, {"type": "key_signature", "key": "Ab", "time": 0}, {"type": "time_signature", "numerator": 4, "denominator": 4, "clocks_per_click": 24, "notated_32nd_notes_per_beat": 8, "time": 0}, {"type": "note_on", "time": 24010, "note": 56, "velocity": 84, "channel": 0}, {"type": "note_off", "time": 219, "note": 56, "velocity": 84, "channel": 0}, {"type": "note_on", "time": 79, "note": 58, "velocity": 108, "channel": 0}, {"type": "note_off", "time": 159, "note": 58, "velocity": 108, "channel": 0}, {"type": "note_on", "time": 44, "note": 60, "velocity": 108, "channel": 0}, {"type": "note_off", "time": 534, "note": 60, "velocity": 108, "channel": 0}, {"type": "note_on", "time": 280, "note": 51, "velocity": 124, "channel": 0}, {"type": "note_off", "time": 1068, "note": 51, "velocity": 124, "channel": 0}, {"type": "note_on", "time": 191, "note": 51, "velocity": 109, "channel": 0}, {"type": "note_off", "time": 4245, "note": 51, "velocity": 109, "channel": 0}, {"type": "note_on", "time": 772, "note": 50, "velocity": 104, "channel": 0}, {"type": "note_off", "time": 779, "note": 50, "velocity": 104, "channel": 0}, {"type": "note_on", "time": 59, "note": 51, "velocity": 106, "channel": 0}, {"type": "note_off", "time": 699, "note": 51, "velocity": 106, "channel": 0}, {"type": "note_on", "time": 219, "note": 53, "velocity": 94, "channel": 0}, {"type": "note_off", "time": 3498, "note": 53, "velocity": 94, "channel": 0}, {"type": "note_on", "time": 4908, "note": 51, "velocity": 92, "channel": 0}, {"type": "note_off", "time": 239, "note": 51, "velocity": 92, "channel": 0}, {"type": "note_on", "time": 109, "note": 52, "velocity": 118, "channel": 0}, {"type": "note_off", "time": 619, "note": 52, "velocity": 118, "channel": 0}, {"type": "note_on", "time": 139, "note": 53, "velocity": 117, "channel": 0}, {"type": "note_off", "time": 759, "note": 53, "velocity": 117, "channel": 0}, {"type": "note_on", "time": 139, "note": 54, "velocity": 108, "channel": 0}, {"type": "note_off", "time": 659, "note": 54, "velocity": 108, "channel": 0}, {"type": "note_on", "time": 259, "note": 55, "velocity": 86, "channel": 0}, {"type": "note_off", "time": 4806, "note": 55, "velocity": 86, "channel": 0}, {"type": "note_on", "time": 1827, "note": 55, "velocity": 105, "channel": 0}, {"type": "note_off", "time": 843, "note": 55, "velocity": 105, "channel": 0}, {"type": "note_on", "time": 210, "note": 54, "velocity": 99, "channel": 0}, {"type": "note_off", "time": 295, "note": 54, "velocity": 99, "channel": 0}, {"type": "note_on", "time": 98, "note": 53, "velocity": 111, "channel": 0}, {"type": "note_off", "time": 281, "note": 53, "velocity": 111, "channel": 0}, {"type": "note_on", "time": 140, "note": 52, "velocity": 112, "channel": 0}, {"type": "note_off", "time": 267, "note": 52, "velocity": 112, "channel": 0}, {"type": "note_on", "time": 168, "note": 51, "velocity": 110, "channel": 0}, {"type": "note_off", "time": 618, "note": 51, "velocity": 110, "channel": 0}, {"type": "note_on", "time": 295, "note": 55, "velocity": 89, "channel": 0}, {"type": "note_off", "time": 3879, "note": 55, "velocity": 89, "channel": 0}, {"type": "note_on", "time": 6379, "note": 54, "velocity": 113, "channel": 0}, {"type": "note_off", "time": 871, "note": 54, "velocity": 113, "channel": 0}, {"type": "note_on", "time": 68, "note": 55, "velocity": 111, "channel": 0}, {"type": "note_off", "time": 590, "note": 55, "velocity": 111, "channel": 0}, {"type": "note_on", "time": 201, "note": 56, "velocity": 111, "channel": 0}, {"type": "note_off", "time": 1743, "note": 56, "velocity": 111, "channel": 0}, {"type": "note_on", "time": 238, "note": 56, "velocity": 112, "channel": 0}, {"type": "note_off", "time": 1208, "note": 56, "velocity": 112, "channel": 0}, {"type": "note_on", "time": 238, "note": 56, "velocity": 101, "channel": 0}, {"type": "note_off", "time": 2881, "note": 56, "velocity": 101, "channel": 0}, {"type": "note_on", "time": 393, "note": 53, "velocity": 111, "channel": 0}, {"type": "note_off", "time": 1096, "note": 53, "velocity": 111, "channel": 0}, {"type": "note_on", "time": 153, "note": 54, "velocity": 110, "channel": 0}, {"type": "note_off", "time": 519, "note": 54, "velocity": 110, "channel": 0}, {"type": "note_on", "time": 79, "note": 55, "velocity": 109, "channel": 0}, {"type": "note_off", "time": 469, "note": 55, "velocity": 109, "channel": 0}, {"type": "note_on", "time": 49, "note": 56, "velocity": 113, "channel": 0}, {"type": "note_off", "time": 659, "note": 56, "velocity": 113, "channel": 0}, {"type": "note_on", "time": 209, "note": 61, "velocity": 105, "channel": 0}, {"type": "note_off", "time": 709, "note": 61, "velocity": 105, "channel": 0}, {"type": "note_on", "time": 549, "note": 53, "velocity": 89, "channel": 0}, {"type": "note_off", "time": 4399, "note": 53, "velocity": 89, "channel": 0}, {"type": "note_on", "time": 4891, "note": 53, "velocity": 119, "channel": 0}, {"type": "note_off", "time": 730, "note": 53, "velocity": 119, "channel": 0}, {"type": "note_on", "time": 84, "note": 54, "velocity": 111, "channel": 0}, {"type": "note_off", "time": 477, "note": 54, "velocity": 111, "channel": 0}, {"type": "note_on", "time": 267, "note": 55, "velocity": 114, "channel": 0}, {"type": "note_off", "time": 702, "note": 55, "velocity": 114, "channel": 0}, {"type": "note_on", "time": 140, "note": 58, "velocity": 117, "channel": 0}, {"type": "note_off", "time": 674, "note": 58, "velocity": 117, "channel": 0}, {"type": "note_on", "time": 126, "note": 57, "velocity": 118, "channel": 0}, {"type": "note_off", "time": 632, "note": 57, "velocity": 118, "channel": 0}, {"type": "note_on", "time": 182, "note": 56, "velocity": 118, "channel": 0}, {"type": "note_off", "time": 604, "note": 56, "velocity": 118, "channel": 0}, {"type": "note_on", "time": 196, "note": 61, "velocity": 104, "channel": 0}, {"type": "note_off", "time": 618, "note": 61, "velocity": 104, "channel": 0}, {"type": "note_on", "time": 548, "note": 52, "velocity": 92, "channel": 0}, {"type": "note_off", "time": 4413, "note": 52, "velocity": 92, "channel": 0}, {"type": "note_on", "time": 4681, "note": 56, "velocity": 114, "channel": 0}, {"type": "note_off", "time": 787, "note": 56, "velocity": 114, "channel": 0}, {"type": "note_on", "time": 188, "note": 58, "velocity": 121, "channel": 0}, {"type": "note_off", "time": 849, "note": 58, "velocity": 121, "channel": 0}, {"type": "note_on", "time": 69, "note": 59, "velocity": 104, "channel": 0}, {"type": "note_off", "time": 339, "note": 59, "velocity": 104, "channel": 0}, {"type": "note_on", "time": 79, "note": 60, "velocity": 83, "channel": 0}, {"type": "note_off", "time": 9256, "note": 60, "velocity": 83, "channel": 0}, {"type": "note_on", "time": 2269, "note": 53, "velocity": 119, "channel": 0}, {"type": "note_off", "time": 709, "note": 53, "velocity": 119, "channel": 0}, {"type": "note_on", "time": 99, "note": 54, "velocity": 105, "channel": 0}, {"type": "note_off", "time": 429, "note": 54, "velocity": 105, "channel": 0}, {"type": "note_on", "time": 139, "note": 56, "velocity": 107, "channel": 0}, {"type": "note_off", "time": 469, "note": 56, "velocity": 107, "channel": 0}, {"type": "note_on", "time": 99, "note": 58, "velocity": 115, "channel": 0}, {"type": "note_off", "time": 639, "note": 58, "velocity": 115, "channel": 0}, {"type": "note_on", "time": 279, "note": 60, "velocity": 117, "channel": 0}, {"type": "note_off", "time": 659, "note": 60, "velocity": 117, "channel": 0}, {"type": "note_on", "time": 249, "note": 61, "velocity": 125, "channel": 0}, {"type": "note_off", "time": 609, "note": 61, "velocity": 125, "channel": 0}, {"type": "note_on", "time": 149, "note": 63, "velocity": 100, "channel": 0}, {"type": "note_off", "time": 679, "note": 63, "velocity": 100, "channel": 0}, {"type": "note_on", "time": 129, "note": 66, "velocity": 100, "channel": 0}, {"type": "note_off", "time": 649, "note": 66, "velocity": 100, "channel": 0}, {"type": "note_on", "time": 189, "note": 64, "velocity": 114, "channel": 0}, {"type": "note_off", "time": 899, "note": 64, "velocity": 114, "channel": 0}, {"type": "note_on", "time": 249, "note": 59, "velocity": 87, "channel": 0}, {"type": "note_off", "time": 699, "note": 59, "velocity": 87, "channel": 0}, {"type": "note_on", "time": 89, "note": 60, "velocity": 97, "channel": 0}, {"type": "note_off", "time": 569, "note": 60, "velocity": 97, "channel": 0}, {"type": "note_on", "time": 219, "note": 63, "velocity": 91, "channel": 0}, {"type": "note_off", "time": 669, "note": 63, "velocity": 91, "channel": 0}, {"type": "note_on", "time": 109, "note": 58, "velocity": 102, "channel": 0}, {"type": "note_off", "time": 599, "note": 58, "velocity": 102, "channel": 0}, {"type": "note_on", "time": 169, "note": 55, "velocity": 100, "channel": 0}, {"type": "note_off", "time": 569, "note": 55, "velocity": 100, "channel": 0}, {"type": "note_on", "time": 79, "note": 56, "velocity": 104, "channel": 0}, {"type": "note_off", "time": 2029, "note": 56, "velocity": 104, "channel": 0}, {"type": "note_on", "time": 1689, "note": 56, "velocity": 89, "channel": 0}, {"type": "note_off", "time": 449, "note": 56, "velocity": 89, "channel": 0}, {"type": "note_on", "time": 39, "note": 54, "velocity": 93, "channel": 0}, {"type": "note_off", "time": 279, "note": 54, "velocity": 93, "channel": 0}, {"type": "note_on", "time": 109, "note": 53, "velocity": 107, "channel": 0}, {"type": "note_off", "time": 299, "note": 53, "velocity": 107, "channel": 0}, {"type": "note_on", "time": 89, "note": 52, "velocity": 111, "channel": 0}, {"type": "note_off", "time": 259, "note": 52, "velocity": 111, "channel": 0}, {"type": "note_on", "time": 179, "note": 51, "velocity": 116, "channel": 0}, {"type": "note_off", "time": 689, "note": 51, "velocity": 116, "channel": 0}, {"type": "note_on", "time": 62, "note": 63, "velocity": 99, "channel": 0}, {"type": "note_off", "time": 509, "note": 63, "velocity": 99, "channel": 0}, {"type": "note_on", "time": 287, "note": 60, "velocity": 101, "channel": 0}, {"type": "note_off", "time": 439, "note": 60, "velocity": 101, "channel": 0}, {"type": "note_on", "time": 279, "note": 58, "velocity": 100, "channel": 0}, {"type": "note_off", "time": 459, "note": 58, "velocity": 100, "channel": 0}, {"type": "note_on", "time": 269, "note": 57, "velocity": 95, "channel": 0}, {"type": "note_off", "time": 419, "note": 57, "velocity": 95, "channel": 0}, {"type": "note_on", "time": 299, "note": 56, "velocity": 106, "channel": 0}, {"type": "note_off", "time": 629, "note": 56, "velocity": 106, "channel": 0}, {"type": "note_on", "time": 239, "note": 55, "velocity": 89, "channel": 0}, {"type": "note_off", "time": 1959, "note": 55, "velocity": 89, "channel": 0}, {"type": "note_on", "time": 429, "note": 53, "velocity": 96, "channel": 0}, {"type": "note_off", "time": 549, "note": 53, "velocity": 96, "channel": 0}, {"type": "note_on", "time": 99, "note": 51, "velocity": 93, "channel": 0}, {"type": "note_off", "time": 539, "note": 51, "velocity": 93, "channel": 0}, {"type": "note_on", "time": 169, "note": 53, "velocity": 104, "channel": 0}, {"type": "note_off", "time": 699, "note": 53, "velocity": 104, "channel": 0}, {"type": "note_on", "time": 199, "note": 51, "velocity": 100, "channel": 0}, {"type": "note_off", "time": 619, "note": 51, "velocity": 100, "channel": 0}, {"type": "note_on", "time": 49, "note": 53, "velocity": 97, "channel": 0}, {"type": "note_off", "time": 969, "note": 53, "velocity": 97, "channel": 0}, {"type": "note_on", "time": 3638, "note": 48, "velocity": 113, "channel": 0}, {"type": "note_off", "time": 889, "note": 48, "velocity": 113, "channel": 0}, {"type": "note_on", "time": 149, "note": 51, "velocity": 111, "channel": 0}, {"type": "note_off", "time": 709, "note": 51, "velocity": 111, "channel": 0}, {"type": "note_on", "time": 129, "note": 53, "velocity": 115, "channel": 0}, {"type": "note_off", "time": 569, "note": 53, "velocity": 115, "channel": 0}, {"type": "note_on", "time": 419, "note": 54, "velocity": 103, "channel": 0}, {"type": "note_off", "time": 669, "note": 54, "velocity": 103, "channel": 0}, {"type": "note_on", "time": 0, "note": 55, "velocity": 95, "channel": 0}, {"type": "note_off", "time": 549, "note": 55, "velocity": 95, "channel": 0}, {"type": "note_on", "time": 69, "note": 51, "velocity": 104, "channel": 0}, {"type": "note_off", "time": 559, "note": 51, "velocity": 104, "channel": 0}, {"type": "note_on", "time": 139, "note": 53, "velocity": 112, "channel": 0}, {"type": "note_off", "time": 519, "note": 53, "velocity": 112, "channel": 0}, {"type": "note_on", "time": 169, "note": 55, "velocity": 97, "channel": 0}, {"type": "note_off", "time": 829, "note": 55, "velocity": 97, "channel": 0}, {"type": "note_on", "time": 209, "note": 51, "velocity": 103, "channel": 0}, {"type": "note_off", "time": 449, "note": 51, "velocity": 103, "channel": 0}, {"type": "note_on", "time": 69, "note": 53, "velocity": 101, "channel": 0}, {"type": "note_off", "time": 549, "note": 53, "velocity": 101, "channel": 0}, {"type": "note_on", "time": 339, "note": 55, "velocity": 90, "channel": 0}, {"type": "note_off", "time": 3038, "note": 55, "velocity": 90, "channel": 0}, {"type": "note_on", "time": 2648, "note": 50, "velocity": 105, "channel": 0}, {"type": "note_off", "time": 369, "note": 50, "velocity": 105, "channel": 0}, {"type": "note_on", "time": 39, "note": 51, "velocity": 107, "channel": 0}, {"type": "note_off", "time": 119, "note": 51, "velocity": 107, "channel": 0}, {"type": "note_on", "time": 89, "note": 53, "velocity": 105, "channel": 0}, {"type": "note_off", "time": 139, "note": 53, "velocity": 105, "channel": 0}, {"type": "note_on", "time": 89, "note": 56, "velocity": 110, "channel": 0}, {"type": "note_off", "time": 209, "note": 56, "velocity": 110, "channel": 0}, {"type": "note_on", "time": 49, "note": 58, "velocity": 106, "channel": 0}, {"type": "note_off", "time": 159, "note": 58, "velocity": 106, "channel": 0}, {"type": "note_on", "time": 169, "note": 61, "velocity": 117, "channel": 0}, {"type": "note_off", "time": 429, "note": 61, "velocity": 117, "channel": 0}, {"type": "note_on", "time": 59, "note": 60, "velocity": 107, "channel": 0}, {"type": "note_off", "time": 599, "note": 60, "velocity": 107, "channel": 0}, {"type": "note_on", "time": 139, "note": 58, "velocity": 100, "channel": 0}, {"type": "note_off", "time": 429, "note": 58, "velocity": 100, "channel": 0}, {"type": "note_on", "time": 109, "note": 56, "velocity": 105, "channel": 0}, {"type": "note_off", "time": 519, "note": 56, "velocity": 105, "channel": 0}, {"type": "note_on", "time": 159, "note": 54, "velocity": 110, "channel": 0}, {"type": "note_off", "time": 739, "note": 54, "velocity": 110, "channel": 0}, {"type": "note_on", "time": 109, "note": 53, "velocity": 118, "channel": 0}, {"type": "note_off", "time": 679, "note": 53, "velocity": 118, "channel": 0}, {"type": "note_on", "time": 309, "note": 55, "velocity": 98, "channel": 0}, {"type": "note_off", "time": 609, "note": 55, "velocity": 98, "channel": 0}, {"type": "note_on", "time": 79, "note": 56, "velocity": 90, "channel": 0}, {"type": "note_off", "time": 4898, "note": 56, "velocity": 90, "channel": 0}, {"type": "note_on", "time": 1329, "note": 54, "velocity": 115, "channel": 0}, {"type": "note_off", "time": 629, "note": 54, "velocity": 115, "channel": 0}, {"type": "note_on", "time": 229, "note": 53, "velocity": 114, "channel": 0}, {"type": "note_off", "time": 599, "note": 53, "velocity": 114, "channel": 0}, {"type": "note_on", "time": 129, "note": 56, "velocity": 116, "channel": 0}, {"type": "note_off", "time": 489, "note": 56, "velocity": 116, "channel": 0}, {"type": "note_on", "time": 189, "note": 61, "velocity": 105, "channel": 0}, {"type": "note_off", "time": 449, "note": 61, "velocity": 105, "channel": 0}, {"type": "note_on", "time": 288, "note": 53, "velocity": 99, "channel": 0}, {"type": "note_off", "time": 2263, "note": 53, "velocity": 99, "channel": 0}, {"type": "note_on", "time": 1787, "note": 51, "velocity": 104, "channel": 0}, {"type": "note_off", "time": 519, "note": 51, "velocity": 104, "channel": 0}, {"type": "note_on", "time": 179, "note": 54, "velocity": 96, "channel": 0}, {"type": "note_off", "time": 539, "note": 54, "velocity": 96, "channel": 0}, {"type": "note_on", "time": 189, "note": 51, "velocity": 105, "channel": 0}, {"type": "note_off", "time": 459, "note": 51, "velocity": 105, "channel": 0}, {"type": "note_on", "time": 69, "note": 52, "velocity": 108, "channel": 0}, {"type": "note_off", "time": 669, "note": 52, "velocity": 108, "channel": 0}, {"type": "note_on", "time": 110, "note": 55, "velocity": 97, "channel": 0}, {"type": "note_off", "time": 484, "note": 55, "velocity": 97, "channel": 0}, {"type": "note_on", "time": 147, "note": 60, "velocity": 100, "channel": 0}, {"type": "note_off", "time": 702, "note": 60, "velocity": 100, "channel": 0}, {"type": "note_on", "time": 231, "note": 58, "velocity": 90, "channel": 0}, {"type": "note_off", "time": 590, "note": 58, "velocity": 90, "channel": 0}, {"type": "note_on", "time": 267, "note": 56, "velocity": 110, "channel": 0}, {"type": "note_off", "time": 1075, "note": 56, "velocity": 110, "channel": 0}, {"type": "note_on", "time": 477, "note": 56, "velocity": 101, "channel": 0}, {"type": "note_off", "time": 3528, "note": 56, "velocity": 101, "channel": 0}, {"type": "note_on", "time": 2479, "note": 56, "velocity": 118, "channel": 0}, {"type": "note_off", "time": 729, "note": 56, "velocity": 118, "channel": 0}, {"type": "note_on", "time": 129, "note": 61, "velocity": 106, "channel": 0}, {"type": "note_off", "time": 479, "note": 61, "velocity": 106, "channel": 0}, {"type": "note_on", "time": 609, "note": 56, "velocity": 104, "channel": 0}, {"type": "note_off", "time": 1169, "note": 56, "velocity": 104, "channel": 0}, {"type": "note_on", "time": 34, "note": 55, "velocity": 93, "channel": 0}, {"type": "note_off", "time": 84, "note": 55, "velocity": 93, "channel": 0}, {"type": "note_on", "time": 34, "note": 54, "velocity": 96, "channel": 0}, {"type": "note_off", "time": 154, "note": 54, "velocity": 96, "channel": 0}, {"type": "note_on", "time": 9, "note": 53, "velocity": 101, "channel": 0}, {"type": "note_off", "time": 269, "note": 53, "velocity": 101, "channel": 0}, {"type": "note_on", "time": 49, "note": 52, "velocity": 101, "channel": 0}, {"type": "note_off", "time": 2299, "note": 52, "velocity": 101, "channel": 0}, {"type": "note_on", "time": 3618, "note": 56, "velocity": 121, "channel": 0}, {"type": "note_off", "time": 879, "note": 56, "velocity": 121, "channel": 0}, {"type": "note_on", "time": 99, "note": 58, "velocity": 116, "channel": 0}, {"type": "note_off", "time": 489, "note": 58, "velocity": 116, "channel": 0}, {"type": "note_on", "time": 39, "note": 59, "velocity": 102, "channel": 0}, {"type": "note_off", "time": 439, "note": 59, "velocity": 102, "channel": 0}, {"type": "note_on", "time": 78, "note": 60, "velocity": 10, "channel": 0}, {"type": "note_off", "time": 6998, "note": 60, "velocity": 10, "channel": 0}, {"type": "note_on", "time": 4108, "note": 54, "velocity": 115, "channel": 0}, {"type": "note_off", "time": 819, "note": 54, "velocity": 115, "channel": 0}, {"type": "note_on", "time": 69, "note": 55, "velocity": 106, "channel": 0}, {"type": "note_off", "time": 1209, "note": 55, "velocity": 106, "channel": 0}, {"type": "note_on", "time": 149, "note": 57, "velocity": 117, "channel": 0}, {"type": "note_off", "time": 299, "note": 57, "velocity": 117, "channel": 0}, {"type": "note_on", "time": 99, "note": 58, "velocity": 115, "channel": 0}, {"type": "note_off", "time": 659, "note": 58, "velocity": 115, "channel": 0}, {"type": "note_on", "time": 129, "note": 60, "velocity": 116, "channel": 0}, {"type": "note_off", "time": 509, "note": 60, "velocity": 116, "channel": 0}, {"type": "note_on", "time": 79, "note": 61, "velocity": 124, "channel": 0}, {"type": "note_off", "time": 659, "note": 61, "velocity": 124, "channel": 0}, {"type": "note_on", "time": 409, "note": 64, "velocity": 127, "channel": 0}, {"type": "note_off", "time": 699, "note": 64, "velocity": 127, "channel": 0}, {"type": "note_on", "time": 169, "note": 67, "velocity": 112, "channel": 0}, {"type": "note_off", "time": 669, "note": 67, "velocity": 112, "channel": 0}, {"type": "note_on", "time": 489, "note": 66, "velocity": 98, "channel": 0}, {"type": "note_off", "time": 179, "note": 66, "velocity": 98, "channel": 0}, {"type": "note_on", "time": 39, "note": 67, "velocity": 109, "channel": 0}, {"type": "note_off", "time": 529, "note": 67, "velocity": 109, "channel": 0}, {"type": "note_on", "time": 419, "note": 66, "velocity": 98, "channel": 0}, {"type": "note_off", "time": 99, "note": 66, "velocity": 98, "channel": 0}, {"type": "note_on", "time": 39, "note": 67, "velocity": 103, "channel": 0}, {"type": "note_off", "time": 649, "note": 67, "velocity": 103, "channel": 0}, {"type": "note_on", "time": 309, "note": 65, "velocity": 107, "channel": 0}, {"type": "note_off", "time": 539, "note": 65, "velocity": 107, "channel": 0}, {"type": "note_on", "time": 199, "note": 60, "velocity": 97, "channel": 0}, {"type": "note_off", "time": 2728, "note": 60, "velocity": 97, "channel": 0}, {"type": "note_on", "time": 2918, "note": 53, "velocity": 118, "channel": 0}, {"type": "note_off", "time": 779, "note": 53, "velocity": 118, "channel": 0}, {"type": "note_on", "time": 219, "note": 56, "velocity": 121, "channel": 0}, {"type": "note_off", "time": 729, "note": 56, "velocity": 121, "channel": 0}, {"type": "note_on", "time": 49, "note": 57, "velocity": 108, "channel": 0}, {"type": "note_off", "time": 399, "note": 57, "velocity": 108, "channel": 0}, {"type": "note_on", "time": 79, "note": 58, "velocity": 115, "channel": 0}, {"type": "note_off", "time": 319, "note": 58, "velocity": 115, "channel": 0}, {"type": "note_on", "time": 169, "note": 59, "velocity": 108, "channel": 0}, {"type": "note_off", "time": 799, "note": 59, "velocity": 108, "channel": 0}, {"type": "note_on", "time": 399, "note": 63, "velocity": 106, "channel": 0}, {"type": "note_off", "time": 609, "note": 63, "velocity": 106, "channel": 0}, {"type": "note_on", "time": 129, "note": 61, "velocity": 115, "channel": 0}, {"type": "note_off", "time": 669, "note": 61, "velocity": 115, "channel": 0}, {"type": "note_on", "time": 265, "note": 53, "velocity": 102, "channel": 0}, {"type": "note_off", "time": 2066, "note": 53, "velocity": 102, "channel": 0}, {"type": "note_on", "time": 1866, "note": 53, "velocity": 119, "channel": 0}, {"type": "note_off", "time": 629, "note": 53, "velocity": 119, "channel": 0}, {"type": "note_on", "time": 259, "note": 56, "velocity": 116, "channel": 0}, {"type": "note_off", "time": 569, "note": 56, "velocity": 116, "channel": 0}, {"type": "note_on", "time": 69, "note": 63, "velocity": 88, "channel": 0}, {"type": "note_off", "time": 439, "note": 63, "velocity": 88, "channel": 0}, {"type": "note_on", "time": 119, "note": 61, "velocity": 107, "channel": 0}, {"type": "note_off", "time": 599, "note": 61, "velocity": 107, "channel": 0}, {"type": "note_on", "time": 249, "note": 56, "velocity": 114, "channel": 0}, {"type": "note_off", "time": 519, "note": 56, "velocity": 114, "channel": 0}, {"type": "note_on", "time": 269, "note": 58, "velocity": 100, "channel": 0}, {"type": "note_off", "time": 379, "note": 58, "velocity": 100, "channel": 0}, {"type": "note_on", "time": 129, "note": 59, "velocity": 100, "channel": 0}, {"type": "note_off", "time": 109, "note": 59, "velocity": 100, "channel": 0}, {"type": "note_on", "time": 49, "note": 60, "velocity": 94, "channel": 0}, {"type": "note_off", "time": 569, "note": 60, "velocity": 94, "channel": 0}, {"type": "note_on", "time": 349, "note": 59, "velocity": 85, "channel": 0}, {"type": "note_off", "time": 119, "note": 59, "velocity": 85, "channel": 0}, {"type": "note_on", "time": 19, "note": 60, "velocity": 90, "channel": 0}, {"type": "note_off", "time": 549, "note": 60, "velocity": 90, "channel": 0}, {"type": "note_on", "time": 519, "note": 60, "velocity": 86, "channel": 0}, {"type": "note_off", "time": 4138, "note": 60, "velocity": 86, "channel": 0}, {"type": "note_on", "time": 4012, "note": 54, "velocity": 114, "channel": 0}, {"type": "note_off", "time": 702, "note": 54, "velocity": 114, "channel": 0}, {"type": "note_on", "time": 112, "note": 55, "velocity": 105, "channel": 0}, {"type": "note_off", "time": 492, "note": 55, "velocity": 105, "channel": 0}, {"type": "note_on", "time": 126, "note": 58, "velocity": 110, "channel": 0}, {"type": "note_off", "time": 660, "note": 58, "velocity": 110, "channel": 0}, {"type": "note_on", "time": 182, "note": 55, "velocity": 101, "channel": 0}, {"type": "note_off", "time": 449, "note": 55, "velocity": 101, "channel": 0}, {"type": "note_on", "time": 112, "note": 61, "velocity": 117, "channel": 0}, {"type": "note_off", "time": 646, "note": 61, "velocity": 117, "channel": 0}, {"type": "note_on", "time": 210, "note": 58, "velocity": 110, "channel": 0}, {"type": "note_off", "time": 534, "note": 58, "velocity": 110, "channel": 0}, {"type": "note_on", "time": 253, "note": 63, "velocity": 113, "channel": 0}, {"type": "note_off", "time": 435, "note": 63, "velocity": 113, "channel": 0}, {"type": "note_on", "time": 56, "note": 64, "velocity": 111, "channel": 0}, {"type": "note_off", "time": 4146, "note": 64, "velocity": 111, "channel": 0}, {"type": "note_on", "time": 407, "note": 67, "velocity": 109, "channel": 0}, {"type": "note_off", "time": 351, "note": 67, "velocity": 109, "channel": 0}, {"type": "note_on", "time": 224, "note": 65, "velocity": 113, "channel": 0}, {"type": "note_off", "time": 407, "note": 65, "velocity": 113, "channel": 0}, {"type": "note_on", "time": 154, "note": 60, "velocity": 109, "channel": 0}, {"type": "note_off", "time": 463, "note": 60, "velocity": 109, "channel": 0}, {"type": "note_on", "time": 351, "note": 56, "velocity": 107, "channel": 0}, {"type": "note_off", "time": 1096, "note": 56, "velocity": 107, "channel": 0}, {"type": "note_on", "time": 154, "note": 60, "velocity": 81, "channel": 0}, {"type": "note_off", "time": 2670, "note": 60, "velocity": 81, "channel": 0}, {"type": "note_on", "time": 2206, "note": 59, "velocity": 103, "channel": 0}, {"type": "note_off", "time": 885, "note": 59, "velocity": 103, "channel": 0}, {"type": "note_on", "time": 70, "note": 60, "velocity": 119, "channel": 0}, {"type": "note_off", "time": 913, "note": 60, "velocity": 119, "channel": 0}, {"type": "note_on", "time": 154, "note": 66, "velocity": 112, "channel": 0}, {"type": "note_off", "time": 477, "note": 66, "velocity": 112, "channel": 0}, {"type": "note_on", "time": 28, "note": 67, "velocity": 104, "channel": 0}, {"type": "note_off", "time": 1026, "note": 67, "velocity": 104, "channel": 0}, {"type": "note_on", "time": 196, "note": 65, "velocity": 95, "channel": 0}, {"type": "note_off", "time": 2923, "note": 65, "velocity": 95, "channel": 0}, {"type": "note_on", "time": 2445, "note": 65, "velocity": 113, "channel": 0}, {"type": "note_off", "time": 730, "note": 65, "velocity": 113, "channel": 0}, {"type": "note_on", "time": 168, "note": 61, "velocity": 110, "channel": 0}, {"type": "note_off", "time": 674, "note": 61, "velocity": 110, "channel": 0}, {"type": "note_on", "time": 281, "note": 53, "velocity": 114, "channel": 0}, {"type": "note_off", "time": 660, "note": 53, "velocity": 114, "channel": 0}, {"type": "note_on", "time": 267, "note": 56, "velocity": 113, "channel": 0}, {"type": "note_off", "time": 604, "note": 56, "velocity": 113, "channel": 0}, {"type": "note_on", "time": 112, "note": 58, "velocity": 96, "channel": 0}, {"type": "note_off", "time": 2164, "note": 58, "velocity": 96, "channel": 0}, {"type": "note_on", "time": 2820, "note": 67, "velocity": 113, "channel": 0}, {"type": "note_off", "time": 319, "note": 67, "velocity": 113, "channel": 0}, {"type": "note_on", "time": 49, "note": 68, "velocity": 113, "channel": 0}, {"type": "note_off", "time": 209, "note": 68, "velocity": 113, "channel": 0}, {"type": "note_on", "time": 79, "note": 67, "velocity": 112, "channel": 0}, {"type": "note_off", "time": 249, "note": 67, "velocity": 112, "channel": 0}, {"type": "note_on", "time": 39, "note": 65, "velocity": 116, "channel": 0}, {"type": "note_off", "time": 399, "note": 65, "velocity": 116, "channel": 0}, {"type": "note_on", "time": 79, "note": 67, "velocity": 118, "channel": 0}, {"type": "note_off", "time": 689, "note": 67, "velocity": 118, "channel": 0}, {"type": "note_on", "time": 129, "note": 65, "velocity": 119, "channel": 0}, {"type": "note_off", "time": 559, "note": 65, "velocity": 119, "channel": 0}, {"type": "note_on", "time": 109, "note": 62, "velocity": 121, "channel": 0}, {"type": "note_off", "time": 789, "note": 62, "velocity": 121, "channel": 0}, {"type": "note_on", "time": 149, "note": 61, "velocity": 118, "channel": 0}, {"type": "note_off", "time": 709, "note": 61, "velocity": 118, "channel": 0}, {"type": "note_on", "time": 59, "note": 63, "velocity": 99, "channel": 0}, {"type": "note_off", "time": 679, "note": 63, "velocity": 99, "channel": 0}, {"type": "note_on", "time": 80, "note": 60, "velocity": 95, "channel": 0}, {"type": "note_off", "time": 2539, "note": 60, "velocity": 95, "channel": 0}, {"type": "note_on", "time": 1738, "note": 53, "velocity": 109, "channel": 0}, {"type": "note_off", "time": 419, "note": 53, "velocity": 109, "channel": 0}, {"type": "note_on", "time": 59, "note": 55, "velocity": 103, "channel": 0}, {"type": "note_off", "time": 319, "note": 55, "velocity": 103, "channel": 0}, {"type": "note_on", "time": 29, "note": 56, "velocity": 109, "channel": 0}, {"type": "note_off", "time": 349, "note": 56, "velocity": 109, "channel": 0}, {"type": "note_on", "time": 81, "note": 59, "velocity": 105, "channel": 0}, {"type": "note_off", "time": 829, "note": 59, "velocity": 105, "channel": 0}, {"type": "note_on", "time": 88, "note": 61, "velocity": 123, "channel": 0}, {"type": "note_off", "time": 559, "note": 61, "velocity": 123, "channel": 0}, {"type": "note_on", "time": 293, "note": 59, "velocity": 97, "channel": 0}, {"type": "note_off", "time": 229, "note": 59, "velocity": 97, "channel": 0}, {"type": "note_on", "time": 146, "note": 61, "velocity": 115, "channel": 0}, {"type": "note_off", "time": 759, "note": 61, "velocity": 115, "channel": 0}, {"type": "note_on", "time": 289, "note": 59, "velocity": 95, "channel": 0}, {"type": "note_off", "time": 729, "note": 59, "velocity": 95, "channel": 0}, {"type": "note_on", "time": 39, "note": 60, "velocity": 96, "channel": 0}, {"type": "note_off", "time": 669, "note": 60, "velocity": 96, "channel": 0}, {"type": "note_on", "time": 39, "note": 63, "velocity": 99, "channel": 0}, {"type": "note_off", "time": 359, "note": 63, "velocity": 99, "channel": 0}, {"type": "note_on", "time": 279, "note": 58, "velocity": 106, "channel": 0}, {"type": "note_off", "time": 489, "note": 58, "velocity": 106, "channel": 0}, {"type": "note_on", "time": 99, "note": 56, "velocity": 107, "channel": 0}, {"type": "note_off", "time": 709, "note": 56, "velocity": 107, "channel": 0}, {"type": "note_on", "time": 289, "note": 51, "velocity": 96, "channel": 0}, {"type": "note_off", "time": 4338, "note": 51, "velocity": 96, "channel": 0}, {"type": "note_on", "time": 379, "note": 52, "velocity": 118, "channel": 0}, {"type": "note_off", "time": 739, "note": 52, "velocity": 118, "channel": 0}, {"type": "note_on", "time": 59, "note": 53, "velocity": 93, "channel": 0}, {"type": "note_off", "time": 4478, "note": 53, "velocity": 93, "channel": 0}, {"type": "note_on", "time": 3968, "note": 52, "velocity": 122, "channel": 0}, {"type": "note_off", "time": 599, "note": 52, "velocity": 122, "channel": 0}, {"type": "note_on", "time": 59, "note": 53, "velocity": 115, "channel": 0}, {"type": "note_off", "time": 739, "note": 53, "velocity": 115, "channel": 0}, {"type": "note_on", "time": 79, "note": 54, "velocity": 107, "channel": 0}, {"type": "note_off", "time": 599, "note": 54, "velocity": 107, "channel": 0}, {"type": "note_on", "time": 79, "note": 55, "velocity": 98, "channel": 0}, {"type": "note_off", "time": 2738, "note": 55, "velocity": 98, "channel": 0}, {"type": "note_on", "time": 2908, "note": 48, "velocity": 104, "channel": 0}, {"type": "note_off", "time": 689, "note": 48, "velocity": 104, "channel": 0}, {"type": "note_on", "time": 149, "note": 51, "velocity": 109, "channel": 0}, {"type": "note_off", "time": 679, "note": 51, "velocity": 109, "channel": 0}, {"type": "note_on", "time": 209, "note": 55, "velocity": 104, "channel": 0}, {"type": "note_off", "time": 1039, "note": 55, "velocity": 104, "channel": 0}, {"type": "note_on", "time": 209, "note": 58, "velocity": 101, "channel": 0}, {"type": "note_off", "time": 849, "note": 58, "velocity": 101, "channel": 0}, {"type": "note_on", "time": 89, "note": 56, "velocity": 103, "channel": 0}, {"type": "note_off", "time": 1789, "note": 56, "velocity": 103, "channel": 0}, {"type": "note_on", "time": 4668, "note": 56, "velocity": 114, "channel": 0}, {"type": "note_off", "time": 919, "note": 56, "velocity": 114, "channel": 0}, {"type": "note_on", "time": 59, "note": 57, "velocity": 113, "channel": 0}, {"type": "note_off", "time": 569, "note": 57, "velocity": 113, "channel": 0}, {"type": "note_on", "time": 59, "note": 58, "velocity": 113, "channel": 0}, {"type": "note_off", "time": 479, "note": 58, "velocity": 113, "channel": 0}, {"type": "note_on", "time": 79, "note": 60, "velocity": 108, "channel": 0}, {"type": "note_off", "time": 649, "note": 60, "velocity": 108, "channel": 0}, {"type": "note_on", "time": 139, "note": 63, "velocity": 104, "channel": 0}, {"type": "note_off", "time": 659, "note": 63, "velocity": 104, "channel": 0}, {"type": "note_on", "time": 139, "note": 61, "velocity": 119, "channel": 0}, {"type": "note_off", "time": 609, "note": 61, "velocity": 119, "channel": 0}, {"type": "note_on", "time": 197, "note": 58, "velocity": 97, "channel": 0}, {"type": "note_off", "time": 3627, "note": 58, "velocity": 97, "channel": 0}, {"type": "note_on", "time": 3358, "note": 57, "velocity": 116, "channel": 0}, {"type": "note_off", "time": 843, "note": 57, "velocity": 116, "channel": 0}, {"type": "note_on", "time": 169, "note": 58, "velocity": 117, "channel": 0}, {"type": "note_off", "time": 809, "note": 58, "velocity": 117, "channel": 0}, {"type": "note_on", "time": 89, "note": 59, "velocity": 111, "channel": 0}, {"type": "note_off", "time": 1239, "note": 59, "velocity": 111, "channel": 0}, {"type": "note_on", "time": 169, "note": 60, "velocity": 106, "channel": 0}, {"type": "note_off", "time": 2958, "note": 60, "velocity": 106, "channel": 0}, {"type": "note_on", "time": 58, "note": 61, "velocity": 121, "channel": 0}, {"type": "note_off", "time": 281, "note": 61, "velocity": 121, "channel": 0}, {"type": "note_on", "time": 56, "note": 62, "velocity": 120, "channel": 0}, {"type": "note_off", "time": 379, "note": 62, "velocity": 120, "channel": 0}, {"type": "note_on", "time": 168, "note": 63, "velocity": 98, "channel": 0}, {"type": "note_off", "time": 590, "note": 63, "velocity": 98, "channel": 0}, {"type": "note_on", "time": 1658, "note": 53, "velocity": 108, "channel": 0}, {"type": "note_off", "time": 421, "note": 53, "velocity": 108, "channel": 0}, {"type": "note_on", "time": 182, "note": 54, "velocity": 104, "channel": 0}, {"type": "note_off", "time": 477, "note": 54, "velocity": 104, "channel": 0}, {"type": "note_on", "time": 196, "note": 57, "velocity": 110, "channel": 0}, {"type": "note_off", "time": 463, "note": 57, "velocity": 110, "channel": 0}, {"type": "note_on", "time": 224, "note": 60, "velocity": 116, "channel": 0}, {"type": "note_off", "time": 562, "note": 60, "velocity": 116, "channel": 0}, {"type": "note_on", "time": 196, "note": 63, "velocity": 104, "channel": 0}, {"type": "note_off", "time": 548, "note": 63, "velocity": 104, "channel": 0}, {"type": "note_on", "time": 140, "note": 61, "velocity": 103, "channel": 0}, {"type": "note_off", "time": 2881, "note": 61, "velocity": 103, "channel": 0}, {"type": "note_on", "time": 3022, "note": 60, "velocity": 117, "channel": 0}, {"type": "note_off", "time": 815, "note": 60, "velocity": 117, "channel": 0}, {"type": "note_on", "time": 238, "note": 58, "velocity": 102, "channel": 0}, {"type": "note_off", "time": 843, "note": 58, "velocity": 102, "channel": 0}, {"type": "note_on", "time": 295, "note": 64, "velocity": 125, "channel": 0}, {"type": "note_off", "time": 520, "note": 64, "velocity": 125, "channel": 0}, {"type": "note_on", "time": 70, "note": 65, "velocity": 118, "channel": 0}, {"type": "note_off", "time": 604, "note": 65, "velocity": 118, "channel": 0}, {"type": "note_on", "time": 98, "note": 61, "velocity": 114, "channel": 0}, {"type": "note_off", "time": 576, "note": 61, "velocity": 114, "channel": 0}, {"type": "note_on", "time": 248, "note": 60, "velocity": 103, "channel": 0}, {"type": "note_off", "time": 249, "note": 60, "velocity": 103, "channel": 0}, {"type": "note_on", "time": 109, "note": 58, "velocity": 97, "channel": 0}, {"type": "note_off", "time": 459, "note": 58, "velocity": 97, "channel": 0}, {"type": "note_on", "time": 119, "note": 63, "velocity": 88, "channel": 0}, {"type": "note_off", "time": 3248, "note": 63, "velocity": 88, "channel": 0}, {"type": "note_on", "time": 999, "note": 54, "velocity": 89, "channel": 0}, {"type": "note_off", "time": 379, "note": 54, "velocity": 89, "channel": 0}, {"type": "note_on", "time": 59, "note": 55, "velocity": 105, "channel": 0}, {"type": "note_off", "time": 119, "note": 55, "velocity": 105, "channel": 0}, {"type": "note_on", "time": 69, "note": 56, "velocity": 117, "channel": 0}, {"type": "note_off", "time": 59, "note": 56, "velocity": 117, "channel": 0}, {"type": "note_on", "time": 79, "note": 57, "velocity": 118, "channel": 0}, {"type": "note_off", "time": 549, "note": 57, "velocity": 118, "channel": 0}, {"type": "note_on", "time": 159, "note": 60, "velocity": 108, "channel": 0}, {"type": "note_off", "time": 339, "note": 60, "velocity": 108, "channel": 0}, {"type": "note_on", "time": 189, "note": 63, "velocity": 96, "channel": 0}, {"type": "note_off", "time": 489, "note": 63, "velocity": 96, "channel": 0}, {"type": "note_on", "time": 139, "note": 65, "velocity": 116, "channel": 0}, {"type": "note_off", "time": 629, "note": 65, "velocity": 116, "channel": 0}, {"type": "note_on", "time": 69, "note": 66, "velocity": 117, "channel": 0}, {"type": "note_off", "time": 689, "note": 66, "velocity": 117, "channel": 0}, {"type": "note_on", "time": 149, "note": 64, "velocity": 115, "channel": 0}, {"type": "note_off", "time": 709, "note": 64, "velocity": 115, "channel": 0}, {"type": "note_on", "time": 119, "note": 65, "velocity": 92, "channel": 0}, {"type": "note_off", "time": 4678, "note": 65, "velocity": 92, "channel": 0}, {"type": "note_on", "time": 2943, "note": 56, "velocity": 110, "channel": 0}, {"type": "note_off", "time": 379, "note": 56, "velocity": 110, "channel": 0}, {"type": "note_on", "time": 25, "note": 57, "velocity": 113, "channel": 0}, {"type": "note_off", "time": 309, "note": 57, "velocity": 113, "channel": 0}, {"type": "note_on", "time": 14, "note": 58, "velocity": 108, "channel": 0}, {"type": "note_off", "time": 562, "note": 58, "velocity": 108, "channel": 0}, {"type": "note_on", "time": 196, "note": 61, "velocity": 120, "channel": 0}, {"type": "note_off", "time": 562, "note": 61, "velocity": 120, "channel": 0}, {"type": "note_on", "time": 74, "note": 65, "velocity": 115, "channel": 0}, {"type": "note_off", "time": 659, "note": 65, "velocity": 115, "channel": 0}, {"type": "note_on", "time": 179, "note": 53, "velocity": 103, "channel": 0}, {"type": "note_off", "time": 2192, "note": 53, "velocity": 103, "channel": 0}, {"type": "note_on", "time": 295, "note": 54, "velocity": 106, "channel": 0}, {"type": "note_off", "time": 674, "note": 54, "velocity": 106, "channel": 0}, {"type": "note_on", "time": 98, "note": 55, "velocity": 112, "channel": 0}, {"type": "note_off", "time": 787, "note": 55, "velocity": 112, "channel": 0}, {"type": "note_on", "time": 84, "note": 63, "velocity": 77, "channel": 0}, {"type": "note_off", "time": 1012, "note": 63, "velocity": 77, "channel": 0}, {"type": "note_on", "time": 853, "note": 60, "velocity": 87, "channel": 0}, {"type": "note_off", "time": 1068, "note": 60, "velocity": 87, "channel": 0}, {"type": "note_on", "time": 636, "note": 51, "velocity": 87, "channel": 0}, {"type": "note_off", "time": 716, "note": 51, "velocity": 87, "channel": 0}, {"type": "note_on", "time": 457, "note": 56, "velocity": 10, "channel": 0}, {"type": "note_off", "time": 10515, "note": 56, "velocity": 10, "channel": 0}, {"type": "note_on", "time": 3158, "note": 56, "velocity": 105, "channel": 0}, {"type": "note_off", "time": 1139, "note": 56, "velocity": 105, "channel": 0}, {"type": "note_on", "time": 199, "note": 53, "velocity": 116, "channel": 0}, {"type": "note_off", "time": 839, "note": 53, "velocity": 116, "channel": 0}, {"type": "note_on", "time": 299, "note": 52, "velocity": 112, "channel": 0}, {"type": "note_off", "time": 699, "note": 52, "velocity": 112, "channel": 0}, {"type": "note_on", "time": 159, "note": 51, "velocity": 106, "channel": 0}, {"type": "note_off", "time": 1059, "note": 51, "velocity": 106, "channel": 0}, {"type": "note_on", "time": 259, "note": 49, "velocity": 107, "channel": 0}, {"type": "note_off", "time": 979, "note": 49, "velocity": 107, "channel": 0}, {"type": "note_on", "time": 139, "note": 48, "velocity": 103, "channel": 0}, {"type": "note_off", "time": 2778, "note": 48, "velocity": 103, "channel": 0}, {"type": "end_of_track", "time": 0}]]}