{"ticks_per_beat": 192, "tracks": [[{"type": "track_name", "name": "Melody", "time": 0}, {"type": "set_tempo", "tempo": 451127, "time": 0}, {"type": "key_signature", "key": "Eb", "time": 0}, {"type": "time_signature", "numerator": 4, "denominator": 4, "clocks_per_click": 24, "notated_32nd_notes_per_beat": 8, "time": 0}, {"type": "note_on", "time": 2397, "note": 70, "velocity": 104, "channel": 0}, {"type": "note_off", "time": 172, "note": 70, "velocity": 104, "channel": 0}, {"type": "note_on", "time": 36, "note": 67, "velocity": 103, "channel": 0}, {"type": "note_off", "time": 69, "note": 67, "velocity": 103, "channel": 0}, {"type": "note_on", "time": 14, "note": 72, "velocity": 117, "channel": 0}, {"type": "note_off", "time": 55, "note": 72, "velocity": 117, "channel": 0}, {"type": "note_on", "time": 44, "note": 75, "velocity": 114, "channel": 0}, {"type": "note_off", "time": 75, "note": 75, "velocity": 114, "channel": 0}, {"type": "note_on", "time": 23, "note": 68, "velocity": 106, "channel": 0}, {"type": "note_off", "time": 74, "note": 68, "velocity": 106, "channel": 0}, {"type": "note_on", "time": 25, "note": 67, "velocity": 106, "channel": 0}, {"type": "note_off", "time": 66, "note": 67, "velocity": 106, "channel": 0}, {"type": "note_on", "time": 8, "note": 65, "velocity": 97, "channel": 0}, {"type": "note_off", "time": 275, "note": 65, "velocity": 97, "channel": 0}, {"type": "note_on", "time": 109, "note": 67, "velocity": 112, "channel": 0}, {"type": "note_off", "time": 82, "note": 67, "velocity": 112, "channel": 0}, {"type": "note_on", "time": 30, "note": 72, "velocity": 111, "channel": 0}, {"type": "note_off", "time": 51, "note": 72, "velocity": 111, "channel": 0}, {"type": "note_on", "time": 35, "note": 68, "velocity": 108, "channel": 0}, {"type": "note_off", "time": 86, "note": 68, "velocity": 108, "channel": 0}, {"type": "note_on", "time": 22, "note": 67, "velocity": 102, "channel": 0}, {"type": "note_off", "time": 78, "note": 67, "velocity": 102, "channel": 0}, {"type": "note_on", "time": 6, "note": 66, "velocity": 86, "channel": 0}, {"type": "note_off", "time": 142, "note": 66, "velocity": 86, "channel": 0}, {"type": "note_on", "time": 159, "note": 70, "velocity": 116, "channel": 0}, {"type": "note_off", "time": 68, "note": 70, "velocity": 116, "channel": 0}, {"type": "note_on", "time": 24, "note": 67, "velocity": 102, "channel": 0}, {"type": "note_off", "time": 58, "note": 67, "velocity": 102, "channel": 0}, {"type": "note_on", "time": 38, "note": 75, "velocity": 113, "channel": 0}, {"type": "note_off", "time": 63, "note": 75, "velocity": 113, "channel": 0}, {"type": "note_on", "time": 23, "note": 70, "velocity": 108, "channel": 0}, {"type": "note_off", "time": 89, "note": 70, "velocity": 108, "channel": 0}, {"type": "note_on", "time": 9, "note": 71, "velocity": 106, "channel": 0}, {"type": "note_off", "time": 73, "note": 71, "velocity": 106, "channel": 0}, {"type": "note_on", "time": 6, "note": 72, "velocity": 113, "channel": 0}, {"type": "note_off", "time": 70, "note": 72, "velocity": 113, "channel": 0}, {"type": "note_on", "time": 129, "note": 68, "velocity": 103, "channel": 0}, {"type": "note_off", "time": 72, "note": 68, "velocity": 103, "channel": 0}, {"type": "note_on", "time": 31, "note": 66, "velocity": 95, "channel": 0}, {"type": "note_off", "time": 64, "note": 66, "velocity": 95, "channel": 0}, {"type": "note_on", "time": 26, "note": 67, "velocity": 82, "channel": 0}, {"type": "note_off", "time": 303, "note": 67, "velocity": 82, "channel": 0}, {"type": "note_on", "time": 237, "note": 71, "velocity": 127, "channel": 0}, {"type": "note_off", "time": 38, "note": 71, "velocity": 127, "channel": 0}, {"type": "note_on", "time": 3, "note": 72, "velocity": 124, "channel": 0}, {"type": "note_off", "time": 43, "note": 72, "velocity": 124, "channel": 0}, {"type": "note_on", "time": 65, "note": 68, "velocity": 114, "channel": 0}, {"type": "note_off", "time": 62, "note": 68, "velocity": 114, "channel": 0}, {"type": "note_on", "time": 19, "note": 72, "velocity": 113, "channel": 0}, {"type": "note_off", "time": 112, "note": 72, "velocity": 113, "channel": 0}, {"type": "note_on", "time": 71, "note": 65, "velocity": 89, "channel": 0}, {"type": "note_off", "time": 285, "note": 65, "velocity": 89, "channel": 0}, {"type": "note_on", "time": 26, "note": 64, "velocity": 109, "channel": 0}, {"type": "note_off", "time": 65, "note": 64, "velocity": 109, "channel": 0}, {"type": "note_on", "time": 14, "note": 63, "velocity": 103, "channel": 0}, {"type": "note_off", "time": 72, "note": 63, "velocity": 103, "channel": 0}, {"type": "note_on", "time": 32, "note": 58, "velocity": 86, "channel": 0}, {"type": "note_off", "time": 66, "note": 58, "velocity": 86, "channel": 0}, {"type": "note_on", "time": 3, "note": 62, "velocity": 85, "channel": 0}, {"type": "note_off", "time": 175, "note": 62, "velocity": 85, "channel": 0}, {"type": "note_on", "time": 16, "note": 72, "velocity": 119, "channel": 0}, {"type": "note_off", "time": 95, "note": 72, "velocity": 119, "channel": 0}, {"type": "note_on", "time": 16, "note": 68, "velocity": 110, "channel": 0}, {"type": "note_off", "time": 66, "note": 68, "velocity": 110, "channel": 0}, {"type": "note_on", "time": 12, "note": 65, "velocity": 103, "channel": 0}, {"type": "note_off", "time": 86, "note": 65, "velocity": 103, "channel": 0}, {"type": "note_on", "time": 20, "note": 70, "velocity": 119, "channel": 0}, {"type": "note_off", "time": 83, "note": 70, "velocity": 119, "channel": 0}, {"type": "note_on", "time": 20, "note": 66, "velocity": 103, "channel": 0}, {"type": "note_off", "time": 86, "note": 66, "velocity": 103, "channel": 0}, {"type": "note_on", "time": 97, "note": 67, "velocity": 83, "channel": 0}, {"type": "note_off", "time": 204, "note": 67, "velocity": 83, "channel": 0}, {"type": "note_on", "time": 75, "note": 66, "velocity": 93, "channel": 0}, {"type": "note_off", "time": 69, "note": 66, "velocity": 93, "channel": 0}, {"type": "note_on", "time": 8, "note": 70, "velocity": 104, "channel": 0}, {"type": "note_off", "time": 62, "note": 70, "velocity": 104, "channel": 0}, {"type": "note_on", "time": 39, "note": 75, "velocity": 110, "channel": 0}, {"type": "note_off", "time": 69, "note": 75, "velocity": 110, "channel": 0}, {"type": "note_on", "time": 28, "note": 72, "velocity": 108, "channel": 0}, {"type": "note_off", "time": 76, "note": 72, "velocity": 108, "channel": 0}, {"type": "note_on", "time": 17, "note": 67, "velocity": 104, "channel": 0}, {"type": "note_off", "time": 69, "note": 67, "velocity": 104, "channel": 0}, {"type": "note_on", "time": 10, "note": 70, "velocity": 88, "channel": 0}, {"type": "note_off", "time": 201, "note": 70, "velocity": 88, "channel": 0}, {"type": "note_on", "time": 274, "note": 66, "velocity": 108, "channel": 0}, {"type": "note_off", "time": 93, "note": 66, "velocity": 108, "channel": 0}, {"type": "note_on", "time": 93, "note": 66, "velocity": 92, "channel": 0}, {"type": "note_off", "time": 69, "note": 66, "velocity": 92, "channel": 0}, {"type": "note_on", "time": 5, "note": 74, "velocity": 107, "channel": 0}, {"type": "note_off", "time": 311, "note": 74, "velocity": 107, "channel": 0}, {"type": "note_on", "time": 39, "note": 70, "velocity": 105, "channel": 0}, {"type": "note_off", "time": 229, "note": 70, "velocity": 105, "channel": 0}, {"type": "note_on", "time": 6, "note": 71, "velocity": 101, "channel": 0}, {"type": "note_off", "time": 99, "note": 71, "velocity": 101, "channel": 0}, {"type": "note_on", "time": 31, "note": 69, "velocity": 96, "channel": 0}, {"type": "note_off", "time": 277, "note": 69, "velocity": 96, "channel": 0}, {"type": "note_on", "time": 104, "note": 65, "velocity": 101, "channel": 0}, {"type": "note_off", "time": 284, "note": 65, "velocity": 101, "channel": 0}, {"type": "note_on", "time": 15, "note": 62, "velocity": 90, "channel": 0}, {"type": "note_off", "time": 222, "note": 62, "velocity": 90, "channel": 0}, {"type": "note_on", "time": 319, "note": 73, "velocity": 117, "channel": 0}, {"type": "note_off", "time": 78, "note": 73, "velocity": 117, "channel": 0}, {"type": "note_on", "time": 3, "note": 74, "velocity": 121, "channel": 0}, {"type": "note_off", "time": 69, "note": 74, "velocity": 121, "channel": 0}, {"type": "note_on", "time": 34, "note": 69, "velocity": 115, "channel": 0}, {"type": "note_off", "time": 69, "note": 69, "velocity": 115, "channel": 0}, {"type": "note_on", "time": 6, "note": 70, "velocity": 117, "channel": 0}, {"type": "note_off", "time": 88, "note": 70, "velocity": 117, "channel": 0}, {"type": "note_on", "time": 10, "note": 71, "velocity": 113, "channel": 0}, {"type": "note_off", "time": 67, "note": 71, "velocity": 113, "channel": 0}, {"type": "note_on", "time": 7, "note": 72, "velocity": 124, "channel": 0}, {"type": "note_off", "time": 84, "note": 72, "velocity": 124, "channel": 0}, {"type": "note_on", "time": 23, "note": 69, "velocity": 117, "channel": 0}, {"type": "note_off", "time": 66, "note": 69, "velocity": 117, "channel": 0}, {"type": "note_on", "time": 24, "note": 70, "velocity": 99, "channel": 0}, {"type": "note_off", "time": 138, "note": 70, "velocity": 99, "channel": 0}, {"type": "note_on", "time": 44, "note": 67, "velocity": 106, "channel": 0}, {"type": "note_off", "time": 75, "note": 67, "velocity": 106, "channel": 0}, {"type": "note_on", "time": 19, "note": 63, "velocity": 102, "channel": 0}, {"type": "note_off", "time": 79, "note": 63, "velocity": 102, "channel": 0}, {"type": "note_on", "time": 8, "note": 62, "velocity": 91, "channel": 0}, {"type": "note_off", "time": 294, "note": 62, "velocity": 91, "channel": 0}, {"type": "note_on", "time": 9, "note": 65, "velocity": 94, "channel": 0}, {"type": "note_off", "time": 272, "note": 65, "velocity": 94, "channel": 0}, {"type": "note_on", "time": 173, "note": 67, "velocity": 105, "channel": 0}, {"type": "note_off", "time": 99, "note": 67, "velocity": 105, "channel": 0}, {"type": "note_on", "time": 89, "note": 70, "velocity": 118, "channel": 0}, {"type": "note_off", "time": 100, "note": 70, "velocity": 118, "channel": 0}, {"type": "note_on", "time": 26, "note": 67, "velocity": 100, "channel": 0}, {"type": "note_off", "time": 64, "note": 67, "velocity": 100, "channel": 0}, {"type": "note_on", "time": 10, "note": 63, "velocity": 82, "channel": 0}, {"type": "note_off", "time": 177, "note": 63, "velocity": 82, "channel": 0}, {"type": "note_on", "time": 286, "note": 74, "velocity": 111, "channel": 0}, {"type": "note_off", "time": 51, "note": 74, "velocity": 111, "channel": 0}, {"type": "note_on", "time": 4, "note": 72, "velocity": 111, "channel": 0}, {"type": "note_off", "time": 39, "note": 72, "velocity": 111, "channel": 0}, {"type": "note_on", "time": 3, "note": 70, "velocity": 112, "channel": 0}, {"type": "note_off", "time": 47, "note": 70, "velocity": 112, "channel": 0}, {"type": "note_on", "time": 3, "note": 68, "velocity": 102, "channel": 0}, {"type": "note_off", "time": 26, "note": 68, "velocity": 102, "channel": 0}, {"type": "note_on", "time": 4, "note": 65, "velocity": 107, "channel": 0}, {"type": "note_off", "time": 48, "note": 65, "velocity": 107, "channel": 0}, {"type": "note_on", "time": 5, "note": 62, "velocity": 95, "channel": 0}, {"type": "note_off", "time": 41, "note": 62, "velocity": 95, "channel": 0}, {"type": "note_on", "time": 1, "note": 60, "velocity": 87, "channel": 0}, {"type": "note_off", "time": 73, "note": 60, "velocity": 87, "channel": 0}, {"type": "note_on", "time": 9, "note": 70, "velocity": 112, "channel": 0}, {"type": "note_off", "time": 65, "note": 70, "velocity": 112, "channel": 0}, {"type": "note_on", "time": 37, "note": 58, "velocity": 83, "channel": 0}, {"type": "note_off", "time": 87, "note": 58, "velocity": 83, "channel": 0}, {"type": "note_on", "time": 12, "note": 62, "velocity": 89, "channel": 0}, {"type": "note_off", "time": 59, "note": 62, "velocity": 89, "channel": 0}, {"type": "note_on", "time": 22, "note": 65, "velocity": 100, "channel": 0}, {"type": "note_off", "time": 96, "note": 65, "velocity": 100, "channel": 0}, {"type": "note_on", "time": 97, "note": 65, "velocity": 97, "channel": 0}, {"type": "note_off", "time": 107, "note": 65, "velocity": 97, "channel": 0}, {"type": "note_on", "time": 89, "note": 65, "velocity": 90, "channel": 0}, {"type": "note_off", "time": 170, "note": 65, "velocity": 90, "channel": 0}, {"type": "note_on", "time": 356, "note": 74, "velocity": 111, "channel": 0}, {"type": "note_off", "time": 46, "note": 74, "velocity": 111, "channel": 0}, {"type": "note_on", "time": 1, "note": 81, "velocity": 105, "channel": 0}, {"type": "note_off", "time": 34, "note": 81, "velocity": 105, "channel": 0}, {"type": "note_on", "time": 92, "note": 75, "velocity": 123, "channel": 0}, {"type": "note_off", "time": 46, "note": 75, "velocity": 123, "channel": 0}, {"type": "note_on", "time": 29, "note": 72, "velocity": 122, "channel": 0}, {"type": "note_off", "time": 52, "note": 72, "velocity": 122, "channel": 0}, {"type": "note_on", "time": 72, "note": 68, "velocity": 113, "channel": 0}, {"type": "note_off", "time": 59, "note": 68, "velocity": 113, "channel": 0}, {"type": "note_on", "time": 7, "note": 67, "velocity": 115, "channel": 0}, {"type": "note_off", "time": 51, "note": 67, "velocity": 115, "channel": 0}, {"type": "note_on", "time": 79, "note": 65, "velocity": 108, "channel": 0}, {"type": "note_off", "time": 61, "note": 65, "velocity": 108, "channel": 0}, {"type": "note_on", "time": 6, "note": 70, "velocity": 119, "channel": 0}, {"type": "note_off", "time": 64, "note": 70, "velocity": 119, "channel": 0}, {"type": "note_on", "time": 143, "note": 70, "velocity": 96, "channel": 0}, {"type": "note_off", "time": 157, "note": 70, "velocity": 96, "channel": 0}, {"type": "note_on", "time": 32, "note": 70, "velocity": 101, "channel": 0}, {"type": "note_off", "time": 160, "note": 70, "velocity": 101, "channel": 0}, {"type": "note_on", "time": 31, "note": 66, "velocity": 102, "channel": 0}, {"type": "note_off", "time": 88, "note": 66, "velocity": 102, "channel": 0}, {"type": "note_on", "time": 27, "note": 72, "velocity": 113, "channel": 0}, {"type": "note_off", "time": 69, "note": 72, "velocity": 113, "channel": 0}, {"type": "note_on", "time": 205, "note": 70, "velocity": 116, "channel": 0}, {"type": "note_off", "time": 83, "note": 70, "velocity": 116, "channel": 0}, {"type": "note_on", "time": 33, "note": 67, "velocity": 100, "channel": 0}, {"type": "note_off", "time": 60, "note": 67, "velocity": 100, "channel": 0}, {"type": "note_on", "time": 11, "note": 68, "velocity": 111, "channel": 0}, {"type": "note_off", "time": 65, "note": 68, "velocity": 111, "channel": 0}, {"type": "note_on", "time": 60, "note": 60, "velocity": 101, "channel": 0}, {"type": "note_off", "time": 70, "note": 60, "velocity": 101, "channel": 0}, {"type": "note_on", "time": 12, "note": 62, "velocity": 93, "channel": 0}, {"type": "note_off", "time": 82, "note": 62, "velocity": 93, "channel": 0}, {"type": "note_on", "time": 23, "note": 65, "velocity": 108, "channel": 0}, {"type": "note_off", "time": 62, "note": 65, "velocity": 108, "channel": 0}, {"type": "note_on", "time": 20, "note": 63, "velocity": 84, "channel": 0}, {"type": "note_off", "time": 194, "note": 63, "velocity": 84, "channel": 0}, {"type": "note_on", "time": 309, "note": 70, "velocity": 117, "channel": 0}, {"type": "note_off", "time": 72, "note": 70, "velocity": 117, "channel": 0}, {"type": "note_on", "time": 6, "note": 72, "velocity": 120, "channel": 0}, {"type": "note_off", "time": 53, "note": 72, "velocity": 120, "channel": 0}, {"type": "note_on", "time": 4, "note": 73, "velocity": 110, "channel": 0}, {"type": "note_off", "time": 56, "note": 73, "velocity": 110, "channel": 0}, {"type": "note_on", "time": 4, "note": 72, "velocity": 120, "channel": 0}, {"type": "note_off", "time": 72, "note": 72, "velocity": 120, "channel": 0}, {"type": "note_on", "time": 6, "note": 70, "velocity": 104, "channel": 0}, {"type": "note_off", "time": 177, "note": 70, "velocity": 104, "channel": 0}, {"type": "note_on", "time": 31, "note": 66, "velocity": 103, "channel": 0}, {"type": "note_off", "time": 46, "note": 66, "velocity": 103, "channel": 0}, {"type": "note_on", "time": 7, "note": 67, "velocity": 110, "channel": 0}, {"type": "note_off", "time": 49, "note": 67, "velocity": 110, "channel": 0}, {"type": "note_on", "time": 4, "note": 68, "velocity": 115, "channel": 0}, {"type": "note_off", "time": 39, "note": 68, "velocity": 115, "channel": 0}, {"type": "note_on", "time": 2, "note": 69, "velocity": 114, "channel": 0}, {"type": "note_off", "time": 36, "note": 69, "velocity": 114, "channel": 0}, {"type": "note_on", "time": 2, "note": 72, "velocity": 107, "channel": 0}, {"type": "note_off", "time": 285, "note": 72, "velocity": 107, "channel": 0}, {"type": "note_on", "time": 8, "note": 70, "velocity": 114, "channel": 0}, {"type": "note_off", "time": 56, "note": 70, "velocity": 114, "channel": 0}, {"type": "note_on", "time": 24, "note": 62, "velocity": 92, "channel": 0}, {"type": "note_off", "time": 300, "note": 62, "velocity": 92, "channel": 0}, {"type": "note_on", "time": 13, "note": 63, "velocity": 94, "channel": 0}, {"type": "note_off", "time": 66, "note": 63, "velocity": 94, "channel": 0}, {"type": "note_on", "time": 6, "note": 64, "velocity": 91, "channel": 0}, {"type": "note_off", "time": 259, "note": 64, "velocity": 91, "channel": 0}, {"type": "note_on", "time": 116, "note": 65, "velocity": 106, "channel": 0}, {"type": "note_off", "time": 88, "note": 65, "velocity": 106, "channel": 0}, {"type": "note_on", "time": 13, "note": 68, "velocity": 110, "channel": 0}, {"type": "note_off", "time": 66, "note": 68, "velocity": 110, "channel": 0}, {"type": "note_on", "time": 14, "note": 72, "velocity": 112, "channel": 0}, {"type": "note_off", "time": 71, "note": 72, "velocity": 112, "channel": 0}, {"type": "note_on", "time": 29, "note": 68, "velocity": 108, "channel": 0}, {"type": "note_off", "time": 76, "note": 68, "velocity": 108, "channel": 0}, {"type": "note_on", "time": 23, "note": 67, "velocity": 104, "channel": 0}, {"type": "note_off", "time": 86, "note": 67, "velocity": 104, "channel": 0}, {"type": "note_on", "time": 3, "note": 70, "velocity": 114, "channel": 0}, {"type": "note_off", "time": 69, "note": 70, "velocity": 114, "channel": 0}, {"type": "note_on", "time": 12, "note": 62, "velocity": 95, "channel": 0}, {"type": "note_off", "time": 113, "note": 62, "velocity": 95, "channel": 0}, {"type": "note_on", "time": 7, "note": 64, "velocity": 110, "channel": 0}, {"type": "note_off", "time": 61, "note": 64, "velocity": 110, "channel": 0}, {"type": "note_on", "time": 12, "note": 65, "velocity": 94, "channel": 0}, {"type": "note_off", "time": 192, "note": 65, "velocity": 94, "channel": 0}, {"type": "note_on", "time": 145, "note": 60, "velocity": 86, "channel": 0}, {"type": "note_off", "time": 48, "note": 60, "velocity": 86, "channel": 0}, {"type": "note_on", "time": 1, "note": 64, "velocity": 108, "channel": 0}, {"type": "note_off", "time": 103, "note": 64, "velocity": 108, "channel": 0}, {"type": "note_on", "time": 25, "note": 60, "velocity": 88, "channel": 0}, {"type": "note_off", "time": 37, "note": 60, "velocity": 88, "channel": 0}, {"type": "note_on", "time": 16, "note": 65, "velocity": 106, "channel": 0}, {"type": "note_off", "time": 118, "note": 65, "velocity": 106, "channel": 0}, {"type": "note_on", "time": 84, "note": 75, "velocity": 98, "channel": 0}, {"type": "note_off", "time": 279, "note": 75, "velocity": 98, "channel": 0}, {"type": "note_on", "time": 126, "note": 64, "velocity": 112, "channel": 0}, {"type": "note_off", "time": 102, "note": 64, "velocity": 112, "channel": 0}, {"type": "note_on", "time": 13, "note": 65, "velocity": 100, "channel": 0}, {"type": "note_off", "time": 184, "note": 65, "velocity": 100, "channel": 0}, {"type": "note_on", "time": 79, "note": 75, "velocity": 123, "channel": 0}, {"type": "note_off", "time": 75, "note": 75, "velocity": 123, "channel": 0}, {"type": "note_on", "time": 26, "note": 72, "velocity": 120, "channel": 0}, {"type": "note_off", "time": 66, "note": 72, "velocity": 120, "channel": 0}, {"type": "note_on", "time": 16, "note": 69, "velocity": 118, "channel": 0}, {"type": "note_off", "time": 77, "note": 69, "velocity": 118, "channel": 0}, {"type": "note_on", "time": 30, "note": 66, "velocity": 109, "channel": 0}, {"type": "note_off", "time": 78, "note": 66, "velocity": 109, "channel": 0}, {"type": "note_on", "time": 10, "note": 63, "velocity": 107, "channel": 0}, {"type": "note_off", "time": 64, "note": 63, "velocity": 107, "channel": 0}, {"type": "note_on", "time": 37, "note": 60, "velocity": 102, "channel": 0}, {"type": "note_off", "time": 70, "note": 60, "velocity": 102, "channel": 0}, {"type": "note_on", "time": 25, "note": 74, "velocity": 120, "channel": 0}, {"type": "note_off", "time": 88, "note": 74, "velocity": 120, "channel": 0}, {"type": "note_on", "time": 9, "note": 72, "velocity": 116, "channel": 0}, {"type": "note_off", "time": 76, "note": 72, "velocity": 116, "channel": 0}, {"type": "note_on", "time": 9, "note": 70, "velocity": 98, "channel": 0}, {"type": "note_off", "time": 192, "note": 70, "velocity": 98, "channel": 0}, {"type": "note_on", "time": 189, "note": 66, "velocity": 108, "channel": 0}, {"type": "note_off", "time": 54, "note": 66, "velocity": 108, "channel": 0}, {"type": "note_on", "time": 5, "note": 67, "velocity": 117, "channel": 0}, {"type": "note_off", "time": 61, "note": 67, "velocity": 117, "channel": 0}, {"type": "note_on", "time": 5, "note": 68, "velocity": 112, "channel": 0}, {"type": "note_off", "time": 57, "note": 68, "velocity": 112, "channel": 0}, {"type": "note_on", "time": 3, "note": 69, "velocity": 113, "channel": 0}, {"type": "note_off", "time": 64, "note": 69, "velocity": 113, "channel": 0}, {"type": "note_on", "time": 2, "note": 70, "velocity": 120, "channel": 0}, {"type": "note_off", "time": 49, "note": 70, "velocity": 120, "channel": 0}, {"type": "note_on", "time": 4, "note": 71, "velocity": 108, "channel": 0}, {"type": "note_off", "time": 50, "note": 71, "velocity": 108, "channel": 0}, {"type": "note_on", "time": 2, "note": 72, "velocity": 96, "channel": 0}, {"type": "note_off", "time": 252, "note": 72, "velocity": 96, "channel": 0}, {"type": "note_on", "time": 243, "note": 66, "velocity": 103, "channel": 0}, {"type": "note_off", "time": 77, "note": 66, "velocity": 103, "channel": 0}, {"type": "note_on", "time": 1, "note": 67, "velocity": 110, "channel": 0}, {"type": "note_off", "time": 40, "note": 67, "velocity": 110, "channel": 0}, {"type": "note_on", "time": 7, "note": 66, "velocity": 95, "channel": 0}, {"type": "note_off", "time": 37, "note": 66, "velocity": 95, "channel": 0}, {"type": "note_on", "time": 33, "note": 66, "velocity": 102, "channel": 0}, {"type": "note_off", "time": 63, "note": 66, "velocity": 102, "channel": 0}, {"type": "note_on", "time": 5, "note": 65, "velocity": 102, "channel": 0}, {"type": "note_off", "time": 115, "note": 65, "velocity": 102, "channel": 0}, {"type": "note_on", "time": 16, "note": 63, "velocity": 87, "channel": 0}, {"type": "note_off", "time": 177, "note": 63, "velocity": 87, "channel": 0}, {"type": "note_on", "time": 102, "note": 66, "velocity": 105, "channel": 0}, {"type": "note_off", "time": 89, "note": 66, "velocity": 105, "channel": 0}, {"type": "note_on", "time": 6, "note": 67, "velocity": 115, "channel": 0}, {"type": "note_off", "time": 79, "note": 67, "velocity": 115, "channel": 0}, {"type": "note_on", "time": 8, "note": 68, "velocity": 118, "channel": 0}, {"type": "note_off", "time": 67, "note": 68, "velocity": 118, "channel": 0}, {"type": "note_on", "time": 6, "note": 69, "velocity": 116, "channel": 0}, {"type": "note_off", "time": 48, "note": 69, "velocity": 116, "channel": 0}, {"type": "note_on", "time": 11, "note": 70, "velocity": 105, "channel": 0}, {"type": "note_off", "time": 227, "note": 70, "velocity": 105, "channel": 0}, {"type": "note_on", "time": 26, "note": 66, "velocity": 105, "channel": 0}, {"type": "note_off", "time": 103, "note": 66, "velocity": 105, "channel": 0}, {"type": "note_on", "time": 8, "note": 67, "velocity": 92, "channel": 0}, {"type": "note_off", "time": 279, "note": 67, "velocity": 92, "channel": 0}, {"type": "note_on", "time": 30, "note": 60, "velocity": 90, "channel": 0}, {"type": "note_off", "time": 37, "note": 60, "velocity": 90, "channel": 0}, {"type": "note_on", "time": 12, "note": 65, "velocity": 95, "channel": 0}, {"type": "note_off", "time": 239, "note": 65, "velocity": 95, "channel": 0}, {"type": "note_on", "time": 14, "note": 63, "velocity": 10, "channel": 0}, {"type": "note_off", "time": 793, "note": 63, "velocity": 10, "channel": 0}, {"type": "end_of_track", "time": 0}]]}