{"ticks_per_beat": 192, "tracks": [[{"type": "track_name", "name": "Melody", "time": 0}, {"type": "set_tempo", "tempo": 287081, "time": 0}, {"type": "key_signature", "key": "Ab", "time": 0}, {"type": "time_signature", "numerator": 4, "denominator": 4, "clocks_per_click": 24, "notated_32nd_notes_per_beat": 8, "time": 0}, {"type": "note_on", "time": 1646, "note": 75, "velocity": 109, "channel": 0}, {"type": "note_off", "time": 120, "note": 75, "velocity": 109, "channel": 0}, {"type": "note_on", "time": 19, "note": 80, "velocity": 113, "channel": 0}, {"type": "note_off", "time": 77, "note": 80, "velocity": 113, "channel": 0}, {"type": "note_on", "time": 99, "note": 72, "velocity": 103, "channel": 0}, {"type": "note_off", "time": 85, "note": 72, "velocity": 103, "channel": 0}, {"type": "note_on", "time": 11, "note": 75, "velocity": 113, "channel": 0}, {"type": "note_off", "time": 71, "note": 75, "velocity": 113, "channel": 0}, {"type": "note_on", "time": 42, "note": 68, "velocity": 102, "channel": 0}, {"type": "note_off", "time": 62, "note": 68, "velocity": 102, "channel": 0}, {"type": "note_on", "time": 18, "note": 72, "velocity": 111, "channel": 0}, {"type": "note_off", "time": 69, "note": 72, "velocity": 111, "channel": 0}, {"type": "note_on", "time": 120, "note": 63, "velocity": 97, "channel": 0}, {"type": "note_off", "time": 87, "note": 63, "velocity": 97, "channel": 0}, {"type": "note_on", "time": 89, "note": 64, "velocity": 97, "channel": 0}, {"type": "note_off", "time": 93, "note": 64, "velocity": 97, "channel": 0}, {"type": "note_on", "time": 114, "note": 65, "velocity": 82, "channel": 0}, {"type": "note_off", "time": 161, "note": 65, "velocity": 82, "channel": 0}, {"type": "note_on", "time": 407, "note": 75, "velocity": 121, "channel": 0}, {"type": "note_off", "time": 102, "note": 75, "velocity": 121, "channel": 0}, {"type": "note_on", "time": 97, "note": 77, "velocity": 121, "channel": 0}, {"type": "note_off", "time": 85, "note": 77, "velocity": 121, "channel": 0}, {"type": "note_on", "time": 31, "note": 72, "velocity": 110, "channel": 0}, {"type": "note_off", "time": 77, "note": 72, "velocity": 110, "channel": 0}, {"type": "note_on", "time": 26, "note": 75, "velocity": 115, "channel": 0}, {"type": "note_off", "time": 75, "note": 75, "velocity": 115, "channel": 0}, {"type": "note_on", "time": 87, "note": 72, "velocity": 110, "channel": 0}, {"type": "note_off", "time": 72, "note": 72, "velocity": 110, "channel": 0}, {"type": "note_on", "time": 42, "note": 68, "velocity": 110, "channel": 0}, {"type": "note_off", "time": 79, "note": 68, "velocity": 110, "channel": 0}, {"type": "note_on", "time": 21, "note": 67, "velocity": 103, "channel": 0}, {"type": "note_off", "time": 73, "note": 67, "velocity": 103, "channel": 0}, {"type": "note_on", "time": 32, "note": 70, "velocity": 106, "channel": 0}, {"type": "note_off", "time": 69, "note": 70, "velocity": 106, "channel": 0}, {"type": "note_on", "time": 95, "note": 68, "velocity": 112, "channel": 0}, {"type": "note_off", "time": 68, "note": 68, "velocity": 112, "channel": 0}, {"type": "note_on", "time": 16, "note": 67, "velocity": 105, "channel": 0}, {"type": "note_off", "time": 109, "note": 67, "velocity": 105, "channel": 0}, {"type": "note_on", "time": 8, "note": 65, "velocity": 101, "channel": 0}, {"type": "note_off", "time": 62, "note": 65, "velocity": 101, "channel": 0}, {"type": "note_on", "time": 2, "note": 70, "velocity": 104, "channel": 0}, {"type": "note_off", "time": 87, "note": 70, "velocity": 104, "channel": 0}, {"type": "note_on", "time": 81, "note": 66, "velocity": 104, "channel": 0}, {"type": "note_off", "time": 108, "note": 66, "velocity": 104, "channel": 0}, {"type": "note_on", "time": 93, "note": 65, "velocity": 106, "channel": 0}, {"type": "note_off", "time": 95, "note": 65, "velocity": 106, "channel": 0}, {"type": "note_on", "time": 16, "note": 63, "velocity": 98, "channel": 0}, {"type": "note_off", "time": 61, "note": 63, "velocity": 98, "channel": 0}, {"type": "note_on", "time": 10, "note": 60, "velocity": 104, "channel": 0}, {"type": "note_off", "time": 143, "note": 60, "velocity": 104, "channel": 0}, {"type": "note_on", "time": 57, "note": 63, "velocity": 100, "channel": 0}, {"type": "note_off", "time": 80, "note": 63, "velocity": 100, "channel": 0}, {"type": "note_on", "time": 30, "note": 65, "velocity": 104, "channel": 0}, {"type": "note_off", "time": 57, "note": 65, "velocity": 104, "channel": 0}, {"type": "note_on", "time": 16, "note": 63, "velocity": 99, "channel": 0}, {"type": "note_off", "time": 79, "note": 63, "velocity": 99, "channel": 0}, {"type": "note_on", "time": 103, "note": 63, "velocity": 90, "channel": 0}, {"type": "note_off", "time": 237, "note": 63, "velocity": 90, "channel": 0}, {"type": "note_on", "time": 342, "note": 75, "velocity": 112, "channel": 0}, {"type": "note_off", "time": 98, "note": 75, "velocity": 112, "channel": 0}, {"type": "note_on", "time": 28, "note": 77, "velocity": 111, "channel": 0}, {"type": "note_off", "time": 64, "note": 77, "velocity": 111, "channel": 0}, {"type": "note_on", "time": 8, "note": 80, "velocity": 127, "channel": 0}, {"type": "note_off", "time": 110, "note": 80, "velocity": 127, "channel": 0}, {"type": "note_on", "time": 11, "note": 75, "velocity": 116, "channel": 0}, {"type": "note_off", "time": 67, "note": 75, "velocity": 116, "channel": 0}, {"type": "note_on", "time": 1, "note": 77, "velocity": 116, "channel": 0}, {"type": "note_off", "time": 99, "note": 77, "velocity": 116, "channel": 0}, {"type": "note_on", "time": 9, "note": 72, "velocity": 111, "channel": 0}, {"type": "note_off", "time": 88, "note": 72, "velocity": 111, "channel": 0}, {"type": "note_on", "time": 83, "note": 75, "velocity": 116, "channel": 0}, {"type": "note_off", "time": 81, "note": 75, "velocity": 116, "channel": 0}, {"type": "note_on", "time": 17, "note": 72, "velocity": 108, "channel": 0}, {"type": "note_off", "time": 102, "note": 72, "velocity": 108, "channel": 0}, {"type": "note_on", "time": 8, "note": 68, "velocity": 105, "channel": 0}, {"type": "note_off", "time": 58, "note": 68, "velocity": 105, "channel": 0}, {"type": "note_on", "time": 16, "note": 67, "velocity": 105, "channel": 0}, {"type": "note_off", "time": 99, "note": 67, "velocity": 105, "channel": 0}, {"type": "note_on", "time": 8, "note": 70, "velocity": 108, "channel": 0}, {"type": "note_off", "time": 66, "note": 70, "velocity": 108, "channel": 0}, {"type": "note_on", "time": 14, "note": 68, "velocity": 111, "channel": 0}, {"type": "note_off", "time": 89, "note": 68, "velocity": 111, "channel": 0}, {"type": "note_on", "time": 91, "note": 70, "velocity": 108, "channel": 0}, {"type": "note_off", "time": 111, "note": 70, "velocity": 108, "channel": 0}, {"type": "note_on", "time": 70, "note": 70, "velocity": 105, "channel": 0}, {"type": "note_off", "time": 114, "note": 70, "velocity": 105, "channel": 0}, {"type": "note_on", "time": 81, "note": 66, "velocity": 98, "channel": 0}, {"type": "note_off", "time": 95, "note": 66, "velocity": 98, "channel": 0}, {"type": "note_on", "time": 17, "note": 63, "velocity": 99, "channel": 0}, {"type": "note_off", "time": 158, "note": 63, "velocity": 99, "channel": 0}, {"type": "note_on", "time": 111, "note": 65, "velocity": 89, "channel": 0}, {"type": "note_off", "time": 215, "note": 65, "velocity": 89, "channel": 0}, {"type": "note_on", "time": 294, "note": 69, "velocity": 104, "channel": 0}, {"type": "note_off", "time": 62, "note": 69, "velocity": 104, "channel": 0}, {"type": "note_on", "time": 1, "note": 71, "velocity": 108, "channel": 0}, {"type": "note_off", "time": 99, "note": 71, "velocity": 108, "channel": 0}, {"type": "note_on", "time": 69, "note": 70, "velocity": 96, "channel": 0}, {"type": "note_off", "time": 196, "note": 70, "velocity": 96, "channel": 0}, {"type": "note_on", "time": 199, "note": 70, "velocity": 97, "channel": 0}, {"type": "note_off", "time": 184, "note": 70, "velocity": 97, "channel": 0}, {"type": "note_on", "time": 180, "note": 70, "velocity": 109, "channel": 0}, {"type": "note_off", "time": 109, "note": 70, "velocity": 109, "channel": 0}, {"type": "note_on", "time": 25, "note": 73, "velocity": 111, "channel": 0}, {"type": "note_off", "time": 103, "note": 73, "velocity": 111, "channel": 0}, {"type": "note_on", "time": 70, "note": 70, "velocity": 101, "channel": 0}, {"type": "note_off", "time": 60, "note": 70, "velocity": 101, "channel": 0}, {"type": "note_on", "time": 17, "note": 73, "velocity": 112, "channel": 0}, {"type": "note_off", "time": 95, "note": 73, "velocity": 112, "channel": 0}, {"type": "note_on", "time": 23, "note": 70, "velocity": 98, "channel": 0}, {"type": "note_off", "time": 45, "note": 70, "velocity": 98, "channel": 0}, {"type": "note_on", "time": 7, "note": 76, "velocity": 98, "channel": 0}, {"type": "note_off", "time": 19, "note": 76, "velocity": 98, "channel": 0}, {"type": "note_on", "time": 15, "note": 77, "velocity": 107, "channel": 0}, {"type": "note_off", "time": 66, "note": 77, "velocity": 107, "channel": 0}, {"type": "note_on", "time": 316, "note": 70, "velocity": 116, "channel": 0}, {"type": "note_off", "time": 83, "note": 70, "velocity": 116, "channel": 0}, {"type": "note_on", "time": 56, "note": 70, "velocity": 114, "channel": 0}, {"type": "note_off", "time": 107, "note": 70, "velocity": 114, "channel": 0}, {"type": "note_on", "time": 21, "note": 68, "velocity": 101, "channel": 0}, {"type": "note_off", "time": 76, "note": 68, "velocity": 101, "channel": 0}, {"type": "note_on", "time": 11, "note": 65, "velocity": 97, "channel": 0}, {"type": "note_off", "time": 83, "note": 65, "velocity": 97, "channel": 0}, {"type": "note_on", "time": 99, "note": 70, "velocity": 114, "channel": 0}, {"type": "note_off", "time": 98, "note": 70, "velocity": 114, "channel": 0}, {"type": "note_on", "time": 43, "note": 70, "velocity": 109, "channel": 0}, {"type": "note_off", "time": 54, "note": 70, "velocity": 109, "channel": 0}, {"type": "note_on", "time": 111, "note": 70, "velocity": 108, "channel": 0}, {"type": "note_off", "time": 81, "note": 70, "velocity": 108, "channel": 0}, {"type": "note_on", "time": 26, "note": 68, "velocity": 107, "channel": 0}, {"type": "note_off", "time": 100, "note": 68, "velocity": 107, "channel": 0}, {"type": "note_on", "time": 17, "note": 67, "velocity": 102, "channel": 0}, {"type": "note_off", "time": 67, "note": 67, "velocity": 102, "channel": 0}, {"type": "note_on", "time": 23, "note": 65, "velocity": 95, "channel": 0}, {"type": "note_off", "time": 66, "note": 65, "velocity": 95, "channel": 0}, {"type": "note_on", "time": 85, "note": 68, "velocity": 105, "channel": 0}, {"type": "note_off", "time": 79, "note": 68, "velocity": 105, "channel": 0}, {"type": "note_on", "time": 93, "note": 62, "velocity": 98, "channel": 0}, {"type": "note_off", "time": 60, "note": 62, "velocity": 98, "channel": 0}, {"type": "note_on", "time": 17, "note": 68, "velocity": 89, "channel": 0}, {"type": "note_off", "time": 42, "note": 68, "velocity": 89, "channel": 0}, {"type": "note_on", "time": 11, "note": 70, "velocity": 86, "channel": 0}, {"type": "note_off", "time": 58, "note": 70, "velocity": 86, "channel": 0}, {"type": "note_on", "time": 0, "note": 74, "velocity": 109, "channel": 0}, {"type": "note_off", "time": 102, "note": 74, "velocity": 109, "channel": 0}, {"type": "note_on", "time": 99, "note": 58, "velocity": 100, "channel": 0}, {"type": "note_off", "time": 40, "note": 58, "velocity": 100, "channel": 0}, {"type": "note_on", "time": 9, "note": 62, "velocity": 97, "channel": 0}, {"type": "note_off", "time": 46, "note": 62, "velocity": 97, "channel": 0}, {"type": "note_on", "time": 11, "note": 65, "velocity": 95, "channel": 0}, {"type": "note_off", "time": 52, "note": 65, "velocity": 95, "channel": 0}, {"type": "note_on", "time": 12, "note": 70, "velocity": 93, "channel": 0}, {"type": "note_off", "time": 117, "note": 70, "velocity": 93, "channel": 0}, {"type": "note_on", "time": 63, "note": 70, "velocity": 107, "channel": 0}, {"type": "note_off", "time": 113, "note": 70, "velocity": 107, "channel": 0}, {"type": "note_on", "time": 86, "note": 70, "velocity": 92, "channel": 0}, {"type": "note_off", "time": 225, "note": 70, "velocity": 92, "channel": 0}, {"type": "note_on", "time": 366, "note": 70, "velocity": 98, "channel": 0}, {"type": "note_off", "time": 118, "note": 70, "velocity": 98, "channel": 0}, {"type": "note_on", "time": 225, "note": 71, "velocity": 101, "channel": 0}, {"type": "note_off", "time": 129, "note": 71, "velocity": 101, "channel": 0}, {"type": "note_on", "time": 128, "note": 70, "velocity": 98, "channel": 0}, {"type": "note_off", "time": 87, "note": 70, "velocity": 98, "channel": 0}, {"type": "note_on", "time": 92, "note": 70, "velocity": 97, "channel": 0}, {"type": "note_off", "time": 128, "note": 70, "velocity": 97, "channel": 0}, {"type": "note_on", "time": 83, "note": 70, "velocity": 83, "channel": 0}, {"type": "note_off", "time": 196, "note": 70, "velocity": 83, "channel": 0}, {"type": "note_on", "time": 9, "note": 68, "velocity": 94, "channel": 0}, {"type": "note_off", "time": 85, "note": 68, "velocity": 94, "channel": 0}, {"type": "note_on", "time": 308, "note": 63, "velocity": 114, "channel": 0}, {"type": "note_off", "time": 98, "note": 63, "velocity": 114, "channel": 0}, {"type": "note_on", "time": 16, "note": 65, "velocity": 101, "channel": 0}, {"type": "note_off", "time": 62, "note": 65, "velocity": 101, "channel": 0}, {"type": "note_on", "time": 8, "note": 68, "velocity": 109, "channel": 0}, {"type": "note_off", "time": 101, "note": 68, "velocity": 109, "channel": 0}, {"type": "note_on", "time": 19, "note": 72, "velocity": 108, "channel": 0}, {"type": "note_off", "time": 53, "note": 72, "velocity": 108, "channel": 0}, {"type": "note_on", "time": 17, "note": 75, "velocity": 115, "channel": 0}, {"type": "note_off", "time": 111, "note": 75, "velocity": 115, "channel": 0}, {"type": "note_on", "time": 19, "note": 72, "velocity": 92, "channel": 0}, {"type": "note_off", "time": 53, "note": 72, "velocity": 92, "channel": 0}, {"type": "note_on", "time": 5, "note": 68, "velocity": 108, "channel": 0}, {"type": "note_off", "time": 100, "note": 68, "velocity": 108, "channel": 0}, {"type": "note_on", "time": 70, "note": 70, "velocity": 106, "channel": 0}, {"type": "note_off", "time": 114, "note": 70, "velocity": 106, "channel": 0}, {"type": "note_on", "time": 28, "note": 68, "velocity": 104, "channel": 0}, {"type": "note_off", "time": 110, "note": 68, "velocity": 104, "channel": 0}, {"type": "note_on", "time": 55, "note": 70, "velocity": 109, "channel": 0}, {"type": "note_off", "time": 68, "note": 70, "velocity": 109, "channel": 0}, {"type": "note_on", "time": 13, "note": 67, "velocity": 99, "channel": 0}, {"type": "note_off", "time": 156, "note": 67, "velocity": 99, "channel": 0}, {"type": "note_on", "time": 27, "note": 68, "velocity": 105, "channel": 0}, {"type": "note_off", "time": 80, "note": 68, "velocity": 105, "channel": 0}, {"type": "note_on", "time": 35, "note": 70, "velocity": 106, "channel": 0}, {"type": "note_off", "time": 57, "note": 70, "velocity": 106, "channel": 0}, {"type": "note_on", "time": 23, "note": 67, "velocity": 105, "channel": 0}, {"type": "note_off", "time": 98, "note": 67, "velocity": 105, "channel": 0}, {"type": "note_on", "time": 17, "note": 68, "velocity": 102, "channel": 0}, {"type": "note_off", "time": 118, "note": 68, "velocity": 102, "channel": 0}, {"type": "note_on", "time": 53, "note": 65, "velocity": 95, "channel": 0}, {"type": "note_off", "time": 151, "note": 65, "velocity": 95, "channel": 0}, {"type": "note_on", "time": 56, "note": 63, "velocity": 87, "channel": 0}, {"type": "note_off", "time": 50, "note": 63, "velocity": 87, "channel": 0}, {"type": "note_on", "time": 6, "note": 65, "velocity": 88, "channel": 0}, {"type": "note_off", "time": 176, "note": 65, "velocity": 88, "channel": 0}, {"type": "note_on", "time": 242, "note": 56, "velocity": 92, "channel": 0}, {"type": "note_off", "time": 57, "note": 56, "velocity": 92, "channel": 0}, {"type": "note_on", "time": 12, "note": 60, "velocity": 88, "channel": 0}, {"type": "note_off", "time": 69, "note": 60, "velocity": 88, "channel": 0}, {"type": "note_on", "time": 6, "note": 63, "velocity": 105, "channel": 0}, {"type": "note_off", "time": 98, "note": 63, "velocity": 105, "channel": 0}, {"type": "note_on", "time": 105, "note": 68, "velocity": 108, "channel": 0}, {"type": "note_off", "time": 96, "note": 68, "velocity": 108, "channel": 0}, {"type": "note_on", "time": 13, "note": 70, "velocity": 109, "channel": 0}, {"type": "note_off", "time": 53, "note": 70, "velocity": 109, "channel": 0}, {"type": "note_on", "time": 25, "note": 68, "velocity": 106, "channel": 0}, {"type": "note_off", "time": 114, "note": 68, "velocity": 106, "channel": 0}, {"type": "note_on", "time": 57, "note": 70, "velocity": 86, "channel": 0}, {"type": "note_off", "time": 208, "note": 70, "velocity": 86, "channel": 0}, {"type": "note_on", "time": 156, "note": 73, "velocity": 109, "channel": 0}, {"type": "note_off", "time": 94, "note": 73, "velocity": 109, "channel": 0}, {"type": "note_on", "time": 10, "note": 71, "velocity": 105, "channel": 0}, {"type": "note_off", "time": 87, "note": 71, "velocity": 105, "channel": 0}, {"type": "note_on", "time": 9, "note": 70, "velocity": 107, "channel": 0}, {"type": "note_off", "time": 85, "note": 70, "velocity": 107, "channel": 0}, {"type": "note_on", "time": 42, "note": 68, "velocity": 105, "channel": 0}, {"type": "note_off", "time": 93, "note": 68, "velocity": 105, "channel": 0}, {"type": "note_on", "time": 73, "note": 70, "velocity": 105, "channel": 0}, {"type": "note_off", "time": 62, "note": 70, "velocity": 105, "channel": 0}, {"type": "note_on", "time": 29, "note": 64, "velocity": 100, "channel": 0}, {"type": "note_off", "time": 132, "note": 64, "velocity": 100, "channel": 0}, {"type": "note_on", "time": 33, "note": 61, "velocity": 85, "channel": 0}, {"type": "note_off", "time": 198, "note": 61, "velocity": 85, "channel": 0}, {"type": "note_on", "time": 132, "note": 56, "velocity": 91, "channel": 0}, {"type": "note_off", "time": 42, "note": 56, "velocity": 91, "channel": 0}, {"type": "note_on", "time": 19, "note": 61, "velocity": 97, "channel": 0}, {"type": "note_off", "time": 99, "note": 61, "velocity": 97, "channel": 0}, {"type": "note_on", "time": 18, "note": 65, "velocity": 102, "channel": 0}, {"type": "note_off", "time": 57, "note": 65, "velocity": 102, "channel": 0}, {"type": "note_on", "time": 13, "note": 68, "velocity": 109, "channel": 0}, {"type": "note_off", "time": 101, "note": 68, "velocity": 109, "channel": 0}, {"type": "note_on", "time": 28, "note": 65, "velocity": 94, "channel": 0}, {"type": "note_off", "time": 49, "note": 65, "velocity": 94, "channel": 0}, {"type": "note_on", "time": 9, "note": 68, "velocity": 89, "channel": 0}, {"type": "note_off", "time": 222, "note": 68, "velocity": 89, "channel": 0}, {"type": "note_on", "time": 338, "note": 68, "velocity": 107, "channel": 0}, {"type": "note_off", "time": 58, "note": 68, "velocity": 107, "channel": 0}, {"type": "note_on", "time": 17, "note": 70, "velocity": 101, "channel": 0}, {"type": "note_off", "time": 23, "note": 70, "velocity": 101, "channel": 0}, {"type": "note_on", "time": 19, "note": 68, "velocity": 100, "channel": 0}, {"type": "note_off", "time": 53, "note": 68, "velocity": 100, "channel": 0}, {"type": "note_on", "time": 20, "note": 73, "velocity": 110, "channel": 0}, {"type": "note_off", "time": 99, "note": 73, "velocity": 110, "channel": 0}, {"type": "note_on", "time": 83, "note": 68, "velocity": 108, "channel": 0}, {"type": "note_off", "time": 64, "note": 68, "velocity": 108, "channel": 0}, {"type": "note_on", "time": 9, "note": 70, "velocity": 105, "channel": 0}, {"type": "note_off", "time": 21, "note": 70, "velocity": 105, "channel": 0}, {"type": "note_on", "time": 8, "note": 68, "velocity": 102, "channel": 0}, {"type": "note_off", "time": 62, "note": 68, "velocity": 102, "channel": 0}, {"type": "note_on", "time": 11, "note": 71, "velocity": 107, "channel": 0}, {"type": "note_off", "time": 87, "note": 71, "velocity": 107, "channel": 0}, {"type": "note_on", "time": 87, "note": 68, "velocity": 104, "channel": 0}, {"type": "note_off", "time": 69, "note": 68, "velocity": 104, "channel": 0}, {"type": "note_on", "time": 79, "note": 70, "velocity": 108, "channel": 0}, {"type": "note_off", "time": 77, "note": 70, "velocity": 108, "channel": 0}, {"type": "note_on", "time": 95, "note": 68, "velocity": 99, "channel": 0}, {"type": "note_off", "time": 88, "note": 68, "velocity": 99, "channel": 0}, {"type": "note_on", "time": 19, "note": 65, "velocity": 103, "channel": 0}, {"type": "note_off", "time": 79, "note": 65, "velocity": 103, "channel": 0}, {"type": "note_on", "time": 24, "note": 68, "velocity": 103, "channel": 0}, {"type": "note_off", "time": 95, "note": 68, "velocity": 103, "channel": 0}, {"type": "note_on", "time": 81, "note": 58, "velocity": 88, "channel": 0}, {"type": "note_off", "time": 93, "note": 58, "velocity": 88, "channel": 0}, {"type": "note_on", "time": 1, "note": 61, "velocity": 105, "channel": 0}, {"type": "note_off", "time": 85, "note": 61, "velocity": 105, "channel": 0}, {"type": "note_on", "time": 11, "note": 65, "velocity": 104, "channel": 0}, {"type": "note_off", "time": 75, "note": 65, "velocity": 104, "channel": 0}, {"type": "note_on", "time": 123, "note": 65, "velocity": 92, "channel": 0}, {"type": "note_off", "time": 151, "note": 65, "velocity": 92, "channel": 0}, {"type": "note_on", "time": 79, "note": 65, "velocity": 87, "channel": 0}, {"type": "note_off", "time": 201, "note": 65, "velocity": 87, "channel": 0}, {"type": "note_on", "time": 187, "note": 72, "velocity": 110, "channel": 0}, {"type": "note_off", "time": 106, "note": 72, "velocity": 110, "channel": 0}, {"type": "note_on", "time": 30, "note": 77, "velocity": 117, "channel": 0}, {"type": "note_off", "time": 107, "note": 77, "velocity": 117, "channel": 0}, {"type": "note_on", "time": 61, "note": 75, "velocity": 112, "channel": 0}, {"type": "note_off", "time": 64, "note": 75, "velocity": 112, "channel": 0}, {"type": "note_on", "time": 15, "note": 73, "velocity": 108, "channel": 0}, {"type": "note_off", "time": 95, "note": 73, "velocity": 108, "channel": 0}, {"type": "note_on", "time": 15, "note": 72, "velocity": 108, "channel": 0}, {"type": "note_off", "time": 69, "note": 72, "velocity": 108, "channel": 0}, {"type": "note_on", "time": 9, "note": 70, "velocity": 107, "channel": 0}, {"type": "note_off", "time": 93, "note": 70, "velocity": 107, "channel": 0}, {"type": "note_on", "time": 16, "note": 68, "velocity": 103, "channel": 0}, {"type": "note_off", "time": 60, "note": 68, "velocity": 103, "channel": 0}, {"type": "note_on", "time": 16, "note": 72, "velocity": 109, "channel": 0}, {"type": "note_off", "time": 71, "note": 72, "velocity": 109, "channel": 0}, {"type": "note_on", "time": 116, "note": 72, "velocity": 108, "channel": 0}, {"type": "note_off", "time": 75, "note": 72, "velocity": 108, "channel": 0}, {"type": "note_on", "time": 130, "note": 58, "velocity": 97, "channel": 0}, {"type": "note_off", "time": 62, "note": 58, "velocity": 97, "channel": 0}, {"type": "note_on", "time": 15, "note": 62, "velocity": 88, "channel": 0}, {"type": "note_off", "time": 67, "note": 62, "velocity": 88, "channel": 0}, {"type": "note_on", "time": 11, "note": 65, "velocity": 106, "channel": 0}, {"type": "note_off", "time": 79, "note": 65, "velocity": 106, "channel": 0}, {"type": "note_on", "time": 31, "note": 68, "velocity": 103, "channel": 0}, {"type": "note_off", "time": 66, "note": 68, "velocity": 103, "channel": 0}, {"type": "note_on", "time": 13, "note": 67, "velocity": 103, "channel": 0}, {"type": "note_off", "time": 107, "note": 67, "velocity": 103, "channel": 0}, {"type": "note_on", "time": 28, "note": 73, "velocity": 111, "channel": 0}, {"type": "note_off", "time": 65, "note": 73, "velocity": 111, "channel": 0}, {"type": "note_on", "time": 88, "note": 70, "velocity": 103, "channel": 0}, {"type": "note_off", "time": 70, "note": 70, "velocity": 103, "channel": 0}, {"type": "note_on", "time": 4, "note": 67, "velocity": 104, "channel": 0}, {"type": "note_off", "time": 83, "note": 67, "velocity": 104, "channel": 0}, {"type": "note_on", "time": 40, "note": 63, "velocity": 85, "channel": 0}, {"type": "note_off", "time": 62, "note": 63, "velocity": 85, "channel": 0}, {"type": "note_on", "time": 8, "note": 72, "velocity": 109, "channel": 0}, {"type": "note_off", "time": 113, "note": 72, "velocity": 109, "channel": 0}, {"type": "note_on", "time": 6, "note": 68, "velocity": 90, "channel": 0}, {"type": "note_off", "time": 52, "note": 68, "velocity": 90, "channel": 0}, {"type": "note_on", "time": 0, "note": 67, "velocity": 84, "channel": 0}, {"type": "note_off", "time": 209, "note": 67, "velocity": 84, "channel": 0}, {"type": "end_of_track", "time": 0}]]}