{"ticks_per_beat": 192, "tracks": [[{"type": "track_name", "name": "Melody", "time": 0}, {"type": "set_tempo", "tempo": 333333, "time": 0}, {"type": "key_signature", "key": "Eb", "time": 0}, {"type": "time_signature", "numerator": 4, "denominator": 4, "clocks_per_click": 24, "notated_32nd_notes_per_beat": 8, "time": 0}, {"type": "note_on", "time": 1638, "note": 70, "velocity": 115, "channel": 0}, {"type": "note_off", "time": 78, "note": 70, "velocity": 115, "channel": 0}, {"type": "note_on", "time": 112, "note": 70, "velocity": 121, "channel": 0}, {"type": "note_off", "time": 63, "note": 70, "velocity": 121, "channel": 0}, {"type": "note_on", "time": 118, "note": 70, "velocity": 114, "channel": 0}, {"type": "note_off", "time": 61, "note": 70, "velocity": 114, "channel": 0}, {"type": "note_on", "time": 73, "note": 70, "velocity": 111, "channel": 0}, {"type": "note_off", "time": 168, "note": 70, "velocity": 111, "channel": 0}, {"type": "note_on", "time": 96, "note": 67, "velocity": 105, "channel": 0}, {"type": "note_off", "time": 122, "note": 67, "velocity": 105, "channel": 0}, {"type": "note_on", "time": 386, "note": 75, "velocity": 112, "channel": 0}, {"type": "note_off", "time": 132, "note": 75, "velocity": 112, "channel": 0}, {"type": "note_on", "time": 39, "note": 70, "velocity": 114, "channel": 0}, {"type": "note_off", "time": 64, "note": 70, "velocity": 114, "channel": 0}, {"type": "note_on", "time": 28, "note": 72, "velocity": 113, "channel": 0}, {"type": "note_off", "time": 75, "note": 72, "velocity": 113, "channel": 0}, {"type": "note_on", "time": 39, "note": 66, "velocity": 108, "channel": 0}, {"type": "note_off", "time": 61, "note": 66, "velocity": 108, "channel": 0}, {"type": "note_on", "time": 7, "note": 67, "velocity": 112, "channel": 0}, {"type": "note_off", "time": 96, "note": 67, "velocity": 112, "channel": 0}, {"type": "note_on", "time": 99, "note": 65, "velocity": 99, "channel": 0}, {"type": "note_off", "time": 170, "note": 65, "velocity": 99, "channel": 0}, {"type": "note_on", "time": 195, "note": 65, "velocity": 121, "channel": 0}, {"type": "note_off", "time": 90, "note": 65, "velocity": 121, "channel": 0}, {"type": "note_on", "time": 29, "note": 64, "velocity": 109, "channel": 0}, {"type": "note_off", "time": 52, "note": 64, "velocity": 109, "channel": 0}, {"type": "note_on", "time": 40, "note": 75, "velocity": 127, "channel": 0}, {"type": "note_off", "time": 85, "note": 75, "velocity": 127, "channel": 0}, {"type": "note_on", "time": 12, "note": 72, "velocity": 108, "channel": 0}, {"type": "note_off", "time": 62, "note": 72, "velocity": 108, "channel": 0}, {"type": "note_on", "time": 14, "note": 75, "velocity": 113, "channel": 0}, {"type": "note_off", "time": 152, "note": 75, "velocity": 113, "channel": 0}, {"type": "note_on", "time": 34, "note": 72, "velocity": 114, "channel": 0}, {"type": "note_off", "time": 76, "note": 72, "velocity": 114, "channel": 0}, {"type": "note_on", "time": 30, "note": 63, "velocity": 105, "channel": 0}, {"type": "note_off", "time": 94, "note": 63, "velocity": 105, "channel": 0}, {"type": "note_on", "time": 94, "note": 65, "velocity": 112, "channel": 0}, {"type": "note_off", "time": 128, "note": 65, "velocity": 112, "channel": 0}, {"type": "note_on", "time": 142, "note": 68, "velocity": 109, "channel": 0}, {"type": "note_off", "time": 149, "note": 68, "velocity": 109, "channel": 0}, {"type": "note_on", "time": 230, "note": 62, "velocity": 102, "channel": 0}, {"type": "note_off", "time": 88, "note": 62, "velocity": 102, "channel": 0}, {"type": "note_on", "time": 42, "note": 63, "velocity": 123, "channel": 0}, {"type": "note_off", "time": 40, "note": 63, "velocity": 123, "channel": 0}, {"type": "note_on", "time": 20, "note": 65, "velocity": 122, "channel": 0}, {"type": "note_off", "time": 90, "note": 65, "velocity": 122, "channel": 0}, {"type": "note_on", "time": 101, "note": 65, "velocity": 122, "channel": 0}, {"type": "note_off", "time": 101, "note": 65, "velocity": 122, "channel": 0}, {"type": "note_on", "time": 10, "note": 63, "velocity": 116, "channel": 0}, {"type": "note_off", "time": 75, "note": 63, "velocity": 116, "channel": 0}, {"type": "note_on", "time": 19, "note": 65, "velocity": 118, "channel": 0}, {"type": "note_off", "time": 74, "note": 65, "velocity": 118, "channel": 0}, {"type": "note_on", "time": 29, "note": 66, "velocity": 116, "channel": 0}, {"type": "note_off", "time": 56, "note": 66, "velocity": 116, "channel": 0}, {"type": "note_on", "time": 12, "note": 67, "velocity": 105, "channel": 0}, {"type": "note_off", "time": 213, "note": 67, "velocity": 105, "channel": 0}, {"type": "note_on", "time": 108, "note": 67, "velocity": 106, "channel": 0}, {"type": "note_off", "time": 163, "note": 67, "velocity": 106, "channel": 0}, {"type": "note_on", "time": 477, "note": 67, "velocity": 117, "channel": 0}, {"type": "note_off", "time": 94, "note": 67, "velocity": 117, "channel": 0}, {"type": "note_on", "time": 30, "note": 68, "velocity": 121, "channel": 0}, {"type": "note_off", "time": 63, "note": 68, "velocity": 121, "channel": 0}, {"type": "note_on", "time": 110, "note": 69, "velocity": 115, "channel": 0}, {"type": "note_off", "time": 151, "note": 69, "velocity": 115, "channel": 0}, {"type": "note_on", "time": 125, "note": 70, "velocity": 125, "channel": 0}, {"type": "note_off", "time": 78, "note": 70, "velocity": 125, "channel": 0}, {"type": "note_on", "time": 105, "note": 72, "velocity": 117, "channel": 0}, {"type": "note_off", "time": 142, "note": 72, "velocity": 117, "channel": 0}, {"type": "note_on", "time": 58, "note": 70, "velocity": 112, "channel": 0}, {"type": "note_off", "time": 92, "note": 70, "velocity": 112, "channel": 0}, {"type": "note_on", "time": 97, "note": 71, "velocity": 112, "channel": 0}, {"type": "note_off", "time": 69, "note": 71, "velocity": 112, "channel": 0}, {"type": "note_on", "time": 4, "note": 72, "velocity": 101, "channel": 0}, {"type": "note_off", "time": 70, "note": 72, "velocity": 101, "channel": 0}, {"type": "note_on", "time": 44, "note": 70, "velocity": 102, "channel": 0}, {"type": "note_off", "time": 265, "note": 70, "velocity": 102, "channel": 0}, {"type": "note_on", "time": 323, "note": 67, "velocity": 124, "channel": 0}, {"type": "note_off", "time": 54, "note": 67, "velocity": 124, "channel": 0}, {"type": "note_on", "time": 17, "note": 68, "velocity": 121, "channel": 0}, {"type": "note_off", "time": 67, "note": 68, "velocity": 121, "channel": 0}, {"type": "note_on", "time": 24, "note": 70, "velocity": 121, "channel": 0}, {"type": "note_off", "time": 74, "note": 70, "velocity": 121, "channel": 0}, {"type": "note_on", "time": 29, "note": 72, "velocity": 110, "channel": 0}, {"type": "note_off", "time": 156, "note": 72, "velocity": 110, "channel": 0}, {"type": "note_on", "time": 151, "note": 70, "velocity": 109, "channel": 0}, {"type": "note_off", "time": 111, "note": 70, "velocity": 109, "channel": 0}, {"type": "note_on", "time": 50, "note": 72, "velocity": 120, "channel": 0}, {"type": "note_off", "time": 92, "note": 72, "velocity": 120, "channel": 0}, {"type": "note_on", "time": 12, "note": 74, "velocity": 95, "channel": 0}, {"type": "note_off", "time": 264, "note": 74, "velocity": 95, "channel": 0}, {"type": "note_on", "time": 215, "note": 72, "velocity": 112, "channel": 0}, {"type": "note_off", "time": 88, "note": 72, "velocity": 112, "channel": 0}, {"type": "note_on", "time": 16, "note": 74, "velocity": 120, "channel": 0}, {"type": "note_off", "time": 78, "note": 74, "velocity": 120, "channel": 0}, {"type": "note_on", "time": 8, "note": 75, "velocity": 124, "channel": 0}, {"type": "note_off", "time": 94, "note": 75, "velocity": 124, "channel": 0}, {"type": "note_on", "time": 16, "note": 68, "velocity": 115, "channel": 0}, {"type": "note_off", "time": 76, "note": 68, "velocity": 115, "channel": 0}, {"type": "note_on", "time": 8, "note": 67, "velocity": 110, "channel": 0}, {"type": "note_off", "time": 74, "note": 67, "velocity": 110, "channel": 0}, {"type": "note_on", "time": 27, "note": 65, "velocity": 109, "channel": 0}, {"type": "note_off", "time": 69, "note": 65, "velocity": 109, "channel": 0}, {"type": "note_on", "time": 18, "note": 72, "velocity": 119, "channel": 0}, {"type": "note_off", "time": 90, "note": 72, "velocity": 119, "channel": 0}, {"type": "note_on", "time": 11, "note": 70, "velocity": 104, "channel": 0}, {"type": "note_off", "time": 256, "note": 70, "velocity": 104, "channel": 0}, {"type": "note_on", "time": 223, "note": 66, "velocity": 117, "channel": 0}, {"type": "note_off", "time": 82, "note": 66, "velocity": 117, "channel": 0}, {"type": "note_on", "time": 10, "note": 67, "velocity": 108, "channel": 0}, {"type": "note_off", "time": 50, "note": 67, "velocity": 108, "channel": 0}, {"type": "note_on", "time": 32, "note": 70, "velocity": 124, "channel": 0}, {"type": "note_off", "time": 92, "note": 70, "velocity": 124, "channel": 0}, {"type": "note_on", "time": 25, "note": 68, "velocity": 113, "channel": 0}, {"type": "note_off", "time": 56, "note": 68, "velocity": 113, "channel": 0}, {"type": "note_on", "time": 37, "note": 70, "velocity": 107, "channel": 0}, {"type": "note_off", "time": 179, "note": 70, "velocity": 107, "channel": 0}, {"type": "note_on", "time": 183, "note": 70, "velocity": 120, "channel": 0}, {"type": "note_off", "time": 101, "note": 70, "velocity": 120, "channel": 0}, {"type": "note_on", "time": 11, "note": 70, "velocity": 120, "channel": 0}, {"type": "note_off", "time": 96, "note": 70, "velocity": 120, "channel": 0}, {"type": "note_on", "time": 148, "note": 71, "velocity": 119, "channel": 0}, {"type": "note_off", "time": 29, "note": 71, "velocity": 119, "channel": 0}, {"type": "note_on", "time": 10, "note": 72, "velocity": 114, "channel": 0}, {"type": "note_off", "time": 98, "note": 72, "velocity": 114, "channel": 0}, {"type": "end_of_track", "time": 0}]]}