{"ticks_per_beat": 192, "tracks": [[{"type": "track_name", "name": "Melody", "time": 0}, {"type": "set_tempo", "tempo": 372670, "time": 0}, {"type": "key_signature", "key": "Bb", "time": 0}, {"type": "time_signature", "numerator": 4, "denominator": 4, "clocks_per_click": 24, "notated_32nd_notes_per_beat": 8, "time": 0}, {"type": "note_on", "time": 1899, "note": 63, "velocity": 120, "channel": 0}, {"type": "note_off", "time": 86, "note": 63, "velocity": 120, "channel": 0}, {"type": "note_on", "time": 68, "note": 68, "velocity": 117, "channel": 0}, {"type": "note_off", "time": 50, "note": 68, "velocity": 117, "channel": 0}, {"type": "note_on", "time": 10, "note": 70, "velocity": 109, "channel": 0}, {"type": "note_off", "time": 49, "note": 70, "velocity": 109, "channel": 0}, {"type": "note_on", "time": 14, "note": 73, "velocity": 118, "channel": 0}, {"type": "note_off", "time": 28, "note": 73, "velocity": 118, "channel": 0}, {"type": "note_on", "time": 16, "note": 75, "velocity": 126, "channel": 0}, {"type": "note_off", "time": 206, "note": 75, "velocity": 126, "channel": 0}, {"type": "note_on", "time": 26, "note": 71, "velocity": 106, "channel": 0}, {"type": "note_off", "time": 23, "note": 71, "velocity": 106, "channel": 0}, {"type": "note_on", "time": 16, "note": 73, "velocity": 105, "channel": 0}, {"type": "note_off", "time": 40, "note": 73, "velocity": 105, "channel": 0}, {"type": "note_on", "time": 34, "note": 70, "velocity": 111, "channel": 0}, {"type": "note_off", "time": 113, "note": 70, "velocity": 111, "channel": 0}, {"type": "note_on", "time": 22, "note": 68, "velocity": 109, "channel": 0}, {"type": "note_off", "time": 49, "note": 68, "velocity": 109, "channel": 0}, {"type": "note_on", "time": 689, "note": 63, "velocity": 121, "channel": 0}, {"type": "note_off", "time": 59, "note": 63, "velocity": 121, "channel": 0}, {"type": "note_on", "time": 107, "note": 67, "velocity": 113, "channel": 0}, {"type": "note_off", "time": 43, "note": 67, "velocity": 113, "channel": 0}, {"type": "note_on", "time": 18, "note": 70, "velocity": 112, "channel": 0}, {"type": "note_off", "time": 48, "note": 70, "velocity": 112, "channel": 0}, {"type": "note_on", "time": 33, "note": 74, "velocity": 118, "channel": 0}, {"type": "note_off", "time": 28, "note": 74, "velocity": 118, "channel": 0}, {"type": "note_on", "time": 9, "note": 75, "velocity": 123, "channel": 0}, {"type": "note_off", "time": 168, "note": 75, "velocity": 123, "channel": 0}, {"type": "note_on", "time": 40, "note": 73, "velocity": 105, "channel": 0}, {"type": "note_off", "time": 31, "note": 73, "velocity": 105, "channel": 0}, {"type": "note_on", "time": 80, "note": 70, "velocity": 110, "channel": 0}, {"type": "note_off", "time": 98, "note": 70, "velocity": 110, "channel": 0}, {"type": "note_on", "time": 29, "note": 68, "velocity": 111, "channel": 0}, {"type": "note_off", "time": 23, "note": 68, "velocity": 111, "channel": 0}, {"type": "note_on", "time": 89, "note": 65, "velocity": 116, "channel": 0}, {"type": "note_off", "time": 46, "note": 65, "velocity": 116, "channel": 0}, {"type": "note_on", "time": 80, "note": 63, "velocity": 115, "channel": 0}, {"type": "note_off", "time": 121, "note": 63, "velocity": 115, "channel": 0}, {"type": "note_on", "time": 10, "note": 61, "velocity": 115, "channel": 0}, {"type": "note_off", "time": 59, "note": 61, "velocity": 115, "channel": 0}, {"type": "note_on", "time": 71, "note": 58, "velocity": 88, "channel": 0}, {"type": "note_off", "time": 113, "note": 58, "velocity": 88, "channel": 0}, {"type": "note_on", "time": 602, "note": 69, "velocity": 117, "channel": 0}, {"type": "note_off", "time": 40, "note": 69, "velocity": 117, "channel": 0}, {"type": "note_on", "time": 11, "note": 67, "velocity": 113, "channel": 0}, {"type": "note_off", "time": 37, "note": 67, "velocity": 113, "channel": 0}, {"type": "note_on", "time": 17, "note": 65, "velocity": 112, "channel": 0}, {"type": "note_off", "time": 23, "note": 65, "velocity": 112, "channel": 0}, {"type": "note_on", "time": 26, "note": 63, "velocity": 119, "channel": 0}, {"type": "note_off", "time": 37, "note": 63, "velocity": 119, "channel": 0}, {"type": "note_on", "time": 19, "note": 62, "velocity": 104, "channel": 0}, {"type": "note_off", "time": 65, "note": 62, "velocity": 104, "channel": 0}, {"type": "note_on", "time": 454, "note": 68, "velocity": 118, "channel": 0}, {"type": "note_off", "time": 53, "note": 68, "velocity": 118, "channel": 0}, {"type": "note_on", "time": 5, "note": 67, "velocity": 111, "channel": 0}, {"type": "note_off", "time": 14, "note": 67, "velocity": 111, "channel": 0}, {"type": "note_on", "time": 12, "note": 66, "velocity": 113, "channel": 0}, {"type": "note_off", "time": 50, "note": 66, "velocity": 113, "channel": 0}, {"type": "note_on", "time": 14, "note": 68, "velocity": 116, "channel": 0}, {"type": "note_off", "time": 61, "note": 68, "velocity": 116, "channel": 0}, {"type": "note_on", "time": 8, "note": 67, "velocity": 110, "channel": 0}, {"type": "note_off", "time": 43, "note": 67, "velocity": 110, "channel": 0}, {"type": "note_on", "time": 13, "note": 66, "velocity": 109, "channel": 0}, {"type": "note_off", "time": 47, "note": 66, "velocity": 109, "channel": 0}, {"type": "note_on", "time": 5, "note": 65, "velocity": 97, "channel": 0}, {"type": "note_off", "time": 18, "note": 65, "velocity": 97, "channel": 0}, {"type": "note_on", "time": 5, "note": 64, "velocity": 122, "channel": 0}, {"type": "note_off", "time": 51, "note": 64, "velocity": 122, "channel": 0}, {"type": "note_on", "time": 7, "note": 63, "velocity": 119, "channel": 0}, {"type": "note_off", "time": 39, "note": 63, "velocity": 119, "channel": 0}, {"type": "note_on", "time": 12, "note": 65, "velocity": 113, "channel": 0}, {"type": "note_off", "time": 23, "note": 65, "velocity": 113, "channel": 0}, {"type": "note_on", "time": 5, "note": 66, "velocity": 109, "channel": 0}, {"type": "note_off", "time": 45, "note": 66, "velocity": 109, "channel": 0}, {"type": "note_on", "time": 5, "note": 64, "velocity": 103, "channel": 0}, {"type": "note_off", "time": 37, "note": 64, "velocity": 103, "channel": 0}, {"type": "note_on", "time": 5, "note": 65, "velocity": 116, "channel": 0}, {"type": "note_off", "time": 50, "note": 65, "velocity": 116, "channel": 0}, {"type": "note_on", "time": 8, "note": 64, "velocity": 122, "channel": 0}, {"type": "note_off", "time": 46, "note": 64, "velocity": 122, "channel": 0}, {"type": "note_on", "time": 7, "note": 63, "velocity": 119, "channel": 0}, {"type": "note_off", "time": 39, "note": 63, "velocity": 119, "channel": 0}, {"type": "note_on", "time": 6, "note": 67, "velocity": 112, "channel": 0}, {"type": "note_off", "time": 51, "note": 67, "velocity": 112, "channel": 0}, {"type": "note_on", "time": 13, "note": 65, "velocity": 113, "channel": 0}, {"type": "note_off", "time": 26, "note": 65, "velocity": 113, "channel": 0}, {"type": "note_on", "time": 4, "note": 63, "velocity": 119, "channel": 0}, {"type": "note_off", "time": 44, "note": 63, "velocity": 119, "channel": 0}, {"type": "note_on", "time": 8, "note": 62, "velocity": 117, "channel": 0}, {"type": "note_off", "time": 29, "note": 62, "velocity": 117, "channel": 0}, {"type": "note_on", "time": 8, "note": 60, "velocity": 107, "channel": 0}, {"type": "note_off", "time": 55, "note": 60, "velocity": 107, "channel": 0}, {"type": "note_on", "time": 1, "note": 58, "velocity": 102, "channel": 0}, {"type": "note_off", "time": 28, "note": 58, "velocity": 102, "channel": 0}, {"type": "note_on", "time": 9, "note": 54, "velocity": 101, "channel": 0}, {"type": "note_off", "time": 26, "note": 54, "velocity": 101, "channel": 0}, {"type": "note_on", "time": 7, "note": 53, "velocity": 106, "channel": 0}, {"type": "note_off", "time": 49, "note": 53, "velocity": 106, "channel": 0}, {"type": "note_on", "time": 5, "note": 51, "velocity": 101, "channel": 0}, {"type": "note_off", "time": 35, "note": 51, "velocity": 101, "channel": 0}, {"type": "note_on", "time": 6, "note": 50, "velocity": 100, "channel": 0}, {"type": "note_off", "time": 50, "note": 50, "velocity": 100, "channel": 0}, {"type": "note_on", "time": 12, "note": 53, "velocity": 100, "channel": 0}, {"type": "note_off", "time": 25, "note": 53, "velocity": 100, "channel": 0}, {"type": "note_on", "time": 9, "note": 57, "velocity": 102, "channel": 0}, {"type": "note_off", "time": 33, "note": 57, "velocity": 102, "channel": 0}, {"type": "note_on", "time": 47, "note": 58, "velocity": 93, "channel": 0}, {"type": "note_off", "time": 196, "note": 58, "velocity": 93, "channel": 0}, {"type": "note_on", "time": 797, "note": 62, "velocity": 119, "channel": 0}, {"type": "note_off", "time": 29, "note": 62, "velocity": 119, "channel": 0}, {"type": "note_on", "time": 3, "note": 63, "velocity": 120, "channel": 0}, {"type": "note_off", "time": 41, "note": 63, "velocity": 120, "channel": 0}, {"type": "note_on", "time": 23, "note": 69, "velocity": 114, "channel": 0}, {"type": "note_off", "time": 46, "note": 69, "velocity": 114, "channel": 0}, {"type": "note_on", "time": 8, "note": 70, "velocity": 110, "channel": 0}, {"type": "note_off", "time": 65, "note": 70, "velocity": 110, "channel": 0}, {"type": "note_on", "time": 121, "note": 58, "velocity": 95, "channel": 0}, {"type": "note_off", "time": 112, "note": 58, "velocity": 95, "channel": 0}, {"type": "note_on", "time": 9, "note": 66, "velocity": 118, "channel": 0}, {"type": "note_off", "time": 35, "note": 66, "velocity": 118, "channel": 0}, {"type": "note_on", "time": 6, "note": 67, "velocity": 109, "channel": 0}, {"type": "note_off", "time": 316, "note": 67, "velocity": 109, "channel": 0}, {"type": "note_on", "time": 21, "note": 62, "velocity": 121, "channel": 0}, {"type": "note_off", "time": 68, "note": 62, "velocity": 121, "channel": 0}, {"type": "note_on", "time": 15, "note": 65, "velocity": 100, "channel": 0}, {"type": "note_off", "time": 26, "note": 65, "velocity": 100, "channel": 0}, {"type": "note_on", "time": 7, "note": 66, "velocity": 100, "channel": 0}, {"type": "note_off", "time": 29, "note": 66, "velocity": 100, "channel": 0}, {"type": "note_on", "time": 8, "note": 65, "velocity": 108, "channel": 0}, {"type": "note_off", "time": 39, "note": 65, "velocity": 108, "channel": 0}, {"type": "note_on", "time": 10, "note": 63, "velocity": 118, "channel": 0}, {"type": "note_off", "time": 73, "note": 63, "velocity": 118, "channel": 0}, {"type": "note_on", "time": 20, "note": 58, "velocity": 99, "channel": 0}, {"type": "note_off", "time": 68, "note": 58, "velocity": 99, "channel": 0}, {"type": "note_on", "time": 20, "note": 55, "velocity": 96, "channel": 0}, {"type": "note_off", "time": 48, "note": 55, "velocity": 96, "channel": 0}, {"type": "note_on", "time": 14, "note": 62, "velocity": 117, "channel": 0}, {"type": "note_off", "time": 96, "note": 62, "velocity": 117, "channel": 0}, {"type": "note_on", "time": 9, "note": 61, "velocity": 116, "channel": 0}, {"type": "note_off", "time": 86, "note": 61, "velocity": 116, "channel": 0}, {"type": "note_on", "time": 30, "note": 57, "velocity": 98, "channel": 0}, {"type": "note_off", "time": 68, "note": 57, "velocity": 98, "channel": 0}, {"type": "note_on", "time": 35, "note": 55, "velocity": 93, "channel": 0}, {"type": "note_off", "time": 39, "note": 55, "velocity": 93, "channel": 0}, {"type": "note_on", "time": 25, "note": 58, "velocity": 92, "channel": 0}, {"type": "note_off", "time": 92, "note": 58, "velocity": 92, "channel": 0}, {"type": "note_on", "time": 19, "note": 60, "velocity": 117, "channel": 0}, {"type": "note_off", "time": 77, "note": 60, "velocity": 117, "channel": 0}, {"type": "note_on", "time": 11, "note": 62, "velocity": 116, "channel": 0}, {"type": "note_off", "time": 103, "note": 62, "velocity": 116, "channel": 0}, {"type": "note_on", "time": 10, "note": 65, "velocity": 115, "channel": 0}, {"type": "note_off", "time": 61, "note": 65, "velocity": 115, "channel": 0}, {"type": "note_on", "time": 18, "note": 61, "velocity": 113, "channel": 0}, {"type": "note_off", "time": 115, "note": 61, "velocity": 113, "channel": 0}, {"type": "note_on", "time": 14, "note": 63, "velocity": 95, "channel": 0}, {"type": "note_off", "time": 47, "note": 63, "velocity": 95, "channel": 0}, {"type": "note_on", "time": 8, "note": 65, "velocity": 110, "channel": 0}, {"type": "note_off", "time": 108, "note": 65, "velocity": 110, "channel": 0}, {"type": "note_on", "time": 15, "note": 68, "velocity": 113, "channel": 0}, {"type": "note_off", "time": 75, "note": 68, "velocity": 113, "channel": 0}, {"type": "note_on", "time": 19, "note": 66, "velocity": 107, "channel": 0}, {"type": "note_off", "time": 104, "note": 66, "velocity": 107, "channel": 0}, {"type": "note_on", "time": 8, "note": 68, "velocity": 88, "channel": 0}, {"type": "note_off", "time": 38, "note": 68, "velocity": 88, "channel": 0}, {"type": "note_on", "time": 20, "note": 70, "velocity": 105, "channel": 0}, {"type": "note_off", "time": 97, "note": 70, "velocity": 105, "channel": 0}, {"type": "note_on", "time": 28, "note": 73, "velocity": 107, "channel": 0}, {"type": "note_off", "time": 74, "note": 73, "velocity": 107, "channel": 0}, {"type": "note_on", "time": 26, "note": 71, "velocity": 108, "channel": 0}, {"type": "note_off", "time": 76, "note": 71, "velocity": 108, "channel": 0}, {"type": "note_on", "time": 17, "note": 69, "velocity": 112, "channel": 0}, {"type": "note_off", "time": 85, "note": 69, "velocity": 112, "channel": 0}, {"type": "note_on", "time": 10, "note": 68, "velocity": 111, "channel": 0}, {"type": "note_off", "time": 90, "note": 68, "velocity": 111, "channel": 0}, {"type": "note_on", "time": 23, "note": 66, "velocity": 106, "channel": 0}, {"type": "note_off", "time": 68, "note": 66, "velocity": 106, "channel": 0}, {"type": "note_on", "time": 14, "note": 65, "velocity": 108, "channel": 0}, {"type": "note_off", "time": 102, "note": 65, "velocity": 108, "channel": 0}, {"type": "note_on", "time": 21, "note": 67, "velocity": 86, "channel": 0}, {"type": "note_off", "time": 35, "note": 67, "velocity": 86, "channel": 0}, {"type": "note_on", "time": 23, "note": 68, "velocity": 111, "channel": 0}, {"type": "note_off", "time": 99, "note": 68, "velocity": 111, "channel": 0}, {"type": "note_on", "time": 103, "note": 70, "velocity": 109, "channel": 0}, {"type": "note_off", "time": 91, "note": 70, "velocity": 109, "channel": 0}, {"type": "note_on", "time": 11, "note": 66, "velocity": 109, "channel": 0}, {"type": "note_off", "time": 74, "note": 66, "velocity": 109, "channel": 0}, {"type": "note_on", "time": 19, "note": 62, "velocity": 116, "channel": 0}, {"type": "note_off", "time": 118, "note": 62, "velocity": 116, "channel": 0}, {"type": "note_on", "time": 53, "note": 63, "velocity": 110, "channel": 0}, {"type": "note_off", "time": 196, "note": 63, "velocity": 110, "channel": 0}, {"type": "note_on", "time": 1083, "note": 65, "velocity": 121, "channel": 0}, {"type": "note_off", "time": 67, "note": 65, "velocity": 121, "channel": 0}, {"type": "note_on", "time": 35, "note": 69, "velocity": 113, "channel": 0}, {"type": "note_off", "time": 68, "note": 69, "velocity": 113, "channel": 0}, {"type": "note_on", "time": 35, "note": 74, "velocity": 107, "channel": 0}, {"type": "note_off", "time": 80, "note": 74, "velocity": 107, "channel": 0}, {"type": "note_on", "time": 12, "note": 70, "velocity": 108, "channel": 0}, {"type": "note_off", "time": 74, "note": 70, "velocity": 108, "channel": 0}, {"type": "note_on", "time": 22, "note": 65, "velocity": 115, "channel": 0}, {"type": "note_off", "time": 71, "note": 65, "velocity": 115, "channel": 0}, {"type": "note_on", "time": 11, "note": 62, "velocity": 120, "channel": 0}, {"type": "note_off", "time": 142, "note": 62, "velocity": 120, "channel": 0}, {"type": "note_on", "time": 16, "note": 63, "velocity": 118, "channel": 0}, {"type": "note_off", "time": 120, "note": 63, "velocity": 118, "channel": 0}, {"type": "note_on", "time": 14, "note": 62, "velocity": 115, "channel": 0}, {"type": "note_off", "time": 59, "note": 62, "velocity": 115, "channel": 0}, {"type": "note_on", "time": 29, "note": 58, "velocity": 92, "channel": 0}, {"type": "note_off", "time": 90, "note": 58, "velocity": 92, "channel": 0}, {"type": "note_on", "time": 89, "note": 56, "velocity": 104, "channel": 0}, {"type": "note_off", "time": 27, "note": 56, "velocity": 104, "channel": 0}, {"type": "note_on", "time": 4, "note": 57, "velocity": 98, "channel": 0}, {"type": "note_off", "time": 111, "note": 57, "velocity": 98, "channel": 0}, {"type": "note_on", "time": 382, "note": 53, "velocity": 109, "channel": 0}, {"type": "note_off", "time": 53, "note": 53, "velocity": 109, "channel": 0}, {"type": "note_on", "time": 6, "note": 54, "velocity": 100, "channel": 0}, {"type": "note_off", "time": 37, "note": 54, "velocity": 100, "channel": 0}, {"type": "note_on", "time": 14, "note": 56, "velocity": 92, "channel": 0}, {"type": "note_off", "time": 45, "note": 56, "velocity": 92, "channel": 0}, {"type": "note_on", "time": 14, "note": 62, "velocity": 119, "channel": 0}, {"type": "note_off", "time": 28, "note": 62, "velocity": 119, "channel": 0}, {"type": "note_on", "time": 8, "note": 63, "velocity": 117, "channel": 0}, {"type": "note_off", "time": 62, "note": 63, "velocity": 117, "channel": 0}, {"type": "note_on", "time": 18, "note": 66, "velocity": 109, "channel": 0}, {"type": "note_off", "time": 79, "note": 66, "velocity": 109, "channel": 0}, {"type": "note_on", "time": 14, "note": 69, "velocity": 107, "channel": 0}, {"type": "note_off", "time": 69, "note": 69, "velocity": 107, "channel": 0}, {"type": "note_on", "time": 32, "note": 74, "velocity": 104, "channel": 0}, {"type": "note_off", "time": 64, "note": 74, "velocity": 104, "channel": 0}, {"type": "note_on", "time": 44, "note": 77, "velocity": 106, "channel": 0}, {"type": "note_off", "time": 66, "note": 77, "velocity": 106, "channel": 0}, {"type": "note_on", "time": 16, "note": 75, "velocity": 114, "channel": 0}, {"type": "note_off", "time": 86, "note": 75, "velocity": 114, "channel": 0}, {"type": "note_on", "time": 12, "note": 77, "velocity": 106, "channel": 0}, {"type": "note_off", "time": 32, "note": 77, "velocity": 106, "channel": 0}, {"type": "note_on", "time": 8, "note": 75, "velocity": 113, "channel": 0}, {"type": "note_off", "time": 65, "note": 75, "velocity": 113, "channel": 0}, {"type": "note_on", "time": 6, "note": 74, "velocity": 102, "channel": 0}, {"type": "note_off", "time": 68, "note": 74, "velocity": 102, "channel": 0}, {"type": "note_on", "time": 25, "note": 72, "velocity": 104, "channel": 0}, {"type": "note_off", "time": 60, "note": 72, "velocity": 104, "channel": 0}, {"type": "note_on", "time": 32, "note": 71, "velocity": 107, "channel": 0}, {"type": "note_off", "time": 78, "note": 71, "velocity": 107, "channel": 0}, {"type": "note_on", "time": 34, "note": 67, "velocity": 97, "channel": 0}, {"type": "note_off", "time": 30, "note": 67, "velocity": 97, "channel": 0}, {"type": "note_on", "time": 9, "note": 69, "velocity": 111, "channel": 0}, {"type": "note_off", "time": 87, "note": 69, "velocity": 111, "channel": 0}, {"type": "note_on", "time": 18, "note": 65, "velocity": 115, "channel": 0}, {"type": "note_off", "time": 70, "note": 65, "velocity": 115, "channel": 0}, {"type": "note_on", "time": 27, "note": 62, "velocity": 117, "channel": 0}, {"type": "note_off", "time": 91, "note": 62, "velocity": 117, "channel": 0}, {"type": "note_on", "time": 8, "note": 60, "velocity": 114, "channel": 0}, {"type": "note_off", "time": 74, "note": 60, "velocity": 114, "channel": 0}, {"type": "note_on", "time": 12, "note": 59, "velocity": 97, "channel": 0}, {"type": "note_off", "time": 103, "note": 59, "velocity": 97, "channel": 0}, {"type": "note_on", "time": 62, "note": 56, "velocity": 92, "channel": 0}, {"type": "note_off", "time": 23, "note": 56, "velocity": 92, "channel": 0}, {"type": "note_on", "time": 10, "note": 57, "velocity": 97, "channel": 0}, {"type": "note_off", "time": 69, "note": 57, "velocity": 97, "channel": 0}, {"type": "note_on", "time": 23, "note": 53, "velocity": 101, "channel": 0}, {"type": "note_off", "time": 68, "note": 53, "velocity": 101, "channel": 0}, {"type": "note_on", "time": 27, "note": 50, "velocity": 95, "channel": 0}, {"type": "note_off", "time": 98, "note": 50, "velocity": 95, "channel": 0}, {"type": "note_on", "time": 6, "note": 48, "velocity": 91, "channel": 0}, {"type": "note_off", "time": 57, "note": 48, "velocity": 91, "channel": 0}, {"type": "note_on", "time": 37, "note": 47, "velocity": 92, "channel": 0}, {"type": "note_off", "time": 146, "note": 47, "velocity": 92, "channel": 0}, {"type": "note_on", "time": 21, "note": 55, "velocity": 98, "channel": 0}, {"type": "note_off", "time": 138, "note": 55, "velocity": 98, "channel": 0}, {"type": "note_on", "time": 15, "note": 52, "velocity": 90, "channel": 0}, {"type": "note_off", "time": 184, "note": 52, "velocity": 90, "channel": 0}, {"type": "note_on", "time": 820, "note": 64, "velocity": 124, "channel": 0}, {"type": "note_off", "time": 59, "note": 64, "velocity": 124, "channel": 0}, {"type": "note_on", "time": 4, "note": 65, "velocity": 113, "channel": 0}, {"type": "note_off", "time": 26, "note": 65, "velocity": 113, "channel": 0}, {"type": "note_on", "time": 8, "note": 67, "velocity": 111, "channel": 0}, {"type": "note_off", "time": 41, "note": 67, "velocity": 111, "channel": 0}, {"type": "note_on", "time": 10, "note": 64, "velocity": 121, "channel": 0}, {"type": "note_off", "time": 60, "note": 64, "velocity": 121, "channel": 0}, {"type": "note_on", "time": 11, "note": 57, "velocity": 101, "channel": 0}, {"type": "note_off", "time": 28, "note": 57, "velocity": 101, "channel": 0}, {"type": "note_on", "time": 21, "note": 60, "velocity": 106, "channel": 0}, {"type": "note_off", "time": 28, "note": 60, "velocity": 106, "channel": 0}, {"type": "note_on", "time": 10, "note": 64, "velocity": 113, "channel": 0}, {"type": "note_off", "time": 35, "note": 64, "velocity": 113, "channel": 0}, {"type": "note_on", "time": 3, "note": 67, "velocity": 104, "channel": 0}, {"type": "note_off", "time": 16, "note": 67, "velocity": 104, "channel": 0}, {"type": "note_on", "time": 8, "note": 69, "velocity": 118, "channel": 0}, {"type": "note_off", "time": 39, "note": 69, "velocity": 118, "channel": 0}, {"type": "note_on", "time": 4, "note": 70, "velocity": 105, "channel": 0}, {"type": "note_off", "time": 8, "note": 70, "velocity": 105, "channel": 0}, {"type": "note_on", "time": 7, "note": 74, "velocity": 105, "channel": 0}, {"type": "note_off", "time": 48, "note": 74, "velocity": 105, "channel": 0}, {"type": "note_on", "time": 1, "note": 72, "velocity": 105, "channel": 0}, {"type": "note_off", "time": 13, "note": 72, "velocity": 105, "channel": 0}, {"type": "note_on", "time": 22, "note": 70, "velocity": 112, "channel": 0}, {"type": "note_off", "time": 42, "note": 70, "velocity": 112, "channel": 0}, {"type": "note_on", "time": 7, "note": 69, "velocity": 111, "channel": 0}, {"type": "note_off", "time": 43, "note": 69, "velocity": 111, "channel": 0}, {"type": "note_on", "time": 9, "note": 67, "velocity": 113, "channel": 0}, {"type": "note_off", "time": 36, "note": 67, "velocity": 113, "channel": 0}, {"type": "note_on", "time": 6, "note": 65, "velocity": 116, "channel": 0}, {"type": "note_off", "time": 34, "note": 65, "velocity": 116, "channel": 0}, {"type": "note_on", "time": 11, "note": 64, "velocity": 122, "channel": 0}, {"type": "note_off", "time": 53, "note": 64, "velocity": 122, "channel": 0}, {"type": "note_on", "time": 8, "note": 63, "velocity": 113, "channel": 0}, {"type": "note_off", "time": 34, "note": 63, "velocity": 113, "channel": 0}, {"type": "note_on", "time": 10, "note": 65, "velocity": 113, "channel": 0}, {"type": "note_off", "time": 32, "note": 65, "velocity": 113, "channel": 0}, {"type": "note_on", "time": 10, "note": 67, "velocity": 113, "channel": 0}, {"type": "note_off", "time": 33, "note": 67, "velocity": 113, "channel": 0}, {"type": "note_on", "time": 11, "note": 63, "velocity": 110, "channel": 0}, {"type": "note_off", "time": 25, "note": 63, "velocity": 110, "channel": 0}, {"type": "note_on", "time": 5, "note": 64, "velocity": 112, "channel": 0}, {"type": "note_off", "time": 8, "note": 64, "velocity": 112, "channel": 0}, {"type": "note_on", "time": 4, "note": 65, "velocity": 115, "channel": 0}, {"type": "note_off", "time": 34, "note": 65, "velocity": 115, "channel": 0}, {"type": "note_on", "time": 6, "note": 64, "velocity": 122, "channel": 0}, {"type": "note_off", "time": 41, "note": 64, "velocity": 122, "channel": 0}, {"type": "note_on", "time": 9, "note": 63, "velocity": 119, "channel": 0}, {"type": "note_off", "time": 37, "note": 63, "velocity": 119, "channel": 0}, {"type": "note_on", "time": 11, "note": 67, "velocity": 107, "channel": 0}, {"type": "note_off", "time": 39, "note": 67, "velocity": 107, "channel": 0}, {"type": "note_on", "time": 7, "note": 65, "velocity": 114, "channel": 0}, {"type": "note_off", "time": 44, "note": 65, "velocity": 114, "channel": 0}, {"type": "note_on", "time": 12, "note": 63, "velocity": 116, "channel": 0}, {"type": "note_off", "time": 44, "note": 63, "velocity": 116, "channel": 0}, {"type": "note_on", "time": 10, "note": 58, "velocity": 100, "channel": 0}, {"type": "note_off", "time": 34, "note": 58, "velocity": 100, "channel": 0}, {"type": "note_on", "time": 12, "note": 55, "velocity": 99, "channel": 0}, {"type": "note_off", "time": 29, "note": 55, "velocity": 99, "channel": 0}, {"type": "note_on", "time": 9, "note": 60, "velocity": 116, "channel": 0}, {"type": "note_off", "time": 96, "note": 60, "velocity": 116, "channel": 0}, {"type": "note_on", "time": 221, "note": 62, "velocity": 117, "channel": 0}, {"type": "note_off", "time": 62, "note": 62, "velocity": 117, "channel": 0}, {"type": "note_on", "time": 21, "note": 63, "velocity": 118, "channel": 0}, {"type": "note_off", "time": 94, "note": 63, "velocity": 118, "channel": 0}, {"type": "note_on", "time": 16, "note": 65, "velocity": 114, "channel": 0}, {"type": "note_off", "time": 59, "note": 65, "velocity": 114, "channel": 0}, {"type": "note_on", "time": 19, "note": 65, "velocity": 112, "channel": 0}, {"type": "note_off", "time": 34, "note": 65, "velocity": 112, "channel": 0}, {"type": "note_on", "time": 15, "note": 66, "velocity": 107, "channel": 0}, {"type": "note_off", "time": 37, "note": 66, "velocity": 107, "channel": 0}, {"type": "note_on", "time": 5, "note": 67, "velocity": 95, "channel": 0}, {"type": "note_off", "time": 27, "note": 67, "velocity": 95, "channel": 0}, {"type": "note_on", "time": 11, "note": 66, "velocity": 107, "channel": 0}, {"type": "note_off", "time": 30, "note": 66, "velocity": 107, "channel": 0}, {"type": "note_on", "time": 12, "note": 65, "velocity": 110, "channel": 0}, {"type": "note_off", "time": 99, "note": 65, "velocity": 110, "channel": 0}, {"type": "note_on", "time": 30, "note": 70, "velocity": 108, "channel": 0}, {"type": "note_off", "time": 59, "note": 70, "velocity": 108, "channel": 0}, {"type": "note_on", "time": 414, "note": 65, "velocity": 117, "channel": 0}, {"type": "note_off", "time": 53, "note": 65, "velocity": 117, "channel": 0}, {"type": "note_on", "time": 7, "note": 62, "velocity": 118, "channel": 0}, {"type": "note_off", "time": 58, "note": 62, "velocity": 118, "channel": 0}, {"type": "note_on", "time": 6, "note": 63, "velocity": 110, "channel": 0}, {"type": "note_off", "time": 214, "note": 63, "velocity": 110, "channel": 0}, {"type": "note_on", "time": 50, "note": 68, "velocity": 113, "channel": 0}, {"type": "note_off", "time": 46, "note": 68, "velocity": 113, "channel": 0}, {"type": "note_on", "time": 11, "note": 67, "velocity": 109, "channel": 0}, {"type": "note_off", "time": 36, "note": 67, "velocity": 109, "channel": 0}, {"type": "note_on", "time": 14, "note": 66, "velocity": 103, "channel": 0}, {"type": "note_off", "time": 56, "note": 66, "velocity": 103, "channel": 0}, {"type": "note_on", "time": 213, "note": 64, "velocity": 121, "channel": 0}, {"type": "note_off", "time": 56, "note": 64, "velocity": 121, "channel": 0}, {"type": "note_on", "time": 11, "note": 65, "velocity": 109, "channel": 0}, {"type": "note_off", "time": 50, "note": 65, "velocity": 109, "channel": 0}, {"type": "note_on", "time": 7, "note": 66, "velocity": 106, "channel": 0}, {"type": "note_off", "time": 50, "note": 66, "velocity": 106, "channel": 0}, {"type": "note_on", "time": 210, "note": 64, "velocity": 123, "channel": 0}, {"type": "note_off", "time": 50, "note": 64, "velocity": 123, "channel": 0}, {"type": "note_on", "time": 11, "note": 65, "velocity": 111, "channel": 0}, {"type": "note_off", "time": 44, "note": 65, "velocity": 111, "channel": 0}, {"type": "note_on", "time": 2, "note": 66, "velocity": 106, "channel": 0}, {"type": "note_off", "time": 34, "note": 66, "velocity": 106, "channel": 0}, {"type": "note_on", "time": 12, "note": 64, "velocity": 104, "channel": 0}, {"type": "note_off", "time": 26, "note": 64, "velocity": 104, "channel": 0}, {"type": "note_on", "time": 4, "note": 65, "velocity": 116, "channel": 0}, {"type": "note_off", "time": 52, "note": 65, "velocity": 116, "channel": 0}, {"type": "note_on", "time": 2, "note": 64, "velocity": 122, "channel": 0}, {"type": "note_off", "time": 47, "note": 64, "velocity": 122, "channel": 0}, {"type": "note_on", "time": 5, "note": 63, "velocity": 117, "channel": 0}, {"type": "note_off", "time": 38, "note": 63, "velocity": 117, "channel": 0}, {"type": "note_on", "time": 10, "note": 67, "velocity": 110, "channel": 0}, {"type": "note_off", "time": 38, "note": 67, "velocity": 110, "channel": 0}, {"type": "note_on", "time": 14, "note": 65, "velocity": 112, "channel": 0}, {"type": "note_off", "time": 32, "note": 65, "velocity": 112, "channel": 0}, {"type": "note_on", "time": 8, "note": 62, "velocity": 115, "channel": 0}, {"type": "note_off", "time": 51, "note": 62, "velocity": 115, "channel": 0}, {"type": "note_on", "time": 12, "note": 59, "velocity": 100, "channel": 0}, {"type": "note_off", "time": 49, "note": 59, "velocity": 100, "channel": 0}, {"type": "note_on", "time": 28, "note": 63, "velocity": 119, "channel": 0}, {"type": "note_off", "time": 53, "note": 63, "velocity": 119, "channel": 0}, {"type": "note_on", "time": 9, "note": 62, "velocity": 113, "channel": 0}, {"type": "note_off", "time": 50, "note": 62, "velocity": 113, "channel": 0}, {"type": "note_on", "time": 11, "note": 55, "velocity": 101, "channel": 0}, {"type": "note_off", "time": 56, "note": 55, "velocity": 101, "channel": 0}, {"type": "note_on", "time": 8, "note": 60, "velocity": 114, "channel": 0}, {"type": "note_off", "time": 53, "note": 60, "velocity": 114, "channel": 0}, {"type": "note_on", "time": 10, "note": 62, "velocity": 115, "channel": 0}, {"type": "note_off", "time": 39, "note": 62, "velocity": 115, "channel": 0}, {"type": "note_on", "time": 5, "note": 63, "velocity": 116, "channel": 0}, {"type": "note_off", "time": 47, "note": 63, "velocity": 116, "channel": 0}, {"type": "note_on", "time": 8, "note": 64, "velocity": 118, "channel": 0}, {"type": "note_off", "time": 29, "note": 64, "velocity": 118, "channel": 0}, {"type": "note_on", "time": 3, "note": 65, "velocity": 111, "channel": 0}, {"type": "note_off", "time": 42, "note": 65, "velocity": 111, "channel": 0}, {"type": "note_on", "time": 10, "note": 64, "velocity": 120, "channel": 0}, {"type": "note_off", "time": 47, "note": 64, "velocity": 120, "channel": 0}, {"type": "note_on", "time": 9, "note": 63, "velocity": 116, "channel": 0}, {"type": "note_off", "time": 47, "note": 63, "velocity": 116, "channel": 0}, {"type": "note_on", "time": 6, "note": 67, "velocity": 108, "channel": 0}, {"type": "note_off", "time": 38, "note": 67, "velocity": 108, "channel": 0}, {"type": "note_on", "time": 10, "note": 65, "velocity": 110, "channel": 0}, {"type": "note_off", "time": 31, "note": 65, "velocity": 110, "channel": 0}, {"type": "note_on", "time": 8, "note": 63, "velocity": 115, "channel": 0}, {"type": "note_off", "time": 47, "note": 63, "velocity": 115, "channel": 0}, {"type": "note_on", "time": 6, "note": 62, "velocity": 113, "channel": 0}, {"type": "note_off", "time": 28, "note": 62, "velocity": 113, "channel": 0}, {"type": "note_on", "time": 2, "note": 60, "velocity": 109, "channel": 0}, {"type": "note_off", "time": 44, "note": 60, "velocity": 109, "channel": 0}, {"type": "note_on", "time": 11, "note": 57, "velocity": 101, "channel": 0}, {"type": "note_off", "time": 45, "note": 57, "velocity": 101, "channel": 0}, {"type": "note_on", "time": 6, "note": 60, "velocity": 105, "channel": 0}, {"type": "note_off", "time": 36, "note": 60, "velocity": 105, "channel": 0}, {"type": "note_on", "time": 10, "note": 62, "velocity": 104, "channel": 0}, {"type": "note_off", "time": 38, "note": 62, "velocity": 104, "channel": 0}, {"type": "note_on", "time": 11, "note": 65, "velocity": 98, "channel": 0}, {"type": "note_off", "time": 38, "note": 65, "velocity": 98, "channel": 0}, {"type": "note_on", "time": 9, "note": 70, "velocity": 109, "channel": 0}, {"type": "note_off", "time": 138, "note": 70, "velocity": 109, "channel": 0}, {"type": "note_on", "time": 13, "note": 65, "velocity": 98, "channel": 0}, {"type": "note_off", "time": 45, "note": 65, "velocity": 98, "channel": 0}, {"type": "note_on", "time": 11, "note": 68, "velocity": 114, "channel": 0}, {"type": "note_off", "time": 40, "note": 68, "velocity": 114, "channel": 0}, {"type": "note_on", "time": 2, "note": 67, "velocity": 108, "channel": 0}, {"type": "note_off", "time": 9, "note": 67, "velocity": 108, "channel": 0}, {"type": "note_on", "time": 5, "note": 62, "velocity": 104, "channel": 0}, {"type": "note_off", "time": 218, "note": 62, "velocity": 104, "channel": 0}, {"type": "note_on", "time": 112, "note": 63, "velocity": 119, "channel": 0}, {"type": "note_off", "time": 45, "note": 63, "velocity": 119, "channel": 0}, {"type": "note_on", "time": 22, "note": 70, "velocity": 110, "channel": 0}, {"type": "note_off", "time": 55, "note": 70, "velocity": 110, "channel": 0}, {"type": "note_on", "time": 62, "note": 70, "velocity": 107, "channel": 0}, {"type": "note_off", "time": 145, "note": 70, "velocity": 107, "channel": 0}, {"type": "note_on", "time": 29, "note": 64, "velocity": 120, "channel": 0}, {"type": "note_off", "time": 53, "note": 64, "velocity": 120, "channel": 0}, {"type": "note_on", "time": 10, "note": 70, "velocity": 107, "channel": 0}, {"type": "note_off", "time": 74, "note": 70, "velocity": 107, "channel": 0}, {"type": "note_on", "time": 65, "note": 70, "velocity": 108, "channel": 0}, {"type": "note_off", "time": 165, "note": 70, "velocity": 108, "channel": 0}, {"type": "note_on", "time": 16, "note": 65, "velocity": 110, "channel": 0}, {"type": "note_off", "time": 56, "note": 65, "velocity": 110, "channel": 0}, {"type": "note_on", "time": 14, "note": 70, "velocity": 110, "channel": 0}, {"type": "note_off", "time": 67, "note": 70, "velocity": 110, "channel": 0}, {"type": "note_on", "time": 73, "note": 70, "velocity": 92, "channel": 0}, {"type": "note_off", "time": 193, "note": 70, "velocity": 92, "channel": 0}, {"type": "note_on", "time": 937, "note": 65, "velocity": 116, "channel": 0}, {"type": "note_off", "time": 65, "note": 65, "velocity": 116, "channel": 0}, {"type": "note_on", "time": 5, "note": 67, "velocity": 99, "channel": 0}, {"type": "note_off", "time": 44, "note": 67, "velocity": 99, "channel": 0}, {"type": "note_on", "time": 15, "note": 70, "velocity": 108, "channel": 0}, {"type": "note_off", "time": 56, "note": 70, "velocity": 108, "channel": 0}, {"type": "note_on", "time": 42, "note": 72, "velocity": 88, "channel": 0}, {"type": "note_off", "time": 22, "note": 72, "velocity": 88, "channel": 0}, {"type": "note_on", "time": 8, "note": 75, "velocity": 122, "channel": 0}, {"type": "note_off", "time": 124, "note": 75, "velocity": 122, "channel": 0}, {"type": "note_on", "time": 37, "note": 72, "velocity": 104, "channel": 0}, {"type": "note_off", "time": 12, "note": 72, "velocity": 104, "channel": 0}, {"type": "note_on", "time": 2, "note": 73, "velocity": 109, "channel": 0}, {"type": "note_off", "time": 68, "note": 73, "velocity": 109, "channel": 0}, {"type": "note_on", "time": 44, "note": 70, "velocity": 113, "channel": 0}, {"type": "note_off", "time": 210, "note": 70, "velocity": 113, "channel": 0}, {"type": "note_on", "time": 419, "note": 63, "velocity": 120, "channel": 0}, {"type": "note_off", "time": 64, "note": 63, "velocity": 120, "channel": 0}, {"type": "note_on", "time": 11, "note": 65, "velocity": 103, "channel": 0}, {"type": "note_off", "time": 29, "note": 65, "velocity": 103, "channel": 0}, {"type": "note_on", "time": 23, "note": 68, "velocity": 109, "channel": 0}, {"type": "note_off", "time": 67, "note": 68, "velocity": 109, "channel": 0}, {"type": "note_on", "time": 44, "note": 72, "velocity": 106, "channel": 0}, {"type": "note_off", "time": 26, "note": 72, "velocity": 106, "channel": 0}, {"type": "note_on", "time": 4, "note": 73, "velocity": 109, "channel": 0}, {"type": "note_off", "time": 109, "note": 73, "velocity": 109, "channel": 0}, {"type": "note_on", "time": 20, "note": 70, "velocity": 112, "channel": 0}, {"type": "note_off", "time": 103, "note": 70, "velocity": 112, "channel": 0}, {"type": "note_on", "time": 20, "note": 66, "velocity": 111, "channel": 0}, {"type": "note_off", "time": 93, "note": 66, "velocity": 111, "channel": 0}, {"type": "note_on", "time": 46, "note": 63, "velocity": 118, "channel": 0}, {"type": "note_off", "time": 124, "note": 63, "velocity": 118, "channel": 0}, {"type": "note_on", "time": 106, "note": 66, "velocity": 110, "channel": 0}, {"type": "note_off", "time": 91, "note": 66, "velocity": 110, "channel": 0}, {"type": "note_on", "time": 6, "note": 65, "velocity": 113, "channel": 0}, {"type": "note_off", "time": 82, "note": 65, "velocity": 113, "channel": 0}, {"type": "note_on", "time": 4, "note": 62, "velocity": 115, "channel": 0}, {"type": "note_off", "time": 74, "note": 62, "velocity": 115, "channel": 0}, {"type": "note_on", "time": 19, "note": 59, "velocity": 97, "channel": 0}, {"type": "note_off", "time": 103, "note": 59, "velocity": 97, "channel": 0}, {"type": "note_on", "time": 83, "note": 60, "velocity": 112, "channel": 0}, {"type": "note_off", "time": 87, "note": 60, "velocity": 112, "channel": 0}, {"type": "note_on", "time": 17, "note": 62, "velocity": 115, "channel": 0}, {"type": "note_off", "time": 82, "note": 62, "velocity": 115, "channel": 0}, {"type": "note_on", "time": 11, "note": 63, "velocity": 117, "channel": 0}, {"type": "note_off", "time": 100, "note": 63, "velocity": 117, "channel": 0}, {"type": "note_on", "time": 6, "note": 64, "velocity": 120, "channel": 0}, {"type": "note_off", "time": 80, "note": 64, "velocity": 120, "channel": 0}, {"type": "note_on", "time": 6, "note": 65, "velocity": 112, "channel": 0}, {"type": "note_off", "time": 94, "note": 65, "velocity": 112, "channel": 0}, {"type": "note_on", "time": 17, "note": 61, "velocity": 112, "channel": 0}, {"type": "note_off", "time": 62, "note": 61, "velocity": 112, "channel": 0}, {"type": "note_on", "time": 43, "note": 57, "velocity": 98, "channel": 0}, {"type": "note_off", "time": 93, "note": 57, "velocity": 98, "channel": 0}, {"type": "note_on", "time": 54, "note": 58, "velocity": 89, "channel": 0}, {"type": "note_off", "time": 116, "note": 58, "velocity": 89, "channel": 0}, {"type": "note_on", "time": 14, "note": 60, "velocity": 113, "channel": 0}, {"type": "note_off", "time": 80, "note": 60, "velocity": 113, "channel": 0}, {"type": "note_on", "time": 15, "note": 62, "velocity": 117, "channel": 0}, {"type": "note_off", "time": 89, "note": 62, "velocity": 117, "channel": 0}, {"type": "note_on", "time": 25, "note": 65, "velocity": 112, "channel": 0}, {"type": "note_off", "time": 63, "note": 65, "velocity": 112, "channel": 0}, {"type": "note_on", "time": 12, "note": 70, "velocity": 111, "channel": 0}, {"type": "note_off", "time": 101, "note": 70, "velocity": 111, "channel": 0}, {"type": "note_on", "time": 89, "note": 68, "velocity": 9, "channel": 0}, {"type": "note_off", "time": 94, "note": 68, "velocity": 9, "channel": 0}, {"type": "note_on", "time": 8, "note": 70, "velocity": 107, "channel": 0}, {"type": "note_off", "time": 51, "note": 70, "velocity": 107, "channel": 0}, {"type": "note_on", "time": 34, "note": 64, "velocity": 103, "channel": 0}, {"type": "note_off", "time": 28, "note": 64, "velocity": 103, "channel": 0}, {"type": "note_on", "time": 6, "note": 67, "velocity": 111, "channel": 0}, {"type": "note_off", "time": 64, "note": 67, "velocity": 111, "channel": 0}, {"type": "note_on", "time": 28, "note": 63, "velocity": 117, "channel": 0}, {"type": "note_off", "time": 63, "note": 63, "velocity": 117, "channel": 0}, {"type": "note_on", "time": 115, "note": 60, "velocity": 114, "channel": 0}, {"type": "note_off", "time": 71, "note": 60, "velocity": 114, "channel": 0}, {"type": "note_on", "time": 21, "note": 60, "velocity": 115, "channel": 0}, {"type": "note_off", "time": 71, "note": 60, "velocity": 115, "channel": 0}, {"type": "note_on", "time": 2, "note": 61, "velocity": 113, "channel": 0}, {"type": "note_off", "time": 17, "note": 61, "velocity": 113, "channel": 0}, {"type": "note_on", "time": 3, "note": 62, "velocity": 116, "channel": 0}, {"type": "note_off", "time": 25, "note": 62, "velocity": 116, "channel": 0}, {"type": "note_on", "time": 6, "note": 61, "velocity": 118, "channel": 0}, {"type": "note_off", "time": 20, "note": 61, "velocity": 118, "channel": 0}, {"type": "note_on", "time": 8, "note": 60, "velocity": 110, "channel": 0}, {"type": "note_off", "time": 124, "note": 60, "velocity": 110, "channel": 0}, {"type": "note_on", "time": 16, "note": 55, "velocity": 96, "channel": 0}, {"type": "note_off", "time": 62, "note": 55, "velocity": 96, "channel": 0}, {"type": "note_on", "time": 2, "note": 60, "velocity": 109, "channel": 0}, {"type": "note_off", "time": 23, "note": 60, "velocity": 109, "channel": 0}, {"type": "note_on", "time": 3, "note": 62, "velocity": 116, "channel": 0}, {"type": "note_off", "time": 85, "note": 62, "velocity": 116, "channel": 0}, {"type": "note_on", "time": 12, "note": 65, "velocity": 94, "channel": 0}, {"type": "note_off", "time": 169, "note": 65, "velocity": 94, "channel": 0}, {"type": "note_on", "time": 1024, "note": 68, "velocity": 124, "channel": 0}, {"type": "note_off", "time": 44, "note": 68, "velocity": 124, "channel": 0}, {"type": "note_on", "time": 2, "note": 67, "velocity": 113, "channel": 0}, {"type": "note_off", "time": 63, "note": 67, "velocity": 113, "channel": 0}, {"type": "note_on", "time": 29, "note": 68, "velocity": 113, "channel": 0}, {"type": "note_off", "time": 92, "note": 68, "velocity": 113, "channel": 0}, {"type": "note_on", "time": 6, "note": 67, "velocity": 111, "channel": 0}, {"type": "note_off", "time": 118, "note": 67, "velocity": 111, "channel": 0}, {"type": "note_on", "time": 5, "note": 68, "velocity": 113, "channel": 0}, {"type": "note_off", "time": 63, "note": 68, "velocity": 113, "channel": 0}, {"type": "note_on", "time": 1, "note": 67, "velocity": 113, "channel": 0}, {"type": "note_off", "time": 65, "note": 67, "velocity": 113, "channel": 0}, {"type": "note_on", "time": 5, "note": 68, "velocity": 111, "channel": 0}, {"type": "note_off", "time": 73, "note": 68, "velocity": 111, "channel": 0}, {"type": "note_on", "time": 3, "note": 67, "velocity": 112, "channel": 0}, {"type": "note_off", "time": 100, "note": 67, "velocity": 112, "channel": 0}, {"type": "note_on", "time": 20, "note": 62, "velocity": 103, "channel": 0}, {"type": "note_off", "time": 62, "note": 62, "velocity": 103, "channel": 0}, {"type": "note_on", "time": 21, "note": 65, "velocity": 105, "channel": 0}, {"type": "note_off", "time": 207, "note": 65, "velocity": 105, "channel": 0}, {"type": "note_on", "time": 541, "note": 67, "velocity": 116, "channel": 0}, {"type": "note_off", "time": 50, "note": 67, "velocity": 116, "channel": 0}, {"type": "note_on", "time": 7, "note": 68, "velocity": 110, "channel": 0}, {"type": "note_off", "time": 524, "note": 68, "velocity": 110, "channel": 0}, {"type": "note_on", "time": 14, "note": 66, "velocity": 106, "channel": 0}, {"type": "note_off", "time": 78, "note": 66, "velocity": 106, "channel": 0}, {"type": "note_on", "time": 34, "note": 61, "velocity": 111, "channel": 0}, {"type": "note_off", "time": 82, "note": 61, "velocity": 111, "channel": 0}, {"type": "note_on", "time": 68, "note": 63, "velocity": 94, "channel": 0}, {"type": "note_off", "time": 362, "note": 63, "velocity": 94, "channel": 0}, {"type": "note_on", "time": 114, "note": 68, "velocity": 119, "channel": 0}, {"type": "note_off", "time": 56, "note": 68, "velocity": 119, "channel": 0}, {"type": "note_on", "time": 5, "note": 67, "velocity": 111, "channel": 0}, {"type": "note_off", "time": 15, "note": 67, "velocity": 111, "channel": 0}, {"type": "note_on", "time": 7, "note": 66, "velocity": 108, "channel": 0}, {"type": "note_off", "time": 37, "note": 66, "velocity": 108, "channel": 0}, {"type": "note_on", "time": 12, "note": 68, "velocity": 114, "channel": 0}, {"type": "note_off", "time": 37, "note": 68, "velocity": 114, "channel": 0}, {"type": "note_on", "time": 9, "note": 67, "velocity": 109, "channel": 0}, {"type": "note_off", "time": 29, "note": 67, "velocity": 109, "channel": 0}, {"type": "note_on", "time": 19, "note": 66, "velocity": 108, "channel": 0}, {"type": "note_off", "time": 30, "note": 66, "velocity": 108, "channel": 0}, {"type": "note_on", "time": 14, "note": 65, "velocity": 107, "channel": 0}, {"type": "note_off", "time": 32, "note": 65, "velocity": 107, "channel": 0}, {"type": "note_on", "time": 16, "note": 64, "velocity": 119, "channel": 0}, {"type": "note_off", "time": 45, "note": 64, "velocity": 119, "channel": 0}, {"type": "note_on", "time": 12, "note": 63, "velocity": 119, "channel": 0}, {"type": "note_off", "time": 62, "note": 63, "velocity": 119, "channel": 0}, {"type": "note_on", "time": 6, "note": 65, "velocity": 112, "channel": 0}, {"type": "note_off", "time": 22, "note": 65, "velocity": 112, "channel": 0}, {"type": "note_on", "time": 5, "note": 66, "velocity": 108, "channel": 0}, {"type": "note_off", "time": 29, "note": 66, "velocity": 108, "channel": 0}, {"type": "note_on", "time": 23, "note": 64, "velocity": 107, "channel": 0}, {"type": "note_off", "time": 26, "note": 64, "velocity": 107, "channel": 0}, {"type": "note_on", "time": 19, "note": 65, "velocity": 115, "channel": 0}, {"type": "note_off", "time": 39, "note": 65, "velocity": 115, "channel": 0}, {"type": "note_on", "time": 6, "note": 64, "velocity": 120, "channel": 0}, {"type": "note_off", "time": 34, "note": 64, "velocity": 120, "channel": 0}, {"type": "note_on", "time": 8, "note": 63, "velocity": 118, "channel": 0}, {"type": "note_off", "time": 41, "note": 63, "velocity": 118, "channel": 0}, {"type": "note_on", "time": 14, "note": 67, "velocity": 109, "channel": 0}, {"type": "note_off", "time": 35, "note": 67, "velocity": 109, "channel": 0}, {"type": "note_on", "time": 8, "note": 65, "velocity": 108, "channel": 0}, {"type": "note_off", "time": 35, "note": 65, "velocity": 108, "channel": 0}, {"type": "note_on", "time": 9, "note": 62, "velocity": 115, "channel": 0}, {"type": "note_off", "time": 55, "note": 62, "velocity": 115, "channel": 0}, {"type": "note_on", "time": 21, "note": 55, "velocity": 103, "channel": 0}, {"type": "note_off", "time": 38, "note": 55, "velocity": 103, "channel": 0}, {"type": "note_on", "time": 24, "note": 63, "velocity": 118, "channel": 0}, {"type": "note_off", "time": 44, "note": 63, "velocity": 118, "channel": 0}, {"type": "note_on", "time": 10, "note": 61, "velocity": 113, "channel": 0}, {"type": "note_off", "time": 52, "note": 61, "velocity": 113, "channel": 0}, {"type": "note_on", "time": 10, "note": 58, "velocity": 119, "channel": 0}, {"type": "note_off", "time": 21, "note": 58, "velocity": 119, "channel": 0}, {"type": "note_on", "time": 8, "note": 57, "velocity": 104, "channel": 0}, {"type": "note_off", "time": 26, "note": 57, "velocity": 104, "channel": 0}, {"type": "note_on", "time": 14, "note": 56, "velocity": 102, "channel": 0}, {"type": "note_off", "time": 45, "note": 56, "velocity": 102, "channel": 0}, {"type": "note_on", "time": 11, "note": 58, "velocity": 105, "channel": 0}, {"type": "note_off", "time": 29, "note": 58, "velocity": 105, "channel": 0}, {"type": "note_on", "time": 5, "note": 61, "velocity": 117, "channel": 0}, {"type": "note_off", "time": 50, "note": 61, "velocity": 117, "channel": 0}, {"type": "note_on", "time": 2, "note": 63, "velocity": 114, "channel": 0}, {"type": "note_off", "time": 41, "note": 63, "velocity": 114, "channel": 0}, {"type": "note_on", "time": 8, "note": 65, "velocity": 110, "channel": 0}, {"type": "note_off", "time": 39, "note": 65, "velocity": 110, "channel": 0}, {"type": "note_on", "time": 10, "note": 68, "velocity": 108, "channel": 0}, {"type": "note_off", "time": 43, "note": 68, "velocity": 108, "channel": 0}, {"type": "note_on", "time": 6, "note": 70, "velocity": 103, "channel": 0}, {"type": "note_off", "time": 35, "note": 70, "velocity": 103, "channel": 0}, {"type": "note_on", "time": 13, "note": 73, "velocity": 102, "channel": 0}, {"type": "note_off", "time": 35, "note": 73, "velocity": 102, "channel": 0}, {"type": "note_on", "time": 13, "note": 70, "velocity": 109, "channel": 0}, {"type": "note_off", "time": 88, "note": 70, "velocity": 109, "channel": 0}, {"type": "note_on", "time": 5, "note": 73, "velocity": 105, "channel": 0}, {"type": "note_off", "time": 33, "note": 73, "velocity": 105, "channel": 0}, {"type": "note_on", "time": 51, "note": 68, "velocity": 111, "channel": 0}, {"type": "note_off", "time": 100, "note": 68, "velocity": 111, "channel": 0}, {"type": "note_on", "time": 6, "note": 73, "velocity": 103, "channel": 0}, {"type": "note_off", "time": 47, "note": 73, "velocity": 103, "channel": 0}, {"type": "note_on", "time": 50, "note": 66, "velocity": 109, "channel": 0}, {"type": "note_off", "time": 87, "note": 66, "velocity": 109, "channel": 0}, {"type": "note_on", "time": 26, "note": 73, "velocity": 97, "channel": 0}, {"type": "note_off", "time": 51, "note": 73, "velocity": 97, "channel": 0}, {"type": "note_on", "time": 35, "note": 65, "velocity": 113, "channel": 0}, {"type": "note_off", "time": 85, "note": 65, "velocity": 113, "channel": 0}, {"type": "note_on", "time": 31, "note": 73, "velocity": 105, "channel": 0}, {"type": "note_off", "time": 37, "note": 73, "velocity": 105, "channel": 0}, {"type": "note_on", "time": 25, "note": 64, "velocity": 119, "channel": 0}, {"type": "note_off", "time": 101, "note": 64, "velocity": 119, "channel": 0}, {"type": "note_on", "time": 15, "note": 73, "velocity": 92, "channel": 0}, {"type": "note_off", "time": 42, "note": 73, "velocity": 92, "channel": 0}, {"type": "note_on", "time": 38, "note": 63, "velocity": 117, "channel": 0}, {"type": "note_off", "time": 98, "note": 63, "velocity": 117, "channel": 0}, {"type": "note_on", "time": 17, "note": 73, "velocity": 100, "channel": 0}, {"type": "note_off", "time": 38, "note": 73, "velocity": 100, "channel": 0}, {"type": "note_on", "time": 68, "note": 62, "velocity": 111, "channel": 0}, {"type": "note_off", "time": 62, "note": 62, "velocity": 111, "channel": 0}, {"type": "note_on", "time": 15, "note": 70, "velocity": 99, "channel": 0}, {"type": "note_off", "time": 44, "note": 70, "velocity": 99, "channel": 0}, {"type": "note_on", "time": 33, "note": 70, "velocity": 106, "channel": 0}, {"type": "note_off", "time": 103, "note": 70, "velocity": 106, "channel": 0}, {"type": "note_on", "time": 388, "note": 70, "velocity": 115, "channel": 0}, {"type": "note_off", "time": 69, "note": 70, "velocity": 115, "channel": 0}, {"type": "note_on", "time": 17, "note": 72, "velocity": 100, "channel": 0}, {"type": "note_off", "time": 31, "note": 72, "velocity": 100, "channel": 0}, {"type": "note_on", "time": 7, "note": 74, "velocity": 103, "channel": 0}, {"type": "note_off", "time": 53, "note": 74, "velocity": 103, "channel": 0}, {"type": "note_on", "time": 8, "note": 73, "velocity": 93, "channel": 0}, {"type": "note_off", "time": 87, "note": 73, "velocity": 93, "channel": 0}, {"type": "note_on", "time": 9, "note": 77, "velocity": 101, "channel": 0}, {"type": "note_off", "time": 97, "note": 77, "velocity": 101, "channel": 0}, {"type": "note_on", "time": 78, "note": 72, "velocity": 104, "channel": 0}, {"type": "note_off", "time": 74, "note": 72, "velocity": 104, "channel": 0}, {"type": "note_on", "time": 40, "note": 77, "velocity": 93, "channel": 0}, {"type": "note_off", "time": 151, "note": 77, "velocity": 93, "channel": 0}, {"type": "note_on", "time": 86, "note": 70, "velocity": 107, "channel": 0}, {"type": "note_off", "time": 110, "note": 70, "velocity": 107, "channel": 0}, {"type": "note_on", "time": 31, "note": 77, "velocity": 93, "channel": 0}, {"type": "note_off", "time": 155, "note": 77, "velocity": 93, "channel": 0}, {"type": "note_on", "time": 85, "note": 69, "velocity": 104, "channel": 0}, {"type": "note_off", "time": 96, "note": 69, "velocity": 104, "channel": 0}, {"type": "note_on", "time": 9, "note": 73, "velocity": 90, "channel": 0}, {"type": "note_off", "time": 50, "note": 73, "velocity": 90, "channel": 0}, {"type": "note_on", "time": 14, "note": 77, "velocity": 96, "channel": 0}, {"type": "note_off", "time": 126, "note": 77, "velocity": 96, "channel": 0}, {"type": "note_on", "time": 222, "note": 70, "velocity": 109, "channel": 0}, {"type": "note_off", "time": 28, "note": 70, "velocity": 109, "channel": 0}, {"type": "note_on", "time": 15, "note": 73, "velocity": 104, "channel": 0}, {"type": "note_off", "time": 65, "note": 73, "velocity": 104, "channel": 0}, {"type": "note_on", "time": 9, "note": 76, "velocity": 109, "channel": 0}, {"type": "note_off", "time": 485, "note": 76, "velocity": 109, "channel": 0}, {"type": "note_on", "time": 227, "note": 73, "velocity": 105, "channel": 0}, {"type": "note_off", "time": 78, "note": 73, "velocity": 105, "channel": 0}, {"type": "note_on", "time": 34, "note": 76, "velocity": 119, "channel": 0}, {"type": "note_off", "time": 67, "note": 76, "velocity": 119, "channel": 0}, {"type": "note_on", "time": 29, "note": 73, "velocity": 103, "channel": 0}, {"type": "note_off", "time": 80, "note": 73, "velocity": 103, "channel": 0}, {"type": "note_on", "time": 14, "note": 69, "velocity": 106, "channel": 0}, {"type": "note_off", "time": 71, "note": 69, "velocity": 106, "channel": 0}, {"type": "note_on", "time": 23, "note": 65, "velocity": 113, "channel": 0}, {"type": "note_off", "time": 94, "note": 65, "velocity": 113, "channel": 0}, {"type": "note_on", "time": 287, "note": 70, "velocity": 111, "channel": 0}, {"type": "note_off", "time": 23, "note": 70, "velocity": 111, "channel": 0}, {"type": "note_on", "time": 18, "note": 72, "velocity": 105, "channel": 0}, {"type": "note_off", "time": 65, "note": 72, "velocity": 105, "channel": 0}, {"type": "note_on", "time": 20, "note": 75, "velocity": 107, "channel": 0}, {"type": "note_off", "time": 59, "note": 75, "velocity": 107, "channel": 0}, {"type": "note_on", "time": 35, "note": 72, "velocity": 105, "channel": 0}, {"type": "note_off", "time": 65, "note": 72, "velocity": 105, "channel": 0}, {"type": "note_on", "time": 20, "note": 68, "velocity": 113, "channel": 0}, {"type": "note_off", "time": 78, "note": 68, "velocity": 113, "channel": 0}, {"type": "note_on", "time": 31, "note": 64, "velocity": 120, "channel": 0}, {"type": "note_off", "time": 86, "note": 64, "velocity": 120, "channel": 0}, {"type": "note_on", "time": 22, "note": 63, "velocity": 117, "channel": 0}, {"type": "note_off", "time": 81, "note": 63, "velocity": 117, "channel": 0}, {"type": "note_on", "time": 13, "note": 61, "velocity": 109, "channel": 0}, {"type": "note_off", "time": 71, "note": 61, "velocity": 109, "channel": 0}, {"type": "note_on", "time": 14, "note": 63, "velocity": 118, "channel": 0}, {"type": "note_off", "time": 71, "note": 63, "velocity": 118, "channel": 0}, {"type": "note_on", "time": 8, "note": 64, "velocity": 120, "channel": 0}, {"type": "note_off", "time": 114, "note": 64, "velocity": 120, "channel": 0}, {"type": "note_on", "time": 16, "note": 66, "velocity": 88, "channel": 0}, {"type": "note_off", "time": 36, "note": 66, "velocity": 88, "channel": 0}, {"type": "note_on", "time": 21, "note": 68, "velocity": 113, "channel": 0}, {"type": "note_off", "time": 94, "note": 68, "velocity": 113, "channel": 0}, {"type": "note_on", "time": 18, "note": 72, "velocity": 98, "channel": 0}, {"type": "note_off", "time": 62, "note": 72, "velocity": 98, "channel": 0}, {"type": "note_on", "time": 38, "note": 75, "velocity": 103, "channel": 0}, {"type": "note_off", "time": 77, "note": 75, "velocity": 103, "channel": 0}, {"type": "note_on", "time": 25, "note": 73, "velocity": 107, "channel": 0}, {"type": "note_off", "time": 77, "note": 73, "velocity": 107, "channel": 0}, {"type": "note_on", "time": 14, "note": 72, "velocity": 105, "channel": 0}, {"type": "note_off", "time": 79, "note": 72, "velocity": 105, "channel": 0}, {"type": "note_on", "time": 15, "note": 70, "velocity": 112, "channel": 0}, {"type": "note_off", "time": 79, "note": 70, "velocity": 112, "channel": 0}, {"type": "note_on", "time": 17, "note": 69, "velocity": 111, "channel": 0}, {"type": "note_off", "time": 80, "note": 69, "velocity": 111, "channel": 0}, {"type": "note_on", "time": 29, "note": 72, "velocity": 105, "channel": 0}, {"type": "note_off", "time": 45, "note": 72, "velocity": 105, "channel": 0}, {"type": "note_on", "time": 37, "note": 68, "velocity": 114, "channel": 0}, {"type": "note_off", "time": 87, "note": 68, "velocity": 114, "channel": 0}, {"type": "note_on", "time": 21, "note": 67, "velocity": 109, "channel": 0}, {"type": "note_off", "time": 71, "note": 67, "velocity": 109, "channel": 0}, {"type": "note_on", "time": 20, "note": 66, "velocity": 108, "channel": 0}, {"type": "note_off", "time": 77, "note": 66, "velocity": 108, "channel": 0}, {"type": "note_on", "time": 8, "note": 68, "velocity": 113, "channel": 0}, {"type": "note_off", "time": 82, "note": 68, "velocity": 113, "channel": 0}, {"type": "note_on", "time": 15, "note": 65, "velocity": 114, "channel": 0}, {"type": "note_off", "time": 89, "note": 65, "velocity": 114, "channel": 0}, {"type": "note_on", "time": 7, "note": 63, "velocity": 117, "channel": 0}, {"type": "note_off", "time": 85, "note": 63, "velocity": 117, "channel": 0}, {"type": "note_on", "time": 6, "note": 58, "velocity": 95, "channel": 0}, {"type": "note_off", "time": 106, "note": 58, "velocity": 95, "channel": 0}, {"type": "note_on", "time": 14, "note": 55, "velocity": 103, "channel": 0}, {"type": "note_off", "time": 53, "note": 55, "velocity": 103, "channel": 0}, {"type": "note_on", "time": 10, "note": 60, "velocity": 110, "channel": 0}, {"type": "note_off", "time": 23, "note": 60, "velocity": 110, "channel": 0}, {"type": "note_on", "time": 5, "note": 61, "velocity": 114, "channel": 0}, {"type": "note_off", "time": 12, "note": 61, "velocity": 114, "channel": 0}, {"type": "note_on", "time": 7, "note": 62, "velocity": 117, "channel": 0}, {"type": "note_off", "time": 71, "note": 62, "velocity": 117, "channel": 0}, {"type": "note_on", "time": 60, "note": 67, "velocity": 109, "channel": 0}, {"type": "note_off", "time": 100, "note": 67, "velocity": 109, "channel": 0}, {"type": "note_on", "time": 33, "note": 70, "velocity": 96, "channel": 0}, {"type": "note_off", "time": 165, "note": 70, "velocity": 96, "channel": 0}, {"type": "note_on", "time": 400, "note": 70, "velocity": 116, "channel": 0}, {"type": "note_off", "time": 74, "note": 70, "velocity": 116, "channel": 0}, {"type": "note_on", "time": 49, "note": 70, "velocity": 114, "channel": 0}, {"type": "note_off", "time": 72, "note": 70, "velocity": 114, "channel": 0}, {"type": "note_on", "time": 20, "note": 70, "velocity": 111, "channel": 0}, {"type": "note_off", "time": 71, "note": 70, "velocity": 111, "channel": 0}, {"type": "note_on", "time": 17, "note": 71, "velocity": 108, "channel": 0}, {"type": "note_off", "time": 31, "note": 71, "velocity": 108, "channel": 0}, {"type": "note_on", "time": 5, "note": 72, "velocity": 108, "channel": 0}, {"type": "note_off", "time": 54, "note": 72, "velocity": 108, "channel": 0}, {"type": "note_on", "time": 2, "note": 73, "velocity": 108, "channel": 0}, {"type": "note_off", "time": 11, "note": 73, "velocity": 108, "channel": 0}, {"type": "note_on", "time": 5, "note": 74, "velocity": 102, "channel": 0}, {"type": "note_off", "time": 23, "note": 74, "velocity": 102, "channel": 0}, {"type": "note_on", "time": 14, "note": 70, "velocity": 109, "channel": 0}, {"type": "note_off", "time": 68, "note": 70, "velocity": 109, "channel": 0}, {"type": "note_on", "time": 14, "note": 68, "velocity": 114, "channel": 0}, {"type": "note_off", "time": 74, "note": 68, "velocity": 114, "channel": 0}, {"type": "note_on", "time": 11, "note": 65, "velocity": 114, "channel": 0}, {"type": "note_off", "time": 70, "note": 65, "velocity": 114, "channel": 0}, {"type": "note_on", "time": 8, "note": 63, "velocity": 116, "channel": 0}, {"type": "note_off", "time": 87, "note": 63, "velocity": 116, "channel": 0}, {"type": "note_on", "time": 9, "note": 61, "velocity": 114, "channel": 0}, {"type": "note_off", "time": 68, "note": 61, "velocity": 114, "channel": 0}, {"type": "note_on", "time": 11, "note": 58, "velocity": 101, "channel": 0}, {"type": "note_off", "time": 77, "note": 58, "velocity": 101, "channel": 0}, {"type": "note_on", "time": 2, "note": 57, "velocity": 108, "channel": 0}, {"type": "note_off", "time": 8, "note": 57, "velocity": 108, "channel": 0}, {"type": "note_on", "time": 488, "note": 72, "velocity": 108, "channel": 0}, {"type": "note_off", "time": 44, "note": 72, "velocity": 108, "channel": 0}, {"type": "note_on", "time": 8, "note": 73, "velocity": 102, "channel": 0}, {"type": "note_off", "time": 20, "note": 73, "velocity": 102, "channel": 0}, {"type": "note_on", "time": 5, "note": 72, "velocity": 98, "channel": 0}, {"type": "note_off", "time": 16, "note": 72, "velocity": 98, "channel": 0}, {"type": "note_on", "time": 7, "note": 70, "velocity": 110, "channel": 0}, {"type": "note_off", "time": 62, "note": 70, "velocity": 110, "channel": 0}, {"type": "note_on", "time": 26, "note": 68, "velocity": 113, "channel": 0}, {"type": "note_off", "time": 94, "note": 68, "velocity": 113, "channel": 0}, {"type": "note_on", "time": 17, "note": 65, "velocity": 109, "channel": 0}, {"type": "note_off", "time": 59, "note": 65, "velocity": 109, "channel": 0}, {"type": "note_on", "time": 20, "note": 72, "velocity": 103, "channel": 0}, {"type": "note_off", "time": 14, "note": 72, "velocity": 103, "channel": 0}, {"type": "note_on", "time": 6, "note": 73, "velocity": 107, "channel": 0}, {"type": "note_off", "time": 33, "note": 73, "velocity": 107, "channel": 0}, {"type": "note_on", "time": 3, "note": 74, "velocity": 105, "channel": 0}, {"type": "note_off", "time": 26, "note": 74, "velocity": 105, "channel": 0}, {"type": "note_on", "time": 3, "note": 73, "velocity": 107, "channel": 0}, {"type": "note_off", "time": 26, "note": 73, "velocity": 107, "channel": 0}, {"type": "note_on", "time": 1, "note": 70, "velocity": 108, "channel": 0}, {"type": "note_off", "time": 50, "note": 70, "velocity": 108, "channel": 0}, {"type": "note_on", "time": 11, "note": 68, "velocity": 114, "channel": 0}, {"type": "note_off", "time": 71, "note": 68, "velocity": 114, "channel": 0}, {"type": "note_on", "time": 5, "note": 69, "velocity": 103, "channel": 0}, {"type": "note_off", "time": 14, "note": 69, "velocity": 103, "channel": 0}, {"type": "note_on", "time": 2, "note": 68, "velocity": 108, "channel": 0}, {"type": "note_off", "time": 32, "note": 68, "velocity": 108, "channel": 0}, {"type": "note_on", "time": 7, "note": 65, "velocity": 106, "channel": 0}, {"type": "note_off", "time": 66, "note": 65, "velocity": 106, "channel": 0}, {"type": "note_on", "time": 17, "note": 73, "velocity": 105, "channel": 0}, {"type": "note_off", "time": 37, "note": 73, "velocity": 105, "channel": 0}, {"type": "note_on", "time": 8, "note": 74, "velocity": 106, "channel": 0}, {"type": "note_off", "time": 17, "note": 74, "velocity": 106, "channel": 0}, {"type": "note_on", "time": 6, "note": 73, "velocity": 107, "channel": 0}, {"type": "note_off", "time": 20, "note": 73, "velocity": 107, "channel": 0}, {"type": "note_on", "time": 18, "note": 70, "velocity": 106, "channel": 0}, {"type": "note_off", "time": 45, "note": 70, "velocity": 106, "channel": 0}, {"type": "note_on", "time": 18, "note": 68, "velocity": 112, "channel": 0}, {"type": "note_off", "time": 70, "note": 68, "velocity": 112, "channel": 0}, {"type": "note_on", "time": 5, "note": 70, "velocity": 107, "channel": 0}, {"type": "note_off", "time": 17, "note": 70, "velocity": 107, "channel": 0}, {"type": "note_on", "time": 4, "note": 68, "velocity": 100, "channel": 0}, {"type": "note_off", "time": 16, "note": 68, "velocity": 100, "channel": 0}, {"type": "note_on", "time": 14, "note": 65, "velocity": 111, "channel": 0}, {"type": "note_off", "time": 71, "note": 65, "velocity": 111, "channel": 0}, {"type": "note_on", "time": 16, "note": 73, "velocity": 104, "channel": 0}, {"type": "note_off", "time": 46, "note": 73, "velocity": 104, "channel": 0}, {"type": "note_on", "time": 8, "note": 74, "velocity": 100, "channel": 0}, {"type": "note_off", "time": 20, "note": 74, "velocity": 100, "channel": 0}, {"type": "note_on", "time": 5, "note": 73, "velocity": 102, "channel": 0}, {"type": "note_off", "time": 23, "note": 73, "velocity": 102, "channel": 0}, {"type": "note_on", "time": 10, "note": 70, "velocity": 107, "channel": 0}, {"type": "note_off", "time": 39, "note": 70, "velocity": 107, "channel": 0}, {"type": "note_on", "time": 23, "note": 68, "velocity": 113, "channel": 0}, {"type": "note_off", "time": 91, "note": 68, "velocity": 113, "channel": 0}, {"type": "note_on", "time": 14, "note": 70, "velocity": 106, "channel": 0}, {"type": "note_off", "time": 72, "note": 70, "velocity": 106, "channel": 0}, {"type": "note_on", "time": 25, "note": 73, "velocity": 109, "channel": 0}, {"type": "note_off", "time": 76, "note": 73, "velocity": 109, "channel": 0}, {"type": "note_on", "time": 30, "note": 75, "velocity": 116, "channel": 0}, {"type": "note_off", "time": 58, "note": 75, "velocity": 116, "channel": 0}, {"type": "note_on", "time": 23, "note": 74, "velocity": 122, "channel": 0}, {"type": "note_off", "time": 31, "note": 74, "velocity": 122, "channel": 0}, {"type": "note_on", "time": 5, "note": 75, "velocity": 121, "channel": 0}, {"type": "note_off", "time": 80, "note": 75, "velocity": 121, "channel": 0}, {"type": "note_on", "time": 4, "note": 74, "velocity": 119, "channel": 0}, {"type": "note_off", "time": 38, "note": 74, "velocity": 119, "channel": 0}, {"type": "note_on", "time": 2, "note": 75, "velocity": 127, "channel": 0}, {"type": "note_off", "time": 216, "note": 75, "velocity": 127, "channel": 0}, {"type": "note_on", "time": 21, "note": 73, "velocity": 104, "channel": 0}, {"type": "note_off", "time": 77, "note": 73, "velocity": 104, "channel": 0}, {"type": "note_on", "time": 26, "note": 70, "velocity": 106, "channel": 0}, {"type": "note_off", "time": 71, "note": 70, "velocity": 106, "channel": 0}, {"type": "note_on", "time": 17, "note": 68, "velocity": 114, "channel": 0}, {"type": "note_off", "time": 75, "note": 68, "velocity": 114, "channel": 0}, {"type": "note_on", "time": 14, "note": 65, "velocity": 114, "channel": 0}, {"type": "note_off", "time": 75, "note": 65, "velocity": 114, "channel": 0}, {"type": "note_on", "time": 9, "note": 63, "velocity": 116, "channel": 0}, {"type": "note_off", "time": 88, "note": 63, "velocity": 116, "channel": 0}, {"type": "note_on", "time": 19, "note": 55, "velocity": 98, "channel": 0}, {"type": "note_off", "time": 56, "note": 55, "velocity": 98, "channel": 0}, {"type": "note_on", "time": 23, "note": 60, "velocity": 108, "channel": 0}, {"type": "note_off", "time": 20, "note": 60, "velocity": 108, "channel": 0}, {"type": "note_on", "time": 8, "note": 62, "velocity": 113, "channel": 0}, {"type": "note_off", "time": 93, "note": 62, "velocity": 113, "channel": 0}, {"type": "note_on", "time": 8, "note": 65, "velocity": 101, "channel": 0}, {"type": "note_off", "time": 45, "note": 65, "velocity": 101, "channel": 0}, {"type": "note_on", "time": 5, "note": 67, "velocity": 111, "channel": 0}, {"type": "note_off", "time": 112, "note": 67, "velocity": 111, "channel": 0}, {"type": "note_on", "time": 23, "note": 70, "velocity": 82, "channel": 0}, {"type": "note_off", "time": 182, "note": 70, "velocity": 82, "channel": 0}, {"type": "note_on", "time": 651, "note": 70, "velocity": 115, "channel": 0}, {"type": "note_off", "time": 97, "note": 70, "velocity": 115, "channel": 0}, {"type": "note_on", "time": 17, "note": 65, "velocity": 109, "channel": 0}, {"type": "note_off", "time": 57, "note": 65, "velocity": 109, "channel": 0}, {"type": "note_on", "time": 21, "note": 69, "velocity": 112, "channel": 0}, {"type": "note_off", "time": 78, "note": 69, "velocity": 112, "channel": 0}, {"type": "note_on", "time": 31, "note": 74, "velocity": 105, "channel": 0}, {"type": "note_off", "time": 53, "note": 74, "velocity": 105, "channel": 0}, {"type": "note_on", "time": 41, "note": 70, "velocity": 108, "channel": 0}, {"type": "note_off", "time": 84, "note": 70, "velocity": 108, "channel": 0}, {"type": "note_on", "time": 15, "note": 65, "velocity": 116, "channel": 0}, {"type": "note_off", "time": 59, "note": 65, "velocity": 116, "channel": 0}, {"type": "note_on", "time": 20, "note": 62, "velocity": 119, "channel": 0}, {"type": "note_off", "time": 89, "note": 62, "velocity": 119, "channel": 0}, {"type": "note_on", "time": 97, "note": 63, "velocity": 121, "channel": 0}, {"type": "note_off", "time": 97, "note": 63, "velocity": 121, "channel": 0}, {"type": "note_on", "time": 5, "note": 61, "velocity": 113, "channel": 0}, {"type": "note_off", "time": 101, "note": 61, "velocity": 113, "channel": 0}, {"type": "note_on", "time": 8, "note": 59, "velocity": 100, "channel": 0}, {"type": "note_off", "time": 74, "note": 59, "velocity": 100, "channel": 0}, {"type": "note_on", "time": 87, "note": 60, "velocity": 112, "channel": 0}, {"type": "note_off", "time": 94, "note": 60, "velocity": 112, "channel": 0}, {"type": "note_on", "time": 17, "note": 62, "velocity": 119, "channel": 0}, {"type": "note_off", "time": 68, "note": 62, "velocity": 119, "channel": 0}, {"type": "note_on", "time": 4, "note": 63, "velocity": 119, "channel": 0}, {"type": "note_off", "time": 121, "note": 63, "velocity": 119, "channel": 0}, {"type": "note_on", "time": 83, "note": 64, "velocity": 119, "channel": 0}, {"type": "note_off", "time": 103, "note": 64, "velocity": 119, "channel": 0}, {"type": "note_on", "time": 8, "note": 66, "velocity": 107, "channel": 0}, {"type": "note_off", "time": 78, "note": 66, "velocity": 107, "channel": 0}, {"type": "note_on", "time": 14, "note": 68, "velocity": 114, "channel": 0}, {"type": "note_off", "time": 99, "note": 68, "velocity": 114, "channel": 0}, {"type": "note_on", "time": 84, "note": 69, "velocity": 110, "channel": 0}, {"type": "note_off", "time": 96, "note": 69, "velocity": 110, "channel": 0}, {"type": "note_on", "time": 14, "note": 71, "velocity": 111, "channel": 0}, {"type": "note_off", "time": 68, "note": 71, "velocity": 111, "channel": 0}, {"type": "note_on", "time": 24, "note": 73, "velocity": 100, "channel": 0}, {"type": "note_off", "time": 89, "note": 73, "velocity": 100, "channel": 0}, {"type": "note_on", "time": 101, "note": 62, "velocity": 116, "channel": 0}, {"type": "note_off", "time": 80, "note": 62, "velocity": 116, "channel": 0}, {"type": "note_on", "time": 10, "note": 64, "velocity": 121, "channel": 0}, {"type": "note_off", "time": 78, "note": 64, "velocity": 121, "channel": 0}, {"type": "note_on", "time": 20, "note": 66, "velocity": 111, "channel": 0}, {"type": "note_off", "time": 82, "note": 66, "velocity": 111, "channel": 0}, {"type": "note_on", "time": 105, "note": 67, "velocity": 109, "channel": 0}, {"type": "note_off", "time": 85, "note": 67, "velocity": 109, "channel": 0}, {"type": "note_on", "time": 8, "note": 69, "velocity": 112, "channel": 0}, {"type": "note_off", "time": 68, "note": 69, "velocity": 112, "channel": 0}, {"type": "note_on", "time": 36, "note": 71, "velocity": 110, "channel": 0}, {"type": "note_off", "time": 87, "note": 71, "velocity": 110, "channel": 0}, {"type": "note_on", "time": 30, "note": 70, "velocity": 111, "channel": 0}, {"type": "note_off", "time": 87, "note": 70, "velocity": 111, "channel": 0}, {"type": "note_on", "time": 90, "note": 65, "velocity": 109, "channel": 0}, {"type": "note_off", "time": 57, "note": 65, "velocity": 109, "channel": 0}, {"type": "note_on", "time": 29, "note": 69, "velocity": 113, "channel": 0}, {"type": "note_off", "time": 83, "note": 69, "velocity": 113, "channel": 0}, {"type": "note_on", "time": 41, "note": 70, "velocity": 112, "channel": 0}, {"type": "note_off", "time": 52, "note": 70, "velocity": 112, "channel": 0}, {"type": "note_on", "time": 5, "note": 69, "velocity": 113, "channel": 0}, {"type": "note_off", "time": 23, "note": 69, "velocity": 113, "channel": 0}, {"type": "note_on", "time": 8, "note": 68, "velocity": 109, "channel": 0}, {"type": "note_off", "time": 34, "note": 68, "velocity": 109, "channel": 0}, {"type": "note_on", "time": 3009, "note": 68, "velocity": 122, "channel": 0}, {"type": "note_off", "time": 41, "note": 68, "velocity": 122, "channel": 0}, {"type": "note_on", "time": 6, "note": 67, "velocity": 117, "channel": 0}, {"type": "note_off", "time": 29, "note": 67, "velocity": 117, "channel": 0}, {"type": "note_on", "time": 10, "note": 66, "velocity": 114, "channel": 0}, {"type": "note_off", "time": 34, "note": 66, "velocity": 114, "channel": 0}, {"type": "note_on", "time": 5, "note": 68, "velocity": 118, "channel": 0}, {"type": "note_off", "time": 50, "note": 68, "velocity": 118, "channel": 0}, {"type": "note_on", "time": 6, "note": 67, "velocity": 113, "channel": 0}, {"type": "note_off", "time": 40, "note": 67, "velocity": 113, "channel": 0}, {"type": "note_on", "time": 8, "note": 66, "velocity": 115, "channel": 0}, {"type": "note_off", "time": 44, "note": 66, "velocity": 115, "channel": 0}, {"type": "note_on", "time": 5, "note": 65, "velocity": 115, "channel": 0}, {"type": "note_off", "time": 29, "note": 65, "velocity": 115, "channel": 0}, {"type": "note_on", "time": 9, "note": 64, "velocity": 123, "channel": 0}, {"type": "note_off", "time": 56, "note": 64, "velocity": 123, "channel": 0}, {"type": "note_on", "time": 5, "note": 63, "velocity": 121, "channel": 0}, {"type": "note_off", "time": 36, "note": 63, "velocity": 121, "channel": 0}, {"type": "note_on", "time": 11, "note": 65, "velocity": 117, "channel": 0}, {"type": "note_off", "time": 26, "note": 65, "velocity": 117, "channel": 0}, {"type": "note_on", "time": 2, "note": 66, "velocity": 116, "channel": 0}, {"type": "note_off", "time": 50, "note": 66, "velocity": 116, "channel": 0}, {"type": "note_on", "time": 8, "note": 64, "velocity": 118, "channel": 0}, {"type": "note_off", "time": 34, "note": 64, "velocity": 118, "channel": 0}, {"type": "note_on", "time": 9, "note": 65, "velocity": 118, "channel": 0}, {"type": "note_off", "time": 39, "note": 65, "velocity": 118, "channel": 0}, {"type": "note_on", "time": 8, "note": 64, "velocity": 124, "channel": 0}, {"type": "note_off", "time": 37, "note": 64, "velocity": 124, "channel": 0}, {"type": "note_on", "time": 8, "note": 63, "velocity": 120, "channel": 0}, {"type": "note_off", "time": 52, "note": 63, "velocity": 120, "channel": 0}, {"type": "note_on", "time": 3, "note": 67, "velocity": 114, "channel": 0}, {"type": "note_off", "time": 46, "note": 67, "velocity": 114, "channel": 0}, {"type": "note_on", "time": 3, "note": 65, "velocity": 119, "channel": 0}, {"type": "note_off", "time": 32, "note": 65, "velocity": 119, "channel": 0}, {"type": "note_on", "time": 11, "note": 63, "velocity": 118, "channel": 0}, {"type": "note_off", "time": 48, "note": 63, "velocity": 118, "channel": 0}, {"type": "note_on", "time": 4, "note": 65, "velocity": 100, "channel": 0}, {"type": "note_off", "time": 51, "note": 65, "velocity": 100, "channel": 0}, {"type": "note_on", "time": 2, "note": 55, "velocity": 100, "channel": 0}, {"type": "note_off", "time": 16, "note": 55, "velocity": 100, "channel": 0}, {"type": "note_on", "time": 11, "note": 60, "velocity": 120, "channel": 0}, {"type": "note_off", "time": 70, "note": 60, "velocity": 120, "channel": 0}, {"type": "note_on", "time": 7, "note": 57, "velocity": 92, "channel": 0}, {"type": "note_off", "time": 19, "note": 57, "velocity": 92, "channel": 0}, {"type": "note_on", "time": 5, "note": 59, "velocity": 120, "channel": 0}, {"type": "note_off", "time": 42, "note": 59, "velocity": 120, "channel": 0}, {"type": "note_on", "time": 3, "note": 61, "velocity": 121, "channel": 0}, {"type": "note_off", "time": 79, "note": 61, "velocity": 121, "channel": 0}, {"type": "note_on", "time": 8, "note": 60, "velocity": 95, "channel": 0}, {"type": "note_off", "time": 17, "note": 60, "velocity": 95, "channel": 0}, {"type": "note_on", "time": 13, "note": 56, "velocity": 95, "channel": 0}, {"type": "note_off", "time": 26, "note": 56, "velocity": 95, "channel": 0}, {"type": "note_on", "time": 5, "note": 53, "velocity": 110, "channel": 0}, {"type": "note_off", "time": 45, "note": 53, "velocity": 110, "channel": 0}, {"type": "note_on", "time": 11, "note": 52, "velocity": 108, "channel": 0}, {"type": "note_off", "time": 40, "note": 52, "velocity": 108, "channel": 0}, {"type": "note_on", "time": 5, "note": 51, "velocity": 104, "channel": 0}, {"type": "note_off", "time": 51, "note": 51, "velocity": 104, "channel": 0}, {"type": "note_on", "time": 5, "note": 52, "velocity": 105, "channel": 0}, {"type": "note_off", "time": 17, "note": 52, "velocity": 105, "channel": 0}, {"type": "note_on", "time": 11, "note": 55, "velocity": 101, "channel": 0}, {"type": "note_off", "time": 49, "note": 55, "velocity": 101, "channel": 0}, {"type": "note_on", "time": 39, "note": 58, "velocity": 109, "channel": 0}, {"type": "note_off", "time": 34, "note": 58, "velocity": 109, "channel": 0}, {"type": "note_on", "time": 12, "note": 60, "velocity": 121, "channel": 0}, {"type": "note_off", "time": 43, "note": 60, "velocity": 121, "channel": 0}, {"type": "note_on", "time": 12, "note": 62, "velocity": 106, "channel": 0}, {"type": "note_off", "time": 26, "note": 62, "velocity": 106, "channel": 0}, {"type": "note_on", "time": 8, "note": 65, "velocity": 99, "channel": 0}, {"type": "note_off", "time": 32, "note": 65, "velocity": 99, "channel": 0}, {"type": "note_on", "time": 11, "note": 70, "velocity": 117, "channel": 0}, {"type": "note_off", "time": 48, "note": 70, "velocity": 117, "channel": 0}, {"type": "note_on", "time": 12, "note": 65, "velocity": 118, "channel": 0}, {"type": "note_off", "time": 35, "note": 65, "velocity": 118, "channel": 0}, {"type": "note_on", "time": 9, "note": 62, "velocity": 119, "channel": 0}, {"type": "note_off", "time": 42, "note": 62, "velocity": 119, "channel": 0}, {"type": "note_on", "time": 7, "note": 58, "velocity": 99, "channel": 0}, {"type": "note_off", "time": 23, "note": 58, "velocity": 99, "channel": 0}, {"type": "note_on", "time": 4, "note": 63, "velocity": 120, "channel": 0}, {"type": "note_off", "time": 45, "note": 63, "velocity": 120, "channel": 0}, {"type": "note_on", "time": 8, "note": 62, "velocity": 118, "channel": 0}, {"type": "note_off", "time": 49, "note": 62, "velocity": 118, "channel": 0}, {"type": "note_on", "time": 23, "note": 55, "velocity": 104, "channel": 0}, {"type": "note_off", "time": 27, "note": 55, "velocity": 104, "channel": 0}, {"type": "note_on", "time": 8, "note": 56, "velocity": 105, "channel": 0}, {"type": "note_off", "time": 25, "note": 56, "velocity": 105, "channel": 0}, {"type": "note_on", "time": 6, "note": 60, "velocity": 122, "channel": 0}, {"type": "note_off", "time": 47, "note": 60, "velocity": 122, "channel": 0}, {"type": "note_on", "time": 8, "note": 62, "velocity": 120, "channel": 0}, {"type": "note_off", "time": 32, "note": 62, "velocity": 120, "channel": 0}, {"type": "note_on", "time": 11, "note": 63, "velocity": 122, "channel": 0}, {"type": "note_off", "time": 43, "note": 63, "velocity": 122, "channel": 0}, {"type": "note_on", "time": 4, "note": 64, "velocity": 124, "channel": 0}, {"type": "note_off", "time": 29, "note": 64, "velocity": 124, "channel": 0}, {"type": "note_on", "time": 6, "note": 65, "velocity": 116, "channel": 0}, {"type": "note_off", "time": 40, "note": 65, "velocity": 116, "channel": 0}, {"type": "note_on", "time": 4, "note": 64, "velocity": 121, "channel": 0}, {"type": "note_off", "time": 42, "note": 64, "velocity": 121, "channel": 0}, {"type": "note_on", "time": 10, "note": 63, "velocity": 121, "channel": 0}, {"type": "note_off", "time": 50, "note": 63, "velocity": 121, "channel": 0}, {"type": "note_on", "time": 4, "note": 67, "velocity": 115, "channel": 0}, {"type": "note_off", "time": 52, "note": 67, "velocity": 115, "channel": 0}, {"type": "note_on", "time": 7, "note": 65, "velocity": 119, "channel": 0}, {"type": "note_off", "time": 26, "note": 65, "velocity": 119, "channel": 0}, {"type": "note_on", "time": 8, "note": 62, "velocity": 122, "channel": 0}, {"type": "note_off", "time": 34, "note": 62, "velocity": 122, "channel": 0}, {"type": "note_on", "time": 13, "note": 58, "velocity": 111, "channel": 0}, {"type": "note_off", "time": 32, "note": 58, "velocity": 111, "channel": 0}, {"type": "note_on", "time": 9, "note": 56, "velocity": 107, "channel": 0}, {"type": "note_off", "time": 29, "note": 56, "velocity": 107, "channel": 0}, {"type": "note_on", "time": 8, "note": 62, "velocity": 122, "channel": 0}, {"type": "note_off", "time": 37, "note": 62, "velocity": 122, "channel": 0}, {"type": "note_on", "time": 9, "note": 61, "velocity": 119, "channel": 0}, {"type": "note_off", "time": 50, "note": 61, "velocity": 119, "channel": 0}, {"type": "note_on", "time": 8, "note": 57, "velocity": 103, "channel": 0}, {"type": "note_off", "time": 19, "note": 57, "velocity": 103, "channel": 0}, {"type": "note_on", "time": 60, "note": 58, "velocity": 95, "channel": 0}, {"type": "note_off", "time": 162, "note": 58, "velocity": 95, "channel": 0}, {"type": "note_on", "time": 2710, "note": 45, "velocity": 122, "channel": 0}, {"type": "note_off", "time": 53, "note": 45, "velocity": 122, "channel": 0}, {"type": "note_on", "time": 44, "note": 51, "velocity": 109, "channel": 0}, {"type": "note_off", "time": 45, "note": 51, "velocity": 109, "channel": 0}, {"type": "note_on", "time": 46, "note": 50, "velocity": 112, "channel": 0}, {"type": "note_off", "time": 82, "note": 50, "velocity": 112, "channel": 0}, {"type": "note_on", "time": 19, "note": 55, "velocity": 95, "channel": 0}, {"type": "note_off", "time": 47, "note": 55, "velocity": 95, "channel": 0}, {"type": "note_on", "time": 46, "note": 57, "velocity": 98, "channel": 0}, {"type": "note_off", "time": 72, "note": 57, "velocity": 98, "channel": 0}, {"type": "note_on", "time": 17, "note": 63, "velocity": 112, "channel": 0}, {"type": "note_off", "time": 68, "note": 63, "velocity": 112, "channel": 0}, {"type": "note_on", "time": 38, "note": 62, "velocity": 115, "channel": 0}, {"type": "note_off", "time": 91, "note": 62, "velocity": 115, "channel": 0}, {"type": "note_on", "time": 11, "note": 70, "velocity": 107, "channel": 0}, {"type": "note_off", "time": 80, "note": 70, "velocity": 107, "channel": 0}, {"type": "note_on", "time": 26, "note": 69, "velocity": 106, "channel": 0}, {"type": "note_off", "time": 71, "note": 69, "velocity": 106, "channel": 0}, {"type": "note_on", "time": 16, "note": 70, "velocity": 107, "channel": 0}, {"type": "note_off", "time": 89, "note": 70, "velocity": 107, "channel": 0}, {"type": "note_on", "time": 15, "note": 69, "velocity": 105, "channel": 0}, {"type": "note_off", "time": 80, "note": 69, "velocity": 105, "channel": 0}, {"type": "note_on", "time": 14, "note": 67, "velocity": 107, "channel": 0}, {"type": "note_off", "time": 75, "note": 67, "velocity": 107, "channel": 0}, {"type": "note_on", "time": 15, "note": 66, "velocity": 105, "channel": 0}, {"type": "note_off", "time": 85, "note": 66, "velocity": 105, "channel": 0}, {"type": "note_on", "time": 20, "note": 63, "velocity": 111, "channel": 0}, {"type": "note_off", "time": 86, "note": 63, "velocity": 111, "channel": 0}, {"type": "note_on", "time": 10, "note": 62, "velocity": 112, "channel": 0}, {"type": "note_off", "time": 85, "note": 62, "velocity": 112, "channel": 0}, {"type": "note_on", "time": 9, "note": 60, "velocity": 108, "channel": 0}, {"type": "note_off", "time": 74, "note": 60, "velocity": 108, "channel": 0}, {"type": "note_on", "time": 16, "note": 59, "velocity": 89, "channel": 0}, {"type": "note_off", "time": 85, "note": 59, "velocity": 89, "channel": 0}, {"type": "note_on", "time": 11, "note": 62, "velocity": 110, "channel": 0}, {"type": "note_off", "time": 68, "note": 62, "velocity": 110, "channel": 0}, {"type": "note_on", "time": 21, "note": 65, "velocity": 104, "channel": 0}, {"type": "note_off", "time": 85, "note": 65, "velocity": 104, "channel": 0}, {"type": "note_on", "time": 16, "note": 67, "velocity": 105, "channel": 0}, {"type": "note_off", "time": 73, "note": 67, "velocity": 105, "channel": 0}, {"type": "note_on", "time": 16, "note": 70, "velocity": 103, "channel": 0}, {"type": "note_off", "time": 98, "note": 70, "velocity": 103, "channel": 0}, {"type": "note_on", "time": 11, "note": 68, "velocity": 107, "channel": 0}, {"type": "note_off", "time": 48, "note": 68, "velocity": 107, "channel": 0}, {"type": "note_on", "time": 67, "note": 75, "velocity": 101, "channel": 0}, {"type": "note_off", "time": 59, "note": 75, "velocity": 101, "channel": 0}, {"type": "note_on", "time": 118, "note": 71, "velocity": 103, "channel": 0}, {"type": "note_off", "time": 90, "note": 71, "velocity": 103, "channel": 0}, {"type": "note_on", "time": 88, "note": 70, "velocity": 103, "channel": 0}, {"type": "note_off", "time": 65, "note": 70, "velocity": 103, "channel": 0}, {"type": "note_on", "time": 8, "note": 71, "velocity": 100, "channel": 0}, {"type": "note_off", "time": 19, "note": 71, "velocity": 100, "channel": 0}, {"type": "note_on", "time": 8, "note": 70, "velocity": 103, "channel": 0}, {"type": "note_off", "time": 17, "note": 70, "velocity": 103, "channel": 0}, {"type": "note_on", "time": 8, "note": 68, "velocity": 105, "channel": 0}, {"type": "note_off", "time": 60, "note": 68, "velocity": 105, "channel": 0}, {"type": "note_on", "time": 23, "note": 64, "velocity": 117, "channel": 0}, {"type": "note_off", "time": 77, "note": 64, "velocity": 117, "channel": 0}, {"type": "note_on", "time": 17, "note": 59, "velocity": 96, "channel": 0}, {"type": "note_off", "time": 42, "note": 59, "velocity": 96, "channel": 0}, {"type": "note_on", "time": 36, "note": 58, "velocity": 94, "channel": 0}, {"type": "note_off", "time": 77, "note": 58, "velocity": 94, "channel": 0}, {"type": "note_on", "time": 23, "note": 56, "velocity": 99, "channel": 0}, {"type": "note_off", "time": 68, "note": 56, "velocity": 99, "channel": 0}, {"type": "note_on", "time": 9, "note": 55, "velocity": 96, "channel": 0}, {"type": "note_off", "time": 112, "note": 55, "velocity": 96, "channel": 0}, {"type": "note_on", "time": 2768, "note": 68, "velocity": 116, "channel": 0}, {"type": "note_off", "time": 44, "note": 68, "velocity": 116, "channel": 0}, {"type": "note_on", "time": 4, "note": 67, "velocity": 110, "channel": 0}, {"type": "note_off", "time": 35, "note": 67, "velocity": 110, "channel": 0}, {"type": "note_on", "time": 4, "note": 65, "velocity": 110, "channel": 0}, {"type": "note_off", "time": 49, "note": 65, "velocity": 110, "channel": 0}, {"type": "note_on", "time": 5, "note": 63, "velocity": 112, "channel": 0}, {"type": "note_off", "time": 26, "note": 63, "velocity": 112, "channel": 0}, {"type": "note_on", "time": 11, "note": 62, "velocity": 115, "channel": 0}, {"type": "note_off", "time": 49, "note": 62, "velocity": 115, "channel": 0}, {"type": "note_on", "time": 11, "note": 61, "velocity": 110, "channel": 0}, {"type": "note_off", "time": 53, "note": 61, "velocity": 110, "channel": 0}, {"type": "note_on", "time": 6, "note": 56, "velocity": 100, "channel": 0}, {"type": "note_off", "time": 62, "note": 56, "velocity": 100, "channel": 0}, {"type": "note_on", "time": 4, "note": 55, "velocity": 102, "channel": 0}, {"type": "note_off", "time": 23, "note": 55, "velocity": 102, "channel": 0}, {"type": "note_on", "time": 10, "note": 54, "velocity": 105, "channel": 0}, {"type": "note_off", "time": 26, "note": 54, "velocity": 105, "channel": 0}, {"type": "note_on", "time": 2, "note": 51, "velocity": 112, "channel": 0}, {"type": "note_off", "time": 22, "note": 51, "velocity": 112, "channel": 0}, {"type": "note_on", "time": 7, "note": 50, "velocity": 112, "channel": 0}, {"type": "note_off", "time": 20, "note": 50, "velocity": 112, "channel": 0}, {"type": "note_on", "time": 14, "note": 49, "velocity": 106, "channel": 0}, {"type": "note_off", "time": 165, "note": 49, "velocity": 106, "channel": 0}, {"type": "note_on", "time": 157, "note": 68, "velocity": 110, "channel": 0}, {"type": "note_off", "time": 47, "note": 68, "velocity": 110, "channel": 0}, {"type": "note_on", "time": 7, "note": 67, "velocity": 105, "channel": 0}, {"type": "note_off", "time": 21, "note": 67, "velocity": 105, "channel": 0}, {"type": "note_on", "time": 9, "note": 66, "velocity": 103, "channel": 0}, {"type": "note_off", "time": 24, "note": 66, "velocity": 103, "channel": 0}, {"type": "note_on", "time": 23, "note": 68, "velocity": 108, "channel": 0}, {"type": "note_off", "time": 57, "note": 68, "velocity": 108, "channel": 0}, {"type": "note_on", "time": 3, "note": 67, "velocity": 103, "channel": 0}, {"type": "note_off", "time": 32, "note": 67, "velocity": 103, "channel": 0}, {"type": "note_on", "time": 5, "note": 66, "velocity": 105, "channel": 0}, {"type": "note_off", "time": 44, "note": 66, "velocity": 105, "channel": 0}, {"type": "note_on", "time": 8, "note": 65, "velocity": 108, "channel": 0}, {"type": "note_off", "time": 44, "note": 65, "velocity": 108, "channel": 0}, {"type": "note_on", "time": 9, "note": 64, "velocity": 117, "channel": 0}, {"type": "note_off", "time": 37, "note": 64, "velocity": 117, "channel": 0}, {"type": "note_on", "time": 7, "note": 63, "velocity": 112, "channel": 0}, {"type": "note_off", "time": 53, "note": 63, "velocity": 112, "channel": 0}, {"type": "note_on", "time": 12, "note": 65, "velocity": 105, "channel": 0}, {"type": "note_off", "time": 29, "note": 65, "velocity": 105, "channel": 0}, {"type": "note_on", "time": 5, "note": 66, "velocity": 104, "channel": 0}, {"type": "note_off", "time": 35, "note": 66, "velocity": 104, "channel": 0}, {"type": "note_on", "time": 7, "note": 64, "velocity": 102, "channel": 0}, {"type": "note_off", "time": 32, "note": 64, "velocity": 102, "channel": 0}, {"type": "note_on", "time": 5, "note": 65, "velocity": 112, "channel": 0}, {"type": "note_off", "time": 34, "note": 65, "velocity": 112, "channel": 0}, {"type": "note_on", "time": 5, "note": 64, "velocity": 118, "channel": 0}, {"type": "note_off", "time": 35, "note": 64, "velocity": 118, "channel": 0}, {"type": "note_on", "time": 5, "note": 65, "velocity": 108, "channel": 0}, {"type": "note_off", "time": 16, "note": 65, "velocity": 108, "channel": 0}, {"type": "note_on", "time": 8, "note": 63, "velocity": 111, "channel": 0}, {"type": "note_off", "time": 38, "note": 63, "velocity": 111, "channel": 0}, {"type": "note_on", "time": 4, "note": 67, "velocity": 106, "channel": 0}, {"type": "note_off", "time": 35, "note": 67, "velocity": 106, "channel": 0}, {"type": "note_on", "time": 14, "note": 65, "velocity": 109, "channel": 0}, {"type": "note_off", "time": 23, "note": 65, "velocity": 109, "channel": 0}, {"type": "note_on", "time": 14, "note": 61, "velocity": 112, "channel": 0}, {"type": "note_off", "time": 49, "note": 61, "velocity": 112, "channel": 0}, {"type": "note_on", "time": 5, "note": 58, "velocity": 103, "channel": 0}, {"type": "note_off", "time": 27, "note": 58, "velocity": 103, "channel": 0}, {"type": "note_on", "time": 4, "note": 56, "velocity": 104, "channel": 0}, {"type": "note_off", "time": 49, "note": 56, "velocity": 104, "channel": 0}, {"type": "note_on", "time": 5, "note": 63, "velocity": 107, "channel": 0}, {"type": "note_off", "time": 44, "note": 63, "velocity": 107, "channel": 0}, {"type": "note_on", "time": 8, "note": 61, "velocity": 106, "channel": 0}, {"type": "note_off", "time": 48, "note": 61, "velocity": 106, "channel": 0}, {"type": "note_on", "time": 14, "note": 58, "velocity": 94, "channel": 0}, {"type": "note_off", "time": 26, "note": 58, "velocity": 94, "channel": 0}, {"type": "note_on", "time": 14, "note": 54, "velocity": 94, "channel": 0}, {"type": "note_off", "time": 36, "note": 54, "velocity": 94, "channel": 0}, {"type": "note_on", "time": 6, "note": 58, "velocity": 98, "channel": 0}, {"type": "note_off", "time": 33, "note": 58, "velocity": 98, "channel": 0}, {"type": "note_on", "time": 5, "note": 54, "velocity": 100, "channel": 0}, {"type": "note_off", "time": 35, "note": 54, "velocity": 100, "channel": 0}, {"type": "note_on", "time": 3, "note": 53, "velocity": 105, "channel": 0}, {"type": "note_off", "time": 35, "note": 53, "velocity": 105, "channel": 0}, {"type": "note_on", "time": 12, "note": 52, "velocity": 109, "channel": 0}, {"type": "note_off", "time": 51, "note": 52, "velocity": 109, "channel": 0}, {"type": "note_on", "time": 5, "note": 51, "velocity": 98, "channel": 0}, {"type": "note_off", "time": 29, "note": 51, "velocity": 98, "channel": 0}, {"type": "note_on", "time": 21, "note": 55, "velocity": 91, "channel": 0}, {"type": "note_off", "time": 40, "note": 55, "velocity": 91, "channel": 0}, {"type": "note_on", "time": 5, "note": 57, "velocity": 103, "channel": 0}, {"type": "note_off", "time": 25, "note": 57, "velocity": 103, "channel": 0}, {"type": "note_on", "time": 10, "note": 61, "velocity": 113, "channel": 0}, {"type": "note_off", "time": 37, "note": 61, "velocity": 113, "channel": 0}, {"type": "note_on", "time": 6, "note": 63, "velocity": 111, "channel": 0}, {"type": "note_off", "time": 39, "note": 63, "velocity": 111, "channel": 0}, {"type": "note_on", "time": 8, "note": 61, "velocity": 112, "channel": 0}, {"type": "note_off", "time": 43, "note": 61, "velocity": 112, "channel": 0}, {"type": "note_on", "time": 11, "note": 58, "velocity": 93, "channel": 0}, {"type": "note_off", "time": 35, "note": 58, "velocity": 93, "channel": 0}, {"type": "note_on", "time": 11, "note": 55, "velocity": 103, "channel": 0}, {"type": "note_off", "time": 20, "note": 55, "velocity": 103, "channel": 0}, {"type": "note_on", "time": 6, "note": 60, "velocity": 111, "channel": 0}, {"type": "note_off", "time": 38, "note": 60, "velocity": 111, "channel": 0}, {"type": "note_on", "time": 7, "note": 62, "velocity": 114, "channel": 0}, {"type": "note_off", "time": 40, "note": 62, "velocity": 114, "channel": 0}, {"type": "note_on", "time": 8, "note": 63, "velocity": 114, "channel": 0}, {"type": "note_off", "time": 27, "note": 63, "velocity": 114, "channel": 0}, {"type": "note_on", "time": 10, "note": 60, "velocity": 100, "channel": 0}, {"type": "note_off", "time": 28, "note": 60, "velocity": 100, "channel": 0}, {"type": "note_on", "time": 5, "note": 63, "velocity": 96, "channel": 0}, {"type": "note_off", "time": 7, "note": 63, "velocity": 96, "channel": 0}, {"type": "note_on", "time": 6, "note": 65, "velocity": 112, "channel": 0}, {"type": "note_off", "time": 43, "note": 65, "velocity": 112, "channel": 0}, {"type": "note_on", "time": 4, "note": 64, "velocity": 118, "channel": 0}, {"type": "note_off", "time": 37, "note": 64, "velocity": 118, "channel": 0}, {"type": "note_on", "time": 10, "note": 63, "velocity": 113, "channel": 0}, {"type": "note_off", "time": 37, "note": 63, "velocity": 113, "channel": 0}, {"type": "note_on", "time": 12, "note": 67, "velocity": 107, "channel": 0}, {"type": "note_off", "time": 38, "note": 67, "velocity": 107, "channel": 0}, {"type": "note_on", "time": 7, "note": 65, "velocity": 110, "channel": 0}, {"type": "note_off", "time": 37, "note": 65, "velocity": 110, "channel": 0}, {"type": "note_on", "time": 10, "note": 61, "velocity": 109, "channel": 0}, {"type": "note_off", "time": 54, "note": 61, "velocity": 109, "channel": 0}, {"type": "note_on", "time": 17, "note": 53, "velocity": 92, "channel": 0}, {"type": "note_off", "time": 42, "note": 53, "velocity": 92, "channel": 0}, {"type": "note_on", "time": 21, "note": 58, "velocity": 97, "channel": 0}, {"type": "note_off", "time": 110, "note": 58, "velocity": 97, "channel": 0}, {"type": "end_of_track", "time": 0}]]}