{"ticks_per_beat": 840, "tracks": [[{"type": "note_on", "time": 0, "note": 57, "velocity": 103, "channel": 0}, {"type": "note_off", "time": 194, "note": 57, "velocity": 103, "channel": 0}, {"type": "note_on", "time": 0, "note": 55, "velocity": 95, "channel": 0}, {"type": "note_on", "time": 172, "note": 60, "velocity": 92, "channel": 0}, {"type": "note_off", "time": 0, "note": 55, "velocity": 95, "channel": 0}, {"type": "note_off", "time": 247, "note": 60, "velocity": 92, "channel": 0}, {"type": "note_on", "time": 22, "note": 57, "velocity": 95, "channel": 0}, {"type": "note_off", "time": 198, "note": 57, "velocity": 95, "channel": 0}, {"type": "note_on", "time": 0, "note": 53, "velocity": 97, "channel": 0}, {"type": "note_off", "time": 160, "note": 53, "velocity": 97, "channel": 0}, {"type": "note_on", "time": 14, "note": 55, "velocity": 100, "channel": 0}, {"type": "note_off", "time": 269, "note": 55, "velocity": 100, "channel": 0}, {"type": "note_on", "time": 7, "note": 51, "velocity": 102, "channel": 0}, {"type": "note_off", "time": 172, "note": 51, "velocity": 102, "channel": 0}, {"type": "note_on", "time": 0, "note": 50, "velocity": 98, "channel": 0}, {"type": "note_off", "time": 164, "note": 50, "velocity": 98, "channel": 0}, {"type": "note_on", "time": 0, "note": 48, "velocity": 90, "channel": 0}, {"type": "note_off", "time": 157, "note": 48, "velocity": 90, "channel": 0}, {"type": "note_on", "time": 101, "note": 53, "velocity": 103, "channel": 0}, {"type": "note_off", "time": 202, "note": 53, "velocity": 103, "channel": 0}, {"type": "note_on", "time": 5, "note": 50, "velocity": 95, "channel": 0}, {"type": "note_off", "time": 191, "note": 50, "velocity": 95, "channel": 0}, {"type": "note_on", "time": 5, "note": 51, "velocity": 92, "channel": 0}, {"type": "note_on", "time": 175, "note": 53, "velocity": 99, "channel": 0}, {"type": "note_off", "time": 0, "note": 51, "velocity": 92, "channel": 0}, {"type": "note_off", "time": 191, "note": 53, "velocity": 99, "channel": 0}, {"type": "note_on", "time": 32, "note": 55, "velocity": 89, "channel": 0}, {"type": "note_off", "time": 183, "note": 55, "velocity": 89, "channel": 0}, {"type": "note_on", "time": 13, "note": 58, "velocity": 96, "channel": 0}, {"type": "note_off", "time": 218, "note": 58, "velocity": 96, "channel": 0}, {"type": "note_on", "time": 0, "note": 57, "velocity": 92, "channel": 0}, {"type": "note_off", "time": 153, "note": 57, "velocity": 92, "channel": 0}, {"type": "note_on", "time": 917, "note": 61, "velocity": 93, "channel": 0}, {"type": "note_off", "time": 131, "note": 61, "velocity": 93, "channel": 0}, {"type": "note_on", "time": 14, "note": 65, "velocity": 114, "channel": 0}, {"type": "note_off", "time": 220, "note": 65, "velocity": 114, "channel": 0}, {"type": "note_on", "time": 14, "note": 61, "velocity": 117, "channel": 0}, {"type": "note_off", "time": 183, "note": 61, "velocity": 117, "channel": 0}, {"type": "note_on", "time": 14, "note": 58, "velocity": 92, "channel": 0}, {"type": "note_off", "time": 174, "note": 58, "velocity": 92, "channel": 0}, {"type": "note_on", "time": 0, "note": 53, "velocity": 85, "channel": 0}, {"type": "note_off", "time": 180, "note": 53, "velocity": 85, "channel": 0}, {"type": "note_on", "time": 52, "note": 63, "velocity": 114, "channel": 0}, {"type": "note_off", "time": 202, "note": 63, "velocity": 114, "channel": 0}, {"type": "note_on", "time": 26, "note": 60, "velocity": 108, "channel": 0}, {"type": "note_off", "time": 183, "note": 60, "velocity": 108, "channel": 0}, {"type": "note_on", "time": 0, "note": 56, "velocity": 105, "channel": 0}, {"type": "note_off", "time": 164, "note": 56, "velocity": 105, "channel": 0}, {"type": "note_on", "time": 11, "note": 53, "velocity": 91, "channel": 0}, {"type": "note_off", "time": 194, "note": 53, "velocity": 91, "channel": 0}, {"type": "note_on", "time": 74, "note": 58, "velocity": 99, "channel": 0}, {"type": "note_off", "time": 164, "note": 58, "velocity": 99, "channel": 0}, {"type": "note_on", "time": 48, "note": 53, "velocity": 107, "channel": 0}, {"type": "note_off", "time": 138, "note": 53, "velocity": 107, "channel": 0}, {"type": "note_on", "time": 29, "note": 49, "velocity": 104, "channel": 0}, {"type": "note_off", "time": 160, "note": 49, "velocity": 104, "channel": 0}, {"type": "note_on", "time": 26, "note": 53, "velocity": 100, "channel": 0}, {"type": "note_off", "time": 153, "note": 53, "velocity": 100, "channel": 0}, {"type": "note_on", "time": 37, "note": 51, "velocity": 99, "channel": 0}, {"type": "note_off", "time": 422, "note": 51, "velocity": 99, "channel": 0}, {"type": "note_on", "time": 59, "note": 46, "velocity": 99, "channel": 0}, {"type": "note_off", "time": 232, "note": 46, "velocity": 99, "channel": 0}, {"type": "note_on", "time": 37, "note": 44, "velocity": 112, "channel": 0}, {"type": "note_off", "time": 463, "note": 44, "velocity": 112, "channel": 0}, {"type": "note_on", "time": 3710, "note": 74, "velocity": 114, "channel": 0}, {"type": "note_off", "time": 183, "note": 74, "velocity": 114, "channel": 0}, {"type": "note_on", "time": 63, "note": 75, "velocity": 117, "channel": 0}, {"type": "note_off", "time": 190, "note": 75, "velocity": 117, "channel": 0}, {"type": "note_on", "time": 0, "note": 74, "velocity": 109, "channel": 0}, {"type": "note_off", "time": 205, "note": 74, "velocity": 109, "channel": 0}, {"type": "note_on", "time": 3, "note": 70, "velocity": 109, "channel": 0}, {"type": "note_off", "time": 175, "note": 70, "velocity": 109, "channel": 0}, {"type": "note_on", "time": 14, "note": 65, "velocity": 104, "channel": 0}, {"type": "note_off", "time": 179, "note": 65, "velocity": 104, "channel": 0}, {"type": "note_on", "time": 11, "note": 66, "velocity": 111, "channel": 0}, {"type": "note_on", "time": 198, "note": 65, "velocity": 112, "channel": 0}, {"type": "note_off", "time": 0, "note": 66, "velocity": 111, "channel": 0}, {"type": "note_off", "time": 190, "note": 65, "velocity": 112, "channel": 0}, {"type": "note_on", "time": 33, "note": 62, "velocity": 114, "channel": 0}, {"type": "note_off", "time": 202, "note": 62, "velocity": 114, "channel": 0}, {"type": "note_on", "time": 37, "note": 58, "velocity": 98, "channel": 0}, {"type": "note_off", "time": 172, "note": 58, "velocity": 98, "channel": 0}, {"type": "note_on", "time": 15, "note": 63, "velocity": 88, "channel": 0}, {"type": "note_off", "time": 6270, "note": 63, "velocity": 88, "channel": 0}, {"type": "note_on", "time": 21, "note": 63, "velocity": 99, "channel": 0}, {"type": "note_off", "time": 511, "note": 63, "velocity": 99, "channel": 0}, {"type": "note_on", "time": 42, "note": 63, "velocity": 101, "channel": 0}, {"type": "note_off", "time": 276, "note": 63, "velocity": 101, "channel": 0}, {"type": "note_on", "time": 21, "note": 63, "velocity": 106, "channel": 0}, {"type": "note_off", "time": 361, "note": 63, "velocity": 106, "channel": 0}, {"type": "note_on", "time": 42, "note": 63, "velocity": 110, "channel": 0}, {"type": "note_off", "time": 468, "note": 63, "velocity": 110, "channel": 0}, {"type": "note_on", "time": 31, "note": 63, "velocity": 111, "channel": 0}, {"type": "note_off", "time": 393, "note": 63, "velocity": 111, "channel": 0}, {"type": "note_on", "time": 42, "note": 63, "velocity": 100, "channel": 0}, {"type": "note_off", "time": 564, "note": 63, "velocity": 100, "channel": 0}, {"type": "note_on", "time": 2257, "note": 74, "velocity": 105, "channel": 0}, {"type": "note_off", "time": 154, "note": 74, "velocity": 105, "channel": 0}, {"type": "note_on", "time": 21, "note": 72, "velocity": 106, "channel": 0}, {"type": "note_off", "time": 69, "note": 72, "velocity": 106, "channel": 0}, {"type": "note_on", "time": 15, "note": 70, "velocity": 110, "channel": 0}, {"type": "note_off", "time": 127, "note": 70, "velocity": 110, "channel": 0}, {"type": "note_on", "time": 47, "note": 68, "velocity": 114, "channel": 0}, {"type": "note_off", "time": 287, "note": 68, "velocity": 114, "channel": 0}, {"type": "note_on", "time": 133, "note": 72, "velocity": 103, "channel": 0}, {"type": "note_off", "time": 180, "note": 72, "velocity": 103, "channel": 0}, {"type": "note_on", "time": 10, "note": 70, "velocity": 107, "channel": 0}, {"type": "note_off", "time": 69, "note": 70, "velocity": 107, "channel": 0}, {"type": "note_on", "time": 26, "note": 68, "velocity": 109, "channel": 0}, {"type": "note_off", "time": 175, "note": 68, "velocity": 109, "channel": 0}, {"type": "note_on", "time": 31, "note": 66, "velocity": 109, "channel": 0}, {"type": "note_off", "time": 255, "note": 66, "velocity": 109, "channel": 0}, {"type": "note_on", "time": 58, "note": 70, "velocity": 92, "channel": 0}, {"type": "note_off", "time": 127, "note": 70, "velocity": 92, "channel": 0}, {"type": "note_on", "time": 21, "note": 68, "velocity": 105, "channel": 0}, {"type": "note_off", "time": 106, "note": 68, "velocity": 105, "channel": 0}, {"type": "note_on", "time": 15, "note": 66, "velocity": 108, "channel": 0}, {"type": "note_off", "time": 127, "note": 66, "velocity": 108, "channel": 0}, {"type": "note_on", "time": 34, "note": 65, "velocity": 110, "channel": 0}, {"type": "note_off", "time": 71, "note": 65, "velocity": 110, "channel": 0}, {"type": "note_on", "time": 14, "note": 64, "velocity": 117, "channel": 0}, {"type": "note_off", "time": 572, "note": 64, "velocity": 117, "channel": 0}, {"type": "note_on", "time": 9, "note": 72, "velocity": 100, "channel": 0}, {"type": "note_off", "time": 7803, "note": 72, "velocity": 100, "channel": 0}, {"type": "track_name", "name": "Melody", "time": 2478}, {"type": "set_tempo", "tempo": 458015, "time": 0}, {"type": "key_signature", "key": "Eb", "time": 0}, {"type": "time_signature", "numerator": 4, "denominator": 4, "clocks_per_click": 24, "notated_32nd_notes_per_beat": 8, "time": 0}, {"type": "note_on", "time": 236, "note": 70, "velocity": 108, "channel": 0}, {"type": "note_on", "time": 191, "note": 68, "velocity": 111, "channel": 0}, {"type": "note_off", "time": 0, "note": 70, "velocity": 108, "channel": 0}, {"type": "note_off", "time": 228, "note": 68, "velocity": 111, "channel": 0}, {"type": "note_on", "time": 31, "note": 66, "velocity": 111, "channel": 0}, {"type": "note_off", "time": 191, "note": 66, "velocity": 111, "channel": 0}, {"type": "note_on", "time": 26, "note": 65, "velocity": 115, "channel": 0}, {"type": "note_off", "time": 165, "note": 65, "velocity": 115, "channel": 0}, {"type": "note_on", "time": 31, "note": 63, "velocity": 122, "channel": 0}, {"type": "note_off", "time": 212, "note": 63, "velocity": 122, "channel": 0}, {"type": "note_on", "time": 31, "note": 62, "velocity": 113, "channel": 0}, {"type": "note_off", "time": 149, "note": 62, "velocity": 113, "channel": 0}, {"type": "note_on", "time": 21, "note": 65, "velocity": 113, "channel": 0}, {"type": "note_off", "time": 196, "note": 65, "velocity": 113, "channel": 0}, {"type": "note_on", "time": 21, "note": 63, "velocity": 121, "channel": 0}, {"type": "note_off", "time": 165, "note": 63, "velocity": 121, "channel": 0}, {"type": "note_on", "time": 15, "note": 62, "velocity": 118, "channel": 0}, {"type": "note_off", "time": 196, "note": 62, "velocity": 118, "channel": 0}, {"type": "note_on", "time": 15, "note": 58, "velocity": 100, "channel": 0}, {"type": "note_on", "time": 186, "note": 53, "velocity": 102, "channel": 0}, {"type": "note_off", "time": 0, "note": 58, "velocity": 100, "channel": 0}, {"type": "note_off", "time": 212, "note": 53, "velocity": 102, "channel": 0}, {"type": "note_on", "time": 15, "note": 54, "velocity": 101, "channel": 0}, {"type": "note_off", "time": 639, "note": 54, "velocity": 101, "channel": 0}, {"type": "note_on", "time": 0, "note": 63, "velocity": 94, "channel": 0}, {"type": "note_off", "time": 6040, "note": 63, "velocity": 94, "channel": 0}, {"type": "note_on", "time": 3545, "note": 53, "velocity": 90, "channel": 0}, {"type": "note_off", "time": 441, "note": 53, "velocity": 90, "channel": 0}, {"type": "note_on", "time": 5, "note": 60, "velocity": 111, "channel": 0}, {"type": "note_off", "time": 361, "note": 60, "velocity": 111, "channel": 0}, {"type": "note_on", "time": 0, "note": 62, "velocity": 114, "channel": 0}, {"type": "note_off", "time": 441, "note": 62, "velocity": 114, "channel": 0}, {"type": "note_on", "time": 26, "note": 63, "velocity": 116, "channel": 0}, {"type": "note_off", "time": 393, "note": 63, "velocity": 116, "channel": 0}, {"type": "note_on", "time": 10, "note": 65, "velocity": 105, "channel": 0}, {"type": "note_off", "time": 292, "note": 65, "velocity": 105, "channel": 0}, {"type": "note_on", "time": 122, "note": 61, "velocity": 111, "channel": 0}, {"type": "note_off", "time": 122, "note": 61, "velocity": 111, "channel": 0}, {"type": "note_on", "time": 15, "note": 62, "velocity": 108, "channel": 0}, {"type": "note_off", "time": 276, "note": 62, "velocity": 108, "channel": 0}, {"type": "note_on", "time": 37, "note": 60, "velocity": 107, "channel": 0}, {"type": "note_off", "time": 202, "note": 60, "velocity": 107, "channel": 0}, {"type": "note_on", "time": 2358, "note": 53, "velocity": 94, "channel": 0}, {"type": "note_off", "time": 431, "note": 53, "velocity": 94, "channel": 0}, {"type": "note_on", "time": 15, "note": 60, "velocity": 113, "channel": 0}, {"type": "note_off", "time": 372, "note": 60, "velocity": 113, "channel": 0}, {"type": "note_on", "time": 5, "note": 62, "velocity": 116, "channel": 0}, {"type": "note_off", "time": 393, "note": 62, "velocity": 116, "channel": 0}, {"type": "note_on", "time": 21, "note": 63, "velocity": 114, "channel": 0}, {"type": "note_off", "time": 351, "note": 63, "velocity": 114, "channel": 0}, {"type": "note_on", "time": 63, "note": 65, "velocity": 106, "channel": 0}, {"type": "note_off", "time": 361, "note": 65, "velocity": 106, "channel": 0}, {"type": "note_on", "time": 95, "note": 61, "velocity": 112, "channel": 0}, {"type": "note_off", "time": 101, "note": 61, "velocity": 112, "channel": 0}, {"type": "note_on", "time": 5, "note": 62, "velocity": 110, "channel": 0}, {"type": "note_off", "time": 266, "note": 62, "velocity": 110, "channel": 0}, {"type": "note_on", "time": 15, "note": 60, "velocity": 93, "channel": 0}, {"type": "note_off", "time": 117, "note": 60, "velocity": 93, "channel": 0}, {"type": "note_on", "time": 21, "note": 61, "velocity": 102, "channel": 0}, {"type": "note_off", "time": 180, "note": 61, "velocity": 102, "channel": 0}, {"type": "note_on", "time": 6047, "note": 60, "velocity": 111, "channel": 0}, {"type": "note_off", "time": 266, "note": 60, "velocity": 111, "channel": 0}, {"type": "note_on", "time": 21, "note": 62, "velocity": 114, "channel": 0}, {"type": "note_off", "time": 287, "note": 62, "velocity": 114, "channel": 0}, {"type": "note_on", "time": 9, "note": 63, "velocity": 116, "channel": 0}, {"type": "note_off", "time": 420, "note": 63, "velocity": 116, "channel": 0}, {"type": "note_on", "time": 36, "note": 65, "velocity": 111, "channel": 0}, {"type": "note_off", "time": 306, "note": 65, "velocity": 111, "channel": 0}, {"type": "note_on", "time": 63, "note": 61, "velocity": 111, "channel": 0}, {"type": "note_off", "time": 123, "note": 61, "velocity": 111, "channel": 0}, {"type": "note_on", "time": 7, "note": 62, "velocity": 113, "channel": 0}, {"type": "note_off", "time": 295, "note": 62, "velocity": 113, "channel": 0}, {"type": "note_on", "time": 11, "note": 67, "velocity": 106, "channel": 0}, {"type": "note_off", "time": 134, "note": 67, "velocity": 106, "channel": 0}, {"type": "note_on", "time": 1172, "note": 53, "velocity": 98, "channel": 0}, {"type": "note_off", "time": 223, "note": 53, "velocity": 98, "channel": 0}, {"type": "note_on", "time": 15, "note": 60, "velocity": 97, "channel": 0}, {"type": "note_off", "time": 292, "note": 60, "velocity": 97, "channel": 0}, {"type": "note_on", "time": 42, "note": 62, "velocity": 111, "channel": 0}, {"type": "note_off", "time": 420, "note": 62, "velocity": 111, "channel": 0}, {"type": "note_on", "time": 5, "note": 63, "velocity": 114, "channel": 0}, {"type": "note_off", "time": 388, "note": 63, "velocity": 114, "channel": 0}, {"type": "note_on", "time": 10, "note": 65, "velocity": 108, "channel": 0}, {"type": "note_off", "time": 292, "note": 65, "velocity": 108, "channel": 0}, {"type": "note_on", "time": 85, "note": 61, "velocity": 108, "channel": 0}, {"type": "note_off", "time": 143, "note": 61, "velocity": 108, "channel": 0}, {"type": "note_on", "time": 37, "note": 62, "velocity": 111, "channel": 0}, {"type": "note_off", "time": 260, "note": 62, "velocity": 111, "channel": 0}, {"type": "note_on", "time": 21, "note": 60, "velocity": 108, "channel": 0}, {"type": "note_off", "time": 196, "note": 60, "velocity": 108, "channel": 0}, {"type": "note_on", "time": 888, "note": 53, "velocity": 96, "channel": 0}, {"type": "note_off", "time": 175, "note": 53, "velocity": 96, "channel": 0}, {"type": "note_on", "time": 26, "note": 60, "velocity": 106, "channel": 0}, {"type": "note_off", "time": 212, "note": 60, "velocity": 106, "channel": 0}, {"type": "note_on", "time": 31, "note": 62, "velocity": 109, "channel": 0}, {"type": "note_off", "time": 180, "note": 62, "velocity": 109, "channel": 0}, {"type": "note_on", "time": 0, "note": 63, "velocity": 114, "channel": 0}, {"type": "note_off", "time": 218, "note": 63, "velocity": 114, "channel": 0}, {"type": "note_on", "time": 26, "note": 65, "velocity": 105, "channel": 0}, {"type": "note_off", "time": 154, "note": 65, "velocity": 105, "channel": 0}, {"type": "note_on", "time": 106, "note": 61, "velocity": 99, "channel": 0}, {"type": "note_off", "time": 101, "note": 61, "velocity": 99, "channel": 0}, {"type": "note_on", "time": 10, "note": 62, "velocity": 102, "channel": 0}, {"type": "note_off", "time": 223, "note": 62, "velocity": 102, "channel": 0}, {"type": "note_on", "time": 37, "note": 65, "velocity": 108, "channel": 0}, {"type": "note_off", "time": 180, "note": 65, "velocity": 108, "channel": 0}, {"type": "note_on", "time": 239, "note": 70, "velocity": 108, "channel": 0}, {"type": "note_off", "time": 346, "note": 70, "velocity": 108, "channel": 0}, {"type": "note_on", "time": 5, "note": 69, "velocity": 103, "channel": 0}, {"type": "note_off", "time": 191, "note": 69, "velocity": 103, "channel": 0}, {"type": "note_on", "time": 2150, "note": 53, "velocity": 97, "channel": 0}, {"type": "note_off", "time": 111, "note": 53, "velocity": 97, "channel": 0}, {"type": "note_on", "time": 21, "note": 60, "velocity": 108, "channel": 0}, {"type": "note_off", "time": 239, "note": 60, "velocity": 108, "channel": 0}, {"type": "note_on", "time": 5, "note": 62, "velocity": 116, "channel": 0}, {"type": "note_off", "time": 212, "note": 62, "velocity": 116, "channel": 0}, {"type": "note_on", "time": 26, "note": 63, "velocity": 115, "channel": 0}, {"type": "note_off", "time": 356, "note": 63, "velocity": 115, "channel": 0}, {"type": "note_on", "time": 10, "note": 65, "velocity": 109, "channel": 0}, {"type": "note_off", "time": 180, "note": 65, "velocity": 109, "channel": 0}, {"type": "note_on", "time": 42, "note": 61, "velocity": 108, "channel": 0}, {"type": "note_off", "time": 149, "note": 61, "velocity": 108, "channel": 0}, {"type": "note_on", "time": 5, "note": 62, "velocity": 110, "channel": 0}, {"type": "note_off", "time": 255, "note": 62, "velocity": 110, "channel": 0}, {"type": "note_on", "time": 26, "note": 60, "velocity": 110, "channel": 0}, {"type": "note_off", "time": 324, "note": 60, "velocity": 110, "channel": 0}, {"type": "note_on", "time": 1346, "note": 70, "velocity": 112, "channel": 0}, {"type": "note_off", "time": 143, "note": 70, "velocity": 112, "channel": 0}, {"type": "note_on", "time": 26, "note": 69, "velocity": 111, "channel": 0}, {"type": "note_off", "time": 165, "note": 69, "velocity": 111, "channel": 0}, {"type": "note_on", "time": 63, "note": 65, "velocity": 100, "channel": 0}, {"type": "note_off", "time": 138, "note": 65, "velocity": 100, "channel": 0}, {"type": "note_on", "time": 10, "note": 67, "velocity": 108, "channel": 0}, {"type": "note_off", "time": 234, "note": 67, "velocity": 108, "channel": 0}, {"type": "note_on", "time": 21, "note": 63, "velocity": 117, "channel": 0}, {"type": "note_off", "time": 191, "note": 63, "velocity": 117, "channel": 0}, {"type": "note_on", "time": 21, "note": 62, "velocity": 113, "channel": 0}, {"type": "note_off", "time": 159, "note": 62, "velocity": 113, "channel": 0}, {"type": "note_on", "time": 37, "note": 60, "velocity": 111, "channel": 0}, {"type": "note_off", "time": 180, "note": 60, "velocity": 111, "channel": 0}, {"type": "note_on", "time": 53, "note": 65, "velocity": 109, "channel": 0}, {"type": "note_on", "time": 377, "note": 67, "velocity": 106, "channel": 0}, {"type": "note_off", "time": 0, "note": 65, "velocity": 109, "channel": 0}, {"type": "note_off", "time": 191, "note": 67, "velocity": 106, "channel": 0}, {"type": "note_on", "time": 239, "note": 62, "velocity": 115, "channel": 0}, {"type": "note_off", "time": 138, "note": 62, "velocity": 115, "channel": 0}, {"type": "note_on", "time": 15, "note": 63, "velocity": 115, "channel": 0}, {"type": "note_off", "time": 260, "note": 63, "velocity": 115, "channel": 0}, {"type": "note_on", "time": 15, "note": 60, "velocity": 95, "channel": 0}, {"type": "note_off", "time": 1016, "note": 60, "velocity": 95, "channel": 0}, {"type": "note_on", "time": 1412, "note": 68, "velocity": 114, "channel": 0}, {"type": "note_off", "time": 239, "note": 68, "velocity": 114, "channel": 0}, {"type": "note_on", "time": 22, "note": 73, "velocity": 100, "channel": 0}, {"type": "note_off", "time": 149, "note": 73, "velocity": 100, "channel": 0}, {"type": "note_on", "time": 935, "note": 70, "velocity": 109, "channel": 0}, {"type": "note_off", "time": 254, "note": 70, "velocity": 109, "channel": 0}, {"type": "note_on", "time": 44, "note": 66, "velocity": 105, "channel": 0}, {"type": "note_off", "time": 164, "note": 66, "velocity": 105, "channel": 0}, {"type": "note_on", "time": 449, "note": 63, "velocity": 117, "channel": 0}, {"type": "note_off", "time": 217, "note": 63, "velocity": 117, "channel": 0}, {"type": "note_on", "time": 26, "note": 68, "velocity": 110, "channel": 0}, {"type": "note_off", "time": 160, "note": 68, "velocity": 110, "channel": 0}, {"type": "note_on", "time": 243, "note": 65, "velocity": 112, "channel": 0}, {"type": "note_off", "time": 160, "note": 65, "velocity": 112, "channel": 0}, {"type": "note_on", "time": 183, "note": 61, "velocity": 107, "channel": 0}, {"type": "note_off", "time": 183, "note": 61, "velocity": 107, "channel": 0}, {"type": "note_on", "time": 11, "note": 58, "velocity": 89, "channel": 0}, {"type": "note_off", "time": 239, "note": 58, "velocity": 89, "channel": 0}, {"type": "note_on", "time": 0, "note": 63, "velocity": 117, "channel": 0}, {"type": "note_off", "time": 217, "note": 63, "velocity": 117, "channel": 0}, {"type": "note_on", "time": 0, "note": 60, "velocity": 108, "channel": 0}, {"type": "note_off", "time": 175, "note": 60, "velocity": 108, "channel": 0}, {"type": "note_on", "time": 14, "note": 56, "velocity": 100, "channel": 0}, {"type": "note_off", "time": 194, "note": 56, "velocity": 100, "channel": 0}, {"type": "note_on", "time": 22, "note": 51, "velocity": 102, "channel": 0}, {"type": "note_off", "time": 164, "note": 51, "velocity": 102, "channel": 0}, {"type": "note_on", "time": 3611, "note": 67, "velocity": 116, "channel": 0}, {"type": "note_off", "time": 209, "note": 67, "velocity": 116, "channel": 0}, {"type": "note_on", "time": 0, "note": 68, "velocity": 113, "channel": 0}, {"type": "note_off", "time": 355, "note": 68, "velocity": 113, "channel": 0}, {"type": "note_on", "time": 71, "note": 73, "velocity": 102, "channel": 0}, {"type": "note_off", "time": 179, "note": 73, "velocity": 102, "channel": 0}, {"type": "note_on", "time": 41, "note": 70, "velocity": 108, "channel": 0}, {"type": "note_off", "time": 209, "note": 70, "velocity": 108, "channel": 0}, {"type": "note_on", "time": 25, "note": 66, "velocity": 108, "channel": 0}, {"type": "note_off", "time": 175, "note": 66, "velocity": 108, "channel": 0}, {"type": "note_on", "time": 15, "note": 65, "velocity": 110, "channel": 0}, {"type": "note_off", "time": 165, "note": 65, "velocity": 110, "channel": 0}, {"type": "note_on", "time": 15, "note": 64, "velocity": 120, "channel": 0}, {"type": "note_off", "time": 212, "note": 64, "velocity": 120, "channel": 0}, {"type": "note_on", "time": 15, "note": 63, "velocity": 116, "channel": 0}, {"type": "note_off", "time": 175, "note": 63, "velocity": 116, "channel": 0}, {"type": "note_on", "time": 10, "note": 65, "velocity": 108, "channel": 0}, {"type": "note_off", "time": 196, "note": 65, "velocity": 108, "channel": 0}, {"type": "note_on", "time": 0, "note": 66, "velocity": 102, "channel": 0}, {"type": "note_off", "time": 202, "note": 66, "velocity": 102, "channel": 0}, {"type": "note_on", "time": 69, "note": 68, "velocity": 113, "channel": 0}, {"type": "note_off", "time": 165, "note": 68, "velocity": 113, "channel": 0}, {"type": "note_on", "time": 21, "note": 65, "velocity": 112, "channel": 0}, {"type": "note_off", "time": 165, "note": 65, "velocity": 112, "channel": 0}, {"type": "note_on", "time": 10, "note": 64, "velocity": 115, "channel": 0}, {"type": "note_off", "time": 202, "note": 64, "velocity": 115, "channel": 0}, {"type": "note_on", "time": 5, "note": 63, "velocity": 111, "channel": 0}, {"type": "note_off", "time": 212, "note": 63, "velocity": 111, "channel": 0}, {"type": "note_on", "time": 5, "note": 68, "velocity": 110, "channel": 0}, {"type": "note_off", "time": 191, "note": 68, "velocity": 110, "channel": 0}, {"type": "note_on", "time": 5, "note": 66, "velocity": 107, "channel": 0}, {"type": "note_off", "time": 196, "note": 66, "velocity": 107, "channel": 0}, {"type": "note_on", "time": 10, "note": 61, "velocity": 112, "channel": 0}, {"type": "note_off", "time": 196, "note": 61, "velocity": 112, "channel": 0}, {"type": "note_on", "time": 10, "note": 58, "velocity": 103, "channel": 0}, {"type": "note_off", "time": 133, "note": 58, "velocity": 103, "channel": 0}, {"type": "note_on", "time": 5, "note": 56, "velocity": 100, "channel": 0}, {"type": "note_off", "time": 207, "note": 56, "velocity": 100, "channel": 0}, {"type": "note_on", "time": 47, "note": 63, "velocity": 118, "channel": 0}, {"type": "note_off", "time": 207, "note": 63, "velocity": 118, "channel": 0}, {"type": "note_on", "time": 15, "note": 61, "velocity": 112, "channel": 0}, {"type": "note_off", "time": 170, "note": 61, "velocity": 112, "channel": 0}, {"type": "note_on", "time": 0, "note": 58, "velocity": 93, "channel": 0}, {"type": "note_off", "time": 212, "note": 58, "velocity": 93, "channel": 0}, {"type": "note_on", "time": 218, "note": 56, "velocity": 106, "channel": 0}, {"type": "note_off", "time": 212, "note": 56, "velocity": 106, "channel": 0}, {"type": "note_on", "time": 21, "note": 54, "velocity": 105, "channel": 0}, {"type": "note_off", "time": 186, "note": 54, "velocity": 105, "channel": 0}, {"type": "note_on", "time": 37, "note": 49, "velocity": 108, "channel": 0}, {"type": "note_off", "time": 196, "note": 49, "velocity": 108, "channel": 0}, {"type": "note_on", "time": 0, "note": 54, "velocity": 107, "channel": 0}, {"type": "note_off", "time": 180, "note": 54, "velocity": 107, "channel": 0}, {"type": "note_on", "time": 43, "note": 50, "velocity": 123, "channel": 0}, {"type": "note_on", "time": 86, "note": 51, "velocity": 115, "channel": 0}, {"type": "note_off", "time": 0, "note": 50, "velocity": 123, "channel": 0}, {"type": "note_off", "time": 261, "note": 51, "velocity": 115, "channel": 0}, {"type": "note_on", "time": 18, "note": 46, "velocity": 114, "channel": 0}, {"type": "note_off", "time": 165, "note": 46, "velocity": 114, "channel": 0}, {"type": "note_on", "time": 15, "note": 44, "velocity": 114, "channel": 0}, {"type": "note_off", "time": 468, "note": 44, "velocity": 114, "channel": 0}, {"type": "note_on", "time": 6735, "note": 70, "velocity": 112, "channel": 0}, {"type": "note_off", "time": 217, "note": 70, "velocity": 112, "channel": 0}, {"type": "note_on", "time": 7, "note": 69, "velocity": 114, "channel": 0}, {"type": "note_off", "time": 179, "note": 69, "velocity": 114, "channel": 0}, {"type": "note_on", "time": 29, "note": 65, "velocity": 102, "channel": 0}, {"type": "note_off", "time": 194, "note": 65, "velocity": 102, "channel": 0}, {"type": "note_on", "time": 0, "note": 67, "velocity": 109, "channel": 0}, {"type": "note_on", "time": 606, "note": 70, "velocity": 105, "channel": 0}, {"type": "note_off", "time": 0, "note": 67, "velocity": 109, "channel": 0}, {"type": "note_off", "time": 217, "note": 70, "velocity": 105, "channel": 0}, {"type": "note_on", "time": 0, "note": 69, "velocity": 112, "channel": 0}, {"type": "note_off", "time": 164, "note": 69, "velocity": 112, "channel": 0}, {"type": "note_on", "time": 59, "note": 65, "velocity": 95, "channel": 0}, {"type": "note_off", "time": 179, "note": 65, "velocity": 95, "channel": 0}, {"type": "note_on", "time": 7, "note": 67, "velocity": 110, "channel": 0}, {"type": "note_off", "time": 643, "note": 67, "velocity": 110, "channel": 0}, {"type": "note_on", "time": 0, "note": 70, "velocity": 108, "channel": 0}, {"type": "note_off", "time": 164, "note": 70, "velocity": 108, "channel": 0}, {"type": "note_on", "time": 7, "note": 69, "velocity": 109, "channel": 0}, {"type": "note_off", "time": 202, "note": 69, "velocity": 109, "channel": 0}, {"type": "note_on", "time": 44, "note": 65, "velocity": 116, "channel": 0}, {"type": "note_on", "time": 202, "note": 67, "velocity": 109, "channel": 0}, {"type": "note_off", "time": 0, "note": 65, "velocity": 116, "channel": 0}, {"type": "note_off", "time": 651, "note": 67, "velocity": 109, "channel": 0}, {"type": "note_on", "time": 14, "note": 70, "velocity": 108, "channel": 0}, {"type": "note_off", "time": 194, "note": 70, "velocity": 108, "channel": 0}, {"type": "note_on", "time": 7, "note": 69, "velocity": 111, "channel": 0}, {"type": "note_off", "time": 209, "note": 69, "velocity": 111, "channel": 0}, {"type": "note_on", "time": 14, "note": 65, "velocity": 109, "channel": 0}, {"type": "note_off", "time": 187, "note": 65, "velocity": 109, "channel": 0}, {"type": "note_on", "time": 0, "note": 67, "velocity": 107, "channel": 0}, {"type": "note_off", "time": 232, "note": 67, "velocity": 107, "channel": 0}, {"type": "note_on", "time": 0, "note": 70, "velocity": 106, "channel": 0}, {"type": "note_off", "time": 179, "note": 70, "velocity": 106, "channel": 0}, {"type": "note_on", "time": 0, "note": 69, "velocity": 110, "channel": 0}, {"type": "note_on", "time": 217, "note": 65, "velocity": 104, "channel": 0}, {"type": "note_off", "time": 0, "note": 69, "velocity": 110, "channel": 0}, {"type": "note_off", "time": 202, "note": 65, "velocity": 104, "channel": 0}, {"type": "note_on", "time": 0, "note": 67, "velocity": 110, "channel": 0}, {"type": "note_off", "time": 561, "note": 67, "velocity": 110, "channel": 0}, {"type": "note_on", "time": 44, "note": 65, "velocity": 98, "channel": 0}, {"type": "note_off", "time": 149, "note": 65, "velocity": 98, "channel": 0}, {"type": "note_on", "time": 14, "note": 67, "velocity": 111, "channel": 0}, {"type": "note_off", "time": 247, "note": 67, "velocity": 111, "channel": 0}, {"type": "note_on", "time": 29, "note": 70, "velocity": 105, "channel": 0}, {"type": "note_off", "time": 172, "note": 70, "velocity": 105, "channel": 0}, {"type": "note_on", "time": 37, "note": 69, "velocity": 109, "channel": 0}, {"type": "note_off", "time": 179, "note": 69, "velocity": 109, "channel": 0}, {"type": "note_on", "time": 7, "note": 65, "velocity": 111, "channel": 0}, {"type": "note_off", "time": 187, "note": 65, "velocity": 111, "channel": 0}, {"type": "note_on", "time": 37, "note": 67, "velocity": 107, "channel": 0}, {"type": "note_off", "time": 651, "note": 67, "velocity": 107, "channel": 0}, {"type": "note_on", "time": 14, "note": 65, "velocity": 116, "channel": 0}, {"type": "note_off", "time": 187, "note": 65, "velocity": 116, "channel": 0}, {"type": "note_on", "time": 0, "note": 67, "velocity": 106, "channel": 0}, {"type": "note_on", "time": 247, "note": 70, "velocity": 107, "channel": 0}, {"type": "note_off", "time": 0, "note": 67, "velocity": 106, "channel": 0}, {"type": "note_off", "time": 157, "note": 70, "velocity": 107, "channel": 0}, {"type": "note_on", "time": 14, "note": 69, "velocity": 104, "channel": 0}, {"type": "note_off", "time": 224, "note": 69, "velocity": 104, "channel": 0}, {"type": "note_on", "time": 14, "note": 65, "velocity": 100, "channel": 0}, {"type": "note_off", "time": 149, "note": 65, "velocity": 100, "channel": 0}, {"type": "note_on", "time": 7, "note": 67, "velocity": 106, "channel": 0}, {"type": "note_off", "time": 209, "note": 67, "velocity": 106, "channel": 0}, {"type": "note_on", "time": 7, "note": 66, "velocity": 105, "channel": 0}, {"type": "note_off", "time": 247, "note": 66, "velocity": 105, "channel": 0}, {"type": "note_on", "time": 14, "note": 65, "velocity": 106, "channel": 0}, {"type": "note_off", "time": 194, "note": 65, "velocity": 106, "channel": 0}, {"type": "note_on", "time": 7, "note": 64, "velocity": 119, "channel": 0}, {"type": "note_off", "time": 209, "note": 64, "velocity": 119, "channel": 0}, {"type": "note_on", "time": 0, "note": 63, "velocity": 116, "channel": 0}, {"type": "note_on", "time": 209, "note": 65, "velocity": 104, "channel": 0}, {"type": "note_off", "time": 0, "note": 63, "velocity": 116, "channel": 0}, {"type": "note_off", "time": 209, "note": 65, "velocity": 104, "channel": 0}, {"type": "note_on", "time": 22, "note": 67, "velocity": 107, "channel": 0}, {"type": "note_off", "time": 202, "note": 67, "velocity": 107, "channel": 0}, {"type": "note_on", "time": 0, "note": 70, "velocity": 106, "channel": 0}, {"type": "note_off", "time": 179, "note": 70, "velocity": 106, "channel": 0}, {"type": "note_on", "time": 29, "note": 69, "velocity": 107, "channel": 0}, {"type": "note_off", "time": 164, "note": 69, "velocity": 107, "channel": 0}, {"type": "note_on", "time": 29, "note": 65, "velocity": 98, "channel": 0}, {"type": "note_off", "time": 157, "note": 65, "velocity": 98, "channel": 0}, {"type": "note_on", "time": 14, "note": 67, "velocity": 107, "channel": 0}, {"type": "note_off", "time": 239, "note": 67, "velocity": 107, "channel": 0}, {"type": "note_on", "time": 7, "note": 64, "velocity": 119, "channel": 0}, {"type": "note_off", "time": 314, "note": 64, "velocity": 119, "channel": 0}, {"type": "note_on", "time": 2215, "note": 70, "velocity": 111, "channel": 0}, {"type": "note_off", "time": 187, "note": 70, "velocity": 111, "channel": 0}, {"type": "note_on", "time": 0, "note": 72, "velocity": 103, "channel": 0}, {"type": "note_off", "time": 179, "note": 72, "velocity": 103, "channel": 0}, {"type": "note_on", "time": 0, "note": 76, "velocity": 116, "channel": 0}, {"type": "note_off", "time": 217, "note": 76, "velocity": 116, "channel": 0}, {"type": "note_on", "time": 0, "note": 77, "velocity": 100, "channel": 0}, {"type": "note_off", "time": 232, "note": 77, "velocity": 100, "channel": 0}, {"type": "note_on", "time": 13, "note": 76, "velocity": 108, "channel": 0}, {"type": "note_off", "time": 173, "note": 76, "velocity": 108, "channel": 0}, {"type": "note_on", "time": 0, "note": 70, "velocity": 103, "channel": 0}, {"type": "note_off", "time": 207, "note": 70, "velocity": 103, "channel": 0}, {"type": "note_on", "time": 28, "note": 67, "velocity": 92, "channel": 0}, {"type": "note_off", "time": 180, "note": 67, "velocity": 92, "channel": 0}, {"type": "note_on", "time": 27, "note": 69, "velocity": 112, "channel": 0}, {"type": "note_off", "time": 186, "note": 69, "velocity": 112, "channel": 0}, {"type": "note_on", "time": 21, "note": 66, "velocity": 105, "channel": 0}, {"type": "note_off", "time": 165, "note": 66, "velocity": 105, "channel": 0}, {"type": "note_on", "time": 15, "note": 65, "velocity": 110, "channel": 0}, {"type": "note_off", "time": 250, "note": 65, "velocity": 110, "channel": 0}, {"type": "note_on", "time": 0, "note": 64, "velocity": 119, "channel": 0}, {"type": "note_off", "time": 159, "note": 64, "velocity": 119, "channel": 0}, {"type": "note_on", "time": 15, "note": 63, "velocity": 114, "channel": 0}, {"type": "note_off", "time": 186, "note": 63, "velocity": 114, "channel": 0}, {"type": "note_on", "time": 15, "note": 65, "velocity": 106, "channel": 0}, {"type": "note_off", "time": 170, "note": 65, "velocity": 106, "channel": 0}, {"type": "note_on", "time": 21, "note": 66, "velocity": 103, "channel": 0}, {"type": "note_off", "time": 183, "note": 66, "velocity": 103, "channel": 0}, {"type": "note_on", "time": 31, "note": 68, "velocity": 112, "channel": 0}, {"type": "note_off", "time": 239, "note": 68, "velocity": 112, "channel": 0}, {"type": "note_on", "time": 14, "note": 65, "velocity": 112, "channel": 0}, {"type": "note_off", "time": 175, "note": 65, "velocity": 112, "channel": 0}, {"type": "note_on", "time": 18, "note": 64, "velocity": 120, "channel": 0}, {"type": "note_off", "time": 213, "note": 64, "velocity": 120, "channel": 0}, {"type": "note_on", "time": 0, "note": 63, "velocity": 116, "channel": 0}, {"type": "note_on", "time": 202, "note": 67, "velocity": 107, "channel": 0}, {"type": "note_off", "time": 0, "note": 63, "velocity": 116, "channel": 0}, {"type": "note_off", "time": 217, "note": 67, "velocity": 107, "channel": 0}, {"type": "note_on", "time": 11, "note": 66, "velocity": 108, "channel": 0}, {"type": "note_off", "time": 175, "note": 66, "velocity": 108, "channel": 0}, {"type": "note_on", "time": 33, "note": 61, "velocity": 111, "channel": 0}, {"type": "note_off", "time": 207, "note": 61, "velocity": 111, "channel": 0}, {"type": "note_on", "time": 10, "note": 58, "velocity": 101, "channel": 0}, {"type": "note_off", "time": 180, "note": 58, "velocity": 101, "channel": 0}, {"type": "note_on", "time": 21, "note": 56, "velocity": 104, "channel": 0}, {"type": "note_on", "time": 170, "note": 63, "velocity": 118, "channel": 0}, {"type": "note_off", "time": 0, "note": 56, "velocity": 104, "channel": 0}, {"type": "note_off", "time": 165, "note": 63, "velocity": 118, "channel": 0}, {"type": "note_on", "time": 31, "note": 61, "velocity": 109, "channel": 0}, {"type": "note_off", "time": 180, "note": 61, "velocity": 109, "channel": 0}, {"type": "note_on", "time": 10, "note": 58, "velocity": 106, "channel": 0}, {"type": "note_off", "time": 85, "note": 58, "velocity": 106, "channel": 0}, {"type": "note_on", "time": 10, "note": 56, "velocity": 99, "channel": 0}, {"type": "note_off", "time": 95, "note": 56, "velocity": 99, "channel": 0}, {"type": "note_on", "time": 26, "note": 63, "velocity": 119, "channel": 0}, {"type": "note_off", "time": 186, "note": 63, "velocity": 119, "channel": 0}, {"type": "note_on", "time": 10, "note": 61, "velocity": 116, "channel": 0}, {"type": "note_off", "time": 143, "note": 61, "velocity": 116, "channel": 0}, {"type": "note_on", "time": 5, "note": 58, "velocity": 109, "channel": 0}, {"type": "note_off", "time": 122, "note": 58, "velocity": 109, "channel": 0}, {"type": "note_on", "time": 15, "note": 56, "velocity": 110, "channel": 0}, {"type": "note_off", "time": 127, "note": 56, "velocity": 110, "channel": 0}, {"type": "note_on", "time": 15, "note": 63, "velocity": 115, "channel": 0}, {"type": "note_off", "time": 149, "note": 63, "velocity": 115, "channel": 0}, {"type": "note_on", "time": 0, "note": 61, "velocity": 114, "channel": 0}, {"type": "note_off", "time": 127, "note": 61, "velocity": 114, "channel": 0}, {"type": "note_on", "time": 21, "note": 58, "velocity": 104, "channel": 0}, {"type": "note_off", "time": 138, "note": 58, "velocity": 104, "channel": 0}, {"type": "note_on", "time": 21, "note": 56, "velocity": 101, "channel": 0}, {"type": "note_off", "time": 127, "note": 56, "velocity": 101, "channel": 0}, {"type": "note_on", "time": 0, "note": 63, "velocity": 119, "channel": 0}, {"type": "note_on", "time": 175, "note": 61, "velocity": 114, "channel": 0}, {"type": "note_off", "time": 0, "note": 63, "velocity": 119, "channel": 0}, {"type": "note_off", "time": 127, "note": 61, "velocity": 114, "channel": 0}, {"type": "note_on", "time": 5, "note": 58, "velocity": 106, "channel": 0}, {"type": "note_off", "time": 101, "note": 58, "velocity": 106, "channel": 0}, {"type": "note_on", "time": 15, "note": 56, "velocity": 101, "channel": 0}, {"type": "note_off", "time": 117, "note": 56, "velocity": 101, "channel": 0}, {"type": "note_on", "time": 37, "note": 63, "velocity": 115, "channel": 0}, {"type": "note_off", "time": 186, "note": 63, "velocity": 115, "channel": 0}, {"type": "note_on", "time": 0, "note": 61, "velocity": 106, "channel": 0}, {"type": "note_off", "time": 117, "note": 61, "velocity": 106, "channel": 0}, {"type": "note_on", "time": 10, "note": 58, "velocity": 106, "channel": 0}, {"type": "note_off", "time": 117, "note": 58, "velocity": 106, "channel": 0}, {"type": "note_on", "time": 15, "note": 56, "velocity": 102, "channel": 0}, {"type": "note_off", "time": 111, "note": 56, "velocity": 102, "channel": 0}, {"type": "note_on", "time": 15, "note": 63, "velocity": 116, "channel": 0}, {"type": "note_off", "time": 165, "note": 63, "velocity": 116, "channel": 0}, {"type": "note_on", "time": 10, "note": 61, "velocity": 110, "channel": 0}, {"type": "note_off", "time": 159, "note": 61, "velocity": 110, "channel": 0}, {"type": "note_on", "time": 5, "note": 58, "velocity": 107, "channel": 0}, {"type": "note_off", "time": 122, "note": 58, "velocity": 107, "channel": 0}, {"type": "note_on", "time": 0, "note": 56, "velocity": 104, "channel": 0}, {"type": "note_off", "time": 79, "note": 56, "velocity": 104, "channel": 0}, {"type": "note_on", "time": 10, "note": 63, "velocity": 112, "channel": 0}, {"type": "note_off", "time": 404, "note": 63, "velocity": 112, "channel": 0}, {"type": "note_on", "time": 1133, "note": 63, "velocity": 119, "channel": 0}, {"type": "note_off", "time": 122, "note": 63, "velocity": 119, "channel": 0}, {"type": "note_on", "time": 21, "note": 62, "velocity": 114, "channel": 0}, {"type": "note_off", "time": 122, "note": 62, "velocity": 114, "channel": 0}, {"type": "note_on", "time": 26, "note": 59, "velocity": 101, "channel": 0}, {"type": "note_off", "time": 127, "note": 59, "velocity": 101, "channel": 0}, {"type": "note_on", "time": 21, "note": 56, "velocity": 103, "channel": 0}, {"type": "note_off", "time": 127, "note": 56, "velocity": 103, "channel": 0}, {"type": "note_on", "time": 47, "note": 63, "velocity": 104, "channel": 0}, {"type": "note_off", "time": 191, "note": 63, "velocity": 104, "channel": 0}, {"type": "note_on", "time": 10, "note": 62, "velocity": 112, "channel": 0}, {"type": "note_off", "time": 138, "note": 62, "velocity": 112, "channel": 0}, {"type": "note_on", "time": 10, "note": 59, "velocity": 98, "channel": 0}, {"type": "note_off", "time": 159, "note": 59, "velocity": 98, "channel": 0}, {"type": "note_on", "time": 0, "note": 56, "velocity": 102, "channel": 0}, {"type": "note_off", "time": 90, "note": 56, "velocity": 102, "channel": 0}, {"type": "note_on", "time": 0, "note": 63, "velocity": 117, "channel": 0}, {"type": "note_off", "time": 234, "note": 63, "velocity": 117, "channel": 0}, {"type": "note_on", "time": 10, "note": 62, "velocity": 115, "channel": 0}, {"type": "note_off", "time": 117, "note": 62, "velocity": 115, "channel": 0}, {"type": "note_on", "time": 10, "note": 59, "velocity": 101, "channel": 0}, {"type": "note_off", "time": 95, "note": 59, "velocity": 101, "channel": 0}, {"type": "note_on", "time": 15, "note": 56, "velocity": 101, "channel": 0}, {"type": "note_off", "time": 95, "note": 56, "velocity": 101, "channel": 0}, {"type": "note_on", "time": 31, "note": 63, "velocity": 115, "channel": 0}, {"type": "note_off", "time": 223, "note": 63, "velocity": 115, "channel": 0}, {"type": "note_on", "time": 5, "note": 62, "velocity": 113, "channel": 0}, {"type": "note_off", "time": 143, "note": 62, "velocity": 113, "channel": 0}, {"type": "note_on", "time": 5, "note": 59, "velocity": 101, "channel": 0}, {"type": "note_off", "time": 101, "note": 59, "velocity": 101, "channel": 0}, {"type": "note_on", "time": 26, "note": 56, "velocity": 107, "channel": 0}, {"type": "note_off", "time": 90, "note": 56, "velocity": 107, "channel": 0}, {"type": "note_on", "time": 5, "note": 63, "velocity": 118, "channel": 0}, {"type": "note_off", "time": 180, "note": 63, "velocity": 118, "channel": 0}, {"type": "note_on", "time": 15, "note": 62, "velocity": 108, "channel": 0}, {"type": "note_off", "time": 149, "note": 62, "velocity": 108, "channel": 0}, {"type": "note_on", "time": 0, "note": 59, "velocity": 101, "channel": 0}, {"type": "note_off", "time": 101, "note": 59, "velocity": 101, "channel": 0}, {"type": "note_on", "time": 26, "note": 56, "velocity": 105, "channel": 0}, {"type": "note_off", "time": 95, "note": 56, "velocity": 105, "channel": 0}, {"type": "note_on", "time": 53, "note": 63, "velocity": 115, "channel": 0}, {"type": "note_off", "time": 180, "note": 63, "velocity": 115, "channel": 0}, {"type": "note_on", "time": 21, "note": 62, "velocity": 112, "channel": 0}, {"type": "note_off", "time": 111, "note": 62, "velocity": 112, "channel": 0}, {"type": "note_on", "time": 10, "note": 59, "velocity": 103, "channel": 0}, {"type": "note_off", "time": 106, "note": 59, "velocity": 103, "channel": 0}, {"type": "note_on", "time": 15, "note": 56, "velocity": 103, "channel": 0}, {"type": "note_off", "time": 111, "note": 56, "velocity": 103, "channel": 0}, {"type": "note_on", "time": 26, "note": 63, "velocity": 116, "channel": 0}, {"type": "note_off", "time": 180, "note": 63, "velocity": 116, "channel": 0}, {"type": "note_on", "time": 10, "note": 61, "velocity": 114, "channel": 0}, {"type": "note_off", "time": 149, "note": 61, "velocity": 114, "channel": 0}, {"type": "note_on", "time": 10, "note": 58, "velocity": 108, "channel": 0}, {"type": "note_off", "time": 133, "note": 58, "velocity": 108, "channel": 0}, {"type": "note_on", "time": 26, "note": 56, "velocity": 112, "channel": 0}, {"type": "note_off", "time": 111, "note": 56, "velocity": 112, "channel": 0}, {"type": "note_on", "time": 0, "note": 63, "velocity": 117, "channel": 0}, {"type": "note_off", "time": 180, "note": 63, "velocity": 117, "channel": 0}, {"type": "note_on", "time": 15, "note": 61, "velocity": 114, "channel": 0}, {"type": "note_off", "time": 127, "note": 61, "velocity": 114, "channel": 0}, {"type": "note_on", "time": 15, "note": 58, "velocity": 108, "channel": 0}, {"type": "note_off", "time": 122, "note": 58, "velocity": 108, "channel": 0}, {"type": "note_on", "time": 5, "note": 56, "velocity": 116, "channel": 0}, {"type": "note_off", "time": 111, "note": 56, "velocity": 116, "channel": 0}, {"type": "note_on", "time": 0, "note": 63, "velocity": 115, "channel": 0}, {"type": "note_off", "time": 590, "note": 63, "velocity": 115, "channel": 0}, {"type": "note_on", "time": 1202, "note": 63, "velocity": 117, "channel": 0}, {"type": "note_off", "time": 404, "note": 63, "velocity": 117, "channel": 0}, {"type": "note_on", "time": 0, "note": 65, "velocity": 110, "channel": 0}, {"type": "note_off", "time": 232, "note": 65, "velocity": 110, "channel": 0}, {"type": "note_on", "time": 217, "note": 65, "velocity": 110, "channel": 0}, {"type": "note_off", "time": 434, "note": 65, "velocity": 110, "channel": 0}, {"type": "note_on", "time": 7, "note": 67, "velocity": 109, "channel": 0}, {"type": "note_off", "time": 321, "note": 67, "velocity": 109, "channel": 0}, {"type": "note_on", "time": 786, "note": 67, "velocity": 106, "channel": 0}, {"type": "note_off", "time": 104, "note": 67, "velocity": 106, "channel": 0}, {"type": "note_on", "time": 37, "note": 69, "velocity": 111, "channel": 0}, {"type": "note_off", "time": 194, "note": 69, "velocity": 111, "channel": 0}, {"type": "note_on", "time": 37, "note": 67, "velocity": 110, "channel": 0}, {"type": "note_off", "time": 202, "note": 67, "velocity": 110, "channel": 0}, {"type": "note_on", "time": 29, "note": 65, "velocity": 110, "channel": 0}, {"type": "note_off", "time": 224, "note": 65, "velocity": 110, "channel": 0}, {"type": "note_on", "time": 7, "note": 70, "velocity": 108, "channel": 0}, {"type": "note_off", "time": 254, "note": 70, "velocity": 108, "channel": 0}, {"type": "note_on", "time": 67, "note": 68, "velocity": 108, "channel": 0}, {"type": "note_off", "time": 224, "note": 68, "velocity": 108, "channel": 0}, {"type": "note_on", "time": 14, "note": 66, "velocity": 105, "channel": 0}, {"type": "note_off", "time": 209, "note": 66, "velocity": 105, "channel": 0}, {"type": "note_on", "time": 44, "note": 71, "velocity": 102, "channel": 0}, {"type": "note_off", "time": 269, "note": 71, "velocity": 102, "channel": 0}, {"type": "note_on", "time": 67, "note": 69, "velocity": 108, "channel": 0}, {"type": "note_off", "time": 232, "note": 69, "velocity": 108, "channel": 0}, {"type": "note_on", "time": 44, "note": 67, "velocity": 106, "channel": 0}, {"type": "note_off", "time": 393, "note": 67, "velocity": 106, "channel": 0}, {"type": "note_on", "time": 1927, "note": 73, "velocity": 106, "channel": 0}, {"type": "note_off", "time": 194, "note": 73, "velocity": 106, "channel": 0}, {"type": "note_on", "time": 37, "note": 71, "velocity": 107, "channel": 0}, {"type": "note_off", "time": 187, "note": 71, "velocity": 107, "channel": 0}, {"type": "note_on", "time": 44, "note": 70, "velocity": 111, "channel": 0}, {"type": "note_off", "time": 187, "note": 70, "velocity": 111, "channel": 0}, {"type": "note_on", "time": 37, "note": 69, "velocity": 111, "channel": 0}, {"type": "note_off", "time": 164, "note": 69, "velocity": 111, "channel": 0}, {"type": "note_on", "time": 29, "note": 68, "velocity": 110, "channel": 0}, {"type": "note_off", "time": 209, "note": 68, "velocity": 110, "channel": 0}, {"type": "note_on", "time": 14, "note": 67, "velocity": 108, "channel": 0}, {"type": "note_off", "time": 157, "note": 67, "velocity": 108, "channel": 0}, {"type": "note_on", "time": 52, "note": 66, "velocity": 107, "channel": 0}, {"type": "note_off", "time": 187, "note": 66, "velocity": 107, "channel": 0}, {"type": "note_on", "time": 22, "note": 65, "velocity": 112, "channel": 0}, {"type": "note_off", "time": 187, "note": 65, "velocity": 112, "channel": 0}, {"type": "note_on", "time": 59, "note": 64, "velocity": 117, "channel": 0}, {"type": "note_off", "time": 149, "note": 64, "velocity": 117, "channel": 0}, {"type": "note_on", "time": 37, "note": 63, "velocity": 114, "channel": 0}, {"type": "note_on", "time": 149, "note": 67, "velocity": 106, "channel": 0}, {"type": "note_off", "time": 0, "note": 63, "velocity": 114, "channel": 0}, {"type": "note_off", "time": 209, "note": 67, "velocity": 106, "channel": 0}, {"type": "note_on", "time": 59, "note": 63, "velocity": 115, "channel": 0}, {"type": "note_off", "time": 172, "note": 63, "velocity": 115, "channel": 0}, {"type": "note_on", "time": 22, "note": 62, "velocity": 112, "channel": 0}, {"type": "note_off", "time": 179, "note": 62, "velocity": 112, "channel": 0}, {"type": "note_on", "time": 7, "note": 61, "velocity": 111, "channel": 0}, {"type": "note_off", "time": 172, "note": 61, "velocity": 111, "channel": 0}, {"type": "note_on", "time": 37, "note": 64, "velocity": 119, "channel": 0}, {"type": "note_off", "time": 224, "note": 64, "velocity": 119, "channel": 0}, {"type": "note_on", "time": 22, "note": 63, "velocity": 115, "channel": 0}, {"type": "note_off", "time": 172, "note": 63, "velocity": 115, "channel": 0}, {"type": "note_on", "time": 14, "note": 62, "velocity": 102, "channel": 0}, {"type": "note_off", "time": 149, "note": 62, "velocity": 102, "channel": 0}, {"type": "note_on", "time": 0, "note": 65, "velocity": 113, "channel": 0}, {"type": "note_off", "time": 247, "note": 65, "velocity": 113, "channel": 0}, {"type": "note_on", "time": 22, "note": 64, "velocity": 119, "channel": 0}, {"type": "note_off", "time": 179, "note": 64, "velocity": 119, "channel": 0}, {"type": "note_on", "time": 7, "note": 63, "velocity": 114, "channel": 0}, {"type": "note_off", "time": 187, "note": 63, "velocity": 114, "channel": 0}, {"type": "note_on", "time": 22, "note": 66, "velocity": 105, "channel": 0}, {"type": "note_off", "time": 209, "note": 66, "velocity": 105, "channel": 0}, {"type": "note_on", "time": 22, "note": 65, "velocity": 108, "channel": 0}, {"type": "note_off", "time": 224, "note": 65, "velocity": 108, "channel": 0}, {"type": "note_on", "time": 44, "note": 64, "velocity": 110, "channel": 0}, {"type": "note_off", "time": 179, "note": 64, "velocity": 110, "channel": 0}, {"type": "note_on", "time": 14, "note": 65, "velocity": 111, "channel": 0}, {"type": "note_off", "time": 239, "note": 65, "velocity": 111, "channel": 0}, {"type": "note_on", "time": 7, "note": 64, "velocity": 105, "channel": 0}, {"type": "note_off", "time": 157, "note": 64, "velocity": 105, "channel": 0}, {"type": "note_on", "time": 7, "note": 65, "velocity": 112, "channel": 0}, {"type": "note_off", "time": 194, "note": 65, "velocity": 112, "channel": 0}, {"type": "note_on", "time": 57, "note": 66, "velocity": 91, "channel": 0}, {"type": "note_off", "time": 516, "note": 66, "velocity": 91, "channel": 0}, {"type": "note_on", "time": 58, "note": 66, "velocity": 106, "channel": 0}, {"type": "note_off", "time": 212, "note": 66, "velocity": 106, "channel": 0}, {"type": "note_on", "time": 26, "note": 67, "velocity": 93, "channel": 0}, {"type": "note_off", "time": 590, "note": 67, "velocity": 93, "channel": 0}, {"type": "note_on", "time": 26, "note": 67, "velocity": 108, "channel": 0}, {"type": "note_off", "time": 218, "note": 67, "velocity": 108, "channel": 0}, {"type": "note_on", "time": 42, "note": 68, "velocity": 97, "channel": 0}, {"type": "note_off", "time": 521, "note": 68, "velocity": 97, "channel": 0}, {"type": "note_on", "time": 47, "note": 68, "velocity": 108, "channel": 0}, {"type": "note_off", "time": 260, "note": 68, "velocity": 108, "channel": 0}, {"type": "note_on", "time": 633, "note": 69, "velocity": 111, "channel": 0}, {"type": "note_off", "time": 154, "note": 69, "velocity": 111, "channel": 0}, {"type": "note_on", "time": 10, "note": 68, "velocity": 95, "channel": 0}, {"type": "note_off", "time": 165, "note": 68, "velocity": 95, "channel": 0}, {"type": "note_on", "time": 11, "note": 69, "velocity": 105, "channel": 0}, {"type": "note_off", "time": 411, "note": 69, "velocity": 105, "channel": 0}, {"type": "note_on", "time": 2, "note": 70, "velocity": 108, "channel": 0}, {"type": "note_off", "time": 234, "note": 70, "velocity": 108, "channel": 0}, {"type": "note_on", "time": 15, "note": 69, "velocity": 95, "channel": 0}, {"type": "note_off", "time": 133, "note": 69, "velocity": 95, "channel": 0}, {"type": "note_on", "time": 37, "note": 70, "velocity": 105, "channel": 0}, {"type": "note_off", "time": 393, "note": 70, "velocity": 105, "channel": 0}, {"type": "note_on", "time": 31, "note": 71, "velocity": 109, "channel": 0}, {"type": "note_off", "time": 218, "note": 71, "velocity": 109, "channel": 0}, {"type": "note_on", "time": 10, "note": 70, "velocity": 98, "channel": 0}, {"type": "note_off", "time": 154, "note": 70, "velocity": 98, "channel": 0}, {"type": "note_on", "time": 5, "note": 71, "velocity": 102, "channel": 0}, {"type": "note_off", "time": 202, "note": 71, "velocity": 102, "channel": 0}, {"type": "note_on", "time": 53, "note": 72, "velocity": 109, "channel": 0}, {"type": "note_off", "time": 159, "note": 72, "velocity": 109, "channel": 0}, {"type": "note_on", "time": 1549, "note": 71, "velocity": 105, "channel": 0}, {"type": "note_off", "time": 133, "note": 71, "velocity": 105, "channel": 0}, {"type": "note_on", "time": 15, "note": 72, "velocity": 99, "channel": 0}, {"type": "note_off", "time": 154, "note": 72, "velocity": 99, "channel": 0}, {"type": "note_on", "time": 106, "note": 79, "velocity": 106, "channel": 0}, {"type": "note_off", "time": 143, "note": 79, "velocity": 106, "channel": 0}, {"type": "note_on", "time": 24, "note": 80, "velocity": 106, "channel": 0}, {"type": "note_off", "time": 212, "note": 80, "velocity": 106, "channel": 0}, {"type": "note_on", "time": 34, "note": 79, "velocity": 104, "channel": 0}, {"type": "note_off", "time": 330, "note": 79, "velocity": 104, "channel": 0}, {"type": "note_on", "time": 276, "note": 70, "velocity": 106, "channel": 0}, {"type": "note_off", "time": 202, "note": 70, "velocity": 106, "channel": 0}, {"type": "note_on", "time": 44, "note": 66, "velocity": 101, "channel": 0}, {"type": "note_off", "time": 187, "note": 66, "velocity": 101, "channel": 0}, {"type": "note_on", "time": 22, "note": 65, "velocity": 109, "channel": 0}, {"type": "note_off", "time": 157, "note": 65, "velocity": 109, "channel": 0}, {"type": "note_on", "time": 22, "note": 64, "velocity": 119, "channel": 0}, {"type": "note_off", "time": 164, "note": 64, "velocity": 119, "channel": 0}, {"type": "note_on", "time": 44, "note": 63, "velocity": 117, "channel": 0}, {"type": "note_off", "time": 142, "note": 63, "velocity": 117, "channel": 0}, {"type": "note_on", "time": 22, "note": 65, "velocity": 110, "channel": 0}, {"type": "note_on", "time": 172, "note": 66, "velocity": 105, "channel": 0}, {"type": "note_off", "time": 0, "note": 65, "velocity": 110, "channel": 0}, {"type": "note_off", "time": 187, "note": 66, "velocity": 105, "channel": 0}, {"type": "note_on", "time": 29, "note": 68, "velocity": 112, "channel": 0}, {"type": "note_off", "time": 187, "note": 68, "velocity": 112, "channel": 0}, {"type": "note_on", "time": 7, "note": 65, "velocity": 111, "channel": 0}, {"type": "note_off", "time": 202, "note": 65, "velocity": 111, "channel": 0}, {"type": "note_on", "time": 14, "note": 64, "velocity": 117, "channel": 0}, {"type": "note_off", "time": 149, "note": 64, "velocity": 117, "channel": 0}, {"type": "note_on", "time": 22, "note": 63, "velocity": 115, "channel": 0}, {"type": "note_off", "time": 187, "note": 63, "velocity": 115, "channel": 0}, {"type": "note_on", "time": 33, "note": 67, "velocity": 105, "channel": 0}, {"type": "note_off", "time": 160, "note": 67, "velocity": 105, "channel": 0}, {"type": "note_on", "time": 11, "note": 66, "velocity": 112, "channel": 0}, {"type": "note_off", "time": 213, "note": 66, "velocity": 112, "channel": 0}, {"type": "note_on", "time": 22, "note": 61, "velocity": 117, "channel": 0}, {"type": "note_off", "time": 179, "note": 61, "velocity": 117, "channel": 0}, {"type": "note_on", "time": 33, "note": 58, "velocity": 110, "channel": 0}, {"type": "note_off", "time": 149, "note": 58, "velocity": 110, "channel": 0}, {"type": "note_on", "time": 22, "note": 56, "velocity": 113, "channel": 0}, {"type": "note_off", "time": 194, "note": 56, "velocity": 113, "channel": 0}, {"type": "note_on", "time": 26, "note": 63, "velocity": 117, "channel": 0}, {"type": "note_off", "time": 213, "note": 63, "velocity": 117, "channel": 0}, {"type": "note_on", "time": 22, "note": 61, "velocity": 120, "channel": 0}, {"type": "note_off", "time": 168, "note": 61, "velocity": 120, "channel": 0}, {"type": "note_on", "time": 18, "note": 58, "velocity": 107, "channel": 0}, {"type": "note_off", "time": 138, "note": 58, "velocity": 107, "channel": 0}, {"type": "note_on", "time": 56, "note": 49, "velocity": 110, "channel": 0}, {"type": "note_off", "time": 198, "note": 49, "velocity": 110, "channel": 0}, {"type": "note_on", "time": 7, "note": 57, "velocity": 110, "channel": 0}, {"type": "note_off", "time": 190, "note": 57, "velocity": 110, "channel": 0}, {"type": "note_on", "time": 7, "note": 52, "velocity": 115, "channel": 0}, {"type": "note_off", "time": 175, "note": 52, "velocity": 115, "channel": 0}, {"type": "note_on", "time": 22, "note": 46, "velocity": 121, "channel": 0}, {"type": "note_off", "time": 194, "note": 46, "velocity": 121, "channel": 0}, {"type": "note_on", "time": 0, "note": 53, "velocity": 113, "channel": 0}, {"type": "note_off", "time": 190, "note": 53, "velocity": 113, "channel": 0}, {"type": "note_on", "time": 62, "note": 45, "velocity": 119, "channel": 0}, {"type": "note_off", "time": 346, "note": 45, "velocity": 119, "channel": 0}, {"type": "note_on", "time": 21, "note": 46, "velocity": 116, "channel": 0}, {"type": "note_off", "time": 255, "note": 46, "velocity": 116, "channel": 0}, {"type": "note_on", "time": 212, "note": 45, "velocity": 120, "channel": 0}, {"type": "note_off", "time": 314, "note": 45, "velocity": 120, "channel": 0}, {"type": "note_on", "time": 0, "note": 46, "velocity": 113, "channel": 0}, {"type": "note_off", "time": 271, "note": 46, "velocity": 113, "channel": 0}, {"type": "note_on", "time": 74, "note": 48, "velocity": 115, "channel": 0}, {"type": "note_off", "time": 585, "note": 48, "velocity": 115, "channel": 0}, {"type": "note_on", "time": 1056, "note": 74, "velocity": 100, "channel": 0}, {"type": "note_off", "time": 58, "note": 74, "velocity": 100, "channel": 0}, {"type": "note_on", "time": 13, "note": 73, "velocity": 108, "channel": 0}, {"type": "note_off", "time": 90, "note": 73, "velocity": 108, "channel": 0}, {"type": "note_on", "time": 10, "note": 72, "velocity": 110, "channel": 0}, {"type": "note_off", "time": 53, "note": 72, "velocity": 110, "channel": 0}, {"type": "note_on", "time": 15, "note": 71, "velocity": 113, "channel": 0}, {"type": "note_off", "time": 74, "note": 71, "velocity": 113, "channel": 0}, {"type": "note_on", "time": 10, "note": 70, "velocity": 114, "channel": 0}, {"type": "note_off", "time": 154, "note": 70, "velocity": 114, "channel": 0}, {"type": "note_on", "time": 330, "note": 73, "velocity": 96, "channel": 0}, {"type": "note_off", "time": 85, "note": 73, "velocity": 96, "channel": 0}, {"type": "note_on", "time": 10, "note": 71, "velocity": 97, "channel": 0}, {"type": "note_on", "time": 85, "note": 70, "velocity": 103, "channel": 0}, {"type": "note_off", "time": 0, "note": 71, "velocity": 97, "channel": 0}, {"type": "note_off", "time": 69, "note": 70, "velocity": 103, "channel": 0}, {"type": "note_on", "time": 10, "note": 68, "velocity": 114, "channel": 0}, {"type": "note_off", "time": 202, "note": 68, "velocity": 114, "channel": 0}, {"type": "note_on", "time": 393, "note": 69, "velocity": 110, "channel": 0}, {"type": "note_on", "time": 79, "note": 68, "velocity": 104, "channel": 0}, {"type": "note_off", "time": 0, "note": 69, "velocity": 110, "channel": 0}, {"type": "note_off", "time": 90, "note": 68, "velocity": 104, "channel": 0}, {"type": "note_on", "time": 15, "note": 67, "velocity": 110, "channel": 0}, {"type": "note_off", "time": 79, "note": 67, "velocity": 110, "channel": 0}, {"type": "note_on", "time": 5, "note": 66, "velocity": 109, "channel": 0}, {"type": "note_off", "time": 165, "note": 66, "velocity": 109, "channel": 0}, {"type": "note_on", "time": 984, "note": 46, "velocity": 113, "channel": 0}, {"type": "note_off", "time": 127, "note": 46, "velocity": 113, "channel": 0}, {"type": "note_on", "time": 15, "note": 48, "velocity": 111, "channel": 0}, {"type": "note_off", "time": 127, "note": 48, "velocity": 111, "channel": 0}, {"type": "note_on", "time": 5, "note": 50, "velocity": 108, "channel": 0}, {"type": "note_off", "time": 106, "note": 50, "velocity": 108, "channel": 0}, {"type": "note_on", "time": 5, "note": 51, "velocity": 111, "channel": 0}, {"type": "note_off", "time": 95, "note": 51, "velocity": 111, "channel": 0}, {"type": "note_on", "time": 26, "note": 49, "velocity": 110, "channel": 0}, {"type": "note_off", "time": 133, "note": 49, "velocity": 110, "channel": 0}, {"type": "note_on", "time": 745, "note": 49, "velocity": 112, "channel": 0}, {"type": "note_off", "time": 149, "note": 49, "velocity": 112, "channel": 0}, {"type": "note_on", "time": 0, "note": 51, "velocity": 111, "channel": 0}, {"type": "note_off", "time": 127, "note": 51, "velocity": 111, "channel": 0}, {"type": "note_on", "time": 37, "note": 54, "velocity": 109, "channel": 0}, {"type": "note_off", "time": 207, "note": 54, "velocity": 109, "channel": 0}, {"type": "note_on", "time": 420, "note": 54, "velocity": 107, "channel": 0}, {"type": "note_off", "time": 106, "note": 54, "velocity": 107, "channel": 0}, {"type": "note_on", "time": 26, "note": 56, "velocity": 101, "channel": 0}, {"type": "note_off", "time": 101, "note": 56, "velocity": 101, "channel": 0}, {"type": "note_on", "time": 40, "note": 57, "velocity": 100, "channel": 0}, {"type": "note_off", "time": 194, "note": 57, "velocity": 100, "channel": 0}, {"type": "note_on", "time": 561, "note": 52, "velocity": 106, "channel": 0}, {"type": "note_off", "time": 117, "note": 52, "velocity": 106, "channel": 0}, {"type": "note_on", "time": 36, "note": 54, "velocity": 106, "channel": 0}, {"type": "note_off", "time": 106, "note": 54, "velocity": 106, "channel": 0}, {"type": "note_on", "time": 9, "note": 56, "velocity": 102, "channel": 0}, {"type": "note_off", "time": 44, "note": 56, "velocity": 102, "channel": 0}, {"type": "note_on", "time": 7, "note": 57, "velocity": 108, "channel": 0}, {"type": "note_off", "time": 89, "note": 57, "velocity": 108, "channel": 0}, {"type": "note_on", "time": 1062, "note": 70, "velocity": 120, "channel": 0}, {"type": "note_off", "time": 187, "note": 70, "velocity": 120, "channel": 0}, {"type": "note_on", "time": 7, "note": 69, "velocity": 112, "channel": 0}, {"type": "note_off", "time": 194, "note": 69, "velocity": 112, "channel": 0}, {"type": "note_on", "time": 29, "note": 68, "velocity": 115, "channel": 0}, {"type": "note_off", "time": 179, "note": 68, "velocity": 115, "channel": 0}, {"type": "note_on", "time": 29, "note": 67, "velocity": 110, "channel": 0}, {"type": "note_off", "time": 157, "note": 67, "velocity": 110, "channel": 0}, {"type": "note_on", "time": 52, "note": 66, "velocity": 112, "channel": 0}, {"type": "note_off", "time": 217, "note": 66, "velocity": 112, "channel": 0}, {"type": "note_on", "time": 0, "note": 65, "velocity": 115, "channel": 0}, {"type": "note_off", "time": 157, "note": 65, "velocity": 115, "channel": 0}, {"type": "note_on", "time": 14, "note": 64, "velocity": 120, "channel": 0}, {"type": "note_off", "time": 202, "note": 64, "velocity": 120, "channel": 0}, {"type": "note_on", "time": 14, "note": 63, "velocity": 116, "channel": 0}, {"type": "note_off", "time": 157, "note": 63, "velocity": 116, "channel": 0}, {"type": "note_on", "time": 22, "note": 67, "velocity": 110, "channel": 0}, {"type": "note_off", "time": 179, "note": 67, "velocity": 110, "channel": 0}, {"type": "note_on", "time": 7, "note": 69, "velocity": 106, "channel": 0}, {"type": "note_off", "time": 172, "note": 69, "velocity": 106, "channel": 0}, {"type": "note_on", "time": 7, "note": 67, "velocity": 102, "channel": 0}, {"type": "note_off", "time": 67, "note": 67, "velocity": 102, "channel": 0}, {"type": "note_on", "time": 0, "note": 69, "velocity": 110, "channel": 0}, {"type": "note_off", "time": 134, "note": 69, "velocity": 110, "channel": 0}, {"type": "note_on", "time": 52, "note": 66, "velocity": 109, "channel": 0}, {"type": "note_off", "time": 187, "note": 66, "velocity": 109, "channel": 0}, {"type": "note_on", "time": 67, "note": 61, "velocity": 117, "channel": 0}, {"type": "note_off", "time": 187, "note": 61, "velocity": 117, "channel": 0}, {"type": "note_on", "time": 7, "note": 58, "velocity": 106, "channel": 0}, {"type": "note_off", "time": 149, "note": 58, "velocity": 106, "channel": 0}, {"type": "note_on", "time": 37, "note": 56, "velocity": 104, "channel": 0}, {"type": "note_off", "time": 157, "note": 56, "velocity": 104, "channel": 0}, {"type": "note_on", "time": 44, "note": 64, "velocity": 120, "channel": 0}, {"type": "note_off", "time": 194, "note": 64, "velocity": 120, "channel": 0}, {"type": "note_on", "time": 29, "note": 61, "velocity": 118, "channel": 0}, {"type": "note_off", "time": 164, "note": 61, "velocity": 118, "channel": 0}, {"type": "note_on", "time": 7, "note": 57, "velocity": 102, "channel": 0}, {"type": "note_off", "time": 202, "note": 57, "velocity": 102, "channel": 0}, {"type": "note_on", "time": 232, "note": 59, "velocity": 102, "channel": 0}, {"type": "note_off", "time": 209, "note": 59, "velocity": 102, "channel": 0}, {"type": "note_on", "time": 0, "note": 54, "velocity": 105, "channel": 0}, {"type": "note_off", "time": 202, "note": 54, "velocity": 105, "channel": 0}, {"type": "note_on", "time": 7, "note": 53, "velocity": 112, "channel": 0}, {"type": "note_off", "time": 187, "note": 53, "velocity": 112, "channel": 0}, {"type": "note_on", "time": 7, "note": 52, "velocity": 114, "channel": 0}, {"type": "note_off", "time": 209, "note": 52, "velocity": 114, "channel": 0}, {"type": "note_on", "time": 22, "note": 51, "velocity": 110, "channel": 0}, {"type": "note_off", "time": 239, "note": 51, "velocity": 110, "channel": 0}, {"type": "note_on", "time": 142, "note": 59, "velocity": 98, "channel": 0}, {"type": "note_off", "time": 202, "note": 59, "velocity": 98, "channel": 0}, {"type": "note_on", "time": 29, "note": 61, "velocity": 116, "channel": 0}, {"type": "note_off", "time": 202, "note": 61, "velocity": 116, "channel": 0}, {"type": "note_on", "time": 0, "note": 63, "velocity": 116, "channel": 0}, {"type": "note_off", "time": 232, "note": 63, "velocity": 116, "channel": 0}, {"type": "note_on", "time": 0, "note": 61, "velocity": 115, "channel": 0}, {"type": "note_off", "time": 209, "note": 61, "velocity": 115, "channel": 0}, {"type": "note_on", "time": 7, "note": 57, "velocity": 99, "channel": 0}, {"type": "note_off", "time": 172, "note": 57, "velocity": 99, "channel": 0}, {"type": "note_on", "time": 232, "note": 59, "velocity": 102, "channel": 0}, {"type": "note_off", "time": 187, "note": 59, "velocity": 102, "channel": 0}, {"type": "note_on", "time": 14, "note": 61, "velocity": 115, "channel": 0}, {"type": "note_off", "time": 172, "note": 61, "velocity": 115, "channel": 0}, {"type": "note_on", "time": 7, "note": 66, "velocity": 107, "channel": 0}, {"type": "note_off", "time": 157, "note": 66, "velocity": 107, "channel": 0}, {"type": "note_on", "time": 44, "note": 68, "velocity": 106, "channel": 0}, {"type": "note_off", "time": 93, "note": 68, "velocity": 106, "channel": 0}, {"type": "note_on", "time": 116, "note": 73, "velocity": 102, "channel": 0}, {"type": "note_off", "time": 172, "note": 73, "velocity": 102, "channel": 0}, {"type": "note_on", "time": 37, "note": 72, "velocity": 102, "channel": 0}, {"type": "note_off", "time": 74, "note": 72, "velocity": 102, "channel": 0}, {"type": "note_on", "time": 29, "note": 70, "velocity": 104, "channel": 0}, {"type": "note_off", "time": 82, "note": 70, "velocity": 104, "channel": 0}, {"type": "note_on", "time": 29, "note": 68, "velocity": 112, "channel": 0}, {"type": "note_off", "time": 314, "note": 68, "velocity": 112, "channel": 0}, {"type": "note_on", "time": 1212, "note": 73, "velocity": 110, "channel": 0}, {"type": "note_off", "time": 179, "note": 73, "velocity": 110, "channel": 0}, {"type": "note_on", "time": 0, "note": 71, "velocity": 102, "channel": 0}, {"type": "note_off", "time": 67, "note": 71, "velocity": 102, "channel": 0}, {"type": "note_on", "time": 7, "note": 69, "velocity": 109, "channel": 0}, {"type": "note_off", "time": 97, "note": 69, "velocity": 109, "channel": 0}, {"type": "note_on", "time": 7, "note": 68, "velocity": 111, "channel": 0}, {"type": "note_off", "time": 217, "note": 68, "velocity": 111, "channel": 0}, {"type": "note_on", "time": 37, "note": 73, "velocity": 100, "channel": 0}, {"type": "note_off", "time": 172, "note": 73, "velocity": 100, "channel": 0}, {"type": "note_on", "time": 37, "note": 71, "velocity": 102, "channel": 0}, {"type": "note_off", "time": 59, "note": 71, "velocity": 102, "channel": 0}, {"type": "note_on", "time": 7, "note": 69, "velocity": 106, "channel": 0}, {"type": "note_off", "time": 112, "note": 69, "velocity": 106, "channel": 0}, {"type": "note_on", "time": 22, "note": 68, "velocity": 110, "channel": 0}, {"type": "note_off", "time": 202, "note": 68, "velocity": 110, "channel": 0}, {"type": "note_on", "time": 37, "note": 73, "velocity": 103, "channel": 0}, {"type": "note_on", "time": 209, "note": 71, "velocity": 102, "channel": 0}, {"type": "note_off", "time": 0, "note": 73, "velocity": 103, "channel": 0}, {"type": "note_off", "time": 74, "note": 71, "velocity": 102, "channel": 0}, {"type": "note_on", "time": 7, "note": 69, "velocity": 108, "channel": 0}, {"type": "note_off", "time": 127, "note": 69, "velocity": 108, "channel": 0}, {"type": "note_on", "time": 0, "note": 68, "velocity": 109, "channel": 0}, {"type": "note_off", "time": 217, "note": 68, "velocity": 109, "channel": 0}, {"type": "note_on", "time": 22, "note": 73, "velocity": 100, "channel": 0}, {"type": "note_off", "time": 172, "note": 73, "velocity": 100, "channel": 0}, {"type": "note_on", "time": 0, "note": 71, "velocity": 99, "channel": 0}, {"type": "note_off", "time": 59, "note": 71, "velocity": 99, "channel": 0}, {"type": "note_on", "time": 7, "note": 69, "velocity": 104, "channel": 0}, {"type": "note_off", "time": 134, "note": 69, "velocity": 104, "channel": 0}, {"type": "note_on", "time": 14, "note": 68, "velocity": 111, "channel": 0}, {"type": "note_off", "time": 217, "note": 68, "velocity": 111, "channel": 0}, {"type": "note_on", "time": 0, "note": 73, "velocity": 100, "channel": 0}, {"type": "note_on", "time": 209, "note": 71, "velocity": 99, "channel": 0}, {"type": "note_off", "time": 0, "note": 73, "velocity": 100, "channel": 0}, {"type": "note_off", "time": 82, "note": 71, "velocity": 99, "channel": 0}, {"type": "note_on", "time": 0, "note": 69, "velocity": 104, "channel": 0}, {"type": "note_off", "time": 119, "note": 69, "velocity": 104, "channel": 0}, {"type": "note_on", "time": 7, "note": 68, "velocity": 109, "channel": 0}, {"type": "note_off", "time": 202, "note": 68, "velocity": 109, "channel": 0}, {"type": "note_on", "time": 44, "note": 73, "velocity": 103, "channel": 0}, {"type": "note_off", "time": 209, "note": 73, "velocity": 103, "channel": 0}, {"type": "note_on", "time": 7, "note": 71, "velocity": 94, "channel": 0}, {"type": "note_off", "time": 59, "note": 71, "velocity": 94, "channel": 0}, {"type": "note_on", "time": 14, "note": 69, "velocity": 107, "channel": 0}, {"type": "note_off", "time": 119, "note": 69, "velocity": 107, "channel": 0}, {"type": "note_on", "time": 7, "note": 68, "velocity": 112, "channel": 0}, {"type": "note_off", "time": 157, "note": 68, "velocity": 112, "channel": 0}, {"type": "note_on", "time": 22, "note": 73, "velocity": 103, "channel": 0}, {"type": "note_off", "time": 202, "note": 73, "velocity": 103, "channel": 0}, {"type": "note_on", "time": 0, "note": 71, "velocity": 97, "channel": 0}, {"type": "note_off", "time": 74, "note": 71, "velocity": 97, "channel": 0}, {"type": "note_on", "time": 0, "note": 69, "velocity": 103, "channel": 0}, {"type": "note_off", "time": 127, "note": 69, "velocity": 103, "channel": 0}, {"type": "note_on", "time": 0, "note": 68, "velocity": 108, "channel": 0}, {"type": "note_off", "time": 187, "note": 68, "velocity": 108, "channel": 0}, {"type": "note_on", "time": 44, "note": 73, "velocity": 102, "channel": 0}, {"type": "note_off", "time": 172, "note": 73, "velocity": 102, "channel": 0}, {"type": "note_on", "time": 14, "note": 71, "velocity": 105, "channel": 0}, {"type": "note_off", "time": 97, "note": 71, "velocity": 105, "channel": 0}, {"type": "note_on", "time": 0, "note": 69, "velocity": 107, "channel": 0}, {"type": "note_off", "time": 112, "note": 69, "velocity": 107, "channel": 0}, {"type": "note_on", "time": 0, "note": 68, "velocity": 107, "channel": 0}, {"type": "note_off", "time": 179, "note": 68, "velocity": 107, "channel": 0}, {"type": "note_on", "time": 67, "note": 73, "velocity": 102, "channel": 0}, {"type": "note_off", "time": 179, "note": 73, "velocity": 102, "channel": 0}, {"type": "note_on", "time": 14, "note": 71, "velocity": 95, "channel": 0}, {"type": "note_off", "time": 89, "note": 71, "velocity": 95, "channel": 0}, {"type": "note_on", "time": 29, "note": 69, "velocity": 108, "channel": 0}, {"type": "note_off", "time": 119, "note": 69, "velocity": 108, "channel": 0}, {"type": "note_on", "time": 18, "note": 68, "velocity": 112, "channel": 0}, {"type": "note_off", "time": 67, "note": 68, "velocity": 112, "channel": 0}, {"type": "note_on", "time": 7, "note": 67, "velocity": 109, "channel": 0}, {"type": "note_off", "time": 1044, "note": 67, "velocity": 109, "channel": 0}, {"type": "note_on", "time": 1205, "note": 67, "velocity": 115, "channel": 0}, {"type": "note_off", "time": 217, "note": 67, "velocity": 115, "channel": 0}, {"type": "note_on", "time": 187, "note": 77, "velocity": 110, "channel": 0}, {"type": "note_off", "time": 104, "note": 77, "velocity": 110, "channel": 0}, {"type": "note_on", "time": 52, "note": 79, "velocity": 112, "channel": 0}, {"type": "note_off", "time": 3084, "note": 79, "velocity": 112, "channel": 0}, {"type": "note_on", "time": 7, "note": 74, "velocity": 109, "channel": 0}, {"type": "note_off", "time": 247, "note": 74, "velocity": 109, "channel": 0}, {"type": "note_on", "time": 0, "note": 71, "velocity": 112, "channel": 0}, {"type": "note_off", "time": 164, "note": 71, "velocity": 112, "channel": 0}, {"type": "note_on", "time": 48, "note": 67, "velocity": 107, "channel": 0}, {"type": "note_off", "time": 404, "note": 67, "velocity": 107, "channel": 0}, {"type": "note_on", "time": 1045, "note": 63, "velocity": 116, "channel": 0}, {"type": "note_off", "time": 202, "note": 63, "velocity": 116, "channel": 0}, {"type": "note_on", "time": 10, "note": 69, "velocity": 86, "channel": 0}, {"type": "note_off", "time": 101, "note": 69, "velocity": 86, "channel": 0}, {"type": "note_on", "time": 79, "note": 71, "velocity": 101, "channel": 0}, {"type": "note_off", "time": 367, "note": 71, "velocity": 101, "channel": 0}, {"type": "note_on", "time": 85, "note": 75, "velocity": 110, "channel": 0}, {"type": "note_off", "time": 133, "note": 75, "velocity": 110, "channel": 0}, {"type": "note_on", "time": 53, "note": 77, "velocity": 98, "channel": 0}, {"type": "note_off", "time": 154, "note": 77, "velocity": 98, "channel": 0}, {"type": "note_on", "time": 0, "note": 75, "velocity": 107, "channel": 0}, {"type": "note_off", "time": 159, "note": 75, "velocity": 107, "channel": 0}, {"type": "note_on", "time": 106, "note": 71, "velocity": 107, "channel": 0}, {"type": "note_off", "time": 154, "note": 71, "velocity": 107, "channel": 0}, {"type": "note_on", "time": 18, "note": 69, "velocity": 111, "channel": 0}, {"type": "note_off", "time": 143, "note": 69, "velocity": 111, "channel": 0}, {"type": "note_on", "time": 87, "note": 75, "velocity": 101, "channel": 0}, {"type": "note_off", "time": 170, "note": 75, "velocity": 101, "channel": 0}, {"type": "note_on", "time": 15, "note": 71, "velocity": 108, "channel": 0}, {"type": "note_off", "time": 159, "note": 71, "velocity": 108, "channel": 0}, {"type": "note_on", "time": 58, "note": 68, "velocity": 96, "channel": 0}, {"type": "note_off", "time": 149, "note": 68, "velocity": 96, "channel": 0}, {"type": "note_on", "time": 21, "note": 69, "velocity": 114, "channel": 0}, {"type": "note_off", "time": 186, "note": 69, "velocity": 114, "channel": 0}, {"type": "note_on", "time": 15, "note": 65, "velocity": 112, "channel": 0}, {"type": "note_off", "time": 196, "note": 65, "velocity": 112, "channel": 0}, {"type": "note_on", "time": 15, "note": 62, "velocity": 118, "channel": 0}, {"type": "note_off", "time": 170, "note": 62, "velocity": 118, "channel": 0}, {"type": "note_on", "time": 31, "note": 58, "velocity": 108, "channel": 0}, {"type": "note_off", "time": 196, "note": 58, "velocity": 108, "channel": 0}, {"type": "note_on", "time": 21, "note": 63, "velocity": 117, "channel": 0}, {"type": "note_off", "time": 170, "note": 63, "velocity": 117, "channel": 0}, {"type": "note_on", "time": 17, "note": 67, "velocity": 106, "channel": 0}, {"type": "note_off", "time": 191, "note": 67, "velocity": 106, "channel": 0}, {"type": "note_on", "time": 44, "note": 71, "velocity": 102, "channel": 0}, {"type": "note_off", "time": 180, "note": 71, "velocity": 102, "channel": 0}, {"type": "note_on", "time": 28, "note": 75, "velocity": 110, "channel": 0}, {"type": "note_off", "time": 170, "note": 75, "velocity": 110, "channel": 0}, {"type": "note_on", "time": 63, "note": 79, "velocity": 115, "channel": 0}, {"type": "note_off", "time": 180, "note": 79, "velocity": 115, "channel": 0}, {"type": "note_on", "time": 10, "note": 81, "velocity": 113, "channel": 0}, {"type": "note_off", "time": 2257, "note": 81, "velocity": 113, "channel": 0}, {"type": "note_on", "time": 42, "note": 79, "velocity": 104, "channel": 0}, {"type": "note_off", "time": 202, "note": 79, "velocity": 104, "channel": 0}, {"type": "note_on", "time": 5, "note": 74, "velocity": 115, "channel": 0}, {"type": "note_off", "time": 202, "note": 74, "velocity": 115, "channel": 0}, {"type": "note_on", "time": 10, "note": 70, "velocity": 113, "channel": 0}, {"type": "note_off", "time": 191, "note": 70, "velocity": 113, "channel": 0}, {"type": "note_on", "time": 21, "note": 67, "velocity": 102, "channel": 0}, {"type": "note_off", "time": 154, "note": 67, "velocity": 102, "channel": 0}, {"type": "note_on", "time": 15, "note": 69, "velocity": 116, "channel": 0}, {"type": "note_off", "time": 170, "note": 69, "velocity": 116, "channel": 0}, {"type": "note_on", "time": 47, "note": 65, "velocity": 116, "channel": 0}, {"type": "note_off", "time": 175, "note": 65, "velocity": 116, "channel": 0}, {"type": "note_on", "time": 21, "note": 62, "velocity": 118, "channel": 0}, {"type": "note_off", "time": 228, "note": 62, "velocity": 118, "channel": 0}, {"type": "note_on", "time": 10, "note": 58, "velocity": 108, "channel": 0}, {"type": "note_off", "time": 180, "note": 58, "velocity": 108, "channel": 0}, {"type": "note_on", "time": 5, "note": 63, "velocity": 116, "channel": 0}, {"type": "note_off", "time": 601, "note": 63, "velocity": 116, "channel": 0}, {"type": "note_on", "time": 1080, "note": 79, "velocity": 115, "channel": 0}, {"type": "note_off", "time": 95, "note": 79, "velocity": 115, "channel": 0}, {"type": "note_on", "time": 85, "note": 81, "velocity": 115, "channel": 0}, {"type": "note_off", "time": 1479, "note": 81, "velocity": 115, "channel": 0}, {"type": "note_on", "time": 5, "note": 70, "velocity": 108, "channel": 0}, {"type": "note_off", "time": 170, "note": 70, "velocity": 108, "channel": 0}, {"type": "note_on", "time": 0, "note": 75, "velocity": 111, "channel": 0}, {"type": "note_off", "time": 447, "note": 75, "velocity": 111, "channel": 0}, {"type": "note_on", "time": 456, "note": 47, "velocity": 112, "channel": 0}, {"type": "note_on", "time": 190, "note": 51, "velocity": 115, "channel": 0}, {"type": "note_off", "time": 0, "note": 47, "velocity": 112, "channel": 0}, {"type": "note_off", "time": 212, "note": 51, "velocity": 115, "channel": 0}, {"type": "note_on", "time": 11, "note": 58, "velocity": 101, "channel": 0}, {"type": "note_off", "time": 223, "note": 58, "velocity": 101, "channel": 0}, {"type": "note_on", "time": 427, "note": 53, "velocity": 112, "channel": 0}, {"type": "note_off", "time": 180, "note": 53, "velocity": 112, "channel": 0}, {"type": "note_on", "time": 21, "note": 52, "velocity": 119, "channel": 0}, {"type": "note_off", "time": 170, "note": 52, "velocity": 119, "channel": 0}, {"type": "note_on", "time": 21, "note": 51, "velocity": 112, "channel": 0}, {"type": "note_off", "time": 191, "note": 51, "velocity": 112, "channel": 0}, {"type": "note_on", "time": 9, "note": 55, "velocity": 101, "channel": 0}, {"type": "note_off", "time": 213, "note": 55, "velocity": 101, "channel": 0}, {"type": "note_on", "time": 0, "note": 59, "velocity": 105, "channel": 0}, {"type": "note_off", "time": 202, "note": 59, "velocity": 105, "channel": 0}, {"type": "note_on", "time": 0, "note": 61, "velocity": 118, "channel": 0}, {"type": "note_off", "time": 180, "note": 61, "velocity": 118, "channel": 0}, {"type": "note_on", "time": 21, "note": 63, "velocity": 118, "channel": 0}, {"type": "note_off", "time": 191, "note": 63, "velocity": 118, "channel": 0}, {"type": "note_on", "time": 0, "note": 61, "velocity": 116, "channel": 0}, {"type": "note_off", "time": 223, "note": 61, "velocity": 116, "channel": 0}, {"type": "note_on", "time": 0, "note": 57, "velocity": 105, "channel": 0}, {"type": "note_off", "time": 202, "note": 57, "velocity": 105, "channel": 0}, {"type": "note_on", "time": 10, "note": 53, "velocity": 110, "channel": 0}, {"type": "note_off", "time": 191, "note": 53, "velocity": 110, "channel": 0}, {"type": "note_on", "time": 21, "note": 59, "velocity": 100, "channel": 0}, {"type": "note_on", "time": 180, "note": 63, "velocity": 112, "channel": 0}, {"type": "note_off", "time": 0, "note": 59, "velocity": 100, "channel": 0}, {"type": "note_off", "time": 202, "note": 63, "velocity": 112, "channel": 0}, {"type": "note_on", "time": 42, "note": 67, "velocity": 109, "channel": 0}, {"type": "note_off", "time": 180, "note": 67, "velocity": 109, "channel": 0}, {"type": "note_on", "time": 21, "note": 71, "velocity": 110, "channel": 0}, {"type": "note_off", "time": 191, "note": 71, "velocity": 110, "channel": 0}, {"type": "note_on", "time": 21, "note": 67, "velocity": 113, "channel": 0}, {"type": "note_off", "time": 191, "note": 67, "velocity": 113, "channel": 0}, {"type": "note_on", "time": 31, "note": 66, "velocity": 106, "channel": 0}, {"type": "note_off", "time": 180, "note": 66, "velocity": 106, "channel": 0}, {"type": "note_on", "time": 0, "note": 68, "velocity": 112, "channel": 0}, {"type": "note_off", "time": 191, "note": 68, "velocity": 112, "channel": 0}, {"type": "note_on", "time": 21, "note": 71, "velocity": 110, "channel": 0}, {"type": "note_off", "time": 180, "note": 71, "velocity": 110, "channel": 0}, {"type": "note_on", "time": 10, "note": 73, "velocity": 101, "channel": 0}, {"type": "note_off", "time": 202, "note": 73, "velocity": 101, "channel": 0}, {"type": "note_on", "time": 10, "note": 74, "velocity": 108, "channel": 0}, {"type": "note_off", "time": 202, "note": 74, "velocity": 108, "channel": 0}, {"type": "note_on", "time": 21, "note": 75, "velocity": 110, "channel": 0}, {"type": "note_off", "time": 191, "note": 75, "velocity": 110, "channel": 0}, {"type": "note_on", "time": 21, "note": 73, "velocity": 103, "channel": 0}, {"type": "note_on", "time": 180, "note": 71, "velocity": 108, "channel": 0}, {"type": "note_off", "time": 0, "note": 73, "velocity": 103, "channel": 0}, {"type": "note_off", "time": 191, "note": 71, "velocity": 108, "channel": 0}, {"type": "note_on", "time": 31, "note": 70, "velocity": 111, "channel": 0}, {"type": "note_off", "time": 159, "note": 70, "velocity": 111, "channel": 0}, {"type": "note_on", "time": 21, "note": 69, "velocity": 110, "channel": 0}, {"type": "note_off", "time": 212, "note": 69, "velocity": 110, "channel": 0}, {"type": "note_on", "time": 10, "note": 68, "velocity": 113, "channel": 0}, {"type": "note_off", "time": 255, "note": 68, "velocity": 113, "channel": 0}, {"type": "note_on", "time": 21, "note": 67, "velocity": 110, "channel": 0}, {"type": "note_off", "time": 95, "note": 67, "velocity": 110, "channel": 0}, {"type": "note_on", "time": 42, "note": 67, "velocity": 119, "channel": 0}, {"type": "note_off", "time": 149, "note": 67, "velocity": 119, "channel": 0}, {"type": "note_on", "time": 936, "note": 67, "velocity": 116, "channel": 0}, {"type": "note_off", "time": 149, "note": 67, "velocity": 116, "channel": 0}, {"type": "note_on", "time": 53, "note": 67, "velocity": 118, "channel": 0}, {"type": "note_off", "time": 191, "note": 67, "velocity": 118, "channel": 0}, {"type": "note_on", "time": 851, "note": 67, "velocity": 115, "channel": 0}, {"type": "note_off", "time": 159, "note": 67, "velocity": 115, "channel": 0}, {"type": "note_on", "time": 53, "note": 67, "velocity": 109, "channel": 0}, {"type": "note_off", "time": 149, "note": 67, "velocity": 109, "channel": 0}, {"type": "note_on", "time": 53, "note": 67, "velocity": 113, "channel": 0}, {"type": "note_off", "time": 159, "note": 67, "velocity": 113, "channel": 0}, {"type": "note_on", "time": 42, "note": 67, "velocity": 117, "channel": 0}, {"type": "note_off", "time": 180, "note": 67, "velocity": 117, "channel": 0}, {"type": "note_on", "time": 415, "note": 67, "velocity": 109, "channel": 0}, {"type": "note_off", "time": 9507, "note": 67, "velocity": 109, "channel": 0}, {"type": "note_on", "time": 990, "note": 67, "velocity": 116, "channel": 0}, {"type": "note_off", "time": 212, "note": 67, "velocity": 116, "channel": 0}, {"type": "note_on", "time": 0, "note": 68, "velocity": 114, "channel": 0}, {"type": "note_off", "time": 191, "note": 68, "velocity": 114, "channel": 0}, {"type": "note_on", "time": 0, "note": 73, "velocity": 103, "channel": 0}, {"type": "note_on", "time": 138, "note": 74, "velocity": 102, "channel": 0}, {"type": "note_off", "time": 0, "note": 73, "velocity": 103, "channel": 0}, {"type": "note_off", "time": 191, "note": 74, "velocity": 102, "channel": 0}, {"type": "note_on", "time": 42, "note": 67, "velocity": 108, "channel": 0}, {"type": "note_off", "time": 2065, "note": 67, "velocity": 108, "channel": 0}, {"type": "note_on", "time": 4, "note": 62, "velocity": 99, "channel": 0}, {"type": "note_off", "time": 127, "note": 62, "velocity": 99, "channel": 0}, {"type": "note_on", "time": 22, "note": 67, "velocity": 110, "channel": 0}, {"type": "note_off", "time": 1130, "note": 67, "velocity": 110, "channel": 0}, {"type": "note_on", "time": 22, "note": 67, "velocity": 113, "channel": 0}, {"type": "note_off", "time": 157, "note": 67, "velocity": 113, "channel": 0}, {"type": "note_on", "time": 11, "note": 60, "velocity": 108, "channel": 0}, {"type": "note_off", "time": 104, "note": 60, "velocity": 108, "channel": 0}, {"type": "note_on", "time": 11, "note": 62, "velocity": 112, "channel": 0}, {"type": "note_off", "time": 101, "note": 62, "velocity": 112, "channel": 0}, {"type": "note_on", "time": 3, "note": 64, "velocity": 107, "channel": 0}, {"type": "note_off", "time": 67, "note": 64, "velocity": 107, "channel": 0}, {"type": "note_on", "time": 33, "note": 67, "velocity": 112, "channel": 0}, {"type": "note_off", "time": 112, "note": 67, "velocity": 112, "channel": 0}, {"type": "note_on", "time": 0, "note": 64, "velocity": 116, "channel": 0}, {"type": "note_off", "time": 63, "note": 64, "velocity": 116, "channel": 0}, {"type": "note_on", "time": 7, "note": 63, "velocity": 112, "channel": 0}, {"type": "note_off", "time": 321, "note": 63, "velocity": 112, "channel": 0}, {"type": "note_on", "time": 52, "note": 67, "velocity": 105, "channel": 0}, {"type": "note_off", "time": 127, "note": 67, "velocity": 105, "channel": 0}, {"type": "note_on", "time": 29, "note": 65, "velocity": 105, "channel": 0}, {"type": "note_off", "time": 142, "note": 65, "velocity": 105, "channel": 0}, {"type": "note_on", "time": 44, "note": 65, "velocity": 121, "channel": 0}, {"type": "note_off", "time": 97, "note": 65, "velocity": 121, "channel": 0}, {"type": "note_on", "time": 883, "note": 67, "velocity": 117, "channel": 0}, {"type": "note_off", "time": 179, "note": 67, "velocity": 117, "channel": 0}, {"type": "note_on", "time": 29, "note": 67, "velocity": 113, "channel": 0}, {"type": "note_off", "time": 157, "note": 67, "velocity": 113, "channel": 0}, {"type": "note_on", "time": 0, "note": 68, "velocity": 109, "channel": 0}, {"type": "note_off", "time": 172, "note": 68, "velocity": 109, "channel": 0}, {"type": "note_on", "time": 14, "note": 67, "velocity": 111, "channel": 0}, {"type": "note_off", "time": 164, "note": 67, "velocity": 111, "channel": 0}, {"type": "note_on", "time": 22, "note": 67, "velocity": 114, "channel": 0}, {"type": "note_off", "time": 149, "note": 67, "velocity": 114, "channel": 0}, {"type": "note_on", "time": 29, "note": 67, "velocity": 115, "channel": 0}, {"type": "note_off", "time": 149, "note": 67, "velocity": 115, "channel": 0}, {"type": "note_on", "time": 59, "note": 66, "velocity": 110, "channel": 0}, {"type": "note_off", "time": 164, "note": 66, "velocity": 110, "channel": 0}, {"type": "note_on", "time": 7, "note": 67, "velocity": 112, "channel": 0}, {"type": "note_off", "time": 149, "note": 67, "velocity": 112, "channel": 0}, {"type": "note_on", "time": 63, "note": 75, "velocity": 97, "channel": 0}, {"type": "note_off", "time": 258, "note": 75, "velocity": 97, "channel": 0}, {"type": "note_on", "time": 7, "note": 70, "velocity": 114, "channel": 0}, {"type": "note_off", "time": 41, "note": 70, "velocity": 114, "channel": 0}, {"type": "note_on", "time": 7, "note": 68, "velocity": 104, "channel": 0}, {"type": "note_off", "time": 44, "note": 68, "velocity": 104, "channel": 0}, {"type": "note_on", "time": 41, "note": 67, "velocity": 107, "channel": 0}, {"type": "note_off", "time": 404, "note": 67, "velocity": 107, "channel": 0}, {"type": "note_on", "time": 1235, "note": 67, "velocity": 117, "channel": 0}, {"type": "note_off", "time": 149, "note": 67, "velocity": 117, "channel": 0}, {"type": "note_on", "time": 7, "note": 70, "velocity": 118, "channel": 0}, {"type": "note_off", "time": 187, "note": 70, "velocity": 118, "channel": 0}, {"type": "note_on", "time": 22, "note": 67, "velocity": 106, "channel": 0}, {"type": "note_off", "time": 815, "note": 67, "velocity": 106, "channel": 0}, {"type": "note_on", "time": 22, "note": 67, "velocity": 118, "channel": 0}, {"type": "note_off", "time": 142, "note": 67, "velocity": 118, "channel": 0}, {"type": "note_on", "time": 37, "note": 67, "velocity": 114, "channel": 0}, {"type": "note_off", "time": 187, "note": 67, "velocity": 114, "channel": 0}, {"type": "note_on", "time": 22, "note": 66, "velocity": 111, "channel": 0}, {"type": "note_off", "time": 149, "note": 66, "velocity": 111, "channel": 0}, {"type": "note_on", "time": 44, "note": 65, "velocity": 115, "channel": 0}, {"type": "note_off", "time": 187, "note": 65, "velocity": 115, "channel": 0}, {"type": "note_on", "time": 59, "note": 64, "velocity": 120, "channel": 0}, {"type": "note_off", "time": 217, "note": 64, "velocity": 120, "channel": 0}, {"type": "note_on", "time": 22, "note": 63, "velocity": 116, "channel": 0}, {"type": "note_off", "time": 157, "note": 63, "velocity": 116, "channel": 0}, {"type": "note_on", "time": 7, "note": 66, "velocity": 100, "channel": 0}, {"type": "note_off", "time": 187, "note": 66, "velocity": 100, "channel": 0}, {"type": "note_on", "time": 29, "note": 70, "velocity": 105, "channel": 0}, {"type": "note_off", "time": 209, "note": 70, "velocity": 105, "channel": 0}, {"type": "note_on", "time": 67, "note": 75, "velocity": 115, "channel": 0}, {"type": "note_off", "time": 194, "note": 75, "velocity": 115, "channel": 0}, {"type": "note_on", "time": 0, "note": 77, "velocity": 107, "channel": 0}, {"type": "note_off", "time": 194, "note": 77, "velocity": 107, "channel": 0}, {"type": "note_on", "time": 22, "note": 75, "velocity": 116, "channel": 0}, {"type": "note_off", "time": 157, "note": 75, "velocity": 116, "channel": 0}, {"type": "note_on", "time": 14, "note": 70, "velocity": 113, "channel": 0}, {"type": "note_off", "time": 247, "note": 70, "velocity": 113, "channel": 0}, {"type": "note_on", "time": 14, "note": 67, "velocity": 102, "channel": 0}, {"type": "note_off", "time": 179, "note": 67, "velocity": 102, "channel": 0}, {"type": "note_on", "time": 7, "note": 69, "velocity": 116, "channel": 0}, {"type": "note_off", "time": 224, "note": 69, "velocity": 116, "channel": 0}, {"type": "note_on", "time": 0, "note": 65, "velocity": 118, "channel": 0}, {"type": "note_off", "time": 202, "note": 65, "velocity": 118, "channel": 0}, {"type": "note_on", "time": 0, "note": 60, "velocity": 113, "channel": 0}, {"type": "note_off", "time": 232, "note": 60, "velocity": 113, "channel": 0}, {"type": "note_on", "time": 14, "note": 58, "velocity": 104, "channel": 0}, {"type": "note_off", "time": 187, "note": 58, "velocity": 104, "channel": 0}, {"type": "note_on", "time": 0, "note": 63, "velocity": 121, "channel": 0}, {"type": "note_off", "time": 217, "note": 63, "velocity": 121, "channel": 0}, {"type": "note_on", "time": 14, "note": 61, "velocity": 118, "channel": 0}, {"type": "note_off", "time": 209, "note": 61, "velocity": 118, "channel": 0}, {"type": "note_on", "time": 0, "note": 58, "velocity": 104, "channel": 0}, {"type": "note_off", "time": 194, "note": 58, "velocity": 104, "channel": 0}, {"type": "note_on", "time": 14, "note": 54, "velocity": 106, "channel": 0}, {"type": "note_off", "time": 179, "note": 54, "velocity": 106, "channel": 0}, {"type": "note_on", "time": 22, "note": 57, "velocity": 114, "channel": 0}, {"type": "note_off", "time": 209, "note": 57, "velocity": 114, "channel": 0}, {"type": "note_on", "time": 7, "note": 53, "velocity": 111, "channel": 0}, {"type": "note_off", "time": 172, "note": 53, "velocity": 111, "channel": 0}, {"type": "note_on", "time": 7, "note": 49, "velocity": 115, "channel": 0}, {"type": "note_off", "time": 232, "note": 49, "velocity": 115, "channel": 0}, {"type": "note_on", "time": 7, "note": 53, "velocity": 118, "channel": 0}, {"type": "note_on", "time": 172, "note": 51, "velocity": 118, "channel": 0}, {"type": "note_off", "time": 0, "note": 53, "velocity": 118, "channel": 0}, {"type": "note_off", "time": 127, "note": 51, "velocity": 118, "channel": 0}, {"type": "note_on", "time": 22, "note": 51, "velocity": 119, "channel": 0}, {"type": "note_off", "time": 217, "note": 51, "velocity": 119, "channel": 0}, {"type": "note_on", "time": 0, "note": 46, "velocity": 118, "channel": 0}, {"type": "note_off", "time": 291, "note": 46, "velocity": 118, "channel": 0}, {"type": "note_on", "time": 7, "note": 45, "velocity": 127, "channel": 0}, {"type": "note_off", "time": 149, "note": 45, "velocity": 127, "channel": 0}, {"type": "note_on", "time": 33, "note": 45, "velocity": 117, "channel": 0}, {"type": "note_off", "time": 310, "note": 45, "velocity": 117, "channel": 0}, {"type": "note_on", "time": 33, "note": 57, "velocity": 105, "channel": 0}, {"type": "note_off", "time": 295, "note": 57, "velocity": 105, "channel": 0}, {"type": "note_on", "time": 89, "note": 53, "velocity": 101, "channel": 0}, {"type": "note_off", "time": 97, "note": 53, "velocity": 101, "channel": 0}, {"type": "note_on", "time": 14, "note": 55, "velocity": 99, "channel": 0}, {"type": "note_off", "time": 613, "note": 55, "velocity": 99, "channel": 0}, {"type": "note_on", "time": 1152, "note": 67, "velocity": 114, "channel": 0}, {"type": "note_off", "time": 172, "note": 67, "velocity": 114, "channel": 0}, {"type": "note_on", "time": 0, "note": 70, "velocity": 110, "channel": 0}, {"type": "note_off", "time": 164, "note": 70, "velocity": 110, "channel": 0}, {"type": "note_on", "time": 22, "note": 69, "velocity": 111, "channel": 0}, {"type": "note_off", "time": 202, "note": 69, "velocity": 111, "channel": 0}, {"type": "note_on", "time": 29, "note": 67, "velocity": 101, "channel": 0}, {"type": "note_off", "time": 202, "note": 67, "velocity": 101, "channel": 0}, {"type": "note_on", "time": 37, "note": 67, "velocity": 110, "channel": 0}, {"type": "note_off", "time": 164, "note": 67, "velocity": 110, "channel": 0}, {"type": "note_on", "time": 29, "note": 67, "velocity": 105, "channel": 0}, {"type": "note_off", "time": 119, "note": 67, "velocity": 105, "channel": 0}, {"type": "note_on", "time": 37, "note": 66, "velocity": 106, "channel": 0}, {"type": "note_off", "time": 209, "note": 66, "velocity": 106, "channel": 0}, {"type": "note_on", "time": 7, "note": 67, "velocity": 115, "channel": 0}, {"type": "note_off", "time": 217, "note": 67, "velocity": 115, "channel": 0}, {"type": "note_on", "time": 37, "note": 67, "velocity": 109, "channel": 0}, {"type": "note_off", "time": 157, "note": 67, "velocity": 109, "channel": 0}, {"type": "note_on", "time": 7, "note": 66, "velocity": 109, "channel": 0}, {"type": "note_off", "time": 149, "note": 66, "velocity": 109, "channel": 0}, {"type": "note_on", "time": 44, "note": 65, "velocity": 112, "channel": 0}, {"type": "note_off", "time": 194, "note": 65, "velocity": 112, "channel": 0}, {"type": "note_on", "time": 22, "note": 64, "velocity": 121, "channel": 0}, {"type": "note_off", "time": 202, "note": 64, "velocity": 121, "channel": 0}, {"type": "note_on", "time": 14, "note": 63, "velocity": 117, "channel": 0}, {"type": "note_off", "time": 187, "note": 63, "velocity": 117, "channel": 0}, {"type": "note_on", "time": 14, "note": 65, "velocity": 112, "channel": 0}, {"type": "note_off", "time": 157, "note": 65, "velocity": 112, "channel": 0}, {"type": "note_on", "time": 14, "note": 66, "velocity": 105, "channel": 0}, {"type": "note_off", "time": 209, "note": 66, "velocity": 105, "channel": 0}, {"type": "note_on", "time": 67, "note": 64, "velocity": 109, "channel": 0}, {"type": "note_off", "time": 187, "note": 64, "velocity": 109, "channel": 0}, {"type": "note_on", "time": 14, "note": 65, "velocity": 115, "channel": 0}, {"type": "note_off", "time": 164, "note": 65, "velocity": 115, "channel": 0}, {"type": "note_on", "time": 0, "note": 64, "velocity": 118, "channel": 0}, {"type": "note_off", "time": 142, "note": 64, "velocity": 118, "channel": 0}, {"type": "note_on", "time": 14, "note": 63, "velocity": 118, "channel": 0}, {"type": "note_off", "time": 194, "note": 63, "velocity": 118, "channel": 0}, {"type": "note_on", "time": 37, "note": 67, "velocity": 112, "channel": 0}, {"type": "note_off", "time": 209, "note": 67, "velocity": 112, "channel": 0}, {"type": "note_on", "time": 14, "note": 66, "velocity": 115, "channel": 0}, {"type": "note_off", "time": 187, "note": 66, "velocity": 115, "channel": 0}, {"type": "note_on", "time": 44, "note": 61, "velocity": 118, "channel": 0}, {"type": "note_off", "time": 179, "note": 61, "velocity": 118, "channel": 0}, {"type": "note_on", "time": 7, "note": 58, "velocity": 111, "channel": 0}, {"type": "note_off", "time": 179, "note": 58, "velocity": 111, "channel": 0}, {"type": "note_on", "time": 7, "note": 56, "velocity": 109, "channel": 0}, {"type": "note_off", "time": 157, "note": 56, "velocity": 109, "channel": 0}, {"type": "note_on", "time": 0, "note": 62, "velocity": 119, "channel": 0}, {"type": "note_off", "time": 209, "note": 62, "velocity": 119, "channel": 0}, {"type": "note_on", "time": 29, "note": 61, "velocity": 113, "channel": 0}, {"type": "note_off", "time": 187, "note": 61, "velocity": 113, "channel": 0}, {"type": "note_on", "time": 0, "note": 58, "velocity": 104, "channel": 0}, {"type": "note_off", "time": 217, "note": 58, "velocity": 104, "channel": 0}, {"type": "note_on", "time": 22, "note": 53, "velocity": 103, "channel": 0}, {"type": "note_off", "time": 179, "note": 53, "velocity": 103, "channel": 0}, {"type": "note_on", "time": 0, "note": 56, "velocity": 108, "channel": 0}, {"type": "note_off", "time": 172, "note": 56, "velocity": 108, "channel": 0}, {"type": "note_on", "time": 29, "note": 60, "velocity": 114, "channel": 0}, {"type": "note_off", "time": 209, "note": 60, "velocity": 114, "channel": 0}, {"type": "note_on", "time": 0, "note": 65, "velocity": 111, "channel": 0}, {"type": "note_off", "time": 194, "note": 65, "velocity": 111, "channel": 0}, {"type": "note_on", "time": 1145, "note": 67, "velocity": 109, "channel": 0}, {"type": "note_off", "time": 142, "note": 67, "velocity": 109, "channel": 0}, {"type": "note_on", "time": 52, "note": 67, "velocity": 113, "channel": 0}, {"type": "note_off", "time": 97, "note": 67, "velocity": 113, "channel": 0}, {"type": "note_on", "time": 44, "note": 72, "velocity": 109, "channel": 0}, {"type": "note_off", "time": 172, "note": 72, "velocity": 109, "channel": 0}, {"type": "note_on", "time": 1399, "note": 58, "velocity": 113, "channel": 0}, {"type": "note_off", "time": 217, "note": 58, "velocity": 113, "channel": 0}, {"type": "note_on", "time": 7, "note": 65, "velocity": 110, "channel": 0}, {"type": "note_off", "time": 194, "note": 65, "velocity": 110, "channel": 0}, {"type": "note_on", "time": 7, "note": 70, "velocity": 114, "channel": 0}, {"type": "note_off", "time": 187, "note": 70, "velocity": 114, "channel": 0}, {"type": "note_on", "time": 209, "note": 60, "velocity": 116, "channel": 0}, {"type": "note_off", "time": 224, "note": 60, "velocity": 116, "channel": 0}, {"type": "note_on", "time": 52, "note": 67, "velocity": 116, "channel": 0}, {"type": "note_off", "time": 172, "note": 67, "velocity": 116, "channel": 0}, {"type": "note_on", "time": 22, "note": 60, "velocity": 103, "channel": 0}, {"type": "note_off", "time": 179, "note": 60, "velocity": 103, "channel": 0}, {"type": "note_on", "time": 666, "note": 58, "velocity": 118, "channel": 0}, {"type": "note_off", "time": 142, "note": 58, "velocity": 118, "channel": 0}, {"type": "note_on", "time": 59, "note": 65, "velocity": 104, "channel": 0}, {"type": "note_off", "time": 172, "note": 65, "velocity": 104, "channel": 0}, {"type": "note_on", "time": 0, "note": 70, "velocity": 107, "channel": 0}, {"type": "note_off", "time": 157, "note": 70, "velocity": 107, "channel": 0}, {"type": "note_on", "time": 254, "note": 60, "velocity": 115, "channel": 0}, {"type": "note_off", "time": 164, "note": 60, "velocity": 115, "channel": 0}, {"type": "note_on", "time": 14, "note": 67, "velocity": 108, "channel": 0}, {"type": "note_off", "time": 202, "note": 67, "velocity": 108, "channel": 0}, {"type": "note_on", "time": 7, "note": 72, "velocity": 105, "channel": 0}, {"type": "note_off", "time": 172, "note": 72, "velocity": 105, "channel": 0}, {"type": "note_on", "time": 643, "note": 61, "velocity": 113, "channel": 0}, {"type": "note_off", "time": 172, "note": 61, "velocity": 113, "channel": 0}, {"type": "note_on", "time": 29, "note": 67, "velocity": 103, "channel": 0}, {"type": "note_off", "time": 187, "note": 67, "velocity": 103, "channel": 0}, {"type": "note_on", "time": 37, "note": 73, "velocity": 103, "channel": 0}, {"type": "note_off", "time": 179, "note": 73, "velocity": 103, "channel": 0}, {"type": "note_on", "time": 636, "note": 63, "velocity": 114, "channel": 0}, {"type": "note_off", "time": 164, "note": 63, "velocity": 114, "channel": 0}, {"type": "note_on", "time": 14, "note": 68, "velocity": 101, "channel": 0}, {"type": "note_off", "time": 217, "note": 68, "velocity": 101, "channel": 0}, {"type": "note_on", "time": 29, "note": 75, "velocity": 98, "channel": 0}, {"type": "note_off", "time": 172, "note": 75, "velocity": 98, "channel": 0}, {"type": "note_on", "time": 1177, "note": 63, "velocity": 120, "channel": 0}, {"type": "note_off", "time": 244, "note": 63, "velocity": 120, "channel": 0}, {"type": "note_on", "time": 53, "note": 65, "velocity": 102, "channel": 0}, {"type": "note_off", "time": 95, "note": 65, "velocity": 102, "channel": 0}, {"type": "note_on", "time": 74, "note": 70, "velocity": 109, "channel": 0}, {"type": "note_off", "time": 138, "note": 70, "velocity": 109, "channel": 0}, {"type": "note_on", "time": 31, "note": 63, "velocity": 115, "channel": 0}, {"type": "note_off", "time": 180, "note": 63, "velocity": 115, "channel": 0}, {"type": "note_on", "time": 31, "note": 65, "velocity": 104, "channel": 0}, {"type": "note_off", "time": 170, "note": 65, "velocity": 104, "channel": 0}, {"type": "note_on", "time": 0, "note": 68, "velocity": 109, "channel": 0}, {"type": "note_off", "time": 212, "note": 68, "velocity": 109, "channel": 0}, {"type": "note_on", "time": 9, "note": 71, "velocity": 102, "channel": 0}, {"type": "note_off", "time": 138, "note": 71, "velocity": 102, "channel": 0}, {"type": "note_on", "time": 11, "note": 74, "velocity": 104, "channel": 0}, {"type": "note_off", "time": 127, "note": 74, "velocity": 104, "channel": 0}, {"type": "note_on", "time": 0, "note": 76, "velocity": 111, "channel": 0}, {"type": "note_off", "time": 95, "note": 76, "velocity": 111, "channel": 0}, {"type": "note_on", "time": 21, "note": 77, "velocity": 97, "channel": 0}, {"type": "note_off", "time": 2938, "note": 77, "velocity": 97, "channel": 0}, {"type": "note_on", "time": 180, "note": 75, "velocity": 123, "channel": 0}, {"type": "note_off", "time": 276, "note": 75, "velocity": 123, "channel": 0}, {"type": "note_on", "time": 45, "note": 70, "velocity": 89, "channel": 0}, {"type": "note_off", "time": 344, "note": 70, "velocity": 89, "channel": 0}, {"type": "note_on", "time": 1044, "note": 75, "velocity": 106, "channel": 0}, {"type": "note_off", "time": 131, "note": 75, "velocity": 106, "channel": 0}, {"type": "note_on", "time": 0, "note": 77, "velocity": 103, "channel": 0}, {"type": "note_off", "time": 692, "note": 77, "velocity": 103, "channel": 0}, {"type": "note_on", "time": 0, "note": 75, "velocity": 118, "channel": 0}, {"type": "note_off", "time": 198, "note": 75, "velocity": 118, "channel": 0}, {"type": "note_on", "time": 0, "note": 71, "velocity": 108, "channel": 0}, {"type": "note_off", "time": 191, "note": 71, "velocity": 108, "channel": 0}, {"type": "note_on", "time": 14, "note": 69, "velocity": 114, "channel": 0}, {"type": "note_off", "time": 179, "note": 69, "velocity": 114, "channel": 0}, {"type": "note_on", "time": 0, "note": 65, "velocity": 110, "channel": 0}, {"type": "note_off", "time": 212, "note": 65, "velocity": 110, "channel": 0}, {"type": "note_on", "time": 11, "note": 61, "velocity": 108, "channel": 0}, {"type": "note_off", "time": 127, "note": 61, "velocity": 108, "channel": 0}, {"type": "note_on", "time": 10, "note": 60, "velocity": 96, "channel": 0}, {"type": "note_off", "time": 134, "note": 60, "velocity": 96, "channel": 0}, {"type": "note_on", "time": 29, "note": 70, "velocity": 108, "channel": 0}, {"type": "note_off", "time": 153, "note": 70, "velocity": 108, "channel": 0}, {"type": "note_on", "time": 33, "note": 65, "velocity": 113, "channel": 0}, {"type": "note_off", "time": 213, "note": 65, "velocity": 113, "channel": 0}, {"type": "note_on", "time": 957, "note": 75, "velocity": 119, "channel": 0}, {"type": "note_off", "time": 106, "note": 75, "velocity": 119, "channel": 0}, {"type": "note_on", "time": 42, "note": 77, "velocity": 102, "channel": 0}, {"type": "note_off", "time": 500, "note": 77, "velocity": 102, "channel": 0}, {"type": "note_on", "time": 21, "note": 76, "velocity": 122, "channel": 0}, {"type": "note_off", "time": 180, "note": 76, "velocity": 122, "channel": 0}, {"type": "note_on", "time": 21, "note": 75, "velocity": 115, "channel": 0}, {"type": "note_off", "time": 159, "note": 75, "velocity": 115, "channel": 0}, {"type": "note_on", "time": 0, "note": 70, "velocity": 107, "channel": 0}, {"type": "note_off", "time": 180, "note": 70, "velocity": 107, "channel": 0}, {"type": "note_on", "time": 0, "note": 66, "velocity": 112, "channel": 0}, {"type": "note_off", "time": 202, "note": 66, "velocity": 112, "channel": 0}, {"type": "note_on", "time": 21, "note": 65, "velocity": 111, "channel": 0}, {"type": "note_off", "time": 212, "note": 65, "velocity": 111, "channel": 0}, {"type": "note_on", "time": 31, "note": 69, "velocity": 114, "channel": 0}, {"type": "note_off", "time": 191, "note": 69, "velocity": 114, "channel": 0}, {"type": "note_on", "time": 10, "note": 66, "velocity": 111, "channel": 0}, {"type": "note_off", "time": 212, "note": 66, "velocity": 111, "channel": 0}, {"type": "note_on", "time": 10, "note": 65, "velocity": 116, "channel": 0}, {"type": "note_off", "time": 202, "note": 65, "velocity": 116, "channel": 0}, {"type": "note_on", "time": 21, "note": 64, "velocity": 122, "channel": 0}, {"type": "note_off", "time": 180, "note": 64, "velocity": 122, "channel": 0}, {"type": "note_on", "time": 0, "note": 63, "velocity": 114, "channel": 0}, {"type": "note_off", "time": 159, "note": 63, "velocity": 114, "channel": 0}, {"type": "note_on", "time": 10, "note": 65, "velocity": 114, "channel": 0}, {"type": "note_off", "time": 244, "note": 65, "velocity": 114, "channel": 0}, {"type": "note_on", "time": 10, "note": 66, "velocity": 113, "channel": 0}, {"type": "note_off", "time": 170, "note": 66, "velocity": 113, "channel": 0}, {"type": "note_on", "time": 0, "note": 68, "velocity": 117, "channel": 0}, {"type": "note_off", "time": 191, "note": 68, "velocity": 117, "channel": 0}, {"type": "note_on", "time": 10, "note": 65, "velocity": 118, "channel": 0}, {"type": "note_off", "time": 202, "note": 65, "velocity": 118, "channel": 0}, {"type": "note_on", "time": 21, "note": 64, "velocity": 122, "channel": 0}, {"type": "note_off", "time": 191, "note": 64, "velocity": 122, "channel": 0}, {"type": "note_on", "time": 10, "note": 63, "velocity": 120, "channel": 0}, {"type": "note_off", "time": 202, "note": 63, "velocity": 120, "channel": 0}, {"type": "note_on", "time": 0, "note": 67, "velocity": 112, "channel": 0}, {"type": "note_off", "time": 223, "note": 67, "velocity": 112, "channel": 0}, {"type": "note_on", "time": 21, "note": 66, "velocity": 112, "channel": 0}, {"type": "note_off", "time": 191, "note": 66, "velocity": 112, "channel": 0}, {"type": "note_on", "time": 31, "note": 61, "velocity": 116, "channel": 0}, {"type": "note_off", "time": 159, "note": 61, "velocity": 116, "channel": 0}, {"type": "note_on", "time": 0, "note": 58, "velocity": 112, "channel": 0}, {"type": "note_off", "time": 170, "note": 58, "velocity": 112, "channel": 0}, {"type": "note_on", "time": 20, "note": 56, "velocity": 108, "channel": 0}, {"type": "note_off", "time": 179, "note": 56, "velocity": 108, "channel": 0}, {"type": "note_on", "time": 37, "note": 63, "velocity": 122, "channel": 0}, {"type": "note_off", "time": 209, "note": 63, "velocity": 122, "channel": 0}, {"type": "note_on", "time": 0, "note": 61, "velocity": 117, "channel": 0}, {"type": "note_off", "time": 149, "note": 61, "velocity": 117, "channel": 0}, {"type": "note_on", "time": 0, "note": 58, "velocity": 101, "channel": 0}, {"type": "note_off", "time": 194, "note": 58, "velocity": 101, "channel": 0}, {"type": "note_on", "time": 14, "note": 53, "velocity": 98, "channel": 0}, {"type": "note_off", "time": 202, "note": 53, "velocity": 98, "channel": 0}, {"type": "note_on", "time": 14, "note": 57, "velocity": 109, "channel": 0}, {"type": "note_off", "time": 179, "note": 57, "velocity": 109, "channel": 0}, {"type": "note_on", "time": 29, "note": 60, "velocity": 116, "channel": 0}, {"type": "note_off", "time": 247, "note": 60, "velocity": 116, "channel": 0}, {"type": "note_on", "time": 7, "note": 65, "velocity": 116, "channel": 0}, {"type": "note_off", "time": 164, "note": 65, "velocity": 116, "channel": 0}, {"type": "note_on", "time": 52, "note": 69, "velocity": 113, "channel": 0}, {"type": "note_off", "time": 209, "note": 69, "velocity": 113, "channel": 0}, {"type": "note_on", "time": 142, "note": 72, "velocity": 110, "channel": 0}, {"type": "note_off", "time": 74, "note": 72, "velocity": 110, "channel": 0}, {"type": "note_on", "time": 37, "note": 73, "velocity": 99, "channel": 0}, {"type": "note_off", "time": 71, "note": 73, "velocity": 99, "channel": 0}, {"type": "note_on", "time": 93, "note": 73, "velocity": 107, "channel": 0}, {"type": "note_off", "time": 943, "note": 73, "velocity": 107, "channel": 0}, {"type": "note_on", "time": 23, "note": 71, "velocity": 99, "channel": 0}, {"type": "note_off", "time": 159, "note": 71, "velocity": 99, "channel": 0}, {"type": "note_on", "time": 29, "note": 68, "velocity": 112, "channel": 0}, {"type": "note_off", "time": 658, "note": 68, "velocity": 112, "channel": 0}, {"type": "note_on", "time": 1046, "note": 72, "velocity": 113, "channel": 0}, {"type": "note_off", "time": 127, "note": 72, "velocity": 113, "channel": 0}, {"type": "note_on", "time": 0, "note": 74, "velocity": 111, "channel": 0}, {"type": "note_off", "time": 383, "note": 74, "velocity": 111, "channel": 0}, {"type": "note_on", "time": 149, "note": 69, "velocity": 112, "channel": 0}, {"type": "note_off", "time": 191, "note": 69, "velocity": 112, "channel": 0}, {"type": "note_on", "time": 21, "note": 68, "velocity": 118, "channel": 0}, {"type": "note_off", "time": 223, "note": 68, "velocity": 118, "channel": 0}, {"type": "note_on", "time": 42, "note": 67, "velocity": 115, "channel": 0}, {"type": "note_off", "time": 159, "note": 67, "velocity": 115, "channel": 0}, {"type": "note_on", "time": 21, "note": 66, "velocity": 111, "channel": 0}, {"type": "note_off", "time": 202, "note": 66, "velocity": 111, "channel": 0}, {"type": "note_on", "time": 10, "note": 68, "velocity": 117, "channel": 0}, {"type": "note_off", "time": 170, "note": 68, "velocity": 117, "channel": 0}, {"type": "note_on", "time": 10, "note": 67, "velocity": 111, "channel": 0}, {"type": "note_off", "time": 191, "note": 67, "velocity": 111, "channel": 0}, {"type": "note_on", "time": 21, "note": 66, "velocity": 113, "channel": 0}, {"type": "note_off", "time": 202, "note": 66, "velocity": 113, "channel": 0}, {"type": "note_on", "time": 10, "note": 65, "velocity": 115, "channel": 0}, {"type": "note_off", "time": 212, "note": 65, "velocity": 115, "channel": 0}, {"type": "note_on", "time": 31, "note": 64, "velocity": 120, "channel": 0}, {"type": "note_off", "time": 191, "note": 64, "velocity": 120, "channel": 0}, {"type": "note_on", "time": 21, "note": 63, "velocity": 119, "channel": 0}, {"type": "note_off", "time": 159, "note": 63, "velocity": 119, "channel": 0}, {"type": "note_on", "time": 21, "note": 65, "velocity": 111, "channel": 0}, {"type": "note_off", "time": 180, "note": 65, "velocity": 111, "channel": 0}, {"type": "note_on", "time": 10, "note": 66, "velocity": 112, "channel": 0}, {"type": "note_off", "time": 202, "note": 66, "velocity": 112, "channel": 0}, {"type": "note_on", "time": 0, "note": 64, "velocity": 107, "channel": 0}, {"type": "note_off", "time": 212, "note": 64, "velocity": 107, "channel": 0}, {"type": "note_on", "time": 21, "note": 65, "velocity": 118, "channel": 0}, {"type": "note_off", "time": 170, "note": 65, "velocity": 118, "channel": 0}, {"type": "note_on", "time": 10, "note": 64, "velocity": 118, "channel": 0}, {"type": "note_off", "time": 212, "note": 64, "velocity": 118, "channel": 0}, {"type": "note_on", "time": 10, "note": 63, "velocity": 117, "channel": 0}, {"type": "note_off", "time": 138, "note": 63, "velocity": 117, "channel": 0}, {"type": "note_on", "time": 31, "note": 67, "velocity": 110, "channel": 0}, {"type": "note_off", "time": 212, "note": 67, "velocity": 110, "channel": 0}, {"type": "note_on", "time": 31, "note": 66, "velocity": 111, "channel": 0}, {"type": "note_off", "time": 180, "note": 66, "velocity": 111, "channel": 0}, {"type": "note_on", "time": 10, "note": 61, "velocity": 116, "channel": 0}, {"type": "note_off", "time": 170, "note": 61, "velocity": 116, "channel": 0}, {"type": "note_on", "time": 31, "note": 58, "velocity": 110, "channel": 0}, {"type": "note_off", "time": 180, "note": 58, "velocity": 110, "channel": 0}, {"type": "note_on", "time": 42, "note": 56, "velocity": 110, "channel": 0}, {"type": "note_off", "time": 218, "note": 56, "velocity": 110, "channel": 0}, {"type": "note_on", "time": 0, "note": 63, "velocity": 121, "channel": 0}, {"type": "note_off", "time": 159, "note": 63, "velocity": 121, "channel": 0}, {"type": "note_on", "time": 42, "note": 61, "velocity": 118, "channel": 0}, {"type": "note_off", "time": 170, "note": 61, "velocity": 118, "channel": 0}, {"type": "note_on", "time": 15, "note": 58, "velocity": 105, "channel": 0}, {"type": "note_off", "time": 175, "note": 58, "velocity": 105, "channel": 0}, {"type": "note_on", "time": 0, "note": 54, "velocity": 99, "channel": 0}, {"type": "note_off", "time": 154, "note": 54, "velocity": 99, "channel": 0}, {"type": "note_on", "time": 15, "note": 56, "velocity": 104, "channel": 0}, {"type": "note_off", "time": 234, "note": 56, "velocity": 104, "channel": 0}, {"type": "note_on", "time": 5, "note": 55, "velocity": 102, "channel": 0}, {"type": "note_off", "time": 228, "note": 55, "velocity": 102, "channel": 0}, {"type": "note_on", "time": 21, "note": 54, "velocity": 104, "channel": 0}, {"type": "note_off", "time": 165, "note": 54, "velocity": 104, "channel": 0}, {"type": "note_on", "time": 26, "note": 56, "velocity": 106, "channel": 0}, {"type": "note_off", "time": 196, "note": 56, "velocity": 106, "channel": 0}, {"type": "note_on", "time": 26, "note": 55, "velocity": 103, "channel": 0}, {"type": "note_off", "time": 218, "note": 55, "velocity": 103, "channel": 0}, {"type": "note_on", "time": 10, "note": 58, "velocity": 95, "channel": 0}, {"type": "note_off", "time": 154, "note": 58, "velocity": 95, "channel": 0}, {"type": "note_on", "time": 5, "note": 61, "velocity": 101, "channel": 0}, {"type": "note_off", "time": 127, "note": 61, "velocity": 101, "channel": 0}, {"type": "note_on", "time": 1405, "note": 68, "velocity": 118, "channel": 0}, {"type": "note_off", "time": 106, "note": 68, "velocity": 118, "channel": 0}, {"type": "note_on", "time": 42, "note": 68, "velocity": 118, "channel": 0}, {"type": "note_off", "time": 191, "note": 68, "velocity": 118, "channel": 0}, {"type": "note_on", "time": 21, "note": 68, "velocity": 118, "channel": 0}, {"type": "note_off", "time": 202, "note": 68, "velocity": 118, "channel": 0}, {"type": "note_on", "time": 61, "note": 53, "velocity": 118, "channel": 0}, {"type": "note_off", "time": 127, "note": 53, "velocity": 118, "channel": 0}, {"type": "note_on", "time": 12, "note": 68, "velocity": 114, "channel": 0}, {"type": "note_off", "time": 404, "note": 68, "velocity": 114, "channel": 0}, {"type": "note_on", "time": 180, "note": 67, "velocity": 99, "channel": 0}, {"type": "note_off", "time": 106, "note": 67, "velocity": 99, "channel": 0}, {"type": "note_on", "time": 0, "note": 68, "velocity": 118, "channel": 0}, {"type": "note_off", "time": 393, "note": 68, "velocity": 118, "channel": 0}, {"type": "note_on", "time": 74, "note": 68, "velocity": 119, "channel": 0}, {"type": "note_off", "time": 361, "note": 68, "velocity": 119, "channel": 0}, {"type": "note_on", "time": 53, "note": 68, "velocity": 116, "channel": 0}, {"type": "note_off", "time": 308, "note": 68, "velocity": 116, "channel": 0}, {"type": "note_on", "time": 10, "note": 65, "velocity": 115, "channel": 0}, {"type": "note_off", "time": 191, "note": 65, "velocity": 115, "channel": 0}, {"type": "note_on", "time": 255, "note": 65, "velocity": 114, "channel": 0}, {"type": "note_off", "time": 330, "note": 65, "velocity": 114, "channel": 0}, {"type": "note_on", "time": 0, "note": 63, "velocity": 116, "channel": 0}, {"type": "note_off", "time": 255, "note": 63, "velocity": 116, "channel": 0}, {"type": "note_on", "time": 21, "note": 65, "velocity": 112, "channel": 0}, {"type": "note_off", "time": 670, "note": 65, "velocity": 112, "channel": 0}, {"type": "note_on", "time": 21, "note": 63, "velocity": 119, "channel": 0}, {"type": "note_off", "time": 191, "note": 63, "velocity": 119, "channel": 0}, {"type": "note_on", "time": 9, "note": 58, "velocity": 101, "channel": 0}, {"type": "note_off", "time": 909, "note": 58, "velocity": 101, "channel": 0}, {"type": "note_on", "time": 1237, "note": 70, "velocity": 116, "channel": 0}, {"type": "note_off", "time": 143, "note": 70, "velocity": 116, "channel": 0}, {"type": "note_on", "time": 42, "note": 68, "velocity": 118, "channel": 0}, {"type": "note_off", "time": 165, "note": 68, "velocity": 118, "channel": 0}, {"type": "note_on", "time": 0, "note": 73, "velocity": 106, "channel": 0}, {"type": "note_off", "time": 186, "note": 73, "velocity": 106, "channel": 0}, {"type": "note_on", "time": 31, "note": 70, "velocity": 113, "channel": 0}, {"type": "note_off", "time": 196, "note": 70, "velocity": 113, "channel": 0}, {"type": "note_on", "time": 15, "note": 66, "velocity": 112, "channel": 0}, {"type": "note_off", "time": 175, "note": 66, "velocity": 112, "channel": 0}, {"type": "note_on", "time": 10, "note": 65, "velocity": 115, "channel": 0}, {"type": "note_off", "time": 170, "note": 65, "velocity": 115, "channel": 0}, {"type": "note_on", "time": 31, "note": 64, "velocity": 119, "channel": 0}, {"type": "note_off", "time": 207, "note": 64, "velocity": 119, "channel": 0}, {"type": "note_on", "time": 21, "note": 63, "velocity": 118, "channel": 0}, {"type": "note_off", "time": 175, "note": 63, "velocity": 118, "channel": 0}, {"type": "note_on", "time": 0, "note": 65, "velocity": 111, "channel": 0}, {"type": "note_off", "time": 196, "note": 65, "velocity": 111, "channel": 0}, {"type": "note_on", "time": 15, "note": 66, "velocity": 109, "channel": 0}, {"type": "note_off", "time": 170, "note": 66, "velocity": 109, "channel": 0}, {"type": "note_on", "time": 21, "note": 68, "velocity": 112, "channel": 0}, {"type": "note_off", "time": 196, "note": 68, "velocity": 112, "channel": 0}, {"type": "note_on", "time": 37, "note": 65, "velocity": 114, "channel": 0}, {"type": "note_off", "time": 196, "note": 65, "velocity": 114, "channel": 0}, {"type": "note_on", "time": 15, "note": 64, "velocity": 121, "channel": 0}, {"type": "note_off", "time": 159, "note": 64, "velocity": 121, "channel": 0}, {"type": "note_on", "time": 31, "note": 63, "velocity": 117, "channel": 0}, {"type": "note_off", "time": 170, "note": 63, "velocity": 117, "channel": 0}, {"type": "note_on", "time": 23, "note": 67, "velocity": 112, "channel": 0}, {"type": "note_off", "time": 170, "note": 67, "velocity": 112, "channel": 0}, {"type": "note_on", "time": 13, "note": 66, "velocity": 117, "channel": 0}, {"type": "note_off", "time": 196, "note": 66, "velocity": 117, "channel": 0}, {"type": "note_on", "time": 37, "note": 61, "velocity": 123, "channel": 0}, {"type": "note_off", "time": 186, "note": 61, "velocity": 123, "channel": 0}, {"type": "note_on", "time": 15, "note": 58, "velocity": 114, "channel": 0}, {"type": "note_off", "time": 133, "note": 58, "velocity": 114, "channel": 0}, {"type": "note_on", "time": 15, "note": 56, "velocity": 111, "channel": 0}, {"type": "note_off", "time": 202, "note": 56, "velocity": 111, "channel": 0}, {"type": "note_on", "time": 21, "note": 63, "velocity": 118, "channel": 0}, {"type": "note_off", "time": 228, "note": 63, "velocity": 118, "channel": 0}, {"type": "note_on", "time": 21, "note": 61, "velocity": 123, "channel": 0}, {"type": "note_off", "time": 175, "note": 61, "velocity": 123, "channel": 0}, {"type": "note_on", "time": 31, "note": 56, "velocity": 109, "channel": 0}, {"type": "note_off", "time": 207, "note": 56, "velocity": 109, "channel": 0}, {"type": "note_on", "time": 212, "note": 58, "velocity": 113, "channel": 0}, {"type": "note_off", "time": 180, "note": 58, "velocity": 113, "channel": 0}, {"type": "note_on", "time": 26, "note": 54, "velocity": 116, "channel": 0}, {"type": "note_off", "time": 196, "note": 54, "velocity": 116, "channel": 0}, {"type": "note_on", "time": 21, "note": 49, "velocity": 112, "channel": 0}, {"type": "note_off", "time": 186, "note": 49, "velocity": 112, "channel": 0}, {"type": "note_on", "time": 5, "note": 54, "velocity": 116, "channel": 0}, {"type": "note_off", "time": 212, "note": 54, "velocity": 116, "channel": 0}, {"type": "note_on", "time": 15, "note": 51, "velocity": 121, "channel": 0}, {"type": "note_off", "time": 298, "note": 51, "velocity": 121, "channel": 0}, {"type": "note_on", "time": 26, "note": 46, "velocity": 121, "channel": 0}, {"type": "note_off", "time": 282, "note": 46, "velocity": 121, "channel": 0}, {"type": "note_on", "time": 21, "note": 44, "velocity": 120, "channel": 0}, {"type": "note_off", "time": 777, "note": 44, "velocity": 120, "channel": 0}, {"type": "note_on", "time": 1160, "note": 45, "velocity": 119, "channel": 0}, {"type": "note_off", "time": 234, "note": 45, "velocity": 119, "channel": 0}, {"type": "note_on", "time": 15, "note": 51, "velocity": 113, "channel": 0}, {"type": "note_off", "time": 175, "note": 51, "velocity": 113, "channel": 0}, {"type": "note_on", "time": 1671, "note": 48, "velocity": 114, "channel": 0}, {"type": "note_off", "time": 202, "note": 48, "velocity": 114, "channel": 0}, {"type": "note_on", "time": 0, "note": 53, "velocity": 114, "channel": 0}, {"type": "note_off", "time": 207, "note": 53, "velocity": 114, "channel": 0}, {"type": "note_on", "time": 830, "note": 44, "velocity": 122, "channel": 0}, {"type": "note_off", "time": 191, "note": 44, "velocity": 122, "channel": 0}, {"type": "note_on", "time": 10, "note": 51, "velocity": 116, "channel": 0}, {"type": "note_off", "time": 223, "note": 51, "velocity": 116, "channel": 0}, {"type": "note_on", "time": 484, "note": 46, "velocity": 116, "channel": 0}, {"type": "note_off", "time": 234, "note": 46, "velocity": 116, "channel": 0}, {"type": "note_on", "time": 5, "note": 53, "velocity": 114, "channel": 0}, {"type": "note_off", "time": 207, "note": 53, "velocity": 114, "channel": 0}, {"type": "note_on", "time": 335, "note": 48, "velocity": 115, "channel": 0}, {"type": "note_off", "time": 250, "note": 48, "velocity": 115, "channel": 0}, {"type": "note_on", "time": 21, "note": 55, "velocity": 106, "channel": 0}, {"type": "note_off", "time": 314, "note": 55, "velocity": 106, "channel": 0}, {"type": "note_on", "time": 633, "note": 44, "velocity": 116, "channel": 0}, {"type": "note_off", "time": 212, "note": 44, "velocity": 116, "channel": 0}, {"type": "note_on", "time": 15, "note": 51, "velocity": 111, "channel": 0}, {"type": "note_off", "time": 212, "note": 51, "velocity": 111, "channel": 0}, {"type": "note_on", "time": 835, "note": 45, "velocity": 115, "channel": 0}, {"type": "note_off", "time": 202, "note": 45, "velocity": 115, "channel": 0}, {"type": "note_on", "time": 0, "note": 51, "velocity": 107, "channel": 0}, {"type": "note_off", "time": 202, "note": 51, "velocity": 107, "channel": 0}, {"type": "note_on", "time": 202, "note": 46, "velocity": 115, "channel": 0}, {"type": "note_off", "time": 212, "note": 46, "velocity": 115, "channel": 0}, {"type": "note_on", "time": 37, "note": 53, "velocity": 115, "channel": 0}, {"type": "note_off", "time": 202, "note": 53, "velocity": 115, "channel": 0}, {"type": "note_on", "time": 149, "note": 48, "velocity": 112, "channel": 0}, {"type": "note_off", "time": 218, "note": 48, "velocity": 112, "channel": 0}, {"type": "note_on", "time": 42, "note": 55, "velocity": 108, "channel": 0}, {"type": "note_off", "time": 196, "note": 55, "velocity": 108, "channel": 0}, {"type": "note_on", "time": 15, "note": 50, "velocity": 113, "channel": 0}, {"type": "note_off", "time": 180, "note": 50, "velocity": 113, "channel": 0}, {"type": "note_on", "time": 37, "note": 57, "velocity": 110, "channel": 0}, {"type": "note_off", "time": 266, "note": 57, "velocity": 110, "channel": 0}, {"type": "note_on", "time": 47, "note": 52, "velocity": 109, "channel": 0}, {"type": "note_off", "time": 260, "note": 52, "velocity": 109, "channel": 0}, {"type": "note_on", "time": 37, "note": 59, "velocity": 102, "channel": 0}, {"type": "note_off", "time": 255, "note": 59, "velocity": 102, "channel": 0}, {"type": "note_on", "time": 5, "note": 54, "velocity": 108, "channel": 0}, {"type": "note_off", "time": 282, "note": 54, "velocity": 108, "channel": 0}, {"type": "note_on", "time": 5, "note": 61, "velocity": 108, "channel": 0}, {"type": "note_off", "time": 319, "note": 61, "velocity": 108, "channel": 0}, {"type": "note_on", "time": 0, "note": 56, "velocity": 109, "channel": 0}, {"type": "note_off", "time": 260, "note": 56, "velocity": 109, "channel": 0}, {"type": "note_on", "time": 0, "note": 63, "velocity": 117, "channel": 0}, {"type": "note_off", "time": 228, "note": 63, "velocity": 117, "channel": 0}, {"type": "note_on", "time": 15, "note": 58, "velocity": 100, "channel": 0}, {"type": "note_off", "time": 255, "note": 58, "velocity": 100, "channel": 0}, {"type": "note_on", "time": 31, "note": 60, "velocity": 116, "channel": 0}, {"type": "note_off", "time": 234, "note": 60, "velocity": 116, "channel": 0}, {"type": "note_on", "time": 10, "note": 65, "velocity": 113, "channel": 0}, {"type": "note_off", "time": 282, "note": 65, "velocity": 113, "channel": 0}, {"type": "note_on", "time": 10, "note": 61, "velocity": 111, "channel": 0}, {"type": "note_off", "time": 282, "note": 61, "velocity": 111, "channel": 0}, {"type": "note_on", "time": 15, "note": 67, "velocity": 113, "channel": 0}, {"type": "note_off", "time": 266, "note": 67, "velocity": 113, "channel": 0}, {"type": "note_on", "time": 10, "note": 64, "velocity": 116, "channel": 0}, {"type": "note_off", "time": 276, "note": 64, "velocity": 116, "channel": 0}, {"type": "note_on", "time": 0, "note": 69, "velocity": 112, "channel": 0}, {"type": "note_off", "time": 260, "note": 69, "velocity": 112, "channel": 0}, {"type": "note_on", "time": 5, "note": 66, "velocity": 112, "channel": 0}, {"type": "note_off", "time": 212, "note": 66, "velocity": 112, "channel": 0}, {"type": "note_on", "time": 21, "note": 71, "velocity": 104, "channel": 0}, {"type": "note_off", "time": 260, "note": 71, "velocity": 104, "channel": 0}, {"type": "note_on", "time": 5, "note": 68, "velocity": 115, "channel": 0}, {"type": "note_off", "time": 250, "note": 68, "velocity": 115, "channel": 0}, {"type": "note_on", "time": 1, "note": 73, "velocity": 102, "channel": 0}, {"type": "note_off", "time": 232, "note": 73, "velocity": 102, "channel": 0}, {"type": "note_on", "time": 883, "note": 44, "velocity": 119, "channel": 0}, {"type": "note_off", "time": 262, "note": 44, "velocity": 119, "channel": 0}, {"type": "note_on", "time": 0, "note": 51, "velocity": 115, "channel": 0}, {"type": "note_off", "time": 262, "note": 51, "velocity": 115, "channel": 0}, {"type": "note_on", "time": 29, "note": 49, "velocity": 115, "channel": 0}, {"type": "note_off", "time": 254, "note": 49, "velocity": 115, "channel": 0}, {"type": "note_on", "time": 0, "note": 54, "velocity": 119, "channel": 0}, {"type": "note_off", "time": 247, "note": 54, "velocity": 119, "channel": 0}, {"type": "note_on", "time": 44, "note": 50, "velocity": 117, "channel": 0}, {"type": "note_off", "time": 254, "note": 50, "velocity": 117, "channel": 0}, {"type": "note_on", "time": 14, "note": 59, "velocity": 99, "channel": 0}, {"type": "note_off", "time": 254, "note": 59, "velocity": 99, "channel": 0}, {"type": "note_on", "time": 0, "note": 51, "velocity": 113, "channel": 0}, {"type": "note_off", "time": 306, "note": 51, "velocity": 113, "channel": 0}, {"type": "note_on", "time": 7, "note": 59, "velocity": 106, "channel": 0}, {"type": "note_off", "time": 224, "note": 59, "velocity": 106, "channel": 0}, {"type": "note_on", "time": 0, "note": 50, "velocity": 118, "channel": 0}, {"type": "note_off", "time": 202, "note": 50, "velocity": 118, "channel": 0}, {"type": "note_on", "time": 37, "note": 55, "velocity": 115, "channel": 0}, {"type": "note_off", "time": 224, "note": 55, "velocity": 115, "channel": 0}, {"type": "note_on", "time": 22, "note": 48, "velocity": 120, "channel": 0}, {"type": "note_off", "time": 224, "note": 48, "velocity": 120, "channel": 0}, {"type": "note_on", "time": 29, "note": 53, "velocity": 118, "channel": 0}, {"type": "note_off", "time": 239, "note": 53, "velocity": 118, "channel": 0}, {"type": "note_on", "time": 853, "note": 44, "velocity": 117, "channel": 0}, {"type": "note_off", "time": 262, "note": 44, "velocity": 117, "channel": 0}, {"type": "note_on", "time": 29, "note": 51, "velocity": 113, "channel": 0}, {"type": "note_off", "time": 239, "note": 51, "velocity": 113, "channel": 0}, {"type": "note_on", "time": 22, "note": 49, "velocity": 112, "channel": 0}, {"type": "note_off", "time": 247, "note": 49, "velocity": 112, "channel": 0}, {"type": "note_on", "time": 22, "note": 54, "velocity": 109, "channel": 0}, {"type": "note_off", "time": 276, "note": 54, "velocity": 109, "channel": 0}, {"type": "note_on", "time": 14, "note": 52, "velocity": 112, "channel": 0}, {"type": "note_off", "time": 232, "note": 52, "velocity": 112, "channel": 0}, {"type": "note_on", "time": 74, "note": 59, "velocity": 106, "channel": 0}, {"type": "note_off", "time": 247, "note": 59, "velocity": 106, "channel": 0}, {"type": "note_on", "time": 0, "note": 54, "velocity": 101, "channel": 0}, {"type": "note_off", "time": 247, "note": 54, "velocity": 101, "channel": 0}, {"type": "note_on", "time": 48, "note": 61, "velocity": 111, "channel": 0}, {"type": "note_off", "time": 247, "note": 61, "velocity": 111, "channel": 0}, {"type": "note_on", "time": 3, "note": 56, "velocity": 104, "channel": 0}, {"type": "note_off", "time": 250, "note": 56, "velocity": 104, "channel": 0}, {"type": "note_on", "time": 56, "note": 61, "velocity": 107, "channel": 0}, {"type": "note_off", "time": 269, "note": 61, "velocity": 107, "channel": 0}, {"type": "note_on", "time": 7, "note": 59, "velocity": 104, "channel": 0}, {"type": "note_off", "time": 232, "note": 59, "velocity": 104, "channel": 0}, {"type": "note_on", "time": 0, "note": 63, "velocity": 119, "channel": 0}, {"type": "note_off", "time": 217, "note": 63, "velocity": 119, "channel": 0}, {"type": "note_on", "time": 22, "note": 61, "velocity": 110, "channel": 0}, {"type": "note_off", "time": 247, "note": 61, "velocity": 110, "channel": 0}, {"type": "note_on", "time": 49, "note": 66, "velocity": 108, "channel": 0}, {"type": "note_off", "time": 271, "note": 66, "velocity": 108, "channel": 0}, {"type": "note_on", "time": 31, "note": 67, "velocity": 115, "channel": 0}, {"type": "note_off", "time": 244, "note": 67, "velocity": 115, "channel": 0}, {"type": "note_on", "time": 569, "note": 61, "velocity": 116, "channel": 0}, {"type": "note_off", "time": 175, "note": 61, "velocity": 116, "channel": 0}, {"type": "note_on", "time": 52, "note": 63, "velocity": 102, "channel": 0}, {"type": "note_off", "time": 117, "note": 63, "velocity": 102, "channel": 0}, {"type": "note_on", "time": 37, "note": 66, "velocity": 112, "channel": 0}, {"type": "note_off", "time": 180, "note": 66, "velocity": 112, "channel": 0}, {"type": "note_on", "time": 21, "note": 68, "velocity": 115, "channel": 0}, {"type": "note_off", "time": 186, "note": 68, "velocity": 115, "channel": 0}, {"type": "note_on", "time": 15, "note": 63, "velocity": 120, "channel": 0}, {"type": "note_off", "time": 218, "note": 63, "velocity": 120, "channel": 0}, {"type": "note_on", "time": 42, "note": 66, "velocity": 98, "channel": 0}, {"type": "note_off", "time": 165, "note": 66, "velocity": 98, "channel": 0}, {"type": "note_on", "time": 15, "note": 68, "velocity": 114, "channel": 0}, {"type": "note_off", "time": 191, "note": 68, "velocity": 114, "channel": 0}, {"type": "note_on", "time": 42, "note": 71, "velocity": 102, "channel": 0}, {"type": "note_off", "time": 186, "note": 71, "velocity": 102, "channel": 0}, {"type": "note_on", "time": 90, "note": 75, "velocity": 118, "channel": 0}, {"type": "note_off", "time": 207, "note": 75, "velocity": 118, "channel": 0}, {"type": "note_on", "time": 846, "note": 75, "velocity": 126, "channel": 0}, {"type": "note_off", "time": 266, "note": 75, "velocity": 126, "channel": 0}, {"type": "note_on", "time": 1410, "note": 61, "velocity": 119, "channel": 0}, {"type": "note_off", "time": 133, "note": 61, "velocity": 119, "channel": 0}, {"type": "note_on", "time": 5, "note": 59, "velocity": 119, "channel": 0}, {"type": "note_off", "time": 69, "note": 59, "velocity": 119, "channel": 0}, {"type": "note_on", "time": 0, "note": 61, "velocity": 119, "channel": 0}, {"type": "note_off", "time": 133, "note": 61, "velocity": 119, "channel": 0}, {"type": "note_on", "time": 511, "note": 75, "velocity": 119, "channel": 0}, {"type": "note_off", "time": 308, "note": 75, "velocity": 119, "channel": 0}, {"type": "note_on", "time": 1006, "note": 75, "velocity": 121, "channel": 0}, {"type": "note_off", "time": 340, "note": 75, "velocity": 121, "channel": 0}, {"type": "note_on", "time": 514, "note": 57, "velocity": 114, "channel": 0}, {"type": "note_off", "time": 180, "note": 57, "velocity": 114, "channel": 0}, {"type": "note_on", "time": 17, "note": 69, "velocity": 115, "channel": 0}, {"type": "note_off", "time": 377, "note": 69, "velocity": 115, "channel": 0}, {"type": "note_on", "time": 505, "note": 75, "velocity": 122, "channel": 0}, {"type": "note_off", "time": 298, "note": 75, "velocity": 122, "channel": 0}, {"type": "note_on", "time": 564, "note": 75, "velocity": 123, "channel": 0}, {"type": "note_off", "time": 292, "note": 75, "velocity": 123, "channel": 0}, {"type": "note_on", "time": 239, "note": 75, "velocity": 120, "channel": 0}, {"type": "note_off", "time": 356, "note": 75, "velocity": 120, "channel": 0}, {"type": "note_on", "time": 471, "note": 57, "velocity": 120, "channel": 0}, {"type": "note_off", "time": 266, "note": 57, "velocity": 120, "channel": 0}, {"type": "note_on", "time": 18, "note": 70, "velocity": 120, "channel": 0}, {"type": "note_off", "time": 196, "note": 70, "velocity": 120, "channel": 0}, {"type": "note_on", "time": 574, "note": 45, "velocity": 125, "channel": 0}, {"type": "note_off", "time": 180, "note": 45, "velocity": 125, "channel": 0}, {"type": "note_on", "time": 0, "note": 51, "velocity": 113, "channel": 0}, {"type": "note_off", "time": 175, "note": 51, "velocity": 113, "channel": 0}, {"type": "note_on", "time": 37, "note": 57, "velocity": 112, "channel": 0}, {"type": "note_off", "time": 175, "note": 57, "velocity": 112, "channel": 0}, {"type": "note_on", "time": 37, "note": 49, "velocity": 114, "channel": 0}, {"type": "note_off", "time": 191, "note": 49, "velocity": 114, "channel": 0}, {"type": "note_on", "time": 26, "note": 50, "velocity": 109, "channel": 0}, {"type": "note_off", "time": 186, "note": 50, "velocity": 109, "channel": 0}, {"type": "note_on", "time": 21, "note": 53, "velocity": 114, "channel": 0}, {"type": "note_off", "time": 159, "note": 53, "velocity": 114, "channel": 0}, {"type": "note_on", "time": 31, "note": 52, "velocity": 116, "channel": 0}, {"type": "note_off", "time": 191, "note": 52, "velocity": 116, "channel": 0}, {"type": "note_on", "time": 15, "note": 51, "velocity": 113, "channel": 0}, {"type": "note_off", "time": 165, "note": 51, "velocity": 113, "channel": 0}, {"type": "note_on", "time": 47, "note": 55, "velocity": 111, "channel": 0}, {"type": "note_off", "time": 149, "note": 55, "velocity": 111, "channel": 0}, {"type": "note_on", "time": 15, "note": 58, "velocity": 105, "channel": 0}, {"type": "note_off", "time": 207, "note": 58, "velocity": 105, "channel": 0}, {"type": "note_on", "time": 26, "note": 61, "velocity": 118, "channel": 0}, {"type": "note_off", "time": 186, "note": 61, "velocity": 118, "channel": 0}, {"type": "note_on", "time": 5, "note": 63, "velocity": 119, "channel": 0}, {"type": "note_off", "time": 196, "note": 63, "velocity": 119, "channel": 0}, {"type": "note_on", "time": 10, "note": 65, "velocity": 107, "channel": 0}, {"type": "note_off", "time": 170, "note": 65, "velocity": 107, "channel": 0}, {"type": "note_on", "time": 5, "note": 67, "velocity": 113, "channel": 0}, {"type": "note_off", "time": 212, "note": 67, "velocity": 113, "channel": 0}, {"type": "note_on", "time": 53, "note": 71, "velocity": 106, "channel": 0}, {"type": "note_off", "time": 180, "note": 71, "velocity": 106, "channel": 0}, {"type": "note_on", "time": 15, "note": 75, "velocity": 124, "channel": 0}, {"type": "note_off", "time": 292, "note": 75, "velocity": 124, "channel": 0}, {"type": "note_on", "time": 686, "note": 45, "velocity": 120, "channel": 0}, {"type": "note_off", "time": 212, "note": 45, "velocity": 120, "channel": 0}, {"type": "note_on", "time": 319, "note": 75, "velocity": 101, "channel": 0}, {"type": "note_off", "time": 244, "note": 75, "velocity": 101, "channel": 0}, {"type": "note_on", "time": 537, "note": 45, "velocity": 118, "channel": 0}, {"type": "note_off", "time": 212, "note": 45, "velocity": 118, "channel": 0}, {"type": "note_on", "time": 159, "note": 75, "velocity": 123, "channel": 0}, {"type": "note_off", "time": 303, "note": 75, "velocity": 123, "channel": 0}, {"type": "note_on", "time": 542, "note": 75, "velocity": 124, "channel": 0}, {"type": "note_off", "time": 223, "note": 75, "velocity": 124, "channel": 0}, {"type": "note_on", "time": 255, "note": 45, "velocity": 119, "channel": 0}, {"type": "note_off", "time": 330, "note": 45, "velocity": 119, "channel": 0}, {"type": "note_on", "time": 626, "note": 49, "velocity": 116, "channel": 0}, {"type": "note_off", "time": 180, "note": 49, "velocity": 116, "channel": 0}, {"type": "note_on", "time": 9, "note": 50, "velocity": 118, "channel": 0}, {"type": "note_off", "time": 207, "note": 50, "velocity": 118, "channel": 0}, {"type": "note_on", "time": 17, "note": 53, "velocity": 111, "channel": 0}, {"type": "note_off", "time": 170, "note": 53, "velocity": 111, "channel": 0}, {"type": "note_on", "time": 21, "note": 52, "velocity": 120, "channel": 0}, {"type": "note_off", "time": 175, "note": 52, "velocity": 120, "channel": 0}, {"type": "note_on", "time": 31, "note": 51, "velocity": 116, "channel": 0}, {"type": "note_off", "time": 223, "note": 51, "velocity": 116, "channel": 0}, {"type": "note_on", "time": 0, "note": 53, "velocity": 108, "channel": 0}, {"type": "note_off", "time": 207, "note": 53, "velocity": 108, "channel": 0}, {"type": "note_on", "time": 0, "note": 55, "velocity": 110, "channel": 0}, {"type": "note_off", "time": 191, "note": 55, "velocity": 110, "channel": 0}, {"type": "note_on", "time": 21, "note": 58, "velocity": 106, "channel": 0}, {"type": "note_off", "time": 196, "note": 58, "velocity": 106, "channel": 0}, {"type": "note_on", "time": 0, "note": 57, "velocity": 110, "channel": 0}, {"type": "note_off", "time": 196, "note": 57, "velocity": 110, "channel": 0}, {"type": "note_on", "time": 10, "note": 53, "velocity": 106, "channel": 0}, {"type": "note_off", "time": 165, "note": 53, "velocity": 106, "channel": 0}, {"type": "note_on", "time": 26, "note": 58, "velocity": 109, "channel": 0}, {"type": "note_off", "time": 207, "note": 58, "velocity": 109, "channel": 0}, {"type": "note_on", "time": 10, "note": 55, "velocity": 104, "channel": 0}, {"type": "note_off", "time": 180, "note": 55, "velocity": 104, "channel": 0}, {"type": "note_on", "time": 10, "note": 60, "velocity": 119, "channel": 0}, {"type": "note_off", "time": 212, "note": 60, "velocity": 119, "channel": 0}, {"type": "note_on", "time": 0, "note": 62, "velocity": 121, "channel": 0}, {"type": "note_off", "time": 218, "note": 62, "velocity": 121, "channel": 0}, {"type": "note_on", "time": 0, "note": 63, "velocity": 121, "channel": 0}, {"type": "note_off", "time": 180, "note": 63, "velocity": 121, "channel": 0}, {"type": "note_on", "time": 31, "note": 65, "velocity": 105, "channel": 0}, {"type": "note_off", "time": 149, "note": 65, "velocity": 105, "channel": 0}, {"type": "note_on", "time": 31, "note": 67, "velocity": 115, "channel": 0}, {"type": "note_off", "time": 202, "note": 67, "velocity": 115, "channel": 0}, {"type": "note_on", "time": 26, "note": 70, "velocity": 113, "channel": 0}, {"type": "note_off", "time": 159, "note": 70, "velocity": 113, "channel": 0}, {"type": "note_on", "time": 15, "note": 69, "velocity": 112, "channel": 0}, {"type": "note_off", "time": 212, "note": 69, "velocity": 112, "channel": 0}, {"type": "note_on", "time": 479, "note": 75, "velocity": 122, "channel": 0}, {"type": "note_off", "time": 186, "note": 75, "velocity": 122, "channel": 0}, {"type": "note_on", "time": 590, "note": 45, "velocity": 118, "channel": 0}, {"type": "note_off", "time": 218, "note": 45, "velocity": 118, "channel": 0}, {"type": "note_on", "time": 165, "note": 51, "velocity": 113, "channel": 0}, {"type": "note_off", "time": 271, "note": 51, "velocity": 113, "channel": 0}, {"type": "note_on", "time": 149, "note": 55, "velocity": 113, "channel": 0}, {"type": "note_off", "time": 266, "note": 55, "velocity": 113, "channel": 0}, {"type": "note_on", "time": 180, "note": 59, "velocity": 102, "channel": 0}, {"type": "note_off", "time": 271, "note": 59, "velocity": 102, "channel": 0}, {"type": "note_on", "time": 191, "note": 63, "velocity": 117, "channel": 0}, {"type": "note_off", "time": 207, "note": 63, "velocity": 117, "channel": 0}, {"type": "note_on", "time": 170, "note": 67, "velocity": 115, "channel": 0}, {"type": "note_off", "time": 202, "note": 67, "velocity": 115, "channel": 0}, {"type": "note_on", "time": 175, "note": 71, "velocity": 106, "channel": 0}, {"type": "note_off", "time": 218, "note": 71, "velocity": 106, "channel": 0}, {"type": "note_on", "time": 149, "note": 75, "velocity": 118, "channel": 0}, {"type": "note_off", "time": 207, "note": 75, "velocity": 118, "channel": 0}, {"type": "note_on", "time": 42, "note": 75, "velocity": 126, "channel": 0}, {"type": "note_off", "time": 473, "note": 75, "velocity": 126, "channel": 0}, {"type": "end_of_track", "time": 0}]]}