{"ticks_per_beat": 840, "tracks": [[{"type": "track_name", "name": "Melody", "time": 0}, {"type": "set_tempo", "tempo": 472440, "time": 0}, {"type": "key_signature", "key": "F", "time": 0}, {"type": "time_signature", "numerator": 4, "denominator": 4, "clocks_per_click": 24, "notated_32nd_notes_per_beat": 8, "time": 0}, {"type": "note_on", "time": 7152, "note": 72, "velocity": 122, "channel": 0}, {"type": "note_off", "time": 815, "note": 72, "velocity": 122, "channel": 0}, {"type": "note_on", "time": 10, "note": 69, "velocity": 120, "channel": 0}, {"type": "note_off", "time": 577, "note": 69, "velocity": 120, "channel": 0}, {"type": "note_on", "time": 28, "note": 67, "velocity": 110, "channel": 0}, {"type": "note_off", "time": 918, "note": 67, "velocity": 110, "channel": 0}, {"type": "note_on", "time": 116, "note": 64, "velocity": 118, "channel": 0}, {"type": "note_off", "time": 547, "note": 64, "velocity": 118, "channel": 0}, {"type": "note_on", "time": 103, "note": 65, "velocity": 115, "channel": 0}, {"type": "note_off", "time": 309, "note": 65, "velocity": 115, "channel": 0}, {"type": "note_on", "time": 77, "note": 55, "velocity": 106, "channel": 0}, {"type": "note_off", "time": 510, "note": 55, "velocity": 106, "channel": 0}, {"type": "note_on", "time": 196, "note": 57, "velocity": 107, "channel": 0}, {"type": "note_off", "time": 660, "note": 57, "velocity": 107, "channel": 0}, {"type": "note_on", "time": 1816, "note": 72, "velocity": 120, "channel": 0}, {"type": "note_off", "time": 639, "note": 72, "velocity": 120, "channel": 0}, {"type": "note_on", "time": 0, "note": 69, "velocity": 119, "channel": 0}, {"type": "note_off", "time": 433, "note": 69, "velocity": 119, "channel": 0}, {"type": "note_on", "time": 247, "note": 67, "velocity": 116, "channel": 0}, {"type": "note_off", "time": 1579, "note": 67, "velocity": 116, "channel": 0}, {"type": "note_on", "time": 485, "note": 76, "velocity": 118, "channel": 0}, {"type": "note_off", "time": 794, "note": 76, "velocity": 118, "channel": 0}, {"type": "note_on", "time": 0, "note": 74, "velocity": 116, "channel": 0}, {"type": "note_off", "time": 619, "note": 74, "velocity": 116, "channel": 0}, {"type": "note_on", "time": 0, "note": 70, "velocity": 115, "channel": 0}, {"type": "note_off", "time": 1217, "note": 70, "velocity": 115, "channel": 0}, {"type": "note_on", "time": 805, "note": 69, "velocity": 120, "channel": 0}, {"type": "note_off", "time": 784, "note": 69, "velocity": 120, "channel": 0}, {"type": "note_on", "time": 0, "note": 67, "velocity": 116, "channel": 0}, {"type": "note_off", "time": 526, "note": 67, "velocity": 116, "channel": 0}, {"type": "note_on", "time": 10, "note": 60, "velocity": 115, "channel": 0}, {"type": "note_off", "time": 650, "note": 60, "velocity": 115, "channel": 0}, {"type": "note_on", "time": 1692, "note": 72, "velocity": 117, "channel": 0}, {"type": "note_off", "time": 134, "note": 72, "velocity": 117, "channel": 0}, {"type": "note_on", "time": 0, "note": 74, "velocity": 117, "channel": 0}, {"type": "note_off", "time": 319, "note": 74, "velocity": 117, "channel": 0}, {"type": "note_on", "time": 0, "note": 72, "velocity": 118, "channel": 0}, {"type": "note_off", "time": 454, "note": 72, "velocity": 118, "channel": 0}, {"type": "note_on", "time": 144, "note": 65, "velocity": 120, "channel": 0}, {"type": "note_off", "time": 443, "note": 65, "velocity": 120, "channel": 0}, {"type": "note_on", "time": 134, "note": 71, "velocity": 112, "channel": 0}, {"type": "note_off", "time": 113, "note": 71, "velocity": 112, "channel": 0}, {"type": "note_on", "time": 10, "note": 74, "velocity": 121, "channel": 0}, {"type": "note_off", "time": 412, "note": 74, "velocity": 121, "channel": 0}, {"type": "note_on", "time": 30, "note": 72, "velocity": 116, "channel": 0}, {"type": "note_off", "time": 381, "note": 72, "velocity": 116, "channel": 0}, {"type": "note_on", "time": 154, "note": 66, "velocity": 121, "channel": 0}, {"type": "note_off", "time": 443, "note": 66, "velocity": 121, "channel": 0}, {"type": "note_on", "time": 154, "note": 70, "velocity": 115, "channel": 0}, {"type": "note_off", "time": 51, "note": 70, "velocity": 115, "channel": 0}, {"type": "note_on", "time": 10, "note": 72, "velocity": 112, "channel": 0}, {"type": "note_off", "time": 72, "note": 72, "velocity": 112, "channel": 0}, {"type": "note_on", "time": 0, "note": 74, "velocity": 116, "channel": 0}, {"type": "note_off", "time": 433, "note": 74, "velocity": 116, "channel": 0}, {"type": "note_on", "time": 10, "note": 72, "velocity": 118, "channel": 0}, {"type": "note_off", "time": 402, "note": 72, "velocity": 118, "channel": 0}, {"type": "note_on", "time": 134, "note": 67, "velocity": 116, "channel": 0}, {"type": "note_off", "time": 433, "note": 67, "velocity": 116, "channel": 0}, {"type": "note_on", "time": 216, "note": 74, "velocity": 117, "channel": 0}, {"type": "note_off", "time": 485, "note": 74, "velocity": 117, "channel": 0}, {"type": "note_on", "time": 0, "note": 72, "velocity": 118, "channel": 0}, {"type": "note_off", "time": 381, "note": 72, "velocity": 118, "channel": 0}, {"type": "note_on", "time": 206, "note": 70, "velocity": 119, "channel": 0}, {"type": "note_off", "time": 330, "note": 70, "velocity": 119, "channel": 0}, {"type": "note_on", "time": 237, "note": 72, "velocity": 121, "channel": 0}, {"type": "note_off", "time": 536, "note": 72, "velocity": 121, "channel": 0}, {"type": "note_on", "time": 0, "note": 70, "velocity": 115, "channel": 0}, {"type": "note_off", "time": 412, "note": 70, "velocity": 115, "channel": 0}, {"type": "note_on", "time": 185, "note": 69, "velocity": 118, "channel": 0}, {"type": "note_off", "time": 350, "note": 69, "velocity": 118, "channel": 0}, {"type": "note_on", "time": 226, "note": 67, "velocity": 117, "channel": 0}, {"type": "note_off", "time": 516, "note": 67, "velocity": 117, "channel": 0}, {"type": "note_on", "time": 0, "note": 65, "velocity": 123, "channel": 0}, {"type": "note_off", "time": 536, "note": 65, "velocity": 123, "channel": 0}, {"type": "note_on", "time": 10, "note": 63, "velocity": 121, "channel": 0}, {"type": "note_off", "time": 1145, "note": 63, "velocity": 121, "channel": 0}, {"type": "note_on", "time": 0, "note": 61, "velocity": 115, "channel": 0}, {"type": "note_off", "time": 516, "note": 61, "velocity": 115, "channel": 0}, {"type": "note_on", "time": 20, "note": 64, "velocity": 105, "channel": 0}, {"type": "note_off", "time": 1300, "note": 64, "velocity": 105, "channel": 0}, {"type": "note_on", "time": 1857, "note": 72, "velocity": 120, "channel": 0}, {"type": "note_off", "time": 247, "note": 72, "velocity": 120, "channel": 0}, {"type": "note_on", "time": 0, "note": 70, "velocity": 113, "channel": 0}, {"type": "note_off", "time": 371, "note": 70, "velocity": 113, "channel": 0}, {"type": "note_on", "time": 20, "note": 69, "velocity": 118, "channel": 0}, {"type": "note_off", "time": 1114, "note": 69, "velocity": 118, "channel": 0}, {"type": "note_on", "time": 0, "note": 67, "velocity": 118, "channel": 0}, {"type": "note_off", "time": 247, "note": 67, "velocity": 118, "channel": 0}, {"type": "note_on", "time": 0, "note": 65, "velocity": 121, "channel": 0}, {"type": "note_off", "time": 299, "note": 65, "velocity": 121, "channel": 0}, {"type": "note_on", "time": 0, "note": 63, "velocity": 124, "channel": 0}, {"type": "note_off", "time": 825, "note": 63, "velocity": 124, "channel": 0}, {"type": "note_on", "time": 0, "note": 61, "velocity": 115, "channel": 0}, {"type": "note_off", "time": 536, "note": 61, "velocity": 115, "channel": 0}, {"type": "note_on", "time": 0, "note": 64, "velocity": 117, "channel": 0}, {"type": "note_off", "time": 1104, "note": 64, "velocity": 117, "channel": 0}, {"type": "note_on", "time": 10, "note": 61, "velocity": 107, "channel": 0}, {"type": "note_off", "time": 547, "note": 61, "velocity": 107, "channel": 0}, {"type": "note_on", "time": 10, "note": 57, "velocity": 101, "channel": 0}, {"type": "note_off", "time": 1310, "note": 57, "velocity": 101, "channel": 0}, {"type": "note_on", "time": 247, "note": 69, "velocity": 119, "channel": 0}, {"type": "note_off", "time": 598, "note": 69, "velocity": 119, "channel": 0}, {"type": "note_on", "time": 0, "note": 66, "velocity": 112, "channel": 0}, {"type": "note_off", "time": 402, "note": 66, "velocity": 112, "channel": 0}, {"type": "note_on", "time": 0, "note": 62, "velocity": 115, "channel": 0}, {"type": "note_off", "time": 691, "note": 62, "velocity": 115, "channel": 0}, {"type": "note_on", "time": 1125, "note": 76, "velocity": 121, "channel": 0}, {"type": "note_off", "time": 268, "note": 76, "velocity": 121, "channel": 0}, {"type": "note_on", "time": 10, "note": 73, "velocity": 118, "channel": 0}, {"type": "note_off", "time": 412, "note": 73, "velocity": 118, "channel": 0}, {"type": "note_on", "time": 16, "note": 69, "velocity": 107, "channel": 0}, {"type": "note_off", "time": 1434, "note": 69, "velocity": 107, "channel": 0}, {"type": "note_on", "time": 175, "note": 72, "velocity": 120, "channel": 0}, {"type": "note_off", "time": 247, "note": 72, "velocity": 120, "channel": 0}, {"type": "note_on", "time": 0, "note": 69, "velocity": 110, "channel": 0}, {"type": "note_off", "time": 294, "note": 69, "velocity": 110, "channel": 0}, {"type": "note_on", "time": 0, "note": 65, "velocity": 121, "channel": 0}, {"type": "note_off", "time": 608, "note": 65, "velocity": 121, "channel": 0}, {"type": "note_on", "time": 159, "note": 74, "velocity": 113, "channel": 0}, {"type": "note_off", "time": 247, "note": 74, "velocity": 113, "channel": 0}, {"type": "note_on", "time": 10, "note": 69, "velocity": 111, "channel": 0}, {"type": "note_off", "time": 278, "note": 69, "velocity": 111, "channel": 0}, {"type": "note_on", "time": 20, "note": 65, "velocity": 107, "channel": 0}, {"type": "note_off", "time": 794, "note": 65, "velocity": 107, "channel": 0}, {"type": "note_on", "time": 1156, "note": 70, "velocity": 114, "channel": 0}, {"type": "note_off", "time": 175, "note": 70, "velocity": 114, "channel": 0}, {"type": "note_on", "time": 10, "note": 72, "velocity": 121, "channel": 0}, {"type": "note_off", "time": 227, "note": 72, "velocity": 121, "channel": 0}, {"type": "note_on", "time": 0, "note": 69, "velocity": 110, "channel": 0}, {"type": "note_off", "time": 113, "note": 69, "velocity": 110, "channel": 0}, {"type": "note_on", "time": 0, "note": 67, "velocity": 114, "channel": 0}, {"type": "note_off", "time": 247, "note": 67, "velocity": 114, "channel": 0}, {"type": "note_on", "time": 0, "note": 66, "velocity": 114, "channel": 0}, {"type": "note_off", "time": 258, "note": 66, "velocity": 114, "channel": 0}, {"type": "note_on", "time": 10, "note": 63, "velocity": 125, "channel": 0}, {"type": "note_off", "time": 175, "note": 63, "velocity": 125, "channel": 0}, {"type": "note_on", "time": 0, "note": 62, "velocity": 115, "channel": 0}, {"type": "note_off", "time": 196, "note": 62, "velocity": 115, "channel": 0}, {"type": "note_on", "time": 66, "note": 60, "velocity": 115, "channel": 0}, {"type": "note_off", "time": 159, "note": 60, "velocity": 115, "channel": 0}, {"type": "note_on", "time": 62, "note": 58, "velocity": 111, "channel": 0}, {"type": "note_off", "time": 227, "note": 58, "velocity": 111, "channel": 0}, {"type": "note_on", "time": 29, "note": 56, "velocity": 93, "channel": 0}, {"type": "note_off", "time": 149, "note": 56, "velocity": 93, "channel": 0}, {"type": "note_on", "time": 68, "note": 57, "velocity": 107, "channel": 0}, {"type": "note_off", "time": 185, "note": 57, "velocity": 107, "channel": 0}, {"type": "note_on", "time": 45, "note": 56, "velocity": 115, "channel": 0}, {"type": "note_off", "time": 149, "note": 56, "velocity": 115, "channel": 0}, {"type": "note_on", "time": 82, "note": 55, "velocity": 112, "channel": 0}, {"type": "note_off", "time": 134, "note": 55, "velocity": 112, "channel": 0}, {"type": "note_on", "time": 22, "note": 58, "velocity": 115, "channel": 0}, {"type": "note_on", "time": 216, "note": 62, "velocity": 115, "channel": 0}, {"type": "note_off", "time": 0, "note": 58, "velocity": 115, "channel": 0}, {"type": "note_off", "time": 196, "note": 62, "velocity": 115, "channel": 0}, {"type": "note_on", "time": 30, "note": 65, "velocity": 116, "channel": 0}, {"type": "note_off", "time": 165, "note": 65, "velocity": 116, "channel": 0}, {"type": "note_on", "time": 0, "note": 69, "velocity": 118, "channel": 0}, {"type": "note_off", "time": 175, "note": 69, "velocity": 118, "channel": 0}, {"type": "note_on", "time": 30, "note": 67, "velocity": 114, "channel": 0}, {"type": "note_off", "time": 113, "note": 67, "velocity": 114, "channel": 0}, {"type": "note_on", "time": 0, "note": 65, "velocity": 120, "channel": 0}, {"type": "note_off", "time": 144, "note": 65, "velocity": 120, "channel": 0}, {"type": "note_on", "time": 10, "note": 62, "velocity": 113, "channel": 0}, {"type": "note_off", "time": 185, "note": 62, "velocity": 113, "channel": 0}, {"type": "note_on", "time": 20, "note": 65, "velocity": 124, "channel": 0}, {"type": "note_off", "time": 185, "note": 65, "velocity": 124, "channel": 0}, {"type": "note_on", "time": 0, "note": 64, "velocity": 119, "channel": 0}, {"type": "note_off", "time": 288, "note": 64, "velocity": 119, "channel": 0}, {"type": "note_on", "time": 180, "note": 73, "velocity": 116, "channel": 0}, {"type": "note_off", "time": 228, "note": 73, "velocity": 116, "channel": 0}, {"type": "note_on", "time": 36, "note": 72, "velocity": 115, "channel": 0}, {"type": "note_off", "time": 254, "note": 72, "velocity": 115, "channel": 0}, {"type": "note_on", "time": 105, "note": 61, "velocity": 116, "channel": 0}, {"type": "note_off", "time": 166, "note": 61, "velocity": 116, "channel": 0}, {"type": "note_on", "time": 54, "note": 70, "velocity": 107, "channel": 0}, {"type": "note_off", "time": 227, "note": 70, "velocity": 107, "channel": 0}, {"type": "note_on", "time": 47, "note": 69, "velocity": 98, "channel": 0}, {"type": "note_off", "time": 247, "note": 69, "velocity": 98, "channel": 0}, {"type": "note_on", "time": 61, "note": 58, "velocity": 109, "channel": 0}, {"type": "note_off", "time": 203, "note": 58, "velocity": 109, "channel": 0}, {"type": "note_on", "time": 29, "note": 61, "velocity": 117, "channel": 0}, {"type": "note_off", "time": 258, "note": 61, "velocity": 117, "channel": 0}, {"type": "note_on", "time": 25, "note": 65, "velocity": 107, "channel": 0}, {"type": "note_off", "time": 258, "note": 65, "velocity": 107, "channel": 0}, {"type": "note_on", "time": 237, "note": 61, "velocity": 120, "channel": 0}, {"type": "note_off", "time": 319, "note": 61, "velocity": 120, "channel": 0}, {"type": "note_on", "time": 0, "note": 60, "velocity": 109, "channel": 0}, {"type": "note_off", "time": 381, "note": 60, "velocity": 109, "channel": 0}, {"type": "note_on", "time": 1620, "note": 57, "velocity": 109, "channel": 0}, {"type": "note_off", "time": 175, "note": 57, "velocity": 109, "channel": 0}, {"type": "note_on", "time": 51, "note": 58, "velocity": 115, "channel": 0}, {"type": "note_off", "time": 206, "note": 58, "velocity": 115, "channel": 0}, {"type": "note_on", "time": 154, "note": 70, "velocity": 116, "channel": 0}, {"type": "note_off", "time": 1238, "note": 70, "velocity": 116, "channel": 0}, {"type": "note_on", "time": 0, "note": 69, "velocity": 120, "channel": 0}, {"type": "note_off", "time": 340, "note": 69, "velocity": 120, "channel": 0}, {"type": "note_on", "time": 185, "note": 63, "velocity": 115, "channel": 0}, {"type": "note_off", "time": 1114, "note": 63, "velocity": 115, "channel": 0}, {"type": "note_on", "time": 113, "note": 62, "velocity": 114, "channel": 0}, {"type": "note_off", "time": 423, "note": 62, "velocity": 114, "channel": 0}, {"type": "note_on", "time": 0, "note": 61, "velocity": 118, "channel": 0}, {"type": "note_off", "time": 423, "note": 61, "velocity": 118, "channel": 0}, {"type": "note_on", "time": 72, "note": 70, "velocity": 115, "channel": 0}, {"type": "note_off", "time": 288, "note": 70, "velocity": 115, "channel": 0}, {"type": "note_on", "time": 101, "note": 70, "velocity": 89, "channel": 0}, {"type": "note_off", "time": 87, "note": 70, "velocity": 89, "channel": 0}, {"type": "note_on", "time": 0, "note": 71, "velocity": 92, "channel": 0}, {"type": "note_off", "time": 123, "note": 71, "velocity": 92, "channel": 0}, {"type": "note_on", "time": 18, "note": 69, "velocity": 88, "channel": 0}, {"type": "note_off", "time": 71, "note": 69, "velocity": 88, "channel": 0}, {"type": "note_on", "time": 0, "note": 68, "velocity": 113, "channel": 0}, {"type": "note_on", "time": 196, "note": 67, "velocity": 116, "channel": 0}, {"type": "note_off", "time": 0, "note": 68, "velocity": 113, "channel": 0}, {"type": "note_off", "time": 288, "note": 67, "velocity": 116, "channel": 0}, {"type": "note_on", "time": 82, "note": 65, "velocity": 123, "channel": 0}, {"type": "note_off", "time": 361, "note": 65, "velocity": 123, "channel": 0}, {"type": "note_on", "time": 93, "note": 62, "velocity": 118, "channel": 0}, {"type": "note_off", "time": 278, "note": 62, "velocity": 118, "channel": 0}, {"type": "note_on", "time": 192, "note": 68, "velocity": 95, "channel": 0}, {"type": "note_off", "time": 82, "note": 68, "velocity": 95, "channel": 0}, {"type": "note_on", "time": 15, "note": 69, "velocity": 102, "channel": 0}, {"type": "note_off", "time": 51, "note": 69, "velocity": 102, "channel": 0}, {"type": "note_on", "time": 10, "note": 68, "velocity": 106, "channel": 0}, {"type": "note_off", "time": 61, "note": 68, "velocity": 106, "channel": 0}, {"type": "note_on", "time": 30, "note": 67, "velocity": 111, "channel": 0}, {"type": "note_off", "time": 51, "note": 67, "velocity": 111, "channel": 0}, {"type": "note_on", "time": 50, "note": 65, "velocity": 123, "channel": 0}, {"type": "note_off", "time": 247, "note": 65, "velocity": 123, "channel": 0}, {"type": "note_on", "time": 72, "note": 63, "velocity": 121, "channel": 0}, {"type": "note_off", "time": 361, "note": 63, "velocity": 121, "channel": 0}, {"type": "note_on", "time": 113, "note": 60, "velocity": 118, "channel": 0}, {"type": "note_off", "time": 330, "note": 60, "velocity": 118, "channel": 0}, {"type": "note_on", "time": 150, "note": 66, "velocity": 110, "channel": 0}, {"type": "note_off", "time": 268, "note": 66, "velocity": 110, "channel": 0}, {"type": "note_on", "time": 34, "note": 63, "velocity": 125, "channel": 0}, {"type": "note_off", "time": 340, "note": 63, "velocity": 125, "channel": 0}, {"type": "note_on", "time": 61, "note": 62, "velocity": 118, "channel": 0}, {"type": "note_off", "time": 381, "note": 62, "velocity": 118, "channel": 0}, {"type": "note_on", "time": 50, "note": 58, "velocity": 109, "channel": 0}, {"type": "note_off", "time": 261, "note": 58, "velocity": 109, "channel": 0}, {"type": "note_on", "time": 104, "note": 53, "velocity": 111, "channel": 0}, {"type": "note_off", "time": 361, "note": 53, "velocity": 111, "channel": 0}, {"type": "note_on", "time": 113, "note": 51, "velocity": 113, "channel": 0}, {"type": "note_off", "time": 325, "note": 51, "velocity": 113, "channel": 0}, {"type": "note_on", "time": 641, "note": 58, "velocity": 111, "channel": 0}, {"type": "note_off", "time": 402, "note": 58, "velocity": 111, "channel": 0}, {"type": "note_on", "time": 1207, "note": 57, "velocity": 111, "channel": 0}, {"type": "note_off", "time": 196, "note": 57, "velocity": 111, "channel": 0}, {"type": "note_on", "time": 0, "note": 59, "velocity": 107, "channel": 0}, {"type": "note_off", "time": 196, "note": 59, "velocity": 107, "channel": 0}, {"type": "note_on", "time": 7, "note": 61, "velocity": 105, "channel": 0}, {"type": "note_off", "time": 137, "note": 61, "velocity": 105, "channel": 0}, {"type": "note_on", "time": 50, "note": 64, "velocity": 112, "channel": 0}, {"type": "note_off", "time": 196, "note": 64, "velocity": 112, "channel": 0}, {"type": "note_on", "time": 41, "note": 69, "velocity": 116, "channel": 0}, {"type": "note_off", "time": 206, "note": 69, "velocity": 116, "channel": 0}, {"type": "note_on", "time": 10, "note": 67, "velocity": 113, "channel": 0}, {"type": "note_off", "time": 196, "note": 67, "velocity": 113, "channel": 0}, {"type": "note_on", "time": 0, "note": 65, "velocity": 122, "channel": 0}, {"type": "note_off", "time": 196, "note": 65, "velocity": 122, "channel": 0}, {"type": "note_on", "time": 20, "note": 61, "velocity": 101, "channel": 0}, {"type": "note_off", "time": 123, "note": 61, "velocity": 101, "channel": 0}, {"type": "note_on", "time": 61, "note": 64, "velocity": 112, "channel": 0}, {"type": "note_off", "time": 216, "note": 64, "velocity": 112, "channel": 0}, {"type": "note_on", "time": 10, "note": 63, "velocity": 116, "channel": 0}, {"type": "note_off", "time": 175, "note": 63, "velocity": 116, "channel": 0}, {"type": "note_on", "time": 7, "note": 62, "velocity": 118, "channel": 0}, {"type": "note_off", "time": 127, "note": 62, "velocity": 118, "channel": 0}, {"type": "note_on", "time": 61, "note": 57, "velocity": 111, "channel": 0}, {"type": "note_off", "time": 156, "note": 57, "velocity": 111, "channel": 0}, {"type": "note_on", "time": 87, "note": 53, "velocity": 118, "channel": 0}, {"type": "note_off", "time": 145, "note": 53, "velocity": 118, "channel": 0}, {"type": "note_on", "time": 43, "note": 51, "velocity": 111, "channel": 0}, {"type": "note_off", "time": 76, "note": 51, "velocity": 111, "channel": 0}, {"type": "note_on", "time": 142, "note": 59, "velocity": 111, "channel": 0}, {"type": "note_off", "time": 392, "note": 59, "velocity": 111, "channel": 0}, {"type": "note_on", "time": 72, "note": 62, "velocity": 119, "channel": 0}, {"type": "note_off", "time": 216, "note": 62, "velocity": 119, "channel": 0}, {"type": "note_on", "time": 206, "note": 65, "velocity": 124, "channel": 0}, {"type": "note_off", "time": 299, "note": 65, "velocity": 124, "channel": 0}, {"type": "note_on", "time": 82, "note": 67, "velocity": 122, "channel": 0}, {"type": "note_off", "time": 216, "note": 67, "velocity": 122, "channel": 0}, {"type": "note_on", "time": 160, "note": 76, "velocity": 118, "channel": 0}, {"type": "note_off", "time": 344, "note": 76, "velocity": 118, "channel": 0}, {"type": "note_on", "time": 39, "note": 73, "velocity": 102, "channel": 0}, {"type": "note_off", "time": 348, "note": 73, "velocity": 102, "channel": 0}, {"type": "note_on", "time": 149, "note": 69, "velocity": 120, "channel": 0}, {"type": "note_off", "time": 350, "note": 69, "velocity": 120, "channel": 0}, {"type": "note_on", "time": 72, "note": 65, "velocity": 107, "channel": 0}, {"type": "note_off", "time": 340, "note": 65, "velocity": 107, "channel": 0}, {"type": "note_on", "time": 92, "note": 67, "velocity": 119, "channel": 0}, {"type": "note_off", "time": 340, "note": 67, "velocity": 119, "channel": 0}, {"type": "note_on", "time": 82, "note": 62, "velocity": 115, "channel": 0}, {"type": "note_off", "time": 196, "note": 62, "velocity": 115, "channel": 0}, {"type": "note_on", "time": 1826, "note": 69, "velocity": 113, "channel": 0}, {"type": "note_off", "time": 237, "note": 69, "velocity": 113, "channel": 0}, {"type": "note_on", "time": 41, "note": 72, "velocity": 114, "channel": 0}, {"type": "note_off", "time": 206, "note": 72, "velocity": 114, "channel": 0}, {"type": "note_on", "time": 54, "note": 70, "velocity": 115, "channel": 0}, {"type": "note_off", "time": 268, "note": 70, "velocity": 115, "channel": 0}, {"type": "note_on", "time": 61, "note": 69, "velocity": 114, "channel": 0}, {"type": "note_off", "time": 312, "note": 69, "velocity": 114, "channel": 0}, {"type": "note_on", "time": 148, "note": 69, "velocity": 101, "channel": 0}, {"type": "note_off", "time": 381, "note": 69, "velocity": 101, "channel": 0}, {"type": "note_on", "time": 2324, "note": 69, "velocity": 116, "channel": 0}, {"type": "note_off", "time": 340, "note": 69, "velocity": 116, "channel": 0}, {"type": "note_on", "time": 89, "note": 74, "velocity": 111, "channel": 0}, {"type": "note_off", "time": 261, "note": 74, "velocity": 111, "channel": 0}, {"type": "note_on", "time": 257, "note": 68, "velocity": 118, "channel": 0}, {"type": "note_off", "time": 301, "note": 68, "velocity": 118, "channel": 0}, {"type": "note_on", "time": 54, "note": 67, "velocity": 106, "channel": 0}, {"type": "note_off", "time": 315, "note": 67, "velocity": 106, "channel": 0}, {"type": "note_on", "time": 76, "note": 62, "velocity": 106, "channel": 0}, {"type": "note_off", "time": 159, "note": 62, "velocity": 106, "channel": 0}, {"type": "note_on", "time": 115, "note": 65, "velocity": 115, "channel": 0}, {"type": "note_off", "time": 485, "note": 65, "velocity": 115, "channel": 0}, {"type": "note_on", "time": 0, "note": 65, "velocity": 110, "channel": 0}, {"type": "note_off", "time": 247, "note": 65, "velocity": 110, "channel": 0}, {"type": "note_on", "time": 0, "note": 65, "velocity": 110, "channel": 0}, {"type": "note_off", "time": 41, "note": 65, "velocity": 110, "channel": 0}, {"type": "note_on", "time": 41, "note": 62, "velocity": 119, "channel": 0}, {"type": "note_off", "time": 423, "note": 62, "velocity": 119, "channel": 0}, {"type": "note_on", "time": 1296, "note": 68, "velocity": 119, "channel": 0}, {"type": "note_off", "time": 227, "note": 68, "velocity": 119, "channel": 0}, {"type": "note_on", "time": 6, "note": 69, "velocity": 107, "channel": 0}, {"type": "note_off", "time": 119, "note": 69, "velocity": 107, "channel": 0}, {"type": "note_on", "time": 14, "note": 70, "velocity": 124, "channel": 0}, {"type": "note_off", "time": 181, "note": 70, "velocity": 124, "channel": 0}, {"type": "note_on", "time": 58, "note": 68, "velocity": 104, "channel": 0}, {"type": "note_off", "time": 174, "note": 68, "velocity": 104, "channel": 0}, {"type": "note_on", "time": 58, "note": 69, "velocity": 116, "channel": 0}, {"type": "note_off", "time": 134, "note": 69, "velocity": 116, "channel": 0}, {"type": "note_on", "time": 119, "note": 68, "velocity": 119, "channel": 0}, {"type": "note_off", "time": 203, "note": 68, "velocity": 119, "channel": 0}, {"type": "note_on", "time": 21, "note": 67, "velocity": 116, "channel": 0}, {"type": "note_off", "time": 148, "note": 67, "velocity": 116, "channel": 0}, {"type": "note_on", "time": 86, "note": 65, "velocity": 124, "channel": 0}, {"type": "note_off", "time": 113, "note": 65, "velocity": 124, "channel": 0}, {"type": "note_on", "time": 57, "note": 64, "velocity": 111, "channel": 0}, {"type": "note_off", "time": 185, "note": 64, "velocity": 111, "channel": 0}, {"type": "note_on", "time": 51, "note": 62, "velocity": 118, "channel": 0}, {"type": "note_off", "time": 185, "note": 62, "velocity": 118, "channel": 0}, {"type": "note_on", "time": 32, "note": 61, "velocity": 115, "channel": 0}, {"type": "note_off", "time": 123, "note": 61, "velocity": 115, "channel": 0}, {"type": "note_on", "time": 94, "note": 59, "velocity": 111, "channel": 0}, {"type": "note_off", "time": 79, "note": 59, "velocity": 111, "channel": 0}, {"type": "note_on", "time": 41, "note": 62, "velocity": 117, "channel": 0}, {"type": "note_off", "time": 206, "note": 62, "velocity": 117, "channel": 0}, {"type": "note_on", "time": 17, "note": 65, "velocity": 123, "channel": 0}, {"type": "note_off", "time": 141, "note": 65, "velocity": 123, "channel": 0}, {"type": "note_on", "time": 46, "note": 64, "velocity": 114, "channel": 0}, {"type": "note_off", "time": 139, "note": 64, "velocity": 114, "channel": 0}, {"type": "note_on", "time": 56, "note": 62, "velocity": 105, "channel": 0}, {"type": "note_off", "time": 185, "note": 62, "velocity": 105, "channel": 0}, {"type": "note_on", "time": 7, "note": 67, "velocity": 115, "channel": 0}, {"type": "note_off", "time": 185, "note": 67, "velocity": 115, "channel": 0}, {"type": "note_on", "time": 85, "note": 64, "velocity": 109, "channel": 0}, {"type": "note_off", "time": 175, "note": 64, "velocity": 109, "channel": 0}, {"type": "note_on", "time": 17, "note": 65, "velocity": 126, "channel": 0}, {"type": "note_off", "time": 87, "note": 65, "velocity": 126, "channel": 0}, {"type": "note_on", "time": 12, "note": 66, "velocity": 112, "channel": 0}, {"type": "note_off", "time": 97, "note": 66, "velocity": 112, "channel": 0}, {"type": "note_on", "time": 1, "note": 65, "velocity": 125, "channel": 0}, {"type": "note_off", "time": 94, "note": 65, "velocity": 125, "channel": 0}, {"type": "note_on", "time": 108, "note": 64, "velocity": 114, "channel": 0}, {"type": "note_off", "time": 123, "note": 64, "velocity": 114, "channel": 0}, {"type": "note_on", "time": 75, "note": 62, "velocity": 117, "channel": 0}, {"type": "note_on", "time": 154, "note": 61, "velocity": 112, "channel": 0}, {"type": "note_off", "time": 0, "note": 62, "velocity": 117, "channel": 0}, {"type": "note_off", "time": 206, "note": 61, "velocity": 112, "channel": 0}, {"type": "note_on", "time": 20, "note": 64, "velocity": 116, "channel": 0}, {"type": "note_off", "time": 175, "note": 64, "velocity": 116, "channel": 0}, {"type": "note_on", "time": 0, "note": 62, "velocity": 114, "channel": 0}, {"type": "note_off", "time": 196, "note": 62, "velocity": 114, "channel": 0}, {"type": "note_on", "time": 62, "note": 65, "velocity": 121, "channel": 0}, {"type": "note_off", "time": 154, "note": 65, "velocity": 121, "channel": 0}, {"type": "note_on", "time": 0, "note": 64, "velocity": 114, "channel": 0}, {"type": "note_off", "time": 247, "note": 64, "velocity": 114, "channel": 0}, {"type": "note_on", "time": 175, "note": 67, "velocity": 118, "channel": 0}, {"type": "note_off", "time": 196, "note": 67, "velocity": 118, "channel": 0}, {"type": "note_on", "time": 41, "note": 69, "velocity": 113, "channel": 0}, {"type": "note_off", "time": 196, "note": 69, "velocity": 113, "channel": 0}, {"type": "note_on", "time": 0, "note": 70, "velocity": 114, "channel": 0}, {"type": "note_off", "time": 185, "note": 70, "velocity": 114, "channel": 0}, {"type": "note_on", "time": 0, "note": 72, "velocity": 116, "channel": 0}, {"type": "note_off", "time": 227, "note": 72, "velocity": 116, "channel": 0}, {"type": "note_on", "time": 0, "note": 69, "velocity": 108, "channel": 0}, {"type": "note_off", "time": 196, "note": 69, "velocity": 108, "channel": 0}, {"type": "note_on", "time": 20, "note": 65, "velocity": 120, "channel": 0}, {"type": "note_off", "time": 185, "note": 65, "velocity": 120, "channel": 0}, {"type": "note_on", "time": 23, "note": 62, "velocity": 114, "channel": 0}, {"type": "note_off", "time": 152, "note": 62, "velocity": 114, "channel": 0}, {"type": "note_on", "time": 36, "note": 58, "velocity": 103, "channel": 0}, {"type": "note_off", "time": 123, "note": 58, "velocity": 103, "channel": 0}, {"type": "note_on", "time": 108, "note": 64, "velocity": 115, "channel": 0}, {"type": "note_off", "time": 402, "note": 64, "velocity": 115, "channel": 0}, {"type": "note_on", "time": 61, "note": 65, "velocity": 122, "channel": 0}, {"type": "note_off", "time": 361, "note": 65, "velocity": 122, "channel": 0}, {"type": "note_on", "time": 41, "note": 66, "velocity": 112, "channel": 0}, {"type": "note_off", "time": 330, "note": 66, "velocity": 112, "channel": 0}, {"type": "note_on", "time": 61, "note": 67, "velocity": 117, "channel": 0}, {"type": "note_off", "time": 309, "note": 67, "velocity": 117, "channel": 0}, {"type": "note_on", "time": 134, "note": 62, "velocity": 114, "channel": 0}, {"type": "note_off", "time": 350, "note": 62, "velocity": 114, "channel": 0}, {"type": "note_on", "time": 82, "note": 63, "velocity": 123, "channel": 0}, {"type": "note_off", "time": 299, "note": 63, "velocity": 123, "channel": 0}, {"type": "note_on", "time": 383, "note": 56, "velocity": 106, "channel": 0}, {"type": "note_off", "time": 156, "note": 56, "velocity": 106, "channel": 0}, {"type": "note_on", "time": 43, "note": 57, "velocity": 109, "channel": 0}, {"type": "note_off", "time": 134, "note": 57, "velocity": 109, "channel": 0}, {"type": "note_on", "time": 180, "note": 68, "velocity": 119, "channel": 0}, {"type": "note_off", "time": 268, "note": 68, "velocity": 119, "channel": 0}, {"type": "note_on", "time": 10, "note": 66, "velocity": 101, "channel": 0}, {"type": "note_off", "time": 175, "note": 66, "velocity": 101, "channel": 0}, {"type": "note_on", "time": 0, "note": 61, "velocity": 107, "channel": 0}, {"type": "note_off", "time": 237, "note": 61, "velocity": 107, "channel": 0}, {"type": "note_on", "time": 30, "note": 69, "velocity": 112, "channel": 0}, {"type": "note_off", "time": 196, "note": 69, "velocity": 112, "channel": 0}, {"type": "note_on", "time": 0, "note": 68, "velocity": 115, "channel": 0}, {"type": "note_off", "time": 216, "note": 68, "velocity": 115, "channel": 0}, {"type": "note_on", "time": 82, "note": 66, "velocity": 119, "channel": 0}, {"type": "note_off", "time": 134, "note": 66, "velocity": 119, "channel": 0}, {"type": "note_on", "time": 0, "note": 65, "velocity": 123, "channel": 0}, {"type": "note_off", "time": 216, "note": 65, "velocity": 123, "channel": 0}, {"type": "note_on", "time": 20, "note": 63, "velocity": 67, "channel": 0}, {"type": "note_off", "time": 196, "note": 63, "velocity": 67, "channel": 0}, {"type": "note_on", "time": 0, "note": 62, "velocity": 114, "channel": 0}, {"type": "note_off", "time": 423, "note": 62, "velocity": 114, "channel": 0}, {"type": "note_on", "time": 4097, "note": 72, "velocity": 121, "channel": 0}, {"type": "note_off", "time": 165, "note": 72, "velocity": 121, "channel": 0}, {"type": "note_on", "time": 0, "note": 70, "velocity": 111, "channel": 0}, {"type": "note_off", "time": 293, "note": 70, "velocity": 111, "channel": 0}, {"type": "note_on", "time": 0, "note": 75, "velocity": 119, "channel": 0}, {"type": "note_off", "time": 166, "note": 75, "velocity": 119, "channel": 0}, {"type": "note_on", "time": 76, "note": 73, "velocity": 114, "channel": 0}, {"type": "note_off", "time": 165, "note": 73, "velocity": 114, "channel": 0}, {"type": "note_on", "time": 41, "note": 69, "velocity": 111, "channel": 0}, {"type": "note_off", "time": 206, "note": 69, "velocity": 111, "channel": 0}, {"type": "note_on", "time": 69, "note": 64, "velocity": 108, "channel": 0}, {"type": "note_off", "time": 168, "note": 64, "velocity": 108, "channel": 0}, {"type": "note_on", "time": 0, "note": 63, "velocity": 111, "channel": 0}, {"type": "note_on", "time": 216, "note": 61, "velocity": 113, "channel": 0}, {"type": "note_off", "time": 0, "note": 63, "velocity": 111, "channel": 0}, {"type": "note_off", "time": 196, "note": 61, "velocity": 113, "channel": 0}, {"type": "note_on", "time": 25, "note": 60, "velocity": 117, "channel": 0}, {"type": "note_off", "time": 127, "note": 60, "velocity": 117, "channel": 0}, {"type": "note_on", "time": 43, "note": 58, "velocity": 105, "channel": 0}, {"type": "note_off", "time": 163, "note": 58, "velocity": 105, "channel": 0}, {"type": "note_on", "time": 63, "note": 57, "velocity": 105, "channel": 0}, {"type": "note_off", "time": 485, "note": 57, "velocity": 105, "channel": 0}, {"type": "note_on", "time": 5150, "note": 65, "velocity": 126, "channel": 0}, {"type": "note_off", "time": 247, "note": 65, "velocity": 126, "channel": 0}, {"type": "note_on", "time": 62, "note": 67, "velocity": 121, "channel": 0}, {"type": "note_off", "time": 175, "note": 67, "velocity": 121, "channel": 0}, {"type": "note_on", "time": 0, "note": 69, "velocity": 102, "channel": 0}, {"type": "note_off", "time": 206, "note": 69, "velocity": 102, "channel": 0}, {"type": "note_on", "time": 31, "note": 73, "velocity": 102, "channel": 0}, {"type": "note_off", "time": 108, "note": 73, "velocity": 102, "channel": 0}, {"type": "note_on", "time": 0, "note": 74, "velocity": 112, "channel": 0}, {"type": "note_off", "time": 312, "note": 74, "velocity": 112, "channel": 0}, {"type": "note_on", "time": 94, "note": 72, "velocity": 111, "channel": 0}, {"type": "note_off", "time": 619, "note": 72, "velocity": 111, "channel": 0}, {"type": "note_on", "time": 146, "note": 77, "velocity": 116, "channel": 0}, {"type": "note_off", "time": 486, "note": 77, "velocity": 116, "channel": 0}, {"type": "note_on", "time": 440, "note": 74, "velocity": 116, "channel": 0}, {"type": "note_off", "time": 402, "note": 74, "velocity": 116, "channel": 0}, {"type": "note_on", "time": 123, "note": 70, "velocity": 110, "channel": 0}, {"type": "note_off", "time": 330, "note": 70, "velocity": 110, "channel": 0}, {"type": "note_on", "time": 164, "note": 69, "velocity": 99, "channel": 0}, {"type": "note_off", "time": 152, "note": 69, "velocity": 99, "channel": 0}, {"type": "note_on", "time": 25, "note": 70, "velocity": 94, "channel": 0}, {"type": "note_off", "time": 87, "note": 70, "velocity": 94, "channel": 0}, {"type": "note_on", "time": 18, "note": 69, "velocity": 101, "channel": 0}, {"type": "note_off", "time": 149, "note": 69, "velocity": 101, "channel": 0}, {"type": "note_on", "time": 31, "note": 67, "velocity": 117, "channel": 0}, {"type": "note_off", "time": 206, "note": 67, "velocity": 117, "channel": 0}, {"type": "note_on", "time": 93, "note": 72, "velocity": 119, "channel": 0}, {"type": "note_off", "time": 330, "note": 72, "velocity": 119, "channel": 0}, {"type": "note_on", "time": 154, "note": 69, "velocity": 117, "channel": 0}, {"type": "note_off", "time": 309, "note": 69, "velocity": 117, "channel": 0}, {"type": "note_on", "time": 123, "note": 67, "velocity": 116, "channel": 0}, {"type": "note_off", "time": 371, "note": 67, "velocity": 116, "channel": 0}, {"type": "note_on", "time": 61, "note": 65, "velocity": 118, "channel": 0}, {"type": "note_off", "time": 340, "note": 65, "velocity": 118, "channel": 0}, {"type": "note_on", "time": 82, "note": 64, "velocity": 113, "channel": 0}, {"type": "note_off", "time": 350, "note": 64, "velocity": 113, "channel": 0}, {"type": "note_on", "time": 51, "note": 62, "velocity": 112, "channel": 0}, {"type": "note_off", "time": 216, "note": 62, "velocity": 112, "channel": 0}, {"type": "note_on", "time": 92, "note": 59, "velocity": 95, "channel": 0}, {"type": "note_off", "time": 366, "note": 59, "velocity": 95, "channel": 0}, {"type": "note_on", "time": 18, "note": 61, "velocity": 98, "channel": 0}, {"type": "note_off", "time": 193, "note": 61, "velocity": 98, "channel": 0}, {"type": "note_on", "time": 31, "note": 62, "velocity": 109, "channel": 0}, {"type": "note_off", "time": 340, "note": 62, "velocity": 109, "channel": 0}, {"type": "note_on", "time": 92, "note": 61, "velocity": 109, "channel": 0}, {"type": "note_off", "time": 381, "note": 61, "velocity": 109, "channel": 0}, {"type": "note_on", "time": 17, "note": 64, "velocity": 103, "channel": 0}, {"type": "note_off", "time": 144, "note": 64, "velocity": 103, "channel": 0}, {"type": "note_on", "time": 188, "note": 67, "velocity": 121, "channel": 0}, {"type": "note_off", "time": 443, "note": 67, "velocity": 121, "channel": 0}, {"type": "note_on", "time": 51, "note": 69, "velocity": 109, "channel": 0}, {"type": "note_off", "time": 288, "note": 69, "velocity": 109, "channel": 0}, {"type": "note_on", "time": 175, "note": 70, "velocity": 105, "channel": 0}, {"type": "note_off", "time": 526, "note": 70, "velocity": 105, "channel": 0}, {"type": "note_on", "time": 134, "note": 69, "velocity": 112, "channel": 0}, {"type": "note_off", "time": 495, "note": 69, "velocity": 112, "channel": 0}, {"type": "note_on", "time": 123, "note": 65, "velocity": 115, "channel": 0}, {"type": "note_off", "time": 526, "note": 65, "velocity": 115, "channel": 0}, {"type": "note_on", "time": 2146, "note": 67, "velocity": 117, "channel": 0}, {"type": "note_on", "time": 227, "note": 65, "velocity": 124, "channel": 0}, {"type": "note_off", "time": 0, "note": 67, "velocity": 117, "channel": 0}, {"type": "note_off", "time": 185, "note": 65, "velocity": 124, "channel": 0}, {"type": "note_on", "time": 0, "note": 64, "velocity": 108, "channel": 0}, {"type": "note_off", "time": 227, "note": 64, "velocity": 108, "channel": 0}, {"type": "note_on", "time": 53, "note": 62, "velocity": 115, "channel": 0}, {"type": "note_off", "time": 175, "note": 62, "velocity": 115, "channel": 0}, {"type": "note_on", "time": 59, "note": 61, "velocity": 116, "channel": 0}, {"type": "note_on", "time": 392, "note": 61, "velocity": 114, "channel": 0}, {"type": "note_off", "time": 0, "note": 61, "velocity": 116, "channel": 0}, {"type": "note_off", "time": 61, "note": 61, "velocity": 114, "channel": 0}, {"type": "note_on", "time": 0, "note": 64, "velocity": 111, "channel": 0}, {"type": "note_off", "time": 299, "note": 64, "velocity": 111, "channel": 0}, {"type": "note_on", "time": 92, "note": 67, "velocity": 115, "channel": 0}, {"type": "note_off", "time": 423, "note": 67, "velocity": 115, "channel": 0}, {"type": "note_on", "time": 0, "note": 69, "velocity": 115, "channel": 0}, {"type": "note_off", "time": 319, "note": 69, "velocity": 115, "channel": 0}, {"type": "note_on", "time": 110, "note": 70, "velocity": 111, "channel": 0}, {"type": "note_off", "time": 381, "note": 70, "velocity": 111, "channel": 0}, {"type": "note_on", "time": 64, "note": 69, "velocity": 111, "channel": 0}, {"type": "note_off", "time": 309, "note": 69, "velocity": 111, "channel": 0}, {"type": "note_on", "time": 92, "note": 68, "velocity": 111, "channel": 0}, {"type": "note_off", "time": 350, "note": 68, "velocity": 111, "channel": 0}, {"type": "note_on", "time": 72, "note": 69, "velocity": 108, "channel": 0}, {"type": "note_off", "time": 288, "note": 69, "velocity": 108, "channel": 0}, {"type": "note_on", "time": 89, "note": 76, "velocity": 112, "channel": 0}, {"type": "note_off", "time": 211, "note": 76, "velocity": 112, "channel": 0}, {"type": "note_on", "time": 77, "note": 77, "velocity": 107, "channel": 0}, {"type": "note_off", "time": 319, "note": 77, "velocity": 107, "channel": 0}, {"type": "note_on", "time": 221, "note": 73, "velocity": 112, "channel": 0}, {"type": "note_off", "time": 361, "note": 73, "velocity": 112, "channel": 0}, {"type": "note_on", "time": 150, "note": 76, "velocity": 112, "channel": 0}, {"type": "note_off", "time": 286, "note": 76, "velocity": 112, "channel": 0}, {"type": "note_on", "time": 235, "note": 75, "velocity": 103, "channel": 0}, {"type": "note_off", "time": 299, "note": 75, "velocity": 103, "channel": 0}, {"type": "note_on", "time": 80, "note": 69, "velocity": 108, "channel": 0}, {"type": "note_off", "time": 319, "note": 69, "velocity": 108, "channel": 0}, {"type": "note_on", "time": 86, "note": 67, "velocity": 114, "channel": 0}, {"type": "note_off", "time": 350, "note": 67, "velocity": 114, "channel": 0}, {"type": "note_on", "time": 10, "note": 65, "velocity": 122, "channel": 0}, {"type": "note_off", "time": 350, "note": 65, "velocity": 122, "channel": 0}, {"type": "note_on", "time": 57, "note": 69, "velocity": 109, "channel": 0}, {"type": "note_off", "time": 505, "note": 69, "velocity": 109, "channel": 0}, {"type": "note_on", "time": 227, "note": 62, "velocity": 111, "channel": 0}, {"type": "note_off", "time": 526, "note": 62, "velocity": 111, "channel": 0}, {"type": "note_on", "time": 0, "note": 67, "velocity": 119, "channel": 0}, {"type": "note_off", "time": 402, "note": 67, "velocity": 119, "channel": 0}, {"type": "note_on", "time": 1841, "note": 74, "velocity": 112, "channel": 0}, {"type": "note_off", "time": 206, "note": 74, "velocity": 112, "channel": 0}, {"type": "note_on", "time": 31, "note": 72, "velocity": 113, "channel": 0}, {"type": "note_off", "time": 288, "note": 72, "velocity": 113, "channel": 0}, {"type": "note_on", "time": 10, "note": 70, "velocity": 110, "channel": 0}, {"type": "note_off", "time": 165, "note": 70, "velocity": 110, "channel": 0}, {"type": "note_on", "time": 0, "note": 69, "velocity": 115, "channel": 0}, {"type": "note_off", "time": 144, "note": 69, "velocity": 115, "channel": 0}, {"type": "note_on", "time": 0, "note": 67, "velocity": 113, "channel": 0}, {"type": "note_off", "time": 237, "note": 67, "velocity": 113, "channel": 0}, {"type": "note_on", "time": 0, "note": 65, "velocity": 116, "channel": 0}, {"type": "note_off", "time": 134, "note": 65, "velocity": 116, "channel": 0}, {"type": "note_on", "time": 41, "note": 64, "velocity": 112, "channel": 0}, {"type": "note_off", "time": 164, "note": 64, "velocity": 112, "channel": 0}, {"type": "note_on", "time": 0, "note": 63, "velocity": 114, "channel": 0}, {"type": "note_off", "time": 165, "note": 63, "velocity": 114, "channel": 0}, {"type": "note_on", "time": 51, "note": 67, "velocity": 112, "channel": 0}, {"type": "note_off", "time": 196, "note": 67, "velocity": 112, "channel": 0}, {"type": "note_on", "time": 33, "note": 62, "velocity": 116, "channel": 0}, {"type": "note_off", "time": 174, "note": 62, "velocity": 116, "channel": 0}, {"type": "note_on", "time": 14, "note": 60, "velocity": 119, "channel": 0}, {"type": "note_off", "time": 210, "note": 60, "velocity": 119, "channel": 0}, {"type": "note_on", "time": 0, "note": 65, "velocity": 121, "channel": 0}, {"type": "note_off", "time": 165, "note": 65, "velocity": 121, "channel": 0}, {"type": "note_on", "time": 23, "note": 62, "velocity": 108, "channel": 0}, {"type": "note_off", "time": 181, "note": 62, "velocity": 108, "channel": 0}, {"type": "note_on", "time": 10, "note": 57, "velocity": 112, "channel": 0}, {"type": "note_off", "time": 156, "note": 57, "velocity": 112, "channel": 0}, {"type": "note_on", "time": 29, "note": 55, "velocity": 110, "channel": 0}, {"type": "note_off", "time": 154, "note": 55, "velocity": 110, "channel": 0}, {"type": "note_on", "time": 94, "note": 58, "velocity": 113, "channel": 0}, {"type": "note_off", "time": 196, "note": 58, "velocity": 113, "channel": 0}, {"type": "note_on", "time": 36, "note": 60, "velocity": 117, "channel": 0}, {"type": "note_off", "time": 123, "note": 60, "velocity": 117, "channel": 0}, {"type": "note_on", "time": 35, "note": 62, "velocity": 115, "channel": 0}, {"type": "note_off", "time": 206, "note": 62, "velocity": 115, "channel": 0}, {"type": "note_on", "time": 0, "note": 65, "velocity": 116, "channel": 0}, {"type": "note_off", "time": 196, "note": 65, "velocity": 116, "channel": 0}, {"type": "note_on", "time": 62, "note": 72, "velocity": 103, "channel": 0}, {"type": "note_off", "time": 443, "note": 72, "velocity": 103, "channel": 0}, {"type": "note_on", "time": 0, "note": 69, "velocity": 103, "channel": 0}, {"type": "note_off", "time": 175, "note": 69, "velocity": 103, "channel": 0}, {"type": "note_on", "time": 41, "note": 67, "velocity": 113, "channel": 0}, {"type": "note_off", "time": 154, "note": 67, "velocity": 113, "channel": 0}, {"type": "note_on", "time": 41, "note": 64, "velocity": 114, "channel": 0}, {"type": "note_off", "time": 185, "note": 64, "velocity": 114, "channel": 0}, {"type": "note_on", "time": 20, "note": 67, "velocity": 115, "channel": 0}, {"type": "note_off", "time": 227, "note": 67, "velocity": 115, "channel": 0}, {"type": "note_on", "time": 0, "note": 66, "velocity": 111, "channel": 0}, {"type": "note_off", "time": 165, "note": 66, "velocity": 111, "channel": 0}, {"type": "note_on", "time": 20, "note": 70, "velocity": 111, "channel": 0}, {"type": "note_off", "time": 216, "note": 70, "velocity": 111, "channel": 0}, {"type": "note_on", "time": 0, "note": 65, "velocity": 117, "channel": 0}, {"type": "note_off", "time": 123, "note": 65, "velocity": 117, "channel": 0}, {"type": "note_on", "time": 20, "note": 63, "velocity": 117, "channel": 0}, {"type": "note_off", "time": 196, "note": 63, "velocity": 117, "channel": 0}, {"type": "note_on", "time": 42, "note": 58, "velocity": 111, "channel": 0}, {"type": "note_off", "time": 165, "note": 58, "velocity": 111, "channel": 0}, {"type": "note_on", "time": 19, "note": 60, "velocity": 115, "channel": 0}, {"type": "note_off", "time": 154, "note": 60, "velocity": 115, "channel": 0}, {"type": "note_on", "time": 0, "note": 62, "velocity": 113, "channel": 0}, {"type": "note_off", "time": 216, "note": 62, "velocity": 113, "channel": 0}, {"type": "note_on", "time": 29, "note": 58, "velocity": 109, "channel": 0}, {"type": "note_off", "time": 146, "note": 58, "velocity": 109, "channel": 0}, {"type": "note_on", "time": 43, "note": 57, "velocity": 111, "channel": 0}, {"type": "note_off", "time": 123, "note": 57, "velocity": 111, "channel": 0}, {"type": "note_on", "time": 34, "note": 55, "velocity": 106, "channel": 0}, {"type": "note_off", "time": 123, "note": 55, "velocity": 106, "channel": 0}, {"type": "note_on", "time": 148, "note": 60, "velocity": 113, "channel": 0}, {"type": "note_off", "time": 175, "note": 60, "velocity": 113, "channel": 0}, {"type": "note_on", "time": 4, "note": 59, "velocity": 110, "channel": 0}, {"type": "note_off", "time": 117, "note": 59, "velocity": 110, "channel": 0}, {"type": "note_on", "time": 48, "note": 58, "velocity": 106, "channel": 0}, {"type": "note_off", "time": 257, "note": 58, "velocity": 106, "channel": 0}, {"type": "note_on", "time": 14, "note": 57, "velocity": 108, "channel": 0}, {"type": "note_off", "time": 196, "note": 57, "velocity": 108, "channel": 0}, {"type": "note_on", "time": 12, "note": 55, "velocity": 113, "channel": 0}, {"type": "note_off", "time": 172, "note": 55, "velocity": 113, "channel": 0}, {"type": "note_on", "time": 32, "note": 57, "velocity": 107, "channel": 0}, {"type": "note_off", "time": 206, "note": 57, "velocity": 107, "channel": 0}, {"type": "note_on", "time": 16, "note": 58, "velocity": 108, "channel": 0}, {"type": "note_off", "time": 123, "note": 58, "velocity": 108, "channel": 0}, {"type": "note_on", "time": 41, "note": 60, "velocity": 113, "channel": 0}, {"type": "note_off", "time": 175, "note": 60, "velocity": 113, "channel": 0}, {"type": "note_on", "time": 30, "note": 57, "velocity": 106, "channel": 0}, {"type": "note_off", "time": 175, "note": 57, "velocity": 106, "channel": 0}, {"type": "note_on", "time": 82, "note": 55, "velocity": 101, "channel": 0}, {"type": "note_off", "time": 196, "note": 55, "velocity": 101, "channel": 0}, {"type": "note_on", "time": 61, "note": 50, "velocity": 111, "channel": 0}, {"type": "note_off", "time": 433, "note": 50, "velocity": 111, "channel": 0}, {"type": "note_on", "time": 181, "note": 54, "velocity": 109, "channel": 0}, {"type": "note_off", "time": 602, "note": 54, "velocity": 109, "channel": 0}, {"type": "note_on", "time": 14, "note": 52, "velocity": 119, "channel": 0}, {"type": "note_off", "time": 295, "note": 52, "velocity": 119, "channel": 0}, {"type": "note_on", "time": 19, "note": 51, "velocity": 109, "channel": 0}, {"type": "note_off", "time": 161, "note": 51, "velocity": 109, "channel": 0}, {"type": "note_on", "time": 45, "note": 49, "velocity": 114, "channel": 0}, {"type": "note_off", "time": 393, "note": 49, "velocity": 114, "channel": 0}, {"type": "note_on", "time": 74, "note": 52, "velocity": 99, "channel": 0}, {"type": "note_off", "time": 221, "note": 52, "velocity": 99, "channel": 0}, {"type": "note_on", "time": 39, "note": 60, "velocity": 115, "channel": 0}, {"type": "note_off", "time": 174, "note": 60, "velocity": 115, "channel": 0}, {"type": "note_on", "time": 9, "note": 58, "velocity": 109, "channel": 0}, {"type": "note_off", "time": 340, "note": 58, "velocity": 109, "channel": 0}, {"type": "note_on", "time": 970, "note": 57, "velocity": 107, "channel": 0}, {"type": "note_off", "time": 175, "note": 57, "velocity": 107, "channel": 0}, {"type": "note_on", "time": 0, "note": 59, "velocity": 112, "channel": 0}, {"type": "note_off", "time": 165, "note": 59, "velocity": 112, "channel": 0}, {"type": "note_on", "time": 41, "note": 61, "velocity": 112, "channel": 0}, {"type": "note_off", "time": 165, "note": 61, "velocity": 112, "channel": 0}, {"type": "note_on", "time": 0, "note": 62, "velocity": 117, "channel": 0}, {"type": "note_off", "time": 227, "note": 62, "velocity": 117, "channel": 0}, {"type": "note_on", "time": 0, "note": 64, "velocity": 112, "channel": 0}, {"type": "note_off", "time": 206, "note": 64, "velocity": 112, "channel": 0}, {"type": "note_on", "time": 0, "note": 67, "velocity": 100, "channel": 0}, {"type": "note_off", "time": 392, "note": 67, "velocity": 100, "channel": 0}, {"type": "note_on", "time": 0, "note": 68, "velocity": 119, "channel": 0}, {"type": "note_off", "time": 247, "note": 68, "velocity": 119, "channel": 0}, {"type": "note_on", "time": 0, "note": 69, "velocity": 114, "channel": 0}, {"type": "note_off", "time": 154, "note": 69, "velocity": 114, "channel": 0}, {"type": "note_on", "time": 0, "note": 70, "velocity": 113, "channel": 0}, {"type": "note_off", "time": 258, "note": 70, "velocity": 113, "channel": 0}, {"type": "note_on", "time": 21, "note": 68, "velocity": 108, "channel": 0}, {"type": "note_on", "time": 119, "note": 69, "velocity": 113, "channel": 0}, {"type": "note_off", "time": 0, "note": 68, "velocity": 108, "channel": 0}, {"type": "note_off", "time": 136, "note": 69, "velocity": 113, "channel": 0}, {"type": "note_on", "time": 104, "note": 65, "velocity": 121, "channel": 0}, {"type": "note_off", "time": 144, "note": 65, "velocity": 121, "channel": 0}, {"type": "note_on", "time": 0, "note": 64, "velocity": 116, "channel": 0}, {"type": "note_off", "time": 247, "note": 64, "velocity": 116, "channel": 0}, {"type": "note_on", "time": 11, "note": 62, "velocity": 106, "channel": 0}, {"type": "note_off", "time": 145, "note": 62, "velocity": 106, "channel": 0}, {"type": "note_on", "time": 91, "note": 67, "velocity": 112, "channel": 0}, {"type": "note_off", "time": 361, "note": 67, "velocity": 112, "channel": 0}, {"type": "note_on", "time": 825, "note": 72, "velocity": 123, "channel": 0}, {"type": "note_off", "time": 185, "note": 72, "velocity": 123, "channel": 0}, {"type": "note_on", "time": 0, "note": 70, "velocity": 108, "channel": 0}, {"type": "note_off", "time": 237, "note": 70, "velocity": 108, "channel": 0}, {"type": "note_on", "time": 34, "note": 75, "velocity": 116, "channel": 0}, {"type": "note_off", "time": 192, "note": 75, "velocity": 116, "channel": 0}, {"type": "note_on", "time": 30, "note": 73, "velocity": 110, "channel": 0}, {"type": "note_off", "time": 154, "note": 73, "velocity": 110, "channel": 0}, {"type": "note_on", "time": 0, "note": 69, "velocity": 111, "channel": 0}, {"type": "note_off", "time": 227, "note": 69, "velocity": 111, "channel": 0}, {"type": "note_on", "time": 10, "note": 67, "velocity": 111, "channel": 0}, {"type": "note_off", "time": 185, "note": 67, "velocity": 111, "channel": 0}, {"type": "note_on", "time": 0, "note": 72, "velocity": 115, "channel": 0}, {"type": "note_on", "time": 402, "note": 72, "velocity": 102, "channel": 0}, {"type": "note_off", "time": 0, "note": 72, "velocity": 115, "channel": 0}, {"type": "note_off", "time": 216, "note": 72, "velocity": 102, "channel": 0}, {"type": "note_on", "time": 0, "note": 70, "velocity": 105, "channel": 0}, {"type": "note_off", "time": 206, "note": 70, "velocity": 105, "channel": 0}, {"type": "note_on", "time": 0, "note": 69, "velocity": 111, "channel": 0}, {"type": "note_off", "time": 206, "note": 69, "velocity": 111, "channel": 0}, {"type": "note_on", "time": 10, "note": 65, "velocity": 121, "channel": 0}, {"type": "note_off", "time": 175, "note": 65, "velocity": 121, "channel": 0}, {"type": "note_on", "time": 0, "note": 64, "velocity": 116, "channel": 0}, {"type": "note_off", "time": 247, "note": 64, "velocity": 116, "channel": 0}, {"type": "note_on", "time": 101, "note": 63, "velocity": 112, "channel": 0}, {"type": "note_off", "time": 43, "note": 63, "velocity": 112, "channel": 0}, {"type": "note_on", "time": 36, "note": 67, "velocity": 117, "channel": 0}, {"type": "note_off", "time": 210, "note": 67, "velocity": 117, "channel": 0}, {"type": "note_on", "time": 0, "note": 65, "velocity": 118, "channel": 0}, {"type": "note_off", "time": 165, "note": 65, "velocity": 118, "channel": 0}, {"type": "note_on", "time": 21, "note": 61, "velocity": 113, "channel": 0}, {"type": "note_off", "time": 119, "note": 61, "velocity": 113, "channel": 0}, {"type": "note_on", "time": 28, "note": 58, "velocity": 96, "channel": 0}, {"type": "note_off", "time": 143, "note": 58, "velocity": 96, "channel": 0}, {"type": "note_on", "time": 112, "note": 64, "velocity": 117, "channel": 0}, {"type": "note_off", "time": 154, "note": 64, "velocity": 117, "channel": 0}, {"type": "note_on", "time": 70, "note": 62, "velocity": 108, "channel": 0}, {"type": "note_off", "time": 175, "note": 62, "velocity": 108, "channel": 0}, {"type": "note_on", "time": 27, "note": 57, "velocity": 108, "channel": 0}, {"type": "note_off", "time": 150, "note": 57, "velocity": 108, "channel": 0}, {"type": "note_on", "time": 29, "note": 55, "velocity": 108, "channel": 0}, {"type": "note_off", "time": 156, "note": 55, "velocity": 108, "channel": 0}, {"type": "note_on", "time": 33, "note": 52, "velocity": 113, "channel": 0}, {"type": "note_off", "time": 526, "note": 52, "velocity": 113, "channel": 0}, {"type": "note_on", "time": 23, "note": 51, "velocity": 119, "channel": 0}, {"type": "note_off", "time": 166, "note": 51, "velocity": 119, "channel": 0}, {"type": "note_on", "time": 90, "note": 55, "velocity": 113, "channel": 0}, {"type": "note_off", "time": 141, "note": 55, "velocity": 113, "channel": 0}, {"type": "note_on", "time": 5, "note": 58, "velocity": 106, "channel": 0}, {"type": "note_off", "time": 103, "note": 58, "velocity": 106, "channel": 0}, {"type": "note_on", "time": 20, "note": 62, "velocity": 115, "channel": 0}, {"type": "note_off", "time": 142, "note": 62, "velocity": 115, "channel": 0}, {"type": "note_on", "time": 0, "note": 65, "velocity": 106, "channel": 0}, {"type": "note_off", "time": 68, "note": 65, "velocity": 106, "channel": 0}, {"type": "note_on", "time": 3, "note": 68, "velocity": 108, "channel": 0}, {"type": "note_off", "time": 58, "note": 68, "velocity": 108, "channel": 0}, {"type": "note_on", "time": 10, "note": 72, "velocity": 109, "channel": 0}, {"type": "note_off", "time": 136, "note": 72, "velocity": 109, "channel": 0}, {"type": "note_on", "time": 44, "note": 67, "velocity": 106, "channel": 0}, {"type": "note_off", "time": 247, "note": 67, "velocity": 106, "channel": 0}, {"type": "note_on", "time": 763, "note": 67, "velocity": 114, "channel": 0}, {"type": "note_off", "time": 206, "note": 67, "velocity": 114, "channel": 0}, {"type": "note_on", "time": 0, "note": 69, "velocity": 115, "channel": 0}, {"type": "note_off", "time": 185, "note": 69, "velocity": 115, "channel": 0}, {"type": "note_on", "time": 0, "note": 70, "velocity": 111, "channel": 0}, {"type": "note_off", "time": 206, "note": 70, "velocity": 111, "channel": 0}, {"type": "note_on", "time": 0, "note": 72, "velocity": 117, "channel": 0}, {"type": "note_off", "time": 196, "note": 72, "velocity": 117, "channel": 0}, {"type": "note_on", "time": 0, "note": 69, "velocity": 113, "channel": 0}, {"type": "note_off", "time": 134, "note": 69, "velocity": 113, "channel": 0}, {"type": "note_on", "time": 0, "note": 67, "velocity": 105, "channel": 0}, {"type": "note_off", "time": 72, "note": 67, "velocity": 105, "channel": 0}, {"type": "note_on", "time": 64, "note": 64, "velocity": 115, "channel": 0}, {"type": "note_off", "time": 216, "note": 64, "velocity": 115, "channel": 0}, {"type": "note_on", "time": 59, "note": 61, "velocity": 111, "channel": 0}, {"type": "note_off", "time": 232, "note": 61, "velocity": 111, "channel": 0}, {"type": "note_on", "time": 16, "note": 65, "velocity": 116, "channel": 0}, {"type": "note_off", "time": 258, "note": 65, "velocity": 116, "channel": 0}, {"type": "note_on", "time": 0, "note": 62, "velocity": 109, "channel": 0}, {"type": "note_off", "time": 330, "note": 62, "velocity": 109, "channel": 0}, {"type": "note_on", "time": 103, "note": 74, "velocity": 110, "channel": 0}, {"type": "note_off", "time": 375, "note": 74, "velocity": 110, "channel": 0}, {"type": "note_on", "time": 16, "note": 72, "velocity": 95, "channel": 0}, {"type": "note_off", "time": 257, "note": 72, "velocity": 95, "channel": 0}, {"type": "note_on", "time": 0, "note": 69, "velocity": 112, "channel": 0}, {"type": "note_off", "time": 185, "note": 69, "velocity": 112, "channel": 0}, {"type": "note_on", "time": 9, "note": 72, "velocity": 114, "channel": 0}, {"type": "note_off", "time": 278, "note": 72, "velocity": 114, "channel": 0}, {"type": "note_on", "time": 0, "note": 68, "velocity": 115, "channel": 0}, {"type": "note_off", "time": 185, "note": 68, "velocity": 115, "channel": 0}, {"type": "note_on", "time": 0, "note": 67, "velocity": 113, "channel": 0}, {"type": "note_off", "time": 247, "note": 67, "velocity": 113, "channel": 0}, {"type": "note_on", "time": 0, "note": 66, "velocity": 116, "channel": 0}, {"type": "note_off", "time": 123, "note": 66, "velocity": 116, "channel": 0}, {"type": "note_on", "time": 31, "note": 68, "velocity": 115, "channel": 0}, {"type": "note_off", "time": 216, "note": 68, "velocity": 115, "channel": 0}, {"type": "note_on", "time": 10, "note": 65, "velocity": 117, "channel": 0}, {"type": "note_off", "time": 134, "note": 65, "velocity": 117, "channel": 0}, {"type": "note_on", "time": 22, "note": 61, "velocity": 114, "channel": 0}, {"type": "note_off", "time": 130, "note": 61, "velocity": 114, "channel": 0}, {"type": "note_on", "time": 41, "note": 57, "velocity": 106, "channel": 0}, {"type": "note_off", "time": 157, "note": 57, "velocity": 106, "channel": 0}, {"type": "note_on", "time": 339, "note": 58, "velocity": 108, "channel": 0}, {"type": "note_off", "time": 216, "note": 58, "velocity": 108, "channel": 0}, {"type": "note_on", "time": 0, "note": 60, "velocity": 118, "channel": 0}, {"type": "note_off", "time": 175, "note": 60, "velocity": 118, "channel": 0}, {"type": "note_on", "time": 0, "note": 62, "velocity": 110, "channel": 0}, {"type": "note_off", "time": 134, "note": 62, "velocity": 110, "channel": 0}, {"type": "note_on", "time": 113, "note": 65, "velocity": 115, "channel": 0}, {"type": "note_off", "time": 185, "note": 65, "velocity": 115, "channel": 0}, {"type": "note_on", "time": 41, "note": 70, "velocity": 114, "channel": 0}, {"type": "note_off", "time": 268, "note": 70, "velocity": 114, "channel": 0}, {"type": "note_on", "time": 51, "note": 70, "velocity": 110, "channel": 0}, {"type": "note_off", "time": 288, "note": 70, "velocity": 110, "channel": 0}, {"type": "note_on", "time": 1806, "note": 60, "velocity": 120, "channel": 0}, {"type": "note_off", "time": 123, "note": 60, "velocity": 120, "channel": 0}, {"type": "note_on", "time": 20, "note": 60, "velocity": 120, "channel": 0}, {"type": "note_off", "time": 175, "note": 60, "velocity": 120, "channel": 0}, {"type": "note_on", "time": 11, "note": 60, "velocity": 120, "channel": 0}, {"type": "note_off", "time": 321, "note": 60, "velocity": 120, "channel": 0}, {"type": "note_on", "time": 28, "note": 65, "velocity": 115, "channel": 0}, {"type": "note_off", "time": 361, "note": 65, "velocity": 115, "channel": 0}, {"type": "note_on", "time": 62, "note": 65, "velocity": 120, "channel": 0}, {"type": "note_off", "time": 319, "note": 65, "velocity": 120, "channel": 0}, {"type": "note_on", "time": 205, "note": 69, "velocity": 119, "channel": 0}, {"type": "note_off", "time": 237, "note": 69, "velocity": 119, "channel": 0}, {"type": "note_on", "time": 196, "note": 69, "velocity": 114, "channel": 0}, {"type": "note_off", "time": 227, "note": 69, "velocity": 114, "channel": 0}, {"type": "note_on", "time": 185, "note": 72, "velocity": 113, "channel": 0}, {"type": "note_off", "time": 247, "note": 72, "velocity": 113, "channel": 0}, {"type": "note_on", "time": 196, "note": 72, "velocity": 104, "channel": 0}, {"type": "note_off", "time": 330, "note": 72, "velocity": 104, "channel": 0}, {"type": "note_on", "time": 30, "note": 79, "velocity": 107, "channel": 0}, {"type": "note_off", "time": 234, "note": 79, "velocity": 107, "channel": 0}, {"type": "note_on", "time": 48, "note": 79, "velocity": 104, "channel": 0}, {"type": "note_off", "time": 332, "note": 79, "velocity": 104, "channel": 0}, {"type": "note_on", "time": 25, "note": 79, "velocity": 116, "channel": 0}, {"type": "note_off", "time": 134, "note": 79, "velocity": 116, "channel": 0}, {"type": "note_on", "time": 123, "note": 76, "velocity": 123, "channel": 0}, {"type": "note_off", "time": 175, "note": 76, "velocity": 123, "channel": 0}, {"type": "note_on", "time": 185, "note": 76, "velocity": 125, "channel": 0}, {"type": "note_off", "time": 216, "note": 76, "velocity": 125, "channel": 0}, {"type": "note_on", "time": 227, "note": 72, "velocity": 118, "channel": 0}, {"type": "note_off", "time": 227, "note": 72, "velocity": 118, "channel": 0}, {"type": "note_on", "time": 181, "note": 72, "velocity": 115, "channel": 0}, {"type": "note_off", "time": 227, "note": 72, "velocity": 115, "channel": 0}, {"type": "note_on", "time": 174, "note": 69, "velocity": 114, "channel": 0}, {"type": "note_off", "time": 237, "note": 69, "velocity": 114, "channel": 0}, {"type": "note_on", "time": 207, "note": 69, "velocity": 114, "channel": 0}, {"type": "note_off", "time": 216, "note": 69, "velocity": 114, "channel": 0}, {"type": "note_on", "time": 172, "note": 76, "velocity": 120, "channel": 0}, {"type": "note_off", "time": 161, "note": 76, "velocity": 120, "channel": 0}, {"type": "note_on", "time": 25, "note": 76, "velocity": 99, "channel": 0}, {"type": "note_off", "time": 152, "note": 76, "velocity": 99, "channel": 0}, {"type": "note_on", "time": 56, "note": 76, "velocity": 116, "channel": 0}, {"type": "note_off", "time": 154, "note": 76, "velocity": 116, "channel": 0}, {"type": "note_on", "time": 62, "note": 76, "velocity": 115, "channel": 0}, {"type": "note_off", "time": 72, "note": 76, "velocity": 115, "channel": 0}, {"type": "note_on", "time": 123, "note": 73, "velocity": 116, "channel": 0}, {"type": "note_off", "time": 227, "note": 73, "velocity": 116, "channel": 0}, {"type": "note_on", "time": 141, "note": 73, "velocity": 112, "channel": 0}, {"type": "note_off", "time": 227, "note": 73, "velocity": 112, "channel": 0}, {"type": "note_on", "time": 272, "note": 69, "velocity": 112, "channel": 0}, {"type": "note_off", "time": 227, "note": 69, "velocity": 112, "channel": 0}, {"type": "note_on", "time": 185, "note": 70, "velocity": 113, "channel": 0}, {"type": "note_off", "time": 237, "note": 70, "velocity": 113, "channel": 0}, {"type": "note_on", "time": 164, "note": 67, "velocity": 111, "channel": 0}, {"type": "note_off", "time": 227, "note": 67, "velocity": 111, "channel": 0}, {"type": "note_on", "time": 217, "note": 67, "velocity": 105, "channel": 0}, {"type": "note_off", "time": 247, "note": 67, "velocity": 105, "channel": 0}, {"type": "note_on", "time": 175, "note": 73, "velocity": 113, "channel": 0}, {"type": "note_off", "time": 134, "note": 73, "velocity": 113, "channel": 0}, {"type": "note_on", "time": 50, "note": 73, "velocity": 101, "channel": 0}, {"type": "note_off", "time": 134, "note": 73, "velocity": 101, "channel": 0}, {"type": "note_on", "time": 63, "note": 73, "velocity": 108, "channel": 0}, {"type": "note_off", "time": 92, "note": 73, "velocity": 108, "channel": 0}, {"type": "note_on", "time": 81, "note": 73, "velocity": 116, "channel": 0}, {"type": "note_off", "time": 144, "note": 73, "velocity": 116, "channel": 0}, {"type": "note_on", "time": 124, "note": 70, "velocity": 107, "channel": 0}, {"type": "note_off", "time": 206, "note": 70, "velocity": 107, "channel": 0}, {"type": "note_on", "time": 186, "note": 70, "velocity": 111, "channel": 0}, {"type": "note_off", "time": 227, "note": 70, "velocity": 111, "channel": 0}, {"type": "note_on", "time": 185, "note": 69, "velocity": 112, "channel": 0}, {"type": "note_off", "time": 608, "note": 69, "velocity": 112, "channel": 0}, {"type": "note_on", "time": 226, "note": 63, "velocity": 106, "channel": 0}, {"type": "note_off", "time": 154, "note": 63, "velocity": 106, "channel": 0}, {"type": "note_on", "time": 21, "note": 64, "velocity": 111, "channel": 0}, {"type": "note_off", "time": 184, "note": 64, "velocity": 111, "channel": 0}, {"type": "note_on", "time": 0, "note": 67, "velocity": 111, "channel": 0}, {"type": "note_off", "time": 216, "note": 67, "velocity": 111, "channel": 0}, {"type": "note_on", "time": 10, "note": 65, "velocity": 113, "channel": 0}, {"type": "note_off", "time": 185, "note": 65, "velocity": 113, "channel": 0}, {"type": "note_on", "time": 15, "note": 64, "velocity": 110, "channel": 0}, {"type": "note_off", "time": 152, "note": 64, "velocity": 110, "channel": 0}, {"type": "note_on", "time": 39, "note": 62, "velocity": 112, "channel": 0}, {"type": "note_off", "time": 196, "note": 62, "velocity": 112, "channel": 0}, {"type": "note_on", "time": 42, "note": 58, "velocity": 109, "channel": 0}, {"type": "note_off", "time": 159, "note": 58, "velocity": 109, "channel": 0}, {"type": "note_on", "time": 12, "note": 57, "velocity": 98, "channel": 0}, {"type": "note_off", "time": 167, "note": 57, "velocity": 98, "channel": 0}, {"type": "note_on", "time": 112, "note": 63, "velocity": 123, "channel": 0}, {"type": "note_off", "time": 133, "note": 63, "velocity": 123, "channel": 0}, {"type": "note_on", "time": 0, "note": 63, "velocity": 118, "channel": 0}, {"type": "note_off", "time": 72, "note": 63, "velocity": 118, "channel": 0}, {"type": "note_on", "time": 0, "note": 65, "velocity": 119, "channel": 0}, {"type": "note_off", "time": 175, "note": 65, "velocity": 119, "channel": 0}, {"type": "note_on", "time": 0, "note": 68, "velocity": 103, "channel": 0}, {"type": "note_off", "time": 278, "note": 68, "velocity": 103, "channel": 0}, {"type": "note_on", "time": 133, "note": 74, "velocity": 119, "channel": 0}, {"type": "note_off", "time": 557, "note": 74, "velocity": 119, "channel": 0}, {"type": "note_on", "time": 9, "note": 72, "velocity": 118, "channel": 0}, {"type": "note_off", "time": 61, "note": 72, "velocity": 118, "channel": 0}, {"type": "note_on", "time": 0, "note": 70, "velocity": 121, "channel": 0}, {"type": "note_off", "time": 134, "note": 70, "velocity": 121, "channel": 0}, {"type": "note_on", "time": 9, "note": 69, "velocity": 120, "channel": 0}, {"type": "note_off", "time": 237, "note": 69, "velocity": 120, "channel": 0}, {"type": "note_on", "time": 0, "note": 67, "velocity": 113, "channel": 0}, {"type": "note_off", "time": 134, "note": 67, "velocity": 113, "channel": 0}, {"type": "note_on", "time": 9, "note": 65, "velocity": 117, "channel": 0}, {"type": "note_off", "time": 185, "note": 65, "velocity": 117, "channel": 0}, {"type": "note_on", "time": 41, "note": 63, "velocity": 118, "channel": 0}, {"type": "note_off", "time": 165, "note": 63, "velocity": 118, "channel": 0}, {"type": "note_on", "time": 41, "note": 62, "velocity": 119, "channel": 0}, {"type": "note_off", "time": 225, "note": 62, "velocity": 119, "channel": 0}, {"type": "note_on", "time": 0, "note": 63, "velocity": 98, "channel": 0}, {"type": "note_off", "time": 92, "note": 63, "velocity": 98, "channel": 0}, {"type": "note_on", "time": 1157, "note": 65, "velocity": 114, "channel": 0}, {"type": "note_off", "time": 392, "note": 65, "velocity": 114, "channel": 0}, {"type": "note_on", "time": 9, "note": 70, "velocity": 112, "channel": 0}, {"type": "note_off", "time": 299, "note": 70, "velocity": 112, "channel": 0}, {"type": "note_on", "time": 77, "note": 75, "velocity": 111, "channel": 0}, {"type": "note_off", "time": 297, "note": 75, "velocity": 111, "channel": 0}, {"type": "note_on", "time": 100, "note": 74, "velocity": 108, "channel": 0}, {"type": "note_off", "time": 330, "note": 74, "velocity": 108, "channel": 0}, {"type": "note_on", "time": 112, "note": 70, "velocity": 112, "channel": 0}, {"type": "note_off", "time": 319, "note": 70, "velocity": 112, "channel": 0}, {"type": "note_on", "time": 135, "note": 69, "velocity": 116, "channel": 0}, {"type": "note_off", "time": 330, "note": 69, "velocity": 116, "channel": 0}, {"type": "note_on", "time": 92, "note": 67, "velocity": 109, "channel": 0}, {"type": "note_off", "time": 288, "note": 67, "velocity": 109, "channel": 0}, {"type": "note_on", "time": 31, "note": 63, "velocity": 112, "channel": 0}, {"type": "note_off", "time": 337, "note": 63, "velocity": 112, "channel": 0}, {"type": "note_on", "time": 178, "note": 64, "velocity": 111, "channel": 0}, {"type": "note_off", "time": 268, "note": 64, "velocity": 111, "channel": 0}, {"type": "note_on", "time": 0, "note": 67, "velocity": 113, "channel": 0}, {"type": "note_off", "time": 794, "note": 67, "velocity": 113, "channel": 0}, {"type": "note_on", "time": 10, "note": 65, "velocity": 113, "channel": 0}, {"type": "note_off", "time": 464, "note": 65, "velocity": 113, "channel": 0}, {"type": "note_on", "time": 87, "note": 59, "velocity": 110, "channel": 0}, {"type": "note_off", "time": 464, "note": 59, "velocity": 110, "channel": 0}, {"type": "note_on", "time": 943, "note": 55, "velocity": 118, "channel": 0}, {"type": "note_off", "time": 165, "note": 55, "velocity": 118, "channel": 0}, {"type": "note_on", "time": 0, "note": 57, "velocity": 118, "channel": 0}, {"type": "note_off", "time": 175, "note": 57, "velocity": 118, "channel": 0}, {"type": "note_on", "time": 41, "note": 61, "velocity": 110, "channel": 0}, {"type": "note_off", "time": 185, "note": 61, "velocity": 110, "channel": 0}, {"type": "note_on", "time": 217, "note": 61, "velocity": 119, "channel": 0}, {"type": "note_off", "time": 185, "note": 61, "velocity": 119, "channel": 0}, {"type": "note_on", "time": 9, "note": 65, "velocity": 111, "channel": 0}, {"type": "note_off", "time": 206, "note": 65, "velocity": 111, "channel": 0}, {"type": "note_on", "time": 30, "note": 69, "velocity": 112, "channel": 0}, {"type": "note_off", "time": 227, "note": 69, "velocity": 112, "channel": 0}, {"type": "note_on", "time": 6, "note": 74, "velocity": 117, "channel": 0}, {"type": "note_off", "time": 203, "note": 74, "velocity": 117, "channel": 0}, {"type": "note_on", "time": 18, "note": 73, "velocity": 113, "channel": 0}, {"type": "note_off", "time": 185, "note": 73, "velocity": 113, "channel": 0}, {"type": "note_on", "time": 9, "note": 70, "velocity": 113, "channel": 0}, {"type": "note_off", "time": 154, "note": 70, "velocity": 113, "channel": 0}, {"type": "note_on", "time": 12, "note": 73, "velocity": 120, "channel": 0}, {"type": "note_off", "time": 214, "note": 73, "velocity": 120, "channel": 0}, {"type": "note_on", "time": 22, "note": 71, "velocity": 110, "channel": 0}, {"type": "note_off", "time": 227, "note": 71, "velocity": 110, "channel": 0}, {"type": "note_on", "time": 71, "note": 68, "velocity": 104, "channel": 0}, {"type": "note_off", "time": 144, "note": 68, "velocity": 104, "channel": 0}, {"type": "note_on", "time": 20, "note": 63, "velocity": 109, "channel": 0}, {"type": "note_off", "time": 299, "note": 63, "velocity": 109, "channel": 0}, {"type": "note_on", "time": 97, "note": 64, "velocity": 118, "channel": 0}, {"type": "note_off", "time": 82, "note": 64, "velocity": 118, "channel": 0}, {"type": "note_on", "time": 0, "note": 65, "velocity": 117, "channel": 0}, {"type": "note_off", "time": 116, "note": 65, "velocity": 117, "channel": 0}, {"type": "note_on", "time": 30, "note": 66, "velocity": 117, "channel": 0}, {"type": "note_off", "time": 158, "note": 66, "velocity": 117, "channel": 0}, {"type": "note_on", "time": 0, "note": 67, "velocity": 108, "channel": 0}, {"type": "note_off", "time": 227, "note": 67, "velocity": 108, "channel": 0}, {"type": "note_on", "time": 0, "note": 64, "velocity": 115, "channel": 0}, {"type": "note_off", "time": 185, "note": 64, "velocity": 115, "channel": 0}, {"type": "note_on", "time": 58, "note": 60, "velocity": 105, "channel": 0}, {"type": "note_off", "time": 118, "note": 60, "velocity": 105, "channel": 0}, {"type": "note_on", "time": 7, "note": 61, "velocity": 117, "channel": 0}, {"type": "note_off", "time": 134, "note": 61, "velocity": 117, "channel": 0}, {"type": "note_on", "time": 23, "note": 62, "velocity": 112, "channel": 0}, {"type": "note_off", "time": 80, "note": 62, "velocity": 112, "channel": 0}, {"type": "note_on", "time": 0, "note": 64, "velocity": 105, "channel": 0}, {"type": "note_off", "time": 154, "note": 64, "velocity": 105, "channel": 0}, {"type": "note_on", "time": 40, "note": 67, "velocity": 117, "channel": 0}, {"type": "note_off", "time": 165, "note": 67, "velocity": 117, "channel": 0}, {"type": "note_on", "time": 249, "note": 70, "velocity": 111, "channel": 0}, {"type": "note_off", "time": 196, "note": 70, "velocity": 111, "channel": 0}, {"type": "note_on", "time": 29, "note": 65, "velocity": 118, "channel": 0}, {"type": "note_off", "time": 196, "note": 65, "velocity": 118, "channel": 0}, {"type": "note_on", "time": 1, "note": 67, "velocity": 110, "channel": 0}, {"type": "note_off", "time": 298, "note": 67, "velocity": 110, "channel": 0}, {"type": "note_on", "time": 0, "note": 69, "velocity": 115, "channel": 0}, {"type": "note_off", "time": 1248, "note": 69, "velocity": 115, "channel": 0}, {"type": "note_on", "time": 145, "note": 69, "velocity": 112, "channel": 0}, {"type": "note_off", "time": 866, "note": 69, "velocity": 112, "channel": 0}, {"type": "note_on", "time": 793, "note": 69, "velocity": 116, "channel": 0}, {"type": "note_off", "time": 227, "note": 69, "velocity": 116, "channel": 0}, {"type": "note_on", "time": 237, "note": 77, "velocity": 118, "channel": 0}, {"type": "note_off", "time": 485, "note": 77, "velocity": 118, "channel": 0}, {"type": "note_on", "time": 62, "note": 76, "velocity": 124, "channel": 0}, {"type": "note_off", "time": 516, "note": 76, "velocity": 124, "channel": 0}, {"type": "note_on", "time": 122, "note": 69, "velocity": 110, "channel": 0}, {"type": "note_off", "time": 796, "note": 69, "velocity": 110, "channel": 0}, {"type": "note_on", "time": 1817, "note": 69, "velocity": 113, "channel": 0}, {"type": "note_off", "time": 608, "note": 69, "velocity": 113, "channel": 0}, {"type": "note_on", "time": 32, "note": 69, "velocity": 111, "channel": 0}, {"type": "note_off", "time": 485, "note": 69, "velocity": 111, "channel": 0}, {"type": "note_on", "time": 162, "note": 69, "velocity": 113, "channel": 0}, {"type": "note_off", "time": 165, "note": 69, "velocity": 113, "channel": 0}, {"type": "note_on", "time": 0, "note": 69, "velocity": 113, "channel": 0}, {"type": "note_off", "time": 206, "note": 69, "velocity": 113, "channel": 0}, {"type": "note_on", "time": 134, "note": 69, "velocity": 112, "channel": 0}, {"type": "note_off", "time": 299, "note": 69, "velocity": 112, "channel": 0}, {"type": "note_on", "time": 191, "note": 77, "velocity": 106, "channel": 0}, {"type": "note_off", "time": 384, "note": 77, "velocity": 106, "channel": 0}, {"type": "note_on", "time": 42, "note": 76, "velocity": 109, "channel": 0}, {"type": "note_off", "time": 330, "note": 76, "velocity": 109, "channel": 0}, {"type": "note_on", "time": 11, "note": 73, "velocity": 111, "channel": 0}, {"type": "note_off", "time": 712, "note": 73, "velocity": 111, "channel": 0}, {"type": "note_on", "time": 9, "note": 69, "velocity": 109, "channel": 0}, {"type": "note_off", "time": 185, "note": 69, "velocity": 109, "channel": 0}, {"type": "note_on", "time": 11, "note": 71, "velocity": 111, "channel": 0}, {"type": "note_off", "time": 185, "note": 71, "velocity": 111, "channel": 0}, {"type": "note_on", "time": 40, "note": 73, "velocity": 111, "channel": 0}, {"type": "note_off", "time": 185, "note": 73, "velocity": 111, "channel": 0}, {"type": "note_on", "time": 31, "note": 69, "velocity": 106, "channel": 0}, {"type": "note_off", "time": 196, "note": 69, "velocity": 106, "channel": 0}, {"type": "note_on", "time": 48, "note": 66, "velocity": 106, "channel": 0}, {"type": "note_off", "time": 108, "note": 66, "velocity": 106, "channel": 0}, {"type": "note_on", "time": 28, "note": 67, "velocity": 106, "channel": 0}, {"type": "note_off", "time": 154, "note": 67, "velocity": 106, "channel": 0}, {"type": "note_on", "time": 0, "note": 69, "velocity": 102, "channel": 0}, {"type": "note_off", "time": 72, "note": 69, "velocity": 102, "channel": 0}, {"type": "note_on", "time": 0, "note": 69, "velocity": 107, "channel": 0}, {"type": "note_off", "time": 216, "note": 69, "velocity": 107, "channel": 0}, {"type": "note_on", "time": 53, "note": 65, "velocity": 111, "channel": 0}, {"type": "note_off", "time": 340, "note": 65, "velocity": 111, "channel": 0}, {"type": "note_on", "time": 30, "note": 62, "velocity": 109, "channel": 0}, {"type": "note_off", "time": 338, "note": 62, "velocity": 109, "channel": 0}, {"type": "note_on", "time": 1724, "note": 67, "velocity": 106, "channel": 0}, {"type": "note_off", "time": 184, "note": 67, "velocity": 106, "channel": 0}, {"type": "note_on", "time": 0, "note": 69, "velocity": 113, "channel": 0}, {"type": "note_off", "time": 216, "note": 69, "velocity": 113, "channel": 0}, {"type": "note_on", "time": 0, "note": 70, "velocity": 103, "channel": 0}, {"type": "note_off", "time": 144, "note": 70, "velocity": 103, "channel": 0}, {"type": "note_on", "time": 83, "note": 72, "velocity": 112, "channel": 0}, {"type": "note_off", "time": 216, "note": 72, "velocity": 112, "channel": 0}, {"type": "note_on", "time": 0, "note": 69, "velocity": 112, "channel": 0}, {"type": "note_off", "time": 598, "note": 69, "velocity": 112, "channel": 0}, {"type": "note_on", "time": 9, "note": 67, "velocity": 107, "channel": 0}, {"type": "note_off", "time": 278, "note": 67, "velocity": 107, "channel": 0}, {"type": "note_on", "time": 100, "note": 74, "velocity": 106, "channel": 0}, {"type": "note_off", "time": 294, "note": 74, "velocity": 106, "channel": 0}, {"type": "note_on", "time": 132, "note": 72, "velocity": 104, "channel": 0}, {"type": "note_on", "time": 247, "note": 70, "velocity": 103, "channel": 0}, {"type": "note_off", "time": 0, "note": 72, "velocity": 104, "channel": 0}, {"type": "note_off", "time": 185, "note": 70, "velocity": 103, "channel": 0}, {"type": "note_on", "time": 0, "note": 69, "velocity": 103, "channel": 0}, {"type": "note_off", "time": 184, "note": 69, "velocity": 103, "channel": 0}, {"type": "note_on", "time": 0, "note": 67, "velocity": 101, "channel": 0}, {"type": "note_off", "time": 147, "note": 67, "velocity": 101, "channel": 0}, {"type": "note_on", "time": 7, "note": 65, "velocity": 104, "channel": 0}, {"type": "note_off", "time": 196, "note": 65, "velocity": 104, "channel": 0}, {"type": "note_on", "time": 64, "note": 64, "velocity": 102, "channel": 0}, {"type": "note_off", "time": 79, "note": 64, "velocity": 102, "channel": 0}, {"type": "note_on", "time": 22, "note": 63, "velocity": 104, "channel": 0}, {"type": "note_off", "time": 185, "note": 63, "velocity": 104, "channel": 0}, {"type": "note_on", "time": 7, "note": 67, "velocity": 102, "channel": 0}, {"type": "note_off", "time": 127, "note": 67, "velocity": 102, "channel": 0}, {"type": "note_on", "time": 50, "note": 62, "velocity": 110, "channel": 0}, {"type": "note_off", "time": 141, "note": 62, "velocity": 110, "channel": 0}, {"type": "note_on", "time": 36, "note": 60, "velocity": 111, "channel": 0}, {"type": "note_off", "time": 136, "note": 60, "velocity": 111, "channel": 0}, {"type": "note_on", "time": 83, "note": 65, "velocity": 111, "channel": 0}, {"type": "note_off", "time": 170, "note": 65, "velocity": 111, "channel": 0}, {"type": "note_on", "time": 19, "note": 61, "velocity": 116, "channel": 0}, {"type": "note_off", "time": 165, "note": 61, "velocity": 116, "channel": 0}, {"type": "note_on", "time": 34, "note": 56, "velocity": 103, "channel": 0}, {"type": "note_off", "time": 132, "note": 56, "velocity": 103, "channel": 0}, {"type": "note_on", "time": 63, "note": 55, "velocity": 101, "channel": 0}, {"type": "note_off", "time": 150, "note": 55, "velocity": 101, "channel": 0}, {"type": "note_on", "time": 89, "note": 58, "velocity": 107, "channel": 0}, {"type": "note_off", "time": 392, "note": 58, "velocity": 107, "channel": 0}, {"type": "note_on", "time": 176, "note": 60, "velocity": 113, "channel": 0}, {"type": "note_off", "time": 340, "note": 60, "velocity": 113, "channel": 0}, {"type": "note_on", "time": 29, "note": 62, "velocity": 110, "channel": 0}, {"type": "note_off", "time": 309, "note": 62, "velocity": 110, "channel": 0}, {"type": "note_on", "time": 156, "note": 65, "velocity": 113, "channel": 0}, {"type": "note_off", "time": 381, "note": 65, "velocity": 113, "channel": 0}, {"type": "note_on", "time": 60, "note": 72, "velocity": 109, "channel": 0}, {"type": "note_off", "time": 1104, "note": 72, "velocity": 109, "channel": 0}, {"type": "note_on", "time": 156, "note": 70, "velocity": 110, "channel": 0}, {"type": "note_off", "time": 309, "note": 70, "velocity": 110, "channel": 0}, {"type": "note_on", "time": 133, "note": 68, "velocity": 109, "channel": 0}, {"type": "note_off", "time": 350, "note": 68, "velocity": 109, "channel": 0}, {"type": "note_on", "time": 93, "note": 65, "velocity": 112, "channel": 0}, {"type": "note_off", "time": 237, "note": 65, "velocity": 112, "channel": 0}, {"type": "note_on", "time": 44, "note": 61, "velocity": 104, "channel": 0}, {"type": "note_off", "time": 186, "note": 61, "velocity": 104, "channel": 0}, {"type": "note_on", "time": 32, "note": 58, "velocity": 91, "channel": 0}, {"type": "note_off", "time": 199, "note": 58, "velocity": 91, "channel": 0}, {"type": "note_on", "time": 113, "note": 67, "velocity": 106, "channel": 0}, {"type": "note_off", "time": 423, "note": 67, "velocity": 106, "channel": 0}, {"type": "note_on", "time": 1321, "note": 65, "velocity": 110, "channel": 0}, {"type": "note_off", "time": 299, "note": 65, "velocity": 110, "channel": 0}, {"type": "note_on", "time": 1, "note": 64, "velocity": 112, "channel": 0}, {"type": "note_off", "time": 412, "note": 64, "velocity": 112, "channel": 0}, {"type": "note_on", "time": 59, "note": 73, "velocity": 105, "channel": 0}, {"type": "note_off", "time": 246, "note": 73, "velocity": 105, "channel": 0}, {"type": "note_on", "time": 16, "note": 68, "velocity": 97, "channel": 0}, {"type": "note_off", "time": 159, "note": 68, "velocity": 97, "channel": 0}, {"type": "note_on", "time": 10, "note": 66, "velocity": 102, "channel": 0}, {"type": "note_off", "time": 100, "note": 66, "velocity": 102, "channel": 0}, {"type": "note_on", "time": 5, "note": 64, "velocity": 103, "channel": 0}, {"type": "note_off", "time": 60, "note": 64, "velocity": 103, "channel": 0}, {"type": "note_on", "time": 0, "note": 63, "velocity": 99, "channel": 0}, {"type": "note_off", "time": 247, "note": 63, "velocity": 99, "channel": 0}, {"type": "note_on", "time": 86, "note": 60, "velocity": 109, "channel": 0}, {"type": "note_off", "time": 159, "note": 60, "velocity": 109, "channel": 0}, {"type": "note_on", "time": 74, "note": 63, "velocity": 109, "channel": 0}, {"type": "note_off", "time": 526, "note": 63, "velocity": 109, "channel": 0}, {"type": "note_on", "time": 51, "note": 72, "velocity": 113, "channel": 0}, {"type": "note_off", "time": 299, "note": 72, "velocity": 113, "channel": 0}, {"type": "note_on", "time": 51, "note": 68, "velocity": 84, "channel": 0}, {"type": "note_off", "time": 136, "note": 68, "velocity": 84, "channel": 0}, {"type": "note_on", "time": 58, "note": 63, "velocity": 111, "channel": 0}, {"type": "note_off", "time": 258, "note": 63, "velocity": 111, "channel": 0}, {"type": "note_on", "time": 270, "note": 62, "velocity": 111, "channel": 0}, {"type": "note_off", "time": 608, "note": 62, "velocity": 111, "channel": 0}, {"type": "note_on", "time": 237, "note": 67, "velocity": 111, "channel": 0}, {"type": "note_off", "time": 206, "note": 67, "velocity": 111, "channel": 0}, {"type": "note_on", "time": 0, "note": 69, "velocity": 109, "channel": 0}, {"type": "note_off", "time": 225, "note": 69, "velocity": 109, "channel": 0}, {"type": "note_on", "time": 0, "note": 70, "velocity": 106, "channel": 0}, {"type": "note_off", "time": 185, "note": 70, "velocity": 106, "channel": 0}, {"type": "note_on", "time": 0, "note": 72, "velocity": 111, "channel": 0}, {"type": "note_off", "time": 195, "note": 72, "velocity": 111, "channel": 0}, {"type": "note_on", "time": 0, "note": 69, "velocity": 110, "channel": 0}, {"type": "note_off", "time": 185, "note": 69, "velocity": 110, "channel": 0}, {"type": "note_on", "time": 31, "note": 65, "velocity": 114, "channel": 0}, {"type": "note_off", "time": 206, "note": 65, "velocity": 114, "channel": 0}, {"type": "note_on", "time": 47, "note": 62, "velocity": 101, "channel": 0}, {"type": "note_off", "time": 157, "note": 62, "velocity": 101, "channel": 0}, {"type": "note_on", "time": 25, "note": 59, "velocity": 99, "channel": 0}, {"type": "note_off", "time": 150, "note": 59, "velocity": 99, "channel": 0}, {"type": "note_on", "time": 74, "note": 64, "velocity": 109, "channel": 0}, {"type": "note_off", "time": 175, "note": 64, "velocity": 109, "channel": 0}, {"type": "note_on", "time": 33, "note": 61, "velocity": 108, "channel": 0}, {"type": "note_off", "time": 157, "note": 61, "velocity": 108, "channel": 0}, {"type": "note_on", "time": 24, "note": 62, "velocity": 108, "channel": 0}, {"type": "note_off", "time": 175, "note": 62, "velocity": 108, "channel": 0}, {"type": "note_on", "time": 41, "note": 64, "velocity": 109, "channel": 0}, {"type": "note_off", "time": 175, "note": 64, "velocity": 109, "channel": 0}, {"type": "note_on", "time": 0, "note": 65, "velocity": 109, "channel": 0}, {"type": "note_off", "time": 195, "note": 65, "velocity": 109, "channel": 0}, {"type": "note_on", "time": 0, "note": 65, "velocity": 110, "channel": 0}, {"type": "note_off", "time": 61, "note": 65, "velocity": 110, "channel": 0}, {"type": "note_on", "time": 0, "note": 67, "velocity": 107, "channel": 0}, {"type": "note_on", "time": 184, "note": 69, "velocity": 108, "channel": 0}, {"type": "note_off", "time": 0, "note": 67, "velocity": 107, "channel": 0}, {"type": "note_off", "time": 165, "note": 69, "velocity": 108, "channel": 0}, {"type": "note_on", "time": 62, "note": 70, "velocity": 105, "channel": 0}, {"type": "note_off", "time": 134, "note": 70, "velocity": 105, "channel": 0}, {"type": "note_on", "time": 104, "note": 72, "velocity": 100, "channel": 0}, {"type": "note_off", "time": 443, "note": 72, "velocity": 100, "channel": 0}, {"type": "note_on", "time": 48, "note": 77, "velocity": 104, "channel": 0}, {"type": "note_off", "time": 681, "note": 77, "velocity": 104, "channel": 0}, {"type": "note_on", "time": 951, "note": 72, "velocity": 104, "channel": 0}, {"type": "note_off", "time": 474, "note": 72, "velocity": 104, "channel": 0}, {"type": "note_on", "time": 165, "note": 77, "velocity": 105, "channel": 0}, {"type": "note_off", "time": 423, "note": 77, "velocity": 105, "channel": 0}, {"type": "note_on", "time": 124, "note": 71, "velocity": 108, "channel": 0}, {"type": "note_off", "time": 175, "note": 71, "velocity": 108, "channel": 0}, {"type": "note_on", "time": 0, "note": 72, "velocity": 108, "channel": 0}, {"type": "note_off", "time": 278, "note": 72, "velocity": 108, "channel": 0}, {"type": "note_on", "time": 55, "note": 77, "velocity": 112, "channel": 0}, {"type": "note_off", "time": 522, "note": 77, "velocity": 112, "channel": 0}, {"type": "note_on", "time": 163, "note": 72, "velocity": 106, "channel": 0}, {"type": "note_off", "time": 371, "note": 72, "velocity": 106, "channel": 0}, {"type": "note_on", "time": 56, "note": 77, "velocity": 112, "channel": 0}, {"type": "note_off", "time": 435, "note": 77, "velocity": 112, "channel": 0}, {"type": "note_on", "time": 137, "note": 71, "velocity": 108, "channel": 0}, {"type": "note_off", "time": 134, "note": 71, "velocity": 108, "channel": 0}, {"type": "note_on", "time": 0, "note": 73, "velocity": 102, "channel": 0}, {"type": "note_off", "time": 330, "note": 73, "velocity": 102, "channel": 0}, {"type": "note_on", "time": 155, "note": 77, "velocity": 111, "channel": 0}, {"type": "note_off", "time": 381, "note": 77, "velocity": 111, "channel": 0}, {"type": "note_on", "time": 163, "note": 73, "velocity": 107, "channel": 0}, {"type": "note_off", "time": 443, "note": 73, "velocity": 107, "channel": 0}, {"type": "note_on", "time": 82, "note": 77, "velocity": 110, "channel": 0}, {"type": "note_off", "time": 417, "note": 77, "velocity": 110, "channel": 0}, {"type": "note_on", "time": 233, "note": 73, "velocity": 100, "channel": 0}, {"type": "note_off", "time": 402, "note": 73, "velocity": 100, "channel": 0}, {"type": "note_on", "time": 93, "note": 77, "velocity": 109, "channel": 0}, {"type": "note_off", "time": 455, "note": 77, "velocity": 109, "channel": 0}, {"type": "note_on", "time": 235, "note": 72, "velocity": 103, "channel": 0}, {"type": "note_off", "time": 61, "note": 72, "velocity": 103, "channel": 0}, {"type": "note_on", "time": 41, "note": 74, "velocity": 102, "channel": 0}, {"type": "note_off", "time": 299, "note": 74, "velocity": 102, "channel": 0}, {"type": "note_on", "time": 147, "note": 77, "velocity": 108, "channel": 0}, {"type": "note_off", "time": 362, "note": 77, "velocity": 108, "channel": 0}, {"type": "note_on", "time": 191, "note": 74, "velocity": 101, "channel": 0}, {"type": "note_off", "time": 443, "note": 74, "velocity": 101, "channel": 0}, {"type": "note_on", "time": 66, "note": 77, "velocity": 101, "channel": 0}, {"type": "note_off", "time": 474, "note": 77, "velocity": 101, "channel": 0}, {"type": "note_on", "time": 119, "note": 69, "velocity": 106, "channel": 0}, {"type": "note_off", "time": 40, "note": 69, "velocity": 106, "channel": 0}, {"type": "note_on", "time": 0, "note": 70, "velocity": 101, "channel": 0}, {"type": "note_off", "time": 51, "note": 70, "velocity": 101, "channel": 0}, {"type": "note_on", "time": 31, "note": 74, "velocity": 106, "channel": 0}, {"type": "note_off", "time": 247, "note": 74, "velocity": 106, "channel": 0}, {"type": "note_on", "time": 194, "note": 77, "velocity": 110, "channel": 0}, {"type": "note_off", "time": 485, "note": 77, "velocity": 110, "channel": 0}, {"type": "note_on", "time": 51, "note": 69, "velocity": 107, "channel": 0}, {"type": "note_off", "time": 61, "note": 69, "velocity": 107, "channel": 0}, {"type": "note_on", "time": 10, "note": 70, "velocity": 104, "channel": 0}, {"type": "note_on", "time": 103, "note": 73, "velocity": 107, "channel": 0}, {"type": "note_off", "time": 0, "note": 70, "velocity": 104, "channel": 0}, {"type": "note_off", "time": 268, "note": 73, "velocity": 107, "channel": 0}, {"type": "note_on", "time": 133, "note": 77, "velocity": 109, "channel": 0}, {"type": "note_off", "time": 392, "note": 77, "velocity": 109, "channel": 0}, {"type": "note_on", "time": 166, "note": 70, "velocity": 108, "channel": 0}, {"type": "note_off", "time": 133, "note": 70, "velocity": 108, "channel": 0}, {"type": "note_on", "time": 0, "note": 73, "velocity": 104, "channel": 0}, {"type": "note_off", "time": 299, "note": 73, "velocity": 104, "channel": 0}, {"type": "note_on", "time": 175, "note": 77, "velocity": 111, "channel": 0}, {"type": "note_off", "time": 454, "note": 77, "velocity": 111, "channel": 0}, {"type": "note_on", "time": 61, "note": 73, "velocity": 101, "channel": 0}, {"type": "note_off", "time": 371, "note": 73, "velocity": 101, "channel": 0}, {"type": "note_on", "time": 292, "note": 77, "velocity": 106, "channel": 0}, {"type": "note_off", "time": 410, "note": 77, "velocity": 106, "channel": 0}, {"type": "note_on", "time": 722, "note": 72, "velocity": 106, "channel": 0}, {"type": "note_off", "time": 340, "note": 72, "velocity": 106, "channel": 0}, {"type": "note_on", "time": 91, "note": 77, "velocity": 108, "channel": 0}, {"type": "note_off", "time": 350, "note": 77, "velocity": 108, "channel": 0}, {"type": "note_on", "time": 72, "note": 72, "velocity": 107, "channel": 0}, {"type": "note_off", "time": 206, "note": 72, "velocity": 107, "channel": 0}, {"type": "note_on", "time": 0, "note": 73, "velocity": 100, "channel": 0}, {"type": "note_off", "time": 227, "note": 73, "velocity": 100, "channel": 0}, {"type": "note_on", "time": 62, "note": 77, "velocity": 112, "channel": 0}, {"type": "note_off", "time": 381, "note": 77, "velocity": 112, "channel": 0}, {"type": "note_on", "time": 19, "note": 72, "velocity": 108, "channel": 0}, {"type": "note_off", "time": 309, "note": 72, "velocity": 108, "channel": 0}, {"type": "note_on", "time": 104, "note": 77, "velocity": 114, "channel": 0}, {"type": "note_off", "time": 361, "note": 77, "velocity": 114, "channel": 0}, {"type": "note_on", "time": 133, "note": 72, "velocity": 111, "channel": 0}, {"type": "note_off", "time": 278, "note": 72, "velocity": 111, "channel": 0}, {"type": "note_on", "time": 114, "note": 77, "velocity": 115, "channel": 0}, {"type": "note_off", "time": 495, "note": 77, "velocity": 115, "channel": 0}, {"type": "note_on", "time": 267, "note": 76, "velocity": 111, "channel": 0}, {"type": "note_off", "time": 144, "note": 76, "velocity": 111, "channel": 0}, {"type": "note_on", "time": 1, "note": 77, "velocity": 117, "channel": 0}, {"type": "note_off", "time": 122, "note": 77, "velocity": 117, "channel": 0}, {"type": "note_on", "time": 0, "note": 76, "velocity": 113, "channel": 0}, {"type": "note_off", "time": 216, "note": 76, "velocity": 113, "channel": 0}, {"type": "note_on", "time": 0, "note": 75, "velocity": 111, "channel": 0}, {"type": "note_off", "time": 278, "note": 75, "velocity": 111, "channel": 0}, {"type": "note_on", "time": 92, "note": 72, "velocity": 113, "channel": 0}, {"type": "note_off", "time": 381, "note": 72, "velocity": 113, "channel": 0}, {"type": "note_on", "time": 114, "note": 70, "velocity": 104, "channel": 0}, {"type": "note_off", "time": 319, "note": 70, "velocity": 104, "channel": 0}, {"type": "note_on", "time": 113, "note": 69, "velocity": 111, "channel": 0}, {"type": "note_off", "time": 381, "note": 69, "velocity": 111, "channel": 0}, {"type": "note_on", "time": 100, "note": 67, "velocity": 108, "channel": 0}, {"type": "note_off", "time": 319, "note": 67, "velocity": 108, "channel": 0}, {"type": "note_on", "time": 51, "note": 65, "velocity": 109, "channel": 0}, {"type": "note_off", "time": 340, "note": 65, "velocity": 109, "channel": 0}, {"type": "note_on", "time": 32, "note": 64, "velocity": 112, "channel": 0}, {"type": "note_off", "time": 340, "note": 64, "velocity": 112, "channel": 0}, {"type": "note_on", "time": 41, "note": 63, "velocity": 99, "channel": 0}, {"type": "note_off", "time": 402, "note": 63, "velocity": 99, "channel": 0}, {"type": "note_on", "time": 196, "note": 70, "velocity": 103, "channel": 0}, {"type": "note_off", "time": 237, "note": 70, "velocity": 103, "channel": 0}, {"type": "note_on", "time": 164, "note": 74, "velocity": 111, "channel": 0}, {"type": "note_off", "time": 598, "note": 74, "velocity": 111, "channel": 0}, {"type": "note_on", "time": 0, "note": 72, "velocity": 113, "channel": 0}, {"type": "note_off", "time": 433, "note": 72, "velocity": 113, "channel": 0}, {"type": "note_on", "time": 94, "note": 65, "velocity": 104, "channel": 0}, {"type": "note_off", "time": 635, "note": 65, "velocity": 104, "channel": 0}, {"type": "note_on", "time": 1345, "note": 70, "velocity": 106, "channel": 0}, {"type": "note_off", "time": 122, "note": 70, "velocity": 106, "channel": 0}, {"type": "note_on", "time": 0, "note": 71, "velocity": 101, "channel": 0}, {"type": "note_off", "time": 485, "note": 71, "velocity": 101, "channel": 0}, {"type": "note_on", "time": 21, "note": 67, "velocity": 104, "channel": 0}, {"type": "note_off", "time": 268, "note": 67, "velocity": 104, "channel": 0}, {"type": "note_on", "time": 0, "note": 66, "velocity": 110, "channel": 0}, {"type": "note_off", "time": 258, "note": 66, "velocity": 110, "channel": 0}, {"type": "note_on", "time": 64, "note": 62, "velocity": 108, "channel": 0}, {"type": "note_off", "time": 129, "note": 62, "velocity": 108, "channel": 0}, {"type": "note_on", "time": 0, "note": 66, "velocity": 98, "channel": 0}, {"type": "note_off", "time": 175, "note": 66, "velocity": 98, "channel": 0}, {"type": "note_on", "time": 43, "note": 67, "velocity": 109, "channel": 0}, {"type": "note_off", "time": 196, "note": 67, "velocity": 109, "channel": 0}, {"type": "note_on", "time": 17, "note": 69, "velocity": 109, "channel": 0}, {"type": "note_off", "time": 154, "note": 69, "velocity": 109, "channel": 0}, {"type": "note_on", "time": 70, "note": 66, "velocity": 106, "channel": 0}, {"type": "note_off", "time": 134, "note": 66, "velocity": 106, "channel": 0}, {"type": "note_on", "time": 0, "note": 67, "velocity": 105, "channel": 0}, {"type": "note_off", "time": 257, "note": 67, "velocity": 105, "channel": 0}, {"type": "note_on", "time": 0, "note": 69, "velocity": 109, "channel": 0}, {"type": "note_off", "time": 216, "note": 69, "velocity": 109, "channel": 0}, {"type": "note_on", "time": 41, "note": 70, "velocity": 104, "channel": 0}, {"type": "note_off", "time": 134, "note": 70, "velocity": 104, "channel": 0}, {"type": "note_on", "time": 0, "note": 71, "velocity": 106, "channel": 0}, {"type": "note_off", "time": 51, "note": 71, "velocity": 106, "channel": 0}, {"type": "note_on", "time": 39, "note": 72, "velocity": 105, "channel": 0}, {"type": "note_off", "time": 59, "note": 72, "velocity": 105, "channel": 0}, {"type": "note_on", "time": 7, "note": 74, "velocity": 111, "channel": 0}, {"type": "note_off", "time": 118, "note": 74, "velocity": 111, "channel": 0}, {"type": "note_on", "time": 175, "note": 70, "velocity": 105, "channel": 0}, {"type": "note_off", "time": 216, "note": 70, "velocity": 105, "channel": 0}, {"type": "note_on", "time": 10, "note": 69, "velocity": 104, "channel": 0}, {"type": "note_off", "time": 154, "note": 69, "velocity": 104, "channel": 0}, {"type": "note_on", "time": 30, "note": 67, "velocity": 104, "channel": 0}, {"type": "note_off", "time": 185, "note": 67, "velocity": 104, "channel": 0}, {"type": "note_on", "time": 1, "note": 66, "velocity": 110, "channel": 0}, {"type": "note_on", "time": 225, "note": 67, "velocity": 105, "channel": 0}, {"type": "note_off", "time": 0, "note": 66, "velocity": 110, "channel": 0}, {"type": "note_off", "time": 185, "note": 67, "velocity": 105, "channel": 0}, {"type": "note_on", "time": 0, "note": 72, "velocity": 108, "channel": 0}, {"type": "note_off", "time": 195, "note": 72, "velocity": 108, "channel": 0}, {"type": "note_on", "time": 0, "note": 70, "velocity": 104, "channel": 0}, {"type": "note_off", "time": 172, "note": 70, "velocity": 104, "channel": 0}, {"type": "note_on", "time": 0, "note": 65, "velocity": 106, "channel": 0}, {"type": "note_off", "time": 152, "note": 65, "velocity": 106, "channel": 0}, {"type": "note_on", "time": 123, "note": 67, "velocity": 98, "channel": 0}, {"type": "note_on", "time": 58, "note": 68, "velocity": 114, "channel": 0}, {"type": "note_off", "time": 0, "note": 67, "velocity": 98, "channel": 0}, {"type": "note_off", "time": 168, "note": 68, "velocity": 114, "channel": 0}, {"type": "note_on", "time": 61, "note": 69, "velocity": 108, "channel": 0}, {"type": "note_off", "time": 70, "note": 69, "velocity": 108, "channel": 0}, {"type": "note_on", "time": 5, "note": 67, "velocity": 111, "channel": 0}, {"type": "note_off", "time": 215, "note": 67, "velocity": 111, "channel": 0}, {"type": "note_on", "time": 127, "note": 71, "velocity": 112, "channel": 0}, {"type": "note_off", "time": 196, "note": 71, "velocity": 112, "channel": 0}, {"type": "note_on", "time": 71, "note": 67, "velocity": 105, "channel": 0}, {"type": "note_off", "time": 196, "note": 67, "velocity": 105, "channel": 0}, {"type": "note_on", "time": 1, "note": 66, "velocity": 109, "channel": 0}, {"type": "note_off", "time": 402, "note": 66, "velocity": 109, "channel": 0}, {"type": "note_on", "time": 29, "note": 69, "velocity": 109, "channel": 0}, {"type": "note_off", "time": 206, "note": 69, "velocity": 109, "channel": 0}, {"type": "note_on", "time": 21, "note": 65, "velocity": 109, "channel": 0}, {"type": "note_off", "time": 175, "note": 65, "velocity": 109, "channel": 0}, {"type": "note_on", "time": 0, "note": 64, "velocity": 113, "channel": 0}, {"type": "note_off", "time": 227, "note": 64, "velocity": 113, "channel": 0}, {"type": "note_on", "time": 0, "note": 63, "velocity": 109, "channel": 0}, {"type": "note_off", "time": 196, "note": 63, "velocity": 109, "channel": 0}, {"type": "note_on", "time": 10, "note": 67, "velocity": 107, "channel": 0}, {"type": "note_off", "time": 227, "note": 67, "velocity": 107, "channel": 0}, {"type": "note_on", "time": 9, "note": 63, "velocity": 108, "channel": 0}, {"type": "note_off", "time": 165, "note": 63, "velocity": 108, "channel": 0}, {"type": "note_on", "time": 41, "note": 62, "velocity": 104, "channel": 0}, {"type": "note_off", "time": 185, "note": 62, "velocity": 104, "channel": 0}, {"type": "note_on", "time": 20, "note": 61, "velocity": 113, "channel": 0}, {"type": "note_off", "time": 175, "note": 61, "velocity": 113, "channel": 0}, {"type": "note_on", "time": 21, "note": 65, "velocity": 112, "channel": 0}, {"type": "note_off", "time": 237, "note": 65, "velocity": 112, "channel": 0}, {"type": "note_on", "time": 33, "note": 61, "velocity": 111, "channel": 0}, {"type": "note_off", "time": 197, "note": 61, "velocity": 111, "channel": 0}, {"type": "note_on", "time": 0, "note": 60, "velocity": 113, "channel": 0}, {"type": "note_off", "time": 183, "note": 60, "velocity": 113, "channel": 0}, {"type": "note_on", "time": 7, "note": 59, "velocity": 106, "channel": 0}, {"type": "note_off", "time": 154, "note": 59, "velocity": 106, "channel": 0}, {"type": "note_on", "time": 40, "note": 63, "velocity": 108, "channel": 0}, {"type": "note_off", "time": 196, "note": 63, "velocity": 108, "channel": 0}, {"type": "note_on", "time": 28, "note": 59, "velocity": 102, "channel": 0}, {"type": "note_off", "time": 128, "note": 59, "velocity": 102, "channel": 0}, {"type": "note_on", "time": 60, "note": 58, "velocity": 106, "channel": 0}, {"type": "note_off", "time": 144, "note": 58, "velocity": 106, "channel": 0}, {"type": "note_on", "time": 12, "note": 57, "velocity": 111, "channel": 0}, {"type": "note_off", "time": 168, "note": 57, "velocity": 111, "channel": 0}, {"type": "note_on", "time": 65, "note": 61, "velocity": 115, "channel": 0}, {"type": "note_off", "time": 88, "note": 61, "velocity": 115, "channel": 0}, {"type": "note_on", "time": 57, "note": 56, "velocity": 97, "channel": 0}, {"type": "note_off", "time": 237, "note": 56, "velocity": 97, "channel": 0}, {"type": "note_on", "time": 33, "note": 55, "velocity": 105, "channel": 0}, {"type": "note_off", "time": 293, "note": 55, "velocity": 105, "channel": 0}, {"type": "note_on", "time": 124, "note": 59, "velocity": 105, "channel": 0}, {"type": "note_off", "time": 113, "note": 59, "velocity": 105, "channel": 0}, {"type": "note_on", "time": 48, "note": 55, "velocity": 103, "channel": 0}, {"type": "note_off", "time": 159, "note": 55, "velocity": 103, "channel": 0}, {"type": "note_on", "time": 14, "note": 54, "velocity": 104, "channel": 0}, {"type": "note_off", "time": 166, "note": 54, "velocity": 104, "channel": 0}, {"type": "note_on", "time": 33, "note": 53, "velocity": 104, "channel": 0}, {"type": "note_off", "time": 237, "note": 53, "velocity": 104, "channel": 0}, {"type": "note_on", "time": 31, "note": 57, "velocity": 107, "channel": 0}, {"type": "note_off", "time": 196, "note": 57, "velocity": 107, "channel": 0}, {"type": "note_on", "time": 6, "note": 53, "velocity": 109, "channel": 0}, {"type": "note_off", "time": 181, "note": 53, "velocity": 109, "channel": 0}, {"type": "note_on", "time": 25, "note": 52, "velocity": 111, "channel": 0}, {"type": "note_off", "time": 108, "note": 52, "velocity": 111, "channel": 0}, {"type": "note_on", "time": 10, "note": 51, "velocity": 109, "channel": 0}, {"type": "note_off", "time": 308, "note": 51, "velocity": 109, "channel": 0}, {"type": "note_on", "time": 965, "note": 51, "velocity": 110, "channel": 0}, {"type": "note_off", "time": 192, "note": 51, "velocity": 110, "channel": 0}, {"type": "note_on", "time": 3, "note": 50, "velocity": 105, "channel": 0}, {"type": "note_off", "time": 214, "note": 50, "velocity": 105, "channel": 0}, {"type": "note_on", "time": 76, "note": 49, "velocity": 112, "channel": 0}, {"type": "note_off", "time": 170, "note": 49, "velocity": 112, "channel": 0}, {"type": "note_on", "time": 10, "note": 53, "velocity": 110, "channel": 0}, {"type": "note_off", "time": 188, "note": 53, "velocity": 110, "channel": 0}, {"type": "note_on", "time": 0, "note": 49, "velocity": 116, "channel": 0}, {"type": "note_off", "time": 239, "note": 49, "velocity": 116, "channel": 0}, {"type": "note_on", "time": 65, "note": 48, "velocity": 112, "channel": 0}, {"type": "note_off", "time": 130, "note": 48, "velocity": 112, "channel": 0}, {"type": "note_on", "time": 7, "note": 47, "velocity": 107, "channel": 0}, {"type": "note_off", "time": 94, "note": 47, "velocity": 107, "channel": 0}, {"type": "note_on", "time": 72, "note": 47, "velocity": 108, "channel": 0}, {"type": "note_off", "time": 152, "note": 47, "velocity": 108, "channel": 0}, {"type": "note_on", "time": 0, "note": 51, "velocity": 123, "channel": 0}, {"type": "note_off", "time": 185, "note": 51, "velocity": 123, "channel": 0}, {"type": "note_on", "time": 46, "note": 47, "velocity": 117, "channel": 0}, {"type": "note_off", "time": 168, "note": 47, "velocity": 117, "channel": 0}, {"type": "note_on", "time": 0, "note": 46, "velocity": 116, "channel": 0}, {"type": "note_off", "time": 221, "note": 46, "velocity": 116, "channel": 0}, {"type": "note_on", "time": 30, "note": 45, "velocity": 117, "channel": 0}, {"type": "note_off", "time": 397, "note": 45, "velocity": 117, "channel": 0}, {"type": "note_on", "time": 121, "note": 50, "velocity": 109, "channel": 0}, {"type": "note_off", "time": 288, "note": 50, "velocity": 109, "channel": 0}, {"type": "note_on", "time": 0, "note": 53, "velocity": 106, "channel": 0}, {"type": "note_off", "time": 258, "note": 53, "velocity": 106, "channel": 0}, {"type": "note_on", "time": 72, "note": 57, "velocity": 101, "channel": 0}, {"type": "note_off", "time": 165, "note": 57, "velocity": 101, "channel": 0}, {"type": "note_on", "time": 88, "note": 62, "velocity": 100, "channel": 0}, {"type": "note_off", "time": 224, "note": 62, "velocity": 100, "channel": 0}, {"type": "note_on", "time": 47, "note": 65, "velocity": 114, "channel": 0}, {"type": "note_off", "time": 227, "note": 65, "velocity": 114, "channel": 0}, {"type": "note_on", "time": 52, "note": 69, "velocity": 105, "channel": 0}, {"type": "note_off", "time": 227, "note": 69, "velocity": 105, "channel": 0}, {"type": "note_on", "time": 45, "note": 75, "velocity": 107, "channel": 0}, {"type": "note_off", "time": 199, "note": 75, "velocity": 107, "channel": 0}, {"type": "note_on", "time": 65, "note": 77, "velocity": 107, "channel": 0}, {"type": "note_off", "time": 827, "note": 77, "velocity": 107, "channel": 0}, {"type": "note_on", "time": 450, "note": 77, "velocity": 105, "channel": 0}, {"type": "note_off", "time": 216, "note": 77, "velocity": 105, "channel": 0}, {"type": "note_on", "time": 0, "note": 76, "velocity": 104, "channel": 0}, {"type": "note_off", "time": 185, "note": 76, "velocity": 104, "channel": 0}, {"type": "note_on", "time": 0, "note": 74, "velocity": 105, "channel": 0}, {"type": "note_off", "time": 237, "note": 74, "velocity": 105, "channel": 0}, {"type": "note_on", "time": 164, "note": 72, "velocity": 114, "channel": 0}, {"type": "note_off", "time": 330, "note": 72, "velocity": 114, "channel": 0}, {"type": "note_on", "time": 155, "note": 70, "velocity": 108, "channel": 0}, {"type": "note_off", "time": 278, "note": 70, "velocity": 108, "channel": 0}, {"type": "note_on", "time": 41, "note": 69, "velocity": 109, "channel": 0}, {"type": "note_off", "time": 454, "note": 69, "velocity": 109, "channel": 0}, {"type": "note_on", "time": 24, "note": 65, "velocity": 106, "channel": 0}, {"type": "note_off", "time": 250, "note": 65, "velocity": 106, "channel": 0}, {"type": "note_on", "time": 106, "note": 67, "velocity": 107, "channel": 0}, {"type": "note_off", "time": 299, "note": 67, "velocity": 107, "channel": 0}, {"type": "note_on", "time": 1073, "note": 62, "velocity": 117, "channel": 0}, {"type": "note_off", "time": 350, "note": 62, "velocity": 117, "channel": 0}, {"type": "note_on", "time": 0, "note": 74, "velocity": 110, "channel": 0}, {"type": "note_off", "time": 371, "note": 74, "velocity": 110, "channel": 0}, {"type": "note_on", "time": 0, "note": 74, "velocity": 114, "channel": 0}, {"type": "note_off", "time": 381, "note": 74, "velocity": 114, "channel": 0}, {"type": "note_on", "time": 21, "note": 72, "velocity": 108, "channel": 0}, {"type": "note_off", "time": 333, "note": 72, "velocity": 108, "channel": 0}, {"type": "note_on", "time": 265, "note": 65, "velocity": 113, "channel": 0}, {"type": "note_off", "time": 526, "note": 65, "velocity": 113, "channel": 0}, {"type": "note_on", "time": 638, "note": 74, "velocity": 112, "channel": 0}, {"type": "note_off", "time": 536, "note": 74, "velocity": 112, "channel": 0}, {"type": "note_on", "time": 0, "note": 66, "velocity": 112, "channel": 0}, {"type": "note_off", "time": 650, "note": 66, "velocity": 112, "channel": 0}, {"type": "note_on", "time": 516, "note": 74, "velocity": 114, "channel": 0}, {"type": "note_off", "time": 505, "note": 74, "velocity": 114, "channel": 0}, {"type": "note_on", "time": 104, "note": 67, "velocity": 106, "channel": 0}, {"type": "note_off", "time": 557, "note": 67, "velocity": 106, "channel": 0}, {"type": "note_on", "time": 454, "note": 72, "velocity": 109, "channel": 0}, {"type": "note_off", "time": 61, "note": 72, "velocity": 109, "channel": 0}, {"type": "note_on", "time": 9, "note": 74, "velocity": 110, "channel": 0}, {"type": "note_off", "time": 433, "note": 74, "velocity": 110, "channel": 0}, {"type": "note_on", "time": 0, "note": 72, "velocity": 101, "channel": 0}, {"type": "note_off", "time": 299, "note": 72, "velocity": 101, "channel": 0}, {"type": "note_on", "time": 89, "note": 79, "velocity": 99, "channel": 0}, {"type": "note_off", "time": 567, "note": 79, "velocity": 99, "channel": 0}, {"type": "note_on", "time": 272, "note": 76, "velocity": 99, "channel": 0}, {"type": "note_off", "time": 526, "note": 76, "velocity": 99, "channel": 0}, {"type": "note_on", "time": 79, "note": 72, "velocity": 104, "channel": 0}, {"type": "note_off", "time": 796, "note": 72, "velocity": 104, "channel": 0}, {"type": "note_on", "time": 775, "note": 69, "velocity": 104, "channel": 0}, {"type": "note_off", "time": 113, "note": 69, "velocity": 104, "channel": 0}, {"type": "note_on", "time": 19, "note": 70, "velocity": 96, "channel": 0}, {"type": "note_off", "time": 165, "note": 70, "velocity": 96, "channel": 0}, {"type": "note_on", "time": 21, "note": 71, "velocity": 102, "channel": 0}, {"type": "note_off", "time": 184, "note": 71, "velocity": 102, "channel": 0}, {"type": "note_on", "time": 0, "note": 72, "velocity": 103, "channel": 0}, {"type": "note_off", "time": 412, "note": 72, "velocity": 103, "channel": 0}, {"type": "note_on", "time": 165, "note": 69, "velocity": 108, "channel": 0}, {"type": "note_off", "time": 154, "note": 69, "velocity": 108, "channel": 0}, {"type": "note_on", "time": 124, "note": 70, "velocity": 112, "channel": 0}, {"type": "note_off", "time": 309, "note": 70, "velocity": 112, "channel": 0}, {"type": "note_on", "time": 92, "note": 70, "velocity": 106, "channel": 0}, {"type": "note_off", "time": 299, "note": 70, "velocity": 106, "channel": 0}, {"type": "note_on", "time": 1, "note": 69, "velocity": 110, "channel": 0}, {"type": "note_off", "time": 381, "note": 69, "velocity": 110, "channel": 0}, {"type": "note_on", "time": 174, "note": 67, "velocity": 111, "channel": 0}, {"type": "note_off", "time": 815, "note": 67, "velocity": 111, "channel": 0}, {"type": "note_on", "time": 93, "note": 65, "velocity": 107, "channel": 0}, {"type": "note_off", "time": 454, "note": 65, "velocity": 107, "channel": 0}, {"type": "note_on", "time": 369, "note": 62, "velocity": 112, "channel": 0}, {"type": "note_off", "time": 299, "note": 62, "velocity": 112, "channel": 0}, {"type": "note_on", "time": 30, "note": 61, "velocity": 110, "channel": 0}, {"type": "note_off", "time": 453, "note": 61, "velocity": 110, "channel": 0}, {"type": "note_on", "time": 0, "note": 64, "velocity": 105, "channel": 0}, {"type": "note_off", "time": 299, "note": 64, "velocity": 105, "channel": 0}, {"type": "note_on", "time": 92, "note": 67, "velocity": 107, "channel": 0}, {"type": "note_off", "time": 381, "note": 67, "velocity": 107, "channel": 0}, {"type": "note_on", "time": 146, "note": 69, "velocity": 115, "channel": 0}, {"type": "note_off", "time": 350, "note": 69, "velocity": 115, "channel": 0}, {"type": "note_on", "time": 41, "note": 68, "velocity": 102, "channel": 0}, {"type": "note_off", "time": 337, "note": 68, "velocity": 102, "channel": 0}, {"type": "note_on", "time": 29, "note": 67, "velocity": 108, "channel": 0}, {"type": "note_off", "time": 616, "note": 67, "velocity": 108, "channel": 0}, {"type": "note_on", "time": 304, "note": 64, "velocity": 118, "channel": 0}, {"type": "note_off", "time": 340, "note": 64, "velocity": 118, "channel": 0}, {"type": "note_on", "time": 29, "note": 61, "velocity": 114, "channel": 0}, {"type": "note_off", "time": 402, "note": 61, "velocity": 114, "channel": 0}, {"type": "note_on", "time": 54, "note": 57, "velocity": 105, "channel": 0}, {"type": "note_off", "time": 203, "note": 57, "velocity": 105, "channel": 0}, {"type": "note_on", "time": 76, "note": 62, "velocity": 108, "channel": 0}, {"type": "note_off", "time": 227, "note": 62, "velocity": 108, "channel": 0}, {"type": "note_on", "time": 16, "note": 65, "velocity": 111, "channel": 0}, {"type": "note_off", "time": 152, "note": 65, "velocity": 111, "channel": 0}, {"type": "note_on", "time": 43, "note": 64, "velocity": 119, "channel": 0}, {"type": "note_off", "time": 137, "note": 64, "velocity": 119, "channel": 0}, {"type": "note_on", "time": 72, "note": 62, "velocity": 101, "channel": 0}, {"type": "note_off", "time": 110, "note": 62, "velocity": 101, "channel": 0}, {"type": "note_on", "time": 65, "note": 67, "velocity": 105, "channel": 0}, {"type": "note_off", "time": 206, "note": 67, "velocity": 105, "channel": 0}, {"type": "note_on", "time": 51, "note": 67, "velocity": 102, "channel": 0}, {"type": "note_off", "time": 134, "note": 67, "velocity": 102, "channel": 0}, {"type": "note_on", "time": 484, "note": 60, "velocity": 108, "channel": 0}, {"type": "note_off", "time": 227, "note": 60, "velocity": 108, "channel": 0}, {"type": "note_on", "time": 11, "note": 63, "velocity": 112, "channel": 0}, {"type": "note_off", "time": 123, "note": 63, "velocity": 112, "channel": 0}, {"type": "note_on", "time": 0, "note": 62, "velocity": 111, "channel": 0}, {"type": "note_off", "time": 247, "note": 62, "velocity": 111, "channel": 0}, {"type": "note_on", "time": 235, "note": 65, "velocity": 111, "channel": 0}, {"type": "note_off", "time": 196, "note": 65, "velocity": 111, "channel": 0}, {"type": "note_on", "time": 31, "note": 61, "velocity": 114, "channel": 0}, {"type": "note_off", "time": 185, "note": 61, "velocity": 114, "channel": 0}, {"type": "note_on", "time": 0, "note": 62, "velocity": 109, "channel": 0}, {"type": "note_off", "time": 174, "note": 62, "velocity": 109, "channel": 0}, {"type": "note_on", "time": 0, "note": 63, "velocity": 110, "channel": 0}, {"type": "note_off", "time": 257, "note": 63, "velocity": 110, "channel": 0}, {"type": "note_on", "time": 0, "note": 62, "velocity": 108, "channel": 0}, {"type": "note_off", "time": 185, "note": 62, "velocity": 108, "channel": 0}, {"type": "note_on", "time": 37, "note": 58, "velocity": 101, "channel": 0}, {"type": "note_off", "time": 123, "note": 58, "velocity": 101, "channel": 0}, {"type": "note_on", "time": 48, "note": 53, "velocity": 102, "channel": 0}, {"type": "note_off", "time": 195, "note": 53, "velocity": 102, "channel": 0}, {"type": "note_on", "time": 14, "note": 52, "velocity": 102, "channel": 0}, {"type": "note_off", "time": 148, "note": 52, "velocity": 102, "channel": 0}, {"type": "note_on", "time": 38, "note": 50, "velocity": 108, "channel": 0}, {"type": "note_off", "time": 232, "note": 50, "velocity": 108, "channel": 0}, {"type": "note_on", "time": 139, "note": 53, "velocity": 99, "channel": 0}, {"type": "note_off", "time": 143, "note": 53, "velocity": 99, "channel": 0}, {"type": "note_on", "time": 0, "note": 57, "velocity": 105, "channel": 0}, {"type": "note_off", "time": 144, "note": 57, "velocity": 105, "channel": 0}, {"type": "note_on", "time": 0, "note": 56, "velocity": 99, "channel": 0}, {"type": "note_off", "time": 41, "note": 56, "velocity": 99, "channel": 0}, {"type": "note_on", "time": 51, "note": 60, "velocity": 112, "channel": 0}, {"type": "note_off", "time": 165, "note": 60, "velocity": 112, "channel": 0}, {"type": "note_on", "time": 30, "note": 58, "velocity": 107, "channel": 0}, {"type": "note_off", "time": 185, "note": 58, "velocity": 107, "channel": 0}, {"type": "note_on", "time": 38, "note": 61, "velocity": 111, "channel": 0}, {"type": "note_off", "time": 110, "note": 61, "velocity": 111, "channel": 0}, {"type": "note_on", "time": 5, "note": 62, "velocity": 104, "channel": 0}, {"type": "note_off", "time": 143, "note": 62, "velocity": 104, "channel": 0}, {"type": "note_on", "time": 50, "note": 63, "velocity": 106, "channel": 0}, {"type": "note_off", "time": 75, "note": 63, "velocity": 106, "channel": 0}, {"type": "note_on", "time": 0, "note": 65, "velocity": 104, "channel": 0}, {"type": "note_off", "time": 144, "note": 65, "velocity": 104, "channel": 0}, {"type": "note_on", "time": 0, "note": 70, "velocity": 110, "channel": 0}, {"type": "note_off", "time": 278, "note": 70, "velocity": 110, "channel": 0}, {"type": "note_on", "time": 908, "note": 69, "velocity": 113, "channel": 0}, {"type": "note_off", "time": 516, "note": 69, "velocity": 113, "channel": 0}, {"type": "note_on", "time": 217, "note": 77, "velocity": 88, "channel": 0}, {"type": "note_off", "time": 239, "note": 77, "velocity": 88, "channel": 0}, {"type": "note_on", "time": 171, "note": 73, "velocity": 111, "channel": 0}, {"type": "note_off", "time": 216, "note": 73, "velocity": 111, "channel": 0}, {"type": "note_on", "time": 62, "note": 76, "velocity": 10, "channel": 0}, {"type": "note_off", "time": 278, "note": 76, "velocity": 10, "channel": 0}, {"type": "note_on", "time": 41, "note": 73, "velocity": 108, "channel": 0}, {"type": "note_off", "time": 132, "note": 73, "velocity": 108, "channel": 0}, {"type": "note_on", "time": 43, "note": 69, "velocity": 108, "channel": 0}, {"type": "note_off", "time": 175, "note": 69, "velocity": 108, "channel": 0}, {"type": "note_on", "time": 35, "note": 65, "velocity": 113, "channel": 0}, {"type": "note_off", "time": 70, "note": 65, "velocity": 113, "channel": 0}, {"type": "note_on", "time": 68, "note": 64, "velocity": 118, "channel": 0}, {"type": "note_off", "time": 319, "note": 64, "velocity": 118, "channel": 0}, {"type": "note_on", "time": 0, "note": 62, "velocity": 112, "channel": 0}, {"type": "note_off", "time": 258, "note": 62, "velocity": 112, "channel": 0}, {"type": "note_on", "time": 1073, "note": 73, "velocity": 115, "channel": 0}, {"type": "note_off", "time": 979, "note": 73, "velocity": 115, "channel": 0}, {"type": "note_on", "time": 0, "note": 72, "velocity": 115, "channel": 0}, {"type": "note_off", "time": 154, "note": 72, "velocity": 115, "channel": 0}, {"type": "note_on", "time": 11, "note": 69, "velocity": 109, "channel": 0}, {"type": "note_off", "time": 196, "note": 69, "velocity": 109, "channel": 0}, {"type": "note_on", "time": 12, "note": 71, "velocity": 119, "channel": 0}, {"type": "note_on", "time": 103, "note": 73, "velocity": 117, "channel": 0}, {"type": "note_off", "time": 0, "note": 71, "velocity": 119, "channel": 0}, {"type": "note_off", "time": 273, "note": 73, "velocity": 117, "channel": 0}, {"type": "note_on", "time": 94, "note": 69, "velocity": 108, "channel": 0}, {"type": "note_off", "time": 123, "note": 69, "velocity": 108, "channel": 0}, {"type": "note_on", "time": 10, "note": 65, "velocity": 113, "channel": 0}, {"type": "note_off", "time": 185, "note": 65, "velocity": 113, "channel": 0}, {"type": "note_on", "time": 23, "note": 62, "velocity": 119, "channel": 0}, {"type": "note_off", "time": 228, "note": 62, "velocity": 119, "channel": 0}, {"type": "note_on", "time": 319, "note": 65, "velocity": 115, "channel": 0}, {"type": "note_off", "time": 103, "note": 65, "velocity": 115, "channel": 0}, {"type": "note_on", "time": 38, "note": 68, "velocity": 116, "channel": 0}, {"type": "note_off", "time": 175, "note": 68, "velocity": 116, "channel": 0}, {"type": "note_on", "time": 20, "note": 70, "velocity": 115, "channel": 0}, {"type": "note_off", "time": 206, "note": 70, "velocity": 115, "channel": 0}, {"type": "note_on", "time": 40, "note": 65, "velocity": 117, "channel": 0}, {"type": "note_off", "time": 144, "note": 65, "velocity": 117, "channel": 0}, {"type": "note_on", "time": 27, "note": 63, "velocity": 115, "channel": 0}, {"type": "note_off", "time": 130, "note": 63, "velocity": 115, "channel": 0}, {"type": "note_on", "time": 17, "note": 64, "velocity": 110, "channel": 0}, {"type": "note_off", "time": 175, "note": 64, "velocity": 110, "channel": 0}, {"type": "note_on", "time": 0, "note": 66, "velocity": 118, "channel": 0}, {"type": "note_off", "time": 175, "note": 66, "velocity": 118, "channel": 0}, {"type": "note_on", "time": 21, "note": 62, "velocity": 117, "channel": 0}, {"type": "note_off", "time": 234, "note": 62, "velocity": 117, "channel": 0}, {"type": "note_on", "time": 21, "note": 58, "velocity": 113, "channel": 0}, {"type": "note_off", "time": 92, "note": 58, "velocity": 113, "channel": 0}, {"type": "note_on", "time": 54, "note": 60, "velocity": 122, "channel": 0}, {"type": "note_off", "time": 175, "note": 60, "velocity": 122, "channel": 0}, {"type": "note_on", "time": 9, "note": 62, "velocity": 114, "channel": 0}, {"type": "note_off", "time": 123, "note": 62, "velocity": 114, "channel": 0}, {"type": "note_on", "time": 59, "note": 57, "velocity": 118, "channel": 0}, {"type": "note_off", "time": 79, "note": 57, "velocity": 118, "channel": 0}, {"type": "note_on", "time": 10, "note": 56, "velocity": 110, "channel": 0}, {"type": "note_off", "time": 61, "note": 56, "velocity": 110, "channel": 0}, {"type": "note_on", "time": 58, "note": 54, "velocity": 116, "channel": 0}, {"type": "note_off", "time": 134, "note": 54, "velocity": 116, "channel": 0}, {"type": "note_on", "time": 45, "note": 56, "velocity": 110, "channel": 0}, {"type": "note_off", "time": 112, "note": 56, "velocity": 110, "channel": 0}, {"type": "note_on", "time": 130, "note": 58, "velocity": 119, "channel": 0}, {"type": "note_off", "time": 185, "note": 58, "velocity": 119, "channel": 0}, {"type": "note_on", "time": 50, "note": 56, "velocity": 119, "channel": 0}, {"type": "note_off", "time": 196, "note": 56, "velocity": 119, "channel": 0}, {"type": "note_on", "time": 1, "note": 57, "velocity": 110, "channel": 0}, {"type": "note_off", "time": 443, "note": 57, "velocity": 110, "channel": 0}, {"type": "note_on", "time": 50, "note": 58, "velocity": 112, "channel": 0}, {"type": "note_off", "time": 350, "note": 58, "velocity": 112, "channel": 0}, {"type": "note_on", "time": 1, "note": 60, "velocity": 114, "channel": 0}, {"type": "note_off", "time": 381, "note": 60, "velocity": 114, "channel": 0}, {"type": "note_on", "time": 123, "note": 69, "velocity": 108, "channel": 0}, {"type": "note_off", "time": 763, "note": 69, "velocity": 108, "channel": 0}, {"type": "note_on", "time": 71, "note": 70, "velocity": 110, "channel": 0}, {"type": "note_off", "time": 299, "note": 70, "velocity": 110, "channel": 0}, {"type": "note_on", "time": 1, "note": 72, "velocity": 115, "channel": 0}, {"type": "note_off", "time": 412, "note": 72, "velocity": 115, "channel": 0}, {"type": "note_on", "time": 97, "note": 57, "velocity": 107, "channel": 0}, {"type": "note_off", "time": 722, "note": 57, "velocity": 107, "channel": 0}, {"type": "note_on", "time": 140, "note": 58, "velocity": 107, "channel": 0}, {"type": "note_off", "time": 340, "note": 58, "velocity": 107, "channel": 0}, {"type": "note_on", "time": 39, "note": 60, "velocity": 112, "channel": 0}, {"type": "note_off", "time": 165, "note": 60, "velocity": 112, "channel": 0}, {"type": "note_on", "time": 765, "note": 45, "velocity": 127, "channel": 0}, {"type": "note_off", "time": 319, "note": 45, "velocity": 127, "channel": 0}, {"type": "note_on", "time": 382, "note": 57, "velocity": 109, "channel": 0}, {"type": "note_off", "time": 412, "note": 57, "velocity": 109, "channel": 0}, {"type": "note_on", "time": 113, "note": 62, "velocity": 114, "channel": 0}, {"type": "note_off", "time": 298, "note": 62, "velocity": 114, "channel": 0}, {"type": "note_on", "time": 0, "note": 62, "velocity": 108, "channel": 0}, {"type": "note_off", "time": 72, "note": 62, "velocity": 108, "channel": 0}, {"type": "note_on", "time": 155, "note": 69, "velocity": 119, "channel": 0}, {"type": "note_off", "time": 350, "note": 69, "velocity": 119, "channel": 0}, {"type": "note_on", "time": 154, "note": 74, "velocity": 112, "channel": 0}, {"type": "note_off", "time": 598, "note": 74, "velocity": 112, "channel": 0}, {"type": "note_on", "time": 1177, "note": 69, "velocity": 114, "channel": 0}, {"type": "note_off", "time": 227, "note": 69, "velocity": 114, "channel": 0}, {"type": "note_on", "time": 14, "note": 74, "velocity": 111, "channel": 0}, {"type": "note_off", "time": 208, "note": 74, "velocity": 111, "channel": 0}, {"type": "note_on", "time": 105, "note": 77, "velocity": 103, "channel": 0}, {"type": "note_off", "time": 255, "note": 77, "velocity": 103, "channel": 0}, {"type": "note_on", "time": 83, "note": 79, "velocity": 110, "channel": 0}, {"type": "note_off", "time": 633, "note": 79, "velocity": 110, "channel": 0}, {"type": "note_on", "time": 277, "note": 77, "velocity": 109, "channel": 0}, {"type": "note_off", "time": 598, "note": 77, "velocity": 109, "channel": 0}, {"type": "note_on", "time": 187, "note": 73, "velocity": 107, "channel": 0}, {"type": "note_on", "time": 225, "note": 76, "velocity": 119, "channel": 0}, {"type": "note_off", "time": 0, "note": 73, "velocity": 107, "channel": 0}, {"type": "note_off", "time": 547, "note": 76, "velocity": 119, "channel": 0}, {"type": "note_on", "time": 41, "note": 74, "velocity": 117, "channel": 0}, {"type": "note_off", "time": 639, "note": 74, "velocity": 117, "channel": 0}, {"type": "note_on", "time": 217, "note": 67, "velocity": 116, "channel": 0}, {"type": "note_off", "time": 485, "note": 67, "velocity": 116, "channel": 0}, {"type": "note_on", "time": 41, "note": 69, "velocity": 117, "channel": 0}, {"type": "note_off", "time": 299, "note": 69, "velocity": 117, "channel": 0}, {"type": "note_on", "time": 134, "note": 70, "velocity": 109, "channel": 0}, {"type": "note_off", "time": 392, "note": 70, "velocity": 109, "channel": 0}, {"type": "note_on", "time": 144, "note": 60, "velocity": 118, "channel": 0}, {"type": "note_off", "time": 588, "note": 60, "velocity": 118, "channel": 0}, {"type": "note_on", "time": 133, "note": 72, "velocity": 118, "channel": 0}, {"type": "note_off", "time": 660, "note": 72, "velocity": 118, "channel": 0}, {"type": "note_on", "time": 61, "note": 72, "velocity": 119, "channel": 0}, {"type": "note_off", "time": 392, "note": 72, "velocity": 119, "channel": 0}, {"type": "note_on", "time": 909, "note": 69, "velocity": 117, "channel": 0}, {"type": "note_on", "time": 236, "note": 70, "velocity": 113, "channel": 0}, {"type": "note_off", "time": 0, "note": 69, "velocity": 117, "channel": 0}, {"type": "note_off", "time": 216, "note": 70, "velocity": 113, "channel": 0}, {"type": "note_on", "time": 83, "note": 72, "velocity": 118, "channel": 0}, {"type": "note_off", "time": 258, "note": 72, "velocity": 118, "channel": 0}, {"type": "note_on", "time": 133, "note": 65, "velocity": 112, "channel": 0}, {"type": "note_off", "time": 577, "note": 65, "velocity": 112, "channel": 0}, {"type": "note_on", "time": 299, "note": 77, "velocity": 109, "channel": 0}, {"type": "note_off", "time": 502, "note": 77, "velocity": 109, "channel": 0}, {"type": "note_on", "time": 260, "note": 70, "velocity": 117, "channel": 0}, {"type": "note_off", "time": 443, "note": 70, "velocity": 117, "channel": 0}, {"type": "note_on", "time": 0, "note": 72, "velocity": 115, "channel": 0}, {"type": "note_off", "time": 319, "note": 72, "velocity": 115, "channel": 0}, {"type": "note_on", "time": 113, "note": 74, "velocity": 114, "channel": 0}, {"type": "note_off", "time": 485, "note": 74, "velocity": 114, "channel": 0}, {"type": "note_on", "time": 30, "note": 70, "velocity": 114, "channel": 0}, {"type": "note_off", "time": 361, "note": 70, "velocity": 114, "channel": 0}, {"type": "note_on", "time": 1279, "note": 68, "velocity": 111, "channel": 0}, {"type": "note_off", "time": 165, "note": 68, "velocity": 111, "channel": 0}, {"type": "note_on", "time": 41, "note": 72, "velocity": 116, "channel": 0}, {"type": "note_off", "time": 165, "note": 72, "velocity": 116, "channel": 0}, {"type": "note_on", "time": 0, "note": 70, "velocity": 115, "channel": 0}, {"type": "note_off", "time": 443, "note": 70, "velocity": 115, "channel": 0}, {"type": "note_on", "time": 61, "note": 69, "velocity": 114, "channel": 0}, {"type": "note_off", "time": 330, "note": 69, "velocity": 114, "channel": 0}, {"type": "note_on", "time": 135, "note": 67, "velocity": 113, "channel": 0}, {"type": "note_off", "time": 133, "note": 67, "velocity": 113, "channel": 0}, {"type": "note_on", "time": 0, "note": 68, "velocity": 116, "channel": 0}, {"type": "note_off", "time": 650, "note": 68, "velocity": 116, "channel": 0}, {"type": "note_on", "time": 41, "note": 65, "velocity": 117, "channel": 0}, {"type": "note_off", "time": 361, "note": 65, "velocity": 117, "channel": 0}, {"type": "note_on", "time": 59, "note": 61, "velocity": 114, "channel": 0}, {"type": "note_off", "time": 266, "note": 61, "velocity": 114, "channel": 0}, {"type": "note_on", "time": 107, "note": 60, "velocity": 117, "channel": 0}, {"type": "note_off", "time": 464, "note": 60, "velocity": 117, "channel": 0}, {"type": "note_on", "time": 0, "note": 58, "velocity": 109, "channel": 0}, {"type": "note_off", "time": 268, "note": 58, "velocity": 109, "channel": 0}, {"type": "note_on", "time": 21, "note": 60, "velocity": 116, "channel": 0}, {"type": "note_off", "time": 268, "note": 60, "velocity": 116, "channel": 0}, {"type": "note_on", "time": 0, "note": 65, "velocity": 108, "channel": 0}, {"type": "note_off", "time": 206, "note": 65, "velocity": 108, "channel": 0}, {"type": "note_on", "time": 80, "note": 69, "velocity": 112, "channel": 0}, {"type": "note_off", "time": 195, "note": 69, "velocity": 112, "channel": 0}, {"type": "note_on", "time": 3, "note": 73, "velocity": 111, "channel": 0}, {"type": "note_off", "time": 97, "note": 73, "velocity": 111, "channel": 0}, {"type": "note_on", "time": 168, "note": 77, "velocity": 102, "channel": 0}, {"type": "note_off", "time": 683, "note": 77, "velocity": 102, "channel": 0}, {"type": "note_on", "time": 109, "note": 72, "velocity": 120, "channel": 0}, {"type": "note_off", "time": 258, "note": 72, "velocity": 120, "channel": 0}, {"type": "note_on", "time": 156, "note": 72, "velocity": 119, "channel": 0}, {"type": "note_off", "time": 268, "note": 72, "velocity": 119, "channel": 0}, {"type": "note_on", "time": 122, "note": 69, "velocity": 114, "channel": 0}, {"type": "note_off", "time": 443, "note": 69, "velocity": 114, "channel": 0}, {"type": "note_on", "time": 560, "note": 68, "velocity": 95, "channel": 0}, {"type": "note_off", "time": 97, "note": 68, "velocity": 95, "channel": 0}, {"type": "note_on", "time": 25, "note": 69, "velocity": 98, "channel": 0}, {"type": "note_off", "time": 97, "note": 69, "velocity": 98, "channel": 0}, {"type": "note_on", "time": 10, "note": 70, "velocity": 104, "channel": 0}, {"type": "note_off", "time": 83, "note": 70, "velocity": 104, "channel": 0}, {"type": "note_on", "time": 43, "note": 72, "velocity": 84, "channel": 0}, {"type": "note_off", "time": 79, "note": 72, "velocity": 84, "channel": 0}, {"type": "note_on", "time": 177, "note": 77, "velocity": 90, "channel": 0}, {"type": "note_off", "time": 177, "note": 77, "velocity": 90, "channel": 0}, {"type": "note_on", "time": 224, "note": 77, "velocity": 120, "channel": 0}, {"type": "note_off", "time": 154, "note": 77, "velocity": 120, "channel": 0}, {"type": "note_on", "time": 309, "note": 72, "velocity": 120, "channel": 0}, {"type": "note_off", "time": 175, "note": 72, "velocity": 120, "channel": 0}, {"type": "note_on", "time": 269, "note": 72, "velocity": 115, "channel": 0}, {"type": "note_off", "time": 185, "note": 72, "velocity": 115, "channel": 0}, {"type": "note_on", "time": 185, "note": 67, "velocity": 117, "channel": 0}, {"type": "note_off", "time": 103, "note": 67, "velocity": 117, "channel": 0}, {"type": "note_on", "time": 0, "note": 69, "velocity": 116, "channel": 0}, {"type": "note_off", "time": 381, "note": 69, "velocity": 116, "channel": 0}, {"type": "note_on", "time": 0, "note": 69, "velocity": 118, "channel": 0}, {"type": "note_off", "time": 278, "note": 69, "velocity": 118, "channel": 0}, {"type": "note_on", "time": 92, "note": 65, "velocity": 119, "channel": 0}, {"type": "note_off", "time": 423, "note": 65, "velocity": 119, "channel": 0}, {"type": "note_on", "time": 360, "note": 69, "velocity": 97, "channel": 0}, {"type": "note_off", "time": 402, "note": 69, "velocity": 97, "channel": 0}, {"type": "note_on", "time": 164, "note": 72, "velocity": 111, "channel": 0}, {"type": "note_off", "time": 290, "note": 72, "velocity": 111, "channel": 0}, {"type": "note_on", "time": 112, "note": 70, "velocity": 114, "channel": 0}, {"type": "note_off", "time": 381, "note": 70, "velocity": 114, "channel": 0}, {"type": "note_on", "time": 309, "note": 71, "velocity": 114, "channel": 0}, {"type": "note_off", "time": 139, "note": 71, "velocity": 114, "channel": 0}, {"type": "note_on", "time": 0, "note": 75, "velocity": 110, "channel": 0}, {"type": "note_off", "time": 312, "note": 75, "velocity": 110, "channel": 0}, {"type": "note_on", "time": 32, "note": 77, "velocity": 111, "channel": 0}, {"type": "note_off", "time": 344, "note": 77, "velocity": 111, "channel": 0}, {"type": "note_on", "time": 162, "note": 77, "velocity": 111, "channel": 0}, {"type": "note_off", "time": 371, "note": 77, "velocity": 111, "channel": 0}, {"type": "note_on", "time": 360, "note": 72, "velocity": 118, "channel": 0}, {"type": "note_off", "time": 247, "note": 72, "velocity": 118, "channel": 0}, {"type": "note_on", "time": 7, "note": 72, "velocity": 113, "channel": 0}, {"type": "note_off", "time": 214, "note": 72, "velocity": 113, "channel": 0}, {"type": "note_on", "time": 79, "note": 72, "velocity": 114, "channel": 0}, {"type": "note_off", "time": 263, "note": 72, "velocity": 114, "channel": 0}, {"type": "note_on", "time": 1, "note": 71, "velocity": 112, "channel": 0}, {"type": "note_off", "time": 319, "note": 71, "velocity": 112, "channel": 0}, {"type": "note_on", "time": 62, "note": 64, "velocity": 103, "channel": 0}, {"type": "note_off", "time": 143, "note": 64, "velocity": 103, "channel": 0}, {"type": "note_on", "time": 135, "note": 71, "velocity": 112, "channel": 0}, {"type": "note_off", "time": 185, "note": 71, "velocity": 112, "channel": 0}, {"type": "note_on", "time": 17, "note": 70, "velocity": 110, "channel": 0}, {"type": "note_off", "time": 370, "note": 70, "velocity": 110, "channel": 0}, {"type": "note_on", "time": 99, "note": 70, "velocity": 105, "channel": 0}, {"type": "note_off", "time": 278, "note": 70, "velocity": 105, "channel": 0}, {"type": "note_on", "time": 49, "note": 69, "velocity": 103, "channel": 0}, {"type": "note_off", "time": 712, "note": 69, "velocity": 103, "channel": 0}, {"type": "end_of_track", "time": 0}]]}