{"ticks_per_beat": 192, "tracks": [[{"type": "track_name", "name": "Melody", "time": 0}, {"type": "set_tempo", "tempo": 222222, "time": 0}, {"type": "key_signature", "key": "Ab", "time": 0}, {"type": "time_signature", "numerator": 4, "denominator": 4, "clocks_per_click": 24, "notated_32nd_notes_per_beat": 8, "time": 0}, {"type": "note_on", "time": 2944, "note": 67, "velocity": 102, "channel": 0}, {"type": "note_off", "time": 118, "note": 67, "velocity": 102, "channel": 0}, {"type": "note_on", "time": 128, "note": 67, "velocity": 100, "channel": 0}, {"type": "note_off", "time": 316, "note": 67, "velocity": 100, "channel": 0}, {"type": "note_on", "time": 53, "note": 67, "velocity": 97, "channel": 0}, {"type": "note_off", "time": 218, "note": 67, "velocity": 97, "channel": 0}, {"type": "note_on", "time": 35, "note": 67, "velocity": 96, "channel": 0}, {"type": "note_off", "time": 229, "note": 67, "velocity": 96, "channel": 0}, {"type": "note_on", "time": 17, "note": 67, "velocity": 97, "channel": 0}, {"type": "note_off", "time": 285, "note": 67, "velocity": 97, "channel": 0}, {"type": "note_on", "time": 0, "note": 65, "velocity": 98, "channel": 0}, {"type": "note_off", "time": 84, "note": 65, "velocity": 98, "channel": 0}, {"type": "note_on", "time": 3, "note": 63, "velocity": 102, "channel": 0}, {"type": "note_off", "time": 96, "note": 63, "velocity": 102, "channel": 0}, {"type": "note_on", "time": 19, "note": 60, "velocity": 99, "channel": 0}, {"type": "note_off", "time": 201, "note": 60, "velocity": 99, "channel": 0}, {"type": "note_on", "time": 0, "note": 63, "velocity": 105, "channel": 0}, {"type": "note_off", "time": 116, "note": 63, "velocity": 105, "channel": 0}, {"type": "note_on", "time": 9, "note": 61, "velocity": 97, "channel": 0}, {"type": "note_off", "time": 40, "note": 61, "velocity": 97, "channel": 0}, {"type": "note_on", "time": 0, "note": 62, "velocity": 103, "channel": 0}, {"type": "note_off", "time": 511, "note": 62, "velocity": 103, "channel": 0}, {"type": "note_on", "time": 95, "note": 60, "velocity": 100, "channel": 0}, {"type": "note_off", "time": 102, "note": 60, "velocity": 100, "channel": 0}, {"type": "note_on", "time": 7, "note": 58, "velocity": 97, "channel": 0}, {"type": "note_off", "time": 102, "note": 58, "velocity": 97, "channel": 0}, {"type": "note_on", "time": 0, "note": 55, "velocity": 94, "channel": 0}, {"type": "note_off", "time": 183, "note": 55, "velocity": 94, "channel": 0}, {"type": "note_on", "time": 0, "note": 58, "velocity": 90, "channel": 0}, {"type": "note_off", "time": 88, "note": 58, "velocity": 90, "channel": 0}, {"type": "note_on", "time": 27, "note": 55, "velocity": 93, "channel": 0}, {"type": "note_off", "time": 227, "note": 55, "velocity": 93, "channel": 0}, {"type": "note_on", "time": 57, "note": 53, "velocity": 93, "channel": 0}, {"type": "note_off", "time": 90, "note": 53, "velocity": 93, "channel": 0}, {"type": "note_on", "time": 11, "note": 50, "velocity": 88, "channel": 0}, {"type": "note_off", "time": 116, "note": 50, "velocity": 88, "channel": 0}, {"type": "note_on", "time": 0, "note": 53, "velocity": 97, "channel": 0}, {"type": "note_off", "time": 121, "note": 53, "velocity": 97, "channel": 0}, {"type": "note_on", "time": 44, "note": 55, "velocity": 88, "channel": 0}, {"type": "note_off", "time": 88, "note": 55, "velocity": 88, "channel": 0}, {"type": "note_on", "time": 27, "note": 58, "velocity": 88, "channel": 0}, {"type": "note_off", "time": 289, "note": 58, "velocity": 88, "channel": 0}, {"type": "note_on", "time": 1388, "note": 51, "velocity": 97, "channel": 0}, {"type": "note_off", "time": 59, "note": 51, "velocity": 97, "channel": 0}, {"type": "note_on", "time": 31, "note": 53, "velocity": 98, "channel": 0}, {"type": "note_off", "time": 97, "note": 53, "velocity": 98, "channel": 0}, {"type": "note_on", "time": 11, "note": 56, "velocity": 94, "channel": 0}, {"type": "note_off", "time": 69, "note": 56, "velocity": 94, "channel": 0}, {"type": "note_on", "time": 19, "note": 59, "velocity": 89, "channel": 0}, {"type": "note_off", "time": 99, "note": 59, "velocity": 89, "channel": 0}, {"type": "note_on", "time": 12, "note": 53, "velocity": 94, "channel": 0}, {"type": "note_off", "time": 109, "note": 53, "velocity": 94, "channel": 0}, {"type": "note_on", "time": 5, "note": 56, "velocity": 91, "channel": 0}, {"type": "note_off", "time": 76, "note": 56, "velocity": 91, "channel": 0}, {"type": "note_on", "time": 0, "note": 59, "velocity": 90, "channel": 0}, {"type": "note_off", "time": 82, "note": 59, "velocity": 90, "channel": 0}, {"type": "note_on", "time": 20, "note": 63, "velocity": 102, "channel": 0}, {"type": "note_on", "time": 91, "note": 59, "velocity": 91, "channel": 0}, {"type": "note_off", "time": 0, "note": 63, "velocity": 102, "channel": 0}, {"type": "note_off", "time": 97, "note": 59, "velocity": 91, "channel": 0}, {"type": "note_on", "time": 0, "note": 63, "velocity": 102, "channel": 0}, {"type": "note_off", "time": 75, "note": 63, "velocity": 102, "channel": 0}, {"type": "note_on", "time": 0, "note": 65, "velocity": 100, "channel": 0}, {"type": "note_off", "time": 95, "note": 65, "velocity": 100, "channel": 0}, {"type": "note_on", "time": 30, "note": 68, "velocity": 102, "channel": 0}, {"type": "note_off", "time": 82, "note": 68, "velocity": 102, "channel": 0}, {"type": "note_on", "time": 5, "note": 63, "velocity": 109, "channel": 0}, {"type": "note_off", "time": 85, "note": 63, "velocity": 109, "channel": 0}, {"type": "note_on", "time": 0, "note": 65, "velocity": 101, "channel": 0}, {"type": "note_off", "time": 99, "note": 65, "velocity": 101, "channel": 0}, {"type": "note_on", "time": 6, "note": 68, "velocity": 98, "channel": 0}, {"type": "note_off", "time": 107, "note": 68, "velocity": 98, "channel": 0}, {"type": "note_on", "time": 0, "note": 71, "velocity": 102, "channel": 0}, {"type": "note_off", "time": 82, "note": 71, "velocity": 102, "channel": 0}, {"type": "note_on", "time": 0, "note": 75, "velocity": 93, "channel": 0}, {"type": "note_off", "time": 239, "note": 75, "velocity": 93, "channel": 0}, {"type": "note_on", "time": 36, "note": 73, "velocity": 96, "channel": 0}, {"type": "note_off", "time": 56, "note": 73, "velocity": 96, "channel": 0}, {"type": "note_on", "time": 0, "note": 71, "velocity": 102, "channel": 0}, {"type": "note_off", "time": 54, "note": 71, "velocity": 102, "channel": 0}, {"type": "note_on", "time": 5, "note": 70, "velocity": 99, "channel": 0}, {"type": "note_off", "time": 194, "note": 70, "velocity": 99, "channel": 0}, {"type": "note_on", "time": 11, "note": 68, "velocity": 101, "channel": 0}, {"type": "note_off", "time": 180, "note": 68, "velocity": 101, "channel": 0}, {"type": "note_on", "time": 2, "note": 63, "velocity": 105, "channel": 0}, {"type": "note_off", "time": 199, "note": 63, "velocity": 105, "channel": 0}, {"type": "note_on", "time": 0, "note": 65, "velocity": 98, "channel": 0}, {"type": "note_off", "time": 180, "note": 65, "velocity": 98, "channel": 0}, {"type": "note_on", "time": 0, "note": 67, "velocity": 103, "channel": 0}, {"type": "note_off", "time": 82, "note": 67, "velocity": 103, "channel": 0}, {"type": "note_on", "time": 10, "note": 70, "velocity": 101, "channel": 0}, {"type": "note_off", "time": 146, "note": 70, "velocity": 101, "channel": 0}, {"type": "note_on", "time": 17, "note": 70, "velocity": 97, "channel": 0}, {"type": "note_off", "time": 54, "note": 70, "velocity": 97, "channel": 0}, {"type": "note_on", "time": 9, "note": 72, "velocity": 95, "channel": 0}, {"type": "note_off", "time": 81, "note": 72, "velocity": 95, "channel": 0}, {"type": "note_on", "time": 13, "note": 67, "velocity": 75, "channel": 0}, {"type": "note_off", "time": 213, "note": 67, "velocity": 75, "channel": 0}, {"type": "note_on", "time": 42, "note": 63, "velocity": 102, "channel": 0}, {"type": "note_off", "time": 392, "note": 63, "velocity": 102, "channel": 0}, {"type": "note_on", "time": 3, "note": 58, "velocity": 86, "channel": 0}, {"type": "note_off", "time": 93, "note": 58, "velocity": 86, "channel": 0}, {"type": "note_on", "time": 14, "note": 65, "velocity": 101, "channel": 0}, {"type": "note_off", "time": 92, "note": 65, "velocity": 101, "channel": 0}, {"type": "note_on", "time": 0, "note": 61, "velocity": 100, "channel": 0}, {"type": "note_on", "time": 80, "note": 58, "velocity": 89, "channel": 0}, {"type": "note_off", "time": 0, "note": 61, "velocity": 100, "channel": 0}, {"type": "note_off", "time": 87, "note": 58, "velocity": 89, "channel": 0}, {"type": "note_on", "time": 9, "note": 53, "velocity": 80, "channel": 0}, {"type": "note_off", "time": 82, "note": 53, "velocity": 80, "channel": 0}, {"type": "note_on", "time": 0, "note": 56, "velocity": 96, "channel": 0}, {"type": "note_off", "time": 82, "note": 56, "velocity": 96, "channel": 0}, {"type": "note_on", "time": 15, "note": 54, "velocity": 88, "channel": 0}, {"type": "note_off", "time": 80, "note": 54, "velocity": 88, "channel": 0}, {"type": "note_on", "time": 3, "note": 55, "velocity": 89, "channel": 0}, {"type": "note_off", "time": 105, "note": 55, "velocity": 89, "channel": 0}, {"type": "note_on", "time": 3, "note": 63, "velocity": 103, "channel": 0}, {"type": "note_off", "time": 261, "note": 63, "velocity": 103, "channel": 0}, {"type": "note_on", "time": 585, "note": 75, "velocity": 103, "channel": 0}, {"type": "note_off", "time": 125, "note": 75, "velocity": 103, "channel": 0}, {"type": "note_on", "time": 0, "note": 76, "velocity": 107, "channel": 0}, {"type": "note_off", "time": 95, "note": 76, "velocity": 107, "channel": 0}, {"type": "note_on", "time": 0, "note": 77, "velocity": 106, "channel": 0}, {"type": "note_on", "time": 102, "note": 76, "velocity": 109, "channel": 0}, {"type": "note_off", "time": 0, "note": 77, "velocity": 106, "channel": 0}, {"type": "note_off", "time": 98, "note": 76, "velocity": 109, "channel": 0}, {"type": "note_on", "time": 6, "note": 75, "velocity": 100, "channel": 0}, {"type": "note_off", "time": 82, "note": 75, "velocity": 100, "channel": 0}, {"type": "note_on", "time": 0, "note": 70, "velocity": 98, "channel": 0}, {"type": "note_off", "time": 70, "note": 70, "velocity": 98, "channel": 0}, {"type": "note_on", "time": 10, "note": 67, "velocity": 99, "channel": 0}, {"type": "note_off", "time": 90, "note": 67, "velocity": 99, "channel": 0}, {"type": "note_on", "time": 11, "note": 63, "velocity": 93, "channel": 0}, {"type": "note_off", "time": 91, "note": 63, "velocity": 93, "channel": 0}, {"type": "note_on", "time": 0, "note": 68, "velocity": 101, "channel": 0}, {"type": "note_off", "time": 89, "note": 68, "velocity": 101, "channel": 0}, {"type": "note_on", "time": 9, "note": 70, "velocity": 99, "channel": 0}, {"type": "note_off", "time": 103, "note": 70, "velocity": 99, "channel": 0}, {"type": "note_on", "time": 1, "note": 66, "velocity": 97, "channel": 0}, {"type": "note_off", "time": 99, "note": 66, "velocity": 97, "channel": 0}, {"type": "note_on", "time": 0, "note": 67, "velocity": 99, "channel": 0}, {"type": "note_off", "time": 107, "note": 67, "velocity": 99, "channel": 0}, {"type": "note_on", "time": 0, "note": 63, "velocity": 107, "channel": 0}, {"type": "note_off", "time": 91, "note": 63, "velocity": 107, "channel": 0}, {"type": "note_on", "time": 89, "note": 65, "velocity": 94, "channel": 0}, {"type": "note_off", "time": 499, "note": 65, "velocity": 94, "channel": 0}, {"type": "note_on", "time": 82, "note": 65, "velocity": 97, "channel": 0}, {"type": "note_off", "time": 329, "note": 65, "velocity": 97, "channel": 0}, {"type": "note_on", "time": 71, "note": 65, "velocity": 97, "channel": 0}, {"type": "note_off", "time": 129, "note": 65, "velocity": 97, "channel": 0}, {"type": "note_on", "time": 0, "note": 70, "velocity": 97, "channel": 0}, {"type": "note_off", "time": 87, "note": 70, "velocity": 97, "channel": 0}, {"type": "note_on", "time": 1, "note": 67, "velocity": 96, "channel": 0}, {"type": "note_off", "time": 89, "note": 67, "velocity": 96, "channel": 0}, {"type": "note_on", "time": 0, "note": 65, "velocity": 100, "channel": 0}, {"type": "note_off", "time": 77, "note": 65, "velocity": 100, "channel": 0}, {"type": "note_on", "time": 0, "note": 63, "velocity": 106, "channel": 0}, {"type": "note_off", "time": 98, "note": 63, "velocity": 106, "channel": 0}, {"type": "note_on", "time": 10, "note": 65, "velocity": 98, "channel": 0}, {"type": "note_off", "time": 85, "note": 65, "velocity": 98, "channel": 0}, {"type": "note_on", "time": 0, "note": 67, "velocity": 97, "channel": 0}, {"type": "note_off", "time": 106, "note": 67, "velocity": 97, "channel": 0}, {"type": "note_on", "time": 0, "note": 63, "velocity": 95, "channel": 0}, {"type": "note_on", "time": 95, "note": 65, "velocity": 97, "channel": 0}, {"type": "note_off", "time": 0, "note": 63, "velocity": 95, "channel": 0}, {"type": "note_off", "time": 84, "note": 65, "velocity": 97, "channel": 0}, {"type": "note_on", "time": 3, "note": 64, "velocity": 107, "channel": 0}, {"type": "note_off", "time": 86, "note": 64, "velocity": 107, "channel": 0}, {"type": "note_on", "time": 0, "note": 63, "velocity": 102, "channel": 0}, {"type": "note_off", "time": 120, "note": 63, "velocity": 102, "channel": 0}, {"type": "note_on", "time": 0, "note": 67, "velocity": 96, "channel": 0}, {"type": "note_off", "time": 104, "note": 67, "velocity": 96, "channel": 0}, {"type": "note_on", "time": 0, "note": 65, "velocity": 98, "channel": 0}, {"type": "note_off", "time": 84, "note": 65, "velocity": 98, "channel": 0}, {"type": "note_on", "time": 0, "note": 62, "velocity": 102, "channel": 0}, {"type": "note_on", "time": 96, "note": 58, "velocity": 86, "channel": 0}, {"type": "note_off", "time": 0, "note": 62, "velocity": 102, "channel": 0}, {"type": "note_off", "time": 106, "note": 58, "velocity": 86, "channel": 0}, {"type": "note_on", "time": 0, "note": 55, "velocity": 91, "channel": 0}, {"type": "note_off", "time": 85, "note": 55, "velocity": 91, "channel": 0}, {"type": "note_on", "time": 0, "note": 63, "velocity": 105, "channel": 0}, {"type": "note_off", "time": 104, "note": 63, "velocity": 105, "channel": 0}, {"type": "note_on", "time": 0, "note": 65, "velocity": 99, "channel": 0}, {"type": "note_off", "time": 81, "note": 65, "velocity": 99, "channel": 0}, {"type": "note_on", "time": 0, "note": 62, "velocity": 102, "channel": 0}, {"type": "note_off", "time": 105, "note": 62, "velocity": 102, "channel": 0}, {"type": "note_on", "time": 6, "note": 60, "velocity": 99, "channel": 0}, {"type": "note_off", "time": 101, "note": 60, "velocity": 99, "channel": 0}, {"type": "note_on", "time": 0, "note": 58, "velocity": 90, "channel": 0}, {"type": "note_off", "time": 90, "note": 58, "velocity": 90, "channel": 0}, {"type": "note_on", "time": 0, "note": 60, "velocity": 98, "channel": 0}, {"type": "note_off", "time": 102, "note": 60, "velocity": 98, "channel": 0}, {"type": "note_on", "time": 6, "note": 62, "velocity": 99, "channel": 0}, {"type": "note_off", "time": 81, "note": 62, "velocity": 99, "channel": 0}, {"type": "note_on", "time": 0, "note": 58, "velocity": 87, "channel": 0}, {"type": "note_off", "time": 98, "note": 58, "velocity": 87, "channel": 0}, {"type": "note_on", "time": 13, "note": 60, "velocity": 99, "channel": 0}, {"type": "note_off", "time": 90, "note": 60, "velocity": 99, "channel": 0}, {"type": "note_on", "time": 3, "note": 58, "velocity": 89, "channel": 0}, {"type": "note_off", "time": 90, "note": 58, "velocity": 89, "channel": 0}, {"type": "note_on", "time": 0, "note": 55, "velocity": 93, "channel": 0}, {"type": "note_off", "time": 112, "note": 55, "velocity": 93, "channel": 0}, {"type": "note_on", "time": 12, "note": 53, "velocity": 83, "channel": 0}, {"type": "note_off", "time": 67, "note": 53, "velocity": 83, "channel": 0}, {"type": "note_on", "time": 9, "note": 58, "velocity": 86, "channel": 0}, {"type": "note_off", "time": 268, "note": 58, "velocity": 86, "channel": 0}, {"type": "note_on", "time": 981, "note": 51, "velocity": 101, "channel": 0}, {"type": "note_off", "time": 82, "note": 51, "velocity": 101, "channel": 0}, {"type": "note_on", "time": 0, "note": 53, "velocity": 98, "channel": 0}, {"type": "note_off", "time": 71, "note": 53, "velocity": 98, "channel": 0}, {"type": "note_on", "time": 0, "note": 56, "velocity": 96, "channel": 0}, {"type": "note_off", "time": 67, "note": 56, "velocity": 96, "channel": 0}, {"type": "note_on", "time": 0, "note": 59, "velocity": 95, "channel": 0}, {"type": "note_off", "time": 54, "note": 59, "velocity": 95, "channel": 0}, {"type": "note_on", "time": 3, "note": 53, "velocity": 98, "channel": 0}, {"type": "note_off", "time": 137, "note": 53, "velocity": 98, "channel": 0}, {"type": "note_on", "time": 171, "note": 53, "velocity": 97, "channel": 0}, {"type": "note_on", "time": 66, "note": 56, "velocity": 100, "channel": 0}, {"type": "note_off", "time": 0, "note": 53, "velocity": 97, "channel": 0}, {"type": "note_off", "time": 75, "note": 56, "velocity": 100, "channel": 0}, {"type": "note_on", "time": 0, "note": 59, "velocity": 92, "channel": 0}, {"type": "note_off", "time": 52, "note": 59, "velocity": 92, "channel": 0}, {"type": "note_on", "time": 0, "note": 63, "velocity": 99, "channel": 0}, {"type": "note_off", "time": 77, "note": 63, "velocity": 99, "channel": 0}, {"type": "note_on", "time": 13, "note": 56, "velocity": 83, "channel": 0}, {"type": "note_off", "time": 127, "note": 56, "velocity": 83, "channel": 0}, {"type": "note_on", "time": 173, "note": 56, "velocity": 93, "channel": 0}, {"type": "note_off", "time": 72, "note": 56, "velocity": 93, "channel": 0}, {"type": "note_on", "time": 0, "note": 59, "velocity": 93, "channel": 0}, {"type": "note_off", "time": 63, "note": 59, "velocity": 93, "channel": 0}, {"type": "note_on", "time": 0, "note": 63, "velocity": 107, "channel": 0}, {"type": "note_off", "time": 52, "note": 63, "velocity": 107, "channel": 0}, {"type": "note_on", "time": 0, "note": 64, "velocity": 96, "channel": 0}, {"type": "note_off", "time": 41, "note": 64, "velocity": 96, "channel": 0}, {"type": "note_on", "time": 12, "note": 59, "velocity": 85, "channel": 0}, {"type": "note_off", "time": 121, "note": 59, "velocity": 85, "channel": 0}, {"type": "note_on", "time": 178, "note": 59, "velocity": 96, "channel": 0}, {"type": "note_off", "time": 79, "note": 59, "velocity": 96, "channel": 0}, {"type": "note_on", "time": 5, "note": 63, "velocity": 104, "channel": 0}, {"type": "note_off", "time": 61, "note": 63, "velocity": 104, "channel": 0}, {"type": "note_on", "time": 0, "note": 65, "velocity": 97, "channel": 0}, {"type": "note_off", "time": 48, "note": 65, "velocity": 97, "channel": 0}, {"type": "note_on", "time": 0, "note": 68, "velocity": 100, "channel": 0}, {"type": "note_off", "time": 77, "note": 68, "velocity": 100, "channel": 0}, {"type": "note_on", "time": 0, "note": 63, "velocity": 85, "channel": 0}, {"type": "note_off", "time": 118, "note": 63, "velocity": 85, "channel": 0}, {"type": "note_on", "time": 182, "note": 63, "velocity": 106, "channel": 0}, {"type": "note_off", "time": 65, "note": 63, "velocity": 106, "channel": 0}, {"type": "note_on", "time": 0, "note": 65, "velocity": 98, "channel": 0}, {"type": "note_on", "time": 61, "note": 68, "velocity": 99, "channel": 0}, {"type": "note_off", "time": 0, "note": 65, "velocity": 98, "channel": 0}, {"type": "note_off", "time": 53, "note": 68, "velocity": 99, "channel": 0}, {"type": "note_on", "time": 14, "note": 71, "velocity": 92, "channel": 0}, {"type": "note_off", "time": 73, "note": 71, "velocity": 92, "channel": 0}, {"type": "note_on", "time": 11, "note": 65, "velocity": 89, "channel": 0}, {"type": "note_off", "time": 115, "note": 65, "velocity": 89, "channel": 0}, {"type": "note_on", "time": 186, "note": 65, "velocity": 101, "channel": 0}, {"type": "note_off", "time": 71, "note": 65, "velocity": 101, "channel": 0}, {"type": "note_on", "time": 0, "note": 68, "velocity": 99, "channel": 0}, {"type": "note_off", "time": 48, "note": 68, "velocity": 99, "channel": 0}, {"type": "note_on", "time": 0, "note": 71, "velocity": 91, "channel": 0}, {"type": "note_off", "time": 61, "note": 71, "velocity": 91, "channel": 0}, {"type": "note_on", "time": 0, "note": 75, "velocity": 86, "channel": 0}, {"type": "note_off", "time": 136, "note": 75, "velocity": 86, "channel": 0}, {"type": "note_on", "time": 569, "note": 75, "velocity": 90, "channel": 0}, {"type": "note_off", "time": 80, "note": 75, "velocity": 90, "channel": 0}, {"type": "note_on", "time": 0, "note": 73, "velocity": 95, "channel": 0}, {"type": "note_off", "time": 46, "note": 73, "velocity": 95, "channel": 0}, {"type": "note_on", "time": 0, "note": 71, "velocity": 100, "channel": 0}, {"type": "note_off", "time": 55, "note": 71, "velocity": 100, "channel": 0}, {"type": "note_on", "time": 0, "note": 70, "velocity": 96, "channel": 0}, {"type": "note_off", "time": 86, "note": 70, "velocity": 96, "channel": 0}, {"type": "note_on", "time": 0, "note": 69, "velocity": 99, "channel": 0}, {"type": "note_off", "time": 92, "note": 69, "velocity": 99, "channel": 0}, {"type": "note_on", "time": 7, "note": 68, "velocity": 97, "channel": 0}, {"type": "note_off", "time": 155, "note": 68, "velocity": 97, "channel": 0}, {"type": "note_on", "time": 243, "note": 66, "velocity": 98, "channel": 0}, {"type": "note_off", "time": 83, "note": 66, "velocity": 98, "channel": 0}, {"type": "note_on", "time": 0, "note": 67, "velocity": 100, "channel": 0}, {"type": "note_off", "time": 91, "note": 67, "velocity": 100, "channel": 0}, {"type": "note_on", "time": 0, "note": 68, "velocity": 104, "channel": 0}, {"type": "note_off", "time": 88, "note": 68, "velocity": 104, "channel": 0}, {"type": "note_on", "time": 22, "note": 66, "velocity": 86, "channel": 0}, {"type": "note_off", "time": 80, "note": 66, "velocity": 86, "channel": 0}, {"type": "note_on", "time": 4, "note": 67, "velocity": 101, "channel": 0}, {"type": "note_off", "time": 86, "note": 67, "velocity": 101, "channel": 0}, {"type": "note_on", "time": 0, "note": 66, "velocity": 97, "channel": 0}, {"type": "note_off", "time": 99, "note": 66, "velocity": 97, "channel": 0}, {"type": "note_on", "time": 0, "note": 65, "velocity": 100, "channel": 0}, {"type": "note_off", "time": 92, "note": 65, "velocity": 100, "channel": 0}, {"type": "note_on", "time": 4, "note": 64, "velocity": 112, "channel": 0}, {"type": "note_off", "time": 102, "note": 64, "velocity": 112, "channel": 0}, {"type": "note_on", "time": 0, "note": 63, "velocity": 105, "channel": 0}, {"type": "note_off", "time": 97, "note": 63, "velocity": 105, "channel": 0}, {"type": "note_on", "time": 0, "note": 65, "velocity": 102, "channel": 0}, {"type": "note_off", "time": 86, "note": 65, "velocity": 102, "channel": 0}, {"type": "note_on", "time": 0, "note": 67, "velocity": 96, "channel": 0}, {"type": "note_off", "time": 96, "note": 67, "velocity": 96, "channel": 0}, {"type": "note_on", "time": 0, "note": 63, "velocity": 96, "channel": 0}, {"type": "note_on", "time": 86, "note": 65, "velocity": 103, "channel": 0}, {"type": "note_off", "time": 0, "note": 63, "velocity": 96, "channel": 0}, {"type": "note_off", "time": 72, "note": 65, "velocity": 103, "channel": 0}, {"type": "note_on", "time": 0, "note": 64, "velocity": 108, "channel": 0}, {"type": "note_off", "time": 78, "note": 64, "velocity": 108, "channel": 0}, {"type": "note_on", "time": 8, "note": 63, "velocity": 105, "channel": 0}, {"type": "note_off", "time": 104, "note": 63, "velocity": 105, "channel": 0}, {"type": "note_on", "time": 14, "note": 67, "velocity": 99, "channel": 0}, {"type": "note_off", "time": 97, "note": 67, "velocity": 99, "channel": 0}, {"type": "note_on", "time": 2, "note": 65, "velocity": 102, "channel": 0}, {"type": "note_off", "time": 86, "note": 65, "velocity": 102, "channel": 0}, {"type": "note_on", "time": 0, "note": 62, "velocity": 102, "channel": 0}, {"type": "note_off", "time": 109, "note": 62, "velocity": 102, "channel": 0}, {"type": "note_on", "time": 0, "note": 58, "velocity": 91, "channel": 0}, {"type": "note_off", "time": 91, "note": 58, "velocity": 91, "channel": 0}, {"type": "note_on", "time": 0, "note": 56, "velocity": 83, "channel": 0}, {"type": "note_off", "time": 111, "note": 56, "velocity": 83, "channel": 0}, {"type": "note_on", "time": 0, "note": 65, "velocity": 108, "channel": 0}, {"type": "note_off", "time": 96, "note": 65, "velocity": 108, "channel": 0}, {"type": "note_on", "time": 0, "note": 67, "velocity": 102, "channel": 0}, {"type": "note_off", "time": 86, "note": 67, "velocity": 102, "channel": 0}, {"type": "note_on", "time": 8, "note": 68, "velocity": 101, "channel": 0}, {"type": "note_off", "time": 67, "note": 68, "velocity": 101, "channel": 0}, {"type": "note_on", "time": 11, "note": 70, "velocity": 100, "channel": 0}, {"type": "note_off", "time": 85, "note": 70, "velocity": 100, "channel": 0}, {"type": "note_on", "time": 10, "note": 67, "velocity": 94, "channel": 0}, {"type": "note_off", "time": 83, "note": 67, "velocity": 94, "channel": 0}, {"type": "note_on", "time": 16, "note": 70, "velocity": 94, "channel": 0}, {"type": "note_off", "time": 99, "note": 70, "velocity": 94, "channel": 0}, {"type": "note_on", "time": 3, "note": 68, "velocity": 102, "channel": 0}, {"type": "note_off", "time": 92, "note": 68, "velocity": 102, "channel": 0}, {"type": "note_on", "time": 0, "note": 64, "velocity": 94, "channel": 0}, {"type": "note_off", "time": 96, "note": 64, "velocity": 94, "channel": 0}, {"type": "note_on", "time": 12, "note": 67, "velocity": 97, "channel": 0}, {"type": "note_off", "time": 86, "note": 67, "velocity": 97, "channel": 0}, {"type": "note_on", "time": 0, "note": 66, "velocity": 98, "channel": 0}, {"type": "note_off", "time": 82, "note": 66, "velocity": 98, "channel": 0}, {"type": "note_on", "time": 8, "note": 65, "velocity": 97, "channel": 0}, {"type": "note_on", "time": 82, "note": 64, "velocity": 107, "channel": 0}, {"type": "note_off", "time": 0, "note": 65, "velocity": 97, "channel": 0}, {"type": "note_off", "time": 102, "note": 64, "velocity": 107, "channel": 0}, {"type": "note_on", "time": 3, "note": 63, "velocity": 103, "channel": 0}, {"type": "note_off", "time": 94, "note": 63, "velocity": 103, "channel": 0}, {"type": "note_on", "time": 0, "note": 60, "velocity": 98, "channel": 0}, {"type": "note_off", "time": 90, "note": 60, "velocity": 98, "channel": 0}, {"type": "note_on", "time": 0, "note": 58, "velocity": 88, "channel": 0}, {"type": "note_off", "time": 101, "note": 58, "velocity": 88, "channel": 0}, {"type": "note_on", "time": 1, "note": 56, "velocity": 88, "channel": 0}, {"type": "note_off", "time": 70, "note": 56, "velocity": 88, "channel": 0}, {"type": "note_on", "time": 0, "note": 60, "velocity": 99, "channel": 0}, {"type": "note_off", "time": 297, "note": 60, "velocity": 99, "channel": 0}, {"type": "note_on", "time": 110, "note": 60, "velocity": 98, "channel": 0}, {"type": "note_off", "time": 279, "note": 60, "velocity": 98, "channel": 0}, {"type": "note_on", "time": 0, "note": 67, "velocity": 97, "channel": 0}, {"type": "note_off", "time": 233, "note": 67, "velocity": 97, "channel": 0}, {"type": "note_on", "time": 35, "note": 65, "velocity": 98, "channel": 0}, {"type": "note_off", "time": 124, "note": 65, "velocity": 98, "channel": 0}, {"type": "note_on", "time": 0, "note": 63, "velocity": 104, "channel": 0}, {"type": "note_off", "time": 95, "note": 63, "velocity": 104, "channel": 0}, {"type": "note_on", "time": 7, "note": 62, "velocity": 101, "channel": 0}, {"type": "note_off", "time": 183, "note": 62, "velocity": 101, "channel": 0}, {"type": "note_on", "time": 0, "note": 60, "velocity": 95, "channel": 0}, {"type": "note_off", "time": 218, "note": 60, "velocity": 95, "channel": 0}, {"type": "note_on", "time": 1102, "note": 51, "velocity": 102, "channel": 0}, {"type": "note_off", "time": 78, "note": 51, "velocity": 102, "channel": 0}, {"type": "note_on", "time": 0, "note": 53, "velocity": 96, "channel": 0}, {"type": "note_off", "time": 96, "note": 53, "velocity": 96, "channel": 0}, {"type": "note_on", "time": 5, "note": 56, "velocity": 93, "channel": 0}, {"type": "note_off", "time": 97, "note": 56, "velocity": 93, "channel": 0}, {"type": "note_on", "time": 18, "note": 59, "velocity": 91, "channel": 0}, {"type": "note_on", "time": 86, "note": 55, "velocity": 100, "channel": 0}, {"type": "note_off", "time": 0, "note": 59, "velocity": 91, "channel": 0}, {"type": "note_off", "time": 77, "note": 55, "velocity": 100, "channel": 0}, {"type": "note_on", "time": 23, "note": 56, "velocity": 88, "channel": 0}, {"type": "note_off", "time": 73, "note": 56, "velocity": 88, "channel": 0}, {"type": "note_on", "time": 22, "note": 59, "velocity": 91, "channel": 0}, {"type": "note_off", "time": 107, "note": 59, "velocity": 91, "channel": 0}, {"type": "note_on", "time": 2, "note": 63, "velocity": 106, "channel": 0}, {"type": "note_off", "time": 43, "note": 63, "velocity": 106, "channel": 0}, {"type": "note_on", "time": 36, "note": 67, "velocity": 98, "channel": 0}, {"type": "note_off", "time": 102, "note": 67, "velocity": 98, "channel": 0}, {"type": "note_on", "time": 15, "note": 63, "velocity": 94, "channel": 0}, {"type": "note_off", "time": 70, "note": 63, "velocity": 94, "channel": 0}, {"type": "note_on", "time": 0, "note": 65, "velocity": 99, "channel": 0}, {"type": "note_off", "time": 102, "note": 65, "velocity": 99, "channel": 0}, {"type": "note_on", "time": 13, "note": 67, "velocity": 98, "channel": 0}, {"type": "note_off", "time": 90, "note": 67, "velocity": 98, "channel": 0}, {"type": "note_on", "time": 0, "note": 68, "velocity": 101, "channel": 0}, {"type": "note_off", "time": 101, "note": 68, "velocity": 101, "channel": 0}, {"type": "note_on", "time": 2, "note": 70, "velocity": 97, "channel": 0}, {"type": "note_off", "time": 66, "note": 70, "velocity": 97, "channel": 0}, {"type": "note_on", "time": 10, "note": 71, "velocity": 97, "channel": 0}, {"type": "note_off", "time": 85, "note": 71, "velocity": 97, "channel": 0}, {"type": "note_on", "time": 3, "note": 73, "velocity": 85, "channel": 0}, {"type": "note_off", "time": 81, "note": 73, "velocity": 85, "channel": 0}, {"type": "note_on", "time": 40, "note": 75, "velocity": 90, "channel": 0}, {"type": "note_off", "time": 255, "note": 75, "velocity": 90, "channel": 0}, {"type": "note_on", "time": 10, "note": 73, "velocity": 94, "channel": 0}, {"type": "note_on", "time": 35, "note": 71, "velocity": 98, "channel": 0}, {"type": "note_off", "time": 0, "note": 73, "velocity": 94, "channel": 0}, {"type": "note_off", "time": 56, "note": 71, "velocity": 98, "channel": 0}, {"type": "note_on", "time": 6, "note": 70, "velocity": 100, "channel": 0}, {"type": "note_off", "time": 147, "note": 70, "velocity": 100, "channel": 0}, {"type": "note_on", "time": 44, "note": 70, "velocity": 98, "channel": 0}, {"type": "note_off", "time": 150, "note": 70, "velocity": 98, "channel": 0}, {"type": "note_on", "time": 20, "note": 70, "velocity": 99, "channel": 0}, {"type": "note_off", "time": 173, "note": 70, "velocity": 99, "channel": 0}, {"type": "note_on", "time": 22, "note": 75, "velocity": 91, "channel": 0}, {"type": "note_off", "time": 197, "note": 75, "velocity": 91, "channel": 0}, {"type": "note_on", "time": 1, "note": 68, "velocity": 102, "channel": 0}, {"type": "note_off", "time": 166, "note": 68, "velocity": 102, "channel": 0}, {"type": "note_on", "time": 26, "note": 72, "velocity": 68, "channel": 0}, {"type": "note_off", "time": 133, "note": 72, "velocity": 68, "channel": 0}, {"type": "note_on", "time": 70, "note": 67, "velocity": 95, "channel": 0}, {"type": "note_off", "time": 308, "note": 67, "velocity": 95, "channel": 0}, {"type": "note_on", "time": 282, "note": 68, "velocity": 101, "channel": 0}, {"type": "note_off", "time": 49, "note": 68, "velocity": 101, "channel": 0}, {"type": "note_on", "time": 39, "note": 70, "velocity": 100, "channel": 0}, {"type": "note_off", "time": 64, "note": 70, "velocity": 100, "channel": 0}, {"type": "note_on", "time": 24, "note": 67, "velocity": 98, "channel": 0}, {"type": "note_off", "time": 79, "note": 67, "velocity": 98, "channel": 0}, {"type": "note_on", "time": 14, "note": 66, "velocity": 97, "channel": 0}, {"type": "note_off", "time": 81, "note": 66, "velocity": 97, "channel": 0}, {"type": "note_on", "time": 4, "note": 65, "velocity": 100, "channel": 0}, {"type": "note_off", "time": 102, "note": 65, "velocity": 100, "channel": 0}, {"type": "note_on", "time": 1, "note": 64, "velocity": 102, "channel": 0}, {"type": "note_off", "time": 78, "note": 64, "velocity": 102, "channel": 0}, {"type": "note_on", "time": 5, "note": 63, "velocity": 104, "channel": 0}, {"type": "note_off", "time": 104, "note": 63, "velocity": 104, "channel": 0}, {"type": "note_on", "time": 0, "note": 65, "velocity": 99, "channel": 0}, {"type": "note_on", "time": 86, "note": 67, "velocity": 98, "channel": 0}, {"type": "note_off", "time": 0, "note": 65, "velocity": 99, "channel": 0}, {"type": "note_off", "time": 86, "note": 67, "velocity": 98, "channel": 0}, {"type": "note_on", "time": 0, "note": 63, "velocity": 96, "channel": 0}, {"type": "note_off", "time": 87, "note": 63, "velocity": 96, "channel": 0}, {"type": "note_on", "time": 3, "note": 65, "velocity": 102, "channel": 0}, {"type": "note_off", "time": 108, "note": 65, "velocity": 102, "channel": 0}, {"type": "note_on", "time": 0, "note": 64, "velocity": 107, "channel": 0}, {"type": "note_off", "time": 80, "note": 64, "velocity": 107, "channel": 0}, {"type": "note_on", "time": 9, "note": 63, "velocity": 103, "channel": 0}, {"type": "note_off", "time": 86, "note": 63, "velocity": 103, "channel": 0}, {"type": "note_on", "time": 0, "note": 67, "velocity": 96, "channel": 0}, {"type": "note_off", "time": 103, "note": 67, "velocity": 96, "channel": 0}, {"type": "note_on", "time": 0, "note": 65, "velocity": 97, "channel": 0}, {"type": "note_off", "time": 102, "note": 65, "velocity": 97, "channel": 0}, {"type": "note_on", "time": 0, "note": 61, "velocity": 96, "channel": 0}, {"type": "note_off", "time": 67, "note": 61, "velocity": 96, "channel": 0}, {"type": "note_on", "time": 0, "note": 59, "velocity": 91, "channel": 0}, {"type": "note_off", "time": 82, "note": 59, "velocity": 91, "channel": 0}, {"type": "note_on", "time": 14, "note": 56, "velocity": 79, "channel": 0}, {"type": "note_off", "time": 67, "note": 56, "velocity": 79, "channel": 0}, {"type": "note_on", "time": 16, "note": 63, "velocity": 107, "channel": 0}, {"type": "note_off", "time": 83, "note": 63, "velocity": 107, "channel": 0}, {"type": "note_on", "time": 40, "note": 61, "velocity": 101, "channel": 0}, {"type": "note_off", "time": 67, "note": 61, "velocity": 101, "channel": 0}, {"type": "note_on", "time": 0, "note": 59, "velocity": 96, "channel": 0}, {"type": "note_off", "time": 89, "note": 59, "velocity": 96, "channel": 0}, {"type": "note_on", "time": 18, "note": 55, "velocity": 91, "channel": 0}, {"type": "note_off", "time": 101, "note": 55, "velocity": 91, "channel": 0}, {"type": "note_on", "time": 0, "note": 56, "velocity": 93, "channel": 0}, {"type": "note_off", "time": 252, "note": 56, "velocity": 93, "channel": 0}, {"type": "note_on", "time": 595, "note": 47, "velocity": 106, "channel": 0}, {"type": "note_off", "time": 91, "note": 47, "velocity": 106, "channel": 0}, {"type": "note_on", "time": 0, "note": 51, "velocity": 104, "channel": 0}, {"type": "note_off", "time": 111, "note": 51, "velocity": 104, "channel": 0}, {"type": "note_on", "time": 0, "note": 59, "velocity": 95, "channel": 0}, {"type": "note_off", "time": 100, "note": 59, "velocity": 95, "channel": 0}, {"type": "note_on", "time": 0, "note": 49, "velocity": 104, "channel": 0}, {"type": "note_off", "time": 85, "note": 49, "velocity": 104, "channel": 0}, {"type": "note_on", "time": 0, "note": 50, "velocity": 98, "channel": 0}, {"type": "note_off", "time": 96, "note": 50, "velocity": 98, "channel": 0}, {"type": "note_on", "time": 0, "note": 53, "velocity": 97, "channel": 0}, {"type": "note_on", "time": 81, "note": 52, "velocity": 96, "channel": 0}, {"type": "note_off", "time": 0, "note": 53, "velocity": 97, "channel": 0}, {"type": "note_off", "time": 75, "note": 52, "velocity": 96, "channel": 0}, {"type": "note_on", "time": 8, "note": 51, "velocity": 99, "channel": 0}, {"type": "note_off", "time": 105, "note": 51, "velocity": 99, "channel": 0}, {"type": "note_on", "time": 11, "note": 55, "velocity": 97, "channel": 0}, {"type": "note_off", "time": 85, "note": 55, "velocity": 97, "channel": 0}, {"type": "note_on", "time": 0, "note": 59, "velocity": 95, "channel": 0}, {"type": "note_off", "time": 78, "note": 59, "velocity": 95, "channel": 0}, {"type": "note_on", "time": 18, "note": 62, "velocity": 105, "channel": 0}, {"type": "note_off", "time": 66, "note": 62, "velocity": 105, "channel": 0}, {"type": "note_on", "time": 12, "note": 63, "velocity": 104, "channel": 0}, {"type": "note_off", "time": 95, "note": 63, "velocity": 104, "channel": 0}, {"type": "note_on", "time": 0, "note": 62, "velocity": 97, "channel": 0}, {"type": "note_off", "time": 86, "note": 62, "velocity": 97, "channel": 0}, {"type": "note_on", "time": 0, "note": 58, "velocity": 89, "channel": 0}, {"type": "note_off", "time": 123, "note": 58, "velocity": 89, "channel": 0}, {"type": "note_on", "time": 13, "note": 56, "velocity": 94, "channel": 0}, {"type": "note_off", "time": 62, "note": 56, "velocity": 94, "channel": 0}, {"type": "note_on", "time": 14, "note": 63, "velocity": 105, "channel": 0}, {"type": "note_off", "time": 43, "note": 63, "velocity": 105, "channel": 0}, {"type": "note_on", "time": 0, "note": 65, "velocity": 101, "channel": 0}, {"type": "note_off", "time": 45, "note": 65, "velocity": 101, "channel": 0}, {"type": "note_on", "time": 0, "note": 63, "velocity": 104, "channel": 0}, {"type": "note_off", "time": 43, "note": 63, "velocity": 104, "channel": 0}, {"type": "note_on", "time": 0, "note": 60, "velocity": 97, "channel": 0}, {"type": "note_off", "time": 73, "note": 60, "velocity": 97, "channel": 0}, {"type": "note_on", "time": 4, "note": 56, "velocity": 94, "channel": 0}, {"type": "note_on", "time": 125, "note": 53, "velocity": 79, "channel": 0}, {"type": "note_off", "time": 0, "note": 56, "velocity": 94, "channel": 0}, {"type": "note_off", "time": 47, "note": 53, "velocity": 79, "channel": 0}, {"type": "note_on", "time": 6, "note": 58, "velocity": 93, "channel": 0}, {"type": "note_off", "time": 43, "note": 58, "velocity": 93, "channel": 0}, {"type": "note_on", "time": 5, "note": 59, "velocity": 89, "channel": 0}, {"type": "note_off", "time": 46, "note": 59, "velocity": 89, "channel": 0}, {"type": "note_on", "time": 0, "note": 58, "velocity": 89, "channel": 0}, {"type": "note_off", "time": 35, "note": 58, "velocity": 89, "channel": 0}, {"type": "note_on", "time": 0, "note": 55, "velocity": 89, "channel": 0}, {"type": "note_off", "time": 79, "note": 55, "velocity": 89, "channel": 0}, {"type": "note_on", "time": 1, "note": 56, "velocity": 88, "channel": 0}, {"type": "note_off", "time": 96, "note": 56, "velocity": 88, "channel": 0}, {"type": "note_on", "time": 0, "note": 58, "velocity": 90, "channel": 0}, {"type": "note_off", "time": 84, "note": 58, "velocity": 90, "channel": 0}, {"type": "note_on", "time": 17, "note": 60, "velocity": 99, "channel": 0}, {"type": "note_off", "time": 97, "note": 60, "velocity": 99, "channel": 0}, {"type": "note_on", "time": 3, "note": 63, "velocity": 106, "channel": 0}, {"type": "note_off", "time": 87, "note": 63, "velocity": 106, "channel": 0}, {"type": "note_on", "time": 6, "note": 65, "velocity": 78, "channel": 0}, {"type": "note_off", "time": 80, "note": 65, "velocity": 78, "channel": 0}, {"type": "note_on", "time": 2, "note": 67, "velocity": 80, "channel": 0}, {"type": "note_off", "time": 82, "note": 67, "velocity": 80, "channel": 0}, {"type": "note_on", "time": 0, "note": 70, "velocity": 102, "channel": 0}, {"type": "note_off", "time": 95, "note": 70, "velocity": 102, "channel": 0}, {"type": "note_on", "time": 14, "note": 67, "velocity": 82, "channel": 0}, {"type": "note_off", "time": 91, "note": 67, "velocity": 82, "channel": 0}, {"type": "note_on", "time": 0, "note": 68, "velocity": 103, "channel": 0}, {"type": "note_off", "time": 99, "note": 68, "velocity": 103, "channel": 0}, {"type": "note_on", "time": 0, "note": 70, "velocity": 98, "channel": 0}, {"type": "note_off", "time": 90, "note": 70, "velocity": 98, "channel": 0}, {"type": "note_on", "time": 5, "note": 67, "velocity": 98, "channel": 0}, {"type": "note_off", "time": 199, "note": 67, "velocity": 98, "channel": 0}, {"type": "note_on", "time": 1, "note": 63, "velocity": 84, "channel": 0}, {"type": "note_off", "time": 150, "note": 63, "velocity": 84, "channel": 0}, {"type": "note_on", "time": 39, "note": 60, "velocity": 100, "channel": 0}, {"type": "note_off", "time": 171, "note": 60, "velocity": 100, "channel": 0}, {"type": "note_on", "time": 26, "note": 63, "velocity": 88, "channel": 0}, {"type": "note_off", "time": 439, "note": 63, "velocity": 88, "channel": 0}, {"type": "note_on", "time": 659, "note": 46, "velocity": 92, "channel": 0}, {"type": "note_off", "time": 59, "note": 46, "velocity": 92, "channel": 0}, {"type": "note_on", "time": 2, "note": 50, "velocity": 96, "channel": 0}, {"type": "note_off", "time": 75, "note": 50, "velocity": 96, "channel": 0}, {"type": "note_on", "time": 12, "note": 53, "velocity": 96, "channel": 0}, {"type": "note_off", "time": 81, "note": 53, "velocity": 96, "channel": 0}, {"type": "note_on", "time": 36, "note": 52, "velocity": 91, "channel": 0}, {"type": "note_off", "time": 98, "note": 52, "velocity": 91, "channel": 0}, {"type": "note_on", "time": 9, "note": 50, "velocity": 84, "channel": 0}, {"type": "note_on", "time": 71, "note": 51, "velocity": 98, "channel": 0}, {"type": "note_off", "time": 0, "note": 50, "velocity": 84, "channel": 0}, {"type": "note_off", "time": 96, "note": 51, "velocity": 98, "channel": 0}, {"type": "note_on", "time": 15, "note": 53, "velocity": 97, "channel": 0}, {"type": "note_off", "time": 73, "note": 53, "velocity": 97, "channel": 0}, {"type": "note_on", "time": 0, "note": 55, "velocity": 88, "channel": 0}, {"type": "note_off", "time": 100, "note": 55, "velocity": 88, "channel": 0}, {"type": "note_on", "time": 12, "note": 58, "velocity": 87, "channel": 0}, {"type": "note_off", "time": 92, "note": 58, "velocity": 87, "channel": 0}, {"type": "note_on", "time": 4, "note": 57, "velocity": 91, "channel": 0}, {"type": "note_off", "time": 93, "note": 57, "velocity": 91, "channel": 0}, {"type": "note_on", "time": 30, "note": 55, "velocity": 89, "channel": 0}, {"type": "note_off", "time": 95, "note": 55, "velocity": 89, "channel": 0}, {"type": "note_on", "time": 0, "note": 56, "velocity": 92, "channel": 0}, {"type": "note_off", "time": 72, "note": 56, "velocity": 92, "channel": 0}, {"type": "note_on", "time": 3, "note": 55, "velocity": 91, "channel": 0}, {"type": "note_off", "time": 55, "note": 55, "velocity": 91, "channel": 0}, {"type": "note_on", "time": 16, "note": 54, "velocity": 90, "channel": 0}, {"type": "note_off", "time": 92, "note": 54, "velocity": 90, "channel": 0}, {"type": "note_on", "time": 27, "note": 56, "velocity": 93, "channel": 0}, {"type": "note_off", "time": 101, "note": 56, "velocity": 93, "channel": 0}, {"type": "note_on", "time": 8, "note": 55, "velocity": 91, "channel": 0}, {"type": "note_off", "time": 95, "note": 55, "velocity": 91, "channel": 0}, {"type": "note_on", "time": 0, "note": 54, "velocity": 93, "channel": 0}, {"type": "note_off", "time": 97, "note": 54, "velocity": 93, "channel": 0}, {"type": "note_on", "time": 1, "note": 53, "velocity": 90, "channel": 0}, {"type": "note_off", "time": 112, "note": 53, "velocity": 90, "channel": 0}, {"type": "note_on", "time": 0, "note": 52, "velocity": 97, "channel": 0}, {"type": "note_off", "time": 91, "note": 52, "velocity": 97, "channel": 0}, {"type": "note_on", "time": 0, "note": 51, "velocity": 93, "channel": 0}, {"type": "note_off", "time": 87, "note": 51, "velocity": 93, "channel": 0}, {"type": "note_on", "time": 0, "note": 53, "velocity": 87, "channel": 0}, {"type": "note_off", "time": 104, "note": 53, "velocity": 87, "channel": 0}, {"type": "note_on", "time": 0, "note": 55, "velocity": 91, "channel": 0}, {"type": "note_off", "time": 91, "note": 55, "velocity": 91, "channel": 0}, {"type": "note_on", "time": 0, "note": 58, "velocity": 85, "channel": 0}, {"type": "note_off", "time": 89, "note": 58, "velocity": 85, "channel": 0}, {"type": "note_on", "time": 0, "note": 57, "velocity": 81, "channel": 0}, {"type": "note_off", "time": 159, "note": 57, "velocity": 81, "channel": 0}, {"type": "note_on", "time": 21, "note": 58, "velocity": 91, "channel": 0}, {"type": "note_off", "time": 115, "note": 58, "velocity": 91, "channel": 0}, {"type": "note_on", "time": 72, "note": 60, "velocity": 102, "channel": 0}, {"type": "note_off", "time": 106, "note": 60, "velocity": 102, "channel": 0}, {"type": "note_on", "time": 1, "note": 62, "velocity": 104, "channel": 0}, {"type": "note_off", "time": 95, "note": 62, "velocity": 104, "channel": 0}, {"type": "note_on", "time": 0, "note": 63, "velocity": 105, "channel": 0}, {"type": "note_off", "time": 86, "note": 63, "velocity": 105, "channel": 0}, {"type": "note_on", "time": 5, "note": 64, "velocity": 108, "channel": 0}, {"type": "note_off", "time": 98, "note": 64, "velocity": 108, "channel": 0}, {"type": "note_on", "time": 3, "note": 65, "velocity": 99, "channel": 0}, {"type": "note_off", "time": 90, "note": 65, "velocity": 99, "channel": 0}, {"type": "note_on", "time": 0, "note": 64, "velocity": 108, "channel": 0}, {"type": "note_on", "time": 86, "note": 63, "velocity": 105, "channel": 0}, {"type": "note_off", "time": 0, "note": 64, "velocity": 108, "channel": 0}, {"type": "note_off", "time": 104, "note": 63, "velocity": 105, "channel": 0}, {"type": "note_on", "time": 7, "note": 67, "velocity": 97, "channel": 0}, {"type": "note_off", "time": 92, "note": 67, "velocity": 97, "channel": 0}, {"type": "note_on", "time": 0, "note": 66, "velocity": 99, "channel": 0}, {"type": "note_off", "time": 97, "note": 66, "velocity": 99, "channel": 0}, {"type": "note_on", "time": 9, "note": 61, "velocity": 104, "channel": 0}, {"type": "note_off", "time": 77, "note": 61, "velocity": 104, "channel": 0}, {"type": "note_on", "time": 0, "note": 58, "velocity": 95, "channel": 0}, {"type": "note_off", "time": 86, "note": 58, "velocity": 95, "channel": 0}, {"type": "note_on", "time": 17, "note": 56, "velocity": 91, "channel": 0}, {"type": "note_off", "time": 58, "note": 56, "velocity": 91, "channel": 0}, {"type": "note_on", "time": 33, "note": 63, "velocity": 106, "channel": 0}, {"type": "note_off", "time": 94, "note": 63, "velocity": 106, "channel": 0}, {"type": "note_on", "time": 16, "note": 61, "velocity": 99, "channel": 0}, {"type": "note_off", "time": 87, "note": 61, "velocity": 99, "channel": 0}, {"type": "note_on", "time": 0, "note": 56, "velocity": 94, "channel": 0}, {"type": "note_off", "time": 97, "note": 56, "velocity": 94, "channel": 0}, {"type": "note_on", "time": 0, "note": 53, "velocity": 85, "channel": 0}, {"type": "note_off", "time": 96, "note": 53, "velocity": 85, "channel": 0}, {"type": "note_on", "time": 0, "note": 58, "velocity": 89, "channel": 0}, {"type": "note_off", "time": 96, "note": 58, "velocity": 89, "channel": 0}, {"type": "note_on", "time": 12, "note": 54, "velocity": 96, "channel": 0}, {"type": "note_off", "time": 58, "note": 54, "velocity": 96, "channel": 0}, {"type": "note_on", "time": 12, "note": 53, "velocity": 95, "channel": 0}, {"type": "note_off", "time": 114, "note": 53, "velocity": 95, "channel": 0}, {"type": "note_on", "time": 0, "note": 52, "velocity": 97, "channel": 0}, {"type": "note_off", "time": 86, "note": 52, "velocity": 97, "channel": 0}, {"type": "note_on", "time": 0, "note": 51, "velocity": 96, "channel": 0}, {"type": "note_off", "time": 100, "note": 51, "velocity": 96, "channel": 0}, {"type": "note_on", "time": 0, "note": 53, "velocity": 89, "channel": 0}, {"type": "note_off", "time": 96, "note": 53, "velocity": 89, "channel": 0}, {"type": "note_on", "time": 2, "note": 54, "velocity": 93, "channel": 0}, {"type": "note_off", "time": 173, "note": 54, "velocity": 93, "channel": 0}, {"type": "note_on", "time": 409, "note": 56, "velocity": 99, "channel": 0}, {"type": "note_off", "time": 92, "note": 56, "velocity": 99, "channel": 0}, {"type": "note_on", "time": 2, "note": 58, "velocity": 95, "channel": 0}, {"type": "note_off", "time": 105, "note": 58, "velocity": 95, "channel": 0}, {"type": "note_on", "time": 0, "note": 59, "velocity": 94, "channel": 0}, {"type": "note_off", "time": 119, "note": 59, "velocity": 94, "channel": 0}, {"type": "note_on", "time": 834, "note": 46, "velocity": 118, "channel": 0}, {"type": "note_off", "time": 75, "note": 46, "velocity": 118, "channel": 0}, {"type": "note_on", "time": 11, "note": 51, "velocity": 99, "channel": 0}, {"type": "note_off", "time": 74, "note": 51, "velocity": 99, "channel": 0}, {"type": "note_on", "time": 13, "note": 55, "velocity": 94, "channel": 0}, {"type": "note_off", "time": 59, "note": 55, "velocity": 94, "channel": 0}, {"type": "note_on", "time": 16, "note": 58, "velocity": 91, "channel": 0}, {"type": "note_off", "time": 39, "note": 58, "velocity": 91, "channel": 0}, {"type": "note_on", "time": 15, "note": 58, "velocity": 95, "channel": 0}, {"type": "note_off", "time": 42, "note": 58, "velocity": 95, "channel": 0}, {"type": "note_on", "time": 37, "note": 61, "velocity": 101, "channel": 0}, {"type": "note_off", "time": 132, "note": 61, "velocity": 101, "channel": 0}, {"type": "note_on", "time": 0, "note": 56, "velocity": 96, "channel": 0}, {"type": "note_off", "time": 57, "note": 56, "velocity": 96, "channel": 0}, {"type": "note_on", "time": 32, "note": 53, "velocity": 97, "channel": 0}, {"type": "note_off", "time": 107, "note": 53, "velocity": 97, "channel": 0}, {"type": "note_on", "time": 12, "note": 51, "velocity": 86, "channel": 0}, {"type": "note_off", "time": 55, "note": 51, "velocity": 86, "channel": 0}, {"type": "note_on", "time": 5, "note": 53, "velocity": 96, "channel": 0}, {"type": "note_off", "time": 95, "note": 53, "velocity": 96, "channel": 0}, {"type": "note_on", "time": 0, "note": 55, "velocity": 93, "channel": 0}, {"type": "note_off", "time": 70, "note": 55, "velocity": 93, "channel": 0}, {"type": "note_on", "time": 4, "note": 58, "velocity": 92, "channel": 0}, {"type": "note_off", "time": 109, "note": 58, "velocity": 92, "channel": 0}, {"type": "note_on", "time": 477, "note": 51, "velocity": 101, "channel": 0}, {"type": "note_off", "time": 92, "note": 51, "velocity": 101, "channel": 0}, {"type": "note_on", "time": 1, "note": 53, "velocity": 99, "channel": 0}, {"type": "note_off", "time": 81, "note": 53, "velocity": 99, "channel": 0}, {"type": "note_on", "time": 2, "note": 55, "velocity": 99, "channel": 0}, {"type": "note_off", "time": 83, "note": 55, "velocity": 99, "channel": 0}, {"type": "note_on", "time": 32, "note": 58, "velocity": 94, "channel": 0}, {"type": "note_off", "time": 89, "note": 58, "velocity": 94, "channel": 0}, {"type": "note_on", "time": 0, "note": 53, "velocity": 98, "channel": 0}, {"type": "note_off", "time": 102, "note": 53, "velocity": 98, "channel": 0}, {"type": "note_on", "time": 0, "note": 55, "velocity": 95, "channel": 0}, {"type": "note_off", "time": 102, "note": 55, "velocity": 95, "channel": 0}, {"type": "note_on", "time": 3, "note": 56, "velocity": 93, "channel": 0}, {"type": "note_off", "time": 101, "note": 56, "velocity": 93, "channel": 0}, {"type": "note_on", "time": 0, "note": 58, "velocity": 95, "channel": 0}, {"type": "note_off", "time": 102, "note": 58, "velocity": 95, "channel": 0}, {"type": "note_on", "time": 0, "note": 55, "velocity": 95, "channel": 0}, {"type": "note_off", "time": 81, "note": 55, "velocity": 95, "channel": 0}, {"type": "note_on", "time": 0, "note": 58, "velocity": 92, "channel": 0}, {"type": "note_off", "time": 73, "note": 58, "velocity": 92, "channel": 0}, {"type": "note_on", "time": 0, "note": 63, "velocity": 104, "channel": 0}, {"type": "note_off", "time": 94, "note": 63, "velocity": 104, "channel": 0}, {"type": "note_on", "time": 8, "note": 65, "velocity": 102, "channel": 0}, {"type": "note_off", "time": 73, "note": 65, "velocity": 102, "channel": 0}, {"type": "note_on", "time": 2, "note": 67, "velocity": 90, "channel": 0}, {"type": "note_off", "time": 213, "note": 67, "velocity": 90, "channel": 0}, {"type": "note_on", "time": 186, "note": 67, "velocity": 93, "channel": 0}, {"type": "note_off", "time": 111, "note": 67, "velocity": 93, "channel": 0}, {"type": "note_on", "time": 0, "note": 68, "velocity": 9, "channel": 0}, {"type": "note_off", "time": 119, "note": 68, "velocity": 9, "channel": 0}, {"type": "note_on", "time": 43, "note": 72, "velocity": 104, "channel": 0}, {"type": "note_off", "time": 121, "note": 72, "velocity": 104, "channel": 0}, {"type": "note_on", "time": 0, "note": 75, "velocity": 113, "channel": 0}, {"type": "note_off", "time": 93, "note": 75, "velocity": 113, "channel": 0}, {"type": "note_on", "time": 51, "note": 79, "velocity": 111, "channel": 0}, {"type": "note_off", "time": 1258, "note": 79, "velocity": 111, "channel": 0}, {"type": "note_on", "time": 136, "note": 75, "velocity": 105, "channel": 0}, {"type": "note_off", "time": 158, "note": 75, "velocity": 105, "channel": 0}, {"type": "note_on", "time": 9, "note": 75, "velocity": 108, "channel": 0}, {"type": "note_off", "time": 115, "note": 75, "velocity": 108, "channel": 0}, {"type": "note_on", "time": 14, "note": 72, "velocity": 106, "channel": 0}, {"type": "note_off", "time": 128, "note": 72, "velocity": 106, "channel": 0}, {"type": "note_on", "time": 23, "note": 72, "velocity": 101, "channel": 0}, {"type": "note_off", "time": 119, "note": 72, "velocity": 101, "channel": 0}, {"type": "note_on", "time": 4, "note": 67, "velocity": 106, "channel": 0}, {"type": "note_off", "time": 247, "note": 67, "velocity": 106, "channel": 0}, {"type": "note_on", "time": 342, "note": 67, "velocity": 112, "channel": 0}, {"type": "note_off", "time": 90, "note": 67, "velocity": 112, "channel": 0}, {"type": "note_on", "time": 0, "note": 69, "velocity": 99, "channel": 0}, {"type": "note_off", "time": 103, "note": 69, "velocity": 99, "channel": 0}, {"type": "note_on", "time": 0, "note": 72, "velocity": 106, "channel": 0}, {"type": "note_off", "time": 94, "note": 72, "velocity": 106, "channel": 0}, {"type": "note_on", "time": 0, "note": 75, "velocity": 106, "channel": 0}, {"type": "note_off", "time": 106, "note": 75, "velocity": 106, "channel": 0}, {"type": "note_on", "time": 8, "note": 79, "velocity": 114, "channel": 0}, {"type": "note_off", "time": 76, "note": 79, "velocity": 114, "channel": 0}, {"type": "note_on", "time": 0, "note": 81, "velocity": 107, "channel": 0}, {"type": "note_off", "time": 607, "note": 81, "velocity": 107, "channel": 0}, {"type": "note_on", "time": 56, "note": 79, "velocity": 96, "channel": 0}, {"type": "note_off", "time": 52, "note": 79, "velocity": 96, "channel": 0}, {"type": "note_on", "time": 19, "note": 71, "velocity": 98, "channel": 0}, {"type": "note_off", "time": 49, "note": 71, "velocity": 98, "channel": 0}, {"type": "note_on", "time": 0, "note": 75, "velocity": 111, "channel": 0}, {"type": "note_off", "time": 90, "note": 75, "velocity": 111, "channel": 0}, {"type": "note_on", "time": 8, "note": 70, "velocity": 110, "channel": 0}, {"type": "note_off", "time": 69, "note": 70, "velocity": 110, "channel": 0}, {"type": "note_on", "time": 0, "note": 67, "velocity": 91, "channel": 0}, {"type": "note_off", "time": 74, "note": 67, "velocity": 91, "channel": 0}, {"type": "note_on", "time": 49, "note": 69, "velocity": 109, "channel": 0}, {"type": "note_off", "time": 91, "note": 69, "velocity": 109, "channel": 0}, {"type": "note_on", "time": 0, "note": 65, "velocity": 111, "channel": 0}, {"type": "note_off", "time": 95, "note": 65, "velocity": 111, "channel": 0}, {"type": "note_on", "time": 0, "note": 62, "velocity": 115, "channel": 0}, {"type": "note_off", "time": 91, "note": 62, "velocity": 115, "channel": 0}, {"type": "note_on", "time": 8, "note": 58, "velocity": 97, "channel": 0}, {"type": "note_off", "time": 60, "note": 58, "velocity": 97, "channel": 0}, {"type": "note_on", "time": 34, "note": 63, "velocity": 117, "channel": 0}, {"type": "note_off", "time": 97, "note": 63, "velocity": 117, "channel": 0}, {"type": "note_on", "time": 5, "note": 62, "velocity": 112, "channel": 0}, {"type": "note_off", "time": 89, "note": 62, "velocity": 112, "channel": 0}, {"type": "note_on", "time": 0, "note": 58, "velocity": 101, "channel": 0}, {"type": "note_off", "time": 99, "note": 58, "velocity": 101, "channel": 0}, {"type": "note_on", "time": 12, "note": 55, "velocity": 91, "channel": 0}, {"type": "note_off", "time": 84, "note": 55, "velocity": 91, "channel": 0}, {"type": "note_on", "time": 0, "note": 63, "velocity": 117, "channel": 0}, {"type": "note_off", "time": 98, "note": 63, "velocity": 117, "channel": 0}, {"type": "note_on", "time": 1, "note": 61, "velocity": 109, "channel": 0}, {"type": "note_off", "time": 105, "note": 61, "velocity": 109, "channel": 0}, {"type": "note_on", "time": 0, "note": 59, "velocity": 96, "channel": 0}, {"type": "note_off", "time": 161, "note": 59, "velocity": 96, "channel": 0}, {"type": "note_on", "time": 28, "note": 58, "velocity": 106, "channel": 0}, {"type": "note_off", "time": 63, "note": 58, "velocity": 106, "channel": 0}, {"type": "note_on", "time": 18, "note": 55, "velocity": 94, "channel": 0}, {"type": "note_off", "time": 85, "note": 55, "velocity": 94, "channel": 0}, {"type": "note_on", "time": 15, "note": 56, "velocity": 98, "channel": 0}, {"type": "note_off", "time": 97, "note": 56, "velocity": 98, "channel": 0}, {"type": "note_on", "time": 2, "note": 58, "velocity": 99, "channel": 0}, {"type": "note_off", "time": 86, "note": 58, "velocity": 99, "channel": 0}, {"type": "note_on", "time": 8, "note": 59, "velocity": 102, "channel": 0}, {"type": "note_off", "time": 88, "note": 59, "velocity": 102, "channel": 0}, {"type": "note_on", "time": 6, "note": 61, "velocity": 114, "channel": 0}, {"type": "note_off", "time": 83, "note": 61, "velocity": 114, "channel": 0}, {"type": "note_on", "time": 0, "note": 63, "velocity": 113, "channel": 0}, {"type": "note_off", "time": 102, "note": 63, "velocity": 113, "channel": 0}, {"type": "note_on", "time": 0, "note": 65, "velocity": 108, "channel": 0}, {"type": "note_off", "time": 95, "note": 65, "velocity": 108, "channel": 0}, {"type": "note_on", "time": 0, "note": 66, "velocity": 106, "channel": 0}, {"type": "note_off", "time": 90, "note": 66, "velocity": 106, "channel": 0}, {"type": "note_on", "time": 3, "note": 68, "velocity": 111, "channel": 0}, {"type": "note_off", "time": 88, "note": 68, "velocity": 111, "channel": 0}, {"type": "note_on", "time": 10, "note": 70, "velocity": 107, "channel": 0}, {"type": "note_off", "time": 104, "note": 70, "velocity": 107, "channel": 0}, {"type": "note_on", "time": 9, "note": 71, "velocity": 107, "channel": 0}, {"type": "note_off", "time": 81, "note": 71, "velocity": 107, "channel": 0}, {"type": "note_on", "time": 0, "note": 73, "velocity": 102, "channel": 0}, {"type": "note_off", "time": 276, "note": 73, "velocity": 102, "channel": 0}, {"type": "note_on", "time": 395, "note": 73, "velocity": 107, "channel": 0}, {"type": "note_off", "time": 29, "note": 73, "velocity": 107, "channel": 0}, {"type": "note_on", "time": 18, "note": 73, "velocity": 106, "channel": 0}, {"type": "note_off", "time": 87, "note": 73, "velocity": 106, "channel": 0}, {"type": "note_on", "time": 1, "note": 70, "velocity": 109, "channel": 0}, {"type": "note_off", "time": 109, "note": 70, "velocity": 109, "channel": 0}, {"type": "note_on", "time": 52, "note": 73, "velocity": 106, "channel": 0}, {"type": "note_off", "time": 70, "note": 73, "velocity": 106, "channel": 0}, {"type": "note_on", "time": 0, "note": 66, "velocity": 96, "channel": 0}, {"type": "note_off", "time": 92, "note": 66, "velocity": 96, "channel": 0}, {"type": "note_on", "time": 22, "note": 58, "velocity": 100, "channel": 0}, {"type": "note_off", "time": 113, "note": 58, "velocity": 100, "channel": 0}, {"type": "note_on", "time": 71, "note": 73, "velocity": 106, "channel": 0}, {"type": "note_off", "time": 55, "note": 73, "velocity": 106, "channel": 0}, {"type": "note_on", "time": 29, "note": 73, "velocity": 107, "channel": 0}, {"type": "note_off", "time": 125, "note": 73, "velocity": 107, "channel": 0}, {"type": "note_on", "time": 7, "note": 70, "velocity": 109, "channel": 0}, {"type": "note_off", "time": 161, "note": 70, "velocity": 109, "channel": 0}, {"type": "note_on", "time": 5, "note": 73, "velocity": 107, "channel": 0}, {"type": "note_off", "time": 91, "note": 73, "velocity": 107, "channel": 0}, {"type": "note_on", "time": 29, "note": 73, "velocity": 108, "channel": 0}, {"type": "note_off", "time": 61, "note": 73, "velocity": 108, "channel": 0}, {"type": "note_on", "time": 46, "note": 67, "velocity": 110, "channel": 0}, {"type": "note_off", "time": 167, "note": 67, "velocity": 110, "channel": 0}, {"type": "note_on", "time": 26, "note": 73, "velocity": 105, "channel": 0}, {"type": "note_off", "time": 44, "note": 73, "velocity": 105, "channel": 0}, {"type": "note_on", "time": 34, "note": 73, "velocity": 99, "channel": 0}, {"type": "note_off", "time": 89, "note": 73, "velocity": 99, "channel": 0}, {"type": "note_on", "time": 0, "note": 67, "velocity": 112, "channel": 0}, {"type": "note_off", "time": 134, "note": 67, "velocity": 112, "channel": 0}, {"type": "note_on", "time": 69, "note": 73, "velocity": 103, "channel": 0}, {"type": "note_off", "time": 53, "note": 73, "velocity": 103, "channel": 0}, {"type": "note_on", "time": 20, "note": 73, "velocity": 104, "channel": 0}, {"type": "note_off", "time": 86, "note": 73, "velocity": 104, "channel": 0}, {"type": "note_on", "time": 0, "note": 67, "velocity": 109, "channel": 0}, {"type": "note_off", "time": 140, "note": 67, "velocity": 109, "channel": 0}, {"type": "note_on", "time": 72, "note": 73, "velocity": 102, "channel": 0}, {"type": "note_off", "time": 61, "note": 73, "velocity": 102, "channel": 0}, {"type": "note_on", "time": 38, "note": 73, "velocity": 99, "channel": 0}, {"type": "note_off", "time": 90, "note": 73, "velocity": 99, "channel": 0}, {"type": "note_on", "time": 8, "note": 67, "velocity": 111, "channel": 0}, {"type": "note_off", "time": 133, "note": 67, "velocity": 111, "channel": 0}, {"type": "note_on", "time": 0, "note": 73, "velocity": 102, "channel": 0}, {"type": "note_off", "time": 201, "note": 73, "velocity": 102, "channel": 0}, {"type": "note_on", "time": 620, "note": 73, "velocity": 113, "channel": 0}, {"type": "note_off", "time": 41, "note": 73, "velocity": 113, "channel": 0}, {"type": "note_on", "time": 45, "note": 73, "velocity": 99, "channel": 0}, {"type": "note_off", "time": 88, "note": 73, "velocity": 99, "channel": 0}, {"type": "note_on", "time": 11, "note": 70, "velocity": 110, "channel": 0}, {"type": "note_off", "time": 130, "note": 70, "velocity": 110, "channel": 0}, {"type": "note_on", "time": 48, "note": 73, "velocity": 102, "channel": 0}, {"type": "note_off", "time": 70, "note": 73, "velocity": 102, "channel": 0}, {"type": "note_on", "time": 7, "note": 73, "velocity": 90, "channel": 0}, {"type": "note_off", "time": 118, "note": 73, "velocity": 90, "channel": 0}, {"type": "note_on", "time": 36, "note": 70, "velocity": 102, "channel": 0}, {"type": "note_on", "time": 196, "note": 72, "velocity": 111, "channel": 0}, {"type": "note_off", "time": 0, "note": 70, "velocity": 102, "channel": 0}, {"type": "note_off", "time": 63, "note": 72, "velocity": 111, "channel": 0}, {"type": "note_on", "time": 22, "note": 72, "velocity": 105, "channel": 0}, {"type": "note_off", "time": 67, "note": 72, "velocity": 105, "channel": 0}, {"type": "note_on", "time": 0, "note": 68, "velocity": 116, "channel": 0}, {"type": "note_off", "time": 136, "note": 68, "velocity": 116, "channel": 0}, {"type": "note_on", "time": 60, "note": 72, "velocity": 109, "channel": 0}, {"type": "note_off", "time": 86, "note": 72, "velocity": 109, "channel": 0}, {"type": "note_on", "time": 12, "note": 72, "velocity": 102, "channel": 0}, {"type": "note_off", "time": 77, "note": 72, "velocity": 102, "channel": 0}, {"type": "note_on", "time": 1, "note": 68, "velocity": 111, "channel": 0}, {"type": "note_off", "time": 163, "note": 68, "velocity": 111, "channel": 0}, {"type": "note_on", "time": 47, "note": 72, "velocity": 106, "channel": 0}, {"type": "note_off", "time": 91, "note": 72, "velocity": 106, "channel": 0}, {"type": "note_on", "time": 6, "note": 72, "velocity": 103, "channel": 0}, {"type": "note_off", "time": 71, "note": 72, "velocity": 103, "channel": 0}, {"type": "note_on", "time": 21, "note": 68, "velocity": 113, "channel": 0}, {"type": "note_off", "time": 198, "note": 68, "velocity": 113, "channel": 0}, {"type": "note_on", "time": 4, "note": 72, "velocity": 100, "channel": 0}, {"type": "note_off", "time": 179, "note": 72, "velocity": 100, "channel": 0}, {"type": "note_on", "time": 0, "note": 79, "velocity": 114, "channel": 0}, {"type": "note_off", "time": 397, "note": 79, "velocity": 114, "channel": 0}, {"type": "note_on", "time": 475, "note": 44, "velocity": 114, "channel": 0}, {"type": "note_off", "time": 95, "note": 44, "velocity": 114, "channel": 0}, {"type": "note_on", "time": 0, "note": 51, "velocity": 109, "channel": 0}, {"type": "note_off", "time": 94, "note": 51, "velocity": 109, "channel": 0}, {"type": "note_on", "time": 5, "note": 58, "velocity": 101, "channel": 0}, {"type": "note_off", "time": 69, "note": 58, "velocity": 101, "channel": 0}, {"type": "note_on", "time": 5, "note": 49, "velocity": 103, "channel": 0}, {"type": "note_off", "time": 98, "note": 49, "velocity": 103, "channel": 0}, {"type": "note_on", "time": 0, "note": 50, "velocity": 99, "channel": 0}, {"type": "note_off", "time": 74, "note": 50, "velocity": 99, "channel": 0}, {"type": "note_on", "time": 0, "note": 53, "velocity": 106, "channel": 0}, {"type": "note_off", "time": 103, "note": 53, "velocity": 106, "channel": 0}, {"type": "note_on", "time": 0, "note": 52, "velocity": 108, "channel": 0}, {"type": "note_off", "time": 105, "note": 52, "velocity": 108, "channel": 0}, {"type": "note_on", "time": 1, "note": 51, "velocity": 102, "channel": 0}, {"type": "note_off", "time": 103, "note": 51, "velocity": 102, "channel": 0}, {"type": "note_on", "time": 0, "note": 55, "velocity": 95, "channel": 0}, {"type": "note_off", "time": 85, "note": 55, "velocity": 95, "channel": 0}, {"type": "note_on", "time": 16, "note": 58, "velocity": 97, "channel": 0}, {"type": "note_off", "time": 84, "note": 58, "velocity": 97, "channel": 0}, {"type": "note_on", "time": 18, "note": 58, "velocity": 103, "channel": 0}, {"type": "note_off", "time": 79, "note": 58, "velocity": 103, "channel": 0}, {"type": "note_on", "time": 0, "note": 55, "velocity": 101, "channel": 0}, {"type": "note_off", "time": 76, "note": 55, "velocity": 101, "channel": 0}, {"type": "note_on", "time": 12, "note": 56, "velocity": 100, "channel": 0}, {"type": "note_off", "time": 92, "note": 56, "velocity": 100, "channel": 0}, {"type": "note_on", "time": 25, "note": 59, "velocity": 98, "channel": 0}, {"type": "note_off", "time": 85, "note": 59, "velocity": 98, "channel": 0}, {"type": "note_on", "time": 0, "note": 63, "velocity": 114, "channel": 0}, {"type": "note_off", "time": 88, "note": 63, "velocity": 114, "channel": 0}, {"type": "note_on", "time": 0, "note": 58, "velocity": 98, "channel": 0}, {"type": "note_off", "time": 93, "note": 58, "velocity": 98, "channel": 0}, {"type": "note_on", "time": 11, "note": 59, "velocity": 97, "channel": 0}, {"type": "note_off", "time": 83, "note": 59, "velocity": 97, "channel": 0}, {"type": "note_on", "time": 0, "note": 63, "velocity": 105, "channel": 0}, {"type": "note_off", "time": 100, "note": 63, "velocity": 105, "channel": 0}, {"type": "note_on", "time": 0, "note": 65, "velocity": 100, "channel": 0}, {"type": "note_off", "time": 86, "note": 65, "velocity": 100, "channel": 0}, {"type": "note_on", "time": 9, "note": 67, "velocity": 109, "channel": 0}, {"type": "note_off", "time": 98, "note": 67, "velocity": 109, "channel": 0}, {"type": "note_on", "time": 5, "note": 70, "velocity": 107, "channel": 0}, {"type": "note_off", "time": 79, "note": 70, "velocity": 107, "channel": 0}, {"type": "note_on", "time": 195, "note": 70, "velocity": 108, "channel": 0}, {"type": "note_off", "time": 124, "note": 70, "velocity": 108, "channel": 0}, {"type": "note_on", "time": 12, "note": 67, "velocity": 101, "channel": 0}, {"type": "note_off", "time": 173, "note": 67, "velocity": 101, "channel": 0}, {"type": "note_on", "time": 80, "note": 67, "velocity": 109, "channel": 0}, {"type": "note_off", "time": 98, "note": 67, "velocity": 109, "channel": 0}, {"type": "note_on", "time": 16, "note": 63, "velocity": 104, "channel": 0}, {"type": "note_off", "time": 158, "note": 63, "velocity": 104, "channel": 0}, {"type": "note_on", "time": 109, "note": 63, "velocity": 114, "channel": 0}, {"type": "note_off", "time": 114, "note": 63, "velocity": 114, "channel": 0}, {"type": "note_on", "time": 17, "note": 59, "velocity": 90, "channel": 0}, {"type": "note_off", "time": 171, "note": 59, "velocity": 90, "channel": 0}, {"type": "note_on", "time": 54, "note": 59, "velocity": 100, "channel": 0}, {"type": "note_off", "time": 66, "note": 59, "velocity": 100, "channel": 0}, {"type": "note_on", "time": 65, "note": 58, "velocity": 100, "channel": 0}, {"type": "note_off", "time": 162, "note": 58, "velocity": 100, "channel": 0}, {"type": "note_on", "time": 82, "note": 58, "velocity": 99, "channel": 0}, {"type": "note_off", "time": 102, "note": 58, "velocity": 99, "channel": 0}, {"type": "note_on", "time": 16, "note": 55, "velocity": 104, "channel": 0}, {"type": "note_off", "time": 205, "note": 55, "velocity": 104, "channel": 0}, {"type": "note_on", "time": 467, "note": 70, "velocity": 115, "channel": 0}, {"type": "note_off", "time": 96, "note": 70, "velocity": 115, "channel": 0}, {"type": "note_on", "time": 0, "note": 69, "velocity": 112, "channel": 0}, {"type": "note_off", "time": 60, "note": 69, "velocity": 112, "channel": 0}, {"type": "note_on", "time": 19, "note": 68, "velocity": 111, "channel": 0}, {"type": "note_off", "time": 102, "note": 68, "velocity": 111, "channel": 0}, {"type": "note_on", "time": 6, "note": 67, "velocity": 110, "channel": 0}, {"type": "note_off", "time": 100, "note": 67, "velocity": 110, "channel": 0}, {"type": "note_on", "time": 2, "note": 65, "velocity": 89, "channel": 0}, {"type": "note_off", "time": 92, "note": 65, "velocity": 89, "channel": 0}, {"type": "note_on", "time": 0, "note": 70, "velocity": 107, "channel": 0}, {"type": "note_off", "time": 85, "note": 70, "velocity": 107, "channel": 0}, {"type": "note_on", "time": 18, "note": 67, "velocity": 110, "channel": 0}, {"type": "note_off", "time": 104, "note": 67, "velocity": 110, "channel": 0}, {"type": "note_on", "time": 0, "note": 68, "velocity": 111, "channel": 0}, {"type": "note_off", "time": 70, "note": 68, "velocity": 111, "channel": 0}, {"type": "note_on", "time": 10, "note": 72, "velocity": 100, "channel": 0}, {"type": "note_off", "time": 97, "note": 72, "velocity": 100, "channel": 0}, {"type": "note_on", "time": 14, "note": 75, "velocity": 98, "channel": 0}, {"type": "note_off", "time": 67, "note": 75, "velocity": 98, "channel": 0}, {"type": "note_on", "time": 2, "note": 79, "velocity": 105, "channel": 0}, {"type": "note_off", "time": 95, "note": 79, "velocity": 105, "channel": 0}, {"type": "note_on", "time": 0, "note": 80, "velocity": 107, "channel": 0}, {"type": "note_off", "time": 96, "note": 80, "velocity": 107, "channel": 0}, {"type": "note_on", "time": 0, "note": 79, "velocity": 107, "channel": 0}, {"type": "note_off", "time": 95, "note": 79, "velocity": 107, "channel": 0}, {"type": "note_on", "time": 11, "note": 75, "velocity": 107, "channel": 0}, {"type": "note_on", "time": 63, "note": 72, "velocity": 102, "channel": 0}, {"type": "note_off", "time": 0, "note": 75, "velocity": 107, "channel": 0}, {"type": "note_off", "time": 88, "note": 72, "velocity": 102, "channel": 0}, {"type": "note_on", "time": 13, "note": 68, "velocity": 99, "channel": 0}, {"type": "note_off", "time": 52, "note": 68, "velocity": 99, "channel": 0}, {"type": "note_on", "time": 30, "note": 67, "velocity": 108, "channel": 0}, {"type": "note_off", "time": 126, "note": 67, "velocity": 108, "channel": 0}, {"type": "note_on", "time": 0, "note": 65, "velocity": 112, "channel": 0}, {"type": "note_off", "time": 78, "note": 65, "velocity": 112, "channel": 0}, {"type": "note_on", "time": 0, "note": 64, "velocity": 103, "channel": 0}, {"type": "note_off", "time": 111, "note": 64, "velocity": 103, "channel": 0}, {"type": "note_on", "time": 0, "note": 65, "velocity": 98, "channel": 0}, {"type": "note_off", "time": 84, "note": 65, "velocity": 98, "channel": 0}, {"type": "note_on", "time": 0, "note": 70, "velocity": 109, "channel": 0}, {"type": "note_off", "time": 103, "note": 70, "velocity": 109, "channel": 0}, {"type": "note_on", "time": 5, "note": 67, "velocity": 93, "channel": 0}, {"type": "note_off", "time": 63, "note": 67, "velocity": 93, "channel": 0}, {"type": "note_on", "time": 0, "note": 68, "velocity": 114, "channel": 0}, {"type": "note_off", "time": 82, "note": 68, "velocity": 114, "channel": 0}, {"type": "note_on", "time": 15, "note": 66, "velocity": 89, "channel": 0}, {"type": "note_off", "time": 73, "note": 66, "velocity": 89, "channel": 0}, {"type": "note_on", "time": 12, "note": 67, "velocity": 107, "channel": 0}, {"type": "note_off", "time": 98, "note": 67, "velocity": 107, "channel": 0}, {"type": "note_on", "time": 3, "note": 66, "velocity": 106, "channel": 0}, {"type": "note_off", "time": 105, "note": 66, "velocity": 106, "channel": 0}, {"type": "note_on", "time": 0, "note": 65, "velocity": 108, "channel": 0}, {"type": "note_off", "time": 98, "note": 65, "velocity": 108, "channel": 0}, {"type": "note_on", "time": 6, "note": 64, "velocity": 118, "channel": 0}, {"type": "note_off", "time": 82, "note": 64, "velocity": 118, "channel": 0}, {"type": "note_on", "time": 0, "note": 63, "velocity": 115, "channel": 0}, {"type": "note_off", "time": 106, "note": 63, "velocity": 115, "channel": 0}, {"type": "note_on", "time": 0, "note": 65, "velocity": 104, "channel": 0}, {"type": "note_off", "time": 82, "note": 65, "velocity": 104, "channel": 0}, {"type": "note_on", "time": 0, "note": 67, "velocity": 105, "channel": 0}, {"type": "note_off", "time": 96, "note": 67, "velocity": 105, "channel": 0}, {"type": "note_on", "time": 2, "note": 70, "velocity": 108, "channel": 0}, {"type": "note_off", "time": 76, "note": 70, "velocity": 108, "channel": 0}, {"type": "note_on", "time": 0, "note": 68, "velocity": 108, "channel": 0}, {"type": "note_off", "time": 94, "note": 68, "velocity": 108, "channel": 0}, {"type": "note_on", "time": 17, "note": 64, "velocity": 100, "channel": 0}, {"type": "note_on", "time": 81, "note": 67, "velocity": 105, "channel": 0}, {"type": "note_off", "time": 0, "note": 64, "velocity": 100, "channel": 0}, {"type": "note_off", "time": 108, "note": 67, "velocity": 105, "channel": 0}, {"type": "note_on", "time": 1, "note": 66, "velocity": 106, "channel": 0}, {"type": "note_off", "time": 88, "note": 66, "velocity": 106, "channel": 0}, {"type": "note_on", "time": 0, "note": 65, "velocity": 105, "channel": 0}, {"type": "note_off", "time": 95, "note": 65, "velocity": 105, "channel": 0}, {"type": "note_on", "time": 16, "note": 64, "velocity": 115, "channel": 0}, {"type": "note_off", "time": 84, "note": 64, "velocity": 115, "channel": 0}, {"type": "note_on", "time": 0, "note": 63, "velocity": 114, "channel": 0}, {"type": "note_off", "time": 113, "note": 63, "velocity": 114, "channel": 0}, {"type": "note_on", "time": 823, "note": 67, "velocity": 113, "channel": 0}, {"type": "note_off", "time": 63, "note": 67, "velocity": 113, "channel": 0}, {"type": "note_on", "time": 43, "note": 67, "velocity": 116, "channel": 0}, {"type": "note_off", "time": 42, "note": 67, "velocity": 116, "channel": 0}, {"type": "note_on", "time": 52, "note": 67, "velocity": 111, "channel": 0}, {"type": "note_off", "time": 95, "note": 67, "velocity": 111, "channel": 0}, {"type": "note_on", "time": 11, "note": 72, "velocity": 105, "channel": 0}, {"type": "note_off", "time": 95, "note": 72, "velocity": 105, "channel": 0}, {"type": "note_on", "time": 0, "note": 68, "velocity": 101, "channel": 0}, {"type": "note_off", "time": 103, "note": 68, "velocity": 101, "channel": 0}, {"type": "note_on", "time": 0, "note": 65, "velocity": 104, "channel": 0}, {"type": "note_off", "time": 69, "note": 65, "velocity": 104, "channel": 0}, {"type": "note_on", "time": 0, "note": 67, "velocity": 110, "channel": 0}, {"type": "note_off", "time": 57, "note": 67, "velocity": 110, "channel": 0}, {"type": "note_on", "time": 47, "note": 67, "velocity": 113, "channel": 0}, {"type": "note_off", "time": 43, "note": 67, "velocity": 113, "channel": 0}, {"type": "note_on", "time": 40, "note": 67, "velocity": 108, "channel": 0}, {"type": "note_off", "time": 96, "note": 67, "velocity": 108, "channel": 0}, {"type": "note_on", "time": 4, "note": 72, "velocity": 103, "channel": 0}, {"type": "note_off", "time": 84, "note": 72, "velocity": 103, "channel": 0}, {"type": "note_on", "time": 13, "note": 68, "velocity": 107, "channel": 0}, {"type": "note_off", "time": 104, "note": 68, "velocity": 107, "channel": 0}, {"type": "note_on", "time": 0, "note": 65, "velocity": 103, "channel": 0}, {"type": "note_on", "time": 89, "note": 67, "velocity": 111, "channel": 0}, {"type": "note_off", "time": 0, "note": 65, "velocity": 103, "channel": 0}, {"type": "note_off", "time": 90, "note": 67, "velocity": 111, "channel": 0}, {"type": "note_on", "time": 19, "note": 67, "velocity": 114, "channel": 0}, {"type": "note_off", "time": 40, "note": 67, "velocity": 114, "channel": 0}, {"type": "note_on", "time": 56, "note": 67, "velocity": 102, "channel": 0}, {"type": "note_off", "time": 89, "note": 67, "velocity": 102, "channel": 0}, {"type": "note_on", "time": 0, "note": 72, "velocity": 104, "channel": 0}, {"type": "note_off", "time": 84, "note": 72, "velocity": 104, "channel": 0}, {"type": "note_on", "time": 0, "note": 68, "velocity": 111, "channel": 0}, {"type": "note_off", "time": 94, "note": 68, "velocity": 111, "channel": 0}, {"type": "note_on", "time": 0, "note": 65, "velocity": 100, "channel": 0}, {"type": "note_off", "time": 84, "note": 65, "velocity": 100, "channel": 0}, {"type": "note_on", "time": 12, "note": 67, "velocity": 109, "channel": 0}, {"type": "note_off", "time": 84, "note": 67, "velocity": 109, "channel": 0}, {"type": "note_on", "time": 37, "note": 67, "velocity": 116, "channel": 0}, {"type": "note_off", "time": 43, "note": 67, "velocity": 116, "channel": 0}, {"type": "note_on", "time": 49, "note": 67, "velocity": 109, "channel": 0}, {"type": "note_off", "time": 94, "note": 67, "velocity": 109, "channel": 0}, {"type": "note_on", "time": 0, "note": 72, "velocity": 104, "channel": 0}, {"type": "note_off", "time": 86, "note": 72, "velocity": 104, "channel": 0}, {"type": "note_on", "time": 19, "note": 68, "velocity": 104, "channel": 0}, {"type": "note_off", "time": 76, "note": 68, "velocity": 104, "channel": 0}, {"type": "note_on", "time": 4, "note": 65, "velocity": 100, "channel": 0}, {"type": "note_off", "time": 70, "note": 65, "velocity": 100, "channel": 0}, {"type": "note_on", "time": 31, "note": 67, "velocity": 111, "channel": 0}, {"type": "note_off", "time": 31, "note": 67, "velocity": 111, "channel": 0}, {"type": "note_on", "time": 18, "note": 67, "velocity": 116, "channel": 0}, {"type": "note_off", "time": 22, "note": 67, "velocity": 116, "channel": 0}, {"type": "note_on", "time": 22, "note": 67, "velocity": 108, "channel": 0}, {"type": "note_off", "time": 45, "note": 67, "velocity": 108, "channel": 0}, {"type": "note_on", "time": 22, "note": 72, "velocity": 102, "channel": 0}, {"type": "note_off", "time": 74, "note": 72, "velocity": 102, "channel": 0}, {"type": "note_on", "time": 0, "note": 68, "velocity": 105, "channel": 0}, {"type": "note_off", "time": 71, "note": 68, "velocity": 105, "channel": 0}, {"type": "note_on", "time": 6, "note": 65, "velocity": 109, "channel": 0}, {"type": "note_off", "time": 60, "note": 65, "velocity": 109, "channel": 0}, {"type": "note_on", "time": 2, "note": 67, "velocity": 109, "channel": 0}, {"type": "note_off", "time": 48, "note": 67, "velocity": 109, "channel": 0}, {"type": "note_on", "time": 18, "note": 67, "velocity": 115, "channel": 0}, {"type": "note_off", "time": 32, "note": 67, "velocity": 115, "channel": 0}, {"type": "note_on", "time": 16, "note": 67, "velocity": 110, "channel": 0}, {"type": "note_off", "time": 57, "note": 67, "velocity": 110, "channel": 0}, {"type": "note_on", "time": 9, "note": 72, "velocity": 106, "channel": 0}, {"type": "note_off", "time": 75, "note": 72, "velocity": 106, "channel": 0}, {"type": "note_on", "time": 4, "note": 68, "velocity": 108, "channel": 0}, {"type": "note_off", "time": 60, "note": 68, "velocity": 108, "channel": 0}, {"type": "note_on", "time": 2, "note": 65, "velocity": 109, "channel": 0}, {"type": "note_off", "time": 54, "note": 65, "velocity": 109, "channel": 0}, {"type": "note_on", "time": 0, "note": 67, "velocity": 110, "channel": 0}, {"type": "note_off", "time": 44, "note": 67, "velocity": 110, "channel": 0}, {"type": "note_on", "time": 22, "note": 67, "velocity": 116, "channel": 0}, {"type": "note_off", "time": 34, "note": 67, "velocity": 116, "channel": 0}, {"type": "note_on", "time": 25, "note": 67, "velocity": 110, "channel": 0}, {"type": "note_off", "time": 67, "note": 67, "velocity": 110, "channel": 0}, {"type": "note_on", "time": 0, "note": 72, "velocity": 102, "channel": 0}, {"type": "note_off", "time": 69, "note": 72, "velocity": 102, "channel": 0}, {"type": "note_on", "time": 0, "note": 68, "velocity": 111, "channel": 0}, {"type": "note_off", "time": 52, "note": 68, "velocity": 111, "channel": 0}, {"type": "note_on", "time": 0, "note": 65, "velocity": 107, "channel": 0}, {"type": "note_off", "time": 66, "note": 65, "velocity": 107, "channel": 0}, {"type": "note_on", "time": 19, "note": 67, "velocity": 110, "channel": 0}, {"type": "note_off", "time": 49, "note": 67, "velocity": 110, "channel": 0}, {"type": "note_on", "time": 13, "note": 67, "velocity": 115, "channel": 0}, {"type": "note_off", "time": 32, "note": 67, "velocity": 115, "channel": 0}, {"type": "note_on", "time": 24, "note": 67, "velocity": 108, "channel": 0}, {"type": "note_off", "time": 55, "note": 67, "velocity": 108, "channel": 0}, {"type": "note_on", "time": 10, "note": 72, "velocity": 94, "channel": 0}, {"type": "note_on", "time": 57, "note": 68, "velocity": 89, "channel": 0}, {"type": "note_off", "time": 0, "note": 72, "velocity": 94, "channel": 0}, {"type": "note_off", "time": 56, "note": 68, "velocity": 89, "channel": 0}, {"type": "note_on", "time": 0, "note": 65, "velocity": 104, "channel": 0}, {"type": "note_off", "time": 68, "note": 65, "velocity": 104, "channel": 0}, {"type": "note_on", "time": 11, "note": 67, "velocity": 111, "channel": 0}, {"type": "note_off", "time": 31, "note": 67, "velocity": 111, "channel": 0}, {"type": "note_on", "time": 23, "note": 67, "velocity": 111, "channel": 0}, {"type": "note_off", "time": 23, "note": 67, "velocity": 111, "channel": 0}, {"type": "note_on", "time": 24, "note": 67, "velocity": 109, "channel": 0}, {"type": "note_off", "time": 160, "note": 67, "velocity": 109, "channel": 0}, {"type": "note_on", "time": 529, "note": 67, "velocity": 116, "channel": 0}, {"type": "note_off", "time": 67, "note": 67, "velocity": 116, "channel": 0}, {"type": "note_on", "time": 9, "note": 67, "velocity": 119, "channel": 0}, {"type": "note_off", "time": 23, "note": 67, "velocity": 119, "channel": 0}, {"type": "note_on", "time": 13, "note": 67, "velocity": 107, "channel": 0}, {"type": "note_off", "time": 64, "note": 67, "velocity": 107, "channel": 0}, {"type": "note_on", "time": 11, "note": 72, "velocity": 103, "channel": 0}, {"type": "note_off", "time": 59, "note": 72, "velocity": 103, "channel": 0}, {"type": "note_on", "time": 0, "note": 69, "velocity": 106, "channel": 0}, {"type": "note_off", "time": 50, "note": 69, "velocity": 106, "channel": 0}, {"type": "note_on", "time": 1, "note": 65, "velocity": 111, "channel": 0}, {"type": "note_off", "time": 46, "note": 65, "velocity": 111, "channel": 0}, {"type": "note_on", "time": 6, "note": 67, "velocity": 107, "channel": 0}, {"type": "note_off", "time": 52, "note": 67, "velocity": 107, "channel": 0}, {"type": "note_on", "time": 14, "note": 67, "velocity": 113, "channel": 0}, {"type": "note_off", "time": 30, "note": 67, "velocity": 113, "channel": 0}, {"type": "note_on", "time": 44, "note": 67, "velocity": 109, "channel": 0}, {"type": "note_off", "time": 35, "note": 67, "velocity": 109, "channel": 0}, {"type": "note_on", "time": 28, "note": 72, "velocity": 105, "channel": 0}, {"type": "note_off", "time": 68, "note": 72, "velocity": 105, "channel": 0}, {"type": "note_on", "time": 18, "note": 69, "velocity": 104, "channel": 0}, {"type": "note_off", "time": 49, "note": 69, "velocity": 104, "channel": 0}, {"type": "note_on", "time": 0, "note": 65, "velocity": 105, "channel": 0}, {"type": "note_off", "time": 59, "note": 65, "velocity": 105, "channel": 0}, {"type": "note_on", "time": 0, "note": 67, "velocity": 111, "channel": 0}, {"type": "note_off", "time": 36, "note": 67, "velocity": 111, "channel": 0}, {"type": "note_on", "time": 17, "note": 67, "velocity": 116, "channel": 0}, {"type": "note_off", "time": 28, "note": 67, "velocity": 116, "channel": 0}, {"type": "note_on", "time": 24, "note": 67, "velocity": 110, "channel": 0}, {"type": "note_off", "time": 46, "note": 67, "velocity": 110, "channel": 0}, {"type": "note_on", "time": 37, "note": 72, "velocity": 106, "channel": 0}, {"type": "note_off", "time": 61, "note": 72, "velocity": 106, "channel": 0}, {"type": "note_on", "time": 0, "note": 69, "velocity": 110, "channel": 0}, {"type": "note_off", "time": 54, "note": 69, "velocity": 110, "channel": 0}, {"type": "note_on", "time": 0, "note": 65, "velocity": 106, "channel": 0}, {"type": "note_off", "time": 65, "note": 65, "velocity": 106, "channel": 0}, {"type": "note_on", "time": 0, "note": 67, "velocity": 108, "channel": 0}, {"type": "note_off", "time": 44, "note": 67, "velocity": 108, "channel": 0}, {"type": "note_on", "time": 31, "note": 67, "velocity": 114, "channel": 0}, {"type": "note_off", "time": 31, "note": 67, "velocity": 114, "channel": 0}, {"type": "note_on", "time": 28, "note": 67, "velocity": 108, "channel": 0}, {"type": "note_off", "time": 53, "note": 67, "velocity": 108, "channel": 0}, {"type": "note_on", "time": 11, "note": 72, "velocity": 106, "channel": 0}, {"type": "note_off", "time": 71, "note": 72, "velocity": 106, "channel": 0}, {"type": "note_on", "time": 0, "note": 69, "velocity": 109, "channel": 0}, {"type": "note_off", "time": 65, "note": 69, "velocity": 109, "channel": 0}, {"type": "note_on", "time": 0, "note": 65, "velocity": 106, "channel": 0}, {"type": "note_on", "time": 54, "note": 67, "velocity": 114, "channel": 0}, {"type": "note_off", "time": 0, "note": 65, "velocity": 106, "channel": 0}, {"type": "note_off", "time": 43, "note": 67, "velocity": 114, "channel": 0}, {"type": "note_on", "time": 34, "note": 67, "velocity": 112, "channel": 0}, {"type": "note_off", "time": 29, "note": 67, "velocity": 112, "channel": 0}, {"type": "note_on", "time": 23, "note": 67, "velocity": 109, "channel": 0}, {"type": "note_off", "time": 45, "note": 67, "velocity": 109, "channel": 0}, {"type": "note_on", "time": 19, "note": 72, "velocity": 104, "channel": 0}, {"type": "note_off", "time": 60, "note": 72, "velocity": 104, "channel": 0}, {"type": "note_on", "time": 0, "note": 69, "velocity": 107, "channel": 0}, {"type": "note_off", "time": 64, "note": 69, "velocity": 107, "channel": 0}, {"type": "note_on", "time": 8, "note": 65, "velocity": 104, "channel": 0}, {"type": "note_off", "time": 56, "note": 65, "velocity": 104, "channel": 0}, {"type": "note_on", "time": 3, "note": 67, "velocity": 110, "channel": 0}, {"type": "note_off", "time": 40, "note": 67, "velocity": 110, "channel": 0}, {"type": "note_on", "time": 13, "note": 67, "velocity": 116, "channel": 0}, {"type": "note_off", "time": 33, "note": 67, "velocity": 116, "channel": 0}, {"type": "note_on", "time": 38, "note": 67, "velocity": 105, "channel": 0}, {"type": "note_off", "time": 48, "note": 67, "velocity": 105, "channel": 0}, {"type": "note_on", "time": 18, "note": 72, "velocity": 117, "channel": 0}, {"type": "note_off", "time": 48, "note": 72, "velocity": 117, "channel": 0}, {"type": "note_on", "time": 0, "note": 69, "velocity": 111, "channel": 0}, {"type": "note_off", "time": 49, "note": 69, "velocity": 111, "channel": 0}, {"type": "note_on", "time": 14, "note": 65, "velocity": 108, "channel": 0}, {"type": "note_off", "time": 62, "note": 65, "velocity": 108, "channel": 0}, {"type": "note_on", "time": 9, "note": 67, "velocity": 111, "channel": 0}, {"type": "note_off", "time": 37, "note": 67, "velocity": 111, "channel": 0}, {"type": "note_on", "time": 19, "note": 67, "velocity": 112, "channel": 0}, {"type": "note_off", "time": 27, "note": 67, "velocity": 112, "channel": 0}, {"type": "note_on", "time": 13, "note": 67, "velocity": 106, "channel": 0}, {"type": "note_off", "time": 245, "note": 67, "velocity": 106, "channel": 0}, {"type": "note_on", "time": 427, "note": 68, "velocity": 118, "channel": 0}, {"type": "note_off", "time": 41, "note": 68, "velocity": 118, "channel": 0}, {"type": "note_on", "time": 6, "note": 68, "velocity": 115, "channel": 0}, {"type": "note_off", "time": 28, "note": 68, "velocity": 115, "channel": 0}, {"type": "note_on", "time": 7, "note": 68, "velocity": 111, "channel": 0}, {"type": "note_off", "time": 49, "note": 68, "velocity": 111, "channel": 0}, {"type": "note_on", "time": 39, "note": 73, "velocity": 101, "channel": 0}, {"type": "note_off", "time": 66, "note": 73, "velocity": 101, "channel": 0}, {"type": "note_on", "time": 3, "note": 70, "velocity": 109, "channel": 0}, {"type": "note_off", "time": 64, "note": 70, "velocity": 109, "channel": 0}, {"type": "note_on", "time": 0, "note": 66, "velocity": 100, "channel": 0}, {"type": "note_off", "time": 48, "note": 66, "velocity": 100, "channel": 0}, {"type": "note_on", "time": 21, "note": 68, "velocity": 113, "channel": 0}, {"type": "note_off", "time": 18, "note": 68, "velocity": 113, "channel": 0}, {"type": "note_on", "time": 12, "note": 68, "velocity": 114, "channel": 0}, {"type": "note_off", "time": 53, "note": 68, "velocity": 114, "channel": 0}, {"type": "note_on", "time": 8, "note": 68, "velocity": 112, "channel": 0}, {"type": "note_off", "time": 34, "note": 68, "velocity": 112, "channel": 0}, {"type": "note_on", "time": 17, "note": 73, "velocity": 105, "channel": 0}, {"type": "note_off", "time": 57, "note": 73, "velocity": 105, "channel": 0}, {"type": "note_on", "time": 21, "note": 70, "velocity": 109, "channel": 0}, {"type": "note_off", "time": 54, "note": 70, "velocity": 109, "channel": 0}, {"type": "note_on", "time": 4, "note": 66, "velocity": 99, "channel": 0}, {"type": "note_off", "time": 42, "note": 66, "velocity": 99, "channel": 0}, {"type": "note_on", "time": 34, "note": 68, "velocity": 103, "channel": 0}, {"type": "note_off", "time": 28, "note": 68, "velocity": 103, "channel": 0}, {"type": "note_on", "time": 19, "note": 68, "velocity": 110, "channel": 0}, {"type": "note_off", "time": 28, "note": 68, "velocity": 110, "channel": 0}, {"type": "note_on", "time": 21, "note": 68, "velocity": 110, "channel": 0}, {"type": "note_off", "time": 29, "note": 68, "velocity": 110, "channel": 0}, {"type": "note_on", "time": 46, "note": 73, "velocity": 99, "channel": 0}, {"type": "note_off", "time": 53, "note": 73, "velocity": 99, "channel": 0}, {"type": "note_on", "time": 7, "note": 70, "velocity": 106, "channel": 0}, {"type": "note_off", "time": 49, "note": 70, "velocity": 106, "channel": 0}, {"type": "note_on", "time": 11, "note": 66, "velocity": 104, "channel": 0}, {"type": "note_off", "time": 42, "note": 66, "velocity": 104, "channel": 0}, {"type": "note_on", "time": 0, "note": 68, "velocity": 104, "channel": 0}, {"type": "note_off", "time": 34, "note": 68, "velocity": 104, "channel": 0}, {"type": "note_on", "time": 18, "note": 68, "velocity": 111, "channel": 0}, {"type": "note_off", "time": 29, "note": 68, "velocity": 111, "channel": 0}, {"type": "note_on", "time": 27, "note": 68, "velocity": 109, "channel": 0}, {"type": "note_off", "time": 46, "note": 68, "velocity": 109, "channel": 0}, {"type": "note_on", "time": 1, "note": 73, "velocity": 102, "channel": 0}, {"type": "note_off", "time": 60, "note": 73, "velocity": 102, "channel": 0}, {"type": "note_on", "time": 31, "note": 70, "velocity": 108, "channel": 0}, {"type": "note_off", "time": 53, "note": 70, "velocity": 108, "channel": 0}, {"type": "note_on", "time": 0, "note": 66, "velocity": 106, "channel": 0}, {"type": "note_off", "time": 54, "note": 66, "velocity": 106, "channel": 0}, {"type": "note_on", "time": 43, "note": 68, "velocity": 111, "channel": 0}, {"type": "note_off", "time": 43, "note": 68, "velocity": 111, "channel": 0}, {"type": "note_on", "time": 9, "note": 68, "velocity": 114, "channel": 0}, {"type": "note_off", "time": 37, "note": 68, "velocity": 114, "channel": 0}, {"type": "note_on", "time": 14, "note": 68, "velocity": 111, "channel": 0}, {"type": "note_off", "time": 50, "note": 68, "velocity": 111, "channel": 0}, {"type": "note_on", "time": 23, "note": 73, "velocity": 101, "channel": 0}, {"type": "note_off", "time": 65, "note": 73, "velocity": 101, "channel": 0}, {"type": "note_on", "time": 6, "note": 70, "velocity": 108, "channel": 0}, {"type": "note_off", "time": 57, "note": 70, "velocity": 108, "channel": 0}, {"type": "note_on", "time": 0, "note": 66, "velocity": 106, "channel": 0}, {"type": "note_off", "time": 57, "note": 66, "velocity": 106, "channel": 0}, {"type": "note_on", "time": 21, "note": 68, "velocity": 113, "channel": 0}, {"type": "note_off", "time": 37, "note": 68, "velocity": 113, "channel": 0}, {"type": "note_on", "time": 15, "note": 68, "velocity": 116, "channel": 0}, {"type": "note_off", "time": 26, "note": 68, "velocity": 116, "channel": 0}, {"type": "note_on", "time": 15, "note": 68, "velocity": 112, "channel": 0}, {"type": "note_off", "time": 44, "note": 68, "velocity": 112, "channel": 0}, {"type": "note_on", "time": 15, "note": 73, "velocity": 107, "channel": 0}, {"type": "note_off", "time": 64, "note": 73, "velocity": 107, "channel": 0}, {"type": "note_on", "time": 0, "note": 70, "velocity": 105, "channel": 0}, {"type": "note_off", "time": 59, "note": 70, "velocity": 105, "channel": 0}, {"type": "note_on", "time": 5, "note": 66, "velocity": 100, "channel": 0}, {"type": "note_off", "time": 71, "note": 66, "velocity": 100, "channel": 0}, {"type": "note_on", "time": 23, "note": 68, "velocity": 105, "channel": 0}, {"type": "note_off", "time": 252, "note": 68, "velocity": 105, "channel": 0}, {"type": "note_on", "time": 527, "note": 66, "velocity": 111, "channel": 0}, {"type": "note_off", "time": 87, "note": 66, "velocity": 111, "channel": 0}, {"type": "note_on", "time": 0, "note": 67, "velocity": 111, "channel": 0}, {"type": "note_on", "time": 83, "note": 68, "velocity": 112, "channel": 0}, {"type": "note_off", "time": 0, "note": 67, "velocity": 111, "channel": 0}, {"type": "note_off", "time": 107, "note": 68, "velocity": 112, "channel": 0}, {"type": "note_on", "time": 17, "note": 66, "velocity": 103, "channel": 0}, {"type": "note_off", "time": 84, "note": 66, "velocity": 103, "channel": 0}, {"type": "note_on", "time": 10, "note": 67, "velocity": 111, "channel": 0}, {"type": "note_off", "time": 117, "note": 67, "velocity": 111, "channel": 0}, {"type": "note_on", "time": 1, "note": 66, "velocity": 110, "channel": 0}, {"type": "note_off", "time": 106, "note": 66, "velocity": 110, "channel": 0}, {"type": "note_on", "time": 7, "note": 65, "velocity": 114, "channel": 0}, {"type": "note_off", "time": 101, "note": 65, "velocity": 114, "channel": 0}, {"type": "note_on", "time": 0, "note": 64, "velocity": 119, "channel": 0}, {"type": "note_off", "time": 83, "note": 64, "velocity": 119, "channel": 0}, {"type": "note_on", "time": 0, "note": 63, "velocity": 118, "channel": 0}, {"type": "note_off", "time": 91, "note": 63, "velocity": 118, "channel": 0}, {"type": "note_on", "time": 3, "note": 65, "velocity": 113, "channel": 0}, {"type": "note_off", "time": 96, "note": 65, "velocity": 113, "channel": 0}, {"type": "note_on", "time": 0, "note": 67, "velocity": 111, "channel": 0}, {"type": "note_off", "time": 89, "note": 67, "velocity": 111, "channel": 0}, {"type": "note_on", "time": 0, "note": 63, "velocity": 107, "channel": 0}, {"type": "note_off", "time": 84, "note": 63, "velocity": 107, "channel": 0}, {"type": "note_on", "time": 0, "note": 65, "velocity": 113, "channel": 0}, {"type": "note_off", "time": 103, "note": 65, "velocity": 113, "channel": 0}, {"type": "note_on", "time": 0, "note": 64, "velocity": 118, "channel": 0}, {"type": "note_off", "time": 87, "note": 64, "velocity": 118, "channel": 0}, {"type": "note_on", "time": 5, "note": 63, "velocity": 117, "channel": 0}, {"type": "note_off", "time": 104, "note": 63, "velocity": 117, "channel": 0}, {"type": "note_on", "time": 0, "note": 67, "velocity": 109, "channel": 0}, {"type": "note_off", "time": 102, "note": 67, "velocity": 109, "channel": 0}, {"type": "note_on", "time": 7, "note": 65, "velocity": 111, "channel": 0}, {"type": "note_off", "time": 80, "note": 65, "velocity": 111, "channel": 0}, {"type": "note_on", "time": 0, "note": 61, "velocity": 114, "channel": 0}, {"type": "note_off", "time": 82, "note": 61, "velocity": 114, "channel": 0}, {"type": "note_on", "time": 9, "note": 58, "velocity": 106, "channel": 0}, {"type": "note_off", "time": 93, "note": 58, "velocity": 106, "channel": 0}, {"type": "note_on", "time": 0, "note": 56, "velocity": 100, "channel": 0}, {"type": "note_off", "time": 59, "note": 56, "velocity": 100, "channel": 0}, {"type": "note_on", "time": 9, "note": 62, "velocity": 117, "channel": 0}, {"type": "note_off", "time": 100, "note": 62, "velocity": 117, "channel": 0}, {"type": "note_on", "time": 0, "note": 61, "velocity": 114, "channel": 0}, {"type": "note_off", "time": 96, "note": 61, "velocity": 114, "channel": 0}, {"type": "note_on", "time": 0, "note": 56, "velocity": 119, "channel": 0}, {"type": "note_off", "time": 104, "note": 56, "velocity": 119, "channel": 0}, {"type": "note_on", "time": 0, "note": 53, "velocity": 118, "channel": 0}, {"type": "note_off", "time": 87, "note": 53, "velocity": 118, "channel": 0}, {"type": "note_on", "time": 0, "note": 57, "velocity": 113, "channel": 0}, {"type": "note_off", "time": 88, "note": 57, "velocity": 113, "channel": 0}, {"type": "note_on", "time": 0, "note": 53, "velocity": 113, "channel": 0}, {"type": "note_off", "time": 61, "note": 53, "velocity": 113, "channel": 0}, {"type": "note_on", "time": 3, "note": 49, "velocity": 109, "channel": 0}, {"type": "note_off", "time": 65, "note": 49, "velocity": 109, "channel": 0}, {"type": "note_on", "time": 0, "note": 53, "velocity": 107, "channel": 0}, {"type": "note_off", "time": 175, "note": 53, "velocity": 107, "channel": 0}, {"type": "note_on", "time": 469, "note": 44, "velocity": 124, "channel": 0}, {"type": "note_off", "time": 56, "note": 44, "velocity": 124, "channel": 0}, {"type": "note_on", "time": 10, "note": 51, "velocity": 113, "channel": 0}, {"type": "note_off", "time": 73, "note": 51, "velocity": 113, "channel": 0}, {"type": "note_on", "time": 23, "note": 55, "velocity": 118, "channel": 0}, {"type": "note_on", "time": 89, "note": 46, "velocity": 112, "channel": 0}, {"type": "note_off", "time": 0, "note": 55, "velocity": 118, "channel": 0}, {"type": "note_off", "time": 60, "note": 46, "velocity": 112, "channel": 0}, {"type": "note_on", "time": 86, "note": 53, "velocity": 102, "channel": 0}, {"type": "note_off", "time": 62, "note": 53, "velocity": 102, "channel": 0}, {"type": "note_on", "time": 0, "note": 56, "velocity": 105, "channel": 0}, {"type": "note_off", "time": 89, "note": 56, "velocity": 105, "channel": 0}, {"type": "note_on", "time": 24, "note": 58, "velocity": 116, "channel": 0}, {"type": "note_off", "time": 63, "note": 58, "velocity": 116, "channel": 0}, {"type": "note_on", "time": 20, "note": 58, "velocity": 102, "channel": 0}, {"type": "note_off", "time": 74, "note": 58, "velocity": 102, "channel": 0}, {"type": "note_on", "time": 13, "note": 53, "velocity": 94, "channel": 0}, {"type": "note_off", "time": 88, "note": 53, "velocity": 94, "channel": 0}, {"type": "note_on", "time": 0, "note": 56, "velocity": 107, "channel": 0}, {"type": "note_off", "time": 84, "note": 56, "velocity": 107, "channel": 0}, {"type": "note_on", "time": 30, "note": 58, "velocity": 114, "channel": 0}, {"type": "note_off", "time": 85, "note": 58, "velocity": 114, "channel": 0}, {"type": "note_on", "time": 11, "note": 58, "velocity": 101, "channel": 0}, {"type": "note_off", "time": 59, "note": 58, "velocity": 101, "channel": 0}, {"type": "note_on", "time": 36, "note": 58, "velocity": 108, "channel": 0}, {"type": "note_off", "time": 76, "note": 58, "velocity": 108, "channel": 0}, {"type": "note_on", "time": 0, "note": 65, "velocity": 106, "channel": 0}, {"type": "note_off", "time": 64, "note": 65, "velocity": 106, "channel": 0}, {"type": "note_on", "time": 49, "note": 70, "velocity": 114, "channel": 0}, {"type": "note_off", "time": 67, "note": 70, "velocity": 114, "channel": 0}, {"type": "note_on", "time": 16, "note": 70, "velocity": 118, "channel": 0}, {"type": "note_off", "time": 75, "note": 70, "velocity": 118, "channel": 0}, {"type": "note_on", "time": 2, "note": 72, "velocity": 103, "channel": 0}, {"type": "note_off", "time": 76, "note": 72, "velocity": 103, "channel": 0}, {"type": "note_on", "time": 9, "note": 68, "velocity": 109, "channel": 0}, {"type": "note_off", "time": 87, "note": 68, "velocity": 109, "channel": 0}, {"type": "note_on", "time": 28, "note": 72, "velocity": 105, "channel": 0}, {"type": "note_off", "time": 81, "note": 72, "velocity": 105, "channel": 0}, {"type": "note_on", "time": 0, "note": 70, "velocity": 101, "channel": 0}, {"type": "note_off", "time": 75, "note": 70, "velocity": 101, "channel": 0}, {"type": "note_on", "time": 21, "note": 72, "velocity": 109, "channel": 0}, {"type": "note_on", "time": 113, "note": 79, "velocity": 111, "channel": 0}, {"type": "note_off", "time": 0, "note": 72, "velocity": 109, "channel": 0}, {"type": "note_off", "time": 911, "note": 79, "velocity": 111, "channel": 0}, {"type": "note_on", "time": 44, "note": 75, "velocity": 110, "channel": 0}, {"type": "note_off", "time": 120, "note": 75, "velocity": 110, "channel": 0}, {"type": "note_on", "time": 15, "note": 72, "velocity": 78, "channel": 0}, {"type": "note_off", "time": 208, "note": 72, "velocity": 78, "channel": 0}, {"type": "note_on", "time": 524, "note": 67, "velocity": 113, "channel": 0}, {"type": "note_off", "time": 77, "note": 67, "velocity": 113, "channel": 0}, {"type": "note_on", "time": 0, "note": 70, "velocity": 113, "channel": 0}, {"type": "note_off", "time": 84, "note": 70, "velocity": 113, "channel": 0}, {"type": "note_on", "time": 0, "note": 72, "velocity": 105, "channel": 0}, {"type": "note_off", "time": 98, "note": 72, "velocity": 105, "channel": 0}, {"type": "note_on", "time": 18, "note": 75, "velocity": 114, "channel": 0}, {"type": "note_off", "time": 81, "note": 75, "velocity": 114, "channel": 0}, {"type": "note_on", "time": 15, "note": 77, "velocity": 99, "channel": 0}, {"type": "note_off", "time": 78, "note": 77, "velocity": 99, "channel": 0}, {"type": "note_on", "time": 8, "note": 75, "velocity": 111, "channel": 0}, {"type": "note_off", "time": 105, "note": 75, "velocity": 111, "channel": 0}, {"type": "note_on", "time": 10, "note": 72, "velocity": 103, "channel": 0}, {"type": "note_off", "time": 87, "note": 72, "velocity": 103, "channel": 0}, {"type": "note_on", "time": 0, "note": 70, "velocity": 109, "channel": 0}, {"type": "note_off", "time": 104, "note": 70, "velocity": 109, "channel": 0}, {"type": "note_on", "time": 0, "note": 75, "velocity": 107, "channel": 0}, {"type": "note_on", "time": 94, "note": 72, "velocity": 107, "channel": 0}, {"type": "note_off", "time": 0, "note": 75, "velocity": 107, "channel": 0}, {"type": "note_off", "time": 91, "note": 72, "velocity": 107, "channel": 0}, {"type": "note_on", "time": 0, "note": 70, "velocity": 106, "channel": 0}, {"type": "note_on", "time": 115, "note": 66, "velocity": 108, "channel": 0}, {"type": "note_off", "time": 0, "note": 70, "velocity": 106, "channel": 0}, {"type": "note_off", "time": 97, "note": 66, "velocity": 108, "channel": 0}, {"type": "note_on", "time": 2, "note": 65, "velocity": 114, "channel": 0}, {"type": "note_off", "time": 96, "note": 65, "velocity": 114, "channel": 0}, {"type": "note_on", "time": 0, "note": 63, "velocity": 119, "channel": 0}, {"type": "note_off", "time": 82, "note": 63, "velocity": 119, "channel": 0}, {"type": "note_on", "time": 0, "note": 60, "velocity": 98, "channel": 0}, {"type": "note_off", "time": 88, "note": 60, "velocity": 98, "channel": 0}, {"type": "note_on", "time": 0, "note": 65, "velocity": 113, "channel": 0}, {"type": "note_off", "time": 71, "note": 65, "velocity": 113, "channel": 0}, {"type": "note_on", "time": 16, "note": 60, "velocity": 100, "channel": 0}, {"type": "note_off", "time": 88, "note": 60, "velocity": 100, "channel": 0}, {"type": "note_on", "time": 0, "note": 63, "velocity": 117, "channel": 0}, {"type": "note_off", "time": 92, "note": 63, "velocity": 117, "channel": 0}, {"type": "note_on", "time": 9, "note": 65, "velocity": 111, "channel": 0}, {"type": "note_off", "time": 82, "note": 65, "velocity": 111, "channel": 0}, {"type": "note_on", "time": 0, "note": 66, "velocity": 109, "channel": 0}, {"type": "note_off", "time": 104, "note": 66, "velocity": 109, "channel": 0}, {"type": "note_on", "time": 16, "note": 68, "velocity": 108, "channel": 0}, {"type": "note_off", "time": 83, "note": 68, "velocity": 108, "channel": 0}, {"type": "note_on", "time": 0, "note": 70, "velocity": 108, "channel": 0}, {"type": "note_off", "time": 51, "note": 70, "velocity": 108, "channel": 0}, {"type": "note_on", "time": 57, "note": 75, "velocity": 94, "channel": 0}, {"type": "note_off", "time": 87, "note": 75, "velocity": 94, "channel": 0}, {"type": "note_on", "time": 0, "note": 72, "velocity": 103, "channel": 0}, {"type": "note_off", "time": 229, "note": 72, "velocity": 103, "channel": 0}, {"type": "note_on", "time": 176, "note": 70, "velocity": 108, "channel": 0}, {"type": "note_off", "time": 275, "note": 70, "velocity": 108, "channel": 0}, {"type": "note_on", "time": 0, "note": 66, "velocity": 108, "channel": 0}, {"type": "note_off", "time": 97, "note": 66, "velocity": 108, "channel": 0}, {"type": "note_on", "time": 19, "note": 65, "velocity": 110, "channel": 0}, {"type": "note_off", "time": 76, "note": 65, "velocity": 110, "channel": 0}, {"type": "note_on", "time": 0, "note": 63, "velocity": 117, "channel": 0}, {"type": "note_off", "time": 86, "note": 63, "velocity": 117, "channel": 0}, {"type": "note_on", "time": 9, "note": 62, "velocity": 98, "channel": 0}, {"type": "note_off", "time": 99, "note": 62, "velocity": 98, "channel": 0}, {"type": "note_on", "time": 3, "note": 63, "velocity": 101, "channel": 0}, {"type": "note_off", "time": 87, "note": 63, "velocity": 101, "channel": 0}, {"type": "note_on", "time": 6, "note": 68, "velocity": 113, "channel": 0}, {"type": "note_off", "time": 87, "note": 68, "velocity": 113, "channel": 0}, {"type": "note_on", "time": 20, "note": 66, "velocity": 107, "channel": 0}, {"type": "note_off", "time": 93, "note": 66, "velocity": 107, "channel": 0}, {"type": "note_on", "time": 0, "note": 62, "velocity": 115, "channel": 0}, {"type": "note_off", "time": 88, "note": 62, "velocity": 115, "channel": 0}, {"type": "note_on", "time": 0, "note": 58, "velocity": 89, "channel": 0}, {"type": "note_off", "time": 93, "note": 58, "velocity": 89, "channel": 0}, {"type": "note_on", "time": 0, "note": 65, "velocity": 112, "channel": 0}, {"type": "note_off", "time": 96, "note": 65, "velocity": 112, "channel": 0}, {"type": "note_on", "time": 0, "note": 63, "velocity": 111, "channel": 0}, {"type": "note_off", "time": 80, "note": 63, "velocity": 111, "channel": 0}, {"type": "note_on", "time": 0, "note": 58, "velocity": 100, "channel": 0}, {"type": "note_off", "time": 97, "note": 58, "velocity": 100, "channel": 0}, {"type": "note_on", "time": 5, "note": 54, "velocity": 105, "channel": 0}, {"type": "note_off", "time": 115, "note": 54, "velocity": 105, "channel": 0}, {"type": "note_on", "time": 0, "note": 53, "velocity": 109, "channel": 0}, {"type": "note_off", "time": 179, "note": 53, "velocity": 109, "channel": 0}, {"type": "note_on", "time": 0, "note": 51, "velocity": 101, "channel": 0}, {"type": "note_off", "time": 86, "note": 51, "velocity": 101, "channel": 0}, {"type": "note_on", "time": 11, "note": 53, "velocity": 102, "channel": 0}, {"type": "note_off", "time": 321, "note": 53, "velocity": 102, "channel": 0}, {"type": "note_on", "time": 1012, "note": 46, "velocity": 116, "channel": 0}, {"type": "note_off", "time": 63, "note": 46, "velocity": 116, "channel": 0}, {"type": "note_on", "time": 15, "note": 51, "velocity": 112, "channel": 0}, {"type": "note_off", "time": 77, "note": 51, "velocity": 112, "channel": 0}, {"type": "note_on", "time": 33, "note": 55, "velocity": 107, "channel": 0}, {"type": "note_off", "time": 106, "note": 55, "velocity": 107, "channel": 0}, {"type": "note_on", "time": 0, "note": 49, "velocity": 108, "channel": 0}, {"type": "note_off", "time": 92, "note": 49, "velocity": 108, "channel": 0}, {"type": "note_on", "time": 1, "note": 53, "velocity": 100, "channel": 0}, {"type": "note_off", "time": 52, "note": 53, "velocity": 100, "channel": 0}, {"type": "note_on", "time": 15, "note": 56, "velocity": 106, "channel": 0}, {"type": "note_off", "time": 91, "note": 56, "velocity": 106, "channel": 0}, {"type": "note_on", "time": 13, "note": 61, "velocity": 115, "channel": 0}, {"type": "note_off", "time": 85, "note": 61, "velocity": 115, "channel": 0}, {"type": "note_on", "time": 15, "note": 58, "velocity": 104, "channel": 0}, {"type": "note_off", "time": 91, "note": 58, "velocity": 104, "channel": 0}, {"type": "note_on", "time": 18, "note": 70, "velocity": 108, "channel": 0}, {"type": "note_off", "time": 68, "note": 70, "velocity": 108, "channel": 0}, {"type": "note_on", "time": 0, "note": 67, "velocity": 111, "channel": 0}, {"type": "note_off", "time": 81, "note": 67, "velocity": 111, "channel": 0}, {"type": "note_on", "time": 13, "note": 70, "velocity": 109, "channel": 0}, {"type": "note_off", "time": 91, "note": 70, "velocity": 109, "channel": 0}, {"type": "note_on", "time": 0, "note": 61, "velocity": 106, "channel": 0}, {"type": "note_off", "time": 101, "note": 61, "velocity": 106, "channel": 0}, {"type": "note_on", "time": 0, "note": 65, "velocity": 103, "channel": 0}, {"type": "note_off", "time": 74, "note": 65, "velocity": 103, "channel": 0}, {"type": "note_on", "time": 0, "note": 68, "velocity": 114, "channel": 0}, {"type": "note_off", "time": 85, "note": 68, "velocity": 114, "channel": 0}, {"type": "note_on", "time": 36, "note": 73, "velocity": 105, "channel": 0}, {"type": "note_off", "time": 103, "note": 73, "velocity": 105, "channel": 0}, {"type": "note_on", "time": 0, "note": 70, "velocity": 109, "channel": 0}, {"type": "note_off", "time": 79, "note": 70, "velocity": 109, "channel": 0}, {"type": "note_on", "time": 0, "note": 67, "velocity": 111, "channel": 0}, {"type": "note_off", "time": 89, "note": 67, "velocity": 111, "channel": 0}, {"type": "note_on", "time": 0, "note": 63, "velocity": 113, "channel": 0}, {"type": "note_off", "time": 95, "note": 63, "velocity": 113, "channel": 0}, {"type": "note_on", "time": 0, "note": 58, "velocity": 93, "channel": 0}, {"type": "note_off", "time": 97, "note": 58, "velocity": 93, "channel": 0}, {"type": "note_on", "time": 0, "note": 65, "velocity": 114, "channel": 0}, {"type": "note_off", "time": 94, "note": 65, "velocity": 114, "channel": 0}, {"type": "note_on", "time": 0, "note": 64, "velocity": 120, "channel": 0}, {"type": "note_off", "time": 81, "note": 64, "velocity": 120, "channel": 0}, {"type": "note_on", "time": 0, "note": 63, "velocity": 115, "channel": 0}, {"type": "note_off", "time": 102, "note": 63, "velocity": 115, "channel": 0}, {"type": "note_on", "time": 0, "note": 67, "velocity": 110, "channel": 0}, {"type": "note_off", "time": 80, "note": 67, "velocity": 110, "channel": 0}, {"type": "note_on", "time": 0, "note": 63, "velocity": 115, "channel": 0}, {"type": "note_off", "time": 96, "note": 63, "velocity": 115, "channel": 0}, {"type": "note_on", "time": 14, "note": 65, "velocity": 109, "channel": 0}, {"type": "note_off", "time": 104, "note": 65, "velocity": 109, "channel": 0}, {"type": "note_on", "time": 0, "note": 68, "velocity": 109, "channel": 0}, {"type": "note_off", "time": 102, "note": 68, "velocity": 109, "channel": 0}, {"type": "note_on", "time": 4, "note": 72, "velocity": 101, "channel": 0}, {"type": "note_off", "time": 71, "note": 72, "velocity": 101, "channel": 0}, {"type": "note_on", "time": 1, "note": 77, "velocity": 96, "channel": 0}, {"type": "note_off", "time": 2081, "note": 77, "velocity": 96, "channel": 0}, {"type": "note_on", "time": 4, "note": 75, "velocity": 120, "channel": 0}, {"type": "note_off", "time": 178, "note": 75, "velocity": 120, "channel": 0}, {"type": "note_on", "time": 31, "note": 72, "velocity": 95, "channel": 0}, {"type": "note_off", "time": 336, "note": 72, "velocity": 95, "channel": 0}, {"type": "note_on", "time": 846, "note": 63, "velocity": 127, "channel": 0}, {"type": "note_off", "time": 76, "note": 63, "velocity": 127, "channel": 0}, {"type": "note_on", "time": 8, "note": 65, "velocity": 112, "channel": 0}, {"type": "note_off", "time": 62, "note": 65, "velocity": 112, "channel": 0}, {"type": "note_on", "time": 3, "note": 68, "velocity": 113, "channel": 0}, {"type": "note_off", "time": 68, "note": 68, "velocity": 113, "channel": 0}, {"type": "note_on", "time": 0, "note": 71, "velocity": 97, "channel": 0}, {"type": "note_off", "time": 59, "note": 71, "velocity": 97, "channel": 0}, {"type": "note_on", "time": 64, "note": 79, "velocity": 117, "channel": 0}, {"type": "note_off", "time": 925, "note": 79, "velocity": 117, "channel": 0}, {"type": "note_on", "time": 0, "note": 75, "velocity": 122, "channel": 0}, {"type": "note_off", "time": 118, "note": 75, "velocity": 122, "channel": 0}, {"type": "note_on", "time": 85, "note": 71, "velocity": 115, "channel": 0}, {"type": "note_off", "time": 120, "note": 71, "velocity": 115, "channel": 0}, {"type": "note_on", "time": 83, "note": 70, "velocity": 111, "channel": 0}, {"type": "note_off", "time": 162, "note": 70, "velocity": 111, "channel": 0}, {"type": "note_on", "time": 0, "note": 68, "velocity": 118, "channel": 0}, {"type": "note_off", "time": 202, "note": 68, "velocity": 118, "channel": 0}, {"type": "note_on", "time": 0, "note": 70, "velocity": 112, "channel": 0}, {"type": "note_on", "time": 103, "note": 67, "velocity": 102, "channel": 0}, {"type": "note_off", "time": 0, "note": 70, "velocity": 112, "channel": 0}, {"type": "note_off", "time": 315, "note": 67, "velocity": 102, "channel": 0}, {"type": "note_on", "time": 527, "note": 70, "velocity": 120, "channel": 0}, {"type": "note_off", "time": 76, "note": 70, "velocity": 120, "channel": 0}, {"type": "note_on", "time": 22, "note": 70, "velocity": 121, "channel": 0}, {"type": "note_on", "time": 87, "note": 72, "velocity": 119, "channel": 0}, {"type": "note_off", "time": 0, "note": 70, "velocity": 121, "channel": 0}, {"type": "note_off", "time": 96, "note": 72, "velocity": 119, "channel": 0}, {"type": "note_on", "time": 11, "note": 70, "velocity": 108, "channel": 0}, {"type": "note_off", "time": 72, "note": 70, "velocity": 108, "channel": 0}, {"type": "note_on", "time": 0, "note": 68, "velocity": 118, "channel": 0}, {"type": "note_off", "time": 111, "note": 68, "velocity": 118, "channel": 0}, {"type": "note_on", "time": 8, "note": 65, "velocity": 116, "channel": 0}, {"type": "note_off", "time": 60, "note": 65, "velocity": 116, "channel": 0}, {"type": "note_on", "time": 24, "note": 65, "velocity": 109, "channel": 0}, {"type": "note_off", "time": 62, "note": 65, "velocity": 109, "channel": 0}, {"type": "note_on", "time": 1, "note": 68, "velocity": 112, "channel": 0}, {"type": "note_off", "time": 86, "note": 68, "velocity": 112, "channel": 0}, {"type": "note_on", "time": 28, "note": 70, "velocity": 109, "channel": 0}, {"type": "note_off", "time": 94, "note": 70, "velocity": 109, "channel": 0}, {"type": "note_on", "time": 19, "note": 70, "velocity": 120, "channel": 0}, {"type": "note_off", "time": 55, "note": 70, "velocity": 120, "channel": 0}, {"type": "note_on", "time": 27, "note": 70, "velocity": 107, "channel": 0}, {"type": "note_off", "time": 58, "note": 70, "velocity": 107, "channel": 0}, {"type": "note_on", "time": 12, "note": 70, "velocity": 115, "channel": 0}, {"type": "note_off", "time": 89, "note": 70, "velocity": 115, "channel": 0}, {"type": "note_on", "time": 13, "note": 72, "velocity": 109, "channel": 0}, {"type": "note_off", "time": 104, "note": 72, "velocity": 109, "channel": 0}, {"type": "note_on", "time": 18, "note": 70, "velocity": 121, "channel": 0}, {"type": "note_off", "time": 57, "note": 70, "velocity": 121, "channel": 0}, {"type": "note_on", "time": 0, "note": 72, "velocity": 113, "channel": 0}, {"type": "note_off", "time": 95, "note": 72, "velocity": 113, "channel": 0}, {"type": "note_on", "time": 5, "note": 72, "velocity": 105, "channel": 0}, {"type": "note_off", "time": 77, "note": 72, "velocity": 105, "channel": 0}, {"type": "note_on", "time": 1, "note": 70, "velocity": 115, "channel": 0}, {"type": "note_off", "time": 79, "note": 70, "velocity": 115, "channel": 0}, {"type": "note_on", "time": 0, "note": 69, "velocity": 105, "channel": 0}, {"type": "note_off", "time": 88, "note": 69, "velocity": 105, "channel": 0}, {"type": "note_on", "time": 2, "note": 68, "velocity": 104, "channel": 0}, {"type": "note_off", "time": 78, "note": 68, "velocity": 104, "channel": 0}, {"type": "note_on", "time": 9, "note": 70, "velocity": 103, "channel": 0}, {"type": "note_off", "time": 61, "note": 70, "velocity": 103, "channel": 0}, {"type": "note_on", "time": 78, "note": 67, "velocity": 109, "channel": 0}, {"type": "note_off", "time": 50, "note": 67, "velocity": 109, "channel": 0}, {"type": "note_on", "time": 0, "note": 66, "velocity": 109, "channel": 0}, {"type": "note_off", "time": 44, "note": 66, "velocity": 109, "channel": 0}, {"type": "note_on", "time": 0, "note": 67, "velocity": 102, "channel": 0}, {"type": "note_on", "time": 74, "note": 68, "velocity": 115, "channel": 0}, {"type": "note_off", "time": 0, "note": 67, "velocity": 102, "channel": 0}, {"type": "note_off", "time": 101, "note": 68, "velocity": 115, "channel": 0}, {"type": "note_on", "time": 10, "note": 66, "velocity": 108, "channel": 0}, {"type": "note_off", "time": 55, "note": 66, "velocity": 108, "channel": 0}, {"type": "note_on", "time": 0, "note": 67, "velocity": 112, "channel": 0}, {"type": "note_off", "time": 82, "note": 67, "velocity": 112, "channel": 0}, {"type": "note_on", "time": 41, "note": 66, "velocity": 110, "channel": 0}, {"type": "note_on", "time": 67, "note": 65, "velocity": 111, "channel": 0}, {"type": "note_off", "time": 0, "note": 66, "velocity": 110, "channel": 0}, {"type": "note_off", "time": 119, "note": 65, "velocity": 111, "channel": 0}, {"type": "note_on", "time": 2, "note": 64, "velocity": 121, "channel": 0}, {"type": "note_off", "time": 91, "note": 64, "velocity": 121, "channel": 0}, {"type": "note_on", "time": 0, "note": 63, "velocity": 118, "channel": 0}, {"type": "note_on", "time": 81, "note": 65, "velocity": 108, "channel": 0}, {"type": "note_off", "time": 0, "note": 63, "velocity": 118, "channel": 0}, {"type": "note_off", "time": 81, "note": 65, "velocity": 108, "channel": 0}, {"type": "note_on", "time": 0, "note": 66, "velocity": 108, "channel": 0}, {"type": "note_off", "time": 105, "note": 66, "velocity": 108, "channel": 0}, {"type": "note_on", "time": 0, "note": 68, "velocity": 114, "channel": 0}, {"type": "note_off", "time": 88, "note": 68, "velocity": 114, "channel": 0}, {"type": "note_on", "time": 0, "note": 65, "velocity": 110, "channel": 0}, {"type": "note_off", "time": 80, "note": 65, "velocity": 110, "channel": 0}, {"type": "note_on", "time": 11, "note": 66, "velocity": 99, "channel": 0}, {"type": "note_off", "time": 78, "note": 66, "velocity": 99, "channel": 0}, {"type": "note_on", "time": 0, "note": 70, "velocity": 100, "channel": 0}, {"type": "note_off", "time": 119, "note": 70, "velocity": 100, "channel": 0}, {"type": "note_on", "time": 14, "note": 74, "velocity": 103, "channel": 0}, {"type": "note_off", "time": 65, "note": 74, "velocity": 103, "channel": 0}, {"type": "note_on", "time": 0, "note": 77, "velocity": 99, "channel": 0}, {"type": "note_off", "time": 737, "note": 77, "velocity": 99, "channel": 0}, {"type": "note_on", "time": 0, "note": 74, "velocity": 107, "channel": 0}, {"type": "note_off", "time": 1142, "note": 74, "velocity": 107, "channel": 0}, {"type": "end_of_track", "time": 0}]]}