{"ticks_per_beat": 192, "tracks": [[{"type": "track_name", "name": "Melody", "time": 0}, {"type": "set_tempo", "tempo": 226415, "time": 0}, {"type": "key_signature", "key": "C", "time": 0}, {"type": "time_signature", "numerator": 4, "denominator": 4, "clocks_per_click": 24, "notated_32nd_notes_per_beat": 8, "time": 0}, {"type": "note_on", "time": 5074, "note": 63, "velocity": 124, "channel": 0}, {"type": "note_off", "time": 263, "note": 63, "velocity": 124, "channel": 0}, {"type": "note_on", "time": 71, "note": 63, "velocity": 119, "channel": 0}, {"type": "note_off", "time": 79, "note": 63, "velocity": 119, "channel": 0}, {"type": "note_on", "time": 13, "note": 61, "velocity": 100, "channel": 0}, {"type": "note_off", "time": 110, "note": 61, "velocity": 100, "channel": 0}, {"type": "note_on", "time": 58, "note": 63, "velocity": 122, "channel": 0}, {"type": "note_off", "time": 145, "note": 63, "velocity": 122, "channel": 0}, {"type": "note_on", "time": 380, "note": 60, "velocity": 107, "channel": 0}, {"type": "note_off", "time": 83, "note": 60, "velocity": 107, "channel": 0}, {"type": "note_on", "time": 89, "note": 63, "velocity": 123, "channel": 0}, {"type": "note_off", "time": 108, "note": 63, "velocity": 123, "channel": 0}, {"type": "note_on", "time": 82, "note": 63, "velocity": 113, "channel": 0}, {"type": "note_off", "time": 98, "note": 63, "velocity": 113, "channel": 0}, {"type": "note_on", "time": 109, "note": 63, "velocity": 123, "channel": 0}, {"type": "note_off", "time": 246, "note": 63, "velocity": 123, "channel": 0}, {"type": "note_on", "time": 13, "note": 60, "velocity": 102, "channel": 0}, {"type": "note_off", "time": 132, "note": 60, "velocity": 102, "channel": 0}, {"type": "note_on", "time": 22, "note": 63, "velocity": 121, "channel": 0}, {"type": "note_off", "time": 108, "note": 63, "velocity": 121, "channel": 0}, {"type": "note_on", "time": 19, "note": 64, "velocity": 115, "channel": 0}, {"type": "note_off", "time": 182, "note": 64, "velocity": 115, "channel": 0}, {"type": "note_on", "time": 198, "note": 55, "velocity": 99, "channel": 0}, {"type": "note_off", "time": 68, "note": 55, "velocity": 99, "channel": 0}, {"type": "note_on", "time": 17, "note": 58, "velocity": 93, "channel": 0}, {"type": "note_off", "time": 88, "note": 58, "velocity": 93, "channel": 0}, {"type": "note_on", "time": 18, "note": 63, "velocity": 124, "channel": 0}, {"type": "note_off", "time": 93, "note": 63, "velocity": 124, "channel": 0}, {"type": "note_on", "time": 89, "note": 63, "velocity": 117, "channel": 0}, {"type": "note_off", "time": 110, "note": 63, "velocity": 117, "channel": 0}, {"type": "note_on", "time": 65, "note": 63, "velocity": 114, "channel": 0}, {"type": "note_off", "time": 266, "note": 63, "velocity": 114, "channel": 0}, {"type": "note_on", "time": 12, "note": 60, "velocity": 104, "channel": 0}, {"type": "note_off", "time": 96, "note": 60, "velocity": 104, "channel": 0}, {"type": "note_on", "time": 60, "note": 64, "velocity": 115, "channel": 0}, {"type": "note_off", "time": 107, "note": 64, "velocity": 115, "channel": 0}, {"type": "note_on", "time": 10, "note": 65, "velocity": 106, "channel": 0}, {"type": "note_off", "time": 107, "note": 65, "velocity": 106, "channel": 0}, {"type": "note_on", "time": 6, "note": 66, "velocity": 100, "channel": 0}, {"type": "note_off", "time": 113, "note": 66, "velocity": 100, "channel": 0}, {"type": "note_on", "time": 18, "note": 67, "velocity": 109, "channel": 0}, {"type": "note_off", "time": 121, "note": 67, "velocity": 109, "channel": 0}, {"type": "note_on", "time": 41, "note": 65, "velocity": 103, "channel": 0}, {"type": "note_off", "time": 103, "note": 65, "velocity": 103, "channel": 0}, {"type": "note_on", "time": 34, "note": 65, "velocity": 112, "channel": 0}, {"type": "note_off", "time": 107, "note": 65, "velocity": 112, "channel": 0}, {"type": "note_on", "time": 3, "note": 64, "velocity": 111, "channel": 0}, {"type": "note_off", "time": 100, "note": 64, "velocity": 111, "channel": 0}, {"type": "note_on", "time": 24, "note": 60, "velocity": 108, "channel": 0}, {"type": "note_off", "time": 62, "note": 60, "velocity": 108, "channel": 0}, {"type": "note_on", "time": 6, "note": 56, "velocity": 92, "channel": 0}, {"type": "note_off", "time": 89, "note": 56, "velocity": 92, "channel": 0}, {"type": "note_on", "time": 10, "note": 53, "velocity": 95, "channel": 0}, {"type": "note_off", "time": 62, "note": 53, "velocity": 95, "channel": 0}, {"type": "note_on", "time": 48, "note": 58, "velocity": 98, "channel": 0}, {"type": "note_off", "time": 138, "note": 58, "velocity": 98, "channel": 0}, {"type": "note_on", "time": 6, "note": 55, "velocity": 97, "channel": 0}, {"type": "note_off", "time": 124, "note": 55, "velocity": 97, "channel": 0}, {"type": "note_on", "time": 55, "note": 55, "velocity": 88, "channel": 0}, {"type": "note_off", "time": 339, "note": 55, "velocity": 88, "channel": 0}, {"type": "note_on", "time": 820, "note": 55, "velocity": 111, "channel": 0}, {"type": "note_off", "time": 110, "note": 55, "velocity": 111, "channel": 0}, {"type": "note_on", "time": 10, "note": 58, "velocity": 97, "channel": 0}, {"type": "note_off", "time": 51, "note": 58, "velocity": 97, "channel": 0}, {"type": "note_on", "time": 13, "note": 59, "velocity": 95, "channel": 0}, {"type": "note_off", "time": 93, "note": 59, "velocity": 95, "channel": 0}, {"type": "note_on", "time": 20, "note": 61, "velocity": 110, "channel": 0}, {"type": "note_off", "time": 93, "note": 61, "velocity": 110, "channel": 0}, {"type": "note_on", "time": 6, "note": 63, "velocity": 112, "channel": 0}, {"type": "note_off", "time": 65, "note": 63, "velocity": 112, "channel": 0}, {"type": "note_on", "time": 17, "note": 65, "velocity": 111, "channel": 0}, {"type": "note_off", "time": 79, "note": 65, "velocity": 111, "channel": 0}, {"type": "note_on", "time": 0, "note": 66, "velocity": 107, "channel": 0}, {"type": "note_off", "time": 65, "note": 66, "velocity": 107, "channel": 0}, {"type": "note_on", "time": 17, "note": 68, "velocity": 96, "channel": 0}, {"type": "note_off", "time": 93, "note": 68, "velocity": 96, "channel": 0}, {"type": "note_on", "time": 0, "note": 71, "velocity": 104, "channel": 0}, {"type": "note_off", "time": 58, "note": 71, "velocity": 104, "channel": 0}, {"type": "note_on", "time": 6, "note": 72, "velocity": 114, "channel": 0}, {"type": "note_off", "time": 141, "note": 72, "velocity": 114, "channel": 0}, {"type": "note_on", "time": 10, "note": 71, "velocity": 111, "channel": 0}, {"type": "note_off", "time": 166, "note": 71, "velocity": 111, "channel": 0}, {"type": "note_on", "time": 41, "note": 68, "velocity": 113, "channel": 0}, {"type": "note_off", "time": 124, "note": 68, "velocity": 113, "channel": 0}, {"type": "note_on", "time": 24, "note": 70, "velocity": 110, "channel": 0}, {"type": "note_off", "time": 124, "note": 70, "velocity": 110, "channel": 0}, {"type": "note_on", "time": 0, "note": 69, "velocity": 111, "channel": 0}, {"type": "note_off", "time": 107, "note": 69, "velocity": 111, "channel": 0}, {"type": "note_on", "time": 3, "note": 66, "velocity": 109, "channel": 0}, {"type": "note_off", "time": 162, "note": 66, "velocity": 109, "channel": 0}, {"type": "note_on", "time": 6, "note": 67, "velocity": 103, "channel": 0}, {"type": "note_off", "time": 166, "note": 67, "velocity": 103, "channel": 0}, {"type": "note_on", "time": 24, "note": 65, "velocity": 109, "channel": 0}, {"type": "note_off", "time": 183, "note": 65, "velocity": 109, "channel": 0}, {"type": "note_on", "time": 0, "note": 67, "velocity": 99, "channel": 0}, {"type": "note_off", "time": 152, "note": 67, "velocity": 99, "channel": 0}, {"type": "note_on", "time": 24, "note": 64, "velocity": 110, "channel": 0}, {"type": "note_off", "time": 128, "note": 64, "velocity": 110, "channel": 0}, {"type": "note_on", "time": 0, "note": 67, "velocity": 105, "channel": 0}, {"type": "note_off", "time": 51, "note": 67, "velocity": 105, "channel": 0}, {"type": "note_on", "time": 31, "note": 66, "velocity": 103, "channel": 0}, {"type": "note_off", "time": 89, "note": 66, "velocity": 103, "channel": 0}, {"type": "note_on", "time": 20, "note": 64, "velocity": 113, "channel": 0}, {"type": "note_off", "time": 51, "note": 64, "velocity": 113, "channel": 0}, {"type": "note_on", "time": 10, "note": 65, "velocity": 110, "channel": 0}, {"type": "note_off", "time": 76, "note": 65, "velocity": 110, "channel": 0}, {"type": "note_on", "time": 13, "note": 64, "velocity": 115, "channel": 0}, {"type": "note_off", "time": 76, "note": 64, "velocity": 115, "channel": 0}, {"type": "note_on", "time": 24, "note": 63, "velocity": 112, "channel": 0}, {"type": "note_off", "time": 100, "note": 63, "velocity": 112, "channel": 0}, {"type": "note_on", "time": 16, "note": 65, "velocity": 108, "channel": 0}, {"type": "note_off", "time": 68, "note": 65, "velocity": 108, "channel": 0}, {"type": "note_on", "time": 1, "note": 64, "velocity": 113, "channel": 0}, {"type": "note_on", "time": 86, "note": 62, "velocity": 107, "channel": 0}, {"type": "note_off", "time": 0, "note": 64, "velocity": 113, "channel": 0}, {"type": "note_off", "time": 79, "note": 62, "velocity": 107, "channel": 0}, {"type": "note_on", "time": 17, "note": 63, "velocity": 117, "channel": 0}, {"type": "note_off", "time": 107, "note": 63, "velocity": 117, "channel": 0}, {"type": "note_on", "time": 10, "note": 60, "velocity": 107, "channel": 0}, {"type": "note_off", "time": 72, "note": 60, "velocity": 107, "channel": 0}, {"type": "note_on", "time": 0, "note": 62, "velocity": 103, "channel": 0}, {"type": "note_off", "time": 304, "note": 62, "velocity": 103, "channel": 0}, {"type": "note_on", "time": 280, "note": 62, "velocity": 116, "channel": 0}, {"type": "note_off", "time": 117, "note": 62, "velocity": 116, "channel": 0}, {"type": "note_on", "time": 58, "note": 65, "velocity": 115, "channel": 0}, {"type": "note_off", "time": 107, "note": 65, "velocity": 115, "channel": 0}, {"type": "note_on", "time": 10, "note": 64, "velocity": 109, "channel": 0}, {"type": "note_off", "time": 62, "note": 64, "velocity": 109, "channel": 0}, {"type": "note_on", "time": 27, "note": 65, "velocity": 111, "channel": 0}, {"type": "note_off", "time": 93, "note": 65, "velocity": 111, "channel": 0}, {"type": "note_on", "time": 17, "note": 64, "velocity": 117, "channel": 0}, {"type": "note_off", "time": 89, "note": 64, "velocity": 117, "channel": 0}, {"type": "note_on", "time": 3, "note": 60, "velocity": 104, "channel": 0}, {"type": "note_off", "time": 117, "note": 60, "velocity": 104, "channel": 0}, {"type": "note_on", "time": 0, "note": 55, "velocity": 95, "channel": 0}, {"type": "note_off", "time": 48, "note": 55, "velocity": 95, "channel": 0}, {"type": "note_on", "time": 24, "note": 59, "velocity": 96, "channel": 0}, {"type": "note_off", "time": 117, "note": 59, "velocity": 96, "channel": 0}, {"type": "note_on", "time": 13, "note": 55, "velocity": 97, "channel": 0}, {"type": "note_off", "time": 38, "note": 55, "velocity": 97, "channel": 0}, {"type": "note_on", "time": 13, "note": 60, "velocity": 96, "channel": 0}, {"type": "note_off", "time": 321, "note": 60, "velocity": 96, "channel": 0}, {"type": "note_on", "time": 533, "note": 60, "velocity": 117, "channel": 0}, {"type": "note_off", "time": 86, "note": 60, "velocity": 117, "channel": 0}, {"type": "note_on", "time": 6, "note": 62, "velocity": 110, "channel": 0}, {"type": "note_off", "time": 89, "note": 62, "velocity": 110, "channel": 0}, {"type": "note_on", "time": 6, "note": 64, "velocity": 99, "channel": 0}, {"type": "note_off", "time": 69, "note": 64, "velocity": 99, "channel": 0}, {"type": "note_on", "time": 20, "note": 67, "velocity": 113, "channel": 0}, {"type": "note_off", "time": 117, "note": 67, "velocity": 113, "channel": 0}, {"type": "note_on", "time": 0, "note": 64, "velocity": 106, "channel": 0}, {"type": "note_off", "time": 58, "note": 64, "velocity": 106, "channel": 0}, {"type": "note_on", "time": 13, "note": 65, "velocity": 117, "channel": 0}, {"type": "note_off", "time": 65, "note": 65, "velocity": 117, "channel": 0}, {"type": "note_on", "time": 3, "note": 66, "velocity": 99, "channel": 0}, {"type": "note_off", "time": 51, "note": 66, "velocity": 99, "channel": 0}, {"type": "note_on", "time": 24, "note": 65, "velocity": 112, "channel": 0}, {"type": "note_off", "time": 83, "note": 65, "velocity": 112, "channel": 0}, {"type": "note_on", "time": 0, "note": 64, "velocity": 110, "channel": 0}, {"type": "note_off", "time": 58, "note": 64, "velocity": 110, "channel": 0}, {"type": "note_on", "time": 17, "note": 62, "velocity": 113, "channel": 0}, {"type": "note_off", "time": 107, "note": 62, "velocity": 113, "channel": 0}, {"type": "note_on", "time": 9, "note": 60, "velocity": 102, "channel": 0}, {"type": "note_off", "time": 54, "note": 60, "velocity": 102, "channel": 0}, {"type": "note_on", "time": 8, "note": 59, "velocity": 96, "channel": 0}, {"type": "note_off", "time": 76, "note": 59, "velocity": 96, "channel": 0}, {"type": "note_on", "time": 13, "note": 58, "velocity": 100, "channel": 0}, {"type": "note_off", "time": 89, "note": 58, "velocity": 100, "channel": 0}, {"type": "note_on", "time": 24, "note": 55, "velocity": 97, "channel": 0}, {"type": "note_off", "time": 65, "note": 55, "velocity": 97, "channel": 0}, {"type": "note_on", "time": 20, "note": 57, "velocity": 98, "channel": 0}, {"type": "note_off", "time": 72, "note": 57, "velocity": 98, "channel": 0}, {"type": "note_on", "time": 34, "note": 55, "velocity": 101, "channel": 0}, {"type": "note_off", "time": 103, "note": 55, "velocity": 101, "channel": 0}, {"type": "note_on", "time": 0, "note": 50, "velocity": 95, "channel": 0}, {"type": "note_off", "time": 103, "note": 50, "velocity": 95, "channel": 0}, {"type": "note_on", "time": 6, "note": 53, "velocity": 102, "channel": 0}, {"type": "note_off", "time": 86, "note": 53, "velocity": 102, "channel": 0}, {"type": "note_on", "time": 15, "note": 52, "velocity": 103, "channel": 0}, {"type": "note_off", "time": 58, "note": 52, "velocity": 103, "channel": 0}, {"type": "note_on", "time": 25, "note": 55, "velocity": 103, "channel": 0}, {"type": "note_off", "time": 88, "note": 55, "velocity": 103, "channel": 0}, {"type": "note_on", "time": 13, "note": 57, "velocity": 92, "channel": 0}, {"type": "note_off", "time": 91, "note": 57, "velocity": 92, "channel": 0}, {"type": "note_on", "time": 0, "note": 62, "velocity": 115, "channel": 0}, {"type": "note_off", "time": 95, "note": 62, "velocity": 115, "channel": 0}, {"type": "note_on", "time": 24, "note": 57, "velocity": 92, "channel": 0}, {"type": "note_off", "time": 53, "note": 57, "velocity": 92, "channel": 0}, {"type": "note_on", "time": 10, "note": 58, "velocity": 97, "channel": 0}, {"type": "note_off", "time": 62, "note": 58, "velocity": 97, "channel": 0}, {"type": "note_on", "time": 24, "note": 62, "velocity": 106, "channel": 0}, {"type": "note_off", "time": 84, "note": 62, "velocity": 106, "channel": 0}, {"type": "note_on", "time": 8, "note": 65, "velocity": 92, "channel": 0}, {"type": "note_off", "time": 89, "note": 65, "velocity": 92, "channel": 0}, {"type": "note_on", "time": 1, "note": 69, "velocity": 108, "channel": 0}, {"type": "note_off", "time": 103, "note": 69, "velocity": 108, "channel": 0}, {"type": "note_on", "time": 19, "note": 66, "velocity": 100, "channel": 0}, {"type": "note_off", "time": 69, "note": 66, "velocity": 100, "channel": 0}, {"type": "note_on", "time": 15, "note": 67, "velocity": 101, "channel": 0}, {"type": "note_off", "time": 102, "note": 67, "velocity": 101, "channel": 0}, {"type": "note_on", "time": 10, "note": 69, "velocity": 106, "channel": 0}, {"type": "note_off", "time": 60, "note": 69, "velocity": 106, "channel": 0}, {"type": "note_on", "time": 15, "note": 66, "velocity": 104, "channel": 0}, {"type": "note_off", "time": 83, "note": 66, "velocity": 104, "channel": 0}, {"type": "note_on", "time": 8, "note": 62, "velocity": 114, "channel": 0}, {"type": "note_off", "time": 72, "note": 62, "velocity": 114, "channel": 0}, {"type": "note_on", "time": 12, "note": 58, "velocity": 96, "channel": 0}, {"type": "note_off", "time": 79, "note": 58, "velocity": 96, "channel": 0}, {"type": "note_on", "time": 69, "note": 55, "velocity": 92, "channel": 0}, {"type": "note_off", "time": 65, "note": 55, "velocity": 92, "channel": 0}, {"type": "note_on", "time": 10, "note": 65, "velocity": 113, "channel": 0}, {"type": "note_on", "time": 89, "note": 62, "velocity": 106, "channel": 0}, {"type": "note_off", "time": 0, "note": 65, "velocity": 113, "channel": 0}, {"type": "note_off", "time": 48, "note": 62, "velocity": 106, "channel": 0}, {"type": "note_on", "time": 0, "note": 64, "velocity": 117, "channel": 0}, {"type": "note_off", "time": 131, "note": 64, "velocity": 117, "channel": 0}, {"type": "note_on", "time": 10, "note": 62, "velocity": 118, "channel": 0}, {"type": "note_off", "time": 72, "note": 62, "velocity": 118, "channel": 0}, {"type": "note_on", "time": 0, "note": 60, "velocity": 108, "channel": 0}, {"type": "note_off", "time": 79, "note": 60, "velocity": 108, "channel": 0}, {"type": "note_on", "time": 13, "note": 58, "velocity": 103, "channel": 0}, {"type": "note_off", "time": 72, "note": 58, "velocity": 103, "channel": 0}, {"type": "note_on", "time": 6, "note": 57, "velocity": 93, "channel": 0}, {"type": "note_off", "time": 141, "note": 57, "velocity": 93, "channel": 0}, {"type": "note_on", "time": 93, "note": 60, "velocity": 108, "channel": 0}, {"type": "note_off", "time": 67, "note": 60, "velocity": 108, "channel": 0}, {"type": "note_on", "time": 138, "note": 65, "velocity": 112, "channel": 0}, {"type": "note_off", "time": 57, "note": 65, "velocity": 112, "channel": 0}, {"type": "note_on", "time": 96, "note": 67, "velocity": 100, "channel": 0}, {"type": "note_off", "time": 110, "note": 67, "velocity": 100, "channel": 0}, {"type": "note_on", "time": 65, "note": 69, "velocity": 110, "channel": 0}, {"type": "note_off", "time": 183, "note": 69, "velocity": 110, "channel": 0}, {"type": "note_on", "time": 20, "note": 65, "velocity": 102, "channel": 0}, {"type": "note_off", "time": 103, "note": 65, "velocity": 102, "channel": 0}, {"type": "note_on", "time": 79, "note": 67, "velocity": 102, "channel": 0}, {"type": "note_off", "time": 179, "note": 67, "velocity": 102, "channel": 0}, {"type": "note_on", "time": 27, "note": 65, "velocity": 93, "channel": 0}, {"type": "note_off", "time": 114, "note": 65, "velocity": 93, "channel": 0}, {"type": "note_on", "time": 3, "note": 68, "velocity": 116, "channel": 0}, {"type": "note_off", "time": 81, "note": 68, "velocity": 116, "channel": 0}, {"type": "note_on", "time": 98, "note": 62, "velocity": 96, "channel": 0}, {"type": "note_off", "time": 252, "note": 62, "velocity": 96, "channel": 0}, {"type": "note_on", "time": 934, "note": 55, "velocity": 97, "channel": 0}, {"type": "note_off", "time": 58, "note": 55, "velocity": 97, "channel": 0}, {"type": "note_on", "time": 5, "note": 58, "velocity": 90, "channel": 0}, {"type": "note_off", "time": 74, "note": 58, "velocity": 90, "channel": 0}, {"type": "note_on", "time": 6, "note": 59, "velocity": 95, "channel": 0}, {"type": "note_off", "time": 76, "note": 59, "velocity": 95, "channel": 0}, {"type": "note_on", "time": 6, "note": 63, "velocity": 125, "channel": 0}, {"type": "note_off", "time": 152, "note": 63, "velocity": 125, "channel": 0}, {"type": "note_on", "time": 62, "note": 64, "velocity": 105, "channel": 0}, {"type": "note_off", "time": 128, "note": 64, "velocity": 105, "channel": 0}, {"type": "note_on", "time": 83, "note": 63, "velocity": 113, "channel": 0}, {"type": "note_off", "time": 110, "note": 63, "velocity": 113, "channel": 0}, {"type": "note_on", "time": 72, "note": 64, "velocity": 106, "channel": 0}, {"type": "note_off", "time": 128, "note": 64, "velocity": 106, "channel": 0}, {"type": "note_on", "time": 27, "note": 63, "velocity": 108, "channel": 0}, {"type": "note_off", "time": 228, "note": 63, "velocity": 108, "channel": 0}, {"type": "note_on", "time": 89, "note": 64, "velocity": 112, "channel": 0}, {"type": "note_off", "time": 141, "note": 64, "velocity": 112, "channel": 0}, {"type": "note_on", "time": 173, "note": 55, "velocity": 100, "channel": 0}, {"type": "note_off", "time": 79, "note": 55, "velocity": 100, "channel": 0}, {"type": "note_on", "time": 0, "note": 57, "velocity": 99, "channel": 0}, {"type": "note_off", "time": 62, "note": 57, "velocity": 99, "channel": 0}, {"type": "note_on", "time": 17, "note": 63, "velocity": 114, "channel": 0}, {"type": "note_off", "time": 89, "note": 63, "velocity": 114, "channel": 0}, {"type": "note_on", "time": 24, "note": 59, "velocity": 87, "channel": 0}, {"type": "note_off", "time": 69, "note": 59, "velocity": 87, "channel": 0}, {"type": "note_on", "time": 13, "note": 64, "velocity": 117, "channel": 0}, {"type": "note_off", "time": 128, "note": 64, "velocity": 117, "channel": 0}, {"type": "note_on", "time": 10, "note": 59, "velocity": 93, "channel": 0}, {"type": "note_off", "time": 58, "note": 59, "velocity": 93, "channel": 0}, {"type": "note_on", "time": 0, "note": 63, "velocity": 111, "channel": 0}, {"type": "note_off", "time": 89, "note": 63, "velocity": 111, "channel": 0}, {"type": "note_on", "time": 13, "note": 59, "velocity": 85, "channel": 0}, {"type": "note_off", "time": 69, "note": 59, "velocity": 85, "channel": 0}, {"type": "note_on", "time": 6, "note": 64, "velocity": 118, "channel": 0}, {"type": "note_off", "time": 96, "note": 64, "velocity": 118, "channel": 0}, {"type": "note_on", "time": 110, "note": 55, "velocity": 99, "channel": 0}, {"type": "note_off", "time": 103, "note": 55, "velocity": 99, "channel": 0}, {"type": "note_on", "time": 20, "note": 57, "velocity": 94, "channel": 0}, {"type": "note_off", "time": 93, "note": 57, "velocity": 94, "channel": 0}, {"type": "note_on", "time": 44, "note": 60, "velocity": 113, "channel": 0}, {"type": "note_off", "time": 121, "note": 60, "velocity": 113, "channel": 0}, {"type": "note_on", "time": 121, "note": 57, "velocity": 96, "channel": 0}, {"type": "note_off", "time": 107, "note": 57, "velocity": 96, "channel": 0}, {"type": "note_on", "time": 62, "note": 60, "velocity": 112, "channel": 0}, {"type": "note_off", "time": 89, "note": 60, "velocity": 112, "channel": 0}, {"type": "note_on", "time": 186, "note": 60, "velocity": 113, "channel": 0}, {"type": "note_off", "time": 117, "note": 60, "velocity": 113, "channel": 0}, {"type": "note_on", "time": 65, "note": 63, "velocity": 118, "channel": 0}, {"type": "note_off", "time": 121, "note": 63, "velocity": 118, "channel": 0}, {"type": "note_on", "time": 55, "note": 64, "velocity": 108, "channel": 0}, {"type": "note_off", "time": 114, "note": 64, "velocity": 108, "channel": 0}, {"type": "note_on", "time": 93, "note": 55, "velocity": 104, "channel": 0}, {"type": "note_off", "time": 148, "note": 55, "velocity": 104, "channel": 0}, {"type": "note_on", "time": 41, "note": 57, "velocity": 101, "channel": 0}, {"type": "note_off", "time": 128, "note": 57, "velocity": 101, "channel": 0}, {"type": "note_on", "time": 51, "note": 60, "velocity": 115, "channel": 0}, {"type": "note_off", "time": 110, "note": 60, "velocity": 115, "channel": 0}, {"type": "note_on", "time": 41, "note": 62, "velocity": 93, "channel": 0}, {"type": "note_off", "time": 100, "note": 62, "velocity": 93, "channel": 0}, {"type": "note_on", "time": 72, "note": 60, "velocity": 94, "channel": 0}, {"type": "note_off", "time": 117, "note": 60, "velocity": 94, "channel": 0}, {"type": "note_on", "time": 318, "note": 55, "velocity": 96, "channel": 0}, {"type": "note_off", "time": 124, "note": 55, "velocity": 96, "channel": 0}, {"type": "note_on", "time": 58, "note": 57, "velocity": 99, "channel": 0}, {"type": "note_off", "time": 103, "note": 57, "velocity": 99, "channel": 0}, {"type": "note_on", "time": 65, "note": 60, "velocity": 108, "channel": 0}, {"type": "note_off", "time": 138, "note": 60, "velocity": 108, "channel": 0}, {"type": "note_on", "time": 76, "note": 62, "velocity": 121, "channel": 0}, {"type": "note_off", "time": 117, "note": 62, "velocity": 121, "channel": 0}, {"type": "note_on", "time": 48, "note": 63, "velocity": 121, "channel": 0}, {"type": "note_off", "time": 204, "note": 63, "velocity": 121, "channel": 0}, {"type": "note_on", "time": 0, "note": 64, "velocity": 101, "channel": 0}, {"type": "note_off", "time": 138, "note": 64, "velocity": 101, "channel": 0}, {"type": "note_on", "time": 76, "note": 67, "velocity": 108, "channel": 0}, {"type": "note_off", "time": 131, "note": 67, "velocity": 108, "channel": 0}, {"type": "note_on", "time": 221, "note": 69, "velocity": 114, "channel": 0}, {"type": "note_off", "time": 169, "note": 69, "velocity": 114, "channel": 0}, {"type": "note_on", "time": 235, "note": 65, "velocity": 108, "channel": 0}, {"type": "note_off", "time": 179, "note": 65, "velocity": 108, "channel": 0}, {"type": "note_on", "time": 10, "note": 69, "velocity": 117, "channel": 0}, {"type": "note_off", "time": 96, "note": 69, "velocity": 117, "channel": 0}, {"type": "note_on", "time": 20, "note": 68, "velocity": 111, "channel": 0}, {"type": "note_off", "time": 86, "note": 68, "velocity": 111, "channel": 0}, {"type": "note_on", "time": 0, "note": 64, "velocity": 106, "channel": 0}, {"type": "note_off", "time": 204, "note": 64, "velocity": 106, "channel": 0}, {"type": "note_on", "time": 10, "note": 63, "velocity": 103, "channel": 0}, {"type": "note_off", "time": 114, "note": 63, "velocity": 103, "channel": 0}, {"type": "note_on", "time": 51, "note": 66, "velocity": 107, "channel": 0}, {"type": "note_off", "time": 76, "note": 66, "velocity": 107, "channel": 0}, {"type": "note_on", "time": 13, "note": 65, "velocity": 106, "channel": 0}, {"type": "note_off", "time": 83, "note": 65, "velocity": 106, "channel": 0}, {"type": "note_on", "time": 10, "note": 62, "velocity": 102, "channel": 0}, {"type": "note_off", "time": 79, "note": 62, "velocity": 102, "channel": 0}, {"type": "note_on", "time": 17, "note": 61, "velocity": 103, "channel": 0}, {"type": "note_off", "time": 62, "note": 61, "velocity": 103, "channel": 0}, {"type": "note_on", "time": 0, "note": 64, "velocity": 110, "channel": 0}, {"type": "note_off", "time": 128, "note": 64, "velocity": 110, "channel": 0}, {"type": "note_on", "time": 27, "note": 63, "velocity": 113, "channel": 0}, {"type": "note_off", "time": 76, "note": 63, "velocity": 113, "channel": 0}, {"type": "note_on", "time": 24, "note": 60, "velocity": 98, "channel": 0}, {"type": "note_off", "time": 44, "note": 60, "velocity": 98, "channel": 0}, {"type": "note_on", "time": 13, "note": 56, "velocity": 94, "channel": 0}, {"type": "note_off", "time": 55, "note": 56, "velocity": 94, "channel": 0}, {"type": "note_on", "time": 3, "note": 62, "velocity": 102, "channel": 0}, {"type": "note_off", "time": 387, "note": 62, "velocity": 102, "channel": 0}, {"type": "note_on", "time": 169, "note": 62, "velocity": 115, "channel": 0}, {"type": "note_off", "time": 62, "note": 62, "velocity": 115, "channel": 0}, {"type": "note_on", "time": 13, "note": 64, "velocity": 112, "channel": 0}, {"type": "note_off", "time": 79, "note": 64, "velocity": 112, "channel": 0}, {"type": "note_on", "time": 10, "note": 62, "velocity": 108, "channel": 0}, {"type": "note_off", "time": 89, "note": 62, "velocity": 108, "channel": 0}, {"type": "note_on", "time": 11, "note": 61, "velocity": 105, "channel": 0}, {"type": "note_off", "time": 98, "note": 61, "velocity": 105, "channel": 0}, {"type": "note_on", "time": 4, "note": 62, "velocity": 101, "channel": 0}, {"type": "note_off", "time": 61, "note": 62, "velocity": 101, "channel": 0}, {"type": "note_on", "time": 17, "note": 64, "velocity": 108, "channel": 0}, {"type": "note_off", "time": 100, "note": 64, "velocity": 108, "channel": 0}, {"type": "note_on", "time": 2, "note": 61, "velocity": 105, "channel": 0}, {"type": "note_off", "time": 76, "note": 61, "velocity": 105, "channel": 0}, {"type": "note_on", "time": 2, "note": 62, "velocity": 111, "channel": 0}, {"type": "note_off", "time": 98, "note": 62, "velocity": 111, "channel": 0}, {"type": "note_on", "time": 0, "note": 64, "velocity": 108, "channel": 0}, {"type": "note_off", "time": 91, "note": 64, "velocity": 108, "channel": 0}, {"type": "note_on", "time": 17, "note": 65, "velocity": 101, "channel": 0}, {"type": "note_off", "time": 66, "note": 65, "velocity": 101, "channel": 0}, {"type": "note_on", "time": 22, "note": 67, "velocity": 93, "channel": 0}, {"type": "note_off", "time": 68, "note": 67, "velocity": 93, "channel": 0}, {"type": "note_on", "time": 7, "note": 64, "velocity": 102, "channel": 0}, {"type": "note_off", "time": 190, "note": 64, "velocity": 102, "channel": 0}, {"type": "note_on", "time": 9, "note": 64, "velocity": 110, "channel": 0}, {"type": "note_off", "time": 184, "note": 64, "velocity": 110, "channel": 0}, {"type": "note_on", "time": 9, "note": 60, "velocity": 107, "channel": 0}, {"type": "note_off", "time": 115, "note": 60, "velocity": 107, "channel": 0}, {"type": "note_on", "time": 29, "note": 55, "velocity": 95, "channel": 0}, {"type": "note_off", "time": 73, "note": 55, "velocity": 95, "channel": 0}, {"type": "note_on", "time": 4, "note": 57, "velocity": 98, "channel": 0}, {"type": "note_off", "time": 71, "note": 57, "velocity": 98, "channel": 0}, {"type": "note_on", "time": 0, "note": 59, "velocity": 99, "channel": 0}, {"type": "note_off", "time": 68, "note": 59, "velocity": 99, "channel": 0}, {"type": "note_on", "time": 12, "note": 62, "velocity": 107, "channel": 0}, {"type": "note_off", "time": 132, "note": 62, "velocity": 107, "channel": 0}, {"type": "note_on", "time": 14, "note": 59, "velocity": 90, "channel": 0}, {"type": "note_off", "time": 46, "note": 59, "velocity": 90, "channel": 0}, {"type": "note_on", "time": 9, "note": 62, "velocity": 105, "channel": 0}, {"type": "note_off", "time": 162, "note": 62, "velocity": 105, "channel": 0}, {"type": "note_on", "time": 7, "note": 61, "velocity": 107, "channel": 0}, {"type": "note_off", "time": 135, "note": 61, "velocity": 107, "channel": 0}, {"type": "note_on", "time": 2, "note": 59, "velocity": 102, "channel": 0}, {"type": "note_off", "time": 34, "note": 59, "velocity": 102, "channel": 0}, {"type": "note_on", "time": 5, "note": 61, "velocity": 110, "channel": 0}, {"type": "note_off", "time": 147, "note": 61, "velocity": 110, "channel": 0}, {"type": "note_on", "time": 2, "note": 59, "velocity": 95, "channel": 0}, {"type": "note_off", "time": 36, "note": 59, "velocity": 95, "channel": 0}, {"type": "note_on", "time": 4, "note": 60, "velocity": 99, "channel": 0}, {"type": "note_off", "time": 132, "note": 60, "velocity": 99, "channel": 0}, {"type": "note_on", "time": 4, "note": 59, "velocity": 92, "channel": 0}, {"type": "note_off", "time": 34, "note": 59, "velocity": 92, "channel": 0}, {"type": "note_on", "time": 3, "note": 60, "velocity": 101, "channel": 0}, {"type": "note_off", "time": 155, "note": 60, "velocity": 101, "channel": 0}, {"type": "note_on", "time": 6, "note": 58, "velocity": 90, "channel": 0}, {"type": "note_off", "time": 39, "note": 58, "velocity": 90, "channel": 0}, {"type": "note_on", "time": 5, "note": 59, "velocity": 104, "channel": 0}, {"type": "note_off", "time": 81, "note": 59, "velocity": 104, "channel": 0}, {"type": "note_on", "time": 29, "note": 55, "velocity": 89, "channel": 0}, {"type": "note_off", "time": 73, "note": 55, "velocity": 89, "channel": 0}, {"type": "note_on", "time": 319, "note": 70, "velocity": 114, "channel": 0}, {"type": "note_off", "time": 76, "note": 70, "velocity": 114, "channel": 0}, {"type": "note_on", "time": 49, "note": 71, "velocity": 95, "channel": 0}, {"type": "note_off", "time": 93, "note": 71, "velocity": 95, "channel": 0}, {"type": "note_on", "time": 0, "note": 68, "velocity": 97, "channel": 0}, {"type": "note_off", "time": 29, "note": 68, "velocity": 97, "channel": 0}, {"type": "note_on", "time": 24, "note": 70, "velocity": 116, "channel": 0}, {"type": "note_off", "time": 108, "note": 70, "velocity": 116, "channel": 0}, {"type": "note_on", "time": 19, "note": 68, "velocity": 92, "channel": 0}, {"type": "note_off", "time": 54, "note": 68, "velocity": 92, "channel": 0}, {"type": "note_on", "time": 24, "note": 70, "velocity": 115, "channel": 0}, {"type": "note_on", "time": 105, "note": 68, "velocity": 97, "channel": 0}, {"type": "note_off", "time": 0, "note": 70, "velocity": 115, "channel": 0}, {"type": "note_off", "time": 54, "note": 68, "velocity": 97, "channel": 0}, {"type": "note_on", "time": 14, "note": 69, "velocity": 111, "channel": 0}, {"type": "note_off", "time": 113, "note": 69, "velocity": 111, "channel": 0}, {"type": "note_on", "time": 4, "note": 66, "velocity": 87, "channel": 0}, {"type": "note_off", "time": 51, "note": 66, "velocity": 87, "channel": 0}, {"type": "note_on", "time": 0, "note": 69, "velocity": 110, "channel": 0}, {"type": "note_off", "time": 115, "note": 69, "velocity": 110, "channel": 0}, {"type": "note_on", "time": 24, "note": 66, "velocity": 98, "channel": 0}, {"type": "note_off", "time": 59, "note": 66, "velocity": 98, "channel": 0}, {"type": "note_on", "time": 17, "note": 68, "velocity": 109, "channel": 0}, {"type": "note_off", "time": 125, "note": 68, "velocity": 109, "channel": 0}, {"type": "note_on", "time": 2, "note": 65, "velocity": 97, "channel": 0}, {"type": "note_off", "time": 71, "note": 65, "velocity": 97, "channel": 0}, {"type": "note_on", "time": 7, "note": 68, "velocity": 109, "channel": 0}, {"type": "note_off", "time": 93, "note": 68, "velocity": 109, "channel": 0}, {"type": "note_on", "time": 4, "note": 65, "velocity": 95, "channel": 0}, {"type": "note_off", "time": 54, "note": 65, "velocity": 95, "channel": 0}, {"type": "note_on", "time": 9, "note": 67, "velocity": 101, "channel": 0}, {"type": "note_off", "time": 49, "note": 67, "velocity": 101, "channel": 0}, {"type": "note_on", "time": 12, "note": 68, "velocity": 105, "channel": 0}, {"type": "note_off", "time": 34, "note": 68, "velocity": 105, "channel": 0}, {"type": "note_on", "time": 9, "note": 67, "velocity": 98, "channel": 0}, {"type": "note_off", "time": 71, "note": 67, "velocity": 98, "channel": 0}, {"type": "note_on", "time": 1, "note": 65, "velocity": 101, "channel": 0}, {"type": "note_off", "time": 98, "note": 65, "velocity": 101, "channel": 0}, {"type": "note_on", "time": 3, "note": 67, "velocity": 94, "channel": 0}, {"type": "note_off", "time": 61, "note": 67, "velocity": 94, "channel": 0}, {"type": "note_on", "time": 17, "note": 70, "velocity": 113, "channel": 0}, {"type": "note_off", "time": 137, "note": 70, "velocity": 113, "channel": 0}, {"type": "note_on", "time": 7, "note": 67, "velocity": 99, "channel": 0}, {"type": "note_off", "time": 41, "note": 67, "velocity": 99, "channel": 0}, {"type": "note_on", "time": 7, "note": 69, "velocity": 117, "channel": 0}, {"type": "note_off", "time": 93, "note": 69, "velocity": 117, "channel": 0}, {"type": "note_on", "time": 9, "note": 69, "velocity": 112, "channel": 0}, {"type": "note_off", "time": 113, "note": 69, "velocity": 112, "channel": 0}, {"type": "note_on", "time": 4, "note": 67, "velocity": 104, "channel": 0}, {"type": "note_off", "time": 81, "note": 67, "velocity": 104, "channel": 0}, {"type": "note_on", "time": 12, "note": 66, "velocity": 106, "channel": 0}, {"type": "note_off", "time": 81, "note": 66, "velocity": 106, "channel": 0}, {"type": "note_on", "time": 7, "note": 65, "velocity": 102, "channel": 0}, {"type": "note_off", "time": 98, "note": 65, "velocity": 102, "channel": 0}, {"type": "note_on", "time": 9, "note": 64, "velocity": 107, "channel": 0}, {"type": "note_off", "time": 71, "note": 64, "velocity": 107, "channel": 0}, {"type": "note_on", "time": 27, "note": 63, "velocity": 108, "channel": 0}, {"type": "note_off", "time": 73, "note": 63, "velocity": 108, "channel": 0}, {"type": "note_on", "time": 29, "note": 65, "velocity": 109, "channel": 0}, {"type": "note_off", "time": 49, "note": 65, "velocity": 109, "channel": 0}, {"type": "note_on", "time": 4, "note": 64, "velocity": 107, "channel": 0}, {"type": "note_off", "time": 110, "note": 64, "velocity": 107, "channel": 0}, {"type": "note_on", "time": 0, "note": 62, "velocity": 100, "channel": 0}, {"type": "note_off", "time": 78, "note": 62, "velocity": 100, "channel": 0}, {"type": "note_on", "time": 22, "note": 64, "velocity": 115, "channel": 0}, {"type": "note_off", "time": 83, "note": 64, "velocity": 115, "channel": 0}, {"type": "note_on", "time": 280, "note": 64, "velocity": 113, "channel": 0}, {"type": "note_off", "time": 93, "note": 64, "velocity": 113, "channel": 0}, {"type": "note_on", "time": 31, "note": 65, "velocity": 107, "channel": 0}, {"type": "note_off", "time": 93, "note": 65, "velocity": 107, "channel": 0}, {"type": "note_on", "time": 0, "note": 61, "velocity": 102, "channel": 0}, {"type": "note_off", "time": 71, "note": 61, "velocity": 102, "channel": 0}, {"type": "note_on", "time": 14, "note": 64, "velocity": 115, "channel": 0}, {"type": "note_off", "time": 86, "note": 64, "velocity": 115, "channel": 0}, {"type": "note_on", "time": 0, "note": 62, "velocity": 112, "channel": 0}, {"type": "note_off", "time": 105, "note": 62, "velocity": 112, "channel": 0}, {"type": "note_on", "time": 27, "note": 57, "velocity": 95, "channel": 0}, {"type": "note_off", "time": 73, "note": 57, "velocity": 95, "channel": 0}, {"type": "note_on", "time": 0, "note": 60, "velocity": 104, "channel": 0}, {"type": "note_off", "time": 78, "note": 60, "velocity": 104, "channel": 0}, {"type": "note_on", "time": 0, "note": 62, "velocity": 107, "channel": 0}, {"type": "note_off", "time": 110, "note": 62, "velocity": 107, "channel": 0}, {"type": "note_on", "time": 7, "note": 59, "velocity": 99, "channel": 0}, {"type": "note_off", "time": 86, "note": 59, "velocity": 99, "channel": 0}, {"type": "note_on", "time": 4, "note": 57, "velocity": 100, "channel": 0}, {"type": "note_off", "time": 46, "note": 57, "velocity": 100, "channel": 0}, {"type": "note_on", "time": 9, "note": 55, "velocity": 100, "channel": 0}, {"type": "note_off", "time": 103, "note": 55, "velocity": 100, "channel": 0}, {"type": "note_on", "time": 7, "note": 54, "velocity": 102, "channel": 0}, {"type": "note_off", "time": 93, "note": 54, "velocity": 102, "channel": 0}, {"type": "note_on", "time": 7, "note": 55, "velocity": 104, "channel": 0}, {"type": "note_off", "time": 83, "note": 55, "velocity": 104, "channel": 0}, {"type": "note_on", "time": 9, "note": 57, "velocity": 94, "channel": 0}, {"type": "note_off", "time": 100, "note": 57, "velocity": 94, "channel": 0}, {"type": "note_on", "time": 12, "note": 60, "velocity": 102, "channel": 0}, {"type": "note_off", "time": 83, "note": 60, "velocity": 102, "channel": 0}, {"type": "note_on", "time": 17, "note": 64, "velocity": 104, "channel": 0}, {"type": "note_off", "time": 76, "note": 64, "velocity": 104, "channel": 0}, {"type": "note_on", "time": 0, "note": 67, "velocity": 114, "channel": 0}, {"type": "note_off", "time": 110, "note": 67, "velocity": 114, "channel": 0}, {"type": "note_on", "time": 9, "note": 64, "velocity": 97, "channel": 0}, {"type": "note_off", "time": 98, "note": 64, "velocity": 97, "channel": 0}, {"type": "note_on", "time": 669, "note": 67, "velocity": 111, "channel": 0}, {"type": "note_off", "time": 78, "note": 67, "velocity": 111, "channel": 0}, {"type": "note_on", "time": 14, "note": 68, "velocity": 100, "channel": 0}, {"type": "note_off", "time": 118, "note": 68, "velocity": 100, "channel": 0}, {"type": "note_on", "time": 36, "note": 70, "velocity": 124, "channel": 0}, {"type": "note_off", "time": 127, "note": 70, "velocity": 124, "channel": 0}, {"type": "note_on", "time": 78, "note": 67, "velocity": 111, "channel": 0}, {"type": "note_off", "time": 93, "note": 67, "velocity": 111, "channel": 0}, {"type": "note_on", "time": 127, "note": 70, "velocity": 115, "channel": 0}, {"type": "note_off", "time": 103, "note": 70, "velocity": 115, "channel": 0}, {"type": "note_on", "time": 59, "note": 67, "velocity": 100, "channel": 0}, {"type": "note_off", "time": 115, "note": 67, "velocity": 100, "channel": 0}, {"type": "note_on", "time": 90, "note": 63, "velocity": 118, "channel": 0}, {"type": "note_off", "time": 122, "note": 63, "velocity": 118, "channel": 0}, {"type": "note_on", "time": 10, "note": 64, "velocity": 113, "channel": 0}, {"type": "note_off", "time": 108, "note": 64, "velocity": 113, "channel": 0}, {"type": "note_on", "time": 63, "note": 63, "velocity": 119, "channel": 0}, {"type": "note_off", "time": 103, "note": 63, "velocity": 119, "channel": 0}, {"type": "note_on", "time": 100, "note": 64, "velocity": 112, "channel": 0}, {"type": "note_off", "time": 83, "note": 64, "velocity": 112, "channel": 0}, {"type": "note_on", "time": 76, "note": 70, "velocity": 103, "channel": 0}, {"type": "note_off", "time": 108, "note": 70, "velocity": 103, "channel": 0}, {"type": "note_on", "time": 108, "note": 67, "velocity": 108, "channel": 0}, {"type": "note_off", "time": 66, "note": 67, "velocity": 108, "channel": 0}, {"type": "note_on", "time": 91, "note": 70, "velocity": 106, "channel": 0}, {"type": "note_off", "time": 100, "note": 70, "velocity": 106, "channel": 0}, {"type": "note_on", "time": 88, "note": 67, "velocity": 93, "channel": 0}, {"type": "note_off", "time": 78, "note": 67, "velocity": 93, "channel": 0}, {"type": "note_on", "time": 0, "note": 63, "velocity": 117, "channel": 0}, {"type": "note_off", "time": 91, "note": 63, "velocity": 117, "channel": 0}, {"type": "note_on", "time": 95, "note": 64, "velocity": 111, "channel": 0}, {"type": "note_off", "time": 95, "note": 64, "velocity": 111, "channel": 0}, {"type": "note_on", "time": 98, "note": 67, "velocity": 106, "channel": 0}, {"type": "note_off", "time": 88, "note": 67, "velocity": 106, "channel": 0}, {"type": "note_on", "time": 86, "note": 72, "velocity": 117, "channel": 0}, {"type": "note_off", "time": 110, "note": 72, "velocity": 117, "channel": 0}, {"type": "note_on", "time": 91, "note": 70, "velocity": 106, "channel": 0}, {"type": "note_off", "time": 95, "note": 70, "velocity": 106, "channel": 0}, {"type": "note_on", "time": 113, "note": 70, "velocity": 89, "channel": 0}, {"type": "note_off", "time": 95, "note": 70, "velocity": 89, "channel": 0}, {"type": "note_on", "time": 61, "note": 69, "velocity": 110, "channel": 0}, {"type": "note_off", "time": 130, "note": 69, "velocity": 110, "channel": 0}, {"type": "note_on", "time": 95, "note": 70, "velocity": 85, "channel": 0}, {"type": "note_off", "time": 125, "note": 70, "velocity": 85, "channel": 0}, {"type": "note_on", "time": 71, "note": 69, "velocity": 109, "channel": 0}, {"type": "note_off", "time": 123, "note": 69, "velocity": 109, "channel": 0}, {"type": "note_on", "time": 98, "note": 69, "velocity": 108, "channel": 0}, {"type": "note_off", "time": 78, "note": 69, "velocity": 108, "channel": 0}, {"type": "note_on", "time": 91, "note": 70, "velocity": 109, "channel": 0}, {"type": "note_off", "time": 83, "note": 70, "velocity": 109, "channel": 0}, {"type": "note_on", "time": 27, "note": 72, "velocity": 100, "channel": 0}, {"type": "note_off", "time": 93, "note": 72, "velocity": 100, "channel": 0}, {"type": "note_on", "time": 24, "note": 68, "velocity": 112, "channel": 0}, {"type": "note_off", "time": 83, "note": 68, "velocity": 112, "channel": 0}, {"type": "note_on", "time": 22, "note": 69, "velocity": 106, "channel": 0}, {"type": "note_off", "time": 56, "note": 69, "velocity": 106, "channel": 0}, {"type": "note_on", "time": 7, "note": 65, "velocity": 96, "channel": 0}, {"type": "note_off", "time": 95, "note": 65, "velocity": 96, "channel": 0}, {"type": "note_on", "time": 86, "note": 69, "velocity": 95, "channel": 0}, {"type": "note_off", "time": 113, "note": 69, "velocity": 95, "channel": 0}, {"type": "note_on", "time": 93, "note": 68, "velocity": 112, "channel": 0}, {"type": "note_off", "time": 108, "note": 68, "velocity": 112, "channel": 0}, {"type": "note_on", "time": 100, "note": 69, "velocity": 91, "channel": 0}, {"type": "note_off", "time": 95, "note": 69, "velocity": 91, "channel": 0}, {"type": "note_on", "time": 66, "note": 68, "velocity": 111, "channel": 0}, {"type": "note_off", "time": 113, "note": 68, "velocity": 111, "channel": 0}, {"type": "note_on", "time": 78, "note": 68, "velocity": 95, "channel": 0}, {"type": "note_off", "time": 95, "note": 68, "velocity": 95, "channel": 0}, {"type": "note_on", "time": 113, "note": 68, "velocity": 111, "channel": 0}, {"type": "note_off", "time": 73, "note": 68, "velocity": 111, "channel": 0}, {"type": "note_on", "time": 270, "note": 67, "velocity": 94, "channel": 0}, {"type": "note_off", "time": 66, "note": 67, "velocity": 94, "channel": 0}, {"type": "note_on", "time": 36, "note": 67, "velocity": 92, "channel": 0}, {"type": "note_off", "time": 51, "note": 67, "velocity": 92, "channel": 0}, {"type": "note_on", "time": 24, "note": 67, "velocity": 101, "channel": 0}, {"type": "note_off", "time": 115, "note": 67, "velocity": 101, "channel": 0}, {"type": "note_on", "time": 76, "note": 67, "velocity": 102, "channel": 0}, {"type": "note_off", "time": 68, "note": 67, "velocity": 102, "channel": 0}, {"type": "note_on", "time": 12, "note": 67, "velocity": 116, "channel": 0}, {"type": "note_off", "time": 49, "note": 67, "velocity": 116, "channel": 0}, {"type": "note_on", "time": 24, "note": 67, "velocity": 110, "channel": 0}, {"type": "note_off", "time": 95, "note": 67, "velocity": 110, "channel": 0}, {"type": "note_on", "time": 91, "note": 67, "velocity": 105, "channel": 0}, {"type": "note_off", "time": 66, "note": 67, "velocity": 105, "channel": 0}, {"type": "note_on", "time": 36, "note": 67, "velocity": 114, "channel": 0}, {"type": "note_off", "time": 66, "note": 67, "velocity": 114, "channel": 0}, {"type": "note_on", "time": 105, "note": 67, "velocity": 109, "channel": 0}, {"type": "note_off", "time": 83, "note": 67, "velocity": 109, "channel": 0}, {"type": "note_on", "time": 98, "note": 55, "velocity": 99, "channel": 0}, {"type": "note_off", "time": 91, "note": 55, "velocity": 99, "channel": 0}, {"type": "note_on", "time": 108, "note": 57, "velocity": 105, "channel": 0}, {"type": "note_off", "time": 78, "note": 57, "velocity": 105, "channel": 0}, {"type": "note_on", "time": 132, "note": 59, "velocity": 103, "channel": 0}, {"type": "note_off", "time": 93, "note": 59, "velocity": 103, "channel": 0}, {"type": "note_on", "time": 71, "note": 60, "velocity": 113, "channel": 0}, {"type": "note_off", "time": 76, "note": 60, "velocity": 113, "channel": 0}, {"type": "note_on", "time": 120, "note": 62, "velocity": 117, "channel": 0}, {"type": "note_off", "time": 73, "note": 62, "velocity": 117, "channel": 0}, {"type": "note_on", "time": 118, "note": 64, "velocity": 108, "channel": 0}, {"type": "note_off", "time": 68, "note": 64, "velocity": 108, "channel": 0}, {"type": "note_on", "time": 24, "note": 64, "velocity": 108, "channel": 0}, {"type": "note_off", "time": 63, "note": 64, "velocity": 108, "channel": 0}, {"type": "note_on", "time": 39, "note": 65, "velocity": 112, "channel": 0}, {"type": "note_off", "time": 118, "note": 65, "velocity": 112, "channel": 0}, {"type": "note_on", "time": 12, "note": 63, "velocity": 113, "channel": 0}, {"type": "note_off", "time": 56, "note": 63, "velocity": 113, "channel": 0}, {"type": "note_on", "time": 4, "note": 64, "velocity": 106, "channel": 0}, {"type": "note_off", "time": 135, "note": 64, "velocity": 106, "channel": 0}, {"type": "note_on", "time": 7, "note": 60, "velocity": 109, "channel": 0}, {"type": "note_off", "time": 91, "note": 60, "velocity": 109, "channel": 0}, {"type": "note_on", "time": 4, "note": 55, "velocity": 90, "channel": 0}, {"type": "note_off", "time": 66, "note": 55, "velocity": 90, "channel": 0}, {"type": "note_on", "time": 17, "note": 53, "velocity": 94, "channel": 0}, {"type": "note_off", "time": 61, "note": 53, "velocity": 94, "channel": 0}, {"type": "note_on", "time": 7, "note": 58, "velocity": 100, "channel": 0}, {"type": "note_off", "time": 88, "note": 58, "velocity": 100, "channel": 0}, {"type": "note_on", "time": 44, "note": 55, "velocity": 92, "channel": 0}, {"type": "note_off", "time": 31, "note": 55, "velocity": 92, "channel": 0}, {"type": "note_on", "time": 39, "note": 57, "velocity": 101, "channel": 0}, {"type": "note_off", "time": 95, "note": 57, "velocity": 101, "channel": 0}, {"type": "note_on", "time": 14, "note": 55, "velocity": 95, "channel": 0}, {"type": "note_off", "time": 66, "note": 55, "velocity": 95, "channel": 0}, {"type": "note_on", "time": 9, "note": 53, "velocity": 105, "channel": 0}, {"type": "note_off", "time": 63, "note": 53, "velocity": 105, "channel": 0}, {"type": "note_on", "time": 329, "note": 64, "velocity": 118, "channel": 0}, {"type": "note_off", "time": 105, "note": 64, "velocity": 118, "channel": 0}, {"type": "note_on", "time": 2, "note": 62, "velocity": 115, "channel": 0}, {"type": "note_off", "time": 68, "note": 62, "velocity": 115, "channel": 0}, {"type": "note_on", "time": 9, "note": 57, "velocity": 100, "channel": 0}, {"type": "note_off", "time": 76, "note": 57, "velocity": 100, "channel": 0}, {"type": "note_on", "time": 2, "note": 58, "velocity": 91, "channel": 0}, {"type": "note_off", "time": 44, "note": 58, "velocity": 91, "channel": 0}, {"type": "note_on", "time": 44, "note": 60, "velocity": 109, "channel": 0}, {"type": "note_off", "time": 98, "note": 60, "velocity": 109, "channel": 0}, {"type": "note_on", "time": 19, "note": 58, "velocity": 101, "channel": 0}, {"type": "note_off", "time": 73, "note": 58, "velocity": 101, "channel": 0}, {"type": "note_on", "time": 4, "note": 59, "velocity": 103, "channel": 0}, {"type": "note_off", "time": 78, "note": 59, "velocity": 103, "channel": 0}, {"type": "note_on", "time": 22, "note": 62, "velocity": 110, "channel": 0}, {"type": "note_off", "time": 103, "note": 62, "velocity": 110, "channel": 0}, {"type": "note_on", "time": 12, "note": 65, "velocity": 103, "channel": 0}, {"type": "note_off", "time": 78, "note": 65, "velocity": 103, "channel": 0}, {"type": "note_on", "time": 29, "note": 68, "velocity": 118, "channel": 0}, {"type": "note_off", "time": 86, "note": 68, "velocity": 118, "channel": 0}, {"type": "note_on", "time": 2, "note": 67, "velocity": 112, "channel": 0}, {"type": "note_off", "time": 86, "note": 67, "velocity": 112, "channel": 0}, {"type": "note_on", "time": 7, "note": 65, "velocity": 113, "channel": 0}, {"type": "note_off", "time": 103, "note": 65, "velocity": 113, "channel": 0}, {"type": "note_on", "time": 0, "note": 64, "velocity": 112, "channel": 0}, {"type": "note_off", "time": 91, "note": 64, "velocity": 112, "channel": 0}, {"type": "note_on", "time": 7, "note": 62, "velocity": 117, "channel": 0}, {"type": "note_off", "time": 56, "note": 62, "velocity": 117, "channel": 0}, {"type": "note_on", "time": 12, "note": 59, "velocity": 111, "channel": 0}, {"type": "note_off", "time": 44, "note": 59, "velocity": 111, "channel": 0}, {"type": "note_on", "time": 2, "note": 55, "velocity": 98, "channel": 0}, {"type": "note_off", "time": 103, "note": 55, "velocity": 98, "channel": 0}, {"type": "note_on", "time": 27, "note": 59, "velocity": 107, "channel": 0}, {"type": "note_off", "time": 140, "note": 59, "velocity": 107, "channel": 0}, {"type": "note_on", "time": 8, "note": 60, "velocity": 112, "channel": 0}, {"type": "note_off", "time": 162, "note": 60, "velocity": 112, "channel": 0}, {"type": "note_on", "time": 10, "note": 59, "velocity": 98, "channel": 0}, {"type": "note_off", "time": 58, "note": 59, "velocity": 98, "channel": 0}, {"type": "note_on", "time": 15, "note": 63, "velocity": 123, "channel": 0}, {"type": "note_off", "time": 177, "note": 63, "velocity": 123, "channel": 0}, {"type": "note_on", "time": 22, "note": 64, "velocity": 114, "channel": 0}, {"type": "note_off", "time": 95, "note": 64, "velocity": 114, "channel": 0}, {"type": "note_on", "time": 100, "note": 67, "velocity": 110, "channel": 0}, {"type": "note_off", "time": 169, "note": 67, "velocity": 110, "channel": 0}, {"type": "note_on", "time": 7, "note": 71, "velocity": 107, "channel": 0}, {"type": "note_off", "time": 103, "note": 71, "velocity": 107, "channel": 0}, {"type": "note_on", "time": 110, "note": 72, "velocity": 113, "channel": 0}, {"type": "note_off", "time": 93, "note": 72, "velocity": 113, "channel": 0}, {"type": "note_on", "time": 286, "note": 75, "velocity": 116, "channel": 0}, {"type": "note_off", "time": 44, "note": 75, "velocity": 116, "channel": 0}, {"type": "note_on", "time": 3, "note": 76, "velocity": 122, "channel": 0}, {"type": "note_off", "time": 118, "note": 76, "velocity": 122, "channel": 0}, {"type": "note_on", "time": 241, "note": 72, "velocity": 118, "channel": 0}, {"type": "note_off", "time": 95, "note": 72, "velocity": 118, "channel": 0}, {"type": "note_on", "time": 273, "note": 69, "velocity": 112, "channel": 0}, {"type": "note_off", "time": 54, "note": 69, "velocity": 112, "channel": 0}, {"type": "note_on", "time": 19, "note": 70, "velocity": 107, "channel": 0}, {"type": "note_off", "time": 81, "note": 70, "velocity": 107, "channel": 0}, {"type": "note_on", "time": 228, "note": 67, "velocity": 108, "channel": 0}, {"type": "note_off", "time": 103, "note": 67, "velocity": 108, "channel": 0}, {"type": "note_on", "time": 268, "note": 69, "velocity": 118, "channel": 0}, {"type": "note_off", "time": 120, "note": 69, "velocity": 118, "channel": 0}, {"type": "note_on", "time": 14, "note": 68, "velocity": 107, "channel": 0}, {"type": "note_off", "time": 68, "note": 68, "velocity": 107, "channel": 0}, {"type": "note_on", "time": 113, "note": 69, "velocity": 121, "channel": 0}, {"type": "note_off", "time": 93, "note": 69, "velocity": 121, "channel": 0}, {"type": "note_on", "time": 2, "note": 70, "velocity": 116, "channel": 0}, {"type": "note_off", "time": 98, "note": 70, "velocity": 116, "channel": 0}, {"type": "note_on", "time": 0, "note": 67, "velocity": 99, "channel": 0}, {"type": "note_off", "time": 39, "note": 67, "velocity": 99, "channel": 0}, {"type": "note_on", "time": 9, "note": 69, "velocity": 114, "channel": 0}, {"type": "note_off", "time": 123, "note": 69, "velocity": 114, "channel": 0}, {"type": "note_on", "time": 17, "note": 67, "velocity": 96, "channel": 0}, {"type": "note_off", "time": 226, "note": 67, "velocity": 96, "channel": 0}, {"type": "note_on", "time": 413, "note": 69, "velocity": 116, "channel": 0}, {"type": "note_off", "time": 91, "note": 69, "velocity": 116, "channel": 0}, {"type": "note_on", "time": 24, "note": 69, "velocity": 116, "channel": 0}, {"type": "note_off", "time": 76, "note": 69, "velocity": 116, "channel": 0}, {"type": "note_on", "time": 17, "note": 67, "velocity": 107, "channel": 0}, {"type": "note_off", "time": 137, "note": 67, "velocity": 107, "channel": 0}, {"type": "note_on", "time": 22, "note": 69, "velocity": 107, "channel": 0}, {"type": "note_off", "time": 83, "note": 69, "velocity": 107, "channel": 0}, {"type": "note_on", "time": 321, "note": 57, "velocity": 101, "channel": 0}, {"type": "note_off", "time": 58, "note": 57, "velocity": 101, "channel": 0}, {"type": "note_on", "time": 24, "note": 57, "velocity": 104, "channel": 0}, {"type": "note_off", "time": 100, "note": 57, "velocity": 104, "channel": 0}, {"type": "note_on", "time": 16, "note": 55, "velocity": 98, "channel": 0}, {"type": "note_off", "time": 135, "note": 55, "velocity": 98, "channel": 0}, {"type": "note_on", "time": 27, "note": 57, "velocity": 98, "channel": 0}, {"type": "note_off", "time": 51, "note": 57, "velocity": 98, "channel": 0}, {"type": "note_on", "time": 317, "note": 69, "velocity": 117, "channel": 0}, {"type": "note_off", "time": 91, "note": 69, "velocity": 117, "channel": 0}, {"type": "note_on", "time": 14, "note": 69, "velocity": 113, "channel": 0}, {"type": "note_off", "time": 93, "note": 69, "velocity": 113, "channel": 0}, {"type": "note_on", "time": 34, "note": 67, "velocity": 101, "channel": 0}, {"type": "note_off", "time": 54, "note": 67, "velocity": 101, "channel": 0}, {"type": "note_on", "time": 12, "note": 69, "velocity": 112, "channel": 0}, {"type": "note_off", "time": 86, "note": 69, "velocity": 112, "channel": 0}, {"type": "note_on", "time": 9, "note": 70, "velocity": 111, "channel": 0}, {"type": "note_off", "time": 115, "note": 70, "velocity": 111, "channel": 0}, {"type": "note_on", "time": 0, "note": 67, "velocity": 104, "channel": 0}, {"type": "note_off", "time": 51, "note": 67, "velocity": 104, "channel": 0}, {"type": "note_on", "time": 14, "note": 69, "velocity": 114, "channel": 0}, {"type": "note_off", "time": 93, "note": 69, "velocity": 114, "channel": 0}, {"type": "note_on", "time": 0, "note": 67, "velocity": 106, "channel": 0}, {"type": "note_off", "time": 91, "note": 67, "velocity": 106, "channel": 0}, {"type": "note_on", "time": 0, "note": 65, "velocity": 99, "channel": 0}, {"type": "note_off", "time": 142, "note": 65, "velocity": 99, "channel": 0}, {"type": "note_on", "time": 10, "note": 62, "velocity": 81, "channel": 0}, {"type": "note_off", "time": 39, "note": 62, "velocity": 81, "channel": 0}, {"type": "note_on", "time": 1, "note": 63, "velocity": 112, "channel": 0}, {"type": "note_off", "time": 113, "note": 63, "velocity": 112, "channel": 0}, {"type": "note_on", "time": 12, "note": 64, "velocity": 116, "channel": 0}, {"type": "note_off", "time": 68, "note": 64, "velocity": 116, "channel": 0}, {"type": "note_on", "time": 2, "note": 65, "velocity": 102, "channel": 0}, {"type": "note_off", "time": 118, "note": 65, "velocity": 102, "channel": 0}, {"type": "note_on", "time": 23, "note": 66, "velocity": 98, "channel": 0}, {"type": "note_off", "time": 44, "note": 66, "velocity": 98, "channel": 0}, {"type": "note_on", "time": 0, "note": 67, "velocity": 108, "channel": 0}, {"type": "note_off", "time": 91, "note": 67, "velocity": 108, "channel": 0}, {"type": "note_on", "time": 39, "note": 64, "velocity": 103, "channel": 0}, {"type": "note_off", "time": 36, "note": 64, "velocity": 103, "channel": 0}, {"type": "note_on", "time": 12, "note": 65, "velocity": 113, "channel": 0}, {"type": "note_off", "time": 95, "note": 65, "velocity": 113, "channel": 0}, {"type": "note_on", "time": 7, "note": 66, "velocity": 95, "channel": 0}, {"type": "note_off", "time": 39, "note": 66, "velocity": 95, "channel": 0}, {"type": "note_on", "time": 0, "note": 65, "velocity": 113, "channel": 0}, {"type": "note_off", "time": 76, "note": 65, "velocity": 113, "channel": 0}, {"type": "note_on", "time": 12, "note": 64, "velocity": 103, "channel": 0}, {"type": "note_off", "time": 86, "note": 64, "velocity": 103, "channel": 0}, {"type": "note_on", "time": 0, "note": 60, "velocity": 107, "channel": 0}, {"type": "note_off", "time": 78, "note": 60, "velocity": 107, "channel": 0}, {"type": "note_on", "time": 184, "note": 65, "velocity": 114, "channel": 0}, {"type": "note_off", "time": 125, "note": 65, "velocity": 114, "channel": 0}, {"type": "note_on", "time": 12, "note": 62, "velocity": 100, "channel": 0}, {"type": "note_off", "time": 83, "note": 62, "velocity": 100, "channel": 0}, {"type": "note_on", "time": 83, "note": 66, "velocity": 112, "channel": 0}, {"type": "note_off", "time": 66, "note": 66, "velocity": 112, "channel": 0}, {"type": "note_on", "time": 17, "note": 67, "velocity": 109, "channel": 0}, {"type": "note_off", "time": 29, "note": 67, "velocity": 109, "channel": 0}, {"type": "note_on", "time": 12, "note": 66, "velocity": 101, "channel": 0}, {"type": "note_off", "time": 73, "note": 66, "velocity": 101, "channel": 0}, {"type": "note_on", "time": 8, "note": 63, "velocity": 96, "channel": 0}, {"type": "note_off", "time": 44, "note": 63, "velocity": 96, "channel": 0}, {"type": "note_on", "time": 17, "note": 69, "velocity": 119, "channel": 0}, {"type": "note_off", "time": 83, "note": 69, "velocity": 119, "channel": 0}, {"type": "note_on", "time": 34, "note": 69, "velocity": 114, "channel": 0}, {"type": "note_off", "time": 71, "note": 69, "velocity": 114, "channel": 0}, {"type": "note_on", "time": 7, "note": 68, "velocity": 109, "channel": 0}, {"type": "note_off", "time": 63, "note": 68, "velocity": 109, "channel": 0}, {"type": "note_on", "time": 61, "note": 69, "velocity": 105, "channel": 0}, {"type": "note_off", "time": 56, "note": 69, "velocity": 105, "channel": 0}, {"type": "note_on", "time": 19, "note": 70, "velocity": 90, "channel": 0}, {"type": "note_off", "time": 91, "note": 70, "velocity": 90, "channel": 0}, {"type": "note_on", "time": 19, "note": 65, "velocity": 108, "channel": 0}, {"type": "note_off", "time": 81, "note": 65, "velocity": 108, "channel": 0}, {"type": "note_on", "time": 344, "note": 62, "velocity": 118, "channel": 0}, {"type": "note_off", "time": 115, "note": 62, "velocity": 118, "channel": 0}, {"type": "note_on", "time": 7, "note": 63, "velocity": 112, "channel": 0}, {"type": "note_off", "time": 83, "note": 63, "velocity": 112, "channel": 0}, {"type": "note_on", "time": 0, "note": 64, "velocity": 115, "channel": 0}, {"type": "note_off", "time": 98, "note": 64, "velocity": 115, "channel": 0}, {"type": "note_on", "time": 14, "note": 62, "velocity": 119, "channel": 0}, {"type": "note_off", "time": 86, "note": 62, "velocity": 119, "channel": 0}, {"type": "note_on", "time": 22, "note": 61, "velocity": 105, "channel": 0}, {"type": "note_off", "time": 83, "note": 61, "velocity": 105, "channel": 0}, {"type": "note_on", "time": 9, "note": 58, "velocity": 106, "channel": 0}, {"type": "note_off", "time": 56, "note": 58, "velocity": 106, "channel": 0}, {"type": "note_on", "time": 4, "note": 55, "velocity": 106, "channel": 0}, {"type": "note_off", "time": 61, "note": 55, "velocity": 106, "channel": 0}, {"type": "note_on", "time": 17, "note": 56, "velocity": 93, "channel": 0}, {"type": "note_off", "time": 73, "note": 56, "velocity": 93, "channel": 0}, {"type": "note_on", "time": 31, "note": 57, "velocity": 101, "channel": 0}, {"type": "note_off", "time": 93, "note": 57, "velocity": 101, "channel": 0}, {"type": "note_on", "time": 19, "note": 52, "velocity": 96, "channel": 0}, {"type": "note_on", "time": 61, "note": 55, "velocity": 102, "channel": 0}, {"type": "note_off", "time": 0, "note": 52, "velocity": 96, "channel": 0}, {"type": "note_off", "time": 127, "note": 55, "velocity": 102, "channel": 0}, {"type": "note_on", "time": 24, "note": 52, "velocity": 93, "channel": 0}, {"type": "note_off", "time": 49, "note": 52, "velocity": 93, "channel": 0}, {"type": "note_on", "time": 12, "note": 53, "velocity": 108, "channel": 0}, {"type": "note_off", "time": 93, "note": 53, "velocity": 108, "channel": 0}, {"type": "note_on", "time": 9, "note": 57, "velocity": 98, "channel": 0}, {"type": "note_off", "time": 41, "note": 57, "velocity": 98, "channel": 0}, {"type": "note_on", "time": 34, "note": 61, "velocity": 99, "channel": 0}, {"type": "note_off", "time": 63, "note": 61, "velocity": 99, "channel": 0}, {"type": "note_on", "time": 24, "note": 62, "velocity": 97, "channel": 0}, {"type": "note_off", "time": 68, "note": 62, "velocity": 97, "channel": 0}, {"type": "note_on", "time": 14, "note": 64, "velocity": 100, "channel": 0}, {"type": "note_off", "time": 41, "note": 64, "velocity": 100, "channel": 0}, {"type": "note_on", "time": 12, "note": 65, "velocity": 113, "channel": 0}, {"type": "note_off", "time": 60, "note": 65, "velocity": 113, "channel": 0}, {"type": "note_on", "time": 34, "note": 61, "velocity": 103, "channel": 0}, {"type": "note_off", "time": 68, "note": 61, "velocity": 103, "channel": 0}, {"type": "note_on", "time": 7, "note": 62, "velocity": 112, "channel": 0}, {"type": "note_off", "time": 91, "note": 62, "velocity": 112, "channel": 0}, {"type": "note_on", "time": 9, "note": 64, "velocity": 115, "channel": 0}, {"type": "note_off", "time": 83, "note": 64, "velocity": 115, "channel": 0}, {"type": "note_on", "time": 12, "note": 61, "velocity": 103, "channel": 0}, {"type": "note_off", "time": 98, "note": 61, "velocity": 103, "channel": 0}, {"type": "note_on", "time": 16, "note": 56, "velocity": 107, "channel": 0}, {"type": "note_off", "time": 89, "note": 56, "velocity": 107, "channel": 0}, {"type": "note_on", "time": 16, "note": 53, "velocity": 107, "channel": 0}, {"type": "note_on", "time": 59, "note": 56, "velocity": 89, "channel": 0}, {"type": "note_off", "time": 0, "note": 53, "velocity": 107, "channel": 0}, {"type": "note_off", "time": 61, "note": 56, "velocity": 89, "channel": 0}, {"type": "note_on", "time": 17, "note": 60, "velocity": 103, "channel": 0}, {"type": "note_off", "time": 68, "note": 60, "velocity": 103, "channel": 0}, {"type": "note_on", "time": 41, "note": 57, "velocity": 99, "channel": 0}, {"type": "note_off", "time": 83, "note": 57, "velocity": 99, "channel": 0}, {"type": "note_on", "time": 9, "note": 53, "velocity": 105, "channel": 0}, {"type": "note_off", "time": 81, "note": 53, "velocity": 105, "channel": 0}, {"type": "note_on", "time": 0, "note": 50, "velocity": 96, "channel": 0}, {"type": "note_off", "time": 91, "note": 50, "velocity": 96, "channel": 0}, {"type": "note_on", "time": 12, "note": 59, "velocity": 109, "channel": 0}, {"type": "note_off", "time": 86, "note": 59, "velocity": 109, "channel": 0}, {"type": "note_on", "time": 9, "note": 57, "velocity": 102, "channel": 0}, {"type": "note_off", "time": 63, "note": 57, "velocity": 102, "channel": 0}, {"type": "note_on", "time": 7, "note": 54, "velocity": 109, "channel": 0}, {"type": "note_off", "time": 100, "note": 54, "velocity": 109, "channel": 0}, {"type": "note_on", "time": 861, "note": 67, "velocity": 113, "channel": 0}, {"type": "note_off", "time": 127, "note": 67, "velocity": 113, "channel": 0}, {"type": "note_on", "time": 46, "note": 72, "velocity": 114, "channel": 0}, {"type": "note_off", "time": 130, "note": 72, "velocity": 114, "channel": 0}, {"type": "note_on", "time": 7, "note": 71, "velocity": 116, "channel": 0}, {"type": "note_off", "time": 88, "note": 71, "velocity": 116, "channel": 0}, {"type": "note_on", "time": 9, "note": 67, "velocity": 107, "channel": 0}, {"type": "note_off", "time": 88, "note": 67, "velocity": 107, "channel": 0}, {"type": "note_on", "time": 88, "note": 70, "velocity": 114, "channel": 0}, {"type": "note_off", "time": 118, "note": 70, "velocity": 114, "channel": 0}, {"type": "note_on", "time": 7, "note": 67, "velocity": 99, "channel": 0}, {"type": "note_off", "time": 63, "note": 67, "velocity": 99, "channel": 0}, {"type": "note_on", "time": 0, "note": 69, "velocity": 106, "channel": 0}, {"type": "note_off", "time": 123, "note": 69, "velocity": 106, "channel": 0}, {"type": "note_on", "time": 14, "note": 68, "velocity": 110, "channel": 0}, {"type": "note_off", "time": 71, "note": 68, "velocity": 110, "channel": 0}, {"type": "note_on", "time": 14, "note": 67, "velocity": 108, "channel": 0}, {"type": "note_off", "time": 71, "note": 67, "velocity": 108, "channel": 0}, {"type": "note_on", "time": 9, "note": 66, "velocity": 111, "channel": 0}, {"type": "note_off", "time": 86, "note": 66, "velocity": 111, "channel": 0}, {"type": "note_on", "time": 24, "note": 65, "velocity": 108, "channel": 0}, {"type": "note_off", "time": 73, "note": 65, "velocity": 108, "channel": 0}, {"type": "note_on", "time": 29, "note": 62, "velocity": 106, "channel": 0}, {"type": "note_off", "time": 44, "note": 62, "velocity": 106, "channel": 0}, {"type": "note_on", "time": 29, "note": 64, "velocity": 117, "channel": 0}, {"type": "note_off", "time": 115, "note": 64, "velocity": 117, "channel": 0}, {"type": "note_on", "time": 219, "note": 64, "velocity": 117, "channel": 0}, {"type": "note_off", "time": 68, "note": 64, "velocity": 117, "channel": 0}, {"type": "note_on", "time": 2, "note": 61, "velocity": 102, "channel": 0}, {"type": "note_off", "time": 59, "note": 61, "velocity": 102, "channel": 0}, {"type": "note_on", "time": 12, "note": 56, "velocity": 89, "channel": 0}, {"type": "note_off", "time": 76, "note": 56, "velocity": 89, "channel": 0}, {"type": "note_on", "time": 2, "note": 58, "velocity": 92, "channel": 0}, {"type": "note_off", "time": 73, "note": 58, "velocity": 92, "channel": 0}, {"type": "note_on", "time": 22, "note": 60, "velocity": 100, "channel": 0}, {"type": "note_off", "time": 83, "note": 60, "velocity": 100, "channel": 0}, {"type": "note_on", "time": 41, "note": 62, "velocity": 114, "channel": 0}, {"type": "note_off", "time": 93, "note": 62, "velocity": 114, "channel": 0}, {"type": "note_on", "time": 17, "note": 58, "velocity": 106, "channel": 0}, {"type": "note_off", "time": 68, "note": 58, "velocity": 106, "channel": 0}, {"type": "note_on", "time": 7, "note": 55, "velocity": 107, "channel": 0}, {"type": "note_off", "time": 73, "note": 55, "velocity": 107, "channel": 0}, {"type": "note_on", "time": 130, "note": 53, "velocity": 112, "channel": 0}, {"type": "note_off", "time": 83, "note": 53, "velocity": 112, "channel": 0}, {"type": "note_on", "time": 21, "note": 51, "velocity": 95, "channel": 0}, {"type": "note_off", "time": 44, "note": 51, "velocity": 95, "channel": 0}, {"type": "note_on", "time": 9, "note": 52, "velocity": 97, "channel": 0}, {"type": "note_off", "time": 93, "note": 52, "velocity": 97, "channel": 0}, {"type": "note_on", "time": 33, "note": 61, "velocity": 113, "channel": 0}, {"type": "note_off", "time": 103, "note": 61, "velocity": 113, "channel": 0}, {"type": "note_on", "time": 1, "note": 58, "velocity": 91, "channel": 0}, {"type": "note_off", "time": 78, "note": 58, "velocity": 91, "channel": 0}, {"type": "note_on", "time": 23, "note": 59, "velocity": 105, "channel": 0}, {"type": "note_off", "time": 41, "note": 59, "velocity": 105, "channel": 0}, {"type": "note_on", "time": 7, "note": 60, "velocity": 112, "channel": 0}, {"type": "note_off", "time": 86, "note": 60, "velocity": 112, "channel": 0}, {"type": "note_on", "time": 110, "note": 60, "velocity": 111, "channel": 0}, {"type": "note_off", "time": 103, "note": 60, "velocity": 111, "channel": 0}, {"type": "note_on", "time": 91, "note": 65, "velocity": 114, "channel": 0}, {"type": "note_off", "time": 83, "note": 65, "velocity": 114, "channel": 0}, {"type": "note_on", "time": 132, "note": 65, "velocity": 109, "channel": 0}, {"type": "note_off", "time": 100, "note": 65, "velocity": 109, "channel": 0}, {"type": "note_on", "time": 83, "note": 68, "velocity": 105, "channel": 0}, {"type": "note_off", "time": 56, "note": 68, "velocity": 105, "channel": 0}, {"type": "note_on", "time": 8, "note": 69, "velocity": 111, "channel": 0}, {"type": "note_off", "time": 89, "note": 69, "velocity": 111, "channel": 0}, {"type": "note_on", "time": 12, "note": 70, "velocity": 115, "channel": 0}, {"type": "note_off", "time": 81, "note": 70, "velocity": 115, "channel": 0}, {"type": "note_on", "time": 27, "note": 69, "velocity": 112, "channel": 0}, {"type": "note_off", "time": 93, "note": 69, "velocity": 112, "channel": 0}, {"type": "note_on", "time": 17, "note": 67, "velocity": 99, "channel": 0}, {"type": "note_off", "time": 56, "note": 67, "velocity": 99, "channel": 0}, {"type": "note_on", "time": 24, "note": 65, "velocity": 88, "channel": 0}, {"type": "note_off", "time": 63, "note": 65, "velocity": 88, "channel": 0}, {"type": "note_on", "time": 19, "note": 67, "velocity": 107, "channel": 0}, {"type": "note_off", "time": 88, "note": 67, "velocity": 107, "channel": 0}, {"type": "note_on", "time": 14, "note": 64, "velocity": 109, "channel": 0}, {"type": "note_off", "time": 63, "note": 64, "velocity": 109, "channel": 0}, {"type": "note_on", "time": 22, "note": 65, "velocity": 114, "channel": 0}, {"type": "note_off", "time": 81, "note": 65, "velocity": 114, "channel": 0}, {"type": "note_on", "time": 34, "note": 67, "velocity": 109, "channel": 0}, {"type": "note_off", "time": 56, "note": 67, "velocity": 109, "channel": 0}, {"type": "note_on", "time": 19, "note": 68, "velocity": 116, "channel": 0}, {"type": "note_off", "time": 98, "note": 68, "velocity": 116, "channel": 0}, {"type": "note_on", "time": 14, "note": 65, "velocity": 106, "channel": 0}, {"type": "note_off", "time": 61, "note": 65, "velocity": 106, "channel": 0}, {"type": "note_on", "time": 22, "note": 67, "velocity": 112, "channel": 0}, {"type": "note_off", "time": 98, "note": 67, "velocity": 112, "channel": 0}, {"type": "note_on", "time": 2, "note": 65, "velocity": 108, "channel": 0}, {"type": "note_off", "time": 81, "note": 65, "velocity": 108, "channel": 0}, {"type": "note_on", "time": 12, "note": 60, "velocity": 102, "channel": 0}, {"type": "note_off", "time": 91, "note": 60, "velocity": 102, "channel": 0}, {"type": "note_on", "time": 18, "note": 58, "velocity": 86, "channel": 0}, {"type": "note_off", "time": 54, "note": 58, "velocity": 86, "channel": 0}, {"type": "note_on", "time": 0, "note": 63, "velocity": 123, "channel": 0}, {"type": "note_off", "time": 98, "note": 63, "velocity": 123, "channel": 0}, {"type": "note_on", "time": 23, "note": 60, "velocity": 92, "channel": 0}, {"type": "note_off", "time": 44, "note": 60, "velocity": 92, "channel": 0}, {"type": "note_on", "time": 16, "note": 62, "velocity": 109, "channel": 0}, {"type": "note_off", "time": 127, "note": 62, "velocity": 109, "channel": 0}, {"type": "note_on", "time": 462, "note": 55, "velocity": 108, "channel": 0}, {"type": "note_off", "time": 115, "note": 55, "velocity": 108, "channel": 0}, {"type": "note_on", "time": 31, "note": 60, "velocity": 118, "channel": 0}, {"type": "note_off", "time": 155, "note": 60, "velocity": 118, "channel": 0}, {"type": "note_on", "time": 7, "note": 63, "velocity": 127, "channel": 0}, {"type": "note_off", "time": 196, "note": 63, "velocity": 127, "channel": 0}, {"type": "note_on", "time": 17, "note": 64, "velocity": 119, "channel": 0}, {"type": "note_off", "time": 150, "note": 64, "velocity": 119, "channel": 0}, {"type": "note_on", "time": 12, "note": 55, "velocity": 102, "channel": 0}, {"type": "note_off", "time": 145, "note": 55, "velocity": 102, "channel": 0}, {"type": "note_on", "time": 14, "note": 57, "velocity": 100, "channel": 0}, {"type": "note_off", "time": 86, "note": 57, "velocity": 100, "channel": 0}, {"type": "note_on", "time": 12, "note": 60, "velocity": 101, "channel": 0}, {"type": "note_off", "time": 184, "note": 60, "velocity": 101, "channel": 0}, {"type": "note_on", "time": 9, "note": 63, "velocity": 114, "channel": 0}, {"type": "note_off", "time": 187, "note": 63, "velocity": 114, "channel": 0}, {"type": "note_on", "time": 17, "note": 64, "velocity": 88, "channel": 0}, {"type": "note_off", "time": 179, "note": 64, "velocity": 88, "channel": 0}, {"type": "note_on", "time": 206, "note": 55, "velocity": 113, "channel": 0}, {"type": "note_off", "time": 86, "note": 55, "velocity": 113, "channel": 0}, {"type": "note_on", "time": 22, "note": 57, "velocity": 105, "channel": 0}, {"type": "note_off", "time": 66, "note": 57, "velocity": 105, "channel": 0}, {"type": "note_on", "time": 0, "note": 60, "velocity": 100, "channel": 0}, {"type": "note_off", "time": 105, "note": 60, "velocity": 100, "channel": 0}, {"type": "note_on", "time": 9, "note": 63, "velocity": 114, "channel": 0}, {"type": "note_off", "time": 76, "note": 63, "velocity": 114, "channel": 0}, {"type": "note_on", "time": 24, "note": 64, "velocity": 115, "channel": 0}, {"type": "note_off", "time": 98, "note": 64, "velocity": 115, "channel": 0}, {"type": "note_on", "time": 14, "note": 60, "velocity": 104, "channel": 0}, {"type": "note_off", "time": 86, "note": 60, "velocity": 104, "channel": 0}, {"type": "note_on", "time": 0, "note": 67, "velocity": 107, "channel": 0}, {"type": "note_off", "time": 76, "note": 67, "velocity": 107, "channel": 0}, {"type": "note_on", "time": 29, "note": 67, "velocity": 116, "channel": 0}, {"type": "note_off", "time": 71, "note": 67, "velocity": 116, "channel": 0}, {"type": "note_on", "time": 27, "note": 67, "velocity": 99, "channel": 0}, {"type": "note_off", "time": 49, "note": 67, "velocity": 99, "channel": 0}, {"type": "note_on", "time": 7, "note": 64, "velocity": 90, "channel": 0}, {"type": "note_off", "time": 73, "note": 64, "velocity": 90, "channel": 0}, {"type": "note_on", "time": 9, "note": 61, "velocity": 91, "channel": 0}, {"type": "note_off", "time": 24, "note": 61, "velocity": 91, "channel": 0}, {"type": "note_on", "time": 12, "note": 63, "velocity": 115, "channel": 0}, {"type": "note_off", "time": 120, "note": 63, "velocity": 115, "channel": 0}, {"type": "note_on", "time": 241, "note": 55, "velocity": 99, "channel": 0}, {"type": "note_off", "time": 159, "note": 55, "velocity": 99, "channel": 0}, {"type": "note_on", "time": 12, "note": 57, "velocity": 101, "channel": 0}, {"type": "note_off", "time": 132, "note": 57, "velocity": 101, "channel": 0}, {"type": "note_on", "time": 9, "note": 55, "velocity": 92, "channel": 0}, {"type": "note_off", "time": 54, "note": 55, "velocity": 92, "channel": 0}, {"type": "note_on", "time": 0, "note": 60, "velocity": 102, "channel": 0}, {"type": "note_off", "time": 124, "note": 60, "velocity": 102, "channel": 0}, {"type": "note_on", "time": 0, "note": 58, "velocity": 98, "channel": 0}, {"type": "note_off", "time": 36, "note": 58, "velocity": 98, "channel": 0}, {"type": "note_on", "time": 13, "note": 63, "velocity": 123, "channel": 0}, {"type": "note_off", "time": 153, "note": 63, "velocity": 123, "channel": 0}, {"type": "note_on", "time": 0, "note": 60, "velocity": 94, "channel": 0}, {"type": "note_off", "time": 39, "note": 60, "velocity": 94, "channel": 0}, {"type": "note_on", "time": 13, "note": 64, "velocity": 117, "channel": 0}, {"type": "note_off", "time": 120, "note": 64, "velocity": 117, "channel": 0}, {"type": "note_on", "time": 9, "note": 60, "velocity": 109, "channel": 0}, {"type": "note_off", "time": 76, "note": 60, "velocity": 109, "channel": 0}, {"type": "note_on", "time": 14, "note": 55, "velocity": 104, "channel": 0}, {"type": "note_off", "time": 71, "note": 55, "velocity": 104, "channel": 0}, {"type": "note_on", "time": 12, "note": 53, "velocity": 100, "channel": 0}, {"type": "note_off", "time": 57, "note": 53, "velocity": 100, "channel": 0}, {"type": "note_on", "time": 29, "note": 58, "velocity": 105, "channel": 0}, {"type": "note_off", "time": 118, "note": 58, "velocity": 105, "channel": 0}, {"type": "note_on", "time": 14, "note": 55, "velocity": 95, "channel": 0}, {"type": "note_off", "time": 44, "note": 55, "velocity": 95, "channel": 0}, {"type": "note_on", "time": 9, "note": 58, "velocity": 103, "channel": 0}, {"type": "note_off", "time": 56, "note": 58, "velocity": 103, "channel": 0}, {"type": "note_on", "time": 17, "note": 58, "velocity": 104, "channel": 0}, {"type": "note_off", "time": 95, "note": 58, "velocity": 104, "channel": 0}, {"type": "note_on", "time": 17, "note": 55, "velocity": 102, "channel": 0}, {"type": "note_off", "time": 93, "note": 55, "velocity": 102, "channel": 0}, {"type": "note_on", "time": 19, "note": 58, "velocity": 102, "channel": 0}, {"type": "note_off", "time": 108, "note": 58, "velocity": 102, "channel": 0}, {"type": "note_on", "time": 7, "note": 55, "velocity": 102, "channel": 0}, {"type": "note_off", "time": 78, "note": 55, "velocity": 102, "channel": 0}, {"type": "note_on", "time": 0, "note": 53, "velocity": 105, "channel": 0}, {"type": "note_off", "time": 76, "note": 53, "velocity": 105, "channel": 0}, {"type": "note_on", "time": 29, "note": 52, "velocity": 98, "channel": 0}, {"type": "note_off", "time": 76, "note": 52, "velocity": 98, "channel": 0}, {"type": "note_on", "time": 20, "note": 53, "velocity": 96, "channel": 0}, {"type": "note_off", "time": 68, "note": 53, "velocity": 96, "channel": 0}, {"type": "note_on", "time": 23, "note": 58, "velocity": 103, "channel": 0}, {"type": "note_off", "time": 66, "note": 58, "velocity": 103, "channel": 0}, {"type": "note_on", "time": 14, "note": 62, "velocity": 104, "channel": 0}, {"type": "note_off", "time": 95, "note": 62, "velocity": 104, "channel": 0}, {"type": "note_on", "time": 2, "note": 59, "velocity": 106, "channel": 0}, {"type": "note_off", "time": 81, "note": 59, "velocity": 106, "channel": 0}, {"type": "note_on", "time": 0, "note": 60, "velocity": 105, "channel": 0}, {"type": "note_off", "time": 98, "note": 60, "velocity": 105, "channel": 0}, {"type": "note_on", "time": 7, "note": 64, "velocity": 99, "channel": 0}, {"type": "note_off", "time": 68, "note": 64, "velocity": 99, "channel": 0}, {"type": "note_on", "time": 19, "note": 67, "velocity": 83, "channel": 0}, {"type": "note_off", "time": 61, "note": 67, "velocity": 83, "channel": 0}, {"type": "note_on", "time": 2, "note": 71, "velocity": 112, "channel": 0}, {"type": "note_off", "time": 108, "note": 71, "velocity": 112, "channel": 0}, {"type": "note_on", "time": 29, "note": 67, "velocity": 97, "channel": 0}, {"type": "note_off", "time": 78, "note": 67, "velocity": 97, "channel": 0}, {"type": "note_on", "time": 310, "note": 70, "velocity": 115, "channel": 0}, {"type": "note_off", "time": 100, "note": 70, "velocity": 115, "channel": 0}, {"type": "note_on", "time": 56, "note": 67, "velocity": 106, "channel": 0}, {"type": "note_off", "time": 100, "note": 67, "velocity": 106, "channel": 0}, {"type": "note_on", "time": 103, "note": 70, "velocity": 112, "channel": 0}, {"type": "note_off", "time": 110, "note": 70, "velocity": 112, "channel": 0}, {"type": "note_on", "time": 76, "note": 67, "velocity": 100, "channel": 0}, {"type": "note_off", "time": 91, "note": 67, "velocity": 100, "channel": 0}, {"type": "note_on", "time": 7, "note": 70, "velocity": 111, "channel": 0}, {"type": "note_off", "time": 123, "note": 70, "velocity": 111, "channel": 0}, {"type": "note_on", "time": 22, "note": 67, "velocity": 92, "channel": 0}, {"type": "note_off", "time": 83, "note": 67, "velocity": 92, "channel": 0}, {"type": "note_on", "time": 460, "note": 67, "velocity": 114, "channel": 0}, {"type": "note_off", "time": 103, "note": 67, "velocity": 114, "channel": 0}, {"type": "note_on", "time": 27, "note": 69, "velocity": 118, "channel": 0}, {"type": "note_off", "time": 100, "note": 69, "velocity": 118, "channel": 0}, {"type": "note_on", "time": 56, "note": 69, "velocity": 123, "channel": 0}, {"type": "note_off", "time": 76, "note": 69, "velocity": 123, "channel": 0}, {"type": "note_on", "time": 9, "note": 70, "velocity": 114, "channel": 0}, {"type": "note_off", "time": 91, "note": 70, "velocity": 114, "channel": 0}, {"type": "note_on", "time": 41, "note": 70, "velocity": 114, "channel": 0}, {"type": "note_off", "time": 115, "note": 70, "velocity": 114, "channel": 0}, {"type": "note_on", "time": 34, "note": 68, "velocity": 117, "channel": 0}, {"type": "note_off", "time": 118, "note": 68, "velocity": 117, "channel": 0}, {"type": "note_on", "time": 0, "note": 67, "velocity": 107, "channel": 0}, {"type": "note_off", "time": 83, "note": 67, "velocity": 107, "channel": 0}, {"type": "note_on", "time": 78, "note": 64, "velocity": 114, "channel": 0}, {"type": "note_off", "time": 71, "note": 64, "velocity": 114, "channel": 0}, {"type": "note_on", "time": 39, "note": 65, "velocity": 111, "channel": 0}, {"type": "note_off", "time": 127, "note": 65, "velocity": 111, "channel": 0}, {"type": "note_on", "time": 31, "note": 63, "velocity": 117, "channel": 0}, {"type": "note_off", "time": 113, "note": 63, "velocity": 117, "channel": 0}, {"type": "note_on", "time": 12, "note": 64, "velocity": 115, "channel": 0}, {"type": "note_off", "time": 113, "note": 64, "velocity": 115, "channel": 0}, {"type": "note_on", "time": 44, "note": 62, "velocity": 113, "channel": 0}, {"type": "note_off", "time": 113, "note": 62, "velocity": 113, "channel": 0}, {"type": "note_on", "time": 4, "note": 61, "velocity": 104, "channel": 0}, {"type": "note_off", "time": 113, "note": 61, "velocity": 104, "channel": 0}, {"type": "note_on", "time": 83, "note": 58, "velocity": 99, "channel": 0}, {"type": "note_off", "time": 127, "note": 58, "velocity": 99, "channel": 0}, {"type": "note_on", "time": 4, "note": 57, "velocity": 94, "channel": 0}, {"type": "note_off", "time": 135, "note": 57, "velocity": 94, "channel": 0}, {"type": "note_on", "time": 14, "note": 57, "velocity": 102, "channel": 0}, {"type": "note_off", "time": 61, "note": 57, "velocity": 102, "channel": 0}, {"type": "note_on", "time": 24, "note": 50, "velocity": 101, "channel": 0}, {"type": "note_off", "time": 110, "note": 50, "velocity": 101, "channel": 0}, {"type": "note_on", "time": 0, "note": 53, "velocity": 104, "channel": 0}, {"type": "note_off", "time": 91, "note": 53, "velocity": 104, "channel": 0}, {"type": "note_on", "time": 7, "note": 55, "velocity": 107, "channel": 0}, {"type": "note_off", "time": 56, "note": 55, "velocity": 107, "channel": 0}, {"type": "note_on", "time": 24, "note": 57, "velocity": 98, "channel": 0}, {"type": "note_on", "time": 86, "note": 61, "velocity": 109, "channel": 0}, {"type": "note_off", "time": 0, "note": 57, "velocity": 98, "channel": 0}, {"type": "note_off", "time": 93, "note": 61, "velocity": 109, "channel": 0}, {"type": "note_on", "time": 0, "note": 64, "velocity": 120, "channel": 0}, {"type": "note_off", "time": 125, "note": 64, "velocity": 120, "channel": 0}, {"type": "note_on", "time": 14, "note": 65, "velocity": 114, "channel": 0}, {"type": "note_off", "time": 49, "note": 65, "velocity": 114, "channel": 0}, {"type": "note_on", "time": 0, "note": 66, "velocity": 105, "channel": 0}, {"type": "note_off", "time": 54, "note": 66, "velocity": 105, "channel": 0}, {"type": "note_on", "time": 7, "note": 67, "velocity": 113, "channel": 0}, {"type": "note_off", "time": 127, "note": 67, "velocity": 113, "channel": 0}, {"type": "note_on", "time": 29, "note": 64, "velocity": 107, "channel": 0}, {"type": "note_off", "time": 93, "note": 64, "velocity": 107, "channel": 0}, {"type": "note_on", "time": 27, "note": 65, "velocity": 108, "channel": 0}, {"type": "note_off", "time": 132, "note": 65, "velocity": 108, "channel": 0}, {"type": "note_on", "time": 19, "note": 57, "velocity": 95, "channel": 0}, {"type": "note_off", "time": 32, "note": 57, "velocity": 95, "channel": 0}, {"type": "note_on", "time": 12, "note": 59, "velocity": 92, "channel": 0}, {"type": "note_off", "time": 32, "note": 59, "velocity": 92, "channel": 0}, {"type": "note_on", "time": 10, "note": 64, "velocity": 102, "channel": 0}, {"type": "note_off", "time": 260, "note": 64, "velocity": 102, "channel": 0}, {"type": "note_on", "time": 1330, "note": 64, "velocity": 120, "channel": 0}, {"type": "note_off", "time": 121, "note": 64, "velocity": 120, "channel": 0}, {"type": "note_on", "time": 13, "note": 66, "velocity": 112, "channel": 0}, {"type": "note_off", "time": 86, "note": 66, "velocity": 112, "channel": 0}, {"type": "note_on", "time": 10, "note": 67, "velocity": 112, "channel": 0}, {"type": "note_off", "time": 128, "note": 67, "velocity": 112, "channel": 0}, {"type": "note_on", "time": 38, "note": 64, "velocity": 118, "channel": 0}, {"type": "note_off", "time": 86, "note": 64, "velocity": 118, "channel": 0}, {"type": "note_on", "time": 0, "note": 65, "velocity": 115, "channel": 0}, {"type": "note_off", "time": 69, "note": 65, "velocity": 115, "channel": 0}, {"type": "note_on", "time": 17, "note": 66, "velocity": 110, "channel": 0}, {"type": "note_off", "time": 60, "note": 66, "velocity": 110, "channel": 0}, {"type": "note_on", "time": 1, "note": 67, "velocity": 119, "channel": 0}, {"type": "note_off", "time": 84, "note": 67, "velocity": 119, "channel": 0}, {"type": "note_on", "time": 25, "note": 64, "velocity": 119, "channel": 0}, {"type": "note_off", "time": 57, "note": 64, "velocity": 119, "channel": 0}, {"type": "note_on", "time": 6, "note": 65, "velocity": 110, "channel": 0}, {"type": "note_off", "time": 48, "note": 65, "velocity": 110, "channel": 0}, {"type": "note_on", "time": 10, "note": 66, "velocity": 113, "channel": 0}, {"type": "note_off", "time": 53, "note": 66, "velocity": 113, "channel": 0}, {"type": "note_on", "time": 8, "note": 67, "velocity": 117, "channel": 0}, {"type": "note_off", "time": 53, "note": 67, "velocity": 117, "channel": 0}, {"type": "note_on", "time": 17, "note": 64, "velocity": 38, "channel": 0}, {"type": "note_off", "time": 79, "note": 64, "velocity": 38, "channel": 0}, {"type": "note_on", "time": 0, "note": 65, "velocity": 108, "channel": 0}, {"type": "note_on", "time": 64, "note": 66, "velocity": 109, "channel": 0}, {"type": "note_off", "time": 0, "note": 65, "velocity": 108, "channel": 0}, {"type": "note_off", "time": 51, "note": 66, "velocity": 109, "channel": 0}, {"type": "note_on", "time": 10, "note": 67, "velocity": 112, "channel": 0}, {"type": "note_off", "time": 58, "note": 67, "velocity": 112, "channel": 0}, {"type": "note_on", "time": 17, "note": 64, "velocity": 117, "channel": 0}, {"type": "note_off", "time": 70, "note": 64, "velocity": 117, "channel": 0}, {"type": "note_on", "time": 5, "note": 65, "velocity": 107, "channel": 0}, {"type": "note_on", "time": 60, "note": 66, "velocity": 106, "channel": 0}, {"type": "note_off", "time": 0, "note": 65, "velocity": 107, "channel": 0}, {"type": "note_off", "time": 70, "note": 66, "velocity": 106, "channel": 0}, {"type": "note_on", "time": 6, "note": 67, "velocity": 105, "channel": 0}, {"type": "note_off", "time": 72, "note": 67, "velocity": 105, "channel": 0}, {"type": "note_on", "time": 5, "note": 63, "velocity": 110, "channel": 0}, {"type": "note_off", "time": 86, "note": 63, "velocity": 110, "channel": 0}, {"type": "note_on", "time": 0, "note": 64, "velocity": 111, "channel": 0}, {"type": "note_off", "time": 65, "note": 64, "velocity": 111, "channel": 0}, {"type": "note_on", "time": 0, "note": 66, "velocity": 107, "channel": 0}, {"type": "note_off", "time": 110, "note": 66, "velocity": 107, "channel": 0}, {"type": "note_on", "time": 38, "note": 63, "velocity": 118, "channel": 0}, {"type": "note_off", "time": 55, "note": 63, "velocity": 118, "channel": 0}, {"type": "note_on", "time": 17, "note": 64, "velocity": 112, "channel": 0}, {"type": "note_off", "time": 72, "note": 64, "velocity": 112, "channel": 0}, {"type": "note_on", "time": 0, "note": 66, "velocity": 106, "channel": 0}, {"type": "note_off", "time": 114, "note": 66, "velocity": 106, "channel": 0}, {"type": "note_on", "time": 27, "note": 63, "velocity": 119, "channel": 0}, {"type": "note_off", "time": 65, "note": 63, "velocity": 119, "channel": 0}, {"type": "note_on", "time": 6, "note": 64, "velocity": 109, "channel": 0}, {"type": "note_off", "time": 62, "note": 64, "velocity": 109, "channel": 0}, {"type": "note_on", "time": 10, "note": 66, "velocity": 103, "channel": 0}, {"type": "note_off", "time": 93, "note": 66, "velocity": 103, "channel": 0}, {"type": "note_on", "time": 50, "note": 63, "velocity": 111, "channel": 0}, {"type": "note_off", "time": 81, "note": 63, "velocity": 111, "channel": 0}, {"type": "note_on", "time": 0, "note": 64, "velocity": 106, "channel": 0}, {"type": "note_off", "time": 71, "note": 64, "velocity": 106, "channel": 0}, {"type": "note_on", "time": 7, "note": 67, "velocity": 102, "channel": 0}, {"type": "note_off", "time": 71, "note": 67, "velocity": 102, "channel": 0}, {"type": "note_on", "time": 14, "note": 65, "velocity": 119, "channel": 0}, {"type": "note_off", "time": 115, "note": 65, "velocity": 119, "channel": 0}, {"type": "note_on", "time": 7, "note": 62, "velocity": 105, "channel": 0}, {"type": "note_off", "time": 86, "note": 62, "velocity": 105, "channel": 0}, {"type": "note_on", "time": 566, "note": 65, "velocity": 116, "channel": 0}, {"type": "note_off", "time": 127, "note": 65, "velocity": 116, "channel": 0}, {"type": "note_on", "time": 12, "note": 62, "velocity": 110, "channel": 0}, {"type": "note_off", "time": 78, "note": 62, "velocity": 110, "channel": 0}, {"type": "note_on", "time": 93, "note": 62, "velocity": 97, "channel": 0}, {"type": "note_off", "time": 78, "note": 62, "velocity": 97, "channel": 0}, {"type": "note_on", "time": 17, "note": 64, "velocity": 115, "channel": 0}, {"type": "note_off", "time": 137, "note": 64, "velocity": 115, "channel": 0}, {"type": "note_on", "time": 9, "note": 62, "velocity": 106, "channel": 0}, {"type": "note_off", "time": 34, "note": 62, "velocity": 106, "channel": 0}, {"type": "note_on", "time": 14, "note": 64, "velocity": 116, "channel": 0}, {"type": "note_off", "time": 103, "note": 64, "velocity": 116, "channel": 0}, {"type": "note_on", "time": 19, "note": 62, "velocity": 111, "channel": 0}, {"type": "note_off", "time": 49, "note": 62, "velocity": 111, "channel": 0}, {"type": "note_on", "time": 4, "note": 65, "velocity": 116, "channel": 0}, {"type": "note_off", "time": 110, "note": 65, "velocity": 116, "channel": 0}, {"type": "note_on", "time": 12, "note": 62, "velocity": 108, "channel": 0}, {"type": "note_off", "time": 86, "note": 62, "velocity": 108, "channel": 0}, {"type": "note_on", "time": 7, "note": 57, "velocity": 99, "channel": 0}, {"type": "note_off", "time": 78, "note": 57, "velocity": 99, "channel": 0}, {"type": "note_on", "time": 105, "note": 59, "velocity": 95, "channel": 0}, {"type": "note_off", "time": 233, "note": 59, "velocity": 95, "channel": 0}, {"type": "note_on", "time": 635, "note": 67, "velocity": 116, "channel": 0}, {"type": "note_off", "time": 91, "note": 67, "velocity": 116, "channel": 0}, {"type": "note_on", "time": 100, "note": 67, "velocity": 112, "channel": 0}, {"type": "note_off", "time": 88, "note": 67, "velocity": 112, "channel": 0}, {"type": "note_on", "time": 98, "note": 67, "velocity": 109, "channel": 0}, {"type": "note_off", "time": 93, "note": 67, "velocity": 109, "channel": 0}, {"type": "note_on", "time": 182, "note": 67, "velocity": 111, "channel": 0}, {"type": "note_off", "time": 81, "note": 67, "velocity": 111, "channel": 0}, {"type": "note_on", "time": 103, "note": 67, "velocity": 112, "channel": 0}, {"type": "note_off", "time": 91, "note": 67, "velocity": 112, "channel": 0}, {"type": "note_on", "time": 118, "note": 67, "velocity": 116, "channel": 0}, {"type": "note_off", "time": 98, "note": 67, "velocity": 116, "channel": 0}, {"type": "note_on", "time": 164, "note": 69, "velocity": 114, "channel": 0}, {"type": "note_off", "time": 100, "note": 69, "velocity": 114, "channel": 0}, {"type": "note_on", "time": 93, "note": 67, "velocity": 106, "channel": 0}, {"type": "note_off", "time": 141, "note": 67, "velocity": 106, "channel": 0}, {"type": "note_on", "time": 57, "note": 67, "velocity": 103, "channel": 0}, {"type": "note_off", "time": 150, "note": 67, "velocity": 103, "channel": 0}, {"type": "note_on", "time": 50, "note": 67, "velocity": 111, "channel": 0}, {"type": "note_off", "time": 134, "note": 67, "velocity": 111, "channel": 0}, {"type": "note_on", "time": 139, "note": 67, "velocity": 115, "channel": 0}, {"type": "note_off", "time": 100, "note": 67, "velocity": 115, "channel": 0}, {"type": "note_on", "time": 73, "note": 67, "velocity": 115, "channel": 0}, {"type": "note_off", "time": 100, "note": 67, "velocity": 115, "channel": 0}, {"type": "note_on", "time": 71, "note": 67, "velocity": 112, "channel": 0}, {"type": "note_off", "time": 105, "note": 67, "velocity": 112, "channel": 0}, {"type": "note_on", "time": 91, "note": 67, "velocity": 110, "channel": 0}, {"type": "note_off", "time": 93, "note": 67, "velocity": 110, "channel": 0}, {"type": "note_on", "time": 93, "note": 67, "velocity": 110, "channel": 0}, {"type": "note_off", "time": 93, "note": 67, "velocity": 110, "channel": 0}, {"type": "note_on", "time": 285, "note": 69, "velocity": 115, "channel": 0}, {"type": "note_off", "time": 88, "note": 69, "velocity": 115, "channel": 0}, {"type": "note_on", "time": 122, "note": 69, "velocity": 115, "channel": 0}, {"type": "note_off", "time": 93, "note": 69, "velocity": 115, "channel": 0}, {"type": "note_on", "time": 79, "note": 69, "velocity": 117, "channel": 0}, {"type": "note_off", "time": 110, "note": 69, "velocity": 117, "channel": 0}, {"type": "note_on", "time": 98, "note": 69, "velocity": 110, "channel": 0}, {"type": "note_off", "time": 110, "note": 69, "velocity": 110, "channel": 0}, {"type": "note_on", "time": 86, "note": 69, "velocity": 112, "channel": 0}, {"type": "note_off", "time": 66, "note": 69, "velocity": 112, "channel": 0}, {"type": "note_on", "time": 0, "note": 70, "velocity": 115, "channel": 0}, {"type": "note_off", "time": 135, "note": 70, "velocity": 115, "channel": 0}, {"type": "note_on", "time": 31, "note": 69, "velocity": 103, "channel": 0}, {"type": "note_off", "time": 78, "note": 69, "velocity": 103, "channel": 0}, {"type": "note_on", "time": 63, "note": 69, "velocity": 112, "channel": 0}, {"type": "note_off", "time": 194, "note": 69, "velocity": 112, "channel": 0}, {"type": "note_on", "time": 2, "note": 68, "velocity": 109, "channel": 0}, {"type": "note_off", "time": 78, "note": 68, "velocity": 109, "channel": 0}, {"type": "note_on", "time": 147, "note": 68, "velocity": 107, "channel": 0}, {"type": "note_off", "time": 162, "note": 68, "velocity": 107, "channel": 0}, {"type": "note_on", "time": 17, "note": 67, "velocity": 109, "channel": 0}, {"type": "note_off", "time": 73, "note": 67, "velocity": 109, "channel": 0}, {"type": "note_on", "time": 108, "note": 67, "velocity": 109, "channel": 0}, {"type": "note_off", "time": 199, "note": 67, "velocity": 109, "channel": 0}, {"type": "note_on", "time": 0, "note": 66, "velocity": 110, "channel": 0}, {"type": "note_off", "time": 56, "note": 66, "velocity": 110, "channel": 0}, {"type": "note_on", "time": 123, "note": 66, "velocity": 110, "channel": 0}, {"type": "note_off", "time": 209, "note": 66, "velocity": 110, "channel": 0}, {"type": "note_on", "time": 2, "note": 61, "velocity": 110, "channel": 0}, {"type": "note_off", "time": 105, "note": 61, "velocity": 110, "channel": 0}, {"type": "note_on", "time": 73, "note": 61, "velocity": 111, "channel": 0}, {"type": "note_off", "time": 204, "note": 61, "velocity": 111, "channel": 0}, {"type": "note_on", "time": 48, "note": 57, "velocity": 87, "channel": 0}, {"type": "note_off", "time": 87, "note": 57, "velocity": 87, "channel": 0}, {"type": "note_on", "time": 78, "note": 64, "velocity": 107, "channel": 0}, {"type": "note_off", "time": 103, "note": 64, "velocity": 107, "channel": 0}, {"type": "note_on", "time": 588, "note": 64, "velocity": 112, "channel": 0}, {"type": "note_off", "time": 283, "note": 64, "velocity": 112, "channel": 0}, {"type": "note_on", "time": 12, "note": 63, "velocity": 121, "channel": 0}, {"type": "note_off", "time": 81, "note": 63, "velocity": 121, "channel": 0}, {"type": "note_on", "time": 12, "note": 64, "velocity": 112, "channel": 0}, {"type": "note_off", "time": 76, "note": 64, "velocity": 112, "channel": 0}, {"type": "note_on", "time": 19, "note": 55, "velocity": 97, "channel": 0}, {"type": "note_off", "time": 68, "note": 55, "velocity": 97, "channel": 0}, {"type": "note_on", "time": 0, "note": 57, "velocity": 100, "channel": 0}, {"type": "note_off", "time": 76, "note": 57, "velocity": 100, "channel": 0}, {"type": "note_on", "time": 2, "note": 60, "velocity": 106, "channel": 0}, {"type": "note_off", "time": 105, "note": 60, "velocity": 106, "channel": 0}, {"type": "note_on", "time": 12, "note": 59, "velocity": 95, "channel": 0}, {"type": "note_off", "time": 61, "note": 59, "velocity": 95, "channel": 0}, {"type": "note_on", "time": 9, "note": 63, "velocity": 120, "channel": 0}, {"type": "note_off", "time": 123, "note": 63, "velocity": 120, "channel": 0}, {"type": "note_on", "time": 91, "note": 64, "velocity": 114, "channel": 0}, {"type": "note_off", "time": 123, "note": 64, "velocity": 114, "channel": 0}, {"type": "note_on", "time": 376, "note": 64, "velocity": 113, "channel": 0}, {"type": "note_off", "time": 241, "note": 64, "velocity": 113, "channel": 0}, {"type": "note_on", "time": 27, "note": 63, "velocity": 121, "channel": 0}, {"type": "note_off", "time": 78, "note": 63, "velocity": 121, "channel": 0}, {"type": "note_on", "time": 19, "note": 64, "velocity": 110, "channel": 0}, {"type": "note_on", "time": 110, "note": 55, "velocity": 99, "channel": 0}, {"type": "note_off", "time": 0, "note": 64, "velocity": 110, "channel": 0}, {"type": "note_off", "time": 46, "note": 55, "velocity": 99, "channel": 0}, {"type": "note_on", "time": 22, "note": 57, "velocity": 96, "channel": 0}, {"type": "note_off", "time": 76, "note": 57, "velocity": 96, "channel": 0}, {"type": "note_on", "time": 14, "note": 60, "velocity": 106, "channel": 0}, {"type": "note_off", "time": 135, "note": 60, "velocity": 106, "channel": 0}, {"type": "note_on", "time": 2, "note": 57, "velocity": 93, "channel": 0}, {"type": "note_off", "time": 34, "note": 57, "velocity": 93, "channel": 0}, {"type": "note_on", "time": 27, "note": 63, "velocity": 118, "channel": 0}, {"type": "note_off", "time": 115, "note": 63, "velocity": 118, "channel": 0}, {"type": "note_on", "time": 93, "note": 64, "velocity": 114, "channel": 0}, {"type": "note_off", "time": 91, "note": 64, "velocity": 114, "channel": 0}, {"type": "note_on", "time": 396, "note": 64, "velocity": 106, "channel": 0}, {"type": "note_off", "time": 295, "note": 64, "velocity": 106, "channel": 0}, {"type": "note_on", "time": 22, "note": 65, "velocity": 111, "channel": 0}, {"type": "note_off", "time": 86, "note": 65, "velocity": 111, "channel": 0}, {"type": "note_on", "time": 9, "note": 63, "velocity": 109, "channel": 0}, {"type": "note_off", "time": 41, "note": 63, "velocity": 109, "channel": 0}, {"type": "note_on", "time": 9, "note": 64, "velocity": 112, "channel": 0}, {"type": "note_off", "time": 118, "note": 64, "velocity": 112, "channel": 0}, {"type": "note_on", "time": 14, "note": 60, "velocity": 110, "channel": 0}, {"type": "note_off", "time": 68, "note": 60, "velocity": 110, "channel": 0}, {"type": "note_on", "time": 4, "note": 55, "velocity": 104, "channel": 0}, {"type": "note_off", "time": 81, "note": 55, "velocity": 104, "channel": 0}, {"type": "note_on", "time": 31, "note": 53, "velocity": 91, "channel": 0}, {"type": "note_off", "time": 51, "note": 53, "velocity": 91, "channel": 0}, {"type": "note_on", "time": 14, "note": 58, "velocity": 100, "channel": 0}, {"type": "note_off", "time": 34, "note": 58, "velocity": 100, "channel": 0}, {"type": "note_on", "time": 17, "note": 59, "velocity": 101, "channel": 0}, {"type": "note_off", "time": 123, "note": 59, "velocity": 101, "channel": 0}, {"type": "note_on", "time": 19, "note": 60, "velocity": 111, "channel": 0}, {"type": "note_off", "time": 115, "note": 60, "velocity": 111, "channel": 0}, {"type": "note_on", "time": 54, "note": 59, "velocity": 108, "channel": 0}, {"type": "note_off", "time": 169, "note": 59, "velocity": 108, "channel": 0}, {"type": "note_on", "time": 14, "note": 60, "velocity": 113, "channel": 0}, {"type": "note_off", "time": 115, "note": 60, "velocity": 113, "channel": 0}, {"type": "note_on", "time": 115, "note": 59, "velocity": 102, "channel": 0}, {"type": "note_off", "time": 142, "note": 59, "velocity": 102, "channel": 0}, {"type": "note_on", "time": 27, "note": 60, "velocity": 107, "channel": 0}, {"type": "note_off", "time": 105, "note": 60, "velocity": 107, "channel": 0}, {"type": "note_on", "time": 214, "note": 64, "velocity": 113, "channel": 0}, {"type": "note_off", "time": 39, "note": 64, "velocity": 113, "channel": 0}, {"type": "note_on", "time": 4, "note": 67, "velocity": 102, "channel": 0}, {"type": "note_off", "time": 44, "note": 67, "velocity": 102, "channel": 0}, {"type": "note_on", "time": 103, "note": 67, "velocity": 109, "channel": 0}, {"type": "note_off", "time": 270, "note": 67, "velocity": 109, "channel": 0}, {"type": "note_on", "time": 19, "note": 65, "velocity": 116, "channel": 0}, {"type": "note_off", "time": 108, "note": 65, "velocity": 116, "channel": 0}, {"type": "note_on", "time": 9, "note": 67, "velocity": 102, "channel": 0}, {"type": "note_off", "time": 59, "note": 67, "velocity": 102, "channel": 0}, {"type": "note_on", "time": 22, "note": 63, "velocity": 123, "channel": 0}, {"type": "note_off", "time": 113, "note": 63, "velocity": 123, "channel": 0}, {"type": "note_on", "time": 22, "note": 60, "velocity": 110, "channel": 0}, {"type": "note_off", "time": 68, "note": 60, "velocity": 110, "channel": 0}, {"type": "note_on", "time": 29, "note": 55, "velocity": 92, "channel": 0}, {"type": "note_off", "time": 66, "note": 55, "velocity": 92, "channel": 0}, {"type": "note_on", "time": 0, "note": 54, "velocity": 86, "channel": 0}, {"type": "note_off", "time": 56, "note": 54, "velocity": 86, "channel": 0}, {"type": "note_on", "time": 17, "note": 60, "velocity": 112, "channel": 0}, {"type": "note_off", "time": 98, "note": 60, "velocity": 112, "channel": 0}, {"type": "note_on", "time": 196, "note": 55, "velocity": 98, "channel": 0}, {"type": "note_off", "time": 83, "note": 55, "velocity": 98, "channel": 0}, {"type": "note_on", "time": 132, "note": 67, "velocity": 117, "channel": 0}, {"type": "note_off", "time": 88, "note": 67, "velocity": 117, "channel": 0}, {"type": "note_on", "time": 115, "note": 67, "velocity": 109, "channel": 0}, {"type": "note_off", "time": 238, "note": 67, "velocity": 109, "channel": 0}, {"type": "note_on", "time": 4, "note": 65, "velocity": 112, "channel": 0}, {"type": "note_off", "time": 118, "note": 65, "velocity": 112, "channel": 0}, {"type": "note_on", "time": 2, "note": 67, "velocity": 112, "channel": 0}, {"type": "note_off", "time": 86, "note": 67, "velocity": 112, "channel": 0}, {"type": "note_on", "time": 14, "note": 63, "velocity": 123, "channel": 0}, {"type": "note_off", "time": 98, "note": 63, "velocity": 123, "channel": 0}, {"type": "note_on", "time": 17, "note": 60, "velocity": 107, "channel": 0}, {"type": "note_off", "time": 54, "note": 60, "velocity": 107, "channel": 0}, {"type": "note_on", "time": 27, "note": 55, "velocity": 91, "channel": 0}, {"type": "note_off", "time": 81, "note": 55, "velocity": 91, "channel": 0}, {"type": "note_on", "time": 65, "note": 60, "velocity": 107, "channel": 0}, {"type": "note_off", "time": 167, "note": 60, "velocity": 107, "channel": 0}, {"type": "note_on", "time": 10, "note": 62, "velocity": 116, "channel": 0}, {"type": "note_off", "time": 105, "note": 62, "velocity": 116, "channel": 0}, {"type": "note_on", "time": 39, "note": 63, "velocity": 112, "channel": 0}, {"type": "note_off", "time": 196, "note": 63, "velocity": 112, "channel": 0}, {"type": "note_on", "time": 265, "note": 63, "velocity": 126, "channel": 0}, {"type": "note_off", "time": 95, "note": 63, "velocity": 126, "channel": 0}, {"type": "note_on", "time": 7, "note": 64, "velocity": 111, "channel": 0}, {"type": "note_on", "time": 91, "note": 65, "velocity": 121, "channel": 0}, {"type": "note_off", "time": 0, "note": 64, "velocity": 111, "channel": 0}, {"type": "note_off", "time": 115, "note": 65, "velocity": 121, "channel": 0}, {"type": "note_on", "time": 0, "note": 64, "velocity": 97, "channel": 0}, {"type": "note_off", "time": 61, "note": 64, "velocity": 97, "channel": 0}, {"type": "note_on", "time": 0, "note": 67, "velocity": 109, "channel": 0}, {"type": "note_off", "time": 105, "note": 67, "velocity": 109, "channel": 0}, {"type": "note_on", "time": 238, "note": 65, "velocity": 112, "channel": 0}, {"type": "note_off", "time": 118, "note": 65, "velocity": 112, "channel": 0}, {"type": "note_on", "time": 8, "note": 67, "velocity": 104, "channel": 0}, {"type": "note_off", "time": 38, "note": 67, "velocity": 104, "channel": 0}, {"type": "note_on", "time": 8, "note": 65, "velocity": 100, "channel": 0}, {"type": "note_off", "time": 65, "note": 65, "velocity": 100, "channel": 0}, {"type": "note_on", "time": 145, "note": 64, "velocity": 111, "channel": 0}, {"type": "note_off", "time": 113, "note": 64, "velocity": 111, "channel": 0}, {"type": "note_on", "time": 270, "note": 64, "velocity": 118, "channel": 0}, {"type": "note_off", "time": 118, "note": 64, "velocity": 118, "channel": 0}, {"type": "note_on", "time": 29, "note": 64, "velocity": 116, "channel": 0}, {"type": "note_off", "time": 88, "note": 64, "velocity": 116, "channel": 0}, {"type": "note_on", "time": 24, "note": 63, "velocity": 112, "channel": 0}, {"type": "note_off", "time": 63, "note": 63, "velocity": 112, "channel": 0}, {"type": "note_on", "time": 28, "note": 64, "velocity": 105, "channel": 0}, {"type": "note_off", "time": 86, "note": 64, "velocity": 105, "channel": 0}, {"type": "note_on", "time": 13, "note": 67, "velocity": 110, "channel": 0}, {"type": "note_off", "time": 96, "note": 67, "velocity": 110, "channel": 0}, {"type": "note_on", "time": 10, "note": 64, "velocity": 108, "channel": 0}, {"type": "note_off", "time": 107, "note": 64, "velocity": 108, "channel": 0}, {"type": "note_on", "time": 31, "note": 65, "velocity": 112, "channel": 0}, {"type": "note_off", "time": 89, "note": 65, "velocity": 112, "channel": 0}, {"type": "note_on", "time": 17, "note": 62, "velocity": 114, "channel": 0}, {"type": "note_off", "time": 86, "note": 62, "velocity": 114, "channel": 0}, {"type": "note_on", "time": 24, "note": 63, "velocity": 101, "channel": 0}, {"type": "note_off", "time": 86, "note": 63, "velocity": 101, "channel": 0}, {"type": "note_on", "time": 148, "note": 63, "velocity": 84, "channel": 0}, {"type": "note_off", "time": 83, "note": 63, "velocity": 84, "channel": 0}, {"type": "note_on", "time": 27, "note": 63, "velocity": 111, "channel": 0}, {"type": "note_off", "time": 110, "note": 63, "velocity": 111, "channel": 0}, {"type": "note_on", "time": 41, "note": 62, "velocity": 108, "channel": 0}, {"type": "note_off", "time": 38, "note": 62, "velocity": 108, "channel": 0}, {"type": "note_on", "time": 17, "note": 63, "velocity": 97, "channel": 0}, {"type": "note_off", "time": 55, "note": 63, "velocity": 97, "channel": 0}, {"type": "note_on", "time": 31, "note": 65, "velocity": 114, "channel": 0}, {"type": "note_off", "time": 96, "note": 65, "velocity": 114, "channel": 0}, {"type": "note_on", "time": 20, "note": 62, "velocity": 114, "channel": 0}, {"type": "note_off", "time": 89, "note": 62, "velocity": 114, "channel": 0}, {"type": "note_on", "time": 24, "note": 62, "velocity": 105, "channel": 0}, {"type": "note_off", "time": 55, "note": 62, "velocity": 105, "channel": 0}, {"type": "note_on", "time": 24, "note": 65, "velocity": 109, "channel": 0}, {"type": "note_off", "time": 103, "note": 65, "velocity": 109, "channel": 0}, {"type": "note_on", "time": 10, "note": 61, "velocity": 97, "channel": 0}, {"type": "note_off", "time": 34, "note": 61, "velocity": 97, "channel": 0}, {"type": "note_on", "time": 20, "note": 63, "velocity": 109, "channel": 0}, {"type": "note_off", "time": 65, "note": 63, "velocity": 109, "channel": 0}, {"type": "note_on", "time": 6, "note": 61, "velocity": 101, "channel": 0}, {"type": "note_off", "time": 62, "note": 61, "velocity": 101, "channel": 0}, {"type": "note_on", "time": 0, "note": 59, "velocity": 98, "channel": 0}, {"type": "note_off", "time": 69, "note": 59, "velocity": 98, "channel": 0}, {"type": "note_on", "time": 0, "note": 60, "velocity": 94, "channel": 0}, {"type": "note_off", "time": 65, "note": 60, "velocity": 94, "channel": 0}, {"type": "note_on", "time": 44, "note": 67, "velocity": 105, "channel": 0}, {"type": "note_off", "time": 96, "note": 67, "velocity": 105, "channel": 0}, {"type": "note_on", "time": 24, "note": 65, "velocity": 98, "channel": 0}, {"type": "note_off", "time": 55, "note": 65, "velocity": 98, "channel": 0}, {"type": "note_on", "time": 359, "note": 65, "velocity": 110, "channel": 0}, {"type": "note_off", "time": 98, "note": 65, "velocity": 110, "channel": 0}, {"type": "note_on", "time": 46, "note": 67, "velocity": 103, "channel": 0}, {"type": "note_off", "time": 243, "note": 67, "velocity": 103, "channel": 0}, {"type": "note_on", "time": 2, "note": 65, "velocity": 108, "channel": 0}, {"type": "note_off", "time": 103, "note": 65, "velocity": 108, "channel": 0}, {"type": "note_on", "time": 0, "note": 67, "velocity": 105, "channel": 0}, {"type": "note_off", "time": 91, "note": 67, "velocity": 105, "channel": 0}, {"type": "note_on", "time": 19, "note": 63, "velocity": 105, "channel": 0}, {"type": "note_off", "time": 100, "note": 63, "velocity": 105, "channel": 0}, {"type": "note_on", "time": 2, "note": 64, "velocity": 109, "channel": 0}, {"type": "note_off", "time": 61, "note": 64, "velocity": 109, "channel": 0}, {"type": "note_on", "time": 14, "note": 65, "velocity": 112, "channel": 0}, {"type": "note_off", "time": 113, "note": 65, "velocity": 112, "channel": 0}, {"type": "note_on", "time": 0, "note": 63, "velocity": 114, "channel": 0}, {"type": "note_off", "time": 78, "note": 63, "velocity": 114, "channel": 0}, {"type": "note_on", "time": 0, "note": 64, "velocity": 117, "channel": 0}, {"type": "note_off", "time": 115, "note": 64, "velocity": 117, "channel": 0}, {"type": "note_on", "time": 0, "note": 60, "velocity": 114, "channel": 0}, {"type": "note_off", "time": 86, "note": 60, "velocity": 114, "channel": 0}, {"type": "note_on", "time": 4, "note": 55, "velocity": 97, "channel": 0}, {"type": "note_off", "time": 81, "note": 55, "velocity": 97, "channel": 0}, {"type": "note_on", "time": 9, "note": 53, "velocity": 101, "channel": 0}, {"type": "note_off", "time": 66, "note": 53, "velocity": 101, "channel": 0}, {"type": "note_on", "time": 0, "note": 58, "velocity": 103, "channel": 0}, {"type": "note_off", "time": 100, "note": 58, "velocity": 103, "channel": 0}, {"type": "note_on", "time": 4, "note": 55, "velocity": 95, "channel": 0}, {"type": "note_off", "time": 68, "note": 55, "velocity": 95, "channel": 0}, {"type": "note_on", "time": 17, "note": 51, "velocity": 98, "channel": 0}, {"type": "note_off", "time": 98, "note": 51, "velocity": 98, "channel": 0}, {"type": "note_on", "time": 14, "note": 55, "velocity": 104, "channel": 0}, {"type": "note_off", "time": 81, "note": 55, "velocity": 104, "channel": 0}, {"type": "note_on", "time": 7, "note": 52, "velocity": 103, "channel": 0}, {"type": "note_off", "time": 95, "note": 52, "velocity": 103, "channel": 0}, {"type": "note_on", "time": 4, "note": 53, "velocity": 102, "channel": 0}, {"type": "note_off", "time": 39, "note": 53, "velocity": 102, "channel": 0}, {"type": "note_on", "time": 4, "note": 55, "velocity": 100, "channel": 0}, {"type": "note_off", "time": 56, "note": 55, "velocity": 100, "channel": 0}, {"type": "note_on", "time": 0, "note": 58, "velocity": 105, "channel": 0}, {"type": "note_off", "time": 51, "note": 58, "velocity": 105, "channel": 0}, {"type": "note_on", "time": 19, "note": 62, "velocity": 116, "channel": 0}, {"type": "note_off", "time": 91, "note": 62, "velocity": 116, "channel": 0}, {"type": "note_on", "time": 0, "note": 69, "velocity": 109, "channel": 0}, {"type": "note_off", "time": 83, "note": 69, "velocity": 109, "channel": 0}, {"type": "note_on", "time": 8, "note": 70, "velocity": 101, "channel": 0}, {"type": "note_off", "time": 78, "note": 70, "velocity": 101, "channel": 0}, {"type": "note_on", "time": 16, "note": 62, "velocity": 98, "channel": 0}, {"type": "note_off", "time": 81, "note": 62, "velocity": 98, "channel": 0}, {"type": "note_on", "time": 24, "note": 66, "velocity": 96, "channel": 0}, {"type": "note_on", "time": 63, "note": 69, "velocity": 110, "channel": 0}, {"type": "note_off", "time": 0, "note": 66, "velocity": 96, "channel": 0}, {"type": "note_off", "time": 127, "note": 69, "velocity": 110, "channel": 0}, {"type": "note_on", "time": 31, "note": 65, "velocity": 117, "channel": 0}, {"type": "note_off", "time": 49, "note": 65, "velocity": 117, "channel": 0}, {"type": "note_on", "time": 15, "note": 62, "velocity": 114, "channel": 0}, {"type": "note_off", "time": 72, "note": 62, "velocity": 114, "channel": 0}, {"type": "note_on", "time": 13, "note": 58, "velocity": 90, "channel": 0}, {"type": "note_off", "time": 67, "note": 58, "velocity": 90, "channel": 0}, {"type": "note_on", "time": 24, "note": 67, "velocity": 112, "channel": 0}, {"type": "note_off", "time": 123, "note": 67, "velocity": 112, "channel": 0}, {"type": "note_on", "time": 7, "note": 64, "velocity": 103, "channel": 0}, {"type": "note_off", "time": 78, "note": 64, "velocity": 103, "channel": 0}, {"type": "note_on", "time": 7, "note": 60, "velocity": 90, "channel": 0}, {"type": "note_off", "time": 78, "note": 60, "velocity": 90, "channel": 0}, {"type": "note_on", "time": 9, "note": 58, "velocity": 93, "channel": 0}, {"type": "note_off", "time": 78, "note": 58, "velocity": 93, "channel": 0}, {"type": "note_on", "time": 9, "note": 65, "velocity": 110, "channel": 0}, {"type": "note_off", "time": 108, "note": 65, "velocity": 110, "channel": 0}, {"type": "note_on", "time": 0, "note": 62, "velocity": 116, "channel": 0}, {"type": "note_off", "time": 73, "note": 62, "velocity": 116, "channel": 0}, {"type": "note_on", "time": 0, "note": 58, "velocity": 99, "channel": 0}, {"type": "note_off", "time": 83, "note": 58, "velocity": 99, "channel": 0}, {"type": "note_on", "time": 4, "note": 55, "velocity": 89, "channel": 0}, {"type": "note_off", "time": 39, "note": 55, "velocity": 89, "channel": 0}, {"type": "note_on", "time": 34, "note": 64, "velocity": 115, "channel": 0}, {"type": "note_off", "time": 108, "note": 64, "velocity": 115, "channel": 0}, {"type": "note_on", "time": 12, "note": 61, "velocity": 112, "channel": 0}, {"type": "note_off", "time": 98, "note": 61, "velocity": 112, "channel": 0}, {"type": "note_on", "time": 14, "note": 58, "velocity": 93, "channel": 0}, {"type": "note_off", "time": 60, "note": 58, "velocity": 93, "channel": 0}, {"type": "note_on", "time": 13, "note": 57, "velocity": 90, "channel": 0}, {"type": "note_off", "time": 53, "note": 57, "velocity": 90, "channel": 0}, {"type": "note_on", "time": 24, "note": 62, "velocity": 116, "channel": 0}, {"type": "note_off", "time": 95, "note": 62, "velocity": 116, "channel": 0}, {"type": "note_on", "time": 24, "note": 59, "velocity": 103, "channel": 0}, {"type": "note_off", "time": 56, "note": 59, "velocity": 103, "channel": 0}, {"type": "note_on", "time": 9, "note": 57, "velocity": 103, "channel": 0}, {"type": "note_off", "time": 60, "note": 57, "velocity": 103, "channel": 0}, {"type": "note_on", "time": 6, "note": 58, "velocity": 95, "channel": 0}, {"type": "note_off", "time": 43, "note": 58, "velocity": 95, "channel": 0}, {"type": "note_on", "time": 0, "note": 59, "velocity": 85, "channel": 0}, {"type": "note_off", "time": 36, "note": 59, "velocity": 85, "channel": 0}, {"type": "note_on", "time": 23, "note": 60, "velocity": 112, "channel": 0}, {"type": "note_off", "time": 135, "note": 60, "velocity": 112, "channel": 0}, {"type": "note_on", "time": 7, "note": 57, "velocity": 109, "channel": 0}, {"type": "note_off", "time": 66, "note": 57, "velocity": 109, "channel": 0}, {"type": "note_on", "time": 9, "note": 53, "velocity": 109, "channel": 0}, {"type": "note_off", "time": 100, "note": 53, "velocity": 109, "channel": 0}, {"type": "note_on", "time": 9, "note": 50, "velocity": 98, "channel": 0}, {"type": "note_off", "time": 88, "note": 50, "velocity": 98, "channel": 0}, {"type": "note_on", "time": 0, "note": 59, "velocity": 99, "channel": 0}, {"type": "note_off", "time": 68, "note": 59, "velocity": 99, "channel": 0}, {"type": "note_on", "time": 290, "note": 58, "velocity": 104, "channel": 0}, {"type": "note_off", "time": 103, "note": 58, "velocity": 104, "channel": 0}, {"type": "note_on", "time": 6, "note": 55, "velocity": 103, "channel": 0}, {"type": "note_off", "time": 86, "note": 55, "velocity": 103, "channel": 0}, {"type": "note_on", "time": 13, "note": 50, "velocity": 97, "channel": 0}, {"type": "note_off", "time": 65, "note": 50, "velocity": 97, "channel": 0}, {"type": "note_on", "time": 3, "note": 58, "velocity": 97, "channel": 0}, {"type": "note_off", "time": 76, "note": 58, "velocity": 97, "channel": 0}, {"type": "note_on", "time": 197, "note": 58, "velocity": 104, "channel": 0}, {"type": "note_off", "time": 41, "note": 58, "velocity": 104, "channel": 0}, {"type": "note_on", "time": 4, "note": 55, "velocity": 110, "channel": 0}, {"type": "note_off", "time": 44, "note": 55, "velocity": 110, "channel": 0}, {"type": "note_on", "time": 16, "note": 50, "velocity": 110, "channel": 0}, {"type": "note_on", "time": 74, "note": 52, "velocity": 109, "channel": 0}, {"type": "note_off", "time": 0, "note": 50, "velocity": 110, "channel": 0}, {"type": "note_off", "time": 39, "note": 52, "velocity": 109, "channel": 0}, {"type": "note_on", "time": 17, "note": 58, "velocity": 107, "channel": 0}, {"type": "note_off", "time": 48, "note": 58, "velocity": 107, "channel": 0}, {"type": "note_on", "time": 15, "note": 55, "velocity": 110, "channel": 0}, {"type": "note_off", "time": 38, "note": 55, "velocity": 110, "channel": 0}, {"type": "note_on", "time": 10, "note": 52, "velocity": 111, "channel": 0}, {"type": "note_off", "time": 34, "note": 52, "velocity": 111, "channel": 0}, {"type": "note_on", "time": 12, "note": 50, "velocity": 109, "channel": 0}, {"type": "note_off", "time": 29, "note": 50, "velocity": 109, "channel": 0}, {"type": "note_on", "time": 5, "note": 52, "velocity": 105, "channel": 0}, {"type": "note_off", "time": 43, "note": 52, "velocity": 105, "channel": 0}, {"type": "note_on", "time": 12, "note": 58, "velocity": 104, "channel": 0}, {"type": "note_off", "time": 62, "note": 58, "velocity": 104, "channel": 0}, {"type": "note_on", "time": 0, "note": 55, "velocity": 107, "channel": 0}, {"type": "note_off", "time": 46, "note": 55, "velocity": 107, "channel": 0}, {"type": "note_on", "time": 5, "note": 50, "velocity": 102, "channel": 0}, {"type": "note_off", "time": 46, "note": 50, "velocity": 102, "channel": 0}, {"type": "note_on", "time": 2, "note": 52, "velocity": 106, "channel": 0}, {"type": "note_off", "time": 36, "note": 52, "velocity": 106, "channel": 0}, {"type": "note_on", "time": 8, "note": 58, "velocity": 107, "channel": 0}, {"type": "note_off", "time": 41, "note": 58, "velocity": 107, "channel": 0}, {"type": "note_on", "time": 8, "note": 55, "velocity": 110, "channel": 0}, {"type": "note_off", "time": 49, "note": 55, "velocity": 110, "channel": 0}, {"type": "note_on", "time": 7, "note": 50, "velocity": 109, "channel": 0}, {"type": "note_off", "time": 53, "note": 50, "velocity": 109, "channel": 0}, {"type": "note_on", "time": 0, "note": 52, "velocity": 109, "channel": 0}, {"type": "note_off", "time": 91, "note": 52, "velocity": 109, "channel": 0}, {"type": "note_on", "time": 445, "note": 58, "velocity": 106, "channel": 0}, {"type": "note_off", "time": 100, "note": 58, "velocity": 106, "channel": 0}, {"type": "note_on", "time": 4, "note": 55, "velocity": 99, "channel": 0}, {"type": "note_off", "time": 81, "note": 55, "velocity": 99, "channel": 0}, {"type": "note_on", "time": 22, "note": 52, "velocity": 98, "channel": 0}, {"type": "note_off", "time": 73, "note": 52, "velocity": 98, "channel": 0}, {"type": "note_on", "time": 9, "note": 48, "velocity": 95, "channel": 0}, {"type": "note_on", "time": 59, "note": 57, "velocity": 95, "channel": 0}, {"type": "note_off", "time": 0, "note": 48, "velocity": 95, "channel": 0}, {"type": "note_off", "time": 100, "note": 57, "velocity": 95, "channel": 0}, {"type": "note_on", "time": 29, "note": 53, "velocity": 98, "channel": 0}, {"type": "note_off", "time": 78, "note": 53, "velocity": 98, "channel": 0}, {"type": "note_on", "time": 17, "note": 55, "velocity": 96, "channel": 0}, {"type": "note_off", "time": 88, "note": 55, "velocity": 96, "channel": 0}, {"type": "note_on", "time": 22, "note": 57, "velocity": 100, "channel": 0}, {"type": "note_off", "time": 81, "note": 57, "velocity": 100, "channel": 0}, {"type": "note_on", "time": 17, "note": 59, "velocity": 101, "channel": 0}, {"type": "note_off", "time": 86, "note": 59, "velocity": 101, "channel": 0}, {"type": "note_on", "time": 12, "note": 60, "velocity": 114, "channel": 0}, {"type": "note_off", "time": 73, "note": 60, "velocity": 114, "channel": 0}, {"type": "note_on", "time": 0, "note": 62, "velocity": 105, "channel": 0}, {"type": "note_off", "time": 115, "note": 62, "velocity": 105, "channel": 0}, {"type": "note_on", "time": 2, "note": 64, "velocity": 98, "channel": 0}, {"type": "note_off", "time": 51, "note": 64, "velocity": 98, "channel": 0}, {"type": "note_on", "time": 22, "note": 67, "velocity": 111, "channel": 0}, {"type": "note_on", "time": 120, "note": 64, "velocity": 100, "channel": 0}, {"type": "note_off", "time": 0, "note": 67, "velocity": 111, "channel": 0}, {"type": "note_off", "time": 39, "note": 64, "velocity": 100, "channel": 0}, {"type": "note_on", "time": 27, "note": 65, "velocity": 113, "channel": 0}, {"type": "note_off", "time": 91, "note": 65, "velocity": 113, "channel": 0}, {"type": "note_on", "time": 9, "note": 67, "velocity": 96, "channel": 0}, {"type": "note_off", "time": 27, "note": 67, "velocity": 96, "channel": 0}, {"type": "note_on", "time": 15, "note": 65, "velocity": 104, "channel": 0}, {"type": "note_off", "time": 56, "note": 65, "velocity": 104, "channel": 0}, {"type": "note_on", "time": 27, "note": 64, "velocity": 105, "channel": 0}, {"type": "note_off", "time": 78, "note": 64, "velocity": 105, "channel": 0}, {"type": "note_on", "time": 22, "note": 62, "velocity": 110, "channel": 0}, {"type": "note_off", "time": 76, "note": 62, "velocity": 110, "channel": 0}, {"type": "note_on", "time": 9, "note": 60, "velocity": 102, "channel": 0}, {"type": "note_off", "time": 88, "note": 60, "velocity": 102, "channel": 0}, {"type": "note_on", "time": 19, "note": 58, "velocity": 100, "channel": 0}, {"type": "note_off", "time": 78, "note": 58, "velocity": 100, "channel": 0}, {"type": "note_on", "time": 7, "note": 57, "velocity": 92, "channel": 0}, {"type": "note_off", "time": 93, "note": 57, "velocity": 92, "channel": 0}, {"type": "note_on", "time": 9, "note": 60, "velocity": 106, "channel": 0}, {"type": "note_off", "time": 86, "note": 60, "velocity": 106, "channel": 0}, {"type": "note_on", "time": 4, "note": 62, "velocity": 102, "channel": 0}, {"type": "note_off", "time": 56, "note": 62, "velocity": 102, "channel": 0}, {"type": "note_on", "time": 9, "note": 64, "velocity": 95, "channel": 0}, {"type": "note_off", "time": 71, "note": 64, "velocity": 95, "channel": 0}, {"type": "note_on", "time": 14, "note": 67, "velocity": 108, "channel": 0}, {"type": "note_off", "time": 125, "note": 67, "velocity": 108, "channel": 0}, {"type": "note_on", "time": 19, "note": 64, "velocity": 113, "channel": 0}, {"type": "note_off", "time": 81, "note": 64, "velocity": 113, "channel": 0}, {"type": "note_on", "time": 12, "note": 65, "velocity": 98, "channel": 0}, {"type": "note_off", "time": 61, "note": 65, "velocity": 98, "channel": 0}, {"type": "note_on", "time": 7, "note": 66, "velocity": 89, "channel": 0}, {"type": "note_off", "time": 59, "note": 66, "velocity": 89, "channel": 0}, {"type": "note_on", "time": 14, "note": 68, "velocity": 101, "channel": 0}, {"type": "note_off", "time": 125, "note": 68, "velocity": 101, "channel": 0}, {"type": "note_on", "time": 0, "note": 64, "velocity": 109, "channel": 0}, {"type": "note_off", "time": 81, "note": 64, "velocity": 109, "channel": 0}, {"type": "note_on", "time": 2, "note": 67, "velocity": 111, "channel": 0}, {"type": "note_off", "time": 95, "note": 67, "velocity": 111, "channel": 0}, {"type": "note_on", "time": 17, "note": 62, "velocity": 107, "channel": 0}, {"type": "note_off", "time": 49, "note": 62, "velocity": 107, "channel": 0}, {"type": "note_on", "time": 7, "note": 64, "velocity": 113, "channel": 0}, {"type": "note_off", "time": 110, "note": 64, "velocity": 113, "channel": 0}, {"type": "note_on", "time": 4, "note": 67, "velocity": 104, "channel": 0}, {"type": "note_off", "time": 46, "note": 67, "velocity": 104, "channel": 0}, {"type": "note_on", "time": 14, "note": 68, "velocity": 108, "channel": 0}, {"type": "note_off", "time": 120, "note": 68, "velocity": 108, "channel": 0}, {"type": "note_on", "time": 63, "note": 67, "velocity": 92, "channel": 0}, {"type": "note_off", "time": 61, "note": 67, "velocity": 92, "channel": 0}, {"type": "note_on", "time": 0, "note": 56, "velocity": 108, "channel": 0}, {"type": "note_off", "time": 103, "note": 56, "velocity": 108, "channel": 0}, {"type": "note_on", "time": 17, "note": 52, "velocity": 99, "channel": 0}, {"type": "note_off", "time": 103, "note": 52, "velocity": 99, "channel": 0}, {"type": "note_on", "time": 13, "note": 56, "velocity": 101, "channel": 0}, {"type": "note_off", "time": 76, "note": 56, "velocity": 101, "channel": 0}, {"type": "note_on", "time": 3, "note": 50, "velocity": 98, "channel": 0}, {"type": "note_off", "time": 70, "note": 50, "velocity": 98, "channel": 0}, {"type": "note_on", "time": 0, "note": 64, "velocity": 108, "channel": 0}, {"type": "note_off", "time": 81, "note": 64, "velocity": 108, "channel": 0}, {"type": "note_on", "time": 2, "note": 59, "velocity": 86, "channel": 0}, {"type": "note_off", "time": 78, "note": 59, "velocity": 86, "channel": 0}, {"type": "note_on", "time": 16, "note": 62, "velocity": 117, "channel": 0}, {"type": "note_off", "time": 110, "note": 62, "velocity": 117, "channel": 0}, {"type": "note_on", "time": 3, "note": 56, "velocity": 108, "channel": 0}, {"type": "note_off", "time": 110, "note": 56, "velocity": 108, "channel": 0}, {"type": "note_on", "time": 2, "note": 59, "velocity": 100, "channel": 0}, {"type": "note_off", "time": 63, "note": 59, "velocity": 100, "channel": 0}, {"type": "note_on", "time": 489, "note": 60, "velocity": 108, "channel": 0}, {"type": "note_off", "time": 120, "note": 60, "velocity": 108, "channel": 0}, {"type": "note_on", "time": 54, "note": 62, "velocity": 117, "channel": 0}, {"type": "note_off", "time": 115, "note": 62, "velocity": 117, "channel": 0}, {"type": "note_on", "time": 78, "note": 64, "velocity": 116, "channel": 0}, {"type": "note_off", "time": 110, "note": 64, "velocity": 116, "channel": 0}, {"type": "note_on", "time": 98, "note": 65, "velocity": 104, "channel": 0}, {"type": "note_off", "time": 113, "note": 65, "velocity": 104, "channel": 0}, {"type": "note_on", "time": 88, "note": 67, "velocity": 89, "channel": 0}, {"type": "note_off", "time": 91, "note": 67, "velocity": 89, "channel": 0}, {"type": "note_on", "time": 68, "note": 69, "velocity": 110, "channel": 0}, {"type": "note_off", "time": 91, "note": 69, "velocity": 110, "channel": 0}, {"type": "note_on", "time": 100, "note": 69, "velocity": 98, "channel": 0}, {"type": "note_off", "time": 54, "note": 69, "velocity": 98, "channel": 0}, {"type": "note_on", "time": 9, "note": 70, "velocity": 113, "channel": 0}, {"type": "note_off", "time": 113, "note": 70, "velocity": 113, "channel": 0}, {"type": "note_on", "time": 27, "note": 68, "velocity": 109, "channel": 0}, {"type": "note_off", "time": 100, "note": 68, "velocity": 109, "channel": 0}, {"type": "note_on", "time": 100, "note": 69, "velocity": 105, "channel": 0}, {"type": "note_off", "time": 187, "note": 69, "velocity": 105, "channel": 0}, {"type": "note_on", "time": 401, "note": 69, "velocity": 107, "channel": 0}, {"type": "note_off", "time": 110, "note": 69, "velocity": 107, "channel": 0}, {"type": "note_on", "time": 7, "note": 65, "velocity": 107, "channel": 0}, {"type": "note_off", "time": 78, "note": 65, "velocity": 107, "channel": 0}, {"type": "note_on", "time": 12, "note": 62, "velocity": 108, "channel": 0}, {"type": "note_off", "time": 103, "note": 62, "velocity": 108, "channel": 0}, {"type": "note_on", "time": 34, "note": 67, "velocity": 108, "channel": 0}, {"type": "note_off", "time": 113, "note": 67, "velocity": 108, "channel": 0}, {"type": "note_on", "time": 76, "note": 67, "velocity": 108, "channel": 0}, {"type": "note_off", "time": 91, "note": 67, "velocity": 108, "channel": 0}, {"type": "note_on", "time": 98, "note": 63, "velocity": 119, "channel": 0}, {"type": "note_off", "time": 78, "note": 63, "velocity": 119, "channel": 0}, {"type": "note_on", "time": 12, "note": 64, "velocity": 108, "channel": 0}, {"type": "note_off", "time": 93, "note": 64, "velocity": 108, "channel": 0}, {"type": "note_on", "time": 27, "note": 65, "velocity": 111, "channel": 0}, {"type": "note_off", "time": 105, "note": 65, "velocity": 111, "channel": 0}, {"type": "note_on", "time": 9, "note": 64, "velocity": 116, "channel": 0}, {"type": "note_off", "time": 91, "note": 64, "velocity": 116, "channel": 0}, {"type": "note_on", "time": 98, "note": 60, "velocity": 111, "channel": 0}, {"type": "note_off", "time": 71, "note": 60, "velocity": 111, "channel": 0}, {"type": "note_on", "time": 19, "note": 55, "velocity": 89, "channel": 0}, {"type": "note_off", "time": 81, "note": 55, "velocity": 89, "channel": 0}, {"type": "note_on", "time": 0, "note": 53, "velocity": 88, "channel": 0}, {"type": "note_off", "time": 78, "note": 53, "velocity": 88, "channel": 0}, {"type": "note_on", "time": 53, "note": 59, "velocity": 99, "channel": 0}, {"type": "note_off", "time": 160, "note": 59, "velocity": 99, "channel": 0}, {"type": "note_on", "time": 0, "note": 60, "velocity": 107, "channel": 0}, {"type": "note_off", "time": 91, "note": 60, "velocity": 107, "channel": 0}, {"type": "note_on", "time": 59, "note": 63, "velocity": 116, "channel": 0}, {"type": "note_off", "time": 206, "note": 63, "velocity": 116, "channel": 0}, {"type": "note_on", "time": 7, "note": 64, "velocity": 108, "channel": 0}, {"type": "note_off", "time": 103, "note": 64, "velocity": 108, "channel": 0}, {"type": "note_on", "time": 71, "note": 66, "velocity": 105, "channel": 0}, {"type": "note_off", "time": 182, "note": 66, "velocity": 105, "channel": 0}, {"type": "note_on", "time": 7, "note": 67, "velocity": 101, "channel": 0}, {"type": "note_off", "time": 88, "note": 67, "velocity": 101, "channel": 0}, {"type": "note_on", "time": 127, "note": 71, "velocity": 113, "channel": 0}, {"type": "note_off", "time": 164, "note": 71, "velocity": 113, "channel": 0}, {"type": "note_on", "time": 31, "note": 67, "velocity": 89, "channel": 0}, {"type": "note_off", "time": 98, "note": 67, "velocity": 89, "channel": 0}, {"type": "note_on", "time": 100, "note": 72, "velocity": 114, "channel": 0}, {"type": "note_off", "time": 86, "note": 72, "velocity": 114, "channel": 0}, {"type": "note_on", "time": 287, "note": 67, "velocity": 109, "channel": 0}, {"type": "note_off", "time": 129, "note": 67, "velocity": 109, "channel": 0}, {"type": "note_on", "time": 261, "note": 69, "velocity": 112, "channel": 0}, {"type": "note_off", "time": 136, "note": 69, "velocity": 112, "channel": 0}, {"type": "note_on", "time": 233, "note": 64, "velocity": 113, "channel": 0}, {"type": "note_off", "time": 143, "note": 64, "velocity": 113, "channel": 0}, {"type": "note_on", "time": 268, "note": 67, "velocity": 105, "channel": 0}, {"type": "note_off", "time": 128, "note": 67, "velocity": 105, "channel": 0}, {"type": "note_on", "time": 242, "note": 69, "velocity": 108, "channel": 0}, {"type": "note_off", "time": 131, "note": 69, "velocity": 108, "channel": 0}, {"type": "note_on", "time": 261, "note": 67, "velocity": 104, "channel": 0}, {"type": "note_off", "time": 115, "note": 67, "velocity": 104, "channel": 0}, {"type": "note_on", "time": 249, "note": 70, "velocity": 114, "channel": 0}, {"type": "note_off", "time": 127, "note": 70, "velocity": 114, "channel": 0}, {"type": "note_on", "time": 261, "note": 68, "velocity": 107, "channel": 0}, {"type": "note_off", "time": 109, "note": 68, "velocity": 107, "channel": 0}, {"type": "note_on", "time": 296, "note": 67, "velocity": 107, "channel": 0}, {"type": "note_off", "time": 123, "note": 67, "velocity": 107, "channel": 0}, {"type": "note_on", "time": 265, "note": 64, "velocity": 113, "channel": 0}, {"type": "note_off", "time": 119, "note": 64, "velocity": 113, "channel": 0}, {"type": "note_on", "time": 259, "note": 65, "velocity": 113, "channel": 0}, {"type": "note_off", "time": 103, "note": 65, "velocity": 113, "channel": 0}, {"type": "note_on", "time": 273, "note": 62, "velocity": 112, "channel": 0}, {"type": "note_off", "time": 73, "note": 62, "velocity": 112, "channel": 0}, {"type": "note_on", "time": 125, "note": 64, "velocity": 115, "channel": 0}, {"type": "note_off", "time": 103, "note": 64, "velocity": 115, "channel": 0}, {"type": "note_on", "time": 4, "note": 60, "velocity": 96, "channel": 0}, {"type": "note_off", "time": 66, "note": 60, "velocity": 96, "channel": 0}, {"type": "note_on", "time": 2, "note": 62, "velocity": 108, "channel": 0}, {"type": "note_off", "time": 88, "note": 62, "velocity": 108, "channel": 0}, {"type": "note_on", "time": 9, "note": 59, "velocity": 98, "channel": 0}, {"type": "note_off", "time": 86, "note": 59, "velocity": 98, "channel": 0}, {"type": "note_on", "time": 7, "note": 55, "velocity": 96, "channel": 0}, {"type": "note_off", "time": 103, "note": 55, "velocity": 96, "channel": 0}, {"type": "note_on", "time": 0, "note": 53, "velocity": 89, "channel": 0}, {"type": "note_off", "time": 86, "note": 53, "velocity": 89, "channel": 0}, {"type": "note_on", "time": 27, "note": 57, "velocity": 105, "channel": 0}, {"type": "note_off", "time": 81, "note": 57, "velocity": 105, "channel": 0}, {"type": "note_on", "time": 17, "note": 59, "velocity": 98, "channel": 0}, {"type": "note_off", "time": 66, "note": 59, "velocity": 98, "channel": 0}, {"type": "note_on", "time": 0, "note": 61, "velocity": 102, "channel": 0}, {"type": "note_off", "time": 113, "note": 61, "velocity": 102, "channel": 0}, {"type": "note_on", "time": 7, "note": 62, "velocity": 109, "channel": 0}, {"type": "note_off", "time": 91, "note": 62, "velocity": 109, "channel": 0}, {"type": "note_on", "time": 17, "note": 64, "velocity": 117, "channel": 0}, {"type": "note_off", "time": 108, "note": 64, "velocity": 117, "channel": 0}, {"type": "note_on", "time": 9, "note": 65, "velocity": 109, "channel": 0}, {"type": "note_off", "time": 59, "note": 65, "velocity": 109, "channel": 0}, {"type": "note_on", "time": 7, "note": 67, "velocity": 109, "channel": 0}, {"type": "note_off", "time": 98, "note": 67, "velocity": 109, "channel": 0}, {"type": "note_on", "time": 14, "note": 69, "velocity": 112, "channel": 0}, {"type": "note_off", "time": 61, "note": 69, "velocity": 112, "channel": 0}, {"type": "note_on", "time": 12, "note": 72, "velocity": 113, "channel": 0}, {"type": "note_off", "time": 88, "note": 72, "velocity": 113, "channel": 0}, {"type": "note_on", "time": 268, "note": 67, "velocity": 109, "channel": 0}, {"type": "note_off", "time": 93, "note": 67, "velocity": 109, "channel": 0}, {"type": "note_on", "time": 285, "note": 69, "velocity": 111, "channel": 0}, {"type": "note_off", "time": 88, "note": 69, "velocity": 111, "channel": 0}, {"type": "note_on", "time": 334, "note": 64, "velocity": 111, "channel": 0}, {"type": "note_off", "time": 91, "note": 64, "velocity": 111, "channel": 0}, {"type": "note_on", "time": 297, "note": 67, "velocity": 107, "channel": 0}, {"type": "note_off", "time": 88, "note": 67, "velocity": 107, "channel": 0}, {"type": "note_on", "time": 283, "note": 69, "velocity": 111, "channel": 0}, {"type": "note_off", "time": 100, "note": 69, "velocity": 111, "channel": 0}, {"type": "note_on", "time": 292, "note": 67, "velocity": 109, "channel": 0}, {"type": "note_off", "time": 88, "note": 67, "velocity": 109, "channel": 0}, {"type": "note_on", "time": 304, "note": 70, "velocity": 112, "channel": 0}, {"type": "note_off", "time": 108, "note": 70, "velocity": 112, "channel": 0}, {"type": "note_on", "time": 303, "note": 67, "velocity": 106, "channel": 0}, {"type": "note_off", "time": 103, "note": 67, "velocity": 106, "channel": 0}, {"type": "note_on", "time": 284, "note": 64, "velocity": 112, "channel": 0}, {"type": "note_off", "time": 86, "note": 64, "velocity": 112, "channel": 0}, {"type": "note_on", "time": 290, "note": 65, "velocity": 109, "channel": 0}, {"type": "note_off", "time": 113, "note": 65, "velocity": 109, "channel": 0}, {"type": "note_on", "time": 7, "note": 62, "velocity": 105, "channel": 0}, {"type": "note_off", "time": 66, "note": 62, "velocity": 105, "channel": 0}, {"type": "note_on", "time": 0, "note": 64, "velocity": 110, "channel": 0}, {"type": "note_off", "time": 118, "note": 64, "velocity": 110, "channel": 0}, {"type": "note_on", "time": 14, "note": 61, "velocity": 97, "channel": 0}, {"type": "note_off", "time": 54, "note": 61, "velocity": 97, "channel": 0}, {"type": "note_on", "time": 12, "note": 62, "velocity": 109, "channel": 0}, {"type": "note_off", "time": 103, "note": 62, "velocity": 109, "channel": 0}, {"type": "note_on", "time": 4, "note": 64, "velocity": 115, "channel": 0}, {"type": "note_off", "time": 118, "note": 64, "velocity": 115, "channel": 0}, {"type": "note_on", "time": 12, "note": 66, "velocity": 103, "channel": 0}, {"type": "note_off", "time": 63, "note": 66, "velocity": 103, "channel": 0}, {"type": "note_on", "time": 19, "note": 67, "velocity": 105, "channel": 0}, {"type": "note_off", "time": 59, "note": 67, "velocity": 105, "channel": 0}, {"type": "note_on", "time": 27, "note": 69, "velocity": 107, "channel": 0}, {"type": "note_off", "time": 78, "note": 69, "velocity": 107, "channel": 0}, {"type": "note_on", "time": 0, "note": 72, "velocity": 108, "channel": 0}, {"type": "note_off", "time": 100, "note": 72, "velocity": 108, "channel": 0}, {"type": "note_on", "time": 7, "note": 71, "velocity": 110, "channel": 0}, {"type": "note_off", "time": 98, "note": 71, "velocity": 110, "channel": 0}, {"type": "note_on", "time": 22, "note": 67, "velocity": 94, "channel": 0}, {"type": "note_off", "time": 41, "note": 67, "velocity": 94, "channel": 0}, {"type": "note_on", "time": 7, "note": 69, "velocity": 112, "channel": 0}, {"type": "note_off", "time": 86, "note": 69, "velocity": 112, "channel": 0}, {"type": "note_on", "time": 17, "note": 65, "velocity": 107, "channel": 0}, {"type": "note_off", "time": 86, "note": 65, "velocity": 107, "channel": 0}, {"type": "note_on", "time": 12, "note": 64, "velocity": 103, "channel": 0}, {"type": "note_off", "time": 83, "note": 64, "velocity": 103, "channel": 0}, {"type": "note_on", "time": 12, "note": 67, "velocity": 107, "channel": 0}, {"type": "note_off", "time": 83, "note": 67, "velocity": 107, "channel": 0}, {"type": "note_on", "time": 0, "note": 65, "velocity": 109, "channel": 0}, {"type": "note_off", "time": 95, "note": 65, "velocity": 109, "channel": 0}, {"type": "note_on", "time": 12, "note": 62, "velocity": 114, "channel": 0}, {"type": "note_off", "time": 91, "note": 62, "velocity": 114, "channel": 0}, {"type": "note_on", "time": 22, "note": 61, "velocity": 102, "channel": 0}, {"type": "note_off", "time": 66, "note": 61, "velocity": 102, "channel": 0}, {"type": "note_on", "time": 0, "note": 64, "velocity": 118, "channel": 0}, {"type": "note_off", "time": 118, "note": 64, "velocity": 118, "channel": 0}, {"type": "note_on", "time": 0, "note": 62, "velocity": 106, "channel": 0}, {"type": "note_off", "time": 86, "note": 62, "velocity": 106, "channel": 0}, {"type": "note_on", "time": 206, "note": 64, "velocity": 101, "channel": 0}, {"type": "note_off", "time": 68, "note": 64, "velocity": 101, "channel": 0}, {"type": "note_on", "time": 2, "note": 68, "velocity": 117, "channel": 0}, {"type": "note_off", "time": 162, "note": 68, "velocity": 117, "channel": 0}, {"type": "note_on", "time": 137, "note": 68, "velocity": 97, "channel": 0}, {"type": "note_off", "time": 307, "note": 68, "velocity": 97, "channel": 0}, {"type": "note_on", "time": 14, "note": 66, "velocity": 91, "channel": 0}, {"type": "note_off", "time": 78, "note": 66, "velocity": 91, "channel": 0}, {"type": "note_on", "time": 0, "note": 68, "velocity": 88, "channel": 0}, {"type": "note_off", "time": 78, "note": 68, "velocity": 88, "channel": 0}, {"type": "note_on", "time": 14, "note": 70, "velocity": 103, "channel": 0}, {"type": "note_off", "time": 110, "note": 70, "velocity": 103, "channel": 0}, {"type": "note_on", "time": 9, "note": 66, "velocity": 101, "channel": 0}, {"type": "note_off", "time": 98, "note": 66, "velocity": 101, "channel": 0}, {"type": "note_on", "time": 0, "note": 68, "velocity": 103, "channel": 0}, {"type": "note_off", "time": 71, "note": 68, "velocity": 103, "channel": 0}, {"type": "note_on", "time": 17, "note": 68, "velocity": 102, "channel": 0}, {"type": "note_off", "time": 83, "note": 68, "velocity": 102, "channel": 0}, {"type": "note_on", "time": 9, "note": 63, "velocity": 103, "channel": 0}, {"type": "note_off", "time": 123, "note": 63, "velocity": 103, "channel": 0}, {"type": "note_on", "time": 403, "note": 68, "velocity": 114, "channel": 0}, {"type": "note_off", "time": 86, "note": 68, "velocity": 114, "channel": 0}, {"type": "note_on", "time": 86, "note": 68, "velocity": 103, "channel": 0}, {"type": "note_off", "time": 312, "note": 68, "velocity": 103, "channel": 0}, {"type": "note_on", "time": 36, "note": 66, "velocity": 104, "channel": 0}, {"type": "note_off", "time": 63, "note": 66, "velocity": 104, "channel": 0}, {"type": "note_on", "time": 14, "note": 68, "velocity": 88, "channel": 0}, {"type": "note_off", "time": 83, "note": 68, "velocity": 88, "channel": 0}, {"type": "note_on", "time": 0, "note": 70, "velocity": 96, "channel": 0}, {"type": "note_off", "time": 98, "note": 70, "velocity": 96, "channel": 0}, {"type": "note_on", "time": 12, "note": 66, "velocity": 92, "channel": 0}, {"type": "note_off", "time": 63, "note": 66, "velocity": 92, "channel": 0}, {"type": "note_on", "time": 12, "note": 68, "velocity": 102, "channel": 0}, {"type": "note_off", "time": 61, "note": 68, "velocity": 102, "channel": 0}, {"type": "note_on", "time": 22, "note": 66, "velocity": 100, "channel": 0}, {"type": "note_off", "time": 93, "note": 66, "velocity": 100, "channel": 0}, {"type": "note_on", "time": 19, "note": 61, "velocity": 107, "channel": 0}, {"type": "note_off", "time": 103, "note": 61, "velocity": 107, "channel": 0}, {"type": "note_on", "time": 14, "note": 59, "velocity": 92, "channel": 0}, {"type": "note_off", "time": 41, "note": 59, "velocity": 92, "channel": 0}, {"type": "note_on", "time": 3, "note": 63, "velocity": 114, "channel": 0}, {"type": "note_off", "time": 127, "note": 63, "velocity": 114, "channel": 0}, {"type": "note_on", "time": 22, "note": 61, "velocity": 102, "channel": 0}, {"type": "note_off", "time": 36, "note": 61, "velocity": 102, "channel": 0}, {"type": "note_on", "time": 19, "note": 63, "velocity": 114, "channel": 0}, {"type": "note_off", "time": 98, "note": 63, "velocity": 114, "channel": 0}, {"type": "note_on", "time": 4, "note": 67, "velocity": 107, "channel": 0}, {"type": "note_off", "time": 81, "note": 67, "velocity": 107, "channel": 0}, {"type": "note_on", "time": 3, "note": 66, "velocity": 103, "channel": 0}, {"type": "note_off", "time": 88, "note": 66, "velocity": 103, "channel": 0}, {"type": "note_on", "time": 13, "note": 68, "velocity": 104, "channel": 0}, {"type": "note_off", "time": 76, "note": 68, "velocity": 104, "channel": 0}, {"type": "note_on", "time": 13, "note": 66, "velocity": 100, "channel": 0}, {"type": "note_off", "time": 110, "note": 66, "velocity": 100, "channel": 0}, {"type": "note_on", "time": 3, "note": 61, "velocity": 109, "channel": 0}, {"type": "note_off", "time": 88, "note": 61, "velocity": 109, "channel": 0}, {"type": "note_on", "time": 22, "note": 58, "velocity": 97, "channel": 0}, {"type": "note_off", "time": 51, "note": 58, "velocity": 97, "channel": 0}, {"type": "note_on", "time": 14, "note": 63, "velocity": 105, "channel": 0}, {"type": "note_off", "time": 103, "note": 63, "velocity": 105, "channel": 0}, {"type": "note_on", "time": 4, "note": 61, "velocity": 105, "channel": 0}, {"type": "note_off", "time": 108, "note": 61, "velocity": 105, "channel": 0}, {"type": "note_on", "time": 14, "note": 56, "velocity": 100, "channel": 0}, {"type": "note_off", "time": 49, "note": 56, "velocity": 100, "channel": 0}, {"type": "note_on", "time": 24, "note": 54, "velocity": 97, "channel": 0}, {"type": "note_off", "time": 176, "note": 54, "velocity": 97, "channel": 0}, {"type": "note_on", "time": 37, "note": 55, "velocity": 102, "channel": 0}, {"type": "note_off", "time": 88, "note": 55, "velocity": 102, "channel": 0}, {"type": "note_on", "time": 105, "note": 58, "velocity": 106, "channel": 0}, {"type": "note_off", "time": 68, "note": 58, "velocity": 106, "channel": 0}, {"type": "note_on", "time": 13, "note": 55, "velocity": 94, "channel": 0}, {"type": "note_off", "time": 81, "note": 55, "velocity": 94, "channel": 0}, {"type": "note_on", "time": 20, "note": 56, "velocity": 102, "channel": 0}, {"type": "note_off", "time": 91, "note": 56, "velocity": 102, "channel": 0}, {"type": "note_on", "time": 13, "note": 58, "velocity": 101, "channel": 0}, {"type": "note_off", "time": 63, "note": 58, "velocity": 101, "channel": 0}, {"type": "note_on", "time": 26, "note": 59, "velocity": 99, "channel": 0}, {"type": "note_off", "time": 76, "note": 59, "velocity": 99, "channel": 0}, {"type": "note_on", "time": 2, "note": 64, "velocity": 110, "channel": 0}, {"type": "note_off", "time": 115, "note": 64, "velocity": 110, "channel": 0}, {"type": "note_on", "time": 12, "note": 65, "velocity": 100, "channel": 0}, {"type": "note_off", "time": 76, "note": 65, "velocity": 100, "channel": 0}, {"type": "note_on", "time": 19, "note": 67, "velocity": 99, "channel": 0}, {"type": "note_off", "time": 68, "note": 67, "velocity": 99, "channel": 0}, {"type": "note_on", "time": 9, "note": 68, "velocity": 105, "channel": 0}, {"type": "note_off", "time": 81, "note": 68, "velocity": 105, "channel": 0}, {"type": "note_on", "time": 9, "note": 70, "velocity": 94, "channel": 0}, {"type": "note_off", "time": 100, "note": 70, "velocity": 94, "channel": 0}, {"type": "note_on", "time": 14, "note": 71, "velocity": 104, "channel": 0}, {"type": "note_off", "time": 113, "note": 71, "velocity": 104, "channel": 0}, {"type": "note_on", "time": 7, "note": 66, "velocity": 100, "channel": 0}, {"type": "note_off", "time": 63, "note": 66, "velocity": 100, "channel": 0}, {"type": "note_on", "time": 14, "note": 62, "velocity": 104, "channel": 0}, {"type": "note_off", "time": 98, "note": 62, "velocity": 104, "channel": 0}, {"type": "note_on", "time": 14, "note": 59, "velocity": 96, "channel": 0}, {"type": "note_off", "time": 73, "note": 59, "velocity": 96, "channel": 0}, {"type": "note_on", "time": 14, "note": 64, "velocity": 111, "channel": 0}, {"type": "note_off", "time": 95, "note": 64, "velocity": 111, "channel": 0}, {"type": "note_on", "time": 7, "note": 61, "velocity": 112, "channel": 0}, {"type": "note_off", "time": 93, "note": 61, "velocity": 112, "channel": 0}, {"type": "note_on", "time": 22, "note": 59, "velocity": 100, "channel": 0}, {"type": "note_off", "time": 73, "note": 59, "velocity": 100, "channel": 0}, {"type": "note_on", "time": 12, "note": 54, "velocity": 93, "channel": 0}, {"type": "note_off", "time": 91, "note": 54, "velocity": 93, "channel": 0}, {"type": "note_on", "time": 2, "note": 55, "velocity": 102, "channel": 0}, {"type": "note_off", "time": 86, "note": 55, "velocity": 102, "channel": 0}, {"type": "note_on", "time": 19, "note": 72, "velocity": 113, "channel": 0}, {"type": "note_off", "time": 88, "note": 72, "velocity": 113, "channel": 0}, {"type": "note_on", "time": 56, "note": 72, "velocity": 109, "channel": 0}, {"type": "note_off", "time": 95, "note": 72, "velocity": 109, "channel": 0}, {"type": "note_on", "time": 19, "note": 67, "velocity": 101, "channel": 0}, {"type": "note_off", "time": 76, "note": 67, "velocity": 101, "channel": 0}, {"type": "note_on", "time": 39, "note": 67, "velocity": 100, "channel": 0}, {"type": "note_off", "time": 78, "note": 67, "velocity": 100, "channel": 0}, {"type": "note_on", "time": 12, "note": 67, "velocity": 98, "channel": 0}, {"type": "note_off", "time": 86, "note": 67, "velocity": 98, "channel": 0}, {"type": "note_on", "time": 31, "note": 67, "velocity": 97, "channel": 0}, {"type": "note_off", "time": 41, "note": 67, "velocity": 97, "channel": 0}, {"type": "note_on", "time": 44, "note": 69, "velocity": 105, "channel": 0}, {"type": "note_off", "time": 100, "note": 69, "velocity": 105, "channel": 0}, {"type": "note_on", "time": 76, "note": 69, "velocity": 85, "channel": 0}, {"type": "note_off", "time": 118, "note": 69, "velocity": 85, "channel": 0}, {"type": "note_on", "time": 27, "note": 62, "velocity": 106, "channel": 0}, {"type": "note_off", "time": 63, "note": 62, "velocity": 106, "channel": 0}, {"type": "note_on", "time": 83, "note": 62, "velocity": 105, "channel": 0}, {"type": "note_off", "time": 103, "note": 62, "velocity": 105, "channel": 0}, {"type": "note_on", "time": 76, "note": 62, "velocity": 108, "channel": 0}, {"type": "note_off", "time": 36, "note": 62, "velocity": 108, "channel": 0}, {"type": "note_on", "time": 9, "note": 64, "velocity": 89, "channel": 0}, {"type": "note_off", "time": 66, "note": 64, "velocity": 89, "channel": 0}, {"type": "note_on", "time": 25, "note": 67, "velocity": 108, "channel": 0}, {"type": "note_off", "time": 55, "note": 67, "velocity": 108, "channel": 0}, {"type": "note_on", "time": 67, "note": 67, "velocity": 106, "channel": 0}, {"type": "note_off", "time": 68, "note": 67, "velocity": 106, "channel": 0}, {"type": "note_on", "time": 51, "note": 67, "velocity": 97, "channel": 0}, {"type": "note_off", "time": 86, "note": 67, "velocity": 97, "channel": 0}, {"type": "note_on", "time": 66, "note": 69, "velocity": 104, "channel": 0}, {"type": "note_off", "time": 123, "note": 69, "velocity": 104, "channel": 0}, {"type": "note_on", "time": 4, "note": 67, "velocity": 89, "channel": 0}, {"type": "note_off", "time": 105, "note": 67, "velocity": 89, "channel": 0}, {"type": "note_on", "time": 162, "note": 46, "velocity": 105, "channel": 0}, {"type": "note_off", "time": 147, "note": 46, "velocity": 105, "channel": 0}, {"type": "note_on", "time": 27, "note": 53, "velocity": 96, "channel": 0}, {"type": "note_off", "time": 100, "note": 53, "velocity": 96, "channel": 0}, {"type": "note_on", "time": 12, "note": 58, "velocity": 102, "channel": 0}, {"type": "note_off", "time": 123, "note": 58, "velocity": 102, "channel": 0}, {"type": "note_on", "time": 17, "note": 59, "velocity": 106, "channel": 0}, {"type": "note_off", "time": 83, "note": 59, "velocity": 106, "channel": 0}, {"type": "note_on", "time": 4, "note": 65, "velocity": 109, "channel": 0}, {"type": "note_off", "time": 98, "note": 65, "velocity": 109, "channel": 0}, {"type": "note_on", "time": 4, "note": 70, "velocity": 115, "channel": 0}, {"type": "note_off", "time": 150, "note": 70, "velocity": 115, "channel": 0}, {"type": "note_on", "time": 14, "note": 68, "velocity": 109, "channel": 0}, {"type": "note_off", "time": 98, "note": 68, "velocity": 109, "channel": 0}, {"type": "note_on", "time": 19, "note": 67, "velocity": 95, "channel": 0}, {"type": "note_off", "time": 354, "note": 67, "velocity": 95, "channel": 0}, {"type": "note_on", "time": 347, "note": 64, "velocity": 116, "channel": 0}, {"type": "note_off", "time": 81, "note": 64, "velocity": 116, "channel": 0}, {"type": "note_on", "time": 2, "note": 65, "velocity": 106, "channel": 0}, {"type": "note_off", "time": 127, "note": 65, "velocity": 106, "channel": 0}, {"type": "note_on", "time": 9, "note": 63, "velocity": 109, "channel": 0}, {"type": "note_off", "time": 59, "note": 63, "velocity": 109, "channel": 0}, {"type": "note_on", "time": 4, "note": 64, "velocity": 112, "channel": 0}, {"type": "note_off", "time": 125, "note": 64, "velocity": 112, "channel": 0}, {"type": "note_on", "time": 9, "note": 60, "velocity": 102, "channel": 0}, {"type": "note_off", "time": 76, "note": 60, "velocity": 102, "channel": 0}, {"type": "note_on", "time": 0, "note": 55, "velocity": 90, "channel": 0}, {"type": "note_off", "time": 100, "note": 55, "velocity": 90, "channel": 0}, {"type": "note_on", "time": 22, "note": 53, "velocity": 96, "channel": 0}, {"type": "note_off", "time": 41, "note": 53, "velocity": 96, "channel": 0}, {"type": "note_on", "time": 17, "note": 58, "velocity": 100, "channel": 0}, {"type": "note_off", "time": 105, "note": 58, "velocity": 100, "channel": 0}, {"type": "note_on", "time": 17, "note": 55, "velocity": 90, "channel": 0}, {"type": "note_off", "time": 44, "note": 55, "velocity": 90, "channel": 0}, {"type": "note_on", "time": 22, "note": 58, "velocity": 100, "channel": 0}, {"type": "note_off", "time": 100, "note": 58, "velocity": 100, "channel": 0}, {"type": "note_on", "time": 7, "note": 55, "velocity": 88, "channel": 0}, {"type": "note_off", "time": 51, "note": 55, "velocity": 88, "channel": 0}, {"type": "note_on", "time": 19, "note": 60, "velocity": 108, "channel": 0}, {"type": "note_off", "time": 137, "note": 60, "velocity": 108, "channel": 0}, {"type": "note_on", "time": 9, "note": 58, "velocity": 90, "channel": 0}, {"type": "note_off", "time": 31, "note": 58, "velocity": 90, "channel": 0}, {"type": "note_on", "time": 4, "note": 60, "velocity": 100, "channel": 0}, {"type": "note_off", "time": 172, "note": 60, "velocity": 100, "channel": 0}, {"type": "note_on", "time": 9, "note": 57, "velocity": 90, "channel": 0}, {"type": "note_off", "time": 49, "note": 57, "velocity": 90, "channel": 0}, {"type": "note_on", "time": 22, "note": 62, "velocity": 115, "channel": 0}, {"type": "note_off", "time": 157, "note": 62, "velocity": 115, "channel": 0}, {"type": "note_on", "time": 14, "note": 64, "velocity": 114, "channel": 0}, {"type": "note_off", "time": 103, "note": 64, "velocity": 114, "channel": 0}, {"type": "note_on", "time": 17, "note": 65, "velocity": 112, "channel": 0}, {"type": "note_off", "time": 78, "note": 65, "velocity": 112, "channel": 0}, {"type": "note_on", "time": 115, "note": 64, "velocity": 115, "channel": 0}, {"type": "note_off", "time": 83, "note": 64, "velocity": 115, "channel": 0}, {"type": "note_on", "time": 317, "note": 67, "velocity": 108, "channel": 0}, {"type": "note_off", "time": 88, "note": 67, "velocity": 108, "channel": 0}, {"type": "note_on", "time": 78, "note": 67, "velocity": 106, "channel": 0}, {"type": "note_off", "time": 88, "note": 67, "velocity": 106, "channel": 0}, {"type": "note_on", "time": 105, "note": 67, "velocity": 103, "channel": 0}, {"type": "note_off", "time": 91, "note": 67, "velocity": 103, "channel": 0}, {"type": "note_on", "time": 105, "note": 66, "velocity": 84, "channel": 0}, {"type": "note_off", "time": 44, "note": 66, "velocity": 84, "channel": 0}, {"type": "note_on", "time": 12, "note": 67, "velocity": 105, "channel": 0}, {"type": "note_off", "time": 88, "note": 67, "velocity": 105, "channel": 0}, {"type": "note_on", "time": 118, "note": 67, "velocity": 104, "channel": 0}, {"type": "note_off", "time": 93, "note": 67, "velocity": 104, "channel": 0}, {"type": "note_on", "time": 97, "note": 67, "velocity": 107, "channel": 0}, {"type": "note_off", "time": 140, "note": 67, "velocity": 107, "channel": 0}, {"type": "note_on", "time": 421, "note": 67, "velocity": 109, "channel": 0}, {"type": "note_off", "time": 81, "note": 67, "velocity": 109, "channel": 0}, {"type": "note_on", "time": 56, "note": 67, "velocity": 102, "channel": 0}, {"type": "note_off", "time": 86, "note": 67, "velocity": 102, "channel": 0}, {"type": "note_on", "time": 98, "note": 67, "velocity": 111, "channel": 0}, {"type": "note_off", "time": 83, "note": 67, "velocity": 111, "channel": 0}, {"type": "note_on", "time": 132, "note": 67, "velocity": 90, "channel": 0}, {"type": "note_off", "time": 68, "note": 67, "velocity": 90, "channel": 0}, {"type": "note_on", "time": 13, "note": 67, "velocity": 103, "channel": 0}, {"type": "note_off", "time": 128, "note": 67, "velocity": 103, "channel": 0}, {"type": "note_on", "time": 374, "note": 63, "velocity": 124, "channel": 0}, {"type": "note_off", "time": 103, "note": 63, "velocity": 124, "channel": 0}, {"type": "note_on", "time": 92, "note": 60, "velocity": 79, "channel": 0}, {"type": "note_off", "time": 27, "note": 60, "velocity": 79, "channel": 0}, {"type": "note_on", "time": 42, "note": 63, "velocity": 107, "channel": 0}, {"type": "note_off", "time": 231, "note": 63, "velocity": 107, "channel": 0}, {"type": "note_on", "time": 88, "note": 60, "velocity": 105, "channel": 0}, {"type": "note_off", "time": 78, "note": 60, "velocity": 105, "channel": 0}, {"type": "note_on", "time": 415, "note": 66, "velocity": 112, "channel": 0}, {"type": "note_off", "time": 95, "note": 66, "velocity": 112, "channel": 0}, {"type": "note_on", "time": 81, "note": 67, "velocity": 115, "channel": 0}, {"type": "note_off", "time": 81, "note": 67, "velocity": 115, "channel": 0}, {"type": "note_on", "time": 110, "note": 63, "velocity": 121, "channel": 0}, {"type": "note_off", "time": 91, "note": 63, "velocity": 121, "channel": 0}, {"type": "note_on", "time": 31, "note": 64, "velocity": 117, "channel": 0}, {"type": "note_off", "time": 68, "note": 64, "velocity": 117, "channel": 0}, {"type": "note_on", "time": 123, "note": 60, "velocity": 97, "channel": 0}, {"type": "note_off", "time": 287, "note": 60, "velocity": 97, "channel": 0}, {"type": "note_on", "time": 2, "note": 55, "velocity": 94, "channel": 0}, {"type": "note_off", "time": 63, "note": 55, "velocity": 94, "channel": 0}, {"type": "note_on", "time": 14, "note": 57, "velocity": 98, "channel": 0}, {"type": "note_off", "time": 71, "note": 57, "velocity": 98, "channel": 0}, {"type": "note_on", "time": 12, "note": 60, "velocity": 98, "channel": 0}, {"type": "note_off", "time": 95, "note": 60, "velocity": 98, "channel": 0}, {"type": "note_on", "time": 12, "note": 63, "velocity": 107, "channel": 0}, {"type": "note_off", "time": 71, "note": 63, "velocity": 107, "channel": 0}, {"type": "note_on", "time": 17, "note": 64, "velocity": 116, "channel": 0}, {"type": "note_off", "time": 113, "note": 64, "velocity": 116, "channel": 0}, {"type": "note_on", "time": 22, "note": 60, "velocity": 104, "channel": 0}, {"type": "note_off", "time": 51, "note": 60, "velocity": 104, "channel": 0}, {"type": "note_on", "time": 12, "note": 64, "velocity": 115, "channel": 0}, {"type": "note_off", "time": 123, "note": 64, "velocity": 115, "channel": 0}, {"type": "note_on", "time": 14, "note": 60, "velocity": 112, "channel": 0}, {"type": "note_off", "time": 61, "note": 60, "velocity": 112, "channel": 0}, {"type": "note_on", "time": 88, "note": 55, "velocity": 95, "channel": 0}, {"type": "note_off", "time": 103, "note": 55, "velocity": 95, "channel": 0}, {"type": "note_on", "time": 0, "note": 60, "velocity": 111, "channel": 0}, {"type": "note_off", "time": 95, "note": 60, "velocity": 111, "channel": 0}, {"type": "note_on", "time": 287, "note": 64, "velocity": 109, "channel": 0}, {"type": "note_off", "time": 88, "note": 64, "velocity": 109, "channel": 0}, {"type": "note_on", "time": 115, "note": 64, "velocity": 114, "channel": 0}, {"type": "note_off", "time": 103, "note": 64, "velocity": 114, "channel": 0}, {"type": "note_on", "time": 98, "note": 67, "velocity": 105, "channel": 0}, {"type": "note_off", "time": 189, "note": 67, "velocity": 105, "channel": 0}, {"type": "note_on", "time": 253, "note": 65, "velocity": 113, "channel": 0}, {"type": "note_off", "time": 118, "note": 65, "velocity": 113, "channel": 0}, {"type": "note_on", "time": 145, "note": 67, "velocity": 108, "channel": 0}, {"type": "note_off", "time": 98, "note": 67, "velocity": 108, "channel": 0}, {"type": "note_on", "time": 120, "note": 60, "velocity": 100, "channel": 0}, {"type": "note_off", "time": 98, "note": 60, "velocity": 100, "channel": 0}, {"type": "note_on", "time": 54, "note": 63, "velocity": 115, "channel": 0}, {"type": "note_off", "time": 108, "note": 63, "velocity": 115, "channel": 0}, {"type": "note_on", "time": 9, "note": 64, "velocity": 107, "channel": 0}, {"type": "note_off", "time": 95, "note": 64, "velocity": 107, "channel": 0}, {"type": "note_on", "time": 4, "note": 67, "velocity": 110, "channel": 0}, {"type": "note_off", "time": 66, "note": 67, "velocity": 110, "channel": 0}, {"type": "note_on", "time": 14, "note": 64, "velocity": 100, "channel": 0}, {"type": "note_off", "time": 76, "note": 64, "velocity": 100, "channel": 0}, {"type": "note_on", "time": 103, "note": 67, "velocity": 98, "channel": 0}, {"type": "note_off", "time": 238, "note": 67, "velocity": 98, "channel": 0}, {"type": "note_on", "time": 182, "note": 65, "velocity": 107, "channel": 0}, {"type": "note_off", "time": 246, "note": 65, "velocity": 107, "channel": 0}, {"type": "note_on", "time": 23, "note": 62, "velocity": 90, "channel": 0}, {"type": "note_off", "time": 55, "note": 62, "velocity": 90, "channel": 0}, {"type": "note_on", "time": 4, "note": 67, "velocity": 109, "channel": 0}, {"type": "note_off", "time": 71, "note": 67, "velocity": 109, "channel": 0}, {"type": "note_on", "time": 120, "note": 60, "velocity": 108, "channel": 0}, {"type": "note_off", "time": 76, "note": 60, "velocity": 108, "channel": 0}, {"type": "note_on", "time": 113, "note": 63, "velocity": 121, "channel": 0}, {"type": "note_off", "time": 63, "note": 63, "velocity": 121, "channel": 0}, {"type": "note_on", "time": 27, "note": 64, "velocity": 113, "channel": 0}, {"type": "note_off", "time": 98, "note": 64, "velocity": 113, "channel": 0}, {"type": "note_on", "time": 0, "note": 67, "velocity": 114, "channel": 0}, {"type": "note_off", "time": 61, "note": 67, "velocity": 114, "channel": 0}, {"type": "note_on", "time": 11, "note": 64, "velocity": 98, "channel": 0}, {"type": "note_off", "time": 160, "note": 64, "velocity": 98, "channel": 0}, {"type": "note_on", "time": 48, "note": 67, "velocity": 101, "channel": 0}, {"type": "note_off", "time": 211, "note": 67, "velocity": 101, "channel": 0}, {"type": "note_on", "time": 221, "note": 65, "velocity": 114, "channel": 0}, {"type": "note_off", "time": 93, "note": 65, "velocity": 114, "channel": 0}, {"type": "note_on", "time": 164, "note": 67, "velocity": 108, "channel": 0}, {"type": "note_off", "time": 86, "note": 67, "velocity": 108, "channel": 0}, {"type": "note_on", "time": 113, "note": 60, "velocity": 107, "channel": 0}, {"type": "note_off", "time": 78, "note": 60, "velocity": 107, "channel": 0}, {"type": "note_on", "time": 93, "note": 63, "velocity": 118, "channel": 0}, {"type": "note_off", "time": 66, "note": 63, "velocity": 118, "channel": 0}, {"type": "note_on", "time": 36, "note": 64, "velocity": 116, "channel": 0}, {"type": "note_off", "time": 115, "note": 64, "velocity": 116, "channel": 0}, {"type": "note_on", "time": 14, "note": 60, "velocity": 112, "channel": 0}, {"type": "note_off", "time": 61, "note": 60, "velocity": 112, "channel": 0}, {"type": "note_on", "time": 12, "note": 55, "velocity": 99, "channel": 0}, {"type": "note_off", "time": 88, "note": 55, "velocity": 99, "channel": 0}, {"type": "note_on", "time": 17, "note": 53, "velocity": 97, "channel": 0}, {"type": "note_off", "time": 86, "note": 53, "velocity": 97, "channel": 0}, {"type": "note_on", "time": 7, "note": 58, "velocity": 106, "channel": 0}, {"type": "note_off", "time": 44, "note": 58, "velocity": 106, "channel": 0}, {"type": "note_on", "time": 17, "note": 59, "velocity": 103, "channel": 0}, {"type": "note_off", "time": 93, "note": 59, "velocity": 103, "channel": 0}, {"type": "note_on", "time": 4, "note": 60, "velocity": 111, "channel": 0}, {"type": "note_off", "time": 103, "note": 60, "velocity": 111, "channel": 0}, {"type": "note_on", "time": 221, "note": 55, "velocity": 98, "channel": 0}, {"type": "note_off", "time": 93, "note": 55, "velocity": 98, "channel": 0}, {"type": "note_on", "time": 95, "note": 57, "velocity": 100, "channel": 0}, {"type": "note_off", "time": 93, "note": 57, "velocity": 100, "channel": 0}, {"type": "note_on", "time": 113, "note": 60, "velocity": 111, "channel": 0}, {"type": "note_off", "time": 98, "note": 60, "velocity": 111, "channel": 0}, {"type": "note_on", "time": 159, "note": 63, "velocity": 93, "channel": 0}, {"type": "note_off", "time": 68, "note": 63, "velocity": 93, "channel": 0}, {"type": "note_on", "time": 7, "note": 65, "velocity": 111, "channel": 0}, {"type": "note_off", "time": 17, "note": 65, "velocity": 111, "channel": 0}, {"type": "note_on", "time": 12, "note": 66, "velocity": 105, "channel": 0}, {"type": "note_off", "time": 76, "note": 66, "velocity": 105, "channel": 0}, {"type": "note_on", "time": 73, "note": 67, "velocity": 106, "channel": 0}, {"type": "note_off", "time": 260, "note": 67, "velocity": 106, "channel": 0}, {"type": "note_on", "time": 2, "note": 64, "velocity": 110, "channel": 0}, {"type": "note_off", "time": 199, "note": 64, "velocity": 110, "channel": 0}, {"type": "note_on", "time": 9, "note": 60, "velocity": 93, "channel": 0}, {"type": "note_off", "time": 125, "note": 60, "velocity": 93, "channel": 0}, {"type": "note_on", "time": 7, "note": 55, "velocity": 92, "channel": 0}, {"type": "note_off", "time": 155, "note": 55, "velocity": 92, "channel": 0}, {"type": "note_on", "time": 24, "note": 58, "velocity": 92, "channel": 0}, {"type": "note_off", "time": 140, "note": 58, "velocity": 92, "channel": 0}, {"type": "note_on", "time": 27, "note": 55, "velocity": 81, "channel": 0}, {"type": "note_off", "time": 103, "note": 55, "velocity": 81, "channel": 0}, {"type": "note_on", "time": 24, "note": 58, "velocity": 70, "channel": 0}, {"type": "note_off", "time": 1523, "note": 58, "velocity": 70, "channel": 0}, {"type": "end_of_track", "time": 0}]]}