{"ticks_per_beat": 192, "tracks": [[{"type": "track_name", "name": "Melody", "time": 0}, {"type": "set_tempo", "tempo": 491803, "time": 0}, {"type": "key_signature", "key": "F", "time": 0}, {"type": "time_signature", "numerator": 4, "denominator": 4, "clocks_per_click": 24, "notated_32nd_notes_per_beat": 8, "time": 0}, {"type": "note_on", "time": 1392, "note": 67, "velocity": 95, "channel": 0}, {"type": "note_off", "time": 36, "note": 67, "velocity": 95, "channel": 0}, {"type": "note_on", "time": 13, "note": 68, "velocity": 104, "channel": 0}, {"type": "note_off", "time": 1239, "note": 68, "velocity": 104, "channel": 0}, {"type": "note_on", "time": 19, "note": 65, "velocity": 115, "channel": 0}, {"type": "note_off", "time": 49, "note": 65, "velocity": 115, "channel": 0}, {"type": "note_on", "time": 7, "note": 60, "velocity": 113, "channel": 0}, {"type": "note_off", "time": 43, "note": 60, "velocity": 113, "channel": 0}, {"type": "note_on", "time": 9, "note": 62, "velocity": 114, "channel": 0}, {"type": "note_off", "time": 60, "note": 62, "velocity": 114, "channel": 0}, {"type": "note_on", "time": 3, "note": 65, "velocity": 118, "channel": 0}, {"type": "note_off", "time": 50, "note": 65, "velocity": 118, "channel": 0}, {"type": "note_on", "time": 11, "note": 68, "velocity": 113, "channel": 0}, {"type": "note_off", "time": 89, "note": 68, "velocity": 113, "channel": 0}, {"type": "note_on", "time": 490, "note": 67, "velocity": 110, "channel": 0}, {"type": "note_off", "time": 22, "note": 67, "velocity": 110, "channel": 0}, {"type": "note_on", "time": 2, "note": 68, "velocity": 112, "channel": 0}, {"type": "note_off", "time": 332, "note": 68, "velocity": 112, "channel": 0}, {"type": "note_on", "time": 0, "note": 65, "velocity": 115, "channel": 0}, {"type": "note_off", "time": 55, "note": 65, "velocity": 115, "channel": 0}, {"type": "note_on", "time": 3, "note": 60, "velocity": 106, "channel": 0}, {"type": "note_off", "time": 29, "note": 60, "velocity": 106, "channel": 0}, {"type": "note_on", "time": 6, "note": 67, "velocity": 112, "channel": 0}, {"type": "note_off", "time": 46, "note": 67, "velocity": 112, "channel": 0}, {"type": "note_on", "time": 4, "note": 65, "velocity": 117, "channel": 0}, {"type": "note_off", "time": 31, "note": 65, "velocity": 117, "channel": 0}, {"type": "note_on", "time": 11, "note": 60, "velocity": 111, "channel": 0}, {"type": "note_off", "time": 53, "note": 60, "velocity": 111, "channel": 0}, {"type": "note_on", "time": 2, "note": 58, "velocity": 105, "channel": 0}, {"type": "note_off", "time": 26, "note": 58, "velocity": 105, "channel": 0}, {"type": "note_on", "time": 2, "note": 63, "velocity": 118, "channel": 0}, {"type": "note_off", "time": 53, "note": 63, "velocity": 118, "channel": 0}, {"type": "note_on", "time": 3, "note": 61, "velocity": 105, "channel": 0}, {"type": "note_off", "time": 27, "note": 61, "velocity": 105, "channel": 0}, {"type": "note_on", "time": 6, "note": 62, "velocity": 113, "channel": 0}, {"type": "note_off", "time": 50, "note": 62, "velocity": 113, "channel": 0}, {"type": "note_on", "time": 2, "note": 58, "velocity": 106, "channel": 0}, {"type": "note_off", "time": 31, "note": 58, "velocity": 106, "channel": 0}, {"type": "note_on", "time": 16, "note": 53, "velocity": 109, "channel": 0}, {"type": "note_off", "time": 61, "note": 53, "velocity": 109, "channel": 0}, {"type": "note_on", "time": 7, "note": 51, "velocity": 95, "channel": 0}, {"type": "note_off", "time": 27, "note": 51, "velocity": 95, "channel": 0}, {"type": "note_on", "time": 5, "note": 53, "velocity": 107, "channel": 0}, {"type": "note_off", "time": 41, "note": 53, "velocity": 107, "channel": 0}, {"type": "note_on", "time": 5, "note": 56, "velocity": 106, "channel": 0}, {"type": "note_off", "time": 46, "note": 56, "velocity": 106, "channel": 0}, {"type": "note_on", "time": 9, "note": 51, "velocity": 109, "channel": 0}, {"type": "note_off", "time": 36, "note": 51, "velocity": 109, "channel": 0}, {"type": "note_on", "time": 7, "note": 53, "velocity": 105, "channel": 0}, {"type": "note_off", "time": 41, "note": 53, "velocity": 105, "channel": 0}, {"type": "note_on", "time": 4, "note": 58, "velocity": 102, "channel": 0}, {"type": "note_off", "time": 31, "note": 58, "velocity": 102, "channel": 0}, {"type": "note_on", "time": 6, "note": 62, "velocity": 112, "channel": 0}, {"type": "note_off", "time": 48, "note": 62, "velocity": 112, "channel": 0}, {"type": "note_on", "time": 5, "note": 60, "velocity": 113, "channel": 0}, {"type": "note_off", "time": 29, "note": 60, "velocity": 113, "channel": 0}, {"type": "note_on", "time": 7, "note": 62, "velocity": 107, "channel": 0}, {"type": "note_off", "time": 39, "note": 62, "velocity": 107, "channel": 0}, {"type": "note_on", "time": 10, "note": 63, "velocity": 115, "channel": 0}, {"type": "note_off", "time": 40, "note": 63, "velocity": 115, "channel": 0}, {"type": "note_on", "time": 5, "note": 65, "velocity": 108, "channel": 0}, {"type": "note_off", "time": 27, "note": 65, "velocity": 108, "channel": 0}, {"type": "note_on", "time": 1, "note": 62, "velocity": 109, "channel": 0}, {"type": "note_off", "time": 79, "note": 62, "velocity": 109, "channel": 0}, {"type": "note_on", "time": 131, "note": 68, "velocity": 112, "channel": 0}, {"type": "note_off", "time": 140, "note": 68, "velocity": 112, "channel": 0}, {"type": "note_on", "time": 223, "note": 68, "velocity": 119, "channel": 0}, {"type": "note_off", "time": 130, "note": 68, "velocity": 119, "channel": 0}, {"type": "note_on", "time": 219, "note": 68, "velocity": 115, "channel": 0}, {"type": "note_off", "time": 57, "note": 68, "velocity": 115, "channel": 0}, {"type": "note_on", "time": 126, "note": 68, "velocity": 120, "channel": 0}, {"type": "note_off", "time": 52, "note": 68, "velocity": 120, "channel": 0}, {"type": "note_on", "time": 139, "note": 67, "velocity": 111, "channel": 0}, {"type": "note_off", "time": 65, "note": 67, "velocity": 111, "channel": 0}, {"type": "note_on", "time": 15, "note": 65, "velocity": 112, "channel": 0}, {"type": "note_off", "time": 81, "note": 65, "velocity": 112, "channel": 0}, {"type": "note_on", "time": 7, "note": 68, "velocity": 98, "channel": 0}, {"type": "note_off", "time": 27, "note": 68, "velocity": 98, "channel": 0}, {"type": "note_on", "time": 6, "note": 65, "velocity": 114, "channel": 0}, {"type": "note_on", "time": 41, "note": 62, "velocity": 113, "channel": 0}, {"type": "note_off", "time": 0, "note": 65, "velocity": 114, "channel": 0}, {"type": "note_off", "time": 84, "note": 62, "velocity": 113, "channel": 0}, {"type": "note_on", "time": 111, "note": 68, "velocity": 112, "channel": 0}, {"type": "note_off", "time": 111, "note": 68, "velocity": 112, "channel": 0}, {"type": "note_on", "time": 13, "note": 68, "velocity": 112, "channel": 0}, {"type": "note_off", "time": 47, "note": 68, "velocity": 112, "channel": 0}, {"type": "note_on", "time": 35, "note": 67, "velocity": 111, "channel": 0}, {"type": "note_off", "time": 19, "note": 67, "velocity": 111, "channel": 0}, {"type": "note_on", "time": 6, "note": 68, "velocity": 107, "channel": 0}, {"type": "note_off", "time": 71, "note": 68, "velocity": 107, "channel": 0}, {"type": "note_on", "time": 19, "note": 68, "velocity": 110, "channel": 0}, {"type": "note_off", "time": 56, "note": 68, "velocity": 110, "channel": 0}, {"type": "note_on", "time": 64, "note": 68, "velocity": 112, "channel": 0}, {"type": "note_off", "time": 63, "note": 68, "velocity": 112, "channel": 0}, {"type": "note_on", "time": 87, "note": 68, "velocity": 116, "channel": 0}, {"type": "note_off", "time": 69, "note": 68, "velocity": 116, "channel": 0}, {"type": "note_on", "time": 134, "note": 67, "velocity": 114, "channel": 0}, {"type": "note_off", "time": 13, "note": 67, "velocity": 114, "channel": 0}, {"type": "note_on", "time": 4, "note": 68, "velocity": 111, "channel": 0}, {"type": "note_off", "time": 58, "note": 68, "velocity": 111, "channel": 0}, {"type": "note_on", "time": 105, "note": 68, "velocity": 107, "channel": 0}, {"type": "note_off", "time": 60, "note": 68, "velocity": 107, "channel": 0}, {"type": "note_on", "time": 140, "note": 67, "velocity": 105, "channel": 0}, {"type": "note_off", "time": 30, "note": 67, "velocity": 105, "channel": 0}, {"type": "note_on", "time": 9, "note": 68, "velocity": 106, "channel": 0}, {"type": "note_off", "time": 73, "note": 68, "velocity": 106, "channel": 0}, {"type": "note_on", "time": 16, "note": 68, "velocity": 109, "channel": 0}, {"type": "note_off", "time": 47, "note": 68, "velocity": 109, "channel": 0}, {"type": "note_on", "time": 145, "note": 62, "velocity": 109, "channel": 0}, {"type": "note_off", "time": 45, "note": 62, "velocity": 109, "channel": 0}, {"type": "note_on", "time": 147, "note": 65, "velocity": 116, "channel": 0}, {"type": "note_off", "time": 46, "note": 65, "velocity": 116, "channel": 0}, {"type": "note_on", "time": 201, "note": 65, "velocity": 104, "channel": 0}, {"type": "note_off", "time": 73, "note": 65, "velocity": 104, "channel": 0}, {"type": "note_on", "time": 114, "note": 65, "velocity": 107, "channel": 0}, {"type": "note_off", "time": 84, "note": 65, "velocity": 107, "channel": 0}, {"type": "note_on", "time": 126, "note": 67, "velocity": 112, "channel": 0}, {"type": "note_off", "time": 33, "note": 67, "velocity": 112, "channel": 0}, {"type": "note_on", "time": 12, "note": 68, "velocity": 106, "channel": 0}, {"type": "note_off", "time": 64, "note": 68, "velocity": 106, "channel": 0}, {"type": "note_on", "time": 3, "note": 65, "velocity": 109, "channel": 0}, {"type": "note_off", "time": 65, "note": 65, "velocity": 109, "channel": 0}, {"type": "note_on", "time": 4, "note": 63, "velocity": 94, "channel": 0}, {"type": "note_off", "time": 114, "note": 63, "velocity": 94, "channel": 0}, {"type": "note_on", "time": 12, "note": 60, "velocity": 109, "channel": 0}, {"type": "note_off", "time": 52, "note": 60, "velocity": 109, "channel": 0}, {"type": "note_on", "time": 5, "note": 58, "velocity": 95, "channel": 0}, {"type": "note_off", "time": 125, "note": 58, "velocity": 95, "channel": 0}, {"type": "note_on", "time": 23, "note": 53, "velocity": 91, "channel": 0}, {"type": "note_off", "time": 37, "note": 53, "velocity": 91, "channel": 0}, {"type": "note_on", "time": 21, "note": 55, "velocity": 95, "channel": 0}, {"type": "note_off", "time": 21, "note": 55, "velocity": 95, "channel": 0}, {"type": "note_on", "time": 10, "note": 57, "velocity": 96, "channel": 0}, {"type": "note_off", "time": 78, "note": 57, "velocity": 96, "channel": 0}, {"type": "note_on", "time": 72, "note": 53, "velocity": 92, "channel": 0}, {"type": "note_off", "time": 123, "note": 53, "velocity": 92, "channel": 0}, {"type": "note_on", "time": 20, "note": 53, "velocity": 92, "channel": 0}, {"type": "note_off", "time": 27, "note": 53, "velocity": 92, "channel": 0}, {"type": "note_on", "time": 778, "note": 56, "velocity": 107, "channel": 0}, {"type": "note_off", "time": 27, "note": 56, "velocity": 107, "channel": 0}, {"type": "note_on", "time": 6, "note": 57, "velocity": 102, "channel": 0}, {"type": "note_off", "time": 64, "note": 57, "velocity": 102, "channel": 0}, {"type": "note_on", "time": 14, "note": 60, "velocity": 115, "channel": 0}, {"type": "note_off", "time": 60, "note": 60, "velocity": 115, "channel": 0}, {"type": "note_on", "time": 15, "note": 62, "velocity": 113, "channel": 0}, {"type": "note_off", "time": 117, "note": 62, "velocity": 113, "channel": 0}, {"type": "note_on", "time": 11, "note": 60, "velocity": 104, "channel": 0}, {"type": "note_off", "time": 48, "note": 60, "velocity": 104, "channel": 0}, {"type": "note_on", "time": 10, "note": 62, "velocity": 113, "channel": 0}, {"type": "note_off", "time": 130, "note": 62, "velocity": 113, "channel": 0}, {"type": "note_on", "time": 15, "note": 60, "velocity": 102, "channel": 0}, {"type": "note_off", "time": 46, "note": 60, "velocity": 102, "channel": 0}, {"type": "note_on", "time": 22, "note": 63, "velocity": 115, "channel": 0}, {"type": "note_off", "time": 90, "note": 63, "velocity": 115, "channel": 0}, {"type": "note_on", "time": 278, "note": 60, "velocity": 98, "channel": 0}, {"type": "note_off", "time": 188, "note": 60, "velocity": 98, "channel": 0}, {"type": "note_on", "time": 197, "note": 62, "velocity": 100, "channel": 0}, {"type": "note_off", "time": 113, "note": 62, "velocity": 100, "channel": 0}, {"type": "note_on", "time": 15, "note": 65, "velocity": 92, "channel": 0}, {"type": "note_off", "time": 47, "note": 65, "velocity": 92, "channel": 0}, {"type": "note_on", "time": 14, "note": 67, "velocity": 104, "channel": 0}, {"type": "note_off", "time": 63, "note": 67, "velocity": 104, "channel": 0}, {"type": "note_on", "time": 135, "note": 67, "velocity": 113, "channel": 0}, {"type": "note_off", "time": 28, "note": 67, "velocity": 113, "channel": 0}, {"type": "note_on", "time": 3, "note": 68, "velocity": 115, "channel": 0}, {"type": "note_off", "time": 100, "note": 68, "velocity": 115, "channel": 0}, {"type": "note_on", "time": 3, "note": 65, "velocity": 112, "channel": 0}, {"type": "note_off", "time": 38, "note": 65, "velocity": 112, "channel": 0}, {"type": "note_on", "time": 7, "note": 68, "velocity": 114, "channel": 0}, {"type": "note_off", "time": 39, "note": 68, "velocity": 114, "channel": 0}, {"type": "note_on", "time": 6, "note": 65, "velocity": 110, "channel": 0}, {"type": "note_off", "time": 15, "note": 65, "velocity": 110, "channel": 0}, {"type": "note_on", "time": 7, "note": 68, "velocity": 113, "channel": 0}, {"type": "note_off", "time": 38, "note": 68, "velocity": 113, "channel": 0}, {"type": "note_on", "time": 6, "note": 65, "velocity": 107, "channel": 0}, {"type": "note_off", "time": 23, "note": 65, "velocity": 107, "channel": 0}, {"type": "note_on", "time": 4, "note": 68, "velocity": 111, "channel": 0}, {"type": "note_off", "time": 35, "note": 68, "velocity": 111, "channel": 0}, {"type": "note_on", "time": 7, "note": 65, "velocity": 115, "channel": 0}, {"type": "note_off", "time": 17, "note": 65, "velocity": 115, "channel": 0}, {"type": "note_on", "time": 7, "note": 68, "velocity": 111, "channel": 0}, {"type": "note_off", "time": 33, "note": 68, "velocity": 111, "channel": 0}, {"type": "note_on", "time": 4, "note": 65, "velocity": 113, "channel": 0}, {"type": "note_off", "time": 19, "note": 65, "velocity": 113, "channel": 0}, {"type": "note_on", "time": 7, "note": 68, "velocity": 104, "channel": 0}, {"type": "note_off", "time": 30, "note": 68, "velocity": 104, "channel": 0}, {"type": "note_on", "time": 7, "note": 65, "velocity": 113, "channel": 0}, {"type": "note_off", "time": 19, "note": 65, "velocity": 113, "channel": 0}, {"type": "note_on", "time": 12, "note": 68, "velocity": 105, "channel": 0}, {"type": "note_off", "time": 28, "note": 68, "velocity": 105, "channel": 0}, {"type": "note_on", "time": 7, "note": 65, "velocity": 111, "channel": 0}, {"type": "note_off", "time": 19, "note": 65, "velocity": 111, "channel": 0}, {"type": "note_on", "time": 7, "note": 68, "velocity": 103, "channel": 0}, {"type": "note_off", "time": 30, "note": 68, "velocity": 103, "channel": 0}, {"type": "note_on", "time": 3, "note": 65, "velocity": 104, "channel": 0}, {"type": "note_off", "time": 14, "note": 65, "velocity": 104, "channel": 0}, {"type": "note_on", "time": 15, "note": 68, "velocity": 103, "channel": 0}, {"type": "note_off", "time": 25, "note": 68, "velocity": 103, "channel": 0}, {"type": "note_on", "time": 7, "note": 65, "velocity": 100, "channel": 0}, {"type": "note_off", "time": 19, "note": 65, "velocity": 100, "channel": 0}, {"type": "note_on", "time": 7, "note": 68, "velocity": 100, "channel": 0}, {"type": "note_off", "time": 20, "note": 68, "velocity": 100, "channel": 0}, {"type": "note_on", "time": 4, "note": 65, "velocity": 99, "channel": 0}, {"type": "note_off", "time": 14, "note": 65, "velocity": 99, "channel": 0}, {"type": "note_on", "time": 4, "note": 62, "velocity": 109, "channel": 0}, {"type": "note_off", "time": 70, "note": 62, "velocity": 109, "channel": 0}, {"type": "note_on", "time": 4, "note": 60, "velocity": 108, "channel": 0}, {"type": "note_off", "time": 43, "note": 60, "velocity": 108, "channel": 0}, {"type": "note_on", "time": 962, "note": 71, "velocity": 121, "channel": 0}, {"type": "note_off", "time": 27, "note": 71, "velocity": 121, "channel": 0}, {"type": "note_on", "time": 3, "note": 72, "velocity": 127, "channel": 0}, {"type": "note_off", "time": 27, "note": 72, "velocity": 127, "channel": 0}, {"type": "note_on", "time": 125, "note": 71, "velocity": 122, "channel": 0}, {"type": "note_off", "time": 52, "note": 71, "velocity": 122, "channel": 0}, {"type": "note_on", "time": 129, "note": 70, "velocity": 117, "channel": 0}, {"type": "note_off", "time": 65, "note": 70, "velocity": 117, "channel": 0}, {"type": "note_on", "time": 148, "note": 68, "velocity": 113, "channel": 0}, {"type": "note_off", "time": 82, "note": 68, "velocity": 113, "channel": 0}, {"type": "note_on", "time": 12, "note": 71, "velocity": 91, "channel": 0}, {"type": "note_off", "time": 22, "note": 71, "velocity": 91, "channel": 0}, {"type": "note_on", "time": 10, "note": 68, "velocity": 90, "channel": 0}, {"type": "note_off", "time": 54, "note": 68, "velocity": 90, "channel": 0}, {"type": "note_on", "time": 28, "note": 65, "velocity": 100, "channel": 0}, {"type": "note_off", "time": 38, "note": 65, "velocity": 100, "channel": 0}, {"type": "note_on", "time": 19, "note": 67, "velocity": 111, "channel": 0}, {"type": "note_off", "time": 97, "note": 67, "velocity": 111, "channel": 0}, {"type": "note_on", "time": 15, "note": 65, "velocity": 116, "channel": 0}, {"type": "note_off", "time": 55, "note": 65, "velocity": 116, "channel": 0}, {"type": "note_on", "time": 9, "note": 62, "velocity": 123, "channel": 0}, {"type": "note_off", "time": 25, "note": 62, "velocity": 123, "channel": 0}, {"type": "note_on", "time": 15, "note": 63, "velocity": 114, "channel": 0}, {"type": "note_off", "time": 84, "note": 63, "velocity": 114, "channel": 0}, {"type": "note_on", "time": 11, "note": 60, "velocity": 112, "channel": 0}, {"type": "note_off", "time": 49, "note": 60, "velocity": 112, "channel": 0}, {"type": "note_on", "time": 23, "note": 58, "velocity": 105, "channel": 0}, {"type": "note_off", "time": 58, "note": 58, "velocity": 105, "channel": 0}, {"type": "note_on", "time": 127, "note": 53, "velocity": 102, "channel": 0}, {"type": "note_off", "time": 52, "note": 53, "velocity": 102, "channel": 0}, {"type": "note_on", "time": 146, "note": 57, "velocity": 103, "channel": 0}, {"type": "note_off", "time": 92, "note": 57, "velocity": 103, "channel": 0}, {"type": "note_on", "time": 97, "note": 58, "velocity": 102, "channel": 0}, {"type": "note_off", "time": 74, "note": 58, "velocity": 102, "channel": 0}, {"type": "note_on", "time": 41, "note": 59, "velocity": 95, "channel": 0}, {"type": "note_off", "time": 58, "note": 59, "velocity": 95, "channel": 0}, {"type": "note_on", "time": 43, "note": 60, "velocity": 108, "channel": 0}, {"type": "note_off", "time": 76, "note": 60, "velocity": 108, "channel": 0}, {"type": "note_on", "time": 14, "note": 62, "velocity": 104, "channel": 0}, {"type": "note_off", "time": 44, "note": 62, "velocity": 104, "channel": 0}, {"type": "note_on", "time": 25, "note": 60, "velocity": 105, "channel": 0}, {"type": "note_off", "time": 95, "note": 60, "velocity": 105, "channel": 0}, {"type": "note_on", "time": 122, "note": 52, "velocity": 106, "channel": 0}, {"type": "note_off", "time": 86, "note": 52, "velocity": 106, "channel": 0}, {"type": "note_on", "time": 7, "note": 53, "velocity": 101, "channel": 0}, {"type": "note_off", "time": 41, "note": 53, "velocity": 101, "channel": 0}, {"type": "note_on", "time": 58, "note": 55, "velocity": 98, "channel": 0}, {"type": "note_off", "time": 54, "note": 55, "velocity": 98, "channel": 0}, {"type": "note_on", "time": 54, "note": 56, "velocity": 100, "channel": 0}, {"type": "note_off", "time": 57, "note": 56, "velocity": 100, "channel": 0}, {"type": "note_on", "time": 47, "note": 57, "velocity": 99, "channel": 0}, {"type": "note_off", "time": 92, "note": 57, "velocity": 99, "channel": 0}, {"type": "note_on", "time": 12, "note": 58, "velocity": 98, "channel": 0}, {"type": "note_off", "time": 70, "note": 58, "velocity": 98, "channel": 0}, {"type": "note_on", "time": 25, "note": 57, "velocity": 105, "channel": 0}, {"type": "note_off", "time": 55, "note": 57, "velocity": 105, "channel": 0}, {"type": "note_on", "time": 11, "note": 54, "velocity": 93, "channel": 0}, {"type": "note_off", "time": 55, "note": 54, "velocity": 93, "channel": 0}, {"type": "note_on", "time": 15, "note": 57, "velocity": 105, "channel": 0}, {"type": "note_off", "time": 66, "note": 57, "velocity": 105, "channel": 0}, {"type": "note_on", "time": 7, "note": 55, "velocity": 98, "channel": 0}, {"type": "note_off", "time": 46, "note": 55, "velocity": 98, "channel": 0}, {"type": "note_on", "time": 6, "note": 57, "velocity": 89, "channel": 0}, {"type": "note_off", "time": 30, "note": 57, "velocity": 89, "channel": 0}, {"type": "note_on", "time": 6, "note": 55, "velocity": 95, "channel": 0}, {"type": "note_off", "time": 35, "note": 55, "velocity": 95, "channel": 0}, {"type": "note_on", "time": 11, "note": 54, "velocity": 97, "channel": 0}, {"type": "note_off", "time": 46, "note": 54, "velocity": 97, "channel": 0}, {"type": "note_on", "time": 8, "note": 55, "velocity": 90, "channel": 0}, {"type": "note_off", "time": 154, "note": 55, "velocity": 90, "channel": 0}, {"type": "note_on", "time": 173, "note": 58, "velocity": 103, "channel": 0}, {"type": "note_off", "time": 30, "note": 58, "velocity": 103, "channel": 0}, {"type": "note_on", "time": 0, "note": 60, "velocity": 102, "channel": 0}, {"type": "note_off", "time": 52, "note": 60, "velocity": 102, "channel": 0}, {"type": "note_on", "time": 15, "note": 58, "velocity": 104, "channel": 0}, {"type": "note_off", "time": 41, "note": 58, "velocity": 104, "channel": 0}, {"type": "note_on", "time": 14, "note": 58, "velocity": 101, "channel": 0}, {"type": "note_off", "time": 36, "note": 58, "velocity": 101, "channel": 0}, {"type": "note_on", "time": 11, "note": 57, "velocity": 100, "channel": 0}, {"type": "note_off", "time": 60, "note": 57, "velocity": 100, "channel": 0}, {"type": "note_on", "time": 12, "note": 59, "velocity": 91, "channel": 0}, {"type": "note_off", "time": 138, "note": 59, "velocity": 91, "channel": 0}, {"type": "note_on", "time": 253, "note": 67, "velocity": 116, "channel": 0}, {"type": "note_off", "time": 20, "note": 67, "velocity": 116, "channel": 0}, {"type": "note_on", "time": 15, "note": 69, "velocity": 113, "channel": 0}, {"type": "note_off", "time": 81, "note": 69, "velocity": 113, "channel": 0}, {"type": "note_on", "time": 7, "note": 67, "velocity": 110, "channel": 0}, {"type": "note_off", "time": 49, "note": 67, "velocity": 110, "channel": 0}, {"type": "note_on", "time": 23, "note": 67, "velocity": 108, "channel": 0}, {"type": "note_off", "time": 55, "note": 67, "velocity": 108, "channel": 0}, {"type": "note_on", "time": 11, "note": 65, "velocity": 106, "channel": 0}, {"type": "note_off", "time": 44, "note": 65, "velocity": 106, "channel": 0}, {"type": "note_on", "time": 15, "note": 67, "velocity": 97, "channel": 0}, {"type": "note_off", "time": 285, "note": 67, "velocity": 97, "channel": 0}, {"type": "note_on", "time": 3, "note": 64, "velocity": 96, "channel": 0}, {"type": "note_off", "time": 36, "note": 64, "velocity": 96, "channel": 0}, {"type": "note_on", "time": 7, "note": 65, "velocity": 109, "channel": 0}, {"type": "note_off", "time": 47, "note": 65, "velocity": 109, "channel": 0}, {"type": "note_on", "time": 15, "note": 62, "velocity": 96, "channel": 0}, {"type": "note_off", "time": 44, "note": 62, "velocity": 96, "channel": 0}, {"type": "note_on", "time": 70, "note": 64, "velocity": 106, "channel": 0}, {"type": "note_off", "time": 49, "note": 64, "velocity": 106, "channel": 0}, {"type": "note_on", "time": 9, "note": 60, "velocity": 101, "channel": 0}, {"type": "note_off", "time": 38, "note": 60, "velocity": 101, "channel": 0}, {"type": "note_on", "time": 95, "note": 62, "velocity": 102, "channel": 0}, {"type": "note_off", "time": 60, "note": 62, "velocity": 102, "channel": 0}, {"type": "note_on", "time": 15, "note": 58, "velocity": 94, "channel": 0}, {"type": "note_off", "time": 36, "note": 58, "velocity": 94, "channel": 0}, {"type": "note_on", "time": 82, "note": 60, "velocity": 108, "channel": 0}, {"type": "note_off", "time": 49, "note": 60, "velocity": 108, "channel": 0}, {"type": "note_on", "time": 12, "note": 57, "velocity": 100, "channel": 0}, {"type": "note_off", "time": 55, "note": 57, "velocity": 100, "channel": 0}, {"type": "note_on", "time": 79, "note": 58, "velocity": 102, "channel": 0}, {"type": "note_off", "time": 47, "note": 58, "velocity": 102, "channel": 0}, {"type": "note_on", "time": 15, "note": 55, "velocity": 96, "channel": 0}, {"type": "note_off", "time": 41, "note": 55, "velocity": 96, "channel": 0}, {"type": "note_on", "time": 87, "note": 53, "velocity": 108, "channel": 0}, {"type": "note_off", "time": 374, "note": 53, "velocity": 108, "channel": 0}, {"type": "end_of_track", "time": 0}]]}