{"ticks_per_beat": 2520, "tracks": [[{"type": "track_name", "name": "Melody", "time": 0}, {"type": "set_tempo", "tempo": 476190, "time": 0}, {"type": "key_signature", "key": "F", "time": 0}, {"type": "time_signature", "numerator": 4, "denominator": 4, "clocks_per_click": 24, "notated_32nd_notes_per_beat": 8, "time": 0}, {"type": "note_on", "time": 47282, "note": 67, "velocity": 73, "channel": 0}, {"type": "note_off", "time": 216, "note": 67, "velocity": 73, "channel": 0}, {"type": "note_on", "time": 21, "note": 68, "velocity": 116, "channel": 0}, {"type": "note_off", "time": 5227, "note": 68, "velocity": 116, "channel": 0}, {"type": "note_on", "time": 4492, "note": 65, "velocity": 111, "channel": 0}, {"type": "note_off", "time": 4989, "note": 65, "velocity": 111, "channel": 0}, {"type": "note_on", "time": 2656, "note": 60, "velocity": 114, "channel": 0}, {"type": "note_off", "time": 1814, "note": 60, "velocity": 114, "channel": 0}, {"type": "note_on", "time": 3218, "note": 62, "velocity": 114, "channel": 0}, {"type": "note_off", "time": 1663, "note": 62, "velocity": 114, "channel": 0}, {"type": "note_on", "time": 3369, "note": 53, "velocity": 102, "channel": 0}, {"type": "note_off", "time": 1555, "note": 53, "velocity": 102, "channel": 0}, {"type": "note_on", "time": 108, "note": 55, "velocity": 94, "channel": 0}, {"type": "note_off", "time": 648, "note": 55, "velocity": 94, "channel": 0}, {"type": "note_on", "time": 2829, "note": 68, "velocity": 109, "channel": 0}, {"type": "note_off", "time": 4687, "note": 68, "velocity": 109, "channel": 0}, {"type": "note_on", "time": 2618, "note": 60, "velocity": 118, "channel": 0}, {"type": "note_off", "time": 1198, "note": 60, "velocity": 118, "channel": 0}, {"type": "note_on", "time": 1259, "note": 62, "velocity": 110, "channel": 0}, {"type": "note_off", "time": 3607, "note": 62, "velocity": 110, "channel": 0}, {"type": "note_on", "time": 3931, "note": 48, "velocity": 103, "channel": 0}, {"type": "note_off", "time": 1620, "note": 48, "velocity": 103, "channel": 0}, {"type": "note_on", "time": 107, "note": 50, "velocity": 97, "channel": 0}, {"type": "note_off", "time": 777, "note": 50, "velocity": 97, "channel": 0}, {"type": "note_on", "time": 2354, "note": 53, "velocity": 113, "channel": 0}, {"type": "note_off", "time": 1404, "note": 53, "velocity": 113, "channel": 0}, {"type": "note_on", "time": 3585, "note": 57, "velocity": 113, "channel": 0}, {"type": "note_off", "time": 1209, "note": 57, "velocity": 113, "channel": 0}, {"type": "note_on", "time": 3045, "note": 60, "velocity": 120, "channel": 0}, {"type": "note_off", "time": 907, "note": 60, "velocity": 120, "channel": 0}, {"type": "note_on", "time": 2159, "note": 65, "velocity": 114, "channel": 0}, {"type": "note_off", "time": 864, "note": 65, "velocity": 114, "channel": 0}, {"type": "note_on", "time": 1727, "note": 69, "velocity": 116, "channel": 0}, {"type": "note_off", "time": 1058, "note": 69, "velocity": 116, "channel": 0}, {"type": "note_on", "time": 1468, "note": 70, "velocity": 115, "channel": 0}, {"type": "note_off", "time": 1036, "note": 70, "velocity": 115, "channel": 0}, {"type": "note_on", "time": 1468, "note": 69, "velocity": 109, "channel": 0}, {"type": "note_off", "time": 950, "note": 69, "velocity": 109, "channel": 0}, {"type": "note_on", "time": 1576, "note": 61, "velocity": 100, "channel": 0}, {"type": "note_off", "time": 1166, "note": 61, "velocity": 100, "channel": 0}, {"type": "note_on", "time": 1274, "note": 61, "velocity": 110, "channel": 0}, {"type": "note_off", "time": 1252, "note": 61, "velocity": 110, "channel": 0}, {"type": "note_on", "time": 1209, "note": 61, "velocity": 101, "channel": 0}, {"type": "note_off", "time": 1187, "note": 61, "velocity": 101, "channel": 0}, {"type": "note_on", "time": 1252, "note": 61, "velocity": 99, "channel": 0}, {"type": "note_off", "time": 1166, "note": 61, "velocity": 99, "channel": 0}, {"type": "note_on", "time": 1447, "note": 61, "velocity": 103, "channel": 0}, {"type": "note_off", "time": 2224, "note": 61, "velocity": 103, "channel": 0}, {"type": "note_on", "time": 259, "note": 61, "velocity": 102, "channel": 0}, {"type": "note_off", "time": 1166, "note": 61, "velocity": 102, "channel": 0}, {"type": "note_on", "time": 1382, "note": 61, "velocity": 103, "channel": 0}, {"type": "note_off", "time": 2268, "note": 61, "velocity": 103, "channel": 0}, {"type": "note_on", "time": 216, "note": 61, "velocity": 97, "channel": 0}, {"type": "note_off", "time": 1404, "note": 61, "velocity": 97, "channel": 0}, {"type": "note_on", "time": 453, "note": 61, "velocity": 111, "channel": 0}, {"type": "note_off", "time": 648, "note": 61, "velocity": 111, "channel": 0}, {"type": "note_on", "time": 1555, "note": 61, "velocity": 116, "channel": 0}, {"type": "note_off", "time": 777, "note": 61, "velocity": 116, "channel": 0}, {"type": "note_on", "time": 1836, "note": 56, "velocity": 100, "channel": 0}, {"type": "note_off", "time": 583, "note": 56, "velocity": 100, "channel": 0}, {"type": "note_on", "time": 43, "note": 61, "velocity": 99, "channel": 0}, {"type": "note_off", "time": 2354, "note": 61, "velocity": 99, "channel": 0}, {"type": "note_on", "time": 129, "note": 63, "velocity": 106, "channel": 0}, {"type": "note_off", "time": 2462, "note": 63, "velocity": 106, "channel": 0}, {"type": "note_on", "time": 129, "note": 61, "velocity": 98, "channel": 0}, {"type": "note_off", "time": 194, "note": 61, "velocity": 98, "channel": 0}, {"type": "note_on", "time": 129, "note": 60, "velocity": 102, "channel": 0}, {"type": "note_off", "time": 1166, "note": 60, "velocity": 102, "channel": 0}, {"type": "note_on", "time": 3477, "note": 60, "velocity": 113, "channel": 0}, {"type": "note_off", "time": 2311, "note": 60, "velocity": 113, "channel": 0}, {"type": "note_on", "time": 21, "note": 62, "velocity": 104, "channel": 0}, {"type": "note_off", "time": 2030, "note": 62, "velocity": 104, "channel": 0}, {"type": "note_on", "time": 451, "note": 59, "velocity": 99, "channel": 0}, {"type": "note_off", "time": 1305, "note": 59, "velocity": 99, "channel": 0}, {"type": "note_on", "time": 3578, "note": 59, "velocity": 98, "channel": 0}, {"type": "note_off", "time": 2548, "note": 59, "velocity": 98, "channel": 0}, {"type": "note_on", "time": 216, "note": 61, "velocity": 103, "channel": 0}, {"type": "note_off", "time": 2268, "note": 61, "velocity": 103, "channel": 0}, {"type": "note_on", "time": 108, "note": 58, "velocity": 97, "channel": 0}, {"type": "note_off", "time": 3888, "note": 58, "velocity": 97, "channel": 0}, {"type": "note_on", "time": 12873, "note": 56, "velocity": 100, "channel": 0}, {"type": "note_off", "time": 1036, "note": 56, "velocity": 100, "channel": 0}, {"type": "note_on", "time": 259, "note": 57, "velocity": 101, "channel": 0}, {"type": "note_off", "time": 1144, "note": 57, "velocity": 101, "channel": 0}, {"type": "note_on", "time": 129, "note": 60, "velocity": 116, "channel": 0}, {"type": "note_off", "time": 928, "note": 60, "velocity": 116, "channel": 0}, {"type": "note_on", "time": 302, "note": 63, "velocity": 103, "channel": 0}, {"type": "note_off", "time": 1015, "note": 63, "velocity": 103, "channel": 0}, {"type": "note_on", "time": 151, "note": 65, "velocity": 115, "channel": 0}, {"type": "note_off", "time": 820, "note": 65, "velocity": 115, "channel": 0}, {"type": "note_on", "time": 64, "note": 66, "velocity": 104, "channel": 0}, {"type": "note_off", "time": 1727, "note": 66, "velocity": 104, "channel": 0}, {"type": "note_on", "time": 43, "note": 64, "velocity": 96, "channel": 0}, {"type": "note_off", "time": 647, "note": 64, "velocity": 96, "channel": 0}, {"type": "note_on", "time": 86, "note": 65, "velocity": 108, "channel": 0}, {"type": "note_off", "time": 1663, "note": 65, "velocity": 108, "channel": 0}, {"type": "note_on", "time": 108, "note": 62, "velocity": 114, "channel": 0}, {"type": "note_off", "time": 712, "note": 62, "velocity": 114, "channel": 0}, {"type": "note_on", "time": 259, "note": 58, "velocity": 94, "channel": 0}, {"type": "note_off", "time": 1814, "note": 58, "velocity": 94, "channel": 0}, {"type": "note_on", "time": 151, "note": 54, "velocity": 90, "channel": 0}, {"type": "note_off", "time": 388, "note": 54, "velocity": 90, "channel": 0}, {"type": "note_on", "time": 86, "note": 60, "velocity": 104, "channel": 0}, {"type": "note_off", "time": 1468, "note": 60, "velocity": 104, "channel": 0}, {"type": "note_on", "time": 129, "note": 63, "velocity": 127, "channel": 0}, {"type": "note_off", "time": 734, "note": 63, "velocity": 127, "channel": 0}, {"type": "note_on", "time": 151, "note": 62, "velocity": 99, "channel": 0}, {"type": "note_off", "time": 1512, "note": 62, "velocity": 99, "channel": 0}, {"type": "note_on", "time": 194, "note": 60, "velocity": 106, "channel": 0}, {"type": "note_off", "time": 712, "note": 60, "velocity": 106, "channel": 0}, {"type": "note_on", "time": 43, "note": 55, "velocity": 101, "channel": 0}, {"type": "note_off", "time": 1425, "note": 55, "velocity": 101, "channel": 0}, {"type": "note_on", "time": 259, "note": 56, "velocity": 104, "channel": 0}, {"type": "note_off", "time": 648, "note": 56, "velocity": 104, "channel": 0}, {"type": "note_on", "time": 64, "note": 60, "velocity": 96, "channel": 0}, {"type": "note_off", "time": 1814, "note": 60, "velocity": 96, "channel": 0}, {"type": "note_on", "time": 129, "note": 63, "velocity": 85, "channel": 0}, {"type": "note_off", "time": 324, "note": 63, "velocity": 85, "channel": 0}, {"type": "note_on", "time": 777, "note": 67, "velocity": 110, "channel": 0}, {"type": "note_off", "time": 1490, "note": 67, "velocity": 110, "channel": 0}, {"type": "note_on", "time": 21, "note": 66, "velocity": 101, "channel": 0}, {"type": "note_off", "time": 302, "note": 66, "velocity": 101, "channel": 0}, {"type": "note_on", "time": 21, "note": 65, "velocity": 101, "channel": 0}, {"type": "note_off", "time": 496, "note": 65, "velocity": 101, "channel": 0}, {"type": "note_on", "time": 172, "note": 64, "velocity": 98, "channel": 0}, {"type": "note_off", "time": 1036, "note": 64, "velocity": 98, "channel": 0}, {"type": "note_on", "time": 172, "note": 67, "velocity": 112, "channel": 0}, {"type": "note_off", "time": 1209, "note": 67, "velocity": 112, "channel": 0}, {"type": "note_on", "time": 21, "note": 66, "velocity": 92, "channel": 0}, {"type": "note_off", "time": 1576, "note": 66, "velocity": 92, "channel": 0}, {"type": "note_on", "time": 64, "note": 64, "velocity": 95, "channel": 0}, {"type": "note_off", "time": 432, "note": 64, "velocity": 95, "channel": 0}, {"type": "note_on", "time": 172, "note": 65, "velocity": 111, "channel": 0}, {"type": "note_off", "time": 1274, "note": 65, "velocity": 111, "channel": 0}, {"type": "note_on", "time": 712, "note": 60, "velocity": 118, "channel": 0}, {"type": "note_off", "time": 626, "note": 60, "velocity": 118, "channel": 0}, {"type": "note_on", "time": 561, "note": 57, "velocity": 102, "channel": 0}, {"type": "note_off", "time": 950, "note": 57, "velocity": 102, "channel": 0}, {"type": "note_on", "time": 107, "note": 57, "velocity": 108, "channel": 0}, {"type": "note_off", "time": 712, "note": 57, "velocity": 108, "channel": 0}, {"type": "note_on", "time": 388, "note": 58, "velocity": 93, "channel": 0}, {"type": "note_off", "time": 1058, "note": 58, "velocity": 93, "channel": 0}, {"type": "note_on", "time": 388, "note": 58, "velocity": 102, "channel": 0}, {"type": "note_off", "time": 669, "note": 58, "velocity": 102, "channel": 0}, {"type": "note_on", "time": 432, "note": 60, "velocity": 113, "channel": 0}, {"type": "note_off", "time": 885, "note": 60, "velocity": 113, "channel": 0}, {"type": "note_on", "time": 1339, "note": 62, "velocity": 114, "channel": 0}, {"type": "note_off", "time": 820, "note": 62, "velocity": 114, "channel": 0}, {"type": "note_on", "time": 1663, "note": 66, "velocity": 107, "channel": 0}, {"type": "note_off", "time": 1080, "note": 66, "velocity": 107, "channel": 0}, {"type": "note_on", "time": 1706, "note": 69, "velocity": 115, "channel": 0}, {"type": "note_off", "time": 842, "note": 69, "velocity": 115, "channel": 0}, {"type": "note_on", "time": 1360, "note": 70, "velocity": 110, "channel": 0}, {"type": "note_off", "time": 453, "note": 70, "velocity": 110, "channel": 0}, {"type": "note_on", "time": 237, "note": 72, "velocity": 121, "channel": 0}, {"type": "note_off", "time": 3780, "note": 72, "velocity": 121, "channel": 0}, {"type": "note_on", "time": 259, "note": 69, "velocity": 99, "channel": 0}, {"type": "note_off", "time": 324, "note": 69, "velocity": 99, "channel": 0}, {"type": "note_on", "time": 86, "note": 70, "velocity": 112, "channel": 0}, {"type": "note_off", "time": 1814, "note": 70, "velocity": 112, "channel": 0}, {"type": "note_on", "time": 402, "note": 61, "velocity": 116, "channel": 0}, {"type": "note_off", "time": 768, "note": 61, "velocity": 116, "channel": 0}, {"type": "note_on", "time": 7426, "note": 69, "velocity": 86, "channel": 0}, {"type": "note_off", "time": 302, "note": 69, "velocity": 86, "channel": 0}, {"type": "note_on", "time": 107, "note": 70, "velocity": 115, "channel": 0}, {"type": "note_off", "time": 324, "note": 70, "velocity": 115, "channel": 0}, {"type": "note_on", "time": 86, "note": 69, "velocity": 113, "channel": 0}, {"type": "note_off", "time": 388, "note": 69, "velocity": 113, "channel": 0}, {"type": "note_on", "time": 64, "note": 68, "velocity": 102, "channel": 0}, {"type": "note_off", "time": 302, "note": 68, "velocity": 102, "channel": 0}, {"type": "note_on", "time": 1015, "note": 69, "velocity": 116, "channel": 0}, {"type": "note_off", "time": 216, "note": 69, "velocity": 116, "channel": 0}, {"type": "note_on", "time": 129, "note": 70, "velocity": 115, "channel": 0}, {"type": "note_off", "time": 259, "note": 70, "velocity": 115, "channel": 0}, {"type": "note_on", "time": 21, "note": 69, "velocity": 115, "channel": 0}, {"type": "note_off", "time": 388, "note": 69, "velocity": 115, "channel": 0}, {"type": "note_on", "time": 1209, "note": 69, "velocity": 114, "channel": 0}, {"type": "note_off", "time": 432, "note": 69, "velocity": 114, "channel": 0}, {"type": "note_on", "time": 86, "note": 70, "velocity": 112, "channel": 0}, {"type": "note_off", "time": 302, "note": 70, "velocity": 112, "channel": 0}, {"type": "note_on", "time": 43, "note": 69, "velocity": 111, "channel": 0}, {"type": "note_off", "time": 561, "note": 69, "velocity": 111, "channel": 0}, {"type": "note_on", "time": 1447, "note": 69, "velocity": 112, "channel": 0}, {"type": "note_off", "time": 1425, "note": 69, "velocity": 112, "channel": 0}, {"type": "note_on", "time": 64, "note": 68, "velocity": 100, "channel": 0}, {"type": "note_off", "time": 691, "note": 68, "velocity": 100, "channel": 0}, {"type": "note_on", "time": 0, "note": 69, "velocity": 110, "channel": 0}, {"type": "note_off", "time": 1684, "note": 69, "velocity": 110, "channel": 0}, {"type": "note_on", "time": 367, "note": 59, "velocity": 105, "channel": 0}, {"type": "note_off", "time": 725, "note": 59, "velocity": 105, "channel": 0}, {"type": "note_on", "time": 0, "note": 58, "velocity": 105, "channel": 0}, {"type": "note_off", "time": 422, "note": 58, "velocity": 105, "channel": 0}, {"type": "note_on", "time": 2048, "note": 59, "velocity": 104, "channel": 0}, {"type": "note_off", "time": 885, "note": 59, "velocity": 104, "channel": 0}, {"type": "note_on", "time": 3283, "note": 59, "velocity": 101, "channel": 0}, {"type": "note_off", "time": 712, "note": 59, "velocity": 101, "channel": 0}, {"type": "note_on", "time": 4471, "note": 59, "velocity": 103, "channel": 0}, {"type": "note_off", "time": 734, "note": 59, "velocity": 103, "channel": 0}, {"type": "note_on", "time": 2570, "note": 60, "velocity": 116, "channel": 0}, {"type": "note_off", "time": 1036, "note": 60, "velocity": 116, "channel": 0}, {"type": "note_on", "time": 3672, "note": 68, "velocity": 91, "channel": 0}, {"type": "note_off", "time": 302, "note": 68, "velocity": 91, "channel": 0}, {"type": "note_on", "time": 0, "note": 69, "velocity": 117, "channel": 0}, {"type": "note_off", "time": 1555, "note": 69, "velocity": 117, "channel": 0}, {"type": "note_on", "time": 86, "note": 68, "velocity": 98, "channel": 0}, {"type": "note_off", "time": 518, "note": 68, "velocity": 98, "channel": 0}, {"type": "note_on", "time": 172, "note": 69, "velocity": 111, "channel": 0}, {"type": "note_off", "time": 4881, "note": 69, "velocity": 111, "channel": 0}, {"type": "note_on", "time": 86, "note": 67, "velocity": 110, "channel": 0}, {"type": "note_off", "time": 1922, "note": 67, "velocity": 110, "channel": 0}, {"type": "note_on", "time": 86, "note": 65, "velocity": 102, "channel": 0}, {"type": "note_off", "time": 604, "note": 65, "velocity": 102, "channel": 0}, {"type": "note_on", "time": 86, "note": 67, "velocity": 103, "channel": 0}, {"type": "note_off", "time": 4968, "note": 67, "velocity": 103, "channel": 0}, {"type": "note_on", "time": 172, "note": 69, "velocity": 111, "channel": 0}, {"type": "note_off", "time": 1620, "note": 69, "velocity": 111, "channel": 0}, {"type": "note_on", "time": 108, "note": 63, "velocity": 120, "channel": 0}, {"type": "note_off", "time": 1231, "note": 63, "velocity": 120, "channel": 0}, {"type": "note_on", "time": 13, "note": 62, "velocity": 113, "channel": 0}, {"type": "note_off", "time": 384, "note": 62, "velocity": 113, "channel": 0}, {"type": "note_on", "time": 15505, "note": 73, "velocity": 105, "channel": 0}, {"type": "note_off", "time": 522, "note": 73, "velocity": 105, "channel": 0}, {"type": "note_on", "time": 76, "note": 68, "velocity": 109, "channel": 0}, {"type": "note_off", "time": 506, "note": 68, "velocity": 109, "channel": 0}, {"type": "note_on", "time": 322, "note": 64, "velocity": 113, "channel": 0}, {"type": "note_off", "time": 460, "note": 64, "velocity": 113, "channel": 0}, {"type": "note_on", "time": 276, "note": 57, "velocity": 100, "channel": 0}, {"type": "note_off", "time": 384, "note": 57, "velocity": 100, "channel": 0}, {"type": "note_on", "time": 15, "note": 66, "velocity": 105, "channel": 0}, {"type": "note_off", "time": 936, "note": 66, "velocity": 105, "channel": 0}, {"type": "note_on", "time": 0, "note": 61, "velocity": 116, "channel": 0}, {"type": "note_off", "time": 414, "note": 61, "velocity": 116, "channel": 0}, {"type": "note_on", "time": 353, "note": 67, "velocity": 110, "channel": 0}, {"type": "note_off", "time": 568, "note": 67, "velocity": 110, "channel": 0}, {"type": "note_on", "time": 46, "note": 60, "velocity": 108, "channel": 0}, {"type": "note_off", "time": 721, "note": 60, "velocity": 108, "channel": 0}, {"type": "note_on", "time": 15, "note": 67, "velocity": 111, "channel": 0}, {"type": "note_off", "time": 506, "note": 67, "velocity": 111, "channel": 0}, {"type": "note_on", "time": 92, "note": 65, "velocity": 115, "channel": 0}, {"type": "note_off", "time": 583, "note": 65, "velocity": 115, "channel": 0}, {"type": "note_on", "time": 61, "note": 63, "velocity": 121, "channel": 0}, {"type": "note_off", "time": 552, "note": 63, "velocity": 121, "channel": 0}, {"type": "note_on", "time": 184, "note": 58, "velocity": 104, "channel": 0}, {"type": "note_off", "time": 491, "note": 58, "velocity": 104, "channel": 0}, {"type": "note_on", "time": 76, "note": 55, "velocity": 97, "channel": 0}, {"type": "note_off", "time": 384, "note": 55, "velocity": 97, "channel": 0}, {"type": "note_on", "time": 92, "note": 63, "velocity": 119, "channel": 0}, {"type": "note_off", "time": 568, "note": 63, "velocity": 119, "channel": 0}, {"type": "note_on", "time": 92, "note": 60, "velocity": 108, "channel": 0}, {"type": "note_off", "time": 537, "note": 60, "velocity": 108, "channel": 0}, {"type": "note_on", "time": 92, "note": 58, "velocity": 102, "channel": 0}, {"type": "note_off", "time": 568, "note": 58, "velocity": 102, "channel": 0}, {"type": "note_on", "time": 107, "note": 55, "velocity": 106, "channel": 0}, {"type": "note_off", "time": 568, "note": 55, "velocity": 106, "channel": 0}, {"type": "note_on", "time": 46, "note": 60, "velocity": 110, "channel": 0}, {"type": "note_off", "time": 430, "note": 60, "velocity": 110, "channel": 0}, {"type": "note_on", "time": 61, "note": 62, "velocity": 108, "channel": 0}, {"type": "note_off", "time": 491, "note": 62, "velocity": 108, "channel": 0}, {"type": "note_on", "time": 122, "note": 63, "velocity": 112, "channel": 0}, {"type": "note_off", "time": 460, "note": 63, "velocity": 112, "channel": 0}, {"type": "note_on", "time": 76, "note": 65, "velocity": 114, "channel": 0}, {"type": "note_off", "time": 460, "note": 65, "velocity": 114, "channel": 0}, {"type": "note_on", "time": 92, "note": 61, "velocity": 116, "channel": 0}, {"type": "note_off", "time": 276, "note": 61, "velocity": 116, "channel": 0}, {"type": "note_on", "time": 138, "note": 62, "velocity": 117, "channel": 0}, {"type": "note_off", "time": 506, "note": 62, "velocity": 117, "channel": 0}, {"type": "note_on", "time": 1740, "note": 53, "velocity": 101, "channel": 0}, {"type": "note_off", "time": 2095, "note": 53, "velocity": 101, "channel": 0}, {"type": "note_on", "time": 324, "note": 56, "velocity": 102, "channel": 0}, {"type": "note_off", "time": 2268, "note": 56, "velocity": 102, "channel": 0}, {"type": "note_on", "time": 172, "note": 53, "velocity": 99, "channel": 0}, {"type": "note_off", "time": 2440, "note": 53, "velocity": 99, "channel": 0}, {"type": "note_on", "time": 129, "note": 57, "velocity": 96, "channel": 0}, {"type": "note_off", "time": 2613, "note": 57, "velocity": 96, "channel": 0}, {"type": "note_on", "time": 6740, "note": 57, "velocity": 108, "channel": 0}, {"type": "note_off", "time": 798, "note": 57, "velocity": 108, "channel": 0}, {"type": "note_on", "time": 107, "note": 58, "velocity": 102, "channel": 0}, {"type": "note_off", "time": 1209, "note": 58, "velocity": 102, "channel": 0}, {"type": "note_on", "time": 64, "note": 59, "velocity": 93, "channel": 0}, {"type": "note_off", "time": 626, "note": 59, "velocity": 93, "channel": 0}, {"type": "note_on", "time": 194, "note": 58, "velocity": 99, "channel": 0}, {"type": "note_off", "time": 626, "note": 58, "velocity": 99, "channel": 0}, {"type": "note_on", "time": 64, "note": 57, "velocity": 104, "channel": 0}, {"type": "note_off", "time": 1296, "note": 57, "velocity": 104, "channel": 0}, {"type": "note_on", "time": 151, "note": 55, "velocity": 101, "channel": 0}, {"type": "note_off", "time": 734, "note": 55, "velocity": 101, "channel": 0}, {"type": "note_on", "time": 129, "note": 54, "velocity": 94, "channel": 0}, {"type": "note_off", "time": 1404, "note": 54, "velocity": 94, "channel": 0}, {"type": "note_on", "time": 151, "note": 63, "velocity": 114, "channel": 0}, {"type": "note_off", "time": 907, "note": 63, "velocity": 114, "channel": 0}, {"type": "note_on", "time": 107, "note": 62, "velocity": 105, "channel": 0}, {"type": "note_off", "time": 1231, "note": 62, "velocity": 105, "channel": 0}, {"type": "note_on", "time": 388, "note": 57, "velocity": 105, "channel": 0}, {"type": "note_off", "time": 540, "note": 57, "velocity": 105, "channel": 0}, {"type": "note_on", "time": 151, "note": 60, "velocity": 109, "channel": 0}, {"type": "note_off", "time": 1576, "note": 60, "velocity": 109, "channel": 0}, {"type": "note_on", "time": 129, "note": 57, "velocity": 108, "channel": 0}, {"type": "note_off", "time": 799, "note": 57, "velocity": 108, "channel": 0}, {"type": "note_on", "time": 215, "note": 58, "velocity": 91, "channel": 0}, {"type": "note_off", "time": 518, "note": 58, "velocity": 91, "channel": 0}, {"type": "note_on", "time": 113, "note": 62, "velocity": 100, "channel": 0}, {"type": "note_off", "time": 568, "note": 62, "velocity": 100, "channel": 0}, {"type": "note_on", "time": 247, "note": 65, "velocity": 112, "channel": 0}, {"type": "note_off", "time": 691, "note": 65, "velocity": 112, "channel": 0}, {"type": "note_on", "time": 604, "note": 69, "velocity": 109, "channel": 0}, {"type": "note_off", "time": 1187, "note": 69, "velocity": 109, "channel": 0}, {"type": "note_on", "time": 194, "note": 70, "velocity": 93, "channel": 0}, {"type": "note_off", "time": 367, "note": 70, "velocity": 93, "channel": 0}, {"type": "note_on", "time": 0, "note": 69, "velocity": 99, "channel": 0}, {"type": "note_off", "time": 453, "note": 69, "velocity": 99, "channel": 0}, {"type": "note_on", "time": 0, "note": 67, "velocity": 101, "channel": 0}, {"type": "note_off", "time": 302, "note": 67, "velocity": 101, "channel": 0}, {"type": "note_on", "time": 108, "note": 66, "velocity": 97, "channel": 0}, {"type": "note_off", "time": 1123, "note": 66, "velocity": 97, "channel": 0}, {"type": "note_on", "time": 518, "note": 69, "velocity": 107, "channel": 0}, {"type": "note_off", "time": 518, "note": 69, "velocity": 107, "channel": 0}, {"type": "note_on", "time": 561, "note": 67, "velocity": 97, "channel": 0}, {"type": "note_off", "time": 345, "note": 67, "velocity": 97, "channel": 0}, {"type": "note_on", "time": 43, "note": 68, "velocity": 92, "channel": 0}, {"type": "note_off", "time": 237, "note": 68, "velocity": 92, "channel": 0}, {"type": "note_on", "time": 108, "note": 67, "velocity": 92, "channel": 0}, {"type": "note_off", "time": 367, "note": 67, "velocity": 92, "channel": 0}, {"type": "note_on", "time": 84, "note": 62, "velocity": 88, "channel": 0}, {"type": "note_off", "time": 798, "note": 62, "velocity": 88, "channel": 0}, {"type": "note_on", "time": 305, "note": 65, "velocity": 109, "channel": 0}, {"type": "note_off", "time": 345, "note": 65, "velocity": 109, "channel": 0}, {"type": "note_on", "time": 43, "note": 67, "velocity": 101, "channel": 0}, {"type": "note_off", "time": 367, "note": 67, "velocity": 101, "channel": 0}, {"type": "note_on", "time": 86, "note": 65, "velocity": 93, "channel": 0}, {"type": "note_off", "time": 453, "note": 65, "velocity": 93, "channel": 0}, {"type": "note_on", "time": 72, "note": 62, "velocity": 84, "channel": 0}, {"type": "note_off", "time": 506, "note": 62, "velocity": 84, "channel": 0}, {"type": "note_on", "time": 122, "note": 65, "velocity": 84, "channel": 0}, {"type": "note_off", "time": 384, "note": 65, "velocity": 84, "channel": 0}, {"type": "note_on", "time": 107, "note": 67, "velocity": 104, "channel": 0}, {"type": "note_off", "time": 291, "note": 67, "velocity": 104, "channel": 0}, {"type": "note_on", "time": 61, "note": 65, "velocity": 106, "channel": 0}, {"type": "note_off", "time": 337, "note": 65, "velocity": 106, "channel": 0}, {"type": "note_on", "time": 384, "note": 61, "velocity": 84, "channel": 0}, {"type": "note_off", "time": 783, "note": 61, "velocity": 84, "channel": 0}, {"type": "note_on", "time": 168, "note": 63, "velocity": 85, "channel": 0}, {"type": "note_off", "time": 307, "note": 63, "velocity": 85, "channel": 0}, {"type": "note_on", "time": 153, "note": 64, "velocity": 102, "channel": 0}, {"type": "note_off", "time": 399, "note": 64, "velocity": 102, "channel": 0}, {"type": "note_on", "time": 0, "note": 63, "velocity": 101, "channel": 0}, {"type": "note_off", "time": 353, "note": 63, "velocity": 101, "channel": 0}, {"type": "note_on", "time": 138, "note": 61, "velocity": 103, "channel": 0}, {"type": "note_off", "time": 936, "note": 61, "velocity": 103, "channel": 0}, {"type": "note_on", "time": 46, "note": 59, "velocity": 89, "channel": 0}, {"type": "note_off", "time": 245, "note": 59, "velocity": 89, "channel": 0}, {"type": "note_on", "time": 76, "note": 60, "velocity": 108, "channel": 0}, {"type": "note_off", "time": 645, "note": 60, "velocity": 108, "channel": 0}, {"type": "note_on", "time": 2027, "note": 65, "velocity": 112, "channel": 0}, {"type": "note_off", "time": 660, "note": 65, "velocity": 112, "channel": 0}, {"type": "note_on", "time": 46, "note": 64, "velocity": 104, "channel": 0}, {"type": "note_off", "time": 414, "note": 64, "velocity": 104, "channel": 0}, {"type": "note_on", "time": 92, "note": 65, "velocity": 114, "channel": 0}, {"type": "note_off", "time": 629, "note": 65, "velocity": 114, "channel": 0}, {"type": "note_on", "time": 138, "note": 60, "velocity": 110, "channel": 0}, {"type": "note_off", "time": 460, "note": 60, "velocity": 110, "channel": 0}, {"type": "note_on", "time": 107, "note": 57, "velocity": 95, "channel": 0}, {"type": "note_off", "time": 629, "note": 57, "velocity": 95, "channel": 0}, {"type": "note_on", "time": 138, "note": 53, "velocity": 89, "channel": 0}, {"type": "note_off", "time": 353, "note": 53, "velocity": 89, "channel": 0}, {"type": "note_on", "time": 153, "note": 58, "velocity": 101, "channel": 0}, {"type": "note_off", "time": 337, "note": 58, "velocity": 101, "channel": 0}, {"type": "note_on", "time": 199, "note": 62, "velocity": 109, "channel": 0}, {"type": "note_off", "time": 506, "note": 62, "velocity": 109, "channel": 0}, {"type": "note_on", "time": 107, "note": 60, "velocity": 105, "channel": 0}, {"type": "note_off", "time": 491, "note": 60, "velocity": 105, "channel": 0}, {"type": "note_on", "time": 92, "note": 58, "velocity": 104, "channel": 0}, {"type": "note_off", "time": 537, "note": 58, "velocity": 104, "channel": 0}, {"type": "note_on", "time": 61, "note": 57, "velocity": 101, "channel": 0}, {"type": "note_off", "time": 491, "note": 57, "velocity": 101, "channel": 0}, {"type": "note_on", "time": 76, "note": 55, "velocity": 98, "channel": 0}, {"type": "note_off", "time": 460, "note": 55, "velocity": 98, "channel": 0}, {"type": "note_on", "time": 245, "note": 54, "velocity": 94, "channel": 0}, {"type": "note_off", "time": 814, "note": 54, "velocity": 94, "channel": 0}, {"type": "note_on", "time": 537, "note": 57, "velocity": 102, "channel": 0}, {"type": "note_off", "time": 614, "note": 57, "velocity": 102, "channel": 0}, {"type": "note_on", "time": 46, "note": 54, "velocity": 89, "channel": 0}, {"type": "note_off", "time": 291, "note": 54, "velocity": 89, "channel": 0}, {"type": "note_on", "time": 92, "note": 55, "velocity": 101, "channel": 0}, {"type": "note_off", "time": 629, "note": 55, "velocity": 101, "channel": 0}, {"type": "note_on", "time": 92, "note": 57, "velocity": 102, "channel": 0}, {"type": "note_off", "time": 645, "note": 57, "velocity": 102, "channel": 0}, {"type": "note_on", "time": 107, "note": 58, "velocity": 99, "channel": 0}, {"type": "note_off", "time": 460, "note": 58, "velocity": 99, "channel": 0}, {"type": "note_on", "time": 30, "note": 60, "velocity": 106, "channel": 0}, {"type": "note_off", "time": 629, "note": 60, "velocity": 106, "channel": 0}, {"type": "note_on", "time": 61, "note": 62, "velocity": 96, "channel": 0}, {"type": "note_off", "time": 568, "note": 62, "velocity": 96, "channel": 0}, {"type": "note_on", "time": 122, "note": 65, "velocity": 112, "channel": 0}, {"type": "note_off", "time": 691, "note": 65, "velocity": 112, "channel": 0}, {"type": "note_on", "time": 61, "note": 64, "velocity": 102, "channel": 0}, {"type": "note_off", "time": 353, "note": 64, "velocity": 102, "channel": 0}, {"type": "note_on", "time": 46, "note": 67, "velocity": 93, "channel": 0}, {"type": "note_off", "time": 353, "note": 67, "velocity": 93, "channel": 0}, {"type": "note_on", "time": 588, "note": 72, "velocity": 116, "channel": 0}, {"type": "note_off", "time": 814, "note": 72, "velocity": 116, "channel": 0}, {"type": "note_on", "time": 10224, "note": 77, "velocity": 124, "channel": 0}, {"type": "note_off", "time": 1228, "note": 77, "velocity": 124, "channel": 0}, {"type": "note_on", "time": 1167, "note": 75, "velocity": 112, "channel": 0}, {"type": "note_off", "time": 1059, "note": 75, "velocity": 112, "channel": 0}, {"type": "note_on", "time": 1367, "note": 72, "velocity": 125, "channel": 0}, {"type": "note_off", "time": 1075, "note": 72, "velocity": 125, "channel": 0}, {"type": "note_on", "time": 1423, "note": 70, "velocity": 117, "channel": 0}, {"type": "note_off", "time": 837, "note": 70, "velocity": 117, "channel": 0}, {"type": "note_on", "time": 1963, "note": 65, "velocity": 107, "channel": 0}, {"type": "note_off", "time": 798, "note": 65, "velocity": 107, "channel": 0}, {"type": "note_on", "time": 322, "note": 68, "velocity": 112, "channel": 0}, {"type": "note_off", "time": 215, "note": 68, "velocity": 112, "channel": 0}, {"type": "note_on", "time": 15, "note": 69, "velocity": 107, "channel": 0}, {"type": "note_off", "time": 906, "note": 69, "velocity": 107, "channel": 0}, {"type": "note_on", "time": 138, "note": 70, "velocity": 109, "channel": 0}, {"type": "note_off", "time": 552, "note": 70, "velocity": 109, "channel": 0}, {"type": "note_on", "time": 537, "note": 72, "velocity": 109, "channel": 0}, {"type": "note_off", "time": 1536, "note": 72, "velocity": 109, "channel": 0}, {"type": "note_on", "time": 122, "note": 74, "velocity": 99, "channel": 0}, {"type": "note_off", "time": 721, "note": 74, "velocity": 99, "channel": 0}, {"type": "note_on", "time": 168, "note": 72, "velocity": 112, "channel": 0}, {"type": "note_off", "time": 1751, "note": 72, "velocity": 112, "channel": 0}, {"type": "note_on", "time": 691, "note": 65, "velocity": 105, "channel": 0}, {"type": "note_off", "time": 1474, "note": 65, "velocity": 105, "channel": 0}, {"type": "note_on", "time": 378, "note": 67, "velocity": 84, "channel": 0}, {"type": "note_off", "time": 307, "note": 67, "velocity": 84, "channel": 0}, {"type": "note_on", "time": 36, "note": 69, "velocity": 109, "channel": 0}, {"type": "note_off", "time": 1966, "note": 69, "velocity": 109, "channel": 0}, {"type": "note_on", "time": 66, "note": 70, "velocity": 95, "channel": 0}, {"type": "note_off", "time": 432, "note": 70, "velocity": 95, "channel": 0}, {"type": "note_on", "time": 21, "note": 69, "velocity": 108, "channel": 0}, {"type": "note_off", "time": 2052, "note": 69, "velocity": 108, "channel": 0}, {"type": "note_on", "time": 129, "note": 70, "velocity": 100, "channel": 0}, {"type": "note_off", "time": 410, "note": 70, "velocity": 100, "channel": 0}, {"type": "note_on", "time": 43, "note": 69, "velocity": 111, "channel": 0}, {"type": "note_off", "time": 1749, "note": 69, "velocity": 111, "channel": 0}, {"type": "note_on", "time": 129, "note": 70, "velocity": 102, "channel": 0}, {"type": "note_off", "time": 432, "note": 70, "velocity": 102, "channel": 0}, {"type": "note_on", "time": 64, "note": 69, "velocity": 105, "channel": 0}, {"type": "note_off", "time": 2203, "note": 69, "velocity": 105, "channel": 0}, {"type": "note_on", "time": 64, "note": 70, "velocity": 97, "channel": 0}, {"type": "note_off", "time": 410, "note": 70, "velocity": 97, "channel": 0}, {"type": "note_on", "time": 129, "note": 68, "velocity": 110, "channel": 0}, {"type": "note_off", "time": 1663, "note": 68, "velocity": 110, "channel": 0}, {"type": "note_on", "time": 86, "note": 70, "velocity": 94, "channel": 0}, {"type": "note_off", "time": 518, "note": 70, "velocity": 94, "channel": 0}, {"type": "note_on", "time": 21, "note": 68, "velocity": 108, "channel": 0}, {"type": "note_off", "time": 1965, "note": 68, "velocity": 108, "channel": 0}, {"type": "note_on", "time": 151, "note": 70, "velocity": 92, "channel": 0}, {"type": "note_off", "time": 345, "note": 70, "velocity": 92, "channel": 0}, {"type": "note_on", "time": 108, "note": 68, "velocity": 110, "channel": 0}, {"type": "note_off", "time": 1728, "note": 68, "velocity": 110, "channel": 0}, {"type": "note_on", "time": 162, "note": 62, "velocity": 115, "channel": 0}, {"type": "note_off", "time": 610, "note": 62, "velocity": 115, "channel": 0}, {"type": "note_on", "time": 48, "note": 61, "velocity": 116, "channel": 0}, {"type": "note_off", "time": 507, "note": 61, "velocity": 116, "channel": 0}, {"type": "note_on", "time": 1899, "note": 62, "velocity": 119, "channel": 0}, {"type": "note_off", "time": 791, "note": 62, "velocity": 119, "channel": 0}, {"type": "note_on", "time": 34, "note": 61, "velocity": 114, "channel": 0}, {"type": "note_off", "time": 460, "note": 61, "velocity": 114, "channel": 0}, {"type": "note_on", "time": 9914, "note": 60, "velocity": 113, "channel": 0}, {"type": "note_off", "time": 540, "note": 60, "velocity": 113, "channel": 0}, {"type": "note_on", "time": 0, "note": 65, "velocity": 110, "channel": 0}, {"type": "note_off", "time": 496, "note": 65, "velocity": 110, "channel": 0}, {"type": "note_on", "time": 108, "note": 69, "velocity": 115, "channel": 0}, {"type": "note_off", "time": 604, "note": 69, "velocity": 115, "channel": 0}, {"type": "note_on", "time": 86, "note": 67, "velocity": 119, "channel": 0}, {"type": "note_off", "time": 475, "note": 67, "velocity": 119, "channel": 0}, {"type": "note_on", "time": 194, "note": 65, "velocity": 112, "channel": 0}, {"type": "note_off", "time": 561, "note": 65, "velocity": 112, "channel": 0}, {"type": "note_on", "time": 64, "note": 69, "velocity": 115, "channel": 0}, {"type": "note_off", "time": 518, "note": 69, "velocity": 115, "channel": 0}, {"type": "note_on", "time": 43, "note": 67, "velocity": 107, "channel": 0}, {"type": "note_off", "time": 540, "note": 67, "velocity": 107, "channel": 0}, {"type": "note_on", "time": 0, "note": 69, "velocity": 106, "channel": 0}, {"type": "note_off", "time": 540, "note": 69, "velocity": 106, "channel": 0}, {"type": "note_on", "time": 64, "note": 70, "velocity": 109, "channel": 0}, {"type": "note_off", "time": 648, "note": 70, "velocity": 109, "channel": 0}, {"type": "note_on", "time": 43, "note": 72, "velocity": 109, "channel": 0}, {"type": "note_off", "time": 496, "note": 72, "velocity": 109, "channel": 0}, {"type": "note_on", "time": 108, "note": 69, "velocity": 107, "channel": 0}, {"type": "note_off", "time": 496, "note": 69, "velocity": 107, "channel": 0}, {"type": "note_on", "time": 172, "note": 65, "velocity": 115, "channel": 0}, {"type": "note_off", "time": 475, "note": 65, "velocity": 115, "channel": 0}, {"type": "note_on", "time": 108, "note": 60, "velocity": 105, "channel": 0}, {"type": "note_off", "time": 540, "note": 60, "velocity": 105, "channel": 0}, {"type": "note_on", "time": 43, "note": 58, "velocity": 102, "channel": 0}, {"type": "note_off", "time": 432, "note": 58, "velocity": 102, "channel": 0}, {"type": "note_on", "time": 194, "note": 65, "velocity": 117, "channel": 0}, {"type": "note_off", "time": 432, "note": 65, "velocity": 117, "channel": 0}, {"type": "note_on", "time": 194, "note": 60, "velocity": 104, "channel": 0}, {"type": "note_off", "time": 453, "note": 60, "velocity": 104, "channel": 0}, {"type": "note_on", "time": 21, "note": 63, "velocity": 110, "channel": 0}, {"type": "note_off", "time": 518, "note": 63, "velocity": 110, "channel": 0}, {"type": "note_on", "time": 129, "note": 68, "velocity": 110, "channel": 0}, {"type": "note_on", "time": 518, "note": 65, "velocity": 116, "channel": 0}, {"type": "note_off", "time": 0, "note": 68, "velocity": 110, "channel": 0}, {"type": "note_off", "time": 583, "note": 65, "velocity": 116, "channel": 0}, {"type": "note_on", "time": 172, "note": 68, "velocity": 114, "channel": 0}, {"type": "note_off", "time": 496, "note": 68, "velocity": 114, "channel": 0}, {"type": "note_on", "time": 86, "note": 66, "velocity": 110, "channel": 0}, {"type": "note_off", "time": 540, "note": 66, "velocity": 110, "channel": 0}, {"type": "note_on", "time": 107, "note": 63, "velocity": 122, "channel": 0}, {"type": "note_off", "time": 561, "note": 63, "velocity": 122, "channel": 0}, {"type": "note_on", "time": 86, "note": 70, "velocity": 106, "channel": 0}, {"type": "note_off", "time": 561, "note": 70, "velocity": 106, "channel": 0}, {"type": "note_on", "time": 194, "note": 63, "velocity": 116, "channel": 0}, {"type": "note_off", "time": 367, "note": 63, "velocity": 116, "channel": 0}, {"type": "note_on", "time": 64, "note": 58, "velocity": 105, "channel": 0}, {"type": "note_off", "time": 668, "note": 58, "velocity": 105, "channel": 0}, {"type": "note_on", "time": 0, "note": 67, "velocity": 105, "channel": 0}, {"type": "note_off", "time": 537, "note": 67, "velocity": 105, "channel": 0}, {"type": "note_on", "time": 15, "note": 66, "velocity": 106, "channel": 0}, {"type": "note_off", "time": 599, "note": 66, "velocity": 106, "channel": 0}, {"type": "note_on", "time": 76, "note": 65, "velocity": 113, "channel": 0}, {"type": "note_off", "time": 537, "note": 65, "velocity": 113, "channel": 0}, {"type": "note_on", "time": 491, "note": 67, "velocity": 109, "channel": 0}, {"type": "note_off", "time": 491, "note": 67, "velocity": 109, "channel": 0}, {"type": "note_on", "time": 46, "note": 65, "velocity": 110, "channel": 0}, {"type": "note_off", "time": 721, "note": 65, "velocity": 110, "channel": 0}, {"type": "note_on", "time": 76, "note": 60, "velocity": 106, "channel": 0}, {"type": "note_off", "time": 583, "note": 60, "velocity": 106, "channel": 0}, {"type": "note_on", "time": 76, "note": 58, "velocity": 105, "channel": 0}, {"type": "note_off", "time": 491, "note": 58, "velocity": 105, "channel": 0}, {"type": "note_on", "time": 46, "note": 64, "velocity": 113, "channel": 0}, {"type": "note_off", "time": 384, "note": 64, "velocity": 113, "channel": 0}, {"type": "note_on", "time": 78, "note": 61, "velocity": 109, "channel": 0}, {"type": "note_off", "time": 696, "note": 61, "velocity": 109, "channel": 0}, {"type": "note_on", "time": 130, "note": 62, "velocity": 104, "channel": 0}, {"type": "note_off", "time": 506, "note": 62, "velocity": 104, "channel": 0}, {"type": "note_on", "time": 107, "note": 68, "velocity": 109, "channel": 0}, {"type": "note_off", "time": 599, "note": 68, "velocity": 109, "channel": 0}, {"type": "note_on", "time": 46, "note": 65, "velocity": 108, "channel": 0}, {"type": "note_off", "time": 476, "note": 65, "velocity": 108, "channel": 0}, {"type": "note_on", "time": 61, "note": 67, "velocity": 107, "channel": 0}, {"type": "note_off", "time": 783, "note": 67, "velocity": 107, "channel": 0}, {"type": "note_on", "time": 30, "note": 67, "velocity": 104, "channel": 0}, {"type": "note_on", "time": 383, "note": 68, "velocity": 113, "channel": 0}, {"type": "note_off", "time": 0, "note": 67, "velocity": 104, "channel": 0}, {"type": "note_off", "time": 721, "note": 68, "velocity": 113, "channel": 0}, {"type": "note_on", "time": 61, "note": 68, "velocity": 115, "channel": 0}, {"type": "note_off", "time": 430, "note": 68, "velocity": 115, "channel": 0}, {"type": "note_on", "time": 0, "note": 70, "velocity": 109, "channel": 0}, {"type": "note_off", "time": 691, "note": 70, "velocity": 109, "channel": 0}, {"type": "note_on", "time": 168, "note": 66, "velocity": 106, "channel": 0}, {"type": "note_off", "time": 430, "note": 66, "velocity": 106, "channel": 0}, {"type": "note_on", "time": 122, "note": 61, "velocity": 107, "channel": 0}, {"type": "note_on", "time": 491, "note": 67, "velocity": 101, "channel": 0}, {"type": "note_off", "time": 0, "note": 61, "velocity": 107, "channel": 0}, {"type": "note_off", "time": 522, "note": 67, "velocity": 101, "channel": 0}, {"type": "note_on", "time": 230, "note": 62, "velocity": 111, "channel": 0}, {"type": "note_off", "time": 675, "note": 62, "velocity": 111, "channel": 0}, {"type": "note_on", "time": 46, "note": 60, "velocity": 109, "channel": 0}, {"type": "note_off", "time": 552, "note": 60, "velocity": 109, "channel": 0}, {"type": "note_on", "time": 92, "note": 58, "velocity": 104, "channel": 0}, {"type": "note_off", "time": 629, "note": 58, "velocity": 104, "channel": 0}, {"type": "note_on", "time": 107, "note": 53, "velocity": 103, "channel": 0}, {"type": "note_off", "time": 552, "note": 53, "velocity": 103, "channel": 0}, {"type": "note_on", "time": 0, "note": 58, "velocity": 106, "channel": 0}, {"type": "note_off", "time": 691, "note": 58, "velocity": 106, "channel": 0}, {"type": "note_on", "time": 30, "note": 56, "velocity": 101, "channel": 0}, {"type": "note_off", "time": 322, "note": 56, "velocity": 101, "channel": 0}, {"type": "note_on", "time": 153, "note": 57, "velocity": 110, "channel": 0}, {"type": "note_off", "time": 522, "note": 57, "velocity": 110, "channel": 0}, {"type": "note_on", "time": 46, "note": 60, "velocity": 107, "channel": 0}, {"type": "note_off", "time": 476, "note": 60, "velocity": 107, "channel": 0}, {"type": "note_on", "time": 15, "note": 65, "velocity": 107, "channel": 0}, {"type": "note_off", "time": 645, "note": 65, "velocity": 107, "channel": 0}, {"type": "note_on", "time": 61, "note": 67, "velocity": 110, "channel": 0}, {"type": "note_off", "time": 460, "note": 67, "velocity": 110, "channel": 0}, {"type": "note_on", "time": 138, "note": 69, "velocity": 110, "channel": 0}, {"type": "note_off", "time": 614, "note": 69, "velocity": 110, "channel": 0}, {"type": "note_on", "time": 107, "note": 65, "velocity": 103, "channel": 0}, {"type": "note_off", "time": 445, "note": 65, "velocity": 103, "channel": 0}, {"type": "note_on", "time": 122, "note": 67, "velocity": 110, "channel": 0}, {"type": "note_off", "time": 660, "note": 67, "velocity": 110, "channel": 0}, {"type": "note_on", "time": 61, "note": 65, "velocity": 120, "channel": 0}, {"type": "note_off", "time": 445, "note": 65, "velocity": 120, "channel": 0}, {"type": "note_on", "time": 46, "note": 60, "velocity": 116, "channel": 0}, {"type": "note_off", "time": 691, "note": 60, "velocity": 116, "channel": 0}, {"type": "note_on", "time": 8325, "note": 64, "velocity": 114, "channel": 0}, {"type": "note_off", "time": 460, "note": 64, "velocity": 114, "channel": 0}, {"type": "note_on", "time": 276, "note": 68, "velocity": 116, "channel": 0}, {"type": "note_off", "time": 399, "note": 68, "velocity": 116, "channel": 0}, {"type": "note_on", "time": 0, "note": 64, "velocity": 111, "channel": 0}, {"type": "note_off", "time": 460, "note": 64, "velocity": 111, "channel": 0}, {"type": "note_on", "time": 27, "note": 66, "velocity": 109, "channel": 0}, {"type": "note_off", "time": 345, "note": 66, "velocity": 109, "channel": 0}, {"type": "note_on", "time": 108, "note": 64, "velocity": 116, "channel": 0}, {"type": "note_off", "time": 324, "note": 64, "velocity": 116, "channel": 0}, {"type": "note_on", "time": 64, "note": 59, "velocity": 99, "channel": 0}, {"type": "note_off", "time": 432, "note": 59, "velocity": 99, "channel": 0}, {"type": "note_on", "time": 540, "note": 63, "velocity": 119, "channel": 0}, {"type": "note_off", "time": 345, "note": 63, "velocity": 119, "channel": 0}, {"type": "note_on", "time": 151, "note": 65, "velocity": 115, "channel": 0}, {"type": "note_off", "time": 280, "note": 65, "velocity": 115, "channel": 0}, {"type": "note_on", "time": 43, "note": 67, "velocity": 109, "channel": 0}, {"type": "note_off", "time": 432, "note": 67, "velocity": 109, "channel": 0}, {"type": "note_on", "time": 43, "note": 63, "velocity": 113, "channel": 0}, {"type": "note_off", "time": 151, "note": 63, "velocity": 113, "channel": 0}, {"type": "note_on", "time": 129, "note": 65, "velocity": 114, "channel": 0}, {"type": "note_off", "time": 259, "note": 65, "velocity": 114, "channel": 0}, {"type": "note_on", "time": 86, "note": 63, "velocity": 110, "channel": 0}, {"type": "note_off", "time": 324, "note": 63, "velocity": 110, "channel": 0}, {"type": "note_on", "time": 166, "note": 58, "velocity": 111, "channel": 0}, {"type": "note_off", "time": 706, "note": 58, "velocity": 111, "channel": 0}, {"type": "note_on", "time": 10475, "note": 58, "velocity": 99, "channel": 0}, {"type": "note_off", "time": 337, "note": 58, "velocity": 99, "channel": 0}, {"type": "note_on", "time": 30, "note": 55, "velocity": 100, "channel": 0}, {"type": "note_off", "time": 153, "note": 55, "velocity": 100, "channel": 0}, {"type": "note_on", "time": 122, "note": 57, "velocity": 106, "channel": 0}, {"type": "note_off", "time": 368, "note": 57, "velocity": 106, "channel": 0}, {"type": "note_on", "time": 4, "note": 60, "velocity": 114, "channel": 0}, {"type": "note_off", "time": 410, "note": 60, "velocity": 114, "channel": 0}, {"type": "note_on", "time": 0, "note": 62, "velocity": 109, "channel": 0}, {"type": "note_off", "time": 140, "note": 62, "velocity": 109, "channel": 0}, {"type": "note_on", "time": 21, "note": 63, "velocity": 110, "channel": 0}, {"type": "note_off", "time": 194, "note": 63, "velocity": 110, "channel": 0}, {"type": "note_on", "time": 73, "note": 65, "velocity": 113, "channel": 0}, {"type": "note_off", "time": 430, "note": 65, "velocity": 113, "channel": 0}, {"type": "note_on", "time": 30, "note": 64, "velocity": 113, "channel": 0}, {"type": "note_off", "time": 215, "note": 64, "velocity": 113, "channel": 0}, {"type": "note_on", "time": 30, "note": 62, "velocity": 113, "channel": 0}, {"type": "note_off", "time": 307, "note": 62, "velocity": 113, "channel": 0}, {"type": "note_on", "time": 15, "note": 61, "velocity": 108, "channel": 0}, {"type": "note_off", "time": 245, "note": 61, "velocity": 108, "channel": 0}, {"type": "note_on", "time": 215, "note": 58, "velocity": 114, "channel": 0}, {"type": "note_off", "time": 445, "note": 58, "velocity": 114, "channel": 0}, {"type": "note_on", "time": 138, "note": 59, "velocity": 100, "channel": 0}, {"type": "note_off", "time": 215, "note": 59, "velocity": 100, "channel": 0}, {"type": "note_on", "time": 122, "note": 62, "velocity": 112, "channel": 0}, {"type": "note_off", "time": 337, "note": 62, "velocity": 112, "channel": 0}, {"type": "note_on", "time": 46, "note": 60, "velocity": 106, "channel": 0}, {"type": "note_off", "time": 291, "note": 60, "velocity": 106, "channel": 0}, {"type": "note_on", "time": 107, "note": 55, "velocity": 104, "channel": 0}, {"type": "note_off", "time": 276, "note": 55, "velocity": 104, "channel": 0}, {"type": "note_on", "time": 122, "note": 52, "velocity": 98, "channel": 0}, {"type": "note_off", "time": 291, "note": 52, "velocity": 98, "channel": 0}, {"type": "note_on", "time": 35, "note": 58, "velocity": 105, "channel": 0}, {"type": "note_off", "time": 162, "note": 58, "velocity": 105, "channel": 0}, {"type": "note_on", "time": 32, "note": 55, "velocity": 110, "channel": 0}, {"type": "note_off", "time": 140, "note": 55, "velocity": 110, "channel": 0}, {"type": "note_on", "time": 86, "note": 57, "velocity": 102, "channel": 0}, {"type": "note_off", "time": 183, "note": 57, "velocity": 102, "channel": 0}, {"type": "note_on", "time": 118, "note": 55, "velocity": 104, "channel": 0}, {"type": "note_off", "time": 226, "note": 55, "velocity": 104, "channel": 0}, {"type": "note_on", "time": 108, "note": 53, "velocity": 122, "channel": 0}, {"type": "note_off", "time": 205, "note": 53, "velocity": 122, "channel": 0}, {"type": "note_on", "time": 108, "note": 51, "velocity": 112, "channel": 0}, {"type": "note_off", "time": 259, "note": 51, "velocity": 112, "channel": 0}, {"type": "note_on", "time": 140, "note": 55, "velocity": 101, "channel": 0}, {"type": "note_off", "time": 168, "note": 55, "velocity": 101, "channel": 0}, {"type": "note_on", "time": 122, "note": 58, "velocity": 108, "channel": 0}, {"type": "note_off", "time": 245, "note": 58, "velocity": 108, "channel": 0}, {"type": "note_on", "time": 143, "note": 60, "velocity": 104, "channel": 0}, {"type": "note_off", "time": 353, "note": 60, "velocity": 104, "channel": 0}, {"type": "note_on", "time": 46, "note": 55, "velocity": 101, "channel": 0}, {"type": "note_off", "time": 261, "note": 55, "velocity": 101, "channel": 0}, {"type": "note_on", "time": 84, "note": 49, "velocity": 98, "channel": 0}, {"type": "note_off", "time": 276, "note": 49, "velocity": 98, "channel": 0}, {"type": "note_on", "time": 422, "note": 58, "velocity": 102, "channel": 0}, {"type": "note_off", "time": 291, "note": 58, "velocity": 102, "channel": 0}, {"type": "note_on", "time": 61, "note": 61, "velocity": 99, "channel": 0}, {"type": "note_off", "time": 245, "note": 61, "velocity": 99, "channel": 0}, {"type": "note_on", "time": 122, "note": 65, "velocity": 95, "channel": 0}, {"type": "note_off", "time": 291, "note": 65, "velocity": 95, "channel": 0}, {"type": "note_on", "time": 46, "note": 66, "velocity": 101, "channel": 0}, {"type": "note_off", "time": 276, "note": 66, "velocity": 101, "channel": 0}, {"type": "note_on", "time": 0, "note": 69, "velocity": 105, "channel": 0}, {"type": "note_off", "time": 307, "note": 69, "velocity": 105, "channel": 0}, {"type": "note_on", "time": 0, "note": 65, "velocity": 112, "channel": 0}, {"type": "note_off", "time": 291, "note": 65, "velocity": 112, "channel": 0}, {"type": "note_on", "time": 92, "note": 60, "velocity": 104, "channel": 0}, {"type": "note_off", "time": 245, "note": 60, "velocity": 104, "channel": 0}, {"type": "note_on", "time": 46, "note": 57, "velocity": 107, "channel": 0}, {"type": "note_off", "time": 368, "note": 57, "velocity": 107, "channel": 0}, {"type": "note_on", "time": 122, "note": 51, "velocity": 110, "channel": 0}, {"type": "note_off", "time": 322, "note": 51, "velocity": 110, "channel": 0}, {"type": "note_on", "time": 15, "note": 54, "velocity": 105, "channel": 0}, {"type": "note_off", "time": 276, "note": 54, "velocity": 105, "channel": 0}, {"type": "note_on", "time": 15, "note": 51, "velocity": 115, "channel": 0}, {"type": "note_off", "time": 414, "note": 51, "velocity": 115, "channel": 0}, {"type": "note_on", "time": 92, "note": 49, "velocity": 117, "channel": 0}, {"type": "note_off", "time": 307, "note": 49, "velocity": 117, "channel": 0}, {"type": "note_on", "time": 107, "note": 58, "velocity": 104, "channel": 0}, {"type": "note_off", "time": 291, "note": 58, "velocity": 104, "channel": 0}, {"type": "note_on", "time": 61, "note": 56, "velocity": 103, "channel": 0}, {"type": "note_off", "time": 245, "note": 56, "velocity": 103, "channel": 0}, {"type": "note_on", "time": 0, "note": 52, "velocity": 105, "channel": 0}, {"type": "note_off", "time": 291, "note": 52, "velocity": 105, "channel": 0}, {"type": "note_on", "time": 107, "note": 57, "velocity": 102, "channel": 0}, {"type": "note_off", "time": 384, "note": 57, "velocity": 102, "channel": 0}, {"type": "note_on", "time": 261, "note": 55, "velocity": 105, "channel": 0}, {"type": "note_off", "time": 276, "note": 55, "velocity": 105, "channel": 0}, {"type": "note_on", "time": 107, "note": 59, "velocity": 97, "channel": 0}, {"type": "note_off", "time": 307, "note": 59, "velocity": 97, "channel": 0}, {"type": "note_on", "time": 76, "note": 62, "velocity": 97, "channel": 0}, {"type": "note_off", "time": 276, "note": 62, "velocity": 97, "channel": 0}, {"type": "note_on", "time": 107, "note": 68, "velocity": 107, "channel": 0}, {"type": "note_off", "time": 399, "note": 68, "velocity": 107, "channel": 0}, {"type": "note_on", "time": 30, "note": 64, "velocity": 100, "channel": 0}, {"type": "note_off", "time": 199, "note": 64, "velocity": 100, "channel": 0}, {"type": "note_on", "time": 92, "note": 62, "velocity": 109, "channel": 0}, {"type": "note_off", "time": 245, "note": 62, "velocity": 109, "channel": 0}, {"type": "note_on", "time": 168, "note": 59, "velocity": 100, "channel": 0}, {"type": "note_off", "time": 230, "note": 59, "velocity": 100, "channel": 0}, {"type": "note_on", "time": 0, "note": 64, "velocity": 104, "channel": 0}, {"type": "note_off", "time": 261, "note": 64, "velocity": 104, "channel": 0}, {"type": "note_on", "time": 46, "note": 60, "velocity": 102, "channel": 0}, {"type": "note_off", "time": 337, "note": 60, "velocity": 102, "channel": 0}, {"type": "note_on", "time": 30, "note": 63, "velocity": 108, "channel": 0}, {"type": "note_off", "time": 184, "note": 63, "velocity": 108, "channel": 0}, {"type": "note_on", "time": 15, "note": 67, "velocity": 104, "channel": 0}, {"type": "note_off", "time": 368, "note": 67, "velocity": 104, "channel": 0}, {"type": "note_on", "time": 61, "note": 65, "velocity": 108, "channel": 0}, {"type": "note_off", "time": 245, "note": 65, "velocity": 108, "channel": 0}, {"type": "note_on", "time": 92, "note": 62, "velocity": 108, "channel": 0}, {"type": "note_off", "time": 184, "note": 62, "velocity": 108, "channel": 0}, {"type": "note_on", "time": 122, "note": 58, "velocity": 101, "channel": 0}, {"type": "note_off", "time": 291, "note": 58, "velocity": 101, "channel": 0}, {"type": "note_on", "time": 168, "note": 56, "velocity": 103, "channel": 0}, {"type": "note_off", "time": 199, "note": 56, "velocity": 103, "channel": 0}, {"type": "note_on", "time": 0, "note": 63, "velocity": 111, "channel": 0}, {"type": "note_off", "time": 199, "note": 63, "velocity": 111, "channel": 0}, {"type": "note_on", "time": 15, "note": 62, "velocity": 112, "channel": 0}, {"type": "note_off", "time": 322, "note": 62, "velocity": 112, "channel": 0}, {"type": "note_on", "time": 92, "note": 60, "velocity": 103, "channel": 0}, {"type": "note_off", "time": 798, "note": 60, "velocity": 103, "channel": 0}, {"type": "note_on", "time": 2319, "note": 60, "velocity": 113, "channel": 0}, {"type": "note_off", "time": 506, "note": 60, "velocity": 113, "channel": 0}, {"type": "note_on", "time": 30, "note": 62, "velocity": 111, "channel": 0}, {"type": "note_off", "time": 353, "note": 62, "velocity": 111, "channel": 0}, {"type": "note_on", "time": 92, "note": 63, "velocity": 119, "channel": 0}, {"type": "note_off", "time": 476, "note": 63, "velocity": 119, "channel": 0}, {"type": "note_on", "time": 107, "note": 65, "velocity": 113, "channel": 0}, {"type": "note_off", "time": 537, "note": 65, "velocity": 113, "channel": 0}, {"type": "note_on", "time": 30, "note": 62, "velocity": 113, "channel": 0}, {"type": "note_off", "time": 291, "note": 62, "velocity": 113, "channel": 0}, {"type": "note_on", "time": 138, "note": 60, "velocity": 111, "channel": 0}, {"type": "note_off", "time": 353, "note": 60, "velocity": 111, "channel": 0}, {"type": "note_on", "time": 61, "note": 59, "velocity": 113, "channel": 0}, {"type": "note_off", "time": 368, "note": 59, "velocity": 113, "channel": 0}, {"type": "note_on", "time": 92, "note": 55, "velocity": 124, "channel": 0}, {"type": "note_off", "time": 414, "note": 55, "velocity": 124, "channel": 0}, {"type": "note_on", "time": 107, "note": 58, "velocity": 112, "channel": 0}, {"type": "note_off", "time": 337, "note": 58, "velocity": 112, "channel": 0}, {"type": "note_on", "time": 15, "note": 55, "velocity": 105, "channel": 0}, {"type": "note_off", "time": 337, "note": 55, "velocity": 105, "channel": 0}, {"type": "note_on", "time": 107, "note": 57, "velocity": 107, "channel": 0}, {"type": "note_off", "time": 291, "note": 57, "velocity": 107, "channel": 0}, {"type": "note_on", "time": 138, "note": 62, "velocity": 109, "channel": 0}, {"type": "note_off", "time": 368, "note": 62, "velocity": 109, "channel": 0}, {"type": "note_on", "time": 0, "note": 65, "velocity": 108, "channel": 0}, {"type": "note_off", "time": 276, "note": 65, "velocity": 108, "channel": 0}, {"type": "note_on", "time": 46, "note": 63, "velocity": 114, "channel": 0}, {"type": "note_off", "time": 430, "note": 63, "velocity": 114, "channel": 0}, {"type": "note_on", "time": 61, "note": 62, "velocity": 112, "channel": 0}, {"type": "note_off", "time": 307, "note": 62, "velocity": 112, "channel": 0}, {"type": "note_on", "time": 46, "note": 60, "velocity": 107, "channel": 0}, {"type": "note_off", "time": 261, "note": 60, "velocity": 107, "channel": 0}, {"type": "note_on", "time": 30, "note": 58, "velocity": 105, "channel": 0}, {"type": "note_off", "time": 291, "note": 58, "velocity": 105, "channel": 0}, {"type": "note_on", "time": 61, "note": 57, "velocity": 106, "channel": 0}, {"type": "note_off", "time": 414, "note": 57, "velocity": 106, "channel": 0}, {"type": "note_on", "time": 30, "note": 55, "velocity": 104, "channel": 0}, {"type": "note_off", "time": 276, "note": 55, "velocity": 104, "channel": 0}, {"type": "note_on", "time": 153, "note": 52, "velocity": 118, "channel": 0}, {"type": "note_off", "time": 307, "note": 52, "velocity": 118, "channel": 0}, {"type": "note_on", "time": 122, "note": 50, "velocity": 110, "channel": 0}, {"type": "note_off", "time": 414, "note": 50, "velocity": 110, "channel": 0}, {"type": "note_on", "time": 15, "note": 48, "velocity": 113, "channel": 0}, {"type": "note_off", "time": 230, "note": 48, "velocity": 113, "channel": 0}, {"type": "note_on", "time": 46, "note": 46, "velocity": 116, "channel": 0}, {"type": "note_off", "time": 337, "note": 46, "velocity": 116, "channel": 0}, {"type": "note_on", "time": 276, "note": 46, "velocity": 114, "channel": 0}, {"type": "note_off", "time": 353, "note": 46, "velocity": 114, "channel": 0}, {"type": "note_on", "time": 30, "note": 45, "velocity": 116, "channel": 0}, {"type": "note_off", "time": 599, "note": 45, "velocity": 116, "channel": 0}, {"type": "note_on", "time": 15, "note": 44, "velocity": 125, "channel": 0}, {"type": "note_off", "time": 1459, "note": 44, "velocity": 125, "channel": 0}, {"type": "note_on", "time": 13345, "note": 56, "velocity": 108, "channel": 0}, {"type": "note_off", "time": 842, "note": 56, "velocity": 108, "channel": 0}, {"type": "note_on", "time": 64, "note": 53, "velocity": 106, "channel": 0}, {"type": "note_off", "time": 1425, "note": 53, "velocity": 106, "channel": 0}, {"type": "note_on", "time": 1144, "note": 57, "velocity": 100, "channel": 0}, {"type": "note_off", "time": 2397, "note": 57, "velocity": 100, "channel": 0}, {"type": "note_on", "time": 2354, "note": 58, "velocity": 96, "channel": 0}, {"type": "note_off", "time": 2311, "note": 58, "velocity": 96, "channel": 0}, {"type": "note_on", "time": 2894, "note": 60, "velocity": 106, "channel": 0}, {"type": "note_off", "time": 2462, "note": 60, "velocity": 106, "channel": 0}, {"type": "note_on", "time": 4579, "note": 61, "velocity": 117, "channel": 0}, {"type": "note_off", "time": 907, "note": 61, "velocity": 117, "channel": 0}, {"type": "note_on", "time": 2872, "note": 61, "velocity": 111, "channel": 0}, {"type": "note_off", "time": 1144, "note": 61, "velocity": 111, "channel": 0}, {"type": "note_on", "time": 907, "note": 62, "velocity": 109, "channel": 0}, {"type": "note_off", "time": 1360, "note": 62, "velocity": 109, "channel": 0}, {"type": "note_on", "time": 1728, "note": 61, "velocity": 101, "channel": 0}, {"type": "note_off", "time": 1144, "note": 61, "velocity": 101, "channel": 0}, {"type": "note_on", "time": 907, "note": 62, "velocity": 106, "channel": 0}, {"type": "note_off", "time": 1425, "note": 62, "velocity": 106, "channel": 0}, {"type": "note_on", "time": 1620, "note": 61, "velocity": 100, "channel": 0}, {"type": "note_off", "time": 1274, "note": 61, "velocity": 100, "channel": 0}, {"type": "note_on", "time": 172, "note": 62, "velocity": 96, "channel": 0}, {"type": "note_off", "time": 907, "note": 62, "velocity": 96, "channel": 0}, {"type": "note_on", "time": 367, "note": 69, "velocity": 107, "channel": 0}, {"type": "note_off", "time": 1166, "note": 69, "velocity": 107, "channel": 0}, {"type": "note_on", "time": 151, "note": 67, "velocity": 102, "channel": 0}, {"type": "note_off", "time": 691, "note": 67, "velocity": 102, "channel": 0}, {"type": "note_on", "time": 216, "note": 65, "velocity": 105, "channel": 0}, {"type": "note_off", "time": 1447, "note": 65, "velocity": 105, "channel": 0}, {"type": "note_on", "time": 280, "note": 61, "velocity": 109, "channel": 0}, {"type": "note_off", "time": 712, "note": 61, "velocity": 109, "channel": 0}, {"type": "note_on", "time": 129, "note": 58, "velocity": 97, "channel": 0}, {"type": "note_off", "time": 1749, "note": 58, "velocity": 97, "channel": 0}, {"type": "note_on", "time": 151, "note": 53, "velocity": 90, "channel": 0}, {"type": "note_off", "time": 410, "note": 53, "velocity": 90, "channel": 0}, {"type": "note_on", "time": 0, "note": 60, "velocity": 98, "channel": 0}, {"type": "note_off", "time": 2354, "note": 60, "velocity": 98, "channel": 0}, {"type": "note_on", "time": 2916, "note": 62, "velocity": 106, "channel": 0}, {"type": "note_off", "time": 1771, "note": 62, "velocity": 106, "channel": 0}, {"type": "note_on", "time": 2592, "note": 57, "velocity": 10, "channel": 0}, {"type": "note_off", "time": 885, "note": 57, "velocity": 10, "channel": 0}, {"type": "note_on", "time": 21, "note": 58, "velocity": 100, "channel": 0}, {"type": "note_off", "time": 1620, "note": 58, "velocity": 100, "channel": 0}, {"type": "note_on", "time": 108, "note": 57, "velocity": 110, "channel": 0}, {"type": "note_off", "time": 928, "note": 57, "velocity": 110, "channel": 0}, {"type": "note_on", "time": 86, "note": 55, "velocity": 100, "channel": 0}, {"type": "note_off", "time": 1274, "note": 55, "velocity": 100, "channel": 0}, {"type": "note_on", "time": 950, "note": 61, "velocity": 104, "channel": 0}, {"type": "note_off", "time": 2700, "note": 61, "velocity": 104, "channel": 0}, {"type": "note_on", "time": 2743, "note": 57, "velocity": 109, "channel": 0}, {"type": "note_off", "time": 1382, "note": 57, "velocity": 109, "channel": 0}, {"type": "note_on", "time": 64, "note": 55, "velocity": 103, "channel": 0}, {"type": "note_off", "time": 626, "note": 55, "velocity": 103, "channel": 0}, {"type": "note_on", "time": 172, "note": 53, "velocity": 108, "channel": 0}, {"type": "note_off", "time": 1382, "note": 53, "velocity": 108, "channel": 0}, {"type": "note_on", "time": 1252, "note": 60, "velocity": 111, "channel": 0}, {"type": "note_off", "time": 1296, "note": 60, "velocity": 111, "channel": 0}, {"type": "note_on", "time": 1382, "note": 60, "velocity": 108, "channel": 0}, {"type": "note_off", "time": 1360, "note": 60, "velocity": 108, "channel": 0}, {"type": "note_on", "time": 1274, "note": 60, "velocity": 108, "channel": 0}, {"type": "note_off", "time": 1274, "note": 60, "velocity": 108, "channel": 0}, {"type": "note_on", "time": 3585, "note": 62, "velocity": 109, "channel": 0}, {"type": "note_off", "time": 1879, "note": 62, "velocity": 109, "channel": 0}, {"type": "note_on", "time": 237, "note": 57, "velocity": 95, "channel": 0}, {"type": "note_off", "time": 691, "note": 57, "velocity": 95, "channel": 0}, {"type": "note_on", "time": 64, "note": 58, "velocity": 95, "channel": 0}, {"type": "note_off", "time": 1490, "note": 58, "velocity": 95, "channel": 0}, {"type": "note_on", "time": 64, "note": 60, "velocity": 113, "channel": 0}, {"type": "note_off", "time": 993, "note": 60, "velocity": 113, "channel": 0}, {"type": "note_on", "time": 9806, "note": 56, "velocity": 104, "channel": 0}, {"type": "note_off", "time": 1663, "note": 56, "velocity": 104, "channel": 0}, {"type": "note_on", "time": 129, "note": 55, "velocity": 102, "channel": 0}, {"type": "note_off", "time": 561, "note": 55, "velocity": 102, "channel": 0}, {"type": "note_on", "time": 108, "note": 53, "velocity": 103, "channel": 0}, {"type": "note_off", "time": 1598, "note": 53, "velocity": 103, "channel": 0}, {"type": "note_on", "time": 993, "note": 60, "velocity": 113, "channel": 0}, {"type": "note_off", "time": 1404, "note": 60, "velocity": 113, "channel": 0}, {"type": "note_on", "time": 1187, "note": 60, "velocity": 113, "channel": 0}, {"type": "note_off", "time": 1231, "note": 60, "velocity": 113, "channel": 0}, {"type": "note_on", "time": 1382, "note": 60, "velocity": 99, "channel": 0}, {"type": "note_off", "time": 2159, "note": 60, "velocity": 99, "channel": 0}, {"type": "note_on", "time": 2959, "note": 62, "velocity": 114, "channel": 0}, {"type": "note_off", "time": 1555, "note": 62, "velocity": 114, "channel": 0}, {"type": "note_on", "time": 237, "note": 55, "velocity": 98, "channel": 0}, {"type": "note_off", "time": 777, "note": 55, "velocity": 98, "channel": 0}, {"type": "note_on", "time": 43, "note": 56, "velocity": 99, "channel": 0}, {"type": "note_off", "time": 1792, "note": 56, "velocity": 99, "channel": 0}, {"type": "note_on", "time": 237, "note": 60, "velocity": 116, "channel": 0}, {"type": "note_off", "time": 734, "note": 60, "velocity": 116, "channel": 0}, {"type": "note_on", "time": 7257, "note": 57, "velocity": 113, "channel": 0}, {"type": "note_off", "time": 1684, "note": 57, "velocity": 113, "channel": 0}, {"type": "note_on", "time": 129, "note": 55, "velocity": 103, "channel": 0}, {"type": "note_off", "time": 712, "note": 55, "velocity": 103, "channel": 0}, {"type": "note_on", "time": 64, "note": 53, "velocity": 100, "channel": 0}, {"type": "note_off", "time": 1231, "note": 53, "velocity": 100, "channel": 0}, {"type": "note_on", "time": 1231, "note": 60, "velocity": 114, "channel": 0}, {"type": "note_off", "time": 1231, "note": 60, "velocity": 114, "channel": 0}, {"type": "note_on", "time": 1382, "note": 60, "velocity": 113, "channel": 0}, {"type": "note_off", "time": 1274, "note": 60, "velocity": 113, "channel": 0}, {"type": "note_on", "time": 1274, "note": 60, "velocity": 102, "channel": 0}, {"type": "note_off", "time": 2635, "note": 60, "velocity": 102, "channel": 0}, {"type": "note_on", "time": 2592, "note": 62, "velocity": 112, "channel": 0}, {"type": "note_off", "time": 1706, "note": 62, "velocity": 112, "channel": 0}, {"type": "note_on", "time": 237, "note": 57, "velocity": 108, "channel": 0}, {"type": "note_off", "time": 648, "note": 57, "velocity": 108, "channel": 0}, {"type": "note_on", "time": 107, "note": 58, "velocity": 103, "channel": 0}, {"type": "note_off", "time": 1447, "note": 58, "velocity": 103, "channel": 0}, {"type": "note_on", "time": 453, "note": 68, "velocity": 106, "channel": 0}, {"type": "note_off", "time": 950, "note": 68, "velocity": 106, "channel": 0}, {"type": "note_on", "time": 27, "note": 67, "velocity": 108, "channel": 0}, {"type": "note_off", "time": 475, "note": 67, "velocity": 108, "channel": 0}, {"type": "note_on", "time": 1042, "note": 64, "velocity": 112, "channel": 0}, {"type": "note_off", "time": 1080, "note": 64, "velocity": 112, "channel": 0}, {"type": "note_on", "time": 1436, "note": 59, "velocity": 100, "channel": 0}, {"type": "note_off", "time": 1101, "note": 59, "velocity": 100, "channel": 0}, {"type": "note_on", "time": 1436, "note": 56, "velocity": 102, "channel": 0}, {"type": "note_off", "time": 1058, "note": 56, "velocity": 102, "channel": 0}, {"type": "note_on", "time": 1706, "note": 63, "velocity": 122, "channel": 0}, {"type": "note_off", "time": 1274, "note": 63, "velocity": 122, "channel": 0}, {"type": "note_on", "time": 1760, "note": 58, "velocity": 103, "channel": 0}, {"type": "note_off", "time": 1339, "note": 58, "velocity": 103, "channel": 0}, {"type": "note_on", "time": 2808, "note": 60, "velocity": 116, "channel": 0}, {"type": "note_off", "time": 972, "note": 60, "velocity": 116, "channel": 0}, {"type": "note_on", "time": 2916, "note": 65, "velocity": 117, "channel": 0}, {"type": "note_off", "time": 540, "note": 65, "velocity": 117, "channel": 0}, {"type": "note_on", "time": 172, "note": 69, "velocity": 116, "channel": 0}, {"type": "note_off", "time": 842, "note": 69, "velocity": 116, "channel": 0}, {"type": "note_on", "time": 2721, "note": 67, "velocity": 112, "channel": 0}, {"type": "note_off", "time": 756, "note": 67, "velocity": 112, "channel": 0}, {"type": "note_on", "time": 75, "note": 62, "velocity": 107, "channel": 0}, {"type": "note_off", "time": 1015, "note": 62, "velocity": 107, "channel": 0}, {"type": "note_on", "time": 2861, "note": 64, "velocity": 113, "channel": 0}, {"type": "note_off", "time": 907, "note": 64, "velocity": 113, "channel": 0}, {"type": "note_on", "time": 86, "note": 60, "velocity": 111, "channel": 0}, {"type": "note_off", "time": 669, "note": 60, "velocity": 111, "channel": 0}, {"type": "note_on", "time": 3240, "note": 62, "velocity": 110, "channel": 0}, {"type": "note_off", "time": 712, "note": 62, "velocity": 110, "channel": 0}, {"type": "note_on", "time": 259, "note": 65, "velocity": 113, "channel": 0}, {"type": "note_off", "time": 540, "note": 65, "velocity": 113, "channel": 0}, {"type": "note_on", "time": 3412, "note": 64, "velocity": 112, "channel": 0}, {"type": "note_off", "time": 799, "note": 64, "velocity": 112, "channel": 0}, {"type": "note_on", "time": 151, "note": 67, "velocity": 111, "channel": 0}, {"type": "note_off", "time": 669, "note": 67, "velocity": 111, "channel": 0}, {"type": "note_on", "time": 2743, "note": 69, "velocity": 112, "channel": 0}, {"type": "note_off", "time": 1144, "note": 69, "velocity": 112, "channel": 0}, {"type": "note_on", "time": 159, "note": 67, "velocity": 101, "channel": 0}, {"type": "note_off", "time": 537, "note": 67, "velocity": 101, "channel": 0}, {"type": "note_on", "time": 76, "note": 65, "velocity": 113, "channel": 0}, {"type": "note_off", "time": 1351, "note": 65, "velocity": 113, "channel": 0}, {"type": "note_on", "time": 138, "note": 64, "velocity": 102, "channel": 0}, {"type": "note_off", "time": 445, "note": 64, "velocity": 102, "channel": 0}, {"type": "note_on", "time": 153, "note": 67, "velocity": 113, "channel": 0}, {"type": "note_off", "time": 1228, "note": 67, "velocity": 113, "channel": 0}, {"type": "note_on", "time": 168, "note": 64, "velocity": 103, "channel": 0}, {"type": "note_off", "time": 368, "note": 64, "velocity": 103, "channel": 0}, {"type": "note_on", "time": 168, "note": 65, "velocity": 111, "channel": 0}, {"type": "note_off", "time": 1152, "note": 65, "velocity": 111, "channel": 0}, {"type": "note_on", "time": 92, "note": 67, "velocity": 108, "channel": 0}, {"type": "note_off", "time": 414, "note": 67, "velocity": 108, "channel": 0}, {"type": "note_on", "time": 30, "note": 65, "velocity": 115, "channel": 0}, {"type": "note_off", "time": 414, "note": 65, "velocity": 115, "channel": 0}, {"type": "note_on", "time": 61, "note": 64, "velocity": 111, "channel": 0}, {"type": "note_off", "time": 875, "note": 64, "velocity": 111, "channel": 0}, {"type": "note_on", "time": 138, "note": 62, "velocity": 111, "channel": 0}, {"type": "note_off", "time": 860, "note": 62, "velocity": 111, "channel": 0}, {"type": "note_on", "time": 92, "note": 61, "velocity": 97, "channel": 0}, {"type": "note_off", "time": 1121, "note": 61, "velocity": 97, "channel": 0}, {"type": "note_on", "time": 61, "note": 62, "velocity": 102, "channel": 0}, {"type": "note_off", "time": 491, "note": 62, "velocity": 102, "channel": 0}, {"type": "note_on", "time": 46, "note": 64, "velocity": 110, "channel": 0}, {"type": "note_off", "time": 798, "note": 64, "velocity": 110, "channel": 0}, {"type": "note_on", "time": 1105, "note": 65, "velocity": 117, "channel": 0}, {"type": "note_off", "time": 875, "note": 65, "velocity": 117, "channel": 0}, {"type": "note_on", "time": 61, "note": 62, "velocity": 107, "channel": 0}, {"type": "note_off", "time": 522, "note": 62, "velocity": 107, "channel": 0}, {"type": "note_on", "time": 46, "note": 58, "velocity": 104, "channel": 0}, {"type": "note_off", "time": 906, "note": 58, "velocity": 104, "channel": 0}, {"type": "note_on", "time": 215, "note": 55, "velocity": 100, "channel": 0}, {"type": "note_off", "time": 675, "note": 55, "velocity": 100, "channel": 0}, {"type": "note_on", "time": 215, "note": 56, "velocity": 96, "channel": 0}, {"type": "note_off", "time": 307, "note": 56, "velocity": 96, "channel": 0}, {"type": "note_on", "time": 107, "note": 59, "velocity": 98, "channel": 0}, {"type": "note_off", "time": 737, "note": 59, "velocity": 98, "channel": 0}, {"type": "note_on", "time": 1105, "note": 64, "velocity": 109, "channel": 0}, {"type": "note_off", "time": 1029, "note": 64, "velocity": 109, "channel": 0}, {"type": "note_on", "time": 215, "note": 62, "velocity": 104, "channel": 0}, {"type": "note_off", "time": 967, "note": 62, "velocity": 104, "channel": 0}, {"type": "note_on", "time": 92, "note": 60, "velocity": 104, "channel": 0}, {"type": "note_off", "time": 1551, "note": 60, "velocity": 104, "channel": 0}, {"type": "note_on", "time": 322, "note": 62, "velocity": 93, "channel": 0}, {"type": "note_off", "time": 430, "note": 62, "velocity": 93, "channel": 0}, {"type": "note_on", "time": 138, "note": 63, "velocity": 121, "channel": 0}, {"type": "note_off", "time": 1582, "note": 63, "velocity": 121, "channel": 0}, {"type": "note_on", "time": 522, "note": 59, "velocity": 92, "channel": 0}, {"type": "note_off", "time": 583, "note": 59, "velocity": 92, "channel": 0}, {"type": "note_on", "time": 46, "note": 62, "velocity": 114, "channel": 0}, {"type": "note_off", "time": 1320, "note": 62, "velocity": 114, "channel": 0}, {"type": "note_on", "time": 122, "note": 60, "velocity": 105, "channel": 0}, {"type": "note_off", "time": 660, "note": 60, "velocity": 105, "channel": 0}, {"type": "note_on", "time": 537, "note": 55, "velocity": 101, "channel": 0}, {"type": "note_off", "time": 1059, "note": 55, "velocity": 101, "channel": 0}, {"type": "note_on", "time": 138, "note": 58, "velocity": 107, "channel": 0}, {"type": "note_off", "time": 599, "note": 58, "velocity": 107, "channel": 0}, {"type": "note_on", "time": 76, "note": 55, "velocity": 96, "channel": 0}, {"type": "note_off", "time": 629, "note": 55, "velocity": 96, "channel": 0}, {"type": "note_on", "time": 1904, "note": 57, "velocity": 113, "channel": 0}, {"type": "note_off", "time": 614, "note": 57, "velocity": 113, "channel": 0}, {"type": "note_on", "time": 276, "note": 60, "velocity": 98, "channel": 0}, {"type": "note_off", "time": 660, "note": 60, "velocity": 98, "channel": 0}, {"type": "note_on", "time": 184, "note": 63, "velocity": 119, "channel": 0}, {"type": "note_off", "time": 614, "note": 63, "velocity": 119, "channel": 0}, {"type": "note_on", "time": 0, "note": 65, "velocity": 103, "channel": 0}, {"type": "note_off", "time": 645, "note": 65, "velocity": 103, "channel": 0}, {"type": "note_on", "time": 967, "note": 66, "velocity": 112, "channel": 0}, {"type": "note_off", "time": 752, "note": 66, "velocity": 112, "channel": 0}, {"type": "note_on", "time": 122, "note": 64, "velocity": 108, "channel": 0}, {"type": "note_off", "time": 614, "note": 64, "velocity": 108, "channel": 0}, {"type": "note_on", "time": 92, "note": 65, "velocity": 117, "channel": 0}, {"type": "note_off", "time": 675, "note": 65, "velocity": 117, "channel": 0}, {"type": "note_on", "time": 122, "note": 62, "velocity": 113, "channel": 0}, {"type": "note_off", "time": 552, "note": 62, "velocity": 113, "channel": 0}, {"type": "note_on", "time": 107, "note": 58, "velocity": 101, "channel": 0}, {"type": "note_off", "time": 522, "note": 58, "velocity": 101, "channel": 0}, {"type": "note_on", "time": 30, "note": 55, "velocity": 96, "channel": 0}, {"type": "note_off", "time": 506, "note": 55, "velocity": 96, "channel": 0}, {"type": "note_on", "time": 1173, "note": 60, "velocity": 111, "channel": 0}, {"type": "note_off", "time": 669, "note": 60, "velocity": 111, "channel": 0}, {"type": "note_on", "time": 54, "note": 62, "velocity": 107, "channel": 0}, {"type": "note_off", "time": 550, "note": 62, "velocity": 107, "channel": 0}, {"type": "note_on", "time": 118, "note": 63, "velocity": 114, "channel": 0}, {"type": "note_off", "time": 702, "note": 63, "velocity": 114, "channel": 0}, {"type": "note_on", "time": 97, "note": 65, "velocity": 113, "channel": 0}, {"type": "note_off", "time": 777, "note": 65, "velocity": 113, "channel": 0}, {"type": "note_on", "time": 43, "note": 62, "velocity": 112, "channel": 0}, {"type": "note_off", "time": 604, "note": 62, "velocity": 112, "channel": 0}, {"type": "note_on", "time": 129, "note": 60, "velocity": 107, "channel": 0}, {"type": "note_off", "time": 367, "note": 60, "velocity": 107, "channel": 0}, {"type": "note_on", "time": 1592, "note": 58, "velocity": 110, "channel": 0}, {"type": "note_off", "time": 552, "note": 58, "velocity": 110, "channel": 0}, {"type": "note_on", "time": 46, "note": 60, "velocity": 100, "channel": 0}, {"type": "note_off", "time": 599, "note": 60, "velocity": 100, "channel": 0}, {"type": "note_on", "time": 138, "note": 61, "velocity": 109, "channel": 0}, {"type": "note_off", "time": 629, "note": 61, "velocity": 109, "channel": 0}, {"type": "note_on", "time": 107, "note": 63, "velocity": 104, "channel": 0}, {"type": "note_off", "time": 568, "note": 63, "velocity": 104, "channel": 0}, {"type": "note_on", "time": 184, "note": 65, "velocity": 114, "channel": 0}, {"type": "note_off", "time": 721, "note": 65, "velocity": 114, "channel": 0}, {"type": "note_on", "time": 61, "note": 61, "velocity": 103, "channel": 0}, {"type": "note_off", "time": 552, "note": 61, "velocity": 103, "channel": 0}, {"type": "note_on", "time": 1228, "note": 63, "velocity": 117, "channel": 0}, {"type": "note_off", "time": 752, "note": 63, "velocity": 117, "channel": 0}, {"type": "note_on", "time": 30, "note": 61, "velocity": 110, "channel": 0}, {"type": "note_off", "time": 537, "note": 61, "velocity": 110, "channel": 0}, {"type": "note_on", "time": 92, "note": 56, "velocity": 100, "channel": 0}, {"type": "note_off", "time": 629, "note": 56, "velocity": 100, "channel": 0}, {"type": "note_on", "time": 92, "note": 58, "velocity": 99, "channel": 0}, {"type": "note_off", "time": 491, "note": 58, "velocity": 99, "channel": 0}, {"type": "note_on", "time": 875, "note": 61, "velocity": 112, "channel": 0}, {"type": "note_off", "time": 476, "note": 61, "velocity": 112, "channel": 0}, {"type": "note_on", "time": 153, "note": 63, "velocity": 107, "channel": 0}, {"type": "note_off", "time": 645, "note": 63, "velocity": 107, "channel": 0}, {"type": "note_on", "time": 61, "note": 60, "velocity": 108, "channel": 0}, {"type": "note_off", "time": 552, "note": 60, "velocity": 108, "channel": 0}, {"type": "note_on", "time": 130, "note": 61, "velocity": 101, "channel": 0}, {"type": "note_off", "time": 388, "note": 61, "velocity": 101, "channel": 0}, {"type": "note_on", "time": 75, "note": 58, "velocity": 108, "channel": 0}, {"type": "note_off", "time": 550, "note": 58, "velocity": 108, "channel": 0}, {"type": "note_on", "time": 108, "note": 53, "velocity": 103, "channel": 0}, {"type": "note_off", "time": 453, "note": 53, "velocity": 103, "channel": 0}, {"type": "note_on", "time": 680, "note": 56, "velocity": 108, "channel": 0}, {"type": "note_off", "time": 712, "note": 56, "velocity": 108, "channel": 0}, {"type": "note_on", "time": 161, "note": 49, "velocity": 112, "channel": 0}, {"type": "note_off", "time": 540, "note": 49, "velocity": 112, "channel": 0}, {"type": "note_on", "time": 54, "note": 53, "velocity": 108, "channel": 0}, {"type": "note_off", "time": 540, "note": 53, "velocity": 108, "channel": 0}, {"type": "note_on", "time": 215, "note": 56, "velocity": 106, "channel": 0}, {"type": "note_off", "time": 648, "note": 56, "velocity": 106, "channel": 0}, {"type": "note_on", "time": 108, "note": 55, "velocity": 105, "channel": 0}, {"type": "note_off", "time": 345, "note": 55, "velocity": 105, "channel": 0}, {"type": "note_on", "time": 1663, "note": 58, "velocity": 104, "channel": 0}, {"type": "note_off", "time": 777, "note": 58, "velocity": 104, "channel": 0}, {"type": "note_on", "time": 140, "note": 55, "velocity": 101, "channel": 0}, {"type": "note_off", "time": 475, "note": 55, "velocity": 101, "channel": 0}, {"type": "note_on", "time": 86, "note": 57, "velocity": 108, "channel": 0}, {"type": "note_off", "time": 593, "note": 57, "velocity": 108, "channel": 0}, {"type": "note_on", "time": 162, "note": 55, "velocity": 98, "channel": 0}, {"type": "note_off", "time": 496, "note": 55, "velocity": 98, "channel": 0}, {"type": "note_on", "time": 86, "note": 54, "velocity": 99, "channel": 0}, {"type": "note_off", "time": 518, "note": 54, "velocity": 99, "channel": 0}, {"type": "note_on", "time": 97, "note": 57, "velocity": 99, "channel": 0}, {"type": "note_off", "time": 561, "note": 57, "velocity": 99, "channel": 0}, {"type": "note_on", "time": 75, "note": 60, "velocity": 115, "channel": 0}, {"type": "note_off", "time": 658, "note": 60, "velocity": 115, "channel": 0}, {"type": "note_on", "time": 75, "note": 63, "velocity": 120, "channel": 0}, {"type": "note_off", "time": 475, "note": 63, "velocity": 120, "channel": 0}, {"type": "note_on", "time": 1015, "note": 62, "velocity": 124, "channel": 0}, {"type": "note_off", "time": 410, "note": 62, "velocity": 124, "channel": 0}, {"type": "note_on", "time": 108, "note": 66, "velocity": 107, "channel": 0}, {"type": "note_off", "time": 496, "note": 66, "velocity": 107, "channel": 0}, {"type": "note_on", "time": 556, "note": 69, "velocity": 114, "channel": 0}, {"type": "note_off", "time": 522, "note": 69, "velocity": 114, "channel": 0}, {"type": "note_on", "time": 168, "note": 61, "velocity": 113, "channel": 0}, {"type": "note_off", "time": 259, "note": 61, "velocity": 113, "channel": 0}, {"type": "note_on", "time": 132, "note": 72, "velocity": 116, "channel": 0}, {"type": "note_off", "time": 3317, "note": 72, "velocity": 116, "channel": 0}, {"type": "note_on", "time": 2534, "note": 72, "velocity": 117, "channel": 0}, {"type": "note_off", "time": 476, "note": 72, "velocity": 117, "channel": 0}, {"type": "note_on", "time": 46, "note": 69, "velocity": 114, "channel": 0}, {"type": "note_off", "time": 276, "note": 69, "velocity": 114, "channel": 0}, {"type": "note_on", "time": 0, "note": 65, "velocity": 113, "channel": 0}, {"type": "note_off", "time": 261, "note": 65, "velocity": 113, "channel": 0}, {"type": "note_on", "time": 122, "note": 60, "velocity": 110, "channel": 0}, {"type": "note_off", "time": 307, "note": 60, "velocity": 110, "channel": 0}, {"type": "note_on", "time": 37, "note": 61, "velocity": 111, "channel": 0}, {"type": "note_off", "time": 410, "note": 61, "velocity": 111, "channel": 0}, {"type": "note_on", "time": 197, "note": 72, "velocity": 118, "channel": 0}, {"type": "note_off", "time": 2319, "note": 72, "velocity": 118, "channel": 0}, {"type": "note_on", "time": 1608, "note": 72, "velocity": 108, "channel": 0}, {"type": "note_off", "time": 357, "note": 72, "velocity": 108, "channel": 0}, {"type": "note_on", "time": 0, "note": 69, "velocity": 114, "channel": 0}, {"type": "note_off", "time": 261, "note": 69, "velocity": 114, "channel": 0}, {"type": "note_on", "time": 15, "note": 65, "velocity": 110, "channel": 0}, {"type": "note_off", "time": 322, "note": 65, "velocity": 110, "channel": 0}, {"type": "note_on", "time": 76, "note": 60, "velocity": 106, "channel": 0}, {"type": "note_off", "time": 230, "note": 60, "velocity": 106, "channel": 0}, {"type": "note_on", "time": 61, "note": 61, "velocity": 108, "channel": 0}, {"type": "note_off", "time": 261, "note": 61, "velocity": 108, "channel": 0}, {"type": "note_on", "time": 122, "note": 65, "velocity": 107, "channel": 0}, {"type": "note_off", "time": 353, "note": 65, "velocity": 107, "channel": 0}, {"type": "note_on", "time": 230, "note": 69, "velocity": 105, "channel": 0}, {"type": "note_off", "time": 491, "note": 69, "velocity": 105, "channel": 0}, {"type": "note_on", "time": 138, "note": 72, "velocity": 107, "channel": 0}, {"type": "note_off", "time": 414, "note": 72, "velocity": 107, "channel": 0}, {"type": "note_on", "time": 1766, "note": 72, "velocity": 107, "channel": 0}, {"type": "note_off", "time": 261, "note": 72, "velocity": 107, "channel": 0}, {"type": "note_on", "time": 107, "note": 69, "velocity": 119, "channel": 0}, {"type": "note_off", "time": 261, "note": 69, "velocity": 119, "channel": 0}, {"type": "note_on", "time": 168, "note": 65, "velocity": 107, "channel": 0}, {"type": "note_off", "time": 353, "note": 65, "velocity": 107, "channel": 0}, {"type": "note_on", "time": 230, "note": 60, "velocity": 115, "channel": 0}, {"type": "note_off", "time": 307, "note": 60, "velocity": 115, "channel": 0}, {"type": "note_on", "time": 61, "note": 61, "velocity": 114, "channel": 0}, {"type": "note_off", "time": 337, "note": 61, "velocity": 114, "channel": 0}, {"type": "note_on", "time": 76, "note": 65, "velocity": 110, "channel": 0}, {"type": "note_off", "time": 291, "note": 65, "velocity": 110, "channel": 0}, {"type": "note_on", "time": 0, "note": 69, "velocity": 116, "channel": 0}, {"type": "note_off", "time": 291, "note": 69, "velocity": 116, "channel": 0}, {"type": "note_on", "time": 61, "note": 72, "velocity": 116, "channel": 0}, {"type": "note_off", "time": 522, "note": 72, "velocity": 116, "channel": 0}, {"type": "note_on", "time": 2104, "note": 72, "velocity": 113, "channel": 0}, {"type": "note_off", "time": 460, "note": 72, "velocity": 113, "channel": 0}, {"type": "note_on", "time": 61, "note": 70, "velocity": 106, "channel": 0}, {"type": "note_off", "time": 476, "note": 70, "velocity": 106, "channel": 0}, {"type": "note_on", "time": 153, "note": 66, "velocity": 110, "channel": 0}, {"type": "note_off", "time": 261, "note": 66, "velocity": 110, "channel": 0}, {"type": "note_on", "time": 46, "note": 65, "velocity": 115, "channel": 0}, {"type": "note_off", "time": 307, "note": 65, "velocity": 115, "channel": 0}, {"type": "note_on", "time": 15, "note": 62, "velocity": 115, "channel": 0}, {"type": "note_off", "time": 445, "note": 62, "velocity": 115, "channel": 0}, {"type": "note_on", "time": 1459, "note": 62, "velocity": 119, "channel": 0}, {"type": "note_off", "time": 245, "note": 62, "velocity": 119, "channel": 0}, {"type": "note_on", "time": 61, "note": 65, "velocity": 112, "channel": 0}, {"type": "note_off", "time": 291, "note": 65, "velocity": 112, "channel": 0}, {"type": "note_on", "time": 15, "note": 67, "velocity": 109, "channel": 0}, {"type": "note_off", "time": 307, "note": 67, "velocity": 109, "channel": 0}, {"type": "note_on", "time": 153, "note": 65, "velocity": 113, "channel": 0}, {"type": "note_off", "time": 368, "note": 65, "velocity": 113, "channel": 0}, {"type": "note_on", "time": 153, "note": 62, "velocity": 110, "channel": 0}, {"type": "note_off", "time": 337, "note": 62, "velocity": 110, "channel": 0}, {"type": "note_on", "time": 92, "note": 58, "velocity": 111, "channel": 0}, {"type": "note_off", "time": 307, "note": 58, "velocity": 111, "channel": 0}, {"type": "note_on", "time": 46, "note": 55, "velocity": 107, "channel": 0}, {"type": "note_off", "time": 337, "note": 55, "velocity": 107, "channel": 0}, {"type": "note_on", "time": 15, "note": 64, "velocity": 112, "channel": 0}, {"type": "note_off", "time": 568, "note": 64, "velocity": 112, "channel": 0}, {"type": "note_on", "time": 537, "note": 64, "velocity": 112, "channel": 0}, {"type": "note_off", "time": 430, "note": 64, "velocity": 112, "channel": 0}, {"type": "note_on", "time": 15, "note": 60, "velocity": 113, "channel": 0}, {"type": "note_off", "time": 245, "note": 60, "velocity": 113, "channel": 0}, {"type": "note_on", "time": 46, "note": 62, "velocity": 109, "channel": 0}, {"type": "note_off", "time": 675, "note": 62, "velocity": 109, "channel": 0}, {"type": "note_on", "time": 67, "note": 64, "velocity": 109, "channel": 0}, {"type": "note_off", "time": 205, "note": 64, "velocity": 109, "channel": 0}, {"type": "note_on", "time": 65, "note": 58, "velocity": 117, "channel": 0}, {"type": "note_off", "time": 291, "note": 58, "velocity": 117, "channel": 0}, {"type": "note_on", "time": 15, "note": 55, "velocity": 118, "channel": 0}, {"type": "note_off", "time": 254, "note": 55, "velocity": 118, "channel": 0}, {"type": "note_on", "time": 0, "note": 52, "velocity": 116, "channel": 0}, {"type": "note_off", "time": 337, "note": 52, "velocity": 116, "channel": 0}, {"type": "note_on", "time": 37, "note": 55, "velocity": 123, "channel": 0}, {"type": "note_off", "time": 307, "note": 55, "velocity": 123, "channel": 0}, {"type": "note_on", "time": 73, "note": 53, "velocity": 123, "channel": 0}, {"type": "note_off", "time": 322, "note": 53, "velocity": 123, "channel": 0}, {"type": "note_on", "time": 95, "note": 55, "velocity": 111, "channel": 0}, {"type": "note_off", "time": 184, "note": 55, "velocity": 111, "channel": 0}, {"type": "note_on", "time": 131, "note": 57, "velocity": 105, "channel": 0}, {"type": "note_off", "time": 368, "note": 57, "velocity": 105, "channel": 0}, {"type": "note_on", "time": 30, "note": 60, "velocity": 107, "channel": 0}, {"type": "note_off", "time": 322, "note": 60, "velocity": 107, "channel": 0}, {"type": "note_on", "time": 12, "note": 62, "velocity": 110, "channel": 0}, {"type": "note_off", "time": 322, "note": 62, "velocity": 110, "channel": 0}, {"type": "note_on", "time": 260, "note": 57, "velocity": 119, "channel": 0}, {"type": "note_off", "time": 291, "note": 57, "velocity": 119, "channel": 0}, {"type": "note_on", "time": 129, "note": 58, "velocity": 110, "channel": 0}, {"type": "note_off", "time": 399, "note": 58, "velocity": 110, "channel": 0}, {"type": "note_on", "time": 126, "note": 65, "velocity": 111, "channel": 0}, {"type": "note_off", "time": 368, "note": 65, "velocity": 111, "channel": 0}, {"type": "note_on", "time": 168, "note": 69, "velocity": 104, "channel": 0}, {"type": "note_off", "time": 460, "note": 69, "velocity": 104, "channel": 0}, {"type": "note_on", "time": 184, "note": 72, "velocity": 102, "channel": 0}, {"type": "note_off", "time": 1136, "note": 72, "velocity": 102, "channel": 0}, {"type": "note_on", "time": 13578, "note": 70, "velocity": 114, "channel": 0}, {"type": "note_off", "time": 1259, "note": 70, "velocity": 114, "channel": 0}, {"type": "note_on", "time": 2707, "note": 70, "velocity": 112, "channel": 0}, {"type": "note_off", "time": 885, "note": 70, "velocity": 112, "channel": 0}, {"type": "note_on", "time": 183, "note": 70, "velocity": 96, "channel": 0}, {"type": "note_off", "time": 756, "note": 70, "velocity": 96, "channel": 0}, {"type": "note_on", "time": 75, "note": 70, "velocity": 108, "channel": 0}, {"type": "note_off", "time": 561, "note": 70, "velocity": 108, "channel": 0}, {"type": "note_on", "time": 216, "note": 70, "velocity": 113, "channel": 0}, {"type": "note_off", "time": 637, "note": 70, "velocity": 113, "channel": 0}, {"type": "note_on", "time": 535, "note": 68, "velocity": 110, "channel": 0}, {"type": "note_off", "time": 691, "note": 68, "velocity": 110, "channel": 0}, {"type": "note_on", "time": 599, "note": 65, "velocity": 92, "channel": 0}, {"type": "note_off", "time": 522, "note": 65, "velocity": 92, "channel": 0}, {"type": "note_on", "time": 476, "note": 67, "velocity": 99, "channel": 0}, {"type": "note_off", "time": 1305, "note": 67, "velocity": 99, "channel": 0}, {"type": "note_on", "time": 261, "note": 65, "velocity": 106, "channel": 0}, {"type": "note_off", "time": 552, "note": 65, "velocity": 106, "channel": 0}, {"type": "note_on", "time": 184, "note": 63, "velocity": 101, "channel": 0}, {"type": "note_off", "time": 1858, "note": 63, "velocity": 101, "channel": 0}, {"type": "note_on", "time": 184, "note": 60, "velocity": 96, "channel": 0}, {"type": "note_off", "time": 430, "note": 60, "velocity": 96, "channel": 0}, {"type": "note_on", "time": 245, "note": 62, "velocity": 104, "channel": 0}, {"type": "note_off", "time": 1198, "note": 62, "velocity": 104, "channel": 0}, {"type": "note_on", "time": 1259, "note": 60, "velocity": 104, "channel": 0}, {"type": "note_off", "time": 1121, "note": 60, "velocity": 104, "channel": 0}, {"type": "note_on", "time": 1413, "note": 56, "velocity": 95, "channel": 0}, {"type": "note_off", "time": 1259, "note": 56, "velocity": 95, "channel": 0}, {"type": "note_on", "time": 1382, "note": 53, "velocity": 98, "channel": 0}, {"type": "note_off", "time": 1182, "note": 53, "velocity": 98, "channel": 0}, {"type": "note_on", "time": 1244, "note": 55, "velocity": 88, "channel": 0}, {"type": "note_off", "time": 1090, "note": 55, "velocity": 88, "channel": 0}, {"type": "note_on", "time": 3578, "note": 67, "velocity": 101, "channel": 0}, {"type": "note_off", "time": 1766, "note": 67, "velocity": 101, "channel": 0}, {"type": "note_on", "time": 3920, "note": 66, "velocity": 112, "channel": 0}, {"type": "note_off", "time": 464, "note": 66, "velocity": 112, "channel": 0}, {"type": "note_on", "time": 100, "note": 67, "velocity": 106, "channel": 0}, {"type": "note_off", "time": 706, "note": 67, "velocity": 106, "channel": 0}, {"type": "note_on", "time": 168, "note": 67, "velocity": 111, "channel": 0}, {"type": "note_off", "time": 814, "note": 67, "velocity": 111, "channel": 0}, {"type": "note_on", "time": 164, "note": 67, "velocity": 104, "channel": 0}, {"type": "note_off", "time": 928, "note": 67, "velocity": 104, "channel": 0}, {"type": "note_on", "time": 1487, "note": 67, "velocity": 94, "channel": 0}, {"type": "note_off", "time": 1797, "note": 67, "velocity": 94, "channel": 0}, {"type": "note_on", "time": 2242, "note": 67, "velocity": 106, "channel": 0}, {"type": "note_off", "time": 752, "note": 67, "velocity": 106, "channel": 0}, {"type": "note_on", "time": 1827, "note": 67, "velocity": 112, "channel": 0}, {"type": "note_off", "time": 844, "note": 67, "velocity": 112, "channel": 0}, {"type": "note_on", "time": 1689, "note": 67, "velocity": 75, "channel": 0}, {"type": "note_off", "time": 261, "note": 67, "velocity": 75, "channel": 0}, {"type": "note_on", "time": 399, "note": 67, "velocity": 111, "channel": 0}, {"type": "note_off", "time": 1459, "note": 67, "velocity": 111, "channel": 0}, {"type": "note_on", "time": 46, "note": 67, "velocity": 98, "channel": 0}, {"type": "note_off", "time": 814, "note": 67, "velocity": 98, "channel": 0}, {"type": "note_on", "time": 61, "note": 64, "velocity": 108, "channel": 0}, {"type": "note_off", "time": 1075, "note": 64, "velocity": 108, "channel": 0}, {"type": "note_on", "time": 1873, "note": 65, "velocity": 10, "channel": 0}, {"type": "note_off", "time": 1351, "note": 65, "velocity": 10, "channel": 0}, {"type": "note_on", "time": 92, "note": 67, "velocity": 103, "channel": 0}, {"type": "note_off", "time": 353, "note": 67, "velocity": 103, "channel": 0}, {"type": "note_on", "time": 107, "note": 65, "velocity": 109, "channel": 0}, {"type": "note_off", "time": 491, "note": 65, "velocity": 109, "channel": 0}, {"type": "note_on", "time": 230, "note": 62, "velocity": 104, "channel": 0}, {"type": "note_off", "time": 1121, "note": 62, "velocity": 104, "channel": 0}, {"type": "note_on", "time": 153, "note": 58, "velocity": 94, "channel": 0}, {"type": "note_off", "time": 936, "note": 58, "velocity": 94, "channel": 0}, {"type": "note_on", "time": 15, "note": 64, "velocity": 105, "channel": 0}, {"type": "note_off", "time": 2334, "note": 64, "velocity": 105, "channel": 0}, {"type": "note_on", "time": 2964, "note": 64, "velocity": 112, "channel": 0}, {"type": "note_off", "time": 1259, "note": 64, "velocity": 112, "channel": 0}, {"type": "note_on", "time": 122, "note": 65, "velocity": 113, "channel": 0}, {"type": "note_off", "time": 353, "note": 65, "velocity": 113, "channel": 0}, {"type": "note_on", "time": 92, "note": 64, "velocity": 109, "channel": 0}, {"type": "note_off", "time": 307, "note": 64, "velocity": 109, "channel": 0}, {"type": "note_on", "time": 76, "note": 60, "velocity": 109, "channel": 0}, {"type": "note_off", "time": 1536, "note": 60, "velocity": 109, "channel": 0}, {"type": "note_on", "time": 276, "note": 62, "velocity": 121, "channel": 0}, {"type": "note_off", "time": 660, "note": 62, "velocity": 121, "channel": 0}, {"type": "note_on", "time": 261, "note": 58, "velocity": 100, "channel": 0}, {"type": "note_off", "time": 1228, "note": 58, "velocity": 100, "channel": 0}, {"type": "note_on", "time": 384, "note": 60, "velocity": 115, "channel": 0}, {"type": "note_off", "time": 706, "note": 60, "velocity": 115, "channel": 0}, {"type": "note_on", "time": 399, "note": 57, "velocity": 108, "channel": 0}, {"type": "note_off", "time": 1351, "note": 57, "velocity": 108, "channel": 0}, {"type": "note_on", "time": 384, "note": 58, "velocity": 114, "channel": 0}, {"type": "note_off", "time": 1044, "note": 58, "velocity": 114, "channel": 0}, {"type": "note_on", "time": 62, "note": 57, "velocity": 105, "channel": 0}, {"type": "note_off", "time": 1339, "note": 57, "velocity": 105, "channel": 0}, {"type": "note_on", "time": 810, "note": 55, "velocity": 100, "channel": 0}, {"type": "note_off", "time": 2227, "note": 55, "velocity": 100, "channel": 0}, {"type": "note_on", "time": 3071, "note": 57, "velocity": 116, "channel": 0}, {"type": "note_off", "time": 967, "note": 57, "velocity": 116, "channel": 0}, {"type": "note_on", "time": 1075, "note": 60, "velocity": 94, "channel": 0}, {"type": "note_off", "time": 5176, "note": 60, "velocity": 94, "channel": 0}, {"type": "note_on", "time": 52, "note": 62, "velocity": 114, "channel": 0}, {"type": "note_off", "time": 1090, "note": 62, "velocity": 114, "channel": 0}, {"type": "note_on", "time": 14492, "note": 65, "velocity": 99, "channel": 0}, {"type": "note_off", "time": 430, "note": 65, "velocity": 99, "channel": 0}, {"type": "note_on", "time": 168, "note": 69, "velocity": 117, "channel": 0}, {"type": "note_off", "time": 921, "note": 69, "velocity": 117, "channel": 0}, {"type": "note_on", "time": 844, "note": 68, "velocity": 109, "channel": 0}, {"type": "note_off", "time": 2181, "note": 68, "velocity": 109, "channel": 0}, {"type": "note_on", "time": 875, "note": 69, "velocity": 111, "channel": 0}, {"type": "note_off", "time": 1182, "note": 69, "velocity": 111, "channel": 0}, {"type": "note_on", "time": 107, "note": 68, "velocity": 106, "channel": 0}, {"type": "note_off", "time": 1121, "note": 68, "velocity": 106, "channel": 0}, {"type": "note_on", "time": 476, "note": 69, "velocity": 110, "channel": 0}, {"type": "note_off", "time": 1628, "note": 69, "velocity": 110, "channel": 0}, {"type": "note_on", "time": 645, "note": 69, "velocity": 105, "channel": 0}, {"type": "note_off", "time": 599, "note": 69, "velocity": 105, "channel": 0}, {"type": "note_on", "time": 184, "note": 70, "velocity": 84, "channel": 0}, {"type": "note_off", "time": 675, "note": 70, "velocity": 84, "channel": 0}, {"type": "note_on", "time": 122, "note": 69, "velocity": 111, "channel": 0}, {"type": "note_off", "time": 629, "note": 69, "velocity": 111, "channel": 0}, {"type": "note_on", "time": 936, "note": 65, "velocity": 111, "channel": 0}, {"type": "note_off", "time": 998, "note": 65, "velocity": 111, "channel": 0}, {"type": "note_on", "time": 30, "note": 60, "velocity": 103, "channel": 0}, {"type": "note_off", "time": 875, "note": 60, "velocity": 103, "channel": 0}, {"type": "note_on", "time": 629, "note": 63, "velocity": 114, "channel": 0}, {"type": "note_off", "time": 906, "note": 63, "velocity": 114, "channel": 0}, {"type": "note_on", "time": 92, "note": 60, "velocity": 96, "channel": 0}, {"type": "note_off", "time": 1105, "note": 60, "velocity": 96, "channel": 0}, {"type": "note_on", "time": 583, "note": 63, "velocity": 115, "channel": 0}, {"type": "note_off", "time": 1121, "note": 63, "velocity": 115, "channel": 0}, {"type": "note_on", "time": 568, "note": 60, "velocity": 90, "channel": 0}, {"type": "note_off", "time": 3133, "note": 60, "velocity": 90, "channel": 0}, {"type": "note_on", "time": 2549, "note": 60, "velocity": 102, "channel": 0}, {"type": "note_off", "time": 645, "note": 60, "velocity": 102, "channel": 0}, {"type": "note_on", "time": 215, "note": 62, "velocity": 118, "channel": 0}, {"type": "note_off", "time": 829, "note": 62, "velocity": 118, "channel": 0}, {"type": "note_on", "time": 276, "note": 63, "velocity": 121, "channel": 0}, {"type": "note_off", "time": 860, "note": 63, "velocity": 121, "channel": 0}, {"type": "note_on", "time": 245, "note": 65, "velocity": 118, "channel": 0}, {"type": "note_off", "time": 829, "note": 65, "velocity": 118, "channel": 0}, {"type": "note_on", "time": 92, "note": 67, "velocity": 109, "channel": 0}, {"type": "note_off", "time": 921, "note": 67, "velocity": 109, "channel": 0}, {"type": "note_on", "time": 368, "note": 69, "velocity": 113, "channel": 0}, {"type": "note_off", "time": 890, "note": 69, "velocity": 113, "channel": 0}, {"type": "note_on", "time": 522, "note": 70, "velocity": 112, "channel": 0}, {"type": "note_off", "time": 860, "note": 70, "velocity": 112, "channel": 0}, {"type": "note_on", "time": 383, "note": 72, "velocity": 112, "channel": 0}, {"type": "note_off", "time": 1244, "note": 72, "velocity": 112, "channel": 0}, {"type": "note_on", "time": 122, "note": 74, "velocity": 105, "channel": 0}, {"type": "note_off", "time": 1013, "note": 74, "velocity": 105, "channel": 0}, {"type": "note_on", "time": 122, "note": 73, "velocity": 114, "channel": 0}, {"type": "note_off", "time": 552, "note": 73, "velocity": 114, "channel": 0}, {"type": "note_on", "time": 0, "note": 72, "velocity": 115, "channel": 0}, {"type": "note_off", "time": 737, "note": 72, "velocity": 115, "channel": 0}, {"type": "note_on", "time": 399, "note": 69, "velocity": 102, "channel": 0}, {"type": "note_off", "time": 890, "note": 69, "velocity": 102, "channel": 0}, {"type": "note_on", "time": 215, "note": 72, "velocity": 114, "channel": 0}, {"type": "note_off", "time": 798, "note": 72, "velocity": 114, "channel": 0}, {"type": "note_on", "time": 952, "note": 72, "velocity": 111, "channel": 0}, {"type": "note_off", "time": 737, "note": 72, "velocity": 111, "channel": 0}, {"type": "note_on", "time": 32, "note": 70, "velocity": 105, "channel": 0}, {"type": "note_off", "time": 712, "note": 70, "velocity": 105, "channel": 0}, {"type": "note_on", "time": 391, "note": 65, "velocity": 108, "channel": 0}, {"type": "note_off", "time": 645, "note": 65, "velocity": 108, "channel": 0}, {"type": "note_on", "time": 238, "note": 60, "velocity": 100, "channel": 0}, {"type": "note_off", "time": 691, "note": 60, "velocity": 100, "channel": 0}, {"type": "note_on", "time": 324, "note": 68, "velocity": 104, "channel": 0}, {"type": "note_off", "time": 583, "note": 68, "velocity": 104, "channel": 0}, {"type": "note_on", "time": 540, "note": 62, "velocity": 96, "channel": 0}, {"type": "note_off", "time": 1749, "note": 62, "velocity": 96, "channel": 0}, {"type": "note_on", "time": 11832, "note": 67, "velocity": 118, "channel": 0}, {"type": "note_off", "time": 629, "note": 67, "velocity": 118, "channel": 0}, {"type": "note_on", "time": 107, "note": 67, "velocity": 124, "channel": 0}, {"type": "note_off", "time": 645, "note": 67, "velocity": 124, "channel": 0}, {"type": "note_on", "time": 92, "note": 67, "velocity": 115, "channel": 0}, {"type": "note_off", "time": 936, "note": 67, "velocity": 115, "channel": 0}, {"type": "note_on", "time": 76, "note": 65, "velocity": 121, "channel": 0}, {"type": "note_off", "time": 691, "note": 65, "velocity": 121, "channel": 0}, {"type": "note_on", "time": 122, "note": 65, "velocity": 116, "channel": 0}, {"type": "note_off", "time": 522, "note": 65, "velocity": 116, "channel": 0}, {"type": "note_on", "time": 138, "note": 65, "velocity": 120, "channel": 0}, {"type": "note_off", "time": 1029, "note": 65, "velocity": 120, "channel": 0}, {"type": "note_on", "time": 153, "note": 64, "velocity": 117, "channel": 0}, {"type": "note_off", "time": 583, "note": 64, "velocity": 117, "channel": 0}, {"type": "note_on", "time": 61, "note": 67, "velocity": 106, "channel": 0}, {"type": "note_off", "time": 384, "note": 67, "velocity": 106, "channel": 0}, {"type": "note_on", "time": 76, "note": 64, "velocity": 116, "channel": 0}, {"type": "note_off", "time": 599, "note": 64, "velocity": 116, "channel": 0}, {"type": "note_on", "time": 107, "note": 65, "velocity": 119, "channel": 0}, {"type": "note_off", "time": 629, "note": 65, "velocity": 119, "channel": 0}, {"type": "note_on", "time": 61, "note": 67, "velocity": 109, "channel": 0}, {"type": "note_off", "time": 629, "note": 67, "velocity": 109, "channel": 0}, {"type": "note_on", "time": 138, "note": 64, "velocity": 109, "channel": 0}, {"type": "note_off", "time": 537, "note": 64, "velocity": 109, "channel": 0}, {"type": "note_on", "time": 122, "note": 65, "velocity": 121, "channel": 0}, {"type": "note_off", "time": 583, "note": 65, "velocity": 121, "channel": 0}, {"type": "note_on", "time": 30, "note": 62, "velocity": 115, "channel": 0}, {"type": "note_off", "time": 368, "note": 62, "velocity": 115, "channel": 0}, {"type": "note_on", "time": 122, "note": 58, "velocity": 109, "channel": 0}, {"type": "note_off", "time": 491, "note": 58, "velocity": 109, "channel": 0}, {"type": "note_on", "time": 30, "note": 55, "velocity": 94, "channel": 0}, {"type": "note_off", "time": 506, "note": 55, "velocity": 94, "channel": 0}, {"type": "note_on", "time": 430, "note": 64, "velocity": 112, "channel": 0}, {"type": "note_off", "time": 890, "note": 64, "velocity": 112, "channel": 0}, {"type": "note_on", "time": 257, "note": 60, "velocity": 120, "channel": 0}, {"type": "note_off", "time": 324, "note": 60, "velocity": 120, "channel": 0}, {"type": "note_on", "time": 43, "note": 62, "velocity": 112, "channel": 0}, {"type": "note_off", "time": 583, "note": 62, "velocity": 112, "channel": 0}, {"type": "note_on", "time": 64, "note": 63, "velocity": 125, "channel": 0}, {"type": "note_off", "time": 648, "note": 63, "velocity": 125, "channel": 0}, {"type": "note_on", "time": 194, "note": 66, "velocity": 104, "channel": 0}, {"type": "note_off", "time": 518, "note": 66, "velocity": 104, "channel": 0}, {"type": "note_on", "time": 194, "note": 69, "velocity": 119, "channel": 0}, {"type": "note_off", "time": 518, "note": 69, "velocity": 119, "channel": 0}, {"type": "note_on", "time": 324, "note": 74, "velocity": 111, "channel": 0}, {"type": "note_off", "time": 669, "note": 74, "velocity": 111, "channel": 0}, {"type": "note_on", "time": 43, "note": 72, "velocity": 108, "channel": 0}, {"type": "note_off", "time": 367, "note": 72, "velocity": 108, "channel": 0}, {"type": "note_on", "time": 43, "note": 70, "velocity": 107, "channel": 0}, {"type": "note_off", "time": 1252, "note": 70, "velocity": 107, "channel": 0}, {"type": "note_on", "time": 453, "note": 66, "velocity": 95, "channel": 0}, {"type": "note_off", "time": 324, "note": 66, "velocity": 95, "channel": 0}, {"type": "note_on", "time": 64, "note": 69, "velocity": 119, "channel": 0}, {"type": "note_off", "time": 626, "note": 69, "velocity": 119, "channel": 0}, {"type": "note_on", "time": 108, "note": 67, "velocity": 110, "channel": 0}, {"type": "note_off", "time": 302, "note": 67, "velocity": 110, "channel": 0}, {"type": "note_on", "time": 86, "note": 62, "velocity": 109, "channel": 0}, {"type": "note_off", "time": 540, "note": 62, "velocity": 109, "channel": 0}, {"type": "note_on", "time": 108, "note": 58, "velocity": 121, "channel": 0}, {"type": "note_off", "time": 216, "note": 58, "velocity": 121, "channel": 0}, {"type": "note_on", "time": 626, "note": 65, "velocity": 113, "channel": 0}, {"type": "note_off", "time": 691, "note": 65, "velocity": 113, "channel": 0}, {"type": "note_on", "time": 86, "note": 62, "velocity": 106, "channel": 0}, {"type": "note_off", "time": 388, "note": 62, "velocity": 106, "channel": 0}, {"type": "note_on", "time": 68, "note": 64, "velocity": 119, "channel": 0}, {"type": "note_off", "time": 430, "note": 64, "velocity": 119, "channel": 0}, {"type": "note_on", "time": 61, "note": 60, "velocity": 112, "channel": 0}, {"type": "note_off", "time": 522, "note": 60, "velocity": 112, "channel": 0}, {"type": "note_on", "time": 84, "note": 55, "velocity": 100, "channel": 0}, {"type": "note_off", "time": 561, "note": 55, "velocity": 100, "channel": 0}, {"type": "note_on", "time": 302, "note": 58, "velocity": 111, "channel": 0}, {"type": "note_off", "time": 388, "note": 58, "velocity": 111, "channel": 0}, {"type": "note_on", "time": 151, "note": 60, "velocity": 113, "channel": 0}, {"type": "note_off", "time": 280, "note": 60, "velocity": 113, "channel": 0}, {"type": "note_on", "time": 86, "note": 57, "velocity": 109, "channel": 0}, {"type": "note_off", "time": 324, "note": 57, "velocity": 109, "channel": 0}, {"type": "note_on", "time": 388, "note": 62, "velocity": 107, "channel": 0}, {"type": "note_off", "time": 496, "note": 62, "velocity": 107, "channel": 0}, {"type": "note_on", "time": 129, "note": 58, "velocity": 106, "channel": 0}, {"type": "note_off", "time": 280, "note": 58, "velocity": 106, "channel": 0}, {"type": "note_on", "time": 0, "note": 53, "velocity": 113, "channel": 0}, {"type": "note_off", "time": 410, "note": 53, "velocity": 113, "channel": 0}, {"type": "note_on", "time": 86, "note": 50, "velocity": 109, "channel": 0}, {"type": "note_off", "time": 367, "note": 50, "velocity": 109, "channel": 0}, {"type": "note_on", "time": 64, "note": 54, "velocity": 116, "channel": 0}, {"type": "note_off", "time": 259, "note": 54, "velocity": 116, "channel": 0}, {"type": "note_on", "time": 64, "note": 52, "velocity": 114, "channel": 0}, {"type": "note_off", "time": 777, "note": 52, "velocity": 114, "channel": 0}, {"type": "note_on", "time": 6520, "note": 62, "velocity": 114, "channel": 0}, {"type": "note_off", "time": 476, "note": 62, "velocity": 114, "channel": 0}, {"type": "note_on", "time": 92, "note": 60, "velocity": 120, "channel": 0}, {"type": "note_off", "time": 384, "note": 60, "velocity": 120, "channel": 0}, {"type": "note_on", "time": 61, "note": 62, "velocity": 119, "channel": 0}, {"type": "note_off", "time": 307, "note": 62, "velocity": 119, "channel": 0}, {"type": "note_on", "time": 76, "note": 60, "velocity": 114, "channel": 0}, {"type": "note_off", "time": 291, "note": 60, "velocity": 114, "channel": 0}, {"type": "note_on", "time": 76, "note": 62, "velocity": 117, "channel": 0}, {"type": "note_off", "time": 276, "note": 62, "velocity": 117, "channel": 0}, {"type": "note_on", "time": 30, "note": 60, "velocity": 112, "channel": 0}, {"type": "note_off", "time": 276, "note": 60, "velocity": 112, "channel": 0}, {"type": "note_on", "time": 76, "note": 62, "velocity": 117, "channel": 0}, {"type": "note_off", "time": 322, "note": 62, "velocity": 117, "channel": 0}, {"type": "note_on", "time": 92, "note": 60, "velocity": 117, "channel": 0}, {"type": "note_off", "time": 384, "note": 60, "velocity": 117, "channel": 0}, {"type": "note_on", "time": 107, "note": 62, "velocity": 119, "channel": 0}, {"type": "note_off", "time": 890, "note": 62, "velocity": 119, "channel": 0}, {"type": "note_on", "time": 30, "note": 60, "velocity": 114, "channel": 0}, {"type": "note_off", "time": 491, "note": 60, "velocity": 114, "channel": 0}, {"type": "note_on", "time": 61, "note": 59, "velocity": 113, "channel": 0}, {"type": "note_off", "time": 399, "note": 59, "velocity": 113, "channel": 0}, {"type": "note_on", "time": 15, "note": 60, "velocity": 112, "channel": 0}, {"type": "note_off", "time": 629, "note": 60, "velocity": 112, "channel": 0}, {"type": "note_on", "time": 46, "note": 69, "velocity": 115, "channel": 0}, {"type": "note_off", "time": 1152, "note": 69, "velocity": 115, "channel": 0}, {"type": "note_on", "time": 3194, "note": 60, "velocity": 89, "channel": 0}, {"type": "note_off", "time": 153, "note": 60, "velocity": 89, "channel": 0}, {"type": "note_on", "time": 46, "note": 62, "velocity": 120, "channel": 0}, {"type": "note_off", "time": 430, "note": 62, "velocity": 120, "channel": 0}, {"type": "note_on", "time": 46, "note": 60, "velocity": 117, "channel": 0}, {"type": "note_off", "time": 384, "note": 60, "velocity": 117, "channel": 0}, {"type": "note_on", "time": 30, "note": 62, "velocity": 112, "channel": 0}, {"type": "note_off", "time": 368, "note": 62, "velocity": 112, "channel": 0}, {"type": "note_on", "time": 46, "note": 60, "velocity": 115, "channel": 0}, {"type": "note_off", "time": 291, "note": 60, "velocity": 115, "channel": 0}, {"type": "note_on", "time": 76, "note": 62, "velocity": 114, "channel": 0}, {"type": "note_off", "time": 414, "note": 62, "velocity": 114, "channel": 0}, {"type": "note_on", "time": 15, "note": 60, "velocity": 113, "channel": 0}, {"type": "note_off", "time": 215, "note": 60, "velocity": 113, "channel": 0}, {"type": "note_on", "time": 153, "note": 62, "velocity": 114, "channel": 0}, {"type": "note_off", "time": 967, "note": 62, "velocity": 114, "channel": 0}, {"type": "note_on", "time": 168, "note": 60, "velocity": 110, "channel": 0}, {"type": "note_off", "time": 522, "note": 60, "velocity": 110, "channel": 0}, {"type": "note_on", "time": 61, "note": 59, "velocity": 113, "channel": 0}, {"type": "note_off", "time": 399, "note": 59, "velocity": 113, "channel": 0}, {"type": "note_on", "time": 0, "note": 60, "velocity": 112, "channel": 0}, {"type": "note_off", "time": 522, "note": 60, "velocity": 112, "channel": 0}, {"type": "note_on", "time": 291, "note": 67, "velocity": 116, "channel": 0}, {"type": "note_off", "time": 1213, "note": 67, "velocity": 116, "channel": 0}, {"type": "note_on", "time": 3502, "note": 58, "velocity": 103, "channel": 0}, {"type": "note_off", "time": 307, "note": 58, "velocity": 103, "channel": 0}, {"type": "note_on", "time": 0, "note": 60, "velocity": 110, "channel": 0}, {"type": "note_off", "time": 261, "note": 60, "velocity": 110, "channel": 0}, {"type": "note_on", "time": 138, "note": 58, "velocity": 118, "channel": 0}, {"type": "note_off", "time": 215, "note": 58, "velocity": 118, "channel": 0}, {"type": "note_on", "time": 168, "note": 60, "velocity": 111, "channel": 0}, {"type": "note_off", "time": 199, "note": 60, "velocity": 111, "channel": 0}, {"type": "note_on", "time": 30, "note": 58, "velocity": 115, "channel": 0}, {"type": "note_off", "time": 307, "note": 58, "velocity": 115, "channel": 0}, {"type": "note_on", "time": 122, "note": 60, "velocity": 110, "channel": 0}, {"type": "note_off", "time": 168, "note": 60, "velocity": 110, "channel": 0}, {"type": "note_on", "time": 92, "note": 58, "velocity": 116, "channel": 0}, {"type": "note_off", "time": 291, "note": 58, "velocity": 116, "channel": 0}, {"type": "note_on", "time": 61, "note": 60, "velocity": 108, "channel": 0}, {"type": "note_off", "time": 245, "note": 60, "velocity": 108, "channel": 0}, {"type": "note_on", "time": 30, "note": 58, "velocity": 123, "channel": 0}, {"type": "note_off", "time": 291, "note": 58, "velocity": 123, "channel": 0}, {"type": "note_on", "time": 107, "note": 60, "velocity": 109, "channel": 0}, {"type": "note_off", "time": 291, "note": 60, "velocity": 109, "channel": 0}, {"type": "note_on", "time": 107, "note": 58, "velocity": 115, "channel": 0}, {"type": "note_off", "time": 414, "note": 58, "velocity": 115, "channel": 0}, {"type": "note_on", "time": 138, "note": 56, "velocity": 111, "channel": 0}, {"type": "note_off", "time": 798, "note": 56, "velocity": 111, "channel": 0}, {"type": "note_on", "time": 122, "note": 57, "velocity": 113, "channel": 0}, {"type": "note_off", "time": 599, "note": 57, "velocity": 113, "channel": 0}, {"type": "note_on", "time": 583, "note": 65, "velocity": 118, "channel": 0}, {"type": "note_off", "time": 8908, "note": 65, "velocity": 118, "channel": 0}, {"type": "note_on", "time": 92, "note": 63, "velocity": 109, "channel": 0}, {"type": "note_off", "time": 460, "note": 63, "velocity": 109, "channel": 0}, {"type": "note_on", "time": 92, "note": 65, "velocity": 112, "channel": 0}, {"type": "note_off", "time": 890, "note": 65, "velocity": 112, "channel": 0}, {"type": "note_on", "time": 30, "note": 69, "velocity": 111, "channel": 0}, {"type": "note_off", "time": 522, "note": 69, "velocity": 111, "channel": 0}, {"type": "note_on", "time": 168, "note": 57, "velocity": 104, "channel": 0}, {"type": "note_off", "time": 506, "note": 57, "velocity": 104, "channel": 0}, {"type": "note_on", "time": 5591, "note": 58, "velocity": 113, "channel": 0}, {"type": "note_off", "time": 691, "note": 58, "velocity": 113, "channel": 0}, {"type": "note_on", "time": 384, "note": 56, "velocity": 114, "channel": 0}, {"type": "note_off", "time": 691, "note": 56, "velocity": 114, "channel": 0}, {"type": "note_on", "time": 76, "note": 57, "velocity": 116, "channel": 0}, {"type": "note_off", "time": 721, "note": 57, "velocity": 116, "channel": 0}, {"type": "note_on", "time": 153, "note": 60, "velocity": 110, "channel": 0}, {"type": "note_off", "time": 706, "note": 60, "velocity": 110, "channel": 0}, {"type": "note_on", "time": 92, "note": 63, "velocity": 108, "channel": 0}, {"type": "note_off", "time": 583, "note": 63, "velocity": 108, "channel": 0}, {"type": "note_on", "time": 46, "note": 65, "velocity": 117, "channel": 0}, {"type": "note_off", "time": 7864, "note": 65, "velocity": 117, "channel": 0}, {"type": "note_on", "time": 46, "note": 63, "velocity": 112, "channel": 0}, {"type": "note_off", "time": 460, "note": 63, "velocity": 112, "channel": 0}, {"type": "note_on", "time": 414, "note": 69, "velocity": 118, "channel": 0}, {"type": "note_off", "time": 890, "note": 69, "velocity": 118, "channel": 0}, {"type": "note_on", "time": 168, "note": 63, "velocity": 122, "channel": 0}, {"type": "note_off", "time": 1228, "note": 63, "velocity": 122, "channel": 0}, {"type": "note_on", "time": 8002, "note": 58, "velocity": 115, "channel": 0}, {"type": "note_off", "time": 768, "note": 58, "velocity": 115, "channel": 0}, {"type": "note_on", "time": 0, "note": 53, "velocity": 109, "channel": 0}, {"type": "note_off", "time": 522, "note": 53, "velocity": 109, "channel": 0}, {"type": "note_on", "time": 107, "note": 55, "velocity": 112, "channel": 0}, {"type": "note_off", "time": 645, "note": 55, "velocity": 112, "channel": 0}, {"type": "note_on", "time": 168, "note": 56, "velocity": 115, "channel": 0}, {"type": "note_off", "time": 844, "note": 56, "velocity": 115, "channel": 0}, {"type": "note_on", "time": 153, "note": 60, "velocity": 121, "channel": 0}, {"type": "note_off", "time": 599, "note": 60, "velocity": 121, "channel": 0}, {"type": "note_on", "time": 122, "note": 64, "velocity": 110, "channel": 0}, {"type": "note_off", "time": 568, "note": 64, "velocity": 110, "channel": 0}, {"type": "note_on", "time": 76, "note": 66, "velocity": 110, "channel": 0}, {"type": "note_off", "time": 468, "note": 66, "velocity": 110, "channel": 0}, {"type": "note_on", "time": 69, "note": 67, "velocity": 116, "channel": 0}, {"type": "note_off", "time": 1843, "note": 67, "velocity": 116, "channel": 0}, {"type": "note_on", "time": 115, "note": 67, "velocity": 110, "channel": 0}, {"type": "note_off", "time": 2211, "note": 67, "velocity": 110, "channel": 0}, {"type": "note_on", "time": 53, "note": 64, "velocity": 112, "channel": 0}, {"type": "note_off", "time": 384, "note": 64, "velocity": 112, "channel": 0}, {"type": "note_on", "time": 122, "note": 67, "velocity": 114, "channel": 0}, {"type": "note_off", "time": 721, "note": 67, "velocity": 114, "channel": 0}, {"type": "note_on", "time": 107, "note": 64, "velocity": 112, "channel": 0}, {"type": "note_off", "time": 460, "note": 64, "velocity": 112, "channel": 0}, {"type": "note_on", "time": 184, "note": 60, "velocity": 110, "channel": 0}, {"type": "note_on", "time": 614, "note": 56, "velocity": 110, "channel": 0}, {"type": "note_off", "time": 0, "note": 60, "velocity": 110, "channel": 0}, {"type": "note_off", "time": 537, "note": 56, "velocity": 110, "channel": 0}, {"type": "note_on", "time": 0, "note": 62, "velocity": 115, "channel": 0}, {"type": "note_off", "time": 721, "note": 62, "velocity": 115, "channel": 0}, {"type": "note_on", "time": 107, "note": 58, "velocity": 115, "channel": 0}, {"type": "note_off", "time": 445, "note": 58, "velocity": 115, "channel": 0}, {"type": "note_on", "time": 184, "note": 54, "velocity": 124, "channel": 0}, {"type": "note_off", "time": 384, "note": 54, "velocity": 124, "channel": 0}, {"type": "note_on", "time": 92, "note": 50, "velocity": 106, "channel": 0}, {"type": "note_off", "time": 476, "note": 50, "velocity": 106, "channel": 0}, {"type": "note_on", "time": 107, "note": 52, "velocity": 112, "channel": 0}, {"type": "note_off", "time": 829, "note": 52, "velocity": 112, "channel": 0}, {"type": "note_on", "time": 30, "note": 55, "velocity": 109, "channel": 0}, {"type": "note_off", "time": 476, "note": 55, "velocity": 109, "channel": 0}, {"type": "note_on", "time": 153, "note": 48, "velocity": 116, "channel": 0}, {"type": "note_off", "time": 706, "note": 48, "velocity": 116, "channel": 0}, {"type": "note_on", "time": 7987, "note": 60, "velocity": 108, "channel": 0}, {"type": "note_off", "time": 1704, "note": 60, "velocity": 108, "channel": 0}, {"type": "note_on", "time": 30, "note": 58, "velocity": 93, "channel": 0}, {"type": "note_off", "time": 245, "note": 58, "velocity": 93, "channel": 0}, {"type": "note_on", "time": 61, "note": 62, "velocity": 110, "channel": 0}, {"type": "note_off", "time": 2242, "note": 62, "velocity": 110, "channel": 0}, {"type": "note_on", "time": 184, "note": 58, "velocity": 97, "channel": 0}, {"type": "note_off", "time": 384, "note": 58, "velocity": 97, "channel": 0}, {"type": "note_on", "time": 245, "note": 63, "velocity": 113, "channel": 0}, {"type": "note_off", "time": 1228, "note": 63, "velocity": 113, "channel": 0}, {"type": "note_on", "time": 1413, "note": 62, "velocity": 111, "channel": 0}, {"type": "note_off", "time": 1213, "note": 62, "velocity": 111, "channel": 0}, {"type": "note_on", "time": 1136, "note": 66, "velocity": 97, "channel": 0}, {"type": "note_off", "time": 1244, "note": 66, "velocity": 97, "channel": 0}, {"type": "note_on", "time": 1075, "note": 69, "velocity": 111, "channel": 0}, {"type": "note_off", "time": 1382, "note": 69, "velocity": 111, "channel": 0}, {"type": "note_on", "time": 1397, "note": 70, "velocity": 95, "channel": 0}, {"type": "note_off", "time": 2641, "note": 70, "velocity": 95, "channel": 0}, {"type": "note_on", "time": 4546, "note": 69, "velocity": 113, "channel": 0}, {"type": "note_off", "time": 583, "note": 69, "velocity": 113, "channel": 0}, {"type": "note_on", "time": 368, "note": 70, "velocity": 104, "channel": 0}, {"type": "note_off", "time": 1059, "note": 70, "velocity": 104, "channel": 0}, {"type": "note_on", "time": 138, "note": 69, "velocity": 105, "channel": 0}, {"type": "note_off", "time": 814, "note": 69, "velocity": 105, "channel": 0}, {"type": "note_on", "time": 445, "note": 69, "velocity": 109, "channel": 0}, {"type": "note_off", "time": 353, "note": 69, "velocity": 109, "channel": 0}, {"type": "note_on", "time": 30, "note": 70, "velocity": 101, "channel": 0}, {"type": "note_off", "time": 691, "note": 70, "velocity": 101, "channel": 0}, {"type": "note_on", "time": 168, "note": 69, "velocity": 97, "channel": 0}, {"type": "note_off", "time": 706, "note": 69, "velocity": 97, "channel": 0}, {"type": "note_on", "time": 568, "note": 69, "velocity": 106, "channel": 0}, {"type": "note_off", "time": 199, "note": 69, "velocity": 106, "channel": 0}, {"type": "note_on", "time": 46, "note": 70, "velocity": 105, "channel": 0}, {"type": "note_off", "time": 860, "note": 70, "velocity": 105, "channel": 0}, {"type": "note_on", "time": 153, "note": 69, "velocity": 97, "channel": 0}, {"type": "note_off", "time": 860, "note": 69, "velocity": 97, "channel": 0}, {"type": "note_on", "time": 399, "note": 69, "velocity": 105, "channel": 0}, {"type": "note_off", "time": 184, "note": 69, "velocity": 105, "channel": 0}, {"type": "note_on", "time": 0, "note": 70, "velocity": 100, "channel": 0}, {"type": "note_off", "time": 829, "note": 70, "velocity": 100, "channel": 0}, {"type": "note_on", "time": 107, "note": 69, "velocity": 98, "channel": 0}, {"type": "note_off", "time": 890, "note": 69, "velocity": 98, "channel": 0}, {"type": "note_on", "time": 783, "note": 69, "velocity": 104, "channel": 0}, {"type": "note_off", "time": 199, "note": 69, "velocity": 104, "channel": 0}, {"type": "note_on", "time": 15, "note": 70, "velocity": 98, "channel": 0}, {"type": "note_off", "time": 967, "note": 70, "velocity": 98, "channel": 0}, {"type": "note_on", "time": 138, "note": 69, "velocity": 99, "channel": 0}, {"type": "note_off", "time": 783, "note": 69, "velocity": 99, "channel": 0}, {"type": "note_on", "time": 675, "note": 69, "velocity": 105, "channel": 0}, {"type": "note_off", "time": 199, "note": 69, "velocity": 105, "channel": 0}, {"type": "note_on", "time": 153, "note": 70, "velocity": 104, "channel": 0}, {"type": "note_off", "time": 614, "note": 70, "velocity": 104, "channel": 0}, {"type": "note_on", "time": 92, "note": 69, "velocity": 104, "channel": 0}, {"type": "note_off", "time": 599, "note": 69, "velocity": 104, "channel": 0}, {"type": "note_on", "time": 92, "note": 65, "velocity": 108, "channel": 0}, {"type": "note_off", "time": 737, "note": 65, "velocity": 108, "channel": 0}, {"type": "note_on", "time": 460, "note": 60, "velocity": 89, "channel": 0}, {"type": "note_off", "time": 506, "note": 60, "velocity": 89, "channel": 0}, {"type": "note_on", "time": 46, "note": 63, "velocity": 106, "channel": 0}, {"type": "note_off", "time": 215, "note": 63, "velocity": 106, "channel": 0}, {"type": "note_on", "time": 138, "note": 64, "velocity": 105, "channel": 0}, {"type": "note_off", "time": 599, "note": 64, "velocity": 105, "channel": 0}, {"type": "note_on", "time": 291, "note": 65, "velocity": 107, "channel": 0}, {"type": "note_off", "time": 967, "note": 65, "velocity": 107, "channel": 0}, {"type": "note_on", "time": 261, "note": 65, "velocity": 111, "channel": 0}, {"type": "note_off", "time": 737, "note": 65, "velocity": 111, "channel": 0}, {"type": "note_on", "time": 92, "note": 64, "velocity": 101, "channel": 0}, {"type": "note_off", "time": 476, "note": 64, "velocity": 101, "channel": 0}, {"type": "note_on", "time": 291, "note": 65, "velocity": 103, "channel": 0}, {"type": "note_off", "time": 2887, "note": 65, "velocity": 103, "channel": 0}, {"type": "note_on", "time": 322, "note": 63, "velocity": 108, "channel": 0}, {"type": "note_off", "time": 675, "note": 63, "velocity": 108, "channel": 0}, {"type": "note_on", "time": 122, "note": 65, "velocity": 112, "channel": 0}, {"type": "note_off", "time": 737, "note": 65, "velocity": 112, "channel": 0}, {"type": "note_on", "time": 138, "note": 62, "velocity": 111, "channel": 0}, {"type": "note_off", "time": 783, "note": 62, "velocity": 111, "channel": 0}, {"type": "note_on", "time": 230, "note": 65, "velocity": 111, "channel": 0}, {"type": "note_off", "time": 737, "note": 65, "velocity": 111, "channel": 0}, {"type": "note_on", "time": 153, "note": 61, "velocity": 106, "channel": 0}, {"type": "note_off", "time": 614, "note": 61, "velocity": 106, "channel": 0}, {"type": "note_on", "time": 368, "note": 65, "velocity": 108, "channel": 0}, {"type": "note_off", "time": 752, "note": 65, "velocity": 108, "channel": 0}, {"type": "note_on", "time": 153, "note": 60, "velocity": 101, "channel": 0}, {"type": "note_off", "time": 614, "note": 60, "velocity": 101, "channel": 0}, {"type": "note_on", "time": 107, "note": 58, "velocity": 99, "channel": 0}, {"type": "note_off", "time": 522, "note": 58, "velocity": 99, "channel": 0}, {"type": "note_on", "time": 568, "note": 53, "velocity": 109, "channel": 0}, {"type": "note_off", "time": 645, "note": 53, "velocity": 109, "channel": 0}, {"type": "note_on", "time": 0, "note": 48, "velocity": 101, "channel": 0}, {"type": "note_off", "time": 599, "note": 48, "velocity": 101, "channel": 0}, {"type": "note_on", "time": 245, "note": 56, "velocity": 108, "channel": 0}, {"type": "note_off", "time": 337, "note": 56, "velocity": 108, "channel": 0}, {"type": "note_on", "time": 92, "note": 57, "velocity": 110, "channel": 0}, {"type": "note_off", "time": 583, "note": 57, "velocity": 110, "channel": 0}, {"type": "note_on", "time": 230, "note": 53, "velocity": 106, "channel": 0}, {"type": "note_off", "time": 890, "note": 53, "velocity": 106, "channel": 0}, {"type": "note_on", "time": 168, "note": 48, "velocity": 98, "channel": 0}, {"type": "note_off", "time": 522, "note": 48, "velocity": 98, "channel": 0}, {"type": "note_on", "time": 138, "note": 51, "velocity": 97, "channel": 0}, {"type": "note_off", "time": 5237, "note": 51, "velocity": 97, "channel": 0}, {"type": "end_of_track", "time": 0}]]}