{"ticks_per_beat": 27720, "tracks": [[{"type": "track_name", "name": "Melody", "time": 0}, {"type": "set_tempo", "tempo": 857142, "time": 0}, {"type": "key_signature", "key": "Db", "time": 0}, {"type": "time_signature", "numerator": 4, "denominator": 4, "clocks_per_click": 24, "notated_32nd_notes_per_beat": 8, "time": 0}, {"type": "note_on", "time": 219196, "note": 70, "velocity": 88, "channel": 0}, {"type": "note_off", "time": 2147, "note": 70, "velocity": 88, "channel": 0}, {"type": "note_on", "time": 284, "note": 73, "velocity": 111, "channel": 0}, {"type": "note_off", "time": 101640, "note": 73, "velocity": 111, "channel": 0}, {"type": "note_on", "time": 2508, "note": 69, "velocity": 111, "channel": 0}, {"type": "note_off", "time": 2903, "note": 69, "velocity": 111, "channel": 0}, {"type": "note_on", "time": 264, "note": 70, "velocity": 109, "channel": 0}, {"type": "note_off", "time": 3168, "note": 70, "velocity": 109, "channel": 0}, {"type": "note_on", "time": 1584, "note": 66, "velocity": 98, "channel": 0}, {"type": "note_off", "time": 26664, "note": 66, "velocity": 98, "channel": 0}, {"type": "note_on", "time": 1419, "note": 63, "velocity": 107, "channel": 0}, {"type": "note_off", "time": 3596, "note": 63, "velocity": 107, "channel": 0}, {"type": "note_on", "time": 0, "note": 64, "velocity": 105, "channel": 0}, {"type": "note_off", "time": 11616, "note": 64, "velocity": 105, "channel": 0}, {"type": "note_on", "time": 2129, "note": 62, "velocity": 106, "channel": 0}, {"type": "note_off", "time": 3965, "note": 62, "velocity": 106, "channel": 0}, {"type": "note_on", "time": 305, "note": 61, "velocity": 102, "channel": 0}, {"type": "note_off", "time": 2675, "note": 61, "velocity": 102, "channel": 0}, {"type": "note_on", "time": 21812, "note": 73, "velocity": 112, "channel": 0}, {"type": "note_off", "time": 6864, "note": 73, "velocity": 112, "channel": 0}, {"type": "note_on", "time": 18216, "note": 70, "velocity": 114, "channel": 0}, {"type": "note_off", "time": 8712, "note": 70, "velocity": 114, "channel": 0}, {"type": "note_on", "time": 3179, "note": 65, "velocity": 119, "channel": 0}, {"type": "note_off", "time": 3848, "note": 65, "velocity": 119, "channel": 0}, {"type": "note_on", "time": 363, "note": 66, "velocity": 100, "channel": 0}, {"type": "note_off", "time": 18744, "note": 66, "velocity": 100, "channel": 0}, {"type": "note_on", "time": 2387, "note": 63, "velocity": 122, "channel": 0}, {"type": "note_off", "time": 1877, "note": 63, "velocity": 122, "channel": 0}, {"type": "note_on", "time": 486, "note": 64, "velocity": 108, "channel": 0}, {"type": "note_off", "time": 14256, "note": 64, "velocity": 108, "channel": 0}, {"type": "note_on", "time": 2903, "note": 58, "velocity": 98, "channel": 0}, {"type": "note_off", "time": 7655, "note": 58, "velocity": 98, "channel": 0}, {"type": "note_on", "time": 2763, "note": 64, "velocity": 114, "channel": 0}, {"type": "note_off", "time": 2252, "note": 64, "velocity": 114, "channel": 0}, {"type": "note_on", "time": 264, "note": 65, "velocity": 101, "channel": 0}, {"type": "note_off", "time": 20856, "note": 65, "velocity": 101, "channel": 0}, {"type": "note_on", "time": 657, "note": 56, "velocity": 102, "channel": 0}, {"type": "note_off", "time": 13992, "note": 56, "velocity": 102, "channel": 0}, {"type": "note_on", "time": 14390, "note": 59, "velocity": 87, "channel": 0}, {"type": "note_off", "time": 44088, "note": 59, "velocity": 87, "channel": 0}, {"type": "note_on", "time": 133584, "note": 58, "velocity": 99, "channel": 0}, {"type": "note_off", "time": 6599, "note": 58, "velocity": 99, "channel": 0}, {"type": "note_on", "time": 1584, "note": 61, "velocity": 99, "channel": 0}, {"type": "note_off", "time": 6864, "note": 61, "velocity": 99, "channel": 0}, {"type": "note_on", "time": 1584, "note": 64, "velocity": 112, "channel": 0}, {"type": "note_off", "time": 6600, "note": 64, "velocity": 112, "channel": 0}, {"type": "note_on", "time": 1848, "note": 61, "velocity": 89, "channel": 0}, {"type": "note_off", "time": 7920, "note": 61, "velocity": 89, "channel": 0}, {"type": "note_on", "time": 3696, "note": 63, "velocity": 117, "channel": 0}, {"type": "note_off", "time": 6600, "note": 63, "velocity": 117, "channel": 0}, {"type": "note_on", "time": 9504, "note": 58, "velocity": 88, "channel": 0}, {"type": "note_off", "time": 7655, "note": 58, "velocity": 88, "channel": 0}, {"type": "note_on", "time": 2112, "note": 61, "velocity": 98, "channel": 0}, {"type": "note_off", "time": 6336, "note": 61, "velocity": 98, "channel": 0}, {"type": "note_on", "time": 3613, "note": 64, "velocity": 119, "channel": 0}, {"type": "note_off", "time": 3696, "note": 64, "velocity": 119, "channel": 0}, {"type": "note_on", "time": 1600, "note": 65, "velocity": 100, "channel": 0}, {"type": "note_off", "time": 6071, "note": 65, "velocity": 100, "channel": 0}, {"type": "note_on", "time": 24618, "note": 58, "velocity": 97, "channel": 0}, {"type": "note_off", "time": 5015, "note": 58, "velocity": 97, "channel": 0}, {"type": "note_on", "time": 1056, "note": 61, "velocity": 104, "channel": 0}, {"type": "note_off", "time": 5544, "note": 61, "velocity": 104, "channel": 0}, {"type": "note_on", "time": 1716, "note": 63, "velocity": 118, "channel": 0}, {"type": "note_off", "time": 8354, "note": 63, "velocity": 118, "channel": 0}, {"type": "note_on", "time": 357, "note": 64, "velocity": 111, "channel": 0}, {"type": "note_off", "time": 7040, "note": 64, "velocity": 111, "channel": 0}, {"type": "note_on", "time": 616, "note": 65, "velocity": 116, "channel": 0}, {"type": "note_off", "time": 9480, "note": 65, "velocity": 116, "channel": 0}, {"type": "note_on", "time": 749, "note": 66, "velocity": 102, "channel": 0}, {"type": "note_on", "time": 8381, "note": 67, "velocity": 104, "channel": 0}, {"type": "note_off", "time": 0, "note": 66, "velocity": 102, "channel": 0}, {"type": "note_off", "time": 8711, "note": 67, "velocity": 104, "channel": 0}, {"type": "note_on", "time": 2375, "note": 68, "velocity": 110, "channel": 0}, {"type": "note_off", "time": 9503, "note": 68, "velocity": 110, "channel": 0}, {"type": "note_on", "time": 0, "note": 73, "velocity": 102, "channel": 0}, {"type": "note_off", "time": 8448, "note": 73, "velocity": 102, "channel": 0}, {"type": "note_on", "time": 0, "note": 67, "velocity": 103, "channel": 0}, {"type": "note_off", "time": 5544, "note": 67, "velocity": 103, "channel": 0}, {"type": "note_on", "time": 792, "note": 66, "velocity": 107, "channel": 0}, {"type": "note_off", "time": 5016, "note": 66, "velocity": 107, "channel": 0}, {"type": "note_on", "time": 0, "note": 64, "velocity": 112, "channel": 0}, {"type": "note_off", "time": 4752, "note": 64, "velocity": 112, "channel": 0}, {"type": "note_on", "time": 868, "note": 61, "velocity": 97, "channel": 0}, {"type": "note_off", "time": 3960, "note": 61, "velocity": 97, "channel": 0}, {"type": "note_on", "time": 3173, "note": 64, "velocity": 112, "channel": 0}, {"type": "note_off", "time": 2065, "note": 64, "velocity": 112, "channel": 0}, {"type": "note_on", "time": 938, "note": 65, "velocity": 105, "channel": 0}, {"type": "note_off", "time": 5444, "note": 65, "velocity": 105, "channel": 0}, {"type": "note_on", "time": 1501, "note": 56, "velocity": 89, "channel": 0}, {"type": "note_off", "time": 34918, "note": 56, "velocity": 89, "channel": 0}, {"type": "note_on", "time": 76970, "note": 56, "velocity": 98, "channel": 0}, {"type": "note_off", "time": 6946, "note": 56, "velocity": 98, "channel": 0}, {"type": "note_on", "time": 2065, "note": 56, "velocity": 90, "channel": 0}, {"type": "note_off", "time": 5819, "note": 56, "velocity": 90, "channel": 0}, {"type": "note_on", "time": 938, "note": 57, "velocity": 105, "channel": 0}, {"type": "note_off", "time": 5444, "note": 57, "velocity": 105, "channel": 0}, {"type": "note_on", "time": 1689, "note": 57, "velocity": 101, "channel": 0}, {"type": "note_off", "time": 6946, "note": 57, "velocity": 101, "channel": 0}, {"type": "note_on", "time": 1501, "note": 58, "velocity": 103, "channel": 0}, {"type": "note_off", "time": 5256, "note": 58, "velocity": 103, "channel": 0}, {"type": "note_on", "time": 1689, "note": 58, "velocity": 101, "channel": 0}, {"type": "note_off", "time": 6382, "note": 58, "velocity": 101, "channel": 0}, {"type": "note_on", "time": 6382, "note": 62, "velocity": 109, "channel": 0}, {"type": "note_off", "time": 5632, "note": 62, "velocity": 109, "channel": 0}, {"type": "note_on", "time": 938, "note": 62, "velocity": 112, "channel": 0}, {"type": "note_off", "time": 5819, "note": 62, "velocity": 112, "channel": 0}, {"type": "note_on", "time": 563, "note": 65, "velocity": 115, "channel": 0}, {"type": "note_off", "time": 5632, "note": 65, "velocity": 115, "channel": 0}, {"type": "note_on", "time": 1314, "note": 65, "velocity": 112, "channel": 0}, {"type": "note_off", "time": 5256, "note": 65, "velocity": 112, "channel": 0}, {"type": "note_on", "time": 2628, "note": 68, "velocity": 101, "channel": 0}, {"type": "note_off", "time": 4881, "note": 68, "velocity": 101, "channel": 0}, {"type": "note_on", "time": 5256, "note": 70, "velocity": 117, "channel": 0}, {"type": "note_off", "time": 3379, "note": 70, "velocity": 117, "channel": 0}, {"type": "note_on", "time": 375, "note": 71, "velocity": 109, "channel": 0}, {"type": "note_off", "time": 5068, "note": 71, "velocity": 109, "channel": 0}, {"type": "note_on", "time": 3754, "note": 70, "velocity": 108, "channel": 0}, {"type": "note_off", "time": 5819, "note": 70, "velocity": 108, "channel": 0}, {"type": "note_on", "time": 1126, "note": 65, "velocity": 105, "channel": 0}, {"type": "note_off", "time": 5068, "note": 65, "velocity": 105, "channel": 0}, {"type": "note_on", "time": 750, "note": 68, "velocity": 105, "channel": 0}, {"type": "note_off", "time": 5444, "note": 68, "velocity": 105, "channel": 0}, {"type": "note_on", "time": 750, "note": 66, "velocity": 105, "channel": 0}, {"type": "note_off", "time": 6570, "note": 66, "velocity": 105, "channel": 0}, {"type": "note_on", "time": 3191, "note": 66, "velocity": 105, "channel": 0}, {"type": "note_off", "time": 5068, "note": 66, "velocity": 105, "channel": 0}, {"type": "note_on", "time": 375, "note": 65, "velocity": 102, "channel": 0}, {"type": "note_off", "time": 4224, "note": 65, "velocity": 102, "channel": 0}, {"type": "note_on", "time": 844, "note": 66, "velocity": 95, "channel": 0}, {"type": "note_off", "time": 6007, "note": 66, "velocity": 95, "channel": 0}, {"type": "note_on", "time": 1689, "note": 66, "velocity": 103, "channel": 0}, {"type": "note_off", "time": 5632, "note": 66, "velocity": 103, "channel": 0}, {"type": "note_on", "time": 375, "note": 62, "velocity": 87, "channel": 0}, {"type": "note_off", "time": 5068, "note": 62, "velocity": 87, "channel": 0}, {"type": "note_on", "time": 3003, "note": 65, "velocity": 114, "channel": 0}, {"type": "note_off", "time": 6382, "note": 65, "velocity": 114, "channel": 0}, {"type": "note_on", "time": 375, "note": 63, "velocity": 107, "channel": 0}, {"type": "note_off", "time": 4693, "note": 63, "velocity": 107, "channel": 0}, {"type": "note_on", "time": 786, "note": 58, "velocity": 95, "channel": 0}, {"type": "note_off", "time": 6138, "note": 58, "velocity": 95, "channel": 0}, {"type": "note_on", "time": 792, "note": 54, "velocity": 98, "channel": 0}, {"type": "note_off", "time": 4356, "note": 54, "velocity": 98, "channel": 0}, {"type": "note_on", "time": 3697, "note": 61, "velocity": 101, "channel": 0}, {"type": "note_off", "time": 5068, "note": 61, "velocity": 101, "channel": 0}, {"type": "note_on", "time": 1126, "note": 63, "velocity": 102, "channel": 0}, {"type": "note_off", "time": 4130, "note": 63, "velocity": 102, "channel": 0}, {"type": "note_on", "time": 1501, "note": 60, "velocity": 101, "channel": 0}, {"type": "note_off", "time": 6382, "note": 60, "velocity": 101, "channel": 0}, {"type": "note_on", "time": 563, "note": 56, "velocity": 98, "channel": 0}, {"type": "note_off", "time": 6007, "note": 56, "velocity": 98, "channel": 0}, {"type": "note_on", "time": 1287, "note": 54, "velocity": 93, "channel": 0}, {"type": "note_off", "time": 12936, "note": 54, "velocity": 93, "channel": 0}, {"type": "note_on", "time": 53548, "note": 52, "velocity": 98, "channel": 0}, {"type": "note_off", "time": 9574, "note": 52, "velocity": 98, "channel": 0}, {"type": "note_on", "time": 2065, "note": 53, "velocity": 91, "channel": 0}, {"type": "note_off", "time": 4881, "note": 53, "velocity": 91, "channel": 0}, {"type": "note_on", "time": 1501, "note": 56, "velocity": 106, "channel": 0}, {"type": "note_off", "time": 6570, "note": 56, "velocity": 106, "channel": 0}, {"type": "note_on", "time": 3003, "note": 58, "velocity": 97, "channel": 0}, {"type": "note_off", "time": 7509, "note": 58, "velocity": 97, "channel": 0}, {"type": "note_on", "time": 3566, "note": 61, "velocity": 96, "channel": 0}, {"type": "note_off", "time": 16708, "note": 61, "velocity": 96, "channel": 0}, {"type": "note_on", "time": 1126, "note": 58, "velocity": 94, "channel": 0}, {"type": "note_off", "time": 10137, "note": 58, "velocity": 94, "channel": 0}, {"type": "note_on", "time": 2816, "note": 61, "velocity": 103, "channel": 0}, {"type": "note_off", "time": 6946, "note": 61, "velocity": 103, "channel": 0}, {"type": "note_on", "time": 0, "note": 63, "velocity": 97, "channel": 0}, {"type": "note_off", "time": 3379, "note": 63, "velocity": 97, "channel": 0}, {"type": "note_on", "time": 375, "note": 61, "velocity": 94, "channel": 0}, {"type": "note_off", "time": 3754, "note": 61, "velocity": 94, "channel": 0}, {"type": "note_on", "time": 1689, "note": 58, "velocity": 92, "channel": 0}, {"type": "note_off", "time": 9574, "note": 58, "velocity": 92, "channel": 0}, {"type": "note_on", "time": 1689, "note": 61, "velocity": 102, "channel": 0}, {"type": "note_off", "time": 3942, "note": 61, "velocity": 102, "channel": 0}, {"type": "note_on", "time": 1314, "note": 63, "velocity": 97, "channel": 0}, {"type": "note_off", "time": 1501, "note": 63, "velocity": 97, "channel": 0}, {"type": "note_on", "time": 0, "note": 61, "velocity": 93, "channel": 0}, {"type": "note_off", "time": 3566, "note": 61, "velocity": 93, "channel": 0}, {"type": "note_on", "time": 1126, "note": 58, "velocity": 88, "channel": 0}, {"type": "note_off", "time": 5256, "note": 58, "velocity": 88, "channel": 0}, {"type": "note_on", "time": 1126, "note": 61, "velocity": 100, "channel": 0}, {"type": "note_off", "time": 4317, "note": 61, "velocity": 100, "channel": 0}, {"type": "note_on", "time": 187, "note": 63, "velocity": 99, "channel": 0}, {"type": "note_off", "time": 3191, "note": 63, "velocity": 99, "channel": 0}, {"type": "note_on", "time": 563, "note": 61, "velocity": 95, "channel": 0}, {"type": "note_off", "time": 2816, "note": 61, "velocity": 95, "channel": 0}, {"type": "note_on", "time": 2252, "note": 58, "velocity": 98, "channel": 0}, {"type": "note_off", "time": 4881, "note": 58, "velocity": 98, "channel": 0}, {"type": "note_on", "time": 1877, "note": 64, "velocity": 104, "channel": 0}, {"type": "note_off", "time": 5256, "note": 64, "velocity": 104, "channel": 0}, {"type": "note_on", "time": 2065, "note": 65, "velocity": 107, "channel": 0}, {"type": "note_off", "time": 7697, "note": 65, "velocity": 107, "channel": 0}, {"type": "note_on", "time": 750, "note": 66, "velocity": 99, "channel": 0}, {"type": "note_off", "time": 7884, "note": 66, "velocity": 99, "channel": 0}, {"type": "note_on", "time": 1877, "note": 67, "velocity": 91, "channel": 0}, {"type": "note_off", "time": 8072, "note": 67, "velocity": 91, "channel": 0}, {"type": "note_on", "time": 1689, "note": 68, "velocity": 95, "channel": 0}, {"type": "note_off", "time": 5444, "note": 68, "velocity": 95, "channel": 0}, {"type": "note_on", "time": 0, "note": 64, "velocity": 103, "channel": 0}, {"type": "note_off", "time": 3942, "note": 64, "velocity": 103, "channel": 0}, {"type": "note_on", "time": 563, "note": 65, "velocity": 98, "channel": 0}, {"type": "note_off", "time": 3754, "note": 65, "velocity": 98, "channel": 0}, {"type": "note_on", "time": 1689, "note": 61, "velocity": 97, "channel": 0}, {"type": "note_off", "time": 3191, "note": 61, "velocity": 97, "channel": 0}, {"type": "note_on", "time": 0, "note": 63, "velocity": 91, "channel": 0}, {"type": "note_off", "time": 1501, "note": 63, "velocity": 91, "channel": 0}, {"type": "note_on", "time": 563, "note": 61, "velocity": 92, "channel": 0}, {"type": "note_off", "time": 3942, "note": 61, "velocity": 92, "channel": 0}, {"type": "note_on", "time": 1126, "note": 58, "velocity": 88, "channel": 0}, {"type": "note_off", "time": 5068, "note": 58, "velocity": 88, "channel": 0}, {"type": "note_on", "time": 187, "note": 61, "velocity": 94, "channel": 0}, {"type": "note_off", "time": 6570, "note": 61, "velocity": 94, "channel": 0}, {"type": "note_on", "time": 3942, "note": 61, "velocity": 88, "channel": 0}, {"type": "note_off", "time": 17271, "note": 61, "velocity": 88, "channel": 0}, {"type": "note_on", "time": 48810, "note": 72, "velocity": 101, "channel": 0}, {"type": "note_off", "time": 2816, "note": 72, "velocity": 101, "channel": 0}, {"type": "note_on", "time": 1126, "note": 73, "velocity": 96, "channel": 0}, {"type": "note_off", "time": 79411, "note": 73, "velocity": 96, "channel": 0}, {"type": "note_on", "time": 375, "note": 72, "velocity": 102, "channel": 0}, {"type": "note_off", "time": 2816, "note": 72, "velocity": 102, "channel": 0}, {"type": "note_on", "time": 750, "note": 70, "velocity": 79, "channel": 0}, {"type": "note_off", "time": 1877, "note": 70, "velocity": 79, "channel": 0}, {"type": "note_on", "time": 750, "note": 68, "velocity": 95, "channel": 0}, {"type": "note_off", "time": 1877, "note": 68, "velocity": 95, "channel": 0}, {"type": "note_on", "time": 844, "note": 64, "velocity": 87, "channel": 0}, {"type": "note_off", "time": 27720, "note": 64, "velocity": 87, "channel": 0}, {"type": "note_on", "time": 533, "note": 61, "velocity": 86, "channel": 0}, {"type": "note_off", "time": 29098, "note": 61, "velocity": 86, "channel": 0}, {"type": "note_on", "time": 750, "note": 58, "velocity": 95, "channel": 0}, {"type": "note_off", "time": 18773, "note": 58, "velocity": 95, "channel": 0}, {"type": "note_on", "time": 657, "note": 62, "velocity": 107, "channel": 0}, {"type": "note_off", "time": 5819, "note": 62, "velocity": 107, "channel": 0}, {"type": "note_on", "time": 48716, "note": 49, "velocity": 82, "channel": 0}, {"type": "note_off", "time": 6758, "note": 49, "velocity": 82, "channel": 0}, {"type": "note_on", "time": 375, "note": 56, "velocity": 97, "channel": 0}, {"type": "note_off", "time": 19711, "note": 56, "velocity": 97, "channel": 0}, {"type": "note_on", "time": 563, "note": 58, "velocity": 107, "channel": 0}, {"type": "note_off", "time": 7884, "note": 58, "velocity": 107, "channel": 0}, {"type": "note_on", "time": 2252, "note": 58, "velocity": 90, "channel": 0}, {"type": "note_off", "time": 27784, "note": 58, "velocity": 90, "channel": 0}, {"type": "note_on", "time": 750, "note": 61, "velocity": 106, "channel": 0}, {"type": "note_off", "time": 16145, "note": 61, "velocity": 106, "channel": 0}, {"type": "note_on", "time": 187, "note": 58, "velocity": 97, "channel": 0}, {"type": "note_off", "time": 10700, "note": 58, "velocity": 97, "channel": 0}, {"type": "note_on", "time": 938, "note": 64, "velocity": 106, "channel": 0}, {"type": "note_off", "time": 6758, "note": 64, "velocity": 106, "channel": 0}, {"type": "note_on", "time": 1689, "note": 65, "velocity": 98, "channel": 0}, {"type": "note_off", "time": 7133, "note": 65, "velocity": 98, "channel": 0}, {"type": "note_on", "time": 3003, "note": 66, "velocity": 105, "channel": 0}, {"type": "note_off", "time": 7884, "note": 66, "velocity": 105, "channel": 0}, {"type": "note_on", "time": 6982, "note": 65, "velocity": 103, "channel": 0}, {"type": "note_off", "time": 9011, "note": 65, "velocity": 103, "channel": 0}, {"type": "note_on", "time": 4656, "note": 63, "velocity": 111, "channel": 0}, {"type": "note_off", "time": 7509, "note": 63, "velocity": 111, "channel": 0}, {"type": "note_on", "time": 3003, "note": 61, "velocity": 95, "channel": 0}, {"type": "note_off", "time": 6946, "note": 61, "velocity": 95, "channel": 0}, {"type": "note_on", "time": 11827, "note": 59, "velocity": 92, "channel": 0}, {"type": "note_off", "time": 21589, "note": 59, "velocity": 92, "channel": 0}, {"type": "note_on", "time": 2628, "note": 57, "velocity": 91, "channel": 0}, {"type": "note_off", "time": 10982, "note": 57, "velocity": 91, "channel": 0}, {"type": "note_on", "time": 281, "note": 58, "velocity": 100, "channel": 0}, {"type": "note_off", "time": 6570, "note": 58, "velocity": 100, "channel": 0}, {"type": "note_on", "time": 21777, "note": 68, "velocity": 106, "channel": 0}, {"type": "note_off", "time": 6946, "note": 68, "velocity": 106, "channel": 0}, {"type": "note_on", "time": 21401, "note": 68, "velocity": 96, "channel": 0}, {"type": "note_off", "time": 8635, "note": 68, "velocity": 96, "channel": 0}, {"type": "note_on", "time": 18022, "note": 68, "velocity": 97, "channel": 0}, {"type": "note_off", "time": 7697, "note": 68, "velocity": 97, "channel": 0}, {"type": "note_on", "time": 20462, "note": 66, "velocity": 96, "channel": 0}, {"type": "note_off", "time": 28723, "note": 66, "velocity": 96, "channel": 0}, {"type": "note_on", "time": 938, "note": 64, "velocity": 93, "channel": 0}, {"type": "note_off", "time": 17459, "note": 64, "velocity": 93, "channel": 0}, {"type": "note_on", "time": 1189, "note": 66, "velocity": 100, "channel": 0}, {"type": "note_off", "time": 11088, "note": 66, "velocity": 100, "channel": 0}, {"type": "note_on", "time": 3304, "note": 67, "velocity": 101, "channel": 0}, {"type": "note_off", "time": 3379, "note": 67, "velocity": 101, "channel": 0}, {"type": "note_on", "time": 0, "note": 68, "velocity": 82, "channel": 0}, {"type": "note_off", "time": 5819, "note": 68, "velocity": 82, "channel": 0}, {"type": "note_on", "time": 2252, "note": 66, "velocity": 100, "channel": 0}, {"type": "note_off", "time": 8823, "note": 66, "velocity": 100, "channel": 0}, {"type": "note_on", "time": 12202, "note": 64, "velocity": 110, "channel": 0}, {"type": "note_off", "time": 5444, "note": 64, "velocity": 110, "channel": 0}, {"type": "note_on", "time": 750, "note": 61, "velocity": 96, "channel": 0}, {"type": "note_off", "time": 6195, "note": 61, "velocity": 96, "channel": 0}, {"type": "note_on", "time": 4505, "note": 58, "velocity": 94, "channel": 0}, {"type": "note_off", "time": 6007, "note": 58, "velocity": 94, "channel": 0}, {"type": "note_on", "time": 1126, "note": 56, "velocity": 85, "channel": 0}, {"type": "note_off", "time": 25531, "note": 56, "velocity": 85, "channel": 0}, {"type": "note_on", "time": 257922, "note": 73, "velocity": 106, "channel": 0}, {"type": "note_off", "time": 6335, "note": 73, "velocity": 106, "channel": 0}, {"type": "note_on", "time": 5808, "note": 76, "velocity": 124, "channel": 0}, {"type": "note_off", "time": 6600, "note": 76, "velocity": 124, "channel": 0}, {"type": "note_on", "time": 3807, "note": 73, "velocity": 106, "channel": 0}, {"type": "note_off", "time": 5631, "note": 73, "velocity": 106, "channel": 0}, {"type": "note_on", "time": 2628, "note": 76, "velocity": 120, "channel": 0}, {"type": "note_off", "time": 5068, "note": 76, "velocity": 120, "channel": 0}, {"type": "note_on", "time": 750, "note": 73, "velocity": 97, "channel": 0}, {"type": "note_off", "time": 4317, "note": 73, "velocity": 97, "channel": 0}, {"type": "note_on", "time": 1689, "note": 76, "velocity": 127, "channel": 0}, {"type": "note_off", "time": 3942, "note": 76, "velocity": 127, "channel": 0}, {"type": "note_on", "time": 2816, "note": 73, "velocity": 106, "channel": 0}, {"type": "note_off", "time": 3003, "note": 73, "velocity": 106, "channel": 0}, {"type": "note_on", "time": 42803, "note": 71, "velocity": 119, "channel": 0}, {"type": "note_off", "time": 4881, "note": 71, "velocity": 119, "channel": 0}, {"type": "note_on", "time": 1501, "note": 68, "velocity": 91, "channel": 0}, {"type": "note_off", "time": 4505, "note": 68, "velocity": 91, "channel": 0}, {"type": "note_on", "time": 2815, "note": 71, "velocity": 114, "channel": 0}, {"type": "note_off", "time": 4881, "note": 71, "velocity": 114, "channel": 0}, {"type": "note_on", "time": 2252, "note": 68, "velocity": 89, "channel": 0}, {"type": "note_off", "time": 3754, "note": 68, "velocity": 89, "channel": 0}, {"type": "note_on", "time": 1314, "note": 71, "velocity": 109, "channel": 0}, {"type": "note_off", "time": 5256, "note": 71, "velocity": 109, "channel": 0}, {"type": "note_on", "time": 938, "note": 68, "velocity": 82, "channel": 0}, {"type": "note_off", "time": 3191, "note": 68, "velocity": 82, "channel": 0}, {"type": "note_on", "time": 3942, "note": 67, "velocity": 109, "channel": 0}, {"type": "note_off", "time": 4130, "note": 67, "velocity": 109, "channel": 0}, {"type": "note_on", "time": 563, "note": 66, "velocity": 90, "channel": 0}, {"type": "note_off", "time": 3003, "note": 66, "velocity": 90, "channel": 0}, {"type": "note_on", "time": 3566, "note": 64, "velocity": 103, "channel": 0}, {"type": "note_off", "time": 2628, "note": 64, "velocity": 103, "channel": 0}, {"type": "note_on", "time": 1126, "note": 61, "velocity": 85, "channel": 0}, {"type": "note_off", "time": 3566, "note": 61, "velocity": 85, "channel": 0}, {"type": "note_on", "time": 3379, "note": 66, "velocity": 107, "channel": 0}, {"type": "note_off", "time": 5256, "note": 66, "velocity": 107, "channel": 0}, {"type": "note_on", "time": 1226, "note": 63, "velocity": 117, "channel": 0}, {"type": "note_off", "time": 2904, "note": 63, "velocity": 117, "channel": 0}, {"type": "note_on", "time": 660, "note": 64, "velocity": 103, "channel": 0}, {"type": "note_off", "time": 3035, "note": 64, "velocity": 103, "channel": 0}, {"type": "note_on", "time": 1452, "note": 61, "velocity": 96, "channel": 0}, {"type": "note_off", "time": 3827, "note": 61, "velocity": 96, "channel": 0}, {"type": "note_on", "time": 1848, "note": 56, "velocity": 95, "channel": 0}, {"type": "note_off", "time": 3960, "note": 56, "velocity": 95, "channel": 0}, {"type": "note_on", "time": 792, "note": 59, "velocity": 86, "channel": 0}, {"type": "note_off", "time": 4752, "note": 59, "velocity": 86, "channel": 0}, {"type": "note_on", "time": 660, "note": 61, "velocity": 100, "channel": 0}, {"type": "note_off", "time": 4883, "note": 61, "velocity": 100, "channel": 0}, {"type": "note_on", "time": 2376, "note": 61, "velocity": 84, "channel": 0}, {"type": "note_off", "time": 33923, "note": 61, "velocity": 84, "channel": 0}, {"type": "note_on", "time": 437, "note": 63, "velocity": 108, "channel": 0}, {"type": "note_off", "time": 2158, "note": 63, "velocity": 108, "channel": 0}, {"type": "note_on", "time": 657, "note": 65, "velocity": 100, "channel": 0}, {"type": "note_off", "time": 6852, "note": 65, "velocity": 100, "channel": 0}, {"type": "note_on", "time": 128890, "note": 61, "velocity": 94, "channel": 0}, {"type": "note_off", "time": 8448, "note": 61, "velocity": 94, "channel": 0}, {"type": "note_on", "time": 4400, "note": 64, "velocity": 116, "channel": 0}, {"type": "note_off", "time": 1501, "note": 64, "velocity": 116, "channel": 0}, {"type": "note_on", "time": 170, "note": 65, "velocity": 113, "channel": 0}, {"type": "note_off", "time": 6204, "note": 65, "velocity": 113, "channel": 0}, {"type": "note_on", "time": 19536, "note": 66, "velocity": 114, "channel": 0}, {"type": "note_off", "time": 9900, "note": 66, "velocity": 114, "channel": 0}, {"type": "note_on", "time": 8975, "note": 58, "velocity": 97, "channel": 0}, {"type": "note_off", "time": 6732, "note": 58, "velocity": 97, "channel": 0}, {"type": "note_on", "time": 3581, "note": 63, "velocity": 116, "channel": 0}, {"type": "note_off", "time": 2722, "note": 63, "velocity": 116, "channel": 0}, {"type": "note_on", "time": 296, "note": 65, "velocity": 113, "channel": 0}, {"type": "note_off", "time": 8712, "note": 65, "velocity": 113, "channel": 0}, {"type": "note_on", "time": 9108, "note": 53, "velocity": 83, "channel": 0}, {"type": "note_off", "time": 17160, "note": 53, "velocity": 83, "channel": 0}, {"type": "note_on", "time": 48048, "note": 64, "velocity": 115, "channel": 0}, {"type": "note_off", "time": 4488, "note": 64, "velocity": 115, "channel": 0}, {"type": "note_on", "time": 2772, "note": 66, "velocity": 110, "channel": 0}, {"type": "note_off", "time": 5808, "note": 66, "velocity": 110, "channel": 0}, {"type": "note_on", "time": 1055, "note": 67, "velocity": 88, "channel": 0}, {"type": "note_off", "time": 5676, "note": 67, "velocity": 88, "channel": 0}, {"type": "note_on", "time": 1847, "note": 64, "velocity": 112, "channel": 0}, {"type": "note_off", "time": 5016, "note": 64, "velocity": 112, "channel": 0}, {"type": "note_on", "time": 12672, "note": 56, "velocity": 90, "channel": 0}, {"type": "note_off", "time": 7920, "note": 56, "velocity": 90, "channel": 0}, {"type": "note_on", "time": 924, "note": 58, "velocity": 90, "channel": 0}, {"type": "note_off", "time": 28644, "note": 58, "velocity": 90, "channel": 0}, {"type": "note_on", "time": 20064, "note": 56, "velocity": 93, "channel": 0}, {"type": "note_off", "time": 4356, "note": 56, "velocity": 93, "channel": 0}, {"type": "note_on", "time": 1848, "note": 58, "velocity": 94, "channel": 0}, {"type": "note_off", "time": 4752, "note": 58, "velocity": 94, "channel": 0}, {"type": "note_on", "time": 1451, "note": 61, "velocity": 98, "channel": 0}, {"type": "note_off", "time": 5016, "note": 61, "velocity": 98, "channel": 0}, {"type": "note_on", "time": 1716, "note": 64, "velocity": 115, "channel": 0}, {"type": "note_off", "time": 3168, "note": 64, "velocity": 115, "channel": 0}, {"type": "note_on", "time": 660, "note": 65, "velocity": 112, "channel": 0}, {"type": "note_off", "time": 5280, "note": 65, "velocity": 112, "channel": 0}, {"type": "note_on", "time": 3167, "note": 66, "velocity": 105, "channel": 0}, {"type": "note_off", "time": 3432, "note": 66, "velocity": 105, "channel": 0}, {"type": "note_on", "time": 5808, "note": 56, "velocity": 95, "channel": 0}, {"type": "note_off", "time": 3959, "note": 56, "velocity": 95, "channel": 0}, {"type": "note_on", "time": 1188, "note": 64, "velocity": 114, "channel": 0}, {"type": "note_off", "time": 3432, "note": 64, "velocity": 114, "channel": 0}, {"type": "note_on", "time": 264, "note": 65, "velocity": 109, "channel": 0}, {"type": "note_off", "time": 3432, "note": 65, "velocity": 109, "channel": 0}, {"type": "note_on", "time": 3960, "note": 56, "velocity": 96, "channel": 0}, {"type": "note_off", "time": 3564, "note": 56, "velocity": 96, "channel": 0}, {"type": "note_on", "time": 3432, "note": 58, "velocity": 97, "channel": 0}, {"type": "note_off", "time": 5412, "note": 58, "velocity": 97, "channel": 0}, {"type": "note_on", "time": 2508, "note": 58, "velocity": 95, "channel": 0}, {"type": "note_off", "time": 1320, "note": 58, "velocity": 95, "channel": 0}, {"type": "note_on", "time": 396, "note": 59, "velocity": 100, "channel": 0}, {"type": "note_off", "time": 3960, "note": 59, "velocity": 100, "channel": 0}, {"type": "note_on", "time": 792, "note": 58, "velocity": 89, "channel": 0}, {"type": "note_off", "time": 2112, "note": 58, "velocity": 89, "channel": 0}, {"type": "note_on", "time": 264, "note": 56, "velocity": 89, "channel": 0}, {"type": "note_off", "time": 3696, "note": 56, "velocity": 89, "channel": 0}, {"type": "note_on", "time": 3696, "note": 58, "velocity": 99, "channel": 0}, {"type": "note_off", "time": 5676, "note": 58, "velocity": 99, "channel": 0}, {"type": "note_on", "time": 1320, "note": 53, "velocity": 82, "channel": 0}, {"type": "note_off", "time": 2640, "note": 53, "velocity": 82, "channel": 0}, {"type": "note_on", "time": 1979, "note": 56, "velocity": 90, "channel": 0}, {"type": "note_off", "time": 16368, "note": 56, "velocity": 90, "channel": 0}, {"type": "note_on", "time": 16632, "note": 56, "velocity": 99, "channel": 0}, {"type": "note_off", "time": 3036, "note": 56, "velocity": 99, "channel": 0}, {"type": "note_on", "time": 1188, "note": 53, "velocity": 93, "channel": 0}, {"type": "note_off", "time": 2508, "note": 53, "velocity": 93, "channel": 0}, {"type": "note_on", "time": 903, "note": 54, "velocity": 100, "channel": 0}, {"type": "note_off", "time": 2244, "note": 54, "velocity": 100, "channel": 0}, {"type": "note_on", "time": 55, "note": 57, "velocity": 91, "channel": 0}, {"type": "note_off", "time": 1716, "note": 57, "velocity": 91, "channel": 0}, {"type": "note_on", "time": 1416, "note": 59, "velocity": 92, "channel": 0}, {"type": "note_off", "time": 2376, "note": 59, "velocity": 92, "channel": 0}, {"type": "note_on", "time": 660, "note": 64, "velocity": 98, "channel": 0}, {"type": "note_off", "time": 3036, "note": 64, "velocity": 98, "channel": 0}, {"type": "note_on", "time": 0, "note": 69, "velocity": 111, "channel": 0}, {"type": "note_off", "time": 3827, "note": 69, "velocity": 111, "channel": 0}, {"type": "note_on", "time": 0, "note": 66, "velocity": 103, "channel": 0}, {"type": "note_off", "time": 2508, "note": 66, "velocity": 103, "channel": 0}, {"type": "note_on", "time": 528, "note": 62, "velocity": 101, "channel": 0}, {"type": "note_off", "time": 1848, "note": 62, "velocity": 101, "channel": 0}, {"type": "note_on", "time": 924, "note": 59, "velocity": 98, "channel": 0}, {"type": "note_off", "time": 2508, "note": 59, "velocity": 98, "channel": 0}, {"type": "note_on", "time": 0, "note": 64, "velocity": 109, "channel": 0}, {"type": "note_off", "time": 2376, "note": 64, "velocity": 109, "channel": 0}, {"type": "note_on", "time": 396, "note": 61, "velocity": 99, "channel": 0}, {"type": "note_off", "time": 2771, "note": 61, "velocity": 99, "channel": 0}, {"type": "note_on", "time": 0, "note": 63, "velocity": 103, "channel": 0}, {"type": "note_off", "time": 2508, "note": 63, "velocity": 103, "channel": 0}, {"type": "note_on", "time": 924, "note": 67, "velocity": 102, "channel": 0}, {"type": "note_off", "time": 2903, "note": 67, "velocity": 102, "channel": 0}, {"type": "note_on", "time": 132, "note": 67, "velocity": 102, "channel": 0}, {"type": "note_off", "time": 3036, "note": 67, "velocity": 102, "channel": 0}, {"type": "note_on", "time": 792, "note": 65, "velocity": 103, "channel": 0}, {"type": "note_off", "time": 2112, "note": 65, "velocity": 103, "channel": 0}, {"type": "note_on", "time": 264, "note": 62, "velocity": 104, "channel": 0}, {"type": "note_off", "time": 2112, "note": 62, "velocity": 104, "channel": 0}, {"type": "note_on", "time": 375, "note": 58, "velocity": 94, "channel": 0}, {"type": "note_off", "time": 1877, "note": 58, "velocity": 94, "channel": 0}, {"type": "note_on", "time": 657, "note": 55, "velocity": 98, "channel": 0}, {"type": "note_off", "time": 1710, "note": 55, "velocity": 98, "channel": 0}, {"type": "note_on", "time": 0, "note": 63, "velocity": 104, "channel": 0}, {"type": "note_off", "time": 2904, "note": 63, "velocity": 104, "channel": 0}, {"type": "note_on", "time": 79, "note": 60, "velocity": 102, "channel": 0}, {"type": "note_off", "time": 2252, "note": 60, "velocity": 102, "channel": 0}, {"type": "note_on", "time": 375, "note": 61, "velocity": 107, "channel": 0}, {"type": "note_off", "time": 2346, "note": 61, "velocity": 107, "channel": 0}, {"type": "note_on", "time": 225, "note": 58, "velocity": 99, "channel": 0}, {"type": "note_off", "time": 2772, "note": 58, "velocity": 99, "channel": 0}, {"type": "note_on", "time": 475, "note": 52, "velocity": 104, "channel": 0}, {"type": "note_off", "time": 3379, "note": 52, "velocity": 104, "channel": 0}, {"type": "note_on", "time": 281, "note": 56, "velocity": 100, "channel": 0}, {"type": "note_off", "time": 2346, "note": 56, "velocity": 100, "channel": 0}, {"type": "note_on", "time": 375, "note": 55, "velocity": 101, "channel": 0}, {"type": "note_off", "time": 3097, "note": 55, "velocity": 101, "channel": 0}, {"type": "note_on", "time": 750, "note": 54, "velocity": 101, "channel": 0}, {"type": "note_off", "time": 4224, "note": 54, "velocity": 101, "channel": 0}, {"type": "note_on", "time": 47637, "note": 54, "velocity": 93, "channel": 0}, {"type": "note_off", "time": 6864, "note": 54, "velocity": 93, "channel": 0}, {"type": "note_on", "time": 1451, "note": 57, "velocity": 93, "channel": 0}, {"type": "note_off", "time": 2244, "note": 57, "velocity": 93, "channel": 0}, {"type": "note_on", "time": 1056, "note": 58, "velocity": 99, "channel": 0}, {"type": "note_off", "time": 5280, "note": 58, "velocity": 99, "channel": 0}, {"type": "note_on", "time": 528, "note": 61, "velocity": 105, "channel": 0}, {"type": "note_off", "time": 8712, "note": 61, "velocity": 105, "channel": 0}, {"type": "note_on", "time": 264, "note": 63, "velocity": 114, "channel": 0}, {"type": "note_off", "time": 8712, "note": 63, "velocity": 114, "channel": 0}, {"type": "note_on", "time": 660, "note": 61, "velocity": 92, "channel": 0}, {"type": "note_off", "time": 8316, "note": 61, "velocity": 92, "channel": 0}, {"type": "note_on", "time": 132, "note": 64, "velocity": 92, "channel": 0}, {"type": "note_off", "time": 68376, "note": 64, "velocity": 92, "channel": 0}, {"type": "note_on", "time": 1055, "note": 63, "velocity": 100, "channel": 0}, {"type": "note_off", "time": 4620, "note": 63, "velocity": 100, "channel": 0}, {"type": "note_on", "time": 792, "note": 61, "velocity": 92, "channel": 0}, {"type": "note_off", "time": 4620, "note": 61, "velocity": 92, "channel": 0}, {"type": "note_on", "time": 1056, "note": 64, "velocity": 106, "channel": 0}, {"type": "note_off", "time": 5412, "note": 64, "velocity": 106, "channel": 0}, {"type": "note_on", "time": 659, "note": 63, "velocity": 98, "channel": 0}, {"type": "note_off", "time": 4224, "note": 63, "velocity": 98, "channel": 0}, {"type": "note_on", "time": 1055, "note": 61, "velocity": 93, "channel": 0}, {"type": "note_off", "time": 4884, "note": 61, "velocity": 93, "channel": 0}, {"type": "note_on", "time": 396, "note": 64, "velocity": 117, "channel": 0}, {"type": "note_off", "time": 6204, "note": 64, "velocity": 117, "channel": 0}, {"type": "note_on", "time": 791, "note": 63, "velocity": 109, "channel": 0}, {"type": "note_off", "time": 4224, "note": 63, "velocity": 109, "channel": 0}, {"type": "note_on", "time": 363, "note": 61, "velocity": 86, "channel": 0}, {"type": "note_off", "time": 8635, "note": 61, "velocity": 86, "channel": 0}, {"type": "note_on", "time": 1032, "note": 63, "velocity": 111, "channel": 0}, {"type": "note_off", "time": 2252, "note": 63, "velocity": 111, "channel": 0}, {"type": "note_on", "time": 255, "note": 65, "velocity": 103, "channel": 0}, {"type": "note_off", "time": 4356, "note": 65, "velocity": 103, "channel": 0}, {"type": "note_on", "time": 4752, "note": 63, "velocity": 105, "channel": 0}, {"type": "note_off", "time": 5148, "note": 63, "velocity": 105, "channel": 0}, {"type": "note_on", "time": 5412, "note": 61, "velocity": 104, "channel": 0}, {"type": "note_off", "time": 5016, "note": 61, "velocity": 104, "channel": 0}, {"type": "note_on", "time": 3167, "note": 58, "velocity": 92, "channel": 0}, {"type": "note_off", "time": 4488, "note": 58, "velocity": 92, "channel": 0}, {"type": "note_on", "time": 4488, "note": 56, "velocity": 92, "channel": 0}, {"type": "note_off", "time": 5280, "note": 56, "velocity": 92, "channel": 0}, {"type": "note_on", "time": 6203, "note": 49, "velocity": 96, "channel": 0}, {"type": "note_off", "time": 5280, "note": 49, "velocity": 96, "channel": 0}, {"type": "note_on", "time": 2378, "note": 52, "velocity": 99, "channel": 0}, {"type": "note_off", "time": 1971, "note": 52, "velocity": 99, "channel": 0}, {"type": "note_on", "time": 137, "note": 53, "velocity": 96, "channel": 0}, {"type": "note_off", "time": 3960, "note": 53, "velocity": 96, "channel": 0}, {"type": "note_on", "time": 1319, "note": 56, "velocity": 81, "channel": 0}, {"type": "note_off", "time": 24156, "note": 56, "velocity": 81, "channel": 0}, {"type": "note_on", "time": 114839, "note": 71, "velocity": 104, "channel": 0}, {"type": "note_off", "time": 7227, "note": 71, "velocity": 104, "channel": 0}, {"type": "note_on", "time": 610, "note": 70, "velocity": 86, "channel": 0}, {"type": "note_off", "time": 4599, "note": 70, "velocity": 86, "channel": 0}, {"type": "note_on", "time": 70326, "note": 71, "velocity": 111, "channel": 0}, {"type": "note_off", "time": 5808, "note": 71, "velocity": 111, "channel": 0}, {"type": "note_on", "time": 4884, "note": 71, "velocity": 112, "channel": 0}, {"type": "note_off", "time": 4355, "note": 71, "velocity": 112, "channel": 0}, {"type": "note_on", "time": 1056, "note": 72, "velocity": 102, "channel": 0}, {"type": "note_off", "time": 4488, "note": 72, "velocity": 102, "channel": 0}, {"type": "note_on", "time": 1055, "note": 71, "velocity": 108, "channel": 0}, {"type": "note_off", "time": 4355, "note": 71, "velocity": 108, "channel": 0}, {"type": "note_on", "time": 792, "note": 71, "velocity": 9, "channel": 0}, {"type": "note_off", "time": 6336, "note": 71, "velocity": 9, "channel": 0}, {"type": "note_on", "time": 69913, "note": 70, "velocity": 104, "channel": 0}, {"type": "note_off", "time": 1971, "note": 70, "velocity": 104, "channel": 0}, {"type": "note_on", "time": 563, "note": 71, "velocity": 96, "channel": 0}, {"type": "note_off", "time": 4036, "note": 71, "velocity": 96, "channel": 0}, {"type": "note_on", "time": 472, "note": 68, "velocity": 83, "channel": 0}, {"type": "note_off", "time": 3960, "note": 68, "velocity": 83, "channel": 0}, {"type": "note_on", "time": 6072, "note": 70, "velocity": 97, "channel": 0}, {"type": "note_off", "time": 2112, "note": 70, "velocity": 97, "channel": 0}, {"type": "note_on", "time": 528, "note": 71, "velocity": 99, "channel": 0}, {"type": "note_off", "time": 5016, "note": 71, "velocity": 99, "channel": 0}, {"type": "note_on", "time": 659, "note": 68, "velocity": 82, "channel": 0}, {"type": "note_off", "time": 4355, "note": 68, "velocity": 82, "channel": 0}, {"type": "note_on", "time": 51480, "note": 68, "velocity": 84, "channel": 0}, {"type": "note_off", "time": 2904, "note": 68, "velocity": 84, "channel": 0}, {"type": "note_on", "time": 1583, "note": 68, "velocity": 90, "channel": 0}, {"type": "note_off", "time": 1980, "note": 68, "velocity": 90, "channel": 0}, {"type": "note_on", "time": 3960, "note": 70, "velocity": 95, "channel": 0}, {"type": "note_off", "time": 1716, "note": 70, "velocity": 95, "channel": 0}, {"type": "note_on", "time": 924, "note": 71, "velocity": 98, "channel": 0}, {"type": "note_off", "time": 4488, "note": 71, "velocity": 98, "channel": 0}, {"type": "note_on", "time": 791, "note": 68, "velocity": 78, "channel": 0}, {"type": "note_off", "time": 1848, "note": 68, "velocity": 78, "channel": 0}, {"type": "note_on", "time": 2244, "note": 70, "velocity": 91, "channel": 0}, {"type": "note_off", "time": 1716, "note": 70, "velocity": 91, "channel": 0}, {"type": "note_on", "time": 0, "note": 71, "velocity": 99, "channel": 0}, {"type": "note_off", "time": 3432, "note": 71, "velocity": 99, "channel": 0}, {"type": "note_on", "time": 1319, "note": 68, "velocity": 82, "channel": 0}, {"type": "note_off", "time": 2112, "note": 68, "velocity": 82, "channel": 0}, {"type": "note_on", "time": 5676, "note": 70, "velocity": 87, "channel": 0}, {"type": "note_off", "time": 2376, "note": 70, "velocity": 87, "channel": 0}, {"type": "note_on", "time": 132, "note": 71, "velocity": 93, "channel": 0}, {"type": "note_off", "time": 4620, "note": 71, "velocity": 93, "channel": 0}, {"type": "note_on", "time": 2112, "note": 68, "velocity": 84, "channel": 0}, {"type": "note_off", "time": 2243, "note": 68, "velocity": 84, "channel": 0}, {"type": "note_on", "time": 6136, "note": 70, "velocity": 102, "channel": 0}, {"type": "note_off", "time": 1595, "note": 70, "velocity": 102, "channel": 0}, {"type": "note_on", "time": 55, "note": 71, "velocity": 95, "channel": 0}, {"type": "note_off", "time": 3036, "note": 71, "velocity": 95, "channel": 0}, {"type": "note_on", "time": 3696, "note": 71, "velocity": 106, "channel": 0}, {"type": "note_off", "time": 3300, "note": 71, "velocity": 106, "channel": 0}, {"type": "note_on", "time": 9248, "note": 70, "velocity": 112, "channel": 0}, {"type": "note_off", "time": 1501, "note": 70, "velocity": 112, "channel": 0}, {"type": "note_on", "time": 73, "note": 71, "velocity": 109, "channel": 0}, {"type": "note_off", "time": 3300, "note": 71, "velocity": 109, "channel": 0}, {"type": "note_on", "time": 7702, "note": 70, "velocity": 108, "channel": 0}, {"type": "note_off", "time": 1501, "note": 70, "velocity": 108, "channel": 0}, {"type": "note_on", "time": 167, "note": 71, "velocity": 107, "channel": 0}, {"type": "note_off", "time": 2507, "note": 71, "velocity": 107, "channel": 0}, {"type": "note_on", "time": 1188, "note": 68, "velocity": 87, "channel": 0}, {"type": "note_off", "time": 1848, "note": 68, "velocity": 87, "channel": 0}, {"type": "note_on", "time": 5016, "note": 70, "velocity": 103, "channel": 0}, {"type": "note_off", "time": 1056, "note": 70, "velocity": 103, "channel": 0}, {"type": "note_on", "time": 923, "note": 71, "velocity": 94, "channel": 0}, {"type": "note_off", "time": 3035, "note": 71, "velocity": 94, "channel": 0}, {"type": "note_on", "time": 660, "note": 68, "velocity": 75, "channel": 0}, {"type": "note_off", "time": 2771, "note": 68, "velocity": 75, "channel": 0}, {"type": "note_on", "time": 4356, "note": 70, "velocity": 104, "channel": 0}, {"type": "note_off", "time": 1716, "note": 70, "velocity": 104, "channel": 0}, {"type": "note_on", "time": 528, "note": 71, "velocity": 103, "channel": 0}, {"type": "note_off", "time": 2508, "note": 71, "velocity": 103, "channel": 0}, {"type": "note_on", "time": 1848, "note": 68, "velocity": 77, "channel": 0}, {"type": "note_off", "time": 3696, "note": 68, "velocity": 77, "channel": 0}, {"type": "note_on", "time": 4658, "note": 70, "velocity": 101, "channel": 0}, {"type": "note_off", "time": 1314, "note": 70, "velocity": 101, "channel": 0}, {"type": "note_on", "time": 759, "note": 71, "velocity": 91, "channel": 0}, {"type": "note_off", "time": 4092, "note": 71, "velocity": 91, "channel": 0}, {"type": "note_on", "time": 1319, "note": 68, "velocity": 82, "channel": 0}, {"type": "note_off", "time": 3036, "note": 68, "velocity": 82, "channel": 0}, {"type": "note_on", "time": 5412, "note": 71, "velocity": 93, "channel": 0}, {"type": "note_off", "time": 2772, "note": 71, "velocity": 93, "channel": 0}, {"type": "note_on", "time": 6600, "note": 68, "velocity": 86, "channel": 0}, {"type": "note_off", "time": 4488, "note": 68, "velocity": 86, "channel": 0}, {"type": "note_on", "time": 5030, "note": 70, "velocity": 104, "channel": 0}, {"type": "note_off", "time": 1314, "note": 70, "velocity": 104, "channel": 0}, {"type": "note_on", "time": 519, "note": 71, "velocity": 108, "channel": 0}, {"type": "note_off", "time": 4092, "note": 71, "velocity": 108, "channel": 0}, {"type": "note_on", "time": 5412, "note": 68, "velocity": 97, "channel": 0}, {"type": "note_off", "time": 3696, "note": 68, "velocity": 97, "channel": 0}, {"type": "note_on", "time": 5280, "note": 70, "velocity": 90, "channel": 0}, {"type": "note_off", "time": 2376, "note": 70, "velocity": 90, "channel": 0}, {"type": "note_on", "time": 264, "note": 71, "velocity": 90, "channel": 0}, {"type": "note_off", "time": 60720, "note": 71, "velocity": 90, "channel": 0}, {"type": "note_on", "time": 1320, "note": 70, "velocity": 104, "channel": 0}, {"type": "note_off", "time": 3168, "note": 70, "velocity": 104, "channel": 0}, {"type": "note_on", "time": 1055, "note": 68, "velocity": 103, "channel": 0}, {"type": "note_off", "time": 2771, "note": 68, "velocity": 103, "channel": 0}, {"type": "note_on", "time": 1056, "note": 66, "velocity": 102, "channel": 0}, {"type": "note_off", "time": 2243, "note": 66, "velocity": 102, "channel": 0}, {"type": "note_on", "time": 3646, "note": 63, "velocity": 115, "channel": 0}, {"type": "note_off", "time": 2252, "note": 63, "velocity": 115, "channel": 0}, {"type": "note_on", "time": 281, "note": 64, "velocity": 108, "channel": 0}, {"type": "note_off", "time": 3660, "note": 64, "velocity": 108, "channel": 0}, {"type": "note_on", "time": 718, "note": 61, "velocity": 91, "channel": 0}, {"type": "note_off", "time": 3960, "note": 61, "velocity": 91, "channel": 0}, {"type": "note_on", "time": 114972, "note": 58, "velocity": 90, "channel": 0}, {"type": "note_off", "time": 6731, "note": 58, "velocity": 90, "channel": 0}, {"type": "note_on", "time": 2376, "note": 61, "velocity": 106, "channel": 0}, {"type": "note_off", "time": 11880, "note": 61, "velocity": 106, "channel": 0}, {"type": "note_on", "time": 13992, "note": 63, "velocity": 105, "channel": 0}, {"type": "note_off", "time": 4092, "note": 63, "velocity": 105, "channel": 0}, {"type": "note_on", "time": 659, "note": 65, "velocity": 112, "channel": 0}, {"type": "note_off", "time": 6600, "note": 65, "velocity": 112, "channel": 0}, {"type": "note_on", "time": 17556, "note": 61, "velocity": 91, "channel": 0}, {"type": "note_off", "time": 20592, "note": 61, "velocity": 91, "channel": 0}, {"type": "note_on", "time": 396, "note": 59, "velocity": 72, "channel": 0}, {"type": "note_off", "time": 61116, "note": 59, "velocity": 72, "channel": 0}, {"type": "note_on", "time": 117083, "note": 76, "velocity": 125, "channel": 0}, {"type": "note_off", "time": 8448, "note": 76, "velocity": 125, "channel": 0}, {"type": "note_on", "time": 74844, "note": 73, "velocity": 107, "channel": 0}, {"type": "note_off", "time": 8712, "note": 73, "velocity": 107, "channel": 0}, {"type": "note_on", "time": 55307, "note": 70, "velocity": 111, "channel": 0}, {"type": "note_off", "time": 7788, "note": 70, "velocity": 111, "channel": 0}, {"type": "note_on", "time": 1319, "note": 68, "velocity": 81, "channel": 0}, {"type": "note_off", "time": 3168, "note": 68, "velocity": 81, "channel": 0}, {"type": "note_on", "time": 10841, "note": 70, "velocity": 106, "channel": 0}, {"type": "note_off", "time": 4787, "note": 70, "velocity": 106, "channel": 0}, {"type": "note_on", "time": 607, "note": 68, "velocity": 102, "channel": 0}, {"type": "note_off", "time": 4884, "note": 68, "velocity": 102, "channel": 0}, {"type": "note_on", "time": 1979, "note": 61, "velocity": 95, "channel": 0}, {"type": "note_off", "time": 6204, "note": 61, "velocity": 95, "channel": 0}, {"type": "note_on", "time": 660, "note": 58, "velocity": 88, "channel": 0}, {"type": "note_off", "time": 3168, "note": 58, "velocity": 88, "channel": 0}, {"type": "note_on", "time": 7089, "note": 63, "velocity": 97, "channel": 0}, {"type": "note_off", "time": 1877, "note": 63, "velocity": 97, "channel": 0}, {"type": "note_on", "time": 272, "note": 65, "velocity": 103, "channel": 0}, {"type": "note_off", "time": 6732, "note": 65, "velocity": 103, "channel": 0}, {"type": "note_on", "time": 692, "note": 68, "velocity": 78, "channel": 0}, {"type": "note_off", "time": 38016, "note": 68, "velocity": 78, "channel": 0}, {"type": "note_on", "time": 67959, "note": 71, "velocity": 110, "channel": 0}, {"type": "note_off", "time": 12014, "note": 71, "velocity": 110, "channel": 0}, {"type": "note_on", "time": 187, "note": 70, "velocity": 93, "channel": 0}, {"type": "note_off", "time": 3097, "note": 70, "velocity": 93, "channel": 0}, {"type": "note_on", "time": 469, "note": 69, "velocity": 92, "channel": 0}, {"type": "note_off", "time": 3191, "note": 69, "velocity": 92, "channel": 0}, {"type": "note_on", "time": 938, "note": 68, "velocity": 98, "channel": 0}, {"type": "note_off", "time": 6007, "note": 68, "velocity": 98, "channel": 0}, {"type": "note_on", "time": 1314, "note": 66, "velocity": 104, "channel": 0}, {"type": "note_off", "time": 4505, "note": 66, "velocity": 104, "channel": 0}, {"type": "note_on", "time": 563, "note": 65, "velocity": 99, "channel": 0}, {"type": "note_off", "time": 5444, "note": 65, "velocity": 99, "channel": 0}, {"type": "note_on", "time": 1501, "note": 63, "velocity": 109, "channel": 0}, {"type": "note_off", "time": 4599, "note": 63, "velocity": 109, "channel": 0}, {"type": "note_on", "time": 938, "note": 62, "velocity": 98, "channel": 0}, {"type": "note_off", "time": 8260, "note": 62, "velocity": 98, "channel": 0}, {"type": "note_on", "time": 5631, "note": 59, "velocity": 84, "channel": 0}, {"type": "note_off", "time": 8354, "note": 59, "velocity": 84, "channel": 0}, {"type": "note_on", "time": 469, "note": 58, "velocity": 96, "channel": 0}, {"type": "note_off", "time": 3379, "note": 58, "velocity": 96, "channel": 0}, {"type": "note_on", "time": 657, "note": 59, "velocity": 87, "channel": 0}, {"type": "note_off", "time": 15769, "note": 59, "velocity": 87, "channel": 0}, {"type": "note_on", "time": 1066, "note": 58, "velocity": 96, "channel": 0}, {"type": "note_off", "time": 7603, "note": 58, "velocity": 96, "channel": 0}, {"type": "note_on", "time": 435, "note": 56, "velocity": 95, "channel": 0}, {"type": "note_off", "time": 3285, "note": 56, "velocity": 95, "channel": 0}, {"type": "note_on", "time": 469, "note": 54, "velocity": 95, "channel": 0}, {"type": "note_off", "time": 3942, "note": 54, "velocity": 95, "channel": 0}, {"type": "note_on", "time": 563, "note": 51, "velocity": 90, "channel": 0}, {"type": "note_off", "time": 3942, "note": 51, "velocity": 90, "channel": 0}, {"type": "note_on", "time": 1220, "note": 54, "velocity": 90, "channel": 0}, {"type": "note_off", "time": 3942, "note": 54, "velocity": 90, "channel": 0}, {"type": "note_on", "time": 750, "note": 58, "velocity": 94, "channel": 0}, {"type": "note_off", "time": 3660, "note": 58, "velocity": 94, "channel": 0}, {"type": "note_on", "time": 874, "note": 54, "velocity": 90, "channel": 0}, {"type": "note_off", "time": 3168, "note": 54, "velocity": 90, "channel": 0}, {"type": "note_on", "time": 792, "note": 58, "velocity": 100, "channel": 0}, {"type": "note_off", "time": 3168, "note": 58, "velocity": 100, "channel": 0}, {"type": "note_on", "time": 1584, "note": 61, "velocity": 107, "channel": 0}, {"type": "note_off", "time": 3431, "note": 61, "velocity": 107, "channel": 0}, {"type": "note_on", "time": 264, "note": 58, "velocity": 86, "channel": 0}, {"type": "note_off", "time": 2904, "note": 58, "velocity": 86, "channel": 0}, {"type": "note_on", "time": 924, "note": 61, "velocity": 106, "channel": 0}, {"type": "note_off", "time": 3828, "note": 61, "velocity": 106, "channel": 0}, {"type": "note_on", "time": 924, "note": 66, "velocity": 101, "channel": 0}, {"type": "note_off", "time": 4356, "note": 66, "velocity": 101, "channel": 0}, {"type": "note_on", "time": 528, "note": 61, "velocity": 93, "channel": 0}, {"type": "note_off", "time": 2243, "note": 61, "velocity": 93, "channel": 0}, {"type": "note_on", "time": 1056, "note": 66, "velocity": 103, "channel": 0}, {"type": "note_off", "time": 3828, "note": 66, "velocity": 103, "channel": 0}, {"type": "note_on", "time": 5544, "note": 69, "velocity": 109, "channel": 0}, {"type": "note_off", "time": 1980, "note": 69, "velocity": 109, "channel": 0}, {"type": "note_on", "time": 792, "note": 70, "velocity": 108, "channel": 0}, {"type": "note_off", "time": 6336, "note": 70, "velocity": 108, "channel": 0}, {"type": "note_on", "time": 396, "note": 66, "velocity": 104, "channel": 0}, {"type": "note_off", "time": 3564, "note": 66, "velocity": 104, "channel": 0}, {"type": "note_on", "time": 132, "note": 61, "velocity": 101, "channel": 0}, {"type": "note_off", "time": 3696, "note": 61, "velocity": 101, "channel": 0}, {"type": "note_on", "time": 264, "note": 58, "velocity": 91, "channel": 0}, {"type": "note_off", "time": 5280, "note": 58, "velocity": 91, "channel": 0}, {"type": "note_on", "time": 10163, "note": 61, "velocity": 104, "channel": 0}, {"type": "note_off", "time": 3564, "note": 61, "velocity": 104, "channel": 0}, {"type": "note_on", "time": 264, "note": 66, "velocity": 100, "channel": 0}, {"type": "note_off", "time": 3564, "note": 66, "velocity": 100, "channel": 0}, {"type": "note_on", "time": 527, "note": 60, "velocity": 101, "channel": 0}, {"type": "note_off", "time": 5544, "note": 60, "velocity": 101, "channel": 0}, {"type": "note_on", "time": 90288, "note": 66, "velocity": 110, "channel": 0}, {"type": "note_off", "time": 4620, "note": 66, "velocity": 110, "channel": 0}, {"type": "note_on", "time": 792, "note": 65, "velocity": 106, "channel": 0}, {"type": "note_off", "time": 3036, "note": 65, "velocity": 106, "channel": 0}, {"type": "note_on", "time": 792, "note": 66, "velocity": 108, "channel": 0}, {"type": "note_off", "time": 3432, "note": 66, "velocity": 108, "channel": 0}, {"type": "note_on", "time": 660, "note": 65, "velocity": 109, "channel": 0}, {"type": "note_off", "time": 3696, "note": 65, "velocity": 109, "channel": 0}, {"type": "note_on", "time": 528, "note": 61, "velocity": 104, "channel": 0}, {"type": "note_off", "time": 3300, "note": 61, "velocity": 104, "channel": 0}, {"type": "note_on", "time": 791, "note": 58, "velocity": 88, "channel": 0}, {"type": "note_off", "time": 3960, "note": 58, "velocity": 88, "channel": 0}, {"type": "note_on", "time": 660, "note": 61, "velocity": 89, "channel": 0}, {"type": "note_off", "time": 31812, "note": 61, "velocity": 89, "channel": 0}, {"type": "note_on", "time": 528, "note": 66, "velocity": 101, "channel": 0}, {"type": "note_off", "time": 3168, "note": 66, "velocity": 101, "channel": 0}, {"type": "note_on", "time": 528, "note": 65, "velocity": 101, "channel": 0}, {"type": "note_off", "time": 3300, "note": 65, "velocity": 101, "channel": 0}, {"type": "note_on", "time": 396, "note": 66, "velocity": 100, "channel": 0}, {"type": "note_off", "time": 3300, "note": 66, "velocity": 100, "channel": 0}, {"type": "note_on", "time": 132, "note": 65, "velocity": 102, "channel": 0}, {"type": "note_off", "time": 2904, "note": 65, "velocity": 102, "channel": 0}, {"type": "note_on", "time": 132, "note": 61, "velocity": 97, "channel": 0}, {"type": "note_off", "time": 3036, "note": 61, "velocity": 97, "channel": 0}, {"type": "note_on", "time": 132, "note": 58, "velocity": 92, "channel": 0}, {"type": "note_on", "time": 4092, "note": 61, "velocity": 94, "channel": 0}, {"type": "note_off", "time": 0, "note": 58, "velocity": 92, "channel": 0}, {"type": "note_off", "time": 14255, "note": 61, "velocity": 94, "channel": 0}, {"type": "note_on", "time": 43662, "note": 65, "velocity": 111, "channel": 0}, {"type": "note_off", "time": 2346, "note": 65, "velocity": 111, "channel": 0}, {"type": "note_on", "time": 281, "note": 66, "velocity": 107, "channel": 0}, {"type": "note_off", "time": 3379, "note": 66, "velocity": 107, "channel": 0}, {"type": "note_on", "time": 563, "note": 62, "velocity": 99, "channel": 0}, {"type": "note_off", "time": 2158, "note": 62, "velocity": 99, "channel": 0}, {"type": "note_on", "time": 737, "note": 65, "velocity": 109, "channel": 0}, {"type": "note_off", "time": 2310, "note": 65, "velocity": 109, "channel": 0}, {"type": "note_on", "time": 924, "note": 63, "velocity": 107, "channel": 0}, {"type": "note_off", "time": 2244, "note": 63, "velocity": 107, "channel": 0}, {"type": "note_on", "time": 824, "note": 58, "velocity": 96, "channel": 0}, {"type": "note_off", "time": 2158, "note": 58, "velocity": 96, "channel": 0}, {"type": "note_on", "time": 844, "note": 54, "velocity": 97, "channel": 0}, {"type": "note_off", "time": 2346, "note": 54, "velocity": 97, "channel": 0}, {"type": "note_on", "time": 750, "note": 61, "velocity": 104, "channel": 0}, {"type": "note_off", "time": 2158, "note": 61, "velocity": 104, "channel": 0}, {"type": "note_on", "time": 844, "note": 63, "velocity": 108, "channel": 0}, {"type": "note_off", "time": 2909, "note": 63, "velocity": 108, "channel": 0}, {"type": "note_on", "time": 187, "note": 60, "velocity": 93, "channel": 0}, {"type": "note_off", "time": 2628, "note": 60, "velocity": 93, "channel": 0}, {"type": "note_on", "time": 563, "note": 58, "velocity": 98, "channel": 0}, {"type": "note_off", "time": 3191, "note": 58, "velocity": 98, "channel": 0}, {"type": "note_on", "time": 390, "note": 56, "velocity": 99, "channel": 0}, {"type": "note_off", "time": 2574, "note": 56, "velocity": 99, "channel": 0}, {"type": "note_on", "time": 923, "note": 55, "velocity": 96, "channel": 0}, {"type": "note_off", "time": 2640, "note": 55, "velocity": 96, "channel": 0}, {"type": "note_on", "time": 330, "note": 54, "velocity": 98, "channel": 0}, {"type": "note_off", "time": 2046, "note": 54, "velocity": 98, "channel": 0}, {"type": "note_on", "time": 388, "note": 51, "velocity": 84, "channel": 0}, {"type": "note_off", "time": 2816, "note": 51, "velocity": 84, "channel": 0}, {"type": "note_on", "time": 1126, "note": 53, "velocity": 96, "channel": 0}, {"type": "note_off", "time": 3285, "note": 53, "velocity": 96, "channel": 0}, {"type": "note_on", "time": 765, "note": 51, "velocity": 91, "channel": 0}, {"type": "note_off", "time": 1518, "note": 51, "velocity": 91, "channel": 0}, {"type": "note_on", "time": 990, "note": 52, "velocity": 92, "channel": 0}, {"type": "note_off", "time": 1122, "note": 52, "velocity": 92, "channel": 0}, {"type": "note_on", "time": 860, "note": 53, "velocity": 95, "channel": 0}, {"type": "note_off", "time": 2065, "note": 53, "velocity": 95, "channel": 0}, {"type": "note_on", "time": 93, "note": 54, "velocity": 96, "channel": 0}, {"type": "note_off", "time": 2628, "note": 54, "velocity": 96, "channel": 0}, {"type": "note_on", "time": 469, "note": 56, "velocity": 91, "channel": 0}, {"type": "note_off", "time": 2628, "note": 56, "velocity": 91, "channel": 0}, {"type": "note_on", "time": 844, "note": 58, "velocity": 85, "channel": 0}, {"type": "note_off", "time": 2534, "note": 58, "velocity": 85, "channel": 0}, {"type": "note_on", "time": 563, "note": 61, "velocity": 100, "channel": 0}, {"type": "note_off", "time": 2534, "note": 61, "velocity": 100, "channel": 0}, {"type": "note_on", "time": 563, "note": 60, "velocity": 99, "channel": 0}, {"type": "note_off", "time": 1689, "note": 60, "velocity": 99, "channel": 0}, {"type": "note_on", "time": 657, "note": 65, "velocity": 86, "channel": 0}, {"type": "note_off", "time": 3848, "note": 65, "velocity": 86, "channel": 0}, {"type": "note_on", "time": 1220, "note": 68, "velocity": 101, "channel": 0}, {"type": "note_off", "time": 6101, "note": 68, "velocity": 101, "channel": 0}, {"type": "note_on", "time": 37077, "note": 70, "velocity": 103, "channel": 0}, {"type": "note_off", "time": 2194, "note": 70, "velocity": 103, "channel": 0}, {"type": "note_on", "time": 0, "note": 73, "velocity": 103, "channel": 0}, {"type": "note_off", "time": 5280, "note": 73, "velocity": 103, "channel": 0}, {"type": "note_on", "time": 25739, "note": 70, "velocity": 102, "channel": 0}, {"type": "note_off", "time": 19932, "note": 70, "velocity": 102, "channel": 0}, {"type": "note_on", "time": 924, "note": 68, "velocity": 77, "channel": 0}, {"type": "note_off", "time": 6204, "note": 68, "velocity": 77, "channel": 0}, {"type": "note_on", "time": 660, "note": 63, "velocity": 112, "channel": 0}, {"type": "note_off", "time": 5940, "note": 63, "velocity": 112, "channel": 0}, {"type": "note_on", "time": 659, "note": 64, "velocity": 95, "channel": 0}, {"type": "note_off", "time": 11616, "note": 64, "velocity": 95, "channel": 0}, {"type": "note_on", "time": 396, "note": 63, "velocity": 82, "channel": 0}, {"type": "note_off", "time": 55440, "note": 63, "velocity": 82, "channel": 0}, {"type": "note_on", "time": 1055, "note": 61, "velocity": 84, "channel": 0}, {"type": "note_off", "time": 7920, "note": 61, "velocity": 84, "channel": 0}, {"type": "note_on", "time": 1980, "note": 63, "velocity": 112, "channel": 0}, {"type": "note_off", "time": 6600, "note": 63, "velocity": 112, "channel": 0}, {"type": "note_on", "time": 2640, "note": 58, "velocity": 93, "channel": 0}, {"type": "note_off", "time": 6072, "note": 58, "velocity": 93, "channel": 0}, {"type": "note_on", "time": 33791, "note": 54, "velocity": 91, "channel": 0}, {"type": "note_off", "time": 5412, "note": 54, "velocity": 91, "channel": 0}, {"type": "note_on", "time": 1320, "note": 58, "velocity": 99, "channel": 0}, {"type": "note_off", "time": 17688, "note": 58, "velocity": 99, "channel": 0}, {"type": "note_on", "time": 8844, "note": 56, "velocity": 86, "channel": 0}, {"type": "note_off", "time": 20328, "note": 56, "velocity": 86, "channel": 0}, {"type": "note_on", "time": 1980, "note": 54, "velocity": 88, "channel": 0}, {"type": "note_off", "time": 6600, "note": 54, "velocity": 88, "channel": 0}, {"type": "note_on", "time": 0, "note": 58, "velocity": 9, "channel": 0}, {"type": "note_off", "time": 16764, "note": 58, "velocity": 9, "channel": 0}, {"type": "note_on", "time": 11616, "note": 61, "velocity": 110, "channel": 0}, {"type": "note_off", "time": 17820, "note": 61, "velocity": 110, "channel": 0}, {"type": "note_on", "time": 2772, "note": 58, "velocity": 93, "channel": 0}, {"type": "note_off", "time": 8316, "note": 58, "velocity": 93, "channel": 0}, {"type": "note_on", "time": 1980, "note": 64, "velocity": 120, "channel": 0}, {"type": "note_off", "time": 7128, "note": 64, "velocity": 120, "channel": 0}, {"type": "note_on", "time": 1319, "note": 65, "velocity": 107, "channel": 0}, {"type": "note_off", "time": 5544, "note": 65, "velocity": 107, "channel": 0}, {"type": "note_on", "time": 6864, "note": 66, "velocity": 103, "channel": 0}, {"type": "note_off", "time": 6864, "note": 66, "velocity": 103, "channel": 0}, {"type": "note_on", "time": 4356, "note": 65, "velocity": 115, "channel": 0}, {"type": "note_off", "time": 8448, "note": 65, "velocity": 115, "channel": 0}, {"type": "note_on", "time": 5280, "note": 63, "velocity": 110, "channel": 0}, {"type": "note_off", "time": 8844, "note": 63, "velocity": 110, "channel": 0}, {"type": "note_on", "time": 4356, "note": 61, "velocity": 103, "channel": 0}, {"type": "note_off", "time": 9900, "note": 61, "velocity": 103, "channel": 0}, {"type": "note_on", "time": 5412, "note": 60, "velocity": 107, "channel": 0}, {"type": "note_off", "time": 9372, "note": 60, "velocity": 107, "channel": 0}, {"type": "note_on", "time": 1320, "note": 59, "velocity": 105, "channel": 0}, {"type": "note_off", "time": 7920, "note": 59, "velocity": 105, "channel": 0}, {"type": "note_on", "time": 792, "note": 58, "velocity": 96, "channel": 0}, {"type": "note_off", "time": 7260, "note": 58, "velocity": 96, "channel": 0}, {"type": "note_on", "time": 1584, "note": 54, "velocity": 97, "channel": 0}, {"type": "note_off", "time": 9108, "note": 54, "velocity": 97, "channel": 0}, {"type": "note_on", "time": 1320, "note": 57, "velocity": 104, "channel": 0}, {"type": "note_off", "time": 1452, "note": 57, "velocity": 104, "channel": 0}, {"type": "note_on", "time": 792, "note": 58, "velocity": 103, "channel": 0}, {"type": "note_off", "time": 10296, "note": 58, "velocity": 103, "channel": 0}, {"type": "note_on", "time": 24815, "note": 49, "velocity": 98, "channel": 0}, {"type": "note_off", "time": 5808, "note": 49, "velocity": 98, "channel": 0}, {"type": "note_on", "time": 2904, "note": 49, "velocity": 109, "channel": 0}, {"type": "note_off", "time": 8052, "note": 49, "velocity": 109, "channel": 0}, {"type": "note_on", "time": 659, "note": 51, "velocity": 105, "channel": 0}, {"type": "note_off", "time": 5940, "note": 51, "velocity": 105, "channel": 0}, {"type": "note_on", "time": 1980, "note": 51, "velocity": 96, "channel": 0}, {"type": "note_off", "time": 8448, "note": 51, "velocity": 96, "channel": 0}, {"type": "note_on", "time": 1091, "note": 52, "velocity": 110, "channel": 0}, {"type": "note_off", "time": 6007, "note": 52, "velocity": 110, "channel": 0}, {"type": "note_on", "time": 3197, "note": 52, "velocity": 93, "channel": 0}, {"type": "note_off", "time": 29304, "note": 52, "velocity": 93, "channel": 0}, {"type": "note_on", "time": 51612, "note": 49, "velocity": 106, "channel": 0}, {"type": "note_off", "time": 4092, "note": 49, "velocity": 106, "channel": 0}, {"type": "note_on", "time": 1847, "note": 49, "velocity": 110, "channel": 0}, {"type": "note_off", "time": 6072, "note": 49, "velocity": 110, "channel": 0}, {"type": "note_on", "time": 1584, "note": 51, "velocity": 105, "channel": 0}, {"type": "note_off", "time": 4356, "note": 51, "velocity": 105, "channel": 0}, {"type": "note_on", "time": 1715, "note": 51, "velocity": 103, "channel": 0}, {"type": "note_off", "time": 5940, "note": 51, "velocity": 103, "channel": 0}, {"type": "note_on", "time": 1584, "note": 52, "velocity": 107, "channel": 0}, {"type": "note_off", "time": 5676, "note": 52, "velocity": 107, "channel": 0}, {"type": "note_on", "time": 1452, "note": 52, "velocity": 106, "channel": 0}, {"type": "note_off", "time": 8712, "note": 52, "velocity": 106, "channel": 0}, {"type": "note_on", "time": 1583, "note": 53, "velocity": 114, "channel": 0}, {"type": "note_off", "time": 5676, "note": 53, "velocity": 114, "channel": 0}, {"type": "note_on", "time": 2904, "note": 53, "velocity": 103, "channel": 0}, {"type": "note_off", "time": 7260, "note": 53, "velocity": 103, "channel": 0}, {"type": "note_on", "time": 527, "note": 54, "velocity": 104, "channel": 0}, {"type": "note_off", "time": 5016, "note": 54, "velocity": 104, "channel": 0}, {"type": "note_on", "time": 2112, "note": 54, "velocity": 109, "channel": 0}, {"type": "note_off", "time": 6468, "note": 54, "velocity": 109, "channel": 0}, {"type": "note_on", "time": 1584, "note": 55, "velocity": 104, "channel": 0}, {"type": "note_off", "time": 3695, "note": 55, "velocity": 104, "channel": 0}, {"type": "note_on", "time": 2640, "note": 58, "velocity": 105, "channel": 0}, {"type": "note_off", "time": 5280, "note": 58, "velocity": 105, "channel": 0}, {"type": "note_on", "time": 5280, "note": 57, "velocity": 107, "channel": 0}, {"type": "note_off", "time": 3168, "note": 57, "velocity": 107, "channel": 0}, {"type": "note_on", "time": 660, "note": 56, "velocity": 106, "channel": 0}, {"type": "note_off", "time": 3828, "note": 56, "velocity": 106, "channel": 0}, {"type": "note_on", "time": 3168, "note": 55, "velocity": 103, "channel": 0}, {"type": "note_off", "time": 4092, "note": 55, "velocity": 103, "channel": 0}, {"type": "note_on", "time": 1847, "note": 56, "velocity": 108, "channel": 0}, {"type": "note_off", "time": 5148, "note": 56, "velocity": 108, "channel": 0}, {"type": "note_on", "time": 1980, "note": 53, "velocity": 105, "channel": 0}, {"type": "note_off", "time": 5808, "note": 53, "velocity": 105, "channel": 0}, {"type": "note_on", "time": 1452, "note": 53, "velocity": 98, "channel": 0}, {"type": "note_off", "time": 3828, "note": 53, "velocity": 98, "channel": 0}, {"type": "note_on", "time": 1716, "note": 56, "velocity": 102, "channel": 0}, {"type": "note_off", "time": 3959, "note": 56, "velocity": 102, "channel": 0}, {"type": "note_on", "time": 1452, "note": 58, "velocity": 103, "channel": 0}, {"type": "note_off", "time": 5412, "note": 58, "velocity": 103, "channel": 0}, {"type": "note_on", "time": 5544, "note": 59, "velocity": 97, "channel": 0}, {"type": "note_off", "time": 5807, "note": 59, "velocity": 97, "channel": 0}, {"type": "note_on", "time": 1584, "note": 54, "velocity": 101, "channel": 0}, {"type": "note_off", "time": 3828, "note": 54, "velocity": 101, "channel": 0}, {"type": "note_on", "time": 7524, "note": 59, "velocity": 104, "channel": 0}, {"type": "note_off", "time": 4092, "note": 59, "velocity": 104, "channel": 0}, {"type": "note_on", "time": 4619, "note": 59, "velocity": 106, "channel": 0}, {"type": "note_off", "time": 8976, "note": 59, "velocity": 106, "channel": 0}, {"type": "note_on", "time": 3036, "note": 57, "velocity": 103, "channel": 0}, {"type": "note_off", "time": 3432, "note": 57, "velocity": 103, "channel": 0}, {"type": "note_on", "time": 528, "note": 58, "velocity": 92, "channel": 0}, {"type": "note_off", "time": 29304, "note": 58, "velocity": 92, "channel": 0}, {"type": "note_on", "time": 55044, "note": 53, "velocity": 108, "channel": 0}, {"type": "note_off", "time": 8448, "note": 53, "velocity": 108, "channel": 0}, {"type": "note_on", "time": 924, "note": 54, "velocity": 107, "channel": 0}, {"type": "note_off", "time": 10164, "note": 54, "velocity": 107, "channel": 0}, {"type": "note_on", "time": 1980, "note": 51, "velocity": 102, "channel": 0}, {"type": "note_off", "time": 6864, "note": 51, "velocity": 102, "channel": 0}, {"type": "note_on", "time": 1584, "note": 54, "velocity": 107, "channel": 0}, {"type": "note_off", "time": 6732, "note": 54, "velocity": 107, "channel": 0}, {"type": "note_on", "time": 1056, "note": 58, "velocity": 114, "channel": 0}, {"type": "note_off", "time": 10428, "note": 58, "velocity": 114, "channel": 0}, {"type": "note_on", "time": 924, "note": 54, "velocity": 94, "channel": 0}, {"type": "note_off", "time": 6996, "note": 54, "velocity": 94, "channel": 0}, {"type": "note_on", "time": 1056, "note": 58, "velocity": 112, "channel": 0}, {"type": "note_off", "time": 7524, "note": 58, "velocity": 112, "channel": 0}, {"type": "note_on", "time": 1320, "note": 61, "velocity": 104, "channel": 0}, {"type": "note_off", "time": 8844, "note": 61, "velocity": 104, "channel": 0}, {"type": "note_on", "time": 396, "note": 58, "velocity": 94, "channel": 0}, {"type": "note_off", "time": 6731, "note": 58, "velocity": 94, "channel": 0}, {"type": "note_on", "time": 2640, "note": 61, "velocity": 111, "channel": 0}, {"type": "note_off", "time": 7524, "note": 61, "velocity": 111, "channel": 0}, {"type": "note_on", "time": 4884, "note": 64, "velocity": 113, "channel": 0}, {"type": "note_off", "time": 2244, "note": 64, "velocity": 113, "channel": 0}, {"type": "note_on", "time": 660, "note": 65, "velocity": 118, "channel": 0}, {"type": "note_off", "time": 4224, "note": 65, "velocity": 118, "channel": 0}, {"type": "note_on", "time": 131, "note": 61, "velocity": 100, "channel": 0}, {"type": "note_off", "time": 6600, "note": 61, "velocity": 100, "channel": 0}, {"type": "note_on", "time": 528, "note": 65, "velocity": 125, "channel": 0}, {"type": "note_off", "time": 9768, "note": 65, "velocity": 125, "channel": 0}, {"type": "note_on", "time": 594, "note": 65, "velocity": 117, "channel": 0}, {"type": "note_off", "time": 3036, "note": 65, "velocity": 117, "channel": 0}, {"type": "note_on", "time": 330, "note": 68, "velocity": 89, "channel": 0}, {"type": "note_off", "time": 76824, "note": 68, "velocity": 89, "channel": 0}, {"type": "note_on", "time": 22176, "note": 66, "velocity": 115, "channel": 0}, {"type": "note_off", "time": 6864, "note": 66, "velocity": 115, "channel": 0}, {"type": "note_on", "time": 1583, "note": 64, "velocity": 122, "channel": 0}, {"type": "note_off", "time": 2640, "note": 64, "velocity": 122, "channel": 0}, {"type": "note_on", "time": 264, "note": 65, "velocity": 113, "channel": 0}, {"type": "note_off", "time": 4752, "note": 65, "velocity": 113, "channel": 0}, {"type": "note_on", "time": 1584, "note": 61, "velocity": 107, "channel": 0}, {"type": "note_off", "time": 6995, "note": 61, "velocity": 107, "channel": 0}, {"type": "note_on", "time": 3300, "note": 56, "velocity": 106, "channel": 0}, {"type": "note_off", "time": 3168, "note": 56, "velocity": 106, "channel": 0}, {"type": "note_on", "time": 395, "note": 61, "velocity": 96, "channel": 0}, {"type": "note_off", "time": 21780, "note": 61, "velocity": 96, "channel": 0}, {"type": "note_on", "time": 11088, "note": 59, "velocity": 113, "channel": 0}, {"type": "note_off", "time": 4752, "note": 59, "velocity": 113, "channel": 0}, {"type": "note_on", "time": 396, "note": 61, "velocity": 103, "channel": 0}, {"type": "note_off", "time": 20855, "note": 61, "velocity": 103, "channel": 0}, {"type": "note_on", "time": 1056, "note": 58, "velocity": 118, "channel": 0}, {"type": "note_off", "time": 4355, "note": 58, "velocity": 118, "channel": 0}, {"type": "note_on", "time": 1188, "note": 61, "velocity": 103, "channel": 0}, {"type": "note_off", "time": 20196, "note": 61, "velocity": 103, "channel": 0}, {"type": "note_on", "time": 1980, "note": 56, "velocity": 104, "channel": 0}, {"type": "note_off", "time": 6467, "note": 56, "velocity": 104, "channel": 0}, {"type": "note_on", "time": 24552, "note": 59, "velocity": 115, "channel": 0}, {"type": "note_off", "time": 6468, "note": 59, "velocity": 115, "channel": 0}, {"type": "note_on", "time": 396, "note": 56, "velocity": 100, "channel": 0}, {"type": "note_off", "time": 7524, "note": 56, "velocity": 100, "channel": 0}, {"type": "note_on", "time": 1848, "note": 59, "velocity": 104, "channel": 0}, {"type": "note_off", "time": 8184, "note": 59, "velocity": 104, "channel": 0}, {"type": "note_on", "time": 2376, "note": 56, "velocity": 102, "channel": 0}, {"type": "note_off", "time": 27060, "note": 56, "velocity": 102, "channel": 0}, {"type": "note_on", "time": 1979, "note": 54, "velocity": 109, "channel": 0}, {"type": "note_off", "time": 14388, "note": 54, "velocity": 109, "channel": 0}, {"type": "note_on", "time": 1847, "note": 52, "velocity": 108, "channel": 0}, {"type": "note_off", "time": 8052, "note": 52, "velocity": 108, "channel": 0}, {"type": "note_on", "time": 536, "note": 52, "velocity": 107, "channel": 0}, {"type": "note_off", "time": 4224, "note": 52, "velocity": 107, "channel": 0}, {"type": "note_on", "time": 915, "note": 53, "velocity": 91, "channel": 0}, {"type": "note_off", "time": 81708, "note": 53, "velocity": 91, "channel": 0}, {"type": "end_of_track", "time": 0}]]}