{"ticks_per_beat": 192, "tracks": [[{"type": "track_name", "name": "Melody", "time": 0}, {"type": "set_tempo", "tempo": 342857, "time": 0}, {"type": "key_signature", "key": "Db", "time": 0}, {"type": "time_signature", "numerator": 4, "denominator": 4, "clocks_per_click": 24, "notated_32nd_notes_per_beat": 8, "time": 0}, {"type": "note_on", "time": 2768, "note": 68, "velocity": 90, "channel": 0}, {"type": "note_off", "time": 93, "note": 68, "velocity": 90, "channel": 0}, {"type": "note_on", "time": 80, "note": 68, "velocity": 100, "channel": 0}, {"type": "note_off", "time": 92, "note": 68, "velocity": 100, "channel": 0}, {"type": "note_on", "time": 89, "note": 68, "velocity": 92, "channel": 0}, {"type": "note_off", "time": 99, "note": 68, "velocity": 92, "channel": 0}, {"type": "note_on", "time": 91, "note": 68, "velocity": 89, "channel": 0}, {"type": "note_off", "time": 123, "note": 68, "velocity": 89, "channel": 0}, {"type": "note_on", "time": 92, "note": 68, "velocity": 90, "channel": 0}, {"type": "note_off", "time": 178, "note": 68, "velocity": 90, "channel": 0}, {"type": "note_on", "time": 86, "note": 64, "velocity": 81, "channel": 0}, {"type": "note_off", "time": 159, "note": 64, "velocity": 81, "channel": 0}, {"type": "note_on", "time": 21, "note": 65, "velocity": 79, "channel": 0}, {"type": "note_off", "time": 195, "note": 65, "velocity": 79, "channel": 0}, {"type": "note_on", "time": 110, "note": 70, "velocity": 113, "channel": 0}, {"type": "note_off", "time": 57, "note": 70, "velocity": 113, "channel": 0}, {"type": "note_on", "time": 42, "note": 68, "velocity": 101, "channel": 0}, {"type": "note_off", "time": 99, "note": 68, "velocity": 101, "channel": 0}, {"type": "note_on", "time": 67, "note": 64, "velocity": 96, "channel": 0}, {"type": "note_off", "time": 93, "note": 64, "velocity": 96, "channel": 0}, {"type": "note_on", "time": 32, "note": 65, "velocity": 83, "channel": 0}, {"type": "note_off", "time": 210, "note": 65, "velocity": 83, "channel": 0}, {"type": "note_on", "time": 156, "note": 70, "velocity": 104, "channel": 0}, {"type": "note_off", "time": 57, "note": 70, "velocity": 104, "channel": 0}, {"type": "note_on", "time": 16, "note": 68, "velocity": 96, "channel": 0}, {"type": "note_off", "time": 97, "note": 68, "velocity": 96, "channel": 0}, {"type": "note_on", "time": 106, "note": 64, "velocity": 95, "channel": 0}, {"type": "note_off", "time": 99, "note": 64, "velocity": 95, "channel": 0}, {"type": "note_on", "time": 73, "note": 65, "velocity": 83, "channel": 0}, {"type": "note_off", "time": 227, "note": 65, "velocity": 83, "channel": 0}, {"type": "note_on", "time": 97, "note": 70, "velocity": 102, "channel": 0}, {"type": "note_off", "time": 41, "note": 70, "velocity": 102, "channel": 0}, {"type": "note_on", "time": 20, "note": 73, "velocity": 103, "channel": 0}, {"type": "note_off", "time": 122, "note": 73, "velocity": 103, "channel": 0}, {"type": "note_on", "time": 67, "note": 70, "velocity": 101, "channel": 0}, {"type": "note_off", "time": 90, "note": 70, "velocity": 101, "channel": 0}, {"type": "note_on", "time": 35, "note": 68, "velocity": 81, "channel": 0}, {"type": "note_off", "time": 219, "note": 68, "velocity": 81, "channel": 0}, {"type": "note_on", "time": 615, "note": 68, "velocity": 113, "channel": 0}, {"type": "note_off", "time": 94, "note": 68, "velocity": 113, "channel": 0}, {"type": "note_on", "time": 16, "note": 70, "velocity": 106, "channel": 0}, {"type": "note_off", "time": 58, "note": 70, "velocity": 106, "channel": 0}, {"type": "note_on", "time": 8, "note": 73, "velocity": 120, "channel": 0}, {"type": "note_off", "time": 77, "note": 73, "velocity": 120, "channel": 0}, {"type": "note_on", "time": 25, "note": 75, "velocity": 113, "channel": 0}, {"type": "note_off", "time": 72, "note": 75, "velocity": 113, "channel": 0}, {"type": "note_on", "time": 9, "note": 76, "velocity": 116, "channel": 0}, {"type": "note_off", "time": 110, "note": 76, "velocity": 116, "channel": 0}, {"type": "note_on", "time": 11, "note": 77, "velocity": 101, "channel": 0}, {"type": "note_off", "time": 66, "note": 77, "velocity": 101, "channel": 0}, {"type": "note_on", "time": 9, "note": 70, "velocity": 99, "channel": 0}, {"type": "note_off", "time": 108, "note": 70, "velocity": 99, "channel": 0}, {"type": "note_on", "time": 78, "note": 73, "velocity": 115, "channel": 0}, {"type": "note_off", "time": 94, "note": 73, "velocity": 115, "channel": 0}, {"type": "note_on", "time": 14, "note": 70, "velocity": 103, "channel": 0}, {"type": "note_off", "time": 46, "note": 70, "velocity": 103, "channel": 0}, {"type": "note_on", "time": 14, "note": 69, "velocity": 97, "channel": 0}, {"type": "note_off", "time": 112, "note": 69, "velocity": 97, "channel": 0}, {"type": "note_on", "time": 32, "note": 68, "velocity": 91, "channel": 0}, {"type": "note_off", "time": 188, "note": 68, "velocity": 91, "channel": 0}, {"type": "note_on", "time": 84, "note": 64, "velocity": 83, "channel": 0}, {"type": "note_off", "time": 140, "note": 64, "velocity": 83, "channel": 0}, {"type": "note_on", "time": 38, "note": 65, "velocity": 91, "channel": 0}, {"type": "note_off", "time": 86, "note": 65, "velocity": 91, "channel": 0}, {"type": "note_on", "time": 26, "note": 58, "velocity": 85, "channel": 0}, {"type": "note_off", "time": 45, "note": 58, "velocity": 85, "channel": 0}, {"type": "note_on", "time": 11, "note": 61, "velocity": 90, "channel": 0}, {"type": "note_off", "time": 97, "note": 61, "velocity": 90, "channel": 0}, {"type": "note_on", "time": 33, "note": 65, "velocity": 88, "channel": 0}, {"type": "note_off", "time": 52, "note": 65, "velocity": 88, "channel": 0}, {"type": "note_on", "time": 1, "note": 68, "velocity": 98, "channel": 0}, {"type": "note_off", "time": 126, "note": 68, "velocity": 98, "channel": 0}, {"type": "note_on", "time": 14, "note": 70, "velocity": 84, "channel": 0}, {"type": "note_off", "time": 189, "note": 70, "velocity": 84, "channel": 0}, {"type": "note_on", "time": 576, "note": 65, "velocity": 106, "channel": 0}, {"type": "note_off", "time": 49, "note": 65, "velocity": 106, "channel": 0}, {"type": "note_on", "time": 18, "note": 68, "velocity": 116, "channel": 0}, {"type": "note_off", "time": 150, "note": 68, "velocity": 116, "channel": 0}, {"type": "note_on", "time": 43, "note": 71, "velocity": 120, "channel": 0}, {"type": "note_off", "time": 94, "note": 71, "velocity": 120, "channel": 0}, {"type": "note_on", "time": 7, "note": 73, "velocity": 123, "channel": 0}, {"type": "note_off", "time": 66, "note": 73, "velocity": 123, "channel": 0}, {"type": "note_on", "time": 16, "note": 71, "velocity": 119, "channel": 0}, {"type": "note_off", "time": 91, "note": 71, "velocity": 119, "channel": 0}, {"type": "note_on", "time": 8, "note": 73, "velocity": 113, "channel": 0}, {"type": "note_off", "time": 78, "note": 73, "velocity": 113, "channel": 0}, {"type": "note_on", "time": 20, "note": 71, "velocity": 116, "channel": 0}, {"type": "note_off", "time": 89, "note": 71, "velocity": 116, "channel": 0}, {"type": "note_on", "time": 93, "note": 70, "velocity": 93, "channel": 0}, {"type": "note_off", "time": 389, "note": 70, "velocity": 93, "channel": 0}, {"type": "note_on", "time": 298, "note": 65, "velocity": 105, "channel": 0}, {"type": "note_off", "time": 49, "note": 65, "velocity": 105, "channel": 0}, {"type": "note_on", "time": 10, "note": 68, "velocity": 119, "channel": 0}, {"type": "note_off", "time": 95, "note": 68, "velocity": 119, "channel": 0}, {"type": "note_on", "time": 95, "note": 71, "velocity": 120, "channel": 0}, {"type": "note_off", "time": 102, "note": 71, "velocity": 120, "channel": 0}, {"type": "note_on", "time": 4, "note": 73, "velocity": 122, "channel": 0}, {"type": "note_off", "time": 80, "note": 73, "velocity": 122, "channel": 0}, {"type": "note_on", "time": 7, "note": 71, "velocity": 116, "channel": 0}, {"type": "note_off", "time": 97, "note": 71, "velocity": 116, "channel": 0}, {"type": "note_on", "time": 10, "note": 73, "velocity": 112, "channel": 0}, {"type": "note_off", "time": 72, "note": 73, "velocity": 112, "channel": 0}, {"type": "note_on", "time": 18, "note": 70, "velocity": 101, "channel": 0}, {"type": "note_off", "time": 62, "note": 70, "velocity": 101, "channel": 0}, {"type": "note_on", "time": 6, "note": 71, "velocity": 103, "channel": 0}, {"type": "note_off", "time": 86, "note": 71, "velocity": 103, "channel": 0}, {"type": "note_on", "time": 19, "note": 70, "velocity": 97, "channel": 0}, {"type": "note_off", "time": 107, "note": 70, "velocity": 97, "channel": 0}, {"type": "note_on", "time": 25, "note": 68, "velocity": 88, "channel": 0}, {"type": "note_off", "time": 270, "note": 68, "velocity": 88, "channel": 0}, {"type": "note_on", "time": 282, "note": 65, "velocity": 100, "channel": 0}, {"type": "note_off", "time": 67, "note": 65, "velocity": 100, "channel": 0}, {"type": "note_on", "time": 13, "note": 68, "velocity": 116, "channel": 0}, {"type": "note_off", "time": 109, "note": 68, "velocity": 116, "channel": 0}, {"type": "note_on", "time": 78, "note": 73, "velocity": 94, "channel": 0}, {"type": "note_off", "time": 205, "note": 73, "velocity": 94, "channel": 0}, {"type": "note_on", "time": 118, "note": 71, "velocity": 108, "channel": 0}, {"type": "note_off", "time": 49, "note": 71, "velocity": 108, "channel": 0}, {"type": "note_on", "time": 14, "note": 70, "velocity": 102, "channel": 0}, {"type": "note_off", "time": 109, "note": 70, "velocity": 102, "channel": 0}, {"type": "note_on", "time": 11, "note": 68, "velocity": 91, "channel": 0}, {"type": "note_off", "time": 41, "note": 68, "velocity": 91, "channel": 0}, {"type": "note_on", "time": 49, "note": 64, "velocity": 84, "channel": 0}, {"type": "note_off", "time": 104, "note": 64, "velocity": 84, "channel": 0}, {"type": "note_on", "time": 51, "note": 65, "velocity": 91, "channel": 0}, {"type": "note_off", "time": 97, "note": 65, "velocity": 91, "channel": 0}, {"type": "note_on", "time": 16, "note": 68, "velocity": 106, "channel": 0}, {"type": "note_off", "time": 59, "note": 68, "velocity": 106, "channel": 0}, {"type": "note_on", "time": 13, "note": 70, "velocity": 104, "channel": 0}, {"type": "note_off", "time": 94, "note": 70, "velocity": 104, "channel": 0}, {"type": "note_on", "time": 8, "note": 71, "velocity": 86, "channel": 0}, {"type": "note_off", "time": 29, "note": 71, "velocity": 86, "channel": 0}, {"type": "note_on", "time": 6, "note": 70, "velocity": 97, "channel": 0}, {"type": "note_off", "time": 43, "note": 70, "velocity": 97, "channel": 0}, {"type": "note_on", "time": 12, "note": 68, "velocity": 98, "channel": 0}, {"type": "note_off", "time": 108, "note": 68, "velocity": 98, "channel": 0}, {"type": "note_on", "time": 17, "note": 61, "velocity": 89, "channel": 0}, {"type": "note_off", "time": 239, "note": 61, "velocity": 89, "channel": 0}, {"type": "note_on", "time": 20, "note": 64, "velocity": 103, "channel": 0}, {"type": "note_off", "time": 32, "note": 64, "velocity": 103, "channel": 0}, {"type": "note_on", "time": 3, "note": 65, "velocity": 97, "channel": 0}, {"type": "note_off", "time": 75, "note": 65, "velocity": 97, "channel": 0}, {"type": "note_on", "time": 2, "note": 68, "velocity": 98, "channel": 0}, {"type": "note_off", "time": 230, "note": 68, "velocity": 98, "channel": 0}, {"type": "note_on", "time": 17, "note": 70, "velocity": 105, "channel": 0}, {"type": "note_off", "time": 114, "note": 70, "velocity": 105, "channel": 0}, {"type": "note_on", "time": 17, "note": 73, "velocity": 123, "channel": 0}, {"type": "note_off", "time": 68, "note": 73, "velocity": 123, "channel": 0}, {"type": "note_on", "time": 114, "note": 73, "velocity": 90, "channel": 0}, {"type": "note_off", "time": 233, "note": 73, "velocity": 90, "channel": 0}, {"type": "note_on", "time": 223, "note": 71, "velocity": 116, "channel": 0}, {"type": "note_off", "time": 57, "note": 71, "velocity": 116, "channel": 0}, {"type": "note_on", "time": 9, "note": 72, "velocity": 116, "channel": 0}, {"type": "note_off", "time": 251, "note": 72, "velocity": 116, "channel": 0}, {"type": "note_on", "time": 42, "note": 72, "velocity": 111, "channel": 0}, {"type": "note_off", "time": 141, "note": 72, "velocity": 111, "channel": 0}, {"type": "note_on", "time": 10, "note": 68, "velocity": 88, "channel": 0}, {"type": "note_off", "time": 40, "note": 68, "velocity": 88, "channel": 0}, {"type": "note_on", "time": 129, "note": 72, "velocity": 109, "channel": 0}, {"type": "note_off", "time": 52, "note": 72, "velocity": 109, "channel": 0}, {"type": "note_on", "time": 9, "note": 74, "velocity": 108, "channel": 0}, {"type": "note_off", "time": 115, "note": 74, "velocity": 108, "channel": 0}, {"type": "note_on", "time": 5, "note": 72, "velocity": 106, "channel": 0}, {"type": "note_off", "time": 62, "note": 72, "velocity": 106, "channel": 0}, {"type": "note_on", "time": 16, "note": 70, "velocity": 107, "channel": 0}, {"type": "note_off", "time": 90, "note": 70, "velocity": 107, "channel": 0}, {"type": "note_on", "time": 42, "note": 68, "velocity": 105, "channel": 0}, {"type": "note_off", "time": 93, "note": 68, "velocity": 105, "channel": 0}, {"type": "note_on", "time": 91, "note": 67, "velocity": 110, "channel": 0}, {"type": "note_off", "time": 229, "note": 67, "velocity": 110, "channel": 0}, {"type": "note_on", "time": 28, "note": 68, "velocity": 102, "channel": 0}, {"type": "note_off", "time": 88, "note": 68, "velocity": 102, "channel": 0}, {"type": "note_on", "time": 17, "note": 69, "velocity": 102, "channel": 0}, {"type": "note_off", "time": 56, "note": 69, "velocity": 102, "channel": 0}, {"type": "note_on", "time": 16, "note": 68, "velocity": 103, "channel": 0}, {"type": "note_off", "time": 84, "note": 68, "velocity": 103, "channel": 0}, {"type": "note_on", "time": 33, "note": 69, "velocity": 92, "channel": 0}, {"type": "note_off", "time": 57, "note": 69, "velocity": 92, "channel": 0}, {"type": "note_on", "time": 5, "note": 67, "velocity": 90, "channel": 0}, {"type": "note_off", "time": 91, "note": 67, "velocity": 90, "channel": 0}, {"type": "note_on", "time": 37, "note": 60, "velocity": 83, "channel": 0}, {"type": "note_off", "time": 48, "note": 60, "velocity": 83, "channel": 0}, {"type": "note_on", "time": 41, "note": 63, "velocity": 88, "channel": 0}, {"type": "note_off", "time": 80, "note": 63, "velocity": 88, "channel": 0}, {"type": "note_on", "time": 30, "note": 67, "velocity": 97, "channel": 0}, {"type": "note_off", "time": 58, "note": 67, "velocity": 97, "channel": 0}, {"type": "note_on", "time": 29, "note": 72, "velocity": 105, "channel": 0}, {"type": "note_off", "time": 81, "note": 72, "velocity": 105, "channel": 0}, {"type": "note_on", "time": 35, "note": 72, "velocity": 111, "channel": 0}, {"type": "note_off", "time": 85, "note": 72, "velocity": 111, "channel": 0}, {"type": "note_on", "time": 73, "note": 72, "velocity": 87, "channel": 0}, {"type": "note_off", "time": 292, "note": 72, "velocity": 87, "channel": 0}, {"type": "note_on", "time": 553, "note": 76, "velocity": 119, "channel": 0}, {"type": "note_off", "time": 89, "note": 76, "velocity": 119, "channel": 0}, {"type": "note_on", "time": 8, "note": 77, "velocity": 124, "channel": 0}, {"type": "note_off", "time": 137, "note": 77, "velocity": 124, "channel": 0}, {"type": "note_on", "time": 73, "note": 70, "velocity": 97, "channel": 0}, {"type": "note_off", "time": 72, "note": 70, "velocity": 97, "channel": 0}, {"type": "note_on", "time": 21, "note": 72, "velocity": 98, "channel": 0}, {"type": "note_off", "time": 89, "note": 72, "velocity": 98, "channel": 0}, {"type": "note_on", "time": 13, "note": 74, "velocity": 106, "channel": 0}, {"type": "note_off", "time": 62, "note": 74, "velocity": 106, "channel": 0}, {"type": "note_on", "time": 3, "note": 79, "velocity": 98, "channel": 0}, {"type": "note_off", "time": 32, "note": 79, "velocity": 98, "channel": 0}, {"type": "note_on", "time": 3, "note": 77, "velocity": 103, "channel": 0}, {"type": "note_off", "time": 84, "note": 77, "velocity": 103, "channel": 0}, {"type": "note_on", "time": 24, "note": 72, "velocity": 116, "channel": 0}, {"type": "note_off", "time": 92, "note": 72, "velocity": 116, "channel": 0}, {"type": "note_on", "time": 84, "note": 70, "velocity": 81, "channel": 0}, {"type": "note_off", "time": 180, "note": 70, "velocity": 81, "channel": 0}, {"type": "note_on", "time": 274, "note": 70, "velocity": 112, "channel": 0}, {"type": "note_off", "time": 101, "note": 70, "velocity": 112, "channel": 0}, {"type": "note_on", "time": 27, "note": 72, "velocity": 120, "channel": 0}, {"type": "note_off", "time": 58, "note": 72, "velocity": 120, "channel": 0}, {"type": "note_on", "time": 5, "note": 75, "velocity": 121, "channel": 0}, {"type": "note_off", "time": 109, "note": 75, "velocity": 121, "channel": 0}, {"type": "note_on", "time": 18, "note": 72, "velocity": 103, "channel": 0}, {"type": "note_off", "time": 53, "note": 72, "velocity": 103, "channel": 0}, {"type": "note_on", "time": 13, "note": 75, "velocity": 125, "channel": 0}, {"type": "note_off", "time": 102, "note": 75, "velocity": 125, "channel": 0}, {"type": "note_on", "time": 19, "note": 75, "velocity": 112, "channel": 0}, {"type": "note_off", "time": 66, "note": 75, "velocity": 112, "channel": 0}, {"type": "note_on", "time": 8, "note": 80, "velocity": 127, "channel": 0}, {"type": "note_off", "time": 115, "note": 80, "velocity": 127, "channel": 0}, {"type": "note_on", "time": 67, "note": 68, "velocity": 101, "channel": 0}, {"type": "note_off", "time": 107, "note": 68, "velocity": 101, "channel": 0}, {"type": "note_on", "time": 20, "note": 70, "velocity": 86, "channel": 0}, {"type": "note_off", "time": 248, "note": 70, "velocity": 86, "channel": 0}, {"type": "note_on", "time": 333, "note": 80, "velocity": 85, "channel": 0}, {"type": "note_off", "time": 1009, "note": 80, "velocity": 85, "channel": 0}, {"type": "note_on", "time": 54, "note": 70, "velocity": 121, "channel": 0}, {"type": "note_off", "time": 133, "note": 70, "velocity": 121, "channel": 0}, {"type": "note_on", "time": 12, "note": 64, "velocity": 99, "channel": 0}, {"type": "note_off", "time": 46, "note": 64, "velocity": 99, "channel": 0}, {"type": "note_on", "time": 6, "note": 65, "velocity": 94, "channel": 0}, {"type": "note_off", "time": 102, "note": 65, "velocity": 94, "channel": 0}, {"type": "note_on", "time": 37, "note": 72, "velocity": 77, "channel": 0}, {"type": "note_off", "time": 37, "note": 72, "velocity": 77, "channel": 0}, {"type": "note_on", "time": 7, "note": 73, "velocity": 124, "channel": 0}, {"type": "note_off", "time": 94, "note": 73, "velocity": 124, "channel": 0}, {"type": "note_on", "time": 14, "note": 75, "velocity": 111, "channel": 0}, {"type": "note_off", "time": 67, "note": 75, "velocity": 111, "channel": 0}, {"type": "note_on", "time": 13, "note": 76, "velocity": 115, "channel": 0}, {"type": "note_off", "time": 74, "note": 76, "velocity": 115, "channel": 0}, {"type": "note_on", "time": 16, "note": 77, "velocity": 109, "channel": 0}, {"type": "note_off", "time": 98, "note": 77, "velocity": 109, "channel": 0}, {"type": "note_on", "time": 27, "note": 73, "velocity": 113, "channel": 0}, {"type": "note_off", "time": 81, "note": 73, "velocity": 113, "channel": 0}, {"type": "note_on", "time": 21, "note": 70, "velocity": 99, "channel": 0}, {"type": "note_off", "time": 49, "note": 70, "velocity": 99, "channel": 0}, {"type": "note_on", "time": 12, "note": 69, "velocity": 87, "channel": 0}, {"type": "note_off", "time": 81, "note": 69, "velocity": 87, "channel": 0}, {"type": "note_on", "time": 38, "note": 68, "velocity": 90, "channel": 0}, {"type": "note_off", "time": 250, "note": 68, "velocity": 90, "channel": 0}, {"type": "note_on", "time": 41, "note": 64, "velocity": 98, "channel": 0}, {"type": "note_off", "time": 114, "note": 64, "velocity": 98, "channel": 0}, {"type": "note_on", "time": 58, "note": 65, "velocity": 105, "channel": 0}, {"type": "note_off", "time": 84, "note": 65, "velocity": 105, "channel": 0}, {"type": "note_on", "time": 42, "note": 68, "velocity": 100, "channel": 0}, {"type": "note_off", "time": 57, "note": 68, "velocity": 100, "channel": 0}, {"type": "note_on", "time": 22, "note": 65, "velocity": 95, "channel": 0}, {"type": "note_off", "time": 64, "note": 65, "velocity": 95, "channel": 0}, {"type": "note_on", "time": 18, "note": 63, "velocity": 90, "channel": 0}, {"type": "note_off", "time": 56, "note": 63, "velocity": 90, "channel": 0}, {"type": "note_on", "time": 11, "note": 61, "velocity": 90, "channel": 0}, {"type": "note_off", "time": 138, "note": 61, "velocity": 90, "channel": 0}, {"type": "note_on", "time": 12, "note": 56, "velocity": 89, "channel": 0}, {"type": "note_off", "time": 60, "note": 56, "velocity": 89, "channel": 0}, {"type": "note_on", "time": 118, "note": 64, "velocity": 102, "channel": 0}, {"type": "note_off", "time": 53, "note": 64, "velocity": 102, "channel": 0}, {"type": "note_on", "time": 12, "note": 65, "velocity": 108, "channel": 0}, {"type": "note_off", "time": 120, "note": 65, "velocity": 108, "channel": 0}, {"type": "note_on", "time": 2, "note": 68, "velocity": 93, "channel": 0}, {"type": "note_off", "time": 52, "note": 68, "velocity": 93, "channel": 0}, {"type": "note_on", "time": 22, "note": 70, "velocity": 113, "channel": 0}, {"type": "note_off", "time": 93, "note": 70, "velocity": 113, "channel": 0}, {"type": "note_on", "time": 13, "note": 73, "velocity": 121, "channel": 0}, {"type": "note_off", "time": 70, "note": 73, "velocity": 121, "channel": 0}, {"type": "note_on", "time": 12, "note": 76, "velocity": 126, "channel": 0}, {"type": "note_off", "time": 88, "note": 76, "velocity": 126, "channel": 0}, {"type": "note_on", "time": 53, "note": 76, "velocity": 120, "channel": 0}, {"type": "note_off", "time": 116, "note": 76, "velocity": 120, "channel": 0}, {"type": "note_on", "time": 45, "note": 76, "velocity": 120, "channel": 0}, {"type": "note_off", "time": 247, "note": 76, "velocity": 120, "channel": 0}, {"type": "note_on", "time": 16, "note": 75, "velocity": 118, "channel": 0}, {"type": "note_off", "time": 112, "note": 75, "velocity": 118, "channel": 0}, {"type": "note_on", "time": 90, "note": 73, "velocity": 123, "channel": 0}, {"type": "note_off", "time": 94, "note": 73, "velocity": 123, "channel": 0}, {"type": "note_on", "time": 18, "note": 70, "velocity": 97, "channel": 0}, {"type": "note_off", "time": 55, "note": 70, "velocity": 97, "channel": 0}, {"type": "note_on", "time": 17, "note": 73, "velocity": 116, "channel": 0}, {"type": "note_off", "time": 100, "note": 73, "velocity": 116, "channel": 0}, {"type": "note_on", "time": 27, "note": 73, "velocity": 113, "channel": 0}, {"type": "note_off", "time": 50, "note": 73, "velocity": 113, "channel": 0}, {"type": "note_on", "time": 19, "note": 73, "velocity": 109, "channel": 0}, {"type": "note_off", "time": 102, "note": 73, "velocity": 109, "channel": 0}, {"type": "note_on", "time": 33, "note": 70, "velocity": 103, "channel": 0}, {"type": "note_off", "time": 43, "note": 70, "velocity": 103, "channel": 0}, {"type": "note_on", "time": 60, "note": 64, "velocity": 98, "channel": 0}, {"type": "note_off", "time": 82, "note": 64, "velocity": 98, "channel": 0}, {"type": "note_on", "time": 66, "note": 65, "velocity": 94, "channel": 0}, {"type": "note_off", "time": 100, "note": 65, "velocity": 94, "channel": 0}, {"type": "note_on", "time": 16, "note": 68, "velocity": 97, "channel": 0}, {"type": "note_off", "time": 41, "note": 68, "velocity": 97, "channel": 0}, {"type": "note_on", "time": 37, "note": 73, "velocity": 118, "channel": 0}, {"type": "note_off", "time": 106, "note": 73, "velocity": 118, "channel": 0}, {"type": "note_on", "time": 9, "note": 76, "velocity": 103, "channel": 0}, {"type": "note_off", "time": 30, "note": 76, "velocity": 103, "channel": 0}, {"type": "note_on", "time": 3, "note": 73, "velocity": 96, "channel": 0}, {"type": "note_off", "time": 143, "note": 73, "velocity": 96, "channel": 0}, {"type": "note_on", "time": 25, "note": 68, "velocity": 83, "channel": 0}, {"type": "note_off", "time": 53, "note": 68, "velocity": 83, "channel": 0}, {"type": "end_of_track", "time": 0}]]}