{"ticks_per_beat": 192, "tracks": [[{"type": "track_name", "name": "Melody", "time": 0}, {"type": "set_tempo", "tempo": 259740, "time": 0}, {"type": "key_signature", "key": "Eb", "time": 0}, {"type": "time_signature", "numerator": 4, "denominator": 4, "clocks_per_click": 24, "notated_32nd_notes_per_beat": 8, "time": 0}, {"type": "note_on", "time": 3325, "note": 68, "velocity": 102, "channel": 0}, {"type": "note_off", "time": 94, "note": 68, "velocity": 102, "channel": 0}, {"type": "note_on", "time": 49, "note": 67, "velocity": 103, "channel": 0}, {"type": "note_off", "time": 105, "note": 67, "velocity": 103, "channel": 0}, {"type": "note_on", "time": 135, "note": 73, "velocity": 127, "channel": 0}, {"type": "note_off", "time": 60, "note": 73, "velocity": 127, "channel": 0}, {"type": "note_on", "time": 12, "note": 74, "velocity": 126, "channel": 0}, {"type": "note_off", "time": 111, "note": 74, "velocity": 126, "channel": 0}, {"type": "note_on", "time": 129, "note": 72, "velocity": 96, "channel": 0}, {"type": "note_off", "time": 212, "note": 72, "velocity": 96, "channel": 0}, {"type": "note_on", "time": 23, "note": 72, "velocity": 98, "channel": 0}, {"type": "note_off", "time": 87, "note": 72, "velocity": 98, "channel": 0}, {"type": "note_on", "time": 145, "note": 70, "velocity": 89, "channel": 0}, {"type": "note_off", "time": 40, "note": 70, "velocity": 89, "channel": 0}, {"type": "note_on", "time": 10, "note": 71, "velocity": 97, "channel": 0}, {"type": "note_off", "time": 105, "note": 71, "velocity": 97, "channel": 0}, {"type": "note_on", "time": 139, "note": 70, "velocity": 92, "channel": 0}, {"type": "note_off", "time": 225, "note": 70, "velocity": 92, "channel": 0}, {"type": "note_on", "time": 38, "note": 70, "velocity": 94, "channel": 0}, {"type": "note_off", "time": 62, "note": 70, "velocity": 94, "channel": 0}, {"type": "note_on", "time": 122, "note": 69, "velocity": 111, "channel": 0}, {"type": "note_off", "time": 64, "note": 69, "velocity": 111, "channel": 0}, {"type": "note_on", "time": 118, "note": 68, "velocity": 104, "channel": 0}, {"type": "note_off", "time": 55, "note": 68, "velocity": 104, "channel": 0}, {"type": "note_on", "time": 135, "note": 67, "velocity": 109, "channel": 0}, {"type": "note_off", "time": 77, "note": 67, "velocity": 109, "channel": 0}, {"type": "note_on", "time": 48, "note": 72, "velocity": 104, "channel": 0}, {"type": "note_off", "time": 75, "note": 72, "velocity": 104, "channel": 0}, {"type": "note_on", "time": 72, "note": 67, "velocity": 99, "channel": 0}, {"type": "note_off", "time": 55, "note": 67, "velocity": 99, "channel": 0}, {"type": "note_on", "time": 13, "note": 66, "velocity": 88, "channel": 0}, {"type": "note_off", "time": 40, "note": 66, "velocity": 88, "channel": 0}, {"type": "note_on", "time": 16, "note": 65, "velocity": 99, "channel": 0}, {"type": "note_off", "time": 79, "note": 65, "velocity": 99, "channel": 0}, {"type": "note_on", "time": 15, "note": 64, "velocity": 94, "channel": 0}, {"type": "note_off", "time": 48, "note": 64, "velocity": 94, "channel": 0}, {"type": "note_on", "time": 21, "note": 63, "velocity": 107, "channel": 0}, {"type": "note_off", "time": 122, "note": 63, "velocity": 107, "channel": 0}, {"type": "note_on", "time": 39, "note": 60, "velocity": 87, "channel": 0}, {"type": "note_off", "time": 289, "note": 60, "velocity": 87, "channel": 0}, {"type": "note_on", "time": 509, "note": 72, "velocity": 109, "channel": 0}, {"type": "note_off", "time": 72, "note": 72, "velocity": 109, "channel": 0}, {"type": "note_on", "time": 10, "note": 71, "velocity": 87, "channel": 0}, {"type": "note_off", "time": 82, "note": 71, "velocity": 87, "channel": 0}, {"type": "note_on", "time": 12, "note": 72, "velocity": 107, "channel": 0}, {"type": "note_off", "time": 87, "note": 72, "velocity": 107, "channel": 0}, {"type": "note_on", "time": 126, "note": 72, "velocity": 105, "channel": 0}, {"type": "note_off", "time": 107, "note": 72, "velocity": 105, "channel": 0}, {"type": "note_on", "time": 7, "note": 71, "velocity": 97, "channel": 0}, {"type": "note_off", "time": 60, "note": 71, "velocity": 97, "channel": 0}, {"type": "note_on", "time": 19, "note": 72, "velocity": 111, "channel": 0}, {"type": "note_off", "time": 72, "note": 72, "velocity": 111, "channel": 0}, {"type": "note_on", "time": 120, "note": 72, "velocity": 101, "channel": 0}, {"type": "note_off", "time": 85, "note": 72, "velocity": 101, "channel": 0}, {"type": "note_on", "time": 25, "note": 71, "velocity": 98, "channel": 0}, {"type": "note_off", "time": 57, "note": 71, "velocity": 98, "channel": 0}, {"type": "note_on", "time": 7, "note": 72, "velocity": 108, "channel": 0}, {"type": "note_off", "time": 72, "note": 72, "velocity": 108, "channel": 0}, {"type": "note_on", "time": 149, "note": 72, "velocity": 110, "channel": 0}, {"type": "note_off", "time": 87, "note": 72, "velocity": 110, "channel": 0}, {"type": "note_on", "time": 42, "note": 67, "velocity": 103, "channel": 0}, {"type": "note_off", "time": 60, "note": 67, "velocity": 103, "channel": 0}, {"type": "note_on", "time": 137, "note": 67, "velocity": 90, "channel": 0}, {"type": "note_off", "time": 285, "note": 67, "velocity": 90, "channel": 0}, {"type": "note_on", "time": 653, "note": 67, "velocity": 108, "channel": 0}, {"type": "note_off", "time": 57, "note": 67, "velocity": 108, "channel": 0}, {"type": "note_on", "time": 30, "note": 72, "velocity": 115, "channel": 0}, {"type": "note_off", "time": 61, "note": 72, "velocity": 115, "channel": 0}, {"type": "note_on", "time": 31, "note": 75, "velocity": 118, "channel": 0}, {"type": "note_off", "time": 64, "note": 75, "velocity": 118, "channel": 0}, {"type": "note_on", "time": 15, "note": 79, "velocity": 113, "channel": 0}, {"type": "note_off", "time": 85, "note": 79, "velocity": 113, "channel": 0}, {"type": "note_on", "time": 93, "note": 79, "velocity": 104, "channel": 0}, {"type": "note_off", "time": 95, "note": 79, "velocity": 104, "channel": 0}, {"type": "note_on", "time": 116, "note": 79, "velocity": 105, "channel": 0}, {"type": "note_off", "time": 90, "note": 79, "velocity": 105, "channel": 0}, {"type": "note_on", "time": 39, "note": 78, "velocity": 89, "channel": 0}, {"type": "note_off", "time": 54, "note": 78, "velocity": 89, "channel": 0}, {"type": "note_on", "time": 16, "note": 77, "velocity": 106, "channel": 0}, {"type": "note_off", "time": 63, "note": 77, "velocity": 106, "channel": 0}, {"type": "note_on", "time": 31, "note": 76, "velocity": 116, "channel": 0}, {"type": "note_off", "time": 76, "note": 76, "velocity": 116, "channel": 0}, {"type": "note_on", "time": 27, "note": 75, "velocity": 107, "channel": 0}, {"type": "note_off", "time": 104, "note": 75, "velocity": 107, "channel": 0}, {"type": "note_on", "time": 30, "note": 74, "velocity": 101, "channel": 0}, {"type": "note_off", "time": 102, "note": 74, "velocity": 101, "channel": 0}, {"type": "note_on", "time": 57, "note": 74, "velocity": 103, "channel": 0}, {"type": "note_off", "time": 257, "note": 74, "velocity": 103, "channel": 0}, {"type": "note_on", "time": 15, "note": 72, "velocity": 101, "channel": 0}, {"type": "note_off", "time": 84, "note": 72, "velocity": 101, "channel": 0}, {"type": "note_on", "time": 21, "note": 71, "velocity": 84, "channel": 0}, {"type": "note_off", "time": 45, "note": 71, "velocity": 84, "channel": 0}, {"type": "note_on", "time": 13, "note": 72, "velocity": 99, "channel": 0}, {"type": "note_off", "time": 76, "note": 72, "velocity": 99, "channel": 0}, {"type": "note_on", "time": 129, "note": 72, "velocity": 99, "channel": 0}, {"type": "note_off", "time": 75, "note": 72, "velocity": 99, "channel": 0}, {"type": "note_on", "time": 119, "note": 72, "velocity": 103, "channel": 0}, {"type": "note_off", "time": 90, "note": 72, "velocity": 103, "channel": 0}, {"type": "note_on", "time": 18, "note": 71, "velocity": 88, "channel": 0}, {"type": "note_off", "time": 89, "note": 71, "velocity": 88, "channel": 0}, {"type": "note_on", "time": 16, "note": 70, "velocity": 77, "channel": 0}, {"type": "note_off", "time": 52, "note": 70, "velocity": 77, "channel": 0}, {"type": "note_on", "time": 34, "note": 69, "velocity": 87, "channel": 0}, {"type": "note_off", "time": 72, "note": 69, "velocity": 87, "channel": 0}, {"type": "note_on", "time": 18, "note": 68, "velocity": 96, "channel": 0}, {"type": "note_off", "time": 49, "note": 68, "velocity": 96, "channel": 0}, {"type": "note_on", "time": 52, "note": 67, "velocity": 100, "channel": 0}, {"type": "note_off", "time": 76, "note": 67, "velocity": 100, "channel": 0}, {"type": "note_on", "time": 137, "note": 72, "velocity": 100, "channel": 0}, {"type": "note_off", "time": 220, "note": 72, "velocity": 100, "channel": 0}, {"type": "note_on", "time": 22, "note": 67, "velocity": 103, "channel": 0}, {"type": "note_off", "time": 67, "note": 67, "velocity": 103, "channel": 0}, {"type": "note_on", "time": 37, "note": 63, "velocity": 88, "channel": 0}, {"type": "note_off", "time": 66, "note": 63, "velocity": 88, "channel": 0}, {"type": "note_on", "time": 28, "note": 65, "velocity": 97, "channel": 0}, {"type": "note_off", "time": 150, "note": 65, "velocity": 97, "channel": 0}, {"type": "note_on", "time": 27, "note": 63, "velocity": 108, "channel": 0}, {"type": "note_off", "time": 61, "note": 63, "velocity": 108, "channel": 0}, {"type": "note_on", "time": 128, "note": 61, "velocity": 97, "channel": 0}, {"type": "note_off", "time": 55, "note": 61, "velocity": 97, "channel": 0}, {"type": "note_on", "time": 81, "note": 63, "velocity": 110, "channel": 0}, {"type": "note_off", "time": 70, "note": 63, "velocity": 110, "channel": 0}, {"type": "note_on", "time": 110, "note": 60, "velocity": 90, "channel": 0}, {"type": "note_off", "time": 51, "note": 60, "velocity": 90, "channel": 0}, {"type": "note_on", "time": 28, "note": 63, "velocity": 103, "channel": 0}, {"type": "note_off", "time": 137, "note": 63, "velocity": 103, "channel": 0}, {"type": "note_on", "time": 25, "note": 60, "velocity": 94, "channel": 0}, {"type": "note_off", "time": 75, "note": 60, "velocity": 94, "channel": 0}, {"type": "note_on", "time": 39, "note": 62, "velocity": 97, "channel": 0}, {"type": "note_off", "time": 43, "note": 62, "velocity": 97, "channel": 0}, {"type": "note_on", "time": 13, "note": 63, "velocity": 108, "channel": 0}, {"type": "note_off", "time": 84, "note": 63, "velocity": 108, "channel": 0}, {"type": "note_on", "time": 37, "note": 60, "velocity": 93, "channel": 0}, {"type": "note_off", "time": 66, "note": 60, "velocity": 93, "channel": 0}, {"type": "note_on", "time": 19, "note": 62, "velocity": 103, "channel": 0}, {"type": "note_off", "time": 69, "note": 62, "velocity": 103, "channel": 0}, {"type": "note_on", "time": 25, "note": 63, "velocity": 110, "channel": 0}, {"type": "note_off", "time": 101, "note": 63, "velocity": 110, "channel": 0}, {"type": "note_on", "time": 21, "note": 63, "velocity": 107, "channel": 0}, {"type": "note_off", "time": 76, "note": 63, "velocity": 107, "channel": 0}, {"type": "note_on", "time": 36, "note": 60, "velocity": 94, "channel": 0}, {"type": "note_off", "time": 79, "note": 60, "velocity": 94, "channel": 0}, {"type": "note_on", "time": 128, "note": 60, "velocity": 93, "channel": 0}, {"type": "note_off", "time": 312, "note": 60, "velocity": 93, "channel": 0}, {"type": "note_on", "time": 531, "note": 60, "velocity": 99, "channel": 0}, {"type": "note_off", "time": 66, "note": 60, "velocity": 99, "channel": 0}, {"type": "note_on", "time": 3, "note": 61, "velocity": 106, "channel": 0}, {"type": "note_off", "time": 82, "note": 61, "velocity": 106, "channel": 0}, {"type": "note_on", "time": 43, "note": 64, "velocity": 114, "channel": 0}, {"type": "note_off", "time": 81, "note": 64, "velocity": 114, "channel": 0}, {"type": "note_on", "time": 95, "note": 67, "velocity": 111, "channel": 0}, {"type": "note_off", "time": 161, "note": 67, "velocity": 111, "channel": 0}, {"type": "note_on", "time": 113, "note": 67, "velocity": 89, "channel": 0}, {"type": "note_off", "time": 339, "note": 67, "velocity": 89, "channel": 0}, {"type": "note_on", "time": 33, "note": 67, "velocity": 105, "channel": 0}, {"type": "note_off", "time": 67, "note": 67, "velocity": 105, "channel": 0}, {"type": "note_on", "time": 10, "note": 68, "velocity": 115, "channel": 0}, {"type": "note_off", "time": 120, "note": 68, "velocity": 115, "channel": 0}, {"type": "note_on", "time": 75, "note": 67, "velocity": 114, "channel": 0}, {"type": "note_off", "time": 87, "note": 67, "velocity": 114, "channel": 0}, {"type": "note_on", "time": 113, "note": 74, "velocity": 123, "channel": 0}, {"type": "note_off", "time": 89, "note": 74, "velocity": 123, "channel": 0}, {"type": "note_on", "time": 12, "note": 73, "velocity": 105, "channel": 0}, {"type": "note_off", "time": 55, "note": 73, "velocity": 105, "channel": 0}, {"type": "note_on", "time": 18, "note": 72, "velocity": 99, "channel": 0}, {"type": "note_off", "time": 87, "note": 72, "velocity": 99, "channel": 0}, {"type": "note_on", "time": 13, "note": 71, "velocity": 91, "channel": 0}, {"type": "note_off", "time": 34, "note": 71, "velocity": 91, "channel": 0}, {"type": "note_on", "time": 42, "note": 70, "velocity": 98, "channel": 0}, {"type": "note_off", "time": 90, "note": 70, "velocity": 98, "channel": 0}, {"type": "note_on", "time": 34, "note": 68, "velocity": 94, "channel": 0}, {"type": "note_off", "time": 55, "note": 68, "velocity": 94, "channel": 0}, {"type": "note_on", "time": 12, "note": 69, "velocity": 102, "channel": 0}, {"type": "note_off", "time": 87, "note": 69, "velocity": 102, "channel": 0}, {"type": "note_on", "time": 12, "note": 67, "velocity": 86, "channel": 0}, {"type": "note_off", "time": 37, "note": 67, "velocity": 86, "channel": 0}, {"type": "note_on", "time": 7, "note": 68, "velocity": 97, "channel": 0}, {"type": "note_off", "time": 40, "note": 68, "velocity": 97, "channel": 0}, {"type": "note_on", "time": 24, "note": 67, "velocity": 104, "channel": 0}, {"type": "note_off", "time": 67, "note": 67, "velocity": 104, "channel": 0}, {"type": "note_on", "time": 42, "note": 63, "velocity": 107, "channel": 0}, {"type": "note_off", "time": 49, "note": 63, "velocity": 107, "channel": 0}, {"type": "note_on", "time": 19, "note": 60, "velocity": 100, "channel": 0}, {"type": "note_off", "time": 87, "note": 60, "velocity": 100, "channel": 0}, {"type": "note_on", "time": 129, "note": 63, "velocity": 102, "channel": 0}, {"type": "note_off", "time": 205, "note": 63, "velocity": 102, "channel": 0}, {"type": "note_on", "time": 164, "note": 74, "velocity": 119, "channel": 0}, {"type": "note_off", "time": 274, "note": 74, "velocity": 119, "channel": 0}, {"type": "note_on", "time": 34, "note": 74, "velocity": 119, "channel": 0}, {"type": "note_off", "time": 63, "note": 74, "velocity": 119, "channel": 0}, {"type": "note_on", "time": 16, "note": 72, "velocity": 102, "channel": 0}, {"type": "note_off", "time": 64, "note": 72, "velocity": 102, "channel": 0}, {"type": "note_on", "time": 69, "note": 68, "velocity": 102, "channel": 0}, {"type": "note_off", "time": 58, "note": 68, "velocity": 102, "channel": 0}, {"type": "note_on", "time": 126, "note": 67, "velocity": 91, "channel": 0}, {"type": "note_off", "time": 327, "note": 67, "velocity": 91, "channel": 0}, {"type": "note_on", "time": 113, "note": 65, "velocity": 100, "channel": 0}, {"type": "note_off", "time": 95, "note": 65, "velocity": 100, "channel": 0}, {"type": "note_on", "time": 76, "note": 68, "velocity": 109, "channel": 0}, {"type": "note_off", "time": 64, "note": 68, "velocity": 109, "channel": 0}, {"type": "note_on", "time": 153, "note": 70, "velocity": 106, "channel": 0}, {"type": "note_off", "time": 87, "note": 70, "velocity": 106, "channel": 0}, {"type": "note_on", "time": 64, "note": 67, "velocity": 102, "channel": 0}, {"type": "note_off", "time": 60, "note": 67, "velocity": 102, "channel": 0}, {"type": "note_on", "time": 79, "note": 65, "velocity": 108, "channel": 0}, {"type": "note_off", "time": 70, "note": 65, "velocity": 108, "channel": 0}, {"type": "note_on", "time": 22, "note": 63, "velocity": 113, "channel": 0}, {"type": "note_off", "time": 90, "note": 63, "velocity": 113, "channel": 0}, {"type": "note_on", "time": 113, "note": 63, "velocity": 103, "channel": 0}, {"type": "note_off", "time": 102, "note": 63, "velocity": 103, "channel": 0}, {"type": "note_on", "time": 105, "note": 66, "velocity": 102, "channel": 0}, {"type": "note_off", "time": 64, "note": 66, "velocity": 102, "channel": 0}, {"type": "note_on", "time": 3, "note": 67, "velocity": 103, "channel": 0}, {"type": "note_off", "time": 119, "note": 67, "velocity": 103, "channel": 0}, {"type": "note_on", "time": 95, "note": 62, "velocity": 94, "channel": 0}, {"type": "note_off", "time": 288, "note": 62, "velocity": 94, "channel": 0}, {"type": "note_on", "time": 371, "note": 74, "velocity": 117, "channel": 0}, {"type": "note_off", "time": 288, "note": 74, "velocity": 117, "channel": 0}, {"type": "note_on", "time": 19, "note": 72, "velocity": 99, "channel": 0}, {"type": "note_off", "time": 25, "note": 72, "velocity": 99, "channel": 0}, {"type": "note_on", "time": 22, "note": 74, "velocity": 120, "channel": 0}, {"type": "note_off", "time": 48, "note": 74, "velocity": 120, "channel": 0}, {"type": "note_on", "time": 13, "note": 72, "velocity": 89, "channel": 0}, {"type": "note_off", "time": 78, "note": 72, "velocity": 89, "channel": 0}, {"type": "note_on", "time": 34, "note": 74, "velocity": 110, "channel": 0}, {"type": "note_off", "time": 69, "note": 74, "velocity": 110, "channel": 0}, {"type": "note_on", "time": 14, "note": 72, "velocity": 93, "channel": 0}, {"type": "note_off", "time": 32, "note": 72, "velocity": 93, "channel": 0}, {"type": "note_on", "time": 10, "note": 74, "velocity": 103, "channel": 0}, {"type": "note_off", "time": 63, "note": 74, "velocity": 103, "channel": 0}, {"type": "note_on", "time": 7, "note": 72, "velocity": 100, "channel": 0}, {"type": "note_off", "time": 42, "note": 72, "velocity": 100, "channel": 0}, {"type": "note_on", "time": 9, "note": 74, "velocity": 113, "channel": 0}, {"type": "note_off", "time": 96, "note": 74, "velocity": 113, "channel": 0}, {"type": "note_on", "time": 121, "note": 72, "velocity": 94, "channel": 0}, {"type": "note_off", "time": 56, "note": 72, "velocity": 94, "channel": 0}, {"type": "note_on", "time": 16, "note": 74, "velocity": 116, "channel": 0}, {"type": "note_off", "time": 84, "note": 74, "velocity": 116, "channel": 0}, {"type": "note_on", "time": 9, "note": 73, "velocity": 97, "channel": 0}, {"type": "note_off", "time": 23, "note": 73, "velocity": 97, "channel": 0}, {"type": "note_on", "time": 10, "note": 74, "velocity": 98, "channel": 0}, {"type": "note_off", "time": 28, "note": 74, "velocity": 98, "channel": 0}, {"type": "note_on", "time": 20, "note": 72, "velocity": 92, "channel": 0}, {"type": "note_off", "time": 53, "note": 72, "velocity": 92, "channel": 0}, {"type": "note_on", "time": 13, "note": 74, "velocity": 109, "channel": 0}, {"type": "note_off", "time": 163, "note": 74, "velocity": 109, "channel": 0}, {"type": "note_on", "time": 22, "note": 70, "velocity": 91, "channel": 0}, {"type": "note_off", "time": 34, "note": 70, "velocity": 91, "channel": 0}, {"type": "note_on", "time": 9, "note": 72, "velocity": 106, "channel": 0}, {"type": "note_off", "time": 70, "note": 72, "velocity": 106, "channel": 0}, {"type": "note_on", "time": 35, "note": 74, "velocity": 119, "channel": 0}, {"type": "note_off", "time": 81, "note": 74, "velocity": 119, "channel": 0}, {"type": "note_on", "time": 9, "note": 72, "velocity": 105, "channel": 0}, {"type": "note_off", "time": 23, "note": 72, "velocity": 105, "channel": 0}, {"type": "note_on", "time": 8, "note": 73, "velocity": 99, "channel": 0}, {"type": "note_off", "time": 28, "note": 73, "velocity": 99, "channel": 0}, {"type": "note_on", "time": 12, "note": 72, "velocity": 106, "channel": 0}, {"type": "note_off", "time": 50, "note": 72, "velocity": 106, "channel": 0}, {"type": "note_on", "time": 25, "note": 74, "velocity": 118, "channel": 0}, {"type": "note_off", "time": 122, "note": 74, "velocity": 118, "channel": 0}, {"type": "note_on", "time": 11, "note": 72, "velocity": 99, "channel": 0}, {"type": "note_off", "time": 24, "note": 72, "velocity": 99, "channel": 0}, {"type": "note_on", "time": 7, "note": 73, "velocity": 97, "channel": 0}, {"type": "note_off", "time": 59, "note": 73, "velocity": 97, "channel": 0}, {"type": "note_on", "time": 7, "note": 72, "velocity": 109, "channel": 0}, {"type": "note_off", "time": 68, "note": 72, "velocity": 109, "channel": 0}, {"type": "note_on", "time": 26, "note": 74, "velocity": 122, "channel": 0}, {"type": "note_off", "time": 84, "note": 74, "velocity": 122, "channel": 0}, {"type": "note_on", "time": 5, "note": 72, "velocity": 108, "channel": 0}, {"type": "note_off", "time": 23, "note": 72, "velocity": 108, "channel": 0}, {"type": "note_on", "time": 9, "note": 73, "velocity": 107, "channel": 0}, {"type": "note_off", "time": 23, "note": 73, "velocity": 107, "channel": 0}, {"type": "note_on", "time": 12, "note": 72, "velocity": 94, "channel": 0}, {"type": "note_off", "time": 53, "note": 72, "velocity": 94, "channel": 0}, {"type": "note_on", "time": 40, "note": 74, "velocity": 115, "channel": 0}, {"type": "note_off", "time": 136, "note": 74, "velocity": 115, "channel": 0}, {"type": "note_on", "time": 15, "note": 73, "velocity": 98, "channel": 0}, {"type": "note_off", "time": 48, "note": 73, "velocity": 98, "channel": 0}, {"type": "note_on", "time": 15, "note": 72, "velocity": 97, "channel": 0}, {"type": "note_off", "time": 101, "note": 72, "velocity": 97, "channel": 0}, {"type": "note_on", "time": 17, "note": 71, "velocity": 85, "channel": 0}, {"type": "note_off", "time": 59, "note": 71, "velocity": 85, "channel": 0}, {"type": "note_on", "time": 16, "note": 70, "velocity": 93, "channel": 0}, {"type": "note_off", "time": 83, "note": 70, "velocity": 93, "channel": 0}, {"type": "note_on", "time": 7, "note": 68, "velocity": 93, "channel": 0}, {"type": "note_off", "time": 145, "note": 68, "velocity": 93, "channel": 0}, {"type": "note_on", "time": 72, "note": 67, "velocity": 102, "channel": 0}, {"type": "note_off", "time": 74, "note": 67, "velocity": 102, "channel": 0}, {"type": "note_on", "time": 92, "note": 67, "velocity": 93, "channel": 0}, {"type": "note_off", "time": 171, "note": 67, "velocity": 93, "channel": 0}, {"type": "note_on", "time": 105, "note": 67, "velocity": 105, "channel": 0}, {"type": "note_off", "time": 81, "note": 67, "velocity": 105, "channel": 0}, {"type": "note_on", "time": 13, "note": 68, "velocity": 98, "channel": 0}, {"type": "note_off", "time": 75, "note": 68, "velocity": 98, "channel": 0}, {"type": "note_on", "time": 10, "note": 67, "velocity": 98, "channel": 0}, {"type": "note_off", "time": 92, "note": 67, "velocity": 98, "channel": 0}, {"type": "note_on", "time": 119, "note": 67, "velocity": 111, "channel": 0}, {"type": "note_off", "time": 57, "note": 67, "velocity": 111, "channel": 0}, {"type": "note_on", "time": 19, "note": 68, "velocity": 96, "channel": 0}, {"type": "note_off", "time": 92, "note": 68, "velocity": 96, "channel": 0}, {"type": "note_on", "time": 12, "note": 67, "velocity": 106, "channel": 0}, {"type": "note_off", "time": 75, "note": 67, "velocity": 106, "channel": 0}, {"type": "note_on", "time": 144, "note": 67, "velocity": 115, "channel": 0}, {"type": "note_off", "time": 78, "note": 67, "velocity": 115, "channel": 0}, {"type": "note_on", "time": 19, "note": 68, "velocity": 101, "channel": 0}, {"type": "note_off", "time": 73, "note": 68, "velocity": 101, "channel": 0}, {"type": "note_on", "time": 13, "note": 67, "velocity": 108, "channel": 0}, {"type": "note_off", "time": 70, "note": 67, "velocity": 108, "channel": 0}, {"type": "note_on", "time": 111, "note": 72, "velocity": 106, "channel": 0}, {"type": "note_off", "time": 190, "note": 72, "velocity": 106, "channel": 0}, {"type": "note_on", "time": 110, "note": 72, "velocity": 107, "channel": 0}, {"type": "note_off", "time": 78, "note": 72, "velocity": 107, "channel": 0}, {"type": "note_on", "time": 36, "note": 72, "velocity": 102, "channel": 0}, {"type": "note_off", "time": 63, "note": 72, "velocity": 102, "channel": 0}, {"type": "note_on", "time": 89, "note": 67, "velocity": 101, "channel": 0}, {"type": "note_off", "time": 67, "note": 67, "velocity": 101, "channel": 0}, {"type": "note_on", "time": 120, "note": 63, "velocity": 114, "channel": 0}, {"type": "note_off", "time": 110, "note": 63, "velocity": 114, "channel": 0}, {"type": "note_on", "time": 30, "note": 60, "velocity": 100, "channel": 0}, {"type": "note_off", "time": 67, "note": 60, "velocity": 100, "channel": 0}, {"type": "note_on", "time": 126, "note": 55, "velocity": 105, "channel": 0}, {"type": "note_off", "time": 357, "note": 55, "velocity": 105, "channel": 0}, {"type": "end_of_track", "time": 0}]]}