{"ticks_per_beat": 192, "tracks": [[{"type": "track_name", "name": "Melody", "time": 0}, {"type": "set_tempo", "tempo": 307692, "time": 0}, {"type": "key_signature", "key": "Eb", "time": 0}, {"type": "time_signature", "numerator": 4, "denominator": 4, "clocks_per_click": 24, "notated_32nd_notes_per_beat": 8, "time": 0}, {"type": "note_on", "time": 2177, "note": 67, "velocity": 108, "channel": 0}, {"type": "note_off", "time": 78, "note": 67, "velocity": 108, "channel": 0}, {"type": "note_on", "time": 236, "note": 67, "velocity": 102, "channel": 0}, {"type": "note_off", "time": 91, "note": 67, "velocity": 102, "channel": 0}, {"type": "note_on", "time": 361, "note": 67, "velocity": 125, "channel": 0}, {"type": "note_off", "time": 229, "note": 67, "velocity": 125, "channel": 0}, {"type": "note_on", "time": 22, "note": 68, "velocity": 114, "channel": 0}, {"type": "note_off", "time": 47, "note": 68, "velocity": 114, "channel": 0}, {"type": "note_on", "time": 10, "note": 70, "velocity": 116, "channel": 0}, {"type": "note_off", "time": 67, "note": 70, "velocity": 116, "channel": 0}, {"type": "note_on", "time": 7, "note": 67, "velocity": 122, "channel": 0}, {"type": "note_off", "time": 127, "note": 67, "velocity": 122, "channel": 0}, {"type": "note_on", "time": 28, "note": 65, "velocity": 115, "channel": 0}, {"type": "note_off", "time": 127, "note": 65, "velocity": 115, "channel": 0}, {"type": "note_on", "time": 28, "note": 63, "velocity": 93, "channel": 0}, {"type": "note_off", "time": 85, "note": 63, "velocity": 93, "channel": 0}, {"type": "note_on", "time": 16, "note": 62, "velocity": 97, "channel": 0}, {"type": "note_off", "time": 108, "note": 62, "velocity": 97, "channel": 0}, {"type": "note_on", "time": 215, "note": 62, "velocity": 103, "channel": 0}, {"type": "note_off", "time": 86, "note": 62, "velocity": 103, "channel": 0}, {"type": "note_on", "time": 286, "note": 58, "velocity": 91, "channel": 0}, {"type": "note_off", "time": 43, "note": 58, "velocity": 91, "channel": 0}, {"type": "note_on", "time": 19, "note": 60, "velocity": 115, "channel": 0}, {"type": "note_off", "time": 108, "note": 60, "velocity": 115, "channel": 0}, {"type": "note_on", "time": 5, "note": 61, "velocity": 113, "channel": 0}, {"type": "note_off", "time": 72, "note": 61, "velocity": 113, "channel": 0}, {"type": "note_on", "time": 21, "note": 58, "velocity": 102, "channel": 0}, {"type": "note_off", "time": 103, "note": 58, "velocity": 102, "channel": 0}, {"type": "note_on", "time": 54, "note": 60, "velocity": 116, "channel": 0}, {"type": "note_off", "time": 134, "note": 60, "velocity": 116, "channel": 0}, {"type": "note_on", "time": 36, "note": 56, "velocity": 105, "channel": 0}, {"type": "note_off", "time": 47, "note": 56, "velocity": 105, "channel": 0}, {"type": "note_on", "time": 117, "note": 60, "velocity": 112, "channel": 0}, {"type": "note_off", "time": 105, "note": 60, "velocity": 112, "channel": 0}, {"type": "note_on", "time": 300, "note": 56, "velocity": 107, "channel": 0}, {"type": "note_off", "time": 43, "note": 56, "velocity": 107, "channel": 0}, {"type": "note_on", "time": 38, "note": 63, "velocity": 112, "channel": 0}, {"type": "note_off", "time": 88, "note": 63, "velocity": 112, "channel": 0}, {"type": "note_on", "time": 23, "note": 60, "velocity": 112, "channel": 0}, {"type": "note_off", "time": 67, "note": 60, "velocity": 112, "channel": 0}, {"type": "note_on", "time": 16, "note": 61, "velocity": 97, "channel": 0}, {"type": "note_off", "time": 88, "note": 61, "velocity": 97, "channel": 0}, {"type": "note_on", "time": 9, "note": 62, "velocity": 112, "channel": 0}, {"type": "note_off", "time": 86, "note": 62, "velocity": 112, "channel": 0}, {"type": "note_on", "time": 115, "note": 58, "velocity": 104, "channel": 0}, {"type": "note_off", "time": 45, "note": 58, "velocity": 104, "channel": 0}, {"type": "note_on", "time": 39, "note": 62, "velocity": 100, "channel": 0}, {"type": "note_off", "time": 74, "note": 62, "velocity": 100, "channel": 0}, {"type": "note_on", "time": 34, "note": 65, "velocity": 103, "channel": 0}, {"type": "note_off", "time": 45, "note": 65, "velocity": 103, "channel": 0}, {"type": "note_on", "time": 28, "note": 69, "velocity": 121, "channel": 0}, {"type": "note_off", "time": 114, "note": 69, "velocity": 121, "channel": 0}, {"type": "note_on", "time": 18, "note": 68, "velocity": 120, "channel": 0}, {"type": "note_off", "time": 63, "note": 68, "velocity": 120, "channel": 0}, {"type": "note_on", "time": 19, "note": 64, "velocity": 106, "channel": 0}, {"type": "note_off", "time": 92, "note": 64, "velocity": 106, "channel": 0}, {"type": "note_on", "time": 18, "note": 62, "velocity": 93, "channel": 0}, {"type": "note_off", "time": 38, "note": 62, "velocity": 93, "channel": 0}, {"type": "note_on", "time": 39, "note": 67, "velocity": 104, "channel": 0}, {"type": "note_off", "time": 81, "note": 67, "velocity": 104, "channel": 0}, {"type": "note_on", "time": 25, "note": 70, "velocity": 118, "channel": 0}, {"type": "note_off", "time": 50, "note": 70, "velocity": 118, "channel": 0}, {"type": "note_on", "time": 14, "note": 69, "velocity": 99, "channel": 0}, {"type": "note_off", "time": 65, "note": 69, "velocity": 99, "channel": 0}, {"type": "note_on", "time": 12, "note": 67, "velocity": 89, "channel": 0}, {"type": "note_off", "time": 32, "note": 67, "velocity": 89, "channel": 0}, {"type": "note_on", "time": 23, "note": 72, "velocity": 118, "channel": 0}, {"type": "note_off", "time": 99, "note": 72, "velocity": 118, "channel": 0}, {"type": "note_on", "time": 351, "note": 68, "velocity": 120, "channel": 0}, {"type": "note_off", "time": 146, "note": 68, "velocity": 120, "channel": 0}, {"type": "note_on", "time": 16, "note": 67, "velocity": 116, "channel": 0}, {"type": "note_off", "time": 48, "note": 67, "velocity": 116, "channel": 0}, {"type": "note_on", "time": 20, "note": 65, "velocity": 118, "channel": 0}, {"type": "note_off", "time": 66, "note": 65, "velocity": 118, "channel": 0}, {"type": "note_on", "time": 5, "note": 64, "velocity": 112, "channel": 0}, {"type": "note_off", "time": 42, "note": 64, "velocity": 112, "channel": 0}, {"type": "note_on", "time": 7, "note": 63, "velocity": 100, "channel": 0}, {"type": "note_off", "time": 47, "note": 63, "velocity": 100, "channel": 0}, {"type": "note_on", "time": 19, "note": 62, "velocity": 105, "channel": 0}, {"type": "note_off", "time": 40, "note": 62, "velocity": 105, "channel": 0}, {"type": "note_on", "time": 20, "note": 60, "velocity": 110, "channel": 0}, {"type": "note_off", "time": 42, "note": 60, "velocity": 110, "channel": 0}, {"type": "note_on", "time": 15, "note": 59, "velocity": 100, "channel": 0}, {"type": "note_off", "time": 33, "note": 59, "velocity": 100, "channel": 0}, {"type": "note_on", "time": 1, "note": 60, "velocity": 107, "channel": 0}, {"type": "note_off", "time": 43, "note": 60, "velocity": 107, "channel": 0}, {"type": "note_on", "time": 7, "note": 62, "velocity": 102, "channel": 0}, {"type": "note_off", "time": 54, "note": 62, "velocity": 102, "channel": 0}, {"type": "note_on", "time": 5, "note": 60, "velocity": 110, "channel": 0}, {"type": "note_off", "time": 36, "note": 60, "velocity": 110, "channel": 0}, {"type": "note_on", "time": 38, "note": 57, "velocity": 86, "channel": 0}, {"type": "note_off", "time": 34, "note": 57, "velocity": 86, "channel": 0}, {"type": "note_on", "time": 16, "note": 58, "velocity": 95, "channel": 0}, {"type": "note_off", "time": 73, "note": 58, "velocity": 95, "channel": 0}, {"type": "note_on", "time": 215, "note": 62, "velocity": 100, "channel": 0}, {"type": "note_off", "time": 78, "note": 62, "velocity": 100, "channel": 0}, {"type": "note_on", "time": 10, "note": 55, "velocity": 99, "channel": 0}, {"type": "note_off", "time": 73, "note": 55, "velocity": 99, "channel": 0}, {"type": "note_on", "time": 20, "note": 58, "velocity": 102, "channel": 0}, {"type": "note_off", "time": 58, "note": 58, "velocity": 102, "channel": 0}, {"type": "note_on", "time": 35, "note": 62, "velocity": 108, "channel": 0}, {"type": "note_off", "time": 85, "note": 62, "velocity": 108, "channel": 0}, {"type": "note_on", "time": 20, "note": 65, "velocity": 117, "channel": 0}, {"type": "note_off", "time": 77, "note": 65, "velocity": 117, "channel": 0}, {"type": "note_on", "time": 68, "note": 62, "velocity": 98, "channel": 0}, {"type": "note_off", "time": 64, "note": 62, "velocity": 98, "channel": 0}, {"type": "note_on", "time": 6, "note": 64, "velocity": 101, "channel": 0}, {"type": "note_off", "time": 35, "note": 64, "velocity": 101, "channel": 0}, {"type": "note_on", "time": 19, "note": 67, "velocity": 120, "channel": 0}, {"type": "note_off", "time": 98, "note": 67, "velocity": 120, "channel": 0}, {"type": "note_on", "time": 19, "note": 65, "velocity": 94, "channel": 0}, {"type": "note_off", "time": 42, "note": 65, "velocity": 94, "channel": 0}, {"type": "note_on", "time": 15, "note": 73, "velocity": 113, "channel": 0}, {"type": "note_off", "time": 22, "note": 73, "velocity": 113, "channel": 0}, {"type": "note_on", "time": 10, "note": 74, "velocity": 115, "channel": 0}, {"type": "note_off", "time": 90, "note": 74, "velocity": 115, "channel": 0}, {"type": "note_on", "time": 8, "note": 76, "velocity": 108, "channel": 0}, {"type": "note_off", "time": 36, "note": 76, "velocity": 108, "channel": 0}, {"type": "note_on", "time": 7, "note": 77, "velocity": 116, "channel": 0}, {"type": "note_off", "time": 152, "note": 77, "velocity": 116, "channel": 0}, {"type": "note_on", "time": 6, "note": 70, "velocity": 109, "channel": 0}, {"type": "note_off", "time": 98, "note": 70, "velocity": 109, "channel": 0}, {"type": "note_on", "time": 318, "note": 79, "velocity": 116, "channel": 0}, {"type": "note_off", "time": 309, "note": 79, "velocity": 116, "channel": 0}, {"type": "note_on", "time": 16, "note": 78, "velocity": 109, "channel": 0}, {"type": "note_off", "time": 76, "note": 78, "velocity": 109, "channel": 0}, {"type": "note_on", "time": 33, "note": 78, "velocity": 118, "channel": 0}, {"type": "note_off", "time": 197, "note": 78, "velocity": 118, "channel": 0}, {"type": "note_on", "time": 24, "note": 77, "velocity": 110, "channel": 0}, {"type": "note_off", "time": 86, "note": 77, "velocity": 110, "channel": 0}, {"type": "note_on", "time": 21, "note": 75, "velocity": 112, "channel": 0}, {"type": "note_off", "time": 262, "note": 75, "velocity": 112, "channel": 0}, {"type": "note_on", "time": 8, "note": 73, "velocity": 102, "channel": 0}, {"type": "note_off", "time": 22, "note": 73, "velocity": 102, "channel": 0}, {"type": "note_on", "time": 11, "note": 72, "velocity": 120, "channel": 0}, {"type": "note_off", "time": 24, "note": 72, "velocity": 120, "channel": 0}, {"type": "note_on", "time": 31, "note": 68, "velocity": 115, "channel": 0}, {"type": "note_off", "time": 371, "note": 68, "velocity": 115, "channel": 0}, {"type": "note_on", "time": 31, "note": 66, "velocity": 111, "channel": 0}, {"type": "note_off", "time": 54, "note": 66, "velocity": 111, "channel": 0}, {"type": "note_on", "time": 8, "note": 65, "velocity": 111, "channel": 0}, {"type": "note_off", "time": 163, "note": 65, "velocity": 111, "channel": 0}, {"type": "note_on", "time": 24, "note": 63, "velocity": 97, "channel": 0}, {"type": "note_off", "time": 173, "note": 63, "velocity": 97, "channel": 0}, {"type": "note_on", "time": 26, "note": 62, "velocity": 99, "channel": 0}, {"type": "note_off", "time": 215, "note": 62, "velocity": 99, "channel": 0}, {"type": "note_on", "time": 68, "note": 57, "velocity": 92, "channel": 0}, {"type": "note_off", "time": 64, "note": 57, "velocity": 92, "channel": 0}, {"type": "note_on", "time": 56, "note": 60, "velocity": 103, "channel": 0}, {"type": "note_off", "time": 253, "note": 60, "velocity": 103, "channel": 0}, {"type": "note_on", "time": 50, "note": 58, "velocity": 103, "channel": 0}, {"type": "note_off", "time": 53, "note": 58, "velocity": 103, "channel": 0}, {"type": "note_on", "time": 8, "note": 57, "velocity": 88, "channel": 0}, {"type": "note_off", "time": 71, "note": 57, "velocity": 88, "channel": 0}, {"type": "note_on", "time": 30, "note": 60, "velocity": 110, "channel": 0}, {"type": "note_off", "time": 70, "note": 60, "velocity": 110, "channel": 0}, {"type": "note_on", "time": 22, "note": 64, "velocity": 106, "channel": 0}, {"type": "note_off", "time": 89, "note": 64, "velocity": 106, "channel": 0}, {"type": "note_on", "time": 25, "note": 67, "velocity": 122, "channel": 0}, {"type": "note_off", "time": 64, "note": 67, "velocity": 122, "channel": 0}, {"type": "note_on", "time": 20, "note": 65, "velocity": 110, "channel": 0}, {"type": "note_off", "time": 81, "note": 65, "velocity": 110, "channel": 0}, {"type": "note_on", "time": 10, "note": 67, "velocity": 120, "channel": 0}, {"type": "note_off", "time": 67, "note": 67, "velocity": 120, "channel": 0}, {"type": "note_on", "time": 15, "note": 68, "velocity": 121, "channel": 0}, {"type": "note_off", "time": 82, "note": 68, "velocity": 121, "channel": 0}, {"type": "note_on", "time": 17, "note": 70, "velocity": 117, "channel": 0}, {"type": "note_off", "time": 61, "note": 70, "velocity": 117, "channel": 0}, {"type": "note_on", "time": 35, "note": 71, "velocity": 117, "channel": 0}, {"type": "note_off", "time": 92, "note": 71, "velocity": 117, "channel": 0}, {"type": "note_on", "time": 16, "note": 68, "velocity": 123, "channel": 0}, {"type": "note_off", "time": 52, "note": 68, "velocity": 123, "channel": 0}, {"type": "note_on", "time": 15, "note": 67, "velocity": 110, "channel": 0}, {"type": "note_off", "time": 99, "note": 67, "velocity": 110, "channel": 0}, {"type": "note_on", "time": 25, "note": 65, "velocity": 95, "channel": 0}, {"type": "note_off", "time": 61, "note": 65, "velocity": 95, "channel": 0}, {"type": "note_on", "time": 19, "note": 70, "velocity": 116, "channel": 0}, {"type": "note_off", "time": 105, "note": 70, "velocity": 116, "channel": 0}, {"type": "note_on", "time": 25, "note": 67, "velocity": 116, "channel": 0}, {"type": "note_off", "time": 53, "note": 67, "velocity": 116, "channel": 0}, {"type": "note_on", "time": 19, "note": 63, "velocity": 94, "channel": 0}, {"type": "note_off", "time": 68, "note": 63, "velocity": 94, "channel": 0}, {"type": "note_on", "time": 36, "note": 68, "velocity": 119, "channel": 0}, {"type": "note_off", "time": 99, "note": 68, "velocity": 119, "channel": 0}, {"type": "note_on", "time": 259, "note": 67, "velocity": 92, "channel": 0}, {"type": "note_off", "time": 44, "note": 67, "velocity": 92, "channel": 0}, {"type": "note_on", "time": 63, "note": 70, "velocity": 123, "channel": 0}, {"type": "note_off", "time": 105, "note": 70, "velocity": 123, "channel": 0}, {"type": "note_on", "time": 73, "note": 68, "velocity": 127, "channel": 0}, {"type": "note_off", "time": 86, "note": 68, "velocity": 127, "channel": 0}, {"type": "note_on", "time": 103, "note": 73, "velocity": 126, "channel": 0}, {"type": "note_off", "time": 133, "note": 73, "velocity": 126, "channel": 0}, {"type": "note_on", "time": 26, "note": 72, "velocity": 120, "channel": 0}, {"type": "note_off", "time": 86, "note": 72, "velocity": 120, "channel": 0}, {"type": "note_on", "time": 105, "note": 75, "velocity": 116, "channel": 0}, {"type": "note_off", "time": 71, "note": 75, "velocity": 116, "channel": 0}, {"type": "note_on", "time": 89, "note": 72, "velocity": 117, "channel": 0}, {"type": "note_off", "time": 61, "note": 72, "velocity": 117, "channel": 0}, {"type": "note_on", "time": 141, "note": 68, "velocity": 123, "channel": 0}, {"type": "note_off", "time": 81, "note": 68, "velocity": 123, "channel": 0}, {"type": "note_on", "time": 113, "note": 76, "velocity": 115, "channel": 0}, {"type": "note_off", "time": 44, "note": 76, "velocity": 115, "channel": 0}, {"type": "note_on", "time": 11, "note": 77, "velocity": 119, "channel": 0}, {"type": "note_off", "time": 50, "note": 77, "velocity": 119, "channel": 0}, {"type": "note_on", "time": 6, "note": 78, "velocity": 113, "channel": 0}, {"type": "note_off", "time": 159, "note": 78, "velocity": 113, "channel": 0}, {"type": "note_on", "time": 10, "note": 77, "velocity": 114, "channel": 0}, {"type": "note_off", "time": 75, "note": 77, "velocity": 114, "channel": 0}, {"type": "note_on", "time": 31, "note": 75, "velocity": 111, "channel": 0}, {"type": "note_off", "time": 44, "note": 75, "velocity": 111, "channel": 0}, {"type": "note_on", "time": 30, "note": 73, "velocity": 115, "channel": 0}, {"type": "note_off", "time": 106, "note": 73, "velocity": 115, "channel": 0}, {"type": "note_on", "time": 5, "note": 72, "velocity": 115, "channel": 0}, {"type": "note_off", "time": 70, "note": 72, "velocity": 115, "channel": 0}, {"type": "note_on", "time": 19, "note": 71, "velocity": 112, "channel": 0}, {"type": "note_off", "time": 85, "note": 71, "velocity": 112, "channel": 0}, {"type": "note_on", "time": 21, "note": 70, "velocity": 115, "channel": 0}, {"type": "note_off", "time": 58, "note": 70, "velocity": 115, "channel": 0}, {"type": "note_on", "time": 14, "note": 68, "velocity": 109, "channel": 0}, {"type": "note_off", "time": 49, "note": 68, "velocity": 109, "channel": 0}, {"type": "note_on", "time": 6, "note": 69, "velocity": 100, "channel": 0}, {"type": "note_off", "time": 28, "note": 69, "velocity": 100, "channel": 0}, {"type": "note_on", "time": 3, "note": 68, "velocity": 112, "channel": 0}, {"type": "note_off", "time": 31, "note": 68, "velocity": 112, "channel": 0}, {"type": "note_on", "time": 15, "note": 66, "velocity": 99, "channel": 0}, {"type": "note_off", "time": 57, "note": 66, "velocity": 99, "channel": 0}, {"type": "note_on", "time": 17, "note": 64, "velocity": 102, "channel": 0}, {"type": "note_off", "time": 115, "note": 64, "velocity": 102, "channel": 0}, {"type": "note_on", "time": 19, "note": 62, "velocity": 111, "channel": 0}, {"type": "note_off", "time": 68, "note": 62, "velocity": 111, "channel": 0}, {"type": "note_on", "time": 14, "note": 61, "velocity": 93, "channel": 0}, {"type": "note_off", "time": 72, "note": 61, "velocity": 93, "channel": 0}, {"type": "note_on", "time": 22, "note": 59, "velocity": 103, "channel": 0}, {"type": "note_off", "time": 63, "note": 59, "velocity": 103, "channel": 0}, {"type": "note_on", "time": 19, "note": 58, "velocity": 84, "channel": 0}, {"type": "note_off", "time": 119, "note": 58, "velocity": 84, "channel": 0}, {"type": "note_on", "time": 159, "note": 65, "velocity": 113, "channel": 0}, {"type": "note_off", "time": 99, "note": 65, "velocity": 113, "channel": 0}, {"type": "note_on", "time": 370, "note": 68, "velocity": 123, "channel": 0}, {"type": "note_off", "time": 98, "note": 68, "velocity": 123, "channel": 0}, {"type": "note_on", "time": 17, "note": 65, "velocity": 95, "channel": 0}, {"type": "note_off", "time": 73, "note": 65, "velocity": 95, "channel": 0}, {"type": "note_on", "time": 3, "note": 66, "velocity": 84, "channel": 0}, {"type": "note_off", "time": 90, "note": 66, "velocity": 84, "channel": 0}, {"type": "note_on", "time": 101, "note": 70, "velocity": 118, "channel": 0}, {"type": "note_off", "time": 157, "note": 70, "velocity": 118, "channel": 0}, {"type": "note_on", "time": 21, "note": 68, "velocity": 85, "channel": 0}, {"type": "note_off", "time": 134, "note": 68, "velocity": 85, "channel": 0}, {"type": "note_on", "time": 397, "note": 71, "velocity": 118, "channel": 0}, {"type": "note_off", "time": 49, "note": 71, "velocity": 118, "channel": 0}, {"type": "note_on", "time": 5, "note": 72, "velocity": 121, "channel": 0}, {"type": "note_off", "time": 230, "note": 72, "velocity": 121, "channel": 0}, {"type": "note_on", "time": 150, "note": 68, "velocity": 118, "channel": 0}, {"type": "note_off", "time": 80, "note": 68, "velocity": 118, "channel": 0}, {"type": "note_on", "time": 8, "note": 70, "velocity": 103, "channel": 0}, {"type": "note_off", "time": 28, "note": 70, "velocity": 103, "channel": 0}, {"type": "note_on", "time": 16, "note": 68, "velocity": 116, "channel": 0}, {"type": "note_off", "time": 44, "note": 68, "velocity": 116, "channel": 0}, {"type": "note_on", "time": 19, "note": 65, "velocity": 112, "channel": 0}, {"type": "note_off", "time": 101, "note": 65, "velocity": 112, "channel": 0}, {"type": "note_on", "time": 16, "note": 63, "velocity": 108, "channel": 0}, {"type": "note_off", "time": 54, "note": 63, "velocity": 108, "channel": 0}, {"type": "note_on", "time": 16, "note": 62, "velocity": 102, "channel": 0}, {"type": "note_off", "time": 84, "note": 62, "velocity": 102, "channel": 0}, {"type": "note_on", "time": 19, "note": 58, "velocity": 102, "channel": 0}, {"type": "note_off", "time": 59, "note": 58, "velocity": 102, "channel": 0}, {"type": "note_on", "time": 137, "note": 65, "velocity": 112, "channel": 0}, {"type": "note_off", "time": 20, "note": 65, "velocity": 112, "channel": 0}, {"type": "note_on", "time": 11, "note": 66, "velocity": 112, "channel": 0}, {"type": "note_off", "time": 45, "note": 66, "velocity": 112, "channel": 0}, {"type": "note_on", "time": 11, "note": 67, "velocity": 117, "channel": 0}, {"type": "note_off", "time": 151, "note": 67, "velocity": 117, "channel": 0}, {"type": "note_on", "time": 25, "note": 70, "velocity": 115, "channel": 0}, {"type": "note_off", "time": 355, "note": 70, "velocity": 115, "channel": 0}, {"type": "note_on", "time": 21, "note": 72, "velocity": 116, "channel": 0}, {"type": "note_off", "time": 72, "note": 72, "velocity": 116, "channel": 0}, {"type": "note_on", "time": 134, "note": 74, "velocity": 110, "channel": 0}, {"type": "note_off", "time": 95, "note": 74, "velocity": 110, "channel": 0}, {"type": "note_on", "time": 26, "note": 70, "velocity": 96, "channel": 0}, {"type": "note_off", "time": 44, "note": 70, "velocity": 96, "channel": 0}, {"type": "note_on", "time": 28, "note": 72, "velocity": 111, "channel": 0}, {"type": "note_off", "time": 104, "note": 72, "velocity": 111, "channel": 0}, {"type": "note_on", "time": 50, "note": 74, "velocity": 116, "channel": 0}, {"type": "note_off", "time": 80, "note": 74, "velocity": 116, "channel": 0}, {"type": "note_on", "time": 61, "note": 70, "velocity": 116, "channel": 0}, {"type": "note_off", "time": 73, "note": 70, "velocity": 116, "channel": 0}, {"type": "note_on", "time": 28, "note": 65, "velocity": 118, "channel": 0}, {"type": "note_off", "time": 48, "note": 65, "velocity": 118, "channel": 0}, {"type": "note_on", "time": 0, "note": 66, "velocity": 106, "channel": 0}, {"type": "note_off", "time": 45, "note": 66, "velocity": 106, "channel": 0}, {"type": "note_on", "time": 11, "note": 65, "velocity": 105, "channel": 0}, {"type": "note_off", "time": 341, "note": 65, "velocity": 105, "channel": 0}, {"type": "note_on", "time": 315, "note": 57, "velocity": 99, "channel": 0}, {"type": "note_off", "time": 103, "note": 57, "velocity": 99, "channel": 0}, {"type": "note_on", "time": 16, "note": 60, "velocity": 91, "channel": 0}, {"type": "note_off", "time": 54, "note": 60, "velocity": 91, "channel": 0}, {"type": "note_on", "time": 12, "note": 63, "velocity": 96, "channel": 0}, {"type": "note_off", "time": 87, "note": 63, "velocity": 96, "channel": 0}, {"type": "note_on", "time": 21, "note": 66, "velocity": 112, "channel": 0}, {"type": "note_off", "time": 59, "note": 66, "velocity": 112, "channel": 0}, {"type": "note_on", "time": 35, "note": 70, "velocity": 110, "channel": 0}, {"type": "note_off", "time": 105, "note": 70, "velocity": 110, "channel": 0}, {"type": "note_on", "time": 63, "note": 76, "velocity": 121, "channel": 0}, {"type": "note_off", "time": 28, "note": 76, "velocity": 121, "channel": 0}, {"type": "note_on", "time": 3, "note": 77, "velocity": 118, "channel": 0}, {"type": "note_off", "time": 138, "note": 77, "velocity": 118, "channel": 0}, {"type": "note_on", "time": 0, "note": 66, "velocity": 98, "channel": 0}, {"type": "note_off", "time": 64, "note": 66, "velocity": 98, "channel": 0}, {"type": "note_on", "time": 103, "note": 64, "velocity": 119, "channel": 0}, {"type": "note_off", "time": 43, "note": 64, "velocity": 119, "channel": 0}, {"type": "note_on", "time": 10, "note": 65, "velocity": 108, "channel": 0}, {"type": "note_off", "time": 240, "note": 65, "velocity": 108, "channel": 0}, {"type": "note_on", "time": 11, "note": 68, "velocity": 103, "channel": 0}, {"type": "note_off", "time": 21, "note": 68, "velocity": 103, "channel": 0}, {"type": "note_on", "time": 7, "note": 71, "velocity": 103, "channel": 0}, {"type": "note_off", "time": 17, "note": 71, "velocity": 103, "channel": 0}, {"type": "note_on", "time": 0, "note": 72, "velocity": 103, "channel": 0}, {"type": "note_off", "time": 31, "note": 72, "velocity": 103, "channel": 0}, {"type": "note_on", "time": 6, "note": 75, "velocity": 119, "channel": 0}, {"type": "note_off", "time": 58, "note": 75, "velocity": 119, "channel": 0}, {"type": "note_on", "time": 12, "note": 72, "velocity": 117, "channel": 0}, {"type": "note_off", "time": 105, "note": 72, "velocity": 117, "channel": 0}, {"type": "note_on", "time": 6, "note": 73, "velocity": 123, "channel": 0}, {"type": "note_off", "time": 70, "note": 73, "velocity": 123, "channel": 0}, {"type": "note_on", "time": 11, "note": 74, "velocity": 106, "channel": 0}, {"type": "note_off", "time": 62, "note": 74, "velocity": 106, "channel": 0}, {"type": "note_on", "time": 24, "note": 70, "velocity": 117, "channel": 0}, {"type": "note_off", "time": 64, "note": 70, "velocity": 117, "channel": 0}, {"type": "note_on", "time": 14, "note": 69, "velocity": 109, "channel": 0}, {"type": "note_off", "time": 63, "note": 69, "velocity": 109, "channel": 0}, {"type": "note_on", "time": 3, "note": 70, "velocity": 107, "channel": 0}, {"type": "note_off", "time": 28, "note": 70, "velocity": 107, "channel": 0}, {"type": "note_on", "time": 15, "note": 69, "velocity": 116, "channel": 0}, {"type": "note_off", "time": 20, "note": 69, "velocity": 116, "channel": 0}, {"type": "note_on", "time": 11, "note": 67, "velocity": 111, "channel": 0}, {"type": "note_off", "time": 50, "note": 67, "velocity": 111, "channel": 0}, {"type": "note_on", "time": 10, "note": 66, "velocity": 108, "channel": 0}, {"type": "note_off", "time": 76, "note": 66, "velocity": 108, "channel": 0}, {"type": "note_on", "time": 47, "note": 64, "velocity": 108, "channel": 0}, {"type": "note_off", "time": 43, "note": 64, "velocity": 108, "channel": 0}, {"type": "note_on", "time": 142, "note": 60, "velocity": 94, "channel": 0}, {"type": "note_off", "time": 59, "note": 60, "velocity": 94, "channel": 0}, {"type": "note_on", "time": 19, "note": 63, "velocity": 109, "channel": 0}, {"type": "note_off", "time": 99, "note": 63, "velocity": 109, "channel": 0}, {"type": "note_on", "time": 21, "note": 61, "velocity": 107, "channel": 0}, {"type": "note_off", "time": 56, "note": 61, "velocity": 107, "channel": 0}, {"type": "note_on", "time": 29, "note": 56, "velocity": 95, "channel": 0}, {"type": "note_off", "time": 101, "note": 56, "velocity": 95, "channel": 0}, {"type": "note_on", "time": 56, "note": 60, "velocity": 116, "channel": 0}, {"type": "note_off", "time": 131, "note": 60, "velocity": 116, "channel": 0}, {"type": "note_on", "time": 19, "note": 58, "velocity": 99, "channel": 0}, {"type": "note_off", "time": 56, "note": 58, "velocity": 99, "channel": 0}, {"type": "note_on", "time": 24, "note": 57, "velocity": 97, "channel": 0}, {"type": "note_off", "time": 95, "note": 57, "velocity": 97, "channel": 0}, {"type": "note_on", "time": 7, "note": 67, "velocity": 120, "channel": 0}, {"type": "note_off", "time": 49, "note": 67, "velocity": 120, "channel": 0}, {"type": "note_on", "time": 14, "note": 64, "velocity": 98, "channel": 0}, {"type": "note_off", "time": 48, "note": 64, "velocity": 98, "channel": 0}, {"type": "note_on", "time": 20, "note": 62, "velocity": 95, "channel": 0}, {"type": "note_off", "time": 36, "note": 62, "velocity": 95, "channel": 0}, {"type": "note_on", "time": 26, "note": 60, "velocity": 106, "channel": 0}, {"type": "note_off", "time": 47, "note": 60, "velocity": 106, "channel": 0}, {"type": "note_on", "time": 26, "note": 65, "velocity": 115, "channel": 0}, {"type": "note_off", "time": 101, "note": 65, "velocity": 115, "channel": 0}, {"type": "note_on", "time": 26, "note": 60, "velocity": 103, "channel": 0}, {"type": "note_off", "time": 56, "note": 60, "velocity": 103, "channel": 0}, {"type": "note_on", "time": 17, "note": 63, "velocity": 95, "channel": 0}, {"type": "note_off", "time": 80, "note": 63, "velocity": 95, "channel": 0}, {"type": "note_on", "time": 31, "note": 68, "velocity": 119, "channel": 0}, {"type": "note_off", "time": 48, "note": 68, "velocity": 119, "channel": 0}, {"type": "note_on", "time": 29, "note": 62, "velocity": 108, "channel": 0}, {"type": "note_off", "time": 89, "note": 62, "velocity": 108, "channel": 0}, {"type": "note_on", "time": 42, "note": 58, "velocity": 90, "channel": 0}, {"type": "note_off", "time": 54, "note": 58, "velocity": 90, "channel": 0}, {"type": "note_on", "time": 7, "note": 59, "velocity": 88, "channel": 0}, {"type": "note_off", "time": 99, "note": 59, "velocity": 88, "channel": 0}, {"type": "note_on", "time": 20, "note": 60, "velocity": 114, "channel": 0}, {"type": "note_off", "time": 58, "note": 60, "velocity": 114, "channel": 0}, {"type": "note_on", "time": 28, "note": 58, "velocity": 96, "channel": 0}, {"type": "note_off", "time": 77, "note": 58, "velocity": 96, "channel": 0}, {"type": "note_on", "time": 12, "note": 60, "velocity": 100, "channel": 0}, {"type": "note_off", "time": 56, "note": 60, "velocity": 100, "channel": 0}, {"type": "note_on", "time": 15, "note": 58, "velocity": 86, "channel": 0}, {"type": "note_off", "time": 73, "note": 58, "velocity": 86, "channel": 0}, {"type": "note_on", "time": 34, "note": 55, "velocity": 93, "channel": 0}, {"type": "note_off", "time": 64, "note": 55, "velocity": 93, "channel": 0}, {"type": "note_on", "time": 10, "note": 58, "velocity": 98, "channel": 0}, {"type": "note_off", "time": 109, "note": 58, "velocity": 98, "channel": 0}, {"type": "note_on", "time": 36, "note": 67, "velocity": 99, "channel": 0}, {"type": "note_off", "time": 263, "note": 67, "velocity": 99, "channel": 0}, {"type": "note_on", "time": 324, "note": 65, "velocity": 93, "channel": 0}, {"type": "note_off", "time": 42, "note": 65, "velocity": 93, "channel": 0}, {"type": "note_on", "time": 17, "note": 68, "velocity": 124, "channel": 0}, {"type": "note_off", "time": 54, "note": 68, "velocity": 124, "channel": 0}, {"type": "note_on", "time": 16, "note": 67, "velocity": 115, "channel": 0}, {"type": "note_off", "time": 109, "note": 67, "velocity": 115, "channel": 0}, {"type": "note_on", "time": 34, "note": 63, "velocity": 94, "channel": 0}, {"type": "note_off", "time": 92, "note": 63, "velocity": 94, "channel": 0}, {"type": "note_on", "time": 22, "note": 65, "velocity": 105, "channel": 0}, {"type": "note_off", "time": 49, "note": 65, "velocity": 105, "channel": 0}, {"type": "note_on", "time": 311, "note": 65, "velocity": 95, "channel": 0}, {"type": "note_off", "time": 39, "note": 65, "velocity": 95, "channel": 0}, {"type": "note_on", "time": 15, "note": 70, "velocity": 98, "channel": 0}, {"type": "note_off", "time": 28, "note": 70, "velocity": 98, "channel": 0}, {"type": "note_on", "time": 14, "note": 68, "velocity": 111, "channel": 0}, {"type": "note_off", "time": 47, "note": 68, "velocity": 111, "channel": 0}, {"type": "note_on", "time": 12, "note": 67, "velocity": 106, "channel": 0}, {"type": "note_off", "time": 137, "note": 67, "velocity": 106, "channel": 0}, {"type": "note_on", "time": 16, "note": 63, "velocity": 96, "channel": 0}, {"type": "note_off", "time": 94, "note": 63, "velocity": 96, "channel": 0}, {"type": "note_on", "time": 19, "note": 65, "velocity": 105, "channel": 0}, {"type": "note_off", "time": 73, "note": 65, "velocity": 105, "channel": 0}, {"type": "note_on", "time": 318, "note": 58, "velocity": 95, "channel": 0}, {"type": "note_off", "time": 40, "note": 58, "velocity": 95, "channel": 0}, {"type": "note_on", "time": 19, "note": 68, "velocity": 117, "channel": 0}, {"type": "note_off", "time": 143, "note": 68, "velocity": 117, "channel": 0}, {"type": "note_on", "time": 0, "note": 67, "velocity": 117, "channel": 0}, {"type": "note_off", "time": 54, "note": 67, "velocity": 117, "channel": 0}, {"type": "note_on", "time": 14, "note": 63, "velocity": 101, "channel": 0}, {"type": "note_off", "time": 82, "note": 63, "velocity": 101, "channel": 0}, {"type": "note_on", "time": 11, "note": 58, "velocity": 113, "channel": 0}, {"type": "note_off", "time": 48, "note": 58, "velocity": 113, "channel": 0}, {"type": "note_on", "time": 33, "note": 62, "velocity": 99, "channel": 0}, {"type": "note_off", "time": 113, "note": 62, "velocity": 99, "channel": 0}, {"type": "note_on", "time": 27, "note": 63, "velocity": 105, "channel": 0}, {"type": "note_off", "time": 35, "note": 63, "velocity": 105, "channel": 0}, {"type": "note_on", "time": 14, "note": 67, "velocity": 113, "channel": 0}, {"type": "note_off", "time": 103, "note": 67, "velocity": 113, "channel": 0}, {"type": "note_on", "time": 31, "note": 71, "velocity": 99, "channel": 0}, {"type": "note_off", "time": 50, "note": 71, "velocity": 99, "channel": 0}, {"type": "note_on", "time": 22, "note": 74, "velocity": 107, "channel": 0}, {"type": "note_off", "time": 110, "note": 74, "velocity": 107, "channel": 0}, {"type": "note_on", "time": 21, "note": 75, "velocity": 106, "channel": 0}, {"type": "note_off", "time": 58, "note": 75, "velocity": 106, "channel": 0}, {"type": "note_on", "time": 132, "note": 77, "velocity": 111, "channel": 0}, {"type": "note_off", "time": 294, "note": 77, "velocity": 111, "channel": 0}, {"type": "note_on", "time": 182, "note": 79, "velocity": 98, "channel": 0}, {"type": "note_off", "time": 80, "note": 79, "velocity": 98, "channel": 0}, {"type": "note_on", "time": 12, "note": 78, "velocity": 115, "channel": 0}, {"type": "note_off", "time": 35, "note": 78, "velocity": 115, "channel": 0}, {"type": "note_on", "time": 8, "note": 79, "velocity": 107, "channel": 0}, {"type": "note_off", "time": 33, "note": 79, "velocity": 107, "channel": 0}, {"type": "note_on", "time": 14, "note": 78, "velocity": 109, "channel": 0}, {"type": "note_off", "time": 71, "note": 78, "velocity": 109, "channel": 0}, {"type": "note_on", "time": 14, "note": 76, "velocity": 113, "channel": 0}, {"type": "note_off", "time": 73, "note": 76, "velocity": 113, "channel": 0}, {"type": "note_on", "time": 33, "note": 75, "velocity": 113, "channel": 0}, {"type": "note_off", "time": 81, "note": 75, "velocity": 113, "channel": 0}, {"type": "note_on", "time": 10, "note": 74, "velocity": 108, "channel": 0}, {"type": "note_off", "time": 73, "note": 74, "velocity": 108, "channel": 0}, {"type": "note_on", "time": 29, "note": 72, "velocity": 117, "channel": 0}, {"type": "note_off", "time": 72, "note": 72, "velocity": 117, "channel": 0}, {"type": "note_on", "time": 17, "note": 71, "velocity": 113, "channel": 0}, {"type": "note_off", "time": 85, "note": 71, "velocity": 113, "channel": 0}, {"type": "note_on", "time": 12, "note": 70, "velocity": 114, "channel": 0}, {"type": "note_off", "time": 84, "note": 70, "velocity": 114, "channel": 0}, {"type": "note_on", "time": 17, "note": 69, "velocity": 115, "channel": 0}, {"type": "note_off", "time": 84, "note": 69, "velocity": 115, "channel": 0}, {"type": "note_on", "time": 5, "note": 68, "velocity": 118, "channel": 0}, {"type": "note_off", "time": 75, "note": 68, "velocity": 118, "channel": 0}, {"type": "note_on", "time": 19, "note": 67, "velocity": 115, "channel": 0}, {"type": "note_off", "time": 64, "note": 67, "velocity": 115, "channel": 0}, {"type": "note_on", "time": 18, "note": 66, "velocity": 110, "channel": 0}, {"type": "note_off", "time": 76, "note": 66, "velocity": 110, "channel": 0}, {"type": "note_on", "time": 27, "note": 73, "velocity": 117, "channel": 0}, {"type": "note_off", "time": 59, "note": 73, "velocity": 117, "channel": 0}, {"type": "note_on", "time": 34, "note": 65, "velocity": 110, "channel": 0}, {"type": "note_off", "time": 103, "note": 65, "velocity": 110, "channel": 0}, {"type": "note_on", "time": 22, "note": 64, "velocity": 109, "channel": 0}, {"type": "note_off", "time": 67, "note": 64, "velocity": 109, "channel": 0}, {"type": "note_on", "time": 25, "note": 63, "velocity": 93, "channel": 0}, {"type": "note_off", "time": 137, "note": 63, "velocity": 93, "channel": 0}, {"type": "note_on", "time": 29, "note": 54, "velocity": 97, "channel": 0}, {"type": "note_off", "time": 109, "note": 54, "velocity": 97, "channel": 0}, {"type": "note_on", "time": 14, "note": 56, "velocity": 107, "channel": 0}, {"type": "note_off", "time": 89, "note": 56, "velocity": 107, "channel": 0}, {"type": "note_on", "time": 80, "note": 59, "velocity": 84, "channel": 0}, {"type": "note_off", "time": 18, "note": 59, "velocity": 84, "channel": 0}, {"type": "note_on", "time": 18, "note": 60, "velocity": 110, "channel": 0}, {"type": "note_off", "time": 16, "note": 60, "velocity": 110, "channel": 0}, {"type": "note_on", "time": 10, "note": 62, "velocity": 105, "channel": 0}, {"type": "note_off", "time": 16, "note": 62, "velocity": 105, "channel": 0}, {"type": "note_on", "time": 10, "note": 60, "velocity": 102, "channel": 0}, {"type": "note_off", "time": 86, "note": 60, "velocity": 102, "channel": 0}, {"type": "note_on", "time": 35, "note": 61, "velocity": 100, "channel": 0}, {"type": "note_off", "time": 98, "note": 61, "velocity": 100, "channel": 0}, {"type": "note_on", "time": 14, "note": 62, "velocity": 104, "channel": 0}, {"type": "note_off", "time": 70, "note": 62, "velocity": 104, "channel": 0}, {"type": "note_on", "time": 5, "note": 65, "velocity": 102, "channel": 0}, {"type": "note_off", "time": 42, "note": 65, "velocity": 102, "channel": 0}, {"type": "note_on", "time": 24, "note": 69, "velocity": 123, "channel": 0}, {"type": "note_off", "time": 103, "note": 69, "velocity": 123, "channel": 0}, {"type": "note_on", "time": 25, "note": 68, "velocity": 115, "channel": 0}, {"type": "note_off", "time": 66, "note": 68, "velocity": 115, "channel": 0}, {"type": "note_on", "time": 17, "note": 64, "velocity": 105, "channel": 0}, {"type": "note_off", "time": 96, "note": 64, "velocity": 105, "channel": 0}, {"type": "note_on", "time": 16, "note": 62, "velocity": 88, "channel": 0}, {"type": "note_off", "time": 36, "note": 62, "velocity": 88, "channel": 0}, {"type": "note_on", "time": 38, "note": 67, "velocity": 110, "channel": 0}, {"type": "note_off", "time": 85, "note": 67, "velocity": 110, "channel": 0}, {"type": "note_on", "time": 21, "note": 70, "velocity": 116, "channel": 0}, {"type": "note_off", "time": 77, "note": 70, "velocity": 116, "channel": 0}, {"type": "note_on", "time": 8, "note": 69, "velocity": 111, "channel": 0}, {"type": "note_off", "time": 103, "note": 69, "velocity": 111, "channel": 0}, {"type": "note_on", "time": 17, "note": 67, "velocity": 97, "channel": 0}, {"type": "note_off", "time": 48, "note": 67, "velocity": 97, "channel": 0}, {"type": "note_on", "time": 6, "note": 71, "velocity": 119, "channel": 0}, {"type": "note_off", "time": 80, "note": 71, "velocity": 119, "channel": 0}, {"type": "note_on", "time": 3, "note": 72, "velocity": 105, "channel": 0}, {"type": "note_off", "time": 52, "note": 72, "velocity": 105, "channel": 0}, {"type": "note_on", "time": 15, "note": 74, "velocity": 105, "channel": 0}, {"type": "note_off", "time": 34, "note": 74, "velocity": 105, "channel": 0}, {"type": "note_on", "time": 24, "note": 71, "velocity": 104, "channel": 0}, {"type": "note_off", "time": 54, "note": 71, "velocity": 104, "channel": 0}, {"type": "note_on", "time": 12, "note": 72, "velocity": 107, "channel": 0}, {"type": "note_off", "time": 44, "note": 72, "velocity": 107, "channel": 0}, {"type": "note_on", "time": 21, "note": 74, "velocity": 115, "channel": 0}, {"type": "note_off", "time": 38, "note": 74, "velocity": 115, "channel": 0}, {"type": "note_on", "time": 17, "note": 71, "velocity": 98, "channel": 0}, {"type": "note_off", "time": 134, "note": 71, "velocity": 98, "channel": 0}, {"type": "note_on", "time": 385, "note": 71, "velocity": 95, "channel": 0}, {"type": "note_off", "time": 34, "note": 71, "velocity": 95, "channel": 0}, {"type": "note_on", "time": 7, "note": 72, "velocity": 114, "channel": 0}, {"type": "note_off", "time": 44, "note": 72, "velocity": 114, "channel": 0}, {"type": "note_on", "time": 5, "note": 71, "velocity": 112, "channel": 0}, {"type": "note_off", "time": 50, "note": 71, "velocity": 112, "channel": 0}, {"type": "note_on", "time": 19, "note": 70, "velocity": 115, "channel": 0}, {"type": "note_off", "time": 34, "note": 70, "velocity": 115, "channel": 0}, {"type": "note_on", "time": 16, "note": 69, "velocity": 107, "channel": 0}, {"type": "note_off", "time": 42, "note": 69, "velocity": 107, "channel": 0}, {"type": "note_on", "time": 11, "note": 68, "velocity": 118, "channel": 0}, {"type": "note_off", "time": 25, "note": 68, "velocity": 118, "channel": 0}, {"type": "note_on", "time": 12, "note": 67, "velocity": 107, "channel": 0}, {"type": "note_off", "time": 22, "note": 67, "velocity": 107, "channel": 0}, {"type": "note_on", "time": 16, "note": 65, "velocity": 114, "channel": 0}, {"type": "note_off", "time": 40, "note": 65, "velocity": 114, "channel": 0}, {"type": "note_on", "time": 14, "note": 63, "velocity": 103, "channel": 0}, {"type": "note_off", "time": 39, "note": 63, "velocity": 103, "channel": 0}, {"type": "note_on", "time": 11, "note": 60, "velocity": 112, "channel": 0}, {"type": "note_off", "time": 35, "note": 60, "velocity": 112, "channel": 0}, {"type": "note_on", "time": 19, "note": 59, "velocity": 105, "channel": 0}, {"type": "note_off", "time": 66, "note": 59, "velocity": 105, "channel": 0}, {"type": "note_on", "time": 10, "note": 60, "velocity": 112, "channel": 0}, {"type": "note_off", "time": 44, "note": 60, "velocity": 112, "channel": 0}, {"type": "note_on", "time": 15, "note": 62, "velocity": 113, "channel": 0}, {"type": "note_off", "time": 52, "note": 62, "velocity": 113, "channel": 0}, {"type": "note_on", "time": 11, "note": 60, "velocity": 111, "channel": 0}, {"type": "note_off", "time": 42, "note": 60, "velocity": 111, "channel": 0}, {"type": "note_on", "time": 3, "note": 59, "velocity": 104, "channel": 0}, {"type": "note_off", "time": 31, "note": 59, "velocity": 104, "channel": 0}, {"type": "note_on", "time": 21, "note": 56, "velocity": 93, "channel": 0}, {"type": "note_off", "time": 56, "note": 56, "velocity": 93, "channel": 0}, {"type": "note_on", "time": 25, "note": 59, "velocity": 82, "channel": 0}, {"type": "note_off", "time": 44, "note": 59, "velocity": 82, "channel": 0}, {"type": "note_on", "time": 1, "note": 60, "velocity": 112, "channel": 0}, {"type": "note_off", "time": 34, "note": 60, "velocity": 112, "channel": 0}, {"type": "note_on", "time": 1, "note": 61, "velocity": 110, "channel": 0}, {"type": "note_off", "time": 19, "note": 61, "velocity": 110, "channel": 0}, {"type": "note_on", "time": 12, "note": 60, "velocity": 110, "channel": 0}, {"type": "note_off", "time": 42, "note": 60, "velocity": 110, "channel": 0}, {"type": "note_on", "time": 16, "note": 58, "velocity": 94, "channel": 0}, {"type": "note_off", "time": 34, "note": 58, "velocity": 94, "channel": 0}, {"type": "note_on", "time": 6, "note": 60, "velocity": 119, "channel": 0}, {"type": "note_off", "time": 52, "note": 60, "velocity": 119, "channel": 0}, {"type": "note_on", "time": 1, "note": 65, "velocity": 121, "channel": 0}, {"type": "note_off", "time": 42, "note": 65, "velocity": 121, "channel": 0}, {"type": "note_on", "time": 1, "note": 64, "velocity": 102, "channel": 0}, {"type": "note_off", "time": 15, "note": 64, "velocity": 102, "channel": 0}, {"type": "note_on", "time": 17, "note": 62, "velocity": 100, "channel": 0}, {"type": "note_off", "time": 52, "note": 62, "velocity": 100, "channel": 0}, {"type": "note_on", "time": 3, "note": 63, "velocity": 95, "channel": 0}, {"type": "note_off", "time": 45, "note": 63, "velocity": 95, "channel": 0}, {"type": "note_on", "time": 3, "note": 68, "velocity": 99, "channel": 0}, {"type": "note_off", "time": 20, "note": 68, "velocity": 99, "channel": 0}, {"type": "note_on", "time": 11, "note": 70, "velocity": 105, "channel": 0}, {"type": "note_off", "time": 22, "note": 70, "velocity": 105, "channel": 0}, {"type": "note_on", "time": 12, "note": 72, "velocity": 119, "channel": 0}, {"type": "note_off", "time": 34, "note": 72, "velocity": 119, "channel": 0}, {"type": "note_on", "time": 10, "note": 73, "velocity": 114, "channel": 0}, {"type": "note_off", "time": 28, "note": 73, "velocity": 114, "channel": 0}, {"type": "note_on", "time": 5, "note": 74, "velocity": 100, "channel": 0}, {"type": "note_off", "time": 44, "note": 74, "velocity": 100, "channel": 0}, {"type": "note_on", "time": 7, "note": 75, "velocity": 101, "channel": 0}, {"type": "note_off", "time": 22, "note": 75, "velocity": 101, "channel": 0}, {"type": "note_on", "time": 12, "note": 76, "velocity": 100, "channel": 0}, {"type": "note_off", "time": 26, "note": 76, "velocity": 100, "channel": 0}, {"type": "note_on", "time": 6, "note": 77, "velocity": 102, "channel": 0}, {"type": "note_off", "time": 29, "note": 77, "velocity": 102, "channel": 0}, {"type": "note_on", "time": 29, "note": 70, "velocity": 94, "channel": 0}, {"type": "note_off", "time": 35, "note": 70, "velocity": 94, "channel": 0}, {"type": "note_on", "time": 306, "note": 77, "velocity": 46, "channel": 0}, {"type": "note_off", "time": 44, "note": 77, "velocity": 46, "channel": 0}, {"type": "note_on", "time": 10, "note": 78, "velocity": 116, "channel": 0}, {"type": "note_off", "time": 58, "note": 78, "velocity": 116, "channel": 0}, {"type": "note_on", "time": 10, "note": 79, "velocity": 107, "channel": 0}, {"type": "note_off", "time": 165, "note": 79, "velocity": 107, "channel": 0}, {"type": "note_on", "time": 21, "note": 77, "velocity": 106, "channel": 0}, {"type": "note_off", "time": 40, "note": 77, "velocity": 106, "channel": 0}, {"type": "note_on", "time": 44, "note": 75, "velocity": 117, "channel": 0}, {"type": "note_off", "time": 86, "note": 75, "velocity": 117, "channel": 0}, {"type": "note_on", "time": 17, "note": 74, "velocity": 110, "channel": 0}, {"type": "note_off", "time": 52, "note": 74, "velocity": 110, "channel": 0}, {"type": "note_on", "time": 26, "note": 72, "velocity": 117, "channel": 0}, {"type": "note_off", "time": 80, "note": 72, "velocity": 117, "channel": 0}, {"type": "note_on", "time": 16, "note": 71, "velocity": 115, "channel": 0}, {"type": "note_off", "time": 85, "note": 71, "velocity": 115, "channel": 0}, {"type": "note_on", "time": 16, "note": 70, "velocity": 111, "channel": 0}, {"type": "note_off", "time": 75, "note": 70, "velocity": 111, "channel": 0}, {"type": "note_on", "time": 15, "note": 69, "velocity": 115, "channel": 0}, {"type": "note_off", "time": 63, "note": 69, "velocity": 115, "channel": 0}, {"type": "note_on", "time": 17, "note": 68, "velocity": 114, "channel": 0}, {"type": "note_off", "time": 84, "note": 68, "velocity": 114, "channel": 0}, {"type": "note_on", "time": 15, "note": 67, "velocity": 109, "channel": 0}, {"type": "note_off", "time": 67, "note": 67, "velocity": 109, "channel": 0}, {"type": "note_on", "time": 30, "note": 66, "velocity": 110, "channel": 0}, {"type": "note_off", "time": 95, "note": 66, "velocity": 110, "channel": 0}, {"type": "note_on", "time": 47, "note": 57, "velocity": 91, "channel": 0}, {"type": "note_off", "time": 34, "note": 57, "velocity": 91, "channel": 0}, {"type": "note_on", "time": 34, "note": 61, "velocity": 98, "channel": 0}, {"type": "note_off", "time": 67, "note": 61, "velocity": 98, "channel": 0}, {"type": "note_on", "time": 28, "note": 64, "velocity": 112, "channel": 0}, {"type": "note_off", "time": 78, "note": 64, "velocity": 112, "channel": 0}, {"type": "note_on", "time": 10, "note": 65, "velocity": 103, "channel": 0}, {"type": "note_off", "time": 77, "note": 65, "velocity": 103, "channel": 0}, {"type": "note_on", "time": 49, "note": 64, "velocity": 99, "channel": 0}, {"type": "note_off", "time": 54, "note": 64, "velocity": 99, "channel": 0}, {"type": "note_on", "time": 5, "note": 65, "velocity": 105, "channel": 0}, {"type": "note_off", "time": 70, "note": 65, "velocity": 105, "channel": 0}, {"type": "note_on", "time": 3, "note": 64, "velocity": 95, "channel": 0}, {"type": "note_off", "time": 16, "note": 64, "velocity": 95, "channel": 0}, {"type": "note_on", "time": 85, "note": 56, "velocity": 98, "channel": 0}, {"type": "note_off", "time": 87, "note": 56, "velocity": 98, "channel": 0}, {"type": "note_on", "time": 54, "note": 56, "velocity": 104, "channel": 0}, {"type": "note_off", "time": 50, "note": 56, "velocity": 104, "channel": 0}, {"type": "note_on", "time": 210, "note": 53, "velocity": 94, "channel": 0}, {"type": "note_off", "time": 84, "note": 53, "velocity": 94, "channel": 0}, {"type": "note_on", "time": 29, "note": 55, "velocity": 108, "channel": 0}, {"type": "note_off", "time": 62, "note": 55, "velocity": 108, "channel": 0}, {"type": "note_on", "time": 28, "note": 60, "velocity": 98, "channel": 0}, {"type": "note_off", "time": 53, "note": 60, "velocity": 98, "channel": 0}, {"type": "note_on", "time": 19, "note": 65, "velocity": 112, "channel": 0}, {"type": "note_off", "time": 85, "note": 65, "velocity": 112, "channel": 0}, {"type": "note_on", "time": 11, "note": 62, "velocity": 100, "channel": 0}, {"type": "note_off", "time": 99, "note": 62, "velocity": 100, "channel": 0}, {"type": "note_on", "time": 11, "note": 63, "velocity": 101, "channel": 0}, {"type": "note_off", "time": 73, "note": 63, "velocity": 101, "channel": 0}, {"type": "note_on", "time": 7, "note": 64, "velocity": 104, "channel": 0}, {"type": "note_off", "time": 82, "note": 64, "velocity": 104, "channel": 0}, {"type": "note_on", "time": 2, "note": 63, "velocity": 95, "channel": 0}, {"type": "note_off", "time": 17, "note": 63, "velocity": 95, "channel": 0}, {"type": "note_on", "time": 68, "note": 58, "velocity": 90, "channel": 0}, {"type": "note_off", "time": 112, "note": 58, "velocity": 90, "channel": 0}, {"type": "note_on", "time": 29, "note": 62, "velocity": 115, "channel": 0}, {"type": "note_off", "time": 57, "note": 62, "velocity": 115, "channel": 0}, {"type": "note_on", "time": 12, "note": 57, "velocity": 91, "channel": 0}, {"type": "note_off", "time": 95, "note": 57, "velocity": 91, "channel": 0}, {"type": "note_on", "time": 5, "note": 58, "velocity": 91, "channel": 0}, {"type": "note_off", "time": 64, "note": 58, "velocity": 91, "channel": 0}, {"type": "note_on", "time": 26, "note": 60, "velocity": 106, "channel": 0}, {"type": "note_off", "time": 110, "note": 60, "velocity": 106, "channel": 0}, {"type": "note_on", "time": 7, "note": 61, "velocity": 103, "channel": 0}, {"type": "note_off", "time": 28, "note": 61, "velocity": 103, "channel": 0}, {"type": "note_on", "time": 16, "note": 60, "velocity": 106, "channel": 0}, {"type": "note_off", "time": 25, "note": 60, "velocity": 106, "channel": 0}, {"type": "note_on", "time": 0, "note": 57, "velocity": 85, "channel": 0}, {"type": "note_off", "time": 114, "note": 57, "velocity": 85, "channel": 0}, {"type": "note_on", "time": 64, "note": 60, "velocity": 106, "channel": 0}, {"type": "note_off", "time": 109, "note": 60, "velocity": 106, "channel": 0}, {"type": "note_on", "time": 33, "note": 69, "velocity": 113, "channel": 0}, {"type": "note_off", "time": 48, "note": 69, "velocity": 113, "channel": 0}, {"type": "note_on", "time": 517, "note": 68, "velocity": 123, "channel": 0}, {"type": "note_off", "time": 94, "note": 68, "velocity": 123, "channel": 0}, {"type": "note_on", "time": 84, "note": 67, "velocity": 116, "channel": 0}, {"type": "note_off", "time": 98, "note": 67, "velocity": 116, "channel": 0}, {"type": "note_on", "time": 76, "note": 65, "velocity": 108, "channel": 0}, {"type": "note_off", "time": 84, "note": 65, "velocity": 108, "channel": 0}, {"type": "note_on", "time": 15, "note": 63, "velocity": 93, "channel": 0}, {"type": "note_off", "time": 78, "note": 63, "velocity": 93, "channel": 0}, {"type": "note_on", "time": 105, "note": 68, "velocity": 119, "channel": 0}, {"type": "note_off", "time": 99, "note": 68, "velocity": 119, "channel": 0}, {"type": "note_on", "time": 30, "note": 68, "velocity": 105, "channel": 0}, {"type": "note_off", "time": 94, "note": 68, "velocity": 105, "channel": 0}, {"type": "note_on", "time": 10, "note": 63, "velocity": 90, "channel": 0}, {"type": "note_off", "time": 53, "note": 63, "velocity": 90, "channel": 0}, {"type": "note_on", "time": 10, "note": 68, "velocity": 89, "channel": 0}, {"type": "note_off", "time": 22, "note": 68, "velocity": 89, "channel": 0}, {"type": "note_on", "time": 10, "note": 64, "velocity": 81, "channel": 0}, {"type": "note_off", "time": 29, "note": 64, "velocity": 81, "channel": 0}, {"type": "note_on", "time": 16, "note": 70, "velocity": 117, "channel": 0}, {"type": "note_off", "time": 77, "note": 70, "velocity": 117, "channel": 0}, {"type": "note_on", "time": 114, "note": 68, "velocity": 103, "channel": 0}, {"type": "note_off", "time": 78, "note": 68, "velocity": 103, "channel": 0}, {"type": "note_on", "time": 1, "note": 67, "velocity": 96, "channel": 0}, {"type": "note_off", "time": 25, "note": 67, "velocity": 96, "channel": 0}, {"type": "note_on", "time": 87, "note": 72, "velocity": 116, "channel": 0}, {"type": "note_off", "time": 112, "note": 72, "velocity": 116, "channel": 0}, {"type": "note_on", "time": 29, "note": 72, "velocity": 111, "channel": 0}, {"type": "note_off", "time": 58, "note": 72, "velocity": 111, "channel": 0}, {"type": "note_on", "time": 22, "note": 70, "velocity": 100, "channel": 0}, {"type": "note_off", "time": 145, "note": 70, "velocity": 100, "channel": 0}, {"type": "note_on", "time": 30, "note": 75, "velocity": 114, "channel": 0}, {"type": "note_off", "time": 78, "note": 75, "velocity": 114, "channel": 0}, {"type": "note_on", "time": 57, "note": 71, "velocity": 116, "channel": 0}, {"type": "note_off", "time": 52, "note": 71, "velocity": 116, "channel": 0}, {"type": "note_on", "time": 211, "note": 70, "velocity": 116, "channel": 0}, {"type": "note_off", "time": 78, "note": 70, "velocity": 116, "channel": 0}, {"type": "note_on", "time": 26, "note": 68, "velocity": 119, "channel": 0}, {"type": "note_off", "time": 75, "note": 68, "velocity": 119, "channel": 0}, {"type": "note_on", "time": 16, "note": 67, "velocity": 109, "channel": 0}, {"type": "note_off", "time": 66, "note": 67, "velocity": 109, "channel": 0}, {"type": "note_on", "time": 19, "note": 70, "velocity": 116, "channel": 0}, {"type": "note_off", "time": 57, "note": 70, "velocity": 116, "channel": 0}, {"type": "note_on", "time": 19, "note": 68, "velocity": 104, "channel": 0}, {"type": "note_off", "time": 36, "note": 68, "velocity": 104, "channel": 0}, {"type": "note_on", "time": 12, "note": 70, "velocity": 102, "channel": 0}, {"type": "note_off", "time": 21, "note": 70, "velocity": 102, "channel": 0}, {"type": "note_on", "time": 19, "note": 68, "velocity": 106, "channel": 0}, {"type": "note_off", "time": 42, "note": 68, "velocity": 106, "channel": 0}, {"type": "note_on", "time": 15, "note": 66, "velocity": 98, "channel": 0}, {"type": "note_off", "time": 36, "note": 66, "velocity": 98, "channel": 0}, {"type": "note_on", "time": 11, "note": 65, "velocity": 111, "channel": 0}, {"type": "note_off", "time": 112, "note": 65, "velocity": 111, "channel": 0}, {"type": "note_on", "time": 6, "note": 62, "velocity": 84, "channel": 0}, {"type": "note_off", "time": 75, "note": 62, "velocity": 84, "channel": 0}, {"type": "note_on", "time": 17, "note": 63, "velocity": 95, "channel": 0}, {"type": "note_off", "time": 75, "note": 63, "velocity": 95, "channel": 0}, {"type": "note_on", "time": 19, "note": 65, "velocity": 114, "channel": 0}, {"type": "note_off", "time": 71, "note": 65, "velocity": 114, "channel": 0}, {"type": "note_on", "time": 14, "note": 61, "velocity": 103, "channel": 0}, {"type": "note_off", "time": 62, "note": 61, "velocity": 103, "channel": 0}, {"type": "note_on", "time": 37, "note": 59, "velocity": 103, "channel": 0}, {"type": "note_off", "time": 139, "note": 59, "velocity": 103, "channel": 0}, {"type": "note_on", "time": 75, "note": 61, "velocity": 112, "channel": 0}, {"type": "note_off", "time": 66, "note": 61, "velocity": 112, "channel": 0}, {"type": "note_on", "time": 114, "note": 58, "velocity": 99, "channel": 0}, {"type": "note_off", "time": 78, "note": 58, "velocity": 99, "channel": 0}, {"type": "note_on", "time": 26, "note": 61, "velocity": 93, "channel": 0}, {"type": "note_off", "time": 64, "note": 61, "velocity": 93, "channel": 0}, {"type": "note_on", "time": 22, "note": 65, "velocity": 97, "channel": 0}, {"type": "note_off", "time": 56, "note": 65, "velocity": 97, "channel": 0}, {"type": "note_on", "time": 28, "note": 68, "velocity": 116, "channel": 0}, {"type": "note_off", "time": 152, "note": 68, "velocity": 116, "channel": 0}, {"type": "note_on", "time": 43, "note": 66, "velocity": 89, "channel": 0}, {"type": "note_off", "time": 103, "note": 66, "velocity": 89, "channel": 0}, {"type": "note_on", "time": 5, "note": 68, "velocity": 85, "channel": 0}, {"type": "note_off", "time": 67, "note": 68, "velocity": 85, "channel": 0}, {"type": "note_on", "time": 10, "note": 70, "velocity": 107, "channel": 0}, {"type": "note_off", "time": 92, "note": 70, "velocity": 107, "channel": 0}, {"type": "note_on", "time": 19, "note": 73, "velocity": 120, "channel": 0}, {"type": "note_off", "time": 92, "note": 73, "velocity": 120, "channel": 0}, {"type": "note_on", "time": 491, "note": 69, "velocity": 108, "channel": 0}, {"type": "note_off", "time": 28, "note": 69, "velocity": 108, "channel": 0}, {"type": "note_on", "time": 16, "note": 71, "velocity": 119, "channel": 0}, {"type": "note_off", "time": 30, "note": 71, "velocity": 119, "channel": 0}, {"type": "note_on", "time": 12, "note": 72, "velocity": 120, "channel": 0}, {"type": "note_off", "time": 150, "note": 72, "velocity": 120, "channel": 0}, {"type": "note_on", "time": 17, "note": 68, "velocity": 123, "channel": 0}, {"type": "note_off", "time": 61, "note": 68, "velocity": 123, "channel": 0}, {"type": "note_on", "time": 10, "note": 70, "velocity": 107, "channel": 0}, {"type": "note_off", "time": 30, "note": 70, "velocity": 107, "channel": 0}, {"type": "note_on", "time": 11, "note": 68, "velocity": 121, "channel": 0}, {"type": "note_off", "time": 43, "note": 68, "velocity": 121, "channel": 0}, {"type": "note_on", "time": 12, "note": 65, "velocity": 112, "channel": 0}, {"type": "note_off", "time": 48, "note": 65, "velocity": 112, "channel": 0}, {"type": "note_on", "time": 19, "note": 64, "velocity": 105, "channel": 0}, {"type": "note_off", "time": 63, "note": 64, "velocity": 105, "channel": 0}, {"type": "note_on", "time": 31, "note": 60, "velocity": 103, "channel": 0}, {"type": "note_off", "time": 48, "note": 60, "velocity": 103, "channel": 0}, {"type": "note_on", "time": 17, "note": 67, "velocity": 117, "channel": 0}, {"type": "note_off", "time": 39, "note": 67, "velocity": 117, "channel": 0}, {"type": "note_on", "time": 8, "note": 69, "velocity": 109, "channel": 0}, {"type": "note_off", "time": 33, "note": 69, "velocity": 109, "channel": 0}, {"type": "note_on", "time": 8, "note": 67, "velocity": 108, "channel": 0}, {"type": "note_off", "time": 64, "note": 67, "velocity": 108, "channel": 0}, {"type": "note_on", "time": 30, "note": 65, "velocity": 110, "channel": 0}, {"type": "note_off", "time": 128, "note": 65, "velocity": 110, "channel": 0}, {"type": "note_on", "time": 7, "note": 60, "velocity": 106, "channel": 0}, {"type": "note_off", "time": 50, "note": 60, "velocity": 106, "channel": 0}, {"type": "note_on", "time": 19, "note": 63, "velocity": 101, "channel": 0}, {"type": "note_off", "time": 81, "note": 63, "velocity": 101, "channel": 0}, {"type": "note_on", "time": 19, "note": 68, "velocity": 118, "channel": 0}, {"type": "note_off", "time": 59, "note": 68, "velocity": 118, "channel": 0}, {"type": "note_on", "time": 38, "note": 62, "velocity": 103, "channel": 0}, {"type": "note_off", "time": 49, "note": 62, "velocity": 103, "channel": 0}, {"type": "note_on", "time": 45, "note": 70, "velocity": 104, "channel": 0}, {"type": "note_off", "time": 20, "note": 70, "velocity": 104, "channel": 0}, {"type": "note_on", "time": 6, "note": 71, "velocity": 116, "channel": 0}, {"type": "note_off", "time": 34, "note": 71, "velocity": 116, "channel": 0}, {"type": "note_on", "time": 3, "note": 72, "velocity": 115, "channel": 0}, {"type": "note_off", "time": 72, "note": 72, "velocity": 115, "channel": 0}, {"type": "note_on", "time": 72, "note": 70, "velocity": 104, "channel": 0}, {"type": "note_off", "time": 387, "note": 70, "velocity": 104, "channel": 0}, {"type": "note_on", "time": 244, "note": 72, "velocity": 119, "channel": 0}, {"type": "note_off", "time": 101, "note": 72, "velocity": 119, "channel": 0}, {"type": "note_on", "time": 96, "note": 70, "velocity": 111, "channel": 0}, {"type": "note_off", "time": 95, "note": 70, "velocity": 111, "channel": 0}, {"type": "note_on", "time": 80, "note": 67, "velocity": 110, "channel": 0}, {"type": "note_off", "time": 115, "note": 67, "velocity": 110, "channel": 0}, {"type": "note_on", "time": 98, "note": 63, "velocity": 99, "channel": 0}, {"type": "note_off", "time": 117, "note": 63, "velocity": 99, "channel": 0}, {"type": "note_on", "time": 33, "note": 60, "velocity": 106, "channel": 0}, {"type": "note_off", "time": 52, "note": 60, "velocity": 106, "channel": 0}, {"type": "note_on", "time": 96, "note": 58, "velocity": 100, "channel": 0}, {"type": "note_off", "time": 262, "note": 58, "velocity": 100, "channel": 0}, {"type": "note_on", "time": 389, "note": 73, "velocity": 125, "channel": 0}, {"type": "note_off", "time": 82, "note": 73, "velocity": 125, "channel": 0}, {"type": "note_on", "time": 108, "note": 70, "velocity": 116, "channel": 0}, {"type": "note_off", "time": 70, "note": 70, "velocity": 116, "channel": 0}, {"type": "note_on", "time": 133, "note": 66, "velocity": 105, "channel": 0}, {"type": "note_off", "time": 114, "note": 66, "velocity": 105, "channel": 0}, {"type": "note_on", "time": 63, "note": 63, "velocity": 105, "channel": 0}, {"type": "note_off", "time": 77, "note": 63, "velocity": 105, "channel": 0}, {"type": "note_on", "time": 68, "note": 58, "velocity": 102, "channel": 0}, {"type": "note_off", "time": 42, "note": 58, "velocity": 102, "channel": 0}, {"type": "note_on", "time": 20, "note": 61, "velocity": 108, "channel": 0}, {"type": "note_off", "time": 104, "note": 61, "velocity": 108, "channel": 0}, {"type": "note_on", "time": 21, "note": 60, "velocity": 100, "channel": 0}, {"type": "note_off", "time": 368, "note": 60, "velocity": 100, "channel": 0}, {"type": "note_on", "time": 262, "note": 72, "velocity": 122, "channel": 0}, {"type": "note_off", "time": 64, "note": 72, "velocity": 122, "channel": 0}, {"type": "note_on", "time": 132, "note": 69, "velocity": 112, "channel": 0}, {"type": "note_off", "time": 128, "note": 69, "velocity": 112, "channel": 0}, {"type": "note_on", "time": 14, "note": 67, "velocity": 104, "channel": 0}, {"type": "note_off", "time": 31, "note": 67, "velocity": 104, "channel": 0}, {"type": "note_on", "time": 14, "note": 65, "velocity": 110, "channel": 0}, {"type": "note_off", "time": 35, "note": 65, "velocity": 110, "channel": 0}, {"type": "note_on", "time": 28, "note": 61, "velocity": 96, "channel": 0}, {"type": "note_off", "time": 80, "note": 61, "velocity": 96, "channel": 0}, {"type": "note_on", "time": 43, "note": 68, "velocity": 115, "channel": 0}, {"type": "note_off", "time": 183, "note": 68, "velocity": 115, "channel": 0}, {"type": "note_on", "time": 6, "note": 64, "velocity": 109, "channel": 0}, {"type": "note_off", "time": 76, "note": 64, "velocity": 109, "channel": 0}, {"type": "note_on", "time": 63, "note": 67, "velocity": 111, "channel": 0}, {"type": "note_off", "time": 95, "note": 67, "velocity": 111, "channel": 0}, {"type": "note_on", "time": 12, "note": 64, "velocity": 99, "channel": 0}, {"type": "note_off", "time": 56, "note": 64, "velocity": 99, "channel": 0}, {"type": "note_on", "time": 16, "note": 65, "velocity": 118, "channel": 0}, {"type": "note_off", "time": 67, "note": 65, "velocity": 118, "channel": 0}, {"type": "note_on", "time": 24, "note": 69, "velocity": 116, "channel": 0}, {"type": "note_off", "time": 90, "note": 69, "velocity": 116, "channel": 0}, {"type": "note_on", "time": 19, "note": 72, "velocity": 107, "channel": 0}, {"type": "note_off", "time": 57, "note": 72, "velocity": 107, "channel": 0}, {"type": "note_on", "time": 21, "note": 74, "velocity": 114, "channel": 0}, {"type": "note_off", "time": 67, "note": 74, "velocity": 114, "channel": 0}, {"type": "note_on", "time": 15, "note": 76, "velocity": 108, "channel": 0}, {"type": "note_off", "time": 15, "note": 76, "velocity": 108, "channel": 0}, {"type": "note_on", "time": 10, "note": 77, "velocity": 117, "channel": 0}, {"type": "note_off", "time": 34, "note": 77, "velocity": 117, "channel": 0}, {"type": "note_on", "time": 8, "note": 78, "velocity": 118, "channel": 0}, {"type": "note_off", "time": 30, "note": 78, "velocity": 118, "channel": 0}, {"type": "note_on", "time": 8, "note": 79, "velocity": 107, "channel": 0}, {"type": "note_off", "time": 98, "note": 79, "velocity": 107, "channel": 0}, {"type": "note_on", "time": 22, "note": 77, "velocity": 108, "channel": 0}, {"type": "note_off", "time": 227, "note": 77, "velocity": 108, "channel": 0}, {"type": "note_on", "time": 22, "note": 75, "velocity": 110, "channel": 0}, {"type": "note_off", "time": 91, "note": 75, "velocity": 110, "channel": 0}, {"type": "note_on", "time": 24, "note": 71, "velocity": 114, "channel": 0}, {"type": "note_off", "time": 95, "note": 71, "velocity": 114, "channel": 0}, {"type": "note_on", "time": 26, "note": 70, "velocity": 105, "channel": 0}, {"type": "note_off", "time": 54, "note": 70, "velocity": 105, "channel": 0}, {"type": "note_on", "time": 19, "note": 68, "velocity": 114, "channel": 0}, {"type": "note_off", "time": 78, "note": 68, "velocity": 114, "channel": 0}, {"type": "note_on", "time": 26, "note": 63, "velocity": 100, "channel": 0}, {"type": "note_off", "time": 76, "note": 63, "velocity": 100, "channel": 0}, {"type": "note_on", "time": 16, "note": 58, "velocity": 105, "channel": 0}, {"type": "note_off", "time": 52, "note": 58, "velocity": 105, "channel": 0}, {"type": "note_on", "time": 22, "note": 67, "velocity": 117, "channel": 0}, {"type": "note_off", "time": 71, "note": 67, "velocity": 117, "channel": 0}, {"type": "note_on", "time": 49, "note": 63, "velocity": 101, "channel": 0}, {"type": "note_off", "time": 40, "note": 63, "velocity": 101, "channel": 0}, {"type": "note_on", "time": 34, "note": 67, "velocity": 119, "channel": 0}, {"type": "note_off", "time": 80, "note": 67, "velocity": 119, "channel": 0}, {"type": "note_on", "time": 101, "note": 67, "velocity": 114, "channel": 0}, {"type": "note_off", "time": 145, "note": 67, "velocity": 114, "channel": 0}, {"type": "note_on", "time": 2, "note": 68, "velocity": 113, "channel": 0}, {"type": "note_off", "time": 75, "note": 68, "velocity": 113, "channel": 0}, {"type": "note_on", "time": 98, "note": 70, "velocity": 116, "channel": 0}, {"type": "note_off", "time": 95, "note": 70, "velocity": 116, "channel": 0}, {"type": "note_on", "time": 364, "note": 68, "velocity": 120, "channel": 0}, {"type": "note_off", "time": 109, "note": 68, "velocity": 120, "channel": 0}, {"type": "note_on", "time": 11, "note": 67, "velocity": 112, "channel": 0}, {"type": "note_off", "time": 58, "note": 67, "velocity": 112, "channel": 0}, {"type": "note_on", "time": 26, "note": 64, "velocity": 102, "channel": 0}, {"type": "note_off", "time": 71, "note": 64, "velocity": 102, "channel": 0}, {"type": "note_on", "time": 33, "note": 67, "velocity": 116, "channel": 0}, {"type": "note_off", "time": 82, "note": 67, "velocity": 116, "channel": 0}, {"type": "note_on", "time": 28, "note": 65, "velocity": 112, "channel": 0}, {"type": "note_off", "time": 267, "note": 65, "velocity": 112, "channel": 0}, {"type": "note_on", "time": 16, "note": 66, "velocity": 107, "channel": 0}, {"type": "note_off", "time": 35, "note": 66, "velocity": 107, "channel": 0}, {"type": "note_on", "time": 39, "note": 68, "velocity": 120, "channel": 0}, {"type": "note_off", "time": 131, "note": 68, "velocity": 120, "channel": 0}, {"type": "note_on", "time": 16, "note": 71, "velocity": 114, "channel": 0}, {"type": "note_off", "time": 57, "note": 71, "velocity": 114, "channel": 0}, {"type": "note_on", "time": 5, "note": 72, "velocity": 114, "channel": 0}, {"type": "note_off", "time": 92, "note": 72, "velocity": 114, "channel": 0}, {"type": "note_on", "time": 38, "note": 75, "velocity": 106, "channel": 0}, {"type": "note_off", "time": 110, "note": 75, "velocity": 106, "channel": 0}, {"type": "note_on", "time": 24, "note": 75, "velocity": 97, "channel": 0}, {"type": "note_off", "time": 417, "note": 75, "velocity": 97, "channel": 0}, {"type": "end_of_track", "time": 0}]]}