{"ticks_per_beat": 192, "tracks": [[{"type": "track_name", "name": "Melody", "time": 0}, {"type": "set_tempo", "tempo": 263157, "time": 0}, {"type": "key_signature", "key": "Bb", "time": 0}, {"type": "time_signature", "numerator": 4, "denominator": 4, "clocks_per_click": 24, "notated_32nd_notes_per_beat": 8, "time": 0}, {"type": "note_on", "time": 2620, "note": 62, "velocity": 112, "channel": 0}, {"type": "note_off", "time": 50, "note": 62, "velocity": 112, "channel": 0}, {"type": "note_on", "time": 5, "note": 63, "velocity": 108, "channel": 0}, {"type": "note_off", "time": 47, "note": 63, "velocity": 108, "channel": 0}, {"type": "note_on", "time": 14, "note": 64, "velocity": 107, "channel": 0}, {"type": "note_off", "time": 11, "note": 64, "velocity": 107, "channel": 0}, {"type": "note_on", "time": 23, "note": 65, "velocity": 115, "channel": 0}, {"type": "note_off", "time": 154, "note": 65, "velocity": 115, "channel": 0}, {"type": "note_on", "time": 2, "note": 62, "velocity": 98, "channel": 0}, {"type": "note_off", "time": 41, "note": 62, "velocity": 98, "channel": 0}, {"type": "note_on", "time": 20, "note": 63, "velocity": 108, "channel": 0}, {"type": "note_off", "time": 104, "note": 63, "velocity": 108, "channel": 0}, {"type": "note_on", "time": 5, "note": 65, "velocity": 108, "channel": 0}, {"type": "note_off", "time": 107, "note": 65, "velocity": 108, "channel": 0}, {"type": "note_on", "time": 107, "note": 62, "velocity": 102, "channel": 0}, {"type": "note_off", "time": 98, "note": 62, "velocity": 102, "channel": 0}, {"type": "note_on", "time": 77, "note": 60, "velocity": 101, "channel": 0}, {"type": "note_off", "time": 83, "note": 60, "velocity": 101, "channel": 0}, {"type": "note_on", "time": 8, "note": 58, "velocity": 95, "channel": 0}, {"type": "note_off", "time": 116, "note": 58, "velocity": 95, "channel": 0}, {"type": "note_on", "time": 74, "note": 60, "velocity": 94, "channel": 0}, {"type": "note_off", "time": 193, "note": 60, "velocity": 94, "channel": 0}, {"type": "note_on", "time": 136, "note": 58, "velocity": 101, "channel": 0}, {"type": "note_off", "time": 104, "note": 58, "velocity": 101, "channel": 0}, {"type": "note_on", "time": 2, "note": 57, "velocity": 87, "channel": 0}, {"type": "note_off", "time": 71, "note": 57, "velocity": 87, "channel": 0}, {"type": "note_on", "time": 2, "note": 58, "velocity": 87, "channel": 0}, {"type": "note_off", "time": 68, "note": 58, "velocity": 87, "channel": 0}, {"type": "note_on", "time": 32, "note": 62, "velocity": 112, "channel": 0}, {"type": "note_off", "time": 83, "note": 62, "velocity": 112, "channel": 0}, {"type": "note_on", "time": 0, "note": 65, "velocity": 115, "channel": 0}, {"type": "note_off", "time": 104, "note": 65, "velocity": 115, "channel": 0}, {"type": "note_on", "time": 0, "note": 69, "velocity": 111, "channel": 0}, {"type": "note_off", "time": 80, "note": 69, "velocity": 111, "channel": 0}, {"type": "note_on", "time": 5, "note": 68, "velocity": 114, "channel": 0}, {"type": "note_off", "time": 104, "note": 68, "velocity": 114, "channel": 0}, {"type": "note_on", "time": 0, "note": 67, "velocity": 107, "channel": 0}, {"type": "note_off", "time": 83, "note": 67, "velocity": 107, "channel": 0}, {"type": "note_on", "time": 5, "note": 66, "velocity": 120, "channel": 0}, {"type": "note_off", "time": 80, "note": 66, "velocity": 120, "channel": 0}, {"type": "note_on", "time": 5, "note": 65, "velocity": 115, "channel": 0}, {"type": "note_off", "time": 128, "note": 65, "velocity": 115, "channel": 0}, {"type": "note_on", "time": 2, "note": 64, "velocity": 106, "channel": 0}, {"type": "note_off", "time": 77, "note": 64, "velocity": 106, "channel": 0}, {"type": "note_on", "time": 0, "note": 63, "velocity": 99, "channel": 0}, {"type": "note_off", "time": 86, "note": 63, "velocity": 99, "channel": 0}, {"type": "note_on", "time": 32, "note": 57, "velocity": 83, "channel": 0}, {"type": "note_off", "time": 139, "note": 57, "velocity": 83, "channel": 0}, {"type": "note_on", "time": 142, "note": 62, "velocity": 105, "channel": 0}, {"type": "note_off", "time": 119, "note": 62, "velocity": 105, "channel": 0}, {"type": "note_on", "time": 14, "note": 60, "velocity": 103, "channel": 0}, {"type": "note_off", "time": 86, "note": 60, "velocity": 103, "channel": 0}, {"type": "note_on", "time": 0, "note": 58, "velocity": 99, "channel": 0}, {"type": "note_off", "time": 86, "note": 58, "velocity": 99, "channel": 0}, {"type": "note_on", "time": 8, "note": 57, "velocity": 99, "channel": 0}, {"type": "note_off", "time": 74, "note": 57, "velocity": 99, "channel": 0}, {"type": "note_on", "time": 32, "note": 56, "velocity": 99, "channel": 0}, {"type": "note_off", "time": 68, "note": 56, "velocity": 99, "channel": 0}, {"type": "note_on", "time": 8, "note": 55, "velocity": 94, "channel": 0}, {"type": "note_off", "time": 53, "note": 55, "velocity": 94, "channel": 0}, {"type": "note_on", "time": 0, "note": 70, "velocity": 107, "channel": 0}, {"type": "note_off", "time": 122, "note": 70, "velocity": 107, "channel": 0}, {"type": "note_on", "time": 8, "note": 68, "velocity": 118, "channel": 0}, {"type": "note_off", "time": 80, "note": 68, "velocity": 118, "channel": 0}, {"type": "note_on", "time": 11, "note": 67, "velocity": 114, "channel": 0}, {"type": "note_off", "time": 92, "note": 67, "velocity": 114, "channel": 0}, {"type": "note_on", "time": 0, "note": 65, "velocity": 104, "channel": 0}, {"type": "note_off", "time": 107, "note": 65, "velocity": 104, "channel": 0}, {"type": "note_on", "time": 0, "note": 63, "velocity": 100, "channel": 0}, {"type": "note_off", "time": 101, "note": 63, "velocity": 100, "channel": 0}, {"type": "note_on", "time": 18, "note": 58, "velocity": 84, "channel": 0}, {"type": "note_off", "time": 95, "note": 58, "velocity": 84, "channel": 0}, {"type": "note_on", "time": 177, "note": 61, "velocity": 102, "channel": 0}, {"type": "note_off", "time": 104, "note": 61, "velocity": 102, "channel": 0}, {"type": "note_on", "time": 0, "note": 58, "velocity": 99, "channel": 0}, {"type": "note_off", "time": 86, "note": 58, "velocity": 99, "channel": 0}, {"type": "note_on", "time": 0, "note": 55, "velocity": 101, "channel": 0}, {"type": "note_off", "time": 92, "note": 55, "velocity": 101, "channel": 0}, {"type": "note_on", "time": 17, "note": 57, "velocity": 99, "channel": 0}, {"type": "note_off", "time": 68, "note": 57, "velocity": 99, "channel": 0}, {"type": "note_on", "time": 0, "note": 60, "velocity": 109, "channel": 0}, {"type": "note_off", "time": 110, "note": 60, "velocity": 109, "channel": 0}, {"type": "note_on", "time": 11, "note": 58, "velocity": 96, "channel": 0}, {"type": "note_off", "time": 77, "note": 58, "velocity": 96, "channel": 0}, {"type": "note_on", "time": 11, "note": 57, "velocity": 92, "channel": 0}, {"type": "note_off", "time": 77, "note": 57, "velocity": 92, "channel": 0}, {"type": "note_on", "time": 14, "note": 58, "velocity": 91, "channel": 0}, {"type": "note_off", "time": 56, "note": 58, "velocity": 91, "channel": 0}, {"type": "note_on", "time": 11, "note": 62, "velocity": 115, "channel": 0}, {"type": "note_off", "time": 125, "note": 62, "velocity": 115, "channel": 0}, {"type": "note_on", "time": 11, "note": 65, "velocity": 88, "channel": 0}, {"type": "note_off", "time": 333, "note": 65, "velocity": 88, "channel": 0}, {"type": "note_on", "time": 958, "note": 75, "velocity": 93, "channel": 0}, {"type": "note_off", "time": 50, "note": 75, "velocity": 93, "channel": 0}, {"type": "note_on", "time": 20, "note": 77, "velocity": 111, "channel": 0}, {"type": "note_off", "time": 119, "note": 77, "velocity": 111, "channel": 0}, {"type": "note_on", "time": 35, "note": 74, "velocity": 122, "channel": 0}, {"type": "note_off", "time": 89, "note": 74, "velocity": 122, "channel": 0}, {"type": "note_on", "time": 86, "note": 70, "velocity": 109, "channel": 0}, {"type": "note_off", "time": 110, "note": 70, "velocity": 109, "channel": 0}, {"type": "note_on", "time": 11, "note": 72, "velocity": 104, "channel": 0}, {"type": "note_off", "time": 464, "note": 72, "velocity": 104, "channel": 0}, {"type": "note_on", "time": 390, "note": 64, "velocity": 100, "channel": 0}, {"type": "note_off", "time": 89, "note": 64, "velocity": 100, "channel": 0}, {"type": "note_on", "time": 0, "note": 65, "velocity": 103, "channel": 0}, {"type": "note_off", "time": 68, "note": 65, "velocity": 103, "channel": 0}, {"type": "note_on", "time": 17, "note": 70, "velocity": 100, "channel": 0}, {"type": "note_off", "time": 32, "note": 70, "velocity": 100, "channel": 0}, {"type": "note_on", "time": 0, "note": 74, "velocity": 102, "channel": 0}, {"type": "note_off", "time": 62, "note": 74, "velocity": 102, "channel": 0}, {"type": "note_on", "time": 0, "note": 77, "velocity": 125, "channel": 0}, {"type": "note_off", "time": 98, "note": 77, "velocity": 125, "channel": 0}, {"type": "note_on", "time": 11, "note": 76, "velocity": 123, "channel": 0}, {"type": "note_off", "time": 104, "note": 76, "velocity": 123, "channel": 0}, {"type": "note_on", "time": 0, "note": 75, "velocity": 118, "channel": 0}, {"type": "note_off", "time": 92, "note": 75, "velocity": 118, "channel": 0}, {"type": "note_on", "time": 11, "note": 71, "velocity": 108, "channel": 0}, {"type": "note_off", "time": 47, "note": 71, "velocity": 108, "channel": 0}, {"type": "note_on", "time": 11, "note": 74, "velocity": 117, "channel": 0}, {"type": "note_off", "time": 128, "note": 74, "velocity": 117, "channel": 0}, {"type": "note_on", "time": 8, "note": 73, "velocity": 118, "channel": 0}, {"type": "note_off", "time": 89, "note": 73, "velocity": 118, "channel": 0}, {"type": "note_on", "time": 2, "note": 72, "velocity": 109, "channel": 0}, {"type": "note_off", "time": 89, "note": 72, "velocity": 109, "channel": 0}, {"type": "note_on", "time": 0, "note": 71, "velocity": 120, "channel": 0}, {"type": "note_off", "time": 44, "note": 71, "velocity": 120, "channel": 0}, {"type": "note_on", "time": 26, "note": 71, "velocity": 105, "channel": 0}, {"type": "note_off", "time": 98, "note": 71, "velocity": 105, "channel": 0}, {"type": "note_on", "time": 11, "note": 66, "velocity": 118, "channel": 0}, {"type": "note_off", "time": 119, "note": 66, "velocity": 118, "channel": 0}, {"type": "note_on", "time": 5, "note": 63, "velocity": 99, "channel": 0}, {"type": "note_off", "time": 116, "note": 63, "velocity": 99, "channel": 0}, {"type": "note_on", "time": 0, "note": 60, "velocity": 94, "channel": 0}, {"type": "note_off", "time": 77, "note": 60, "velocity": 94, "channel": 0}, {"type": "note_on", "time": 8, "note": 62, "velocity": 110, "channel": 0}, {"type": "note_off", "time": 77, "note": 62, "velocity": 110, "channel": 0}, {"type": "note_on", "time": 0, "note": 65, "velocity": 106, "channel": 0}, {"type": "note_off", "time": 101, "note": 65, "velocity": 106, "channel": 0}, {"type": "note_on", "time": 2, "note": 68, "velocity": 103, "channel": 0}, {"type": "note_off", "time": 113, "note": 68, "velocity": 103, "channel": 0}, {"type": "note_on", "time": 0, "note": 74, "velocity": 83, "channel": 0}, {"type": "note_off", "time": 86, "note": 74, "velocity": 83, "channel": 0}, {"type": "note_on", "time": 0, "note": 70, "velocity": 108, "channel": 0}, {"type": "note_off", "time": 110, "note": 70, "velocity": 108, "channel": 0}, {"type": "note_on", "time": 2, "note": 66, "velocity": 94, "channel": 0}, {"type": "note_off", "time": 136, "note": 66, "velocity": 94, "channel": 0}, {"type": "note_on", "time": 407, "note": 69, "velocity": 112, "channel": 0}, {"type": "note_off", "time": 68, "note": 69, "velocity": 112, "channel": 0}, {"type": "note_on", "time": 23, "note": 70, "velocity": 112, "channel": 0}, {"type": "note_off", "time": 110, "note": 70, "velocity": 112, "channel": 0}, {"type": "note_on", "time": 17, "note": 71, "velocity": 107, "channel": 0}, {"type": "note_off", "time": 29, "note": 71, "velocity": 107, "channel": 0}, {"type": "note_on", "time": 0, "note": 70, "velocity": 103, "channel": 0}, {"type": "note_off", "time": 38, "note": 70, "velocity": 103, "channel": 0}, {"type": "note_on", "time": 0, "note": 67, "velocity": 115, "channel": 0}, {"type": "note_off", "time": 128, "note": 67, "velocity": 115, "channel": 0}, {"type": "note_on", "time": 0, "note": 65, "velocity": 112, "channel": 0}, {"type": "note_off", "time": 113, "note": 65, "velocity": 112, "channel": 0}, {"type": "note_on", "time": 0, "note": 63, "velocity": 86, "channel": 0}, {"type": "note_off", "time": 131, "note": 63, "velocity": 86, "channel": 0}, {"type": "note_on", "time": 0, "note": 70, "velocity": 107, "channel": 0}, {"type": "note_off", "time": 98, "note": 70, "velocity": 107, "channel": 0}, {"type": "note_on", "time": 8, "note": 71, "velocity": 107, "channel": 0}, {"type": "note_off", "time": 35, "note": 71, "velocity": 107, "channel": 0}, {"type": "note_on", "time": 0, "note": 70, "velocity": 107, "channel": 0}, {"type": "note_off", "time": 62, "note": 70, "velocity": 107, "channel": 0}, {"type": "note_on", "time": 5, "note": 66, "velocity": 110, "channel": 0}, {"type": "note_off", "time": 92, "note": 66, "velocity": 110, "channel": 0}, {"type": "note_on", "time": 2, "note": 65, "velocity": 117, "channel": 0}, {"type": "note_off", "time": 92, "note": 65, "velocity": 117, "channel": 0}, {"type": "note_on", "time": 0, "note": 63, "velocity": 99, "channel": 0}, {"type": "note_off", "time": 98, "note": 63, "velocity": 99, "channel": 0}, {"type": "note_on", "time": 14, "note": 60, "velocity": 95, "channel": 0}, {"type": "note_off", "time": 71, "note": 60, "velocity": 95, "channel": 0}, {"type": "note_on", "time": 0, "note": 62, "velocity": 107, "channel": 0}, {"type": "note_off", "time": 101, "note": 62, "velocity": 107, "channel": 0}, {"type": "note_on", "time": 0, "note": 65, "velocity": 108, "channel": 0}, {"type": "note_off", "time": 148, "note": 65, "velocity": 108, "channel": 0}, {"type": "note_on", "time": 812, "note": 71, "velocity": 111, "channel": 0}, {"type": "note_off", "time": 86, "note": 71, "velocity": 111, "channel": 0}, {"type": "note_on", "time": 5, "note": 68, "velocity": 106, "channel": 0}, {"type": "note_off", "time": 71, "note": 68, "velocity": 106, "channel": 0}, {"type": "note_on", "time": 5, "note": 64, "velocity": 100, "channel": 0}, {"type": "note_off", "time": 59, "note": 64, "velocity": 100, "channel": 0}, {"type": "note_on", "time": 0, "note": 60, "velocity": 98, "channel": 0}, {"type": "note_off", "time": 71, "note": 60, "velocity": 98, "channel": 0}, {"type": "note_on", "time": 18, "note": 71, "velocity": 110, "channel": 0}, {"type": "note_off", "time": 347, "note": 71, "velocity": 110, "channel": 0}, {"type": "note_on", "time": 3, "note": 69, "velocity": 111, "channel": 0}, {"type": "note_off", "time": 62, "note": 69, "velocity": 111, "channel": 0}, {"type": "note_on", "time": 11, "note": 68, "velocity": 101, "channel": 0}, {"type": "note_off", "time": 47, "note": 68, "velocity": 101, "channel": 0}, {"type": "note_on", "time": 8, "note": 67, "velocity": 109, "channel": 0}, {"type": "note_off", "time": 47, "note": 67, "velocity": 109, "channel": 0}, {"type": "note_on", "time": 5, "note": 66, "velocity": 96, "channel": 0}, {"type": "note_off", "time": 226, "note": 66, "velocity": 96, "channel": 0}, {"type": "note_on", "time": 0, "note": 72, "velocity": 113, "channel": 0}, {"type": "note_off", "time": 80, "note": 72, "velocity": 113, "channel": 0}, {"type": "note_on", "time": 0, "note": 76, "velocity": 120, "channel": 0}, {"type": "note_off", "time": 97, "note": 76, "velocity": 120, "channel": 0}, {"type": "note_on", "time": 0, "note": 74, "velocity": 111, "channel": 0}, {"type": "note_off", "time": 97, "note": 74, "velocity": 111, "channel": 0}, {"type": "note_on", "time": 8, "note": 72, "velocity": 111, "channel": 0}, {"type": "note_off", "time": 93, "note": 72, "velocity": 111, "channel": 0}, {"type": "note_on", "time": 12, "note": 71, "velocity": 90, "channel": 0}, {"type": "note_off", "time": 88, "note": 71, "velocity": 90, "channel": 0}, {"type": "note_on", "time": 0, "note": 74, "velocity": 104, "channel": 0}, {"type": "note_off", "time": 101, "note": 74, "velocity": 104, "channel": 0}, {"type": "note_on", "time": 0, "note": 69, "velocity": 112, "channel": 0}, {"type": "note_off", "time": 105, "note": 69, "velocity": 112, "channel": 0}, {"type": "note_on", "time": 0, "note": 65, "velocity": 113, "channel": 0}, {"type": "note_off", "time": 88, "note": 65, "velocity": 113, "channel": 0}, {"type": "note_on", "time": 4, "note": 62, "velocity": 101, "channel": 0}, {"type": "note_off", "time": 105, "note": 62, "velocity": 101, "channel": 0}, {"type": "note_on", "time": 0, "note": 58, "velocity": 89, "channel": 0}, {"type": "note_off", "time": 169, "note": 58, "velocity": 89, "channel": 0}, {"type": "note_on", "time": 0, "note": 64, "velocity": 107, "channel": 0}, {"type": "note_off", "time": 118, "note": 64, "velocity": 107, "channel": 0}, {"type": "note_on", "time": 16, "note": 63, "velocity": 99, "channel": 0}, {"type": "note_on", "time": 110, "note": 59, "velocity": 84, "channel": 0}, {"type": "note_off", "time": 0, "note": 63, "velocity": 99, "channel": 0}, {"type": "note_off", "time": 50, "note": 59, "velocity": 84, "channel": 0}, {"type": "note_on", "time": 25, "note": 62, "velocity": 109, "channel": 0}, {"type": "note_off", "time": 105, "note": 62, "velocity": 109, "channel": 0}, {"type": "note_on", "time": 12, "note": 53, "velocity": 88, "channel": 0}, {"type": "note_off", "time": 216, "note": 53, "velocity": 88, "channel": 0}, {"type": "note_on", "time": 326, "note": 60, "velocity": 103, "channel": 0}, {"type": "note_off", "time": 76, "note": 60, "velocity": 103, "channel": 0}, {"type": "note_on", "time": 0, "note": 62, "velocity": 112, "channel": 0}, {"type": "note_off", "time": 46, "note": 62, "velocity": 112, "channel": 0}, {"type": "note_on", "time": 0, "note": 64, "velocity": 109, "channel": 0}, {"type": "note_off", "time": 63, "note": 64, "velocity": 109, "channel": 0}, {"type": "note_on", "time": 38, "note": 65, "velocity": 98, "channel": 0}, {"type": "note_off", "time": 139, "note": 65, "velocity": 98, "channel": 0}, {"type": "note_on", "time": 25, "note": 67, "velocity": 96, "channel": 0}, {"type": "note_off", "time": 38, "note": 67, "velocity": 96, "channel": 0}, {"type": "note_on", "time": 16, "note": 69, "velocity": 94, "channel": 0}, {"type": "note_off", "time": 29, "note": 69, "velocity": 94, "channel": 0}, {"type": "note_on", "time": 0, "note": 72, "velocity": 123, "channel": 0}, {"type": "note_off", "time": 144, "note": 72, "velocity": 123, "channel": 0}, {"type": "note_on", "time": 0, "note": 71, "velocity": 118, "channel": 0}, {"type": "note_off", "time": 76, "note": 71, "velocity": 118, "channel": 0}, {"type": "note_on", "time": 16, "note": 70, "velocity": 111, "channel": 0}, {"type": "note_off", "time": 76, "note": 70, "velocity": 111, "channel": 0}, {"type": "note_on", "time": 16, "note": 69, "velocity": 115, "channel": 0}, {"type": "note_off", "time": 97, "note": 69, "velocity": 115, "channel": 0}, {"type": "note_on", "time": 4, "note": 67, "velocity": 114, "channel": 0}, {"type": "note_off", "time": 96, "note": 67, "velocity": 114, "channel": 0}, {"type": "note_on", "time": 0, "note": 65, "velocity": 112, "channel": 0}, {"type": "note_off", "time": 86, "note": 65, "velocity": 112, "channel": 0}, {"type": "note_on", "time": 11, "note": 64, "velocity": 100, "channel": 0}, {"type": "note_off", "time": 41, "note": 64, "velocity": 100, "channel": 0}, {"type": "note_on", "time": 11, "note": 67, "velocity": 101, "channel": 0}, {"type": "note_off", "time": 56, "note": 67, "velocity": 101, "channel": 0}, {"type": "note_on", "time": 0, "note": 70, "velocity": 98, "channel": 0}, {"type": "note_off", "time": 74, "note": 70, "velocity": 98, "channel": 0}, {"type": "note_on", "time": 0, "note": 74, "velocity": 120, "channel": 0}, {"type": "note_off", "time": 98, "note": 74, "velocity": 120, "channel": 0}, {"type": "note_on", "time": 2, "note": 73, "velocity": 118, "channel": 0}, {"type": "note_off", "time": 50, "note": 73, "velocity": 118, "channel": 0}, {"type": "note_on", "time": 11, "note": 72, "velocity": 115, "channel": 0}, {"type": "note_off", "time": 32, "note": 72, "velocity": 115, "channel": 0}, {"type": "note_on", "time": 23, "note": 71, "velocity": 120, "channel": 0}, {"type": "note_off", "time": 89, "note": 71, "velocity": 120, "channel": 0}, {"type": "note_on", "time": 2, "note": 67, "velocity": 111, "channel": 0}, {"type": "note_off", "time": 101, "note": 67, "velocity": 111, "channel": 0}, {"type": "note_on", "time": 5, "note": 63, "velocity": 96, "channel": 0}, {"type": "note_off", "time": 101, "note": 63, "velocity": 96, "channel": 0}, {"type": "note_on", "time": 8, "note": 60, "velocity": 82, "channel": 0}, {"type": "note_off", "time": 44, "note": 60, "velocity": 82, "channel": 0}, {"type": "note_on", "time": 0, "note": 70, "velocity": 113, "channel": 0}, {"type": "note_off", "time": 128, "note": 70, "velocity": 113, "channel": 0}, {"type": "note_on", "time": 0, "note": 67, "velocity": 96, "channel": 0}, {"type": "note_off", "time": 68, "note": 67, "velocity": 96, "channel": 0}, {"type": "note_on", "time": 0, "note": 69, "velocity": 103, "channel": 0}, {"type": "note_off", "time": 125, "note": 69, "velocity": 103, "channel": 0}, {"type": "note_on", "time": 0, "note": 80, "velocity": 106, "channel": 0}, {"type": "note_off", "time": 431, "note": 80, "velocity": 106, "channel": 0}, {"type": "note_on", "time": 0, "note": 78, "velocity": 115, "channel": 0}, {"type": "note_off", "time": 145, "note": 78, "velocity": 115, "channel": 0}, {"type": "note_on", "time": 0, "note": 76, "velocity": 102, "channel": 0}, {"type": "note_off", "time": 50, "note": 76, "velocity": 102, "channel": 0}, {"type": "note_on", "time": 0, "note": 77, "velocity": 112, "channel": 0}, {"type": "note_off", "time": 148, "note": 77, "velocity": 112, "channel": 0}, {"type": "note_on", "time": 2, "note": 74, "velocity": 86, "channel": 0}, {"type": "note_off", "time": 250, "note": 74, "velocity": 86, "channel": 0}, {"type": "note_on", "time": 1295, "note": 64, "velocity": 97, "channel": 0}, {"type": "note_off", "time": 47, "note": 64, "velocity": 97, "channel": 0}, {"type": "note_on", "time": 5, "note": 65, "velocity": 108, "channel": 0}, {"type": "note_off", "time": 134, "note": 65, "velocity": 108, "channel": 0}, {"type": "note_on", "time": 14, "note": 67, "velocity": 99, "channel": 0}, {"type": "note_off", "time": 80, "note": 67, "velocity": 99, "channel": 0}, {"type": "note_on", "time": 8, "note": 70, "velocity": 104, "channel": 0}, {"type": "note_off", "time": 80, "note": 70, "velocity": 104, "channel": 0}, {"type": "note_on", "time": 5, "note": 75, "velocity": 109, "channel": 0}, {"type": "note_off", "time": 151, "note": 75, "velocity": 109, "channel": 0}, {"type": "note_on", "time": 8, "note": 73, "velocity": 100, "channel": 0}, {"type": "note_off", "time": 44, "note": 73, "velocity": 100, "channel": 0}, {"type": "note_on", "time": 8, "note": 72, "velocity": 119, "channel": 0}, {"type": "note_off", "time": 95, "note": 72, "velocity": 119, "channel": 0}, {"type": "note_on", "time": 0, "note": 70, "velocity": 116, "channel": 0}, {"type": "note_off", "time": 83, "note": 70, "velocity": 116, "channel": 0}, {"type": "note_on", "time": 2, "note": 66, "velocity": 118, "channel": 0}, {"type": "note_off", "time": 104, "note": 66, "velocity": 118, "channel": 0}, {"type": "note_on", "time": 5, "note": 63, "velocity": 101, "channel": 0}, {"type": "note_off", "time": 80, "note": 63, "velocity": 101, "channel": 0}, {"type": "note_on", "time": 0, "note": 60, "velocity": 97, "channel": 0}, {"type": "note_off", "time": 71, "note": 60, "velocity": 97, "channel": 0}, {"type": "note_on", "time": 0, "note": 62, "velocity": 111, "channel": 0}, {"type": "note_off", "time": 131, "note": 62, "velocity": 111, "channel": 0}, {"type": "note_on", "time": 0, "note": 58, "velocity": 98, "channel": 0}, {"type": "note_off", "time": 101, "note": 58, "velocity": 98, "channel": 0}, {"type": "note_on", "time": 2, "note": 55, "velocity": 88, "channel": 0}, {"type": "note_off", "time": 65, "note": 55, "velocity": 88, "channel": 0}, {"type": "note_on", "time": 11, "note": 57, "velocity": 106, "channel": 0}, {"type": "note_off", "time": 74, "note": 57, "velocity": 106, "channel": 0}, {"type": "note_on", "time": 2, "note": 60, "velocity": 105, "channel": 0}, {"type": "note_off", "time": 134, "note": 60, "velocity": 105, "channel": 0}, {"type": "note_on", "time": 5, "note": 59, "velocity": 94, "channel": 0}, {"type": "note_off", "time": 74, "note": 59, "velocity": 94, "channel": 0}, {"type": "note_on", "time": 23, "note": 58, "velocity": 94, "channel": 0}, {"type": "note_off", "time": 77, "note": 58, "velocity": 94, "channel": 0}, {"type": "note_on", "time": 5, "note": 57, "velocity": 104, "channel": 0}, {"type": "note_off", "time": 92, "note": 57, "velocity": 104, "channel": 0}, {"type": "note_on", "time": 0, "note": 56, "velocity": 100, "channel": 0}, {"type": "note_off", "time": 104, "note": 56, "velocity": 100, "channel": 0}, {"type": "note_on", "time": 5, "note": 60, "velocity": 91, "channel": 0}, {"type": "note_off", "time": 56, "note": 60, "velocity": 91, "channel": 0}, {"type": "note_on", "time": 0, "note": 70, "velocity": 112, "channel": 0}, {"type": "note_off", "time": 131, "note": 70, "velocity": 112, "channel": 0}, {"type": "note_on", "time": 0, "note": 68, "velocity": 115, "channel": 0}, {"type": "note_off", "time": 92, "note": 68, "velocity": 115, "channel": 0}, {"type": "note_on", "time": 11, "note": 67, "velocity": 105, "channel": 0}, {"type": "note_off", "time": 59, "note": 67, "velocity": 105, "channel": 0}, {"type": "note_on", "time": 0, "note": 65, "velocity": 119, "channel": 0}, {"type": "note_off", "time": 98, "note": 65, "velocity": 119, "channel": 0}, {"type": "note_on", "time": 14, "note": 63, "velocity": 87, "channel": 0}, {"type": "note_off", "time": 77, "note": 63, "velocity": 87, "channel": 0}, {"type": "note_on", "time": 116, "note": 70, "velocity": 112, "channel": 0}, {"type": "note_off", "time": 104, "note": 70, "velocity": 112, "channel": 0}, {"type": "note_on", "time": 0, "note": 66, "velocity": 114, "channel": 0}, {"type": "note_off", "time": 110, "note": 66, "velocity": 114, "channel": 0}, {"type": "note_on", "time": 2, "note": 63, "velocity": 93, "channel": 0}, {"type": "note_off", "time": 68, "note": 63, "velocity": 93, "channel": 0}, {"type": "note_on", "time": 8, "note": 60, "velocity": 95, "channel": 0}, {"type": "note_off", "time": 68, "note": 60, "velocity": 95, "channel": 0}, {"type": "note_on", "time": 0, "note": 62, "velocity": 106, "channel": 0}, {"type": "note_off", "time": 119, "note": 62, "velocity": 106, "channel": 0}, {"type": "note_on", "time": 11, "note": 58, "velocity": 98, "channel": 0}, {"type": "note_off", "time": 136, "note": 58, "velocity": 98, "channel": 0}, {"type": "note_on", "time": 1429, "note": 76, "velocity": 120, "channel": 0}, {"type": "note_off", "time": 107, "note": 76, "velocity": 120, "channel": 0}, {"type": "note_on", "time": 86, "note": 77, "velocity": 121, "channel": 0}, {"type": "note_off", "time": 116, "note": 77, "velocity": 121, "channel": 0}, {"type": "note_on", "time": 83, "note": 73, "velocity": 118, "channel": 0}, {"type": "note_off", "time": 107, "note": 73, "velocity": 118, "channel": 0}, {"type": "note_on", "time": 113, "note": 74, "velocity": 127, "channel": 0}, {"type": "note_off", "time": 107, "note": 74, "velocity": 127, "channel": 0}, {"type": "note_on", "time": 77, "note": 69, "velocity": 104, "channel": 0}, {"type": "note_off", "time": 104, "note": 69, "velocity": 104, "channel": 0}, {"type": "note_on", "time": 23, "note": 70, "velocity": 112, "channel": 0}, {"type": "note_off", "time": 83, "note": 70, "velocity": 112, "channel": 0}, {"type": "note_on", "time": 74, "note": 74, "velocity": 117, "channel": 0}, {"type": "note_off", "time": 107, "note": 74, "velocity": 117, "channel": 0}, {"type": "note_on", "time": 11, "note": 70, "velocity": 108, "channel": 0}, {"type": "note_off", "time": 74, "note": 70, "velocity": 108, "channel": 0}, {"type": "note_on", "time": 11, "note": 65, "velocity": 105, "channel": 0}, {"type": "note_off", "time": 104, "note": 65, "velocity": 105, "channel": 0}, {"type": "note_on", "time": 83, "note": 69, "velocity": 100, "channel": 0}, {"type": "note_off", "time": 74, "note": 69, "velocity": 100, "channel": 0}, {"type": "note_on", "time": 32, "note": 72, "velocity": 123, "channel": 0}, {"type": "note_off", "time": 83, "note": 72, "velocity": 123, "channel": 0}, {"type": "note_on", "time": 17, "note": 69, "velocity": 84, "channel": 0}, {"type": "note_off", "time": 50, "note": 69, "velocity": 84, "channel": 0}, {"type": "note_on", "time": 2, "note": 71, "velocity": 117, "channel": 0}, {"type": "note_off", "time": 107, "note": 71, "velocity": 117, "channel": 0}, {"type": "note_on", "time": 17, "note": 68, "velocity": 118, "channel": 0}, {"type": "note_off", "time": 86, "note": 68, "velocity": 118, "channel": 0}, {"type": "note_on", "time": 20, "note": 64, "velocity": 100, "channel": 0}, {"type": "note_off", "time": 89, "note": 64, "velocity": 100, "channel": 0}, {"type": "note_on", "time": 2, "note": 61, "velocity": 87, "channel": 0}, {"type": "note_off", "time": 50, "note": 61, "velocity": 87, "channel": 0}, {"type": "note_on", "time": 8, "note": 70, "velocity": 116, "channel": 0}, {"type": "note_off", "time": 83, "note": 70, "velocity": 116, "channel": 0}, {"type": "note_on", "time": 2, "note": 71, "velocity": 110, "channel": 0}, {"type": "note_off", "time": 56, "note": 71, "velocity": 110, "channel": 0}, {"type": "note_on", "time": 8, "note": 70, "velocity": 114, "channel": 0}, {"type": "note_off", "time": 44, "note": 70, "velocity": 114, "channel": 0}, {"type": "note_on", "time": 2, "note": 69, "velocity": 114, "channel": 0}, {"type": "note_off", "time": 95, "note": 69, "velocity": 114, "channel": 0}, {"type": "note_on", "time": 0, "note": 67, "velocity": 112, "channel": 0}, {"type": "note_off", "time": 86, "note": 67, "velocity": 112, "channel": 0}, {"type": "note_on", "time": 17, "note": 65, "velocity": 121, "channel": 0}, {"type": "note_off", "time": 116, "note": 65, "velocity": 121, "channel": 0}, {"type": "note_on", "time": 5, "note": 63, "velocity": 104, "channel": 0}, {"type": "note_off", "time": 89, "note": 63, "velocity": 104, "channel": 0}, {"type": "note_on", "time": 8, "note": 62, "velocity": 99, "channel": 0}, {"type": "note_on", "time": 89, "note": 60, "velocity": 105, "channel": 0}, {"type": "note_off", "time": 0, "note": 62, "velocity": 99, "channel": 0}, {"type": "note_off", "time": 71, "note": 60, "velocity": 105, "channel": 0}, {"type": "note_on", "time": 2, "note": 58, "velocity": 100, "channel": 0}, {"type": "note_off", "time": 118, "note": 58, "velocity": 100, "channel": 0}, {"type": "note_on", "time": 0, "note": 56, "velocity": 93, "channel": 0}, {"type": "note_off", "time": 50, "note": 56, "velocity": 93, "channel": 0}, {"type": "note_on", "time": 6, "note": 53, "velocity": 91, "channel": 0}, {"type": "note_off", "time": 59, "note": 53, "velocity": 91, "channel": 0}, {"type": "note_on", "time": 0, "note": 56, "velocity": 92, "channel": 0}, {"type": "note_off", "time": 62, "note": 56, "velocity": 92, "channel": 0}, {"type": "note_on", "time": 20, "note": 60, "velocity": 91, "channel": 0}, {"type": "note_off", "time": 59, "note": 60, "velocity": 91, "channel": 0}, {"type": "note_on", "time": 0, "note": 70, "velocity": 112, "channel": 0}, {"type": "note_off", "time": 89, "note": 70, "velocity": 112, "channel": 0}, {"type": "note_on", "time": 5, "note": 68, "velocity": 119, "channel": 0}, {"type": "note_off", "time": 98, "note": 68, "velocity": 119, "channel": 0}, {"type": "note_on", "time": 17, "note": 67, "velocity": 109, "channel": 0}, {"type": "note_off", "time": 74, "note": 67, "velocity": 109, "channel": 0}, {"type": "note_on", "time": 2, "note": 65, "velocity": 118, "channel": 0}, {"type": "note_off", "time": 107, "note": 65, "velocity": 118, "channel": 0}, {"type": "note_on", "time": 0, "note": 63, "velocity": 104, "channel": 0}, {"type": "note_off", "time": 92, "note": 63, "velocity": 104, "channel": 0}, {"type": "note_on", "time": 11, "note": 57, "velocity": 99, "channel": 0}, {"type": "note_off", "time": 77, "note": 57, "velocity": 99, "channel": 0}, {"type": "note_on", "time": 29, "note": 58, "velocity": 93, "channel": 0}, {"type": "note_off", "time": 139, "note": 58, "velocity": 93, "channel": 0}, {"type": "note_on", "time": 29, "note": 61, "velocity": 106, "channel": 0}, {"type": "note_off", "time": 128, "note": 61, "velocity": 106, "channel": 0}, {"type": "note_on", "time": 5, "note": 58, "velocity": 95, "channel": 0}, {"type": "note_off", "time": 101, "note": 58, "velocity": 95, "channel": 0}, {"type": "note_on", "time": 0, "note": 55, "velocity": 93, "channel": 0}, {"type": "note_off", "time": 89, "note": 55, "velocity": 93, "channel": 0}, {"type": "note_on", "time": 0, "note": 57, "velocity": 96, "channel": 0}, {"type": "note_off", "time": 80, "note": 57, "velocity": 96, "channel": 0}, {"type": "note_on", "time": 8, "note": 60, "velocity": 112, "channel": 0}, {"type": "note_off", "time": 125, "note": 60, "velocity": 112, "channel": 0}, {"type": "note_on", "time": 17, "note": 58, "velocity": 92, "channel": 0}, {"type": "note_off", "time": 324, "note": 58, "velocity": 92, "channel": 0}, {"type": "note_on", "time": 1009, "note": 58, "velocity": 100, "channel": 0}, {"type": "note_off", "time": 190, "note": 58, "velocity": 100, "channel": 0}, {"type": "note_on", "time": 17, "note": 57, "velocity": 91, "channel": 0}, {"type": "note_off", "time": 80, "note": 57, "velocity": 91, "channel": 0}, {"type": "note_on", "time": 5, "note": 58, "velocity": 91, "channel": 0}, {"type": "note_off", "time": 74, "note": 58, "velocity": 91, "channel": 0}, {"type": "note_on", "time": 8, "note": 60, "velocity": 115, "channel": 0}, {"type": "note_off", "time": 116, "note": 60, "velocity": 115, "channel": 0}, {"type": "note_on", "time": 5, "note": 57, "velocity": 95, "channel": 0}, {"type": "note_off", "time": 71, "note": 57, "velocity": 95, "channel": 0}, {"type": "note_on", "time": 20, "note": 58, "velocity": 87, "channel": 0}, {"type": "note_off", "time": 77, "note": 58, "velocity": 87, "channel": 0}, {"type": "note_on", "time": 0, "note": 60, "velocity": 94, "channel": 0}, {"type": "note_off", "time": 41, "note": 60, "velocity": 94, "channel": 0}, {"type": "note_on", "time": 11, "note": 62, "velocity": 103, "channel": 0}, {"type": "note_off", "time": 47, "note": 62, "velocity": 103, "channel": 0}, {"type": "note_on", "time": 14, "note": 65, "velocity": 121, "channel": 0}, {"type": "note_off", "time": 136, "note": 65, "velocity": 121, "channel": 0}, {"type": "note_on", "time": 5, "note": 63, "velocity": 109, "channel": 0}, {"type": "note_off", "time": 175, "note": 63, "velocity": 109, "channel": 0}, {"type": "note_on", "time": 17, "note": 64, "velocity": 105, "channel": 0}, {"type": "note_off", "time": 119, "note": 64, "velocity": 105, "channel": 0}, {"type": "note_on", "time": 14, "note": 67, "velocity": 109, "channel": 0}, {"type": "note_off", "time": 190, "note": 67, "velocity": 109, "channel": 0}, {"type": "note_on", "time": 8, "note": 64, "velocity": 107, "channel": 0}, {"type": "note_off", "time": 71, "note": 64, "velocity": 107, "channel": 0}, {"type": "note_on", "time": 5, "note": 65, "velocity": 110, "channel": 0}, {"type": "note_off", "time": 220, "note": 65, "velocity": 110, "channel": 0}, {"type": "note_on", "time": 601, "note": 72, "velocity": 116, "channel": 0}, {"type": "note_off", "time": 69, "note": 72, "velocity": 116, "channel": 0}, {"type": "note_on", "time": 6, "note": 69, "velocity": 117, "channel": 0}, {"type": "note_off", "time": 36, "note": 69, "velocity": 117, "channel": 0}, {"type": "note_on", "time": 10, "note": 71, "velocity": 119, "channel": 0}, {"type": "note_off", "time": 48, "note": 71, "velocity": 119, "channel": 0}, {"type": "note_on", "time": 2, "note": 68, "velocity": 115, "channel": 0}, {"type": "note_off", "time": 91, "note": 68, "velocity": 115, "channel": 0}, {"type": "note_on", "time": 6, "note": 64, "velocity": 107, "channel": 0}, {"type": "note_off", "time": 29, "note": 64, "velocity": 107, "channel": 0}, {"type": "note_on", "time": 12, "note": 61, "velocity": 99, "channel": 0}, {"type": "note_off", "time": 33, "note": 61, "velocity": 99, "channel": 0}, {"type": "note_on", "time": 6, "note": 69, "velocity": 109, "channel": 0}, {"type": "note_off", "time": 80, "note": 69, "velocity": 109, "channel": 0}, {"type": "note_on", "time": 2, "note": 67, "velocity": 113, "channel": 0}, {"type": "note_off", "time": 57, "note": 67, "velocity": 113, "channel": 0}, {"type": "note_on", "time": 12, "note": 65, "velocity": 117, "channel": 0}, {"type": "note_off", "time": 61, "note": 65, "velocity": 117, "channel": 0}, {"type": "note_on", "time": 2, "note": 63, "velocity": 103, "channel": 0}, {"type": "note_off", "time": 31, "note": 63, "velocity": 103, "channel": 0}, {"type": "note_on", "time": 8, "note": 62, "velocity": 105, "channel": 0}, {"type": "note_off", "time": 29, "note": 62, "velocity": 105, "channel": 0}, {"type": "note_on", "time": 23, "note": 60, "velocity": 103, "channel": 0}, {"type": "note_off", "time": 40, "note": 60, "velocity": 103, "channel": 0}, {"type": "note_on", "time": 6, "note": 58, "velocity": 101, "channel": 0}, {"type": "note_off", "time": 72, "note": 58, "velocity": 101, "channel": 0}, {"type": "note_on", "time": 8, "note": 60, "velocity": 103, "channel": 0}, {"type": "note_off", "time": 59, "note": 60, "velocity": 103, "channel": 0}, {"type": "note_on", "time": 0, "note": 63, "velocity": 107, "channel": 0}, {"type": "note_off", "time": 46, "note": 63, "velocity": 107, "channel": 0}, {"type": "note_on", "time": 0, "note": 66, "velocity": 121, "channel": 0}, {"type": "note_off", "time": 48, "note": 66, "velocity": 121, "channel": 0}, {"type": "note_on", "time": 12, "note": 65, "velocity": 118, "channel": 0}, {"type": "note_off", "time": 97, "note": 65, "velocity": 118, "channel": 0}, {"type": "note_on", "time": 165, "note": 63, "velocity": 108, "channel": 0}, {"type": "note_off", "time": 160, "note": 63, "velocity": 108, "channel": 0}, {"type": "note_on", "time": 8, "note": 60, "velocity": 106, "channel": 0}, {"type": "note_off", "time": 88, "note": 60, "velocity": 106, "channel": 0}, {"type": "note_on", "time": 0, "note": 58, "velocity": 94, "channel": 0}, {"type": "note_off", "time": 120, "note": 58, "velocity": 94, "channel": 0}, {"type": "note_on", "time": 8, "note": 56, "velocity": 104, "channel": 0}, {"type": "note_off", "time": 42, "note": 56, "velocity": 104, "channel": 0}, {"type": "note_on", "time": 12, "note": 55, "velocity": 97, "channel": 0}, {"type": "note_off", "time": 105, "note": 55, "velocity": 97, "channel": 0}, {"type": "note_on", "time": 76, "note": 70, "velocity": 113, "channel": 0}, {"type": "note_off", "time": 105, "note": 70, "velocity": 113, "channel": 0}, {"type": "note_on", "time": 12, "note": 66, "velocity": 110, "channel": 0}, {"type": "note_off", "time": 95, "note": 66, "velocity": 110, "channel": 0}, {"type": "note_on", "time": 2, "note": 63, "velocity": 92, "channel": 0}, {"type": "note_off", "time": 84, "note": 63, "velocity": 92, "channel": 0}, {"type": "note_on", "time": 2, "note": 60, "velocity": 94, "channel": 0}, {"type": "note_off", "time": 65, "note": 60, "velocity": 94, "channel": 0}, {"type": "note_on", "time": 0, "note": 62, "velocity": 111, "channel": 0}, {"type": "note_off", "time": 105, "note": 62, "velocity": 111, "channel": 0}, {"type": "note_on", "time": 4, "note": 58, "velocity": 97, "channel": 0}, {"type": "note_off", "time": 103, "note": 58, "velocity": 97, "channel": 0}, {"type": "note_on", "time": 2, "note": 55, "velocity": 88, "channel": 0}, {"type": "note_off", "time": 82, "note": 55, "velocity": 88, "channel": 0}, {"type": "note_on", "time": 6, "note": 57, "velocity": 93, "channel": 0}, {"type": "note_off", "time": 72, "note": 57, "velocity": 93, "channel": 0}, {"type": "note_on", "time": 0, "note": 60, "velocity": 108, "channel": 0}, {"type": "note_off", "time": 135, "note": 60, "velocity": 108, "channel": 0}, {"type": "note_on", "time": 21, "note": 58, "velocity": 90, "channel": 0}, {"type": "note_off", "time": 74, "note": 58, "velocity": 90, "channel": 0}, {"type": "note_on", "time": 4, "note": 57, "velocity": 87, "channel": 0}, {"type": "note_off", "time": 72, "note": 57, "velocity": 87, "channel": 0}, {"type": "note_on", "time": 6, "note": 58, "velocity": 95, "channel": 0}, {"type": "note_off", "time": 74, "note": 58, "velocity": 95, "channel": 0}, {"type": "note_on", "time": 8, "note": 62, "velocity": 94, "channel": 0}, {"type": "note_off", "time": 285, "note": 62, "velocity": 94, "channel": 0}, {"type": "note_on", "time": 1605, "note": 74, "velocity": 121, "channel": 0}, {"type": "note_off", "time": 141, "note": 74, "velocity": 121, "channel": 0}, {"type": "note_on", "time": 10, "note": 73, "velocity": 122, "channel": 0}, {"type": "note_off", "time": 86, "note": 73, "velocity": 122, "channel": 0}, {"type": "note_on", "time": 10, "note": 72, "velocity": 121, "channel": 0}, {"type": "note_off", "time": 97, "note": 72, "velocity": 121, "channel": 0}, {"type": "note_on", "time": 2, "note": 71, "velocity": 123, "channel": 0}, {"type": "note_off", "time": 74, "note": 71, "velocity": 123, "channel": 0}, {"type": "note_on", "time": 8, "note": 69, "velocity": 119, "channel": 0}, {"type": "note_off", "time": 76, "note": 69, "velocity": 119, "channel": 0}, {"type": "note_on", "time": 12, "note": 67, "velocity": 116, "channel": 0}, {"type": "note_off", "time": 97, "note": 67, "velocity": 116, "channel": 0}, {"type": "note_on", "time": 2, "note": 66, "velocity": 107, "channel": 0}, {"type": "note_off", "time": 101, "note": 66, "velocity": 107, "channel": 0}, {"type": "note_on", "time": 10, "note": 69, "velocity": 107, "channel": 0}, {"type": "note_off", "time": 63, "note": 69, "velocity": 107, "channel": 0}, {"type": "note_on", "time": 8, "note": 72, "velocity": 123, "channel": 0}, {"type": "note_off", "time": 103, "note": 72, "velocity": 123, "channel": 0}, {"type": "note_on", "time": 0, "note": 75, "velocity": 121, "channel": 0}, {"type": "note_off", "time": 82, "note": 75, "velocity": 121, "channel": 0}, {"type": "note_on", "time": 2, "note": 74, "velocity": 118, "channel": 0}, {"type": "note_off", "time": 131, "note": 74, "velocity": 118, "channel": 0}, {"type": "note_on", "time": 4, "note": 72, "velocity": 119, "channel": 0}, {"type": "note_off", "time": 91, "note": 72, "velocity": 119, "channel": 0}, {"type": "note_on", "time": 6, "note": 71, "velocity": 100, "channel": 0}, {"type": "note_off", "time": 99, "note": 71, "velocity": 100, "channel": 0}, {"type": "note_on", "time": 57, "note": 65, "velocity": 114, "channel": 0}, {"type": "note_off", "time": 120, "note": 65, "velocity": 114, "channel": 0}, {"type": "note_on", "time": 14, "note": 66, "velocity": 112, "channel": 0}, {"type": "note_off", "time": 42, "note": 66, "velocity": 112, "channel": 0}, {"type": "note_on", "time": 14, "note": 68, "velocity": 113, "channel": 0}, {"type": "note_off", "time": 230, "note": 68, "velocity": 113, "channel": 0}, {"type": "note_on", "time": 2, "note": 67, "velocity": 108, "channel": 0}, {"type": "note_off", "time": 84, "note": 67, "velocity": 108, "channel": 0}, {"type": "note_on", "time": 6, "note": 65, "velocity": 117, "channel": 0}, {"type": "note_off", "time": 101, "note": 65, "velocity": 117, "channel": 0}, {"type": "note_on", "time": 12, "note": 64, "velocity": 107, "channel": 0}, {"type": "note_off", "time": 76, "note": 64, "velocity": 107, "channel": 0}, {"type": "note_on", "time": 4, "note": 60, "velocity": 105, "channel": 0}, {"type": "note_off", "time": 65, "note": 60, "velocity": 105, "channel": 0}, {"type": "note_on", "time": 23, "note": 58, "velocity": 97, "channel": 0}, {"type": "note_off", "time": 82, "note": 58, "velocity": 97, "channel": 0}, {"type": "note_on", "time": 4, "note": 55, "velocity": 97, "channel": 0}, {"type": "note_off", "time": 78, "note": 55, "velocity": 97, "channel": 0}, {"type": "note_on", "time": 12, "note": 62, "velocity": 109, "channel": 0}, {"type": "note_off", "time": 108, "note": 62, "velocity": 109, "channel": 0}, {"type": "note_on", "time": 2, "note": 58, "velocity": 99, "channel": 0}, {"type": "note_off", "time": 76, "note": 58, "velocity": 99, "channel": 0}, {"type": "note_on", "time": 10, "note": 55, "velocity": 95, "channel": 0}, {"type": "note_off", "time": 91, "note": 55, "velocity": 95, "channel": 0}, {"type": "note_on", "time": 0, "note": 57, "velocity": 92, "channel": 0}, {"type": "note_off", "time": 82, "note": 57, "velocity": 92, "channel": 0}, {"type": "note_on", "time": 2, "note": 60, "velocity": 108, "channel": 0}, {"type": "note_off", "time": 131, "note": 60, "velocity": 108, "channel": 0}, {"type": "note_on", "time": 2, "note": 57, "velocity": 93, "channel": 0}, {"type": "note_off", "time": 50, "note": 57, "velocity": 93, "channel": 0}, {"type": "note_on", "time": 19, "note": 58, "velocity": 9, "channel": 0}, {"type": "note_off", "time": 42, "note": 58, "velocity": 9, "channel": 0}, {"type": "note_on", "time": 4, "note": 60, "velocity": 65, "channel": 0}, {"type": "note_off", "time": 40, "note": 60, "velocity": 65, "channel": 0}, {"type": "note_on", "time": 2, "note": 62, "velocity": 99, "channel": 0}, {"type": "note_off", "time": 31, "note": 62, "velocity": 99, "channel": 0}, {"type": "note_on", "time": 6, "note": 64, "velocity": 107, "channel": 0}, {"type": "note_off", "time": 33, "note": 64, "velocity": 107, "channel": 0}, {"type": "note_on", "time": 6, "note": 69, "velocity": 118, "channel": 0}, {"type": "note_off", "time": 110, "note": 69, "velocity": 118, "channel": 0}, {"type": "note_on", "time": 2, "note": 67, "velocity": 112, "channel": 0}, {"type": "note_off", "time": 103, "note": 67, "velocity": 112, "channel": 0}, {"type": "note_on", "time": 6, "note": 64, "velocity": 96, "channel": 0}, {"type": "note_off", "time": 95, "note": 64, "velocity": 96, "channel": 0}, {"type": "note_on", "time": 14, "note": 60, "velocity": 97, "channel": 0}, {"type": "note_off", "time": 46, "note": 60, "velocity": 97, "channel": 0}, {"type": "note_on", "time": 2, "note": 65, "velocity": 111, "channel": 0}, {"type": "note_off", "time": 139, "note": 65, "velocity": 111, "channel": 0}, {"type": "note_on", "time": 52, "note": 65, "velocity": 103, "channel": 0}, {"type": "note_off", "time": 402, "note": 65, "velocity": 103, "channel": 0}, {"type": "note_on", "time": 1116, "note": 65, "velocity": 114, "channel": 0}, {"type": "note_off", "time": 103, "note": 65, "velocity": 114, "channel": 0}, {"type": "note_on", "time": 2, "note": 67, "velocity": 109, "channel": 0}, {"type": "note_off", "time": 44, "note": 67, "velocity": 109, "channel": 0}, {"type": "note_on", "time": 10, "note": 68, "velocity": 107, "channel": 0}, {"type": "note_off", "time": 31, "note": 68, "velocity": 107, "channel": 0}, {"type": "note_on", "time": 14, "note": 70, "velocity": 105, "channel": 0}, {"type": "note_off", "time": 88, "note": 70, "velocity": 105, "channel": 0}, {"type": "note_on", "time": 19, "note": 72, "velocity": 123, "channel": 0}, {"type": "note_off", "time": 65, "note": 72, "velocity": 123, "channel": 0}, {"type": "note_on", "time": 10, "note": 74, "velocity": 121, "channel": 0}, {"type": "note_off", "time": 124, "note": 74, "velocity": 121, "channel": 0}, {"type": "note_on", "time": 0, "note": 70, "velocity": 118, "channel": 0}, {"type": "note_off", "time": 163, "note": 70, "velocity": 118, "channel": 0}, {"type": "note_on", "time": 4, "note": 72, "velocity": 114, "channel": 0}, {"type": "note_off", "time": 42, "note": 72, "velocity": 114, "channel": 0}, {"type": "note_on", "time": 6, "note": 70, "velocity": 117, "channel": 0}, {"type": "note_off", "time": 31, "note": 70, "velocity": 117, "channel": 0}, {"type": "note_on", "time": 8, "note": 67, "velocity": 115, "channel": 0}, {"type": "note_off", "time": 114, "note": 67, "velocity": 115, "channel": 0}, {"type": "note_on", "time": 8, "note": 66, "velocity": 100, "channel": 0}, {"type": "note_off", "time": 82, "note": 66, "velocity": 100, "channel": 0}, {"type": "note_on", "time": 6, "note": 72, "velocity": 124, "channel": 0}, {"type": "note_off", "time": 93, "note": 72, "velocity": 124, "channel": 0}, {"type": "note_on", "time": 16, "note": 73, "velocity": 120, "channel": 0}, {"type": "note_off", "time": 69, "note": 73, "velocity": 120, "channel": 0}, {"type": "note_on", "time": 2, "note": 74, "velocity": 116, "channel": 0}, {"type": "note_off", "time": 152, "note": 74, "velocity": 116, "channel": 0}, {"type": "note_on", "time": 207, "note": 65, "velocity": 108, "channel": 0}, {"type": "note_off", "time": 91, "note": 65, "velocity": 108, "channel": 0}, {"type": "note_on", "time": 2, "note": 67, "velocity": 96, "channel": 0}, {"type": "note_off", "time": 59, "note": 67, "velocity": 96, "channel": 0}, {"type": "note_on", "time": 10, "note": 68, "velocity": 104, "channel": 0}, {"type": "note_off", "time": 36, "note": 68, "velocity": 104, "channel": 0}, {"type": "note_on", "time": 12, "note": 70, "velocity": 99, "channel": 0}, {"type": "note_off", "time": 78, "note": 70, "velocity": 99, "channel": 0}, {"type": "note_on", "time": 12, "note": 73, "velocity": 120, "channel": 0}, {"type": "note_off", "time": 80, "note": 73, "velocity": 120, "channel": 0}, {"type": "note_on", "time": 23, "note": 74, "velocity": 121, "channel": 0}, {"type": "note_off", "time": 95, "note": 74, "velocity": 121, "channel": 0}, {"type": "note_on", "time": 19, "note": 72, "velocity": 118, "channel": 0}, {"type": "note_off", "time": 266, "note": 72, "velocity": 118, "channel": 0}, {"type": "note_on", "time": 2, "note": 70, "velocity": 114, "channel": 0}, {"type": "note_off", "time": 82, "note": 70, "velocity": 114, "channel": 0}, {"type": "note_on", "time": 8, "note": 67, "velocity": 84, "channel": 0}, {"type": "note_off", "time": 65, "note": 67, "velocity": 84, "channel": 0}, {"type": "note_on", "time": 29, "note": 69, "velocity": 107, "channel": 0}, {"type": "note_off", "time": 110, "note": 69, "velocity": 107, "channel": 0}, {"type": "note_on", "time": 2, "note": 65, "velocity": 110, "channel": 0}, {"type": "note_off", "time": 156, "note": 65, "velocity": 110, "channel": 0}, {"type": "note_on", "time": 404, "note": 72, "velocity": 122, "channel": 0}, {"type": "note_off", "time": 59, "note": 72, "velocity": 122, "channel": 0}, {"type": "note_on", "time": 10, "note": 71, "velocity": 126, "channel": 0}, {"type": "note_off", "time": 57, "note": 71, "velocity": 126, "channel": 0}, {"type": "note_on", "time": 12, "note": 70, "velocity": 120, "channel": 0}, {"type": "note_off", "time": 69, "note": 70, "velocity": 120, "channel": 0}, {"type": "note_on", "time": 16, "note": 69, "velocity": 121, "channel": 0}, {"type": "note_off", "time": 69, "note": 69, "velocity": 121, "channel": 0}, {"type": "note_on", "time": 10, "note": 68, "velocity": 122, "channel": 0}, {"type": "note_off", "time": 101, "note": 68, "velocity": 122, "channel": 0}, {"type": "note_on", "time": 0, "note": 72, "velocity": 125, "channel": 0}, {"type": "note_off", "time": 78, "note": 72, "velocity": 125, "channel": 0}, {"type": "note_on", "time": 6, "note": 70, "velocity": 122, "channel": 0}, {"type": "note_off", "time": 78, "note": 70, "velocity": 122, "channel": 0}, {"type": "note_on", "time": 12, "note": 67, "velocity": 114, "channel": 0}, {"type": "note_off", "time": 95, "note": 67, "velocity": 114, "channel": 0}, {"type": "note_on", "time": 180, "note": 70, "velocity": 115, "channel": 0}, {"type": "note_off", "time": 99, "note": 70, "velocity": 115, "channel": 0}, {"type": "note_on", "time": 6, "note": 66, "velocity": 111, "channel": 0}, {"type": "note_off", "time": 118, "note": 66, "velocity": 111, "channel": 0}, {"type": "note_on", "time": 163, "note": 62, "velocity": 111, "channel": 0}, {"type": "note_off", "time": 101, "note": 62, "velocity": 111, "channel": 0}, {"type": "note_on", "time": 14, "note": 58, "velocity": 98, "channel": 0}, {"type": "note_off", "time": 84, "note": 58, "velocity": 98, "channel": 0}, {"type": "note_on", "time": 4, "note": 55, "velocity": 95, "channel": 0}, {"type": "note_off", "time": 67, "note": 55, "velocity": 95, "channel": 0}, {"type": "note_on", "time": 16, "note": 57, "velocity": 90, "channel": 0}, {"type": "note_off", "time": 67, "note": 57, "velocity": 90, "channel": 0}, {"type": "note_on", "time": 27, "note": 60, "velocity": 109, "channel": 0}, {"type": "note_off", "time": 114, "note": 60, "velocity": 109, "channel": 0}, {"type": "note_on", "time": 19, "note": 58, "velocity": 93, "channel": 0}, {"type": "note_off", "time": 76, "note": 58, "velocity": 93, "channel": 0}, {"type": "note_on", "time": 16, "note": 57, "velocity": 94, "channel": 0}, {"type": "note_off", "time": 72, "note": 57, "velocity": 94, "channel": 0}, {"type": "note_on", "time": 2, "note": 60, "velocity": 95, "channel": 0}, {"type": "note_off", "time": 42, "note": 60, "velocity": 95, "channel": 0}, {"type": "note_on", "time": 27, "note": 62, "velocity": 101, "channel": 0}, {"type": "note_off", "time": 29, "note": 62, "velocity": 101, "channel": 0}, {"type": "note_on", "time": 0, "note": 63, "velocity": 109, "channel": 0}, {"type": "note_off", "time": 95, "note": 63, "velocity": 109, "channel": 0}, {"type": "note_on", "time": 4, "note": 65, "velocity": 102, "channel": 0}, {"type": "note_off", "time": 135, "note": 65, "velocity": 102, "channel": 0}, {"type": "note_on", "time": 80, "note": 60, "velocity": 99, "channel": 0}, {"type": "note_off", "time": 57, "note": 60, "velocity": 99, "channel": 0}, {"type": "note_on", "time": 8, "note": 62, "velocity": 96, "channel": 0}, {"type": "note_off", "time": 224, "note": 62, "velocity": 96, "channel": 0}, {"type": "note_on", "time": 0, "note": 65, "velocity": 102, "channel": 0}, {"type": "note_off", "time": 72, "note": 65, "velocity": 102, "channel": 0}, {"type": "note_on", "time": 4, "note": 62, "velocity": 105, "channel": 0}, {"type": "note_off", "time": 80, "note": 62, "velocity": 105, "channel": 0}, {"type": "note_on", "time": 2, "note": 60, "velocity": 104, "channel": 0}, {"type": "note_off", "time": 122, "note": 60, "velocity": 104, "channel": 0}, {"type": "note_on", "time": 4, "note": 58, "velocity": 90, "channel": 0}, {"type": "note_off", "time": 379, "note": 58, "velocity": 90, "channel": 0}, {"type": "end_of_track", "time": 0}]]}