{"ticks_per_beat": 192, "tracks": [[{"type": "note_on", "time": 0, "note": 78, "velocity": 116, "channel": 0}, {"type": "note_off", "time": 31, "note": 78, "velocity": 116, "channel": 0}, {"type": "note_on", "time": 14, "note": 79, "velocity": 123, "channel": 0}, {"type": "note_off", "time": 33, "note": 79, "velocity": 123, "channel": 0}, {"type": "note_on", "time": 8, "note": 78, "velocity": 121, "channel": 0}, {"type": "note_off", "time": 31, "note": 78, "velocity": 121, "channel": 0}, {"type": "note_on", "time": 13, "note": 76, "velocity": 127, "channel": 0}, {"type": "note_off", "time": 41, "note": 76, "velocity": 127, "channel": 0}, {"type": "note_on", "time": 17, "note": 74, "velocity": 117, "channel": 0}, {"type": "note_off", "time": 49, "note": 74, "velocity": 117, "channel": 0}, {"type": "note_on", "time": 45, "note": 73, "velocity": 113, "channel": 0}, {"type": "note_off", "time": 79, "note": 73, "velocity": 113, "channel": 0}, {"type": "note_on", "time": 24, "note": 71, "velocity": 109, "channel": 0}, {"type": "note_off", "time": 60, "note": 71, "velocity": 109, "channel": 0}, {"type": "note_on", "time": 39, "note": 69, "velocity": 114, "channel": 0}, {"type": "note_off", "time": 70, "note": 69, "velocity": 114, "channel": 0}, {"type": "note_on", "time": 11, "note": 67, "velocity": 119, "channel": 0}, {"type": "note_off", "time": 76, "note": 67, "velocity": 119, "channel": 0}, {"type": "note_on", "time": 38, "note": 66, "velocity": 117, "channel": 0}, {"type": "note_off", "time": 70, "note": 66, "velocity": 117, "channel": 0}, {"type": "note_on", "time": 40, "note": 64, "velocity": 109, "channel": 0}, {"type": "note_off", "time": 45, "note": 64, "velocity": 109, "channel": 0}, {"type": "note_on", "time": 31, "note": 62, "velocity": 109, "channel": 0}, {"type": "note_off", "time": 55, "note": 62, "velocity": 109, "channel": 0}, {"type": "note_on", "time": 65, "note": 61, "velocity": 107, "channel": 0}, {"type": "note_off", "time": 55, "note": 61, "velocity": 107, "channel": 0}, {"type": "note_on", "time": 23, "note": 64, "velocity": 101, "channel": 0}, {"type": "note_off", "time": 52, "note": 64, "velocity": 101, "channel": 0}, {"type": "note_on", "time": 12, "note": 67, "velocity": 118, "channel": 0}, {"type": "note_off", "time": 100, "note": 67, "velocity": 118, "channel": 0}, {"type": "note_on", "time": 25, "note": 71, "velocity": 98, "channel": 0}, {"type": "note_off", "time": 101, "note": 71, "velocity": 98, "channel": 0}, {"type": "track_name", "name": "Melody", "time": 83}, {"type": "set_tempo", "tempo": 303030, "time": 0}, {"type": "key_signature", "key": "F", "time": 0}, {"type": "time_signature", "numerator": 4, "denominator": 4, "clocks_per_click": 24, "notated_32nd_notes_per_beat": 8, "time": 0}, {"type": "note_on", "time": 9, "note": 67, "velocity": 101, "channel": 0}, {"type": "note_off", "time": 38, "note": 67, "velocity": 101, "channel": 0}, {"type": "note_on", "time": 37, "note": 69, "velocity": 107, "channel": 0}, {"type": "note_off", "time": 61, "note": 69, "velocity": 107, "channel": 0}, {"type": "note_on", "time": 68, "note": 64, "velocity": 104, "channel": 0}, {"type": "note_off", "time": 79, "note": 64, "velocity": 104, "channel": 0}, {"type": "note_on", "time": 411, "note": 62, "velocity": 83, "channel": 0}, {"type": "note_off", "time": 26, "note": 62, "velocity": 83, "channel": 0}, {"type": "note_on", "time": 15, "note": 61, "velocity": 118, "channel": 0}, {"type": "note_off", "time": 30, "note": 61, "velocity": 118, "channel": 0}, {"type": "note_on", "time": 53, "note": 60, "velocity": 106, "channel": 0}, {"type": "note_off", "time": 21, "note": 60, "velocity": 106, "channel": 0}, {"type": "note_on", "time": 22, "note": 59, "velocity": 98, "channel": 0}, {"type": "note_off", "time": 26, "note": 59, "velocity": 98, "channel": 0}, {"type": "note_on", "time": 26, "note": 57, "velocity": 114, "channel": 0}, {"type": "note_off", "time": 21, "note": 57, "velocity": 114, "channel": 0}, {"type": "note_on", "time": 20, "note": 55, "velocity": 119, "channel": 0}, {"type": "note_off", "time": 19, "note": 55, "velocity": 119, "channel": 0}, {"type": "note_on", "time": 26, "note": 54, "velocity": 120, "channel": 0}, {"type": "note_off", "time": 43, "note": 54, "velocity": 120, "channel": 0}, {"type": "note_on", "time": 424, "note": 62, "velocity": 124, "channel": 0}, {"type": "note_off", "time": 41, "note": 62, "velocity": 124, "channel": 0}, {"type": "note_on", "time": 19, "note": 63, "velocity": 119, "channel": 0}, {"type": "note_off", "time": 31, "note": 63, "velocity": 119, "channel": 0}, {"type": "note_on", "time": 14, "note": 65, "velocity": 120, "channel": 0}, {"type": "note_off", "time": 27, "note": 65, "velocity": 120, "channel": 0}, {"type": "note_on", "time": 12, "note": 67, "velocity": 122, "channel": 0}, {"type": "note_off", "time": 45, "note": 67, "velocity": 122, "channel": 0}, {"type": "note_on", "time": 15, "note": 69, "velocity": 116, "channel": 0}, {"type": "note_off", "time": 32, "note": 69, "velocity": 116, "channel": 0}, {"type": "note_on", "time": 6, "note": 71, "velocity": 102, "channel": 0}, {"type": "note_off", "time": 23, "note": 71, "velocity": 102, "channel": 0}, {"type": "note_on", "time": 20, "note": 76, "velocity": 118, "channel": 0}, {"type": "note_off", "time": 22, "note": 76, "velocity": 118, "channel": 0}, {"type": "note_on", "time": 24, "note": 73, "velocity": 119, "channel": 0}, {"type": "note_off", "time": 22, "note": 73, "velocity": 119, "channel": 0}, {"type": "note_on", "time": 21, "note": 74, "velocity": 113, "channel": 0}, {"type": "note_off", "time": 26, "note": 74, "velocity": 113, "channel": 0}, {"type": "note_on", "time": 55, "note": 79, "velocity": 118, "channel": 0}, {"type": "note_off", "time": 64, "note": 79, "velocity": 118, "channel": 0}, {"type": "note_on", "time": 0, "note": 79, "velocity": 86, "channel": 0}, {"type": "note_off", "time": 39, "note": 79, "velocity": 86, "channel": 0}, {"type": "note_on", "time": 79, "note": 76, "velocity": 122, "channel": 0}, {"type": "note_off", "time": 77, "note": 76, "velocity": 122, "channel": 0}, {"type": "note_on", "time": 50, "note": 69, "velocity": 114, "channel": 0}, {"type": "note_off", "time": 150, "note": 69, "velocity": 114, "channel": 0}, {"type": "note_on", "time": 65, "note": 66, "velocity": 123, "channel": 0}, {"type": "note_off", "time": 31, "note": 66, "velocity": 123, "channel": 0}, {"type": "note_on", "time": 9, "note": 67, "velocity": 111, "channel": 0}, {"type": "note_off", "time": 30, "note": 67, "velocity": 111, "channel": 0}, {"type": "note_on", "time": 23, "note": 70, "velocity": 88, "channel": 0}, {"type": "note_off", "time": 24, "note": 70, "velocity": 88, "channel": 0}, {"type": "note_on", "time": 15, "note": 72, "velocity": 77, "channel": 0}, {"type": "note_off", "time": 26, "note": 72, "velocity": 77, "channel": 0}, {"type": "note_on", "time": 8, "note": 74, "velocity": 109, "channel": 0}, {"type": "note_off", "time": 31, "note": 74, "velocity": 109, "channel": 0}, {"type": "note_on", "time": 13, "note": 77, "velocity": 116, "channel": 0}, {"type": "note_off", "time": 81, "note": 77, "velocity": 116, "channel": 0}, {"type": "note_on", "time": 12, "note": 76, "velocity": 91, "channel": 0}, {"type": "note_off", "time": 29, "note": 76, "velocity": 91, "channel": 0}, {"type": "note_on", "time": 3, "note": 74, "velocity": 105, "channel": 0}, {"type": "note_off", "time": 22, "note": 74, "velocity": 105, "channel": 0}, {"type": "note_on", "time": 22, "note": 72, "velocity": 111, "channel": 0}, {"type": "note_off", "time": 30, "note": 72, "velocity": 111, "channel": 0}, {"type": "note_on", "time": 7, "note": 70, "velocity": 109, "channel": 0}, {"type": "note_off", "time": 73, "note": 70, "velocity": 109, "channel": 0}, {"type": "note_on", "time": 12, "note": 69, "velocity": 111, "channel": 0}, {"type": "note_off", "time": 36, "note": 69, "velocity": 111, "channel": 0}, {"type": "note_on", "time": 14, "note": 67, "velocity": 121, "channel": 0}, {"type": "note_off", "time": 110, "note": 67, "velocity": 121, "channel": 0}, {"type": "note_on", "time": 25, "note": 65, "velocity": 109, "channel": 0}, {"type": "note_off", "time": 61, "note": 65, "velocity": 109, "channel": 0}, {"type": "note_on", "time": 31, "note": 64, "velocity": 100, "channel": 0}, {"type": "note_off", "time": 39, "note": 64, "velocity": 100, "channel": 0}, {"type": "note_on", "time": 25, "note": 65, "velocity": 100, "channel": 0}, {"type": "note_off", "time": 26, "note": 65, "velocity": 100, "channel": 0}, {"type": "note_on", "time": 43, "note": 67, "velocity": 84, "channel": 0}, {"type": "note_off", "time": 20, "note": 67, "velocity": 84, "channel": 0}, {"type": "note_on", "time": 23, "note": 74, "velocity": 116, "channel": 0}, {"type": "note_off", "time": 93, "note": 74, "velocity": 116, "channel": 0}, {"type": "note_on", "time": 108, "note": 67, "velocity": 112, "channel": 0}, {"type": "note_off", "time": 59, "note": 67, "velocity": 112, "channel": 0}, {"type": "note_on", "time": 56, "note": 69, "velocity": 97, "channel": 0}, {"type": "note_off", "time": 29, "note": 69, "velocity": 97, "channel": 0}, {"type": "note_on", "time": 12, "note": 72, "velocity": 116, "channel": 0}, {"type": "note_off", "time": 74, "note": 72, "velocity": 116, "channel": 0}, {"type": "note_on", "time": 60, "note": 70, "velocity": 109, "channel": 0}, {"type": "note_off", "time": 51, "note": 70, "velocity": 109, "channel": 0}, {"type": "note_on", "time": 6536, "note": 54, "velocity": 106, "channel": 0}, {"type": "note_off", "time": 52, "note": 54, "velocity": 106, "channel": 0}, {"type": "note_on", "time": 17, "note": 55, "velocity": 101, "channel": 0}, {"type": "note_off", "time": 45, "note": 55, "velocity": 101, "channel": 0}, {"type": "note_on", "time": 14, "note": 58, "velocity": 89, "channel": 0}, {"type": "note_off", "time": 27, "note": 58, "velocity": 89, "channel": 0}, {"type": "note_on", "time": 27, "note": 62, "velocity": 107, "channel": 0}, {"type": "note_off", "time": 37, "note": 62, "velocity": 107, "channel": 0}, {"type": "note_on", "time": 15, "note": 65, "velocity": 112, "channel": 0}, {"type": "note_off", "time": 105, "note": 65, "velocity": 112, "channel": 0}, {"type": "note_on", "time": 2, "note": 62, "velocity": 103, "channel": 0}, {"type": "note_off", "time": 57, "note": 62, "velocity": 103, "channel": 0}, {"type": "note_on", "time": 7, "note": 64, "velocity": 109, "channel": 0}, {"type": "note_off", "time": 103, "note": 64, "velocity": 109, "channel": 0}, {"type": "note_on", "time": 22, "note": 72, "velocity": 106, "channel": 0}, {"type": "note_off", "time": 239, "note": 72, "velocity": 106, "channel": 0}, {"type": "note_on", "time": 21, "note": 70, "velocity": 112, "channel": 0}, {"type": "note_off", "time": 52, "note": 70, "velocity": 112, "channel": 0}, {"type": "note_on", "time": 1, "note": 65, "velocity": 107, "channel": 0}, {"type": "note_off", "time": 44, "note": 65, "velocity": 107, "channel": 0}, {"type": "note_on", "time": 15, "note": 61, "velocity": 89, "channel": 0}, {"type": "note_off", "time": 48, "note": 61, "velocity": 89, "channel": 0}, {"type": "note_on", "time": 39, "note": 69, "velocity": 114, "channel": 0}, {"type": "note_off", "time": 63, "note": 69, "velocity": 114, "channel": 0}, {"type": "note_on", "time": 626, "note": 64, "velocity": 114, "channel": 0}, {"type": "note_off", "time": 60, "note": 64, "velocity": 114, "channel": 0}, {"type": "note_on", "time": 8, "note": 67, "velocity": 118, "channel": 0}, {"type": "note_off", "time": 28, "note": 67, "velocity": 118, "channel": 0}, {"type": "note_on", "time": 6, "note": 69, "velocity": 111, "channel": 0}, {"type": "note_off", "time": 46, "note": 69, "velocity": 111, "channel": 0}, {"type": "note_on", "time": 8, "note": 67, "velocity": 118, "channel": 0}, {"type": "note_off", "time": 49, "note": 67, "velocity": 118, "channel": 0}, {"type": "note_on", "time": 9, "note": 65, "velocity": 112, "channel": 0}, {"type": "note_off", "time": 56, "note": 65, "velocity": 112, "channel": 0}, {"type": "note_on", "time": 4, "note": 64, "velocity": 113, "channel": 0}, {"type": "note_off", "time": 78, "note": 64, "velocity": 113, "channel": 0}, {"type": "note_on", "time": 33, "note": 62, "velocity": 102, "channel": 0}, {"type": "note_off", "time": 74, "note": 62, "velocity": 102, "channel": 0}, {"type": "note_on", "time": 14, "note": 65, "velocity": 118, "channel": 0}, {"type": "note_off", "time": 74, "note": 65, "velocity": 118, "channel": 0}, {"type": "note_on", "time": 24, "note": 61, "velocity": 118, "channel": 0}, {"type": "note_off", "time": 50, "note": 61, "velocity": 118, "channel": 0}, {"type": "note_on", "time": 19, "note": 58, "velocity": 103, "channel": 0}, {"type": "note_off", "time": 45, "note": 58, "velocity": 103, "channel": 0}, {"type": "note_on", "time": 88, "note": 55, "velocity": 111, "channel": 0}, {"type": "note_off", "time": 61, "note": 55, "velocity": 111, "channel": 0}, {"type": "note_on", "time": 7, "note": 56, "velocity": 119, "channel": 0}, {"type": "note_off", "time": 49, "note": 56, "velocity": 119, "channel": 0}, {"type": "note_on", "time": 60, "note": 64, "velocity": 124, "channel": 0}, {"type": "note_off", "time": 46, "note": 64, "velocity": 124, "channel": 0}, {"type": "note_on", "time": 26, "note": 62, "velocity": 115, "channel": 0}, {"type": "note_off", "time": 94, "note": 62, "velocity": 115, "channel": 0}, {"type": "note_on", "time": 13, "note": 61, "velocity": 119, "channel": 0}, {"type": "note_off", "time": 53, "note": 61, "velocity": 119, "channel": 0}, {"type": "note_on", "time": 23, "note": 60, "velocity": 106, "channel": 0}, {"type": "note_off", "time": 73, "note": 60, "velocity": 106, "channel": 0}, {"type": "note_on", "time": 63, "note": 58, "velocity": 102, "channel": 0}, {"type": "note_off", "time": 47, "note": 58, "velocity": 102, "channel": 0}, {"type": "note_on", "time": 58, "note": 60, "velocity": 105, "channel": 0}, {"type": "note_off", "time": 47, "note": 60, "velocity": 105, "channel": 0}, {"type": "note_on", "time": 8, "note": 63, "velocity": 111, "channel": 0}, {"type": "note_off", "time": 37, "note": 63, "velocity": 111, "channel": 0}, {"type": "note_on", "time": 9, "note": 67, "velocity": 117, "channel": 0}, {"type": "note_off", "time": 31, "note": 67, "velocity": 117, "channel": 0}, {"type": "note_on", "time": 45, "note": 74, "velocity": 117, "channel": 0}, {"type": "note_off", "time": 53, "note": 74, "velocity": 117, "channel": 0}, {"type": "note_on", "time": 65, "note": 73, "velocity": 111, "channel": 0}, {"type": "note_off", "time": 51, "note": 73, "velocity": 111, "channel": 0}, {"type": "note_on", "time": 28, "note": 72, "velocity": 110, "channel": 0}, {"type": "note_off", "time": 66, "note": 72, "velocity": 110, "channel": 0}, {"type": "note_on", "time": 35, "note": 71, "velocity": 107, "channel": 0}, {"type": "note_off", "time": 54, "note": 71, "velocity": 107, "channel": 0}, {"type": "note_on", "time": 31, "note": 70, "velocity": 103, "channel": 0}, {"type": "note_off", "time": 83, "note": 70, "velocity": 103, "channel": 0}, {"type": "note_on", "time": 22, "note": 65, "velocity": 97, "channel": 0}, {"type": "note_off", "time": 63, "note": 65, "velocity": 97, "channel": 0}, {"type": "note_on", "time": 18, "note": 67, "velocity": 119, "channel": 0}, {"type": "note_off", "time": 89, "note": 67, "velocity": 119, "channel": 0}, {"type": "note_on", "time": 17, "note": 68, "velocity": 114, "channel": 0}, {"type": "note_off", "time": 88, "note": 68, "velocity": 114, "channel": 0}, {"type": "note_on", "time": 7, "note": 67, "velocity": 108, "channel": 0}, {"type": "note_off", "time": 232, "note": 67, "velocity": 108, "channel": 0}, {"type": "note_on", "time": 0, "note": 68, "velocity": 118, "channel": 0}, {"type": "note_off", "time": 108, "note": 68, "velocity": 118, "channel": 0}, {"type": "note_on", "time": 9, "note": 67, "velocity": 120, "channel": 0}, {"type": "note_off", "time": 67, "note": 67, "velocity": 120, "channel": 0}, {"type": "note_on", "time": 10, "note": 66, "velocity": 109, "channel": 0}, {"type": "note_off", "time": 47, "note": 66, "velocity": 109, "channel": 0}, {"type": "note_on", "time": 7, "note": 65, "velocity": 87, "channel": 0}, {"type": "note_off", "time": 62, "note": 65, "velocity": 87, "channel": 0}, {"type": "note_on", "time": 316, "note": 65, "velocity": 97, "channel": 0}, {"type": "note_off", "time": 61, "note": 65, "velocity": 97, "channel": 0}, {"type": "note_on", "time": 13, "note": 67, "velocity": 104, "channel": 0}, {"type": "note_off", "time": 114, "note": 67, "velocity": 104, "channel": 0}, {"type": "note_on", "time": 14, "note": 68, "velocity": 99, "channel": 0}, {"type": "note_off", "time": 135, "note": 68, "velocity": 99, "channel": 0}, {"type": "note_on", "time": 28, "note": 67, "velocity": 101, "channel": 0}, {"type": "note_off", "time": 142, "note": 67, "velocity": 101, "channel": 0}, {"type": "note_on", "time": 0, "note": 68, "velocity": 111, "channel": 0}, {"type": "note_off", "time": 150, "note": 68, "velocity": 111, "channel": 0}, {"type": "note_on", "time": 890, "note": 66, "velocity": 122, "channel": 0}, {"type": "note_off", "time": 65, "note": 66, "velocity": 122, "channel": 0}, {"type": "note_on", "time": 5, "note": 67, "velocity": 112, "channel": 0}, {"type": "note_off", "time": 31, "note": 67, "velocity": 112, "channel": 0}, {"type": "note_on", "time": 20, "note": 70, "velocity": 78, "channel": 0}, {"type": "note_off", "time": 32, "note": 70, "velocity": 78, "channel": 0}, {"type": "note_on", "time": 30, "note": 74, "velocity": 111, "channel": 0}, {"type": "note_off", "time": 32, "note": 74, "velocity": 111, "channel": 0}, {"type": "note_on", "time": 43, "note": 77, "velocity": 121, "channel": 0}, {"type": "note_off", "time": 75, "note": 77, "velocity": 121, "channel": 0}, {"type": "note_on", "time": 13, "note": 76, "velocity": 113, "channel": 0}, {"type": "note_off", "time": 30, "note": 76, "velocity": 113, "channel": 0}, {"type": "note_on", "time": 7, "note": 74, "velocity": 109, "channel": 0}, {"type": "note_off", "time": 22, "note": 74, "velocity": 109, "channel": 0}, {"type": "note_on", "time": 8, "note": 72, "velocity": 109, "channel": 0}, {"type": "note_off", "time": 31, "note": 72, "velocity": 109, "channel": 0}, {"type": "note_on", "time": 10, "note": 70, "velocity": 111, "channel": 0}, {"type": "note_off", "time": 58, "note": 70, "velocity": 111, "channel": 0}, {"type": "note_on", "time": 37, "note": 69, "velocity": 117, "channel": 0}, {"type": "note_off", "time": 70, "note": 69, "velocity": 117, "channel": 0}, {"type": "note_on", "time": 7, "note": 67, "velocity": 118, "channel": 0}, {"type": "note_off", "time": 83, "note": 67, "velocity": 118, "channel": 0}, {"type": "note_on", "time": 13, "note": 65, "velocity": 109, "channel": 0}, {"type": "note_off", "time": 20, "note": 65, "velocity": 109, "channel": 0}, {"type": "note_on", "time": 12, "note": 64, "velocity": 102, "channel": 0}, {"type": "note_off", "time": 73, "note": 64, "velocity": 102, "channel": 0}, {"type": "note_on", "time": 23, "note": 67, "velocity": 107, "channel": 0}, {"type": "note_off", "time": 76, "note": 67, "velocity": 107, "channel": 0}, {"type": "note_on", "time": 2, "note": 70, "velocity": 78, "channel": 0}, {"type": "note_off", "time": 58, "note": 70, "velocity": 78, "channel": 0}, {"type": "note_on", "time": 0, "note": 73, "velocity": 119, "channel": 0}, {"type": "note_off", "time": 45, "note": 73, "velocity": 119, "channel": 0}, {"type": "note_on", "time": 3, "note": 75, "velocity": 105, "channel": 0}, {"type": "note_off", "time": 73, "note": 75, "velocity": 105, "channel": 0}, {"type": "note_on", "time": 15, "note": 72, "velocity": 109, "channel": 0}, {"type": "note_off", "time": 48, "note": 72, "velocity": 109, "channel": 0}, {"type": "note_on", "time": 59, "note": 70, "velocity": 107, "channel": 0}, {"type": "note_off", "time": 25, "note": 70, "velocity": 107, "channel": 0}, {"type": "note_on", "time": 25, "note": 72, "velocity": 99, "channel": 0}, {"type": "note_off", "time": 44, "note": 72, "velocity": 99, "channel": 0}, {"type": "note_on", "time": 14, "note": 69, "velocity": 111, "channel": 0}, {"type": "note_off", "time": 85, "note": 69, "velocity": 111, "channel": 0}, {"type": "note_on", "time": 25, "note": 67, "velocity": 108, "channel": 0}, {"type": "note_off", "time": 37, "note": 67, "velocity": 108, "channel": 0}, {"type": "note_on", "time": 26, "note": 69, "velocity": 104, "channel": 0}, {"type": "note_off", "time": 45, "note": 69, "velocity": 104, "channel": 0}, {"type": "note_on", "time": 13, "note": 65, "velocity": 112, "channel": 0}, {"type": "note_off", "time": 165, "note": 65, "velocity": 112, "channel": 0}, {"type": "note_on", "time": 511, "note": 63, "velocity": 122, "channel": 0}, {"type": "note_off", "time": 47, "note": 63, "velocity": 122, "channel": 0}, {"type": "note_on", "time": 4, "note": 65, "velocity": 121, "channel": 0}, {"type": "note_off", "time": 50, "note": 65, "velocity": 121, "channel": 0}, {"type": "note_on", "time": 6, "note": 67, "velocity": 120, "channel": 0}, {"type": "note_off", "time": 58, "note": 67, "velocity": 120, "channel": 0}, {"type": "note_on", "time": 5, "note": 66, "velocity": 118, "channel": 0}, {"type": "note_off", "time": 51, "note": 66, "velocity": 118, "channel": 0}, {"type": "note_on", "time": 7, "note": 64, "velocity": 115, "channel": 0}, {"type": "note_off", "time": 26, "note": 64, "velocity": 115, "channel": 0}, {"type": "note_on", "time": 8, "note": 63, "velocity": 115, "channel": 0}, {"type": "note_off", "time": 33, "note": 63, "velocity": 115, "channel": 0}, {"type": "note_on", "time": 0, "note": 62, "velocity": 113, "channel": 0}, {"type": "note_off", "time": 27, "note": 62, "velocity": 113, "channel": 0}, {"type": "note_on", "time": 0, "note": 60, "velocity": 103, "channel": 0}, {"type": "note_off", "time": 96, "note": 60, "velocity": 103, "channel": 0}, {"type": "note_on", "time": 360, "note": 57, "velocity": 104, "channel": 0}, {"type": "note_off", "time": 193, "note": 57, "velocity": 104, "channel": 0}, {"type": "note_on", "time": 23, "note": 60, "velocity": 110, "channel": 0}, {"type": "note_off", "time": 48, "note": 60, "velocity": 110, "channel": 0}, {"type": "note_on", "time": 0, "note": 55, "velocity": 102, "channel": 0}, {"type": "note_off", "time": 109, "note": 55, "velocity": 102, "channel": 0}, {"type": "note_on", "time": 16, "note": 57, "velocity": 107, "channel": 0}, {"type": "note_off", "time": 79, "note": 57, "velocity": 107, "channel": 0}, {"type": "note_on", "time": 13, "note": 58, "velocity": 98, "channel": 0}, {"type": "note_off", "time": 68, "note": 58, "velocity": 98, "channel": 0}, {"type": "note_on", "time": 19, "note": 62, "velocity": 111, "channel": 0}, {"type": "note_off", "time": 91, "note": 62, "velocity": 111, "channel": 0}, {"type": "note_on", "time": 40, "note": 56, "velocity": 100, "channel": 0}, {"type": "note_off", "time": 80, "note": 56, "velocity": 100, "channel": 0}, {"type": "note_on", "time": 16, "note": 59, "velocity": 92, "channel": 0}, {"type": "note_off", "time": 66, "note": 59, "velocity": 92, "channel": 0}, {"type": "note_on", "time": 4, "note": 62, "velocity": 115, "channel": 0}, {"type": "note_off", "time": 103, "note": 62, "velocity": 115, "channel": 0}, {"type": "note_on", "time": 1, "note": 59, "velocity": 94, "channel": 0}, {"type": "note_off", "time": 57, "note": 59, "velocity": 94, "channel": 0}, {"type": "note_on", "time": 13, "note": 60, "velocity": 109, "channel": 0}, {"type": "note_off", "time": 103, "note": 60, "velocity": 109, "channel": 0}, {"type": "note_on", "time": 2, "note": 58, "velocity": 104, "channel": 0}, {"type": "note_off", "time": 67, "note": 58, "velocity": 104, "channel": 0}, {"type": "note_on", "time": 18, "note": 57, "velocity": 101, "channel": 0}, {"type": "note_off", "time": 32, "note": 57, "velocity": 101, "channel": 0}, {"type": "note_on", "time": 24, "note": 60, "velocity": 110, "channel": 0}, {"type": "note_off", "time": 24, "note": 60, "velocity": 110, "channel": 0}, {"type": "note_on", "time": 3, "note": 63, "velocity": 116, "channel": 0}, {"type": "note_off", "time": 19, "note": 63, "velocity": 116, "channel": 0}, {"type": "note_on", "time": 0, "note": 67, "velocity": 113, "channel": 0}, {"type": "note_off", "time": 76, "note": 67, "velocity": 113, "channel": 0}, {"type": "note_on", "time": 21, "note": 65, "velocity": 116, "channel": 0}, {"type": "note_off", "time": 72, "note": 65, "velocity": 116, "channel": 0}, {"type": "note_on", "time": 62, "note": 60, "velocity": 88, "channel": 0}, {"type": "note_off", "time": 235, "note": 60, "velocity": 88, "channel": 0}, {"type": "note_on", "time": 958, "note": 62, "velocity": 125, "channel": 0}, {"type": "note_off", "time": 122, "note": 62, "velocity": 125, "channel": 0}, {"type": "note_on", "time": 11, "note": 59, "velocity": 91, "channel": 0}, {"type": "note_off", "time": 47, "note": 59, "velocity": 91, "channel": 0}, {"type": "note_on", "time": 24, "note": 61, "velocity": 117, "channel": 0}, {"type": "note_off", "time": 100, "note": 61, "velocity": 117, "channel": 0}, {"type": "note_on", "time": 6, "note": 64, "velocity": 117, "channel": 0}, {"type": "note_off", "time": 98, "note": 64, "velocity": 117, "channel": 0}, {"type": "note_on", "time": 6, "note": 67, "velocity": 117, "channel": 0}, {"type": "note_off", "time": 97, "note": 67, "velocity": 117, "channel": 0}, {"type": "note_on", "time": 3, "note": 69, "velocity": 117, "channel": 0}, {"type": "note_off", "time": 53, "note": 69, "velocity": 117, "channel": 0}, {"type": "note_on", "time": 10, "note": 71, "velocity": 112, "channel": 0}, {"type": "note_off", "time": 60, "note": 71, "velocity": 112, "channel": 0}, {"type": "note_on", "time": 41, "note": 67, "velocity": 118, "channel": 0}, {"type": "note_off", "time": 88, "note": 67, "velocity": 118, "channel": 0}, {"type": "note_on", "time": 16, "note": 64, "velocity": 112, "channel": 0}, {"type": "note_off", "time": 102, "note": 64, "velocity": 112, "channel": 0}, {"type": "note_on", "time": 30, "note": 61, "velocity": 106, "channel": 0}, {"type": "note_off", "time": 44, "note": 61, "velocity": 106, "channel": 0}, {"type": "note_on", "time": 20, "note": 66, "velocity": 123, "channel": 0}, {"type": "note_off", "time": 87, "note": 66, "velocity": 123, "channel": 0}, {"type": "note_on", "time": 18, "note": 65, "velocity": 116, "channel": 0}, {"type": "note_off", "time": 83, "note": 65, "velocity": 116, "channel": 0}, {"type": "note_on", "time": 6, "note": 64, "velocity": 116, "channel": 0}, {"type": "note_off", "time": 108, "note": 64, "velocity": 116, "channel": 0}, {"type": "note_on", "time": 23, "note": 63, "velocity": 115, "channel": 0}, {"type": "note_off", "time": 80, "note": 63, "velocity": 115, "channel": 0}, {"type": "note_on", "time": 3, "note": 62, "velocity": 114, "channel": 0}, {"type": "note_on", "time": 124, "note": 61, "velocity": 100, "channel": 0}, {"type": "note_off", "time": 0, "note": 62, "velocity": 114, "channel": 0}, {"type": "note_off", "time": 77, "note": 61, "velocity": 100, "channel": 0}, {"type": "note_on", "time": 8, "note": 60, "velocity": 107, "channel": 0}, {"type": "note_off", "time": 31, "note": 60, "velocity": 107, "channel": 0}, {"type": "note_on", "time": 0, "note": 62, "velocity": 110, "channel": 0}, {"type": "note_off", "time": 42, "note": 62, "velocity": 110, "channel": 0}, {"type": "note_on", "time": 3, "note": 64, "velocity": 111, "channel": 0}, {"type": "note_off", "time": 32, "note": 64, "velocity": 111, "channel": 0}, {"type": "note_on", "time": 0, "note": 65, "velocity": 112, "channel": 0}, {"type": "note_off", "time": 36, "note": 65, "velocity": 112, "channel": 0}, {"type": "note_on", "time": 34, "note": 71, "velocity": 107, "channel": 0}, {"type": "note_off", "time": 111, "note": 71, "velocity": 107, "channel": 0}, {"type": "note_on", "time": 4, "note": 68, "velocity": 95, "channel": 0}, {"type": "note_off", "time": 61, "note": 68, "velocity": 95, "channel": 0}, {"type": "note_on", "time": 9, "note": 69, "velocity": 107, "channel": 0}, {"type": "note_off", "time": 94, "note": 69, "velocity": 107, "channel": 0}, {"type": "note_on", "time": 44, "note": 74, "velocity": 101, "channel": 0}, {"type": "note_off", "time": 202, "note": 74, "velocity": 101, "channel": 0}, {"type": "note_on", "time": 1090, "note": 62, "velocity": 119, "channel": 0}, {"type": "note_off", "time": 62, "note": 62, "velocity": 119, "channel": 0}, {"type": "note_on", "time": 0, "note": 64, "velocity": 122, "channel": 0}, {"type": "note_off", "time": 40, "note": 64, "velocity": 122, "channel": 0}, {"type": "note_on", "time": 0, "note": 65, "velocity": 118, "channel": 0}, {"type": "note_off", "time": 42, "note": 65, "velocity": 118, "channel": 0}, {"type": "note_on", "time": 0, "note": 67, "velocity": 114, "channel": 0}, {"type": "note_off", "time": 48, "note": 67, "velocity": 114, "channel": 0}, {"type": "note_on", "time": 0, "note": 69, "velocity": 111, "channel": 0}, {"type": "note_off", "time": 47, "note": 69, "velocity": 111, "channel": 0}, {"type": "note_on", "time": 17, "note": 76, "velocity": 112, "channel": 0}, {"type": "note_off", "time": 49, "note": 76, "velocity": 112, "channel": 0}, {"type": "note_on", "time": 18, "note": 73, "velocity": 113, "channel": 0}, {"type": "note_off", "time": 32, "note": 73, "velocity": 113, "channel": 0}, {"type": "note_on", "time": 9, "note": 74, "velocity": 106, "channel": 0}, {"type": "note_off", "time": 42, "note": 74, "velocity": 106, "channel": 0}, {"type": "note_on", "time": 6, "note": 76, "velocity": 112, "channel": 0}, {"type": "note_off", "time": 24, "note": 76, "velocity": 112, "channel": 0}, {"type": "note_on", "time": 7, "note": 79, "velocity": 110, "channel": 0}, {"type": "note_off", "time": 256, "note": 79, "velocity": 110, "channel": 0}, {"type": "note_on", "time": 94, "note": 76, "velocity": 113, "channel": 0}, {"type": "note_on", "time": 80, "note": 77, "velocity": 118, "channel": 0}, {"type": "note_off", "time": 0, "note": 76, "velocity": 113, "channel": 0}, {"type": "note_off", "time": 49, "note": 77, "velocity": 118, "channel": 0}, {"type": "note_on", "time": 0, "note": 76, "velocity": 113, "channel": 0}, {"type": "note_off", "time": 39, "note": 76, "velocity": 113, "channel": 0}, {"type": "note_on", "time": 0, "note": 74, "velocity": 92, "channel": 0}, {"type": "note_off", "time": 58, "note": 74, "velocity": 92, "channel": 0}, {"type": "note_on", "time": 8, "note": 70, "velocity": 107, "channel": 0}, {"type": "note_off", "time": 98, "note": 70, "velocity": 107, "channel": 0}, {"type": "note_on", "time": 17, "note": 69, "velocity": 115, "channel": 0}, {"type": "note_off", "time": 76, "note": 69, "velocity": 115, "channel": 0}, {"type": "note_on", "time": 18, "note": 67, "velocity": 117, "channel": 0}, {"type": "note_off", "time": 118, "note": 67, "velocity": 117, "channel": 0}, {"type": "note_on", "time": 0, "note": 65, "velocity": 108, "channel": 0}, {"type": "note_off", "time": 54, "note": 65, "velocity": 108, "channel": 0}, {"type": "note_on", "time": 30, "note": 64, "velocity": 102, "channel": 0}, {"type": "note_off", "time": 54, "note": 64, "velocity": 102, "channel": 0}, {"type": "note_on", "time": 5, "note": 67, "velocity": 107, "channel": 0}, {"type": "note_on", "time": 46, "note": 70, "velocity": 76, "channel": 0}, {"type": "note_off", "time": 0, "note": 67, "velocity": 107, "channel": 0}, {"type": "note_off", "time": 62, "note": 70, "velocity": 76, "channel": 0}, {"type": "note_on", "time": 5, "note": 74, "velocity": 115, "channel": 0}, {"type": "note_off", "time": 128, "note": 74, "velocity": 115, "channel": 0}, {"type": "note_on", "time": 0, "note": 67, "velocity": 99, "channel": 0}, {"type": "note_off", "time": 76, "note": 67, "velocity": 99, "channel": 0}, {"type": "note_on", "time": 0, "note": 69, "velocity": 99, "channel": 0}, {"type": "note_off", "time": 98, "note": 69, "velocity": 99, "channel": 0}, {"type": "note_on", "time": 18, "note": 72, "velocity": 106, "channel": 0}, {"type": "note_off", "time": 78, "note": 72, "velocity": 106, "channel": 0}, {"type": "note_on", "time": 3, "note": 70, "velocity": 103, "channel": 0}, {"type": "note_off", "time": 41, "note": 70, "velocity": 103, "channel": 0}, {"type": "note_on", "time": 6, "note": 72, "velocity": 103, "channel": 0}, {"type": "note_off", "time": 32, "note": 72, "velocity": 103, "channel": 0}, {"type": "note_on", "time": 0, "note": 70, "velocity": 105, "channel": 0}, {"type": "note_on", "time": 31, "note": 69, "velocity": 106, "channel": 0}, {"type": "note_off", "time": 0, "note": 70, "velocity": 105, "channel": 0}, {"type": "note_off", "time": 71, "note": 69, "velocity": 106, "channel": 0}, {"type": "note_on", "time": 0, "note": 67, "velocity": 120, "channel": 0}, {"type": "note_off", "time": 103, "note": 67, "velocity": 120, "channel": 0}, {"type": "note_on", "time": 27, "note": 65, "velocity": 111, "channel": 0}, {"type": "note_off", "time": 87, "note": 65, "velocity": 111, "channel": 0}, {"type": "note_on", "time": 4, "note": 64, "velocity": 110, "channel": 0}, {"type": "note_off", "time": 109, "note": 64, "velocity": 110, "channel": 0}, {"type": "note_on", "time": 0, "note": 62, "velocity": 105, "channel": 0}, {"type": "note_off", "time": 70, "note": 62, "velocity": 105, "channel": 0}, {"type": "note_on", "time": 2, "note": 72, "velocity": 84, "channel": 0}, {"type": "note_off", "time": 166, "note": 72, "velocity": 84, "channel": 0}, {"type": "note_on", "time": 200, "note": 69, "velocity": 112, "channel": 0}, {"type": "note_off", "time": 114, "note": 69, "velocity": 112, "channel": 0}, {"type": "note_on", "time": 13, "note": 65, "velocity": 103, "channel": 0}, {"type": "note_off", "time": 73, "note": 65, "velocity": 103, "channel": 0}, {"type": "note_on", "time": 24, "note": 67, "velocity": 117, "channel": 0}, {"type": "note_off", "time": 104, "note": 67, "velocity": 117, "channel": 0}, {"type": "note_on", "time": 11, "note": 58, "velocity": 89, "channel": 0}, {"type": "note_off", "time": 224, "note": 58, "velocity": 89, "channel": 0}, {"type": "note_on", "time": 862, "note": 73, "velocity": 121, "channel": 0}, {"type": "note_off", "time": 78, "note": 73, "velocity": 121, "channel": 0}, {"type": "note_on", "time": 1, "note": 72, "velocity": 117, "channel": 0}, {"type": "note_off", "time": 50, "note": 72, "velocity": 117, "channel": 0}, {"type": "note_on", "time": 20, "note": 70, "velocity": 118, "channel": 0}, {"type": "note_off", "time": 47, "note": 70, "velocity": 118, "channel": 0}, {"type": "note_on", "time": 63, "note": 63, "velocity": 106, "channel": 0}, {"type": "note_off", "time": 55, "note": 63, "velocity": 106, "channel": 0}, {"type": "note_on", "time": 15, "note": 66, "velocity": 113, "channel": 0}, {"type": "note_off", "time": 55, "note": 66, "velocity": 113, "channel": 0}, {"type": "note_on", "time": 20, "note": 70, "velocity": 111, "channel": 0}, {"type": "note_off", "time": 55, "note": 70, "velocity": 111, "channel": 0}, {"type": "note_on", "time": 27, "note": 68, "velocity": 97, "channel": 0}, {"type": "note_on", "time": 47, "note": 70, "velocity": 99, "channel": 0}, {"type": "note_off", "time": 0, "note": 68, "velocity": 97, "channel": 0}, {"type": "note_off", "time": 38, "note": 70, "velocity": 99, "channel": 0}, {"type": "note_on", "time": 0, "note": 68, "velocity": 104, "channel": 0}, {"type": "note_off", "time": 64, "note": 68, "velocity": 104, "channel": 0}, {"type": "note_on", "time": 0, "note": 66, "velocity": 117, "channel": 0}, {"type": "note_off", "time": 31, "note": 66, "velocity": 117, "channel": 0}, {"type": "note_on", "time": 37, "note": 63, "velocity": 105, "channel": 0}, {"type": "note_off", "time": 56, "note": 63, "velocity": 105, "channel": 0}, {"type": "note_on", "time": 31, "note": 64, "velocity": 112, "channel": 0}, {"type": "note_off", "time": 32, "note": 64, "velocity": 112, "channel": 0}, {"type": "note_on", "time": 47, "note": 67, "velocity": 116, "channel": 0}, {"type": "note_off", "time": 79, "note": 67, "velocity": 116, "channel": 0}, {"type": "note_on", "time": 24, "note": 65, "velocity": 115, "channel": 0}, {"type": "note_off", "time": 62, "note": 65, "velocity": 115, "channel": 0}, {"type": "note_on", "time": 23, "note": 64, "velocity": 106, "channel": 0}, {"type": "note_off", "time": 120, "note": 64, "velocity": 106, "channel": 0}, {"type": "note_on", "time": 16, "note": 62, "velocity": 109, "channel": 0}, {"type": "note_off", "time": 47, "note": 62, "velocity": 109, "channel": 0}, {"type": "note_on", "time": 16, "note": 60, "velocity": 96, "channel": 0}, {"type": "note_off", "time": 142, "note": 60, "velocity": 96, "channel": 0}, {"type": "note_on", "time": 159, "note": 58, "velocity": 101, "channel": 0}, {"type": "note_off", "time": 70, "note": 58, "velocity": 101, "channel": 0}, {"type": "note_on", "time": 7, "note": 57, "velocity": 104, "channel": 0}, {"type": "note_off", "time": 39, "note": 57, "velocity": 104, "channel": 0}, {"type": "note_on", "time": 0, "note": 60, "velocity": 106, "channel": 0}, {"type": "note_off", "time": 56, "note": 60, "velocity": 106, "channel": 0}, {"type": "note_on", "time": 9, "note": 62, "velocity": 116, "channel": 0}, {"type": "note_off", "time": 31, "note": 62, "velocity": 116, "channel": 0}, {"type": "note_on", "time": 0, "note": 67, "velocity": 117, "channel": 0}, {"type": "note_off", "time": 39, "note": 67, "velocity": 117, "channel": 0}, {"type": "note_on", "time": 17, "note": 65, "velocity": 120, "channel": 0}, {"type": "note_off", "time": 38, "note": 65, "velocity": 120, "channel": 0}, {"type": "note_on", "time": 53, "note": 61, "velocity": 92, "channel": 0}, {"type": "note_off", "time": 47, "note": 61, "velocity": 92, "channel": 0}, {"type": "note_on", "time": 40, "note": 62, "velocity": 108, "channel": 0}, {"type": "note_off", "time": 39, "note": 62, "velocity": 108, "channel": 0}, {"type": "note_on", "time": 8, "note": 65, "velocity": 84, "channel": 0}, {"type": "note_off", "time": 24, "note": 65, "velocity": 84, "channel": 0}, {"type": "note_on", "time": 26, "note": 69, "velocity": 86, "channel": 0}, {"type": "note_off", "time": 37, "note": 69, "velocity": 86, "channel": 0}, {"type": "note_on", "time": 33, "note": 72, "velocity": 9, "channel": 0}, {"type": "note_off", "time": 118, "note": 72, "velocity": 9, "channel": 0}, {"type": "note_on", "time": 30, "note": 70, "velocity": 94, "channel": 0}, {"type": "note_off", "time": 191, "note": 70, "velocity": 94, "channel": 0}, {"type": "note_on", "time": 70, "note": 61, "velocity": 99, "channel": 0}, {"type": "note_off", "time": 111, "note": 61, "velocity": 99, "channel": 0}, {"type": "note_on", "time": 0, "note": 59, "velocity": 89, "channel": 0}, {"type": "note_off", "time": 79, "note": 59, "velocity": 89, "channel": 0}, {"type": "note_on", "time": 7, "note": 60, "velocity": 99, "channel": 0}, {"type": "note_off", "time": 95, "note": 60, "velocity": 99, "channel": 0}, {"type": "note_on", "time": 7, "note": 70, "velocity": 104, "channel": 0}, {"type": "note_off", "time": 94, "note": 70, "velocity": 104, "channel": 0}, {"type": "note_on", "time": 0, "note": 67, "velocity": 107, "channel": 0}, {"type": "note_off", "time": 80, "note": 67, "velocity": 107, "channel": 0}, {"type": "note_on", "time": 15, "note": 68, "velocity": 103, "channel": 0}, {"type": "note_off", "time": 62, "note": 68, "velocity": 103, "channel": 0}, {"type": "note_on", "time": 25, "note": 69, "velocity": 111, "channel": 0}, {"type": "note_off", "time": 103, "note": 69, "velocity": 111, "channel": 0}, {"type": "note_on", "time": 0, "note": 65, "velocity": 112, "channel": 0}, {"type": "note_off", "time": 86, "note": 65, "velocity": 112, "channel": 0}, {"type": "note_on", "time": 0, "note": 62, "velocity": 105, "channel": 0}, {"type": "note_on", "time": 111, "note": 61, "velocity": 103, "channel": 0}, {"type": "note_off", "time": 0, "note": 62, "velocity": 105, "channel": 0}, {"type": "note_off", "time": 71, "note": 61, "velocity": 103, "channel": 0}, {"type": "note_on", "time": 7, "note": 60, "velocity": 96, "channel": 0}, {"type": "note_off", "time": 119, "note": 60, "velocity": 96, "channel": 0}, {"type": "note_on", "time": 0, "note": 58, "velocity": 97, "channel": 0}, {"type": "note_off", "time": 80, "note": 58, "velocity": 97, "channel": 0}, {"type": "note_on", "time": 0, "note": 57, "velocity": 109, "channel": 0}, {"type": "note_off", "time": 102, "note": 57, "velocity": 109, "channel": 0}, {"type": "note_on", "time": 8, "note": 55, "velocity": 115, "channel": 0}, {"type": "note_off", "time": 87, "note": 55, "velocity": 115, "channel": 0}, {"type": "note_on", "time": 17, "note": 54, "velocity": 112, "channel": 0}, {"type": "note_off", "time": 65, "note": 54, "velocity": 112, "channel": 0}, {"type": "note_on", "time": 13, "note": 56, "velocity": 108, "channel": 0}, {"type": "note_off", "time": 28, "note": 56, "velocity": 108, "channel": 0}, {"type": "note_on", "time": 0, "note": 60, "velocity": 102, "channel": 0}, {"type": "note_off", "time": 27, "note": 60, "velocity": 102, "channel": 0}, {"type": "note_on", "time": 32, "note": 62, "velocity": 109, "channel": 0}, {"type": "note_off", "time": 46, "note": 62, "velocity": 109, "channel": 0}, {"type": "note_on", "time": 13, "note": 60, "velocity": 89, "channel": 0}, {"type": "note_off", "time": 95, "note": 60, "velocity": 89, "channel": 0}, {"type": "end_of_track", "time": 0}]]}