{"ticks_per_beat": 192, "tracks": [[{"type": "track_name", "name": "Melody", "time": 0}, {"type": "set_tempo", "tempo": 508474, "time": 0}, {"type": "key_signature", "key": "C", "time": 0}, {"type": "time_signature", "numerator": 4, "denominator": 4, "clocks_per_click": 24, "notated_32nd_notes_per_beat": 8, "time": 0}, {"type": "note_on", "time": 2507, "note": 63, "velocity": 110, "channel": 0}, {"type": "note_off", "time": 75, "note": 63, "velocity": 110, "channel": 0}, {"type": "note_on", "time": 8, "note": 64, "velocity": 111, "channel": 0}, {"type": "note_off", "time": 245, "note": 64, "velocity": 111, "channel": 0}, {"type": "note_on", "time": 4, "note": 60, "velocity": 96, "channel": 0}, {"type": "note_off", "time": 53, "note": 60, "velocity": 96, "channel": 0}, {"type": "note_on", "time": 6, "note": 65, "velocity": 113, "channel": 0}, {"type": "note_off", "time": 79, "note": 65, "velocity": 113, "channel": 0}, {"type": "note_on", "time": 1, "note": 67, "velocity": 91, "channel": 0}, {"type": "note_off", "time": 246, "note": 67, "velocity": 91, "channel": 0}, {"type": "note_on", "time": 267, "note": 60, "velocity": 104, "channel": 0}, {"type": "note_off", "time": 82, "note": 60, "velocity": 104, "channel": 0}, {"type": "note_on", "time": 0, "note": 62, "velocity": 106, "channel": 0}, {"type": "note_off", "time": 25, "note": 62, "velocity": 106, "channel": 0}, {"type": "note_on", "time": 6, "note": 64, "velocity": 108, "channel": 0}, {"type": "note_off", "time": 61, "note": 64, "velocity": 108, "channel": 0}, {"type": "note_on", "time": 0, "note": 67, "velocity": 97, "channel": 0}, {"type": "note_off", "time": 48, "note": 67, "velocity": 97, "channel": 0}, {"type": "note_on", "time": 2, "note": 69, "velocity": 111, "channel": 0}, {"type": "note_off", "time": 44, "note": 69, "velocity": 111, "channel": 0}, {"type": "note_on", "time": 27, "note": 72, "velocity": 118, "channel": 0}, {"type": "note_off", "time": 148, "note": 72, "velocity": 118, "channel": 0}, {"type": "note_on", "time": 1, "note": 69, "velocity": 113, "channel": 0}, {"type": "note_off", "time": 113, "note": 69, "velocity": 113, "channel": 0}, {"type": "note_on", "time": 28, "note": 60, "velocity": 94, "channel": 0}, {"type": "note_off", "time": 37, "note": 60, "velocity": 94, "channel": 0}, {"type": "note_on", "time": 56, "note": 66, "velocity": 112, "channel": 0}, {"type": "note_off", "time": 72, "note": 66, "velocity": 112, "channel": 0}, {"type": "note_on", "time": 1, "note": 65, "velocity": 112, "channel": 0}, {"type": "note_off", "time": 78, "note": 65, "velocity": 112, "channel": 0}, {"type": "note_on", "time": 1, "note": 63, "velocity": 101, "channel": 0}, {"type": "note_off", "time": 79, "note": 63, "velocity": 101, "channel": 0}, {"type": "note_on", "time": 0, "note": 60, "velocity": 94, "channel": 0}, {"type": "note_off", "time": 61, "note": 60, "velocity": 94, "channel": 0}, {"type": "note_on", "time": 1, "note": 62, "velocity": 110, "channel": 0}, {"type": "note_off", "time": 35, "note": 62, "velocity": 110, "channel": 0}, {"type": "note_on", "time": 0, "note": 64, "velocity": 104, "channel": 0}, {"type": "note_off", "time": 105, "note": 64, "velocity": 104, "channel": 0}, {"type": "note_on", "time": 2, "note": 60, "velocity": 103, "channel": 0}, {"type": "note_off", "time": 83, "note": 60, "velocity": 103, "channel": 0}, {"type": "note_on", "time": 0, "note": 55, "velocity": 78, "channel": 0}, {"type": "note_off", "time": 289, "note": 55, "velocity": 78, "channel": 0}, {"type": "note_on", "time": 406, "note": 67, "velocity": 88, "channel": 0}, {"type": "note_off", "time": 46, "note": 67, "velocity": 88, "channel": 0}, {"type": "note_on", "time": 4, "note": 69, "velocity": 91, "channel": 0}, {"type": "note_off", "time": 26, "note": 69, "velocity": 91, "channel": 0}, {"type": "note_on", "time": 2, "note": 70, "velocity": 84, "channel": 0}, {"type": "note_off", "time": 46, "note": 70, "velocity": 84, "channel": 0}, {"type": "note_on", "time": 33, "note": 70, "velocity": 72, "channel": 0}, {"type": "note_off", "time": 19, "note": 70, "velocity": 72, "channel": 0}, {"type": "note_on", "time": 1, "note": 73, "velocity": 105, "channel": 0}, {"type": "note_off", "time": 55, "note": 73, "velocity": 105, "channel": 0}, {"type": "note_on", "time": 1, "note": 70, "velocity": 88, "channel": 0}, {"type": "note_off", "time": 37, "note": 70, "velocity": 88, "channel": 0}, {"type": "note_on", "time": 8, "note": 72, "velocity": 109, "channel": 0}, {"type": "note_off", "time": 57, "note": 72, "velocity": 109, "channel": 0}, {"type": "note_on", "time": 29, "note": 70, "velocity": 95, "channel": 0}, {"type": "note_off", "time": 44, "note": 70, "velocity": 95, "channel": 0}, {"type": "note_on", "time": 4, "note": 72, "velocity": 92, "channel": 0}, {"type": "note_off", "time": 18, "note": 72, "velocity": 92, "channel": 0}, {"type": "note_on", "time": 1, "note": 70, "velocity": 103, "channel": 0}, {"type": "note_off", "time": 23, "note": 70, "velocity": 103, "channel": 0}, {"type": "note_on", "time": 0, "note": 69, "velocity": 110, "channel": 0}, {"type": "note_off", "time": 49, "note": 69, "velocity": 110, "channel": 0}, {"type": "note_on", "time": 3, "note": 65, "velocity": 110, "channel": 0}, {"type": "note_off", "time": 54, "note": 65, "velocity": 110, "channel": 0}, {"type": "note_on", "time": 0, "note": 61, "velocity": 94, "channel": 0}, {"type": "note_off", "time": 61, "note": 61, "velocity": 94, "channel": 0}, {"type": "note_on", "time": 6, "note": 60, "velocity": 91, "channel": 0}, {"type": "note_off", "time": 40, "note": 60, "velocity": 91, "channel": 0}, {"type": "note_on", "time": 6, "note": 58, "velocity": 85, "channel": 0}, {"type": "note_off", "time": 62, "note": 58, "velocity": 85, "channel": 0}, {"type": "note_on", "time": 26, "note": 60, "velocity": 85, "channel": 0}, {"type": "note_off", "time": 11, "note": 60, "velocity": 85, "channel": 0}, {"type": "note_on", "time": 2, "note": 64, "velocity": 83, "channel": 0}, {"type": "note_off", "time": 16, "note": 64, "velocity": 83, "channel": 0}, {"type": "note_on", "time": 0, "note": 67, "velocity": 112, "channel": 0}, {"type": "note_off", "time": 63, "note": 67, "velocity": 112, "channel": 0}, {"type": "note_on", "time": 2, "note": 65, "velocity": 113, "channel": 0}, {"type": "note_off", "time": 84, "note": 65, "velocity": 113, "channel": 0}, {"type": "note_on", "time": 19, "note": 62, "velocity": 101, "channel": 0}, {"type": "note_off", "time": 84, "note": 62, "velocity": 101, "channel": 0}, {"type": "note_on", "time": 1, "note": 60, "velocity": 92, "channel": 0}, {"type": "note_off", "time": 47, "note": 60, "velocity": 92, "channel": 0}, {"type": "note_on", "time": 13, "note": 63, "velocity": 80, "channel": 0}, {"type": "note_off", "time": 276, "note": 63, "velocity": 80, "channel": 0}, {"type": "note_on", "time": 419, "note": 74, "velocity": 120, "channel": 0}, {"type": "note_off", "time": 91, "note": 74, "velocity": 120, "channel": 0}, {"type": "note_on", "time": 5, "note": 75, "velocity": 121, "channel": 0}, {"type": "note_off", "time": 64, "note": 75, "velocity": 121, "channel": 0}, {"type": "note_on", "time": 0, "note": 72, "velocity": 101, "channel": 0}, {"type": "note_off", "time": 80, "note": 72, "velocity": 101, "channel": 0}, {"type": "note_on", "time": 1, "note": 68, "velocity": 98, "channel": 0}, {"type": "note_off", "time": 19, "note": 68, "velocity": 98, "channel": 0}, {"type": "note_on", "time": 2, "note": 69, "velocity": 108, "channel": 0}, {"type": "note_off", "time": 48, "note": 69, "velocity": 108, "channel": 0}, {"type": "note_on", "time": 5, "note": 65, "velocity": 112, "channel": 0}, {"type": "note_off", "time": 28, "note": 65, "velocity": 112, "channel": 0}, {"type": "note_on", "time": 1, "note": 66, "velocity": 104, "channel": 0}, {"type": "note_off", "time": 73, "note": 66, "velocity": 104, "channel": 0}, {"type": "note_on", "time": 240, "note": 63, "velocity": 89, "channel": 0}, {"type": "note_off", "time": 56, "note": 63, "velocity": 89, "channel": 0}, {"type": "note_on", "time": 3, "note": 64, "velocity": 91, "channel": 0}, {"type": "note_off", "time": 19, "note": 64, "velocity": 91, "channel": 0}, {"type": "note_on", "time": 15, "note": 67, "velocity": 110, "channel": 0}, {"type": "note_off", "time": 43, "note": 67, "velocity": 110, "channel": 0}, {"type": "note_on", "time": 10, "note": 70, "velocity": 73, "channel": 0}, {"type": "note_off", "time": 50, "note": 70, "velocity": 73, "channel": 0}, {"type": "note_on", "time": 9, "note": 71, "velocity": 71, "channel": 0}, {"type": "note_off", "time": 47, "note": 71, "velocity": 71, "channel": 0}, {"type": "note_on", "time": 4, "note": 72, "velocity": 67, "channel": 0}, {"type": "note_off", "time": 38, "note": 72, "velocity": 67, "channel": 0}, {"type": "note_on", "time": 11, "note": 74, "velocity": 113, "channel": 0}, {"type": "note_off", "time": 51, "note": 74, "velocity": 113, "channel": 0}, {"type": "note_on", "time": 2, "note": 72, "velocity": 109, "channel": 0}, {"type": "note_off", "time": 37, "note": 72, "velocity": 109, "channel": 0}, {"type": "note_on", "time": 1, "note": 71, "velocity": 108, "channel": 0}, {"type": "note_off", "time": 42, "note": 71, "velocity": 108, "channel": 0}, {"type": "note_on", "time": 1, "note": 69, "velocity": 79, "channel": 0}, {"type": "note_off", "time": 104, "note": 69, "velocity": 79, "channel": 0}, {"type": "note_on", "time": 9, "note": 71, "velocity": 81, "channel": 0}, {"type": "note_off", "time": 26, "note": 71, "velocity": 81, "channel": 0}, {"type": "note_on", "time": 1, "note": 72, "velocity": 109, "channel": 0}, {"type": "note_off", "time": 61, "note": 72, "velocity": 109, "channel": 0}, {"type": "note_on", "time": 0, "note": 69, "velocity": 96, "channel": 0}, {"type": "note_off", "time": 74, "note": 69, "velocity": 96, "channel": 0}, {"type": "note_on", "time": 236, "note": 71, "velocity": 97, "channel": 0}, {"type": "note_off", "time": 40, "note": 71, "velocity": 97, "channel": 0}, {"type": "note_on", "time": 5, "note": 69, "velocity": 109, "channel": 0}, {"type": "note_off", "time": 26, "note": 69, "velocity": 109, "channel": 0}, {"type": "note_on", "time": 1, "note": 67, "velocity": 114, "channel": 0}, {"type": "note_off", "time": 55, "note": 67, "velocity": 114, "channel": 0}, {"type": "note_on", "time": 1, "note": 65, "velocity": 113, "channel": 0}, {"type": "note_off", "time": 54, "note": 65, "velocity": 113, "channel": 0}, {"type": "note_on", "time": 1, "note": 64, "velocity": 113, "channel": 0}, {"type": "note_off", "time": 27, "note": 64, "velocity": 113, "channel": 0}, {"type": "note_on", "time": 2, "note": 62, "velocity": 102, "channel": 0}, {"type": "note_off", "time": 58, "note": 62, "velocity": 102, "channel": 0}, {"type": "note_on", "time": 1, "note": 61, "velocity": 92, "channel": 0}, {"type": "note_off", "time": 28, "note": 61, "velocity": 92, "channel": 0}, {"type": "note_on", "time": 2, "note": 62, "velocity": 94, "channel": 0}, {"type": "note_off", "time": 44, "note": 62, "velocity": 94, "channel": 0}, {"type": "note_on", "time": 6, "note": 64, "velocity": 108, "channel": 0}, {"type": "note_off", "time": 68, "note": 64, "velocity": 108, "channel": 0}, {"type": "note_on", "time": 0, "note": 61, "velocity": 98, "channel": 0}, {"type": "note_off", "time": 24, "note": 61, "velocity": 98, "channel": 0}, {"type": "note_on", "time": 2, "note": 62, "velocity": 100, "channel": 0}, {"type": "note_off", "time": 56, "note": 62, "velocity": 100, "channel": 0}, {"type": "note_on", "time": 2, "note": 64, "velocity": 109, "channel": 0}, {"type": "note_off", "time": 36, "note": 64, "velocity": 109, "channel": 0}, {"type": "note_on", "time": 2, "note": 65, "velocity": 114, "channel": 0}, {"type": "note_off", "time": 55, "note": 65, "velocity": 114, "channel": 0}, {"type": "note_on", "time": 1, "note": 67, "velocity": 104, "channel": 0}, {"type": "note_off", "time": 44, "note": 67, "velocity": 104, "channel": 0}, {"type": "note_on", "time": 1, "note": 69, "velocity": 115, "channel": 0}, {"type": "note_off", "time": 41, "note": 69, "velocity": 115, "channel": 0}, {"type": "note_on", "time": 1, "note": 65, "velocity": 111, "channel": 0}, {"type": "note_off", "time": 52, "note": 65, "velocity": 111, "channel": 0}, {"type": "note_on", "time": 2, "note": 62, "velocity": 84, "channel": 0}, {"type": "note_off", "time": 70, "note": 62, "velocity": 84, "channel": 0}, {"type": "note_on", "time": 1, "note": 61, "velocity": 105, "channel": 0}, {"type": "note_off", "time": 63, "note": 61, "velocity": 105, "channel": 0}, {"type": "note_on", "time": 7, "note": 69, "velocity": 110, "channel": 0}, {"type": "note_off", "time": 28, "note": 69, "velocity": 110, "channel": 0}, {"type": "note_on", "time": 2, "note": 65, "velocity": 103, "channel": 0}, {"type": "note_off", "time": 32, "note": 65, "velocity": 103, "channel": 0}, {"type": "note_on", "time": 1, "note": 61, "velocity": 95, "channel": 0}, {"type": "note_off", "time": 30, "note": 61, "velocity": 95, "channel": 0}, {"type": "note_on", "time": 0, "note": 57, "velocity": 86, "channel": 0}, {"type": "note_off", "time": 24, "note": 57, "velocity": 86, "channel": 0}, {"type": "note_on", "time": 5, "note": 60, "velocity": 89, "channel": 0}, {"type": "note_off", "time": 86, "note": 60, "velocity": 89, "channel": 0}, {"type": "note_on", "time": 18, "note": 59, "velocity": 93, "channel": 0}, {"type": "note_off", "time": 37, "note": 59, "velocity": 93, "channel": 0}, {"type": "note_on", "time": 1, "note": 69, "velocity": 97, "channel": 0}, {"type": "note_off", "time": 146, "note": 69, "velocity": 97, "channel": 0}, {"type": "note_on", "time": 100, "note": 62, "velocity": 102, "channel": 0}, {"type": "note_off", "time": 42, "note": 62, "velocity": 102, "channel": 0}, {"type": "note_on", "time": 2, "note": 64, "velocity": 107, "channel": 0}, {"type": "note_off", "time": 50, "note": 64, "velocity": 107, "channel": 0}, {"type": "note_on", "time": 2, "note": 67, "velocity": 116, "channel": 0}, {"type": "note_off", "time": 53, "note": 67, "velocity": 116, "channel": 0}, {"type": "note_on", "time": 3, "note": 66, "velocity": 116, "channel": 0}, {"type": "note_off", "time": 44, "note": 66, "velocity": 116, "channel": 0}, {"type": "note_on", "time": 3, "note": 65, "velocity": 114, "channel": 0}, {"type": "note_off", "time": 50, "note": 65, "velocity": 114, "channel": 0}, {"type": "note_on", "time": 1, "note": 64, "velocity": 112, "channel": 0}, {"type": "note_off", "time": 38, "note": 64, "velocity": 112, "channel": 0}, {"type": "note_on", "time": 2, "note": 62, "velocity": 97, "channel": 0}, {"type": "note_off", "time": 48, "note": 62, "velocity": 97, "channel": 0}, {"type": "note_on", "time": 5, "note": 59, "velocity": 80, "channel": 0}, {"type": "note_off", "time": 20, "note": 59, "velocity": 80, "channel": 0}, {"type": "note_on", "time": 3, "note": 60, "velocity": 101, "channel": 0}, {"type": "note_off", "time": 63, "note": 60, "velocity": 101, "channel": 0}, {"type": "note_on", "time": 2, "note": 68, "velocity": 108, "channel": 0}, {"type": "note_off", "time": 51, "note": 68, "velocity": 108, "channel": 0}, {"type": "note_on", "time": 3, "note": 65, "velocity": 94, "channel": 0}, {"type": "note_off", "time": 33, "note": 65, "velocity": 94, "channel": 0}, {"type": "note_on", "time": 3, "note": 66, "velocity": 97, "channel": 0}, {"type": "note_off", "time": 38, "note": 66, "velocity": 97, "channel": 0}, {"type": "note_on", "time": 2, "note": 67, "velocity": 114, "channel": 0}, {"type": "note_off", "time": 77, "note": 67, "velocity": 114, "channel": 0}, {"type": "note_on", "time": 3, "note": 64, "velocity": 87, "channel": 0}, {"type": "note_off", "time": 200, "note": 64, "velocity": 87, "channel": 0}, {"type": "note_on", "time": 498, "note": 70, "velocity": 115, "channel": 0}, {"type": "note_off", "time": 39, "note": 70, "velocity": 115, "channel": 0}, {"type": "note_on", "time": 1, "note": 72, "velocity": 123, "channel": 0}, {"type": "note_off", "time": 429, "note": 72, "velocity": 123, "channel": 0}, {"type": "note_on", "time": 2, "note": 74, "velocity": 106, "channel": 0}, {"type": "note_off", "time": 21, "note": 74, "velocity": 106, "channel": 0}, {"type": "note_on", "time": 2, "note": 72, "velocity": 108, "channel": 0}, {"type": "note_off", "time": 21, "note": 72, "velocity": 108, "channel": 0}, {"type": "note_on", "time": 3, "note": 71, "velocity": 114, "channel": 0}, {"type": "note_off", "time": 54, "note": 71, "velocity": 114, "channel": 0}, {"type": "note_on", "time": 40, "note": 72, "velocity": 120, "channel": 0}, {"type": "note_off", "time": 118, "note": 72, "velocity": 120, "channel": 0}, {"type": "note_on", "time": 4, "note": 67, "velocity": 99, "channel": 0}, {"type": "note_off", "time": 210, "note": 67, "velocity": 99, "channel": 0}, {"type": "note_on", "time": 219, "note": 71, "velocity": 86, "channel": 0}, {"type": "note_off", "time": 20, "note": 71, "velocity": 86, "channel": 0}, {"type": "note_on", "time": 7, "note": 72, "velocity": 127, "channel": 0}, {"type": "note_off", "time": 49, "note": 72, "velocity": 127, "channel": 0}, {"type": "note_on", "time": 6, "note": 72, "velocity": 111, "channel": 0}, {"type": "note_off", "time": 64, "note": 72, "velocity": 111, "channel": 0}, {"type": "note_on", "time": 1, "note": 71, "velocity": 115, "channel": 0}, {"type": "note_off", "time": 101, "note": 71, "velocity": 115, "channel": 0}, {"type": "note_on", "time": 23, "note": 72, "velocity": 117, "channel": 0}, {"type": "note_off", "time": 110, "note": 72, "velocity": 117, "channel": 0}, {"type": "note_on", "time": 2, "note": 67, "velocity": 114, "channel": 0}, {"type": "note_off", "time": 99, "note": 67, "velocity": 114, "channel": 0}, {"type": "note_on", "time": 6, "note": 77, "velocity": 110, "channel": 0}, {"type": "note_off", "time": 26, "note": 77, "velocity": 110, "channel": 0}, {"type": "note_on", "time": 2, "note": 78, "velocity": 124, "channel": 0}, {"type": "note_off", "time": 69, "note": 78, "velocity": 124, "channel": 0}, {"type": "note_on", "time": 3, "note": 77, "velocity": 123, "channel": 0}, {"type": "note_off", "time": 80, "note": 77, "velocity": 123, "channel": 0}, {"type": "note_on", "time": 2, "note": 75, "velocity": 120, "channel": 0}, {"type": "note_off", "time": 87, "note": 75, "velocity": 120, "channel": 0}, {"type": "note_on", "time": 2, "note": 72, "velocity": 104, "channel": 0}, {"type": "note_off", "time": 33, "note": 72, "velocity": 104, "channel": 0}, {"type": "note_on", "time": 2, "note": 74, "velocity": 120, "channel": 0}, {"type": "note_off", "time": 41, "note": 74, "velocity": 120, "channel": 0}, {"type": "note_on", "time": 2, "note": 76, "velocity": 120, "channel": 0}, {"type": "note_off", "time": 71, "note": 76, "velocity": 120, "channel": 0}, {"type": "note_on", "time": 4, "note": 72, "velocity": 116, "channel": 0}, {"type": "note_off", "time": 69, "note": 72, "velocity": 116, "channel": 0}, {"type": "note_on", "time": 9, "note": 67, "velocity": 114, "channel": 0}, {"type": "note_on", "time": 56, "note": 65, "velocity": 120, "channel": 0}, {"type": "note_off", "time": 0, "note": 67, "velocity": 114, "channel": 0}, {"type": "note_off", "time": 49, "note": 65, "velocity": 120, "channel": 0}, {"type": "note_on", "time": 4, "note": 67, "velocity": 115, "channel": 0}, {"type": "note_off", "time": 62, "note": 67, "velocity": 115, "channel": 0}, {"type": "note_on", "time": 8, "note": 63, "velocity": 112, "channel": 0}, {"type": "note_off", "time": 59, "note": 63, "velocity": 112, "channel": 0}, {"type": "note_on", "time": 11, "note": 64, "velocity": 108, "channel": 0}, {"type": "note_off", "time": 49, "note": 64, "velocity": 108, "channel": 0}, {"type": "note_on", "time": 1, "note": 60, "velocity": 92, "channel": 0}, {"type": "note_off", "time": 270, "note": 60, "velocity": 92, "channel": 0}, {"type": "note_on", "time": 258, "note": 72, "velocity": 116, "channel": 0}, {"type": "note_off", "time": 21, "note": 72, "velocity": 116, "channel": 0}, {"type": "note_on", "time": 2, "note": 74, "velocity": 117, "channel": 0}, {"type": "note_off", "time": 535, "note": 74, "velocity": 117, "channel": 0}, {"type": "note_on", "time": 2, "note": 72, "velocity": 119, "channel": 0}, {"type": "note_off", "time": 62, "note": 72, "velocity": 119, "channel": 0}, {"type": "note_on", "time": 1, "note": 70, "velocity": 116, "channel": 0}, {"type": "note_off", "time": 50, "note": 70, "velocity": 116, "channel": 0}, {"type": "note_on", "time": 1, "note": 69, "velocity": 117, "channel": 0}, {"type": "note_off", "time": 49, "note": 69, "velocity": 117, "channel": 0}, {"type": "note_on", "time": 2, "note": 65, "velocity": 116, "channel": 0}, {"type": "note_off", "time": 60, "note": 65, "velocity": 116, "channel": 0}, {"type": "note_on", "time": 2, "note": 62, "velocity": 102, "channel": 0}, {"type": "note_off", "time": 32, "note": 62, "velocity": 102, "channel": 0}, {"type": "note_on", "time": 2, "note": 60, "velocity": 100, "channel": 0}, {"type": "note_off", "time": 42, "note": 60, "velocity": 100, "channel": 0}, {"type": "note_on", "time": 7, "note": 67, "velocity": 119, "channel": 0}, {"type": "note_off", "time": 63, "note": 67, "velocity": 119, "channel": 0}, {"type": "note_on", "time": 2, "note": 65, "velocity": 119, "channel": 0}, {"type": "note_off", "time": 60, "note": 65, "velocity": 119, "channel": 0}, {"type": "note_on", "time": 1, "note": 60, "velocity": 101, "channel": 0}, {"type": "note_off", "time": 62, "note": 60, "velocity": 101, "channel": 0}, {"type": "note_on", "time": 3, "note": 57, "velocity": 84, "channel": 0}, {"type": "note_off", "time": 19, "note": 57, "velocity": 84, "channel": 0}, {"type": "note_on", "time": 7, "note": 62, "velocity": 111, "channel": 0}, {"type": "note_off", "time": 38, "note": 62, "velocity": 111, "channel": 0}, {"type": "note_on", "time": 4, "note": 63, "velocity": 104, "channel": 0}, {"type": "note_off", "time": 58, "note": 63, "velocity": 104, "channel": 0}, {"type": "note_on", "time": 3, "note": 53, "velocity": 92, "channel": 0}, {"type": "note_off", "time": 177, "note": 53, "velocity": 92, "channel": 0}, {"type": "note_on", "time": 152, "note": 71, "velocity": 113, "channel": 0}, {"type": "note_off", "time": 49, "note": 71, "velocity": 113, "channel": 0}, {"type": "note_on", "time": 1, "note": 72, "velocity": 123, "channel": 0}, {"type": "note_off", "time": 222, "note": 72, "velocity": 123, "channel": 0}, {"type": "note_on", "time": 7, "note": 69, "velocity": 119, "channel": 0}, {"type": "note_off", "time": 101, "note": 69, "velocity": 119, "channel": 0}, {"type": "note_on", "time": 7, "note": 67, "velocity": 117, "channel": 0}, {"type": "note_off", "time": 80, "note": 67, "velocity": 117, "channel": 0}, {"type": "note_on", "time": 4, "note": 64, "velocity": 109, "channel": 0}, {"type": "note_off", "time": 116, "note": 64, "velocity": 109, "channel": 0}, {"type": "note_on", "time": 9, "note": 60, "velocity": 83, "channel": 0}, {"type": "note_off", "time": 55, "note": 60, "velocity": 83, "channel": 0}, {"type": "note_on", "time": 4, "note": 62, "velocity": 109, "channel": 0}, {"type": "note_off", "time": 135, "note": 62, "velocity": 109, "channel": 0}, {"type": "note_on", "time": 2, "note": 59, "velocity": 82, "channel": 0}, {"type": "note_off", "time": 40, "note": 59, "velocity": 82, "channel": 0}, {"type": "note_on", "time": 3, "note": 60, "velocity": 106, "channel": 0}, {"type": "note_off", "time": 129, "note": 60, "velocity": 106, "channel": 0}, {"type": "note_on", "time": 3, "note": 66, "velocity": 108, "channel": 0}, {"type": "note_off", "time": 25, "note": 66, "velocity": 108, "channel": 0}, {"type": "note_on", "time": 5, "note": 67, "velocity": 118, "channel": 0}, {"type": "note_off", "time": 143, "note": 67, "velocity": 118, "channel": 0}, {"type": "note_on", "time": 192, "note": 71, "velocity": 115, "channel": 0}, {"type": "note_off", "time": 49, "note": 71, "velocity": 115, "channel": 0}, {"type": "note_on", "time": 1, "note": 69, "velocity": 111, "channel": 0}, {"type": "note_off", "time": 48, "note": 69, "velocity": 111, "channel": 0}, {"type": "note_on", "time": 2, "note": 67, "velocity": 117, "channel": 0}, {"type": "note_off", "time": 111, "note": 67, "velocity": 117, "channel": 0}, {"type": "note_on", "time": 2, "note": 64, "velocity": 113, "channel": 0}, {"type": "note_off", "time": 73, "note": 64, "velocity": 113, "channel": 0}, {"type": "note_on", "time": 5, "note": 59, "velocity": 99, "channel": 0}, {"type": "note_off", "time": 120, "note": 59, "velocity": 99, "channel": 0}, {"type": "note_on", "time": 3, "note": 55, "velocity": 89, "channel": 0}, {"type": "note_off", "time": 64, "note": 55, "velocity": 89, "channel": 0}, {"type": "note_on", "time": 7, "note": 58, "velocity": 96, "channel": 0}, {"type": "note_off", "time": 92, "note": 58, "velocity": 96, "channel": 0}, {"type": "note_on", "time": 10, "note": 66, "velocity": 114, "channel": 0}, {"type": "note_off", "time": 66, "note": 66, "velocity": 114, "channel": 0}, {"type": "note_on", "time": 57, "note": 63, "velocity": 92, "channel": 0}, {"type": "note_off", "time": 28, "note": 63, "velocity": 92, "channel": 0}, {"type": "note_on", "time": 6, "note": 64, "velocity": 96, "channel": 0}, {"type": "note_off", "time": 30, "note": 64, "velocity": 96, "channel": 0}, {"type": "note_on", "time": 0, "note": 65, "velocity": 87, "channel": 0}, {"type": "note_off", "time": 241, "note": 65, "velocity": 87, "channel": 0}, {"type": "note_on", "time": 140, "note": 76, "velocity": 114, "channel": 0}, {"type": "note_off", "time": 49, "note": 76, "velocity": 114, "channel": 0}, {"type": "note_on", "time": 5, "note": 72, "velocity": 106, "channel": 0}, {"type": "note_off", "time": 28, "note": 72, "velocity": 106, "channel": 0}, {"type": "note_on", "time": 1, "note": 69, "velocity": 114, "channel": 0}, {"type": "note_off", "time": 101, "note": 69, "velocity": 114, "channel": 0}, {"type": "note_on", "time": 4, "note": 65, "velocity": 115, "channel": 0}, {"type": "note_off", "time": 84, "note": 65, "velocity": 115, "channel": 0}, {"type": "note_on", "time": 1, "note": 62, "velocity": 105, "channel": 0}, {"type": "note_off", "time": 132, "note": 62, "velocity": 105, "channel": 0}, {"type": "note_on", "time": 12, "note": 57, "velocity": 82, "channel": 0}, {"type": "note_off", "time": 49, "note": 57, "velocity": 82, "channel": 0}, {"type": "note_on", "time": 3, "note": 60, "velocity": 101, "channel": 0}, {"type": "note_off", "time": 130, "note": 60, "velocity": 101, "channel": 0}, {"type": "note_on", "time": 3, "note": 57, "velocity": 81, "channel": 0}, {"type": "note_off", "time": 42, "note": 57, "velocity": 81, "channel": 0}, {"type": "note_on", "time": 2, "note": 59, "velocity": 99, "channel": 0}, {"type": "note_off", "time": 96, "note": 59, "velocity": 99, "channel": 0}, {"type": "note_on", "time": 11, "note": 67, "velocity": 111, "channel": 0}, {"type": "note_off", "time": 99, "note": 67, "velocity": 111, "channel": 0}, {"type": "note_on", "time": 5, "note": 68, "velocity": 112, "channel": 0}, {"type": "note_off", "time": 221, "note": 68, "velocity": 112, "channel": 0}, {"type": "note_on", "time": 5, "note": 67, "velocity": 110, "channel": 0}, {"type": "note_off", "time": 73, "note": 67, "velocity": 110, "channel": 0}, {"type": "note_on", "time": 4, "note": 65, "velocity": 107, "channel": 0}, {"type": "note_off", "time": 75, "note": 65, "velocity": 107, "channel": 0}, {"type": "note_on", "time": 20, "note": 63, "velocity": 108, "channel": 0}, {"type": "note_off", "time": 15, "note": 63, "velocity": 108, "channel": 0}, {"type": "note_on", "time": 2, "note": 64, "velocity": 102, "channel": 0}, {"type": "note_off", "time": 75, "note": 64, "velocity": 102, "channel": 0}, {"type": "note_on", "time": 10, "note": 60, "velocity": 98, "channel": 0}, {"type": "note_off", "time": 66, "note": 60, "velocity": 98, "channel": 0}, {"type": "note_on", "time": 39, "note": 60, "velocity": 95, "channel": 0}, {"type": "note_off", "time": 59, "note": 60, "velocity": 95, "channel": 0}, {"type": "note_on", "time": 50, "note": 60, "velocity": 93, "channel": 0}, {"type": "note_off", "time": 204, "note": 60, "velocity": 93, "channel": 0}, {"type": "note_on", "time": 300, "note": 60, "velocity": 104, "channel": 0}, {"type": "note_off", "time": 146, "note": 60, "velocity": 104, "channel": 0}, {"type": "note_on", "time": 3, "note": 62, "velocity": 100, "channel": 0}, {"type": "note_off", "time": 30, "note": 62, "velocity": 100, "channel": 0}, {"type": "note_on", "time": 1, "note": 60, "velocity": 100, "channel": 0}, {"type": "note_off", "time": 28, "note": 60, "velocity": 100, "channel": 0}, {"type": "note_on", "time": 3, "note": 59, "velocity": 92, "channel": 0}, {"type": "note_off", "time": 47, "note": 59, "velocity": 92, "channel": 0}, {"type": "note_on", "time": 56, "note": 62, "velocity": 107, "channel": 0}, {"type": "note_off", "time": 65, "note": 62, "velocity": 107, "channel": 0}, {"type": "note_on", "time": 6, "note": 60, "velocity": 101, "channel": 0}, {"type": "note_off", "time": 63, "note": 60, "velocity": 101, "channel": 0}, {"type": "note_on", "time": 0, "note": 59, "velocity": 85, "channel": 0}, {"type": "note_off", "time": 52, "note": 59, "velocity": 85, "channel": 0}, {"type": "note_on", "time": 2, "note": 60, "velocity": 95, "channel": 0}, {"type": "note_off", "time": 56, "note": 60, "velocity": 95, "channel": 0}, {"type": "note_on", "time": 3, "note": 62, "velocity": 110, "channel": 0}, {"type": "note_off", "time": 55, "note": 62, "velocity": 110, "channel": 0}, {"type": "note_on", "time": 4, "note": 59, "velocity": 80, "channel": 0}, {"type": "note_off", "time": 54, "note": 59, "velocity": 80, "channel": 0}, {"type": "note_on", "time": 2, "note": 60, "velocity": 103, "channel": 0}, {"type": "note_off", "time": 77, "note": 60, "velocity": 103, "channel": 0}, {"type": "note_on", "time": 5, "note": 55, "velocity": 90, "channel": 0}, {"type": "note_off", "time": 267, "note": 55, "velocity": 90, "channel": 0}, {"type": "end_of_track", "time": 0}]]}