{"ticks_per_beat": 192, "tracks": [[{"type": "track_name", "name": "Melody", "time": 0}, {"type": "set_tempo", "tempo": 342857, "time": 0}, {"type": "key_signature", "key": "Bb", "time": 0}, {"type": "time_signature", "numerator": 4, "denominator": 4, "clocks_per_click": 24, "notated_32nd_notes_per_beat": 8, "time": 0}, {"type": "note_on", "time": 1815, "note": 60, "velocity": 106, "channel": 0}, {"type": "note_off", "time": 55, "note": 60, "velocity": 106, "channel": 0}, {"type": "note_on", "time": 3, "note": 58, "velocity": 100, "channel": 0}, {"type": "note_on", "time": 35, "note": 57, "velocity": 106, "channel": 0}, {"type": "note_off", "time": 0, "note": 58, "velocity": 100, "channel": 0}, {"type": "note_off", "time": 94, "note": 57, "velocity": 106, "channel": 0}, {"type": "note_on", "time": 9, "note": 58, "velocity": 90, "channel": 0}, {"type": "note_off", "time": 48, "note": 58, "velocity": 90, "channel": 0}, {"type": "note_on", "time": 13, "note": 60, "velocity": 117, "channel": 0}, {"type": "note_off", "time": 117, "note": 60, "velocity": 117, "channel": 0}, {"type": "note_on", "time": 5, "note": 58, "velocity": 100, "channel": 0}, {"type": "note_off", "time": 67, "note": 58, "velocity": 100, "channel": 0}, {"type": "note_on", "time": 4, "note": 57, "velocity": 109, "channel": 0}, {"type": "note_off", "time": 101, "note": 57, "velocity": 109, "channel": 0}, {"type": "note_on", "time": 13, "note": 58, "velocity": 95, "channel": 0}, {"type": "note_off", "time": 53, "note": 58, "velocity": 95, "channel": 0}, {"type": "note_on", "time": 3, "note": 62, "velocity": 117, "channel": 0}, {"type": "note_off", "time": 124, "note": 62, "velocity": 117, "channel": 0}, {"type": "note_on", "time": 8, "note": 63, "velocity": 120, "channel": 0}, {"type": "note_off", "time": 95, "note": 63, "velocity": 120, "channel": 0}, {"type": "note_on", "time": 13, "note": 62, "velocity": 100, "channel": 0}, {"type": "note_off", "time": 68, "note": 62, "velocity": 100, "channel": 0}, {"type": "note_on", "time": 21, "note": 58, "velocity": 80, "channel": 0}, {"type": "note_off", "time": 42, "note": 58, "velocity": 80, "channel": 0}, {"type": "note_on", "time": 2, "note": 60, "velocity": 119, "channel": 0}, {"type": "note_off", "time": 138, "note": 60, "velocity": 119, "channel": 0}, {"type": "note_on", "time": 2, "note": 57, "velocity": 103, "channel": 0}, {"type": "note_off", "time": 68, "note": 57, "velocity": 103, "channel": 0}, {"type": "note_on", "time": 6, "note": 58, "velocity": 98, "channel": 0}, {"type": "note_off", "time": 43, "note": 58, "velocity": 98, "channel": 0}, {"type": "note_on", "time": 9, "note": 61, "velocity": 107, "channel": 0}, {"type": "note_off", "time": 41, "note": 61, "velocity": 107, "channel": 0}, {"type": "note_on", "time": 9, "note": 65, "velocity": 118, "channel": 0}, {"type": "note_off", "time": 82, "note": 65, "velocity": 118, "channel": 0}, {"type": "note_on", "time": 7, "note": 69, "velocity": 123, "channel": 0}, {"type": "note_off", "time": 26, "note": 69, "velocity": 123, "channel": 0}, {"type": "note_on", "time": 2, "note": 70, "velocity": 113, "channel": 0}, {"type": "note_off", "time": 93, "note": 70, "velocity": 113, "channel": 0}, {"type": "note_on", "time": 8, "note": 65, "velocity": 101, "channel": 0}, {"type": "note_off", "time": 340, "note": 65, "velocity": 101, "channel": 0}, {"type": "note_on", "time": 448, "note": 69, "velocity": 117, "channel": 0}, {"type": "note_off", "time": 65, "note": 69, "velocity": 117, "channel": 0}, {"type": "note_on", "time": 3, "note": 67, "velocity": 116, "channel": 0}, {"type": "note_off", "time": 40, "note": 67, "velocity": 116, "channel": 0}, {"type": "note_on", "time": 2, "note": 66, "velocity": 119, "channel": 0}, {"type": "note_off", "time": 49, "note": 66, "velocity": 119, "channel": 0}, {"type": "note_on", "time": 1, "note": 67, "velocity": 117, "channel": 0}, {"type": "note_off", "time": 37, "note": 67, "velocity": 117, "channel": 0}, {"type": "note_on", "time": 2, "note": 70, "velocity": 117, "channel": 0}, {"type": "note_off", "time": 30, "note": 70, "velocity": 117, "channel": 0}, {"type": "note_on", "time": 1, "note": 67, "velocity": 118, "channel": 0}, {"type": "note_off", "time": 47, "note": 67, "velocity": 118, "channel": 0}, {"type": "note_on", "time": 2, "note": 63, "velocity": 117, "channel": 0}, {"type": "note_off", "time": 53, "note": 63, "velocity": 117, "channel": 0}, {"type": "note_on", "time": 1, "note": 62, "velocity": 114, "channel": 0}, {"type": "note_off", "time": 68, "note": 62, "velocity": 114, "channel": 0}, {"type": "note_on", "time": 3, "note": 60, "velocity": 110, "channel": 0}, {"type": "note_off", "time": 43, "note": 60, "velocity": 110, "channel": 0}, {"type": "note_on", "time": 10, "note": 57, "velocity": 101, "channel": 0}, {"type": "note_off", "time": 67, "note": 57, "velocity": 101, "channel": 0}, {"type": "note_on", "time": 0, "note": 60, "velocity": 109, "channel": 0}, {"type": "note_off", "time": 42, "note": 60, "velocity": 109, "channel": 0}, {"type": "note_on", "time": 3, "note": 63, "velocity": 116, "channel": 0}, {"type": "note_off", "time": 41, "note": 63, "velocity": 116, "channel": 0}, {"type": "note_on", "time": 1, "note": 66, "velocity": 120, "channel": 0}, {"type": "note_off", "time": 69, "note": 66, "velocity": 120, "channel": 0}, {"type": "note_on", "time": 4, "note": 63, "velocity": 111, "channel": 0}, {"type": "note_off", "time": 50, "note": 63, "velocity": 111, "channel": 0}, {"type": "note_on", "time": 1, "note": 60, "velocity": 108, "channel": 0}, {"type": "note_off", "time": 30, "note": 60, "velocity": 108, "channel": 0}, {"type": "note_on", "time": 0, "note": 65, "velocity": 115, "channel": 0}, {"type": "note_off", "time": 82, "note": 65, "velocity": 115, "channel": 0}, {"type": "note_on", "time": 192, "note": 68, "velocity": 122, "channel": 0}, {"type": "note_off", "time": 57, "note": 68, "velocity": 122, "channel": 0}, {"type": "note_on", "time": 0, "note": 67, "velocity": 118, "channel": 0}, {"type": "note_off", "time": 47, "note": 67, "velocity": 118, "channel": 0}, {"type": "note_on", "time": 1, "note": 65, "velocity": 123, "channel": 0}, {"type": "note_off", "time": 54, "note": 65, "velocity": 123, "channel": 0}, {"type": "note_on", "time": 2, "note": 63, "velocity": 120, "channel": 0}, {"type": "note_off", "time": 63, "note": 63, "velocity": 120, "channel": 0}, {"type": "note_on", "time": 2, "note": 62, "velocity": 116, "channel": 0}, {"type": "note_off", "time": 29, "note": 62, "velocity": 116, "channel": 0}, {"type": "note_on", "time": 3, "note": 60, "velocity": 113, "channel": 0}, {"type": "note_off", "time": 31, "note": 60, "velocity": 113, "channel": 0}, {"type": "note_on", "time": 6, "note": 58, "velocity": 100, "channel": 0}, {"type": "note_off", "time": 36, "note": 58, "velocity": 100, "channel": 0}, {"type": "note_on", "time": 2, "note": 57, "velocity": 112, "channel": 0}, {"type": "note_off", "time": 42, "note": 57, "velocity": 112, "channel": 0}, {"type": "note_on", "time": 2, "note": 56, "velocity": 108, "channel": 0}, {"type": "note_off", "time": 52, "note": 56, "velocity": 108, "channel": 0}, {"type": "note_on", "time": 2, "note": 60, "velocity": 106, "channel": 0}, {"type": "note_off", "time": 57, "note": 60, "velocity": 106, "channel": 0}, {"type": "note_on", "time": 1, "note": 55, "velocity": 114, "channel": 0}, {"type": "note_off", "time": 76, "note": 55, "velocity": 114, "channel": 0}, {"type": "note_on", "time": 184, "note": 74, "velocity": 118, "channel": 0}, {"type": "note_off", "time": 69, "note": 74, "velocity": 118, "channel": 0}, {"type": "note_on", "time": 2, "note": 72, "velocity": 124, "channel": 0}, {"type": "note_off", "time": 43, "note": 72, "velocity": 124, "channel": 0}, {"type": "note_on", "time": 2, "note": 70, "velocity": 122, "channel": 0}, {"type": "note_off", "time": 31, "note": 70, "velocity": 122, "channel": 0}, {"type": "note_on", "time": 3, "note": 66, "velocity": 121, "channel": 0}, {"type": "note_off", "time": 57, "note": 66, "velocity": 121, "channel": 0}, {"type": "note_on", "time": 1, "note": 63, "velocity": 120, "channel": 0}, {"type": "note_off", "time": 49, "note": 63, "velocity": 120, "channel": 0}, {"type": "note_on", "time": 2, "note": 60, "velocity": 115, "channel": 0}, {"type": "note_off", "time": 28, "note": 60, "velocity": 115, "channel": 0}, {"type": "note_on", "time": 1, "note": 62, "velocity": 117, "channel": 0}, {"type": "note_off", "time": 88, "note": 62, "velocity": 117, "channel": 0}, {"type": "note_on", "time": 167, "note": 57, "velocity": 117, "channel": 0}, {"type": "note_off", "time": 68, "note": 57, "velocity": 117, "channel": 0}, {"type": "note_on", "time": 2, "note": 58, "velocity": 106, "channel": 0}, {"type": "note_off", "time": 35, "note": 58, "velocity": 106, "channel": 0}, {"type": "note_on", "time": 1, "note": 60, "velocity": 115, "channel": 0}, {"type": "note_off", "time": 84, "note": 60, "velocity": 115, "channel": 0}, {"type": "note_on", "time": 1, "note": 58, "velocity": 102, "channel": 0}, {"type": "note_off", "time": 28, "note": 58, "velocity": 102, "channel": 0}, {"type": "note_on", "time": 0, "note": 57, "velocity": 112, "channel": 0}, {"type": "note_off", "time": 40, "note": 57, "velocity": 112, "channel": 0}, {"type": "note_on", "time": 1, "note": 58, "velocity": 102, "channel": 0}, {"type": "note_off", "time": 28, "note": 58, "velocity": 102, "channel": 0}, {"type": "note_on", "time": 4, "note": 62, "velocity": 116, "channel": 0}, {"type": "note_off", "time": 52, "note": 62, "velocity": 116, "channel": 0}, {"type": "note_on", "time": 1, "note": 65, "velocity": 114, "channel": 0}, {"type": "note_off", "time": 52, "note": 65, "velocity": 114, "channel": 0}, {"type": "note_on", "time": 0, "note": 67, "velocity": 113, "channel": 0}, {"type": "note_off", "time": 73, "note": 67, "velocity": 113, "channel": 0}, {"type": "note_on", "time": 4, "note": 72, "velocity": 119, "channel": 0}, {"type": "note_off", "time": 74, "note": 72, "velocity": 119, "channel": 0}, {"type": "note_on", "time": 3, "note": 69, "velocity": 118, "channel": 0}, {"type": "note_off", "time": 70, "note": 69, "velocity": 118, "channel": 0}, {"type": "note_on", "time": 10, "note": 72, "velocity": 88, "channel": 0}, {"type": "note_off", "time": 25, "note": 72, "velocity": 88, "channel": 0}, {"type": "note_on", "time": 7, "note": 74, "velocity": 124, "channel": 0}, {"type": "note_off", "time": 71, "note": 74, "velocity": 124, "channel": 0}, {"type": "note_on", "time": 6, "note": 77, "velocity": 122, "channel": 0}, {"type": "note_off", "time": 82, "note": 77, "velocity": 122, "channel": 0}, {"type": "note_on", "time": 531, "note": 66, "velocity": 115, "channel": 0}, {"type": "note_off", "time": 99, "note": 66, "velocity": 115, "channel": 0}, {"type": "note_on", "time": 2, "note": 67, "velocity": 105, "channel": 0}, {"type": "note_off", "time": 74, "note": 67, "velocity": 105, "channel": 0}, {"type": "note_on", "time": 5, "note": 75, "velocity": 101, "channel": 0}, {"type": "note_off", "time": 86, "note": 75, "velocity": 101, "channel": 0}, {"type": "note_on", "time": 0, "note": 77, "velocity": 121, "channel": 0}, {"type": "note_off", "time": 106, "note": 77, "velocity": 121, "channel": 0}, {"type": "note_on", "time": 7, "note": 75, "velocity": 122, "channel": 0}, {"type": "note_off", "time": 101, "note": 75, "velocity": 122, "channel": 0}, {"type": "note_on", "time": 3, "note": 74, "velocity": 123, "channel": 0}, {"type": "note_off", "time": 76, "note": 74, "velocity": 123, "channel": 0}, {"type": "note_on", "time": 3, "note": 72, "velocity": 121, "channel": 0}, {"type": "note_off", "time": 106, "note": 72, "velocity": 121, "channel": 0}, {"type": "note_on", "time": 4, "note": 70, "velocity": 106, "channel": 0}, {"type": "note_off", "time": 98, "note": 70, "velocity": 106, "channel": 0}, {"type": "note_on", "time": 2, "note": 72, "velocity": 96, "channel": 0}, {"type": "note_off", "time": 36, "note": 72, "velocity": 96, "channel": 0}, {"type": "note_on", "time": 3, "note": 70, "velocity": 114, "channel": 0}, {"type": "note_off", "time": 48, "note": 70, "velocity": 114, "channel": 0}, {"type": "note_on", "time": 0, "note": 69, "velocity": 119, "channel": 0}, {"type": "note_off", "time": 106, "note": 69, "velocity": 119, "channel": 0}, {"type": "note_on", "time": 16, "note": 70, "velocity": 86, "channel": 0}, {"type": "note_off", "time": 31, "note": 70, "velocity": 86, "channel": 0}, {"type": "note_on", "time": 1, "note": 72, "velocity": 123, "channel": 0}, {"type": "note_off", "time": 141, "note": 72, "velocity": 123, "channel": 0}, {"type": "note_on", "time": 1, "note": 70, "velocity": 109, "channel": 0}, {"type": "note_off", "time": 67, "note": 70, "velocity": 109, "channel": 0}, {"type": "note_on", "time": 6, "note": 67, "velocity": 114, "channel": 0}, {"type": "note_off", "time": 109, "note": 67, "velocity": 114, "channel": 0}, {"type": "note_on", "time": 4, "note": 65, "velocity": 119, "channel": 0}, {"type": "note_off", "time": 247, "note": 65, "velocity": 119, "channel": 0}, {"type": "note_on", "time": 121, "note": 62, "velocity": 111, "channel": 0}, {"type": "note_off", "time": 79, "note": 62, "velocity": 111, "channel": 0}, {"type": "note_on", "time": 9, "note": 69, "velocity": 110, "channel": 0}, {"type": "note_off", "time": 37, "note": 69, "velocity": 110, "channel": 0}, {"type": "note_on", "time": 0, "note": 70, "velocity": 109, "channel": 0}, {"type": "note_off", "time": 39, "note": 70, "velocity": 109, "channel": 0}, {"type": "note_on", "time": 0, "note": 69, "velocity": 116, "channel": 0}, {"type": "note_off", "time": 41, "note": 69, "velocity": 116, "channel": 0}, {"type": "note_on", "time": 3, "note": 65, "velocity": 120, "channel": 0}, {"type": "note_off", "time": 69, "note": 65, "velocity": 120, "channel": 0}, {"type": "note_on", "time": 8, "note": 62, "velocity": 115, "channel": 0}, {"type": "note_off", "time": 106, "note": 62, "velocity": 115, "channel": 0}, {"type": "note_on", "time": 4, "note": 57, "velocity": 112, "channel": 0}, {"type": "note_off", "time": 78, "note": 57, "velocity": 112, "channel": 0}, {"type": "note_on", "time": 4, "note": 56, "velocity": 110, "channel": 0}, {"type": "note_off", "time": 104, "note": 56, "velocity": 110, "channel": 0}, {"type": "note_on", "time": 3, "note": 64, "velocity": 122, "channel": 0}, {"type": "note_off", "time": 88, "note": 64, "velocity": 122, "channel": 0}, {"type": "note_on", "time": 1, "note": 63, "velocity": 120, "channel": 0}, {"type": "note_off", "time": 107, "note": 63, "velocity": 120, "channel": 0}, {"type": "note_on", "time": 14, "note": 55, "velocity": 100, "channel": 0}, {"type": "note_off", "time": 70, "note": 55, "velocity": 100, "channel": 0}, {"type": "note_on", "time": 3, "note": 57, "velocity": 93, "channel": 0}, {"type": "note_off", "time": 92, "note": 57, "velocity": 93, "channel": 0}, {"type": "note_on", "time": 2, "note": 62, "velocity": 119, "channel": 0}, {"type": "note_off", "time": 92, "note": 62, "velocity": 119, "channel": 0}, {"type": "note_on", "time": 4, "note": 60, "velocity": 113, "channel": 0}, {"type": "note_off", "time": 101, "note": 60, "velocity": 113, "channel": 0}, {"type": "note_on", "time": 12, "note": 58, "velocity": 100, "channel": 0}, {"type": "note_off", "time": 98, "note": 58, "velocity": 100, "channel": 0}, {"type": "note_on", "time": 7, "note": 60, "velocity": 108, "channel": 0}, {"type": "note_off", "time": 43, "note": 60, "velocity": 108, "channel": 0}, {"type": "note_on", "time": 1, "note": 63, "velocity": 117, "channel": 0}, {"type": "note_off", "time": 32, "note": 63, "velocity": 117, "channel": 0}, {"type": "note_on", "time": 3, "note": 66, "velocity": 122, "channel": 0}, {"type": "note_off", "time": 75, "note": 66, "velocity": 122, "channel": 0}, {"type": "note_on", "time": 1, "note": 65, "velocity": 124, "channel": 0}, {"type": "note_off", "time": 113, "note": 65, "velocity": 124, "channel": 0}, {"type": "note_on", "time": 4, "note": 63, "velocity": 116, "channel": 0}, {"type": "note_off", "time": 88, "note": 63, "velocity": 116, "channel": 0}, {"type": "note_on", "time": 7, "note": 62, "velocity": 109, "channel": 0}, {"type": "note_off", "time": 97, "note": 62, "velocity": 109, "channel": 0}, {"type": "note_on", "time": 3, "note": 60, "velocity": 112, "channel": 0}, {"type": "note_off", "time": 71, "note": 60, "velocity": 112, "channel": 0}, {"type": "note_on", "time": 1, "note": 58, "velocity": 103, "channel": 0}, {"type": "note_off", "time": 93, "note": 58, "velocity": 103, "channel": 0}, {"type": "note_on", "time": 4, "note": 56, "velocity": 120, "channel": 0}, {"type": "note_off", "time": 70, "note": 56, "velocity": 120, "channel": 0}, {"type": "note_on", "time": 12, "note": 55, "velocity": 111, "channel": 0}, {"type": "note_off", "time": 164, "note": 55, "velocity": 111, "channel": 0}, {"type": "note_on", "time": 597, "note": 66, "velocity": 124, "channel": 0}, {"type": "note_off", "time": 118, "note": 66, "velocity": 124, "channel": 0}, {"type": "note_on", "time": 47, "note": 72, "velocity": 126, "channel": 0}, {"type": "note_off", "time": 149, "note": 72, "velocity": 126, "channel": 0}, {"type": "note_on", "time": 4, "note": 70, "velocity": 114, "channel": 0}, {"type": "note_off", "time": 263, "note": 70, "velocity": 114, "channel": 0}, {"type": "note_on", "time": 14, "note": 65, "velocity": 115, "channel": 0}, {"type": "note_off", "time": 118, "note": 65, "velocity": 115, "channel": 0}, {"type": "note_on", "time": 9, "note": 70, "velocity": 100, "channel": 0}, {"type": "note_off", "time": 37, "note": 70, "velocity": 100, "channel": 0}, {"type": "note_on", "time": 6, "note": 72, "velocity": 126, "channel": 0}, {"type": "note_off", "time": 144, "note": 72, "velocity": 126, "channel": 0}, {"type": "note_on", "time": 0, "note": 70, "velocity": 115, "channel": 0}, {"type": "note_off", "time": 230, "note": 70, "velocity": 115, "channel": 0}, {"type": "note_on", "time": 715, "note": 62, "velocity": 112, "channel": 0}, {"type": "note_off", "time": 71, "note": 62, "velocity": 112, "channel": 0}, {"type": "note_on", "time": 6, "note": 66, "velocity": 109, "channel": 0}, {"type": "note_off", "time": 59, "note": 66, "velocity": 109, "channel": 0}, {"type": "note_on", "time": 3, "note": 69, "velocity": 109, "channel": 0}, {"type": "note_off", "time": 45, "note": 69, "velocity": 109, "channel": 0}, {"type": "note_on", "time": 1, "note": 74, "velocity": 111, "channel": 0}, {"type": "note_off", "time": 69, "note": 74, "velocity": 111, "channel": 0}, {"type": "note_on", "time": 0, "note": 75, "velocity": 122, "channel": 0}, {"type": "note_off", "time": 145, "note": 75, "velocity": 122, "channel": 0}, {"type": "note_on", "time": 4, "note": 72, "velocity": 118, "channel": 0}, {"type": "note_off", "time": 196, "note": 72, "velocity": 118, "channel": 0}, {"type": "note_on", "time": 58, "note": 70, "velocity": 119, "channel": 0}, {"type": "note_off", "time": 99, "note": 70, "velocity": 119, "channel": 0}, {"type": "note_on", "time": 2, "note": 72, "velocity": 112, "channel": 0}, {"type": "note_off", "time": 47, "note": 72, "velocity": 112, "channel": 0}, {"type": "note_on", "time": 0, "note": 70, "velocity": 118, "channel": 0}, {"type": "note_off", "time": 41, "note": 70, "velocity": 118, "channel": 0}, {"type": "note_on", "time": 1, "note": 68, "velocity": 120, "channel": 0}, {"type": "note_off", "time": 101, "note": 68, "velocity": 120, "channel": 0}, {"type": "note_on", "time": 6, "note": 66, "velocity": 121, "channel": 0}, {"type": "note_off", "time": 80, "note": 66, "velocity": 121, "channel": 0}, {"type": "note_on", "time": 4, "note": 63, "velocity": 113, "channel": 0}, {"type": "note_off", "time": 129, "note": 63, "velocity": 113, "channel": 0}, {"type": "note_on", "time": 6, "note": 60, "velocity": 111, "channel": 0}, {"type": "note_off", "time": 45, "note": 60, "velocity": 111, "channel": 0}, {"type": "note_on", "time": 3, "note": 69, "velocity": 118, "channel": 0}, {"type": "note_off", "time": 120, "note": 69, "velocity": 118, "channel": 0}, {"type": "note_on", "time": 19, "note": 62, "velocity": 104, "channel": 0}, {"type": "note_on", "time": 57, "note": 64, "velocity": 119, "channel": 0}, {"type": "note_off", "time": 0, "note": 62, "velocity": 104, "channel": 0}, {"type": "note_off", "time": 112, "note": 64, "velocity": 119, "channel": 0}, {"type": "note_on", "time": 3, "note": 65, "velocity": 96, "channel": 0}, {"type": "note_off", "time": 269, "note": 65, "velocity": 96, "channel": 0}, {"type": "note_on", "time": 312, "note": 58, "velocity": 109, "channel": 0}, {"type": "note_off", "time": 39, "note": 58, "velocity": 109, "channel": 0}, {"type": "note_on", "time": 10, "note": 59, "velocity": 109, "channel": 0}, {"type": "note_off", "time": 68, "note": 59, "velocity": 109, "channel": 0}, {"type": "note_on", "time": 0, "note": 63, "velocity": 113, "channel": 0}, {"type": "note_off", "time": 59, "note": 63, "velocity": 113, "channel": 0}, {"type": "note_on", "time": 6, "note": 65, "velocity": 115, "channel": 0}, {"type": "note_off", "time": 58, "note": 65, "velocity": 115, "channel": 0}, {"type": "note_on", "time": 8, "note": 70, "velocity": 118, "channel": 0}, {"type": "note_off", "time": 64, "note": 70, "velocity": 118, "channel": 0}, {"type": "note_on", "time": 4, "note": 68, "velocity": 116, "channel": 0}, {"type": "note_off", "time": 99, "note": 68, "velocity": 116, "channel": 0}, {"type": "note_on", "time": 527, "note": 62, "velocity": 114, "channel": 0}, {"type": "note_off", "time": 70, "note": 62, "velocity": 114, "channel": 0}, {"type": "note_on", "time": 8, "note": 66, "velocity": 109, "channel": 0}, {"type": "note_off", "time": 46, "note": 66, "velocity": 109, "channel": 0}, {"type": "note_on", "time": 1, "note": 67, "velocity": 107, "channel": 0}, {"type": "note_off", "time": 67, "note": 67, "velocity": 107, "channel": 0}, {"type": "note_on", "time": 3, "note": 70, "velocity": 95, "channel": 0}, {"type": "note_off", "time": 21, "note": 70, "velocity": 95, "channel": 0}, {"type": "note_on", "time": 3, "note": 75, "velocity": 99, "channel": 0}, {"type": "note_off", "time": 34, "note": 75, "velocity": 99, "channel": 0}, {"type": "note_on", "time": 1, "note": 77, "velocity": 119, "channel": 0}, {"type": "note_off", "time": 78, "note": 77, "velocity": 119, "channel": 0}, {"type": "note_on", "time": 2, "note": 75, "velocity": 116, "channel": 0}, {"type": "note_off", "time": 40, "note": 75, "velocity": 116, "channel": 0}, {"type": "note_on", "time": 0, "note": 76, "velocity": 122, "channel": 0}, {"type": "note_off", "time": 90, "note": 76, "velocity": 122, "channel": 0}, {"type": "note_on", "time": 1, "note": 72, "velocity": 122, "channel": 0}, {"type": "note_off", "time": 31, "note": 72, "velocity": 122, "channel": 0}, {"type": "note_on", "time": 1, "note": 73, "velocity": 118, "channel": 0}, {"type": "note_off", "time": 48, "note": 73, "velocity": 118, "channel": 0}, {"type": "note_on", "time": 0, "note": 74, "velocity": 119, "channel": 0}, {"type": "note_off", "time": 49, "note": 74, "velocity": 119, "channel": 0}, {"type": "note_on", "time": 6, "note": 72, "velocity": 122, "channel": 0}, {"type": "note_off", "time": 30, "note": 72, "velocity": 122, "channel": 0}, {"type": "note_on", "time": 2, "note": 70, "velocity": 119, "channel": 0}, {"type": "note_off", "time": 46, "note": 70, "velocity": 119, "channel": 0}, {"type": "note_on", "time": 2, "note": 69, "velocity": 117, "channel": 0}, {"type": "note_off", "time": 46, "note": 69, "velocity": 117, "channel": 0}, {"type": "note_on", "time": 0, "note": 67, "velocity": 116, "channel": 0}, {"type": "note_off", "time": 35, "note": 67, "velocity": 116, "channel": 0}, {"type": "note_on", "time": 4, "note": 65, "velocity": 123, "channel": 0}, {"type": "note_off", "time": 56, "note": 65, "velocity": 123, "channel": 0}, {"type": "note_on", "time": 2, "note": 64, "velocity": 119, "channel": 0}, {"type": "note_off", "time": 43, "note": 64, "velocity": 119, "channel": 0}, {"type": "note_on", "time": 1, "note": 67, "velocity": 108, "channel": 0}, {"type": "note_off", "time": 47, "note": 67, "velocity": 108, "channel": 0}, {"type": "note_on", "time": 3, "note": 70, "velocity": 114, "channel": 0}, {"type": "note_off", "time": 40, "note": 70, "velocity": 114, "channel": 0}, {"type": "note_on", "time": 1, "note": 74, "velocity": 118, "channel": 0}, {"type": "note_off", "time": 40, "note": 74, "velocity": 118, "channel": 0}, {"type": "note_on", "time": 2, "note": 69, "velocity": 113, "channel": 0}, {"type": "note_off", "time": 88, "note": 69, "velocity": 113, "channel": 0}, {"type": "note_on", "time": 195, "note": 72, "velocity": 118, "channel": 0}, {"type": "note_off", "time": 59, "note": 72, "velocity": 118, "channel": 0}, {"type": "note_on", "time": 4, "note": 71, "velocity": 122, "channel": 0}, {"type": "note_off", "time": 45, "note": 71, "velocity": 122, "channel": 0}, {"type": "note_on", "time": 1, "note": 70, "velocity": 121, "channel": 0}, {"type": "note_off", "time": 108, "note": 70, "velocity": 121, "channel": 0}, {"type": "note_on", "time": 171, "note": 69, "velocity": 119, "channel": 0}, {"type": "note_off", "time": 82, "note": 69, "velocity": 119, "channel": 0}, {"type": "note_on", "time": 1, "note": 67, "velocity": 111, "channel": 0}, {"type": "note_off", "time": 40, "note": 67, "velocity": 111, "channel": 0}, {"type": "note_on", "time": 2, "note": 69, "velocity": 112, "channel": 0}, {"type": "note_off", "time": 35, "note": 69, "velocity": 112, "channel": 0}, {"type": "note_on", "time": 0, "note": 67, "velocity": 114, "channel": 0}, {"type": "note_on", "time": 47, "note": 65, "velocity": 113, "channel": 0}, {"type": "note_off", "time": 0, "note": 67, "velocity": 114, "channel": 0}, {"type": "note_off", "time": 60, "note": 65, "velocity": 113, "channel": 0}, {"type": "note_on", "time": 2, "note": 63, "velocity": 115, "channel": 0}, {"type": "note_off", "time": 114, "note": 63, "velocity": 115, "channel": 0}, {"type": "note_on", "time": 25, "note": 55, "velocity": 101, "channel": 0}, {"type": "note_off", "time": 47, "note": 55, "velocity": 101, "channel": 0}, {"type": "note_on", "time": 2, "note": 58, "velocity": 94, "channel": 0}, {"type": "note_off", "time": 99, "note": 58, "velocity": 94, "channel": 0}, {"type": "note_on", "time": 42, "note": 62, "velocity": 118, "channel": 0}, {"type": "note_off", "time": 54, "note": 62, "velocity": 118, "channel": 0}, {"type": "note_on", "time": 7, "note": 60, "velocity": 114, "channel": 0}, {"type": "note_off", "time": 104, "note": 60, "velocity": 114, "channel": 0}, {"type": "note_on", "time": 6, "note": 58, "velocity": 110, "channel": 0}, {"type": "note_off", "time": 68, "note": 58, "velocity": 110, "channel": 0}, {"type": "note_on", "time": 2, "note": 57, "velocity": 107, "channel": 0}, {"type": "note_off", "time": 48, "note": 57, "velocity": 107, "channel": 0}, {"type": "note_on", "time": 0, "note": 60, "velocity": 110, "channel": 0}, {"type": "note_off", "time": 32, "note": 60, "velocity": 110, "channel": 0}, {"type": "note_on", "time": 4, "note": 63, "velocity": 114, "channel": 0}, {"type": "note_off", "time": 34, "note": 63, "velocity": 114, "channel": 0}, {"type": "note_on", "time": 0, "note": 66, "velocity": 120, "channel": 0}, {"type": "note_off", "time": 79, "note": 66, "velocity": 120, "channel": 0}, {"type": "note_on", "time": 22, "note": 65, "velocity": 122, "channel": 0}, {"type": "note_off", "time": 102, "note": 65, "velocity": 122, "channel": 0}, {"type": "note_on", "time": 238, "note": 58, "velocity": 100, "channel": 0}, {"type": "note_off", "time": 28, "note": 58, "velocity": 100, "channel": 0}, {"type": "note_on", "time": 2, "note": 60, "velocity": 109, "channel": 0}, {"type": "note_off", "time": 292, "note": 60, "velocity": 109, "channel": 0}, {"type": "note_on", "time": 63, "note": 58, "velocity": 95, "channel": 0}, {"type": "note_off", "time": 35, "note": 58, "velocity": 95, "channel": 0}, {"type": "note_on", "time": 1, "note": 62, "velocity": 122, "channel": 0}, {"type": "note_off", "time": 141, "note": 62, "velocity": 122, "channel": 0}, {"type": "note_on", "time": 30, "note": 60, "velocity": 93, "channel": 0}, {"type": "note_off", "time": 35, "note": 60, "velocity": 93, "channel": 0}, {"type": "note_on", "time": 6, "note": 63, "velocity": 96, "channel": 0}, {"type": "note_off", "time": 329, "note": 63, "velocity": 96, "channel": 0}, {"type": "note_on", "time": 138, "note": 67, "velocity": 118, "channel": 0}, {"type": "note_off", "time": 73, "note": 67, "velocity": 118, "channel": 0}, {"type": "note_on", "time": 2, "note": 65, "velocity": 122, "channel": 0}, {"type": "note_off", "time": 121, "note": 65, "velocity": 122, "channel": 0}, {"type": "note_on", "time": 3, "note": 62, "velocity": 116, "channel": 0}, {"type": "note_off", "time": 76, "note": 62, "velocity": 116, "channel": 0}, {"type": "note_on", "time": 9, "note": 58, "velocity": 100, "channel": 0}, {"type": "note_on", "time": 41, "note": 60, "velocity": 99, "channel": 0}, {"type": "note_off", "time": 0, "note": 58, "velocity": 100, "channel": 0}, {"type": "note_off", "time": 42, "note": 60, "velocity": 99, "channel": 0}, {"type": "note_on", "time": 0, "note": 58, "velocity": 106, "channel": 0}, {"type": "note_off", "time": 32, "note": 58, "velocity": 106, "channel": 0}, {"type": "note_on", "time": 4, "note": 55, "velocity": 111, "channel": 0}, {"type": "note_off", "time": 62, "note": 55, "velocity": 111, "channel": 0}, {"type": "note_on", "time": 4, "note": 60, "velocity": 99, "channel": 0}, {"type": "note_off", "time": 345, "note": 60, "velocity": 99, "channel": 0}, {"type": "note_on", "time": 911, "note": 65, "velocity": 116, "channel": 0}, {"type": "note_off", "time": 68, "note": 65, "velocity": 116, "channel": 0}, {"type": "note_on", "time": 8, "note": 68, "velocity": 117, "channel": 0}, {"type": "note_off", "time": 80, "note": 68, "velocity": 117, "channel": 0}, {"type": "note_on", "time": 7, "note": 73, "velocity": 104, "channel": 0}, {"type": "note_off", "time": 48, "note": 73, "velocity": 104, "channel": 0}, {"type": "note_on", "time": 1, "note": 75, "velocity": 122, "channel": 0}, {"type": "note_off", "time": 53, "note": 75, "velocity": 122, "channel": 0}, {"type": "note_on", "time": 20, "note": 79, "velocity": 123, "channel": 0}, {"type": "note_off", "time": 103, "note": 79, "velocity": 123, "channel": 0}, {"type": "note_on", "time": 1, "note": 78, "velocity": 127, "channel": 0}, {"type": "note_off", "time": 74, "note": 78, "velocity": 127, "channel": 0}, {"type": "note_on", "time": 7, "note": 77, "velocity": 122, "channel": 0}, {"type": "note_off", "time": 100, "note": 77, "velocity": 122, "channel": 0}, {"type": "note_on", "time": 0, "note": 76, "velocity": 120, "channel": 0}, {"type": "note_off", "time": 107, "note": 76, "velocity": 120, "channel": 0}, {"type": "note_on", "time": 4, "note": 75, "velocity": 120, "channel": 0}, {"type": "note_off", "time": 148, "note": 75, "velocity": 120, "channel": 0}, {"type": "note_on", "time": 12, "note": 72, "velocity": 118, "channel": 0}, {"type": "note_off", "time": 137, "note": 72, "velocity": 118, "channel": 0}, {"type": "note_on", "time": 4, "note": 73, "velocity": 116, "channel": 0}, {"type": "note_off", "time": 265, "note": 73, "velocity": 116, "channel": 0}, {"type": "note_on", "time": 111, "note": 74, "velocity": 125, "channel": 0}, {"type": "note_off", "time": 103, "note": 74, "velocity": 125, "channel": 0}, {"type": "note_on", "time": 7, "note": 75, "velocity": 115, "channel": 0}, {"type": "note_off", "time": 93, "note": 75, "velocity": 115, "channel": 0}, {"type": "note_on", "time": 2, "note": 74, "velocity": 119, "channel": 0}, {"type": "note_off", "time": 79, "note": 74, "velocity": 119, "channel": 0}, {"type": "note_on", "time": 12, "note": 70, "velocity": 96, "channel": 0}, {"type": "note_off", "time": 28, "note": 70, "velocity": 96, "channel": 0}, {"type": "note_on", "time": 7, "note": 72, "velocity": 86, "channel": 0}, {"type": "note_off", "time": 28, "note": 72, "velocity": 86, "channel": 0}, {"type": "note_on", "time": 6, "note": 70, "velocity": 107, "channel": 0}, {"type": "note_off", "time": 29, "note": 70, "velocity": 107, "channel": 0}, {"type": "note_on", "time": 2, "note": 65, "velocity": 109, "channel": 0}, {"type": "note_off", "time": 69, "note": 65, "velocity": 109, "channel": 0}, {"type": "note_on", "time": 17, "note": 69, "velocity": 121, "channel": 0}, {"type": "note_off", "time": 97, "note": 69, "velocity": 121, "channel": 0}, {"type": "note_on", "time": 1, "note": 70, "velocity": 106, "channel": 0}, {"type": "note_off", "time": 45, "note": 70, "velocity": 106, "channel": 0}, {"type": "note_on", "time": 3, "note": 71, "velocity": 109, "channel": 0}, {"type": "note_off", "time": 48, "note": 71, "velocity": 109, "channel": 0}, {"type": "note_on", "time": 4, "note": 72, "velocity": 122, "channel": 0}, {"type": "note_off", "time": 107, "note": 72, "velocity": 122, "channel": 0}, {"type": "note_on", "time": 7, "note": 69, "velocity": 101, "channel": 0}, {"type": "note_off", "time": 60, "note": 69, "velocity": 101, "channel": 0}, {"type": "note_on", "time": 8, "note": 70, "velocity": 109, "channel": 0}, {"type": "note_off", "time": 98, "note": 70, "velocity": 109, "channel": 0}, {"type": "note_on", "time": 0, "note": 72, "velocity": 103, "channel": 0}, {"type": "note_off", "time": 46, "note": 72, "velocity": 103, "channel": 0}, {"type": "note_on", "time": 2, "note": 70, "velocity": 101, "channel": 0}, {"type": "note_off", "time": 68, "note": 70, "velocity": 101, "channel": 0}, {"type": "note_on", "time": 3, "note": 69, "velocity": 112, "channel": 0}, {"type": "note_off", "time": 72, "note": 69, "velocity": 112, "channel": 0}, {"type": "note_on", "time": 0, "note": 67, "velocity": 110, "channel": 0}, {"type": "note_off", "time": 84, "note": 67, "velocity": 110, "channel": 0}, {"type": "note_on", "time": 0, "note": 65, "velocity": 113, "channel": 0}, {"type": "note_off", "time": 108, "note": 65, "velocity": 113, "channel": 0}, {"type": "note_on", "time": 6, "note": 63, "velocity": 113, "channel": 0}, {"type": "note_off", "time": 36, "note": 63, "velocity": 113, "channel": 0}, {"type": "note_on", "time": 7, "note": 62, "velocity": 95, "channel": 0}, {"type": "note_off", "time": 132, "note": 62, "velocity": 95, "channel": 0}, {"type": "note_on", "time": 4, "note": 60, "velocity": 99, "channel": 0}, {"type": "note_off", "time": 76, "note": 60, "velocity": 99, "channel": 0}, {"type": "note_on", "time": 4, "note": 62, "velocity": 99, "channel": 0}, {"type": "note_off", "time": 95, "note": 62, "velocity": 99, "channel": 0}, {"type": "note_on", "time": 4, "note": 60, "velocity": 107, "channel": 0}, {"type": "note_off", "time": 81, "note": 60, "velocity": 107, "channel": 0}, {"type": "note_on", "time": 7, "note": 55, "velocity": 105, "channel": 0}, {"type": "note_off", "time": 290, "note": 55, "velocity": 105, "channel": 0}, {"type": "end_of_track", "time": 0}]]}