{"ticks_per_beat": 32760, "tracks": [[{"type": "track_name", "name": "Melody", "time": 0}, {"type": "set_tempo", "tempo": 882352, "time": 0}, {"type": "key_signature", "key": "G", "time": 0}, {"type": "time_signature", "numerator": 4, "denominator": 4, "clocks_per_click": 24, "notated_32nd_notes_per_beat": 8, "time": 0}, {"type": "note_on", "time": 174969, "note": 67, "velocity": 119, "channel": 0}, {"type": "note_off", "time": 5000, "note": 67, "velocity": 119, "channel": 0}, {"type": "note_on", "time": 303, "note": 66, "velocity": 118, "channel": 0}, {"type": "note_off", "time": 4394, "note": 66, "velocity": 118, "channel": 0}, {"type": "note_on", "time": 303, "note": 65, "velocity": 110, "channel": 0}, {"type": "note_off", "time": 3030, "note": 65, "velocity": 110, "channel": 0}, {"type": "note_on", "time": 606, "note": 64, "velocity": 106, "channel": 0}, {"type": "note_off", "time": 4849, "note": 64, "velocity": 106, "channel": 0}, {"type": "note_on", "time": 606, "note": 63, "velocity": 108, "channel": 0}, {"type": "note_off", "time": 4546, "note": 63, "velocity": 108, "channel": 0}, {"type": "note_on", "time": 909, "note": 62, "velocity": 105, "channel": 0}, {"type": "note_off", "time": 39855, "note": 62, "velocity": 105, "channel": 0}, {"type": "note_on", "time": 1363, "note": 64, "velocity": 115, "channel": 0}, {"type": "note_off", "time": 10153, "note": 64, "velocity": 115, "channel": 0}, {"type": "note_on", "time": 454, "note": 66, "velocity": 116, "channel": 0}, {"type": "note_off", "time": 9395, "note": 66, "velocity": 116, "channel": 0}, {"type": "note_on", "time": 303, "note": 69, "velocity": 95, "channel": 0}, {"type": "note_off", "time": 73346, "note": 69, "velocity": 95, "channel": 0}, {"type": "note_on", "time": 34248, "note": 67, "velocity": 114, "channel": 0}, {"type": "note_off", "time": 2727, "note": 67, "velocity": 114, "channel": 0}, {"type": "note_on", "time": 0, "note": 68, "velocity": 111, "channel": 0}, {"type": "note_off", "time": 1515, "note": 68, "velocity": 111, "channel": 0}, {"type": "note_on", "time": 151, "note": 67, "velocity": 117, "channel": 0}, {"type": "note_off", "time": 3940, "note": 67, "velocity": 117, "channel": 0}, {"type": "note_on", "time": 151, "note": 66, "velocity": 114, "channel": 0}, {"type": "note_off", "time": 6061, "note": 66, "velocity": 114, "channel": 0}, {"type": "note_on", "time": 0, "note": 67, "velocity": 119, "channel": 0}, {"type": "note_off", "time": 7880, "note": 67, "velocity": 119, "channel": 0}, {"type": "note_on", "time": 757, "note": 69, "velocity": 108, "channel": 0}, {"type": "note_off", "time": 7577, "note": 69, "velocity": 108, "channel": 0}, {"type": "note_on", "time": 909, "note": 67, "velocity": 119, "channel": 0}, {"type": "note_off", "time": 6667, "note": 67, "velocity": 119, "channel": 0}, {"type": "note_on", "time": 757, "note": 66, "velocity": 111, "channel": 0}, {"type": "note_off", "time": 8637, "note": 66, "velocity": 111, "channel": 0}, {"type": "note_on", "time": 303, "note": 67, "velocity": 109, "channel": 0}, {"type": "note_off", "time": 8334, "note": 67, "velocity": 109, "channel": 0}, {"type": "note_on", "time": 606, "note": 60, "velocity": 105, "channel": 0}, {"type": "note_off", "time": 3940, "note": 60, "velocity": 105, "channel": 0}, {"type": "note_on", "time": 2576, "note": 62, "velocity": 111, "channel": 0}, {"type": "note_off", "time": 10153, "note": 62, "velocity": 111, "channel": 0}, {"type": "note_on", "time": 151, "note": 64, "velocity": 105, "channel": 0}, {"type": "note_off", "time": 7122, "note": 64, "velocity": 105, "channel": 0}, {"type": "note_on", "time": 599, "note": 62, "velocity": 103, "channel": 0}, {"type": "note_off", "time": 4526, "note": 62, "velocity": 103, "channel": 0}, {"type": "note_on", "time": 1239, "note": 65, "velocity": 111, "channel": 0}, {"type": "note_off", "time": 10456, "note": 65, "velocity": 111, "channel": 0}, {"type": "note_on", "time": 1212, "note": 58, "velocity": 96, "channel": 0}, {"type": "note_off", "time": 6213, "note": 58, "velocity": 96, "channel": 0}, {"type": "note_on", "time": 757, "note": 60, "velocity": 101, "channel": 0}, {"type": "note_off", "time": 8486, "note": 60, "velocity": 101, "channel": 0}, {"type": "note_on", "time": 454, "note": 61, "velocity": 92, "channel": 0}, {"type": "note_off", "time": 32430, "note": 61, "velocity": 92, "channel": 0}, {"type": "note_on", "time": 75286, "note": 58, "velocity": 94, "channel": 0}, {"type": "note_off", "time": 3340, "note": 58, "velocity": 94, "channel": 0}, {"type": "note_on", "time": 323, "note": 61, "velocity": 108, "channel": 0}, {"type": "note_on", "time": 4095, "note": 65, "velocity": 102, "channel": 0}, {"type": "note_off", "time": 0, "note": 61, "velocity": 108, "channel": 0}, {"type": "note_off", "time": 3556, "note": 65, "velocity": 102, "channel": 0}, {"type": "note_on", "time": 107, "note": 68, "velocity": 107, "channel": 0}, {"type": "note_off", "time": 2694, "note": 68, "velocity": 107, "channel": 0}, {"type": "note_on", "time": 431, "note": 72, "velocity": 100, "channel": 0}, {"type": "note_off", "time": 3340, "note": 72, "velocity": 100, "channel": 0}, {"type": "note_on", "time": 646, "note": 75, "velocity": 110, "channel": 0}, {"type": "note_off", "time": 3879, "note": 75, "velocity": 110, "channel": 0}, {"type": "note_on", "time": 0, "note": 72, "velocity": 81, "channel": 0}, {"type": "note_off", "time": 9590, "note": 72, "velocity": 81, "channel": 0}, {"type": "note_on", "time": 30173, "note": 72, "velocity": 109, "channel": 0}, {"type": "note_off", "time": 4202, "note": 72, "velocity": 109, "channel": 0}, {"type": "note_on", "time": 215, "note": 75, "velocity": 111, "channel": 0}, {"type": "note_off", "time": 3987, "note": 75, "velocity": 111, "channel": 0}, {"type": "note_on", "time": 215, "note": 71, "velocity": 103, "channel": 0}, {"type": "note_off", "time": 3987, "note": 71, "velocity": 103, "channel": 0}, {"type": "note_on", "time": 3879, "note": 71, "velocity": 104, "channel": 0}, {"type": "note_off", "time": 4849, "note": 71, "velocity": 104, "channel": 0}, {"type": "note_on", "time": 0, "note": 75, "velocity": 101, "channel": 0}, {"type": "note_off", "time": 4310, "note": 75, "velocity": 101, "channel": 0}, {"type": "note_on", "time": 538, "note": 70, "velocity": 103, "channel": 0}, {"type": "note_off", "time": 5064, "note": 70, "velocity": 103, "channel": 0}, {"type": "note_on", "time": 31682, "note": 61, "velocity": 114, "channel": 0}, {"type": "note_off", "time": 4741, "note": 61, "velocity": 114, "channel": 0}, {"type": "note_on", "time": 215, "note": 62, "velocity": 120, "channel": 0}, {"type": "note_off", "time": 2909, "note": 62, "velocity": 120, "channel": 0}, {"type": "note_on", "time": 107, "note": 64, "velocity": 115, "channel": 0}, {"type": "note_off", "time": 2909, "note": 64, "velocity": 115, "channel": 0}, {"type": "note_on", "time": 0, "note": 66, "velocity": 117, "channel": 0}, {"type": "note_off", "time": 3663, "note": 66, "velocity": 117, "channel": 0}, {"type": "note_on", "time": 323, "note": 67, "velocity": 115, "channel": 0}, {"type": "note_off", "time": 4418, "note": 67, "velocity": 115, "channel": 0}, {"type": "note_on", "time": 215, "note": 69, "velocity": 111, "channel": 0}, {"type": "note_on", "time": 4202, "note": 66, "velocity": 109, "channel": 0}, {"type": "note_off", "time": 0, "note": 69, "velocity": 111, "channel": 0}, {"type": "note_off", "time": 2478, "note": 66, "velocity": 109, "channel": 0}, {"type": "note_on", "time": 215, "note": 67, "velocity": 121, "channel": 0}, {"type": "note_off", "time": 4095, "note": 67, "velocity": 121, "channel": 0}, {"type": "note_on", "time": 215, "note": 64, "velocity": 117, "channel": 0}, {"type": "note_off", "time": 4095, "note": 64, "velocity": 117, "channel": 0}, {"type": "note_on", "time": 215, "note": 60, "velocity": 98, "channel": 0}, {"type": "note_off", "time": 3340, "note": 60, "velocity": 98, "channel": 0}, {"type": "note_on", "time": 646, "note": 57, "velocity": 102, "channel": 0}, {"type": "note_off", "time": 3232, "note": 57, "velocity": 102, "channel": 0}, {"type": "note_on", "time": 0, "note": 62, "velocity": 120, "channel": 0}, {"type": "note_off", "time": 5064, "note": 62, "velocity": 120, "channel": 0}, {"type": "note_on", "time": 431, "note": 54, "velocity": 111, "channel": 0}, {"type": "note_off", "time": 2478, "note": 54, "velocity": 111, "channel": 0}, {"type": "note_on", "time": 323, "note": 55, "velocity": 116, "channel": 0}, {"type": "note_off", "time": 4310, "note": 55, "velocity": 116, "channel": 0}, {"type": "note_on", "time": 107, "note": 60, "velocity": 108, "channel": 0}, {"type": "note_off", "time": 3017, "note": 60, "velocity": 108, "channel": 0}, {"type": "note_on", "time": 862, "note": 59, "velocity": 106, "channel": 0}, {"type": "note_off", "time": 3017, "note": 59, "velocity": 106, "channel": 0}, {"type": "note_on", "time": 323, "note": 55, "velocity": 122, "channel": 0}, {"type": "note_off", "time": 3556, "note": 55, "velocity": 122, "channel": 0}, {"type": "note_on", "time": 1791, "note": 52, "velocity": 108, "channel": 0}, {"type": "note_off", "time": 4394, "note": 52, "velocity": 108, "channel": 0}, {"type": "note_on", "time": 171, "note": 53, "velocity": 116, "channel": 0}, {"type": "note_off", "time": 3556, "note": 53, "velocity": 116, "channel": 0}, {"type": "note_on", "time": 323, "note": 57, "velocity": 122, "channel": 0}, {"type": "note_off", "time": 3771, "note": 57, "velocity": 122, "channel": 0}, {"type": "note_on", "time": 754, "note": 54, "velocity": 115, "channel": 0}, {"type": "note_off", "time": 3125, "note": 54, "velocity": 115, "channel": 0}, {"type": "note_on", "time": 323, "note": 55, "velocity": 116, "channel": 0}, {"type": "note_off", "time": 3987, "note": 55, "velocity": 116, "channel": 0}, {"type": "note_on", "time": 215, "note": 57, "velocity": 106, "channel": 0}, {"type": "note_off", "time": 3556, "note": 57, "velocity": 106, "channel": 0}, {"type": "note_on", "time": 0, "note": 59, "velocity": 84, "channel": 0}, {"type": "note_off", "time": 3448, "note": 59, "velocity": 84, "channel": 0}, {"type": "note_on", "time": 754, "note": 60, "velocity": 105, "channel": 0}, {"type": "note_off", "time": 3448, "note": 60, "velocity": 105, "channel": 0}, {"type": "note_on", "time": 215, "note": 62, "velocity": 110, "channel": 0}, {"type": "note_off", "time": 7651, "note": 62, "velocity": 110, "channel": 0}, {"type": "note_on", "time": 215, "note": 59, "velocity": 89, "channel": 0}, {"type": "note_off", "time": 3987, "note": 59, "velocity": 89, "channel": 0}, {"type": "note_on", "time": 215, "note": 62, "velocity": 108, "channel": 0}, {"type": "note_off", "time": 4310, "note": 62, "velocity": 108, "channel": 0}, {"type": "note_on", "time": 107, "note": 64, "velocity": 107, "channel": 0}, {"type": "note_off", "time": 3340, "note": 64, "velocity": 107, "channel": 0}, {"type": "note_on", "time": 215, "note": 66, "velocity": 112, "channel": 0}, {"type": "note_off", "time": 2801, "note": 66, "velocity": 112, "channel": 0}, {"type": "note_on", "time": 323, "note": 69, "velocity": 106, "channel": 0}, {"type": "note_off", "time": 4202, "note": 69, "velocity": 106, "channel": 0}, {"type": "note_on", "time": 323, "note": 66, "velocity": 110, "channel": 0}, {"type": "note_off", "time": 3125, "note": 66, "velocity": 110, "channel": 0}, {"type": "note_on", "time": 215, "note": 67, "velocity": 110, "channel": 0}, {"type": "note_off", "time": 4310, "note": 67, "velocity": 110, "channel": 0}, {"type": "note_on", "time": 0, "note": 71, "velocity": 85, "channel": 0}, {"type": "note_off", "time": 1077, "note": 71, "velocity": 85, "channel": 0}, {"type": "note_on", "time": 0, "note": 74, "velocity": 106, "channel": 0}, {"type": "note_off", "time": 3232, "note": 74, "velocity": 106, "channel": 0}, {"type": "note_on", "time": 1185, "note": 77, "velocity": 118, "channel": 0}, {"type": "note_off", "time": 4310, "note": 77, "velocity": 118, "channel": 0}, {"type": "note_on", "time": 215, "note": 79, "velocity": 115, "channel": 0}, {"type": "note_off", "time": 11854, "note": 79, "velocity": 115, "channel": 0}, {"type": "note_on", "time": 1400, "note": 74, "velocity": 110, "channel": 0}, {"type": "note_off", "time": 7651, "note": 74, "velocity": 110, "channel": 0}, {"type": "note_on", "time": 646, "note": 74, "velocity": 115, "channel": 0}, {"type": "note_off", "time": 8621, "note": 74, "velocity": 115, "channel": 0}, {"type": "note_on", "time": 431, "note": 70, "velocity": 107, "channel": 0}, {"type": "note_off", "time": 3987, "note": 70, "velocity": 107, "channel": 0}, {"type": "note_on", "time": 107, "note": 71, "velocity": 114, "channel": 0}, {"type": "note_off", "time": 4418, "note": 71, "velocity": 114, "channel": 0}, {"type": "note_on", "time": 1831, "note": 71, "velocity": 114, "channel": 0}, {"type": "note_off", "time": 6358, "note": 71, "velocity": 114, "channel": 0}, {"type": "note_on", "time": 215, "note": 66, "velocity": 111, "channel": 0}, {"type": "note_off", "time": 5172, "note": 66, "velocity": 111, "channel": 0}, {"type": "note_on", "time": 215, "note": 67, "velocity": 116, "channel": 0}, {"type": "note_off", "time": 7758, "note": 67, "velocity": 116, "channel": 0}, {"type": "note_on", "time": 646, "note": 67, "velocity": 114, "channel": 0}, {"type": "note_off", "time": 5927, "note": 67, "velocity": 114, "channel": 0}, {"type": "note_on", "time": 431, "note": 61, "velocity": 100, "channel": 0}, {"type": "note_off", "time": 4633, "note": 61, "velocity": 100, "channel": 0}, {"type": "note_on", "time": 215, "note": 62, "velocity": 105, "channel": 0}, {"type": "note_off", "time": 6142, "note": 62, "velocity": 105, "channel": 0}, {"type": "note_on", "time": 431, "note": 62, "velocity": 109, "channel": 0}, {"type": "note_off", "time": 9267, "note": 62, "velocity": 109, "channel": 0}, {"type": "note_on", "time": 55821, "note": 73, "velocity": 114, "channel": 0}, {"type": "note_off", "time": 3987, "note": 73, "velocity": 114, "channel": 0}, {"type": "note_on", "time": 0, "note": 72, "velocity": 123, "channel": 0}, {"type": "note_off", "time": 1831, "note": 72, "velocity": 123, "channel": 0}, {"type": "note_on", "time": 107, "note": 71, "velocity": 119, "channel": 0}, {"type": "note_off", "time": 2694, "note": 71, "velocity": 119, "channel": 0}, {"type": "note_on", "time": 1724, "note": 69, "velocity": 101, "channel": 0}, {"type": "note_off", "time": 2478, "note": 69, "velocity": 101, "channel": 0}, {"type": "note_on", "time": 323, "note": 66, "velocity": 116, "channel": 0}, {"type": "note_off", "time": 2909, "note": 66, "velocity": 116, "channel": 0}, {"type": "note_on", "time": 0, "note": 61, "velocity": 97, "channel": 0}, {"type": "note_off", "time": 5388, "note": 61, "velocity": 97, "channel": 0}, {"type": "note_on", "time": 4095, "note": 69, "velocity": 112, "channel": 0}, {"type": "note_off", "time": 5280, "note": 69, "velocity": 112, "channel": 0}, {"type": "note_on", "time": 215, "note": 66, "velocity": 108, "channel": 0}, {"type": "note_off", "time": 3125, "note": 66, "velocity": 108, "channel": 0}, {"type": "note_on", "time": 69292, "note": 69, "velocity": 109, "channel": 0}, {"type": "note_off", "time": 8513, "note": 69, "velocity": 109, "channel": 0}, {"type": "note_on", "time": 215, "note": 66, "velocity": 108, "channel": 0}, {"type": "note_off", "time": 8297, "note": 66, "velocity": 108, "channel": 0}, {"type": "note_on", "time": 15410, "note": 72, "velocity": 112, "channel": 0}, {"type": "note_off", "time": 10668, "note": 72, "velocity": 112, "channel": 0}, {"type": "note_on", "time": 215, "note": 74, "velocity": 99, "channel": 0}, {"type": "note_off", "time": 3879, "note": 74, "velocity": 99, "channel": 0}, {"type": "note_on", "time": 107, "note": 72, "velocity": 107, "channel": 0}, {"type": "note_off", "time": 3340, "note": 72, "velocity": 107, "channel": 0}, {"type": "note_on", "time": 323, "note": 71, "velocity": 106, "channel": 0}, {"type": "note_off", "time": 7543, "note": 71, "velocity": 106, "channel": 0}, {"type": "note_on", "time": 3556, "note": 69, "velocity": 109, "channel": 0}, {"type": "note_off", "time": 7651, "note": 69, "velocity": 109, "channel": 0}, {"type": "note_on", "time": 0, "note": 68, "velocity": 94, "channel": 0}, {"type": "note_off", "time": 5172, "note": 68, "velocity": 94, "channel": 0}, {"type": "note_on", "time": 727, "note": 71, "velocity": 97, "channel": 0}, {"type": "note_off", "time": 2273, "note": 71, "velocity": 97, "channel": 0}, {"type": "note_on", "time": 606, "note": 68, "velocity": 106, "channel": 0}, {"type": "note_off", "time": 1889, "note": 68, "velocity": 106, "channel": 0}, {"type": "note_on", "time": 0, "note": 65, "velocity": 107, "channel": 0}, {"type": "note_off", "time": 7974, "note": 65, "velocity": 107, "channel": 0}, {"type": "note_on", "time": 107, "note": 64, "velocity": 103, "channel": 0}, {"type": "note_off", "time": 7866, "note": 64, "velocity": 103, "channel": 0}, {"type": "note_on", "time": 107, "note": 63, "velocity": 100, "channel": 0}, {"type": "note_off", "time": 6681, "note": 63, "velocity": 100, "channel": 0}, {"type": "note_on", "time": 1831, "note": 62, "velocity": 111, "channel": 0}, {"type": "note_off", "time": 8836, "note": 62, "velocity": 111, "channel": 0}, {"type": "note_on", "time": 323, "note": 59, "velocity": 89, "channel": 0}, {"type": "note_off", "time": 7435, "note": 59, "velocity": 89, "channel": 0}, {"type": "note_on", "time": 0, "note": 60, "velocity": 102, "channel": 0}, {"type": "note_off", "time": 8190, "note": 60, "velocity": 102, "channel": 0}, {"type": "note_on", "time": 1037, "note": 56, "velocity": 107, "channel": 0}, {"type": "note_off", "time": 7327, "note": 56, "velocity": 107, "channel": 0}, {"type": "note_on", "time": 552, "note": 57, "velocity": 96, "channel": 0}, {"type": "note_off", "time": 7274, "note": 57, "velocity": 96, "channel": 0}, {"type": "note_on", "time": 1481, "note": 59, "velocity": 99, "channel": 0}, {"type": "note_off", "time": 6681, "note": 59, "velocity": 99, "channel": 0}, {"type": "note_on", "time": 431, "note": 60, "velocity": 105, "channel": 0}, {"type": "note_off", "time": 7758, "note": 60, "velocity": 105, "channel": 0}, {"type": "note_on", "time": 215, "note": 62, "velocity": 113, "channel": 0}, {"type": "note_off", "time": 7220, "note": 62, "velocity": 113, "channel": 0}, {"type": "note_on", "time": 215, "note": 64, "velocity": 110, "channel": 0}, {"type": "note_off", "time": 10129, "note": 64, "velocity": 110, "channel": 0}, {"type": "note_on", "time": 1023, "note": 69, "velocity": 110, "channel": 0}, {"type": "note_off", "time": 10456, "note": 69, "velocity": 110, "channel": 0}, {"type": "note_on", "time": 4849, "note": 68, "velocity": 111, "channel": 0}, {"type": "note_off", "time": 8941, "note": 68, "velocity": 111, "channel": 0}, {"type": "note_on", "time": 4041, "note": 69, "velocity": 109, "channel": 0}, {"type": "note_off", "time": 8513, "note": 69, "velocity": 109, "channel": 0}, {"type": "note_on", "time": 781, "note": 71, "velocity": 107, "channel": 0}, {"type": "note_off", "time": 8183, "note": 71, "velocity": 107, "channel": 0}, {"type": "note_on", "time": 2673, "note": 69, "velocity": 104, "channel": 0}, {"type": "note_off", "time": 11099, "note": 69, "velocity": 104, "channel": 0}, {"type": "note_on", "time": 1508, "note": 71, "velocity": 102, "channel": 0}, {"type": "note_off", "time": 8621, "note": 71, "velocity": 102, "channel": 0}, {"type": "note_on", "time": 215, "note": 72, "velocity": 106, "channel": 0}, {"type": "note_off", "time": 4202, "note": 72, "velocity": 106, "channel": 0}, {"type": "note_on", "time": 0, "note": 74, "velocity": 99, "channel": 0}, {"type": "note_off", "time": 4741, "note": 74, "velocity": 99, "channel": 0}, {"type": "note_on", "time": 0, "note": 65, "velocity": 101, "channel": 0}, {"type": "note_off", "time": 23169, "note": 65, "velocity": 101, "channel": 0}, {"type": "note_on", "time": 37178, "note": 75, "velocity": 109, "channel": 0}, {"type": "note_on", "time": 1831, "note": 76, "velocity": 112, "channel": 0}, {"type": "note_off", "time": 0, "note": 75, "velocity": 109, "channel": 0}, {"type": "note_off", "time": 1400, "note": 76, "velocity": 112, "channel": 0}, {"type": "note_on", "time": 107, "note": 77, "velocity": 119, "channel": 0}, {"type": "note_off", "time": 3340, "note": 77, "velocity": 119, "channel": 0}, {"type": "note_on", "time": 107, "note": 76, "velocity": 115, "channel": 0}, {"type": "note_off", "time": 1831, "note": 76, "velocity": 115, "channel": 0}, {"type": "note_on", "time": 107, "note": 75, "velocity": 114, "channel": 0}, {"type": "note_off", "time": 4526, "note": 75, "velocity": 114, "channel": 0}, {"type": "note_on", "time": 323, "note": 74, "velocity": 118, "channel": 0}, {"type": "note_off", "time": 8297, "note": 74, "velocity": 118, "channel": 0}, {"type": "note_on", "time": 1616, "note": 73, "velocity": 107, "channel": 0}, {"type": "note_off", "time": 3448, "note": 73, "velocity": 107, "channel": 0}, {"type": "note_on", "time": 107, "note": 72, "velocity": 106, "channel": 0}, {"type": "note_off", "time": 3448, "note": 72, "velocity": 106, "channel": 0}, {"type": "note_on", "time": 0, "note": 71, "velocity": 103, "channel": 0}, {"type": "note_off", "time": 3232, "note": 71, "velocity": 103, "channel": 0}, {"type": "note_on", "time": 0, "note": 69, "velocity": 106, "channel": 0}, {"type": "note_off", "time": 3879, "note": 69, "velocity": 106, "channel": 0}, {"type": "note_on", "time": 323, "note": 68, "velocity": 104, "channel": 0}, {"type": "note_off", "time": 4957, "note": 68, "velocity": 104, "channel": 0}, {"type": "note_on", "time": 431, "note": 65, "velocity": 111, "channel": 0}, {"type": "note_off", "time": 3232, "note": 65, "velocity": 111, "channel": 0}, {"type": "note_on", "time": 323, "note": 64, "velocity": 111, "channel": 0}, {"type": "note_off", "time": 3987, "note": 64, "velocity": 111, "channel": 0}, {"type": "note_on", "time": 0, "note": 63, "velocity": 107, "channel": 0}, {"type": "note_off", "time": 3879, "note": 63, "velocity": 107, "channel": 0}, {"type": "note_on", "time": 323, "note": 62, "velocity": 109, "channel": 0}, {"type": "note_off", "time": 4095, "note": 62, "velocity": 109, "channel": 0}, {"type": "note_on", "time": 215, "note": 59, "velocity": 92, "channel": 0}, {"type": "note_off", "time": 4418, "note": 59, "velocity": 92, "channel": 0}, {"type": "note_on", "time": 107, "note": 60, "velocity": 101, "channel": 0}, {"type": "note_off", "time": 4310, "note": 60, "velocity": 101, "channel": 0}, {"type": "note_on", "time": 0, "note": 64, "velocity": 115, "channel": 0}, {"type": "note_off", "time": 2586, "note": 64, "velocity": 115, "channel": 0}, {"type": "note_on", "time": 0, "note": 59, "velocity": 100, "channel": 0}, {"type": "note_off", "time": 3663, "note": 59, "velocity": 100, "channel": 0}, {"type": "note_on", "time": 323, "note": 56, "velocity": 115, "channel": 0}, {"type": "note_off", "time": 4849, "note": 56, "velocity": 115, "channel": 0}, {"type": "note_on", "time": 215, "note": 57, "velocity": 105, "channel": 0}, {"type": "note_off", "time": 3879, "note": 57, "velocity": 105, "channel": 0}, {"type": "note_on", "time": 215, "note": 59, "velocity": 98, "channel": 0}, {"type": "note_off", "time": 6358, "note": 59, "velocity": 98, "channel": 0}, {"type": "note_on", "time": 862, "note": 62, "velocity": 107, "channel": 0}, {"type": "note_off", "time": 3448, "note": 62, "velocity": 107, "channel": 0}, {"type": "note_on", "time": 0, "note": 64, "velocity": 107, "channel": 0}, {"type": "note_off", "time": 3879, "note": 64, "velocity": 107, "channel": 0}, {"type": "note_on", "time": 646, "note": 69, "velocity": 111, "channel": 0}, {"type": "note_off", "time": 4633, "note": 69, "velocity": 111, "channel": 0}, {"type": "note_on", "time": 0, "note": 68, "velocity": 104, "channel": 0}, {"type": "note_off", "time": 4849, "note": 68, "velocity": 104, "channel": 0}, {"type": "note_on", "time": 754, "note": 71, "velocity": 90, "channel": 0}, {"type": "note_off", "time": 3017, "note": 71, "velocity": 90, "channel": 0}, {"type": "note_on", "time": 215, "note": 74, "velocity": 106, "channel": 0}, {"type": "note_off", "time": 4202, "note": 74, "velocity": 106, "channel": 0}, {"type": "note_on", "time": 215, "note": 77, "velocity": 120, "channel": 0}, {"type": "note_off", "time": 3125, "note": 77, "velocity": 120, "channel": 0}, {"type": "note_on", "time": 323, "note": 76, "velocity": 114, "channel": 0}, {"type": "note_off", "time": 4849, "note": 76, "velocity": 114, "channel": 0}, {"type": "note_on", "time": 323, "note": 71, "velocity": 79, "channel": 0}, {"type": "note_off", "time": 2586, "note": 71, "velocity": 79, "channel": 0}, {"type": "note_on", "time": 215, "note": 74, "velocity": 112, "channel": 0}, {"type": "note_off", "time": 4957, "note": 74, "velocity": 112, "channel": 0}, {"type": "note_on", "time": 646, "note": 71, "velocity": 81, "channel": 0}, {"type": "note_off", "time": 3448, "note": 71, "velocity": 81, "channel": 0}, {"type": "note_on", "time": 0, "note": 72, "velocity": 104, "channel": 0}, {"type": "note_off", "time": 3232, "note": 72, "velocity": 104, "channel": 0}, {"type": "note_on", "time": 215, "note": 76, "velocity": 112, "channel": 0}, {"type": "note_off", "time": 3232, "note": 76, "velocity": 112, "channel": 0}, {"type": "note_on", "time": 538, "note": 71, "velocity": 97, "channel": 0}, {"type": "note_off", "time": 5819, "note": 71, "velocity": 97, "channel": 0}, {"type": "note_on", "time": 0, "note": 70, "velocity": 94, "channel": 0}, {"type": "note_off", "time": 2801, "note": 70, "velocity": 94, "channel": 0}, {"type": "note_on", "time": 215, "note": 69, "velocity": 104, "channel": 0}, {"type": "note_off", "time": 6465, "note": 69, "velocity": 104, "channel": 0}, {"type": "note_on", "time": 11911, "note": 68, "velocity": 113, "channel": 0}, {"type": "note_off", "time": 3556, "note": 68, "velocity": 113, "channel": 0}, {"type": "note_on", "time": 50, "note": 65, "velocity": 113, "channel": 0}, {"type": "note_off", "time": 4957, "note": 65, "velocity": 113, "channel": 0}, {"type": "note_on", "time": 323, "note": 64, "velocity": 108, "channel": 0}, {"type": "note_off", "time": 4633, "note": 64, "velocity": 108, "channel": 0}, {"type": "note_on", "time": 724, "note": 63, "velocity": 109, "channel": 0}, {"type": "note_off", "time": 3030, "note": 63, "velocity": 109, "channel": 0}, {"type": "note_on", "time": 447, "note": 62, "velocity": 114, "channel": 0}, {"type": "note_off", "time": 5388, "note": 62, "velocity": 114, "channel": 0}, {"type": "note_on", "time": 431, "note": 59, "velocity": 104, "channel": 0}, {"type": "note_off", "time": 2801, "note": 59, "velocity": 104, "channel": 0}, {"type": "note_on", "time": 107, "note": 60, "velocity": 102, "channel": 0}, {"type": "note_off", "time": 4741, "note": 60, "velocity": 102, "channel": 0}, {"type": "note_on", "time": 431, "note": 62, "velocity": 115, "channel": 0}, {"type": "note_on", "time": 4633, "note": 57, "velocity": 97, "channel": 0}, {"type": "note_off", "time": 0, "note": 62, "velocity": 115, "channel": 0}, {"type": "note_off", "time": 18212, "note": 57, "velocity": 97, "channel": 0}, {"type": "note_on", "time": 36208, "note": 66, "velocity": 127, "channel": 0}, {"type": "note_off", "time": 10453, "note": 66, "velocity": 127, "channel": 0}, {"type": "note_on", "time": 0, "note": 67, "velocity": 115, "channel": 0}, {"type": "note_off", "time": 8621, "note": 67, "velocity": 115, "channel": 0}, {"type": "note_on", "time": 1508, "note": 67, "velocity": 115, "channel": 0}, {"type": "note_off", "time": 5280, "note": 67, "velocity": 115, "channel": 0}, {"type": "note_on", "time": 215, "note": 69, "velocity": 110, "channel": 0}, {"type": "note_off", "time": 5495, "note": 69, "velocity": 110, "channel": 0}, {"type": "note_on", "time": 3017, "note": 67, "velocity": 111, "channel": 0}, {"type": "note_off", "time": 7866, "note": 67, "velocity": 111, "channel": 0}, {"type": "note_on", "time": 538, "note": 67, "velocity": 110, "channel": 0}, {"type": "note_off", "time": 8728, "note": 67, "velocity": 110, "channel": 0}, {"type": "note_on", "time": 1185, "note": 67, "velocity": 109, "channel": 0}, {"type": "note_off", "time": 4202, "note": 67, "velocity": 109, "channel": 0}, {"type": "note_on", "time": 431, "note": 68, "velocity": 104, "channel": 0}, {"type": "note_off", "time": 3556, "note": 68, "velocity": 104, "channel": 0}, {"type": "note_on", "time": 215, "note": 70, "velocity": 99, "channel": 0}, {"type": "note_off", "time": 7435, "note": 70, "velocity": 99, "channel": 0}, {"type": "note_on", "time": 323, "note": 67, "velocity": 107, "channel": 0}, {"type": "note_off", "time": 7543, "note": 67, "velocity": 107, "channel": 0}, {"type": "note_on", "time": 431, "note": 67, "velocity": 108, "channel": 0}, {"type": "note_off", "time": 7651, "note": 67, "velocity": 108, "channel": 0}, {"type": "note_on", "time": 538, "note": 67, "velocity": 105, "channel": 0}, {"type": "note_off", "time": 8513, "note": 67, "velocity": 105, "channel": 0}, {"type": "note_on", "time": 646, "note": 67, "velocity": 106, "channel": 0}, {"type": "note_off", "time": 5280, "note": 67, "velocity": 106, "channel": 0}, {"type": "note_on", "time": 754, "note": 67, "velocity": 106, "channel": 0}, {"type": "note_off", "time": 2047, "note": 67, "velocity": 106, "channel": 0}, {"type": "note_on", "time": 538, "note": 67, "velocity": 107, "channel": 0}, {"type": "note_off", "time": 8836, "note": 67, "velocity": 107, "channel": 0}, {"type": "note_on", "time": 538, "note": 67, "velocity": 107, "channel": 0}, {"type": "note_off", "time": 4526, "note": 67, "velocity": 107, "channel": 0}, {"type": "note_on", "time": 323, "note": 67, "velocity": 105, "channel": 0}, {"type": "note_off", "time": 2263, "note": 67, "velocity": 105, "channel": 0}, {"type": "note_on", "time": 323, "note": 67, "velocity": 108, "channel": 0}, {"type": "note_off", "time": 5927, "note": 67, "velocity": 108, "channel": 0}, {"type": "note_on", "time": 431, "note": 66, "velocity": 107, "channel": 0}, {"type": "note_off", "time": 3879, "note": 66, "velocity": 107, "channel": 0}, {"type": "note_on", "time": 538, "note": 64, "velocity": 106, "channel": 0}, {"type": "note_off", "time": 2478, "note": 64, "velocity": 106, "channel": 0}, {"type": "note_on", "time": 431, "note": 63, "velocity": 101, "channel": 0}, {"type": "note_off", "time": 8297, "note": 63, "velocity": 101, "channel": 0}, {"type": "note_on", "time": 431, "note": 63, "velocity": 93, "channel": 0}, {"type": "note_off", "time": 7327, "note": 63, "velocity": 93, "channel": 0}, {"type": "note_on", "time": 1077, "note": 63, "velocity": 96, "channel": 0}, {"type": "note_off", "time": 6250, "note": 63, "velocity": 96, "channel": 0}, {"type": "note_on", "time": 1077, "note": 63, "velocity": 90, "channel": 0}, {"type": "note_off", "time": 4202, "note": 63, "velocity": 90, "channel": 0}, {"type": "note_on", "time": 754, "note": 58, "velocity": 83, "channel": 0}, {"type": "note_off", "time": 8836, "note": 58, "velocity": 83, "channel": 0}, {"type": "note_on", "time": 1939, "note": 58, "velocity": 85, "channel": 0}, {"type": "note_off", "time": 7220, "note": 58, "velocity": 85, "channel": 0}, {"type": "note_on", "time": 7543, "note": 58, "velocity": 86, "channel": 0}, {"type": "note_off", "time": 2586, "note": 58, "velocity": 86, "channel": 0}, {"type": "note_on", "time": 323, "note": 59, "velocity": 89, "channel": 0}, {"type": "note_off", "time": 2694, "note": 59, "velocity": 89, "channel": 0}, {"type": "note_on", "time": 215, "note": 60, "velocity": 88, "channel": 0}, {"type": "note_off", "time": 2586, "note": 60, "velocity": 88, "channel": 0}, {"type": "note_on", "time": 215, "note": 61, "velocity": 92, "channel": 0}, {"type": "note_off", "time": 5927, "note": 61, "velocity": 92, "channel": 0}, {"type": "note_on", "time": 1724, "note": 61, "velocity": 97, "channel": 0}, {"type": "note_off", "time": 7866, "note": 61, "velocity": 97, "channel": 0}, {"type": "note_on", "time": 1724, "note": 57, "velocity": 100, "channel": 0}, {"type": "note_off", "time": 7651, "note": 57, "velocity": 100, "channel": 0}, {"type": "note_on", "time": 431, "note": 60, "velocity": 91, "channel": 0}, {"type": "note_off", "time": 8513, "note": 60, "velocity": 91, "channel": 0}, {"type": "note_on", "time": 754, "note": 58, "velocity": 78, "channel": 0}, {"type": "note_off", "time": 16487, "note": 58, "velocity": 78, "channel": 0}, {"type": "note_on", "time": 75757, "note": 57, "velocity": 101, "channel": 0}, {"type": "note_off", "time": 3340, "note": 57, "velocity": 101, "channel": 0}, {"type": "note_on", "time": 215, "note": 60, "velocity": 87, "channel": 0}, {"type": "note_off", "time": 3556, "note": 60, "velocity": 87, "channel": 0}, {"type": "note_on", "time": 0, "note": 64, "velocity": 102, "channel": 0}, {"type": "note_off", "time": 3663, "note": 64, "velocity": 102, "channel": 0}, {"type": "note_on", "time": 323, "note": 67, "velocity": 101, "channel": 0}, {"type": "note_off", "time": 5495, "note": 67, "velocity": 101, "channel": 0}, {"type": "note_on", "time": 0, "note": 69, "velocity": 83, "channel": 0}, {"type": "note_off", "time": 3232, "note": 69, "velocity": 83, "channel": 0}, {"type": "note_on", "time": 215, "note": 71, "velocity": 83, "channel": 0}, {"type": "note_off", "time": 2694, "note": 71, "velocity": 83, "channel": 0}, {"type": "note_on", "time": 215, "note": 74, "velocity": 108, "channel": 0}, {"type": "note_off", "time": 5064, "note": 74, "velocity": 108, "channel": 0}, {"type": "note_on", "time": 646, "note": 71, "velocity": 90, "channel": 0}, {"type": "note_off", "time": 3663, "note": 71, "velocity": 90, "channel": 0}, {"type": "note_on", "time": 107, "note": 72, "velocity": 98, "channel": 0}, {"type": "note_off", "time": 2801, "note": 72, "velocity": 98, "channel": 0}, {"type": "note_on", "time": 107, "note": 74, "velocity": 102, "channel": 0}, {"type": "note_off", "time": 2909, "note": 74, "velocity": 102, "channel": 0}, {"type": "note_on", "time": 0, "note": 72, "velocity": 101, "channel": 0}, {"type": "note_off", "time": 3125, "note": 72, "velocity": 101, "channel": 0}, {"type": "note_on", "time": 538, "note": 71, "velocity": 92, "channel": 0}, {"type": "note_off", "time": 9698, "note": 71, "velocity": 92, "channel": 0}, {"type": "note_on", "time": 28018, "note": 69, "velocity": 96, "channel": 0}, {"type": "note_off", "time": 2909, "note": 69, "velocity": 96, "channel": 0}, {"type": "note_on", "time": 215, "note": 72, "velocity": 93, "channel": 0}, {"type": "note_off", "time": 2694, "note": 72, "velocity": 93, "channel": 0}, {"type": "note_on", "time": 0, "note": 76, "velocity": 89, "channel": 0}, {"type": "note_off", "time": 2370, "note": 76, "velocity": 89, "channel": 0}, {"type": "note_on", "time": 1185, "note": 79, "velocity": 106, "channel": 0}, {"type": "note_off", "time": 4849, "note": 79, "velocity": 106, "channel": 0}, {"type": "note_on", "time": 2586, "note": 76, "velocity": 99, "channel": 0}, {"type": "note_off", "time": 2155, "note": 76, "velocity": 99, "channel": 0}, {"type": "note_on", "time": 538, "note": 72, "velocity": 100, "channel": 0}, {"type": "note_off", "time": 2586, "note": 72, "velocity": 100, "channel": 0}, {"type": "note_on", "time": 215, "note": 69, "velocity": 94, "channel": 0}, {"type": "note_off", "time": 4418, "note": 69, "velocity": 94, "channel": 0}, {"type": "note_on", "time": 1831, "note": 79, "velocity": 103, "channel": 0}, {"type": "note_off", "time": 6358, "note": 79, "velocity": 103, "channel": 0}, {"type": "note_on", "time": 107, "note": 76, "velocity": 101, "channel": 0}, {"type": "note_off", "time": 1616, "note": 76, "velocity": 101, "channel": 0}, {"type": "note_on", "time": 646, "note": 72, "velocity": 102, "channel": 0}, {"type": "note_off", "time": 2478, "note": 72, "velocity": 102, "channel": 0}, {"type": "note_on", "time": 107, "note": 69, "velocity": 104, "channel": 0}, {"type": "note_off", "time": 6465, "note": 69, "velocity": 104, "channel": 0}, {"type": "note_on", "time": 38687, "note": 77, "velocity": 117, "channel": 0}, {"type": "note_off", "time": 3771, "note": 77, "velocity": 117, "channel": 0}, {"type": "note_on", "time": 215, "note": 76, "velocity": 117, "channel": 0}, {"type": "note_off", "time": 3232, "note": 76, "velocity": 117, "channel": 0}, {"type": "note_on", "time": 107, "note": 75, "velocity": 115, "channel": 0}, {"type": "note_off", "time": 4202, "note": 75, "velocity": 115, "channel": 0}, {"type": "note_on", "time": 538, "note": 67, "velocity": 116, "channel": 0}, {"type": "note_off", "time": 4633, "note": 67, "velocity": 116, "channel": 0}, {"type": "note_on", "time": 107, "note": 70, "velocity": 101, "channel": 0}, {"type": "note_off", "time": 2801, "note": 70, "velocity": 101, "channel": 0}, {"type": "note_on", "time": 215, "note": 74, "velocity": 122, "channel": 0}, {"type": "note_off", "time": 3879, "note": 74, "velocity": 122, "channel": 0}, {"type": "note_on", "time": 323, "note": 72, "velocity": 119, "channel": 0}, {"type": "note_off", "time": 2909, "note": 72, "velocity": 119, "channel": 0}, {"type": "note_on", "time": 323, "note": 71, "velocity": 115, "channel": 0}, {"type": "note_off", "time": 2801, "note": 71, "velocity": 115, "channel": 0}, {"type": "note_on", "time": 107, "note": 69, "velocity": 104, "channel": 0}, {"type": "note_off", "time": 4633, "note": 69, "velocity": 104, "channel": 0}, {"type": "note_on", "time": 646, "note": 67, "velocity": 115, "channel": 0}, {"type": "note_off", "time": 5388, "note": 67, "velocity": 115, "channel": 0}, {"type": "note_on", "time": 215, "note": 66, "velocity": 111, "channel": 0}, {"type": "note_off", "time": 3771, "note": 66, "velocity": 111, "channel": 0}, {"type": "note_on", "time": 107, "note": 67, "velocity": 113, "channel": 0}, {"type": "note_on", "time": 4202, "note": 70, "velocity": 113, "channel": 0}, {"type": "note_off", "time": 0, "note": 67, "velocity": 113, "channel": 0}, {"type": "note_off", "time": 4633, "note": 70, "velocity": 113, "channel": 0}, {"type": "note_on", "time": 107, "note": 67, "velocity": 119, "channel": 0}, {"type": "note_off", "time": 4633, "note": 67, "velocity": 119, "channel": 0}, {"type": "note_on", "time": 6681, "note": 67, "velocity": 118, "channel": 0}, {"type": "note_off", "time": 5711, "note": 67, "velocity": 118, "channel": 0}, {"type": "note_on", "time": 431, "note": 66, "velocity": 115, "channel": 0}, {"type": "note_off", "time": 5603, "note": 66, "velocity": 115, "channel": 0}, {"type": "note_on", "time": 646, "note": 64, "velocity": 111, "channel": 0}, {"type": "note_off", "time": 3987, "note": 64, "velocity": 111, "channel": 0}, {"type": "note_on", "time": 646, "note": 63, "velocity": 108, "channel": 0}, {"type": "note_off", "time": 5603, "note": 63, "velocity": 108, "channel": 0}, {"type": "note_on", "time": 323, "note": 62, "velocity": 103, "channel": 0}, {"type": "note_off", "time": 44506, "note": 62, "velocity": 103, "channel": 0}, {"type": "note_on", "time": 2586, "note": 64, "velocity": 103, "channel": 0}, {"type": "note_off", "time": 9267, "note": 64, "velocity": 103, "channel": 0}, {"type": "note_on", "time": 0, "note": 66, "velocity": 111, "channel": 0}, {"type": "note_off", "time": 9159, "note": 66, "velocity": 111, "channel": 0}, {"type": "note_on", "time": 215, "note": 67, "velocity": 9, "channel": 0}, {"type": "note_off", "time": 8944, "note": 67, "velocity": 9, "channel": 0}, {"type": "note_on", "time": 1831, "note": 69, "velocity": 111, "channel": 0}, {"type": "note_off", "time": 8944, "note": 69, "velocity": 111, "channel": 0}, {"type": "note_on", "time": 5064, "note": 69, "velocity": 109, "channel": 0}, {"type": "note_off", "time": 10237, "note": 69, "velocity": 109, "channel": 0}, {"type": "note_on", "time": 215, "note": 67, "velocity": 116, "channel": 0}, {"type": "note_off", "time": 5280, "note": 67, "velocity": 116, "channel": 0}, {"type": "note_on", "time": 431, "note": 69, "velocity": 107, "channel": 0}, {"type": "note_off", "time": 11422, "note": 69, "velocity": 107, "channel": 0}, {"type": "note_on", "time": 646, "note": 71, "velocity": 111, "channel": 0}, {"type": "note_off", "time": 8190, "note": 71, "velocity": 111, "channel": 0}, {"type": "note_on", "time": 1508, "note": 66, "velocity": 113, "channel": 0}, {"type": "note_off", "time": 28557, "note": 66, "velocity": 113, "channel": 0}, {"type": "note_on", "time": 25540, "note": 67, "velocity": 120, "channel": 0}, {"type": "note_off", "time": 7866, "note": 67, "velocity": 120, "channel": 0}, {"type": "note_on", "time": 0, "note": 69, "velocity": 114, "channel": 0}, {"type": "note_off", "time": 8082, "note": 69, "velocity": 114, "channel": 0}, {"type": "note_on", "time": 0, "note": 71, "velocity": 109, "channel": 0}, {"type": "note_off", "time": 7004, "note": 71, "velocity": 109, "channel": 0}, {"type": "note_on", "time": 4526, "note": 74, "velocity": 117, "channel": 0}, {"type": "note_off", "time": 9052, "note": 74, "velocity": 117, "channel": 0}, {"type": "note_on", "time": 4526, "note": 74, "velocity": 122, "channel": 0}, {"type": "note_off", "time": 8728, "note": 74, "velocity": 122, "channel": 0}, {"type": "note_on", "time": 1724, "note": 71, "velocity": 95, "channel": 0}, {"type": "note_off", "time": 5280, "note": 71, "velocity": 95, "channel": 0}, {"type": "note_on", "time": 323, "note": 74, "velocity": 117, "channel": 0}, {"type": "note_off", "time": 9267, "note": 74, "velocity": 117, "channel": 0}, {"type": "note_on", "time": 3556, "note": 76, "velocity": 111, "channel": 0}, {"type": "note_off", "time": 11315, "note": 76, "velocity": 111, "channel": 0}, {"type": "note_on", "time": 1077, "note": 77, "velocity": 109, "channel": 0}, {"type": "note_off", "time": 10991, "note": 77, "velocity": 109, "channel": 0}, {"type": "note_on", "time": 4741, "note": 70, "velocity": 100, "channel": 0}, {"type": "note_off", "time": 6573, "note": 70, "velocity": 100, "channel": 0}, {"type": "note_on", "time": 323, "note": 72, "velocity": 103, "channel": 0}, {"type": "note_off", "time": 9806, "note": 72, "velocity": 103, "channel": 0}, {"type": "note_on", "time": 1939, "note": 73, "velocity": 111, "channel": 0}, {"type": "note_off", "time": 7866, "note": 73, "velocity": 111, "channel": 0}, {"type": "note_on", "time": 0, "note": 75, "velocity": 111, "channel": 0}, {"type": "note_off", "time": 5495, "note": 75, "velocity": 111, "channel": 0}, {"type": "note_on", "time": 107, "note": 74, "velocity": 107, "channel": 0}, {"type": "note_off", "time": 2263, "note": 74, "velocity": 107, "channel": 0}, {"type": "note_on", "time": 107, "note": 72, "velocity": 88, "channel": 0}, {"type": "note_off", "time": 7435, "note": 72, "velocity": 88, "channel": 0}, {"type": "note_on", "time": 754, "note": 70, "velocity": 101, "channel": 0}, {"type": "note_off", "time": 4849, "note": 70, "velocity": 101, "channel": 0}, {"type": "note_on", "time": 0, "note": 72, "velocity": 92, "channel": 0}, {"type": "note_off", "time": 1939, "note": 72, "velocity": 92, "channel": 0}, {"type": "note_on", "time": 0, "note": 70, "velocity": 100, "channel": 0}, {"type": "note_off", "time": 3340, "note": 70, "velocity": 100, "channel": 0}, {"type": "note_on", "time": 323, "note": 69, "velocity": 100, "channel": 0}, {"type": "note_on", "time": 6250, "note": 72, "velocity": 96, "channel": 0}, {"type": "note_off", "time": 0, "note": 69, "velocity": 100, "channel": 0}, {"type": "note_off", "time": 9698, "note": 72, "velocity": 96, "channel": 0}, {"type": "note_on", "time": 215, "note": 70, "velocity": 87, "channel": 0}, {"type": "note_off", "time": 17242, "note": 70, "velocity": 87, "channel": 0}, {"type": "note_on", "time": 48278, "note": 65, "velocity": 82, "channel": 0}, {"type": "note_off", "time": 2586, "note": 65, "velocity": 82, "channel": 0}, {"type": "note_on", "time": 323, "note": 66, "velocity": 115, "channel": 0}, {"type": "note_off", "time": 2370, "note": 66, "velocity": 115, "channel": 0}, {"type": "note_on", "time": 538, "note": 67, "velocity": 121, "channel": 0}, {"type": "note_off", "time": 4095, "note": 67, "velocity": 121, "channel": 0}, {"type": "note_on", "time": 323, "note": 68, "velocity": 107, "channel": 0}, {"type": "note_off", "time": 3125, "note": 68, "velocity": 107, "channel": 0}, {"type": "note_on", "time": 4633, "note": 65, "velocity": 107, "channel": 0}, {"type": "note_off", "time": 5280, "note": 65, "velocity": 107, "channel": 0}, {"type": "note_on", "time": 4741, "note": 61, "velocity": 97, "channel": 0}, {"type": "note_off", "time": 7112, "note": 61, "velocity": 97, "channel": 0}, {"type": "note_on", "time": 1939, "note": 58, "velocity": 90, "channel": 0}, {"type": "note_off", "time": 5388, "note": 58, "velocity": 90, "channel": 0}, {"type": "note_on", "time": 3771, "note": 66, "velocity": 116, "channel": 0}, {"type": "note_on", "time": 2909, "note": 67, "velocity": 103, "channel": 0}, {"type": "note_off", "time": 0, "note": 66, "velocity": 116, "channel": 0}, {"type": "note_off", "time": 3987, "note": 67, "velocity": 103, "channel": 0}, {"type": "note_on", "time": 107, "note": 66, "velocity": 113, "channel": 0}, {"type": "note_off", "time": 1616, "note": 66, "velocity": 113, "channel": 0}, {"type": "note_on", "time": 215, "note": 65, "velocity": 98, "channel": 0}, {"type": "note_off", "time": 8082, "note": 65, "velocity": 98, "channel": 0}, {"type": "note_on", "time": 431, "note": 63, "velocity": 111, "channel": 0}, {"type": "note_off", "time": 8190, "note": 63, "velocity": 111, "channel": 0}, {"type": "note_on", "time": 107, "note": 58, "velocity": 83, "channel": 0}, {"type": "note_off", "time": 7866, "note": 58, "velocity": 83, "channel": 0}, {"type": "note_on", "time": 431, "note": 60, "velocity": 86, "channel": 0}, {"type": "note_off", "time": 13362, "note": 60, "velocity": 86, "channel": 0}, {"type": "note_on", "time": 1077, "note": 62, "velocity": 98, "channel": 0}, {"type": "note_off", "time": 7435, "note": 62, "velocity": 98, "channel": 0}, {"type": "note_on", "time": 862, "note": 60, "velocity": 89, "channel": 0}, {"type": "note_off", "time": 7435, "note": 60, "velocity": 89, "channel": 0}, {"type": "note_on", "time": 946, "note": 57, "velocity": 109, "channel": 0}, {"type": "note_off", "time": 8789, "note": 57, "velocity": 109, "channel": 0}, {"type": "note_on", "time": 2121, "note": 55, "velocity": 117, "channel": 0}, {"type": "note_off", "time": 8637, "note": 55, "velocity": 117, "channel": 0}, {"type": "note_on", "time": 303, "note": 51, "velocity": 107, "channel": 0}, {"type": "note_off", "time": 8836, "note": 51, "velocity": 107, "channel": 0}, {"type": "note_on", "time": 538, "note": 50, "velocity": 110, "channel": 0}, {"type": "note_off", "time": 9483, "note": 50, "velocity": 110, "channel": 0}, {"type": "note_on", "time": 538, "note": 62, "velocity": 95, "channel": 0}, {"type": "note_off", "time": 29958, "note": 62, "velocity": 95, "channel": 0}, {"type": "note_on", "time": 53541, "note": 59, "velocity": 94, "channel": 0}, {"type": "note_off", "time": 3637, "note": 59, "velocity": 94, "channel": 0}, {"type": "note_on", "time": 43, "note": 62, "velocity": 116, "channel": 0}, {"type": "note_off", "time": 5927, "note": 62, "velocity": 116, "channel": 0}, {"type": "note_on", "time": 323, "note": 61, "velocity": 103, "channel": 0}, {"type": "note_off", "time": 4095, "note": 61, "velocity": 103, "channel": 0}, {"type": "note_on", "time": 215, "note": 60, "velocity": 97, "channel": 0}, {"type": "note_off", "time": 2909, "note": 60, "velocity": 97, "channel": 0}, {"type": "note_on", "time": 215, "note": 59, "velocity": 98, "channel": 0}, {"type": "note_off", "time": 4741, "note": 59, "velocity": 98, "channel": 0}, {"type": "note_on", "time": 431, "note": 57, "velocity": 105, "channel": 0}, {"type": "note_off", "time": 3017, "note": 57, "velocity": 105, "channel": 0}, {"type": "note_on", "time": 107, "note": 55, "velocity": 110, "channel": 0}, {"type": "note_off", "time": 3232, "note": 55, "velocity": 110, "channel": 0}, {"type": "note_on", "time": 215, "note": 54, "velocity": 110, "channel": 0}, {"type": "note_off", "time": 3987, "note": 54, "velocity": 110, "channel": 0}, {"type": "note_on", "time": 323, "note": 57, "velocity": 104, "channel": 0}, {"type": "note_off", "time": 4741, "note": 57, "velocity": 104, "channel": 0}, {"type": "note_on", "time": 107, "note": 60, "velocity": 104, "channel": 0}, {"type": "note_on", "time": 2801, "note": 64, "velocity": 112, "channel": 0}, {"type": "note_off", "time": 0, "note": 60, "velocity": 104, "channel": 0}, {"type": "note_off", "time": 4202, "note": 64, "velocity": 112, "channel": 0}, {"type": "note_on", "time": 323, "note": 63, "velocity": 107, "channel": 0}, {"type": "note_on", "time": 4310, "note": 60, "velocity": 99, "channel": 0}, {"type": "note_off", "time": 0, "note": 63, "velocity": 107, "channel": 0}, {"type": "note_off", "time": 2586, "note": 60, "velocity": 99, "channel": 0}, {"type": "note_on", "time": 754, "note": 62, "velocity": 119, "channel": 0}, {"type": "note_off", "time": 4957, "note": 62, "velocity": 119, "channel": 0}, {"type": "note_on", "time": 323, "note": 60, "velocity": 101, "channel": 0}, {"type": "note_off", "time": 2263, "note": 60, "velocity": 101, "channel": 0}, {"type": "note_on", "time": 431, "note": 59, "velocity": 101, "channel": 0}, {"type": "note_off", "time": 1616, "note": 59, "velocity": 101, "channel": 0}, {"type": "note_on", "time": 107, "note": 61, "velocity": 103, "channel": 0}, {"type": "note_off", "time": 1939, "note": 61, "velocity": 103, "channel": 0}, {"type": "note_on", "time": 1616, "note": 66, "velocity": 114, "channel": 0}, {"type": "note_off", "time": 2694, "note": 66, "velocity": 114, "channel": 0}, {"type": "note_on", "time": 107, "note": 69, "velocity": 114, "channel": 0}, {"type": "note_off", "time": 4633, "note": 69, "velocity": 114, "channel": 0}, {"type": "note_on", "time": 215, "note": 66, "velocity": 110, "channel": 0}, {"type": "note_off", "time": 2909, "note": 66, "velocity": 110, "channel": 0}, {"type": "note_on", "time": 323, "note": 67, "velocity": 112, "channel": 0}, {"type": "note_off", "time": 3340, "note": 67, "velocity": 112, "channel": 0}, {"type": "note_on", "time": 107, "note": 69, "velocity": 94, "channel": 0}, {"type": "note_off", "time": 1616, "note": 69, "velocity": 94, "channel": 0}, {"type": "note_on", "time": 0, "note": 74, "velocity": 88, "channel": 0}, {"type": "note_off", "time": 2694, "note": 74, "velocity": 88, "channel": 0}, {"type": "note_on", "time": 323, "note": 79, "velocity": 114, "channel": 0}, {"type": "note_off", "time": 4095, "note": 79, "velocity": 114, "channel": 0}, {"type": "note_on", "time": 1939, "note": 74, "velocity": 107, "channel": 0}, {"type": "note_off", "time": 5819, "note": 74, "velocity": 107, "channel": 0}, {"type": "note_on", "time": 38687, "note": 71, "velocity": 113, "channel": 0}, {"type": "note_off", "time": 16918, "note": 71, "velocity": 113, "channel": 0}, {"type": "note_on", "time": 431, "note": 73, "velocity": 123, "channel": 0}, {"type": "note_off", "time": 11854, "note": 73, "velocity": 123, "channel": 0}, {"type": "note_on", "time": 2047, "note": 71, "velocity": 105, "channel": 0}, {"type": "note_off", "time": 7327, "note": 71, "velocity": 105, "channel": 0}, {"type": "note_on", "time": 431, "note": 66, "velocity": 114, "channel": 0}, {"type": "note_off", "time": 7543, "note": 66, "velocity": 114, "channel": 0}, {"type": "note_on", "time": 754, "note": 69, "velocity": 110, "channel": 0}, {"type": "note_off", "time": 8082, "note": 69, "velocity": 110, "channel": 0}, {"type": "note_on", "time": 323, "note": 68, "velocity": 105, "channel": 0}, {"type": "note_off", "time": 7758, "note": 68, "velocity": 105, "channel": 0}, {"type": "note_on", "time": 2694, "note": 59, "velocity": 90, "channel": 0}, {"type": "note_off", "time": 5819, "note": 59, "velocity": 90, "channel": 0}, {"type": "note_on", "time": 323, "note": 62, "velocity": 110, "channel": 0}, {"type": "note_off", "time": 8190, "note": 62, "velocity": 110, "channel": 0}, {"type": "note_on", "time": 538, "note": 64, "velocity": 104, "channel": 0}, {"type": "note_off", "time": 7651, "note": 64, "velocity": 104, "channel": 0}, {"type": "note_on", "time": 323, "note": 63, "velocity": 105, "channel": 0}, {"type": "note_off", "time": 4957, "note": 63, "velocity": 105, "channel": 0}, {"type": "note_on", "time": 323, "note": 64, "velocity": 104, "channel": 0}, {"type": "note_off", "time": 7004, "note": 64, "velocity": 104, "channel": 0}, {"type": "note_on", "time": 0, "note": 65, "velocity": 102, "channel": 0}, {"type": "note_off", "time": 5172, "note": 65, "velocity": 102, "channel": 0}, {"type": "note_on", "time": 1077, "note": 65, "velocity": 107, "channel": 0}, {"type": "note_off", "time": 6789, "note": 65, "velocity": 107, "channel": 0}, {"type": "note_on", "time": 1293, "note": 65, "velocity": 102, "channel": 0}, {"type": "note_off", "time": 7327, "note": 65, "velocity": 102, "channel": 0}, {"type": "note_on", "time": 538, "note": 65, "velocity": 103, "channel": 0}, {"type": "note_off", "time": 8190, "note": 65, "velocity": 103, "channel": 0}, {"type": "note_on", "time": 538, "note": 64, "velocity": 101, "channel": 0}, {"type": "note_off", "time": 7327, "note": 64, "velocity": 101, "channel": 0}, {"type": "note_on", "time": 2586, "note": 59, "velocity": 83, "channel": 0}, {"type": "note_off", "time": 8405, "note": 59, "velocity": 83, "channel": 0}, {"type": "note_on", "time": 646, "note": 60, "velocity": 90, "channel": 0}, {"type": "note_off", "time": 8297, "note": 60, "velocity": 90, "channel": 0}, {"type": "note_on", "time": 4957, "note": 62, "velocity": 100, "channel": 0}, {"type": "note_off", "time": 11315, "note": 62, "velocity": 100, "channel": 0}, {"type": "note_on", "time": 2586, "note": 62, "velocity": 110, "channel": 0}, {"type": "note_off", "time": 11746, "note": 62, "velocity": 110, "channel": 0}, {"type": "note_on", "time": 1077, "note": 62, "velocity": 88, "channel": 0}, {"type": "note_off", "time": 31359, "note": 62, "velocity": 88, "channel": 0}, {"type": "note_on", "time": 16918, "note": 62, "velocity": 114, "channel": 0}, {"type": "note_off", "time": 3340, "note": 62, "velocity": 114, "channel": 0}, {"type": "note_on", "time": 215, "note": 63, "velocity": 106, "channel": 0}, {"type": "note_off", "time": 1616, "note": 63, "velocity": 106, "channel": 0}, {"type": "note_on", "time": 107, "note": 62, "velocity": 113, "channel": 0}, {"type": "note_off", "time": 4310, "note": 62, "velocity": 113, "channel": 0}, {"type": "note_on", "time": 538, "note": 61, "velocity": 97, "channel": 0}, {"type": "note_off", "time": 6250, "note": 61, "velocity": 97, "channel": 0}, {"type": "note_on", "time": 1616, "note": 60, "velocity": 97, "channel": 0}, {"type": "note_off", "time": 13039, "note": 60, "velocity": 97, "channel": 0}, {"type": "note_on", "time": 754, "note": 59, "velocity": 101, "channel": 0}, {"type": "note_off", "time": 9590, "note": 59, "velocity": 101, "channel": 0}, {"type": "note_on", "time": 107, "note": 56, "velocity": 105, "channel": 0}, {"type": "note_off", "time": 6789, "note": 56, "velocity": 105, "channel": 0}, {"type": "note_on", "time": 431, "note": 57, "velocity": 100, "channel": 0}, {"type": "note_off", "time": 20906, "note": 57, "velocity": 100, "channel": 0}, {"type": "note_on", "time": 18212, "note": 62, "velocity": 106, "channel": 0}, {"type": "note_off", "time": 2370, "note": 62, "velocity": 106, "channel": 0}, {"type": "note_on", "time": 0, "note": 64, "velocity": 112, "channel": 0}, {"type": "note_off", "time": 5172, "note": 64, "velocity": 112, "channel": 0}, {"type": "note_on", "time": 323, "note": 65, "velocity": 111, "channel": 0}, {"type": "note_off", "time": 2370, "note": 65, "velocity": 111, "channel": 0}, {"type": "note_on", "time": 215, "note": 66, "velocity": 115, "channel": 0}, {"type": "note_off", "time": 2694, "note": 66, "velocity": 115, "channel": 0}, {"type": "note_on", "time": 431, "note": 65, "velocity": 112, "channel": 0}, {"type": "note_off", "time": 2478, "note": 65, "velocity": 112, "channel": 0}, {"type": "note_on", "time": 754, "note": 64, "velocity": 109, "channel": 0}, {"type": "note_off", "time": 4310, "note": 64, "velocity": 109, "channel": 0}, {"type": "note_on", "time": 1939, "note": 63, "velocity": 113, "channel": 0}, {"type": "note_off", "time": 7974, "note": 63, "velocity": 113, "channel": 0}, {"type": "note_on", "time": 0, "note": 64, "velocity": 101, "channel": 0}, {"type": "note_off", "time": 4526, "note": 64, "velocity": 101, "channel": 0}, {"type": "note_on", "time": 323, "note": 72, "velocity": 99, "channel": 0}, {"type": "note_off", "time": 39333, "note": 72, "velocity": 99, "channel": 0}, {"type": "note_on", "time": 56360, "note": 69, "velocity": 104, "channel": 0}, {"type": "note_off", "time": 3017, "note": 69, "velocity": 104, "channel": 0}, {"type": "note_on", "time": 0, "note": 71, "velocity": 103, "channel": 0}, {"type": "note_off", "time": 2586, "note": 71, "velocity": 103, "channel": 0}, {"type": "note_on", "time": 1077, "note": 74, "velocity": 119, "channel": 0}, {"type": "note_off", "time": 4741, "note": 74, "velocity": 119, "channel": 0}, {"type": "note_on", "time": 323, "note": 72, "velocity": 110, "channel": 0}, {"type": "note_off", "time": 3448, "note": 72, "velocity": 110, "channel": 0}, {"type": "note_on", "time": 646, "note": 71, "velocity": 112, "channel": 0}, {"type": "note_off", "time": 3232, "note": 71, "velocity": 112, "channel": 0}, {"type": "note_on", "time": 215, "note": 69, "velocity": 115, "channel": 0}, {"type": "note_off", "time": 5172, "note": 69, "velocity": 115, "channel": 0}, {"type": "note_on", "time": 107, "note": 68, "velocity": 114, "channel": 0}, {"type": "note_off", "time": 1831, "note": 68, "velocity": 114, "channel": 0}, {"type": "note_on", "time": 107, "note": 67, "velocity": 88, "channel": 0}, {"type": "note_off", "time": 4526, "note": 67, "velocity": 88, "channel": 0}, {"type": "note_on", "time": 431, "note": 62, "velocity": 107, "channel": 0}, {"type": "note_off", "time": 4526, "note": 62, "velocity": 107, "channel": 0}, {"type": "note_on", "time": 107, "note": 65, "velocity": 109, "channel": 0}, {"type": "note_off", "time": 3448, "note": 65, "velocity": 109, "channel": 0}, {"type": "note_on", "time": 215, "note": 64, "velocity": 113, "channel": 0}, {"type": "note_off", "time": 4633, "note": 64, "velocity": 113, "channel": 0}, {"type": "note_on", "time": 323, "note": 63, "velocity": 113, "channel": 0}, {"type": "note_off", "time": 3771, "note": 63, "velocity": 113, "channel": 0}, {"type": "note_on", "time": 538, "note": 62, "velocity": 117, "channel": 0}, {"type": "note_off", "time": 3340, "note": 62, "velocity": 117, "channel": 0}, {"type": "note_on", "time": 215, "note": 60, "velocity": 102, "channel": 0}, {"type": "note_off", "time": 3232, "note": 60, "velocity": 102, "channel": 0}, {"type": "note_on", "time": 323, "note": 59, "velocity": 103, "channel": 0}, {"type": "note_off", "time": 5280, "note": 59, "velocity": 103, "channel": 0}, {"type": "note_on", "time": 107, "note": 57, "velocity": 107, "channel": 0}, {"type": "note_off", "time": 2263, "note": 57, "velocity": 107, "channel": 0}, {"type": "note_on", "time": 538, "note": 56, "velocity": 107, "channel": 0}, {"type": "note_off", "time": 4095, "note": 56, "velocity": 107, "channel": 0}, {"type": "note_on", "time": 538, "note": 59, "velocity": 97, "channel": 0}, {"type": "note_off", "time": 4310, "note": 59, "velocity": 97, "channel": 0}, {"type": "note_on", "time": 215, "note": 62, "velocity": 116, "channel": 0}, {"type": "note_off", "time": 4741, "note": 62, "velocity": 116, "channel": 0}, {"type": "note_on", "time": 0, "note": 65, "velocity": 119, "channel": 0}, {"type": "note_off", "time": 4202, "note": 65, "velocity": 119, "channel": 0}, {"type": "note_on", "time": 0, "note": 64, "velocity": 110, "channel": 0}, {"type": "note_off", "time": 3771, "note": 64, "velocity": 110, "channel": 0}, {"type": "note_on", "time": 107, "note": 59, "velocity": 99, "channel": 0}, {"type": "note_off", "time": 4202, "note": 59, "velocity": 99, "channel": 0}, {"type": "note_on", "time": 107, "note": 62, "velocity": 114, "channel": 0}, {"type": "note_off", "time": 16595, "note": 62, "velocity": 114, "channel": 0}, {"type": "note_on", "time": 215, "note": 59, "velocity": 103, "channel": 0}, {"type": "note_off", "time": 3125, "note": 59, "velocity": 103, "channel": 0}, {"type": "note_on", "time": 0, "note": 60, "velocity": 102, "channel": 0}, {"type": "note_off", "time": 3448, "note": 60, "velocity": 102, "channel": 0}, {"type": "note_on", "time": 215, "note": 64, "velocity": 107, "channel": 0}, {"type": "note_on", "time": 2909, "note": 67, "velocity": 105, "channel": 0}, {"type": "note_off", "time": 0, "note": 64, "velocity": 107, "channel": 0}, {"type": "note_off", "time": 2155, "note": 67, "velocity": 105, "channel": 0}, {"type": "note_on", "time": 323, "note": 69, "velocity": 96, "channel": 0}, {"type": "note_off", "time": 3017, "note": 69, "velocity": 96, "channel": 0}, {"type": "note_on", "time": 323, "note": 71, "velocity": 108, "channel": 0}, {"type": "note_off", "time": 8836, "note": 71, "velocity": 108, "channel": 0}, {"type": "note_on", "time": 107, "note": 69, "velocity": 96, "channel": 0}, {"type": "note_off", "time": 21768, "note": 69, "velocity": 96, "channel": 0}, {"type": "note_on", "time": 86642, "note": 71, "velocity": 125, "channel": 0}, {"type": "note_off", "time": 9375, "note": 71, "velocity": 125, "channel": 0}, {"type": "note_on", "time": 862, "note": 72, "velocity": 124, "channel": 0}, {"type": "note_off", "time": 10776, "note": 72, "velocity": 124, "channel": 0}, {"type": "note_on", "time": 431, "note": 75, "velocity": 116, "channel": 0}, {"type": "note_off", "time": 2478, "note": 75, "velocity": 116, "channel": 0}, {"type": "note_on", "time": 431, "note": 77, "velocity": 119, "channel": 0}, {"type": "note_off", "time": 10022, "note": 77, "velocity": 119, "channel": 0}, {"type": "note_on", "time": 323, "note": 75, "velocity": 123, "channel": 0}, {"type": "note_off", "time": 8297, "note": 75, "velocity": 123, "channel": 0}, {"type": "note_on", "time": 538, "note": 66, "velocity": 108, "channel": 0}, {"type": "note_off", "time": 4849, "note": 66, "velocity": 108, "channel": 0}, {"type": "note_on", "time": 215, "note": 67, "velocity": 102, "channel": 0}, {"type": "note_off", "time": 4202, "note": 67, "velocity": 102, "channel": 0}, {"type": "note_on", "time": 1616, "note": 70, "velocity": 92, "channel": 0}, {"type": "note_off", "time": 9052, "note": 70, "velocity": 92, "channel": 0}, {"type": "note_on", "time": 1724, "note": 74, "velocity": 116, "channel": 0}, {"type": "note_off", "time": 9052, "note": 74, "velocity": 116, "channel": 0}, {"type": "note_on", "time": 1831, "note": 72, "velocity": 113, "channel": 0}, {"type": "note_off", "time": 8190, "note": 72, "velocity": 113, "channel": 0}, {"type": "note_on", "time": 754, "note": 69, "velocity": 111, "channel": 0}, {"type": "note_off", "time": 3771, "note": 69, "velocity": 111, "channel": 0}, {"type": "note_on", "time": 107, "note": 71, "velocity": 108, "channel": 0}, {"type": "note_off", "time": 3340, "note": 71, "velocity": 108, "channel": 0}, {"type": "note_on", "time": 0, "note": 69, "velocity": 112, "channel": 0}, {"type": "note_off", "time": 2370, "note": 69, "velocity": 112, "channel": 0}, {"type": "note_on", "time": 323, "note": 67, "velocity": 118, "channel": 0}, {"type": "note_off", "time": 5388, "note": 67, "velocity": 118, "channel": 0}, {"type": "note_on", "time": 646, "note": 65, "velocity": 105, "channel": 0}, {"type": "note_off", "time": 7004, "note": 65, "velocity": 105, "channel": 0}, {"type": "note_on", "time": 2263, "note": 63, "velocity": 103, "channel": 0}, {"type": "note_off", "time": 3771, "note": 63, "velocity": 103, "channel": 0}, {"type": "note_on", "time": 215, "note": 58, "velocity": 96, "channel": 0}, {"type": "note_off", "time": 4633, "note": 58, "velocity": 96, "channel": 0}, {"type": "note_on", "time": 107, "note": 62, "velocity": 96, "channel": 0}, {"type": "note_off", "time": 2694, "note": 62, "velocity": 96, "channel": 0}, {"type": "note_on", "time": 538, "note": 60, "velocity": 102, "channel": 0}, {"type": "note_off", "time": 4526, "note": 60, "velocity": 102, "channel": 0}, {"type": "note_on", "time": 431, "note": 62, "velocity": 98, "channel": 0}, {"type": "note_off", "time": 26402, "note": 62, "velocity": 98, "channel": 0}, {"type": "note_on", "time": 12177, "note": 69, "velocity": 117, "channel": 0}, {"type": "note_off", "time": 3879, "note": 69, "velocity": 117, "channel": 0}, {"type": "note_on", "time": 107, "note": 68, "velocity": 119, "channel": 0}, {"type": "note_off", "time": 3017, "note": 68, "velocity": 119, "channel": 0}, {"type": "note_on", "time": 107, "note": 67, "velocity": 126, "channel": 0}, {"type": "note_off", "time": 3663, "note": 67, "velocity": 126, "channel": 0}, {"type": "note_on", "time": 107, "note": 66, "velocity": 109, "channel": 0}, {"type": "note_off", "time": 8621, "note": 66, "velocity": 109, "channel": 0}, {"type": "note_on", "time": 538, "note": 67, "velocity": 115, "channel": 0}, {"type": "note_off", "time": 9590, "note": 67, "velocity": 115, "channel": 0}, {"type": "note_on", "time": 754, "note": 64, "velocity": 110, "channel": 0}, {"type": "note_off", "time": 9159, "note": 64, "velocity": 110, "channel": 0}, {"type": "note_on", "time": 323, "note": 66, "velocity": 102, "channel": 0}, {"type": "note_off", "time": 33622, "note": 66, "velocity": 102, "channel": 0}, {"type": "note_on", "time": 59485, "note": 57, "velocity": 104, "channel": 0}, {"type": "note_off", "time": 4633, "note": 57, "velocity": 104, "channel": 0}, {"type": "note_on", "time": 0, "note": 60, "velocity": 104, "channel": 0}, {"type": "note_off", "time": 4095, "note": 60, "velocity": 104, "channel": 0}, {"type": "note_on", "time": 862, "note": 64, "velocity": 96, "channel": 0}, {"type": "note_off", "time": 9590, "note": 64, "velocity": 96, "channel": 0}, {"type": "note_on", "time": 323, "note": 69, "velocity": 107, "channel": 0}, {"type": "note_off", "time": 2478, "note": 69, "velocity": 107, "channel": 0}, {"type": "note_on", "time": 215, "note": 71, "velocity": 89, "channel": 0}, {"type": "note_off", "time": 3017, "note": 71, "velocity": 89, "channel": 0}, {"type": "note_on", "time": 107, "note": 74, "velocity": 117, "channel": 0}, {"type": "note_off", "time": 4741, "note": 74, "velocity": 117, "channel": 0}, {"type": "note_on", "time": 215, "note": 73, "velocity": 112, "channel": 0}, {"type": "note_off", "time": 3232, "note": 73, "velocity": 112, "channel": 0}, {"type": "note_on", "time": 215, "note": 72, "velocity": 112, "channel": 0}, {"type": "note_off", "time": 4202, "note": 72, "velocity": 112, "channel": 0}, {"type": "note_on", "time": 0, "note": 71, "velocity": 109, "channel": 0}, {"type": "note_off", "time": 4202, "note": 71, "velocity": 109, "channel": 0}, {"type": "note_on", "time": 0, "note": 69, "velocity": 116, "channel": 0}, {"type": "note_off", "time": 5064, "note": 69, "velocity": 116, "channel": 0}, {"type": "note_on", "time": 323, "note": 68, "velocity": 115, "channel": 0}, {"type": "note_off", "time": 3663, "note": 68, "velocity": 115, "channel": 0}, {"type": "note_on", "time": 107, "note": 67, "velocity": 124, "channel": 0}, {"type": "note_off", "time": 3340, "note": 67, "velocity": 124, "channel": 0}, {"type": "note_on", "time": 107, "note": 66, "velocity": 124, "channel": 0}, {"type": "note_off", "time": 4310, "note": 66, "velocity": 124, "channel": 0}, {"type": "note_on", "time": 0, "note": 65, "velocity": 119, "channel": 0}, {"type": "note_off", "time": 2370, "note": 65, "velocity": 119, "channel": 0}, {"type": "note_on", "time": 215, "note": 64, "velocity": 119, "channel": 0}, {"type": "note_off", "time": 1939, "note": 64, "velocity": 119, "channel": 0}, {"type": "note_on", "time": 609, "note": 63, "velocity": 102, "channel": 0}, {"type": "note_off", "time": 5607, "note": 63, "velocity": 102, "channel": 0}, {"type": "note_on", "time": 3374, "note": 60, "velocity": 107, "channel": 0}, {"type": "note_off", "time": 4310, "note": 60, "velocity": 107, "channel": 0}, {"type": "note_on", "time": 0, "note": 62, "velocity": 111, "channel": 0}, {"type": "note_off", "time": 2478, "note": 62, "velocity": 111, "channel": 0}, {"type": "note_on", "time": 0, "note": 63, "velocity": 112, "channel": 0}, {"type": "note_on", "time": 3663, "note": 62, "velocity": 107, "channel": 0}, {"type": "note_off", "time": 0, "note": 63, "velocity": 112, "channel": 0}, {"type": "note_off", "time": 3125, "note": 62, "velocity": 107, "channel": 0}, {"type": "note_on", "time": 215, "note": 60, "velocity": 106, "channel": 0}, {"type": "note_off", "time": 2909, "note": 60, "velocity": 106, "channel": 0}, {"type": "note_on", "time": 862, "note": 59, "velocity": 102, "channel": 0}, {"type": "note_off", "time": 4418, "note": 59, "velocity": 102, "channel": 0}, {"type": "note_on", "time": 538, "note": 62, "velocity": 101, "channel": 0}, {"type": "note_off", "time": 3125, "note": 62, "velocity": 101, "channel": 0}, {"type": "note_on", "time": 0, "note": 64, "velocity": 108, "channel": 0}, {"type": "note_off", "time": 2586, "note": 64, "velocity": 108, "channel": 0}, {"type": "note_on", "time": 1831, "note": 66, "velocity": 107, "channel": 0}, {"type": "note_off", "time": 2694, "note": 66, "velocity": 107, "channel": 0}, {"type": "note_on", "time": 431, "note": 69, "velocity": 114, "channel": 0}, {"type": "note_off", "time": 3879, "note": 69, "velocity": 114, "channel": 0}, {"type": "note_on", "time": 646, "note": 66, "velocity": 111, "channel": 0}, {"type": "note_off", "time": 2801, "note": 66, "velocity": 111, "channel": 0}, {"type": "note_on", "time": 323, "note": 67, "velocity": 120, "channel": 0}, {"type": "note_off", "time": 2801, "note": 67, "velocity": 120, "channel": 0}, {"type": "note_on", "time": 323, "note": 69, "velocity": 90, "channel": 0}, {"type": "note_off", "time": 1831, "note": 69, "velocity": 90, "channel": 0}, {"type": "note_on", "time": 538, "note": 73, "velocity": 88, "channel": 0}, {"type": "note_off", "time": 1400, "note": 73, "velocity": 88, "channel": 0}, {"type": "note_on", "time": 107, "note": 74, "velocity": 96, "channel": 0}, {"type": "note_off", "time": 1939, "note": 74, "velocity": 96, "channel": 0}, {"type": "note_on", "time": 431, "note": 79, "velocity": 118, "channel": 0}, {"type": "note_off", "time": 3879, "note": 79, "velocity": 118, "channel": 0}, {"type": "note_on", "time": 215, "note": 78, "velocity": 103, "channel": 0}, {"type": "note_off", "time": 2155, "note": 78, "velocity": 103, "channel": 0}, {"type": "note_on", "time": 431, "note": 74, "velocity": 104, "channel": 0}, {"type": "note_off", "time": 7112, "note": 74, "velocity": 104, "channel": 0}, {"type": "note_on", "time": 70908, "note": 78, "velocity": 110, "channel": 0}, {"type": "note_off", "time": 3771, "note": 78, "velocity": 110, "channel": 0}, {"type": "note_on", "time": 431, "note": 76, "velocity": 111, "channel": 0}, {"type": "note_off", "time": 4849, "note": 76, "velocity": 111, "channel": 0}, {"type": "note_on", "time": 0, "note": 71, "velocity": 103, "channel": 0}, {"type": "note_off", "time": 4418, "note": 71, "velocity": 103, "channel": 0}, {"type": "note_on", "time": 1616, "note": 72, "velocity": 84, "channel": 0}, {"type": "note_off", "time": 7220, "note": 72, "velocity": 84, "channel": 0}, {"type": "note_on", "time": 969, "note": 74, "velocity": 120, "channel": 0}, {"type": "note_off", "time": 11315, "note": 74, "velocity": 120, "channel": 0}, {"type": "note_on", "time": 431, "note": 73, "velocity": 117, "channel": 0}, {"type": "note_off", "time": 3340, "note": 73, "velocity": 117, "channel": 0}, {"type": "note_on", "time": 0, "note": 72, "velocity": 113, "channel": 0}, {"type": "note_off", "time": 1831, "note": 72, "velocity": 113, "channel": 0}, {"type": "note_on", "time": 215, "note": 71, "velocity": 87, "channel": 0}, {"type": "note_off", "time": 8621, "note": 71, "velocity": 87, "channel": 0}, {"type": "note_on", "time": 215, "note": 72, "velocity": 119, "channel": 0}, {"type": "note_off", "time": 9483, "note": 72, "velocity": 119, "channel": 0}, {"type": "note_on", "time": 107, "note": 71, "velocity": 114, "channel": 0}, {"type": "note_off", "time": 2047, "note": 71, "velocity": 114, "channel": 0}, {"type": "note_on", "time": 107, "note": 70, "velocity": 117, "channel": 0}, {"type": "note_off", "time": 2801, "note": 70, "velocity": 117, "channel": 0}, {"type": "note_on", "time": 0, "note": 69, "velocity": 104, "channel": 0}, {"type": "note_off", "time": 9806, "note": 69, "velocity": 104, "channel": 0}, {"type": "note_on", "time": 0, "note": 71, "velocity": 106, "channel": 0}, {"type": "note_off", "time": 6465, "note": 71, "velocity": 106, "channel": 0}, {"type": "note_on", "time": 107, "note": 70, "velocity": 103, "channel": 0}, {"type": "note_off", "time": 1508, "note": 70, "velocity": 103, "channel": 0}, {"type": "note_on", "time": 215, "note": 69, "velocity": 108, "channel": 0}, {"type": "note_off", "time": 2586, "note": 69, "velocity": 108, "channel": 0}, {"type": "note_on", "time": 215, "note": 68, "velocity": 109, "channel": 0}, {"type": "note_off", "time": 3663, "note": 68, "velocity": 109, "channel": 0}, {"type": "note_on", "time": 215, "note": 67, "velocity": 106, "channel": 0}, {"type": "note_off", "time": 6465, "note": 67, "velocity": 106, "channel": 0}, {"type": "note_on", "time": 1400, "note": 69, "velocity": 109, "channel": 0}, {"type": "note_off", "time": 3232, "note": 69, "velocity": 109, "channel": 0}, {"type": "note_on", "time": 107, "note": 70, "velocity": 107, "channel": 0}, {"type": "note_off", "time": 4418, "note": 70, "velocity": 107, "channel": 0}, {"type": "note_on", "time": 215, "note": 67, "velocity": 115, "channel": 0}, {"type": "note_off", "time": 13686, "note": 67, "velocity": 115, "channel": 0}, {"type": "note_on", "time": 15625, "note": 65, "velocity": 115, "channel": 0}, {"type": "note_off", "time": 4526, "note": 65, "velocity": 115, "channel": 0}, {"type": "note_on", "time": 431, "note": 64, "velocity": 114, "channel": 0}, {"type": "note_off", "time": 3663, "note": 64, "velocity": 114, "channel": 0}, {"type": "note_on", "time": 215, "note": 63, "velocity": 104, "channel": 0}, {"type": "note_off", "time": 3879, "note": 63, "velocity": 104, "channel": 0}, {"type": "note_on", "time": 431, "note": 58, "velocity": 87, "channel": 0}, {"type": "note_off", "time": 3340, "note": 58, "velocity": 87, "channel": 0}, {"type": "note_on", "time": 215, "note": 60, "velocity": 96, "channel": 0}, {"type": "note_off", "time": 4418, "note": 60, "velocity": 96, "channel": 0}, {"type": "note_on", "time": 538, "note": 63, "velocity": 111, "channel": 0}, {"type": "note_off", "time": 3987, "note": 63, "velocity": 111, "channel": 0}, {"type": "note_on", "time": 0, "note": 62, "velocity": 114, "channel": 0}, {"type": "note_off", "time": 6465, "note": 62, "velocity": 114, "channel": 0}, {"type": "note_on", "time": 215, "note": 59, "velocity": 98, "channel": 0}, {"type": "note_off", "time": 10237, "note": 59, "velocity": 98, "channel": 0}, {"type": "end_of_track", "time": 0}]]}