{"ticks_per_beat": 192, "tracks": [[{"type": "track_name", "name": "Melody", "time": 0}, {"type": "set_tempo", "tempo": 285714, "time": 0}, {"type": "key_signature", "key": "C", "time": 0}, {"type": "time_signature", "numerator": 4, "denominator": 4, "clocks_per_click": 24, "notated_32nd_notes_per_beat": 8, "time": 0}, {"type": "note_on", "time": 4128, "note": 62, "velocity": 119, "channel": 0}, {"type": "note_off", "time": 29, "note": 62, "velocity": 119, "channel": 0}, {"type": "note_on", "time": 7, "note": 64, "velocity": 119, "channel": 0}, {"type": "note_off", "time": 35, "note": 64, "velocity": 119, "channel": 0}, {"type": "note_on", "time": 7, "note": 65, "velocity": 122, "channel": 0}, {"type": "note_off", "time": 91, "note": 65, "velocity": 122, "channel": 0}, {"type": "note_on", "time": 13, "note": 70, "velocity": 119, "channel": 0}, {"type": "note_off", "time": 58, "note": 70, "velocity": 119, "channel": 0}, {"type": "note_on", "time": 7, "note": 68, "velocity": 109, "channel": 0}, {"type": "note_off", "time": 44, "note": 68, "velocity": 109, "channel": 0}, {"type": "note_on", "time": 3, "note": 70, "velocity": 104, "channel": 0}, {"type": "note_off", "time": 31, "note": 70, "velocity": 104, "channel": 0}, {"type": "note_on", "time": 1, "note": 68, "velocity": 110, "channel": 0}, {"type": "note_off", "time": 40, "note": 68, "velocity": 110, "channel": 0}, {"type": "note_on", "time": 3, "note": 65, "velocity": 109, "channel": 0}, {"type": "note_off", "time": 44, "note": 65, "velocity": 109, "channel": 0}, {"type": "note_on", "time": 5, "note": 67, "velocity": 118, "channel": 0}, {"type": "note_off", "time": 130, "note": 67, "velocity": 118, "channel": 0}, {"type": "note_on", "time": 5, "note": 64, "velocity": 107, "channel": 0}, {"type": "note_off", "time": 70, "note": 64, "velocity": 107, "channel": 0}, {"type": "note_on", "time": 280, "note": 74, "velocity": 121, "channel": 0}, {"type": "note_off", "time": 68, "note": 74, "velocity": 121, "channel": 0}, {"type": "note_on", "time": 5, "note": 73, "velocity": 124, "channel": 0}, {"type": "note_off", "time": 66, "note": 73, "velocity": 124, "channel": 0}, {"type": "note_on", "time": 15, "note": 72, "velocity": 118, "channel": 0}, {"type": "note_off", "time": 76, "note": 72, "velocity": 118, "channel": 0}, {"type": "note_on", "time": 3, "note": 67, "velocity": 106, "channel": 0}, {"type": "note_off", "time": 76, "note": 67, "velocity": 106, "channel": 0}, {"type": "note_on", "time": 11, "note": 70, "velocity": 116, "channel": 0}, {"type": "note_off", "time": 58, "note": 70, "velocity": 116, "channel": 0}, {"type": "note_on", "time": 3, "note": 72, "velocity": 112, "channel": 0}, {"type": "note_off", "time": 42, "note": 72, "velocity": 112, "channel": 0}, {"type": "note_on", "time": 1, "note": 70, "velocity": 115, "channel": 0}, {"type": "note_off", "time": 40, "note": 70, "velocity": 115, "channel": 0}, {"type": "note_on", "time": 7, "note": 69, "velocity": 119, "channel": 0}, {"type": "note_off", "time": 115, "note": 69, "velocity": 119, "channel": 0}, {"type": "note_on", "time": 9, "note": 68, "velocity": 118, "channel": 0}, {"type": "note_off", "time": 76, "note": 68, "velocity": 118, "channel": 0}, {"type": "note_on", "time": 95, "note": 65, "velocity": 105, "channel": 0}, {"type": "note_off", "time": 93, "note": 65, "velocity": 105, "channel": 0}, {"type": "note_on", "time": 15, "note": 63, "velocity": 104, "channel": 0}, {"type": "note_off", "time": 78, "note": 63, "velocity": 104, "channel": 0}, {"type": "note_on", "time": 13, "note": 60, "velocity": 82, "channel": 0}, {"type": "note_off", "time": 56, "note": 60, "velocity": 82, "channel": 0}, {"type": "note_on", "time": 33, "note": 67, "velocity": 117, "channel": 0}, {"type": "note_off", "time": 42, "note": 67, "velocity": 117, "channel": 0}, {"type": "note_on", "time": 7, "note": 69, "velocity": 108, "channel": 0}, {"type": "note_off", "time": 35, "note": 69, "velocity": 108, "channel": 0}, {"type": "note_on", "time": 5, "note": 67, "velocity": 119, "channel": 0}, {"type": "note_off", "time": 21, "note": 67, "velocity": 119, "channel": 0}, {"type": "note_on", "time": 1, "note": 65, "velocity": 116, "channel": 0}, {"type": "note_off", "time": 81, "note": 65, "velocity": 116, "channel": 0}, {"type": "note_on", "time": 9, "note": 64, "velocity": 112, "channel": 0}, {"type": "note_off", "time": 76, "note": 64, "velocity": 112, "channel": 0}, {"type": "note_on", "time": 33, "note": 57, "velocity": 103, "channel": 0}, {"type": "note_off", "time": 70, "note": 57, "velocity": 103, "channel": 0}, {"type": "note_on", "time": 29, "note": 58, "velocity": 96, "channel": 0}, {"type": "note_off", "time": 85, "note": 58, "velocity": 96, "channel": 0}, {"type": "note_on", "time": 1, "note": 62, "velocity": 104, "channel": 0}, {"type": "note_off", "time": 60, "note": 62, "velocity": 104, "channel": 0}, {"type": "note_on", "time": 11, "note": 65, "velocity": 116, "channel": 0}, {"type": "note_off", "time": 101, "note": 65, "velocity": 116, "channel": 0}, {"type": "note_on", "time": 9, "note": 67, "velocity": 116, "channel": 0}, {"type": "note_off", "time": 83, "note": 67, "velocity": 116, "channel": 0}, {"type": "note_on", "time": 27, "note": 64, "velocity": 111, "channel": 0}, {"type": "note_off", "time": 72, "note": 64, "velocity": 111, "channel": 0}, {"type": "note_on", "time": 17, "note": 62, "velocity": 101, "channel": 0}, {"type": "note_off", "time": 64, "note": 62, "velocity": 101, "channel": 0}, {"type": "note_on", "time": 52, "note": 64, "velocity": 95, "channel": 0}, {"type": "note_off", "time": 68, "note": 64, "velocity": 95, "channel": 0}, {"type": "note_on", "time": 0, "note": 67, "velocity": 110, "channel": 0}, {"type": "note_off", "time": 74, "note": 67, "velocity": 110, "channel": 0}, {"type": "note_on", "time": 1, "note": 70, "velocity": 111, "channel": 0}, {"type": "note_off", "time": 97, "note": 70, "velocity": 111, "channel": 0}, {"type": "note_on", "time": 1, "note": 72, "velocity": 110, "channel": 0}, {"type": "note_off", "time": 35, "note": 72, "velocity": 110, "channel": 0}, {"type": "note_on", "time": 5, "note": 70, "velocity": 108, "channel": 0}, {"type": "note_off", "time": 23, "note": 70, "velocity": 108, "channel": 0}, {"type": "note_on", "time": 1, "note": 69, "velocity": 124, "channel": 0}, {"type": "note_off", "time": 107, "note": 69, "velocity": 124, "channel": 0}, {"type": "note_on", "time": 5, "note": 67, "velocity": 115, "channel": 0}, {"type": "note_off", "time": 83, "note": 67, "velocity": 115, "channel": 0}, {"type": "note_on", "time": 5, "note": 66, "velocity": 118, "channel": 0}, {"type": "note_off", "time": 126, "note": 66, "velocity": 118, "channel": 0}, {"type": "note_on", "time": 5, "note": 62, "velocity": 104, "channel": 0}, {"type": "note_off", "time": 52, "note": 62, "velocity": 104, "channel": 0}, {"type": "note_on", "time": 3, "note": 60, "velocity": 100, "channel": 0}, {"type": "note_off", "time": 48, "note": 60, "velocity": 100, "channel": 0}, {"type": "note_on", "time": 7, "note": 62, "velocity": 99, "channel": 0}, {"type": "note_off", "time": 31, "note": 62, "velocity": 99, "channel": 0}, {"type": "note_on", "time": 3, "note": 60, "velocity": 93, "channel": 0}, {"type": "note_off", "time": 27, "note": 60, "velocity": 93, "channel": 0}, {"type": "note_on", "time": 3, "note": 57, "velocity": 96, "channel": 0}, {"type": "note_off", "time": 78, "note": 57, "velocity": 96, "channel": 0}, {"type": "note_on", "time": 25, "note": 64, "velocity": 81, "channel": 0}, {"type": "note_off", "time": 282, "note": 64, "velocity": 81, "channel": 0}, {"type": "note_on", "time": 869, "note": 67, "velocity": 116, "channel": 0}, {"type": "note_off", "time": 124, "note": 67, "velocity": 116, "channel": 0}, {"type": "note_on", "time": 29, "note": 64, "velocity": 106, "channel": 0}, {"type": "note_off", "time": 111, "note": 64, "velocity": 106, "channel": 0}, {"type": "note_on", "time": 25, "note": 65, "velocity": 97, "channel": 0}, {"type": "note_off", "time": 74, "note": 65, "velocity": 97, "channel": 0}, {"type": "note_on", "time": 1, "note": 67, "velocity": 111, "channel": 0}, {"type": "note_off", "time": 115, "note": 67, "velocity": 111, "channel": 0}, {"type": "note_on", "time": 0, "note": 72, "velocity": 122, "channel": 0}, {"type": "note_off", "time": 78, "note": 72, "velocity": 122, "channel": 0}, {"type": "note_on", "time": 9, "note": 71, "velocity": 105, "channel": 0}, {"type": "note_off", "time": 83, "note": 71, "velocity": 105, "channel": 0}, {"type": "note_on", "time": 39, "note": 69, "velocity": 120, "channel": 0}, {"type": "note_off", "time": 66, "note": 69, "velocity": 120, "channel": 0}, {"type": "note_on", "time": 13, "note": 67, "velocity": 116, "channel": 0}, {"type": "note_off", "time": 89, "note": 67, "velocity": 116, "channel": 0}, {"type": "note_on", "time": 7, "note": 65, "velocity": 119, "channel": 0}, {"type": "note_off", "time": 89, "note": 65, "velocity": 119, "channel": 0}, {"type": "note_on", "time": 3, "note": 62, "velocity": 105, "channel": 0}, {"type": "note_off", "time": 103, "note": 62, "velocity": 105, "channel": 0}, {"type": "note_on", "time": 13, "note": 57, "velocity": 82, "channel": 0}, {"type": "note_off", "time": 48, "note": 57, "velocity": 82, "channel": 0}, {"type": "note_on", "time": 15, "note": 62, "velocity": 107, "channel": 0}, {"type": "note_off", "time": 33, "note": 62, "velocity": 107, "channel": 0}, {"type": "note_on", "time": 9, "note": 64, "velocity": 104, "channel": 0}, {"type": "note_off", "time": 109, "note": 64, "velocity": 104, "channel": 0}, {"type": "note_on", "time": 3, "note": 67, "velocity": 114, "channel": 0}, {"type": "note_off", "time": 144, "note": 67, "velocity": 114, "channel": 0}, {"type": "note_on", "time": 15, "note": 62, "velocity": 90, "channel": 0}, {"type": "note_off", "time": 204, "note": 62, "velocity": 90, "channel": 0}, {"type": "note_on", "time": 555, "note": 69, "velocity": 123, "channel": 0}, {"type": "note_off", "time": 76, "note": 69, "velocity": 123, "channel": 0}, {"type": "note_on", "time": 13, "note": 70, "velocity": 115, "channel": 0}, {"type": "note_off", "time": 93, "note": 70, "velocity": 115, "channel": 0}, {"type": "note_on", "time": 7, "note": 69, "velocity": 124, "channel": 0}, {"type": "note_off", "time": 68, "note": 69, "velocity": 124, "channel": 0}, {"type": "note_on", "time": 9, "note": 68, "velocity": 119, "channel": 0}, {"type": "note_off", "time": 103, "note": 68, "velocity": 119, "channel": 0}, {"type": "note_on", "time": 11, "note": 65, "velocity": 117, "channel": 0}, {"type": "note_off", "time": 95, "note": 65, "velocity": 117, "channel": 0}, {"type": "note_on", "time": 5, "note": 63, "velocity": 101, "channel": 0}, {"type": "note_off", "time": 93, "note": 63, "velocity": 101, "channel": 0}, {"type": "note_on", "time": 13, "note": 60, "velocity": 93, "channel": 0}, {"type": "note_on", "time": 58, "note": 67, "velocity": 120, "channel": 0}, {"type": "note_off", "time": 0, "note": 60, "velocity": 93, "channel": 0}, {"type": "note_off", "time": 113, "note": 67, "velocity": 120, "channel": 0}, {"type": "note_on", "time": 7, "note": 65, "velocity": 116, "channel": 0}, {"type": "note_off", "time": 99, "note": 65, "velocity": 116, "channel": 0}, {"type": "note_on", "time": 7, "note": 64, "velocity": 113, "channel": 0}, {"type": "note_off", "time": 105, "note": 64, "velocity": 113, "channel": 0}, {"type": "note_on", "time": 7, "note": 57, "velocity": 93, "channel": 0}, {"type": "note_off", "time": 76, "note": 57, "velocity": 93, "channel": 0}, {"type": "note_on", "time": 99, "note": 62, "velocity": 91, "channel": 0}, {"type": "note_off", "time": 62, "note": 62, "velocity": 91, "channel": 0}, {"type": "note_on", "time": 17, "note": 65, "velocity": 123, "channel": 0}, {"type": "note_off", "time": 117, "note": 65, "velocity": 123, "channel": 0}, {"type": "note_on", "time": 5, "note": 67, "velocity": 115, "channel": 0}, {"type": "note_off", "time": 52, "note": 67, "velocity": 115, "channel": 0}, {"type": "note_on", "time": 5, "note": 64, "velocity": 114, "channel": 0}, {"type": "note_off", "time": 105, "note": 64, "velocity": 114, "channel": 0}, {"type": "note_on", "time": 33, "note": 62, "velocity": 97, "channel": 0}, {"type": "note_off", "time": 58, "note": 62, "velocity": 97, "channel": 0}, {"type": "note_on", "time": 9, "note": 61, "velocity": 89, "channel": 0}, {"type": "note_off", "time": 91, "note": 61, "velocity": 89, "channel": 0}, {"type": "note_on", "time": 3, "note": 64, "velocity": 107, "channel": 0}, {"type": "note_off", "time": 99, "note": 64, "velocity": 107, "channel": 0}, {"type": "note_on", "time": 0, "note": 58, "velocity": 84, "channel": 0}, {"type": "note_off", "time": 85, "note": 58, "velocity": 84, "channel": 0}, {"type": "note_on", "time": 7, "note": 56, "velocity": 92, "channel": 0}, {"type": "note_off", "time": 74, "note": 56, "velocity": 92, "channel": 0}, {"type": "note_on", "time": 7, "note": 57, "velocity": 104, "channel": 0}, {"type": "note_off", "time": 81, "note": 57, "velocity": 104, "channel": 0}, {"type": "note_on", "time": 23, "note": 65, "velocity": 106, "channel": 0}, {"type": "note_off", "time": 117, "note": 65, "velocity": 106, "channel": 0}, {"type": "note_on", "time": 19, "note": 64, "velocity": 102, "channel": 0}, {"type": "note_off", "time": 115, "note": 64, "velocity": 102, "channel": 0}, {"type": "note_on", "time": 31, "note": 62, "velocity": 110, "channel": 0}, {"type": "note_off", "time": 134, "note": 62, "velocity": 110, "channel": 0}, {"type": "note_on", "time": 3, "note": 57, "velocity": 89, "channel": 0}, {"type": "note_off", "time": 79, "note": 57, "velocity": 89, "channel": 0}, {"type": "note_on", "time": 35, "note": 59, "velocity": 91, "channel": 0}, {"type": "note_off", "time": 68, "note": 59, "velocity": 91, "channel": 0}, {"type": "note_on", "time": 0, "note": 60, "velocity": 95, "channel": 0}, {"type": "note_off", "time": 37, "note": 60, "velocity": 95, "channel": 0}, {"type": "note_on", "time": 0, "note": 62, "velocity": 105, "channel": 0}, {"type": "note_off", "time": 169, "note": 62, "velocity": 105, "channel": 0}, {"type": "note_on", "time": 62, "note": 60, "velocity": 99, "channel": 0}, {"type": "note_off", "time": 78, "note": 60, "velocity": 99, "channel": 0}, {"type": "note_on", "time": 5, "note": 62, "velocity": 104, "channel": 0}, {"type": "note_off", "time": 81, "note": 62, "velocity": 104, "channel": 0}, {"type": "note_on", "time": 11, "note": 59, "velocity": 91, "channel": 0}, {"type": "note_off", "time": 93, "note": 59, "velocity": 91, "channel": 0}, {"type": "note_on", "time": 17, "note": 57, "velocity": 96, "channel": 0}, {"type": "note_off", "time": 224, "note": 57, "velocity": 96, "channel": 0}, {"type": "note_on", "time": 353, "note": 53, "velocity": 94, "channel": 0}, {"type": "note_off", "time": 68, "note": 53, "velocity": 94, "channel": 0}, {"type": "note_on", "time": 21, "note": 60, "velocity": 109, "channel": 0}, {"type": "note_off", "time": 120, "note": 60, "velocity": 109, "channel": 0}, {"type": "note_on", "time": 21, "note": 55, "velocity": 95, "channel": 0}, {"type": "note_off", "time": 353, "note": 55, "velocity": 95, "channel": 0}, {"type": "note_on", "time": 1176, "note": 59, "velocity": 102, "channel": 0}, {"type": "note_off", "time": 136, "note": 59, "velocity": 102, "channel": 0}, {"type": "note_on", "time": 17, "note": 61, "velocity": 105, "channel": 0}, {"type": "note_off", "time": 35, "note": 61, "velocity": 105, "channel": 0}, {"type": "note_on", "time": 11, "note": 63, "velocity": 109, "channel": 0}, {"type": "note_off", "time": 37, "note": 63, "velocity": 109, "channel": 0}, {"type": "note_on", "time": 0, "note": 64, "velocity": 116, "channel": 0}, {"type": "note_off", "time": 120, "note": 64, "velocity": 116, "channel": 0}, {"type": "note_on", "time": 7, "note": 66, "velocity": 110, "channel": 0}, {"type": "note_off", "time": 83, "note": 66, "velocity": 110, "channel": 0}, {"type": "note_on", "time": 11, "note": 67, "velocity": 97, "channel": 0}, {"type": "note_off", "time": 91, "note": 67, "velocity": 97, "channel": 0}, {"type": "note_on", "time": 7, "note": 69, "velocity": 111, "channel": 0}, {"type": "note_off", "time": 76, "note": 69, "velocity": 111, "channel": 0}, {"type": "note_on", "time": 13, "note": 69, "velocity": 113, "channel": 0}, {"type": "note_off", "time": 52, "note": 69, "velocity": 113, "channel": 0}, {"type": "note_on", "time": 19, "note": 71, "velocity": 90, "channel": 0}, {"type": "note_off", "time": 446, "note": 71, "velocity": 90, "channel": 0}, {"type": "note_on", "time": 11, "note": 72, "velocity": 120, "channel": 0}, {"type": "note_off", "time": 120, "note": 72, "velocity": 120, "channel": 0}, {"type": "note_on", "time": 0, "note": 74, "velocity": 108, "channel": 0}, {"type": "note_off", "time": 50, "note": 74, "velocity": 108, "channel": 0}, {"type": "note_on", "time": 9, "note": 72, "velocity": 122, "channel": 0}, {"type": "note_off", "time": 48, "note": 72, "velocity": 122, "channel": 0}, {"type": "note_on", "time": 5, "note": 71, "velocity": 116, "channel": 0}, {"type": "note_off", "time": 66, "note": 71, "velocity": 116, "channel": 0}, {"type": "note_on", "time": 13, "note": 67, "velocity": 112, "channel": 0}, {"type": "note_off", "time": 97, "note": 67, "velocity": 112, "channel": 0}, {"type": "note_on", "time": 11, "note": 64, "velocity": 97, "channel": 0}, {"type": "note_off", "time": 89, "note": 64, "velocity": 97, "channel": 0}, {"type": "note_on", "time": 13, "note": 60, "velocity": 93, "channel": 0}, {"type": "note_off", "time": 72, "note": 60, "velocity": 93, "channel": 0}, {"type": "note_on", "time": 7, "note": 66, "velocity": 110, "channel": 0}, {"type": "note_off", "time": 54, "note": 66, "velocity": 110, "channel": 0}, {"type": "note_on", "time": 5, "note": 67, "velocity": 109, "channel": 0}, {"type": "note_off", "time": 58, "note": 67, "velocity": 109, "channel": 0}, {"type": "note_on", "time": 1, "note": 68, "velocity": 106, "channel": 0}, {"type": "note_off", "time": 48, "note": 68, "velocity": 106, "channel": 0}, {"type": "note_on", "time": 27, "note": 69, "velocity": 109, "channel": 0}, {"type": "note_off", "time": 105, "note": 69, "velocity": 109, "channel": 0}, {"type": "note_on", "time": 7, "note": 66, "velocity": 112, "channel": 0}, {"type": "note_off", "time": 42, "note": 66, "velocity": 112, "channel": 0}, {"type": "note_on", "time": 11, "note": 67, "velocity": 115, "channel": 0}, {"type": "note_off", "time": 128, "note": 67, "velocity": 115, "channel": 0}, {"type": "note_on", "time": 1, "note": 64, "velocity": 91, "channel": 0}, {"type": "note_off", "time": 228, "note": 64, "velocity": 91, "channel": 0}, {"type": "note_on", "time": 477, "note": 55, "velocity": 90, "channel": 0}, {"type": "note_off", "time": 54, "note": 55, "velocity": 90, "channel": 0}, {"type": "note_on", "time": 0, "note": 57, "velocity": 109, "channel": 0}, {"type": "note_off", "time": 44, "note": 57, "velocity": 109, "channel": 0}, {"type": "note_on", "time": 0, "note": 61, "velocity": 111, "channel": 0}, {"type": "note_off", "time": 58, "note": 61, "velocity": 111, "channel": 0}, {"type": "note_on", "time": 5, "note": 62, "velocity": 113, "channel": 0}, {"type": "note_off", "time": 64, "note": 62, "velocity": 113, "channel": 0}, {"type": "note_on", "time": 5, "note": 64, "velocity": 118, "channel": 0}, {"type": "note_off", "time": 66, "note": 64, "velocity": 118, "channel": 0}, {"type": "note_on", "time": 13, "note": 65, "velocity": 120, "channel": 0}, {"type": "note_off", "time": 122, "note": 65, "velocity": 120, "channel": 0}, {"type": "note_on", "time": 9, "note": 67, "velocity": 117, "channel": 0}, {"type": "note_on", "time": 83, "note": 69, "velocity": 127, "channel": 0}, {"type": "note_off", "time": 0, "note": 67, "velocity": 117, "channel": 0}, {"type": "note_off", "time": 91, "note": 69, "velocity": 127, "channel": 0}, {"type": "note_on", "time": 5, "note": 68, "velocity": 115, "channel": 0}, {"type": "note_off", "time": 60, "note": 68, "velocity": 115, "channel": 0}, {"type": "note_on", "time": 5, "note": 70, "velocity": 108, "channel": 0}, {"type": "note_off", "time": 113, "note": 70, "velocity": 108, "channel": 0}, {"type": "note_on", "time": 7, "note": 69, "velocity": 117, "channel": 0}, {"type": "note_off", "time": 83, "note": 69, "velocity": 117, "channel": 0}, {"type": "note_on", "time": 3, "note": 67, "velocity": 115, "channel": 0}, {"type": "note_off", "time": 115, "note": 67, "velocity": 115, "channel": 0}, {"type": "note_on", "time": 11, "note": 65, "velocity": 118, "channel": 0}, {"type": "note_off", "time": 76, "note": 65, "velocity": 118, "channel": 0}, {"type": "note_on", "time": 3, "note": 64, "velocity": 112, "channel": 0}, {"type": "note_off", "time": 99, "note": 64, "velocity": 112, "channel": 0}, {"type": "note_on", "time": 11, "note": 62, "velocity": 102, "channel": 0}, {"type": "note_off", "time": 58, "note": 62, "velocity": 102, "channel": 0}, {"type": "note_on", "time": 107, "note": 70, "velocity": 112, "channel": 0}, {"type": "note_off", "time": 54, "note": 70, "velocity": 112, "channel": 0}, {"type": "note_on", "time": 17, "note": 72, "velocity": 97, "channel": 0}, {"type": "note_off", "time": 107, "note": 72, "velocity": 97, "channel": 0}, {"type": "note_on", "time": 3, "note": 71, "velocity": 106, "channel": 0}, {"type": "note_off", "time": 46, "note": 71, "velocity": 106, "channel": 0}, {"type": "note_on", "time": 3, "note": 69, "velocity": 105, "channel": 0}, {"type": "note_off", "time": 46, "note": 69, "velocity": 105, "channel": 0}, {"type": "note_on", "time": 7, "note": 67, "velocity": 111, "channel": 0}, {"type": "note_off", "time": 95, "note": 67, "velocity": 111, "channel": 0}, {"type": "note_on", "time": 13, "note": 66, "velocity": 121, "channel": 0}, {"type": "note_off", "time": 89, "note": 66, "velocity": 121, "channel": 0}, {"type": "note_on", "time": 3, "note": 64, "velocity": 109, "channel": 0}, {"type": "note_off", "time": 93, "note": 64, "velocity": 109, "channel": 0}, {"type": "note_on", "time": 11, "note": 57, "velocity": 103, "channel": 0}, {"type": "note_off", "time": 81, "note": 57, "velocity": 103, "channel": 0}, {"type": "note_on", "time": 91, "note": 64, "velocity": 113, "channel": 0}, {"type": "note_off", "time": 85, "note": 64, "velocity": 113, "channel": 0}, {"type": "note_on", "time": 7, "note": 62, "velocity": 99, "channel": 0}, {"type": "note_off", "time": 109, "note": 62, "velocity": 99, "channel": 0}, {"type": "note_on", "time": 0, "note": 57, "velocity": 94, "channel": 0}, {"type": "note_off", "time": 66, "note": 57, "velocity": 94, "channel": 0}, {"type": "note_on", "time": 11, "note": 60, "velocity": 106, "channel": 0}, {"type": "note_off", "time": 124, "note": 60, "velocity": 106, "channel": 0}, {"type": "note_on", "time": 66, "note": 59, "velocity": 99, "channel": 0}, {"type": "note_off", "time": 76, "note": 59, "velocity": 99, "channel": 0}, {"type": "note_on", "time": 25, "note": 67, "velocity": 92, "channel": 0}, {"type": "note_off", "time": 101, "note": 67, "velocity": 92, "channel": 0}, {"type": "note_on", "time": 27, "note": 65, "velocity": 97, "channel": 0}, {"type": "note_off", "time": 54, "note": 65, "velocity": 97, "channel": 0}, {"type": "note_on", "time": 21, "note": 66, "velocity": 107, "channel": 0}, {"type": "note_off", "time": 42, "note": 66, "velocity": 107, "channel": 0}, {"type": "note_on", "time": 21, "note": 67, "velocity": 116, "channel": 0}, {"type": "note_off", "time": 152, "note": 67, "velocity": 116, "channel": 0}, {"type": "note_on", "time": 335, "note": 74, "velocity": 123, "channel": 0}, {"type": "note_off", "time": 97, "note": 74, "velocity": 123, "channel": 0}, {"type": "note_on", "time": 1, "note": 72, "velocity": 118, "channel": 0}, {"type": "note_off", "time": 97, "note": 72, "velocity": 118, "channel": 0}, {"type": "note_on", "time": 7, "note": 67, "velocity": 99, "channel": 0}, {"type": "note_off", "time": 107, "note": 67, "velocity": 99, "channel": 0}, {"type": "note_on", "time": 1, "note": 70, "velocity": 115, "channel": 0}, {"type": "note_off", "time": 117, "note": 70, "velocity": 115, "channel": 0}, {"type": "note_on", "time": 7, "note": 69, "velocity": 119, "channel": 0}, {"type": "note_off", "time": 79, "note": 69, "velocity": 119, "channel": 0}, {"type": "note_on", "time": 81, "note": 68, "velocity": 121, "channel": 0}, {"type": "note_off", "time": 62, "note": 68, "velocity": 121, "channel": 0}, {"type": "note_on", "time": 91, "note": 65, "velocity": 116, "channel": 0}, {"type": "note_off", "time": 105, "note": 65, "velocity": 116, "channel": 0}, {"type": "note_on", "time": 11, "note": 63, "velocity": 103, "channel": 0}, {"type": "note_off", "time": 118, "note": 63, "velocity": 103, "channel": 0}, {"type": "note_on", "time": 9, "note": 57, "velocity": 109, "channel": 0}, {"type": "note_off", "time": 64, "note": 57, "velocity": 109, "channel": 0}, {"type": "note_on", "time": 0, "note": 67, "velocity": 113, "channel": 0}, {"type": "note_off", "time": 97, "note": 67, "velocity": 113, "channel": 0}, {"type": "note_on", "time": 11, "note": 66, "velocity": 93, "channel": 0}, {"type": "note_off", "time": 48, "note": 66, "velocity": 93, "channel": 0}, {"type": "note_on", "time": 97, "note": 58, "velocity": 85, "channel": 0}, {"type": "note_off", "time": 48, "note": 58, "velocity": 85, "channel": 0}, {"type": "note_on", "time": 13, "note": 62, "velocity": 88, "channel": 0}, {"type": "note_off", "time": 58, "note": 62, "velocity": 88, "channel": 0}, {"type": "note_on", "time": 27, "note": 65, "velocity": 118, "channel": 0}, {"type": "note_off", "time": 76, "note": 65, "velocity": 118, "channel": 0}, {"type": "note_on", "time": 5, "note": 67, "velocity": 112, "channel": 0}, {"type": "note_off", "time": 85, "note": 67, "velocity": 112, "channel": 0}, {"type": "note_on", "time": 21, "note": 64, "velocity": 107, "channel": 0}, {"type": "note_off", "time": 78, "note": 64, "velocity": 107, "channel": 0}, {"type": "note_on", "time": 7, "note": 62, "velocity": 106, "channel": 0}, {"type": "note_off", "time": 70, "note": 62, "velocity": 106, "channel": 0}, {"type": "note_on", "time": 39, "note": 61, "velocity": 103, "channel": 0}, {"type": "note_off", "time": 72, "note": 61, "velocity": 103, "channel": 0}, {"type": "note_on", "time": 15, "note": 64, "velocity": 105, "channel": 0}, {"type": "note_off", "time": 54, "note": 64, "velocity": 105, "channel": 0}, {"type": "note_on", "time": 15, "note": 67, "velocity": 114, "channel": 0}, {"type": "note_off", "time": 130, "note": 67, "velocity": 114, "channel": 0}, {"type": "note_on", "time": 7, "note": 69, "velocity": 112, "channel": 0}, {"type": "note_off", "time": 50, "note": 69, "velocity": 112, "channel": 0}, {"type": "note_on", "time": 7, "note": 71, "velocity": 89, "channel": 0}, {"type": "note_off", "time": 171, "note": 71, "velocity": 89, "channel": 0}, {"type": "note_on", "time": 7, "note": 69, "velocity": 105, "channel": 0}, {"type": "note_off", "time": 76, "note": 69, "velocity": 105, "channel": 0}, {"type": "note_on", "time": 150, "note": 71, "velocity": 96, "channel": 0}, {"type": "note_off", "time": 70, "note": 71, "velocity": 96, "channel": 0}, {"type": "note_on", "time": 31, "note": 64, "velocity": 89, "channel": 0}, {"type": "note_off", "time": 308, "note": 64, "velocity": 89, "channel": 0}, {"type": "note_on", "time": 696, "note": 72, "velocity": 124, "channel": 0}, {"type": "note_off", "time": 74, "note": 72, "velocity": 124, "channel": 0}, {"type": "note_on", "time": 113, "note": 72, "velocity": 119, "channel": 0}, {"type": "note_off", "time": 85, "note": 72, "velocity": 119, "channel": 0}, {"type": "note_on", "time": 42, "note": 72, "velocity": 91, "channel": 0}, {"type": "note_off", "time": 335, "note": 72, "velocity": 91, "channel": 0}, {"type": "note_on", "time": 177, "note": 70, "velocity": 109, "channel": 0}, {"type": "note_off", "time": 76, "note": 70, "velocity": 109, "channel": 0}, {"type": "note_on", "time": 7, "note": 72, "velocity": 103, "channel": 0}, {"type": "note_on", "time": 50, "note": 70, "velocity": 103, "channel": 0}, {"type": "note_off", "time": 0, "note": 72, "velocity": 103, "channel": 0}, {"type": "note_off", "time": 52, "note": 70, "velocity": 103, "channel": 0}, {"type": "note_on", "time": 5, "note": 67, "velocity": 110, "channel": 0}, {"type": "note_off", "time": 85, "note": 67, "velocity": 110, "channel": 0}, {"type": "note_on", "time": 0, "note": 69, "velocity": 115, "channel": 0}, {"type": "note_off", "time": 54, "note": 69, "velocity": 115, "channel": 0}, {"type": "note_on", "time": 15, "note": 67, "velocity": 110, "channel": 0}, {"type": "note_off", "time": 93, "note": 67, "velocity": 110, "channel": 0}, {"type": "note_on", "time": 1, "note": 65, "velocity": 112, "channel": 0}, {"type": "note_off", "time": 93, "note": 65, "velocity": 112, "channel": 0}, {"type": "note_on", "time": 11, "note": 63, "velocity": 93, "channel": 0}, {"type": "note_off", "time": 87, "note": 63, "velocity": 93, "channel": 0}, {"type": "note_on", "time": 7, "note": 60, "velocity": 80, "channel": 0}, {"type": "note_off", "time": 60, "note": 60, "velocity": 80, "channel": 0}, {"type": "note_on", "time": 0, "note": 62, "velocity": 100, "channel": 0}, {"type": "note_off", "time": 111, "note": 62, "velocity": 100, "channel": 0}, {"type": "note_on", "time": 58, "note": 60, "velocity": 98, "channel": 0}, {"type": "note_off", "time": 140, "note": 60, "velocity": 98, "channel": 0}, {"type": "end_of_track", "time": 0}]]}