{"ticks_per_beat": 192, "tracks": [[{"type": "track_name", "name": "Melody", "time": 0}, {"type": "set_tempo", "tempo": 223880, "time": 0}, {"type": "key_signature", "key": "Ab", "time": 0}, {"type": "time_signature", "numerator": 4, "denominator": 4, "clocks_per_click": 24, "notated_32nd_notes_per_beat": 8, "time": 0}, {"type": "note_on", "time": 3847, "note": 75, "velocity": 104, "channel": 0}, {"type": "note_off", "time": 126, "note": 75, "velocity": 104, "channel": 0}, {"type": "note_on", "time": 73, "note": 80, "velocity": 98, "channel": 0}, {"type": "note_off", "time": 112, "note": 80, "velocity": 98, "channel": 0}, {"type": "note_on", "time": 56, "note": 76, "velocity": 108, "channel": 0}, {"type": "note_off", "time": 87, "note": 76, "velocity": 108, "channel": 0}, {"type": "note_on", "time": 0, "note": 77, "velocity": 113, "channel": 0}, {"type": "note_off", "time": 105, "note": 77, "velocity": 113, "channel": 0}, {"type": "note_on", "time": 0, "note": 80, "velocity": 114, "channel": 0}, {"type": "note_off", "time": 77, "note": 80, "velocity": 114, "channel": 0}, {"type": "note_on", "time": 0, "note": 77, "velocity": 103, "channel": 0}, {"type": "note_off", "time": 101, "note": 77, "velocity": 103, "channel": 0}, {"type": "note_on", "time": 91, "note": 80, "velocity": 107, "channel": 0}, {"type": "note_off", "time": 122, "note": 80, "velocity": 107, "channel": 0}, {"type": "note_on", "time": 98, "note": 77, "velocity": 109, "channel": 0}, {"type": "note_off", "time": 87, "note": 77, "velocity": 109, "channel": 0}, {"type": "note_on", "time": 91, "note": 80, "velocity": 121, "channel": 0}, {"type": "note_off", "time": 91, "note": 80, "velocity": 121, "channel": 0}, {"type": "note_on", "time": 108, "note": 77, "velocity": 106, "channel": 0}, {"type": "note_off", "time": 108, "note": 77, "velocity": 106, "channel": 0}, {"type": "note_on", "time": 87, "note": 80, "velocity": 112, "channel": 0}, {"type": "note_off", "time": 108, "note": 80, "velocity": 112, "channel": 0}, {"type": "note_on", "time": 87, "note": 77, "velocity": 113, "channel": 0}, {"type": "note_off", "time": 91, "note": 77, "velocity": 113, "channel": 0}, {"type": "note_on", "time": 108, "note": 80, "velocity": 120, "channel": 0}, {"type": "note_off", "time": 101, "note": 80, "velocity": 120, "channel": 0}, {"type": "note_on", "time": 105, "note": 77, "velocity": 124, "channel": 0}, {"type": "note_off", "time": 73, "note": 77, "velocity": 124, "channel": 0}, {"type": "note_on", "time": 94, "note": 80, "velocity": 123, "channel": 0}, {"type": "note_off", "time": 98, "note": 80, "velocity": 123, "channel": 0}, {"type": "note_on", "time": 87, "note": 77, "velocity": 122, "channel": 0}, {"type": "note_off", "time": 87, "note": 77, "velocity": 122, "channel": 0}, {"type": "note_on", "time": 42, "note": 80, "velocity": 126, "channel": 0}, {"type": "note_off", "time": 98, "note": 80, "velocity": 126, "channel": 0}, {"type": "note_on", "time": 52, "note": 77, "velocity": 119, "channel": 0}, {"type": "note_off", "time": 87, "note": 77, "velocity": 119, "channel": 0}, {"type": "note_on", "time": 21, "note": 73, "velocity": 114, "channel": 0}, {"type": "note_off", "time": 87, "note": 73, "velocity": 114, "channel": 0}, {"type": "note_on", "time": 21, "note": 70, "velocity": 120, "channel": 0}, {"type": "note_off", "time": 203, "note": 70, "velocity": 120, "channel": 0}, {"type": "note_on", "time": 42, "note": 71, "velocity": 116, "channel": 0}, {"type": "note_off", "time": 255, "note": 71, "velocity": 116, "channel": 0}, {"type": "note_on", "time": 38, "note": 70, "velocity": 116, "channel": 0}, {"type": "note_off", "time": 164, "note": 70, "velocity": 116, "channel": 0}, {"type": "note_on", "time": 32, "note": 65, "velocity": 100, "channel": 0}, {"type": "note_off", "time": 398, "note": 65, "velocity": 100, "channel": 0}, {"type": "note_on", "time": 13, "note": 68, "velocity": 114, "channel": 0}, {"type": "note_off", "time": 245, "note": 68, "velocity": 114, "channel": 0}, {"type": "note_on", "time": 24, "note": 65, "velocity": 112, "channel": 0}, {"type": "note_off", "time": 112, "note": 65, "velocity": 112, "channel": 0}, {"type": "note_on", "time": 0, "note": 64, "velocity": 114, "channel": 0}, {"type": "note_on", "time": 122, "note": 63, "velocity": 111, "channel": 0}, {"type": "note_off", "time": 0, "note": 64, "velocity": 114, "channel": 0}, {"type": "note_off", "time": 98, "note": 63, "velocity": 111, "channel": 0}, {"type": "note_on", "time": 70, "note": 62, "velocity": 117, "channel": 0}, {"type": "note_off", "time": 87, "note": 62, "velocity": 117, "channel": 0}, {"type": "note_on", "time": 0, "note": 63, "velocity": 108, "channel": 0}, {"type": "note_off", "time": 84, "note": 63, "velocity": 108, "channel": 0}, {"type": "note_on", "time": 24, "note": 65, "velocity": 113, "channel": 0}, {"type": "note_off", "time": 210, "note": 65, "velocity": 113, "channel": 0}, {"type": "note_on", "time": 56, "note": 62, "velocity": 101, "channel": 0}, {"type": "note_off", "time": 269, "note": 62, "velocity": 101, "channel": 0}, {"type": "note_on", "time": 0, "note": 65, "velocity": 112, "channel": 0}, {"type": "note_off", "time": 112, "note": 65, "velocity": 112, "channel": 0}, {"type": "note_on", "time": 24, "note": 64, "velocity": 113, "channel": 0}, {"type": "note_off", "time": 91, "note": 64, "velocity": 113, "channel": 0}, {"type": "note_on", "time": 0, "note": 63, "velocity": 110, "channel": 0}, {"type": "note_off", "time": 87, "note": 63, "velocity": 110, "channel": 0}, {"type": "note_on", "time": 35, "note": 62, "velocity": 106, "channel": 0}, {"type": "note_off", "time": 108, "note": 62, "velocity": 106, "channel": 0}, {"type": "note_on", "time": 84, "note": 65, "velocity": 91, "channel": 0}, {"type": "note_off", "time": 343, "note": 65, "velocity": 91, "channel": 0}, {"type": "note_on", "time": 397, "note": 63, "velocity": 119, "channel": 0}, {"type": "note_off", "time": 82, "note": 63, "velocity": 119, "channel": 0}, {"type": "note_on", "time": 2, "note": 60, "velocity": 111, "channel": 0}, {"type": "note_off", "time": 62, "note": 60, "velocity": 111, "channel": 0}, {"type": "note_on", "time": 4, "note": 63, "velocity": 105, "channel": 0}, {"type": "note_off", "time": 92, "note": 63, "velocity": 105, "channel": 0}, {"type": "note_on", "time": 24, "note": 68, "velocity": 123, "channel": 0}, {"type": "note_off", "time": 89, "note": 68, "velocity": 123, "channel": 0}, {"type": "note_on", "time": 2, "note": 72, "velocity": 117, "channel": 0}, {"type": "note_off", "time": 84, "note": 72, "velocity": 117, "channel": 0}, {"type": "note_on", "time": 3, "note": 71, "velocity": 121, "channel": 0}, {"type": "note_off", "time": 133, "note": 71, "velocity": 121, "channel": 0}, {"type": "note_on", "time": 154, "note": 71, "velocity": 121, "channel": 0}, {"type": "note_off", "time": 108, "note": 71, "velocity": 121, "channel": 0}, {"type": "note_on", "time": 0, "note": 72, "velocity": 114, "channel": 0}, {"type": "note_off", "time": 409, "note": 72, "velocity": 114, "channel": 0}, {"type": "note_on", "time": 0, "note": 70, "velocity": 109, "channel": 0}, {"type": "note_off", "time": 129, "note": 70, "velocity": 109, "channel": 0}, {"type": "note_on", "time": 52, "note": 68, "velocity": 115, "channel": 0}, {"type": "note_off", "time": 126, "note": 68, "velocity": 115, "channel": 0}, {"type": "note_on", "time": 0, "note": 67, "velocity": 115, "channel": 0}, {"type": "note_off", "time": 87, "note": 67, "velocity": 115, "channel": 0}, {"type": "note_on", "time": 7, "note": 65, "velocity": 109, "channel": 0}, {"type": "note_off", "time": 94, "note": 65, "velocity": 109, "channel": 0}, {"type": "note_on", "time": 70, "note": 64, "velocity": 118, "channel": 0}, {"type": "note_off", "time": 94, "note": 64, "velocity": 118, "channel": 0}, {"type": "note_on", "time": 0, "note": 67, "velocity": 110, "channel": 0}, {"type": "note_off", "time": 101, "note": 67, "velocity": 110, "channel": 0}, {"type": "note_on", "time": 3, "note": 64, "velocity": 118, "channel": 0}, {"type": "note_off", "time": 122, "note": 64, "velocity": 118, "channel": 0}, {"type": "note_on", "time": 17, "note": 65, "velocity": 119, "channel": 0}, {"type": "note_off", "time": 84, "note": 65, "velocity": 119, "channel": 0}, {"type": "note_on", "time": 73, "note": 65, "velocity": 96, "channel": 0}, {"type": "note_off", "time": 280, "note": 65, "velocity": 96, "channel": 0}, {"type": "note_on", "time": 364, "note": 82, "velocity": 121, "channel": 0}, {"type": "note_off", "time": 91, "note": 82, "velocity": 121, "channel": 0}, {"type": "note_on", "time": 0, "note": 81, "velocity": 126, "channel": 0}, {"type": "note_off", "time": 98, "note": 81, "velocity": 126, "channel": 0}, {"type": "note_on", "time": 10, "note": 80, "velocity": 125, "channel": 0}, {"type": "note_on", "time": 101, "note": 79, "velocity": 118, "channel": 0}, {"type": "note_off", "time": 0, "note": 80, "velocity": 125, "channel": 0}, {"type": "note_off", "time": 70, "note": 79, "velocity": 118, "channel": 0}, {"type": "note_on", "time": 0, "note": 77, "velocity": 116, "channel": 0}, {"type": "note_off", "time": 105, "note": 77, "velocity": 116, "channel": 0}, {"type": "note_on", "time": 0, "note": 75, "velocity": 117, "channel": 0}, {"type": "note_off", "time": 98, "note": 75, "velocity": 117, "channel": 0}, {"type": "note_on", "time": 3, "note": 74, "velocity": 116, "channel": 0}, {"type": "note_off", "time": 91, "note": 74, "velocity": 116, "channel": 0}, {"type": "note_on", "time": 0, "note": 72, "velocity": 113, "channel": 0}, {"type": "note_off", "time": 77, "note": 72, "velocity": 113, "channel": 0}, {"type": "note_on", "time": 0, "note": 70, "velocity": 118, "channel": 0}, {"type": "note_off", "time": 112, "note": 70, "velocity": 118, "channel": 0}, {"type": "note_on", "time": 0, "note": 69, "velocity": 106, "channel": 0}, {"type": "note_off", "time": 91, "note": 69, "velocity": 106, "channel": 0}, {"type": "note_on", "time": 3, "note": 68, "velocity": 108, "channel": 0}, {"type": "note_off", "time": 91, "note": 68, "velocity": 108, "channel": 0}, {"type": "note_on", "time": 10, "note": 70, "velocity": 122, "channel": 0}, {"type": "note_off", "time": 108, "note": 70, "velocity": 122, "channel": 0}, {"type": "note_on", "time": 2, "note": 67, "velocity": 99, "channel": 0}, {"type": "note_off", "time": 77, "note": 67, "velocity": 99, "channel": 0}, {"type": "note_on", "time": 17, "note": 68, "velocity": 103, "channel": 0}, {"type": "note_off", "time": 69, "note": 68, "velocity": 103, "channel": 0}, {"type": "note_on", "time": 8, "note": 70, "velocity": 120, "channel": 0}, {"type": "note_off", "time": 133, "note": 70, "velocity": 120, "channel": 0}, {"type": "note_on", "time": 22, "note": 68, "velocity": 102, "channel": 0}, {"type": "note_off", "time": 84, "note": 68, "velocity": 102, "channel": 0}, {"type": "note_on", "time": 107, "note": 67, "velocity": 97, "channel": 0}, {"type": "note_off", "time": 258, "note": 67, "velocity": 97, "channel": 0}, {"type": "note_on", "time": 79, "note": 65, "velocity": 116, "channel": 0}, {"type": "note_off", "time": 72, "note": 65, "velocity": 116, "channel": 0}, {"type": "note_on", "time": 19, "note": 61, "velocity": 104, "channel": 0}, {"type": "note_off", "time": 151, "note": 61, "velocity": 104, "channel": 0}, {"type": "note_on", "time": 7, "note": 58, "velocity": 103, "channel": 0}, {"type": "note_off", "time": 92, "note": 58, "velocity": 103, "channel": 0}, {"type": "note_on", "time": 74, "note": 58, "velocity": 97, "channel": 0}, {"type": "note_off", "time": 201, "note": 58, "velocity": 97, "channel": 0}, {"type": "note_on", "time": 395, "note": 80, "velocity": 125, "channel": 0}, {"type": "note_off", "time": 122, "note": 80, "velocity": 125, "channel": 0}, {"type": "note_on", "time": 35, "note": 80, "velocity": 124, "channel": 0}, {"type": "note_off", "time": 101, "note": 80, "velocity": 124, "channel": 0}, {"type": "note_on", "time": 28, "note": 80, "velocity": 126, "channel": 0}, {"type": "note_off", "time": 38, "note": 80, "velocity": 126, "channel": 0}, {"type": "note_on", "time": 31, "note": 80, "velocity": 89, "channel": 0}, {"type": "note_off", "time": 101, "note": 80, "velocity": 89, "channel": 0}, {"type": "note_on", "time": 105, "note": 80, "velocity": 71, "channel": 0}, {"type": "note_off", "time": 49, "note": 80, "velocity": 71, "channel": 0}, {"type": "note_on", "time": 24, "note": 81, "velocity": 115, "channel": 0}, {"type": "note_off", "time": 28, "note": 81, "velocity": 115, "channel": 0}, {"type": "note_on", "time": 28, "note": 82, "velocity": 105, "channel": 0}, {"type": "note_off", "time": 101, "note": 82, "velocity": 105, "channel": 0}, {"type": "note_on", "time": 0, "note": 80, "velocity": 114, "channel": 0}, {"type": "note_off", "time": 73, "note": 80, "velocity": 114, "channel": 0}, {"type": "note_on", "time": 45, "note": 80, "velocity": 111, "channel": 0}, {"type": "note_off", "time": 98, "note": 80, "velocity": 111, "channel": 0}, {"type": "note_on", "time": 154, "note": 80, "velocity": 118, "channel": 0}, {"type": "note_off", "time": 147, "note": 80, "velocity": 118, "channel": 0}, {"type": "note_on", "time": 52, "note": 80, "velocity": 120, "channel": 0}, {"type": "note_off", "time": 91, "note": 80, "velocity": 120, "channel": 0}, {"type": "note_on", "time": 84, "note": 80, "velocity": 119, "channel": 0}, {"type": "note_off", "time": 171, "note": 80, "velocity": 119, "channel": 0}, {"type": "note_on", "time": 52, "note": 80, "velocity": 108, "channel": 0}, {"type": "note_off", "time": 105, "note": 80, "velocity": 108, "channel": 0}, {"type": "note_on", "time": 45, "note": 80, "velocity": 118, "channel": 0}, {"type": "note_off", "time": 199, "note": 80, "velocity": 118, "channel": 0}, {"type": "note_on", "time": 3, "note": 77, "velocity": 116, "channel": 0}, {"type": "note_off", "time": 126, "note": 77, "velocity": 116, "channel": 0}, {"type": "note_on", "time": 10, "note": 73, "velocity": 116, "channel": 0}, {"type": "note_off", "time": 70, "note": 73, "velocity": 116, "channel": 0}, {"type": "note_on", "time": 93, "note": 71, "velocity": 89, "channel": 0}, {"type": "note_off", "time": 297, "note": 71, "velocity": 89, "channel": 0}, {"type": "note_on", "time": 358, "note": 80, "velocity": 116, "channel": 0}, {"type": "note_off", "time": 70, "note": 80, "velocity": 116, "channel": 0}, {"type": "note_on", "time": 45, "note": 80, "velocity": 118, "channel": 0}, {"type": "note_off", "time": 80, "note": 80, "velocity": 118, "channel": 0}, {"type": "note_on", "time": 17, "note": 77, "velocity": 122, "channel": 0}, {"type": "note_off", "time": 77, "note": 77, "velocity": 122, "channel": 0}, {"type": "note_on", "time": 24, "note": 77, "velocity": 121, "channel": 0}, {"type": "note_off", "time": 73, "note": 77, "velocity": 121, "channel": 0}, {"type": "note_on", "time": 3, "note": 75, "velocity": 124, "channel": 0}, {"type": "note_off", "time": 84, "note": 75, "velocity": 124, "channel": 0}, {"type": "note_on", "time": 35, "note": 75, "velocity": 122, "channel": 0}, {"type": "note_off", "time": 84, "note": 75, "velocity": 122, "channel": 0}, {"type": "note_on", "time": 0, "note": 74, "velocity": 120, "channel": 0}, {"type": "note_off", "time": 70, "note": 74, "velocity": 120, "channel": 0}, {"type": "note_on", "time": 52, "note": 74, "velocity": 120, "channel": 0}, {"type": "note_off", "time": 56, "note": 74, "velocity": 120, "channel": 0}, {"type": "note_on", "time": 0, "note": 72, "velocity": 121, "channel": 0}, {"type": "note_off", "time": 70, "note": 72, "velocity": 121, "channel": 0}, {"type": "note_on", "time": 28, "note": 72, "velocity": 117, "channel": 0}, {"type": "note_off", "time": 101, "note": 72, "velocity": 117, "channel": 0}, {"type": "note_on", "time": 14, "note": 70, "velocity": 116, "channel": 0}, {"type": "note_off", "time": 59, "note": 70, "velocity": 116, "channel": 0}, {"type": "note_on", "time": 31, "note": 70, "velocity": 118, "channel": 0}, {"type": "note_off", "time": 70, "note": 70, "velocity": 118, "channel": 0}, {"type": "note_on", "time": 7, "note": 69, "velocity": 117, "channel": 0}, {"type": "note_off", "time": 94, "note": 69, "velocity": 117, "channel": 0}, {"type": "note_on", "time": 28, "note": 69, "velocity": 119, "channel": 0}, {"type": "note_off", "time": 52, "note": 69, "velocity": 119, "channel": 0}, {"type": "note_on", "time": 10, "note": 68, "velocity": 117, "channel": 0}, {"type": "note_off", "time": 91, "note": 68, "velocity": 117, "channel": 0}, {"type": "note_on", "time": 45, "note": 68, "velocity": 118, "channel": 0}, {"type": "note_off", "time": 66, "note": 68, "velocity": 118, "channel": 0}, {"type": "note_on", "time": 3, "note": 65, "velocity": 117, "channel": 0}, {"type": "note_off", "time": 70, "note": 65, "velocity": 117, "channel": 0}, {"type": "note_on", "time": 29, "note": 64, "velocity": 116, "channel": 0}, {"type": "note_off", "time": 77, "note": 64, "velocity": 116, "channel": 0}, {"type": "note_on", "time": 12, "note": 63, "velocity": 111, "channel": 0}, {"type": "note_off", "time": 70, "note": 63, "velocity": 111, "channel": 0}, {"type": "note_on", "time": 19, "note": 62, "velocity": 113, "channel": 0}, {"type": "note_off", "time": 114, "note": 62, "velocity": 113, "channel": 0}, {"type": "note_on", "time": 93, "note": 65, "velocity": 117, "channel": 0}, {"type": "note_off", "time": 231, "note": 65, "velocity": 117, "channel": 0}, {"type": "note_on", "time": 48, "note": 63, "velocity": 115, "channel": 0}, {"type": "note_off", "time": 91, "note": 63, "velocity": 115, "channel": 0}, {"type": "note_on", "time": 0, "note": 62, "velocity": 104, "channel": 0}, {"type": "note_off", "time": 252, "note": 62, "velocity": 104, "channel": 0}, {"type": "note_on", "time": 460, "note": 63, "velocity": 108, "channel": 0}, {"type": "note_off", "time": 94, "note": 63, "velocity": 108, "channel": 0}, {"type": "note_on", "time": 14, "note": 68, "velocity": 122, "channel": 0}, {"type": "note_off", "time": 112, "note": 68, "velocity": 122, "channel": 0}, {"type": "note_on", "time": 12, "note": 72, "velocity": 114, "channel": 0}, {"type": "note_off", "time": 99, "note": 72, "velocity": 114, "channel": 0}, {"type": "note_on", "time": 82, "note": 75, "velocity": 127, "channel": 0}, {"type": "note_off", "time": 99, "note": 75, "velocity": 127, "channel": 0}, {"type": "note_on", "time": 79, "note": 74, "velocity": 121, "channel": 0}, {"type": "note_off", "time": 139, "note": 74, "velocity": 121, "channel": 0}, {"type": "note_on", "time": 57, "note": 73, "velocity": 122, "channel": 0}, {"type": "note_off", "time": 116, "note": 73, "velocity": 122, "channel": 0}, {"type": "note_on", "time": 97, "note": 72, "velocity": 116, "channel": 0}, {"type": "note_off", "time": 472, "note": 72, "velocity": 116, "channel": 0}, {"type": "note_on", "time": 32, "note": 70, "velocity": 120, "channel": 0}, {"type": "note_off", "time": 139, "note": 70, "velocity": 120, "channel": 0}, {"type": "note_on", "time": 2, "note": 69, "velocity": 118, "channel": 0}, {"type": "note_off", "time": 109, "note": 69, "velocity": 118, "channel": 0}, {"type": "note_on", "time": 4, "note": 70, "velocity": 120, "channel": 0}, {"type": "note_off", "time": 174, "note": 70, "velocity": 120, "channel": 0}, {"type": "note_on", "time": 0, "note": 73, "velocity": 97, "channel": 0}, {"type": "note_off", "time": 37, "note": 73, "velocity": 97, "channel": 0}, {"type": "note_on", "time": 14, "note": 77, "velocity": 113, "channel": 0}, {"type": "note_off", "time": 119, "note": 77, "velocity": 113, "channel": 0}, {"type": "note_on", "time": 69, "note": 65, "velocity": 113, "channel": 0}, {"type": "note_off", "time": 604, "note": 65, "velocity": 113, "channel": 0}, {"type": "note_on", "time": 278, "note": 80, "velocity": 121, "channel": 0}, {"type": "note_off", "time": 201, "note": 80, "velocity": 121, "channel": 0}, {"type": "note_on", "time": 52, "note": 79, "velocity": 110, "channel": 0}, {"type": "note_off", "time": 136, "note": 79, "velocity": 110, "channel": 0}, {"type": "note_on", "time": 14, "note": 77, "velocity": 109, "channel": 0}, {"type": "note_off", "time": 89, "note": 77, "velocity": 109, "channel": 0}, {"type": "note_on", "time": 24, "note": 76, "velocity": 123, "channel": 0}, {"type": "note_off", "time": 89, "note": 76, "velocity": 123, "channel": 0}, {"type": "note_on", "time": 4, "note": 73, "velocity": 115, "channel": 0}, {"type": "note_off", "time": 57, "note": 73, "velocity": 115, "channel": 0}, {"type": "note_on", "time": 7, "note": 70, "velocity": 111, "channel": 0}, {"type": "note_off", "time": 84, "note": 70, "velocity": 111, "channel": 0}, {"type": "note_on", "time": 14, "note": 69, "velocity": 119, "channel": 0}, {"type": "note_off", "time": 89, "note": 69, "velocity": 119, "channel": 0}, {"type": "note_on", "time": 9, "note": 67, "velocity": 120, "channel": 0}, {"type": "note_off", "time": 72, "note": 67, "velocity": 120, "channel": 0}, {"type": "note_on", "time": 12, "note": 63, "velocity": 110, "channel": 0}, {"type": "note_off", "time": 104, "note": 63, "velocity": 110, "channel": 0}, {"type": "note_on", "time": 102, "note": 58, "velocity": 107, "channel": 0}, {"type": "note_off", "time": 109, "note": 58, "velocity": 107, "channel": 0}, {"type": "note_on", "time": 59, "note": 56, "velocity": 107, "channel": 0}, {"type": "note_off", "time": 248, "note": 56, "velocity": 107, "channel": 0}, {"type": "note_on", "time": 36, "note": 60, "velocity": 107, "channel": 0}, {"type": "note_off", "time": 112, "note": 60, "velocity": 107, "channel": 0}, {"type": "note_on", "time": 3, "note": 63, "velocity": 120, "channel": 0}, {"type": "note_off", "time": 101, "note": 63, "velocity": 120, "channel": 0}, {"type": "note_on", "time": 3, "note": 65, "velocity": 114, "channel": 0}, {"type": "note_off", "time": 105, "note": 65, "velocity": 114, "channel": 0}, {"type": "note_on", "time": 10, "note": 68, "velocity": 115, "channel": 0}, {"type": "note_off", "time": 70, "note": 68, "velocity": 115, "channel": 0}, {"type": "note_on", "time": 7, "note": 72, "velocity": 116, "channel": 0}, {"type": "note_off", "time": 115, "note": 72, "velocity": 116, "channel": 0}, {"type": "note_on", "time": 56, "note": 63, "velocity": 109, "channel": 0}, {"type": "note_off", "time": 125, "note": 63, "velocity": 109, "channel": 0}, {"type": "note_on", "time": 0, "note": 68, "velocity": 114, "channel": 0}, {"type": "note_off", "time": 343, "note": 68, "velocity": 114, "channel": 0}, {"type": "end_of_track", "time": 0}]]}