{"ticks_per_beat": 192, "tracks": [[{"type": "track_name", "name": "Melody", "time": 0}, {"type": "set_tempo", "tempo": 266666, "time": 0}, {"type": "key_signature", "key": "Ab", "time": 0}, {"type": "time_signature", "numerator": 4, "denominator": 4, "clocks_per_click": 24, "notated_32nd_notes_per_beat": 8, "time": 0}, {"type": "note_on", "time": 888, "note": 63, "velocity": 105, "channel": 0}, {"type": "note_off", "time": 73, "note": 63, "velocity": 105, "channel": 0}, {"type": "note_on", "time": 10, "note": 65, "velocity": 100, "channel": 0}, {"type": "note_off", "time": 98, "note": 65, "velocity": 100, "channel": 0}, {"type": "note_on", "time": 68, "note": 68, "velocity": 113, "channel": 0}, {"type": "note_off", "time": 121, "note": 68, "velocity": 113, "channel": 0}, {"type": "note_on", "time": 10, "note": 67, "velocity": 107, "channel": 0}, {"type": "note_off", "time": 75, "note": 67, "velocity": 107, "channel": 0}, {"type": "note_on", "time": 14, "note": 65, "velocity": 110, "channel": 0}, {"type": "note_off", "time": 100, "note": 65, "velocity": 110, "channel": 0}, {"type": "note_on", "time": 2, "note": 64, "velocity": 111, "channel": 0}, {"type": "note_off", "time": 100, "note": 64, "velocity": 111, "channel": 0}, {"type": "note_on", "time": 0, "note": 63, "velocity": 111, "channel": 0}, {"type": "note_off", "time": 75, "note": 63, "velocity": 111, "channel": 0}, {"type": "note_on", "time": 33, "note": 61, "velocity": 93, "channel": 0}, {"type": "note_off", "time": 104, "note": 61, "velocity": 93, "channel": 0}, {"type": "note_on", "time": 41, "note": 61, "velocity": 101, "channel": 0}, {"type": "note_off", "time": 81, "note": 61, "velocity": 101, "channel": 0}, {"type": "note_on", "time": 8, "note": 63, "velocity": 112, "channel": 0}, {"type": "note_off", "time": 119, "note": 63, "velocity": 112, "channel": 0}, {"type": "note_on", "time": 23, "note": 60, "velocity": 92, "channel": 0}, {"type": "note_off", "time": 48, "note": 60, "velocity": 92, "channel": 0}, {"type": "note_on", "time": 8, "note": 61, "velocity": 107, "channel": 0}, {"type": "note_off", "time": 117, "note": 61, "velocity": 107, "channel": 0}, {"type": "note_on", "time": 10, "note": 63, "velocity": 90, "channel": 0}, {"type": "note_off", "time": 323, "note": 63, "velocity": 90, "channel": 0}, {"type": "note_on", "time": 823, "note": 60, "velocity": 100, "channel": 0}, {"type": "note_off", "time": 79, "note": 60, "velocity": 100, "channel": 0}, {"type": "note_on", "time": 1, "note": 67, "velocity": 115, "channel": 0}, {"type": "note_off", "time": 96, "note": 67, "velocity": 115, "channel": 0}, {"type": "note_on", "time": 5, "note": 65, "velocity": 114, "channel": 0}, {"type": "note_off", "time": 91, "note": 65, "velocity": 114, "channel": 0}, {"type": "note_on", "time": 1, "note": 62, "velocity": 105, "channel": 0}, {"type": "note_off", "time": 96, "note": 62, "velocity": 105, "channel": 0}, {"type": "note_on", "time": 23, "note": 58, "velocity": 85, "channel": 0}, {"type": "note_off", "time": 48, "note": 58, "velocity": 85, "channel": 0}, {"type": "note_on", "time": 12, "note": 60, "velocity": 96, "channel": 0}, {"type": "note_off", "time": 198, "note": 60, "velocity": 96, "channel": 0}, {"type": "note_on", "time": 1080, "note": 58, "velocity": 98, "channel": 0}, {"type": "note_off", "time": 33, "note": 58, "velocity": 98, "channel": 0}, {"type": "note_on", "time": 3, "note": 61, "velocity": 110, "channel": 0}, {"type": "note_off", "time": 37, "note": 61, "velocity": 110, "channel": 0}, {"type": "note_on", "time": 5, "note": 65, "velocity": 110, "channel": 0}, {"type": "note_off", "time": 85, "note": 65, "velocity": 110, "channel": 0}, {"type": "note_on", "time": 2, "note": 69, "velocity": 96, "channel": 0}, {"type": "note_off", "time": 35, "note": 69, "velocity": 96, "channel": 0}, {"type": "note_on", "time": 2, "note": 73, "velocity": 94, "channel": 0}, {"type": "note_off", "time": 71, "note": 73, "velocity": 94, "channel": 0}, {"type": "note_on", "time": 1, "note": 75, "velocity": 123, "channel": 0}, {"type": "note_off", "time": 102, "note": 75, "velocity": 123, "channel": 0}, {"type": "note_on", "time": 8, "note": 74, "velocity": 117, "channel": 0}, {"type": "note_off", "time": 71, "note": 74, "velocity": 117, "channel": 0}, {"type": "note_on", "time": 5, "note": 73, "velocity": 119, "channel": 0}, {"type": "note_off", "time": 125, "note": 73, "velocity": 119, "channel": 0}, {"type": "note_on", "time": 8, "note": 72, "velocity": 120, "channel": 0}, {"type": "note_off", "time": 62, "note": 72, "velocity": 120, "channel": 0}, {"type": "note_on", "time": 8, "note": 70, "velocity": 112, "channel": 0}, {"type": "note_off", "time": 96, "note": 70, "velocity": 112, "channel": 0}, {"type": "note_on", "time": 10, "note": 69, "velocity": 116, "channel": 0}, {"type": "note_off", "time": 86, "note": 69, "velocity": 116, "channel": 0}, {"type": "note_on", "time": 13, "note": 68, "velocity": 113, "channel": 0}, {"type": "note_off", "time": 76, "note": 68, "velocity": 113, "channel": 0}, {"type": "note_on", "time": 5, "note": 67, "velocity": 114, "channel": 0}, {"type": "note_off", "time": 81, "note": 67, "velocity": 114, "channel": 0}, {"type": "note_on", "time": 8, "note": 66, "velocity": 115, "channel": 0}, {"type": "note_off", "time": 81, "note": 66, "velocity": 115, "channel": 0}, {"type": "note_on", "time": 23, "note": 65, "velocity": 115, "channel": 0}, {"type": "note_off", "time": 85, "note": 65, "velocity": 115, "channel": 0}, {"type": "note_on", "time": 8, "note": 64, "velocity": 109, "channel": 0}, {"type": "note_off", "time": 104, "note": 64, "velocity": 109, "channel": 0}, {"type": "note_on", "time": 19, "note": 61, "velocity": 96, "channel": 0}, {"type": "note_off", "time": 63, "note": 61, "velocity": 96, "channel": 0}, {"type": "note_on", "time": 8, "note": 63, "velocity": 104, "channel": 0}, {"type": "note_off", "time": 148, "note": 63, "velocity": 104, "channel": 0}, {"type": "note_on", "time": 355, "note": 61, "velocity": 106, "channel": 0}, {"type": "note_off", "time": 119, "note": 61, "velocity": 106, "channel": 0}, {"type": "note_on", "time": 12, "note": 60, "velocity": 84, "channel": 0}, {"type": "note_off", "time": 75, "note": 60, "velocity": 84, "channel": 0}, {"type": "note_on", "time": 440, "note": 70, "velocity": 119, "channel": 0}, {"type": "note_off", "time": 123, "note": 70, "velocity": 119, "channel": 0}, {"type": "note_on", "time": 0, "note": 66, "velocity": 112, "channel": 0}, {"type": "note_off", "time": 96, "note": 66, "velocity": 112, "channel": 0}, {"type": "note_on", "time": 6, "note": 63, "velocity": 94, "channel": 0}, {"type": "note_off", "time": 112, "note": 63, "velocity": 94, "channel": 0}, {"type": "note_on", "time": 56, "note": 68, "velocity": 115, "channel": 0}, {"type": "note_off", "time": 135, "note": 68, "velocity": 115, "channel": 0}, {"type": "note_on", "time": 6, "note": 64, "velocity": 92, "channel": 0}, {"type": "note_off", "time": 43, "note": 64, "velocity": 92, "channel": 0}, {"type": "note_on", "time": 35, "note": 65, "velocity": 101, "channel": 0}, {"type": "note_off", "time": 56, "note": 65, "velocity": 101, "channel": 0}, {"type": "note_on", "time": 0, "note": 68, "velocity": 105, "channel": 0}, {"type": "note_off", "time": 54, "note": 68, "velocity": 105, "channel": 0}, {"type": "note_on", "time": 16, "note": 72, "velocity": 91, "channel": 0}, {"type": "note_off", "time": 38, "note": 72, "velocity": 91, "channel": 0}, {"type": "note_on", "time": 10, "note": 75, "velocity": 122, "channel": 0}, {"type": "note_off", "time": 119, "note": 75, "velocity": 122, "channel": 0}, {"type": "note_on", "time": 33, "note": 73, "velocity": 101, "channel": 0}, {"type": "note_off", "time": 324, "note": 73, "velocity": 101, "channel": 0}, {"type": "note_on", "time": 212, "note": 78, "velocity": 124, "channel": 0}, {"type": "note_off", "time": 108, "note": 78, "velocity": 124, "channel": 0}, {"type": "note_on", "time": 10, "note": 76, "velocity": 123, "channel": 0}, {"type": "note_off", "time": 64, "note": 76, "velocity": 123, "channel": 0}, {"type": "note_on", "time": 26, "note": 68, "velocity": 99, "channel": 0}, {"type": "note_off", "time": 73, "note": 68, "velocity": 99, "channel": 0}, {"type": "note_on", "time": 7, "note": 71, "velocity": 112, "channel": 0}, {"type": "note_off", "time": 100, "note": 71, "velocity": 112, "channel": 0}, {"type": "note_on", "time": 4, "note": 75, "velocity": 121, "channel": 0}, {"type": "note_off", "time": 94, "note": 75, "velocity": 121, "channel": 0}, {"type": "note_on", "time": 6, "note": 73, "velocity": 120, "channel": 0}, {"type": "note_off", "time": 148, "note": 73, "velocity": 120, "channel": 0}, {"type": "note_on", "time": 327, "note": 70, "velocity": 121, "channel": 0}, {"type": "note_off", "time": 79, "note": 70, "velocity": 121, "channel": 0}, {"type": "note_on", "time": 6, "note": 72, "velocity": 124, "channel": 0}, {"type": "note_off", "time": 142, "note": 72, "velocity": 124, "channel": 0}, {"type": "note_on", "time": 54, "note": 75, "velocity": 119, "channel": 0}, {"type": "note_off", "time": 96, "note": 75, "velocity": 119, "channel": 0}, {"type": "note_on", "time": 8, "note": 73, "velocity": 118, "channel": 0}, {"type": "note_off", "time": 68, "note": 73, "velocity": 118, "channel": 0}, {"type": "note_on", "time": 13, "note": 72, "velocity": 122, "channel": 0}, {"type": "note_off", "time": 105, "note": 72, "velocity": 122, "channel": 0}, {"type": "note_on", "time": 3, "note": 70, "velocity": 120, "channel": 0}, {"type": "note_off", "time": 81, "note": 70, "velocity": 120, "channel": 0}, {"type": "note_on", "time": 6, "note": 69, "velocity": 120, "channel": 0}, {"type": "note_off", "time": 107, "note": 69, "velocity": 120, "channel": 0}, {"type": "note_on", "time": 85, "note": 63, "velocity": 104, "channel": 0}, {"type": "note_off", "time": 140, "note": 63, "velocity": 104, "channel": 0}, {"type": "note_on", "time": 54, "note": 65, "velocity": 122, "channel": 0}, {"type": "note_off", "time": 77, "note": 65, "velocity": 122, "channel": 0}, {"type": "note_on", "time": 5, "note": 67, "velocity": 110, "channel": 0}, {"type": "note_off", "time": 48, "note": 67, "velocity": 110, "channel": 0}, {"type": "note_on", "time": 8, "note": 66, "velocity": 116, "channel": 0}, {"type": "note_off", "time": 62, "note": 66, "velocity": 116, "channel": 0}, {"type": "note_on", "time": 13, "note": 65, "velocity": 115, "channel": 0}, {"type": "note_off", "time": 70, "note": 65, "velocity": 115, "channel": 0}, {"type": "note_on", "time": 20, "note": 63, "velocity": 114, "channel": 0}, {"type": "note_off", "time": 68, "note": 63, "velocity": 114, "channel": 0}, {"type": "note_on", "time": 14, "note": 62, "velocity": 103, "channel": 0}, {"type": "note_off", "time": 98, "note": 62, "velocity": 103, "channel": 0}, {"type": "note_on", "time": 22, "note": 65, "velocity": 101, "channel": 0}, {"type": "note_off", "time": 66, "note": 65, "velocity": 101, "channel": 0}, {"type": "note_on", "time": 14, "note": 68, "velocity": 116, "channel": 0}, {"type": "note_off", "time": 96, "note": 68, "velocity": 116, "channel": 0}, {"type": "note_on", "time": 3, "note": 72, "velocity": 104, "channel": 0}, {"type": "note_off", "time": 68, "note": 72, "velocity": 104, "channel": 0}, {"type": "note_on", "time": 45, "note": 66, "velocity": 112, "channel": 0}, {"type": "note_off", "time": 81, "note": 66, "velocity": 112, "channel": 0}, {"type": "note_on", "time": 9, "note": 67, "velocity": 110, "channel": 0}, {"type": "note_off", "time": 82, "note": 67, "velocity": 110, "channel": 0}, {"type": "note_on", "time": 0, "note": 70, "velocity": 106, "channel": 0}, {"type": "note_off", "time": 121, "note": 70, "velocity": 106, "channel": 0}, {"type": "note_on", "time": 8, "note": 67, "velocity": 100, "channel": 0}, {"type": "note_off", "time": 50, "note": 67, "velocity": 100, "channel": 0}, {"type": "note_on", "time": 12, "note": 68, "velocity": 117, "channel": 0}, {"type": "note_off", "time": 91, "note": 68, "velocity": 117, "channel": 0}, {"type": "note_on", "time": 13, "note": 65, "velocity": 109, "channel": 0}, {"type": "note_off", "time": 146, "note": 65, "velocity": 109, "channel": 0}, {"type": "note_on", "time": 626, "note": 58, "velocity": 102, "channel": 0}, {"type": "note_off", "time": 45, "note": 58, "velocity": 102, "channel": 0}, {"type": "note_on", "time": 5, "note": 61, "velocity": 101, "channel": 0}, {"type": "note_off", "time": 33, "note": 61, "velocity": 101, "channel": 0}, {"type": "note_on", "time": 3, "note": 65, "velocity": 117, "channel": 0}, {"type": "note_off", "time": 91, "note": 65, "velocity": 117, "channel": 0}, {"type": "note_on", "time": 7, "note": 68, "velocity": 116, "channel": 0}, {"type": "note_off", "time": 71, "note": 68, "velocity": 116, "channel": 0}, {"type": "note_on", "time": 2, "note": 67, "velocity": 116, "channel": 0}, {"type": "note_off", "time": 96, "note": 67, "velocity": 116, "channel": 0}, {"type": "note_on", "time": 10, "note": 65, "velocity": 119, "channel": 0}, {"type": "note_off", "time": 80, "note": 65, "velocity": 119, "channel": 0}, {"type": "note_on", "time": 14, "note": 63, "velocity": 101, "channel": 0}, {"type": "note_off", "time": 61, "note": 63, "velocity": 101, "channel": 0}, {"type": "note_on", "time": 55, "note": 58, "velocity": 96, "channel": 0}, {"type": "note_off", "time": 48, "note": 58, "velocity": 96, "channel": 0}, {"type": "note_on", "time": 8, "note": 66, "velocity": 122, "channel": 0}, {"type": "note_off", "time": 91, "note": 66, "velocity": 122, "channel": 0}, {"type": "note_on", "time": 16, "note": 65, "velocity": 115, "channel": 0}, {"type": "note_off", "time": 72, "note": 65, "velocity": 115, "channel": 0}, {"type": "note_on", "time": 15, "note": 64, "velocity": 112, "channel": 0}, {"type": "note_off", "time": 148, "note": 64, "velocity": 112, "channel": 0}, {"type": "note_on", "time": 173, "note": 59, "velocity": 97, "channel": 0}, {"type": "note_off", "time": 89, "note": 59, "velocity": 97, "channel": 0}, {"type": "note_on", "time": 14, "note": 61, "velocity": 100, "channel": 0}, {"type": "note_off", "time": 77, "note": 61, "velocity": 100, "channel": 0}, {"type": "note_on", "time": 4, "note": 64, "velocity": 118, "channel": 0}, {"type": "note_off", "time": 68, "note": 64, "velocity": 118, "channel": 0}, {"type": "note_on", "time": 15, "note": 63, "velocity": 109, "channel": 0}, {"type": "note_off", "time": 94, "note": 63, "velocity": 109, "channel": 0}, {"type": "note_on", "time": 22, "note": 61, "velocity": 110, "channel": 0}, {"type": "note_off", "time": 66, "note": 61, "velocity": 110, "channel": 0}, {"type": "note_on", "time": 3, "note": 60, "velocity": 100, "channel": 0}, {"type": "note_off", "time": 77, "note": 60, "velocity": 100, "channel": 0}, {"type": "note_on", "time": 12, "note": 58, "velocity": 102, "channel": 0}, {"type": "note_off", "time": 73, "note": 58, "velocity": 102, "channel": 0}, {"type": "note_on", "time": 14, "note": 57, "velocity": 96, "channel": 0}, {"type": "note_off", "time": 96, "note": 57, "velocity": 96, "channel": 0}, {"type": "note_on", "time": 21, "note": 60, "velocity": 95, "channel": 0}, {"type": "note_off", "time": 62, "note": 60, "velocity": 95, "channel": 0}, {"type": "note_on", "time": 12, "note": 63, "velocity": 114, "channel": 0}, {"type": "note_off", "time": 103, "note": 63, "velocity": 114, "channel": 0}, {"type": "note_on", "time": 15, "note": 61, "velocity": 88, "channel": 0}, {"type": "note_off", "time": 65, "note": 61, "velocity": 88, "channel": 0}, {"type": "note_on", "time": 8, "note": 66, "velocity": 118, "channel": 0}, {"type": "note_off", "time": 114, "note": 66, "velocity": 118, "channel": 0}, {"type": "note_on", "time": 17, "note": 65, "velocity": 110, "channel": 0}, {"type": "note_off", "time": 98, "note": 65, "velocity": 110, "channel": 0}, {"type": "note_on", "time": 11, "note": 63, "velocity": 104, "channel": 0}, {"type": "note_off", "time": 74, "note": 63, "velocity": 104, "channel": 0}, {"type": "note_on", "time": 15, "note": 60, "velocity": 91, "channel": 0}, {"type": "note_off", "time": 48, "note": 60, "velocity": 91, "channel": 0}, {"type": "note_on", "time": 6, "note": 67, "velocity": 118, "channel": 0}, {"type": "note_off", "time": 131, "note": 67, "velocity": 118, "channel": 0}, {"type": "note_on", "time": 0, "note": 65, "velocity": 114, "channel": 0}, {"type": "note_off", "time": 73, "note": 65, "velocity": 114, "channel": 0}, {"type": "note_on", "time": 3, "note": 61, "velocity": 102, "channel": 0}, {"type": "note_off", "time": 38, "note": 61, "velocity": 102, "channel": 0}, {"type": "note_on", "time": 1, "note": 62, "velocity": 102, "channel": 0}, {"type": "note_off", "time": 81, "note": 62, "velocity": 102, "channel": 0}, {"type": "note_on", "time": 9, "note": 58, "velocity": 87, "channel": 0}, {"type": "note_off", "time": 50, "note": 58, "velocity": 87, "channel": 0}, {"type": "note_on", "time": 4, "note": 60, "velocity": 85, "channel": 0}, {"type": "note_off", "time": 332, "note": 60, "velocity": 85, "channel": 0}, {"type": "note_on", "time": 969, "note": 67, "velocity": 121, "channel": 0}, {"type": "note_off", "time": 117, "note": 67, "velocity": 121, "channel": 0}, {"type": "note_on", "time": 2, "note": 65, "velocity": 117, "channel": 0}, {"type": "note_off", "time": 68, "note": 65, "velocity": 117, "channel": 0}, {"type": "note_on", "time": 12, "note": 63, "velocity": 96, "channel": 0}, {"type": "note_off", "time": 68, "note": 63, "velocity": 96, "channel": 0}, {"type": "note_on", "time": 3, "note": 67, "velocity": 100, "channel": 0}, {"type": "note_off", "time": 45, "note": 67, "velocity": 100, "channel": 0}, {"type": "note_on", "time": 13, "note": 70, "velocity": 101, "channel": 0}, {"type": "note_off", "time": 47, "note": 70, "velocity": 101, "channel": 0}, {"type": "note_on", "time": 5, "note": 73, "velocity": 127, "channel": 0}, {"type": "note_off", "time": 144, "note": 73, "velocity": 127, "channel": 0}, {"type": "note_on", "time": 4, "note": 72, "velocity": 117, "channel": 0}, {"type": "note_off", "time": 261, "note": 72, "velocity": 117, "channel": 0}, {"type": "note_on", "time": 16, "note": 70, "velocity": 108, "channel": 0}, {"type": "note_off", "time": 41, "note": 70, "velocity": 108, "channel": 0}, {"type": "note_on", "time": 4, "note": 72, "velocity": 104, "channel": 0}, {"type": "note_off", "time": 30, "note": 72, "velocity": 104, "channel": 0}, {"type": "note_on", "time": 5, "note": 70, "velocity": 109, "channel": 0}, {"type": "note_off", "time": 34, "note": 70, "velocity": 109, "channel": 0}, {"type": "note_on", "time": 4, "note": 68, "velocity": 118, "channel": 0}, {"type": "note_off", "time": 65, "note": 68, "velocity": 118, "channel": 0}, {"type": "note_on", "time": 4, "note": 67, "velocity": 114, "channel": 0}, {"type": "note_off", "time": 91, "note": 67, "velocity": 114, "channel": 0}, {"type": "note_on", "time": 16, "note": 65, "velocity": 114, "channel": 0}, {"type": "note_off", "time": 71, "note": 65, "velocity": 114, "channel": 0}, {"type": "note_on", "time": 9, "note": 64, "velocity": 111, "channel": 0}, {"type": "note_off", "time": 95, "note": 64, "velocity": 111, "channel": 0}, {"type": "note_on", "time": 15, "note": 55, "velocity": 101, "channel": 0}, {"type": "note_off", "time": 87, "note": 55, "velocity": 101, "channel": 0}, {"type": "note_on", "time": 4, "note": 58, "velocity": 92, "channel": 0}, {"type": "note_off", "time": 62, "note": 58, "velocity": 92, "channel": 0}, {"type": "note_on", "time": 10, "note": 61, "velocity": 111, "channel": 0}, {"type": "note_off", "time": 89, "note": 61, "velocity": 111, "channel": 0}, {"type": "note_on", "time": 17, "note": 60, "velocity": 103, "channel": 0}, {"type": "note_off", "time": 77, "note": 60, "velocity": 103, "channel": 0}, {"type": "note_on", "time": 10, "note": 58, "velocity": 92, "channel": 0}, {"type": "note_off", "time": 71, "note": 58, "velocity": 92, "channel": 0}, {"type": "note_on", "time": 10, "note": 56, "velocity": 102, "channel": 0}, {"type": "note_off", "time": 108, "note": 56, "velocity": 102, "channel": 0}, {"type": "note_on", "time": 70, "note": 72, "velocity": 116, "channel": 0}, {"type": "note_off", "time": 102, "note": 72, "velocity": 116, "channel": 0}, {"type": "note_on", "time": 12, "note": 70, "velocity": 109, "channel": 0}, {"type": "note_off", "time": 75, "note": 70, "velocity": 109, "channel": 0}, {"type": "note_on", "time": 6, "note": 68, "velocity": 114, "channel": 0}, {"type": "note_off", "time": 104, "note": 68, "velocity": 114, "channel": 0}, {"type": "note_on", "time": 6, "note": 66, "velocity": 110, "channel": 0}, {"type": "note_off", "time": 75, "note": 66, "velocity": 110, "channel": 0}, {"type": "note_on", "time": 10, "note": 64, "velocity": 101, "channel": 0}, {"type": "note_off", "time": 85, "note": 64, "velocity": 101, "channel": 0}, {"type": "note_on", "time": 34, "note": 58, "velocity": 94, "channel": 0}, {"type": "note_off", "time": 67, "note": 58, "velocity": 94, "channel": 0}, {"type": "note_on", "time": 0, "note": 61, "velocity": 106, "channel": 0}, {"type": "note_off", "time": 106, "note": 61, "velocity": 106, "channel": 0}, {"type": "note_on", "time": 2, "note": 64, "velocity": 114, "channel": 0}, {"type": "note_off", "time": 77, "note": 64, "velocity": 114, "channel": 0}, {"type": "note_on", "time": 7, "note": 63, "velocity": 109, "channel": 0}, {"type": "note_off", "time": 108, "note": 63, "velocity": 109, "channel": 0}, {"type": "note_on", "time": 12, "note": 61, "velocity": 108, "channel": 0}, {"type": "note_off", "time": 89, "note": 61, "velocity": 108, "channel": 0}, {"type": "note_on", "time": 8, "note": 60, "velocity": 97, "channel": 0}, {"type": "note_off", "time": 83, "note": 60, "velocity": 97, "channel": 0}, {"type": "note_on", "time": 9, "note": 63, "velocity": 101, "channel": 0}, {"type": "note_off", "time": 67, "note": 63, "velocity": 101, "channel": 0}, {"type": "note_on", "time": 4, "note": 65, "velocity": 102, "channel": 0}, {"type": "note_off", "time": 112, "note": 65, "velocity": 102, "channel": 0}, {"type": "note_on", "time": 4, "note": 67, "velocity": 102, "channel": 0}, {"type": "note_off", "time": 77, "note": 67, "velocity": 102, "channel": 0}, {"type": "note_on", "time": 1, "note": 70, "velocity": 116, "channel": 0}, {"type": "note_off", "time": 117, "note": 70, "velocity": 116, "channel": 0}, {"type": "note_on", "time": 13, "note": 68, "velocity": 116, "channel": 0}, {"type": "note_off", "time": 83, "note": 68, "velocity": 116, "channel": 0}, {"type": "note_on", "time": 15, "note": 67, "velocity": 111, "channel": 0}, {"type": "note_off", "time": 77, "note": 67, "velocity": 111, "channel": 0}, {"type": "note_on", "time": 10, "note": 65, "velocity": 111, "channel": 0}, {"type": "note_off", "time": 83, "note": 65, "velocity": 111, "channel": 0}, {"type": "note_on", "time": 1, "note": 64, "velocity": 107, "channel": 0}, {"type": "note_off", "time": 96, "note": 64, "velocity": 107, "channel": 0}, {"type": "note_on", "time": 20, "note": 55, "velocity": 83, "channel": 0}, {"type": "note_off", "time": 62, "note": 55, "velocity": 83, "channel": 0}, {"type": "note_on", "time": 4, "note": 58, "velocity": 95, "channel": 0}, {"type": "note_off", "time": 102, "note": 58, "velocity": 95, "channel": 0}, {"type": "note_on", "time": 12, "note": 61, "velocity": 110, "channel": 0}, {"type": "note_off", "time": 77, "note": 61, "velocity": 110, "channel": 0}, {"type": "note_on", "time": 35, "note": 58, "velocity": 88, "channel": 0}, {"type": "note_off", "time": 66, "note": 58, "velocity": 88, "channel": 0}, {"type": "note_on", "time": 16, "note": 55, "velocity": 92, "channel": 0}, {"type": "note_off", "time": 60, "note": 55, "velocity": 92, "channel": 0}, {"type": "note_on", "time": 16, "note": 60, "velocity": 108, "channel": 0}, {"type": "note_off", "time": 112, "note": 60, "velocity": 108, "channel": 0}, {"type": "note_on", "time": 29, "note": 55, "velocity": 95, "channel": 0}, {"type": "note_off", "time": 37, "note": 55, "velocity": 95, "channel": 0}, {"type": "note_on", "time": 10, "note": 58, "velocity": 97, "channel": 0}, {"type": "note_off", "time": 81, "note": 58, "velocity": 97, "channel": 0}, {"type": "note_on", "time": 18, "note": 55, "velocity": 99, "channel": 0}, {"type": "note_off", "time": 60, "note": 55, "velocity": 99, "channel": 0}, {"type": "note_on", "time": 10, "note": 56, "velocity": 107, "channel": 0}, {"type": "note_off", "time": 94, "note": 56, "velocity": 107, "channel": 0}, {"type": "note_on", "time": 8, "note": 53, "velocity": 92, "channel": 0}, {"type": "note_off", "time": 292, "note": 53, "velocity": 92, "channel": 0}, {"type": "note_on", "time": 1044, "note": 59, "velocity": 101, "channel": 0}, {"type": "note_off", "time": 90, "note": 59, "velocity": 101, "channel": 0}, {"type": "note_on", "time": 4, "note": 60, "velocity": 97, "channel": 0}, {"type": "note_off", "time": 44, "note": 60, "velocity": 97, "channel": 0}, {"type": "note_on", "time": 2, "note": 63, "velocity": 98, "channel": 0}, {"type": "note_off", "time": 50, "note": 63, "velocity": 98, "channel": 0}, {"type": "note_on", "time": 6, "note": 67, "velocity": 99, "channel": 0}, {"type": "note_off", "time": 64, "note": 67, "velocity": 99, "channel": 0}, {"type": "note_on", "time": 22, "note": 68, "velocity": 113, "channel": 0}, {"type": "note_off", "time": 154, "note": 68, "velocity": 113, "channel": 0}, {"type": "note_on", "time": 57, "note": 67, "velocity": 94, "channel": 0}, {"type": "note_off", "time": 57, "note": 67, "velocity": 94, "channel": 0}, {"type": "note_on", "time": 2, "note": 68, "velocity": 103, "channel": 0}, {"type": "note_off", "time": 44, "note": 68, "velocity": 103, "channel": 0}, {"type": "note_on", "time": 6, "note": 68, "velocity": 121, "channel": 0}, {"type": "note_off", "time": 55, "note": 68, "velocity": 121, "channel": 0}, {"type": "note_on", "time": 9, "note": 67, "velocity": 100, "channel": 0}, {"type": "note_off", "time": 45, "note": 67, "velocity": 100, "channel": 0}, {"type": "note_on", "time": 6, "note": 68, "velocity": 88, "channel": 0}, {"type": "note_off", "time": 43, "note": 68, "velocity": 88, "channel": 0}, {"type": "note_on", "time": 10, "note": 67, "velocity": 98, "channel": 0}, {"type": "note_off", "time": 54, "note": 67, "velocity": 98, "channel": 0}, {"type": "note_on", "time": 47, "note": 68, "velocity": 116, "channel": 0}, {"type": "note_off", "time": 179, "note": 68, "velocity": 116, "channel": 0}, {"type": "note_on", "time": 288, "note": 59, "velocity": 94, "channel": 0}, {"type": "note_off", "time": 98, "note": 59, "velocity": 94, "channel": 0}, {"type": "note_on", "time": 15, "note": 60, "velocity": 86, "channel": 0}, {"type": "note_off", "time": 61, "note": 60, "velocity": 86, "channel": 0}, {"type": "note_on", "time": 9, "note": 63, "velocity": 94, "channel": 0}, {"type": "note_off", "time": 28, "note": 63, "velocity": 94, "channel": 0}, {"type": "note_on", "time": 11, "note": 67, "velocity": 101, "channel": 0}, {"type": "note_off", "time": 43, "note": 67, "velocity": 101, "channel": 0}, {"type": "note_on", "time": 9, "note": 68, "velocity": 117, "channel": 0}, {"type": "note_off", "time": 104, "note": 68, "velocity": 117, "channel": 0}, {"type": "note_on", "time": 40, "note": 63, "velocity": 96, "channel": 0}, {"type": "note_off", "time": 58, "note": 63, "velocity": 96, "channel": 0}, {"type": "note_on", "time": 12, "note": 67, "velocity": 105, "channel": 0}, {"type": "note_off", "time": 62, "note": 67, "velocity": 105, "channel": 0}, {"type": "note_on", "time": 8, "note": 68, "velocity": 106, "channel": 0}, {"type": "note_off", "time": 36, "note": 68, "velocity": 106, "channel": 0}, {"type": "note_on", "time": 8, "note": 68, "velocity": 118, "channel": 0}, {"type": "note_off", "time": 66, "note": 68, "velocity": 118, "channel": 0}, {"type": "note_on", "time": 17, "note": 67, "velocity": 103, "channel": 0}, {"type": "note_off", "time": 43, "note": 67, "velocity": 103, "channel": 0}, {"type": "note_on", "time": 2, "note": 68, "velocity": 93, "channel": 0}, {"type": "note_off", "time": 42, "note": 68, "velocity": 93, "channel": 0}, {"type": "note_on", "time": 11, "note": 67, "velocity": 102, "channel": 0}, {"type": "note_off", "time": 70, "note": 67, "velocity": 102, "channel": 0}, {"type": "note_on", "time": 9, "note": 68, "velocity": 113, "channel": 0}, {"type": "note_off", "time": 146, "note": 68, "velocity": 113, "channel": 0}, {"type": "note_on", "time": 246, "note": 59, "velocity": 97, "channel": 0}, {"type": "note_off", "time": 45, "note": 59, "velocity": 97, "channel": 0}, {"type": "note_on", "time": 5, "note": 60, "velocity": 93, "channel": 0}, {"type": "note_off", "time": 52, "note": 60, "velocity": 93, "channel": 0}, {"type": "note_on", "time": 53, "note": 67, "velocity": 99, "channel": 0}, {"type": "note_off", "time": 42, "note": 67, "velocity": 99, "channel": 0}, {"type": "note_on", "time": 6, "note": 68, "velocity": 116, "channel": 0}, {"type": "note_off", "time": 103, "note": 68, "velocity": 116, "channel": 0}, {"type": "note_on", "time": 86, "note": 67, "velocity": 106, "channel": 0}, {"type": "note_off", "time": 85, "note": 67, "velocity": 106, "channel": 0}, {"type": "note_on", "time": 26, "note": 68, "velocity": 118, "channel": 0}, {"type": "note_off", "time": 93, "note": 68, "velocity": 118, "channel": 0}, {"type": "note_on", "time": 2, "note": 67, "velocity": 100, "channel": 0}, {"type": "note_off", "time": 52, "note": 67, "velocity": 100, "channel": 0}, {"type": "note_on", "time": 5, "note": 68, "velocity": 98, "channel": 0}, {"type": "note_off", "time": 61, "note": 68, "velocity": 98, "channel": 0}, {"type": "note_on", "time": 4, "note": 67, "velocity": 101, "channel": 0}, {"type": "note_off", "time": 23, "note": 67, "velocity": 101, "channel": 0}, {"type": "note_on", "time": 30, "note": 67, "velocity": 116, "channel": 0}, {"type": "note_off", "time": 25, "note": 67, "velocity": 116, "channel": 0}, {"type": "note_on", "time": 2, "note": 68, "velocity": 116, "channel": 0}, {"type": "note_off", "time": 59, "note": 68, "velocity": 116, "channel": 0}, {"type": "note_on", "time": 8, "note": 67, "velocity": 109, "channel": 0}, {"type": "note_off", "time": 53, "note": 67, "velocity": 109, "channel": 0}, {"type": "note_on", "time": 12, "note": 65, "velocity": 111, "channel": 0}, {"type": "note_off", "time": 119, "note": 65, "velocity": 111, "channel": 0}, {"type": "note_on", "time": 16, "note": 64, "velocity": 118, "channel": 0}, {"type": "note_off", "time": 62, "note": 64, "velocity": 118, "channel": 0}, {"type": "note_on", "time": 16, "note": 63, "velocity": 101, "channel": 0}, {"type": "note_off", "time": 117, "note": 63, "velocity": 101, "channel": 0}, {"type": "note_on", "time": 22, "note": 61, "velocity": 105, "channel": 0}, {"type": "note_off", "time": 27, "note": 61, "velocity": 105, "channel": 0}, {"type": "note_on", "time": 20, "note": 60, "velocity": 99, "channel": 0}, {"type": "note_off", "time": 91, "note": 60, "velocity": 99, "channel": 0}, {"type": "note_on", "time": 25, "note": 58, "velocity": 95, "channel": 0}, {"type": "note_off", "time": 66, "note": 58, "velocity": 95, "channel": 0}, {"type": "note_on", "time": 10, "note": 57, "velocity": 97, "channel": 0}, {"type": "note_off", "time": 91, "note": 57, "velocity": 97, "channel": 0}, {"type": "note_on", "time": 6, "note": 66, "velocity": 108, "channel": 0}, {"type": "note_off", "time": 131, "note": 66, "velocity": 108, "channel": 0}, {"type": "note_on", "time": 66, "note": 64, "velocity": 102, "channel": 0}, {"type": "note_off", "time": 50, "note": 64, "velocity": 102, "channel": 0}, {"type": "note_on", "time": 16, "note": 65, "velocity": 114, "channel": 0}, {"type": "note_off", "time": 135, "note": 65, "velocity": 114, "channel": 0}, {"type": "note_on", "time": 7, "note": 62, "velocity": 97, "channel": 0}, {"type": "note_off", "time": 54, "note": 62, "velocity": 97, "channel": 0}, {"type": "note_on", "time": 25, "note": 58, "velocity": 88, "channel": 0}, {"type": "note_off", "time": 98, "note": 58, "velocity": 88, "channel": 0}, {"type": "note_on", "time": 14, "note": 56, "velocity": 96, "channel": 0}, {"type": "note_off", "time": 66, "note": 56, "velocity": 96, "channel": 0}, {"type": "note_on", "time": 14, "note": 60, "velocity": 84, "channel": 0}, {"type": "note_off", "time": 261, "note": 60, "velocity": 84, "channel": 0}, {"type": "note_on", "time": 975, "note": 58, "velocity": 103, "channel": 0}, {"type": "note_off", "time": 50, "note": 58, "velocity": 103, "channel": 0}, {"type": "note_on", "time": 3, "note": 61, "velocity": 103, "channel": 0}, {"type": "note_off", "time": 27, "note": 61, "velocity": 103, "channel": 0}, {"type": "note_on", "time": 5, "note": 65, "velocity": 109, "channel": 0}, {"type": "note_off", "time": 71, "note": 65, "velocity": 109, "channel": 0}, {"type": "note_on", "time": 8, "note": 68, "velocity": 106, "channel": 0}, {"type": "note_off", "time": 40, "note": 68, "velocity": 106, "channel": 0}, {"type": "note_on", "time": 4, "note": 72, "velocity": 98, "channel": 0}, {"type": "note_off", "time": 42, "note": 72, "velocity": 98, "channel": 0}, {"type": "note_on", "time": 16, "note": 75, "velocity": 121, "channel": 0}, {"type": "note_off", "time": 100, "note": 75, "velocity": 121, "channel": 0}, {"type": "note_on", "time": 3, "note": 74, "velocity": 120, "channel": 0}, {"type": "note_off", "time": 71, "note": 74, "velocity": 120, "channel": 0}, {"type": "note_on", "time": 5, "note": 73, "velocity": 124, "channel": 0}, {"type": "note_off", "time": 104, "note": 73, "velocity": 124, "channel": 0}, {"type": "note_on", "time": 18, "note": 72, "velocity": 123, "channel": 0}, {"type": "note_off", "time": 77, "note": 72, "velocity": 123, "channel": 0}, {"type": "note_on", "time": 6, "note": 70, "velocity": 114, "channel": 0}, {"type": "note_off", "time": 56, "note": 70, "velocity": 114, "channel": 0}, {"type": "note_on", "time": 4, "note": 69, "velocity": 118, "channel": 0}, {"type": "note_off", "time": 108, "note": 69, "velocity": 118, "channel": 0}, {"type": "note_on", "time": 2, "note": 68, "velocity": 117, "channel": 0}, {"type": "note_off", "time": 104, "note": 68, "velocity": 117, "channel": 0}, {"type": "note_on", "time": 5, "note": 67, "velocity": 112, "channel": 0}, {"type": "note_off", "time": 87, "note": 67, "velocity": 112, "channel": 0}, {"type": "note_on", "time": 4, "note": 66, "velocity": 116, "channel": 0}, {"type": "note_off", "time": 96, "note": 66, "velocity": 116, "channel": 0}, {"type": "note_on", "time": 8, "note": 65, "velocity": 117, "channel": 0}, {"type": "note_off", "time": 104, "note": 65, "velocity": 117, "channel": 0}, {"type": "note_on", "time": 0, "note": 64, "velocity": 116, "channel": 0}, {"type": "note_off", "time": 71, "note": 64, "velocity": 116, "channel": 0}, {"type": "note_on", "time": 12, "note": 61, "velocity": 96, "channel": 0}, {"type": "note_off", "time": 77, "note": 61, "velocity": 96, "channel": 0}, {"type": "note_on", "time": 10, "note": 63, "velocity": 118, "channel": 0}, {"type": "note_off", "time": 91, "note": 63, "velocity": 118, "channel": 0}, {"type": "note_on", "time": 37, "note": 61, "velocity": 88, "channel": 0}, {"type": "note_off", "time": 35, "note": 61, "velocity": 88, "channel": 0}, {"type": "note_on", "time": 17, "note": 60, "velocity": 83, "channel": 0}, {"type": "note_off", "time": 71, "note": 60, "velocity": 83, "channel": 0}, {"type": "note_on", "time": 5, "note": 63, "velocity": 94, "channel": 0}, {"type": "note_off", "time": 60, "note": 63, "velocity": 94, "channel": 0}, {"type": "note_on", "time": 0, "note": 67, "velocity": 100, "channel": 0}, {"type": "note_off", "time": 60, "note": 67, "velocity": 100, "channel": 0}, {"type": "note_on", "time": 0, "note": 70, "velocity": 114, "channel": 0}, {"type": "note_off", "time": 96, "note": 70, "velocity": 114, "channel": 0}, {"type": "note_on", "time": 2, "note": 66, "velocity": 111, "channel": 0}, {"type": "note_off", "time": 83, "note": 66, "velocity": 111, "channel": 0}, {"type": "note_on", "time": 15, "note": 63, "velocity": 93, "channel": 0}, {"type": "note_off", "time": 100, "note": 63, "velocity": 93, "channel": 0}, {"type": "note_on", "time": 11, "note": 58, "velocity": 87, "channel": 0}, {"type": "note_off", "time": 60, "note": 58, "velocity": 87, "channel": 0}, {"type": "note_on", "time": 6, "note": 61, "velocity": 101, "channel": 0}, {"type": "note_off", "time": 108, "note": 61, "velocity": 101, "channel": 0}, {"type": "note_on", "time": 85, "note": 60, "velocity": 99, "channel": 0}, {"type": "note_off", "time": 106, "note": 60, "velocity": 99, "channel": 0}, {"type": "note_on", "time": 16, "note": 65, "velocity": 113, "channel": 0}, {"type": "note_off", "time": 96, "note": 65, "velocity": 113, "channel": 0}, {"type": "note_on", "time": 6, "note": 64, "velocity": 105, "channel": 0}, {"type": "note_off", "time": 51, "note": 64, "velocity": 105, "channel": 0}, {"type": "note_on", "time": 41, "note": 60, "velocity": 74, "channel": 0}, {"type": "note_off", "time": 48, "note": 60, "velocity": 74, "channel": 0}, {"type": "note_on", "time": 9, "note": 68, "velocity": 115, "channel": 0}, {"type": "note_off", "time": 117, "note": 68, "velocity": 115, "channel": 0}, {"type": "note_on", "time": 5, "note": 66, "velocity": 117, "channel": 0}, {"type": "note_off", "time": 87, "note": 66, "velocity": 117, "channel": 0}, {"type": "note_on", "time": 9, "note": 65, "velocity": 114, "channel": 0}, {"type": "note_off", "time": 57, "note": 65, "velocity": 114, "channel": 0}, {"type": "note_on", "time": 20, "note": 63, "velocity": 86, "channel": 0}, {"type": "note_off", "time": 41, "note": 63, "velocity": 86, "channel": 0}, {"type": "note_on", "time": 154, "note": 60, "velocity": 96, "channel": 0}, {"type": "note_off", "time": 73, "note": 60, "velocity": 96, "channel": 0}, {"type": "note_on", "time": 1, "note": 63, "velocity": 111, "channel": 0}, {"type": "note_off", "time": 121, "note": 63, "velocity": 111, "channel": 0}, {"type": "note_on", "time": 7, "note": 60, "velocity": 95, "channel": 0}, {"type": "note_off", "time": 50, "note": 60, "velocity": 95, "channel": 0}, {"type": "note_on", "time": 20, "note": 61, "velocity": 111, "channel": 0}, {"type": "note_off", "time": 94, "note": 61, "velocity": 111, "channel": 0}, {"type": "note_on", "time": 19, "note": 64, "velocity": 93, "channel": 0}, {"type": "note_off", "time": 338, "note": 64, "velocity": 93, "channel": 0}, {"type": "note_on", "time": 868, "note": 71, "velocity": 122, "channel": 0}, {"type": "note_off", "time": 104, "note": 71, "velocity": 122, "channel": 0}, {"type": "note_on", "time": 15, "note": 72, "velocity": 105, "channel": 0}, {"type": "note_off", "time": 56, "note": 72, "velocity": 105, "channel": 0}, {"type": "note_on", "time": 5, "note": 75, "velocity": 118, "channel": 0}, {"type": "note_off", "time": 89, "note": 75, "velocity": 118, "channel": 0}, {"type": "note_on", "time": 39, "note": 78, "velocity": 123, "channel": 0}, {"type": "note_off", "time": 117, "note": 78, "velocity": 123, "channel": 0}, {"type": "note_on", "time": 3, "note": 79, "velocity": 121, "channel": 0}, {"type": "note_off", "time": 123, "note": 79, "velocity": 121, "channel": 0}, {"type": "note_on", "time": 23, "note": 77, "velocity": 122, "channel": 0}, {"type": "note_off", "time": 63, "note": 77, "velocity": 122, "channel": 0}, {"type": "note_on", "time": 7, "note": 76, "velocity": 119, "channel": 0}, {"type": "note_off", "time": 98, "note": 76, "velocity": 119, "channel": 0}, {"type": "note_on", "time": 2, "note": 75, "velocity": 116, "channel": 0}, {"type": "note_off", "time": 131, "note": 75, "velocity": 116, "channel": 0}, {"type": "note_on", "time": 9, "note": 73, "velocity": 118, "channel": 0}, {"type": "note_off", "time": 75, "note": 73, "velocity": 118, "channel": 0}, {"type": "note_on", "time": 8, "note": 72, "velocity": 115, "channel": 0}, {"type": "note_off", "time": 51, "note": 72, "velocity": 115, "channel": 0}, {"type": "note_on", "time": 7, "note": 70, "velocity": 111, "channel": 0}, {"type": "note_off", "time": 96, "note": 70, "velocity": 111, "channel": 0}, {"type": "note_on", "time": 19, "note": 69, "velocity": 118, "channel": 0}, {"type": "note_off", "time": 91, "note": 69, "velocity": 118, "channel": 0}, {"type": "note_on", "time": 97, "note": 63, "velocity": 90, "channel": 0}, {"type": "note_off", "time": 95, "note": 63, "velocity": 90, "channel": 0}, {"type": "note_on", "time": 13, "note": 60, "velocity": 90, "channel": 0}, {"type": "note_off", "time": 52, "note": 60, "velocity": 90, "channel": 0}, {"type": "note_on", "time": 12, "note": 66, "velocity": 120, "channel": 0}, {"type": "note_off", "time": 98, "note": 66, "velocity": 120, "channel": 0}, {"type": "note_on", "time": 6, "note": 67, "velocity": 113, "channel": 0}, {"type": "note_off", "time": 58, "note": 67, "velocity": 113, "channel": 0}, {"type": "note_on", "time": 0, "note": 66, "velocity": 114, "channel": 0}, {"type": "note_off", "time": 41, "note": 66, "velocity": 114, "channel": 0}, {"type": "note_on", "time": 16, "note": 65, "velocity": 113, "channel": 0}, {"type": "note_off", "time": 91, "note": 65, "velocity": 113, "channel": 0}, {"type": "note_on", "time": 6, "note": 63, "velocity": 114, "channel": 0}, {"type": "note_off", "time": 62, "note": 63, "velocity": 114, "channel": 0}, {"type": "note_on", "time": 14, "note": 62, "velocity": 101, "channel": 0}, {"type": "note_off", "time": 96, "note": 62, "velocity": 101, "channel": 0}, {"type": "note_on", "time": 89, "note": 68, "velocity": 114, "channel": 0}, {"type": "note_off", "time": 96, "note": 68, "velocity": 114, "channel": 0}, {"type": "note_on", "time": 10, "note": 72, "velocity": 108, "channel": 0}, {"type": "note_off", "time": 83, "note": 72, "velocity": 108, "channel": 0}, {"type": "note_on", "time": 20, "note": 65, "velocity": 112, "channel": 0}, {"type": "note_off", "time": 85, "note": 65, "velocity": 112, "channel": 0}, {"type": "note_on", "time": 5, "note": 67, "velocity": 107, "channel": 0}, {"type": "note_off", "time": 66, "note": 67, "velocity": 107, "channel": 0}, {"type": "note_on", "time": 7, "note": 70, "velocity": 111, "channel": 0}, {"type": "note_off", "time": 112, "note": 70, "velocity": 111, "channel": 0}, {"type": "note_on", "time": 9, "note": 67, "velocity": 94, "channel": 0}, {"type": "note_off", "time": 47, "note": 67, "velocity": 94, "channel": 0}, {"type": "note_on", "time": 22, "note": 68, "velocity": 114, "channel": 0}, {"type": "note_off", "time": 158, "note": 68, "velocity": 114, "channel": 0}, {"type": "note_on", "time": 328, "note": 58, "velocity": 101, "channel": 0}, {"type": "note_off", "time": 79, "note": 58, "velocity": 101, "channel": 0}, {"type": "note_on", "time": 0, "note": 60, "velocity": 101, "channel": 0}, {"type": "note_off", "time": 131, "note": 60, "velocity": 101, "channel": 0}, {"type": "note_on", "time": 12, "note": 61, "velocity": 96, "channel": 0}, {"type": "note_off", "time": 194, "note": 61, "velocity": 96, "channel": 0}, {"type": "note_on", "time": 221, "note": 66, "velocity": 119, "channel": 0}, {"type": "note_off", "time": 114, "note": 66, "velocity": 119, "channel": 0}, {"type": "note_on", "time": 6, "note": 65, "velocity": 117, "channel": 0}, {"type": "note_off", "time": 59, "note": 65, "velocity": 117, "channel": 0}, {"type": "note_on", "time": 9, "note": 64, "velocity": 112, "channel": 0}, {"type": "note_off", "time": 94, "note": 64, "velocity": 112, "channel": 0}, {"type": "note_on", "time": 22, "note": 61, "velocity": 99, "channel": 0}, {"type": "note_off", "time": 64, "note": 61, "velocity": 99, "channel": 0}, {"type": "note_on", "time": 6, "note": 63, "velocity": 112, "channel": 0}, {"type": "note_off", "time": 108, "note": 63, "velocity": 112, "channel": 0}, {"type": "note_on", "time": 14, "note": 60, "velocity": 101, "channel": 0}, {"type": "note_off", "time": 119, "note": 60, "velocity": 101, "channel": 0}, {"type": "note_on", "time": 809, "note": 60, "velocity": 98, "channel": 0}, {"type": "note_off", "time": 62, "note": 60, "velocity": 98, "channel": 0}, {"type": "note_on", "time": 19, "note": 67, "velocity": 118, "channel": 0}, {"type": "note_off", "time": 83, "note": 67, "velocity": 118, "channel": 0}, {"type": "note_on", "time": 19, "note": 65, "velocity": 115, "channel": 0}, {"type": "note_off", "time": 87, "note": 65, "velocity": 115, "channel": 0}, {"type": "note_on", "time": 19, "note": 63, "velocity": 109, "channel": 0}, {"type": "note_off", "time": 71, "note": 63, "velocity": 109, "channel": 0}, {"type": "note_on", "time": 14, "note": 61, "velocity": 110, "channel": 0}, {"type": "note_off", "time": 87, "note": 61, "velocity": 110, "channel": 0}, {"type": "note_on", "time": 6, "note": 60, "velocity": 101, "channel": 0}, {"type": "note_off", "time": 79, "note": 60, "velocity": 101, "channel": 0}, {"type": "note_on", "time": 20, "note": 58, "velocity": 93, "channel": 0}, {"type": "note_off", "time": 75, "note": 58, "velocity": 93, "channel": 0}, {"type": "note_on", "time": 12, "note": 57, "velocity": 86, "channel": 0}, {"type": "note_off", "time": 83, "note": 57, "velocity": 86, "channel": 0}, {"type": "note_on", "time": 4, "note": 60, "velocity": 97, "channel": 0}, {"type": "note_off", "time": 83, "note": 60, "velocity": 97, "channel": 0}, {"type": "note_on", "time": 3, "note": 63, "velocity": 114, "channel": 0}, {"type": "note_off", "time": 89, "note": 63, "velocity": 114, "channel": 0}, {"type": "note_on", "time": 13, "note": 66, "velocity": 116, "channel": 0}, {"type": "note_off", "time": 81, "note": 66, "velocity": 116, "channel": 0}, {"type": "note_on", "time": 8, "note": 65, "velocity": 108, "channel": 0}, {"type": "note_off", "time": 110, "note": 65, "velocity": 108, "channel": 0}, {"type": "note_on", "time": 2, "note": 63, "velocity": 103, "channel": 0}, {"type": "note_off", "time": 66, "note": 63, "velocity": 103, "channel": 0}, {"type": "note_on", "time": 2, "note": 62, "velocity": 98, "channel": 0}, {"type": "note_off", "time": 104, "note": 62, "velocity": 98, "channel": 0}, {"type": "note_on", "time": 0, "note": 67, "velocity": 104, "channel": 0}, {"type": "note_off", "time": 131, "note": 67, "velocity": 104, "channel": 0}, {"type": "note_on", "time": 881, "note": 67, "velocity": 118, "channel": 0}, {"type": "note_off", "time": 108, "note": 67, "velocity": 118, "channel": 0}, {"type": "note_on", "time": 10, "note": 65, "velocity": 109, "channel": 0}, {"type": "note_off", "time": 67, "note": 65, "velocity": 109, "channel": 0}, {"type": "note_on", "time": 11, "note": 64, "velocity": 95, "channel": 0}, {"type": "note_off", "time": 47, "note": 64, "velocity": 95, "channel": 0}, {"type": "note_on", "time": 4, "note": 67, "velocity": 98, "channel": 0}, {"type": "note_off", "time": 58, "note": 67, "velocity": 98, "channel": 0}, {"type": "note_on", "time": 2, "note": 70, "velocity": 94, "channel": 0}, {"type": "note_off", "time": 66, "note": 70, "velocity": 94, "channel": 0}, {"type": "note_on", "time": 1, "note": 72, "velocity": 124, "channel": 0}, {"type": "note_off", "time": 94, "note": 72, "velocity": 124, "channel": 0}, {"type": "note_on", "time": 3, "note": 73, "velocity": 112, "channel": 0}, {"type": "note_off", "time": 112, "note": 73, "velocity": 112, "channel": 0}, {"type": "note_on", "time": 17, "note": 67, "velocity": 104, "channel": 0}, {"type": "note_off", "time": 69, "note": 67, "velocity": 104, "channel": 0}, {"type": "note_on", "time": 16, "note": 71, "velocity": 9, "channel": 0}, {"type": "note_off", "time": 149, "note": 71, "velocity": 9, "channel": 0}, {"type": "note_on", "time": 6, "note": 72, "velocity": 125, "channel": 0}, {"type": "note_off", "time": 116, "note": 72, "velocity": 125, "channel": 0}, {"type": "note_on", "time": 7, "note": 70, "velocity": 115, "channel": 0}, {"type": "note_off", "time": 96, "note": 70, "velocity": 115, "channel": 0}, {"type": "note_on", "time": 31, "note": 67, "velocity": 100, "channel": 0}, {"type": "note_off", "time": 56, "note": 67, "velocity": 100, "channel": 0}, {"type": "note_on", "time": 7, "note": 68, "velocity": 119, "channel": 0}, {"type": "note_off", "time": 108, "note": 68, "velocity": 119, "channel": 0}, {"type": "note_on", "time": 11, "note": 65, "velocity": 114, "channel": 0}, {"type": "note_off", "time": 154, "note": 65, "velocity": 114, "channel": 0}, {"type": "note_on", "time": 1352, "note": 59, "velocity": 102, "channel": 0}, {"type": "note_off", "time": 73, "note": 59, "velocity": 102, "channel": 0}, {"type": "note_on", "time": 20, "note": 60, "velocity": 101, "channel": 0}, {"type": "note_off", "time": 33, "note": 60, "velocity": 101, "channel": 0}, {"type": "note_on", "time": 9, "note": 63, "velocity": 99, "channel": 0}, {"type": "note_off", "time": 39, "note": 63, "velocity": 99, "channel": 0}, {"type": "note_on", "time": 2, "note": 67, "velocity": 100, "channel": 0}, {"type": "note_off", "time": 58, "note": 67, "velocity": 100, "channel": 0}, {"type": "note_on", "time": 3, "note": 70, "velocity": 125, "channel": 0}, {"type": "note_off", "time": 114, "note": 70, "velocity": 125, "channel": 0}, {"type": "note_on", "time": 11, "note": 68, "velocity": 123, "channel": 0}, {"type": "note_off", "time": 54, "note": 68, "velocity": 123, "channel": 0}, {"type": "note_on", "time": 6, "note": 67, "velocity": 118, "channel": 0}, {"type": "note_off", "time": 114, "note": 67, "velocity": 118, "channel": 0}, {"type": "note_on", "time": 5, "note": 65, "velocity": 118, "channel": 0}, {"type": "note_off", "time": 58, "note": 65, "velocity": 118, "channel": 0}, {"type": "note_on", "time": 14, "note": 64, "velocity": 108, "channel": 0}, {"type": "note_off", "time": 106, "note": 64, "velocity": 108, "channel": 0}, {"type": "note_on", "time": 12, "note": 55, "velocity": 93, "channel": 0}, {"type": "note_off", "time": 73, "note": 55, "velocity": 93, "channel": 0}, {"type": "note_on", "time": 14, "note": 58, "velocity": 88, "channel": 0}, {"type": "note_off", "time": 73, "note": 58, "velocity": 88, "channel": 0}, {"type": "note_on", "time": 18, "note": 61, "velocity": 117, "channel": 0}, {"type": "note_off", "time": 104, "note": 61, "velocity": 117, "channel": 0}, {"type": "note_on", "time": 8, "note": 58, "velocity": 95, "channel": 0}, {"type": "note_off", "time": 64, "note": 58, "velocity": 95, "channel": 0}, {"type": "note_on", "time": 13, "note": 55, "velocity": 92, "channel": 0}, {"type": "note_off", "time": 61, "note": 55, "velocity": 92, "channel": 0}, {"type": "note_on", "time": 4, "note": 60, "velocity": 113, "channel": 0}, {"type": "note_off", "time": 127, "note": 60, "velocity": 113, "channel": 0}, {"type": "note_on", "time": 8, "note": 55, "velocity": 101, "channel": 0}, {"type": "note_off", "time": 54, "note": 55, "velocity": 101, "channel": 0}, {"type": "note_on", "time": 18, "note": 58, "velocity": 101, "channel": 0}, {"type": "note_off", "time": 106, "note": 58, "velocity": 101, "channel": 0}, {"type": "note_on", "time": 14, "note": 55, "velocity": 98, "channel": 0}, {"type": "note_off", "time": 56, "note": 55, "velocity": 98, "channel": 0}, {"type": "note_on", "time": 14, "note": 56, "velocity": 109, "channel": 0}, {"type": "note_off", "time": 98, "note": 56, "velocity": 109, "channel": 0}, {"type": "note_on", "time": 14, "note": 53, "velocity": 104, "channel": 0}, {"type": "note_off", "time": 149, "note": 53, "velocity": 104, "channel": 0}, {"type": "note_on", "time": 407, "note": 58, "velocity": 108, "channel": 0}, {"type": "note_off", "time": 53, "note": 58, "velocity": 108, "channel": 0}, {"type": "note_on", "time": 12, "note": 59, "velocity": 98, "channel": 0}, {"type": "note_off", "time": 59, "note": 59, "velocity": 98, "channel": 0}, {"type": "note_on", "time": 9, "note": 61, "velocity": 97, "channel": 0}, {"type": "note_off", "time": 37, "note": 61, "velocity": 97, "channel": 0}, {"type": "note_on", "time": 4, "note": 67, "velocity": 106, "channel": 0}, {"type": "note_off", "time": 77, "note": 67, "velocity": 106, "channel": 0}, {"type": "note_on", "time": 20, "note": 70, "velocity": 116, "channel": 0}, {"type": "note_off", "time": 106, "note": 70, "velocity": 116, "channel": 0}, {"type": "note_on", "time": 10, "note": 68, "velocity": 116, "channel": 0}, {"type": "note_off", "time": 68, "note": 68, "velocity": 116, "channel": 0}, {"type": "note_on", "time": 8, "note": 67, "velocity": 117, "channel": 0}, {"type": "note_off", "time": 89, "note": 67, "velocity": 117, "channel": 0}, {"type": "note_on", "time": 5, "note": 65, "velocity": 119, "channel": 0}, {"type": "note_off", "time": 96, "note": 65, "velocity": 119, "channel": 0}, {"type": "note_on", "time": 8, "note": 63, "velocity": 109, "channel": 0}, {"type": "note_off", "time": 87, "note": 63, "velocity": 109, "channel": 0}, {"type": "note_on", "time": 4, "note": 60, "velocity": 106, "channel": 0}, {"type": "note_off", "time": 28, "note": 60, "velocity": 106, "channel": 0}, {"type": "note_on", "time": 5, "note": 61, "velocity": 104, "channel": 0}, {"type": "note_off", "time": 80, "note": 61, "velocity": 104, "channel": 0}, {"type": "note_on", "time": 14, "note": 60, "velocity": 100, "channel": 0}, {"type": "note_off", "time": 60, "note": 60, "velocity": 100, "channel": 0}, {"type": "note_on", "time": 14, "note": 58, "velocity": 96, "channel": 0}, {"type": "note_off", "time": 73, "note": 58, "velocity": 96, "channel": 0}, {"type": "note_on", "time": 9, "note": 57, "velocity": 102, "channel": 0}, {"type": "note_off", "time": 76, "note": 57, "velocity": 102, "channel": 0}, {"type": "note_on", "time": 12, "note": 66, "velocity": 119, "channel": 0}, {"type": "note_off", "time": 101, "note": 66, "velocity": 119, "channel": 0}, {"type": "note_on", "time": 61, "note": 63, "velocity": 91, "channel": 0}, {"type": "note_off", "time": 41, "note": 63, "velocity": 91, "channel": 0}, {"type": "note_on", "time": 12, "note": 64, "velocity": 106, "channel": 0}, {"type": "note_off", "time": 37, "note": 64, "velocity": 106, "channel": 0}, {"type": "note_on", "time": 16, "note": 65, "velocity": 123, "channel": 0}, {"type": "note_off", "time": 117, "note": 65, "velocity": 123, "channel": 0}, {"type": "note_on", "time": 6, "note": 61, "velocity": 103, "channel": 0}, {"type": "note_off", "time": 68, "note": 61, "velocity": 103, "channel": 0}, {"type": "note_on", "time": 8, "note": 58, "velocity": 91, "channel": 0}, {"type": "note_off", "time": 110, "note": 58, "velocity": 91, "channel": 0}, {"type": "note_on", "time": 8, "note": 56, "velocity": 101, "channel": 0}, {"type": "note_off", "time": 39, "note": 56, "velocity": 101, "channel": 0}, {"type": "note_on", "time": 31, "note": 55, "velocity": 104, "channel": 0}, {"type": "note_off", "time": 98, "note": 55, "velocity": 104, "channel": 0}, {"type": "note_on", "time": 8, "note": 64, "velocity": 124, "channel": 0}, {"type": "note_off", "time": 87, "note": 64, "velocity": 124, "channel": 0}, {"type": "note_on", "time": 0, "note": 61, "velocity": 100, "channel": 0}, {"type": "note_off", "time": 96, "note": 61, "velocity": 100, "channel": 0}, {"type": "note_on", "time": 10, "note": 62, "velocity": 103, "channel": 0}, {"type": "note_off", "time": 81, "note": 62, "velocity": 103, "channel": 0}, {"type": "note_on", "time": 6, "note": 63, "velocity": 115, "channel": 0}, {"type": "note_off", "time": 150, "note": 63, "velocity": 115, "channel": 0}, {"type": "note_on", "time": 64, "note": 60, "velocity": 94, "channel": 0}, {"type": "note_off", "time": 71, "note": 60, "velocity": 94, "channel": 0}, {"type": "note_on", "time": 75, "note": 67, "velocity": 112, "channel": 0}, {"type": "note_off", "time": 25, "note": 67, "velocity": 112, "channel": 0}, {"type": "note_on", "time": 2, "note": 70, "velocity": 120, "channel": 0}, {"type": "note_off", "time": 110, "note": 70, "velocity": 120, "channel": 0}, {"type": "note_on", "time": 6, "note": 67, "velocity": 102, "channel": 0}, {"type": "note_off", "time": 37, "note": 67, "velocity": 102, "channel": 0}, {"type": "note_on", "time": 2, "note": 68, "velocity": 104, "channel": 0}, {"type": "note_off", "time": 317, "note": 68, "velocity": 104, "channel": 0}, {"type": "note_on", "time": 206, "note": 71, "velocity": 123, "channel": 0}, {"type": "note_off", "time": 64, "note": 71, "velocity": 123, "channel": 0}, {"type": "note_on", "time": 18, "note": 72, "velocity": 121, "channel": 0}, {"type": "note_off", "time": 156, "note": 72, "velocity": 121, "channel": 0}, {"type": "note_on", "time": 33, "note": 75, "velocity": 118, "channel": 0}, {"type": "note_off", "time": 108, "note": 75, "velocity": 118, "channel": 0}, {"type": "note_on", "time": 2, "note": 70, "velocity": 105, "channel": 0}, {"type": "note_off", "time": 236, "note": 70, "velocity": 105, "channel": 0}, {"type": "end_of_track", "time": 0}]]}