{"ticks_per_beat": 5040, "tracks": [[{"type": "track_name", "name": "Melody", "time": 0}, {"type": "set_tempo", "tempo": 821917, "time": 0}, {"type": "key_signature", "key": "F", "time": 0}, {"type": "time_signature", "numerator": 4, "denominator": 4, "clocks_per_click": 24, "notated_32nd_notes_per_beat": 8, "time": 0}, {"type": "note_on", "time": 30187, "note": 68, "velocity": 114, "channel": 0}, {"type": "note_off", "time": 1351, "note": 68, "velocity": 114, "channel": 0}, {"type": "note_on", "time": 100, "note": 69, "velocity": 105, "channel": 0}, {"type": "note_off", "time": 901, "note": 69, "velocity": 105, "channel": 0}, {"type": "note_on", "time": 75, "note": 70, "velocity": 105, "channel": 0}, {"type": "note_off", "time": 1126, "note": 70, "velocity": 105, "channel": 0}, {"type": "note_on", "time": 100, "note": 71, "velocity": 114, "channel": 0}, {"type": "note_off", "time": 1151, "note": 71, "velocity": 114, "channel": 0}, {"type": "note_on", "time": 250, "note": 72, "velocity": 103, "channel": 0}, {"type": "note_off", "time": 1251, "note": 72, "velocity": 103, "channel": 0}, {"type": "note_on", "time": 400, "note": 60, "velocity": 94, "channel": 0}, {"type": "note_off", "time": 1051, "note": 60, "velocity": 94, "channel": 0}, {"type": "note_on", "time": 100, "note": 61, "velocity": 89, "channel": 0}, {"type": "note_off", "time": 1351, "note": 61, "velocity": 89, "channel": 0}, {"type": "note_on", "time": 150, "note": 62, "velocity": 82, "channel": 0}, {"type": "note_off", "time": 8760, "note": 62, "velocity": 82, "channel": 0}, {"type": "note_on", "time": 50, "note": 69, "velocity": 108, "channel": 0}, {"type": "note_off", "time": 901, "note": 69, "velocity": 108, "channel": 0}, {"type": "note_on", "time": 100, "note": 67, "velocity": 108, "channel": 0}, {"type": "note_off", "time": 500, "note": 67, "velocity": 108, "channel": 0}, {"type": "note_on", "time": 50, "note": 69, "velocity": 105, "channel": 0}, {"type": "note_off", "time": 550, "note": 69, "velocity": 105, "channel": 0}, {"type": "note_on", "time": 50, "note": 67, "velocity": 114, "channel": 0}, {"type": "note_off", "time": 650, "note": 67, "velocity": 114, "channel": 0}, {"type": "note_on", "time": 0, "note": 65, "velocity": 109, "channel": 0}, {"type": "note_off", "time": 800, "note": 65, "velocity": 109, "channel": 0}, {"type": "note_on", "time": 50, "note": 64, "velocity": 101, "channel": 0}, {"type": "note_off", "time": 1401, "note": 64, "velocity": 101, "channel": 0}, {"type": "note_on", "time": 50, "note": 62, "velocity": 91, "channel": 0}, {"type": "note_off", "time": 650, "note": 62, "velocity": 91, "channel": 0}, {"type": "note_on", "time": 150, "note": 65, "velocity": 109, "channel": 0}, {"type": "note_off", "time": 550, "note": 65, "velocity": 109, "channel": 0}, {"type": "note_on", "time": 300, "note": 67, "velocity": 108, "channel": 0}, {"type": "note_off", "time": 850, "note": 67, "velocity": 108, "channel": 0}, {"type": "note_on", "time": 850, "note": 67, "velocity": 94, "channel": 0}, {"type": "note_off", "time": 8659, "note": 67, "velocity": 94, "channel": 0}, {"type": "note_on", "time": 100, "note": 65, "velocity": 100, "channel": 0}, {"type": "note_off", "time": 800, "note": 65, "velocity": 100, "channel": 0}, {"type": "note_on", "time": 450, "note": 55, "velocity": 102, "channel": 0}, {"type": "note_off", "time": 1201, "note": 55, "velocity": 102, "channel": 0}, {"type": "note_on", "time": 50, "note": 56, "velocity": 95, "channel": 0}, {"type": "note_off", "time": 700, "note": 56, "velocity": 95, "channel": 0}, {"type": "note_on", "time": 325, "note": 64, "velocity": 108, "channel": 0}, {"type": "note_off", "time": 2753, "note": 64, "velocity": 108, "channel": 0}, {"type": "note_on", "time": 25, "note": 62, "velocity": 89, "channel": 0}, {"type": "note_on", "time": 1251, "note": 61, "velocity": 89, "channel": 0}, {"type": "note_off", "time": 0, "note": 62, "velocity": 89, "channel": 0}, {"type": "note_off", "time": 650, "note": 61, "velocity": 89, "channel": 0}, {"type": "note_on", "time": 100, "note": 62, "velocity": 95, "channel": 0}, {"type": "note_off", "time": 1351, "note": 62, "velocity": 95, "channel": 0}, {"type": "note_on", "time": 150, "note": 65, "velocity": 102, "channel": 0}, {"type": "note_off", "time": 1001, "note": 65, "velocity": 102, "channel": 0}, {"type": "note_on", "time": 50, "note": 62, "velocity": 92, "channel": 0}, {"type": "note_off", "time": 1151, "note": 62, "velocity": 92, "channel": 0}, {"type": "note_on", "time": 200, "note": 55, "velocity": 86, "channel": 0}, {"type": "note_off", "time": 901, "note": 55, "velocity": 86, "channel": 0}, {"type": "note_on", "time": 150, "note": 60, "velocity": 100, "channel": 0}, {"type": "note_off", "time": 1151, "note": 60, "velocity": 100, "channel": 0}, {"type": "note_on", "time": 100, "note": 58, "velocity": 95, "channel": 0}, {"type": "note_off", "time": 901, "note": 58, "velocity": 95, "channel": 0}, {"type": "note_on", "time": 0, "note": 57, "velocity": 100, "channel": 0}, {"type": "note_off", "time": 1301, "note": 57, "velocity": 100, "channel": 0}, {"type": "note_on", "time": 50, "note": 58, "velocity": 95, "channel": 0}, {"type": "note_off", "time": 1001, "note": 58, "velocity": 95, "channel": 0}, {"type": "note_on", "time": 0, "note": 62, "velocity": 95, "channel": 0}, {"type": "note_off", "time": 1201, "note": 62, "velocity": 95, "channel": 0}, {"type": "note_on", "time": 600, "note": 72, "velocity": 103, "channel": 0}, {"type": "note_off", "time": 1301, "note": 72, "velocity": 103, "channel": 0}, {"type": "note_on", "time": 550, "note": 72, "velocity": 97, "channel": 0}, {"type": "note_off", "time": 1251, "note": 72, "velocity": 97, "channel": 0}, {"type": "note_on", "time": 250, "note": 72, "velocity": 91, "channel": 0}, {"type": "note_off", "time": 1501, "note": 72, "velocity": 91, "channel": 0}, {"type": "note_on", "time": 150, "note": 70, "velocity": 97, "channel": 0}, {"type": "note_off", "time": 1151, "note": 70, "velocity": 97, "channel": 0}, {"type": "note_on", "time": 200, "note": 69, "velocity": 89, "channel": 0}, {"type": "note_off", "time": 1051, "note": 69, "velocity": 89, "channel": 0}, {"type": "note_on", "time": 100, "note": 70, "velocity": 91, "channel": 0}, {"type": "note_off", "time": 1251, "note": 70, "velocity": 91, "channel": 0}, {"type": "note_on", "time": 100, "note": 77, "velocity": 105, "channel": 0}, {"type": "note_off", "time": 1301, "note": 77, "velocity": 105, "channel": 0}, {"type": "note_on", "time": 100, "note": 67, "velocity": 95, "channel": 0}, {"type": "note_off", "time": 951, "note": 67, "velocity": 95, "channel": 0}, {"type": "note_on", "time": 50, "note": 69, "velocity": 84, "channel": 0}, {"type": "note_off", "time": 1251, "note": 69, "velocity": 84, "channel": 0}, {"type": "note_on", "time": 250, "note": 70, "velocity": 79, "channel": 0}, {"type": "note_off", "time": 4905, "note": 70, "velocity": 79, "channel": 0}, {"type": "note_on", "time": 12264, "note": 66, "velocity": 115, "channel": 0}, {"type": "note_off", "time": 700, "note": 66, "velocity": 115, "channel": 0}, {"type": "note_on", "time": 50, "note": 67, "velocity": 106, "channel": 0}, {"type": "note_off", "time": 625, "note": 67, "velocity": 106, "channel": 0}, {"type": "note_on", "time": 50, "note": 70, "velocity": 86, "channel": 0}, {"type": "note_off", "time": 425, "note": 70, "velocity": 86, "channel": 0}, {"type": "note_on", "time": 0, "note": 74, "velocity": 94, "channel": 0}, {"type": "note_off", "time": 625, "note": 74, "velocity": 94, "channel": 0}, {"type": "note_on", "time": 25, "note": 77, "velocity": 100, "channel": 0}, {"type": "note_off", "time": 775, "note": 77, "velocity": 100, "channel": 0}, {"type": "note_on", "time": 50, "note": 74, "velocity": 88, "channel": 0}, {"type": "note_off", "time": 550, "note": 74, "velocity": 88, "channel": 0}, {"type": "note_on", "time": 25, "note": 75, "velocity": 87, "channel": 0}, {"type": "note_off", "time": 425, "note": 75, "velocity": 87, "channel": 0}, {"type": "note_on", "time": 100, "note": 76, "velocity": 95, "channel": 0}, {"type": "note_off", "time": 550, "note": 76, "velocity": 95, "channel": 0}, {"type": "note_on", "time": 50, "note": 72, "velocity": 98, "channel": 0}, {"type": "note_off", "time": 425, "note": 72, "velocity": 98, "channel": 0}, {"type": "note_on", "time": 100, "note": 73, "velocity": 90, "channel": 0}, {"type": "note_off", "time": 625, "note": 73, "velocity": 90, "channel": 0}, {"type": "note_on", "time": 25, "note": 74, "velocity": 101, "channel": 0}, {"type": "note_off", "time": 675, "note": 74, "velocity": 101, "channel": 0}, {"type": "note_on", "time": 0, "note": 72, "velocity": 95, "channel": 0}, {"type": "note_off", "time": 650, "note": 72, "velocity": 95, "channel": 0}, {"type": "note_on", "time": 25, "note": 70, "velocity": 100, "channel": 0}, {"type": "note_off", "time": 575, "note": 70, "velocity": 100, "channel": 0}, {"type": "note_on", "time": 50, "note": 69, "velocity": 90, "channel": 0}, {"type": "note_off", "time": 525, "note": 69, "velocity": 90, "channel": 0}, {"type": "note_on", "time": 75, "note": 67, "velocity": 98, "channel": 0}, {"type": "note_off", "time": 525, "note": 67, "velocity": 98, "channel": 0}, {"type": "note_on", "time": 50, "note": 65, "velocity": 98, "channel": 0}, {"type": "note_off", "time": 500, "note": 65, "velocity": 98, "channel": 0}, {"type": "note_on", "time": 50, "note": 64, "velocity": 95, "channel": 0}, {"type": "note_off", "time": 550, "note": 64, "velocity": 95, "channel": 0}, {"type": "note_on", "time": 25, "note": 67, "velocity": 97, "channel": 0}, {"type": "note_off", "time": 550, "note": 67, "velocity": 97, "channel": 0}, {"type": "note_on", "time": 50, "note": 70, "velocity": 100, "channel": 0}, {"type": "note_off", "time": 450, "note": 70, "velocity": 100, "channel": 0}, {"type": "note_on", "time": 50, "note": 74, "velocity": 101, "channel": 0}, {"type": "note_off", "time": 775, "note": 74, "velocity": 101, "channel": 0}, {"type": "note_on", "time": 25, "note": 72, "velocity": 100, "channel": 0}, {"type": "note_off", "time": 550, "note": 72, "velocity": 100, "channel": 0}, {"type": "note_on", "time": 0, "note": 69, "velocity": 90, "channel": 0}, {"type": "note_off", "time": 400, "note": 69, "velocity": 90, "channel": 0}, {"type": "note_on", "time": 25, "note": 70, "velocity": 94, "channel": 0}, {"type": "note_off", "time": 375, "note": 70, "velocity": 94, "channel": 0}, {"type": "note_on", "time": 78, "note": 72, "velocity": 95, "channel": 0}, {"type": "note_on", "time": 498, "note": 70, "velocity": 95, "channel": 0}, {"type": "note_off", "time": 0, "note": 72, "velocity": 95, "channel": 0}, {"type": "note_off", "time": 391, "note": 70, "velocity": 95, "channel": 0}, {"type": "note_on", "time": 35, "note": 69, "velocity": 106, "channel": 0}, {"type": "note_off", "time": 480, "note": 69, "velocity": 106, "channel": 0}, {"type": "note_on", "time": 53, "note": 65, "velocity": 96, "channel": 0}, {"type": "note_off", "time": 622, "note": 65, "velocity": 96, "channel": 0}, {"type": "note_on", "time": 41, "note": 62, "velocity": 84, "channel": 0}, {"type": "note_off", "time": 350, "note": 62, "velocity": 84, "channel": 0}, {"type": "note_on", "time": 50, "note": 60, "velocity": 94, "channel": 0}, {"type": "note_off", "time": 525, "note": 60, "velocity": 94, "channel": 0}, {"type": "note_on", "time": 50, "note": 67, "velocity": 109, "channel": 0}, {"type": "note_off", "time": 825, "note": 67, "velocity": 109, "channel": 0}, {"type": "note_on", "time": 25, "note": 65, "velocity": 101, "channel": 0}, {"type": "note_off", "time": 825, "note": 65, "velocity": 101, "channel": 0}, {"type": "note_on", "time": 400, "note": 55, "velocity": 85, "channel": 0}, {"type": "note_off", "time": 650, "note": 55, "velocity": 85, "channel": 0}, {"type": "note_on", "time": 100, "note": 58, "velocity": 93, "channel": 0}, {"type": "note_off", "time": 400, "note": 58, "velocity": 93, "channel": 0}, {"type": "note_on", "time": 50, "note": 61, "velocity": 95, "channel": 0}, {"type": "note_off", "time": 600, "note": 61, "velocity": 95, "channel": 0}, {"type": "note_on", "time": 50, "note": 58, "velocity": 94, "channel": 0}, {"type": "note_off", "time": 625, "note": 58, "velocity": 94, "channel": 0}, {"type": "note_on", "time": 25, "note": 55, "velocity": 94, "channel": 0}, {"type": "note_off", "time": 575, "note": 55, "velocity": 94, "channel": 0}, {"type": "note_on", "time": 25, "note": 60, "velocity": 97, "channel": 0}, {"type": "note_off", "time": 800, "note": 60, "velocity": 97, "channel": 0}, {"type": "note_on", "time": 75, "note": 58, "velocity": 89, "channel": 0}, {"type": "note_off", "time": 2177, "note": 58, "velocity": 89, "channel": 0}, {"type": "note_on", "time": 2728, "note": 67, "velocity": 116, "channel": 0}, {"type": "note_off", "time": 800, "note": 67, "velocity": 116, "channel": 0}, {"type": "note_on", "time": 50, "note": 66, "velocity": 116, "channel": 0}, {"type": "note_off", "time": 600, "note": 66, "velocity": 116, "channel": 0}, {"type": "note_on", "time": 50, "note": 65, "velocity": 110, "channel": 0}, {"type": "note_off", "time": 450, "note": 65, "velocity": 110, "channel": 0}, {"type": "note_on", "time": 25, "note": 64, "velocity": 107, "channel": 0}, {"type": "note_off", "time": 475, "note": 64, "velocity": 107, "channel": 0}, {"type": "note_on", "time": 175, "note": 63, "velocity": 103, "channel": 0}, {"type": "note_off", "time": 600, "note": 63, "velocity": 103, "channel": 0}, {"type": "note_on", "time": 75, "note": 61, "velocity": 94, "channel": 0}, {"type": "note_off", "time": 500, "note": 61, "velocity": 94, "channel": 0}, {"type": "note_on", "time": 50, "note": 56, "velocity": 93, "channel": 0}, {"type": "note_off", "time": 475, "note": 56, "velocity": 93, "channel": 0}, {"type": "note_on", "time": 125, "note": 58, "velocity": 97, "channel": 0}, {"type": "note_off", "time": 725, "note": 58, "velocity": 97, "channel": 0}, {"type": "note_on", "time": 75, "note": 61, "velocity": 102, "channel": 0}, {"type": "note_off", "time": 675, "note": 61, "velocity": 102, "channel": 0}, {"type": "note_on", "time": 50, "note": 65, "velocity": 104, "channel": 0}, {"type": "note_off", "time": 600, "note": 65, "velocity": 104, "channel": 0}, {"type": "note_on", "time": 150, "note": 60, "velocity": 100, "channel": 0}, {"type": "note_off", "time": 450, "note": 60, "velocity": 100, "channel": 0}, {"type": "note_on", "time": 75, "note": 58, "velocity": 105, "channel": 0}, {"type": "note_off", "time": 500, "note": 58, "velocity": 105, "channel": 0}, {"type": "note_on", "time": 75, "note": 57, "velocity": 103, "channel": 0}, {"type": "note_off", "time": 725, "note": 57, "velocity": 103, "channel": 0}, {"type": "note_on", "time": 125, "note": 60, "velocity": 99, "channel": 0}, {"type": "note_off", "time": 650, "note": 60, "velocity": 99, "channel": 0}, {"type": "note_on", "time": 50, "note": 53, "velocity": 91, "channel": 0}, {"type": "note_off", "time": 2803, "note": 53, "velocity": 91, "channel": 0}, {"type": "note_on", "time": 2077, "note": 55, "velocity": 95, "channel": 0}, {"type": "note_off", "time": 2377, "note": 55, "velocity": 95, "channel": 0}, {"type": "note_on", "time": 190, "note": 57, "velocity": 95, "channel": 0}, {"type": "note_off", "time": 2127, "note": 57, "velocity": 95, "channel": 0}, {"type": "note_on", "time": 259, "note": 58, "velocity": 98, "channel": 0}, {"type": "note_off", "time": 1201, "note": 58, "velocity": 98, "channel": 0}, {"type": "note_on", "time": 150, "note": 60, "velocity": 95, "channel": 0}, {"type": "note_off", "time": 1376, "note": 60, "velocity": 95, "channel": 0}, {"type": "note_on", "time": 25, "note": 57, "velocity": 99, "channel": 0}, {"type": "note_off", "time": 876, "note": 57, "velocity": 99, "channel": 0}, {"type": "note_on", "time": 75, "note": 58, "velocity": 95, "channel": 0}, {"type": "note_off", "time": 1351, "note": 58, "velocity": 95, "channel": 0}, {"type": "note_on", "time": 100, "note": 68, "velocity": 99, "channel": 0}, {"type": "note_off", "time": 926, "note": 68, "velocity": 99, "channel": 0}, {"type": "note_on", "time": 50, "note": 64, "velocity": 95, "channel": 0}, {"type": "note_off", "time": 1576, "note": 64, "velocity": 95, "channel": 0}, {"type": "note_on", "time": 50, "note": 60, "velocity": 84, "channel": 0}, {"type": "note_off", "time": 525, "note": 60, "velocity": 84, "channel": 0}, {"type": "note_on", "time": 275, "note": 67, "velocity": 102, "channel": 0}, {"type": "note_off", "time": 625, "note": 67, "velocity": 102, "channel": 0}, {"type": "note_on", "time": 25, "note": 69, "velocity": 101, "channel": 0}, {"type": "note_off", "time": 725, "note": 69, "velocity": 101, "channel": 0}, {"type": "note_on", "time": 150, "note": 65, "velocity": 96, "channel": 0}, {"type": "note_off", "time": 575, "note": 65, "velocity": 96, "channel": 0}, {"type": "note_on", "time": 250, "note": 62, "velocity": 89, "channel": 0}, {"type": "note_off", "time": 1351, "note": 62, "velocity": 89, "channel": 0}, {"type": "note_on", "time": 125, "note": 65, "velocity": 92, "channel": 0}, {"type": "note_off", "time": 4279, "note": 65, "velocity": 92, "channel": 0}, {"type": "note_on", "time": 7733, "note": 67, "velocity": 109, "channel": 0}, {"type": "note_off", "time": 600, "note": 67, "velocity": 109, "channel": 0}, {"type": "note_on", "time": 100, "note": 69, "velocity": 107, "channel": 0}, {"type": "note_off", "time": 550, "note": 69, "velocity": 107, "channel": 0}, {"type": "note_on", "time": 75, "note": 70, "velocity": 103, "channel": 0}, {"type": "note_off", "time": 725, "note": 70, "velocity": 103, "channel": 0}, {"type": "note_on", "time": 25, "note": 69, "velocity": 105, "channel": 0}, {"type": "note_off", "time": 600, "note": 69, "velocity": 105, "channel": 0}, {"type": "note_on", "time": 25, "note": 67, "velocity": 108, "channel": 0}, {"type": "note_off", "time": 500, "note": 67, "velocity": 108, "channel": 0}, {"type": "note_on", "time": 25, "note": 65, "velocity": 105, "channel": 0}, {"type": "note_off", "time": 575, "note": 65, "velocity": 105, "channel": 0}, {"type": "note_on", "time": 0, "note": 64, "velocity": 98, "channel": 0}, {"type": "note_off", "time": 825, "note": 64, "velocity": 98, "channel": 0}, {"type": "note_on", "time": 0, "note": 62, "velocity": 87, "channel": 0}, {"type": "note_off", "time": 575, "note": 62, "velocity": 87, "channel": 0}, {"type": "note_on", "time": 75, "note": 61, "velocity": 85, "channel": 0}, {"type": "note_off", "time": 450, "note": 61, "velocity": 85, "channel": 0}, {"type": "note_on", "time": 50, "note": 62, "velocity": 90, "channel": 0}, {"type": "note_off", "time": 400, "note": 62, "velocity": 90, "channel": 0}, {"type": "note_on", "time": 125, "note": 64, "velocity": 99, "channel": 0}, {"type": "note_off", "time": 1126, "note": 64, "velocity": 99, "channel": 0}, {"type": "note_on", "time": 25, "note": 61, "velocity": 86, "channel": 0}, {"type": "note_off", "time": 375, "note": 61, "velocity": 86, "channel": 0}, {"type": "note_on", "time": 50, "note": 62, "velocity": 89, "channel": 0}, {"type": "note_off", "time": 375, "note": 62, "velocity": 89, "channel": 0}, {"type": "note_on", "time": 50, "note": 64, "velocity": 98, "channel": 0}, {"type": "note_off", "time": 525, "note": 64, "velocity": 98, "channel": 0}, {"type": "note_on", "time": 100, "note": 65, "velocity": 101, "channel": 0}, {"type": "note_off", "time": 1226, "note": 65, "velocity": 101, "channel": 0}, {"type": "note_on", "time": 5256, "note": 69, "velocity": 113, "channel": 0}, {"type": "note_off", "time": 1426, "note": 69, "velocity": 113, "channel": 0}, {"type": "note_on", "time": 25, "note": 68, "velocity": 118, "channel": 0}, {"type": "note_off", "time": 350, "note": 68, "velocity": 118, "channel": 0}, {"type": "note_on", "time": 100, "note": 67, "velocity": 120, "channel": 0}, {"type": "note_off", "time": 325, "note": 67, "velocity": 120, "channel": 0}, {"type": "note_on", "time": 75, "note": 66, "velocity": 119, "channel": 0}, {"type": "note_off", "time": 275, "note": 66, "velocity": 119, "channel": 0}, {"type": "note_on", "time": 125, "note": 65, "velocity": 111, "channel": 0}, {"type": "note_off", "time": 976, "note": 65, "velocity": 111, "channel": 0}, {"type": "note_on", "time": 425, "note": 67, "velocity": 115, "channel": 0}, {"type": "note_off", "time": 1376, "note": 67, "velocity": 115, "channel": 0}, {"type": "note_on", "time": 600, "note": 65, "velocity": 106, "channel": 0}, {"type": "note_off", "time": 1251, "note": 65, "velocity": 106, "channel": 0}, {"type": "note_on", "time": 400, "note": 67, "velocity": 116, "channel": 0}, {"type": "note_off", "time": 605, "note": 67, "velocity": 116, "channel": 0}, {"type": "note_on", "time": 88, "note": 69, "velocity": 105, "channel": 0}, {"type": "note_off", "time": 1001, "note": 69, "velocity": 105, "channel": 0}, {"type": "note_on", "time": 682, "note": 57, "velocity": 100, "channel": 0}, {"type": "note_off", "time": 1376, "note": 57, "velocity": 100, "channel": 0}, {"type": "note_on", "time": 100, "note": 58, "velocity": 86, "channel": 0}, {"type": "note_off", "time": 1101, "note": 58, "velocity": 86, "channel": 0}, {"type": "note_on", "time": 175, "note": 59, "velocity": 77, "channel": 0}, {"type": "note_off", "time": 3954, "note": 59, "velocity": 77, "channel": 0}, {"type": "note_on", "time": 5256, "note": 71, "velocity": 91, "channel": 0}, {"type": "note_off", "time": 550, "note": 71, "velocity": 91, "channel": 0}, {"type": "note_on", "time": 75, "note": 69, "velocity": 97, "channel": 0}, {"type": "note_off", "time": 575, "note": 69, "velocity": 97, "channel": 0}, {"type": "note_on", "time": 125, "note": 68, "velocity": 103, "channel": 0}, {"type": "note_off", "time": 926, "note": 68, "velocity": 103, "channel": 0}, {"type": "note_on", "time": 425, "note": 59, "velocity": 96, "channel": 0}, {"type": "note_off", "time": 901, "note": 59, "velocity": 96, "channel": 0}, {"type": "note_on", "time": 125, "note": 62, "velocity": 88, "channel": 0}, {"type": "note_off", "time": 1176, "note": 62, "velocity": 88, "channel": 0}, {"type": "note_on", "time": 175, "note": 65, "velocity": 104, "channel": 0}, {"type": "note_off", "time": 800, "note": 65, "velocity": 104, "channel": 0}, {"type": "note_on", "time": 125, "note": 64, "velocity": 102, "channel": 0}, {"type": "note_off", "time": 2052, "note": 64, "velocity": 102, "channel": 0}, {"type": "note_on", "time": 25, "note": 60, "velocity": 90, "channel": 0}, {"type": "note_off", "time": 1001, "note": 60, "velocity": 90, "channel": 0}, {"type": "note_on", "time": 75, "note": 62, "velocity": 98, "channel": 0}, {"type": "note_off", "time": 350, "note": 62, "velocity": 98, "channel": 0}, {"type": "note_on", "time": 50, "note": 64, "velocity": 100, "channel": 0}, {"type": "note_off", "time": 575, "note": 64, "velocity": 100, "channel": 0}, {"type": "note_on", "time": 0, "note": 62, "velocity": 92, "channel": 0}, {"type": "note_off", "time": 600, "note": 62, "velocity": 92, "channel": 0}, {"type": "note_on", "time": 50, "note": 59, "velocity": 91, "channel": 0}, {"type": "note_off", "time": 625, "note": 59, "velocity": 91, "channel": 0}, {"type": "note_on", "time": 250, "note": 60, "velocity": 90, "channel": 0}, {"type": "note_off", "time": 1526, "note": 60, "velocity": 90, "channel": 0}, {"type": "note_on", "time": 225, "note": 72, "velocity": 98, "channel": 0}, {"type": "note_off", "time": 1802, "note": 72, "velocity": 98, "channel": 0}, {"type": "note_on", "time": 225, "note": 71, "velocity": 103, "channel": 0}, {"type": "note_off", "time": 1551, "note": 71, "velocity": 103, "channel": 0}, {"type": "note_on", "time": 75, "note": 68, "velocity": 100, "channel": 0}, {"type": "note_off", "time": 1326, "note": 68, "velocity": 100, "channel": 0}, {"type": "note_on", "time": 450, "note": 69, "velocity": 91, "channel": 0}, {"type": "note_off", "time": 1726, "note": 69, "velocity": 91, "channel": 0}, {"type": "note_on", "time": 400, "note": 71, "velocity": 104, "channel": 0}, {"type": "note_off", "time": 1676, "note": 71, "velocity": 104, "channel": 0}, {"type": "note_on", "time": 650, "note": 72, "velocity": 99, "channel": 0}, {"type": "note_off", "time": 1251, "note": 72, "velocity": 99, "channel": 0}, {"type": "note_on", "time": 100, "note": 74, "velocity": 92, "channel": 0}, {"type": "note_off", "time": 1276, "note": 74, "velocity": 92, "channel": 0}, {"type": "note_on", "time": 400, "note": 76, "velocity": 96, "channel": 0}, {"type": "note_off", "time": 1526, "note": 76, "velocity": 96, "channel": 0}, {"type": "note_on", "time": 550, "note": 64, "velocity": 96, "channel": 0}, {"type": "note_off", "time": 1051, "note": 64, "velocity": 96, "channel": 0}, {"type": "note_on", "time": 75, "note": 65, "velocity": 94, "channel": 0}, {"type": "note_off", "time": 1401, "note": 65, "velocity": 94, "channel": 0}, {"type": "note_on", "time": 150, "note": 66, "velocity": 98, "channel": 0}, {"type": "note_off", "time": 1626, "note": 66, "velocity": 98, "channel": 0}, {"type": "note_on", "time": 650, "note": 70, "velocity": 96, "channel": 0}, {"type": "note_off", "time": 1301, "note": 70, "velocity": 96, "channel": 0}, {"type": "note_on", "time": 25, "note": 68, "velocity": 111, "channel": 0}, {"type": "note_off", "time": 1701, "note": 68, "velocity": 111, "channel": 0}, {"type": "note_on", "time": 34, "note": 58, "velocity": 87, "channel": 0}, {"type": "note_off", "time": 365, "note": 58, "velocity": 87, "channel": 0}, {"type": "note_on", "time": 0, "note": 63, "velocity": 95, "channel": 0}, {"type": "note_off", "time": 1426, "note": 63, "velocity": 95, "channel": 0}, {"type": "note_on", "time": 500, "note": 56, "velocity": 90, "channel": 0}, {"type": "note_off", "time": 976, "note": 56, "velocity": 90, "channel": 0}, {"type": "note_on", "time": 275, "note": 61, "velocity": 86, "channel": 0}, {"type": "note_off", "time": 1051, "note": 61, "velocity": 86, "channel": 0}, {"type": "note_on", "time": 100, "note": 63, "velocity": 95, "channel": 0}, {"type": "note_off", "time": 1251, "note": 63, "velocity": 95, "channel": 0}, {"type": "note_on", "time": 275, "note": 56, "velocity": 92, "channel": 0}, {"type": "note_off", "time": 1151, "note": 56, "velocity": 92, "channel": 0}, {"type": "note_on", "time": 750, "note": 55, "velocity": 97, "channel": 0}, {"type": "note_off", "time": 1651, "note": 55, "velocity": 97, "channel": 0}, {"type": "note_on", "time": 25, "note": 62, "velocity": 100, "channel": 0}, {"type": "note_off", "time": 1201, "note": 62, "velocity": 100, "channel": 0}, {"type": "note_on", "time": 250, "note": 58, "velocity": 89, "channel": 0}, {"type": "note_off", "time": 850, "note": 58, "velocity": 89, "channel": 0}, {"type": "note_on", "time": 275, "note": 59, "velocity": 94, "channel": 0}, {"type": "note_off", "time": 976, "note": 59, "velocity": 94, "channel": 0}, {"type": "note_on", "time": 75, "note": 62, "velocity": 93, "channel": 0}, {"type": "note_off", "time": 1526, "note": 62, "velocity": 93, "channel": 0}, {"type": "note_on", "time": 0, "note": 59, "velocity": 89, "channel": 0}, {"type": "note_off", "time": 850, "note": 59, "velocity": 89, "channel": 0}, {"type": "note_on", "time": 175, "note": 60, "velocity": 98, "channel": 0}, {"type": "note_off", "time": 1201, "note": 60, "velocity": 98, "channel": 0}, {"type": "note_on", "time": 100, "note": 67, "velocity": 98, "channel": 0}, {"type": "note_off", "time": 1101, "note": 67, "velocity": 98, "channel": 0}, {"type": "note_on", "time": 200, "note": 64, "velocity": 92, "channel": 0}, {"type": "note_off", "time": 1376, "note": 64, "velocity": 92, "channel": 0}, {"type": "note_on", "time": 50, "note": 60, "velocity": 77, "channel": 0}, {"type": "note_off", "time": 500, "note": 60, "velocity": 77, "channel": 0}, {"type": "note_on", "time": 719, "note": 67, "velocity": 84, "channel": 0}, {"type": "note_off", "time": 4431, "note": 67, "velocity": 84, "channel": 0}, {"type": "note_on", "time": 13401, "note": 67, "velocity": 108, "channel": 0}, {"type": "note_off", "time": 2028, "note": 67, "velocity": 108, "channel": 0}, {"type": "note_on", "time": 342, "note": 79, "velocity": 103, "channel": 0}, {"type": "note_off", "time": 1476, "note": 79, "velocity": 103, "channel": 0}, {"type": "note_on", "time": 150, "note": 79, "velocity": 103, "channel": 0}, {"type": "note_off", "time": 1201, "note": 79, "velocity": 103, "channel": 0}, {"type": "note_on", "time": 100, "note": 77, "velocity": 97, "channel": 0}, {"type": "note_off", "time": 1026, "note": 77, "velocity": 97, "channel": 0}, {"type": "note_on", "time": 100, "note": 77, "velocity": 99, "channel": 0}, {"type": "note_off", "time": 1076, "note": 77, "velocity": 99, "channel": 0}, {"type": "note_on", "time": 50, "note": 76, "velocity": 105, "channel": 0}, {"type": "note_off", "time": 951, "note": 76, "velocity": 105, "channel": 0}, {"type": "note_on", "time": 200, "note": 76, "velocity": 104, "channel": 0}, {"type": "note_off", "time": 1051, "note": 76, "velocity": 104, "channel": 0}, {"type": "note_on", "time": 100, "note": 74, "velocity": 98, "channel": 0}, {"type": "note_off", "time": 1076, "note": 74, "velocity": 98, "channel": 0}, {"type": "note_on", "time": 175, "note": 74, "velocity": 97, "channel": 0}, {"type": "note_off", "time": 2402, "note": 74, "velocity": 97, "channel": 0}, {"type": "note_on", "time": 150, "note": 67, "velocity": 91, "channel": 0}, {"type": "note_off", "time": 1126, "note": 67, "velocity": 91, "channel": 0}, {"type": "note_on", "time": 100, "note": 69, "velocity": 98, "channel": 0}, {"type": "note_off", "time": 225, "note": 69, "velocity": 98, "channel": 0}, {"type": "note_on", "time": 75, "note": 71, "velocity": 93, "channel": 0}, {"type": "note_off", "time": 250, "note": 71, "velocity": 93, "channel": 0}, {"type": "note_on", "time": 125, "note": 74, "velocity": 98, "channel": 0}, {"type": "note_off", "time": 1076, "note": 74, "velocity": 98, "channel": 0}, {"type": "note_on", "time": 250, "note": 74, "velocity": 98, "channel": 0}, {"type": "note_off", "time": 1251, "note": 74, "velocity": 98, "channel": 0}, {"type": "note_on", "time": 50, "note": 72, "velocity": 93, "channel": 0}, {"type": "note_off", "time": 675, "note": 72, "velocity": 93, "channel": 0}, {"type": "note_on", "time": 125, "note": 72, "velocity": 93, "channel": 0}, {"type": "note_off", "time": 1001, "note": 72, "velocity": 93, "channel": 0}, {"type": "note_on", "time": 25, "note": 70, "velocity": 93, "channel": 0}, {"type": "note_off", "time": 725, "note": 70, "velocity": 93, "channel": 0}, {"type": "note_on", "time": 225, "note": 70, "velocity": 92, "channel": 0}, {"type": "note_off", "time": 1101, "note": 70, "velocity": 92, "channel": 0}, {"type": "note_on", "time": 200, "note": 62, "velocity": 83, "channel": 0}, {"type": "note_off", "time": 725, "note": 62, "velocity": 83, "channel": 0}, {"type": "note_on", "time": 325, "note": 69, "velocity": 85, "channel": 0}, {"type": "note_off", "time": 5005, "note": 69, "velocity": 85, "channel": 0}, {"type": "note_on", "time": 7658, "note": 54, "velocity": 80, "channel": 0}, {"type": "note_off", "time": 1126, "note": 54, "velocity": 80, "channel": 0}, {"type": "note_on", "time": 300, "note": 61, "velocity": 80, "channel": 0}, {"type": "note_off", "time": 1101, "note": 61, "velocity": 80, "channel": 0}, {"type": "note_on", "time": 300, "note": 68, "velocity": 92, "channel": 0}, {"type": "note_off", "time": 1276, "note": 68, "velocity": 92, "channel": 0}, {"type": "note_on", "time": 100, "note": 66, "velocity": 96, "channel": 0}, {"type": "note_off", "time": 1651, "note": 66, "velocity": 96, "channel": 0}, {"type": "note_on", "time": 75, "note": 63, "velocity": 87, "channel": 0}, {"type": "note_off", "time": 825, "note": 63, "velocity": 87, "channel": 0}, {"type": "note_on", "time": 525, "note": 56, "velocity": 85, "channel": 0}, {"type": "note_off", "time": 675, "note": 56, "velocity": 85, "channel": 0}, {"type": "note_on", "time": 250, "note": 61, "velocity": 83, "channel": 0}, {"type": "note_off", "time": 1351, "note": 61, "velocity": 83, "channel": 0}, {"type": "note_on", "time": 150, "note": 63, "velocity": 83, "channel": 0}, {"type": "note_off", "time": 825, "note": 63, "velocity": 83, "channel": 0}, {"type": "note_on", "time": 175, "note": 56, "velocity": 89, "channel": 0}, {"type": "note_off", "time": 1526, "note": 56, "velocity": 89, "channel": 0}, {"type": "note_on", "time": 25, "note": 54, "velocity": 81, "channel": 0}, {"type": "note_off", "time": 800, "note": 54, "velocity": 81, "channel": 0}, {"type": "note_on", "time": 100, "note": 55, "velocity": 94, "channel": 0}, {"type": "note_off", "time": 2953, "note": 55, "velocity": 94, "channel": 0}, {"type": "note_on", "time": 25, "note": 61, "velocity": 99, "channel": 0}, {"type": "note_off", "time": 1551, "note": 61, "velocity": 99, "channel": 0}, {"type": "note_on", "time": 75, "note": 59, "velocity": 92, "channel": 0}, {"type": "note_off", "time": 625, "note": 59, "velocity": 92, "channel": 0}, {"type": "note_on", "time": 250, "note": 60, "velocity": 88, "channel": 0}, {"type": "note_off", "time": 3879, "note": 60, "velocity": 88, "channel": 0}, {"type": "note_on", "time": 3929, "note": 72, "velocity": 100, "channel": 0}, {"type": "note_off", "time": 1501, "note": 72, "velocity": 100, "channel": 0}, {"type": "note_on", "time": 25, "note": 69, "velocity": 95, "channel": 0}, {"type": "note_off", "time": 1051, "note": 69, "velocity": 95, "channel": 0}, {"type": "note_on", "time": 75, "note": 67, "velocity": 107, "channel": 0}, {"type": "note_off", "time": 1827, "note": 67, "velocity": 107, "channel": 0}, {"type": "note_on", "time": 75, "note": 65, "velocity": 85, "channel": 0}, {"type": "note_off", "time": 725, "note": 65, "velocity": 85, "channel": 0}, {"type": "note_on", "time": 100, "note": 67, "velocity": 103, "channel": 0}, {"type": "note_off", "time": 1927, "note": 67, "velocity": 103, "channel": 0}, {"type": "note_on", "time": 125, "note": 69, "velocity": 98, "channel": 0}, {"type": "note_off", "time": 1551, "note": 69, "velocity": 98, "channel": 0}, {"type": "note_on", "time": 350, "note": 60, "velocity": 91, "channel": 0}, {"type": "note_off", "time": 2052, "note": 60, "velocity": 91, "channel": 0}, {"type": "note_on", "time": 325, "note": 62, "velocity": 81, "channel": 0}, {"type": "note_off", "time": 4605, "note": 62, "velocity": 81, "channel": 0}, {"type": "note_on", "time": 3178, "note": 76, "velocity": 99, "channel": 0}, {"type": "note_off", "time": 600, "note": 76, "velocity": 99, "channel": 0}, {"type": "note_on", "time": 0, "note": 74, "velocity": 102, "channel": 0}, {"type": "note_off", "time": 200, "note": 74, "velocity": 102, "channel": 0}, {"type": "note_on", "time": 75, "note": 72, "velocity": 108, "channel": 0}, {"type": "note_off", "time": 350, "note": 72, "velocity": 108, "channel": 0}, {"type": "note_on", "time": 50, "note": 71, "velocity": 9, "channel": 0}, {"type": "note_off", "time": 951, "note": 71, "velocity": 9, "channel": 0}, {"type": "note_on", "time": 600, "note": 62, "velocity": 85, "channel": 0}, {"type": "note_off", "time": 951, "note": 62, "velocity": 85, "channel": 0}, {"type": "note_on", "time": 125, "note": 65, "velocity": 93, "channel": 0}, {"type": "note_off", "time": 1101, "note": 65, "velocity": 93, "channel": 0}, {"type": "note_on", "time": 225, "note": 67, "velocity": 100, "channel": 0}, {"type": "note_off", "time": 1276, "note": 67, "velocity": 100, "channel": 0}, {"type": "note_on", "time": 200, "note": 68, "velocity": 111, "channel": 0}, {"type": "note_off", "time": 1376, "note": 68, "velocity": 111, "channel": 0}, {"type": "note_on", "time": 100, "note": 71, "velocity": 86, "channel": 0}, {"type": "note_off", "time": 1051, "note": 71, "velocity": 86, "channel": 0}, {"type": "note_on", "time": 75, "note": 76, "velocity": 104, "channel": 0}, {"type": "note_off", "time": 1927, "note": 76, "velocity": 104, "channel": 0}, {"type": "note_on", "time": 50, "note": 74, "velocity": 98, "channel": 0}, {"type": "note_off", "time": 1827, "note": 74, "velocity": 98, "channel": 0}, {"type": "note_on", "time": 125, "note": 77, "velocity": 96, "channel": 0}, {"type": "note_off", "time": 1176, "note": 77, "velocity": 96, "channel": 0}, {"type": "note_on", "time": 150, "note": 74, "velocity": 95, "channel": 0}, {"type": "note_off", "time": 1676, "note": 74, "velocity": 95, "channel": 0}, {"type": "note_on", "time": 75, "note": 67, "velocity": 86, "channel": 0}, {"type": "note_off", "time": 1852, "note": 67, "velocity": 86, "channel": 0}, {"type": "note_on", "time": 75, "note": 69, "velocity": 103, "channel": 0}, {"type": "note_off", "time": 1476, "note": 69, "velocity": 103, "channel": 0}, {"type": "note_on", "time": 50, "note": 70, "velocity": 93, "channel": 0}, {"type": "note_off", "time": 1051, "note": 70, "velocity": 93, "channel": 0}, {"type": "note_on", "time": 50, "note": 72, "velocity": 95, "channel": 0}, {"type": "note_off", "time": 1026, "note": 72, "velocity": 95, "channel": 0}, {"type": "note_on", "time": 0, "note": 69, "velocity": 98, "channel": 0}, {"type": "note_off", "time": 600, "note": 69, "velocity": 98, "channel": 0}, {"type": "note_on", "time": 50, "note": 70, "velocity": 94, "channel": 0}, {"type": "note_off", "time": 300, "note": 70, "velocity": 94, "channel": 0}, {"type": "note_on", "time": 25, "note": 69, "velocity": 101, "channel": 0}, {"type": "note_off", "time": 650, "note": 69, "velocity": 101, "channel": 0}, {"type": "note_on", "time": 25, "note": 67, "velocity": 99, "channel": 0}, {"type": "note_off", "time": 600, "note": 67, "velocity": 99, "channel": 0}, {"type": "note_on", "time": 350, "note": 72, "velocity": 102, "channel": 0}, {"type": "note_off", "time": 1676, "note": 72, "velocity": 102, "channel": 0}, {"type": "note_on", "time": 4780, "note": 63, "velocity": 90, "channel": 0}, {"type": "note_off", "time": 1201, "note": 63, "velocity": 90, "channel": 0}, {"type": "note_on", "time": 100, "note": 61, "velocity": 79, "channel": 0}, {"type": "note_off", "time": 926, "note": 61, "velocity": 79, "channel": 0}, {"type": "note_on", "time": 75, "note": 62, "velocity": 87, "channel": 0}, {"type": "note_off", "time": 876, "note": 62, "velocity": 87, "channel": 0}, {"type": "note_on", "time": 350, "note": 70, "velocity": 91, "channel": 0}, {"type": "note_off", "time": 1451, "note": 70, "velocity": 91, "channel": 0}, {"type": "note_on", "time": 150, "note": 62, "velocity": 87, "channel": 0}, {"type": "note_off", "time": 951, "note": 62, "velocity": 87, "channel": 0}, {"type": "note_on", "time": 50, "note": 69, "velocity": 104, "channel": 0}, {"type": "note_off", "time": 1626, "note": 69, "velocity": 104, "channel": 0}, {"type": "note_on", "time": 100, "note": 67, "velocity": 84, "channel": 0}, {"type": "note_off", "time": 4505, "note": 67, "velocity": 84, "channel": 0}, {"type": "note_on", "time": 4530, "note": 72, "velocity": 110, "channel": 0}, {"type": "note_off", "time": 775, "note": 72, "velocity": 110, "channel": 0}, {"type": "note_on", "time": 25, "note": 70, "velocity": 103, "channel": 0}, {"type": "note_off", "time": 650, "note": 70, "velocity": 103, "channel": 0}, {"type": "note_on", "time": 75, "note": 69, "velocity": 110, "channel": 0}, {"type": "note_off", "time": 575, "note": 69, "velocity": 110, "channel": 0}, {"type": "note_on", "time": 50, "note": 67, "velocity": 111, "channel": 0}, {"type": "note_off", "time": 625, "note": 67, "velocity": 111, "channel": 0}, {"type": "note_on", "time": 50, "note": 66, "velocity": 103, "channel": 0}, {"type": "note_off", "time": 525, "note": 66, "velocity": 103, "channel": 0}, {"type": "note_on", "time": 300, "note": 57, "velocity": 89, "channel": 0}, {"type": "note_off", "time": 625, "note": 57, "velocity": 89, "channel": 0}, {"type": "note_on", "time": 0, "note": 60, "velocity": 92, "channel": 0}, {"type": "note_off", "time": 625, "note": 60, "velocity": 92, "channel": 0}, {"type": "note_on", "time": 125, "note": 63, "velocity": 89, "channel": 0}, {"type": "note_off", "time": 525, "note": 63, "velocity": 89, "channel": 0}, {"type": "note_on", "time": 75, "note": 60, "velocity": 94, "channel": 0}, {"type": "note_off", "time": 550, "note": 60, "velocity": 94, "channel": 0}, {"type": "note_on", "time": 25, "note": 61, "velocity": 91, "channel": 0}, {"type": "note_off", "time": 475, "note": 61, "velocity": 91, "channel": 0}, {"type": "note_on", "time": 100, "note": 62, "velocity": 102, "channel": 0}, {"type": "note_off", "time": 876, "note": 62, "velocity": 102, "channel": 0}, {"type": "note_on", "time": 75, "note": 61, "velocity": 95, "channel": 0}, {"type": "note_off", "time": 225, "note": 61, "velocity": 95, "channel": 0}, {"type": "note_on", "time": 75, "note": 60, "velocity": 101, "channel": 0}, {"type": "note_off", "time": 600, "note": 60, "velocity": 101, "channel": 0}, {"type": "note_on", "time": 50, "note": 59, "velocity": 103, "channel": 0}, {"type": "note_off", "time": 850, "note": 59, "velocity": 103, "channel": 0}, {"type": "note_on", "time": 25, "note": 58, "velocity": 98, "channel": 0}, {"type": "note_off", "time": 400, "note": 58, "velocity": 98, "channel": 0}, {"type": "note_on", "time": 125, "note": 57, "velocity": 101, "channel": 0}, {"type": "note_off", "time": 725, "note": 57, "velocity": 101, "channel": 0}, {"type": "note_on", "time": 150, "note": 55, "velocity": 93, "channel": 0}, {"type": "note_off", "time": 650, "note": 55, "velocity": 93, "channel": 0}, {"type": "note_on", "time": 250, "note": 57, "velocity": 102, "channel": 0}, {"type": "note_off", "time": 800, "note": 57, "velocity": 102, "channel": 0}, {"type": "note_on", "time": 450, "note": 55, "velocity": 105, "channel": 0}, {"type": "note_off", "time": 800, "note": 55, "velocity": 105, "channel": 0}, {"type": "note_on", "time": 75, "note": 57, "velocity": 103, "channel": 0}, {"type": "note_off", "time": 475, "note": 57, "velocity": 103, "channel": 0}, {"type": "note_on", "time": 25, "note": 58, "velocity": 97, "channel": 0}, {"type": "note_off", "time": 450, "note": 58, "velocity": 97, "channel": 0}, {"type": "note_on", "time": 25, "note": 60, "velocity": 94, "channel": 0}, {"type": "note_off", "time": 550, "note": 60, "velocity": 94, "channel": 0}, {"type": "note_on", "time": 75, "note": 62, "velocity": 97, "channel": 0}, {"type": "note_off", "time": 525, "note": 62, "velocity": 97, "channel": 0}, {"type": "note_on", "time": 150, "note": 67, "velocity": 99, "channel": 0}, {"type": "note_off", "time": 1001, "note": 67, "velocity": 99, "channel": 0}, {"type": "note_on", "time": 13590, "note": 51, "velocity": 101, "channel": 0}, {"type": "note_off", "time": 1927, "note": 51, "velocity": 101, "channel": 0}, {"type": "note_on", "time": 25, "note": 58, "velocity": 96, "channel": 0}, {"type": "note_off", "time": 1001, "note": 58, "velocity": 96, "channel": 0}, {"type": "note_on", "time": 425, "note": 67, "velocity": 96, "channel": 0}, {"type": "note_off", "time": 1226, "note": 67, "velocity": 96, "channel": 0}, {"type": "note_on", "time": 50, "note": 65, "velocity": 100, "channel": 0}, {"type": "note_off", "time": 1376, "note": 65, "velocity": 100, "channel": 0}, {"type": "note_on", "time": 876, "note": 55, "velocity": 106, "channel": 0}, {"type": "note_off", "time": 1151, "note": 55, "velocity": 106, "channel": 0}, {"type": "note_on", "time": 75, "note": 58, "velocity": 96, "channel": 0}, {"type": "note_off", "time": 1251, "note": 58, "velocity": 96, "channel": 0}, {"type": "note_on", "time": 100, "note": 61, "velocity": 98, "channel": 0}, {"type": "note_off", "time": 625, "note": 61, "velocity": 98, "channel": 0}, {"type": "note_on", "time": 275, "note": 58, "velocity": 97, "channel": 0}, {"type": "note_off", "time": 325, "note": 58, "velocity": 97, "channel": 0}, {"type": "note_on", "time": 50, "note": 61, "velocity": 95, "channel": 0}, {"type": "note_off", "time": 275, "note": 61, "velocity": 95, "channel": 0}, {"type": "note_on", "time": 75, "note": 58, "velocity": 95, "channel": 0}, {"type": "note_off", "time": 600, "note": 58, "velocity": 95, "channel": 0}, {"type": "note_on", "time": 50, "note": 55, "velocity": 104, "channel": 0}, {"type": "note_off", "time": 926, "note": 55, "velocity": 104, "channel": 0}, {"type": "note_on", "time": 200, "note": 60, "velocity": 105, "channel": 0}, {"type": "note_off", "time": 1276, "note": 60, "velocity": 105, "channel": 0}, {"type": "note_on", "time": 75, "note": 58, "velocity": 97, "channel": 0}, {"type": "note_off", "time": 1201, "note": 58, "velocity": 97, "channel": 0}, {"type": "note_on", "time": 75, "note": 57, "velocity": 100, "channel": 0}, {"type": "note_off", "time": 1226, "note": 57, "velocity": 100, "channel": 0}, {"type": "note_on", "time": 50, "note": 55, "velocity": 108, "channel": 0}, {"type": "note_off", "time": 1151, "note": 55, "velocity": 108, "channel": 0}, {"type": "note_on", "time": 100, "note": 53, "velocity": 90, "channel": 0}, {"type": "note_off", "time": 2002, "note": 53, "velocity": 90, "channel": 0}, {"type": "note_on", "time": 250, "note": 55, "velocity": 91, "channel": 0}, {"type": "note_off", "time": 2327, "note": 55, "velocity": 91, "channel": 0}, {"type": "note_on", "time": 200, "note": 57, "velocity": 90, "channel": 0}, {"type": "note_off", "time": 2252, "note": 57, "velocity": 90, "channel": 0}, {"type": "note_on", "time": 500, "note": 60, "velocity": 81, "channel": 0}, {"type": "note_off", "time": 2202, "note": 60, "velocity": 81, "channel": 0}, {"type": "note_on", "time": 564, "note": 62, "velocity": 94, "channel": 0}, {"type": "note_off", "time": 1939, "note": 62, "velocity": 94, "channel": 0}, {"type": "note_on", "time": 123, "note": 65, "velocity": 87, "channel": 0}, {"type": "note_off", "time": 2202, "note": 65, "velocity": 87, "channel": 0}, {"type": "note_on", "time": 175, "note": 67, "velocity": 98, "channel": 0}, {"type": "note_off", "time": 1802, "note": 67, "velocity": 98, "channel": 0}, {"type": "note_on", "time": 425, "note": 69, "velocity": 103, "channel": 0}, {"type": "note_off", "time": 1176, "note": 69, "velocity": 103, "channel": 0}, {"type": "note_on", "time": 125, "note": 70, "velocity": 107, "channel": 0}, {"type": "note_off", "time": 1326, "note": 70, "velocity": 107, "channel": 0}, {"type": "note_on", "time": 125, "note": 72, "velocity": 98, "channel": 0}, {"type": "note_off", "time": 700, "note": 72, "velocity": 98, "channel": 0}, {"type": "note_on", "time": 325, "note": 68, "velocity": 103, "channel": 0}, {"type": "note_off", "time": 575, "note": 68, "velocity": 103, "channel": 0}, {"type": "note_on", "time": 0, "note": 69, "velocity": 110, "channel": 0}, {"type": "note_off", "time": 1151, "note": 69, "velocity": 110, "channel": 0}, {"type": "note_on", "time": 525, "note": 65, "velocity": 105, "channel": 0}, {"type": "note_off", "time": 2202, "note": 65, "velocity": 105, "channel": 0}, {"type": "note_on", "time": 300, "note": 63, "velocity": 90, "channel": 0}, {"type": "note_off", "time": 1777, "note": 63, "velocity": 90, "channel": 0}, {"type": "note_on", "time": 575, "note": 67, "velocity": 101, "channel": 0}, {"type": "note_off", "time": 1151, "note": 67, "velocity": 101, "channel": 0}, {"type": "note_on", "time": 100, "note": 62, "velocity": 98, "channel": 0}, {"type": "note_off", "time": 1576, "note": 62, "velocity": 98, "channel": 0}, {"type": "note_on", "time": 50, "note": 60, "velocity": 85, "channel": 0}, {"type": "note_off", "time": 575, "note": 60, "velocity": 85, "channel": 0}, {"type": "note_on", "time": 175, "note": 65, "velocity": 105, "channel": 0}, {"type": "note_off", "time": 2502, "note": 65, "velocity": 105, "channel": 0}, {"type": "note_on", "time": 9701, "note": 59, "velocity": 103, "channel": 0}, {"type": "note_off", "time": 747, "note": 59, "velocity": 103, "channel": 0}, {"type": "note_on", "time": 427, "note": 66, "velocity": 115, "channel": 0}, {"type": "note_off", "time": 783, "note": 66, "velocity": 115, "channel": 0}, {"type": "note_on", "time": 106, "note": 69, "velocity": 115, "channel": 0}, {"type": "note_off", "time": 605, "note": 69, "velocity": 115, "channel": 0}, {"type": "note_on", "time": 142, "note": 73, "velocity": 98, "channel": 0}, {"type": "note_off", "time": 711, "note": 73, "velocity": 98, "channel": 0}, {"type": "note_on", "time": 284, "note": 80, "velocity": 108, "channel": 0}, {"type": "note_off", "time": 1174, "note": 80, "velocity": 108, "channel": 0}, {"type": "note_on", "time": 157, "note": 78, "velocity": 108, "channel": 0}, {"type": "note_off", "time": 1176, "note": 78, "velocity": 108, "channel": 0}, {"type": "note_on", "time": 50, "note": 77, "velocity": 107, "channel": 0}, {"type": "note_off", "time": 750, "note": 77, "velocity": 107, "channel": 0}, {"type": "note_on", "time": 50, "note": 76, "velocity": 105, "channel": 0}, {"type": "note_off", "time": 600, "note": 76, "velocity": 105, "channel": 0}, {"type": "note_on", "time": 0, "note": 75, "velocity": 104, "channel": 0}, {"type": "note_off", "time": 375, "note": 75, "velocity": 104, "channel": 0}, {"type": "note_on", "time": 125, "note": 74, "velocity": 105, "channel": 0}, {"type": "note_off", "time": 1251, "note": 74, "velocity": 105, "channel": 0}, {"type": "note_on", "time": 125, "note": 75, "velocity": 106, "channel": 0}, {"type": "note_off", "time": 700, "note": 75, "velocity": 106, "channel": 0}, {"type": "note_on", "time": 75, "note": 74, "velocity": 106, "channel": 0}, {"type": "note_off", "time": 425, "note": 74, "velocity": 106, "channel": 0}, {"type": "note_on", "time": 75, "note": 73, "velocity": 102, "channel": 0}, {"type": "note_off", "time": 350, "note": 73, "velocity": 102, "channel": 0}, {"type": "note_on", "time": 125, "note": 72, "velocity": 103, "channel": 0}, {"type": "note_off", "time": 1101, "note": 72, "velocity": 103, "channel": 0}, {"type": "note_on", "time": 100, "note": 74, "velocity": 102, "channel": 0}, {"type": "note_off", "time": 1026, "note": 74, "velocity": 102, "channel": 0}, {"type": "note_on", "time": 25, "note": 73, "velocity": 103, "channel": 0}, {"type": "note_off", "time": 500, "note": 73, "velocity": 103, "channel": 0}, {"type": "note_on", "time": 50, "note": 71, "velocity": 103, "channel": 0}, {"type": "note_off", "time": 375, "note": 71, "velocity": 103, "channel": 0}, {"type": "note_on", "time": 150, "note": 70, "velocity": 90, "channel": 0}, {"type": "note_off", "time": 926, "note": 70, "velocity": 90, "channel": 0}, {"type": "note_on", "time": 75, "note": 72, "velocity": 104, "channel": 0}, {"type": "note_off", "time": 951, "note": 72, "velocity": 104, "channel": 0}, {"type": "note_on", "time": 50, "note": 71, "velocity": 106, "channel": 0}, {"type": "note_off", "time": 425, "note": 71, "velocity": 106, "channel": 0}, {"type": "note_on", "time": 75, "note": 70, "velocity": 105, "channel": 0}, {"type": "note_off", "time": 225, "note": 70, "velocity": 105, "channel": 0}, {"type": "note_on", "time": 100, "note": 69, "velocity": 110, "channel": 0}, {"type": "note_off", "time": 1151, "note": 69, "velocity": 110, "channel": 0}, {"type": "note_on", "time": 50, "note": 70, "velocity": 103, "channel": 0}, {"type": "note_off", "time": 1326, "note": 70, "velocity": 103, "channel": 0}, {"type": "note_on", "time": 50, "note": 67, "velocity": 102, "channel": 0}, {"type": "note_off", "time": 926, "note": 67, "velocity": 102, "channel": 0}, {"type": "note_on", "time": 100, "note": 69, "velocity": 97, "channel": 0}, {"type": "note_off", "time": 3428, "note": 69, "velocity": 97, "channel": 0}, {"type": "note_on", "time": 7133, "note": 64, "velocity": 97, "channel": 0}, {"type": "note_off", "time": 575, "note": 64, "velocity": 97, "channel": 0}, {"type": "note_on", "time": 75, "note": 66, "velocity": 101, "channel": 0}, {"type": "note_off", "time": 575, "note": 66, "velocity": 101, "channel": 0}, {"type": "note_on", "time": 50, "note": 67, "velocity": 100, "channel": 0}, {"type": "note_off", "time": 650, "note": 67, "velocity": 100, "channel": 0}, {"type": "note_on", "time": 50, "note": 64, "velocity": 98, "channel": 0}, {"type": "note_off", "time": 650, "note": 64, "velocity": 98, "channel": 0}, {"type": "note_on", "time": 50, "note": 62, "velocity": 95, "channel": 0}, {"type": "note_off", "time": 600, "note": 62, "velocity": 95, "channel": 0}, {"type": "note_on", "time": 75, "note": 61, "velocity": 92, "channel": 0}, {"type": "note_off", "time": 550, "note": 61, "velocity": 92, "channel": 0}, {"type": "note_on", "time": 0, "note": 64, "velocity": 94, "channel": 0}, {"type": "note_off", "time": 575, "note": 64, "velocity": 94, "channel": 0}, {"type": "note_on", "time": 75, "note": 58, "velocity": 96, "channel": 0}, {"type": "note_off", "time": 400, "note": 58, "velocity": 96, "channel": 0}, {"type": "note_on", "time": 125, "note": 55, "velocity": 96, "channel": 0}, {"type": "note_off", "time": 400, "note": 55, "velocity": 96, "channel": 0}, {"type": "note_on", "time": 75, "note": 57, "velocity": 106, "channel": 0}, {"type": "note_off", "time": 700, "note": 57, "velocity": 106, "channel": 0}, {"type": "note_on", "time": 75, "note": 65, "velocity": 107, "channel": 0}, {"type": "note_off", "time": 800, "note": 65, "velocity": 107, "channel": 0}, {"type": "note_on", "time": 0, "note": 64, "velocity": 100, "channel": 0}, {"type": "note_off", "time": 700, "note": 64, "velocity": 100, "channel": 0}, {"type": "note_on", "time": 75, "note": 61, "velocity": 97, "channel": 0}, {"type": "note_off", "time": 625, "note": 61, "velocity": 97, "channel": 0}, {"type": "note_on", "time": 75, "note": 62, "velocity": 101, "channel": 0}, {"type": "note_off", "time": 600, "note": 62, "velocity": 101, "channel": 0}, {"type": "note_on", "time": 75, "note": 63, "velocity": 98, "channel": 0}, {"type": "note_off", "time": 275, "note": 63, "velocity": 98, "channel": 0}, {"type": "note_on", "time": 50, "note": 64, "velocity": 100, "channel": 0}, {"type": "note_off", "time": 876, "note": 64, "velocity": 100, "channel": 0}, {"type": "note_on", "time": 0, "note": 61, "velocity": 90, "channel": 0}, {"type": "note_off", "time": 325, "note": 61, "velocity": 90, "channel": 0}, {"type": "note_on", "time": 150, "note": 62, "velocity": 105, "channel": 0}, {"type": "note_off", "time": 800, "note": 62, "velocity": 105, "channel": 0}, {"type": "note_on", "time": 25, "note": 57, "velocity": 103, "channel": 0}, {"type": "note_off", "time": 550, "note": 57, "velocity": 103, "channel": 0}, {"type": "note_on", "time": 50, "note": 55, "velocity": 103, "channel": 0}, {"type": "note_off", "time": 725, "note": 55, "velocity": 103, "channel": 0}, {"type": "note_on", "time": 75, "note": 53, "velocity": 97, "channel": 0}, {"type": "note_off", "time": 450, "note": 53, "velocity": 97, "channel": 0}, {"type": "note_on", "time": 0, "note": 57, "velocity": 94, "channel": 0}, {"type": "note_off", "time": 3178, "note": 57, "velocity": 94, "channel": 0}, {"type": "note_on", "time": 5080, "note": 62, "velocity": 110, "channel": 0}, {"type": "note_off", "time": 525, "note": 62, "velocity": 110, "channel": 0}, {"type": "note_on", "time": 150, "note": 65, "velocity": 116, "channel": 0}, {"type": "note_off", "time": 1651, "note": 65, "velocity": 116, "channel": 0}, {"type": "note_on", "time": 250, "note": 65, "velocity": 112, "channel": 0}, {"type": "note_off", "time": 1476, "note": 65, "velocity": 112, "channel": 0}, {"type": "note_on", "time": 200, "note": 65, "velocity": 114, "channel": 0}, {"type": "note_off", "time": 1001, "note": 65, "velocity": 114, "channel": 0}, {"type": "note_on", "time": 175, "note": 65, "velocity": 118, "channel": 0}, {"type": "note_off", "time": 901, "note": 65, "velocity": 118, "channel": 0}, {"type": "note_on", "time": 200, "note": 65, "velocity": 103, "channel": 0}, {"type": "note_off", "time": 1276, "note": 65, "velocity": 103, "channel": 0}, {"type": "note_on", "time": 425, "note": 65, "velocity": 98, "channel": 0}, {"type": "note_off", "time": 1001, "note": 65, "velocity": 98, "channel": 0}, {"type": "note_on", "time": 250, "note": 65, "velocity": 105, "channel": 0}, {"type": "note_off", "time": 1326, "note": 65, "velocity": 105, "channel": 0}, {"type": "note_on", "time": 300, "note": 65, "velocity": 102, "channel": 0}, {"type": "note_off", "time": 1051, "note": 65, "velocity": 102, "channel": 0}, {"type": "note_on", "time": 548, "note": 76, "velocity": 88, "channel": 0}, {"type": "note_off", "time": 4983, "note": 76, "velocity": 88, "channel": 0}, {"type": "note_on", "time": 1976, "note": 75, "velocity": 101, "channel": 0}, {"type": "note_off", "time": 475, "note": 75, "velocity": 101, "channel": 0}, {"type": "note_on", "time": 0, "note": 73, "velocity": 103, "channel": 0}, {"type": "note_off", "time": 575, "note": 73, "velocity": 103, "channel": 0}, {"type": "note_on", "time": 200, "note": 68, "velocity": 108, "channel": 0}, {"type": "note_on", "time": 926, "note": 68, "velocity": 80, "channel": 0}, {"type": "note_off", "time": 0, "note": 68, "velocity": 108, "channel": 0}, {"type": "note_off", "time": 25, "note": 68, "velocity": 80, "channel": 0}, {"type": "note_on", "time": 750, "note": 65, "velocity": 105, "channel": 0}, {"type": "note_off", "time": 1601, "note": 65, "velocity": 105, "channel": 0}, {"type": "note_on", "time": 100, "note": 63, "velocity": 88, "channel": 0}, {"type": "note_off", "time": 1001, "note": 63, "velocity": 88, "channel": 0}, {"type": "note_on", "time": 125, "note": 61, "velocity": 91, "channel": 0}, {"type": "note_off", "time": 1101, "note": 61, "velocity": 91, "channel": 0}, {"type": "note_on", "time": 225, "note": 60, "velocity": 104, "channel": 0}, {"type": "note_off", "time": 1176, "note": 60, "velocity": 104, "channel": 0}, {"type": "note_on", "time": 25, "note": 58, "velocity": 103, "channel": 0}, {"type": "note_off", "time": 1001, "note": 58, "velocity": 103, "channel": 0}, {"type": "note_on", "time": 200, "note": 57, "velocity": 93, "channel": 0}, {"type": "note_off", "time": 3428, "note": 57, "velocity": 93, "channel": 0}, {"type": "note_on", "time": 8559, "note": 64, "velocity": 95, "channel": 0}, {"type": "note_off", "time": 825, "note": 64, "velocity": 95, "channel": 0}, {"type": "note_on", "time": 50, "note": 65, "velocity": 98, "channel": 0}, {"type": "note_off", "time": 500, "note": 65, "velocity": 98, "channel": 0}, {"type": "note_on", "time": 100, "note": 69, "velocity": 96, "channel": 0}, {"type": "note_off", "time": 450, "note": 69, "velocity": 96, "channel": 0}, {"type": "note_on", "time": 50, "note": 72, "velocity": 91, "channel": 0}, {"type": "note_off", "time": 650, "note": 72, "velocity": 91, "channel": 0}, {"type": "note_on", "time": 25, "note": 76, "velocity": 103, "channel": 0}, {"type": "note_off", "time": 800, "note": 76, "velocity": 103, "channel": 0}, {"type": "note_on", "time": 25, "note": 74, "velocity": 93, "channel": 0}, {"type": "note_off", "time": 650, "note": 74, "velocity": 93, "channel": 0}, {"type": "note_on", "time": 50, "note": 73, "velocity": 90, "channel": 0}, {"type": "note_off", "time": 500, "note": 73, "velocity": 90, "channel": 0}, {"type": "note_on", "time": 100, "note": 74, "velocity": 90, "channel": 0}, {"type": "note_off", "time": 425, "note": 74, "velocity": 90, "channel": 0}, {"type": "note_on", "time": 50, "note": 77, "velocity": 111, "channel": 0}, {"type": "note_off", "time": 876, "note": 77, "velocity": 111, "channel": 0}, {"type": "note_on", "time": 50, "note": 76, "velocity": 103, "channel": 0}, {"type": "note_off", "time": 901, "note": 76, "velocity": 103, "channel": 0}, {"type": "note_on", "time": 50, "note": 73, "velocity": 97, "channel": 0}, {"type": "note_off", "time": 375, "note": 73, "velocity": 97, "channel": 0}, {"type": "note_on", "time": 50, "note": 74, "velocity": 98, "channel": 0}, {"type": "note_off", "time": 400, "note": 74, "velocity": 98, "channel": 0}, {"type": "note_on", "time": 25, "note": 72, "velocity": 96, "channel": 0}, {"type": "note_off", "time": 600, "note": 72, "velocity": 96, "channel": 0}, {"type": "note_on", "time": 25, "note": 71, "velocity": 98, "channel": 0}, {"type": "note_off", "time": 450, "note": 71, "velocity": 98, "channel": 0}, {"type": "note_on", "time": 100, "note": 70, "velocity": 105, "channel": 0}, {"type": "note_off", "time": 575, "note": 70, "velocity": 105, "channel": 0}, {"type": "note_on", "time": 50, "note": 69, "velocity": 112, "channel": 0}, {"type": "note_off", "time": 850, "note": 69, "velocity": 112, "channel": 0}, {"type": "note_on", "time": 25, "note": 67, "velocity": 106, "channel": 0}, {"type": "note_off", "time": 425, "note": 67, "velocity": 106, "channel": 0}, {"type": "note_on", "time": 50, "note": 65, "velocity": 103, "channel": 0}, {"type": "note_off", "time": 901, "note": 65, "velocity": 103, "channel": 0}, {"type": "note_on", "time": 75, "note": 62, "velocity": 84, "channel": 0}, {"type": "note_off", "time": 700, "note": 62, "velocity": 84, "channel": 0}, {"type": "note_on", "time": 275, "note": 67, "velocity": 112, "channel": 0}, {"type": "note_off", "time": 800, "note": 67, "velocity": 112, "channel": 0}, {"type": "note_on", "time": 50, "note": 65, "velocity": 109, "channel": 0}, {"type": "note_off", "time": 675, "note": 65, "velocity": 109, "channel": 0}, {"type": "note_on", "time": 125, "note": 63, "velocity": 90, "channel": 0}, {"type": "note_off", "time": 525, "note": 63, "velocity": 90, "channel": 0}, {"type": "note_on", "time": 100, "note": 55, "velocity": 89, "channel": 0}, {"type": "note_off", "time": 575, "note": 55, "velocity": 89, "channel": 0}, {"type": "note_on", "time": 50, "note": 58, "velocity": 102, "channel": 0}, {"type": "note_off", "time": 575, "note": 58, "velocity": 102, "channel": 0}, {"type": "note_on", "time": 100, "note": 61, "velocity": 97, "channel": 0}, {"type": "note_off", "time": 675, "note": 61, "velocity": 97, "channel": 0}, {"type": "note_on", "time": 50, "note": 58, "velocity": 100, "channel": 0}, {"type": "note_off", "time": 400, "note": 58, "velocity": 100, "channel": 0}, {"type": "note_on", "time": 75, "note": 60, "velocity": 94, "channel": 0}, {"type": "note_off", "time": 125, "note": 60, "velocity": 94, "channel": 0}, {"type": "note_on", "time": 75, "note": 58, "velocity": 101, "channel": 0}, {"type": "note_off", "time": 350, "note": 58, "velocity": 101, "channel": 0}, {"type": "note_on", "time": 50, "note": 55, "velocity": 105, "channel": 0}, {"type": "note_off", "time": 500, "note": 55, "velocity": 105, "channel": 0}, {"type": "note_on", "time": 100, "note": 60, "velocity": 105, "channel": 0}, {"type": "note_off", "time": 825, "note": 60, "velocity": 105, "channel": 0}, {"type": "note_on", "time": 50, "note": 57, "velocity": 100, "channel": 0}, {"type": "note_off", "time": 400, "note": 57, "velocity": 100, "channel": 0}, {"type": "note_on", "time": 50, "note": 58, "velocity": 103, "channel": 0}, {"type": "note_off", "time": 575, "note": 58, "velocity": 103, "channel": 0}, {"type": "note_on", "time": 100, "note": 61, "velocity": 94, "channel": 0}, {"type": "note_off", "time": 700, "note": 61, "velocity": 94, "channel": 0}, {"type": "note_on", "time": 125, "note": 69, "velocity": 109, "channel": 0}, {"type": "note_off", "time": 825, "note": 69, "velocity": 109, "channel": 0}, {"type": "note_on", "time": 75, "note": 67, "velocity": 102, "channel": 0}, {"type": "note_off", "time": 500, "note": 67, "velocity": 102, "channel": 0}, {"type": "note_on", "time": 0, "note": 64, "velocity": 91, "channel": 0}, {"type": "note_off", "time": 700, "note": 64, "velocity": 91, "channel": 0}, {"type": "note_on", "time": 50, "note": 60, "velocity": 90, "channel": 0}, {"type": "note_off", "time": 525, "note": 60, "velocity": 90, "channel": 0}, {"type": "note_on", "time": 25, "note": 67, "velocity": 108, "channel": 0}, {"type": "note_off", "time": 675, "note": 67, "velocity": 108, "channel": 0}, {"type": "note_on", "time": 75, "note": 68, "velocity": 105, "channel": 0}, {"type": "note_off", "time": 575, "note": 68, "velocity": 105, "channel": 0}, {"type": "note_on", "time": 0, "note": 64, "velocity": 91, "channel": 0}, {"type": "note_off", "time": 625, "note": 64, "velocity": 91, "channel": 0}, {"type": "note_on", "time": 137, "note": 60, "velocity": 86, "channel": 0}, {"type": "note_off", "time": 400, "note": 60, "velocity": 86, "channel": 0}, {"type": "note_on", "time": 12, "note": 61, "velocity": 98, "channel": 0}, {"type": "note_off", "time": 675, "note": 61, "velocity": 98, "channel": 0}, {"type": "note_on", "time": 50, "note": 62, "velocity": 99, "channel": 0}, {"type": "note_off", "time": 825, "note": 62, "velocity": 99, "channel": 0}, {"type": "note_on", "time": 525, "note": 55, "velocity": 105, "channel": 0}, {"type": "note_off", "time": 625, "note": 55, "velocity": 105, "channel": 0}, {"type": "note_on", "time": 50, "note": 57, "velocity": 104, "channel": 0}, {"type": "note_off", "time": 1076, "note": 57, "velocity": 104, "channel": 0}, {"type": "note_on", "time": 150, "note": 60, "velocity": 100, "channel": 0}, {"type": "note_off", "time": 275, "note": 60, "velocity": 100, "channel": 0}, {"type": "note_on", "time": 275, "note": 64, "velocity": 96, "channel": 0}, {"type": "note_off", "time": 325, "note": 64, "velocity": 96, "channel": 0}, {"type": "note_on", "time": 150, "note": 67, "velocity": 102, "channel": 0}, {"type": "note_off", "time": 1076, "note": 67, "velocity": 102, "channel": 0}, {"type": "note_on", "time": 25, "note": 64, "velocity": 98, "channel": 0}, {"type": "note_off", "time": 1301, "note": 64, "velocity": 98, "channel": 0}, {"type": "note_on", "time": 75, "note": 60, "velocity": 93, "channel": 0}, {"type": "note_off", "time": 600, "note": 60, "velocity": 93, "channel": 0}, {"type": "note_on", "time": 0, "note": 67, "velocity": 92, "channel": 0}, {"type": "note_off", "time": 3554, "note": 67, "velocity": 92, "channel": 0}, {"type": "note_on", "time": 6532, "note": 65, "velocity": 105, "channel": 0}, {"type": "note_off", "time": 1226, "note": 65, "velocity": 105, "channel": 0}, {"type": "note_on", "time": 25, "note": 64, "velocity": 103, "channel": 0}, {"type": "note_off", "time": 1501, "note": 64, "velocity": 103, "channel": 0}, {"type": "note_on", "time": 50, "note": 62, "velocity": 87, "channel": 0}, {"type": "note_off", "time": 675, "note": 62, "velocity": 87, "channel": 0}, {"type": "note_on", "time": 200, "note": 65, "velocity": 102, "channel": 0}, {"type": "note_off", "time": 1451, "note": 65, "velocity": 102, "channel": 0}, {"type": "note_on", "time": 50, "note": 62, "velocity": 104, "channel": 0}, {"type": "note_off", "time": 1126, "note": 62, "velocity": 104, "channel": 0}, {"type": "note_on", "time": 75, "note": 60, "velocity": 96, "channel": 0}, {"type": "note_off", "time": 425, "note": 60, "velocity": 96, "channel": 0}, {"type": "note_on", "time": 50, "note": 62, "velocity": 99, "channel": 0}, {"type": "note_off", "time": 525, "note": 62, "velocity": 99, "channel": 0}, {"type": "note_on", "time": 25, "note": 60, "velocity": 103, "channel": 0}, {"type": "note_off", "time": 325, "note": 60, "velocity": 103, "channel": 0}, {"type": "note_on", "time": 50, "note": 58, "velocity": 101, "channel": 0}, {"type": "note_off", "time": 901, "note": 58, "velocity": 101, "channel": 0}, {"type": "note_on", "time": 500, "note": 62, "velocity": 110, "channel": 0}, {"type": "note_off", "time": 1551, "note": 62, "velocity": 110, "channel": 0}, {"type": "note_on", "time": 25, "note": 58, "velocity": 107, "channel": 0}, {"type": "note_off", "time": 800, "note": 58, "velocity": 107, "channel": 0}, {"type": "note_on", "time": 100, "note": 57, "velocity": 109, "channel": 0}, {"type": "note_off", "time": 450, "note": 57, "velocity": 109, "channel": 0}, {"type": "note_on", "time": 75, "note": 58, "velocity": 107, "channel": 0}, {"type": "note_off", "time": 375, "note": 58, "velocity": 107, "channel": 0}, {"type": "note_on", "time": 125, "note": 57, "velocity": 109, "channel": 0}, {"type": "note_off", "time": 725, "note": 57, "velocity": 109, "channel": 0}, {"type": "note_on", "time": 50, "note": 55, "velocity": 107, "channel": 0}, {"type": "note_off", "time": 1026, "note": 55, "velocity": 107, "channel": 0}, {"type": "note_on", "time": 25, "note": 64, "velocity": 108, "channel": 0}, {"type": "note_off", "time": 475, "note": 64, "velocity": 108, "channel": 0}, {"type": "note_on", "time": 75, "note": 65, "velocity": 110, "channel": 0}, {"type": "note_off", "time": 2152, "note": 65, "velocity": 110, "channel": 0}, {"type": "note_on", "time": 50, "note": 61, "velocity": 96, "channel": 0}, {"type": "note_off", "time": 825, "note": 61, "velocity": 96, "channel": 0}, {"type": "note_on", "time": 50, "note": 58, "velocity": 106, "channel": 0}, {"type": "note_off", "time": 926, "note": 58, "velocity": 106, "channel": 0}, {"type": "note_on", "time": 75, "note": 55, "velocity": 99, "channel": 0}, {"type": "note_off", "time": 1026, "note": 55, "velocity": 99, "channel": 0}, {"type": "note_on", "time": 225, "note": 63, "velocity": 90, "channel": 0}, {"type": "note_off", "time": 2202, "note": 63, "velocity": 90, "channel": 0}, {"type": "note_on", "time": 100, "note": 61, "velocity": 88, "channel": 0}, {"type": "note_off", "time": 1301, "note": 61, "velocity": 88, "channel": 0}, {"type": "note_on", "time": 300, "note": 62, "velocity": 89, "channel": 0}, {"type": "note_off", "time": 375, "note": 62, "velocity": 89, "channel": 0}, {"type": "note_on", "time": 125, "note": 64, "velocity": 77, "channel": 0}, {"type": "note_off", "time": 4805, "note": 64, "velocity": 77, "channel": 0}, {"type": "end_of_track", "time": 0}]]}