{"ticks_per_beat": 18480, "tracks": [[{"type": "track_name", "name": "Melody", "time": 0}, {"type": "set_tempo", "tempo": 833333, "time": 0}, {"type": "key_signature", "key": "Eb", "time": 0}, {"type": "time_signature", "numerator": 4, "denominator": 4, "clocks_per_click": 24, "notated_32nd_notes_per_beat": 8, "time": 0}, {"type": "note_on", "time": 100596, "note": 68, "velocity": 111, "channel": 0}, {"type": "note_off", "time": 1991, "note": 68, "velocity": 111, "channel": 0}, {"type": "note_on", "time": 551, "note": 67, "velocity": 116, "channel": 0}, {"type": "note_off", "time": 1493, "note": 67, "velocity": 116, "channel": 0}, {"type": "note_on", "time": 244, "note": 65, "velocity": 111, "channel": 0}, {"type": "note_off", "time": 1448, "note": 65, "velocity": 111, "channel": 0}, {"type": "note_on", "time": 386, "note": 63, "velocity": 107, "channel": 0}, {"type": "note_off", "time": 1946, "note": 63, "velocity": 107, "channel": 0}, {"type": "note_on", "time": 499, "note": 62, "velocity": 104, "channel": 0}, {"type": "note_off", "time": 1357, "note": 62, "velocity": 104, "channel": 0}, {"type": "note_on", "time": 154, "note": 60, "velocity": 104, "channel": 0}, {"type": "note_off", "time": 2140, "note": 60, "velocity": 104, "channel": 0}, {"type": "note_on", "time": 128, "note": 59, "velocity": 94, "channel": 0}, {"type": "note_off", "time": 13484, "note": 59, "velocity": 94, "channel": 0}, {"type": "note_on", "time": 96, "note": 67, "velocity": 110, "channel": 0}, {"type": "note_off", "time": 4215, "note": 67, "velocity": 110, "channel": 0}, {"type": "note_on", "time": 209, "note": 63, "velocity": 90, "channel": 0}, {"type": "note_off", "time": 13935, "note": 63, "velocity": 90, "channel": 0}, {"type": "note_on", "time": 10459, "note": 55, "velocity": 127, "channel": 0}, {"type": "note_off", "time": 4650, "note": 55, "velocity": 127, "channel": 0}, {"type": "note_on", "time": 177, "note": 57, "velocity": 111, "channel": 0}, {"type": "note_off", "time": 4586, "note": 57, "velocity": 111, "channel": 0}, {"type": "note_on", "time": 80, "note": 59, "velocity": 108, "channel": 0}, {"type": "note_off", "time": 3652, "note": 59, "velocity": 108, "channel": 0}, {"type": "note_on", "time": 80, "note": 62, "velocity": 116, "channel": 0}, {"type": "note_off", "time": 4859, "note": 62, "velocity": 116, "channel": 0}, {"type": "note_on", "time": 241, "note": 60, "velocity": 116, "channel": 0}, {"type": "note_off", "time": 2993, "note": 60, "velocity": 116, "channel": 0}, {"type": "note_on", "time": 579, "note": 58, "velocity": 99, "channel": 0}, {"type": "note_off", "time": 1882, "note": 58, "velocity": 99, "channel": 0}, {"type": "note_on", "time": 160, "note": 59, "velocity": 92, "channel": 0}, {"type": "note_off", "time": 3443, "note": 59, "velocity": 92, "channel": 0}, {"type": "note_on", "time": 418, "note": 60, "velocity": 98, "channel": 0}, {"type": "note_off", "time": 4119, "note": 60, "velocity": 98, "channel": 0}, {"type": "note_on", "time": 289, "note": 62, "velocity": 110, "channel": 0}, {"type": "note_off", "time": 4521, "note": 62, "velocity": 110, "channel": 0}, {"type": "note_on", "time": 1737, "note": 63, "velocity": 111, "channel": 0}, {"type": "note_off", "time": 4923, "note": 63, "velocity": 111, "channel": 0}, {"type": "note_on", "time": 96, "note": 65, "velocity": 113, "channel": 0}, {"type": "note_off", "time": 4264, "note": 65, "velocity": 113, "channel": 0}, {"type": "note_on", "time": 160, "note": 63, "velocity": 100, "channel": 0}, {"type": "note_off", "time": 4569, "note": 63, "velocity": 100, "channel": 0}, {"type": "note_on", "time": 48, "note": 66, "velocity": 112, "channel": 0}, {"type": "note_off", "time": 2091, "note": 66, "velocity": 112, "channel": 0}, {"type": "note_on", "time": 287, "note": 67, "velocity": 109, "channel": 0}, {"type": "note_off", "time": 4638, "note": 67, "velocity": 109, "channel": 0}, {"type": "note_on", "time": 545, "note": 67, "velocity": 103, "channel": 0}, {"type": "note_off", "time": 20886, "note": 67, "velocity": 103, "channel": 0}, {"type": "note_on", "time": 12857, "note": 65, "velocity": 117, "channel": 0}, {"type": "note_off", "time": 1850, "note": 65, "velocity": 117, "channel": 0}, {"type": "note_on", "time": 289, "note": 64, "velocity": 112, "channel": 0}, {"type": "note_off", "time": 1625, "note": 64, "velocity": 112, "channel": 0}, {"type": "note_on", "time": 177, "note": 63, "velocity": 99, "channel": 0}, {"type": "note_off", "time": 10749, "note": 63, "velocity": 99, "channel": 0}, {"type": "note_on", "time": 3155, "note": 61, "velocity": 107, "channel": 0}, {"type": "note_off", "time": 2534, "note": 61, "velocity": 107, "channel": 0}, {"type": "note_on", "time": 333, "note": 59, "velocity": 103, "channel": 0}, {"type": "note_off", "time": 2113, "note": 59, "velocity": 103, "channel": 0}, {"type": "note_on", "time": 165, "note": 61, "velocity": 101, "channel": 0}, {"type": "note_off", "time": 1493, "note": 61, "velocity": 101, "channel": 0}, {"type": "note_on", "time": 143, "note": 59, "velocity": 100, "channel": 0}, {"type": "note_off", "time": 1515, "note": 59, "velocity": 100, "channel": 0}, {"type": "note_on", "time": 162, "note": 57, "velocity": 97, "channel": 0}, {"type": "note_off", "time": 3213, "note": 57, "velocity": 97, "channel": 0}, {"type": "note_on", "time": 792, "note": 58, "velocity": 79, "channel": 0}, {"type": "note_off", "time": 15206, "note": 58, "velocity": 79, "channel": 0}, {"type": "note_on", "time": 9345, "note": 62, "velocity": 110, "channel": 0}, {"type": "note_off", "time": 1810, "note": 62, "velocity": 110, "channel": 0}, {"type": "note_on", "time": 430, "note": 63, "velocity": 113, "channel": 0}, {"type": "note_off", "time": 4797, "note": 63, "velocity": 113, "channel": 0}, {"type": "note_on", "time": 882, "note": 63, "velocity": 118, "channel": 0}, {"type": "note_off", "time": 4797, "note": 63, "velocity": 118, "channel": 0}, {"type": "note_on", "time": 316, "note": 63, "velocity": 106, "channel": 0}, {"type": "note_off", "time": 26837, "note": 63, "velocity": 106, "channel": 0}, {"type": "note_on", "time": 1040, "note": 62, "velocity": 101, "channel": 0}, {"type": "note_off", "time": 4570, "note": 62, "velocity": 101, "channel": 0}, {"type": "note_on", "time": 332, "note": 63, "velocity": 104, "channel": 0}, {"type": "note_off", "time": 3892, "note": 63, "velocity": 104, "channel": 0}, {"type": "note_on", "time": 677, "note": 67, "velocity": 95, "channel": 0}, {"type": "note_off", "time": 24973, "note": 67, "velocity": 95, "channel": 0}, {"type": "note_on", "time": 19084, "note": 76, "velocity": 103, "channel": 0}, {"type": "note_off", "time": 1781, "note": 76, "velocity": 103, "channel": 0}, {"type": "note_on", "time": 407, "note": 73, "velocity": 110, "channel": 0}, {"type": "note_off", "time": 1416, "note": 73, "velocity": 110, "channel": 0}, {"type": "note_on", "time": 112, "note": 71, "velocity": 107, "channel": 0}, {"type": "note_off", "time": 984, "note": 71, "velocity": 107, "channel": 0}, {"type": "note_on", "time": 254, "note": 69, "velocity": 107, "channel": 0}, {"type": "note_off", "time": 4071, "note": 69, "velocity": 107, "channel": 0}, {"type": "note_on", "time": 1367, "note": 67, "velocity": 110, "channel": 0}, {"type": "note_off", "time": 4183, "note": 67, "velocity": 110, "channel": 0}, {"type": "note_on", "time": 80, "note": 66, "velocity": 114, "channel": 0}, {"type": "note_off", "time": 4505, "note": 66, "velocity": 114, "channel": 0}, {"type": "note_on", "time": 1366, "note": 63, "velocity": 99, "channel": 0}, {"type": "note_off", "time": 6652, "note": 63, "velocity": 99, "channel": 0}, {"type": "note_on", "time": 339, "note": 60, "velocity": 109, "channel": 0}, {"type": "note_off", "time": 4073, "note": 60, "velocity": 109, "channel": 0}, {"type": "note_on", "time": 264, "note": 58, "velocity": 73, "channel": 0}, {"type": "note_off", "time": 11653, "note": 58, "velocity": 73, "channel": 0}, {"type": "note_on", "time": 10713, "note": 61, "velocity": 110, "channel": 0}, {"type": "note_off", "time": 2703, "note": 61, "velocity": 110, "channel": 0}, {"type": "note_on", "time": 325, "note": 62, "velocity": 103, "channel": 0}, {"type": "note_off", "time": 3982, "note": 62, "velocity": 103, "channel": 0}, {"type": "note_on", "time": 90, "note": 67, "velocity": 110, "channel": 0}, {"type": "note_off", "time": 3892, "note": 67, "velocity": 110, "channel": 0}, {"type": "note_on", "time": 248, "note": 69, "velocity": 111, "channel": 0}, {"type": "note_off", "time": 4638, "note": 69, "velocity": 111, "channel": 0}, {"type": "note_on", "time": 1086, "note": 70, "velocity": 110, "channel": 0}, {"type": "note_off", "time": 5838, "note": 70, "velocity": 110, "channel": 0}, {"type": "note_on", "time": 248, "note": 70, "velocity": 113, "channel": 0}, {"type": "note_off", "time": 4480, "note": 70, "velocity": 113, "channel": 0}, {"type": "note_on", "time": 475, "note": 70, "velocity": 111, "channel": 0}, {"type": "note_off", "time": 5295, "note": 70, "velocity": 111, "channel": 0}, {"type": "note_on", "time": 520, "note": 70, "velocity": 107, "channel": 0}, {"type": "note_off", "time": 4684, "note": 70, "velocity": 107, "channel": 0}, {"type": "note_on", "time": 362, "note": 69, "velocity": 106, "channel": 0}, {"type": "note_off", "time": 4570, "note": 69, "velocity": 106, "channel": 0}, {"type": "note_on", "time": 517, "note": 70, "velocity": 106, "channel": 0}, {"type": "note_off", "time": 4344, "note": 70, "velocity": 106, "channel": 0}, {"type": "note_on", "time": 930, "note": 71, "velocity": 100, "channel": 0}, {"type": "note_off", "time": 1855, "note": 71, "velocity": 100, "channel": 0}, {"type": "note_on", "time": 339, "note": 72, "velocity": 104, "channel": 0}, {"type": "note_off", "time": 4503, "note": 72, "velocity": 104, "channel": 0}, {"type": "note_on", "time": 835, "note": 72, "velocity": 89, "channel": 0}, {"type": "note_off", "time": 20790, "note": 72, "velocity": 89, "channel": 0}, {"type": "note_on", "time": 14534, "note": 63, "velocity": 99, "channel": 0}, {"type": "note_off", "time": 1606, "note": 63, "velocity": 99, "channel": 0}, {"type": "note_on", "time": 135, "note": 64, "velocity": 100, "channel": 0}, {"type": "note_off", "time": 3213, "note": 64, "velocity": 100, "channel": 0}, {"type": "note_on", "time": 114, "note": 67, "velocity": 108, "channel": 0}, {"type": "note_off", "time": 2190, "note": 67, "velocity": 108, "channel": 0}, {"type": "note_on", "time": 110, "note": 69, "velocity": 104, "channel": 0}, {"type": "note_off", "time": 1427, "note": 69, "velocity": 104, "channel": 0}, {"type": "note_on", "time": 66, "note": 67, "velocity": 105, "channel": 0}, {"type": "note_off", "time": 1781, "note": 67, "velocity": 105, "channel": 0}, {"type": "note_on", "time": 165, "note": 66, "velocity": 112, "channel": 0}, {"type": "note_off", "time": 3241, "note": 66, "velocity": 112, "channel": 0}, {"type": "note_on", "time": 210, "note": 64, "velocity": 104, "channel": 0}, {"type": "note_off", "time": 5431, "note": 64, "velocity": 104, "channel": 0}, {"type": "note_on", "time": 2169, "note": 57, "velocity": 90, "channel": 0}, {"type": "note_off", "time": 2301, "note": 57, "velocity": 90, "channel": 0}, {"type": "note_on", "time": 177, "note": 60, "velocity": 114, "channel": 0}, {"type": "note_off", "time": 5406, "note": 60, "velocity": 114, "channel": 0}, {"type": "note_on", "time": 128, "note": 63, "velocity": 115, "channel": 0}, {"type": "note_off", "time": 5422, "note": 63, "velocity": 115, "channel": 0}, {"type": "note_on", "time": 273, "note": 62, "velocity": 98, "channel": 0}, {"type": "note_off", "time": 11038, "note": 62, "velocity": 98, "channel": 0}, {"type": "note_on", "time": 10908, "note": 69, "velocity": 121, "channel": 0}, {"type": "note_off", "time": 2783, "note": 69, "velocity": 121, "channel": 0}, {"type": "note_on", "time": 452, "note": 70, "velocity": 115, "channel": 0}, {"type": "note_off", "time": 3688, "note": 70, "velocity": 115, "channel": 0}, {"type": "note_on", "time": 610, "note": 70, "velocity": 117, "channel": 0}, {"type": "note_off", "time": 4276, "note": 70, "velocity": 117, "channel": 0}, {"type": "note_on", "time": 724, "note": 70, "velocity": 92, "channel": 0}, {"type": "note_off", "time": 24733, "note": 70, "velocity": 92, "channel": 0}, {"type": "note_on", "time": 407, "note": 69, "velocity": 95, "channel": 0}, {"type": "note_off", "time": 4933, "note": 69, "velocity": 95, "channel": 0}, {"type": "note_on", "time": 362, "note": 70, "velocity": 99, "channel": 0}, {"type": "note_off", "time": 4616, "note": 70, "velocity": 99, "channel": 0}, {"type": "note_on", "time": 203, "note": 72, "velocity": 88, "channel": 0}, {"type": "note_off", "time": 26656, "note": 72, "velocity": 88, "channel": 0}, {"type": "note_on", "time": 38807, "note": 70, "velocity": 104, "channel": 0}, {"type": "note_off", "time": 3982, "note": 70, "velocity": 104, "channel": 0}, {"type": "note_on", "time": 407, "note": 69, "velocity": 107, "channel": 0}, {"type": "note_off", "time": 4955, "note": 69, "velocity": 107, "channel": 0}, {"type": "note_on", "time": 384, "note": 70, "velocity": 107, "channel": 0}, {"type": "note_off", "time": 4661, "note": 70, "velocity": 107, "channel": 0}, {"type": "note_on", "time": 183, "note": 72, "velocity": 98, "channel": 0}, {"type": "note_off", "time": 2349, "note": 72, "velocity": 98, "channel": 0}, {"type": "note_on", "time": 205, "note": 75, "velocity": 94, "channel": 0}, {"type": "note_off", "time": 54127, "note": 75, "velocity": 94, "channel": 0}, {"type": "note_on", "time": 1504, "note": 75, "velocity": 96, "channel": 0}, {"type": "note_off", "time": 5406, "note": 75, "velocity": 96, "channel": 0}, {"type": "note_on", "time": 418, "note": 75, "velocity": 93, "channel": 0}, {"type": "note_off", "time": 4698, "note": 75, "velocity": 93, "channel": 0}, {"type": "note_on", "time": 1255, "note": 75, "velocity": 98, "channel": 0}, {"type": "note_off", "time": 4795, "note": 75, "velocity": 98, "channel": 0}, {"type": "note_on", "time": 177, "note": 73, "velocity": 97, "channel": 0}, {"type": "note_off", "time": 1641, "note": 73, "velocity": 97, "channel": 0}, {"type": "note_on", "time": 128, "note": 71, "velocity": 103, "channel": 0}, {"type": "note_off", "time": 1303, "note": 71, "velocity": 103, "channel": 0}, {"type": "note_on", "time": 273, "note": 70, "velocity": 99, "channel": 0}, {"type": "note_off", "time": 5036, "note": 70, "velocity": 99, "channel": 0}, {"type": "note_on", "time": 492, "note": 70, "velocity": 104, "channel": 0}, {"type": "note_off", "time": 4163, "note": 70, "velocity": 104, "channel": 0}, {"type": "note_on", "time": 588, "note": 70, "velocity": 88, "channel": 0}, {"type": "note_off", "time": 14980, "note": 70, "velocity": 88, "channel": 0}, {"type": "note_on", "time": 25684, "note": 61, "velocity": 72, "channel": 0}, {"type": "note_off", "time": 1432, "note": 61, "velocity": 72, "channel": 0}, {"type": "note_on", "time": 2124, "note": 63, "velocity": 102, "channel": 0}, {"type": "note_off", "time": 3942, "note": 63, "velocity": 102, "channel": 0}, {"type": "note_on", "time": 531, "note": 65, "velocity": 106, "channel": 0}, {"type": "note_off", "time": 3668, "note": 65, "velocity": 106, "channel": 0}, {"type": "note_on", "time": 531, "note": 66, "velocity": 114, "channel": 0}, {"type": "note_off", "time": 4875, "note": 66, "velocity": 114, "channel": 0}, {"type": "note_on", "time": 418, "note": 68, "velocity": 117, "channel": 0}, {"type": "note_off", "time": 4473, "note": 68, "velocity": 117, "channel": 0}, {"type": "note_on", "time": 160, "note": 70, "velocity": 112, "channel": 0}, {"type": "note_off", "time": 3540, "note": 70, "velocity": 112, "channel": 0}, {"type": "note_on", "time": 402, "note": 68, "velocity": 119, "channel": 0}, {"type": "note_off", "time": 3797, "note": 68, "velocity": 119, "channel": 0}, {"type": "note_on", "time": 257, "note": 66, "velocity": 115, "channel": 0}, {"type": "note_off", "time": 5084, "note": 66, "velocity": 115, "channel": 0}, {"type": "note_on", "time": 514, "note": 65, "velocity": 113, "channel": 0}, {"type": "note_off", "time": 4312, "note": 65, "velocity": 113, "channel": 0}, {"type": "note_on", "time": 370, "note": 63, "velocity": 101, "channel": 0}, {"type": "note_off", "time": 3958, "note": 63, "velocity": 101, "channel": 0}, {"type": "note_on", "time": 1402, "note": 58, "velocity": 85, "channel": 0}, {"type": "note_off", "time": 1629, "note": 58, "velocity": 85, "channel": 0}, {"type": "note_on", "time": 926, "note": 60, "velocity": 109, "channel": 0}, {"type": "note_off", "time": 2262, "note": 60, "velocity": 109, "channel": 0}, {"type": "note_on", "time": 166, "note": 62, "velocity": 109, "channel": 0}, {"type": "note_off", "time": 6034, "note": 62, "velocity": 109, "channel": 0}, {"type": "note_on", "time": 209, "note": 70, "velocity": 103, "channel": 0}, {"type": "note_off", "time": 5068, "note": 70, "velocity": 103, "channel": 0}, {"type": "note_on", "time": 868, "note": 60, "velocity": 106, "channel": 0}, {"type": "note_off", "time": 2719, "note": 60, "velocity": 106, "channel": 0}, {"type": "note_on", "time": 241, "note": 61, "velocity": 103, "channel": 0}, {"type": "note_off", "time": 4698, "note": 61, "velocity": 103, "channel": 0}, {"type": "note_on", "time": 10048, "note": 58, "velocity": 88, "channel": 0}, {"type": "note_off", "time": 2898, "note": 58, "velocity": 88, "channel": 0}, {"type": "note_on", "time": 634, "note": 61, "velocity": 103, "channel": 0}, {"type": "note_off", "time": 1576, "note": 61, "velocity": 103, "channel": 0}, {"type": "note_on", "time": 289, "note": 63, "velocity": 98, "channel": 0}, {"type": "note_off", "time": 1544, "note": 63, "velocity": 98, "channel": 0}, {"type": "note_on", "time": 0, "note": 61, "velocity": 103, "channel": 0}, {"type": "note_off", "time": 2027, "note": 61, "velocity": 103, "channel": 0}, {"type": "note_on", "time": 199, "note": 58, "velocity": 80, "channel": 0}, {"type": "note_off", "time": 1834, "note": 58, "velocity": 80, "channel": 0}, {"type": "note_on", "time": 743, "note": 60, "velocity": 114, "channel": 0}, {"type": "note_off", "time": 5245, "note": 60, "velocity": 114, "channel": 0}, {"type": "note_on", "time": 765, "note": 68, "velocity": 107, "channel": 0}, {"type": "note_off", "time": 12744, "note": 68, "velocity": 107, "channel": 0}, {"type": "note_on", "time": 400, "note": 66, "velocity": 113, "channel": 0}, {"type": "note_off", "time": 1963, "note": 66, "velocity": 113, "channel": 0}, {"type": "note_on", "time": 370, "note": 65, "velocity": 109, "channel": 0}, {"type": "note_off", "time": 2091, "note": 65, "velocity": 109, "channel": 0}, {"type": "note_on", "time": 241, "note": 63, "velocity": 88, "channel": 0}, {"type": "note_off", "time": 1255, "note": 63, "velocity": 88, "channel": 0}, {"type": "note_on", "time": 965, "note": 58, "velocity": 88, "channel": 0}, {"type": "note_off", "time": 3041, "note": 58, "velocity": 88, "channel": 0}, {"type": "note_on", "time": 482, "note": 60, "velocity": 102, "channel": 0}, {"type": "note_off", "time": 2317, "note": 60, "velocity": 102, "channel": 0}, {"type": "note_on", "time": 305, "note": 61, "velocity": 94, "channel": 0}, {"type": "note_off", "time": 4746, "note": 61, "velocity": 94, "channel": 0}, {"type": "note_on", "time": 321, "note": 60, "velocity": 102, "channel": 0}, {"type": "note_off", "time": 6694, "note": 60, "velocity": 102, "channel": 0}, {"type": "note_on", "time": 1094, "note": 60, "velocity": 96, "channel": 0}, {"type": "note_off", "time": 3379, "note": 60, "velocity": 96, "channel": 0}, {"type": "note_on", "time": 28755, "note": 65, "velocity": 112, "channel": 0}, {"type": "note_off", "time": 1930, "note": 65, "velocity": 112, "channel": 0}, {"type": "note_on", "time": 169, "note": 66, "velocity": 116, "channel": 0}, {"type": "note_off", "time": 9775, "note": 66, "velocity": 116, "channel": 0}, {"type": "note_on", "time": 2127, "note": 63, "velocity": 97, "channel": 0}, {"type": "note_off", "time": 5702, "note": 63, "velocity": 97, "channel": 0}, {"type": "note_on", "time": 497, "note": 63, "velocity": 99, "channel": 0}, {"type": "note_off", "time": 5136, "note": 63, "velocity": 99, "channel": 0}, {"type": "note_on", "time": 1063, "note": 63, "velocity": 85, "channel": 0}, {"type": "note_off", "time": 26656, "note": 63, "velocity": 85, "channel": 0}, {"type": "note_on", "time": 15569, "note": 56, "velocity": 111, "channel": 0}, {"type": "note_off", "time": 2751, "note": 56, "velocity": 111, "channel": 0}, {"type": "note_on", "time": 273, "note": 57, "velocity": 101, "channel": 0}, {"type": "note_off", "time": 3781, "note": 57, "velocity": 101, "channel": 0}, {"type": "note_on", "time": 342, "note": 60, "velocity": 105, "channel": 0}, {"type": "note_off", "time": 3937, "note": 60, "velocity": 105, "channel": 0}, {"type": "note_on", "time": 466, "note": 68, "velocity": 100, "channel": 0}, {"type": "note_off", "time": 24394, "note": 68, "velocity": 100, "channel": 0}, {"type": "note_on", "time": 754, "note": 66, "velocity": 108, "channel": 0}, {"type": "note_off", "time": 5883, "note": 66, "velocity": 108, "channel": 0}, {"type": "note_on", "time": 2790, "note": 63, "velocity": 89, "channel": 0}, {"type": "note_off", "time": 2699, "note": 63, "velocity": 89, "channel": 0}, {"type": "note_on", "time": 243, "note": 65, "velocity": 103, "channel": 0}, {"type": "note_off", "time": 1493, "note": 65, "velocity": 103, "channel": 0}, {"type": "note_on", "time": 110, "note": 66, "velocity": 105, "channel": 0}, {"type": "note_off", "time": 2057, "note": 66, "velocity": 105, "channel": 0}, {"type": "note_on", "time": 132, "note": 65, "velocity": 96, "channel": 0}, {"type": "note_off", "time": 1615, "note": 65, "velocity": 96, "channel": 0}, {"type": "note_on", "time": 370, "note": 63, "velocity": 97, "channel": 0}, {"type": "note_off", "time": 3443, "note": 63, "velocity": 97, "channel": 0}, {"type": "note_on", "time": 1222, "note": 62, "velocity": 101, "channel": 0}, {"type": "note_off", "time": 5114, "note": 62, "velocity": 101, "channel": 0}, {"type": "note_on", "time": 724, "note": 63, "velocity": 102, "channel": 0}, {"type": "note_off", "time": 4887, "note": 63, "velocity": 102, "channel": 0}, {"type": "note_on", "time": 71, "note": 65, "velocity": 109, "channel": 0}, {"type": "note_off", "time": 1673, "note": 65, "velocity": 109, "channel": 0}, {"type": "note_on", "time": 144, "note": 66, "velocity": 112, "channel": 0}, {"type": "note_off", "time": 16429, "note": 66, "velocity": 112, "channel": 0}, {"type": "note_on", "time": 1435, "note": 63, "velocity": 95, "channel": 0}, {"type": "note_off", "time": 4118, "note": 63, "velocity": 95, "channel": 0}, {"type": "note_on", "time": 362, "note": 65, "velocity": 109, "channel": 0}, {"type": "note_off", "time": 5928, "note": 65, "velocity": 109, "channel": 0}, {"type": "note_on", "time": 294, "note": 65, "velocity": 110, "channel": 0}, {"type": "note_off", "time": 3960, "note": 65, "velocity": 110, "channel": 0}, {"type": "note_on", "time": 1360, "note": 65, "velocity": 98, "channel": 0}, {"type": "note_off", "time": 20532, "note": 65, "velocity": 98, "channel": 0}, {"type": "note_on", "time": 724, "note": 63, "velocity": 97, "channel": 0}, {"type": "note_off", "time": 2413, "note": 63, "velocity": 97, "channel": 0}, {"type": "note_on", "time": 514, "note": 65, "velocity": 109, "channel": 0}, {"type": "note_off", "time": 2429, "note": 65, "velocity": 109, "channel": 0}, {"type": "note_on", "time": 160, "note": 66, "velocity": 111, "channel": 0}, {"type": "note_off", "time": 1480, "note": 66, "velocity": 111, "channel": 0}, {"type": "note_on", "time": 289, "note": 65, "velocity": 86, "channel": 0}, {"type": "note_off", "time": 1914, "note": 65, "velocity": 86, "channel": 0}, {"type": "note_on", "time": 708, "note": 63, "velocity": 95, "channel": 0}, {"type": "note_off", "time": 1528, "note": 63, "velocity": 95, "channel": 0}, {"type": "note_on", "time": 193, "note": 65, "velocity": 100, "channel": 0}, {"type": "note_off", "time": 17925, "note": 65, "velocity": 100, "channel": 0}, {"type": "note_on", "time": 25150, "note": 66, "velocity": 109, "channel": 0}, {"type": "note_off", "time": 2494, "note": 66, "velocity": 109, "channel": 0}, {"type": "note_on", "time": 273, "note": 67, "velocity": 98, "channel": 0}, {"type": "note_off", "time": 1206, "note": 67, "velocity": 98, "channel": 0}, {"type": "note_on", "time": 225, "note": 68, "velocity": 103, "channel": 0}, {"type": "note_off", "time": 2848, "note": 68, "velocity": 103, "channel": 0}, {"type": "note_on", "time": 241, "note": 67, "velocity": 106, "channel": 0}, {"type": "note_off", "time": 2140, "note": 67, "velocity": 106, "channel": 0}, {"type": "note_on", "time": 193, "note": 65, "velocity": 103, "channel": 0}, {"type": "note_off", "time": 2043, "note": 65, "velocity": 103, "channel": 0}, {"type": "note_on", "time": 128, "note": 63, "velocity": 103, "channel": 0}, {"type": "note_off", "time": 2887, "note": 63, "velocity": 103, "channel": 0}, {"type": "note_on", "time": 210, "note": 62, "velocity": 97, "channel": 0}, {"type": "note_off", "time": 1239, "note": 62, "velocity": 97, "channel": 0}, {"type": "note_on", "time": 188, "note": 60, "velocity": 102, "channel": 0}, {"type": "note_off", "time": 2378, "note": 60, "velocity": 102, "channel": 0}, {"type": "note_on", "time": 371, "note": 59, "velocity": 98, "channel": 0}, {"type": "note_off", "time": 2647, "note": 59, "velocity": 98, "channel": 0}, {"type": "note_on", "time": 1629, "note": 65, "velocity": 110, "channel": 0}, {"type": "note_off", "time": 2851, "note": 65, "velocity": 110, "channel": 0}, {"type": "note_on", "time": 1, "note": 68, "velocity": 107, "channel": 0}, {"type": "note_off", "time": 2146, "note": 68, "velocity": 107, "channel": 0}, {"type": "note_on", "time": 143, "note": 67, "velocity": 97, "channel": 0}, {"type": "note_off", "time": 1604, "note": 67, "velocity": 97, "channel": 0}, {"type": "note_on", "time": 320, "note": 65, "velocity": 110, "channel": 0}, {"type": "note_off", "time": 2522, "note": 65, "velocity": 110, "channel": 0}, {"type": "note_on", "time": 185, "note": 63, "velocity": 102, "channel": 0}, {"type": "note_off", "time": 4050, "note": 63, "velocity": 102, "channel": 0}, {"type": "note_on", "time": 22071, "note": 55, "velocity": 111, "channel": 0}, {"type": "note_off", "time": 1537, "note": 55, "velocity": 111, "channel": 0}, {"type": "note_on", "time": 199, "note": 57, "velocity": 109, "channel": 0}, {"type": "note_off", "time": 1526, "note": 57, "velocity": 109, "channel": 0}, {"type": "note_on", "time": 265, "note": 59, "velocity": 107, "channel": 0}, {"type": "note_off", "time": 1205, "note": 59, "velocity": 107, "channel": 0}, {"type": "note_on", "time": 338, "note": 60, "velocity": 115, "channel": 0}, {"type": "note_off", "time": 4425, "note": 60, "velocity": 115, "channel": 0}, {"type": "note_on", "time": 402, "note": 62, "velocity": 102, "channel": 0}, {"type": "note_off", "time": 4264, "note": 62, "velocity": 102, "channel": 0}, {"type": "note_on", "time": 305, "note": 63, "velocity": 113, "channel": 0}, {"type": "note_off", "time": 5519, "note": 63, "velocity": 113, "channel": 0}, {"type": "note_on", "time": 112, "note": 65, "velocity": 109, "channel": 0}, {"type": "note_off", "time": 3717, "note": 65, "velocity": 109, "channel": 0}, {"type": "note_on", "time": 209, "note": 67, "velocity": 106, "channel": 0}, {"type": "note_off", "time": 3942, "note": 67, "velocity": 106, "channel": 0}, {"type": "note_on", "time": 868, "note": 69, "velocity": 10, "channel": 0}, {"type": "note_off", "time": 4006, "note": 69, "velocity": 10, "channel": 0}, {"type": "note_on", "time": 1464, "note": 74, "velocity": 102, "channel": 0}, {"type": "note_off", "time": 4344, "note": 74, "velocity": 102, "channel": 0}, {"type": "note_on", "time": 2107, "note": 71, "velocity": 78, "channel": 0}, {"type": "note_off", "time": 3484, "note": 71, "velocity": 78, "channel": 0}, {"type": "note_on", "time": 119, "note": 72, "velocity": 100, "channel": 0}, {"type": "note_off", "time": 2828, "note": 72, "velocity": 100, "channel": 0}, {"type": "note_on", "time": 904, "note": 78, "velocity": 114, "channel": 0}, {"type": "note_off", "time": 4618, "note": 78, "velocity": 114, "channel": 0}, {"type": "note_on", "time": 386, "note": 76, "velocity": 103, "channel": 0}, {"type": "note_off", "time": 5133, "note": 76, "velocity": 103, "channel": 0}, {"type": "note_on", "time": 1673, "note": 71, "velocity": 103, "channel": 0}, {"type": "note_off", "time": 4441, "note": 71, "velocity": 103, "channel": 0}, {"type": "note_on", "time": 2284, "note": 73, "velocity": 108, "channel": 0}, {"type": "note_off", "time": 7562, "note": 73, "velocity": 108, "channel": 0}, {"type": "note_on", "time": 1834, "note": 71, "velocity": 105, "channel": 0}, {"type": "note_off", "time": 5648, "note": 71, "velocity": 105, "channel": 0}, {"type": "note_on", "time": 563, "note": 66, "velocity": 100, "channel": 0}, {"type": "note_off", "time": 4763, "note": 66, "velocity": 100, "channel": 0}, {"type": "note_on", "time": 933, "note": 69, "velocity": 105, "channel": 0}, {"type": "note_off", "time": 1271, "note": 69, "velocity": 105, "channel": 0}, {"type": "note_on", "time": 48, "note": 70, "velocity": 100, "channel": 0}, {"type": "note_off", "time": 7273, "note": 70, "velocity": 100, "channel": 0}, {"type": "note_on", "time": 386, "note": 66, "velocity": 111, "channel": 0}, {"type": "note_off", "time": 2397, "note": 66, "velocity": 111, "channel": 0}, {"type": "note_on", "time": 305, "note": 63, "velocity": 95, "channel": 0}, {"type": "note_off", "time": 4344, "note": 63, "velocity": 95, "channel": 0}, {"type": "note_on", "time": 354, "note": 58, "velocity": 83, "channel": 0}, {"type": "note_off", "time": 2751, "note": 58, "velocity": 83, "channel": 0}, {"type": "note_on", "time": 112, "note": 59, "velocity": 106, "channel": 0}, {"type": "note_off", "time": 4891, "note": 59, "velocity": 106, "channel": 0}, {"type": "note_on", "time": 965, "note": 70, "velocity": 101, "channel": 0}, {"type": "note_off", "time": 3266, "note": 70, "velocity": 101, "channel": 0}, {"type": "note_on", "time": 386, "note": 68, "velocity": 115, "channel": 0}, {"type": "note_off", "time": 4988, "note": 68, "velocity": 115, "channel": 0}, {"type": "note_on", "time": 273, "note": 67, "velocity": 109, "channel": 0}, {"type": "note_off", "time": 4087, "note": 67, "velocity": 109, "channel": 0}, {"type": "note_on", "time": 1351, "note": 63, "velocity": 92, "channel": 0}, {"type": "note_off", "time": 14546, "note": 63, "velocity": 92, "channel": 0}, {"type": "note_on", "time": 7627, "note": 55, "velocity": 125, "channel": 0}, {"type": "note_off", "time": 2317, "note": 55, "velocity": 125, "channel": 0}, {"type": "note_on", "time": 160, "note": 56, "velocity": 120, "channel": 0}, {"type": "note_off", "time": 1158, "note": 56, "velocity": 120, "channel": 0}, {"type": "note_on", "time": 273, "note": 57, "velocity": 115, "channel": 0}, {"type": "note_off", "time": 1351, "note": 57, "velocity": 115, "channel": 0}, {"type": "note_on", "time": 241, "note": 58, "velocity": 93, "channel": 0}, {"type": "note_off", "time": 4891, "note": 58, "velocity": 93, "channel": 0}, {"type": "note_on", "time": 160, "note": 60, "velocity": 112, "channel": 0}, {"type": "note_off", "time": 4215, "note": 60, "velocity": 112, "channel": 0}, {"type": "note_on", "time": 949, "note": 62, "velocity": 107, "channel": 0}, {"type": "note_off", "time": 2655, "note": 62, "velocity": 107, "channel": 0}, {"type": "note_on", "time": 128, "note": 63, "velocity": 116, "channel": 0}, {"type": "note_off", "time": 1287, "note": 63, "velocity": 116, "channel": 0}, {"type": "note_on", "time": 193, "note": 64, "velocity": 117, "channel": 0}, {"type": "note_off", "time": 1528, "note": 64, "velocity": 117, "channel": 0}, {"type": "note_on", "time": 337, "note": 65, "velocity": 121, "channel": 0}, {"type": "note_off", "time": 3668, "note": 65, "velocity": 121, "channel": 0}, {"type": "note_on", "time": 2124, "note": 60, "velocity": 104, "channel": 0}, {"type": "note_off", "time": 3684, "note": 60, "velocity": 104, "channel": 0}, {"type": "note_on", "time": 514, "note": 62, "velocity": 102, "channel": 0}, {"type": "note_off", "time": 4473, "note": 62, "velocity": 102, "channel": 0}, {"type": "note_on", "time": 450, "note": 63, "velocity": 122, "channel": 0}, {"type": "note_off", "time": 4763, "note": 63, "velocity": 122, "channel": 0}, {"type": "note_on", "time": 435, "note": 65, "velocity": 114, "channel": 0}, {"type": "note_off", "time": 3263, "note": 65, "velocity": 114, "channel": 0}, {"type": "note_on", "time": 175, "note": 67, "velocity": 118, "channel": 0}, {"type": "note_off", "time": 4638, "note": 67, "velocity": 118, "channel": 0}, {"type": "note_on", "time": 1018, "note": 63, "velocity": 105, "channel": 0}, {"type": "note_off", "time": 3100, "note": 63, "velocity": 105, "channel": 0}, {"type": "note_on", "time": 138, "note": 66, "velocity": 108, "channel": 0}, {"type": "note_off", "time": 608, "note": 66, "velocity": 108, "channel": 0}, {"type": "note_on", "time": 314, "note": 67, "velocity": 104, "channel": 0}, {"type": "note_off", "time": 5567, "note": 67, "velocity": 104, "channel": 0}, {"type": "note_on", "time": 289, "note": 67, "velocity": 105, "channel": 0}, {"type": "note_off", "time": 6790, "note": 67, "velocity": 105, "channel": 0}, {"type": "note_on", "time": 547, "note": 67, "velocity": 92, "channel": 0}, {"type": "note_off", "time": 8785, "note": 67, "velocity": 92, "channel": 0}, {"type": "note_on", "time": 20178, "note": 69, "velocity": 120, "channel": 0}, {"type": "note_off", "time": 2091, "note": 69, "velocity": 120, "channel": 0}, {"type": "note_on", "time": 354, "note": 67, "velocity": 112, "channel": 0}, {"type": "note_off", "time": 1930, "note": 67, "velocity": 112, "channel": 0}, {"type": "note_on", "time": 337, "note": 66, "velocity": 114, "channel": 0}, {"type": "note_off", "time": 1737, "note": 66, "velocity": 114, "channel": 0}, {"type": "note_on", "time": 531, "note": 69, "velocity": 113, "channel": 0}, {"type": "note_off", "time": 1802, "note": 69, "velocity": 113, "channel": 0}, {"type": "note_on", "time": 595, "note": 64, "velocity": 104, "channel": 0}, {"type": "note_off", "time": 2188, "note": 64, "velocity": 104, "channel": 0}, {"type": "note_on", "time": 370, "note": 57, "velocity": 91, "channel": 0}, {"type": "note_off", "time": 1512, "note": 57, "velocity": 91, "channel": 0}, {"type": "note_on", "time": 289, "note": 60, "velocity": 105, "channel": 0}, {"type": "note_off", "time": 2655, "note": 60, "velocity": 105, "channel": 0}, {"type": "note_on", "time": 209, "note": 63, "velocity": 116, "channel": 0}, {"type": "note_off", "time": 1995, "note": 63, "velocity": 116, "channel": 0}, {"type": "note_on", "time": 201, "note": 60, "velocity": 111, "channel": 0}, {"type": "note_off", "time": 2068, "note": 60, "velocity": 111, "channel": 0}, {"type": "note_on", "time": 376, "note": 61, "velocity": 104, "channel": 0}, {"type": "note_off", "time": 1913, "note": 61, "velocity": 104, "channel": 0}, {"type": "note_on", "time": 552, "note": 63, "velocity": 112, "channel": 0}, {"type": "note_off", "time": 2308, "note": 63, "velocity": 112, "channel": 0}, {"type": "note_on", "time": 701, "note": 57, "velocity": 105, "channel": 0}, {"type": "note_off", "time": 1930, "note": 57, "velocity": 105, "channel": 0}, {"type": "note_on", "time": 213, "note": 60, "velocity": 119, "channel": 0}, {"type": "note_off", "time": 2864, "note": 60, "velocity": 119, "channel": 0}, {"type": "note_on", "time": 241, "note": 58, "velocity": 85, "channel": 0}, {"type": "note_off", "time": 1416, "note": 58, "velocity": 85, "channel": 0}, {"type": "note_on", "time": 281, "note": 57, "velocity": 98, "channel": 0}, {"type": "note_off", "time": 2993, "note": 57, "velocity": 98, "channel": 0}, {"type": "note_on", "time": 182, "note": 58, "velocity": 84, "channel": 0}, {"type": "note_off", "time": 1416, "note": 58, "velocity": 84, "channel": 0}, {"type": "note_on", "time": 143, "note": 62, "velocity": 110, "channel": 0}, {"type": "note_off", "time": 2832, "note": 62, "velocity": 110, "channel": 0}, {"type": "note_on", "time": 320, "note": 67, "velocity": 110, "channel": 0}, {"type": "note_off", "time": 1836, "note": 67, "velocity": 110, "channel": 0}, {"type": "note_on", "time": 199, "note": 69, "velocity": 98, "channel": 0}, {"type": "note_off", "time": 2323, "note": 69, "velocity": 98, "channel": 0}, {"type": "note_on", "time": 110, "note": 71, "velocity": 91, "channel": 0}, {"type": "note_off", "time": 1725, "note": 71, "velocity": 91, "channel": 0}, {"type": "note_on", "time": 298, "note": 73, "velocity": 106, "channel": 0}, {"type": "note_off", "time": 1084, "note": 73, "velocity": 106, "channel": 0}, {"type": "note_on", "time": 331, "note": 69, "velocity": 109, "channel": 0}, {"type": "note_off", "time": 2400, "note": 69, "velocity": 109, "channel": 0}, {"type": "note_on", "time": 287, "note": 71, "velocity": 114, "channel": 0}, {"type": "note_off", "time": 1283, "note": 71, "velocity": 114, "channel": 0}, {"type": "note_on", "time": 265, "note": 72, "velocity": 108, "channel": 0}, {"type": "note_off", "time": 829, "note": 72, "velocity": 108, "channel": 0}, {"type": "note_on", "time": 99, "note": 71, "velocity": 115, "channel": 0}, {"type": "note_off", "time": 1393, "note": 71, "velocity": 115, "channel": 0}, {"type": "note_on", "time": 129, "note": 69, "velocity": 110, "channel": 0}, {"type": "note_off", "time": 2349, "note": 69, "velocity": 110, "channel": 0}, {"type": "note_on", "time": 337, "note": 68, "velocity": 106, "channel": 0}, {"type": "note_off", "time": 3314, "note": 68, "velocity": 106, "channel": 0}, {"type": "note_on", "time": 15319, "note": 69, "velocity": 108, "channel": 0}, {"type": "note_off", "time": 1504, "note": 69, "velocity": 108, "channel": 0}, {"type": "note_on", "time": 168, "note": 70, "velocity": 114, "channel": 0}, {"type": "note_off", "time": 3507, "note": 70, "velocity": 114, "channel": 0}, {"type": "note_on", "time": 160, "note": 70, "velocity": 114, "channel": 0}, {"type": "note_off", "time": 5857, "note": 70, "velocity": 114, "channel": 0}, {"type": "note_on", "time": 209, "note": 69, "velocity": 111, "channel": 0}, {"type": "note_off", "time": 5149, "note": 69, "velocity": 111, "channel": 0}, {"type": "note_on", "time": 289, "note": 70, "velocity": 114, "channel": 0}, {"type": "note_off", "time": 4328, "note": 70, "velocity": 114, "channel": 0}, {"type": "note_on", "time": 2671, "note": 71, "velocity": 108, "channel": 0}, {"type": "note_off", "time": 740, "note": 71, "velocity": 108, "channel": 0}, {"type": "note_on", "time": 144, "note": 72, "velocity": 122, "channel": 0}, {"type": "note_off", "time": 5969, "note": 72, "velocity": 122, "channel": 0}, {"type": "note_on", "time": 411, "note": 72, "velocity": 90, "channel": 0}, {"type": "note_off", "time": 17876, "note": 72, "velocity": 90, "channel": 0}, {"type": "note_on", "time": 16501, "note": 62, "velocity": 99, "channel": 0}, {"type": "note_off", "time": 2124, "note": 62, "velocity": 99, "channel": 0}, {"type": "note_on", "time": 210, "note": 64, "velocity": 108, "channel": 0}, {"type": "note_off", "time": 2832, "note": 64, "velocity": 108, "channel": 0}, {"type": "note_on", "time": 256, "note": 67, "velocity": 110, "channel": 0}, {"type": "note_off", "time": 1770, "note": 67, "velocity": 110, "channel": 0}, {"type": "note_on", "time": 163, "note": 69, "velocity": 108, "channel": 0}, {"type": "note_off", "time": 1747, "note": 69, "velocity": 108, "channel": 0}, {"type": "note_on", "time": 298, "note": 67, "velocity": 109, "channel": 0}, {"type": "note_off", "time": 1351, "note": 67, "velocity": 109, "channel": 0}, {"type": "note_on", "time": 86, "note": 66, "velocity": 113, "channel": 0}, {"type": "note_off", "time": 2928, "note": 66, "velocity": 113, "channel": 0}, {"type": "note_on", "time": 1053, "note": 64, "velocity": 109, "channel": 0}, {"type": "note_off", "time": 4956, "note": 64, "velocity": 109, "channel": 0}, {"type": "note_on", "time": 1058, "note": 57, "velocity": 100, "channel": 0}, {"type": "note_off", "time": 2671, "note": 57, "velocity": 100, "channel": 0}, {"type": "note_on", "time": 275, "note": 60, "velocity": 114, "channel": 0}, {"type": "note_off", "time": 5819, "note": 60, "velocity": 114, "channel": 0}, {"type": "note_on", "time": 259, "note": 63, "velocity": 116, "channel": 0}, {"type": "note_off", "time": 4661, "note": 63, "velocity": 116, "channel": 0}, {"type": "note_on", "time": 158, "note": 62, "velocity": 106, "channel": 0}, {"type": "note_off", "time": 5159, "note": 62, "velocity": 106, "channel": 0}, {"type": "note_on", "time": 407, "note": 58, "velocity": 82, "channel": 0}, {"type": "note_off", "time": 6087, "note": 58, "velocity": 82, "channel": 0}, {"type": "note_on", "time": 28157, "note": 69, "velocity": 123, "channel": 0}, {"type": "note_off", "time": 2027, "note": 69, "velocity": 123, "channel": 0}, {"type": "note_on", "time": 80, "note": 70, "velocity": 120, "channel": 0}, {"type": "note_off", "time": 5398, "note": 70, "velocity": 120, "channel": 0}, {"type": "note_on", "time": 691, "note": 70, "velocity": 118, "channel": 0}, {"type": "note_off", "time": 4940, "note": 70, "velocity": 118, "channel": 0}, {"type": "note_on", "time": 611, "note": 70, "velocity": 117, "channel": 0}, {"type": "note_off", "time": 5599, "note": 70, "velocity": 117, "channel": 0}, {"type": "note_on", "time": 177, "note": 69, "velocity": 93, "channel": 0}, {"type": "note_off", "time": 3282, "note": 69, "velocity": 93, "channel": 0}, {"type": "note_on", "time": 32, "note": 70, "velocity": 90, "channel": 0}, {"type": "note_off", "time": 5969, "note": 70, "velocity": 90, "channel": 0}, {"type": "note_on", "time": 144, "note": 72, "velocity": 112, "channel": 0}, {"type": "note_off", "time": 12937, "note": 72, "velocity": 112, "channel": 0}, {"type": "note_on", "time": 177, "note": 68, "velocity": 110, "channel": 0}, {"type": "note_off", "time": 5197, "note": 68, "velocity": 110, "channel": 0}, {"type": "note_on", "time": 96, "note": 65, "velocity": 116, "channel": 0}, {"type": "note_off", "time": 5728, "note": 65, "velocity": 116, "channel": 0}, {"type": "note_on", "time": 225, "note": 63, "velocity": 108, "channel": 0}, {"type": "note_off", "time": 1142, "note": 63, "velocity": 108, "channel": 0}, {"type": "note_on", "time": 144, "note": 64, "velocity": 111, "channel": 0}, {"type": "note_off", "time": 3717, "note": 64, "velocity": 111, "channel": 0}, {"type": "note_on", "time": 1689, "note": 72, "velocity": 115, "channel": 0}, {"type": "note_off", "time": 5438, "note": 72, "velocity": 115, "channel": 0}, {"type": "note_on", "time": 2041, "note": 63, "velocity": 111, "channel": 0}, {"type": "note_off", "time": 8485, "note": 63, "velocity": 111, "channel": 0}, {"type": "note_on", "time": 732, "note": 61, "velocity": 100, "channel": 0}, {"type": "note_off", "time": 2400, "note": 61, "velocity": 100, "channel": 0}, {"type": "note_on", "time": 464, "note": 62, "velocity": 110, "channel": 0}, {"type": "note_off", "time": 6381, "note": 62, "velocity": 110, "channel": 0}, {"type": "note_on", "time": 1606, "note": 62, "velocity": 91, "channel": 0}, {"type": "note_off", "time": 9300, "note": 62, "velocity": 91, "channel": 0}, {"type": "note_on", "time": 28081, "note": 70, "velocity": 112, "channel": 0}, {"type": "note_off", "time": 6992, "note": 70, "velocity": 112, "channel": 0}, {"type": "note_on", "time": 203, "note": 72, "velocity": 105, "channel": 0}, {"type": "note_off", "time": 2873, "note": 72, "velocity": 105, "channel": 0}, {"type": "note_on", "time": 14, "note": 75, "velocity": 103, "channel": 0}, {"type": "note_off", "time": 10877, "note": 75, "velocity": 103, "channel": 0}, {"type": "note_on", "time": 354, "note": 75, "velocity": 109, "channel": 0}, {"type": "note_off", "time": 27451, "note": 75, "velocity": 109, "channel": 0}, {"type": "note_on", "time": 354, "note": 73, "velocity": 116, "channel": 0}, {"type": "note_off", "time": 6050, "note": 73, "velocity": 116, "channel": 0}, {"type": "note_on", "time": 1761, "note": 72, "velocity": 106, "channel": 0}, {"type": "note_off", "time": 2262, "note": 72, "velocity": 106, "channel": 0}, {"type": "note_on", "time": 271, "note": 73, "velocity": 112, "channel": 0}, {"type": "note_off", "time": 6336, "note": 73, "velocity": 112, "channel": 0}, {"type": "note_on", "time": 362, "note": 72, "velocity": 115, "channel": 0}, {"type": "note_off", "time": 4751, "note": 72, "velocity": 115, "channel": 0}, {"type": "note_on", "time": 763, "note": 72, "velocity": 103, "channel": 0}, {"type": "note_off", "time": 21272, "note": 72, "velocity": 103, "channel": 0}, {"type": "note_on", "time": 740, "note": 67, "velocity": 100, "channel": 0}, {"type": "note_off", "time": 1560, "note": 67, "velocity": 100, "channel": 0}, {"type": "note_on", "time": 160, "note": 68, "velocity": 86, "channel": 0}, {"type": "note_off", "time": 1786, "note": 68, "velocity": 86, "channel": 0}, {"type": "note_on", "time": 24, "note": 72, "velocity": 89, "channel": 0}, {"type": "note_off", "time": 1013, "note": 72, "velocity": 89, "channel": 0}, {"type": "note_on", "time": 80, "note": 73, "velocity": 100, "channel": 0}, {"type": "note_off", "time": 997, "note": 73, "velocity": 100, "channel": 0}, {"type": "note_on", "time": 80, "note": 72, "velocity": 100, "channel": 0}, {"type": "note_off", "time": 933, "note": 72, "velocity": 100, "channel": 0}, {"type": "note_on", "time": 136, "note": 70, "velocity": 95, "channel": 0}, {"type": "note_off", "time": 949, "note": 70, "velocity": 95, "channel": 0}, {"type": "note_on", "time": 24, "note": 68, "velocity": 111, "channel": 0}, {"type": "note_off", "time": 1094, "note": 68, "velocity": 111, "channel": 0}, {"type": "note_on", "time": 209, "note": 67, "velocity": 110, "channel": 0}, {"type": "note_off", "time": 1255, "note": 67, "velocity": 110, "channel": 0}, {"type": "note_on", "time": 329, "note": 65, "velocity": 108, "channel": 0}, {"type": "note_off", "time": 1383, "note": 65, "velocity": 108, "channel": 0}, {"type": "note_on", "time": 165, "note": 64, "velocity": 102, "channel": 0}, {"type": "note_off", "time": 685, "note": 64, "velocity": 102, "channel": 0}, {"type": "note_on", "time": 99, "note": 61, "velocity": 105, "channel": 0}, {"type": "note_off", "time": 1581, "note": 61, "velocity": 105, "channel": 0}, {"type": "note_on", "time": 177, "note": 58, "velocity": 92, "channel": 0}, {"type": "note_off", "time": 951, "note": 58, "velocity": 92, "channel": 0}, {"type": "note_on", "time": 199, "note": 57, "velocity": 100, "channel": 0}, {"type": "note_off", "time": 774, "note": 57, "velocity": 100, "channel": 0}, {"type": "note_on", "time": 121, "note": 56, "velocity": 112, "channel": 0}, {"type": "note_off", "time": 1161, "note": 56, "velocity": 112, "channel": 0}, {"type": "note_on", "time": 132, "note": 55, "velocity": 118, "channel": 0}, {"type": "note_off", "time": 1039, "note": 55, "velocity": 118, "channel": 0}, {"type": "note_on", "time": 132, "note": 53, "velocity": 107, "channel": 0}, {"type": "note_off", "time": 1357, "note": 53, "velocity": 107, "channel": 0}, {"type": "note_on", "time": 407, "note": 52, "velocity": 106, "channel": 0}, {"type": "note_off", "time": 4389, "note": 52, "velocity": 106, "channel": 0}, {"type": "note_on", "time": 20075, "note": 68, "velocity": 108, "channel": 0}, {"type": "note_off", "time": 1979, "note": 68, "velocity": 108, "channel": 0}, {"type": "note_on", "time": 241, "note": 70, "velocity": 108, "channel": 0}, {"type": "note_off", "time": 5181, "note": 70, "velocity": 108, "channel": 0}, {"type": "note_on", "time": 370, "note": 68, "velocity": 115, "channel": 0}, {"type": "note_off", "time": 9703, "note": 68, "velocity": 115, "channel": 0}, {"type": "note_on", "time": 624, "note": 68, "velocity": 115, "channel": 0}, {"type": "note_off", "time": 6856, "note": 68, "velocity": 115, "channel": 0}, {"type": "note_on", "time": 701, "note": 68, "velocity": 103, "channel": 0}, {"type": "note_off", "time": 27357, "note": 68, "velocity": 103, "channel": 0}, {"type": "note_on", "time": 1566, "note": 67, "velocity": 103, "channel": 0}, {"type": "note_off", "time": 4183, "note": 67, "velocity": 103, "channel": 0}, {"type": "note_on", "time": 5471, "note": 67, "velocity": 112, "channel": 0}, {"type": "note_off", "time": 1493, "note": 67, "velocity": 112, "channel": 0}, {"type": "note_on", "time": 47, "note": 68, "velocity": 116, "channel": 0}, {"type": "note_off", "time": 8417, "note": 68, "velocity": 116, "channel": 0}, {"type": "note_on", "time": 452, "note": 67, "velocity": 107, "channel": 0}, {"type": "note_off", "time": 4435, "note": 67, "velocity": 107, "channel": 0}, {"type": "note_on", "time": 633, "note": 65, "velocity": 109, "channel": 0}, {"type": "note_off", "time": 4706, "note": 65, "velocity": 109, "channel": 0}, {"type": "note_on", "time": 633, "note": 63, "velocity": 107, "channel": 0}, {"type": "note_off", "time": 4842, "note": 63, "velocity": 107, "channel": 0}, {"type": "note_on", "time": 2059, "note": 58, "velocity": 87, "channel": 0}, {"type": "note_off", "time": 6200, "note": 58, "velocity": 87, "channel": 0}, {"type": "note_on", "time": 588, "note": 59, "velocity": 104, "channel": 0}, {"type": "note_off", "time": 4163, "note": 59, "velocity": 104, "channel": 0}, {"type": "note_on", "time": 1697, "note": 61, "velocity": 102, "channel": 0}, {"type": "note_off", "time": 8508, "note": 61, "velocity": 102, "channel": 0}, {"type": "note_on", "time": 859, "note": 59, "velocity": 105, "channel": 0}, {"type": "note_off", "time": 4344, "note": 59, "velocity": 105, "channel": 0}, {"type": "note_on", "time": 950, "note": 58, "velocity": 92, "channel": 0}, {"type": "note_off", "time": 2986, "note": 58, "velocity": 92, "channel": 0}, {"type": "note_on", "time": 1425, "note": 56, "velocity": 108, "channel": 0}, {"type": "note_off", "time": 12355, "note": 56, "velocity": 108, "channel": 0}, {"type": "note_on", "time": 24569, "note": 58, "velocity": 99, "channel": 0}, {"type": "note_off", "time": 3507, "note": 58, "velocity": 99, "channel": 0}, {"type": "note_on", "time": 337, "note": 60, "velocity": 113, "channel": 0}, {"type": "note_off", "time": 2011, "note": 60, "velocity": 113, "channel": 0}, {"type": "note_on", "time": 48, "note": 63, "velocity": 102, "channel": 0}, {"type": "note_off", "time": 1158, "note": 63, "velocity": 102, "channel": 0}, {"type": "note_on", "time": 112, "note": 66, "velocity": 119, "channel": 0}, {"type": "note_off", "time": 1786, "note": 66, "velocity": 119, "channel": 0}, {"type": "note_on", "time": 193, "note": 67, "velocity": 112, "channel": 0}, {"type": "note_off", "time": 5471, "note": 67, "velocity": 112, "channel": 0}, {"type": "note_on", "time": 449, "note": 67, "velocity": 98, "channel": 0}, {"type": "note_off", "time": 22877, "note": 67, "velocity": 98, "channel": 0}, {"type": "note_on", "time": 407, "note": 65, "velocity": 112, "channel": 0}, {"type": "note_off", "time": 3475, "note": 65, "velocity": 112, "channel": 0}, {"type": "note_on", "time": 499, "note": 63, "velocity": 91, "channel": 0}, {"type": "note_off", "time": 3314, "note": 63, "velocity": 91, "channel": 0}, {"type": "note_on", "time": 643, "note": 62, "velocity": 99, "channel": 0}, {"type": "note_off", "time": 2896, "note": 62, "velocity": 99, "channel": 0}, {"type": "note_on", "time": 289, "note": 63, "velocity": 100, "channel": 0}, {"type": "note_off", "time": 2349, "note": 63, "velocity": 100, "channel": 0}, {"type": "note_on", "time": 450, "note": 65, "velocity": 114, "channel": 0}, {"type": "note_off", "time": 3282, "note": 65, "velocity": 114, "channel": 0}, {"type": "note_on", "time": 482, "note": 67, "velocity": 87, "channel": 0}, {"type": "note_off", "time": 1438, "note": 67, "velocity": 87, "channel": 0}, {"type": "note_on", "time": 221, "note": 63, "velocity": 84, "channel": 0}, {"type": "note_off", "time": 1581, "note": 63, "velocity": 84, "channel": 0}, {"type": "note_on", "time": 409, "note": 66, "velocity": 109, "channel": 0}, {"type": "note_off", "time": 1670, "note": 66, "velocity": 109, "channel": 0}, {"type": "note_on", "time": 210, "note": 67, "velocity": 100, "channel": 0}, {"type": "note_off", "time": 4270, "note": 67, "velocity": 100, "channel": 0}, {"type": "note_on", "time": 529, "note": 67, "velocity": 99, "channel": 0}, {"type": "note_off", "time": 13323, "note": 67, "velocity": 99, "channel": 0}, {"type": "note_on", "time": 14611, "note": 74, "velocity": 95, "channel": 0}, {"type": "note_off", "time": 1705, "note": 74, "velocity": 95, "channel": 0}, {"type": "note_on", "time": 209, "note": 73, "velocity": 112, "channel": 0}, {"type": "note_off", "time": 2140, "note": 73, "velocity": 112, "channel": 0}, {"type": "note_on", "time": 337, "note": 71, "velocity": 106, "channel": 0}, {"type": "note_off", "time": 2333, "note": 71, "velocity": 106, "channel": 0}, {"type": "note_on", "time": 321, "note": 67, "velocity": 105, "channel": 0}, {"type": "note_off", "time": 2075, "note": 67, "velocity": 105, "channel": 0}, {"type": "note_on", "time": 337, "note": 63, "velocity": 97, "channel": 0}, {"type": "note_off", "time": 2124, "note": 63, "velocity": 97, "channel": 0}, {"type": "note_on", "time": 209, "note": 60, "velocity": 91, "channel": 0}, {"type": "note_off", "time": 1609, "note": 60, "velocity": 91, "channel": 0}, {"type": "note_on", "time": 668, "note": 67, "velocity": 109, "channel": 0}, {"type": "note_off", "time": 2378, "note": 67, "velocity": 109, "channel": 0}, {"type": "note_on", "time": 232, "note": 66, "velocity": 118, "channel": 0}, {"type": "note_off", "time": 2356, "note": 66, "velocity": 118, "channel": 0}, {"type": "note_on", "time": 154, "note": 65, "velocity": 117, "channel": 0}, {"type": "note_off", "time": 1581, "note": 65, "velocity": 117, "channel": 0}, {"type": "note_on", "time": 165, "note": 64, "velocity": 110, "channel": 0}, {"type": "note_off", "time": 2090, "note": 64, "velocity": 110, "channel": 0}, {"type": "note_on", "time": 320, "note": 63, "velocity": 109, "channel": 0}, {"type": "note_off", "time": 2843, "note": 63, "velocity": 109, "channel": 0}, {"type": "note_on", "time": 221, "note": 62, "velocity": 102, "channel": 0}, {"type": "note_off", "time": 2079, "note": 62, "velocity": 102, "channel": 0}, {"type": "note_on", "time": 188, "note": 60, "velocity": 108, "channel": 0}, {"type": "note_off", "time": 2349, "note": 60, "velocity": 108, "channel": 0}, {"type": "note_on", "time": 164, "note": 59, "velocity": 104, "channel": 0}, {"type": "note_off", "time": 981, "note": 59, "velocity": 104, "channel": 0}, {"type": "note_on", "time": 386, "note": 59, "velocity": 101, "channel": 0}, {"type": "note_off", "time": 2043, "note": 59, "velocity": 101, "channel": 0}, {"type": "note_on", "time": 160, "note": 58, "velocity": 87, "channel": 0}, {"type": "note_off", "time": 901, "note": 58, "velocity": 87, "channel": 0}, {"type": "note_on", "time": 380, "note": 57, "velocity": 97, "channel": 0}, {"type": "note_off", "time": 1814, "note": 57, "velocity": 97, "channel": 0}, {"type": "note_on", "time": 453, "note": 56, "velocity": 101, "channel": 0}, {"type": "note_off", "time": 2179, "note": 56, "velocity": 101, "channel": 0}, {"type": "note_on", "time": 254, "note": 60, "velocity": 102, "channel": 0}, {"type": "note_off", "time": 2002, "note": 60, "velocity": 102, "channel": 0}, {"type": "note_on", "time": 221, "note": 67, "velocity": 115, "channel": 0}, {"type": "note_off", "time": 2732, "note": 67, "velocity": 115, "channel": 0}, {"type": "note_on", "time": 504, "note": 65, "velocity": 120, "channel": 0}, {"type": "note_off", "time": 3575, "note": 65, "velocity": 120, "channel": 0}, {"type": "note_on", "time": 10788, "note": 60, "velocity": 113, "channel": 0}, {"type": "note_off", "time": 3694, "note": 60, "velocity": 113, "channel": 0}, {"type": "note_on", "time": 475, "note": 63, "velocity": 110, "channel": 0}, {"type": "note_off", "time": 1073, "note": 63, "velocity": 110, "channel": 0}, {"type": "note_on", "time": 221, "note": 64, "velocity": 112, "channel": 0}, {"type": "note_off", "time": 1050, "note": 64, "velocity": 112, "channel": 0}, {"type": "note_on", "time": 390, "note": 65, "velocity": 112, "channel": 0}, {"type": "note_off", "time": 5159, "note": 65, "velocity": 112, "channel": 0}, {"type": "note_on", "time": 248, "note": 65, "velocity": 116, "channel": 0}, {"type": "note_off", "time": 20252, "note": 65, "velocity": 116, "channel": 0}, {"type": "note_on", "time": 859, "note": 63, "velocity": 108, "channel": 0}, {"type": "note_off", "time": 4525, "note": 63, "velocity": 108, "channel": 0}, {"type": "note_on", "time": 339, "note": 62, "velocity": 109, "channel": 0}, {"type": "note_off", "time": 2262, "note": 62, "velocity": 109, "channel": 0}, {"type": "note_on", "time": 316, "note": 63, "velocity": 110, "channel": 0}, {"type": "note_off", "time": 3054, "note": 63, "velocity": 110, "channel": 0}, {"type": "note_on", "time": 271, "note": 62, "velocity": 107, "channel": 0}, {"type": "note_off", "time": 1108, "note": 62, "velocity": 107, "channel": 0}, {"type": "note_on", "time": 113, "note": 65, "velocity": 107, "channel": 0}, {"type": "note_off", "time": 3394, "note": 65, "velocity": 107, "channel": 0}, {"type": "note_on", "time": 248, "note": 63, "velocity": 98, "channel": 0}, {"type": "note_off", "time": 15093, "note": 63, "velocity": 98, "channel": 0}, {"type": "note_on", "time": 39909, "note": 61, "velocity": 112, "channel": 0}, {"type": "note_off", "time": 1657, "note": 61, "velocity": 112, "channel": 0}, {"type": "note_on", "time": 112, "note": 62, "velocity": 112, "channel": 0}, {"type": "note_off", "time": 3330, "note": 62, "velocity": 112, "channel": 0}, {"type": "note_on", "time": 675, "note": 60, "velocity": 112, "channel": 0}, {"type": "note_off", "time": 3475, "note": 60, "velocity": 112, "channel": 0}, {"type": "note_on", "time": 514, "note": 59, "velocity": 96, "channel": 0}, {"type": "note_off", "time": 1689, "note": 59, "velocity": 96, "channel": 0}, {"type": "note_on", "time": 273, "note": 60, "velocity": 103, "channel": 0}, {"type": "note_off", "time": 1110, "note": 60, "velocity": 103, "channel": 0}, {"type": "note_on", "time": 402, "note": 59, "velocity": 101, "channel": 0}, {"type": "note_off", "time": 1947, "note": 59, "velocity": 101, "channel": 0}, {"type": "note_on", "time": 241, "note": 56, "velocity": 106, "channel": 0}, {"type": "note_off", "time": 4006, "note": 56, "velocity": 106, "channel": 0}, {"type": "end_of_track", "time": 0}]]}