{"ticks_per_beat": 192, "tracks": [[{"type": "track_name", "name": "Melody", "time": 0}, {"type": "set_tempo", "tempo": 314136, "time": 0}, {"type": "key_signature", "key": "G", "time": 0}, {"type": "time_signature", "numerator": 4, "denominator": 4, "clocks_per_click": 24, "notated_32nd_notes_per_beat": 8, "time": 0}, {"type": "note_on", "time": 2095, "note": 64, "velocity": 79, "channel": 0}, {"type": "note_off", "time": 101, "note": 64, "velocity": 79, "channel": 0}, {"type": "note_on", "time": 16, "note": 67, "velocity": 88, "channel": 0}, {"type": "note_off", "time": 26, "note": 67, "velocity": 88, "channel": 0}, {"type": "note_on", "time": 24, "note": 69, "velocity": 106, "channel": 0}, {"type": "note_off", "time": 114, "note": 69, "velocity": 106, "channel": 0}, {"type": "note_on", "time": 27, "note": 71, "velocity": 112, "channel": 0}, {"type": "note_off", "time": 160, "note": 71, "velocity": 112, "channel": 0}, {"type": "note_on", "time": 87, "note": 64, "velocity": 93, "channel": 0}, {"type": "note_off", "time": 106, "note": 64, "velocity": 93, "channel": 0}, {"type": "note_on", "time": 31, "note": 67, "velocity": 89, "channel": 0}, {"type": "note_off", "time": 44, "note": 67, "velocity": 89, "channel": 0}, {"type": "note_on", "time": 10, "note": 69, "velocity": 112, "channel": 0}, {"type": "note_off", "time": 134, "note": 69, "velocity": 112, "channel": 0}, {"type": "note_on", "time": 7, "note": 70, "velocity": 112, "channel": 0}, {"type": "note_off", "time": 164, "note": 70, "velocity": 112, "channel": 0}, {"type": "note_on", "time": 123, "note": 64, "velocity": 88, "channel": 0}, {"type": "note_off", "time": 114, "note": 64, "velocity": 88, "channel": 0}, {"type": "note_on", "time": 7, "note": 67, "velocity": 90, "channel": 0}, {"type": "note_off", "time": 44, "note": 67, "velocity": 90, "channel": 0}, {"type": "note_on", "time": 9, "note": 69, "velocity": 112, "channel": 0}, {"type": "note_off", "time": 123, "note": 69, "velocity": 112, "channel": 0}, {"type": "note_on", "time": 31, "note": 69, "velocity": 105, "channel": 0}, {"type": "note_off", "time": 58, "note": 69, "velocity": 105, "channel": 0}, {"type": "note_on", "time": 10, "note": 70, "velocity": 113, "channel": 0}, {"type": "note_off", "time": 138, "note": 70, "velocity": 113, "channel": 0}, {"type": "note_on", "time": 30, "note": 69, "velocity": 116, "channel": 0}, {"type": "note_off", "time": 99, "note": 69, "velocity": 116, "channel": 0}, {"type": "note_on", "time": 20, "note": 67, "velocity": 111, "channel": 0}, {"type": "note_off", "time": 81, "note": 67, "velocity": 111, "channel": 0}, {"type": "note_on", "time": 0, "note": 65, "velocity": 97, "channel": 0}, {"type": "note_off", "time": 124, "note": 65, "velocity": 97, "channel": 0}, {"type": "note_on", "time": 0, "note": 67, "velocity": 113, "channel": 0}, {"type": "note_off", "time": 73, "note": 67, "velocity": 113, "channel": 0}, {"type": "note_on", "time": 7, "note": 65, "velocity": 105, "channel": 0}, {"type": "note_off", "time": 162, "note": 65, "velocity": 105, "channel": 0}, {"type": "note_on", "time": 4, "note": 63, "velocity": 101, "channel": 0}, {"type": "note_off", "time": 145, "note": 63, "velocity": 101, "channel": 0}, {"type": "note_on", "time": 0, "note": 58, "velocity": 82, "channel": 0}, {"type": "note_off", "time": 256, "note": 58, "velocity": 82, "channel": 0}, {"type": "note_on", "time": 103, "note": 60, "velocity": 106, "channel": 0}, {"type": "note_off", "time": 53, "note": 60, "velocity": 106, "channel": 0}, {"type": "note_on", "time": 18, "note": 62, "velocity": 102, "channel": 0}, {"type": "note_off", "time": 113, "note": 62, "velocity": 102, "channel": 0}, {"type": "note_on", "time": 31, "note": 64, "velocity": 108, "channel": 0}, {"type": "note_off", "time": 243, "note": 64, "velocity": 108, "channel": 0}, {"type": "note_on", "time": 29, "note": 66, "velocity": 115, "channel": 0}, {"type": "note_off", "time": 130, "note": 66, "velocity": 115, "channel": 0}, {"type": "note_on", "time": 639, "note": 69, "velocity": 119, "channel": 0}, {"type": "note_off", "time": 139, "note": 69, "velocity": 119, "channel": 0}, {"type": "note_on", "time": 6, "note": 66, "velocity": 92, "channel": 0}, {"type": "note_off", "time": 71, "note": 66, "velocity": 92, "channel": 0}, {"type": "note_on", "time": 12, "note": 67, "velocity": 104, "channel": 0}, {"type": "note_off", "time": 76, "note": 67, "velocity": 104, "channel": 0}, {"type": "note_on", "time": 9, "note": 69, "velocity": 117, "channel": 0}, {"type": "note_off", "time": 78, "note": 69, "velocity": 117, "channel": 0}, {"type": "note_on", "time": 25, "note": 70, "velocity": 122, "channel": 0}, {"type": "note_off", "time": 83, "note": 70, "velocity": 122, "channel": 0}, {"type": "note_on", "time": 11, "note": 72, "velocity": 127, "channel": 0}, {"type": "note_off", "time": 81, "note": 72, "velocity": 127, "channel": 0}, {"type": "note_on", "time": 19, "note": 73, "velocity": 121, "channel": 0}, {"type": "note_off", "time": 86, "note": 73, "velocity": 121, "channel": 0}, {"type": "note_on", "time": 4, "note": 75, "velocity": 116, "channel": 0}, {"type": "note_off", "time": 109, "note": 75, "velocity": 116, "channel": 0}, {"type": "note_on", "time": 6, "note": 72, "velocity": 118, "channel": 0}, {"type": "note_off", "time": 89, "note": 72, "velocity": 118, "channel": 0}, {"type": "note_on", "time": 6, "note": 70, "velocity": 117, "channel": 0}, {"type": "note_off", "time": 123, "note": 70, "velocity": 117, "channel": 0}, {"type": "note_on", "time": 931, "note": 69, "velocity": 105, "channel": 0}, {"type": "note_off", "time": 109, "note": 69, "velocity": 105, "channel": 0}, {"type": "note_on", "time": 58, "note": 71, "velocity": 117, "channel": 0}, {"type": "note_off", "time": 160, "note": 71, "velocity": 117, "channel": 0}, {"type": "note_on", "time": 53, "note": 72, "velocity": 116, "channel": 0}, {"type": "note_off", "time": 144, "note": 72, "velocity": 116, "channel": 0}, {"type": "note_on", "time": 0, "note": 74, "velocity": 114, "channel": 0}, {"type": "note_off", "time": 107, "note": 74, "velocity": 114, "channel": 0}, {"type": "note_on", "time": 68, "note": 76, "velocity": 120, "channel": 0}, {"type": "note_off", "time": 235, "note": 76, "velocity": 120, "channel": 0}, {"type": "note_on", "time": 18, "note": 79, "velocity": 126, "channel": 0}, {"type": "note_off", "time": 140, "note": 79, "velocity": 126, "channel": 0}, {"type": "note_on", "time": 2, "note": 78, "velocity": 122, "channel": 0}, {"type": "note_off", "time": 249, "note": 78, "velocity": 122, "channel": 0}, {"type": "note_on", "time": 7, "note": 76, "velocity": 121, "channel": 0}, {"type": "note_off", "time": 130, "note": 76, "velocity": 121, "channel": 0}, {"type": "note_on", "time": 2, "note": 74, "velocity": 116, "channel": 0}, {"type": "note_off", "time": 251, "note": 74, "velocity": 116, "channel": 0}, {"type": "note_on", "time": 186, "note": 74, "velocity": 115, "channel": 0}, {"type": "note_off", "time": 95, "note": 74, "velocity": 115, "channel": 0}, {"type": "note_on", "time": 9, "note": 75, "velocity": 115, "channel": 0}, {"type": "note_off", "time": 38, "note": 75, "velocity": 115, "channel": 0}, {"type": "note_on", "time": 4, "note": 74, "velocity": 116, "channel": 0}, {"type": "note_off", "time": 43, "note": 74, "velocity": 116, "channel": 0}, {"type": "note_on", "time": 8, "note": 73, "velocity": 113, "channel": 0}, {"type": "note_off", "time": 102, "note": 73, "velocity": 113, "channel": 0}, {"type": "note_on", "time": 293, "note": 73, "velocity": 111, "channel": 0}, {"type": "note_off", "time": 62, "note": 73, "velocity": 111, "channel": 0}, {"type": "note_on", "time": 6, "note": 74, "velocity": 113, "channel": 0}, {"type": "note_off", "time": 250, "note": 74, "velocity": 113, "channel": 0}, {"type": "note_on", "time": 24, "note": 71, "velocity": 110, "channel": 0}, {"type": "note_off", "time": 98, "note": 71, "velocity": 110, "channel": 0}, {"type": "note_on", "time": 15, "note": 67, "velocity": 108, "channel": 0}, {"type": "note_off", "time": 86, "note": 67, "velocity": 108, "channel": 0}, {"type": "note_on", "time": 12, "note": 66, "velocity": 98, "channel": 0}, {"type": "note_off", "time": 89, "note": 66, "velocity": 98, "channel": 0}, {"type": "note_on", "time": 25, "note": 64, "velocity": 95, "channel": 0}, {"type": "note_off", "time": 248, "note": 64, "velocity": 95, "channel": 0}, {"type": "note_on", "time": 24, "note": 66, "velocity": 107, "channel": 0}, {"type": "note_off", "time": 88, "note": 66, "velocity": 107, "channel": 0}, {"type": "note_on", "time": 24, "note": 63, "velocity": 92, "channel": 0}, {"type": "note_off", "time": 91, "note": 63, "velocity": 92, "channel": 0}, {"type": "note_on", "time": 15, "note": 64, "velocity": 93, "channel": 0}, {"type": "note_off", "time": 77, "note": 64, "velocity": 93, "channel": 0}, {"type": "note_on", "time": 6, "note": 66, "velocity": 106, "channel": 0}, {"type": "note_off", "time": 89, "note": 66, "velocity": 106, "channel": 0}, {"type": "note_on", "time": 29, "note": 67, "velocity": 100, "channel": 0}, {"type": "note_off", "time": 69, "note": 67, "velocity": 100, "channel": 0}, {"type": "note_on", "time": 1, "note": 69, "velocity": 116, "channel": 0}, {"type": "note_off", "time": 84, "note": 69, "velocity": 116, "channel": 0}, {"type": "note_on", "time": 8, "note": 66, "velocity": 89, "channel": 0}, {"type": "note_off", "time": 77, "note": 66, "velocity": 89, "channel": 0}, {"type": "note_on", "time": 30, "note": 67, "velocity": 88, "channel": 0}, {"type": "note_off", "time": 64, "note": 67, "velocity": 88, "channel": 0}, {"type": "note_on", "time": 1, "note": 69, "velocity": 110, "channel": 0}, {"type": "note_off", "time": 115, "note": 69, "velocity": 110, "channel": 0}, {"type": "note_on", "time": 7, "note": 70, "velocity": 117, "channel": 0}, {"type": "note_off", "time": 89, "note": 70, "velocity": 117, "channel": 0}, {"type": "note_on", "time": 1, "note": 71, "velocity": 105, "channel": 0}, {"type": "note_off", "time": 89, "note": 71, "velocity": 105, "channel": 0}, {"type": "note_on", "time": 4, "note": 74, "velocity": 117, "channel": 0}, {"type": "note_off", "time": 86, "note": 74, "velocity": 117, "channel": 0}, {"type": "note_on", "time": 7, "note": 72, "velocity": 118, "channel": 0}, {"type": "note_off", "time": 98, "note": 72, "velocity": 118, "channel": 0}, {"type": "note_on", "time": 23, "note": 64, "velocity": 90, "channel": 0}, {"type": "note_off", "time": 42, "note": 64, "velocity": 90, "channel": 0}, {"type": "note_on", "time": 4, "note": 67, "velocity": 92, "channel": 0}, {"type": "note_off", "time": 119, "note": 67, "velocity": 92, "channel": 0}, {"type": "note_on", "time": 0, "note": 71, "velocity": 116, "channel": 0}, {"type": "note_on", "time": 90, "note": 69, "velocity": 108, "channel": 0}, {"type": "note_off", "time": 0, "note": 71, "velocity": 116, "channel": 0}, {"type": "note_off", "time": 108, "note": 69, "velocity": 108, "channel": 0}, {"type": "note_on", "time": 6, "note": 67, "velocity": 114, "channel": 0}, {"type": "note_off", "time": 67, "note": 67, "velocity": 114, "channel": 0}, {"type": "note_on", "time": 9, "note": 64, "velocity": 97, "channel": 0}, {"type": "note_off", "time": 94, "note": 64, "velocity": 97, "channel": 0}, {"type": "note_on", "time": 3, "note": 60, "velocity": 98, "channel": 0}, {"type": "note_off", "time": 92, "note": 60, "velocity": 98, "channel": 0}, {"type": "note_on", "time": 15, "note": 59, "velocity": 92, "channel": 0}, {"type": "note_off", "time": 83, "note": 59, "velocity": 92, "channel": 0}, {"type": "note_on", "time": 204, "note": 59, "velocity": 95, "channel": 0}, {"type": "note_off", "time": 102, "note": 59, "velocity": 95, "channel": 0}, {"type": "note_on", "time": 6, "note": 62, "velocity": 106, "channel": 0}, {"type": "note_off", "time": 108, "note": 62, "velocity": 106, "channel": 0}, {"type": "note_on", "time": 70, "note": 67, "velocity": 113, "channel": 0}, {"type": "note_off", "time": 138, "note": 67, "velocity": 113, "channel": 0}, {"type": "note_on", "time": 40, "note": 64, "velocity": 94, "channel": 0}, {"type": "note_off", "time": 306, "note": 64, "velocity": 94, "channel": 0}, {"type": "note_on", "time": 20, "note": 69, "velocity": 108, "channel": 0}, {"type": "note_off", "time": 117, "note": 69, "velocity": 108, "channel": 0}, {"type": "note_on", "time": 333, "note": 69, "velocity": 105, "channel": 0}, {"type": "note_off", "time": 366, "note": 69, "velocity": 105, "channel": 0}, {"type": "note_on", "time": 13, "note": 67, "velocity": 93, "channel": 0}, {"type": "note_off", "time": 104, "note": 67, "velocity": 93, "channel": 0}, {"type": "note_on", "time": 17, "note": 69, "velocity": 107, "channel": 0}, {"type": "note_off", "time": 74, "note": 69, "velocity": 107, "channel": 0}, {"type": "note_on", "time": 0, "note": 71, "velocity": 105, "channel": 0}, {"type": "note_off", "time": 104, "note": 71, "velocity": 105, "channel": 0}, {"type": "note_on", "time": 5, "note": 74, "velocity": 121, "channel": 0}, {"type": "note_off", "time": 81, "note": 74, "velocity": 121, "channel": 0}, {"type": "note_on", "time": 12, "note": 77, "velocity": 124, "channel": 0}, {"type": "note_off", "time": 192, "note": 77, "velocity": 124, "channel": 0}, {"type": "note_on", "time": 11, "note": 75, "velocity": 119, "channel": 0}, {"type": "note_off", "time": 178, "note": 75, "velocity": 119, "channel": 0}, {"type": "note_on", "time": 5, "note": 74, "velocity": 114, "channel": 0}, {"type": "note_off", "time": 172, "note": 74, "velocity": 114, "channel": 0}, {"type": "note_on", "time": 6, "note": 72, "velocity": 114, "channel": 0}, {"type": "note_off", "time": 188, "note": 72, "velocity": 114, "channel": 0}, {"type": "note_on", "time": 2, "note": 70, "velocity": 112, "channel": 0}, {"type": "note_off", "time": 195, "note": 70, "velocity": 112, "channel": 0}, {"type": "note_on", "time": 8, "note": 67, "velocity": 97, "channel": 0}, {"type": "note_off", "time": 111, "note": 67, "velocity": 97, "channel": 0}, {"type": "note_on", "time": 14, "note": 65, "velocity": 100, "channel": 0}, {"type": "note_off", "time": 237, "note": 65, "velocity": 100, "channel": 0}, {"type": "note_on", "time": 1, "note": 63, "velocity": 97, "channel": 0}, {"type": "note_off", "time": 125, "note": 63, "velocity": 97, "channel": 0}, {"type": "note_on", "time": 12, "note": 62, "velocity": 91, "channel": 0}, {"type": "note_off", "time": 399, "note": 62, "velocity": 91, "channel": 0}, {"type": "note_on", "time": 35, "note": 64, "velocity": 96, "channel": 0}, {"type": "note_off", "time": 115, "note": 64, "velocity": 96, "channel": 0}, {"type": "note_on", "time": 260, "note": 66, "velocity": 107, "channel": 0}, {"type": "note_off", "time": 125, "note": 66, "velocity": 107, "channel": 0}, {"type": "note_on", "time": 8, "note": 62, "velocity": 86, "channel": 0}, {"type": "note_off", "time": 67, "note": 62, "velocity": 86, "channel": 0}, {"type": "note_on", "time": 12, "note": 63, "velocity": 98, "channel": 0}, {"type": "note_off", "time": 104, "note": 63, "velocity": 98, "channel": 0}, {"type": "note_on", "time": 13, "note": 64, "velocity": 102, "channel": 0}, {"type": "note_off", "time": 77, "note": 64, "velocity": 102, "channel": 0}, {"type": "note_on", "time": 306, "note": 64, "velocity": 110, "channel": 0}, {"type": "note_off", "time": 51, "note": 64, "velocity": 110, "channel": 0}, {"type": "note_on", "time": 11, "note": 65, "velocity": 110, "channel": 0}, {"type": "note_off", "time": 179, "note": 65, "velocity": 110, "channel": 0}, {"type": "note_on", "time": 19, "note": 63, "velocity": 101, "channel": 0}, {"type": "note_off", "time": 61, "note": 63, "velocity": 101, "channel": 0}, {"type": "note_on", "time": 3, "note": 58, "velocity": 78, "channel": 0}, {"type": "note_off", "time": 39, "note": 58, "velocity": 78, "channel": 0}, {"type": "note_on", "time": 94, "note": 62, "velocity": 104, "channel": 0}, {"type": "note_off", "time": 120, "note": 62, "velocity": 104, "channel": 0}, {"type": "note_on", "time": 5, "note": 61, "velocity": 108, "channel": 0}, {"type": "note_off", "time": 43, "note": 61, "velocity": 108, "channel": 0}, {"type": "note_on", "time": 21, "note": 60, "velocity": 98, "channel": 0}, {"type": "note_off", "time": 77, "note": 60, "velocity": 98, "channel": 0}, {"type": "note_on", "time": 36, "note": 63, "velocity": 111, "channel": 0}, {"type": "note_off", "time": 54, "note": 63, "velocity": 111, "channel": 0}, {"type": "note_on", "time": 25, "note": 59, "velocity": 98, "channel": 0}, {"type": "note_off", "time": 92, "note": 59, "velocity": 98, "channel": 0}, {"type": "note_on", "time": 78, "note": 55, "velocity": 88, "channel": 0}, {"type": "note_off", "time": 112, "note": 55, "velocity": 88, "channel": 0}, {"type": "note_on", "time": 7, "note": 57, "velocity": 98, "channel": 0}, {"type": "note_off", "time": 73, "note": 57, "velocity": 98, "channel": 0}, {"type": "note_on", "time": 301, "note": 57, "velocity": 91, "channel": 0}, {"type": "note_off", "time": 286, "note": 57, "velocity": 91, "channel": 0}, {"type": "note_on", "time": 0, "note": 55, "velocity": 99, "channel": 0}, {"type": "note_off", "time": 195, "note": 55, "velocity": 99, "channel": 0}, {"type": "note_on", "time": 0, "note": 67, "velocity": 111, "channel": 0}, {"type": "note_off", "time": 112, "note": 67, "velocity": 111, "channel": 0}, {"type": "note_on", "time": 16, "note": 64, "velocity": 107, "channel": 0}, {"type": "note_off", "time": 56, "note": 64, "velocity": 107, "channel": 0}, {"type": "note_on", "time": 293, "note": 66, "velocity": 110, "channel": 0}, {"type": "note_off", "time": 252, "note": 66, "velocity": 110, "channel": 0}, {"type": "note_on", "time": 31, "note": 63, "velocity": 97, "channel": 0}, {"type": "note_off", "time": 106, "note": 63, "velocity": 97, "channel": 0}, {"type": "note_on", "time": 4, "note": 64, "velocity": 104, "channel": 0}, {"type": "note_off", "time": 69, "note": 64, "velocity": 104, "channel": 0}, {"type": "note_on", "time": 13, "note": 66, "velocity": 110, "channel": 0}, {"type": "note_off", "time": 70, "note": 66, "velocity": 110, "channel": 0}, {"type": "note_on", "time": 30, "note": 63, "velocity": 79, "channel": 0}, {"type": "note_off", "time": 56, "note": 63, "velocity": 79, "channel": 0}, {"type": "note_on", "time": 54, "note": 64, "velocity": 91, "channel": 0}, {"type": "note_off", "time": 68, "note": 64, "velocity": 91, "channel": 0}, {"type": "note_on", "time": 17, "note": 66, "velocity": 113, "channel": 0}, {"type": "note_on", "time": 82, "note": 67, "velocity": 104, "channel": 0}, {"type": "note_off", "time": 0, "note": 66, "velocity": 113, "channel": 0}, {"type": "note_off", "time": 89, "note": 67, "velocity": 104, "channel": 0}, {"type": "note_on", "time": 6, "note": 68, "velocity": 106, "channel": 0}, {"type": "note_off", "time": 41, "note": 68, "velocity": 106, "channel": 0}, {"type": "note_on", "time": 4, "note": 69, "velocity": 110, "channel": 0}, {"type": "note_off", "time": 34, "note": 69, "velocity": 110, "channel": 0}, {"type": "note_on", "time": 25, "note": 71, "velocity": 112, "channel": 0}, {"type": "note_off", "time": 98, "note": 71, "velocity": 112, "channel": 0}, {"type": "note_on", "time": 0, "note": 69, "velocity": 112, "channel": 0}, {"type": "note_off", "time": 72, "note": 69, "velocity": 112, "channel": 0}, {"type": "note_on", "time": 24, "note": 67, "velocity": 103, "channel": 0}, {"type": "note_off", "time": 78, "note": 67, "velocity": 103, "channel": 0}, {"type": "note_on", "time": 21, "note": 64, "velocity": 83, "channel": 0}, {"type": "note_off", "time": 42, "note": 64, "velocity": 83, "channel": 0}, {"type": "note_on", "time": 47, "note": 69, "velocity": 113, "channel": 0}, {"type": "note_off", "time": 108, "note": 69, "velocity": 113, "channel": 0}, {"type": "note_on", "time": 2, "note": 66, "velocity": 94, "channel": 0}, {"type": "note_off", "time": 54, "note": 66, "velocity": 94, "channel": 0}, {"type": "note_on", "time": 25, "note": 68, "velocity": 102, "channel": 0}, {"type": "note_off", "time": 51, "note": 68, "velocity": 102, "channel": 0}, {"type": "note_on", "time": 2, "note": 69, "velocity": 103, "channel": 0}, {"type": "note_off", "time": 35, "note": 69, "velocity": 103, "channel": 0}, {"type": "note_on", "time": 2, "note": 70, "velocity": 111, "channel": 0}, {"type": "note_off", "time": 56, "note": 70, "velocity": 111, "channel": 0}, {"type": "note_on", "time": 9, "note": 71, "velocity": 106, "channel": 0}, {"type": "note_off", "time": 102, "note": 71, "velocity": 106, "channel": 0}, {"type": "note_on", "time": 15, "note": 74, "velocity": 115, "channel": 0}, {"type": "note_off", "time": 78, "note": 74, "velocity": 115, "channel": 0}, {"type": "note_on", "time": 3, "note": 76, "velocity": 115, "channel": 0}, {"type": "note_off", "time": 109, "note": 76, "velocity": 115, "channel": 0}, {"type": "note_on", "time": 85, "note": 78, "velocity": 122, "channel": 0}, {"type": "note_off", "time": 74, "note": 78, "velocity": 122, "channel": 0}, {"type": "note_on", "time": 10, "note": 79, "velocity": 115, "channel": 0}, {"type": "note_off", "time": 447, "note": 79, "velocity": 115, "channel": 0}, {"type": "note_on", "time": 47, "note": 76, "velocity": 107, "channel": 0}, {"type": "note_off", "time": 129, "note": 76, "velocity": 107, "channel": 0}, {"type": "note_on", "time": 1, "note": 74, "velocity": 111, "channel": 0}, {"type": "note_off", "time": 223, "note": 74, "velocity": 111, "channel": 0}, {"type": "note_on", "time": 232, "note": 76, "velocity": 105, "channel": 0}, {"type": "note_off", "time": 104, "note": 76, "velocity": 105, "channel": 0}, {"type": "note_on", "time": 8, "note": 74, "velocity": 113, "channel": 0}, {"type": "note_off", "time": 71, "note": 74, "velocity": 113, "channel": 0}, {"type": "note_on", "time": 8, "note": 71, "velocity": 100, "channel": 0}, {"type": "note_off", "time": 97, "note": 71, "velocity": 100, "channel": 0}, {"type": "note_on", "time": 1, "note": 69, "velocity": 111, "channel": 0}, {"type": "note_off", "time": 83, "note": 69, "velocity": 111, "channel": 0}, {"type": "note_on", "time": 14, "note": 67, "velocity": 96, "channel": 0}, {"type": "note_off", "time": 77, "note": 67, "velocity": 96, "channel": 0}, {"type": "note_on", "time": 27, "note": 69, "velocity": 111, "channel": 0}, {"type": "note_off", "time": 79, "note": 69, "velocity": 111, "channel": 0}, {"type": "note_on", "time": 17, "note": 66, "velocity": 88, "channel": 0}, {"type": "note_off", "time": 147, "note": 66, "velocity": 88, "channel": 0}, {"type": "note_on", "time": 36, "note": 67, "velocity": 101, "channel": 0}, {"type": "note_off", "time": 152, "note": 67, "velocity": 101, "channel": 0}, {"type": "note_on", "time": 223, "note": 67, "velocity": 100, "channel": 0}, {"type": "note_off", "time": 112, "note": 67, "velocity": 100, "channel": 0}, {"type": "note_on", "time": 16, "note": 69, "velocity": 109, "channel": 0}, {"type": "note_off", "time": 89, "note": 69, "velocity": 109, "channel": 0}, {"type": "note_on", "time": 2, "note": 66, "velocity": 98, "channel": 0}, {"type": "note_off", "time": 113, "note": 66, "velocity": 98, "channel": 0}, {"type": "note_on", "time": 8, "note": 67, "velocity": 105, "channel": 0}, {"type": "note_off", "time": 102, "note": 67, "velocity": 105, "channel": 0}, {"type": "note_on", "time": 334, "note": 69, "velocity": 111, "channel": 0}, {"type": "note_off", "time": 120, "note": 69, "velocity": 111, "channel": 0}, {"type": "note_on", "time": 0, "note": 71, "velocity": 110, "channel": 0}, {"type": "note_off", "time": 64, "note": 71, "velocity": 110, "channel": 0}, {"type": "note_on", "time": 27, "note": 67, "velocity": 86, "channel": 0}, {"type": "note_off", "time": 92, "note": 67, "velocity": 86, "channel": 0}, {"type": "note_on", "time": 10, "note": 69, "velocity": 98, "channel": 0}, {"type": "note_off", "time": 251, "note": 69, "velocity": 98, "channel": 0}, {"type": "note_on", "time": 353, "note": 74, "velocity": 83, "channel": 0}, {"type": "note_off", "time": 159, "note": 74, "velocity": 83, "channel": 0}, {"type": "note_on", "time": 0, "note": 71, "velocity": 107, "channel": 0}, {"type": "note_off", "time": 89, "note": 71, "velocity": 107, "channel": 0}, {"type": "note_on", "time": 14, "note": 74, "velocity": 105, "channel": 0}, {"type": "note_off", "time": 72, "note": 74, "velocity": 105, "channel": 0}, {"type": "note_on", "time": 0, "note": 71, "velocity": 106, "channel": 0}, {"type": "note_off", "time": 89, "note": 71, "velocity": 106, "channel": 0}, {"type": "note_on", "time": 19, "note": 69, "velocity": 102, "channel": 0}, {"type": "note_off", "time": 117, "note": 69, "velocity": 102, "channel": 0}, {"type": "note_on", "time": 4, "note": 67, "velocity": 109, "channel": 0}, {"type": "note_off", "time": 64, "note": 67, "velocity": 109, "channel": 0}, {"type": "note_on", "time": 0, "note": 59, "velocity": 97, "channel": 0}, {"type": "note_off", "time": 114, "note": 59, "velocity": 97, "channel": 0}, {"type": "note_on", "time": 1, "note": 63, "velocity": 104, "channel": 0}, {"type": "note_off", "time": 81, "note": 63, "velocity": 104, "channel": 0}, {"type": "note_on", "time": 0, "note": 57, "velocity": 97, "channel": 0}, {"type": "note_off", "time": 100, "note": 57, "velocity": 97, "channel": 0}, {"type": "note_on", "time": 10, "note": 59, "velocity": 90, "channel": 0}, {"type": "note_off", "time": 1045, "note": 59, "velocity": 90, "channel": 0}, {"type": "note_on", "time": 22, "note": 60, "velocity": 84, "channel": 0}, {"type": "note_off", "time": 79, "note": 60, "velocity": 84, "channel": 0}, {"type": "note_on", "time": 7, "note": 63, "velocity": 102, "channel": 0}, {"type": "note_off", "time": 79, "note": 63, "velocity": 102, "channel": 0}, {"type": "note_on", "time": 2, "note": 64, "velocity": 96, "channel": 0}, {"type": "note_off", "time": 94, "note": 64, "velocity": 96, "channel": 0}, {"type": "note_on", "time": 14, "note": 66, "velocity": 94, "channel": 0}, {"type": "note_off", "time": 67, "note": 66, "velocity": 94, "channel": 0}, {"type": "note_on", "time": 14, "note": 62, "velocity": 82, "channel": 0}, {"type": "note_off", "time": 94, "note": 62, "velocity": 82, "channel": 0}, {"type": "note_on", "time": 3, "note": 64, "velocity": 96, "channel": 0}, {"type": "note_off", "time": 204, "note": 64, "velocity": 96, "channel": 0}, {"type": "note_on", "time": 351, "note": 69, "velocity": 113, "channel": 0}, {"type": "note_off", "time": 63, "note": 69, "velocity": 113, "channel": 0}, {"type": "note_on", "time": 24, "note": 69, "velocity": 113, "channel": 0}, {"type": "note_off", "time": 85, "note": 69, "velocity": 113, "channel": 0}, {"type": "note_on", "time": 26, "note": 69, "velocity": 116, "channel": 0}, {"type": "note_off", "time": 102, "note": 69, "velocity": 116, "channel": 0}, {"type": "note_on", "time": 106, "note": 66, "velocity": 110, "channel": 0}, {"type": "note_off", "time": 56, "note": 66, "velocity": 110, "channel": 0}, {"type": "note_on", "time": 8, "note": 64, "velocity": 96, "channel": 0}, {"type": "note_off", "time": 99, "note": 64, "velocity": 96, "channel": 0}, {"type": "note_on", "time": 24, "note": 62, "velocity": 101, "channel": 0}, {"type": "note_off", "time": 46, "note": 62, "velocity": 101, "channel": 0}, {"type": "note_on", "time": 23, "note": 58, "velocity": 90, "channel": 0}, {"type": "note_off", "time": 79, "note": 58, "velocity": 90, "channel": 0}, {"type": "note_on", "time": 50, "note": 61, "velocity": 105, "channel": 0}, {"type": "note_off", "time": 62, "note": 61, "velocity": 105, "channel": 0}, {"type": "note_on", "time": 0, "note": 59, "velocity": 83, "channel": 0}, {"type": "note_off", "time": 105, "note": 59, "velocity": 83, "channel": 0}, {"type": "note_on", "time": 0, "note": 60, "velocity": 103, "channel": 0}, {"type": "note_off", "time": 77, "note": 60, "velocity": 103, "channel": 0}, {"type": "note_on", "time": 17, "note": 60, "velocity": 83, "channel": 0}, {"type": "note_off", "time": 89, "note": 60, "velocity": 83, "channel": 0}, {"type": "note_on", "time": 14, "note": 62, "velocity": 104, "channel": 0}, {"type": "note_off", "time": 55, "note": 62, "velocity": 104, "channel": 0}, {"type": "note_on", "time": 9, "note": 63, "velocity": 101, "channel": 0}, {"type": "note_off", "time": 119, "note": 63, "velocity": 101, "channel": 0}, {"type": "note_on", "time": 0, "note": 64, "velocity": 91, "channel": 0}, {"type": "note_off", "time": 194, "note": 64, "velocity": 91, "channel": 0}, {"type": "note_on", "time": 2, "note": 66, "velocity": 112, "channel": 0}, {"type": "note_off", "time": 72, "note": 66, "velocity": 112, "channel": 0}, {"type": "note_on", "time": 12, "note": 63, "velocity": 95, "channel": 0}, {"type": "note_off", "time": 94, "note": 63, "velocity": 95, "channel": 0}, {"type": "note_on", "time": 0, "note": 64, "velocity": 92, "channel": 0}, {"type": "note_off", "time": 129, "note": 64, "velocity": 92, "channel": 0}, {"type": "note_on", "time": 59, "note": 66, "velocity": 110, "channel": 0}, {"type": "note_off", "time": 76, "note": 66, "velocity": 110, "channel": 0}, {"type": "note_on", "time": 5, "note": 67, "velocity": 106, "channel": 0}, {"type": "note_off", "time": 84, "note": 67, "velocity": 106, "channel": 0}, {"type": "note_on", "time": 14, "note": 69, "velocity": 108, "channel": 0}, {"type": "note_off", "time": 86, "note": 69, "velocity": 108, "channel": 0}, {"type": "end_of_track", "time": 0}]]}