{"ticks_per_beat": 192, "tracks": [[{"type": "track_name", "name": "Melody", "time": 0}, {"type": "set_tempo", "tempo": 266666, "time": 0}, {"type": "key_signature", "key": "Bb", "time": 0}, {"type": "time_signature", "numerator": 4, "denominator": 4, "clocks_per_click": 24, "notated_32nd_notes_per_beat": 8, "time": 0}, {"type": "note_on", "time": 4353, "note": 72, "velocity": 115, "channel": 0}, {"type": "note_off", "time": 83, "note": 72, "velocity": 115, "channel": 0}, {"type": "note_on", "time": 198, "note": 72, "velocity": 112, "channel": 0}, {"type": "note_off", "time": 87, "note": 72, "velocity": 112, "channel": 0}, {"type": "note_on", "time": 99, "note": 72, "velocity": 115, "channel": 0}, {"type": "note_off", "time": 97, "note": 72, "velocity": 115, "channel": 0}, {"type": "note_on", "time": 110, "note": 72, "velocity": 117, "channel": 0}, {"type": "note_off", "time": 152, "note": 72, "velocity": 117, "channel": 0}, {"type": "note_on", "time": 21, "note": 72, "velocity": 115, "channel": 0}, {"type": "note_off", "time": 130, "note": 72, "velocity": 115, "channel": 0}, {"type": "note_on", "time": 19, "note": 69, "velocity": 97, "channel": 0}, {"type": "note_off", "time": 54, "note": 69, "velocity": 97, "channel": 0}, {"type": "note_on", "time": 5, "note": 72, "velocity": 119, "channel": 0}, {"type": "note_off", "time": 122, "note": 72, "velocity": 119, "channel": 0}, {"type": "note_on", "time": 18, "note": 74, "velocity": 119, "channel": 0}, {"type": "note_off", "time": 70, "note": 74, "velocity": 119, "channel": 0}, {"type": "note_on", "time": 306, "note": 67, "velocity": 112, "channel": 0}, {"type": "note_off", "time": 120, "note": 67, "velocity": 112, "channel": 0}, {"type": "note_on", "time": 153, "note": 67, "velocity": 103, "channel": 0}, {"type": "note_off", "time": 288, "note": 67, "velocity": 103, "channel": 0}, {"type": "note_on", "time": 889, "note": 68, "velocity": 119, "channel": 0}, {"type": "note_off", "time": 106, "note": 68, "velocity": 119, "channel": 0}, {"type": "note_on", "time": 409, "note": 60, "velocity": 106, "channel": 0}, {"type": "note_off", "time": 52, "note": 60, "velocity": 106, "channel": 0}, {"type": "note_on", "time": 14, "note": 63, "velocity": 120, "channel": 0}, {"type": "note_off", "time": 75, "note": 63, "velocity": 120, "channel": 0}, {"type": "note_on", "time": 34, "note": 67, "velocity": 123, "channel": 0}, {"type": "note_off", "time": 70, "note": 67, "velocity": 123, "channel": 0}, {"type": "note_on", "time": 36, "note": 65, "velocity": 119, "channel": 0}, {"type": "note_off", "time": 59, "note": 65, "velocity": 119, "channel": 0}, {"type": "note_on", "time": 16, "note": 63, "velocity": 121, "channel": 0}, {"type": "note_off", "time": 75, "note": 63, "velocity": 121, "channel": 0}, {"type": "note_on", "time": 22, "note": 62, "velocity": 115, "channel": 0}, {"type": "note_off", "time": 83, "note": 62, "velocity": 115, "channel": 0}, {"type": "note_on", "time": 12, "note": 65, "velocity": 122, "channel": 0}, {"type": "note_off", "time": 76, "note": 65, "velocity": 122, "channel": 0}, {"type": "note_on", "time": 15, "note": 68, "velocity": 119, "channel": 0}, {"type": "note_off", "time": 84, "note": 68, "velocity": 119, "channel": 0}, {"type": "note_on", "time": 20, "note": 72, "velocity": 123, "channel": 0}, {"type": "note_off", "time": 64, "note": 72, "velocity": 123, "channel": 0}, {"type": "note_on", "time": 18, "note": 70, "velocity": 120, "channel": 0}, {"type": "note_off", "time": 71, "note": 70, "velocity": 120, "channel": 0}, {"type": "note_on", "time": 50, "note": 68, "velocity": 122, "channel": 0}, {"type": "note_off", "time": 60, "note": 68, "velocity": 122, "channel": 0}, {"type": "note_on", "time": 17, "note": 67, "velocity": 115, "channel": 0}, {"type": "note_off", "time": 170, "note": 67, "velocity": 115, "channel": 0}, {"type": "note_on", "time": 398, "note": 58, "velocity": 101, "channel": 0}, {"type": "note_off", "time": 191, "note": 58, "velocity": 101, "channel": 0}, {"type": "note_on", "time": 12, "note": 60, "velocity": 95, "channel": 0}, {"type": "note_off", "time": 304, "note": 60, "velocity": 95, "channel": 0}, {"type": "note_on", "time": 801, "note": 57, "velocity": 114, "channel": 0}, {"type": "note_off", "time": 113, "note": 57, "velocity": 114, "channel": 0}, {"type": "note_on", "time": 10, "note": 58, "velocity": 120, "channel": 0}, {"type": "note_off", "time": 69, "note": 58, "velocity": 120, "channel": 0}, {"type": "note_on", "time": 19, "note": 60, "velocity": 117, "channel": 0}, {"type": "note_off", "time": 116, "note": 60, "velocity": 117, "channel": 0}, {"type": "note_on", "time": 24, "note": 63, "velocity": 124, "channel": 0}, {"type": "note_off", "time": 62, "note": 63, "velocity": 124, "channel": 0}, {"type": "note_on", "time": 16, "note": 62, "velocity": 118, "channel": 0}, {"type": "note_off", "time": 81, "note": 62, "velocity": 118, "channel": 0}, {"type": "note_on", "time": 427, "note": 66, "velocity": 123, "channel": 0}, {"type": "note_off", "time": 108, "note": 66, "velocity": 123, "channel": 0}, {"type": "note_on", "time": 28, "note": 69, "velocity": 121, "channel": 0}, {"type": "note_off", "time": 93, "note": 69, "velocity": 121, "channel": 0}, {"type": "note_on", "time": 37, "note": 67, "velocity": 122, "channel": 0}, {"type": "note_off", "time": 95, "note": 67, "velocity": 122, "channel": 0}, {"type": "note_on", "time": 72, "note": 70, "velocity": 122, "channel": 0}, {"type": "note_off", "time": 84, "note": 70, "velocity": 122, "channel": 0}, {"type": "note_on", "time": 16, "note": 74, "velocity": 124, "channel": 0}, {"type": "note_off", "time": 91, "note": 74, "velocity": 124, "channel": 0}, {"type": "note_on", "time": 38, "note": 72, "velocity": 120, "channel": 0}, {"type": "note_off", "time": 111, "note": 72, "velocity": 120, "channel": 0}, {"type": "note_on", "time": 706, "note": 77, "velocity": 119, "channel": 0}, {"type": "note_off", "time": 101, "note": 77, "velocity": 119, "channel": 0}, {"type": "note_on", "time": 78, "note": 77, "velocity": 123, "channel": 0}, {"type": "note_off", "time": 77, "note": 77, "velocity": 123, "channel": 0}, {"type": "note_on", "time": 15, "note": 76, "velocity": 121, "channel": 0}, {"type": "note_off", "time": 114, "note": 76, "velocity": 121, "channel": 0}, {"type": "note_on", "time": 53, "note": 74, "velocity": 123, "channel": 0}, {"type": "note_off", "time": 120, "note": 74, "velocity": 123, "channel": 0}, {"type": "note_on", "time": 32, "note": 73, "velocity": 120, "channel": 0}, {"type": "note_off", "time": 91, "note": 73, "velocity": 120, "channel": 0}, {"type": "note_on", "time": 69, "note": 70, "velocity": 121, "channel": 0}, {"type": "note_off", "time": 83, "note": 70, "velocity": 121, "channel": 0}, {"type": "note_on", "time": 8, "note": 69, "velocity": 117, "channel": 0}, {"type": "note_off", "time": 75, "note": 69, "velocity": 117, "channel": 0}, {"type": "note_on", "time": 13, "note": 67, "velocity": 118, "channel": 0}, {"type": "note_off", "time": 86, "note": 67, "velocity": 118, "channel": 0}, {"type": "note_on", "time": 36, "note": 65, "velocity": 122, "channel": 0}, {"type": "note_off", "time": 69, "note": 65, "velocity": 122, "channel": 0}, {"type": "note_on", "time": 13, "note": 63, "velocity": 121, "channel": 0}, {"type": "note_off", "time": 83, "note": 63, "velocity": 121, "channel": 0}, {"type": "note_on", "time": 13, "note": 64, "velocity": 118, "channel": 0}, {"type": "note_off", "time": 339, "note": 64, "velocity": 118, "channel": 0}, {"type": "note_on", "time": 48, "note": 67, "velocity": 120, "channel": 0}, {"type": "note_off", "time": 69, "note": 67, "velocity": 120, "channel": 0}, {"type": "note_on", "time": 16, "note": 70, "velocity": 122, "channel": 0}, {"type": "note_off", "time": 70, "note": 70, "velocity": 122, "channel": 0}, {"type": "note_on", "time": 57, "note": 70, "velocity": 118, "channel": 0}, {"type": "note_off", "time": 98, "note": 70, "velocity": 118, "channel": 0}, {"type": "note_on", "time": 11, "note": 72, "velocity": 119, "channel": 0}, {"type": "note_off", "time": 69, "note": 72, "velocity": 119, "channel": 0}, {"type": "note_on", "time": 77, "note": 69, "velocity": 117, "channel": 0}, {"type": "note_off", "time": 316, "note": 69, "velocity": 117, "channel": 0}, {"type": "note_on", "time": 72, "note": 70, "velocity": 117, "channel": 0}, {"type": "note_off", "time": 76, "note": 70, "velocity": 117, "channel": 0}, {"type": "note_on", "time": 38, "note": 72, "velocity": 120, "channel": 0}, {"type": "note_off", "time": 64, "note": 72, "velocity": 120, "channel": 0}, {"type": "note_on", "time": 18, "note": 74, "velocity": 125, "channel": 0}, {"type": "note_off", "time": 72, "note": 74, "velocity": 125, "channel": 0}, {"type": "note_on", "time": 13, "note": 75, "velocity": 123, "channel": 0}, {"type": "note_off", "time": 77, "note": 75, "velocity": 123, "channel": 0}, {"type": "note_on", "time": 7, "note": 72, "velocity": 120, "channel": 0}, {"type": "note_off", "time": 66, "note": 72, "velocity": 120, "channel": 0}, {"type": "note_on", "time": 29, "note": 69, "velocity": 118, "channel": 0}, {"type": "note_off", "time": 78, "note": 69, "velocity": 118, "channel": 0}, {"type": "note_on", "time": 21, "note": 67, "velocity": 117, "channel": 0}, {"type": "note_off", "time": 77, "note": 67, "velocity": 117, "channel": 0}, {"type": "note_on", "time": 27, "note": 66, "velocity": 117, "channel": 0}, {"type": "note_off", "time": 46, "note": 66, "velocity": 117, "channel": 0}, {"type": "note_on", "time": 39, "note": 69, "velocity": 120, "channel": 0}, {"type": "note_off", "time": 73, "note": 69, "velocity": 120, "channel": 0}, {"type": "note_on", "time": 33, "note": 75, "velocity": 122, "channel": 0}, {"type": "note_off", "time": 77, "note": 75, "velocity": 122, "channel": 0}, {"type": "note_on", "time": 18, "note": 75, "velocity": 123, "channel": 0}, {"type": "note_off", "time": 85, "note": 75, "velocity": 123, "channel": 0}, {"type": "note_on", "time": 11, "note": 74, "velocity": 122, "channel": 0}, {"type": "note_off", "time": 73, "note": 74, "velocity": 122, "channel": 0}, {"type": "note_on", "time": 19, "note": 72, "velocity": 119, "channel": 0}, {"type": "note_off", "time": 83, "note": 72, "velocity": 119, "channel": 0}, {"type": "note_on", "time": 25, "note": 70, "velocity": 120, "channel": 0}, {"type": "note_off", "time": 63, "note": 70, "velocity": 120, "channel": 0}, {"type": "note_on", "time": 20, "note": 72, "velocity": 119, "channel": 0}, {"type": "note_off", "time": 85, "note": 72, "velocity": 119, "channel": 0}, {"type": "note_on", "time": 14, "note": 74, "velocity": 121, "channel": 0}, {"type": "note_off", "time": 69, "note": 74, "velocity": 121, "channel": 0}, {"type": "note_on", "time": 27, "note": 70, "velocity": 120, "channel": 0}, {"type": "note_off", "time": 76, "note": 70, "velocity": 120, "channel": 0}, {"type": "note_on", "time": 15, "note": 69, "velocity": 119, "channel": 0}, {"type": "note_off", "time": 80, "note": 69, "velocity": 119, "channel": 0}, {"type": "note_on", "time": 19, "note": 67, "velocity": 120, "channel": 0}, {"type": "note_off", "time": 71, "note": 67, "velocity": 120, "channel": 0}, {"type": "note_on", "time": 13, "note": 66, "velocity": 120, "channel": 0}, {"type": "note_off", "time": 71, "note": 66, "velocity": 120, "channel": 0}, {"type": "note_on", "time": 34, "note": 63, "velocity": 120, "channel": 0}, {"type": "note_off", "time": 74, "note": 63, "velocity": 120, "channel": 0}, {"type": "note_on", "time": 17, "note": 62, "velocity": 117, "channel": 0}, {"type": "note_off", "time": 69, "note": 62, "velocity": 117, "channel": 0}, {"type": "note_on", "time": 17, "note": 64, "velocity": 107, "channel": 0}, {"type": "note_off", "time": 26, "note": 64, "velocity": 107, "channel": 0}, {"type": "note_on", "time": 10, "note": 60, "velocity": 113, "channel": 0}, {"type": "note_off", "time": 55, "note": 60, "velocity": 113, "channel": 0}, {"type": "note_on", "time": 30, "note": 58, "velocity": 112, "channel": 0}, {"type": "note_off", "time": 80, "note": 58, "velocity": 112, "channel": 0}, {"type": "note_on", "time": 15, "note": 57, "velocity": 108, "channel": 0}, {"type": "note_off", "time": 46, "note": 57, "velocity": 108, "channel": 0}, {"type": "note_on", "time": 11, "note": 55, "velocity": 112, "channel": 0}, {"type": "note_off", "time": 57, "note": 55, "velocity": 112, "channel": 0}, {"type": "note_on", "time": 13, "note": 57, "velocity": 118, "channel": 0}, {"type": "note_off", "time": 53, "note": 57, "velocity": 118, "channel": 0}, {"type": "note_on", "time": 390, "note": 54, "velocity": 111, "channel": 0}, {"type": "note_off", "time": 69, "note": 54, "velocity": 111, "channel": 0}, {"type": "note_on", "time": 8, "note": 55, "velocity": 109, "channel": 0}, {"type": "note_off", "time": 72, "note": 55, "velocity": 109, "channel": 0}, {"type": "note_on", "time": 30, "note": 57, "velocity": 118, "channel": 0}, {"type": "note_off", "time": 84, "note": 57, "velocity": 118, "channel": 0}, {"type": "note_on", "time": 11, "note": 58, "velocity": 118, "channel": 0}, {"type": "note_off", "time": 51, "note": 58, "velocity": 118, "channel": 0}, {"type": "note_on", "time": 44, "note": 60, "velocity": 118, "channel": 0}, {"type": "note_off", "time": 72, "note": 60, "velocity": 118, "channel": 0}, {"type": "note_on", "time": 16, "note": 62, "velocity": 118, "channel": 0}, {"type": "note_off", "time": 80, "note": 62, "velocity": 118, "channel": 0}, {"type": "note_on", "time": 23, "note": 65, "velocity": 122, "channel": 0}, {"type": "note_off", "time": 73, "note": 65, "velocity": 122, "channel": 0}, {"type": "note_on", "time": 22, "note": 63, "velocity": 118, "channel": 0}, {"type": "note_off", "time": 79, "note": 63, "velocity": 118, "channel": 0}, {"type": "note_on", "time": 20, "note": 65, "velocity": 123, "channel": 0}, {"type": "note_off", "time": 74, "note": 65, "velocity": 123, "channel": 0}, {"type": "note_on", "time": 9, "note": 67, "velocity": 120, "channel": 0}, {"type": "note_off", "time": 93, "note": 67, "velocity": 120, "channel": 0}, {"type": "note_on", "time": 13, "note": 70, "velocity": 117, "channel": 0}, {"type": "note_off", "time": 77, "note": 70, "velocity": 117, "channel": 0}, {"type": "note_on", "time": 21, "note": 74, "velocity": 123, "channel": 0}, {"type": "note_off", "time": 80, "note": 74, "velocity": 123, "channel": 0}, {"type": "note_on", "time": 14, "note": 75, "velocity": 120, "channel": 0}, {"type": "note_off", "time": 270, "note": 75, "velocity": 120, "channel": 0}, {"type": "note_on", "time": 33, "note": 72, "velocity": 116, "channel": 0}, {"type": "note_off", "time": 209, "note": 72, "velocity": 116, "channel": 0}, {"type": "note_on", "time": 80, "note": 68, "velocity": 116, "channel": 0}, {"type": "note_off", "time": 79, "note": 68, "velocity": 116, "channel": 0}, {"type": "note_on", "time": 11, "note": 65, "velocity": 113, "channel": 0}, {"type": "note_off", "time": 157, "note": 65, "velocity": 113, "channel": 0}, {"type": "note_on", "time": 9, "note": 68, "velocity": 117, "channel": 0}, {"type": "note_off", "time": 89, "note": 68, "velocity": 117, "channel": 0}, {"type": "note_on", "time": 26, "note": 75, "velocity": 123, "channel": 0}, {"type": "note_off", "time": 104, "note": 75, "velocity": 123, "channel": 0}, {"type": "note_on", "time": 17, "note": 74, "velocity": 123, "channel": 0}, {"type": "note_off", "time": 133, "note": 74, "velocity": 123, "channel": 0}, {"type": "note_on", "time": 19, "note": 70, "velocity": 113, "channel": 0}, {"type": "note_off", "time": 91, "note": 70, "velocity": 113, "channel": 0}, {"type": "note_on", "time": 42, "note": 72, "velocity": 117, "channel": 0}, {"type": "note_off", "time": 204, "note": 72, "velocity": 117, "channel": 0}, {"type": "note_on", "time": 47, "note": 67, "velocity": 101, "channel": 0}, {"type": "note_off", "time": 93, "note": 67, "velocity": 101, "channel": 0}, {"type": "note_on", "time": 110, "note": 70, "velocity": 102, "channel": 0}, {"type": "note_off", "time": 287, "note": 70, "velocity": 102, "channel": 0}, {"type": "note_on", "time": 1272, "note": 74, "velocity": 118, "channel": 0}, {"type": "note_off", "time": 750, "note": 74, "velocity": 118, "channel": 0}, {"type": "note_on", "time": 38, "note": 81, "velocity": 119, "channel": 0}, {"type": "note_off", "time": 139, "note": 81, "velocity": 119, "channel": 0}, {"type": "note_on", "time": 1036, "note": 74, "velocity": 120, "channel": 0}, {"type": "note_off", "time": 512, "note": 74, "velocity": 120, "channel": 0}, {"type": "note_on", "time": 73, "note": 67, "velocity": 116, "channel": 0}, {"type": "note_off", "time": 78, "note": 67, "velocity": 116, "channel": 0}, {"type": "note_on", "time": 41, "note": 67, "velocity": 117, "channel": 0}, {"type": "note_off", "time": 48, "note": 67, "velocity": 117, "channel": 0}, {"type": "note_on", "time": 22, "note": 70, "velocity": 121, "channel": 0}, {"type": "note_off", "time": 83, "note": 70, "velocity": 121, "channel": 0}, {"type": "note_on", "time": 13, "note": 70, "velocity": 122, "channel": 0}, {"type": "note_off", "time": 74, "note": 70, "velocity": 122, "channel": 0}, {"type": "note_on", "time": 14, "note": 72, "velocity": 118, "channel": 0}, {"type": "note_off", "time": 98, "note": 72, "velocity": 118, "channel": 0}, {"type": "note_on", "time": 105, "note": 74, "velocity": 123, "channel": 0}, {"type": "note_off", "time": 171, "note": 74, "velocity": 123, "channel": 0}, {"type": "note_on", "time": 11, "note": 67, "velocity": 99, "channel": 0}, {"type": "note_off", "time": 76, "note": 67, "velocity": 99, "channel": 0}, {"type": "note_on", "time": 124, "note": 70, "velocity": 116, "channel": 0}, {"type": "note_off", "time": 263, "note": 70, "velocity": 116, "channel": 0}, {"type": "note_on", "time": 50, "note": 72, "velocity": 110, "channel": 0}, {"type": "note_off", "time": 77, "note": 72, "velocity": 110, "channel": 0}, {"type": "note_on", "time": 307, "note": 70, "velocity": 120, "channel": 0}, {"type": "note_off", "time": 76, "note": 70, "velocity": 120, "channel": 0}, {"type": "note_on", "time": 13, "note": 69, "velocity": 117, "channel": 0}, {"type": "note_off", "time": 72, "note": 69, "velocity": 117, "channel": 0}, {"type": "note_on", "time": 31, "note": 67, "velocity": 117, "channel": 0}, {"type": "note_off", "time": 78, "note": 67, "velocity": 117, "channel": 0}, {"type": "note_on", "time": 9, "note": 65, "velocity": 116, "channel": 0}, {"type": "note_off", "time": 74, "note": 65, "velocity": 116, "channel": 0}, {"type": "note_on", "time": 14, "note": 66, "velocity": 103, "channel": 0}, {"type": "note_off", "time": 37, "note": 66, "velocity": 103, "channel": 0}, {"type": "note_on", "time": 6, "note": 63, "velocity": 116, "channel": 0}, {"type": "note_off", "time": 43, "note": 63, "velocity": 116, "channel": 0}, {"type": "note_on", "time": 12, "note": 62, "velocity": 113, "channel": 0}, {"type": "note_off", "time": 85, "note": 62, "velocity": 113, "channel": 0}, {"type": "note_on", "time": 16, "note": 65, "velocity": 120, "channel": 0}, {"type": "note_off", "time": 72, "note": 65, "velocity": 120, "channel": 0}, {"type": "note_on", "time": 13, "note": 69, "velocity": 122, "channel": 0}, {"type": "note_off", "time": 94, "note": 69, "velocity": 122, "channel": 0}, {"type": "note_on", "time": 22, "note": 72, "velocity": 121, "channel": 0}, {"type": "note_off", "time": 72, "note": 72, "velocity": 121, "channel": 0}, {"type": "note_on", "time": 24, "note": 70, "velocity": 119, "channel": 0}, {"type": "note_off", "time": 83, "note": 70, "velocity": 119, "channel": 0}, {"type": "note_on", "time": 18, "note": 74, "velocity": 122, "channel": 0}, {"type": "note_off", "time": 77, "note": 74, "velocity": 122, "channel": 0}, {"type": "note_on", "time": 8, "note": 72, "velocity": 119, "channel": 0}, {"type": "note_off", "time": 83, "note": 72, "velocity": 119, "channel": 0}, {"type": "note_on", "time": 23, "note": 70, "velocity": 120, "channel": 0}, {"type": "note_off", "time": 79, "note": 70, "velocity": 120, "channel": 0}, {"type": "note_on", "time": 10, "note": 69, "velocity": 120, "channel": 0}, {"type": "note_off", "time": 83, "note": 69, "velocity": 120, "channel": 0}, {"type": "note_on", "time": 25, "note": 67, "velocity": 116, "channel": 0}, {"type": "note_off", "time": 72, "note": 67, "velocity": 116, "channel": 0}, {"type": "note_on", "time": 30, "note": 66, "velocity": 115, "channel": 0}, {"type": "note_off", "time": 62, "note": 66, "velocity": 115, "channel": 0}, {"type": "note_on", "time": 13, "note": 69, "velocity": 120, "channel": 0}, {"type": "note_off", "time": 87, "note": 69, "velocity": 120, "channel": 0}, {"type": "note_on", "time": 21, "note": 67, "velocity": 112, "channel": 0}, {"type": "note_off", "time": 73, "note": 67, "velocity": 112, "channel": 0}, {"type": "note_on", "time": 20, "note": 67, "velocity": 117, "channel": 0}, {"type": "note_off", "time": 61, "note": 67, "velocity": 117, "channel": 0}, {"type": "note_on", "time": 6, "note": 69, "velocity": 118, "channel": 0}, {"type": "note_off", "time": 105, "note": 69, "velocity": 118, "channel": 0}, {"type": "note_on", "time": 13, "note": 69, "velocity": 119, "channel": 0}, {"type": "note_off", "time": 87, "note": 69, "velocity": 119, "channel": 0}, {"type": "note_on", "time": 19, "note": 70, "velocity": 120, "channel": 0}, {"type": "note_off", "time": 82, "note": 70, "velocity": 120, "channel": 0}, {"type": "note_on", "time": 20, "note": 70, "velocity": 121, "channel": 0}, {"type": "note_off", "time": 57, "note": 70, "velocity": 121, "channel": 0}, {"type": "note_on", "time": 14, "note": 72, "velocity": 119, "channel": 0}, {"type": "note_off", "time": 91, "note": 72, "velocity": 119, "channel": 0}, {"type": "note_on", "time": 77, "note": 74, "velocity": 120, "channel": 0}, {"type": "note_off", "time": 749, "note": 74, "velocity": 120, "channel": 0}, {"type": "note_on", "time": 32, "note": 73, "velocity": 117, "channel": 0}, {"type": "note_off", "time": 62, "note": 73, "velocity": 117, "channel": 0}, {"type": "note_on", "time": 17, "note": 72, "velocity": 116, "channel": 0}, {"type": "note_off", "time": 285, "note": 72, "velocity": 116, "channel": 0}, {"type": "note_on", "time": 44, "note": 72, "velocity": 120, "channel": 0}, {"type": "note_off", "time": 64, "note": 72, "velocity": 120, "channel": 0}, {"type": "note_on", "time": 34, "note": 70, "velocity": 116, "channel": 0}, {"type": "note_off", "time": 176, "note": 70, "velocity": 116, "channel": 0}, {"type": "note_on", "time": 67, "note": 70, "velocity": 115, "channel": 0}, {"type": "note_off", "time": 112, "note": 70, "velocity": 115, "channel": 0}, {"type": "note_on", "time": 31, "note": 72, "velocity": 116, "channel": 0}, {"type": "note_off", "time": 163, "note": 72, "velocity": 116, "channel": 0}, {"type": "note_on", "time": 106, "note": 72, "velocity": 119, "channel": 0}, {"type": "note_off", "time": 178, "note": 72, "velocity": 119, "channel": 0}, {"type": "note_on", "time": 15, "note": 67, "velocity": 112, "channel": 0}, {"type": "note_off", "time": 73, "note": 67, "velocity": 112, "channel": 0}, {"type": "note_on", "time": 96, "note": 67, "velocity": 112, "channel": 0}, {"type": "note_off", "time": 313, "note": 67, "velocity": 112, "channel": 0}, {"type": "note_on", "time": 47, "note": 63, "velocity": 118, "channel": 0}, {"type": "note_off", "time": 103, "note": 63, "velocity": 118, "channel": 0}, {"type": "note_on", "time": 68, "note": 60, "velocity": 110, "channel": 0}, {"type": "note_off", "time": 111, "note": 60, "velocity": 110, "channel": 0}, {"type": "note_on", "time": 23, "note": 56, "velocity": 113, "channel": 0}, {"type": "note_off", "time": 240, "note": 56, "velocity": 113, "channel": 0}, {"type": "note_on", "time": 22, "note": 60, "velocity": 114, "channel": 0}, {"type": "note_off", "time": 61, "note": 60, "velocity": 114, "channel": 0}, {"type": "note_on", "time": 10, "note": 63, "velocity": 118, "channel": 0}, {"type": "note_off", "time": 62, "note": 63, "velocity": 118, "channel": 0}, {"type": "note_on", "time": 12, "note": 67, "velocity": 117, "channel": 0}, {"type": "note_off", "time": 62, "note": 67, "velocity": 117, "channel": 0}, {"type": "note_on", "time": 25, "note": 65, "velocity": 121, "channel": 0}, {"type": "note_off", "time": 61, "note": 65, "velocity": 121, "channel": 0}, {"type": "note_on", "time": 22, "note": 63, "velocity": 114, "channel": 0}, {"type": "note_off", "time": 82, "note": 63, "velocity": 114, "channel": 0}, {"type": "note_on", "time": 12, "note": 62, "velocity": 116, "channel": 0}, {"type": "note_off", "time": 82, "note": 62, "velocity": 116, "channel": 0}, {"type": "note_on", "time": 10, "note": 60, "velocity": 110, "channel": 0}, {"type": "note_off", "time": 76, "note": 60, "velocity": 110, "channel": 0}, {"type": "note_on", "time": 16, "note": 58, "velocity": 119, "channel": 0}, {"type": "note_off", "time": 73, "note": 58, "velocity": 119, "channel": 0}, {"type": "note_on", "time": 21, "note": 56, "velocity": 113, "channel": 0}, {"type": "note_off", "time": 66, "note": 56, "velocity": 113, "channel": 0}, {"type": "note_on", "time": 7, "note": 53, "velocity": 105, "channel": 0}, {"type": "note_off", "time": 96, "note": 53, "velocity": 105, "channel": 0}, {"type": "note_on", "time": 24, "note": 54, "velocity": 112, "channel": 0}, {"type": "note_off", "time": 75, "note": 54, "velocity": 112, "channel": 0}, {"type": "note_on", "time": 16, "note": 55, "velocity": 116, "channel": 0}, {"type": "note_off", "time": 72, "note": 55, "velocity": 116, "channel": 0}, {"type": "note_on", "time": 12, "note": 56, "velocity": 118, "channel": 0}, {"type": "note_off", "time": 69, "note": 56, "velocity": 118, "channel": 0}, {"type": "note_on", "time": 28, "note": 58, "velocity": 117, "channel": 0}, {"type": "note_off", "time": 68, "note": 58, "velocity": 117, "channel": 0}, {"type": "note_on", "time": 32, "note": 60, "velocity": 118, "channel": 0}, {"type": "note_off", "time": 62, "note": 60, "velocity": 118, "channel": 0}, {"type": "note_on", "time": 38, "note": 62, "velocity": 118, "channel": 0}, {"type": "note_off", "time": 58, "note": 62, "velocity": 118, "channel": 0}, {"type": "note_on", "time": 10, "note": 65, "velocity": 120, "channel": 0}, {"type": "note_off", "time": 68, "note": 65, "velocity": 120, "channel": 0}, {"type": "note_on", "time": 24, "note": 63, "velocity": 117, "channel": 0}, {"type": "note_off", "time": 64, "note": 63, "velocity": 117, "channel": 0}, {"type": "note_on", "time": 24, "note": 62, "velocity": 119, "channel": 0}, {"type": "note_off", "time": 83, "note": 62, "velocity": 119, "channel": 0}, {"type": "note_on", "time": 29, "note": 63, "velocity": 120, "channel": 0}, {"type": "note_off", "time": 68, "note": 63, "velocity": 120, "channel": 0}, {"type": "note_on", "time": 21, "note": 67, "velocity": 117, "channel": 0}, {"type": "note_off", "time": 96, "note": 67, "velocity": 117, "channel": 0}, {"type": "note_on", "time": 713, "note": 66, "velocity": 119, "channel": 0}, {"type": "note_off", "time": 64, "note": 66, "velocity": 119, "channel": 0}, {"type": "note_on", "time": 39, "note": 67, "velocity": 121, "channel": 0}, {"type": "note_off", "time": 87, "note": 67, "velocity": 121, "channel": 0}, {"type": "note_on", "time": 14, "note": 69, "velocity": 120, "channel": 0}, {"type": "note_off", "time": 86, "note": 69, "velocity": 120, "channel": 0}, {"type": "note_on", "time": 12, "note": 70, "velocity": 122, "channel": 0}, {"type": "note_off", "time": 71, "note": 70, "velocity": 122, "channel": 0}, {"type": "note_on", "time": 12, "note": 72, "velocity": 118, "channel": 0}, {"type": "note_off", "time": 66, "note": 72, "velocity": 118, "channel": 0}, {"type": "note_on", "time": 23, "note": 74, "velocity": 121, "channel": 0}, {"type": "note_off", "time": 83, "note": 74, "velocity": 121, "channel": 0}, {"type": "note_on", "time": 24, "note": 75, "velocity": 123, "channel": 0}, {"type": "note_off", "time": 85, "note": 75, "velocity": 123, "channel": 0}, {"type": "note_on", "time": 29, "note": 72, "velocity": 119, "channel": 0}, {"type": "note_off", "time": 50, "note": 72, "velocity": 119, "channel": 0}, {"type": "note_on", "time": 19, "note": 69, "velocity": 119, "channel": 0}, {"type": "note_off", "time": 90, "note": 69, "velocity": 119, "channel": 0}, {"type": "note_on", "time": 11, "note": 70, "velocity": 113, "channel": 0}, {"type": "note_off", "time": 26, "note": 70, "velocity": 113, "channel": 0}, {"type": "note_on", "time": 8, "note": 67, "velocity": 120, "channel": 0}, {"type": "note_off", "time": 57, "note": 67, "velocity": 120, "channel": 0}, {"type": "note_on", "time": 13, "note": 66, "velocity": 117, "channel": 0}, {"type": "note_off", "time": 61, "note": 66, "velocity": 117, "channel": 0}, {"type": "note_on", "time": 30, "note": 69, "velocity": 121, "channel": 0}, {"type": "note_off", "time": 71, "note": 69, "velocity": 121, "channel": 0}, {"type": "note_on", "time": 19, "note": 72, "velocity": 119, "channel": 0}, {"type": "note_off", "time": 79, "note": 72, "velocity": 119, "channel": 0}, {"type": "note_on", "time": 8, "note": 75, "velocity": 125, "channel": 0}, {"type": "note_off", "time": 94, "note": 75, "velocity": 125, "channel": 0}, {"type": "note_on", "time": 5, "note": 74, "velocity": 122, "channel": 0}, {"type": "note_off", "time": 87, "note": 74, "velocity": 122, "channel": 0}, {"type": "note_on", "time": 18, "note": 70, "velocity": 120, "channel": 0}, {"type": "note_off", "time": 72, "note": 70, "velocity": 120, "channel": 0}, {"type": "note_on", "time": 8, "note": 69, "velocity": 113, "channel": 0}, {"type": "note_off", "time": 89, "note": 69, "velocity": 113, "channel": 0}, {"type": "note_on", "time": 9, "note": 72, "velocity": 118, "channel": 0}, {"type": "note_off", "time": 85, "note": 72, "velocity": 118, "channel": 0}, {"type": "note_on", "time": 15, "note": 70, "velocity": 119, "channel": 0}, {"type": "note_off", "time": 93, "note": 70, "velocity": 119, "channel": 0}, {"type": "note_on", "time": 14, "note": 69, "velocity": 120, "channel": 0}, {"type": "note_off", "time": 31, "note": 69, "velocity": 120, "channel": 0}, {"type": "note_on", "time": 2, "note": 67, "velocity": 105, "channel": 0}, {"type": "note_off", "time": 41, "note": 67, "velocity": 105, "channel": 0}, {"type": "note_on", "time": 6, "note": 66, "velocity": 114, "channel": 0}, {"type": "note_off", "time": 72, "note": 66, "velocity": 114, "channel": 0}, {"type": "note_on", "time": 20, "note": 69, "velocity": 121, "channel": 0}, {"type": "note_off", "time": 79, "note": 69, "velocity": 121, "channel": 0}, {"type": "note_on", "time": 17, "note": 67, "velocity": 113, "channel": 0}, {"type": "note_off", "time": 89, "note": 67, "velocity": 113, "channel": 0}, {"type": "note_on", "time": 20, "note": 69, "velocity": 120, "channel": 0}, {"type": "note_off", "time": 82, "note": 69, "velocity": 120, "channel": 0}, {"type": "note_on", "time": 12, "note": 70, "velocity": 120, "channel": 0}, {"type": "note_off", "time": 57, "note": 70, "velocity": 120, "channel": 0}, {"type": "note_on", "time": 31, "note": 72, "velocity": 121, "channel": 0}, {"type": "note_off", "time": 74, "note": 72, "velocity": 121, "channel": 0}, {"type": "note_on", "time": 17, "note": 74, "velocity": 120, "channel": 0}, {"type": "note_off", "time": 80, "note": 74, "velocity": 120, "channel": 0}, {"type": "note_on", "time": 20, "note": 77, "velocity": 124, "channel": 0}, {"type": "note_off", "time": 86, "note": 77, "velocity": 124, "channel": 0}, {"type": "note_on", "time": 5, "note": 76, "velocity": 123, "channel": 0}, {"type": "note_off", "time": 83, "note": 76, "velocity": 123, "channel": 0}, {"type": "note_on", "time": 18, "note": 76, "velocity": 119, "channel": 0}, {"type": "note_off", "time": 20, "note": 76, "velocity": 119, "channel": 0}, {"type": "note_on", "time": 8, "note": 74, "velocity": 121, "channel": 0}, {"type": "note_off", "time": 64, "note": 74, "velocity": 121, "channel": 0}, {"type": "note_on", "time": 15, "note": 73, "velocity": 118, "channel": 0}, {"type": "note_off", "time": 70, "note": 73, "velocity": 118, "channel": 0}, {"type": "note_on", "time": 414, "note": 74, "velocity": 124, "channel": 0}, {"type": "note_off", "time": 78, "note": 74, "velocity": 124, "channel": 0}, {"type": "note_on", "time": 12, "note": 76, "velocity": 120, "channel": 0}, {"type": "note_off", "time": 84, "note": 76, "velocity": 120, "channel": 0}, {"type": "note_on", "time": 14, "note": 78, "velocity": 116, "channel": 0}, {"type": "note_off", "time": 81, "note": 78, "velocity": 116, "channel": 0}, {"type": "note_on", "time": 734, "note": 79, "velocity": 118, "channel": 0}, {"type": "note_off", "time": 135, "note": 79, "velocity": 118, "channel": 0}, {"type": "note_on", "time": 64, "note": 79, "velocity": 120, "channel": 0}, {"type": "note_off", "time": 108, "note": 79, "velocity": 120, "channel": 0}, {"type": "note_on", "time": 29, "note": 78, "velocity": 121, "channel": 0}, {"type": "note_off", "time": 97, "note": 78, "velocity": 121, "channel": 0}, {"type": "note_on", "time": 65, "note": 78, "velocity": 116, "channel": 0}, {"type": "note_off", "time": 90, "note": 78, "velocity": 116, "channel": 0}, {"type": "note_on", "time": 20, "note": 72, "velocity": 117, "channel": 0}, {"type": "note_off", "time": 431, "note": 72, "velocity": 117, "channel": 0}, {"type": "note_on", "time": 32, "note": 75, "velocity": 121, "channel": 0}, {"type": "note_off", "time": 84, "note": 75, "velocity": 121, "channel": 0}, {"type": "note_on", "time": 20, "note": 74, "velocity": 115, "channel": 0}, {"type": "note_off", "time": 110, "note": 74, "velocity": 115, "channel": 0}, {"type": "note_on", "time": 58, "note": 77, "velocity": 115, "channel": 0}, {"type": "note_off", "time": 89, "note": 77, "velocity": 115, "channel": 0}, {"type": "note_on", "time": 16, "note": 81, "velocity": 111, "channel": 0}, {"type": "note_off", "time": 108, "note": 81, "velocity": 111, "channel": 0}, {"type": "note_on", "time": 41, "note": 73, "velocity": 109, "channel": 0}, {"type": "note_off", "time": 98, "note": 73, "velocity": 109, "channel": 0}, {"type": "note_on", "time": 43, "note": 73, "velocity": 121, "channel": 0}, {"type": "note_off", "time": 143, "note": 73, "velocity": 121, "channel": 0}, {"type": "note_on", "time": 52, "note": 72, "velocity": 118, "channel": 0}, {"type": "note_off", "time": 229, "note": 72, "velocity": 118, "channel": 0}, {"type": "note_on", "time": 47, "note": 70, "velocity": 98, "channel": 0}, {"type": "note_off", "time": 52, "note": 70, "velocity": 98, "channel": 0}, {"type": "note_on", "time": 19, "note": 72, "velocity": 119, "channel": 0}, {"type": "note_off", "time": 127, "note": 72, "velocity": 119, "channel": 0}, {"type": "note_on", "time": 14, "note": 74, "velocity": 109, "channel": 0}, {"type": "note_off", "time": 77, "note": 74, "velocity": 109, "channel": 0}, {"type": "note_on", "time": 91, "note": 70, "velocity": 118, "channel": 0}, {"type": "note_off", "time": 142, "note": 70, "velocity": 118, "channel": 0}, {"type": "note_on", "time": 228, "note": 67, "velocity": 10, "channel": 0}, {"type": "note_off", "time": 289, "note": 67, "velocity": 10, "channel": 0}, {"type": "note_on", "time": 1072, "note": 75, "velocity": 122, "channel": 0}, {"type": "note_off", "time": 95, "note": 75, "velocity": 122, "channel": 0}, {"type": "note_on", "time": 54, "note": 72, "velocity": 120, "channel": 0}, {"type": "note_off", "time": 88, "note": 72, "velocity": 120, "channel": 0}, {"type": "note_on", "time": 38, "note": 68, "velocity": 117, "channel": 0}, {"type": "note_off", "time": 94, "note": 68, "velocity": 117, "channel": 0}, {"type": "note_on", "time": 188, "note": 69, "velocity": 117, "channel": 0}, {"type": "note_off", "time": 21, "note": 69, "velocity": 117, "channel": 0}, {"type": "note_on", "time": 5, "note": 65, "velocity": 123, "channel": 0}, {"type": "note_off", "time": 59, "note": 65, "velocity": 123, "channel": 0}, {"type": "note_on", "time": 9, "note": 64, "velocity": 122, "channel": 0}, {"type": "note_off", "time": 101, "note": 64, "velocity": 122, "channel": 0}, {"type": "note_on", "time": 12, "note": 62, "velocity": 106, "channel": 0}, {"type": "note_off", "time": 53, "note": 62, "velocity": 106, "channel": 0}, {"type": "note_on", "time": 27, "note": 63, "velocity": 118, "channel": 0}, {"type": "note_off", "time": 91, "note": 63, "velocity": 118, "channel": 0}, {"type": "note_on", "time": 454, "note": 62, "velocity": 122, "channel": 0}, {"type": "note_off", "time": 91, "note": 62, "velocity": 122, "channel": 0}, {"type": "note_on", "time": 27, "note": 65, "velocity": 123, "channel": 0}, {"type": "note_off", "time": 70, "note": 65, "velocity": 123, "channel": 0}, {"type": "note_on", "time": 11, "note": 68, "velocity": 120, "channel": 0}, {"type": "note_off", "time": 80, "note": 68, "velocity": 120, "channel": 0}, {"type": "note_on", "time": 24, "note": 72, "velocity": 123, "channel": 0}, {"type": "note_off", "time": 94, "note": 72, "velocity": 123, "channel": 0}, {"type": "note_on", "time": 13, "note": 70, "velocity": 121, "channel": 0}, {"type": "note_off", "time": 80, "note": 70, "velocity": 121, "channel": 0}, {"type": "note_on", "time": 20, "note": 70, "velocity": 113, "channel": 0}, {"type": "note_off", "time": 19, "note": 70, "velocity": 113, "channel": 0}, {"type": "note_on", "time": 3, "note": 67, "velocity": 115, "channel": 0}, {"type": "note_off", "time": 49, "note": 67, "velocity": 115, "channel": 0}, {"type": "note_on", "time": 32, "note": 65, "velocity": 121, "channel": 0}, {"type": "note_off", "time": 54, "note": 65, "velocity": 121, "channel": 0}, {"type": "note_on", "time": 32, "note": 63, "velocity": 119, "channel": 0}, {"type": "note_off", "time": 73, "note": 63, "velocity": 119, "channel": 0}, {"type": "note_on", "time": 22, "note": 62, "velocity": 112, "channel": 0}, {"type": "note_off", "time": 75, "note": 62, "velocity": 112, "channel": 0}, {"type": "note_on", "time": 10, "note": 65, "velocity": 123, "channel": 0}, {"type": "note_off", "time": 74, "note": 65, "velocity": 123, "channel": 0}, {"type": "note_on", "time": 13, "note": 63, "velocity": 115, "channel": 0}, {"type": "note_off", "time": 83, "note": 63, "velocity": 115, "channel": 0}, {"type": "note_on", "time": 36, "note": 62, "velocity": 119, "channel": 0}, {"type": "note_off", "time": 69, "note": 62, "velocity": 119, "channel": 0}, {"type": "note_on", "time": 6, "note": 63, "velocity": 117, "channel": 0}, {"type": "note_off", "time": 86, "note": 63, "velocity": 117, "channel": 0}, {"type": "note_on", "time": 14, "note": 67, "velocity": 121, "channel": 0}, {"type": "note_off", "time": 69, "note": 67, "velocity": 121, "channel": 0}, {"type": "note_on", "time": 32, "note": 64, "velocity": 116, "channel": 0}, {"type": "note_off", "time": 61, "note": 64, "velocity": 116, "channel": 0}, {"type": "note_on", "time": 41, "note": 63, "velocity": 125, "channel": 0}, {"type": "note_off", "time": 56, "note": 63, "velocity": 125, "channel": 0}, {"type": "note_on", "time": 13, "note": 64, "velocity": 118, "channel": 0}, {"type": "note_off", "time": 90, "note": 64, "velocity": 118, "channel": 0}, {"type": "note_on", "time": 18, "note": 67, "velocity": 118, "channel": 0}, {"type": "note_off", "time": 64, "note": 67, "velocity": 118, "channel": 0}, {"type": "note_on", "time": 26, "note": 65, "velocity": 117, "channel": 0}, {"type": "note_off", "time": 78, "note": 65, "velocity": 117, "channel": 0}, {"type": "note_on", "time": 39, "note": 64, "velocity": 119, "channel": 0}, {"type": "note_off", "time": 46, "note": 64, "velocity": 119, "channel": 0}, {"type": "note_on", "time": 13, "note": 65, "velocity": 116, "channel": 0}, {"type": "note_off", "time": 89, "note": 65, "velocity": 116, "channel": 0}, {"type": "note_on", "time": 31, "note": 69, "velocity": 122, "channel": 0}, {"type": "note_off", "time": 51, "note": 69, "velocity": 122, "channel": 0}, {"type": "note_on", "time": 16, "note": 67, "velocity": 119, "channel": 0}, {"type": "note_off", "time": 83, "note": 67, "velocity": 119, "channel": 0}, {"type": "note_on", "time": 23, "note": 66, "velocity": 120, "channel": 0}, {"type": "note_off", "time": 68, "note": 66, "velocity": 120, "channel": 0}, {"type": "note_on", "time": 17, "note": 67, "velocity": 118, "channel": 0}, {"type": "note_off", "time": 91, "note": 67, "velocity": 118, "channel": 0}, {"type": "note_on", "time": 10, "note": 70, "velocity": 122, "channel": 0}, {"type": "note_off", "time": 78, "note": 70, "velocity": 122, "channel": 0}, {"type": "note_on", "time": 16, "note": 69, "velocity": 120, "channel": 0}, {"type": "note_off", "time": 80, "note": 69, "velocity": 120, "channel": 0}, {"type": "note_on", "time": 35, "note": 68, "velocity": 120, "channel": 0}, {"type": "note_off", "time": 67, "note": 68, "velocity": 120, "channel": 0}, {"type": "note_on", "time": 12, "note": 69, "velocity": 120, "channel": 0}, {"type": "note_off", "time": 73, "note": 69, "velocity": 120, "channel": 0}, {"type": "note_on", "time": 9, "note": 72, "velocity": 124, "channel": 0}, {"type": "note_off", "time": 74, "note": 72, "velocity": 124, "channel": 0}, {"type": "note_on", "time": 24, "note": 70, "velocity": 121, "channel": 0}, {"type": "note_off", "time": 72, "note": 70, "velocity": 121, "channel": 0}, {"type": "note_on", "time": 17, "note": 69, "velocity": 120, "channel": 0}, {"type": "note_off", "time": 83, "note": 69, "velocity": 120, "channel": 0}, {"type": "note_on", "time": 9, "note": 70, "velocity": 122, "channel": 0}, {"type": "note_off", "time": 73, "note": 70, "velocity": 122, "channel": 0}, {"type": "note_on", "time": 20, "note": 72, "velocity": 123, "channel": 0}, {"type": "note_off", "time": 76, "note": 72, "velocity": 123, "channel": 0}, {"type": "note_on", "time": 8, "note": 74, "velocity": 123, "channel": 0}, {"type": "note_off", "time": 84, "note": 74, "velocity": 123, "channel": 0}, {"type": "note_on", "time": 27, "note": 75, "velocity": 121, "channel": 0}, {"type": "note_off", "time": 71, "note": 75, "velocity": 121, "channel": 0}, {"type": "note_on", "time": 8, "note": 74, "velocity": 118, "channel": 0}, {"type": "note_off", "time": 71, "note": 74, "velocity": 118, "channel": 0}, {"type": "note_on", "time": 15, "note": 72, "velocity": 120, "channel": 0}, {"type": "note_off", "time": 84, "note": 72, "velocity": 120, "channel": 0}, {"type": "note_on", "time": 11, "note": 70, "velocity": 120, "channel": 0}, {"type": "note_off", "time": 72, "note": 70, "velocity": 120, "channel": 0}, {"type": "note_on", "time": 50, "note": 69, "velocity": 107, "channel": 0}, {"type": "note_off", "time": 32, "note": 69, "velocity": 107, "channel": 0}, {"type": "note_on", "time": 32, "note": 72, "velocity": 121, "channel": 0}, {"type": "note_off", "time": 89, "note": 72, "velocity": 121, "channel": 0}, {"type": "note_on", "time": 25, "note": 69, "velocity": 121, "channel": 0}, {"type": "note_off", "time": 66, "note": 69, "velocity": 121, "channel": 0}, {"type": "note_on", "time": 9, "note": 70, "velocity": 122, "channel": 0}, {"type": "note_off", "time": 65, "note": 70, "velocity": 122, "channel": 0}, {"type": "note_on", "time": 24, "note": 72, "velocity": 125, "channel": 0}, {"type": "note_off", "time": 67, "note": 72, "velocity": 125, "channel": 0}, {"type": "note_on", "time": 35, "note": 74, "velocity": 123, "channel": 0}, {"type": "note_off", "time": 76, "note": 74, "velocity": 123, "channel": 0}, {"type": "note_on", "time": 31, "note": 70, "velocity": 117, "channel": 0}, {"type": "note_off", "time": 52, "note": 70, "velocity": 117, "channel": 0}, {"type": "note_on", "time": 19, "note": 67, "velocity": 115, "channel": 0}, {"type": "note_off", "time": 70, "note": 67, "velocity": 115, "channel": 0}, {"type": "note_on", "time": 36, "note": 63, "velocity": 113, "channel": 0}, {"type": "note_off", "time": 22, "note": 63, "velocity": 113, "channel": 0}, {"type": "note_on", "time": 10, "note": 64, "velocity": 116, "channel": 0}, {"type": "note_off", "time": 32, "note": 64, "velocity": 116, "channel": 0}, {"type": "note_on", "time": 9, "note": 65, "velocity": 119, "channel": 0}, {"type": "note_off", "time": 62, "note": 65, "velocity": 119, "channel": 0}, {"type": "note_on", "time": 24, "note": 62, "velocity": 117, "channel": 0}, {"type": "note_off", "time": 64, "note": 62, "velocity": 117, "channel": 0}, {"type": "note_on", "time": 15, "note": 64, "velocity": 118, "channel": 0}, {"type": "note_off", "time": 77, "note": 64, "velocity": 118, "channel": 0}, {"type": "note_on", "time": 20, "note": 67, "velocity": 127, "channel": 0}, {"type": "note_off", "time": 56, "note": 67, "velocity": 127, "channel": 0}, {"type": "note_on", "time": 23, "note": 70, "velocity": 120, "channel": 0}, {"type": "note_off", "time": 89, "note": 70, "velocity": 120, "channel": 0}, {"type": "note_on", "time": 24, "note": 74, "velocity": 122, "channel": 0}, {"type": "note_off", "time": 75, "note": 74, "velocity": 122, "channel": 0}, {"type": "note_on", "time": 24, "note": 72, "velocity": 120, "channel": 0}, {"type": "note_off", "time": 58, "note": 72, "velocity": 120, "channel": 0}, {"type": "note_on", "time": 31, "note": 70, "velocity": 116, "channel": 0}, {"type": "note_off", "time": 59, "note": 70, "velocity": 116, "channel": 0}, {"type": "note_on", "time": 25, "note": 69, "velocity": 116, "channel": 0}, {"type": "note_off", "time": 43, "note": 69, "velocity": 116, "channel": 0}, {"type": "note_on", "time": 7, "note": 70, "velocity": 121, "channel": 0}, {"type": "note_off", "time": 33, "note": 70, "velocity": 121, "channel": 0}, {"type": "note_on", "time": 12, "note": 69, "velocity": 120, "channel": 0}, {"type": "note_off", "time": 51, "note": 69, "velocity": 120, "channel": 0}, {"type": "note_on", "time": 15, "note": 67, "velocity": 116, "channel": 0}, {"type": "note_off", "time": 94, "note": 67, "velocity": 116, "channel": 0}, {"type": "note_on", "time": 35, "note": 65, "velocity": 117, "channel": 0}, {"type": "note_off", "time": 68, "note": 65, "velocity": 117, "channel": 0}, {"type": "note_on", "time": 302, "note": 63, "velocity": 118, "channel": 0}, {"type": "note_off", "time": 69, "note": 63, "velocity": 118, "channel": 0}, {"type": "note_on", "time": 11, "note": 62, "velocity": 110, "channel": 0}, {"type": "note_off", "time": 76, "note": 62, "velocity": 110, "channel": 0}, {"type": "note_on", "time": 30, "note": 65, "velocity": 118, "channel": 0}, {"type": "note_off", "time": 54, "note": 65, "velocity": 118, "channel": 0}, {"type": "note_on", "time": 19, "note": 69, "velocity": 119, "channel": 0}, {"type": "note_off", "time": 94, "note": 69, "velocity": 119, "channel": 0}, {"type": "note_on", "time": 84, "note": 72, "velocity": 117, "channel": 0}, {"type": "note_off", "time": 259, "note": 72, "velocity": 117, "channel": 0}, {"type": "note_on", "time": 16, "note": 70, "velocity": 113, "channel": 0}, {"type": "note_off", "time": 65, "note": 70, "velocity": 113, "channel": 0}, {"type": "note_on", "time": 9, "note": 72, "velocity": 120, "channel": 0}, {"type": "note_off", "time": 126, "note": 72, "velocity": 120, "channel": 0}, {"type": "note_on", "time": 18, "note": 74, "velocity": 116, "channel": 0}, {"type": "note_off", "time": 64, "note": 74, "velocity": 116, "channel": 0}, {"type": "note_on", "time": 113, "note": 70, "velocity": 121, "channel": 0}, {"type": "note_off", "time": 145, "note": 70, "velocity": 121, "channel": 0}, {"type": "note_on", "time": 101, "note": 67, "velocity": 105, "channel": 0}, {"type": "note_off", "time": 379, "note": 67, "velocity": 105, "channel": 0}, {"type": "note_on", "time": 7, "note": 65, "velocity": 107, "channel": 0}, {"type": "note_off", "time": 86, "note": 65, "velocity": 107, "channel": 0}, {"type": "note_on", "time": 72, "note": 67, "velocity": 106, "channel": 0}, {"type": "note_off", "time": 258, "note": 67, "velocity": 106, "channel": 0}, {"type": "end_of_track", "time": 0}]]}