{"ticks_per_beat": 3960, "tracks": [[{"type": "track_name", "name": "Melody", "time": 0}, {"type": "set_tempo", "tempo": 923076, "time": 0}, {"type": "key_signature", "key": "Eb", "time": 0}, {"type": "time_signature", "numerator": 4, "denominator": 4, "clocks_per_click": 24, "notated_32nd_notes_per_beat": 8, "time": 0}, {"type": "note_on", "time": 15303, "note": 67, "velocity": 105, "channel": 0}, {"type": "note_off", "time": 998, "note": 67, "velocity": 105, "channel": 0}, {"type": "note_on", "time": 262, "note": 68, "velocity": 109, "channel": 0}, {"type": "note_off", "time": 752, "note": 68, "velocity": 109, "channel": 0}, {"type": "note_on", "time": 192, "note": 67, "velocity": 101, "channel": 0}, {"type": "note_off", "time": 945, "note": 67, "velocity": 101, "channel": 0}, {"type": "note_on", "time": 570, "note": 67, "velocity": 82, "channel": 0}, {"type": "note_off", "time": 2565, "note": 67, "velocity": 82, "channel": 0}, {"type": "note_on", "time": 722, "note": 65, "velocity": 102, "channel": 0}, {"type": "note_off", "time": 665, "note": 65, "velocity": 102, "channel": 0}, {"type": "note_on", "time": 498, "note": 67, "velocity": 112, "channel": 0}, {"type": "note_off", "time": 1103, "note": 67, "velocity": 112, "channel": 0}, {"type": "note_on", "time": 546, "note": 68, "velocity": 107, "channel": 0}, {"type": "note_off", "time": 1085, "note": 68, "velocity": 107, "channel": 0}, {"type": "note_on", "time": 464, "note": 70, "velocity": 112, "channel": 0}, {"type": "note_off", "time": 893, "note": 70, "velocity": 112, "channel": 0}, {"type": "note_on", "time": 912, "note": 70, "velocity": 90, "channel": 0}, {"type": "note_off", "time": 3642, "note": 70, "velocity": 90, "channel": 0}, {"type": "note_on", "time": 7800, "note": 57, "velocity": 89, "channel": 0}, {"type": "note_off", "time": 317, "note": 57, "velocity": 89, "channel": 0}, {"type": "note_on", "time": 43, "note": 58, "velocity": 86, "channel": 0}, {"type": "note_off", "time": 392, "note": 58, "velocity": 86, "channel": 0}, {"type": "note_on", "time": 276, "note": 60, "velocity": 92, "channel": 0}, {"type": "note_off", "time": 840, "note": 60, "velocity": 92, "channel": 0}, {"type": "note_on", "time": 481, "note": 62, "velocity": 98, "channel": 0}, {"type": "note_off", "time": 945, "note": 62, "velocity": 98, "channel": 0}, {"type": "note_on", "time": 565, "note": 63, "velocity": 100, "channel": 0}, {"type": "note_off", "time": 1298, "note": 63, "velocity": 100, "channel": 0}, {"type": "note_on", "time": 97, "note": 62, "velocity": 91, "channel": 0}, {"type": "note_off", "time": 805, "note": 62, "velocity": 91, "channel": 0}, {"type": "note_on", "time": 831, "note": 61, "velocity": 83, "channel": 0}, {"type": "note_off", "time": 7897, "note": 61, "velocity": 83, "channel": 0}, {"type": "note_on", "time": 893, "note": 62, "velocity": 94, "channel": 0}, {"type": "note_off", "time": 805, "note": 62, "velocity": 94, "channel": 0}, {"type": "note_on", "time": 131, "note": 63, "velocity": 101, "channel": 0}, {"type": "note_off", "time": 665, "note": 63, "velocity": 101, "channel": 0}, {"type": "note_on", "time": 772, "note": 65, "velocity": 100, "channel": 0}, {"type": "note_off", "time": 884, "note": 65, "velocity": 100, "channel": 0}, {"type": "note_on", "time": 386, "note": 67, "velocity": 99, "channel": 0}, {"type": "note_off", "time": 1444, "note": 67, "velocity": 99, "channel": 0}, {"type": "note_on", "time": 215, "note": 67, "velocity": 82, "channel": 0}, {"type": "note_off", "time": 2862, "note": 67, "velocity": 82, "channel": 0}, {"type": "note_on", "time": 11091, "note": 67, "velocity": 101, "channel": 0}, {"type": "note_off", "time": 498, "note": 67, "velocity": 101, "channel": 0}, {"type": "note_on", "time": 136, "note": 68, "velocity": 98, "channel": 0}, {"type": "note_off", "time": 423, "note": 68, "velocity": 98, "channel": 0}, {"type": "note_on", "time": 243, "note": 72, "velocity": 109, "channel": 0}, {"type": "note_off", "time": 286, "note": 72, "velocity": 109, "channel": 0}, {"type": "note_on", "time": 300, "note": 75, "velocity": 122, "channel": 0}, {"type": "note_off", "time": 747, "note": 75, "velocity": 122, "channel": 0}, {"type": "note_on", "time": 402, "note": 79, "velocity": 121, "channel": 0}, {"type": "note_off", "time": 1095, "note": 79, "velocity": 121, "channel": 0}, {"type": "note_on", "time": 477, "note": 80, "velocity": 121, "channel": 0}, {"type": "note_off", "time": 1469, "note": 80, "velocity": 121, "channel": 0}, {"type": "note_on", "time": 83, "note": 77, "velocity": 125, "channel": 0}, {"type": "note_off", "time": 3125, "note": 77, "velocity": 125, "channel": 0}, {"type": "note_on", "time": 323, "note": 75, "velocity": 126, "channel": 0}, {"type": "note_off", "time": 946, "note": 75, "velocity": 126, "channel": 0}, {"type": "note_on", "time": 286, "note": 79, "velocity": 120, "channel": 0}, {"type": "note_off", "time": 1294, "note": 79, "velocity": 120, "channel": 0}, {"type": "note_on", "time": 118, "note": 74, "velocity": 121, "channel": 0}, {"type": "note_off", "time": 2088, "note": 74, "velocity": 121, "channel": 0}, {"type": "note_on", "time": 346, "note": 77, "velocity": 120, "channel": 0}, {"type": "note_off", "time": 1830, "note": 77, "velocity": 120, "channel": 0}, {"type": "note_on", "time": 149, "note": 74, "velocity": 111, "channel": 0}, {"type": "note_off", "time": 398, "note": 74, "velocity": 111, "channel": 0}, {"type": "note_on", "time": 326, "note": 75, "velocity": 127, "channel": 0}, {"type": "note_off", "time": 734, "note": 75, "velocity": 127, "channel": 0}, {"type": "note_on", "time": 149, "note": 71, "velocity": 100, "channel": 0}, {"type": "note_off", "time": 460, "note": 71, "velocity": 100, "channel": 0}, {"type": "note_on", "time": 230, "note": 74, "velocity": 125, "channel": 0}, {"type": "note_off", "time": 884, "note": 74, "velocity": 125, "channel": 0}, {"type": "note_on", "time": 59, "note": 72, "velocity": 123, "channel": 0}, {"type": "note_off", "time": 784, "note": 72, "velocity": 123, "channel": 0}, {"type": "note_on", "time": 155, "note": 67, "velocity": 116, "channel": 0}, {"type": "note_off", "time": 846, "note": 67, "velocity": 116, "channel": 0}, {"type": "note_on", "time": 124, "note": 65, "velocity": 94, "channel": 0}, {"type": "note_off", "time": 242, "note": 65, "velocity": 94, "channel": 0}, {"type": "note_on", "time": 21, "note": 63, "velocity": 108, "channel": 0}, {"type": "note_off", "time": 678, "note": 63, "velocity": 108, "channel": 0}, {"type": "note_on", "time": 81, "note": 62, "velocity": 105, "channel": 0}, {"type": "note_off", "time": 896, "note": 62, "velocity": 105, "channel": 0}, {"type": "note_on", "time": 70, "note": 63, "velocity": 101, "channel": 0}, {"type": "note_off", "time": 193, "note": 63, "velocity": 101, "channel": 0}, {"type": "note_on", "time": 47, "note": 62, "velocity": 94, "channel": 0}, {"type": "note_off", "time": 494, "note": 62, "velocity": 94, "channel": 0}, {"type": "note_on", "time": 170, "note": 60, "velocity": 90, "channel": 0}, {"type": "note_off", "time": 818, "note": 60, "velocity": 90, "channel": 0}, {"type": "note_on", "time": 385, "note": 62, "velocity": 104, "channel": 0}, {"type": "note_off", "time": 538, "note": 62, "velocity": 104, "channel": 0}, {"type": "note_on", "time": 21, "note": 63, "velocity": 102, "channel": 0}, {"type": "note_off", "time": 1764, "note": 63, "velocity": 102, "channel": 0}, {"type": "note_on", "time": 79, "note": 59, "velocity": 82, "channel": 0}, {"type": "note_off", "time": 1014, "note": 59, "velocity": 82, "channel": 0}, {"type": "note_on", "time": 663, "note": 62, "velocity": 94, "channel": 0}, {"type": "note_off", "time": 2972, "note": 62, "velocity": 94, "channel": 0}, {"type": "note_on", "time": 570, "note": 60, "velocity": 91, "channel": 0}, {"type": "note_off", "time": 672, "note": 60, "velocity": 91, "channel": 0}, {"type": "note_on", "time": 512, "note": 63, "velocity": 107, "channel": 0}, {"type": "note_off", "time": 703, "note": 63, "velocity": 107, "channel": 0}, {"type": "note_on", "time": 1021, "note": 59, "velocity": 76, "channel": 0}, {"type": "note_off", "time": 927, "note": 59, "velocity": 76, "channel": 0}, {"type": "note_on", "time": 229, "note": 62, "velocity": 92, "channel": 0}, {"type": "note_off", "time": 3265, "note": 62, "velocity": 92, "channel": 0}, {"type": "note_on", "time": 376, "note": 60, "velocity": 93, "channel": 0}, {"type": "note_off", "time": 608, "note": 60, "velocity": 93, "channel": 0}, {"type": "note_on", "time": 538, "note": 63, "velocity": 103, "channel": 0}, {"type": "note_off", "time": 734, "note": 63, "velocity": 103, "channel": 0}, {"type": "note_on", "time": 451, "note": 65, "velocity": 103, "channel": 0}, {"type": "note_off", "time": 814, "note": 65, "velocity": 103, "channel": 0}, {"type": "note_on", "time": 210, "note": 62, "velocity": 90, "channel": 0}, {"type": "note_off", "time": 840, "note": 62, "velocity": 90, "channel": 0}, {"type": "note_on", "time": 627, "note": 64, "velocity": 96, "channel": 0}, {"type": "note_off", "time": 398, "note": 64, "velocity": 96, "channel": 0}, {"type": "note_on", "time": 56, "note": 65, "velocity": 100, "channel": 0}, {"type": "note_off", "time": 2452, "note": 65, "velocity": 100, "channel": 0}, {"type": "note_on", "time": 168, "note": 64, "velocity": 85, "channel": 0}, {"type": "note_off", "time": 485, "note": 64, "velocity": 85, "channel": 0}, {"type": "note_on", "time": 448, "note": 63, "velocity": 87, "channel": 0}, {"type": "note_off", "time": 423, "note": 63, "velocity": 87, "channel": 0}, {"type": "note_on", "time": 43, "note": 62, "velocity": 82, "channel": 0}, {"type": "note_off", "time": 3031, "note": 62, "velocity": 82, "channel": 0}, {"type": "note_on", "time": 13678, "note": 64, "velocity": 106, "channel": 0}, {"type": "note_off", "time": 859, "note": 64, "velocity": 106, "channel": 0}, {"type": "note_on", "time": 809, "note": 67, "velocity": 109, "channel": 0}, {"type": "note_off", "time": 933, "note": 67, "velocity": 109, "channel": 0}, {"type": "note_on", "time": 286, "note": 66, "velocity": 100, "channel": 0}, {"type": "note_off", "time": 796, "note": 66, "velocity": 100, "channel": 0}, {"type": "note_on", "time": 136, "note": 69, "velocity": 111, "channel": 0}, {"type": "note_off", "time": 809, "note": 69, "velocity": 111, "channel": 0}, {"type": "note_on", "time": 136, "note": 72, "velocity": 121, "channel": 0}, {"type": "note_off", "time": 1120, "note": 72, "velocity": 121, "channel": 0}, {"type": "note_on", "time": 4588, "note": 71, "velocity": 110, "channel": 0}, {"type": "note_off", "time": 759, "note": 71, "velocity": 110, "channel": 0}, {"type": "note_on", "time": 77, "note": 72, "velocity": 93, "channel": 0}, {"type": "note_off", "time": 597, "note": 72, "velocity": 93, "channel": 0}, {"type": "note_on", "time": 77, "note": 74, "velocity": 118, "channel": 0}, {"type": "note_off", "time": 672, "note": 74, "velocity": 118, "channel": 0}, {"type": "note_on", "time": 224, "note": 67, "velocity": 96, "channel": 0}, {"type": "note_off", "time": 1045, "note": 67, "velocity": 96, "channel": 0}, {"type": "note_on", "time": 448, "note": 67, "velocity": 104, "channel": 0}, {"type": "note_off", "time": 865, "note": 67, "velocity": 104, "channel": 0}, {"type": "note_on", "time": 765, "note": 67, "velocity": 102, "channel": 0}, {"type": "note_off", "time": 958, "note": 67, "velocity": 102, "channel": 0}, {"type": "note_on", "time": 628, "note": 67, "velocity": 101, "channel": 0}, {"type": "note_off", "time": 1562, "note": 67, "velocity": 101, "channel": 0}, {"type": "note_on", "time": 408, "note": 68, "velocity": 93, "channel": 0}, {"type": "note_off", "time": 454, "note": 68, "velocity": 93, "channel": 0}, {"type": "note_on", "time": 55, "note": 67, "velocity": 96, "channel": 0}, {"type": "note_off", "time": 348, "note": 67, "velocity": 96, "channel": 0}, {"type": "note_on", "time": 149, "note": 66, "velocity": 96, "channel": 0}, {"type": "note_off", "time": 902, "note": 66, "velocity": 96, "channel": 0}, {"type": "note_on", "time": 40, "note": 67, "velocity": 109, "channel": 0}, {"type": "note_off", "time": 828, "note": 67, "velocity": 109, "channel": 0}, {"type": "note_on", "time": 647, "note": 69, "velocity": 101, "channel": 0}, {"type": "note_off", "time": 1108, "note": 69, "velocity": 101, "channel": 0}, {"type": "note_on", "time": 87, "note": 70, "velocity": 100, "channel": 0}, {"type": "note_off", "time": 10534, "note": 70, "velocity": 100, "channel": 0}, {"type": "note_on", "time": 298, "note": 72, "velocity": 111, "channel": 0}, {"type": "note_off", "time": 684, "note": 72, "velocity": 111, "channel": 0}, {"type": "note_on", "time": 62, "note": 73, "velocity": 106, "channel": 0}, {"type": "note_off", "time": 846, "note": 73, "velocity": 106, "channel": 0}, {"type": "note_on", "time": 377, "note": 64, "velocity": 101, "channel": 0}, {"type": "note_off", "time": 734, "note": 64, "velocity": 101, "channel": 0}, {"type": "note_on", "time": 1103, "note": 64, "velocity": 95, "channel": 0}, {"type": "note_off", "time": 846, "note": 64, "velocity": 95, "channel": 0}, {"type": "note_on", "time": 716, "note": 65, "velocity": 98, "channel": 0}, {"type": "note_off", "time": 846, "note": 65, "velocity": 98, "channel": 0}, {"type": "note_on", "time": 753, "note": 67, "velocity": 100, "channel": 0}, {"type": "note_off", "time": 908, "note": 67, "velocity": 100, "channel": 0}, {"type": "note_on", "time": 298, "note": 68, "velocity": 77, "channel": 0}, {"type": "note_off", "time": 3436, "note": 68, "velocity": 77, "channel": 0}, {"type": "note_on", "time": 8074, "note": 65, "velocity": 109, "channel": 0}, {"type": "note_off", "time": 787, "note": 65, "velocity": 109, "channel": 0}, {"type": "note_on", "time": 140, "note": 67, "velocity": 109, "channel": 0}, {"type": "note_off", "time": 945, "note": 67, "velocity": 109, "channel": 0}, {"type": "note_on", "time": 268, "note": 68, "velocity": 107, "channel": 0}, {"type": "note_off", "time": 700, "note": 68, "velocity": 107, "channel": 0}, {"type": "note_on", "time": 333, "note": 70, "velocity": 98, "channel": 0}, {"type": "note_off", "time": 2602, "note": 70, "velocity": 98, "channel": 0}, {"type": "note_on", "time": 379, "note": 67, "velocity": 105, "channel": 0}, {"type": "note_off", "time": 700, "note": 67, "velocity": 105, "channel": 0}, {"type": "note_on", "time": 656, "note": 63, "velocity": 88, "channel": 0}, {"type": "note_off", "time": 980, "note": 63, "velocity": 88, "channel": 0}, {"type": "note_on", "time": 295, "note": 60, "velocity": 84, "channel": 0}, {"type": "note_off", "time": 700, "note": 60, "velocity": 84, "channel": 0}, {"type": "note_on", "time": 849, "note": 69, "velocity": 106, "channel": 0}, {"type": "note_off", "time": 522, "note": 69, "velocity": 106, "channel": 0}, {"type": "note_on", "time": 62, "note": 70, "velocity": 102, "channel": 0}, {"type": "note_off", "time": 1618, "note": 70, "velocity": 102, "channel": 0}, {"type": "note_on", "time": 460, "note": 66, "velocity": 99, "channel": 0}, {"type": "note_off", "time": 871, "note": 66, "velocity": 99, "channel": 0}, {"type": "note_on", "time": 240, "note": 66, "velocity": 104, "channel": 0}, {"type": "note_off", "time": 717, "note": 66, "velocity": 104, "channel": 0}, {"type": "note_on", "time": 319, "note": 63, "velocity": 95, "channel": 0}, {"type": "note_off", "time": 1033, "note": 63, "velocity": 95, "channel": 0}, {"type": "note_on", "time": 323, "note": 58, "velocity": 71, "channel": 0}, {"type": "note_off", "time": 2004, "note": 58, "velocity": 71, "channel": 0}, {"type": "note_on", "time": 3342, "note": 57, "velocity": 81, "channel": 0}, {"type": "note_off", "time": 336, "note": 57, "velocity": 81, "channel": 0}, {"type": "note_on", "time": 52, "note": 58, "velocity": 83, "channel": 0}, {"type": "note_off", "time": 292, "note": 58, "velocity": 83, "channel": 0}, {"type": "note_on", "time": 550, "note": 62, "velocity": 101, "channel": 0}, {"type": "note_off", "time": 905, "note": 62, "velocity": 101, "channel": 0}, {"type": "note_on", "time": 221, "note": 65, "velocity": 110, "channel": 0}, {"type": "note_off", "time": 940, "note": 65, "velocity": 110, "channel": 0}, {"type": "note_on", "time": 43, "note": 64, "velocity": 102, "channel": 0}, {"type": "note_off", "time": 871, "note": 64, "velocity": 102, "channel": 0}, {"type": "note_on", "time": 87, "note": 62, "velocity": 94, "channel": 0}, {"type": "note_off", "time": 796, "note": 62, "velocity": 94, "channel": 0}, {"type": "note_on", "time": 95, "note": 63, "velocity": 94, "channel": 0}, {"type": "note_off", "time": 779, "note": 63, "velocity": 94, "channel": 0}, {"type": "note_on", "time": 332, "note": 67, "velocity": 89, "channel": 0}, {"type": "note_off", "time": 407, "note": 67, "velocity": 89, "channel": 0}, {"type": "note_on", "time": 293, "note": 70, "velocity": 110, "channel": 0}, {"type": "note_off", "time": 1041, "note": 70, "velocity": 110, "channel": 0}, {"type": "note_on", "time": 113, "note": 74, "velocity": 119, "channel": 0}, {"type": "note_off", "time": 945, "note": 74, "velocity": 119, "channel": 0}, {"type": "note_on", "time": 100, "note": 72, "velocity": 110, "channel": 0}, {"type": "note_off", "time": 818, "note": 72, "velocity": 110, "channel": 0}, {"type": "note_on", "time": 13, "note": 74, "velocity": 104, "channel": 0}, {"type": "note_off", "time": 450, "note": 74, "velocity": 104, "channel": 0}, {"type": "note_on", "time": 8, "note": 72, "velocity": 108, "channel": 0}, {"type": "note_off", "time": 372, "note": 72, "velocity": 108, "channel": 0}, {"type": "note_on", "time": 109, "note": 67, "velocity": 103, "channel": 0}, {"type": "note_off", "time": 1072, "note": 67, "velocity": 103, "channel": 0}, {"type": "note_on", "time": 896, "note": 69, "velocity": 103, "channel": 0}, {"type": "note_off", "time": 510, "note": 69, "velocity": 103, "channel": 0}, {"type": "note_on", "time": 43, "note": 70, "velocity": 104, "channel": 0}, {"type": "note_off", "time": 5098, "note": 70, "velocity": 104, "channel": 0}, {"type": "note_on", "time": 286, "note": 68, "velocity": 101, "channel": 0}, {"type": "note_off", "time": 859, "note": 68, "velocity": 101, "channel": 0}, {"type": "note_on", "time": 354, "note": 67, "velocity": 99, "channel": 0}, {"type": "note_off", "time": 915, "note": 67, "velocity": 99, "channel": 0}, {"type": "note_on", "time": 118, "note": 68, "velocity": 99, "channel": 0}, {"type": "note_off", "time": 888, "note": 68, "velocity": 99, "channel": 0}, {"type": "note_on", "time": 87, "note": 67, "velocity": 98, "channel": 0}, {"type": "note_off", "time": 734, "note": 67, "velocity": 98, "channel": 0}, {"type": "note_on", "time": 237, "note": 63, "velocity": 91, "channel": 0}, {"type": "note_off", "time": 852, "note": 63, "velocity": 91, "channel": 0}, {"type": "note_on", "time": 1625, "note": 64, "velocity": 96, "channel": 0}, {"type": "note_off", "time": 273, "note": 64, "velocity": 96, "channel": 0}, {"type": "note_on", "time": 49, "note": 65, "velocity": 98, "channel": 0}, {"type": "note_off", "time": 1998, "note": 65, "velocity": 98, "channel": 0}, {"type": "note_on", "time": 404, "note": 60, "velocity": 77, "channel": 0}, {"type": "note_off", "time": 610, "note": 60, "velocity": 77, "channel": 0}, {"type": "note_on", "time": 186, "note": 63, "velocity": 89, "channel": 0}, {"type": "note_off", "time": 7147, "note": 63, "velocity": 89, "channel": 0}, {"type": "note_on", "time": 410, "note": 62, "velocity": 91, "channel": 0}, {"type": "note_off", "time": 1774, "note": 62, "velocity": 91, "channel": 0}, {"type": "note_on", "time": 205, "note": 58, "velocity": 10, "channel": 0}, {"type": "note_off", "time": 604, "note": 58, "velocity": 10, "channel": 0}, {"type": "note_on", "time": 404, "note": 62, "velocity": 124, "channel": 0}, {"type": "note_off", "time": 684, "note": 62, "velocity": 124, "channel": 0}, {"type": "note_on", "time": 460, "note": 61, "velocity": 116, "channel": 0}, {"type": "note_off", "time": 1942, "note": 61, "velocity": 116, "channel": 0}, {"type": "note_on", "time": 2228, "note": 60, "velocity": 113, "channel": 0}, {"type": "note_off", "time": 2004, "note": 60, "velocity": 113, "channel": 0}, {"type": "end_of_track", "time": 0}]]}