{"ticks_per_beat": 192, "tracks": [[{"type": "track_name", "name": "Melody", "time": 0}, {"type": "set_tempo", "tempo": 352941, "time": 0}, {"type": "key_signature", "key": "F", "time": 0}, {"type": "time_signature", "numerator": 4, "denominator": 4, "clocks_per_click": 24, "notated_32nd_notes_per_beat": 8, "time": 0}, {"type": "note_on", "time": 3257, "note": 69, "velocity": 111, "channel": 0}, {"type": "note_off", "time": 68, "note": 69, "velocity": 111, "channel": 0}, {"type": "note_on", "time": 23, "note": 67, "velocity": 105, "channel": 0}, {"type": "note_off", "time": 68, "note": 67, "velocity": 105, "channel": 0}, {"type": "note_on", "time": 111, "note": 68, "velocity": 110, "channel": 0}, {"type": "note_off", "time": 95, "note": 68, "velocity": 110, "channel": 0}, {"type": "note_on", "time": 209, "note": 67, "velocity": 111, "channel": 0}, {"type": "note_off", "time": 71, "note": 67, "velocity": 111, "channel": 0}, {"type": "note_on", "time": 1, "note": 66, "velocity": 96, "channel": 0}, {"type": "note_off", "time": 87, "note": 66, "velocity": 96, "channel": 0}, {"type": "note_on", "time": 8, "note": 60, "velocity": 76, "channel": 0}, {"type": "note_off", "time": 70, "note": 60, "velocity": 76, "channel": 0}, {"type": "note_on", "time": 17, "note": 62, "velocity": 96, "channel": 0}, {"type": "note_off", "time": 87, "note": 62, "velocity": 96, "channel": 0}, {"type": "note_on", "time": 37, "note": 65, "velocity": 109, "channel": 0}, {"type": "note_off", "time": 115, "note": 65, "velocity": 109, "channel": 0}, {"type": "note_on", "time": 848, "note": 67, "velocity": 109, "channel": 0}, {"type": "note_off", "time": 48, "note": 67, "velocity": 109, "channel": 0}, {"type": "note_on", "time": 8, "note": 63, "velocity": 105, "channel": 0}, {"type": "note_off", "time": 120, "note": 63, "velocity": 105, "channel": 0}, {"type": "note_on", "time": 19, "note": 65, "velocity": 108, "channel": 0}, {"type": "note_off", "time": 63, "note": 65, "velocity": 108, "channel": 0}, {"type": "note_on", "time": 11, "note": 67, "velocity": 106, "channel": 0}, {"type": "note_off", "time": 86, "note": 67, "velocity": 106, "channel": 0}, {"type": "note_on", "time": 14, "note": 68, "velocity": 87, "channel": 0}, {"type": "note_off", "time": 35, "note": 68, "velocity": 87, "channel": 0}, {"type": "note_on", "time": 11, "note": 67, "velocity": 89, "channel": 0}, {"type": "note_off", "time": 33, "note": 67, "velocity": 89, "channel": 0}, {"type": "note_on", "time": 13, "note": 65, "velocity": 104, "channel": 0}, {"type": "note_off", "time": 80, "note": 65, "velocity": 104, "channel": 0}, {"type": "note_on", "time": 23, "note": 67, "velocity": 112, "channel": 0}, {"type": "note_off", "time": 72, "note": 67, "velocity": 112, "channel": 0}, {"type": "note_on", "time": 19, "note": 68, "velocity": 110, "channel": 0}, {"type": "note_off", "time": 78, "note": 68, "velocity": 110, "channel": 0}, {"type": "note_on", "time": 11, "note": 67, "velocity": 111, "channel": 0}, {"type": "note_off", "time": 81, "note": 67, "velocity": 111, "channel": 0}, {"type": "note_on", "time": 99, "note": 65, "velocity": 116, "channel": 0}, {"type": "note_off", "time": 82, "note": 65, "velocity": 116, "channel": 0}, {"type": "note_on", "time": 11, "note": 63, "velocity": 106, "channel": 0}, {"type": "note_off", "time": 88, "note": 63, "velocity": 106, "channel": 0}, {"type": "note_on", "time": 22, "note": 62, "velocity": 106, "channel": 0}, {"type": "note_off", "time": 58, "note": 62, "velocity": 106, "channel": 0}, {"type": "note_on", "time": 32, "note": 60, "velocity": 87, "channel": 0}, {"type": "note_off", "time": 68, "note": 60, "velocity": 87, "channel": 0}, {"type": "note_on", "time": 14, "note": 61, "velocity": 98, "channel": 0}, {"type": "note_off", "time": 71, "note": 61, "velocity": 98, "channel": 0}, {"type": "note_on", "time": 128, "note": 68, "velocity": 107, "channel": 0}, {"type": "note_off", "time": 64, "note": 68, "velocity": 107, "channel": 0}, {"type": "note_on", "time": 26, "note": 72, "velocity": 103, "channel": 0}, {"type": "note_off", "time": 90, "note": 72, "velocity": 103, "channel": 0}, {"type": "note_on", "time": 31, "note": 75, "velocity": 119, "channel": 0}, {"type": "note_off", "time": 242, "note": 75, "velocity": 119, "channel": 0}, {"type": "note_on", "time": 34, "note": 72, "velocity": 99, "channel": 0}, {"type": "note_off", "time": 96, "note": 72, "velocity": 99, "channel": 0}, {"type": "note_on", "time": 26, "note": 71, "velocity": 109, "channel": 0}, {"type": "note_off", "time": 86, "note": 71, "velocity": 109, "channel": 0}, {"type": "note_on", "time": 86, "note": 67, "velocity": 95, "channel": 0}, {"type": "note_off", "time": 323, "note": 67, "velocity": 95, "channel": 0}, {"type": "note_on", "time": 241, "note": 63, "velocity": 102, "channel": 0}, {"type": "note_off", "time": 72, "note": 63, "velocity": 102, "channel": 0}, {"type": "note_on", "time": 21, "note": 65, "velocity": 109, "channel": 0}, {"type": "note_off", "time": 85, "note": 65, "velocity": 109, "channel": 0}, {"type": "note_on", "time": 18, "note": 68, "velocity": 101, "channel": 0}, {"type": "note_off", "time": 25, "note": 68, "velocity": 101, "channel": 0}, {"type": "note_on", "time": 7, "note": 67, "velocity": 103, "channel": 0}, {"type": "note_off", "time": 45, "note": 67, "velocity": 103, "channel": 0}, {"type": "note_on", "time": 37, "note": 63, "velocity": 99, "channel": 0}, {"type": "note_off", "time": 140, "note": 63, "velocity": 99, "channel": 0}, {"type": "note_on", "time": 27, "note": 65, "velocity": 109, "channel": 0}, {"type": "note_off", "time": 90, "note": 65, "velocity": 109, "channel": 0}, {"type": "note_on", "time": 13, "note": 67, "velocity": 112, "channel": 0}, {"type": "note_off", "time": 61, "note": 67, "velocity": 112, "channel": 0}, {"type": "note_on", "time": 4, "note": 63, "velocity": 109, "channel": 0}, {"type": "note_off", "time": 112, "note": 63, "velocity": 109, "channel": 0}, {"type": "note_on", "time": 76, "note": 65, "velocity": 106, "channel": 0}, {"type": "note_off", "time": 111, "note": 65, "velocity": 106, "channel": 0}, {"type": "note_on", "time": 23, "note": 66, "velocity": 104, "channel": 0}, {"type": "note_off", "time": 56, "note": 66, "velocity": 104, "channel": 0}, {"type": "note_on", "time": 34, "note": 63, "velocity": 92, "channel": 0}, {"type": "note_off", "time": 72, "note": 63, "velocity": 92, "channel": 0}, {"type": "note_on", "time": 21, "note": 65, "velocity": 100, "channel": 0}, {"type": "note_off", "time": 314, "note": 65, "velocity": 100, "channel": 0}, {"type": "note_on", "time": 51, "note": 65, "velocity": 108, "channel": 0}, {"type": "note_off", "time": 93, "note": 65, "velocity": 108, "channel": 0}, {"type": "note_on", "time": 81, "note": 67, "velocity": 113, "channel": 0}, {"type": "note_off", "time": 76, "note": 67, "velocity": 113, "channel": 0}, {"type": "note_on", "time": 3, "note": 63, "velocity": 104, "channel": 0}, {"type": "note_off", "time": 118, "note": 63, "velocity": 104, "channel": 0}, {"type": "note_on", "time": 24, "note": 65, "velocity": 111, "channel": 0}, {"type": "note_off", "time": 61, "note": 65, "velocity": 111, "channel": 0}, {"type": "note_on", "time": 9, "note": 67, "velocity": 100, "channel": 0}, {"type": "note_off", "time": 90, "note": 67, "velocity": 100, "channel": 0}, {"type": "note_on", "time": 27, "note": 68, "velocity": 86, "channel": 0}, {"type": "note_off", "time": 64, "note": 68, "velocity": 86, "channel": 0}, {"type": "note_on", "time": 15, "note": 65, "velocity": 100, "channel": 0}, {"type": "note_off", "time": 77, "note": 65, "velocity": 100, "channel": 0}, {"type": "note_on", "time": 15, "note": 67, "velocity": 107, "channel": 0}, {"type": "note_off", "time": 78, "note": 67, "velocity": 107, "channel": 0}, {"type": "note_on", "time": 18, "note": 68, "velocity": 99, "channel": 0}, {"type": "note_off", "time": 89, "note": 68, "velocity": 99, "channel": 0}, {"type": "note_on", "time": 20, "note": 70, "velocity": 114, "channel": 0}, {"type": "note_off", "time": 52, "note": 70, "velocity": 114, "channel": 0}, {"type": "note_on", "time": 13, "note": 67, "velocity": 100, "channel": 0}, {"type": "note_off", "time": 101, "note": 67, "velocity": 100, "channel": 0}, {"type": "note_on", "time": 95, "note": 65, "velocity": 107, "channel": 0}, {"type": "note_off", "time": 86, "note": 65, "velocity": 107, "channel": 0}, {"type": "note_on", "time": 25, "note": 63, "velocity": 106, "channel": 0}, {"type": "note_off", "time": 67, "note": 63, "velocity": 106, "channel": 0}, {"type": "note_on", "time": 2, "note": 60, "velocity": 86, "channel": 0}, {"type": "note_off", "time": 104, "note": 60, "velocity": 86, "channel": 0}, {"type": "note_on", "time": 106, "note": 62, "velocity": 101, "channel": 0}, {"type": "note_off", "time": 99, "note": 62, "velocity": 101, "channel": 0}, {"type": "note_on", "time": 6, "note": 60, "velocity": 81, "channel": 0}, {"type": "note_off", "time": 55, "note": 60, "velocity": 81, "channel": 0}, {"type": "note_on", "time": 3, "note": 62, "velocity": 104, "channel": 0}, {"type": "note_off", "time": 116, "note": 62, "velocity": 104, "channel": 0}, {"type": "note_on", "time": 9, "note": 60, "velocity": 84, "channel": 0}, {"type": "note_off", "time": 248, "note": 60, "velocity": 84, "channel": 0}, {"type": "note_on", "time": 18, "note": 62, "velocity": 95, "channel": 0}, {"type": "note_off", "time": 119, "note": 62, "velocity": 95, "channel": 0}, {"type": "note_on", "time": 12, "note": 60, "velocity": 81, "channel": 0}, {"type": "note_off", "time": 28, "note": 60, "velocity": 81, "channel": 0}, {"type": "note_on", "time": 13, "note": 62, "velocity": 99, "channel": 0}, {"type": "note_off", "time": 134, "note": 62, "velocity": 99, "channel": 0}, {"type": "note_on", "time": 17, "note": 60, "velocity": 87, "channel": 0}, {"type": "note_off", "time": 228, "note": 60, "velocity": 87, "channel": 0}, {"type": "note_on", "time": 12, "note": 63, "velocity": 101, "channel": 0}, {"type": "note_off", "time": 115, "note": 63, "velocity": 101, "channel": 0}, {"type": "note_on", "time": 8, "note": 60, "velocity": 79, "channel": 0}, {"type": "note_off", "time": 63, "note": 60, "velocity": 79, "channel": 0}, {"type": "note_on", "time": 15, "note": 63, "velocity": 100, "channel": 0}, {"type": "note_off", "time": 112, "note": 63, "velocity": 100, "channel": 0}, {"type": "note_on", "time": 1, "note": 60, "velocity": 88, "channel": 0}, {"type": "note_off", "time": 182, "note": 60, "velocity": 88, "channel": 0}, {"type": "note_on", "time": 11, "note": 62, "velocity": 82, "channel": 0}, {"type": "note_off", "time": 76, "note": 62, "velocity": 82, "channel": 0}, {"type": "note_on", "time": 20, "note": 63, "velocity": 100, "channel": 0}, {"type": "note_off", "time": 85, "note": 63, "velocity": 100, "channel": 0}, {"type": "note_on", "time": 8, "note": 60, "velocity": 98, "channel": 0}, {"type": "note_off", "time": 76, "note": 60, "velocity": 98, "channel": 0}, {"type": "note_on", "time": 5, "note": 63, "velocity": 91, "channel": 0}, {"type": "note_off", "time": 111, "note": 63, "velocity": 91, "channel": 0}, {"type": "note_on", "time": 10, "note": 66, "velocity": 98, "channel": 0}, {"type": "note_off", "time": 40, "note": 66, "velocity": 98, "channel": 0}, {"type": "note_on", "time": 11, "note": 67, "velocity": 102, "channel": 0}, {"type": "note_off", "time": 393, "note": 67, "velocity": 102, "channel": 0}, {"type": "note_on", "time": 22, "note": 65, "velocity": 106, "channel": 0}, {"type": "note_off", "time": 99, "note": 65, "velocity": 106, "channel": 0}, {"type": "note_on", "time": 482, "note": 70, "velocity": 115, "channel": 0}, {"type": "note_off", "time": 83, "note": 70, "velocity": 115, "channel": 0}, {"type": "note_on", "time": 100, "note": 72, "velocity": 99, "channel": 0}, {"type": "note_off", "time": 74, "note": 72, "velocity": 99, "channel": 0}, {"type": "note_on", "time": 31, "note": 70, "velocity": 116, "channel": 0}, {"type": "note_off", "time": 77, "note": 70, "velocity": 116, "channel": 0}, {"type": "note_on", "time": 5, "note": 67, "velocity": 99, "channel": 0}, {"type": "note_off", "time": 92, "note": 67, "velocity": 99, "channel": 0}, {"type": "note_on", "time": 15, "note": 65, "velocity": 108, "channel": 0}, {"type": "note_off", "time": 74, "note": 65, "velocity": 108, "channel": 0}, {"type": "note_on", "time": 5, "note": 63, "velocity": 98, "channel": 0}, {"type": "note_off", "time": 110, "note": 63, "velocity": 98, "channel": 0}, {"type": "note_on", "time": 89, "note": 70, "velocity": 114, "channel": 0}, {"type": "note_off", "time": 101, "note": 70, "velocity": 114, "channel": 0}, {"type": "note_on", "time": 79, "note": 72, "velocity": 103, "channel": 0}, {"type": "note_off", "time": 88, "note": 72, "velocity": 103, "channel": 0}, {"type": "note_on", "time": 18, "note": 70, "velocity": 112, "channel": 0}, {"type": "note_off", "time": 71, "note": 70, "velocity": 112, "channel": 0}, {"type": "note_on", "time": 7, "note": 67, "velocity": 106, "channel": 0}, {"type": "note_off", "time": 102, "note": 67, "velocity": 106, "channel": 0}, {"type": "note_on", "time": 10, "note": 65, "velocity": 107, "channel": 0}, {"type": "note_off", "time": 74, "note": 65, "velocity": 107, "channel": 0}, {"type": "note_on", "time": 3, "note": 63, "velocity": 97, "channel": 0}, {"type": "note_off", "time": 113, "note": 63, "velocity": 97, "channel": 0}, {"type": "note_on", "time": 18, "note": 67, "velocity": 102, "channel": 0}, {"type": "note_off", "time": 151, "note": 67, "velocity": 102, "channel": 0}, {"type": "note_on", "time": 18, "note": 67, "velocity": 109, "channel": 0}, {"type": "note_off", "time": 84, "note": 67, "velocity": 109, "channel": 0}, {"type": "note_on", "time": 7, "note": 68, "velocity": 102, "channel": 0}, {"type": "note_off", "time": 99, "note": 68, "velocity": 102, "channel": 0}, {"type": "note_on", "time": 16, "note": 67, "velocity": 107, "channel": 0}, {"type": "note_off", "time": 76, "note": 67, "velocity": 107, "channel": 0}, {"type": "note_on", "time": 30, "note": 61, "velocity": 86, "channel": 0}, {"type": "note_off", "time": 83, "note": 61, "velocity": 86, "channel": 0}, {"type": "note_on", "time": 7, "note": 62, "velocity": 99, "channel": 0}, {"type": "note_off", "time": 48, "note": 62, "velocity": 99, "channel": 0}, {"type": "note_on", "time": 34, "note": 65, "velocity": 111, "channel": 0}, {"type": "note_off", "time": 108, "note": 65, "velocity": 111, "channel": 0}, {"type": "note_on", "time": 23, "note": 62, "velocity": 87, "channel": 0}, {"type": "note_off", "time": 33, "note": 62, "velocity": 87, "channel": 0}, {"type": "note_on", "time": 23, "note": 63, "velocity": 95, "channel": 0}, {"type": "note_off", "time": 72, "note": 63, "velocity": 95, "channel": 0}, {"type": "note_on", "time": 13, "note": 65, "velocity": 100, "channel": 0}, {"type": "note_off", "time": 32, "note": 65, "velocity": 100, "channel": 0}, {"type": "note_on", "time": 6, "note": 63, "velocity": 101, "channel": 0}, {"type": "note_off", "time": 45, "note": 63, "velocity": 101, "channel": 0}, {"type": "note_on", "time": 12, "note": 62, "velocity": 103, "channel": 0}, {"type": "note_off", "time": 99, "note": 62, "velocity": 103, "channel": 0}, {"type": "note_on", "time": 18, "note": 60, "velocity": 95, "channel": 0}, {"type": "note_off", "time": 67, "note": 60, "velocity": 95, "channel": 0}, {"type": "note_on", "time": 11, "note": 59, "velocity": 74, "channel": 0}, {"type": "note_off", "time": 67, "note": 59, "velocity": 74, "channel": 0}, {"type": "note_on", "time": 134, "note": 65, "velocity": 109, "channel": 0}, {"type": "note_off", "time": 75, "note": 65, "velocity": 109, "channel": 0}, {"type": "note_on", "time": 28, "note": 68, "velocity": 107, "channel": 0}, {"type": "note_off", "time": 77, "note": 68, "velocity": 107, "channel": 0}, {"type": "note_on", "time": 11, "note": 67, "velocity": 94, "channel": 0}, {"type": "note_off", "time": 93, "note": 67, "velocity": 94, "channel": 0}, {"type": "note_on", "time": 92, "note": 74, "velocity": 111, "channel": 0}, {"type": "note_off", "time": 81, "note": 74, "velocity": 111, "channel": 0}, {"type": "note_on", "time": 17, "note": 71, "velocity": 102, "channel": 0}, {"type": "note_off", "time": 97, "note": 71, "velocity": 102, "channel": 0}, {"type": "note_on", "time": 5, "note": 72, "velocity": 94, "channel": 0}, {"type": "note_off", "time": 78, "note": 72, "velocity": 94, "channel": 0}, {"type": "note_on", "time": 13, "note": 74, "velocity": 116, "channel": 0}, {"type": "note_off", "time": 74, "note": 74, "velocity": 116, "channel": 0}, {"type": "note_on", "time": 6, "note": 75, "velocity": 117, "channel": 0}, {"type": "note_off", "time": 78, "note": 75, "velocity": 117, "channel": 0}, {"type": "note_on", "time": 11, "note": 76, "velocity": 127, "channel": 0}, {"type": "note_off", "time": 99, "note": 76, "velocity": 127, "channel": 0}, {"type": "note_on", "time": 3, "note": 77, "velocity": 120, "channel": 0}, {"type": "note_off", "time": 91, "note": 77, "velocity": 120, "channel": 0}, {"type": "note_on", "time": 5, "note": 75, "velocity": 114, "channel": 0}, {"type": "note_off", "time": 82, "note": 75, "velocity": 114, "channel": 0}, {"type": "note_on", "time": 16, "note": 74, "velocity": 102, "channel": 0}, {"type": "note_off", "time": 69, "note": 74, "velocity": 102, "channel": 0}, {"type": "note_on", "time": 18, "note": 72, "velocity": 101, "channel": 0}, {"type": "note_off", "time": 63, "note": 72, "velocity": 101, "channel": 0}, {"type": "note_on", "time": 28, "note": 70, "velocity": 108, "channel": 0}, {"type": "note_off", "time": 81, "note": 70, "velocity": 108, "channel": 0}, {"type": "note_on", "time": 22, "note": 69, "velocity": 108, "channel": 0}, {"type": "note_off", "time": 59, "note": 69, "velocity": 108, "channel": 0}, {"type": "note_on", "time": 5, "note": 68, "velocity": 90, "channel": 0}, {"type": "note_off", "time": 110, "note": 68, "velocity": 90, "channel": 0}, {"type": "note_on", "time": 24, "note": 72, "velocity": 111, "channel": 0}, {"type": "note_off", "time": 56, "note": 72, "velocity": 111, "channel": 0}, {"type": "note_on", "time": 26, "note": 67, "velocity": 95, "channel": 0}, {"type": "note_off", "time": 90, "note": 67, "velocity": 95, "channel": 0}, {"type": "note_on", "time": 17, "note": 65, "velocity": 88, "channel": 0}, {"type": "note_off", "time": 45, "note": 65, "velocity": 88, "channel": 0}, {"type": "note_on", "time": 45, "note": 67, "velocity": 103, "channel": 0}, {"type": "note_off", "time": 94, "note": 67, "velocity": 103, "channel": 0}, {"type": "note_on", "time": 24, "note": 65, "velocity": 98, "channel": 0}, {"type": "note_off", "time": 256, "note": 65, "velocity": 98, "channel": 0}, {"type": "end_of_track", "time": 0}]]}