{"ticks_per_beat": 192, "tracks": [[{"type": "track_name", "name": "Melody", "time": 0}, {"type": "set_tempo", "tempo": 199335, "time": 0}, {"type": "key_signature", "key": "C", "time": 0}, {"type": "time_signature", "numerator": 4, "denominator": 4, "clocks_per_click": 24, "notated_32nd_notes_per_beat": 8, "time": 0}, {"type": "note_on", "time": 5281, "note": 68, "velocity": 98, "channel": 0}, {"type": "note_off", "time": 50, "note": 68, "velocity": 98, "channel": 0}, {"type": "note_on", "time": 9, "note": 70, "velocity": 105, "channel": 0}, {"type": "note_off", "time": 144, "note": 70, "velocity": 105, "channel": 0}, {"type": "note_on", "time": 78, "note": 63, "velocity": 109, "channel": 0}, {"type": "note_off", "time": 144, "note": 63, "velocity": 109, "channel": 0}, {"type": "note_on", "time": 1167, "note": 63, "velocity": 108, "channel": 0}, {"type": "note_off", "time": 150, "note": 63, "velocity": 108, "channel": 0}, {"type": "note_on", "time": 33, "note": 65, "velocity": 107, "channel": 0}, {"type": "note_off", "time": 145, "note": 65, "velocity": 107, "channel": 0}, {"type": "note_on", "time": 22, "note": 66, "velocity": 99, "channel": 0}, {"type": "note_off", "time": 136, "note": 66, "velocity": 99, "channel": 0}, {"type": "note_on", "time": 41, "note": 63, "velocity": 101, "channel": 0}, {"type": "note_off", "time": 148, "note": 63, "velocity": 101, "channel": 0}, {"type": "note_on", "time": 64, "note": 70, "velocity": 102, "channel": 0}, {"type": "note_off", "time": 117, "note": 70, "velocity": 102, "channel": 0}, {"type": "note_on", "time": 86, "note": 68, "velocity": 100, "channel": 0}, {"type": "note_off", "time": 114, "note": 68, "velocity": 100, "channel": 0}, {"type": "note_on", "time": 16, "note": 66, "velocity": 95, "channel": 0}, {"type": "note_off", "time": 139, "note": 66, "velocity": 95, "channel": 0}, {"type": "note_on", "time": 17, "note": 65, "velocity": 101, "channel": 0}, {"type": "note_off", "time": 116, "note": 65, "velocity": 101, "channel": 0}, {"type": "note_on", "time": 23, "note": 63, "velocity": 107, "channel": 0}, {"type": "note_off", "time": 164, "note": 63, "velocity": 107, "channel": 0}, {"type": "note_on", "time": 11, "note": 65, "velocity": 99, "channel": 0}, {"type": "note_off", "time": 162, "note": 65, "velocity": 99, "channel": 0}, {"type": "note_on", "time": 9, "note": 66, "velocity": 93, "channel": 0}, {"type": "note_off", "time": 229, "note": 66, "velocity": 93, "channel": 0}, {"type": "note_on", "time": 44, "note": 68, "velocity": 102, "channel": 0}, {"type": "note_off", "time": 158, "note": 68, "velocity": 102, "channel": 0}, {"type": "note_on", "time": 131, "note": 61, "velocity": 99, "channel": 0}, {"type": "note_off", "time": 97, "note": 61, "velocity": 99, "channel": 0}, {"type": "note_on", "time": 98, "note": 63, "velocity": 107, "channel": 0}, {"type": "note_off", "time": 126, "note": 63, "velocity": 107, "channel": 0}, {"type": "note_on", "time": 76, "note": 61, "velocity": 97, "channel": 0}, {"type": "note_off", "time": 93, "note": 61, "velocity": 97, "channel": 0}, {"type": "note_on", "time": 110, "note": 65, "velocity": 105, "channel": 0}, {"type": "note_off", "time": 450, "note": 65, "velocity": 105, "channel": 0}, {"type": "note_on", "time": 982, "note": 71, "velocity": 100, "channel": 0}, {"type": "note_off", "time": 67, "note": 71, "velocity": 100, "channel": 0}, {"type": "note_on", "time": 5, "note": 73, "velocity": 100, "channel": 0}, {"type": "note_off", "time": 180, "note": 73, "velocity": 100, "channel": 0}, {"type": "note_on", "time": 5, "note": 72, "velocity": 110, "channel": 0}, {"type": "note_off", "time": 103, "note": 72, "velocity": 110, "channel": 0}, {"type": "note_on", "time": 47, "note": 70, "velocity": 101, "channel": 0}, {"type": "note_off", "time": 114, "note": 70, "velocity": 101, "channel": 0}, {"type": "note_on", "time": 46, "note": 69, "velocity": 101, "channel": 0}, {"type": "note_off", "time": 77, "note": 69, "velocity": 101, "channel": 0}, {"type": "note_on", "time": 71, "note": 69, "velocity": 98, "channel": 0}, {"type": "note_off", "time": 47, "note": 69, "velocity": 98, "channel": 0}, {"type": "note_on", "time": 8, "note": 68, "velocity": 103, "channel": 0}, {"type": "note_off", "time": 235, "note": 68, "velocity": 103, "channel": 0}, {"type": "note_on", "time": 57, "note": 66, "velocity": 99, "channel": 0}, {"type": "note_off", "time": 83, "note": 66, "velocity": 99, "channel": 0}, {"type": "note_on", "time": 78, "note": 64, "velocity": 105, "channel": 0}, {"type": "note_off", "time": 85, "note": 64, "velocity": 105, "channel": 0}, {"type": "note_on", "time": 45, "note": 63, "velocity": 106, "channel": 0}, {"type": "note_off", "time": 114, "note": 63, "velocity": 106, "channel": 0}, {"type": "note_on", "time": 83, "note": 62, "velocity": 108, "channel": 0}, {"type": "note_off", "time": 280, "note": 62, "velocity": 108, "channel": 0}, {"type": "note_on", "time": 20, "note": 61, "velocity": 103, "channel": 0}, {"type": "note_off", "time": 94, "note": 61, "velocity": 103, "channel": 0}, {"type": "note_on", "time": 50, "note": 59, "velocity": 104, "channel": 0}, {"type": "note_off", "time": 110, "note": 59, "velocity": 104, "channel": 0}, {"type": "note_on", "time": 31, "note": 58, "velocity": 94, "channel": 0}, {"type": "note_off", "time": 100, "note": 58, "velocity": 94, "channel": 0}, {"type": "note_on", "time": 81, "note": 57, "velocity": 103, "channel": 0}, {"type": "note_off", "time": 75, "note": 57, "velocity": 103, "channel": 0}, {"type": "note_on", "time": 75, "note": 59, "velocity": 101, "channel": 0}, {"type": "note_off", "time": 88, "note": 59, "velocity": 101, "channel": 0}, {"type": "note_on", "time": 11, "note": 61, "velocity": 97, "channel": 0}, {"type": "note_off", "time": 68, "note": 61, "velocity": 97, "channel": 0}, {"type": "note_on", "time": 6, "note": 62, "velocity": 99, "channel": 0}, {"type": "note_off", "time": 62, "note": 62, "velocity": 99, "channel": 0}, {"type": "note_on", "time": 18, "note": 64, "velocity": 107, "channel": 0}, {"type": "note_off", "time": 109, "note": 64, "velocity": 107, "channel": 0}, {"type": "note_on", "time": 2, "note": 62, "velocity": 110, "channel": 0}, {"type": "note_off", "time": 89, "note": 62, "velocity": 110, "channel": 0}, {"type": "note_on", "time": 13, "note": 61, "velocity": 100, "channel": 0}, {"type": "note_off", "time": 88, "note": 61, "velocity": 100, "channel": 0}, {"type": "note_on", "time": 25, "note": 60, "velocity": 103, "channel": 0}, {"type": "note_off", "time": 80, "note": 60, "velocity": 103, "channel": 0}, {"type": "note_on", "time": 12, "note": 59, "velocity": 101, "channel": 0}, {"type": "note_off", "time": 88, "note": 59, "velocity": 101, "channel": 0}, {"type": "note_on", "time": 13, "note": 63, "velocity": 105, "channel": 0}, {"type": "note_off", "time": 65, "note": 63, "velocity": 105, "channel": 0}, {"type": "note_on", "time": 8, "note": 66, "velocity": 91, "channel": 0}, {"type": "note_off", "time": 94, "note": 66, "velocity": 91, "channel": 0}, {"type": "note_on", "time": 8, "note": 69, "velocity": 95, "channel": 0}, {"type": "note_off", "time": 81, "note": 69, "velocity": 95, "channel": 0}, {"type": "note_on", "time": 10, "note": 68, "velocity": 93, "channel": 0}, {"type": "note_off", "time": 100, "note": 68, "velocity": 93, "channel": 0}, {"type": "note_on", "time": 11, "note": 66, "velocity": 95, "channel": 0}, {"type": "note_off", "time": 94, "note": 66, "velocity": 95, "channel": 0}, {"type": "note_on", "time": 3, "note": 65, "velocity": 91, "channel": 0}, {"type": "note_off", "time": 93, "note": 65, "velocity": 91, "channel": 0}, {"type": "note_on", "time": 9, "note": 63, "velocity": 102, "channel": 0}, {"type": "note_off", "time": 99, "note": 63, "velocity": 102, "channel": 0}, {"type": "note_on", "time": 6, "note": 62, "velocity": 101, "channel": 0}, {"type": "note_off", "time": 96, "note": 62, "velocity": 101, "channel": 0}, {"type": "note_on", "time": 11, "note": 65, "velocity": 80, "channel": 0}, {"type": "note_off", "time": 63, "note": 65, "velocity": 80, "channel": 0}, {"type": "note_on", "time": 14, "note": 69, "velocity": 90, "channel": 0}, {"type": "note_off", "time": 64, "note": 69, "velocity": 90, "channel": 0}, {"type": "note_on", "time": 37, "note": 72, "velocity": 102, "channel": 0}, {"type": "note_off", "time": 88, "note": 72, "velocity": 102, "channel": 0}, {"type": "note_on", "time": 3, "note": 71, "velocity": 97, "channel": 0}, {"type": "note_off", "time": 118, "note": 71, "velocity": 97, "channel": 0}, {"type": "note_on", "time": 6, "note": 69, "velocity": 88, "channel": 0}, {"type": "note_off", "time": 81, "note": 69, "velocity": 88, "channel": 0}, {"type": "note_on", "time": 15, "note": 67, "velocity": 95, "channel": 0}, {"type": "note_off", "time": 83, "note": 67, "velocity": 95, "channel": 0}, {"type": "note_on", "time": 6, "note": 65, "velocity": 93, "channel": 0}, {"type": "note_off", "time": 52, "note": 65, "velocity": 93, "channel": 0}, {"type": "note_on", "time": 14, "note": 64, "velocity": 95, "channel": 0}, {"type": "note_off", "time": 92, "note": 64, "velocity": 95, "channel": 0}, {"type": "note_on", "time": 11, "note": 67, "velocity": 95, "channel": 0}, {"type": "note_off", "time": 87, "note": 67, "velocity": 95, "channel": 0}, {"type": "note_on", "time": 20, "note": 62, "velocity": 93, "channel": 0}, {"type": "note_off", "time": 90, "note": 62, "velocity": 93, "channel": 0}, {"type": "note_on", "time": 35, "note": 59, "velocity": 78, "channel": 0}, {"type": "note_off", "time": 44, "note": 59, "velocity": 78, "channel": 0}, {"type": "note_on", "time": 16, "note": 60, "velocity": 103, "channel": 0}, {"type": "note_off", "time": 136, "note": 60, "velocity": 103, "channel": 0}, {"type": "note_on", "time": 1264, "note": 59, "velocity": 102, "channel": 0}, {"type": "note_off", "time": 41, "note": 59, "velocity": 102, "channel": 0}, {"type": "note_on", "time": 13, "note": 63, "velocity": 102, "channel": 0}, {"type": "note_off", "time": 48, "note": 63, "velocity": 102, "channel": 0}, {"type": "note_on", "time": 5, "note": 66, "velocity": 74, "channel": 0}, {"type": "note_off", "time": 45, "note": 66, "velocity": 74, "channel": 0}, {"type": "note_on", "time": 28, "note": 70, "velocity": 103, "channel": 0}, {"type": "note_off", "time": 88, "note": 70, "velocity": 103, "channel": 0}, {"type": "note_on", "time": 8, "note": 68, "velocity": 99, "channel": 0}, {"type": "note_off", "time": 72, "note": 68, "velocity": 99, "channel": 0}, {"type": "note_on", "time": 8, "note": 65, "velocity": 104, "channel": 0}, {"type": "note_off", "time": 104, "note": 65, "velocity": 104, "channel": 0}, {"type": "note_on", "time": 9, "note": 63, "velocity": 110, "channel": 0}, {"type": "note_off", "time": 83, "note": 63, "velocity": 110, "channel": 0}, {"type": "note_on", "time": 9, "note": 61, "velocity": 101, "channel": 0}, {"type": "note_off", "time": 86, "note": 61, "velocity": 101, "channel": 0}, {"type": "note_on", "time": 15, "note": 59, "velocity": 102, "channel": 0}, {"type": "note_off", "time": 68, "note": 59, "velocity": 102, "channel": 0}, {"type": "note_on", "time": 11, "note": 58, "velocity": 98, "channel": 0}, {"type": "note_off", "time": 97, "note": 58, "velocity": 98, "channel": 0}, {"type": "note_on", "time": 7, "note": 56, "velocity": 106, "channel": 0}, {"type": "note_off", "time": 108, "note": 56, "velocity": 106, "channel": 0}, {"type": "note_on", "time": 12, "note": 54, "velocity": 99, "channel": 0}, {"type": "note_off", "time": 89, "note": 54, "velocity": 99, "channel": 0}, {"type": "note_on", "time": 7, "note": 56, "velocity": 104, "channel": 0}, {"type": "note_off", "time": 102, "note": 56, "velocity": 104, "channel": 0}, {"type": "note_on", "time": 13, "note": 58, "velocity": 91, "channel": 0}, {"type": "note_off", "time": 81, "note": 58, "velocity": 91, "channel": 0}, {"type": "note_on", "time": 8, "note": 60, "velocity": 111, "channel": 0}, {"type": "note_off", "time": 97, "note": 60, "velocity": 111, "channel": 0}, {"type": "note_on", "time": 13, "note": 61, "velocity": 94, "channel": 0}, {"type": "note_off", "time": 105, "note": 61, "velocity": 94, "channel": 0}, {"type": "note_on", "time": 9, "note": 62, "velocity": 91, "channel": 0}, {"type": "note_off", "time": 45, "note": 62, "velocity": 91, "channel": 0}, {"type": "note_on", "time": 10, "note": 65, "velocity": 105, "channel": 0}, {"type": "note_off", "time": 92, "note": 65, "velocity": 105, "channel": 0}, {"type": "note_on", "time": 3, "note": 64, "velocity": 105, "channel": 0}, {"type": "note_off", "time": 97, "note": 64, "velocity": 105, "channel": 0}, {"type": "note_on", "time": 9, "note": 63, "velocity": 109, "channel": 0}, {"type": "note_off", "time": 100, "note": 63, "velocity": 109, "channel": 0}, {"type": "note_on", "time": 4, "note": 61, "velocity": 101, "channel": 0}, {"type": "note_off", "time": 88, "note": 61, "velocity": 101, "channel": 0}, {"type": "note_on", "time": 12, "note": 60, "velocity": 99, "channel": 0}, {"type": "note_off", "time": 85, "note": 60, "velocity": 99, "channel": 0}, {"type": "note_on", "time": 2, "note": 59, "velocity": 91, "channel": 0}, {"type": "note_off", "time": 75, "note": 59, "velocity": 91, "channel": 0}, {"type": "note_on", "time": 20, "note": 56, "velocity": 106, "channel": 0}, {"type": "note_off", "time": 90, "note": 56, "velocity": 106, "channel": 0}, {"type": "note_on", "time": 4, "note": 58, "velocity": 93, "channel": 0}, {"type": "note_off", "time": 79, "note": 58, "velocity": 93, "channel": 0}, {"type": "note_on", "time": 141, "note": 63, "velocity": 92, "channel": 0}, {"type": "note_off", "time": 60, "note": 63, "velocity": 92, "channel": 0}, {"type": "note_on", "time": 15, "note": 68, "velocity": 101, "channel": 0}, {"type": "note_off", "time": 123, "note": 68, "velocity": 101, "channel": 0}, {"type": "note_on", "time": 992, "note": 68, "velocity": 101, "channel": 0}, {"type": "note_off", "time": 57, "note": 68, "velocity": 101, "channel": 0}, {"type": "note_on", "time": 4, "note": 69, "velocity": 99, "channel": 0}, {"type": "note_off", "time": 46, "note": 69, "velocity": 99, "channel": 0}, {"type": "note_on", "time": 4, "note": 68, "velocity": 96, "channel": 0}, {"type": "note_off", "time": 109, "note": 68, "velocity": 96, "channel": 0}, {"type": "note_on", "time": 6, "note": 66, "velocity": 93, "channel": 0}, {"type": "note_off", "time": 101, "note": 66, "velocity": 93, "channel": 0}, {"type": "note_on", "time": 11, "note": 64, "velocity": 100, "channel": 0}, {"type": "note_off", "time": 72, "note": 64, "velocity": 100, "channel": 0}, {"type": "note_on", "time": 4, "note": 65, "velocity": 101, "channel": 0}, {"type": "note_off", "time": 90, "note": 65, "velocity": 101, "channel": 0}, {"type": "note_on", "time": 10, "note": 61, "velocity": 102, "channel": 0}, {"type": "note_off", "time": 82, "note": 61, "velocity": 102, "channel": 0}, {"type": "note_on", "time": 10, "note": 58, "velocity": 95, "channel": 0}, {"type": "note_off", "time": 96, "note": 58, "velocity": 95, "channel": 0}, {"type": "note_on", "time": 7, "note": 55, "velocity": 97, "channel": 0}, {"type": "note_off", "time": 83, "note": 55, "velocity": 97, "channel": 0}, {"type": "note_on", "time": 12, "note": 61, "velocity": 100, "channel": 0}, {"type": "note_off", "time": 104, "note": 61, "velocity": 100, "channel": 0}, {"type": "note_on", "time": 12, "note": 58, "velocity": 100, "channel": 0}, {"type": "note_off", "time": 54, "note": 58, "velocity": 100, "channel": 0}, {"type": "note_on", "time": 31, "note": 61, "velocity": 102, "channel": 0}, {"type": "note_off", "time": 72, "note": 61, "velocity": 102, "channel": 0}, {"type": "note_on", "time": 29, "note": 65, "velocity": 102, "channel": 0}, {"type": "note_off", "time": 111, "note": 65, "velocity": 102, "channel": 0}, {"type": "note_on", "time": 61, "note": 65, "velocity": 99, "channel": 0}, {"type": "note_off", "time": 81, "note": 65, "velocity": 99, "channel": 0}, {"type": "note_on", "time": 28, "note": 67, "velocity": 99, "channel": 0}, {"type": "note_off", "time": 44, "note": 67, "velocity": 99, "channel": 0}, {"type": "note_on", "time": 15, "note": 69, "velocity": 90, "channel": 0}, {"type": "note_off", "time": 90, "note": 69, "velocity": 90, "channel": 0}, {"type": "note_on", "time": 50, "note": 69, "velocity": 94, "channel": 0}, {"type": "note_off", "time": 86, "note": 69, "velocity": 94, "channel": 0}, {"type": "note_on", "time": 23, "note": 72, "velocity": 101, "channel": 0}, {"type": "note_off", "time": 95, "note": 72, "velocity": 101, "channel": 0}, {"type": "note_on", "time": 88, "note": 72, "velocity": 96, "channel": 0}, {"type": "note_off", "time": 98, "note": 72, "velocity": 96, "channel": 0}, {"type": "note_on", "time": 58, "note": 75, "velocity": 100, "channel": 0}, {"type": "note_off", "time": 575, "note": 75, "velocity": 100, "channel": 0}, {"type": "note_on", "time": 46, "note": 73, "velocity": 99, "channel": 0}, {"type": "note_off", "time": 72, "note": 73, "velocity": 99, "channel": 0}, {"type": "note_on", "time": 4, "note": 72, "velocity": 97, "channel": 0}, {"type": "note_off", "time": 108, "note": 72, "velocity": 97, "channel": 0}, {"type": "note_on", "time": 9, "note": 70, "velocity": 99, "channel": 0}, {"type": "note_off", "time": 77, "note": 70, "velocity": 99, "channel": 0}, {"type": "note_on", "time": 8, "note": 69, "velocity": 96, "channel": 0}, {"type": "note_off", "time": 61, "note": 69, "velocity": 96, "channel": 0}, {"type": "note_on", "time": 26, "note": 72, "velocity": 100, "channel": 0}, {"type": "note_off", "time": 90, "note": 72, "velocity": 100, "channel": 0}, {"type": "note_on", "time": 10, "note": 70, "velocity": 97, "channel": 0}, {"type": "note_off", "time": 90, "note": 70, "velocity": 97, "channel": 0}, {"type": "note_on", "time": 24, "note": 64, "velocity": 93, "channel": 0}, {"type": "note_off", "time": 56, "note": 64, "velocity": 93, "channel": 0}, {"type": "note_on", "time": 6, "note": 65, "velocity": 101, "channel": 0}, {"type": "note_off", "time": 106, "note": 65, "velocity": 101, "channel": 0}, {"type": "note_on", "time": 8, "note": 68, "velocity": 100, "channel": 0}, {"type": "note_off", "time": 77, "note": 68, "velocity": 100, "channel": 0}, {"type": "note_on", "time": 7, "note": 67, "velocity": 100, "channel": 0}, {"type": "note_off", "time": 82, "note": 67, "velocity": 100, "channel": 0}, {"type": "note_on", "time": 10, "note": 63, "velocity": 103, "channel": 0}, {"type": "note_off", "time": 83, "note": 63, "velocity": 103, "channel": 0}, {"type": "note_on", "time": 577, "note": 73, "velocity": 96, "channel": 0}, {"type": "note_off", "time": 73, "note": 73, "velocity": 96, "channel": 0}, {"type": "note_on", "time": 0, "note": 74, "velocity": 97, "channel": 0}, {"type": "note_off", "time": 67, "note": 74, "velocity": 97, "channel": 0}, {"type": "note_on", "time": 1, "note": 73, "velocity": 97, "channel": 0}, {"type": "note_off", "time": 58, "note": 73, "velocity": 97, "channel": 0}, {"type": "note_on", "time": 7, "note": 71, "velocity": 97, "channel": 0}, {"type": "note_off", "time": 77, "note": 71, "velocity": 97, "channel": 0}, {"type": "note_on", "time": 4, "note": 69, "velocity": 97, "channel": 0}, {"type": "note_off", "time": 90, "note": 69, "velocity": 97, "channel": 0}, {"type": "note_on", "time": 8, "note": 68, "velocity": 97, "channel": 0}, {"type": "note_off", "time": 93, "note": 68, "velocity": 97, "channel": 0}, {"type": "note_on", "time": 5, "note": 69, "velocity": 94, "channel": 0}, {"type": "note_off", "time": 81, "note": 69, "velocity": 94, "channel": 0}, {"type": "note_on", "time": 6, "note": 71, "velocity": 105, "channel": 0}, {"type": "note_off", "time": 100, "note": 71, "velocity": 105, "channel": 0}, {"type": "note_on", "time": 7, "note": 73, "velocity": 95, "channel": 0}, {"type": "note_off", "time": 95, "note": 73, "velocity": 95, "channel": 0}, {"type": "note_on", "time": 6, "note": 69, "velocity": 94, "channel": 0}, {"type": "note_off", "time": 88, "note": 69, "velocity": 94, "channel": 0}, {"type": "note_on", "time": 7, "note": 61, "velocity": 93, "channel": 0}, {"type": "note_off", "time": 87, "note": 61, "velocity": 93, "channel": 0}, {"type": "note_on", "time": 1334, "note": 59, "velocity": 103, "channel": 0}, {"type": "note_off", "time": 74, "note": 59, "velocity": 103, "channel": 0}, {"type": "note_on", "time": 20, "note": 55, "velocity": 104, "channel": 0}, {"type": "note_off", "time": 102, "note": 55, "velocity": 104, "channel": 0}, {"type": "note_on", "time": 19, "note": 53, "velocity": 107, "channel": 0}, {"type": "note_off", "time": 71, "note": 53, "velocity": 107, "channel": 0}, {"type": "note_on", "time": 13, "note": 50, "velocity": 102, "channel": 0}, {"type": "note_off", "time": 90, "note": 50, "velocity": 102, "channel": 0}, {"type": "note_on", "time": 17, "note": 48, "velocity": 99, "channel": 0}, {"type": "note_off", "time": 81, "note": 48, "velocity": 99, "channel": 0}, {"type": "note_on", "time": 13, "note": 50, "velocity": 100, "channel": 0}, {"type": "note_off", "time": 91, "note": 50, "velocity": 100, "channel": 0}, {"type": "note_on", "time": 21, "note": 52, "velocity": 103, "channel": 0}, {"type": "note_off", "time": 90, "note": 52, "velocity": 103, "channel": 0}, {"type": "note_on", "time": 9, "note": 53, "velocity": 106, "channel": 0}, {"type": "note_off", "time": 79, "note": 53, "velocity": 106, "channel": 0}, {"type": "note_on", "time": 6, "note": 54, "velocity": 106, "channel": 0}, {"type": "note_off", "time": 82, "note": 54, "velocity": 106, "channel": 0}, {"type": "note_on", "time": 4, "note": 58, "velocity": 99, "channel": 0}, {"type": "note_off", "time": 95, "note": 58, "velocity": 99, "channel": 0}, {"type": "note_on", "time": 16, "note": 57, "velocity": 106, "channel": 0}, {"type": "note_off", "time": 104, "note": 57, "velocity": 106, "channel": 0}, {"type": "note_on", "time": 8, "note": 55, "velocity": 98, "channel": 0}, {"type": "note_off", "time": 85, "note": 55, "velocity": 98, "channel": 0}, {"type": "note_on", "time": 7, "note": 56, "velocity": 105, "channel": 0}, {"type": "note_off", "time": 73, "note": 56, "velocity": 105, "channel": 0}, {"type": "note_on", "time": 5, "note": 58, "velocity": 97, "channel": 0}, {"type": "note_off", "time": 69, "note": 58, "velocity": 97, "channel": 0}, {"type": "note_on", "time": 5, "note": 59, "velocity": 103, "channel": 0}, {"type": "note_off", "time": 94, "note": 59, "velocity": 103, "channel": 0}, {"type": "note_on", "time": 4, "note": 61, "velocity": 103, "channel": 0}, {"type": "note_off", "time": 78, "note": 61, "velocity": 103, "channel": 0}, {"type": "note_on", "time": 7, "note": 63, "velocity": 104, "channel": 0}, {"type": "note_off", "time": 94, "note": 63, "velocity": 104, "channel": 0}, {"type": "note_on", "time": 8, "note": 65, "velocity": 102, "channel": 0}, {"type": "note_off", "time": 92, "note": 65, "velocity": 102, "channel": 0}, {"type": "note_on", "time": 7, "note": 66, "velocity": 105, "channel": 0}, {"type": "note_off", "time": 68, "note": 66, "velocity": 105, "channel": 0}, {"type": "note_on", "time": 4, "note": 67, "velocity": 97, "channel": 0}, {"type": "note_off", "time": 73, "note": 67, "velocity": 97, "channel": 0}, {"type": "note_on", "time": 2, "note": 68, "velocity": 94, "channel": 0}, {"type": "note_off", "time": 60, "note": 68, "velocity": 94, "channel": 0}, {"type": "note_on", "time": 5, "note": 70, "velocity": 100, "channel": 0}, {"type": "note_off", "time": 104, "note": 70, "velocity": 100, "channel": 0}, {"type": "note_on", "time": 7, "note": 67, "velocity": 93, "channel": 0}, {"type": "note_off", "time": 78, "note": 67, "velocity": 93, "channel": 0}, {"type": "note_on", "time": 4, "note": 68, "velocity": 99, "channel": 0}, {"type": "note_off", "time": 92, "note": 68, "velocity": 99, "channel": 0}, {"type": "note_on", "time": 6, "note": 70, "velocity": 88, "channel": 0}, {"type": "note_off", "time": 69, "note": 70, "velocity": 88, "channel": 0}, {"type": "note_on", "time": 7, "note": 71, "velocity": 98, "channel": 0}, {"type": "note_off", "time": 97, "note": 71, "velocity": 98, "channel": 0}, {"type": "note_on", "time": 6, "note": 75, "velocity": 95, "channel": 0}, {"type": "note_off", "time": 87, "note": 75, "velocity": 95, "channel": 0}, {"type": "note_on", "time": 9, "note": 73, "velocity": 95, "channel": 0}, {"type": "note_off", "time": 72, "note": 73, "velocity": 95, "channel": 0}, {"type": "note_on", "time": 9, "note": 72, "velocity": 87, "channel": 0}, {"type": "note_off", "time": 39, "note": 72, "velocity": 87, "channel": 0}, {"type": "note_on", "time": 4, "note": 71, "velocity": 107, "channel": 0}, {"type": "note_off", "time": 111, "note": 71, "velocity": 107, "channel": 0}, {"type": "note_on", "time": 77, "note": 68, "velocity": 96, "channel": 0}, {"type": "note_off", "time": 74, "note": 68, "velocity": 96, "channel": 0}, {"type": "note_on", "time": 13, "note": 65, "velocity": 94, "channel": 0}, {"type": "note_off", "time": 103, "note": 65, "velocity": 94, "channel": 0}, {"type": "note_on", "time": 82, "note": 66, "velocity": 100, "channel": 0}, {"type": "note_off", "time": 282, "note": 66, "velocity": 100, "channel": 0}, {"type": "note_on", "time": 101, "note": 65, "velocity": 100, "channel": 0}, {"type": "note_off", "time": 50, "note": 65, "velocity": 100, "channel": 0}, {"type": "note_on", "time": 4, "note": 66, "velocity": 109, "channel": 0}, {"type": "note_off", "time": 53, "note": 66, "velocity": 109, "channel": 0}, {"type": "note_on", "time": 2, "note": 65, "velocity": 105, "channel": 0}, {"type": "note_off", "time": 57, "note": 65, "velocity": 105, "channel": 0}, {"type": "note_on", "time": 4, "note": 63, "velocity": 110, "channel": 0}, {"type": "note_off", "time": 58, "note": 63, "velocity": 110, "channel": 0}, {"type": "note_on", "time": 7, "note": 62, "velocity": 102, "channel": 0}, {"type": "note_off", "time": 78, "note": 62, "velocity": 102, "channel": 0}, {"type": "note_on", "time": 0, "note": 65, "velocity": 109, "channel": 0}, {"type": "note_off", "time": 65, "note": 65, "velocity": 109, "channel": 0}, {"type": "note_on", "time": 3, "note": 63, "velocity": 108, "channel": 0}, {"type": "note_off", "time": 91, "note": 63, "velocity": 108, "channel": 0}, {"type": "note_on", "time": 5, "note": 61, "velocity": 106, "channel": 0}, {"type": "note_off", "time": 95, "note": 61, "velocity": 106, "channel": 0}, {"type": "note_on", "time": 5, "note": 60, "velocity": 103, "channel": 0}, {"type": "note_off", "time": 108, "note": 60, "velocity": 103, "channel": 0}, {"type": "note_on", "time": 7, "note": 58, "velocity": 93, "channel": 0}, {"type": "note_off", "time": 76, "note": 58, "velocity": 93, "channel": 0}, {"type": "note_on", "time": 11, "note": 56, "velocity": 102, "channel": 0}, {"type": "note_off", "time": 102, "note": 56, "velocity": 102, "channel": 0}, {"type": "note_on", "time": 0, "note": 58, "velocity": 95, "channel": 0}, {"type": "note_off", "time": 57, "note": 58, "velocity": 95, "channel": 0}, {"type": "note_on", "time": 4, "note": 60, "velocity": 88, "channel": 0}, {"type": "note_off", "time": 65, "note": 60, "velocity": 88, "channel": 0}, {"type": "note_on", "time": 8, "note": 63, "velocity": 100, "channel": 0}, {"type": "note_off", "time": 69, "note": 63, "velocity": 100, "channel": 0}, {"type": "note_on", "time": 4, "note": 68, "velocity": 92, "channel": 0}, {"type": "note_off", "time": 68, "note": 68, "velocity": 92, "channel": 0}, {"type": "note_on", "time": 10, "note": 65, "velocity": 100, "channel": 0}, {"type": "note_off", "time": 67, "note": 65, "velocity": 100, "channel": 0}, {"type": "note_on", "time": 7, "note": 66, "velocity": 93, "channel": 0}, {"type": "note_off", "time": 84, "note": 66, "velocity": 93, "channel": 0}, {"type": "note_on", "time": 10, "note": 63, "velocity": 104, "channel": 0}, {"type": "note_off", "time": 78, "note": 63, "velocity": 104, "channel": 0}, {"type": "note_on", "time": 807, "note": 68, "velocity": 93, "channel": 0}, {"type": "note_off", "time": 22, "note": 68, "velocity": 93, "channel": 0}, {"type": "note_on", "time": 6, "note": 67, "velocity": 98, "channel": 0}, {"type": "note_off", "time": 30, "note": 67, "velocity": 98, "channel": 0}, {"type": "note_on", "time": 3, "note": 65, "velocity": 100, "channel": 0}, {"type": "note_off", "time": 100, "note": 65, "velocity": 100, "channel": 0}, {"type": "note_on", "time": 7, "note": 61, "velocity": 101, "channel": 0}, {"type": "note_off", "time": 73, "note": 61, "velocity": 101, "channel": 0}, {"type": "note_on", "time": 3, "note": 58, "velocity": 95, "channel": 0}, {"type": "note_off", "time": 146, "note": 58, "velocity": 95, "channel": 0}, {"type": "note_on", "time": 12, "note": 55, "velocity": 95, "channel": 0}, {"type": "note_off", "time": 70, "note": 55, "velocity": 95, "channel": 0}, {"type": "note_on", "time": 5, "note": 61, "velocity": 103, "channel": 0}, {"type": "note_off", "time": 108, "note": 61, "velocity": 103, "channel": 0}, {"type": "note_on", "time": 656, "note": 70, "velocity": 110, "channel": 0}, {"type": "note_off", "time": 63, "note": 70, "velocity": 110, "channel": 0}, {"type": "note_on", "time": 51, "note": 72, "velocity": 99, "channel": 0}, {"type": "note_off", "time": 206, "note": 72, "velocity": 99, "channel": 0}, {"type": "note_on", "time": 5, "note": 69, "velocity": 82, "channel": 0}, {"type": "note_off", "time": 74, "note": 69, "velocity": 82, "channel": 0}, {"type": "note_on", "time": 5, "note": 70, "velocity": 96, "channel": 0}, {"type": "note_off", "time": 101, "note": 70, "velocity": 96, "channel": 0}, {"type": "note_on", "time": 3, "note": 67, "velocity": 89, "channel": 0}, {"type": "note_off", "time": 83, "note": 67, "velocity": 89, "channel": 0}, {"type": "note_on", "time": 8, "note": 63, "velocity": 109, "channel": 0}, {"type": "note_off", "time": 89, "note": 63, "velocity": 109, "channel": 0}, {"type": "note_on", "time": 11, "note": 58, "velocity": 82, "channel": 0}, {"type": "note_off", "time": 51, "note": 58, "velocity": 82, "channel": 0}, {"type": "note_on", "time": 41, "note": 68, "velocity": 99, "channel": 0}, {"type": "note_off", "time": 80, "note": 68, "velocity": 99, "channel": 0}, {"type": "note_on", "time": 106, "note": 66, "velocity": 87, "channel": 0}, {"type": "note_off", "time": 29, "note": 66, "velocity": 87, "channel": 0}, {"type": "note_on", "time": 92, "note": 67, "velocity": 103, "channel": 0}, {"type": "note_off", "time": 88, "note": 67, "velocity": 103, "channel": 0}, {"type": "note_on", "time": 122, "note": 63, "velocity": 109, "channel": 0}, {"type": "note_off", "time": 70, "note": 63, "velocity": 109, "channel": 0}, {"type": "note_on", "time": 119, "note": 65, "velocity": 99, "channel": 0}, {"type": "note_off", "time": 37, "note": 65, "velocity": 99, "channel": 0}, {"type": "note_on", "time": 16, "note": 65, "velocity": 97, "channel": 0}, {"type": "note_off", "time": 60, "note": 65, "velocity": 97, "channel": 0}, {"type": "note_on", "time": 7, "note": 61, "velocity": 106, "channel": 0}, {"type": "note_off", "time": 46, "note": 61, "velocity": 106, "channel": 0}, {"type": "note_on", "time": 53, "note": 58, "velocity": 89, "channel": 0}, {"type": "note_off", "time": 138, "note": 58, "velocity": 89, "channel": 0}, {"type": "note_on", "time": 88, "note": 57, "velocity": 106, "channel": 0}, {"type": "note_off", "time": 67, "note": 57, "velocity": 106, "channel": 0}, {"type": "note_on", "time": 130, "note": 55, "velocity": 100, "channel": 0}, {"type": "note_off", "time": 113, "note": 55, "velocity": 100, "channel": 0}, {"type": "note_on", "time": 130, "note": 55, "velocity": 93, "channel": 0}, {"type": "note_off", "time": 85, "note": 55, "velocity": 93, "channel": 0}, {"type": "note_on", "time": 12, "note": 58, "velocity": 99, "channel": 0}, {"type": "note_off", "time": 70, "note": 58, "velocity": 99, "channel": 0}, {"type": "note_on", "time": 214, "note": 57, "velocity": 107, "channel": 0}, {"type": "note_off", "time": 85, "note": 57, "velocity": 107, "channel": 0}, {"type": "note_on", "time": 18, "note": 54, "velocity": 104, "channel": 0}, {"type": "note_off", "time": 71, "note": 54, "velocity": 104, "channel": 0}, {"type": "note_on", "time": 6, "note": 50, "velocity": 104, "channel": 0}, {"type": "note_off", "time": 104, "note": 50, "velocity": 104, "channel": 0}, {"type": "note_on", "time": 9, "note": 47, "velocity": 105, "channel": 0}, {"type": "note_off", "time": 60, "note": 47, "velocity": 105, "channel": 0}, {"type": "note_on", "time": 27, "note": 55, "velocity": 98, "channel": 0}, {"type": "note_off", "time": 65, "note": 55, "velocity": 98, "channel": 0}, {"type": "note_on", "time": 4, "note": 56, "velocity": 103, "channel": 0}, {"type": "note_off", "time": 125, "note": 56, "velocity": 103, "channel": 0}, {"type": "note_on", "time": 4, "note": 54, "velocity": 101, "channel": 0}, {"type": "note_off", "time": 102, "note": 54, "velocity": 101, "channel": 0}, {"type": "note_on", "time": 6, "note": 52, "velocity": 102, "channel": 0}, {"type": "note_off", "time": 74, "note": 52, "velocity": 102, "channel": 0}, {"type": "note_on", "time": 257, "note": 45, "velocity": 113, "channel": 0}, {"type": "note_off", "time": 90, "note": 45, "velocity": 113, "channel": 0}, {"type": "note_on", "time": 1117, "note": 51, "velocity": 103, "channel": 0}, {"type": "note_off", "time": 73, "note": 51, "velocity": 103, "channel": 0}, {"type": "note_on", "time": 129, "note": 51, "velocity": 102, "channel": 0}, {"type": "note_off", "time": 47, "note": 51, "velocity": 102, "channel": 0}, {"type": "note_on", "time": 23, "note": 55, "velocity": 99, "channel": 0}, {"type": "note_off", "time": 92, "note": 55, "velocity": 99, "channel": 0}, {"type": "note_on", "time": 35, "note": 54, "velocity": 107, "channel": 0}, {"type": "note_off", "time": 55, "note": 54, "velocity": 107, "channel": 0}, {"type": "note_on", "time": 5, "note": 58, "velocity": 107, "channel": 0}, {"type": "note_off", "time": 63, "note": 58, "velocity": 107, "channel": 0}, {"type": "note_on", "time": 5, "note": 55, "velocity": 102, "channel": 0}, {"type": "note_off", "time": 123, "note": 55, "velocity": 102, "channel": 0}, {"type": "note_on", "time": 4, "note": 56, "velocity": 107, "channel": 0}, {"type": "note_off", "time": 75, "note": 56, "velocity": 107, "channel": 0}, {"type": "note_on", "time": 8, "note": 57, "velocity": 107, "channel": 0}, {"type": "note_off", "time": 102, "note": 57, "velocity": 107, "channel": 0}, {"type": "note_on", "time": 1, "note": 53, "velocity": 110, "channel": 0}, {"type": "note_off", "time": 84, "note": 53, "velocity": 110, "channel": 0}, {"type": "note_on", "time": 8, "note": 49, "velocity": 102, "channel": 0}, {"type": "note_off", "time": 93, "note": 49, "velocity": 102, "channel": 0}, {"type": "note_on", "time": 2, "note": 50, "velocity": 101, "channel": 0}, {"type": "note_off", "time": 73, "note": 50, "velocity": 101, "channel": 0}, {"type": "note_on", "time": 4, "note": 55, "velocity": 105, "channel": 0}, {"type": "note_off", "time": 82, "note": 55, "velocity": 105, "channel": 0}, {"type": "note_on", "time": 17, "note": 52, "velocity": 101, "channel": 0}, {"type": "note_off", "time": 120, "note": 52, "velocity": 101, "channel": 0}, {"type": "note_on", "time": 3, "note": 51, "velocity": 103, "channel": 0}, {"type": "note_off", "time": 62, "note": 51, "velocity": 103, "channel": 0}, {"type": "note_on", "time": 4, "note": 50, "velocity": 103, "channel": 0}, {"type": "note_off", "time": 112, "note": 50, "velocity": 103, "channel": 0}, {"type": "note_on", "time": 7, "note": 49, "velocity": 106, "channel": 0}, {"type": "note_off", "time": 92, "note": 49, "velocity": 106, "channel": 0}, {"type": "note_on", "time": 3, "note": 48, "velocity": 110, "channel": 0}, {"type": "note_off", "time": 76, "note": 48, "velocity": 110, "channel": 0}, {"type": "note_on", "time": 0, "note": 49, "velocity": 106, "channel": 0}, {"type": "note_off", "time": 75, "note": 49, "velocity": 106, "channel": 0}, {"type": "note_on", "time": 7, "note": 50, "velocity": 102, "channel": 0}, {"type": "note_off", "time": 183, "note": 50, "velocity": 102, "channel": 0}, {"type": "note_on", "time": 16, "note": 58, "velocity": 100, "channel": 0}, {"type": "note_off", "time": 109, "note": 58, "velocity": 100, "channel": 0}, {"type": "note_on", "time": 4, "note": 55, "velocity": 98, "channel": 0}, {"type": "note_off", "time": 72, "note": 55, "velocity": 98, "channel": 0}, {"type": "note_on", "time": 9, "note": 56, "velocity": 102, "channel": 0}, {"type": "note_off", "time": 89, "note": 56, "velocity": 102, "channel": 0}, {"type": "note_on", "time": 6, "note": 57, "velocity": 106, "channel": 0}, {"type": "note_off", "time": 97, "note": 57, "velocity": 106, "channel": 0}, {"type": "note_on", "time": 15, "note": 49, "velocity": 105, "channel": 0}, {"type": "note_off", "time": 95, "note": 49, "velocity": 105, "channel": 0}, {"type": "note_on", "time": 9, "note": 51, "velocity": 102, "channel": 0}, {"type": "note_off", "time": 83, "note": 51, "velocity": 102, "channel": 0}, {"type": "note_on", "time": 2, "note": 56, "velocity": 109, "channel": 0}, {"type": "note_off", "time": 56, "note": 56, "velocity": 109, "channel": 0}, {"type": "note_on", "time": 4, "note": 55, "velocity": 107, "channel": 0}, {"type": "note_off", "time": 37, "note": 55, "velocity": 107, "channel": 0}, {"type": "note_on", "time": 5, "note": 54, "velocity": 109, "channel": 0}, {"type": "note_off", "time": 80, "note": 54, "velocity": 109, "channel": 0}, {"type": "note_on", "time": 4, "note": 53, "velocity": 104, "channel": 0}, {"type": "note_off", "time": 94, "note": 53, "velocity": 104, "channel": 0}, {"type": "note_on", "time": 4, "note": 51, "velocity": 104, "channel": 0}, {"type": "note_off", "time": 52, "note": 51, "velocity": 104, "channel": 0}, {"type": "note_on", "time": 7, "note": 48, "velocity": 112, "channel": 0}, {"type": "note_off", "time": 92, "note": 48, "velocity": 112, "channel": 0}, {"type": "note_on", "time": 9, "note": 49, "velocity": 102, "channel": 0}, {"type": "note_off", "time": 55, "note": 49, "velocity": 102, "channel": 0}, {"type": "note_on", "time": 5, "note": 51, "velocity": 102, "channel": 0}, {"type": "note_off", "time": 69, "note": 51, "velocity": 102, "channel": 0}, {"type": "note_on", "time": 3, "note": 53, "velocity": 104, "channel": 0}, {"type": "note_off", "time": 88, "note": 53, "velocity": 104, "channel": 0}, {"type": "note_on", "time": 11, "note": 56, "velocity": 101, "channel": 0}, {"type": "note_off", "time": 146, "note": 56, "velocity": 101, "channel": 0}, {"type": "note_on", "time": 12, "note": 55, "velocity": 99, "channel": 0}, {"type": "note_off", "time": 34, "note": 55, "velocity": 99, "channel": 0}, {"type": "note_on", "time": 5, "note": 54, "velocity": 96, "channel": 0}, {"type": "note_off", "time": 29, "note": 54, "velocity": 96, "channel": 0}, {"type": "note_on", "time": 23, "note": 53, "velocity": 101, "channel": 0}, {"type": "note_off", "time": 34, "note": 53, "velocity": 101, "channel": 0}, {"type": "note_on", "time": 8, "note": 54, "velocity": 104, "channel": 0}, {"type": "note_off", "time": 122, "note": 54, "velocity": 104, "channel": 0}, {"type": "note_on", "time": 585, "note": 48, "velocity": 104, "channel": 0}, {"type": "note_off", "time": 74, "note": 48, "velocity": 104, "channel": 0}, {"type": "note_on", "time": 2, "note": 50, "velocity": 104, "channel": 0}, {"type": "note_off", "time": 105, "note": 50, "velocity": 104, "channel": 0}, {"type": "note_on", "time": 3, "note": 53, "velocity": 109, "channel": 0}, {"type": "note_off", "time": 97, "note": 53, "velocity": 109, "channel": 0}, {"type": "note_on", "time": 11, "note": 52, "velocity": 105, "channel": 0}, {"type": "note_off", "time": 83, "note": 52, "velocity": 105, "channel": 0}, {"type": "note_on", "time": 7, "note": 51, "velocity": 102, "channel": 0}, {"type": "note_off", "time": 81, "note": 51, "velocity": 102, "channel": 0}, {"type": "note_on", "time": 3, "note": 49, "velocity": 102, "channel": 0}, {"type": "note_off", "time": 99, "note": 49, "velocity": 102, "channel": 0}, {"type": "note_on", "time": 7, "note": 48, "velocity": 118, "channel": 0}, {"type": "note_off", "time": 102, "note": 48, "velocity": 118, "channel": 0}, {"type": "note_on", "time": 1, "note": 46, "velocity": 115, "channel": 0}, {"type": "note_off", "time": 109, "note": 46, "velocity": 115, "channel": 0}, {"type": "note_on", "time": 7, "note": 45, "velocity": 124, "channel": 0}, {"type": "note_off", "time": 62, "note": 45, "velocity": 124, "channel": 0}, {"type": "note_on", "time": 6, "note": 50, "velocity": 118, "channel": 0}, {"type": "note_off", "time": 75, "note": 50, "velocity": 118, "channel": 0}, {"type": "note_on", "time": 4, "note": 54, "velocity": 107, "channel": 0}, {"type": "note_off", "time": 92, "note": 54, "velocity": 107, "channel": 0}, {"type": "note_on", "time": 7, "note": 57, "velocity": 107, "channel": 0}, {"type": "note_off", "time": 86, "note": 57, "velocity": 107, "channel": 0}, {"type": "note_on", "time": 10, "note": 47, "velocity": 104, "channel": 0}, {"type": "note_off", "time": 102, "note": 47, "velocity": 104, "channel": 0}, {"type": "note_on", "time": 8, "note": 51, "velocity": 104, "channel": 0}, {"type": "note_off", "time": 100, "note": 51, "velocity": 104, "channel": 0}, {"type": "note_on", "time": 11, "note": 54, "velocity": 101, "channel": 0}, {"type": "note_on", "time": 104, "note": 59, "velocity": 105, "channel": 0}, {"type": "note_off", "time": 0, "note": 54, "velocity": 101, "channel": 0}, {"type": "note_off", "time": 82, "note": 59, "velocity": 105, "channel": 0}, {"type": "note_on", "time": 12, "note": 56, "velocity": 105, "channel": 0}, {"type": "note_off", "time": 88, "note": 56, "velocity": 105, "channel": 0}, {"type": "note_on", "time": 10, "note": 57, "velocity": 108, "channel": 0}, {"type": "note_off", "time": 90, "note": 57, "velocity": 108, "channel": 0}, {"type": "note_on", "time": 8, "note": 60, "velocity": 105, "channel": 0}, {"type": "note_off", "time": 74, "note": 60, "velocity": 105, "channel": 0}, {"type": "note_on", "time": 1, "note": 63, "velocity": 104, "channel": 0}, {"type": "note_off", "time": 78, "note": 63, "velocity": 104, "channel": 0}, {"type": "note_on", "time": 4, "note": 66, "velocity": 96, "channel": 0}, {"type": "note_off", "time": 72, "note": 66, "velocity": 96, "channel": 0}, {"type": "note_on", "time": 7, "note": 69, "velocity": 100, "channel": 0}, {"type": "note_off", "time": 115, "note": 69, "velocity": 100, "channel": 0}, {"type": "note_on", "time": 7, "note": 68, "velocity": 98, "channel": 0}, {"type": "note_off", "time": 84, "note": 68, "velocity": 98, "channel": 0}, {"type": "note_on", "time": 5, "note": 66, "velocity": 100, "channel": 0}, {"type": "note_off", "time": 83, "note": 66, "velocity": 100, "channel": 0}, {"type": "note_on", "time": 8, "note": 65, "velocity": 108, "channel": 0}, {"type": "note_off", "time": 88, "note": 65, "velocity": 108, "channel": 0}, {"type": "note_on", "time": 2, "note": 61, "velocity": 104, "channel": 0}, {"type": "note_off", "time": 95, "note": 61, "velocity": 104, "channel": 0}, {"type": "note_on", "time": 7, "note": 58, "velocity": 92, "channel": 0}, {"type": "note_off", "time": 106, "note": 58, "velocity": 92, "channel": 0}, {"type": "note_on", "time": 34, "note": 55, "velocity": 103, "channel": 0}, {"type": "note_off", "time": 46, "note": 55, "velocity": 103, "channel": 0}, {"type": "note_on", "time": 30, "note": 61, "velocity": 105, "channel": 0}, {"type": "note_off", "time": 173, "note": 61, "velocity": 105, "channel": 0}, {"type": "note_on", "time": 8, "note": 58, "velocity": 101, "channel": 0}, {"type": "note_off", "time": 51, "note": 58, "velocity": 101, "channel": 0}, {"type": "note_on", "time": 12, "note": 64, "velocity": 104, "channel": 0}, {"type": "note_off", "time": 51, "note": 64, "velocity": 104, "channel": 0}, {"type": "note_on", "time": 9, "note": 65, "velocity": 108, "channel": 0}, {"type": "note_off", "time": 201, "note": 65, "velocity": 108, "channel": 0}, {"type": "note_on", "time": 23, "note": 67, "velocity": 100, "channel": 0}, {"type": "note_off", "time": 104, "note": 67, "velocity": 100, "channel": 0}, {"type": "note_on", "time": 8, "note": 69, "velocity": 95, "channel": 0}, {"type": "note_off", "time": 211, "note": 69, "velocity": 95, "channel": 0}, {"type": "note_on", "time": 21, "note": 72, "velocity": 95, "channel": 0}, {"type": "note_off", "time": 88, "note": 72, "velocity": 95, "channel": 0}, {"type": "note_on", "time": 155, "note": 75, "velocity": 98, "channel": 0}, {"type": "note_off", "time": 264, "note": 75, "velocity": 98, "channel": 0}, {"type": "note_on", "time": 1671, "note": 76, "velocity": 101, "channel": 0}, {"type": "note_off", "time": 83, "note": 76, "velocity": 101, "channel": 0}, {"type": "note_on", "time": 79, "note": 73, "velocity": 93, "channel": 0}, {"type": "note_off", "time": 78, "note": 73, "velocity": 93, "channel": 0}, {"type": "note_on", "time": 137, "note": 68, "velocity": 82, "channel": 0}, {"type": "note_off", "time": 41, "note": 68, "velocity": 82, "channel": 0}, {"type": "note_on", "time": 2, "note": 69, "velocity": 94, "channel": 0}, {"type": "note_off", "time": 139, "note": 69, "velocity": 94, "channel": 0}, {"type": "note_on", "time": 8, "note": 66, "velocity": 91, "channel": 0}, {"type": "note_off", "time": 70, "note": 66, "velocity": 91, "channel": 0}, {"type": "note_on", "time": 135, "note": 62, "velocity": 100, "channel": 0}, {"type": "note_off", "time": 286, "note": 62, "velocity": 100, "channel": 0}, {"type": "note_on", "time": 646, "note": 74, "velocity": 90, "channel": 0}, {"type": "note_off", "time": 110, "note": 74, "velocity": 90, "channel": 0}, {"type": "note_on", "time": 35, "note": 71, "velocity": 98, "channel": 0}, {"type": "note_off", "time": 119, "note": 71, "velocity": 98, "channel": 0}, {"type": "note_on", "time": 13, "note": 68, "velocity": 99, "channel": 0}, {"type": "note_off", "time": 81, "note": 68, "velocity": 99, "channel": 0}, {"type": "note_on", "time": 32, "note": 64, "velocity": 100, "channel": 0}, {"type": "note_off", "time": 113, "note": 64, "velocity": 100, "channel": 0}, {"type": "note_on", "time": 74, "note": 72, "velocity": 97, "channel": 0}, {"type": "note_off", "time": 94, "note": 72, "velocity": 97, "channel": 0}, {"type": "note_on", "time": 37, "note": 69, "velocity": 87, "channel": 0}, {"type": "note_off", "time": 66, "note": 69, "velocity": 87, "channel": 0}, {"type": "note_on", "time": 24, "note": 66, "velocity": 99, "channel": 0}, {"type": "note_off", "time": 82, "note": 66, "velocity": 99, "channel": 0}, {"type": "note_on", "time": 11, "note": 63, "velocity": 102, "channel": 0}, {"type": "note_off", "time": 68, "note": 63, "velocity": 102, "channel": 0}, {"type": "note_on", "time": 33, "note": 71, "velocity": 98, "channel": 0}, {"type": "note_off", "time": 79, "note": 71, "velocity": 98, "channel": 0}, {"type": "note_on", "time": 9, "note": 68, "velocity": 94, "channel": 0}, {"type": "note_off", "time": 76, "note": 68, "velocity": 94, "channel": 0}, {"type": "note_on", "time": 13, "note": 64, "velocity": 102, "channel": 0}, {"type": "note_off", "time": 76, "note": 64, "velocity": 102, "channel": 0}, {"type": "note_on", "time": 17, "note": 60, "velocity": 106, "channel": 0}, {"type": "note_off", "time": 92, "note": 60, "velocity": 106, "channel": 0}, {"type": "note_on", "time": 1, "note": 57, "velocity": 109, "channel": 0}, {"type": "note_off", "time": 73, "note": 57, "velocity": 109, "channel": 0}, {"type": "note_on", "time": 39, "note": 60, "velocity": 110, "channel": 0}, {"type": "note_off", "time": 92, "note": 60, "velocity": 110, "channel": 0}, {"type": "note_on", "time": 6, "note": 64, "velocity": 98, "channel": 0}, {"type": "note_off", "time": 67, "note": 64, "velocity": 98, "channel": 0}, {"type": "note_on", "time": 17, "note": 67, "velocity": 91, "channel": 0}, {"type": "note_off", "time": 60, "note": 67, "velocity": 91, "channel": 0}, {"type": "note_on", "time": 9, "note": 71, "velocity": 103, "channel": 0}, {"type": "note_off", "time": 121, "note": 71, "velocity": 103, "channel": 0}, {"type": "note_on", "time": 7, "note": 67, "velocity": 103, "channel": 0}, {"type": "note_off", "time": 68, "note": 67, "velocity": 103, "channel": 0}, {"type": "note_on", "time": 2, "note": 64, "velocity": 106, "channel": 0}, {"type": "note_off", "time": 101, "note": 64, "velocity": 106, "channel": 0}, {"type": "note_on", "time": 11, "note": 61, "velocity": 94, "channel": 0}, {"type": "note_off", "time": 34, "note": 61, "velocity": 94, "channel": 0}, {"type": "note_on", "time": 51, "note": 70, "velocity": 97, "channel": 0}, {"type": "note_off", "time": 111, "note": 70, "velocity": 97, "channel": 0}, {"type": "note_on", "time": 13, "note": 66, "velocity": 99, "channel": 0}, {"type": "note_off", "time": 61, "note": 66, "velocity": 99, "channel": 0}, {"type": "note_on", "time": 3, "note": 63, "velocity": 105, "channel": 0}, {"type": "note_off", "time": 104, "note": 63, "velocity": 105, "channel": 0}, {"type": "note_on", "time": 16, "note": 59, "velocity": 104, "channel": 0}, {"type": "note_off", "time": 67, "note": 59, "velocity": 104, "channel": 0}, {"type": "note_on", "time": 16, "note": 56, "velocity": 101, "channel": 0}, {"type": "note_off", "time": 81, "note": 56, "velocity": 101, "channel": 0}, {"type": "note_on", "time": 6, "note": 59, "velocity": 102, "channel": 0}, {"type": "note_off", "time": 77, "note": 59, "velocity": 102, "channel": 0}, {"type": "note_on", "time": 13, "note": 63, "velocity": 106, "channel": 0}, {"type": "note_off", "time": 94, "note": 63, "velocity": 106, "channel": 0}, {"type": "note_on", "time": 7, "note": 65, "velocity": 101, "channel": 0}, {"type": "note_off", "time": 115, "note": 65, "velocity": 101, "channel": 0}, {"type": "note_on", "time": 2, "note": 66, "velocity": 96, "channel": 0}, {"type": "note_off", "time": 109, "note": 66, "velocity": 96, "channel": 0}, {"type": "note_on", "time": 5, "note": 68, "velocity": 91, "channel": 0}, {"type": "note_off", "time": 114, "note": 68, "velocity": 91, "channel": 0}, {"type": "note_on", "time": 3, "note": 70, "velocity": 88, "channel": 0}, {"type": "note_off", "time": 57, "note": 70, "velocity": 88, "channel": 0}, {"type": "note_on", "time": 1, "note": 71, "velocity": 95, "channel": 0}, {"type": "note_off", "time": 55, "note": 71, "velocity": 95, "channel": 0}, {"type": "note_on", "time": 0, "note": 75, "velocity": 96, "channel": 0}, {"type": "note_off", "time": 104, "note": 75, "velocity": 96, "channel": 0}, {"type": "note_on", "time": 6, "note": 73, "velocity": 98, "channel": 0}, {"type": "note_off", "time": 93, "note": 73, "velocity": 98, "channel": 0}, {"type": "note_on", "time": 7, "note": 71, "velocity": 98, "channel": 0}, {"type": "note_off", "time": 95, "note": 71, "velocity": 98, "channel": 0}, {"type": "note_on", "time": 7, "note": 68, "velocity": 90, "channel": 0}, {"type": "note_off", "time": 79, "note": 68, "velocity": 90, "channel": 0}, {"type": "note_on", "time": 5, "note": 70, "velocity": 93, "channel": 0}, {"type": "note_off", "time": 103, "note": 70, "velocity": 93, "channel": 0}, {"type": "note_on", "time": 8, "note": 66, "velocity": 98, "channel": 0}, {"type": "note_off", "time": 90, "note": 66, "velocity": 98, "channel": 0}, {"type": "note_on", "time": 0, "note": 61, "velocity": 102, "channel": 0}, {"type": "note_off", "time": 82, "note": 61, "velocity": 102, "channel": 0}, {"type": "note_on", "time": 19, "note": 58, "velocity": 89, "channel": 0}, {"type": "note_off", "time": 90, "note": 58, "velocity": 89, "channel": 0}, {"type": "note_on", "time": 6, "note": 54, "velocity": 95, "channel": 0}, {"type": "note_off", "time": 129, "note": 54, "velocity": 95, "channel": 0}, {"type": "note_on", "time": 652, "note": 72, "velocity": 98, "channel": 0}, {"type": "note_off", "time": 74, "note": 72, "velocity": 98, "channel": 0}, {"type": "note_on", "time": 27, "note": 68, "velocity": 95, "channel": 0}, {"type": "note_off", "time": 90, "note": 68, "velocity": 95, "channel": 0}, {"type": "note_on", "time": 7, "note": 64, "velocity": 101, "channel": 0}, {"type": "note_off", "time": 131, "note": 64, "velocity": 101, "channel": 0}, {"type": "note_on", "time": 3, "note": 61, "velocity": 88, "channel": 0}, {"type": "note_off", "time": 41, "note": 61, "velocity": 88, "channel": 0}, {"type": "note_on", "time": 5, "note": 71, "velocity": 97, "channel": 0}, {"type": "note_off", "time": 120, "note": 71, "velocity": 97, "channel": 0}, {"type": "note_on", "time": 9, "note": 66, "velocity": 91, "channel": 0}, {"type": "note_off", "time": 67, "note": 66, "velocity": 91, "channel": 0}, {"type": "note_on", "time": 7, "note": 70, "velocity": 98, "channel": 0}, {"type": "note_off", "time": 96, "note": 70, "velocity": 98, "channel": 0}, {"type": "note_on", "time": 13, "note": 66, "velocity": 103, "channel": 0}, {"type": "note_off", "time": 71, "note": 66, "velocity": 103, "channel": 0}, {"type": "note_on", "time": 11, "note": 62, "velocity": 102, "channel": 0}, {"type": "note_off", "time": 72, "note": 62, "velocity": 102, "channel": 0}, {"type": "note_on", "time": 9, "note": 58, "velocity": 96, "channel": 0}, {"type": "note_off", "time": 87, "note": 58, "velocity": 96, "channel": 0}, {"type": "note_on", "time": 5, "note": 56, "velocity": 108, "channel": 0}, {"type": "note_off", "time": 119, "note": 56, "velocity": 108, "channel": 0}, {"type": "note_on", "time": 8, "note": 57, "velocity": 9, "channel": 0}, {"type": "note_off", "time": 84, "note": 57, "velocity": 9, "channel": 0}, {"type": "note_on", "time": 15, "note": 60, "velocity": 108, "channel": 0}, {"type": "note_off", "time": 81, "note": 60, "velocity": 108, "channel": 0}, {"type": "note_on", "time": 29, "note": 64, "velocity": 102, "channel": 0}, {"type": "note_off", "time": 44, "note": 64, "velocity": 102, "channel": 0}, {"type": "note_on", "time": 6, "note": 66, "velocity": 103, "channel": 0}, {"type": "note_off", "time": 95, "note": 66, "velocity": 103, "channel": 0}, {"type": "note_on", "time": 17, "note": 69, "velocity": 99, "channel": 0}, {"type": "note_off", "time": 53, "note": 69, "velocity": 99, "channel": 0}, {"type": "note_on", "time": 7, "note": 68, "velocity": 106, "channel": 0}, {"type": "note_off", "time": 82, "note": 68, "velocity": 106, "channel": 0}, {"type": "note_on", "time": 9, "note": 66, "velocity": 98, "channel": 0}, {"type": "note_off", "time": 108, "note": 66, "velocity": 98, "channel": 0}, {"type": "note_on", "time": 4, "note": 65, "velocity": 111, "channel": 0}, {"type": "note_off", "time": 92, "note": 65, "velocity": 111, "channel": 0}, {"type": "note_on", "time": 8, "note": 63, "velocity": 114, "channel": 0}, {"type": "note_off", "time": 113, "note": 63, "velocity": 114, "channel": 0}, {"type": "note_on", "time": 1, "note": 60, "velocity": 105, "channel": 0}, {"type": "note_off", "time": 84, "note": 60, "velocity": 105, "channel": 0}, {"type": "note_on", "time": 4, "note": 61, "velocity": 109, "channel": 0}, {"type": "note_off", "time": 70, "note": 61, "velocity": 109, "channel": 0}, {"type": "note_on", "time": 0, "note": 63, "velocity": 115, "channel": 0}, {"type": "note_off", "time": 101, "note": 63, "velocity": 115, "channel": 0}, {"type": "note_on", "time": 16, "note": 65, "velocity": 112, "channel": 0}, {"type": "note_off", "time": 92, "note": 65, "velocity": 112, "channel": 0}, {"type": "note_on", "time": 4, "note": 68, "velocity": 99, "channel": 0}, {"type": "note_off", "time": 140, "note": 68, "velocity": 99, "channel": 0}, {"type": "note_on", "time": 5, "note": 71, "velocity": 92, "channel": 0}, {"type": "note_off", "time": 45, "note": 71, "velocity": 92, "channel": 0}, {"type": "note_on", "time": 8, "note": 72, "velocity": 109, "channel": 0}, {"type": "note_off", "time": 68, "note": 72, "velocity": 109, "channel": 0}, {"type": "note_on", "time": 6, "note": 71, "velocity": 112, "channel": 0}, {"type": "note_off", "time": 115, "note": 71, "velocity": 112, "channel": 0}, {"type": "note_on", "time": 14, "note": 70, "velocity": 101, "channel": 0}, {"type": "note_off", "time": 74, "note": 70, "velocity": 101, "channel": 0}, {"type": "note_on", "time": 5, "note": 68, "velocity": 109, "channel": 0}, {"type": "note_off", "time": 90, "note": 68, "velocity": 109, "channel": 0}, {"type": "note_on", "time": 15, "note": 67, "velocity": 105, "channel": 0}, {"type": "note_off", "time": 100, "note": 67, "velocity": 105, "channel": 0}, {"type": "note_on", "time": 7, "note": 66, "velocity": 112, "channel": 0}, {"type": "note_off", "time": 104, "note": 66, "velocity": 112, "channel": 0}, {"type": "note_on", "time": 3, "note": 65, "velocity": 111, "channel": 0}, {"type": "note_off", "time": 72, "note": 65, "velocity": 111, "channel": 0}, {"type": "note_on", "time": 6, "note": 64, "velocity": 111, "channel": 0}, {"type": "note_off", "time": 93, "note": 64, "velocity": 111, "channel": 0}, {"type": "note_on", "time": 4, "note": 63, "velocity": 110, "channel": 0}, {"type": "note_off", "time": 78, "note": 63, "velocity": 110, "channel": 0}, {"type": "note_on", "time": 4, "note": 62, "velocity": 115, "channel": 0}, {"type": "note_off", "time": 119, "note": 62, "velocity": 115, "channel": 0}, {"type": "note_on", "time": 2, "note": 61, "velocity": 103, "channel": 0}, {"type": "note_off", "time": 78, "note": 61, "velocity": 103, "channel": 0}, {"type": "note_on", "time": 33, "note": 63, "velocity": 106, "channel": 0}, {"type": "note_off", "time": 68, "note": 63, "velocity": 106, "channel": 0}, {"type": "note_on", "time": 7, "note": 65, "velocity": 108, "channel": 0}, {"type": "note_off", "time": 96, "note": 65, "velocity": 108, "channel": 0}, {"type": "note_on", "time": 9, "note": 61, "velocity": 109, "channel": 0}, {"type": "note_off", "time": 89, "note": 61, "velocity": 109, "channel": 0}, {"type": "note_on", "time": 0, "note": 60, "velocity": 111, "channel": 0}, {"type": "note_off", "time": 62, "note": 60, "velocity": 111, "channel": 0}, {"type": "note_on", "time": 24, "note": 58, "velocity": 95, "channel": 0}, {"type": "note_off", "time": 108, "note": 58, "velocity": 95, "channel": 0}, {"type": "note_on", "time": 4, "note": 57, "velocity": 101, "channel": 0}, {"type": "note_off", "time": 100, "note": 57, "velocity": 101, "channel": 0}, {"type": "note_on", "time": 5, "note": 58, "velocity": 98, "channel": 0}, {"type": "note_off", "time": 61, "note": 58, "velocity": 98, "channel": 0}, {"type": "note_on", "time": 8, "note": 63, "velocity": 111, "channel": 0}, {"type": "note_off", "time": 85, "note": 63, "velocity": 111, "channel": 0}, {"type": "note_on", "time": 4, "note": 61, "velocity": 110, "channel": 0}, {"type": "note_off", "time": 79, "note": 61, "velocity": 110, "channel": 0}, {"type": "note_on", "time": 28, "note": 57, "velocity": 103, "channel": 0}, {"type": "note_off", "time": 92, "note": 57, "velocity": 103, "channel": 0}, {"type": "note_on", "time": 2, "note": 55, "velocity": 103, "channel": 0}, {"type": "note_off", "time": 68, "note": 55, "velocity": 103, "channel": 0}, {"type": "note_on", "time": 3, "note": 60, "velocity": 115, "channel": 0}, {"type": "note_off", "time": 110, "note": 60, "velocity": 115, "channel": 0}, {"type": "note_on", "time": 3, "note": 58, "velocity": 105, "channel": 0}, {"type": "note_off", "time": 81, "note": 58, "velocity": 105, "channel": 0}, {"type": "note_on", "time": 615, "note": 61, "velocity": 110, "channel": 0}, {"type": "note_off", "time": 77, "note": 61, "velocity": 110, "channel": 0}, {"type": "note_on", "time": 6, "note": 59, "velocity": 110, "channel": 0}, {"type": "note_off", "time": 86, "note": 59, "velocity": 110, "channel": 0}, {"type": "note_on", "time": 1, "note": 61, "velocity": 111, "channel": 0}, {"type": "note_off", "time": 104, "note": 61, "velocity": 111, "channel": 0}, {"type": "note_on", "time": 5, "note": 59, "velocity": 111, "channel": 0}, {"type": "note_off", "time": 86, "note": 59, "velocity": 111, "channel": 0}, {"type": "note_on", "time": 7, "note": 62, "velocity": 117, "channel": 0}, {"type": "note_off", "time": 76, "note": 62, "velocity": 117, "channel": 0}, {"type": "note_on", "time": 11, "note": 66, "velocity": 105, "channel": 0}, {"type": "note_off", "time": 92, "note": 66, "velocity": 105, "channel": 0}, {"type": "note_on", "time": 595, "note": 66, "velocity": 113, "channel": 0}, {"type": "note_off", "time": 89, "note": 66, "velocity": 113, "channel": 0}, {"type": "note_on", "time": 4, "note": 64, "velocity": 108, "channel": 0}, {"type": "note_off", "time": 82, "note": 64, "velocity": 108, "channel": 0}, {"type": "note_on", "time": 3, "note": 66, "velocity": 101, "channel": 0}, {"type": "note_off", "time": 101, "note": 66, "velocity": 101, "channel": 0}, {"type": "note_on", "time": 3, "note": 64, "velocity": 102, "channel": 0}, {"type": "note_off", "time": 64, "note": 64, "velocity": 102, "channel": 0}, {"type": "note_on", "time": 5, "note": 69, "velocity": 100, "channel": 0}, {"type": "note_off", "time": 80, "note": 69, "velocity": 100, "channel": 0}, {"type": "note_on", "time": 11, "note": 73, "velocity": 105, "channel": 0}, {"type": "note_off", "time": 91, "note": 73, "velocity": 105, "channel": 0}, {"type": "note_on", "time": 593, "note": 71, "velocity": 108, "channel": 0}, {"type": "note_off", "time": 82, "note": 71, "velocity": 108, "channel": 0}, {"type": "note_on", "time": 8, "note": 68, "velocity": 100, "channel": 0}, {"type": "note_off", "time": 85, "note": 68, "velocity": 100, "channel": 0}, {"type": "note_on", "time": 3, "note": 69, "velocity": 103, "channel": 0}, {"type": "note_off", "time": 109, "note": 69, "velocity": 103, "channel": 0}, {"type": "note_on", "time": 6, "note": 66, "velocity": 102, "channel": 0}, {"type": "note_off", "time": 62, "note": 66, "velocity": 102, "channel": 0}, {"type": "note_on", "time": 7, "note": 65, "velocity": 106, "channel": 0}, {"type": "note_off", "time": 71, "note": 65, "velocity": 106, "channel": 0}, {"type": "note_on", "time": 13, "note": 63, "velocity": 112, "channel": 0}, {"type": "note_off", "time": 104, "note": 63, "velocity": 112, "channel": 0}, {"type": "note_on", "time": 5, "note": 62, "velocity": 112, "channel": 0}, {"type": "note_off", "time": 68, "note": 62, "velocity": 112, "channel": 0}, {"type": "note_on", "time": 8, "note": 60, "velocity": 111, "channel": 0}, {"type": "note_off", "time": 102, "note": 60, "velocity": 111, "channel": 0}, {"type": "note_on", "time": 4, "note": 59, "velocity": 111, "channel": 0}, {"type": "note_off", "time": 75, "note": 59, "velocity": 111, "channel": 0}, {"type": "note_on", "time": 12, "note": 62, "velocity": 109, "channel": 0}, {"type": "note_off", "time": 76, "note": 62, "velocity": 109, "channel": 0}, {"type": "note_on", "time": 7, "note": 65, "velocity": 108, "channel": 0}, {"type": "note_off", "time": 98, "note": 65, "velocity": 108, "channel": 0}, {"type": "note_on", "time": 35, "note": 68, "velocity": 101, "channel": 0}, {"type": "note_off", "time": 62, "note": 68, "velocity": 101, "channel": 0}, {"type": "note_on", "time": 9, "note": 67, "velocity": 107, "channel": 0}, {"type": "note_off", "time": 109, "note": 67, "velocity": 107, "channel": 0}, {"type": "note_on", "time": 11, "note": 66, "velocity": 93, "channel": 0}, {"type": "note_off", "time": 83, "note": 66, "velocity": 93, "channel": 0}, {"type": "note_on", "time": 7, "note": 67, "velocity": 105, "channel": 0}, {"type": "note_off", "time": 67, "note": 67, "velocity": 105, "channel": 0}, {"type": "note_on", "time": 5, "note": 66, "velocity": 95, "channel": 0}, {"type": "note_off", "time": 83, "note": 66, "velocity": 95, "channel": 0}, {"type": "note_on", "time": 24, "note": 72, "velocity": 96, "channel": 0}, {"type": "note_off", "time": 52, "note": 72, "velocity": 96, "channel": 0}, {"type": "note_on", "time": 25, "note": 70, "velocity": 104, "channel": 0}, {"type": "note_off", "time": 72, "note": 70, "velocity": 104, "channel": 0}, {"type": "note_on", "time": 3, "note": 64, "velocity": 108, "channel": 0}, {"type": "note_off", "time": 89, "note": 64, "velocity": 108, "channel": 0}, {"type": "note_on", "time": 316, "note": 63, "velocity": 115, "channel": 0}, {"type": "note_off", "time": 112, "note": 63, "velocity": 115, "channel": 0}, {"type": "note_on", "time": 4, "note": 62, "velocity": 116, "channel": 0}, {"type": "note_off", "time": 67, "note": 62, "velocity": 116, "channel": 0}, {"type": "note_on", "time": 6, "note": 63, "velocity": 113, "channel": 0}, {"type": "note_off", "time": 114, "note": 63, "velocity": 113, "channel": 0}, {"type": "note_on", "time": 1, "note": 62, "velocity": 105, "channel": 0}, {"type": "note_off", "time": 69, "note": 62, "velocity": 105, "channel": 0}, {"type": "note_on", "time": 15, "note": 70, "velocity": 99, "channel": 0}, {"type": "note_off", "time": 153, "note": 70, "velocity": 99, "channel": 0}, {"type": "note_on", "time": 1568, "note": 63, "velocity": 114, "channel": 0}, {"type": "note_off", "time": 100, "note": 63, "velocity": 114, "channel": 0}, {"type": "note_on", "time": 5, "note": 62, "velocity": 110, "channel": 0}, {"type": "note_off", "time": 79, "note": 62, "velocity": 110, "channel": 0}, {"type": "note_on", "time": 7, "note": 63, "velocity": 114, "channel": 0}, {"type": "note_off", "time": 103, "note": 63, "velocity": 114, "channel": 0}, {"type": "note_on", "time": 11, "note": 62, "velocity": 103, "channel": 0}, {"type": "note_off", "time": 61, "note": 62, "velocity": 103, "channel": 0}, {"type": "note_on", "time": 5, "note": 70, "velocity": 95, "channel": 0}, {"type": "note_off", "time": 90, "note": 70, "velocity": 95, "channel": 0}, {"type": "note_on", "time": 21, "note": 62, "velocity": 108, "channel": 0}, {"type": "note_off", "time": 72, "note": 62, "velocity": 108, "channel": 0}, {"type": "note_on", "time": 10, "note": 63, "velocity": 111, "channel": 0}, {"type": "note_off", "time": 98, "note": 63, "velocity": 111, "channel": 0}, {"type": "note_on", "time": 15, "note": 62, "velocity": 107, "channel": 0}, {"type": "note_off", "time": 68, "note": 62, "velocity": 107, "channel": 0}, {"type": "note_on", "time": 5, "note": 63, "velocity": 114, "channel": 0}, {"type": "note_off", "time": 80, "note": 63, "velocity": 114, "channel": 0}, {"type": "note_on", "time": 11, "note": 62, "velocity": 105, "channel": 0}, {"type": "note_off", "time": 104, "note": 62, "velocity": 105, "channel": 0}, {"type": "note_on", "time": 1, "note": 63, "velocity": 110, "channel": 0}, {"type": "note_off", "time": 60, "note": 63, "velocity": 110, "channel": 0}, {"type": "note_on", "time": 8, "note": 62, "velocity": 108, "channel": 0}, {"type": "note_off", "time": 68, "note": 62, "velocity": 108, "channel": 0}, {"type": "note_on", "time": 67, "note": 70, "velocity": 101, "channel": 0}, {"type": "note_off", "time": 90, "note": 70, "velocity": 101, "channel": 0}, {"type": "note_on", "time": 12, "note": 62, "velocity": 109, "channel": 0}, {"type": "note_off", "time": 71, "note": 62, "velocity": 109, "channel": 0}, {"type": "note_on", "time": 2, "note": 63, "velocity": 111, "channel": 0}, {"type": "note_off", "time": 109, "note": 63, "velocity": 111, "channel": 0}, {"type": "note_on", "time": 11, "note": 62, "velocity": 109, "channel": 0}, {"type": "note_off", "time": 81, "note": 62, "velocity": 109, "channel": 0}, {"type": "note_on", "time": 6, "note": 63, "velocity": 113, "channel": 0}, {"type": "note_off", "time": 81, "note": 63, "velocity": 113, "channel": 0}, {"type": "note_on", "time": 11, "note": 62, "velocity": 108, "channel": 0}, {"type": "note_off", "time": 60, "note": 62, "velocity": 108, "channel": 0}, {"type": "note_on", "time": 6, "note": 63, "velocity": 104, "channel": 0}, {"type": "note_off", "time": 91, "note": 63, "velocity": 104, "channel": 0}, {"type": "note_on", "time": 14, "note": 62, "velocity": 108, "channel": 0}, {"type": "note_off", "time": 97, "note": 62, "velocity": 108, "channel": 0}, {"type": "note_on", "time": 27, "note": 70, "velocity": 103, "channel": 0}, {"type": "note_off", "time": 81, "note": 70, "velocity": 103, "channel": 0}, {"type": "note_on", "time": 98, "note": 69, "velocity": 104, "channel": 0}, {"type": "note_off", "time": 83, "note": 69, "velocity": 104, "channel": 0}, {"type": "note_on", "time": 69, "note": 67, "velocity": 97, "channel": 0}, {"type": "note_off", "time": 32, "note": 67, "velocity": 97, "channel": 0}, {"type": "note_on", "time": 9, "note": 68, "velocity": 100, "channel": 0}, {"type": "note_off", "time": 84, "note": 68, "velocity": 100, "channel": 0}, {"type": "note_on", "time": 11, "note": 67, "velocity": 96, "channel": 0}, {"type": "note_off", "time": 101, "note": 67, "velocity": 96, "channel": 0}, {"type": "note_on", "time": 0, "note": 68, "velocity": 100, "channel": 0}, {"type": "note_off", "time": 99, "note": 68, "velocity": 100, "channel": 0}, {"type": "note_on", "time": 11, "note": 67, "velocity": 89, "channel": 0}, {"type": "note_off", "time": 62, "note": 67, "velocity": 89, "channel": 0}, {"type": "note_on", "time": 4, "note": 68, "velocity": 100, "channel": 0}, {"type": "note_off", "time": 92, "note": 68, "velocity": 100, "channel": 0}, {"type": "note_on", "time": 4, "note": 67, "velocity": 93, "channel": 0}, {"type": "note_off", "time": 88, "note": 67, "velocity": 93, "channel": 0}, {"type": "note_on", "time": 4, "note": 68, "velocity": 102, "channel": 0}, {"type": "note_off", "time": 104, "note": 68, "velocity": 102, "channel": 0}, {"type": "note_on", "time": 930, "note": 68, "velocity": 102, "channel": 0}, {"type": "note_off", "time": 46, "note": 68, "velocity": 102, "channel": 0}, {"type": "note_on", "time": 3, "note": 68, "velocity": 95, "channel": 0}, {"type": "note_off", "time": 90, "note": 68, "velocity": 95, "channel": 0}, {"type": "note_on", "time": 8, "note": 69, "velocity": 91, "channel": 0}, {"type": "note_off", "time": 79, "note": 69, "velocity": 91, "channel": 0}, {"type": "note_on", "time": 3, "note": 68, "velocity": 106, "channel": 0}, {"type": "note_off", "time": 73, "note": 68, "velocity": 106, "channel": 0}, {"type": "note_on", "time": 4, "note": 69, "velocity": 105, "channel": 0}, {"type": "note_off", "time": 28, "note": 69, "velocity": 105, "channel": 0}, {"type": "note_on", "time": 3, "note": 68, "velocity": 99, "channel": 0}, {"type": "note_off", "time": 70, "note": 68, "velocity": 99, "channel": 0}, {"type": "note_on", "time": 3, "note": 69, "velocity": 90, "channel": 0}, {"type": "note_off", "time": 81, "note": 69, "velocity": 90, "channel": 0}, {"type": "note_on", "time": 11, "note": 67, "velocity": 110, "channel": 0}, {"type": "note_off", "time": 93, "note": 67, "velocity": 110, "channel": 0}, {"type": "note_on", "time": 8, "note": 68, "velocity": 98, "channel": 0}, {"type": "note_off", "time": 58, "note": 68, "velocity": 98, "channel": 0}, {"type": "note_on", "time": 9, "note": 68, "velocity": 100, "channel": 0}, {"type": "note_off", "time": 54, "note": 68, "velocity": 100, "channel": 0}, {"type": "note_on", "time": 11, "note": 68, "velocity": 102, "channel": 0}, {"type": "note_off", "time": 124, "note": 68, "velocity": 102, "channel": 0}, {"type": "note_on", "time": 1, "note": 69, "velocity": 90, "channel": 0}, {"type": "note_off", "time": 104, "note": 69, "velocity": 90, "channel": 0}, {"type": "note_on", "time": 5, "note": 68, "velocity": 99, "channel": 0}, {"type": "note_off", "time": 38, "note": 68, "velocity": 99, "channel": 0}, {"type": "note_on", "time": 6, "note": 69, "velocity": 104, "channel": 0}, {"type": "note_off", "time": 47, "note": 69, "velocity": 104, "channel": 0}, {"type": "note_on", "time": 2, "note": 68, "velocity": 104, "channel": 0}, {"type": "note_off", "time": 77, "note": 68, "velocity": 104, "channel": 0}, {"type": "note_on", "time": 7, "note": 69, "velocity": 104, "channel": 0}, {"type": "note_off", "time": 48, "note": 69, "velocity": 104, "channel": 0}, {"type": "note_on", "time": 4, "note": 68, "velocity": 104, "channel": 0}, {"type": "note_off", "time": 49, "note": 68, "velocity": 104, "channel": 0}, {"type": "note_on", "time": 9, "note": 67, "velocity": 106, "channel": 0}, {"type": "note_off", "time": 46, "note": 67, "velocity": 106, "channel": 0}, {"type": "note_on", "time": 9, "note": 67, "velocity": 109, "channel": 0}, {"type": "note_off", "time": 46, "note": 67, "velocity": 109, "channel": 0}, {"type": "note_on", "time": 6, "note": 66, "velocity": 108, "channel": 0}, {"type": "note_off", "time": 64, "note": 66, "velocity": 108, "channel": 0}, {"type": "note_on", "time": 5, "note": 65, "velocity": 111, "channel": 0}, {"type": "note_off", "time": 91, "note": 65, "velocity": 111, "channel": 0}, {"type": "note_on", "time": 16, "note": 64, "velocity": 112, "channel": 0}, {"type": "note_off", "time": 83, "note": 64, "velocity": 112, "channel": 0}, {"type": "note_on", "time": 4, "note": 63, "velocity": 110, "channel": 0}, {"type": "note_off", "time": 90, "note": 63, "velocity": 110, "channel": 0}, {"type": "note_on", "time": 11, "note": 62, "velocity": 114, "channel": 0}, {"type": "note_off", "time": 95, "note": 62, "velocity": 114, "channel": 0}, {"type": "note_on", "time": 4, "note": 61, "velocity": 112, "channel": 0}, {"type": "note_off", "time": 78, "note": 61, "velocity": 112, "channel": 0}, {"type": "note_on", "time": 7, "note": 60, "velocity": 104, "channel": 0}, {"type": "note_off", "time": 56, "note": 60, "velocity": 104, "channel": 0}, {"type": "note_on", "time": 4, "note": 59, "velocity": 105, "channel": 0}, {"type": "note_off", "time": 74, "note": 59, "velocity": 105, "channel": 0}, {"type": "note_on", "time": 9, "note": 57, "velocity": 106, "channel": 0}, {"type": "note_off", "time": 62, "note": 57, "velocity": 106, "channel": 0}, {"type": "note_on", "time": 6, "note": 56, "velocity": 109, "channel": 0}, {"type": "note_off", "time": 141, "note": 56, "velocity": 109, "channel": 0}, {"type": "note_on", "time": 38, "note": 59, "velocity": 107, "channel": 0}, {"type": "note_off", "time": 64, "note": 59, "velocity": 107, "channel": 0}, {"type": "note_on", "time": 7, "note": 61, "velocity": 102, "channel": 0}, {"type": "note_off", "time": 84, "note": 61, "velocity": 102, "channel": 0}, {"type": "note_on", "time": 64, "note": 71, "velocity": 100, "channel": 0}, {"type": "note_off", "time": 36, "note": 71, "velocity": 100, "channel": 0}, {"type": "note_on", "time": 3, "note": 73, "velocity": 99, "channel": 0}, {"type": "note_off", "time": 60, "note": 73, "velocity": 99, "channel": 0}, {"type": "note_on", "time": 6, "note": 73, "velocity": 99, "channel": 0}, {"type": "note_off", "time": 34, "note": 73, "velocity": 99, "channel": 0}, {"type": "note_on", "time": 3, "note": 74, "velocity": 87, "channel": 0}, {"type": "note_off", "time": 25, "note": 74, "velocity": 87, "channel": 0}, {"type": "note_on", "time": 3, "note": 73, "velocity": 87, "channel": 0}, {"type": "note_off", "time": 86, "note": 73, "velocity": 87, "channel": 0}, {"type": "note_on", "time": 21, "note": 73, "velocity": 89, "channel": 0}, {"type": "note_off", "time": 47, "note": 73, "velocity": 89, "channel": 0}, {"type": "note_on", "time": 2, "note": 73, "velocity": 102, "channel": 0}, {"type": "note_off", "time": 25, "note": 73, "velocity": 102, "channel": 0}, {"type": "note_on", "time": 4, "note": 74, "velocity": 101, "channel": 0}, {"type": "note_off", "time": 25, "note": 74, "velocity": 101, "channel": 0}, {"type": "note_on", "time": 4, "note": 73, "velocity": 101, "channel": 0}, {"type": "note_off", "time": 31, "note": 73, "velocity": 101, "channel": 0}, {"type": "note_on", "time": 1, "note": 74, "velocity": 93, "channel": 0}, {"type": "note_off", "time": 46, "note": 74, "velocity": 93, "channel": 0}, {"type": "note_on", "time": 3, "note": 73, "velocity": 89, "channel": 0}, {"type": "note_off", "time": 59, "note": 73, "velocity": 89, "channel": 0}, {"type": "note_on", "time": 6, "note": 74, "velocity": 94, "channel": 0}, {"type": "note_off", "time": 41, "note": 74, "velocity": 94, "channel": 0}, {"type": "note_on", "time": 4, "note": 73, "velocity": 90, "channel": 0}, {"type": "note_off", "time": 41, "note": 73, "velocity": 90, "channel": 0}, {"type": "note_on", "time": 2, "note": 74, "velocity": 99, "channel": 0}, {"type": "note_off", "time": 55, "note": 74, "velocity": 99, "channel": 0}, {"type": "note_on", "time": 5, "note": 73, "velocity": 89, "channel": 0}, {"type": "note_off", "time": 49, "note": 73, "velocity": 89, "channel": 0}, {"type": "note_on", "time": 1213, "note": 74, "velocity": 98, "channel": 0}, {"type": "note_off", "time": 103, "note": 74, "velocity": 98, "channel": 0}, {"type": "note_on", "time": 68, "note": 71, "velocity": 110, "channel": 0}, {"type": "note_off", "time": 100, "note": 71, "velocity": 110, "channel": 0}, {"type": "note_on", "time": 27, "note": 67, "velocity": 103, "channel": 0}, {"type": "note_off", "time": 65, "note": 67, "velocity": 103, "channel": 0}, {"type": "note_on", "time": 37, "note": 65, "velocity": 115, "channel": 0}, {"type": "note_off", "time": 68, "note": 65, "velocity": 115, "channel": 0}, {"type": "note_on", "time": 30, "note": 69, "velocity": 110, "channel": 0}, {"type": "note_off", "time": 81, "note": 69, "velocity": 110, "channel": 0}, {"type": "note_on", "time": 119, "note": 67, "velocity": 113, "channel": 0}, {"type": "note_off", "time": 74, "note": 67, "velocity": 113, "channel": 0}, {"type": "note_on", "time": 112, "note": 64, "velocity": 103, "channel": 0}, {"type": "note_off", "time": 90, "note": 64, "velocity": 103, "channel": 0}, {"type": "note_on", "time": 117, "note": 60, "velocity": 110, "channel": 0}, {"type": "note_off", "time": 82, "note": 60, "velocity": 110, "channel": 0}, {"type": "note_on", "time": 92, "note": 64, "velocity": 109, "channel": 0}, {"type": "note_off", "time": 70, "note": 64, "velocity": 109, "channel": 0}, {"type": "note_on", "time": 102, "note": 67, "velocity": 106, "channel": 0}, {"type": "note_off", "time": 81, "note": 67, "velocity": 106, "channel": 0}, {"type": "note_on", "time": 38, "note": 68, "velocity": 106, "channel": 0}, {"type": "note_off", "time": 124, "note": 68, "velocity": 106, "channel": 0}, {"type": "note_on", "time": 4, "note": 65, "velocity": 110, "channel": 0}, {"type": "note_off", "time": 85, "note": 65, "velocity": 110, "channel": 0}, {"type": "note_on", "time": 91, "note": 66, "velocity": 102, "channel": 0}, {"type": "note_off", "time": 91, "note": 66, "velocity": 102, "channel": 0}, {"type": "note_on", "time": 85, "note": 70, "velocity": 112, "channel": 0}, {"type": "note_off", "time": 97, "note": 70, "velocity": 112, "channel": 0}, {"type": "note_on", "time": 82, "note": 67, "velocity": 87, "channel": 0}, {"type": "note_off", "time": 46, "note": 67, "velocity": 87, "channel": 0}, {"type": "note_on", "time": 59, "note": 68, "velocity": 102, "channel": 0}, {"type": "note_off", "time": 76, "note": 68, "velocity": 102, "channel": 0}, {"type": "note_on", "time": 123, "note": 70, "velocity": 96, "channel": 0}, {"type": "note_off", "time": 76, "note": 70, "velocity": 96, "channel": 0}, {"type": "note_on", "time": 96, "note": 69, "velocity": 102, "channel": 0}, {"type": "note_off", "time": 56, "note": 69, "velocity": 102, "channel": 0}, {"type": "note_on", "time": 16, "note": 71, "velocity": 107, "channel": 0}, {"type": "note_off", "time": 103, "note": 71, "velocity": 107, "channel": 0}, {"type": "note_on", "time": 5, "note": 73, "velocity": 96, "channel": 0}, {"type": "note_off", "time": 75, "note": 73, "velocity": 96, "channel": 0}, {"type": "note_on", "time": 141, "note": 70, "velocity": 108, "channel": 0}, {"type": "note_off", "time": 94, "note": 70, "velocity": 108, "channel": 0}, {"type": "note_on", "time": 87, "note": 49, "velocity": 106, "channel": 0}, {"type": "note_off", "time": 201, "note": 49, "velocity": 106, "channel": 0}, {"type": "note_on", "time": 7, "note": 54, "velocity": 101, "channel": 0}, {"type": "note_off", "time": 612, "note": 54, "velocity": 101, "channel": 0}, {"type": "note_on", "time": 2, "note": 53, "velocity": 107, "channel": 0}, {"type": "note_off", "time": 71, "note": 53, "velocity": 107, "channel": 0}, {"type": "note_on", "time": 4, "note": 51, "velocity": 106, "channel": 0}, {"type": "note_off", "time": 85, "note": 51, "velocity": 106, "channel": 0}, {"type": "note_on", "time": 4, "note": 50, "velocity": 104, "channel": 0}, {"type": "note_off", "time": 91, "note": 50, "velocity": 104, "channel": 0}, {"type": "note_on", "time": 8, "note": 51, "velocity": 102, "channel": 0}, {"type": "note_off", "time": 70, "note": 51, "velocity": 102, "channel": 0}, {"type": "note_on", "time": 4, "note": 53, "velocity": 110, "channel": 0}, {"type": "note_off", "time": 102, "note": 53, "velocity": 110, "channel": 0}, {"type": "note_on", "time": 4, "note": 54, "velocity": 107, "channel": 0}, {"type": "note_off", "time": 102, "note": 54, "velocity": 107, "channel": 0}, {"type": "note_on", "time": 7, "note": 51, "velocity": 109, "channel": 0}, {"type": "note_off", "time": 89, "note": 51, "velocity": 109, "channel": 0}, {"type": "note_on", "time": 16, "note": 44, "velocity": 116, "channel": 0}, {"type": "note_off", "time": 116, "note": 44, "velocity": 116, "channel": 0}, {"type": "note_on", "time": 739, "note": 57, "velocity": 113, "channel": 0}, {"type": "note_off", "time": 71, "note": 57, "velocity": 113, "channel": 0}, {"type": "note_on", "time": 11, "note": 56, "velocity": 114, "channel": 0}, {"type": "note_off", "time": 70, "note": 56, "velocity": 114, "channel": 0}, {"type": "note_on", "time": 16, "note": 54, "velocity": 115, "channel": 0}, {"type": "note_off", "time": 98, "note": 54, "velocity": 115, "channel": 0}, {"type": "note_on", "time": 0, "note": 56, "velocity": 116, "channel": 0}, {"type": "note_off", "time": 103, "note": 56, "velocity": 116, "channel": 0}, {"type": "note_on", "time": 5, "note": 57, "velocity": 113, "channel": 0}, {"type": "note_on", "time": 70, "note": 59, "velocity": 106, "channel": 0}, {"type": "note_off", "time": 0, "note": 57, "velocity": 113, "channel": 0}, {"type": "note_off", "time": 90, "note": 59, "velocity": 106, "channel": 0}, {"type": "note_on", "time": 6, "note": 56, "velocity": 112, "channel": 0}, {"type": "note_off", "time": 46, "note": 56, "velocity": 112, "channel": 0}, {"type": "note_on", "time": 8, "note": 57, "velocity": 112, "channel": 0}, {"type": "note_off", "time": 59, "note": 57, "velocity": 112, "channel": 0}, {"type": "note_on", "time": 6, "note": 56, "velocity": 115, "channel": 0}, {"type": "note_off", "time": 78, "note": 56, "velocity": 115, "channel": 0}, {"type": "note_on", "time": 9, "note": 54, "velocity": 112, "channel": 0}, {"type": "note_off", "time": 122, "note": 54, "velocity": 112, "channel": 0}, {"type": "note_on", "time": 1, "note": 52, "velocity": 113, "channel": 0}, {"type": "note_off", "time": 60, "note": 52, "velocity": 113, "channel": 0}, {"type": "note_on", "time": 3, "note": 53, "velocity": 113, "channel": 0}, {"type": "note_off", "time": 80, "note": 53, "velocity": 113, "channel": 0}, {"type": "note_on", "time": 6, "note": 52, "velocity": 121, "channel": 0}, {"type": "note_off", "time": 72, "note": 52, "velocity": 121, "channel": 0}, {"type": "note_on", "time": 3, "note": 51, "velocity": 125, "channel": 0}, {"type": "note_off", "time": 63, "note": 51, "velocity": 125, "channel": 0}, {"type": "note_on", "time": 9, "note": 50, "velocity": 119, "channel": 0}, {"type": "note_off", "time": 129, "note": 50, "velocity": 119, "channel": 0}, {"type": "note_on", "time": 8, "note": 49, "velocity": 110, "channel": 0}, {"type": "note_off", "time": 101, "note": 49, "velocity": 110, "channel": 0}, {"type": "note_on", "time": 1, "note": 51, "velocity": 109, "channel": 0}, {"type": "note_off", "time": 62, "note": 51, "velocity": 109, "channel": 0}, {"type": "note_on", "time": 8, "note": 53, "velocity": 112, "channel": 0}, {"type": "note_off", "time": 80, "note": 53, "velocity": 112, "channel": 0}, {"type": "note_on", "time": 13, "note": 55, "velocity": 106, "channel": 0}, {"type": "note_off", "time": 79, "note": 55, "velocity": 106, "channel": 0}, {"type": "note_on", "time": 9, "note": 56, "velocity": 105, "channel": 0}, {"type": "note_off", "time": 71, "note": 56, "velocity": 105, "channel": 0}, {"type": "note_on", "time": 17, "note": 57, "velocity": 110, "channel": 0}, {"type": "note_off", "time": 88, "note": 57, "velocity": 110, "channel": 0}, {"type": "note_on", "time": 15, "note": 60, "velocity": 116, "channel": 0}, {"type": "note_off", "time": 84, "note": 60, "velocity": 116, "channel": 0}, {"type": "note_on", "time": 3, "note": 61, "velocity": 109, "channel": 0}, {"type": "note_off", "time": 89, "note": 61, "velocity": 109, "channel": 0}, {"type": "note_on", "time": 10, "note": 58, "velocity": 102, "channel": 0}, {"type": "note_off", "time": 105, "note": 58, "velocity": 102, "channel": 0}, {"type": "note_on", "time": 8, "note": 52, "velocity": 105, "channel": 0}, {"type": "note_off", "time": 82, "note": 52, "velocity": 105, "channel": 0}, {"type": "note_on", "time": 5, "note": 53, "velocity": 105, "channel": 0}, {"type": "note_off", "time": 79, "note": 53, "velocity": 105, "channel": 0}, {"type": "note_on", "time": 12, "note": 56, "velocity": 110, "channel": 0}, {"type": "note_off", "time": 90, "note": 56, "velocity": 110, "channel": 0}, {"type": "note_on", "time": 3, "note": 55, "velocity": 109, "channel": 0}, {"type": "note_off", "time": 80, "note": 55, "velocity": 109, "channel": 0}, {"type": "note_on", "time": 15, "note": 51, "velocity": 106, "channel": 0}, {"type": "note_off", "time": 102, "note": 51, "velocity": 106, "channel": 0}, {"type": "note_on", "time": 611, "note": 51, "velocity": 113, "channel": 0}, {"type": "note_off", "time": 101, "note": 51, "velocity": 113, "channel": 0}, {"type": "note_on", "time": 12, "note": 45, "velocity": 122, "channel": 0}, {"type": "note_off", "time": 82, "note": 45, "velocity": 122, "channel": 0}, {"type": "note_on", "time": 14, "note": 51, "velocity": 111, "channel": 0}, {"type": "note_off", "time": 57, "note": 51, "velocity": 111, "channel": 0}, {"type": "note_on", "time": 11, "note": 56, "velocity": 111, "channel": 0}, {"type": "note_off", "time": 100, "note": 56, "velocity": 111, "channel": 0}, {"type": "note_on", "time": 1, "note": 55, "velocity": 109, "channel": 0}, {"type": "note_off", "time": 74, "note": 55, "velocity": 109, "channel": 0}, {"type": "note_on", "time": 12, "note": 53, "velocity": 114, "channel": 0}, {"type": "note_off", "time": 71, "note": 53, "velocity": 114, "channel": 0}, {"type": "note_on", "time": 8, "note": 54, "velocity": 109, "channel": 0}, {"type": "note_off", "time": 97, "note": 54, "velocity": 109, "channel": 0}, {"type": "note_on", "time": 10, "note": 49, "velocity": 106, "channel": 0}, {"type": "note_off", "time": 92, "note": 49, "velocity": 106, "channel": 0}, {"type": "note_on", "time": 3, "note": 50, "velocity": 111, "channel": 0}, {"type": "note_off", "time": 67, "note": 50, "velocity": 111, "channel": 0}, {"type": "note_on", "time": 20, "note": 59, "velocity": 111, "channel": 0}, {"type": "note_off", "time": 86, "note": 59, "velocity": 111, "channel": 0}, {"type": "note_on", "time": 11, "note": 58, "velocity": 103, "channel": 0}, {"type": "note_off", "time": 97, "note": 58, "velocity": 103, "channel": 0}, {"type": "note_on", "time": 10, "note": 56, "velocity": 113, "channel": 0}, {"type": "note_off", "time": 82, "note": 56, "velocity": 113, "channel": 0}, {"type": "note_on", "time": 7, "note": 57, "velocity": 114, "channel": 0}, {"type": "note_off", "time": 69, "note": 57, "velocity": 114, "channel": 0}, {"type": "note_on", "time": 14, "note": 53, "velocity": 111, "channel": 0}, {"type": "note_off", "time": 98, "note": 53, "velocity": 111, "channel": 0}, {"type": "note_on", "time": 3, "note": 54, "velocity": 110, "channel": 0}, {"type": "note_off", "time": 68, "note": 54, "velocity": 110, "channel": 0}, {"type": "note_on", "time": 25, "note": 58, "velocity": 101, "channel": 0}, {"type": "note_off", "time": 88, "note": 58, "velocity": 101, "channel": 0}, {"type": "note_on", "time": 10, "note": 56, "velocity": 112, "channel": 0}, {"type": "note_off", "time": 76, "note": 56, "velocity": 112, "channel": 0}, {"type": "note_on", "time": 3, "note": 57, "velocity": 107, "channel": 0}, {"type": "note_off", "time": 78, "note": 57, "velocity": 107, "channel": 0}, {"type": "note_on", "time": 23, "note": 61, "velocity": 106, "channel": 0}, {"type": "note_off", "time": 98, "note": 61, "velocity": 106, "channel": 0}, {"type": "note_on", "time": 5, "note": 58, "velocity": 104, "channel": 0}, {"type": "note_off", "time": 96, "note": 58, "velocity": 104, "channel": 0}, {"type": "note_on", "time": 9, "note": 59, "velocity": 109, "channel": 0}, {"type": "note_off", "time": 71, "note": 59, "velocity": 109, "channel": 0}, {"type": "note_on", "time": 19, "note": 63, "velocity": 111, "channel": 0}, {"type": "note_off", "time": 90, "note": 63, "velocity": 111, "channel": 0}, {"type": "note_on", "time": 13, "note": 58, "velocity": 109, "channel": 0}, {"type": "note_off", "time": 70, "note": 58, "velocity": 109, "channel": 0}, {"type": "note_on", "time": 11, "note": 62, "velocity": 111, "channel": 0}, {"type": "note_off", "time": 74, "note": 62, "velocity": 111, "channel": 0}, {"type": "note_on", "time": 14, "note": 59, "velocity": 108, "channel": 0}, {"type": "note_off", "time": 96, "note": 59, "velocity": 108, "channel": 0}, {"type": "note_on", "time": 4, "note": 60, "velocity": 113, "channel": 0}, {"type": "note_off", "time": 92, "note": 60, "velocity": 113, "channel": 0}, {"type": "note_on", "time": 5, "note": 61, "velocity": 108, "channel": 0}, {"type": "note_off", "time": 79, "note": 61, "velocity": 108, "channel": 0}, {"type": "note_on", "time": 19, "note": 64, "velocity": 102, "channel": 0}, {"type": "note_off", "time": 73, "note": 64, "velocity": 102, "channel": 0}, {"type": "note_on", "time": 21, "note": 68, "velocity": 104, "channel": 0}, {"type": "note_off", "time": 88, "note": 68, "velocity": 104, "channel": 0}, {"type": "note_on", "time": 39, "note": 65, "velocity": 101, "channel": 0}, {"type": "note_off", "time": 45, "note": 65, "velocity": 101, "channel": 0}, {"type": "note_on", "time": 1, "note": 66, "velocity": 95, "channel": 0}, {"type": "note_off", "time": 57, "note": 66, "velocity": 95, "channel": 0}, {"type": "note_on", "time": 52, "note": 70, "velocity": 102, "channel": 0}, {"type": "note_off", "time": 74, "note": 70, "velocity": 102, "channel": 0}, {"type": "note_on", "time": 45, "note": 68, "velocity": 88, "channel": 0}, {"type": "note_off", "time": 78, "note": 68, "velocity": 88, "channel": 0}, {"type": "note_on", "time": 19, "note": 71, "velocity": 108, "channel": 0}, {"type": "note_off", "time": 76, "note": 71, "velocity": 108, "channel": 0}, {"type": "note_on", "time": 14, "note": 70, "velocity": 95, "channel": 0}, {"type": "note_off", "time": 28, "note": 70, "velocity": 95, "channel": 0}, {"type": "note_on", "time": 6, "note": 68, "velocity": 89, "channel": 0}, {"type": "note_off", "time": 81, "note": 68, "velocity": 89, "channel": 0}, {"type": "note_on", "time": 64, "note": 72, "velocity": 109, "channel": 0}, {"type": "note_off", "time": 78, "note": 72, "velocity": 109, "channel": 0}, {"type": "note_on", "time": 3, "note": 74, "velocity": 97, "channel": 0}, {"type": "note_off", "time": 67, "note": 74, "velocity": 97, "channel": 0}, {"type": "note_on", "time": 24, "note": 71, "velocity": 107, "channel": 0}, {"type": "note_off", "time": 97, "note": 71, "velocity": 107, "channel": 0}, {"type": "note_on", "time": 8, "note": 70, "velocity": 90, "channel": 0}, {"type": "note_off", "time": 65, "note": 70, "velocity": 90, "channel": 0}, {"type": "note_on", "time": 11, "note": 71, "velocity": 106, "channel": 0}, {"type": "note_off", "time": 109, "note": 71, "velocity": 106, "channel": 0}, {"type": "note_on", "time": 653, "note": 74, "velocity": 108, "channel": 0}, {"type": "note_off", "time": 83, "note": 74, "velocity": 108, "channel": 0}, {"type": "note_on", "time": 3, "note": 75, "velocity": 107, "channel": 0}, {"type": "note_off", "time": 81, "note": 75, "velocity": 107, "channel": 0}, {"type": "note_on", "time": 7, "note": 75, "velocity": 96, "channel": 0}, {"type": "note_off", "time": 60, "note": 75, "velocity": 96, "channel": 0}, {"type": "note_on", "time": 4, "note": 74, "velocity": 97, "channel": 0}, {"type": "note_off", "time": 64, "note": 74, "velocity": 97, "channel": 0}, {"type": "note_on", "time": 5, "note": 73, "velocity": 101, "channel": 0}, {"type": "note_off", "time": 65, "note": 73, "velocity": 101, "channel": 0}, {"type": "note_on", "time": 3, "note": 72, "velocity": 103, "channel": 0}, {"type": "note_off", "time": 74, "note": 72, "velocity": 103, "channel": 0}, {"type": "note_on", "time": 72, "note": 66, "velocity": 104, "channel": 0}, {"type": "note_off", "time": 74, "note": 66, "velocity": 104, "channel": 0}, {"type": "note_on", "time": 12, "note": 70, "velocity": 103, "channel": 0}, {"type": "note_off", "time": 97, "note": 70, "velocity": 103, "channel": 0}, {"type": "note_on", "time": 6, "note": 71, "velocity": 112, "channel": 0}, {"type": "note_off", "time": 92, "note": 71, "velocity": 112, "channel": 0}, {"type": "note_on", "time": 4, "note": 70, "velocity": 101, "channel": 0}, {"type": "note_off", "time": 47, "note": 70, "velocity": 101, "channel": 0}, {"type": "note_on", "time": 5, "note": 71, "velocity": 101, "channel": 0}, {"type": "note_off", "time": 57, "note": 71, "velocity": 101, "channel": 0}, {"type": "note_on", "time": 5, "note": 69, "velocity": 105, "channel": 0}, {"type": "note_off", "time": 68, "note": 69, "velocity": 105, "channel": 0}, {"type": "note_on", "time": 2, "note": 68, "velocity": 98, "channel": 0}, {"type": "note_off", "time": 81, "note": 68, "velocity": 98, "channel": 0}, {"type": "note_on", "time": 107, "note": 70, "velocity": 98, "channel": 0}, {"type": "note_off", "time": 104, "note": 70, "velocity": 98, "channel": 0}, {"type": "note_on", "time": 23, "note": 67, "velocity": 95, "channel": 0}, {"type": "note_off", "time": 76, "note": 67, "velocity": 95, "channel": 0}, {"type": "note_on", "time": 5, "note": 68, "velocity": 93, "channel": 0}, {"type": "note_off", "time": 78, "note": 68, "velocity": 93, "channel": 0}, {"type": "note_on", "time": 8, "note": 69, "velocity": 106, "channel": 0}, {"type": "note_off", "time": 76, "note": 69, "velocity": 106, "channel": 0}, {"type": "note_on", "time": 137, "note": 61, "velocity": 101, "channel": 0}, {"type": "note_off", "time": 35, "note": 61, "velocity": 101, "channel": 0}, {"type": "note_on", "time": 35, "note": 67, "velocity": 109, "channel": 0}, {"type": "note_off", "time": 55, "note": 67, "velocity": 109, "channel": 0}, {"type": "note_on", "time": 7, "note": 68, "velocity": 105, "channel": 0}, {"type": "note_off", "time": 53, "note": 68, "velocity": 105, "channel": 0}, {"type": "note_on", "time": 6, "note": 68, "velocity": 103, "channel": 0}, {"type": "note_off", "time": 75, "note": 68, "velocity": 103, "channel": 0}, {"type": "note_on", "time": 10, "note": 67, "velocity": 101, "channel": 0}, {"type": "note_off", "time": 80, "note": 67, "velocity": 101, "channel": 0}, {"type": "note_on", "time": 2, "note": 66, "velocity": 102, "channel": 0}, {"type": "note_off", "time": 71, "note": 66, "velocity": 102, "channel": 0}, {"type": "note_on", "time": 4, "note": 65, "velocity": 108, "channel": 0}, {"type": "note_off", "time": 83, "note": 65, "velocity": 108, "channel": 0}, {"type": "note_on", "time": 2, "note": 64, "velocity": 108, "channel": 0}, {"type": "note_off", "time": 118, "note": 64, "velocity": 108, "channel": 0}, {"type": "note_on", "time": 11, "note": 63, "velocity": 111, "channel": 0}, {"type": "note_off", "time": 66, "note": 63, "velocity": 111, "channel": 0}, {"type": "note_on", "time": 9, "note": 62, "velocity": 114, "channel": 0}, {"type": "note_off", "time": 108, "note": 62, "velocity": 114, "channel": 0}, {"type": "note_on", "time": 2, "note": 61, "velocity": 109, "channel": 0}, {"type": "note_off", "time": 83, "note": 61, "velocity": 109, "channel": 0}, {"type": "note_on", "time": 11, "note": 60, "velocity": 108, "channel": 0}, {"type": "note_off", "time": 88, "note": 60, "velocity": 108, "channel": 0}, {"type": "note_on", "time": 34, "note": 58, "velocity": 100, "channel": 0}, {"type": "note_off", "time": 64, "note": 58, "velocity": 100, "channel": 0}, {"type": "note_on", "time": 17, "note": 60, "velocity": 110, "channel": 0}, {"type": "note_off", "time": 74, "note": 60, "velocity": 110, "channel": 0}, {"type": "note_on", "time": 11, "note": 62, "velocity": 101, "channel": 0}, {"type": "note_off", "time": 40, "note": 62, "velocity": 101, "channel": 0}, {"type": "note_on", "time": 11, "note": 63, "velocity": 102, "channel": 0}, {"type": "note_off", "time": 39, "note": 63, "velocity": 102, "channel": 0}, {"type": "note_on", "time": 6, "note": 65, "velocity": 107, "channel": 0}, {"type": "note_off", "time": 72, "note": 65, "velocity": 107, "channel": 0}, {"type": "note_on", "time": 8, "note": 63, "velocity": 112, "channel": 0}, {"type": "note_off", "time": 119, "note": 63, "velocity": 112, "channel": 0}, {"type": "note_on", "time": 2, "note": 65, "velocity": 109, "channel": 0}, {"type": "note_off", "time": 117, "note": 65, "velocity": 109, "channel": 0}, {"type": "note_on", "time": 5, "note": 66, "velocity": 104, "channel": 0}, {"type": "note_off", "time": 85, "note": 66, "velocity": 104, "channel": 0}, {"type": "note_on", "time": 7, "note": 68, "velocity": 98, "channel": 0}, {"type": "note_off", "time": 48, "note": 68, "velocity": 98, "channel": 0}, {"type": "note_on", "time": 6, "note": 70, "velocity": 109, "channel": 0}, {"type": "note_off", "time": 80, "note": 70, "velocity": 109, "channel": 0}, {"type": "note_on", "time": 50, "note": 70, "velocity": 103, "channel": 0}, {"type": "note_off", "time": 46, "note": 70, "velocity": 103, "channel": 0}, {"type": "note_on", "time": 3, "note": 72, "velocity": 96, "channel": 0}, {"type": "note_off", "time": 94, "note": 72, "velocity": 96, "channel": 0}, {"type": "note_on", "time": 16, "note": 75, "velocity": 102, "channel": 0}, {"type": "note_off", "time": 116, "note": 75, "velocity": 102, "channel": 0}, {"type": "note_on", "time": 26, "note": 71, "velocity": 105, "channel": 0}, {"type": "note_off", "time": 74, "note": 71, "velocity": 105, "channel": 0}, {"type": "note_on", "time": 15, "note": 72, "velocity": 96, "channel": 0}, {"type": "note_off", "time": 104, "note": 72, "velocity": 96, "channel": 0}, {"type": "note_on", "time": 352, "note": 68, "velocity": 112, "channel": 0}, {"type": "note_off", "time": 70, "note": 68, "velocity": 112, "channel": 0}, {"type": "note_on", "time": 124, "note": 81, "velocity": 101, "channel": 0}, {"type": "note_off", "time": 106, "note": 81, "velocity": 101, "channel": 0}, {"type": "note_on", "time": 84, "note": 78, "velocity": 98, "channel": 0}, {"type": "note_off", "time": 86, "note": 78, "velocity": 98, "channel": 0}, {"type": "note_on", "time": 2, "note": 76, "velocity": 94, "channel": 0}, {"type": "note_off", "time": 72, "note": 76, "velocity": 94, "channel": 0}, {"type": "note_on", "time": 4, "note": 77, "velocity": 96, "channel": 0}, {"type": "note_off", "time": 113, "note": 77, "velocity": 96, "channel": 0}, {"type": "note_on", "time": 45, "note": 68, "velocity": 105, "channel": 0}, {"type": "note_off", "time": 53, "note": 68, "velocity": 105, "channel": 0}, {"type": "note_on", "time": 4, "note": 70, "velocity": 103, "channel": 0}, {"type": "note_off", "time": 56, "note": 70, "velocity": 103, "channel": 0}, {"type": "note_on", "time": 3, "note": 73, "velocity": 99, "channel": 0}, {"type": "note_off", "time": 417, "note": 73, "velocity": 99, "channel": 0}, {"type": "note_on", "time": 15, "note": 70, "velocity": 92, "channel": 0}, {"type": "note_off", "time": 48, "note": 70, "velocity": 92, "channel": 0}, {"type": "note_on", "time": 16, "note": 75, "velocity": 105, "channel": 0}, {"type": "note_off", "time": 271, "note": 75, "velocity": 105, "channel": 0}, {"type": "note_on", "time": 14, "note": 73, "velocity": 107, "channel": 0}, {"type": "note_off", "time": 77, "note": 73, "velocity": 107, "channel": 0}, {"type": "note_on", "time": 6, "note": 75, "velocity": 106, "channel": 0}, {"type": "note_off", "time": 230, "note": 75, "velocity": 106, "channel": 0}, {"type": "note_on", "time": 12, "note": 77, "velocity": 104, "channel": 0}, {"type": "note_off", "time": 185, "note": 77, "velocity": 104, "channel": 0}, {"type": "note_on", "time": 764, "note": 76, "velocity": 105, "channel": 0}, {"type": "note_off", "time": 82, "note": 76, "velocity": 105, "channel": 0}, {"type": "note_on", "time": 9, "note": 76, "velocity": 100, "channel": 0}, {"type": "note_off", "time": 90, "note": 76, "velocity": 100, "channel": 0}, {"type": "note_on", "time": 4, "note": 77, "velocity": 108, "channel": 0}, {"type": "note_off", "time": 74, "note": 77, "velocity": 108, "channel": 0}, {"type": "note_on", "time": 12, "note": 78, "velocity": 105, "channel": 0}, {"type": "note_off", "time": 57, "note": 78, "velocity": 105, "channel": 0}, {"type": "note_on", "time": 15, "note": 79, "velocity": 98, "channel": 0}, {"type": "note_off", "time": 143, "note": 79, "velocity": 98, "channel": 0}, {"type": "note_on", "time": 5, "note": 78, "velocity": 100, "channel": 0}, {"type": "note_off", "time": 67, "note": 78, "velocity": 100, "channel": 0}, {"type": "note_on", "time": 5, "note": 79, "velocity": 100, "channel": 0}, {"type": "note_off", "time": 102, "note": 79, "velocity": 100, "channel": 0}, {"type": "note_on", "time": 2, "note": 82, "velocity": 100, "channel": 0}, {"type": "note_off", "time": 87, "note": 82, "velocity": 100, "channel": 0}, {"type": "note_on", "time": 2, "note": 84, "velocity": 97, "channel": 0}, {"type": "note_off", "time": 97, "note": 84, "velocity": 97, "channel": 0}, {"type": "note_on", "time": 7, "note": 82, "velocity": 99, "channel": 0}, {"type": "note_off", "time": 74, "note": 82, "velocity": 99, "channel": 0}, {"type": "note_on", "time": 8, "note": 80, "velocity": 103, "channel": 0}, {"type": "note_off", "time": 114, "note": 80, "velocity": 103, "channel": 0}, {"type": "note_on", "time": 8, "note": 78, "velocity": 98, "channel": 0}, {"type": "note_off", "time": 124, "note": 78, "velocity": 98, "channel": 0}, {"type": "note_on", "time": 2, "note": 77, "velocity": 96, "channel": 0}, {"type": "note_off", "time": 114, "note": 77, "velocity": 96, "channel": 0}, {"type": "note_on", "time": 4, "note": 76, "velocity": 98, "channel": 0}, {"type": "note_off", "time": 77, "note": 76, "velocity": 98, "channel": 0}, {"type": "note_on", "time": 4, "note": 75, "velocity": 101, "channel": 0}, {"type": "note_off", "time": 53, "note": 75, "velocity": 101, "channel": 0}, {"type": "note_on", "time": 3, "note": 74, "velocity": 99, "channel": 0}, {"type": "note_off", "time": 110, "note": 74, "velocity": 99, "channel": 0}, {"type": "note_on", "time": 10, "note": 73, "velocity": 100, "channel": 0}, {"type": "note_off", "time": 70, "note": 73, "velocity": 100, "channel": 0}, {"type": "note_on", "time": 7, "note": 74, "velocity": 94, "channel": 0}, {"type": "note_off", "time": 64, "note": 74, "velocity": 94, "channel": 0}, {"type": "note_on", "time": 7, "note": 76, "velocity": 94, "channel": 0}, {"type": "note_off", "time": 119, "note": 76, "velocity": 94, "channel": 0}, {"type": "note_on", "time": 13, "note": 80, "velocity": 95, "channel": 0}, {"type": "note_off", "time": 64, "note": 80, "velocity": 95, "channel": 0}, {"type": "note_on", "time": 8, "note": 82, "velocity": 98, "channel": 0}, {"type": "note_off", "time": 76, "note": 82, "velocity": 98, "channel": 0}, {"type": "note_on", "time": 4, "note": 81, "velocity": 98, "channel": 0}, {"type": "note_off", "time": 133, "note": 81, "velocity": 98, "channel": 0}, {"type": "note_on", "time": 6, "note": 80, "velocity": 93, "channel": 0}, {"type": "note_off", "time": 44, "note": 80, "velocity": 93, "channel": 0}, {"type": "note_on", "time": 134, "note": 76, "velocity": 94, "channel": 0}, {"type": "note_off", "time": 77, "note": 76, "velocity": 94, "channel": 0}, {"type": "note_on", "time": 5, "note": 74, "velocity": 99, "channel": 0}, {"type": "note_off", "time": 90, "note": 74, "velocity": 99, "channel": 0}, {"type": "note_on", "time": 5, "note": 73, "velocity": 97, "channel": 0}, {"type": "note_off", "time": 102, "note": 73, "velocity": 97, "channel": 0}, {"type": "note_on", "time": 8, "note": 71, "velocity": 104, "channel": 0}, {"type": "note_off", "time": 135, "note": 71, "velocity": 104, "channel": 0}, {"type": "note_on", "time": 11, "note": 70, "velocity": 93, "channel": 0}, {"type": "note_off", "time": 81, "note": 70, "velocity": 93, "channel": 0}, {"type": "note_on", "time": 4, "note": 68, "velocity": 94, "channel": 0}, {"type": "note_off", "time": 68, "note": 68, "velocity": 94, "channel": 0}, {"type": "note_on", "time": 8, "note": 69, "velocity": 105, "channel": 0}, {"type": "note_off", "time": 60, "note": 69, "velocity": 105, "channel": 0}, {"type": "note_on", "time": 116, "note": 65, "velocity": 107, "channel": 0}, {"type": "note_off", "time": 41, "note": 65, "velocity": 107, "channel": 0}, {"type": "note_on", "time": 8, "note": 66, "velocity": 94, "channel": 0}, {"type": "note_off", "time": 45, "note": 66, "velocity": 94, "channel": 0}, {"type": "note_on", "time": 21, "note": 70, "velocity": 108, "channel": 0}, {"type": "note_off", "time": 86, "note": 70, "velocity": 108, "channel": 0}, {"type": "note_on", "time": 35, "note": 67, "velocity": 98, "channel": 0}, {"type": "note_off", "time": 57, "note": 67, "velocity": 98, "channel": 0}, {"type": "note_on", "time": 8, "note": 68, "velocity": 91, "channel": 0}, {"type": "note_off", "time": 63, "note": 68, "velocity": 91, "channel": 0}, {"type": "note_on", "time": 18, "note": 69, "velocity": 104, "channel": 0}, {"type": "note_off", "time": 105, "note": 69, "velocity": 104, "channel": 0}, {"type": "note_on", "time": 23, "note": 65, "velocity": 96, "channel": 0}, {"type": "note_off", "time": 52, "note": 65, "velocity": 96, "channel": 0}, {"type": "note_on", "time": 6, "note": 64, "velocity": 105, "channel": 0}, {"type": "note_off", "time": 74, "note": 64, "velocity": 105, "channel": 0}, {"type": "note_on", "time": 23, "note": 62, "velocity": 102, "channel": 0}, {"type": "note_off", "time": 56, "note": 62, "velocity": 102, "channel": 0}, {"type": "note_on", "time": 9, "note": 66, "velocity": 98, "channel": 0}, {"type": "note_off", "time": 23, "note": 66, "velocity": 98, "channel": 0}, {"type": "note_on", "time": 4, "note": 67, "velocity": 105, "channel": 0}, {"type": "note_off", "time": 112, "note": 67, "velocity": 105, "channel": 0}, {"type": "note_on", "time": 70, "note": 65, "velocity": 102, "channel": 0}, {"type": "note_off", "time": 51, "note": 65, "velocity": 102, "channel": 0}, {"type": "note_on", "time": 8, "note": 67, "velocity": 111, "channel": 0}, {"type": "note_off", "time": 78, "note": 67, "velocity": 111, "channel": 0}, {"type": "note_on", "time": 2, "note": 65, "velocity": 112, "channel": 0}, {"type": "note_off", "time": 56, "note": 65, "velocity": 112, "channel": 0}, {"type": "note_on", "time": 3, "note": 64, "velocity": 109, "channel": 0}, {"type": "note_off", "time": 65, "note": 64, "velocity": 109, "channel": 0}, {"type": "note_on", "time": 9, "note": 60, "velocity": 115, "channel": 0}, {"type": "note_off", "time": 57, "note": 60, "velocity": 115, "channel": 0}, {"type": "note_on", "time": 17, "note": 57, "velocity": 109, "channel": 0}, {"type": "note_off", "time": 136, "note": 57, "velocity": 109, "channel": 0}, {"type": "note_on", "time": 4, "note": 55, "velocity": 105, "channel": 0}, {"type": "note_off", "time": 68, "note": 55, "velocity": 105, "channel": 0}, {"type": "note_on", "time": 11, "note": 60, "velocity": 119, "channel": 0}, {"type": "note_off", "time": 182, "note": 60, "velocity": 119, "channel": 0}, {"type": "note_on", "time": 105, "note": 63, "velocity": 101, "channel": 0}, {"type": "note_off", "time": 104, "note": 63, "velocity": 101, "channel": 0}, {"type": "note_on", "time": 8, "note": 64, "velocity": 101, "channel": 0}, {"type": "note_off", "time": 166, "note": 64, "velocity": 101, "channel": 0}, {"type": "note_on", "time": 21, "note": 67, "velocity": 94, "channel": 0}, {"type": "note_off", "time": 80, "note": 67, "velocity": 94, "channel": 0}, {"type": "note_on", "time": 116, "note": 65, "velocity": 105, "channel": 0}, {"type": "note_off", "time": 111, "note": 65, "velocity": 105, "channel": 0}, {"type": "note_on", "time": 249, "note": 66, "velocity": 102, "channel": 0}, {"type": "note_off", "time": 37, "note": 66, "velocity": 102, "channel": 0}, {"type": "note_on", "time": 13, "note": 68, "velocity": 108, "channel": 0}, {"type": "note_off", "time": 162, "note": 68, "velocity": 108, "channel": 0}, {"type": "note_on", "time": 13, "note": 73, "velocity": 94, "channel": 0}, {"type": "note_off", "time": 153, "note": 73, "velocity": 94, "channel": 0}, {"type": "note_on", "time": 324, "note": 61, "velocity": 100, "channel": 0}, {"type": "note_off", "time": 261, "note": 61, "velocity": 100, "channel": 0}, {"type": "note_on", "time": 17, "note": 65, "velocity": 103, "channel": 0}, {"type": "note_off", "time": 118, "note": 65, "velocity": 103, "channel": 0}, {"type": "note_on", "time": 343, "note": 65, "velocity": 109, "channel": 0}, {"type": "note_off", "time": 124, "note": 65, "velocity": 109, "channel": 0}, {"type": "note_on", "time": 5, "note": 66, "velocity": 99, "channel": 0}, {"type": "note_off", "time": 129, "note": 66, "velocity": 99, "channel": 0}, {"type": "note_on", "time": 20, "note": 70, "velocity": 92, "channel": 0}, {"type": "note_off", "time": 129, "note": 70, "velocity": 92, "channel": 0}, {"type": "note_on", "time": 363, "note": 60, "velocity": 110, "channel": 0}, {"type": "note_off", "time": 248, "note": 60, "velocity": 110, "channel": 0}, {"type": "note_on", "time": 17, "note": 64, "velocity": 108, "channel": 0}, {"type": "note_off", "time": 136, "note": 64, "velocity": 108, "channel": 0}, {"type": "note_on", "time": 343, "note": 64, "velocity": 107, "channel": 0}, {"type": "note_off", "time": 75, "note": 64, "velocity": 107, "channel": 0}, {"type": "note_on", "time": 2, "note": 65, "velocity": 104, "channel": 0}, {"type": "note_off", "time": 202, "note": 65, "velocity": 104, "channel": 0}, {"type": "note_on", "time": 3, "note": 69, "velocity": 101, "channel": 0}, {"type": "note_off", "time": 116, "note": 69, "velocity": 101, "channel": 0}, {"type": "note_on", "time": 422, "note": 57, "velocity": 103, "channel": 0}, {"type": "note_off", "time": 170, "note": 57, "velocity": 103, "channel": 0}, {"type": "note_on", "time": 14, "note": 66, "velocity": 106, "channel": 0}, {"type": "note_off", "time": 100, "note": 66, "velocity": 106, "channel": 0}, {"type": "note_on", "time": 96, "note": 62, "velocity": 113, "channel": 0}, {"type": "note_off", "time": 167, "note": 62, "velocity": 113, "channel": 0}, {"type": "note_on", "time": 11, "note": 66, "velocity": 104, "channel": 0}, {"type": "note_off", "time": 110, "note": 66, "velocity": 104, "channel": 0}, {"type": "note_on", "time": 82, "note": 64, "velocity": 103, "channel": 0}, {"type": "note_off", "time": 96, "note": 64, "velocity": 103, "channel": 0}, {"type": "note_on", "time": 6, "note": 65, "velocity": 97, "channel": 0}, {"type": "note_off", "time": 48, "note": 65, "velocity": 97, "channel": 0}, {"type": "note_on", "time": 24, "note": 68, "velocity": 95, "channel": 0}, {"type": "note_off", "time": 136, "note": 68, "velocity": 95, "channel": 0}, {"type": "note_on", "time": 409, "note": 63, "velocity": 106, "channel": 0}, {"type": "note_off", "time": 251, "note": 63, "velocity": 106, "channel": 0}, {"type": "note_on", "time": 4, "note": 67, "velocity": 103, "channel": 0}, {"type": "note_off", "time": 99, "note": 67, "velocity": 103, "channel": 0}, {"type": "note_on", "time": 481, "note": 67, "velocity": 106, "channel": 0}, {"type": "note_off", "time": 85, "note": 67, "velocity": 106, "channel": 0}, {"type": "note_on", "time": 0, "note": 69, "velocity": 100, "channel": 0}, {"type": "note_off", "time": 115, "note": 69, "velocity": 100, "channel": 0}, {"type": "note_on", "time": 8, "note": 73, "velocity": 91, "channel": 0}, {"type": "note_off", "time": 102, "note": 73, "velocity": 91, "channel": 0}, {"type": "note_on", "time": 85, "note": 51, "velocity": 107, "channel": 0}, {"type": "note_off", "time": 185, "note": 51, "velocity": 107, "channel": 0}, {"type": "note_on", "time": 6, "note": 55, "velocity": 110, "channel": 0}, {"type": "note_off", "time": 113, "note": 55, "velocity": 110, "channel": 0}, {"type": "note_on", "time": 17, "note": 51, "velocity": 119, "channel": 0}, {"type": "note_off", "time": 39, "note": 51, "velocity": 119, "channel": 0}, {"type": "note_on", "time": 39, "note": 56, "velocity": 100, "channel": 0}, {"type": "note_off", "time": 37, "note": 56, "velocity": 100, "channel": 0}, {"type": "note_on", "time": 4, "note": 57, "velocity": 112, "channel": 0}, {"type": "note_off", "time": 96, "note": 57, "velocity": 112, "channel": 0}, {"type": "note_on", "time": 37, "note": 61, "velocity": 101, "channel": 0}, {"type": "note_off", "time": 80, "note": 61, "velocity": 101, "channel": 0}, {"type": "note_on", "time": 6, "note": 63, "velocity": 108, "channel": 0}, {"type": "note_off", "time": 270, "note": 63, "velocity": 108, "channel": 0}, {"type": "note_on", "time": 11, "note": 67, "velocity": 102, "channel": 0}, {"type": "note_off", "time": 114, "note": 67, "velocity": 102, "channel": 0}, {"type": "note_on", "time": 10, "note": 63, "velocity": 102, "channel": 0}, {"type": "note_off", "time": 62, "note": 63, "velocity": 102, "channel": 0}, {"type": "note_on", "time": 5, "note": 67, "velocity": 101, "channel": 0}, {"type": "note_off", "time": 51, "note": 67, "velocity": 101, "channel": 0}, {"type": "note_on", "time": 5, "note": 69, "velocity": 98, "channel": 0}, {"type": "note_off", "time": 109, "note": 69, "velocity": 98, "channel": 0}, {"type": "note_on", "time": 6, "note": 73, "velocity": 96, "channel": 0}, {"type": "note_off", "time": 90, "note": 73, "velocity": 96, "channel": 0}, {"type": "note_on", "time": 32, "note": 51, "velocity": 113, "channel": 0}, {"type": "note_off", "time": 55, "note": 51, "velocity": 113, "channel": 0}, {"type": "note_on", "time": 12, "note": 52, "velocity": 108, "channel": 0}, {"type": "note_off", "time": 194, "note": 52, "velocity": 108, "channel": 0}, {"type": "note_on", "time": 8, "note": 56, "velocity": 107, "channel": 0}, {"type": "note_off", "time": 105, "note": 56, "velocity": 107, "channel": 0}, {"type": "note_on", "time": 23, "note": 52, "velocity": 111, "channel": 0}, {"type": "note_off", "time": 57, "note": 52, "velocity": 111, "channel": 0}, {"type": "note_on", "time": 3, "note": 56, "velocity": 106, "channel": 0}, {"type": "note_off", "time": 34, "note": 56, "velocity": 106, "channel": 0}, {"type": "note_on", "time": 6, "note": 58, "velocity": 103, "channel": 0}, {"type": "note_off", "time": 142, "note": 58, "velocity": 103, "channel": 0}, {"type": "note_on", "time": 2, "note": 62, "velocity": 110, "channel": 0}, {"type": "note_off", "time": 98, "note": 62, "velocity": 110, "channel": 0}, {"type": "note_on", "time": 3, "note": 64, "velocity": 110, "channel": 0}, {"type": "note_off", "time": 91, "note": 64, "velocity": 110, "channel": 0}, {"type": "note_on", "time": 871, "note": 57, "velocity": 112, "channel": 0}, {"type": "note_off", "time": 89, "note": 57, "velocity": 112, "channel": 0}, {"type": "note_on", "time": 6, "note": 61, "velocity": 100, "channel": 0}, {"type": "note_off", "time": 83, "note": 61, "velocity": 100, "channel": 0}, {"type": "note_on", "time": 7, "note": 56, "velocity": 109, "channel": 0}, {"type": "note_off", "time": 60, "note": 56, "velocity": 109, "channel": 0}, {"type": "note_on", "time": 25, "note": 63, "velocity": 114, "channel": 0}, {"type": "note_off", "time": 97, "note": 63, "velocity": 114, "channel": 0}, {"type": "note_on", "time": 3, "note": 61, "velocity": 108, "channel": 0}, {"type": "note_off", "time": 65, "note": 61, "velocity": 108, "channel": 0}, {"type": "note_on", "time": 3, "note": 59, "velocity": 110, "channel": 0}, {"type": "note_off", "time": 48, "note": 59, "velocity": 110, "channel": 0}, {"type": "note_on", "time": 1, "note": 57, "velocity": 109, "channel": 0}, {"type": "note_off", "time": 68, "note": 57, "velocity": 109, "channel": 0}, {"type": "note_on", "time": 5, "note": 53, "velocity": 116, "channel": 0}, {"type": "note_off", "time": 77, "note": 53, "velocity": 116, "channel": 0}, {"type": "note_on", "time": 11, "note": 55, "velocity": 115, "channel": 0}, {"type": "note_off", "time": 76, "note": 55, "velocity": 115, "channel": 0}, {"type": "note_on", "time": 21, "note": 59, "velocity": 108, "channel": 0}, {"type": "note_off", "time": 67, "note": 59, "velocity": 108, "channel": 0}, {"type": "note_on", "time": 27, "note": 61, "velocity": 111, "channel": 0}, {"type": "note_off", "time": 70, "note": 61, "velocity": 111, "channel": 0}, {"type": "note_on", "time": 8, "note": 65, "velocity": 98, "channel": 0}, {"type": "note_off", "time": 101, "note": 65, "velocity": 98, "channel": 0}, {"type": "note_on", "time": 16, "note": 71, "velocity": 104, "channel": 0}, {"type": "note_off", "time": 65, "note": 71, "velocity": 104, "channel": 0}, {"type": "note_on", "time": 4, "note": 67, "velocity": 109, "channel": 0}, {"type": "note_off", "time": 84, "note": 67, "velocity": 109, "channel": 0}, {"type": "note_on", "time": 15, "note": 65, "velocity": 108, "channel": 0}, {"type": "note_off", "time": 107, "note": 65, "velocity": 108, "channel": 0}, {"type": "note_on", "time": 9, "note": 61, "velocity": 108, "channel": 0}, {"type": "note_off", "time": 87, "note": 61, "velocity": 108, "channel": 0}, {"type": "note_on", "time": 15, "note": 59, "velocity": 107, "channel": 0}, {"type": "note_off", "time": 71, "note": 59, "velocity": 107, "channel": 0}, {"type": "note_on", "time": 2, "note": 55, "velocity": 109, "channel": 0}, {"type": "note_off", "time": 77, "note": 55, "velocity": 109, "channel": 0}, {"type": "note_on", "time": 5, "note": 53, "velocity": 111, "channel": 0}, {"type": "note_off", "time": 110, "note": 53, "velocity": 111, "channel": 0}, {"type": "note_on", "time": 20, "note": 49, "velocity": 115, "channel": 0}, {"type": "note_off", "time": 102, "note": 49, "velocity": 115, "channel": 0}, {"type": "note_on", "time": 3, "note": 48, "velocity": 121, "channel": 0}, {"type": "note_off", "time": 335, "note": 48, "velocity": 121, "channel": 0}, {"type": "note_on", "time": 465, "note": 76, "velocity": 109, "channel": 0}, {"type": "note_off", "time": 39, "note": 76, "velocity": 109, "channel": 0}, {"type": "note_on", "time": 39, "note": 74, "velocity": 106, "channel": 0}, {"type": "note_off", "time": 83, "note": 74, "velocity": 106, "channel": 0}, {"type": "note_on", "time": 3, "note": 72, "velocity": 105, "channel": 0}, {"type": "note_off", "time": 84, "note": 72, "velocity": 105, "channel": 0}, {"type": "note_on", "time": 5, "note": 70, "velocity": 106, "channel": 0}, {"type": "note_off", "time": 87, "note": 70, "velocity": 106, "channel": 0}, {"type": "note_on", "time": 3, "note": 68, "velocity": 108, "channel": 0}, {"type": "note_off", "time": 108, "note": 68, "velocity": 108, "channel": 0}, {"type": "note_on", "time": 5, "note": 66, "velocity": 109, "channel": 0}, {"type": "note_off", "time": 77, "note": 66, "velocity": 109, "channel": 0}, {"type": "note_on", "time": 1, "note": 64, "velocity": 118, "channel": 0}, {"type": "note_off", "time": 92, "note": 64, "velocity": 118, "channel": 0}, {"type": "note_on", "time": 1, "note": 62, "velocity": 120, "channel": 0}, {"type": "note_off", "time": 107, "note": 62, "velocity": 120, "channel": 0}, {"type": "note_on", "time": 6, "note": 60, "velocity": 120, "channel": 0}, {"type": "note_off", "time": 104, "note": 60, "velocity": 120, "channel": 0}, {"type": "note_on", "time": 484, "note": 75, "velocity": 103, "channel": 0}, {"type": "note_off", "time": 62, "note": 75, "velocity": 103, "channel": 0}, {"type": "note_on", "time": 40, "note": 73, "velocity": 100, "channel": 0}, {"type": "note_off", "time": 75, "note": 73, "velocity": 100, "channel": 0}, {"type": "note_on", "time": 14, "note": 72, "velocity": 107, "channel": 0}, {"type": "note_off", "time": 41, "note": 72, "velocity": 107, "channel": 0}, {"type": "note_on", "time": 8, "note": 71, "velocity": 107, "channel": 0}, {"type": "note_off", "time": 22, "note": 71, "velocity": 107, "channel": 0}, {"type": "note_on", "time": 20, "note": 69, "velocity": 111, "channel": 0}, {"type": "note_off", "time": 75, "note": 69, "velocity": 111, "channel": 0}, {"type": "note_on", "time": 3, "note": 67, "velocity": 112, "channel": 0}, {"type": "note_off", "time": 88, "note": 67, "velocity": 112, "channel": 0}, {"type": "note_on", "time": 33, "note": 73, "velocity": 109, "channel": 0}, {"type": "note_off", "time": 89, "note": 73, "velocity": 109, "channel": 0}, {"type": "note_on", "time": 2, "note": 71, "velocity": 108, "channel": 0}, {"type": "note_off", "time": 83, "note": 71, "velocity": 108, "channel": 0}, {"type": "note_on", "time": 23, "note": 70, "velocity": 104, "channel": 0}, {"type": "note_off", "time": 90, "note": 70, "velocity": 104, "channel": 0}, {"type": "note_on", "time": 0, "note": 68, "velocity": 103, "channel": 0}, {"type": "note_off", "time": 109, "note": 68, "velocity": 103, "channel": 0}, {"type": "note_on", "time": 2, "note": 66, "velocity": 97, "channel": 0}, {"type": "note_off", "time": 86, "note": 66, "velocity": 97, "channel": 0}, {"type": "note_on", "time": 9, "note": 72, "velocity": 102, "channel": 0}, {"type": "note_off", "time": 106, "note": 72, "velocity": 102, "channel": 0}, {"type": "note_on", "time": 19, "note": 70, "velocity": 105, "channel": 0}, {"type": "note_off", "time": 82, "note": 70, "velocity": 105, "channel": 0}, {"type": "note_on", "time": 2, "note": 68, "velocity": 108, "channel": 0}, {"type": "note_off", "time": 55, "note": 68, "velocity": 108, "channel": 0}, {"type": "note_on", "time": 27, "note": 66, "velocity": 116, "channel": 0}, {"type": "note_off", "time": 74, "note": 66, "velocity": 116, "channel": 0}, {"type": "note_on", "time": 2, "note": 64, "velocity": 114, "channel": 0}, {"type": "note_off", "time": 104, "note": 64, "velocity": 114, "channel": 0}, {"type": "note_on", "time": 7, "note": 71, "velocity": 104, "channel": 0}, {"type": "note_off", "time": 87, "note": 71, "velocity": 104, "channel": 0}, {"type": "note_on", "time": 4, "note": 70, "velocity": 105, "channel": 0}, {"type": "note_off", "time": 83, "note": 70, "velocity": 105, "channel": 0}, {"type": "note_on", "time": 12, "note": 67, "velocity": 108, "channel": 0}, {"type": "note_off", "time": 84, "note": 67, "velocity": 108, "channel": 0}, {"type": "note_on", "time": 4, "note": 65, "velocity": 110, "channel": 0}, {"type": "note_off", "time": 136, "note": 65, "velocity": 110, "channel": 0}, {"type": "note_on", "time": 30, "note": 70, "velocity": 109, "channel": 0}, {"type": "note_off", "time": 78, "note": 70, "velocity": 109, "channel": 0}, {"type": "note_on", "time": 4, "note": 67, "velocity": 111, "channel": 0}, {"type": "note_off", "time": 120, "note": 67, "velocity": 111, "channel": 0}, {"type": "note_on", "time": 7, "note": 68, "velocity": 97, "channel": 0}, {"type": "note_off", "time": 43, "note": 68, "velocity": 97, "channel": 0}, {"type": "note_on", "time": 5, "note": 69, "velocity": 105, "channel": 0}, {"type": "note_off", "time": 91, "note": 69, "velocity": 105, "channel": 0}, {"type": "note_on", "time": 63, "note": 61, "velocity": 106, "channel": 0}, {"type": "note_off", "time": 61, "note": 61, "velocity": 106, "channel": 0}, {"type": "note_on", "time": 5, "note": 64, "velocity": 99, "channel": 0}, {"type": "note_off", "time": 57, "note": 64, "velocity": 99, "channel": 0}, {"type": "note_on", "time": 23, "note": 68, "velocity": 101, "channel": 0}, {"type": "note_off", "time": 95, "note": 68, "velocity": 101, "channel": 0}, {"type": "note_on", "time": 9, "note": 65, "velocity": 94, "channel": 0}, {"type": "note_off", "time": 58, "note": 65, "velocity": 94, "channel": 0}, {"type": "note_on", "time": 11, "note": 66, "velocity": 94, "channel": 0}, {"type": "note_off", "time": 57, "note": 66, "velocity": 94, "channel": 0}, {"type": "note_on", "time": 30, "note": 70, "velocity": 107, "channel": 0}, {"type": "note_off", "time": 97, "note": 70, "velocity": 107, "channel": 0}, {"type": "note_on", "time": 3, "note": 68, "velocity": 100, "channel": 0}, {"type": "note_off", "time": 84, "note": 68, "velocity": 100, "channel": 0}, {"type": "note_on", "time": 2, "note": 69, "velocity": 102, "channel": 0}, {"type": "note_off", "time": 109, "note": 69, "velocity": 102, "channel": 0}, {"type": "note_on", "time": 2, "note": 68, "velocity": 109, "channel": 0}, {"type": "note_off", "time": 92, "note": 68, "velocity": 109, "channel": 0}, {"type": "note_on", "time": 8, "note": 67, "velocity": 108, "channel": 0}, {"type": "note_off", "time": 102, "note": 67, "velocity": 108, "channel": 0}, {"type": "note_on", "time": 4, "note": 66, "velocity": 109, "channel": 0}, {"type": "note_off", "time": 71, "note": 66, "velocity": 109, "channel": 0}, {"type": "note_on", "time": 4, "note": 65, "velocity": 114, "channel": 0}, {"type": "note_off", "time": 87, "note": 65, "velocity": 114, "channel": 0}, {"type": "note_on", "time": 3, "note": 64, "velocity": 113, "channel": 0}, {"type": "note_off", "time": 83, "note": 64, "velocity": 113, "channel": 0}, {"type": "note_on", "time": 11, "note": 63, "velocity": 121, "channel": 0}, {"type": "note_off", "time": 61, "note": 63, "velocity": 121, "channel": 0}, {"type": "note_on", "time": 12, "note": 62, "velocity": 117, "channel": 0}, {"type": "note_off", "time": 102, "note": 62, "velocity": 117, "channel": 0}, {"type": "note_on", "time": 2, "note": 61, "velocity": 111, "channel": 0}, {"type": "note_off", "time": 81, "note": 61, "velocity": 111, "channel": 0}, {"type": "note_on", "time": 17, "note": 63, "velocity": 119, "channel": 0}, {"type": "note_off", "time": 97, "note": 63, "velocity": 119, "channel": 0}, {"type": "note_on", "time": 16, "note": 65, "velocity": 108, "channel": 0}, {"type": "note_off", "time": 80, "note": 65, "velocity": 108, "channel": 0}, {"type": "note_on", "time": 13, "note": 67, "velocity": 105, "channel": 0}, {"type": "note_off", "time": 76, "note": 67, "velocity": 105, "channel": 0}, {"type": "note_on", "time": 15, "note": 69, "velocity": 106, "channel": 0}, {"type": "note_off", "time": 93, "note": 69, "velocity": 106, "channel": 0}, {"type": "note_on", "time": 15, "note": 63, "velocity": 112, "channel": 0}, {"type": "note_off", "time": 81, "note": 63, "velocity": 112, "channel": 0}, {"type": "note_on", "time": 4, "note": 65, "velocity": 100, "channel": 0}, {"type": "note_off", "time": 65, "note": 65, "velocity": 100, "channel": 0}, {"type": "note_on", "time": 11, "note": 67, "velocity": 108, "channel": 0}, {"type": "note_off", "time": 83, "note": 67, "velocity": 108, "channel": 0}, {"type": "note_on", "time": 9, "note": 69, "velocity": 101, "channel": 0}, {"type": "note_off", "time": 86, "note": 69, "velocity": 101, "channel": 0}, {"type": "note_on", "time": 12, "note": 71, "velocity": 113, "channel": 0}, {"type": "note_off", "time": 81, "note": 71, "velocity": 113, "channel": 0}, {"type": "note_on", "time": 25, "note": 65, "velocity": 110, "channel": 0}, {"type": "note_off", "time": 99, "note": 65, "velocity": 110, "channel": 0}, {"type": "note_on", "time": 4, "note": 67, "velocity": 107, "channel": 0}, {"type": "note_off", "time": 83, "note": 67, "velocity": 107, "channel": 0}, {"type": "note_on", "time": 4, "note": 69, "velocity": 99, "channel": 0}, {"type": "note_off", "time": 101, "note": 69, "velocity": 99, "channel": 0}, {"type": "note_on", "time": 3, "note": 71, "velocity": 104, "channel": 0}, {"type": "note_off", "time": 91, "note": 71, "velocity": 104, "channel": 0}, {"type": "note_on", "time": 4, "note": 73, "velocity": 101, "channel": 0}, {"type": "note_off", "time": 92, "note": 73, "velocity": 101, "channel": 0}, {"type": "note_on", "time": 29, "note": 67, "velocity": 106, "channel": 0}, {"type": "note_off", "time": 60, "note": 67, "velocity": 106, "channel": 0}, {"type": "note_on", "time": 4, "note": 69, "velocity": 101, "channel": 0}, {"type": "note_off", "time": 92, "note": 69, "velocity": 101, "channel": 0}, {"type": "note_on", "time": 5, "note": 71, "velocity": 109, "channel": 0}, {"type": "note_off", "time": 71, "note": 71, "velocity": 109, "channel": 0}, {"type": "note_on", "time": 12, "note": 73, "velocity": 96, "channel": 0}, {"type": "note_off", "time": 127, "note": 73, "velocity": 96, "channel": 0}, {"type": "note_on", "time": 1, "note": 75, "velocity": 95, "channel": 0}, {"type": "note_off", "time": 42, "note": 75, "velocity": 95, "channel": 0}, {"type": "note_on", "time": 6, "note": 76, "velocity": 101, "channel": 0}, {"type": "note_off", "time": 74, "note": 76, "velocity": 101, "channel": 0}, {"type": "note_on", "time": 11, "note": 69, "velocity": 107, "channel": 0}, {"type": "note_off", "time": 66, "note": 69, "velocity": 107, "channel": 0}, {"type": "note_on", "time": 3, "note": 71, "velocity": 102, "channel": 0}, {"type": "note_off", "time": 56, "note": 71, "velocity": 102, "channel": 0}, {"type": "note_on", "time": 23, "note": 73, "velocity": 101, "channel": 0}, {"type": "note_off", "time": 99, "note": 73, "velocity": 101, "channel": 0}, {"type": "note_on", "time": 3, "note": 75, "velocity": 103, "channel": 0}, {"type": "note_off", "time": 55, "note": 75, "velocity": 103, "channel": 0}, {"type": "note_on", "time": 10, "note": 77, "velocity": 98, "channel": 0}, {"type": "note_off", "time": 89, "note": 77, "velocity": 98, "channel": 0}, {"type": "note_on", "time": 60, "note": 79, "velocity": 101, "channel": 0}, {"type": "note_off", "time": 36, "note": 79, "velocity": 101, "channel": 0}, {"type": "note_on", "time": 2, "note": 81, "velocity": 101, "channel": 0}, {"type": "note_off", "time": 63, "note": 81, "velocity": 101, "channel": 0}, {"type": "note_on", "time": 6, "note": 82, "velocity": 94, "channel": 0}, {"type": "note_off", "time": 53, "note": 82, "velocity": 94, "channel": 0}, {"type": "note_on", "time": 18, "note": 85, "velocity": 93, "channel": 0}, {"type": "note_off", "time": 113, "note": 85, "velocity": 93, "channel": 0}, {"type": "note_on", "time": 2672, "note": 48, "velocity": 114, "channel": 0}, {"type": "note_off", "time": 40, "note": 48, "velocity": 114, "channel": 0}, {"type": "note_on", "time": 0, "note": 50, "velocity": 110, "channel": 0}, {"type": "note_off", "time": 39, "note": 50, "velocity": 110, "channel": 0}, {"type": "note_on", "time": 4, "note": 54, "velocity": 106, "channel": 0}, {"type": "note_off", "time": 48, "note": 54, "velocity": 106, "channel": 0}, {"type": "note_on", "time": 7, "note": 58, "velocity": 109, "channel": 0}, {"type": "note_off", "time": 63, "note": 58, "velocity": 109, "channel": 0}, {"type": "note_on", "time": 13, "note": 61, "velocity": 111, "channel": 0}, {"type": "note_off", "time": 60, "note": 61, "velocity": 111, "channel": 0}, {"type": "note_on", "time": 11, "note": 64, "velocity": 107, "channel": 0}, {"type": "note_off", "time": 37, "note": 64, "velocity": 107, "channel": 0}, {"type": "note_on", "time": 6, "note": 67, "velocity": 108, "channel": 0}, {"type": "note_off", "time": 55, "note": 67, "velocity": 108, "channel": 0}, {"type": "note_on", "time": 2, "note": 68, "velocity": 106, "channel": 0}, {"type": "note_off", "time": 35, "note": 68, "velocity": 106, "channel": 0}, {"type": "note_on", "time": 13, "note": 72, "velocity": 112, "channel": 0}, {"type": "note_off", "time": 102, "note": 72, "velocity": 112, "channel": 0}, {"type": "note_on", "time": 4, "note": 73, "velocity": 106, "channel": 0}, {"type": "note_off", "time": 44, "note": 73, "velocity": 106, "channel": 0}, {"type": "note_on", "time": 6, "note": 74, "velocity": 99, "channel": 0}, {"type": "note_off", "time": 568, "note": 74, "velocity": 99, "channel": 0}, {"type": "note_on", "time": 18, "note": 71, "velocity": 106, "channel": 0}, {"type": "note_off", "time": 120, "note": 71, "velocity": 106, "channel": 0}, {"type": "note_on", "time": 5, "note": 68, "velocity": 95, "channel": 0}, {"type": "note_off", "time": 23, "note": 68, "velocity": 95, "channel": 0}, {"type": "note_on", "time": 49, "note": 74, "velocity": 119, "channel": 0}, {"type": "note_off", "time": 69, "note": 74, "velocity": 119, "channel": 0}, {"type": "note_on", "time": 9, "note": 75, "velocity": 104, "channel": 0}, {"type": "note_off", "time": 302, "note": 75, "velocity": 104, "channel": 0}, {"type": "note_on", "time": 11, "note": 72, "velocity": 108, "channel": 0}, {"type": "note_off", "time": 85, "note": 72, "velocity": 108, "channel": 0}, {"type": "note_on", "time": 11, "note": 68, "velocity": 102, "channel": 0}, {"type": "note_off", "time": 152, "note": 68, "velocity": 102, "channel": 0}, {"type": "note_on", "time": 864, "note": 44, "velocity": 127, "channel": 0}, {"type": "note_off", "time": 60, "note": 44, "velocity": 127, "channel": 0}, {"type": "note_on", "time": 23, "note": 51, "velocity": 110, "channel": 0}, {"type": "note_off", "time": 99, "note": 51, "velocity": 110, "channel": 0}, {"type": "note_on", "time": 7, "note": 44, "velocity": 123, "channel": 0}, {"type": "note_off", "time": 45, "note": 44, "velocity": 123, "channel": 0}, {"type": "note_on", "time": 32, "note": 51, "velocity": 110, "channel": 0}, {"type": "note_off", "time": 96, "note": 51, "velocity": 110, "channel": 0}, {"type": "note_on", "time": 4, "note": 58, "velocity": 107, "channel": 0}, {"type": "note_off", "time": 80, "note": 58, "velocity": 107, "channel": 0}, {"type": "note_on", "time": 6, "note": 56, "velocity": 118, "channel": 0}, {"type": "note_off", "time": 164, "note": 56, "velocity": 118, "channel": 0}, {"type": "note_on", "time": 15, "note": 48, "velocity": 117, "channel": 0}, {"type": "note_off", "time": 137, "note": 48, "velocity": 117, "channel": 0}, {"type": "note_on", "time": 1171, "note": 50, "velocity": 123, "channel": 0}, {"type": "note_off", "time": 82, "note": 50, "velocity": 123, "channel": 0}, {"type": "note_on", "time": 3, "note": 45, "velocity": 117, "channel": 0}, {"type": "note_off", "time": 97, "note": 45, "velocity": 117, "channel": 0}, {"type": "note_on", "time": 9, "note": 57, "velocity": 115, "channel": 0}, {"type": "note_off", "time": 114, "note": 57, "velocity": 115, "channel": 0}, {"type": "note_on", "time": 4, "note": 56, "velocity": 114, "channel": 0}, {"type": "note_off", "time": 102, "note": 56, "velocity": 114, "channel": 0}, {"type": "note_on", "time": 7, "note": 55, "velocity": 112, "channel": 0}, {"type": "note_off", "time": 58, "note": 55, "velocity": 112, "channel": 0}, {"type": "note_on", "time": 20, "note": 54, "velocity": 116, "channel": 0}, {"type": "note_off", "time": 90, "note": 54, "velocity": 116, "channel": 0}, {"type": "note_on", "time": 13, "note": 53, "velocity": 119, "channel": 0}, {"type": "note_off", "time": 95, "note": 53, "velocity": 119, "channel": 0}, {"type": "note_on", "time": 10, "note": 52, "velocity": 112, "channel": 0}, {"type": "note_off", "time": 71, "note": 52, "velocity": 112, "channel": 0}, {"type": "note_on", "time": 4, "note": 51, "velocity": 124, "channel": 0}, {"type": "note_off", "time": 88, "note": 51, "velocity": 124, "channel": 0}, {"type": "note_on", "time": 5, "note": 53, "velocity": 116, "channel": 0}, {"type": "note_off", "time": 99, "note": 53, "velocity": 116, "channel": 0}, {"type": "note_on", "time": 10, "note": 54, "velocity": 115, "channel": 0}, {"type": "note_off", "time": 98, "note": 54, "velocity": 115, "channel": 0}, {"type": "note_on", "time": 9, "note": 56, "velocity": 112, "channel": 0}, {"type": "note_off", "time": 65, "note": 56, "velocity": 112, "channel": 0}, {"type": "note_on", "time": 37, "note": 60, "velocity": 119, "channel": 0}, {"type": "note_off", "time": 113, "note": 60, "velocity": 119, "channel": 0}, {"type": "note_on", "time": 12, "note": 57, "velocity": 117, "channel": 0}, {"type": "note_off", "time": 66, "note": 57, "velocity": 117, "channel": 0}, {"type": "note_on", "time": 8, "note": 58, "velocity": 105, "channel": 0}, {"type": "note_off", "time": 82, "note": 58, "velocity": 105, "channel": 0}, {"type": "note_on", "time": 9, "note": 60, "velocity": 114, "channel": 0}, {"type": "note_off", "time": 55, "note": 60, "velocity": 114, "channel": 0}, {"type": "note_on", "time": 3, "note": 61, "velocity": 107, "channel": 0}, {"type": "note_off", "time": 49, "note": 61, "velocity": 107, "channel": 0}, {"type": "note_on", "time": 3, "note": 63, "velocity": 110, "channel": 0}, {"type": "note_off", "time": 63, "note": 63, "velocity": 110, "channel": 0}, {"type": "note_on", "time": 22, "note": 66, "velocity": 105, "channel": 0}, {"type": "note_off", "time": 79, "note": 66, "velocity": 105, "channel": 0}, {"type": "note_on", "time": 10, "note": 68, "velocity": 94, "channel": 0}, {"type": "note_off", "time": 117, "note": 68, "velocity": 94, "channel": 0}, {"type": "note_on", "time": 9, "note": 71, "velocity": 105, "channel": 0}, {"type": "note_off", "time": 46, "note": 71, "velocity": 105, "channel": 0}, {"type": "note_on", "time": 5, "note": 72, "velocity": 101, "channel": 0}, {"type": "note_off", "time": 46, "note": 72, "velocity": 101, "channel": 0}, {"type": "note_on", "time": 3, "note": 75, "velocity": 101, "channel": 0}, {"type": "note_off", "time": 55, "note": 75, "velocity": 101, "channel": 0}, {"type": "note_on", "time": 3, "note": 73, "velocity": 101, "channel": 0}, {"type": "note_off", "time": 71, "note": 73, "velocity": 101, "channel": 0}, {"type": "note_on", "time": 2, "note": 72, "velocity": 94, "channel": 0}, {"type": "note_off", "time": 96, "note": 72, "velocity": 94, "channel": 0}, {"type": "note_on", "time": 4, "note": 68, "velocity": 102, "channel": 0}, {"type": "note_off", "time": 118, "note": 68, "velocity": 102, "channel": 0}, {"type": "note_on", "time": 6, "note": 69, "velocity": 96, "channel": 0}, {"type": "note_off", "time": 72, "note": 69, "velocity": 96, "channel": 0}, {"type": "note_on", "time": 4, "note": 72, "velocity": 107, "channel": 0}, {"type": "note_off", "time": 60, "note": 72, "velocity": 107, "channel": 0}, {"type": "note_on", "time": 7, "note": 71, "velocity": 103, "channel": 0}, {"type": "note_off", "time": 112, "note": 71, "velocity": 103, "channel": 0}, {"type": "note_on", "time": 18, "note": 69, "velocity": 92, "channel": 0}, {"type": "note_off", "time": 64, "note": 69, "velocity": 92, "channel": 0}, {"type": "note_on", "time": 29, "note": 70, "velocity": 106, "channel": 0}, {"type": "note_off", "time": 51, "note": 70, "velocity": 106, "channel": 0}, {"type": "note_on", "time": 5, "note": 69, "velocity": 99, "channel": 0}, {"type": "note_off", "time": 41, "note": 69, "velocity": 99, "channel": 0}, {"type": "note_on", "time": 24, "note": 64, "velocity": 101, "channel": 0}, {"type": "note_off", "time": 40, "note": 64, "velocity": 101, "channel": 0}, {"type": "note_on", "time": 13, "note": 65, "velocity": 97, "channel": 0}, {"type": "note_off", "time": 97, "note": 65, "velocity": 97, "channel": 0}, {"type": "note_on", "time": 42, "note": 68, "velocity": 107, "channel": 0}, {"type": "note_off", "time": 45, "note": 68, "velocity": 107, "channel": 0}, {"type": "note_on", "time": 4, "note": 67, "velocity": 99, "channel": 0}, {"type": "note_off", "time": 33, "note": 67, "velocity": 99, "channel": 0}, {"type": "note_on", "time": 48, "note": 65, "velocity": 105, "channel": 0}, {"type": "note_off", "time": 40, "note": 65, "velocity": 105, "channel": 0}, {"type": "note_on", "time": 5, "note": 66, "velocity": 99, "channel": 0}, {"type": "note_off", "time": 66, "note": 66, "velocity": 99, "channel": 0}, {"type": "note_on", "time": 11, "note": 67, "velocity": 105, "channel": 0}, {"type": "note_off", "time": 120, "note": 67, "velocity": 105, "channel": 0}, {"type": "note_on", "time": 13, "note": 63, "velocity": 107, "channel": 0}, {"type": "note_off", "time": 51, "note": 63, "velocity": 107, "channel": 0}, {"type": "note_on", "time": 5, "note": 62, "velocity": 105, "channel": 0}, {"type": "note_off", "time": 37, "note": 62, "velocity": 105, "channel": 0}, {"type": "note_on", "time": 3, "note": 64, "velocity": 108, "channel": 0}, {"type": "note_off", "time": 43, "note": 64, "velocity": 108, "channel": 0}, {"type": "note_on", "time": 4, "note": 65, "velocity": 111, "channel": 0}, {"type": "note_off", "time": 78, "note": 65, "velocity": 111, "channel": 0}, {"type": "note_on", "time": 9, "note": 61, "velocity": 103, "channel": 0}, {"type": "note_off", "time": 60, "note": 61, "velocity": 103, "channel": 0}, {"type": "note_on", "time": 8, "note": 60, "velocity": 93, "channel": 0}, {"type": "note_off", "time": 64, "note": 60, "velocity": 93, "channel": 0}, {"type": "note_on", "time": 11, "note": 58, "velocity": 95, "channel": 0}, {"type": "note_off", "time": 64, "note": 58, "velocity": 95, "channel": 0}, {"type": "note_on", "time": 7, "note": 63, "velocity": 116, "channel": 0}, {"type": "note_off", "time": 123, "note": 63, "velocity": 116, "channel": 0}, {"type": "note_on", "time": 623, "note": 73, "velocity": 102, "channel": 0}, {"type": "note_off", "time": 25, "note": 73, "velocity": 102, "channel": 0}, {"type": "note_on", "time": 1, "note": 74, "velocity": 102, "channel": 0}, {"type": "note_off", "time": 13, "note": 74, "velocity": 102, "channel": 0}, {"type": "note_on", "time": 0, "note": 73, "velocity": 105, "channel": 0}, {"type": "note_off", "time": 24, "note": 73, "velocity": 105, "channel": 0}, {"type": "note_on", "time": 6, "note": 71, "velocity": 108, "channel": 0}, {"type": "note_off", "time": 27, "note": 71, "velocity": 108, "channel": 0}, {"type": "note_on", "time": 1, "note": 69, "velocity": 105, "channel": 0}, {"type": "note_off", "time": 83, "note": 69, "velocity": 105, "channel": 0}, {"type": "note_on", "time": 12, "note": 68, "velocity": 102, "channel": 0}, {"type": "note_off", "time": 60, "note": 68, "velocity": 102, "channel": 0}, {"type": "note_on", "time": 31, "note": 67, "velocity": 104, "channel": 0}, {"type": "note_off", "time": 67, "note": 67, "velocity": 104, "channel": 0}, {"type": "note_on", "time": 5, "note": 66, "velocity": 102, "channel": 0}, {"type": "note_off", "time": 41, "note": 66, "velocity": 102, "channel": 0}, {"type": "note_on", "time": 3, "note": 65, "velocity": 103, "channel": 0}, {"type": "note_off", "time": 69, "note": 65, "velocity": 103, "channel": 0}, {"type": "note_on", "time": 4, "note": 64, "velocity": 106, "channel": 0}, {"type": "note_off", "time": 31, "note": 64, "velocity": 106, "channel": 0}, {"type": "note_on", "time": 3, "note": 63, "velocity": 119, "channel": 0}, {"type": "note_off", "time": 73, "note": 63, "velocity": 119, "channel": 0}, {"type": "note_on", "time": 3, "note": 62, "velocity": 115, "channel": 0}, {"type": "note_off", "time": 75, "note": 62, "velocity": 115, "channel": 0}, {"type": "note_on", "time": 4, "note": 61, "velocity": 117, "channel": 0}, {"type": "note_off", "time": 48, "note": 61, "velocity": 117, "channel": 0}, {"type": "note_on", "time": 5, "note": 60, "velocity": 107, "channel": 0}, {"type": "note_off", "time": 133, "note": 60, "velocity": 107, "channel": 0}, {"type": "note_on", "time": 11, "note": 61, "velocity": 111, "channel": 0}, {"type": "note_off", "time": 60, "note": 61, "velocity": 111, "channel": 0}, {"type": "note_on", "time": 9, "note": 62, "velocity": 113, "channel": 0}, {"type": "note_off", "time": 32, "note": 62, "velocity": 113, "channel": 0}, {"type": "note_on", "time": 4, "note": 64, "velocity": 103, "channel": 0}, {"type": "note_off", "time": 50, "note": 64, "velocity": 103, "channel": 0}, {"type": "note_on", "time": 29, "note": 70, "velocity": 103, "channel": 0}, {"type": "note_off", "time": 116, "note": 70, "velocity": 103, "channel": 0}, {"type": "note_on", "time": 3, "note": 68, "velocity": 100, "channel": 0}, {"type": "note_off", "time": 74, "note": 68, "velocity": 100, "channel": 0}, {"type": "note_on", "time": 0, "note": 69, "velocity": 107, "channel": 0}, {"type": "note_off", "time": 69, "note": 69, "velocity": 107, "channel": 0}, {"type": "note_on", "time": 7, "note": 65, "velocity": 102, "channel": 0}, {"type": "note_off", "time": 62, "note": 65, "velocity": 102, "channel": 0}, {"type": "note_on", "time": 5, "note": 64, "velocity": 112, "channel": 0}, {"type": "note_off", "time": 63, "note": 64, "velocity": 112, "channel": 0}, {"type": "note_on", "time": 6, "note": 62, "velocity": 112, "channel": 0}, {"type": "note_off", "time": 50, "note": 62, "velocity": 112, "channel": 0}, {"type": "note_on", "time": 0, "note": 68, "velocity": 107, "channel": 0}, {"type": "note_off", "time": 92, "note": 68, "velocity": 107, "channel": 0}, {"type": "note_on", "time": 18, "note": 65, "velocity": 102, "channel": 0}, {"type": "note_off", "time": 88, "note": 65, "velocity": 102, "channel": 0}, {"type": "note_on", "time": 6, "note": 66, "velocity": 106, "channel": 0}, {"type": "note_off", "time": 86, "note": 66, "velocity": 106, "channel": 0}, {"type": "note_on", "time": 7, "note": 70, "velocity": 106, "channel": 0}, {"type": "note_off", "time": 92, "note": 70, "velocity": 106, "channel": 0}, {"type": "note_on", "time": 15, "note": 65, "velocity": 108, "channel": 0}, {"type": "note_off", "time": 59, "note": 65, "velocity": 108, "channel": 0}, {"type": "note_on", "time": 16, "note": 63, "velocity": 116, "channel": 0}, {"type": "note_off", "time": 97, "note": 63, "velocity": 116, "channel": 0}, {"type": "note_on", "time": 12, "note": 62, "velocity": 109, "channel": 0}, {"type": "note_off", "time": 71, "note": 62, "velocity": 109, "channel": 0}, {"type": "note_on", "time": 0, "note": 60, "velocity": 110, "channel": 0}, {"type": "note_off", "time": 87, "note": 60, "velocity": 110, "channel": 0}, {"type": "note_on", "time": 4, "note": 59, "velocity": 109, "channel": 0}, {"type": "note_off", "time": 96, "note": 59, "velocity": 109, "channel": 0}, {"type": "note_on", "time": 2, "note": 62, "velocity": 108, "channel": 0}, {"type": "note_off", "time": 71, "note": 62, "velocity": 108, "channel": 0}, {"type": "note_on", "time": 1, "note": 65, "velocity": 99, "channel": 0}, {"type": "note_off", "time": 78, "note": 65, "velocity": 99, "channel": 0}, {"type": "note_on", "time": 21, "note": 68, "velocity": 108, "channel": 0}, {"type": "note_off", "time": 111, "note": 68, "velocity": 108, "channel": 0}, {"type": "note_on", "time": 19, "note": 67, "velocity": 96, "channel": 0}, {"type": "note_off", "time": 33, "note": 67, "velocity": 96, "channel": 0}, {"type": "note_on", "time": 8, "note": 66, "velocity": 99, "channel": 0}, {"type": "note_off", "time": 33, "note": 66, "velocity": 99, "channel": 0}, {"type": "note_on", "time": 5, "note": 65, "velocity": 91, "channel": 0}, {"type": "note_off", "time": 39, "note": 65, "velocity": 91, "channel": 0}, {"type": "note_on", "time": 25, "note": 67, "velocity": 109, "channel": 0}, {"type": "note_off", "time": 101, "note": 67, "velocity": 109, "channel": 0}, {"type": "note_on", "time": 6, "note": 65, "velocity": 116, "channel": 0}, {"type": "note_off", "time": 90, "note": 65, "velocity": 116, "channel": 0}, {"type": "note_on", "time": 2, "note": 64, "velocity": 107, "channel": 0}, {"type": "note_off", "time": 108, "note": 64, "velocity": 107, "channel": 0}, {"type": "note_on", "time": 0, "note": 60, "velocity": 119, "channel": 0}, {"type": "note_off", "time": 85, "note": 60, "velocity": 119, "channel": 0}, {"type": "note_on", "time": 9, "note": 57, "velocity": 109, "channel": 0}, {"type": "note_off", "time": 118, "note": 57, "velocity": 109, "channel": 0}, {"type": "note_on", "time": 12, "note": 55, "velocity": 121, "channel": 0}, {"type": "note_off", "time": 55, "note": 55, "velocity": 121, "channel": 0}, {"type": "note_on", "time": 3, "note": 60, "velocity": 117, "channel": 0}, {"type": "note_off", "time": 109, "note": 60, "velocity": 117, "channel": 0}, {"type": "note_on", "time": 4, "note": 64, "velocity": 98, "channel": 0}, {"type": "note_off", "time": 53, "note": 64, "velocity": 98, "channel": 0}, {"type": "note_on", "time": 2, "note": 67, "velocity": 103, "channel": 0}, {"type": "note_off", "time": 98, "note": 67, "velocity": 103, "channel": 0}, {"type": "note_on", "time": 1, "note": 65, "velocity": 111, "channel": 0}, {"type": "note_off", "time": 111, "note": 65, "velocity": 111, "channel": 0}, {"type": "note_on", "time": 289, "note": 53, "velocity": 115, "channel": 0}, {"type": "note_off", "time": 81, "note": 53, "velocity": 115, "channel": 0}, {"type": "note_on", "time": 5, "note": 56, "velocity": 109, "channel": 0}, {"type": "note_off", "time": 89, "note": 56, "velocity": 109, "channel": 0}, {"type": "note_on", "time": 20, "note": 61, "velocity": 111, "channel": 0}, {"type": "note_off", "time": 101, "note": 61, "velocity": 111, "channel": 0}, {"type": "note_on", "time": 6, "note": 59, "velocity": 105, "channel": 0}, {"type": "note_off", "time": 72, "note": 59, "velocity": 105, "channel": 0}, {"type": "note_on", "time": 228, "note": 63, "velocity": 117, "channel": 0}, {"type": "note_off", "time": 73, "note": 63, "velocity": 117, "channel": 0}, {"type": "note_on", "time": 4, "note": 66, "velocity": 108, "channel": 0}, {"type": "note_off", "time": 68, "note": 66, "velocity": 108, "channel": 0}, {"type": "note_on", "time": 22, "note": 70, "velocity": 109, "channel": 0}, {"type": "note_off", "time": 66, "note": 70, "velocity": 109, "channel": 0}, {"type": "note_on", "time": 6, "note": 68, "velocity": 105, "channel": 0}, {"type": "note_off", "time": 98, "note": 68, "velocity": 105, "channel": 0}, {"type": "note_on", "time": 211, "note": 68, "velocity": 112, "channel": 0}, {"type": "note_off", "time": 75, "note": 68, "velocity": 112, "channel": 0}, {"type": "note_on", "time": 13, "note": 71, "velocity": 112, "channel": 0}, {"type": "note_off", "time": 82, "note": 71, "velocity": 112, "channel": 0}, {"type": "note_on", "time": 23, "note": 75, "velocity": 103, "channel": 0}, {"type": "note_off", "time": 57, "note": 75, "velocity": 103, "channel": 0}, {"type": "note_on", "time": 7, "note": 73, "velocity": 98, "channel": 0}, {"type": "note_off", "time": 86, "note": 73, "velocity": 98, "channel": 0}, {"type": "note_on", "time": 245, "note": 70, "velocity": 108, "channel": 0}, {"type": "note_off", "time": 71, "note": 70, "velocity": 108, "channel": 0}, {"type": "note_on", "time": 12, "note": 65, "velocity": 106, "channel": 0}, {"type": "note_off", "time": 92, "note": 65, "velocity": 106, "channel": 0}, {"type": "note_on", "time": 85, "note": 66, "velocity": 102, "channel": 0}, {"type": "note_off", "time": 87, "note": 66, "velocity": 102, "channel": 0}, {"type": "note_on", "time": 210, "note": 68, "velocity": 111, "channel": 0}, {"type": "note_off", "time": 77, "note": 68, "velocity": 111, "channel": 0}, {"type": "note_on", "time": 2, "note": 70, "velocity": 108, "channel": 0}, {"type": "note_off", "time": 68, "note": 70, "velocity": 108, "channel": 0}, {"type": "note_on", "time": 29, "note": 73, "velocity": 104, "channel": 0}, {"type": "note_off", "time": 66, "note": 73, "velocity": 104, "channel": 0}, {"type": "note_on", "time": 3, "note": 72, "velocity": 107, "channel": 0}, {"type": "note_off", "time": 112, "note": 72, "velocity": 107, "channel": 0}, {"type": "note_on", "time": 199, "note": 68, "velocity": 110, "channel": 0}, {"type": "note_off", "time": 77, "note": 68, "velocity": 110, "channel": 0}, {"type": "note_on", "time": 11, "note": 63, "velocity": 114, "channel": 0}, {"type": "note_off", "time": 92, "note": 63, "velocity": 114, "channel": 0}, {"type": "note_on", "time": 3, "note": 68, "velocity": 105, "channel": 0}, {"type": "note_off", "time": 89, "note": 68, "velocity": 105, "channel": 0}, {"type": "note_on", "time": 4, "note": 62, "velocity": 111, "channel": 0}, {"type": "note_off", "time": 104, "note": 62, "velocity": 111, "channel": 0}, {"type": "note_on", "time": 233, "note": 57, "velocity": 112, "channel": 0}, {"type": "note_off", "time": 105, "note": 57, "velocity": 112, "channel": 0}, {"type": "note_on", "time": 5, "note": 54, "velocity": 107, "channel": 0}, {"type": "note_off", "time": 67, "note": 54, "velocity": 107, "channel": 0}, {"type": "note_on", "time": 96, "note": 71, "velocity": 111, "channel": 0}, {"type": "note_off", "time": 88, "note": 71, "velocity": 111, "channel": 0}, {"type": "note_on", "time": 10, "note": 68, "velocity": 101, "channel": 0}, {"type": "note_off", "time": 159, "note": 68, "velocity": 101, "channel": 0}, {"type": "note_on", "time": 10, "note": 69, "velocity": 94, "channel": 0}, {"type": "note_off", "time": 86, "note": 69, "velocity": 94, "channel": 0}, {"type": "note_on", "time": 195, "note": 68, "velocity": 107, "channel": 0}, {"type": "note_off", "time": 95, "note": 68, "velocity": 107, "channel": 0}, {"type": "note_on", "time": 44, "note": 65, "velocity": 107, "channel": 0}, {"type": "note_off", "time": 43, "note": 65, "velocity": 107, "channel": 0}, {"type": "note_on", "time": 2, "note": 66, "velocity": 102, "channel": 0}, {"type": "note_off", "time": 86, "note": 66, "velocity": 102, "channel": 0}, {"type": "note_on", "time": 31, "note": 70, "velocity": 102, "channel": 0}, {"type": "note_off", "time": 98, "note": 70, "velocity": 102, "channel": 0}, {"type": "note_on", "time": 8, "note": 65, "velocity": 106, "channel": 0}, {"type": "note_off", "time": 77, "note": 65, "velocity": 106, "channel": 0}, {"type": "note_on", "time": 3, "note": 61, "velocity": 110, "channel": 0}, {"type": "note_off", "time": 97, "note": 61, "velocity": 110, "channel": 0}, {"type": "note_on", "time": 1, "note": 58, "velocity": 97, "channel": 0}, {"type": "note_off", "time": 89, "note": 58, "velocity": 97, "channel": 0}, {"type": "note_on", "time": 87, "note": 61, "velocity": 117, "channel": 0}, {"type": "note_off", "time": 106, "note": 61, "velocity": 117, "channel": 0}, {"type": "note_on", "time": 3, "note": 63, "velocity": 117, "channel": 0}, {"type": "note_off", "time": 74, "note": 63, "velocity": 117, "channel": 0}, {"type": "note_on", "time": 9, "note": 65, "velocity": 111, "channel": 0}, {"type": "note_off", "time": 78, "note": 65, "velocity": 111, "channel": 0}, {"type": "note_on", "time": 22, "note": 68, "velocity": 109, "channel": 0}, {"type": "note_off", "time": 67, "note": 68, "velocity": 109, "channel": 0}, {"type": "note_on", "time": 5, "note": 69, "velocity": 106, "channel": 0}, {"type": "note_off", "time": 88, "note": 69, "velocity": 106, "channel": 0}, {"type": "note_on", "time": 222, "note": 65, "velocity": 116, "channel": 0}, {"type": "note_off", "time": 36, "note": 65, "velocity": 116, "channel": 0}, {"type": "note_on", "time": 2, "note": 67, "velocity": 108, "channel": 0}, {"type": "note_off", "time": 105, "note": 67, "velocity": 108, "channel": 0}, {"type": "note_on", "time": 29, "note": 72, "velocity": 99, "channel": 0}, {"type": "note_off", "time": 99, "note": 72, "velocity": 99, "channel": 0}, {"type": "note_on", "time": 7, "note": 75, "velocity": 111, "channel": 0}, {"type": "note_off", "time": 86, "note": 75, "velocity": 111, "channel": 0}, {"type": "note_on", "time": 208, "note": 73, "velocity": 104, "channel": 0}, {"type": "note_off", "time": 90, "note": 73, "velocity": 104, "channel": 0}, {"type": "note_on", "time": 2, "note": 69, "velocity": 102, "channel": 0}, {"type": "note_off", "time": 65, "note": 69, "velocity": 102, "channel": 0}, {"type": "note_on", "time": 6, "note": 67, "velocity": 99, "channel": 0}, {"type": "note_off", "time": 62, "note": 67, "velocity": 99, "channel": 0}, {"type": "note_on", "time": 36, "note": 74, "velocity": 98, "channel": 0}, {"type": "note_off", "time": 26, "note": 74, "velocity": 98, "channel": 0}, {"type": "note_on", "time": 4, "note": 72, "velocity": 107, "channel": 0}, {"type": "note_off", "time": 64, "note": 72, "velocity": 107, "channel": 0}, {"type": "note_on", "time": 179, "note": 70, "velocity": 111, "channel": 0}, {"type": "note_off", "time": 56, "note": 70, "velocity": 111, "channel": 0}, {"type": "note_on", "time": 9, "note": 65, "velocity": 117, "channel": 0}, {"type": "note_off", "time": 27, "note": 65, "velocity": 117, "channel": 0}, {"type": "note_on", "time": 4, "note": 64, "velocity": 110, "channel": 0}, {"type": "note_off", "time": 73, "note": 64, "velocity": 110, "channel": 0}, {"type": "note_on", "time": 16, "note": 69, "velocity": 107, "channel": 0}, {"type": "note_off", "time": 53, "note": 69, "velocity": 107, "channel": 0}, {"type": "note_on", "time": 26, "note": 63, "velocity": 113, "channel": 0}, {"type": "note_off", "time": 123, "note": 63, "velocity": 113, "channel": 0}, {"type": "note_on", "time": 170, "note": 61, "velocity": 115, "channel": 0}, {"type": "note_off", "time": 106, "note": 61, "velocity": 115, "channel": 0}, {"type": "note_on", "time": 2, "note": 58, "velocity": 108, "channel": 0}, {"type": "note_off", "time": 78, "note": 58, "velocity": 108, "channel": 0}, {"type": "note_on", "time": 4, "note": 55, "velocity": 103, "channel": 0}, {"type": "note_off", "time": 55, "note": 55, "velocity": 103, "channel": 0}, {"type": "note_on", "time": 42, "note": 60, "velocity": 119, "channel": 0}, {"type": "note_off", "time": 94, "note": 60, "velocity": 119, "channel": 0}, {"type": "note_on", "time": 178, "note": 57, "velocity": 113, "channel": 0}, {"type": "note_off", "time": 105, "note": 57, "velocity": 113, "channel": 0}, {"type": "note_on", "time": 9, "note": 54, "velocity": 110, "channel": 0}, {"type": "note_off", "time": 59, "note": 54, "velocity": 110, "channel": 0}, {"type": "note_on", "time": 4, "note": 59, "velocity": 108, "channel": 0}, {"type": "note_off", "time": 94, "note": 59, "velocity": 108, "channel": 0}, {"type": "note_on", "time": 8, "note": 50, "velocity": 112, "channel": 0}, {"type": "note_off", "time": 98, "note": 50, "velocity": 112, "channel": 0}, {"type": "note_on", "time": 175, "note": 54, "velocity": 118, "channel": 0}, {"type": "note_off", "time": 78, "note": 54, "velocity": 118, "channel": 0}, {"type": "note_on", "time": 6, "note": 57, "velocity": 117, "channel": 0}, {"type": "note_off", "time": 66, "note": 57, "velocity": 117, "channel": 0}, {"type": "note_on", "time": 31, "note": 61, "velocity": 109, "channel": 0}, {"type": "note_off", "time": 82, "note": 61, "velocity": 109, "channel": 0}, {"type": "note_on", "time": 6, "note": 59, "velocity": 110, "channel": 0}, {"type": "note_off", "time": 92, "note": 59, "velocity": 110, "channel": 0}, {"type": "note_on", "time": 7, "note": 61, "velocity": 109, "channel": 0}, {"type": "note_off", "time": 66, "note": 61, "velocity": 109, "channel": 0}, {"type": "note_on", "time": 16, "note": 62, "velocity": 112, "channel": 0}, {"type": "note_off", "time": 91, "note": 62, "velocity": 112, "channel": 0}, {"type": "note_on", "time": 8, "note": 64, "velocity": 108, "channel": 0}, {"type": "note_off", "time": 73, "note": 64, "velocity": 108, "channel": 0}, {"type": "note_on", "time": 9, "note": 66, "velocity": 101, "channel": 0}, {"type": "note_off", "time": 97, "note": 66, "velocity": 101, "channel": 0}, {"type": "note_on", "time": 5, "note": 69, "velocity": 108, "channel": 0}, {"type": "note_off", "time": 86, "note": 69, "velocity": 108, "channel": 0}, {"type": "note_on", "time": 14, "note": 68, "velocity": 98, "channel": 0}, {"type": "note_off", "time": 117, "note": 68, "velocity": 98, "channel": 0}, {"type": "note_on", "time": 49, "note": 61, "velocity": 99, "channel": 0}, {"type": "note_off", "time": 123, "note": 61, "velocity": 99, "channel": 0}, {"type": "note_on", "time": 289, "note": 55, "velocity": 111, "channel": 0}, {"type": "note_off", "time": 76, "note": 55, "velocity": 111, "channel": 0}, {"type": "note_on", "time": 11, "note": 56, "velocity": 118, "channel": 0}, {"type": "note_off", "time": 74, "note": 56, "velocity": 118, "channel": 0}, {"type": "note_on", "time": 7, "note": 57, "velocity": 118, "channel": 0}, {"type": "note_off", "time": 77, "note": 57, "velocity": 118, "channel": 0}, {"type": "note_on", "time": 5, "note": 53, "velocity": 115, "channel": 0}, {"type": "note_off", "time": 109, "note": 53, "velocity": 115, "channel": 0}, {"type": "note_on", "time": 2, "note": 52, "velocity": 111, "channel": 0}, {"type": "note_off", "time": 80, "note": 52, "velocity": 111, "channel": 0}, {"type": "note_on", "time": 8, "note": 50, "velocity": 111, "channel": 0}, {"type": "note_off", "time": 73, "note": 50, "velocity": 111, "channel": 0}, {"type": "note_on", "time": 5, "note": 55, "velocity": 107, "channel": 0}, {"type": "note_off", "time": 87, "note": 55, "velocity": 107, "channel": 0}, {"type": "note_on", "time": 20, "note": 53, "velocity": 125, "channel": 0}, {"type": "note_off", "time": 53, "note": 53, "velocity": 125, "channel": 0}, {"type": "note_on", "time": 4, "note": 52, "velocity": 119, "channel": 0}, {"type": "note_off", "time": 59, "note": 52, "velocity": 119, "channel": 0}, {"type": "note_on", "time": 57, "note": 53, "velocity": 116, "channel": 0}, {"type": "note_off", "time": 34, "note": 53, "velocity": 116, "channel": 0}, {"type": "note_on", "time": 11, "note": 57, "velocity": 115, "channel": 0}, {"type": "note_off", "time": 82, "note": 57, "velocity": 115, "channel": 0}, {"type": "note_on", "time": 13, "note": 60, "velocity": 115, "channel": 0}, {"type": "note_off", "time": 92, "note": 60, "velocity": 115, "channel": 0}, {"type": "note_on", "time": 11, "note": 64, "velocity": 118, "channel": 0}, {"type": "note_off", "time": 78, "note": 64, "velocity": 118, "channel": 0}, {"type": "note_on", "time": 20, "note": 67, "velocity": 111, "channel": 0}, {"type": "note_off", "time": 81, "note": 67, "velocity": 111, "channel": 0}, {"type": "note_on", "time": 4, "note": 65, "velocity": 107, "channel": 0}, {"type": "note_off", "time": 125, "note": 65, "velocity": 107, "channel": 0}, {"type": "note_on", "time": 3, "note": 62, "velocity": 104, "channel": 0}, {"type": "note_off", "time": 51, "note": 62, "velocity": 104, "channel": 0}, {"type": "note_on", "time": 12, "note": 64, "velocity": 113, "channel": 0}, {"type": "note_off", "time": 272, "note": 64, "velocity": 113, "channel": 0}, {"type": "note_on", "time": 319, "note": 63, "velocity": 116, "channel": 0}, {"type": "note_off", "time": 78, "note": 63, "velocity": 116, "channel": 0}, {"type": "note_on", "time": 4, "note": 62, "velocity": 114, "channel": 0}, {"type": "note_off", "time": 76, "note": 62, "velocity": 114, "channel": 0}, {"type": "note_on", "time": 6, "note": 63, "velocity": 114, "channel": 0}, {"type": "note_off", "time": 90, "note": 63, "velocity": 114, "channel": 0}, {"type": "note_on", "time": 6, "note": 65, "velocity": 114, "channel": 0}, {"type": "note_off", "time": 88, "note": 65, "velocity": 114, "channel": 0}, {"type": "note_on", "time": 6, "note": 66, "velocity": 103, "channel": 0}, {"type": "note_off", "time": 91, "note": 66, "velocity": 103, "channel": 0}, {"type": "note_on", "time": 7, "note": 68, "velocity": 97, "channel": 0}, {"type": "note_off", "time": 81, "note": 68, "velocity": 97, "channel": 0}, {"type": "note_on", "time": 10, "note": 70, "velocity": 102, "channel": 0}, {"type": "note_off", "time": 82, "note": 70, "velocity": 102, "channel": 0}, {"type": "note_on", "time": 13, "note": 66, "velocity": 103, "channel": 0}, {"type": "note_off", "time": 69, "note": 66, "velocity": 103, "channel": 0}, {"type": "note_on", "time": 4, "note": 65, "velocity": 109, "channel": 0}, {"type": "note_off", "time": 107, "note": 65, "velocity": 109, "channel": 0}, {"type": "note_on", "time": 6, "note": 64, "velocity": 113, "channel": 0}, {"type": "note_off", "time": 103, "note": 64, "velocity": 113, "channel": 0}, {"type": "note_on", "time": 4, "note": 63, "velocity": 110, "channel": 0}, {"type": "note_off", "time": 97, "note": 63, "velocity": 110, "channel": 0}, {"type": "note_on", "time": 6, "note": 65, "velocity": 119, "channel": 0}, {"type": "note_off", "time": 89, "note": 65, "velocity": 119, "channel": 0}, {"type": "note_on", "time": 2, "note": 66, "velocity": 113, "channel": 0}, {"type": "note_off", "time": 75, "note": 66, "velocity": 113, "channel": 0}, {"type": "note_on", "time": 4, "note": 68, "velocity": 108, "channel": 0}, {"type": "note_off", "time": 79, "note": 68, "velocity": 108, "channel": 0}, {"type": "note_on", "time": 10, "note": 70, "velocity": 108, "channel": 0}, {"type": "note_off", "time": 96, "note": 70, "velocity": 108, "channel": 0}, {"type": "note_on", "time": 9, "note": 75, "velocity": 107, "channel": 0}, {"type": "note_off", "time": 84, "note": 75, "velocity": 107, "channel": 0}, {"type": "note_on", "time": 8, "note": 73, "velocity": 105, "channel": 0}, {"type": "note_off", "time": 82, "note": 73, "velocity": 105, "channel": 0}, {"type": "note_on", "time": 13, "note": 71, "velocity": 112, "channel": 0}, {"type": "note_off", "time": 93, "note": 71, "velocity": 112, "channel": 0}, {"type": "note_on", "time": 4, "note": 70, "velocity": 102, "channel": 0}, {"type": "note_off", "time": 106, "note": 70, "velocity": 102, "channel": 0}, {"type": "note_on", "time": 5, "note": 66, "velocity": 100, "channel": 0}, {"type": "note_off", "time": 83, "note": 66, "velocity": 100, "channel": 0}, {"type": "note_on", "time": 12, "note": 63, "velocity": 112, "channel": 0}, {"type": "note_off", "time": 68, "note": 63, "velocity": 112, "channel": 0}, {"type": "note_on", "time": 4, "note": 61, "velocity": 109, "channel": 0}, {"type": "note_off", "time": 78, "note": 61, "velocity": 109, "channel": 0}, {"type": "note_on", "time": 16, "note": 66, "velocity": 104, "channel": 0}, {"type": "note_off", "time": 136, "note": 66, "velocity": 104, "channel": 0}, {"type": "note_on", "time": 628, "note": 71, "velocity": 104, "channel": 0}, {"type": "note_off", "time": 46, "note": 71, "velocity": 104, "channel": 0}, {"type": "note_on", "time": 4, "note": 67, "velocity": 109, "channel": 0}, {"type": "note_off", "time": 41, "note": 67, "velocity": 109, "channel": 0}, {"type": "note_on", "time": 6, "note": 66, "velocity": 114, "channel": 0}, {"type": "note_off", "time": 42, "note": 66, "velocity": 114, "channel": 0}, {"type": "note_on", "time": 2, "note": 65, "velocity": 117, "channel": 0}, {"type": "note_off", "time": 88, "note": 65, "velocity": 117, "channel": 0}, {"type": "note_on", "time": 28, "note": 64, "velocity": 119, "channel": 0}, {"type": "note_off", "time": 67, "note": 64, "velocity": 119, "channel": 0}, {"type": "note_on", "time": 6, "note": 63, "velocity": 119, "channel": 0}, {"type": "note_off", "time": 71, "note": 63, "velocity": 119, "channel": 0}, {"type": "note_on", "time": 125, "note": 70, "velocity": 100, "channel": 0}, {"type": "note_off", "time": 63, "note": 70, "velocity": 100, "channel": 0}, {"type": "note_on", "time": 4, "note": 68, "velocity": 108, "channel": 0}, {"type": "note_off", "time": 43, "note": 68, "velocity": 108, "channel": 0}, {"type": "note_on", "time": 6, "note": 67, "velocity": 106, "channel": 0}, {"type": "note_off", "time": 32, "note": 67, "velocity": 106, "channel": 0}, {"type": "note_on", "time": 2, "note": 66, "velocity": 112, "channel": 0}, {"type": "note_off", "time": 55, "note": 66, "velocity": 112, "channel": 0}, {"type": "note_on", "time": 4, "note": 65, "velocity": 116, "channel": 0}, {"type": "note_off", "time": 67, "note": 65, "velocity": 116, "channel": 0}, {"type": "note_on", "time": 5, "note": 64, "velocity": 116, "channel": 0}, {"type": "note_off", "time": 95, "note": 64, "velocity": 116, "channel": 0}, {"type": "note_on", "time": 4, "note": 63, "velocity": 114, "channel": 0}, {"type": "note_off", "time": 85, "note": 63, "velocity": 114, "channel": 0}, {"type": "note_on", "time": 11, "note": 60, "velocity": 90, "channel": 0}, {"type": "note_off", "time": 60, "note": 60, "velocity": 90, "channel": 0}, {"type": "note_on", "time": 75, "note": 69, "velocity": 108, "channel": 0}, {"type": "note_off", "time": 44, "note": 69, "velocity": 108, "channel": 0}, {"type": "note_on", "time": 6, "note": 68, "velocity": 112, "channel": 0}, {"type": "note_off", "time": 46, "note": 68, "velocity": 112, "channel": 0}, {"type": "note_on", "time": 6, "note": 66, "velocity": 110, "channel": 0}, {"type": "note_off", "time": 69, "note": 66, "velocity": 110, "channel": 0}, {"type": "note_on", "time": 4, "note": 65, "velocity": 112, "channel": 0}, {"type": "note_off", "time": 74, "note": 65, "velocity": 112, "channel": 0}, {"type": "note_on", "time": 4, "note": 64, "velocity": 115, "channel": 0}, {"type": "note_off", "time": 65, "note": 64, "velocity": 115, "channel": 0}, {"type": "note_on", "time": 6, "note": 63, "velocity": 121, "channel": 0}, {"type": "note_off", "time": 89, "note": 63, "velocity": 121, "channel": 0}, {"type": "note_on", "time": 3, "note": 61, "velocity": 106, "channel": 0}, {"type": "note_off", "time": 43, "note": 61, "velocity": 106, "channel": 0}, {"type": "note_on", "time": 93, "note": 73, "velocity": 104, "channel": 0}, {"type": "note_off", "time": 102, "note": 73, "velocity": 104, "channel": 0}, {"type": "note_on", "time": 5, "note": 72, "velocity": 113, "channel": 0}, {"type": "note_off", "time": 105, "note": 72, "velocity": 113, "channel": 0}, {"type": "note_on", "time": 5, "note": 70, "velocity": 98, "channel": 0}, {"type": "note_off", "time": 64, "note": 70, "velocity": 98, "channel": 0}, {"type": "note_on", "time": 17, "note": 70, "velocity": 103, "channel": 0}, {"type": "note_off", "time": 39, "note": 70, "velocity": 103, "channel": 0}, {"type": "note_on", "time": 5, "note": 69, "velocity": 111, "channel": 0}, {"type": "note_off", "time": 48, "note": 69, "velocity": 111, "channel": 0}, {"type": "note_on", "time": 4, "note": 68, "velocity": 101, "channel": 0}, {"type": "note_off", "time": 152, "note": 68, "velocity": 101, "channel": 0}, {"type": "note_on", "time": 7, "note": 66, "velocity": 109, "channel": 0}, {"type": "note_off", "time": 47, "note": 66, "velocity": 109, "channel": 0}, {"type": "note_on", "time": 18, "note": 70, "velocity": 98, "channel": 0}, {"type": "note_off", "time": 69, "note": 70, "velocity": 98, "channel": 0}, {"type": "note_on", "time": 34, "note": 67, "velocity": 104, "channel": 0}, {"type": "note_off", "time": 51, "note": 67, "velocity": 104, "channel": 0}, {"type": "note_on", "time": 2, "note": 68, "velocity": 100, "channel": 0}, {"type": "note_off", "time": 58, "note": 68, "velocity": 100, "channel": 0}, {"type": "note_on", "time": 7, "note": 69, "velocity": 111, "channel": 0}, {"type": "note_off", "time": 98, "note": 69, "velocity": 111, "channel": 0}, {"type": "note_on", "time": 75, "note": 61, "velocity": 108, "channel": 0}, {"type": "note_off", "time": 28, "note": 61, "velocity": 108, "channel": 0}, {"type": "note_on", "time": 10, "note": 63, "velocity": 98, "channel": 0}, {"type": "note_off", "time": 34, "note": 63, "velocity": 98, "channel": 0}, {"type": "note_on", "time": 32, "note": 68, "velocity": 111, "channel": 0}, {"type": "note_off", "time": 124, "note": 68, "velocity": 111, "channel": 0}, {"type": "note_on", "time": 8, "note": 68, "velocity": 112, "channel": 0}, {"type": "note_off", "time": 90, "note": 68, "velocity": 112, "channel": 0}, {"type": "note_on", "time": 4, "note": 67, "velocity": 112, "channel": 0}, {"type": "note_off", "time": 58, "note": 67, "velocity": 112, "channel": 0}, {"type": "note_on", "time": 12, "note": 66, "velocity": 105, "channel": 0}, {"type": "note_off", "time": 83, "note": 66, "velocity": 105, "channel": 0}, {"type": "note_on", "time": 1, "note": 65, "velocity": 113, "channel": 0}, {"type": "note_off", "time": 78, "note": 65, "velocity": 113, "channel": 0}, {"type": "note_on", "time": 4, "note": 64, "velocity": 112, "channel": 0}, {"type": "note_off", "time": 95, "note": 64, "velocity": 112, "channel": 0}, {"type": "note_on", "time": 3, "note": 63, "velocity": 116, "channel": 0}, {"type": "note_off", "time": 84, "note": 63, "velocity": 116, "channel": 0}, {"type": "note_on", "time": 7, "note": 62, "velocity": 115, "channel": 0}, {"type": "note_off", "time": 92, "note": 62, "velocity": 115, "channel": 0}, {"type": "note_on", "time": 5, "note": 61, "velocity": 108, "channel": 0}, {"type": "note_off", "time": 98, "note": 61, "velocity": 108, "channel": 0}, {"type": "note_on", "time": 4, "note": 60, "velocity": 111, "channel": 0}, {"type": "note_off", "time": 95, "note": 60, "velocity": 111, "channel": 0}, {"type": "note_on", "time": 10, "note": 58, "velocity": 107, "channel": 0}, {"type": "note_off", "time": 90, "note": 58, "velocity": 107, "channel": 0}, {"type": "note_on", "time": 2, "note": 56, "velocity": 108, "channel": 0}, {"type": "note_off", "time": 87, "note": 56, "velocity": 108, "channel": 0}, {"type": "note_on", "time": 3, "note": 55, "velocity": 108, "channel": 0}, {"type": "note_off", "time": 104, "note": 55, "velocity": 108, "channel": 0}, {"type": "note_on", "time": 10, "note": 53, "velocity": 115, "channel": 0}, {"type": "note_off", "time": 97, "note": 53, "velocity": 115, "channel": 0}, {"type": "note_on", "time": 1, "note": 54, "velocity": 111, "channel": 0}, {"type": "note_off", "time": 73, "note": 54, "velocity": 111, "channel": 0}, {"type": "note_on", "time": 33, "note": 58, "velocity": 103, "channel": 0}, {"type": "note_off", "time": 88, "note": 58, "velocity": 103, "channel": 0}, {"type": "note_on", "time": 13, "note": 55, "velocity": 109, "channel": 0}, {"type": "note_off", "time": 94, "note": 55, "velocity": 109, "channel": 0}, {"type": "note_on", "time": 0, "note": 56, "velocity": 114, "channel": 0}, {"type": "note_off", "time": 71, "note": 56, "velocity": 114, "channel": 0}, {"type": "note_on", "time": 5, "note": 57, "velocity": 118, "channel": 0}, {"type": "note_off", "time": 88, "note": 57, "velocity": 118, "channel": 0}, {"type": "note_on", "time": 5, "note": 53, "velocity": 114, "channel": 0}, {"type": "note_off", "time": 111, "note": 53, "velocity": 114, "channel": 0}, {"type": "note_on", "time": 13, "note": 49, "velocity": 103, "channel": 0}, {"type": "note_off", "time": 99, "note": 49, "velocity": 103, "channel": 0}, {"type": "note_on", "time": 4, "note": 51, "velocity": 105, "channel": 0}, {"type": "note_off", "time": 93, "note": 51, "velocity": 105, "channel": 0}, {"type": "note_on", "time": 5, "note": 47, "velocity": 113, "channel": 0}, {"type": "note_off", "time": 139, "note": 47, "velocity": 113, "channel": 0}, {"type": "note_on", "time": 947, "note": 67, "velocity": 112, "channel": 0}, {"type": "note_off", "time": 67, "note": 67, "velocity": 112, "channel": 0}, {"type": "note_on", "time": 0, "note": 68, "velocity": 109, "channel": 0}, {"type": "note_off", "time": 113, "note": 68, "velocity": 109, "channel": 0}, {"type": "note_on", "time": 6, "note": 71, "velocity": 109, "channel": 0}, {"type": "note_off", "time": 86, "note": 71, "velocity": 109, "channel": 0}, {"type": "note_on", "time": 7, "note": 73, "velocity": 109, "channel": 0}, {"type": "note_off", "time": 95, "note": 73, "velocity": 109, "channel": 0}, {"type": "note_on", "time": 2, "note": 71, "velocity": 110, "channel": 0}, {"type": "note_off", "time": 98, "note": 71, "velocity": 110, "channel": 0}, {"type": "note_on", "time": 2, "note": 69, "velocity": 110, "channel": 0}, {"type": "note_off", "time": 62, "note": 69, "velocity": 110, "channel": 0}, {"type": "note_on", "time": 4, "note": 68, "velocity": 109, "channel": 0}, {"type": "note_off", "time": 109, "note": 68, "velocity": 109, "channel": 0}, {"type": "note_on", "time": 7, "note": 69, "velocity": 104, "channel": 0}, {"type": "note_off", "time": 74, "note": 69, "velocity": 104, "channel": 0}, {"type": "note_on", "time": 4, "note": 70, "velocity": 105, "channel": 0}, {"type": "note_off", "time": 60, "note": 70, "velocity": 105, "channel": 0}, {"type": "note_on", "time": 15, "note": 73, "velocity": 107, "channel": 0}, {"type": "note_off", "time": 106, "note": 73, "velocity": 107, "channel": 0}, {"type": "note_on", "time": 2, "note": 71, "velocity": 101, "channel": 0}, {"type": "note_off", "time": 111, "note": 71, "velocity": 101, "channel": 0}, {"type": "note_on", "time": 3, "note": 69, "velocity": 112, "channel": 0}, {"type": "note_off", "time": 59, "note": 69, "velocity": 112, "channel": 0}, {"type": "note_on", "time": 7, "note": 68, "velocity": 106, "channel": 0}, {"type": "note_off", "time": 113, "note": 68, "velocity": 106, "channel": 0}, {"type": "note_on", "time": 2, "note": 69, "velocity": 101, "channel": 0}, {"type": "note_off", "time": 68, "note": 69, "velocity": 101, "channel": 0}, {"type": "note_on", "time": 4, "note": 70, "velocity": 108, "channel": 0}, {"type": "note_off", "time": 73, "note": 70, "velocity": 108, "channel": 0}, {"type": "note_on", "time": 12, "note": 73, "velocity": 106, "channel": 0}, {"type": "note_off", "time": 106, "note": 73, "velocity": 106, "channel": 0}, {"type": "note_on", "time": 5, "note": 71, "velocity": 107, "channel": 0}, {"type": "note_off", "time": 84, "note": 71, "velocity": 107, "channel": 0}, {"type": "note_on", "time": 5, "note": 71, "velocity": 100, "channel": 0}, {"type": "note_off", "time": 44, "note": 71, "velocity": 100, "channel": 0}, {"type": "note_on", "time": 2, "note": 68, "velocity": 107, "channel": 0}, {"type": "note_off", "time": 48, "note": 68, "velocity": 107, "channel": 0}, {"type": "note_on", "time": 8, "note": 67, "velocity": 110, "channel": 0}, {"type": "note_off", "time": 72, "note": 67, "velocity": 110, "channel": 0}, {"type": "note_on", "time": 10, "note": 68, "velocity": 98, "channel": 0}, {"type": "note_off", "time": 69, "note": 68, "velocity": 98, "channel": 0}, {"type": "note_on", "time": 1, "note": 69, "velocity": 99, "channel": 0}, {"type": "note_off", "time": 34, "note": 69, "velocity": 99, "channel": 0}, {"type": "note_on", "time": 4, "note": 70, "velocity": 108, "channel": 0}, {"type": "note_off", "time": 36, "note": 70, "velocity": 108, "channel": 0}, {"type": "note_on", "time": 4, "note": 71, "velocity": 108, "channel": 0}, {"type": "note_off", "time": 47, "note": 71, "velocity": 108, "channel": 0}, {"type": "note_on", "time": 8, "note": 73, "velocity": 107, "channel": 0}, {"type": "note_off", "time": 68, "note": 73, "velocity": 107, "channel": 0}, {"type": "note_on", "time": 4, "note": 71, "velocity": 104, "channel": 0}, {"type": "note_off", "time": 94, "note": 71, "velocity": 104, "channel": 0}, {"type": "note_on", "time": 3, "note": 69, "velocity": 106, "channel": 0}, {"type": "note_off", "time": 67, "note": 69, "velocity": 106, "channel": 0}, {"type": "note_on", "time": 4, "note": 68, "velocity": 103, "channel": 0}, {"type": "note_off", "time": 81, "note": 68, "velocity": 103, "channel": 0}, {"type": "note_on", "time": 12, "note": 69, "velocity": 104, "channel": 0}, {"type": "note_off", "time": 58, "note": 69, "velocity": 104, "channel": 0}, {"type": "note_on", "time": 5, "note": 70, "velocity": 112, "channel": 0}, {"type": "note_off", "time": 59, "note": 70, "velocity": 112, "channel": 0}, {"type": "note_on", "time": 1, "note": 71, "velocity": 105, "channel": 0}, {"type": "note_off", "time": 60, "note": 71, "velocity": 105, "channel": 0}, {"type": "note_on", "time": 4, "note": 72, "velocity": 107, "channel": 0}, {"type": "note_off", "time": 58, "note": 72, "velocity": 107, "channel": 0}, {"type": "note_on", "time": 0, "note": 71, "velocity": 107, "channel": 0}, {"type": "note_off", "time": 129, "note": 71, "velocity": 107, "channel": 0}, {"type": "note_on", "time": 9, "note": 69, "velocity": 105, "channel": 0}, {"type": "note_off", "time": 88, "note": 69, "velocity": 105, "channel": 0}, {"type": "note_on", "time": 9, "note": 67, "velocity": 104, "channel": 0}, {"type": "note_off", "time": 72, "note": 67, "velocity": 104, "channel": 0}, {"type": "note_on", "time": 19, "note": 69, "velocity": 97, "channel": 0}, {"type": "note_off", "time": 89, "note": 69, "velocity": 97, "channel": 0}, {"type": "note_on", "time": 3, "note": 71, "velocity": 109, "channel": 0}, {"type": "note_off", "time": 63, "note": 71, "velocity": 109, "channel": 0}, {"type": "note_on", "time": 0, "note": 72, "velocity": 109, "channel": 0}, {"type": "note_off", "time": 70, "note": 72, "velocity": 109, "channel": 0}, {"type": "note_on", "time": 4, "note": 71, "velocity": 108, "channel": 0}, {"type": "note_off", "time": 95, "note": 71, "velocity": 108, "channel": 0}, {"type": "note_on", "time": 29, "note": 69, "velocity": 100, "channel": 0}, {"type": "note_off", "time": 100, "note": 69, "velocity": 100, "channel": 0}, {"type": "note_on", "time": 2, "note": 68, "velocity": 100, "channel": 0}, {"type": "note_off", "time": 66, "note": 68, "velocity": 100, "channel": 0}, {"type": "note_on", "time": 4, "note": 69, "velocity": 101, "channel": 0}, {"type": "note_off", "time": 90, "note": 69, "velocity": 101, "channel": 0}, {"type": "note_on", "time": 5, "note": 70, "velocity": 111, "channel": 0}, {"type": "note_off", "time": 112, "note": 70, "velocity": 111, "channel": 0}, {"type": "note_on", "time": 7, "note": 72, "velocity": 106, "channel": 0}, {"type": "note_off", "time": 69, "note": 72, "velocity": 106, "channel": 0}, {"type": "note_on", "time": 5, "note": 71, "velocity": 106, "channel": 0}, {"type": "note_off", "time": 104, "note": 71, "velocity": 106, "channel": 0}, {"type": "note_on", "time": 5, "note": 69, "velocity": 107, "channel": 0}, {"type": "note_off", "time": 89, "note": 69, "velocity": 107, "channel": 0}, {"type": "note_on", "time": 1, "note": 68, "velocity": 106, "channel": 0}, {"type": "note_off", "time": 109, "note": 68, "velocity": 106, "channel": 0}, {"type": "note_on", "time": 3, "note": 70, "velocity": 95, "channel": 0}, {"type": "note_off", "time": 71, "note": 70, "velocity": 95, "channel": 0}, {"type": "note_on", "time": 7, "note": 70, "velocity": 107, "channel": 0}, {"type": "note_off", "time": 71, "note": 70, "velocity": 107, "channel": 0}, {"type": "note_on", "time": 15, "note": 73, "velocity": 109, "channel": 0}, {"type": "note_off", "time": 84, "note": 73, "velocity": 109, "channel": 0}, {"type": "note_on", "time": 4, "note": 71, "velocity": 109, "channel": 0}, {"type": "note_off", "time": 88, "note": 71, "velocity": 109, "channel": 0}, {"type": "note_on", "time": 3, "note": 70, "velocity": 105, "channel": 0}, {"type": "note_off", "time": 84, "note": 70, "velocity": 105, "channel": 0}, {"type": "note_on", "time": 4, "note": 68, "velocity": 104, "channel": 0}, {"type": "note_off", "time": 133, "note": 68, "velocity": 104, "channel": 0}, {"type": "note_on", "time": 6, "note": 70, "velocity": 100, "channel": 0}, {"type": "note_off", "time": 92, "note": 70, "velocity": 100, "channel": 0}, {"type": "note_on", "time": 5, "note": 71, "velocity": 101, "channel": 0}, {"type": "note_off", "time": 69, "note": 71, "velocity": 101, "channel": 0}, {"type": "note_on", "time": 7, "note": 73, "velocity": 106, "channel": 0}, {"type": "note_off", "time": 50, "note": 73, "velocity": 106, "channel": 0}, {"type": "note_on", "time": 5, "note": 71, "velocity": 112, "channel": 0}, {"type": "note_off", "time": 94, "note": 71, "velocity": 112, "channel": 0}, {"type": "note_on", "time": 4, "note": 70, "velocity": 106, "channel": 0}, {"type": "note_off", "time": 80, "note": 70, "velocity": 106, "channel": 0}, {"type": "note_on", "time": 13, "note": 66, "velocity": 108, "channel": 0}, {"type": "note_off", "time": 199, "note": 66, "velocity": 108, "channel": 0}, {"type": "note_on", "time": 570, "note": 67, "velocity": 109, "channel": 0}, {"type": "note_off", "time": 98, "note": 67, "velocity": 109, "channel": 0}, {"type": "note_on", "time": 5, "note": 70, "velocity": 106, "channel": 0}, {"type": "note_off", "time": 75, "note": 70, "velocity": 106, "channel": 0}, {"type": "note_on", "time": 2, "note": 71, "velocity": 106, "channel": 0}, {"type": "note_off", "time": 110, "note": 71, "velocity": 106, "channel": 0}, {"type": "note_on", "time": 9, "note": 74, "velocity": 108, "channel": 0}, {"type": "note_off", "time": 85, "note": 74, "velocity": 108, "channel": 0}, {"type": "note_on", "time": 7, "note": 72, "velocity": 107, "channel": 0}, {"type": "note_off", "time": 68, "note": 72, "velocity": 107, "channel": 0}, {"type": "note_on", "time": 14, "note": 71, "velocity": 105, "channel": 0}, {"type": "note_off", "time": 51, "note": 71, "velocity": 105, "channel": 0}, {"type": "note_on", "time": 6, "note": 70, "velocity": 106, "channel": 0}, {"type": "note_off", "time": 32, "note": 70, "velocity": 106, "channel": 0}, {"type": "note_on", "time": 12, "note": 68, "velocity": 105, "channel": 0}, {"type": "note_off", "time": 88, "note": 68, "velocity": 105, "channel": 0}, {"type": "note_on", "time": 8, "note": 70, "velocity": 104, "channel": 0}, {"type": "note_off", "time": 66, "note": 70, "velocity": 104, "channel": 0}, {"type": "note_on", "time": 9, "note": 71, "velocity": 112, "channel": 0}, {"type": "note_off", "time": 78, "note": 71, "velocity": 112, "channel": 0}, {"type": "note_on", "time": 15, "note": 74, "velocity": 101, "channel": 0}, {"type": "note_off", "time": 90, "note": 74, "velocity": 101, "channel": 0}, {"type": "note_on", "time": 14, "note": 72, "velocity": 101, "channel": 0}, {"type": "note_off", "time": 92, "note": 72, "velocity": 101, "channel": 0}, {"type": "note_on", "time": 24, "note": 74, "velocity": 107, "channel": 0}, {"type": "note_off", "time": 41, "note": 74, "velocity": 107, "channel": 0}, {"type": "note_on", "time": 1, "note": 73, "velocity": 106, "channel": 0}, {"type": "note_off", "time": 55, "note": 73, "velocity": 106, "channel": 0}, {"type": "note_on", "time": 4, "note": 72, "velocity": 105, "channel": 0}, {"type": "note_off", "time": 79, "note": 72, "velocity": 105, "channel": 0}, {"type": "note_on", "time": 20, "note": 70, "velocity": 103, "channel": 0}, {"type": "note_off", "time": 71, "note": 70, "velocity": 103, "channel": 0}, {"type": "note_on", "time": 6, "note": 68, "velocity": 105, "channel": 0}, {"type": "note_off", "time": 100, "note": 68, "velocity": 105, "channel": 0}, {"type": "note_on", "time": 2, "note": 70, "velocity": 100, "channel": 0}, {"type": "note_off", "time": 61, "note": 70, "velocity": 100, "channel": 0}, {"type": "note_on", "time": 5, "note": 71, "velocity": 109, "channel": 0}, {"type": "note_off", "time": 105, "note": 71, "velocity": 109, "channel": 0}, {"type": "note_on", "time": 2, "note": 74, "velocity": 106, "channel": 0}, {"type": "note_off", "time": 116, "note": 74, "velocity": 106, "channel": 0}, {"type": "note_on", "time": 7, "note": 72, "velocity": 101, "channel": 0}, {"type": "note_off", "time": 100, "note": 72, "velocity": 101, "channel": 0}, {"type": "note_on", "time": 3, "note": 70, "velocity": 105, "channel": 0}, {"type": "note_off", "time": 73, "note": 70, "velocity": 105, "channel": 0}, {"type": "note_on", "time": 8, "note": 68, "velocity": 102, "channel": 0}, {"type": "note_off", "time": 80, "note": 68, "velocity": 102, "channel": 0}, {"type": "note_on", "time": 11, "note": 70, "velocity": 100, "channel": 0}, {"type": "note_off", "time": 70, "note": 70, "velocity": 100, "channel": 0}, {"type": "note_on", "time": 19, "note": 72, "velocity": 109, "channel": 0}, {"type": "note_off", "time": 36, "note": 72, "velocity": 109, "channel": 0}, {"type": "note_on", "time": 14, "note": 73, "velocity": 93, "channel": 0}, {"type": "note_off", "time": 41, "note": 73, "velocity": 93, "channel": 0}, {"type": "note_on", "time": 8, "note": 75, "velocity": 109, "channel": 0}, {"type": "note_off", "time": 74, "note": 75, "velocity": 109, "channel": 0}, {"type": "note_on", "time": 24, "note": 72, "velocity": 106, "channel": 0}, {"type": "note_off", "time": 101, "note": 72, "velocity": 106, "channel": 0}, {"type": "note_on", "time": 26, "note": 70, "velocity": 95, "channel": 0}, {"type": "note_off", "time": 57, "note": 70, "velocity": 95, "channel": 0}, {"type": "note_on", "time": 2, "note": 72, "velocity": 107, "channel": 0}, {"type": "note_off", "time": 78, "note": 72, "velocity": 107, "channel": 0}, {"type": "note_on", "time": 8, "note": 71, "velocity": 111, "channel": 0}, {"type": "note_off", "time": 119, "note": 71, "velocity": 111, "channel": 0}, {"type": "note_on", "time": 9, "note": 70, "velocity": 103, "channel": 0}, {"type": "note_off", "time": 70, "note": 70, "velocity": 103, "channel": 0}, {"type": "note_on", "time": 10, "note": 68, "velocity": 100, "channel": 0}, {"type": "note_off", "time": 89, "note": 68, "velocity": 100, "channel": 0}, {"type": "note_on", "time": 4, "note": 69, "velocity": 110, "channel": 0}, {"type": "note_off", "time": 73, "note": 69, "velocity": 110, "channel": 0}, {"type": "note_on", "time": 40, "note": 72, "velocity": 105, "channel": 0}, {"type": "note_off", "time": 69, "note": 72, "velocity": 105, "channel": 0}, {"type": "note_on", "time": 12, "note": 69, "velocity": 106, "channel": 0}, {"type": "note_off", "time": 107, "note": 69, "velocity": 106, "channel": 0}, {"type": "note_on", "time": 7, "note": 67, "velocity": 112, "channel": 0}, {"type": "note_off", "time": 66, "note": 67, "velocity": 112, "channel": 0}, {"type": "note_on", "time": 4, "note": 65, "velocity": 109, "channel": 0}, {"type": "note_off", "time": 131, "note": 65, "velocity": 109, "channel": 0}, {"type": "note_on", "time": 3, "note": 67, "velocity": 104, "channel": 0}, {"type": "note_off", "time": 64, "note": 67, "velocity": 104, "channel": 0}, {"type": "note_on", "time": 4, "note": 69, "velocity": 104, "channel": 0}, {"type": "note_off", "time": 71, "note": 69, "velocity": 104, "channel": 0}, {"type": "note_on", "time": 21, "note": 72, "velocity": 103, "channel": 0}, {"type": "note_off", "time": 94, "note": 72, "velocity": 103, "channel": 0}, {"type": "note_on", "time": 2, "note": 67, "velocity": 101, "channel": 0}, {"type": "note_off", "time": 108, "note": 67, "velocity": 101, "channel": 0}, {"type": "note_on", "time": 6, "note": 70, "velocity": 99, "channel": 0}, {"type": "note_off", "time": 84, "note": 70, "velocity": 99, "channel": 0}, {"type": "note_on", "time": 5, "note": 67, "velocity": 102, "channel": 0}, {"type": "note_off", "time": 92, "note": 67, "velocity": 102, "channel": 0}, {"type": "note_on", "time": 11, "note": 65, "velocity": 113, "channel": 0}, {"type": "note_off", "time": 70, "note": 65, "velocity": 113, "channel": 0}, {"type": "note_on", "time": 23, "note": 63, "velocity": 118, "channel": 0}, {"type": "note_off", "time": 89, "note": 63, "velocity": 118, "channel": 0}, {"type": "note_on", "time": 3, "note": 65, "velocity": 107, "channel": 0}, {"type": "note_off", "time": 111, "note": 65, "velocity": 107, "channel": 0}, {"type": "note_on", "time": 6, "note": 67, "velocity": 99, "channel": 0}, {"type": "note_off", "time": 95, "note": 67, "velocity": 99, "channel": 0}, {"type": "note_on", "time": 2, "note": 70, "velocity": 105, "channel": 0}, {"type": "note_off", "time": 71, "note": 70, "velocity": 105, "channel": 0}, {"type": "note_on", "time": 26, "note": 69, "velocity": 97, "channel": 0}, {"type": "note_off", "time": 84, "note": 69, "velocity": 97, "channel": 0}, {"type": "note_on", "time": 10, "note": 70, "velocity": 95, "channel": 0}, {"type": "note_off", "time": 115, "note": 70, "velocity": 95, "channel": 0}, {"type": "note_on", "time": 8, "note": 72, "velocity": 104, "channel": 0}, {"type": "note_off", "time": 74, "note": 72, "velocity": 104, "channel": 0}, {"type": "note_on", "time": 4, "note": 73, "velocity": 103, "channel": 0}, {"type": "note_off", "time": 105, "note": 73, "velocity": 103, "channel": 0}, {"type": "note_on", "time": 2, "note": 72, "velocity": 103, "channel": 0}, {"type": "note_off", "time": 83, "note": 72, "velocity": 103, "channel": 0}, {"type": "note_on", "time": 6, "note": 70, "velocity": 102, "channel": 0}, {"type": "note_off", "time": 78, "note": 70, "velocity": 102, "channel": 0}, {"type": "note_on", "time": 2, "note": 69, "velocity": 100, "channel": 0}, {"type": "note_off", "time": 66, "note": 69, "velocity": 100, "channel": 0}, {"type": "note_on", "time": 35, "note": 70, "velocity": 91, "channel": 0}, {"type": "note_off", "time": 75, "note": 70, "velocity": 91, "channel": 0}, {"type": "note_on", "time": 11, "note": 72, "velocity": 107, "channel": 0}, {"type": "note_off", "time": 86, "note": 72, "velocity": 107, "channel": 0}, {"type": "note_on", "time": 3, "note": 73, "velocity": 100, "channel": 0}, {"type": "note_off", "time": 85, "note": 73, "velocity": 100, "channel": 0}, {"type": "note_on", "time": 4, "note": 72, "velocity": 103, "channel": 0}, {"type": "note_off", "time": 79, "note": 72, "velocity": 103, "channel": 0}, {"type": "note_on", "time": 27, "note": 70, "velocity": 92, "channel": 0}, {"type": "note_off", "time": 81, "note": 70, "velocity": 92, "channel": 0}, {"type": "note_on", "time": 6, "note": 69, "velocity": 99, "channel": 0}, {"type": "note_off", "time": 126, "note": 69, "velocity": 99, "channel": 0}, {"type": "note_on", "time": 643, "note": 69, "velocity": 105, "channel": 0}, {"type": "note_off", "time": 75, "note": 69, "velocity": 105, "channel": 0}, {"type": "note_on", "time": 2, "note": 71, "velocity": 103, "channel": 0}, {"type": "note_off", "time": 89, "note": 71, "velocity": 103, "channel": 0}, {"type": "note_on", "time": 13, "note": 73, "velocity": 9, "channel": 0}, {"type": "note_off", "time": 100, "note": 73, "velocity": 9, "channel": 0}, {"type": "note_on", "time": 9, "note": 74, "velocity": 24, "channel": 0}, {"type": "note_off", "time": 102, "note": 74, "velocity": 24, "channel": 0}, {"type": "note_on", "time": 5, "note": 71, "velocity": 101, "channel": 0}, {"type": "note_off", "time": 79, "note": 71, "velocity": 101, "channel": 0}, {"type": "note_on", "time": 17, "note": 69, "velocity": 101, "channel": 0}, {"type": "note_off", "time": 63, "note": 69, "velocity": 101, "channel": 0}, {"type": "note_on", "time": 2, "note": 68, "velocity": 96, "channel": 0}, {"type": "note_off", "time": 105, "note": 68, "velocity": 96, "channel": 0}, {"type": "note_on", "time": 8, "note": 69, "velocity": 91, "channel": 0}, {"type": "note_off", "time": 78, "note": 69, "velocity": 91, "channel": 0}, {"type": "note_on", "time": 6, "note": 70, "velocity": 98, "channel": 0}, {"type": "note_off", "time": 78, "note": 70, "velocity": 98, "channel": 0}, {"type": "note_on", "time": 3, "note": 72, "velocity": 94, "channel": 0}, {"type": "note_off", "time": 125, "note": 72, "velocity": 94, "channel": 0}, {"type": "note_on", "time": 3, "note": 71, "velocity": 95, "channel": 0}, {"type": "note_off", "time": 45, "note": 71, "velocity": 95, "channel": 0}, {"type": "note_on", "time": 5, "note": 69, "velocity": 94, "channel": 0}, {"type": "note_off", "time": 49, "note": 69, "velocity": 94, "channel": 0}, {"type": "note_on", "time": 7, "note": 68, "velocity": 96, "channel": 0}, {"type": "note_off", "time": 95, "note": 68, "velocity": 96, "channel": 0}, {"type": "note_on", "time": 7, "note": 66, "velocity": 97, "channel": 0}, {"type": "note_off", "time": 88, "note": 66, "velocity": 97, "channel": 0}, {"type": "note_on", "time": 7, "note": 68, "velocity": 94, "channel": 0}, {"type": "note_off", "time": 77, "note": 68, "velocity": 94, "channel": 0}, {"type": "note_on", "time": 6, "note": 69, "velocity": 97, "channel": 0}, {"type": "note_off", "time": 84, "note": 69, "velocity": 97, "channel": 0}, {"type": "note_on", "time": 12, "note": 71, "velocity": 95, "channel": 0}, {"type": "note_off", "time": 88, "note": 71, "velocity": 95, "channel": 0}, {"type": "note_on", "time": 17, "note": 68, "velocity": 93, "channel": 0}, {"type": "note_off", "time": 81, "note": 68, "velocity": 93, "channel": 0}, {"type": "note_on", "time": 4, "note": 66, "velocity": 103, "channel": 0}, {"type": "note_off", "time": 101, "note": 66, "velocity": 103, "channel": 0}, {"type": "note_on", "time": 6, "note": 65, "velocity": 103, "channel": 0}, {"type": "note_off", "time": 80, "note": 65, "velocity": 103, "channel": 0}, {"type": "note_on", "time": 0, "note": 67, "velocity": 97, "channel": 0}, {"type": "note_off", "time": 108, "note": 67, "velocity": 97, "channel": 0}, {"type": "note_on", "time": 4, "note": 68, "velocity": 92, "channel": 0}, {"type": "note_off", "time": 83, "note": 68, "velocity": 92, "channel": 0}, {"type": "note_on", "time": 10, "note": 70, "velocity": 92, "channel": 0}, {"type": "note_off", "time": 90, "note": 70, "velocity": 92, "channel": 0}, {"type": "note_on", "time": 5, "note": 71, "velocity": 96, "channel": 0}, {"type": "note_off", "time": 34, "note": 71, "velocity": 96, "channel": 0}, {"type": "note_on", "time": 6, "note": 73, "velocity": 90, "channel": 0}, {"type": "note_off", "time": 62, "note": 73, "velocity": 90, "channel": 0}, {"type": "note_on", "time": 12, "note": 73, "velocity": 95, "channel": 0}, {"type": "note_off", "time": 115, "note": 73, "velocity": 95, "channel": 0}, {"type": "note_on", "time": 17, "note": 71, "velocity": 98, "channel": 0}, {"type": "note_off", "time": 171, "note": 71, "velocity": 98, "channel": 0}, {"type": "note_on", "time": 10, "note": 68, "velocity": 96, "channel": 0}, {"type": "note_off", "time": 86, "note": 68, "velocity": 96, "channel": 0}, {"type": "note_on", "time": 6, "note": 67, "velocity": 89, "channel": 0}, {"type": "note_off", "time": 104, "note": 67, "velocity": 89, "channel": 0}, {"type": "note_on", "time": 11, "note": 65, "velocity": 105, "channel": 0}, {"type": "note_off", "time": 73, "note": 65, "velocity": 105, "channel": 0}, {"type": "note_on", "time": 3, "note": 64, "velocity": 99, "channel": 0}, {"type": "note_off", "time": 105, "note": 64, "velocity": 99, "channel": 0}, {"type": "note_on", "time": 4, "note": 65, "velocity": 99, "channel": 0}, {"type": "note_off", "time": 88, "note": 65, "velocity": 99, "channel": 0}, {"type": "note_on", "time": 11, "note": 67, "velocity": 86, "channel": 0}, {"type": "note_off", "time": 96, "note": 67, "velocity": 86, "channel": 0}, {"type": "note_on", "time": 11, "note": 69, "velocity": 92, "channel": 0}, {"type": "note_off", "time": 71, "note": 69, "velocity": 92, "channel": 0}, {"type": "note_on", "time": 5, "note": 67, "velocity": 90, "channel": 0}, {"type": "note_off", "time": 91, "note": 67, "velocity": 90, "channel": 0}, {"type": "note_on", "time": 18, "note": 65, "velocity": 105, "channel": 0}, {"type": "note_off", "time": 66, "note": 65, "velocity": 105, "channel": 0}, {"type": "note_on", "time": 2, "note": 64, "velocity": 101, "channel": 0}, {"type": "note_off", "time": 67, "note": 64, "velocity": 101, "channel": 0}, {"type": "note_on", "time": 12, "note": 65, "velocity": 98, "channel": 0}, {"type": "note_off", "time": 80, "note": 65, "velocity": 98, "channel": 0}, {"type": "note_on", "time": 5, "note": 66, "velocity": 96, "channel": 0}, {"type": "note_off", "time": 105, "note": 66, "velocity": 96, "channel": 0}, {"type": "note_on", "time": 15, "note": 68, "velocity": 96, "channel": 0}, {"type": "note_off", "time": 84, "note": 68, "velocity": 96, "channel": 0}, {"type": "note_on", "time": 1, "note": 70, "velocity": 94, "channel": 0}, {"type": "note_off", "time": 104, "note": 70, "velocity": 94, "channel": 0}, {"type": "note_on", "time": 9, "note": 68, "velocity": 96, "channel": 0}, {"type": "note_off", "time": 56, "note": 68, "velocity": 96, "channel": 0}, {"type": "note_on", "time": 6, "note": 66, "velocity": 92, "channel": 0}, {"type": "note_off", "time": 128, "note": 66, "velocity": 92, "channel": 0}, {"type": "note_on", "time": 459, "note": 66, "velocity": 100, "channel": 0}, {"type": "note_off", "time": 71, "note": 66, "velocity": 100, "channel": 0}, {"type": "note_on", "time": 6, "note": 68, "velocity": 98, "channel": 0}, {"type": "note_off", "time": 110, "note": 68, "velocity": 98, "channel": 0}, {"type": "note_on", "time": 4, "note": 69, "velocity": 95, "channel": 0}, {"type": "note_off", "time": 63, "note": 69, "velocity": 95, "channel": 0}, {"type": "note_on", "time": 9, "note": 71, "velocity": 95, "channel": 0}, {"type": "note_off", "time": 96, "note": 71, "velocity": 95, "channel": 0}, {"type": "note_on", "time": 11, "note": 65, "velocity": 101, "channel": 0}, {"type": "note_off", "time": 83, "note": 65, "velocity": 101, "channel": 0}, {"type": "note_on", "time": 6, "note": 66, "velocity": 94, "channel": 0}, {"type": "note_off", "time": 76, "note": 66, "velocity": 94, "channel": 0}, {"type": "note_on", "time": 21, "note": 70, "velocity": 92, "channel": 0}, {"type": "note_off", "time": 116, "note": 70, "velocity": 92, "channel": 0}, {"type": "note_on", "time": 6, "note": 67, "velocity": 92, "channel": 0}, {"type": "note_off", "time": 69, "note": 67, "velocity": 92, "channel": 0}, {"type": "note_on", "time": 3, "note": 68, "velocity": 92, "channel": 0}, {"type": "note_off", "time": 95, "note": 68, "velocity": 92, "channel": 0}, {"type": "note_on", "time": 8, "note": 69, "velocity": 98, "channel": 0}, {"type": "note_off", "time": 78, "note": 69, "velocity": 98, "channel": 0}, {"type": "note_on", "time": 60, "note": 61, "velocity": 95, "channel": 0}, {"type": "note_off", "time": 57, "note": 61, "velocity": 95, "channel": 0}, {"type": "note_on", "time": 3, "note": 63, "velocity": 95, "channel": 0}, {"type": "note_off", "time": 32, "note": 63, "velocity": 95, "channel": 0}, {"type": "note_on", "time": 44, "note": 68, "velocity": 97, "channel": 0}, {"type": "note_off", "time": 68, "note": 68, "velocity": 97, "channel": 0}, {"type": "note_on", "time": 8, "note": 66, "velocity": 99, "channel": 0}, {"type": "note_off", "time": 103, "note": 66, "velocity": 99, "channel": 0}, {"type": "note_on", "time": 1, "note": 65, "velocity": 100, "channel": 0}, {"type": "note_off", "time": 78, "note": 65, "velocity": 100, "channel": 0}, {"type": "note_on", "time": 3, "note": 63, "velocity": 109, "channel": 0}, {"type": "note_off", "time": 109, "note": 63, "velocity": 109, "channel": 0}, {"type": "note_on", "time": 0, "note": 62, "velocity": 106, "channel": 0}, {"type": "note_off", "time": 92, "note": 62, "velocity": 106, "channel": 0}, {"type": "note_on", "time": 4, "note": 63, "velocity": 101, "channel": 0}, {"type": "note_off", "time": 63, "note": 63, "velocity": 101, "channel": 0}, {"type": "note_on", "time": 3, "note": 65, "velocity": 99, "channel": 0}, {"type": "note_off", "time": 103, "note": 65, "velocity": 99, "channel": 0}, {"type": "note_on", "time": 5, "note": 66, "velocity": 87, "channel": 0}, {"type": "note_off", "time": 62, "note": 66, "velocity": 87, "channel": 0}, {"type": "note_on", "time": 6, "note": 68, "velocity": 97, "channel": 0}, {"type": "note_off", "time": 84, "note": 68, "velocity": 97, "channel": 0}, {"type": "note_on", "time": 44, "note": 65, "velocity": 97, "channel": 0}, {"type": "note_off", "time": 74, "note": 65, "velocity": 97, "channel": 0}, {"type": "note_on", "time": 4, "note": 66, "velocity": 88, "channel": 0}, {"type": "note_off", "time": 60, "note": 66, "velocity": 88, "channel": 0}, {"type": "note_on", "time": 39, "note": 70, "velocity": 92, "channel": 0}, {"type": "note_off", "time": 71, "note": 70, "velocity": 92, "channel": 0}, {"type": "note_on", "time": 36, "note": 68, "velocity": 87, "channel": 0}, {"type": "note_off", "time": 82, "note": 68, "velocity": 87, "channel": 0}, {"type": "note_on", "time": 4, "note": 69, "velocity": 96, "channel": 0}, {"type": "note_off", "time": 87, "note": 69, "velocity": 96, "channel": 0}, {"type": "note_on", "time": 110, "note": 63, "velocity": 96, "channel": 0}, {"type": "note_off", "time": 53, "note": 63, "velocity": 96, "channel": 0}, {"type": "note_on", "time": 50, "note": 68, "velocity": 101, "channel": 0}, {"type": "note_off", "time": 68, "note": 68, "velocity": 101, "channel": 0}, {"type": "note_on", "time": 97, "note": 66, "velocity": 92, "channel": 0}, {"type": "note_off", "time": 71, "note": 66, "velocity": 92, "channel": 0}, {"type": "note_on", "time": 6, "note": 67, "velocity": 83, "channel": 0}, {"type": "note_off", "time": 34, "note": 67, "velocity": 83, "channel": 0}, {"type": "note_on", "time": 7, "note": 66, "velocity": 93, "channel": 0}, {"type": "note_off", "time": 67, "note": 66, "velocity": 93, "channel": 0}, {"type": "note_on", "time": 12, "note": 65, "velocity": 99, "channel": 0}, {"type": "note_off", "time": 89, "note": 65, "velocity": 99, "channel": 0}, {"type": "note_on", "time": 19, "note": 61, "velocity": 101, "channel": 0}, {"type": "note_off", "time": 68, "note": 61, "velocity": 101, "channel": 0}, {"type": "note_on", "time": 4, "note": 58, "velocity": 88, "channel": 0}, {"type": "note_off", "time": 121, "note": 58, "velocity": 88, "channel": 0}, {"type": "note_on", "time": 34, "note": 55, "velocity": 97, "channel": 0}, {"type": "note_off", "time": 44, "note": 55, "velocity": 97, "channel": 0}, {"type": "note_on", "time": 20, "note": 61, "velocity": 106, "channel": 0}, {"type": "note_off", "time": 101, "note": 61, "velocity": 106, "channel": 0}, {"type": "note_on", "time": 16, "note": 58, "velocity": 89, "channel": 0}, {"type": "note_off", "time": 34, "note": 58, "velocity": 89, "channel": 0}, {"type": "note_on", "time": 12, "note": 61, "velocity": 108, "channel": 0}, {"type": "note_off", "time": 63, "note": 61, "velocity": 108, "channel": 0}, {"type": "note_on", "time": 17, "note": 63, "velocity": 103, "channel": 0}, {"type": "note_off", "time": 123, "note": 63, "velocity": 103, "channel": 0}, {"type": "note_on", "time": 22, "note": 62, "velocity": 92, "channel": 0}, {"type": "note_off", "time": 51, "note": 62, "velocity": 92, "channel": 0}, {"type": "note_on", "time": 12, "note": 63, "velocity": 105, "channel": 0}, {"type": "note_off", "time": 72, "note": 63, "velocity": 105, "channel": 0}, {"type": "note_on", "time": 1, "note": 65, "velocity": 108, "channel": 0}, {"type": "note_off", "time": 170, "note": 65, "velocity": 108, "channel": 0}, {"type": "note_on", "time": 805, "note": 73, "velocity": 100, "channel": 0}, {"type": "note_off", "time": 34, "note": 73, "velocity": 100, "channel": 0}, {"type": "note_on", "time": 9, "note": 72, "velocity": 95, "channel": 0}, {"type": "note_off", "time": 47, "note": 72, "velocity": 95, "channel": 0}, {"type": "note_on", "time": 10, "note": 70, "velocity": 92, "channel": 0}, {"type": "note_off", "time": 39, "note": 70, "velocity": 92, "channel": 0}, {"type": "note_on", "time": 8, "note": 69, "velocity": 91, "channel": 0}, {"type": "note_off", "time": 39, "note": 69, "velocity": 91, "channel": 0}, {"type": "note_on", "time": 12, "note": 67, "velocity": 90, "channel": 0}, {"type": "note_off", "time": 149, "note": 67, "velocity": 90, "channel": 0}, {"type": "note_on", "time": 0, "note": 73, "velocity": 86, "channel": 0}, {"type": "note_off", "time": 31, "note": 73, "velocity": 86, "channel": 0}, {"type": "note_on", "time": 4, "note": 72, "velocity": 97, "channel": 0}, {"type": "note_off", "time": 55, "note": 72, "velocity": 97, "channel": 0}, {"type": "note_on", "time": 1, "note": 71, "velocity": 94, "channel": 0}, {"type": "note_off", "time": 58, "note": 71, "velocity": 94, "channel": 0}, {"type": "note_on", "time": 9, "note": 70, "velocity": 94, "channel": 0}, {"type": "note_off", "time": 57, "note": 70, "velocity": 94, "channel": 0}, {"type": "note_on", "time": 4, "note": 67, "velocity": 91, "channel": 0}, {"type": "note_off", "time": 173, "note": 67, "velocity": 91, "channel": 0}, {"type": "note_on", "time": 8, "note": 73, "velocity": 99, "channel": 0}, {"type": "note_off", "time": 35, "note": 73, "velocity": 99, "channel": 0}, {"type": "note_on", "time": 4, "note": 72, "velocity": 101, "channel": 0}, {"type": "note_off", "time": 84, "note": 72, "velocity": 101, "channel": 0}, {"type": "note_on", "time": 1, "note": 70, "velocity": 99, "channel": 0}, {"type": "note_off", "time": 62, "note": 70, "velocity": 99, "channel": 0}, {"type": "note_on", "time": 11, "note": 67, "velocity": 99, "channel": 0}, {"type": "note_off", "time": 171, "note": 67, "velocity": 99, "channel": 0}, {"type": "note_on", "time": 39, "note": 72, "velocity": 99, "channel": 0}, {"type": "note_off", "time": 88, "note": 72, "velocity": 99, "channel": 0}, {"type": "note_on", "time": 3, "note": 70, "velocity": 100, "channel": 0}, {"type": "note_off", "time": 54, "note": 70, "velocity": 100, "channel": 0}, {"type": "note_on", "time": 10, "note": 67, "velocity": 96, "channel": 0}, {"type": "note_off", "time": 206, "note": 67, "velocity": 96, "channel": 0}, {"type": "note_on", "time": 1, "note": 66, "velocity": 102, "channel": 0}, {"type": "note_off", "time": 91, "note": 66, "velocity": 102, "channel": 0}, {"type": "note_on", "time": 34, "note": 61, "velocity": 100, "channel": 0}, {"type": "note_off", "time": 43, "note": 61, "velocity": 100, "channel": 0}, {"type": "note_on", "time": 2, "note": 60, "velocity": 98, "channel": 0}, {"type": "note_off", "time": 29, "note": 60, "velocity": 98, "channel": 0}, {"type": "note_on", "time": 5, "note": 59, "velocity": 100, "channel": 0}, {"type": "note_off", "time": 149, "note": 59, "velocity": 100, "channel": 0}, {"type": "note_on", "time": 27, "note": 65, "velocity": 107, "channel": 0}, {"type": "note_off", "time": 34, "note": 65, "velocity": 107, "channel": 0}, {"type": "note_on", "time": 8, "note": 63, "velocity": 111, "channel": 0}, {"type": "note_off", "time": 41, "note": 63, "velocity": 111, "channel": 0}, {"type": "note_on", "time": 2, "note": 62, "velocity": 109, "channel": 0}, {"type": "note_off", "time": 34, "note": 62, "velocity": 109, "channel": 0}, {"type": "note_on", "time": 3, "note": 61, "velocity": 99, "channel": 0}, {"type": "note_off", "time": 59, "note": 61, "velocity": 99, "channel": 0}, {"type": "note_on", "time": 14, "note": 59, "velocity": 94, "channel": 0}, {"type": "note_off", "time": 104, "note": 59, "velocity": 94, "channel": 0}, {"type": "note_on", "time": 838, "note": 51, "velocity": 107, "channel": 0}, {"type": "note_off", "time": 65, "note": 51, "velocity": 107, "channel": 0}, {"type": "note_on", "time": 3, "note": 53, "velocity": 103, "channel": 0}, {"type": "note_off", "time": 64, "note": 53, "velocity": 103, "channel": 0}, {"type": "note_on", "time": 2, "note": 56, "velocity": 100, "channel": 0}, {"type": "note_off", "time": 79, "note": 56, "velocity": 100, "channel": 0}, {"type": "note_on", "time": 4, "note": 59, "velocity": 98, "channel": 0}, {"type": "note_off", "time": 50, "note": 59, "velocity": 98, "channel": 0}, {"type": "note_on", "time": 7, "note": 57, "velocity": 109, "channel": 0}, {"type": "note_off", "time": 58, "note": 57, "velocity": 109, "channel": 0}, {"type": "note_on", "time": 14, "note": 59, "velocity": 104, "channel": 0}, {"type": "note_off", "time": 46, "note": 59, "velocity": 104, "channel": 0}, {"type": "note_on", "time": 17, "note": 61, "velocity": 103, "channel": 0}, {"type": "note_off", "time": 42, "note": 61, "velocity": 103, "channel": 0}, {"type": "note_on", "time": 12, "note": 64, "velocity": 103, "channel": 0}, {"type": "note_off", "time": 48, "note": 64, "velocity": 103, "channel": 0}, {"type": "note_on", "time": 54, "note": 49, "velocity": 104, "channel": 0}, {"type": "note_off", "time": 57, "note": 49, "velocity": 104, "channel": 0}, {"type": "note_on", "time": 9, "note": 51, "velocity": 106, "channel": 0}, {"type": "note_off", "time": 70, "note": 51, "velocity": 106, "channel": 0}, {"type": "note_on", "time": 11, "note": 54, "velocity": 103, "channel": 0}, {"type": "note_off", "time": 57, "note": 54, "velocity": 103, "channel": 0}, {"type": "note_on", "time": 13, "note": 57, "velocity": 100, "channel": 0}, {"type": "note_off", "time": 50, "note": 57, "velocity": 100, "channel": 0}, {"type": "note_on", "time": 17, "note": 55, "velocity": 100, "channel": 0}, {"type": "note_off", "time": 63, "note": 55, "velocity": 100, "channel": 0}, {"type": "note_on", "time": 5, "note": 57, "velocity": 100, "channel": 0}, {"type": "note_off", "time": 89, "note": 57, "velocity": 100, "channel": 0}, {"type": "note_on", "time": 3, "note": 58, "velocity": 94, "channel": 0}, {"type": "note_off", "time": 52, "note": 58, "velocity": 94, "channel": 0}, {"type": "note_on", "time": 11, "note": 62, "velocity": 103, "channel": 0}, {"type": "note_off", "time": 43, "note": 62, "velocity": 103, "channel": 0}, {"type": "note_on", "time": 2, "note": 60, "velocity": 104, "channel": 0}, {"type": "note_off", "time": 90, "note": 60, "velocity": 104, "channel": 0}, {"type": "note_on", "time": 2, "note": 61, "velocity": 103, "channel": 0}, {"type": "note_off", "time": 24, "note": 61, "velocity": 103, "channel": 0}, {"type": "note_on", "time": 2, "note": 63, "velocity": 97, "channel": 0}, {"type": "note_off", "time": 21, "note": 63, "velocity": 97, "channel": 0}, {"type": "note_on", "time": 5, "note": 67, "velocity": 99, "channel": 0}, {"type": "note_off", "time": 49, "note": 67, "velocity": 99, "channel": 0}, {"type": "note_on", "time": 56, "note": 53, "velocity": 99, "channel": 0}, {"type": "note_off", "time": 85, "note": 53, "velocity": 99, "channel": 0}, {"type": "note_on", "time": 1, "note": 56, "velocity": 98, "channel": 0}, {"type": "note_off", "time": 48, "note": 56, "velocity": 98, "channel": 0}, {"type": "note_on", "time": 0, "note": 57, "velocity": 95, "channel": 0}, {"type": "note_off", "time": 43, "note": 57, "velocity": 95, "channel": 0}, {"type": "note_on", "time": 2, "note": 58, "velocity": 91, "channel": 0}, {"type": "note_off", "time": 42, "note": 58, "velocity": 91, "channel": 0}, {"type": "note_on", "time": 20, "note": 61, "velocity": 96, "channel": 0}, {"type": "note_off", "time": 83, "note": 61, "velocity": 96, "channel": 0}, {"type": "note_on", "time": 15, "note": 58, "velocity": 93, "channel": 0}, {"type": "note_off", "time": 95, "note": 58, "velocity": 93, "channel": 0}, {"type": "note_on", "time": 6, "note": 60, "velocity": 106, "channel": 0}, {"type": "note_off", "time": 35, "note": 60, "velocity": 106, "channel": 0}, {"type": "note_on", "time": 5, "note": 62, "velocity": 102, "channel": 0}, {"type": "note_off", "time": 22, "note": 62, "velocity": 102, "channel": 0}, {"type": "note_on", "time": 9, "note": 63, "velocity": 101, "channel": 0}, {"type": "note_off", "time": 31, "note": 63, "velocity": 101, "channel": 0}, {"type": "note_on", "time": 14, "note": 67, "velocity": 93, "channel": 0}, {"type": "note_off", "time": 74, "note": 67, "velocity": 93, "channel": 0}, {"type": "note_on", "time": 12, "note": 71, "velocity": 98, "channel": 0}, {"type": "note_off", "time": 33, "note": 71, "velocity": 98, "channel": 0}, {"type": "note_on", "time": 4, "note": 72, "velocity": 94, "channel": 0}, {"type": "note_off", "time": 60, "note": 72, "velocity": 94, "channel": 0}, {"type": "note_on", "time": 1, "note": 74, "velocity": 93, "channel": 0}, {"type": "note_off", "time": 111, "note": 74, "velocity": 93, "channel": 0}, {"type": "note_on", "time": 11, "note": 76, "velocity": 94, "channel": 0}, {"type": "note_off", "time": 159, "note": 76, "velocity": 94, "channel": 0}, {"type": "note_on", "time": 393, "note": 75, "velocity": 96, "channel": 0}, {"type": "note_off", "time": 39, "note": 75, "velocity": 96, "channel": 0}, {"type": "note_on", "time": 2, "note": 77, "velocity": 88, "channel": 0}, {"type": "note_off", "time": 123, "note": 77, "velocity": 88, "channel": 0}, {"type": "note_on", "time": 418, "note": 82, "velocity": 89, "channel": 0}, {"type": "note_off", "time": 159, "note": 82, "velocity": 89, "channel": 0}, {"type": "note_on", "time": 438, "note": 85, "velocity": 95, "channel": 0}, {"type": "note_off", "time": 139, "note": 85, "velocity": 95, "channel": 0}, {"type": "note_on", "time": 5, "note": 87, "velocity": 85, "channel": 0}, {"type": "note_off", "time": 43, "note": 87, "velocity": 85, "channel": 0}, {"type": "note_on", "time": 7, "note": 88, "velocity": 87, "channel": 0}, {"type": "note_off", "time": 538, "note": 88, "velocity": 87, "channel": 0}, {"type": "note_on", "time": 1363, "note": 88, "velocity": 88, "channel": 0}, {"type": "note_off", "time": 77, "note": 88, "velocity": 88, "channel": 0}, {"type": "note_on", "time": 89, "note": 85, "velocity": 92, "channel": 0}, {"type": "note_off", "time": 97, "note": 85, "velocity": 92, "channel": 0}, {"type": "note_on", "time": 92, "note": 84, "velocity": 97, "channel": 0}, {"type": "note_off", "time": 98, "note": 84, "velocity": 97, "channel": 0}, {"type": "note_on", "time": 92, "note": 83, "velocity": 88, "channel": 0}, {"type": "note_off", "time": 52, "note": 83, "velocity": 88, "channel": 0}, {"type": "note_on", "time": 45, "note": 82, "velocity": 94, "channel": 0}, {"type": "note_off", "time": 82, "note": 82, "velocity": 94, "channel": 0}, {"type": "note_on", "time": 120, "note": 81, "velocity": 86, "channel": 0}, {"type": "note_off", "time": 85, "note": 81, "velocity": 86, "channel": 0}, {"type": "note_on", "time": 118, "note": 80, "velocity": 93, "channel": 0}, {"type": "note_off", "time": 83, "note": 80, "velocity": 93, "channel": 0}, {"type": "note_on", "time": 109, "note": 80, "velocity": 96, "channel": 0}, {"type": "note_off", "time": 35, "note": 80, "velocity": 96, "channel": 0}, {"type": "note_on", "time": 22, "note": 79, "velocity": 98, "channel": 0}, {"type": "note_off", "time": 62, "note": 79, "velocity": 98, "channel": 0}, {"type": "note_on", "time": 56, "note": 78, "velocity": 100, "channel": 0}, {"type": "note_off", "time": 68, "note": 78, "velocity": 100, "channel": 0}, {"type": "note_on", "time": 6, "note": 76, "velocity": 97, "channel": 0}, {"type": "note_off", "time": 121, "note": 76, "velocity": 97, "channel": 0}, {"type": "note_on", "time": 74, "note": 75, "velocity": 104, "channel": 0}, {"type": "note_off", "time": 117, "note": 75, "velocity": 104, "channel": 0}, {"type": "note_on", "time": 102, "note": 75, "velocity": 94, "channel": 0}, {"type": "note_off", "time": 93, "note": 75, "velocity": 94, "channel": 0}, {"type": "note_on", "time": 75, "note": 74, "velocity": 93, "channel": 0}, {"type": "note_off", "time": 85, "note": 74, "velocity": 93, "channel": 0}, {"type": "note_on", "time": 18, "note": 73, "velocity": 90, "channel": 0}, {"type": "note_off", "time": 114, "note": 73, "velocity": 90, "channel": 0}, {"type": "note_on", "time": 391, "note": 80, "velocity": 86, "channel": 0}, {"type": "note_off", "time": 37, "note": 80, "velocity": 86, "channel": 0}, {"type": "note_on", "time": 60, "note": 81, "velocity": 97, "channel": 0}, {"type": "note_off", "time": 72, "note": 81, "velocity": 97, "channel": 0}, {"type": "note_on", "time": 96, "note": 83, "velocity": 101, "channel": 0}, {"type": "note_off", "time": 90, "note": 83, "velocity": 101, "channel": 0}, {"type": "note_on", "time": 101, "note": 85, "velocity": 100, "channel": 0}, {"type": "note_off", "time": 89, "note": 85, "velocity": 100, "channel": 0}, {"type": "note_on", "time": 78, "note": 87, "velocity": 105, "channel": 0}, {"type": "note_off", "time": 46, "note": 87, "velocity": 105, "channel": 0}, {"type": "note_on", "time": 26, "note": 89, "velocity": 99, "channel": 0}, {"type": "note_off", "time": 95, "note": 89, "velocity": 99, "channel": 0}, {"type": "note_on", "time": 103, "note": 89, "velocity": 97, "channel": 0}, {"type": "note_off", "time": 104, "note": 89, "velocity": 97, "channel": 0}, {"type": "note_on", "time": 76, "note": 89, "velocity": 89, "channel": 0}, {"type": "note_off", "time": 100, "note": 89, "velocity": 89, "channel": 0}, {"type": "note_on", "time": 140, "note": 81, "velocity": 90, "channel": 0}, {"type": "note_off", "time": 51, "note": 81, "velocity": 90, "channel": 0}, {"type": "note_on", "time": 27, "note": 83, "velocity": 95, "channel": 0}, {"type": "note_off", "time": 28, "note": 83, "velocity": 95, "channel": 0}, {"type": "note_on", "time": 9, "note": 85, "velocity": 101, "channel": 0}, {"type": "note_off", "time": 84, "note": 85, "velocity": 101, "channel": 0}, {"type": "note_on", "time": 89, "note": 84, "velocity": 96, "channel": 0}, {"type": "note_off", "time": 84, "note": 84, "velocity": 96, "channel": 0}, {"type": "note_on", "time": 106, "note": 83, "velocity": 91, "channel": 0}, {"type": "note_off", "time": 96, "note": 83, "velocity": 91, "channel": 0}, {"type": "note_on", "time": 74, "note": 82, "velocity": 89, "channel": 0}, {"type": "note_off", "time": 81, "note": 82, "velocity": 89, "channel": 0}, {"type": "note_on", "time": 108, "note": 79, "velocity": 97, "channel": 0}, {"type": "note_off", "time": 44, "note": 79, "velocity": 97, "channel": 0}, {"type": "note_on", "time": 47, "note": 73, "velocity": 97, "channel": 0}, {"type": "note_off", "time": 126, "note": 73, "velocity": 97, "channel": 0}, {"type": "note_on", "time": 102, "note": 71, "velocity": 98, "channel": 0}, {"type": "note_off", "time": 65, "note": 71, "velocity": 98, "channel": 0}, {"type": "note_on", "time": 119, "note": 76, "velocity": 97, "channel": 0}, {"type": "note_off", "time": 115, "note": 76, "velocity": 97, "channel": 0}, {"type": "note_on", "time": 93, "note": 71, "velocity": 87, "channel": 0}, {"type": "note_off", "time": 69, "note": 71, "velocity": 87, "channel": 0}, {"type": "note_on", "time": 108, "note": 69, "velocity": 97, "channel": 0}, {"type": "note_off", "time": 83, "note": 69, "velocity": 97, "channel": 0}, {"type": "note_on", "time": 301, "note": 67, "velocity": 101, "channel": 0}, {"type": "note_off", "time": 78, "note": 67, "velocity": 101, "channel": 0}, {"type": "note_on", "time": 8, "note": 69, "velocity": 94, "channel": 0}, {"type": "note_off", "time": 77, "note": 69, "velocity": 94, "channel": 0}, {"type": "note_on", "time": 3, "note": 71, "velocity": 92, "channel": 0}, {"type": "note_off", "time": 82, "note": 71, "velocity": 92, "channel": 0}, {"type": "note_on", "time": 25, "note": 73, "velocity": 95, "channel": 0}, {"type": "note_off", "time": 81, "note": 73, "velocity": 95, "channel": 0}, {"type": "note_on", "time": 14, "note": 69, "velocity": 99, "channel": 0}, {"type": "note_off", "time": 66, "note": 69, "velocity": 99, "channel": 0}, {"type": "note_on", "time": 11, "note": 64, "velocity": 101, "channel": 0}, {"type": "note_off", "time": 97, "note": 64, "velocity": 101, "channel": 0}, {"type": "note_on", "time": 384, "note": 70, "velocity": 98, "channel": 0}, {"type": "note_off", "time": 91, "note": 70, "velocity": 98, "channel": 0}, {"type": "note_on", "time": 16, "note": 68, "velocity": 89, "channel": 0}, {"type": "note_off", "time": 85, "note": 68, "velocity": 89, "channel": 0}, {"type": "note_on", "time": 2, "note": 69, "velocity": 100, "channel": 0}, {"type": "note_off", "time": 74, "note": 69, "velocity": 100, "channel": 0}, {"type": "note_on", "time": 32, "note": 66, "velocity": 98, "channel": 0}, {"type": "note_off", "time": 66, "note": 66, "velocity": 98, "channel": 0}, {"type": "note_on", "time": 1, "note": 63, "velocity": 99, "channel": 0}, {"type": "note_off", "time": 93, "note": 63, "velocity": 99, "channel": 0}, {"type": "note_on", "time": 16, "note": 60, "velocity": 104, "channel": 0}, {"type": "note_off", "time": 63, "note": 60, "velocity": 104, "channel": 0}, {"type": "note_on", "time": 28, "note": 59, "velocity": 101, "channel": 0}, {"type": "note_off", "time": 100, "note": 59, "velocity": 101, "channel": 0}, {"type": "note_on", "time": 9, "note": 62, "velocity": 92, "channel": 0}, {"type": "note_off", "time": 81, "note": 62, "velocity": 92, "channel": 0}, {"type": "note_on", "time": 3, "note": 66, "velocity": 99, "channel": 0}, {"type": "note_off", "time": 66, "note": 66, "velocity": 99, "channel": 0}, {"type": "note_on", "time": 27, "note": 68, "velocity": 99, "channel": 0}, {"type": "note_off", "time": 149, "note": 68, "velocity": 99, "channel": 0}, {"type": "note_on", "time": 5, "note": 65, "velocity": 100, "channel": 0}, {"type": "note_off", "time": 44, "note": 65, "velocity": 100, "channel": 0}, {"type": "note_on", "time": 8, "note": 67, "velocity": 102, "channel": 0}, {"type": "note_off", "time": 97, "note": 67, "velocity": 102, "channel": 0}, {"type": "note_on", "time": 4, "note": 65, "velocity": 93, "channel": 0}, {"type": "note_off", "time": 74, "note": 65, "velocity": 93, "channel": 0}, {"type": "note_on", "time": 4, "note": 63, "velocity": 102, "channel": 0}, {"type": "note_off", "time": 90, "note": 63, "velocity": 102, "channel": 0}, {"type": "note_on", "time": 20, "note": 63, "velocity": 102, "channel": 0}, {"type": "note_off", "time": 67, "note": 63, "velocity": 102, "channel": 0}, {"type": "note_on", "time": 1, "note": 64, "velocity": 111, "channel": 0}, {"type": "note_off", "time": 459, "note": 64, "velocity": 111, "channel": 0}, {"type": "note_on", "time": 4, "note": 67, "velocity": 101, "channel": 0}, {"type": "note_off", "time": 126, "note": 67, "velocity": 101, "channel": 0}, {"type": "note_on", "time": 3, "note": 65, "velocity": 103, "channel": 0}, {"type": "note_off", "time": 348, "note": 65, "velocity": 103, "channel": 0}, {"type": "note_on", "time": 360, "note": 68, "velocity": 101, "channel": 0}, {"type": "note_off", "time": 68, "note": 68, "velocity": 101, "channel": 0}, {"type": "note_on", "time": 6, "note": 67, "velocity": 99, "channel": 0}, {"type": "note_off", "time": 598, "note": 67, "velocity": 99, "channel": 0}, {"type": "note_on", "time": 6, "note": 70, "velocity": 95, "channel": 0}, {"type": "note_off", "time": 106, "note": 70, "velocity": 95, "channel": 0}, {"type": "note_on", "time": 9, "note": 68, "velocity": 101, "channel": 0}, {"type": "note_off", "time": 478, "note": 68, "velocity": 101, "channel": 0}, {"type": "note_on", "time": 13, "note": 71, "velocity": 99, "channel": 0}, {"type": "note_off", "time": 121, "note": 71, "velocity": 99, "channel": 0}, {"type": "note_on", "time": 8, "note": 70, "velocity": 95, "channel": 0}, {"type": "note_off", "time": 103, "note": 70, "velocity": 95, "channel": 0}, {"type": "note_on", "time": 306, "note": 73, "velocity": 99, "channel": 0}, {"type": "note_off", "time": 98, "note": 73, "velocity": 99, "channel": 0}, {"type": "note_on", "time": 3, "note": 72, "velocity": 97, "channel": 0}, {"type": "note_off", "time": 384, "note": 72, "velocity": 97, "channel": 0}, {"type": "note_on", "time": 4, "note": 73, "velocity": 94, "channel": 0}, {"type": "note_off", "time": 72, "note": 73, "velocity": 94, "channel": 0}, {"type": "note_on", "time": 12, "note": 75, "velocity": 96, "channel": 0}, {"type": "note_off", "time": 88, "note": 75, "velocity": 96, "channel": 0}, {"type": "note_on", "time": 11, "note": 74, "velocity": 93, "channel": 0}, {"type": "note_off", "time": 100, "note": 74, "velocity": 93, "channel": 0}, {"type": "note_on", "time": 378, "note": 77, "velocity": 94, "channel": 0}, {"type": "note_off", "time": 102, "note": 77, "velocity": 94, "channel": 0}, {"type": "note_on", "time": 10, "note": 76, "velocity": 97, "channel": 0}, {"type": "note_off", "time": 429, "note": 76, "velocity": 97, "channel": 0}, {"type": "note_on", "time": 7, "note": 79, "velocity": 98, "channel": 0}, {"type": "note_off", "time": 107, "note": 79, "velocity": 98, "channel": 0}, {"type": "note_on", "time": 1, "note": 78, "velocity": 94, "channel": 0}, {"type": "note_off", "time": 102, "note": 78, "velocity": 94, "channel": 0}, {"type": "note_on", "time": 399, "note": 81, "velocity": 99, "channel": 0}, {"type": "note_off", "time": 81, "note": 81, "velocity": 99, "channel": 0}, {"type": "note_on", "time": 7, "note": 80, "velocity": 98, "channel": 0}, {"type": "note_off", "time": 64, "note": 80, "velocity": 98, "channel": 0}, {"type": "note_on", "time": 2, "note": 79, "velocity": 96, "channel": 0}, {"type": "note_off", "time": 283, "note": 79, "velocity": 96, "channel": 0}, {"type": "note_on", "time": 5, "note": 83, "velocity": 92, "channel": 0}, {"type": "note_off", "time": 53, "note": 83, "velocity": 92, "channel": 0}, {"type": "note_on", "time": 2, "note": 82, "velocity": 94, "channel": 0}, {"type": "note_off", "time": 48, "note": 82, "velocity": 94, "channel": 0}, {"type": "note_on", "time": 8, "note": 84, "velocity": 93, "channel": 0}, {"type": "note_off", "time": 78, "note": 84, "velocity": 93, "channel": 0}, {"type": "note_on", "time": 3, "note": 82, "velocity": 88, "channel": 0}, {"type": "note_off", "time": 127, "note": 82, "velocity": 88, "channel": 0}, {"type": "note_on", "time": 327, "note": 85, "velocity": 97, "channel": 0}, {"type": "note_off", "time": 73, "note": 85, "velocity": 97, "channel": 0}, {"type": "note_on", "time": 2, "note": 86, "velocity": 96, "channel": 0}, {"type": "note_off", "time": 39, "note": 86, "velocity": 96, "channel": 0}, {"type": "note_on", "time": 5, "note": 84, "velocity": 94, "channel": 0}, {"type": "note_off", "time": 326, "note": 84, "velocity": 94, "channel": 0}, {"type": "note_on", "time": 7, "note": 86, "velocity": 93, "channel": 0}, {"type": "note_off", "time": 30, "note": 86, "velocity": 93, "channel": 0}, {"type": "note_on", "time": 7, "note": 84, "velocity": 96, "channel": 0}, {"type": "note_off", "time": 46, "note": 84, "velocity": 96, "channel": 0}, {"type": "note_on", "time": 19, "note": 88, "velocity": 94, "channel": 0}, {"type": "note_off", "time": 134, "note": 88, "velocity": 94, "channel": 0}, {"type": "note_on", "time": 32, "note": 85, "velocity": 94, "channel": 0}, {"type": "note_off", "time": 124, "note": 85, "velocity": 94, "channel": 0}, {"type": "note_on", "time": 285, "note": 45, "velocity": 118, "channel": 0}, {"type": "note_off", "time": 195, "note": 45, "velocity": 118, "channel": 0}, {"type": "note_on", "time": 5, "note": 46, "velocity": 118, "channel": 0}, {"type": "note_off", "time": 143, "note": 46, "velocity": 118, "channel": 0}, {"type": "note_on", "time": 10, "note": 47, "velocity": 114, "channel": 0}, {"type": "note_off", "time": 190, "note": 47, "velocity": 114, "channel": 0}, {"type": "note_on", "time": 10, "note": 48, "velocity": 114, "channel": 0}, {"type": "note_off", "time": 190, "note": 48, "velocity": 114, "channel": 0}, {"type": "note_on", "time": 9, "note": 49, "velocity": 108, "channel": 0}, {"type": "note_off", "time": 245, "note": 49, "velocity": 108, "channel": 0}, {"type": "note_on", "time": 6, "note": 50, "velocity": 111, "channel": 0}, {"type": "note_off", "time": 132, "note": 50, "velocity": 111, "channel": 0}, {"type": "note_on", "time": 5, "note": 51, "velocity": 108, "channel": 0}, {"type": "note_off", "time": 90, "note": 51, "velocity": 108, "channel": 0}, {"type": "note_on", "time": 7, "note": 52, "velocity": 105, "channel": 0}, {"type": "note_off", "time": 247, "note": 52, "velocity": 105, "channel": 0}, {"type": "note_on", "time": 717, "note": 51, "velocity": 107, "channel": 0}, {"type": "note_off", "time": 66, "note": 51, "velocity": 107, "channel": 0}, {"type": "note_on", "time": 5, "note": 53, "velocity": 106, "channel": 0}, {"type": "note_off", "time": 85, "note": 53, "velocity": 106, "channel": 0}, {"type": "note_on", "time": 10, "note": 54, "velocity": 106, "channel": 0}, {"type": "note_off", "time": 87, "note": 54, "velocity": 106, "channel": 0}, {"type": "note_on", "time": 11, "note": 55, "velocity": 102, "channel": 0}, {"type": "note_off", "time": 96, "note": 55, "velocity": 102, "channel": 0}, {"type": "note_on", "time": 1, "note": 56, "velocity": 110, "channel": 0}, {"type": "note_off", "time": 136, "note": 56, "velocity": 110, "channel": 0}, {"type": "note_on", "time": 7, "note": 57, "velocity": 99, "channel": 0}, {"type": "note_off", "time": 41, "note": 57, "velocity": 99, "channel": 0}, {"type": "note_on", "time": 6, "note": 58, "velocity": 102, "channel": 0}, {"type": "note_off", "time": 53, "note": 58, "velocity": 102, "channel": 0}, {"type": "note_on", "time": 16, "note": 59, "velocity": 98, "channel": 0}, {"type": "note_off", "time": 111, "note": 59, "velocity": 98, "channel": 0}, {"type": "note_on", "time": 1, "note": 60, "velocity": 114, "channel": 0}, {"type": "note_off", "time": 67, "note": 60, "velocity": 114, "channel": 0}, {"type": "note_on", "time": 11, "note": 61, "velocity": 102, "channel": 0}, {"type": "note_off", "time": 110, "note": 61, "velocity": 102, "channel": 0}, {"type": "note_on", "time": 10, "note": 62, "velocity": 108, "channel": 0}, {"type": "note_off", "time": 68, "note": 62, "velocity": 108, "channel": 0}, {"type": "note_on", "time": 9, "note": 63, "velocity": 105, "channel": 0}, {"type": "note_off", "time": 88, "note": 63, "velocity": 105, "channel": 0}, {"type": "note_on", "time": 11, "note": 61, "velocity": 103, "channel": 0}, {"type": "note_off", "time": 106, "note": 61, "velocity": 103, "channel": 0}, {"type": "note_on", "time": 2, "note": 62, "velocity": 108, "channel": 0}, {"type": "note_off", "time": 92, "note": 62, "velocity": 108, "channel": 0}, {"type": "note_on", "time": 2, "note": 61, "velocity": 104, "channel": 0}, {"type": "note_off", "time": 49, "note": 61, "velocity": 104, "channel": 0}, {"type": "note_on", "time": 2, "note": 60, "velocity": 105, "channel": 0}, {"type": "note_off", "time": 138, "note": 60, "velocity": 105, "channel": 0}, {"type": "note_on", "time": 5, "note": 58, "velocity": 100, "channel": 0}, {"type": "note_off", "time": 63, "note": 58, "velocity": 100, "channel": 0}, {"type": "note_on", "time": 4, "note": 59, "velocity": 102, "channel": 0}, {"type": "note_off", "time": 78, "note": 59, "velocity": 102, "channel": 0}, {"type": "note_on", "time": 21, "note": 56, "velocity": 106, "channel": 0}, {"type": "note_off", "time": 70, "note": 56, "velocity": 106, "channel": 0}, {"type": "note_on", "time": 4, "note": 55, "velocity": 110, "channel": 0}, {"type": "note_off", "time": 120, "note": 55, "velocity": 110, "channel": 0}, {"type": "note_on", "time": 2, "note": 54, "velocity": 115, "channel": 0}, {"type": "note_off", "time": 46, "note": 54, "velocity": 115, "channel": 0}, {"type": "note_on", "time": 8, "note": 53, "velocity": 110, "channel": 0}, {"type": "note_off", "time": 120, "note": 53, "velocity": 110, "channel": 0}, {"type": "note_on", "time": 3, "note": 51, "velocity": 108, "channel": 0}, {"type": "note_off", "time": 78, "note": 51, "velocity": 108, "channel": 0}, {"type": "note_on", "time": 7, "note": 52, "velocity": 105, "channel": 0}, {"type": "note_off", "time": 180, "note": 52, "velocity": 105, "channel": 0}, {"type": "note_on", "time": 12, "note": 55, "velocity": 99, "channel": 0}, {"type": "note_off", "time": 164, "note": 55, "velocity": 99, "channel": 0}, {"type": "note_on", "time": 8, "note": 60, "velocity": 103, "channel": 0}, {"type": "note_off", "time": 197, "note": 60, "velocity": 103, "channel": 0}, {"type": "note_on", "time": 6, "note": 55, "velocity": 102, "channel": 0}, {"type": "note_off", "time": 86, "note": 55, "velocity": 102, "channel": 0}, {"type": "note_on", "time": 1, "note": 53, "velocity": 102, "channel": 0}, {"type": "note_off", "time": 274, "note": 53, "velocity": 102, "channel": 0}, {"type": "note_on", "time": 235, "note": 58, "velocity": 99, "channel": 0}, {"type": "note_off", "time": 85, "note": 58, "velocity": 99, "channel": 0}, {"type": "note_on", "time": 5, "note": 53, "velocity": 106, "channel": 0}, {"type": "note_off", "time": 86, "note": 53, "velocity": 106, "channel": 0}, {"type": "note_on", "time": 2, "note": 51, "velocity": 111, "channel": 0}, {"type": "note_off", "time": 90, "note": 51, "velocity": 111, "channel": 0}, {"type": "note_on", "time": 303, "note": 56, "velocity": 103, "channel": 0}, {"type": "note_off", "time": 52, "note": 56, "velocity": 103, "channel": 0}, {"type": "note_on", "time": 1, "note": 55, "velocity": 107, "channel": 0}, {"type": "note_off", "time": 51, "note": 55, "velocity": 107, "channel": 0}, {"type": "note_on", "time": 0, "note": 54, "velocity": 106, "channel": 0}, {"type": "note_off", "time": 103, "note": 54, "velocity": 106, "channel": 0}, {"type": "note_on", "time": 9, "note": 53, "velocity": 113, "channel": 0}, {"type": "note_off", "time": 67, "note": 53, "velocity": 113, "channel": 0}, {"type": "note_on", "time": 9, "note": 51, "velocity": 112, "channel": 0}, {"type": "note_off", "time": 77, "note": 51, "velocity": 112, "channel": 0}, {"type": "note_on", "time": 0, "note": 49, "velocity": 107, "channel": 0}, {"type": "note_off", "time": 88, "note": 49, "velocity": 107, "channel": 0}, {"type": "note_on", "time": 0, "note": 47, "velocity": 107, "channel": 0}, {"type": "note_off", "time": 104, "note": 47, "velocity": 107, "channel": 0}, {"type": "note_on", "time": 4, "note": 46, "velocity": 109, "channel": 0}, {"type": "note_off", "time": 90, "note": 46, "velocity": 109, "channel": 0}, {"type": "note_on", "time": 13, "note": 48, "velocity": 105, "channel": 0}, {"type": "note_off", "time": 89, "note": 48, "velocity": 105, "channel": 0}, {"type": "note_on", "time": 5, "note": 51, "velocity": 105, "channel": 0}, {"type": "note_off", "time": 116, "note": 51, "velocity": 105, "channel": 0}, {"type": "note_on", "time": 7, "note": 56, "velocity": 100, "channel": 0}, {"type": "note_off", "time": 128, "note": 56, "velocity": 100, "channel": 0}, {"type": "note_on", "time": 10, "note": 53, "velocity": 107, "channel": 0}, {"type": "note_off", "time": 64, "note": 53, "velocity": 107, "channel": 0}, {"type": "note_on", "time": 8, "note": 54, "velocity": 108, "channel": 0}, {"type": "note_off", "time": 88, "note": 54, "velocity": 108, "channel": 0}, {"type": "note_on", "time": 9, "note": 58, "velocity": 92, "channel": 0}, {"type": "note_off", "time": 94, "note": 58, "velocity": 92, "channel": 0}, {"type": "note_on", "time": 6, "note": 61, "velocity": 103, "channel": 0}, {"type": "note_off", "time": 60, "note": 61, "velocity": 103, "channel": 0}, {"type": "note_on", "time": 3, "note": 62, "velocity": 108, "channel": 0}, {"type": "note_off", "time": 73, "note": 62, "velocity": 108, "channel": 0}, {"type": "note_on", "time": 11, "note": 65, "velocity": 106, "channel": 0}, {"type": "note_off", "time": 89, "note": 65, "velocity": 106, "channel": 0}, {"type": "note_on", "time": 2, "note": 64, "velocity": 104, "channel": 0}, {"type": "note_off", "time": 111, "note": 64, "velocity": 104, "channel": 0}, {"type": "note_on", "time": 6, "note": 62, "velocity": 103, "channel": 0}, {"type": "note_off", "time": 48, "note": 62, "velocity": 103, "channel": 0}, {"type": "note_on", "time": 5, "note": 63, "velocity": 105, "channel": 0}, {"type": "note_off", "time": 116, "note": 63, "velocity": 105, "channel": 0}, {"type": "note_on", "time": 7, "note": 65, "velocity": 99, "channel": 0}, {"type": "note_off", "time": 64, "note": 65, "velocity": 99, "channel": 0}, {"type": "note_on", "time": 11, "note": 66, "velocity": 94, "channel": 0}, {"type": "note_off", "time": 97, "note": 66, "velocity": 94, "channel": 0}, {"type": "note_on", "time": 8, "note": 68, "velocity": 85, "channel": 0}, {"type": "note_off", "time": 87, "note": 68, "velocity": 85, "channel": 0}, {"type": "note_on", "time": 4, "note": 70, "velocity": 89, "channel": 0}, {"type": "note_off", "time": 76, "note": 70, "velocity": 89, "channel": 0}, {"type": "note_on", "time": 41, "note": 63, "velocity": 106, "channel": 0}, {"type": "note_off", "time": 78, "note": 63, "velocity": 106, "channel": 0}, {"type": "note_on", "time": 577, "note": 71, "velocity": 103, "channel": 0}, {"type": "note_off", "time": 38, "note": 71, "velocity": 103, "channel": 0}, {"type": "note_on", "time": 0, "note": 73, "velocity": 98, "channel": 0}, {"type": "note_off", "time": 78, "note": 73, "velocity": 98, "channel": 0}, {"type": "note_on", "time": 13, "note": 72, "velocity": 97, "channel": 0}, {"type": "note_off", "time": 88, "note": 72, "velocity": 97, "channel": 0}, {"type": "note_on", "time": 7, "note": 70, "velocity": 94, "channel": 0}, {"type": "note_off", "time": 60, "note": 70, "velocity": 94, "channel": 0}, {"type": "note_on", "time": 7, "note": 71, "velocity": 91, "channel": 0}, {"type": "note_off", "time": 40, "note": 71, "velocity": 91, "channel": 0}, {"type": "note_on", "time": 0, "note": 69, "velocity": 99, "channel": 0}, {"type": "note_off", "time": 55, "note": 69, "velocity": 99, "channel": 0}, {"type": "note_on", "time": 3, "note": 68, "velocity": 92, "channel": 0}, {"type": "note_off", "time": 75, "note": 68, "velocity": 92, "channel": 0}, {"type": "note_on", "time": 20, "note": 66, "velocity": 97, "channel": 0}, {"type": "note_off", "time": 83, "note": 66, "velocity": 97, "channel": 0}, {"type": "note_on", "time": 7, "note": 65, "velocity": 103, "channel": 0}, {"type": "note_off", "time": 72, "note": 65, "velocity": 103, "channel": 0}, {"type": "note_on", "time": 10, "note": 63, "velocity": 108, "channel": 0}, {"type": "note_off", "time": 91, "note": 63, "velocity": 108, "channel": 0}, {"type": "note_on", "time": 6, "note": 61, "velocity": 98, "channel": 0}, {"type": "note_off", "time": 62, "note": 61, "velocity": 98, "channel": 0}, {"type": "note_on", "time": 26, "note": 63, "velocity": 110, "channel": 0}, {"type": "note_off", "time": 104, "note": 63, "velocity": 110, "channel": 0}, {"type": "note_on", "time": 13, "note": 65, "velocity": 95, "channel": 0}, {"type": "note_off", "time": 69, "note": 65, "velocity": 95, "channel": 0}, {"type": "note_on", "time": 5, "note": 68, "velocity": 86, "channel": 0}, {"type": "note_off", "time": 85, "note": 68, "velocity": 86, "channel": 0}, {"type": "note_on", "time": 23, "note": 73, "velocity": 91, "channel": 0}, {"type": "note_off", "time": 77, "note": 73, "velocity": 91, "channel": 0}, {"type": "note_on", "time": 35, "note": 68, "velocity": 96, "channel": 0}, {"type": "note_off", "time": 57, "note": 68, "velocity": 96, "channel": 0}, {"type": "note_on", "time": 16, "note": 65, "velocity": 95, "channel": 0}, {"type": "note_off", "time": 118, "note": 65, "velocity": 95, "channel": 0}, {"type": "note_on", "time": 89, "note": 65, "velocity": 96, "channel": 0}, {"type": "note_off", "time": 46, "note": 65, "velocity": 96, "channel": 0}, {"type": "note_on", "time": 2, "note": 67, "velocity": 91, "channel": 0}, {"type": "note_off", "time": 87, "note": 67, "velocity": 91, "channel": 0}, {"type": "note_on", "time": 156, "note": 75, "velocity": 90, "channel": 0}, {"type": "note_off", "time": 214, "note": 75, "velocity": 90, "channel": 0}, {"type": "note_on", "time": 343, "note": 67, "velocity": 93, "channel": 0}, {"type": "note_off", "time": 74, "note": 67, "velocity": 93, "channel": 0}, {"type": "note_on", "time": 1, "note": 69, "velocity": 90, "channel": 0}, {"type": "note_off", "time": 57, "note": 69, "velocity": 90, "channel": 0}, {"type": "note_on", "time": 166, "note": 77, "velocity": 78, "channel": 0}, {"type": "note_off", "time": 121, "note": 77, "velocity": 78, "channel": 0}, {"type": "note_on", "time": 268, "note": 79, "velocity": 91, "channel": 0}, {"type": "note_off", "time": 90, "note": 79, "velocity": 91, "channel": 0}, {"type": "note_on", "time": 93, "note": 78, "velocity": 85, "channel": 0}, {"type": "note_off", "time": 119, "note": 78, "velocity": 85, "channel": 0}, {"type": "note_on", "time": 90, "note": 77, "velocity": 77, "channel": 0}, {"type": "note_off", "time": 88, "note": 77, "velocity": 77, "channel": 0}, {"type": "note_on", "time": 116, "note": 76, "velocity": 92, "channel": 0}, {"type": "note_off", "time": 70, "note": 76, "velocity": 92, "channel": 0}, {"type": "note_on", "time": 84, "note": 75, "velocity": 89, "channel": 0}, {"type": "note_off", "time": 86, "note": 75, "velocity": 89, "channel": 0}, {"type": "note_on", "time": 86, "note": 74, "velocity": 75, "channel": 0}, {"type": "note_off", "time": 86, "note": 74, "velocity": 75, "channel": 0}, {"type": "note_on", "time": 28, "note": 73, "velocity": 81, "channel": 0}, {"type": "note_off", "time": 55, "note": 73, "velocity": 81, "channel": 0}, {"type": "note_on", "time": 116, "note": 71, "velocity": 91, "channel": 0}, {"type": "note_off", "time": 72, "note": 71, "velocity": 91, "channel": 0}, {"type": "note_on", "time": 37, "note": 70, "velocity": 87, "channel": 0}, {"type": "note_off", "time": 61, "note": 70, "velocity": 87, "channel": 0}, {"type": "note_on", "time": 355, "note": 72, "velocity": 86, "channel": 0}, {"type": "note_off", "time": 58, "note": 72, "velocity": 86, "channel": 0}, {"type": "note_on", "time": 5, "note": 73, "velocity": 91, "channel": 0}, {"type": "note_off", "time": 147, "note": 73, "velocity": 91, "channel": 0}, {"type": "note_on", "time": 11, "note": 71, "velocity": 90, "channel": 0}, {"type": "note_off", "time": 55, "note": 71, "velocity": 90, "channel": 0}, {"type": "note_on", "time": 6, "note": 69, "velocity": 93, "channel": 0}, {"type": "note_off", "time": 92, "note": 69, "velocity": 93, "channel": 0}, {"type": "note_on", "time": 4, "note": 68, "velocity": 93, "channel": 0}, {"type": "note_off", "time": 86, "note": 68, "velocity": 93, "channel": 0}, {"type": "note_on", "time": 11, "note": 66, "velocity": 97, "channel": 0}, {"type": "note_off", "time": 95, "note": 66, "velocity": 97, "channel": 0}, {"type": "note_on", "time": 10, "note": 64, "velocity": 95, "channel": 0}, {"type": "note_off", "time": 86, "note": 64, "velocity": 95, "channel": 0}, {"type": "note_on", "time": 6, "note": 66, "velocity": 97, "channel": 0}, {"type": "note_off", "time": 97, "note": 66, "velocity": 97, "channel": 0}, {"type": "note_on", "time": 1, "note": 68, "velocity": 93, "channel": 0}, {"type": "note_off", "time": 59, "note": 68, "velocity": 93, "channel": 0}, {"type": "note_on", "time": 23, "note": 71, "velocity": 99, "channel": 0}, {"type": "note_off", "time": 94, "note": 71, "velocity": 99, "channel": 0}, {"type": "note_on", "time": 3, "note": 69, "velocity": 92, "channel": 0}, {"type": "note_off", "time": 64, "note": 69, "velocity": 92, "channel": 0}, {"type": "note_on", "time": 15, "note": 66, "velocity": 95, "channel": 0}, {"type": "note_off", "time": 85, "note": 66, "velocity": 95, "channel": 0}, {"type": "note_on", "time": 6, "note": 63, "velocity": 102, "channel": 0}, {"type": "note_off", "time": 101, "note": 63, "velocity": 102, "channel": 0}, {"type": "note_on", "time": 9, "note": 60, "velocity": 107, "channel": 0}, {"type": "note_off", "time": 95, "note": 60, "velocity": 107, "channel": 0}, {"type": "note_on", "time": 15, "note": 59, "velocity": 102, "channel": 0}, {"type": "note_off", "time": 46, "note": 59, "velocity": 102, "channel": 0}, {"type": "note_on", "time": 28, "note": 62, "velocity": 105, "channel": 0}, {"type": "note_off", "time": 91, "note": 62, "velocity": 105, "channel": 0}, {"type": "note_on", "time": 14, "note": 66, "velocity": 94, "channel": 0}, {"type": "note_off", "time": 50, "note": 66, "velocity": 94, "channel": 0}, {"type": "note_on", "time": 23, "note": 68, "velocity": 93, "channel": 0}, {"type": "note_off", "time": 83, "note": 68, "velocity": 93, "channel": 0}, {"type": "note_on", "time": 62, "note": 65, "velocity": 94, "channel": 0}, {"type": "note_off", "time": 46, "note": 65, "velocity": 94, "channel": 0}, {"type": "note_on", "time": 5, "note": 66, "velocity": 93, "channel": 0}, {"type": "note_off", "time": 53, "note": 66, "velocity": 93, "channel": 0}, {"type": "note_on", "time": 5, "note": 67, "velocity": 98, "channel": 0}, {"type": "note_off", "time": 106, "note": 67, "velocity": 98, "channel": 0}, {"type": "note_on", "time": 11, "note": 65, "velocity": 101, "channel": 0}, {"type": "note_off", "time": 50, "note": 65, "velocity": 101, "channel": 0}, {"type": "note_on", "time": 16, "note": 64, "velocity": 109, "channel": 0}, {"type": "note_off", "time": 113, "note": 64, "velocity": 109, "channel": 0}, {"type": "note_on", "time": 6, "note": 60, "velocity": 108, "channel": 0}, {"type": "note_off", "time": 75, "note": 60, "velocity": 108, "channel": 0}, {"type": "note_on", "time": 6, "note": 57, "velocity": 110, "channel": 0}, {"type": "note_off", "time": 107, "note": 57, "velocity": 110, "channel": 0}, {"type": "note_on", "time": 5, "note": 55, "velocity": 108, "channel": 0}, {"type": "note_off", "time": 84, "note": 55, "velocity": 108, "channel": 0}, {"type": "note_on", "time": 11, "note": 60, "velocity": 112, "channel": 0}, {"type": "note_off", "time": 81, "note": 60, "velocity": 112, "channel": 0}, {"type": "note_on", "time": 6, "note": 62, "velocity": 110, "channel": 0}, {"type": "note_off", "time": 90, "note": 62, "velocity": 110, "channel": 0}, {"type": "note_on", "time": 20, "note": 64, "velocity": 100, "channel": 0}, {"type": "note_off", "time": 42, "note": 64, "velocity": 100, "channel": 0}, {"type": "note_on", "time": 20, "note": 67, "velocity": 98, "channel": 0}, {"type": "note_off", "time": 108, "note": 67, "velocity": 98, "channel": 0}, {"type": "end_of_track", "time": 0}]]}