{"ticks_per_beat": 2520, "tracks": [[{"type": "track_name", "name": "Melody", "time": 0}, {"type": "set_tempo", "tempo": 731707, "time": 0}, {"type": "key_signature", "key": "F#", "time": 0}, {"type": "time_signature", "numerator": 4, "denominator": 4, "clocks_per_click": 24, "notated_32nd_notes_per_beat": 8, "time": 0}, {"type": "note_on", "time": 45517, "note": 50, "velocity": 123, "channel": 0}, {"type": "note_off", "time": 871, "note": 50, "velocity": 123, "channel": 0}, {"type": "note_on", "time": 28, "note": 52, "velocity": 111, "channel": 0}, {"type": "note_off", "time": 1686, "note": 52, "velocity": 111, "channel": 0}, {"type": "note_on", "time": 112, "note": 50, "velocity": 99, "channel": 0}, {"type": "note_off", "time": 871, "note": 50, "velocity": 99, "channel": 0}, {"type": "note_on", "time": 112, "note": 52, "velocity": 100, "channel": 0}, {"type": "note_off", "time": 1799, "note": 52, "velocity": 100, "channel": 0}, {"type": "note_on", "time": 112, "note": 53, "velocity": 102, "channel": 0}, {"type": "note_off", "time": 843, "note": 53, "velocity": 102, "channel": 0}, {"type": "note_on", "time": 112, "note": 55, "velocity": 102, "channel": 0}, {"type": "note_off", "time": 1686, "note": 55, "velocity": 102, "channel": 0}, {"type": "note_on", "time": 112, "note": 57, "velocity": 96, "channel": 0}, {"type": "note_off", "time": 899, "note": 57, "velocity": 96, "channel": 0}, {"type": "note_on", "time": 112, "note": 52, "velocity": 92, "channel": 0}, {"type": "note_off", "time": 2895, "note": 52, "velocity": 92, "channel": 0}, {"type": "note_on", "time": 112, "note": 55, "velocity": 102, "channel": 0}, {"type": "note_off", "time": 759, "note": 55, "velocity": 102, "channel": 0}, {"type": "note_on", "time": 56, "note": 57, "velocity": 102, "channel": 0}, {"type": "note_off", "time": 590, "note": 57, "velocity": 102, "channel": 0}, {"type": "note_on", "time": 56, "note": 59, "velocity": 98, "channel": 0}, {"type": "note_off", "time": 787, "note": 59, "velocity": 98, "channel": 0}, {"type": "note_on", "time": 28, "note": 51, "velocity": 99, "channel": 0}, {"type": "note_off", "time": 4273, "note": 51, "velocity": 99, "channel": 0}, {"type": "note_on", "time": 2277, "note": 55, "velocity": 114, "channel": 0}, {"type": "note_off", "time": 2361, "note": 55, "velocity": 114, "channel": 0}, {"type": "note_on", "time": 112, "note": 57, "velocity": 101, "channel": 0}, {"type": "note_off", "time": 646, "note": 57, "velocity": 101, "channel": 0}, {"type": "note_on", "time": 28, "note": 59, "velocity": 102, "channel": 0}, {"type": "note_off", "time": 730, "note": 59, "velocity": 102, "channel": 0}, {"type": "note_on", "time": 28, "note": 62, "velocity": 119, "channel": 0}, {"type": "note_off", "time": 3879, "note": 62, "velocity": 119, "channel": 0}, {"type": "note_on", "time": 0, "note": 60, "velocity": 104, "channel": 0}, {"type": "note_off", "time": 899, "note": 60, "velocity": 104, "channel": 0}, {"type": "note_on", "time": 56, "note": 59, "velocity": 96, "channel": 0}, {"type": "note_off", "time": 2249, "note": 59, "velocity": 96, "channel": 0}, {"type": "note_on", "time": 112, "note": 60, "velocity": 107, "channel": 0}, {"type": "note_on", "time": 843, "note": 64, "velocity": 123, "channel": 0}, {"type": "note_off", "time": 0, "note": 60, "velocity": 107, "channel": 0}, {"type": "note_off", "time": 646, "note": 64, "velocity": 123, "channel": 0}, {"type": "note_on", "time": 84, "note": 67, "velocity": 109, "channel": 0}, {"type": "note_off", "time": 787, "note": 67, "velocity": 109, "channel": 0}, {"type": "note_on", "time": 281, "note": 71, "velocity": 95, "channel": 0}, {"type": "note_off", "time": 3851, "note": 71, "velocity": 95, "channel": 0}, {"type": "note_on", "time": 43, "note": 70, "velocity": 109, "channel": 0}, {"type": "note_off", "time": 549, "note": 70, "velocity": 109, "channel": 0}, {"type": "note_on", "time": 85, "note": 69, "velocity": 90, "channel": 0}, {"type": "note_off", "time": 397, "note": 69, "velocity": 90, "channel": 0}, {"type": "note_on", "time": 63, "note": 68, "velocity": 95, "channel": 0}, {"type": "note_off", "time": 207, "note": 68, "velocity": 95, "channel": 0}, {"type": "note_on", "time": 98, "note": 66, "velocity": 113, "channel": 0}, {"type": "note_off", "time": 224, "note": 66, "velocity": 113, "channel": 0}, {"type": "note_on", "time": 123, "note": 65, "velocity": 107, "channel": 0}, {"type": "note_off", "time": 4610, "note": 65, "velocity": 107, "channel": 0}, {"type": "note_on", "time": 1778, "note": 69, "velocity": 104, "channel": 0}, {"type": "note_off", "time": 927, "note": 69, "velocity": 104, "channel": 0}, {"type": "note_on", "time": 20, "note": 71, "velocity": 103, "channel": 0}, {"type": "note_off", "time": 254, "note": 71, "velocity": 103, "channel": 0}, {"type": "note_on", "time": 29, "note": 72, "velocity": 100, "channel": 0}, {"type": "note_off", "time": 1324, "note": 72, "velocity": 100, "channel": 0}, {"type": "note_on", "time": 69, "note": 71, "velocity": 96, "channel": 0}, {"type": "note_off", "time": 649, "note": 71, "velocity": 96, "channel": 0}, {"type": "note_on", "time": 99, "note": 69, "velocity": 99, "channel": 0}, {"type": "note_off", "time": 267, "note": 69, "velocity": 99, "channel": 0}, {"type": "note_on", "time": 35, "note": 68, "velocity": 101, "channel": 0}, {"type": "note_off", "time": 253, "note": 68, "velocity": 101, "channel": 0}, {"type": "note_on", "time": 38, "note": 67, "velocity": 109, "channel": 0}, {"type": "note_off", "time": 172, "note": 67, "velocity": 109, "channel": 0}, {"type": "note_on", "time": 70, "note": 66, "velocity": 115, "channel": 0}, {"type": "note_off", "time": 186, "note": 66, "velocity": 115, "channel": 0}, {"type": "note_on", "time": 66, "note": 65, "velocity": 121, "channel": 0}, {"type": "note_off", "time": 589, "note": 65, "velocity": 121, "channel": 0}, {"type": "note_on", "time": 28, "note": 64, "velocity": 116, "channel": 0}, {"type": "note_off", "time": 1609, "note": 64, "velocity": 116, "channel": 0}, {"type": "note_on", "time": 31, "note": 62, "velocity": 119, "channel": 0}, {"type": "note_off", "time": 319, "note": 62, "velocity": 119, "channel": 0}, {"type": "note_on", "time": 59, "note": 59, "velocity": 102, "channel": 0}, {"type": "note_off", "time": 383, "note": 59, "velocity": 102, "channel": 0}, {"type": "note_on", "time": 189, "note": 53, "velocity": 114, "channel": 0}, {"type": "note_off", "time": 477, "note": 53, "velocity": 114, "channel": 0}, {"type": "note_on", "time": 42, "note": 54, "velocity": 109, "channel": 0}, {"type": "note_off", "time": 393, "note": 54, "velocity": 109, "channel": 0}, {"type": "note_on", "time": 94, "note": 57, "velocity": 110, "channel": 0}, {"type": "note_off", "time": 506, "note": 57, "velocity": 110, "channel": 0}, {"type": "note_on", "time": 51, "note": 56, "velocity": 109, "channel": 0}, {"type": "note_off", "time": 477, "note": 56, "velocity": 109, "channel": 0}, {"type": "note_on", "time": 129, "note": 59, "velocity": 107, "channel": 0}, {"type": "note_off", "time": 407, "note": 59, "velocity": 107, "channel": 0}, {"type": "note_on", "time": 121, "note": 62, "velocity": 122, "channel": 0}, {"type": "note_off", "time": 506, "note": 62, "velocity": 122, "channel": 0}, {"type": "note_on", "time": 175, "note": 66, "velocity": 87, "channel": 0}, {"type": "note_off", "time": 154, "note": 66, "velocity": 87, "channel": 0}, {"type": "note_on", "time": 59, "note": 65, "velocity": 119, "channel": 0}, {"type": "note_off", "time": 332, "note": 65, "velocity": 119, "channel": 0}, {"type": "note_on", "time": 62, "note": 64, "velocity": 117, "channel": 0}, {"type": "note_off", "time": 517, "note": 64, "velocity": 117, "channel": 0}, {"type": "note_on", "time": 64, "note": 62, "velocity": 116, "channel": 0}, {"type": "note_off", "time": 339, "note": 62, "velocity": 116, "channel": 0}, {"type": "note_on", "time": 44, "note": 60, "velocity": 109, "channel": 0}, {"type": "note_off", "time": 424, "note": 60, "velocity": 109, "channel": 0}, {"type": "note_on", "time": 92, "note": 57, "velocity": 99, "channel": 0}, {"type": "note_off", "time": 357, "note": 57, "velocity": 99, "channel": 0}, {"type": "note_on", "time": 77, "note": 54, "velocity": 110, "channel": 0}, {"type": "note_off", "time": 352, "note": 54, "velocity": 110, "channel": 0}, {"type": "note_on", "time": 32, "note": 53, "velocity": 109, "channel": 0}, {"type": "note_off", "time": 277, "note": 53, "velocity": 109, "channel": 0}, {"type": "note_on", "time": 59, "note": 52, "velocity": 102, "channel": 0}, {"type": "note_off", "time": 429, "note": 52, "velocity": 102, "channel": 0}, {"type": "note_on", "time": 99, "note": 64, "velocity": 103, "channel": 0}, {"type": "note_off", "time": 3878, "note": 64, "velocity": 103, "channel": 0}, {"type": "note_on", "time": 0, "note": 62, "velocity": 110, "channel": 0}, {"type": "note_off", "time": 2609, "note": 62, "velocity": 110, "channel": 0}, {"type": "note_on", "time": 1709, "note": 60, "velocity": 110, "channel": 0}, {"type": "note_off", "time": 748, "note": 60, "velocity": 110, "channel": 0}, {"type": "note_on", "time": 70, "note": 59, "velocity": 110, "channel": 0}, {"type": "note_off", "time": 808, "note": 59, "velocity": 110, "channel": 0}, {"type": "note_on", "time": 52, "note": 58, "velocity": 114, "channel": 0}, {"type": "note_off", "time": 678, "note": 58, "velocity": 114, "channel": 0}, {"type": "note_on", "time": 63, "note": 57, "velocity": 108, "channel": 0}, {"type": "note_off", "time": 695, "note": 57, "velocity": 108, "channel": 0}, {"type": "note_on", "time": 42, "note": 55, "velocity": 114, "channel": 0}, {"type": "note_off", "time": 962, "note": 55, "velocity": 114, "channel": 0}, {"type": "note_on", "time": 56, "note": 54, "velocity": 119, "channel": 0}, {"type": "note_off", "time": 1009, "note": 54, "velocity": 119, "channel": 0}, {"type": "note_on", "time": 9, "note": 53, "velocity": 110, "channel": 0}, {"type": "note_off", "time": 849, "note": 53, "velocity": 110, "channel": 0}, {"type": "note_on", "time": 49, "note": 53, "velocity": 102, "channel": 0}, {"type": "note_off", "time": 2349, "note": 53, "velocity": 102, "channel": 0}, {"type": "note_on", "time": 149, "note": 52, "velocity": 95, "channel": 0}, {"type": "note_off", "time": 3358, "note": 52, "velocity": 95, "channel": 0}, {"type": "note_on", "time": 1829, "note": 50, "velocity": 107, "channel": 0}, {"type": "note_off", "time": 949, "note": 50, "velocity": 107, "channel": 0}, {"type": "note_on", "time": 29, "note": 52, "velocity": 113, "channel": 0}, {"type": "note_off", "time": 589, "note": 52, "velocity": 113, "channel": 0}, {"type": "note_on", "time": 49, "note": 50, "velocity": 97, "channel": 0}, {"type": "note_off", "time": 669, "note": 50, "velocity": 97, "channel": 0}, {"type": "note_on", "time": 0, "note": 52, "velocity": 99, "channel": 0}, {"type": "note_off", "time": 2619, "note": 52, "velocity": 99, "channel": 0}, {"type": "note_on", "time": 9, "note": 50, "velocity": 107, "channel": 0}, {"type": "note_off", "time": 989, "note": 50, "velocity": 107, "channel": 0}, {"type": "note_on", "time": 22, "note": 52, "velocity": 108, "channel": 0}, {"type": "note_off", "time": 600, "note": 52, "velocity": 108, "channel": 0}, {"type": "note_on", "time": 56, "note": 50, "velocity": 107, "channel": 0}, {"type": "note_off", "time": 879, "note": 50, "velocity": 107, "channel": 0}, {"type": "note_on", "time": 29, "note": 51, "velocity": 108, "channel": 0}, {"type": "note_off", "time": 3298, "note": 51, "velocity": 108, "channel": 0}, {"type": "note_on", "time": 117, "note": 53, "velocity": 112, "channel": 0}, {"type": "note_off", "time": 555, "note": 53, "velocity": 112, "channel": 0}, {"type": "note_on", "time": 77, "note": 55, "velocity": 107, "channel": 0}, {"type": "note_off", "time": 418, "note": 55, "velocity": 107, "channel": 0}, {"type": "note_on", "time": 26, "note": 57, "velocity": 101, "channel": 0}, {"type": "note_off", "time": 504, "note": 57, "velocity": 101, "channel": 0}, {"type": "note_on", "time": 49, "note": 59, "velocity": 105, "channel": 0}, {"type": "note_off", "time": 579, "note": 59, "velocity": 105, "channel": 0}, {"type": "note_on", "time": 29, "note": 63, "velocity": 115, "channel": 0}, {"type": "note_off", "time": 664, "note": 63, "velocity": 115, "channel": 0}, {"type": "note_on", "time": 94, "note": 69, "velocity": 90, "channel": 0}, {"type": "note_off", "time": 2379, "note": 69, "velocity": 90, "channel": 0}, {"type": "note_on", "time": 32, "note": 67, "velocity": 108, "channel": 0}, {"type": "note_off", "time": 269, "note": 67, "velocity": 108, "channel": 0}, {"type": "note_on", "time": 19, "note": 69, "velocity": 92, "channel": 0}, {"type": "note_off", "time": 137, "note": 69, "velocity": 92, "channel": 0}, {"type": "note_on", "time": 32, "note": 67, "velocity": 109, "channel": 0}, {"type": "note_off", "time": 324, "note": 67, "velocity": 109, "channel": 0}, {"type": "note_on", "time": 42, "note": 64, "velocity": 115, "channel": 0}, {"type": "note_off", "time": 379, "note": 64, "velocity": 115, "channel": 0}, {"type": "note_on", "time": 53, "note": 59, "velocity": 98, "channel": 0}, {"type": "note_off", "time": 618, "note": 59, "velocity": 98, "channel": 0}, {"type": "note_on", "time": 37, "note": 57, "velocity": 89, "channel": 0}, {"type": "note_off", "time": 3998, "note": 57, "velocity": 89, "channel": 0}, {"type": "note_on", "time": 2269, "note": 55, "velocity": 114, "channel": 0}, {"type": "note_off", "time": 1879, "note": 55, "velocity": 114, "channel": 0}, {"type": "note_on", "time": 17, "note": 57, "velocity": 106, "channel": 0}, {"type": "note_off", "time": 477, "note": 57, "velocity": 106, "channel": 0}, {"type": "note_on", "time": 108, "note": 59, "velocity": 106, "channel": 0}, {"type": "note_off", "time": 558, "note": 59, "velocity": 106, "channel": 0}, {"type": "note_on", "time": 115, "note": 62, "velocity": 118, "channel": 0}, {"type": "note_off", "time": 2978, "note": 62, "velocity": 118, "channel": 0}, {"type": "note_on", "time": 0, "note": 60, "velocity": 97, "channel": 0}, {"type": "note_off", "time": 2648, "note": 60, "velocity": 97, "channel": 0}, {"type": "note_on", "time": 0, "note": 59, "velocity": 96, "channel": 0}, {"type": "note_off", "time": 2079, "note": 59, "velocity": 96, "channel": 0}, {"type": "note_on", "time": 199, "note": 58, "velocity": 99, "channel": 0}, {"type": "note_off", "time": 1079, "note": 58, "velocity": 99, "channel": 0}, {"type": "note_on", "time": 49, "note": 57, "velocity": 91, "channel": 0}, {"type": "note_off", "time": 3378, "note": 57, "velocity": 91, "channel": 0}, {"type": "note_on", "time": 1174, "note": 60, "velocity": 115, "channel": 0}, {"type": "note_off", "time": 609, "note": 60, "velocity": 115, "channel": 0}, {"type": "note_on", "time": 114, "note": 57, "velocity": 98, "channel": 0}, {"type": "note_off", "time": 459, "note": 57, "velocity": 98, "channel": 0}, {"type": "note_on", "time": 19, "note": 60, "velocity": 108, "channel": 0}, {"type": "note_off", "time": 3188, "note": 60, "velocity": 108, "channel": 0}, {"type": "note_on", "time": 0, "note": 57, "velocity": 100, "channel": 0}, {"type": "note_off", "time": 869, "note": 57, "velocity": 100, "channel": 0}, {"type": "note_on", "time": 0, "note": 53, "velocity": 108, "channel": 0}, {"type": "note_off", "time": 669, "note": 53, "velocity": 108, "channel": 0}, {"type": "note_on", "time": 29, "note": 52, "velocity": 103, "channel": 0}, {"type": "note_off", "time": 679, "note": 52, "velocity": 103, "channel": 0}, {"type": "note_on", "time": 94, "note": 54, "velocity": 115, "channel": 0}, {"type": "note_off", "time": 555, "note": 54, "velocity": 115, "channel": 0}, {"type": "note_on", "time": 50, "note": 57, "velocity": 106, "channel": 0}, {"type": "note_off", "time": 579, "note": 57, "velocity": 106, "channel": 0}, {"type": "note_on", "time": 19, "note": 56, "velocity": 106, "channel": 0}, {"type": "note_off", "time": 649, "note": 56, "velocity": 106, "channel": 0}, {"type": "note_on", "time": 14, "note": 59, "velocity": 107, "channel": 0}, {"type": "note_off", "time": 502, "note": 59, "velocity": 107, "channel": 0}, {"type": "note_on", "time": 72, "note": 62, "velocity": 125, "channel": 0}, {"type": "note_off", "time": 644, "note": 62, "velocity": 125, "channel": 0}, {"type": "note_on", "time": 114, "note": 63, "velocity": 106, "channel": 0}, {"type": "note_off", "time": 249, "note": 63, "velocity": 106, "channel": 0}, {"type": "note_on", "time": 0, "note": 65, "velocity": 119, "channel": 0}, {"type": "note_off", "time": 799, "note": 65, "velocity": 119, "channel": 0}, {"type": "note_on", "time": 49, "note": 65, "velocity": 119, "channel": 0}, {"type": "note_off", "time": 659, "note": 65, "velocity": 119, "channel": 0}, {"type": "note_on", "time": 39, "note": 64, "velocity": 116, "channel": 0}, {"type": "note_off", "time": 2878, "note": 64, "velocity": 116, "channel": 0}, {"type": "note_on", "time": 24, "note": 62, "velocity": 111, "channel": 0}, {"type": "note_off", "time": 776, "note": 62, "velocity": 111, "channel": 0}, {"type": "note_on", "time": 98, "note": 60, "velocity": 90, "channel": 0}, {"type": "note_off", "time": 702, "note": 60, "velocity": 90, "channel": 0}, {"type": "note_on", "time": 56, "note": 57, "velocity": 96, "channel": 0}, {"type": "note_off", "time": 2009, "note": 57, "velocity": 96, "channel": 0}, {"type": "note_on", "time": 1293, "note": 60, "velocity": 115, "channel": 0}, {"type": "note_off", "time": 657, "note": 60, "velocity": 115, "channel": 0}, {"type": "note_on", "time": 58, "note": 62, "velocity": 127, "channel": 0}, {"type": "note_off", "time": 783, "note": 62, "velocity": 127, "channel": 0}, {"type": "note_on", "time": 50, "note": 64, "velocity": 118, "channel": 0}, {"type": "note_off", "time": 843, "note": 64, "velocity": 118, "channel": 0}, {"type": "note_on", "time": 111, "note": 65, "velocity": 114, "channel": 0}, {"type": "note_off", "time": 249, "note": 65, "velocity": 114, "channel": 0}, {"type": "note_on", "time": 19, "note": 67, "velocity": 116, "channel": 0}, {"type": "note_off", "time": 619, "note": 67, "velocity": 116, "channel": 0}, {"type": "note_on", "time": 19, "note": 65, "velocity": 124, "channel": 0}, {"type": "note_off", "time": 669, "note": 65, "velocity": 124, "channel": 0}, {"type": "note_on", "time": 0, "note": 64, "velocity": 120, "channel": 0}, {"type": "note_off", "time": 669, "note": 64, "velocity": 120, "channel": 0}, {"type": "note_on", "time": 257, "note": 55, "velocity": 102, "channel": 0}, {"type": "note_off", "time": 787, "note": 55, "velocity": 102, "channel": 0}, {"type": "note_on", "time": 65, "note": 60, "velocity": 90, "channel": 0}, {"type": "note_off", "time": 5647, "note": 60, "velocity": 90, "channel": 0}, {"type": "note_on", "time": 1607, "note": 61, "velocity": 114, "channel": 0}, {"type": "note_off", "time": 277, "note": 61, "velocity": 114, "channel": 0}, {"type": "note_on", "time": 45, "note": 63, "velocity": 123, "channel": 0}, {"type": "note_off", "time": 878, "note": 63, "velocity": 123, "channel": 0}, {"type": "note_on", "time": 129, "note": 63, "velocity": 124, "channel": 0}, {"type": "note_off", "time": 1349, "note": 63, "velocity": 124, "channel": 0}, {"type": "note_on", "time": 49, "note": 63, "velocity": 9, "channel": 0}, {"type": "note_off", "time": 939, "note": 63, "velocity": 9, "channel": 0}, {"type": "note_on", "time": 110, "note": 63, "velocity": 116, "channel": 0}, {"type": "note_off", "time": 1518, "note": 63, "velocity": 116, "channel": 0}, {"type": "note_on", "time": 110, "note": 61, "velocity": 111, "channel": 0}, {"type": "note_off", "time": 909, "note": 61, "velocity": 111, "channel": 0}, {"type": "note_on", "time": 49, "note": 65, "velocity": 103, "channel": 0}, {"type": "note_off", "time": 1409, "note": 65, "velocity": 103, "channel": 0}, {"type": "note_on", "time": 109, "note": 60, "velocity": 89, "channel": 0}, {"type": "note_off", "time": 3968, "note": 60, "velocity": 89, "channel": 0}, {"type": "note_on", "time": 959, "note": 58, "velocity": 106, "channel": 0}, {"type": "note_off", "time": 809, "note": 58, "velocity": 106, "channel": 0}, {"type": "note_on", "time": 69, "note": 56, "velocity": 101, "channel": 0}, {"type": "note_off", "time": 1699, "note": 56, "velocity": 101, "channel": 0}, {"type": "note_on", "time": 69, "note": 61, "velocity": 121, "channel": 0}, {"type": "note_off", "time": 869, "note": 61, "velocity": 121, "channel": 0}, {"type": "note_on", "time": 64, "note": 63, "velocity": 107, "channel": 0}, {"type": "note_off", "time": 234, "note": 63, "velocity": 107, "channel": 0}, {"type": "note_on", "time": 54, "note": 65, "velocity": 113, "channel": 0}, {"type": "note_off", "time": 1264, "note": 65, "velocity": 113, "channel": 0}, {"type": "note_on", "time": 65, "note": 63, "velocity": 112, "channel": 0}, {"type": "note_off", "time": 829, "note": 63, "velocity": 112, "channel": 0}, {"type": "note_on", "time": 144, "note": 66, "velocity": 109, "channel": 0}, {"type": "note_off", "time": 279, "note": 66, "velocity": 109, "channel": 0}, {"type": "note_on", "time": 54, "note": 68, "velocity": 96, "channel": 0}, {"type": "note_off", "time": 3838, "note": 68, "velocity": 96, "channel": 0}, {"type": "note_on", "time": 14, "note": 66, "velocity": 111, "channel": 0}, {"type": "note_off", "time": 809, "note": 66, "velocity": 111, "channel": 0}, {"type": "note_on", "time": 29, "note": 65, "velocity": 111, "channel": 0}, {"type": "note_off", "time": 329, "note": 65, "velocity": 111, "channel": 0}, {"type": "note_on", "time": 99, "note": 56, "velocity": 92, "channel": 0}, {"type": "note_off", "time": 2878, "note": 56, "velocity": 92, "channel": 0}, {"type": "note_on", "time": 129, "note": 61, "velocity": 109, "channel": 0}, {"type": "note_off", "time": 659, "note": 61, "velocity": 109, "channel": 0}, {"type": "note_on", "time": 29, "note": 65, "velocity": 101, "channel": 0}, {"type": "note_off", "time": 819, "note": 65, "velocity": 101, "channel": 0}, {"type": "note_on", "time": 0, "note": 63, "velocity": 99, "channel": 0}, {"type": "note_off", "time": 3268, "note": 63, "velocity": 99, "channel": 0}, {"type": "note_on", "time": 59, "note": 62, "velocity": 105, "channel": 0}, {"type": "note_off", "time": 249, "note": 62, "velocity": 105, "channel": 0}, {"type": "note_on", "time": 49, "note": 61, "velocity": 106, "channel": 0}, {"type": "note_off", "time": 439, "note": 61, "velocity": 106, "channel": 0}, {"type": "note_on", "time": 29, "note": 60, "velocity": 86, "channel": 0}, {"type": "note_off", "time": 1639, "note": 60, "velocity": 86, "channel": 0}, {"type": "note_on", "time": 0, "note": 56, "velocity": 84, "channel": 0}, {"type": "note_off", "time": 7497, "note": 56, "velocity": 84, "channel": 0}, {"type": "note_on", "time": 3128, "note": 49, "velocity": 114, "channel": 0}, {"type": "note_off", "time": 899, "note": 49, "velocity": 114, "channel": 0}, {"type": "note_on", "time": 85, "note": 51, "velocity": 116, "channel": 0}, {"type": "note_off", "time": 1554, "note": 51, "velocity": 116, "channel": 0}, {"type": "note_on", "time": 124, "note": 52, "velocity": 107, "channel": 0}, {"type": "note_off", "time": 899, "note": 52, "velocity": 107, "channel": 0}, {"type": "note_on", "time": 219, "note": 54, "velocity": 102, "channel": 0}, {"type": "note_off", "time": 509, "note": 54, "velocity": 102, "channel": 0}, {"type": "note_on", "time": 29, "note": 56, "velocity": 101, "channel": 0}, {"type": "note_off", "time": 2648, "note": 56, "velocity": 101, "channel": 0}, {"type": "note_on", "time": 139, "note": 54, "velocity": 104, "channel": 0}, {"type": "note_off", "time": 819, "note": 54, "velocity": 104, "channel": 0}, {"type": "note_on", "time": 86, "note": 63, "velocity": 118, "channel": 0}, {"type": "note_off", "time": 1230, "note": 63, "velocity": 118, "channel": 0}, {"type": "note_on", "time": 112, "note": 63, "velocity": 115, "channel": 0}, {"type": "note_off", "time": 702, "note": 63, "velocity": 115, "channel": 0}, {"type": "note_on", "time": 105, "note": 63, "velocity": 114, "channel": 0}, {"type": "note_off", "time": 639, "note": 63, "velocity": 114, "channel": 0}, {"type": "note_on", "time": 147, "note": 63, "velocity": 105, "channel": 0}, {"type": "note_off", "time": 2024, "note": 63, "velocity": 105, "channel": 0}, {"type": "note_on", "time": 73, "note": 58, "velocity": 103, "channel": 0}, {"type": "note_off", "time": 719, "note": 58, "velocity": 103, "channel": 0}, {"type": "note_on", "time": 79, "note": 61, "velocity": 104, "channel": 0}, {"type": "note_off", "time": 2349, "note": 61, "velocity": 104, "channel": 0}, {"type": "note_on", "time": 1369, "note": 59, "velocity": 99, "channel": 0}, {"type": "note_off", "time": 859, "note": 59, "velocity": 99, "channel": 0}, {"type": "note_on", "time": 139, "note": 52, "velocity": 106, "channel": 0}, {"type": "note_off", "time": 2658, "note": 52, "velocity": 106, "channel": 0}, {"type": "note_on", "time": 219, "note": 56, "velocity": 101, "channel": 0}, {"type": "note_off", "time": 679, "note": 56, "velocity": 101, "channel": 0}, {"type": "note_on", "time": 53, "note": 58, "velocity": 97, "channel": 0}, {"type": "note_off", "time": 238, "note": 58, "velocity": 97, "channel": 0}, {"type": "note_on", "time": 56, "note": 59, "velocity": 103, "channel": 0}, {"type": "note_off", "time": 365, "note": 59, "velocity": 103, "channel": 0}, {"type": "note_on", "time": 95, "note": 56, "velocity": 99, "channel": 0}, {"type": "note_off", "time": 659, "note": 56, "velocity": 99, "channel": 0}, {"type": "note_on", "time": 64, "note": 58, "velocity": 97, "channel": 0}, {"type": "note_off", "time": 1839, "note": 58, "velocity": 97, "channel": 0}, {"type": "note_on", "time": 39, "note": 56, "velocity": 95, "channel": 0}, {"type": "note_off", "time": 389, "note": 56, "velocity": 95, "channel": 0}, {"type": "note_on", "time": 124, "note": 54, "velocity": 103, "channel": 0}, {"type": "note_off", "time": 2619, "note": 54, "velocity": 103, "channel": 0}, {"type": "note_on", "time": 1249, "note": 63, "velocity": 125, "channel": 0}, {"type": "note_off", "time": 759, "note": 63, "velocity": 125, "channel": 0}, {"type": "note_on", "time": 139, "note": 63, "velocity": 124, "channel": 0}, {"type": "note_off", "time": 439, "note": 63, "velocity": 124, "channel": 0}, {"type": "note_on", "time": 89, "note": 62, "velocity": 120, "channel": 0}, {"type": "note_off", "time": 599, "note": 62, "velocity": 120, "channel": 0}, {"type": "note_on", "time": 144, "note": 62, "velocity": 119, "channel": 0}, {"type": "note_off", "time": 529, "note": 62, "velocity": 119, "channel": 0}, {"type": "note_on", "time": 64, "note": 61, "velocity": 117, "channel": 0}, {"type": "note_off", "time": 559, "note": 61, "velocity": 117, "channel": 0}, {"type": "note_on", "time": 254, "note": 69, "velocity": 98, "channel": 0}, {"type": "note_off", "time": 2417, "note": 69, "velocity": 98, "channel": 0}, {"type": "note_on", "time": 116, "note": 67, "velocity": 112, "channel": 0}, {"type": "note_off", "time": 529, "note": 67, "velocity": 112, "channel": 0}, {"type": "note_on", "time": 54, "note": 69, "velocity": 94, "channel": 0}, {"type": "note_off", "time": 384, "note": 69, "velocity": 94, "channel": 0}, {"type": "note_on", "time": 9, "note": 71, "velocity": 102, "channel": 0}, {"type": "note_off", "time": 549, "note": 71, "velocity": 102, "channel": 0}, {"type": "note_on", "time": 79, "note": 74, "velocity": 97, "channel": 0}, {"type": "note_off", "time": 479, "note": 74, "velocity": 97, "channel": 0}, {"type": "note_on", "time": 34, "note": 72, "velocity": 101, "channel": 0}, {"type": "note_off", "time": 489, "note": 72, "velocity": 101, "channel": 0}, {"type": "note_on", "time": 79, "note": 71, "velocity": 95, "channel": 0}, {"type": "note_off", "time": 409, "note": 71, "velocity": 95, "channel": 0}, {"type": "note_on", "time": 64, "note": 69, "velocity": 94, "channel": 0}, {"type": "note_off", "time": 669, "note": 69, "velocity": 94, "channel": 0}, {"type": "note_on", "time": 74, "note": 67, "velocity": 104, "channel": 0}, {"type": "note_off", "time": 404, "note": 67, "velocity": 104, "channel": 0}, {"type": "note_on", "time": 74, "note": 66, "velocity": 108, "channel": 0}, {"type": "note_off", "time": 234, "note": 66, "velocity": 108, "channel": 0}, {"type": "note_on", "time": 99, "note": 65, "velocity": 102, "channel": 0}, {"type": "note_off", "time": 4658, "note": 65, "velocity": 102, "channel": 0}, {"type": "note_on", "time": 1391, "note": 64, "velocity": 115, "channel": 0}, {"type": "note_off", "time": 723, "note": 64, "velocity": 115, "channel": 0}, {"type": "note_on", "time": 134, "note": 62, "velocity": 114, "channel": 0}, {"type": "note_off", "time": 779, "note": 62, "velocity": 114, "channel": 0}, {"type": "note_on", "time": 59, "note": 63, "velocity": 110, "channel": 0}, {"type": "note_off", "time": 299, "note": 63, "velocity": 110, "channel": 0}, {"type": "note_on", "time": 24, "note": 64, "velocity": 105, "channel": 0}, {"type": "note_off", "time": 1619, "note": 64, "velocity": 105, "channel": 0}, {"type": "note_on", "time": 54, "note": 62, "velocity": 111, "channel": 0}, {"type": "note_off", "time": 599, "note": 62, "velocity": 111, "channel": 0}, {"type": "note_on", "time": 59, "note": 60, "velocity": 106, "channel": 0}, {"type": "note_off", "time": 509, "note": 60, "velocity": 106, "channel": 0}, {"type": "note_on", "time": 60, "note": 58, "velocity": 101, "channel": 0}, {"type": "note_off", "time": 657, "note": 58, "velocity": 101, "channel": 0}, {"type": "note_on", "time": 32, "note": 56, "velocity": 96, "channel": 0}, {"type": "note_off", "time": 469, "note": 56, "velocity": 96, "channel": 0}, {"type": "note_on", "time": 9, "note": 58, "velocity": 89, "channel": 0}, {"type": "note_off", "time": 219, "note": 58, "velocity": 89, "channel": 0}, {"type": "note_on", "time": 9, "note": 56, "velocity": 98, "channel": 0}, {"type": "note_off", "time": 269, "note": 56, "velocity": 98, "channel": 0}, {"type": "note_on", "time": 49, "note": 55, "velocity": 103, "channel": 0}, {"type": "note_off", "time": 2913, "note": 55, "velocity": 103, "channel": 0}, {"type": "note_on", "time": 99, "note": 53, "velocity": 102, "channel": 0}, {"type": "note_off", "time": 509, "note": 53, "velocity": 102, "channel": 0}, {"type": "note_on", "time": 84, "note": 51, "velocity": 100, "channel": 0}, {"type": "note_off", "time": 739, "note": 51, "velocity": 100, "channel": 0}, {"type": "note_on", "time": 94, "note": 52, "velocity": 95, "channel": 0}, {"type": "note_off", "time": 564, "note": 52, "velocity": 95, "channel": 0}, {"type": "note_on", "time": 69, "note": 55, "velocity": 93, "channel": 0}, {"type": "note_off", "time": 3093, "note": 55, "velocity": 93, "channel": 0}, {"type": "note_on", "time": 834, "note": 64, "velocity": 118, "channel": 0}, {"type": "note_off", "time": 784, "note": 64, "velocity": 118, "channel": 0}, {"type": "note_on", "time": 84, "note": 59, "velocity": 96, "channel": 0}, {"type": "note_off", "time": 4128, "note": 59, "velocity": 96, "channel": 0}, {"type": "note_on", "time": 48, "note": 62, "velocity": 113, "channel": 0}, {"type": "note_off", "time": 773, "note": 62, "velocity": 113, "channel": 0}, {"type": "note_on", "time": 67, "note": 59, "velocity": 101, "channel": 0}, {"type": "note_off", "time": 1539, "note": 59, "velocity": 101, "channel": 0}, {"type": "note_on", "time": 124, "note": 60, "velocity": 92, "channel": 0}, {"type": "note_off", "time": 809, "note": 60, "velocity": 92, "channel": 0}, {"type": "note_on", "time": 94, "note": 64, "velocity": 120, "channel": 0}, {"type": "note_off", "time": 1039, "note": 64, "velocity": 120, "channel": 0}, {"type": "note_on", "time": 55, "note": 67, "velocity": 111, "channel": 0}, {"type": "note_off", "time": 931, "note": 67, "velocity": 111, "channel": 0}, {"type": "note_on", "time": 82, "note": 69, "velocity": 90, "channel": 0}, {"type": "note_off", "time": 189, "note": 69, "velocity": 90, "channel": 0}, {"type": "note_on", "time": 49, "note": 71, "velocity": 100, "channel": 0}, {"type": "note_off", "time": 3598, "note": 71, "velocity": 100, "channel": 0}, {"type": "note_on", "time": 49, "note": 70, "velocity": 107, "channel": 0}, {"type": "note_off", "time": 650, "note": 70, "velocity": 107, "channel": 0}, {"type": "note_on", "time": 24, "note": 69, "velocity": 88, "channel": 0}, {"type": "note_off", "time": 281, "note": 69, "velocity": 88, "channel": 0}, {"type": "note_on", "time": 31, "note": 68, "velocity": 95, "channel": 0}, {"type": "note_off", "time": 277, "note": 68, "velocity": 95, "channel": 0}, {"type": "note_on", "time": 38, "note": 66, "velocity": 110, "channel": 0}, {"type": "note_off", "time": 260, "note": 66, "velocity": 110, "channel": 0}, {"type": "note_on", "time": 55, "note": 65, "velocity": 106, "channel": 0}, {"type": "note_off", "time": 2409, "note": 65, "velocity": 106, "channel": 0}, {"type": "note_on", "time": 1569, "note": 69, "velocity": 100, "channel": 0}, {"type": "note_off", "time": 889, "note": 69, "velocity": 100, "channel": 0}, {"type": "note_on", "time": 19, "note": 72, "velocity": 98, "channel": 0}, {"type": "note_on", "time": 2449, "note": 71, "velocity": 103, "channel": 0}, {"type": "note_off", "time": 0, "note": 72, "velocity": 98, "channel": 0}, {"type": "note_off", "time": 589, "note": 71, "velocity": 103, "channel": 0}, {"type": "note_on", "time": 19, "note": 69, "velocity": 101, "channel": 0}, {"type": "note_off", "time": 509, "note": 69, "velocity": 101, "channel": 0}, {"type": "note_on", "time": 49, "note": 68, "velocity": 100, "channel": 0}, {"type": "note_off", "time": 479, "note": 68, "velocity": 100, "channel": 0}, {"type": "note_on", "time": 94, "note": 71, "velocity": 100, "channel": 0}, {"type": "note_off", "time": 339, "note": 71, "velocity": 100, "channel": 0}, {"type": "note_on", "time": 67, "note": 68, "velocity": 104, "channel": 0}, {"type": "note_off", "time": 447, "note": 68, "velocity": 104, "channel": 0}, {"type": "note_on", "time": 69, "note": 66, "velocity": 113, "channel": 0}, {"type": "note_off", "time": 394, "note": 66, "velocity": 113, "channel": 0}, {"type": "note_on", "time": 59, "note": 65, "velocity": 116, "channel": 0}, {"type": "note_off", "time": 397, "note": 65, "velocity": 116, "channel": 0}, {"type": "note_on", "time": 37, "note": 64, "velocity": 111, "channel": 0}, {"type": "note_off", "time": 447, "note": 64, "velocity": 111, "channel": 0}, {"type": "note_on", "time": 29, "note": 62, "velocity": 111, "channel": 0}, {"type": "note_off", "time": 399, "note": 62, "velocity": 111, "channel": 0}, {"type": "note_on", "time": 54, "note": 65, "velocity": 115, "channel": 0}, {"type": "note_off", "time": 419, "note": 65, "velocity": 115, "channel": 0}, {"type": "note_on", "time": 24, "note": 64, "velocity": 107, "channel": 0}, {"type": "note_off", "time": 217, "note": 64, "velocity": 107, "channel": 0}, {"type": "note_on", "time": 32, "note": 65, "velocity": 108, "channel": 0}, {"type": "note_off", "time": 222, "note": 65, "velocity": 108, "channel": 0}, {"type": "note_on", "time": 39, "note": 64, "velocity": 111, "channel": 0}, {"type": "note_off", "time": 287, "note": 64, "velocity": 111, "channel": 0}, {"type": "note_on", "time": 37, "note": 62, "velocity": 107, "channel": 0}, {"type": "note_off", "time": 217, "note": 62, "velocity": 107, "channel": 0}, {"type": "note_on", "time": 17, "note": 59, "velocity": 91, "channel": 0}, {"type": "note_off", "time": 379, "note": 59, "velocity": 91, "channel": 0}, {"type": "note_on", "time": 167, "note": 53, "velocity": 106, "channel": 0}, {"type": "note_off", "time": 282, "note": 53, "velocity": 106, "channel": 0}, {"type": "note_on", "time": 37, "note": 54, "velocity": 105, "channel": 0}, {"type": "note_off", "time": 297, "note": 54, "velocity": 105, "channel": 0}, {"type": "note_on", "time": 4, "note": 57, "velocity": 95, "channel": 0}, {"type": "note_off", "time": 349, "note": 57, "velocity": 95, "channel": 0}, {"type": "note_on", "time": 29, "note": 56, "velocity": 101, "channel": 0}, {"type": "note_off", "time": 349, "note": 56, "velocity": 101, "channel": 0}, {"type": "note_on", "time": 47, "note": 59, "velocity": 99, "channel": 0}, {"type": "note_off", "time": 323, "note": 59, "velocity": 99, "channel": 0}, {"type": "note_on", "time": 19, "note": 62, "velocity": 112, "channel": 0}, {"type": "note_off", "time": 439, "note": 62, "velocity": 112, "channel": 0}, {"type": "note_on", "time": 0, "note": 65, "velocity": 117, "channel": 0}, {"type": "note_off", "time": 489, "note": 65, "velocity": 117, "channel": 0}, {"type": "note_on", "time": 9, "note": 64, "velocity": 109, "channel": 0}, {"type": "note_off", "time": 2059, "note": 64, "velocity": 109, "channel": 0}, {"type": "note_on", "time": 29, "note": 62, "velocity": 109, "channel": 0}, {"type": "note_off", "time": 269, "note": 62, "velocity": 109, "channel": 0}, {"type": "note_on", "time": 39, "note": 64, "velocity": 108, "channel": 0}, {"type": "note_off", "time": 267, "note": 64, "velocity": 108, "channel": 0}, {"type": "note_on", "time": 22, "note": 62, "velocity": 108, "channel": 0}, {"type": "note_off", "time": 269, "note": 62, "velocity": 108, "channel": 0}, {"type": "note_on", "time": 49, "note": 60, "velocity": 99, "channel": 0}, {"type": "note_off", "time": 309, "note": 60, "velocity": 99, "channel": 0}, {"type": "note_on", "time": 9, "note": 57, "velocity": 91, "channel": 0}, {"type": "note_off", "time": 2569, "note": 57, "velocity": 91, "channel": 0}, {"type": "note_on", "time": 929, "note": 64, "velocity": 119, "channel": 0}, {"type": "note_off", "time": 799, "note": 64, "velocity": 119, "channel": 0}, {"type": "note_on", "time": 109, "note": 65, "velocity": 109, "channel": 0}, {"type": "note_off", "time": 209, "note": 65, "velocity": 109, "channel": 0}, {"type": "note_on", "time": 89, "note": 67, "velocity": 110, "channel": 0}, {"type": "note_off", "time": 2019, "note": 67, "velocity": 110, "channel": 0}, {"type": "note_on", "time": 0, "note": 65, "velocity": 122, "channel": 0}, {"type": "note_on", "time": 409, "note": 67, "velocity": 110, "channel": 0}, {"type": "note_off", "time": 0, "note": 65, "velocity": 122, "channel": 0}, {"type": "note_off", "time": 209, "note": 67, "velocity": 110, "channel": 0}, {"type": "note_on", "time": 0, "note": 65, "velocity": 120, "channel": 0}, {"type": "note_off", "time": 399, "note": 65, "velocity": 120, "channel": 0}, {"type": "note_on", "time": 19, "note": 64, "velocity": 114, "channel": 0}, {"type": "note_off", "time": 629, "note": 64, "velocity": 114, "channel": 0}, {"type": "note_on", "time": 229, "note": 55, "velocity": 97, "channel": 0}, {"type": "note_off", "time": 1409, "note": 55, "velocity": 97, "channel": 0}, {"type": "note_on", "time": 59, "note": 60, "velocity": 91, "channel": 0}, {"type": "note_off", "time": 1719, "note": 60, "velocity": 91, "channel": 0}, {"type": "end_of_track", "time": 0}]]}