{"ticks_per_beat": 192, "tracks": [[{"type": "track_name", "name": "Melody", "time": 0}, {"type": "set_tempo", "tempo": 210526, "time": 0}, {"type": "key_signature", "key": "G", "time": 0}, {"type": "time_signature", "numerator": 4, "denominator": 4, "clocks_per_click": 24, "notated_32nd_notes_per_beat": 8, "time": 0}, {"type": "note_on", "time": 2855, "note": 66, "velocity": 81, "channel": 0}, {"type": "note_off", "time": 93, "note": 66, "velocity": 81, "channel": 0}, {"type": "note_on", "time": 37, "note": 67, "velocity": 103, "channel": 0}, {"type": "note_off", "time": 31, "note": 67, "velocity": 103, "channel": 0}, {"type": "note_on", "time": 58, "note": 71, "velocity": 108, "channel": 0}, {"type": "note_off", "time": 68, "note": 71, "velocity": 108, "channel": 0}, {"type": "note_on", "time": 30, "note": 74, "velocity": 118, "channel": 0}, {"type": "note_off", "time": 37, "note": 74, "velocity": 118, "channel": 0}, {"type": "note_on", "time": 56, "note": 78, "velocity": 109, "channel": 0}, {"type": "note_off", "time": 58, "note": 78, "velocity": 109, "channel": 0}, {"type": "note_on", "time": 53, "note": 79, "velocity": 113, "channel": 0}, {"type": "note_off", "time": 68, "note": 79, "velocity": 113, "channel": 0}, {"type": "note_on", "time": 40, "note": 78, "velocity": 100, "channel": 0}, {"type": "note_off", "time": 105, "note": 78, "velocity": 100, "channel": 0}, {"type": "note_on", "time": 4, "note": 76, "velocity": 110, "channel": 0}, {"type": "note_off", "time": 68, "note": 76, "velocity": 110, "channel": 0}, {"type": "note_on", "time": 39, "note": 74, "velocity": 108, "channel": 0}, {"type": "note_off", "time": 74, "note": 74, "velocity": 108, "channel": 0}, {"type": "note_on", "time": 26, "note": 71, "velocity": 104, "channel": 0}, {"type": "note_off", "time": 107, "note": 71, "velocity": 104, "channel": 0}, {"type": "note_on", "time": 0, "note": 72, "velocity": 92, "channel": 0}, {"type": "note_off", "time": 44, "note": 72, "velocity": 92, "channel": 0}, {"type": "note_on", "time": 0, "note": 74, "velocity": 93, "channel": 0}, {"type": "note_off", "time": 81, "note": 74, "velocity": 93, "channel": 0}, {"type": "note_on", "time": 12, "note": 72, "velocity": 97, "channel": 0}, {"type": "note_off", "time": 68, "note": 72, "velocity": 97, "channel": 0}, {"type": "note_on", "time": 5, "note": 71, "velocity": 91, "channel": 0}, {"type": "note_off", "time": 95, "note": 71, "velocity": 91, "channel": 0}, {"type": "note_on", "time": 10, "note": 69, "velocity": 104, "channel": 0}, {"type": "note_off", "time": 100, "note": 69, "velocity": 104, "channel": 0}, {"type": "note_on", "time": 0, "note": 68, "velocity": 97, "channel": 0}, {"type": "note_off", "time": 79, "note": 68, "velocity": 97, "channel": 0}, {"type": "note_on", "time": 21, "note": 66, "velocity": 92, "channel": 0}, {"type": "note_off", "time": 48, "note": 66, "velocity": 92, "channel": 0}, {"type": "note_on", "time": 40, "note": 67, "velocity": 95, "channel": 0}, {"type": "note_off", "time": 63, "note": 67, "velocity": 95, "channel": 0}, {"type": "note_on", "time": 63, "note": 64, "velocity": 96, "channel": 0}, {"type": "note_off", "time": 95, "note": 64, "velocity": 96, "channel": 0}, {"type": "note_on", "time": 49, "note": 59, "velocity": 83, "channel": 0}, {"type": "note_off", "time": 74, "note": 59, "velocity": 83, "channel": 0}, {"type": "note_on", "time": 0, "note": 58, "velocity": 85, "channel": 0}, {"type": "note_off", "time": 85, "note": 58, "velocity": 85, "channel": 0}, {"type": "note_on", "time": 34, "note": 62, "velocity": 83, "channel": 0}, {"type": "note_off", "time": 74, "note": 62, "velocity": 83, "channel": 0}, {"type": "note_on", "time": 33, "note": 58, "velocity": 86, "channel": 0}, {"type": "note_off", "time": 40, "note": 58, "velocity": 86, "channel": 0}, {"type": "note_on", "time": 11, "note": 59, "velocity": 89, "channel": 0}, {"type": "note_off", "time": 63, "note": 59, "velocity": 89, "channel": 0}, {"type": "note_on", "time": 67, "note": 55, "velocity": 83, "channel": 0}, {"type": "note_off", "time": 70, "note": 55, "velocity": 83, "channel": 0}, {"type": "note_on", "time": 0, "note": 57, "velocity": 92, "channel": 0}, {"type": "note_off", "time": 100, "note": 57, "velocity": 92, "channel": 0}, {"type": "note_on", "time": 14, "note": 55, "velocity": 90, "channel": 0}, {"type": "note_off", "time": 104, "note": 55, "velocity": 90, "channel": 0}, {"type": "note_on", "time": 986, "note": 69, "velocity": 109, "channel": 0}, {"type": "note_off", "time": 37, "note": 69, "velocity": 109, "channel": 0}, {"type": "note_on", "time": 29, "note": 70, "velocity": 100, "channel": 0}, {"type": "note_off", "time": 121, "note": 70, "velocity": 100, "channel": 0}, {"type": "note_on", "time": 90, "note": 69, "velocity": 103, "channel": 0}, {"type": "note_off", "time": 58, "note": 69, "velocity": 103, "channel": 0}, {"type": "note_on", "time": 27, "note": 67, "velocity": 95, "channel": 0}, {"type": "note_off", "time": 74, "note": 67, "velocity": 95, "channel": 0}, {"type": "note_on", "time": 37, "note": 62, "velocity": 91, "channel": 0}, {"type": "note_off", "time": 81, "note": 62, "velocity": 91, "channel": 0}, {"type": "note_on", "time": 208, "note": 62, "velocity": 86, "channel": 0}, {"type": "note_off", "time": 248, "note": 62, "velocity": 86, "channel": 0}, {"type": "note_on", "time": 453, "note": 63, "velocity": 106, "channel": 0}, {"type": "note_off", "time": 42, "note": 63, "velocity": 106, "channel": 0}, {"type": "note_on", "time": 45, "note": 64, "velocity": 92, "channel": 0}, {"type": "note_off", "time": 180, "note": 64, "velocity": 92, "channel": 0}, {"type": "note_on", "time": 42, "note": 63, "velocity": 89, "channel": 0}, {"type": "note_off", "time": 84, "note": 63, "velocity": 89, "channel": 0}, {"type": "note_on", "time": 56, "note": 66, "velocity": 94, "channel": 0}, {"type": "note_off", "time": 171, "note": 66, "velocity": 94, "channel": 0}, {"type": "note_on", "time": 26, "note": 69, "velocity": 96, "channel": 0}, {"type": "note_off", "time": 74, "note": 69, "velocity": 96, "channel": 0}, {"type": "note_on", "time": 26, "note": 66, "velocity": 84, "channel": 0}, {"type": "note_off", "time": 52, "note": 66, "velocity": 84, "channel": 0}, {"type": "note_on", "time": 37, "note": 67, "velocity": 90, "channel": 0}, {"type": "note_off", "time": 70, "note": 67, "velocity": 90, "channel": 0}, {"type": "note_on", "time": 18, "note": 69, "velocity": 100, "channel": 0}, {"type": "note_off", "time": 74, "note": 69, "velocity": 100, "channel": 0}, {"type": "note_on", "time": 30, "note": 70, "velocity": 92, "channel": 0}, {"type": "note_off", "time": 67, "note": 70, "velocity": 92, "channel": 0}, {"type": "note_on", "time": 0, "note": 72, "velocity": 98, "channel": 0}, {"type": "note_off", "time": 84, "note": 72, "velocity": 98, "channel": 0}, {"type": "note_on", "time": 4, "note": 74, "velocity": 108, "channel": 0}, {"type": "note_off", "time": 68, "note": 74, "velocity": 108, "channel": 0}, {"type": "note_on", "time": 61, "note": 68, "velocity": 90, "channel": 0}, {"type": "note_off", "time": 74, "note": 68, "velocity": 90, "channel": 0}, {"type": "note_on", "time": 3, "note": 69, "velocity": 93, "channel": 0}, {"type": "note_off", "time": 70, "note": 69, "velocity": 93, "channel": 0}, {"type": "note_on", "time": 44, "note": 72, "velocity": 103, "channel": 0}, {"type": "note_off", "time": 79, "note": 72, "velocity": 103, "channel": 0}, {"type": "note_on", "time": 21, "note": 70, "velocity": 92, "channel": 0}, {"type": "note_off", "time": 79, "note": 70, "velocity": 92, "channel": 0}, {"type": "note_on", "time": 6, "note": 67, "velocity": 96, "channel": 0}, {"type": "note_off", "time": 68, "note": 67, "velocity": 96, "channel": 0}, {"type": "note_on", "time": 653, "note": 63, "velocity": 87, "channel": 0}, {"type": "note_off", "time": 78, "note": 63, "velocity": 87, "channel": 0}, {"type": "note_on", "time": 26, "note": 64, "velocity": 99, "channel": 0}, {"type": "note_off", "time": 52, "note": 64, "velocity": 99, "channel": 0}, {"type": "note_on", "time": 18, "note": 67, "velocity": 102, "channel": 0}, {"type": "note_off", "time": 85, "note": 67, "velocity": 102, "channel": 0}, {"type": "note_on", "time": 11, "note": 64, "velocity": 91, "channel": 0}, {"type": "note_off", "time": 85, "note": 64, "velocity": 91, "channel": 0}, {"type": "note_on", "time": 7, "note": 65, "velocity": 87, "channel": 0}, {"type": "note_off", "time": 74, "note": 65, "velocity": 87, "channel": 0}, {"type": "note_on", "time": 11, "note": 66, "velocity": 99, "channel": 0}, {"type": "note_off", "time": 59, "note": 66, "velocity": 99, "channel": 0}, {"type": "note_on", "time": 18, "note": 69, "velocity": 90, "channel": 0}, {"type": "note_off", "time": 81, "note": 69, "velocity": 90, "channel": 0}, {"type": "note_on", "time": 68, "note": 72, "velocity": 94, "channel": 0}, {"type": "note_off", "time": 127, "note": 72, "velocity": 94, "channel": 0}, {"type": "note_on", "time": 719, "note": 77, "velocity": 124, "channel": 0}, {"type": "note_off", "time": 68, "note": 77, "velocity": 124, "channel": 0}, {"type": "note_on", "time": 5, "note": 76, "velocity": 126, "channel": 0}, {"type": "note_off", "time": 55, "note": 76, "velocity": 126, "channel": 0}, {"type": "note_on", "time": 0, "note": 75, "velocity": 119, "channel": 0}, {"type": "note_off", "time": 58, "note": 75, "velocity": 119, "channel": 0}, {"type": "note_on", "time": 2, "note": 74, "velocity": 106, "channel": 0}, {"type": "note_off", "time": 68, "note": 74, "velocity": 106, "channel": 0}, {"type": "note_on", "time": 84, "note": 72, "velocity": 98, "channel": 0}, {"type": "note_off", "time": 45, "note": 72, "velocity": 98, "channel": 0}, {"type": "note_on", "time": 13, "note": 71, "velocity": 97, "channel": 0}, {"type": "note_off", "time": 55, "note": 71, "velocity": 97, "channel": 0}, {"type": "note_on", "time": 37, "note": 69, "velocity": 105, "channel": 0}, {"type": "note_off", "time": 76, "note": 69, "velocity": 105, "channel": 0}, {"type": "note_on", "time": 18, "note": 68, "velocity": 98, "channel": 0}, {"type": "note_off", "time": 90, "note": 68, "velocity": 98, "channel": 0}, {"type": "note_on", "time": 0, "note": 65, "velocity": 96, "channel": 0}, {"type": "note_off", "time": 63, "note": 65, "velocity": 96, "channel": 0}, {"type": "note_on", "time": 29, "note": 64, "velocity": 100, "channel": 0}, {"type": "note_off", "time": 60, "note": 64, "velocity": 100, "channel": 0}, {"type": "note_on", "time": 63, "note": 62, "velocity": 91, "channel": 0}, {"type": "note_off", "time": 31, "note": 62, "velocity": 91, "channel": 0}, {"type": "note_on", "time": 34, "note": 61, "velocity": 96, "channel": 0}, {"type": "note_off", "time": 60, "note": 61, "velocity": 96, "channel": 0}, {"type": "note_on", "time": 21, "note": 59, "velocity": 92, "channel": 0}, {"type": "note_off", "time": 76, "note": 59, "velocity": 92, "channel": 0}, {"type": "note_on", "time": 21, "note": 60, "velocity": 87, "channel": 0}, {"type": "note_off", "time": 90, "note": 60, "velocity": 87, "channel": 0}, {"type": "note_on", "time": 26, "note": 62, "velocity": 97, "channel": 0}, {"type": "note_off", "time": 55, "note": 62, "velocity": 97, "channel": 0}, {"type": "note_on", "time": 15, "note": 63, "velocity": 88, "channel": 0}, {"type": "note_off", "time": 82, "note": 63, "velocity": 88, "channel": 0}, {"type": "note_on", "time": 13, "note": 64, "velocity": 97, "channel": 0}, {"type": "note_off", "time": 50, "note": 64, "velocity": 97, "channel": 0}, {"type": "note_on", "time": 13, "note": 67, "velocity": 102, "channel": 0}, {"type": "note_off", "time": 108, "note": 67, "velocity": 102, "channel": 0}, {"type": "note_on", "time": 31, "note": 64, "velocity": 94, "channel": 0}, {"type": "note_off", "time": 71, "note": 64, "velocity": 94, "channel": 0}, {"type": "note_on", "time": 21, "note": 65, "velocity": 96, "channel": 0}, {"type": "note_off", "time": 74, "note": 65, "velocity": 96, "channel": 0}, {"type": "note_on", "time": 15, "note": 66, "velocity": 102, "channel": 0}, {"type": "note_off", "time": 76, "note": 66, "velocity": 102, "channel": 0}, {"type": "note_on", "time": 0, "note": 69, "velocity": 101, "channel": 0}, {"type": "note_off", "time": 63, "note": 69, "velocity": 101, "channel": 0}, {"type": "note_on", "time": 145, "note": 77, "velocity": 117, "channel": 0}, {"type": "note_off", "time": 58, "note": 77, "velocity": 117, "channel": 0}, {"type": "note_on", "time": 2, "note": 76, "velocity": 111, "channel": 0}, {"type": "note_off", "time": 74, "note": 76, "velocity": 111, "channel": 0}, {"type": "note_on", "time": 2, "note": 75, "velocity": 106, "channel": 0}, {"type": "note_off", "time": 116, "note": 75, "velocity": 106, "channel": 0}, {"type": "note_on", "time": 31, "note": 72, "velocity": 109, "channel": 0}, {"type": "note_off", "time": 42, "note": 72, "velocity": 109, "channel": 0}, {"type": "note_on", "time": 29, "note": 73, "velocity": 91, "channel": 0}, {"type": "note_off", "time": 105, "note": 73, "velocity": 91, "channel": 0}, {"type": "note_on", "time": 18, "note": 76, "velocity": 111, "channel": 0}, {"type": "note_off", "time": 63, "note": 76, "velocity": 111, "channel": 0}, {"type": "note_on", "time": 5, "note": 74, "velocity": 105, "channel": 0}, {"type": "note_off", "time": 111, "note": 74, "velocity": 105, "channel": 0}, {"type": "note_on", "time": 21, "note": 71, "velocity": 98, "channel": 0}, {"type": "note_off", "time": 50, "note": 71, "velocity": 98, "channel": 0}, {"type": "note_on", "time": 13, "note": 72, "velocity": 102, "channel": 0}, {"type": "note_off", "time": 52, "note": 72, "velocity": 102, "channel": 0}, {"type": "note_on", "time": 15, "note": 74, "velocity": 101, "channel": 0}, {"type": "note_off", "time": 63, "note": 74, "velocity": 101, "channel": 0}, {"type": "note_on", "time": 0, "note": 72, "velocity": 100, "channel": 0}, {"type": "note_off", "time": 39, "note": 72, "velocity": 100, "channel": 0}, {"type": "note_on", "time": 7, "note": 71, "velocity": 99, "channel": 0}, {"type": "note_off", "time": 132, "note": 71, "velocity": 99, "channel": 0}, {"type": "note_on", "time": 0, "note": 69, "velocity": 107, "channel": 0}, {"type": "note_off", "time": 58, "note": 69, "velocity": 107, "channel": 0}, {"type": "note_on", "time": 15, "note": 68, "velocity": 92, "channel": 0}, {"type": "note_off", "time": 90, "note": 68, "velocity": 92, "channel": 0}, {"type": "note_on", "time": 45, "note": 66, "velocity": 91, "channel": 0}, {"type": "note_off", "time": 45, "note": 66, "velocity": 91, "channel": 0}, {"type": "note_on", "time": 23, "note": 67, "velocity": 85, "channel": 0}, {"type": "note_off", "time": 66, "note": 67, "velocity": 85, "channel": 0}, {"type": "note_on", "time": 45, "note": 69, "velocity": 98, "channel": 0}, {"type": "note_off", "time": 63, "note": 69, "velocity": 98, "channel": 0}, {"type": "note_on", "time": 13, "note": 71, "velocity": 88, "channel": 0}, {"type": "note_off", "time": 60, "note": 71, "velocity": 88, "channel": 0}, {"type": "note_on", "time": 50, "note": 72, "velocity": 84, "channel": 0}, {"type": "note_off", "time": 60, "note": 72, "velocity": 84, "channel": 0}, {"type": "note_on", "time": 21, "note": 74, "velocity": 107, "channel": 0}, {"type": "note_off", "time": 95, "note": 74, "velocity": 107, "channel": 0}, {"type": "note_on", "time": 5, "note": 76, "velocity": 104, "channel": 0}, {"type": "note_off", "time": 68, "note": 76, "velocity": 104, "channel": 0}, {"type": "note_on", "time": 137, "note": 79, "velocity": 87, "channel": 0}, {"type": "note_off", "time": 52, "note": 79, "velocity": 87, "channel": 0}, {"type": "note_on", "time": 37, "note": 81, "velocity": 108, "channel": 0}, {"type": "note_off", "time": 84, "note": 81, "velocity": 108, "channel": 0}, {"type": "note_on", "time": 21, "note": 78, "velocity": 105, "channel": 0}, {"type": "note_off", "time": 58, "note": 78, "velocity": 105, "channel": 0}, {"type": "note_on", "time": 0, "note": 79, "velocity": 98, "channel": 0}, {"type": "note_off", "time": 95, "note": 79, "velocity": 98, "channel": 0}, {"type": "note_on", "time": 31, "note": 76, "velocity": 108, "channel": 0}, {"type": "note_off", "time": 79, "note": 76, "velocity": 108, "channel": 0}, {"type": "note_on", "time": 0, "note": 77, "velocity": 97, "channel": 0}, {"type": "note_off", "time": 121, "note": 77, "velocity": 97, "channel": 0}, {"type": "note_on", "time": 2, "note": 74, "velocity": 91, "channel": 0}, {"type": "note_off", "time": 52, "note": 74, "velocity": 91, "channel": 0}, {"type": "note_on", "time": 21, "note": 75, "velocity": 107, "channel": 0}, {"type": "note_off", "time": 55, "note": 75, "velocity": 107, "channel": 0}, {"type": "note_on", "time": 137, "note": 71, "velocity": 99, "channel": 0}, {"type": "note_off", "time": 63, "note": 71, "velocity": 99, "channel": 0}, {"type": "note_on", "time": 111, "note": 74, "velocity": 109, "channel": 0}, {"type": "note_off", "time": 84, "note": 74, "velocity": 109, "channel": 0}, {"type": "note_on", "time": 23, "note": 71, "velocity": 105, "channel": 0}, {"type": "note_off", "time": 74, "note": 71, "velocity": 105, "channel": 0}, {"type": "note_on", "time": 0, "note": 72, "velocity": 97, "channel": 0}, {"type": "note_off", "time": 84, "note": 72, "velocity": 97, "channel": 0}, {"type": "note_on", "time": 26, "note": 70, "velocity": 111, "channel": 0}, {"type": "note_off", "time": 74, "note": 70, "velocity": 111, "channel": 0}, {"type": "note_on", "time": 15, "note": 69, "velocity": 103, "channel": 0}, {"type": "note_off", "time": 60, "note": 69, "velocity": 103, "channel": 0}, {"type": "note_on", "time": 58, "note": 67, "velocity": 112, "channel": 0}, {"type": "note_off", "time": 76, "note": 67, "velocity": 112, "channel": 0}, {"type": "note_on", "time": 2, "note": 65, "velocity": 107, "channel": 0}, {"type": "note_off", "time": 87, "note": 65, "velocity": 107, "channel": 0}, {"type": "note_on", "time": 23, "note": 64, "velocity": 107, "channel": 0}, {"type": "note_off", "time": 47, "note": 64, "velocity": 107, "channel": 0}, {"type": "note_on", "time": 42, "note": 63, "velocity": 96, "channel": 0}, {"type": "note_off", "time": 47, "note": 63, "velocity": 96, "channel": 0}, {"type": "note_on", "time": 15, "note": 65, "velocity": 106, "channel": 0}, {"type": "note_off", "time": 52, "note": 65, "velocity": 106, "channel": 0}, {"type": "note_on", "time": 7, "note": 63, "velocity": 105, "channel": 0}, {"type": "note_off", "time": 47, "note": 63, "velocity": 105, "channel": 0}, {"type": "note_on", "time": 2, "note": 62, "velocity": 100, "channel": 0}, {"type": "note_off", "time": 76, "note": 62, "velocity": 100, "channel": 0}, {"type": "note_on", "time": 42, "note": 60, "velocity": 98, "channel": 0}, {"type": "note_off", "time": 60, "note": 60, "velocity": 98, "channel": 0}, {"type": "note_on", "time": 13, "note": 59, "velocity": 87, "channel": 0}, {"type": "note_off", "time": 71, "note": 59, "velocity": 87, "channel": 0}, {"type": "note_on", "time": 42, "note": 57, "velocity": 91, "channel": 0}, {"type": "note_off", "time": 47, "note": 57, "velocity": 91, "channel": 0}, {"type": "note_on", "time": 23, "note": 58, "velocity": 91, "channel": 0}, {"type": "note_off", "time": 71, "note": 58, "velocity": 91, "channel": 0}, {"type": "note_on", "time": 31, "note": 60, "velocity": 91, "channel": 0}, {"type": "note_off", "time": 74, "note": 60, "velocity": 91, "channel": 0}, {"type": "note_on", "time": 42, "note": 62, "velocity": 81, "channel": 0}, {"type": "note_off", "time": 50, "note": 62, "velocity": 81, "channel": 0}, {"type": "note_on", "time": 74, "note": 63, "velocity": 95, "channel": 0}, {"type": "note_off", "time": 52, "note": 63, "velocity": 95, "channel": 0}, {"type": "note_on", "time": 18, "note": 65, "velocity": 111, "channel": 0}, {"type": "note_off", "time": 31, "note": 65, "velocity": 111, "channel": 0}, {"type": "note_on", "time": 5, "note": 65, "velocity": 97, "channel": 0}, {"type": "note_off", "time": 68, "note": 65, "velocity": 97, "channel": 0}, {"type": "note_on", "time": 0, "note": 62, "velocity": 102, "channel": 0}, {"type": "note_off", "time": 74, "note": 62, "velocity": 102, "channel": 0}, {"type": "note_on", "time": 198, "note": 60, "velocity": 90, "channel": 0}, {"type": "note_off", "time": 63, "note": 60, "velocity": 90, "channel": 0}, {"type": "note_on", "time": 55, "note": 62, "velocity": 96, "channel": 0}, {"type": "note_off", "time": 47, "note": 62, "velocity": 96, "channel": 0}, {"type": "note_on", "time": 34, "note": 63, "velocity": 87, "channel": 0}, {"type": "note_off", "time": 50, "note": 63, "velocity": 87, "channel": 0}, {"type": "note_on", "time": 39, "note": 65, "velocity": 94, "channel": 0}, {"type": "note_off", "time": 42, "note": 65, "velocity": 94, "channel": 0}, {"type": "note_on", "time": 45, "note": 67, "velocity": 108, "channel": 0}, {"type": "note_off", "time": 79, "note": 67, "velocity": 108, "channel": 0}, {"type": "note_on", "time": 29, "note": 63, "velocity": 101, "channel": 0}, {"type": "note_off", "time": 68, "note": 63, "velocity": 101, "channel": 0}, {"type": "note_on", "time": 10, "note": 62, "velocity": 81, "channel": 0}, {"type": "note_off", "time": 52, "note": 62, "velocity": 81, "channel": 0}, {"type": "note_on", "time": 26, "note": 60, "velocity": 89, "channel": 0}, {"type": "note_off", "time": 58, "note": 60, "velocity": 89, "channel": 0}, {"type": "note_on", "time": 47, "note": 61, "velocity": 91, "channel": 0}, {"type": "note_off", "time": 55, "note": 61, "velocity": 91, "channel": 0}, {"type": "note_on", "time": 52, "note": 62, "velocity": 81, "channel": 0}, {"type": "note_off", "time": 50, "note": 62, "velocity": 81, "channel": 0}, {"type": "note_on", "time": 29, "note": 69, "velocity": 115, "channel": 0}, {"type": "note_off", "time": 68, "note": 69, "velocity": 115, "channel": 0}, {"type": "note_on", "time": 47, "note": 67, "velocity": 109, "channel": 0}, {"type": "note_off", "time": 52, "note": 67, "velocity": 109, "channel": 0}, {"type": "note_on", "time": 34, "note": 65, "velocity": 103, "channel": 0}, {"type": "note_off", "time": 74, "note": 65, "velocity": 103, "channel": 0}, {"type": "note_on", "time": 7, "note": 64, "velocity": 103, "channel": 0}, {"type": "note_off", "time": 63, "note": 64, "velocity": 103, "channel": 0}, {"type": "note_on", "time": 26, "note": 63, "velocity": 93, "channel": 0}, {"type": "note_off", "time": 42, "note": 63, "velocity": 93, "channel": 0}, {"type": "note_on", "time": 60, "note": 65, "velocity": 110, "channel": 0}, {"type": "note_off", "time": 68, "note": 65, "velocity": 110, "channel": 0}, {"type": "note_on", "time": 45, "note": 62, "velocity": 96, "channel": 0}, {"type": "note_off", "time": 74, "note": 62, "velocity": 96, "channel": 0}, {"type": "note_on", "time": 23, "note": 58, "velocity": 91, "channel": 0}, {"type": "note_off", "time": 74, "note": 58, "velocity": 91, "channel": 0}, {"type": "note_on", "time": 1087, "note": 74, "velocity": 110, "channel": 0}, {"type": "note_off", "time": 87, "note": 74, "velocity": 110, "channel": 0}, {"type": "note_on", "time": 103, "note": 73, "velocity": 119, "channel": 0}, {"type": "note_off", "time": 52, "note": 73, "velocity": 119, "channel": 0}, {"type": "note_on", "time": 21, "note": 72, "velocity": 103, "channel": 0}, {"type": "note_off", "time": 74, "note": 72, "velocity": 103, "channel": 0}, {"type": "note_on", "time": 29, "note": 63, "velocity": 100, "channel": 0}, {"type": "note_off", "time": 58, "note": 63, "velocity": 100, "channel": 0}, {"type": "note_on", "time": 42, "note": 64, "velocity": 97, "channel": 0}, {"type": "note_off", "time": 68, "note": 64, "velocity": 97, "channel": 0}, {"type": "note_on", "time": 127, "note": 71, "velocity": 120, "channel": 0}, {"type": "note_off", "time": 84, "note": 71, "velocity": 120, "channel": 0}, {"type": "note_on", "time": 18, "note": 69, "velocity": 112, "channel": 0}, {"type": "note_off", "time": 52, "note": 69, "velocity": 112, "channel": 0}, {"type": "note_on", "time": 50, "note": 67, "velocity": 107, "channel": 0}, {"type": "note_off", "time": 63, "note": 67, "velocity": 107, "channel": 0}, {"type": "note_on", "time": 42, "note": 64, "velocity": 98, "channel": 0}, {"type": "note_off", "time": 47, "note": 64, "velocity": 98, "channel": 0}, {"type": "note_on", "time": 31, "note": 66, "velocity": 110, "channel": 0}, {"type": "note_off", "time": 76, "note": 66, "velocity": 110, "channel": 0}, {"type": "note_on", "time": 119, "note": 77, "velocity": 117, "channel": 0}, {"type": "note_off", "time": 68, "note": 77, "velocity": 117, "channel": 0}, {"type": "note_on", "time": 10, "note": 76, "velocity": 115, "channel": 0}, {"type": "note_off", "time": 68, "note": 76, "velocity": 115, "channel": 0}, {"type": "note_on", "time": 5, "note": 75, "velocity": 113, "channel": 0}, {"type": "note_off", "time": 100, "note": 75, "velocity": 113, "channel": 0}, {"type": "note_on", "time": 431, "note": 72, "velocity": 117, "channel": 0}, {"type": "note_off", "time": 63, "note": 72, "velocity": 117, "channel": 0}, {"type": "note_on", "time": 0, "note": 73, "velocity": 114, "channel": 0}, {"type": "note_off", "time": 79, "note": 73, "velocity": 114, "channel": 0}, {"type": "note_on", "time": 18, "note": 76, "velocity": 120, "channel": 0}, {"type": "note_off", "time": 87, "note": 76, "velocity": 120, "channel": 0}, {"type": "note_on", "time": 10, "note": 74, "velocity": 117, "channel": 0}, {"type": "note_off", "time": 90, "note": 74, "velocity": 117, "channel": 0}, {"type": "note_on", "time": 39, "note": 71, "velocity": 101, "channel": 0}, {"type": "note_off", "time": 66, "note": 71, "velocity": 101, "channel": 0}, {"type": "note_on", "time": 18, "note": 72, "velocity": 111, "channel": 0}, {"type": "note_off", "time": 84, "note": 72, "velocity": 111, "channel": 0}, {"type": "note_on", "time": 7, "note": 70, "velocity": 100, "channel": 0}, {"type": "note_off", "time": 76, "note": 70, "velocity": 100, "channel": 0}, {"type": "note_on", "time": 26, "note": 71, "velocity": 117, "channel": 0}, {"type": "note_off", "time": 58, "note": 71, "velocity": 117, "channel": 0}, {"type": "note_on", "time": 254, "note": 62, "velocity": 98, "channel": 0}, {"type": "note_off", "time": 71, "note": 62, "velocity": 98, "channel": 0}, {"type": "note_on", "time": 7, "note": 64, "velocity": 97, "channel": 0}, {"type": "note_off", "time": 76, "note": 64, "velocity": 97, "channel": 0}, {"type": "note_on", "time": 23, "note": 66, "velocity": 86, "channel": 0}, {"type": "note_off", "time": 60, "note": 66, "velocity": 86, "channel": 0}, {"type": "note_on", "time": 18, "note": 69, "velocity": 114, "channel": 0}, {"type": "note_off", "time": 100, "note": 69, "velocity": 114, "channel": 0}, {"type": "note_on", "time": 37, "note": 67, "velocity": 107, "channel": 0}, {"type": "note_off", "time": 68, "note": 67, "velocity": 107, "channel": 0}, {"type": "note_on", "time": 15, "note": 66, "velocity": 95, "channel": 0}, {"type": "note_off", "time": 76, "note": 66, "velocity": 95, "channel": 0}, {"type": "note_on", "time": 97, "note": 66, "velocity": 112, "channel": 0}, {"type": "note_off", "time": 58, "note": 66, "velocity": 112, "channel": 0}, {"type": "note_on", "time": 47, "note": 64, "velocity": 110, "channel": 0}, {"type": "note_off", "time": 66, "note": 64, "velocity": 110, "channel": 0}, {"type": "note_on", "time": 39, "note": 63, "velocity": 98, "channel": 0}, {"type": "note_off", "time": 42, "note": 63, "velocity": 98, "channel": 0}, {"type": "note_on", "time": 344, "note": 72, "velocity": 115, "channel": 0}, {"type": "note_off", "time": 37, "note": 72, "velocity": 115, "channel": 0}, {"type": "note_on", "time": 7, "note": 74, "velocity": 111, "channel": 0}, {"type": "note_off", "time": 68, "note": 74, "velocity": 111, "channel": 0}, {"type": "note_on", "time": 5, "note": 72, "velocity": 108, "channel": 0}, {"type": "note_off", "time": 52, "note": 72, "velocity": 108, "channel": 0}, {"type": "note_on", "time": 21, "note": 71, "velocity": 100, "channel": 0}, {"type": "note_off", "time": 74, "note": 71, "velocity": 100, "channel": 0}, {"type": "note_on", "time": 10, "note": 69, "velocity": 108, "channel": 0}, {"type": "note_off", "time": 84, "note": 69, "velocity": 108, "channel": 0}, {"type": "note_on", "time": 13, "note": 67, "velocity": 94, "channel": 0}, {"type": "note_off", "time": 50, "note": 67, "velocity": 94, "channel": 0}, {"type": "note_on", "time": 34, "note": 66, "velocity": 108, "channel": 0}, {"type": "note_off", "time": 50, "note": 66, "velocity": 108, "channel": 0}, {"type": "note_on", "time": 47, "note": 64, "velocity": 105, "channel": 0}, {"type": "note_off", "time": 58, "note": 64, "velocity": 105, "channel": 0}, {"type": "note_on", "time": 42, "note": 63, "velocity": 90, "channel": 0}, {"type": "note_off", "time": 74, "note": 63, "velocity": 90, "channel": 0}, {"type": "note_on", "time": 35, "note": 66, "velocity": 108, "channel": 0}, {"type": "note_off", "time": 63, "note": 66, "velocity": 108, "channel": 0}, {"type": "note_on", "time": 41, "note": 63, "velocity": 93, "channel": 0}, {"type": "note_off", "time": 60, "note": 63, "velocity": 93, "channel": 0}, {"type": "note_on", "time": 0, "note": 64, "velocity": 98, "channel": 0}, {"type": "note_on", "time": 74, "note": 66, "velocity": 97, "channel": 0}, {"type": "note_off", "time": 0, "note": 64, "velocity": 98, "channel": 0}, {"type": "note_off", "time": 92, "note": 66, "velocity": 97, "channel": 0}, {"type": "note_on", "time": 37, "note": 68, "velocity": 99, "channel": 0}, {"type": "note_off", "time": 100, "note": 68, "velocity": 99, "channel": 0}, {"type": "note_on", "time": 15, "note": 71, "velocity": 109, "channel": 0}, {"type": "note_off", "time": 100, "note": 71, "velocity": 109, "channel": 0}, {"type": "note_on", "time": 70, "note": 63, "velocity": 107, "channel": 0}, {"type": "note_off", "time": 55, "note": 63, "velocity": 107, "channel": 0}, {"type": "note_on", "time": 15, "note": 64, "velocity": 96, "channel": 0}, {"type": "note_off", "time": 161, "note": 64, "velocity": 96, "channel": 0}, {"type": "note_on", "time": 40, "note": 67, "velocity": 98, "channel": 0}, {"type": "note_off", "time": 74, "note": 67, "velocity": 98, "channel": 0}, {"type": "note_on", "time": 28, "note": 64, "velocity": 94, "channel": 0}, {"type": "note_off", "time": 52, "note": 64, "velocity": 94, "channel": 0}, {"type": "note_on", "time": 7, "note": 66, "velocity": 95, "channel": 0}, {"type": "note_off", "time": 55, "note": 66, "velocity": 95, "channel": 0}, {"type": "note_on", "time": 547, "note": 62, "velocity": 102, "channel": 0}, {"type": "note_off", "time": 47, "note": 62, "velocity": 102, "channel": 0}, {"type": "note_on", "time": 37, "note": 64, "velocity": 99, "channel": 0}, {"type": "note_off", "time": 62, "note": 64, "velocity": 99, "channel": 0}, {"type": "note_on", "time": 0, "note": 66, "velocity": 92, "channel": 0}, {"type": "note_off", "time": 71, "note": 66, "velocity": 92, "channel": 0}, {"type": "note_on", "time": 58, "note": 67, "velocity": 94, "channel": 0}, {"type": "note_off", "time": 50, "note": 67, "velocity": 94, "channel": 0}, {"type": "note_on", "time": 10, "note": 69, "velocity": 117, "channel": 0}, {"type": "note_off", "time": 74, "note": 69, "velocity": 117, "channel": 0}, {"type": "note_on", "time": 21, "note": 66, "velocity": 105, "channel": 0}, {"type": "note_off", "time": 90, "note": 66, "velocity": 105, "channel": 0}, {"type": "note_on", "time": 0, "note": 67, "velocity": 98, "channel": 0}, {"type": "note_off", "time": 45, "note": 67, "velocity": 98, "channel": 0}, {"type": "note_on", "time": 55, "note": 69, "velocity": 105, "channel": 0}, {"type": "note_off", "time": 55, "note": 69, "velocity": 105, "channel": 0}, {"type": "note_on", "time": 21, "note": 71, "velocity": 93, "channel": 0}, {"type": "note_off", "time": 95, "note": 71, "velocity": 93, "channel": 0}, {"type": "note_on", "time": 26, "note": 72, "velocity": 86, "channel": 0}, {"type": "note_off", "time": 71, "note": 72, "velocity": 86, "channel": 0}, {"type": "note_on", "time": 5, "note": 74, "velocity": 105, "channel": 0}, {"type": "note_off", "time": 74, "note": 74, "velocity": 105, "channel": 0}, {"type": "note_on", "time": 7, "note": 76, "velocity": 104, "channel": 0}, {"type": "note_off", "time": 84, "note": 76, "velocity": 104, "channel": 0}, {"type": "note_on", "time": 10, "note": 78, "velocity": 87, "channel": 0}, {"type": "note_off", "time": 71, "note": 78, "velocity": 87, "channel": 0}, {"type": "note_on", "time": 15, "note": 79, "velocity": 92, "channel": 0}, {"type": "note_off", "time": 84, "note": 79, "velocity": 92, "channel": 0}, {"type": "note_on", "time": 29, "note": 81, "velocity": 119, "channel": 0}, {"type": "note_off", "time": 100, "note": 81, "velocity": 119, "channel": 0}, {"type": "note_on", "time": 26, "note": 78, "velocity": 114, "channel": 0}, {"type": "note_off", "time": 90, "note": 78, "velocity": 114, "channel": 0}, {"type": "note_on", "time": 1014, "note": 79, "velocity": 126, "channel": 0}, {"type": "note_off", "time": 21, "note": 79, "velocity": 126, "channel": 0}, {"type": "note_on", "time": 5, "note": 80, "velocity": 124, "channel": 0}, {"type": "note_off", "time": 37, "note": 80, "velocity": 124, "channel": 0}, {"type": "note_on", "time": 0, "note": 81, "velocity": 122, "channel": 0}, {"type": "note_off", "time": 566, "note": 81, "velocity": 122, "channel": 0}, {"type": "note_on", "time": 123, "note": 79, "velocity": 116, "channel": 0}, {"type": "note_off", "time": 68, "note": 79, "velocity": 116, "channel": 0}, {"type": "note_on", "time": 100, "note": 74, "velocity": 121, "channel": 0}, {"type": "note_off", "time": 63, "note": 74, "velocity": 121, "channel": 0}, {"type": "note_on", "time": 31, "note": 73, "velocity": 115, "channel": 0}, {"type": "note_off", "time": 95, "note": 73, "velocity": 115, "channel": 0}, {"type": "note_on", "time": 2, "note": 72, "velocity": 110, "channel": 0}, {"type": "note_off", "time": 68, "note": 72, "velocity": 110, "channel": 0}, {"type": "note_on", "time": 5, "note": 71, "velocity": 117, "channel": 0}, {"type": "note_off", "time": 110, "note": 71, "velocity": 117, "channel": 0}, {"type": "note_on", "time": 0, "note": 70, "velocity": 118, "channel": 0}, {"type": "note_on", "time": 79, "note": 69, "velocity": 118, "channel": 0}, {"type": "note_off", "time": 0, "note": 70, "velocity": 118, "channel": 0}, {"type": "note_off", "time": 68, "note": 69, "velocity": 118, "channel": 0}, {"type": "note_on", "time": 47, "note": 67, "velocity": 111, "channel": 0}, {"type": "note_off", "time": 71, "note": 67, "velocity": 111, "channel": 0}, {"type": "note_on", "time": 42, "note": 66, "velocity": 88, "channel": 0}, {"type": "note_off", "time": 58, "note": 66, "velocity": 88, "channel": 0}, {"type": "note_on", "time": 21, "note": 69, "velocity": 119, "channel": 0}, {"type": "note_off", "time": 100, "note": 69, "velocity": 119, "channel": 0}, {"type": "note_on", "time": 18, "note": 66, "velocity": 109, "channel": 0}, {"type": "note_off", "time": 71, "note": 66, "velocity": 109, "channel": 0}, {"type": "note_on", "time": 0, "note": 67, "velocity": 110, "channel": 0}, {"type": "note_off", "time": 60, "note": 67, "velocity": 110, "channel": 0}, {"type": "note_on", "time": 39, "note": 62, "velocity": 108, "channel": 0}, {"type": "note_off", "time": 92, "note": 62, "velocity": 108, "channel": 0}, {"type": "note_on", "time": 7, "note": 60, "velocity": 90, "channel": 0}, {"type": "note_off", "time": 68, "note": 60, "velocity": 90, "channel": 0}, {"type": "note_on", "time": 29, "note": 59, "velocity": 102, "channel": 0}, {"type": "note_off", "time": 71, "note": 59, "velocity": 102, "channel": 0}, {"type": "note_on", "time": 10, "note": 58, "velocity": 99, "channel": 0}, {"type": "note_off", "time": 95, "note": 58, "velocity": 99, "channel": 0}, {"type": "note_on", "time": 29, "note": 54, "velocity": 96, "channel": 0}, {"type": "note_off", "time": 60, "note": 54, "velocity": 96, "channel": 0}, {"type": "note_on", "time": 2, "note": 57, "velocity": 108, "channel": 0}, {"type": "note_off", "time": 87, "note": 57, "velocity": 108, "channel": 0}, {"type": "note_on", "time": 15, "note": 54, "velocity": 91, "channel": 0}, {"type": "note_off", "time": 66, "note": 54, "velocity": 91, "channel": 0}, {"type": "note_on", "time": 21, "note": 55, "velocity": 100, "channel": 0}, {"type": "note_off", "time": 82, "note": 55, "velocity": 100, "channel": 0}, {"type": "note_on", "time": 13, "note": 57, "velocity": 100, "channel": 0}, {"type": "note_off", "time": 79, "note": 57, "velocity": 100, "channel": 0}, {"type": "note_on", "time": 10, "note": 58, "velocity": 102, "channel": 0}, {"type": "note_off", "time": 66, "note": 58, "velocity": 102, "channel": 0}, {"type": "note_on", "time": 63, "note": 60, "velocity": 95, "channel": 0}, {"type": "note_off", "time": 71, "note": 60, "velocity": 95, "channel": 0}, {"type": "note_on", "time": 29, "note": 62, "velocity": 93, "channel": 0}, {"type": "note_off", "time": 47, "note": 62, "velocity": 93, "channel": 0}, {"type": "note_on", "time": 26, "note": 64, "velocity": 100, "channel": 0}, {"type": "note_off", "time": 74, "note": 64, "velocity": 100, "channel": 0}, {"type": "note_on", "time": 34, "note": 69, "velocity": 119, "channel": 0}, {"type": "note_off", "time": 79, "note": 69, "velocity": 119, "channel": 0}, {"type": "note_on", "time": 13, "note": 68, "velocity": 111, "channel": 0}, {"type": "note_off", "time": 82, "note": 68, "velocity": 111, "channel": 0}, {"type": "note_on", "time": 7, "note": 67, "velocity": 110, "channel": 0}, {"type": "note_off", "time": 74, "note": 67, "velocity": 110, "channel": 0}, {"type": "note_on", "time": 29, "note": 63, "velocity": 107, "channel": 0}, {"type": "note_off", "time": 84, "note": 63, "velocity": 107, "channel": 0}, {"type": "note_on", "time": 195, "note": 62, "velocity": 105, "channel": 0}, {"type": "note_off", "time": 180, "note": 62, "velocity": 105, "channel": 0}, {"type": "note_on", "time": 29, "note": 60, "velocity": 89, "channel": 0}, {"type": "note_off", "time": 97, "note": 60, "velocity": 89, "channel": 0}, {"type": "note_on", "time": 87, "note": 62, "velocity": 105, "channel": 0}, {"type": "note_off", "time": 164, "note": 62, "velocity": 105, "channel": 0}, {"type": "note_on", "time": 39, "note": 60, "velocity": 91, "channel": 0}, {"type": "note_off", "time": 97, "note": 60, "velocity": 91, "channel": 0}, {"type": "note_on", "time": 71, "note": 62, "velocity": 106, "channel": 0}, {"type": "note_off", "time": 169, "note": 62, "velocity": 106, "channel": 0}, {"type": "note_on", "time": 52, "note": 60, "velocity": 87, "channel": 0}, {"type": "note_off", "time": 119, "note": 60, "velocity": 87, "channel": 0}, {"type": "note_on", "time": 66, "note": 62, "velocity": 107, "channel": 0}, {"type": "note_off", "time": 105, "note": 62, "velocity": 107, "channel": 0}, {"type": "note_on", "time": 7, "note": 59, "velocity": 85, "channel": 0}, {"type": "note_off", "time": 201, "note": 59, "velocity": 85, "channel": 0}, {"type": "note_on", "time": 799, "note": 71, "velocity": 116, "channel": 0}, {"type": "note_off", "time": 52, "note": 71, "velocity": 116, "channel": 0}, {"type": "note_on", "time": 26, "note": 72, "velocity": 118, "channel": 0}, {"type": "note_off", "time": 68, "note": 72, "velocity": 118, "channel": 0}, {"type": "note_on", "time": 42, "note": 68, "velocity": 116, "channel": 0}, {"type": "note_off", "time": 66, "note": 68, "velocity": 116, "channel": 0}, {"type": "note_on", "time": 42, "note": 71, "velocity": 114, "channel": 0}, {"type": "note_off", "time": 52, "note": 71, "velocity": 114, "channel": 0}, {"type": "note_on", "time": 31, "note": 69, "velocity": 114, "channel": 0}, {"type": "note_off", "time": 58, "note": 69, "velocity": 114, "channel": 0}, {"type": "note_on", "time": 145, "note": 69, "velocity": 111, "channel": 0}, {"type": "note_off", "time": 74, "note": 69, "velocity": 111, "channel": 0}, {"type": "note_on", "time": 103, "note": 69, "velocity": 114, "channel": 0}, {"type": "note_off", "time": 74, "note": 69, "velocity": 114, "channel": 0}, {"type": "note_on", "time": 121, "note": 69, "velocity": 112, "channel": 0}, {"type": "note_off", "time": 79, "note": 69, "velocity": 112, "channel": 0}, {"type": "note_on", "time": 121, "note": 69, "velocity": 109, "channel": 0}, {"type": "note_off", "time": 58, "note": 69, "velocity": 109, "channel": 0}, {"type": "note_on", "time": 45, "note": 71, "velocity": 111, "channel": 0}, {"type": "note_off", "time": 31, "note": 71, "velocity": 111, "channel": 0}, {"type": "note_on", "time": 15, "note": 72, "velocity": 89, "channel": 0}, {"type": "note_off", "time": 88, "note": 72, "velocity": 89, "channel": 0}, {"type": "note_on", "time": 51, "note": 74, "velocity": 117, "channel": 0}, {"type": "note_off", "time": 74, "note": 74, "velocity": 117, "channel": 0}, {"type": "note_on", "time": 26, "note": 75, "velocity": 106, "channel": 0}, {"type": "note_off", "time": 45, "note": 75, "velocity": 106, "channel": 0}, {"type": "note_on", "time": 13, "note": 77, "velocity": 105, "channel": 0}, {"type": "note_off", "time": 71, "note": 77, "velocity": 105, "channel": 0}, {"type": "note_on", "time": 0, "note": 75, "velocity": 109, "channel": 0}, {"type": "note_off", "time": 37, "note": 75, "velocity": 109, "channel": 0}, {"type": "note_on", "time": 7, "note": 74, "velocity": 113, "channel": 0}, {"type": "note_off", "time": 82, "note": 74, "velocity": 113, "channel": 0}, {"type": "note_on", "time": 34, "note": 72, "velocity": 109, "channel": 0}, {"type": "note_off", "time": 71, "note": 72, "velocity": 109, "channel": 0}, {"type": "note_on", "time": 47, "note": 73, "velocity": 97, "channel": 0}, {"type": "note_off", "time": 26, "note": 73, "velocity": 97, "channel": 0}, {"type": "note_on", "time": 58, "note": 74, "velocity": 119, "channel": 0}, {"type": "note_off", "time": 68, "note": 74, "velocity": 119, "channel": 0}, {"type": "note_on", "time": 958, "note": 73, "velocity": 120, "channel": 0}, {"type": "note_off", "time": 47, "note": 73, "velocity": 120, "channel": 0}, {"type": "note_on", "time": 21, "note": 74, "velocity": 121, "channel": 0}, {"type": "note_off", "time": 661, "note": 74, "velocity": 121, "channel": 0}, {"type": "note_on", "time": 47, "note": 73, "velocity": 112, "channel": 0}, {"type": "note_off", "time": 58, "note": 73, "velocity": 112, "channel": 0}, {"type": "note_on", "time": 23, "note": 74, "velocity": 106, "channel": 0}, {"type": "note_off", "time": 47, "note": 74, "velocity": 106, "channel": 0}, {"type": "note_on", "time": 47, "note": 78, "velocity": 110, "channel": 0}, {"type": "note_off", "time": 55, "note": 78, "velocity": 110, "channel": 0}, {"type": "note_on", "time": 1, "note": 76, "velocity": 103, "channel": 0}, {"type": "note_off", "time": 34, "note": 76, "velocity": 103, "channel": 0}, {"type": "note_on", "time": 11, "note": 76, "velocity": 108, "channel": 0}, {"type": "note_off", "time": 109, "note": 76, "velocity": 108, "channel": 0}, {"type": "note_on", "time": 31, "note": 73, "velocity": 110, "channel": 0}, {"type": "note_off", "time": 76, "note": 73, "velocity": 110, "channel": 0}, {"type": "note_on", "time": 0, "note": 74, "velocity": 107, "channel": 0}, {"type": "note_off", "time": 34, "note": 74, "velocity": 107, "channel": 0}, {"type": "note_on", "time": 47, "note": 78, "velocity": 108, "channel": 0}, {"type": "note_off", "time": 82, "note": 78, "velocity": 108, "channel": 0}, {"type": "note_on", "time": 15, "note": 76, "velocity": 110, "channel": 0}, {"type": "note_off", "time": 52, "note": 76, "velocity": 110, "channel": 0}, {"type": "note_on", "time": 58, "note": 73, "velocity": 107, "channel": 0}, {"type": "note_off", "time": 68, "note": 73, "velocity": 107, "channel": 0}, {"type": "note_on", "time": 2, "note": 74, "velocity": 102, "channel": 0}, {"type": "note_off", "time": 63, "note": 74, "velocity": 102, "channel": 0}, {"type": "note_on", "time": 23, "note": 78, "velocity": 113, "channel": 0}, {"type": "note_off", "time": 60, "note": 78, "velocity": 113, "channel": 0}, {"type": "note_on", "time": 48, "note": 76, "velocity": 114, "channel": 0}, {"type": "note_off", "time": 84, "note": 76, "velocity": 114, "channel": 0}, {"type": "note_on", "time": 1, "note": 72, "velocity": 104, "channel": 0}, {"type": "note_off", "time": 66, "note": 72, "velocity": 104, "channel": 0}, {"type": "note_on", "time": 2, "note": 74, "velocity": 105, "channel": 0}, {"type": "note_off", "time": 76, "note": 74, "velocity": 105, "channel": 0}, {"type": "note_on", "time": 31, "note": 78, "velocity": 100, "channel": 0}, {"type": "note_off", "time": 74, "note": 78, "velocity": 100, "channel": 0}, {"type": "note_on", "time": 21, "note": 76, "velocity": 108, "channel": 0}, {"type": "note_off", "time": 90, "note": 76, "velocity": 108, "channel": 0}, {"type": "note_on", "time": 7, "note": 74, "velocity": 105, "channel": 0}, {"type": "note_off", "time": 71, "note": 74, "velocity": 105, "channel": 0}, {"type": "note_on", "time": 21, "note": 73, "velocity": 109, "channel": 0}, {"type": "note_off", "time": 60, "note": 73, "velocity": 109, "channel": 0}, {"type": "note_on", "time": 21, "note": 72, "velocity": 98, "channel": 0}, {"type": "note_off", "time": 63, "note": 72, "velocity": 98, "channel": 0}, {"type": "note_on", "time": 31, "note": 71, "velocity": 109, "channel": 0}, {"type": "note_off", "time": 66, "note": 71, "velocity": 109, "channel": 0}, {"type": "note_on", "time": 21, "note": 70, "velocity": 105, "channel": 0}, {"type": "note_off", "time": 74, "note": 70, "velocity": 105, "channel": 0}, {"type": "note_on", "time": 31, "note": 69, "velocity": 107, "channel": 0}, {"type": "note_off", "time": 58, "note": 69, "velocity": 107, "channel": 0}, {"type": "note_on", "time": 15, "note": 67, "velocity": 102, "channel": 0}, {"type": "note_off", "time": 74, "note": 67, "velocity": 102, "channel": 0}, {"type": "note_on", "time": 55, "note": 66, "velocity": 89, "channel": 0}, {"type": "note_off", "time": 58, "note": 66, "velocity": 89, "channel": 0}, {"type": "note_on", "time": 13, "note": 69, "velocity": 102, "channel": 0}, {"type": "note_off", "time": 79, "note": 69, "velocity": 102, "channel": 0}, {"type": "note_on", "time": 23, "note": 66, "velocity": 96, "channel": 0}, {"type": "note_off", "time": 47, "note": 66, "velocity": 96, "channel": 0}, {"type": "note_on", "time": 55, "note": 67, "velocity": 93, "channel": 0}, {"type": "note_off", "time": 68, "note": 67, "velocity": 93, "channel": 0}, {"type": "note_on", "time": 13, "note": 69, "velocity": 106, "channel": 0}, {"type": "note_off", "time": 90, "note": 69, "velocity": 106, "channel": 0}, {"type": "note_on", "time": 39, "note": 70, "velocity": 97, "channel": 0}, {"type": "note_off", "time": 52, "note": 70, "velocity": 97, "channel": 0}, {"type": "note_on", "time": 29, "note": 72, "velocity": 91, "channel": 0}, {"type": "note_off", "time": 47, "note": 72, "velocity": 91, "channel": 0}, {"type": "note_on", "time": 5, "note": 74, "velocity": 98, "channel": 0}, {"type": "note_off", "time": 92, "note": 74, "velocity": 98, "channel": 0}, {"type": "note_on", "time": 5, "note": 76, "velocity": 103, "channel": 0}, {"type": "note_off", "time": 71, "note": 76, "velocity": 103, "channel": 0}, {"type": "note_on", "time": 31, "note": 81, "velocity": 96, "channel": 0}, {"type": "note_off", "time": 103, "note": 81, "velocity": 96, "channel": 0}, {"type": "note_on", "time": 84, "note": 81, "velocity": 107, "channel": 0}, {"type": "note_off", "time": 90, "note": 81, "velocity": 107, "channel": 0}, {"type": "note_on", "time": 15, "note": 79, "velocity": 96, "channel": 0}, {"type": "note_off", "time": 92, "note": 79, "velocity": 96, "channel": 0}, {"type": "note_on", "time": 84, "note": 79, "velocity": 94, "channel": 0}, {"type": "note_off", "time": 84, "note": 79, "velocity": 94, "channel": 0}, {"type": "note_on", "time": 15, "note": 76, "velocity": 97, "channel": 0}, {"type": "note_off", "time": 127, "note": 76, "velocity": 97, "channel": 0}, {"type": "note_on", "time": 68, "note": 76, "velocity": 108, "channel": 0}, {"type": "note_off", "time": 79, "note": 76, "velocity": 108, "channel": 0}, {"type": "note_on", "time": 50, "note": 74, "velocity": 102, "channel": 0}, {"type": "note_off", "time": 90, "note": 74, "velocity": 102, "channel": 0}, {"type": "note_on", "time": 52, "note": 74, "velocity": 105, "channel": 0}, {"type": "note_off", "time": 84, "note": 74, "velocity": 105, "channel": 0}, {"type": "note_on", "time": 15, "note": 70, "velocity": 100, "channel": 0}, {"type": "note_off", "time": 84, "note": 70, "velocity": 100, "channel": 0}, {"type": "note_on", "time": 92, "note": 70, "velocity": 108, "channel": 0}, {"type": "note_off", "time": 82, "note": 70, "velocity": 108, "channel": 0}, {"type": "note_on", "time": 45, "note": 69, "velocity": 104, "channel": 0}, {"type": "note_off", "time": 63, "note": 69, "velocity": 104, "channel": 0}, {"type": "note_on", "time": 113, "note": 69, "velocity": 111, "channel": 0}, {"type": "note_off", "time": 52, "note": 69, "velocity": 111, "channel": 0}, {"type": "note_on", "time": 26, "note": 67, "velocity": 103, "channel": 0}, {"type": "note_off", "time": 84, "note": 67, "velocity": 103, "channel": 0}, {"type": "note_on", "time": 121, "note": 67, "velocity": 111, "channel": 0}, {"type": "note_off", "time": 68, "note": 67, "velocity": 111, "channel": 0}, {"type": "note_on", "time": 42, "note": 64, "velocity": 111, "channel": 0}, {"type": "note_off", "time": 58, "note": 64, "velocity": 111, "channel": 0}, {"type": "note_on", "time": 103, "note": 64, "velocity": 114, "channel": 0}, {"type": "note_off", "time": 63, "note": 64, "velocity": 114, "channel": 0}, {"type": "note_on", "time": 31, "note": 62, "velocity": 99, "channel": 0}, {"type": "note_off", "time": 116, "note": 62, "velocity": 99, "channel": 0}, {"type": "note_on", "time": 68, "note": 62, "velocity": 109, "channel": 0}, {"type": "note_off", "time": 68, "note": 62, "velocity": 109, "channel": 0}, {"type": "note_on", "time": 61, "note": 58, "velocity": 95, "channel": 0}, {"type": "note_off", "time": 95, "note": 58, "velocity": 95, "channel": 0}, {"type": "note_on", "time": 79, "note": 58, "velocity": 107, "channel": 0}, {"type": "note_off", "time": 58, "note": 58, "velocity": 107, "channel": 0}, {"type": "note_on", "time": 11, "note": 57, "velocity": 93, "channel": 0}, {"type": "note_off", "time": 156, "note": 57, "velocity": 93, "channel": 0}, {"type": "note_on", "time": 13, "note": 57, "velocity": 94, "channel": 0}, {"type": "note_off", "time": 129, "note": 57, "velocity": 94, "channel": 0}, {"type": "note_on", "time": 22, "note": 60, "velocity": 89, "channel": 0}, {"type": "note_off", "time": 100, "note": 60, "velocity": 89, "channel": 0}, {"type": "note_on", "time": 553, "note": 63, "velocity": 108, "channel": 0}, {"type": "note_off", "time": 37, "note": 63, "velocity": 108, "channel": 0}, {"type": "note_on", "time": 0, "note": 65, "velocity": 110, "channel": 0}, {"type": "note_on", "time": 45, "note": 63, "velocity": 107, "channel": 0}, {"type": "note_off", "time": 0, "note": 65, "velocity": 110, "channel": 0}, {"type": "note_off", "time": 68, "note": 63, "velocity": 107, "channel": 0}, {"type": "note_on", "time": 20, "note": 62, "velocity": 102, "channel": 0}, {"type": "note_off", "time": 90, "note": 62, "velocity": 102, "channel": 0}, {"type": "note_on", "time": 46, "note": 60, "velocity": 98, "channel": 0}, {"type": "note_off", "time": 42, "note": 60, "velocity": 98, "channel": 0}, {"type": "note_on", "time": 2, "note": 59, "velocity": 85, "channel": 0}, {"type": "note_off", "time": 103, "note": 59, "velocity": 85, "channel": 0}, {"type": "note_on", "time": 516, "note": 69, "velocity": 103, "channel": 0}, {"type": "note_off", "time": 444, "note": 69, "velocity": 103, "channel": 0}, {"type": "note_on", "time": 55, "note": 67, "velocity": 91, "channel": 0}, {"type": "note_off", "time": 47, "note": 67, "velocity": 91, "channel": 0}, {"type": "note_on", "time": 29, "note": 68, "velocity": 107, "channel": 0}, {"type": "note_off", "time": 47, "note": 68, "velocity": 107, "channel": 0}, {"type": "note_on", "time": 50, "note": 71, "velocity": 111, "channel": 0}, {"type": "note_off", "time": 63, "note": 71, "velocity": 111, "channel": 0}, {"type": "note_on", "time": 2, "note": 74, "velocity": 107, "channel": 0}, {"type": "note_off", "time": 84, "note": 74, "velocity": 107, "channel": 0}, {"type": "note_on", "time": 18, "note": 77, "velocity": 110, "channel": 0}, {"type": "note_off", "time": 84, "note": 77, "velocity": 110, "channel": 0}, {"type": "note_on", "time": 21, "note": 77, "velocity": 118, "channel": 0}, {"type": "note_off", "time": 66, "note": 77, "velocity": 118, "channel": 0}, {"type": "note_on", "time": 0, "note": 76, "velocity": 115, "channel": 0}, {"type": "note_off", "time": 100, "note": 76, "velocity": 115, "channel": 0}, {"type": "note_on", "time": 7, "note": 74, "velocity": 111, "channel": 0}, {"type": "note_off", "time": 52, "note": 74, "velocity": 111, "channel": 0}, {"type": "note_on", "time": 45, "note": 73, "velocity": 108, "channel": 0}, {"type": "note_off", "time": 79, "note": 73, "velocity": 108, "channel": 0}, {"type": "note_on", "time": 10, "note": 72, "velocity": 106, "channel": 0}, {"type": "note_off", "time": 63, "note": 72, "velocity": 106, "channel": 0}, {"type": "note_on", "time": 39, "note": 62, "velocity": 87, "channel": 0}, {"type": "note_off", "time": 39, "note": 62, "velocity": 87, "channel": 0}, {"type": "note_on", "time": 18, "note": 64, "velocity": 92, "channel": 0}, {"type": "note_off", "time": 108, "note": 64, "velocity": 92, "channel": 0}, {"type": "note_on", "time": 29, "note": 67, "velocity": 92, "channel": 0}, {"type": "note_off", "time": 60, "note": 67, "velocity": 92, "channel": 0}, {"type": "note_on", "time": 7, "note": 71, "velocity": 113, "channel": 0}, {"type": "note_off", "time": 68, "note": 71, "velocity": 113, "channel": 0}, {"type": "note_on", "time": 45, "note": 69, "velocity": 113, "channel": 0}, {"type": "note_off", "time": 58, "note": 69, "velocity": 113, "channel": 0}, {"type": "note_on", "time": 13, "note": 67, "velocity": 108, "channel": 0}, {"type": "note_off", "time": 90, "note": 67, "velocity": 108, "channel": 0}, {"type": "note_on", "time": 39, "note": 64, "velocity": 93, "channel": 0}, {"type": "note_off", "time": 47, "note": 64, "velocity": 93, "channel": 0}, {"type": "note_on", "time": 23, "note": 66, "velocity": 95, "channel": 0}, {"type": "note_off", "time": 60, "note": 66, "velocity": 95, "channel": 0}, {"type": "note_on", "time": 51, "note": 69, "velocity": 107, "channel": 0}, {"type": "note_off", "time": 84, "note": 69, "velocity": 107, "channel": 0}, {"type": "note_on", "time": 3, "note": 72, "velocity": 98, "channel": 0}, {"type": "note_off", "time": 84, "note": 72, "velocity": 98, "channel": 0}, {"type": "note_on", "time": 22, "note": 74, "velocity": 105, "channel": 0}, {"type": "note_off", "time": 59, "note": 74, "velocity": 105, "channel": 0}, {"type": "note_on", "time": 0, "note": 77, "velocity": 116, "channel": 0}, {"type": "note_off", "time": 58, "note": 77, "velocity": 116, "channel": 0}, {"type": "note_on", "time": 7, "note": 76, "velocity": 115, "channel": 0}, {"type": "note_off", "time": 37, "note": 76, "velocity": 115, "channel": 0}, {"type": "note_on", "time": 23, "note": 75, "velocity": 103, "channel": 0}, {"type": "note_off", "time": 47, "note": 75, "velocity": 103, "channel": 0}, {"type": "note_on", "time": 15, "note": 74, "velocity": 110, "channel": 0}, {"type": "note_off", "time": 82, "note": 74, "velocity": 110, "channel": 0}, {"type": "note_on", "time": 23, "note": 72, "velocity": 107, "channel": 0}, {"type": "note_off", "time": 52, "note": 72, "velocity": 107, "channel": 0}, {"type": "note_on", "time": 47, "note": 73, "velocity": 102, "channel": 0}, {"type": "note_on", "time": 58, "note": 76, "velocity": 116, "channel": 0}, {"type": "note_off", "time": 0, "note": 73, "velocity": 102, "channel": 0}, {"type": "note_off", "time": 95, "note": 76, "velocity": 116, "channel": 0}, {"type": "note_on", "time": 34, "note": 74, "velocity": 103, "channel": 0}, {"type": "note_off", "time": 63, "note": 74, "velocity": 103, "channel": 0}, {"type": "note_on", "time": 29, "note": 72, "velocity": 108, "channel": 0}, {"type": "note_off", "time": 58, "note": 72, "velocity": 108, "channel": 0}, {"type": "note_on", "time": 10, "note": 71, "velocity": 104, "channel": 0}, {"type": "note_off", "time": 60, "note": 71, "velocity": 104, "channel": 0}, {"type": "note_on", "time": 39, "note": 69, "velocity": 111, "channel": 0}, {"type": "note_off", "time": 68, "note": 69, "velocity": 111, "channel": 0}, {"type": "note_on", "time": 23, "note": 68, "velocity": 103, "channel": 0}, {"type": "note_off", "time": 79, "note": 68, "velocity": 103, "channel": 0}, {"type": "note_on", "time": 10, "note": 65, "velocity": 96, "channel": 0}, {"type": "note_off", "time": 76, "note": 65, "velocity": 96, "channel": 0}, {"type": "note_on", "time": 45, "note": 67, "velocity": 86, "channel": 0}, {"type": "note_off", "time": 63, "note": 67, "velocity": 86, "channel": 0}, {"type": "note_on", "time": 27, "note": 69, "velocity": 92, "channel": 0}, {"type": "note_off", "time": 90, "note": 69, "velocity": 92, "channel": 0}, {"type": "note_on", "time": 22, "note": 71, "velocity": 91, "channel": 0}, {"type": "note_off", "time": 39, "note": 71, "velocity": 91, "channel": 0}, {"type": "note_on", "time": 23, "note": 72, "velocity": 95, "channel": 0}, {"type": "note_off", "time": 58, "note": 72, "velocity": 95, "channel": 0}, {"type": "note_on", "time": 10, "note": 74, "velocity": 109, "channel": 0}, {"type": "note_off", "time": 84, "note": 74, "velocity": 109, "channel": 0}, {"type": "note_on", "time": 21, "note": 71, "velocity": 107, "channel": 0}, {"type": "note_off", "time": 68, "note": 71, "velocity": 107, "channel": 0}, {"type": "note_on", "time": 0, "note": 73, "velocity": 103, "channel": 0}, {"type": "note_off", "time": 95, "note": 73, "velocity": 103, "channel": 0}, {"type": "note_on", "time": 45, "note": 71, "velocity": 89, "channel": 0}, {"type": "note_off", "time": 63, "note": 71, "velocity": 89, "channel": 0}, {"type": "note_on", "time": 2, "note": 72, "velocity": 106, "channel": 0}, {"type": "note_off", "time": 52, "note": 72, "velocity": 106, "channel": 0}, {"type": "note_on", "time": 26, "note": 70, "velocity": 108, "channel": 0}, {"type": "note_off", "time": 84, "note": 70, "velocity": 108, "channel": 0}, {"type": "note_on", "time": 14, "note": 69, "velocity": 104, "channel": 0}, {"type": "note_off", "time": 68, "note": 69, "velocity": 104, "channel": 0}, {"type": "note_on", "time": 27, "note": 67, "velocity": 104, "channel": 0}, {"type": "note_off", "time": 47, "note": 67, "velocity": 104, "channel": 0}, {"type": "note_on", "time": 15, "note": 65, "velocity": 110, "channel": 0}, {"type": "note_off", "time": 79, "note": 65, "velocity": 110, "channel": 0}, {"type": "note_on", "time": 45, "note": 64, "velocity": 110, "channel": 0}, {"type": "note_off", "time": 47, "note": 64, "velocity": 110, "channel": 0}, {"type": "note_on", "time": 26, "note": 63, "velocity": 99, "channel": 0}, {"type": "note_off", "time": 50, "note": 63, "velocity": 99, "channel": 0}, {"type": "note_on", "time": 76, "note": 65, "velocity": 110, "channel": 0}, {"type": "note_off", "time": 71, "note": 65, "velocity": 110, "channel": 0}, {"type": "note_on", "time": 2, "note": 62, "velocity": 100, "channel": 0}, {"type": "note_off", "time": 63, "note": 62, "velocity": 100, "channel": 0}, {"type": "note_on", "time": 31, "note": 60, "velocity": 102, "channel": 0}, {"type": "note_off", "time": 55, "note": 60, "velocity": 102, "channel": 0}, {"type": "note_on", "time": 39, "note": 59, "velocity": 87, "channel": 0}, {"type": "note_off", "time": 74, "note": 59, "velocity": 87, "channel": 0}, {"type": "note_on", "time": 42, "note": 57, "velocity": 96, "channel": 0}, {"type": "note_off", "time": 68, "note": 57, "velocity": 96, "channel": 0}, {"type": "note_on", "time": 0, "note": 58, "velocity": 99, "channel": 0}, {"type": "note_off", "time": 76, "note": 58, "velocity": 99, "channel": 0}, {"type": "note_on", "time": 26, "note": 60, "velocity": 92, "channel": 0}, {"type": "note_off", "time": 74, "note": 60, "velocity": 92, "channel": 0}, {"type": "note_on", "time": 10, "note": 62, "velocity": 93, "channel": 0}, {"type": "note_off", "time": 74, "note": 62, "velocity": 93, "channel": 0}, {"type": "note_on", "time": 42, "note": 65, "velocity": 10, "channel": 0}, {"type": "note_on", "time": 71, "note": 61, "velocity": 84, "channel": 0}, {"type": "note_off", "time": 0, "note": 65, "velocity": 10, "channel": 0}, {"type": "note_off", "time": 50, "note": 61, "velocity": 84, "channel": 0}, {"type": "note_on", "time": 82, "note": 62, "velocity": 93, "channel": 0}, {"type": "note_off", "time": 50, "note": 62, "velocity": 93, "channel": 0}, {"type": "note_on", "time": 15, "note": 63, "velocity": 94, "channel": 0}, {"type": "note_off", "time": 79, "note": 63, "velocity": 94, "channel": 0}, {"type": "note_on", "time": 21, "note": 64, "velocity": 98, "channel": 0}, {"type": "note_off", "time": 63, "note": 64, "velocity": 98, "channel": 0}, {"type": "note_on", "time": 13, "note": 67, "velocity": 115, "channel": 0}, {"type": "note_off", "time": 76, "note": 67, "velocity": 115, "channel": 0}, {"type": "note_on", "time": 51, "note": 64, "velocity": 106, "channel": 0}, {"type": "note_off", "time": 62, "note": 64, "velocity": 106, "channel": 0}, {"type": "note_on", "time": 0, "note": 65, "velocity": 113, "channel": 0}, {"type": "note_off", "time": 74, "note": 65, "velocity": 113, "channel": 0}, {"type": "note_on", "time": 10, "note": 63, "velocity": 106, "channel": 0}, {"type": "note_off", "time": 66, "note": 63, "velocity": 106, "channel": 0}, {"type": "note_on", "time": 7, "note": 62, "velocity": 104, "channel": 0}, {"type": "note_off", "time": 68, "note": 62, "velocity": 104, "channel": 0}, {"type": "note_on", "time": 58, "note": 60, "velocity": 100, "channel": 0}, {"type": "note_off", "time": 47, "note": 60, "velocity": 100, "channel": 0}, {"type": "note_on", "time": 52, "note": 58, "velocity": 89, "channel": 0}, {"type": "note_off", "time": 55, "note": 58, "velocity": 89, "channel": 0}, {"type": "note_on", "time": 23, "note": 59, "velocity": 89, "channel": 0}, {"type": "note_off", "time": 84, "note": 59, "velocity": 89, "channel": 0}, {"type": "note_on", "time": 6, "note": 65, "velocity": 102, "channel": 0}, {"type": "note_off", "time": 90, "note": 65, "velocity": 102, "channel": 0}, {"type": "note_on", "time": 15, "note": 68, "velocity": 107, "channel": 0}, {"type": "note_off", "time": 84, "note": 68, "velocity": 107, "channel": 0}, {"type": "note_on", "time": 6, "note": 65, "velocity": 87, "channel": 0}, {"type": "note_off", "time": 42, "note": 65, "velocity": 87, "channel": 0}, {"type": "note_on", "time": 34, "note": 66, "velocity": 78, "channel": 0}, {"type": "note_off", "time": 50, "note": 66, "velocity": 78, "channel": 0}, {"type": "note_on", "time": 42, "note": 67, "velocity": 111, "channel": 0}, {"type": "note_off", "time": 74, "note": 67, "velocity": 111, "channel": 0}, {"type": "note_on", "time": 47, "note": 63, "velocity": 104, "channel": 0}, {"type": "note_off", "time": 39, "note": 63, "velocity": 104, "channel": 0}, {"type": "note_on", "time": 38, "note": 60, "velocity": 81, "channel": 0}, {"type": "note_off", "time": 48, "note": 60, "velocity": 81, "channel": 0}, {"type": "note_on", "time": 52, "note": 58, "velocity": 99, "channel": 0}, {"type": "note_off", "time": 60, "note": 58, "velocity": 99, "channel": 0}, {"type": "note_on", "time": 13, "note": 57, "velocity": 90, "channel": 0}, {"type": "note_off", "time": 76, "note": 57, "velocity": 90, "channel": 0}, {"type": "note_on", "time": 18, "note": 60, "velocity": 87, "channel": 0}, {"type": "note_off", "time": 45, "note": 60, "velocity": 87, "channel": 0}, {"type": "note_on", "time": 15, "note": 63, "velocity": 101, "channel": 0}, {"type": "note_off", "time": 74, "note": 63, "velocity": 101, "channel": 0}, {"type": "note_on", "time": 58, "note": 66, "velocity": 111, "channel": 0}, {"type": "note_off", "time": 82, "note": 66, "velocity": 111, "channel": 0}, {"type": "note_on", "time": 0, "note": 63, "velocity": 90, "channel": 0}, {"type": "note_off", "time": 84, "note": 63, "velocity": 90, "channel": 0}, {"type": "note_on", "time": 34, "note": 64, "velocity": 97, "channel": 0}, {"type": "note_off", "time": 68, "note": 64, "velocity": 97, "channel": 0}, {"type": "note_on", "time": 27, "note": 65, "velocity": 110, "channel": 0}, {"type": "note_off", "time": 90, "note": 65, "velocity": 110, "channel": 0}, {"type": "note_on", "time": 0, "note": 63, "velocity": 110, "channel": 0}, {"type": "note_off", "time": 74, "note": 63, "velocity": 110, "channel": 0}, {"type": "note_on", "time": 3, "note": 62, "velocity": 100, "channel": 0}, {"type": "note_off", "time": 55, "note": 62, "velocity": 100, "channel": 0}, {"type": "note_on", "time": 47, "note": 60, "velocity": 106, "channel": 0}, {"type": "note_off", "time": 68, "note": 60, "velocity": 106, "channel": 0}, {"type": "note_on", "time": 2, "note": 59, "velocity": 94, "channel": 0}, {"type": "note_off", "time": 47, "note": 59, "velocity": 94, "channel": 0}, {"type": "note_on", "time": 76, "note": 57, "velocity": 102, "channel": 0}, {"type": "note_off", "time": 45, "note": 57, "velocity": 102, "channel": 0}, {"type": "note_on", "time": 7, "note": 58, "velocity": 110, "channel": 0}, {"type": "note_off", "time": 79, "note": 58, "velocity": 110, "channel": 0}, {"type": "note_on", "time": 34, "note": 53, "velocity": 103, "channel": 0}, {"type": "note_off", "time": 79, "note": 53, "velocity": 103, "channel": 0}, {"type": "note_on", "time": 640, "note": 74, "velocity": 122, "channel": 0}, {"type": "note_off", "time": 37, "note": 74, "velocity": 122, "channel": 0}, {"type": "note_on", "time": 15, "note": 73, "velocity": 119, "channel": 0}, {"type": "note_off", "time": 66, "note": 73, "velocity": 119, "channel": 0}, {"type": "note_on", "time": 5, "note": 72, "velocity": 75, "channel": 0}, {"type": "note_off", "time": 58, "note": 72, "velocity": 75, "channel": 0}, {"type": "note_on", "time": 29, "note": 70, "velocity": 110, "channel": 0}, {"type": "note_off", "time": 63, "note": 70, "velocity": 110, "channel": 0}, {"type": "note_on", "time": 15, "note": 69, "velocity": 118, "channel": 0}, {"type": "note_off", "time": 76, "note": 69, "velocity": 118, "channel": 0}, {"type": "note_on", "time": 29, "note": 67, "velocity": 110, "channel": 0}, {"type": "note_off", "time": 50, "note": 67, "velocity": 110, "channel": 0}, {"type": "note_on", "time": 13, "note": 66, "velocity": 102, "channel": 0}, {"type": "note_off", "time": 82, "note": 66, "velocity": 102, "channel": 0}, {"type": "note_on", "time": 47, "note": 69, "velocity": 91, "channel": 0}, {"type": "note_off", "time": 58, "note": 69, "velocity": 91, "channel": 0}, {"type": "note_on", "time": 26, "note": 72, "velocity": 116, "channel": 0}, {"type": "note_off", "time": 52, "note": 72, "velocity": 116, "channel": 0}, {"type": "note_on", "time": 45, "note": 74, "velocity": 117, "channel": 0}, {"type": "note_off", "time": 68, "note": 74, "velocity": 117, "channel": 0}, {"type": "note_on", "time": 26, "note": 77, "velocity": 125, "channel": 0}, {"type": "note_off", "time": 37, "note": 77, "velocity": 125, "channel": 0}, {"type": "note_on", "time": 10, "note": 76, "velocity": 117, "channel": 0}, {"type": "note_off", "time": 63, "note": 76, "velocity": 117, "channel": 0}, {"type": "note_on", "time": 5, "note": 75, "velocity": 115, "channel": 0}, {"type": "note_off", "time": 68, "note": 75, "velocity": 115, "channel": 0}, {"type": "note_on", "time": 7, "note": 74, "velocity": 113, "channel": 0}, {"type": "note_off", "time": 52, "note": 74, "velocity": 113, "channel": 0}, {"type": "note_on", "time": 52, "note": 70, "velocity": 102, "channel": 0}, {"type": "note_off", "time": 60, "note": 70, "velocity": 102, "channel": 0}, {"type": "note_on", "time": 15, "note": 66, "velocity": 103, "channel": 0}, {"type": "note_off", "time": 87, "note": 66, "velocity": 103, "channel": 0}, {"type": "note_on", "time": 45, "note": 63, "velocity": 91, "channel": 0}, {"type": "note_off", "time": 58, "note": 63, "velocity": 91, "channel": 0}, {"type": "note_on", "time": 10, "note": 68, "velocity": 111, "channel": 0}, {"type": "note_off", "time": 74, "note": 68, "velocity": 111, "channel": 0}, {"type": "note_on", "time": 52, "note": 66, "velocity": 102, "channel": 0}, {"type": "note_off", "time": 58, "note": 66, "velocity": 102, "channel": 0}, {"type": "note_on", "time": 0, "note": 67, "velocity": 102, "channel": 0}, {"type": "note_off", "time": 84, "note": 67, "velocity": 102, "channel": 0}, {"type": "note_on", "time": 15, "note": 69, "velocity": 109, "channel": 0}, {"type": "note_off", "time": 68, "note": 69, "velocity": 109, "channel": 0}, {"type": "note_on", "time": 39, "note": 71, "velocity": 100, "channel": 0}, {"type": "note_off", "time": 74, "note": 71, "velocity": 100, "channel": 0}, {"type": "note_on", "time": 5, "note": 72, "velocity": 95, "channel": 0}, {"type": "note_off", "time": 66, "note": 72, "velocity": 95, "channel": 0}, {"type": "note_on", "time": 15, "note": 74, "velocity": 117, "channel": 0}, {"type": "note_off", "time": 79, "note": 74, "velocity": 117, "channel": 0}, {"type": "note_on", "time": 39, "note": 76, "velocity": 118, "channel": 0}, {"type": "note_off", "time": 63, "note": 76, "velocity": 118, "channel": 0}, {"type": "note_on", "time": 21, "note": 78, "velocity": 110, "channel": 0}, {"type": "note_off", "time": 79, "note": 78, "velocity": 110, "channel": 0}, {"type": "note_on", "time": 1556, "note": 81, "velocity": 127, "channel": 0}, {"type": "note_off", "time": 52, "note": 81, "velocity": 127, "channel": 0}, {"type": "note_on", "time": 10, "note": 82, "velocity": 125, "channel": 0}, {"type": "note_off", "time": 37, "note": 82, "velocity": 125, "channel": 0}, {"type": "note_on", "time": 10, "note": 81, "velocity": 120, "channel": 0}, {"type": "note_off", "time": 52, "note": 81, "velocity": 120, "channel": 0}, {"type": "note_on", "time": 2, "note": 79, "velocity": 111, "channel": 0}, {"type": "note_off", "time": 39, "note": 79, "velocity": 111, "channel": 0}, {"type": "note_on", "time": 2, "note": 77, "velocity": 114, "channel": 0}, {"type": "note_off", "time": 63, "note": 77, "velocity": 114, "channel": 0}, {"type": "note_on", "time": 52, "note": 78, "velocity": 125, "channel": 0}, {"type": "note_off", "time": 95, "note": 78, "velocity": 125, "channel": 0}, {"type": "note_on", "time": 45, "note": 76, "velocity": 121, "channel": 0}, {"type": "note_off", "time": 84, "note": 76, "velocity": 121, "channel": 0}, {"type": "note_on", "time": 15, "note": 73, "velocity": 110, "channel": 0}, {"type": "note_off", "time": 87, "note": 73, "velocity": 110, "channel": 0}, {"type": "note_on", "time": 42, "note": 74, "velocity": 92, "channel": 0}, {"type": "note_off", "time": 52, "note": 74, "velocity": 92, "channel": 0}, {"type": "note_on", "time": 21, "note": 75, "velocity": 112, "channel": 0}, {"type": "note_on", "time": 90, "note": 72, "velocity": 113, "channel": 0}, {"type": "note_off", "time": 0, "note": 75, "velocity": 112, "channel": 0}, {"type": "note_off", "time": 52, "note": 72, "velocity": 113, "channel": 0}, {"type": "note_on", "time": 2, "note": 71, "velocity": 110, "channel": 0}, {"type": "note_off", "time": 90, "note": 71, "velocity": 110, "channel": 0}, {"type": "note_on", "time": 34, "note": 69, "velocity": 111, "channel": 0}, {"type": "note_off", "time": 74, "note": 69, "velocity": 111, "channel": 0}, {"type": "note_on", "time": 26, "note": 68, "velocity": 97, "channel": 0}, {"type": "note_off", "time": 29, "note": 68, "velocity": 97, "channel": 0}, {"type": "note_on", "time": 15, "note": 69, "velocity": 100, "channel": 0}, {"type": "note_off", "time": 42, "note": 69, "velocity": 100, "channel": 0}, {"type": "note_on", "time": 5, "note": 68, "velocity": 100, "channel": 0}, {"type": "note_off", "time": 84, "note": 68, "velocity": 100, "channel": 0}, {"type": "note_on", "time": 5, "note": 66, "velocity": 108, "channel": 0}, {"type": "note_off", "time": 79, "note": 66, "velocity": 108, "channel": 0}, {"type": "note_on", "time": 52, "note": 63, "velocity": 99, "channel": 0}, {"type": "note_off", "time": 52, "note": 63, "velocity": 99, "channel": 0}, {"type": "note_on", "time": 26, "note": 64, "velocity": 101, "channel": 0}, {"type": "note_off", "time": 79, "note": 64, "velocity": 101, "channel": 0}, {"type": "note_on", "time": 21, "note": 66, "velocity": 107, "channel": 0}, {"type": "note_off", "time": 47, "note": 66, "velocity": 107, "channel": 0}, {"type": "note_on", "time": 18, "note": 67, "velocity": 89, "channel": 0}, {"type": "note_off", "time": 45, "note": 67, "velocity": 89, "channel": 0}, {"type": "note_on", "time": 23, "note": 69, "velocity": 104, "channel": 0}, {"type": "note_off", "time": 63, "note": 69, "velocity": 104, "channel": 0}, {"type": "note_on", "time": 5, "note": 68, "velocity": 100, "channel": 0}, {"type": "note_off", "time": 47, "note": 68, "velocity": 100, "channel": 0}, {"type": "note_on", "time": 15, "note": 72, "velocity": 108, "channel": 0}, {"type": "note_off", "time": 105, "note": 72, "velocity": 108, "channel": 0}, {"type": "note_on", "time": 37, "note": 62, "velocity": 94, "channel": 0}, {"type": "note_off", "time": 39, "note": 62, "velocity": 94, "channel": 0}, {"type": "note_on", "time": 21, "note": 64, "velocity": 105, "channel": 0}, {"type": "note_off", "time": 45, "note": 64, "velocity": 105, "channel": 0}, {"type": "note_on", "time": 10, "note": 67, "velocity": 110, "channel": 0}, {"type": "note_off", "time": 90, "note": 67, "velocity": 110, "channel": 0}, {"type": "note_on", "time": 29, "note": 66, "velocity": 103, "channel": 0}, {"type": "note_off", "time": 47, "note": 66, "velocity": 103, "channel": 0}, {"type": "note_on", "time": 52, "note": 64, "velocity": 112, "channel": 0}, {"type": "note_off", "time": 47, "note": 64, "velocity": 112, "channel": 0}, {"type": "note_on", "time": 37, "note": 63, "velocity": 106, "channel": 0}, {"type": "note_off", "time": 58, "note": 63, "velocity": 106, "channel": 0}, {"type": "note_on", "time": 60, "note": 61, "velocity": 94, "channel": 0}, {"type": "note_off", "time": 50, "note": 61, "velocity": 94, "channel": 0}, {"type": "note_on", "time": 31, "note": 62, "velocity": 95, "channel": 0}, {"type": "note_off", "time": 55, "note": 62, "velocity": 95, "channel": 0}, {"type": "note_on", "time": 60, "note": 71, "velocity": 117, "channel": 0}, {"type": "note_off", "time": 68, "note": 71, "velocity": 117, "channel": 0}, {"type": "note_on", "time": 103, "note": 62, "velocity": 93, "channel": 0}, {"type": "note_off", "time": 23, "note": 62, "velocity": 93, "channel": 0}, {"type": "note_on", "time": 7, "note": 63, "velocity": 113, "channel": 0}, {"type": "note_off", "time": 58, "note": 63, "velocity": 113, "channel": 0}, {"type": "note_on", "time": 15, "note": 64, "velocity": 103, "channel": 0}, {"type": "note_off", "time": 74, "note": 64, "velocity": 103, "channel": 0}, {"type": "note_on", "time": 57, "note": 72, "velocity": 112, "channel": 0}, {"type": "note_off", "time": 90, "note": 72, "velocity": 112, "channel": 0}, {"type": "note_on", "time": 79, "note": 65, "velocity": 116, "channel": 0}, {"type": "note_off", "time": 74, "note": 65, "velocity": 116, "channel": 0}, {"type": "note_on", "time": 0, "note": 66, "velocity": 106, "channel": 0}, {"type": "note_off", "time": 37, "note": 66, "velocity": 106, "channel": 0}, {"type": "note_on", "time": 95, "note": 74, "velocity": 123, "channel": 0}, {"type": "note_off", "time": 90, "note": 74, "velocity": 123, "channel": 0}, {"type": "note_on", "time": 918, "note": 73, "velocity": 124, "channel": 0}, {"type": "note_off", "time": 82, "note": 73, "velocity": 124, "channel": 0}, {"type": "note_on", "time": 0, "note": 74, "velocity": 121, "channel": 0}, {"type": "note_off", "time": 68, "note": 74, "velocity": 121, "channel": 0}, {"type": "note_on", "time": 29, "note": 76, "velocity": 117, "channel": 0}, {"type": "note_off", "time": 68, "note": 76, "velocity": 117, "channel": 0}, {"type": "note_on", "time": 45, "note": 73, "velocity": 118, "channel": 0}, {"type": "note_off", "time": 68, "note": 73, "velocity": 118, "channel": 0}, {"type": "note_on", "time": 0, "note": 74, "velocity": 121, "channel": 0}, {"type": "note_off", "time": 105, "note": 74, "velocity": 121, "channel": 0}, {"type": "note_on", "time": 29, "note": 73, "velocity": 116, "channel": 0}, {"type": "note_off", "time": 63, "note": 73, "velocity": 116, "channel": 0}, {"type": "note_on", "time": 39, "note": 72, "velocity": 116, "channel": 0}, {"type": "note_off", "time": 50, "note": 72, "velocity": 116, "channel": 0}, {"type": "note_on", "time": 21, "note": 71, "velocity": 115, "channel": 0}, {"type": "note_off", "time": 63, "note": 71, "velocity": 115, "channel": 0}, {"type": "note_on", "time": 39, "note": 70, "velocity": 118, "channel": 0}, {"type": "note_off", "time": 58, "note": 70, "velocity": 118, "channel": 0}, {"type": "note_on", "time": 21, "note": 69, "velocity": 109, "channel": 0}, {"type": "note_off", "time": 68, "note": 69, "velocity": 109, "channel": 0}, {"type": "note_on", "time": 45, "note": 67, "velocity": 106, "channel": 0}, {"type": "note_off", "time": 66, "note": 67, "velocity": 106, "channel": 0}, {"type": "note_on", "time": 39, "note": 66, "velocity": 100, "channel": 0}, {"type": "note_off", "time": 60, "note": 66, "velocity": 100, "channel": 0}, {"type": "note_on", "time": 26, "note": 69, "velocity": 118, "channel": 0}, {"type": "note_off", "time": 52, "note": 69, "velocity": 118, "channel": 0}, {"type": "note_on", "time": 37, "note": 66, "velocity": 103, "channel": 0}, {"type": "note_off", "time": 66, "note": 66, "velocity": 103, "channel": 0}, {"type": "note_on", "time": 10, "note": 67, "velocity": 112, "channel": 0}, {"type": "note_off", "time": 74, "note": 67, "velocity": 112, "channel": 0}, {"type": "note_on", "time": 31, "note": 62, "velocity": 107, "channel": 0}, {"type": "note_off", "time": 90, "note": 62, "velocity": 107, "channel": 0}, {"type": "note_on", "time": 0, "note": 58, "velocity": 99, "channel": 0}, {"type": "note_off", "time": 50, "note": 58, "velocity": 99, "channel": 0}, {"type": "note_on", "time": 31, "note": 55, "velocity": 86, "channel": 0}, {"type": "note_off", "time": 82, "note": 55, "velocity": 86, "channel": 0}, {"type": "note_on", "time": 15, "note": 60, "velocity": 94, "channel": 0}, {"type": "note_off", "time": 103, "note": 60, "velocity": 94, "channel": 0}, {"type": "note_on", "time": 76, "note": 58, "velocity": 97, "channel": 0}, {"type": "note_off", "time": 47, "note": 58, "velocity": 97, "channel": 0}, {"type": "note_on", "time": 47, "note": 60, "velocity": 97, "channel": 0}, {"type": "note_off", "time": 50, "note": 60, "velocity": 97, "channel": 0}, {"type": "note_on", "time": 50, "note": 62, "velocity": 98, "channel": 0}, {"type": "note_off", "time": 82, "note": 62, "velocity": 98, "channel": 0}, {"type": "note_on", "time": 100, "note": 69, "velocity": 118, "channel": 0}, {"type": "note_off", "time": 31, "note": 69, "velocity": 118, "channel": 0}, {"type": "note_on", "time": 0, "note": 70, "velocity": 116, "channel": 0}, {"type": "note_off", "time": 58, "note": 70, "velocity": 116, "channel": 0}, {"type": "note_on", "time": 0, "note": 69, "velocity": 114, "channel": 0}, {"type": "note_off", "time": 63, "note": 69, "velocity": 114, "channel": 0}, {"type": "note_on", "time": 5, "note": 67, "velocity": 108, "channel": 0}, {"type": "note_off", "time": 71, "note": 67, "velocity": 108, "channel": 0}, {"type": "note_on", "time": 42, "note": 64, "velocity": 100, "channel": 0}, {"type": "note_off", "time": 60, "note": 64, "velocity": 100, "channel": 0}, {"type": "note_on", "time": 0, "note": 69, "velocity": 107, "channel": 0}, {"type": "note_off", "time": 50, "note": 69, "velocity": 107, "channel": 0}, {"type": "note_on", "time": 0, "note": 70, "velocity": 116, "channel": 0}, {"type": "note_off", "time": 50, "note": 70, "velocity": 116, "channel": 0}, {"type": "note_on", "time": 0, "note": 69, "velocity": 115, "channel": 0}, {"type": "note_off", "time": 68, "note": 69, "velocity": 115, "channel": 0}, {"type": "note_on", "time": 13, "note": 67, "velocity": 108, "channel": 0}, {"type": "note_off", "time": 82, "note": 67, "velocity": 108, "channel": 0}, {"type": "note_on", "time": 47, "note": 64, "velocity": 95, "channel": 0}, {"type": "note_off", "time": 74, "note": 64, "velocity": 95, "channel": 0}, {"type": "note_on", "time": 26, "note": 70, "velocity": 115, "channel": 0}, {"type": "note_off", "time": 63, "note": 70, "velocity": 115, "channel": 0}, {"type": "note_on", "time": 5, "note": 69, "velocity": 113, "channel": 0}, {"type": "note_off", "time": 90, "note": 69, "velocity": 113, "channel": 0}, {"type": "note_on", "time": 0, "note": 67, "velocity": 107, "channel": 0}, {"type": "note_off", "time": 84, "note": 67, "velocity": 107, "channel": 0}, {"type": "note_on", "time": 55, "note": 64, "velocity": 91, "channel": 0}, {"type": "note_off", "time": 63, "note": 64, "velocity": 91, "channel": 0}, {"type": "note_on", "time": 0, "note": 69, "velocity": 106, "channel": 0}, {"type": "note_off", "time": 52, "note": 69, "velocity": 106, "channel": 0}, {"type": "note_on", "time": 0, "note": 70, "velocity": 118, "channel": 0}, {"type": "note_off", "time": 47, "note": 70, "velocity": 118, "channel": 0}, {"type": "note_on", "time": 15, "note": 69, "velocity": 109, "channel": 0}, {"type": "note_on", "time": 60, "note": 67, "velocity": 106, "channel": 0}, {"type": "note_off", "time": 0, "note": 69, "velocity": 109, "channel": 0}, {"type": "note_off", "time": 87, "note": 67, "velocity": 106, "channel": 0}, {"type": "note_on", "time": 55, "note": 64, "velocity": 91, "channel": 0}, {"type": "note_off", "time": 60, "note": 64, "velocity": 91, "channel": 0}, {"type": "note_on", "time": 39, "note": 69, "velocity": 112, "channel": 0}, {"type": "note_off", "time": 42, "note": 69, "velocity": 112, "channel": 0}, {"type": "note_on", "time": 0, "note": 70, "velocity": 113, "channel": 0}, {"type": "note_off", "time": 47, "note": 70, "velocity": 113, "channel": 0}, {"type": "note_on", "time": 0, "note": 69, "velocity": 114, "channel": 0}, {"type": "note_off", "time": 45, "note": 69, "velocity": 114, "channel": 0}, {"type": "note_on", "time": 0, "note": 67, "velocity": 106, "channel": 0}, {"type": "note_off", "time": 79, "note": 67, "velocity": 106, "channel": 0}, {"type": "note_on", "time": 50, "note": 64, "velocity": 83, "channel": 0}, {"type": "note_off", "time": 58, "note": 64, "velocity": 83, "channel": 0}, {"type": "note_on", "time": 13, "note": 69, "velocity": 105, "channel": 0}, {"type": "note_off", "time": 52, "note": 69, "velocity": 105, "channel": 0}, {"type": "note_on", "time": 0, "note": 70, "velocity": 117, "channel": 0}, {"type": "note_off", "time": 26, "note": 70, "velocity": 117, "channel": 0}, {"type": "note_on", "time": 10, "note": 69, "velocity": 112, "channel": 0}, {"type": "note_off", "time": 66, "note": 69, "velocity": 112, "channel": 0}, {"type": "note_on", "time": 26, "note": 67, "velocity": 105, "channel": 0}, {"type": "note_off", "time": 76, "note": 67, "velocity": 105, "channel": 0}, {"type": "note_on", "time": 15, "note": 63, "velocity": 108, "channel": 0}, {"type": "note_off", "time": 170, "note": 63, "velocity": 108, "channel": 0}, {"type": "note_on", "time": 78, "note": 58, "velocity": 96, "channel": 0}, {"type": "note_off", "time": 63, "note": 58, "velocity": 96, "channel": 0}, {"type": "note_on", "time": 13, "note": 60, "velocity": 95, "channel": 0}, {"type": "note_off", "time": 74, "note": 60, "velocity": 95, "channel": 0}, {"type": "note_on", "time": 42, "note": 62, "velocity": 102, "channel": 0}, {"type": "note_off", "time": 66, "note": 62, "velocity": 102, "channel": 0}, {"type": "note_on", "time": 15, "note": 63, "velocity": 101, "channel": 0}, {"type": "note_off", "time": 79, "note": 63, "velocity": 101, "channel": 0}, {"type": "note_on", "time": 21, "note": 65, "velocity": 105, "channel": 0}, {"type": "note_on", "time": 60, "note": 67, "velocity": 108, "channel": 0}, {"type": "note_off", "time": 0, "note": 65, "velocity": 105, "channel": 0}, {"type": "note_off", "time": 100, "note": 67, "velocity": 108, "channel": 0}, {"type": "note_on", "time": 10, "note": 65, "velocity": 100, "channel": 0}, {"type": "note_off", "time": 42, "note": 65, "velocity": 100, "channel": 0}, {"type": "note_on", "time": 7, "note": 66, "velocity": 109, "channel": 0}, {"type": "note_off", "time": 142, "note": 66, "velocity": 109, "channel": 0}, {"type": "note_on", "time": 645, "note": 62, "velocity": 99, "channel": 0}, {"type": "note_off", "time": 52, "note": 62, "velocity": 99, "channel": 0}, {"type": "note_on", "time": 39, "note": 64, "velocity": 101, "channel": 0}, {"type": "note_off", "time": 58, "note": 64, "velocity": 101, "channel": 0}, {"type": "note_on", "time": 10, "note": 65, "velocity": 102, "channel": 0}, {"type": "note_off", "time": 90, "note": 65, "velocity": 102, "channel": 0}, {"type": "note_on", "time": 45, "note": 67, "velocity": 95, "channel": 0}, {"type": "note_off", "time": 55, "note": 67, "velocity": 95, "channel": 0}, {"type": "note_on", "time": 0, "note": 68, "velocity": 103, "channel": 0}, {"type": "note_off", "time": 82, "note": 68, "velocity": 103, "channel": 0}, {"type": "note_on", "time": 50, "note": 70, "velocity": 113, "channel": 0}, {"type": "note_off", "time": 47, "note": 70, "velocity": 113, "channel": 0}, {"type": "note_on", "time": 10, "note": 71, "velocity": 109, "channel": 0}, {"type": "note_off", "time": 111, "note": 71, "velocity": 109, "channel": 0}, {"type": "note_on", "time": 0, "note": 72, "velocity": 111, "channel": 0}, {"type": "note_off", "time": 79, "note": 72, "velocity": 111, "channel": 0}, {"type": "note_on", "time": 0, "note": 74, "velocity": 120, "channel": 0}, {"type": "note_off", "time": 90, "note": 74, "velocity": 120, "channel": 0}, {"type": "note_on", "time": 0, "note": 76, "velocity": 118, "channel": 0}, {"type": "note_on", "time": 90, "note": 77, "velocity": 116, "channel": 0}, {"type": "note_off", "time": 0, "note": 76, "velocity": 118, "channel": 0}, {"type": "note_off", "time": 105, "note": 77, "velocity": 116, "channel": 0}, {"type": "note_on", "time": 0, "note": 75, "velocity": 112, "channel": 0}, {"type": "note_off", "time": 87, "note": 75, "velocity": 112, "channel": 0}, {"type": "note_on", "time": 0, "note": 76, "velocity": 112, "channel": 0}, {"type": "note_off", "time": 74, "note": 76, "velocity": 112, "channel": 0}, {"type": "note_on", "time": 60, "note": 69, "velocity": 109, "channel": 0}, {"type": "note_off", "time": 127, "note": 69, "velocity": 109, "channel": 0}, {"type": "note_on", "time": 148, "note": 69, "velocity": 93, "channel": 0}, {"type": "note_off", "time": 180, "note": 69, "velocity": 93, "channel": 0}, {"type": "note_on", "time": 193, "note": 75, "velocity": 113, "channel": 0}, {"type": "note_off", "time": 74, "note": 75, "velocity": 113, "channel": 0}, {"type": "note_on", "time": 84, "note": 68, "velocity": 104, "channel": 0}, {"type": "note_off", "time": 180, "note": 68, "velocity": 104, "channel": 0}, {"type": "note_on", "time": 90, "note": 68, "velocity": 89, "channel": 0}, {"type": "note_off", "time": 169, "note": 68, "velocity": 89, "channel": 0}, {"type": "note_on", "time": 383, "note": 62, "velocity": 102, "channel": 0}, {"type": "note_off", "time": 58, "note": 62, "velocity": 102, "channel": 0}, {"type": "note_on", "time": 45, "note": 64, "velocity": 109, "channel": 0}, {"type": "note_off", "time": 47, "note": 64, "velocity": 109, "channel": 0}, {"type": "note_on", "time": 0, "note": 66, "velocity": 97, "channel": 0}, {"type": "note_off", "time": 90, "note": 66, "velocity": 97, "channel": 0}, {"type": "note_on", "time": 45, "note": 67, "velocity": 93, "channel": 0}, {"type": "note_off", "time": 74, "note": 67, "velocity": 93, "channel": 0}, {"type": "note_on", "time": 7, "note": 69, "velocity": 117, "channel": 0}, {"type": "note_off", "time": 82, "note": 69, "velocity": 117, "channel": 0}, {"type": "note_on", "time": 10, "note": 66, "velocity": 103, "channel": 0}, {"type": "note_off", "time": 74, "note": 66, "velocity": 103, "channel": 0}, {"type": "note_on", "time": 18, "note": 67, "velocity": 95, "channel": 0}, {"type": "note_off", "time": 82, "note": 67, "velocity": 95, "channel": 0}, {"type": "note_on", "time": 26, "note": 69, "velocity": 111, "channel": 0}, {"type": "note_off", "time": 52, "note": 69, "velocity": 111, "channel": 0}, {"type": "note_on", "time": 23, "note": 71, "velocity": 95, "channel": 0}, {"type": "note_off", "time": 71, "note": 71, "velocity": 95, "channel": 0}, {"type": "note_on", "time": 37, "note": 72, "velocity": 99, "channel": 0}, {"type": "note_off", "time": 58, "note": 72, "velocity": 99, "channel": 0}, {"type": "note_on", "time": 0, "note": 74, "velocity": 116, "channel": 0}, {"type": "note_off", "time": 74, "note": 74, "velocity": 116, "channel": 0}, {"type": "note_on", "time": 47, "note": 72, "velocity": 116, "channel": 0}, {"type": "note_off", "time": 71, "note": 72, "velocity": 116, "channel": 0}, {"type": "note_on", "time": 0, "note": 71, "velocity": 106, "channel": 0}, {"type": "note_off", "time": 74, "note": 71, "velocity": 106, "channel": 0}, {"type": "note_on", "time": 31, "note": 69, "velocity": 111, "channel": 0}, {"type": "note_off", "time": 74, "note": 69, "velocity": 111, "channel": 0}, {"type": "note_on", "time": 21, "note": 67, "velocity": 107, "channel": 0}, {"type": "note_off", "time": 90, "note": 67, "velocity": 107, "channel": 0}, {"type": "note_on", "time": 18, "note": 67, "velocity": 99, "channel": 0}, {"type": "note_off", "time": 111, "note": 67, "velocity": 99, "channel": 0}, {"type": "end_of_track", "time": 0}]]}