{"ticks_per_beat": 192, "tracks": [[{"type": "track_name", "name": "Melody", "time": 0}, {"type": "set_tempo", "tempo": 248962, "time": 0}, {"type": "key_signature", "key": "Eb", "time": 0}, {"type": "time_signature", "numerator": 4, "denominator": 4, "clocks_per_click": 24, "notated_32nd_notes_per_beat": 8, "time": 0}, {"type": "note_on", "time": 2883, "note": 61, "velocity": 99, "channel": 0}, {"type": "note_off", "time": 48, "note": 61, "velocity": 99, "channel": 0}, {"type": "note_on", "time": 4, "note": 62, "velocity": 87, "channel": 0}, {"type": "note_off", "time": 48, "note": 62, "velocity": 87, "channel": 0}, {"type": "note_on", "time": 17, "note": 66, "velocity": 97, "channel": 0}, {"type": "note_off", "time": 58, "note": 66, "velocity": 97, "channel": 0}, {"type": "note_on", "time": 12, "note": 69, "velocity": 106, "channel": 0}, {"type": "note_off", "time": 53, "note": 69, "velocity": 106, "channel": 0}, {"type": "note_on", "time": 12, "note": 71, "velocity": 115, "channel": 0}, {"type": "note_off", "time": 105, "note": 71, "velocity": 115, "channel": 0}, {"type": "note_on", "time": 15, "note": 69, "velocity": 92, "channel": 0}, {"type": "note_off", "time": 48, "note": 69, "velocity": 92, "channel": 0}, {"type": "note_on", "time": 9, "note": 70, "velocity": 111, "channel": 0}, {"type": "note_off", "time": 111, "note": 70, "velocity": 111, "channel": 0}, {"type": "note_on", "time": 36, "note": 77, "velocity": 120, "channel": 0}, {"type": "note_off", "time": 124, "note": 77, "velocity": 120, "channel": 0}, {"type": "note_on", "time": 73, "note": 74, "velocity": 110, "channel": 0}, {"type": "note_off", "time": 86, "note": 74, "velocity": 110, "channel": 0}, {"type": "note_on", "time": 12, "note": 75, "velocity": 109, "channel": 0}, {"type": "note_off", "time": 99, "note": 75, "velocity": 109, "channel": 0}, {"type": "note_on", "time": 45, "note": 70, "velocity": 105, "channel": 0}, {"type": "note_off", "time": 91, "note": 70, "velocity": 105, "channel": 0}, {"type": "note_on", "time": 83, "note": 68, "velocity": 106, "channel": 0}, {"type": "note_off", "time": 83, "note": 68, "velocity": 106, "channel": 0}, {"type": "note_on", "time": 127, "note": 75, "velocity": 109, "channel": 0}, {"type": "note_off", "time": 83, "note": 75, "velocity": 109, "channel": 0}, {"type": "note_on", "time": 96, "note": 72, "velocity": 110, "channel": 0}, {"type": "note_off", "time": 59, "note": 72, "velocity": 110, "channel": 0}, {"type": "note_on", "time": 18, "note": 73, "velocity": 111, "channel": 0}, {"type": "note_off", "time": 97, "note": 73, "velocity": 111, "channel": 0}, {"type": "note_on", "time": 59, "note": 64, "velocity": 105, "channel": 0}, {"type": "note_off", "time": 96, "note": 64, "velocity": 105, "channel": 0}, {"type": "note_on", "time": 357, "note": 66, "velocity": 100, "channel": 0}, {"type": "note_off", "time": 58, "note": 66, "velocity": 100, "channel": 0}, {"type": "note_on", "time": 34, "note": 64, "velocity": 98, "channel": 0}, {"type": "note_off", "time": 88, "note": 64, "velocity": 98, "channel": 0}, {"type": "note_on", "time": 28, "note": 63, "velocity": 86, "channel": 0}, {"type": "note_off", "time": 56, "note": 63, "velocity": 86, "channel": 0}, {"type": "note_on", "time": 40, "note": 66, "velocity": 83, "channel": 0}, {"type": "note_off", "time": 42, "note": 66, "velocity": 83, "channel": 0}, {"type": "note_on", "time": 18, "note": 68, "velocity": 98, "channel": 0}, {"type": "note_off", "time": 64, "note": 68, "velocity": 98, "channel": 0}, {"type": "note_on", "time": 45, "note": 70, "velocity": 95, "channel": 0}, {"type": "note_off", "time": 66, "note": 70, "velocity": 95, "channel": 0}, {"type": "note_on", "time": 48, "note": 73, "velocity": 94, "channel": 0}, {"type": "note_off", "time": 75, "note": 73, "velocity": 94, "channel": 0}, {"type": "note_on", "time": 22, "note": 72, "velocity": 101, "channel": 0}, {"type": "note_off", "time": 40, "note": 72, "velocity": 101, "channel": 0}, {"type": "note_on", "time": 18, "note": 71, "velocity": 93, "channel": 0}, {"type": "note_off", "time": 59, "note": 71, "velocity": 93, "channel": 0}, {"type": "note_on", "time": 75, "note": 73, "velocity": 100, "channel": 0}, {"type": "note_off", "time": 45, "note": 73, "velocity": 100, "channel": 0}, {"type": "note_on", "time": 36, "note": 74, "velocity": 105, "channel": 0}, {"type": "note_off", "time": 73, "note": 74, "velocity": 105, "channel": 0}, {"type": "note_on", "time": 48, "note": 76, "velocity": 106, "channel": 0}, {"type": "note_off", "time": 64, "note": 76, "velocity": 106, "channel": 0}, {"type": "note_on", "time": 7, "note": 78, "velocity": 102, "channel": 0}, {"type": "note_off", "time": 85, "note": 78, "velocity": 102, "channel": 0}, {"type": "note_on", "time": 33, "note": 74, "velocity": 107, "channel": 0}, {"type": "note_off", "time": 83, "note": 74, "velocity": 107, "channel": 0}, {"type": "note_on", "time": 59, "note": 77, "velocity": 107, "channel": 0}, {"type": "note_off", "time": 134, "note": 77, "velocity": 107, "channel": 0}, {"type": "note_on", "time": 13, "note": 75, "velocity": 95, "channel": 0}, {"type": "note_off", "time": 70, "note": 75, "velocity": 95, "channel": 0}, {"type": "note_on", "time": 15, "note": 70, "velocity": 96, "channel": 0}, {"type": "note_off", "time": 67, "note": 70, "velocity": 96, "channel": 0}, {"type": "note_on", "time": 34, "note": 66, "velocity": 95, "channel": 0}, {"type": "note_off", "time": 66, "note": 66, "velocity": 95, "channel": 0}, {"type": "note_on", "time": 27, "note": 63, "velocity": 95, "channel": 0}, {"type": "note_off", "time": 51, "note": 63, "velocity": 95, "channel": 0}, {"type": "note_on", "time": 26, "note": 60, "velocity": 90, "channel": 0}, {"type": "note_off", "time": 83, "note": 60, "velocity": 90, "channel": 0}, {"type": "note_on", "time": 1, "note": 58, "velocity": 80, "channel": 0}, {"type": "note_off", "time": 44, "note": 58, "velocity": 80, "channel": 0}, {"type": "note_on", "time": 103, "note": 68, "velocity": 102, "channel": 0}, {"type": "note_off", "time": 92, "note": 68, "velocity": 102, "channel": 0}, {"type": "note_on", "time": 19, "note": 69, "velocity": 91, "channel": 0}, {"type": "note_off", "time": 250, "note": 69, "velocity": 91, "channel": 0}, {"type": "note_on", "time": 43, "note": 68, "velocity": 100, "channel": 0}, {"type": "note_off", "time": 58, "note": 68, "velocity": 100, "channel": 0}, {"type": "note_on", "time": 24, "note": 66, "velocity": 97, "channel": 0}, {"type": "note_off", "time": 53, "note": 66, "velocity": 97, "channel": 0}, {"type": "note_on", "time": 41, "note": 62, "velocity": 96, "channel": 0}, {"type": "note_off", "time": 67, "note": 62, "velocity": 96, "channel": 0}, {"type": "note_on", "time": 57, "note": 58, "velocity": 92, "channel": 0}, {"type": "note_off", "time": 50, "note": 58, "velocity": 92, "channel": 0}, {"type": "note_on", "time": 35, "note": 62, "velocity": 98, "channel": 0}, {"type": "note_off", "time": 59, "note": 62, "velocity": 98, "channel": 0}, {"type": "note_on", "time": 24, "note": 63, "velocity": 94, "channel": 0}, {"type": "note_off", "time": 71, "note": 63, "velocity": 94, "channel": 0}, {"type": "note_on", "time": 22, "note": 67, "velocity": 98, "channel": 0}, {"type": "note_off", "time": 86, "note": 67, "velocity": 98, "channel": 0}, {"type": "note_on", "time": 41, "note": 63, "velocity": 84, "channel": 0}, {"type": "note_off", "time": 39, "note": 63, "velocity": 84, "channel": 0}, {"type": "note_on", "time": 23, "note": 65, "velocity": 92, "channel": 0}, {"type": "note_off", "time": 111, "note": 65, "velocity": 92, "channel": 0}, {"type": "note_on", "time": 17, "note": 70, "velocity": 104, "channel": 0}, {"type": "note_off", "time": 76, "note": 70, "velocity": 104, "channel": 0}, {"type": "note_on", "time": 698, "note": 69, "velocity": 110, "channel": 0}, {"type": "note_off", "time": 50, "note": 69, "velocity": 110, "channel": 0}, {"type": "note_on", "time": 12, "note": 70, "velocity": 98, "channel": 0}, {"type": "note_off", "time": 73, "note": 70, "velocity": 98, "channel": 0}, {"type": "note_on", "time": 22, "note": 68, "velocity": 100, "channel": 0}, {"type": "note_off", "time": 79, "note": 68, "velocity": 100, "channel": 0}, {"type": "note_on", "time": 21, "note": 65, "velocity": 100, "channel": 0}, {"type": "note_off", "time": 71, "note": 65, "velocity": 100, "channel": 0}, {"type": "note_on", "time": 16, "note": 66, "velocity": 97, "channel": 0}, {"type": "note_off", "time": 68, "note": 66, "velocity": 97, "channel": 0}, {"type": "note_on", "time": 38, "note": 63, "velocity": 95, "channel": 0}, {"type": "note_off", "time": 71, "note": 63, "velocity": 95, "channel": 0}, {"type": "note_on", "time": 31, "note": 65, "velocity": 108, "channel": 0}, {"type": "note_off", "time": 73, "note": 65, "velocity": 108, "channel": 0}, {"type": "note_on", "time": 14, "note": 63, "velocity": 98, "channel": 0}, {"type": "note_off", "time": 68, "note": 63, "velocity": 98, "channel": 0}, {"type": "note_on", "time": 21, "note": 65, "velocity": 108, "channel": 0}, {"type": "note_off", "time": 68, "note": 65, "velocity": 108, "channel": 0}, {"type": "note_on", "time": 19, "note": 66, "velocity": 100, "channel": 0}, {"type": "note_off", "time": 80, "note": 66, "velocity": 100, "channel": 0}, {"type": "note_on", "time": 42, "note": 68, "velocity": 107, "channel": 0}, {"type": "note_off", "time": 80, "note": 68, "velocity": 107, "channel": 0}, {"type": "note_on", "time": 15, "note": 69, "velocity": 107, "channel": 0}, {"type": "note_off", "time": 80, "note": 69, "velocity": 107, "channel": 0}, {"type": "note_on", "time": 14, "note": 67, "velocity": 95, "channel": 0}, {"type": "note_off", "time": 78, "note": 67, "velocity": 95, "channel": 0}, {"type": "note_on", "time": 8, "note": 68, "velocity": 101, "channel": 0}, {"type": "note_off", "time": 88, "note": 68, "velocity": 101, "channel": 0}, {"type": "note_on", "time": 34, "note": 64, "velocity": 106, "channel": 0}, {"type": "note_off", "time": 70, "note": 64, "velocity": 106, "channel": 0}, {"type": "note_on", "time": 17, "note": 63, "velocity": 102, "channel": 0}, {"type": "note_off", "time": 89, "note": 63, "velocity": 102, "channel": 0}, {"type": "note_on", "time": 18, "note": 61, "velocity": 98, "channel": 0}, {"type": "note_off", "time": 59, "note": 61, "velocity": 98, "channel": 0}, {"type": "note_on", "time": 28, "note": 66, "velocity": 106, "channel": 0}, {"type": "note_off", "time": 55, "note": 66, "velocity": 106, "channel": 0}, {"type": "note_on", "time": 38, "note": 64, "velocity": 107, "channel": 0}, {"type": "note_off", "time": 61, "note": 64, "velocity": 107, "channel": 0}, {"type": "note_on", "time": 54, "note": 61, "velocity": 93, "channel": 0}, {"type": "note_off", "time": 50, "note": 61, "velocity": 93, "channel": 0}, {"type": "note_on", "time": 39, "note": 62, "velocity": 100, "channel": 0}, {"type": "note_off", "time": 38, "note": 62, "velocity": 100, "channel": 0}, {"type": "note_on", "time": 26, "note": 63, "velocity": 100, "channel": 0}, {"type": "note_off", "time": 69, "note": 63, "velocity": 100, "channel": 0}, {"type": "note_on", "time": 55, "note": 66, "velocity": 100, "channel": 0}, {"type": "note_off", "time": 70, "note": 66, "velocity": 100, "channel": 0}, {"type": "note_on", "time": 33, "note": 68, "velocity": 98, "channel": 0}, {"type": "note_off", "time": 64, "note": 68, "velocity": 98, "channel": 0}, {"type": "note_on", "time": 26, "note": 70, "velocity": 109, "channel": 0}, {"type": "note_off", "time": 68, "note": 70, "velocity": 109, "channel": 0}, {"type": "note_on", "time": 20, "note": 73, "velocity": 104, "channel": 0}, {"type": "note_off", "time": 80, "note": 73, "velocity": 104, "channel": 0}, {"type": "note_on", "time": 8, "note": 72, "velocity": 109, "channel": 0}, {"type": "note_off", "time": 69, "note": 72, "velocity": 109, "channel": 0}, {"type": "note_on", "time": 11, "note": 71, "velocity": 103, "channel": 0}, {"type": "note_off", "time": 85, "note": 71, "velocity": 103, "channel": 0}, {"type": "note_on", "time": 13, "note": 73, "velocity": 105, "channel": 0}, {"type": "note_off", "time": 63, "note": 73, "velocity": 105, "channel": 0}, {"type": "note_on", "time": 12, "note": 74, "velocity": 106, "channel": 0}, {"type": "note_off", "time": 89, "note": 74, "velocity": 106, "channel": 0}, {"type": "note_on", "time": 24, "note": 76, "velocity": 109, "channel": 0}, {"type": "note_off", "time": 85, "note": 76, "velocity": 109, "channel": 0}, {"type": "note_on", "time": 16, "note": 78, "velocity": 106, "channel": 0}, {"type": "note_off", "time": 71, "note": 78, "velocity": 106, "channel": 0}, {"type": "note_on", "time": 25, "note": 74, "velocity": 110, "channel": 0}, {"type": "note_off", "time": 70, "note": 74, "velocity": 110, "channel": 0}, {"type": "note_on", "time": 12, "note": 73, "velocity": 102, "channel": 0}, {"type": "note_off", "time": 66, "note": 73, "velocity": 102, "channel": 0}, {"type": "note_on", "time": 43, "note": 71, "velocity": 93, "channel": 0}, {"type": "note_off", "time": 68, "note": 71, "velocity": 93, "channel": 0}, {"type": "note_on", "time": 29, "note": 68, "velocity": 87, "channel": 0}, {"type": "note_off", "time": 54, "note": 68, "velocity": 87, "channel": 0}, {"type": "note_on", "time": 19, "note": 69, "velocity": 99, "channel": 0}, {"type": "note_off", "time": 53, "note": 69, "velocity": 99, "channel": 0}, {"type": "note_on", "time": 49, "note": 72, "velocity": 98, "channel": 0}, {"type": "note_off", "time": 79, "note": 72, "velocity": 98, "channel": 0}, {"type": "note_on", "time": 23, "note": 69, "velocity": 89, "channel": 0}, {"type": "note_off", "time": 64, "note": 69, "velocity": 89, "channel": 0}, {"type": "note_on", "time": 15, "note": 70, "velocity": 92, "channel": 0}, {"type": "note_off", "time": 94, "note": 70, "velocity": 92, "channel": 0}, {"type": "note_on", "time": 21, "note": 68, "velocity": 102, "channel": 0}, {"type": "note_off", "time": 78, "note": 68, "velocity": 102, "channel": 0}, {"type": "note_on", "time": 24, "note": 65, "velocity": 82, "channel": 0}, {"type": "note_off", "time": 72, "note": 65, "velocity": 82, "channel": 0}, {"type": "note_on", "time": 16, "note": 66, "velocity": 98, "channel": 0}, {"type": "note_off", "time": 72, "note": 66, "velocity": 98, "channel": 0}, {"type": "note_on", "time": 15, "note": 67, "velocity": 93, "channel": 0}, {"type": "note_off", "time": 76, "note": 67, "velocity": 93, "channel": 0}, {"type": "note_on", "time": 219, "note": 63, "velocity": 99, "channel": 0}, {"type": "note_off", "time": 66, "note": 63, "velocity": 99, "channel": 0}, {"type": "note_on", "time": 23, "note": 65, "velocity": 99, "channel": 0}, {"type": "note_off", "time": 77, "note": 65, "velocity": 99, "channel": 0}, {"type": "note_on", "time": 33, "note": 62, "velocity": 97, "channel": 0}, {"type": "note_off", "time": 53, "note": 62, "velocity": 97, "channel": 0}, {"type": "note_on", "time": 145, "note": 65, "velocity": 101, "channel": 0}, {"type": "note_off", "time": 54, "note": 65, "velocity": 101, "channel": 0}, {"type": "note_on", "time": 27, "note": 67, "velocity": 95, "channel": 0}, {"type": "note_off", "time": 66, "note": 67, "velocity": 95, "channel": 0}, {"type": "note_on", "time": 16, "note": 68, "velocity": 91, "channel": 0}, {"type": "note_off", "time": 77, "note": 68, "velocity": 91, "channel": 0}, {"type": "note_on", "time": 24, "note": 70, "velocity": 97, "channel": 0}, {"type": "note_off", "time": 54, "note": 70, "velocity": 97, "channel": 0}, {"type": "note_on", "time": 23, "note": 72, "velocity": 94, "channel": 0}, {"type": "note_off", "time": 85, "note": 72, "velocity": 94, "channel": 0}, {"type": "note_on", "time": 4, "note": 74, "velocity": 96, "channel": 0}, {"type": "note_off", "time": 71, "note": 74, "velocity": 96, "channel": 0}, {"type": "note_on", "time": 12, "note": 75, "velocity": 100, "channel": 0}, {"type": "note_off", "time": 45, "note": 75, "velocity": 100, "channel": 0}, {"type": "note_on", "time": 6, "note": 76, "velocity": 103, "channel": 0}, {"type": "note_off", "time": 51, "note": 76, "velocity": 103, "channel": 0}, {"type": "note_on", "time": 13, "note": 78, "velocity": 95, "channel": 0}, {"type": "note_off", "time": 81, "note": 78, "velocity": 95, "channel": 0}, {"type": "note_on", "time": 25, "note": 70, "velocity": 102, "channel": 0}, {"type": "note_off", "time": 97, "note": 70, "velocity": 102, "channel": 0}, {"type": "note_on", "time": 690, "note": 83, "velocity": 120, "channel": 0}, {"type": "note_off", "time": 38, "note": 83, "velocity": 120, "channel": 0}, {"type": "note_on", "time": 15, "note": 83, "velocity": 87, "channel": 0}, {"type": "note_off", "time": 61, "note": 83, "velocity": 87, "channel": 0}, {"type": "note_on", "time": 86, "note": 84, "velocity": 96, "channel": 0}, {"type": "note_off", "time": 80, "note": 84, "velocity": 96, "channel": 0}, {"type": "note_on", "time": 57, "note": 80, "velocity": 106, "channel": 0}, {"type": "note_off", "time": 98, "note": 80, "velocity": 106, "channel": 0}, {"type": "note_on", "time": 8, "note": 79, "velocity": 119, "channel": 0}, {"type": "note_off", "time": 80, "note": 79, "velocity": 119, "channel": 0}, {"type": "note_on", "time": 12, "note": 77, "velocity": 120, "channel": 0}, {"type": "note_off", "time": 86, "note": 77, "velocity": 120, "channel": 0}, {"type": "note_on", "time": 7, "note": 75, "velocity": 112, "channel": 0}, {"type": "note_off", "time": 95, "note": 75, "velocity": 112, "channel": 0}, {"type": "note_on", "time": 13, "note": 74, "velocity": 115, "channel": 0}, {"type": "note_off", "time": 70, "note": 74, "velocity": 115, "channel": 0}, {"type": "note_on", "time": 14, "note": 73, "velocity": 109, "channel": 0}, {"type": "note_off", "time": 66, "note": 73, "velocity": 109, "channel": 0}, {"type": "note_on", "time": 15, "note": 77, "velocity": 98, "channel": 0}, {"type": "note_off", "time": 58, "note": 77, "velocity": 98, "channel": 0}, {"type": "note_on", "time": 26, "note": 72, "velocity": 102, "channel": 0}, {"type": "note_off", "time": 91, "note": 72, "velocity": 102, "channel": 0}, {"type": "note_on", "time": 1, "note": 71, "velocity": 102, "channel": 0}, {"type": "note_off", "time": 79, "note": 71, "velocity": 102, "channel": 0}, {"type": "note_on", "time": 11, "note": 70, "velocity": 103, "channel": 0}, {"type": "note_off", "time": 105, "note": 70, "velocity": 103, "channel": 0}, {"type": "note_on", "time": 17, "note": 71, "velocity": 97, "channel": 0}, {"type": "note_off", "time": 39, "note": 71, "velocity": 97, "channel": 0}, {"type": "note_on", "time": 26, "note": 67, "velocity": 95, "channel": 0}, {"type": "note_off", "time": 81, "note": 67, "velocity": 95, "channel": 0}, {"type": "note_on", "time": 31, "note": 65, "velocity": 107, "channel": 0}, {"type": "note_off", "time": 62, "note": 65, "velocity": 107, "channel": 0}, {"type": "note_on", "time": 16, "note": 63, "velocity": 98, "channel": 0}, {"type": "note_off", "time": 44, "note": 63, "velocity": 98, "channel": 0}, {"type": "note_on", "time": 12, "note": 65, "velocity": 95, "channel": 0}, {"type": "note_off", "time": 39, "note": 65, "velocity": 95, "channel": 0}, {"type": "note_on", "time": 12, "note": 63, "velocity": 93, "channel": 0}, {"type": "note_off", "time": 69, "note": 63, "velocity": 93, "channel": 0}, {"type": "note_on", "time": 168, "note": 63, "velocity": 97, "channel": 0}, {"type": "note_off", "time": 26, "note": 63, "velocity": 97, "channel": 0}, {"type": "note_on", "time": 14, "note": 68, "velocity": 106, "channel": 0}, {"type": "note_off", "time": 94, "note": 68, "velocity": 106, "channel": 0}, {"type": "note_on", "time": 36, "note": 63, "velocity": 99, "channel": 0}, {"type": "note_off", "time": 156, "note": 63, "velocity": 99, "channel": 0}, {"type": "note_on", "time": 954, "note": 82, "velocity": 108, "channel": 0}, {"type": "note_off", "time": 27, "note": 82, "velocity": 108, "channel": 0}, {"type": "note_on", "time": 5, "note": 81, "velocity": 115, "channel": 0}, {"type": "note_off", "time": 26, "note": 81, "velocity": 115, "channel": 0}, {"type": "note_on", "time": 16, "note": 80, "velocity": 119, "channel": 0}, {"type": "note_off", "time": 80, "note": 80, "velocity": 119, "channel": 0}, {"type": "note_on", "time": 48, "note": 75, "velocity": 108, "channel": 0}, {"type": "note_off", "time": 71, "note": 75, "velocity": 108, "channel": 0}, {"type": "note_on", "time": 23, "note": 71, "velocity": 108, "channel": 0}, {"type": "note_off", "time": 81, "note": 71, "velocity": 108, "channel": 0}, {"type": "note_on", "time": 21, "note": 68, "velocity": 109, "channel": 0}, {"type": "note_off", "time": 68, "note": 68, "velocity": 109, "channel": 0}, {"type": "note_on", "time": 5, "note": 67, "velocity": 89, "channel": 0}, {"type": "note_off", "time": 72, "note": 67, "velocity": 89, "channel": 0}, {"type": "note_on", "time": 42, "note": 63, "velocity": 90, "channel": 0}, {"type": "note_off", "time": 47, "note": 63, "velocity": 90, "channel": 0}, {"type": "note_on", "time": 16, "note": 66, "velocity": 101, "channel": 0}, {"type": "note_off", "time": 88, "note": 66, "velocity": 101, "channel": 0}, {"type": "note_on", "time": 25, "note": 63, "velocity": 95, "channel": 0}, {"type": "note_off", "time": 64, "note": 63, "velocity": 95, "channel": 0}, {"type": "note_on", "time": 10, "note": 65, "velocity": 98, "channel": 0}, {"type": "note_off", "time": 86, "note": 65, "velocity": 98, "channel": 0}, {"type": "note_on", "time": 24, "note": 68, "velocity": 107, "channel": 0}, {"type": "note_off", "time": 79, "note": 68, "velocity": 107, "channel": 0}, {"type": "note_on", "time": 24, "note": 71, "velocity": 98, "channel": 0}, {"type": "note_off", "time": 58, "note": 71, "velocity": 98, "channel": 0}, {"type": "note_on", "time": 43, "note": 74, "velocity": 106, "channel": 0}, {"type": "note_off", "time": 77, "note": 74, "velocity": 106, "channel": 0}, {"type": "note_on", "time": 14, "note": 71, "velocity": 89, "channel": 0}, {"type": "note_off", "time": 44, "note": 71, "velocity": 89, "channel": 0}, {"type": "note_on", "time": 6, "note": 72, "velocity": 102, "channel": 0}, {"type": "note_off", "time": 74, "note": 72, "velocity": 102, "channel": 0}, {"type": "note_on", "time": 26, "note": 73, "velocity": 110, "channel": 0}, {"type": "note_off", "time": 100, "note": 73, "velocity": 110, "channel": 0}, {"type": "note_on", "time": 16, "note": 71, "velocity": 109, "channel": 0}, {"type": "note_off", "time": 74, "note": 71, "velocity": 109, "channel": 0}, {"type": "note_on", "time": 33, "note": 68, "velocity": 95, "channel": 0}, {"type": "note_off", "time": 77, "note": 68, "velocity": 95, "channel": 0}, {"type": "note_on", "time": 20, "note": 69, "velocity": 108, "channel": 0}, {"type": "note_off", "time": 66, "note": 69, "velocity": 108, "channel": 0}, {"type": "note_on", "time": 7, "note": 70, "velocity": 103, "channel": 0}, {"type": "note_off", "time": 97, "note": 70, "velocity": 103, "channel": 0}, {"type": "note_on", "time": 482, "note": 66, "velocity": 108, "channel": 0}, {"type": "note_off", "time": 70, "note": 66, "velocity": 108, "channel": 0}, {"type": "note_on", "time": 43, "note": 64, "velocity": 100, "channel": 0}, {"type": "note_off", "time": 49, "note": 64, "velocity": 100, "channel": 0}, {"type": "note_on", "time": 14, "note": 65, "velocity": 108, "channel": 0}, {"type": "note_off", "time": 77, "note": 65, "velocity": 108, "channel": 0}, {"type": "note_on", "time": 36, "note": 63, "velocity": 102, "channel": 0}, {"type": "note_off", "time": 68, "note": 63, "velocity": 102, "channel": 0}, {"type": "note_on", "time": 13, "note": 62, "velocity": 93, "channel": 0}, {"type": "note_off", "time": 58, "note": 62, "velocity": 93, "channel": 0}, {"type": "note_on", "time": 43, "note": 65, "velocity": 108, "channel": 0}, {"type": "note_off", "time": 60, "note": 65, "velocity": 108, "channel": 0}, {"type": "note_on", "time": 21, "note": 63, "velocity": 92, "channel": 0}, {"type": "note_off", "time": 86, "note": 63, "velocity": 92, "channel": 0}, {"type": "note_on", "time": 23, "note": 61, "velocity": 99, "channel": 0}, {"type": "note_off", "time": 76, "note": 61, "velocity": 99, "channel": 0}, {"type": "note_on", "time": 19, "note": 63, "velocity": 98, "channel": 0}, {"type": "note_off", "time": 73, "note": 63, "velocity": 98, "channel": 0}, {"type": "note_on", "time": 21, "note": 65, "velocity": 108, "channel": 0}, {"type": "note_off", "time": 72, "note": 65, "velocity": 108, "channel": 0}, {"type": "note_on", "time": 15, "note": 66, "velocity": 97, "channel": 0}, {"type": "note_off", "time": 89, "note": 66, "velocity": 97, "channel": 0}, {"type": "note_on", "time": 11, "note": 68, "velocity": 105, "channel": 0}, {"type": "note_off", "time": 61, "note": 68, "velocity": 105, "channel": 0}, {"type": "note_on", "time": 11, "note": 69, "velocity": 108, "channel": 0}, {"type": "note_off", "time": 79, "note": 69, "velocity": 108, "channel": 0}, {"type": "note_on", "time": 27, "note": 67, "velocity": 98, "channel": 0}, {"type": "note_off", "time": 90, "note": 67, "velocity": 98, "channel": 0}, {"type": "note_on", "time": 8, "note": 68, "velocity": 104, "channel": 0}, {"type": "note_off", "time": 73, "note": 68, "velocity": 104, "channel": 0}, {"type": "note_on", "time": 33, "note": 64, "velocity": 109, "channel": 0}, {"type": "note_off", "time": 59, "note": 64, "velocity": 109, "channel": 0}, {"type": "note_on", "time": 14, "note": 63, "velocity": 91, "channel": 0}, {"type": "note_off", "time": 89, "note": 63, "velocity": 91, "channel": 0}, {"type": "note_on", "time": 4, "note": 61, "velocity": 91, "channel": 0}, {"type": "note_off", "time": 83, "note": 61, "velocity": 91, "channel": 0}, {"type": "note_on", "time": 29, "note": 66, "velocity": 103, "channel": 0}, {"type": "note_off", "time": 68, "note": 66, "velocity": 103, "channel": 0}, {"type": "note_on", "time": 24, "note": 64, "velocity": 105, "channel": 0}, {"type": "note_off", "time": 69, "note": 64, "velocity": 105, "channel": 0}, {"type": "note_on", "time": 25, "note": 61, "velocity": 94, "channel": 0}, {"type": "note_off", "time": 83, "note": 61, "velocity": 94, "channel": 0}, {"type": "note_on", "time": 51, "note": 63, "velocity": 89, "channel": 0}, {"type": "note_off", "time": 48, "note": 63, "velocity": 89, "channel": 0}, {"type": "note_on", "time": 8, "note": 64, "velocity": 91, "channel": 0}, {"type": "note_off", "time": 52, "note": 64, "velocity": 91, "channel": 0}, {"type": "note_on", "time": 42, "note": 66, "velocity": 86, "channel": 0}, {"type": "note_off", "time": 48, "note": 66, "velocity": 86, "channel": 0}, {"type": "note_on", "time": 26, "note": 68, "velocity": 99, "channel": 0}, {"type": "note_off", "time": 109, "note": 68, "velocity": 99, "channel": 0}, {"type": "note_on", "time": 12, "note": 70, "velocity": 88, "channel": 0}, {"type": "note_off", "time": 83, "note": 70, "velocity": 88, "channel": 0}, {"type": "note_on", "time": 13, "note": 73, "velocity": 108, "channel": 0}, {"type": "note_off", "time": 89, "note": 73, "velocity": 108, "channel": 0}, {"type": "note_on", "time": 16, "note": 72, "velocity": 111, "channel": 0}, {"type": "note_off", "time": 45, "note": 72, "velocity": 111, "channel": 0}, {"type": "note_on", "time": 13, "note": 71, "velocity": 96, "channel": 0}, {"type": "note_off", "time": 96, "note": 71, "velocity": 96, "channel": 0}, {"type": "note_on", "time": 5, "note": 73, "velocity": 104, "channel": 0}, {"type": "note_off", "time": 66, "note": 73, "velocity": 104, "channel": 0}, {"type": "note_on", "time": 27, "note": 74, "velocity": 108, "channel": 0}, {"type": "note_off", "time": 86, "note": 74, "velocity": 108, "channel": 0}, {"type": "note_on", "time": 5, "note": 76, "velocity": 111, "channel": 0}, {"type": "note_off", "time": 85, "note": 76, "velocity": 111, "channel": 0}, {"type": "note_on", "time": 11, "note": 78, "velocity": 108, "channel": 0}, {"type": "note_off", "time": 73, "note": 78, "velocity": 108, "channel": 0}, {"type": "note_on", "time": 39, "note": 74, "velocity": 112, "channel": 0}, {"type": "note_off", "time": 49, "note": 74, "velocity": 112, "channel": 0}, {"type": "note_on", "time": 22, "note": 73, "velocity": 103, "channel": 0}, {"type": "note_off", "time": 78, "note": 73, "velocity": 103, "channel": 0}, {"type": "note_on", "time": 19, "note": 71, "velocity": 99, "channel": 0}, {"type": "note_off", "time": 60, "note": 71, "velocity": 99, "channel": 0}, {"type": "note_on", "time": 40, "note": 68, "velocity": 96, "channel": 0}, {"type": "note_off", "time": 55, "note": 68, "velocity": 96, "channel": 0}, {"type": "note_on", "time": 22, "note": 69, "velocity": 96, "channel": 0}, {"type": "note_off", "time": 82, "note": 69, "velocity": 96, "channel": 0}, {"type": "note_on", "time": 23, "note": 72, "velocity": 101, "channel": 0}, {"type": "note_off", "time": 79, "note": 72, "velocity": 101, "channel": 0}, {"type": "note_on", "time": 22, "note": 69, "velocity": 96, "channel": 0}, {"type": "note_off", "time": 54, "note": 69, "velocity": 96, "channel": 0}, {"type": "note_on", "time": 24, "note": 70, "velocity": 97, "channel": 0}, {"type": "note_off", "time": 57, "note": 70, "velocity": 97, "channel": 0}, {"type": "note_on", "time": 45, "note": 72, "velocity": 103, "channel": 0}, {"type": "note_off", "time": 76, "note": 72, "velocity": 103, "channel": 0}, {"type": "note_on", "time": 13, "note": 73, "velocity": 102, "channel": 0}, {"type": "note_off", "time": 55, "note": 73, "velocity": 102, "channel": 0}, {"type": "note_on", "time": 23, "note": 74, "velocity": 98, "channel": 0}, {"type": "note_off", "time": 90, "note": 74, "velocity": 98, "channel": 0}, {"type": "note_on", "time": 20, "note": 77, "velocity": 102, "channel": 0}, {"type": "note_off", "time": 86, "note": 77, "velocity": 102, "channel": 0}, {"type": "note_on", "time": 14, "note": 74, "velocity": 105, "channel": 0}, {"type": "note_off", "time": 73, "note": 74, "velocity": 105, "channel": 0}, {"type": "note_on", "time": 4, "note": 75, "velocity": 101, "channel": 0}, {"type": "note_off", "time": 89, "note": 75, "velocity": 101, "channel": 0}, {"type": "note_on", "time": 17, "note": 72, "velocity": 100, "channel": 0}, {"type": "note_off", "time": 76, "note": 72, "velocity": 100, "channel": 0}, {"type": "note_on", "time": 60, "note": 67, "velocity": 93, "channel": 0}, {"type": "note_off", "time": 59, "note": 67, "velocity": 93, "channel": 0}, {"type": "note_on", "time": 8, "note": 65, "velocity": 92, "channel": 0}, {"type": "note_off", "time": 62, "note": 65, "velocity": 92, "channel": 0}, {"type": "note_on", "time": 0, "note": 70, "velocity": 97, "channel": 0}, {"type": "note_off", "time": 109, "note": 70, "velocity": 97, "channel": 0}, {"type": "note_on", "time": 710, "note": 81, "velocity": 125, "channel": 0}, {"type": "note_off", "time": 86, "note": 81, "velocity": 125, "channel": 0}, {"type": "note_on", "time": 11, "note": 82, "velocity": 120, "channel": 0}, {"type": "note_off", "time": 253, "note": 82, "velocity": 120, "channel": 0}, {"type": "note_on", "time": 9, "note": 81, "velocity": 108, "channel": 0}, {"type": "note_off", "time": 77, "note": 81, "velocity": 108, "channel": 0}, {"type": "note_on", "time": 7, "note": 82, "velocity": 115, "channel": 0}, {"type": "note_off", "time": 308, "note": 82, "velocity": 115, "channel": 0}, {"type": "note_on", "time": 11, "note": 81, "velocity": 107, "channel": 0}, {"type": "note_off", "time": 81, "note": 81, "velocity": 107, "channel": 0}, {"type": "note_on", "time": 9, "note": 82, "velocity": 118, "channel": 0}, {"type": "note_off", "time": 248, "note": 82, "velocity": 118, "channel": 0}, {"type": "note_on", "time": 25, "note": 81, "velocity": 110, "channel": 0}, {"type": "note_off", "time": 77, "note": 81, "velocity": 110, "channel": 0}, {"type": "note_on", "time": 6, "note": 82, "velocity": 114, "channel": 0}, {"type": "note_off", "time": 149, "note": 82, "velocity": 114, "channel": 0}, {"type": "note_on", "time": 16, "note": 80, "velocity": 81, "channel": 0}, {"type": "note_off", "time": 26, "note": 80, "velocity": 81, "channel": 0}, {"type": "note_on", "time": 8, "note": 79, "velocity": 96, "channel": 0}, {"type": "note_off", "time": 25, "note": 79, "velocity": 96, "channel": 0}, {"type": "note_on", "time": 5, "note": 78, "velocity": 111, "channel": 0}, {"type": "note_off", "time": 61, "note": 78, "velocity": 111, "channel": 0}, {"type": "note_on", "time": 20, "note": 74, "velocity": 116, "channel": 0}, {"type": "note_off", "time": 163, "note": 74, "velocity": 116, "channel": 0}, {"type": "note_on", "time": 10, "note": 75, "velocity": 107, "channel": 0}, {"type": "note_off", "time": 96, "note": 75, "velocity": 107, "channel": 0}, {"type": "note_on", "time": 107, "note": 79, "velocity": 109, "channel": 0}, {"type": "note_off", "time": 59, "note": 79, "velocity": 109, "channel": 0}, {"type": "note_on", "time": 3, "note": 80, "velocity": 119, "channel": 0}, {"type": "note_off", "time": 157, "note": 80, "velocity": 119, "channel": 0}, {"type": "note_on", "time": 17, "note": 78, "velocity": 105, "channel": 0}, {"type": "note_off", "time": 40, "note": 78, "velocity": 105, "channel": 0}, {"type": "note_on", "time": 14, "note": 75, "velocity": 102, "channel": 0}, {"type": "note_off", "time": 30, "note": 75, "velocity": 102, "channel": 0}, {"type": "note_on", "time": 32, "note": 73, "velocity": 105, "channel": 0}, {"type": "note_off", "time": 41, "note": 73, "velocity": 105, "channel": 0}, {"type": "note_on", "time": 21, "note": 72, "velocity": 106, "channel": 0}, {"type": "note_off", "time": 162, "note": 72, "velocity": 106, "channel": 0}, {"type": "note_on", "time": 11, "note": 73, "velocity": 102, "channel": 0}, {"type": "note_off", "time": 77, "note": 73, "velocity": 102, "channel": 0}, {"type": "note_on", "time": 138, "note": 78, "velocity": 112, "channel": 0}, {"type": "note_off", "time": 228, "note": 78, "velocity": 112, "channel": 0}, {"type": "note_on", "time": 13, "note": 73, "velocity": 93, "channel": 0}, {"type": "note_off", "time": 31, "note": 73, "velocity": 93, "channel": 0}, {"type": "note_on", "time": 10, "note": 71, "velocity": 88, "channel": 0}, {"type": "note_off", "time": 35, "note": 71, "velocity": 88, "channel": 0}, {"type": "note_on", "time": 21, "note": 70, "velocity": 97, "channel": 0}, {"type": "note_off", "time": 191, "note": 70, "velocity": 97, "channel": 0}, {"type": "note_on", "time": 20, "note": 71, "velocity": 100, "channel": 0}, {"type": "note_off", "time": 54, "note": 71, "velocity": 100, "channel": 0}, {"type": "note_on", "time": 167, "note": 78, "velocity": 105, "channel": 0}, {"type": "note_off", "time": 132, "note": 78, "velocity": 105, "channel": 0}, {"type": "note_on", "time": 58, "note": 75, "velocity": 105, "channel": 0}, {"type": "note_off", "time": 25, "note": 75, "velocity": 105, "channel": 0}, {"type": "note_on", "time": 32, "note": 73, "velocity": 100, "channel": 0}, {"type": "note_off", "time": 17, "note": 73, "velocity": 100, "channel": 0}, {"type": "note_on", "time": 21, "note": 71, "velocity": 92, "channel": 0}, {"type": "note_off", "time": 50, "note": 71, "velocity": 92, "channel": 0}, {"type": "note_on", "time": 24, "note": 70, "velocity": 93, "channel": 0}, {"type": "note_off", "time": 167, "note": 70, "velocity": 93, "channel": 0}, {"type": "note_on", "time": 11, "note": 71, "velocity": 89, "channel": 0}, {"type": "note_off", "time": 72, "note": 71, "velocity": 89, "channel": 0}, {"type": "note_on", "time": 1013, "note": 70, "velocity": 94, "channel": 0}, {"type": "note_off", "time": 67, "note": 70, "velocity": 94, "channel": 0}, {"type": "note_on", "time": 33, "note": 72, "velocity": 95, "channel": 0}, {"type": "note_off", "time": 68, "note": 72, "velocity": 95, "channel": 0}, {"type": "note_on", "time": 10, "note": 74, "velocity": 114, "channel": 0}, {"type": "note_off", "time": 76, "note": 74, "velocity": 114, "channel": 0}, {"type": "note_on", "time": 17, "note": 75, "velocity": 112, "channel": 0}, {"type": "note_off", "time": 88, "note": 75, "velocity": 112, "channel": 0}, {"type": "note_on", "time": 15, "note": 77, "velocity": 109, "channel": 0}, {"type": "note_off", "time": 81, "note": 77, "velocity": 109, "channel": 0}, {"type": "note_on", "time": 24, "note": 78, "velocity": 115, "channel": 0}, {"type": "note_off", "time": 72, "note": 78, "velocity": 115, "channel": 0}, {"type": "note_on", "time": 20, "note": 80, "velocity": 114, "channel": 0}, {"type": "note_off", "time": 92, "note": 80, "velocity": 114, "channel": 0}, {"type": "note_on", "time": 15, "note": 83, "velocity": 124, "channel": 0}, {"type": "note_off", "time": 67, "note": 83, "velocity": 124, "channel": 0}, {"type": "note_on", "time": 13, "note": 84, "velocity": 113, "channel": 0}, {"type": "note_off", "time": 79, "note": 84, "velocity": 113, "channel": 0}, {"type": "note_on", "time": 14, "note": 82, "velocity": 113, "channel": 0}, {"type": "note_off", "time": 85, "note": 82, "velocity": 113, "channel": 0}, {"type": "note_on", "time": 22, "note": 82, "velocity": 82, "channel": 0}, {"type": "note_off", "time": 62, "note": 82, "velocity": 82, "channel": 0}, {"type": "note_on", "time": 43, "note": 79, "velocity": 107, "channel": 0}, {"type": "note_off", "time": 157, "note": 79, "velocity": 107, "channel": 0}, {"type": "note_on", "time": 689, "note": 83, "velocity": 115, "channel": 0}, {"type": "note_off", "time": 59, "note": 83, "velocity": 115, "channel": 0}, {"type": "note_on", "time": 16, "note": 84, "velocity": 125, "channel": 0}, {"type": "note_off", "time": 108, "note": 84, "velocity": 125, "channel": 0}, {"type": "note_on", "time": 10, "note": 85, "velocity": 87, "channel": 0}, {"type": "note_off", "time": 74, "note": 85, "velocity": 87, "channel": 0}, {"type": "note_on", "time": 21, "note": 82, "velocity": 124, "channel": 0}, {"type": "note_off", "time": 175, "note": 82, "velocity": 124, "channel": 0}, {"type": "note_on", "time": 30, "note": 80, "velocity": 119, "channel": 0}, {"type": "note_off", "time": 69, "note": 80, "velocity": 119, "channel": 0}, {"type": "note_on", "time": 29, "note": 78, "velocity": 124, "channel": 0}, {"type": "note_off", "time": 62, "note": 78, "velocity": 124, "channel": 0}, {"type": "note_on", "time": 24, "note": 77, "velocity": 120, "channel": 0}, {"type": "note_off", "time": 68, "note": 77, "velocity": 120, "channel": 0}, {"type": "note_on", "time": 26, "note": 75, "velocity": 118, "channel": 0}, {"type": "note_off", "time": 90, "note": 75, "velocity": 118, "channel": 0}, {"type": "note_on", "time": 20, "note": 74, "velocity": 115, "channel": 0}, {"type": "note_off", "time": 97, "note": 74, "velocity": 115, "channel": 0}, {"type": "note_on", "time": 102, "note": 80, "velocity": 124, "channel": 0}, {"type": "note_off", "time": 182, "note": 80, "velocity": 124, "channel": 0}, {"type": "note_on", "time": 164, "note": 78, "velocity": 118, "channel": 0}, {"type": "note_off", "time": 90, "note": 78, "velocity": 118, "channel": 0}, {"type": "note_on", "time": 156, "note": 76, "velocity": 124, "channel": 0}, {"type": "note_off", "time": 123, "note": 76, "velocity": 124, "channel": 0}, {"type": "note_on", "time": 247, "note": 75, "velocity": 118, "channel": 0}, {"type": "note_off", "time": 73, "note": 75, "velocity": 118, "channel": 0}, {"type": "note_on", "time": 26, "note": 73, "velocity": 114, "channel": 0}, {"type": "note_off", "time": 72, "note": 73, "velocity": 114, "channel": 0}, {"type": "note_on", "time": 32, "note": 72, "velocity": 116, "channel": 0}, {"type": "note_off", "time": 240, "note": 72, "velocity": 116, "channel": 0}, {"type": "note_on", "time": 11, "note": 70, "velocity": 105, "channel": 0}, {"type": "note_off", "time": 83, "note": 70, "velocity": 105, "channel": 0}, {"type": "note_on", "time": 17, "note": 71, "velocity": 108, "channel": 0}, {"type": "note_off", "time": 59, "note": 71, "velocity": 108, "channel": 0}, {"type": "note_on", "time": 39, "note": 73, "velocity": 104, "channel": 0}, {"type": "note_off", "time": 57, "note": 73, "velocity": 104, "channel": 0}, {"type": "note_on", "time": 45, "note": 74, "velocity": 107, "channel": 0}, {"type": "note_off", "time": 54, "note": 74, "velocity": 107, "channel": 0}, {"type": "note_on", "time": 22, "note": 76, "velocity": 112, "channel": 0}, {"type": "note_off", "time": 80, "note": 76, "velocity": 112, "channel": 0}, {"type": "note_on", "time": 11, "note": 76, "velocity": 104, "channel": 0}, {"type": "note_off", "time": 66, "note": 76, "velocity": 104, "channel": 0}, {"type": "note_on", "time": 26, "note": 74, "velocity": 108, "channel": 0}, {"type": "note_off", "time": 71, "note": 74, "velocity": 108, "channel": 0}, {"type": "note_on", "time": 22, "note": 73, "velocity": 105, "channel": 0}, {"type": "note_off", "time": 77, "note": 73, "velocity": 105, "channel": 0}, {"type": "note_on", "time": 33, "note": 71, "velocity": 102, "channel": 0}, {"type": "note_off", "time": 52, "note": 71, "velocity": 102, "channel": 0}, {"type": "note_on", "time": 25, "note": 70, "velocity": 92, "channel": 0}, {"type": "note_off", "time": 81, "note": 70, "velocity": 92, "channel": 0}, {"type": "note_on", "time": 40, "note": 58, "velocity": 92, "channel": 0}, {"type": "note_off", "time": 61, "note": 58, "velocity": 92, "channel": 0}, {"type": "note_on", "time": 35, "note": 63, "velocity": 97, "channel": 0}, {"type": "note_off", "time": 62, "note": 63, "velocity": 97, "channel": 0}, {"type": "note_on", "time": 17, "note": 65, "velocity": 103, "channel": 0}, {"type": "note_off", "time": 67, "note": 65, "velocity": 103, "channel": 0}, {"type": "note_on", "time": 36, "note": 66, "velocity": 95, "channel": 0}, {"type": "note_off", "time": 70, "note": 66, "velocity": 95, "channel": 0}, {"type": "note_on", "time": 14, "note": 68, "velocity": 102, "channel": 0}, {"type": "note_off", "time": 80, "note": 68, "velocity": 102, "channel": 0}, {"type": "note_on", "time": 22, "note": 69, "velocity": 103, "channel": 0}, {"type": "note_off", "time": 63, "note": 69, "velocity": 103, "channel": 0}, {"type": "note_on", "time": 44, "note": 67, "velocity": 95, "channel": 0}, {"type": "note_off", "time": 51, "note": 67, "velocity": 95, "channel": 0}, {"type": "note_on", "time": 16, "note": 68, "velocity": 90, "channel": 0}, {"type": "note_off", "time": 94, "note": 68, "velocity": 90, "channel": 0}, {"type": "note_on", "time": 15, "note": 65, "velocity": 100, "channel": 0}, {"type": "note_off", "time": 64, "note": 65, "velocity": 100, "channel": 0}, {"type": "note_on", "time": 24, "note": 66, "velocity": 98, "channel": 0}, {"type": "note_off", "time": 76, "note": 66, "velocity": 98, "channel": 0}, {"type": "note_on", "time": 32, "note": 62, "velocity": 102, "channel": 0}, {"type": "note_off", "time": 51, "note": 62, "velocity": 102, "channel": 0}, {"type": "note_on", "time": 33, "note": 63, "velocity": 87, "channel": 0}, {"type": "note_off", "time": 67, "note": 63, "velocity": 87, "channel": 0}, {"type": "note_on", "time": 20, "note": 65, "velocity": 97, "channel": 0}, {"type": "note_off", "time": 63, "note": 65, "velocity": 97, "channel": 0}, {"type": "note_on", "time": 35, "note": 67, "velocity": 101, "channel": 0}, {"type": "note_off", "time": 59, "note": 67, "velocity": 101, "channel": 0}, {"type": "note_on", "time": 50, "note": 68, "velocity": 100, "channel": 0}, {"type": "note_off", "time": 63, "note": 68, "velocity": 100, "channel": 0}, {"type": "note_on", "time": 21, "note": 70, "velocity": 98, "channel": 0}, {"type": "note_off", "time": 91, "note": 70, "velocity": 98, "channel": 0}, {"type": "note_on", "time": 7, "note": 72, "velocity": 104, "channel": 0}, {"type": "note_off", "time": 69, "note": 72, "velocity": 104, "channel": 0}, {"type": "note_on", "time": 21, "note": 74, "velocity": 105, "channel": 0}, {"type": "note_off", "time": 64, "note": 74, "velocity": 105, "channel": 0}, {"type": "note_on", "time": 34, "note": 70, "velocity": 91, "channel": 0}, {"type": "note_off", "time": 59, "note": 70, "velocity": 91, "channel": 0}, {"type": "note_on", "time": 19, "note": 72, "velocity": 96, "channel": 0}, {"type": "note_off", "time": 230, "note": 72, "velocity": 96, "channel": 0}, {"type": "note_on", "time": 859, "note": 76, "velocity": 123, "channel": 0}, {"type": "note_off", "time": 53, "note": 76, "velocity": 123, "channel": 0}, {"type": "note_on", "time": 20, "note": 77, "velocity": 124, "channel": 0}, {"type": "note_off", "time": 170, "note": 77, "velocity": 124, "channel": 0}, {"type": "note_on", "time": 20, "note": 73, "velocity": 103, "channel": 0}, {"type": "note_off", "time": 44, "note": 73, "velocity": 103, "channel": 0}, {"type": "note_on", "time": 47, "note": 72, "velocity": 111, "channel": 0}, {"type": "note_off", "time": 49, "note": 72, "velocity": 111, "channel": 0}, {"type": "note_on", "time": 47, "note": 70, "velocity": 105, "channel": 0}, {"type": "note_off", "time": 95, "note": 70, "velocity": 105, "channel": 0}, {"type": "note_on", "time": 288, "note": 64, "velocity": 95, "channel": 0}, {"type": "note_off", "time": 61, "note": 64, "velocity": 95, "channel": 0}, {"type": "note_on", "time": 25, "note": 66, "velocity": 98, "channel": 0}, {"type": "note_off", "time": 70, "note": 66, "velocity": 98, "channel": 0}, {"type": "note_on", "time": 3, "note": 67, "velocity": 103, "channel": 0}, {"type": "note_off", "time": 87, "note": 67, "velocity": 103, "channel": 0}, {"type": "note_on", "time": 27, "note": 69, "velocity": 110, "channel": 0}, {"type": "note_off", "time": 55, "note": 69, "velocity": 110, "channel": 0}, {"type": "note_on", "time": 35, "note": 71, "velocity": 107, "channel": 0}, {"type": "note_off", "time": 96, "note": 71, "velocity": 107, "channel": 0}, {"type": "note_on", "time": 21, "note": 67, "velocity": 112, "channel": 0}, {"type": "note_off", "time": 88, "note": 67, "velocity": 112, "channel": 0}, {"type": "note_on", "time": 96, "note": 64, "velocity": 112, "channel": 0}, {"type": "note_off", "time": 68, "note": 64, "velocity": 112, "channel": 0}, {"type": "note_on", "time": 23, "note": 63, "velocity": 99, "channel": 0}, {"type": "note_off", "time": 180, "note": 63, "velocity": 99, "channel": 0}, {"type": "note_on", "time": 16, "note": 65, "velocity": 110, "channel": 0}, {"type": "note_off", "time": 79, "note": 65, "velocity": 110, "channel": 0}, {"type": "note_on", "time": 20, "note": 67, "velocity": 111, "channel": 0}, {"type": "note_off", "time": 70, "note": 67, "velocity": 111, "channel": 0}, {"type": "note_on", "time": 19, "note": 68, "velocity": 109, "channel": 0}, {"type": "note_off", "time": 85, "note": 68, "velocity": 109, "channel": 0}, {"type": "note_on", "time": 17, "note": 70, "velocity": 110, "channel": 0}, {"type": "note_off", "time": 54, "note": 70, "velocity": 110, "channel": 0}, {"type": "note_on", "time": 51, "note": 72, "velocity": 115, "channel": 0}, {"type": "note_off", "time": 62, "note": 72, "velocity": 115, "channel": 0}, {"type": "note_on", "time": 22, "note": 73, "velocity": 113, "channel": 0}, {"type": "note_off", "time": 58, "note": 73, "velocity": 113, "channel": 0}, {"type": "note_on", "time": 42, "note": 75, "velocity": 113, "channel": 0}, {"type": "note_off", "time": 172, "note": 75, "velocity": 113, "channel": 0}, {"type": "note_on", "time": 19, "note": 72, "velocity": 112, "channel": 0}, {"type": "note_off", "time": 90, "note": 72, "velocity": 112, "channel": 0}, {"type": "note_on", "time": 593, "note": 74, "velocity": 113, "channel": 0}, {"type": "note_off", "time": 68, "note": 74, "velocity": 113, "channel": 0}, {"type": "note_on", "time": 8, "note": 75, "velocity": 112, "channel": 0}, {"type": "note_off", "time": 155, "note": 75, "velocity": 112, "channel": 0}, {"type": "note_on", "time": 36, "note": 71, "velocity": 109, "channel": 0}, {"type": "note_off", "time": 61, "note": 71, "velocity": 109, "channel": 0}, {"type": "note_on", "time": 36, "note": 68, "velocity": 106, "channel": 0}, {"type": "note_off", "time": 73, "note": 68, "velocity": 106, "channel": 0}, {"type": "note_on", "time": 16, "note": 67, "velocity": 109, "channel": 0}, {"type": "note_off", "time": 68, "note": 67, "velocity": 109, "channel": 0}, {"type": "note_on", "time": 43, "note": 63, "velocity": 94, "channel": 0}, {"type": "note_off", "time": 49, "note": 63, "velocity": 94, "channel": 0}, {"type": "note_on", "time": 19, "note": 66, "velocity": 103, "channel": 0}, {"type": "note_off", "time": 96, "note": 66, "velocity": 103, "channel": 0}, {"type": "note_on", "time": 114, "note": 61, "velocity": 88, "channel": 0}, {"type": "note_off", "time": 55, "note": 61, "velocity": 88, "channel": 0}, {"type": "note_on", "time": 22, "note": 63, "velocity": 105, "channel": 0}, {"type": "note_off", "time": 58, "note": 63, "velocity": 105, "channel": 0}, {"type": "note_on", "time": 22, "note": 64, "velocity": 108, "channel": 0}, {"type": "note_off", "time": 44, "note": 64, "velocity": 108, "channel": 0}, {"type": "note_on", "time": 16, "note": 65, "velocity": 103, "channel": 0}, {"type": "note_off", "time": 40, "note": 65, "velocity": 103, "channel": 0}, {"type": "note_on", "time": 11, "note": 65, "velocity": 109, "channel": 0}, {"type": "note_off", "time": 27, "note": 65, "velocity": 109, "channel": 0}, {"type": "note_on", "time": 10, "note": 67, "velocity": 107, "channel": 0}, {"type": "note_off", "time": 39, "note": 67, "velocity": 107, "channel": 0}, {"type": "note_on", "time": 16, "note": 67, "velocity": 106, "channel": 0}, {"type": "note_off", "time": 76, "note": 67, "velocity": 106, "channel": 0}, {"type": "note_on", "time": 210, "note": 65, "velocity": 106, "channel": 0}, {"type": "note_off", "time": 70, "note": 65, "velocity": 106, "channel": 0}, {"type": "note_on", "time": 15, "note": 66, "velocity": 97, "channel": 0}, {"type": "note_off", "time": 85, "note": 66, "velocity": 97, "channel": 0}, {"type": "note_on", "time": 14, "note": 68, "velocity": 106, "channel": 0}, {"type": "note_off", "time": 71, "note": 68, "velocity": 106, "channel": 0}, {"type": "note_on", "time": 14, "note": 70, "velocity": 105, "channel": 0}, {"type": "note_off", "time": 82, "note": 70, "velocity": 105, "channel": 0}, {"type": "note_on", "time": 21, "note": 71, "velocity": 115, "channel": 0}, {"type": "note_off", "time": 68, "note": 71, "velocity": 115, "channel": 0}, {"type": "note_on", "time": 24, "note": 73, "velocity": 99, "channel": 0}, {"type": "note_off", "time": 72, "note": 73, "velocity": 99, "channel": 0}, {"type": "note_on", "time": 25, "note": 70, "velocity": 94, "channel": 0}, {"type": "note_off", "time": 66, "note": 70, "velocity": 94, "channel": 0}, {"type": "note_on", "time": 7, "note": 71, "velocity": 103, "channel": 0}, {"type": "note_off", "time": 100, "note": 71, "velocity": 103, "channel": 0}, {"type": "note_on", "time": 12, "note": 69, "velocity": 91, "channel": 0}, {"type": "note_off", "time": 72, "note": 69, "velocity": 91, "channel": 0}, {"type": "note_on", "time": 8, "note": 70, "velocity": 105, "channel": 0}, {"type": "note_off", "time": 85, "note": 70, "velocity": 105, "channel": 0}, {"type": "note_on", "time": 13, "note": 68, "velocity": 108, "channel": 0}, {"type": "note_off", "time": 73, "note": 68, "velocity": 108, "channel": 0}, {"type": "note_on", "time": 42, "note": 66, "velocity": 100, "channel": 0}, {"type": "note_off", "time": 45, "note": 66, "velocity": 100, "channel": 0}, {"type": "note_on", "time": 17, "note": 65, "velocity": 115, "channel": 0}, {"type": "note_off", "time": 72, "note": 65, "velocity": 115, "channel": 0}, {"type": "note_on", "time": 21, "note": 64, "velocity": 113, "channel": 0}, {"type": "note_off", "time": 72, "note": 64, "velocity": 113, "channel": 0}, {"type": "note_on", "time": 27, "note": 62, "velocity": 102, "channel": 0}, {"type": "note_off", "time": 45, "note": 62, "velocity": 102, "channel": 0}, {"type": "note_on", "time": 36, "note": 63, "velocity": 93, "channel": 0}, {"type": "note_off", "time": 72, "note": 63, "velocity": 93, "channel": 0}, {"type": "note_on", "time": 25, "note": 65, "velocity": 10, "channel": 0}, {"type": "note_off", "time": 60, "note": 65, "velocity": 10, "channel": 0}, {"type": "note_on", "time": 21, "note": 66, "velocity": 87, "channel": 0}, {"type": "note_off", "time": 92, "note": 66, "velocity": 87, "channel": 0}, {"type": "note_on", "time": 16, "note": 68, "velocity": 100, "channel": 0}, {"type": "note_off", "time": 79, "note": 68, "velocity": 100, "channel": 0}, {"type": "note_on", "time": 6, "note": 69, "velocity": 112, "channel": 0}, {"type": "note_off", "time": 86, "note": 69, "velocity": 112, "channel": 0}, {"type": "note_on", "time": 31, "note": 67, "velocity": 99, "channel": 0}, {"type": "note_off", "time": 68, "note": 67, "velocity": 99, "channel": 0}, {"type": "note_on", "time": 4, "note": 68, "velocity": 112, "channel": 0}, {"type": "note_off", "time": 70, "note": 68, "velocity": 112, "channel": 0}, {"type": "note_on", "time": 45, "note": 65, "velocity": 111, "channel": 0}, {"type": "note_off", "time": 63, "note": 65, "velocity": 111, "channel": 0}, {"type": "note_on", "time": 16, "note": 66, "velocity": 112, "channel": 0}, {"type": "note_off", "time": 63, "note": 66, "velocity": 112, "channel": 0}, {"type": "note_on", "time": 44, "note": 64, "velocity": 99, "channel": 0}, {"type": "note_off", "time": 63, "note": 64, "velocity": 99, "channel": 0}, {"type": "note_on", "time": 7, "note": 65, "velocity": 114, "channel": 0}, {"type": "note_off", "time": 89, "note": 65, "velocity": 114, "channel": 0}, {"type": "note_on", "time": 33, "note": 63, "velocity": 116, "channel": 0}, {"type": "note_off", "time": 49, "note": 63, "velocity": 116, "channel": 0}, {"type": "note_on", "time": 8, "note": 62, "velocity": 104, "channel": 0}, {"type": "note_off", "time": 88, "note": 62, "velocity": 104, "channel": 0}, {"type": "note_on", "time": 23, "note": 63, "velocity": 99, "channel": 0}, {"type": "note_off", "time": 94, "note": 63, "velocity": 99, "channel": 0}, {"type": "note_on", "time": 7, "note": 71, "velocity": 113, "channel": 0}, {"type": "note_off", "time": 66, "note": 71, "velocity": 113, "channel": 0}, {"type": "note_on", "time": 35, "note": 69, "velocity": 92, "channel": 0}, {"type": "note_off", "time": 71, "note": 69, "velocity": 92, "channel": 0}, {"type": "note_on", "time": 10, "note": 70, "velocity": 109, "channel": 0}, {"type": "note_off", "time": 81, "note": 70, "velocity": 109, "channel": 0}, {"type": "note_on", "time": 11, "note": 69, "velocity": 110, "channel": 0}, {"type": "note_off", "time": 79, "note": 69, "velocity": 110, "channel": 0}, {"type": "note_on", "time": 19, "note": 68, "velocity": 104, "channel": 0}, {"type": "note_off", "time": 66, "note": 68, "velocity": 104, "channel": 0}, {"type": "note_on", "time": 30, "note": 67, "velocity": 113, "channel": 0}, {"type": "note_off", "time": 67, "note": 67, "velocity": 113, "channel": 0}, {"type": "note_on", "time": 16, "note": 66, "velocity": 103, "channel": 0}, {"type": "note_off", "time": 78, "note": 66, "velocity": 103, "channel": 0}, {"type": "note_on", "time": 24, "note": 64, "velocity": 111, "channel": 0}, {"type": "note_off", "time": 85, "note": 64, "velocity": 111, "channel": 0}, {"type": "note_on", "time": 16, "note": 61, "velocity": 93, "channel": 0}, {"type": "note_off", "time": 72, "note": 61, "velocity": 93, "channel": 0}, {"type": "note_on", "time": 36, "note": 63, "velocity": 101, "channel": 0}, {"type": "note_off", "time": 39, "note": 63, "velocity": 101, "channel": 0}, {"type": "note_on", "time": 155, "note": 70, "velocity": 92, "channel": 0}, {"type": "note_off", "time": 62, "note": 70, "velocity": 92, "channel": 0}, {"type": "note_on", "time": 16, "note": 73, "velocity": 116, "channel": 0}, {"type": "note_off", "time": 64, "note": 73, "velocity": 116, "channel": 0}, {"type": "note_on", "time": 29, "note": 71, "velocity": 113, "channel": 0}, {"type": "note_off", "time": 79, "note": 71, "velocity": 113, "channel": 0}, {"type": "note_on", "time": 6, "note": 70, "velocity": 102, "channel": 0}, {"type": "note_off", "time": 78, "note": 70, "velocity": 102, "channel": 0}, {"type": "note_on", "time": 33, "note": 68, "velocity": 108, "channel": 0}, {"type": "note_off", "time": 70, "note": 68, "velocity": 108, "channel": 0}, {"type": "note_on", "time": 15, "note": 66, "velocity": 100, "channel": 0}, {"type": "note_off", "time": 63, "note": 66, "velocity": 100, "channel": 0}, {"type": "note_on", "time": 33, "note": 65, "velocity": 116, "channel": 0}, {"type": "note_off", "time": 51, "note": 65, "velocity": 116, "channel": 0}, {"type": "note_on", "time": 20, "note": 63, "velocity": 104, "channel": 0}, {"type": "note_off", "time": 32, "note": 63, "velocity": 104, "channel": 0}, {"type": "note_on", "time": 8, "note": 64, "velocity": 107, "channel": 0}, {"type": "note_off", "time": 40, "note": 64, "velocity": 107, "channel": 0}, {"type": "note_on", "time": 20, "note": 63, "velocity": 98, "channel": 0}, {"type": "note_off", "time": 89, "note": 63, "velocity": 98, "channel": 0}, {"type": "note_on", "time": 9, "note": 58, "velocity": 100, "channel": 0}, {"type": "note_off", "time": 111, "note": 58, "velocity": 100, "channel": 0}, {"type": "note_on", "time": 53, "note": 66, "velocity": 100, "channel": 0}, {"type": "note_off", "time": 54, "note": 66, "velocity": 100, "channel": 0}, {"type": "note_on", "time": 19, "note": 65, "velocity": 96, "channel": 0}, {"type": "note_off", "time": 30, "note": 65, "velocity": 96, "channel": 0}, {"type": "note_on", "time": 15, "note": 66, "velocity": 103, "channel": 0}, {"type": "note_off", "time": 55, "note": 66, "velocity": 103, "channel": 0}, {"type": "note_on", "time": 40, "note": 63, "velocity": 106, "channel": 0}, {"type": "note_off", "time": 68, "note": 63, "velocity": 106, "channel": 0}, {"type": "note_on", "time": 51, "note": 66, "velocity": 95, "channel": 0}, {"type": "note_off", "time": 45, "note": 66, "velocity": 95, "channel": 0}, {"type": "note_on", "time": 12, "note": 69, "velocity": 108, "channel": 0}, {"type": "note_off", "time": 50, "note": 69, "velocity": 108, "channel": 0}, {"type": "note_on", "time": 14, "note": 70, "velocity": 104, "channel": 0}, {"type": "note_off", "time": 41, "note": 70, "velocity": 104, "channel": 0}, {"type": "note_on", "time": 11, "note": 69, "velocity": 103, "channel": 0}, {"type": "note_off", "time": 41, "note": 69, "velocity": 103, "channel": 0}, {"type": "note_on", "time": 59, "note": 66, "velocity": 98, "channel": 0}, {"type": "note_off", "time": 51, "note": 66, "velocity": 98, "channel": 0}, {"type": "note_on", "time": 42, "note": 69, "velocity": 104, "channel": 0}, {"type": "note_off", "time": 59, "note": 69, "velocity": 104, "channel": 0}, {"type": "note_on", "time": 24, "note": 68, "velocity": 103, "channel": 0}, {"type": "note_off", "time": 126, "note": 68, "velocity": 103, "channel": 0}, {"type": "note_on", "time": 377, "note": 67, "velocity": 98, "channel": 0}, {"type": "note_off", "time": 81, "note": 67, "velocity": 98, "channel": 0}, {"type": "note_on", "time": 86, "note": 74, "velocity": 102, "channel": 0}, {"type": "note_off", "time": 61, "note": 74, "velocity": 102, "channel": 0}, {"type": "note_on", "time": 15, "note": 77, "velocity": 127, "channel": 0}, {"type": "note_off", "time": 102, "note": 77, "velocity": 127, "channel": 0}, {"type": "note_on", "time": 16, "note": 74, "velocity": 102, "channel": 0}, {"type": "note_off", "time": 50, "note": 74, "velocity": 102, "channel": 0}, {"type": "note_on", "time": 12, "note": 76, "velocity": 116, "channel": 0}, {"type": "note_off", "time": 119, "note": 76, "velocity": 116, "channel": 0}, {"type": "note_on", "time": 6, "note": 74, "velocity": 94, "channel": 0}, {"type": "note_off", "time": 55, "note": 74, "velocity": 94, "channel": 0}, {"type": "note_on", "time": 20, "note": 75, "velocity": 110, "channel": 0}, {"type": "note_off", "time": 86, "note": 75, "velocity": 110, "channel": 0}, {"type": "note_on", "time": 13, "note": 72, "velocity": 113, "channel": 0}, {"type": "note_off", "time": 67, "note": 72, "velocity": 113, "channel": 0}, {"type": "note_on", "time": 15, "note": 68, "velocity": 107, "channel": 0}, {"type": "note_off", "time": 70, "note": 68, "velocity": 107, "channel": 0}, {"type": "note_on", "time": 29, "note": 66, "velocity": 107, "channel": 0}, {"type": "note_off", "time": 95, "note": 66, "velocity": 107, "channel": 0}, {"type": "note_on", "time": 17, "note": 67, "velocity": 99, "channel": 0}, {"type": "note_off", "time": 72, "note": 67, "velocity": 99, "channel": 0}, {"type": "note_on", "time": 22, "note": 70, "velocity": 107, "channel": 0}, {"type": "note_off", "time": 76, "note": 70, "velocity": 107, "channel": 0}, {"type": "note_on", "time": 21, "note": 65, "velocity": 111, "channel": 0}, {"type": "note_off", "time": 44, "note": 65, "velocity": 111, "channel": 0}, {"type": "note_on", "time": 55, "note": 63, "velocity": 102, "channel": 0}, {"type": "note_off", "time": 96, "note": 63, "velocity": 102, "channel": 0}, {"type": "end_of_track", "time": 0}]]}