{"ticks_per_beat": 420, "tracks": [[{"type": "track_name", "name": "Melody", "time": 0}, {"type": "set_tempo", "tempo": 315789, "time": 0}, {"type": "key_signature", "key": "F", "time": 0}, {"type": "time_signature", "numerator": 4, "denominator": 4, "clocks_per_click": 24, "notated_32nd_notes_per_beat": 8, "time": 0}, {"type": "note_on", "time": 5060, "note": 69, "velocity": 112, "channel": 0}, {"type": "note_off", "time": 210, "note": 69, "velocity": 112, "channel": 0}, {"type": "note_on", "time": 34, "note": 67, "velocity": 88, "channel": 0}, {"type": "note_off", "time": 299, "note": 67, "velocity": 88, "channel": 0}, {"type": "note_on", "time": 30, "note": 67, "velocity": 86, "channel": 0}, {"type": "note_off", "time": 339, "note": 67, "velocity": 86, "channel": 0}, {"type": "note_on", "time": 762, "note": 69, "velocity": 118, "channel": 0}, {"type": "note_off", "time": 198, "note": 69, "velocity": 118, "channel": 0}, {"type": "note_on", "time": 27, "note": 65, "velocity": 91, "channel": 0}, {"type": "note_off", "time": 314, "note": 65, "velocity": 91, "channel": 0}, {"type": "note_on", "time": 40, "note": 65, "velocity": 97, "channel": 0}, {"type": "note_off", "time": 1073, "note": 65, "velocity": 97, "channel": 0}, {"type": "note_on", "time": 46, "note": 62, "velocity": 89, "channel": 0}, {"type": "note_off", "time": 162, "note": 62, "velocity": 89, "channel": 0}, {"type": "note_on", "time": 11, "note": 64, "velocity": 102, "channel": 0}, {"type": "note_off", "time": 90, "note": 64, "velocity": 102, "channel": 0}, {"type": "note_on", "time": 4, "note": 65, "velocity": 105, "channel": 0}, {"type": "note_off", "time": 59, "note": 65, "velocity": 105, "channel": 0}, {"type": "note_on", "time": 3, "note": 64, "velocity": 105, "channel": 0}, {"type": "note_off", "time": 98, "note": 64, "velocity": 105, "channel": 0}, {"type": "note_on", "time": 7, "note": 61, "velocity": 97, "channel": 0}, {"type": "note_off", "time": 211, "note": 61, "velocity": 97, "channel": 0}, {"type": "note_on", "time": 14, "note": 59, "velocity": 86, "channel": 0}, {"type": "note_off", "time": 945, "note": 59, "velocity": 86, "channel": 0}, {"type": "note_on", "time": 3, "note": 60, "velocity": 106, "channel": 0}, {"type": "note_off", "time": 142, "note": 60, "velocity": 106, "channel": 0}, {"type": "note_on", "time": 664, "note": 65, "velocity": 109, "channel": 0}, {"type": "note_off", "time": 171, "note": 65, "velocity": 109, "channel": 0}, {"type": "note_on", "time": 1, "note": 67, "velocity": 97, "channel": 0}, {"type": "note_off", "time": 177, "note": 67, "velocity": 97, "channel": 0}, {"type": "note_on", "time": 48, "note": 70, "velocity": 115, "channel": 0}, {"type": "note_off", "time": 209, "note": 70, "velocity": 115, "channel": 0}, {"type": "note_on", "time": 16, "note": 69, "velocity": 101, "channel": 0}, {"type": "note_off", "time": 529, "note": 69, "velocity": 101, "channel": 0}, {"type": "note_on", "time": 308, "note": 76, "velocity": 120, "channel": 0}, {"type": "note_off", "time": 194, "note": 76, "velocity": 120, "channel": 0}, {"type": "note_on", "time": 1, "note": 77, "velocity": 123, "channel": 0}, {"type": "note_off", "time": 173, "note": 77, "velocity": 123, "channel": 0}, {"type": "note_on", "time": 38, "note": 77, "velocity": 110, "channel": 0}, {"type": "note_off", "time": 100, "note": 77, "velocity": 110, "channel": 0}, {"type": "note_on", "time": 9, "note": 76, "velocity": 112, "channel": 0}, {"type": "note_off", "time": 92, "note": 76, "velocity": 112, "channel": 0}, {"type": "note_on", "time": 19, "note": 74, "velocity": 109, "channel": 0}, {"type": "note_off", "time": 166, "note": 74, "velocity": 109, "channel": 0}, {"type": "note_on", "time": 29, "note": 73, "velocity": 109, "channel": 0}, {"type": "note_off", "time": 229, "note": 73, "velocity": 109, "channel": 0}, {"type": "note_on", "time": 18, "note": 64, "velocity": 91, "channel": 0}, {"type": "note_off", "time": 170, "note": 64, "velocity": 91, "channel": 0}, {"type": "note_on", "time": 0, "note": 63, "velocity": 93, "channel": 0}, {"type": "note_off", "time": 181, "note": 63, "velocity": 93, "channel": 0}, {"type": "note_on", "time": 27, "note": 69, "velocity": 114, "channel": 0}, {"type": "note_off", "time": 204, "note": 69, "velocity": 114, "channel": 0}, {"type": "note_on", "time": 9, "note": 70, "velocity": 108, "channel": 0}, {"type": "note_off", "time": 90, "note": 70, "velocity": 108, "channel": 0}, {"type": "note_on", "time": 10, "note": 69, "velocity": 105, "channel": 0}, {"type": "note_off", "time": 97, "note": 69, "velocity": 105, "channel": 0}, {"type": "note_on", "time": 27, "note": 69, "velocity": 112, "channel": 0}, {"type": "note_off", "time": 152, "note": 69, "velocity": 112, "channel": 0}, {"type": "note_on", "time": 21, "note": 68, "velocity": 97, "channel": 0}, {"type": "note_off", "time": 196, "note": 68, "velocity": 97, "channel": 0}, {"type": "note_on", "time": 24, "note": 69, "velocity": 113, "channel": 0}, {"type": "note_off", "time": 143, "note": 69, "velocity": 113, "channel": 0}, {"type": "note_on", "time": 46, "note": 65, "velocity": 93, "channel": 0}, {"type": "note_off", "time": 216, "note": 65, "velocity": 93, "channel": 0}, {"type": "note_on", "time": 23, "note": 62, "velocity": 102, "channel": 0}, {"type": "note_off", "time": 150, "note": 62, "velocity": 102, "channel": 0}, {"type": "note_on", "time": 1487, "note": 70, "velocity": 103, "channel": 0}, {"type": "note_off", "time": 168, "note": 70, "velocity": 103, "channel": 0}, {"type": "note_on", "time": 40, "note": 75, "velocity": 112, "channel": 0}, {"type": "note_off", "time": 187, "note": 75, "velocity": 112, "channel": 0}, {"type": "note_on", "time": 10, "note": 77, "velocity": 122, "channel": 0}, {"type": "note_off", "time": 192, "note": 77, "velocity": 122, "channel": 0}, {"type": "note_on", "time": 29, "note": 79, "velocity": 117, "channel": 0}, {"type": "note_off", "time": 179, "note": 79, "velocity": 117, "channel": 0}, {"type": "note_on", "time": 24, "note": 81, "velocity": 123, "channel": 0}, {"type": "note_off", "time": 190, "note": 81, "velocity": 123, "channel": 0}, {"type": "note_on", "time": 27, "note": 82, "velocity": 124, "channel": 0}, {"type": "note_off", "time": 190, "note": 82, "velocity": 124, "channel": 0}, {"type": "note_on", "time": 10, "note": 80, "velocity": 119, "channel": 0}, {"type": "note_off", "time": 287, "note": 80, "velocity": 119, "channel": 0}, {"type": "note_on", "time": 16, "note": 81, "velocity": 113, "channel": 0}, {"type": "note_off", "time": 298, "note": 81, "velocity": 113, "channel": 0}, {"type": "note_on", "time": 40, "note": 77, "velocity": 122, "channel": 0}, {"type": "note_off", "time": 374, "note": 77, "velocity": 122, "channel": 0}, {"type": "note_on", "time": 6, "note": 74, "velocity": 105, "channel": 0}, {"type": "note_off", "time": 382, "note": 74, "velocity": 105, "channel": 0}, {"type": "note_on", "time": 34, "note": 71, "velocity": 110, "channel": 0}, {"type": "note_off", "time": 366, "note": 71, "velocity": 110, "channel": 0}, {"type": "note_on", "time": 15, "note": 70, "velocity": 111, "channel": 0}, {"type": "note_off", "time": 393, "note": 70, "velocity": 111, "channel": 0}, {"type": "note_on", "time": 19, "note": 65, "velocity": 99, "channel": 0}, {"type": "note_off", "time": 374, "note": 65, "velocity": 99, "channel": 0}, {"type": "note_on", "time": 27, "note": 63, "velocity": 106, "channel": 0}, {"type": "note_off", "time": 135, "note": 63, "velocity": 106, "channel": 0}, {"type": "note_on", "time": 3, "note": 65, "velocity": 103, "channel": 0}, {"type": "note_off", "time": 84, "note": 65, "velocity": 103, "channel": 0}, {"type": "note_on", "time": 8, "note": 63, "velocity": 110, "channel": 0}, {"type": "note_off", "time": 133, "note": 63, "velocity": 110, "channel": 0}, {"type": "note_on", "time": 38, "note": 61, "velocity": 95, "channel": 0}, {"type": "note_off", "time": 200, "note": 61, "velocity": 95, "channel": 0}, {"type": "note_on", "time": 32, "note": 57, "velocity": 103, "channel": 0}, {"type": "note_off", "time": 146, "note": 57, "velocity": 103, "channel": 0}, {"type": "note_on", "time": 21, "note": 64, "velocity": 104, "channel": 0}, {"type": "note_off", "time": 219, "note": 64, "velocity": 104, "channel": 0}, {"type": "note_on", "time": 28, "note": 65, "velocity": 95, "channel": 0}, {"type": "note_off", "time": 475, "note": 65, "velocity": 95, "channel": 0}, {"type": "note_on", "time": 21, "note": 59, "velocity": 104, "channel": 0}, {"type": "note_off", "time": 222, "note": 59, "velocity": 104, "channel": 0}, {"type": "note_on", "time": 967, "note": 63, "velocity": 99, "channel": 0}, {"type": "note_off", "time": 57, "note": 63, "velocity": 99, "channel": 0}, {"type": "note_on", "time": 6, "note": 65, "velocity": 99, "channel": 0}, {"type": "note_off", "time": 57, "note": 65, "velocity": 99, "channel": 0}, {"type": "note_on", "time": 1, "note": 66, "velocity": 94, "channel": 0}, {"type": "note_off", "time": 54, "note": 66, "velocity": 94, "channel": 0}, {"type": "note_on", "time": 16, "note": 67, "velocity": 102, "channel": 0}, {"type": "note_off", "time": 75, "note": 67, "velocity": 102, "channel": 0}, {"type": "note_on", "time": 11, "note": 68, "velocity": 95, "channel": 0}, {"type": "note_off", "time": 54, "note": 68, "velocity": 95, "channel": 0}, {"type": "note_on", "time": 9, "note": 69, "velocity": 98, "channel": 0}, {"type": "note_off", "time": 69, "note": 69, "velocity": 98, "channel": 0}, {"type": "note_on", "time": 14, "note": 70, "velocity": 110, "channel": 0}, {"type": "note_off", "time": 150, "note": 70, "velocity": 110, "channel": 0}, {"type": "note_on", "time": 28, "note": 63, "velocity": 102, "channel": 0}, {"type": "note_off", "time": 84, "note": 63, "velocity": 102, "channel": 0}, {"type": "note_on", "time": 10, "note": 65, "velocity": 94, "channel": 0}, {"type": "note_off", "time": 65, "note": 65, "velocity": 94, "channel": 0}, {"type": "note_on", "time": 24, "note": 66, "velocity": 103, "channel": 0}, {"type": "note_off", "time": 77, "note": 66, "velocity": 103, "channel": 0}, {"type": "note_on", "time": 14, "note": 67, "velocity": 97, "channel": 0}, {"type": "note_off", "time": 66, "note": 67, "velocity": 97, "channel": 0}, {"type": "note_on", "time": 4, "note": 69, "velocity": 116, "channel": 0}, {"type": "note_off", "time": 85, "note": 69, "velocity": 116, "channel": 0}, {"type": "note_on", "time": 9, "note": 70, "velocity": 115, "channel": 0}, {"type": "note_off", "time": 115, "note": 70, "velocity": 115, "channel": 0}, {"type": "note_on", "time": 214, "note": 64, "velocity": 94, "channel": 0}, {"type": "note_off", "time": 71, "note": 64, "velocity": 94, "channel": 0}, {"type": "note_on", "time": 14, "note": 65, "velocity": 89, "channel": 0}, {"type": "note_off", "time": 82, "note": 65, "velocity": 89, "channel": 0}, {"type": "note_on", "time": 14, "note": 67, "velocity": 97, "channel": 0}, {"type": "note_off", "time": 73, "note": 67, "velocity": 97, "channel": 0}, {"type": "note_on", "time": 23, "note": 69, "velocity": 111, "channel": 0}, {"type": "note_off", "time": 118, "note": 69, "velocity": 111, "channel": 0}, {"type": "note_on", "time": 133, "note": 62, "velocity": 100, "channel": 0}, {"type": "note_off", "time": 47, "note": 62, "velocity": 100, "channel": 0}, {"type": "note_on", "time": 5, "note": 64, "velocity": 100, "channel": 0}, {"type": "note_off", "time": 90, "note": 64, "velocity": 100, "channel": 0}, {"type": "note_on", "time": 11, "note": 65, "velocity": 100, "channel": 0}, {"type": "note_off", "time": 81, "note": 65, "velocity": 100, "channel": 0}, {"type": "note_on", "time": 14, "note": 67, "velocity": 103, "channel": 0}, {"type": "note_off", "time": 67, "note": 67, "velocity": 103, "channel": 0}, {"type": "note_on", "time": 12, "note": 69, "velocity": 100, "channel": 0}, {"type": "note_off", "time": 93, "note": 69, "velocity": 100, "channel": 0}, {"type": "note_on", "time": 214, "note": 65, "velocity": 98, "channel": 0}, {"type": "note_off", "time": 115, "note": 65, "velocity": 98, "channel": 0}, {"type": "note_on", "time": 19, "note": 63, "velocity": 101, "channel": 0}, {"type": "note_off", "time": 128, "note": 63, "velocity": 101, "channel": 0}, {"type": "note_on", "time": 27, "note": 69, "velocity": 104, "channel": 0}, {"type": "note_off", "time": 59, "note": 69, "velocity": 104, "channel": 0}, {"type": "note_on", "time": 9, "note": 70, "velocity": 121, "channel": 0}, {"type": "note_off", "time": 84, "note": 70, "velocity": 121, "channel": 0}, {"type": "note_on", "time": 10, "note": 69, "velocity": 109, "channel": 0}, {"type": "note_off", "time": 76, "note": 69, "velocity": 109, "channel": 0}, {"type": "note_on", "time": 10, "note": 67, "velocity": 108, "channel": 0}, {"type": "note_off", "time": 66, "note": 67, "velocity": 108, "channel": 0}, {"type": "note_on", "time": 25, "note": 65, "velocity": 104, "channel": 0}, {"type": "note_off", "time": 82, "note": 65, "velocity": 104, "channel": 0}, {"type": "note_on", "time": 29, "note": 63, "velocity": 100, "channel": 0}, {"type": "note_off", "time": 82, "note": 63, "velocity": 100, "channel": 0}, {"type": "note_on", "time": 14, "note": 62, "velocity": 96, "channel": 0}, {"type": "note_off", "time": 70, "note": 62, "velocity": 96, "channel": 0}, {"type": "note_on", "time": 21, "note": 61, "velocity": 99, "channel": 0}, {"type": "note_off", "time": 104, "note": 61, "velocity": 99, "channel": 0}, {"type": "note_on", "time": 922, "note": 58, "velocity": 108, "channel": 0}, {"type": "note_off", "time": 67, "note": 58, "velocity": 108, "channel": 0}, {"type": "note_on", "time": 4, "note": 57, "velocity": 104, "channel": 0}, {"type": "note_off", "time": 162, "note": 57, "velocity": 104, "channel": 0}, {"type": "note_on", "time": 161, "note": 61, "velocity": 98, "channel": 0}, {"type": "note_off", "time": 115, "note": 61, "velocity": 98, "channel": 0}, {"type": "note_on", "time": 5, "note": 62, "velocity": 98, "channel": 0}, {"type": "note_off", "time": 180, "note": 62, "velocity": 98, "channel": 0}, {"type": "note_on", "time": 1205, "note": 69, "velocity": 112, "channel": 0}, {"type": "note_off", "time": 183, "note": 69, "velocity": 112, "channel": 0}, {"type": "note_on", "time": 10, "note": 72, "velocity": 118, "channel": 0}, {"type": "note_off", "time": 190, "note": 72, "velocity": 118, "channel": 0}, {"type": "note_on", "time": 23, "note": 76, "velocity": 116, "channel": 0}, {"type": "note_off", "time": 194, "note": 76, "velocity": 116, "channel": 0}, {"type": "note_on", "time": 69, "note": 81, "velocity": 116, "channel": 0}, {"type": "note_off", "time": 256, "note": 81, "velocity": 116, "channel": 0}, {"type": "note_on", "time": 158, "note": 80, "velocity": 114, "channel": 0}, {"type": "note_off", "time": 210, "note": 80, "velocity": 114, "channel": 0}, {"type": "note_on", "time": 204, "note": 79, "velocity": 118, "channel": 0}, {"type": "note_off", "time": 204, "note": 79, "velocity": 118, "channel": 0}, {"type": "note_on", "time": 17, "note": 81, "velocity": 114, "channel": 0}, {"type": "note_off", "time": 70, "note": 81, "velocity": 114, "channel": 0}, {"type": "note_on", "time": 14, "note": 79, "velocity": 105, "channel": 0}, {"type": "note_off", "time": 111, "note": 79, "velocity": 105, "channel": 0}, {"type": "note_on", "time": 40, "note": 76, "velocity": 122, "channel": 0}, {"type": "note_off", "time": 191, "note": 76, "velocity": 122, "channel": 0}, {"type": "note_on", "time": 43, "note": 77, "velocity": 121, "channel": 0}, {"type": "note_off", "time": 175, "note": 77, "velocity": 121, "channel": 0}, {"type": "note_on", "time": 28, "note": 78, "velocity": 123, "channel": 0}, {"type": "note_off", "time": 179, "note": 78, "velocity": 123, "channel": 0}, {"type": "note_on", "time": 8, "note": 75, "velocity": 118, "channel": 0}, {"type": "note_off", "time": 202, "note": 75, "velocity": 118, "channel": 0}, {"type": "note_on", "time": 7, "note": 72, "velocity": 97, "channel": 0}, {"type": "note_off", "time": 233, "note": 72, "velocity": 97, "channel": 0}, {"type": "note_on", "time": 1, "note": 73, "velocity": 117, "channel": 0}, {"type": "note_off", "time": 191, "note": 73, "velocity": 117, "channel": 0}, {"type": "note_on", "time": 10, "note": 74, "velocity": 112, "channel": 0}, {"type": "note_off", "time": 147, "note": 74, "velocity": 112, "channel": 0}, {"type": "note_on", "time": 35, "note": 79, "velocity": 114, "channel": 0}, {"type": "note_off", "time": 168, "note": 79, "velocity": 114, "channel": 0}, {"type": "note_on", "time": 39, "note": 81, "velocity": 125, "channel": 0}, {"type": "note_off", "time": 192, "note": 81, "velocity": 125, "channel": 0}, {"type": "note_on", "time": 12, "note": 82, "velocity": 121, "channel": 0}, {"type": "note_off", "time": 192, "note": 82, "velocity": 121, "channel": 0}, {"type": "note_on", "time": 25, "note": 81, "velocity": 116, "channel": 0}, {"type": "note_off", "time": 179, "note": 81, "velocity": 116, "channel": 0}, {"type": "note_on", "time": 12, "note": 79, "velocity": 110, "channel": 0}, {"type": "note_off", "time": 168, "note": 79, "velocity": 110, "channel": 0}, {"type": "note_on", "time": 25, "note": 78, "velocity": 119, "channel": 0}, {"type": "note_off", "time": 171, "note": 78, "velocity": 119, "channel": 0}, {"type": "note_on", "time": 17, "note": 81, "velocity": 117, "channel": 0}, {"type": "note_off", "time": 214, "note": 81, "velocity": 117, "channel": 0}, {"type": "note_on", "time": 19, "note": 79, "velocity": 105, "channel": 0}, {"type": "note_off", "time": 142, "note": 79, "velocity": 105, "channel": 0}, {"type": "note_on", "time": 81, "note": 74, "velocity": 112, "channel": 0}, {"type": "note_off", "time": 114, "note": 74, "velocity": 112, "channel": 0}, {"type": "note_on", "time": 13, "note": 72, "velocity": 108, "channel": 0}, {"type": "note_off", "time": 73, "note": 72, "velocity": 108, "channel": 0}, {"type": "note_on", "time": 1, "note": 74, "velocity": 110, "channel": 0}, {"type": "note_off", "time": 88, "note": 74, "velocity": 110, "channel": 0}, {"type": "note_on", "time": 5, "note": 72, "velocity": 104, "channel": 0}, {"type": "note_off", "time": 95, "note": 72, "velocity": 104, "channel": 0}, {"type": "note_on", "time": 16, "note": 69, "velocity": 115, "channel": 0}, {"type": "note_off", "time": 173, "note": 69, "velocity": 115, "channel": 0}, {"type": "note_on", "time": 4, "note": 70, "velocity": 109, "channel": 0}, {"type": "note_off", "time": 198, "note": 70, "velocity": 109, "channel": 0}, {"type": "note_on", "time": 36, "note": 66, "velocity": 100, "channel": 0}, {"type": "note_off", "time": 104, "note": 66, "velocity": 100, "channel": 0}, {"type": "note_on", "time": 21, "note": 69, "velocity": 105, "channel": 0}, {"type": "note_off", "time": 240, "note": 69, "velocity": 105, "channel": 0}, {"type": "note_on", "time": 20, "note": 66, "velocity": 108, "channel": 0}, {"type": "note_off", "time": 124, "note": 66, "velocity": 108, "channel": 0}, {"type": "note_on", "time": 16, "note": 67, "velocity": 101, "channel": 0}, {"type": "note_off", "time": 484, "note": 67, "velocity": 101, "channel": 0}, {"type": "note_on", "time": 61, "note": 70, "velocity": 97, "channel": 0}, {"type": "note_off", "time": 100, "note": 70, "velocity": 97, "channel": 0}, {"type": "note_on", "time": 25, "note": 77, "velocity": 86, "channel": 0}, {"type": "note_off", "time": 44, "note": 77, "velocity": 86, "channel": 0}, {"type": "note_on", "time": 1, "note": 79, "velocity": 113, "channel": 0}, {"type": "note_off", "time": 208, "note": 79, "velocity": 113, "channel": 0}, {"type": "note_on", "time": 18, "note": 78, "velocity": 117, "channel": 0}, {"type": "note_off", "time": 240, "note": 78, "velocity": 117, "channel": 0}, {"type": "note_on", "time": 23, "note": 74, "velocity": 100, "channel": 0}, {"type": "note_off", "time": 69, "note": 74, "velocity": 100, "channel": 0}, {"type": "note_on", "time": 7, "note": 72, "velocity": 96, "channel": 0}, {"type": "note_off", "time": 63, "note": 72, "velocity": 96, "channel": 0}, {"type": "note_on", "time": 5, "note": 67, "velocity": 103, "channel": 0}, {"type": "note_off", "time": 183, "note": 67, "velocity": 103, "channel": 0}, {"type": "note_on", "time": 47, "note": 66, "velocity": 100, "channel": 0}, {"type": "note_off", "time": 442, "note": 66, "velocity": 100, "channel": 0}, {"type": "note_on", "time": 25, "note": 62, "velocity": 105, "channel": 0}, {"type": "note_off", "time": 81, "note": 62, "velocity": 105, "channel": 0}, {"type": "note_on", "time": 9, "note": 65, "velocity": 107, "channel": 0}, {"type": "note_off", "time": 266, "note": 65, "velocity": 107, "channel": 0}, {"type": "note_on", "time": 43, "note": 62, "velocity": 100, "channel": 0}, {"type": "note_off", "time": 89, "note": 62, "velocity": 100, "channel": 0}, {"type": "note_on", "time": 12, "note": 64, "velocity": 101, "channel": 0}, {"type": "note_off", "time": 111, "note": 64, "velocity": 101, "channel": 0}, {"type": "note_on", "time": 6, "note": 67, "velocity": 103, "channel": 0}, {"type": "note_off", "time": 109, "note": 67, "velocity": 103, "channel": 0}, {"type": "note_on", "time": 8, "note": 70, "velocity": 99, "channel": 0}, {"type": "note_off", "time": 134, "note": 70, "velocity": 99, "channel": 0}, {"type": "note_on", "time": 36, "note": 73, "velocity": 112, "channel": 0}, {"type": "note_off", "time": 108, "note": 73, "velocity": 112, "channel": 0}, {"type": "note_on", "time": 9, "note": 75, "velocity": 101, "channel": 0}, {"type": "note_off", "time": 152, "note": 75, "velocity": 101, "channel": 0}, {"type": "note_on", "time": 8, "note": 72, "velocity": 107, "channel": 0}, {"type": "note_off", "time": 184, "note": 72, "velocity": 107, "channel": 0}, {"type": "note_on", "time": 1418, "note": 81, "velocity": 121, "channel": 0}, {"type": "note_off", "time": 206, "note": 81, "velocity": 121, "channel": 0}, {"type": "note_on", "time": 17, "note": 82, "velocity": 119, "channel": 0}, {"type": "note_off", "time": 190, "note": 82, "velocity": 119, "channel": 0}, {"type": "note_on", "time": 6, "note": 81, "velocity": 118, "channel": 0}, {"type": "note_off", "time": 187, "note": 81, "velocity": 118, "channel": 0}, {"type": "note_on", "time": 24, "note": 82, "velocity": 110, "channel": 0}, {"type": "note_off", "time": 171, "note": 82, "velocity": 110, "channel": 0}, {"type": "note_on", "time": 29, "note": 81, "velocity": 117, "channel": 0}, {"type": "note_off", "time": 191, "note": 81, "velocity": 117, "channel": 0}, {"type": "note_on", "time": 43, "note": 79, "velocity": 115, "channel": 0}, {"type": "note_off", "time": 189, "note": 79, "velocity": 115, "channel": 0}, {"type": "note_on", "time": 16, "note": 77, "velocity": 102, "channel": 0}, {"type": "note_off", "time": 143, "note": 77, "velocity": 102, "channel": 0}, {"type": "note_on", "time": 21, "note": 77, "velocity": 108, "channel": 0}, {"type": "note_off", "time": 97, "note": 77, "velocity": 108, "channel": 0}, {"type": "note_on", "time": 10, "note": 76, "velocity": 111, "channel": 0}, {"type": "note_off", "time": 108, "note": 76, "velocity": 111, "channel": 0}, {"type": "note_on", "time": 29, "note": 74, "velocity": 100, "channel": 0}, {"type": "note_off", "time": 124, "note": 74, "velocity": 100, "channel": 0}, {"type": "note_on", "time": 86, "note": 75, "velocity": 115, "channel": 0}, {"type": "note_off", "time": 356, "note": 75, "velocity": 115, "channel": 0}, {"type": "note_on", "time": 31, "note": 73, "velocity": 115, "channel": 0}, {"type": "note_off", "time": 233, "note": 73, "velocity": 115, "channel": 0}, {"type": "note_on", "time": 23, "note": 70, "velocity": 103, "channel": 0}, {"type": "note_off", "time": 137, "note": 70, "velocity": 103, "channel": 0}, {"type": "note_on", "time": 18, "note": 75, "velocity": 116, "channel": 0}, {"type": "note_off", "time": 390, "note": 75, "velocity": 116, "channel": 0}, {"type": "note_on", "time": 23, "note": 73, "velocity": 114, "channel": 0}, {"type": "note_off", "time": 236, "note": 73, "velocity": 114, "channel": 0}, {"type": "note_on", "time": 42, "note": 69, "velocity": 98, "channel": 0}, {"type": "note_off", "time": 123, "note": 69, "velocity": 98, "channel": 0}, {"type": "note_on", "time": 23, "note": 76, "velocity": 109, "channel": 0}, {"type": "note_off", "time": 92, "note": 76, "velocity": 109, "channel": 0}, {"type": "note_on", "time": 9, "note": 77, "velocity": 112, "channel": 0}, {"type": "note_off", "time": 71, "note": 77, "velocity": 112, "channel": 0}, {"type": "note_on", "time": 5, "note": 76, "velocity": 116, "channel": 0}, {"type": "note_off", "time": 131, "note": 76, "velocity": 116, "channel": 0}, {"type": "note_on", "time": 32, "note": 74, "velocity": 104, "channel": 0}, {"type": "note_off", "time": 111, "note": 74, "velocity": 104, "channel": 0}, {"type": "note_on", "time": 13, "note": 71, "velocity": 102, "channel": 0}, {"type": "note_off", "time": 218, "note": 71, "velocity": 102, "channel": 0}, {"type": "note_on", "time": 71, "note": 76, "velocity": 113, "channel": 0}, {"type": "note_off", "time": 189, "note": 76, "velocity": 113, "channel": 0}, {"type": "note_on", "time": 127, "note": 74, "velocity": 110, "channel": 0}, {"type": "note_off", "time": 162, "note": 74, "velocity": 110, "channel": 0}, {"type": "note_on", "time": 35, "note": 71, "velocity": 114, "channel": 0}, {"type": "note_off", "time": 187, "note": 71, "velocity": 114, "channel": 0}, {"type": "note_on", "time": 44, "note": 75, "velocity": 105, "channel": 0}, {"type": "note_off", "time": 519, "note": 75, "velocity": 105, "channel": 0}, {"type": "note_on", "time": 43, "note": 73, "velocity": 106, "channel": 0}, {"type": "note_off", "time": 267, "note": 73, "velocity": 106, "channel": 0}, {"type": "note_on", "time": 23, "note": 70, "velocity": 94, "channel": 0}, {"type": "note_off", "time": 92, "note": 70, "velocity": 94, "channel": 0}, {"type": "note_on", "time": 32, "note": 77, "velocity": 103, "channel": 0}, {"type": "note_off", "time": 193, "note": 77, "velocity": 103, "channel": 0}, {"type": "note_on", "time": 13, "note": 75, "velocity": 106, "channel": 0}, {"type": "note_off", "time": 85, "note": 75, "velocity": 106, "channel": 0}, {"type": "note_on", "time": 7, "note": 77, "velocity": 109, "channel": 0}, {"type": "note_off", "time": 73, "note": 77, "velocity": 109, "channel": 0}, {"type": "note_on", "time": 17, "note": 76, "velocity": 104, "channel": 0}, {"type": "note_off", "time": 98, "note": 76, "velocity": 104, "channel": 0}, {"type": "note_on", "time": 1, "note": 73, "velocity": 110, "channel": 0}, {"type": "note_off", "time": 185, "note": 73, "velocity": 110, "channel": 0}, {"type": "note_on", "time": 436, "note": 76, "velocity": 114, "channel": 0}, {"type": "note_off", "time": 154, "note": 76, "velocity": 114, "channel": 0}, {"type": "note_on", "time": 21, "note": 74, "velocity": 109, "channel": 0}, {"type": "note_off", "time": 198, "note": 74, "velocity": 109, "channel": 0}, {"type": "note_on", "time": 66, "note": 71, "velocity": 109, "channel": 0}, {"type": "note_off", "time": 185, "note": 71, "velocity": 109, "channel": 0}, {"type": "note_on", "time": 6, "note": 74, "velocity": 85, "channel": 0}, {"type": "note_off", "time": 95, "note": 74, "velocity": 85, "channel": 0}, {"type": "note_on", "time": 4, "note": 71, "velocity": 94, "channel": 0}, {"type": "note_off", "time": 80, "note": 71, "velocity": 94, "channel": 0}, {"type": "note_on", "time": 20, "note": 69, "velocity": 111, "channel": 0}, {"type": "note_off", "time": 143, "note": 69, "velocity": 111, "channel": 0}, {"type": "note_on", "time": 13, "note": 65, "velocity": 108, "channel": 0}, {"type": "note_off", "time": 264, "note": 65, "velocity": 108, "channel": 0}, {"type": "note_on", "time": 7, "note": 59, "velocity": 98, "channel": 0}, {"type": "note_off", "time": 122, "note": 59, "velocity": 98, "channel": 0}, {"type": "note_on", "time": 3, "note": 63, "velocity": 103, "channel": 0}, {"type": "note_off", "time": 428, "note": 63, "velocity": 103, "channel": 0}, {"type": "note_on", "time": 9, "note": 65, "velocity": 103, "channel": 0}, {"type": "note_off", "time": 266, "note": 65, "velocity": 103, "channel": 0}, {"type": "note_on", "time": 15, "note": 59, "velocity": 93, "channel": 0}, {"type": "note_off", "time": 137, "note": 59, "velocity": 93, "channel": 0}, {"type": "note_on", "time": 12, "note": 63, "velocity": 101, "channel": 0}, {"type": "note_off", "time": 323, "note": 63, "velocity": 101, "channel": 0}, {"type": "note_on", "time": 74, "note": 65, "velocity": 97, "channel": 0}, {"type": "note_off", "time": 153, "note": 65, "velocity": 97, "channel": 0}, {"type": "note_on", "time": 497, "note": 57, "velocity": 110, "channel": 0}, {"type": "note_off", "time": 150, "note": 57, "velocity": 110, "channel": 0}, {"type": "note_on", "time": 23, "note": 62, "velocity": 90, "channel": 0}, {"type": "note_off", "time": 218, "note": 62, "velocity": 90, "channel": 0}, {"type": "note_on", "time": 13, "note": 64, "velocity": 102, "channel": 0}, {"type": "note_off", "time": 173, "note": 64, "velocity": 102, "channel": 0}, {"type": "note_on", "time": 9, "note": 62, "velocity": 94, "channel": 0}, {"type": "note_off", "time": 100, "note": 62, "velocity": 94, "channel": 0}, {"type": "note_on", "time": 25, "note": 64, "velocity": 94, "channel": 0}, {"type": "note_off", "time": 67, "note": 64, "velocity": 94, "channel": 0}, {"type": "note_on", "time": 5, "note": 62, "velocity": 92, "channel": 0}, {"type": "note_off", "time": 69, "note": 62, "velocity": 92, "channel": 0}, {"type": "note_on", "time": 3, "note": 60, "velocity": 94, "channel": 0}, {"type": "note_off", "time": 94, "note": 60, "velocity": 94, "channel": 0}, {"type": "note_on", "time": 4, "note": 57, "velocity": 104, "channel": 0}, {"type": "note_off", "time": 247, "note": 57, "velocity": 104, "channel": 0}, {"type": "note_on", "time": 952, "note": 61, "velocity": 95, "channel": 0}, {"type": "note_off", "time": 71, "note": 61, "velocity": 95, "channel": 0}, {"type": "note_on", "time": 9, "note": 63, "velocity": 101, "channel": 0}, {"type": "note_off", "time": 75, "note": 63, "velocity": 101, "channel": 0}, {"type": "note_on", "time": 5, "note": 65, "velocity": 104, "channel": 0}, {"type": "note_off", "time": 47, "note": 65, "velocity": 104, "channel": 0}, {"type": "note_on", "time": 6, "note": 67, "velocity": 91, "channel": 0}, {"type": "note_off", "time": 95, "note": 67, "velocity": 91, "channel": 0}, {"type": "note_on", "time": 4, "note": 70, "velocity": 116, "channel": 0}, {"type": "note_off", "time": 173, "note": 70, "velocity": 116, "channel": 0}, {"type": "note_on", "time": 10, "note": 69, "velocity": 115, "channel": 0}, {"type": "note_off", "time": 257, "note": 69, "velocity": 115, "channel": 0}, {"type": "note_on", "time": 10, "note": 67, "velocity": 111, "channel": 0}, {"type": "note_off", "time": 177, "note": 67, "velocity": 111, "channel": 0}, {"type": "note_on", "time": 17, "note": 65, "velocity": 94, "channel": 0}, {"type": "note_off", "time": 220, "note": 65, "velocity": 94, "channel": 0}, {"type": "note_on", "time": 9, "note": 62, "velocity": 99, "channel": 0}, {"type": "note_off", "time": 170, "note": 62, "velocity": 99, "channel": 0}, {"type": "note_on", "time": 1049, "note": 74, "velocity": 90, "channel": 0}, {"type": "note_off", "time": 89, "note": 74, "velocity": 90, "channel": 0}, {"type": "note_on", "time": 117, "note": 63, "velocity": 103, "channel": 0}, {"type": "note_off", "time": 154, "note": 63, "velocity": 103, "channel": 0}, {"type": "note_on", "time": 78, "note": 65, "velocity": 104, "channel": 0}, {"type": "note_off", "time": 175, "note": 65, "velocity": 104, "channel": 0}, {"type": "note_on", "time": 17, "note": 67, "velocity": 95, "channel": 0}, {"type": "note_off", "time": 146, "note": 67, "velocity": 95, "channel": 0}, {"type": "note_on", "time": 43, "note": 69, "velocity": 113, "channel": 0}, {"type": "note_off", "time": 207, "note": 69, "velocity": 113, "channel": 0}, {"type": "note_on", "time": 12, "note": 70, "velocity": 116, "channel": 0}, {"type": "note_off", "time": 219, "note": 70, "velocity": 116, "channel": 0}, {"type": "note_on", "time": 23, "note": 69, "velocity": 103, "channel": 0}, {"type": "note_off", "time": 180, "note": 69, "velocity": 103, "channel": 0}, {"type": "note_on", "time": 6, "note": 70, "velocity": 114, "channel": 0}, {"type": "note_off", "time": 392, "note": 70, "velocity": 114, "channel": 0}, {"type": "note_on", "time": 16, "note": 62, "velocity": 97, "channel": 0}, {"type": "note_off", "time": 209, "note": 62, "velocity": 97, "channel": 0}, {"type": "note_on", "time": 61, "note": 64, "velocity": 95, "channel": 0}, {"type": "note_off", "time": 162, "note": 64, "velocity": 95, "channel": 0}, {"type": "note_on", "time": 43, "note": 65, "velocity": 93, "channel": 0}, {"type": "note_off", "time": 149, "note": 65, "velocity": 93, "channel": 0}, {"type": "note_on", "time": 51, "note": 67, "velocity": 101, "channel": 0}, {"type": "note_off", "time": 146, "note": 67, "velocity": 101, "channel": 0}, {"type": "note_on", "time": 6, "note": 69, "velocity": 110, "channel": 0}, {"type": "note_off", "time": 284, "note": 69, "velocity": 110, "channel": 0}, {"type": "note_on", "time": 9, "note": 68, "velocity": 92, "channel": 0}, {"type": "note_off", "time": 146, "note": 68, "velocity": 92, "channel": 0}, {"type": "note_on", "time": 8, "note": 69, "velocity": 112, "channel": 0}, {"type": "note_off", "time": 331, "note": 69, "velocity": 112, "channel": 0}, {"type": "note_on", "time": 172, "note": 63, "velocity": 89, "channel": 0}, {"type": "note_off", "time": 154, "note": 63, "velocity": 89, "channel": 0}, {"type": "note_on", "time": 20, "note": 65, "velocity": 95, "channel": 0}, {"type": "note_off", "time": 192, "note": 65, "velocity": 95, "channel": 0}, {"type": "note_on", "time": 32, "note": 67, "velocity": 91, "channel": 0}, {"type": "note_off", "time": 143, "note": 67, "velocity": 91, "channel": 0}, {"type": "note_on", "time": 48, "note": 69, "velocity": 107, "channel": 0}, {"type": "note_off", "time": 193, "note": 69, "velocity": 107, "channel": 0}, {"type": "note_on", "time": 3, "note": 70, "velocity": 105, "channel": 0}, {"type": "note_off", "time": 175, "note": 70, "velocity": 105, "channel": 0}, {"type": "note_on", "time": 54, "note": 77, "velocity": 117, "channel": 0}, {"type": "note_off", "time": 212, "note": 77, "velocity": 117, "channel": 0}, {"type": "note_on", "time": 3, "note": 76, "velocity": 100, "channel": 0}, {"type": "note_off", "time": 179, "note": 76, "velocity": 100, "channel": 0}, {"type": "note_on", "time": 3, "note": 77, "velocity": 107, "channel": 0}, {"type": "note_off", "time": 221, "note": 77, "velocity": 107, "channel": 0}, {"type": "note_on", "time": 13, "note": 76, "velocity": 114, "channel": 0}, {"type": "note_off", "time": 179, "note": 76, "velocity": 114, "channel": 0}, {"type": "note_on", "time": 17, "note": 74, "velocity": 105, "channel": 0}, {"type": "note_off", "time": 194, "note": 74, "velocity": 105, "channel": 0}, {"type": "note_on", "time": 52, "note": 73, "velocity": 106, "channel": 0}, {"type": "note_off", "time": 164, "note": 73, "velocity": 106, "channel": 0}, {"type": "note_on", "time": 40, "note": 73, "velocity": 105, "channel": 0}, {"type": "note_off", "time": 183, "note": 73, "velocity": 105, "channel": 0}, {"type": "note_on", "time": 13, "note": 77, "velocity": 106, "channel": 0}, {"type": "note_off", "time": 270, "note": 77, "velocity": 106, "channel": 0}, {"type": "note_on", "time": 15, "note": 74, "velocity": 95, "channel": 0}, {"type": "note_off", "time": 73, "note": 74, "velocity": 95, "channel": 0}, {"type": "note_on", "time": 17, "note": 71, "velocity": 101, "channel": 0}, {"type": "note_off", "time": 235, "note": 71, "velocity": 101, "channel": 0}, {"type": "note_on", "time": 911, "note": 72, "velocity": 114, "channel": 0}, {"type": "note_off", "time": 227, "note": 72, "velocity": 114, "channel": 0}, {"type": "note_on", "time": 127, "note": 71, "velocity": 114, "channel": 0}, {"type": "note_off", "time": 181, "note": 71, "velocity": 114, "channel": 0}, {"type": "note_on", "time": 9, "note": 70, "velocity": 113, "channel": 0}, {"type": "note_off", "time": 250, "note": 70, "velocity": 113, "channel": 0}, {"type": "note_on", "time": 858, "note": 76, "velocity": 106, "channel": 0}, {"type": "note_off", "time": 258, "note": 76, "velocity": 106, "channel": 0}, {"type": "note_on", "time": 148, "note": 74, "velocity": 111, "channel": 0}, {"type": "note_off", "time": 177, "note": 74, "velocity": 111, "channel": 0}, {"type": "note_on", "time": 11, "note": 71, "velocity": 114, "channel": 0}, {"type": "note_off", "time": 241, "note": 71, "velocity": 114, "channel": 0}, {"type": "note_on", "time": 459, "note": 74, "velocity": 96, "channel": 0}, {"type": "note_off", "time": 123, "note": 74, "velocity": 96, "channel": 0}, {"type": "note_on", "time": 19, "note": 75, "velocity": 90, "channel": 0}, {"type": "note_off", "time": 86, "note": 75, "velocity": 90, "channel": 0}, {"type": "note_on", "time": 15, "note": 74, "velocity": 91, "channel": 0}, {"type": "note_off", "time": 81, "note": 74, "velocity": 91, "channel": 0}, {"type": "note_on", "time": 92, "note": 81, "velocity": 109, "channel": 0}, {"type": "note_off", "time": 160, "note": 81, "velocity": 109, "channel": 0}, {"type": "note_on", "time": 36, "note": 84, "velocity": 120, "channel": 0}, {"type": "note_off", "time": 235, "note": 84, "velocity": 120, "channel": 0}, {"type": "note_on", "time": 11, "note": 81, "velocity": 108, "channel": 0}, {"type": "note_off", "time": 138, "note": 81, "velocity": 108, "channel": 0}, {"type": "note_on", "time": 11, "note": 82, "velocity": 112, "channel": 0}, {"type": "note_off", "time": 277, "note": 82, "velocity": 112, "channel": 0}, {"type": "note_on", "time": 25, "note": 81, "velocity": 115, "channel": 0}, {"type": "note_off", "time": 638, "note": 81, "velocity": 115, "channel": 0}, {"type": "note_on", "time": 1173, "note": 84, "velocity": 93, "channel": 0}, {"type": "note_off", "time": 67, "note": 84, "velocity": 93, "channel": 0}, {"type": "note_on", "time": 15, "note": 86, "velocity": 106, "channel": 0}, {"type": "note_off", "time": 1057, "note": 86, "velocity": 106, "channel": 0}, {"type": "note_on", "time": 1239, "note": 87, "velocity": 112, "channel": 0}, {"type": "note_off", "time": 245, "note": 87, "velocity": 112, "channel": 0}, {"type": "note_on", "time": 164, "note": 87, "velocity": 113, "channel": 0}, {"type": "note_off", "time": 248, "note": 87, "velocity": 113, "channel": 0}, {"type": "note_on", "time": 137, "note": 86, "velocity": 115, "channel": 0}, {"type": "note_off", "time": 71, "note": 86, "velocity": 115, "channel": 0}, {"type": "note_on", "time": 9, "note": 85, "velocity": 104, "channel": 0}, {"type": "note_off", "time": 123, "note": 85, "velocity": 104, "channel": 0}, {"type": "note_on", "time": 7, "note": 86, "velocity": 114, "channel": 0}, {"type": "note_off", "time": 264, "note": 86, "velocity": 114, "channel": 0}, {"type": "note_on", "time": 23, "note": 83, "velocity": 120, "channel": 0}, {"type": "note_off", "time": 374, "note": 83, "velocity": 120, "channel": 0}, {"type": "note_on", "time": 23, "note": 82, "velocity": 123, "channel": 0}, {"type": "note_off", "time": 413, "note": 82, "velocity": 123, "channel": 0}, {"type": "note_on", "time": 34, "note": 81, "velocity": 117, "channel": 0}, {"type": "note_off", "time": 345, "note": 81, "velocity": 117, "channel": 0}, {"type": "note_on", "time": 73, "note": 79, "velocity": 105, "channel": 0}, {"type": "note_off", "time": 200, "note": 79, "velocity": 105, "channel": 0}, {"type": "note_on", "time": 9, "note": 84, "velocity": 94, "channel": 0}, {"type": "note_off", "time": 58, "note": 84, "velocity": 94, "channel": 0}, {"type": "note_on", "time": 4, "note": 82, "velocity": 101, "channel": 0}, {"type": "note_off", "time": 36, "note": 82, "velocity": 101, "channel": 0}, {"type": "note_on", "time": 20, "note": 79, "velocity": 94, "channel": 0}, {"type": "note_off", "time": 44, "note": 79, "velocity": 94, "channel": 0}, {"type": "note_on", "time": 2, "note": 78, "velocity": 94, "channel": 0}, {"type": "note_off", "time": 35, "note": 78, "velocity": 94, "channel": 0}, {"type": "note_on", "time": 13, "note": 76, "velocity": 107, "channel": 0}, {"type": "note_off", "time": 160, "note": 76, "velocity": 107, "channel": 0}, {"type": "note_on", "time": 11, "note": 77, "velocity": 115, "channel": 0}, {"type": "note_off", "time": 198, "note": 77, "velocity": 115, "channel": 0}, {"type": "note_on", "time": 95, "note": 73, "velocity": 109, "channel": 0}, {"type": "note_off", "time": 244, "note": 73, "velocity": 109, "channel": 0}, {"type": "note_on", "time": 107, "note": 76, "velocity": 105, "channel": 0}, {"type": "note_off", "time": 242, "note": 76, "velocity": 105, "channel": 0}, {"type": "note_on", "time": 9, "note": 74, "velocity": 103, "channel": 0}, {"type": "note_off", "time": 184, "note": 74, "velocity": 103, "channel": 0}, {"type": "note_on", "time": 55, "note": 70, "velocity": 111, "channel": 0}, {"type": "note_off", "time": 228, "note": 70, "velocity": 111, "channel": 0}, {"type": "note_on", "time": 184, "note": 69, "velocity": 112, "channel": 0}, {"type": "note_off", "time": 165, "note": 69, "velocity": 112, "channel": 0}, {"type": "note_on", "time": 42, "note": 67, "velocity": 97, "channel": 0}, {"type": "note_off", "time": 158, "note": 67, "velocity": 97, "channel": 0}, {"type": "note_on", "time": 50, "note": 65, "velocity": 105, "channel": 0}, {"type": "note_off", "time": 173, "note": 65, "velocity": 105, "channel": 0}, {"type": "note_on", "time": 42, "note": 63, "velocity": 106, "channel": 0}, {"type": "note_off", "time": 169, "note": 63, "velocity": 106, "channel": 0}, {"type": "note_on", "time": 57, "note": 57, "velocity": 96, "channel": 0}, {"type": "note_off", "time": 141, "note": 57, "velocity": 96, "channel": 0}, {"type": "note_on", "time": 57, "note": 61, "velocity": 95, "channel": 0}, {"type": "note_off", "time": 190, "note": 61, "velocity": 95, "channel": 0}, {"type": "note_on", "time": 13, "note": 64, "velocity": 101, "channel": 0}, {"type": "note_off", "time": 179, "note": 64, "velocity": 101, "channel": 0}, {"type": "note_on", "time": 29, "note": 62, "velocity": 90, "channel": 0}, {"type": "note_off", "time": 173, "note": 62, "velocity": 90, "channel": 0}, {"type": "note_on", "time": 75, "note": 57, "velocity": 109, "channel": 0}, {"type": "note_off", "time": 152, "note": 57, "velocity": 109, "channel": 0}, {"type": "note_on", "time": 29, "note": 69, "velocity": 97, "channel": 0}, {"type": "note_off", "time": 244, "note": 69, "velocity": 97, "channel": 0}, {"type": "note_on", "time": 146, "note": 67, "velocity": 93, "channel": 0}, {"type": "note_off", "time": 279, "note": 67, "velocity": 93, "channel": 0}, {"type": "note_on", "time": 168, "note": 70, "velocity": 10, "channel": 0}, {"type": "note_off", "time": 268, "note": 70, "velocity": 10, "channel": 0}, {"type": "note_on", "time": 152, "note": 69, "velocity": 99, "channel": 0}, {"type": "note_off", "time": 363, "note": 69, "velocity": 99, "channel": 0}, {"type": "note_on", "time": 38, "note": 73, "velocity": 97, "channel": 0}, {"type": "note_off", "time": 252, "note": 73, "velocity": 97, "channel": 0}, {"type": "note_on", "time": 59, "note": 69, "velocity": 90, "channel": 0}, {"type": "note_off", "time": 135, "note": 69, "velocity": 90, "channel": 0}, {"type": "note_on", "time": 16, "note": 71, "velocity": 104, "channel": 0}, {"type": "note_off", "time": 320, "note": 71, "velocity": 104, "channel": 0}, {"type": "note_on", "time": 97, "note": 79, "velocity": 99, "channel": 0}, {"type": "note_off", "time": 116, "note": 79, "velocity": 99, "channel": 0}, {"type": "note_on", "time": 5, "note": 76, "velocity": 103, "channel": 0}, {"type": "note_off", "time": 119, "note": 76, "velocity": 103, "channel": 0}, {"type": "note_on", "time": 8, "note": 73, "velocity": 85, "channel": 0}, {"type": "note_off", "time": 146, "note": 73, "velocity": 85, "channel": 0}, {"type": "note_on", "time": 24, "note": 74, "velocity": 101, "channel": 0}, {"type": "note_off", "time": 276, "note": 74, "velocity": 101, "channel": 0}, {"type": "note_on", "time": 1169, "note": 81, "velocity": 112, "channel": 0}, {"type": "note_off", "time": 89, "note": 81, "velocity": 112, "channel": 0}, {"type": "note_on", "time": 12, "note": 80, "velocity": 111, "channel": 0}, {"type": "note_off", "time": 90, "note": 80, "velocity": 111, "channel": 0}, {"type": "note_on", "time": 6, "note": 81, "velocity": 112, "channel": 0}, {"type": "note_off", "time": 131, "note": 81, "velocity": 112, "channel": 0}, {"type": "note_on", "time": 120, "note": 73, "velocity": 99, "channel": 0}, {"type": "note_off", "time": 73, "note": 73, "velocity": 99, "channel": 0}, {"type": "note_on", "time": 4, "note": 74, "velocity": 91, "channel": 0}, {"type": "note_off", "time": 78, "note": 74, "velocity": 91, "channel": 0}, {"type": "note_on", "time": 8, "note": 76, "velocity": 106, "channel": 0}, {"type": "note_off", "time": 152, "note": 76, "velocity": 106, "channel": 0}, {"type": "note_on", "time": 105, "note": 69, "velocity": 100, "channel": 0}, {"type": "note_off", "time": 80, "note": 69, "velocity": 100, "channel": 0}, {"type": "note_on", "time": 8, "note": 68, "velocity": 101, "channel": 0}, {"type": "note_off", "time": 81, "note": 68, "velocity": 101, "channel": 0}, {"type": "note_on", "time": 5, "note": 69, "velocity": 108, "channel": 0}, {"type": "note_off", "time": 111, "note": 69, "velocity": 108, "channel": 0}, {"type": "note_on", "time": 1054, "note": 64, "velocity": 94, "channel": 0}, {"type": "note_off", "time": 111, "note": 64, "velocity": 94, "channel": 0}, {"type": "note_on", "time": 17, "note": 67, "velocity": 96, "channel": 0}, {"type": "note_off", "time": 52, "note": 67, "velocity": 96, "channel": 0}, {"type": "note_on", "time": 2, "note": 69, "velocity": 106, "channel": 0}, {"type": "note_off", "time": 76, "note": 69, "velocity": 106, "channel": 0}, {"type": "note_on", "time": 1, "note": 67, "velocity": 100, "channel": 0}, {"type": "note_off", "time": 89, "note": 67, "velocity": 100, "channel": 0}, {"type": "note_on", "time": 24, "note": 64, "velocity": 92, "channel": 0}, {"type": "note_off", "time": 137, "note": 64, "velocity": 92, "channel": 0}, {"type": "note_on", "time": 86, "note": 66, "velocity": 84, "channel": 0}, {"type": "note_off", "time": 77, "note": 66, "velocity": 84, "channel": 0}, {"type": "note_on", "time": 4, "note": 69, "velocity": 86, "channel": 0}, {"type": "note_off", "time": 92, "note": 69, "velocity": 86, "channel": 0}, {"type": "note_on", "time": 19, "note": 72, "velocity": 110, "channel": 0}, {"type": "note_off", "time": 166, "note": 72, "velocity": 110, "channel": 0}, {"type": "note_on", "time": 49, "note": 75, "velocity": 114, "channel": 0}, {"type": "note_off", "time": 274, "note": 75, "velocity": 114, "channel": 0}, {"type": "note_on", "time": 17, "note": 73, "velocity": 93, "channel": 0}, {"type": "note_off", "time": 101, "note": 73, "velocity": 93, "channel": 0}, {"type": "note_on", "time": 63, "note": 74, "velocity": 112, "channel": 0}, {"type": "note_off", "time": 359, "note": 74, "velocity": 112, "channel": 0}, {"type": "note_on", "time": 411, "note": 77, "velocity": 106, "channel": 0}, {"type": "note_off", "time": 57, "note": 77, "velocity": 106, "channel": 0}, {"type": "note_on", "time": 5, "note": 76, "velocity": 107, "channel": 0}, {"type": "note_off", "time": 111, "note": 76, "velocity": 107, "channel": 0}, {"type": "note_on", "time": 8, "note": 74, "velocity": 89, "channel": 0}, {"type": "note_off", "time": 116, "note": 74, "velocity": 89, "channel": 0}, {"type": "note_on", "time": 5, "note": 79, "velocity": 109, "channel": 0}, {"type": "note_off", "time": 152, "note": 79, "velocity": 109, "channel": 0}, {"type": "note_on", "time": 1589, "note": 82, "velocity": 113, "channel": 0}, {"type": "note_off", "time": 65, "note": 82, "velocity": 113, "channel": 0}, {"type": "note_on", "time": 4, "note": 80, "velocity": 112, "channel": 0}, {"type": "note_off", "time": 116, "note": 80, "velocity": 112, "channel": 0}, {"type": "note_on", "time": 8, "note": 79, "velocity": 112, "channel": 0}, {"type": "note_off", "time": 210, "note": 79, "velocity": 112, "channel": 0}, {"type": "note_on", "time": 16, "note": 77, "velocity": 109, "channel": 0}, {"type": "note_off", "time": 202, "note": 77, "velocity": 109, "channel": 0}, {"type": "note_on", "time": 27, "note": 76, "velocity": 106, "channel": 0}, {"type": "note_off", "time": 207, "note": 76, "velocity": 106, "channel": 0}, {"type": "note_on", "time": 26, "note": 74, "velocity": 97, "channel": 0}, {"type": "note_off", "time": 186, "note": 74, "velocity": 97, "channel": 0}, {"type": "note_on", "time": 11, "note": 74, "velocity": 101, "channel": 0}, {"type": "note_off", "time": 97, "note": 74, "velocity": 101, "channel": 0}, {"type": "note_on", "time": 5, "note": 72, "velocity": 109, "channel": 0}, {"type": "note_off", "time": 103, "note": 72, "velocity": 109, "channel": 0}, {"type": "note_on", "time": 5, "note": 71, "velocity": 107, "channel": 0}, {"type": "note_off", "time": 162, "note": 71, "velocity": 107, "channel": 0}, {"type": "note_on", "time": 47, "note": 70, "velocity": 107, "channel": 0}, {"type": "note_off", "time": 192, "note": 70, "velocity": 107, "channel": 0}, {"type": "note_on", "time": 27, "note": 74, "velocity": 106, "channel": 0}, {"type": "note_off", "time": 176, "note": 74, "velocity": 106, "channel": 0}, {"type": "note_on", "time": 24, "note": 69, "velocity": 110, "channel": 0}, {"type": "note_off", "time": 210, "note": 69, "velocity": 110, "channel": 0}, {"type": "note_on", "time": 8, "note": 67, "velocity": 103, "channel": 0}, {"type": "note_off", "time": 218, "note": 67, "velocity": 103, "channel": 0}, {"type": "note_on", "time": 13, "note": 62, "velocity": 87, "channel": 0}, {"type": "note_off", "time": 142, "note": 62, "velocity": 87, "channel": 0}, {"type": "note_on", "time": 29, "note": 65, "velocity": 107, "channel": 0}, {"type": "note_off", "time": 200, "note": 65, "velocity": 107, "channel": 0}, {"type": "note_on", "time": 30, "note": 64, "velocity": 85, "channel": 0}, {"type": "note_off", "time": 170, "note": 64, "velocity": 85, "channel": 0}, {"type": "note_on", "time": 33, "note": 67, "velocity": 102, "channel": 0}, {"type": "note_off", "time": 176, "note": 67, "velocity": 102, "channel": 0}, {"type": "note_on", "time": 22, "note": 70, "velocity": 97, "channel": 0}, {"type": "note_off", "time": 179, "note": 70, "velocity": 97, "channel": 0}, {"type": "note_on", "time": 50, "note": 72, "velocity": 111, "channel": 0}, {"type": "note_off", "time": 165, "note": 72, "velocity": 111, "channel": 0}, {"type": "note_on", "time": 30, "note": 73, "velocity": 103, "channel": 0}, {"type": "note_off", "time": 179, "note": 73, "velocity": 103, "channel": 0}, {"type": "note_on", "time": 2, "note": 75, "velocity": 112, "channel": 0}, {"type": "note_off", "time": 225, "note": 75, "velocity": 112, "channel": 0}, {"type": "note_on", "time": 8, "note": 69, "velocity": 91, "channel": 0}, {"type": "note_off", "time": 33, "note": 69, "velocity": 91, "channel": 0}, {"type": "note_on", "time": 2, "note": 72, "velocity": 105, "channel": 0}, {"type": "note_off", "time": 162, "note": 72, "velocity": 105, "channel": 0}, {"type": "note_on", "time": 32, "note": 69, "velocity": 109, "channel": 0}, {"type": "note_off", "time": 221, "note": 69, "velocity": 109, "channel": 0}, {"type": "note_on", "time": 24, "note": 67, "velocity": 102, "channel": 0}, {"type": "note_off", "time": 167, "note": 67, "velocity": 102, "channel": 0}, {"type": "note_on", "time": 26, "note": 65, "velocity": 105, "channel": 0}, {"type": "note_off", "time": 213, "note": 65, "velocity": 105, "channel": 0}, {"type": "note_on", "time": 12, "note": 64, "velocity": 84, "channel": 0}, {"type": "note_off", "time": 202, "note": 64, "velocity": 84, "channel": 0}, {"type": "note_on", "time": 17, "note": 65, "velocity": 105, "channel": 0}, {"type": "note_off", "time": 182, "note": 65, "velocity": 105, "channel": 0}, {"type": "note_on", "time": 5, "note": 67, "velocity": 103, "channel": 0}, {"type": "note_off", "time": 112, "note": 67, "velocity": 103, "channel": 0}, {"type": "note_on", "time": 14, "note": 69, "velocity": 101, "channel": 0}, {"type": "note_off", "time": 73, "note": 69, "velocity": 101, "channel": 0}, {"type": "note_on", "time": 9, "note": 67, "velocity": 93, "channel": 0}, {"type": "note_off", "time": 68, "note": 67, "velocity": 93, "channel": 0}, {"type": "note_on", "time": 2, "note": 65, "velocity": 104, "channel": 0}, {"type": "note_off", "time": 135, "note": 65, "velocity": 104, "channel": 0}, {"type": "note_on", "time": 22, "note": 64, "velocity": 98, "channel": 0}, {"type": "note_off", "time": 67, "note": 64, "velocity": 98, "channel": 0}, {"type": "note_on", "time": 9, "note": 65, "velocity": 104, "channel": 0}, {"type": "note_off", "time": 82, "note": 65, "velocity": 104, "channel": 0}, {"type": "note_on", "time": 9, "note": 64, "velocity": 103, "channel": 0}, {"type": "note_off", "time": 84, "note": 64, "velocity": 103, "channel": 0}, {"type": "note_on", "time": 14, "note": 62, "velocity": 99, "channel": 0}, {"type": "note_off", "time": 77, "note": 62, "velocity": 99, "channel": 0}, {"type": "note_on", "time": 8, "note": 61, "velocity": 102, "channel": 0}, {"type": "note_off", "time": 298, "note": 61, "velocity": 102, "channel": 0}, {"type": "note_on", "time": 9, "note": 66, "velocity": 105, "channel": 0}, {"type": "note_off", "time": 40, "note": 66, "velocity": 105, "channel": 0}, {"type": "note_on", "time": 8, "note": 67, "velocity": 104, "channel": 0}, {"type": "note_off", "time": 115, "note": 67, "velocity": 104, "channel": 0}, {"type": "note_on", "time": 32, "note": 70, "velocity": 109, "channel": 0}, {"type": "note_off", "time": 200, "note": 70, "velocity": 109, "channel": 0}, {"type": "note_on", "time": 15, "note": 69, "velocity": 103, "channel": 0}, {"type": "note_off", "time": 180, "note": 69, "velocity": 103, "channel": 0}, {"type": "note_on", "time": 25, "note": 67, "velocity": 109, "channel": 0}, {"type": "note_off", "time": 212, "note": 67, "velocity": 109, "channel": 0}, {"type": "note_on", "time": 23, "note": 65, "velocity": 110, "channel": 0}, {"type": "note_off", "time": 157, "note": 65, "velocity": 110, "channel": 0}, {"type": "note_on", "time": 19, "note": 63, "velocity": 106, "channel": 0}, {"type": "note_off", "time": 198, "note": 63, "velocity": 106, "channel": 0}, {"type": "note_on", "time": 48, "note": 57, "velocity": 92, "channel": 0}, {"type": "note_off", "time": 115, "note": 57, "velocity": 92, "channel": 0}, {"type": "note_on", "time": 47, "note": 61, "velocity": 96, "channel": 0}, {"type": "note_off", "time": 219, "note": 61, "velocity": 96, "channel": 0}, {"type": "note_on", "time": 21, "note": 63, "velocity": 101, "channel": 0}, {"type": "note_off", "time": 177, "note": 63, "velocity": 101, "channel": 0}, {"type": "note_on", "time": 34, "note": 65, "velocity": 104, "channel": 0}, {"type": "note_off", "time": 239, "note": 65, "velocity": 104, "channel": 0}, {"type": "note_on", "time": 3, "note": 63, "velocity": 104, "channel": 0}, {"type": "note_off", "time": 119, "note": 63, "velocity": 104, "channel": 0}, {"type": "note_on", "time": 7, "note": 61, "velocity": 103, "channel": 0}, {"type": "note_off", "time": 301, "note": 61, "velocity": 103, "channel": 0}, {"type": "note_on", "time": 5, "note": 63, "velocity": 93, "channel": 0}, {"type": "note_off", "time": 111, "note": 63, "velocity": 93, "channel": 0}, {"type": "note_on", "time": 11, "note": 64, "velocity": 101, "channel": 0}, {"type": "note_off", "time": 245, "note": 64, "velocity": 101, "channel": 0}, {"type": "note_on", "time": 44, "note": 65, "velocity": 91, "channel": 0}, {"type": "note_off", "time": 548, "note": 65, "velocity": 91, "channel": 0}, {"type": "note_on", "time": 40, "note": 59, "velocity": 91, "channel": 0}, {"type": "note_off", "time": 202, "note": 59, "velocity": 91, "channel": 0}, {"type": "note_on", "time": 1044, "note": 61, "velocity": 102, "channel": 0}, {"type": "note_off", "time": 86, "note": 61, "velocity": 102, "channel": 0}, {"type": "note_on", "time": 50, "note": 64, "velocity": 89, "channel": 0}, {"type": "note_off", "time": 54, "note": 64, "velocity": 89, "channel": 0}, {"type": "note_on", "time": 3, "note": 68, "velocity": 101, "channel": 0}, {"type": "note_off", "time": 92, "note": 68, "velocity": 101, "channel": 0}, {"type": "note_on", "time": 21, "note": 72, "velocity": 115, "channel": 0}, {"type": "note_off", "time": 131, "note": 72, "velocity": 115, "channel": 0}, {"type": "note_on", "time": 30, "note": 70, "velocity": 114, "channel": 0}, {"type": "note_off", "time": 225, "note": 70, "velocity": 114, "channel": 0}, {"type": "note_on", "time": 36, "note": 58, "velocity": 100, "channel": 0}, {"type": "note_off", "time": 133, "note": 58, "velocity": 100, "channel": 0}, {"type": "note_on", "time": 1, "note": 63, "velocity": 110, "channel": 0}, {"type": "note_off", "time": 243, "note": 63, "velocity": 110, "channel": 0}, {"type": "note_on", "time": 36, "note": 61, "velocity": 104, "channel": 0}, {"type": "note_off", "time": 123, "note": 61, "velocity": 104, "channel": 0}, {"type": "note_on", "time": 27, "note": 62, "velocity": 103, "channel": 0}, {"type": "note_off", "time": 386, "note": 62, "velocity": 103, "channel": 0}, {"type": "note_on", "time": 48, "note": 65, "velocity": 83, "channel": 0}, {"type": "note_off", "time": 84, "note": 65, "velocity": 83, "channel": 0}, {"type": "note_on", "time": 13, "note": 69, "velocity": 86, "channel": 0}, {"type": "note_off", "time": 86, "note": 69, "velocity": 86, "channel": 0}, {"type": "note_on", "time": 7, "note": 73, "velocity": 94, "channel": 0}, {"type": "note_off", "time": 96, "note": 73, "velocity": 94, "channel": 0}, {"type": "note_on", "time": 1, "note": 76, "velocity": 116, "channel": 0}, {"type": "note_off", "time": 140, "note": 76, "velocity": 116, "channel": 0}, {"type": "note_on", "time": 13, "note": 77, "velocity": 122, "channel": 0}, {"type": "note_off", "time": 270, "note": 77, "velocity": 122, "channel": 0}, {"type": "note_on", "time": 13, "note": 74, "velocity": 111, "channel": 0}, {"type": "note_off", "time": 287, "note": 74, "velocity": 111, "channel": 0}, {"type": "note_on", "time": 84, "note": 71, "velocity": 108, "channel": 0}, {"type": "note_off", "time": 200, "note": 71, "velocity": 108, "channel": 0}, {"type": "note_on", "time": 169, "note": 69, "velocity": 110, "channel": 0}, {"type": "note_off", "time": 291, "note": 69, "velocity": 110, "channel": 0}, {"type": "note_on", "time": 1825, "note": 69, "velocity": 105, "channel": 0}, {"type": "note_off", "time": 196, "note": 69, "velocity": 105, "channel": 0}, {"type": "note_on", "time": 9, "note": 70, "velocity": 111, "channel": 0}, {"type": "note_off", "time": 198, "note": 70, "velocity": 111, "channel": 0}, {"type": "note_on", "time": 17, "note": 69, "velocity": 117, "channel": 0}, {"type": "note_off", "time": 191, "note": 69, "velocity": 117, "channel": 0}, {"type": "note_on", "time": 13, "note": 68, "velocity": 100, "channel": 0}, {"type": "note_off", "time": 164, "note": 68, "velocity": 100, "channel": 0}, {"type": "note_on", "time": 28, "note": 69, "velocity": 96, "channel": 0}, {"type": "note_off", "time": 221, "note": 69, "velocity": 96, "channel": 0}, {"type": "note_on", "time": 21, "note": 73, "velocity": 116, "channel": 0}, {"type": "note_off", "time": 223, "note": 73, "velocity": 116, "channel": 0}, {"type": "note_on", "time": 21, "note": 74, "velocity": 116, "channel": 0}, {"type": "note_off", "time": 181, "note": 74, "velocity": 116, "channel": 0}, {"type": "note_on", "time": 32, "note": 76, "velocity": 120, "channel": 0}, {"type": "note_off", "time": 185, "note": 76, "velocity": 120, "channel": 0}, {"type": "note_on", "time": 28, "note": 77, "velocity": 121, "channel": 0}, {"type": "note_off", "time": 202, "note": 77, "velocity": 121, "channel": 0}, {"type": "note_on", "time": 9, "note": 79, "velocity": 111, "channel": 0}, {"type": "note_off", "time": 179, "note": 79, "velocity": 111, "channel": 0}, {"type": "note_on", "time": 3, "note": 81, "velocity": 120, "channel": 0}, {"type": "note_off", "time": 158, "note": 81, "velocity": 120, "channel": 0}, {"type": "note_on", "time": 19, "note": 82, "velocity": 123, "channel": 0}, {"type": "note_off", "time": 245, "note": 82, "velocity": 123, "channel": 0}, {"type": "note_on", "time": 37, "note": 81, "velocity": 119, "channel": 0}, {"type": "note_off", "time": 233, "note": 81, "velocity": 119, "channel": 0}, {"type": "note_on", "time": 1574, "note": 75, "velocity": 103, "channel": 0}, {"type": "note_off", "time": 502, "note": 75, "velocity": 103, "channel": 0}, {"type": "note_on", "time": 27, "note": 78, "velocity": 89, "channel": 0}, {"type": "note_off", "time": 54, "note": 78, "velocity": 89, "channel": 0}, {"type": "note_on", "time": 20, "note": 80, "velocity": 93, "channel": 0}, {"type": "note_off", "time": 74, "note": 80, "velocity": 93, "channel": 0}, {"type": "note_on", "time": 20, "note": 82, "velocity": 95, "channel": 0}, {"type": "note_off", "time": 75, "note": 82, "velocity": 95, "channel": 0}, {"type": "note_on", "time": 11, "note": 85, "velocity": 90, "channel": 0}, {"type": "note_off", "time": 63, "note": 85, "velocity": 90, "channel": 0}, {"type": "note_on", "time": 31, "note": 88, "velocity": 119, "channel": 0}, {"type": "note_off", "time": 187, "note": 88, "velocity": 119, "channel": 0}, {"type": "note_on", "time": 10, "note": 87, "velocity": 122, "channel": 0}, {"type": "note_off", "time": 420, "note": 87, "velocity": 122, "channel": 0}, {"type": "note_on", "time": 25, "note": 86, "velocity": 107, "channel": 0}, {"type": "note_off", "time": 290, "note": 86, "velocity": 107, "channel": 0}, {"type": "note_on", "time": 93, "note": 83, "velocity": 103, "channel": 0}, {"type": "note_off", "time": 506, "note": 83, "velocity": 103, "channel": 0}, {"type": "note_on", "time": 1190, "note": 73, "velocity": 109, "channel": 0}, {"type": "note_off", "time": 200, "note": 73, "velocity": 109, "channel": 0}, {"type": "note_on", "time": 5, "note": 74, "velocity": 114, "channel": 0}, {"type": "note_off", "time": 208, "note": 74, "velocity": 114, "channel": 0}, {"type": "note_on", "time": 25, "note": 75, "velocity": 112, "channel": 0}, {"type": "note_off", "time": 187, "note": 75, "velocity": 112, "channel": 0}, {"type": "note_on", "time": 18, "note": 77, "velocity": 113, "channel": 0}, {"type": "note_off", "time": 194, "note": 77, "velocity": 113, "channel": 0}, {"type": "note_on", "time": 19, "note": 79, "velocity": 111, "channel": 0}, {"type": "note_off", "time": 181, "note": 79, "velocity": 111, "channel": 0}, {"type": "note_on", "time": 17, "note": 81, "velocity": 121, "channel": 0}, {"type": "note_off", "time": 203, "note": 81, "velocity": 121, "channel": 0}, {"type": "note_on", "time": 9, "note": 82, "velocity": 123, "channel": 0}, {"type": "note_off", "time": 310, "note": 82, "velocity": 123, "channel": 0}, {"type": "note_on", "time": 5, "note": 81, "velocity": 105, "channel": 0}, {"type": "note_off", "time": 308, "note": 81, "velocity": 105, "channel": 0}, {"type": "note_on", "time": 25, "note": 79, "velocity": 109, "channel": 0}, {"type": "note_off", "time": 272, "note": 79, "velocity": 109, "channel": 0}, {"type": "note_on", "time": 20, "note": 77, "velocity": 110, "channel": 0}, {"type": "note_off", "time": 142, "note": 77, "velocity": 110, "channel": 0}, {"type": "note_on", "time": 6, "note": 74, "velocity": 102, "channel": 0}, {"type": "note_off", "time": 215, "note": 74, "velocity": 102, "channel": 0}, {"type": "note_on", "time": 871, "note": 75, "velocity": 112, "channel": 0}, {"type": "note_off", "time": 294, "note": 75, "velocity": 112, "channel": 0}, {"type": "note_on", "time": 35, "note": 80, "velocity": 95, "channel": 0}, {"type": "note_off", "time": 111, "note": 80, "velocity": 95, "channel": 0}, {"type": "note_on", "time": 19, "note": 82, "velocity": 96, "channel": 0}, {"type": "note_off", "time": 103, "note": 82, "velocity": 96, "channel": 0}, {"type": "note_on", "time": 10, "note": 84, "velocity": 109, "channel": 0}, {"type": "note_off", "time": 85, "note": 84, "velocity": 109, "channel": 0}, {"type": "note_on", "time": 12, "note": 86, "velocity": 117, "channel": 0}, {"type": "note_off", "time": 107, "note": 86, "velocity": 117, "channel": 0}, {"type": "note_on", "time": 13, "note": 87, "velocity": 122, "channel": 0}, {"type": "note_off", "time": 408, "note": 87, "velocity": 122, "channel": 0}, {"type": "note_on", "time": 81, "note": 84, "velocity": 117, "channel": 0}, {"type": "note_off", "time": 259, "note": 84, "velocity": 117, "channel": 0}, {"type": "note_on", "time": 161, "note": 83, "velocity": 100, "channel": 0}, {"type": "note_off", "time": 385, "note": 83, "velocity": 100, "channel": 0}, {"type": "note_on", "time": 1754, "note": 81, "velocity": 115, "channel": 0}, {"type": "note_off", "time": 221, "note": 81, "velocity": 115, "channel": 0}, {"type": "note_on", "time": 332, "note": 82, "velocity": 109, "channel": 0}, {"type": "note_off", "time": 124, "note": 82, "velocity": 109, "channel": 0}, {"type": "note_on", "time": 9, "note": 81, "velocity": 108, "channel": 0}, {"type": "note_off", "time": 451, "note": 81, "velocity": 108, "channel": 0}, {"type": "note_on", "time": 1115, "note": 81, "velocity": 108, "channel": 0}, {"type": "note_off", "time": 183, "note": 81, "velocity": 108, "channel": 0}, {"type": "note_on", "time": 206, "note": 87, "velocity": 115, "channel": 0}, {"type": "note_off", "time": 830, "note": 87, "velocity": 115, "channel": 0}, {"type": "note_on", "time": 12, "note": 83, "velocity": 120, "channel": 0}, {"type": "note_off", "time": 428, "note": 83, "velocity": 120, "channel": 0}, {"type": "note_on", "time": 236, "note": 89, "velocity": 113, "channel": 0}, {"type": "note_off", "time": 244, "note": 89, "velocity": 113, "channel": 0}, {"type": "note_on", "time": 198, "note": 88, "velocity": 110, "channel": 0}, {"type": "note_off", "time": 222, "note": 88, "velocity": 110, "channel": 0}, {"type": "note_on", "time": 139, "note": 86, "velocity": 107, "channel": 0}, {"type": "note_off", "time": 222, "note": 86, "velocity": 107, "channel": 0}, {"type": "note_on", "time": 28, "note": 85, "velocity": 101, "channel": 0}, {"type": "note_off", "time": 247, "note": 85, "velocity": 101, "channel": 0}, {"type": "note_on", "time": 119, "note": 88, "velocity": 101, "channel": 0}, {"type": "note_off", "time": 152, "note": 88, "velocity": 101, "channel": 0}, {"type": "note_on", "time": 4, "note": 87, "velocity": 120, "channel": 0}, {"type": "note_off", "time": 515, "note": 87, "velocity": 120, "channel": 0}, {"type": "note_on", "time": 13, "note": 86, "velocity": 110, "channel": 0}, {"type": "note_off", "time": 93, "note": 86, "velocity": 110, "channel": 0}, {"type": "note_on", "time": 9, "note": 87, "velocity": 106, "channel": 0}, {"type": "note_off", "time": 82, "note": 87, "velocity": 106, "channel": 0}, {"type": "note_on", "time": 9, "note": 85, "velocity": 99, "channel": 0}, {"type": "note_off", "time": 179, "note": 85, "velocity": 99, "channel": 0}, {"type": "note_on", "time": 8, "note": 84, "velocity": 112, "channel": 0}, {"type": "note_off", "time": 173, "note": 84, "velocity": 112, "channel": 0}, {"type": "note_on", "time": 10, "note": 82, "velocity": 119, "channel": 0}, {"type": "note_off", "time": 191, "note": 82, "velocity": 119, "channel": 0}, {"type": "note_on", "time": 6, "note": 81, "velocity": 117, "channel": 0}, {"type": "note_off", "time": 218, "note": 81, "velocity": 117, "channel": 0}, {"type": "note_on", "time": 25, "note": 79, "velocity": 105, "channel": 0}, {"type": "note_off", "time": 161, "note": 79, "velocity": 105, "channel": 0}, {"type": "note_on", "time": 14, "note": 77, "velocity": 117, "channel": 0}, {"type": "note_off", "time": 185, "note": 77, "velocity": 117, "channel": 0}, {"type": "note_on", "time": 35, "note": 76, "velocity": 108, "channel": 0}, {"type": "note_off", "time": 206, "note": 76, "velocity": 108, "channel": 0}, {"type": "note_on", "time": 5, "note": 73, "velocity": 89, "channel": 0}, {"type": "note_off", "time": 154, "note": 73, "velocity": 89, "channel": 0}, {"type": "note_on", "time": 17, "note": 74, "velocity": 101, "channel": 0}, {"type": "note_off", "time": 225, "note": 74, "velocity": 101, "channel": 0}, {"type": "note_on", "time": 20, "note": 76, "velocity": 111, "channel": 0}, {"type": "note_off", "time": 192, "note": 76, "velocity": 111, "channel": 0}, {"type": "note_on", "time": 9, "note": 77, "velocity": 117, "channel": 0}, {"type": "note_off", "time": 196, "note": 77, "velocity": 117, "channel": 0}, {"type": "note_on", "time": 16, "note": 79, "velocity": 107, "channel": 0}, {"type": "note_off", "time": 168, "note": 79, "velocity": 107, "channel": 0}, {"type": "note_on", "time": 28, "note": 81, "velocity": 109, "channel": 0}, {"type": "note_off", "time": 196, "note": 81, "velocity": 109, "channel": 0}, {"type": "note_on", "time": 14, "note": 77, "velocity": 114, "channel": 0}, {"type": "note_off", "time": 230, "note": 77, "velocity": 114, "channel": 0}, {"type": "note_on", "time": 12, "note": 79, "velocity": 104, "channel": 0}, {"type": "note_off", "time": 175, "note": 79, "velocity": 104, "channel": 0}, {"type": "note_on", "time": 10, "note": 83, "velocity": 105, "channel": 0}, {"type": "note_off", "time": 202, "note": 83, "velocity": 105, "channel": 0}, {"type": "note_on", "time": 34, "note": 74, "velocity": 100, "channel": 0}, {"type": "note_off", "time": 165, "note": 74, "velocity": 100, "channel": 0}, {"type": "note_on", "time": 29, "note": 79, "velocity": 103, "channel": 0}, {"type": "note_off", "time": 173, "note": 79, "velocity": 103, "channel": 0}, {"type": "note_on", "time": 46, "note": 77, "velocity": 106, "channel": 0}, {"type": "note_off", "time": 109, "note": 77, "velocity": 106, "channel": 0}, {"type": "note_on", "time": 11, "note": 75, "velocity": 92, "channel": 0}, {"type": "note_off", "time": 93, "note": 75, "velocity": 92, "channel": 0}, {"type": "note_on", "time": 6, "note": 77, "velocity": 108, "channel": 0}, {"type": "note_off", "time": 160, "note": 77, "velocity": 108, "channel": 0}, {"type": "note_on", "time": 13, "note": 73, "velocity": 98, "channel": 0}, {"type": "note_off", "time": 249, "note": 73, "velocity": 98, "channel": 0}, {"type": "note_on", "time": 31, "note": 72, "velocity": 93, "channel": 0}, {"type": "note_off", "time": 161, "note": 72, "velocity": 93, "channel": 0}, {"type": "note_on", "time": 36, "note": 71, "velocity": 100, "channel": 0}, {"type": "note_off", "time": 177, "note": 71, "velocity": 100, "channel": 0}, {"type": "note_on", "time": 36, "note": 73, "velocity": 95, "channel": 0}, {"type": "note_off", "time": 176, "note": 73, "velocity": 95, "channel": 0}, {"type": "note_on", "time": 32, "note": 69, "velocity": 104, "channel": 0}, {"type": "note_off", "time": 172, "note": 69, "velocity": 104, "channel": 0}, {"type": "note_on", "time": 24, "note": 71, "velocity": 99, "channel": 0}, {"type": "note_off", "time": 192, "note": 71, "velocity": 99, "channel": 0}, {"type": "note_on", "time": 21, "note": 67, "velocity": 100, "channel": 0}, {"type": "note_off", "time": 196, "note": 67, "velocity": 100, "channel": 0}, {"type": "note_on", "time": 5, "note": 69, "velocity": 99, "channel": 0}, {"type": "note_off", "time": 198, "note": 69, "velocity": 99, "channel": 0}, {"type": "note_on", "time": 28, "note": 65, "velocity": 103, "channel": 0}, {"type": "note_off", "time": 164, "note": 65, "velocity": 103, "channel": 0}, {"type": "note_on", "time": 27, "note": 67, "velocity": 99, "channel": 0}, {"type": "note_off", "time": 152, "note": 67, "velocity": 99, "channel": 0}, {"type": "note_on", "time": 39, "note": 65, "velocity": 98, "channel": 0}, {"type": "note_off", "time": 107, "note": 65, "velocity": 98, "channel": 0}, {"type": "note_on", "time": 9, "note": 63, "velocity": 102, "channel": 0}, {"type": "note_off", "time": 90, "note": 63, "velocity": 102, "channel": 0}, {"type": "note_on", "time": 9, "note": 61, "velocity": 102, "channel": 0}, {"type": "note_off", "time": 157, "note": 61, "velocity": 102, "channel": 0}, {"type": "note_on", "time": 32, "note": 61, "velocity": 93, "channel": 0}, {"type": "note_off", "time": 221, "note": 61, "velocity": 93, "channel": 0}, {"type": "note_on", "time": 842, "note": 64, "velocity": 105, "channel": 0}, {"type": "note_off", "time": 157, "note": 64, "velocity": 105, "channel": 0}, {"type": "note_on", "time": 16, "note": 62, "velocity": 101, "channel": 0}, {"type": "note_off", "time": 240, "note": 62, "velocity": 101, "channel": 0}, {"type": "note_on", "time": 24, "note": 69, "velocity": 114, "channel": 0}, {"type": "note_off", "time": 193, "note": 69, "velocity": 114, "channel": 0}, {"type": "note_on", "time": 1468, "note": 69, "velocity": 107, "channel": 0}, {"type": "note_off", "time": 171, "note": 69, "velocity": 107, "channel": 0}, {"type": "note_on", "time": 10, "note": 71, "velocity": 101, "channel": 0}, {"type": "note_off", "time": 211, "note": 71, "velocity": 101, "channel": 0}, {"type": "note_on", "time": 92, "note": 75, "velocity": 102, "channel": 0}, {"type": "note_off", "time": 217, "note": 75, "velocity": 102, "channel": 0}, {"type": "note_on", "time": 143, "note": 74, "velocity": 115, "channel": 0}, {"type": "note_off", "time": 210, "note": 74, "velocity": 115, "channel": 0}, {"type": "note_on", "time": 12, "note": 76, "velocity": 115, "channel": 0}, {"type": "note_off", "time": 210, "note": 76, "velocity": 115, "channel": 0}, {"type": "note_on", "time": 6, "note": 79, "velocity": 108, "channel": 0}, {"type": "note_off", "time": 192, "note": 79, "velocity": 108, "channel": 0}, {"type": "note_on", "time": 10, "note": 78, "velocity": 114, "channel": 0}, {"type": "note_off", "time": 556, "note": 78, "velocity": 114, "channel": 0}, {"type": "note_on", "time": 100, "note": 81, "velocity": 122, "channel": 0}, {"type": "note_off", "time": 203, "note": 81, "velocity": 122, "channel": 0}, {"type": "note_on", "time": 29, "note": 84, "velocity": 124, "channel": 0}, {"type": "note_off", "time": 242, "note": 84, "velocity": 124, "channel": 0}, {"type": "note_on", "time": 128, "note": 87, "velocity": 117, "channel": 0}, {"type": "note_off", "time": 152, "note": 87, "velocity": 117, "channel": 0}, {"type": "note_on", "time": 12, "note": 90, "velocity": 121, "channel": 0}, {"type": "note_off", "time": 219, "note": 90, "velocity": 121, "channel": 0}, {"type": "note_on", "time": 31, "note": 86, "velocity": 118, "channel": 0}, {"type": "note_off", "time": 223, "note": 86, "velocity": 118, "channel": 0}, {"type": "note_on", "time": 44, "note": 84, "velocity": 121, "channel": 0}, {"type": "note_off", "time": 162, "note": 84, "velocity": 121, "channel": 0}, {"type": "note_on", "time": 29, "note": 84, "velocity": 121, "channel": 0}, {"type": "note_off", "time": 179, "note": 84, "velocity": 121, "channel": 0}, {"type": "note_on", "time": 17, "note": 81, "velocity": 127, "channel": 0}, {"type": "note_off", "time": 192, "note": 81, "velocity": 127, "channel": 0}, {"type": "note_on", "time": 13, "note": 79, "velocity": 112, "channel": 0}, {"type": "note_off", "time": 192, "note": 79, "velocity": 112, "channel": 0}, {"type": "note_on", "time": 17, "note": 78, "velocity": 114, "channel": 0}, {"type": "note_off", "time": 188, "note": 78, "velocity": 114, "channel": 0}, {"type": "note_on", "time": 50, "note": 81, "velocity": 122, "channel": 0}, {"type": "note_off", "time": 190, "note": 81, "velocity": 122, "channel": 0}, {"type": "note_on", "time": 13, "note": 78, "velocity": 120, "channel": 0}, {"type": "note_off", "time": 262, "note": 78, "velocity": 120, "channel": 0}, {"type": "note_on", "time": 0, "note": 79, "velocity": 111, "channel": 0}, {"type": "note_off", "time": 177, "note": 79, "velocity": 111, "channel": 0}, {"type": "note_on", "time": 20, "note": 74, "velocity": 116, "channel": 0}, {"type": "note_off", "time": 154, "note": 74, "velocity": 116, "channel": 0}, {"type": "note_on", "time": 21, "note": 72, "velocity": 105, "channel": 0}, {"type": "note_off", "time": 61, "note": 72, "velocity": 105, "channel": 0}, {"type": "note_on", "time": 4, "note": 73, "velocity": 111, "channel": 0}, {"type": "note_off", "time": 63, "note": 73, "velocity": 111, "channel": 0}, {"type": "note_on", "time": 2, "note": 72, "velocity": 113, "channel": 0}, {"type": "note_on", "time": 116, "note": 69, "velocity": 113, "channel": 0}, {"type": "note_off", "time": 0, "note": 72, "velocity": 113, "channel": 0}, {"type": "note_off", "time": 185, "note": 69, "velocity": 113, "channel": 0}, {"type": "note_on", "time": 2, "note": 70, "velocity": 119, "channel": 0}, {"type": "note_off", "time": 213, "note": 70, "velocity": 119, "channel": 0}, {"type": "note_on", "time": 30, "note": 66, "velocity": 97, "channel": 0}, {"type": "note_off", "time": 98, "note": 66, "velocity": 97, "channel": 0}, {"type": "note_on", "time": 5, "note": 69, "velocity": 99, "channel": 0}, {"type": "note_off", "time": 86, "note": 69, "velocity": 99, "channel": 0}, {"type": "note_on", "time": 0, "note": 70, "velocity": 113, "channel": 0}, {"type": "note_off", "time": 69, "note": 70, "velocity": 113, "channel": 0}, {"type": "note_on", "time": 13, "note": 69, "velocity": 112, "channel": 0}, {"type": "note_off", "time": 110, "note": 69, "velocity": 112, "channel": 0}, {"type": "note_on", "time": 28, "note": 66, "velocity": 112, "channel": 0}, {"type": "note_off", "time": 144, "note": 66, "velocity": 112, "channel": 0}, {"type": "note_on", "time": 13, "note": 67, "velocity": 111, "channel": 0}, {"type": "note_off", "time": 193, "note": 67, "velocity": 111, "channel": 0}, {"type": "note_on", "time": 28, "note": 69, "velocity": 115, "channel": 0}, {"type": "note_off", "time": 154, "note": 69, "velocity": 115, "channel": 0}, {"type": "note_on", "time": 17, "note": 70, "velocity": 98, "channel": 0}, {"type": "note_off", "time": 221, "note": 70, "velocity": 98, "channel": 0}, {"type": "note_on", "time": 44, "note": 72, "velocity": 109, "channel": 0}, {"type": "note_off", "time": 187, "note": 72, "velocity": 109, "channel": 0}, {"type": "note_on", "time": 21, "note": 73, "velocity": 108, "channel": 0}, {"type": "note_off", "time": 165, "note": 73, "velocity": 108, "channel": 0}, {"type": "note_on", "time": 11, "note": 74, "velocity": 111, "channel": 0}, {"type": "note_off", "time": 189, "note": 74, "velocity": 111, "channel": 0}, {"type": "note_on", "time": 90, "note": 81, "velocity": 113, "channel": 0}, {"type": "note_off", "time": 162, "note": 81, "velocity": 113, "channel": 0}, {"type": "note_on", "time": 25, "note": 78, "velocity": 117, "channel": 0}, {"type": "note_off", "time": 204, "note": 78, "velocity": 117, "channel": 0}, {"type": "note_on", "time": 5, "note": 77, "velocity": 108, "channel": 0}, {"type": "note_off", "time": 169, "note": 77, "velocity": 108, "channel": 0}, {"type": "note_on", "time": 57, "note": 77, "velocity": 117, "channel": 0}, {"type": "note_off", "time": 189, "note": 77, "velocity": 117, "channel": 0}, {"type": "note_on", "time": 27, "note": 76, "velocity": 108, "channel": 0}, {"type": "note_off", "time": 167, "note": 76, "velocity": 108, "channel": 0}, {"type": "note_on", "time": 50, "note": 74, "velocity": 98, "channel": 0}, {"type": "note_off", "time": 133, "note": 74, "velocity": 98, "channel": 0}, {"type": "note_on", "time": 38, "note": 73, "velocity": 91, "channel": 0}, {"type": "note_off", "time": 90, "note": 73, "velocity": 91, "channel": 0}, {"type": "note_on", "time": 9, "note": 72, "velocity": 108, "channel": 0}, {"type": "note_off", "time": 164, "note": 72, "velocity": 108, "channel": 0}, {"type": "note_on", "time": 3, "note": 71, "velocity": 106, "channel": 0}, {"type": "note_off", "time": 137, "note": 71, "velocity": 106, "channel": 0}, {"type": "note_on", "time": 5, "note": 70, "velocity": 106, "channel": 0}, {"type": "note_off", "time": 198, "note": 70, "velocity": 106, "channel": 0}, {"type": "note_on", "time": 28, "note": 68, "velocity": 89, "channel": 0}, {"type": "note_off", "time": 152, "note": 68, "velocity": 89, "channel": 0}, {"type": "note_on", "time": 21, "note": 69, "velocity": 103, "channel": 0}, {"type": "note_off", "time": 225, "note": 69, "velocity": 103, "channel": 0}, {"type": "note_on", "time": 36, "note": 65, "velocity": 107, "channel": 0}, {"type": "note_off", "time": 165, "note": 65, "velocity": 107, "channel": 0}, {"type": "note_on", "time": 34, "note": 64, "velocity": 90, "channel": 0}, {"type": "note_off", "time": 117, "note": 64, "velocity": 90, "channel": 0}, {"type": "note_on", "time": 13, "note": 62, "velocity": 87, "channel": 0}, {"type": "note_off", "time": 102, "note": 62, "velocity": 87, "channel": 0}, {"type": "note_on", "time": 19, "note": 61, "velocity": 85, "channel": 0}, {"type": "note_off", "time": 104, "note": 61, "velocity": 85, "channel": 0}, {"type": "note_on", "time": 15, "note": 67, "velocity": 97, "channel": 0}, {"type": "note_off", "time": 248, "note": 67, "velocity": 97, "channel": 0}, {"type": "note_on", "time": 54, "note": 65, "velocity": 93, "channel": 0}, {"type": "note_off", "time": 517, "note": 65, "velocity": 93, "channel": 0}, {"type": "note_on", "time": 40, "note": 64, "velocity": 96, "channel": 0}, {"type": "note_off", "time": 86, "note": 64, "velocity": 96, "channel": 0}, {"type": "note_on", "time": 11, "note": 65, "velocity": 96, "channel": 0}, {"type": "note_off", "time": 59, "note": 65, "velocity": 96, "channel": 0}, {"type": "note_on", "time": 11, "note": 64, "velocity": 96, "channel": 0}, {"type": "note_off", "time": 55, "note": 64, "velocity": 96, "channel": 0}, {"type": "note_on", "time": 15, "note": 62, "velocity": 93, "channel": 0}, {"type": "note_off", "time": 144, "note": 62, "velocity": 93, "channel": 0}, {"type": "note_on", "time": 54, "note": 61, "velocity": 95, "channel": 0}, {"type": "note_off", "time": 171, "note": 61, "velocity": 95, "channel": 0}, {"type": "note_on", "time": 1124, "note": 63, "velocity": 91, "channel": 0}, {"type": "note_off", "time": 55, "note": 63, "velocity": 91, "channel": 0}, {"type": "note_on", "time": 6, "note": 65, "velocity": 91, "channel": 0}, {"type": "note_off", "time": 63, "note": 65, "velocity": 91, "channel": 0}, {"type": "note_on", "time": 1, "note": 67, "velocity": 80, "channel": 0}, {"type": "note_off", "time": 52, "note": 67, "velocity": 80, "channel": 0}, {"type": "note_on", "time": 8, "note": 68, "velocity": 91, "channel": 0}, {"type": "note_off", "time": 97, "note": 68, "velocity": 91, "channel": 0}, {"type": "note_on", "time": 4, "note": 69, "velocity": 91, "channel": 0}, {"type": "note_off", "time": 70, "note": 69, "velocity": 91, "channel": 0}, {"type": "note_on", "time": 4, "note": 70, "velocity": 114, "channel": 0}, {"type": "note_off", "time": 101, "note": 70, "velocity": 114, "channel": 0}, {"type": "note_on", "time": 5, "note": 69, "velocity": 109, "channel": 0}, {"type": "note_off", "time": 93, "note": 69, "velocity": 109, "channel": 0}, {"type": "note_on", "time": 9, "note": 67, "velocity": 103, "channel": 0}, {"type": "note_off", "time": 89, "note": 67, "velocity": 103, "channel": 0}, {"type": "note_on", "time": 20, "note": 65, "velocity": 104, "channel": 0}, {"type": "note_off", "time": 104, "note": 65, "velocity": 104, "channel": 0}, {"type": "note_on", "time": 16, "note": 63, "velocity": 103, "channel": 0}, {"type": "note_off", "time": 105, "note": 63, "velocity": 103, "channel": 0}, {"type": "note_on", "time": 12, "note": 65, "velocity": 108, "channel": 0}, {"type": "note_off", "time": 89, "note": 65, "velocity": 108, "channel": 0}, {"type": "note_on", "time": 17, "note": 67, "velocity": 95, "channel": 0}, {"type": "note_off", "time": 92, "note": 67, "velocity": 95, "channel": 0}, {"type": "note_on", "time": 12, "note": 68, "velocity": 93, "channel": 0}, {"type": "note_off", "time": 86, "note": 68, "velocity": 93, "channel": 0}, {"type": "note_on", "time": 9, "note": 70, "velocity": 108, "channel": 0}, {"type": "note_off", "time": 88, "note": 70, "velocity": 108, "channel": 0}, {"type": "note_on", "time": 6, "note": 68, "velocity": 112, "channel": 0}, {"type": "note_off", "time": 124, "note": 68, "velocity": 112, "channel": 0}, {"type": "note_on", "time": 13, "note": 66, "velocity": 110, "channel": 0}, {"type": "note_off", "time": 84, "note": 66, "velocity": 110, "channel": 0}, {"type": "note_on", "time": 9, "note": 65, "velocity": 115, "channel": 0}, {"type": "note_off", "time": 103, "note": 65, "velocity": 115, "channel": 0}, {"type": "note_on", "time": 17, "note": 62, "velocity": 98, "channel": 0}, {"type": "note_off", "time": 145, "note": 62, "velocity": 98, "channel": 0}, {"type": "note_on", "time": 2, "note": 63, "velocity": 91, "channel": 0}, {"type": "note_off", "time": 58, "note": 63, "velocity": 91, "channel": 0}, {"type": "note_on", "time": 29, "note": 64, "velocity": 99, "channel": 0}, {"type": "note_off", "time": 81, "note": 64, "velocity": 99, "channel": 0}, {"type": "note_on", "time": 11, "note": 66, "velocity": 87, "channel": 0}, {"type": "note_off", "time": 88, "note": 66, "velocity": 87, "channel": 0}, {"type": "note_on", "time": 19, "note": 68, "velocity": 95, "channel": 0}, {"type": "note_off", "time": 54, "note": 68, "velocity": 95, "channel": 0}, {"type": "note_on", "time": 9, "note": 69, "velocity": 104, "channel": 0}, {"type": "note_off", "time": 107, "note": 69, "velocity": 104, "channel": 0}, {"type": "note_on", "time": 6, "note": 67, "velocity": 100, "channel": 0}, {"type": "note_off", "time": 90, "note": 67, "velocity": 100, "channel": 0}, {"type": "note_on", "time": 16, "note": 65, "velocity": 99, "channel": 0}, {"type": "note_off", "time": 95, "note": 65, "velocity": 99, "channel": 0}, {"type": "note_on", "time": 9, "note": 62, "velocity": 95, "channel": 0}, {"type": "note_off", "time": 111, "note": 62, "velocity": 95, "channel": 0}, {"type": "note_on", "time": 9, "note": 63, "velocity": 92, "channel": 0}, {"type": "note_off", "time": 96, "note": 63, "velocity": 92, "channel": 0}, {"type": "note_on", "time": 23, "note": 65, "velocity": 89, "channel": 0}, {"type": "note_off", "time": 78, "note": 65, "velocity": 89, "channel": 0}, {"type": "note_on", "time": 9, "note": 67, "velocity": 93, "channel": 0}, {"type": "note_off", "time": 104, "note": 67, "velocity": 93, "channel": 0}, {"type": "note_on", "time": 13, "note": 69, "velocity": 104, "channel": 0}, {"type": "note_off", "time": 130, "note": 69, "velocity": 104, "channel": 0}, {"type": "note_on", "time": 2, "note": 67, "velocity": 101, "channel": 0}, {"type": "note_off", "time": 138, "note": 67, "velocity": 101, "channel": 0}, {"type": "note_on", "time": 13, "note": 65, "velocity": 100, "channel": 0}, {"type": "note_off", "time": 154, "note": 65, "velocity": 100, "channel": 0}, {"type": "note_on", "time": 9, "note": 64, "velocity": 113, "channel": 0}, {"type": "note_off", "time": 75, "note": 64, "velocity": 113, "channel": 0}, {"type": "note_on", "time": 17, "note": 65, "velocity": 107, "channel": 0}, {"type": "note_off", "time": 55, "note": 65, "velocity": 107, "channel": 0}, {"type": "note_on", "time": 10, "note": 64, "velocity": 94, "channel": 0}, {"type": "note_off", "time": 76, "note": 64, "velocity": 94, "channel": 0}, {"type": "note_on", "time": 62, "note": 68, "velocity": 91, "channel": 0}, {"type": "note_off", "time": 81, "note": 68, "velocity": 91, "channel": 0}, {"type": "note_on", "time": 2, "note": 70, "velocity": 111, "channel": 0}, {"type": "note_off", "time": 85, "note": 70, "velocity": 111, "channel": 0}, {"type": "note_on", "time": 12, "note": 68, "velocity": 110, "channel": 0}, {"type": "note_off", "time": 101, "note": 68, "velocity": 110, "channel": 0}, {"type": "note_on", "time": 9, "note": 67, "velocity": 101, "channel": 0}, {"type": "note_off", "time": 88, "note": 67, "velocity": 101, "channel": 0}, {"type": "note_on", "time": 9, "note": 65, "velocity": 102, "channel": 0}, {"type": "note_off", "time": 111, "note": 65, "velocity": 102, "channel": 0}, {"type": "note_on", "time": 17, "note": 64, "velocity": 108, "channel": 0}, {"type": "note_off", "time": 133, "note": 64, "velocity": 108, "channel": 0}, {"type": "note_on", "time": 9, "note": 65, "velocity": 105, "channel": 0}, {"type": "note_off", "time": 65, "note": 65, "velocity": 105, "channel": 0}, {"type": "note_on", "time": 6, "note": 67, "velocity": 96, "channel": 0}, {"type": "note_off", "time": 71, "note": 67, "velocity": 96, "channel": 0}, {"type": "note_on", "time": 1, "note": 68, "velocity": 100, "channel": 0}, {"type": "note_off", "time": 88, "note": 68, "velocity": 100, "channel": 0}, {"type": "note_on", "time": 5, "note": 70, "velocity": 112, "channel": 0}, {"type": "note_off", "time": 93, "note": 70, "velocity": 112, "channel": 0}, {"type": "note_on", "time": 6, "note": 68, "velocity": 105, "channel": 0}, {"type": "note_off", "time": 134, "note": 68, "velocity": 105, "channel": 0}, {"type": "note_on", "time": 4, "note": 67, "velocity": 104, "channel": 0}, {"type": "note_off", "time": 82, "note": 67, "velocity": 104, "channel": 0}, {"type": "note_on", "time": 10, "note": 65, "velocity": 108, "channel": 0}, {"type": "note_off", "time": 116, "note": 65, "velocity": 108, "channel": 0}, {"type": "note_on", "time": 8, "note": 62, "velocity": 94, "channel": 0}, {"type": "note_off", "time": 133, "note": 62, "velocity": 94, "channel": 0}, {"type": "note_on", "time": 12, "note": 64, "velocity": 92, "channel": 0}, {"type": "note_off", "time": 118, "note": 64, "velocity": 92, "channel": 0}, {"type": "note_on", "time": 5, "note": 65, "velocity": 107, "channel": 0}, {"type": "note_off", "time": 55, "note": 65, "velocity": 107, "channel": 0}, {"type": "note_on", "time": 5, "note": 67, "velocity": 99, "channel": 0}, {"type": "note_off", "time": 71, "note": 67, "velocity": 99, "channel": 0}, {"type": "note_on", "time": 0, "note": 70, "velocity": 108, "channel": 0}, {"type": "note_off", "time": 92, "note": 70, "velocity": 108, "channel": 0}, {"type": "note_on", "time": 6, "note": 69, "velocity": 106, "channel": 0}, {"type": "note_off", "time": 101, "note": 69, "velocity": 106, "channel": 0}, {"type": "note_on", "time": 10, "note": 67, "velocity": 98, "channel": 0}, {"type": "note_off", "time": 97, "note": 67, "velocity": 98, "channel": 0}, {"type": "note_on", "time": 6, "note": 65, "velocity": 93, "channel": 0}, {"type": "note_off", "time": 106, "note": 65, "velocity": 93, "channel": 0}, {"type": "note_on", "time": 14, "note": 62, "velocity": 108, "channel": 0}, {"type": "note_off", "time": 104, "note": 62, "velocity": 108, "channel": 0}, {"type": "note_on", "time": 4, "note": 64, "velocity": 102, "channel": 0}, {"type": "note_off", "time": 95, "note": 64, "velocity": 102, "channel": 0}, {"type": "note_on", "time": 17, "note": 65, "velocity": 96, "channel": 0}, {"type": "note_off", "time": 81, "note": 65, "velocity": 96, "channel": 0}, {"type": "note_on", "time": 8, "note": 67, "velocity": 92, "channel": 0}, {"type": "note_off", "time": 82, "note": 67, "velocity": 92, "channel": 0}, {"type": "note_on", "time": 8, "note": 69, "velocity": 105, "channel": 0}, {"type": "note_off", "time": 100, "note": 69, "velocity": 105, "channel": 0}, {"type": "note_on", "time": 8, "note": 67, "velocity": 100, "channel": 0}, {"type": "note_off", "time": 112, "note": 67, "velocity": 100, "channel": 0}, {"type": "note_on", "time": 17, "note": 65, "velocity": 96, "channel": 0}, {"type": "note_off", "time": 118, "note": 65, "velocity": 96, "channel": 0}, {"type": "note_on", "time": 10, "note": 64, "velocity": 98, "channel": 0}, {"type": "note_off", "time": 176, "note": 64, "velocity": 98, "channel": 0}, {"type": "note_on", "time": 1393, "note": 79, "velocity": 10, "channel": 0}, {"type": "note_off", "time": 168, "note": 79, "velocity": 10, "channel": 0}, {"type": "note_on", "time": 12, "note": 80, "velocity": 103, "channel": 0}, {"type": "note_off", "time": 69, "note": 80, "velocity": 103, "channel": 0}, {"type": "note_on", "time": 5, "note": 81, "velocity": 102, "channel": 0}, {"type": "note_off", "time": 66, "note": 81, "velocity": 102, "channel": 0}, {"type": "note_on", "time": 10, "note": 78, "velocity": 113, "channel": 0}, {"type": "note_off", "time": 124, "note": 78, "velocity": 113, "channel": 0}, {"type": "note_on", "time": 13, "note": 76, "velocity": 115, "channel": 0}, {"type": "note_off", "time": 149, "note": 76, "velocity": 115, "channel": 0}, {"type": "note_on", "time": 10, "note": 77, "velocity": 118, "channel": 0}, {"type": "note_off", "time": 217, "note": 77, "velocity": 118, "channel": 0}, {"type": "note_on", "time": 21, "note": 76, "velocity": 115, "channel": 0}, {"type": "note_off", "time": 145, "note": 76, "velocity": 115, "channel": 0}, {"type": "note_on", "time": 5, "note": 77, "velocity": 106, "channel": 0}, {"type": "note_off", "time": 82, "note": 77, "velocity": 106, "channel": 0}, {"type": "note_on", "time": 9, "note": 79, "velocity": 110, "channel": 0}, {"type": "note_off", "time": 92, "note": 79, "velocity": 110, "channel": 0}, {"type": "note_on", "time": 4, "note": 76, "velocity": 102, "channel": 0}, {"type": "note_off", "time": 71, "note": 76, "velocity": 102, "channel": 0}, {"type": "note_on", "time": 9, "note": 74, "velocity": 105, "channel": 0}, {"type": "note_off", "time": 149, "note": 74, "velocity": 105, "channel": 0}, {"type": "note_on", "time": 14, "note": 73, "velocity": 112, "channel": 0}, {"type": "note_off", "time": 237, "note": 73, "velocity": 112, "channel": 0}, {"type": "note_on", "time": 404, "note": 64, "velocity": 87, "channel": 0}, {"type": "note_off", "time": 141, "note": 64, "velocity": 87, "channel": 0}, {"type": "note_on", "time": 19, "note": 65, "velocity": 89, "channel": 0}, {"type": "note_off", "time": 179, "note": 65, "velocity": 89, "channel": 0}, {"type": "note_on", "time": 52, "note": 69, "velocity": 117, "channel": 0}, {"type": "note_off", "time": 192, "note": 69, "velocity": 117, "channel": 0}, {"type": "note_on", "time": 12, "note": 70, "velocity": 117, "channel": 0}, {"type": "note_off", "time": 204, "note": 70, "velocity": 117, "channel": 0}, {"type": "note_on", "time": 19, "note": 69, "velocity": 107, "channel": 0}, {"type": "note_off", "time": 192, "note": 69, "velocity": 107, "channel": 0}, {"type": "note_on", "time": 42, "note": 63, "velocity": 100, "channel": 0}, {"type": "note_off", "time": 179, "note": 63, "velocity": 100, "channel": 0}, {"type": "note_on", "time": 16, "note": 57, "velocity": 91, "channel": 0}, {"type": "note_off", "time": 114, "note": 57, "velocity": 91, "channel": 0}, {"type": "note_on", "time": 9, "note": 62, "velocity": 95, "channel": 0}, {"type": "note_off", "time": 422, "note": 62, "velocity": 95, "channel": 0}, {"type": "note_on", "time": 66, "note": 69, "velocity": 109, "channel": 0}, {"type": "note_off", "time": 193, "note": 69, "velocity": 109, "channel": 0}, {"type": "note_on", "time": 418, "note": 69, "velocity": 106, "channel": 0}, {"type": "note_off", "time": 164, "note": 69, "velocity": 106, "channel": 0}, {"type": "note_on", "time": 16, "note": 65, "velocity": 103, "channel": 0}, {"type": "note_off", "time": 222, "note": 65, "velocity": 103, "channel": 0}, {"type": "note_on", "time": 31, "note": 62, "velocity": 97, "channel": 0}, {"type": "note_off", "time": 146, "note": 62, "velocity": 97, "channel": 0}, {"type": "note_on", "time": 2, "note": 63, "velocity": 100, "channel": 0}, {"type": "note_off", "time": 282, "note": 63, "velocity": 100, "channel": 0}, {"type": "end_of_track", "time": 0}]]}