{"ticks_per_beat": 192, "tracks": [[{"type": "track_name", "name": "Melody", "time": 0}, {"type": "set_tempo", "tempo": 375000, "time": 0}, {"type": "key_signature", "key": "F", "time": 0}, {"type": "time_signature", "numerator": 4, "denominator": 4, "clocks_per_click": 24, "notated_32nd_notes_per_beat": 8, "time": 0}, {"type": "note_on", "time": 1627, "note": 68, "velocity": 94, "channel": 0}, {"type": "note_off", "time": 93, "note": 68, "velocity": 94, "channel": 0}, {"type": "note_on", "time": 0, "note": 69, "velocity": 96, "channel": 0}, {"type": "note_off", "time": 66, "note": 69, "velocity": 96, "channel": 0}, {"type": "note_on", "time": 62, "note": 74, "velocity": 121, "channel": 0}, {"type": "note_off", "time": 66, "note": 74, "velocity": 121, "channel": 0}, {"type": "note_on", "time": 5, "note": 77, "velocity": 117, "channel": 0}, {"type": "note_off", "time": 142, "note": 77, "velocity": 117, "channel": 0}, {"type": "note_on", "time": 1, "note": 79, "velocity": 115, "channel": 0}, {"type": "note_off", "time": 52, "note": 79, "velocity": 115, "channel": 0}, {"type": "note_on", "time": 14, "note": 80, "velocity": 101, "channel": 0}, {"type": "note_off", "time": 93, "note": 80, "velocity": 101, "channel": 0}, {"type": "note_on", "time": 547, "note": 81, "velocity": 126, "channel": 0}, {"type": "note_off", "time": 84, "note": 81, "velocity": 126, "channel": 0}, {"type": "note_on", "time": 3, "note": 76, "velocity": 116, "channel": 0}, {"type": "note_off", "time": 80, "note": 76, "velocity": 116, "channel": 0}, {"type": "note_on", "time": 11, "note": 79, "velocity": 108, "channel": 0}, {"type": "note_off", "time": 102, "note": 79, "velocity": 108, "channel": 0}, {"type": "note_on", "time": 8, "note": 77, "velocity": 114, "channel": 0}, {"type": "note_off", "time": 100, "note": 77, "velocity": 114, "channel": 0}, {"type": "note_on", "time": 0, "note": 72, "velocity": 105, "channel": 0}, {"type": "note_off", "time": 100, "note": 72, "velocity": 105, "channel": 0}, {"type": "note_on", "time": 0, "note": 69, "velocity": 109, "channel": 0}, {"type": "note_off", "time": 87, "note": 69, "velocity": 109, "channel": 0}, {"type": "note_on", "time": 0, "note": 65, "velocity": 98, "channel": 0}, {"type": "note_off", "time": 89, "note": 65, "velocity": 98, "channel": 0}, {"type": "note_on", "time": 0, "note": 70, "velocity": 111, "channel": 0}, {"type": "note_off", "time": 98, "note": 70, "velocity": 111, "channel": 0}, {"type": "note_on", "time": 66, "note": 65, "velocity": 83, "channel": 0}, {"type": "note_off", "time": 32, "note": 65, "velocity": 83, "channel": 0}, {"type": "note_on", "time": 0, "note": 67, "velocity": 94, "channel": 0}, {"type": "note_off", "time": 94, "note": 67, "velocity": 94, "channel": 0}, {"type": "note_on", "time": 0, "note": 69, "velocity": 109, "channel": 0}, {"type": "note_off", "time": 95, "note": 69, "velocity": 109, "channel": 0}, {"type": "note_on", "time": 0, "note": 70, "velocity": 104, "channel": 0}, {"type": "note_off", "time": 100, "note": 70, "velocity": 104, "channel": 0}, {"type": "note_on", "time": 5, "note": 72, "velocity": 119, "channel": 0}, {"type": "note_off", "time": 54, "note": 72, "velocity": 119, "channel": 0}, {"type": "note_on", "time": 7, "note": 73, "velocity": 107, "channel": 0}, {"type": "note_off", "time": 53, "note": 73, "velocity": 107, "channel": 0}, {"type": "note_on", "time": 2, "note": 75, "velocity": 103, "channel": 0}, {"type": "note_off", "time": 65, "note": 75, "velocity": 103, "channel": 0}, {"type": "note_on", "time": 9, "note": 72, "velocity": 118, "channel": 0}, {"type": "note_off", "time": 154, "note": 72, "velocity": 118, "channel": 0}, {"type": "note_on", "time": 10, "note": 69, "velocity": 107, "channel": 0}, {"type": "note_off", "time": 88, "note": 69, "velocity": 107, "channel": 0}, {"type": "note_on", "time": 3, "note": 64, "velocity": 90, "channel": 0}, {"type": "note_off", "time": 67, "note": 64, "velocity": 90, "channel": 0}, {"type": "note_on", "time": 5, "note": 61, "velocity": 86, "channel": 0}, {"type": "note_off", "time": 32, "note": 61, "velocity": 86, "channel": 0}, {"type": "note_on", "time": 11, "note": 62, "velocity": 107, "channel": 0}, {"type": "note_off", "time": 247, "note": 62, "velocity": 107, "channel": 0}, {"type": "note_on", "time": 496, "note": 69, "velocity": 113, "channel": 0}, {"type": "note_off", "time": 94, "note": 69, "velocity": 113, "channel": 0}, {"type": "note_on", "time": 10, "note": 67, "velocity": 108, "channel": 0}, {"type": "note_off", "time": 94, "note": 67, "velocity": 108, "channel": 0}, {"type": "note_on", "time": 0, "note": 69, "velocity": 107, "channel": 0}, {"type": "note_off", "time": 77, "note": 69, "velocity": 107, "channel": 0}, {"type": "note_on", "time": 4, "note": 70, "velocity": 115, "channel": 0}, {"type": "note_off", "time": 77, "note": 70, "velocity": 115, "channel": 0}, {"type": "note_on", "time": 39, "note": 72, "velocity": 115, "channel": 0}, {"type": "note_off", "time": 97, "note": 72, "velocity": 115, "channel": 0}, {"type": "note_on", "time": 297, "note": 65, "velocity": 111, "channel": 0}, {"type": "note_off", "time": 89, "note": 65, "velocity": 111, "channel": 0}, {"type": "note_on", "time": 0, "note": 64, "velocity": 99, "channel": 0}, {"type": "note_off", "time": 91, "note": 64, "velocity": 99, "channel": 0}, {"type": "note_on", "time": 0, "note": 65, "velocity": 109, "channel": 0}, {"type": "note_off", "time": 91, "note": 65, "velocity": 109, "channel": 0}, {"type": "note_on", "time": 0, "note": 68, "velocity": 114, "channel": 0}, {"type": "note_off", "time": 91, "note": 68, "velocity": 114, "channel": 0}, {"type": "note_on", "time": 0, "note": 70, "velocity": 111, "channel": 0}, {"type": "note_off", "time": 89, "note": 70, "velocity": 111, "channel": 0}, {"type": "note_on", "time": 0, "note": 71, "velocity": 113, "channel": 0}, {"type": "note_off", "time": 102, "note": 71, "velocity": 113, "channel": 0}, {"type": "note_on", "time": 0, "note": 63, "velocity": 90, "channel": 0}, {"type": "note_on", "time": 102, "note": 66, "velocity": 106, "channel": 0}, {"type": "note_off", "time": 0, "note": 63, "velocity": 90, "channel": 0}, {"type": "note_off", "time": 95, "note": 66, "velocity": 106, "channel": 0}, {"type": "note_on", "time": 1, "note": 63, "velocity": 102, "channel": 0}, {"type": "note_off", "time": 94, "note": 63, "velocity": 102, "channel": 0}, {"type": "note_on", "time": 0, "note": 65, "velocity": 110, "channel": 0}, {"type": "note_off", "time": 100, "note": 65, "velocity": 110, "channel": 0}, {"type": "note_on", "time": 2, "note": 68, "velocity": 108, "channel": 0}, {"type": "note_off", "time": 71, "note": 68, "velocity": 108, "channel": 0}, {"type": "note_on", "time": 16, "note": 71, "velocity": 112, "channel": 0}, {"type": "note_off", "time": 48, "note": 71, "velocity": 112, "channel": 0}, {"type": "note_on", "time": 0, "note": 74, "velocity": 110, "channel": 0}, {"type": "note_off", "time": 64, "note": 74, "velocity": 110, "channel": 0}, {"type": "note_on", "time": 0, "note": 73, "velocity": 115, "channel": 0}, {"type": "note_off", "time": 64, "note": 73, "velocity": 115, "channel": 0}, {"type": "note_on", "time": 491, "note": 81, "velocity": 119, "channel": 0}, {"type": "note_off", "time": 50, "note": 81, "velocity": 119, "channel": 0}, {"type": "note_on", "time": 10, "note": 84, "velocity": 92, "channel": 0}, {"type": "note_off", "time": 93, "note": 84, "velocity": 92, "channel": 0}, {"type": "note_on", "time": 37, "note": 77, "velocity": 123, "channel": 0}, {"type": "note_off", "time": 49, "note": 77, "velocity": 123, "channel": 0}, {"type": "note_on", "time": 47, "note": 80, "velocity": 124, "channel": 0}, {"type": "note_off", "time": 96, "note": 80, "velocity": 124, "channel": 0}, {"type": "note_on", "time": 12, "note": 78, "velocity": 119, "channel": 0}, {"type": "note_off", "time": 62, "note": 78, "velocity": 119, "channel": 0}, {"type": "note_on", "time": 25, "note": 77, "velocity": 120, "channel": 0}, {"type": "note_off", "time": 68, "note": 77, "velocity": 120, "channel": 0}, {"type": "note_on", "time": 6, "note": 78, "velocity": 117, "channel": 0}, {"type": "note_off", "time": 71, "note": 78, "velocity": 117, "channel": 0}, {"type": "note_on", "time": 39, "note": 74, "velocity": 119, "channel": 0}, {"type": "note_off", "time": 54, "note": 74, "velocity": 119, "channel": 0}, {"type": "note_on", "time": 26, "note": 73, "velocity": 117, "channel": 0}, {"type": "note_off", "time": 74, "note": 73, "velocity": 117, "channel": 0}, {"type": "note_on", "time": 32, "note": 71, "velocity": 115, "channel": 0}, {"type": "note_off", "time": 68, "note": 71, "velocity": 115, "channel": 0}, {"type": "note_on", "time": 8, "note": 69, "velocity": 115, "channel": 0}, {"type": "note_off", "time": 87, "note": 69, "velocity": 115, "channel": 0}, {"type": "note_on", "time": 18, "note": 70, "velocity": 108, "channel": 0}, {"type": "note_off", "time": 84, "note": 70, "velocity": 108, "channel": 0}, {"type": "note_on", "time": 3, "note": 65, "velocity": 107, "channel": 0}, {"type": "note_on", "time": 83, "note": 69, "velocity": 102, "channel": 0}, {"type": "note_off", "time": 0, "note": 65, "velocity": 107, "channel": 0}, {"type": "note_off", "time": 40, "note": 69, "velocity": 102, "channel": 0}, {"type": "note_on", "time": 3, "note": 68, "velocity": 106, "channel": 0}, {"type": "note_off", "time": 56, "note": 68, "velocity": 106, "channel": 0}, {"type": "note_on", "time": 0, "note": 65, "velocity": 109, "channel": 0}, {"type": "note_off", "time": 65, "note": 65, "velocity": 109, "channel": 0}, {"type": "note_on", "time": 30, "note": 66, "velocity": 108, "channel": 0}, {"type": "note_off", "time": 84, "note": 66, "velocity": 108, "channel": 0}, {"type": "note_on", "time": 14, "note": 61, "velocity": 102, "channel": 0}, {"type": "note_off", "time": 84, "note": 61, "velocity": 102, "channel": 0}, {"type": "note_on", "time": 5, "note": 58, "velocity": 100, "channel": 0}, {"type": "note_off", "time": 86, "note": 58, "velocity": 100, "channel": 0}, {"type": "note_on", "time": 13, "note": 54, "velocity": 99, "channel": 0}, {"type": "note_off", "time": 86, "note": 54, "velocity": 99, "channel": 0}, {"type": "note_on", "time": 28, "note": 61, "velocity": 104, "channel": 0}, {"type": "note_off", "time": 163, "note": 61, "velocity": 104, "channel": 0}, {"type": "note_on", "time": 0, "note": 62, "velocity": 99, "channel": 0}, {"type": "note_off", "time": 187, "note": 62, "velocity": 99, "channel": 0}, {"type": "note_on", "time": 30, "note": 73, "velocity": 114, "channel": 0}, {"type": "note_off", "time": 29, "note": 73, "velocity": 114, "channel": 0}, {"type": "note_on", "time": 0, "note": 74, "velocity": 110, "channel": 0}, {"type": "note_off", "time": 29, "note": 74, "velocity": 110, "channel": 0}, {"type": "note_on", "time": 3, "note": 73, "velocity": 110, "channel": 0}, {"type": "note_off", "time": 29, "note": 73, "velocity": 110, "channel": 0}, {"type": "note_on", "time": 3, "note": 71, "velocity": 111, "channel": 0}, {"type": "note_off", "time": 87, "note": 71, "velocity": 111, "channel": 0}, {"type": "note_on", "time": 0, "note": 68, "velocity": 108, "channel": 0}, {"type": "note_off", "time": 96, "note": 68, "velocity": 108, "channel": 0}, {"type": "note_on", "time": 0, "note": 69, "velocity": 98, "channel": 0}, {"type": "note_off", "time": 96, "note": 69, "velocity": 98, "channel": 0}, {"type": "note_on", "time": 1, "note": 70, "velocity": 109, "channel": 0}, {"type": "note_off", "time": 96, "note": 70, "velocity": 109, "channel": 0}, {"type": "note_on", "time": 3, "note": 65, "velocity": 105, "channel": 0}, {"type": "note_off", "time": 69, "note": 65, "velocity": 105, "channel": 0}, {"type": "note_on", "time": 5, "note": 69, "velocity": 103, "channel": 0}, {"type": "note_off", "time": 16, "note": 69, "velocity": 103, "channel": 0}, {"type": "note_on", "time": 4, "note": 70, "velocity": 102, "channel": 0}, {"type": "note_off", "time": 31, "note": 70, "velocity": 102, "channel": 0}, {"type": "note_on", "time": 0, "note": 68, "velocity": 102, "channel": 0}, {"type": "note_off", "time": 32, "note": 68, "velocity": 102, "channel": 0}, {"type": "note_on", "time": 17, "note": 66, "velocity": 100, "channel": 0}, {"type": "note_off", "time": 98, "note": 66, "velocity": 100, "channel": 0}, {"type": "note_on", "time": 12, "note": 67, "velocity": 98, "channel": 0}, {"type": "note_off", "time": 94, "note": 67, "velocity": 98, "channel": 0}, {"type": "note_on", "time": 0, "note": 64, "velocity": 98, "channel": 0}, {"type": "note_off", "time": 94, "note": 64, "velocity": 98, "channel": 0}, {"type": "note_on", "time": 1, "note": 63, "velocity": 89, "channel": 0}, {"type": "note_off", "time": 96, "note": 63, "velocity": 89, "channel": 0}, {"type": "note_on", "time": 0, "note": 61, "velocity": 88, "channel": 0}, {"type": "note_off", "time": 96, "note": 61, "velocity": 88, "channel": 0}, {"type": "note_on", "time": 1, "note": 59, "velocity": 80, "channel": 0}, {"type": "note_off", "time": 139, "note": 59, "velocity": 80, "channel": 0}, {"type": "note_on", "time": 19, "note": 63, "velocity": 81, "channel": 0}, {"type": "note_off", "time": 44, "note": 63, "velocity": 81, "channel": 0}, {"type": "note_on", "time": 24, "note": 66, "velocity": 80, "channel": 0}, {"type": "note_off", "time": 34, "note": 66, "velocity": 80, "channel": 0}, {"type": "note_on", "time": 17, "note": 70, "velocity": 114, "channel": 0}, {"type": "note_off", "time": 35, "note": 70, "velocity": 114, "channel": 0}, {"type": "note_on", "time": 48, "note": 69, "velocity": 105, "channel": 0}, {"type": "note_off", "time": 30, "note": 69, "velocity": 105, "channel": 0}, {"type": "note_on", "time": 0, "note": 70, "velocity": 99, "channel": 0}, {"type": "note_off", "time": 30, "note": 70, "velocity": 99, "channel": 0}, {"type": "note_on", "time": 2, "note": 69, "velocity": 87, "channel": 0}, {"type": "note_off", "time": 30, "note": 69, "velocity": 87, "channel": 0}, {"type": "note_on", "time": 25, "note": 65, "velocity": 108, "channel": 0}, {"type": "note_off", "time": 44, "note": 65, "velocity": 108, "channel": 0}, {"type": "note_on", "time": 22, "note": 68, "velocity": 100, "channel": 0}, {"type": "note_off", "time": 30, "note": 68, "velocity": 100, "channel": 0}, {"type": "note_on", "time": 3, "note": 70, "velocity": 97, "channel": 0}, {"type": "note_off", "time": 29, "note": 70, "velocity": 97, "channel": 0}, {"type": "note_on", "time": 0, "note": 68, "velocity": 98, "channel": 0}, {"type": "note_off", "time": 30, "note": 68, "velocity": 98, "channel": 0}, {"type": "note_on", "time": 20, "note": 65, "velocity": 104, "channel": 0}, {"type": "note_off", "time": 54, "note": 65, "velocity": 104, "channel": 0}, {"type": "note_on", "time": 1, "note": 66, "velocity": 98, "channel": 0}, {"type": "note_off", "time": 94, "note": 66, "velocity": 98, "channel": 0}, {"type": "note_on", "time": 18, "note": 61, "velocity": 91, "channel": 0}, {"type": "note_on", "time": 94, "note": 58, "velocity": 91, "channel": 0}, {"type": "note_off", "time": 0, "note": 61, "velocity": 91, "channel": 0}, {"type": "note_off", "time": 94, "note": 58, "velocity": 91, "channel": 0}, {"type": "note_on", "time": 0, "note": 54, "velocity": 88, "channel": 0}, {"type": "note_off", "time": 94, "note": 54, "velocity": 88, "channel": 0}, {"type": "note_on", "time": 0, "note": 61, "velocity": 82, "channel": 0}, {"type": "note_off", "time": 204, "note": 61, "velocity": 82, "channel": 0}, {"type": "note_on", "time": 284, "note": 73, "velocity": 114, "channel": 0}, {"type": "note_on", "time": 91, "note": 74, "velocity": 108, "channel": 0}, {"type": "note_off", "time": 0, "note": 73, "velocity": 114, "channel": 0}, {"type": "note_off", "time": 102, "note": 74, "velocity": 108, "channel": 0}, {"type": "note_on", "time": 4, "note": 72, "velocity": 115, "channel": 0}, {"type": "note_off", "time": 68, "note": 72, "velocity": 115, "channel": 0}, {"type": "note_on", "time": 29, "note": 71, "velocity": 111, "channel": 0}, {"type": "note_off", "time": 54, "note": 71, "velocity": 111, "channel": 0}, {"type": "note_on", "time": 35, "note": 69, "velocity": 112, "channel": 0}, {"type": "note_off", "time": 69, "note": 69, "velocity": 112, "channel": 0}, {"type": "note_on", "time": 15, "note": 68, "velocity": 101, "channel": 0}, {"type": "note_off", "time": 27, "note": 68, "velocity": 101, "channel": 0}, {"type": "note_on", "time": 3, "note": 69, "velocity": 102, "channel": 0}, {"type": "note_off", "time": 27, "note": 69, "velocity": 102, "channel": 0}, {"type": "note_on", "time": 3, "note": 68, "velocity": 106, "channel": 0}, {"type": "note_off", "time": 27, "note": 68, "velocity": 106, "channel": 0}, {"type": "note_on", "time": 7, "note": 66, "velocity": 100, "channel": 0}, {"type": "note_off", "time": 83, "note": 66, "velocity": 100, "channel": 0}, {"type": "note_on", "time": 0, "note": 67, "velocity": 106, "channel": 0}, {"type": "note_off", "time": 96, "note": 67, "velocity": 106, "channel": 0}, {"type": "note_on", "time": 215, "note": 79, "velocity": 116, "channel": 0}, {"type": "note_off", "time": 43, "note": 79, "velocity": 116, "channel": 0}, {"type": "note_on", "time": 2, "note": 78, "velocity": 116, "channel": 0}, {"type": "note_off", "time": 33, "note": 78, "velocity": 116, "channel": 0}, {"type": "note_on", "time": 6, "note": 79, "velocity": 117, "channel": 0}, {"type": "note_off", "time": 68, "note": 79, "velocity": 117, "channel": 0}, {"type": "note_on", "time": 25, "note": 74, "velocity": 116, "channel": 0}, {"type": "note_off", "time": 54, "note": 74, "velocity": 116, "channel": 0}, {"type": "note_on", "time": 0, "note": 73, "velocity": 111, "channel": 0}, {"type": "note_off", "time": 37, "note": 73, "velocity": 111, "channel": 0}, {"type": "note_on", "time": 2, "note": 74, "velocity": 90, "channel": 0}, {"type": "note_off", "time": 73, "note": 74, "velocity": 90, "channel": 0}, {"type": "note_on", "time": 6, "note": 70, "velocity": 106, "channel": 0}, {"type": "note_on", "time": 45, "note": 69, "velocity": 111, "channel": 0}, {"type": "note_off", "time": 0, "note": 70, "velocity": 106, "channel": 0}, {"type": "note_off", "time": 46, "note": 69, "velocity": 111, "channel": 0}, {"type": "note_on", "time": 1, "note": 70, "velocity": 81, "channel": 0}, {"type": "note_off", "time": 81, "note": 70, "velocity": 81, "channel": 0}, {"type": "note_on", "time": 20, "note": 67, "velocity": 106, "channel": 0}, {"type": "note_off", "time": 49, "note": 67, "velocity": 106, "channel": 0}, {"type": "note_on", "time": 0, "note": 65, "velocity": 102, "channel": 0}, {"type": "note_off", "time": 31, "note": 65, "velocity": 102, "channel": 0}, {"type": "note_on", "time": 0, "note": 67, "velocity": 105, "channel": 0}, {"type": "note_off", "time": 35, "note": 67, "velocity": 105, "channel": 0}, {"type": "note_on", "time": 14, "note": 69, "velocity": 107, "channel": 0}, {"type": "note_off", "time": 25, "note": 69, "velocity": 107, "channel": 0}, {"type": "note_on", "time": 16, "note": 70, "velocity": 115, "channel": 0}, {"type": "note_off", "time": 29, "note": 70, "velocity": 115, "channel": 0}, {"type": "note_on", "time": 14, "note": 72, "velocity": 111, "channel": 0}, {"type": "note_off", "time": 31, "note": 72, "velocity": 111, "channel": 0}, {"type": "note_on", "time": 18, "note": 73, "velocity": 114, "channel": 0}, {"type": "note_off", "time": 45, "note": 73, "velocity": 114, "channel": 0}, {"type": "note_on", "time": 8, "note": 71, "velocity": 113, "channel": 0}, {"type": "note_off", "time": 29, "note": 71, "velocity": 113, "channel": 0}, {"type": "note_on", "time": 6, "note": 72, "velocity": 111, "channel": 0}, {"type": "note_off", "time": 45, "note": 72, "velocity": 111, "channel": 0}, {"type": "note_on", "time": 4, "note": 70, "velocity": 115, "channel": 0}, {"type": "note_off", "time": 31, "note": 70, "velocity": 115, "channel": 0}, {"type": "note_on", "time": 8, "note": 69, "velocity": 108, "channel": 0}, {"type": "note_off", "time": 33, "note": 69, "velocity": 108, "channel": 0}, {"type": "note_on", "time": 10, "note": 67, "velocity": 101, "channel": 0}, {"type": "note_off", "time": 45, "note": 67, "velocity": 101, "channel": 0}, {"type": "note_on", "time": 0, "note": 66, "velocity": 99, "channel": 0}, {"type": "note_off", "time": 41, "note": 66, "velocity": 99, "channel": 0}, {"type": "note_on", "time": 0, "note": 64, "velocity": 90, "channel": 0}, {"type": "note_off", "time": 29, "note": 64, "velocity": 90, "channel": 0}, {"type": "note_on", "time": 18, "note": 65, "velocity": 99, "channel": 0}, {"type": "note_off", "time": 92, "note": 65, "velocity": 99, "channel": 0}, {"type": "note_on", "time": 198, "note": 77, "velocity": 115, "channel": 0}, {"type": "note_off", "time": 54, "note": 77, "velocity": 115, "channel": 0}, {"type": "note_on", "time": 5, "note": 76, "velocity": 118, "channel": 0}, {"type": "note_off", "time": 39, "note": 76, "velocity": 118, "channel": 0}, {"type": "note_on", "time": 0, "note": 77, "velocity": 92, "channel": 0}, {"type": "note_off", "time": 71, "note": 77, "velocity": 92, "channel": 0}, {"type": "note_on", "time": 27, "note": 72, "velocity": 104, "channel": 0}, {"type": "note_off", "time": 27, "note": 72, "velocity": 104, "channel": 0}, {"type": "note_on", "time": 10, "note": 71, "velocity": 114, "channel": 0}, {"type": "note_off", "time": 45, "note": 71, "velocity": 114, "channel": 0}, {"type": "note_on", "time": 0, "note": 72, "velocity": 82, "channel": 0}, {"type": "note_off", "time": 84, "note": 72, "velocity": 82, "channel": 0}, {"type": "note_on", "time": 13, "note": 69, "velocity": 114, "channel": 0}, {"type": "note_off", "time": 35, "note": 69, "velocity": 114, "channel": 0}, {"type": "note_on", "time": 6, "note": 68, "velocity": 112, "channel": 0}, {"type": "note_off", "time": 37, "note": 68, "velocity": 112, "channel": 0}, {"type": "note_on", "time": 4, "note": 69, "velocity": 108, "channel": 0}, {"type": "note_off", "time": 48, "note": 69, "velocity": 108, "channel": 0}, {"type": "note_on", "time": 43, "note": 65, "velocity": 108, "channel": 0}, {"type": "note_off", "time": 57, "note": 65, "velocity": 108, "channel": 0}, {"type": "note_on", "time": 3, "note": 67, "velocity": 110, "channel": 0}, {"type": "note_off", "time": 31, "note": 67, "velocity": 110, "channel": 0}, {"type": "note_on", "time": 0, "note": 68, "velocity": 108, "channel": 0}, {"type": "note_off", "time": 33, "note": 68, "velocity": 108, "channel": 0}, {"type": "note_on", "time": 18, "note": 70, "velocity": 110, "channel": 0}, {"type": "note_off", "time": 43, "note": 70, "velocity": 110, "channel": 0}, {"type": "note_on", "time": 2, "note": 72, "velocity": 111, "channel": 0}, {"type": "note_off", "time": 39, "note": 72, "velocity": 111, "channel": 0}, {"type": "note_on", "time": 8, "note": 71, "velocity": 113, "channel": 0}, {"type": "note_off", "time": 25, "note": 71, "velocity": 113, "channel": 0}, {"type": "note_on", "time": 12, "note": 70, "velocity": 112, "channel": 0}, {"type": "note_off", "time": 43, "note": 70, "velocity": 112, "channel": 0}, {"type": "note_on", "time": 0, "note": 68, "velocity": 105, "channel": 0}, {"type": "note_off", "time": 50, "note": 68, "velocity": 105, "channel": 0}, {"type": "note_on", "time": 5, "note": 67, "velocity": 101, "channel": 0}, {"type": "note_off", "time": 29, "note": 67, "velocity": 101, "channel": 0}, {"type": "note_on", "time": 10, "note": 65, "velocity": 105, "channel": 0}, {"type": "note_off", "time": 45, "note": 65, "velocity": 105, "channel": 0}, {"type": "note_on", "time": 0, "note": 64, "velocity": 109, "channel": 0}, {"type": "note_off", "time": 44, "note": 64, "velocity": 109, "channel": 0}, {"type": "note_on", "time": 6, "note": 62, "velocity": 102, "channel": 0}, {"type": "note_off", "time": 31, "note": 62, "velocity": 102, "channel": 0}, {"type": "note_on", "time": 8, "note": 63, "velocity": 106, "channel": 0}, {"type": "note_on", "time": 43, "note": 65, "velocity": 103, "channel": 0}, {"type": "note_off", "time": 0, "note": 63, "velocity": 106, "channel": 0}, {"type": "note_off", "time": 43, "note": 65, "velocity": 103, "channel": 0}, {"type": "note_on", "time": 6, "note": 67, "velocity": 107, "channel": 0}, {"type": "note_off", "time": 45, "note": 67, "velocity": 107, "channel": 0}, {"type": "note_on", "time": 0, "note": 68, "velocity": 110, "channel": 0}, {"type": "note_off", "time": 25, "note": 68, "velocity": 110, "channel": 0}, {"type": "note_on", "time": 6, "note": 70, "velocity": 113, "channel": 0}, {"type": "note_off", "time": 45, "note": 70, "velocity": 113, "channel": 0}, {"type": "note_on", "time": 6, "note": 72, "velocity": 112, "channel": 0}, {"type": "note_off", "time": 43, "note": 72, "velocity": 112, "channel": 0}, {"type": "note_on", "time": 0, "note": 74, "velocity": 115, "channel": 0}, {"type": "note_off", "time": 44, "note": 74, "velocity": 115, "channel": 0}, {"type": "note_on", "time": 1, "note": 75, "velocity": 116, "channel": 0}, {"type": "note_off", "time": 44, "note": 75, "velocity": 116, "channel": 0}, {"type": "note_on", "time": 11, "note": 74, "velocity": 117, "channel": 0}, {"type": "note_off", "time": 44, "note": 74, "velocity": 117, "channel": 0}, {"type": "note_on", "time": 13, "note": 73, "velocity": 105, "channel": 0}, {"type": "note_off", "time": 33, "note": 73, "velocity": 105, "channel": 0}, {"type": "note_on", "time": 8, "note": 75, "velocity": 112, "channel": 0}, {"type": "note_off", "time": 45, "note": 75, "velocity": 112, "channel": 0}, {"type": "note_on", "time": 0, "note": 73, "velocity": 107, "channel": 0}, {"type": "note_off", "time": 43, "note": 73, "velocity": 107, "channel": 0}, {"type": "note_on", "time": 0, "note": 74, "velocity": 111, "channel": 0}, {"type": "note_off", "time": 41, "note": 74, "velocity": 111, "channel": 0}, {"type": "note_on", "time": 0, "note": 73, "velocity": 110, "channel": 0}, {"type": "note_off", "time": 29, "note": 73, "velocity": 110, "channel": 0}, {"type": "note_on", "time": 4, "note": 72, "velocity": 99, "channel": 0}, {"type": "note_off", "time": 48, "note": 72, "velocity": 99, "channel": 0}, {"type": "note_on", "time": 3, "note": 71, "velocity": 105, "channel": 0}, {"type": "note_off", "time": 31, "note": 71, "velocity": 105, "channel": 0}, {"type": "note_on", "time": 14, "note": 70, "velocity": 110, "channel": 0}, {"type": "note_off", "time": 33, "note": 70, "velocity": 110, "channel": 0}, {"type": "note_on", "time": 8, "note": 69, "velocity": 108, "channel": 0}, {"type": "note_off", "time": 43, "note": 69, "velocity": 108, "channel": 0}, {"type": "note_on", "time": 0, "note": 68, "velocity": 100, "channel": 0}, {"type": "note_off", "time": 46, "note": 68, "velocity": 100, "channel": 0}, {"type": "note_on", "time": 15, "note": 63, "velocity": 91, "channel": 0}, {"type": "note_off", "time": 46, "note": 63, "velocity": 91, "channel": 0}, {"type": "note_on", "time": 5, "note": 66, "velocity": 97, "channel": 0}, {"type": "note_off", "time": 46, "note": 66, "velocity": 97, "channel": 0}, {"type": "note_on", "time": 13, "note": 63, "velocity": 98, "channel": 0}, {"type": "note_off", "time": 35, "note": 63, "velocity": 98, "channel": 0}, {"type": "note_on", "time": 2, "note": 65, "velocity": 80, "channel": 0}, {"type": "note_off", "time": 103, "note": 65, "velocity": 80, "channel": 0}, {"type": "note_on", "time": 78, "note": 73, "velocity": 110, "channel": 0}, {"type": "note_off", "time": 43, "note": 73, "velocity": 110, "channel": 0}, {"type": "note_on", "time": 8, "note": 71, "velocity": 89, "channel": 0}, {"type": "note_off", "time": 43, "note": 71, "velocity": 89, "channel": 0}, {"type": "note_on", "time": 0, "note": 68, "velocity": 97, "channel": 0}, {"type": "note_off", "time": 43, "note": 68, "velocity": 97, "channel": 0}, {"type": "note_on", "time": 0, "note": 69, "velocity": 102, "channel": 0}, {"type": "note_off", "time": 41, "note": 69, "velocity": 102, "channel": 0}, {"type": "note_on", "time": 0, "note": 70, "velocity": 95, "channel": 0}, {"type": "note_off", "time": 43, "note": 70, "velocity": 95, "channel": 0}, {"type": "note_on", "time": 0, "note": 65, "velocity": 95, "channel": 0}, {"type": "note_off", "time": 43, "note": 65, "velocity": 95, "channel": 0}, {"type": "note_on", "time": 0, "note": 68, "velocity": 107, "channel": 0}, {"type": "note_off", "time": 41, "note": 68, "velocity": 107, "channel": 0}, {"type": "note_on", "time": 0, "note": 65, "velocity": 97, "channel": 0}, {"type": "note_off", "time": 44, "note": 65, "velocity": 97, "channel": 0}, {"type": "note_on", "time": 10, "note": 66, "velocity": 102, "channel": 0}, {"type": "note_off", "time": 44, "note": 66, "velocity": 102, "channel": 0}, {"type": "note_on", "time": 4, "note": 56, "velocity": 104, "channel": 0}, {"type": "note_off", "time": 44, "note": 56, "velocity": 104, "channel": 0}, {"type": "note_on", "time": 1, "note": 57, "velocity": 88, "channel": 0}, {"type": "note_off", "time": 85, "note": 57, "velocity": 88, "channel": 0}, {"type": "note_on", "time": 0, "note": 61, "velocity": 87, "channel": 0}, {"type": "note_off", "time": 242, "note": 61, "velocity": 87, "channel": 0}, {"type": "note_on", "time": 449, "note": 81, "velocity": 123, "channel": 0}, {"type": "note_off", "time": 58, "note": 81, "velocity": 123, "channel": 0}, {"type": "note_on", "time": 22, "note": 79, "velocity": 117, "channel": 0}, {"type": "note_off", "time": 33, "note": 79, "velocity": 117, "channel": 0}, {"type": "note_on", "time": 0, "note": 83, "velocity": 113, "channel": 0}, {"type": "note_off", "time": 33, "note": 83, "velocity": 113, "channel": 0}, {"type": "note_on", "time": 18, "note": 79, "velocity": 110, "channel": 0}, {"type": "note_off", "time": 33, "note": 79, "velocity": 110, "channel": 0}, {"type": "note_on", "time": 0, "note": 77, "velocity": 114, "channel": 0}, {"type": "note_off", "time": 56, "note": 77, "velocity": 114, "channel": 0}, {"type": "note_on", "time": 6, "note": 76, "velocity": 118, "channel": 0}, {"type": "note_off", "time": 100, "note": 76, "velocity": 118, "channel": 0}, {"type": "note_on", "time": 0, "note": 74, "velocity": 117, "channel": 0}, {"type": "note_off", "time": 92, "note": 74, "velocity": 117, "channel": 0}, {"type": "note_on", "time": 0, "note": 72, "velocity": 105, "channel": 0}, {"type": "note_off", "time": 96, "note": 72, "velocity": 105, "channel": 0}, {"type": "note_on", "time": 0, "note": 70, "velocity": 110, "channel": 0}, {"type": "note_off", "time": 91, "note": 70, "velocity": 110, "channel": 0}, {"type": "note_on", "time": 0, "note": 69, "velocity": 96, "channel": 0}, {"type": "note_off", "time": 35, "note": 69, "velocity": 96, "channel": 0}, {"type": "note_on", "time": 73, "note": 77, "velocity": 120, "channel": 0}, {"type": "note_off", "time": 58, "note": 77, "velocity": 120, "channel": 0}, {"type": "note_on", "time": 23, "note": 81, "velocity": 85, "channel": 0}, {"type": "note_off", "time": 187, "note": 81, "velocity": 85, "channel": 0}, {"type": "note_on", "time": 7, "note": 84, "velocity": 118, "channel": 0}, {"type": "note_off", "time": 104, "note": 84, "velocity": 118, "channel": 0}, {"type": "note_on", "time": 384, "note": 81, "velocity": 127, "channel": 0}, {"type": "note_off", "time": 84, "note": 81, "velocity": 127, "channel": 0}, {"type": "note_on", "time": 0, "note": 82, "velocity": 123, "channel": 0}, {"type": "note_off", "time": 97, "note": 82, "velocity": 123, "channel": 0}, {"type": "note_on", "time": 0, "note": 86, "velocity": 123, "channel": 0}, {"type": "note_off", "time": 95, "note": 86, "velocity": 123, "channel": 0}, {"type": "note_on", "time": 0, "note": 84, "velocity": 122, "channel": 0}, {"type": "note_off", "time": 86, "note": 84, "velocity": 122, "channel": 0}, {"type": "note_on", "time": 5, "note": 85, "velocity": 123, "channel": 0}, {"type": "note_off", "time": 81, "note": 85, "velocity": 123, "channel": 0}, {"type": "note_on", "time": 14, "note": 82, "velocity": 124, "channel": 0}, {"type": "note_off", "time": 89, "note": 82, "velocity": 124, "channel": 0}, {"type": "note_on", "time": 41, "note": 81, "velocity": 124, "channel": 0}, {"type": "note_off", "time": 89, "note": 81, "velocity": 124, "channel": 0}, {"type": "note_on", "time": 85, "note": 76, "velocity": 120, "channel": 0}, {"type": "note_off", "time": 96, "note": 76, "velocity": 120, "channel": 0}, {"type": "note_on", "time": 11, "note": 79, "velocity": 115, "channel": 0}, {"type": "note_off", "time": 96, "note": 79, "velocity": 115, "channel": 0}, {"type": "note_on", "time": 0, "note": 77, "velocity": 119, "channel": 0}, {"type": "note_off", "time": 62, "note": 77, "velocity": 119, "channel": 0}, {"type": "note_on", "time": 2, "note": 76, "velocity": 110, "channel": 0}, {"type": "note_off", "time": 91, "note": 76, "velocity": 110, "channel": 0}, {"type": "note_on", "time": 27, "note": 72, "velocity": 114, "channel": 0}, {"type": "note_off", "time": 62, "note": 72, "velocity": 114, "channel": 0}, {"type": "note_on", "time": 12, "note": 69, "velocity": 105, "channel": 0}, {"type": "note_off", "time": 97, "note": 69, "velocity": 105, "channel": 0}, {"type": "note_on", "time": 0, "note": 65, "velocity": 96, "channel": 0}, {"type": "note_off", "time": 96, "note": 65, "velocity": 96, "channel": 0}, {"type": "note_on", "time": 0, "note": 70, "velocity": 109, "channel": 0}, {"type": "note_off", "time": 100, "note": 70, "velocity": 109, "channel": 0}, {"type": "note_on", "time": 0, "note": 65, "velocity": 85, "channel": 0}, {"type": "note_off", "time": 91, "note": 65, "velocity": 85, "channel": 0}, {"type": "note_on", "time": 0, "note": 70, "velocity": 112, "channel": 0}, {"type": "note_off", "time": 99, "note": 70, "velocity": 112, "channel": 0}, {"type": "note_on", "time": 8, "note": 72, "velocity": 107, "channel": 0}, {"type": "note_off", "time": 99, "note": 72, "velocity": 107, "channel": 0}, {"type": "note_on", "time": 0, "note": 73, "velocity": 104, "channel": 0}, {"type": "note_off", "time": 86, "note": 73, "velocity": 104, "channel": 0}, {"type": "note_on", "time": 0, "note": 75, "velocity": 109, "channel": 0}, {"type": "note_off", "time": 87, "note": 75, "velocity": 109, "channel": 0}, {"type": "note_on", "time": 0, "note": 72, "velocity": 106, "channel": 0}, {"type": "note_off", "time": 92, "note": 72, "velocity": 106, "channel": 0}, {"type": "note_on", "time": 0, "note": 70, "velocity": 110, "channel": 0}, {"type": "note_off", "time": 93, "note": 70, "velocity": 110, "channel": 0}, {"type": "note_on", "time": 0, "note": 69, "velocity": 90, "channel": 0}, {"type": "note_off", "time": 102, "note": 69, "velocity": 90, "channel": 0}, {"type": "note_on", "time": 0, "note": 64, "velocity": 80, "channel": 0}, {"type": "note_off", "time": 103, "note": 64, "velocity": 80, "channel": 0}, {"type": "note_on", "time": 0, "note": 69, "velocity": 102, "channel": 0}, {"type": "note_off", "time": 93, "note": 69, "velocity": 102, "channel": 0}, {"type": "note_on", "time": 0, "note": 70, "velocity": 99, "channel": 0}, {"type": "note_off", "time": 92, "note": 70, "velocity": 99, "channel": 0}, {"type": "note_on", "time": 0, "note": 72, "velocity": 95, "channel": 0}, {"type": "note_off", "time": 94, "note": 72, "velocity": 95, "channel": 0}, {"type": "note_on", "time": 0, "note": 70, "velocity": 85, "channel": 0}, {"type": "note_off", "time": 94, "note": 70, "velocity": 85, "channel": 0}, {"type": "note_on", "time": 0, "note": 69, "velocity": 100, "channel": 0}, {"type": "note_off", "time": 95, "note": 69, "velocity": 100, "channel": 0}, {"type": "note_on", "time": 0, "note": 65, "velocity": 82, "channel": 0}, {"type": "note_off", "time": 95, "note": 65, "velocity": 82, "channel": 0}, {"type": "note_on", "time": 0, "note": 67, "velocity": 104, "channel": 0}, {"type": "note_off", "time": 99, "note": 67, "velocity": 104, "channel": 0}, {"type": "note_on", "time": 0, "note": 65, "velocity": 69, "channel": 0}, {"type": "note_off", "time": 99, "note": 65, "velocity": 69, "channel": 0}, {"type": "note_on", "time": 0, "note": 67, "velocity": 111, "channel": 0}, {"type": "note_off", "time": 103, "note": 67, "velocity": 111, "channel": 0}, {"type": "note_on", "time": 0, "note": 69, "velocity": 108, "channel": 0}, {"type": "note_off", "time": 103, "note": 69, "velocity": 108, "channel": 0}, {"type": "note_on", "time": 0, "note": 70, "velocity": 100, "channel": 0}, {"type": "note_off", "time": 91, "note": 70, "velocity": 100, "channel": 0}, {"type": "note_on", "time": 0, "note": 72, "velocity": 98, "channel": 0}, {"type": "note_off", "time": 81, "note": 72, "velocity": 98, "channel": 0}, {"type": "note_on", "time": 0, "note": 69, "velocity": 94, "channel": 0}, {"type": "note_off", "time": 93, "note": 69, "velocity": 94, "channel": 0}, {"type": "note_on", "time": 14, "note": 64, "velocity": 96, "channel": 0}, {"type": "note_off", "time": 93, "note": 64, "velocity": 96, "channel": 0}, {"type": "note_on", "time": 0, "note": 67, "velocity": 104, "channel": 0}, {"type": "note_off", "time": 89, "note": 67, "velocity": 104, "channel": 0}, {"type": "note_on", "time": 0, "note": 64, "velocity": 85, "channel": 0}, {"type": "note_off", "time": 89, "note": 64, "velocity": 85, "channel": 0}, {"type": "note_on", "time": 0, "note": 65, "velocity": 95, "channel": 0}, {"type": "note_off", "time": 97, "note": 65, "velocity": 95, "channel": 0}, {"type": "note_on", "time": 0, "note": 62, "velocity": 79, "channel": 0}, {"type": "note_off", "time": 474, "note": 62, "velocity": 79, "channel": 0}, {"type": "note_on", "time": 389, "note": 68, "velocity": 112, "channel": 0}, {"type": "note_off", "time": 90, "note": 68, "velocity": 112, "channel": 0}, {"type": "note_on", "time": 8, "note": 68, "velocity": 111, "channel": 0}, {"type": "note_off", "time": 65, "note": 68, "velocity": 111, "channel": 0}, {"type": "note_on", "time": 114, "note": 68, "velocity": 111, "channel": 0}, {"type": "note_off", "time": 98, "note": 68, "velocity": 111, "channel": 0}, {"type": "note_on", "time": 0, "note": 68, "velocity": 108, "channel": 0}, {"type": "note_off", "time": 195, "note": 68, "velocity": 108, "channel": 0}, {"type": "note_on", "time": 20, "note": 67, "velocity": 106, "channel": 0}, {"type": "note_off", "time": 94, "note": 67, "velocity": 106, "channel": 0}, {"type": "note_on", "time": 4, "note": 67, "velocity": 89, "channel": 0}, {"type": "note_off", "time": 86, "note": 67, "velocity": 89, "channel": 0}, {"type": "note_on", "time": 22, "note": 67, "velocity": 109, "channel": 0}, {"type": "note_off", "time": 123, "note": 67, "velocity": 109, "channel": 0}, {"type": "note_on", "time": 1, "note": 67, "velocity": 91, "channel": 0}, {"type": "note_off", "time": 136, "note": 67, "velocity": 91, "channel": 0}, {"type": "note_on", "time": 30, "note": 67, "velocity": 110, "channel": 0}, {"type": "note_off", "time": 90, "note": 67, "velocity": 110, "channel": 0}, {"type": "note_on", "time": 7, "note": 67, "velocity": 108, "channel": 0}, {"type": "note_off", "time": 123, "note": 67, "velocity": 108, "channel": 0}, {"type": "note_on", "time": 24, "note": 68, "velocity": 92, "channel": 0}, {"type": "note_off", "time": 105, "note": 68, "velocity": 92, "channel": 0}, {"type": "note_on", "time": 9, "note": 68, "velocity": 112, "channel": 0}, {"type": "note_off", "time": 100, "note": 68, "velocity": 112, "channel": 0}, {"type": "note_on", "time": 0, "note": 68, "velocity": 115, "channel": 0}, {"type": "note_off", "time": 97, "note": 68, "velocity": 115, "channel": 0}, {"type": "note_on", "time": 26, "note": 68, "velocity": 99, "channel": 0}, {"type": "note_off", "time": 159, "note": 68, "velocity": 99, "channel": 0}, {"type": "note_on", "time": 11, "note": 68, "velocity": 116, "channel": 0}, {"type": "note_off", "time": 100, "note": 68, "velocity": 116, "channel": 0}, {"type": "note_on", "time": 0, "note": 68, "velocity": 116, "channel": 0}, {"type": "note_off", "time": 90, "note": 68, "velocity": 116, "channel": 0}, {"type": "note_on", "time": 0, "note": 72, "velocity": 93, "channel": 0}, {"type": "note_off", "time": 46, "note": 72, "velocity": 93, "channel": 0}, {"type": "note_on", "time": 2, "note": 69, "velocity": 89, "channel": 0}, {"type": "note_off", "time": 45, "note": 69, "velocity": 89, "channel": 0}, {"type": "note_on", "time": 0, "note": 67, "velocity": 100, "channel": 0}, {"type": "note_off", "time": 101, "note": 67, "velocity": 100, "channel": 0}, {"type": "note_on", "time": 0, "note": 65, "velocity": 109, "channel": 0}, {"type": "note_off", "time": 100, "note": 65, "velocity": 109, "channel": 0}, {"type": "note_on", "time": 0, "note": 64, "velocity": 93, "channel": 0}, {"type": "note_off", "time": 92, "note": 64, "velocity": 93, "channel": 0}, {"type": "note_on", "time": 0, "note": 65, "velocity": 111, "channel": 0}, {"type": "note_off", "time": 92, "note": 65, "velocity": 111, "channel": 0}, {"type": "note_on", "time": 0, "note": 69, "velocity": 113, "channel": 0}, {"type": "note_off", "time": 93, "note": 69, "velocity": 113, "channel": 0}, {"type": "note_on", "time": 0, "note": 72, "velocity": 107, "channel": 0}, {"type": "note_off", "time": 93, "note": 72, "velocity": 107, "channel": 0}, {"type": "note_on", "time": 28, "note": 73, "velocity": 109, "channel": 0}, {"type": "note_off", "time": 74, "note": 73, "velocity": 109, "channel": 0}, {"type": "note_on", "time": 20, "note": 74, "velocity": 103, "channel": 0}, {"type": "note_off", "time": 209, "note": 74, "velocity": 103, "channel": 0}, {"type": "note_on", "time": 61, "note": 73, "velocity": 104, "channel": 0}, {"type": "note_off", "time": 95, "note": 73, "velocity": 104, "channel": 0}, {"type": "note_on", "time": 0, "note": 75, "velocity": 106, "channel": 0}, {"type": "note_off", "time": 101, "note": 75, "velocity": 106, "channel": 0}, {"type": "note_on", "time": 0, "note": 73, "velocity": 108, "channel": 0}, {"type": "note_off", "time": 82, "note": 73, "velocity": 108, "channel": 0}, {"type": "note_on", "time": 0, "note": 75, "velocity": 108, "channel": 0}, {"type": "note_off", "time": 91, "note": 75, "velocity": 108, "channel": 0}, {"type": "note_on", "time": 0, "note": 72, "velocity": 102, "channel": 0}, {"type": "note_off", "time": 88, "note": 72, "velocity": 102, "channel": 0}, {"type": "note_on", "time": 0, "note": 69, "velocity": 108, "channel": 0}, {"type": "note_off", "time": 89, "note": 69, "velocity": 108, "channel": 0}, {"type": "note_on", "time": 0, "note": 64, "velocity": 108, "channel": 0}, {"type": "note_off", "time": 100, "note": 64, "velocity": 108, "channel": 0}, {"type": "note_on", "time": 0, "note": 60, "velocity": 88, "channel": 0}, {"type": "note_off", "time": 100, "note": 60, "velocity": 88, "channel": 0}, {"type": "note_on", "time": 0, "note": 62, "velocity": 101, "channel": 0}, {"type": "note_off", "time": 72, "note": 62, "velocity": 101, "channel": 0}, {"type": "note_on", "time": 48, "note": 67, "velocity": 97, "channel": 0}, {"type": "note_off", "time": 36, "note": 67, "velocity": 97, "channel": 0}, {"type": "note_on", "time": 5, "note": 69, "velocity": 80, "channel": 0}, {"type": "note_off", "time": 142, "note": 69, "velocity": 80, "channel": 0}, {"type": "note_on", "time": 11, "note": 65, "velocity": 95, "channel": 0}, {"type": "note_off", "time": 47, "note": 65, "velocity": 95, "channel": 0}, {"type": "note_on", "time": 12, "note": 67, "velocity": 92, "channel": 0}, {"type": "note_off", "time": 185, "note": 67, "velocity": 92, "channel": 0}, {"type": "note_on", "time": 126, "note": 68, "velocity": 100, "channel": 0}, {"type": "note_off", "time": 94, "note": 68, "velocity": 100, "channel": 0}, {"type": "note_on", "time": 0, "note": 69, "velocity": 93, "channel": 0}, {"type": "note_off", "time": 97, "note": 69, "velocity": 93, "channel": 0}, {"type": "note_on", "time": 0, "note": 65, "velocity": 95, "channel": 0}, {"type": "note_on", "time": 97, "note": 67, "velocity": 101, "channel": 0}, {"type": "note_off", "time": 0, "note": 65, "velocity": 95, "channel": 0}, {"type": "note_off", "time": 91, "note": 67, "velocity": 101, "channel": 0}, {"type": "note_on", "time": 0, "note": 64, "velocity": 82, "channel": 0}, {"type": "note_off", "time": 92, "note": 64, "velocity": 82, "channel": 0}, {"type": "note_on", "time": 0, "note": 65, "velocity": 105, "channel": 0}, {"type": "note_off", "time": 96, "note": 65, "velocity": 105, "channel": 0}, {"type": "note_on", "time": 0, "note": 60, "velocity": 97, "channel": 0}, {"type": "note_off", "time": 96, "note": 60, "velocity": 97, "channel": 0}, {"type": "note_on", "time": 0, "note": 57, "velocity": 100, "channel": 0}, {"type": "note_off", "time": 96, "note": 57, "velocity": 100, "channel": 0}, {"type": "note_on", "time": 0, "note": 53, "velocity": 90, "channel": 0}, {"type": "note_off", "time": 95, "note": 53, "velocity": 90, "channel": 0}, {"type": "note_on", "time": 0, "note": 55, "velocity": 9, "channel": 0}, {"type": "note_off", "time": 207, "note": 55, "velocity": 9, "channel": 0}, {"type": "note_on", "time": 460, "note": 73, "velocity": 116, "channel": 0}, {"type": "note_off", "time": 97, "note": 73, "velocity": 116, "channel": 0}, {"type": "note_on", "time": 0, "note": 71, "velocity": 108, "channel": 0}, {"type": "note_off", "time": 65, "note": 71, "velocity": 108, "channel": 0}, {"type": "note_on", "time": 0, "note": 73, "velocity": 108, "channel": 0}, {"type": "note_off", "time": 65, "note": 73, "velocity": 108, "channel": 0}, {"type": "note_on", "time": 0, "note": 71, "velocity": 90, "channel": 0}, {"type": "note_off", "time": 65, "note": 71, "velocity": 90, "channel": 0}, {"type": "note_on", "time": 0, "note": 70, "velocity": 104, "channel": 0}, {"type": "note_off", "time": 100, "note": 70, "velocity": 104, "channel": 0}, {"type": "note_on", "time": 0, "note": 68, "velocity": 107, "channel": 0}, {"type": "note_off", "time": 100, "note": 68, "velocity": 107, "channel": 0}, {"type": "note_on", "time": 0, "note": 65, "velocity": 94, "channel": 0}, {"type": "note_off", "time": 90, "note": 65, "velocity": 94, "channel": 0}, {"type": "note_on", "time": 0, "note": 66, "velocity": 104, "channel": 0}, {"type": "note_off", "time": 91, "note": 66, "velocity": 104, "channel": 0}, {"type": "note_on", "time": 0, "note": 70, "velocity": 109, "channel": 0}, {"type": "note_off", "time": 100, "note": 70, "velocity": 109, "channel": 0}, {"type": "note_on", "time": 0, "note": 73, "velocity": 109, "channel": 0}, {"type": "note_off", "time": 100, "note": 73, "velocity": 109, "channel": 0}, {"type": "note_on", "time": 0, "note": 77, "velocity": 118, "channel": 0}, {"type": "note_off", "time": 98, "note": 77, "velocity": 118, "channel": 0}, {"type": "note_on", "time": 0, "note": 75, "velocity": 111, "channel": 0}, {"type": "note_off", "time": 98, "note": 75, "velocity": 111, "channel": 0}, {"type": "note_on", "time": 0, "note": 74, "velocity": 119, "channel": 0}, {"type": "note_off", "time": 101, "note": 74, "velocity": 119, "channel": 0}, {"type": "note_on", "time": 0, "note": 75, "velocity": 99, "channel": 0}, {"type": "note_off", "time": 101, "note": 75, "velocity": 99, "channel": 0}, {"type": "note_on", "time": 0, "note": 78, "velocity": 111, "channel": 0}, {"type": "note_off", "time": 84, "note": 78, "velocity": 111, "channel": 0}, {"type": "note_on", "time": 0, "note": 75, "velocity": 119, "channel": 0}, {"type": "note_off", "time": 78, "note": 75, "velocity": 119, "channel": 0}, {"type": "note_on", "time": 20, "note": 71, "velocity": 115, "channel": 0}, {"type": "note_off", "time": 92, "note": 71, "velocity": 115, "channel": 0}, {"type": "note_on", "time": 0, "note": 68, "velocity": 118, "channel": 0}, {"type": "note_off", "time": 92, "note": 68, "velocity": 118, "channel": 0}, {"type": "note_on", "time": 0, "note": 69, "velocity": 114, "channel": 0}, {"type": "note_off", "time": 64, "note": 69, "velocity": 114, "channel": 0}, {"type": "note_on", "time": 67, "note": 76, "velocity": 109, "channel": 0}, {"type": "note_off", "time": 32, "note": 76, "velocity": 109, "channel": 0}, {"type": "note_on", "time": 3, "note": 77, "velocity": 92, "channel": 0}, {"type": "note_off", "time": 121, "note": 77, "velocity": 92, "channel": 0}, {"type": "note_on", "time": 9, "note": 75, "velocity": 120, "channel": 0}, {"type": "note_off", "time": 90, "note": 75, "velocity": 120, "channel": 0}, {"type": "note_on", "time": 9, "note": 73, "velocity": 108, "channel": 0}, {"type": "note_off", "time": 91, "note": 73, "velocity": 108, "channel": 0}, {"type": "note_on", "time": 7, "note": 70, "velocity": 111, "channel": 0}, {"type": "note_off", "time": 90, "note": 70, "velocity": 111, "channel": 0}, {"type": "note_on", "time": 0, "note": 71, "velocity": 113, "channel": 0}, {"type": "note_off", "time": 82, "note": 71, "velocity": 113, "channel": 0}, {"type": "note_on", "time": 0, "note": 73, "velocity": 114, "channel": 0}, {"type": "note_off", "time": 86, "note": 73, "velocity": 114, "channel": 0}, {"type": "note_on", "time": 0, "note": 70, "velocity": 111, "channel": 0}, {"type": "note_off", "time": 88, "note": 70, "velocity": 111, "channel": 0}, {"type": "note_on", "time": 0, "note": 65, "velocity": 103, "channel": 0}, {"type": "note_off", "time": 93, "note": 65, "velocity": 103, "channel": 0}, {"type": "note_on", "time": 11, "note": 68, "velocity": 110, "channel": 0}, {"type": "note_off", "time": 90, "note": 68, "velocity": 110, "channel": 0}, {"type": "note_on", "time": 17, "note": 65, "velocity": 112, "channel": 0}, {"type": "note_off", "time": 54, "note": 65, "velocity": 112, "channel": 0}, {"type": "note_on", "time": 24, "note": 66, "velocity": 105, "channel": 0}, {"type": "note_off", "time": 81, "note": 66, "velocity": 105, "channel": 0}, {"type": "note_on", "time": 9, "note": 68, "velocity": 111, "channel": 0}, {"type": "note_off", "time": 66, "note": 68, "velocity": 111, "channel": 0}, {"type": "note_on", "time": 21, "note": 69, "velocity": 108, "channel": 0}, {"type": "note_off", "time": 100, "note": 69, "velocity": 108, "channel": 0}, {"type": "note_on", "time": 0, "note": 71, "velocity": 105, "channel": 0}, {"type": "note_off", "time": 100, "note": 71, "velocity": 105, "channel": 0}, {"type": "note_on", "time": 0, "note": 73, "velocity": 108, "channel": 0}, {"type": "note_off", "time": 100, "note": 73, "velocity": 108, "channel": 0}, {"type": "note_on", "time": 0, "note": 71, "velocity": 111, "channel": 0}, {"type": "note_off", "time": 100, "note": 71, "velocity": 111, "channel": 0}, {"type": "note_on", "time": 0, "note": 69, "velocity": 109, "channel": 0}, {"type": "note_off", "time": 97, "note": 69, "velocity": 109, "channel": 0}, {"type": "note_on", "time": 0, "note": 68, "velocity": 79, "channel": 0}, {"type": "note_off", "time": 97, "note": 68, "velocity": 79, "channel": 0}, {"type": "note_on", "time": 16, "note": 69, "velocity": 115, "channel": 0}, {"type": "note_off", "time": 32, "note": 69, "velocity": 115, "channel": 0}, {"type": "note_on", "time": 0, "note": 70, "velocity": 114, "channel": 0}, {"type": "note_off", "time": 211, "note": 70, "velocity": 114, "channel": 0}, {"type": "note_on", "time": 27, "note": 73, "velocity": 111, "channel": 0}, {"type": "note_off", "time": 92, "note": 73, "velocity": 111, "channel": 0}, {"type": "note_on", "time": 285, "note": 78, "velocity": 116, "channel": 0}, {"type": "note_off", "time": 89, "note": 78, "velocity": 116, "channel": 0}, {"type": "note_on", "time": 95, "note": 71, "velocity": 101, "channel": 0}, {"type": "note_off", "time": 44, "note": 71, "velocity": 101, "channel": 0}, {"type": "note_on", "time": 6, "note": 72, "velocity": 113, "channel": 0}, {"type": "note_off", "time": 42, "note": 72, "velocity": 113, "channel": 0}, {"type": "note_on", "time": 92, "note": 71, "velocity": 109, "channel": 0}, {"type": "note_off", "time": 102, "note": 71, "velocity": 109, "channel": 0}, {"type": "note_on", "time": 0, "note": 69, "velocity": 112, "channel": 0}, {"type": "note_off", "time": 90, "note": 69, "velocity": 112, "channel": 0}, {"type": "note_on", "time": 0, "note": 66, "velocity": 108, "channel": 0}, {"type": "note_off", "time": 57, "note": 66, "velocity": 108, "channel": 0}, {"type": "note_on", "time": 38, "note": 61, "velocity": 92, "channel": 0}, {"type": "note_off", "time": 89, "note": 61, "velocity": 92, "channel": 0}, {"type": "note_on", "time": 388, "note": 59, "velocity": 95, "channel": 0}, {"type": "note_off", "time": 88, "note": 59, "velocity": 95, "channel": 0}, {"type": "note_on", "time": 0, "note": 58, "velocity": 83, "channel": 0}, {"type": "note_off", "time": 96, "note": 58, "velocity": 83, "channel": 0}, {"type": "note_on", "time": 0, "note": 68, "velocity": 112, "channel": 0}, {"type": "note_off", "time": 96, "note": 68, "velocity": 112, "channel": 0}, {"type": "note_on", "time": 0, "note": 65, "velocity": 96, "channel": 0}, {"type": "note_off", "time": 90, "note": 65, "velocity": 96, "channel": 0}, {"type": "note_on", "time": 0, "note": 61, "velocity": 80, "channel": 0}, {"type": "note_off", "time": 90, "note": 61, "velocity": 80, "channel": 0}, {"type": "note_on", "time": 0, "note": 66, "velocity": 92, "channel": 0}, {"type": "note_off", "time": 212, "note": 66, "velocity": 92, "channel": 0}, {"type": "note_on", "time": 90, "note": 69, "velocity": 117, "channel": 0}, {"type": "note_off", "time": 90, "note": 69, "velocity": 117, "channel": 0}, {"type": "note_on", "time": 0, "note": 72, "velocity": 115, "channel": 0}, {"type": "note_off", "time": 99, "note": 72, "velocity": 115, "channel": 0}, {"type": "note_on", "time": 0, "note": 75, "velocity": 120, "channel": 0}, {"type": "note_off", "time": 99, "note": 75, "velocity": 120, "channel": 0}, {"type": "note_on", "time": 0, "note": 72, "velocity": 110, "channel": 0}, {"type": "note_off", "time": 96, "note": 72, "velocity": 110, "channel": 0}, {"type": "note_on", "time": 0, "note": 73, "velocity": 120, "channel": 0}, {"type": "note_off", "time": 96, "note": 73, "velocity": 120, "channel": 0}, {"type": "note_on", "time": 0, "note": 74, "velocity": 105, "channel": 0}, {"type": "note_off", "time": 124, "note": 74, "velocity": 105, "channel": 0}, {"type": "note_on", "time": 0, "note": 79, "velocity": 116, "channel": 0}, {"type": "note_off", "time": 102, "note": 79, "velocity": 116, "channel": 0}, {"type": "note_on", "time": 68, "note": 74, "velocity": 117, "channel": 0}, {"type": "note_off", "time": 83, "note": 74, "velocity": 117, "channel": 0}, {"type": "note_on", "time": 42, "note": 72, "velocity": 110, "channel": 0}, {"type": "note_off", "time": 98, "note": 72, "velocity": 110, "channel": 0}, {"type": "note_on", "time": 65, "note": 68, "velocity": 99, "channel": 0}, {"type": "note_off", "time": 65, "note": 68, "velocity": 99, "channel": 0}, {"type": "note_on", "time": 64, "note": 67, "velocity": 110, "channel": 0}, {"type": "note_off", "time": 60, "note": 67, "velocity": 110, "channel": 0}, {"type": "note_on", "time": 82, "note": 69, "velocity": 97, "channel": 0}, {"type": "note_off", "time": 91, "note": 69, "velocity": 97, "channel": 0}, {"type": "note_on", "time": 0, "note": 70, "velocity": 112, "channel": 0}, {"type": "note_off", "time": 92, "note": 70, "velocity": 112, "channel": 0}, {"type": "note_on", "time": 0, "note": 64, "velocity": 102, "channel": 0}, {"type": "note_off", "time": 92, "note": 64, "velocity": 102, "channel": 0}, {"type": "note_on", "time": 0, "note": 65, "velocity": 109, "channel": 0}, {"type": "note_off", "time": 51, "note": 65, "velocity": 109, "channel": 0}, {"type": "note_on", "time": 0, "note": 62, "velocity": 89, "channel": 0}, {"type": "note_off", "time": 51, "note": 62, "velocity": 89, "channel": 0}, {"type": "note_on", "time": 8, "note": 64, "velocity": 92, "channel": 0}, {"type": "note_off", "time": 196, "note": 64, "velocity": 92, "channel": 0}, {"type": "note_on", "time": 99, "note": 71, "velocity": 113, "channel": 0}, {"type": "note_off", "time": 30, "note": 71, "velocity": 113, "channel": 0}, {"type": "note_on", "time": 0, "note": 72, "velocity": 78, "channel": 0}, {"type": "note_off", "time": 91, "note": 72, "velocity": 78, "channel": 0}, {"type": "note_on", "time": 0, "note": 77, "velocity": 115, "channel": 0}, {"type": "note_off", "time": 122, "note": 77, "velocity": 115, "channel": 0}, {"type": "note_on", "time": 0, "note": 72, "velocity": 93, "channel": 0}, {"type": "note_off", "time": 124, "note": 72, "velocity": 93, "channel": 0}, {"type": "note_on", "time": 0, "note": 70, "velocity": 109, "channel": 0}, {"type": "note_off", "time": 96, "note": 70, "velocity": 109, "channel": 0}, {"type": "note_on", "time": 0, "note": 68, "velocity": 88, "channel": 0}, {"type": "note_on", "time": 21, "note": 69, "velocity": 89, "channel": 0}, {"type": "note_off", "time": 0, "note": 68, "velocity": 88, "channel": 0}, {"type": "note_off", "time": 122, "note": 69, "velocity": 89, "channel": 0}, {"type": "note_on", "time": 0, "note": 65, "velocity": 103, "channel": 0}, {"type": "note_on", "time": 126, "note": 67, "velocity": 107, "channel": 0}, {"type": "note_off", "time": 0, "note": 65, "velocity": 103, "channel": 0}, {"type": "note_off", "time": 127, "note": 67, "velocity": 107, "channel": 0}, {"type": "note_on", "time": 0, "note": 68, "velocity": 107, "channel": 0}, {"type": "note_off", "time": 63, "note": 68, "velocity": 107, "channel": 0}, {"type": "note_on", "time": 0, "note": 62, "velocity": 97, "channel": 0}, {"type": "note_off", "time": 60, "note": 62, "velocity": 97, "channel": 0}, {"type": "note_on", "time": 0, "note": 63, "velocity": 110, "channel": 0}, {"type": "note_off", "time": 60, "note": 63, "velocity": 110, "channel": 0}, {"type": "note_on", "time": 0, "note": 60, "velocity": 94, "channel": 0}, {"type": "note_off", "time": 60, "note": 60, "velocity": 94, "channel": 0}, {"type": "note_on", "time": 0, "note": 62, "velocity": 97, "channel": 0}, {"type": "note_off", "time": 186, "note": 62, "velocity": 97, "channel": 0}, {"type": "note_on", "time": 296, "note": 79, "velocity": 120, "channel": 0}, {"type": "note_off", "time": 88, "note": 79, "velocity": 120, "channel": 0}, {"type": "note_on", "time": 0, "note": 74, "velocity": 114, "channel": 0}, {"type": "note_off", "time": 97, "note": 74, "velocity": 114, "channel": 0}, {"type": "note_on", "time": 0, "note": 77, "velocity": 117, "channel": 0}, {"type": "note_off", "time": 98, "note": 77, "velocity": 117, "channel": 0}, {"type": "note_on", "time": 0, "note": 75, "velocity": 113, "channel": 0}, {"type": "note_off", "time": 102, "note": 75, "velocity": 113, "channel": 0}, {"type": "note_on", "time": 0, "note": 70, "velocity": 109, "channel": 0}, {"type": "note_off", "time": 102, "note": 70, "velocity": 109, "channel": 0}, {"type": "note_on", "time": 0, "note": 67, "velocity": 104, "channel": 0}, {"type": "note_off", "time": 85, "note": 67, "velocity": 104, "channel": 0}, {"type": "note_on", "time": 0, "note": 63, "velocity": 86, "channel": 0}, {"type": "note_off", "time": 85, "note": 63, "velocity": 86, "channel": 0}, {"type": "note_on", "time": 0, "note": 66, "velocity": 102, "channel": 0}, {"type": "note_off", "time": 192, "note": 66, "velocity": 102, "channel": 0}, {"type": "note_on", "time": 0, "note": 66, "velocity": 105, "channel": 0}, {"type": "note_off", "time": 102, "note": 66, "velocity": 105, "channel": 0}, {"type": "note_on", "time": 0, "note": 66, "velocity": 103, "channel": 0}, {"type": "note_off", "time": 102, "note": 66, "velocity": 103, "channel": 0}, {"type": "note_on", "time": 88, "note": 68, "velocity": 109, "channel": 0}, {"type": "note_off", "time": 89, "note": 68, "velocity": 109, "channel": 0}, {"type": "note_on", "time": 0, "note": 65, "velocity": 100, "channel": 0}, {"type": "note_off", "time": 258, "note": 65, "velocity": 100, "channel": 0}, {"type": "note_on", "time": 38, "note": 75, "velocity": 116, "channel": 0}, {"type": "note_off", "time": 92, "note": 75, "velocity": 116, "channel": 0}, {"type": "note_on", "time": 0, "note": 73, "velocity": 107, "channel": 0}, {"type": "note_off", "time": 102, "note": 73, "velocity": 107, "channel": 0}, {"type": "note_on", "time": 0, "note": 70, "velocity": 109, "channel": 0}, {"type": "note_off", "time": 103, "note": 70, "velocity": 109, "channel": 0}, {"type": "note_on", "time": 0, "note": 68, "velocity": 109, "channel": 0}, {"type": "note_off", "time": 102, "note": 68, "velocity": 109, "channel": 0}, {"type": "note_on", "time": 0, "note": 66, "velocity": 107, "channel": 0}, {"type": "note_off", "time": 103, "note": 66, "velocity": 107, "channel": 0}, {"type": "note_on", "time": 0, "note": 63, "velocity": 95, "channel": 0}, {"type": "note_off", "time": 86, "note": 63, "velocity": 95, "channel": 0}, {"type": "note_on", "time": 0, "note": 58, "velocity": 93, "channel": 0}, {"type": "note_off", "time": 87, "note": 58, "velocity": 93, "channel": 0}, {"type": "note_on", "time": 0, "note": 68, "velocity": 96, "channel": 0}, {"type": "note_off", "time": 31, "note": 68, "velocity": 96, "channel": 0}, {"type": "note_on", "time": 0, "note": 69, "velocity": 91, "channel": 0}, {"type": "note_off", "time": 156, "note": 69, "velocity": 91, "channel": 0}, {"type": "note_on", "time": 0, "note": 69, "velocity": 107, "channel": 0}, {"type": "note_off", "time": 89, "note": 69, "velocity": 107, "channel": 0}, {"type": "note_on", "time": 52, "note": 69, "velocity": 109, "channel": 0}, {"type": "note_off", "time": 89, "note": 69, "velocity": 109, "channel": 0}, {"type": "note_on", "time": 55, "note": 67, "velocity": 106, "channel": 0}, {"type": "note_off", "time": 107, "note": 67, "velocity": 106, "channel": 0}, {"type": "note_on", "time": 0, "note": 64, "velocity": 109, "channel": 0}, {"type": "note_off", "time": 94, "note": 64, "velocity": 109, "channel": 0}, {"type": "note_on", "time": 0, "note": 62, "velocity": 104, "channel": 0}, {"type": "note_off", "time": 94, "note": 62, "velocity": 104, "channel": 0}, {"type": "note_on", "time": 0, "note": 60, "velocity": 94, "channel": 0}, {"type": "note_off", "time": 291, "note": 60, "velocity": 94, "channel": 0}, {"type": "note_on", "time": 4, "note": 60, "velocity": 84, "channel": 0}, {"type": "note_off", "time": 362, "note": 60, "velocity": 84, "channel": 0}, {"type": "note_on", "time": 214, "note": 67, "velocity": 105, "channel": 0}, {"type": "note_off", "time": 23, "note": 67, "velocity": 105, "channel": 0}, {"type": "note_on", "time": 0, "note": 69, "velocity": 80, "channel": 0}, {"type": "note_off", "time": 128, "note": 69, "velocity": 80, "channel": 0}, {"type": "note_on", "time": 3, "note": 69, "velocity": 115, "channel": 0}, {"type": "note_off", "time": 62, "note": 69, "velocity": 115, "channel": 0}, {"type": "note_on", "time": 64, "note": 69, "velocity": 115, "channel": 0}, {"type": "note_off", "time": 99, "note": 69, "velocity": 115, "channel": 0}, {"type": "note_on", "time": 0, "note": 67, "velocity": 115, "channel": 0}, {"type": "note_off", "time": 72, "note": 67, "velocity": 115, "channel": 0}, {"type": "note_on", "time": 10, "note": 64, "velocity": 113, "channel": 0}, {"type": "note_off", "time": 94, "note": 64, "velocity": 113, "channel": 0}, {"type": "note_on", "time": 0, "note": 62, "velocity": 108, "channel": 0}, {"type": "note_off", "time": 94, "note": 62, "velocity": 108, "channel": 0}, {"type": "note_on", "time": 16, "note": 60, "velocity": 87, "channel": 0}, {"type": "note_off", "time": 97, "note": 60, "velocity": 87, "channel": 0}, {"type": "note_on", "time": 5, "note": 71, "velocity": 106, "channel": 0}, {"type": "note_off", "time": 26, "note": 71, "velocity": 106, "channel": 0}, {"type": "note_on", "time": 7, "note": 72, "velocity": 113, "channel": 0}, {"type": "note_off", "time": 52, "note": 72, "velocity": 113, "channel": 0}, {"type": "note_on", "time": 210, "note": 69, "velocity": 116, "channel": 0}, {"type": "note_off", "time": 77, "note": 69, "velocity": 116, "channel": 0}, {"type": "note_on", "time": 0, "note": 67, "velocity": 110, "channel": 0}, {"type": "note_off", "time": 77, "note": 67, "velocity": 110, "channel": 0}, {"type": "note_on", "time": 0, "note": 65, "velocity": 108, "channel": 0}, {"type": "note_off", "time": 97, "note": 65, "velocity": 108, "channel": 0}, {"type": "note_on", "time": 0, "note": 62, "velocity": 105, "channel": 0}, {"type": "note_off", "time": 97, "note": 62, "velocity": 105, "channel": 0}, {"type": "note_on", "time": 0, "note": 61, "velocity": 97, "channel": 0}, {"type": "note_off", "time": 90, "note": 61, "velocity": 97, "channel": 0}, {"type": "note_on", "time": 42, "note": 71, "velocity": 104, "channel": 0}, {"type": "note_off", "time": 10, "note": 71, "velocity": 104, "channel": 0}, {"type": "note_on", "time": 0, "note": 73, "velocity": 112, "channel": 0}, {"type": "note_off", "time": 90, "note": 73, "velocity": 112, "channel": 0}, {"type": "note_on", "time": 140, "note": 72, "velocity": 112, "channel": 0}, {"type": "note_off", "time": 85, "note": 72, "velocity": 112, "channel": 0}, {"type": "note_on", "time": 0, "note": 70, "velocity": 115, "channel": 0}, {"type": "note_off", "time": 87, "note": 70, "velocity": 115, "channel": 0}, {"type": "note_on", "time": 1, "note": 68, "velocity": 111, "channel": 0}, {"type": "note_off", "time": 105, "note": 68, "velocity": 111, "channel": 0}, {"type": "note_on", "time": 0, "note": 63, "velocity": 105, "channel": 0}, {"type": "note_off", "time": 106, "note": 63, "velocity": 105, "channel": 0}, {"type": "note_on", "time": 0, "note": 60, "velocity": 96, "channel": 0}, {"type": "note_off", "time": 99, "note": 60, "velocity": 96, "channel": 0}, {"type": "note_on", "time": 0, "note": 69, "velocity": 80, "channel": 0}, {"type": "note_off", "time": 99, "note": 69, "velocity": 80, "channel": 0}, {"type": "note_on", "time": 461, "note": 68, "velocity": 110, "channel": 0}, {"type": "note_off", "time": 98, "note": 68, "velocity": 110, "channel": 0}, {"type": "note_on", "time": 0, "note": 67, "velocity": 95, "channel": 0}, {"type": "note_off", "time": 100, "note": 67, "velocity": 95, "channel": 0}, {"type": "note_on", "time": 0, "note": 69, "velocity": 110, "channel": 0}, {"type": "note_off", "time": 100, "note": 69, "velocity": 110, "channel": 0}, {"type": "note_on", "time": 0, "note": 70, "velocity": 100, "channel": 0}, {"type": "note_off", "time": 96, "note": 70, "velocity": 100, "channel": 0}, {"type": "note_on", "time": 0, "note": 72, "velocity": 120, "channel": 0}, {"type": "note_off", "time": 96, "note": 72, "velocity": 120, "channel": 0}, {"type": "note_on", "time": 0, "note": 74, "velocity": 123, "channel": 0}, {"type": "note_off", "time": 75, "note": 74, "velocity": 123, "channel": 0}, {"type": "note_on", "time": 15, "note": 76, "velocity": 110, "channel": 0}, {"type": "note_off", "time": 101, "note": 76, "velocity": 110, "channel": 0}, {"type": "note_on", "time": 12, "note": 81, "velocity": 123, "channel": 0}, {"type": "note_off", "time": 104, "note": 81, "velocity": 123, "channel": 0}, {"type": "note_on", "time": 0, "note": 76, "velocity": 119, "channel": 0}, {"type": "note_off", "time": 101, "note": 76, "velocity": 119, "channel": 0}, {"type": "note_on", "time": 0, "note": 77, "velocity": 112, "channel": 0}, {"type": "note_off", "time": 150, "note": 77, "velocity": 112, "channel": 0}, {"type": "note_on", "time": 29, "note": 72, "velocity": 107, "channel": 0}, {"type": "note_off", "time": 94, "note": 72, "velocity": 107, "channel": 0}, {"type": "note_on", "time": 0, "note": 69, "velocity": 111, "channel": 0}, {"type": "note_off", "time": 62, "note": 69, "velocity": 111, "channel": 0}, {"type": "note_on", "time": 67, "note": 73, "velocity": 115, "channel": 0}, {"type": "note_off", "time": 63, "note": 73, "velocity": 115, "channel": 0}, {"type": "note_on", "time": 2, "note": 74, "velocity": 108, "channel": 0}, {"type": "note_off", "time": 93, "note": 74, "velocity": 108, "channel": 0}, {"type": "note_on", "time": 6, "note": 70, "velocity": 112, "channel": 0}, {"type": "note_off", "time": 90, "note": 70, "velocity": 112, "channel": 0}, {"type": "note_on", "time": 0, "note": 67, "velocity": 105, "channel": 0}, {"type": "note_off", "time": 56, "note": 67, "velocity": 105, "channel": 0}, {"type": "note_on", "time": 61, "note": 71, "velocity": 109, "channel": 0}, {"type": "note_off", "time": 68, "note": 71, "velocity": 109, "channel": 0}, {"type": "note_on", "time": 0, "note": 72, "velocity": 98, "channel": 0}, {"type": "note_off", "time": 101, "note": 72, "velocity": 98, "channel": 0}, {"type": "note_on", "time": 0, "note": 69, "velocity": 111, "channel": 0}, {"type": "note_off", "time": 56, "note": 69, "velocity": 111, "channel": 0}, {"type": "note_on", "time": 35, "note": 65, "velocity": 100, "channel": 0}, {"type": "note_off", "time": 97, "note": 65, "velocity": 100, "channel": 0}, {"type": "note_on", "time": 4, "note": 70, "velocity": 109, "channel": 0}, {"type": "note_off", "time": 98, "note": 70, "velocity": 109, "channel": 0}, {"type": "note_on", "time": 0, "note": 67, "velocity": 106, "channel": 0}, {"type": "note_off", "time": 47, "note": 67, "velocity": 106, "channel": 0}, {"type": "note_on", "time": 16, "note": 64, "velocity": 105, "channel": 0}, {"type": "note_off", "time": 50, "note": 64, "velocity": 105, "channel": 0}, {"type": "note_on", "time": 14, "note": 60, "velocity": 82, "channel": 0}, {"type": "note_off", "time": 50, "note": 60, "velocity": 82, "channel": 0}, {"type": "note_on", "time": 8, "note": 65, "velocity": 98, "channel": 0}, {"type": "note_off", "time": 164, "note": 65, "velocity": 98, "channel": 0}, {"type": "end_of_track", "time": 0}]]}