{"ticks_per_beat": 840, "tracks": [[{"type": "track_name", "name": "Melody", "time": 0}, {"type": "set_tempo", "tempo": 431654, "time": 0}, {"type": "key_signature", "key": "Eb", "time": 0}, {"type": "time_signature", "numerator": 4, "denominator": 4, "clocks_per_click": 24, "notated_32nd_notes_per_beat": 8, "time": 0}, {"type": "note_on", "time": 8840, "note": 73, "velocity": 112, "channel": 0}, {"type": "note_off", "time": 91, "note": 73, "velocity": 112, "channel": 0}, {"type": "note_on", "time": 39, "note": 74, "velocity": 112, "channel": 0}, {"type": "note_off", "time": 262, "note": 74, "velocity": 112, "channel": 0}, {"type": "note_on", "time": 234, "note": 73, "velocity": 117, "channel": 0}, {"type": "note_off", "time": 95, "note": 73, "velocity": 117, "channel": 0}, {"type": "note_on", "time": 43, "note": 74, "velocity": 111, "channel": 0}, {"type": "note_off", "time": 293, "note": 74, "velocity": 111, "channel": 0}, {"type": "note_on", "time": 198, "note": 73, "velocity": 114, "channel": 0}, {"type": "note_off", "time": 111, "note": 73, "velocity": 114, "channel": 0}, {"type": "note_on", "time": 15, "note": 74, "velocity": 108, "channel": 0}, {"type": "note_off", "time": 266, "note": 74, "velocity": 108, "channel": 0}, {"type": "note_on", "time": 166, "note": 73, "velocity": 91, "channel": 0}, {"type": "note_off", "time": 115, "note": 73, "velocity": 91, "channel": 0}, {"type": "note_on", "time": 23, "note": 74, "velocity": 109, "channel": 0}, {"type": "note_off", "time": 313, "note": 74, "velocity": 109, "channel": 0}, {"type": "note_on", "time": 154, "note": 72, "velocity": 93, "channel": 0}, {"type": "note_off", "time": 127, "note": 72, "velocity": 93, "channel": 0}, {"type": "note_on", "time": 27, "note": 74, "velocity": 111, "channel": 0}, {"type": "note_off", "time": 274, "note": 74, "velocity": 111, "channel": 0}, {"type": "note_on", "time": 238, "note": 74, "velocity": 117, "channel": 0}, {"type": "note_off", "time": 242, "note": 74, "velocity": 117, "channel": 0}, {"type": "note_on", "time": 107, "note": 77, "velocity": 121, "channel": 0}, {"type": "note_off", "time": 278, "note": 77, "velocity": 121, "channel": 0}, {"type": "note_on", "time": 55, "note": 75, "velocity": 110, "channel": 0}, {"type": "note_off", "time": 452, "note": 75, "velocity": 110, "channel": 0}, {"type": "note_on", "time": 51, "note": 72, "velocity": 101, "channel": 0}, {"type": "note_off", "time": 587, "note": 72, "velocity": 101, "channel": 0}, {"type": "note_on", "time": 214, "note": 67, "velocity": 115, "channel": 0}, {"type": "note_off", "time": 278, "note": 67, "velocity": 115, "channel": 0}, {"type": "note_on", "time": 107, "note": 63, "velocity": 90, "channel": 0}, {"type": "note_off", "time": 289, "note": 63, "velocity": 90, "channel": 0}, {"type": "note_on", "time": 95, "note": 60, "velocity": 83, "channel": 0}, {"type": "note_off", "time": 266, "note": 60, "velocity": 83, "channel": 0}, {"type": "note_on", "time": 111, "note": 65, "velocity": 106, "channel": 0}, {"type": "note_off", "time": 333, "note": 65, "velocity": 106, "channel": 0}, {"type": "note_on", "time": 1028, "note": 67, "velocity": 110, "channel": 0}, {"type": "note_off", "time": 266, "note": 67, "velocity": 110, "channel": 0}, {"type": "note_on", "time": 59, "note": 68, "velocity": 108, "channel": 0}, {"type": "note_off", "time": 373, "note": 68, "velocity": 108, "channel": 0}, {"type": "note_on", "time": 83, "note": 69, "velocity": 114, "channel": 0}, {"type": "note_off", "time": 285, "note": 69, "velocity": 114, "channel": 0}, {"type": "note_on", "time": 55, "note": 72, "velocity": 85, "channel": 0}, {"type": "note_off", "time": 91, "note": 72, "velocity": 85, "channel": 0}, {"type": "note_on", "time": 27, "note": 74, "velocity": 102, "channel": 0}, {"type": "note_off", "time": 63, "note": 74, "velocity": 102, "channel": 0}, {"type": "note_on", "time": 91, "note": 72, "velocity": 98, "channel": 0}, {"type": "note_off", "time": 293, "note": 72, "velocity": 98, "channel": 0}, {"type": "note_on", "time": 75, "note": 69, "velocity": 92, "channel": 0}, {"type": "note_off", "time": 146, "note": 69, "velocity": 92, "channel": 0}, {"type": "note_on", "time": 107, "note": 70, "velocity": 112, "channel": 0}, {"type": "note_off", "time": 393, "note": 70, "velocity": 112, "channel": 0}, {"type": "note_on", "time": 131, "note": 58, "velocity": 88, "channel": 0}, {"type": "note_off", "time": 194, "note": 58, "velocity": 88, "channel": 0}, {"type": "note_on", "time": 166, "note": 63, "velocity": 100, "channel": 0}, {"type": "note_off", "time": 361, "note": 63, "velocity": 100, "channel": 0}, {"type": "note_on", "time": 35, "note": 68, "velocity": 116, "channel": 0}, {"type": "note_off", "time": 436, "note": 68, "velocity": 116, "channel": 0}, {"type": "note_on", "time": 31, "note": 67, "velocity": 115, "channel": 0}, {"type": "note_off", "time": 361, "note": 67, "velocity": 115, "channel": 0}, {"type": "note_on", "time": 91, "note": 63, "velocity": 106, "channel": 0}, {"type": "note_off", "time": 305, "note": 63, "velocity": 106, "channel": 0}, {"type": "note_on", "time": 83, "note": 60, "velocity": 89, "channel": 0}, {"type": "note_off", "time": 289, "note": 60, "velocity": 89, "channel": 0}, {"type": "note_on", "time": 162, "note": 56, "velocity": 86, "channel": 0}, {"type": "note_off", "time": 174, "note": 56, "velocity": 86, "channel": 0}, {"type": "note_on", "time": 178, "note": 62, "velocity": 104, "channel": 0}, {"type": "note_off", "time": 742, "note": 62, "velocity": 104, "channel": 0}, {"type": "note_on", "time": 43, "note": 60, "velocity": 80, "channel": 0}, {"type": "note_off", "time": 63, "note": 60, "velocity": 80, "channel": 0}, {"type": "note_on", "time": 75, "note": 62, "velocity": 90, "channel": 0}, {"type": "note_off", "time": 246, "note": 62, "velocity": 90, "channel": 0}, {"type": "note_on", "time": 83, "note": 59, "velocity": 95, "channel": 0}, {"type": "note_off", "time": 480, "note": 59, "velocity": 95, "channel": 0}, {"type": "note_on", "time": 99, "note": 63, "velocity": 93, "channel": 0}, {"type": "note_off", "time": 99, "note": 63, "velocity": 93, "channel": 0}, {"type": "note_on", "time": 27, "note": 65, "velocity": 105, "channel": 0}, {"type": "note_off", "time": 135, "note": 65, "velocity": 105, "channel": 0}, {"type": "note_on", "time": 11, "note": 68, "velocity": 119, "channel": 0}, {"type": "note_off", "time": 309, "note": 68, "velocity": 119, "channel": 0}, {"type": "note_on", "time": 59, "note": 67, "velocity": 112, "channel": 0}, {"type": "note_off", "time": 1779, "note": 67, "velocity": 112, "channel": 0}, {"type": "note_on", "time": 270, "note": 73, "velocity": 97, "channel": 0}, {"type": "note_off", "time": 83, "note": 73, "velocity": 97, "channel": 0}, {"type": "note_on", "time": 51, "note": 74, "velocity": 115, "channel": 0}, {"type": "note_off", "time": 365, "note": 74, "velocity": 115, "channel": 0}, {"type": "note_on", "time": 139, "note": 72, "velocity": 120, "channel": 0}, {"type": "note_off", "time": 285, "note": 72, "velocity": 120, "channel": 0}, {"type": "note_on", "time": 71, "note": 67, "velocity": 112, "channel": 0}, {"type": "note_off", "time": 222, "note": 67, "velocity": 112, "channel": 0}, {"type": "note_on", "time": 47, "note": 63, "velocity": 100, "channel": 0}, {"type": "note_off", "time": 226, "note": 63, "velocity": 100, "channel": 0}, {"type": "note_on", "time": 150, "note": 62, "velocity": 82, "channel": 0}, {"type": "note_off", "time": 131, "note": 62, "velocity": 82, "channel": 0}, {"type": "note_on", "time": 31, "note": 66, "velocity": 115, "channel": 0}, {"type": "note_off", "time": 746, "note": 66, "velocity": 115, "channel": 0}, {"type": "note_on", "time": 11, "note": 70, "velocity": 111, "channel": 0}, {"type": "note_off", "time": 297, "note": 70, "velocity": 111, "channel": 0}, {"type": "note_on", "time": 95, "note": 65, "velocity": 94, "channel": 0}, {"type": "note_off", "time": 389, "note": 65, "velocity": 94, "channel": 0}, {"type": "note_on", "time": 79, "note": 63, "velocity": 91, "channel": 0}, {"type": "note_off", "time": 293, "note": 63, "velocity": 91, "channel": 0}, {"type": "note_on", "time": 27, "note": 68, "velocity": 107, "channel": 0}, {"type": "note_off", "time": 476, "note": 68, "velocity": 107, "channel": 0}, {"type": "note_on", "time": 129, "note": 66, "velocity": 91, "channel": 0}, {"type": "note_off", "time": 1316, "note": 66, "velocity": 91, "channel": 0}, {"type": "note_on", "time": 3106, "note": 79, "velocity": 112, "channel": 0}, {"type": "note_off", "time": 163, "note": 79, "velocity": 112, "channel": 0}, {"type": "note_on", "time": 223, "note": 79, "velocity": 117, "channel": 0}, {"type": "note_off", "time": 146, "note": 79, "velocity": 117, "channel": 0}, {"type": "note_on", "time": 16, "note": 80, "velocity": 122, "channel": 0}, {"type": "note_off", "time": 214, "note": 80, "velocity": 122, "channel": 0}, {"type": "note_on", "time": 25, "note": 79, "velocity": 104, "channel": 0}, {"type": "note_off", "time": 242, "note": 79, "velocity": 104, "channel": 0}, {"type": "note_on", "time": 217, "note": 67, "velocity": 97, "channel": 0}, {"type": "note_off", "time": 166, "note": 67, "velocity": 97, "channel": 0}, {"type": "note_on", "time": 22, "note": 69, "velocity": 101, "channel": 0}, {"type": "note_off", "time": 189, "note": 69, "velocity": 101, "channel": 0}, {"type": "note_on", "time": 64, "note": 71, "velocity": 100, "channel": 0}, {"type": "note_off", "time": 155, "note": 71, "velocity": 100, "channel": 0}, {"type": "note_on", "time": 208, "note": 71, "velocity": 99, "channel": 0}, {"type": "note_off", "time": 110, "note": 71, "velocity": 99, "channel": 0}, {"type": "note_on", "time": 62, "note": 72, "velocity": 112, "channel": 0}, {"type": "note_off", "time": 149, "note": 72, "velocity": 112, "channel": 0}, {"type": "note_on", "time": 36, "note": 71, "velocity": 110, "channel": 0}, {"type": "note_off", "time": 146, "note": 71, "velocity": 110, "channel": 0}, {"type": "note_on", "time": 67, "note": 69, "velocity": 107, "channel": 0}, {"type": "note_off", "time": 129, "note": 69, "velocity": 107, "channel": 0}, {"type": "note_on", "time": 50, "note": 67, "velocity": 98, "channel": 0}, {"type": "note_off", "time": 175, "note": 67, "velocity": 98, "channel": 0}, {"type": "note_on", "time": 1530, "note": 79, "velocity": 127, "channel": 0}, {"type": "note_off", "time": 355, "note": 79, "velocity": 127, "channel": 0}, {"type": "note_on", "time": 62, "note": 74, "velocity": 120, "channel": 0}, {"type": "note_off", "time": 432, "note": 74, "velocity": 120, "channel": 0}, {"type": "note_on", "time": 28, "note": 77, "velocity": 125, "channel": 0}, {"type": "note_off", "time": 324, "note": 77, "velocity": 125, "channel": 0}, {"type": "note_on", "time": 50, "note": 75, "velocity": 118, "channel": 0}, {"type": "note_off", "time": 415, "note": 75, "velocity": 118, "channel": 0}, {"type": "note_on", "time": 36, "note": 67, "velocity": 110, "channel": 0}, {"type": "note_off", "time": 364, "note": 67, "velocity": 110, "channel": 0}, {"type": "note_on", "time": 36, "note": 70, "velocity": 118, "channel": 0}, {"type": "note_off", "time": 417, "note": 70, "velocity": 118, "channel": 0}, {"type": "note_on", "time": 22, "note": 68, "velocity": 114, "channel": 0}, {"type": "note_off", "time": 265, "note": 68, "velocity": 114, "channel": 0}, {"type": "note_on", "time": 73, "note": 63, "velocity": 104, "channel": 0}, {"type": "note_off", "time": 344, "note": 63, "velocity": 104, "channel": 0}, {"type": "note_on", "time": 70, "note": 60, "velocity": 97, "channel": 0}, {"type": "note_off", "time": 423, "note": 60, "velocity": 97, "channel": 0}, {"type": "note_on", "time": 33, "note": 59, "velocity": 82, "channel": 0}, {"type": "note_off", "time": 336, "note": 59, "velocity": 82, "channel": 0}, {"type": "note_on", "time": 64, "note": 67, "velocity": 115, "channel": 0}, {"type": "note_off", "time": 355, "note": 67, "velocity": 115, "channel": 0}, {"type": "note_on", "time": 56, "note": 62, "velocity": 93, "channel": 0}, {"type": "note_off", "time": 375, "note": 62, "velocity": 93, "channel": 0}, {"type": "note_on", "time": 98, "note": 58, "velocity": 88, "channel": 0}, {"type": "note_off", "time": 231, "note": 58, "velocity": 88, "channel": 0}, {"type": "note_on", "time": 115, "note": 65, "velocity": 117, "channel": 0}, {"type": "note_off", "time": 434, "note": 65, "velocity": 117, "channel": 0}, {"type": "note_on", "time": 42, "note": 62, "velocity": 95, "channel": 0}, {"type": "note_off", "time": 254, "note": 62, "velocity": 95, "channel": 0}, {"type": "note_on", "time": 28, "note": 63, "velocity": 98, "channel": 0}, {"type": "note_off", "time": 203, "note": 63, "velocity": 98, "channel": 0}, {"type": "note_on", "time": 33, "note": 67, "velocity": 96, "channel": 0}, {"type": "note_off", "time": 155, "note": 67, "velocity": 96, "channel": 0}, {"type": "note_on", "time": 64, "note": 70, "velocity": 116, "channel": 0}, {"type": "note_off", "time": 302, "note": 70, "velocity": 116, "channel": 0}, {"type": "note_on", "time": 149, "note": 74, "velocity": 115, "channel": 0}, {"type": "note_off", "time": 299, "note": 74, "velocity": 115, "channel": 0}, {"type": "note_on", "time": 163, "note": 77, "velocity": 121, "channel": 0}, {"type": "note_off", "time": 333, "note": 77, "velocity": 121, "channel": 0}, {"type": "note_on", "time": 50, "note": 75, "velocity": 110, "channel": 0}, {"type": "note_off", "time": 375, "note": 75, "velocity": 110, "channel": 0}, {"type": "note_on", "time": 42, "note": 73, "velocity": 112, "channel": 0}, {"type": "note_off", "time": 341, "note": 73, "velocity": 112, "channel": 0}, {"type": "note_on", "time": 18, "note": 74, "velocity": 109, "channel": 0}, {"type": "note_off", "time": 695, "note": 74, "velocity": 109, "channel": 0}, {"type": "note_on", "time": 79, "note": 72, "velocity": 112, "channel": 0}, {"type": "note_off", "time": 202, "note": 72, "velocity": 112, "channel": 0}, {"type": "note_on", "time": 19, "note": 74, "velocity": 107, "channel": 0}, {"type": "note_off", "time": 250, "note": 74, "velocity": 107, "channel": 0}, {"type": "note_on", "time": 166, "note": 71, "velocity": 111, "channel": 0}, {"type": "note_off", "time": 556, "note": 71, "velocity": 111, "channel": 0}, {"type": "note_on", "time": 218, "note": 62, "velocity": 80, "channel": 0}, {"type": "note_off", "time": 190, "note": 62, "velocity": 80, "channel": 0}, {"type": "note_on", "time": 152, "note": 65, "velocity": 101, "channel": 0}, {"type": "note_off", "time": 417, "note": 65, "velocity": 101, "channel": 0}, {"type": "note_on", "time": 59, "note": 70, "velocity": 96, "channel": 0}, {"type": "note_off", "time": 319, "note": 70, "velocity": 96, "channel": 0}, {"type": "note_on", "time": 84, "note": 67, "velocity": 93, "channel": 0}, {"type": "note_off", "time": 663, "note": 67, "velocity": 93, "channel": 0}, {"type": "note_on", "time": 107, "note": 65, "velocity": 96, "channel": 0}, {"type": "note_off", "time": 186, "note": 65, "velocity": 96, "channel": 0}, {"type": "note_on", "time": 64, "note": 67, "velocity": 91, "channel": 0}, {"type": "note_off", "time": 152, "note": 67, "velocity": 91, "channel": 0}, {"type": "note_on", "time": 163, "note": 63, "velocity": 106, "channel": 0}, {"type": "note_off", "time": 556, "note": 63, "velocity": 106, "channel": 0}, {"type": "note_on", "time": 84, "note": 59, "velocity": 75, "channel": 0}, {"type": "note_off", "time": 242, "note": 59, "velocity": 75, "channel": 0}, {"type": "note_on", "time": 220, "note": 62, "velocity": 92, "channel": 0}, {"type": "note_off", "time": 378, "note": 62, "velocity": 92, "channel": 0}, {"type": "note_on", "time": 53, "note": 60, "velocity": 86, "channel": 0}, {"type": "note_off", "time": 237, "note": 60, "velocity": 86, "channel": 0}, {"type": "note_on", "time": 132, "note": 66, "velocity": 90, "channel": 0}, {"type": "note_off", "time": 341, "note": 66, "velocity": 90, "channel": 0}, {"type": "note_on", "time": 110, "note": 63, "velocity": 84, "channel": 0}, {"type": "note_off", "time": 237, "note": 63, "velocity": 84, "channel": 0}, {"type": "note_on", "time": 5, "note": 56, "velocity": 89, "channel": 0}, {"type": "note_off", "time": 200, "note": 56, "velocity": 89, "channel": 0}, {"type": "note_on", "time": 62, "note": 58, "velocity": 88, "channel": 0}, {"type": "note_off", "time": 225, "note": 58, "velocity": 88, "channel": 0}, {"type": "note_on", "time": 152, "note": 60, "velocity": 88, "channel": 0}, {"type": "note_off", "time": 299, "note": 60, "velocity": 88, "channel": 0}, {"type": "note_on", "time": 90, "note": 63, "velocity": 96, "channel": 0}, {"type": "note_off", "time": 324, "note": 63, "velocity": 96, "channel": 0}, {"type": "note_on", "time": 96, "note": 65, "velocity": 102, "channel": 0}, {"type": "note_off", "time": 302, "note": 65, "velocity": 102, "channel": 0}, {"type": "note_on", "time": 90, "note": 70, "velocity": 99, "channel": 0}, {"type": "note_off", "time": 378, "note": 70, "velocity": 99, "channel": 0}, {"type": "note_on", "time": 53, "note": 66, "velocity": 100, "channel": 0}, {"type": "note_off", "time": 338, "note": 66, "velocity": 100, "channel": 0}, {"type": "note_on", "time": 62, "note": 68, "velocity": 87, "channel": 0}, {"type": "note_off", "time": 796, "note": 68, "velocity": 87, "channel": 0}, {"type": "note_on", "time": 2188, "note": 80, "velocity": 124, "channel": 0}, {"type": "note_off", "time": 350, "note": 80, "velocity": 124, "channel": 0}, {"type": "note_on", "time": 107, "note": 79, "velocity": 125, "channel": 0}, {"type": "note_off", "time": 299, "note": 79, "velocity": 125, "channel": 0}, {"type": "note_on", "time": 28, "note": 80, "velocity": 117, "channel": 0}, {"type": "note_off", "time": 316, "note": 80, "velocity": 117, "channel": 0}, {"type": "note_on", "time": 172, "note": 79, "velocity": 125, "channel": 0}, {"type": "note_off", "time": 358, "note": 79, "velocity": 125, "channel": 0}, {"type": "note_on", "time": 93, "note": 77, "velocity": 124, "channel": 0}, {"type": "note_off", "time": 327, "note": 77, "velocity": 124, "channel": 0}, {"type": "note_on", "time": 101, "note": 76, "velocity": 103, "channel": 0}, {"type": "note_off", "time": 341, "note": 76, "velocity": 103, "channel": 0}, {"type": "note_on", "time": 53, "note": 74, "velocity": 117, "channel": 0}, {"type": "note_off", "time": 321, "note": 74, "velocity": 117, "channel": 0}, {"type": "note_on", "time": 104, "note": 72, "velocity": 107, "channel": 0}, {"type": "note_off", "time": 288, "note": 72, "velocity": 107, "channel": 0}, {"type": "note_on", "time": 169, "note": 70, "velocity": 107, "channel": 0}, {"type": "note_off", "time": 321, "note": 70, "velocity": 107, "channel": 0}, {"type": "note_on", "time": 70, "note": 67, "velocity": 82, "channel": 0}, {"type": "note_off", "time": 129, "note": 67, "velocity": 82, "channel": 0}, {"type": "note_on", "time": 25, "note": 69, "velocity": 94, "channel": 0}, {"type": "note_off", "time": 169, "note": 69, "velocity": 94, "channel": 0}, {"type": "note_on", "time": 124, "note": 60, "velocity": 86, "channel": 0}, {"type": "note_off", "time": 192, "note": 60, "velocity": 86, "channel": 0}, {"type": "note_on", "time": 172, "note": 63, "velocity": 95, "channel": 0}, {"type": "note_off", "time": 338, "note": 63, "velocity": 95, "channel": 0}, {"type": "note_on", "time": 25, "note": 67, "velocity": 96, "channel": 0}, {"type": "note_off", "time": 381, "note": 67, "velocity": 96, "channel": 0}, {"type": "note_on", "time": 107, "note": 65, "velocity": 95, "channel": 0}, {"type": "note_off", "time": 288, "note": 65, "velocity": 95, "channel": 0}, {"type": "note_on", "time": 215, "note": 58, "velocity": 82, "channel": 0}, {"type": "note_off", "time": 166, "note": 58, "velocity": 82, "channel": 0}, {"type": "note_on", "time": 86, "note": 62, "velocity": 94, "channel": 0}, {"type": "note_off", "time": 155, "note": 62, "velocity": 94, "channel": 0}, {"type": "note_on", "time": 62, "note": 65, "velocity": 101, "channel": 0}, {"type": "note_off", "time": 172, "note": 65, "velocity": 101, "channel": 0}, {"type": "note_on", "time": 87, "note": 68, "velocity": 104, "channel": 0}, {"type": "note_off", "time": 305, "note": 68, "velocity": 104, "channel": 0}, {"type": "note_on", "time": 177, "note": 71, "velocity": 106, "channel": 0}, {"type": "note_off", "time": 324, "note": 71, "velocity": 106, "channel": 0}, {"type": "note_on", "time": 81, "note": 70, "velocity": 101, "channel": 0}, {"type": "note_off", "time": 285, "note": 70, "velocity": 101, "channel": 0}, {"type": "note_on", "time": 121, "note": 63, "velocity": 98, "channel": 0}, {"type": "note_off", "time": 434, "note": 63, "velocity": 98, "channel": 0}, {"type": "note_on", "time": 850, "note": 70, "velocity": 113, "channel": 0}, {"type": "note_off", "time": 285, "note": 70, "velocity": 113, "channel": 0}, {"type": "note_on", "time": 70, "note": 68, "velocity": 97, "channel": 0}, {"type": "note_off", "time": 358, "note": 68, "velocity": 97, "channel": 0}, {"type": "note_on", "time": 73, "note": 66, "velocity": 107, "channel": 0}, {"type": "note_off", "time": 324, "note": 66, "velocity": 107, "channel": 0}, {"type": "note_on", "time": 33, "note": 65, "velocity": 103, "channel": 0}, {"type": "note_off", "time": 389, "note": 65, "velocity": 103, "channel": 0}, {"type": "note_on", "time": 160, "note": 56, "velocity": 80, "channel": 0}, {"type": "note_off", "time": 172, "note": 56, "velocity": 80, "channel": 0}, {"type": "note_on", "time": 76, "note": 63, "velocity": 94, "channel": 0}, {"type": "note_off", "time": 268, "note": 63, "velocity": 94, "channel": 0}, {"type": "note_on", "time": 45, "note": 60, "velocity": 88, "channel": 0}, {"type": "note_off", "time": 166, "note": 60, "velocity": 88, "channel": 0}, {"type": "note_on", "time": 76, "note": 61, "velocity": 81, "channel": 0}, {"type": "note_off", "time": 1078, "note": 61, "velocity": 81, "channel": 0}, {"type": "note_on", "time": 850, "note": 65, "velocity": 95, "channel": 0}, {"type": "note_off", "time": 141, "note": 65, "velocity": 95, "channel": 0}, {"type": "note_on", "time": 31, "note": 67, "velocity": 103, "channel": 0}, {"type": "note_off", "time": 149, "note": 67, "velocity": 103, "channel": 0}, {"type": "note_on", "time": 36, "note": 69, "velocity": 90, "channel": 0}, {"type": "note_off", "time": 104, "note": 69, "velocity": 90, "channel": 0}, {"type": "note_on", "time": 50, "note": 70, "velocity": 83, "channel": 0}, {"type": "note_off", "time": 138, "note": 70, "velocity": 83, "channel": 0}, {"type": "note_on", "time": 48, "note": 72, "velocity": 105, "channel": 0}, {"type": "note_off", "time": 183, "note": 72, "velocity": 105, "channel": 0}, {"type": "note_on", "time": 81, "note": 69, "velocity": 105, "channel": 0}, {"type": "note_off", "time": 98, "note": 69, "velocity": 105, "channel": 0}, {"type": "note_on", "time": 50, "note": 67, "velocity": 97, "channel": 0}, {"type": "note_off", "time": 169, "note": 67, "velocity": 97, "channel": 0}, {"type": "note_on", "time": 90, "note": 65, "velocity": 94, "channel": 0}, {"type": "note_off", "time": 192, "note": 65, "velocity": 94, "channel": 0}, {"type": "note_on", "time": 11, "note": 68, "velocity": 103, "channel": 0}, {"type": "note_off", "time": 132, "note": 68, "velocity": 103, "channel": 0}, {"type": "note_on", "time": 14, "note": 70, "velocity": 91, "channel": 0}, {"type": "note_off", "time": 107, "note": 70, "velocity": 91, "channel": 0}, {"type": "note_on", "time": 19, "note": 68, "velocity": 102, "channel": 0}, {"type": "note_off", "time": 163, "note": 68, "velocity": 102, "channel": 0}, {"type": "note_on", "time": 22, "note": 67, "velocity": 97, "channel": 0}, {"type": "note_off", "time": 104, "note": 67, "velocity": 97, "channel": 0}, {"type": "note_on", "time": 70, "note": 64, "velocity": 99, "channel": 0}, {"type": "note_off", "time": 200, "note": 64, "velocity": 99, "channel": 0}, {"type": "note_on", "time": 19, "note": 65, "velocity": 102, "channel": 0}, {"type": "note_off", "time": 208, "note": 65, "velocity": 102, "channel": 0}, {"type": "note_on", "time": 62, "note": 70, "velocity": 89, "channel": 0}, {"type": "note_off", "time": 282, "note": 70, "velocity": 89, "channel": 0}, {"type": "note_on", "time": 248, "note": 63, "velocity": 96, "channel": 0}, {"type": "note_off", "time": 220, "note": 63, "velocity": 96, "channel": 0}, {"type": "note_on", "time": 45, "note": 65, "velocity": 104, "channel": 0}, {"type": "note_off", "time": 149, "note": 65, "velocity": 104, "channel": 0}, {"type": "note_on", "time": 31, "note": 67, "velocity": 91, "channel": 0}, {"type": "note_off", "time": 160, "note": 67, "velocity": 91, "channel": 0}, {"type": "note_on", "time": 16, "note": 68, "velocity": 89, "channel": 0}, {"type": "note_off", "time": 186, "note": 68, "velocity": 89, "channel": 0}, {"type": "note_on", "time": 22, "note": 70, "velocity": 109, "channel": 0}, {"type": "note_off", "time": 175, "note": 70, "velocity": 109, "channel": 0}, {"type": "note_on", "time": 42, "note": 67, "velocity": 104, "channel": 0}, {"type": "note_off", "time": 169, "note": 67, "velocity": 104, "channel": 0}, {"type": "note_on", "time": 14, "note": 65, "velocity": 95, "channel": 0}, {"type": "note_off", "time": 155, "note": 65, "velocity": 95, "channel": 0}, {"type": "note_on", "time": 28, "note": 63, "velocity": 95, "channel": 0}, {"type": "note_off", "time": 155, "note": 63, "velocity": 95, "channel": 0}, {"type": "note_on", "time": 31, "note": 68, "velocity": 105, "channel": 0}, {"type": "note_off", "time": 93, "note": 68, "velocity": 105, "channel": 0}, {"type": "note_on", "time": 22, "note": 70, "velocity": 102, "channel": 0}, {"type": "note_off", "time": 90, "note": 70, "velocity": 102, "channel": 0}, {"type": "note_on", "time": 33, "note": 68, "velocity": 104, "channel": 0}, {"type": "note_off", "time": 118, "note": 68, "velocity": 104, "channel": 0}, {"type": "note_on", "time": 84, "note": 65, "velocity": 105, "channel": 0}, {"type": "note_off", "time": 220, "note": 65, "velocity": 105, "channel": 0}, {"type": "note_on", "time": 19, "note": 66, "velocity": 104, "channel": 0}, {"type": "note_off", "time": 152, "note": 66, "velocity": 104, "channel": 0}, {"type": "note_on", "time": 31, "note": 65, "velocity": 90, "channel": 0}, {"type": "note_off", "time": 208, "note": 65, "velocity": 90, "channel": 0}, {"type": "note_on", "time": 98, "note": 60, "velocity": 93, "channel": 0}, {"type": "note_off", "time": 158, "note": 60, "velocity": 93, "channel": 0}, {"type": "note_on", "time": 739, "note": 63, "velocity": 85, "channel": 0}, {"type": "note_off", "time": 118, "note": 63, "velocity": 85, "channel": 0}, {"type": "note_on", "time": 48, "note": 59, "velocity": 87, "channel": 0}, {"type": "note_off", "time": 177, "note": 59, "velocity": 87, "channel": 0}, {"type": "note_on", "time": 28, "note": 62, "velocity": 84, "channel": 0}, {"type": "note_off", "time": 112, "note": 62, "velocity": 84, "channel": 0}, {"type": "note_on", "time": 33, "note": 65, "velocity": 90, "channel": 0}, {"type": "note_off", "time": 90, "note": 65, "velocity": 90, "channel": 0}, {"type": "note_on", "time": 33, "note": 64, "velocity": 95, "channel": 0}, {"type": "note_off", "time": 175, "note": 64, "velocity": 95, "channel": 0}, {"type": "note_on", "time": 14, "note": 65, "velocity": 85, "channel": 0}, {"type": "note_off", "time": 53, "note": 65, "velocity": 85, "channel": 0}, {"type": "note_on", "time": 28, "note": 67, "velocity": 79, "channel": 0}, {"type": "note_off", "time": 48, "note": 67, "velocity": 79, "channel": 0}, {"type": "note_on", "time": 28, "note": 70, "velocity": 92, "channel": 0}, {"type": "note_off", "time": 132, "note": 70, "velocity": 92, "channel": 0}, {"type": "note_on", "time": 36, "note": 73, "velocity": 111, "channel": 0}, {"type": "note_off", "time": 172, "note": 73, "velocity": 111, "channel": 0}, {"type": "note_on", "time": 14, "note": 74, "velocity": 103, "channel": 0}, {"type": "note_off", "time": 79, "note": 74, "velocity": 103, "channel": 0}, {"type": "note_on", "time": 31, "note": 73, "velocity": 106, "channel": 0}, {"type": "note_off", "time": 112, "note": 73, "velocity": 106, "channel": 0}, {"type": "note_on", "time": 33, "note": 71, "velocity": 78, "channel": 0}, {"type": "note_off", "time": 330, "note": 71, "velocity": 78, "channel": 0}, {"type": "note_on", "time": 689, "note": 68, "velocity": 106, "channel": 0}, {"type": "note_off", "time": 203, "note": 68, "velocity": 106, "channel": 0}, {"type": "note_on", "time": 11, "note": 70, "velocity": 103, "channel": 0}, {"type": "note_off", "time": 307, "note": 70, "velocity": 103, "channel": 0}, {"type": "note_on", "time": 101, "note": 68, "velocity": 97, "channel": 0}, {"type": "note_off", "time": 177, "note": 68, "velocity": 97, "channel": 0}, {"type": "note_on", "time": 62, "note": 65, "velocity": 93, "channel": 0}, {"type": "note_off", "time": 135, "note": 65, "velocity": 93, "channel": 0}, {"type": "note_on", "time": 39, "note": 66, "velocity": 96, "channel": 0}, {"type": "note_off", "time": 169, "note": 66, "velocity": 96, "channel": 0}, {"type": "note_on", "time": 18, "note": 59, "velocity": 93, "channel": 0}, {"type": "note_off", "time": 206, "note": 59, "velocity": 93, "channel": 0}, {"type": "note_on", "time": 1687, "note": 74, "velocity": 118, "channel": 0}, {"type": "note_off", "time": 237, "note": 74, "velocity": 118, "channel": 0}, {"type": "note_on", "time": 299, "note": 79, "velocity": 122, "channel": 0}, {"type": "note_off", "time": 282, "note": 79, "velocity": 122, "channel": 0}, {"type": "note_on", "time": 33, "note": 80, "velocity": 120, "channel": 0}, {"type": "note_off", "time": 2355, "note": 80, "velocity": 120, "channel": 0}, {"type": "note_on", "time": 196, "note": 79, "velocity": 116, "channel": 0}, {"type": "note_off", "time": 440, "note": 79, "velocity": 116, "channel": 0}, {"type": "note_on", "time": 83, "note": 83, "velocity": 90, "channel": 0}, {"type": "note_off", "time": 67, "note": 83, "velocity": 90, "channel": 0}, {"type": "note_on", "time": 19, "note": 84, "velocity": 119, "channel": 0}, {"type": "note_off", "time": 385, "note": 84, "velocity": 119, "channel": 0}, {"type": "note_on", "time": 67, "note": 77, "velocity": 102, "channel": 0}, {"type": "note_off", "time": 524, "note": 77, "velocity": 102, "channel": 0}, {"type": "note_on", "time": 1834, "note": 75, "velocity": 122, "channel": 0}, {"type": "note_off", "time": 357, "note": 75, "velocity": 122, "channel": 0}, {"type": "note_on", "time": 47, "note": 72, "velocity": 102, "channel": 0}, {"type": "note_off", "time": 325, "note": 72, "velocity": 102, "channel": 0}, {"type": "note_on", "time": 91, "note": 67, "velocity": 107, "channel": 0}, {"type": "note_off", "time": 305, "note": 67, "velocity": 107, "channel": 0}, {"type": "note_on", "time": 135, "note": 66, "velocity": 91, "channel": 0}, {"type": "note_off", "time": 417, "note": 66, "velocity": 91, "channel": 0}, {"type": "note_on", "time": 15, "note": 65, "velocity": 104, "channel": 0}, {"type": "note_off", "time": 278, "note": 65, "velocity": 104, "channel": 0}, {"type": "note_on", "time": 99, "note": 63, "velocity": 92, "channel": 0}, {"type": "note_off", "time": 214, "note": 63, "velocity": 92, "channel": 0}, {"type": "note_on", "time": 15, "note": 65, "velocity": 89, "channel": 0}, {"type": "note_off", "time": 214, "note": 65, "velocity": 89, "channel": 0}, {"type": "note_on", "time": 23, "note": 63, "velocity": 92, "channel": 0}, {"type": "note_off", "time": 222, "note": 63, "velocity": 92, "channel": 0}, {"type": "note_on", "time": 91, "note": 60, "velocity": 77, "channel": 0}, {"type": "note_off", "time": 432, "note": 60, "velocity": 77, "channel": 0}, {"type": "note_on", "time": 123, "note": 63, "velocity": 102, "channel": 0}, {"type": "note_off", "time": 309, "note": 63, "velocity": 102, "channel": 0}, {"type": "note_on", "time": 2509, "note": 79, "velocity": 121, "channel": 0}, {"type": "note_off", "time": 389, "note": 79, "velocity": 121, "channel": 0}, {"type": "note_on", "time": 123, "note": 84, "velocity": 120, "channel": 0}, {"type": "note_off", "time": 377, "note": 84, "velocity": 120, "channel": 0}, {"type": "note_on", "time": 135, "note": 78, "velocity": 121, "channel": 0}, {"type": "note_off", "time": 595, "note": 78, "velocity": 121, "channel": 0}, {"type": "note_on", "time": 170, "note": 77, "velocity": 124, "channel": 0}, {"type": "note_off", "time": 365, "note": 77, "velocity": 124, "channel": 0}, {"type": "note_on", "time": 75, "note": 75, "velocity": 119, "channel": 0}, {"type": "note_off", "time": 357, "note": 75, "velocity": 119, "channel": 0}, {"type": "note_on", "time": 83, "note": 77, "velocity": 122, "channel": 0}, {"type": "note_off", "time": 337, "note": 77, "velocity": 122, "channel": 0}, {"type": "note_on", "time": 103, "note": 75, "velocity": 118, "channel": 0}, {"type": "note_off", "time": 345, "note": 75, "velocity": 118, "channel": 0}, {"type": "note_on", "time": 63, "note": 72, "velocity": 107, "channel": 0}, {"type": "note_off", "time": 333, "note": 72, "velocity": 107, "channel": 0}, {"type": "note_on", "time": 69, "note": 67, "velocity": 101, "channel": 0}, {"type": "note_off", "time": 413, "note": 67, "velocity": 101, "channel": 0}, {"type": "note_on", "time": 38, "note": 66, "velocity": 92, "channel": 0}, {"type": "note_off", "time": 353, "note": 66, "velocity": 92, "channel": 0}, {"type": "note_on", "time": 45, "note": 65, "velocity": 108, "channel": 0}, {"type": "note_off", "time": 336, "note": 65, "velocity": 108, "channel": 0}, {"type": "note_on", "time": 90, "note": 63, "velocity": 95, "channel": 0}, {"type": "note_off", "time": 361, "note": 63, "velocity": 95, "channel": 0}, {"type": "note_on", "time": 59, "note": 60, "velocity": 84, "channel": 0}, {"type": "note_off", "time": 254, "note": 60, "velocity": 84, "channel": 0}, {"type": "note_on", "time": 129, "note": 63, "velocity": 91, "channel": 0}, {"type": "note_off", "time": 347, "note": 63, "velocity": 91, "channel": 0}, {"type": "note_on", "time": 62, "note": 65, "velocity": 107, "channel": 0}, {"type": "note_off", "time": 398, "note": 65, "velocity": 107, "channel": 0}, {"type": "note_on", "time": 22, "note": 67, "velocity": 99, "channel": 0}, {"type": "note_off", "time": 468, "note": 67, "velocity": 99, "channel": 0}, {"type": "note_on", "time": 64, "note": 63, "velocity": 88, "channel": 0}, {"type": "note_off", "time": 276, "note": 63, "velocity": 88, "channel": 0}, {"type": "note_on", "time": 73, "note": 64, "velocity": 88, "channel": 0}, {"type": "note_off", "time": 505, "note": 64, "velocity": 88, "channel": 0}, {"type": "note_on", "time": 39, "note": 68, "velocity": 96, "channel": 0}, {"type": "note_off", "time": 1109, "note": 68, "velocity": 96, "channel": 0}, {"type": "note_on", "time": 110, "note": 66, "velocity": 86, "channel": 0}, {"type": "note_off", "time": 389, "note": 66, "velocity": 86, "channel": 0}, {"type": "note_on", "time": 11, "note": 70, "velocity": 109, "channel": 0}, {"type": "note_off", "time": 327, "note": 70, "velocity": 109, "channel": 0}, {"type": "note_on", "time": 93, "note": 65, "velocity": 91, "channel": 0}, {"type": "note_off", "time": 310, "note": 65, "velocity": 91, "channel": 0}, {"type": "note_on", "time": 158, "note": 60, "velocity": 95, "channel": 0}, {"type": "note_off", "time": 197, "note": 60, "velocity": 95, "channel": 0}, {"type": "note_on", "time": 87, "note": 68, "velocity": 109, "channel": 0}, {"type": "note_off", "time": 412, "note": 68, "velocity": 109, "channel": 0}, {"type": "note_on", "time": 3403, "note": 67, "velocity": 90, "channel": 0}, {"type": "note_off", "time": 115, "note": 67, "velocity": 90, "channel": 0}, {"type": "note_on", "time": 59, "note": 69, "velocity": 90, "channel": 0}, {"type": "note_off", "time": 177, "note": 69, "velocity": 90, "channel": 0}, {"type": "note_on", "time": 39, "note": 71, "velocity": 96, "channel": 0}, {"type": "note_off", "time": 186, "note": 71, "velocity": 96, "channel": 0}, {"type": "note_on", "time": 25, "note": 72, "velocity": 100, "channel": 0}, {"type": "note_off", "time": 180, "note": 72, "velocity": 100, "channel": 0}, {"type": "note_on", "time": 28, "note": 74, "velocity": 9, "channel": 0}, {"type": "note_off", "time": 203, "note": 74, "velocity": 9, "channel": 0}, {"type": "note_on", "time": 33, "note": 71, "velocity": 95, "channel": 0}, {"type": "note_off", "time": 172, "note": 71, "velocity": 95, "channel": 0}, {"type": "note_on", "time": 2, "note": 72, "velocity": 103, "channel": 0}, {"type": "note_off", "time": 194, "note": 72, "velocity": 103, "channel": 0}, {"type": "note_on", "time": 70, "note": 74, "velocity": 95, "channel": 0}, {"type": "note_off", "time": 192, "note": 74, "velocity": 95, "channel": 0}, {"type": "note_on", "time": 31, "note": 75, "velocity": 111, "channel": 0}, {"type": "note_off", "time": 160, "note": 75, "velocity": 111, "channel": 0}, {"type": "note_on", "time": 31, "note": 77, "velocity": 107, "channel": 0}, {"type": "note_off", "time": 186, "note": 77, "velocity": 107, "channel": 0}, {"type": "note_on", "time": 25, "note": 79, "velocity": 105, "channel": 0}, {"type": "note_off", "time": 192, "note": 79, "velocity": 105, "channel": 0}, {"type": "note_on", "time": 48, "note": 75, "velocity": 114, "channel": 0}, {"type": "note_off", "time": 203, "note": 75, "velocity": 114, "channel": 0}, {"type": "note_on", "time": 36, "note": 74, "velocity": 102, "channel": 0}, {"type": "note_off", "time": 110, "note": 74, "velocity": 102, "channel": 0}, {"type": "note_on", "time": 36, "note": 72, "velocity": 111, "channel": 0}, {"type": "note_off", "time": 163, "note": 72, "velocity": 111, "channel": 0}, {"type": "note_on", "time": 79, "note": 77, "velocity": 116, "channel": 0}, {"type": "note_off", "time": 180, "note": 77, "velocity": 116, "channel": 0}, {"type": "note_on", "time": 56, "note": 74, "velocity": 102, "channel": 0}, {"type": "note_off", "time": 141, "note": 74, "velocity": 102, "channel": 0}, {"type": "note_on", "time": 22, "note": 75, "velocity": 108, "channel": 0}, {"type": "note_off", "time": 200, "note": 75, "velocity": 108, "channel": 0}, {"type": "note_on", "time": 87, "note": 71, "velocity": 102, "channel": 0}, {"type": "note_off", "time": 268, "note": 71, "velocity": 102, "channel": 0}, {"type": "note_on", "time": 90, "note": 74, "velocity": 108, "channel": 0}, {"type": "note_off", "time": 177, "note": 74, "velocity": 108, "channel": 0}, {"type": "note_on", "time": 53, "note": 73, "velocity": 111, "channel": 0}, {"type": "note_off", "time": 177, "note": 73, "velocity": 111, "channel": 0}, {"type": "note_on", "time": 84, "note": 71, "velocity": 101, "channel": 0}, {"type": "note_off", "time": 107, "note": 71, "velocity": 101, "channel": 0}, {"type": "note_on", "time": 22, "note": 72, "velocity": 108, "channel": 0}, {"type": "note_off", "time": 152, "note": 72, "velocity": 108, "channel": 0}, {"type": "note_on", "time": 79, "note": 67, "velocity": 107, "channel": 0}, {"type": "note_off", "time": 110, "note": 67, "velocity": 107, "channel": 0}, {"type": "note_on", "time": 67, "note": 65, "velocity": 100, "channel": 0}, {"type": "note_off", "time": 177, "note": 65, "velocity": 100, "channel": 0}, {"type": "note_on", "time": 149, "note": 64, "velocity": 91, "channel": 0}, {"type": "note_off", "time": 84, "note": 64, "velocity": 91, "channel": 0}, {"type": "note_on", "time": 42, "note": 63, "velocity": 95, "channel": 0}, {"type": "note_off", "time": 107, "note": 63, "velocity": 95, "channel": 0}, {"type": "note_on", "time": 16, "note": 67, "velocity": 101, "channel": 0}, {"type": "note_off", "time": 217, "note": 67, "velocity": 101, "channel": 0}, {"type": "note_on", "time": 42, "note": 62, "velocity": 99, "channel": 0}, {"type": "note_off", "time": 124, "note": 62, "velocity": 99, "channel": 0}, {"type": "note_on", "time": 62, "note": 60, "velocity": 91, "channel": 0}, {"type": "note_off", "time": 197, "note": 60, "velocity": 91, "channel": 0}, {"type": "note_on", "time": 90, "note": 62, "velocity": 90, "channel": 0}, {"type": "note_off", "time": 194, "note": 62, "velocity": 90, "channel": 0}, {"type": "note_on", "time": 22, "note": 63, "velocity": 96, "channel": 0}, {"type": "note_off", "time": 208, "note": 63, "velocity": 96, "channel": 0}, {"type": "note_on", "time": 16, "note": 65, "velocity": 89, "channel": 0}, {"type": "note_off", "time": 197, "note": 65, "velocity": 89, "channel": 0}, {"type": "note_on", "time": 25, "note": 67, "velocity": 105, "channel": 0}, {"type": "note_off", "time": 192, "note": 67, "velocity": 105, "channel": 0}, {"type": "note_on", "time": 50, "note": 64, "velocity": 94, "channel": 0}, {"type": "note_off", "time": 169, "note": 64, "velocity": 94, "channel": 0}, {"type": "note_on", "time": 25, "note": 65, "velocity": 95, "channel": 0}, {"type": "note_off", "time": 135, "note": 65, "velocity": 95, "channel": 0}, {"type": "note_on", "time": 59, "note": 67, "velocity": 110, "channel": 0}, {"type": "note_off", "time": 203, "note": 67, "velocity": 110, "channel": 0}, {"type": "note_on", "time": 36, "note": 68, "velocity": 101, "channel": 0}, {"type": "note_off", "time": 175, "note": 68, "velocity": 101, "channel": 0}, {"type": "note_on", "time": 31, "note": 70, "velocity": 97, "channel": 0}, {"type": "note_off", "time": 138, "note": 70, "velocity": 97, "channel": 0}, {"type": "note_on", "time": 50, "note": 72, "velocity": 102, "channel": 0}, {"type": "note_off", "time": 186, "note": 72, "velocity": 102, "channel": 0}, {"type": "note_on", "time": 48, "note": 71, "velocity": 103, "channel": 0}, {"type": "note_off", "time": 183, "note": 71, "velocity": 103, "channel": 0}, {"type": "note_on", "time": 28, "note": 70, "velocity": 95, "channel": 0}, {"type": "note_off", "time": 135, "note": 70, "velocity": 95, "channel": 0}, {"type": "note_on", "time": 45, "note": 68, "velocity": 100, "channel": 0}, {"type": "note_off", "time": 146, "note": 68, "velocity": 100, "channel": 0}, {"type": "note_on", "time": 53, "note": 67, "velocity": 97, "channel": 0}, {"type": "note_off", "time": 152, "note": 67, "velocity": 97, "channel": 0}, {"type": "note_on", "time": 50, "note": 65, "velocity": 100, "channel": 0}, {"type": "note_off", "time": 189, "note": 65, "velocity": 100, "channel": 0}, {"type": "note_on", "time": 50, "note": 63, "velocity": 99, "channel": 0}, {"type": "note_off", "time": 129, "note": 63, "velocity": 99, "channel": 0}, {"type": "note_on", "time": 118, "note": 58, "velocity": 83, "channel": 0}, {"type": "note_off", "time": 146, "note": 58, "velocity": 83, "channel": 0}, {"type": "note_on", "time": 45, "note": 60, "velocity": 85, "channel": 0}, {"type": "note_off", "time": 160, "note": 60, "velocity": 85, "channel": 0}, {"type": "note_on", "time": 42, "note": 62, "velocity": 87, "channel": 0}, {"type": "note_off", "time": 146, "note": 62, "velocity": 87, "channel": 0}, {"type": "note_on", "time": 53, "note": 63, "velocity": 98, "channel": 0}, {"type": "note_off", "time": 149, "note": 63, "velocity": 98, "channel": 0}, {"type": "note_on", "time": 59, "note": 65, "velocity": 105, "channel": 0}, {"type": "note_off", "time": 158, "note": 65, "velocity": 105, "channel": 0}, {"type": "note_on", "time": 53, "note": 67, "velocity": 101, "channel": 0}, {"type": "note_off", "time": 135, "note": 67, "velocity": 101, "channel": 0}, {"type": "note_on", "time": 93, "note": 68, "velocity": 97, "channel": 0}, {"type": "note_off", "time": 172, "note": 68, "velocity": 97, "channel": 0}, {"type": "note_on", "time": 42, "note": 70, "velocity": 95, "channel": 0}, {"type": "note_off", "time": 183, "note": 70, "velocity": 95, "channel": 0}, {"type": "note_on", "time": 42, "note": 58, "velocity": 91, "channel": 0}, {"type": "note_off", "time": 115, "note": 58, "velocity": 91, "channel": 0}, {"type": "note_on", "time": 19, "note": 60, "velocity": 82, "channel": 0}, {"type": "note_off", "time": 127, "note": 60, "velocity": 82, "channel": 0}, {"type": "note_on", "time": 118, "note": 62, "velocity": 91, "channel": 0}, {"type": "note_off", "time": 135, "note": 62, "velocity": 91, "channel": 0}, {"type": "note_on", "time": 11, "note": 63, "velocity": 98, "channel": 0}, {"type": "note_off", "time": 180, "note": 63, "velocity": 98, "channel": 0}, {"type": "note_on", "time": 25, "note": 65, "velocity": 90, "channel": 0}, {"type": "note_off", "time": 152, "note": 65, "velocity": 90, "channel": 0}, {"type": "note_on", "time": 59, "note": 67, "velocity": 97, "channel": 0}, {"type": "note_off", "time": 194, "note": 67, "velocity": 97, "channel": 0}, {"type": "note_on", "time": 81, "note": 68, "velocity": 105, "channel": 0}, {"type": "note_off", "time": 129, "note": 68, "velocity": 105, "channel": 0}, {"type": "note_on", "time": 36, "note": 70, "velocity": 110, "channel": 0}, {"type": "note_off", "time": 200, "note": 70, "velocity": 110, "channel": 0}, {"type": "note_on", "time": 50, "note": 67, "velocity": 97, "channel": 0}, {"type": "note_off", "time": 152, "note": 67, "velocity": 97, "channel": 0}, {"type": "note_on", "time": 48, "note": 68, "velocity": 109, "channel": 0}, {"type": "note_off", "time": 121, "note": 68, "velocity": 109, "channel": 0}, {"type": "note_on", "time": 76, "note": 65, "velocity": 97, "channel": 0}, {"type": "note_off", "time": 132, "note": 65, "velocity": 97, "channel": 0}, {"type": "note_on", "time": 42, "note": 67, "velocity": 104, "channel": 0}, {"type": "note_off", "time": 172, "note": 67, "velocity": 104, "channel": 0}, {"type": "note_on", "time": 70, "note": 63, "velocity": 98, "channel": 0}, {"type": "note_off", "time": 152, "note": 63, "velocity": 98, "channel": 0}, {"type": "note_on", "time": 22, "note": 65, "velocity": 109, "channel": 0}, {"type": "note_off", "time": 180, "note": 65, "velocity": 109, "channel": 0}, {"type": "note_on", "time": 56, "note": 62, "velocity": 94, "channel": 0}, {"type": "note_off", "time": 158, "note": 62, "velocity": 94, "channel": 0}, {"type": "note_on", "time": 5, "note": 63, "velocity": 102, "channel": 0}, {"type": "note_off", "time": 163, "note": 63, "velocity": 102, "channel": 0}, {"type": "note_on", "time": 56, "note": 60, "velocity": 93, "channel": 0}, {"type": "note_off", "time": 135, "note": 60, "velocity": 93, "channel": 0}, {"type": "note_on", "time": 67, "note": 62, "velocity": 98, "channel": 0}, {"type": "note_off", "time": 172, "note": 62, "velocity": 98, "channel": 0}, {"type": "note_on", "time": 84, "note": 59, "velocity": 82, "channel": 0}, {"type": "note_off", "time": 155, "note": 59, "velocity": 82, "channel": 0}, {"type": "note_on", "time": 48, "note": 59, "velocity": 92, "channel": 0}, {"type": "note_off", "time": 262, "note": 59, "velocity": 92, "channel": 0}, {"type": "note_on", "time": 793, "note": 68, "velocity": 102, "channel": 0}, {"type": "note_off", "time": 127, "note": 68, "velocity": 102, "channel": 0}, {"type": "note_on", "time": 67, "note": 65, "velocity": 99, "channel": 0}, {"type": "note_off", "time": 135, "note": 65, "velocity": 99, "channel": 0}, {"type": "note_on", "time": 31, "note": 66, "velocity": 89, "channel": 0}, {"type": "note_off", "time": 160, "note": 66, "velocity": 89, "channel": 0}, {"type": "note_on", "time": 39, "note": 67, "velocity": 94, "channel": 0}, {"type": "note_off", "time": 152, "note": 67, "velocity": 94, "channel": 0}, {"type": "note_on", "time": 28, "note": 69, "velocity": 86, "channel": 0}, {"type": "note_off", "time": 135, "note": 69, "velocity": 86, "channel": 0}, {"type": "note_on", "time": 31, "note": 71, "velocity": 109, "channel": 0}, {"type": "note_off", "time": 101, "note": 71, "velocity": 109, "channel": 0}, {"type": "note_on", "time": 14, "note": 72, "velocity": 111, "channel": 0}, {"type": "note_off", "time": 101, "note": 72, "velocity": 111, "channel": 0}, {"type": "note_on", "time": 42, "note": 73, "velocity": 114, "channel": 0}, {"type": "note_off", "time": 141, "note": 73, "velocity": 114, "channel": 0}, {"type": "note_on", "time": 64, "note": 74, "velocity": 106, "channel": 0}, {"type": "note_off", "time": 183, "note": 74, "velocity": 106, "channel": 0}, {"type": "note_on", "time": 76, "note": 71, "velocity": 94, "channel": 0}, {"type": "note_off", "time": 144, "note": 71, "velocity": 94, "channel": 0}, {"type": "note_on", "time": 31, "note": 72, "velocity": 103, "channel": 0}, {"type": "note_off", "time": 146, "note": 72, "velocity": 103, "channel": 0}, {"type": "note_on", "time": 48, "note": 74, "velocity": 109, "channel": 0}, {"type": "note_off", "time": 186, "note": 74, "velocity": 109, "channel": 0}, {"type": "note_on", "time": 36, "note": 75, "velocity": 105, "channel": 0}, {"type": "note_off", "time": 220, "note": 75, "velocity": 105, "channel": 0}, {"type": "note_on", "time": 59, "note": 72, "velocity": 108, "channel": 0}, {"type": "note_off", "time": 206, "note": 72, "velocity": 108, "channel": 0}, {"type": "note_on", "time": 135, "note": 68, "velocity": 113, "channel": 0}, {"type": "note_off", "time": 180, "note": 68, "velocity": 113, "channel": 0}, {"type": "note_on", "time": 28, "note": 67, "velocity": 105, "channel": 0}, {"type": "note_off", "time": 217, "note": 67, "velocity": 105, "channel": 0}, {"type": "note_on", "time": 36, "note": 66, "velocity": 108, "channel": 0}, {"type": "note_off", "time": 245, "note": 66, "velocity": 108, "channel": 0}, {"type": "note_on", "time": 100, "note": 65, "velocity": 96, "channel": 0}, {"type": "note_off", "time": 166, "note": 65, "velocity": 96, "channel": 0}, {"type": "note_on", "time": 133, "note": 70, "velocity": 107, "channel": 0}, {"type": "note_off", "time": 158, "note": 70, "velocity": 107, "channel": 0}, {"type": "note_on", "time": 53, "note": 65, "velocity": 108, "channel": 0}, {"type": "note_off", "time": 200, "note": 65, "velocity": 108, "channel": 0}, {"type": "note_on", "time": 31, "note": 64, "velocity": 106, "channel": 0}, {"type": "note_off", "time": 144, "note": 64, "velocity": 106, "channel": 0}, {"type": "note_on", "time": 56, "note": 63, "velocity": 104, "channel": 0}, {"type": "note_off", "time": 279, "note": 63, "velocity": 104, "channel": 0}, {"type": "note_on", "time": 39, "note": 60, "velocity": 85, "channel": 0}, {"type": "note_off", "time": 81, "note": 60, "velocity": 85, "channel": 0}, {"type": "note_on", "time": 53, "note": 58, "velocity": 79, "channel": 0}, {"type": "note_off", "time": 107, "note": 58, "velocity": 79, "channel": 0}, {"type": "note_on", "time": 42, "note": 68, "velocity": 101, "channel": 0}, {"type": "note_off", "time": 327, "note": 68, "velocity": 101, "channel": 0}, {"type": "note_on", "time": 2383, "note": 79, "velocity": 124, "channel": 0}, {"type": "note_off", "time": 228, "note": 79, "velocity": 124, "channel": 0}, {"type": "note_on", "time": 33, "note": 80, "velocity": 120, "channel": 0}, {"type": "note_off", "time": 1011, "note": 80, "velocity": 120, "channel": 0}, {"type": "note_on", "time": 1104, "note": 79, "velocity": 115, "channel": 0}, {"type": "note_off", "time": 251, "note": 79, "velocity": 115, "channel": 0}, {"type": "note_on", "time": 251, "note": 85, "velocity": 108, "channel": 0}, {"type": "note_off", "time": 127, "note": 85, "velocity": 108, "channel": 0}, {"type": "note_on", "time": 56, "note": 87, "velocity": 119, "channel": 0}, {"type": "note_off", "time": 1550, "note": 87, "velocity": 119, "channel": 0}, {"type": "note_on", "time": 62, "note": 87, "velocity": 101, "channel": 0}, {"type": "note_off", "time": 265, "note": 87, "velocity": 101, "channel": 0}, {"type": "note_on", "time": 59, "note": 86, "velocity": 121, "channel": 0}, {"type": "note_off", "time": 395, "note": 86, "velocity": 121, "channel": 0}, {"type": "note_on", "time": 64, "note": 84, "velocity": 119, "channel": 0}, {"type": "note_off", "time": 409, "note": 84, "velocity": 119, "channel": 0}, {"type": "note_on", "time": 178, "note": 79, "velocity": 78, "channel": 0}, {"type": "note_off", "time": 889, "note": 79, "velocity": 78, "channel": 0}, {"type": "note_on", "time": 1086, "note": 79, "velocity": 118, "channel": 0}, {"type": "note_off", "time": 420, "note": 79, "velocity": 118, "channel": 0}, {"type": "note_on", "time": 73, "note": 78, "velocity": 123, "channel": 0}, {"type": "note_off", "time": 299, "note": 78, "velocity": 123, "channel": 0}, {"type": "note_on", "time": 33, "note": 77, "velocity": 120, "channel": 0}, {"type": "note_off", "time": 437, "note": 77, "velocity": 120, "channel": 0}, {"type": "note_on", "time": 33, "note": 75, "velocity": 116, "channel": 0}, {"type": "note_off", "time": 327, "note": 75, "velocity": 116, "channel": 0}, {"type": "note_on", "time": 101, "note": 72, "velocity": 88, "channel": 0}, {"type": "note_off", "time": 327, "note": 72, "velocity": 88, "channel": 0}, {"type": "note_on", "time": 67, "note": 73, "velocity": 117, "channel": 0}, {"type": "note_off", "time": 395, "note": 73, "velocity": 117, "channel": 0}, {"type": "note_on", "time": 36, "note": 74, "velocity": 114, "channel": 0}, {"type": "note_off", "time": 369, "note": 74, "velocity": 114, "channel": 0}, {"type": "note_on", "time": 50, "note": 73, "velocity": 114, "channel": 0}, {"type": "note_off", "time": 364, "note": 73, "velocity": 114, "channel": 0}, {"type": "note_on", "time": 36, "note": 74, "velocity": 95, "channel": 0}, {"type": "note_off", "time": 175, "note": 74, "velocity": 95, "channel": 0}, {"type": "note_on", "time": 50, "note": 72, "velocity": 106, "channel": 0}, {"type": "note_off", "time": 194, "note": 72, "velocity": 106, "channel": 0}, {"type": "note_on", "time": 48, "note": 71, "velocity": 110, "channel": 0}, {"type": "note_off", "time": 256, "note": 71, "velocity": 110, "channel": 0}, {"type": "note_on", "time": 101, "note": 70, "velocity": 109, "channel": 0}, {"type": "note_off", "time": 497, "note": 70, "velocity": 109, "channel": 0}, {"type": "note_on", "time": 87, "note": 58, "velocity": 81, "channel": 0}, {"type": "note_off", "time": 175, "note": 58, "velocity": 81, "channel": 0}, {"type": "note_on", "time": 104, "note": 63, "velocity": 98, "channel": 0}, {"type": "note_off", "time": 449, "note": 63, "velocity": 98, "channel": 0}, {"type": "note_on", "time": 166, "note": 68, "velocity": 112, "channel": 0}, {"type": "note_off", "time": 316, "note": 68, "velocity": 112, "channel": 0}, {"type": "note_on", "time": 33, "note": 70, "velocity": 94, "channel": 0}, {"type": "note_off", "time": 124, "note": 70, "velocity": 94, "channel": 0}, {"type": "note_on", "time": 19, "note": 68, "velocity": 90, "channel": 0}, {"type": "note_off", "time": 144, "note": 68, "velocity": 90, "channel": 0}, {"type": "note_on", "time": 98, "note": 66, "velocity": 101, "channel": 0}, {"type": "note_off", "time": 330, "note": 66, "velocity": 101, "channel": 0}, {"type": "note_on", "time": 64, "note": 67, "velocity": 105, "channel": 0}, {"type": "note_off", "time": 420, "note": 67, "velocity": 105, "channel": 0}, {"type": "note_on", "time": 121, "note": 57, "velocity": 89, "channel": 0}, {"type": "note_off", "time": 299, "note": 57, "velocity": 89, "channel": 0}, {"type": "note_on", "time": 110, "note": 62, "velocity": 87, "channel": 0}, {"type": "note_off", "time": 378, "note": 62, "velocity": 87, "channel": 0}, {"type": "note_on", "time": 132, "note": 65, "velocity": 106, "channel": 0}, {"type": "note_off", "time": 341, "note": 65, "velocity": 106, "channel": 0}, {"type": "note_on", "time": 11, "note": 70, "velocity": 76, "channel": 0}, {"type": "note_off", "time": 93, "note": 70, "velocity": 76, "channel": 0}, {"type": "note_on", "time": 16, "note": 68, "velocity": 80, "channel": 0}, {"type": "note_off", "time": 45, "note": 68, "velocity": 80, "channel": 0}, {"type": "note_on", "time": 28, "note": 65, "velocity": 87, "channel": 0}, {"type": "note_off", "time": 104, "note": 65, "velocity": 87, "channel": 0}, {"type": "note_on", "time": 90, "note": 63, "velocity": 98, "channel": 0}, {"type": "note_off", "time": 344, "note": 63, "velocity": 98, "channel": 0}, {"type": "note_on", "time": 76, "note": 62, "velocity": 98, "channel": 0}, {"type": "note_off", "time": 369, "note": 62, "velocity": 98, "channel": 0}, {"type": "note_on", "time": 72, "note": 55, "velocity": 80, "channel": 0}, {"type": "note_off", "time": 192, "note": 55, "velocity": 80, "channel": 0}, {"type": "note_on", "time": 148, "note": 59, "velocity": 88, "channel": 0}, {"type": "note_off", "time": 497, "note": 59, "velocity": 88, "channel": 0}, {"type": "note_on", "time": 50, "note": 62, "velocity": 102, "channel": 0}, {"type": "note_off", "time": 234, "note": 62, "velocity": 102, "channel": 0}, {"type": "note_on", "time": 11, "note": 63, "velocity": 94, "channel": 0}, {"type": "note_off", "time": 73, "note": 63, "velocity": 94, "channel": 0}, {"type": "note_on", "time": 16, "note": 65, "velocity": 94, "channel": 0}, {"type": "note_off", "time": 144, "note": 65, "velocity": 94, "channel": 0}, {"type": "note_on", "time": 16, "note": 63, "velocity": 94, "channel": 0}, {"type": "note_off", "time": 64, "note": 63, "velocity": 94, "channel": 0}, {"type": "note_on", "time": 31, "note": 62, "velocity": 97, "channel": 0}, {"type": "note_off", "time": 189, "note": 62, "velocity": 97, "channel": 0}, {"type": "note_on", "time": 101, "note": 59, "velocity": 87, "channel": 0}, {"type": "note_off", "time": 240, "note": 59, "velocity": 87, "channel": 0}, {"type": "note_on", "time": 62, "note": 60, "velocity": 93, "channel": 0}, {"type": "note_off", "time": 307, "note": 60, "velocity": 93, "channel": 0}, {"type": "note_on", "time": 149, "note": 62, "velocity": 94, "channel": 0}, {"type": "note_off", "time": 330, "note": 62, "velocity": 94, "channel": 0}, {"type": "note_on", "time": 39, "note": 63, "velocity": 94, "channel": 0}, {"type": "note_off", "time": 358, "note": 63, "velocity": 94, "channel": 0}, {"type": "note_on", "time": 39, "note": 65, "velocity": 107, "channel": 0}, {"type": "note_off", "time": 355, "note": 65, "velocity": 107, "channel": 0}, {"type": "note_on", "time": 59, "note": 67, "velocity": 103, "channel": 0}, {"type": "note_off", "time": 341, "note": 67, "velocity": 103, "channel": 0}, {"type": "note_on", "time": 50, "note": 68, "velocity": 104, "channel": 0}, {"type": "note_off", "time": 353, "note": 68, "velocity": 104, "channel": 0}, {"type": "note_on", "time": 152, "note": 69, "velocity": 89, "channel": 0}, {"type": "note_off", "time": 206, "note": 69, "velocity": 89, "channel": 0}, {"type": "note_on", "time": 14, "note": 70, "velocity": 101, "channel": 0}, {"type": "note_off", "time": 451, "note": 70, "velocity": 101, "channel": 0}, {"type": "note_on", "time": 115, "note": 66, "velocity": 94, "channel": 0}, {"type": "note_off", "time": 177, "note": 66, "velocity": 94, "channel": 0}, {"type": "note_on", "time": 19, "note": 65, "velocity": 97, "channel": 0}, {"type": "note_off", "time": 186, "note": 65, "velocity": 97, "channel": 0}, {"type": "note_on", "time": 36, "note": 63, "velocity": 91, "channel": 0}, {"type": "note_off", "time": 324, "note": 63, "velocity": 91, "channel": 0}, {"type": "note_on", "time": 124, "note": 68, "velocity": 98, "channel": 0}, {"type": "note_off", "time": 499, "note": 68, "velocity": 98, "channel": 0}, {"type": "note_on", "time": 73, "note": 66, "velocity": 81, "channel": 0}, {"type": "note_off", "time": 1330, "note": 66, "velocity": 81, "channel": 0}, {"type": "note_on", "time": 3566, "note": 67, "velocity": 93, "channel": 0}, {"type": "note_off", "time": 98, "note": 67, "velocity": 93, "channel": 0}, {"type": "note_on", "time": 84, "note": 69, "velocity": 93, "channel": 0}, {"type": "note_off", "time": 127, "note": 69, "velocity": 93, "channel": 0}, {"type": "note_on", "time": 107, "note": 71, "velocity": 107, "channel": 0}, {"type": "note_off", "time": 135, "note": 71, "velocity": 107, "channel": 0}, {"type": "note_on", "time": 62, "note": 72, "velocity": 101, "channel": 0}, {"type": "note_off", "time": 166, "note": 72, "velocity": 101, "channel": 0}, {"type": "note_on", "time": 67, "note": 74, "velocity": 107, "channel": 0}, {"type": "note_off", "time": 146, "note": 74, "velocity": 107, "channel": 0}, {"type": "note_on", "time": 73, "note": 73, "velocity": 106, "channel": 0}, {"type": "note_off", "time": 149, "note": 73, "velocity": 106, "channel": 0}, {"type": "note_on", "time": 22, "note": 72, "velocity": 97, "channel": 0}, {"type": "note_off", "time": 158, "note": 72, "velocity": 97, "channel": 0}, {"type": "note_on", "time": 84, "note": 69, "velocity": 97, "channel": 0}, {"type": "note_off", "time": 155, "note": 69, "velocity": 97, "channel": 0}, {"type": "note_on", "time": 50, "note": 70, "velocity": 95, "channel": 0}, {"type": "note_off", "time": 214, "note": 70, "velocity": 95, "channel": 0}, {"type": "note_on", "time": 875, "note": 68, "velocity": 110, "channel": 0}, {"type": "note_off", "time": 115, "note": 68, "velocity": 110, "channel": 0}, {"type": "note_on", "time": 50, "note": 69, "velocity": 93, "channel": 0}, {"type": "note_off", "time": 149, "note": 69, "velocity": 93, "channel": 0}, {"type": "note_on", "time": 28, "note": 67, "velocity": 98, "channel": 0}, {"type": "note_off", "time": 115, "note": 67, "velocity": 98, "channel": 0}, {"type": "note_on", "time": 79, "note": 66, "velocity": 93, "channel": 0}, {"type": "note_off", "time": 203, "note": 66, "velocity": 93, "channel": 0}, {"type": "note_on", "time": 64, "note": 64, "velocity": 94, "channel": 0}, {"type": "note_off", "time": 129, "note": 64, "velocity": 94, "channel": 0}, {"type": "note_on", "time": 53, "note": 65, "velocity": 98, "channel": 0}, {"type": "note_off", "time": 152, "note": 65, "velocity": 98, "channel": 0}, {"type": "note_on", "time": 39, "note": 67, "velocity": 99, "channel": 0}, {"type": "note_off", "time": 242, "note": 67, "velocity": 99, "channel": 0}, {"type": "note_on", "time": 28, "note": 68, "velocity": 80, "channel": 0}, {"type": "note_off", "time": 146, "note": 68, "velocity": 80, "channel": 0}, {"type": "note_on", "time": 28, "note": 70, "velocity": 98, "channel": 0}, {"type": "note_off", "time": 169, "note": 70, "velocity": 98, "channel": 0}, {"type": "note_on", "time": 14, "note": 72, "velocity": 96, "channel": 0}, {"type": "note_off", "time": 172, "note": 72, "velocity": 96, "channel": 0}, {"type": "note_on", "time": 31, "note": 71, "velocity": 98, "channel": 0}, {"type": "note_off", "time": 146, "note": 71, "velocity": 98, "channel": 0}, {"type": "note_on", "time": 36, "note": 70, "velocity": 90, "channel": 0}, {"type": "note_off", "time": 127, "note": 70, "velocity": 90, "channel": 0}, {"type": "note_on", "time": 118, "note": 68, "velocity": 105, "channel": 0}, {"type": "note_off", "time": 129, "note": 68, "velocity": 105, "channel": 0}, {"type": "note_on", "time": 56, "note": 67, "velocity": 87, "channel": 0}, {"type": "note_off", "time": 135, "note": 67, "velocity": 87, "channel": 0}, {"type": "note_on", "time": 98, "note": 65, "velocity": 96, "channel": 0}, {"type": "note_off", "time": 141, "note": 65, "velocity": 96, "channel": 0}, {"type": "note_on", "time": 33, "note": 64, "velocity": 91, "channel": 0}, {"type": "note_off", "time": 192, "note": 64, "velocity": 91, "channel": 0}, {"type": "note_on", "time": 50, "note": 62, "velocity": 89, "channel": 0}, {"type": "note_off", "time": 152, "note": 62, "velocity": 89, "channel": 0}, {"type": "note_on", "time": 16, "note": 63, "velocity": 91, "channel": 0}, {"type": "note_off", "time": 169, "note": 63, "velocity": 91, "channel": 0}, {"type": "note_on", "time": 14, "note": 65, "velocity": 85, "channel": 0}, {"type": "note_off", "time": 81, "note": 65, "velocity": 85, "channel": 0}, {"type": "note_on", "time": 11, "note": 66, "velocity": 94, "channel": 0}, {"type": "note_off", "time": 177, "note": 66, "velocity": 94, "channel": 0}, {"type": "note_on", "time": 56, "note": 68, "velocity": 92, "channel": 0}, {"type": "note_off", "time": 192, "note": 68, "velocity": 92, "channel": 0}, {"type": "note_on", "time": 33, "note": 70, "velocity": 100, "channel": 0}, {"type": "note_off", "time": 160, "note": 70, "velocity": 100, "channel": 0}, {"type": "note_on", "time": 84, "note": 72, "velocity": 99, "channel": 0}, {"type": "note_off", "time": 127, "note": 72, "velocity": 99, "channel": 0}, {"type": "note_on", "time": 25, "note": 73, "velocity": 94, "channel": 0}, {"type": "note_off", "time": 132, "note": 73, "velocity": 94, "channel": 0}, {"type": "note_on", "time": 50, "note": 75, "velocity": 98, "channel": 0}, {"type": "note_off", "time": 262, "note": 75, "velocity": 98, "channel": 0}, {"type": "note_on", "time": 16, "note": 76, "velocity": 116, "channel": 0}, {"type": "note_off", "time": 225, "note": 76, "velocity": 116, "channel": 0}, {"type": "note_on", "time": 39, "note": 78, "velocity": 99, "channel": 0}, {"type": "note_off", "time": 107, "note": 78, "velocity": 99, "channel": 0}, {"type": "note_on", "time": 81, "note": 75, "velocity": 100, "channel": 0}, {"type": "note_off", "time": 208, "note": 75, "velocity": 100, "channel": 0}, {"type": "note_on", "time": 42, "note": 73, "velocity": 102, "channel": 0}, {"type": "note_off", "time": 180, "note": 73, "velocity": 102, "channel": 0}, {"type": "note_on", "time": 36, "note": 72, "velocity": 89, "channel": 0}, {"type": "note_off", "time": 118, "note": 72, "velocity": 89, "channel": 0}, {"type": "note_on", "time": 42, "note": 70, "velocity": 103, "channel": 0}, {"type": "note_off", "time": 186, "note": 70, "velocity": 103, "channel": 0}, {"type": "note_on", "time": 50, "note": 68, "velocity": 98, "channel": 0}, {"type": "note_off", "time": 127, "note": 68, "velocity": 98, "channel": 0}, {"type": "note_on", "time": 98, "note": 66, "velocity": 91, "channel": 0}, {"type": "note_off", "time": 121, "note": 66, "velocity": 91, "channel": 0}, {"type": "note_on", "time": 48, "note": 65, "velocity": 90, "channel": 0}, {"type": "note_off", "time": 169, "note": 65, "velocity": 90, "channel": 0}, {"type": "note_on", "time": 81, "note": 60, "velocity": 84, "channel": 0}, {"type": "note_off", "time": 138, "note": 60, "velocity": 84, "channel": 0}, {"type": "note_on", "time": 39, "note": 63, "velocity": 94, "channel": 0}, {"type": "note_off", "time": 211, "note": 63, "velocity": 94, "channel": 0}, {"type": "note_on", "time": 45, "note": 58, "velocity": 86, "channel": 0}, {"type": "note_off", "time": 101, "note": 58, "velocity": 86, "channel": 0}, {"type": "note_on", "time": 39, "note": 61, "velocity": 83, "channel": 0}, {"type": "note_off", "time": 112, "note": 61, "velocity": 83, "channel": 0}, {"type": "note_on", "time": 48, "note": 63, "velocity": 91, "channel": 0}, {"type": "note_off", "time": 132, "note": 63, "velocity": 91, "channel": 0}, {"type": "note_on", "time": 59, "note": 65, "velocity": 99, "channel": 0}, {"type": "note_off", "time": 155, "note": 65, "velocity": 99, "channel": 0}, {"type": "note_on", "time": 50, "note": 68, "velocity": 95, "channel": 0}, {"type": "note_off", "time": 155, "note": 68, "velocity": 95, "channel": 0}, {"type": "note_on", "time": 76, "note": 72, "velocity": 106, "channel": 0}, {"type": "note_off", "time": 177, "note": 72, "velocity": 106, "channel": 0}, {"type": "note_on", "time": 36, "note": 73, "velocity": 106, "channel": 0}, {"type": "note_off", "time": 576, "note": 73, "velocity": 106, "channel": 0}, {"type": "note_on", "time": 33, "note": 68, "velocity": 107, "channel": 0}, {"type": "note_off", "time": 200, "note": 68, "velocity": 107, "channel": 0}, {"type": "note_on", "time": 45, "note": 65, "velocity": 109, "channel": 0}, {"type": "note_off", "time": 516, "note": 65, "velocity": 109, "channel": 0}, {"type": "note_on", "time": 192, "note": 69, "velocity": 102, "channel": 0}, {"type": "note_off", "time": 160, "note": 69, "velocity": 102, "channel": 0}, {"type": "note_on", "time": 217, "note": 69, "velocity": 95, "channel": 0}, {"type": "note_off", "time": 208, "note": 69, "velocity": 95, "channel": 0}, {"type": "note_on", "time": 242, "note": 72, "velocity": 105, "channel": 0}, {"type": "note_off", "time": 567, "note": 72, "velocity": 105, "channel": 0}, {"type": "note_on", "time": 48, "note": 69, "velocity": 101, "channel": 0}, {"type": "note_off", "time": 206, "note": 69, "velocity": 101, "channel": 0}, {"type": "note_on", "time": 5, "note": 70, "velocity": 98, "channel": 0}, {"type": "note_off", "time": 155, "note": 70, "velocity": 98, "channel": 0}, {"type": "note_on", "time": 19, "note": 69, "velocity": 102, "channel": 0}, {"type": "note_off", "time": 237, "note": 69, "velocity": 102, "channel": 0}, {"type": "note_on", "time": 28, "note": 68, "velocity": 86, "channel": 0}, {"type": "note_off", "time": 127, "note": 68, "velocity": 86, "channel": 0}, {"type": "note_on", "time": 14, "note": 70, "velocity": 106, "channel": 0}, {"type": "note_off", "time": 138, "note": 70, "velocity": 106, "channel": 0}, {"type": "note_on", "time": 90, "note": 67, "velocity": 100, "channel": 0}, {"type": "note_off", "time": 146, "note": 67, "velocity": 100, "channel": 0}, {"type": "note_on", "time": 84, "note": 65, "velocity": 101, "channel": 0}, {"type": "note_off", "time": 144, "note": 65, "velocity": 101, "channel": 0}, {"type": "note_on", "time": 56, "note": 64, "velocity": 96, "channel": 0}, {"type": "note_off", "time": 172, "note": 64, "velocity": 96, "channel": 0}, {"type": "note_on", "time": 13, "note": 62, "velocity": 77, "channel": 0}, {"type": "note_off", "time": 135, "note": 62, "velocity": 77, "channel": 0}, {"type": "note_on", "time": 34, "note": 63, "velocity": 93, "channel": 0}, {"type": "note_off", "time": 189, "note": 63, "velocity": 93, "channel": 0}, {"type": "note_on", "time": 39, "note": 65, "velocity": 96, "channel": 0}, {"type": "note_off", "time": 155, "note": 65, "velocity": 96, "channel": 0}, {"type": "note_on", "time": 28, "note": 66, "velocity": 89, "channel": 0}, {"type": "note_off", "time": 138, "note": 66, "velocity": 89, "channel": 0}, {"type": "note_on", "time": 96, "note": 68, "velocity": 84, "channel": 0}, {"type": "note_off", "time": 135, "note": 68, "velocity": 84, "channel": 0}, {"type": "note_on", "time": 56, "note": 70, "velocity": 92, "channel": 0}, {"type": "note_off", "time": 121, "note": 70, "velocity": 92, "channel": 0}, {"type": "note_on", "time": 76, "note": 72, "velocity": 102, "channel": 0}, {"type": "note_off", "time": 87, "note": 72, "velocity": 102, "channel": 0}, {"type": "note_on", "time": 25, "note": 73, "velocity": 93, "channel": 0}, {"type": "note_off", "time": 245, "note": 73, "velocity": 93, "channel": 0}, {"type": "note_on", "time": 36, "note": 71, "velocity": 79, "channel": 0}, {"type": "note_off", "time": 152, "note": 71, "velocity": 79, "channel": 0}, {"type": "note_on", "time": 5, "note": 72, "velocity": 95, "channel": 0}, {"type": "note_off", "time": 192, "note": 72, "velocity": 95, "channel": 0}, {"type": "note_on", "time": 33, "note": 70, "velocity": 103, "channel": 0}, {"type": "note_off", "time": 175, "note": 70, "velocity": 103, "channel": 0}, {"type": "note_on", "time": 33, "note": 69, "velocity": 95, "channel": 0}, {"type": "note_off", "time": 115, "note": 69, "velocity": 95, "channel": 0}, {"type": "note_on", "time": 64, "note": 67, "velocity": 94, "channel": 0}, {"type": "note_off", "time": 175, "note": 67, "velocity": 94, "channel": 0}, {"type": "note_on", "time": 19, "note": 68, "velocity": 97, "channel": 0}, {"type": "note_off", "time": 144, "note": 68, "velocity": 97, "channel": 0}, {"type": "note_on", "time": 87, "note": 66, "velocity": 98, "channel": 0}, {"type": "note_off", "time": 169, "note": 66, "velocity": 98, "channel": 0}, {"type": "note_on", "time": 104, "note": 63, "velocity": 84, "channel": 0}, {"type": "note_off", "time": 177, "note": 63, "velocity": 84, "channel": 0}, {"type": "note_on", "time": 22, "note": 64, "velocity": 86, "channel": 0}, {"type": "note_off", "time": 132, "note": 64, "velocity": 86, "channel": 0}, {"type": "note_on", "time": 19, "note": 65, "velocity": 94, "channel": 0}, {"type": "note_off", "time": 155, "note": 65, "velocity": 94, "channel": 0}, {"type": "note_on", "time": 67, "note": 61, "velocity": 78, "channel": 0}, {"type": "note_off", "time": 502, "note": 61, "velocity": 78, "channel": 0}, {"type": "note_on", "time": 1389, "note": 73, "velocity": 94, "channel": 0}, {"type": "note_off", "time": 144, "note": 73, "velocity": 94, "channel": 0}, {"type": "note_on", "time": 5, "note": 72, "velocity": 104, "channel": 0}, {"type": "note_off", "time": 189, "note": 72, "velocity": 104, "channel": 0}, {"type": "note_on", "time": 31, "note": 71, "velocity": 97, "channel": 0}, {"type": "note_off", "time": 203, "note": 71, "velocity": 97, "channel": 0}, {"type": "note_on", "time": 87, "note": 68, "velocity": 83, "channel": 0}, {"type": "note_off", "time": 90, "note": 68, "velocity": 83, "channel": 0}, {"type": "note_on", "time": 42, "note": 73, "velocity": 94, "channel": 0}, {"type": "note_off", "time": 110, "note": 73, "velocity": 94, "channel": 0}, {"type": "note_on", "time": 36, "note": 69, "velocity": 93, "channel": 0}, {"type": "note_off", "time": 76, "note": 69, "velocity": 93, "channel": 0}, {"type": "note_on", "time": 25, "note": 70, "velocity": 109, "channel": 0}, {"type": "note_off", "time": 177, "note": 70, "velocity": 109, "channel": 0}, {"type": "note_on", "time": 90, "note": 66, "velocity": 89, "channel": 0}, {"type": "note_off", "time": 129, "note": 66, "velocity": 89, "channel": 0}, {"type": "note_on", "time": 39, "note": 67, "velocity": 93, "channel": 0}, {"type": "note_off", "time": 104, "note": 67, "velocity": 93, "channel": 0}, {"type": "note_on", "time": 31, "note": 68, "velocity": 96, "channel": 0}, {"type": "note_off", "time": 288, "note": 68, "velocity": 96, "channel": 0}, {"type": "note_on", "time": 62, "note": 65, "velocity": 90, "channel": 0}, {"type": "note_off", "time": 112, "note": 65, "velocity": 90, "channel": 0}, {"type": "note_on", "time": 36, "note": 66, "velocity": 105, "channel": 0}, {"type": "note_off", "time": 160, "note": 66, "velocity": 105, "channel": 0}, {"type": "note_on", "time": 519, "note": 64, "velocity": 104, "channel": 0}, {"type": "note_off", "time": 172, "note": 64, "velocity": 104, "channel": 0}, {"type": "note_on", "time": 211, "note": 62, "velocity": 90, "channel": 0}, {"type": "note_off", "time": 96, "note": 62, "velocity": 90, "channel": 0}, {"type": "note_on", "time": 42, "note": 63, "velocity": 106, "channel": 0}, {"type": "note_off", "time": 183, "note": 63, "velocity": 106, "channel": 0}, {"type": "note_on", "time": 2005, "note": 73, "velocity": 117, "channel": 0}, {"type": "note_off", "time": 155, "note": 73, "velocity": 117, "channel": 0}, {"type": "note_on", "time": 22, "note": 74, "velocity": 112, "channel": 0}, {"type": "note_off", "time": 598, "note": 74, "velocity": 112, "channel": 0}, {"type": "note_on", "time": 16, "note": 73, "velocity": 107, "channel": 0}, {"type": "note_off", "time": 141, "note": 73, "velocity": 107, "channel": 0}, {"type": "note_on", "time": 62, "note": 74, "velocity": 112, "channel": 0}, {"type": "note_off", "time": 658, "note": 74, "velocity": 112, "channel": 0}, {"type": "note_on", "time": 39, "note": 73, "velocity": 108, "channel": 0}, {"type": "note_off", "time": 135, "note": 73, "velocity": 108, "channel": 0}, {"type": "note_on", "time": 36, "note": 74, "velocity": 111, "channel": 0}, {"type": "note_off", "time": 610, "note": 74, "velocity": 111, "channel": 0}, {"type": "note_on", "time": 39, "note": 73, "velocity": 103, "channel": 0}, {"type": "note_off", "time": 146, "note": 73, "velocity": 103, "channel": 0}, {"type": "note_on", "time": 16, "note": 74, "velocity": 108, "channel": 0}, {"type": "note_off", "time": 706, "note": 74, "velocity": 108, "channel": 0}, {"type": "note_on", "time": 8, "note": 73, "velocity": 104, "channel": 0}, {"type": "note_off", "time": 129, "note": 73, "velocity": 104, "channel": 0}, {"type": "note_on", "time": 2, "note": 74, "velocity": 110, "channel": 0}, {"type": "note_off", "time": 666, "note": 74, "velocity": 110, "channel": 0}, {"type": "note_on", "time": 45, "note": 74, "velocity": 97, "channel": 0}, {"type": "note_off", "time": 203, "note": 74, "velocity": 97, "channel": 0}, {"type": "note_on", "time": 48, "note": 75, "velocity": 105, "channel": 0}, {"type": "note_off", "time": 144, "note": 75, "velocity": 105, "channel": 0}, {"type": "note_on", "time": 76, "note": 72, "velocity": 106, "channel": 0}, {"type": "note_off", "time": 234, "note": 72, "velocity": 106, "channel": 0}, {"type": "note_on", "time": 48, "note": 72, "velocity": 89, "channel": 0}, {"type": "note_off", "time": 711, "note": 72, "velocity": 89, "channel": 0}, {"type": "note_on", "time": 1177, "note": 73, "velocity": 118, "channel": 0}, {"type": "note_off", "time": 189, "note": 73, "velocity": 118, "channel": 0}, {"type": "note_on", "time": 25, "note": 74, "velocity": 106, "channel": 0}, {"type": "note_off", "time": 570, "note": 74, "velocity": 106, "channel": 0}, {"type": "note_on", "time": 39, "note": 73, "velocity": 108, "channel": 0}, {"type": "note_off", "time": 98, "note": 73, "velocity": 108, "channel": 0}, {"type": "note_on", "time": 22, "note": 74, "velocity": 108, "channel": 0}, {"type": "note_off", "time": 731, "note": 74, "velocity": 108, "channel": 0}, {"type": "note_on", "time": 25, "note": 73, "velocity": 105, "channel": 0}, {"type": "note_off", "time": 115, "note": 73, "velocity": 105, "channel": 0}, {"type": "note_on", "time": 22, "note": 74, "velocity": 112, "channel": 0}, {"type": "note_off", "time": 672, "note": 74, "velocity": 112, "channel": 0}, {"type": "note_on", "time": 31, "note": 74, "velocity": 99, "channel": 0}, {"type": "note_off", "time": 217, "note": 74, "velocity": 99, "channel": 0}, {"type": "note_on", "time": 22, "note": 77, "velocity": 110, "channel": 0}, {"type": "note_off", "time": 138, "note": 77, "velocity": 110, "channel": 0}, {"type": "note_on", "time": 48, "note": 75, "velocity": 110, "channel": 0}, {"type": "note_off", "time": 256, "note": 75, "velocity": 110, "channel": 0}, {"type": "note_on", "time": 177, "note": 72, "velocity": 93, "channel": 0}, {"type": "note_off", "time": 158, "note": 72, "velocity": 93, "channel": 0}, {"type": "note_on", "time": 50, "note": 75, "velocity": 106, "channel": 0}, {"type": "note_off", "time": 189, "note": 75, "velocity": 106, "channel": 0}, {"type": "note_on", "time": 22, "note": 74, "velocity": 106, "channel": 0}, {"type": "note_off", "time": 197, "note": 74, "velocity": 106, "channel": 0}, {"type": "note_on", "time": 45, "note": 70, "velocity": 106, "channel": 0}, {"type": "note_off", "time": 248, "note": 70, "velocity": 106, "channel": 0}, {"type": "note_on", "time": 810, "note": 73, "velocity": 117, "channel": 0}, {"type": "note_off", "time": 180, "note": 73, "velocity": 117, "channel": 0}, {"type": "note_on", "time": 14, "note": 74, "velocity": 101, "channel": 0}, {"type": "note_off", "time": 172, "note": 74, "velocity": 101, "channel": 0}, {"type": "note_on", "time": 56, "note": 72, "velocity": 100, "channel": 0}, {"type": "note_off", "time": 144, "note": 72, "velocity": 100, "channel": 0}, {"type": "note_on", "time": 79, "note": 70, "velocity": 104, "channel": 0}, {"type": "note_off", "time": 152, "note": 70, "velocity": 104, "channel": 0}, {"type": "note_on", "time": 25, "note": 71, "velocity": 100, "channel": 0}, {"type": "note_off", "time": 141, "note": 71, "velocity": 100, "channel": 0}, {"type": "note_on", "time": 482, "note": 63, "velocity": 91, "channel": 0}, {"type": "note_off", "time": 160, "note": 63, "velocity": 91, "channel": 0}, {"type": "note_on", "time": 59, "note": 65, "velocity": 98, "channel": 0}, {"type": "note_off", "time": 172, "note": 65, "velocity": 98, "channel": 0}, {"type": "note_on", "time": 48, "note": 68, "velocity": 103, "channel": 0}, {"type": "note_off", "time": 166, "note": 68, "velocity": 103, "channel": 0}, {"type": "note_on", "time": 68, "note": 65, "velocity": 79, "channel": 0}, {"type": "note_off", "time": 174, "note": 65, "velocity": 79, "channel": 0}, {"type": "note_on", "time": 16, "note": 66, "velocity": 80, "channel": 0}, {"type": "note_off", "time": 107, "note": 66, "velocity": 80, "channel": 0}, {"type": "note_on", "time": 36, "note": 67, "velocity": 87, "channel": 0}, {"type": "note_off", "time": 333, "note": 67, "velocity": 87, "channel": 0}, {"type": "note_on", "time": 28, "note": 64, "velocity": 85, "channel": 0}, {"type": "note_off", "time": 118, "note": 64, "velocity": 85, "channel": 0}, {"type": "note_on", "time": 11, "note": 65, "velocity": 96, "channel": 0}, {"type": "note_off", "time": 166, "note": 65, "velocity": 96, "channel": 0}, {"type": "note_on", "time": 42, "note": 62, "velocity": 83, "channel": 0}, {"type": "note_off", "time": 90, "note": 62, "velocity": 83, "channel": 0}, {"type": "note_on", "time": 90, "note": 63, "velocity": 90, "channel": 0}, {"type": "note_off", "time": 124, "note": 63, "velocity": 90, "channel": 0}, {"type": "note_on", "time": 53, "note": 65, "velocity": 99, "channel": 0}, {"type": "note_off", "time": 98, "note": 65, "velocity": 99, "channel": 0}, {"type": "note_on", "time": 33, "note": 67, "velocity": 87, "channel": 0}, {"type": "note_off", "time": 141, "note": 67, "velocity": 87, "channel": 0}, {"type": "note_on", "time": 39, "note": 69, "velocity": 87, "channel": 0}, {"type": "note_off", "time": 107, "note": 69, "velocity": 87, "channel": 0}, {"type": "note_on", "time": 31, "note": 71, "velocity": 92, "channel": 0}, {"type": "note_off", "time": 107, "note": 71, "velocity": 92, "channel": 0}, {"type": "note_on", "time": 45, "note": 72, "velocity": 101, "channel": 0}, {"type": "note_off", "time": 84, "note": 72, "velocity": 101, "channel": 0}, {"type": "note_on", "time": 31, "note": 73, "velocity": 107, "channel": 0}, {"type": "note_off", "time": 223, "note": 73, "velocity": 107, "channel": 0}, {"type": "note_on", "time": 22, "note": 74, "velocity": 103, "channel": 0}, {"type": "note_off", "time": 183, "note": 74, "velocity": 103, "channel": 0}, {"type": "note_on", "time": 59, "note": 71, "velocity": 83, "channel": 0}, {"type": "note_off", "time": 110, "note": 71, "velocity": 83, "channel": 0}, {"type": "note_on", "time": 2, "note": 72, "velocity": 99, "channel": 0}, {"type": "note_off", "time": 251, "note": 72, "velocity": 99, "channel": 0}, {"type": "note_on", "time": 53, "note": 67, "velocity": 108, "channel": 0}, {"type": "note_off", "time": 160, "note": 67, "velocity": 108, "channel": 0}, {"type": "note_on", "time": 2246, "note": 82, "velocity": 118, "channel": 0}, {"type": "note_off", "time": 734, "note": 82, "velocity": 118, "channel": 0}, {"type": "note_on", "time": 192, "note": 78, "velocity": 114, "channel": 0}, {"type": "note_off", "time": 412, "note": 78, "velocity": 114, "channel": 0}, {"type": "note_on", "time": 73, "note": 77, "velocity": 118, "channel": 0}, {"type": "note_off", "time": 358, "note": 77, "velocity": 118, "channel": 0}, {"type": "note_on", "time": 50, "note": 75, "velocity": 113, "channel": 0}, {"type": "note_off", "time": 367, "note": 75, "velocity": 113, "channel": 0}, {"type": "note_on", "time": 84, "note": 70, "velocity": 110, "channel": 0}, {"type": "note_off", "time": 341, "note": 70, "velocity": 110, "channel": 0}, {"type": "note_on", "time": 50, "note": 68, "velocity": 102, "channel": 0}, {"type": "note_off", "time": 347, "note": 68, "velocity": 102, "channel": 0}, {"type": "note_on", "time": 56, "note": 63, "velocity": 85, "channel": 0}, {"type": "note_off", "time": 288, "note": 63, "velocity": 85, "channel": 0}, {"type": "note_on", "time": 197, "note": 66, "velocity": 94, "channel": 0}, {"type": "note_off", "time": 327, "note": 66, "velocity": 94, "channel": 0}, {"type": "note_on", "time": 53, "note": 70, "velocity": 108, "channel": 0}, {"type": "note_off", "time": 273, "note": 70, "velocity": 108, "channel": 0}, {"type": "note_on", "time": 39, "note": 65, "velocity": 97, "channel": 0}, {"type": "note_off", "time": 353, "note": 65, "velocity": 97, "channel": 0}, {"type": "note_on", "time": 256, "note": 63, "velocity": 91, "channel": 0}, {"type": "note_off", "time": 259, "note": 63, "velocity": 91, "channel": 0}, {"type": "note_on", "time": 16, "note": 68, "velocity": 111, "channel": 0}, {"type": "note_off", "time": 403, "note": 68, "velocity": 111, "channel": 0}, {"type": "note_on", "time": 61, "note": 66, "velocity": 109, "channel": 0}, {"type": "note_off", "time": 290, "note": 66, "velocity": 109, "channel": 0}, {"type": "note_on", "time": 42, "note": 63, "velocity": 100, "channel": 0}, {"type": "note_off", "time": 251, "note": 63, "velocity": 100, "channel": 0}, {"type": "note_on", "time": 62, "note": 60, "velocity": 86, "channel": 0}, {"type": "note_off", "time": 138, "note": 60, "velocity": 86, "channel": 0}, {"type": "note_on", "time": 90, "note": 62, "velocity": 95, "channel": 0}, {"type": "note_off", "time": 451, "note": 62, "velocity": 95, "channel": 0}, {"type": "end_of_track", "time": 0}]]}