{"ticks_per_beat": 192, "tracks": [[{"type": "track_name", "name": "Melody", "time": 0}, {"type": "set_tempo", "tempo": 431654, "time": 0}, {"type": "key_signature", "key": "Eb", "time": 0}, {"type": "time_signature", "numerator": 4, "denominator": 4, "clocks_per_click": 24, "notated_32nd_notes_per_beat": 8, "time": 0}, {"type": "note_on", "time": 271, "note": 58, "velocity": 87, "channel": 0}, {"type": "note_off", "time": 62, "note": 58, "velocity": 87, "channel": 0}, {"type": "note_on", "time": 0, "note": 61, "velocity": 92, "channel": 0}, {"type": "note_off", "time": 62, "note": 61, "velocity": 92, "channel": 0}, {"type": "note_on", "time": 0, "note": 63, "velocity": 97, "channel": 0}, {"type": "note_off", "time": 62, "note": 63, "velocity": 97, "channel": 0}, {"type": "note_on", "time": 0, "note": 68, "velocity": 112, "channel": 0}, {"type": "note_off", "time": 61, "note": 68, "velocity": 112, "channel": 0}, {"type": "note_on", "time": 1, "note": 69, "velocity": 113, "channel": 0}, {"type": "note_off", "time": 62, "note": 69, "velocity": 113, "channel": 0}, {"type": "note_on", "time": 0, "note": 69, "velocity": 115, "channel": 0}, {"type": "note_off", "time": 62, "note": 69, "velocity": 115, "channel": 0}, {"type": "note_on", "time": 0, "note": 68, "velocity": 108, "channel": 0}, {"type": "note_off", "time": 62, "note": 68, "velocity": 108, "channel": 0}, {"type": "note_on", "time": 0, "note": 68, "velocity": 111, "channel": 0}, {"type": "note_off", "time": 62, "note": 68, "velocity": 111, "channel": 0}, {"type": "note_on", "time": 0, "note": 68, "velocity": 111, "channel": 0}, {"type": "note_off", "time": 62, "note": 68, "velocity": 111, "channel": 0}, {"type": "note_on", "time": 0, "note": 66, "velocity": 115, "channel": 0}, {"type": "note_off", "time": 62, "note": 66, "velocity": 115, "channel": 0}, {"type": "note_on", "time": 0, "note": 66, "velocity": 78, "channel": 0}, {"type": "note_off", "time": 61, "note": 66, "velocity": 78, "channel": 0}, {"type": "note_on", "time": 0, "note": 58, "velocity": 86, "channel": 0}, {"type": "note_off", "time": 62, "note": 58, "velocity": 86, "channel": 0}, {"type": "note_on", "time": 0, "note": 63, "velocity": 104, "channel": 0}, {"type": "note_off", "time": 62, "note": 63, "velocity": 104, "channel": 0}, {"type": "note_on", "time": 0, "note": 65, "velocity": 110, "channel": 0}, {"type": "note_off", "time": 62, "note": 65, "velocity": 110, "channel": 0}, {"type": "note_on", "time": 0, "note": 63, "velocity": 107, "channel": 0}, {"type": "note_off", "time": 62, "note": 63, "velocity": 107, "channel": 0}, {"type": "note_on", "time": 0, "note": 61, "velocity": 103, "channel": 0}, {"type": "note_off", "time": 55, "note": 61, "velocity": 103, "channel": 0}, {"type": "note_on", "time": 1, "note": 58, "velocity": 84, "channel": 0}, {"type": "note_off", "time": 49, "note": 58, "velocity": 84, "channel": 0}, {"type": "note_on", "time": 11, "note": 61, "velocity": 102, "channel": 0}, {"type": "note_off", "time": 50, "note": 61, "velocity": 102, "channel": 0}, {"type": "note_on", "time": 1, "note": 63, "velocity": 103, "channel": 0}, {"type": "note_off", "time": 62, "note": 63, "velocity": 103, "channel": 0}, {"type": "note_on", "time": 12, "note": 65, "velocity": 112, "channel": 0}, {"type": "note_off", "time": 56, "note": 65, "velocity": 112, "channel": 0}, {"type": "note_on", "time": 3, "note": 66, "velocity": 111, "channel": 0}, {"type": "note_off", "time": 62, "note": 66, "velocity": 111, "channel": 0}, {"type": "note_on", "time": 6, "note": 67, "velocity": 97, "channel": 0}, {"type": "note_off", "time": 287, "note": 67, "velocity": 97, "channel": 0}, {"type": "note_on", "time": 62, "note": 70, "velocity": 115, "channel": 0}, {"type": "note_off", "time": 59, "note": 70, "velocity": 115, "channel": 0}, {"type": "note_on", "time": 216, "note": 60, "velocity": 88, "channel": 0}, {"type": "note_off", "time": 41, "note": 60, "velocity": 88, "channel": 0}, {"type": "note_on", "time": 25, "note": 63, "velocity": 97, "channel": 0}, {"type": "note_off", "time": 30, "note": 63, "velocity": 97, "channel": 0}, {"type": "note_on", "time": 18, "note": 65, "velocity": 108, "channel": 0}, {"type": "note_off", "time": 28, "note": 65, "velocity": 108, "channel": 0}, {"type": "note_on", "time": 38, "note": 66, "velocity": 73, "channel": 0}, {"type": "note_off", "time": 187, "note": 66, "velocity": 73, "channel": 0}, {"type": "note_on", "time": 122, "note": 63, "velocity": 100, "channel": 0}, {"type": "note_off", "time": 51, "note": 63, "velocity": 100, "channel": 0}, {"type": "note_on", "time": 36, "note": 65, "velocity": 103, "channel": 0}, {"type": "note_off", "time": 96, "note": 65, "velocity": 103, "channel": 0}, {"type": "note_on", "time": 7, "note": 63, "velocity": 109, "channel": 0}, {"type": "note_off", "time": 28, "note": 63, "velocity": 109, "channel": 0}, {"type": "note_on", "time": 1, "note": 60, "velocity": 90, "channel": 0}, {"type": "note_off", "time": 64, "note": 60, "velocity": 90, "channel": 0}, {"type": "note_on", "time": 0, "note": 57, "velocity": 88, "channel": 0}, {"type": "note_off", "time": 64, "note": 57, "velocity": 88, "channel": 0}, {"type": "note_on", "time": 26, "note": 63, "velocity": 104, "channel": 0}, {"type": "note_off", "time": 256, "note": 63, "velocity": 104, "channel": 0}, {"type": "note_on", "time": 14, "note": 65, "velocity": 100, "channel": 0}, {"type": "note_off", "time": 103, "note": 65, "velocity": 100, "channel": 0}, {"type": "note_on", "time": 22, "note": 61, "velocity": 90, "channel": 0}, {"type": "note_off", "time": 291, "note": 61, "velocity": 90, "channel": 0}, {"type": "note_on", "time": 578, "note": 71, "velocity": 122, "channel": 0}, {"type": "note_off", "time": 32, "note": 71, "velocity": 122, "channel": 0}, {"type": "note_on", "time": 11, "note": 72, "velocity": 119, "channel": 0}, {"type": "note_off", "time": 222, "note": 72, "velocity": 119, "channel": 0}, {"type": "note_on", "time": 30, "note": 70, "velocity": 118, "channel": 0}, {"type": "note_off", "time": 59, "note": 70, "velocity": 118, "channel": 0}, {"type": "note_on", "time": 33, "note": 68, "velocity": 114, "channel": 0}, {"type": "note_off", "time": 59, "note": 68, "velocity": 114, "channel": 0}, {"type": "note_on", "time": 41, "note": 65, "velocity": 95, "channel": 0}, {"type": "note_off", "time": 46, "note": 65, "velocity": 95, "channel": 0}, {"type": "note_on", "time": 25, "note": 63, "velocity": 101, "channel": 0}, {"type": "note_off", "time": 49, "note": 63, "velocity": 101, "channel": 0}, {"type": "note_on", "time": 1, "note": 65, "velocity": 104, "channel": 0}, {"type": "note_off", "time": 43, "note": 65, "velocity": 104, "channel": 0}, {"type": "note_on", "time": 2, "note": 66, "velocity": 99, "channel": 0}, {"type": "note_off", "time": 49, "note": 66, "velocity": 99, "channel": 0}, {"type": "note_on", "time": 1, "note": 68, "velocity": 99, "channel": 0}, {"type": "note_off", "time": 49, "note": 68, "velocity": 99, "channel": 0}, {"type": "note_on", "time": 0, "note": 70, "velocity": 79, "channel": 0}, {"type": "note_off", "time": 69, "note": 70, "velocity": 79, "channel": 0}, {"type": "note_on", "time": 7, "note": 70, "velocity": 115, "channel": 0}, {"type": "note_off", "time": 87, "note": 70, "velocity": 115, "channel": 0}, {"type": "note_on", "time": 0, "note": 68, "velocity": 86, "channel": 0}, {"type": "note_off", "time": 54, "note": 68, "velocity": 86, "channel": 0}, {"type": "note_on", "time": 45, "note": 68, "velocity": 117, "channel": 0}, {"type": "note_off", "time": 81, "note": 68, "velocity": 117, "channel": 0}, {"type": "note_on", "time": 1, "note": 66, "velocity": 99, "channel": 0}, {"type": "note_off", "time": 51, "note": 66, "velocity": 99, "channel": 0}, {"type": "note_on", "time": 42, "note": 66, "velocity": 117, "channel": 0}, {"type": "note_off", "time": 77, "note": 66, "velocity": 117, "channel": 0}, {"type": "note_on", "time": 0, "note": 65, "velocity": 99, "channel": 0}, {"type": "note_off", "time": 46, "note": 65, "velocity": 99, "channel": 0}, {"type": "note_on", "time": 18, "note": 65, "velocity": 101, "channel": 0}, {"type": "note_off", "time": 46, "note": 65, "velocity": 101, "channel": 0}, {"type": "note_on", "time": 21, "note": 66, "velocity": 94, "channel": 0}, {"type": "note_off", "time": 28, "note": 66, "velocity": 94, "channel": 0}, {"type": "note_on", "time": 0, "note": 68, "velocity": 97, "channel": 0}, {"type": "note_off", "time": 41, "note": 68, "velocity": 97, "channel": 0}, {"type": "note_on", "time": 0, "note": 70, "velocity": 97, "channel": 0}, {"type": "note_off", "time": 46, "note": 70, "velocity": 97, "channel": 0}, {"type": "note_on", "time": 41, "note": 70, "velocity": 113, "channel": 0}, {"type": "note_off", "time": 90, "note": 70, "velocity": 113, "channel": 0}, {"type": "note_on", "time": 12, "note": 68, "velocity": 100, "channel": 0}, {"type": "note_off", "time": 46, "note": 68, "velocity": 100, "channel": 0}, {"type": "note_on", "time": 38, "note": 68, "velocity": 115, "channel": 0}, {"type": "note_off", "time": 64, "note": 68, "velocity": 115, "channel": 0}, {"type": "note_on", "time": 15, "note": 67, "velocity": 97, "channel": 0}, {"type": "note_off", "time": 47, "note": 67, "velocity": 97, "channel": 0}, {"type": "note_on", "time": 30, "note": 68, "velocity": 98, "channel": 0}, {"type": "note_off", "time": 47, "note": 68, "velocity": 98, "channel": 0}, {"type": "note_on", "time": 5, "note": 70, "velocity": 106, "channel": 0}, {"type": "note_off", "time": 40, "note": 70, "velocity": 106, "channel": 0}, {"type": "note_on", "time": 2, "note": 72, "velocity": 114, "channel": 0}, {"type": "note_off", "time": 43, "note": 72, "velocity": 114, "channel": 0}, {"type": "note_on", "time": 2, "note": 74, "velocity": 103, "channel": 0}, {"type": "note_off", "time": 54, "note": 74, "velocity": 103, "channel": 0}, {"type": "note_on", "time": 39, "note": 77, "velocity": 110, "channel": 0}, {"type": "note_off", "time": 43, "note": 77, "velocity": 110, "channel": 0}, {"type": "note_on", "time": 2, "note": 73, "velocity": 111, "channel": 0}, {"type": "note_off", "time": 46, "note": 73, "velocity": 111, "channel": 0}, {"type": "note_on", "time": 1, "note": 75, "velocity": 120, "channel": 0}, {"type": "note_off", "time": 41, "note": 75, "velocity": 120, "channel": 0}, {"type": "note_on", "time": 0, "note": 73, "velocity": 117, "channel": 0}, {"type": "note_off", "time": 43, "note": 73, "velocity": 117, "channel": 0}, {"type": "note_on", "time": 0, "note": 74, "velocity": 118, "channel": 0}, {"type": "note_off", "time": 49, "note": 74, "velocity": 118, "channel": 0}, {"type": "note_on", "time": 0, "note": 73, "velocity": 111, "channel": 0}, {"type": "note_off", "time": 46, "note": 73, "velocity": 111, "channel": 0}, {"type": "note_on", "time": 0, "note": 72, "velocity": 117, "channel": 0}, {"type": "note_off", "time": 33, "note": 72, "velocity": 117, "channel": 0}, {"type": "note_on", "time": 7, "note": 71, "velocity": 115, "channel": 0}, {"type": "note_off", "time": 48, "note": 71, "velocity": 115, "channel": 0}, {"type": "note_on", "time": 1, "note": 70, "velocity": 107, "channel": 0}, {"type": "note_off", "time": 33, "note": 70, "velocity": 107, "channel": 0}, {"type": "note_on", "time": 6, "note": 69, "velocity": 112, "channel": 0}, {"type": "note_off", "time": 47, "note": 69, "velocity": 112, "channel": 0}, {"type": "note_on", "time": 0, "note": 68, "velocity": 106, "channel": 0}, {"type": "note_off", "time": 45, "note": 68, "velocity": 106, "channel": 0}, {"type": "note_on", "time": 0, "note": 66, "velocity": 103, "channel": 0}, {"type": "note_off", "time": 45, "note": 66, "velocity": 103, "channel": 0}, {"type": "note_on", "time": 2, "note": 67, "velocity": 105, "channel": 0}, {"type": "note_off", "time": 41, "note": 67, "velocity": 105, "channel": 0}, {"type": "note_on", "time": 1, "note": 65, "velocity": 110, "channel": 0}, {"type": "note_off", "time": 45, "note": 65, "velocity": 110, "channel": 0}, {"type": "note_on", "time": 0, "note": 64, "velocity": 109, "channel": 0}, {"type": "note_off", "time": 42, "note": 64, "velocity": 109, "channel": 0}, {"type": "note_on", "time": 0, "note": 60, "velocity": 88, "channel": 0}, {"type": "note_off", "time": 43, "note": 60, "velocity": 88, "channel": 0}, {"type": "note_on", "time": 206, "note": 73, "velocity": 116, "channel": 0}, {"type": "note_off", "time": 21, "note": 73, "velocity": 116, "channel": 0}, {"type": "note_on", "time": 0, "note": 74, "velocity": 123, "channel": 0}, {"type": "note_off", "time": 32, "note": 74, "velocity": 123, "channel": 0}, {"type": "note_on", "time": 8, "note": 73, "velocity": 122, "channel": 0}, {"type": "note_off", "time": 32, "note": 73, "velocity": 122, "channel": 0}, {"type": "note_on", "time": 0, "note": 72, "velocity": 107, "channel": 0}, {"type": "note_on", "time": 43, "note": 70, "velocity": 116, "channel": 0}, {"type": "note_off", "time": 0, "note": 72, "velocity": 107, "channel": 0}, {"type": "note_off", "time": 43, "note": 70, "velocity": 116, "channel": 0}, {"type": "note_on", "time": 0, "note": 69, "velocity": 111, "channel": 0}, {"type": "note_off", "time": 45, "note": 69, "velocity": 111, "channel": 0}, {"type": "note_on", "time": 1, "note": 67, "velocity": 115, "channel": 0}, {"type": "note_off", "time": 37, "note": 67, "velocity": 115, "channel": 0}, {"type": "note_on", "time": 2, "note": 68, "velocity": 111, "channel": 0}, {"type": "note_off", "time": 48, "note": 68, "velocity": 111, "channel": 0}, {"type": "note_on", "time": 2, "note": 63, "velocity": 104, "channel": 0}, {"type": "note_off", "time": 37, "note": 63, "velocity": 104, "channel": 0}, {"type": "note_on", "time": 2, "note": 64, "velocity": 105, "channel": 0}, {"type": "note_off", "time": 40, "note": 64, "velocity": 105, "channel": 0}, {"type": "note_on", "time": 1, "note": 67, "velocity": 112, "channel": 0}, {"type": "note_off", "time": 47, "note": 67, "velocity": 112, "channel": 0}, {"type": "note_on", "time": 0, "note": 65, "velocity": 116, "channel": 0}, {"type": "note_off", "time": 45, "note": 65, "velocity": 116, "channel": 0}, {"type": "note_on", "time": 0, "note": 64, "velocity": 115, "channel": 0}, {"type": "note_off", "time": 45, "note": 64, "velocity": 115, "channel": 0}, {"type": "note_on", "time": 0, "note": 63, "velocity": 110, "channel": 0}, {"type": "note_off", "time": 45, "note": 63, "velocity": 110, "channel": 0}, {"type": "note_on", "time": 0, "note": 61, "velocity": 94, "channel": 0}, {"type": "note_off", "time": 45, "note": 61, "velocity": 94, "channel": 0}, {"type": "note_on", "time": 0, "note": 62, "velocity": 110, "channel": 0}, {"type": "note_off", "time": 46, "note": 62, "velocity": 110, "channel": 0}, {"type": "note_on", "time": 0, "note": 58, "velocity": 99, "channel": 0}, {"type": "note_off", "time": 46, "note": 58, "velocity": 99, "channel": 0}, {"type": "note_on", "time": 496, "note": 70, "velocity": 117, "channel": 0}, {"type": "note_off", "time": 59, "note": 70, "velocity": 117, "channel": 0}, {"type": "note_on", "time": 0, "note": 72, "velocity": 116, "channel": 0}, {"type": "note_off", "time": 54, "note": 72, "velocity": 116, "channel": 0}, {"type": "note_on", "time": 0, "note": 75, "velocity": 122, "channel": 0}, {"type": "note_off", "time": 61, "note": 75, "velocity": 122, "channel": 0}, {"type": "note_on", "time": 34, "note": 78, "velocity": 118, "channel": 0}, {"type": "note_off", "time": 108, "note": 78, "velocity": 118, "channel": 0}, {"type": "note_on", "time": 2, "note": 75, "velocity": 122, "channel": 0}, {"type": "note_off", "time": 62, "note": 75, "velocity": 122, "channel": 0}, {"type": "note_on", "time": 12, "note": 73, "velocity": 110, "channel": 0}, {"type": "note_off", "time": 61, "note": 73, "velocity": 110, "channel": 0}, {"type": "note_on", "time": 2, "note": 70, "velocity": 117, "channel": 0}, {"type": "note_off", "time": 49, "note": 70, "velocity": 117, "channel": 0}, {"type": "note_on", "time": 3, "note": 69, "velocity": 113, "channel": 0}, {"type": "note_off", "time": 41, "note": 69, "velocity": 113, "channel": 0}, {"type": "note_on", "time": 15, "note": 68, "velocity": 110, "channel": 0}, {"type": "note_off", "time": 64, "note": 68, "velocity": 110, "channel": 0}, {"type": "note_on", "time": 1, "note": 66, "velocity": 112, "channel": 0}, {"type": "note_off", "time": 49, "note": 66, "velocity": 112, "channel": 0}, {"type": "note_on", "time": 2, "note": 63, "velocity": 107, "channel": 0}, {"type": "note_off", "time": 49, "note": 63, "velocity": 107, "channel": 0}, {"type": "note_on", "time": 2, "note": 58, "velocity": 96, "channel": 0}, {"type": "note_off", "time": 64, "note": 58, "velocity": 96, "channel": 0}, {"type": "note_on", "time": 31, "note": 61, "velocity": 101, "channel": 0}, {"type": "note_off", "time": 47, "note": 61, "velocity": 101, "channel": 0}, {"type": "note_on", "time": 2, "note": 63, "velocity": 108, "channel": 0}, {"type": "note_off", "time": 227, "note": 63, "velocity": 108, "channel": 0}, {"type": "note_on", "time": 15, "note": 61, "velocity": 96, "channel": 0}, {"type": "note_off", "time": 59, "note": 61, "velocity": 96, "channel": 0}, {"type": "note_on", "time": 0, "note": 58, "velocity": 79, "channel": 0}, {"type": "note_off", "time": 61, "note": 58, "velocity": 79, "channel": 0}, {"type": "note_on", "time": 11, "note": 63, "velocity": 95, "channel": 0}, {"type": "note_off", "time": 319, "note": 63, "velocity": 95, "channel": 0}, {"type": "note_on", "time": 254, "note": 62, "velocity": 98, "channel": 0}, {"type": "note_off", "time": 38, "note": 62, "velocity": 98, "channel": 0}, {"type": "note_on", "time": 10, "note": 65, "velocity": 97, "channel": 0}, {"type": "note_off", "time": 30, "note": 65, "velocity": 97, "channel": 0}, {"type": "note_on", "time": 15, "note": 67, "velocity": 98, "channel": 0}, {"type": "note_off", "time": 38, "note": 67, "velocity": 98, "channel": 0}, {"type": "note_on", "time": 12, "note": 70, "velocity": 93, "channel": 0}, {"type": "note_off", "time": 36, "note": 70, "velocity": 93, "channel": 0}, {"type": "note_on", "time": 10, "note": 72, "velocity": 117, "channel": 0}, {"type": "note_off", "time": 64, "note": 72, "velocity": 117, "channel": 0}, {"type": "note_on", "time": 10, "note": 73, "velocity": 117, "channel": 0}, {"type": "note_off", "time": 123, "note": 73, "velocity": 117, "channel": 0}, {"type": "note_on", "time": 1, "note": 70, "velocity": 97, "channel": 0}, {"type": "note_off", "time": 46, "note": 70, "velocity": 97, "channel": 0}, {"type": "note_on", "time": 1, "note": 72, "velocity": 118, "channel": 0}, {"type": "note_off", "time": 480, "note": 72, "velocity": 118, "channel": 0}, {"type": "note_on", "time": 31, "note": 70, "velocity": 107, "channel": 0}, {"type": "note_off", "time": 64, "note": 70, "velocity": 107, "channel": 0}, {"type": "note_on", "time": 30, "note": 71, "velocity": 114, "channel": 0}, {"type": "note_off", "time": 27, "note": 71, "velocity": 114, "channel": 0}, {"type": "note_on", "time": 2, "note": 73, "velocity": 108, "channel": 0}, {"type": "note_off", "time": 96, "note": 73, "velocity": 108, "channel": 0}, {"type": "note_on", "time": 7, "note": 66, "velocity": 114, "channel": 0}, {"type": "note_off", "time": 96, "note": 66, "velocity": 114, "channel": 0}, {"type": "note_on", "time": 255, "note": 63, "velocity": 92, "channel": 0}, {"type": "note_off", "time": 32, "note": 63, "velocity": 92, "channel": 0}, {"type": "note_on", "time": 32, "note": 66, "velocity": 100, "channel": 0}, {"type": "note_off", "time": 32, "note": 66, "velocity": 100, "channel": 0}, {"type": "note_on", "time": 22, "note": 67, "velocity": 111, "channel": 0}, {"type": "note_off", "time": 30, "note": 67, "velocity": 111, "channel": 0}, {"type": "note_on", "time": 10, "note": 70, "velocity": 99, "channel": 0}, {"type": "note_off", "time": 30, "note": 70, "velocity": 99, "channel": 0}, {"type": "note_on", "time": 20, "note": 72, "velocity": 121, "channel": 0}, {"type": "note_off", "time": 41, "note": 72, "velocity": 121, "channel": 0}, {"type": "note_on", "time": 19, "note": 73, "velocity": 116, "channel": 0}, {"type": "note_off", "time": 62, "note": 73, "velocity": 116, "channel": 0}, {"type": "note_on", "time": 3, "note": 70, "velocity": 95, "channel": 0}, {"type": "note_off", "time": 43, "note": 70, "velocity": 95, "channel": 0}, {"type": "note_on", "time": 28, "note": 72, "velocity": 113, "channel": 0}, {"type": "note_off", "time": 304, "note": 72, "velocity": 113, "channel": 0}, {"type": "note_on", "time": 129, "note": 70, "velocity": 95, "channel": 0}, {"type": "note_off", "time": 59, "note": 70, "velocity": 95, "channel": 0}, {"type": "note_on", "time": 7, "note": 72, "velocity": 113, "channel": 0}, {"type": "note_off", "time": 56, "note": 72, "velocity": 113, "channel": 0}, {"type": "note_on", "time": 0, "note": 70, "velocity": 114, "channel": 0}, {"type": "note_off", "time": 59, "note": 70, "velocity": 114, "channel": 0}, {"type": "note_on", "time": 34, "note": 76, "velocity": 113, "channel": 0}, {"type": "note_off", "time": 28, "note": 76, "velocity": 113, "channel": 0}, {"type": "note_on", "time": 2, "note": 77, "velocity": 113, "channel": 0}, {"type": "note_off", "time": 83, "note": 77, "velocity": 113, "channel": 0}, {"type": "note_on", "time": 2, "note": 69, "velocity": 116, "channel": 0}, {"type": "note_off", "time": 93, "note": 69, "velocity": 116, "channel": 0}, {"type": "note_on", "time": 95, "note": 58, "velocity": 90, "channel": 0}, {"type": "note_off", "time": 43, "note": 58, "velocity": 90, "channel": 0}, {"type": "note_on", "time": 47, "note": 68, "velocity": 115, "channel": 0}, {"type": "note_off", "time": 77, "note": 68, "velocity": 115, "channel": 0}, {"type": "note_on", "time": 3, "note": 67, "velocity": 106, "channel": 0}, {"type": "note_off", "time": 97, "note": 67, "velocity": 106, "channel": 0}, {"type": "note_on", "time": 3, "note": 61, "velocity": 106, "channel": 0}, {"type": "note_off", "time": 26, "note": 61, "velocity": 106, "channel": 0}, {"type": "note_on", "time": 1, "note": 58, "velocity": 93, "channel": 0}, {"type": "note_off", "time": 63, "note": 58, "velocity": 93, "channel": 0}, {"type": "note_on", "time": 16, "note": 60, "velocity": 105, "channel": 0}, {"type": "note_off", "time": 263, "note": 60, "velocity": 105, "channel": 0}, {"type": "note_on", "time": 118, "note": 68, "velocity": 78, "channel": 0}, {"type": "note_off", "time": 33, "note": 68, "velocity": 78, "channel": 0}, {"type": "note_on", "time": 18, "note": 70, "velocity": 88, "channel": 0}, {"type": "note_off", "time": 99, "note": 70, "velocity": 88, "channel": 0}, {"type": "note_on", "time": 31, "note": 66, "velocity": 110, "channel": 0}, {"type": "note_off", "time": 90, "note": 66, "velocity": 110, "channel": 0}, {"type": "note_on", "time": 565, "note": 77, "velocity": 125, "channel": 0}, {"type": "note_off", "time": 59, "note": 77, "velocity": 125, "channel": 0}, {"type": "note_on", "time": 12, "note": 76, "velocity": 127, "channel": 0}, {"type": "note_off", "time": 44, "note": 76, "velocity": 127, "channel": 0}, {"type": "note_on", "time": 2, "note": 75, "velocity": 122, "channel": 0}, {"type": "note_off", "time": 51, "note": 75, "velocity": 122, "channel": 0}, {"type": "note_on", "time": 0, "note": 74, "velocity": 123, "channel": 0}, {"type": "note_off", "time": 88, "note": 74, "velocity": 123, "channel": 0}, {"type": "note_on", "time": 32, "note": 77, "velocity": 123, "channel": 0}, {"type": "note_off", "time": 88, "note": 77, "velocity": 123, "channel": 0}, {"type": "note_on", "time": 25, "note": 75, "velocity": 116, "channel": 0}, {"type": "note_off", "time": 95, "note": 75, "velocity": 116, "channel": 0}, {"type": "note_on", "time": 0, "note": 70, "velocity": 116, "channel": 0}, {"type": "note_off", "time": 59, "note": 70, "velocity": 116, "channel": 0}, {"type": "note_on", "time": 30, "note": 67, "velocity": 101, "channel": 0}, {"type": "note_off", "time": 61, "note": 67, "velocity": 101, "channel": 0}, {"type": "note_on", "time": 38, "note": 68, "velocity": 114, "channel": 0}, {"type": "note_off", "time": 59, "note": 68, "velocity": 114, "channel": 0}, {"type": "note_on", "time": 54, "note": 70, "velocity": 109, "channel": 0}, {"type": "note_off", "time": 67, "note": 70, "velocity": 109, "channel": 0}, {"type": "note_on", "time": 20, "note": 72, "velocity": 122, "channel": 0}, {"type": "note_off", "time": 69, "note": 72, "velocity": 122, "channel": 0}, {"type": "note_on", "time": 15, "note": 74, "velocity": 116, "channel": 0}, {"type": "note_off", "time": 87, "note": 74, "velocity": 116, "channel": 0}, {"type": "note_on", "time": 7, "note": 77, "velocity": 121, "channel": 0}, {"type": "note_off", "time": 98, "note": 77, "velocity": 121, "channel": 0}, {"type": "note_on", "time": 12, "note": 79, "velocity": 112, "channel": 0}, {"type": "note_off", "time": 92, "note": 79, "velocity": 112, "channel": 0}, {"type": "note_on", "time": 64, "note": 74, "velocity": 114, "channel": 0}, {"type": "note_off", "time": 154, "note": 74, "velocity": 114, "channel": 0}, {"type": "note_on", "time": 27, "note": 73, "velocity": 110, "channel": 0}, {"type": "note_off", "time": 47, "note": 73, "velocity": 110, "channel": 0}, {"type": "note_on", "time": 0, "note": 74, "velocity": 115, "channel": 0}, {"type": "note_on", "time": 47, "note": 73, "velocity": 111, "channel": 0}, {"type": "note_off", "time": 0, "note": 74, "velocity": 115, "channel": 0}, {"type": "note_off", "time": 47, "note": 73, "velocity": 111, "channel": 0}, {"type": "note_on", "time": 0, "note": 69, "velocity": 116, "channel": 0}, {"type": "note_off", "time": 47, "note": 69, "velocity": 116, "channel": 0}, {"type": "note_on", "time": 0, "note": 66, "velocity": 115, "channel": 0}, {"type": "note_off", "time": 119, "note": 66, "velocity": 115, "channel": 0}, {"type": "note_on", "time": 0, "note": 64, "velocity": 102, "channel": 0}, {"type": "note_off", "time": 59, "note": 64, "velocity": 102, "channel": 0}, {"type": "note_on", "time": 28, "note": 65, "velocity": 102, "channel": 0}, {"type": "note_off", "time": 111, "note": 65, "velocity": 102, "channel": 0}, {"type": "note_on", "time": 18, "note": 71, "velocity": 111, "channel": 0}, {"type": "note_off", "time": 30, "note": 71, "velocity": 111, "channel": 0}, {"type": "note_on", "time": 23, "note": 72, "velocity": 112, "channel": 0}, {"type": "note_off", "time": 157, "note": 72, "velocity": 112, "channel": 0}, {"type": "note_on", "time": 59, "note": 70, "velocity": 107, "channel": 0}, {"type": "note_off", "time": 97, "note": 70, "velocity": 107, "channel": 0}, {"type": "note_on", "time": 16, "note": 68, "velocity": 112, "channel": 0}, {"type": "note_off", "time": 49, "note": 68, "velocity": 112, "channel": 0}, {"type": "note_on", "time": 35, "note": 67, "velocity": 109, "channel": 0}, {"type": "note_off", "time": 89, "note": 67, "velocity": 109, "channel": 0}, {"type": "note_on", "time": 1, "note": 65, "velocity": 113, "channel": 0}, {"type": "note_off", "time": 51, "note": 65, "velocity": 113, "channel": 0}, {"type": "note_on", "time": 2, "note": 63, "velocity": 91, "channel": 0}, {"type": "note_off", "time": 95, "note": 63, "velocity": 91, "channel": 0}, {"type": "note_on", "time": 0, "note": 60, "velocity": 86, "channel": 0}, {"type": "note_off", "time": 95, "note": 60, "velocity": 86, "channel": 0}, {"type": "note_on", "time": 34, "note": 63, "velocity": 101, "channel": 0}, {"type": "note_off", "time": 100, "note": 63, "velocity": 101, "channel": 0}, {"type": "note_on", "time": 2, "note": 60, "velocity": 91, "channel": 0}, {"type": "note_off", "time": 49, "note": 60, "velocity": 91, "channel": 0}, {"type": "note_on", "time": 5, "note": 62, "velocity": 97, "channel": 0}, {"type": "note_off", "time": 96, "note": 62, "velocity": 97, "channel": 0}, {"type": "note_on", "time": 51, "note": 70, "velocity": 114, "channel": 0}, {"type": "note_off", "time": 61, "note": 70, "velocity": 114, "channel": 0}, {"type": "note_on", "time": 25, "note": 67, "velocity": 103, "channel": 0}, {"type": "note_off", "time": 97, "note": 67, "velocity": 103, "channel": 0}, {"type": "note_on", "time": 21, "note": 63, "velocity": 99, "channel": 0}, {"type": "note_off", "time": 56, "note": 63, "velocity": 99, "channel": 0}, {"type": "note_on", "time": 0, "note": 65, "velocity": 104, "channel": 0}, {"type": "note_off", "time": 95, "note": 65, "velocity": 104, "channel": 0}, {"type": "note_on", "time": 7, "note": 63, "velocity": 104, "channel": 0}, {"type": "note_off", "time": 49, "note": 63, "velocity": 104, "channel": 0}, {"type": "note_on", "time": 49, "note": 62, "velocity": 90, "channel": 0}, {"type": "note_off", "time": 93, "note": 62, "velocity": 90, "channel": 0}, {"type": "note_on", "time": 10, "note": 63, "velocity": 90, "channel": 0}, {"type": "note_off", "time": 51, "note": 63, "velocity": 90, "channel": 0}, {"type": "note_on", "time": 1, "note": 66, "velocity": 88, "channel": 0}, {"type": "note_off", "time": 30, "note": 66, "velocity": 88, "channel": 0}, {"type": "note_on", "time": 7, "note": 67, "velocity": 106, "channel": 0}, {"type": "note_off", "time": 101, "note": 67, "velocity": 106, "channel": 0}, {"type": "note_on", "time": 4, "note": 70, "velocity": 90, "channel": 0}, {"type": "note_off", "time": 54, "note": 70, "velocity": 90, "channel": 0}, {"type": "note_on", "time": 5, "note": 72, "velocity": 103, "channel": 0}, {"type": "note_off", "time": 97, "note": 72, "velocity": 103, "channel": 0}, {"type": "note_on", "time": 39, "note": 71, "velocity": 104, "channel": 0}, {"type": "note_off", "time": 20, "note": 71, "velocity": 104, "channel": 0}, {"type": "note_on", "time": 5, "note": 73, "velocity": 110, "channel": 0}, {"type": "note_off", "time": 59, "note": 73, "velocity": 110, "channel": 0}, {"type": "note_on", "time": 85, "note": 71, "velocity": 99, "channel": 0}, {"type": "note_off", "time": 28, "note": 71, "velocity": 99, "channel": 0}, {"type": "note_on", "time": 0, "note": 72, "velocity": 105, "channel": 0}, {"type": "note_off", "time": 51, "note": 72, "velocity": 105, "channel": 0}, {"type": "note_on", "time": 92, "note": 69, "velocity": 75, "channel": 0}, {"type": "note_off", "time": 28, "note": 69, "velocity": 75, "channel": 0}, {"type": "note_on", "time": 0, "note": 70, "velocity": 105, "channel": 0}, {"type": "note_off", "time": 59, "note": 70, "velocity": 105, "channel": 0}, {"type": "note_on", "time": 111, "note": 68, "velocity": 111, "channel": 0}, {"type": "note_off", "time": 92, "note": 68, "velocity": 111, "channel": 0}, {"type": "note_on", "time": 0, "note": 67, "velocity": 110, "channel": 0}, {"type": "note_off", "time": 93, "note": 67, "velocity": 110, "channel": 0}, {"type": "note_on", "time": 14, "note": 63, "velocity": 85, "channel": 0}, {"type": "note_off", "time": 286, "note": 63, "velocity": 85, "channel": 0}, {"type": "end_of_track", "time": 0}]]}