{"ticks_per_beat": 192, "tracks": [[{"type": "track_name", "name": "Melody", "time": 0}, {"type": "set_tempo", "tempo": 206185, "time": 0}, {"type": "key_signature", "key": "G", "time": 0}, {"type": "time_signature", "numerator": 4, "denominator": 4, "clocks_per_click": 24, "notated_32nd_notes_per_beat": 8, "time": 0}, {"type": "note_on", "time": 3762, "note": 66, "velocity": 79, "channel": 0}, {"type": "note_off", "time": 88, "note": 66, "velocity": 79, "channel": 0}, {"type": "note_on", "time": 18, "note": 67, "velocity": 81, "channel": 0}, {"type": "note_off", "time": 67, "note": 67, "velocity": 81, "channel": 0}, {"type": "note_on", "time": 0, "note": 71, "velocity": 89, "channel": 0}, {"type": "note_off", "time": 104, "note": 71, "velocity": 89, "channel": 0}, {"type": "note_on", "time": 10, "note": 74, "velocity": 87, "channel": 0}, {"type": "note_off", "time": 83, "note": 74, "velocity": 87, "channel": 0}, {"type": "note_on", "time": 16, "note": 78, "velocity": 88, "channel": 0}, {"type": "note_off", "time": 103, "note": 78, "velocity": 88, "channel": 0}, {"type": "note_on", "time": 19, "note": 79, "velocity": 88, "channel": 0}, {"type": "note_off", "time": 101, "note": 79, "velocity": 88, "channel": 0}, {"type": "note_on", "time": 6, "note": 78, "velocity": 84, "channel": 0}, {"type": "note_off", "time": 104, "note": 78, "velocity": 84, "channel": 0}, {"type": "note_on", "time": 1, "note": 76, "velocity": 78, "channel": 0}, {"type": "note_off", "time": 83, "note": 76, "velocity": 78, "channel": 0}, {"type": "note_on", "time": 12, "note": 74, "velocity": 92, "channel": 0}, {"type": "note_off", "time": 79, "note": 74, "velocity": 92, "channel": 0}, {"type": "note_on", "time": 16, "note": 71, "velocity": 95, "channel": 0}, {"type": "note_off", "time": 114, "note": 71, "velocity": 95, "channel": 0}, {"type": "note_on", "time": 4, "note": 72, "velocity": 88, "channel": 0}, {"type": "note_off", "time": 45, "note": 72, "velocity": 88, "channel": 0}, {"type": "note_on", "time": 3, "note": 74, "velocity": 90, "channel": 0}, {"type": "note_off", "time": 41, "note": 74, "velocity": 90, "channel": 0}, {"type": "note_on", "time": 21, "note": 72, "velocity": 89, "channel": 0}, {"type": "note_off", "time": 62, "note": 72, "velocity": 89, "channel": 0}, {"type": "note_on", "time": 4, "note": 71, "velocity": 93, "channel": 0}, {"type": "note_off", "time": 86, "note": 71, "velocity": 93, "channel": 0}, {"type": "note_on", "time": 38, "note": 69, "velocity": 92, "channel": 0}, {"type": "note_off", "time": 68, "note": 69, "velocity": 92, "channel": 0}, {"type": "note_on", "time": 7, "note": 68, "velocity": 91, "channel": 0}, {"type": "note_off", "time": 87, "note": 68, "velocity": 91, "channel": 0}, {"type": "note_on", "time": 3, "note": 66, "velocity": 71, "channel": 0}, {"type": "note_off", "time": 95, "note": 66, "velocity": 71, "channel": 0}, {"type": "note_on", "time": 7, "note": 67, "velocity": 67, "channel": 0}, {"type": "note_off", "time": 98, "note": 67, "velocity": 67, "channel": 0}, {"type": "note_on", "time": 32, "note": 69, "velocity": 90, "channel": 0}, {"type": "note_off", "time": 81, "note": 69, "velocity": 90, "channel": 0}, {"type": "note_on", "time": 5, "note": 71, "velocity": 78, "channel": 0}, {"type": "note_off", "time": 109, "note": 71, "velocity": 78, "channel": 0}, {"type": "note_on", "time": 6, "note": 72, "velocity": 83, "channel": 0}, {"type": "note_off", "time": 58, "note": 72, "velocity": 83, "channel": 0}, {"type": "note_on", "time": 7, "note": 74, "velocity": 95, "channel": 0}, {"type": "note_off", "time": 89, "note": 74, "velocity": 95, "channel": 0}, {"type": "note_on", "time": 22, "note": 72, "velocity": 84, "channel": 0}, {"type": "note_off", "time": 93, "note": 72, "velocity": 84, "channel": 0}, {"type": "note_on", "time": 4, "note": 71, "velocity": 82, "channel": 0}, {"type": "note_off", "time": 69, "note": 71, "velocity": 82, "channel": 0}, {"type": "note_on", "time": 32, "note": 69, "velocity": 95, "channel": 0}, {"type": "note_off", "time": 95, "note": 69, "velocity": 95, "channel": 0}, {"type": "note_on", "time": 1, "note": 68, "velocity": 91, "channel": 0}, {"type": "note_off", "time": 77, "note": 68, "velocity": 91, "channel": 0}, {"type": "note_on", "time": 63, "note": 66, "velocity": 75, "channel": 0}, {"type": "note_off", "time": 74, "note": 66, "velocity": 75, "channel": 0}, {"type": "note_on", "time": 2, "note": 67, "velocity": 71, "channel": 0}, {"type": "note_off", "time": 63, "note": 67, "velocity": 71, "channel": 0}, {"type": "note_on", "time": 34, "note": 69, "velocity": 88, "channel": 0}, {"type": "note_off", "time": 82, "note": 69, "velocity": 88, "channel": 0}, {"type": "note_on", "time": 21, "note": 71, "velocity": 71, "channel": 0}, {"type": "note_off", "time": 74, "note": 71, "velocity": 71, "channel": 0}, {"type": "note_on", "time": 18, "note": 72, "velocity": 86, "channel": 0}, {"type": "note_off", "time": 85, "note": 72, "velocity": 86, "channel": 0}, {"type": "note_on", "time": 9, "note": 74, "velocity": 89, "channel": 0}, {"type": "note_off", "time": 94, "note": 74, "velocity": 89, "channel": 0}, {"type": "note_on", "time": 21, "note": 76, "velocity": 91, "channel": 0}, {"type": "note_off", "time": 83, "note": 76, "velocity": 91, "channel": 0}, {"type": "note_on", "time": 25, "note": 78, "velocity": 78, "channel": 0}, {"type": "note_off", "time": 106, "note": 78, "velocity": 78, "channel": 0}, {"type": "note_on", "time": 74, "note": 81, "velocity": 87, "channel": 0}, {"type": "note_off", "time": 98, "note": 81, "velocity": 87, "channel": 0}, {"type": "note_on", "time": 17, "note": 78, "velocity": 82, "channel": 0}, {"type": "note_off", "time": 91, "note": 78, "velocity": 82, "channel": 0}, {"type": "note_on", "time": 12, "note": 79, "velocity": 75, "channel": 0}, {"type": "note_off", "time": 107, "note": 79, "velocity": 75, "channel": 0}, {"type": "note_on", "time": 80, "note": 74, "velocity": 76, "channel": 0}, {"type": "note_off", "time": 107, "note": 74, "velocity": 76, "channel": 0}, {"type": "note_on", "time": 129, "note": 72, "velocity": 93, "channel": 0}, {"type": "note_off", "time": 150, "note": 72, "velocity": 93, "channel": 0}, {"type": "note_on", "time": 6, "note": 69, "velocity": 90, "channel": 0}, {"type": "note_off", "time": 95, "note": 69, "velocity": 90, "channel": 0}, {"type": "note_on", "time": 122, "note": 70, "velocity": 96, "channel": 0}, {"type": "note_off", "time": 155, "note": 70, "velocity": 96, "channel": 0}, {"type": "note_on", "time": 13, "note": 66, "velocity": 70, "channel": 0}, {"type": "note_off", "time": 132, "note": 66, "velocity": 70, "channel": 0}, {"type": "note_on", "time": 97, "note": 69, "velocity": 95, "channel": 0}, {"type": "note_off", "time": 155, "note": 69, "velocity": 95, "channel": 0}, {"type": "note_on", "time": 3, "note": 66, "velocity": 81, "channel": 0}, {"type": "note_off", "time": 110, "note": 66, "velocity": 81, "channel": 0}, {"type": "note_on", "time": 112, "note": 67, "velocity": 90, "channel": 0}, {"type": "note_off", "time": 132, "note": 67, "velocity": 90, "channel": 0}, {"type": "note_on", "time": 303, "note": 62, "velocity": 93, "channel": 0}, {"type": "note_off", "time": 153, "note": 62, "velocity": 93, "channel": 0}, {"type": "note_on", "time": 30, "note": 60, "velocity": 74, "channel": 0}, {"type": "note_off", "time": 125, "note": 60, "velocity": 74, "channel": 0}, {"type": "note_on", "time": 7, "note": 58, "velocity": 85, "channel": 0}, {"type": "note_off", "time": 148, "note": 58, "velocity": 85, "channel": 0}, {"type": "note_on", "time": 15, "note": 55, "velocity": 88, "channel": 0}, {"type": "note_off", "time": 190, "note": 55, "velocity": 88, "channel": 0}, {"type": "note_on", "time": 15, "note": 55, "velocity": 80, "channel": 0}, {"type": "note_off", "time": 402, "note": 55, "velocity": 80, "channel": 0}, {"type": "note_on", "time": 1004, "note": 71, "velocity": 103, "channel": 0}, {"type": "note_off", "time": 74, "note": 71, "velocity": 103, "channel": 0}, {"type": "note_on", "time": 10, "note": 72, "velocity": 92, "channel": 0}, {"type": "note_off", "time": 79, "note": 72, "velocity": 92, "channel": 0}, {"type": "note_on", "time": 18, "note": 68, "velocity": 87, "channel": 0}, {"type": "note_off", "time": 77, "note": 68, "velocity": 87, "channel": 0}, {"type": "note_on", "time": 34, "note": 71, "velocity": 89, "channel": 0}, {"type": "note_off", "time": 68, "note": 71, "velocity": 89, "channel": 0}, {"type": "note_on", "time": 26, "note": 69, "velocity": 92, "channel": 0}, {"type": "note_off", "time": 79, "note": 69, "velocity": 92, "channel": 0}, {"type": "note_on", "time": 34, "note": 67, "velocity": 90, "channel": 0}, {"type": "note_off", "time": 83, "note": 67, "velocity": 90, "channel": 0}, {"type": "note_on", "time": 32, "note": 66, "velocity": 83, "channel": 0}, {"type": "note_off", "time": 77, "note": 66, "velocity": 83, "channel": 0}, {"type": "note_on", "time": 267, "note": 80, "velocity": 101, "channel": 0}, {"type": "note_off", "time": 106, "note": 80, "velocity": 101, "channel": 0}, {"type": "note_on", "time": 2, "note": 79, "velocity": 107, "channel": 0}, {"type": "note_off", "time": 26, "note": 79, "velocity": 107, "channel": 0}, {"type": "note_on", "time": 7, "note": 75, "velocity": 98, "channel": 0}, {"type": "note_off", "time": 42, "note": 75, "velocity": 98, "channel": 0}, {"type": "note_on", "time": 0, "note": 74, "velocity": 101, "channel": 0}, {"type": "note_off", "time": 91, "note": 74, "velocity": 101, "channel": 0}, {"type": "note_on", "time": 34, "note": 72, "velocity": 98, "channel": 0}, {"type": "note_off", "time": 48, "note": 72, "velocity": 98, "channel": 0}, {"type": "note_on", "time": 10, "note": 71, "velocity": 91, "channel": 0}, {"type": "note_off", "time": 117, "note": 71, "velocity": 91, "channel": 0}, {"type": "note_on", "time": 87, "note": 71, "velocity": 84, "channel": 0}, {"type": "note_off", "time": 113, "note": 71, "velocity": 84, "channel": 0}, {"type": "note_on", "time": 435, "note": 77, "velocity": 86, "channel": 0}, {"type": "note_off", "time": 80, "note": 77, "velocity": 86, "channel": 0}, {"type": "note_on", "time": 4, "note": 76, "velocity": 108, "channel": 0}, {"type": "note_off", "time": 59, "note": 76, "velocity": 108, "channel": 0}, {"type": "note_on", "time": 3, "note": 75, "velocity": 105, "channel": 0}, {"type": "note_off", "time": 51, "note": 75, "velocity": 105, "channel": 0}, {"type": "note_on", "time": 1, "note": 74, "velocity": 97, "channel": 0}, {"type": "note_off", "time": 103, "note": 74, "velocity": 97, "channel": 0}, {"type": "note_on", "time": 8, "note": 72, "velocity": 95, "channel": 0}, {"type": "note_off", "time": 75, "note": 72, "velocity": 95, "channel": 0}, {"type": "note_on", "time": 2, "note": 71, "velocity": 88, "channel": 0}, {"type": "note_off", "time": 72, "note": 71, "velocity": 88, "channel": 0}, {"type": "note_on", "time": 51, "note": 69, "velocity": 98, "channel": 0}, {"type": "note_off", "time": 72, "note": 69, "velocity": 98, "channel": 0}, {"type": "note_on", "time": 7, "note": 68, "velocity": 87, "channel": 0}, {"type": "note_off", "time": 62, "note": 68, "velocity": 87, "channel": 0}, {"type": "note_on", "time": 57, "note": 71, "velocity": 102, "channel": 0}, {"type": "note_off", "time": 67, "note": 71, "velocity": 102, "channel": 0}, {"type": "note_on", "time": 8, "note": 69, "velocity": 85, "channel": 0}, {"type": "note_off", "time": 86, "note": 69, "velocity": 85, "channel": 0}, {"type": "note_on", "time": 20, "note": 64, "velocity": 79, "channel": 0}, {"type": "note_off", "time": 59, "note": 64, "velocity": 79, "channel": 0}, {"type": "note_on", "time": 17, "note": 69, "velocity": 95, "channel": 0}, {"type": "note_off", "time": 72, "note": 69, "velocity": 95, "channel": 0}, {"type": "note_on", "time": 34, "note": 71, "velocity": 93, "channel": 0}, {"type": "note_off", "time": 75, "note": 71, "velocity": 93, "channel": 0}, {"type": "note_on", "time": 2, "note": 72, "velocity": 82, "channel": 0}, {"type": "note_off", "time": 72, "note": 72, "velocity": 82, "channel": 0}, {"type": "note_on", "time": 34, "note": 74, "velocity": 89, "channel": 0}, {"type": "note_off", "time": 104, "note": 74, "velocity": 89, "channel": 0}, {"type": "note_on", "time": 6, "note": 75, "velocity": 86, "channel": 0}, {"type": "note_off", "time": 89, "note": 75, "velocity": 86, "channel": 0}, {"type": "note_on", "time": 3, "note": 76, "velocity": 92, "channel": 0}, {"type": "note_off", "time": 83, "note": 76, "velocity": 92, "channel": 0}, {"type": "note_on", "time": 12, "note": 79, "velocity": 79, "channel": 0}, {"type": "note_off", "time": 100, "note": 79, "velocity": 79, "channel": 0}, {"type": "note_on", "time": 19, "note": 76, "velocity": 89, "channel": 0}, {"type": "note_off", "time": 68, "note": 76, "velocity": 89, "channel": 0}, {"type": "note_on", "time": 10, "note": 78, "velocity": 92, "channel": 0}, {"type": "note_off", "time": 80, "note": 78, "velocity": 92, "channel": 0}, {"type": "note_on", "time": 13, "note": 76, "velocity": 95, "channel": 0}, {"type": "note_off", "time": 71, "note": 76, "velocity": 95, "channel": 0}, {"type": "note_on", "time": 24, "note": 74, "velocity": 85, "channel": 0}, {"type": "note_off", "time": 106, "note": 74, "velocity": 85, "channel": 0}, {"type": "note_on", "time": 10, "note": 72, "velocity": 96, "channel": 0}, {"type": "note_off", "time": 62, "note": 72, "velocity": 96, "channel": 0}, {"type": "note_on", "time": 3, "note": 71, "velocity": 83, "channel": 0}, {"type": "note_off", "time": 72, "note": 71, "velocity": 83, "channel": 0}, {"type": "note_on", "time": 36, "note": 69, "velocity": 96, "channel": 0}, {"type": "note_off", "time": 66, "note": 69, "velocity": 96, "channel": 0}, {"type": "note_on", "time": 15, "note": 68, "velocity": 90, "channel": 0}, {"type": "note_off", "time": 82, "note": 68, "velocity": 90, "channel": 0}, {"type": "note_on", "time": 36, "note": 65, "velocity": 81, "channel": 0}, {"type": "note_off", "time": 66, "note": 65, "velocity": 81, "channel": 0}, {"type": "note_on", "time": 7, "note": 67, "velocity": 77, "channel": 0}, {"type": "note_off", "time": 56, "note": 67, "velocity": 77, "channel": 0}, {"type": "note_on", "time": 59, "note": 69, "velocity": 92, "channel": 0}, {"type": "note_off", "time": 50, "note": 69, "velocity": 92, "channel": 0}, {"type": "note_on", "time": 39, "note": 71, "velocity": 88, "channel": 0}, {"type": "note_off", "time": 60, "note": 71, "velocity": 88, "channel": 0}, {"type": "note_on", "time": 24, "note": 72, "velocity": 89, "channel": 0}, {"type": "note_off", "time": 47, "note": 72, "velocity": 89, "channel": 0}, {"type": "note_on", "time": 19, "note": 74, "velocity": 82, "channel": 0}, {"type": "note_off", "time": 100, "note": 74, "velocity": 82, "channel": 0}, {"type": "note_on", "time": 39, "note": 76, "velocity": 97, "channel": 0}, {"type": "note_off", "time": 60, "note": 76, "velocity": 97, "channel": 0}, {"type": "note_on", "time": 28, "note": 78, "velocity": 78, "channel": 0}, {"type": "note_off", "time": 69, "note": 78, "velocity": 78, "channel": 0}, {"type": "note_on", "time": 47, "note": 79, "velocity": 89, "channel": 0}, {"type": "note_off", "time": 57, "note": 79, "velocity": 89, "channel": 0}, {"type": "note_on", "time": 22, "note": 81, "velocity": 93, "channel": 0}, {"type": "note_off", "time": 86, "note": 81, "velocity": 93, "channel": 0}, {"type": "note_on", "time": 12, "note": 78, "velocity": 82, "channel": 0}, {"type": "note_off", "time": 44, "note": 78, "velocity": 82, "channel": 0}, {"type": "note_on", "time": 27, "note": 79, "velocity": 86, "channel": 0}, {"type": "note_off", "time": 71, "note": 79, "velocity": 86, "channel": 0}, {"type": "note_on", "time": 27, "note": 76, "velocity": 91, "channel": 0}, {"type": "note_off", "time": 79, "note": 76, "velocity": 91, "channel": 0}, {"type": "note_on", "time": 18, "note": 77, "velocity": 72, "channel": 0}, {"type": "note_off", "time": 80, "note": 77, "velocity": 72, "channel": 0}, {"type": "note_on", "time": 22, "note": 74, "velocity": 95, "channel": 0}, {"type": "note_off", "time": 74, "note": 74, "velocity": 95, "channel": 0}, {"type": "note_on", "time": 9, "note": 75, "velocity": 90, "channel": 0}, {"type": "note_off", "time": 66, "note": 75, "velocity": 90, "channel": 0}, {"type": "note_on", "time": 57, "note": 65, "velocity": 87, "channel": 0}, {"type": "note_off", "time": 34, "note": 65, "velocity": 87, "channel": 0}, {"type": "note_on", "time": 19, "note": 71, "velocity": 93, "channel": 0}, {"type": "note_off", "time": 80, "note": 71, "velocity": 93, "channel": 0}, {"type": "note_on", "time": 50, "note": 74, "velocity": 95, "channel": 0}, {"type": "note_off", "time": 62, "note": 74, "velocity": 95, "channel": 0}, {"type": "note_on", "time": 9, "note": 72, "velocity": 87, "channel": 0}, {"type": "note_off", "time": 65, "note": 72, "velocity": 87, "channel": 0}, {"type": "note_on", "time": 27, "note": 70, "velocity": 95, "channel": 0}, {"type": "note_off", "time": 74, "note": 70, "velocity": 95, "channel": 0}, {"type": "note_on", "time": 1, "note": 69, "velocity": 91, "channel": 0}, {"type": "note_off", "time": 72, "note": 69, "velocity": 91, "channel": 0}, {"type": "note_on", "time": 44, "note": 67, "velocity": 92, "channel": 0}, {"type": "note_off", "time": 82, "note": 67, "velocity": 92, "channel": 0}, {"type": "note_on", "time": 10, "note": 65, "velocity": 93, "channel": 0}, {"type": "note_off", "time": 69, "note": 65, "velocity": 93, "channel": 0}, {"type": "note_on", "time": 25, "note": 64, "velocity": 92, "channel": 0}, {"type": "note_off", "time": 65, "note": 64, "velocity": 92, "channel": 0}, {"type": "note_on", "time": 9, "note": 63, "velocity": 81, "channel": 0}, {"type": "note_off", "time": 39, "note": 63, "velocity": 81, "channel": 0}, {"type": "note_on", "time": 18, "note": 65, "velocity": 88, "channel": 0}, {"type": "note_off", "time": 71, "note": 65, "velocity": 88, "channel": 0}, {"type": "note_on", "time": 24, "note": 63, "velocity": 95, "channel": 0}, {"type": "note_off", "time": 47, "note": 63, "velocity": 95, "channel": 0}, {"type": "note_on", "time": 21, "note": 62, "velocity": 86, "channel": 0}, {"type": "note_off", "time": 88, "note": 62, "velocity": 86, "channel": 0}, {"type": "note_on", "time": 24, "note": 60, "velocity": 91, "channel": 0}, {"type": "note_off", "time": 68, "note": 60, "velocity": 91, "channel": 0}, {"type": "note_on", "time": 28, "note": 59, "velocity": 82, "channel": 0}, {"type": "note_off", "time": 59, "note": 59, "velocity": 82, "channel": 0}, {"type": "note_on", "time": 33, "note": 57, "velocity": 78, "channel": 0}, {"type": "note_off", "time": 78, "note": 57, "velocity": 78, "channel": 0}, {"type": "note_on", "time": 15, "note": 58, "velocity": 87, "channel": 0}, {"type": "note_off", "time": 71, "note": 58, "velocity": 87, "channel": 0}, {"type": "note_on", "time": 34, "note": 60, "velocity": 85, "channel": 0}, {"type": "note_off", "time": 78, "note": 60, "velocity": 85, "channel": 0}, {"type": "note_on", "time": 5, "note": 62, "velocity": 86, "channel": 0}, {"type": "note_off", "time": 66, "note": 62, "velocity": 86, "channel": 0}, {"type": "note_on", "time": 25, "note": 63, "velocity": 85, "channel": 0}, {"type": "note_off", "time": 59, "note": 63, "velocity": 85, "channel": 0}, {"type": "note_on", "time": 4, "note": 65, "velocity": 95, "channel": 0}, {"type": "note_off", "time": 140, "note": 65, "velocity": 95, "channel": 0}, {"type": "note_on", "time": 32, "note": 58, "velocity": 78, "channel": 0}, {"type": "note_off", "time": 232, "note": 58, "velocity": 78, "channel": 0}, {"type": "note_on", "time": 405, "note": 62, "velocity": 76, "channel": 0}, {"type": "note_off", "time": 133, "note": 62, "velocity": 76, "channel": 0}, {"type": "note_on", "time": 4, "note": 65, "velocity": 80, "channel": 0}, {"type": "note_off", "time": 121, "note": 65, "velocity": 80, "channel": 0}, {"type": "note_on", "time": 10, "note": 68, "velocity": 102, "channel": 0}, {"type": "note_off", "time": 64, "note": 68, "velocity": 102, "channel": 0}, {"type": "note_on", "time": 7, "note": 67, "velocity": 95, "channel": 0}, {"type": "note_off", "time": 68, "note": 67, "velocity": 95, "channel": 0}, {"type": "note_on", "time": 52, "note": 63, "velocity": 90, "channel": 0}, {"type": "note_off", "time": 83, "note": 63, "velocity": 90, "channel": 0}, {"type": "note_on", "time": 4, "note": 60, "velocity": 78, "channel": 0}, {"type": "note_off", "time": 83, "note": 60, "velocity": 78, "channel": 0}, {"type": "note_on", "time": 34, "note": 57, "velocity": 76, "channel": 0}, {"type": "note_off", "time": 68, "note": 57, "velocity": 76, "channel": 0}, {"type": "note_on", "time": 6, "note": 58, "velocity": 92, "channel": 0}, {"type": "note_off", "time": 123, "note": 58, "velocity": 92, "channel": 0}, {"type": "note_on", "time": 485, "note": 57, "velocity": 81, "channel": 0}, {"type": "note_off", "time": 102, "note": 57, "velocity": 81, "channel": 0}, {"type": "note_on", "time": 15, "note": 58, "velocity": 72, "channel": 0}, {"type": "note_off", "time": 79, "note": 58, "velocity": 72, "channel": 0}, {"type": "note_on", "time": 98, "note": 63, "velocity": 94, "channel": 0}, {"type": "note_off", "time": 63, "note": 63, "velocity": 94, "channel": 0}, {"type": "note_on", "time": 0, "note": 66, "velocity": 86, "channel": 0}, {"type": "note_off", "time": 95, "note": 66, "velocity": 86, "channel": 0}, {"type": "note_on", "time": 4, "note": 65, "velocity": 100, "channel": 0}, {"type": "note_off", "time": 95, "note": 65, "velocity": 100, "channel": 0}, {"type": "note_on", "time": 3, "note": 62, "velocity": 80, "channel": 0}, {"type": "note_off", "time": 77, "note": 62, "velocity": 80, "channel": 0}, {"type": "note_on", "time": 44, "note": 58, "velocity": 87, "channel": 0}, {"type": "note_off", "time": 53, "note": 58, "velocity": 87, "channel": 0}, {"type": "note_on", "time": 36, "note": 63, "velocity": 96, "channel": 0}, {"type": "note_off", "time": 95, "note": 63, "velocity": 96, "channel": 0}, {"type": "note_on", "time": 4, "note": 62, "velocity": 90, "channel": 0}, {"type": "note_off", "time": 60, "note": 62, "velocity": 90, "channel": 0}, {"type": "note_on", "time": 153, "note": 53, "velocity": 80, "channel": 0}, {"type": "note_off", "time": 367, "note": 53, "velocity": 80, "channel": 0}, {"type": "note_on", "time": 1012, "note": 70, "velocity": 92, "channel": 0}, {"type": "note_off", "time": 71, "note": 70, "velocity": 92, "channel": 0}, {"type": "note_on", "time": 16, "note": 74, "velocity": 100, "channel": 0}, {"type": "note_off", "time": 80, "note": 74, "velocity": 100, "channel": 0}, {"type": "note_on", "time": 25, "note": 74, "velocity": 105, "channel": 0}, {"type": "note_off", "time": 79, "note": 74, "velocity": 105, "channel": 0}, {"type": "note_on", "time": 27, "note": 74, "velocity": 103, "channel": 0}, {"type": "note_off", "time": 81, "note": 74, "velocity": 103, "channel": 0}, {"type": "note_on", "time": 21, "note": 73, "velocity": 95, "channel": 0}, {"type": "note_off", "time": 67, "note": 73, "velocity": 95, "channel": 0}, {"type": "note_on", "time": 0, "note": 74, "velocity": 98, "channel": 0}, {"type": "note_off", "time": 89, "note": 74, "velocity": 98, "channel": 0}, {"type": "note_on", "time": 18, "note": 74, "velocity": 98, "channel": 0}, {"type": "note_off", "time": 91, "note": 74, "velocity": 98, "channel": 0}, {"type": "note_on", "time": 18, "note": 74, "velocity": 102, "channel": 0}, {"type": "note_off", "time": 89, "note": 74, "velocity": 102, "channel": 0}, {"type": "note_on", "time": 14, "note": 73, "velocity": 96, "channel": 0}, {"type": "note_off", "time": 77, "note": 73, "velocity": 96, "channel": 0}, {"type": "note_on", "time": 18, "note": 74, "velocity": 96, "channel": 0}, {"type": "note_off", "time": 72, "note": 74, "velocity": 96, "channel": 0}, {"type": "note_on", "time": 24, "note": 74, "velocity": 103, "channel": 0}, {"type": "note_off", "time": 75, "note": 74, "velocity": 103, "channel": 0}, {"type": "note_on", "time": 24, "note": 74, "velocity": 99, "channel": 0}, {"type": "note_off", "time": 91, "note": 74, "velocity": 99, "channel": 0}, {"type": "note_on", "time": 10, "note": 73, "velocity": 101, "channel": 0}, {"type": "note_off", "time": 94, "note": 73, "velocity": 101, "channel": 0}, {"type": "note_on", "time": 6, "note": 74, "velocity": 87, "channel": 0}, {"type": "note_off", "time": 50, "note": 74, "velocity": 87, "channel": 0}, {"type": "note_on", "time": 800, "note": 72, "velocity": 98, "channel": 0}, {"type": "note_off", "time": 87, "note": 72, "velocity": 98, "channel": 0}, {"type": "note_on", "time": 11, "note": 73, "velocity": 103, "channel": 0}, {"type": "note_off", "time": 83, "note": 73, "velocity": 103, "channel": 0}, {"type": "note_on", "time": 5, "note": 76, "velocity": 96, "channel": 0}, {"type": "note_off", "time": 101, "note": 76, "velocity": 96, "channel": 0}, {"type": "note_on", "time": 12, "note": 73, "velocity": 95, "channel": 0}, {"type": "note_off", "time": 65, "note": 73, "velocity": 95, "channel": 0}, {"type": "note_on", "time": 7, "note": 74, "velocity": 95, "channel": 0}, {"type": "note_off", "time": 112, "note": 74, "velocity": 95, "channel": 0}, {"type": "note_on", "time": 6, "note": 72, "velocity": 100, "channel": 0}, {"type": "note_off", "time": 76, "note": 72, "velocity": 100, "channel": 0}, {"type": "note_on", "time": 12, "note": 71, "velocity": 89, "channel": 0}, {"type": "note_off", "time": 83, "note": 71, "velocity": 89, "channel": 0}, {"type": "note_on", "time": 13, "note": 69, "velocity": 94, "channel": 0}, {"type": "note_off", "time": 92, "note": 69, "velocity": 94, "channel": 0}, {"type": "note_on", "time": 3, "note": 67, "velocity": 88, "channel": 0}, {"type": "note_off", "time": 102, "note": 67, "velocity": 88, "channel": 0}, {"type": "note_on", "time": 13, "note": 66, "velocity": 96, "channel": 0}, {"type": "note_off", "time": 82, "note": 66, "velocity": 96, "channel": 0}, {"type": "note_on", "time": 12, "note": 64, "velocity": 90, "channel": 0}, {"type": "note_off", "time": 72, "note": 64, "velocity": 90, "channel": 0}, {"type": "note_on", "time": 5, "note": 62, "velocity": 81, "channel": 0}, {"type": "note_off", "time": 79, "note": 62, "velocity": 81, "channel": 0}, {"type": "note_on", "time": 3, "note": 63, "velocity": 83, "channel": 0}, {"type": "note_off", "time": 79, "note": 63, "velocity": 83, "channel": 0}, {"type": "note_on", "time": 25, "note": 66, "velocity": 82, "channel": 0}, {"type": "note_off", "time": 60, "note": 66, "velocity": 82, "channel": 0}, {"type": "note_on", "time": 15, "note": 69, "velocity": 87, "channel": 0}, {"type": "note_off", "time": 63, "note": 69, "velocity": 87, "channel": 0}, {"type": "note_on", "time": 22, "note": 72, "velocity": 94, "channel": 0}, {"type": "note_off", "time": 103, "note": 72, "velocity": 94, "channel": 0}, {"type": "note_on", "time": 15, "note": 69, "velocity": 83, "channel": 0}, {"type": "note_off", "time": 72, "note": 69, "velocity": 83, "channel": 0}, {"type": "note_on", "time": 11, "note": 70, "velocity": 82, "channel": 0}, {"type": "note_off", "time": 91, "note": 70, "velocity": 82, "channel": 0}, {"type": "note_on", "time": 11, "note": 71, "velocity": 94, "channel": 0}, {"type": "note_off", "time": 102, "note": 71, "velocity": 94, "channel": 0}, {"type": "note_on", "time": 5, "note": 69, "velocity": 85, "channel": 0}, {"type": "note_off", "time": 62, "note": 69, "velocity": 85, "channel": 0}, {"type": "note_on", "time": 4, "note": 66, "velocity": 80, "channel": 0}, {"type": "note_off", "time": 60, "note": 66, "velocity": 80, "channel": 0}, {"type": "note_on", "time": 19, "note": 65, "velocity": 73, "channel": 0}, {"type": "note_off", "time": 83, "note": 65, "velocity": 73, "channel": 0}, {"type": "note_on", "time": 2, "note": 68, "velocity": 82, "channel": 0}, {"type": "note_off", "time": 129, "note": 68, "velocity": 82, "channel": 0}, {"type": "note_on", "time": 24, "note": 66, "velocity": 69, "channel": 0}, {"type": "note_off", "time": 64, "note": 66, "velocity": 69, "channel": 0}, {"type": "note_on", "time": 11, "note": 67, "velocity": 84, "channel": 0}, {"type": "note_off", "time": 76, "note": 67, "velocity": 84, "channel": 0}, {"type": "note_on", "time": 41, "note": 64, "velocity": 79, "channel": 0}, {"type": "note_off", "time": 68, "note": 64, "velocity": 79, "channel": 0}, {"type": "note_on", "time": 26, "note": 66, "velocity": 87, "channel": 0}, {"type": "note_off", "time": 64, "note": 66, "velocity": 87, "channel": 0}, {"type": "note_on", "time": 12, "note": 67, "velocity": 84, "channel": 0}, {"type": "note_off", "time": 59, "note": 67, "velocity": 84, "channel": 0}, {"type": "note_on", "time": 16, "note": 69, "velocity": 94, "channel": 0}, {"type": "note_off", "time": 45, "note": 69, "velocity": 94, "channel": 0}, {"type": "note_on", "time": 10, "note": 71, "velocity": 94, "channel": 0}, {"type": "note_off", "time": 48, "note": 71, "velocity": 94, "channel": 0}, {"type": "note_on", "time": 3, "note": 72, "velocity": 95, "channel": 0}, {"type": "note_off", "time": 49, "note": 72, "velocity": 95, "channel": 0}, {"type": "note_on", "time": 3, "note": 74, "velocity": 97, "channel": 0}, {"type": "note_off", "time": 79, "note": 74, "velocity": 97, "channel": 0}, {"type": "note_on", "time": 297, "note": 72, "velocity": 92, "channel": 0}, {"type": "note_off", "time": 48, "note": 72, "velocity": 92, "channel": 0}, {"type": "note_on", "time": 5, "note": 73, "velocity": 100, "channel": 0}, {"type": "note_off", "time": 40, "note": 73, "velocity": 100, "channel": 0}, {"type": "note_on", "time": 7, "note": 72, "velocity": 98, "channel": 0}, {"type": "note_off", "time": 72, "note": 72, "velocity": 98, "channel": 0}, {"type": "note_on", "time": 3, "note": 71, "velocity": 100, "channel": 0}, {"type": "note_off", "time": 77, "note": 71, "velocity": 100, "channel": 0}, {"type": "note_on", "time": 69, "note": 69, "velocity": 88, "channel": 0}, {"type": "note_off", "time": 74, "note": 69, "velocity": 88, "channel": 0}, {"type": "note_on", "time": 0, "note": 66, "velocity": 96, "channel": 0}, {"type": "note_off", "time": 168, "note": 66, "velocity": 96, "channel": 0}, {"type": "note_on", "time": 22, "note": 69, "velocity": 93, "channel": 0}, {"type": "note_off", "time": 110, "note": 69, "velocity": 93, "channel": 0}, {"type": "note_on", "time": 15, "note": 66, "velocity": 96, "channel": 0}, {"type": "note_off", "time": 65, "note": 66, "velocity": 96, "channel": 0}, {"type": "note_on", "time": 17, "note": 64, "velocity": 79, "channel": 0}, {"type": "note_off", "time": 353, "note": 64, "velocity": 79, "channel": 0}, {"type": "note_on", "time": 614, "note": 74, "velocity": 88, "channel": 0}, {"type": "note_off", "time": 115, "note": 74, "velocity": 88, "channel": 0}, {"type": "note_on", "time": 49, "note": 78, "velocity": 92, "channel": 0}, {"type": "note_off", "time": 114, "note": 78, "velocity": 92, "channel": 0}, {"type": "note_on", "time": 8, "note": 79, "velocity": 98, "channel": 0}, {"type": "note_off", "time": 153, "note": 79, "velocity": 98, "channel": 0}, {"type": "note_on", "time": 875, "note": 81, "velocity": 63, "channel": 0}, {"type": "note_off", "time": 79, "note": 81, "velocity": 63, "channel": 0}, {"type": "note_on", "time": 9, "note": 80, "velocity": 106, "channel": 0}, {"type": "note_off", "time": 42, "note": 80, "velocity": 106, "channel": 0}, {"type": "note_on", "time": 9, "note": 79, "velocity": 104, "channel": 0}, {"type": "note_off", "time": 110, "note": 79, "velocity": 104, "channel": 0}, {"type": "note_on", "time": 59, "note": 76, "velocity": 95, "channel": 0}, {"type": "note_off", "time": 98, "note": 76, "velocity": 95, "channel": 0}, {"type": "note_on", "time": 7, "note": 74, "velocity": 102, "channel": 0}, {"type": "note_off", "time": 109, "note": 74, "velocity": 102, "channel": 0}, {"type": "note_on", "time": 9, "note": 73, "velocity": 100, "channel": 0}, {"type": "note_off", "time": 91, "note": 73, "velocity": 100, "channel": 0}, {"type": "note_on", "time": 4, "note": 72, "velocity": 93, "channel": 0}, {"type": "note_off", "time": 74, "note": 72, "velocity": 93, "channel": 0}, {"type": "note_on", "time": 6, "note": 71, "velocity": 93, "channel": 0}, {"type": "note_off", "time": 88, "note": 71, "velocity": 93, "channel": 0}, {"type": "note_on", "time": 9, "note": 70, "velocity": 91, "channel": 0}, {"type": "note_off", "time": 71, "note": 70, "velocity": 91, "channel": 0}, {"type": "note_on", "time": 10, "note": 69, "velocity": 92, "channel": 0}, {"type": "note_off", "time": 80, "note": 69, "velocity": 92, "channel": 0}, {"type": "note_on", "time": 1, "note": 67, "velocity": 88, "channel": 0}, {"type": "note_off", "time": 88, "note": 67, "velocity": 88, "channel": 0}, {"type": "note_on", "time": 34, "note": 66, "velocity": 83, "channel": 0}, {"type": "note_off", "time": 47, "note": 66, "velocity": 83, "channel": 0}, {"type": "note_on", "time": 13, "note": 69, "velocity": 93, "channel": 0}, {"type": "note_off", "time": 120, "note": 69, "velocity": 93, "channel": 0}, {"type": "note_on", "time": 19, "note": 66, "velocity": 83, "channel": 0}, {"type": "note_off", "time": 27, "note": 66, "velocity": 83, "channel": 0}, {"type": "note_on", "time": 4, "note": 67, "velocity": 89, "channel": 0}, {"type": "note_off", "time": 109, "note": 67, "velocity": 89, "channel": 0}, {"type": "note_on", "time": 13, "note": 62, "velocity": 90, "channel": 0}, {"type": "note_off", "time": 76, "note": 62, "velocity": 90, "channel": 0}, {"type": "note_on", "time": 13, "note": 60, "velocity": 87, "channel": 0}, {"type": "note_off", "time": 81, "note": 60, "velocity": 87, "channel": 0}, {"type": "note_on", "time": 10, "note": 59, "velocity": 85, "channel": 0}, {"type": "note_off", "time": 86, "note": 59, "velocity": 85, "channel": 0}, {"type": "note_on", "time": 21, "note": 58, "velocity": 86, "channel": 0}, {"type": "note_off", "time": 59, "note": 58, "velocity": 86, "channel": 0}, {"type": "note_on", "time": 30, "note": 56, "velocity": 74, "channel": 0}, {"type": "note_off", "time": 79, "note": 56, "velocity": 74, "channel": 0}, {"type": "note_on", "time": 9, "note": 57, "velocity": 92, "channel": 0}, {"type": "note_off", "time": 85, "note": 57, "velocity": 92, "channel": 0}, {"type": "note_on", "time": 0, "note": 54, "velocity": 78, "channel": 0}, {"type": "note_off", "time": 98, "note": 54, "velocity": 78, "channel": 0}, {"type": "note_on", "time": 3, "note": 55, "velocity": 82, "channel": 0}, {"type": "note_off", "time": 71, "note": 55, "velocity": 82, "channel": 0}, {"type": "note_on", "time": 26, "note": 57, "velocity": 83, "channel": 0}, {"type": "note_off", "time": 85, "note": 57, "velocity": 83, "channel": 0}, {"type": "note_on", "time": 3, "note": 58, "velocity": 83, "channel": 0}, {"type": "note_off", "time": 114, "note": 58, "velocity": 83, "channel": 0}, {"type": "note_on", "time": 0, "note": 60, "velocity": 82, "channel": 0}, {"type": "note_off", "time": 68, "note": 60, "velocity": 82, "channel": 0}, {"type": "note_on", "time": 9, "note": 62, "velocity": 83, "channel": 0}, {"type": "note_off", "time": 79, "note": 62, "velocity": 83, "channel": 0}, {"type": "note_on", "time": 24, "note": 64, "velocity": 82, "channel": 0}, {"type": "note_off", "time": 79, "note": 64, "velocity": 82, "channel": 0}, {"type": "note_on", "time": 16, "note": 69, "velocity": 94, "channel": 0}, {"type": "note_off", "time": 54, "note": 69, "velocity": 94, "channel": 0}, {"type": "note_on", "time": 4, "note": 67, "velocity": 88, "channel": 0}, {"type": "note_off", "time": 51, "note": 67, "velocity": 88, "channel": 0}, {"type": "note_on", "time": 15, "note": 64, "velocity": 85, "channel": 0}, {"type": "note_off", "time": 59, "note": 64, "velocity": 85, "channel": 0}, {"type": "note_on", "time": 15, "note": 69, "velocity": 98, "channel": 0}, {"type": "note_off", "time": 86, "note": 69, "velocity": 98, "channel": 0}, {"type": "note_on", "time": 47, "note": 67, "velocity": 88, "channel": 0}, {"type": "note_off", "time": 110, "note": 67, "velocity": 88, "channel": 0}, {"type": "note_on", "time": 77, "note": 67, "velocity": 97, "channel": 0}, {"type": "note_off", "time": 51, "note": 67, "velocity": 97, "channel": 0}, {"type": "note_on", "time": 27, "note": 63, "velocity": 86, "channel": 0}, {"type": "note_off", "time": 133, "note": 63, "velocity": 86, "channel": 0}, {"type": "note_on", "time": 439, "note": 60, "velocity": 72, "channel": 0}, {"type": "note_off", "time": 72, "note": 60, "velocity": 72, "channel": 0}, {"type": "note_on", "time": 7, "note": 62, "velocity": 85, "channel": 0}, {"type": "note_off", "time": 87, "note": 62, "velocity": 85, "channel": 0}, {"type": "note_on", "time": 19, "note": 63, "velocity": 84, "channel": 0}, {"type": "note_off", "time": 87, "note": 63, "velocity": 84, "channel": 0}, {"type": "note_on", "time": 11, "note": 65, "velocity": 83, "channel": 0}, {"type": "note_off", "time": 79, "note": 65, "velocity": 83, "channel": 0}, {"type": "note_on", "time": 4, "note": 67, "velocity": 97, "channel": 0}, {"type": "note_off", "time": 69, "note": 67, "velocity": 97, "channel": 0}, {"type": "note_on", "time": 28, "note": 63, "velocity": 81, "channel": 0}, {"type": "note_off", "time": 68, "note": 63, "velocity": 81, "channel": 0}, {"type": "note_on", "time": 15, "note": 62, "velocity": 81, "channel": 0}, {"type": "note_off", "time": 72, "note": 62, "velocity": 81, "channel": 0}, {"type": "note_on", "time": 22, "note": 60, "velocity": 72, "channel": 0}, {"type": "note_off", "time": 72, "note": 60, "velocity": 72, "channel": 0}, {"type": "note_on", "time": 24, "note": 65, "velocity": 97, "channel": 0}, {"type": "note_on", "time": 126, "note": 63, "velocity": 90, "channel": 0}, {"type": "note_off", "time": 0, "note": 65, "velocity": 97, "channel": 0}, {"type": "note_off", "time": 83, "note": 63, "velocity": 90, "channel": 0}, {"type": "note_on", "time": 7, "note": 62, "velocity": 89, "channel": 0}, {"type": "note_off", "time": 79, "note": 62, "velocity": 89, "channel": 0}, {"type": "note_on", "time": 22, "note": 60, "velocity": 81, "channel": 0}, {"type": "note_off", "time": 95, "note": 60, "velocity": 81, "channel": 0}, {"type": "note_on", "time": 11, "note": 59, "velocity": 74, "channel": 0}, {"type": "note_off", "time": 68, "note": 59, "velocity": 74, "channel": 0}, {"type": "note_on", "time": 697, "note": 74, "velocity": 74, "channel": 0}, {"type": "note_off", "time": 71, "note": 74, "velocity": 74, "channel": 0}, {"type": "note_on", "time": 1, "note": 73, "velocity": 104, "channel": 0}, {"type": "note_off", "time": 83, "note": 73, "velocity": 104, "channel": 0}, {"type": "note_on", "time": 3, "note": 72, "velocity": 96, "channel": 0}, {"type": "note_off", "time": 45, "note": 72, "velocity": 96, "channel": 0}, {"type": "note_on", "time": 2, "note": 71, "velocity": 89, "channel": 0}, {"type": "note_off", "time": 83, "note": 71, "velocity": 89, "channel": 0}, {"type": "note_on", "time": 11, "note": 69, "velocity": 97, "channel": 0}, {"type": "note_off", "time": 59, "note": 69, "velocity": 97, "channel": 0}, {"type": "note_on", "time": 18, "note": 68, "velocity": 82, "channel": 0}, {"type": "note_off", "time": 98, "note": 68, "velocity": 82, "channel": 0}, {"type": "note_on", "time": 10, "note": 71, "velocity": 75, "channel": 0}, {"type": "note_off", "time": 62, "note": 71, "velocity": 75, "channel": 0}, {"type": "note_on", "time": 11, "note": 74, "velocity": 95, "channel": 0}, {"type": "note_off", "time": 100, "note": 74, "velocity": 95, "channel": 0}, {"type": "note_on", "time": 10, "note": 76, "velocity": 99, "channel": 0}, {"type": "note_off", "time": 81, "note": 76, "velocity": 99, "channel": 0}, {"type": "note_on", "time": 2, "note": 77, "velocity": 102, "channel": 0}, {"type": "note_off", "time": 97, "note": 77, "velocity": 102, "channel": 0}, {"type": "note_on", "time": 300, "note": 77, "velocity": 107, "channel": 0}, {"type": "note_off", "time": 75, "note": 77, "velocity": 107, "channel": 0}, {"type": "note_on", "time": 8, "note": 76, "velocity": 106, "channel": 0}, {"type": "note_off", "time": 81, "note": 76, "velocity": 106, "channel": 0}, {"type": "note_on", "time": 2, "note": 74, "velocity": 98, "channel": 0}, {"type": "note_off", "time": 102, "note": 74, "velocity": 98, "channel": 0}, {"type": "note_on", "time": 13, "note": 73, "velocity": 102, "channel": 0}, {"type": "note_off", "time": 86, "note": 73, "velocity": 102, "channel": 0}, {"type": "note_on", "time": 2, "note": 72, "velocity": 99, "channel": 0}, {"type": "note_off", "time": 66, "note": 72, "velocity": 99, "channel": 0}, {"type": "note_on", "time": 79, "note": 63, "velocity": 83, "channel": 0}, {"type": "note_off", "time": 64, "note": 63, "velocity": 83, "channel": 0}, {"type": "note_on", "time": 8, "note": 64, "velocity": 83, "channel": 0}, {"type": "note_off", "time": 62, "note": 64, "velocity": 83, "channel": 0}, {"type": "note_on", "time": 16, "note": 67, "velocity": 81, "channel": 0}, {"type": "note_off", "time": 59, "note": 67, "velocity": 81, "channel": 0}, {"type": "note_on", "time": 0, "note": 71, "velocity": 98, "channel": 0}, {"type": "note_off", "time": 86, "note": 71, "velocity": 98, "channel": 0}, {"type": "note_on", "time": 32, "note": 69, "velocity": 96, "channel": 0}, {"type": "note_off", "time": 94, "note": 69, "velocity": 96, "channel": 0}, {"type": "note_on", "time": 8, "note": 66, "velocity": 88, "channel": 0}, {"type": "note_off", "time": 91, "note": 66, "velocity": 88, "channel": 0}, {"type": "note_on", "time": 46, "note": 63, "velocity": 75, "channel": 0}, {"type": "note_off", "time": 44, "note": 63, "velocity": 75, "channel": 0}, {"type": "note_on", "time": 9, "note": 67, "velocity": 95, "channel": 0}, {"type": "note_off", "time": 121, "note": 67, "velocity": 95, "channel": 0}, {"type": "note_on", "time": 13, "note": 62, "velocity": 89, "channel": 0}, {"type": "note_off", "time": 94, "note": 62, "velocity": 89, "channel": 0}, {"type": "note_on", "time": 939, "note": 81, "velocity": 114, "channel": 0}, {"type": "note_off", "time": 188, "note": 81, "velocity": 114, "channel": 0}, {"type": "note_on", "time": 18, "note": 81, "velocity": 109, "channel": 0}, {"type": "note_off", "time": 98, "note": 81, "velocity": 109, "channel": 0}, {"type": "note_on", "time": 16, "note": 81, "velocity": 110, "channel": 0}, {"type": "note_off", "time": 48, "note": 81, "velocity": 110, "channel": 0}, {"type": "note_on", "time": 27, "note": 81, "velocity": 107, "channel": 0}, {"type": "note_off", "time": 179, "note": 81, "velocity": 107, "channel": 0}, {"type": "note_on", "time": 18, "note": 81, "velocity": 103, "channel": 0}, {"type": "note_off", "time": 79, "note": 81, "velocity": 103, "channel": 0}, {"type": "note_on", "time": 26, "note": 81, "velocity": 103, "channel": 0}, {"type": "note_off", "time": 67, "note": 81, "velocity": 103, "channel": 0}, {"type": "note_on", "time": 26, "note": 81, "velocity": 103, "channel": 0}, {"type": "note_off", "time": 167, "note": 81, "velocity": 103, "channel": 0}, {"type": "note_on", "time": 24, "note": 81, "velocity": 101, "channel": 0}, {"type": "note_off", "time": 76, "note": 81, "velocity": 101, "channel": 0}, {"type": "note_on", "time": 11, "note": 81, "velocity": 101, "channel": 0}, {"type": "note_off", "time": 70, "note": 81, "velocity": 101, "channel": 0}, {"type": "note_on", "time": 18, "note": 81, "velocity": 101, "channel": 0}, {"type": "note_off", "time": 220, "note": 81, "velocity": 101, "channel": 0}, {"type": "note_on", "time": 6, "note": 81, "velocity": 97, "channel": 0}, {"type": "note_off", "time": 54, "note": 81, "velocity": 97, "channel": 0}, {"type": "note_on", "time": 19, "note": 81, "velocity": 103, "channel": 0}, {"type": "note_off", "time": 88, "note": 81, "velocity": 103, "channel": 0}, {"type": "note_on", "time": 36, "note": 81, "velocity": 105, "channel": 0}, {"type": "note_off", "time": 138, "note": 81, "velocity": 105, "channel": 0}, {"type": "note_on", "time": 14, "note": 81, "velocity": 100, "channel": 0}, {"type": "note_off", "time": 51, "note": 81, "velocity": 100, "channel": 0}, {"type": "note_on", "time": 16, "note": 81, "velocity": 103, "channel": 0}, {"type": "note_off", "time": 67, "note": 81, "velocity": 103, "channel": 0}, {"type": "note_on", "time": 15, "note": 81, "velocity": 101, "channel": 0}, {"type": "note_off", "time": 148, "note": 81, "velocity": 101, "channel": 0}, {"type": "note_on", "time": 44, "note": 79, "velocity": 95, "channel": 0}, {"type": "note_off", "time": 76, "note": 79, "velocity": 95, "channel": 0}, {"type": "note_on", "time": 174, "note": 78, "velocity": 93, "channel": 0}, {"type": "note_off", "time": 83, "note": 78, "velocity": 93, "channel": 0}, {"type": "note_on", "time": 130, "note": 76, "velocity": 93, "channel": 0}, {"type": "note_off", "time": 115, "note": 76, "velocity": 93, "channel": 0}, {"type": "note_on", "time": 25, "note": 74, "velocity": 103, "channel": 0}, {"type": "note_off", "time": 60, "note": 74, "velocity": 103, "channel": 0}, {"type": "note_on", "time": 98, "note": 74, "velocity": 98, "channel": 0}, {"type": "note_off", "time": 65, "note": 74, "velocity": 98, "channel": 0}, {"type": "note_on", "time": 30, "note": 69, "velocity": 92, "channel": 0}, {"type": "note_off", "time": 107, "note": 69, "velocity": 92, "channel": 0}, {"type": "note_on", "time": 7, "note": 67, "velocity": 74, "channel": 0}, {"type": "note_off", "time": 36, "note": 67, "velocity": 74, "channel": 0}, {"type": "note_on", "time": 28, "note": 69, "velocity": 101, "channel": 0}, {"type": "note_off", "time": 104, "note": 69, "velocity": 101, "channel": 0}, {"type": "note_on", "time": 12, "note": 67, "velocity": 96, "channel": 0}, {"type": "note_off", "time": 66, "note": 67, "velocity": 96, "channel": 0}, {"type": "note_on", "time": 117, "note": 67, "velocity": 99, "channel": 0}, {"type": "note_off", "time": 71, "note": 67, "velocity": 99, "channel": 0}, {"type": "note_on", "time": 8, "note": 62, "velocity": 89, "channel": 0}, {"type": "note_off", "time": 121, "note": 62, "velocity": 89, "channel": 0}, {"type": "note_on", "time": 93, "note": 62, "velocity": 95, "channel": 0}, {"type": "note_off", "time": 95, "note": 62, "velocity": 95, "channel": 0}, {"type": "note_on", "time": 10, "note": 64, "velocity": 97, "channel": 0}, {"type": "note_off", "time": 105, "note": 64, "velocity": 97, "channel": 0}, {"type": "note_on", "time": 46, "note": 64, "velocity": 98, "channel": 0}, {"type": "note_off", "time": 95, "note": 64, "velocity": 98, "channel": 0}, {"type": "note_on", "time": 0, "note": 58, "velocity": 90, "channel": 0}, {"type": "note_off", "time": 97, "note": 58, "velocity": 90, "channel": 0}, {"type": "note_on", "time": 105, "note": 58, "velocity": 97, "channel": 0}, {"type": "note_off", "time": 116, "note": 58, "velocity": 97, "channel": 0}, {"type": "note_on", "time": 8, "note": 57, "velocity": 89, "channel": 0}, {"type": "note_off", "time": 130, "note": 57, "velocity": 89, "channel": 0}, {"type": "note_on", "time": 49, "note": 57, "velocity": 86, "channel": 0}, {"type": "note_off", "time": 113, "note": 57, "velocity": 86, "channel": 0}, {"type": "note_on", "time": 14, "note": 55, "velocity": 90, "channel": 0}, {"type": "note_off", "time": 95, "note": 55, "velocity": 90, "channel": 0}, {"type": "note_on", "time": 789, "note": 69, "velocity": 105, "channel": 0}, {"type": "note_off", "time": 72, "note": 69, "velocity": 105, "channel": 0}, {"type": "note_on", "time": 15, "note": 70, "velocity": 96, "channel": 0}, {"type": "note_off", "time": 83, "note": 70, "velocity": 96, "channel": 0}, {"type": "note_on", "time": 2, "note": 69, "velocity": 103, "channel": 0}, {"type": "note_off", "time": 91, "note": 69, "velocity": 103, "channel": 0}, {"type": "note_on", "time": 7, "note": 67, "velocity": 100, "channel": 0}, {"type": "note_off", "time": 80, "note": 67, "velocity": 100, "channel": 0}, {"type": "note_on", "time": 8, "note": 66, "velocity": 84, "channel": 0}, {"type": "note_off", "time": 106, "note": 66, "velocity": 84, "channel": 0}, {"type": "note_on", "time": 140, "note": 69, "velocity": 100, "channel": 0}, {"type": "note_off", "time": 83, "note": 69, "velocity": 100, "channel": 0}, {"type": "note_on", "time": 0, "note": 66, "velocity": 83, "channel": 0}, {"type": "note_off", "time": 72, "note": 66, "velocity": 83, "channel": 0}, {"type": "note_on", "time": 15, "note": 67, "velocity": 84, "channel": 0}, {"type": "note_off", "time": 87, "note": 67, "velocity": 84, "channel": 0}, {"type": "note_on", "time": 4, "note": 69, "velocity": 100, "channel": 0}, {"type": "note_off", "time": 91, "note": 69, "velocity": 100, "channel": 0}, {"type": "note_on", "time": 6, "note": 70, "velocity": 89, "channel": 0}, {"type": "note_off", "time": 79, "note": 70, "velocity": 89, "channel": 0}, {"type": "note_on", "time": 0, "note": 72, "velocity": 100, "channel": 0}, {"type": "note_off", "time": 95, "note": 72, "velocity": 100, "channel": 0}, {"type": "note_on", "time": 107, "note": 66, "velocity": 84, "channel": 0}, {"type": "note_off", "time": 113, "note": 66, "velocity": 84, "channel": 0}, {"type": "note_on", "time": 448, "note": 63, "velocity": 91, "channel": 0}, {"type": "note_off", "time": 72, "note": 63, "velocity": 91, "channel": 0}, {"type": "note_on", "time": 2, "note": 64, "velocity": 86, "channel": 0}, {"type": "note_off", "time": 64, "note": 64, "velocity": 86, "channel": 0}, {"type": "note_on", "time": 5, "note": 67, "velocity": 99, "channel": 0}, {"type": "note_off", "time": 62, "note": 67, "velocity": 99, "channel": 0}, {"type": "note_on", "time": 8, "note": 66, "velocity": 90, "channel": 0}, {"type": "note_off", "time": 80, "note": 66, "velocity": 90, "channel": 0}, {"type": "note_on", "time": 40, "note": 69, "velocity": 73, "channel": 0}, {"type": "note_off", "time": 64, "note": 69, "velocity": 73, "channel": 0}, {"type": "note_on", "time": 19, "note": 72, "velocity": 97, "channel": 0}, {"type": "note_off", "time": 77, "note": 72, "velocity": 97, "channel": 0}, {"type": "note_on", "time": 28, "note": 74, "velocity": 93, "channel": 0}, {"type": "note_off", "time": 82, "note": 74, "velocity": 93, "channel": 0}, {"type": "note_on", "time": 8, "note": 77, "velocity": 103, "channel": 0}, {"type": "note_off", "time": 58, "note": 77, "velocity": 103, "channel": 0}, {"type": "note_on", "time": 5, "note": 76, "velocity": 99, "channel": 0}, {"type": "note_off", "time": 45, "note": 76, "velocity": 99, "channel": 0}, {"type": "note_on", "time": 8, "note": 75, "velocity": 100, "channel": 0}, {"type": "note_off", "time": 65, "note": 75, "velocity": 100, "channel": 0}, {"type": "note_on", "time": 8, "note": 74, "velocity": 94, "channel": 0}, {"type": "note_off", "time": 90, "note": 74, "velocity": 94, "channel": 0}, {"type": "note_on", "time": 2, "note": 72, "velocity": 90, "channel": 0}, {"type": "note_off", "time": 98, "note": 72, "velocity": 90, "channel": 0}, {"type": "note_on", "time": 2, "note": 71, "velocity": 77, "channel": 0}, {"type": "note_off", "time": 58, "note": 71, "velocity": 77, "channel": 0}, {"type": "note_on", "time": 29, "note": 69, "velocity": 92, "channel": 0}, {"type": "note_off", "time": 76, "note": 69, "velocity": 92, "channel": 0}, {"type": "note_on", "time": 13, "note": 68, "velocity": 94, "channel": 0}, {"type": "note_off", "time": 66, "note": 68, "velocity": 94, "channel": 0}, {"type": "note_on", "time": 43, "note": 61, "velocity": 66, "channel": 0}, {"type": "note_off", "time": 70, "note": 61, "velocity": 66, "channel": 0}, {"type": "note_on", "time": 12, "note": 62, "velocity": 76, "channel": 0}, {"type": "note_off", "time": 75, "note": 62, "velocity": 76, "channel": 0}, {"type": "note_on", "time": 0, "note": 65, "velocity": 87, "channel": 0}, {"type": "note_off", "time": 74, "note": 65, "velocity": 87, "channel": 0}, {"type": "note_on", "time": 11, "note": 62, "velocity": 84, "channel": 0}, {"type": "note_off", "time": 81, "note": 62, "velocity": 84, "channel": 0}, {"type": "note_on", "time": 2, "note": 63, "velocity": 81, "channel": 0}, {"type": "note_off", "time": 85, "note": 63, "velocity": 81, "channel": 0}, {"type": "note_on", "time": 10, "note": 64, "velocity": 83, "channel": 0}, {"type": "note_off", "time": 68, "note": 64, "velocity": 83, "channel": 0}, {"type": "note_on", "time": 38, "note": 68, "velocity": 92, "channel": 0}, {"type": "note_off", "time": 75, "note": 68, "velocity": 92, "channel": 0}, {"type": "note_on", "time": 22, "note": 71, "velocity": 85, "channel": 0}, {"type": "note_off", "time": 85, "note": 71, "velocity": 85, "channel": 0}, {"type": "note_on", "time": 33, "note": 67, "velocity": 77, "channel": 0}, {"type": "note_off", "time": 54, "note": 67, "velocity": 77, "channel": 0}, {"type": "note_on", "time": 14, "note": 69, "velocity": 87, "channel": 0}, {"type": "note_off", "time": 72, "note": 69, "velocity": 87, "channel": 0}, {"type": "note_on", "time": 43, "note": 71, "velocity": 98, "channel": 0}, {"type": "note_off", "time": 72, "note": 71, "velocity": 98, "channel": 0}, {"type": "note_on", "time": 5, "note": 72, "velocity": 76, "channel": 0}, {"type": "note_off", "time": 77, "note": 72, "velocity": 76, "channel": 0}, {"type": "note_on", "time": 7, "note": 74, "velocity": 84, "channel": 0}, {"type": "note_off", "time": 110, "note": 74, "velocity": 84, "channel": 0}, {"type": "note_on", "time": 7, "note": 75, "velocity": 88, "channel": 0}, {"type": "note_off", "time": 87, "note": 75, "velocity": 88, "channel": 0}, {"type": "note_on", "time": 2, "note": 76, "velocity": 95, "channel": 0}, {"type": "note_off", "time": 68, "note": 76, "velocity": 95, "channel": 0}, {"type": "note_on", "time": 18, "note": 79, "velocity": 80, "channel": 0}, {"type": "note_off", "time": 86, "note": 79, "velocity": 80, "channel": 0}, {"type": "note_on", "time": 34, "note": 76, "velocity": 78, "channel": 0}, {"type": "note_off", "time": 67, "note": 76, "velocity": 78, "channel": 0}, {"type": "note_on", "time": 4, "note": 78, "velocity": 95, "channel": 0}, {"type": "note_off", "time": 41, "note": 78, "velocity": 95, "channel": 0}, {"type": "note_on", "time": 69, "note": 76, "velocity": 93, "channel": 0}, {"type": "note_off", "time": 80, "note": 76, "velocity": 93, "channel": 0}, {"type": "note_on", "time": 1, "note": 74, "velocity": 91, "channel": 0}, {"type": "note_off", "time": 83, "note": 74, "velocity": 91, "channel": 0}, {"type": "note_on", "time": 3, "note": 72, "velocity": 90, "channel": 0}, {"type": "note_off", "time": 83, "note": 72, "velocity": 90, "channel": 0}, {"type": "note_on", "time": 18, "note": 71, "velocity": 88, "channel": 0}, {"type": "note_off", "time": 74, "note": 71, "velocity": 88, "channel": 0}, {"type": "note_on", "time": 27, "note": 69, "velocity": 89, "channel": 0}, {"type": "note_off", "time": 68, "note": 69, "velocity": 89, "channel": 0}, {"type": "note_on", "time": 10, "note": 68, "velocity": 97, "channel": 0}, {"type": "note_off", "time": 71, "note": 68, "velocity": 97, "channel": 0}, {"type": "note_on", "time": 69, "note": 65, "velocity": 79, "channel": 0}, {"type": "note_off", "time": 87, "note": 65, "velocity": 79, "channel": 0}, {"type": "note_on", "time": 4, "note": 66, "velocity": 82, "channel": 0}, {"type": "note_off", "time": 67, "note": 66, "velocity": 82, "channel": 0}, {"type": "note_on", "time": 25, "note": 69, "velocity": 84, "channel": 0}, {"type": "note_off", "time": 67, "note": 69, "velocity": 84, "channel": 0}, {"type": "note_on", "time": 32, "note": 71, "velocity": 77, "channel": 0}, {"type": "note_off", "time": 58, "note": 71, "velocity": 77, "channel": 0}, {"type": "note_on", "time": 8, "note": 72, "velocity": 82, "channel": 0}, {"type": "note_off", "time": 66, "note": 72, "velocity": 82, "channel": 0}, {"type": "note_on", "time": 11, "note": 74, "velocity": 96, "channel": 0}, {"type": "note_off", "time": 88, "note": 74, "velocity": 96, "channel": 0}, {"type": "note_on", "time": 12, "note": 76, "velocity": 90, "channel": 0}, {"type": "note_off", "time": 76, "note": 76, "velocity": 90, "channel": 0}, {"type": "note_on", "time": 13, "note": 78, "velocity": 72, "channel": 0}, {"type": "note_off", "time": 91, "note": 78, "velocity": 72, "channel": 0}, {"type": "note_on", "time": 6, "note": 79, "velocity": 82, "channel": 0}, {"type": "note_off", "time": 75, "note": 79, "velocity": 82, "channel": 0}, {"type": "note_on", "time": 31, "note": 81, "velocity": 91, "channel": 0}, {"type": "note_off", "time": 75, "note": 81, "velocity": 91, "channel": 0}, {"type": "note_on", "time": 83, "note": 81, "velocity": 82, "channel": 0}, {"type": "note_off", "time": 122, "note": 81, "velocity": 82, "channel": 0}, {"type": "note_on", "time": 12, "note": 79, "velocity": 90, "channel": 0}, {"type": "note_off", "time": 85, "note": 79, "velocity": 90, "channel": 0}, {"type": "note_on", "time": 74, "note": 79, "velocity": 91, "channel": 0}, {"type": "note_off", "time": 62, "note": 79, "velocity": 91, "channel": 0}, {"type": "note_on", "time": 31, "note": 77, "velocity": 83, "channel": 0}, {"type": "note_off", "time": 112, "note": 77, "velocity": 83, "channel": 0}, {"type": "note_on", "time": 9, "note": 76, "velocity": 95, "channel": 0}, {"type": "note_off", "time": 44, "note": 76, "velocity": 95, "channel": 0}, {"type": "note_on", "time": 4, "note": 75, "velocity": 99, "channel": 0}, {"type": "note_off", "time": 115, "note": 75, "velocity": 99, "channel": 0}, {"type": "note_on", "time": 28, "note": 67, "velocity": 86, "channel": 0}, {"type": "note_off", "time": 60, "note": 67, "velocity": 86, "channel": 0}, {"type": "note_on", "time": 16, "note": 71, "velocity": 70, "channel": 0}, {"type": "note_off", "time": 68, "note": 71, "velocity": 70, "channel": 0}, {"type": "note_on", "time": 4, "note": 74, "velocity": 95, "channel": 0}, {"type": "note_off", "time": 91, "note": 74, "velocity": 95, "channel": 0}, {"type": "note_on", "time": 10, "note": 72, "velocity": 85, "channel": 0}, {"type": "note_off", "time": 78, "note": 72, "velocity": 85, "channel": 0}, {"type": "note_on", "time": 9, "note": 70, "velocity": 97, "channel": 0}, {"type": "note_off", "time": 80, "note": 70, "velocity": 97, "channel": 0}, {"type": "note_on", "time": 11, "note": 69, "velocity": 90, "channel": 0}, {"type": "note_off", "time": 67, "note": 69, "velocity": 90, "channel": 0}, {"type": "note_on", "time": 2, "note": 67, "velocity": 90, "channel": 0}, {"type": "note_off", "time": 97, "note": 67, "velocity": 90, "channel": 0}, {"type": "note_on", "time": 5, "note": 65, "velocity": 96, "channel": 0}, {"type": "note_off", "time": 97, "note": 65, "velocity": 96, "channel": 0}, {"type": "note_on", "time": 16, "note": 64, "velocity": 88, "channel": 0}, {"type": "note_off", "time": 86, "note": 64, "velocity": 88, "channel": 0}, {"type": "note_on", "time": 10, "note": 63, "velocity": 84, "channel": 0}, {"type": "note_off", "time": 47, "note": 63, "velocity": 84, "channel": 0}, {"type": "note_on", "time": 6, "note": 65, "velocity": 96, "channel": 0}, {"type": "note_off", "time": 51, "note": 65, "velocity": 96, "channel": 0}, {"type": "note_on", "time": 10, "note": 63, "velocity": 92, "channel": 0}, {"type": "note_off", "time": 53, "note": 63, "velocity": 92, "channel": 0}, {"type": "note_on", "time": 4, "note": 62, "velocity": 9, "channel": 0}, {"type": "note_off", "time": 83, "note": 62, "velocity": 9, "channel": 0}, {"type": "note_on", "time": 19, "note": 60, "velocity": 56, "channel": 0}, {"type": "note_off", "time": 86, "note": 60, "velocity": 56, "channel": 0}, {"type": "note_on", "time": 8, "note": 59, "velocity": 92, "channel": 0}, {"type": "note_off", "time": 70, "note": 59, "velocity": 92, "channel": 0}, {"type": "note_on", "time": 5, "note": 57, "velocity": 89, "channel": 0}, {"type": "note_off", "time": 112, "note": 57, "velocity": 89, "channel": 0}, {"type": "note_on", "time": 6, "note": 58, "velocity": 94, "channel": 0}, {"type": "note_off", "time": 69, "note": 58, "velocity": 94, "channel": 0}, {"type": "note_on", "time": 31, "note": 60, "velocity": 89, "channel": 0}, {"type": "note_off", "time": 66, "note": 60, "velocity": 89, "channel": 0}, {"type": "note_on", "time": 22, "note": 62, "velocity": 87, "channel": 0}, {"type": "note_off", "time": 100, "note": 62, "velocity": 87, "channel": 0}, {"type": "note_on", "time": 7, "note": 63, "velocity": 92, "channel": 0}, {"type": "note_off", "time": 60, "note": 63, "velocity": 92, "channel": 0}, {"type": "note_on", "time": 3, "note": 65, "velocity": 96, "channel": 0}, {"type": "note_off", "time": 98, "note": 65, "velocity": 96, "channel": 0}, {"type": "note_on", "time": 4, "note": 63, "velocity": 93, "channel": 0}, {"type": "note_off", "time": 62, "note": 63, "velocity": 93, "channel": 0}, {"type": "note_on", "time": 12, "note": 62, "velocity": 95, "channel": 0}, {"type": "note_off", "time": 90, "note": 62, "velocity": 95, "channel": 0}, {"type": "note_on", "time": 13, "note": 60, "velocity": 90, "channel": 0}, {"type": "note_off", "time": 82, "note": 60, "velocity": 90, "channel": 0}, {"type": "note_on", "time": 41, "note": 62, "velocity": 90, "channel": 0}, {"type": "note_off", "time": 115, "note": 62, "velocity": 90, "channel": 0}, {"type": "note_on", "time": 15, "note": 65, "velocity": 99, "channel": 0}, {"type": "note_off", "time": 66, "note": 65, "velocity": 99, "channel": 0}, {"type": "note_on", "time": 33, "note": 67, "velocity": 97, "channel": 0}, {"type": "note_off", "time": 78, "note": 67, "velocity": 97, "channel": 0}, {"type": "note_on", "time": 12, "note": 68, "velocity": 94, "channel": 0}, {"type": "note_off", "time": 42, "note": 68, "velocity": 94, "channel": 0}, {"type": "note_on", "time": 9, "note": 70, "velocity": 90, "channel": 0}, {"type": "note_off", "time": 60, "note": 70, "velocity": 90, "channel": 0}, {"type": "note_on", "time": 12, "note": 68, "velocity": 95, "channel": 0}, {"type": "note_off", "time": 85, "note": 68, "velocity": 95, "channel": 0}, {"type": "note_on", "time": 15, "note": 67, "velocity": 93, "channel": 0}, {"type": "note_off", "time": 95, "note": 67, "velocity": 93, "channel": 0}, {"type": "note_on", "time": 9, "note": 65, "velocity": 102, "channel": 0}, {"type": "note_off", "time": 62, "note": 65, "velocity": 102, "channel": 0}, {"type": "note_on", "time": 0, "note": 63, "velocity": 92, "channel": 0}, {"type": "note_off", "time": 90, "note": 63, "velocity": 92, "channel": 0}, {"type": "note_on", "time": 486, "note": 73, "velocity": 107, "channel": 0}, {"type": "note_off", "time": 92, "note": 73, "velocity": 107, "channel": 0}, {"type": "note_on", "time": 6, "note": 74, "velocity": 102, "channel": 0}, {"type": "note_off", "time": 94, "note": 74, "velocity": 102, "channel": 0}, {"type": "note_on", "time": 6, "note": 75, "velocity": 96, "channel": 0}, {"type": "note_off", "time": 62, "note": 75, "velocity": 96, "channel": 0}, {"type": "note_on", "time": 51, "note": 77, "velocity": 96, "channel": 0}, {"type": "note_off", "time": 50, "note": 77, "velocity": 96, "channel": 0}, {"type": "note_on", "time": 12, "note": 79, "velocity": 102, "channel": 0}, {"type": "note_off", "time": 87, "note": 79, "velocity": 102, "channel": 0}, {"type": "note_on", "time": 23, "note": 76, "velocity": 87, "channel": 0}, {"type": "note_on", "time": 67, "note": 77, "velocity": 100, "channel": 0}, {"type": "note_off", "time": 0, "note": 76, "velocity": 87, "channel": 0}, {"type": "note_off", "time": 102, "note": 77, "velocity": 100, "channel": 0}, {"type": "note_on", "time": 7, "note": 75, "velocity": 104, "channel": 0}, {"type": "note_off", "time": 83, "note": 75, "velocity": 104, "channel": 0}, {"type": "note_on", "time": 7, "note": 74, "velocity": 102, "channel": 0}, {"type": "note_off", "time": 59, "note": 74, "velocity": 102, "channel": 0}, {"type": "note_on", "time": 24, "note": 72, "velocity": 92, "channel": 0}, {"type": "note_off", "time": 70, "note": 72, "velocity": 92, "channel": 0}, {"type": "note_on", "time": 11, "note": 71, "velocity": 96, "channel": 0}, {"type": "note_off", "time": 86, "note": 71, "velocity": 96, "channel": 0}, {"type": "note_on", "time": 6, "note": 72, "velocity": 89, "channel": 0}, {"type": "note_off", "time": 86, "note": 72, "velocity": 89, "channel": 0}, {"type": "note_on", "time": 19, "note": 70, "velocity": 100, "channel": 0}, {"type": "note_off", "time": 100, "note": 70, "velocity": 100, "channel": 0}, {"type": "note_on", "time": 719, "note": 67, "velocity": 82, "channel": 0}, {"type": "note_off", "time": 64, "note": 67, "velocity": 82, "channel": 0}, {"type": "note_on", "time": 21, "note": 67, "velocity": 96, "channel": 0}, {"type": "note_off", "time": 77, "note": 67, "velocity": 96, "channel": 0}, {"type": "note_on", "time": 8, "note": 70, "velocity": 89, "channel": 0}, {"type": "note_off", "time": 75, "note": 70, "velocity": 89, "channel": 0}, {"type": "note_on", "time": 0, "note": 72, "velocity": 77, "channel": 0}, {"type": "note_off", "time": 48, "note": 72, "velocity": 77, "channel": 0}, {"type": "note_on", "time": 21, "note": 74, "velocity": 78, "channel": 0}, {"type": "note_off", "time": 54, "note": 74, "velocity": 78, "channel": 0}, {"type": "note_on", "time": 39, "note": 75, "velocity": 95, "channel": 0}, {"type": "note_off", "time": 56, "note": 75, "velocity": 95, "channel": 0}, {"type": "note_on", "time": 17, "note": 76, "velocity": 82, "channel": 0}, {"type": "note_off", "time": 59, "note": 76, "velocity": 82, "channel": 0}, {"type": "note_on", "time": 16, "note": 77, "velocity": 91, "channel": 0}, {"type": "note_off", "time": 68, "note": 77, "velocity": 91, "channel": 0}, {"type": "note_on", "time": 11, "note": 78, "velocity": 74, "channel": 0}, {"type": "note_off", "time": 58, "note": 78, "velocity": 74, "channel": 0}, {"type": "note_on", "time": 28, "note": 79, "velocity": 86, "channel": 0}, {"type": "note_off", "time": 94, "note": 79, "velocity": 86, "channel": 0}, {"type": "note_on", "time": 31, "note": 76, "velocity": 72, "channel": 0}, {"type": "note_off", "time": 59, "note": 76, "velocity": 72, "channel": 0}, {"type": "note_on", "time": 28, "note": 78, "velocity": 96, "channel": 0}, {"type": "note_off", "time": 129, "note": 78, "velocity": 96, "channel": 0}, {"type": "note_on", "time": 415, "note": 78, "velocity": 96, "channel": 0}, {"type": "note_off", "time": 89, "note": 78, "velocity": 96, "channel": 0}, {"type": "note_on", "time": 6, "note": 76, "velocity": 105, "channel": 0}, {"type": "note_off", "time": 89, "note": 76, "velocity": 105, "channel": 0}, {"type": "note_on", "time": 5, "note": 74, "velocity": 107, "channel": 0}, {"type": "note_off", "time": 91, "note": 74, "velocity": 107, "channel": 0}, {"type": "note_on", "time": 442, "note": 74, "velocity": 100, "channel": 0}, {"type": "note_off", "time": 115, "note": 74, "velocity": 100, "channel": 0}, {"type": "note_on", "time": 9, "note": 72, "velocity": 108, "channel": 0}, {"type": "note_off", "time": 56, "note": 72, "velocity": 108, "channel": 0}, {"type": "note_on", "time": 17, "note": 71, "velocity": 98, "channel": 0}, {"type": "note_off", "time": 83, "note": 71, "velocity": 98, "channel": 0}, {"type": "note_on", "time": 32, "note": 69, "velocity": 104, "channel": 0}, {"type": "note_off", "time": 75, "note": 69, "velocity": 104, "channel": 0}, {"type": "note_on", "time": 2, "note": 68, "velocity": 96, "channel": 0}, {"type": "note_off", "time": 77, "note": 68, "velocity": 96, "channel": 0}, {"type": "note_on", "time": 28, "note": 66, "velocity": 91, "channel": 0}, {"type": "note_off", "time": 64, "note": 66, "velocity": 91, "channel": 0}, {"type": "note_on", "time": 16, "note": 67, "velocity": 95, "channel": 0}, {"type": "note_off", "time": 86, "note": 67, "velocity": 95, "channel": 0}, {"type": "note_on", "time": 19, "note": 69, "velocity": 97, "channel": 0}, {"type": "note_off", "time": 76, "note": 69, "velocity": 97, "channel": 0}, {"type": "note_on", "time": 6, "note": 71, "velocity": 94, "channel": 0}, {"type": "note_off", "time": 91, "note": 71, "velocity": 94, "channel": 0}, {"type": "note_on", "time": 8, "note": 72, "velocity": 93, "channel": 0}, {"type": "note_off", "time": 66, "note": 72, "velocity": 93, "channel": 0}, {"type": "note_on", "time": 0, "note": 74, "velocity": 103, "channel": 0}, {"type": "note_off", "time": 85, "note": 74, "velocity": 103, "channel": 0}, {"type": "note_on", "time": 18, "note": 76, "velocity": 91, "channel": 0}, {"type": "note_off", "time": 62, "note": 76, "velocity": 91, "channel": 0}, {"type": "note_on", "time": 10, "note": 78, "velocity": 95, "channel": 0}, {"type": "note_off", "time": 64, "note": 78, "velocity": 95, "channel": 0}, {"type": "note_on", "time": 24, "note": 79, "velocity": 93, "channel": 0}, {"type": "note_off", "time": 94, "note": 79, "velocity": 93, "channel": 0}, {"type": "note_on", "time": 7, "note": 81, "velocity": 98, "channel": 0}, {"type": "note_off", "time": 91, "note": 81, "velocity": 98, "channel": 0}, {"type": "note_on", "time": 9, "note": 79, "velocity": 97, "channel": 0}, {"type": "note_off", "time": 83, "note": 79, "velocity": 97, "channel": 0}, {"type": "note_on", "time": 0, "note": 78, "velocity": 97, "channel": 0}, {"type": "note_off", "time": 68, "note": 78, "velocity": 97, "channel": 0}, {"type": "note_on", "time": 21, "note": 76, "velocity": 92, "channel": 0}, {"type": "note_off", "time": 117, "note": 76, "velocity": 92, "channel": 0}, {"type": "note_on", "time": 11, "note": 73, "velocity": 83, "channel": 0}, {"type": "note_off", "time": 62, "note": 73, "velocity": 83, "channel": 0}, {"type": "note_on", "time": 5, "note": 74, "velocity": 88, "channel": 0}, {"type": "note_off", "time": 81, "note": 74, "velocity": 88, "channel": 0}, {"type": "note_on", "time": 1, "note": 75, "velocity": 93, "channel": 0}, {"type": "note_off", "time": 94, "note": 75, "velocity": 93, "channel": 0}, {"type": "note_on", "time": 3, "note": 73, "velocity": 87, "channel": 0}, {"type": "note_off", "time": 45, "note": 73, "velocity": 87, "channel": 0}, {"type": "note_on", "time": 17, "note": 71, "velocity": 97, "channel": 0}, {"type": "note_off", "time": 62, "note": 71, "velocity": 97, "channel": 0}, {"type": "note_on", "time": 13, "note": 69, "velocity": 79, "channel": 0}, {"type": "note_off", "time": 93, "note": 69, "velocity": 79, "channel": 0}, {"type": "note_on", "time": 20, "note": 67, "velocity": 95, "channel": 0}, {"type": "note_off", "time": 70, "note": 67, "velocity": 95, "channel": 0}, {"type": "note_on", "time": 23, "note": 66, "velocity": 100, "channel": 0}, {"type": "note_off", "time": 56, "note": 66, "velocity": 100, "channel": 0}, {"type": "note_on", "time": 16, "note": 64, "velocity": 93, "channel": 0}, {"type": "note_off", "time": 121, "note": 64, "velocity": 93, "channel": 0}, {"type": "note_on", "time": 16, "note": 62, "velocity": 94, "channel": 0}, {"type": "note_off", "time": 91, "note": 62, "velocity": 94, "channel": 0}, {"type": "note_on", "time": 3, "note": 63, "velocity": 100, "channel": 0}, {"type": "note_off", "time": 376, "note": 63, "velocity": 100, "channel": 0}, {"type": "note_on", "time": 28, "note": 66, "velocity": 84, "channel": 0}, {"type": "note_off", "time": 109, "note": 66, "velocity": 84, "channel": 0}, {"type": "note_on", "time": 4, "note": 63, "velocity": 86, "channel": 0}, {"type": "note_off", "time": 63, "note": 63, "velocity": 86, "channel": 0}, {"type": "note_on", "time": 6, "note": 64, "velocity": 88, "channel": 0}, {"type": "note_off", "time": 68, "note": 64, "velocity": 88, "channel": 0}, {"type": "note_on", "time": 12, "note": 66, "velocity": 86, "channel": 0}, {"type": "note_off", "time": 59, "note": 66, "velocity": 86, "channel": 0}, {"type": "note_on", "time": 13, "note": 68, "velocity": 97, "channel": 0}, {"type": "note_off", "time": 45, "note": 68, "velocity": 97, "channel": 0}, {"type": "note_on", "time": 14, "note": 69, "velocity": 94, "channel": 0}, {"type": "note_off", "time": 48, "note": 69, "velocity": 94, "channel": 0}, {"type": "note_on", "time": 0, "note": 71, "velocity": 100, "channel": 0}, {"type": "note_off", "time": 56, "note": 71, "velocity": 100, "channel": 0}, {"type": "note_on", "time": 1, "note": 72, "velocity": 100, "channel": 0}, {"type": "note_off", "time": 56, "note": 72, "velocity": 100, "channel": 0}, {"type": "note_on", "time": 10, "note": 74, "velocity": 94, "channel": 0}, {"type": "note_off", "time": 80, "note": 74, "velocity": 94, "channel": 0}, {"type": "note_on", "time": 25, "note": 63, "velocity": 95, "channel": 0}, {"type": "note_off", "time": 62, "note": 63, "velocity": 95, "channel": 0}, {"type": "note_on", "time": 33, "note": 65, "velocity": 82, "channel": 0}, {"type": "note_off", "time": 67, "note": 65, "velocity": 82, "channel": 0}, {"type": "note_on", "time": 13, "note": 67, "velocity": 88, "channel": 0}, {"type": "note_off", "time": 72, "note": 67, "velocity": 88, "channel": 0}, {"type": "note_on", "time": 22, "note": 66, "velocity": 97, "channel": 0}, {"type": "note_off", "time": 55, "note": 66, "velocity": 97, "channel": 0}, {"type": "note_on", "time": 25, "note": 64, "velocity": 101, "channel": 0}, {"type": "note_off", "time": 80, "note": 64, "velocity": 101, "channel": 0}, {"type": "note_on", "time": 10, "note": 63, "velocity": 95, "channel": 0}, {"type": "note_off", "time": 88, "note": 63, "velocity": 95, "channel": 0}, {"type": "note_on", "time": 13, "note": 61, "velocity": 87, "channel": 0}, {"type": "note_off", "time": 53, "note": 61, "velocity": 87, "channel": 0}, {"type": "note_on", "time": 20, "note": 62, "velocity": 94, "channel": 0}, {"type": "note_off", "time": 80, "note": 62, "velocity": 94, "channel": 0}, {"type": "note_on", "time": 16, "note": 64, "velocity": 91, "channel": 0}, {"type": "note_off", "time": 54, "note": 64, "velocity": 91, "channel": 0}, {"type": "note_on", "time": 38, "note": 66, "velocity": 93, "channel": 0}, {"type": "note_off", "time": 68, "note": 66, "velocity": 93, "channel": 0}, {"type": "note_on", "time": 19, "note": 67, "velocity": 84, "channel": 0}, {"type": "note_off", "time": 72, "note": 67, "velocity": 84, "channel": 0}, {"type": "note_on", "time": 18, "note": 69, "velocity": 98, "channel": 0}, {"type": "note_off", "time": 89, "note": 69, "velocity": 98, "channel": 0}, {"type": "note_on", "time": 27, "note": 66, "velocity": 86, "channel": 0}, {"type": "note_off", "time": 59, "note": 66, "velocity": 86, "channel": 0}, {"type": "note_on", "time": 25, "note": 67, "velocity": 87, "channel": 0}, {"type": "note_off", "time": 59, "note": 67, "velocity": 87, "channel": 0}, {"type": "note_on", "time": 30, "note": 69, "velocity": 93, "channel": 0}, {"type": "note_off", "time": 72, "note": 69, "velocity": 93, "channel": 0}, {"type": "note_on", "time": 10, "note": 71, "velocity": 90, "channel": 0}, {"type": "note_off", "time": 54, "note": 71, "velocity": 90, "channel": 0}, {"type": "note_on", "time": 12, "note": 72, "velocity": 91, "channel": 0}, {"type": "note_off", "time": 63, "note": 72, "velocity": 91, "channel": 0}, {"type": "note_on", "time": 3, "note": 73, "velocity": 98, "channel": 0}, {"type": "note_off", "time": 41, "note": 73, "velocity": 98, "channel": 0}, {"type": "note_on", "time": 19, "note": 74, "velocity": 94, "channel": 0}, {"type": "note_off", "time": 97, "note": 74, "velocity": 94, "channel": 0}, {"type": "note_on", "time": 31, "note": 71, "velocity": 80, "channel": 0}, {"type": "note_off", "time": 6, "note": 71, "velocity": 80, "channel": 0}, {"type": "note_on", "time": 0, "note": 71, "velocity": 94, "channel": 0}, {"type": "note_off", "time": 57, "note": 71, "velocity": 94, "channel": 0}, {"type": "note_on", "time": 9, "note": 72, "velocity": 86, "channel": 0}, {"type": "note_off", "time": 68, "note": 72, "velocity": 86, "channel": 0}, {"type": "note_on", "time": 33, "note": 74, "velocity": 96, "channel": 0}, {"type": "note_off", "time": 60, "note": 74, "velocity": 96, "channel": 0}, {"type": "note_on", "time": 12, "note": 76, "velocity": 90, "channel": 0}, {"type": "note_off", "time": 79, "note": 76, "velocity": 90, "channel": 0}, {"type": "note_on", "time": 30, "note": 78, "velocity": 88, "channel": 0}, {"type": "note_off", "time": 83, "note": 78, "velocity": 88, "channel": 0}, {"type": "note_on", "time": 18, "note": 77, "velocity": 78, "channel": 0}, {"type": "note_off", "time": 86, "note": 77, "velocity": 78, "channel": 0}, {"type": "note_on", "time": 27, "note": 77, "velocity": 87, "channel": 0}, {"type": "note_off", "time": 71, "note": 77, "velocity": 87, "channel": 0}, {"type": "note_on", "time": 962, "note": 78, "velocity": 86, "channel": 0}, {"type": "note_off", "time": 38, "note": 78, "velocity": 86, "channel": 0}, {"type": "note_on", "time": 15, "note": 79, "velocity": 111, "channel": 0}, {"type": "note_off", "time": 256, "note": 79, "velocity": 111, "channel": 0}, {"type": "note_on", "time": 88, "note": 73, "velocity": 109, "channel": 0}, {"type": "note_off", "time": 80, "note": 73, "velocity": 109, "channel": 0}, {"type": "note_on", "time": 3, "note": 74, "velocity": 107, "channel": 0}, {"type": "note_off", "time": 217, "note": 74, "velocity": 107, "channel": 0}, {"type": "note_on", "time": 92, "note": 71, "velocity": 104, "channel": 0}, {"type": "note_off", "time": 85, "note": 71, "velocity": 104, "channel": 0}, {"type": "note_on", "time": 9, "note": 72, "velocity": 103, "channel": 0}, {"type": "note_off", "time": 118, "note": 72, "velocity": 103, "channel": 0}, {"type": "note_on", "time": 147, "note": 69, "velocity": 92, "channel": 0}, {"type": "note_off", "time": 115, "note": 69, "velocity": 92, "channel": 0}, {"type": "note_on", "time": 16, "note": 70, "velocity": 96, "channel": 0}, {"type": "note_off", "time": 177, "note": 70, "velocity": 96, "channel": 0}, {"type": "note_on", "time": 120, "note": 69, "velocity": 102, "channel": 0}, {"type": "note_off", "time": 199, "note": 69, "velocity": 102, "channel": 0}, {"type": "note_on", "time": 5, "note": 66, "velocity": 83, "channel": 0}, {"type": "note_off", "time": 102, "note": 66, "velocity": 83, "channel": 0}, {"type": "note_on", "time": 0, "note": 67, "velocity": 90, "channel": 0}, {"type": "note_off", "time": 140, "note": 67, "velocity": 90, "channel": 0}, {"type": "note_on", "time": 27, "note": 62, "velocity": 100, "channel": 0}, {"type": "note_off", "time": 174, "note": 62, "velocity": 100, "channel": 0}, {"type": "note_on", "time": 68, "note": 62, "velocity": 86, "channel": 0}, {"type": "note_off", "time": 454, "note": 62, "velocity": 86, "channel": 0}, {"type": "note_on", "time": 802, "note": 63, "velocity": 102, "channel": 0}, {"type": "note_off", "time": 70, "note": 63, "velocity": 102, "channel": 0}, {"type": "note_on", "time": 16, "note": 64, "velocity": 104, "channel": 0}, {"type": "note_off", "time": 300, "note": 64, "velocity": 104, "channel": 0}, {"type": "note_on", "time": 10, "note": 67, "velocity": 91, "channel": 0}, {"type": "note_off", "time": 86, "note": 67, "velocity": 91, "channel": 0}, {"type": "note_on", "time": 13, "note": 64, "velocity": 83, "channel": 0}, {"type": "note_off", "time": 64, "note": 64, "velocity": 83, "channel": 0}, {"type": "note_on", "time": 7, "note": 66, "velocity": 85, "channel": 0}, {"type": "note_off", "time": 82, "note": 66, "velocity": 85, "channel": 0}, {"type": "note_on", "time": 26, "note": 69, "velocity": 81, "channel": 0}, {"type": "note_off", "time": 75, "note": 69, "velocity": 81, "channel": 0}, {"type": "note_on", "time": 7, "note": 72, "velocity": 85, "channel": 0}, {"type": "note_off", "time": 112, "note": 72, "velocity": 85, "channel": 0}, {"type": "note_on", "time": 7, "note": 74, "velocity": 97, "channel": 0}, {"type": "note_off", "time": 59, "note": 74, "velocity": 97, "channel": 0}, {"type": "note_on", "time": 9, "note": 77, "velocity": 103, "channel": 0}, {"type": "note_off", "time": 69, "note": 77, "velocity": 103, "channel": 0}, {"type": "note_on", "time": 7, "note": 76, "velocity": 101, "channel": 0}, {"type": "note_off", "time": 77, "note": 76, "velocity": 101, "channel": 0}, {"type": "note_on", "time": 6, "note": 75, "velocity": 104, "channel": 0}, {"type": "note_off", "time": 33, "note": 75, "velocity": 104, "channel": 0}, {"type": "note_on", "time": 12, "note": 74, "velocity": 101, "channel": 0}, {"type": "note_off", "time": 77, "note": 74, "velocity": 101, "channel": 0}, {"type": "note_on", "time": 0, "note": 72, "velocity": 94, "channel": 0}, {"type": "note_off", "time": 91, "note": 72, "velocity": 94, "channel": 0}, {"type": "note_on", "time": 13, "note": 71, "velocity": 91, "channel": 0}, {"type": "note_off", "time": 76, "note": 71, "velocity": 91, "channel": 0}, {"type": "note_on", "time": 106, "note": 71, "velocity": 89, "channel": 0}, {"type": "note_off", "time": 98, "note": 71, "velocity": 89, "channel": 0}, {"type": "note_on", "time": 104, "note": 74, "velocity": 98, "channel": 0}, {"type": "note_off", "time": 94, "note": 74, "velocity": 98, "channel": 0}, {"type": "note_on", "time": 89, "note": 74, "velocity": 96, "channel": 0}, {"type": "note_off", "time": 110, "note": 74, "velocity": 96, "channel": 0}, {"type": "note_on", "time": 67, "note": 74, "velocity": 104, "channel": 0}, {"type": "note_off", "time": 148, "note": 74, "velocity": 104, "channel": 0}, {"type": "note_on", "time": 37, "note": 72, "velocity": 92, "channel": 0}, {"type": "note_off", "time": 56, "note": 72, "velocity": 92, "channel": 0}, {"type": "note_on", "time": 8, "note": 71, "velocity": 93, "channel": 0}, {"type": "note_off", "time": 75, "note": 71, "velocity": 93, "channel": 0}, {"type": "note_on", "time": 28, "note": 69, "velocity": 98, "channel": 0}, {"type": "note_off", "time": 48, "note": 69, "velocity": 98, "channel": 0}, {"type": "note_on", "time": 3, "note": 68, "velocity": 94, "channel": 0}, {"type": "note_off", "time": 109, "note": 68, "velocity": 94, "channel": 0}, {"type": "note_on", "time": 80, "note": 71, "velocity": 94, "channel": 0}, {"type": "note_off", "time": 100, "note": 71, "velocity": 94, "channel": 0}, {"type": "note_on", "time": 13, "note": 68, "velocity": 82, "channel": 0}, {"type": "note_off", "time": 62, "note": 68, "velocity": 82, "channel": 0}, {"type": "note_on", "time": 16, "note": 69, "velocity": 90, "channel": 0}, {"type": "note_off", "time": 83, "note": 69, "velocity": 90, "channel": 0}, {"type": "note_on", "time": 22, "note": 71, "velocity": 99, "channel": 0}, {"type": "note_off", "time": 59, "note": 71, "velocity": 99, "channel": 0}, {"type": "note_on", "time": 13, "note": 72, "velocity": 86, "channel": 0}, {"type": "note_off", "time": 70, "note": 72, "velocity": 86, "channel": 0}, {"type": "note_on", "time": 12, "note": 74, "velocity": 96, "channel": 0}, {"type": "note_off", "time": 80, "note": 74, "velocity": 96, "channel": 0}, {"type": "note_on", "time": 9, "note": 76, "velocity": 100, "channel": 0}, {"type": "note_off", "time": 85, "note": 76, "velocity": 100, "channel": 0}, {"type": "note_on", "time": 122, "note": 79, "velocity": 89, "channel": 0}, {"type": "note_off", "time": 101, "note": 79, "velocity": 89, "channel": 0}, {"type": "note_on", "time": 60, "note": 78, "velocity": 97, "channel": 0}, {"type": "note_off", "time": 79, "note": 78, "velocity": 97, "channel": 0}, {"type": "note_on", "time": 45, "note": 76, "velocity": 96, "channel": 0}, {"type": "note_off", "time": 68, "note": 76, "velocity": 96, "channel": 0}, {"type": "note_on", "time": 13, "note": 74, "velocity": 95, "channel": 0}, {"type": "note_off", "time": 72, "note": 74, "velocity": 95, "channel": 0}, {"type": "note_on", "time": 34, "note": 72, "velocity": 97, "channel": 0}, {"type": "note_off", "time": 62, "note": 72, "velocity": 97, "channel": 0}, {"type": "note_on", "time": 8, "note": 71, "velocity": 83, "channel": 0}, {"type": "note_off", "time": 70, "note": 71, "velocity": 83, "channel": 0}, {"type": "note_on", "time": 21, "note": 69, "velocity": 95, "channel": 0}, {"type": "note_off", "time": 78, "note": 69, "velocity": 95, "channel": 0}, {"type": "note_on", "time": 17, "note": 68, "velocity": 99, "channel": 0}, {"type": "note_off", "time": 57, "note": 68, "velocity": 99, "channel": 0}, {"type": "note_on", "time": 54, "note": 66, "velocity": 83, "channel": 0}, {"type": "note_off", "time": 72, "note": 66, "velocity": 83, "channel": 0}, {"type": "note_on", "time": 8, "note": 67, "velocity": 81, "channel": 0}, {"type": "note_off", "time": 64, "note": 67, "velocity": 81, "channel": 0}, {"type": "note_on", "time": 25, "note": 69, "velocity": 94, "channel": 0}, {"type": "note_on", "time": 73, "note": 71, "velocity": 97, "channel": 0}, {"type": "note_off", "time": 0, "note": 69, "velocity": 94, "channel": 0}, {"type": "note_off", "time": 74, "note": 71, "velocity": 97, "channel": 0}, {"type": "note_on", "time": 45, "note": 67, "velocity": 83, "channel": 0}, {"type": "note_off", "time": 69, "note": 67, "velocity": 83, "channel": 0}, {"type": "note_on", "time": 10, "note": 69, "velocity": 83, "channel": 0}, {"type": "note_off", "time": 80, "note": 69, "velocity": 83, "channel": 0}, {"type": "note_on", "time": 40, "note": 71, "velocity": 93, "channel": 0}, {"type": "note_off", "time": 79, "note": 71, "velocity": 93, "channel": 0}, {"type": "note_on", "time": 0, "note": 72, "velocity": 86, "channel": 0}, {"type": "note_off", "time": 92, "note": 72, "velocity": 86, "channel": 0}, {"type": "note_on", "time": 28, "note": 69, "velocity": 79, "channel": 0}, {"type": "note_off", "time": 67, "note": 69, "velocity": 79, "channel": 0}, {"type": "note_on", "time": 18, "note": 71, "velocity": 89, "channel": 0}, {"type": "note_off", "time": 91, "note": 71, "velocity": 89, "channel": 0}, {"type": "note_on", "time": 10, "note": 72, "velocity": 90, "channel": 0}, {"type": "note_off", "time": 65, "note": 72, "velocity": 90, "channel": 0}, {"type": "note_on", "time": 25, "note": 74, "velocity": 91, "channel": 0}, {"type": "note_off", "time": 70, "note": 74, "velocity": 91, "channel": 0}, {"type": "note_on", "time": 45, "note": 71, "velocity": 76, "channel": 0}, {"type": "note_off", "time": 78, "note": 71, "velocity": 76, "channel": 0}, {"type": "note_on", "time": 15, "note": 72, "velocity": 86, "channel": 0}, {"type": "note_off", "time": 71, "note": 72, "velocity": 86, "channel": 0}, {"type": "note_on", "time": 12, "note": 74, "velocity": 96, "channel": 0}, {"type": "note_off", "time": 63, "note": 74, "velocity": 96, "channel": 0}, {"type": "note_on", "time": 24, "note": 76, "velocity": 83, "channel": 0}, {"type": "note_off", "time": 79, "note": 76, "velocity": 83, "channel": 0}, {"type": "note_on", "time": 13, "note": 78, "velocity": 88, "channel": 0}, {"type": "note_off", "time": 59, "note": 78, "velocity": 88, "channel": 0}, {"type": "note_on", "time": 19, "note": 79, "velocity": 94, "channel": 0}, {"type": "note_off", "time": 109, "note": 79, "velocity": 94, "channel": 0}, {"type": "note_on", "time": 47, "note": 67, "velocity": 97, "channel": 0}, {"type": "note_off", "time": 72, "note": 67, "velocity": 97, "channel": 0}, {"type": "end_of_track", "time": 0}]]}