{"ticks_per_beat": 192, "tracks": [[{"type": "track_name", "name": "Melody", "time": 0}, {"type": "set_tempo", "tempo": 387096, "time": 0}, {"type": "key_signature", "key": "E", "time": 0}, {"type": "time_signature", "numerator": 4, "denominator": 4, "clocks_per_click": 24, "notated_32nd_notes_per_beat": 8, "time": 0}, {"type": "note_on", "time": 1127, "note": 67, "velocity": 114, "channel": 0}, {"type": "note_off", "time": 43, "note": 67, "velocity": 114, "channel": 0}, {"type": "note_on", "time": 12, "note": 68, "velocity": 99, "channel": 0}, {"type": "note_off", "time": 53, "note": 68, "velocity": 99, "channel": 0}, {"type": "note_on", "time": 7, "note": 67, "velocity": 115, "channel": 0}, {"type": "note_off", "time": 192, "note": 67, "velocity": 115, "channel": 0}, {"type": "note_on", "time": 11, "note": 66, "velocity": 110, "channel": 0}, {"type": "note_off", "time": 87, "note": 66, "velocity": 110, "channel": 0}, {"type": "note_on", "time": 11, "note": 64, "velocity": 107, "channel": 0}, {"type": "note_off", "time": 89, "note": 64, "velocity": 107, "channel": 0}, {"type": "note_on", "time": 8, "note": 61, "velocity": 100, "channel": 0}, {"type": "note_off", "time": 73, "note": 61, "velocity": 100, "channel": 0}, {"type": "note_on", "time": 37, "note": 56, "velocity": 88, "channel": 0}, {"type": "note_off", "time": 54, "note": 56, "velocity": 88, "channel": 0}, {"type": "note_on", "time": 15, "note": 61, "velocity": 86, "channel": 0}, {"type": "note_off", "time": 462, "note": 61, "velocity": 86, "channel": 0}, {"type": "note_on", "time": 666, "note": 71, "velocity": 120, "channel": 0}, {"type": "note_off", "time": 205, "note": 71, "velocity": 120, "channel": 0}, {"type": "note_on", "time": 17, "note": 69, "velocity": 114, "channel": 0}, {"type": "note_off", "time": 60, "note": 69, "velocity": 114, "channel": 0}, {"type": "note_on", "time": 18, "note": 71, "velocity": 114, "channel": 0}, {"type": "note_off", "time": 54, "note": 71, "velocity": 114, "channel": 0}, {"type": "note_on", "time": 22, "note": 69, "velocity": 113, "channel": 0}, {"type": "note_off", "time": 84, "note": 69, "velocity": 113, "channel": 0}, {"type": "note_on", "time": 7, "note": 67, "velocity": 115, "channel": 0}, {"type": "note_off", "time": 67, "note": 67, "velocity": 115, "channel": 0}, {"type": "note_on", "time": 19, "note": 68, "velocity": 106, "channel": 0}, {"type": "note_off", "time": 79, "note": 68, "velocity": 106, "channel": 0}, {"type": "note_on", "time": 13, "note": 68, "velocity": 95, "channel": 0}, {"type": "note_off", "time": 623, "note": 68, "velocity": 95, "channel": 0}, {"type": "note_on", "time": 37, "note": 66, "velocity": 108, "channel": 0}, {"type": "note_off", "time": 39, "note": 66, "velocity": 108, "channel": 0}, {"type": "note_on", "time": 9, "note": 68, "velocity": 110, "channel": 0}, {"type": "note_off", "time": 51, "note": 68, "velocity": 110, "channel": 0}, {"type": "note_on", "time": 14, "note": 66, "velocity": 106, "channel": 0}, {"type": "note_off", "time": 62, "note": 66, "velocity": 106, "channel": 0}, {"type": "note_on", "time": 43, "note": 67, "velocity": 110, "channel": 0}, {"type": "note_off", "time": 38, "note": 67, "velocity": 110, "channel": 0}, {"type": "note_on", "time": 10, "note": 68, "velocity": 109, "channel": 0}, {"type": "note_off", "time": 75, "note": 68, "velocity": 109, "channel": 0}, {"type": "note_on", "time": 6, "note": 68, "velocity": 112, "channel": 0}, {"type": "note_off", "time": 71, "note": 68, "velocity": 112, "channel": 0}, {"type": "note_on", "time": 38, "note": 66, "velocity": 111, "channel": 0}, {"type": "note_off", "time": 35, "note": 66, "velocity": 111, "channel": 0}, {"type": "note_on", "time": 16, "note": 68, "velocity": 110, "channel": 0}, {"type": "note_off", "time": 46, "note": 68, "velocity": 110, "channel": 0}, {"type": "note_on", "time": 12, "note": 66, "velocity": 111, "channel": 0}, {"type": "note_off", "time": 66, "note": 66, "velocity": 111, "channel": 0}, {"type": "note_on", "time": 11, "note": 64, "velocity": 108, "channel": 0}, {"type": "note_off", "time": 81, "note": 64, "velocity": 108, "channel": 0}, {"type": "note_on", "time": 6, "note": 61, "velocity": 89, "channel": 0}, {"type": "note_off", "time": 461, "note": 61, "velocity": 89, "channel": 0}, {"type": "note_on", "time": 42, "note": 56, "velocity": 93, "channel": 0}, {"type": "note_off", "time": 58, "note": 56, "velocity": 93, "channel": 0}, {"type": "note_on", "time": 13, "note": 59, "velocity": 92, "channel": 0}, {"type": "note_off", "time": 41, "note": 59, "velocity": 92, "channel": 0}, {"type": "note_on", "time": 16, "note": 63, "velocity": 88, "channel": 0}, {"type": "note_off", "time": 42, "note": 63, "velocity": 88, "channel": 0}, {"type": "note_on", "time": 44, "note": 58, "velocity": 83, "channel": 0}, {"type": "note_off", "time": 340, "note": 58, "velocity": 83, "channel": 0}, {"type": "note_on", "time": 394, "note": 68, "velocity": 121, "channel": 0}, {"type": "note_off", "time": 65, "note": 68, "velocity": 121, "channel": 0}, {"type": "note_on", "time": 10, "note": 67, "velocity": 113, "channel": 0}, {"type": "note_off", "time": 55, "note": 67, "velocity": 113, "channel": 0}, {"type": "note_on", "time": 11, "note": 64, "velocity": 87, "channel": 0}, {"type": "note_off", "time": 23, "note": 64, "velocity": 87, "channel": 0}, {"type": "note_on", "time": 11, "note": 61, "velocity": 100, "channel": 0}, {"type": "note_off", "time": 64, "note": 61, "velocity": 100, "channel": 0}, {"type": "note_on", "time": 21, "note": 64, "velocity": 114, "channel": 0}, {"type": "note_off", "time": 86, "note": 64, "velocity": 114, "channel": 0}, {"type": "note_on", "time": 7, "note": 63, "velocity": 109, "channel": 0}, {"type": "note_off", "time": 66, "note": 63, "velocity": 109, "channel": 0}, {"type": "note_on", "time": 22, "note": 61, "velocity": 96, "channel": 0}, {"type": "note_off", "time": 54, "note": 61, "velocity": 96, "channel": 0}, {"type": "note_on", "time": 6, "note": 60, "velocity": 95, "channel": 0}, {"type": "note_off", "time": 30, "note": 60, "velocity": 95, "channel": 0}, {"type": "note_on", "time": 33, "note": 63, "velocity": 108, "channel": 0}, {"type": "note_off", "time": 67, "note": 63, "velocity": 108, "channel": 0}, {"type": "note_on", "time": 7, "note": 61, "velocity": 87, "channel": 0}, {"type": "note_off", "time": 320, "note": 61, "velocity": 87, "channel": 0}, {"type": "note_on", "time": 570, "note": 68, "velocity": 114, "channel": 0}, {"type": "note_off", "time": 60, "note": 68, "velocity": 114, "channel": 0}, {"type": "note_on", "time": 45, "note": 73, "velocity": 121, "channel": 0}, {"type": "note_off", "time": 79, "note": 73, "velocity": 121, "channel": 0}, {"type": "note_on", "time": 16, "note": 75, "velocity": 122, "channel": 0}, {"type": "note_off", "time": 115, "note": 75, "velocity": 122, "channel": 0}, {"type": "note_on", "time": 4, "note": 76, "velocity": 116, "channel": 0}, {"type": "note_off", "time": 112, "note": 76, "velocity": 116, "channel": 0}, {"type": "note_on", "time": 42, "note": 68, "velocity": 110, "channel": 0}, {"type": "note_off", "time": 90, "note": 68, "velocity": 110, "channel": 0}, {"type": "note_on", "time": 47, "note": 69, "velocity": 111, "channel": 0}, {"type": "note_off", "time": 207, "note": 69, "velocity": 111, "channel": 0}, {"type": "note_on", "time": 19, "note": 71, "velocity": 107, "channel": 0}, {"type": "note_off", "time": 20, "note": 71, "velocity": 107, "channel": 0}, {"type": "note_on", "time": 4, "note": 73, "velocity": 105, "channel": 0}, {"type": "note_off", "time": 38, "note": 73, "velocity": 105, "channel": 0}, {"type": "note_on", "time": 6, "note": 71, "velocity": 100, "channel": 0}, {"type": "note_off", "time": 24, "note": 71, "velocity": 100, "channel": 0}, {"type": "note_on", "time": 8, "note": 69, "velocity": 111, "channel": 0}, {"type": "note_off", "time": 66, "note": 69, "velocity": 111, "channel": 0}, {"type": "note_on", "time": 7, "note": 71, "velocity": 93, "channel": 0}, {"type": "note_off", "time": 23, "note": 71, "velocity": 93, "channel": 0}, {"type": "note_on", "time": 6, "note": 73, "velocity": 106, "channel": 0}, {"type": "note_off", "time": 45, "note": 73, "velocity": 106, "channel": 0}, {"type": "note_on", "time": 4, "note": 71, "velocity": 104, "channel": 0}, {"type": "note_off", "time": 24, "note": 71, "velocity": 104, "channel": 0}, {"type": "note_on", "time": 16, "note": 69, "velocity": 109, "channel": 0}, {"type": "note_off", "time": 60, "note": 69, "velocity": 109, "channel": 0}, {"type": "note_on", "time": 9, "note": 71, "velocity": 100, "channel": 0}, {"type": "note_off", "time": 20, "note": 71, "velocity": 100, "channel": 0}, {"type": "note_on", "time": 5, "note": 73, "velocity": 106, "channel": 0}, {"type": "note_off", "time": 33, "note": 73, "velocity": 106, "channel": 0}, {"type": "note_on", "time": 9, "note": 71, "velocity": 97, "channel": 0}, {"type": "note_off", "time": 26, "note": 71, "velocity": 97, "channel": 0}, {"type": "note_on", "time": 16, "note": 69, "velocity": 109, "channel": 0}, {"type": "note_off", "time": 70, "note": 69, "velocity": 109, "channel": 0}, {"type": "note_on", "time": 6, "note": 68, "velocity": 105, "channel": 0}, {"type": "note_off", "time": 55, "note": 68, "velocity": 105, "channel": 0}, {"type": "note_on", "time": 9, "note": 64, "velocity": 110, "channel": 0}, {"type": "note_off", "time": 56, "note": 64, "velocity": 110, "channel": 0}, {"type": "note_on", "time": 6, "note": 61, "velocity": 95, "channel": 0}, {"type": "note_off", "time": 457, "note": 61, "velocity": 95, "channel": 0}, {"type": "note_on", "time": 22, "note": 63, "velocity": 97, "channel": 0}, {"type": "note_off", "time": 34, "note": 63, "velocity": 97, "channel": 0}, {"type": "note_on", "time": 1, "note": 68, "velocity": 106, "channel": 0}, {"type": "note_off", "time": 112, "note": 68, "velocity": 106, "channel": 0}, {"type": "note_on", "time": 17, "note": 66, "velocity": 111, "channel": 0}, {"type": "note_off", "time": 92, "note": 66, "velocity": 111, "channel": 0}, {"type": "note_on", "time": 15, "note": 61, "velocity": 103, "channel": 0}, {"type": "note_off", "time": 71, "note": 61, "velocity": 103, "channel": 0}, {"type": "note_on", "time": 25, "note": 59, "velocity": 94, "channel": 0}, {"type": "note_off", "time": 340, "note": 59, "velocity": 94, "channel": 0}, {"type": "note_on", "time": 17, "note": 68, "velocity": 88, "channel": 0}, {"type": "note_off", "time": 16, "note": 68, "velocity": 88, "channel": 0}, {"type": "note_on", "time": 5, "note": 70, "velocity": 100, "channel": 0}, {"type": "note_off", "time": 21, "note": 70, "velocity": 100, "channel": 0}, {"type": "note_on", "time": 4, "note": 68, "velocity": 102, "channel": 0}, {"type": "note_off", "time": 29, "note": 68, "velocity": 102, "channel": 0}, {"type": "note_on", "time": 35, "note": 66, "velocity": 109, "channel": 0}, {"type": "note_off", "time": 78, "note": 66, "velocity": 109, "channel": 0}, {"type": "note_on", "time": 28, "note": 64, "velocity": 109, "channel": 0}, {"type": "note_off", "time": 38, "note": 64, "velocity": 109, "channel": 0}, {"type": "note_on", "time": 19, "note": 61, "velocity": 99, "channel": 0}, {"type": "note_off", "time": 30, "note": 61, "velocity": 99, "channel": 0}, {"type": "note_on", "time": 22, "note": 56, "velocity": 92, "channel": 0}, {"type": "note_off", "time": 458, "note": 56, "velocity": 92, "channel": 0}, {"type": "note_on", "time": 30, "note": 63, "velocity": 95, "channel": 0}, {"type": "note_off", "time": 21, "note": 63, "velocity": 95, "channel": 0}, {"type": "note_on", "time": 6, "note": 65, "velocity": 102, "channel": 0}, {"type": "note_off", "time": 31, "note": 65, "velocity": 102, "channel": 0}, {"type": "note_on", "time": 4, "note": 63, "velocity": 94, "channel": 0}, {"type": "note_off", "time": 22, "note": 63, "velocity": 94, "channel": 0}, {"type": "note_on", "time": 17, "note": 60, "velocity": 88, "channel": 0}, {"type": "note_off", "time": 38, "note": 60, "velocity": 88, "channel": 0}, {"type": "note_on", "time": 6, "note": 61, "velocity": 90, "channel": 0}, {"type": "note_off", "time": 30, "note": 61, "velocity": 90, "channel": 0}, {"type": "note_on", "time": 11, "note": 63, "velocity": 94, "channel": 0}, {"type": "note_off", "time": 42, "note": 63, "velocity": 94, "channel": 0}, {"type": "note_on", "time": 13, "note": 66, "velocity": 90, "channel": 0}, {"type": "note_off", "time": 25, "note": 66, "velocity": 90, "channel": 0}, {"type": "note_on", "time": 9, "note": 68, "velocity": 107, "channel": 0}, {"type": "note_off", "time": 52, "note": 68, "velocity": 107, "channel": 0}, {"type": "note_on", "time": 10, "note": 71, "velocity": 103, "channel": 0}, {"type": "note_off", "time": 74, "note": 71, "velocity": 103, "channel": 0}, {"type": "note_on", "time": 301, "note": 68, "velocity": 100, "channel": 0}, {"type": "note_off", "time": 37, "note": 68, "velocity": 100, "channel": 0}, {"type": "note_on", "time": 4, "note": 70, "velocity": 108, "channel": 0}, {"type": "note_off", "time": 61, "note": 70, "velocity": 108, "channel": 0}, {"type": "note_on", "time": 210, "note": 68, "velocity": 113, "channel": 0}, {"type": "note_off", "time": 43, "note": 68, "velocity": 113, "channel": 0}, {"type": "note_on", "time": 3, "note": 67, "velocity": 107, "channel": 0}, {"type": "note_off", "time": 46, "note": 67, "velocity": 107, "channel": 0}, {"type": "note_on", "time": 13, "note": 58, "velocity": 91, "channel": 0}, {"type": "note_off", "time": 31, "note": 58, "velocity": 91, "channel": 0}, {"type": "note_on", "time": 16, "note": 61, "velocity": 85, "channel": 0}, {"type": "note_off", "time": 25, "note": 61, "velocity": 85, "channel": 0}, {"type": "note_on", "time": 30, "note": 64, "velocity": 113, "channel": 0}, {"type": "note_off", "time": 29, "note": 64, "velocity": 113, "channel": 0}, {"type": "note_on", "time": 6, "note": 63, "velocity": 111, "channel": 0}, {"type": "note_off", "time": 52, "note": 63, "velocity": 111, "channel": 0}, {"type": "note_on", "time": 9, "note": 61, "velocity": 100, "channel": 0}, {"type": "note_off", "time": 114, "note": 61, "velocity": 100, "channel": 0}, {"type": "note_on", "time": 22, "note": 60, "velocity": 93, "channel": 0}, {"type": "note_off", "time": 232, "note": 60, "velocity": 93, "channel": 0}, {"type": "note_on", "time": 23, "note": 64, "velocity": 95, "channel": 0}, {"type": "note_off", "time": 22, "note": 64, "velocity": 95, "channel": 0}, {"type": "note_on", "time": 8, "note": 66, "velocity": 101, "channel": 0}, {"type": "note_off", "time": 28, "note": 66, "velocity": 101, "channel": 0}, {"type": "note_on", "time": 0, "note": 69, "velocity": 109, "channel": 0}, {"type": "note_off", "time": 46, "note": 69, "velocity": 109, "channel": 0}, {"type": "note_on", "time": 7, "note": 68, "velocity": 102, "channel": 0}, {"type": "note_off", "time": 54, "note": 68, "velocity": 102, "channel": 0}, {"type": "note_on", "time": 621, "note": 68, "velocity": 114, "channel": 0}, {"type": "note_off", "time": 34, "note": 68, "velocity": 114, "channel": 0}, {"type": "note_on", "time": 13, "note": 65, "velocity": 103, "channel": 0}, {"type": "note_off", "time": 43, "note": 65, "velocity": 103, "channel": 0}, {"type": "note_on", "time": 4, "note": 66, "velocity": 106, "channel": 0}, {"type": "note_off", "time": 33, "note": 66, "velocity": 106, "channel": 0}, {"type": "note_on", "time": 14, "note": 68, "velocity": 101, "channel": 0}, {"type": "note_off", "time": 33, "note": 68, "velocity": 101, "channel": 0}, {"type": "note_on", "time": 11, "note": 69, "velocity": 109, "channel": 0}, {"type": "note_off", "time": 42, "note": 69, "velocity": 109, "channel": 0}, {"type": "note_on", "time": 5, "note": 71, "velocity": 114, "channel": 0}, {"type": "note_off", "time": 32, "note": 71, "velocity": 114, "channel": 0}, {"type": "note_on", "time": 9, "note": 73, "velocity": 100, "channel": 0}, {"type": "note_off", "time": 34, "note": 73, "velocity": 100, "channel": 0}, {"type": "note_on", "time": 7, "note": 76, "velocity": 109, "channel": 0}, {"type": "note_off", "time": 63, "note": 76, "velocity": 109, "channel": 0}, {"type": "note_on", "time": 25, "note": 73, "velocity": 80, "channel": 0}, {"type": "note_off", "time": 26, "note": 73, "velocity": 80, "channel": 0}, {"type": "note_on", "time": 12, "note": 76, "velocity": 100, "channel": 0}, {"type": "note_off", "time": 99, "note": 76, "velocity": 100, "channel": 0}, {"type": "note_on", "time": 203, "note": 71, "velocity": 100, "channel": 0}, {"type": "note_off", "time": 27, "note": 71, "velocity": 100, "channel": 0}, {"type": "note_on", "time": 6, "note": 69, "velocity": 101, "channel": 0}, {"type": "note_off", "time": 31, "note": 69, "velocity": 101, "channel": 0}, {"type": "note_on", "time": 18, "note": 66, "velocity": 107, "channel": 0}, {"type": "note_off", "time": 40, "note": 66, "velocity": 107, "channel": 0}, {"type": "note_on", "time": 17, "note": 68, "velocity": 101, "channel": 0}, {"type": "note_off", "time": 33, "note": 68, "velocity": 101, "channel": 0}, {"type": "note_on", "time": 7, "note": 69, "velocity": 100, "channel": 0}, {"type": "note_off", "time": 31, "note": 69, "velocity": 100, "channel": 0}, {"type": "note_on", "time": 8, "note": 71, "velocity": 107, "channel": 0}, {"type": "note_off", "time": 44, "note": 71, "velocity": 107, "channel": 0}, {"type": "note_on", "time": 7, "note": 73, "velocity": 102, "channel": 0}, {"type": "note_off", "time": 31, "note": 73, "velocity": 102, "channel": 0}, {"type": "note_on", "time": 462, "note": 73, "velocity": 119, "channel": 0}, {"type": "note_off", "time": 36, "note": 73, "velocity": 119, "channel": 0}, {"type": "note_on", "time": 15, "note": 72, "velocity": 114, "channel": 0}, {"type": "note_off", "time": 35, "note": 72, "velocity": 114, "channel": 0}, {"type": "note_on", "time": 9, "note": 71, "velocity": 103, "channel": 0}, {"type": "note_off", "time": 31, "note": 71, "velocity": 103, "channel": 0}, {"type": "note_on", "time": 21, "note": 69, "velocity": 104, "channel": 0}, {"type": "note_off", "time": 61, "note": 69, "velocity": 104, "channel": 0}, {"type": "note_on", "time": 170, "note": 73, "velocity": 101, "channel": 0}, {"type": "note_off", "time": 51, "note": 73, "velocity": 101, "channel": 0}, {"type": "note_on", "time": 11, "note": 72, "velocity": 113, "channel": 0}, {"type": "note_off", "time": 42, "note": 72, "velocity": 113, "channel": 0}, {"type": "note_on", "time": 4, "note": 71, "velocity": 101, "channel": 0}, {"type": "note_off", "time": 31, "note": 71, "velocity": 101, "channel": 0}, {"type": "note_on", "time": 5, "note": 68, "velocity": 98, "channel": 0}, {"type": "note_off", "time": 63, "note": 68, "velocity": 98, "channel": 0}, {"type": "note_on", "time": 158, "note": 73, "velocity": 111, "channel": 0}, {"type": "note_off", "time": 42, "note": 73, "velocity": 111, "channel": 0}, {"type": "note_on", "time": 4, "note": 72, "velocity": 116, "channel": 0}, {"type": "note_off", "time": 43, "note": 72, "velocity": 116, "channel": 0}, {"type": "note_on", "time": 4, "note": 71, "velocity": 106, "channel": 0}, {"type": "note_off", "time": 28, "note": 71, "velocity": 106, "channel": 0}, {"type": "note_on", "time": 12, "note": 66, "velocity": 106, "channel": 0}, {"type": "note_off", "time": 61, "note": 66, "velocity": 106, "channel": 0}, {"type": "note_on", "time": 172, "note": 73, "velocity": 109, "channel": 0}, {"type": "note_off", "time": 46, "note": 73, "velocity": 109, "channel": 0}, {"type": "note_on", "time": 5, "note": 72, "velocity": 116, "channel": 0}, {"type": "note_off", "time": 56, "note": 72, "velocity": 116, "channel": 0}, {"type": "note_on", "time": 4, "note": 71, "velocity": 105, "channel": 0}, {"type": "note_off", "time": 26, "note": 71, "velocity": 105, "channel": 0}, {"type": "note_on", "time": 16, "note": 64, "velocity": 109, "channel": 0}, {"type": "note_off", "time": 70, "note": 64, "velocity": 109, "channel": 0}, {"type": "note_on", "time": 381, "note": 68, "velocity": 121, "channel": 0}, {"type": "note_off", "time": 62, "note": 68, "velocity": 121, "channel": 0}, {"type": "note_on", "time": 9, "note": 66, "velocity": 106, "channel": 0}, {"type": "note_off", "time": 48, "note": 66, "velocity": 106, "channel": 0}, {"type": "note_on", "time": 12, "note": 69, "velocity": 111, "channel": 0}, {"type": "note_off", "time": 52, "note": 69, "velocity": 111, "channel": 0}, {"type": "note_on", "time": 5, "note": 73, "velocity": 118, "channel": 0}, {"type": "note_off", "time": 60, "note": 73, "velocity": 118, "channel": 0}, {"type": "note_on", "time": 19, "note": 76, "velocity": 108, "channel": 0}, {"type": "note_off", "time": 106, "note": 76, "velocity": 108, "channel": 0}, {"type": "note_on", "time": 100, "note": 79, "velocity": 121, "channel": 0}, {"type": "note_off", "time": 50, "note": 79, "velocity": 121, "channel": 0}, {"type": "note_on", "time": 7, "note": 80, "velocity": 113, "channel": 0}, {"type": "note_off", "time": 107, "note": 80, "velocity": 113, "channel": 0}, {"type": "note_on", "time": 30, "note": 78, "velocity": 119, "channel": 0}, {"type": "note_off", "time": 84, "note": 78, "velocity": 119, "channel": 0}, {"type": "note_on", "time": 10, "note": 76, "velocity": 122, "channel": 0}, {"type": "note_off", "time": 89, "note": 76, "velocity": 122, "channel": 0}, {"type": "note_on", "time": 7, "note": 75, "velocity": 124, "channel": 0}, {"type": "note_off", "time": 82, "note": 75, "velocity": 124, "channel": 0}, {"type": "note_on", "time": 6, "note": 73, "velocity": 116, "channel": 0}, {"type": "note_off", "time": 84, "note": 73, "velocity": 116, "channel": 0}, {"type": "note_on", "time": 8, "note": 71, "velocity": 111, "channel": 0}, {"type": "note_off", "time": 20, "note": 71, "velocity": 111, "channel": 0}, {"type": "note_on", "time": 4, "note": 73, "velocity": 111, "channel": 0}, {"type": "note_off", "time": 25, "note": 73, "velocity": 111, "channel": 0}, {"type": "note_on", "time": 13, "note": 71, "velocity": 108, "channel": 0}, {"type": "note_off", "time": 35, "note": 71, "velocity": 108, "channel": 0}, {"type": "note_on", "time": 10, "note": 69, "velocity": 110, "channel": 0}, {"type": "note_off", "time": 72, "note": 69, "velocity": 110, "channel": 0}, {"type": "note_on", "time": 9, "note": 68, "velocity": 104, "channel": 0}, {"type": "note_off", "time": 46, "note": 68, "velocity": 104, "channel": 0}, {"type": "note_on", "time": 10, "note": 63, "velocity": 102, "channel": 0}, {"type": "note_off", "time": 56, "note": 63, "velocity": 102, "channel": 0}, {"type": "note_on", "time": 3, "note": 66, "velocity": 118, "channel": 0}, {"type": "note_off", "time": 65, "note": 66, "velocity": 118, "channel": 0}, {"type": "note_on", "time": 20, "note": 63, "velocity": 113, "channel": 0}, {"type": "note_off", "time": 76, "note": 63, "velocity": 113, "channel": 0}, {"type": "note_on", "time": 4, "note": 64, "velocity": 113, "channel": 0}, {"type": "note_off", "time": 99, "note": 64, "velocity": 113, "channel": 0}, {"type": "note_on", "time": 8, "note": 68, "velocity": 115, "channel": 0}, {"type": "note_off", "time": 87, "note": 68, "velocity": 115, "channel": 0}, {"type": "note_on", "time": 9, "note": 71, "velocity": 113, "channel": 0}, {"type": "note_off", "time": 74, "note": 71, "velocity": 113, "channel": 0}, {"type": "note_on", "time": 23, "note": 68, "velocity": 99, "channel": 0}, {"type": "note_off", "time": 77, "note": 68, "velocity": 99, "channel": 0}, {"type": "note_on", "time": 9, "note": 69, "velocity": 112, "channel": 0}, {"type": "note_off", "time": 79, "note": 69, "velocity": 112, "channel": 0}, {"type": "note_on", "time": 23, "note": 73, "velocity": 117, "channel": 0}, {"type": "note_off", "time": 67, "note": 73, "velocity": 117, "channel": 0}, {"type": "note_on", "time": 19, "note": 76, "velocity": 113, "channel": 0}, {"type": "note_off", "time": 114, "note": 76, "velocity": 113, "channel": 0}, {"type": "note_on", "time": 24, "note": 73, "velocity": 109, "channel": 0}, {"type": "note_off", "time": 48, "note": 73, "velocity": 109, "channel": 0}, {"type": "note_on", "time": 1, "note": 74, "velocity": 106, "channel": 0}, {"type": "note_off", "time": 84, "note": 74, "velocity": 106, "channel": 0}, {"type": "note_on", "time": 31, "note": 72, "velocity": 112, "channel": 0}, {"type": "note_off", "time": 79, "note": 72, "velocity": 112, "channel": 0}, {"type": "note_on", "time": 5, "note": 71, "velocity": 111, "channel": 0}, {"type": "note_off", "time": 69, "note": 71, "velocity": 111, "channel": 0}, {"type": "note_on", "time": 24, "note": 69, "velocity": 111, "channel": 0}, {"type": "note_off", "time": 69, "note": 69, "velocity": 111, "channel": 0}, {"type": "note_on", "time": 38, "note": 67, "velocity": 114, "channel": 0}, {"type": "note_off", "time": 84, "note": 67, "velocity": 114, "channel": 0}, {"type": "note_on", "time": 3, "note": 68, "velocity": 114, "channel": 0}, {"type": "note_off", "time": 95, "note": 68, "velocity": 114, "channel": 0}, {"type": "note_on", "time": 7, "note": 61, "velocity": 94, "channel": 0}, {"type": "note_off", "time": 544, "note": 61, "velocity": 94, "channel": 0}, {"type": "note_on", "time": 221, "note": 69, "velocity": 112, "channel": 0}, {"type": "note_off", "time": 78, "note": 69, "velocity": 112, "channel": 0}, {"type": "note_on", "time": 22, "note": 71, "velocity": 114, "channel": 0}, {"type": "note_off", "time": 71, "note": 71, "velocity": 114, "channel": 0}, {"type": "note_on", "time": 9, "note": 72, "velocity": 116, "channel": 0}, {"type": "note_off", "time": 83, "note": 72, "velocity": 116, "channel": 0}, {"type": "note_on", "time": 7, "note": 74, "velocity": 121, "channel": 0}, {"type": "note_off", "time": 77, "note": 74, "velocity": 121, "channel": 0}, {"type": "note_on", "time": 10, "note": 76, "velocity": 122, "channel": 0}, {"type": "note_off", "time": 87, "note": 76, "velocity": 122, "channel": 0}, {"type": "note_on", "time": 12, "note": 78, "velocity": 116, "channel": 0}, {"type": "note_off", "time": 74, "note": 78, "velocity": 116, "channel": 0}, {"type": "note_on", "time": 38, "note": 81, "velocity": 116, "channel": 0}, {"type": "note_off", "time": 91, "note": 81, "velocity": 116, "channel": 0}, {"type": "note_on", "time": 5, "note": 80, "velocity": 115, "channel": 0}, {"type": "note_off", "time": 287, "note": 80, "velocity": 115, "channel": 0}, {"type": "note_on", "time": 20, "note": 80, "velocity": 98, "channel": 0}, {"type": "note_off", "time": 116, "note": 80, "velocity": 98, "channel": 0}, {"type": "note_on", "time": 428, "note": 80, "velocity": 112, "channel": 0}, {"type": "note_off", "time": 42, "note": 80, "velocity": 112, "channel": 0}, {"type": "note_on", "time": 5, "note": 81, "velocity": 92, "channel": 0}, {"type": "note_off", "time": 116, "note": 81, "velocity": 92, "channel": 0}, {"type": "note_on", "time": 42, "note": 77, "velocity": 75, "channel": 0}, {"type": "note_off", "time": 30, "note": 77, "velocity": 75, "channel": 0}, {"type": "note_on", "time": 55, "note": 78, "velocity": 119, "channel": 0}, {"type": "note_off", "time": 86, "note": 78, "velocity": 119, "channel": 0}, {"type": "note_on", "time": 20, "note": 76, "velocity": 121, "channel": 0}, {"type": "note_off", "time": 70, "note": 76, "velocity": 121, "channel": 0}, {"type": "note_on", "time": 4, "note": 75, "velocity": 119, "channel": 0}, {"type": "note_off", "time": 78, "note": 75, "velocity": 119, "channel": 0}, {"type": "note_on", "time": 23, "note": 73, "velocity": 113, "channel": 0}, {"type": "note_off", "time": 87, "note": 73, "velocity": 113, "channel": 0}, {"type": "note_on", "time": 9, "note": 68, "velocity": 111, "channel": 0}, {"type": "note_off", "time": 89, "note": 68, "velocity": 111, "channel": 0}, {"type": "note_on", "time": 78, "note": 61, "velocity": 100, "channel": 0}, {"type": "note_off", "time": 24, "note": 61, "velocity": 100, "channel": 0}, {"type": "note_on", "time": 11, "note": 68, "velocity": 112, "channel": 0}, {"type": "note_off", "time": 142, "note": 68, "velocity": 112, "channel": 0}, {"type": "note_on", "time": 25, "note": 64, "velocity": 108, "channel": 0}, {"type": "note_off", "time": 90, "note": 64, "velocity": 108, "channel": 0}, {"type": "note_on", "time": 95, "note": 58, "velocity": 96, "channel": 0}, {"type": "note_off", "time": 24, "note": 58, "velocity": 96, "channel": 0}, {"type": "note_on", "time": 10, "note": 64, "velocity": 111, "channel": 0}, {"type": "note_off", "time": 138, "note": 64, "velocity": 111, "channel": 0}, {"type": "note_on", "time": 13, "note": 61, "velocity": 102, "channel": 0}, {"type": "note_off", "time": 104, "note": 61, "velocity": 102, "channel": 0}, {"type": "note_on", "time": 20, "note": 56, "velocity": 88, "channel": 0}, {"type": "note_off", "time": 46, "note": 56, "velocity": 88, "channel": 0}, {"type": "note_on", "time": 23, "note": 59, "velocity": 91, "channel": 0}, {"type": "note_off", "time": 115, "note": 59, "velocity": 91, "channel": 0}, {"type": "note_on", "time": 13, "note": 58, "velocity": 94, "channel": 0}, {"type": "note_off", "time": 222, "note": 58, "velocity": 94, "channel": 0}, {"type": "note_on", "time": 41, "note": 61, "velocity": 93, "channel": 0}, {"type": "note_off", "time": 27, "note": 61, "velocity": 93, "channel": 0}, {"type": "note_on", "time": 10, "note": 64, "velocity": 97, "channel": 0}, {"type": "note_off", "time": 30, "note": 64, "velocity": 97, "channel": 0}, {"type": "note_on", "time": 35, "note": 68, "velocity": 116, "channel": 0}, {"type": "note_off", "time": 66, "note": 68, "velocity": 116, "channel": 0}, {"type": "note_on", "time": 16, "note": 67, "velocity": 111, "channel": 0}, {"type": "note_off", "time": 57, "note": 67, "velocity": 111, "channel": 0}, {"type": "note_on", "time": 253, "note": 69, "velocity": 114, "channel": 0}, {"type": "note_off", "time": 69, "note": 69, "velocity": 114, "channel": 0}, {"type": "note_on", "time": 23, "note": 68, "velocity": 112, "channel": 0}, {"type": "note_off", "time": 70, "note": 68, "velocity": 112, "channel": 0}, {"type": "note_on", "time": 213, "note": 75, "velocity": 125, "channel": 0}, {"type": "note_off", "time": 84, "note": 75, "velocity": 125, "channel": 0}, {"type": "note_on", "time": 5, "note": 73, "velocity": 110, "channel": 0}, {"type": "note_off", "time": 218, "note": 73, "velocity": 110, "channel": 0}, {"type": "note_on", "time": 330, "note": 68, "velocity": 108, "channel": 0}, {"type": "note_off", "time": 26, "note": 68, "velocity": 108, "channel": 0}, {"type": "note_on", "time": 17, "note": 70, "velocity": 93, "channel": 0}, {"type": "note_off", "time": 26, "note": 70, "velocity": 93, "channel": 0}, {"type": "note_on", "time": 10, "note": 73, "velocity": 115, "channel": 0}, {"type": "note_off", "time": 67, "note": 73, "velocity": 115, "channel": 0}, {"type": "note_on", "time": 41, "note": 75, "velocity": 123, "channel": 0}, {"type": "note_off", "time": 98, "note": 75, "velocity": 123, "channel": 0}, {"type": "note_on", "time": 25, "note": 73, "velocity": 106, "channel": 0}, {"type": "note_off", "time": 40, "note": 73, "velocity": 106, "channel": 0}, {"type": "note_on", "time": 11, "note": 75, "velocity": 120, "channel": 0}, {"type": "note_off", "time": 109, "note": 75, "velocity": 120, "channel": 0}, {"type": "note_on", "time": 9, "note": 73, "velocity": 115, "channel": 0}, {"type": "note_off", "time": 92, "note": 73, "velocity": 115, "channel": 0}, {"type": "note_on", "time": 20, "note": 69, "velocity": 105, "channel": 0}, {"type": "note_off", "time": 46, "note": 69, "velocity": 105, "channel": 0}, {"type": "note_on", "time": 2, "note": 70, "velocity": 105, "channel": 0}, {"type": "note_off", "time": 85, "note": 70, "velocity": 105, "channel": 0}, {"type": "note_on", "time": 8, "note": 70, "velocity": 112, "channel": 0}, {"type": "note_off", "time": 86, "note": 70, "velocity": 112, "channel": 0}, {"type": "note_on", "time": 65, "note": 73, "velocity": 114, "channel": 0}, {"type": "note_off", "time": 77, "note": 73, "velocity": 114, "channel": 0}, {"type": "note_on", "time": 35, "note": 75, "velocity": 118, "channel": 0}, {"type": "note_off", "time": 76, "note": 75, "velocity": 118, "channel": 0}, {"type": "note_on", "time": 8, "note": 73, "velocity": 114, "channel": 0}, {"type": "note_off", "time": 84, "note": 73, "velocity": 114, "channel": 0}, {"type": "note_on", "time": 7, "note": 75, "velocity": 120, "channel": 0}, {"type": "note_off", "time": 75, "note": 75, "velocity": 120, "channel": 0}, {"type": "note_on", "time": 13, "note": 74, "velocity": 107, "channel": 0}, {"type": "note_off", "time": 15, "note": 74, "velocity": 107, "channel": 0}, {"type": "note_on", "time": 2, "note": 76, "velocity": 114, "channel": 0}, {"type": "note_off", "time": 66, "note": 76, "velocity": 114, "channel": 0}, {"type": "note_on", "time": 16, "note": 68, "velocity": 103, "channel": 0}, {"type": "note_off", "time": 33, "note": 68, "velocity": 103, "channel": 0}, {"type": "note_on", "time": 11, "note": 69, "velocity": 98, "channel": 0}, {"type": "note_off", "time": 82, "note": 69, "velocity": 98, "channel": 0}, {"type": "note_on", "time": 23, "note": 69, "velocity": 114, "channel": 0}, {"type": "note_off", "time": 69, "note": 69, "velocity": 114, "channel": 0}, {"type": "note_on", "time": 61, "note": 73, "velocity": 115, "channel": 0}, {"type": "note_off", "time": 77, "note": 73, "velocity": 115, "channel": 0}, {"type": "note_on", "time": 33, "note": 75, "velocity": 122, "channel": 0}, {"type": "note_off", "time": 78, "note": 75, "velocity": 122, "channel": 0}, {"type": "note_on", "time": 3, "note": 73, "velocity": 116, "channel": 0}, {"type": "note_off", "time": 84, "note": 73, "velocity": 116, "channel": 0}, {"type": "note_on", "time": 7, "note": 75, "velocity": 122, "channel": 0}, {"type": "note_off", "time": 90, "note": 75, "velocity": 122, "channel": 0}, {"type": "note_on", "time": 7, "note": 73, "velocity": 116, "channel": 0}, {"type": "note_off", "time": 80, "note": 73, "velocity": 116, "channel": 0}, {"type": "note_on", "time": 23, "note": 68, "velocity": 97, "channel": 0}, {"type": "note_off", "time": 46, "note": 68, "velocity": 97, "channel": 0}, {"type": "note_on", "time": 5, "note": 70, "velocity": 96, "channel": 0}, {"type": "note_off", "time": 65, "note": 70, "velocity": 96, "channel": 0}, {"type": "note_on", "time": 18, "note": 70, "velocity": 111, "channel": 0}, {"type": "note_off", "time": 76, "note": 70, "velocity": 111, "channel": 0}, {"type": "note_on", "time": 66, "note": 75, "velocity": 118, "channel": 0}, {"type": "note_off", "time": 74, "note": 75, "velocity": 118, "channel": 0}, {"type": "note_on", "time": 74, "note": 75, "velocity": 117, "channel": 0}, {"type": "note_off", "time": 96, "note": 75, "velocity": 117, "channel": 0}, {"type": "note_on", "time": 5, "note": 73, "velocity": 114, "channel": 0}, {"type": "note_off", "time": 90, "note": 73, "velocity": 114, "channel": 0}, {"type": "note_on", "time": 17, "note": 69, "velocity": 113, "channel": 0}, {"type": "note_off", "time": 80, "note": 69, "velocity": 113, "channel": 0}, {"type": "note_on", "time": 15, "note": 68, "velocity": 113, "channel": 0}, {"type": "note_off", "time": 80, "note": 68, "velocity": 113, "channel": 0}, {"type": "note_on", "time": 14, "note": 66, "velocity": 115, "channel": 0}, {"type": "note_off", "time": 79, "note": 66, "velocity": 115, "channel": 0}, {"type": "note_on", "time": 15, "note": 64, "velocity": 116, "channel": 0}, {"type": "note_off", "time": 72, "note": 64, "velocity": 116, "channel": 0}, {"type": "note_on", "time": 29, "note": 61, "velocity": 103, "channel": 0}, {"type": "note_off", "time": 61, "note": 61, "velocity": 103, "channel": 0}, {"type": "note_on", "time": 22, "note": 56, "velocity": 98, "channel": 0}, {"type": "note_off", "time": 268, "note": 56, "velocity": 98, "channel": 0}, {"type": "note_on", "time": 12, "note": 59, "velocity": 81, "channel": 0}, {"type": "note_off", "time": 64, "note": 59, "velocity": 81, "channel": 0}, {"type": "note_on", "time": 49, "note": 63, "velocity": 112, "channel": 0}, {"type": "note_off", "time": 92, "note": 63, "velocity": 112, "channel": 0}, {"type": "note_on", "time": 23, "note": 60, "velocity": 88, "channel": 0}, {"type": "note_off", "time": 49, "note": 60, "velocity": 88, "channel": 0}, {"type": "note_on", "time": 14, "note": 61, "velocity": 88, "channel": 0}, {"type": "note_off", "time": 71, "note": 61, "velocity": 88, "channel": 0}, {"type": "note_on", "time": 35, "note": 63, "velocity": 9, "channel": 0}, {"type": "note_off", "time": 79, "note": 63, "velocity": 9, "channel": 0}, {"type": "note_on", "time": 21, "note": 64, "velocity": 101, "channel": 0}, {"type": "note_off", "time": 75, "note": 64, "velocity": 101, "channel": 0}, {"type": "note_on", "time": 7, "note": 66, "velocity": 110, "channel": 0}, {"type": "note_off", "time": 78, "note": 66, "velocity": 110, "channel": 0}, {"type": "note_on", "time": 41, "note": 68, "velocity": 107, "channel": 0}, {"type": "note_off", "time": 61, "note": 68, "velocity": 107, "channel": 0}, {"type": "note_on", "time": 25, "note": 71, "velocity": 106, "channel": 0}, {"type": "note_off", "time": 69, "note": 71, "velocity": 106, "channel": 0}, {"type": "note_on", "time": 42, "note": 75, "velocity": 118, "channel": 0}, {"type": "note_off", "time": 83, "note": 75, "velocity": 118, "channel": 0}, {"type": "note_on", "time": 9, "note": 73, "velocity": 108, "channel": 0}, {"type": "note_off", "time": 63, "note": 73, "velocity": 108, "channel": 0}, {"type": "note_on", "time": 25, "note": 71, "velocity": 101, "channel": 0}, {"type": "note_off", "time": 66, "note": 71, "velocity": 101, "channel": 0}, {"type": "note_on", "time": 30, "note": 68, "velocity": 102, "channel": 0}, {"type": "note_off", "time": 57, "note": 68, "velocity": 102, "channel": 0}, {"type": "note_on", "time": 30, "note": 70, "velocity": 103, "channel": 0}, {"type": "note_off", "time": 73, "note": 70, "velocity": 103, "channel": 0}, {"type": "note_on", "time": 35, "note": 61, "velocity": 87, "channel": 0}, {"type": "note_off", "time": 64, "note": 61, "velocity": 87, "channel": 0}, {"type": "note_on", "time": 12, "note": 64, "velocity": 96, "channel": 0}, {"type": "note_off", "time": 90, "note": 64, "velocity": 96, "channel": 0}, {"type": "note_on", "time": 30, "note": 68, "velocity": 102, "channel": 0}, {"type": "note_off", "time": 67, "note": 68, "velocity": 102, "channel": 0}, {"type": "note_on", "time": 8, "note": 67, "velocity": 99, "channel": 0}, {"type": "note_off", "time": 102, "note": 67, "velocity": 99, "channel": 0}, {"type": "note_on", "time": 9, "note": 66, "velocity": 109, "channel": 0}, {"type": "note_off", "time": 61, "note": 66, "velocity": 109, "channel": 0}, {"type": "note_on", "time": 31, "note": 64, "velocity": 105, "channel": 0}, {"type": "note_off", "time": 47, "note": 64, "velocity": 105, "channel": 0}, {"type": "note_on", "time": 77, "note": 61, "velocity": 92, "channel": 0}, {"type": "note_off", "time": 35, "note": 61, "velocity": 92, "channel": 0}, {"type": "note_on", "time": 5, "note": 63, "velocity": 99, "channel": 0}, {"type": "note_off", "time": 124, "note": 63, "velocity": 99, "channel": 0}, {"type": "note_on", "time": 10, "note": 61, "velocity": 97, "channel": 0}, {"type": "note_off", "time": 180, "note": 61, "velocity": 97, "channel": 0}, {"type": "note_on", "time": 546, "note": 69, "velocity": 113, "channel": 0}, {"type": "note_off", "time": 73, "note": 69, "velocity": 113, "channel": 0}, {"type": "note_on", "time": 19, "note": 73, "velocity": 114, "channel": 0}, {"type": "note_off", "time": 82, "note": 73, "velocity": 114, "channel": 0}, {"type": "note_on", "time": 17, "note": 76, "velocity": 124, "channel": 0}, {"type": "note_off", "time": 90, "note": 76, "velocity": 124, "channel": 0}, {"type": "note_on", "time": 39, "note": 79, "velocity": 123, "channel": 0}, {"type": "note_off", "time": 69, "note": 79, "velocity": 123, "channel": 0}, {"type": "note_on", "time": 11, "note": 80, "velocity": 118, "channel": 0}, {"type": "note_off", "time": 443, "note": 80, "velocity": 118, "channel": 0}, {"type": "note_on", "time": 7, "note": 79, "velocity": 111, "channel": 0}, {"type": "note_off", "time": 58, "note": 79, "velocity": 111, "channel": 0}, {"type": "note_on", "time": 10, "note": 76, "velocity": 112, "channel": 0}, {"type": "note_off", "time": 47, "note": 76, "velocity": 112, "channel": 0}, {"type": "note_on", "time": 15, "note": 76, "velocity": 119, "channel": 0}, {"type": "note_off", "time": 70, "note": 76, "velocity": 119, "channel": 0}, {"type": "note_on", "time": 38, "note": 73, "velocity": 109, "channel": 0}, {"type": "note_off", "time": 80, "note": 73, "velocity": 109, "channel": 0}, {"type": "note_on", "time": 37, "note": 71, "velocity": 105, "channel": 0}, {"type": "note_off", "time": 71, "note": 71, "velocity": 105, "channel": 0}, {"type": "note_on", "time": 18, "note": 68, "velocity": 108, "channel": 0}, {"type": "note_off", "time": 46, "note": 68, "velocity": 108, "channel": 0}, {"type": "note_on", "time": 56, "note": 67, "velocity": 116, "channel": 0}, {"type": "note_off", "time": 61, "note": 67, "velocity": 116, "channel": 0}, {"type": "note_on", "time": 25, "note": 66, "velocity": 113, "channel": 0}, {"type": "note_off", "time": 83, "note": 66, "velocity": 113, "channel": 0}, {"type": "note_on", "time": 13, "note": 64, "velocity": 113, "channel": 0}, {"type": "note_off", "time": 57, "note": 64, "velocity": 113, "channel": 0}, {"type": "note_on", "time": 5, "note": 61, "velocity": 105, "channel": 0}, {"type": "note_off", "time": 68, "note": 61, "velocity": 105, "channel": 0}, {"type": "note_on", "time": 8, "note": 56, "velocity": 94, "channel": 0}, {"type": "note_off", "time": 26, "note": 56, "velocity": 94, "channel": 0}, {"type": "note_on", "time": 17, "note": 64, "velocity": 116, "channel": 0}, {"type": "note_off", "time": 230, "note": 64, "velocity": 116, "channel": 0}, {"type": "note_on", "time": 10, "note": 66, "velocity": 105, "channel": 0}, {"type": "note_off", "time": 359, "note": 66, "velocity": 105, "channel": 0}, {"type": "note_on", "time": 19, "note": 68, "velocity": 93, "channel": 0}, {"type": "note_off", "time": 20, "note": 68, "velocity": 93, "channel": 0}, {"type": "note_on", "time": 5, "note": 70, "velocity": 97, "channel": 0}, {"type": "note_off", "time": 30, "note": 70, "velocity": 97, "channel": 0}, {"type": "note_on", "time": 7, "note": 68, "velocity": 103, "channel": 0}, {"type": "note_off", "time": 33, "note": 68, "velocity": 103, "channel": 0}, {"type": "note_on", "time": 15, "note": 66, "velocity": 103, "channel": 0}, {"type": "note_off", "time": 58, "note": 66, "velocity": 103, "channel": 0}, {"type": "note_on", "time": 15, "note": 68, "velocity": 89, "channel": 0}, {"type": "note_off", "time": 24, "note": 68, "velocity": 89, "channel": 0}, {"type": "note_on", "time": 5, "note": 70, "velocity": 100, "channel": 0}, {"type": "note_off", "time": 20, "note": 70, "velocity": 100, "channel": 0}, {"type": "note_on", "time": 8, "note": 68, "velocity": 104, "channel": 0}, {"type": "note_off", "time": 40, "note": 68, "velocity": 104, "channel": 0}, {"type": "note_on", "time": 12, "note": 66, "velocity": 107, "channel": 0}, {"type": "note_off", "time": 85, "note": 66, "velocity": 107, "channel": 0}, {"type": "note_on", "time": 19, "note": 64, "velocity": 109, "channel": 0}, {"type": "note_off", "time": 71, "note": 64, "velocity": 109, "channel": 0}, {"type": "note_on", "time": 22, "note": 61, "velocity": 101, "channel": 0}, {"type": "note_off", "time": 77, "note": 61, "velocity": 101, "channel": 0}, {"type": "note_on", "time": 23, "note": 56, "velocity": 98, "channel": 0}, {"type": "note_off", "time": 237, "note": 56, "velocity": 98, "channel": 0}, {"type": "note_on", "time": 16, "note": 63, "velocity": 94, "channel": 0}, {"type": "note_off", "time": 25, "note": 63, "velocity": 94, "channel": 0}, {"type": "note_on", "time": 4, "note": 65, "velocity": 106, "channel": 0}, {"type": "note_off", "time": 28, "note": 65, "velocity": 106, "channel": 0}, {"type": "note_on", "time": 5, "note": 63, "velocity": 101, "channel": 0}, {"type": "note_off", "time": 28, "note": 63, "velocity": 101, "channel": 0}, {"type": "note_on", "time": 7, "note": 60, "velocity": 95, "channel": 0}, {"type": "note_off", "time": 31, "note": 60, "velocity": 95, "channel": 0}, {"type": "note_on", "time": 5, "note": 61, "velocity": 90, "channel": 0}, {"type": "note_off", "time": 34, "note": 61, "velocity": 90, "channel": 0}, {"type": "note_on", "time": 15, "note": 64, "velocity": 98, "channel": 0}, {"type": "note_off", "time": 23, "note": 64, "velocity": 98, "channel": 0}, {"type": "note_on", "time": 4, "note": 63, "velocity": 101, "channel": 0}, {"type": "note_off", "time": 24, "note": 63, "velocity": 101, "channel": 0}, {"type": "note_on", "time": 21, "note": 66, "velocity": 105, "channel": 0}, {"type": "note_off", "time": 28, "note": 66, "velocity": 105, "channel": 0}, {"type": "note_on", "time": 8, "note": 68, "velocity": 102, "channel": 0}, {"type": "note_off", "time": 50, "note": 68, "velocity": 102, "channel": 0}, {"type": "note_on", "time": 434, "note": 75, "velocity": 113, "channel": 0}, {"type": "note_off", "time": 46, "note": 75, "velocity": 113, "channel": 0}, {"type": "note_on", "time": 6, "note": 72, "velocity": 114, "channel": 0}, {"type": "note_off", "time": 30, "note": 72, "velocity": 114, "channel": 0}, {"type": "note_on", "time": 2, "note": 73, "velocity": 115, "channel": 0}, {"type": "note_off", "time": 52, "note": 73, "velocity": 115, "channel": 0}, {"type": "note_on", "time": 16, "note": 68, "velocity": 113, "channel": 0}, {"type": "note_off", "time": 47, "note": 68, "velocity": 113, "channel": 0}, {"type": "note_on", "time": 32, "note": 61, "velocity": 93, "channel": 0}, {"type": "note_off", "time": 28, "note": 61, "velocity": 93, "channel": 0}, {"type": "note_on", "time": 32, "note": 68, "velocity": 101, "channel": 0}, {"type": "note_off", "time": 130, "note": 68, "velocity": 101, "channel": 0}, {"type": "note_on", "time": 316, "note": 63, "velocity": 97, "channel": 0}, {"type": "note_off", "time": 35, "note": 63, "velocity": 97, "channel": 0}, {"type": "note_on", "time": 11, "note": 67, "velocity": 102, "channel": 0}, {"type": "note_off", "time": 66, "note": 67, "velocity": 102, "channel": 0}, {"type": "note_on", "time": 24, "note": 69, "velocity": 110, "channel": 0}, {"type": "note_off", "time": 95, "note": 69, "velocity": 110, "channel": 0}, {"type": "note_on", "time": 14, "note": 68, "velocity": 103, "channel": 0}, {"type": "note_off", "time": 122, "note": 68, "velocity": 103, "channel": 0}, {"type": "note_on", "time": 30, "note": 63, "velocity": 109, "channel": 0}, {"type": "note_off", "time": 48, "note": 63, "velocity": 109, "channel": 0}, {"type": "note_on", "time": 13, "note": 60, "velocity": 95, "channel": 0}, {"type": "note_off", "time": 38, "note": 60, "velocity": 95, "channel": 0}, {"type": "note_on", "time": 5, "note": 61, "velocity": 97, "channel": 0}, {"type": "note_off", "time": 169, "note": 61, "velocity": 97, "channel": 0}, {"type": "note_on", "time": 519, "note": 68, "velocity": 119, "channel": 0}, {"type": "note_off", "time": 56, "note": 68, "velocity": 119, "channel": 0}, {"type": "note_on", "time": 24, "note": 66, "velocity": 101, "channel": 0}, {"type": "note_off", "time": 89, "note": 66, "velocity": 101, "channel": 0}, {"type": "note_on", "time": 9, "note": 69, "velocity": 104, "channel": 0}, {"type": "note_off", "time": 66, "note": 69, "velocity": 104, "channel": 0}, {"type": "note_on", "time": 20, "note": 73, "velocity": 117, "channel": 0}, {"type": "note_off", "time": 79, "note": 73, "velocity": 117, "channel": 0}, {"type": "note_on", "time": 15, "note": 76, "velocity": 118, "channel": 0}, {"type": "note_off", "time": 80, "note": 76, "velocity": 118, "channel": 0}, {"type": "note_on", "time": 46, "note": 79, "velocity": 111, "channel": 0}, {"type": "note_off", "time": 31, "note": 79, "velocity": 111, "channel": 0}, {"type": "note_on", "time": 3, "note": 80, "velocity": 98, "channel": 0}, {"type": "note_off", "time": 82, "note": 80, "velocity": 98, "channel": 0}, {"type": "note_on", "time": 60, "note": 80, "velocity": 111, "channel": 0}, {"type": "note_off", "time": 87, "note": 80, "velocity": 111, "channel": 0}, {"type": "note_on", "time": 98, "note": 80, "velocity": 112, "channel": 0}, {"type": "note_off", "time": 96, "note": 80, "velocity": 112, "channel": 0}, {"type": "note_on", "time": 11, "note": 78, "velocity": 107, "channel": 0}, {"type": "note_off", "time": 77, "note": 78, "velocity": 107, "channel": 0}, {"type": "note_on", "time": 20, "note": 76, "velocity": 115, "channel": 0}, {"type": "note_off", "time": 84, "note": 76, "velocity": 115, "channel": 0}, {"type": "note_on", "time": 25, "note": 73, "velocity": 110, "channel": 0}, {"type": "note_off", "time": 61, "note": 73, "velocity": 110, "channel": 0}, {"type": "note_on", "time": 35, "note": 69, "velocity": 106, "channel": 0}, {"type": "note_off", "time": 79, "note": 69, "velocity": 106, "channel": 0}, {"type": "note_on", "time": 27, "note": 74, "velocity": 101, "channel": 0}, {"type": "note_off", "time": 30, "note": 74, "velocity": 101, "channel": 0}, {"type": "note_on", "time": 5, "note": 73, "velocity": 95, "channel": 0}, {"type": "note_off", "time": 23, "note": 73, "velocity": 95, "channel": 0}, {"type": "note_on", "time": 3, "note": 69, "velocity": 96, "channel": 0}, {"type": "note_off", "time": 16, "note": 69, "velocity": 96, "channel": 0}, {"type": "note_on", "time": 1, "note": 68, "velocity": 108, "channel": 0}, {"type": "note_off", "time": 95, "note": 68, "velocity": 108, "channel": 0}, {"type": "note_on", "time": 12, "note": 66, "velocity": 109, "channel": 0}, {"type": "note_off", "time": 76, "note": 66, "velocity": 109, "channel": 0}, {"type": "note_on", "time": 19, "note": 71, "velocity": 116, "channel": 0}, {"type": "note_off", "time": 74, "note": 71, "velocity": 116, "channel": 0}, {"type": "note_on", "time": 40, "note": 67, "velocity": 113, "channel": 0}, {"type": "note_off", "time": 70, "note": 67, "velocity": 113, "channel": 0}, {"type": "note_on", "time": 2, "note": 68, "velocity": 99, "channel": 0}, {"type": "note_off", "time": 82, "note": 68, "velocity": 99, "channel": 0}, {"type": "note_on", "time": 12, "note": 71, "velocity": 116, "channel": 0}, {"type": "note_off", "time": 90, "note": 71, "velocity": 116, "channel": 0}, {"type": "note_on", "time": 10, "note": 73, "velocity": 111, "channel": 0}, {"type": "note_off", "time": 79, "note": 73, "velocity": 111, "channel": 0}, {"type": "note_on", "time": 10, "note": 75, "velocity": 121, "channel": 0}, {"type": "note_off", "time": 77, "note": 75, "velocity": 121, "channel": 0}, {"type": "note_on", "time": 31, "note": 78, "velocity": 118, "channel": 0}, {"type": "note_off", "time": 78, "note": 78, "velocity": 118, "channel": 0}, {"type": "note_on", "time": 12, "note": 76, "velocity": 127, "channel": 0}, {"type": "note_off", "time": 77, "note": 76, "velocity": 127, "channel": 0}, {"type": "note_on", "time": 5, "note": 75, "velocity": 121, "channel": 0}, {"type": "note_off", "time": 91, "note": 75, "velocity": 121, "channel": 0}, {"type": "note_on", "time": 18, "note": 71, "velocity": 115, "channel": 0}, {"type": "note_off", "time": 75, "note": 71, "velocity": 115, "channel": 0}, {"type": "note_on", "time": 27, "note": 73, "velocity": 114, "channel": 0}, {"type": "note_off", "time": 82, "note": 73, "velocity": 114, "channel": 0}, {"type": "note_on", "time": 7, "note": 75, "velocity": 119, "channel": 0}, {"type": "note_off", "time": 86, "note": 75, "velocity": 119, "channel": 0}, {"type": "note_on", "time": 16, "note": 73, "velocity": 101, "channel": 0}, {"type": "note_off", "time": 29, "note": 73, "velocity": 101, "channel": 0}, {"type": "note_on", "time": 3, "note": 74, "velocity": 117, "channel": 0}, {"type": "note_off", "time": 66, "note": 74, "velocity": 117, "channel": 0}, {"type": "note_on", "time": 24, "note": 70, "velocity": 104, "channel": 0}, {"type": "note_off", "time": 40, "note": 70, "velocity": 104, "channel": 0}, {"type": "note_on", "time": 24, "note": 72, "velocity": 115, "channel": 0}, {"type": "note_off", "time": 80, "note": 72, "velocity": 115, "channel": 0}, {"type": "note_on", "time": 28, "note": 74, "velocity": 120, "channel": 0}, {"type": "note_off", "time": 87, "note": 74, "velocity": 120, "channel": 0}, {"type": "note_on", "time": 14, "note": 73, "velocity": 118, "channel": 0}, {"type": "note_off", "time": 89, "note": 73, "velocity": 118, "channel": 0}, {"type": "note_on", "time": 7, "note": 69, "velocity": 104, "channel": 0}, {"type": "note_off", "time": 69, "note": 69, "velocity": 104, "channel": 0}, {"type": "note_on", "time": 11, "note": 71, "velocity": 113, "channel": 0}, {"type": "note_off", "time": 91, "note": 71, "velocity": 113, "channel": 0}, {"type": "note_on", "time": 4, "note": 73, "velocity": 113, "channel": 0}, {"type": "note_off", "time": 82, "note": 73, "velocity": 113, "channel": 0}, {"type": "note_on", "time": 18, "note": 68, "velocity": 110, "channel": 0}, {"type": "note_off", "time": 38, "note": 68, "velocity": 110, "channel": 0}, {"type": "note_on", "time": 7, "note": 70, "velocity": 110, "channel": 0}, {"type": "note_off", "time": 23, "note": 70, "velocity": 110, "channel": 0}, {"type": "note_on", "time": 7, "note": 68, "velocity": 116, "channel": 0}, {"type": "note_off", "time": 40, "note": 68, "velocity": 116, "channel": 0}, {"type": "note_on", "time": 9, "note": 69, "velocity": 98, "channel": 0}, {"type": "note_off", "time": 30, "note": 69, "velocity": 98, "channel": 0}, {"type": "note_on", "time": 60, "note": 65, "velocity": 116, "channel": 0}, {"type": "note_off", "time": 84, "note": 65, "velocity": 116, "channel": 0}, {"type": "note_on", "time": 15, "note": 68, "velocity": 116, "channel": 0}, {"type": "note_off", "time": 71, "note": 68, "velocity": 116, "channel": 0}, {"type": "note_on", "time": 28, "note": 66, "velocity": 100, "channel": 0}, {"type": "note_off", "time": 72, "note": 66, "velocity": 100, "channel": 0}, {"type": "note_on", "time": 26, "note": 61, "velocity": 99, "channel": 0}, {"type": "note_off", "time": 32, "note": 61, "velocity": 99, "channel": 0}, {"type": "note_on", "time": 32, "note": 64, "velocity": 112, "channel": 0}, {"type": "note_off", "time": 107, "note": 64, "velocity": 112, "channel": 0}, {"type": "note_on", "time": 7, "note": 62, "velocity": 112, "channel": 0}, {"type": "note_off", "time": 64, "note": 62, "velocity": 112, "channel": 0}, {"type": "note_on", "time": 1, "note": 63, "velocity": 112, "channel": 0}, {"type": "note_off", "time": 19, "note": 63, "velocity": 112, "channel": 0}, {"type": "note_on", "time": 6, "note": 65, "velocity": 110, "channel": 0}, {"type": "note_off", "time": 17, "note": 65, "velocity": 110, "channel": 0}, {"type": "note_on", "time": 8, "note": 66, "velocity": 106, "channel": 0}, {"type": "note_off", "time": 19, "note": 66, "velocity": 106, "channel": 0}, {"type": "note_on", "time": 7, "note": 69, "velocity": 106, "channel": 0}, {"type": "note_off", "time": 35, "note": 69, "velocity": 106, "channel": 0}, {"type": "note_on", "time": 6, "note": 72, "velocity": 121, "channel": 0}, {"type": "note_off", "time": 67, "note": 72, "velocity": 121, "channel": 0}, {"type": "note_on", "time": 22, "note": 71, "velocity": 116, "channel": 0}, {"type": "note_off", "time": 87, "note": 71, "velocity": 116, "channel": 0}, {"type": "note_on", "time": 16, "note": 69, "velocity": 117, "channel": 0}, {"type": "note_off", "time": 78, "note": 69, "velocity": 117, "channel": 0}, {"type": "note_on", "time": 19, "note": 68, "velocity": 113, "channel": 0}, {"type": "note_off", "time": 102, "note": 68, "velocity": 113, "channel": 0}, {"type": "note_on", "time": 12, "note": 63, "velocity": 107, "channel": 0}, {"type": "note_off", "time": 51, "note": 63, "velocity": 107, "channel": 0}, {"type": "note_on", "time": 20, "note": 66, "velocity": 120, "channel": 0}, {"type": "note_off", "time": 97, "note": 66, "velocity": 120, "channel": 0}, {"type": "note_on", "time": 13, "note": 63, "velocity": 106, "channel": 0}, {"type": "note_off", "time": 69, "note": 63, "velocity": 106, "channel": 0}, {"type": "note_on", "time": 31, "note": 64, "velocity": 114, "channel": 0}, {"type": "note_off", "time": 79, "note": 64, "velocity": 114, "channel": 0}, {"type": "note_on", "time": 7, "note": 66, "velocity": 116, "channel": 0}, {"type": "note_off", "time": 81, "note": 66, "velocity": 116, "channel": 0}, {"type": "note_on", "time": 27, "note": 68, "velocity": 116, "channel": 0}, {"type": "note_off", "time": 75, "note": 68, "velocity": 116, "channel": 0}, {"type": "note_on", "time": 15, "note": 71, "velocity": 108, "channel": 0}, {"type": "note_off", "time": 82, "note": 71, "velocity": 108, "channel": 0}, {"type": "note_on", "time": 31, "note": 67, "velocity": 109, "channel": 0}, {"type": "note_off", "time": 30, "note": 67, "velocity": 109, "channel": 0}, {"type": "note_on", "time": 5, "note": 69, "velocity": 102, "channel": 0}, {"type": "note_off", "time": 126, "note": 69, "velocity": 102, "channel": 0}, {"type": "note_on", "time": 15, "note": 68, "velocity": 116, "channel": 0}, {"type": "note_off", "time": 77, "note": 68, "velocity": 116, "channel": 0}, {"type": "note_on", "time": 25, "note": 66, "velocity": 117, "channel": 0}, {"type": "note_off", "time": 79, "note": 66, "velocity": 117, "channel": 0}, {"type": "note_on", "time": 15, "note": 64, "velocity": 104, "channel": 0}, {"type": "note_off", "time": 74, "note": 64, "velocity": 104, "channel": 0}, {"type": "note_on", "time": 25, "note": 62, "velocity": 115, "channel": 0}, {"type": "note_off", "time": 87, "note": 62, "velocity": 115, "channel": 0}, {"type": "note_on", "time": 7, "note": 60, "velocity": 108, "channel": 0}, {"type": "note_off", "time": 80, "note": 60, "velocity": 108, "channel": 0}, {"type": "note_on", "time": 10, "note": 57, "velocity": 113, "channel": 0}, {"type": "note_off", "time": 99, "note": 57, "velocity": 113, "channel": 0}, {"type": "note_on", "time": 17, "note": 56, "velocity": 103, "channel": 0}, {"type": "note_off", "time": 89, "note": 56, "velocity": 103, "channel": 0}, {"type": "note_on", "time": 6, "note": 63, "velocity": 115, "channel": 0}, {"type": "note_off", "time": 60, "note": 63, "velocity": 115, "channel": 0}, {"type": "note_on", "time": 25, "note": 61, "velocity": 102, "channel": 0}, {"type": "note_off", "time": 95, "note": 61, "velocity": 102, "channel": 0}, {"type": "note_on", "time": 30, "note": 58, "velocity": 89, "channel": 0}, {"type": "note_off", "time": 235, "note": 58, "velocity": 89, "channel": 0}, {"type": "note_on", "time": 389, "note": 66, "velocity": 104, "channel": 0}, {"type": "note_off", "time": 49, "note": 66, "velocity": 104, "channel": 0}, {"type": "note_on", "time": 12, "note": 69, "velocity": 101, "channel": 0}, {"type": "note_off", "time": 45, "note": 69, "velocity": 101, "channel": 0}, {"type": "note_on", "time": 23, "note": 72, "velocity": 116, "channel": 0}, {"type": "note_off", "time": 66, "note": 72, "velocity": 116, "channel": 0}, {"type": "note_on", "time": 60, "note": 76, "velocity": 126, "channel": 0}, {"type": "note_off", "time": 126, "note": 76, "velocity": 126, "channel": 0}, {"type": "note_on", "time": 12, "note": 71, "velocity": 114, "channel": 0}, {"type": "note_off", "time": 48, "note": 71, "velocity": 114, "channel": 0}, {"type": "note_on", "time": 12, "note": 69, "velocity": 114, "channel": 0}, {"type": "note_off", "time": 48, "note": 69, "velocity": 114, "channel": 0}, {"type": "note_on", "time": 9, "note": 67, "velocity": 92, "channel": 0}, {"type": "note_off", "time": 21, "note": 67, "velocity": 92, "channel": 0}, {"type": "note_on", "time": 8, "note": 69, "velocity": 104, "channel": 0}, {"type": "note_off", "time": 45, "note": 69, "velocity": 104, "channel": 0}, {"type": "note_on", "time": 18, "note": 67, "velocity": 116, "channel": 0}, {"type": "note_off", "time": 101, "note": 67, "velocity": 116, "channel": 0}, {"type": "note_on", "time": 12, "note": 67, "velocity": 92, "channel": 0}, {"type": "note_off", "time": 14, "note": 67, "velocity": 92, "channel": 0}, {"type": "note_on", "time": 3, "note": 68, "velocity": 102, "channel": 0}, {"type": "note_off", "time": 452, "note": 68, "velocity": 102, "channel": 0}, {"type": "note_on", "time": 268, "note": 65, "velocity": 118, "channel": 0}, {"type": "note_off", "time": 64, "note": 65, "velocity": 118, "channel": 0}, {"type": "note_on", "time": 8, "note": 66, "velocity": 103, "channel": 0}, {"type": "note_off", "time": 32, "note": 66, "velocity": 103, "channel": 0}, {"type": "note_on", "time": 10, "note": 69, "velocity": 107, "channel": 0}, {"type": "note_off", "time": 48, "note": 69, "velocity": 107, "channel": 0}, {"type": "note_on", "time": 16, "note": 73, "velocity": 116, "channel": 0}, {"type": "note_off", "time": 77, "note": 73, "velocity": 116, "channel": 0}, {"type": "note_on", "time": 44, "note": 77, "velocity": 112, "channel": 0}, {"type": "note_off", "time": 43, "note": 77, "velocity": 112, "channel": 0}, {"type": "note_on", "time": 4, "note": 78, "velocity": 117, "channel": 0}, {"type": "note_off", "time": 51, "note": 78, "velocity": 117, "channel": 0}, {"type": "note_on", "time": 12, "note": 80, "velocity": 89, "channel": 0}, {"type": "note_off", "time": 26, "note": 80, "velocity": 89, "channel": 0}, {"type": "note_on", "time": 43, "note": 78, "velocity": 114, "channel": 0}, {"type": "note_off", "time": 72, "note": 78, "velocity": 114, "channel": 0}, {"type": "note_on", "time": 44, "note": 76, "velocity": 117, "channel": 0}, {"type": "note_off", "time": 89, "note": 76, "velocity": 117, "channel": 0}, {"type": "note_on", "time": 11, "note": 73, "velocity": 113, "channel": 0}, {"type": "note_off", "time": 71, "note": 73, "velocity": 113, "channel": 0}, {"type": "note_on", "time": 15, "note": 68, "velocity": 116, "channel": 0}, {"type": "note_off", "time": 89, "note": 68, "velocity": 116, "channel": 0}, {"type": "note_on", "time": 15, "note": 61, "velocity": 96, "channel": 0}, {"type": "note_off", "time": 427, "note": 61, "velocity": 96, "channel": 0}, {"type": "note_on", "time": 208, "note": 67, "velocity": 116, "channel": 0}, {"type": "note_off", "time": 30, "note": 67, "velocity": 116, "channel": 0}, {"type": "note_on", "time": 5, "note": 68, "velocity": 122, "channel": 0}, {"type": "note_off", "time": 59, "note": 68, "velocity": 122, "channel": 0}, {"type": "note_on", "time": 12, "note": 66, "velocity": 120, "channel": 0}, {"type": "note_off", "time": 88, "note": 66, "velocity": 120, "channel": 0}, {"type": "note_on", "time": 9, "note": 64, "velocity": 116, "channel": 0}, {"type": "note_off", "time": 85, "note": 64, "velocity": 116, "channel": 0}, {"type": "note_on", "time": 7, "note": 61, "velocity": 109, "channel": 0}, {"type": "note_off", "time": 123, "note": 61, "velocity": 109, "channel": 0}, {"type": "note_on", "time": 10, "note": 61, "velocity": 105, "channel": 0}, {"type": "note_off", "time": 58, "note": 61, "velocity": 105, "channel": 0}, {"type": "note_on", "time": 120, "note": 68, "velocity": 118, "channel": 0}, {"type": "note_off", "time": 81, "note": 68, "velocity": 118, "channel": 0}, {"type": "note_on", "time": 6, "note": 67, "velocity": 121, "channel": 0}, {"type": "note_off", "time": 90, "note": 67, "velocity": 121, "channel": 0}, {"type": "note_on", "time": 25, "note": 58, "velocity": 90, "channel": 0}, {"type": "note_off", "time": 38, "note": 58, "velocity": 90, "channel": 0}, {"type": "note_on", "time": 28, "note": 61, "velocity": 103, "channel": 0}, {"type": "note_off", "time": 101, "note": 61, "velocity": 103, "channel": 0}, {"type": "note_on", "time": 14, "note": 64, "velocity": 114, "channel": 0}, {"type": "note_off", "time": 82, "note": 64, "velocity": 114, "channel": 0}, {"type": "note_on", "time": 10, "note": 63, "velocity": 105, "channel": 0}, {"type": "note_off", "time": 41, "note": 63, "velocity": 105, "channel": 0}, {"type": "note_on", "time": 6, "note": 66, "velocity": 106, "channel": 0}, {"type": "note_off", "time": 43, "note": 66, "velocity": 106, "channel": 0}, {"type": "note_on", "time": 6, "note": 69, "velocity": 113, "channel": 0}, {"type": "note_off", "time": 62, "note": 69, "velocity": 113, "channel": 0}, {"type": "note_on", "time": 32, "note": 72, "velocity": 116, "channel": 0}, {"type": "note_off", "time": 74, "note": 72, "velocity": 116, "channel": 0}, {"type": "note_on", "time": 38, "note": 75, "velocity": 113, "channel": 0}, {"type": "note_off", "time": 82, "note": 75, "velocity": 113, "channel": 0}, {"type": "note_on", "time": 8, "note": 73, "velocity": 112, "channel": 0}, {"type": "note_off", "time": 155, "note": 73, "velocity": 112, "channel": 0}, {"type": "note_on", "time": 17, "note": 67, "velocity": 106, "channel": 0}, {"type": "note_off", "time": 59, "note": 67, "velocity": 106, "channel": 0}, {"type": "note_on", "time": 6, "note": 68, "velocity": 102, "channel": 0}, {"type": "note_off", "time": 111, "note": 68, "velocity": 102, "channel": 0}, {"type": "note_on", "time": 23, "note": 66, "velocity": 112, "channel": 0}, {"type": "note_off", "time": 197, "note": 66, "velocity": 112, "channel": 0}, {"type": "note_on", "time": 18, "note": 64, "velocity": 103, "channel": 0}, {"type": "note_off", "time": 92, "note": 64, "velocity": 103, "channel": 0}, {"type": "note_on", "time": 20, "note": 61, "velocity": 101, "channel": 0}, {"type": "note_off", "time": 61, "note": 61, "velocity": 101, "channel": 0}, {"type": "note_on", "time": 8, "note": 56, "velocity": 84, "channel": 0}, {"type": "note_off", "time": 136, "note": 56, "velocity": 84, "channel": 0}, {"type": "end_of_track", "time": 0}]]}