{"ticks_per_beat": 27720, "tracks": [[{"type": "track_name", "name": "Melody", "time": 0}, {"type": "set_tempo", "tempo": 631578, "time": 0}, {"type": "key_signature", "key": "Db", "time": 0}, {"type": "time_signature", "numerator": 4, "denominator": 4, "clocks_per_click": 24, "notated_32nd_notes_per_beat": 8, "time": 0}, {"type": "note_on", "time": 468592, "note": 51, "velocity": 100, "channel": 0}, {"type": "note_off", "time": 12229, "note": 51, "velocity": 100, "channel": 0}, {"type": "note_on", "time": 0, "note": 51, "velocity": 96, "channel": 0}, {"type": "note_off", "time": 12739, "note": 51, "velocity": 96, "channel": 0}, {"type": "note_on", "time": 0, "note": 51, "velocity": 94, "channel": 0}, {"type": "note_off", "time": 16305, "note": 51, "velocity": 94, "channel": 0}, {"type": "note_on", "time": 30828, "note": 51, "velocity": 104, "channel": 0}, {"type": "note_off", "time": 8407, "note": 51, "velocity": 104, "channel": 0}, {"type": "note_on", "time": 1528, "note": 53, "velocity": 99, "channel": 0}, {"type": "note_off", "time": 6368, "note": 53, "velocity": 99, "channel": 0}, {"type": "note_on", "time": 0, "note": 54, "velocity": 111, "channel": 0}, {"type": "note_off", "time": 8662, "note": 54, "velocity": 111, "channel": 0}, {"type": "note_on", "time": 1059, "note": 53, "velocity": 108, "channel": 0}, {"type": "note_off", "time": 1254, "note": 53, "velocity": 108, "channel": 0}, {"type": "note_on", "time": 179, "note": 54, "velocity": 108, "channel": 0}, {"type": "note_off", "time": 1254, "note": 54, "velocity": 108, "channel": 0}, {"type": "note_on", "time": 1612, "note": 53, "velocity": 97, "channel": 0}, {"type": "note_off", "time": 33858, "note": 53, "velocity": 97, "channel": 0}, {"type": "note_on", "time": 8061, "note": 51, "velocity": 96, "channel": 0}, {"type": "note_off", "time": 8025, "note": 51, "velocity": 96, "channel": 0}, {"type": "note_on", "time": 7881, "note": 58, "velocity": 101, "channel": 0}, {"type": "note_off", "time": 15286, "note": 58, "velocity": 101, "channel": 0}, {"type": "note_on", "time": 254, "note": 58, "velocity": 101, "channel": 0}, {"type": "note_off", "time": 12484, "note": 58, "velocity": 101, "channel": 0}, {"type": "note_on", "time": 1784, "note": 58, "velocity": 92, "channel": 0}, {"type": "note_off", "time": 21911, "note": 58, "velocity": 92, "channel": 0}, {"type": "note_on", "time": 31081, "note": 50, "velocity": 97, "channel": 0}, {"type": "note_off", "time": 7643, "note": 50, "velocity": 97, "channel": 0}, {"type": "note_on", "time": 256, "note": 57, "velocity": 100, "channel": 0}, {"type": "note_off", "time": 7770, "note": 57, "velocity": 100, "channel": 0}, {"type": "note_on", "time": 0, "note": 50, "velocity": 89, "channel": 0}, {"type": "note_off", "time": 7615, "note": 50, "velocity": 89, "channel": 0}, {"type": "note_on", "time": 0, "note": 56, "velocity": 93, "channel": 0}, {"type": "note_off", "time": 7344, "note": 56, "velocity": 93, "channel": 0}, {"type": "note_on", "time": 3403, "note": 49, "velocity": 82, "channel": 0}, {"type": "note_off", "time": 12229, "note": 49, "velocity": 82, "channel": 0}, {"type": "note_on", "time": 35011, "note": 58, "velocity": 112, "channel": 0}, {"type": "note_off", "time": 7643, "note": 58, "velocity": 112, "channel": 0}, {"type": "note_on", "time": 510, "note": 56, "velocity": 107, "channel": 0}, {"type": "note_off", "time": 6879, "note": 56, "velocity": 107, "channel": 0}, {"type": "note_on", "time": 762, "note": 53, "velocity": 102, "channel": 0}, {"type": "note_off", "time": 19872, "note": 53, "velocity": 102, "channel": 0}, {"type": "note_on", "time": 509, "note": 56, "velocity": 109, "channel": 0}, {"type": "note_off", "time": 11210, "note": 56, "velocity": 109, "channel": 0}, {"type": "note_on", "time": 767, "note": 58, "velocity": 109, "channel": 0}, {"type": "note_off", "time": 5605, "note": 58, "velocity": 109, "channel": 0}, {"type": "note_on", "time": 1526, "note": 60, "velocity": 119, "channel": 0}, {"type": "note_off", "time": 7286, "note": 60, "velocity": 119, "channel": 0}, {"type": "note_on", "time": 0, "note": 63, "velocity": 103, "channel": 0}, {"type": "note_off", "time": 36903, "note": 63, "velocity": 103, "channel": 0}, {"type": "note_on", "time": 4221, "note": 61, "velocity": 99, "channel": 0}, {"type": "note_off", "time": 8404, "note": 61, "velocity": 99, "channel": 0}, {"type": "note_on", "time": 809, "note": 60, "velocity": 109, "channel": 0}, {"type": "note_off", "time": 29558, "note": 60, "velocity": 109, "channel": 0}, {"type": "note_on", "time": 1433, "note": 61, "velocity": 105, "channel": 0}, {"type": "note_off", "time": 1612, "note": 61, "velocity": 105, "channel": 0}, {"type": "note_on", "time": 895, "note": 62, "velocity": 105, "channel": 0}, {"type": "note_off", "time": 2687, "note": 62, "velocity": 105, "channel": 0}, {"type": "note_on", "time": 1612, "note": 63, "velocity": 100, "channel": 0}, {"type": "note_off", "time": 12002, "note": 63, "velocity": 100, "channel": 0}, {"type": "note_on", "time": 3403, "note": 58, "velocity": 87, "channel": 0}, {"type": "note_off", "time": 29379, "note": 58, "velocity": 87, "channel": 0}, {"type": "note_on", "time": 30750, "note": 58, "velocity": 109, "channel": 0}, {"type": "note_off", "time": 7859, "note": 58, "velocity": 109, "channel": 0}, {"type": "note_on", "time": 0, "note": 58, "velocity": 106, "channel": 0}, {"type": "note_off", "time": 1308, "note": 58, "velocity": 106, "channel": 0}, {"type": "note_on", "time": 0, "note": 60, "velocity": 119, "channel": 0}, {"type": "note_off", "time": 5605, "note": 60, "velocity": 119, "channel": 0}, {"type": "note_on", "time": 3, "note": 61, "velocity": 109, "channel": 0}, {"type": "note_off", "time": 5091, "note": 61, "velocity": 109, "channel": 0}, {"type": "note_on", "time": 3822, "note": 61, "velocity": 104, "channel": 0}, {"type": "note_off", "time": 8917, "note": 61, "velocity": 104, "channel": 0}, {"type": "note_on", "time": 415, "note": 58, "velocity": 99, "channel": 0}, {"type": "note_off", "time": 1791, "note": 58, "velocity": 99, "channel": 0}, {"type": "note_on", "time": 358, "note": 61, "velocity": 104, "channel": 0}, {"type": "note_off", "time": 2013, "note": 61, "velocity": 104, "channel": 0}, {"type": "note_on", "time": 673, "note": 58, "velocity": 105, "channel": 0}, {"type": "note_off", "time": 4120, "note": 58, "velocity": 105, "channel": 0}, {"type": "note_on", "time": 5406, "note": 54, "velocity": 110, "channel": 0}, {"type": "note_off", "time": 7388, "note": 54, "velocity": 110, "channel": 0}, {"type": "note_on", "time": 1028, "note": 51, "velocity": 94, "channel": 0}, {"type": "note_off", "time": 3738, "note": 51, "velocity": 94, "channel": 0}, {"type": "note_on", "time": 3577, "note": 53, "velocity": 90, "channel": 0}, {"type": "note_off", "time": 36903, "note": 53, "velocity": 90, "channel": 0}, {"type": "note_on", "time": 6576, "note": 48, "velocity": 106, "channel": 0}, {"type": "note_off", "time": 7695, "note": 48, "velocity": 106, "channel": 0}, {"type": "note_on", "time": 1851, "note": 51, "velocity": 102, "channel": 0}, {"type": "note_off", "time": 3762, "note": 51, "velocity": 102, "channel": 0}, {"type": "note_on", "time": 895, "note": 53, "velocity": 98, "channel": 0}, {"type": "note_off", "time": 5102, "note": 53, "velocity": 98, "channel": 0}, {"type": "note_on", "time": 450, "note": 57, "velocity": 102, "channel": 0}, {"type": "note_off", "time": 5399, "note": 57, "velocity": 102, "channel": 0}, {"type": "note_on", "time": 729, "note": 60, "velocity": 94, "channel": 0}, {"type": "note_off", "time": 7471, "note": 60, "velocity": 94, "channel": 0}, {"type": "note_on", "time": 373, "note": 51, "velocity": 86, "channel": 0}, {"type": "note_off", "time": 17376, "note": 51, "velocity": 86, "channel": 0}, {"type": "note_on", "time": 37261, "note": 49, "velocity": 103, "channel": 0}, {"type": "note_off", "time": 5016, "note": 49, "velocity": 103, "channel": 0}, {"type": "note_on", "time": 2053, "note": 51, "velocity": 102, "channel": 0}, {"type": "note_off", "time": 6113, "note": 51, "velocity": 102, "channel": 0}, {"type": "note_on", "time": 0, "note": 53, "velocity": 103, "channel": 0}, {"type": "note_off", "time": 8152, "note": 53, "velocity": 103, "channel": 0}, {"type": "note_on", "time": 2293, "note": 56, "velocity": 110, "channel": 0}, {"type": "note_off", "time": 9172, "note": 56, "velocity": 110, "channel": 0}, {"type": "note_on", "time": 340, "note": 54, "velocity": 100, "channel": 0}, {"type": "note_off", "time": 16839, "note": 54, "velocity": 100, "channel": 0}, {"type": "note_on", "time": 5753, "note": 49, "velocity": 95, "channel": 0}, {"type": "note_off", "time": 7388, "note": 49, "velocity": 95, "channel": 0}, {"type": "note_on", "time": 114, "note": 52, "velocity": 100, "channel": 0}, {"type": "note_off", "time": 3762, "note": 52, "velocity": 100, "channel": 0}, {"type": "note_on", "time": 1253, "note": 53, "velocity": 102, "channel": 0}, {"type": "note_off", "time": 5016, "note": 53, "velocity": 102, "channel": 0}, {"type": "note_on", "time": 2755, "note": 56, "velocity": 99, "channel": 0}, {"type": "note_off", "time": 6624, "note": 56, "velocity": 99, "channel": 0}, {"type": "note_on", "time": 458, "note": 49, "velocity": 84, "channel": 0}, {"type": "note_off", "time": 26497, "note": 49, "velocity": 84, "channel": 0}, {"type": "note_on", "time": 925, "note": 51, "velocity": 102, "channel": 0}, {"type": "note_off", "time": 9426, "note": 51, "velocity": 102, "channel": 0}, {"type": "note_on", "time": 909, "note": 53, "velocity": 103, "channel": 0}, {"type": "note_off", "time": 5360, "note": 53, "velocity": 103, "channel": 0}, {"type": "note_on", "time": 0, "note": 56, "velocity": 101, "channel": 0}, {"type": "note_off", "time": 10689, "note": 56, "velocity": 101, "channel": 0}, {"type": "note_on", "time": 0, "note": 59, "velocity": 96, "channel": 0}, {"type": "note_off", "time": 4368, "note": 59, "velocity": 96, "channel": 0}, {"type": "note_on", "time": 3998, "note": 50, "velocity": 84, "channel": 0}, {"type": "note_off", "time": 19168, "note": 50, "velocity": 84, "channel": 0}, {"type": "note_on", "time": 2987, "note": 51, "velocity": 111, "channel": 0}, {"type": "note_off", "time": 8710, "note": 51, "velocity": 111, "channel": 0}, {"type": "note_on", "time": 0, "note": 53, "velocity": 105, "channel": 0}, {"type": "note_off", "time": 4915, "note": 53, "velocity": 105, "channel": 0}, {"type": "note_on", "time": 2375, "note": 56, "velocity": 108, "channel": 0}, {"type": "note_off", "time": 4657, "note": 56, "velocity": 108, "channel": 0}, {"type": "note_on", "time": 2149, "note": 59, "velocity": 97, "channel": 0}, {"type": "note_off", "time": 3582, "note": 59, "velocity": 97, "channel": 0}, {"type": "note_on", "time": 2866, "note": 51, "velocity": 80, "channel": 0}, {"type": "note_off", "time": 37978, "note": 51, "velocity": 80, "channel": 0}, {"type": "note_on", "time": 27336, "note": 53, "velocity": 107, "channel": 0}, {"type": "note_off", "time": 6879, "note": 53, "velocity": 107, "channel": 0}, {"type": "note_on", "time": 2, "note": 54, "velocity": 118, "channel": 0}, {"type": "note_off", "time": 8404, "note": 54, "velocity": 118, "channel": 0}, {"type": "note_on", "time": 0, "note": 58, "velocity": 104, "channel": 0}, {"type": "note_off", "time": 5859, "note": 58, "velocity": 104, "channel": 0}, {"type": "note_on", "time": 64, "note": 60, "velocity": 117, "channel": 0}, {"type": "note_off", "time": 7007, "note": 60, "velocity": 117, "channel": 0}, {"type": "note_on", "time": 189, "note": 65, "velocity": 99, "channel": 0}, {"type": "note_off", "time": 7006, "note": 65, "velocity": 99, "channel": 0}, {"type": "note_on", "time": 0, "note": 63, "velocity": 111, "channel": 0}, {"type": "note_off", "time": 6879, "note": 63, "velocity": 111, "channel": 0}, {"type": "note_on", "time": 2, "note": 60, "velocity": 116, "channel": 0}, {"type": "note_off", "time": 5859, "note": 60, "velocity": 116, "channel": 0}, {"type": "note_on", "time": 1526, "note": 58, "velocity": 103, "channel": 0}, {"type": "note_off", "time": 5350, "note": 58, "velocity": 103, "channel": 0}, {"type": "note_on", "time": 1827, "note": 54, "velocity": 104, "channel": 0}, {"type": "note_off", "time": 5366, "note": 54, "velocity": 104, "channel": 0}, {"type": "note_on", "time": 1082, "note": 48, "velocity": 105, "channel": 0}, {"type": "note_off", "time": 5350, "note": 48, "velocity": 105, "channel": 0}, {"type": "note_on", "time": 3606, "note": 46, "velocity": 101, "channel": 0}, {"type": "note_off", "time": 16067, "note": 46, "velocity": 101, "channel": 0}, {"type": "note_on", "time": 14850, "note": 58, "velocity": 97, "channel": 0}, {"type": "note_off", "time": 8152, "note": 58, "velocity": 97, "channel": 0}, {"type": "note_on", "time": 2551, "note": 48, "velocity": 103, "channel": 0}, {"type": "note_off", "time": 12484, "note": 48, "velocity": 103, "channel": 0}, {"type": "note_on", "time": 8951, "note": 57, "velocity": 100, "channel": 0}, {"type": "note_off", "time": 6270, "note": 57, "velocity": 100, "channel": 0}, {"type": "note_on", "time": 3403, "note": 48, "velocity": 103, "channel": 0}, {"type": "note_off", "time": 12484, "note": 48, "velocity": 103, "channel": 0}, {"type": "note_on", "time": 4176, "note": 56, "velocity": 99, "channel": 0}, {"type": "note_off", "time": 6449, "note": 56, "velocity": 99, "channel": 0}, {"type": "note_on", "time": 716, "note": 49, "velocity": 85, "channel": 0}, {"type": "note_off", "time": 8323, "note": 49, "velocity": 85, "channel": 0}, {"type": "note_on", "time": 5411, "note": 53, "velocity": 82, "channel": 0}, {"type": "note_off", "time": 20807, "note": 53, "velocity": 82, "channel": 0}, {"type": "note_on", "time": 40698, "note": 56, "velocity": 115, "channel": 0}, {"type": "note_off", "time": 5543, "note": 56, "velocity": 115, "channel": 0}, {"type": "note_on", "time": 3234, "note": 58, "velocity": 112, "channel": 0}, {"type": "note_off", "time": 7641, "note": 58, "velocity": 112, "channel": 0}, {"type": "note_on", "time": 664, "note": 60, "velocity": 120, "channel": 0}, {"type": "note_off", "time": 6369, "note": 60, "velocity": 120, "channel": 0}, {"type": "note_on", "time": 767, "note": 63, "velocity": 125, "channel": 0}, {"type": "note_off", "time": 7643, "note": 63, "velocity": 125, "channel": 0}, {"type": "note_on", "time": 560, "note": 60, "velocity": 118, "channel": 0}, {"type": "note_off", "time": 4076, "note": 60, "velocity": 118, "channel": 0}, {"type": "note_on", "time": 1733, "note": 63, "velocity": 122, "channel": 0}, {"type": "note_off", "time": 9426, "note": 63, "velocity": 122, "channel": 0}, {"type": "note_on", "time": 348, "note": 60, "velocity": 115, "channel": 0}, {"type": "note_off", "time": 3224, "note": 60, "velocity": 115, "channel": 0}, {"type": "note_on", "time": 1253, "note": 63, "velocity": 125, "channel": 0}, {"type": "note_off", "time": 6270, "note": 63, "velocity": 125, "channel": 0}, {"type": "note_on", "time": 2328, "note": 61, "velocity": 107, "channel": 0}, {"type": "note_off", "time": 9426, "note": 61, "velocity": 107, "channel": 0}, {"type": "note_on", "time": 4008, "note": 56, "velocity": 97, "channel": 0}, {"type": "note_off", "time": 2328, "note": 56, "velocity": 97, "channel": 0}, {"type": "note_on", "time": 895, "note": 58, "velocity": 100, "channel": 0}, {"type": "note_off", "time": 2508, "note": 58, "velocity": 100, "channel": 0}, {"type": "note_on", "time": 1254, "note": 60, "velocity": 110, "channel": 0}, {"type": "note_off", "time": 21497, "note": 60, "velocity": 110, "channel": 0}, {"type": "note_on", "time": 716, "note": 62, "velocity": 100, "channel": 0}, {"type": "note_off", "time": 1970, "note": 62, "velocity": 100, "channel": 0}, {"type": "note_on", "time": 2347, "note": 63, "velocity": 91, "channel": 0}, {"type": "note_off", "time": 18599, "note": 63, "velocity": 91, "channel": 0}, {"type": "note_on", "time": 550, "note": 58, "velocity": 82, "channel": 0}, {"type": "note_off", "time": 23109, "note": 58, "velocity": 82, "channel": 0}, {"type": "note_on", "time": 39271, "note": 58, "velocity": 112, "channel": 0}, {"type": "note_off", "time": 7338, "note": 58, "velocity": 112, "channel": 0}, {"type": "note_on", "time": 0, "note": 58, "velocity": 115, "channel": 0}, {"type": "note_off", "time": 815, "note": 58, "velocity": 115, "channel": 0}, {"type": "note_on", "time": 0, "note": 60, "velocity": 121, "channel": 0}, {"type": "note_off", "time": 5350, "note": 60, "velocity": 121, "channel": 0}, {"type": "note_on", "time": 966, "note": 61, "velocity": 106, "channel": 0}, {"type": "note_off", "time": 5195, "note": 61, "velocity": 106, "channel": 0}, {"type": "note_on", "time": 2328, "note": 63, "velocity": 111, "channel": 0}, {"type": "note_off", "time": 6369, "note": 63, "velocity": 111, "channel": 0}, {"type": "note_on", "time": 1691, "note": 65, "velocity": 103, "channel": 0}, {"type": "note_off", "time": 4331, "note": 65, "velocity": 103, "channel": 0}, {"type": "note_on", "time": 3063, "note": 63, "velocity": 107, "channel": 0}, {"type": "note_off", "time": 6114, "note": 63, "velocity": 107, "channel": 0}, {"type": "note_on", "time": 767, "note": 61, "velocity": 97, "channel": 0}, {"type": "note_off", "time": 6877, "note": 61, "velocity": 97, "channel": 0}, {"type": "note_on", "time": 0, "note": 60, "velocity": 105, "channel": 0}, {"type": "note_off", "time": 6369, "note": 60, "velocity": 105, "channel": 0}, {"type": "note_on", "time": 512, "note": 58, "velocity": 93, "channel": 0}, {"type": "note_off", "time": 11465, "note": 58, "velocity": 93, "channel": 0}, {"type": "note_on", "time": 2239, "note": 57, "velocity": 89, "channel": 0}, {"type": "note_off", "time": 17031, "note": 57, "velocity": 89, "channel": 0}, {"type": "note_on", "time": 5780, "note": 51, "velocity": 100, "channel": 0}, {"type": "note_off", "time": 7303, "note": 51, "velocity": 100, "channel": 0}, {"type": "note_on", "time": 0, "note": 54, "velocity": 115, "channel": 0}, {"type": "note_off", "time": 6877, "note": 54, "velocity": 115, "channel": 0}, {"type": "note_on", "time": 0, "note": 57, "velocity": 111, "channel": 0}, {"type": "note_off", "time": 6624, "note": 57, "velocity": 111, "channel": 0}, {"type": "note_on", "time": 766, "note": 60, "velocity": 115, "channel": 0}, {"type": "note_off", "time": 6369, "note": 60, "velocity": 115, "channel": 0}, {"type": "note_on", "time": 679, "note": 63, "velocity": 104, "channel": 0}, {"type": "note_off", "time": 6369, "note": 63, "velocity": 104, "channel": 0}, {"type": "note_on", "time": 678, "note": 66, "velocity": 98, "channel": 0}, {"type": "note_off", "time": 6369, "note": 66, "velocity": 98, "channel": 0}, {"type": "note_on", "time": 357, "note": 65, "velocity": 96, "channel": 0}, {"type": "note_off", "time": 5095, "note": 65, "velocity": 96, "channel": 0}, {"type": "note_on", "time": 1085, "note": 63, "velocity": 105, "channel": 0}, {"type": "note_off", "time": 6624, "note": 63, "velocity": 105, "channel": 0}, {"type": "note_on", "time": 2, "note": 60, "velocity": 109, "channel": 0}, {"type": "note_off", "time": 5859, "note": 60, "velocity": 109, "channel": 0}, {"type": "note_on", "time": 320, "note": 57, "velocity": 101, "channel": 0}, {"type": "note_off", "time": 10748, "note": 57, "velocity": 101, "channel": 0}, {"type": "note_on", "time": 2508, "note": 58, "velocity": 93, "channel": 0}, {"type": "note_off", "time": 20382, "note": 58, "velocity": 93, "channel": 0}, {"type": "note_on", "time": 14192, "note": 61, "velocity": 114, "channel": 0}, {"type": "note_off", "time": 8662, "note": 61, "velocity": 114, "channel": 0}, {"type": "note_on", "time": 2292, "note": 61, "velocity": 106, "channel": 0}, {"type": "note_off", "time": 6369, "note": 61, "velocity": 106, "channel": 0}, {"type": "note_on", "time": 257, "note": 65, "velocity": 112, "channel": 0}, {"type": "note_off", "time": 7896, "note": 65, "velocity": 112, "channel": 0}, {"type": "note_on", "time": 0, "note": 61, "velocity": 104, "channel": 0}, {"type": "note_off", "time": 5604, "note": 61, "velocity": 104, "channel": 0}, {"type": "note_on", "time": 0, "note": 62, "velocity": 117, "channel": 0}, {"type": "note_on", "time": 8329, "note": 56, "velocity": 113, "channel": 0}, {"type": "note_off", "time": 0, "note": 62, "velocity": 117, "channel": 0}, {"type": "note_off", "time": 3761, "note": 56, "velocity": 113, "channel": 0}, {"type": "note_on", "time": 1970, "note": 54, "velocity": 103, "channel": 0}, {"type": "note_off", "time": 8662, "note": 54, "velocity": 103, "channel": 0}, {"type": "note_on", "time": 652, "note": 49, "velocity": 94, "channel": 0}, {"type": "note_off", "time": 4478, "note": 49, "velocity": 94, "channel": 0}, {"type": "note_on", "time": 2507, "note": 50, "velocity": 96, "channel": 0}, {"type": "note_off", "time": 5553, "note": 50, "velocity": 96, "channel": 0}, {"type": "note_on", "time": 358, "note": 53, "velocity": 96, "channel": 0}, {"type": "note_off", "time": 3941, "note": 53, "velocity": 96, "channel": 0}, {"type": "note_on", "time": 895, "note": 54, "velocity": 110, "channel": 0}, {"type": "note_off", "time": 7165, "note": 54, "velocity": 110, "channel": 0}, {"type": "note_on", "time": 1612, "note": 56, "velocity": 101, "channel": 0}, {"type": "note_off", "time": 6449, "note": 56, "velocity": 101, "channel": 0}, {"type": "note_on", "time": 537, "note": 53, "velocity": 86, "channel": 0}, {"type": "note_off", "time": 22572, "note": 53, "velocity": 86, "channel": 0}, {"type": "note_on", "time": 20780, "note": 56, "velocity": 115, "channel": 0}, {"type": "note_off", "time": 2866, "note": 56, "velocity": 115, "channel": 0}, {"type": "note_on", "time": 1074, "note": 57, "velocity": 106, "channel": 0}, {"type": "note_off", "time": 17556, "note": 57, "velocity": 106, "channel": 0}, {"type": "note_on", "time": 4137, "note": 64, "velocity": 103, "channel": 0}, {"type": "note_off", "time": 7643, "note": 64, "velocity": 103, "channel": 0}, {"type": "note_on", "time": 506, "note": 61, "velocity": 107, "channel": 0}, {"type": "note_off", "time": 4586, "note": 61, "velocity": 107, "channel": 0}, {"type": "note_on", "time": 764, "note": 57, "velocity": 112, "channel": 0}, {"type": "note_off", "time": 6369, "note": 57, "velocity": 112, "channel": 0}, {"type": "note_on", "time": 575, "note": 54, "velocity": 108, "channel": 0}, {"type": "note_off", "time": 6369, "note": 54, "velocity": 108, "channel": 0}, {"type": "note_on", "time": 575, "note": 52, "velocity": 99, "channel": 0}, {"type": "note_off", "time": 6369, "note": 52, "velocity": 99, "channel": 0}, {"type": "note_on", "time": 575, "note": 49, "velocity": 86, "channel": 0}, {"type": "note_off", "time": 6369, "note": 49, "velocity": 86, "channel": 0}, {"type": "note_on", "time": 575, "note": 50, "velocity": 92, "channel": 0}, {"type": "note_off", "time": 6369, "note": 50, "velocity": 92, "channel": 0}, {"type": "note_on", "time": 575, "note": 54, "velocity": 105, "channel": 0}, {"type": "note_off", "time": 6369, "note": 54, "velocity": 105, "channel": 0}, {"type": "note_on", "time": 576, "note": 57, "velocity": 108, "channel": 0}, {"type": "note_off", "time": 6369, "note": 57, "velocity": 108, "channel": 0}, {"type": "note_on", "time": 575, "note": 62, "velocity": 104, "channel": 0}, {"type": "note_off", "time": 6369, "note": 62, "velocity": 104, "channel": 0}, {"type": "note_on", "time": 575, "note": 59, "velocity": 98, "channel": 0}, {"type": "note_off", "time": 6369, "note": 59, "velocity": 98, "channel": 0}, {"type": "note_on", "time": 575, "note": 54, "velocity": 106, "channel": 0}, {"type": "note_off", "time": 6369, "note": 54, "velocity": 106, "channel": 0}, {"type": "note_on", "time": 575, "note": 57, "velocity": 68, "channel": 0}, {"type": "note_off", "time": 50956, "note": 57, "velocity": 68, "channel": 0}, {"type": "note_on", "time": 4602, "note": 69, "velocity": 127, "channel": 0}, {"type": "note_off", "time": 7133, "note": 69, "velocity": 127, "channel": 0}, {"type": "note_on", "time": 256, "note": 66, "velocity": 113, "channel": 0}, {"type": "note_off", "time": 6877, "note": 66, "velocity": 113, "channel": 0}, {"type": "note_on", "time": 911, "note": 64, "velocity": 111, "channel": 0}, {"type": "note_off", "time": 4120, "note": 64, "velocity": 111, "channel": 0}, {"type": "note_on", "time": 895, "note": 62, "velocity": 117, "channel": 0}, {"type": "note_off", "time": 4836, "note": 62, "velocity": 117, "channel": 0}, {"type": "note_on", "time": 2508, "note": 64, "velocity": 112, "channel": 0}, {"type": "note_off", "time": 5732, "note": 64, "velocity": 112, "channel": 0}, {"type": "note_on", "time": 1074, "note": 61, "velocity": 107, "channel": 0}, {"type": "note_off", "time": 5553, "note": 61, "velocity": 107, "channel": 0}, {"type": "note_on", "time": 716, "note": 62, "velocity": 115, "channel": 0}, {"type": "note_off", "time": 6449, "note": 62, "velocity": 115, "channel": 0}, {"type": "note_on", "time": 1254, "note": 64, "velocity": 97, "channel": 0}, {"type": "note_off", "time": 5374, "note": 64, "velocity": 97, "channel": 0}, {"type": "note_on", "time": 1612, "note": 62, "velocity": 106, "channel": 0}, {"type": "note_off", "time": 6090, "note": 62, "velocity": 106, "channel": 0}, {"type": "note_on", "time": 716, "note": 58, "velocity": 93, "channel": 0}, {"type": "note_off", "time": 16302, "note": 58, "velocity": 93, "channel": 0}, {"type": "note_on", "time": 4836, "note": 64, "velocity": 99, "channel": 0}, {"type": "note_off", "time": 5553, "note": 64, "velocity": 99, "channel": 0}, {"type": "note_on", "time": 716, "note": 62, "velocity": 109, "channel": 0}, {"type": "note_off", "time": 5195, "note": 62, "velocity": 109, "channel": 0}, {"type": "note_on", "time": 358, "note": 58, "velocity": 98, "channel": 0}, {"type": "note_off", "time": 6986, "note": 58, "velocity": 98, "channel": 0}, {"type": "note_on", "time": 895, "note": 55, "velocity": 101, "channel": 0}, {"type": "note_off", "time": 3762, "note": 55, "velocity": 101, "channel": 0}, {"type": "note_on", "time": 1612, "note": 57, "velocity": 93, "channel": 0}, {"type": "note_off", "time": 23467, "note": 57, "velocity": 93, "channel": 0}, {"type": "note_on", "time": 3403, "note": 54, "velocity": 108, "channel": 0}, {"type": "note_off", "time": 8778, "note": 54, "velocity": 108, "channel": 0}, {"type": "note_on", "time": 358, "note": 50, "velocity": 89, "channel": 0}, {"type": "note_off", "time": 4120, "note": 50, "velocity": 89, "channel": 0}, {"type": "note_on", "time": 716, "note": 57, "velocity": 102, "channel": 0}, {"type": "note_off", "time": 7344, "note": 57, "velocity": 102, "channel": 0}, {"type": "note_on", "time": 1074, "note": 55, "velocity": 98, "channel": 0}, {"type": "note_off", "time": 18272, "note": 55, "velocity": 98, "channel": 0}, {"type": "note_on", "time": 3941, "note": 52, "velocity": 96, "channel": 0}, {"type": "note_off", "time": 5195, "note": 52, "velocity": 96, "channel": 0}, {"type": "note_on", "time": 2149, "note": 55, "velocity": 106, "channel": 0}, {"type": "note_off", "time": 5016, "note": 55, "velocity": 106, "channel": 0}, {"type": "note_on", "time": 2149, "note": 57, "velocity": 107, "channel": 0}, {"type": "note_off", "time": 5553, "note": 57, "velocity": 107, "channel": 0}, {"type": "note_on", "time": 1433, "note": 64, "velocity": 77, "channel": 0}, {"type": "note_off", "time": 16122, "note": 64, "velocity": 77, "channel": 0}, {"type": "note_on", "time": 3403, "note": 62, "velocity": 95, "channel": 0}, {"type": "note_off", "time": 22034, "note": 62, "velocity": 95, "channel": 0}, {"type": "note_on", "time": 21338, "note": 57, "velocity": 114, "channel": 0}, {"type": "note_off", "time": 7825, "note": 57, "velocity": 114, "channel": 0}, {"type": "note_on", "time": 6126, "note": 51, "velocity": 111, "channel": 0}, {"type": "note_off", "time": 3762, "note": 51, "velocity": 111, "channel": 0}, {"type": "note_on", "time": 1074, "note": 50, "velocity": 103, "channel": 0}, {"type": "note_off", "time": 7165, "note": 50, "velocity": 103, "channel": 0}, {"type": "note_on", "time": 1970, "note": 55, "velocity": 113, "channel": 0}, {"type": "note_off", "time": 4120, "note": 55, "velocity": 113, "channel": 0}, {"type": "note_on", "time": 2866, "note": 57, "velocity": 9, "channel": 0}, {"type": "note_off", "time": 3762, "note": 57, "velocity": 9, "channel": 0}, {"type": "note_on", "time": 1433, "note": 63, "velocity": 111, "channel": 0}, {"type": "note_off", "time": 5195, "note": 63, "velocity": 111, "channel": 0}, {"type": "note_on", "time": 1254, "note": 62, "velocity": 96, "channel": 0}, {"type": "note_off", "time": 18272, "note": 62, "velocity": 96, "channel": 0}, {"type": "note_on", "time": 3450, "note": 55, "velocity": 99, "channel": 0}, {"type": "note_off", "time": 6879, "note": 55, "velocity": 99, "channel": 0}, {"type": "note_on", "time": 2, "note": 53, "velocity": 94, "channel": 0}, {"type": "note_off", "time": 4840, "note": 53, "velocity": 94, "channel": 0}, {"type": "note_on", "time": 2024, "note": 51, "velocity": 90, "channel": 0}, {"type": "note_off", "time": 4840, "note": 51, "velocity": 90, "channel": 0}, {"type": "note_on", "time": 2191, "note": 50, "velocity": 89, "channel": 0}, {"type": "note_off", "time": 4840, "note": 50, "velocity": 89, "channel": 0}, {"type": "note_on", "time": 2107, "note": 57, "velocity": 91, "channel": 0}, {"type": "note_off", "time": 4840, "note": 57, "velocity": 91, "channel": 0}, {"type": "note_on", "time": 2106, "note": 50, "velocity": 83, "channel": 0}, {"type": "note_off", "time": 4840, "note": 50, "velocity": 83, "channel": 0}, {"type": "note_on", "time": 2107, "note": 53, "velocity": 77, "channel": 0}, {"type": "note_off", "time": 29045, "note": 53, "velocity": 77, "channel": 0}, {"type": "note_on", "time": 12646, "note": 55, "velocity": 104, "channel": 0}, {"type": "note_off", "time": 6623, "note": 55, "velocity": 104, "channel": 0}, {"type": "note_on", "time": 0, "note": 57, "velocity": 103, "channel": 0}, {"type": "note_off", "time": 6624, "note": 57, "velocity": 103, "channel": 0}, {"type": "note_on", "time": 507, "note": 59, "velocity": 95, "channel": 0}, {"type": "note_off", "time": 7133, "note": 59, "velocity": 95, "channel": 0}, {"type": "note_on", "time": 1784, "note": 62, "velocity": 106, "channel": 0}, {"type": "note_off", "time": 8662, "note": 62, "velocity": 106, "channel": 0}, {"type": "note_on", "time": 1273, "note": 64, "velocity": 92, "channel": 0}, {"type": "note_off", "time": 6369, "note": 64, "velocity": 92, "channel": 0}, {"type": "note_on", "time": 1018, "note": 62, "velocity": 102, "channel": 0}, {"type": "note_off", "time": 6369, "note": 62, "velocity": 102, "channel": 0}, {"type": "note_on", "time": 2, "note": 64, "velocity": 89, "channel": 0}, {"type": "note_off", "time": 6368, "note": 64, "velocity": 89, "channel": 0}, {"type": "note_on", "time": 0, "note": 62, "velocity": 94, "channel": 0}, {"type": "note_off", "time": 15796, "note": 62, "velocity": 94, "channel": 0}, {"type": "note_on", "time": 6622, "note": 59, "velocity": 96, "channel": 0}, {"type": "note_off", "time": 6624, "note": 59, "velocity": 96, "channel": 0}, {"type": "note_on", "time": 257, "note": 62, "velocity": 105, "channel": 0}, {"type": "note_off", "time": 5095, "note": 62, "velocity": 105, "channel": 0}, {"type": "note_on", "time": 0, "note": 60, "velocity": 105, "channel": 0}, {"type": "note_off", "time": 7133, "note": 60, "velocity": 105, "channel": 0}, {"type": "note_on", "time": 435, "note": 55, "velocity": 96, "channel": 0}, {"type": "note_off", "time": 5553, "note": 55, "velocity": 96, "channel": 0}, {"type": "note_on", "time": 2687, "note": 53, "velocity": 92, "channel": 0}, {"type": "note_off", "time": 4299, "note": 53, "velocity": 92, "channel": 0}, {"type": "note_on", "time": 537, "note": 50, "velocity": 90, "channel": 0}, {"type": "note_off", "time": 7133, "note": 50, "velocity": 90, "channel": 0}, {"type": "note_on", "time": 1285, "note": 51, "velocity": 81, "channel": 0}, {"type": "note_off", "time": 5911, "note": 51, "velocity": 81, "channel": 0}, {"type": "note_on", "time": 895, "note": 59, "velocity": 92, "channel": 0}, {"type": "note_off", "time": 5195, "note": 59, "velocity": 92, "channel": 0}, {"type": "note_on", "time": 1612, "note": 57, "velocity": 90, "channel": 0}, {"type": "note_off", "time": 13794, "note": 57, "velocity": 90, "channel": 0}, {"type": "note_on", "time": 23288, "note": 60, "velocity": 86, "channel": 0}, {"type": "note_off", "time": 26513, "note": 60, "velocity": 86, "channel": 0}, {"type": "note_on", "time": 4478, "note": 58, "velocity": 91, "channel": 0}, {"type": "note_off", "time": 5374, "note": 58, "velocity": 91, "channel": 0}, {"type": "note_on", "time": 3105, "note": 57, "velocity": 99, "channel": 0}, {"type": "note_off", "time": 3183, "note": 57, "velocity": 99, "channel": 0}, {"type": "note_on", "time": 4457, "note": 58, "velocity": 88, "channel": 0}, {"type": "note_off", "time": 4586, "note": 58, "velocity": 88, "channel": 0}, {"type": "note_on", "time": 0, "note": 59, "velocity": 86, "channel": 0}, {"type": "note_off", "time": 15286, "note": 59, "velocity": 86, "channel": 0}, {"type": "note_on", "time": 763, "note": 53, "velocity": 91, "channel": 0}, {"type": "note_off", "time": 6879, "note": 53, "velocity": 91, "channel": 0}, {"type": "note_on", "time": 0, "note": 50, "velocity": 86, "channel": 0}, {"type": "note_off", "time": 6879, "note": 50, "velocity": 86, "channel": 0}, {"type": "note_on", "time": 0, "note": 55, "velocity": 92, "channel": 0}, {"type": "note_off", "time": 5859, "note": 55, "velocity": 92, "channel": 0}, {"type": "note_on", "time": 1786, "note": 52, "velocity": 90, "channel": 0}, {"type": "note_off", "time": 11974, "note": 52, "velocity": 90, "channel": 0}, {"type": "note_on", "time": 9401, "note": 55, "velocity": 101, "channel": 0}, {"type": "note_off", "time": 3991, "note": 55, "velocity": 101, "channel": 0}, {"type": "note_on", "time": 1024, "note": 57, "velocity": 98, "channel": 0}, {"type": "note_off", "time": 3991, "note": 57, "velocity": 98, "channel": 0}, {"type": "note_on", "time": 2278, "note": 64, "velocity": 89, "channel": 0}, {"type": "note_off", "time": 4586, "note": 64, "velocity": 89, "channel": 0}, {"type": "note_on", "time": 2239, "note": 63, "velocity": 100, "channel": 0}, {"type": "note_off", "time": 5605, "note": 63, "velocity": 100, "channel": 0}, {"type": "note_on", "time": 3, "note": 60, "velocity": 110, "channel": 0}, {"type": "note_off", "time": 7082, "note": 60, "velocity": 110, "channel": 0}, {"type": "note_on", "time": 0, "note": 57, "velocity": 98, "channel": 0}, {"type": "note_off", "time": 7082, "note": 57, "velocity": 98, "channel": 0}, {"type": "note_on", "time": 0, "note": 54, "velocity": 102, "channel": 0}, {"type": "note_off", "time": 7082, "note": 54, "velocity": 102, "channel": 0}, {"type": "note_on", "time": 0, "note": 51, "velocity": 89, "channel": 0}, {"type": "note_on", "time": 7082, "note": 50, "velocity": 96, "channel": 0}, {"type": "note_off", "time": 0, "note": 51, "velocity": 89, "channel": 0}, {"type": "note_off", "time": 7082, "note": 50, "velocity": 96, "channel": 0}, {"type": "note_on", "time": 344, "note": 53, "velocity": 89, "channel": 0}, {"type": "note_off", "time": 3224, "note": 53, "velocity": 89, "channel": 0}, {"type": "note_on", "time": 2508, "note": 56, "velocity": 97, "channel": 0}, {"type": "note_off", "time": 7134, "note": 56, "velocity": 97, "channel": 0}, {"type": "note_on", "time": 389, "note": 59, "velocity": 90, "channel": 0}, {"type": "note_off", "time": 7134, "note": 59, "velocity": 90, "channel": 0}, {"type": "note_on", "time": 669, "note": 58, "velocity": 91, "channel": 0}, {"type": "note_off", "time": 4076, "note": 58, "velocity": 91, "channel": 0}, {"type": "note_on", "time": 509, "note": 54, "velocity": 97, "channel": 0}, {"type": "note_off", "time": 6369, "note": 54, "velocity": 97, "channel": 0}, {"type": "note_on", "time": 417, "note": 50, "velocity": 88, "channel": 0}, {"type": "note_off", "time": 6369, "note": 50, "velocity": 88, "channel": 0}, {"type": "note_on", "time": 417, "note": 51, "velocity": 87, "channel": 0}, {"type": "note_off", "time": 6369, "note": 51, "velocity": 87, "channel": 0}, {"type": "note_on", "time": 416, "note": 53, "velocity": 92, "channel": 0}, {"type": "note_off", "time": 6369, "note": 53, "velocity": 92, "channel": 0}, {"type": "note_on", "time": 417, "note": 51, "velocity": 76, "channel": 0}, {"type": "note_off", "time": 19108, "note": 51, "velocity": 76, "channel": 0}, {"type": "note_on", "time": 28395, "note": 58, "velocity": 102, "channel": 0}, {"type": "note_off", "time": 6751, "note": 58, "velocity": 102, "channel": 0}, {"type": "note_on", "time": 0, "note": 62, "velocity": 107, "channel": 0}, {"type": "note_off", "time": 6528, "note": 62, "velocity": 107, "channel": 0}, {"type": "note_on", "time": 0, "note": 65, "velocity": 98, "channel": 0}, {"type": "note_on", "time": 6986, "note": 62, "velocity": 106, "channel": 0}, {"type": "note_off", "time": 0, "note": 65, "velocity": 98, "channel": 0}, {"type": "note_off", "time": 4331, "note": 62, "velocity": 106, "channel": 0}, {"type": "note_on", "time": 1222, "note": 63, "velocity": 108, "channel": 0}, {"type": "note_off", "time": 10700, "note": 63, "velocity": 108, "channel": 0}, {"type": "note_on", "time": 6279, "note": 60, "velocity": 115, "channel": 0}, {"type": "note_off", "time": 6114, "note": 60, "velocity": 115, "channel": 0}, {"type": "note_on", "time": 2, "note": 61, "velocity": 99, "channel": 0}, {"type": "note_off", "time": 8662, "note": 61, "velocity": 99, "channel": 0}, {"type": "note_on", "time": 761, "note": 58, "velocity": 100, "channel": 0}, {"type": "note_off", "time": 4883, "note": 58, "velocity": 100, "channel": 0}, {"type": "note_on", "time": 0, "note": 54, "velocity": 104, "channel": 0}, {"type": "note_off", "time": 4882, "note": 54, "velocity": 104, "channel": 0}, {"type": "note_on", "time": 0, "note": 51, "velocity": 92, "channel": 0}, {"type": "note_off", "time": 4883, "note": 51, "velocity": 92, "channel": 0}, {"type": "note_on", "time": 0, "note": 49, "velocity": 95, "channel": 0}, {"type": "note_off", "time": 4883, "note": 49, "velocity": 95, "channel": 0}, {"type": "note_on", "time": 2582, "note": 48, "velocity": 95, "channel": 0}, {"type": "note_off", "time": 16481, "note": 48, "velocity": 95, "channel": 0}, {"type": "note_on", "time": 0, "note": 60, "velocity": 94, "channel": 0}, {"type": "note_off", "time": 6807, "note": 60, "velocity": 94, "channel": 0}, {"type": "note_on", "time": 2328, "note": 53, "velocity": 81, "channel": 0}, {"type": "note_off", "time": 4299, "note": 53, "velocity": 81, "channel": 0}, {"type": "note_on", "time": 716, "note": 58, "velocity": 89, "channel": 0}, {"type": "note_off", "time": 11719, "note": 58, "velocity": 89, "channel": 0}, {"type": "note_on", "time": 4959, "note": 50, "velocity": 87, "channel": 0}, {"type": "note_off", "time": 5859, "note": 50, "velocity": 87, "channel": 0}, {"type": "note_on", "time": 1338, "note": 48, "velocity": 89, "channel": 0}, {"type": "note_off", "time": 5859, "note": 48, "velocity": 89, "channel": 0}, {"type": "note_on", "time": 1337, "note": 57, "velocity": 94, "channel": 0}, {"type": "note_off", "time": 11210, "note": 57, "velocity": 94, "channel": 0}, {"type": "note_on", "time": 2416, "note": 50, "velocity": 89, "channel": 0}, {"type": "note_off", "time": 5605, "note": 50, "velocity": 89, "channel": 0}, {"type": "note_on", "time": 1207, "note": 48, "velocity": 92, "channel": 0}, {"type": "note_off", "time": 5605, "note": 48, "velocity": 92, "channel": 0}, {"type": "note_on", "time": 1208, "note": 51, "velocity": 85, "channel": 0}, {"type": "note_off", "time": 5605, "note": 51, "velocity": 85, "channel": 0}, {"type": "note_on", "time": 1208, "note": 56, "velocity": 90, "channel": 0}, {"type": "note_off", "time": 16815, "note": 56, "velocity": 90, "channel": 0}, {"type": "note_on", "time": 30007, "note": 58, "velocity": 105, "channel": 0}, {"type": "note_off", "time": 5605, "note": 58, "velocity": 105, "channel": 0}, {"type": "note_on", "time": 2076, "note": 57, "velocity": 99, "channel": 0}, {"type": "note_off", "time": 6369, "note": 57, "velocity": 99, "channel": 0}, {"type": "note_on", "time": 2, "note": 56, "velocity": 98, "channel": 0}, {"type": "note_off", "time": 7133, "note": 56, "velocity": 98, "channel": 0}, {"type": "note_on", "time": 130, "note": 52, "velocity": 91, "channel": 0}, {"type": "note_off", "time": 2866, "note": 52, "velocity": 91, "channel": 0}, {"type": "note_on", "time": 1791, "note": 53, "velocity": 93, "channel": 0}, {"type": "note_off", "time": 21676, "note": 53, "velocity": 93, "channel": 0}, {"type": "note_on", "time": 3598, "note": 56, "velocity": 108, "channel": 0}, {"type": "note_off", "time": 8407, "note": 56, "velocity": 108, "channel": 0}, {"type": "note_on", "time": 510, "note": 60, "velocity": 108, "channel": 0}, {"type": "note_off", "time": 4840, "note": 60, "velocity": 108, "channel": 0}, {"type": "note_on", "time": 254, "note": 63, "velocity": 109, "channel": 0}, {"type": "note_off", "time": 7898, "note": 63, "velocity": 109, "channel": 0}, {"type": "note_on", "time": 506, "note": 60, "velocity": 112, "channel": 0}, {"type": "note_off", "time": 5095, "note": 60, "velocity": 112, "channel": 0}, {"type": "note_on", "time": 0, "note": 61, "velocity": 99, "channel": 0}, {"type": "note_off", "time": 4968, "note": 61, "velocity": 99, "channel": 0}, {"type": "note_on", "time": 1538, "note": 58, "velocity": 89, "channel": 0}, {"type": "note_off", "time": 4968, "note": 58, "velocity": 89, "channel": 0}, {"type": "note_on", "time": 943, "note": 60, "velocity": 108, "channel": 0}, {"type": "note_off", "time": 7707, "note": 60, "velocity": 108, "channel": 0}, {"type": "note_on", "time": 4116, "note": 55, "velocity": 96, "channel": 0}, {"type": "note_off", "time": 30828, "note": 55, "velocity": 96, "channel": 0}, {"type": "note_on", "time": 1108, "note": 60, "velocity": 106, "channel": 0}, {"type": "note_off", "time": 7707, "note": 60, "velocity": 106, "channel": 0}, {"type": "note_on", "time": 0, "note": 55, "velocity": 86, "channel": 0}, {"type": "note_on", "time": 7707, "note": 61, "velocity": 88, "channel": 0}, {"type": "note_off", "time": 0, "note": 55, "velocity": 86, "channel": 0}, {"type": "note_off", "time": 8152, "note": 61, "velocity": 88, "channel": 0}, {"type": "note_on", "time": 5402, "note": 54, "velocity": 88, "channel": 0}, {"type": "note_off", "time": 16305, "note": 54, "velocity": 88, "channel": 0}, {"type": "note_on", "time": 37914, "note": 53, "velocity": 102, "channel": 0}, {"type": "note_off", "time": 7131, "note": 53, "velocity": 102, "channel": 0}, {"type": "note_on", "time": 0, "note": 54, "velocity": 108, "channel": 0}, {"type": "note_off", "time": 6879, "note": 54, "velocity": 108, "channel": 0}, {"type": "note_on", "time": 127, "note": 58, "velocity": 103, "channel": 0}, {"type": "note_off", "time": 6879, "note": 58, "velocity": 103, "channel": 0}, {"type": "note_on", "time": 128, "note": 61, "velocity": 95, "channel": 0}, {"type": "note_off", "time": 4586, "note": 61, "velocity": 95, "channel": 0}, {"type": "note_on", "time": 764, "note": 65, "velocity": 99, "channel": 0}, {"type": "note_off", "time": 8662, "note": 65, "velocity": 99, "channel": 0}, {"type": "note_on", "time": 552, "note": 65, "velocity": 95, "channel": 0}, {"type": "note_off", "time": 6628, "note": 65, "velocity": 95, "channel": 0}, {"type": "note_on", "time": 3761, "note": 65, "velocity": 93, "channel": 0}, {"type": "note_off", "time": 21318, "note": 65, "velocity": 93, "channel": 0}, {"type": "note_on", "time": 1368, "note": 63, "velocity": 103, "channel": 0}, {"type": "note_off", "time": 2683, "note": 63, "velocity": 103, "channel": 0}, {"type": "note_on", "time": 0, "note": 65, "velocity": 96, "channel": 0}, {"type": "note_off", "time": 2667, "note": 65, "velocity": 96, "channel": 0}, {"type": "note_on", "time": 0, "note": 63, "velocity": 96, "channel": 0}, {"type": "note_off", "time": 4076, "note": 63, "velocity": 96, "channel": 0}, {"type": "note_on", "time": 3823, "note": 66, "velocity": 97, "channel": 0}, {"type": "note_off", "time": 14012, "note": 66, "velocity": 97, "channel": 0}, {"type": "note_on", "time": 765, "note": 63, "velocity": 104, "channel": 0}, {"type": "note_off", "time": 7064, "note": 63, "velocity": 104, "channel": 0}, {"type": "note_on", "time": 0, "note": 60, "velocity": 105, "channel": 0}, {"type": "note_off", "time": 7064, "note": 60, "velocity": 105, "channel": 0}, {"type": "note_on", "time": 0, "note": 57, "velocity": 98, "channel": 0}, {"type": "note_on", "time": 6992, "note": 54, "velocity": 102, "channel": 0}, {"type": "note_off", "time": 0, "note": 57, "velocity": 98, "channel": 0}, {"type": "note_off", "time": 7064, "note": 54, "velocity": 102, "channel": 0}, {"type": "note_on", "time": 71, "note": 51, "velocity": 88, "channel": 0}, {"type": "note_off", "time": 7064, "note": 51, "velocity": 88, "channel": 0}, {"type": "note_on", "time": 0, "note": 52, "velocity": 90, "channel": 0}, {"type": "note_off", "time": 7064, "note": 52, "velocity": 90, "channel": 0}, {"type": "note_on", "time": 1307, "note": 53, "velocity": 83, "channel": 0}, {"type": "note_off", "time": 20780, "note": 53, "velocity": 83, "channel": 0}, {"type": "note_on", "time": 13233, "note": 58, "velocity": 101, "channel": 0}, {"type": "note_off", "time": 5858, "note": 58, "velocity": 101, "channel": 0}, {"type": "note_on", "time": 0, "note": 61, "velocity": 106, "channel": 0}, {"type": "note_off", "time": 6625, "note": 61, "velocity": 106, "channel": 0}, {"type": "note_on", "time": 0, "note": 65, "velocity": 97, "channel": 0}, {"type": "note_off", "time": 6625, "note": 65, "velocity": 97, "channel": 0}, {"type": "note_on", "time": 0, "note": 61, "velocity": 97, "channel": 0}, {"type": "note_off", "time": 5859, "note": 61, "velocity": 97, "channel": 0}, {"type": "note_on", "time": 1656, "note": 62, "velocity": 100, "channel": 0}, {"type": "note_off", "time": 5859, "note": 62, "velocity": 100, "channel": 0}, {"type": "note_on", "time": 1656, "note": 57, "velocity": 98, "channel": 0}, {"type": "note_off", "time": 5859, "note": 57, "velocity": 98, "channel": 0}, {"type": "note_on", "time": 686, "note": 54, "velocity": 102, "channel": 0}, {"type": "note_off", "time": 6270, "note": 54, "velocity": 102, "channel": 0}, {"type": "note_on", "time": 895, "note": 49, "velocity": 86, "channel": 0}, {"type": "note_off", "time": 4120, "note": 49, "velocity": 86, "channel": 0}, {"type": "note_on", "time": 1074, "note": 50, "velocity": 83, "channel": 0}, {"type": "note_off", "time": 3941, "note": 50, "velocity": 83, "channel": 0}, {"type": "note_on", "time": 3403, "note": 54, "velocity": 103, "channel": 0}, {"type": "note_off", "time": 8152, "note": 54, "velocity": 103, "channel": 0}, {"type": "note_on", "time": 87, "note": 56, "velocity": 94, "channel": 0}, {"type": "note_off", "time": 3941, "note": 56, "velocity": 94, "channel": 0}, {"type": "note_on", "time": 2149, "note": 53, "velocity": 74, "channel": 0}, {"type": "note_off", "time": 23467, "note": 53, "velocity": 74, "channel": 0}, {"type": "note_on", "time": 17556, "note": 56, "velocity": 111, "channel": 0}, {"type": "note_off", "time": 7524, "note": 56, "velocity": 111, "channel": 0}, {"type": "note_on", "time": 1074, "note": 59, "velocity": 101, "channel": 0}, {"type": "note_off", "time": 4299, "note": 59, "velocity": 101, "channel": 0}, {"type": "note_on", "time": 895, "note": 62, "velocity": 119, "channel": 0}, {"type": "note_off", "time": 6449, "note": 62, "velocity": 119, "channel": 0}, {"type": "note_on", "time": 1079, "note": 65, "velocity": 102, "channel": 0}, {"type": "note_off", "time": 6114, "note": 65, "velocity": 102, "channel": 0}, {"type": "note_on", "time": 508, "note": 62, "velocity": 114, "channel": 0}, {"type": "note_off", "time": 6114, "note": 62, "velocity": 114, "channel": 0}, {"type": "note_on", "time": 680, "note": 59, "velocity": 93, "channel": 0}, {"type": "note_off", "time": 6114, "note": 59, "velocity": 93, "channel": 0}, {"type": "note_on", "time": 595, "note": 56, "velocity": 102, "channel": 0}, {"type": "note_on", "time": 7069, "note": 53, "velocity": 95, "channel": 0}, {"type": "note_off", "time": 0, "note": 56, "velocity": 102, "channel": 0}, {"type": "note_off", "time": 7069, "note": 53, "velocity": 95, "channel": 0}, {"type": "note_on", "time": 0, "note": 50, "velocity": 93, "channel": 0}, {"type": "note_off", "time": 7069, "note": 50, "velocity": 93, "channel": 0}, {"type": "note_on", "time": 0, "note": 53, "velocity": 87, "channel": 0}, {"type": "note_off", "time": 7069, "note": 53, "velocity": 87, "channel": 0}, {"type": "note_on", "time": 0, "note": 63, "velocity": 109, "channel": 0}, {"type": "note_off", "time": 6921, "note": 63, "velocity": 109, "channel": 0}, {"type": "note_on", "time": 0, "note": 66, "velocity": 98, "channel": 0}, {"type": "note_off", "time": 6921, "note": 66, "velocity": 98, "channel": 0}, {"type": "note_on", "time": 0, "note": 63, "velocity": 102, "channel": 0}, {"type": "note_on", "time": 6921, "note": 61, "velocity": 93, "channel": 0}, {"type": "note_off", "time": 0, "note": 63, "velocity": 102, "channel": 0}, {"type": "note_off", "time": 6921, "note": 61, "velocity": 93, "channel": 0}, {"type": "note_on", "time": 0, "note": 58, "velocity": 100, "channel": 0}, {"type": "note_off", "time": 6920, "note": 58, "velocity": 100, "channel": 0}, {"type": "note_on", "time": 0, "note": 54, "velocity": 99, "channel": 0}, {"type": "note_off", "time": 6921, "note": 54, "velocity": 99, "channel": 0}, {"type": "note_on", "time": 0, "note": 51, "velocity": 92, "channel": 0}, {"type": "note_on", "time": 6921, "note": 48, "velocity": 83, "channel": 0}, {"type": "note_off", "time": 0, "note": 51, "velocity": 92, "channel": 0}, {"type": "note_off", "time": 6921, "note": 48, "velocity": 83, "channel": 0}, {"type": "note_on", "time": 654, "note": 53, "velocity": 91, "channel": 0}, {"type": "note_off", "time": 10748, "note": 53, "velocity": 91, "channel": 0}, {"type": "note_on", "time": 2866, "note": 51, "velocity": 86, "channel": 0}, {"type": "note_off", "time": 20422, "note": 51, "velocity": 86, "channel": 0}, {"type": "note_on", "time": 34524, "note": 70, "velocity": 111, "channel": 0}, {"type": "note_off", "time": 1527, "note": 70, "velocity": 111, "channel": 0}, {"type": "note_on", "time": 1209, "note": 69, "velocity": 111, "channel": 0}, {"type": "note_off", "time": 1791, "note": 69, "velocity": 111, "channel": 0}, {"type": "note_on", "time": 1612, "note": 68, "velocity": 109, "channel": 0}, {"type": "note_off", "time": 2508, "note": 68, "velocity": 109, "channel": 0}, {"type": "note_on", "time": 716, "note": 67, "velocity": 107, "channel": 0}, {"type": "note_off", "time": 1970, "note": 67, "velocity": 107, "channel": 0}, {"type": "note_on", "time": 895, "note": 66, "velocity": 105, "channel": 0}, {"type": "note_off", "time": 18093, "note": 66, "velocity": 105, "channel": 0}, {"type": "note_on", "time": 2539, "note": 63, "velocity": 103, "channel": 0}, {"type": "note_off", "time": 6624, "note": 63, "velocity": 103, "channel": 0}, {"type": "note_on", "time": 254, "note": 60, "velocity": 96, "channel": 0}, {"type": "note_off", "time": 13248, "note": 60, "velocity": 96, "channel": 0}, {"type": "note_on", "time": 3845, "note": 68, "velocity": 86, "channel": 0}, {"type": "note_off", "time": 1433, "note": 68, "velocity": 86, "channel": 0}, {"type": "note_on", "time": 537, "note": 67, "velocity": 89, "channel": 0}, {"type": "note_off", "time": 1433, "note": 67, "velocity": 89, "channel": 0}, {"type": "note_on", "time": 0, "note": 66, "velocity": 90, "channel": 0}, {"type": "note_off", "time": 3312, "note": 66, "velocity": 90, "channel": 0}, {"type": "note_on", "time": 91, "note": 65, "velocity": 90, "channel": 0}, {"type": "note_off", "time": 3312, "note": 65, "velocity": 90, "channel": 0}, {"type": "note_on", "time": 1166, "note": 62, "velocity": 100, "channel": 0}, {"type": "note_off", "time": 17914, "note": 62, "velocity": 100, "channel": 0}, {"type": "note_on", "time": 1476, "note": 58, "velocity": 88, "channel": 0}, {"type": "note_off", "time": 2377, "note": 58, "velocity": 88, "channel": 0}, {"type": "note_on", "time": 4374, "note": 62, "velocity": 106, "channel": 0}, {"type": "note_off", "time": 7133, "note": 62, "velocity": 106, "channel": 0}, {"type": "note_on", "time": 6492, "note": 68, "velocity": 82, "channel": 0}, {"type": "note_off", "time": 8240, "note": 68, "velocity": 82, "channel": 0}, {"type": "note_on", "time": 6286, "note": 61, "velocity": 100, "channel": 0}, {"type": "note_off", "time": 4840, "note": 61, "velocity": 100, "channel": 0}, {"type": "note_on", "time": 2229, "note": 65, "velocity": 83, "channel": 0}, {"type": "note_off", "time": 9681, "note": 65, "velocity": 83, "channel": 0}, {"type": "note_on", "time": 4458, "note": 53, "velocity": 82, "channel": 0}, {"type": "note_off", "time": 4840, "note": 53, "velocity": 82, "channel": 0}, {"type": "note_on", "time": 2229, "note": 56, "velocity": 91, "channel": 0}, {"type": "note_off", "time": 19363, "note": 56, "velocity": 91, "channel": 0}, {"type": "note_on", "time": 51338, "note": 70, "velocity": 111, "channel": 0}, {"type": "note_off", "time": 6877, "note": 70, "velocity": 111, "channel": 0}, {"type": "note_on", "time": 275, "note": 69, "velocity": 112, "channel": 0}, {"type": "note_off", "time": 3821, "note": 69, "velocity": 112, "channel": 0}, {"type": "note_on", "time": 2038, "note": 68, "velocity": 126, "channel": 0}, {"type": "note_off", "time": 4840, "note": 68, "velocity": 126, "channel": 0}, {"type": "note_on", "time": 2547, "note": 65, "velocity": 98, "channel": 0}, {"type": "note_off", "time": 4331, "note": 65, "velocity": 98, "channel": 0}, {"type": "note_on", "time": 509, "note": 63, "velocity": 112, "channel": 0}, {"type": "note_off", "time": 7643, "note": 63, "velocity": 112, "channel": 0}, {"type": "note_on", "time": 764, "note": 58, "velocity": 92, "channel": 0}, {"type": "note_off", "time": 5605, "note": 58, "velocity": 92, "channel": 0}, {"type": "note_on", "time": 254, "note": 61, "velocity": 104, "channel": 0}, {"type": "note_off", "time": 5605, "note": 61, "velocity": 104, "channel": 0}, {"type": "note_on", "time": 2038, "note": 60, "velocity": 96, "channel": 0}, {"type": "note_off", "time": 16305, "note": 60, "velocity": 96, "channel": 0}, {"type": "note_on", "time": 1783, "note": 52, "velocity": 88, "channel": 0}, {"type": "note_off", "time": 8917, "note": 52, "velocity": 88, "channel": 0}, {"type": "note_on", "time": 3057, "note": 55, "velocity": 85, "channel": 0}, {"type": "note_off", "time": 3566, "note": 55, "velocity": 85, "channel": 0}, {"type": "note_on", "time": 0, "note": 60, "velocity": 87, "channel": 0}, {"type": "note_off", "time": 12229, "note": 60, "velocity": 87, "channel": 0}, {"type": "note_on", "time": 1528, "note": 60, "velocity": 94, "channel": 0}, {"type": "note_off", "time": 4076, "note": 60, "velocity": 94, "channel": 0}, {"type": "note_on", "time": 3057, "note": 58, "velocity": 86, "channel": 0}, {"type": "note_off", "time": 23439, "note": 58, "velocity": 86, "channel": 0}, {"type": "note_on", "time": 23439, "note": 58, "velocity": 96, "channel": 0}, {"type": "note_off", "time": 10446, "note": 58, "velocity": 96, "channel": 0}, {"type": "note_on", "time": 1528, "note": 60, "velocity": 105, "channel": 0}, {"type": "note_off", "time": 3312, "note": 60, "velocity": 105, "channel": 0}, {"type": "note_on", "time": 1019, "note": 61, "velocity": 97, "channel": 0}, {"type": "note_off", "time": 6624, "note": 61, "velocity": 97, "channel": 0}, {"type": "note_on", "time": 1990, "note": 65, "velocity": 96, "channel": 0}, {"type": "note_off", "time": 7882, "note": 65, "velocity": 96, "channel": 0}, {"type": "note_on", "time": 3403, "note": 65, "velocity": 94, "channel": 0}, {"type": "note_off", "time": 10390, "note": 65, "velocity": 94, "channel": 0}, {"type": "note_on", "time": 3224, "note": 65, "velocity": 96, "channel": 0}, {"type": "note_on", "time": 5720, "note": 53, "velocity": 85, "channel": 0}, {"type": "note_off", "time": 0, "note": 65, "velocity": 96, "channel": 0}, {"type": "note_off", "time": 8407, "note": 53, "velocity": 85, "channel": 0}, {"type": "note_on", "time": 2293, "note": 57, "velocity": 100, "channel": 0}, {"type": "note_off", "time": 6624, "note": 57, "velocity": 100, "channel": 0}, {"type": "note_on", "time": 2731, "note": 51, "velocity": 92, "channel": 0}, {"type": "note_off", "time": 5445, "note": 51, "velocity": 92, "channel": 0}, {"type": "note_on", "time": 644, "note": 53, "velocity": 94, "channel": 0}, {"type": "note_off", "time": 6100, "note": 53, "velocity": 94, "channel": 0}, {"type": "note_on", "time": 618, "note": 54, "velocity": 94, "channel": 0}, {"type": "note_off", "time": 18344, "note": 54, "velocity": 94, "channel": 0}, {"type": "note_on", "time": 3202, "note": 57, "velocity": 98, "channel": 0}, {"type": "note_off", "time": 7898, "note": 57, "velocity": 98, "channel": 0}, {"type": "note_on", "time": 264, "note": 60, "velocity": 104, "channel": 0}, {"type": "note_off", "time": 6114, "note": 60, "velocity": 104, "channel": 0}, {"type": "note_on", "time": 995, "note": 63, "velocity": 101, "channel": 0}, {"type": "note_off", "time": 6369, "note": 63, "velocity": 101, "channel": 0}, {"type": "note_on", "time": 1029, "note": 66, "velocity": 87, "channel": 0}, {"type": "note_off", "time": 6369, "note": 66, "velocity": 87, "channel": 0}, {"type": "note_on", "time": 1028, "note": 65, "velocity": 70, "channel": 0}, {"type": "note_off", "time": 25478, "note": 65, "velocity": 70, "channel": 0}, {"type": "note_on", "time": 16155, "note": 63, "velocity": 106, "channel": 0}, {"type": "note_off", "time": 4254, "note": 63, "velocity": 106, "channel": 0}, {"type": "note_on", "time": 1095, "note": 64, "velocity": 88, "channel": 0}, {"type": "note_off", "time": 2547, "note": 64, "velocity": 88, "channel": 0}, {"type": "note_on", "time": 764, "note": 63, "velocity": 92, "channel": 0}, {"type": "note_off", "time": 2547, "note": 63, "velocity": 92, "channel": 0}, {"type": "note_on", "time": 2547, "note": 61, "velocity": 99, "channel": 0}, {"type": "note_off", "time": 6495, "note": 61, "velocity": 99, "channel": 0}, {"type": "note_on", "time": 123, "note": 58, "velocity": 90, "channel": 0}, {"type": "note_off", "time": 6495, "note": 58, "velocity": 90, "channel": 0}, {"type": "note_on", "time": 0, "note": 63, "velocity": 110, "channel": 0}, {"type": "note_off", "time": 7077, "note": 63, "velocity": 110, "channel": 0}, {"type": "note_on", "time": 0, "note": 65, "velocity": 86, "channel": 0}, {"type": "note_off", "time": 14154, "note": 65, "velocity": 86, "channel": 0}, {"type": "note_on", "time": 0, "note": 53, "velocity": 82, "channel": 0}, {"type": "note_off", "time": 3539, "note": 53, "velocity": 82, "channel": 0}, {"type": "note_on", "time": 0, "note": 56, "velocity": 81, "channel": 0}, {"type": "note_off", "time": 3539, "note": 56, "velocity": 81, "channel": 0}, {"type": "note_on", "time": 0, "note": 62, "velocity": 105, "channel": 0}, {"type": "note_off", "time": 8767, "note": 62, "velocity": 105, "channel": 0}, {"type": "note_on", "time": 0, "note": 58, "velocity": 81, "channel": 0}, {"type": "note_off", "time": 3057, "note": 58, "velocity": 81, "channel": 0}, {"type": "note_on", "time": 1912, "note": 62, "velocity": 104, "channel": 0}, {"type": "note_off", "time": 7643, "note": 62, "velocity": 104, "channel": 0}, {"type": "note_on", "time": 256, "note": 64, "velocity": 97, "channel": 0}, {"type": "note_off", "time": 6624, "note": 64, "velocity": 97, "channel": 0}, {"type": "note_on", "time": 5957, "note": 53, "velocity": 89, "channel": 0}, {"type": "note_off", "time": 1656, "note": 53, "velocity": 89, "channel": 0}, {"type": "note_on", "time": 1488, "note": 56, "velocity": 79, "channel": 0}, {"type": "note_off", "time": 1656, "note": 56, "velocity": 79, "channel": 0}, {"type": "note_on", "time": 1489, "note": 61, "velocity": 95, "channel": 0}, {"type": "note_off", "time": 8662, "note": 61, "velocity": 95, "channel": 0}, {"type": "note_on", "time": 614, "note": 58, "velocity": 75, "channel": 0}, {"type": "note_off", "time": 3821, "note": 58, "velocity": 75, "channel": 0}, {"type": "note_on", "time": 902, "note": 61, "velocity": 95, "channel": 0}, {"type": "note_off", "time": 6624, "note": 61, "velocity": 95, "channel": 0}, {"type": "note_on", "time": 2, "note": 63, "velocity": 100, "channel": 0}, {"type": "note_off", "time": 7133, "note": 63, "velocity": 100, "channel": 0}, {"type": "note_on", "time": 6120, "note": 53, "velocity": 84, "channel": 0}, {"type": "note_off", "time": 1783, "note": 53, "velocity": 84, "channel": 0}, {"type": "note_on", "time": 1530, "note": 56, "velocity": 85, "channel": 0}, {"type": "note_off", "time": 1783, "note": 56, "velocity": 85, "channel": 0}, {"type": "note_on", "time": 1529, "note": 60, "velocity": 101, "channel": 0}, {"type": "note_off", "time": 9426, "note": 60, "velocity": 101, "channel": 0}, {"type": "note_on", "time": 104, "note": 58, "velocity": 79, "channel": 0}, {"type": "note_off", "time": 4076, "note": 58, "velocity": 79, "channel": 0}, {"type": "note_on", "time": 1402, "note": 60, "velocity": 108, "channel": 0}, {"type": "note_off", "time": 7388, "note": 60, "velocity": 108, "channel": 0}, {"type": "note_on", "time": 28, "note": 61, "velocity": 92, "channel": 0}, {"type": "note_off", "time": 7133, "note": 61, "velocity": 92, "channel": 0}, {"type": "note_on", "time": 11598, "note": 59, "velocity": 93, "channel": 0}, {"type": "note_off", "time": 5553, "note": 59, "velocity": 93, "channel": 0}, {"type": "note_on", "time": 8957, "note": 59, "velocity": 89, "channel": 0}, {"type": "note_off", "time": 5911, "note": 59, "velocity": 89, "channel": 0}, {"type": "note_on", "time": 1433, "note": 58, "velocity": 85, "channel": 0}, {"type": "note_off", "time": 10927, "note": 58, "velocity": 85, "channel": 0}, {"type": "note_on", "time": 46218, "note": 58, "velocity": 98, "channel": 0}, {"type": "note_off", "time": 3761, "note": 58, "velocity": 98, "channel": 0}, {"type": "note_on", "time": 1970, "note": 63, "velocity": 112, "channel": 0}, {"type": "note_off", "time": 5016, "note": 63, "velocity": 112, "channel": 0}, {"type": "note_on", "time": 2508, "note": 65, "velocity": 101, "channel": 0}, {"type": "note_off", "time": 3941, "note": 65, "velocity": 101, "channel": 0}, {"type": "note_on", "time": 1791, "note": 63, "velocity": 113, "channel": 0}, {"type": "note_off", "time": 6270, "note": 63, "velocity": 113, "channel": 0}, {"type": "note_on", "time": 1970, "note": 61, "velocity": 98, "channel": 0}, {"type": "note_off", "time": 3045, "note": 61, "velocity": 98, "channel": 0}, {"type": "note_on", "time": 1074, "note": 58, "velocity": 98, "channel": 0}, {"type": "note_off", "time": 6090, "note": 58, "velocity": 98, "channel": 0}, {"type": "note_on", "time": 2149, "note": 54, "velocity": 97, "channel": 0}, {"type": "note_off", "time": 5195, "note": 54, "velocity": 97, "channel": 0}, {"type": "note_on", "time": 1433, "note": 51, "velocity": 94, "channel": 0}, {"type": "note_off", "time": 5016, "note": 51, "velocity": 94, "channel": 0}, {"type": "note_on", "time": 2687, "note": 48, "velocity": 83, "channel": 0}, {"type": "note_off", "time": 3941, "note": 48, "velocity": 83, "channel": 0}, {"type": "note_on", "time": 1254, "note": 53, "velocity": 89, "channel": 0}, {"type": "note_off", "time": 18809, "note": 53, "velocity": 89, "channel": 0}, {"type": "note_on", "time": 2866, "note": 51, "velocity": 85, "channel": 0}, {"type": "note_off", "time": 3582, "note": 51, "velocity": 85, "channel": 0}, {"type": "note_on", "time": 895, "note": 53, "velocity": 95, "channel": 0}, {"type": "note_off", "time": 6807, "note": 53, "velocity": 95, "channel": 0}, {"type": "note_on", "time": 3045, "note": 51, "velocity": 88, "channel": 0}, {"type": "note_off", "time": 13435, "note": 51, "velocity": 88, "channel": 0}, {"type": "note_on", "time": 5374, "note": 54, "velocity": 104, "channel": 0}, {"type": "note_off", "time": 10390, "note": 54, "velocity": 104, "channel": 0}, {"type": "note_on", "time": 358, "note": 51, "velocity": 85, "channel": 0}, {"type": "note_off", "time": 3761, "note": 51, "velocity": 85, "channel": 0}, {"type": "note_on", "time": 537, "note": 54, "velocity": 104, "channel": 0}, {"type": "note_off", "time": 9673, "note": 54, "velocity": 104, "channel": 0}, {"type": "note_on", "time": 1433, "note": 51, "velocity": 81, "channel": 0}, {"type": "note_off", "time": 2328, "note": 51, "velocity": 81, "channel": 0}, {"type": "note_on", "time": 895, "note": 54, "velocity": 107, "channel": 0}, {"type": "note_off", "time": 8419, "note": 54, "velocity": 107, "channel": 0}, {"type": "note_on", "time": 1254, "note": 52, "velocity": 84, "channel": 0}, {"type": "note_off", "time": 15048, "note": 52, "velocity": 84, "channel": 0}, {"type": "note_on", "time": 2866, "note": 56, "velocity": 100, "channel": 0}, {"type": "note_off", "time": 6807, "note": 56, "velocity": 100, "channel": 0}, {"type": "note_on", "time": 1433, "note": 54, "velocity": 90, "channel": 0}, {"type": "note_off", "time": 4478, "note": 54, "velocity": 90, "channel": 0}, {"type": "note_on", "time": 1612, "note": 56, "velocity": 101, "channel": 0}, {"type": "note_off", "time": 6628, "note": 56, "velocity": 101, "channel": 0}, {"type": "note_on", "time": 1433, "note": 54, "velocity": 95, "channel": 0}, {"type": "note_off", "time": 3762, "note": 54, "velocity": 95, "channel": 0}, {"type": "note_on", "time": 716, "note": 53, "velocity": 85, "channel": 0}, {"type": "note_off", "time": 21855, "note": 53, "velocity": 85, "channel": 0}, {"type": "note_on", "time": 20780, "note": 58, "velocity": 97, "channel": 0}, {"type": "note_off", "time": 5911, "note": 58, "velocity": 97, "channel": 0}, {"type": "note_on", "time": 716, "note": 57, "velocity": 94, "channel": 0}, {"type": "note_off", "time": 5553, "note": 57, "velocity": 94, "channel": 0}, {"type": "note_on", "time": 1612, "note": 56, "velocity": 93, "channel": 0}, {"type": "note_off", "time": 21497, "note": 56, "velocity": 93, "channel": 0}, {"type": "note_on", "time": 31350, "note": 72, "velocity": 120, "channel": 0}, {"type": "note_off", "time": 7882, "note": 72, "velocity": 120, "channel": 0}, {"type": "note_on", "time": 2328, "note": 70, "velocity": 114, "channel": 0}, {"type": "note_off", "time": 14868, "note": 70, "velocity": 114, "channel": 0}, {"type": "note_on", "time": 3505, "note": 68, "velocity": 120, "channel": 0}, {"type": "note_off", "time": 7636, "note": 68, "velocity": 120, "channel": 0}, {"type": "note_on", "time": 0, "note": 67, "velocity": 62, "channel": 0}, {"type": "note_on", "time": 6056, "note": 64, "velocity": 109, "channel": 0}, {"type": "note_off", "time": 0, "note": 67, "velocity": 62, "channel": 0}, {"type": "note_off", "time": 6090, "note": 64, "velocity": 109, "channel": 0}, {"type": "note_on", "time": 179, "note": 61, "velocity": 105, "channel": 0}, {"type": "note_off", "time": 4836, "note": 61, "velocity": 105, "channel": 0}, {"type": "note_on", "time": 716, "note": 60, "velocity": 111, "channel": 0}, {"type": "note_off", "time": 22930, "note": 60, "velocity": 111, "channel": 0}, {"type": "note_on", "time": 537, "note": 58, "velocity": 95, "channel": 0}, {"type": "note_off", "time": 3761, "note": 58, "velocity": 95, "channel": 0}, {"type": "note_on", "time": 358, "note": 60, "velocity": 114, "channel": 0}, {"type": "note_off", "time": 8598, "note": 60, "velocity": 114, "channel": 0}, {"type": "note_on", "time": 895, "note": 61, "velocity": 97, "channel": 0}, {"type": "note_off", "time": 5553, "note": 61, "velocity": 97, "channel": 0}, {"type": "note_on", "time": 537, "note": 63, "velocity": 102, "channel": 0}, {"type": "note_off", "time": 5911, "note": 63, "velocity": 102, "channel": 0}, {"type": "note_on", "time": 1612, "note": 60, "velocity": 100, "channel": 0}, {"type": "note_on", "time": 5374, "note": 58, "velocity": 88, "channel": 0}, {"type": "note_off", "time": 0, "note": 60, "velocity": 100, "channel": 0}, {"type": "note_off", "time": 25079, "note": 58, "velocity": 88, "channel": 0}, {"type": "note_on", "time": 30633, "note": 58, "velocity": 107, "channel": 0}, {"type": "note_off", "time": 7882, "note": 58, "velocity": 107, "channel": 0}, {"type": "note_on", "time": 1253, "note": 60, "velocity": 112, "channel": 0}, {"type": "note_off", "time": 5911, "note": 60, "velocity": 112, "channel": 0}, {"type": "note_on", "time": 0, "note": 61, "velocity": 102, "channel": 0}, {"type": "note_off", "time": 7165, "note": 61, "velocity": 102, "channel": 0}, {"type": "note_on", "time": 1791, "note": 65, "velocity": 103, "channel": 0}, {"type": "note_off", "time": 6449, "note": 65, "velocity": 103, "channel": 0}, {"type": "note_on", "time": 4478, "note": 53, "velocity": 94, "channel": 0}, {"type": "note_off", "time": 5553, "note": 53, "velocity": 94, "channel": 0}, {"type": "note_on", "time": 3941, "note": 57, "velocity": 105, "channel": 0}, {"type": "note_off", "time": 4836, "note": 57, "velocity": 105, "channel": 0}, {"type": "note_on", "time": 895, "note": 60, "velocity": 103, "channel": 0}, {"type": "note_off", "time": 5732, "note": 60, "velocity": 103, "channel": 0}, {"type": "note_on", "time": 358, "note": 65, "velocity": 93, "channel": 0}, {"type": "note_off", "time": 6090, "note": 65, "velocity": 93, "channel": 0}, {"type": "note_on", "time": 1970, "note": 63, "velocity": 93, "channel": 0}, {"type": "note_off", "time": 16122, "note": 63, "velocity": 93, "channel": 0}, {"type": "note_on", "time": 19705, "note": 64, "velocity": 98, "channel": 0}, {"type": "note_off", "time": 8957, "note": 64, "velocity": 98, "channel": 0}, {"type": "note_on", "time": 537, "note": 65, "velocity": 97, "channel": 0}, {"type": "note_off", "time": 3045, "note": 65, "velocity": 97, "channel": 0}, {"type": "note_on", "time": 1244, "note": 63, "velocity": 108, "channel": 0}, {"type": "note_off", "time": 6879, "note": 63, "velocity": 108, "channel": 0}, {"type": "note_on", "time": 296, "note": 61, "velocity": 99, "channel": 0}, {"type": "note_off", "time": 5374, "note": 61, "velocity": 99, "channel": 0}, {"type": "note_on", "time": 179, "note": 60, "velocity": 106, "channel": 0}, {"type": "note_off", "time": 6449, "note": 60, "velocity": 106, "channel": 0}, {"type": "note_on", "time": 1254, "note": 57, "velocity": 99, "channel": 0}, {"type": "note_off", "time": 5374, "note": 57, "velocity": 99, "channel": 0}, {"type": "note_on", "time": 895, "note": 54, "velocity": 103, "channel": 0}, {"type": "note_off", "time": 6628, "note": 54, "velocity": 103, "channel": 0}, {"type": "note_on", "time": 1074, "note": 51, "velocity": 93, "channel": 0}, {"type": "note_off", "time": 3403, "note": 51, "velocity": 93, "channel": 0}, {"type": "note_on", "time": 2149, "note": 53, "velocity": 96, "channel": 0}, {"type": "note_off", "time": 4657, "note": 53, "velocity": 96, "channel": 0}, {"type": "note_on", "time": 1074, "note": 58, "velocity": 87, "channel": 0}, {"type": "note_off", "time": 28483, "note": 58, "velocity": 87, "channel": 0}, {"type": "note_on", "time": 5195, "note": 57, "velocity": 101, "channel": 0}, {"type": "note_off", "time": 8240, "note": 57, "velocity": 101, "channel": 0}, {"type": "note_on", "time": 358, "note": 54, "velocity": 103, "channel": 0}, {"type": "note_off", "time": 5732, "note": 54, "velocity": 103, "channel": 0}, {"type": "note_on", "time": 1612, "note": 51, "velocity": 93, "channel": 0}, {"type": "note_off", "time": 4120, "note": 51, "velocity": 93, "channel": 0}, {"type": "note_on", "time": 895, "note": 50, "velocity": 92, "channel": 0}, {"type": "note_off", "time": 5911, "note": 50, "velocity": 92, "channel": 0}, {"type": "note_on", "time": 0, "note": 54, "velocity": 106, "channel": 0}, {"type": "note_off", "time": 9315, "note": 54, "velocity": 106, "channel": 0}, {"type": "note_on", "time": 0, "note": 57, "velocity": 91, "channel": 0}, {"type": "note_off", "time": 18809, "note": 57, "velocity": 91, "channel": 0}, {"type": "note_on", "time": 1612, "note": 56, "velocity": 92, "channel": 0}, {"type": "note_off", "time": 25796, "note": 56, "velocity": 92, "channel": 0}, {"type": "note_on", "time": 20063, "note": 57, "velocity": 106, "channel": 0}, {"type": "note_off", "time": 2866, "note": 57, "velocity": 106, "channel": 0}, {"type": "note_on", "time": 1612, "note": 58, "velocity": 100, "channel": 0}, {"type": "note_off", "time": 4120, "note": 58, "velocity": 100, "channel": 0}, {"type": "note_on", "time": 1254, "note": 59, "velocity": 97, "channel": 0}, {"type": "note_off", "time": 14777, "note": 59, "velocity": 97, "channel": 0}, {"type": "note_on", "time": 2420, "note": 50, "velocity": 96, "channel": 0}, {"type": "note_off", "time": 5016, "note": 50, "velocity": 96, "channel": 0}, {"type": "note_on", "time": 1254, "note": 52, "velocity": 96, "channel": 0}, {"type": "note_off", "time": 1612, "note": 52, "velocity": 96, "channel": 0}, {"type": "note_on", "time": 895, "note": 53, "velocity": 99, "channel": 0}, {"type": "note_off", "time": 6090, "note": 53, "velocity": 99, "channel": 0}, {"type": "note_on", "time": 2687, "note": 52, "velocity": 92, "channel": 0}, {"type": "note_off", "time": 20243, "note": 52, "velocity": 92, "channel": 0}, {"type": "note_on", "time": 1791, "note": 57, "velocity": 105, "channel": 0}, {"type": "note_off", "time": 8240, "note": 57, "velocity": 105, "channel": 0}, {"type": "note_on", "time": 0, "note": 52, "velocity": 92, "channel": 0}, {"type": "note_on", "time": 7344, "note": 54, "velocity": 110, "channel": 0}, {"type": "note_off", "time": 0, "note": 52, "velocity": 92, "channel": 0}, {"type": "note_off", "time": 4840, "note": 54, "velocity": 110, "channel": 0}, {"type": "note_on", "time": 1787, "note": 57, "velocity": 102, "channel": 0}, {"type": "note_off", "time": 4840, "note": 57, "velocity": 102, "channel": 0}, {"type": "note_on", "time": 2324, "note": 64, "velocity": 87, "channel": 0}, {"type": "note_off", "time": 4840, "note": 64, "velocity": 87, "channel": 0}, {"type": "note_on", "time": 1250, "note": 62, "velocity": 95, "channel": 0}, {"type": "note_off", "time": 14522, "note": 62, "velocity": 95, "channel": 0}, {"type": "note_on", "time": 34025, "note": 69, "velocity": 120, "channel": 0}, {"type": "note_off", "time": 7643, "note": 69, "velocity": 120, "channel": 0}, {"type": "note_on", "time": 1672, "note": 66, "velocity": 107, "channel": 0}, {"type": "note_off", "time": 4120, "note": 66, "velocity": 107, "channel": 0}, {"type": "note_on", "time": 1433, "note": 69, "velocity": 120, "channel": 0}, {"type": "note_off", "time": 5911, "note": 69, "velocity": 120, "channel": 0}, {"type": "note_on", "time": 1612, "note": 66, "velocity": 98, "channel": 0}, {"type": "note_off", "time": 2866, "note": 66, "velocity": 98, "channel": 0}, {"type": "note_on", "time": 1254, "note": 69, "velocity": 109, "channel": 0}, {"type": "note_off", "time": 16302, "note": 69, "velocity": 109, "channel": 0}, {"type": "note_on", "time": 0, "note": 66, "velocity": 104, "channel": 0}, {"type": "note_off", "time": 4299, "note": 66, "velocity": 104, "channel": 0}, {"type": "note_on", "time": 1253, "note": 64, "velocity": 96, "channel": 0}, {"type": "note_off", "time": 4120, "note": 64, "velocity": 96, "channel": 0}, {"type": "note_on", "time": 3941, "note": 60, "velocity": 110, "channel": 0}, {"type": "note_off", "time": 17556, "note": 60, "velocity": 110, "channel": 0}, {"type": "note_on", "time": 2149, "note": 58, "velocity": 103, "channel": 0}, {"type": "note_off", "time": 6628, "note": 58, "velocity": 103, "channel": 0}, {"type": "note_on", "time": 358, "note": 59, "velocity": 99, "channel": 0}, {"type": "note_off", "time": 6090, "note": 59, "velocity": 99, "channel": 0}, {"type": "note_on", "time": 2687, "note": 69, "velocity": 81, "channel": 0}, {"type": "note_off", "time": 3762, "note": 69, "velocity": 81, "channel": 0}, {"type": "note_on", "time": 1433, "note": 67, "velocity": 81, "channel": 0}, {"type": "note_off", "time": 10032, "note": 67, "velocity": 81, "channel": 0}, {"type": "note_on", "time": 5016, "note": 58, "velocity": 94, "channel": 0}, {"type": "note_off", "time": 22930, "note": 58, "velocity": 94, "channel": 0}, {"type": "note_on", "time": 18093, "note": 58, "velocity": 107, "channel": 0}, {"type": "note_off", "time": 18093, "note": 58, "velocity": 107, "channel": 0}, {"type": "note_on", "time": 2508, "note": 66, "velocity": 89, "channel": 0}, {"type": "note_off", "time": 17376, "note": 66, "velocity": 89, "channel": 0}, {"type": "note_on", "time": 3403, "note": 62, "velocity": 108, "channel": 0}, {"type": "note_off", "time": 6807, "note": 62, "velocity": 108, "channel": 0}, {"type": "note_on", "time": 1433, "note": 57, "velocity": 104, "channel": 0}, {"type": "note_off", "time": 5195, "note": 57, "velocity": 104, "channel": 0}, {"type": "note_on", "time": 0, "note": 54, "velocity": 104, "channel": 0}, {"type": "note_off", "time": 9673, "note": 54, "velocity": 104, "channel": 0}, {"type": "note_on", "time": 1433, "note": 55, "velocity": 99, "channel": 0}, {"type": "note_off", "time": 14331, "note": 55, "velocity": 99, "channel": 0}, {"type": "note_on", "time": 1612, "note": 64, "velocity": 90, "channel": 0}, {"type": "note_off", "time": 5911, "note": 64, "velocity": 90, "channel": 0}, {"type": "note_on", "time": 895, "note": 62, "velocity": 89, "channel": 0}, {"type": "note_off", "time": 22751, "note": 62, "velocity": 89, "channel": 0}, {"type": "note_on", "time": 5195, "note": 58, "velocity": 95, "channel": 0}, {"type": "note_off", "time": 5016, "note": 58, "velocity": 95, "channel": 0}, {"type": "note_on", "time": 1254, "note": 55, "velocity": 102, "channel": 0}, {"type": "note_off", "time": 6449, "note": 55, "velocity": 102, "channel": 0}, {"type": "note_on", "time": 1433, "note": 54, "velocity": 97, "channel": 0}, {"type": "note_off", "time": 17556, "note": 54, "velocity": 97, "channel": 0}, {"type": "note_on", "time": 4836, "note": 51, "velocity": 103, "channel": 0}, {"type": "note_off", "time": 4299, "note": 51, "velocity": 103, "channel": 0}, {"type": "note_on", "time": 537, "note": 50, "velocity": 97, "channel": 0}, {"type": "note_off", "time": 5016, "note": 50, "velocity": 97, "channel": 0}, {"type": "note_on", "time": 895, "note": 54, "velocity": 109, "channel": 0}, {"type": "note_off", "time": 8240, "note": 54, "velocity": 109, "channel": 0}, {"type": "note_on", "time": 1433, "note": 57, "velocity": 101, "channel": 0}, {"type": "note_off", "time": 4899, "note": 57, "velocity": 101, "channel": 0}, {"type": "note_on", "time": 653, "note": 63, "velocity": 104, "channel": 0}, {"type": "note_off", "time": 6449, "note": 63, "velocity": 104, "channel": 0}, {"type": "note_on", "time": 537, "note": 62, "velocity": 101, "channel": 0}, {"type": "note_off", "time": 4478, "note": 62, "velocity": 101, "channel": 0}, {"type": "note_on", "time": 1612, "note": 57, "velocity": 103, "channel": 0}, {"type": "note_off", "time": 6449, "note": 57, "velocity": 103, "channel": 0}, {"type": "note_on", "time": 1791, "note": 54, "velocity": 103, "channel": 0}, {"type": "note_off", "time": 6449, "note": 54, "velocity": 103, "channel": 0}, {"type": "note_on", "time": 0, "note": 51, "velocity": 94, "channel": 0}, {"type": "note_off", "time": 4299, "note": 51, "velocity": 94, "channel": 0}, {"type": "note_on", "time": 1612, "note": 50, "velocity": 91, "channel": 0}, {"type": "note_off", "time": 4657, "note": 50, "velocity": 91, "channel": 0}, {"type": "note_on", "time": 1433, "note": 54, "velocity": 104, "channel": 0}, {"type": "note_off", "time": 10032, "note": 54, "velocity": 104, "channel": 0}, {"type": "note_on", "time": 3224, "note": 53, "velocity": 89, "channel": 0}, {"type": "note_off", "time": 21318, "note": 53, "velocity": 89, "channel": 0}, {"type": "note_on", "time": 23646, "note": 57, "velocity": 111, "channel": 0}, {"type": "note_off", "time": 5911, "note": 57, "velocity": 111, "channel": 0}, {"type": "note_on", "time": 1074, "note": 52, "velocity": 96, "channel": 0}, {"type": "note_off", "time": 5473, "note": 52, "velocity": 96, "channel": 0}, {"type": "note_on", "time": 1987, "note": 55, "velocity": 109, "channel": 0}, {"type": "note_off", "time": 7388, "note": 55, "velocity": 109, "channel": 0}, {"type": "note_on", "time": 2267, "note": 52, "velocity": 101, "channel": 0}, {"type": "note_off", "time": 11545, "note": 52, "velocity": 101, "channel": 0}, {"type": "note_on", "time": 0, "note": 55, "velocity": 98, "channel": 0}, {"type": "note_off", "time": 5859, "note": 55, "velocity": 98, "channel": 0}, {"type": "note_on", "time": 768, "note": 62, "velocity": 111, "channel": 0}, {"type": "note_off", "time": 6369, "note": 62, "velocity": 111, "channel": 0}, {"type": "note_on", "time": 1439, "note": 60, "velocity": 113, "channel": 0}, {"type": "note_off", "time": 5859, "note": 60, "velocity": 113, "channel": 0}, {"type": "note_on", "time": 21, "note": 60, "velocity": 113, "channel": 0}, {"type": "note_off", "time": 7636, "note": 60, "velocity": 113, "channel": 0}, {"type": "note_on", "time": 0, "note": 59, "velocity": 94, "channel": 0}, {"type": "note_off", "time": 6114, "note": 59, "velocity": 94, "channel": 0}, {"type": "note_on", "time": 863, "note": 55, "velocity": 100, "channel": 0}, {"type": "note_off", "time": 6114, "note": 55, "velocity": 100, "channel": 0}, {"type": "note_on", "time": 863, "note": 54, "velocity": 100, "channel": 0}, {"type": "note_off", "time": 6114, "note": 54, "velocity": 100, "channel": 0}, {"type": "note_on", "time": 863, "note": 50, "velocity": 93, "channel": 0}, {"type": "note_off", "time": 6114, "note": 50, "velocity": 93, "channel": 0}, {"type": "note_on", "time": 863, "note": 51, "velocity": 83, "channel": 0}, {"type": "note_off", "time": 6114, "note": 51, "velocity": 83, "channel": 0}, {"type": "note_on", "time": 863, "note": 59, "velocity": 94, "channel": 0}, {"type": "note_off", "time": 7133, "note": 59, "velocity": 94, "channel": 0}, {"type": "note_on", "time": 282, "note": 57, "velocity": 96, "channel": 0}, {"type": "note_off", "time": 8152, "note": 57, "velocity": 96, "channel": 0}, {"type": "note_on", "time": 2733, "note": 60, "velocity": 84, "channel": 0}, {"type": "note_off", "time": 29200, "note": 60, "velocity": 84, "channel": 0}, {"type": "note_on", "time": 19168, "note": 60, "velocity": 101, "channel": 0}, {"type": "note_off", "time": 5732, "note": 60, "velocity": 101, "channel": 0}, {"type": "note_on", "time": 895, "note": 59, "velocity": 104, "channel": 0}, {"type": "note_off", "time": 3045, "note": 59, "velocity": 104, "channel": 0}, {"type": "note_on", "time": 1254, "note": 58, "velocity": 99, "channel": 0}, {"type": "note_off", "time": 2328, "note": 58, "velocity": 99, "channel": 0}, {"type": "note_on", "time": 609, "note": 57, "velocity": 105, "channel": 0}, {"type": "note_off", "time": 7898, "note": 57, "velocity": 105, "channel": 0}, {"type": "note_on", "time": 484, "note": 59, "velocity": 98, "channel": 0}, {"type": "note_off", "time": 8152, "note": 59, "velocity": 98, "channel": 0}, {"type": "note_on", "time": 3277, "note": 50, "velocity": 85, "channel": 0}, {"type": "note_off", "time": 4076, "note": 50, "velocity": 85, "channel": 0}, {"type": "note_on", "time": 1118, "note": 57, "velocity": 98, "channel": 0}, {"type": "note_off", "time": 7264, "note": 57, "velocity": 98, "channel": 0}, {"type": "note_on", "time": 1692, "note": 50, "velocity": 89, "channel": 0}, {"type": "note_off", "time": 14527, "note": 50, "velocity": 89, "channel": 0}, {"type": "note_on", "time": 27, "note": 55, "velocity": 101, "channel": 0}, {"type": "note_off", "time": 21790, "note": 55, "velocity": 101, "channel": 0}, {"type": "note_on", "time": 0, "note": 57, "velocity": 97, "channel": 0}, {"type": "note_off", "time": 7264, "note": 57, "velocity": 97, "channel": 0}, {"type": "note_on", "time": 279, "note": 52, "velocity": 99, "channel": 0}, {"type": "note_off", "time": 5374, "note": 52, "velocity": 99, "channel": 0}, {"type": "note_on", "time": 179, "note": 51, "velocity": 88, "channel": 0}, {"type": "note_off", "time": 3045, "note": 51, "velocity": 88, "channel": 0}, {"type": "note_on", "time": 12912, "note": 66, "velocity": 101, "channel": 0}, {"type": "note_off", "time": 6879, "note": 66, "velocity": 101, "channel": 0}, {"type": "note_on", "time": 1021, "note": 57, "velocity": 103, "channel": 0}, {"type": "note_off", "time": 4301, "note": 57, "velocity": 103, "channel": 0}, {"type": "note_on", "time": 0, "note": 64, "velocity": 98, "channel": 0}, {"type": "note_off", "time": 8917, "note": 64, "velocity": 98, "channel": 0}, {"type": "note_on", "time": 6634, "note": 68, "velocity": 121, "channel": 0}, {"type": "note_off", "time": 4458, "note": 68, "velocity": 121, "channel": 0}, {"type": "note_on", "time": 2944, "note": 66, "velocity": 95, "channel": 0}, {"type": "note_off", "time": 4778, "note": 66, "velocity": 95, "channel": 0}, {"type": "note_on", "time": 0, "note": 63, "velocity": 106, "channel": 0}, {"type": "note_off", "time": 7133, "note": 63, "velocity": 106, "channel": 0}, {"type": "note_on", "time": 31, "note": 60, "velocity": 110, "channel": 0}, {"type": "note_off", "time": 5016, "note": 60, "velocity": 110, "channel": 0}, {"type": "note_on", "time": 716, "note": 57, "velocity": 100, "channel": 0}, {"type": "note_off", "time": 6270, "note": 57, "velocity": 100, "channel": 0}, {"type": "note_on", "time": 1612, "note": 54, "velocity": 104, "channel": 0}, {"type": "note_off", "time": 5732, "note": 54, "velocity": 104, "channel": 0}, {"type": "note_on", "time": 1970, "note": 53, "velocity": 95, "channel": 0}, {"type": "note_off", "time": 10390, "note": 53, "velocity": 95, "channel": 0}, {"type": "note_on", "time": 3941, "note": 56, "velocity": 107, "channel": 0}, {"type": "note_off", "time": 5137, "note": 56, "velocity": 107, "channel": 0}, {"type": "note_on", "time": 2207, "note": 50, "velocity": 90, "channel": 0}, {"type": "note_off", "time": 5911, "note": 50, "velocity": 90, "channel": 0}, {"type": "note_on", "time": 895, "note": 53, "velocity": 98, "channel": 0}, {"type": "note_off", "time": 5016, "note": 53, "velocity": 98, "channel": 0}, {"type": "note_on", "time": 1612, "note": 56, "velocity": 99, "channel": 0}, {"type": "note_off", "time": 5911, "note": 56, "velocity": 99, "channel": 0}, {"type": "note_on", "time": 716, "note": 59, "velocity": 94, "channel": 0}, {"type": "note_off", "time": 6270, "note": 59, "velocity": 94, "channel": 0}, {"type": "note_on", "time": 895, "note": 65, "velocity": 90, "channel": 0}, {"type": "note_off", "time": 6090, "note": 65, "velocity": 90, "channel": 0}, {"type": "note_on", "time": 179, "note": 63, "velocity": 91, "channel": 0}, {"type": "note_off", "time": 20064, "note": 63, "velocity": 91, "channel": 0}, {"type": "note_on", "time": 21587, "note": 58, "velocity": 109, "channel": 0}, {"type": "note_off", "time": 8407, "note": 58, "velocity": 109, "channel": 0}, {"type": "note_on", "time": 18, "note": 58, "velocity": 103, "channel": 0}, {"type": "note_off", "time": 4840, "note": 58, "velocity": 103, "channel": 0}, {"type": "note_on", "time": 1259, "note": 63, "velocity": 114, "channel": 0}, {"type": "note_off", "time": 7388, "note": 63, "velocity": 114, "channel": 0}, {"type": "note_on", "time": 5223, "note": 70, "velocity": 119, "channel": 0}, {"type": "note_off", "time": 6270, "note": 70, "velocity": 119, "channel": 0}, {"type": "note_on", "time": 1254, "note": 70, "velocity": 109, "channel": 0}, {"type": "note_off", "time": 5911, "note": 70, "velocity": 109, "channel": 0}, {"type": "note_on", "time": 358, "note": 75, "velocity": 109, "channel": 0}, {"type": "note_off", "time": 5553, "note": 75, "velocity": 109, "channel": 0}, {"type": "note_on", "time": 7524, "note": 58, "velocity": 99, "channel": 0}, {"type": "note_off", "time": 6807, "note": 58, "velocity": 99, "channel": 0}, {"type": "note_on", "time": 1433, "note": 58, "velocity": 102, "channel": 0}, {"type": "note_off", "time": 6270, "note": 58, "velocity": 102, "channel": 0}, {"type": "note_on", "time": 716, "note": 64, "velocity": 98, "channel": 0}, {"type": "note_off", "time": 14510, "note": 64, "velocity": 98, "channel": 0}, {"type": "note_on", "time": 4657, "note": 71, "velocity": 111, "channel": 0}, {"type": "note_off", "time": 4114, "note": 71, "velocity": 111, "channel": 0}, {"type": "note_on", "time": 4305, "note": 76, "velocity": 118, "channel": 0}, {"type": "note_off", "time": 3582, "note": 76, "velocity": 118, "channel": 0}, {"type": "note_on", "time": 9852, "note": 70, "velocity": 106, "channel": 0}, {"type": "note_off", "time": 9681, "note": 70, "velocity": 106, "channel": 0}, {"type": "note_on", "time": 1962, "note": 64, "velocity": 93, "channel": 0}, {"type": "note_off", "time": 8061, "note": 64, "velocity": 93, "channel": 0}, {"type": "note_on", "time": 537, "note": 58, "velocity": 96, "channel": 0}, {"type": "note_off", "time": 17018, "note": 58, "velocity": 96, "channel": 0}, {"type": "note_on", "time": 16481, "note": 58, "velocity": 106, "channel": 0}, {"type": "note_off", "time": 6090, "note": 58, "velocity": 106, "channel": 0}, {"type": "note_on", "time": 1074, "note": 58, "velocity": 102, "channel": 0}, {"type": "note_off", "time": 5374, "note": 58, "velocity": 102, "channel": 0}, {"type": "note_on", "time": 2328, "note": 65, "velocity": 103, "channel": 0}, {"type": "note_off", "time": 12898, "note": 65, "velocity": 103, "channel": 0}, {"type": "note_on", "time": 6986, "note": 70, "velocity": 115, "channel": 0}, {"type": "note_off", "time": 4299, "note": 70, "velocity": 115, "channel": 0}, {"type": "note_on", "time": 1612, "note": 77, "velocity": 107, "channel": 0}, {"type": "note_off", "time": 6449, "note": 77, "velocity": 107, "channel": 0}, {"type": "note_on", "time": 6090, "note": 70, "velocity": 113, "channel": 0}, {"type": "note_off", "time": 6090, "note": 70, "velocity": 113, "channel": 0}, {"type": "note_on", "time": 1970, "note": 65, "velocity": 102, "channel": 0}, {"type": "note_off", "time": 5553, "note": 65, "velocity": 102, "channel": 0}, {"type": "note_on", "time": 1791, "note": 60, "velocity": 107, "channel": 0}, {"type": "note_off", "time": 6807, "note": 60, "velocity": 107, "channel": 0}, {"type": "note_on", "time": 0, "note": 58, "velocity": 95, "channel": 0}, {"type": "note_off", "time": 18451, "note": 58, "velocity": 95, "channel": 0}, {"type": "note_on", "time": 25796, "note": 72, "velocity": 123, "channel": 0}, {"type": "note_off", "time": 7898, "note": 72, "velocity": 123, "channel": 0}, {"type": "note_on", "time": 1922, "note": 70, "velocity": 121, "channel": 0}, {"type": "note_off", "time": 14352, "note": 70, "velocity": 121, "channel": 0}, {"type": "note_on", "time": 3414, "note": 67, "velocity": 111, "channel": 0}, {"type": "note_off", "time": 23674, "note": 67, "velocity": 111, "channel": 0}, {"type": "note_on", "time": 4450, "note": 64, "velocity": 113, "channel": 0}, {"type": "note_on", "time": 7703, "note": 61, "velocity": 110, "channel": 0}, {"type": "note_off", "time": 0, "note": 64, "velocity": 113, "channel": 0}, {"type": "note_off", "time": 4836, "note": 61, "velocity": 110, "channel": 0}, {"type": "note_on", "time": 537, "note": 60, "velocity": 113, "channel": 0}, {"type": "note_off", "time": 5374, "note": 60, "velocity": 113, "channel": 0}, {"type": "note_on", "time": 1724, "note": 58, "velocity": 94, "channel": 0}, {"type": "note_off", "time": 7053, "note": 58, "velocity": 94, "channel": 0}, {"type": "note_on", "time": 0, "note": 56, "velocity": 98, "channel": 0}, {"type": "note_off", "time": 7388, "note": 56, "velocity": 98, "channel": 0}, {"type": "note_on", "time": 493, "note": 55, "velocity": 96, "channel": 0}, {"type": "note_off", "time": 17018, "note": 55, "velocity": 96, "channel": 0}, {"type": "note_on", "time": 1612, "note": 54, "velocity": 102, "channel": 0}, {"type": "note_off", "time": 7703, "note": 54, "velocity": 102, "channel": 0}, {"type": "note_on", "time": 716, "note": 51, "velocity": 92, "channel": 0}, {"type": "note_off", "time": 4840, "note": 51, "velocity": 92, "channel": 0}, {"type": "note_on", "time": 2324, "note": 53, "velocity": 96, "channel": 0}, {"type": "note_off", "time": 4840, "note": 53, "velocity": 96, "channel": 0}, {"type": "note_on", "time": 2676, "note": 58, "velocity": 87, "channel": 0}, {"type": "note_off", "time": 4840, "note": 58, "velocity": 87, "channel": 0}, {"type": "note_on", "time": 1589, "note": 65, "velocity": 88, "channel": 0}, {"type": "note_off", "time": 13503, "note": 65, "velocity": 88, "channel": 0}, {"type": "note_on", "time": 8019, "note": 63, "velocity": 97, "channel": 0}, {"type": "note_off", "time": 17376, "note": 63, "velocity": 97, "channel": 0}, {"type": "note_on", "time": 28304, "note": 63, "velocity": 117, "channel": 0}, {"type": "note_off", "time": 3423, "note": 63, "velocity": 117, "channel": 0}, {"type": "note_on", "time": 2129, "note": 65, "velocity": 101, "channel": 0}, {"type": "note_off", "time": 3224, "note": 65, "velocity": 101, "channel": 0}, {"type": "note_on", "time": 5038, "note": 66, "velocity": 117, "channel": 0}, {"type": "note_off", "time": 6890, "note": 66, "velocity": 117, "channel": 0}, {"type": "note_on", "time": 0, "note": 69, "velocity": 113, "channel": 0}, {"type": "note_off", "time": 6343, "note": 69, "velocity": 113, "channel": 0}, {"type": "note_on", "time": 0, "note": 66, "velocity": 98, "channel": 0}, {"type": "note_off", "time": 7133, "note": 66, "velocity": 98, "channel": 0}, {"type": "note_on", "time": 31, "note": 63, "velocity": 108, "channel": 0}, {"type": "note_off", "time": 4840, "note": 63, "velocity": 108, "channel": 0}, {"type": "note_on", "time": 533, "note": 60, "velocity": 114, "channel": 0}, {"type": "note_off", "time": 6270, "note": 60, "velocity": 114, "channel": 0}, {"type": "note_on", "time": 1791, "note": 57, "velocity": 98, "channel": 0}, {"type": "note_off", "time": 4120, "note": 57, "velocity": 98, "channel": 0}, {"type": "note_on", "time": 1970, "note": 54, "velocity": 101, "channel": 0}, {"type": "note_off", "time": 7523, "note": 54, "velocity": 101, "channel": 0}, {"type": "note_on", "time": 179, "note": 51, "velocity": 91, "channel": 0}, {"type": "note_off", "time": 3403, "note": 51, "velocity": 91, "channel": 0}, {"type": "note_on", "time": 1433, "note": 53, "velocity": 89, "channel": 0}, {"type": "note_off", "time": 12540, "note": 53, "velocity": 89, "channel": 0}, {"type": "note_on", "time": 1253, "note": 60, "velocity": 106, "channel": 0}, {"type": "note_off", "time": 7703, "note": 60, "velocity": 106, "channel": 0}, {"type": "note_on", "time": 537, "note": 61, "velocity": 94, "channel": 0}, {"type": "note_off", "time": 3762, "note": 61, "velocity": 94, "channel": 0}, {"type": "note_on", "time": 2687, "note": 58, "velocity": 86, "channel": 0}, {"type": "note_off", "time": 18989, "note": 58, "velocity": 86, "channel": 0}, {"type": "note_on", "time": 20243, "note": 65, "velocity": 97, "channel": 0}, {"type": "note_off", "time": 17555, "note": 65, "velocity": 97, "channel": 0}, {"type": "note_on", "time": 3403, "note": 63, "velocity": 112, "channel": 0}, {"type": "note_off", "time": 8120, "note": 63, "velocity": 112, "channel": 0}, {"type": "note_on", "time": 2090, "note": 62, "velocity": 101, "channel": 0}, {"type": "note_off", "time": 4945, "note": 62, "velocity": 101, "channel": 0}, {"type": "note_on", "time": 1862, "note": 57, "velocity": 102, "channel": 0}, {"type": "note_off", "time": 4945, "note": 57, "velocity": 102, "channel": 0}, {"type": "note_on", "time": 2757, "note": 54, "velocity": 102, "channel": 0}, {"type": "note_off", "time": 4945, "note": 54, "velocity": 102, "channel": 0}, {"type": "note_on", "time": 1145, "note": 51, "velocity": 93, "channel": 0}, {"type": "note_off", "time": 4945, "note": 51, "velocity": 93, "channel": 0}, {"type": "note_on", "time": 1503, "note": 50, "velocity": 90, "channel": 0}, {"type": "note_off", "time": 3941, "note": 50, "velocity": 90, "channel": 0}, {"type": "note_on", "time": 3224, "note": 54, "velocity": 88, "channel": 0}, {"type": "note_off", "time": 20601, "note": 54, "velocity": 88, "channel": 0}, {"type": "note_on", "time": 18093, "note": 52, "velocity": 102, "channel": 0}, {"type": "note_off", "time": 7133, "note": 52, "velocity": 102, "channel": 0}, {"type": "note_on", "time": 210, "note": 55, "velocity": 101, "channel": 0}, {"type": "note_off", "time": 3941, "note": 55, "velocity": 101, "channel": 0}, {"type": "note_on", "time": 1074, "note": 59, "velocity": 92, "channel": 0}, {"type": "note_off", "time": 5016, "note": 59, "velocity": 92, "channel": 0}, {"type": "note_on", "time": 2508, "note": 52, "velocity": 93, "channel": 0}, {"type": "note_off", "time": 5732, "note": 52, "velocity": 93, "channel": 0}, {"type": "note_on", "time": 2149, "note": 55, "velocity": 90, "channel": 0}, {"type": "note_off", "time": 21401, "note": 55, "velocity": 90, "channel": 0}, {"type": "note_on", "time": 1349, "note": 51, "velocity": 98, "channel": 0}, {"type": "note_off", "time": 6449, "note": 51, "velocity": 98, "channel": 0}, {"type": "note_on", "time": 0, "note": 54, "velocity": 100, "channel": 0}, {"type": "note_off", "time": 5195, "note": 54, "velocity": 100, "channel": 0}, {"type": "note_on", "time": 0, "note": 58, "velocity": 86, "channel": 0}, {"type": "note_off", "time": 7133, "note": 58, "velocity": 86, "channel": 0}, {"type": "note_on", "time": 927, "note": 51, "velocity": 93, "channel": 0}, {"type": "note_off", "time": 5374, "note": 51, "velocity": 93, "channel": 0}, {"type": "note_on", "time": 3224, "note": 54, "velocity": 92, "channel": 0}, {"type": "note_off", "time": 21401, "note": 54, "velocity": 92, "channel": 0}, {"type": "note_on", "time": 1349, "note": 50, "velocity": 93, "channel": 0}, {"type": "note_off", "time": 7133, "note": 50, "velocity": 93, "channel": 0}, {"type": "note_on", "time": 31, "note": 54, "velocity": 98, "channel": 0}, {"type": "note_off", "time": 3762, "note": 54, "velocity": 98, "channel": 0}, {"type": "note_on", "time": 0, "note": 57, "velocity": 92, "channel": 0}, {"type": "note_off", "time": 7133, "note": 57, "velocity": 92, "channel": 0}, {"type": "note_on", "time": 569, "note": 50, "velocity": 90, "channel": 0}, {"type": "note_off", "time": 10748, "note": 50, "velocity": 90, "channel": 0}, {"type": "note_on", "time": 1074, "note": 54, "velocity": 84, "channel": 0}, {"type": "note_off", "time": 21401, "note": 54, "velocity": 84, "channel": 0}, {"type": "note_on", "time": 3320, "note": 49, "velocity": 84, "channel": 0}, {"type": "note_off", "time": 14267, "note": 49, "velocity": 84, "channel": 0}, {"type": "note_on", "time": 242, "note": 53, "velocity": 83, "channel": 0}, {"type": "note_off", "time": 129162, "note": 53, "velocity": 83, "channel": 0}, {"type": "end_of_track", "time": 0}]]}