{"ticks_per_beat": 192, "tracks": [[{"type": "track_name", "name": "Melody", "time": 0}, {"type": "set_tempo", "tempo": 447761, "time": 0}, {"type": "key_signature", "key": "F", "time": 0}, {"type": "time_signature", "numerator": 4, "denominator": 4, "clocks_per_click": 24, "notated_32nd_notes_per_beat": 8, "time": 0}, {"type": "note_on", "time": 4102, "note": 47, "velocity": 104, "channel": 0}, {"type": "note_off", "time": 51, "note": 47, "velocity": 104, "channel": 0}, {"type": "note_on", "time": 7, "note": 49, "velocity": 113, "channel": 0}, {"type": "note_off", "time": 22, "note": 49, "velocity": 113, "channel": 0}, {"type": "note_on", "time": 14, "note": 51, "velocity": 120, "channel": 0}, {"type": "note_off", "time": 47, "note": 51, "velocity": 120, "channel": 0}, {"type": "note_on", "time": 6, "note": 53, "velocity": 111, "channel": 0}, {"type": "note_off", "time": 26, "note": 53, "velocity": 111, "channel": 0}, {"type": "note_on", "time": 13, "note": 54, "velocity": 118, "channel": 0}, {"type": "note_off", "time": 46, "note": 54, "velocity": 118, "channel": 0}, {"type": "note_on", "time": 4, "note": 56, "velocity": 108, "channel": 0}, {"type": "note_off", "time": 26, "note": 56, "velocity": 108, "channel": 0}, {"type": "note_on", "time": 16, "note": 58, "velocity": 99, "channel": 0}, {"type": "note_off", "time": 24, "note": 58, "velocity": 99, "channel": 0}, {"type": "note_on", "time": 5, "note": 60, "velocity": 117, "channel": 0}, {"type": "note_off", "time": 39, "note": 60, "velocity": 117, "channel": 0}, {"type": "note_on", "time": 13, "note": 62, "velocity": 104, "channel": 0}, {"type": "note_off", "time": 32, "note": 62, "velocity": 104, "channel": 0}, {"type": "note_on", "time": 9, "note": 63, "velocity": 107, "channel": 0}, {"type": "note_off", "time": 30, "note": 63, "velocity": 107, "channel": 0}, {"type": "note_on", "time": 10, "note": 64, "velocity": 95, "channel": 0}, {"type": "note_off", "time": 29, "note": 64, "velocity": 95, "channel": 0}, {"type": "note_on", "time": 11, "note": 66, "velocity": 91, "channel": 0}, {"type": "note_off", "time": 23, "note": 66, "velocity": 91, "channel": 0}, {"type": "note_on", "time": 9, "note": 68, "velocity": 93, "channel": 0}, {"type": "note_off", "time": 36, "note": 68, "velocity": 93, "channel": 0}, {"type": "note_on", "time": 12, "note": 69, "velocity": 98, "channel": 0}, {"type": "note_off", "time": 27, "note": 69, "velocity": 98, "channel": 0}, {"type": "note_on", "time": 7, "note": 70, "velocity": 98, "channel": 0}, {"type": "note_off", "time": 42, "note": 70, "velocity": 98, "channel": 0}, {"type": "note_on", "time": 7, "note": 72, "velocity": 115, "channel": 0}, {"type": "note_off", "time": 60, "note": 72, "velocity": 115, "channel": 0}, {"type": "note_on", "time": 563, "note": 70, "velocity": 119, "channel": 0}, {"type": "note_off", "time": 35, "note": 70, "velocity": 119, "channel": 0}, {"type": "note_on", "time": 8, "note": 72, "velocity": 124, "channel": 0}, {"type": "note_off", "time": 40, "note": 72, "velocity": 124, "channel": 0}, {"type": "note_on", "time": 15, "note": 69, "velocity": 112, "channel": 0}, {"type": "note_off", "time": 58, "note": 69, "velocity": 112, "channel": 0}, {"type": "note_on", "time": 25, "note": 67, "velocity": 90, "channel": 0}, {"type": "note_off", "time": 164, "note": 67, "velocity": 90, "channel": 0}, {"type": "note_on", "time": 32, "note": 65, "velocity": 99, "channel": 0}, {"type": "note_off", "time": 38, "note": 65, "velocity": 99, "channel": 0}, {"type": "note_on", "time": 4, "note": 66, "velocity": 95, "channel": 0}, {"type": "note_off", "time": 16, "note": 66, "velocity": 95, "channel": 0}, {"type": "note_on", "time": 4, "note": 65, "velocity": 104, "channel": 0}, {"type": "note_off", "time": 36, "note": 65, "velocity": 104, "channel": 0}, {"type": "note_on", "time": 11, "note": 62, "velocity": 101, "channel": 0}, {"type": "note_off", "time": 65, "note": 62, "velocity": 101, "channel": 0}, {"type": "note_on", "time": 24, "note": 65, "velocity": 109, "channel": 0}, {"type": "note_off", "time": 112, "note": 65, "velocity": 109, "channel": 0}, {"type": "note_on", "time": 17, "note": 62, "velocity": 92, "channel": 0}, {"type": "note_off", "time": 161, "note": 62, "velocity": 92, "channel": 0}, {"type": "note_on", "time": 8, "note": 55, "velocity": 103, "channel": 0}, {"type": "note_off", "time": 62, "note": 55, "velocity": 103, "channel": 0}, {"type": "note_on", "time": 5, "note": 48, "velocity": 101, "channel": 0}, {"type": "note_off", "time": 55, "note": 48, "velocity": 101, "channel": 0}, {"type": "note_on", "time": 11, "note": 53, "velocity": 105, "channel": 0}, {"type": "note_off", "time": 50, "note": 53, "velocity": 105, "channel": 0}, {"type": "note_on", "time": 13, "note": 55, "velocity": 106, "channel": 0}, {"type": "note_off", "time": 45, "note": 55, "velocity": 106, "channel": 0}, {"type": "note_on", "time": 7, "note": 56, "velocity": 107, "channel": 0}, {"type": "note_off", "time": 33, "note": 56, "velocity": 107, "channel": 0}, {"type": "note_on", "time": 11, "note": 57, "velocity": 113, "channel": 0}, {"type": "note_off", "time": 44, "note": 57, "velocity": 113, "channel": 0}, {"type": "note_on", "time": 6, "note": 57, "velocity": 105, "channel": 0}, {"type": "note_off", "time": 40, "note": 57, "velocity": 105, "channel": 0}, {"type": "note_on", "time": 4, "note": 60, "velocity": 108, "channel": 0}, {"type": "note_off", "time": 78, "note": 60, "velocity": 108, "channel": 0}, {"type": "note_on", "time": 3, "note": 55, "velocity": 99, "channel": 0}, {"type": "note_off", "time": 154, "note": 55, "velocity": 99, "channel": 0}, {"type": "note_on", "time": 81, "note": 50, "velocity": 91, "channel": 0}, {"type": "note_off", "time": 77, "note": 50, "velocity": 91, "channel": 0}, {"type": "note_on", "time": 9, "note": 53, "velocity": 97, "channel": 0}, {"type": "note_off", "time": 105, "note": 53, "velocity": 97, "channel": 0}, {"type": "note_on", "time": 423, "note": 53, "velocity": 113, "channel": 0}, {"type": "note_off", "time": 56, "note": 53, "velocity": 113, "channel": 0}, {"type": "note_on", "time": 6, "note": 55, "velocity": 110, "channel": 0}, {"type": "note_off", "time": 34, "note": 55, "velocity": 110, "channel": 0}, {"type": "note_on", "time": 7, "note": 57, "velocity": 111, "channel": 0}, {"type": "note_off", "time": 26, "note": 57, "velocity": 111, "channel": 0}, {"type": "note_on", "time": 20, "note": 58, "velocity": 103, "channel": 0}, {"type": "note_off", "time": 41, "note": 58, "velocity": 103, "channel": 0}, {"type": "note_on", "time": 8, "note": 60, "velocity": 110, "channel": 0}, {"type": "note_off", "time": 39, "note": 60, "velocity": 110, "channel": 0}, {"type": "note_on", "time": 18, "note": 62, "velocity": 105, "channel": 0}, {"type": "note_off", "time": 42, "note": 62, "velocity": 105, "channel": 0}, {"type": "note_on", "time": 11, "note": 63, "velocity": 109, "channel": 0}, {"type": "note_off", "time": 27, "note": 63, "velocity": 109, "channel": 0}, {"type": "note_on", "time": 3, "note": 64, "velocity": 107, "channel": 0}, {"type": "note_off", "time": 36, "note": 64, "velocity": 107, "channel": 0}, {"type": "note_on", "time": 15, "note": 65, "velocity": 98, "channel": 0}, {"type": "note_off", "time": 141, "note": 65, "velocity": 98, "channel": 0}, {"type": "note_on", "time": 15, "note": 63, "velocity": 99, "channel": 0}, {"type": "note_off", "time": 84, "note": 63, "velocity": 99, "channel": 0}, {"type": "note_on", "time": 25, "note": 60, "velocity": 107, "channel": 0}, {"type": "note_off", "time": 44, "note": 60, "velocity": 107, "channel": 0}, {"type": "note_on", "time": 5, "note": 62, "velocity": 104, "channel": 0}, {"type": "note_off", "time": 70, "note": 62, "velocity": 104, "channel": 0}, {"type": "note_on", "time": 5, "note": 65, "velocity": 97, "channel": 0}, {"type": "note_off", "time": 51, "note": 65, "velocity": 97, "channel": 0}, {"type": "note_on", "time": 30, "note": 62, "velocity": 97, "channel": 0}, {"type": "note_off", "time": 57, "note": 62, "velocity": 97, "channel": 0}, {"type": "note_on", "time": 17, "note": 60, "velocity": 98, "channel": 0}, {"type": "note_off", "time": 42, "note": 60, "velocity": 98, "channel": 0}, {"type": "note_on", "time": 15, "note": 55, "velocity": 100, "channel": 0}, {"type": "note_off", "time": 209, "note": 55, "velocity": 100, "channel": 0}, {"type": "note_on", "time": 322, "note": 53, "velocity": 119, "channel": 0}, {"type": "note_off", "time": 66, "note": 53, "velocity": 119, "channel": 0}, {"type": "note_on", "time": 7, "note": 50, "velocity": 102, "channel": 0}, {"type": "note_off", "time": 54, "note": 50, "velocity": 102, "channel": 0}, {"type": "note_on", "time": 7, "note": 51, "velocity": 105, "channel": 0}, {"type": "note_off", "time": 52, "note": 51, "velocity": 105, "channel": 0}, {"type": "note_on", "time": 9, "note": 52, "velocity": 117, "channel": 0}, {"type": "note_off", "time": 49, "note": 52, "velocity": 117, "channel": 0}, {"type": "note_on", "time": 21, "note": 61, "velocity": 106, "channel": 0}, {"type": "note_off", "time": 58, "note": 61, "velocity": 106, "channel": 0}, {"type": "note_on", "time": 7, "note": 60, "velocity": 112, "channel": 0}, {"type": "note_off", "time": 38, "note": 60, "velocity": 112, "channel": 0}, {"type": "note_on", "time": 8, "note": 58, "velocity": 103, "channel": 0}, {"type": "note_off", "time": 47, "note": 58, "velocity": 103, "channel": 0}, {"type": "note_on", "time": 11, "note": 57, "velocity": 106, "channel": 0}, {"type": "note_off", "time": 126, "note": 57, "velocity": 106, "channel": 0}, {"type": "note_on", "time": 12, "note": 60, "velocity": 107, "channel": 0}, {"type": "note_off", "time": 78, "note": 60, "velocity": 107, "channel": 0}, {"type": "note_on", "time": 18, "note": 64, "velocity": 97, "channel": 0}, {"type": "note_off", "time": 135, "note": 64, "velocity": 97, "channel": 0}, {"type": "note_on", "time": 31, "note": 64, "velocity": 106, "channel": 0}, {"type": "note_off", "time": 50, "note": 64, "velocity": 106, "channel": 0}, {"type": "note_on", "time": 7, "note": 63, "velocity": 98, "channel": 0}, {"type": "note_off", "time": 78, "note": 63, "velocity": 98, "channel": 0}, {"type": "note_on", "time": 5, "note": 60, "velocity": 103, "channel": 0}, {"type": "note_off", "time": 133, "note": 60, "velocity": 103, "channel": 0}, {"type": "note_on", "time": 492, "note": 60, "velocity": 107, "channel": 0}, {"type": "note_off", "time": 23, "note": 60, "velocity": 107, "channel": 0}, {"type": "note_on", "time": 12, "note": 62, "velocity": 116, "channel": 0}, {"type": "note_off", "time": 59, "note": 62, "velocity": 116, "channel": 0}, {"type": "note_on", "time": 16, "note": 67, "velocity": 112, "channel": 0}, {"type": "note_off", "time": 38, "note": 67, "velocity": 112, "channel": 0}, {"type": "note_on", "time": 5, "note": 68, "velocity": 114, "channel": 0}, {"type": "note_off", "time": 17, "note": 68, "velocity": 114, "channel": 0}, {"type": "note_on", "time": 11, "note": 69, "velocity": 117, "channel": 0}, {"type": "note_off", "time": 49, "note": 69, "velocity": 117, "channel": 0}, {"type": "note_on", "time": 18, "note": 64, "velocity": 106, "channel": 0}, {"type": "note_off", "time": 35, "note": 64, "velocity": 106, "channel": 0}, {"type": "note_on", "time": 6, "note": 62, "velocity": 103, "channel": 0}, {"type": "note_off", "time": 39, "note": 62, "velocity": 103, "channel": 0}, {"type": "note_on", "time": 11, "note": 60, "velocity": 106, "channel": 0}, {"type": "note_off", "time": 25, "note": 60, "velocity": 106, "channel": 0}, {"type": "note_on", "time": 10, "note": 67, "velocity": 110, "channel": 0}, {"type": "note_off", "time": 49, "note": 67, "velocity": 110, "channel": 0}, {"type": "note_on", "time": 8, "note": 65, "velocity": 111, "channel": 0}, {"type": "note_off", "time": 29, "note": 65, "velocity": 111, "channel": 0}, {"type": "note_on", "time": 7, "note": 64, "velocity": 110, "channel": 0}, {"type": "note_off", "time": 37, "note": 64, "velocity": 110, "channel": 0}, {"type": "note_on", "time": 11, "note": 62, "velocity": 108, "channel": 0}, {"type": "note_off", "time": 38, "note": 62, "velocity": 108, "channel": 0}, {"type": "note_on", "time": 14, "note": 60, "velocity": 112, "channel": 0}, {"type": "note_off", "time": 32, "note": 60, "velocity": 112, "channel": 0}, {"type": "note_on", "time": 11, "note": 58, "velocity": 97, "channel": 0}, {"type": "note_off", "time": 31, "note": 58, "velocity": 97, "channel": 0}, {"type": "note_on", "time": 10, "note": 55, "velocity": 103, "channel": 0}, {"type": "note_off", "time": 42, "note": 55, "velocity": 103, "channel": 0}, {"type": "note_on", "time": 7, "note": 53, "velocity": 97, "channel": 0}, {"type": "note_off", "time": 27, "note": 53, "velocity": 97, "channel": 0}, {"type": "note_on", "time": 17, "note": 58, "velocity": 98, "channel": 0}, {"type": "note_off", "time": 51, "note": 58, "velocity": 98, "channel": 0}, {"type": "note_on", "time": 7, "note": 55, "velocity": 101, "channel": 0}, {"type": "note_off", "time": 27, "note": 55, "velocity": 101, "channel": 0}, {"type": "note_on", "time": 8, "note": 57, "velocity": 107, "channel": 0}, {"type": "note_off", "time": 54, "note": 57, "velocity": 107, "channel": 0}, {"type": "note_on", "time": 4, "note": 58, "velocity": 97, "channel": 0}, {"type": "note_off", "time": 24, "note": 58, "velocity": 97, "channel": 0}, {"type": "note_on", "time": 7, "note": 60, "velocity": 108, "channel": 0}, {"type": "note_off", "time": 47, "note": 60, "velocity": 108, "channel": 0}, {"type": "note_on", "time": 6, "note": 64, "velocity": 95, "channel": 0}, {"type": "note_off", "time": 30, "note": 64, "velocity": 95, "channel": 0}, {"type": "note_on", "time": 5, "note": 67, "velocity": 103, "channel": 0}, {"type": "note_off", "time": 52, "note": 67, "velocity": 103, "channel": 0}, {"type": "note_on", "time": 10, "note": 64, "velocity": 106, "channel": 0}, {"type": "note_off", "time": 37, "note": 64, "velocity": 106, "channel": 0}, {"type": "note_on", "time": 12, "note": 65, "velocity": 102, "channel": 0}, {"type": "note_off", "time": 34, "note": 65, "velocity": 102, "channel": 0}, {"type": "note_on", "time": 7, "note": 62, "velocity": 98, "channel": 0}, {"type": "note_off", "time": 37, "note": 62, "velocity": 98, "channel": 0}, {"type": "note_on", "time": 9, "note": 55, "velocity": 102, "channel": 0}, {"type": "note_off", "time": 28, "note": 55, "velocity": 102, "channel": 0}, {"type": "note_on", "time": 8, "note": 53, "velocity": 94, "channel": 0}, {"type": "note_off", "time": 39, "note": 53, "velocity": 94, "channel": 0}, {"type": "note_on", "time": 6, "note": 64, "velocity": 104, "channel": 0}, {"type": "note_off", "time": 33, "note": 64, "velocity": 104, "channel": 0}, {"type": "note_on", "time": 24, "note": 60, "velocity": 97, "channel": 0}, {"type": "note_off", "time": 30, "note": 60, "velocity": 97, "channel": 0}, {"type": "note_on", "time": 11, "note": 55, "velocity": 104, "channel": 0}, {"type": "note_off", "time": 38, "note": 55, "velocity": 104, "channel": 0}, {"type": "note_on", "time": 372, "note": 58, "velocity": 108, "channel": 0}, {"type": "note_off", "time": 60, "note": 58, "velocity": 108, "channel": 0}, {"type": "note_on", "time": 11, "note": 57, "velocity": 116, "channel": 0}, {"type": "note_off", "time": 96, "note": 57, "velocity": 116, "channel": 0}, {"type": "note_on", "time": 14, "note": 55, "velocity": 114, "channel": 0}, {"type": "note_off", "time": 71, "note": 55, "velocity": 114, "channel": 0}, {"type": "note_on", "time": 11, "note": 53, "velocity": 107, "channel": 0}, {"type": "note_off", "time": 23, "note": 53, "velocity": 107, "channel": 0}, {"type": "note_on", "time": 5, "note": 54, "velocity": 109, "channel": 0}, {"type": "note_off", "time": 16, "note": 54, "velocity": 109, "channel": 0}, {"type": "note_on", "time": 5, "note": 53, "velocity": 98, "channel": 0}, {"type": "note_off", "time": 43, "note": 53, "velocity": 98, "channel": 0}, {"type": "note_on", "time": 20, "note": 52, "velocity": 107, "channel": 0}, {"type": "note_off", "time": 66, "note": 52, "velocity": 107, "channel": 0}, {"type": "note_on", "time": 21, "note": 55, "velocity": 108, "channel": 0}, {"type": "note_off", "time": 122, "note": 55, "velocity": 108, "channel": 0}, {"type": "note_on", "time": 12, "note": 52, "velocity": 106, "channel": 0}, {"type": "note_off", "time": 50, "note": 52, "velocity": 106, "channel": 0}, {"type": "note_on", "time": 8, "note": 53, "velocity": 111, "channel": 0}, {"type": "note_off", "time": 68, "note": 53, "velocity": 111, "channel": 0}, {"type": "note_on", "time": 2, "note": 55, "velocity": 108, "channel": 0}, {"type": "note_off", "time": 36, "note": 55, "velocity": 108, "channel": 0}, {"type": "note_on", "time": 7, "note": 57, "velocity": 110, "channel": 0}, {"type": "note_off", "time": 39, "note": 57, "velocity": 110, "channel": 0}, {"type": "note_on", "time": 6, "note": 59, "velocity": 96, "channel": 0}, {"type": "note_off", "time": 17, "note": 59, "velocity": 96, "channel": 0}, {"type": "note_on", "time": 8, "note": 60, "velocity": 112, "channel": 0}, {"type": "note_off", "time": 57, "note": 60, "velocity": 112, "channel": 0}, {"type": "note_on", "time": 6, "note": 61, "velocity": 102, "channel": 0}, {"type": "note_off", "time": 20, "note": 61, "velocity": 102, "channel": 0}, {"type": "note_on", "time": 11, "note": 62, "velocity": 97, "channel": 0}, {"type": "note_off", "time": 63, "note": 62, "velocity": 97, "channel": 0}, {"type": "note_on", "time": 9, "note": 63, "velocity": 110, "channel": 0}, {"type": "note_off", "time": 53, "note": 63, "velocity": 110, "channel": 0}, {"type": "note_on", "time": 31, "note": 60, "velocity": 111, "channel": 0}, {"type": "note_off", "time": 39, "note": 60, "velocity": 111, "channel": 0}, {"type": "note_on", "time": 7, "note": 55, "velocity": 104, "channel": 0}, {"type": "note_off", "time": 22, "note": 55, "velocity": 104, "channel": 0}, {"type": "note_on", "time": 13, "note": 53, "velocity": 104, "channel": 0}, {"type": "note_off", "time": 26, "note": 53, "velocity": 104, "channel": 0}, {"type": "note_on", "time": 32, "note": 62, "velocity": 103, "channel": 0}, {"type": "note_off", "time": 44, "note": 62, "velocity": 103, "channel": 0}, {"type": "note_on", "time": 9, "note": 61, "velocity": 101, "channel": 0}, {"type": "note_off", "time": 16, "note": 61, "velocity": 101, "channel": 0}, {"type": "note_on", "time": 9, "note": 60, "velocity": 105, "channel": 0}, {"type": "note_off", "time": 28, "note": 60, "velocity": 105, "channel": 0}, {"type": "note_on", "time": 14, "note": 58, "velocity": 95, "channel": 0}, {"type": "note_off", "time": 32, "note": 58, "velocity": 95, "channel": 0}, {"type": "note_on", "time": 5, "note": 57, "velocity": 110, "channel": 0}, {"type": "note_off", "time": 44, "note": 57, "velocity": 110, "channel": 0}, {"type": "note_on", "time": 182, "note": 65, "velocity": 108, "channel": 0}, {"type": "note_off", "time": 105, "note": 65, "velocity": 108, "channel": 0}, {"type": "note_on", "time": 7, "note": 63, "velocity": 111, "channel": 0}, {"type": "note_off", "time": 57, "note": 63, "velocity": 111, "channel": 0}, {"type": "note_on", "time": 11, "note": 62, "velocity": 100, "channel": 0}, {"type": "note_off", "time": 144, "note": 62, "velocity": 100, "channel": 0}, {"type": "note_on", "time": 29, "note": 53, "velocity": 91, "channel": 0}, {"type": "note_off", "time": 27, "note": 53, "velocity": 91, "channel": 0}, {"type": "note_on", "time": 24, "note": 57, "velocity": 105, "channel": 0}, {"type": "note_off", "time": 90, "note": 57, "velocity": 105, "channel": 0}, {"type": "note_on", "time": 18, "note": 55, "velocity": 93, "channel": 0}, {"type": "note_off", "time": 261, "note": 55, "velocity": 93, "channel": 0}, {"type": "note_on", "time": 299, "note": 53, "velocity": 117, "channel": 0}, {"type": "note_off", "time": 61, "note": 53, "velocity": 117, "channel": 0}, {"type": "note_on", "time": 20, "note": 50, "velocity": 100, "channel": 0}, {"type": "note_off", "time": 49, "note": 50, "velocity": 100, "channel": 0}, {"type": "note_on", "time": 1, "note": 51, "velocity": 106, "channel": 0}, {"type": "note_off", "time": 49, "note": 51, "velocity": 106, "channel": 0}, {"type": "note_on", "time": 7, "note": 52, "velocity": 112, "channel": 0}, {"type": "note_off", "time": 70, "note": 52, "velocity": 112, "channel": 0}, {"type": "note_on", "time": 22, "note": 61, "velocity": 107, "channel": 0}, {"type": "note_off", "time": 105, "note": 61, "velocity": 107, "channel": 0}, {"type": "note_on", "time": 13, "note": 60, "velocity": 113, "channel": 0}, {"type": "note_off", "time": 69, "note": 60, "velocity": 113, "channel": 0}, {"type": "note_on", "time": 17, "note": 58, "velocity": 104, "channel": 0}, {"type": "note_off", "time": 80, "note": 58, "velocity": 104, "channel": 0}, {"type": "note_on", "time": 29, "note": 56, "velocity": 107, "channel": 0}, {"type": "note_off", "time": 80, "note": 56, "velocity": 107, "channel": 0}, {"type": "note_on", "time": 7, "note": 57, "velocity": 111, "channel": 0}, {"type": "note_off", "time": 144, "note": 57, "velocity": 111, "channel": 0}, {"type": "note_on", "time": 48, "note": 65, "velocity": 107, "channel": 0}, {"type": "note_off", "time": 47, "note": 65, "velocity": 107, "channel": 0}, {"type": "note_on", "time": 4, "note": 66, "velocity": 88, "channel": 0}, {"type": "note_off", "time": 15, "note": 66, "velocity": 88, "channel": 0}, {"type": "note_on", "time": 5, "note": 64, "velocity": 90, "channel": 0}, {"type": "note_off", "time": 25, "note": 64, "velocity": 90, "channel": 0}, {"type": "note_on", "time": 16, "note": 60, "velocity": 103, "channel": 0}, {"type": "note_off", "time": 48, "note": 60, "velocity": 103, "channel": 0}, {"type": "note_on", "time": 21, "note": 64, "velocity": 107, "channel": 0}, {"type": "note_off", "time": 105, "note": 64, "velocity": 107, "channel": 0}, {"type": "note_on", "time": 12, "note": 60, "velocity": 93, "channel": 0}, {"type": "note_off", "time": 190, "note": 60, "velocity": 93, "channel": 0}, {"type": "note_on", "time": 183, "note": 65, "velocity": 113, "channel": 0}, {"type": "note_off", "time": 54, "note": 65, "velocity": 113, "channel": 0}, {"type": "note_on", "time": 10, "note": 63, "velocity": 108, "channel": 0}, {"type": "note_off", "time": 60, "note": 63, "velocity": 108, "channel": 0}, {"type": "note_on", "time": 15, "note": 61, "velocity": 103, "channel": 0}, {"type": "note_off", "time": 40, "note": 61, "velocity": 103, "channel": 0}, {"type": "note_on", "time": 0, "note": 62, "velocity": 105, "channel": 0}, {"type": "note_off", "time": 61, "note": 62, "velocity": 105, "channel": 0}, {"type": "note_on", "time": 10, "note": 65, "velocity": 110, "channel": 0}, {"type": "note_off", "time": 54, "note": 65, "velocity": 110, "channel": 0}, {"type": "note_on", "time": 20, "note": 67, "velocity": 109, "channel": 0}, {"type": "note_off", "time": 33, "note": 67, "velocity": 109, "channel": 0}, {"type": "note_on", "time": 11, "note": 68, "velocity": 109, "channel": 0}, {"type": "note_off", "time": 55, "note": 68, "velocity": 109, "channel": 0}, {"type": "note_on", "time": 27, "note": 62, "velocity": 105, "channel": 0}, {"type": "note_off", "time": 44, "note": 62, "velocity": 105, "channel": 0}, {"type": "note_on", "time": 7, "note": 60, "velocity": 107, "channel": 0}, {"type": "note_off", "time": 50, "note": 60, "velocity": 107, "channel": 0}, {"type": "note_on", "time": 11, "note": 59, "velocity": 91, "channel": 0}, {"type": "note_off", "time": 136, "note": 59, "velocity": 91, "channel": 0}, {"type": "note_on", "time": 158, "note": 66, "velocity": 108, "channel": 0}, {"type": "note_off", "time": 18, "note": 66, "velocity": 108, "channel": 0}, {"type": "note_on", "time": 2, "note": 68, "velocity": 102, "channel": 0}, {"type": "note_off", "time": 11, "note": 68, "velocity": 102, "channel": 0}, {"type": "note_on", "time": 4, "note": 66, "velocity": 109, "channel": 0}, {"type": "note_off", "time": 37, "note": 66, "velocity": 109, "channel": 0}, {"type": "note_on", "time": 13, "note": 64, "velocity": 109, "channel": 0}, {"type": "note_off", "time": 76, "note": 64, "velocity": 109, "channel": 0}, {"type": "note_on", "time": 16, "note": 65, "velocity": 109, "channel": 0}, {"type": "note_off", "time": 66, "note": 65, "velocity": 109, "channel": 0}, {"type": "note_on", "time": 11, "note": 60, "velocity": 109, "channel": 0}, {"type": "note_off", "time": 47, "note": 60, "velocity": 109, "channel": 0}, {"type": "note_on", "time": 10, "note": 58, "velocity": 99, "channel": 0}, {"type": "note_off", "time": 28, "note": 58, "velocity": 99, "channel": 0}, {"type": "note_on", "time": 16, "note": 57, "velocity": 97, "channel": 0}, {"type": "note_off", "time": 171, "note": 57, "velocity": 97, "channel": 0}, {"type": "note_on", "time": 148, "note": 52, "velocity": 113, "channel": 0}, {"type": "note_off", "time": 19, "note": 52, "velocity": 113, "channel": 0}, {"type": "note_on", "time": 3, "note": 53, "velocity": 113, "channel": 0}, {"type": "note_off", "time": 111, "note": 53, "velocity": 113, "channel": 0}, {"type": "note_on", "time": 33, "note": 50, "velocity": 86, "channel": 0}, {"type": "note_off", "time": 65, "note": 50, "velocity": 86, "channel": 0}, {"type": "note_on", "time": 5, "note": 60, "velocity": 107, "channel": 0}, {"type": "note_off", "time": 120, "note": 60, "velocity": 107, "channel": 0}, {"type": "note_on", "time": 10, "note": 58, "velocity": 103, "channel": 0}, {"type": "note_off", "time": 44, "note": 58, "velocity": 103, "channel": 0}, {"type": "note_on", "time": 30, "note": 55, "velocity": 105, "channel": 0}, {"type": "note_off", "time": 47, "note": 55, "velocity": 105, "channel": 0}, {"type": "note_on", "time": 5, "note": 57, "velocity": 102, "channel": 0}, {"type": "note_off", "time": 252, "note": 57, "velocity": 102, "channel": 0}, {"type": "note_on", "time": 12, "note": 52, "velocity": 100, "channel": 0}, {"type": "note_off", "time": 451, "note": 52, "velocity": 100, "channel": 0}, {"type": "note_on", "time": 331, "note": 50, "velocity": 110, "channel": 0}, {"type": "note_off", "time": 65, "note": 50, "velocity": 110, "channel": 0}, {"type": "note_on", "time": 6, "note": 48, "velocity": 103, "channel": 0}, {"type": "note_off", "time": 40, "note": 48, "velocity": 103, "channel": 0}, {"type": "note_on", "time": 0, "note": 50, "velocity": 102, "channel": 0}, {"type": "note_off", "time": 55, "note": 50, "velocity": 102, "channel": 0}, {"type": "note_on", "time": 12, "note": 53, "velocity": 110, "channel": 0}, {"type": "note_off", "time": 68, "note": 53, "velocity": 110, "channel": 0}, {"type": "note_on", "time": 11, "note": 60, "velocity": 111, "channel": 0}, {"type": "note_off", "time": 88, "note": 60, "velocity": 111, "channel": 0}, {"type": "note_on", "time": 18, "note": 57, "velocity": 103, "channel": 0}, {"type": "note_off", "time": 26, "note": 57, "velocity": 103, "channel": 0}, {"type": "note_on", "time": 17, "note": 53, "velocity": 108, "channel": 0}, {"type": "note_off", "time": 136, "note": 53, "velocity": 108, "channel": 0}, {"type": "note_on", "time": 13, "note": 54, "velocity": 117, "channel": 0}, {"type": "note_off", "time": 66, "note": 54, "velocity": 117, "channel": 0}, {"type": "note_on", "time": 8, "note": 56, "velocity": 111, "channel": 0}, {"type": "note_off", "time": 72, "note": 56, "velocity": 111, "channel": 0}, {"type": "note_on", "time": 21, "note": 50, "velocity": 93, "channel": 0}, {"type": "note_off", "time": 93, "note": 50, "velocity": 93, "channel": 0}, {"type": "note_on", "time": 7, "note": 53, "velocity": 109, "channel": 0}, {"type": "note_off", "time": 56, "note": 53, "velocity": 109, "channel": 0}, {"type": "note_on", "time": 11, "note": 56, "velocity": 111, "channel": 0}, {"type": "note_off", "time": 44, "note": 56, "velocity": 111, "channel": 0}, {"type": "note_on", "time": 7, "note": 59, "velocity": 107, "channel": 0}, {"type": "note_off", "time": 42, "note": 59, "velocity": 107, "channel": 0}, {"type": "note_on", "time": 6, "note": 62, "velocity": 105, "channel": 0}, {"type": "note_off", "time": 37, "note": 62, "velocity": 105, "channel": 0}, {"type": "note_on", "time": 13, "note": 64, "velocity": 106, "channel": 0}, {"type": "note_off", "time": 70, "note": 64, "velocity": 106, "channel": 0}, {"type": "note_on", "time": 6, "note": 65, "velocity": 89, "channel": 0}, {"type": "note_off", "time": 142, "note": 65, "velocity": 89, "channel": 0}, {"type": "note_on", "time": 266, "note": 57, "velocity": 118, "channel": 0}, {"type": "note_off", "time": 57, "note": 57, "velocity": 118, "channel": 0}, {"type": "note_on", "time": 19, "note": 61, "velocity": 109, "channel": 0}, {"type": "note_off", "time": 83, "note": 61, "velocity": 109, "channel": 0}, {"type": "note_on", "time": 25, "note": 64, "velocity": 110, "channel": 0}, {"type": "note_off", "time": 76, "note": 64, "velocity": 110, "channel": 0}, {"type": "note_on", "time": 9, "note": 61, "velocity": 105, "channel": 0}, {"type": "note_off", "time": 94, "note": 61, "velocity": 105, "channel": 0}, {"type": "note_on", "time": 25, "note": 57, "velocity": 104, "channel": 0}, {"type": "note_off", "time": 51, "note": 57, "velocity": 104, "channel": 0}, {"type": "note_on", "time": 7, "note": 61, "velocity": 101, "channel": 0}, {"type": "note_off", "time": 110, "note": 61, "velocity": 101, "channel": 0}, {"type": "note_on", "time": 4, "note": 63, "velocity": 101, "channel": 0}, {"type": "note_off", "time": 142, "note": 63, "velocity": 101, "channel": 0}, {"type": "note_on", "time": 46, "note": 52, "velocity": 105, "channel": 0}, {"type": "note_off", "time": 35, "note": 52, "velocity": 105, "channel": 0}, {"type": "note_on", "time": 5, "note": 55, "velocity": 101, "channel": 0}, {"type": "note_off", "time": 35, "note": 55, "velocity": 101, "channel": 0}, {"type": "note_on", "time": 10, "note": 60, "velocity": 112, "channel": 0}, {"type": "note_off", "time": 46, "note": 60, "velocity": 112, "channel": 0}, {"type": "note_on", "time": 8, "note": 61, "velocity": 104, "channel": 0}, {"type": "note_off", "time": 31, "note": 61, "velocity": 104, "channel": 0}, {"type": "note_on", "time": 14, "note": 62, "velocity": 99, "channel": 0}, {"type": "note_off", "time": 41, "note": 62, "velocity": 99, "channel": 0}, {"type": "note_on", "time": 15, "note": 63, "velocity": 107, "channel": 0}, {"type": "note_off", "time": 84, "note": 63, "velocity": 107, "channel": 0}, {"type": "note_on", "time": 17, "note": 61, "velocity": 106, "channel": 0}, {"type": "note_off", "time": 40, "note": 61, "velocity": 106, "channel": 0}, {"type": "note_on", "time": 17, "note": 67, "velocity": 102, "channel": 0}, {"type": "note_off", "time": 42, "note": 67, "velocity": 102, "channel": 0}, {"type": "note_on", "time": 7, "note": 65, "velocity": 100, "channel": 0}, {"type": "note_off", "time": 26, "note": 65, "velocity": 100, "channel": 0}, {"type": "note_on", "time": 12, "note": 64, "velocity": 104, "channel": 0}, {"type": "note_off", "time": 40, "note": 64, "velocity": 104, "channel": 0}, {"type": "note_on", "time": 4, "note": 65, "velocity": 100, "channel": 0}, {"type": "note_off", "time": 34, "note": 65, "velocity": 100, "channel": 0}, {"type": "note_on", "time": 5, "note": 64, "velocity": 95, "channel": 0}, {"type": "note_off", "time": 31, "note": 64, "velocity": 95, "channel": 0}, {"type": "note_on", "time": 16, "note": 61, "velocity": 100, "channel": 0}, {"type": "note_off", "time": 56, "note": 61, "velocity": 100, "channel": 0}, {"type": "note_on", "time": 10, "note": 60, "velocity": 107, "channel": 0}, {"type": "note_off", "time": 29, "note": 60, "velocity": 107, "channel": 0}, {"type": "note_on", "time": 11, "note": 58, "velocity": 95, "channel": 0}, {"type": "note_off", "time": 38, "note": 58, "velocity": 95, "channel": 0}, {"type": "note_on", "time": 11, "note": 57, "velocity": 103, "channel": 0}, {"type": "note_off", "time": 57, "note": 57, "velocity": 103, "channel": 0}, {"type": "note_on", "time": 318, "note": 60, "velocity": 100, "channel": 0}, {"type": "note_off", "time": 345, "note": 60, "velocity": 100, "channel": 0}, {"type": "note_on", "time": 33, "note": 56, "velocity": 102, "channel": 0}, {"type": "note_off", "time": 25, "note": 56, "velocity": 102, "channel": 0}, {"type": "note_on", "time": 4, "note": 57, "velocity": 110, "channel": 0}, {"type": "note_off", "time": 45, "note": 57, "velocity": 110, "channel": 0}, {"type": "note_on", "time": 3, "note": 58, "velocity": 98, "channel": 0}, {"type": "note_off", "time": 64, "note": 58, "velocity": 98, "channel": 0}, {"type": "note_on", "time": 8, "note": 60, "velocity": 105, "channel": 0}, {"type": "note_off", "time": 49, "note": 60, "velocity": 105, "channel": 0}, {"type": "note_on", "time": 17, "note": 57, "velocity": 110, "channel": 0}, {"type": "note_off", "time": 58, "note": 57, "velocity": 110, "channel": 0}, {"type": "note_on", "time": 11, "note": 55, "velocity": 102, "channel": 0}, {"type": "note_off", "time": 156, "note": 55, "velocity": 102, "channel": 0}, {"type": "note_on", "time": 350, "note": 48, "velocity": 101, "channel": 0}, {"type": "note_off", "time": 112, "note": 48, "velocity": 101, "channel": 0}, {"type": "note_on", "time": 11, "note": 52, "velocity": 110, "channel": 0}, {"type": "note_off", "time": 40, "note": 52, "velocity": 110, "channel": 0}, {"type": "note_on", "time": 14, "note": 53, "velocity": 103, "channel": 0}, {"type": "note_off", "time": 20, "note": 53, "velocity": 103, "channel": 0}, {"type": "note_on", "time": 0, "note": 57, "velocity": 102, "channel": 0}, {"type": "note_off", "time": 31, "note": 57, "velocity": 102, "channel": 0}, {"type": "note_on", "time": 4, "note": 60, "velocity": 111, "channel": 0}, {"type": "note_off", "time": 58, "note": 60, "velocity": 111, "channel": 0}, {"type": "note_on", "time": 16, "note": 57, "velocity": 98, "channel": 0}, {"type": "note_off", "time": 44, "note": 57, "velocity": 98, "channel": 0}, {"type": "note_on", "time": 3, "note": 50, "velocity": 93, "channel": 0}, {"type": "note_off", "time": 49, "note": 50, "velocity": 93, "channel": 0}, {"type": "note_on", "time": 6, "note": 52, "velocity": 110, "channel": 0}, {"type": "note_off", "time": 84, "note": 52, "velocity": 110, "channel": 0}, {"type": "note_on", "time": 2, "note": 57, "velocity": 114, "channel": 0}, {"type": "note_off", "time": 74, "note": 57, "velocity": 114, "channel": 0}, {"type": "note_on", "time": 5, "note": 56, "velocity": 109, "channel": 0}, {"type": "note_off", "time": 28, "note": 56, "velocity": 109, "channel": 0}, {"type": "note_on", "time": 7, "note": 55, "velocity": 109, "channel": 0}, {"type": "note_off", "time": 41, "note": 55, "velocity": 109, "channel": 0}, {"type": "note_on", "time": 15, "note": 54, "velocity": 103, "channel": 0}, {"type": "note_off", "time": 45, "note": 54, "velocity": 103, "channel": 0}, {"type": "note_on", "time": 8, "note": 53, "velocity": 110, "channel": 0}, {"type": "note_off", "time": 36, "note": 53, "velocity": 110, "channel": 0}, {"type": "note_on", "time": 7, "note": 52, "velocity": 106, "channel": 0}, {"type": "note_off", "time": 39, "note": 52, "velocity": 106, "channel": 0}, {"type": "note_on", "time": 8, "note": 51, "velocity": 95, "channel": 0}, {"type": "note_off", "time": 133, "note": 51, "velocity": 95, "channel": 0}, {"type": "note_on", "time": 178, "note": 65, "velocity": 100, "channel": 0}, {"type": "note_off", "time": 231, "note": 65, "velocity": 100, "channel": 0}, {"type": "note_on", "time": 12, "note": 63, "velocity": 102, "channel": 0}, {"type": "note_off", "time": 65, "note": 63, "velocity": 102, "channel": 0}, {"type": "note_on", "time": 18, "note": 65, "velocity": 103, "channel": 0}, {"type": "note_off", "time": 120, "note": 65, "velocity": 103, "channel": 0}, {"type": "note_on", "time": 31, "note": 61, "velocity": 78, "channel": 0}, {"type": "note_off", "time": 28, "note": 61, "velocity": 78, "channel": 0}, {"type": "note_on", "time": 7, "note": 62, "velocity": 118, "channel": 0}, {"type": "note_off", "time": 61, "note": 62, "velocity": 118, "channel": 0}, {"type": "note_on", "time": 9, "note": 65, "velocity": 115, "channel": 0}, {"type": "note_off", "time": 40, "note": 65, "velocity": 115, "channel": 0}, {"type": "note_on", "time": 40, "note": 60, "velocity": 115, "channel": 0}, {"type": "note_off", "time": 171, "note": 60, "velocity": 115, "channel": 0}, {"type": "note_on", "time": 21, "note": 53, "velocity": 122, "channel": 0}, {"type": "note_off", "time": 76, "note": 53, "velocity": 122, "channel": 0}, {"type": "note_on", "time": 21, "note": 60, "velocity": 121, "channel": 0}, {"type": "note_off", "time": 42, "note": 60, "velocity": 121, "channel": 0}, {"type": "note_on", "time": 14, "note": 61, "velocity": 95, "channel": 0}, {"type": "note_off", "time": 179, "note": 61, "velocity": 95, "channel": 0}, {"type": "note_on", "time": 44, "note": 58, "velocity": 104, "channel": 0}, {"type": "note_off", "time": 91, "note": 58, "velocity": 104, "channel": 0}, {"type": "note_on", "time": 4, "note": 57, "velocity": 108, "channel": 0}, {"type": "note_off", "time": 13, "note": 57, "velocity": 108, "channel": 0}, {"type": "note_on", "time": 9, "note": 55, "velocity": 120, "channel": 0}, {"type": "note_off", "time": 56, "note": 55, "velocity": 120, "channel": 0}, {"type": "note_on", "time": 194, "note": 53, "velocity": 127, "channel": 0}, {"type": "note_off", "time": 115, "note": 53, "velocity": 127, "channel": 0}, {"type": "note_on", "time": 17, "note": 51, "velocity": 109, "channel": 0}, {"type": "note_off", "time": 71, "note": 51, "velocity": 109, "channel": 0}, {"type": "note_on", "time": 0, "note": 52, "velocity": 123, "channel": 0}, {"type": "note_off", "time": 104, "note": 52, "velocity": 123, "channel": 0}, {"type": "note_on", "time": 14, "note": 61, "velocity": 122, "channel": 0}, {"type": "note_off", "time": 71, "note": 61, "velocity": 122, "channel": 0}, {"type": "note_on", "time": 16, "note": 60, "velocity": 125, "channel": 0}, {"type": "note_off", "time": 94, "note": 60, "velocity": 125, "channel": 0}, {"type": "note_on", "time": 13, "note": 58, "velocity": 108, "channel": 0}, {"type": "note_off", "time": 62, "note": 58, "velocity": 108, "channel": 0}, {"type": "note_on", "time": 13, "note": 57, "velocity": 124, "channel": 0}, {"type": "note_off", "time": 89, "note": 57, "velocity": 124, "channel": 0}, {"type": "note_on", "time": 31, "note": 52, "velocity": 120, "channel": 0}, {"type": "note_off", "time": 61, "note": 52, "velocity": 120, "channel": 0}, {"type": "note_on", "time": 3, "note": 53, "velocity": 124, "channel": 0}, {"type": "note_off", "time": 61, "note": 53, "velocity": 124, "channel": 0}, {"type": "note_on", "time": 10, "note": 56, "velocity": 112, "channel": 0}, {"type": "note_off", "time": 43, "note": 56, "velocity": 112, "channel": 0}, {"type": "note_on", "time": 8, "note": 60, "velocity": 124, "channel": 0}, {"type": "note_off", "time": 55, "note": 60, "velocity": 124, "channel": 0}, {"type": "note_on", "time": 28, "note": 65, "velocity": 107, "channel": 0}, {"type": "note_off", "time": 170, "note": 65, "velocity": 107, "channel": 0}, {"type": "note_on", "time": 40, "note": 63, "velocity": 116, "channel": 0}, {"type": "note_off", "time": 53, "note": 63, "velocity": 116, "channel": 0}, {"type": "note_on", "time": 43, "note": 60, "velocity": 99, "channel": 0}, {"type": "note_off", "time": 273, "note": 60, "velocity": 99, "channel": 0}, {"type": "end_of_track", "time": 0}]]}