{"ticks_per_beat": 192, "tracks": [[{"type": "track_name", "name": "Melody", "time": 0}, {"type": "set_tempo", "tempo": 451127, "time": 0}, {"type": "key_signature", "key": "Eb", "time": 0}, {"type": "time_signature", "numerator": 4, "denominator": 4, "clocks_per_click": 24, "notated_32nd_notes_per_beat": 8, "time": 0}, {"type": "note_on", "time": 1923, "note": 63, "velocity": 111, "channel": 0}, {"type": "note_off", "time": 93, "note": 63, "velocity": 111, "channel": 0}, {"type": "note_on", "time": 114, "note": 67, "velocity": 109, "channel": 0}, {"type": "note_off", "time": 97, "note": 67, "velocity": 109, "channel": 0}, {"type": "note_on", "time": 66, "note": 68, "velocity": 114, "channel": 0}, {"type": "note_off", "time": 83, "note": 68, "velocity": 114, "channel": 0}, {"type": "note_on", "time": 27, "note": 66, "velocity": 101, "channel": 0}, {"type": "note_off", "time": 69, "note": 66, "velocity": 101, "channel": 0}, {"type": "note_on", "time": 26, "note": 67, "velocity": 106, "channel": 0}, {"type": "note_off", "time": 74, "note": 67, "velocity": 106, "channel": 0}, {"type": "note_on", "time": 20, "note": 63, "velocity": 107, "channel": 0}, {"type": "note_off", "time": 71, "note": 63, "velocity": 107, "channel": 0}, {"type": "note_on", "time": 22, "note": 60, "velocity": 99, "channel": 0}, {"type": "note_off", "time": 92, "note": 60, "velocity": 99, "channel": 0}, {"type": "note_on", "time": 125, "note": 60, "velocity": 86, "channel": 0}, {"type": "note_off", "time": 151, "note": 60, "velocity": 86, "channel": 0}, {"type": "note_on", "time": 112, "note": 66, "velocity": 113, "channel": 0}, {"type": "note_off", "time": 116, "note": 66, "velocity": 113, "channel": 0}, {"type": "note_on", "time": 89, "note": 63, "velocity": 87, "channel": 0}, {"type": "note_off", "time": 196, "note": 63, "velocity": 87, "channel": 0}, {"type": "note_on", "time": 77, "note": 65, "velocity": 116, "channel": 0}, {"type": "note_off", "time": 85, "note": 65, "velocity": 116, "channel": 0}, {"type": "note_on", "time": 22, "note": 63, "velocity": 107, "channel": 0}, {"type": "note_off", "time": 56, "note": 63, "velocity": 107, "channel": 0}, {"type": "note_on", "time": 29, "note": 60, "velocity": 101, "channel": 0}, {"type": "note_off", "time": 91, "note": 60, "velocity": 101, "channel": 0}, {"type": "note_on", "time": 83, "note": 60, "velocity": 80, "channel": 0}, {"type": "note_off", "time": 177, "note": 60, "velocity": 80, "channel": 0}, {"type": "note_on", "time": 696, "note": 66, "velocity": 119, "channel": 0}, {"type": "note_off", "time": 25, "note": 66, "velocity": 119, "channel": 0}, {"type": "note_on", "time": 4, "note": 67, "velocity": 120, "channel": 0}, {"type": "note_off", "time": 32, "note": 67, "velocity": 120, "channel": 0}, {"type": "note_on", "time": 6, "note": 68, "velocity": 121, "channel": 0}, {"type": "note_off", "time": 98, "note": 68, "velocity": 121, "channel": 0}, {"type": "note_on", "time": 12, "note": 66, "velocity": 114, "channel": 0}, {"type": "note_off", "time": 67, "note": 66, "velocity": 114, "channel": 0}, {"type": "note_on", "time": 7, "note": 67, "velocity": 118, "channel": 0}, {"type": "note_off", "time": 96, "note": 67, "velocity": 118, "channel": 0}, {"type": "note_on", "time": 13, "note": 63, "velocity": 112, "channel": 0}, {"type": "note_off", "time": 74, "note": 63, "velocity": 112, "channel": 0}, {"type": "note_on", "time": 14, "note": 60, "velocity": 109, "channel": 0}, {"type": "note_off", "time": 76, "note": 60, "velocity": 109, "channel": 0}, {"type": "note_on", "time": 116, "note": 63, "velocity": 109, "channel": 0}, {"type": "note_off", "time": 44, "note": 63, "velocity": 109, "channel": 0}, {"type": "note_on", "time": 10, "note": 65, "velocity": 101, "channel": 0}, {"type": "note_off", "time": 18, "note": 65, "velocity": 101, "channel": 0}, {"type": "note_on", "time": 9, "note": 63, "velocity": 104, "channel": 0}, {"type": "note_off", "time": 28, "note": 63, "velocity": 104, "channel": 0}, {"type": "note_on", "time": 12, "note": 60, "velocity": 99, "channel": 0}, {"type": "note_off", "time": 46, "note": 60, "velocity": 99, "channel": 0}, {"type": "note_on", "time": 28, "note": 55, "velocity": 90, "channel": 0}, {"type": "note_off", "time": 52, "note": 55, "velocity": 90, "channel": 0}, {"type": "note_on", "time": 131, "note": 60, "velocity": 92, "channel": 0}, {"type": "note_off", "time": 174, "note": 60, "velocity": 92, "channel": 0}, {"type": "note_on", "time": 7, "note": 63, "velocity": 114, "channel": 0}, {"type": "note_off", "time": 89, "note": 63, "velocity": 114, "channel": 0}, {"type": "note_on", "time": 17, "note": 67, "velocity": 114, "channel": 0}, {"type": "note_off", "time": 73, "note": 67, "velocity": 114, "channel": 0}, {"type": "note_on", "time": 19, "note": 63, "velocity": 110, "channel": 0}, {"type": "note_off", "time": 85, "note": 63, "velocity": 110, "channel": 0}, {"type": "note_on", "time": 24, "note": 60, "velocity": 98, "channel": 0}, {"type": "note_off", "time": 63, "note": 60, "velocity": 98, "channel": 0}, {"type": "note_on", "time": 19, "note": 55, "velocity": 85, "channel": 0}, {"type": "note_off", "time": 66, "note": 55, "velocity": 85, "channel": 0}, {"type": "note_on", "time": 34, "note": 59, "velocity": 104, "channel": 0}, {"type": "note_off", "time": 62, "note": 59, "velocity": 104, "channel": 0}, {"type": "note_on", "time": 18, "note": 67, "velocity": 78, "channel": 0}, {"type": "note_off", "time": 191, "note": 67, "velocity": 78, "channel": 0}, {"type": "note_on", "time": 369, "note": 65, "velocity": 120, "channel": 0}, {"type": "note_off", "time": 85, "note": 65, "velocity": 120, "channel": 0}, {"type": "note_on", "time": 6, "note": 63, "velocity": 119, "channel": 0}, {"type": "note_off", "time": 80, "note": 63, "velocity": 119, "channel": 0}, {"type": "note_on", "time": 9, "note": 62, "velocity": 117, "channel": 0}, {"type": "note_off", "time": 92, "note": 62, "velocity": 117, "channel": 0}, {"type": "note_on", "time": 20, "note": 60, "velocity": 102, "channel": 0}, {"type": "note_off", "time": 123, "note": 60, "velocity": 102, "channel": 0}, {"type": "note_on", "time": 9, "note": 56, "velocity": 77, "channel": 0}, {"type": "note_off", "time": 61, "note": 56, "velocity": 77, "channel": 0}, {"type": "note_on", "time": 24, "note": 58, "velocity": 96, "channel": 0}, {"type": "note_off", "time": 48, "note": 58, "velocity": 96, "channel": 0}, {"type": "note_on", "time": 11, "note": 60, "velocity": 113, "channel": 0}, {"type": "note_off", "time": 100, "note": 60, "velocity": 113, "channel": 0}, {"type": "note_on", "time": 0, "note": 62, "velocity": 112, "channel": 0}, {"type": "note_off", "time": 75, "note": 62, "velocity": 112, "channel": 0}, {"type": "note_on", "time": 6, "note": 63, "velocity": 113, "channel": 0}, {"type": "note_off", "time": 84, "note": 63, "velocity": 113, "channel": 0}, {"type": "note_on", "time": 25, "note": 60, "velocity": 109, "channel": 0}, {"type": "note_off", "time": 63, "note": 60, "velocity": 109, "channel": 0}, {"type": "note_on", "time": 19, "note": 62, "velocity": 107, "channel": 0}, {"type": "note_off", "time": 33, "note": 62, "velocity": 107, "channel": 0}, {"type": "note_on", "time": 7, "note": 63, "velocity": 102, "channel": 0}, {"type": "note_off", "time": 16, "note": 63, "velocity": 102, "channel": 0}, {"type": "note_on", "time": 12, "note": 62, "velocity": 105, "channel": 0}, {"type": "note_off", "time": 24, "note": 62, "velocity": 105, "channel": 0}, {"type": "note_on", "time": 19, "note": 60, "velocity": 99, "channel": 0}, {"type": "note_off", "time": 58, "note": 60, "velocity": 99, "channel": 0}, {"type": "note_on", "time": 18, "note": 58, "velocity": 109, "channel": 0}, {"type": "note_off", "time": 95, "note": 58, "velocity": 109, "channel": 0}, {"type": "note_on", "time": 18, "note": 56, "velocity": 95, "channel": 0}, {"type": "note_off", "time": 74, "note": 56, "velocity": 95, "channel": 0}, {"type": "note_on", "time": 15, "note": 55, "velocity": 91, "channel": 0}, {"type": "note_off", "time": 90, "note": 55, "velocity": 91, "channel": 0}, {"type": "note_on", "time": 13, "note": 58, "velocity": 104, "channel": 0}, {"type": "note_off", "time": 72, "note": 58, "velocity": 104, "channel": 0}, {"type": "note_on", "time": 19, "note": 60, "velocity": 102, "channel": 0}, {"type": "note_off", "time": 92, "note": 60, "velocity": 102, "channel": 0}, {"type": "note_on", "time": 20, "note": 63, "velocity": 100, "channel": 0}, {"type": "note_off", "time": 235, "note": 63, "velocity": 100, "channel": 0}, {"type": "note_on", "time": 17, "note": 65, "velocity": 96, "channel": 0}, {"type": "note_off", "time": 61, "note": 65, "velocity": 96, "channel": 0}, {"type": "note_on", "time": 7, "note": 67, "velocity": 111, "channel": 0}, {"type": "note_off", "time": 52, "note": 67, "velocity": 111, "channel": 0}, {"type": "note_on", "time": 752, "note": 67, "velocity": 121, "channel": 0}, {"type": "note_off", "time": 72, "note": 67, "velocity": 121, "channel": 0}, {"type": "note_on", "time": 12, "note": 70, "velocity": 127, "channel": 0}, {"type": "note_off", "time": 92, "note": 70, "velocity": 127, "channel": 0}, {"type": "note_on", "time": 10, "note": 68, "velocity": 125, "channel": 0}, {"type": "note_off", "time": 81, "note": 68, "velocity": 125, "channel": 0}, {"type": "note_on", "time": 8, "note": 67, "velocity": 121, "channel": 0}, {"type": "note_off", "time": 92, "note": 67, "velocity": 121, "channel": 0}, {"type": "note_on", "time": 6, "note": 65, "velocity": 117, "channel": 0}, {"type": "note_off", "time": 77, "note": 65, "velocity": 117, "channel": 0}, {"type": "note_on", "time": 9, "note": 63, "velocity": 116, "channel": 0}, {"type": "note_off", "time": 93, "note": 63, "velocity": 116, "channel": 0}, {"type": "note_on", "time": 15, "note": 62, "velocity": 110, "channel": 0}, {"type": "note_off", "time": 83, "note": 62, "velocity": 110, "channel": 0}, {"type": "note_on", "time": 7, "note": 61, "velocity": 114, "channel": 0}, {"type": "note_off", "time": 67, "note": 61, "velocity": 114, "channel": 0}, {"type": "note_on", "time": 63, "note": 58, "velocity": 90, "channel": 0}, {"type": "note_off", "time": 54, "note": 58, "velocity": 90, "channel": 0}, {"type": "note_on", "time": 11, "note": 60, "velocity": 111, "channel": 0}, {"type": "note_off", "time": 101, "note": 60, "velocity": 111, "channel": 0}, {"type": "note_on", "time": 13, "note": 58, "velocity": 107, "channel": 0}, {"type": "note_off", "time": 59, "note": 58, "velocity": 107, "channel": 0}, {"type": "note_on", "time": 19, "note": 55, "velocity": 90, "channel": 0}, {"type": "note_off", "time": 99, "note": 55, "velocity": 90, "channel": 0}, {"type": "note_on", "time": 12, "note": 53, "velocity": 103, "channel": 0}, {"type": "note_off", "time": 76, "note": 53, "velocity": 103, "channel": 0}, {"type": "note_on", "time": 10, "note": 52, "velocity": 96, "channel": 0}, {"type": "note_off", "time": 95, "note": 52, "velocity": 96, "channel": 0}, {"type": "note_on", "time": 16, "note": 61, "velocity": 108, "channel": 0}, {"type": "note_off", "time": 59, "note": 61, "velocity": 108, "channel": 0}, {"type": "note_on", "time": 19, "note": 60, "velocity": 97, "channel": 0}, {"type": "note_off", "time": 86, "note": 60, "velocity": 97, "channel": 0}, {"type": "note_on", "time": 22, "note": 58, "velocity": 104, "channel": 0}, {"type": "note_off", "time": 59, "note": 58, "velocity": 104, "channel": 0}, {"type": "note_on", "time": 8, "note": 57, "velocity": 103, "channel": 0}, {"type": "note_off", "time": 87, "note": 57, "velocity": 103, "channel": 0}, {"type": "note_on", "time": 12, "note": 55, "velocity": 98, "channel": 0}, {"type": "note_off", "time": 22, "note": 55, "velocity": 98, "channel": 0}, {"type": "note_on", "time": 82, "note": 65, "velocity": 105, "channel": 0}, {"type": "note_off", "time": 43, "note": 65, "velocity": 105, "channel": 0}, {"type": "note_on", "time": 2, "note": 66, "velocity": 97, "channel": 0}, {"type": "note_off", "time": 50, "note": 66, "velocity": 97, "channel": 0}, {"type": "note_on", "time": 8, "note": 63, "velocity": 93, "channel": 0}, {"type": "note_off", "time": 77, "note": 63, "velocity": 93, "channel": 0}, {"type": "note_on", "time": 31, "note": 65, "velocity": 100, "channel": 0}, {"type": "note_off", "time": 52, "note": 65, "velocity": 100, "channel": 0}, {"type": "note_on", "time": 7, "note": 67, "velocity": 89, "channel": 0}, {"type": "note_off", "time": 19, "note": 67, "velocity": 89, "channel": 0}, {"type": "note_on", "time": 4, "note": 65, "velocity": 92, "channel": 0}, {"type": "note_off", "time": 18, "note": 65, "velocity": 92, "channel": 0}, {"type": "note_on", "time": 7, "note": 63, "velocity": 97, "channel": 0}, {"type": "note_off", "time": 46, "note": 63, "velocity": 97, "channel": 0}, {"type": "note_on", "time": 14, "note": 60, "velocity": 96, "channel": 0}, {"type": "note_off", "time": 95, "note": 60, "velocity": 96, "channel": 0}, {"type": "note_on", "time": 299, "note": 60, "velocity": 109, "channel": 0}, {"type": "note_off", "time": 46, "note": 60, "velocity": 109, "channel": 0}, {"type": "note_on", "time": 12, "note": 63, "velocity": 114, "channel": 0}, {"type": "note_off", "time": 49, "note": 63, "velocity": 114, "channel": 0}, {"type": "note_on", "time": 12, "note": 65, "velocity": 116, "channel": 0}, {"type": "note_off", "time": 49, "note": 65, "velocity": 116, "channel": 0}, {"type": "note_on", "time": 11, "note": 66, "velocity": 118, "channel": 0}, {"type": "note_off", "time": 92, "note": 66, "velocity": 118, "channel": 0}, {"type": "note_on", "time": 13, "note": 67, "velocity": 120, "channel": 0}, {"type": "note_off", "time": 86, "note": 67, "velocity": 120, "channel": 0}, {"type": "note_on", "time": 12, "note": 68, "velocity": 122, "channel": 0}, {"type": "note_off", "time": 75, "note": 68, "velocity": 122, "channel": 0}, {"type": "note_on", "time": 19, "note": 69, "velocity": 123, "channel": 0}, {"type": "note_off", "time": 77, "note": 69, "velocity": 123, "channel": 0}, {"type": "note_on", "time": 6, "note": 70, "velocity": 123, "channel": 0}, {"type": "note_off", "time": 94, "note": 70, "velocity": 123, "channel": 0}, {"type": "note_on", "time": 15, "note": 63, "velocity": 115, "channel": 0}, {"type": "note_off", "time": 75, "note": 63, "velocity": 115, "channel": 0}, {"type": "note_on", "time": 13, "note": 60, "velocity": 94, "channel": 0}, {"type": "note_off", "time": 97, "note": 60, "velocity": 94, "channel": 0}, {"type": "note_on", "time": 24, "note": 57, "velocity": 74, "channel": 0}, {"type": "note_off", "time": 41, "note": 57, "velocity": 74, "channel": 0}, {"type": "note_on", "time": 42, "note": 61, "velocity": 108, "channel": 0}, {"type": "note_off", "time": 164, "note": 61, "velocity": 108, "channel": 0}, {"type": "note_on", "time": 39, "note": 62, "velocity": 107, "channel": 0}, {"type": "note_off", "time": 122, "note": 62, "velocity": 107, "channel": 0}, {"type": "note_on", "time": 12, "note": 63, "velocity": 94, "channel": 0}, {"type": "note_off", "time": 173, "note": 63, "velocity": 94, "channel": 0}, {"type": "note_on", "time": 161, "note": 61, "velocity": 113, "channel": 0}, {"type": "note_off", "time": 38, "note": 61, "velocity": 113, "channel": 0}, {"type": "note_on", "time": 10, "note": 63, "velocity": 115, "channel": 0}, {"type": "note_off", "time": 434, "note": 63, "velocity": 115, "channel": 0}, {"type": "note_on", "time": 22, "note": 61, "velocity": 112, "channel": 0}, {"type": "note_off", "time": 25, "note": 61, "velocity": 112, "channel": 0}, {"type": "note_on", "time": 14, "note": 63, "velocity": 109, "channel": 0}, {"type": "note_off", "time": 33, "note": 63, "velocity": 109, "channel": 0}, {"type": "note_on", "time": 15, "note": 60, "velocity": 108, "channel": 0}, {"type": "note_off", "time": 57, "note": 60, "velocity": 108, "channel": 0}, {"type": "note_on", "time": 64, "note": 60, "velocity": 103, "channel": 0}, {"type": "note_off", "time": 19, "note": 60, "velocity": 103, "channel": 0}, {"type": "note_on", "time": 7, "note": 62, "velocity": 113, "channel": 0}, {"type": "note_off", "time": 33, "note": 62, "velocity": 113, "channel": 0}, {"type": "note_on", "time": 9, "note": 63, "velocity": 106, "channel": 0}, {"type": "note_off", "time": 48, "note": 63, "velocity": 106, "channel": 0}, {"type": "note_on", "time": 11, "note": 62, "velocity": 99, "channel": 0}, {"type": "note_off", "time": 42, "note": 62, "velocity": 99, "channel": 0}, {"type": "note_on", "time": 11, "note": 60, "velocity": 101, "channel": 0}, {"type": "note_off", "time": 92, "note": 60, "velocity": 101, "channel": 0}, {"type": "note_on", "time": 468, "note": 54, "velocity": 106, "channel": 0}, {"type": "note_off", "time": 38, "note": 54, "velocity": 106, "channel": 0}, {"type": "note_on", "time": 22, "note": 58, "velocity": 105, "channel": 0}, {"type": "note_off", "time": 33, "note": 58, "velocity": 105, "channel": 0}, {"type": "note_on", "time": 6, "note": 60, "velocity": 111, "channel": 0}, {"type": "note_off", "time": 46, "note": 60, "velocity": 111, "channel": 0}, {"type": "note_on", "time": 46, "note": 62, "velocity": 113, "channel": 0}, {"type": "note_off", "time": 83, "note": 62, "velocity": 113, "channel": 0}, {"type": "note_on", "time": 0, "note": 60, "velocity": 102, "channel": 0}, {"type": "note_off", "time": 33, "note": 60, "velocity": 102, "channel": 0}, {"type": "note_on", "time": 2, "note": 58, "velocity": 96, "channel": 0}, {"type": "note_off", "time": 36, "note": 58, "velocity": 96, "channel": 0}, {"type": "note_on", "time": 5, "note": 54, "velocity": 104, "channel": 0}, {"type": "note_off", "time": 126, "note": 54, "velocity": 104, "channel": 0}, {"type": "note_on", "time": 109, "note": 53, "velocity": 95, "channel": 0}, {"type": "note_off", "time": 104, "note": 53, "velocity": 95, "channel": 0}, {"type": "note_on", "time": 16, "note": 58, "velocity": 98, "channel": 0}, {"type": "note_off", "time": 50, "note": 58, "velocity": 98, "channel": 0}, {"type": "note_on", "time": 12, "note": 60, "velocity": 111, "channel": 0}, {"type": "note_off", "time": 56, "note": 60, "velocity": 111, "channel": 0}, {"type": "note_on", "time": 6, "note": 61, "velocity": 102, "channel": 0}, {"type": "note_off", "time": 25, "note": 61, "velocity": 102, "channel": 0}, {"type": "note_on", "time": 4, "note": 62, "velocity": 109, "channel": 0}, {"type": "note_off", "time": 35, "note": 62, "velocity": 109, "channel": 0}, {"type": "note_on", "time": 4, "note": 63, "velocity": 110, "channel": 0}, {"type": "note_off", "time": 44, "note": 63, "velocity": 110, "channel": 0}, {"type": "note_on", "time": 12, "note": 62, "velocity": 108, "channel": 0}, {"type": "note_off", "time": 111, "note": 62, "velocity": 108, "channel": 0}, {"type": "note_on", "time": 13, "note": 60, "velocity": 89, "channel": 0}, {"type": "note_off", "time": 228, "note": 60, "velocity": 89, "channel": 0}, {"type": "note_on", "time": 20, "note": 60, "velocity": 88, "channel": 0}, {"type": "note_off", "time": 187, "note": 60, "velocity": 88, "channel": 0}, {"type": "note_on", "time": 192, "note": 69, "velocity": 123, "channel": 0}, {"type": "note_off", "time": 56, "note": 69, "velocity": 123, "channel": 0}, {"type": "note_on", "time": 19, "note": 72, "velocity": 126, "channel": 0}, {"type": "note_off", "time": 373, "note": 72, "velocity": 126, "channel": 0}, {"type": "note_on", "time": 42, "note": 68, "velocity": 122, "channel": 0}, {"type": "note_off", "time": 66, "note": 68, "velocity": 122, "channel": 0}, {"type": "note_on", "time": 8, "note": 67, "velocity": 121, "channel": 0}, {"type": "note_off", "time": 37, "note": 67, "velocity": 121, "channel": 0}, {"type": "note_on", "time": 5, "note": 69, "velocity": 106, "channel": 0}, {"type": "note_off", "time": 11, "note": 69, "velocity": 106, "channel": 0}, {"type": "note_on", "time": 3, "note": 67, "velocity": 117, "channel": 0}, {"type": "note_off", "time": 52, "note": 67, "velocity": 117, "channel": 0}, {"type": "note_on", "time": 12, "note": 66, "velocity": 112, "channel": 0}, {"type": "note_off", "time": 42, "note": 66, "velocity": 112, "channel": 0}, {"type": "note_on", "time": 14, "note": 65, "velocity": 111, "channel": 0}, {"type": "note_off", "time": 115, "note": 65, "velocity": 111, "channel": 0}, {"type": "note_on", "time": 50, "note": 60, "velocity": 99, "channel": 0}, {"type": "note_off", "time": 61, "note": 60, "velocity": 99, "channel": 0}, {"type": "note_on", "time": 12, "note": 62, "velocity": 105, "channel": 0}, {"type": "note_off", "time": 59, "note": 62, "velocity": 105, "channel": 0}, {"type": "note_on", "time": 3, "note": 63, "velocity": 101, "channel": 0}, {"type": "note_off", "time": 28, "note": 63, "velocity": 101, "channel": 0}, {"type": "note_on", "time": 4, "note": 62, "velocity": 98, "channel": 0}, {"type": "note_off", "time": 22, "note": 62, "velocity": 98, "channel": 0}, {"type": "note_on", "time": 32, "note": 60, "velocity": 98, "channel": 0}, {"type": "note_off", "time": 38, "note": 60, "velocity": 98, "channel": 0}, {"type": "note_on", "time": 7, "note": 62, "velocity": 94, "channel": 0}, {"type": "note_off", "time": 179, "note": 62, "velocity": 94, "channel": 0}, {"type": "note_on", "time": 191, "note": 68, "velocity": 121, "channel": 0}, {"type": "note_off", "time": 85, "note": 68, "velocity": 121, "channel": 0}, {"type": "note_on", "time": 10, "note": 70, "velocity": 125, "channel": 0}, {"type": "note_off", "time": 171, "note": 70, "velocity": 125, "channel": 0}, {"type": "note_on", "time": 10, "note": 68, "velocity": 110, "channel": 0}, {"type": "note_off", "time": 19, "note": 68, "velocity": 110, "channel": 0}, {"type": "note_on", "time": 3, "note": 70, "velocity": 115, "channel": 0}, {"type": "note_off", "time": 23, "note": 70, "velocity": 115, "channel": 0}, {"type": "note_on", "time": 2, "note": 68, "velocity": 119, "channel": 0}, {"type": "note_off", "time": 44, "note": 68, "velocity": 119, "channel": 0}, {"type": "note_on", "time": 12, "note": 67, "velocity": 119, "channel": 0}, {"type": "note_off", "time": 106, "note": 67, "velocity": 119, "channel": 0}, {"type": "note_on", "time": 29, "note": 70, "velocity": 121, "channel": 0}, {"type": "note_off", "time": 173, "note": 70, "velocity": 121, "channel": 0}, {"type": "note_on", "time": 9, "note": 69, "velocity": 108, "channel": 0}, {"type": "note_off", "time": 14, "note": 69, "velocity": 108, "channel": 0}, {"type": "note_on", "time": 7, "note": 67, "velocity": 117, "channel": 0}, {"type": "note_off", "time": 37, "note": 67, "velocity": 117, "channel": 0}, {"type": "note_on", "time": 8, "note": 66, "velocity": 112, "channel": 0}, {"type": "note_off", "time": 118, "note": 66, "velocity": 112, "channel": 0}, {"type": "note_on", "time": 19, "note": 70, "velocity": 121, "channel": 0}, {"type": "note_off", "time": 69, "note": 70, "velocity": 121, "channel": 0}, {"type": "note_on", "time": 309, "note": 65, "velocity": 116, "channel": 0}, {"type": "note_off", "time": 59, "note": 65, "velocity": 116, "channel": 0}, {"type": "note_on", "time": 13, "note": 63, "velocity": 113, "channel": 0}, {"type": "note_off", "time": 93, "note": 63, "velocity": 113, "channel": 0}, {"type": "note_on", "time": 11, "note": 60, "velocity": 108, "channel": 0}, {"type": "note_off", "time": 46, "note": 60, "velocity": 108, "channel": 0}, {"type": "note_on", "time": 6, "note": 61, "velocity": 115, "channel": 0}, {"type": "note_off", "time": 31, "note": 61, "velocity": 115, "channel": 0}, {"type": "note_on", "time": 4, "note": 62, "velocity": 113, "channel": 0}, {"type": "note_off", "time": 103, "note": 62, "velocity": 113, "channel": 0}, {"type": "note_on", "time": 21, "note": 59, "velocity": 108, "channel": 0}, {"type": "note_off", "time": 68, "note": 59, "velocity": 108, "channel": 0}, {"type": "note_on", "time": 12, "note": 58, "velocity": 101, "channel": 0}, {"type": "note_off", "time": 90, "note": 58, "velocity": 101, "channel": 0}, {"type": "note_on", "time": 23, "note": 56, "velocity": 101, "channel": 0}, {"type": "note_off", "time": 64, "note": 56, "velocity": 101, "channel": 0}, {"type": "note_on", "time": 22, "note": 55, "velocity": 97, "channel": 0}, {"type": "note_off", "time": 116, "note": 55, "velocity": 97, "channel": 0}, {"type": "note_on", "time": 66, "note": 63, "velocity": 114, "channel": 0}, {"type": "note_off", "time": 99, "note": 63, "velocity": 114, "channel": 0}, {"type": "note_on", "time": 23, "note": 66, "velocity": 113, "channel": 0}, {"type": "note_off", "time": 125, "note": 66, "velocity": 113, "channel": 0}, {"type": "note_on", "time": 7, "note": 67, "velocity": 110, "channel": 0}, {"type": "note_off", "time": 106, "note": 67, "velocity": 110, "channel": 0}, {"type": "note_on", "time": 26, "note": 63, "velocity": 105, "channel": 0}, {"type": "note_off", "time": 129, "note": 63, "velocity": 105, "channel": 0}, {"type": "note_on", "time": 75, "note": 63, "velocity": 95, "channel": 0}, {"type": "note_off", "time": 173, "note": 63, "velocity": 95, "channel": 0}, {"type": "note_on", "time": 22, "note": 60, "velocity": 96, "channel": 0}, {"type": "note_off", "time": 85, "note": 60, "velocity": 96, "channel": 0}, {"type": "note_on", "time": 623, "note": 55, "velocity": 100, "channel": 0}, {"type": "note_off", "time": 30, "note": 55, "velocity": 100, "channel": 0}, {"type": "note_on", "time": 10, "note": 59, "velocity": 110, "channel": 0}, {"type": "note_off", "time": 23, "note": 59, "velocity": 110, "channel": 0}, {"type": "note_on", "time": 7, "note": 60, "velocity": 111, "channel": 0}, {"type": "note_off", "time": 46, "note": 60, "velocity": 111, "channel": 0}, {"type": "note_on", "time": 13, "note": 62, "velocity": 109, "channel": 0}, {"type": "note_off", "time": 52, "note": 62, "velocity": 109, "channel": 0}, {"type": "note_on", "time": 4, "note": 63, "velocity": 109, "channel": 0}, {"type": "note_off", "time": 46, "note": 63, "velocity": 109, "channel": 0}, {"type": "note_on", "time": 10, "note": 65, "velocity": 108, "channel": 0}, {"type": "note_off", "time": 13, "note": 65, "velocity": 108, "channel": 0}, {"type": "note_on", "time": 6, "note": 67, "velocity": 117, "channel": 0}, {"type": "note_off", "time": 38, "note": 67, "velocity": 117, "channel": 0}, {"type": "note_on", "time": 5, "note": 65, "velocity": 116, "channel": 0}, {"type": "note_off", "time": 40, "note": 65, "velocity": 116, "channel": 0}, {"type": "note_on", "time": 9, "note": 64, "velocity": 113, "channel": 0}, {"type": "note_off", "time": 26, "note": 64, "velocity": 113, "channel": 0}, {"type": "note_on", "time": 5, "note": 63, "velocity": 112, "channel": 0}, {"type": "note_off", "time": 29, "note": 63, "velocity": 112, "channel": 0}, {"type": "note_on", "time": 6, "note": 62, "velocity": 113, "channel": 0}, {"type": "note_off", "time": 26, "note": 62, "velocity": 113, "channel": 0}, {"type": "note_on", "time": 5, "note": 60, "velocity": 105, "channel": 0}, {"type": "note_off", "time": 111, "note": 60, "velocity": 105, "channel": 0}, {"type": "note_on", "time": 9, "note": 57, "velocity": 105, "channel": 0}, {"type": "note_off", "time": 20, "note": 57, "velocity": 105, "channel": 0}, {"type": "note_on", "time": 8, "note": 58, "velocity": 112, "channel": 0}, {"type": "note_off", "time": 25, "note": 58, "velocity": 112, "channel": 0}, {"type": "note_on", "time": 10, "note": 60, "velocity": 108, "channel": 0}, {"type": "note_off", "time": 19, "note": 60, "velocity": 108, "channel": 0}, {"type": "note_on", "time": 6, "note": 64, "velocity": 108, "channel": 0}, {"type": "note_off", "time": 33, "note": 64, "velocity": 108, "channel": 0}, {"type": "note_on", "time": 8, "note": 73, "velocity": 109, "channel": 0}, {"type": "note_off", "time": 46, "note": 73, "velocity": 109, "channel": 0}, {"type": "note_on", "time": 8, "note": 72, "velocity": 122, "channel": 0}, {"type": "note_off", "time": 52, "note": 72, "velocity": 122, "channel": 0}, {"type": "note_on", "time": 6, "note": 73, "velocity": 117, "channel": 0}, {"type": "note_off", "time": 52, "note": 73, "velocity": 117, "channel": 0}, {"type": "note_on", "time": 10, "note": 74, "velocity": 115, "channel": 0}, {"type": "note_off", "time": 247, "note": 74, "velocity": 115, "channel": 0}, {"type": "note_on", "time": 2, "note": 73, "velocity": 118, "channel": 0}, {"type": "note_off", "time": 56, "note": 73, "velocity": 118, "channel": 0}, {"type": "note_on", "time": 20, "note": 67, "velocity": 107, "channel": 0}, {"type": "note_off", "time": 105, "note": 67, "velocity": 107, "channel": 0}, {"type": "note_on", "time": 105, "note": 67, "velocity": 96, "channel": 0}, {"type": "note_off", "time": 167, "note": 67, "velocity": 96, "channel": 0}, {"type": "note_on", "time": 36, "note": 63, "velocity": 104, "channel": 0}, {"type": "note_off", "time": 93, "note": 63, "velocity": 104, "channel": 0}, {"type": "note_on", "time": 294, "note": 55, "velocity": 113, "channel": 0}, {"type": "note_off", "time": 40, "note": 55, "velocity": 113, "channel": 0}, {"type": "note_on", "time": 15, "note": 58, "velocity": 109, "channel": 0}, {"type": "note_off", "time": 29, "note": 58, "velocity": 109, "channel": 0}, {"type": "note_on", "time": 6, "note": 60, "velocity": 113, "channel": 0}, {"type": "note_off", "time": 51, "note": 60, "velocity": 113, "channel": 0}, {"type": "note_on", "time": 36, "note": 62, "velocity": 117, "channel": 0}, {"type": "note_off", "time": 102, "note": 62, "velocity": 117, "channel": 0}, {"type": "note_on", "time": 15, "note": 63, "velocity": 119, "channel": 0}, {"type": "note_off", "time": 77, "note": 63, "velocity": 119, "channel": 0}, {"type": "note_on", "time": 6, "note": 65, "velocity": 117, "channel": 0}, {"type": "note_off", "time": 89, "note": 65, "velocity": 117, "channel": 0}, {"type": "note_on", "time": 23, "note": 66, "velocity": 118, "channel": 0}, {"type": "note_off", "time": 74, "note": 66, "velocity": 118, "channel": 0}, {"type": "note_on", "time": 3, "note": 67, "velocity": 121, "channel": 0}, {"type": "note_off", "time": 99, "note": 67, "velocity": 121, "channel": 0}, {"type": "note_on", "time": 12, "note": 68, "velocity": 122, "channel": 0}, {"type": "note_off", "time": 85, "note": 68, "velocity": 122, "channel": 0}, {"type": "note_on", "time": 16, "note": 67, "velocity": 117, "channel": 0}, {"type": "note_off", "time": 32, "note": 67, "velocity": 117, "channel": 0}, {"type": "note_on", "time": 10, "note": 66, "velocity": 95, "channel": 0}, {"type": "note_off", "time": 50, "note": 66, "velocity": 95, "channel": 0}, {"type": "note_on", "time": 14, "note": 63, "velocity": 100, "channel": 0}, {"type": "note_off", "time": 55, "note": 63, "velocity": 100, "channel": 0}, {"type": "note_on", "time": 33, "note": 66, "velocity": 117, "channel": 0}, {"type": "note_off", "time": 33, "note": 66, "velocity": 117, "channel": 0}, {"type": "note_on", "time": 5, "note": 67, "velocity": 10, "channel": 0}, {"type": "note_off", "time": 41, "note": 67, "velocity": 10, "channel": 0}, {"type": "note_on", "time": 26, "note": 63, "velocity": 122, "channel": 0}, {"type": "note_off", "time": 71, "note": 63, "velocity": 122, "channel": 0}, {"type": "note_on", "time": 17, "note": 63, "velocity": 115, "channel": 0}, {"type": "note_off", "time": 86, "note": 63, "velocity": 115, "channel": 0}, {"type": "note_on", "time": 90, "note": 63, "velocity": 108, "channel": 0}, {"type": "note_off", "time": 190, "note": 63, "velocity": 108, "channel": 0}, {"type": "note_on", "time": 160, "note": 58, "velocity": 113, "channel": 0}, {"type": "note_off", "time": 45, "note": 58, "velocity": 113, "channel": 0}, {"type": "note_on", "time": 18, "note": 61, "velocity": 113, "channel": 0}, {"type": "note_off", "time": 99, "note": 61, "velocity": 113, "channel": 0}, {"type": "note_on", "time": 9, "note": 62, "velocity": 117, "channel": 0}, {"type": "note_off", "time": 63, "note": 62, "velocity": 117, "channel": 0}, {"type": "end_of_track", "time": 0}]]}