{"ticks_per_beat": 20160, "tracks": [[{"type": "track_name", "name": "Melody", "time": 0}, {"type": "set_tempo", "tempo": 882352, "time": 0}, {"type": "key_signature", "key": "Ab", "time": 0}, {"type": "time_signature", "numerator": 4, "denominator": 4, "clocks_per_click": 24, "notated_32nd_notes_per_beat": 8, "time": 0}, {"type": "note_on", "time": 265463, "note": 53, "velocity": 118, "channel": 0}, {"type": "note_off", "time": 2797, "note": 53, "velocity": 118, "channel": 0}, {"type": "note_on", "time": 1212, "note": 54, "velocity": 120, "channel": 0}, {"type": "note_off", "time": 4103, "note": 54, "velocity": 120, "channel": 0}, {"type": "note_on", "time": 93, "note": 53, "velocity": 106, "channel": 0}, {"type": "note_off", "time": 2611, "note": 53, "velocity": 106, "channel": 0}, {"type": "note_on", "time": 1119, "note": 51, "velocity": 105, "channel": 0}, {"type": "note_off", "time": 2890, "note": 51, "velocity": 105, "channel": 0}, {"type": "note_on", "time": 623, "note": 53, "velocity": 103, "channel": 0}, {"type": "note_off", "time": 38330, "note": 53, "velocity": 103, "channel": 0}, {"type": "note_on", "time": 9814, "note": 54, "velocity": 109, "channel": 0}, {"type": "note_off", "time": 2122, "note": 54, "velocity": 109, "channel": 0}, {"type": "note_on", "time": 397, "note": 55, "velocity": 109, "channel": 0}, {"type": "note_off", "time": 1193, "note": 55, "velocity": 109, "channel": 0}, {"type": "note_on", "time": 663, "note": 56, "velocity": 109, "channel": 0}, {"type": "note_off", "time": 11804, "note": 56, "velocity": 109, "channel": 0}, {"type": "note_on", "time": 663, "note": 60, "velocity": 116, "channel": 0}, {"type": "note_off", "time": 4774, "note": 60, "velocity": 116, "channel": 0}, {"type": "note_on", "time": 1061, "note": 63, "velocity": 110, "channel": 0}, {"type": "note_off", "time": 4509, "note": 63, "velocity": 110, "channel": 0}, {"type": "note_on", "time": 1458, "note": 64, "velocity": 106, "channel": 0}, {"type": "note_off", "time": 2387, "note": 64, "velocity": 106, "channel": 0}, {"type": "note_on", "time": 928, "note": 65, "velocity": 108, "channel": 0}, {"type": "note_off", "time": 4907, "note": 65, "velocity": 108, "channel": 0}, {"type": "note_on", "time": 1326, "note": 68, "velocity": 106, "channel": 0}, {"type": "note_off", "time": 5040, "note": 68, "velocity": 106, "channel": 0}, {"type": "note_on", "time": 1458, "note": 65, "velocity": 88, "channel": 0}, {"type": "note_off", "time": 18966, "note": 65, "velocity": 88, "channel": 0}, {"type": "note_on", "time": 8223, "note": 64, "velocity": 109, "channel": 0}, {"type": "note_off", "time": 3846, "note": 64, "velocity": 109, "channel": 0}, {"type": "note_on", "time": 1724, "note": 61, "velocity": 109, "channel": 0}, {"type": "note_off", "time": 4907, "note": 61, "velocity": 109, "channel": 0}, {"type": "note_on", "time": 795, "note": 62, "velocity": 105, "channel": 0}, {"type": "note_off", "time": 5835, "note": 62, "velocity": 105, "channel": 0}, {"type": "note_on", "time": 1061, "note": 63, "velocity": 94, "channel": 0}, {"type": "note_off", "time": 11671, "note": 63, "velocity": 94, "channel": 0}, {"type": "note_on", "time": 663, "note": 62, "velocity": 83, "channel": 0}, {"type": "note_off", "time": 2387, "note": 62, "velocity": 83, "channel": 0}, {"type": "note_on", "time": 1061, "note": 60, "velocity": 103, "channel": 0}, {"type": "note_off", "time": 5437, "note": 60, "velocity": 103, "channel": 0}, {"type": "note_on", "time": 2122, "note": 55, "velocity": 86, "channel": 0}, {"type": "note_off", "time": 27985, "note": 55, "velocity": 86, "channel": 0}, {"type": "note_on", "time": 13661, "note": 51, "velocity": 102, "channel": 0}, {"type": "note_off", "time": 5570, "note": 51, "velocity": 102, "channel": 0}, {"type": "note_on", "time": 397, "note": 52, "velocity": 111, "channel": 0}, {"type": "note_off", "time": 4376, "note": 52, "velocity": 111, "channel": 0}, {"type": "note_on", "time": 795, "note": 53, "velocity": 103, "channel": 0}, {"type": "note_off", "time": 4111, "note": 53, "velocity": 103, "channel": 0}, {"type": "note_on", "time": 397, "note": 56, "velocity": 117, "channel": 0}, {"type": "note_off", "time": 3978, "note": 56, "velocity": 117, "channel": 0}, {"type": "note_on", "time": 663, "note": 60, "velocity": 110, "channel": 0}, {"type": "note_off", "time": 4244, "note": 60, "velocity": 110, "channel": 0}, {"type": "note_on", "time": 663, "note": 61, "velocity": 104, "channel": 0}, {"type": "note_off", "time": 2122, "note": 61, "velocity": 104, "channel": 0}, {"type": "note_on", "time": 1458, "note": 63, "velocity": 102, "channel": 0}, {"type": "note_off", "time": 6233, "note": 63, "velocity": 102, "channel": 0}, {"type": "note_on", "time": 1326, "note": 60, "velocity": 101, "channel": 0}, {"type": "note_off", "time": 2520, "note": 60, "velocity": 101, "channel": 0}, {"type": "note_on", "time": 928, "note": 63, "velocity": 101, "channel": 0}, {"type": "note_off", "time": 4774, "note": 63, "velocity": 101, "channel": 0}, {"type": "note_on", "time": 1591, "note": 60, "velocity": 101, "channel": 0}, {"type": "note_off", "time": 1458, "note": 60, "velocity": 101, "channel": 0}, {"type": "note_on", "time": 795, "note": 61, "velocity": 103, "channel": 0}, {"type": "note_off", "time": 1591, "note": 61, "velocity": 103, "channel": 0}, {"type": "note_on", "time": 1458, "note": 62, "velocity": 97, "channel": 0}, {"type": "note_off", "time": 4774, "note": 62, "velocity": 97, "channel": 0}, {"type": "note_on", "time": 928, "note": 53, "velocity": 97, "channel": 0}, {"type": "note_off", "time": 10477, "note": 53, "velocity": 97, "channel": 0}, {"type": "note_on", "time": 2520, "note": 52, "velocity": 97, "channel": 0}, {"type": "note_off", "time": 7825, "note": 52, "velocity": 97, "channel": 0}, {"type": "note_on", "time": 928, "note": 61, "velocity": 102, "channel": 0}, {"type": "note_off", "time": 8355, "note": 61, "velocity": 102, "channel": 0}, {"type": "note_on", "time": 928, "note": 60, "velocity": 102, "channel": 0}, {"type": "note_off", "time": 7029, "note": 60, "velocity": 102, "channel": 0}, {"type": "note_on", "time": 1193, "note": 65, "velocity": 88, "channel": 0}, {"type": "note_off", "time": 5437, "note": 65, "velocity": 88, "channel": 0}, {"type": "note_on", "time": 2387, "note": 54, "velocity": 98, "channel": 0}, {"type": "note_off", "time": 4642, "note": 54, "velocity": 98, "channel": 0}, {"type": "note_on", "time": 1326, "note": 53, "velocity": 85, "channel": 0}, {"type": "note_off", "time": 27454, "note": 53, "velocity": 85, "channel": 0}, {"type": "note_on", "time": 19231, "note": 55, "velocity": 98, "channel": 0}, {"type": "note_off", "time": 3581, "note": 55, "velocity": 98, "channel": 0}, {"type": "note_on", "time": 1061, "note": 56, "velocity": 114, "channel": 0}, {"type": "note_off", "time": 4376, "note": 56, "velocity": 114, "channel": 0}, {"type": "note_on", "time": 795, "note": 58, "velocity": 111, "channel": 0}, {"type": "note_off", "time": 2785, "note": 58, "velocity": 111, "channel": 0}, {"type": "note_on", "time": 1591, "note": 60, "velocity": 106, "channel": 0}, {"type": "note_off", "time": 4642, "note": 60, "velocity": 106, "channel": 0}, {"type": "note_on", "time": 928, "note": 66, "velocity": 97, "channel": 0}, {"type": "note_off", "time": 3448, "note": 66, "velocity": 97, "channel": 0}, {"type": "note_on", "time": 1591, "note": 65, "velocity": 98, "channel": 0}, {"type": "note_off", "time": 2917, "note": 65, "velocity": 98, "channel": 0}, {"type": "note_on", "time": 1373, "note": 63, "velocity": 95, "channel": 0}, {"type": "note_off", "time": 9814, "note": 63, "velocity": 95, "channel": 0}, {"type": "note_on", "time": 2028, "note": 60, "velocity": 108, "channel": 0}, {"type": "note_off", "time": 3916, "note": 60, "velocity": 108, "channel": 0}, {"type": "note_on", "time": 652, "note": 61, "velocity": 101, "channel": 0}, {"type": "note_off", "time": 3357, "note": 61, "velocity": 101, "channel": 0}, {"type": "note_on", "time": 1305, "note": 63, "velocity": 98, "channel": 0}, {"type": "note_off", "time": 5875, "note": 63, "velocity": 98, "channel": 0}, {"type": "note_on", "time": 746, "note": 60, "velocity": 93, "channel": 0}, {"type": "note_off", "time": 1865, "note": 60, "velocity": 93, "channel": 0}, {"type": "note_on", "time": 932, "note": 62, "velocity": 97, "channel": 0}, {"type": "note_off", "time": 1119, "note": 62, "velocity": 97, "channel": 0}, {"type": "note_on", "time": 652, "note": 63, "velocity": 97, "channel": 0}, {"type": "note_off", "time": 5222, "note": 63, "velocity": 97, "channel": 0}, {"type": "note_on", "time": 746, "note": 60, "velocity": 97, "channel": 0}, {"type": "note_off", "time": 16040, "note": 60, "velocity": 97, "channel": 0}, {"type": "note_on", "time": 559, "note": 61, "velocity": 98, "channel": 0}, {"type": "note_off", "time": 1305, "note": 61, "velocity": 98, "channel": 0}, {"type": "note_on", "time": 839, "note": 62, "velocity": 100, "channel": 0}, {"type": "note_off", "time": 1865, "note": 62, "velocity": 100, "channel": 0}, {"type": "note_on", "time": 466, "note": 63, "velocity": 92, "channel": 0}, {"type": "note_off", "time": 17066, "note": 63, "velocity": 92, "channel": 0}, {"type": "note_on", "time": 1960, "note": 55, "velocity": 90, "channel": 0}, {"type": "note_off", "time": 33290, "note": 55, "velocity": 90, "channel": 0}, {"type": "note_on", "time": 17159, "note": 51, "velocity": 98, "channel": 0}, {"type": "note_off", "time": 3637, "note": 51, "velocity": 98, "channel": 0}, {"type": "note_on", "time": 1398, "note": 53, "velocity": 112, "channel": 0}, {"type": "note_off", "time": 4383, "note": 53, "velocity": 112, "channel": 0}, {"type": "note_on", "time": 1492, "note": 48, "velocity": 98, "channel": 0}, {"type": "note_off", "time": 2984, "note": 48, "velocity": 98, "channel": 0}, {"type": "note_on", "time": 1585, "note": 51, "velocity": 102, "channel": 0}, {"type": "note_off", "time": 2984, "note": 51, "velocity": 102, "channel": 0}, {"type": "note_on", "time": 1025, "note": 53, "velocity": 111, "channel": 0}, {"type": "note_off", "time": 5502, "note": 53, "velocity": 111, "channel": 0}, {"type": "note_on", "time": 466, "note": 52, "velocity": 106, "channel": 0}, {"type": "note_off", "time": 2238, "note": 52, "velocity": 106, "channel": 0}, {"type": "note_on", "time": 186, "note": 53, "velocity": 107, "channel": 0}, {"type": "note_off", "time": 1305, "note": 53, "velocity": 107, "channel": 0}, {"type": "note_on", "time": 559, "note": 54, "velocity": 96, "channel": 0}, {"type": "note_off", "time": 31520, "note": 54, "velocity": 96, "channel": 0}, {"type": "note_on", "time": 8766, "note": 50, "velocity": 91, "channel": 0}, {"type": "note_off", "time": 3264, "note": 50, "velocity": 91, "channel": 0}, {"type": "note_on", "time": 233, "note": 51, "velocity": 96, "channel": 0}, {"type": "note_off", "time": 885, "note": 51, "velocity": 96, "channel": 0}, {"type": "note_on", "time": 326, "note": 52, "velocity": 101, "channel": 0}, {"type": "note_off", "time": 559, "note": 52, "velocity": 101, "channel": 0}, {"type": "note_on", "time": 139, "note": 54, "velocity": 109, "channel": 0}, {"type": "note_off", "time": 373, "note": 54, "velocity": 109, "channel": 0}, {"type": "note_on", "time": 186, "note": 55, "velocity": 103, "channel": 0}, {"type": "note_off", "time": 326, "note": 55, "velocity": 103, "channel": 0}, {"type": "note_on", "time": 326, "note": 56, "velocity": 109, "channel": 0}, {"type": "note_off", "time": 2144, "note": 56, "velocity": 109, "channel": 0}, {"type": "note_on", "time": 1305, "note": 60, "velocity": 77, "channel": 0}, {"type": "note_off", "time": 1958, "note": 60, "velocity": 77, "channel": 0}, {"type": "note_on", "time": 932, "note": 65, "velocity": 94, "channel": 0}, {"type": "note_off", "time": 9605, "note": 65, "velocity": 94, "channel": 0}, {"type": "note_on", "time": 1492, "note": 63, "velocity": 97, "channel": 0}, {"type": "note_off", "time": 2984, "note": 63, "velocity": 97, "channel": 0}, {"type": "note_on", "time": 1958, "note": 60, "velocity": 109, "channel": 0}, {"type": "note_off", "time": 3916, "note": 60, "velocity": 109, "channel": 0}, {"type": "note_on", "time": 1585, "note": 57, "velocity": 116, "channel": 0}, {"type": "note_off", "time": 2704, "note": 57, "velocity": 116, "channel": 0}, {"type": "note_on", "time": 746, "note": 58, "velocity": 111, "channel": 0}, {"type": "note_off", "time": 5595, "note": 58, "velocity": 111, "channel": 0}, {"type": "note_on", "time": 1492, "note": 53, "velocity": 105, "channel": 0}, {"type": "note_off", "time": 10817, "note": 53, "velocity": 105, "channel": 0}, {"type": "note_on", "time": 1865, "note": 56, "velocity": 112, "channel": 0}, {"type": "note_off", "time": 5595, "note": 56, "velocity": 112, "channel": 0}, {"type": "note_on", "time": 1771, "note": 65, "velocity": 90, "channel": 0}, {"type": "note_off", "time": 2331, "note": 65, "velocity": 90, "channel": 0}, {"type": "note_on", "time": 1398, "note": 61, "velocity": 106, "channel": 0}, {"type": "note_off", "time": 2144, "note": 61, "velocity": 106, "channel": 0}, {"type": "note_on", "time": 1025, "note": 58, "velocity": 107, "channel": 0}, {"type": "note_off", "time": 1492, "note": 58, "velocity": 107, "channel": 0}, {"type": "note_on", "time": 839, "note": 57, "velocity": 114, "channel": 0}, {"type": "note_off", "time": 2424, "note": 57, "velocity": 114, "channel": 0}, {"type": "note_on", "time": 839, "note": 56, "velocity": 97, "channel": 0}, {"type": "note_off", "time": 16786, "note": 56, "velocity": 97, "channel": 0}, {"type": "note_on", "time": 7761, "note": 58, "velocity": 113, "channel": 0}, {"type": "note_off", "time": 2718, "note": 58, "velocity": 113, "channel": 0}, {"type": "note_on", "time": 1061, "note": 60, "velocity": 110, "channel": 0}, {"type": "note_off", "time": 2586, "note": 60, "velocity": 110, "channel": 0}, {"type": "note_on", "time": 397, "note": 61, "velocity": 105, "channel": 0}, {"type": "note_off", "time": 928, "note": 61, "velocity": 105, "channel": 0}, {"type": "note_on", "time": 862, "note": 63, "velocity": 98, "channel": 0}, {"type": "note_off", "time": 1923, "note": 63, "velocity": 98, "channel": 0}, {"type": "note_on", "time": 729, "note": 65, "velocity": 101, "channel": 0}, {"type": "note_off", "time": 1260, "note": 65, "velocity": 101, "channel": 0}, {"type": "note_on", "time": 663, "note": 66, "velocity": 96, "channel": 0}, {"type": "note_off", "time": 3780, "note": 66, "velocity": 96, "channel": 0}, {"type": "note_on", "time": 1591, "note": 61, "velocity": 101, "channel": 0}, {"type": "note_off", "time": 3448, "note": 61, "velocity": 101, "channel": 0}, {"type": "note_on", "time": 1127, "note": 58, "velocity": 112, "channel": 0}, {"type": "note_off", "time": 3448, "note": 58, "velocity": 112, "channel": 0}, {"type": "note_on", "time": 464, "note": 54, "velocity": 107, "channel": 0}, {"type": "note_off", "time": 2254, "note": 54, "velocity": 107, "channel": 0}, {"type": "note_on", "time": 1127, "note": 53, "velocity": 104, "channel": 0}, {"type": "note_off", "time": 2851, "note": 53, "velocity": 104, "channel": 0}, {"type": "note_on", "time": 729, "note": 56, "velocity": 116, "channel": 0}, {"type": "note_off", "time": 2387, "note": 56, "velocity": 116, "channel": 0}, {"type": "note_on", "time": 1127, "note": 60, "velocity": 102, "channel": 0}, {"type": "note_off", "time": 1458, "note": 60, "velocity": 102, "channel": 0}, {"type": "note_on", "time": 1260, "note": 65, "velocity": 91, "channel": 0}, {"type": "note_off", "time": 2387, "note": 65, "velocity": 91, "channel": 0}, {"type": "note_on", "time": 663, "note": 63, "velocity": 96, "channel": 0}, {"type": "note_off", "time": 4973, "note": 63, "velocity": 96, "channel": 0}, {"type": "note_on", "time": 2254, "note": 65, "velocity": 97, "channel": 0}, {"type": "note_off", "time": 2586, "note": 65, "velocity": 97, "channel": 0}, {"type": "note_on", "time": 862, "note": 62, "velocity": 101, "channel": 0}, {"type": "note_off", "time": 5570, "note": 62, "velocity": 101, "channel": 0}, {"type": "note_on", "time": 1591, "note": 56, "velocity": 113, "channel": 0}, {"type": "note_off", "time": 2520, "note": 56, "velocity": 113, "channel": 0}, {"type": "note_on", "time": 862, "note": 64, "velocity": 101, "channel": 0}, {"type": "note_off", "time": 2785, "note": 64, "velocity": 101, "channel": 0}, {"type": "note_on", "time": 729, "note": 62, "velocity": 99, "channel": 0}, {"type": "note_off", "time": 2984, "note": 62, "velocity": 99, "channel": 0}, {"type": "note_on", "time": 0, "note": 63, "velocity": 96, "channel": 0}, {"type": "note_off", "time": 1923, "note": 63, "velocity": 96, "channel": 0}, {"type": "note_on", "time": 596, "note": 60, "velocity": 103, "channel": 0}, {"type": "note_off", "time": 2851, "note": 60, "velocity": 103, "channel": 0}, {"type": "note_on", "time": 1458, "note": 58, "velocity": 112, "channel": 0}, {"type": "note_off", "time": 2254, "note": 58, "velocity": 112, "channel": 0}, {"type": "note_on", "time": 862, "note": 56, "velocity": 102, "channel": 0}, {"type": "note_off", "time": 2984, "note": 56, "velocity": 102, "channel": 0}, {"type": "note_on", "time": 862, "note": 55, "velocity": 101, "channel": 0}, {"type": "note_off", "time": 2984, "note": 55, "velocity": 101, "channel": 0}, {"type": "note_on", "time": 928, "note": 63, "velocity": 100, "channel": 0}, {"type": "note_off", "time": 1923, "note": 63, "velocity": 100, "channel": 0}, {"type": "note_on", "time": 994, "note": 60, "velocity": 95, "channel": 0}, {"type": "note_off", "time": 1260, "note": 60, "velocity": 95, "channel": 0}, {"type": "note_on", "time": 1061, "note": 55, "velocity": 90, "channel": 0}, {"type": "note_off", "time": 22945, "note": 55, "velocity": 90, "channel": 0}, {"type": "note_on", "time": 26526, "note": 68, "velocity": 101, "channel": 0}, {"type": "note_off", "time": 4575, "note": 68, "velocity": 101, "channel": 0}, {"type": "note_on", "time": 1724, "note": 67, "velocity": 102, "channel": 0}, {"type": "note_off", "time": 2321, "note": 67, "velocity": 102, "channel": 0}, {"type": "note_on", "time": 663, "note": 65, "velocity": 100, "channel": 0}, {"type": "note_off", "time": 4244, "note": 65, "velocity": 100, "channel": 0}, {"type": "note_on", "time": 1525, "note": 63, "velocity": 104, "channel": 0}, {"type": "note_off", "time": 3780, "note": 63, "velocity": 104, "channel": 0}, {"type": "note_on", "time": 1193, "note": 61, "velocity": 108, "channel": 0}, {"type": "note_off", "time": 3780, "note": 61, "velocity": 108, "channel": 0}, {"type": "note_on", "time": 1724, "note": 60, "velocity": 109, "channel": 0}, {"type": "note_off", "time": 3780, "note": 60, "velocity": 109, "channel": 0}, {"type": "note_on", "time": 1061, "note": 58, "velocity": 110, "channel": 0}, {"type": "note_off", "time": 4244, "note": 58, "velocity": 110, "channel": 0}, {"type": "note_on", "time": 994, "note": 56, "velocity": 111, "channel": 0}, {"type": "note_off", "time": 3713, "note": 56, "velocity": 111, "channel": 0}, {"type": "note_on", "time": 663, "note": 55, "velocity": 100, "channel": 0}, {"type": "note_off", "time": 4642, "note": 55, "velocity": 100, "channel": 0}, {"type": "note_on", "time": 464, "note": 56, "velocity": 113, "channel": 0}, {"type": "note_off", "time": 4177, "note": 56, "velocity": 113, "channel": 0}, {"type": "note_on", "time": 530, "note": 55, "velocity": 111, "channel": 0}, {"type": "note_off", "time": 3116, "note": 55, "velocity": 111, "channel": 0}, {"type": "note_on", "time": 1657, "note": 59, "velocity": 111, "channel": 0}, {"type": "note_off", "time": 1591, "note": 59, "velocity": 111, "channel": 0}, {"type": "note_on", "time": 795, "note": 62, "velocity": 104, "channel": 0}, {"type": "note_off", "time": 2586, "note": 62, "velocity": 104, "channel": 0}, {"type": "note_on", "time": 862, "note": 67, "velocity": 98, "channel": 0}, {"type": "note_off", "time": 2055, "note": 67, "velocity": 98, "channel": 0}, {"type": "note_on", "time": 862, "note": 65, "velocity": 100, "channel": 0}, {"type": "note_off", "time": 2586, "note": 65, "velocity": 100, "channel": 0}, {"type": "note_on", "time": 331, "note": 63, "velocity": 98, "channel": 0}, {"type": "note_off", "time": 3116, "note": 63, "velocity": 98, "channel": 0}, {"type": "note_on", "time": 729, "note": 64, "velocity": 86, "channel": 0}, {"type": "note_off", "time": 8753, "note": 64, "velocity": 86, "channel": 0}, {"type": "note_on", "time": 2055, "note": 58, "velocity": 114, "channel": 0}, {"type": "note_off", "time": 1591, "note": 58, "velocity": 114, "channel": 0}, {"type": "note_on", "time": 1127, "note": 61, "velocity": 106, "channel": 0}, {"type": "note_off", "time": 1856, "note": 61, "velocity": 106, "channel": 0}, {"type": "note_on", "time": 132, "note": 60, "velocity": 109, "channel": 0}, {"type": "note_off", "time": 1458, "note": 60, "velocity": 109, "channel": 0}, {"type": "note_on", "time": 1392, "note": 58, "velocity": 107, "channel": 0}, {"type": "note_off", "time": 2122, "note": 58, "velocity": 107, "channel": 0}, {"type": "note_on", "time": 464, "note": 57, "velocity": 117, "channel": 0}, {"type": "note_off", "time": 2785, "note": 57, "velocity": 117, "channel": 0}, {"type": "note_on", "time": 2188, "note": 60, "velocity": 110, "channel": 0}, {"type": "note_off", "time": 2652, "note": 60, "velocity": 110, "channel": 0}, {"type": "note_on", "time": 530, "note": 61, "velocity": 104, "channel": 0}, {"type": "note_off", "time": 1326, "note": 61, "velocity": 104, "channel": 0}, {"type": "note_on", "time": 663, "note": 63, "velocity": 95, "channel": 0}, {"type": "note_off", "time": 2122, "note": 63, "velocity": 95, "channel": 0}, {"type": "note_on", "time": 464, "note": 65, "velocity": 95, "channel": 0}, {"type": "note_off", "time": 2453, "note": 65, "velocity": 95, "channel": 0}, {"type": "note_on", "time": 331, "note": 66, "velocity": 96, "channel": 0}, {"type": "note_off", "time": 1127, "note": 66, "velocity": 96, "channel": 0}, {"type": "note_on", "time": 331, "note": 65, "velocity": 97, "channel": 0}, {"type": "note_off", "time": 2453, "note": 65, "velocity": 97, "channel": 0}, {"type": "note_on", "time": 530, "note": 63, "velocity": 98, "channel": 0}, {"type": "note_off", "time": 1458, "note": 63, "velocity": 98, "channel": 0}, {"type": "note_on", "time": 994, "note": 62, "velocity": 97, "channel": 0}, {"type": "note_off", "time": 2188, "note": 62, "velocity": 97, "channel": 0}, {"type": "note_on", "time": 596, "note": 56, "velocity": 112, "channel": 0}, {"type": "note_off", "time": 2055, "note": 56, "velocity": 112, "channel": 0}, {"type": "note_on", "time": 1193, "note": 61, "velocity": 105, "channel": 0}, {"type": "note_off", "time": 1326, "note": 61, "velocity": 105, "channel": 0}, {"type": "note_on", "time": 663, "note": 60, "velocity": 107, "channel": 0}, {"type": "note_off", "time": 2453, "note": 60, "velocity": 107, "channel": 0}, {"type": "note_on", "time": 795, "note": 56, "velocity": 99, "channel": 0}, {"type": "note_off", "time": 1458, "note": 56, "velocity": 99, "channel": 0}, {"type": "note_on", "time": 862, "note": 53, "velocity": 104, "channel": 0}, {"type": "note_off", "time": 3315, "note": 53, "velocity": 104, "channel": 0}, {"type": "note_on", "time": 1525, "note": 58, "velocity": 106, "channel": 0}, {"type": "note_off", "time": 7758, "note": 58, "velocity": 106, "channel": 0}, {"type": "note_on", "time": 596, "note": 55, "velocity": 93, "channel": 0}, {"type": "note_off", "time": 1458, "note": 55, "velocity": 93, "channel": 0}, {"type": "note_on", "time": 862, "note": 56, "velocity": 110, "channel": 0}, {"type": "note_off", "time": 2387, "note": 56, "velocity": 110, "channel": 0}, {"type": "note_on", "time": 1106, "note": 51, "velocity": 99, "channel": 0}, {"type": "note_off", "time": 2051, "note": 51, "velocity": 99, "channel": 0}, {"type": "note_on", "time": 746, "note": 52, "velocity": 94, "channel": 0}, {"type": "note_off", "time": 23221, "note": 52, "velocity": 94, "channel": 0}, {"type": "note_on", "time": 528, "note": 54, "velocity": 107, "channel": 0}, {"type": "note_off", "time": 1392, "note": 54, "velocity": 107, "channel": 0}, {"type": "note_on", "time": 530, "note": 55, "velocity": 101, "channel": 0}, {"type": "note_off", "time": 5238, "note": 55, "velocity": 101, "channel": 0}, {"type": "note_on", "time": 1061, "note": 52, "velocity": 101, "channel": 0}, {"type": "note_off", "time": 2984, "note": 52, "velocity": 101, "channel": 0}, {"type": "note_on", "time": 1061, "note": 53, "velocity": 104, "channel": 0}, {"type": "note_off", "time": 4907, "note": 53, "velocity": 104, "channel": 0}, {"type": "note_on", "time": 1657, "note": 55, "velocity": 102, "channel": 0}, {"type": "note_off", "time": 3183, "note": 55, "velocity": 102, "channel": 0}, {"type": "note_on", "time": 1127, "note": 56, "velocity": 110, "channel": 0}, {"type": "note_off", "time": 5040, "note": 56, "velocity": 110, "channel": 0}, {"type": "note_on", "time": 729, "note": 58, "velocity": 103, "channel": 0}, {"type": "note_off", "time": 4177, "note": 58, "velocity": 103, "channel": 0}, {"type": "note_on", "time": 1392, "note": 60, "velocity": 105, "channel": 0}, {"type": "note_off", "time": 4443, "note": 60, "velocity": 105, "channel": 0}, {"type": "note_on", "time": 729, "note": 61, "velocity": 101, "channel": 0}, {"type": "note_off", "time": 4509, "note": 61, "velocity": 101, "channel": 0}, {"type": "note_on", "time": 1856, "note": 63, "velocity": 97, "channel": 0}, {"type": "note_off", "time": 2321, "note": 63, "velocity": 97, "channel": 0}, {"type": "note_on", "time": 1392, "note": 60, "velocity": 100, "channel": 0}, {"type": "note_off", "time": 4509, "note": 60, "velocity": 100, "channel": 0}, {"type": "note_on", "time": 1392, "note": 61, "velocity": 98, "channel": 0}, {"type": "note_off", "time": 2984, "note": 61, "velocity": 98, "channel": 0}, {"type": "note_on", "time": 1856, "note": 63, "velocity": 85, "channel": 0}, {"type": "note_off", "time": 13462, "note": 63, "velocity": 85, "channel": 0}, {"type": "note_on", "time": 11406, "note": 63, "velocity": 98, "channel": 0}, {"type": "note_off", "time": 7825, "note": 63, "velocity": 98, "channel": 0}, {"type": "note_on", "time": 1392, "note": 60, "velocity": 106, "channel": 0}, {"type": "note_off", "time": 4973, "note": 60, "velocity": 106, "channel": 0}, {"type": "note_on", "time": 1326, "note": 58, "velocity": 111, "channel": 0}, {"type": "note_off", "time": 5504, "note": 58, "velocity": 111, "channel": 0}, {"type": "note_on", "time": 596, "note": 56, "velocity": 109, "channel": 0}, {"type": "note_off", "time": 3315, "note": 56, "velocity": 109, "channel": 0}, {"type": "note_on", "time": 1260, "note": 55, "velocity": 97, "channel": 0}, {"type": "note_off", "time": 5570, "note": 55, "velocity": 97, "channel": 0}, {"type": "note_on", "time": 530, "note": 56, "velocity": 91, "channel": 0}, {"type": "note_off", "time": 20491, "note": 56, "velocity": 91, "channel": 0}, {"type": "note_on", "time": 12666, "note": 63, "velocity": 108, "channel": 0}, {"type": "note_off", "time": 3780, "note": 63, "velocity": 108, "channel": 0}, {"type": "note_on", "time": 1989, "note": 60, "velocity": 113, "channel": 0}, {"type": "note_off", "time": 3249, "note": 60, "velocity": 113, "channel": 0}, {"type": "note_on", "time": 729, "note": 67, "velocity": 104, "channel": 0}, {"type": "note_off", "time": 4841, "note": 67, "velocity": 104, "channel": 0}, {"type": "note_on", "time": 663, "note": 65, "velocity": 106, "channel": 0}, {"type": "note_off", "time": 2718, "note": 65, "velocity": 106, "channel": 0}, {"type": "note_on", "time": 928, "note": 63, "velocity": 103, "channel": 0}, {"type": "note_off", "time": 1657, "note": 63, "velocity": 103, "channel": 0}, {"type": "note_on", "time": 331, "note": 64, "velocity": 107, "channel": 0}, {"type": "note_off", "time": 663, "note": 64, "velocity": 107, "channel": 0}, {"type": "note_on", "time": 729, "note": 63, "velocity": 107, "channel": 0}, {"type": "note_off", "time": 1392, "note": 63, "velocity": 107, "channel": 0}, {"type": "note_on", "time": 994, "note": 61, "velocity": 107, "channel": 0}, {"type": "note_off", "time": 3713, "note": 61, "velocity": 107, "channel": 0}, {"type": "note_on", "time": 928, "note": 60, "velocity": 103, "channel": 0}, {"type": "note_off", "time": 8422, "note": 60, "velocity": 103, "channel": 0}, {"type": "note_on", "time": 2188, "note": 51, "velocity": 102, "channel": 0}, {"type": "note_off", "time": 4045, "note": 51, "velocity": 102, "channel": 0}, {"type": "note_on", "time": 795, "note": 53, "velocity": 109, "channel": 0}, {"type": "note_off", "time": 4443, "note": 53, "velocity": 109, "channel": 0}, {"type": "note_on", "time": 1193, "note": 48, "velocity": 102, "channel": 0}, {"type": "note_off", "time": 4376, "note": 48, "velocity": 102, "channel": 0}, {"type": "note_on", "time": 663, "note": 50, "velocity": 101, "channel": 0}, {"type": "note_off", "time": 4045, "note": 50, "velocity": 101, "channel": 0}, {"type": "note_on", "time": 994, "note": 51, "velocity": 101, "channel": 0}, {"type": "note_off", "time": 3514, "note": 51, "velocity": 101, "channel": 0}, {"type": "note_on", "time": 1260, "note": 53, "velocity": 113, "channel": 0}, {"type": "note_off", "time": 4841, "note": 53, "velocity": 113, "channel": 0}, {"type": "note_on", "time": 530, "note": 55, "velocity": 95, "channel": 0}, {"type": "note_off", "time": 7228, "note": 55, "velocity": 95, "channel": 0}, {"type": "note_on", "time": 2453, "note": 55, "velocity": 98, "channel": 0}, {"type": "note_off", "time": 5371, "note": 55, "velocity": 98, "channel": 0}, {"type": "note_on", "time": 1458, "note": 53, "velocity": 110, "channel": 0}, {"type": "note_off", "time": 3116, "note": 53, "velocity": 110, "channel": 0}, {"type": "note_on", "time": 530, "note": 54, "velocity": 110, "channel": 0}, {"type": "note_off", "time": 5968, "note": 54, "velocity": 110, "channel": 0}, {"type": "note_on", "time": 331, "note": 63, "velocity": 101, "channel": 0}, {"type": "note_off", "time": 3315, "note": 63, "velocity": 101, "channel": 0}, {"type": "note_on", "time": 397, "note": 62, "velocity": 105, "channel": 0}, {"type": "note_off", "time": 1260, "note": 62, "velocity": 105, "channel": 0}, {"type": "note_on", "time": 265, "note": 63, "velocity": 93, "channel": 0}, {"type": "note_off", "time": 530, "note": 63, "velocity": 93, "channel": 0}, {"type": "note_on", "time": 530, "note": 62, "velocity": 101, "channel": 0}, {"type": "note_off", "time": 1923, "note": 62, "velocity": 101, "channel": 0}, {"type": "note_on", "time": 1127, "note": 60, "velocity": 110, "channel": 0}, {"type": "note_off", "time": 3647, "note": 60, "velocity": 110, "channel": 0}, {"type": "note_on", "time": 862, "note": 59, "velocity": 104, "channel": 0}, {"type": "note_off", "time": 12931, "note": 59, "velocity": 104, "channel": 0}, {"type": "note_on", "time": 7891, "note": 50, "velocity": 101, "channel": 0}, {"type": "note_off", "time": 5437, "note": 50, "velocity": 101, "channel": 0}, {"type": "note_on", "time": 663, "note": 49, "velocity": 100, "channel": 0}, {"type": "note_off", "time": 1458, "note": 49, "velocity": 100, "channel": 0}, {"type": "note_on", "time": 397, "note": 48, "velocity": 105, "channel": 0}, {"type": "note_off", "time": 1525, "note": 48, "velocity": 105, "channel": 0}, {"type": "note_on", "time": 596, "note": 47, "velocity": 103, "channel": 0}, {"type": "note_off", "time": 4774, "note": 47, "velocity": 103, "channel": 0}, {"type": "note_on", "time": 1790, "note": 52, "velocity": 95, "channel": 0}, {"type": "note_off", "time": 30638, "note": 52, "velocity": 95, "channel": 0}, {"type": "note_on", "time": 304, "note": 51, "velocity": 103, "channel": 0}, {"type": "note_off", "time": 839, "note": 51, "velocity": 103, "channel": 0}, {"type": "note_on", "time": 373, "note": 49, "velocity": 98, "channel": 0}, {"type": "note_off", "time": 1305, "note": 49, "velocity": 98, "channel": 0}, {"type": "note_on", "time": 559, "note": 48, "velocity": 96, "channel": 0}, {"type": "note_off", "time": 652, "note": 48, "velocity": 96, "channel": 0}, {"type": "note_on", "time": 652, "note": 47, "velocity": 98, "channel": 0}, {"type": "note_off", "time": 6341, "note": 47, "velocity": 98, "channel": 0}, {"type": "note_on", "time": 13708, "note": 57, "velocity": 120, "channel": 0}, {"type": "note_off", "time": 8579, "note": 57, "velocity": 120, "channel": 0}, {"type": "note_on", "time": 559, "note": 55, "velocity": 106, "channel": 0}, {"type": "note_off", "time": 1865, "note": 55, "velocity": 106, "channel": 0}, {"type": "note_on", "time": 466, "note": 56, "velocity": 107, "channel": 0}, {"type": "note_off", "time": 466, "note": 56, "velocity": 107, "channel": 0}, {"type": "note_on", "time": 932, "note": 55, "velocity": 115, "channel": 0}, {"type": "note_off", "time": 1305, "note": 55, "velocity": 115, "channel": 0}, {"type": "note_on", "time": 1585, "note": 53, "velocity": 115, "channel": 0}, {"type": "note_off", "time": 3170, "note": 53, "velocity": 115, "channel": 0}, {"type": "note_on", "time": 746, "note": 55, "velocity": 110, "channel": 0}, {"type": "note_off", "time": 1398, "note": 55, "velocity": 110, "channel": 0}, {"type": "note_on", "time": 373, "note": 56, "velocity": 107, "channel": 0}, {"type": "note_off", "time": 1119, "note": 56, "velocity": 107, "channel": 0}, {"type": "note_on", "time": 652, "note": 55, "velocity": 110, "channel": 0}, {"type": "note_off", "time": 932, "note": 55, "velocity": 110, "channel": 0}, {"type": "note_on", "time": 1212, "note": 52, "velocity": 111, "channel": 0}, {"type": "note_off", "time": 2611, "note": 52, "velocity": 111, "channel": 0}, {"type": "note_on", "time": 1119, "note": 54, "velocity": 115, "channel": 0}, {"type": "note_off", "time": 5595, "note": 54, "velocity": 115, "channel": 0}, {"type": "note_on", "time": 746, "note": 51, "velocity": 101, "channel": 0}, {"type": "note_off", "time": 2890, "note": 51, "velocity": 101, "channel": 0}, {"type": "note_on", "time": 839, "note": 52, "velocity": 112, "channel": 0}, {"type": "note_off", "time": 6341, "note": 52, "velocity": 112, "channel": 0}, {"type": "note_on", "time": 1492, "note": 51, "velocity": 96, "channel": 0}, {"type": "note_off", "time": 1958, "note": 51, "velocity": 96, "channel": 0}, {"type": "note_on", "time": 1637, "note": 55, "velocity": 111, "channel": 0}, {"type": "note_off", "time": 464, "note": 55, "velocity": 111, "channel": 0}, {"type": "note_on", "time": 132, "note": 56, "velocity": 106, "channel": 0}, {"type": "note_off", "time": 596, "note": 56, "velocity": 106, "channel": 0}, {"type": "note_on", "time": 265, "note": 57, "velocity": 116, "channel": 0}, {"type": "note_off", "time": 331, "note": 57, "velocity": 116, "channel": 0}, {"type": "note_on", "time": 395, "note": 58, "velocity": 112, "channel": 0}, {"type": "note_off", "time": 466, "note": 58, "velocity": 112, "channel": 0}, {"type": "note_on", "time": 373, "note": 59, "velocity": 111, "channel": 0}, {"type": "note_off", "time": 3170, "note": 59, "velocity": 111, "channel": 0}, {"type": "note_on", "time": 634, "note": 64, "velocity": 100, "channel": 0}, {"type": "note_off", "time": 12799, "note": 64, "velocity": 100, "channel": 0}, {"type": "note_on", "time": 1724, "note": 62, "velocity": 108, "channel": 0}, {"type": "note_off", "time": 3448, "note": 62, "velocity": 108, "channel": 0}, {"type": "note_on", "time": 331, "note": 61, "velocity": 104, "channel": 0}, {"type": "note_off", "time": 663, "note": 61, "velocity": 104, "channel": 0}, {"type": "note_on", "time": 265, "note": 60, "velocity": 105, "channel": 0}, {"type": "note_off", "time": 464, "note": 60, "velocity": 105, "channel": 0}, {"type": "note_on", "time": 331, "note": 59, "velocity": 97, "channel": 0}, {"type": "note_off", "time": 331, "note": 59, "velocity": 97, "channel": 0}, {"type": "note_on", "time": 530, "note": 58, "velocity": 82, "channel": 0}, {"type": "note_off", "time": 2520, "note": 58, "velocity": 82, "channel": 0}, {"type": "note_on", "time": 663, "note": 50, "velocity": 96, "channel": 0}, {"type": "note_off", "time": 3647, "note": 50, "velocity": 96, "channel": 0}, {"type": "note_on", "time": 1260, "note": 52, "velocity": 106, "channel": 0}, {"type": "note_off", "time": 3713, "note": 52, "velocity": 106, "channel": 0}, {"type": "note_on", "time": 1525, "note": 53, "velocity": 96, "channel": 0}, {"type": "note_off", "time": 16910, "note": 53, "velocity": 96, "channel": 0}, {"type": "note_on", "time": 13528, "note": 56, "velocity": 121, "channel": 0}, {"type": "note_off", "time": 1989, "note": 56, "velocity": 121, "channel": 0}, {"type": "note_on", "time": 596, "note": 58, "velocity": 111, "channel": 0}, {"type": "note_off", "time": 1790, "note": 58, "velocity": 111, "channel": 0}, {"type": "note_on", "time": 862, "note": 61, "velocity": 111, "channel": 0}, {"type": "note_off", "time": 2718, "note": 61, "velocity": 111, "channel": 0}, {"type": "note_on", "time": 1790, "note": 64, "velocity": 114, "channel": 0}, {"type": "note_off", "time": 2055, "note": 64, "velocity": 114, "channel": 0}, {"type": "note_on", "time": 397, "note": 65, "velocity": 107, "channel": 0}, {"type": "note_off", "time": 928, "note": 65, "velocity": 107, "channel": 0}, {"type": "note_on", "time": 596, "note": 64, "velocity": 109, "channel": 0}, {"type": "note_off", "time": 1525, "note": 64, "velocity": 109, "channel": 0}, {"type": "note_on", "time": 1127, "note": 62, "velocity": 109, "channel": 0}, {"type": "note_off", "time": 2984, "note": 62, "velocity": 109, "channel": 0}, {"type": "note_on", "time": 397, "note": 64, "velocity": 109, "channel": 0}, {"type": "note_off", "time": 5437, "note": 64, "velocity": 109, "channel": 0}, {"type": "note_on", "time": 530, "note": 62, "velocity": 102, "channel": 0}, {"type": "note_off", "time": 862, "note": 62, "velocity": 102, "channel": 0}, {"type": "note_on", "time": 265, "note": 63, "velocity": 107, "channel": 0}, {"type": "note_off", "time": 729, "note": 63, "velocity": 107, "channel": 0}, {"type": "note_on", "time": 132, "note": 62, "velocity": 99, "channel": 0}, {"type": "note_off", "time": 729, "note": 62, "velocity": 99, "channel": 0}, {"type": "note_on", "time": 862, "note": 60, "velocity": 113, "channel": 0}, {"type": "note_off", "time": 5371, "note": 60, "velocity": 113, "channel": 0}, {"type": "note_on", "time": 862, "note": 59, "velocity": 113, "channel": 0}, {"type": "note_off", "time": 2917, "note": 59, "velocity": 113, "channel": 0}, {"type": "note_on", "time": 1326, "note": 57, "velocity": 111, "channel": 0}, {"type": "note_off", "time": 5106, "note": 57, "velocity": 111, "channel": 0}, {"type": "note_on", "time": 4310, "note": 52, "velocity": 112, "channel": 0}, {"type": "note_off", "time": 6830, "note": 52, "velocity": 112, "channel": 0}, {"type": "note_on", "time": 2188, "note": 52, "velocity": 101, "channel": 0}, {"type": "note_off", "time": 8422, "note": 52, "velocity": 101, "channel": 0}, {"type": "note_on", "time": 1127, "note": 51, "velocity": 96, "channel": 0}, {"type": "note_off", "time": 5504, "note": 51, "velocity": 96, "channel": 0}, {"type": "note_on", "time": 2055, "note": 56, "velocity": 120, "channel": 0}, {"type": "note_off", "time": 3978, "note": 56, "velocity": 120, "channel": 0}, {"type": "note_on", "time": 1458, "note": 60, "velocity": 109, "channel": 0}, {"type": "note_off", "time": 4310, "note": 60, "velocity": 109, "channel": 0}, {"type": "note_on", "time": 994, "note": 61, "velocity": 106, "channel": 0}, {"type": "note_off", "time": 2321, "note": 61, "velocity": 106, "channel": 0}, {"type": "note_on", "time": 331, "note": 62, "velocity": 99, "channel": 0}, {"type": "note_off", "time": 1790, "note": 62, "velocity": 99, "channel": 0}, {"type": "note_on", "time": 729, "note": 63, "velocity": 98, "channel": 0}, {"type": "note_off", "time": 4376, "note": 63, "velocity": 98, "channel": 0}, {"type": "note_on", "time": 1127, "note": 60, "velocity": 110, "channel": 0}, {"type": "note_off", "time": 3249, "note": 60, "velocity": 110, "channel": 0}, {"type": "note_on", "time": 1127, "note": 56, "velocity": 119, "channel": 0}, {"type": "note_off", "time": 5769, "note": 56, "velocity": 119, "channel": 0}, {"type": "note_on", "time": 862, "note": 54, "velocity": 117, "channel": 0}, {"type": "note_off", "time": 3581, "note": 54, "velocity": 117, "channel": 0}, {"type": "note_on", "time": 795, "note": 55, "velocity": 95, "channel": 0}, {"type": "note_off", "time": 9416, "note": 55, "velocity": 95, "channel": 0}, {"type": "note_on", "time": 10212, "note": 59, "velocity": 118, "channel": 0}, {"type": "note_off", "time": 4509, "note": 59, "velocity": 118, "channel": 0}, {"type": "note_on", "time": 729, "note": 62, "velocity": 110, "channel": 0}, {"type": "note_off", "time": 3249, "note": 62, "velocity": 110, "channel": 0}, {"type": "note_on", "time": 1458, "note": 64, "velocity": 112, "channel": 0}, {"type": "note_off", "time": 4177, "note": 64, "velocity": 112, "channel": 0}, {"type": "note_on", "time": 1061, "note": 66, "velocity": 105, "channel": 0}, {"type": "note_off", "time": 2917, "note": 66, "velocity": 105, "channel": 0}, {"type": "note_on", "time": 1127, "note": 67, "velocity": 101, "channel": 0}, {"type": "note_off", "time": 4310, "note": 67, "velocity": 101, "channel": 0}, {"type": "note_on", "time": 1260, "note": 69, "velocity": 103, "channel": 0}, {"type": "note_off", "time": 4045, "note": 69, "velocity": 103, "channel": 0}, {"type": "note_on", "time": 265, "note": 67, "velocity": 97, "channel": 0}, {"type": "note_off", "time": 928, "note": 67, "velocity": 97, "channel": 0}, {"type": "note_on", "time": 198, "note": 69, "velocity": 102, "channel": 0}, {"type": "note_off", "time": 928, "note": 69, "velocity": 102, "channel": 0}, {"type": "note_on", "time": 464, "note": 67, "velocity": 101, "channel": 0}, {"type": "note_off", "time": 1989, "note": 67, "velocity": 101, "channel": 0}, {"type": "note_on", "time": 729, "note": 66, "velocity": 99, "channel": 0}, {"type": "note_off", "time": 2984, "note": 66, "velocity": 99, "channel": 0}, {"type": "note_on", "time": 1458, "note": 65, "velocity": 99, "channel": 0}, {"type": "note_off", "time": 5040, "note": 65, "velocity": 99, "channel": 0}, {"type": "note_on", "time": 1127, "note": 61, "velocity": 110, "channel": 0}, {"type": "note_off", "time": 4443, "note": 61, "velocity": 110, "channel": 0}, {"type": "note_on", "time": 729, "note": 58, "velocity": 110, "channel": 0}, {"type": "note_off", "time": 5570, "note": 58, "velocity": 110, "channel": 0}, {"type": "note_on", "time": 132, "note": 65, "velocity": 102, "channel": 0}, {"type": "note_off", "time": 3912, "note": 65, "velocity": 102, "channel": 0}, {"type": "note_on", "time": 265, "note": 64, "velocity": 102, "channel": 0}, {"type": "note_off", "time": 994, "note": 64, "velocity": 102, "channel": 0}, {"type": "note_on", "time": 397, "note": 65, "velocity": 98, "channel": 0}, {"type": "note_off", "time": 1326, "note": 65, "velocity": 98, "channel": 0}, {"type": "note_on", "time": 663, "note": 64, "velocity": 104, "channel": 0}, {"type": "note_off", "time": 2122, "note": 64, "velocity": 104, "channel": 0}, {"type": "note_on", "time": 596, "note": 62, "velocity": 110, "channel": 0}, {"type": "note_off", "time": 2917, "note": 62, "velocity": 110, "channel": 0}, {"type": "note_on", "time": 729, "note": 60, "velocity": 112, "channel": 0}, {"type": "note_off", "time": 5769, "note": 60, "velocity": 112, "channel": 0}, {"type": "note_on", "time": 331, "note": 59, "velocity": 110, "channel": 0}, {"type": "note_off", "time": 3050, "note": 59, "velocity": 110, "channel": 0}, {"type": "note_on", "time": 928, "note": 57, "velocity": 115, "channel": 0}, {"type": "note_off", "time": 5172, "note": 57, "velocity": 115, "channel": 0}, {"type": "note_on", "time": 464, "note": 52, "velocity": 107, "channel": 0}, {"type": "note_off", "time": 4111, "note": 52, "velocity": 107, "channel": 0}, {"type": "note_on", "time": 663, "note": 54, "velocity": 104, "channel": 0}, {"type": "note_off", "time": 1127, "note": 54, "velocity": 104, "channel": 0}, {"type": "note_on", "time": 510, "note": 57, "velocity": 112, "channel": 0}, {"type": "note_off", "time": 746, "note": 57, "velocity": 112, "channel": 0}, {"type": "note_on", "time": 606, "note": 54, "velocity": 107, "channel": 0}, {"type": "note_off", "time": 1165, "note": 54, "velocity": 107, "channel": 0}, {"type": "note_on", "time": 839, "note": 52, "velocity": 106, "channel": 0}, {"type": "note_off", "time": 3170, "note": 52, "velocity": 106, "channel": 0}, {"type": "note_on", "time": 326, "note": 57, "velocity": 104, "channel": 0}, {"type": "note_off", "time": 2238, "note": 57, "velocity": 104, "channel": 0}, {"type": "note_on", "time": 344, "note": 55, "velocity": 100, "channel": 0}, {"type": "note_off", "time": 3978, "note": 55, "velocity": 100, "channel": 0}, {"type": "note_on", "time": 1458, "note": 52, "velocity": 98, "channel": 0}, {"type": "note_off", "time": 2984, "note": 52, "velocity": 98, "channel": 0}, {"type": "note_on", "time": 265, "note": 54, "velocity": 108, "channel": 0}, {"type": "note_off", "time": 5404, "note": 54, "velocity": 108, "channel": 0}, {"type": "note_on", "time": 531, "note": 61, "velocity": 104, "channel": 0}, {"type": "note_off", "time": 2191, "note": 61, "velocity": 104, "channel": 0}, {"type": "note_on", "time": 419, "note": 62, "velocity": 99, "channel": 0}, {"type": "note_off", "time": 10771, "note": 62, "velocity": 99, "channel": 0}, {"type": "note_on", "time": 279, "note": 60, "velocity": 112, "channel": 0}, {"type": "note_off", "time": 2657, "note": 60, "velocity": 112, "channel": 0}, {"type": "note_on", "time": 559, "note": 62, "velocity": 103, "channel": 0}, {"type": "note_off", "time": 2098, "note": 62, "velocity": 103, "channel": 0}, {"type": "note_on", "time": 419, "note": 58, "velocity": 110, "channel": 0}, {"type": "note_off", "time": 2797, "note": 58, "velocity": 110, "channel": 0}, {"type": "note_on", "time": 466, "note": 59, "velocity": 88, "channel": 0}, {"type": "note_off", "time": 9605, "note": 59, "velocity": 88, "channel": 0}, {"type": "note_on", "time": 17858, "note": 62, "velocity": 111, "channel": 0}, {"type": "note_off", "time": 3217, "note": 62, "velocity": 111, "channel": 0}, {"type": "note_on", "time": 932, "note": 64, "velocity": 107, "channel": 0}, {"type": "note_off", "time": 4056, "note": 64, "velocity": 107, "channel": 0}, {"type": "note_on", "time": 1958, "note": 66, "velocity": 107, "channel": 0}, {"type": "note_off", "time": 1305, "note": 66, "velocity": 107, "channel": 0}, {"type": "note_on", "time": 233, "note": 67, "velocity": 104, "channel": 0}, {"type": "note_off", "time": 4289, "note": 67, "velocity": 104, "channel": 0}, {"type": "note_on", "time": 326, "note": 66, "velocity": 95, "channel": 0}, {"type": "note_off", "time": 2098, "note": 66, "velocity": 95, "channel": 0}, {"type": "note_on", "time": 2517, "note": 63, "velocity": 97, "channel": 0}, {"type": "note_off", "time": 4802, "note": 63, "velocity": 97, "channel": 0}, {"type": "note_on", "time": 885, "note": 55, "velocity": 94, "channel": 0}, {"type": "note_off", "time": 4429, "note": 55, "velocity": 94, "channel": 0}, {"type": "note_on", "time": 326, "note": 57, "velocity": 122, "channel": 0}, {"type": "note_off", "time": 3450, "note": 57, "velocity": 122, "channel": 0}, {"type": "note_on", "time": 1119, "note": 60, "velocity": 107, "channel": 0}, {"type": "note_off", "time": 4476, "note": 60, "velocity": 107, "channel": 0}, {"type": "note_on", "time": 512, "note": 62, "velocity": 104, "channel": 0}, {"type": "note_off", "time": 3590, "note": 62, "velocity": 104, "channel": 0}, {"type": "note_on", "time": 1072, "note": 63, "velocity": 100, "channel": 0}, {"type": "note_off", "time": 4429, "note": 63, "velocity": 100, "channel": 0}, {"type": "note_on", "time": 792, "note": 64, "velocity": 101, "channel": 0}, {"type": "note_off", "time": 3357, "note": 64, "velocity": 101, "channel": 0}, {"type": "note_on", "time": 1072, "note": 65, "velocity": 91, "channel": 0}, {"type": "note_off", "time": 4802, "note": 65, "velocity": 91, "channel": 0}, {"type": "note_on", "time": 1258, "note": 61, "velocity": 107, "channel": 0}, {"type": "note_off", "time": 3637, "note": 61, "velocity": 107, "channel": 0}, {"type": "note_on", "time": 979, "note": 53, "velocity": 108, "channel": 0}, {"type": "note_off", "time": 4942, "note": 53, "velocity": 108, "channel": 0}, {"type": "note_on", "time": 699, "note": 55, "velocity": 102, "channel": 0}, {"type": "note_off", "time": 2937, "note": 55, "velocity": 102, "channel": 0}, {"type": "note_on", "time": 419, "note": 56, "velocity": 103, "channel": 0}, {"type": "note_off", "time": 2611, "note": 56, "velocity": 103, "channel": 0}, {"type": "note_on", "time": 279, "note": 58, "velocity": 112, "channel": 0}, {"type": "note_off", "time": 8299, "note": 58, "velocity": 112, "channel": 0}, {"type": "note_on", "time": 512, "note": 60, "velocity": 110, "channel": 0}, {"type": "note_off", "time": 4709, "note": 60, "velocity": 110, "channel": 0}, {"type": "note_on", "time": 932, "note": 61, "velocity": 106, "channel": 0}, {"type": "note_off", "time": 3264, "note": 61, "velocity": 106, "channel": 0}, {"type": "note_on", "time": 1445, "note": 63, "velocity": 99, "channel": 0}, {"type": "note_off", "time": 5269, "note": 63, "velocity": 99, "channel": 0}, {"type": "note_on", "time": 979, "note": 61, "velocity": 97, "channel": 0}, {"type": "note_off", "time": 3030, "note": 61, "velocity": 97, "channel": 0}, {"type": "note_on", "time": 373, "note": 63, "velocity": 98, "channel": 0}, {"type": "note_off", "time": 5502, "note": 63, "velocity": 98, "channel": 0}, {"type": "note_on", "time": 932, "note": 63, "velocity": 101, "channel": 0}, {"type": "note_off", "time": 1445, "note": 63, "velocity": 101, "channel": 0}, {"type": "note_on", "time": 279, "note": 64, "velocity": 101, "channel": 0}, {"type": "note_off", "time": 7367, "note": 64, "velocity": 101, "channel": 0}, {"type": "note_on", "time": 1771, "note": 60, "velocity": 107, "channel": 0}, {"type": "note_off", "time": 2890, "note": 60, "velocity": 107, "channel": 0}, {"type": "note_on", "time": 1072, "note": 64, "velocity": 107, "channel": 0}, {"type": "note_off", "time": 1165, "note": 64, "velocity": 107, "channel": 0}, {"type": "note_on", "time": 279, "note": 65, "velocity": 98, "channel": 0}, {"type": "note_off", "time": 3590, "note": 65, "velocity": 98, "channel": 0}, {"type": "note_on", "time": 839, "note": 60, "velocity": 112, "channel": 0}, {"type": "note_off", "time": 3217, "note": 60, "velocity": 112, "channel": 0}, {"type": "note_on", "time": 2284, "note": 58, "velocity": 98, "channel": 0}, {"type": "note_off", "time": 16646, "note": 58, "velocity": 98, "channel": 0}, {"type": "note_on", "time": 37349, "note": 51, "velocity": 102, "channel": 0}, {"type": "note_off", "time": 3450, "note": 51, "velocity": 102, "channel": 0}, {"type": "note_on", "time": 559, "note": 52, "velocity": 111, "channel": 0}, {"type": "note_off", "time": 2517, "note": 52, "velocity": 111, "channel": 0}, {"type": "note_on", "time": 606, "note": 56, "velocity": 120, "channel": 0}, {"type": "note_off", "time": 2797, "note": 56, "velocity": 120, "channel": 0}, {"type": "note_on", "time": 792, "note": 58, "velocity": 114, "channel": 0}, {"type": "note_off", "time": 3310, "note": 58, "velocity": 114, "channel": 0}, {"type": "note_on", "time": 139, "note": 60, "velocity": 120, "channel": 0}, {"type": "note_off", "time": 4756, "note": 60, "velocity": 120, "channel": 0}, {"type": "note_on", "time": 699, "note": 61, "velocity": 113, "channel": 0}, {"type": "note_off", "time": 4429, "note": 61, "velocity": 113, "channel": 0}, {"type": "note_on", "time": 746, "note": 63, "velocity": 111, "channel": 0}, {"type": "note_off", "time": 4896, "note": 63, "velocity": 111, "channel": 0}, {"type": "note_on", "time": 1818, "note": 65, "velocity": 107, "channel": 0}, {"type": "note_off", "time": 2191, "note": 65, "velocity": 107, "channel": 0}, {"type": "note_on", "time": 419, "note": 66, "velocity": 101, "channel": 0}, {"type": "note_off", "time": 2005, "note": 66, "velocity": 101, "channel": 0}, {"type": "note_on", "time": 699, "note": 68, "velocity": 100, "channel": 0}, {"type": "note_off", "time": 2098, "note": 68, "velocity": 100, "channel": 0}, {"type": "note_on", "time": 186, "note": 66, "velocity": 95, "channel": 0}, {"type": "note_off", "time": 1445, "note": 66, "velocity": 95, "channel": 0}, {"type": "note_on", "time": 885, "note": 63, "velocity": 107, "channel": 0}, {"type": "note_off", "time": 2751, "note": 63, "velocity": 107, "channel": 0}, {"type": "note_on", "time": 466, "note": 65, "velocity": 104, "channel": 0}, {"type": "note_off", "time": 4010, "note": 65, "velocity": 104, "channel": 0}, {"type": "note_on", "time": 2005, "note": 60, "velocity": 100, "channel": 0}, {"type": "note_off", "time": 13195, "note": 60, "velocity": 100, "channel": 0}, {"type": "note_on", "time": 8160, "note": 65, "velocity": 110, "channel": 0}, {"type": "note_off", "time": 3963, "note": 65, "velocity": 110, "channel": 0}, {"type": "note_on", "time": 419, "note": 64, "velocity": 111, "channel": 0}, {"type": "note_off", "time": 1072, "note": 64, "velocity": 111, "channel": 0}, {"type": "note_on", "time": 373, "note": 65, "velocity": 105, "channel": 0}, {"type": "note_off", "time": 1165, "note": 65, "velocity": 105, "channel": 0}, {"type": "note_on", "time": 326, "note": 64, "velocity": 111, "channel": 0}, {"type": "note_off", "time": 2284, "note": 64, "velocity": 111, "channel": 0}, {"type": "note_on", "time": 1025, "note": 62, "velocity": 110, "channel": 0}, {"type": "note_off", "time": 2797, "note": 62, "velocity": 110, "channel": 0}, {"type": "note_on", "time": 839, "note": 63, "velocity": 110, "channel": 0}, {"type": "note_off", "time": 5642, "note": 63, "velocity": 110, "channel": 0}, {"type": "note_on", "time": 1258, "note": 61, "velocity": 110, "channel": 0}, {"type": "note_off", "time": 4010, "note": 61, "velocity": 110, "channel": 0}, {"type": "note_on", "time": 885, "note": 55, "velocity": 102, "channel": 0}, {"type": "note_off", "time": 4616, "note": 55, "velocity": 102, "channel": 0}, {"type": "note_on", "time": 559, "note": 59, "velocity": 108, "channel": 0}, {"type": "note_off", "time": 3730, "note": 59, "velocity": 108, "channel": 0}, {"type": "note_on", "time": 279, "note": 60, "velocity": 109, "channel": 0}, {"type": "note_off", "time": 5875, "note": 60, "velocity": 109, "channel": 0}, {"type": "note_on", "time": 1119, "note": 63, "velocity": 92, "channel": 0}, {"type": "note_off", "time": 10911, "note": 63, "velocity": 92, "channel": 0}, {"type": "note_on", "time": 3916, "note": 55, "velocity": 104, "channel": 0}, {"type": "note_off", "time": 2424, "note": 55, "velocity": 104, "channel": 0}, {"type": "note_on", "time": 559, "note": 54, "velocity": 108, "channel": 0}, {"type": "note_off", "time": 1119, "note": 54, "velocity": 108, "channel": 0}, {"type": "note_on", "time": 354, "note": 51, "velocity": 94, "channel": 0}, {"type": "note_off", "time": 3124, "note": 51, "velocity": 94, "channel": 0}, {"type": "note_on", "time": 2313, "note": 53, "velocity": 98, "channel": 0}, {"type": "note_off", "time": 6341, "note": 53, "velocity": 98, "channel": 0}, {"type": "note_on", "time": 782, "note": 55, "velocity": 98, "channel": 0}, {"type": "note_off", "time": 6015, "note": 55, "velocity": 98, "channel": 0}, {"type": "note_on", "time": 746, "note": 51, "velocity": 99, "channel": 0}, {"type": "note_off", "time": 4429, "note": 51, "velocity": 99, "channel": 0}, {"type": "note_on", "time": 37396, "note": 51, "velocity": 104, "channel": 0}, {"type": "note_off", "time": 3170, "note": 51, "velocity": 104, "channel": 0}, {"type": "note_on", "time": 746, "note": 52, "velocity": 112, "channel": 0}, {"type": "note_off", "time": 2564, "note": 52, "velocity": 112, "channel": 0}, {"type": "note_on", "time": 559, "note": 56, "velocity": 114, "channel": 0}, {"type": "note_off", "time": 3264, "note": 56, "velocity": 114, "channel": 0}, {"type": "note_on", "time": 233, "note": 60, "velocity": 113, "channel": 0}, {"type": "note_off", "time": 2797, "note": 60, "velocity": 113, "channel": 0}, {"type": "note_on", "time": 1119, "note": 63, "velocity": 108, "channel": 0}, {"type": "note_off", "time": 1725, "note": 63, "velocity": 108, "channel": 0}, {"type": "note_on", "time": 512, "note": 62, "velocity": 106, "channel": 0}, {"type": "note_off", "time": 4103, "note": 62, "velocity": 106, "channel": 0}, {"type": "note_on", "time": 652, "note": 55, "velocity": 106, "channel": 0}, {"type": "note_off", "time": 2937, "note": 55, "velocity": 106, "channel": 0}, {"type": "note_on", "time": 652, "note": 59, "velocity": 116, "channel": 0}, {"type": "note_off", "time": 2051, "note": 59, "velocity": 116, "channel": 0}, {"type": "note_on", "time": 746, "note": 62, "velocity": 108, "channel": 0}, {"type": "note_off", "time": 2284, "note": 62, "velocity": 108, "channel": 0}, {"type": "note_on", "time": 839, "note": 67, "velocity": 93, "channel": 0}, {"type": "note_off", "time": 1958, "note": 67, "velocity": 93, "channel": 0}, {"type": "note_on", "time": 512, "note": 65, "velocity": 105, "channel": 0}, {"type": "note_off", "time": 1865, "note": 65, "velocity": 105, "channel": 0}, {"type": "note_on", "time": 559, "note": 64, "velocity": 105, "channel": 0}, {"type": "note_off", "time": 4802, "note": 64, "velocity": 105, "channel": 0}, {"type": "note_on", "time": 1398, "note": 57, "velocity": 119, "channel": 0}, {"type": "note_off", "time": 2471, "note": 57, "velocity": 119, "channel": 0}, {"type": "note_on", "time": 186, "note": 58, "velocity": 115, "channel": 0}, {"type": "note_off", "time": 5362, "note": 58, "velocity": 115, "channel": 0}, {"type": "note_on", "time": 606, "note": 61, "velocity": 112, "channel": 0}, {"type": "note_off", "time": 4196, "note": 61, "velocity": 112, "channel": 0}, {"type": "note_on", "time": 699, "note": 60, "velocity": 111, "channel": 0}, {"type": "note_off", "time": 4429, "note": 60, "velocity": 111, "channel": 0}, {"type": "note_on", "time": 839, "note": 58, "velocity": 115, "channel": 0}, {"type": "note_off", "time": 3730, "note": 58, "velocity": 115, "channel": 0}, {"type": "note_on", "time": 512, "note": 57, "velocity": 115, "channel": 0}, {"type": "note_off", "time": 4196, "note": 57, "velocity": 115, "channel": 0}, {"type": "note_on", "time": 466, "note": 54, "velocity": 109, "channel": 0}, {"type": "note_off", "time": 2005, "note": 54, "velocity": 109, "channel": 0}, {"type": "note_on", "time": 186, "note": 53, "velocity": 105, "channel": 0}, {"type": "note_off", "time": 3310, "note": 53, "velocity": 105, "channel": 0}, {"type": "note_on", "time": 1165, "note": 51, "velocity": 92, "channel": 0}, {"type": "note_off", "time": 6061, "note": 51, "velocity": 92, "channel": 0}, {"type": "note_on", "time": 652, "note": 50, "velocity": 94, "channel": 0}, {"type": "note_off", "time": 10025, "note": 50, "velocity": 94, "channel": 0}, {"type": "note_on", "time": 1492, "note": 55, "velocity": 98, "channel": 0}, {"type": "note_off", "time": 1398, "note": 55, "velocity": 98, "channel": 0}, {"type": "note_on", "time": 233, "note": 57, "velocity": 116, "channel": 0}, {"type": "note_off", "time": 3217, "note": 57, "velocity": 116, "channel": 0}, {"type": "note_on", "time": 606, "note": 58, "velocity": 110, "channel": 0}, {"type": "note_off", "time": 13009, "note": 58, "velocity": 110, "channel": 0}, {"type": "note_on", "time": 1103, "note": 56, "velocity": 115, "channel": 0}, {"type": "note_off", "time": 1243, "note": 56, "velocity": 115, "channel": 0}, {"type": "note_on", "time": 497, "note": 58, "velocity": 108, "channel": 0}, {"type": "note_off", "time": 1276, "note": 58, "velocity": 108, "channel": 0}, {"type": "note_on", "time": 331, "note": 56, "velocity": 110, "channel": 0}, {"type": "note_off", "time": 2354, "note": 56, "velocity": 110, "channel": 0}, {"type": "note_on", "time": 696, "note": 54, "velocity": 104, "channel": 0}, {"type": "note_off", "time": 1293, "note": 54, "velocity": 104, "channel": 0}, {"type": "note_on", "time": 298, "note": 52, "velocity": 114, "channel": 0}, {"type": "note_off", "time": 3514, "note": 52, "velocity": 114, "channel": 0}, {"type": "note_on", "time": 630, "note": 51, "velocity": 104, "channel": 0}, {"type": "note_off", "time": 6200, "note": 51, "velocity": 104, "channel": 0}, {"type": "note_on", "time": 20359, "note": 55, "velocity": 107, "channel": 0}, {"type": "note_off", "time": 7957, "note": 55, "velocity": 107, "channel": 0}, {"type": "note_on", "time": 2652, "note": 52, "velocity": 108, "channel": 0}, {"type": "note_off", "time": 3448, "note": 52, "velocity": 108, "channel": 0}, {"type": "note_on", "time": 265, "note": 53, "velocity": 113, "channel": 0}, {"type": "note_off", "time": 5769, "note": 53, "velocity": 113, "channel": 0}, {"type": "note_on", "time": 464, "note": 55, "velocity": 105, "channel": 0}, {"type": "note_off", "time": 3315, "note": 55, "velocity": 105, "channel": 0}, {"type": "note_on", "time": 596, "note": 56, "velocity": 112, "channel": 0}, {"type": "note_off", "time": 5570, "note": 56, "velocity": 112, "channel": 0}, {"type": "note_on", "time": 596, "note": 58, "velocity": 116, "channel": 0}, {"type": "note_off", "time": 4376, "note": 58, "velocity": 116, "channel": 0}, {"type": "note_on", "time": 464, "note": 55, "velocity": 95, "channel": 0}, {"type": "note_off", "time": 4111, "note": 55, "velocity": 95, "channel": 0}, {"type": "note_on", "time": 596, "note": 56, "velocity": 120, "channel": 0}, {"type": "note_off", "time": 4376, "note": 56, "velocity": 120, "channel": 0}, {"type": "note_on", "time": 530, "note": 58, "velocity": 115, "channel": 0}, {"type": "note_off", "time": 3978, "note": 58, "velocity": 115, "channel": 0}, {"type": "note_on", "time": 1458, "note": 60, "velocity": 111, "channel": 0}, {"type": "note_off", "time": 3846, "note": 60, "velocity": 111, "channel": 0}, {"type": "note_on", "time": 464, "note": 61, "velocity": 104, "channel": 0}, {"type": "note_off", "time": 4244, "note": 61, "velocity": 104, "channel": 0}, {"type": "note_on", "time": 1260, "note": 63, "velocity": 99, "channel": 0}, {"type": "note_off", "time": 3315, "note": 63, "velocity": 99, "channel": 0}, {"type": "note_on", "time": 1127, "note": 60, "velocity": 99, "channel": 0}, {"type": "note_off", "time": 16512, "note": 60, "velocity": 99, "channel": 0}, {"type": "note_on", "time": 331, "note": 63, "velocity": 92, "channel": 0}, {"type": "note_off", "time": 3315, "note": 63, "velocity": 92, "channel": 0}, {"type": "note_on", "time": 1193, "note": 58, "velocity": 109, "channel": 0}, {"type": "note_off", "time": 4509, "note": 58, "velocity": 109, "channel": 0}, {"type": "note_on", "time": 1193, "note": 56, "velocity": 97, "channel": 0}, {"type": "note_off", "time": 32362, "note": 56, "velocity": 97, "channel": 0}, {"type": "note_on", "time": 12713, "note": 61, "velocity": 112, "channel": 0}, {"type": "note_off", "time": 2144, "note": 61, "velocity": 112, "channel": 0}, {"type": "note_on", "time": 326, "note": 63, "velocity": 95, "channel": 0}, {"type": "note_off", "time": 12869, "note": 63, "velocity": 95, "channel": 0}, {"type": "note_on", "time": 699, "note": 60, "velocity": 120, "channel": 0}, {"type": "note_off", "time": 3916, "note": 60, "velocity": 120, "channel": 0}, {"type": "note_on", "time": 932, "note": 58, "velocity": 118, "channel": 0}, {"type": "note_off", "time": 5222, "note": 58, "velocity": 118, "channel": 0}, {"type": "note_on", "time": 606, "note": 56, "velocity": 119, "channel": 0}, {"type": "note_off", "time": 3264, "note": 56, "velocity": 119, "channel": 0}, {"type": "note_on", "time": 1585, "note": 55, "velocity": 108, "channel": 0}, {"type": "note_off", "time": 5269, "note": 55, "velocity": 108, "channel": 0}, {"type": "note_on", "time": 746, "note": 57, "velocity": 127, "channel": 0}, {"type": "note_off", "time": 2751, "note": 57, "velocity": 127, "channel": 0}, {"type": "note_on", "time": 1025, "note": 60, "velocity": 115, "channel": 0}, {"type": "note_off", "time": 4849, "note": 60, "velocity": 115, "channel": 0}, {"type": "note_on", "time": 606, "note": 62, "velocity": 109, "channel": 0}, {"type": "note_off", "time": 3776, "note": 62, "velocity": 109, "channel": 0}, {"type": "note_on", "time": 1072, "note": 60, "velocity": 108, "channel": 0}, {"type": "note_off", "time": 5781, "note": 60, "velocity": 108, "channel": 0}, {"type": "note_on", "time": 373, "note": 62, "velocity": 102, "channel": 0}, {"type": "note_off", "time": 1958, "note": 62, "velocity": 102, "channel": 0}, {"type": "note_on", "time": 1398, "note": 63, "velocity": 108, "channel": 0}, {"type": "note_off", "time": 3310, "note": 63, "velocity": 108, "channel": 0}, {"type": "note_on", "time": 419, "note": 63, "velocity": 9, "channel": 0}, {"type": "note_off", "time": 3590, "note": 63, "velocity": 9, "channel": 0}, {"type": "note_on", "time": 279, "note": 66, "velocity": 105, "channel": 0}, {"type": "note_off", "time": 2238, "note": 66, "velocity": 105, "channel": 0}, {"type": "note_on", "time": 606, "note": 65, "velocity": 97, "channel": 0}, {"type": "note_off", "time": 1771, "note": 65, "velocity": 97, "channel": 0}, {"type": "note_on", "time": 326, "note": 66, "velocity": 99, "channel": 0}, {"type": "note_off", "time": 652, "note": 66, "velocity": 99, "channel": 0}, {"type": "note_on", "time": 559, "note": 65, "velocity": 104, "channel": 0}, {"type": "note_off", "time": 2051, "note": 65, "velocity": 104, "channel": 0}, {"type": "note_on", "time": 885, "note": 60, "velocity": 114, "channel": 0}, {"type": "note_off", "time": 3543, "note": 60, "velocity": 114, "channel": 0}, {"type": "note_on", "time": 652, "note": 63, "velocity": 106, "channel": 0}, {"type": "note_off", "time": 6294, "note": 63, "velocity": 106, "channel": 0}, {"type": "note_on", "time": 559, "note": 62, "velocity": 112, "channel": 0}, {"type": "note_off", "time": 4756, "note": 62, "velocity": 112, "channel": 0}, {"type": "note_on", "time": 652, "note": 61, "velocity": 102, "channel": 0}, {"type": "note_off", "time": 9838, "note": 61, "velocity": 102, "channel": 0}, {"type": "note_on", "time": 19770, "note": 56, "velocity": 117, "channel": 0}, {"type": "note_off", "time": 2984, "note": 56, "velocity": 117, "channel": 0}, {"type": "note_on", "time": 279, "note": 57, "velocity": 119, "channel": 0}, {"type": "note_off", "time": 606, "note": 57, "velocity": 119, "channel": 0}, {"type": "note_on", "time": 419, "note": 58, "velocity": 117, "channel": 0}, {"type": "note_off", "time": 792, "note": 58, "velocity": 117, "channel": 0}, {"type": "note_on", "time": 419, "note": 59, "velocity": 117, "channel": 0}, {"type": "note_off", "time": 16739, "note": 59, "velocity": 117, "channel": 0}, {"type": "note_on", "time": 1025, "note": 62, "velocity": 110, "channel": 0}, {"type": "note_off", "time": 1258, "note": 62, "velocity": 110, "channel": 0}, {"type": "note_on", "time": 746, "note": 64, "velocity": 113, "channel": 0}, {"type": "note_off", "time": 1585, "note": 64, "velocity": 113, "channel": 0}, {"type": "note_on", "time": 466, "note": 67, "velocity": 102, "channel": 0}, {"type": "note_off", "time": 1818, "note": 67, "velocity": 102, "channel": 0}, {"type": "note_on", "time": 559, "note": 71, "velocity": 110, "channel": 0}, {"type": "note_off", "time": 1678, "note": 71, "velocity": 110, "channel": 0}, {"type": "note_on", "time": 512, "note": 74, "velocity": 112, "channel": 0}, {"type": "note_off", "time": 4569, "note": 74, "velocity": 112, "channel": 0}, {"type": "note_on", "time": 11424, "note": 67, "velocity": 110, "channel": 0}, {"type": "note_off", "time": 2238, "note": 67, "velocity": 110, "channel": 0}, {"type": "note_on", "time": 419, "note": 68, "velocity": 108, "channel": 0}, {"type": "note_off", "time": 2238, "note": 68, "velocity": 108, "channel": 0}, {"type": "note_on", "time": 699, "note": 70, "velocity": 109, "channel": 0}, {"type": "note_off", "time": 2424, "note": 70, "velocity": 109, "channel": 0}, {"type": "note_on", "time": 979, "note": 67, "velocity": 106, "channel": 0}, {"type": "note_off", "time": 2844, "note": 67, "velocity": 106, "channel": 0}, {"type": "note_on", "time": 466, "note": 66, "velocity": 106, "channel": 0}, {"type": "note_off", "time": 1492, "note": 66, "velocity": 106, "channel": 0}, {"type": "note_on", "time": 373, "note": 65, "velocity": 105, "channel": 0}, {"type": "note_off", "time": 1632, "note": 65, "velocity": 105, "channel": 0}, {"type": "note_on", "time": 559, "note": 63, "velocity": 102, "channel": 0}, {"type": "note_off", "time": 2238, "note": 63, "velocity": 102, "channel": 0}, {"type": "note_on", "time": 652, "note": 61, "velocity": 108, "channel": 0}, {"type": "note_off", "time": 2378, "note": 61, "velocity": 108, "channel": 0}, {"type": "note_on", "time": 233, "note": 58, "velocity": 111, "channel": 0}, {"type": "note_off", "time": 2378, "note": 58, "velocity": 111, "channel": 0}, {"type": "note_on", "time": 2005, "note": 64, "velocity": 107, "channel": 0}, {"type": "note_off", "time": 4289, "note": 64, "velocity": 107, "channel": 0}, {"type": "note_on", "time": 512, "note": 60, "velocity": 113, "channel": 0}, {"type": "note_off", "time": 3310, "note": 60, "velocity": 113, "channel": 0}, {"type": "note_on", "time": 512, "note": 57, "velocity": 103, "channel": 0}, {"type": "note_off", "time": 10538, "note": 57, "velocity": 103, "channel": 0}, {"type": "note_on", "time": 10175, "note": 65, "velocity": 110, "channel": 0}, {"type": "note_off", "time": 4841, "note": 65, "velocity": 110, "channel": 0}, {"type": "note_on", "time": 1193, "note": 64, "velocity": 110, "channel": 0}, {"type": "note_off", "time": 3448, "note": 64, "velocity": 110, "channel": 0}, {"type": "note_on", "time": 729, "note": 63, "velocity": 106, "channel": 0}, {"type": "note_off", "time": 4708, "note": 63, "velocity": 106, "channel": 0}, {"type": "note_on", "time": 1657, "note": 60, "velocity": 113, "channel": 0}, {"type": "note_off", "time": 2984, "note": 60, "velocity": 113, "channel": 0}, {"type": "note_on", "time": 1061, "note": 56, "velocity": 118, "channel": 0}, {"type": "note_off", "time": 3448, "note": 56, "velocity": 118, "channel": 0}, {"type": "note_on", "time": 1061, "note": 54, "velocity": 101, "channel": 0}, {"type": "note_off", "time": 1193, "note": 54, "velocity": 101, "channel": 0}, {"type": "note_on", "time": 1193, "note": 52, "velocity": 104, "channel": 0}, {"type": "note_off", "time": 2453, "note": 52, "velocity": 104, "channel": 0}, {"type": "note_on", "time": 1061, "note": 51, "velocity": 99, "channel": 0}, {"type": "note_off", "time": 6432, "note": 51, "velocity": 99, "channel": 0}, {"type": "note_on", "time": 795, "note": 59, "velocity": 111, "channel": 0}, {"type": "note_off", "time": 3912, "note": 59, "velocity": 111, "channel": 0}, {"type": "note_on", "time": 795, "note": 60, "velocity": 109, "channel": 0}, {"type": "note_off", "time": 2917, "note": 60, "velocity": 109, "channel": 0}, {"type": "note_on", "time": 397, "note": 58, "velocity": 110, "channel": 0}, {"type": "note_off", "time": 928, "note": 58, "velocity": 110, "channel": 0}, {"type": "note_on", "time": 862, "note": 56, "velocity": 112, "channel": 0}, {"type": "note_off", "time": 3315, "note": 56, "velocity": 112, "channel": 0}, {"type": "note_on", "time": 530, "note": 55, "velocity": 99, "channel": 0}, {"type": "note_off", "time": 4443, "note": 55, "velocity": 99, "channel": 0}, {"type": "note_on", "time": 2652, "note": 50, "velocity": 90, "channel": 0}, {"type": "note_off", "time": 3382, "note": 50, "velocity": 90, "channel": 0}, {"type": "note_on", "time": 663, "note": 52, "velocity": 102, "channel": 0}, {"type": "note_off", "time": 6167, "note": 52, "velocity": 102, "channel": 0}, {"type": "note_on", "time": 1193, "note": 53, "velocity": 102, "channel": 0}, {"type": "note_off", "time": 1525, "note": 53, "velocity": 102, "channel": 0}, {"type": "note_on", "time": 1193, "note": 54, "velocity": 104, "channel": 0}, {"type": "note_off", "time": 4774, "note": 54, "velocity": 104, "channel": 0}, {"type": "note_on", "time": 729, "note": 50, "velocity": 91, "channel": 0}, {"type": "note_off", "time": 3315, "note": 50, "velocity": 91, "channel": 0}, {"type": "note_on", "time": 862, "note": 52, "velocity": 100, "channel": 0}, {"type": "note_off", "time": 7560, "note": 52, "velocity": 100, "channel": 0}, {"type": "note_on", "time": 663, "note": 53, "velocity": 96, "channel": 0}, {"type": "note_off", "time": 12334, "note": 53, "velocity": 96, "channel": 0}, {"type": "note_on", "time": 10345, "note": 56, "velocity": 115, "channel": 0}, {"type": "note_off", "time": 2785, "note": 56, "velocity": 115, "channel": 0}, {"type": "note_on", "time": 464, "note": 59, "velocity": 112, "channel": 0}, {"type": "note_off", "time": 1392, "note": 59, "velocity": 112, "channel": 0}, {"type": "note_on", "time": 729, "note": 62, "velocity": 103, "channel": 0}, {"type": "note_off", "time": 1591, "note": 62, "velocity": 103, "channel": 0}, {"type": "note_on", "time": 729, "note": 65, "velocity": 105, "channel": 0}, {"type": "note_off", "time": 2453, "note": 65, "velocity": 105, "channel": 0}, {"type": "note_on", "time": 265, "note": 64, "velocity": 110, "channel": 0}, {"type": "note_off", "time": 1392, "note": 64, "velocity": 110, "channel": 0}, {"type": "note_on", "time": 663, "note": 62, "velocity": 105, "channel": 0}, {"type": "note_off", "time": 1525, "note": 62, "velocity": 105, "channel": 0}, {"type": "note_on", "time": 729, "note": 60, "velocity": 109, "channel": 0}, {"type": "note_off", "time": 1326, "note": 60, "velocity": 109, "channel": 0}, {"type": "note_on", "time": 596, "note": 58, "velocity": 109, "channel": 0}, {"type": "note_off", "time": 1591, "note": 58, "velocity": 109, "channel": 0}, {"type": "note_on", "time": 729, "note": 56, "velocity": 114, "channel": 0}, {"type": "note_off", "time": 2254, "note": 56, "velocity": 114, "channel": 0}, {"type": "note_on", "time": 663, "note": 57, "velocity": 107, "channel": 0}, {"type": "note_off", "time": 10345, "note": 57, "velocity": 107, "channel": 0}, {"type": "note_on", "time": 10279, "note": 52, "velocity": 105, "channel": 0}, {"type": "note_off", "time": 4376, "note": 52, "velocity": 105, "channel": 0}, {"type": "note_on", "time": 1193, "note": 56, "velocity": 122, "channel": 0}, {"type": "note_off", "time": 3382, "note": 56, "velocity": 122, "channel": 0}, {"type": "note_on", "time": 1061, "note": 60, "velocity": 113, "channel": 0}, {"type": "note_off", "time": 4045, "note": 60, "velocity": 113, "channel": 0}, {"type": "note_on", "time": 1989, "note": 63, "velocity": 112, "channel": 0}, {"type": "note_off", "time": 3912, "note": 63, "velocity": 112, "channel": 0}, {"type": "note_on", "time": 530, "note": 61, "velocity": 104, "channel": 0}, {"type": "note_off", "time": 1591, "note": 61, "velocity": 104, "channel": 0}, {"type": "note_on", "time": 663, "note": 62, "velocity": 99, "channel": 0}, {"type": "note_off", "time": 2122, "note": 62, "velocity": 99, "channel": 0}, {"type": "note_on", "time": 1193, "note": 60, "velocity": 107, "channel": 0}, {"type": "note_off", "time": 4111, "note": 60, "velocity": 107, "channel": 0}, {"type": "note_on", "time": 729, "note": 62, "velocity": 104, "channel": 0}, {"type": "note_off", "time": 1525, "note": 62, "velocity": 104, "channel": 0}, {"type": "note_on", "time": 397, "note": 63, "velocity": 97, "channel": 0}, {"type": "note_off", "time": 4177, "note": 63, "velocity": 97, "channel": 0}, {"type": "note_on", "time": 530, "note": 62, "velocity": 96, "channel": 0}, {"type": "note_off", "time": 663, "note": 62, "velocity": 96, "channel": 0}, {"type": "note_on", "time": 331, "note": 63, "velocity": 102, "channel": 0}, {"type": "note_off", "time": 2718, "note": 63, "velocity": 102, "channel": 0}, {"type": "note_on", "time": 729, "note": 62, "velocity": 103, "channel": 0}, {"type": "note_off", "time": 4841, "note": 62, "velocity": 103, "channel": 0}, {"type": "note_on", "time": 1724, "note": 60, "velocity": 110, "channel": 0}, {"type": "note_off", "time": 2652, "note": 60, "velocity": 110, "channel": 0}, {"type": "note_on", "time": 994, "note": 56, "velocity": 113, "channel": 0}, {"type": "note_off", "time": 5769, "note": 56, "velocity": 113, "channel": 0}, {"type": "note_on", "time": 862, "note": 54, "velocity": 94, "channel": 0}, {"type": "note_off", "time": 3315, "note": 54, "velocity": 94, "channel": 0}, {"type": "note_on", "time": 530, "note": 55, "velocity": 105, "channel": 0}, {"type": "note_off", "time": 10875, "note": 55, "velocity": 105, "channel": 0}, {"type": "note_on", "time": 15584, "note": 59, "velocity": 112, "channel": 0}, {"type": "note_off", "time": 3912, "note": 59, "velocity": 112, "channel": 0}, {"type": "note_on", "time": 1127, "note": 62, "velocity": 109, "channel": 0}, {"type": "note_off", "time": 2321, "note": 62, "velocity": 109, "channel": 0}, {"type": "note_on", "time": 928, "note": 66, "velocity": 108, "channel": 0}, {"type": "note_off", "time": 2188, "note": 66, "velocity": 108, "channel": 0}, {"type": "note_on", "time": 1193, "note": 69, "velocity": 99, "channel": 0}, {"type": "note_off", "time": 8422, "note": 69, "velocity": 99, "channel": 0}, {"type": "note_on", "time": 1790, "note": 66, "velocity": 108, "channel": 0}, {"type": "note_off", "time": 1989, "note": 66, "velocity": 108, "channel": 0}, {"type": "note_on", "time": 1260, "note": 62, "velocity": 109, "channel": 0}, {"type": "note_off", "time": 2055, "note": 62, "velocity": 109, "channel": 0}, {"type": "note_on", "time": 928, "note": 58, "velocity": 109, "channel": 0}, {"type": "note_off", "time": 3183, "note": 58, "velocity": 109, "channel": 0}, {"type": "note_on", "time": 898, "note": 67, "velocity": 108, "channel": 0}, {"type": "note_off", "time": 1492, "note": 67, "velocity": 108, "channel": 0}, {"type": "note_on", "time": 326, "note": 68, "velocity": 93, "channel": 0}, {"type": "note_off", "time": 7320, "note": 68, "velocity": 93, "channel": 0}, {"type": "note_on", "time": 885, "note": 65, "velocity": 107, "channel": 0}, {"type": "note_off", "time": 1865, "note": 65, "velocity": 107, "channel": 0}, {"type": "note_on", "time": 1072, "note": 61, "velocity": 114, "channel": 0}, {"type": "note_off", "time": 2844, "note": 61, "velocity": 114, "channel": 0}, {"type": "note_on", "time": 466, "note": 58, "velocity": 108, "channel": 0}, {"type": "note_off", "time": 2611, "note": 58, "velocity": 108, "channel": 0}, {"type": "note_on", "time": 699, "note": 67, "velocity": 102, "channel": 0}, {"type": "note_off", "time": 7786, "note": 67, "velocity": 102, "channel": 0}, {"type": "note_on", "time": 1492, "note": 65, "velocity": 99, "channel": 0}, {"type": "note_off", "time": 2797, "note": 65, "velocity": 99, "channel": 0}, {"type": "note_on", "time": 652, "note": 60, "velocity": 110, "channel": 0}, {"type": "note_off", "time": 4196, "note": 60, "velocity": 110, "channel": 0}, {"type": "note_on", "time": 1165, "note": 57, "velocity": 115, "channel": 0}, {"type": "note_off", "time": 5269, "note": 57, "velocity": 115, "channel": 0}, {"type": "note_on", "time": 5502, "note": 57, "velocity": 124, "channel": 0}, {"type": "note_off", "time": 2517, "note": 57, "velocity": 124, "channel": 0}, {"type": "note_on", "time": 326, "note": 59, "velocity": 115, "channel": 0}, {"type": "note_off", "time": 2051, "note": 59, "velocity": 115, "channel": 0}, {"type": "note_on", "time": 93, "note": 60, "velocity": 113, "channel": 0}, {"type": "note_off", "time": 2471, "note": 60, "velocity": 113, "channel": 0}, {"type": "note_on", "time": 326, "note": 62, "velocity": 104, "channel": 0}, {"type": "note_off", "time": 1025, "note": 62, "velocity": 104, "channel": 0}, {"type": "note_on", "time": 746, "note": 64, "velocity": 105, "channel": 0}, {"type": "note_off", "time": 1352, "note": 64, "velocity": 105, "channel": 0}, {"type": "note_on", "time": 419, "note": 65, "velocity": 99, "channel": 0}, {"type": "note_off", "time": 1119, "note": 65, "velocity": 99, "channel": 0}, {"type": "note_on", "time": 373, "note": 66, "velocity": 100, "channel": 0}, {"type": "note_off", "time": 1445, "note": 66, "velocity": 100, "channel": 0}, {"type": "note_on", "time": 652, "note": 67, "velocity": 108, "channel": 0}, {"type": "note_off", "time": 4709, "note": 67, "velocity": 108, "channel": 0}, {"type": "note_on", "time": 885, "note": 64, "velocity": 112, "channel": 0}, {"type": "note_off", "time": 3497, "note": 64, "velocity": 112, "channel": 0}, {"type": "note_on", "time": 652, "note": 60, "velocity": 113, "channel": 0}, {"type": "note_off", "time": 1678, "note": 60, "velocity": 113, "channel": 0}, {"type": "note_on", "time": 652, "note": 57, "velocity": 113, "channel": 0}, {"type": "note_off", "time": 2611, "note": 57, "velocity": 113, "channel": 0}, {"type": "note_on", "time": 559, "note": 64, "velocity": 107, "channel": 0}, {"type": "note_off", "time": 1818, "note": 64, "velocity": 107, "channel": 0}, {"type": "note_on", "time": 512, "note": 65, "velocity": 101, "channel": 0}, {"type": "note_off", "time": 1911, "note": 65, "velocity": 101, "channel": 0}, {"type": "note_on", "time": 652, "note": 66, "velocity": 104, "channel": 0}, {"type": "note_off", "time": 1818, "note": 66, "velocity": 104, "channel": 0}, {"type": "note_on", "time": 1072, "note": 64, "velocity": 106, "channel": 0}, {"type": "note_off", "time": 1398, "note": 64, "velocity": 106, "channel": 0}, {"type": "note_on", "time": 279, "note": 63, "velocity": 90, "channel": 0}, {"type": "note_off", "time": 746, "note": 63, "velocity": 90, "channel": 0}, {"type": "note_on", "time": 792, "note": 57, "velocity": 112, "channel": 0}, {"type": "note_off", "time": 2564, "note": 57, "velocity": 112, "channel": 0}, {"type": "note_on", "time": 746, "note": 62, "velocity": 97, "channel": 0}, {"type": "note_off", "time": 5968, "note": 62, "velocity": 97, "channel": 0}, {"type": "note_on", "time": 1025, "note": 60, "velocity": 107, "channel": 0}, {"type": "note_off", "time": 1911, "note": 60, "velocity": 107, "channel": 0}, {"type": "note_on", "time": 233, "note": 62, "velocity": 102, "channel": 0}, {"type": "note_off", "time": 2144, "note": 62, "velocity": 102, "channel": 0}, {"type": "note_on", "time": 746, "note": 59, "velocity": 105, "channel": 0}, {"type": "note_off", "time": 6854, "note": 59, "velocity": 105, "channel": 0}, {"type": "note_on", "time": 13848, "note": 62, "velocity": 111, "channel": 0}, {"type": "note_off", "time": 4895, "note": 62, "velocity": 111, "channel": 0}, {"type": "note_on", "time": 652, "note": 65, "velocity": 108, "channel": 0}, {"type": "note_off", "time": 3170, "note": 65, "velocity": 108, "channel": 0}, {"type": "note_on", "time": 1196, "note": 67, "velocity": 109, "channel": 0}, {"type": "note_off", "time": 5735, "note": 67, "velocity": 109, "channel": 0}, {"type": "note_on", "time": 896, "note": 68, "velocity": 108, "channel": 0}, {"type": "note_off", "time": 2984, "note": 68, "velocity": 108, "channel": 0}, {"type": "note_on", "time": 596, "note": 67, "velocity": 102, "channel": 0}, {"type": "note_off", "time": 4569, "note": 67, "velocity": 102, "channel": 0}, {"type": "note_on", "time": 1273, "note": 63, "velocity": 105, "channel": 0}, {"type": "note_off", "time": 4103, "note": 63, "velocity": 105, "channel": 0}, {"type": "note_on", "time": 1212, "note": 55, "velocity": 101, "channel": 0}, {"type": "note_off", "time": 4429, "note": 55, "velocity": 101, "channel": 0}, {"type": "note_on", "time": 606, "note": 57, "velocity": 124, "channel": 0}, {"type": "note_off", "time": 1632, "note": 57, "velocity": 124, "channel": 0}, {"type": "note_on", "time": 652, "note": 58, "velocity": 115, "channel": 0}, {"type": "note_off", "time": 2098, "note": 58, "velocity": 115, "channel": 0}, {"type": "note_on", "time": 326, "note": 60, "velocity": 114, "channel": 0}, {"type": "note_off", "time": 1492, "note": 60, "velocity": 114, "channel": 0}, {"type": "note_on", "time": 466, "note": 62, "velocity": 106, "channel": 0}, {"type": "note_off", "time": 932, "note": 62, "velocity": 106, "channel": 0}, {"type": "note_on", "time": 279, "note": 64, "velocity": 99, "channel": 0}, {"type": "note_off", "time": 885, "note": 64, "velocity": 99, "channel": 0}, {"type": "note_on", "time": 512, "note": 66, "velocity": 95, "channel": 0}, {"type": "note_off", "time": 746, "note": 66, "velocity": 95, "channel": 0}, {"type": "note_on", "time": 326, "note": 68, "velocity": 97, "channel": 0}, {"type": "note_off", "time": 1492, "note": 68, "velocity": 97, "channel": 0}, {"type": "note_on", "time": 512, "note": 70, "velocity": 106, "channel": 0}, {"type": "note_off", "time": 1585, "note": 70, "velocity": 106, "channel": 0}, {"type": "note_on", "time": 512, "note": 72, "velocity": 103, "channel": 0}, {"type": "note_off", "time": 5455, "note": 72, "velocity": 103, "channel": 0}, {"type": "note_on", "time": 1119, "note": 69, "velocity": 105, "channel": 0}, {"type": "note_off", "time": 2471, "note": 69, "velocity": 105, "channel": 0}, {"type": "note_on", "time": 558, "note": 70, "velocity": 104, "channel": 0}, {"type": "note_off", "time": 6300, "note": 70, "velocity": 104, "channel": 0}, {"type": "note_on", "time": 5591, "note": 53, "velocity": 115, "channel": 0}, {"type": "note_off", "time": 4756, "note": 53, "velocity": 115, "channel": 0}, {"type": "note_on", "time": 1398, "note": 58, "velocity": 115, "channel": 0}, {"type": "note_off", "time": 3310, "note": 58, "velocity": 115, "channel": 0}, {"type": "note_on", "time": 652, "note": 60, "velocity": 116, "channel": 0}, {"type": "note_off", "time": 4849, "note": 60, "velocity": 116, "channel": 0}, {"type": "note_on", "time": 466, "note": 61, "velocity": 113, "channel": 0}, {"type": "note_off", "time": 4149, "note": 61, "velocity": 113, "channel": 0}, {"type": "note_on", "time": 699, "note": 63, "velocity": 102, "channel": 0}, {"type": "note_off", "time": 5129, "note": 63, "velocity": 102, "channel": 0}, {"type": "note_on", "time": 960, "note": 65, "velocity": 104, "channel": 0}, {"type": "note_off", "time": 3450, "note": 65, "velocity": 104, "channel": 0}, {"type": "note_on", "time": 528, "note": 66, "velocity": 107, "channel": 0}, {"type": "note_off", "time": 4383, "note": 66, "velocity": 107, "channel": 0}, {"type": "note_on", "time": 1495, "note": 63, "velocity": 102, "channel": 0}, {"type": "note_off", "time": 3590, "note": 63, "velocity": 102, "channel": 0}, {"type": "note_on", "time": 746, "note": 61, "velocity": 112, "channel": 0}, {"type": "note_off", "time": 2797, "note": 61, "velocity": 112, "channel": 0}, {"type": "note_on", "time": 699, "note": 60, "velocity": 114, "channel": 0}, {"type": "note_off", "time": 1398, "note": 60, "velocity": 114, "channel": 0}, {"type": "note_on", "time": 979, "note": 58, "velocity": 111, "channel": 0}, {"type": "note_off", "time": 1631, "note": 58, "velocity": 111, "channel": 0}, {"type": "note_on", "time": 839, "note": 57, "velocity": 118, "channel": 0}, {"type": "note_off", "time": 4336, "note": 57, "velocity": 118, "channel": 0}, {"type": "note_on", "time": 3683, "note": 65, "velocity": 92, "channel": 0}, {"type": "note_off", "time": 9792, "note": 65, "velocity": 92, "channel": 0}, {"type": "note_on", "time": 2564, "note": 63, "velocity": 96, "channel": 0}, {"type": "note_off", "time": 2005, "note": 63, "velocity": 96, "channel": 0}, {"type": "note_on", "time": 746, "note": 61, "velocity": 106, "channel": 0}, {"type": "note_off", "time": 5921, "note": 61, "velocity": 106, "channel": 0}, {"type": "note_on", "time": 466, "note": 58, "velocity": 102, "channel": 0}, {"type": "note_off", "time": 11330, "note": 58, "velocity": 102, "channel": 0}, {"type": "note_on", "time": 29982, "note": 51, "velocity": 106, "channel": 0}, {"type": "note_off", "time": 2797, "note": 51, "velocity": 106, "channel": 0}, {"type": "note_on", "time": 559, "note": 53, "velocity": 103, "channel": 0}, {"type": "note_off", "time": 14128, "note": 53, "velocity": 103, "channel": 0}, {"type": "note_on", "time": 2144, "note": 56, "velocity": 121, "channel": 0}, {"type": "note_off", "time": 3823, "note": 56, "velocity": 121, "channel": 0}, {"type": "note_on", "time": 1025, "note": 60, "velocity": 111, "channel": 0}, {"type": "note_off", "time": 4569, "note": 60, "velocity": 111, "channel": 0}, {"type": "note_on", "time": 1398, "note": 63, "velocity": 105, "channel": 0}, {"type": "note_off", "time": 3543, "note": 63, "velocity": 105, "channel": 0}, {"type": "note_on", "time": 5642, "note": 66, "velocity": 106, "channel": 0}, {"type": "note_off", "time": 2331, "note": 66, "velocity": 106, "channel": 0}, {"type": "note_on", "time": 699, "note": 64, "velocity": 109, "channel": 0}, {"type": "note_off", "time": 2191, "note": 64, "velocity": 109, "channel": 0}, {"type": "note_on", "time": 839, "note": 56, "velocity": 122, "channel": 0}, {"type": "note_off", "time": 2611, "note": 56, "velocity": 122, "channel": 0}, {"type": "note_on", "time": 559, "note": 59, "velocity": 112, "channel": 0}, {"type": "note_off", "time": 1258, "note": 59, "velocity": 112, "channel": 0}, {"type": "note_on", "time": 746, "note": 63, "velocity": 101, "channel": 0}, {"type": "note_off", "time": 2844, "note": 63, "velocity": 101, "channel": 0}, {"type": "note_on", "time": 512, "note": 61, "velocity": 104, "channel": 0}, {"type": "note_off", "time": 1305, "note": 61, "velocity": 104, "channel": 0}, {"type": "note_on", "time": 606, "note": 64, "velocity": 102, "channel": 0}, {"type": "note_off", "time": 2005, "note": 64, "velocity": 102, "channel": 0}, {"type": "note_on", "time": 652, "note": 63, "velocity": 95, "channel": 0}, {"type": "note_off", "time": 1305, "note": 63, "velocity": 95, "channel": 0}, {"type": "note_on", "time": 606, "note": 55, "velocity": 100, "channel": 0}, {"type": "note_off", "time": 2751, "note": 55, "velocity": 100, "channel": 0}, {"type": "note_on", "time": 279, "note": 58, "velocity": 105, "channel": 0}, {"type": "note_off", "time": 1538, "note": 58, "velocity": 105, "channel": 0}, {"type": "note_on", "time": 419, "note": 62, "velocity": 111, "channel": 0}, {"type": "note_off", "time": 2937, "note": 62, "velocity": 111, "channel": 0}, {"type": "note_on", "time": 512, "note": 61, "velocity": 102, "channel": 0}, {"type": "note_off", "time": 1258, "note": 61, "velocity": 102, "channel": 0}, {"type": "note_on", "time": 186, "note": 64, "velocity": 103, "channel": 0}, {"type": "note_off", "time": 1865, "note": 64, "velocity": 103, "channel": 0}, {"type": "note_on", "time": 606, "note": 62, "velocity": 102, "channel": 0}, {"type": "note_off", "time": 1631, "note": 62, "velocity": 102, "channel": 0}, {"type": "note_on", "time": 885, "note": 54, "velocity": 108, "channel": 0}, {"type": "note_off", "time": 2611, "note": 54, "velocity": 108, "channel": 0}, {"type": "note_on", "time": 652, "note": 57, "velocity": 119, "channel": 0}, {"type": "note_off", "time": 1258, "note": 57, "velocity": 119, "channel": 0}, {"type": "note_on", "time": 606, "note": 61, "velocity": 107, "channel": 0}, {"type": "note_off", "time": 2564, "note": 61, "velocity": 107, "channel": 0}, {"type": "note_on", "time": 373, "note": 58, "velocity": 106, "channel": 0}, {"type": "note_off", "time": 1538, "note": 58, "velocity": 106, "channel": 0}, {"type": "note_on", "time": 373, "note": 63, "velocity": 103, "channel": 0}, {"type": "note_off", "time": 2098, "note": 63, "velocity": 103, "channel": 0}, {"type": "note_on", "time": 932, "note": 61, "velocity": 102, "channel": 0}, {"type": "note_off", "time": 1958, "note": 61, "velocity": 102, "channel": 0}, {"type": "note_on", "time": 373, "note": 53, "velocity": 107, "channel": 0}, {"type": "note_off", "time": 2611, "note": 53, "velocity": 107, "channel": 0}, {"type": "note_on", "time": 419, "note": 56, "velocity": 108, "channel": 0}, {"type": "note_off", "time": 2284, "note": 56, "velocity": 108, "channel": 0}, {"type": "note_on", "time": 512, "note": 60, "velocity": 114, "channel": 0}, {"type": "note_off", "time": 1958, "note": 60, "velocity": 114, "channel": 0}, {"type": "note_on", "time": 279, "note": 61, "velocity": 107, "channel": 0}, {"type": "note_off", "time": 792, "note": 61, "velocity": 107, "channel": 0}, {"type": "note_on", "time": 466, "note": 62, "velocity": 108, "channel": 0}, {"type": "note_off", "time": 1632, "note": 62, "velocity": 108, "channel": 0}, {"type": "note_on", "time": 559, "note": 63, "velocity": 101, "channel": 0}, {"type": "note_off", "time": 3497, "note": 63, "velocity": 101, "channel": 0}, {"type": "note_on", "time": 746, "note": 59, "velocity": 110, "channel": 0}, {"type": "note_off", "time": 1445, "note": 59, "velocity": 110, "channel": 0}, {"type": "note_on", "time": 93, "note": 60, "velocity": 112, "channel": 0}, {"type": "note_off", "time": 3077, "note": 60, "velocity": 112, "channel": 0}, {"type": "note_on", "time": 1240, "note": 55, "velocity": 94, "channel": 0}, {"type": "note_off", "time": 23674, "note": 55, "velocity": 94, "channel": 0}, {"type": "note_on", "time": 26990, "note": 66, "velocity": 87, "channel": 0}, {"type": "note_off", "time": 729, "note": 66, "velocity": 87, "channel": 0}, {"type": "note_on", "time": 464, "note": 67, "velocity": 110, "channel": 0}, {"type": "note_off", "time": 3315, "note": 67, "velocity": 110, "channel": 0}, {"type": "note_on", "time": 596, "note": 63, "velocity": 101, "channel": 0}, {"type": "note_off", "time": 4443, "note": 63, "velocity": 101, "channel": 0}, {"type": "note_on", "time": 1591, "note": 65, "velocity": 110, "channel": 0}, {"type": "note_off", "time": 2652, "note": 65, "velocity": 110, "channel": 0}, {"type": "note_on", "time": 862, "note": 66, "velocity": 106, "channel": 0}, {"type": "note_off", "time": 663, "note": 66, "velocity": 106, "channel": 0}, {"type": "note_on", "time": 331, "note": 67, "velocity": 102, "channel": 0}, {"type": "note_off", "time": 2055, "note": 67, "velocity": 102, "channel": 0}, {"type": "note_on", "time": 596, "note": 66, "velocity": 104, "channel": 0}, {"type": "note_off", "time": 1458, "note": 66, "velocity": 104, "channel": 0}, {"type": "note_on", "time": 1061, "note": 63, "velocity": 103, "channel": 0}, {"type": "note_off", "time": 3249, "note": 63, "velocity": 103, "channel": 0}, {"type": "note_on", "time": 862, "note": 65, "velocity": 103, "channel": 0}, {"type": "note_off", "time": 4509, "note": 65, "velocity": 103, "channel": 0}, {"type": "note_on", "time": 1193, "note": 63, "velocity": 103, "channel": 0}, {"type": "note_off", "time": 3780, "note": 63, "velocity": 103, "channel": 0}, {"type": "note_on", "time": 1193, "note": 60, "velocity": 114, "channel": 0}, {"type": "note_off", "time": 4045, "note": 60, "velocity": 114, "channel": 0}, {"type": "note_on", "time": 2122, "note": 56, "velocity": 120, "channel": 0}, {"type": "note_off", "time": 3382, "note": 56, "velocity": 120, "channel": 0}, {"type": "note_on", "time": 1127, "note": 53, "velocity": 108, "channel": 0}, {"type": "note_off", "time": 4774, "note": 53, "velocity": 108, "channel": 0}, {"type": "note_on", "time": 928, "note": 54, "velocity": 112, "channel": 0}, {"type": "note_off", "time": 3116, "note": 54, "velocity": 112, "channel": 0}, {"type": "note_on", "time": 530, "note": 56, "velocity": 102, "channel": 0}, {"type": "note_off", "time": 2055, "note": 56, "velocity": 102, "channel": 0}, {"type": "note_on", "time": 1260, "note": 59, "velocity": 112, "channel": 0}, {"type": "note_off", "time": 1790, "note": 59, "velocity": 112, "channel": 0}, {"type": "note_on", "time": 1127, "note": 62, "velocity": 107, "channel": 0}, {"type": "note_off", "time": 2785, "note": 62, "velocity": 107, "channel": 0}, {"type": "note_on", "time": 1392, "note": 67, "velocity": 101, "channel": 0}, {"type": "note_off", "time": 2321, "note": 67, "velocity": 101, "channel": 0}, {"type": "note_on", "time": 663, "note": 65, "velocity": 98, "channel": 0}, {"type": "note_off", "time": 1657, "note": 65, "velocity": 98, "channel": 0}, {"type": "note_on", "time": 928, "note": 62, "velocity": 103, "channel": 0}, {"type": "note_off", "time": 3050, "note": 62, "velocity": 103, "channel": 0}, {"type": "note_on", "time": 795, "note": 63, "velocity": 100, "channel": 0}, {"type": "note_off", "time": 1127, "note": 63, "velocity": 100, "channel": 0}, {"type": "note_on", "time": 397, "note": 64, "velocity": 93, "channel": 0}, {"type": "note_off", "time": 6167, "note": 64, "velocity": 93, "channel": 0}, {"type": "note_on", "time": 3780, "note": 57, "velocity": 118, "channel": 0}, {"type": "note_off", "time": 1657, "note": 57, "velocity": 118, "channel": 0}, {"type": "note_on", "time": 331, "note": 58, "velocity": 114, "channel": 0}, {"type": "note_off", "time": 3315, "note": 58, "velocity": 114, "channel": 0}, {"type": "note_on", "time": 1458, "note": 61, "velocity": 112, "channel": 0}, {"type": "note_off", "time": 3116, "note": 61, "velocity": 112, "channel": 0}, {"type": "note_on", "time": 862, "note": 60, "velocity": 112, "channel": 0}, {"type": "note_off", "time": 1525, "note": 60, "velocity": 112, "channel": 0}, {"type": "note_on", "time": 1127, "note": 58, "velocity": 108, "channel": 0}, {"type": "note_off", "time": 2254, "note": 58, "velocity": 108, "channel": 0}, {"type": "note_on", "time": 1061, "note": 57, "velocity": 117, "channel": 0}, {"type": "note_off", "time": 2785, "note": 57, "velocity": 117, "channel": 0}, {"type": "note_on", "time": 729, "note": 60, "velocity": 112, "channel": 0}, {"type": "note_off", "time": 2718, "note": 60, "velocity": 112, "channel": 0}, {"type": "note_on", "time": 596, "note": 61, "velocity": 107, "channel": 0}, {"type": "note_off", "time": 1127, "note": 61, "velocity": 107, "channel": 0}, {"type": "note_on", "time": 1061, "note": 63, "velocity": 91, "channel": 0}, {"type": "note_off", "time": 1193, "note": 63, "velocity": 91, "channel": 0}, {"type": "note_on", "time": 1061, "note": 65, "velocity": 95, "channel": 0}, {"type": "note_off", "time": 4443, "note": 65, "velocity": 95, "channel": 0}, {"type": "note_on", "time": 464, "note": 64, "velocity": 94, "channel": 0}, {"type": "note_off", "time": 928, "note": 64, "velocity": 94, "channel": 0}, {"type": "note_on", "time": 397, "note": 63, "velocity": 96, "channel": 0}, {"type": "note_off", "time": 1856, "note": 63, "velocity": 96, "channel": 0}, {"type": "note_on", "time": 663, "note": 62, "velocity": 91, "channel": 0}, {"type": "note_off", "time": 16181, "note": 62, "velocity": 91, "channel": 0}, {"type": "note_on", "time": 8156, "note": 68, "velocity": 112, "channel": 0}, {"type": "note_off", "time": 2453, "note": 68, "velocity": 112, "channel": 0}, {"type": "note_on", "time": 596, "note": 70, "velocity": 110, "channel": 0}, {"type": "note_off", "time": 6101, "note": 70, "velocity": 110, "channel": 0}, {"type": "note_on", "time": 596, "note": 68, "velocity": 107, "channel": 0}, {"type": "note_off", "time": 862, "note": 68, "velocity": 107, "channel": 0}, {"type": "note_on", "time": 464, "note": 70, "velocity": 110, "channel": 0}, {"type": "note_off", "time": 596, "note": 70, "velocity": 110, "channel": 0}, {"type": "note_on", "time": 663, "note": 68, "velocity": 102, "channel": 0}, {"type": "note_off", "time": 1260, "note": 68, "velocity": 102, "channel": 0}, {"type": "note_on", "time": 729, "note": 64, "velocity": 106, "channel": 0}, {"type": "note_off", "time": 4575, "note": 64, "velocity": 106, "channel": 0}, {"type": "note_on", "time": 1989, "note": 56, "velocity": 110, "channel": 0}, {"type": "note_off", "time": 1724, "note": 56, "velocity": 110, "channel": 0}, {"type": "note_on", "time": 464, "note": 57, "velocity": 115, "channel": 0}, {"type": "note_off", "time": 928, "note": 57, "velocity": 115, "channel": 0}, {"type": "note_on", "time": 397, "note": 58, "velocity": 112, "channel": 0}, {"type": "note_off", "time": 4177, "note": 58, "velocity": 112, "channel": 0}, {"type": "note_on", "time": 530, "note": 56, "velocity": 116, "channel": 0}, {"type": "note_off", "time": 1127, "note": 56, "velocity": 116, "channel": 0}, {"type": "note_on", "time": 331, "note": 58, "velocity": 111, "channel": 0}, {"type": "note_off", "time": 1061, "note": 58, "velocity": 111, "channel": 0}, {"type": "note_on", "time": 862, "note": 56, "velocity": 108, "channel": 0}, {"type": "note_off", "time": 1392, "note": 56, "velocity": 108, "channel": 0}, {"type": "note_on", "time": 1392, "note": 52, "velocity": 102, "channel": 0}, {"type": "note_off", "time": 7626, "note": 52, "velocity": 102, "channel": 0}, {"type": "note_on", "time": 862, "note": 54, "velocity": 102, "channel": 0}, {"type": "note_off", "time": 1061, "note": 54, "velocity": 102, "channel": 0}, {"type": "note_on", "time": 464, "note": 55, "velocity": 107, "channel": 0}, {"type": "note_off", "time": 397, "note": 55, "velocity": 107, "channel": 0}, {"type": "note_on", "time": 265, "note": 56, "velocity": 116, "channel": 0}, {"type": "note_off", "time": 3713, "note": 56, "velocity": 116, "channel": 0}, {"type": "note_on", "time": 530, "note": 52, "velocity": 102, "channel": 0}, {"type": "note_off", "time": 3581, "note": 52, "velocity": 102, "channel": 0}, {"type": "note_on", "time": 397, "note": 53, "velocity": 97, "channel": 0}, {"type": "note_off", "time": 13329, "note": 53, "velocity": 97, "channel": 0}, {"type": "note_on", "time": 4509, "note": 55, "velocity": 100, "channel": 0}, {"type": "note_off", "time": 3315, "note": 55, "velocity": 100, "channel": 0}, {"type": "note_on", "time": 1061, "note": 58, "velocity": 112, "channel": 0}, {"type": "note_off", "time": 4575, "note": 58, "velocity": 112, "channel": 0}, {"type": "note_on", "time": 1458, "note": 56, "velocity": 119, "channel": 0}, {"type": "note_off", "time": 3978, "note": 56, "velocity": 119, "channel": 0}, {"type": "note_on", "time": 862, "note": 55, "velocity": 98, "channel": 0}, {"type": "note_off", "time": 4575, "note": 55, "velocity": 98, "channel": 0}, {"type": "note_on", "time": 1260, "note": 56, "velocity": 118, "channel": 0}, {"type": "note_off", "time": 3978, "note": 56, "velocity": 118, "channel": 0}, {"type": "note_on", "time": 1061, "note": 58, "velocity": 115, "channel": 0}, {"type": "note_off", "time": 4045, "note": 58, "velocity": 115, "channel": 0}, {"type": "note_on", "time": 994, "note": 60, "velocity": 110, "channel": 0}, {"type": "note_off", "time": 3780, "note": 60, "velocity": 110, "channel": 0}, {"type": "note_on", "time": 596, "note": 61, "velocity": 111, "channel": 0}, {"type": "note_off", "time": 2387, "note": 61, "velocity": 111, "channel": 0}, {"type": "note_on", "time": 795, "note": 62, "velocity": 105, "channel": 0}, {"type": "note_off", "time": 2851, "note": 62, "velocity": 105, "channel": 0}, {"type": "note_on", "time": 331, "note": 63, "velocity": 99, "channel": 0}, {"type": "note_off", "time": 2387, "note": 63, "velocity": 99, "channel": 0}, {"type": "note_on", "time": 1326, "note": 60, "velocity": 92, "channel": 0}, {"type": "note_off", "time": 16777, "note": 60, "velocity": 92, "channel": 0}, {"type": "note_on", "time": 8156, "note": 63, "velocity": 108, "channel": 0}, {"type": "note_off", "time": 2387, "note": 63, "velocity": 108, "channel": 0}, {"type": "note_on", "time": 994, "note": 60, "velocity": 114, "channel": 0}, {"type": "note_off", "time": 3514, "note": 60, "velocity": 114, "channel": 0}, {"type": "note_on", "time": 265, "note": 61, "velocity": 110, "channel": 0}, {"type": "note_off", "time": 1326, "note": 61, "velocity": 110, "channel": 0}, {"type": "note_on", "time": 1127, "note": 62, "velocity": 107, "channel": 0}, {"type": "note_off", "time": 1790, "note": 62, "velocity": 107, "channel": 0}, {"type": "note_on", "time": 795, "note": 63, "velocity": 97, "channel": 0}, {"type": "note_off", "time": 2586, "note": 63, "velocity": 97, "channel": 0}, {"type": "note_on", "time": 397, "note": 62, "velocity": 102, "channel": 0}, {"type": "note_off", "time": 397, "note": 62, "velocity": 102, "channel": 0}, {"type": "note_on", "time": 198, "note": 64, "velocity": 104, "channel": 0}, {"type": "note_off", "time": 2917, "note": 64, "velocity": 104, "channel": 0}, {"type": "note_on", "time": 596, "note": 61, "velocity": 106, "channel": 0}, {"type": "note_off", "time": 2387, "note": 61, "velocity": 106, "channel": 0}, {"type": "note_on", "time": 331, "note": 58, "velocity": 114, "channel": 0}, {"type": "note_off", "time": 2188, "note": 58, "velocity": 114, "channel": 0}, {"type": "note_on", "time": 862, "note": 55, "velocity": 101, "channel": 0}, {"type": "note_off", "time": 1856, "note": 55, "velocity": 101, "channel": 0}, {"type": "note_on", "time": 1127, "note": 52, "velocity": 101, "channel": 0}, {"type": "note_off", "time": 2718, "note": 52, "velocity": 101, "channel": 0}, {"type": "note_on", "time": 2453, "note": 53, "velocity": 110, "channel": 0}, {"type": "note_off", "time": 2984, "note": 53, "velocity": 110, "channel": 0}, {"type": "note_on", "time": 862, "note": 51, "velocity": 89, "channel": 0}, {"type": "note_off", "time": 2718, "note": 51, "velocity": 89, "channel": 0}, {"type": "note_on", "time": 397, "note": 52, "velocity": 94, "channel": 0}, {"type": "note_off", "time": 3647, "note": 52, "velocity": 94, "channel": 0}, {"type": "note_on", "time": 1525, "note": 58, "velocity": 109, "channel": 0}, {"type": "note_off", "time": 3183, "note": 58, "velocity": 109, "channel": 0}, {"type": "note_on", "time": 729, "note": 60, "velocity": 106, "channel": 0}, {"type": "note_off", "time": 1790, "note": 60, "velocity": 106, "channel": 0}, {"type": "note_on", "time": 663, "note": 61, "velocity": 108, "channel": 0}, {"type": "note_off", "time": 2520, "note": 61, "velocity": 108, "channel": 0}, {"type": "note_on", "time": 1061, "note": 58, "velocity": 108, "channel": 0}, {"type": "note_off", "time": 1657, "note": 58, "velocity": 108, "channel": 0}, {"type": "note_on", "time": 928, "note": 55, "velocity": 101, "channel": 0}, {"type": "note_off", "time": 1525, "note": 55, "velocity": 101, "channel": 0}, {"type": "note_on", "time": 994, "note": 58, "velocity": 109, "channel": 0}, {"type": "note_off", "time": 1989, "note": 58, "velocity": 109, "channel": 0}, {"type": "note_on", "time": 663, "note": 60, "velocity": 104, "channel": 0}, {"type": "note_off", "time": 2055, "note": 60, "velocity": 104, "channel": 0}, {"type": "note_on", "time": 397, "note": 61, "velocity": 107, "channel": 0}, {"type": "note_off", "time": 1193, "note": 61, "velocity": 107, "channel": 0}, {"type": "note_on", "time": 663, "note": 62, "velocity": 95, "channel": 0}, {"type": "note_off", "time": 1989, "note": 62, "velocity": 95, "channel": 0}, {"type": "note_on", "time": 265, "note": 63, "velocity": 98, "channel": 0}, {"type": "note_off", "time": 4907, "note": 63, "velocity": 98, "channel": 0}, {"type": "note_on", "time": 2851, "note": 60, "velocity": 83, "channel": 0}, {"type": "note_off", "time": 6830, "note": 60, "velocity": 83, "channel": 0}, {"type": "note_on", "time": 6963, "note": 53, "velocity": 113, "channel": 0}, {"type": "note_off", "time": 3647, "note": 53, "velocity": 113, "channel": 0}, {"type": "note_on", "time": 928, "note": 52, "velocity": 106, "channel": 0}, {"type": "note_off", "time": 2387, "note": 52, "velocity": 106, "channel": 0}, {"type": "note_on", "time": 928, "note": 51, "velocity": 100, "channel": 0}, {"type": "note_off", "time": 3514, "note": 51, "velocity": 100, "channel": 0}, {"type": "note_on", "time": 729, "note": 53, "velocity": 108, "channel": 0}, {"type": "note_off", "time": 2652, "note": 53, "velocity": 108, "channel": 0}, {"type": "note_on", "time": 928, "note": 51, "velocity": 94, "channel": 0}, {"type": "note_off", "time": 2586, "note": 51, "velocity": 94, "channel": 0}, {"type": "note_on", "time": 265, "note": 53, "velocity": 104, "channel": 0}, {"type": "note_off", "time": 4907, "note": 53, "velocity": 104, "channel": 0}, {"type": "note_on", "time": 1591, "note": 58, "velocity": 104, "channel": 0}, {"type": "note_off", "time": 2321, "note": 58, "velocity": 104, "channel": 0}, {"type": "note_on", "time": 1260, "note": 53, "velocity": 107, "channel": 0}, {"type": "note_off", "time": 3050, "note": 53, "velocity": 107, "channel": 0}, {"type": "note_on", "time": 862, "note": 51, "velocity": 93, "channel": 0}, {"type": "note_off", "time": 1856, "note": 51, "velocity": 93, "channel": 0}, {"type": "note_on", "time": 663, "note": 53, "velocity": 111, "channel": 0}, {"type": "note_off", "time": 4708, "note": 53, "velocity": 111, "channel": 0}, {"type": "note_on", "time": 928, "note": 58, "velocity": 102, "channel": 0}, {"type": "note_off", "time": 2321, "note": 58, "velocity": 102, "channel": 0}, {"type": "note_on", "time": 1914, "note": 53, "velocity": 9, "channel": 0}, {"type": "note_off", "time": 80387, "note": 53, "velocity": 9, "channel": 0}, {"type": "end_of_track", "time": 0}]]}