{"ticks_per_beat": 2520, "tracks": [[{"type": "track_name", "name": "Melody", "time": 0}, {"type": "set_tempo", "tempo": 458015, "time": 0}, {"type": "key_signature", "key": "Eb", "time": 0}, {"type": "time_signature", "numerator": 4, "denominator": 4, "clocks_per_click": 24, "notated_32nd_notes_per_beat": 8, "time": 0}, {"type": "note_on", "time": 16236, "note": 58, "velocity": 115, "channel": 0}, {"type": "note_off", "time": 853, "note": 58, "velocity": 115, "channel": 0}, {"type": "note_on", "time": 22, "note": 61, "velocity": 122, "channel": 0}, {"type": "note_off", "time": 1459, "note": 61, "velocity": 122, "channel": 0}, {"type": "note_on", "time": 853, "note": 63, "velocity": 124, "channel": 0}, {"type": "note_off", "time": 1437, "note": 63, "velocity": 124, "channel": 0}, {"type": "note_on", "time": 538, "note": 63, "velocity": 122, "channel": 0}, {"type": "note_off", "time": 1302, "note": 63, "velocity": 122, "channel": 0}, {"type": "note_on", "time": 359, "note": 63, "velocity": 124, "channel": 0}, {"type": "note_off", "time": 763, "note": 63, "velocity": 124, "channel": 0}, {"type": "note_on", "time": 741, "note": 63, "velocity": 123, "channel": 0}, {"type": "note_off", "time": 1594, "note": 63, "velocity": 123, "channel": 0}, {"type": "note_on", "time": 9701, "note": 58, "velocity": 120, "channel": 0}, {"type": "note_off", "time": 628, "note": 58, "velocity": 120, "channel": 0}, {"type": "note_on", "time": 538, "note": 61, "velocity": 119, "channel": 0}, {"type": "note_off", "time": 853, "note": 61, "velocity": 119, "channel": 0}, {"type": "note_on", "time": 606, "note": 65, "velocity": 123, "channel": 0}, {"type": "note_off", "time": 808, "note": 65, "velocity": 123, "channel": 0}, {"type": "note_on", "time": 1086, "note": 63, "velocity": 123, "channel": 0}, {"type": "note_off", "time": 926, "note": 63, "velocity": 123, "channel": 0}, {"type": "note_on", "time": 942, "note": 63, "velocity": 123, "channel": 0}, {"type": "note_off", "time": 2203, "note": 63, "velocity": 123, "channel": 0}, {"type": "note_on", "time": 335, "note": 61, "velocity": 121, "channel": 0}, {"type": "note_off", "time": 1565, "note": 61, "velocity": 121, "channel": 0}, {"type": "note_on", "time": 399, "note": 65, "velocity": 124, "channel": 0}, {"type": "note_off", "time": 670, "note": 65, "velocity": 124, "channel": 0}, {"type": "note_on", "time": 1501, "note": 64, "velocity": 121, "channel": 0}, {"type": "note_off", "time": 1101, "note": 64, "velocity": 121, "channel": 0}, {"type": "note_on", "time": 3816, "note": 63, "velocity": 123, "channel": 0}, {"type": "note_off", "time": 1149, "note": 63, "velocity": 123, "channel": 0}, {"type": "note_on", "time": 1309, "note": 61, "velocity": 122, "channel": 0}, {"type": "note_off", "time": 830, "note": 61, "velocity": 122, "channel": 0}, {"type": "note_on", "time": 191, "note": 58, "velocity": 114, "channel": 0}, {"type": "note_off", "time": 830, "note": 58, "velocity": 114, "channel": 0}, {"type": "note_on", "time": 590, "note": 56, "velocity": 116, "channel": 0}, {"type": "note_off", "time": 622, "note": 56, "velocity": 116, "channel": 0}, {"type": "note_on", "time": 495, "note": 55, "velocity": 115, "channel": 0}, {"type": "note_off", "time": 1165, "note": 55, "velocity": 115, "channel": 0}, {"type": "note_on", "time": 3896, "note": 56, "velocity": 121, "channel": 0}, {"type": "note_off", "time": 1069, "note": 56, "velocity": 121, "channel": 0}, {"type": "note_on", "time": 2794, "note": 60, "velocity": 119, "channel": 0}, {"type": "note_off", "time": 750, "note": 60, "velocity": 119, "channel": 0}, {"type": "note_on", "time": 606, "note": 58, "velocity": 119, "channel": 0}, {"type": "note_off", "time": 1836, "note": 58, "velocity": 119, "channel": 0}, {"type": "note_on", "time": 351, "note": 56, "velocity": 119, "channel": 0}, {"type": "note_off", "time": 399, "note": 56, "velocity": 119, "channel": 0}, {"type": "note_on", "time": 367, "note": 55, "velocity": 114, "channel": 0}, {"type": "note_off", "time": 574, "note": 55, "velocity": 114, "channel": 0}, {"type": "note_on", "time": 207, "note": 53, "velocity": 116, "channel": 0}, {"type": "note_off", "time": 782, "note": 53, "velocity": 116, "channel": 0}, {"type": "note_on", "time": 159, "note": 52, "velocity": 113, "channel": 0}, {"type": "note_off", "time": 1884, "note": 52, "velocity": 113, "channel": 0}, {"type": "note_on", "time": 638, "note": 61, "velocity": 121, "channel": 0}, {"type": "note_off", "time": 574, "note": 61, "velocity": 121, "channel": 0}, {"type": "note_on", "time": 223, "note": 61, "velocity": 118, "channel": 0}, {"type": "note_off", "time": 511, "note": 61, "velocity": 118, "channel": 0}, {"type": "note_on", "time": 335, "note": 58, "velocity": 120, "channel": 0}, {"type": "note_off", "time": 495, "note": 58, "velocity": 120, "channel": 0}, {"type": "note_on", "time": 511, "note": 56, "velocity": 116, "channel": 0}, {"type": "note_off", "time": 2123, "note": 56, "velocity": 116, "channel": 0}, {"type": "note_on", "time": 319, "note": 55, "velocity": 116, "channel": 0}, {"type": "note_off", "time": 319, "note": 55, "velocity": 116, "channel": 0}, {"type": "note_on", "time": 127, "note": 56, "velocity": 125, "channel": 0}, {"type": "note_off", "time": 495, "note": 56, "velocity": 125, "channel": 0}, {"type": "note_on", "time": 271, "note": 52, "velocity": 112, "channel": 0}, {"type": "note_off", "time": 846, "note": 52, "velocity": 112, "channel": 0}, {"type": "note_on", "time": 622, "note": 55, "velocity": 119, "channel": 0}, {"type": "note_off", "time": 958, "note": 55, "velocity": 119, "channel": 0}, {"type": "note_on", "time": 1900, "note": 51, "velocity": 114, "channel": 0}, {"type": "note_off", "time": 399, "note": 51, "velocity": 114, "channel": 0}, {"type": "note_on", "time": 223, "note": 53, "velocity": 117, "channel": 0}, {"type": "note_off", "time": 638, "note": 53, "velocity": 117, "channel": 0}, {"type": "note_on", "time": 0, "note": 51, "velocity": 101, "channel": 0}, {"type": "note_off", "time": 383, "note": 51, "velocity": 101, "channel": 0}, {"type": "note_on", "time": 926, "note": 50, "velocity": 110, "channel": 0}, {"type": "note_off", "time": 798, "note": 50, "velocity": 110, "channel": 0}, {"type": "note_on", "time": 2634, "note": 53, "velocity": 124, "channel": 0}, {"type": "note_off", "time": 798, "note": 53, "velocity": 124, "channel": 0}, {"type": "note_on", "time": 175, "note": 56, "velocity": 119, "channel": 0}, {"type": "note_off", "time": 1357, "note": 56, "velocity": 119, "channel": 0}, {"type": "note_on", "time": 111, "note": 60, "velocity": 121, "channel": 0}, {"type": "note_off", "time": 638, "note": 60, "velocity": 121, "channel": 0}, {"type": "note_on", "time": 415, "note": 58, "velocity": 122, "channel": 0}, {"type": "note_off", "time": 1229, "note": 58, "velocity": 122, "channel": 0}, {"type": "note_on", "time": 431, "note": 56, "velocity": 123, "channel": 0}, {"type": "note_off", "time": 479, "note": 56, "velocity": 123, "channel": 0}, {"type": "note_on", "time": 127, "note": 55, "velocity": 117, "channel": 0}, {"type": "note_off", "time": 1549, "note": 55, "velocity": 117, "channel": 0}, {"type": "note_on", "time": 271, "note": 58, "velocity": 120, "channel": 0}, {"type": "note_off", "time": 606, "note": 58, "velocity": 120, "channel": 0}, {"type": "note_on", "time": 287, "note": 60, "velocity": 121, "channel": 0}, {"type": "note_off", "time": 1517, "note": 60, "velocity": 121, "channel": 0}, {"type": "note_on", "time": 1022, "note": 63, "velocity": 120, "channel": 0}, {"type": "note_off", "time": 2107, "note": 63, "velocity": 120, "channel": 0}, {"type": "note_on", "time": 111, "note": 60, "velocity": 112, "channel": 0}, {"type": "note_off", "time": 287, "note": 60, "velocity": 112, "channel": 0}, {"type": "note_on", "time": 79, "note": 63, "velocity": 120, "channel": 0}, {"type": "note_off", "time": 2363, "note": 63, "velocity": 120, "channel": 0}, {"type": "note_on", "time": 6850, "note": 58, "velocity": 121, "channel": 0}, {"type": "note_off", "time": 558, "note": 58, "velocity": 121, "channel": 0}, {"type": "note_on", "time": 303, "note": 60, "velocity": 121, "channel": 0}, {"type": "note_off", "time": 1517, "note": 60, "velocity": 121, "channel": 0}, {"type": "note_on", "time": 1038, "note": 63, "velocity": 124, "channel": 0}, {"type": "note_off", "time": 1868, "note": 63, "velocity": 124, "channel": 0}, {"type": "note_on", "time": 111, "note": 60, "velocity": 100, "channel": 0}, {"type": "note_on", "time": 526, "note": 63, "velocity": 118, "channel": 0}, {"type": "note_off", "time": 0, "note": 60, "velocity": 100, "channel": 0}, {"type": "note_off", "time": 2379, "note": 63, "velocity": 118, "channel": 0}, {"type": "note_on", "time": 6850, "note": 66, "velocity": 121, "channel": 0}, {"type": "note_off", "time": 846, "note": 66, "velocity": 121, "channel": 0}, {"type": "note_on", "time": 79, "note": 65, "velocity": 123, "channel": 0}, {"type": "note_off", "time": 1517, "note": 65, "velocity": 123, "channel": 0}, {"type": "note_on", "time": 1022, "note": 63, "velocity": 121, "channel": 0}, {"type": "note_off", "time": 1517, "note": 63, "velocity": 121, "channel": 0}, {"type": "note_on", "time": 367, "note": 58, "velocity": 106, "channel": 0}, {"type": "note_off", "time": 638, "note": 58, "velocity": 106, "channel": 0}, {"type": "note_on", "time": 175, "note": 61, "velocity": 117, "channel": 0}, {"type": "note_off", "time": 1549, "note": 61, "velocity": 117, "channel": 0}, {"type": "note_on", "time": 175, "note": 61, "velocity": 115, "channel": 0}, {"type": "note_off", "time": 590, "note": 61, "velocity": 115, "channel": 0}, {"type": "note_on", "time": 335, "note": 58, "velocity": 116, "channel": 0}, {"type": "note_off", "time": 1373, "note": 58, "velocity": 116, "channel": 0}, {"type": "note_on", "time": 3992, "note": 65, "velocity": 123, "channel": 0}, {"type": "note_off", "time": 878, "note": 65, "velocity": 123, "channel": 0}, {"type": "note_on", "time": 63, "note": 63, "velocity": 122, "channel": 0}, {"type": "note_off", "time": 1437, "note": 63, "velocity": 122, "channel": 0}, {"type": "note_on", "time": 8910, "note": 58, "velocity": 120, "channel": 0}, {"type": "note_off", "time": 830, "note": 58, "velocity": 120, "channel": 0}, {"type": "note_on", "time": 255, "note": 61, "velocity": 120, "channel": 0}, {"type": "note_off", "time": 1788, "note": 61, "velocity": 120, "channel": 0}, {"type": "note_on", "time": 511, "note": 63, "velocity": 117, "channel": 0}, {"type": "note_off", "time": 3609, "note": 63, "velocity": 117, "channel": 0}, {"type": "note_on", "time": 31, "note": 65, "velocity": 113, "channel": 0}, {"type": "note_off", "time": 303, "note": 65, "velocity": 113, "channel": 0}, {"type": "note_on", "time": 111, "note": 63, "velocity": 117, "channel": 0}, {"type": "note_off", "time": 303, "note": 63, "velocity": 117, "channel": 0}, {"type": "note_on", "time": 95, "note": 61, "velocity": 121, "channel": 0}, {"type": "note_off", "time": 638, "note": 61, "velocity": 121, "channel": 0}, {"type": "note_on", "time": 287, "note": 63, "velocity": 121, "channel": 0}, {"type": "note_off", "time": 1469, "note": 63, "velocity": 121, "channel": 0}, {"type": "note_on", "time": 79, "note": 61, "velocity": 118, "channel": 0}, {"type": "note_off", "time": 718, "note": 61, "velocity": 118, "channel": 0}, {"type": "note_on", "time": 4120, "note": 66, "velocity": 122, "channel": 0}, {"type": "note_off", "time": 734, "note": 66, "velocity": 122, "channel": 0}, {"type": "note_on", "time": 95, "note": 65, "velocity": 121, "channel": 0}, {"type": "note_off", "time": 2155, "note": 65, "velocity": 121, "channel": 0}, {"type": "note_on", "time": 431, "note": 63, "velocity": 119, "channel": 0}, {"type": "note_off", "time": 1453, "note": 63, "velocity": 119, "channel": 0}, {"type": "note_on", "time": 319, "note": 58, "velocity": 107, "channel": 0}, {"type": "note_off", "time": 574, "note": 58, "velocity": 107, "channel": 0}, {"type": "note_on", "time": 207, "note": 61, "velocity": 119, "channel": 0}, {"type": "note_off", "time": 1533, "note": 61, "velocity": 119, "channel": 0}, {"type": "note_on", "time": 303, "note": 61, "velocity": 116, "channel": 0}, {"type": "note_off", "time": 526, "note": 61, "velocity": 116, "channel": 0}, {"type": "note_on", "time": 95, "note": 58, "velocity": 116, "channel": 0}, {"type": "note_off", "time": 1644, "note": 58, "velocity": 116, "channel": 0}, {"type": "note_on", "time": 3465, "note": 63, "velocity": 124, "channel": 0}, {"type": "note_off", "time": 2044, "note": 63, "velocity": 124, "channel": 0}, {"type": "note_on", "time": 574, "note": 61, "velocity": 116, "channel": 0}, {"type": "note_off", "time": 1692, "note": 61, "velocity": 116, "channel": 0}, {"type": "note_on", "time": 0, "note": 58, "velocity": 114, "channel": 0}, {"type": "note_off", "time": 1580, "note": 58, "velocity": 114, "channel": 0}, {"type": "note_on", "time": 303, "note": 58, "velocity": 104, "channel": 0}, {"type": "note_off", "time": 1101, "note": 58, "velocity": 104, "channel": 0}, {"type": "note_on", "time": 7090, "note": 57, "velocity": 118, "channel": 0}, {"type": "note_off", "time": 974, "note": 57, "velocity": 118, "channel": 0}, {"type": "note_on", "time": 47, "note": 56, "velocity": 98, "channel": 0}, {"type": "note_off", "time": 1373, "note": 56, "velocity": 98, "channel": 0}, {"type": "note_on", "time": 111, "note": 60, "velocity": 118, "channel": 0}, {"type": "note_off", "time": 542, "note": 60, "velocity": 118, "channel": 0}, {"type": "note_on", "time": 63, "note": 63, "velocity": 122, "channel": 0}, {"type": "note_off", "time": 1788, "note": 63, "velocity": 122, "channel": 0}, {"type": "note_on", "time": 862, "note": 67, "velocity": 123, "channel": 0}, {"type": "note_off", "time": 1932, "note": 67, "velocity": 123, "channel": 0}, {"type": "note_on", "time": 4695, "note": 68, "velocity": 124, "channel": 0}, {"type": "note_off", "time": 606, "note": 68, "velocity": 124, "channel": 0}, {"type": "note_on", "time": 223, "note": 67, "velocity": 127, "channel": 0}, {"type": "note_off", "time": 495, "note": 67, "velocity": 127, "channel": 0}, {"type": "note_on", "time": 558, "note": 68, "velocity": 121, "channel": 0}, {"type": "note_off", "time": 622, "note": 68, "velocity": 121, "channel": 0}, {"type": "note_on", "time": 143, "note": 67, "velocity": 123, "channel": 0}, {"type": "note_off", "time": 606, "note": 67, "velocity": 123, "channel": 0}, {"type": "note_on", "time": 606, "note": 68, "velocity": 124, "channel": 0}, {"type": "note_off", "time": 750, "note": 68, "velocity": 124, "channel": 0}, {"type": "note_on", "time": 0, "note": 67, "velocity": 123, "channel": 0}, {"type": "note_off", "time": 702, "note": 67, "velocity": 123, "channel": 0}, {"type": "note_on", "time": 111, "note": 68, "velocity": 123, "channel": 0}, {"type": "note_off", "time": 622, "note": 68, "velocity": 123, "channel": 0}, {"type": "note_on", "time": 95, "note": 67, "velocity": 122, "channel": 0}, {"type": "note_off", "time": 526, "note": 67, "velocity": 122, "channel": 0}, {"type": "note_on", "time": 399, "note": 68, "velocity": 117, "channel": 0}, {"type": "note_off", "time": 638, "note": 68, "velocity": 117, "channel": 0}, {"type": "note_on", "time": 239, "note": 67, "velocity": 120, "channel": 0}, {"type": "note_off", "time": 670, "note": 67, "velocity": 120, "channel": 0}, {"type": "note_on", "time": 239, "note": 63, "velocity": 118, "channel": 0}, {"type": "note_off", "time": 926, "note": 63, "velocity": 118, "channel": 0}, {"type": "note_on", "time": 31, "note": 61, "velocity": 113, "channel": 0}, {"type": "note_off", "time": 574, "note": 61, "velocity": 113, "channel": 0}, {"type": "note_on", "time": 63, "note": 63, "velocity": 121, "channel": 0}, {"type": "note_off", "time": 2555, "note": 63, "velocity": 121, "channel": 0}, {"type": "note_on", "time": 9517, "note": 72, "velocity": 124, "channel": 0}, {"type": "note_off", "time": 1197, "note": 72, "velocity": 124, "channel": 0}, {"type": "note_on", "time": 1389, "note": 70, "velocity": 122, "channel": 0}, {"type": "note_off", "time": 1373, "note": 70, "velocity": 122, "channel": 0}, {"type": "note_on", "time": 1149, "note": 68, "velocity": 122, "channel": 0}, {"type": "note_off", "time": 926, "note": 68, "velocity": 122, "channel": 0}, {"type": "note_on", "time": 63, "note": 67, "velocity": 121, "channel": 0}, {"type": "note_off", "time": 1389, "note": 67, "velocity": 121, "channel": 0}, {"type": "note_on", "time": 127, "note": 65, "velocity": 122, "channel": 0}, {"type": "note_off", "time": 558, "note": 65, "velocity": 122, "channel": 0}, {"type": "note_on", "time": 287, "note": 63, "velocity": 118, "channel": 0}, {"type": "note_off", "time": 1708, "note": 63, "velocity": 118, "channel": 0}, {"type": "note_on", "time": 127, "note": 60, "velocity": 105, "channel": 0}, {"type": "note_off", "time": 670, "note": 60, "velocity": 105, "channel": 0}, {"type": "note_on", "time": 175, "note": 61, "velocity": 118, "channel": 0}, {"type": "note_off", "time": 1357, "note": 61, "velocity": 118, "channel": 0}, {"type": "note_on", "time": 191, "note": 63, "velocity": 114, "channel": 0}, {"type": "note_off", "time": 830, "note": 63, "velocity": 114, "channel": 0}, {"type": "note_on", "time": 271, "note": 65, "velocity": 121, "channel": 0}, {"type": "note_off", "time": 1149, "note": 65, "velocity": 121, "channel": 0}, {"type": "note_on", "time": 415, "note": 61, "velocity": 117, "channel": 0}, {"type": "note_off", "time": 734, "note": 61, "velocity": 117, "channel": 0}, {"type": "note_on", "time": 175, "note": 60, "velocity": 102, "channel": 0}, {"type": "note_off", "time": 495, "note": 60, "velocity": 102, "channel": 0}, {"type": "note_on", "time": 47, "note": 63, "velocity": 110, "channel": 0}, {"type": "note_off", "time": 367, "note": 63, "velocity": 110, "channel": 0}, {"type": "note_on", "time": 47, "note": 60, "velocity": 106, "channel": 0}, {"type": "note_off", "time": 447, "note": 60, "velocity": 106, "channel": 0}, {"type": "note_on", "time": 63, "note": 58, "velocity": 114, "channel": 0}, {"type": "note_off", "time": 830, "note": 58, "velocity": 114, "channel": 0}, {"type": "note_on", "time": 47, "note": 57, "velocity": 115, "channel": 0}, {"type": "note_off", "time": 1533, "note": 57, "velocity": 115, "channel": 0}, {"type": "note_on", "time": 319, "note": 60, "velocity": 114, "channel": 0}, {"type": "note_off", "time": 622, "note": 60, "velocity": 114, "channel": 0}, {"type": "note_on", "time": 159, "note": 58, "velocity": 111, "channel": 0}, {"type": "note_off", "time": 1293, "note": 58, "velocity": 111, "channel": 0}, {"type": "note_on", "time": 4966, "note": 60, "velocity": 116, "channel": 0}, {"type": "note_off", "time": 542, "note": 60, "velocity": 116, "channel": 0}, {"type": "note_on", "time": 63, "note": 61, "velocity": 116, "channel": 0}, {"type": "note_off", "time": 558, "note": 61, "velocity": 116, "channel": 0}, {"type": "note_on", "time": 63, "note": 60, "velocity": 112, "channel": 0}, {"type": "note_off", "time": 542, "note": 60, "velocity": 112, "channel": 0}, {"type": "note_on", "time": 239, "note": 60, "velocity": 115, "channel": 0}, {"type": "note_off", "time": 590, "note": 60, "velocity": 115, "channel": 0}, {"type": "note_on", "time": 622, "note": 58, "velocity": 117, "channel": 0}, {"type": "note_off", "time": 542, "note": 58, "velocity": 117, "channel": 0}, {"type": "note_on", "time": 894, "note": 60, "velocity": 116, "channel": 0}, {"type": "note_off", "time": 558, "note": 60, "velocity": 116, "channel": 0}, {"type": "note_on", "time": 526, "note": 58, "velocity": 112, "channel": 0}, {"type": "note_off", "time": 479, "note": 58, "velocity": 112, "channel": 0}, {"type": "note_on", "time": 622, "note": 60, "velocity": 115, "channel": 0}, {"type": "note_off", "time": 447, "note": 60, "velocity": 115, "channel": 0}, {"type": "note_on", "time": 95, "note": 61, "velocity": 120, "channel": 0}, {"type": "note_off", "time": 495, "note": 61, "velocity": 120, "channel": 0}, {"type": "note_on", "time": 223, "note": 63, "velocity": 119, "channel": 0}, {"type": "note_off", "time": 383, "note": 63, "velocity": 119, "channel": 0}, {"type": "note_on", "time": 127, "note": 65, "velocity": 123, "channel": 0}, {"type": "note_off", "time": 1197, "note": 65, "velocity": 123, "channel": 0}, {"type": "note_on", "time": 63, "note": 61, "velocity": 119, "channel": 0}, {"type": "note_off", "time": 1213, "note": 61, "velocity": 119, "channel": 0}, {"type": "note_on", "time": 159, "note": 60, "velocity": 112, "channel": 0}, {"type": "note_off", "time": 1133, "note": 60, "velocity": 112, "channel": 0}, {"type": "note_on", "time": 670, "note": 58, "velocity": 112, "channel": 0}, {"type": "note_off", "time": 367, "note": 58, "velocity": 112, "channel": 0}, {"type": "note_on", "time": 223, "note": 57, "velocity": 112, "channel": 0}, {"type": "note_off", "time": 399, "note": 57, "velocity": 112, "channel": 0}, {"type": "note_on", "time": 159, "note": 60, "velocity": 104, "channel": 0}, {"type": "note_off", "time": 495, "note": 60, "velocity": 104, "channel": 0}, {"type": "note_on", "time": 111, "note": 58, "velocity": 110, "channel": 0}, {"type": "note_off", "time": 495, "note": 58, "velocity": 110, "channel": 0}, {"type": "note_on", "time": 47, "note": 57, "velocity": 105, "channel": 0}, {"type": "note_off", "time": 447, "note": 57, "velocity": 105, "channel": 0}, {"type": "note_on", "time": 367, "note": 56, "velocity": 115, "channel": 0}, {"type": "note_off", "time": 367, "note": 56, "velocity": 115, "channel": 0}, {"type": "note_on", "time": 255, "note": 53, "velocity": 114, "channel": 0}, {"type": "note_off", "time": 479, "note": 53, "velocity": 114, "channel": 0}, {"type": "note_on", "time": 95, "note": 51, "velocity": 110, "channel": 0}, {"type": "note_off", "time": 511, "note": 51, "velocity": 110, "channel": 0}, {"type": "note_on", "time": 239, "note": 49, "velocity": 106, "channel": 0}, {"type": "note_off", "time": 351, "note": 49, "velocity": 106, "channel": 0}, {"type": "note_on", "time": 223, "note": 48, "velocity": 114, "channel": 0}, {"type": "note_off", "time": 1277, "note": 48, "velocity": 114, "channel": 0}, {"type": "note_on", "time": 207, "note": 49, "velocity": 100, "channel": 0}, {"type": "note_off", "time": 335, "note": 49, "velocity": 100, "channel": 0}, {"type": "note_on", "time": 223, "note": 50, "velocity": 107, "channel": 0}, {"type": "note_off", "time": 399, "note": 50, "velocity": 107, "channel": 0}, {"type": "note_on", "time": 159, "note": 51, "velocity": 114, "channel": 0}, {"type": "note_off", "time": 750, "note": 51, "velocity": 114, "channel": 0}, {"type": "note_on", "time": 4551, "note": 54, "velocity": 121, "channel": 0}, {"type": "note_off", "time": 1309, "note": 54, "velocity": 121, "channel": 0}, {"type": "note_on", "time": 143, "note": 55, "velocity": 107, "channel": 0}, {"type": "note_off", "time": 351, "note": 55, "velocity": 107, "channel": 0}, {"type": "note_on", "time": 95, "note": 56, "velocity": 110, "channel": 0}, {"type": "note_off", "time": 383, "note": 56, "velocity": 110, "channel": 0}, {"type": "note_on", "time": 175, "note": 57, "velocity": 119, "channel": 0}, {"type": "note_off", "time": 1341, "note": 57, "velocity": 119, "channel": 0}, {"type": "note_on", "time": 175, "note": 58, "velocity": 97, "channel": 0}, {"type": "note_off", "time": 303, "note": 58, "velocity": 97, "channel": 0}, {"type": "note_on", "time": 0, "note": 59, "velocity": 105, "channel": 0}, {"type": "note_off", "time": 303, "note": 59, "velocity": 105, "channel": 0}, {"type": "note_on", "time": 191, "note": 60, "velocity": 117, "channel": 0}, {"type": "note_off", "time": 1549, "note": 60, "velocity": 117, "channel": 0}, {"type": "note_on", "time": 0, "note": 61, "velocity": 106, "channel": 0}, {"type": "note_off", "time": 239, "note": 61, "velocity": 106, "channel": 0}, {"type": "note_on", "time": 47, "note": 62, "velocity": 115, "channel": 0}, {"type": "note_off", "time": 287, "note": 62, "velocity": 115, "channel": 0}, {"type": "note_on", "time": 143, "note": 63, "velocity": 122, "channel": 0}, {"type": "note_off", "time": 1836, "note": 63, "velocity": 122, "channel": 0}, {"type": "note_on", "time": 0, "note": 64, "velocity": 97, "channel": 0}, {"type": "note_off", "time": 175, "note": 64, "velocity": 97, "channel": 0}, {"type": "note_on", "time": 0, "note": 66, "velocity": 102, "channel": 0}, {"type": "note_off", "time": 255, "note": 66, "velocity": 102, "channel": 0}, {"type": "note_on", "time": 111, "note": 67, "velocity": 120, "channel": 0}, {"type": "note_off", "time": 942, "note": 67, "velocity": 120, "channel": 0}, {"type": "note_on", "time": 4311, "note": 67, "velocity": 124, "channel": 0}, {"type": "note_off", "time": 511, "note": 67, "velocity": 124, "channel": 0}, {"type": "note_on", "time": 159, "note": 68, "velocity": 123, "channel": 0}, {"type": "note_off", "time": 622, "note": 68, "velocity": 123, "channel": 0}, {"type": "note_on", "time": 574, "note": 67, "velocity": 119, "channel": 0}, {"type": "note_off", "time": 590, "note": 67, "velocity": 119, "channel": 0}, {"type": "note_on", "time": 2459, "note": 67, "velocity": 124, "channel": 0}, {"type": "note_off", "time": 590, "note": 67, "velocity": 124, "channel": 0}, {"type": "note_on", "time": 111, "note": 68, "velocity": 121, "channel": 0}, {"type": "note_off", "time": 734, "note": 68, "velocity": 121, "channel": 0}, {"type": "note_on", "time": 463, "note": 67, "velocity": 114, "channel": 0}, {"type": "note_off", "time": 750, "note": 67, "velocity": 114, "channel": 0}, {"type": "note_on", "time": 1804, "note": 65, "velocity": 101, "channel": 0}, {"type": "note_off", "time": 574, "note": 65, "velocity": 101, "channel": 0}, {"type": "note_on", "time": 47, "note": 67, "velocity": 124, "channel": 0}, {"type": "note_off", "time": 654, "note": 67, "velocity": 124, "channel": 0}, {"type": "note_on", "time": 127, "note": 68, "velocity": 123, "channel": 0}, {"type": "note_off", "time": 542, "note": 68, "velocity": 123, "channel": 0}, {"type": "note_on", "time": 750, "note": 67, "velocity": 121, "channel": 0}, {"type": "note_off", "time": 638, "note": 67, "velocity": 121, "channel": 0}, {"type": "note_on", "time": 479, "note": 65, "velocity": 119, "channel": 0}, {"type": "note_off", "time": 654, "note": 65, "velocity": 119, "channel": 0}, {"type": "note_on", "time": 447, "note": 63, "velocity": 112, "channel": 0}, {"type": "note_off", "time": 335, "note": 63, "velocity": 112, "channel": 0}, {"type": "note_on", "time": 127, "note": 64, "velocity": 121, "channel": 0}, {"type": "note_off", "time": 1213, "note": 64, "velocity": 121, "channel": 0}, {"type": "note_on", "time": 95, "note": 67, "velocity": 120, "channel": 0}, {"type": "note_off", "time": 782, "note": 67, "velocity": 120, "channel": 0}, {"type": "note_on", "time": 495, "note": 65, "velocity": 116, "channel": 0}, {"type": "note_off", "time": 1756, "note": 65, "velocity": 116, "channel": 0}, {"type": "note_on", "time": 255, "note": 64, "velocity": 120, "channel": 0}, {"type": "note_off", "time": 415, "note": 64, "velocity": 120, "channel": 0}, {"type": "note_on", "time": 798, "note": 60, "velocity": 113, "channel": 0}, {"type": "note_off", "time": 654, "note": 60, "velocity": 113, "channel": 0}, {"type": "note_on", "time": 479, "note": 56, "velocity": 108, "channel": 0}, {"type": "note_off", "time": 479, "note": 56, "velocity": 108, "channel": 0}, {"type": "note_on", "time": 143, "note": 55, "velocity": 112, "channel": 0}, {"type": "note_off", "time": 638, "note": 55, "velocity": 112, "channel": 0}, {"type": "note_on", "time": 654, "note": 53, "velocity": 110, "channel": 0}, {"type": "note_off", "time": 574, "note": 53, "velocity": 110, "channel": 0}, {"type": "note_on", "time": 79, "note": 55, "velocity": 106, "channel": 0}, {"type": "note_off", "time": 479, "note": 55, "velocity": 106, "channel": 0}, {"type": "note_on", "time": 127, "note": 56, "velocity": 114, "channel": 0}, {"type": "note_off", "time": 558, "note": 56, "velocity": 114, "channel": 0}, {"type": "note_on", "time": 127, "note": 60, "velocity": 26, "channel": 0}, {"type": "note_off", "time": 447, "note": 60, "velocity": 26, "channel": 0}, {"type": "note_on", "time": 79, "note": 60, "velocity": 119, "channel": 0}, {"type": "note_off", "time": 526, "note": 60, "velocity": 119, "channel": 0}, {"type": "note_on", "time": 638, "note": 63, "velocity": 122, "channel": 0}, {"type": "note_off", "time": 1341, "note": 63, "velocity": 122, "channel": 0}, {"type": "note_on", "time": 31, "note": 60, "velocity": 113, "channel": 0}, {"type": "note_off", "time": 383, "note": 60, "velocity": 113, "channel": 0}, {"type": "note_on", "time": 159, "note": 61, "velocity": 111, "channel": 0}, {"type": "note_off", "time": 383, "note": 61, "velocity": 111, "channel": 0}, {"type": "note_on", "time": 143, "note": 62, "velocity": 119, "channel": 0}, {"type": "note_off", "time": 638, "note": 62, "velocity": 119, "channel": 0}, {"type": "note_on", "time": 255, "note": 58, "velocity": 116, "channel": 0}, {"type": "note_off", "time": 718, "note": 58, "velocity": 116, "channel": 0}, {"type": "note_on", "time": 223, "note": 62, "velocity": 117, "channel": 0}, {"type": "note_off", "time": 590, "note": 62, "velocity": 117, "channel": 0}, {"type": "note_on", "time": 79, "note": 60, "velocity": 108, "channel": 0}, {"type": "note_off", "time": 574, "note": 60, "velocity": 108, "channel": 0}, {"type": "note_on", "time": 303, "note": 56, "velocity": 114, "channel": 0}, {"type": "note_off", "time": 511, "note": 56, "velocity": 114, "channel": 0}, {"type": "note_on", "time": 479, "note": 60, "velocity": 113, "channel": 0}, {"type": "note_off", "time": 447, "note": 60, "velocity": 113, "channel": 0}, {"type": "note_on", "time": 143, "note": 58, "velocity": 110, "channel": 0}, {"type": "note_off", "time": 574, "note": 58, "velocity": 110, "channel": 0}, {"type": "note_on", "time": 942, "note": 51, "velocity": 100, "channel": 0}, {"type": "note_off", "time": 766, "note": 51, "velocity": 100, "channel": 0}, {"type": "note_on", "time": 0, "note": 55, "velocity": 113, "channel": 0}, {"type": "note_off", "time": 255, "note": 55, "velocity": 113, "channel": 0}, {"type": "note_on", "time": 31, "note": 56, "velocity": 117, "channel": 0}, {"type": "note_off", "time": 702, "note": 56, "velocity": 117, "channel": 0}, {"type": "note_on", "time": 6, "note": 58, "velocity": 103, "channel": 0}, {"type": "note_off", "time": 159, "note": 58, "velocity": 103, "channel": 0}, {"type": "note_on", "time": 136, "note": 55, "velocity": 104, "channel": 0}, {"type": "note_off", "time": 542, "note": 55, "velocity": 104, "channel": 0}, {"type": "note_on", "time": 4583, "note": 55, "velocity": 119, "channel": 0}, {"type": "note_off", "time": 606, "note": 55, "velocity": 119, "channel": 0}, {"type": "note_on", "time": 271, "note": 52, "velocity": 98, "channel": 0}, {"type": "note_off", "time": 383, "note": 52, "velocity": 98, "channel": 0}, {"type": "note_on", "time": 31, "note": 53, "velocity": 108, "channel": 0}, {"type": "note_off", "time": 606, "note": 53, "velocity": 108, "channel": 0}, {"type": "note_on", "time": 159, "note": 55, "velocity": 117, "channel": 0}, {"type": "note_off", "time": 750, "note": 55, "velocity": 117, "channel": 0}, {"type": "note_on", "time": 31, "note": 57, "velocity": 114, "channel": 0}, {"type": "note_off", "time": 303, "note": 57, "velocity": 114, "channel": 0}, {"type": "note_on", "time": 159, "note": 58, "velocity": 119, "channel": 0}, {"type": "note_off", "time": 303, "note": 58, "velocity": 119, "channel": 0}, {"type": "note_on", "time": 271, "note": 60, "velocity": 111, "channel": 0}, {"type": "note_off", "time": 590, "note": 60, "velocity": 111, "channel": 0}, {"type": "note_on", "time": 207, "note": 63, "velocity": 115, "channel": 0}, {"type": "note_off", "time": 511, "note": 63, "velocity": 115, "channel": 0}, {"type": "note_on", "time": 0, "note": 60, "velocity": 111, "channel": 0}, {"type": "note_off", "time": 399, "note": 60, "velocity": 111, "channel": 0}, {"type": "note_on", "time": 0, "note": 61, "velocity": 101, "channel": 0}, {"type": "note_off", "time": 479, "note": 61, "velocity": 101, "channel": 0}, {"type": "note_on", "time": 79, "note": 62, "velocity": 122, "channel": 0}, {"type": "note_off", "time": 670, "note": 62, "velocity": 122, "channel": 0}, {"type": "note_on", "time": 0, "note": 58, "velocity": 106, "channel": 0}, {"type": "note_off", "time": 814, "note": 58, "velocity": 106, "channel": 0}, {"type": "note_on", "time": 4663, "note": 58, "velocity": 109, "channel": 0}, {"type": "note_off", "time": 367, "note": 58, "velocity": 109, "channel": 0}, {"type": "note_on", "time": 0, "note": 61, "velocity": 118, "channel": 0}, {"type": "note_off", "time": 910, "note": 61, "velocity": 118, "channel": 0}, {"type": "note_on", "time": 63, "note": 63, "velocity": 121, "channel": 0}, {"type": "note_off", "time": 1964, "note": 63, "velocity": 121, "channel": 0}, {"type": "note_on", "time": 95, "note": 61, "velocity": 103, "channel": 0}, {"type": "note_off", "time": 367, "note": 61, "velocity": 103, "channel": 0}, {"type": "note_on", "time": 0, "note": 63, "velocity": 115, "channel": 0}, {"type": "note_off", "time": 782, "note": 63, "velocity": 115, "channel": 0}, {"type": "note_on", "time": 0, "note": 61, "velocity": 110, "channel": 0}, {"type": "note_off", "time": 734, "note": 61, "velocity": 110, "channel": 0}, {"type": "note_on", "time": 3960, "note": 58, "velocity": 100, "channel": 0}, {"type": "note_off", "time": 415, "note": 58, "velocity": 100, "channel": 0}, {"type": "note_on", "time": 63, "note": 61, "velocity": 118, "channel": 0}, {"type": "note_off", "time": 926, "note": 61, "velocity": 118, "channel": 0}, {"type": "note_on", "time": 287, "note": 63, "velocity": 117, "channel": 0}, {"type": "note_off", "time": 2171, "note": 63, "velocity": 117, "channel": 0}, {"type": "note_on", "time": 111, "note": 61, "velocity": 108, "channel": 0}, {"type": "note_off", "time": 383, "note": 61, "velocity": 108, "channel": 0}, {"type": "note_on", "time": 127, "note": 63, "velocity": 117, "channel": 0}, {"type": "note_off", "time": 734, "note": 63, "velocity": 117, "channel": 0}, {"type": "note_on", "time": 31, "note": 61, "velocity": 102, "channel": 0}, {"type": "note_off", "time": 750, "note": 61, "velocity": 102, "channel": 0}, {"type": "note_on", "time": 3896, "note": 58, "velocity": 91, "channel": 0}, {"type": "note_off", "time": 495, "note": 58, "velocity": 91, "channel": 0}, {"type": "note_on", "time": 271, "note": 61, "velocity": 114, "channel": 0}, {"type": "note_off", "time": 894, "note": 61, "velocity": 114, "channel": 0}, {"type": "note_on", "time": 191, "note": 63, "velocity": 117, "channel": 0}, {"type": "note_off", "time": 1756, "note": 63, "velocity": 117, "channel": 0}, {"type": "note_on", "time": 143, "note": 61, "velocity": 110, "channel": 0}, {"type": "note_off", "time": 415, "note": 61, "velocity": 110, "channel": 0}, {"type": "note_on", "time": 127, "note": 63, "velocity": 114, "channel": 0}, {"type": "note_off", "time": 495, "note": 63, "velocity": 114, "channel": 0}, {"type": "note_on", "time": 223, "note": 67, "velocity": 94, "channel": 0}, {"type": "note_off", "time": 1213, "note": 67, "velocity": 94, "channel": 0}, {"type": "note_on", "time": 3672, "note": 58, "velocity": 103, "channel": 0}, {"type": "note_off", "time": 335, "note": 58, "velocity": 103, "channel": 0}, {"type": "note_on", "time": 79, "note": 61, "velocity": 116, "channel": 0}, {"type": "note_off", "time": 734, "note": 61, "velocity": 116, "channel": 0}, {"type": "note_on", "time": 287, "note": 63, "velocity": 116, "channel": 0}, {"type": "note_off", "time": 1964, "note": 63, "velocity": 116, "channel": 0}, {"type": "note_on", "time": 111, "note": 61, "velocity": 113, "channel": 0}, {"type": "note_off", "time": 447, "note": 61, "velocity": 113, "channel": 0}, {"type": "note_on", "time": 63, "note": 63, "velocity": 119, "channel": 0}, {"type": "note_off", "time": 638, "note": 63, "velocity": 119, "channel": 0}, {"type": "note_on", "time": 63, "note": 62, "velocity": 117, "channel": 0}, {"type": "note_off", "time": 447, "note": 62, "velocity": 117, "channel": 0}, {"type": "note_on", "time": 5190, "note": 63, "velocity": 103, "channel": 0}, {"type": "note_off", "time": 942, "note": 63, "velocity": 103, "channel": 0}, {"type": "note_on", "time": 95, "note": 66, "velocity": 118, "channel": 0}, {"type": "note_off", "time": 1708, "note": 66, "velocity": 118, "channel": 0}, {"type": "note_on", "time": 207, "note": 68, "velocity": 119, "channel": 0}, {"type": "note_off", "time": 942, "note": 68, "velocity": 119, "channel": 0}, {"type": "note_on", "time": 4583, "note": 60, "velocity": 107, "channel": 0}, {"type": "note_off", "time": 479, "note": 60, "velocity": 107, "channel": 0}, {"type": "note_on", "time": 207, "note": 63, "velocity": 107, "channel": 0}, {"type": "note_off", "time": 415, "note": 63, "velocity": 107, "channel": 0}, {"type": "note_on", "time": 95, "note": 66, "velocity": 116, "channel": 0}, {"type": "note_off", "time": 590, "note": 66, "velocity": 116, "channel": 0}, {"type": "note_on", "time": 431, "note": 69, "velocity": 121, "channel": 0}, {"type": "note_off", "time": 814, "note": 69, "velocity": 121, "channel": 0}, {"type": "note_on", "time": 63, "note": 68, "velocity": 114, "channel": 0}, {"type": "note_off", "time": 526, "note": 68, "velocity": 114, "channel": 0}, {"type": "note_on", "time": 15, "note": 69, "velocity": 123, "channel": 0}, {"type": "note_off", "time": 654, "note": 69, "velocity": 123, "channel": 0}, {"type": "note_on", "time": 15, "note": 68, "velocity": 121, "channel": 0}, {"type": "note_off", "time": 303, "note": 68, "velocity": 121, "channel": 0}, {"type": "note_on", "time": 79, "note": 69, "velocity": 121, "channel": 0}, {"type": "note_off", "time": 718, "note": 69, "velocity": 121, "channel": 0}, {"type": "note_on", "time": 127, "note": 68, "velocity": 121, "channel": 0}, {"type": "note_off", "time": 1756, "note": 68, "velocity": 121, "channel": 0}, {"type": "note_on", "time": 79, "note": 66, "velocity": 117, "channel": 0}, {"type": "note_off", "time": 574, "note": 66, "velocity": 117, "channel": 0}, {"type": "note_on", "time": 159, "note": 63, "velocity": 118, "channel": 0}, {"type": "note_off", "time": 1517, "note": 63, "velocity": 118, "channel": 0}, {"type": "note_on", "time": 303, "note": 61, "velocity": 105, "channel": 0}, {"type": "note_off", "time": 495, "note": 61, "velocity": 105, "channel": 0}, {"type": "note_on", "time": 95, "note": 58, "velocity": 112, "channel": 0}, {"type": "note_off", "time": 1533, "note": 58, "velocity": 112, "channel": 0}, {"type": "note_on", "time": 287, "note": 56, "velocity": 101, "channel": 0}, {"type": "note_off", "time": 1549, "note": 56, "velocity": 101, "channel": 0}, {"type": "note_on", "time": 447, "note": 60, "velocity": 118, "channel": 0}, {"type": "note_off", "time": 542, "note": 60, "velocity": 118, "channel": 0}, {"type": "note_on", "time": 255, "note": 57, "velocity": 104, "channel": 0}, {"type": "note_off", "time": 431, "note": 57, "velocity": 104, "channel": 0}, {"type": "note_on", "time": 127, "note": 58, "velocity": 114, "channel": 0}, {"type": "note_off", "time": 431, "note": 58, "velocity": 114, "channel": 0}, {"type": "note_on", "time": 127, "note": 57, "velocity": 110, "channel": 0}, {"type": "note_off", "time": 590, "note": 57, "velocity": 110, "channel": 0}, {"type": "note_on", "time": 47, "note": 55, "velocity": 115, "channel": 0}, {"type": "note_off", "time": 463, "note": 55, "velocity": 115, "channel": 0}, {"type": "note_on", "time": 207, "note": 51, "velocity": 105, "channel": 0}, {"type": "note_off", "time": 686, "note": 51, "velocity": 105, "channel": 0}, {"type": "note_on", "time": 2938, "note": 55, "velocity": 107, "channel": 0}, {"type": "note_off", "time": 479, "note": 55, "velocity": 107, "channel": 0}, {"type": "note_on", "time": 47, "note": 56, "velocity": 119, "channel": 0}, {"type": "note_off", "time": 383, "note": 56, "velocity": 119, "channel": 0}, {"type": "note_on", "time": 303, "note": 60, "velocity": 114, "channel": 0}, {"type": "note_off", "time": 590, "note": 60, "velocity": 114, "channel": 0}, {"type": "note_on", "time": 1405, "note": 58, "velocity": 118, "channel": 0}, {"type": "note_off", "time": 622, "note": 58, "velocity": 118, "channel": 0}, {"type": "note_on", "time": 1149, "note": 56, "velocity": 112, "channel": 0}, {"type": "note_off", "time": 415, "note": 56, "velocity": 112, "channel": 0}, {"type": "note_on", "time": 95, "note": 55, "velocity": 110, "channel": 0}, {"type": "note_off", "time": 734, "note": 55, "velocity": 110, "channel": 0}, {"type": "note_on", "time": 1213, "note": 53, "velocity": 111, "channel": 0}, {"type": "note_off", "time": 415, "note": 53, "velocity": 111, "channel": 0}, {"type": "note_on", "time": 191, "note": 52, "velocity": 110, "channel": 0}, {"type": "note_off", "time": 670, "note": 52, "velocity": 110, "channel": 0}, {"type": "note_on", "time": 9, "note": 53, "velocity": 101, "channel": 0}, {"type": "note_off", "time": 404, "note": 53, "velocity": 101, "channel": 0}, {"type": "note_on", "time": 80, "note": 57, "velocity": 108, "channel": 0}, {"type": "note_off", "time": 431, "note": 57, "velocity": 108, "channel": 0}, {"type": "note_on", "time": 239, "note": 62, "velocity": 117, "channel": 0}, {"type": "note_off", "time": 526, "note": 62, "velocity": 117, "channel": 0}, {"type": "note_on", "time": 95, "note": 60, "velocity": 107, "channel": 0}, {"type": "note_off", "time": 862, "note": 60, "velocity": 107, "channel": 0}, {"type": "note_on", "time": 1868, "note": 56, "velocity": 111, "channel": 0}, {"type": "note_off", "time": 542, "note": 56, "velocity": 111, "channel": 0}, {"type": "note_on", "time": 1517, "note": 52, "velocity": 111, "channel": 0}, {"type": "note_off", "time": 702, "note": 52, "velocity": 111, "channel": 0}, {"type": "note_on", "time": 1788, "note": 55, "velocity": 117, "channel": 0}, {"type": "note_off", "time": 558, "note": 55, "velocity": 117, "channel": 0}, {"type": "note_on", "time": 143, "note": 52, "velocity": 100, "channel": 0}, {"type": "note_off", "time": 383, "note": 52, "velocity": 100, "channel": 0}, {"type": "note_on", "time": 15, "note": 53, "velocity": 108, "channel": 0}, {"type": "note_off", "time": 590, "note": 53, "velocity": 108, "channel": 0}, {"type": "note_on", "time": 25, "note": 51, "velocity": 104, "channel": 0}, {"type": "note_off", "time": 239, "note": 51, "velocity": 104, "channel": 0}, {"type": "note_on", "time": 309, "note": 50, "velocity": 111, "channel": 0}, {"type": "note_off", "time": 511, "note": 50, "velocity": 111, "channel": 0}, {"type": "note_on", "time": 367, "note": 52, "velocity": 107, "channel": 0}, {"type": "note_off", "time": 463, "note": 52, "velocity": 107, "channel": 0}, {"type": "note_on", "time": 0, "note": 56, "velocity": 116, "channel": 0}, {"type": "note_off", "time": 511, "note": 56, "velocity": 116, "channel": 0}, {"type": "note_on", "time": 79, "note": 60, "velocity": 108, "channel": 0}, {"type": "note_off", "time": 463, "note": 60, "velocity": 108, "channel": 0}, {"type": "note_on", "time": 95, "note": 58, "velocity": 117, "channel": 0}, {"type": "note_off", "time": 686, "note": 58, "velocity": 117, "channel": 0}, {"type": "note_on", "time": 1245, "note": 57, "velocity": 110, "channel": 0}, {"type": "note_off", "time": 447, "note": 57, "velocity": 110, "channel": 0}, {"type": "note_on", "time": 47, "note": 56, "velocity": 112, "channel": 0}, {"type": "note_off", "time": 495, "note": 56, "velocity": 112, "channel": 0}, {"type": "note_on", "time": 303, "note": 60, "velocity": 112, "channel": 0}, {"type": "note_off", "time": 511, "note": 60, "velocity": 112, "channel": 0}, {"type": "note_on", "time": 0, "note": 63, "velocity": 114, "channel": 0}, {"type": "note_off", "time": 622, "note": 63, "velocity": 114, "channel": 0}, {"type": "note_on", "time": 15, "note": 66, "velocity": 120, "channel": 0}, {"type": "note_off", "time": 399, "note": 66, "velocity": 120, "channel": 0}, {"type": "note_on", "time": 47, "note": 67, "velocity": 121, "channel": 0}, {"type": "note_off", "time": 1357, "note": 67, "velocity": 121, "channel": 0}, {"type": "note_on", "time": 0, "note": 62, "velocity": 113, "channel": 0}, {"type": "note_off", "time": 718, "note": 62, "velocity": 113, "channel": 0}, {"type": "note_on", "time": 654, "note": 65, "velocity": 123, "channel": 0}, {"type": "note_off", "time": 1580, "note": 65, "velocity": 123, "channel": 0}, {"type": "note_on", "time": 239, "note": 62, "velocity": 119, "channel": 0}, {"type": "note_off", "time": 1756, "note": 62, "velocity": 119, "channel": 0}, {"type": "note_on", "time": 426, "note": 58, "velocity": 106, "channel": 0}, {"type": "note_off", "time": 1706, "note": 58, "velocity": 106, "channel": 0}, {"type": "note_on", "time": 981, "note": 58, "velocity": 99, "channel": 0}, {"type": "note_off", "time": 542, "note": 58, "velocity": 99, "channel": 0}, {"type": "note_on", "time": 47, "note": 56, "velocity": 110, "channel": 0}, {"type": "note_off", "time": 654, "note": 56, "velocity": 110, "channel": 0}, {"type": "note_on", "time": 198, "note": 59, "velocity": 114, "channel": 0}, {"type": "note_off", "time": 383, "note": 59, "velocity": 114, "channel": 0}, {"type": "note_on", "time": 20, "note": 60, "velocity": 118, "channel": 0}, {"type": "note_off", "time": 367, "note": 60, "velocity": 118, "channel": 0}, {"type": "note_on", "time": 323, "note": 56, "velocity": 112, "channel": 0}, {"type": "note_off", "time": 495, "note": 56, "velocity": 112, "channel": 0}, {"type": "note_on", "time": 207, "note": 55, "velocity": 111, "channel": 0}, {"type": "note_off", "time": 718, "note": 55, "velocity": 111, "channel": 0}, {"type": "note_on", "time": 143, "note": 51, "velocity": 98, "channel": 0}, {"type": "note_off", "time": 367, "note": 51, "velocity": 98, "channel": 0}, {"type": "note_on", "time": 0, "note": 53, "velocity": 108, "channel": 0}, {"type": "note_off", "time": 511, "note": 53, "velocity": 108, "channel": 0}, {"type": "note_on", "time": 47, "note": 51, "velocity": 111, "channel": 0}, {"type": "note_off", "time": 447, "note": 51, "velocity": 111, "channel": 0}, {"type": "note_on", "time": 367, "note": 50, "velocity": 110, "channel": 0}, {"type": "note_off", "time": 558, "note": 50, "velocity": 110, "channel": 0}, {"type": "note_on", "time": 511, "note": 56, "velocity": 119, "channel": 0}, {"type": "note_off", "time": 606, "note": 56, "velocity": 119, "channel": 0}, {"type": "note_on", "time": 558, "note": 60, "velocity": 119, "channel": 0}, {"type": "note_off", "time": 526, "note": 60, "velocity": 119, "channel": 0}, {"type": "note_on", "time": 686, "note": 58, "velocity": 119, "channel": 0}, {"type": "note_off", "time": 542, "note": 58, "velocity": 119, "channel": 0}, {"type": "note_on", "time": 127, "note": 57, "velocity": 108, "channel": 0}, {"type": "note_off", "time": 367, "note": 57, "velocity": 108, "channel": 0}, {"type": "note_on", "time": 175, "note": 55, "velocity": 111, "channel": 0}, {"type": "note_off", "time": 622, "note": 55, "velocity": 111, "channel": 0}, {"type": "note_on", "time": 111, "note": 57, "velocity": 107, "channel": 0}, {"type": "note_off", "time": 383, "note": 57, "velocity": 107, "channel": 0}, {"type": "note_on", "time": 143, "note": 60, "velocity": 117, "channel": 0}, {"type": "note_off", "time": 766, "note": 60, "velocity": 117, "channel": 0}, {"type": "note_on", "time": 750, "note": 63, "velocity": 118, "channel": 0}, {"type": "note_off", "time": 734, "note": 63, "velocity": 118, "channel": 0}, {"type": "note_on", "time": 11098, "note": 66, "velocity": 121, "channel": 0}, {"type": "note_off", "time": 958, "note": 66, "velocity": 121, "channel": 0}, {"type": "note_on", "time": 159, "note": 63, "velocity": 121, "channel": 0}, {"type": "note_off", "time": 2315, "note": 63, "velocity": 121, "channel": 0}, {"type": "note_on", "time": 367, "note": 61, "velocity": 122, "channel": 0}, {"type": "note_off", "time": 622, "note": 61, "velocity": 122, "channel": 0}, {"type": "note_on", "time": 79, "note": 63, "velocity": 111, "channel": 0}, {"type": "note_off", "time": 415, "note": 63, "velocity": 111, "channel": 0}, {"type": "note_on", "time": 127, "note": 61, "velocity": 117, "channel": 0}, {"type": "note_off", "time": 511, "note": 61, "velocity": 117, "channel": 0}, {"type": "note_on", "time": 0, "note": 58, "velocity": 118, "channel": 0}, {"type": "note_off", "time": 798, "note": 58, "velocity": 118, "channel": 0}, {"type": "note_on", "time": 31, "note": 61, "velocity": 120, "channel": 0}, {"type": "note_off", "time": 2123, "note": 61, "velocity": 120, "channel": 0}, {"type": "note_on", "time": 511, "note": 63, "velocity": 123, "channel": 0}, {"type": "note_off", "time": 3385, "note": 63, "velocity": 123, "channel": 0}, {"type": "note_on", "time": 255, "note": 61, "velocity": 121, "channel": 0}, {"type": "note_off", "time": 670, "note": 61, "velocity": 121, "channel": 0}, {"type": "note_on", "time": 79, "note": 58, "velocity": 120, "channel": 0}, {"type": "note_off", "time": 479, "note": 58, "velocity": 120, "channel": 0}, {"type": "note_on", "time": 526, "note": 57, "velocity": 119, "channel": 0}, {"type": "note_off", "time": 1181, "note": 57, "velocity": 119, "channel": 0}, {"type": "note_on", "time": 335, "note": 56, "velocity": 121, "channel": 0}, {"type": "note_off", "time": 718, "note": 56, "velocity": 121, "channel": 0}, {"type": "note_on", "time": 367, "note": 54, "velocity": 102, "channel": 0}, {"type": "note_on", "time": 415, "note": 56, "velocity": 105, "channel": 0}, {"type": "note_off", "time": 0, "note": 54, "velocity": 102, "channel": 0}, {"type": "note_off", "time": 399, "note": 56, "velocity": 105, "channel": 0}, {"type": "note_on", "time": 0, "note": 54, "velocity": 106, "channel": 0}, {"type": "note_off", "time": 415, "note": 54, "velocity": 106, "channel": 0}, {"type": "note_on", "time": 303, "note": 51, "velocity": 112, "channel": 0}, {"type": "note_off", "time": 590, "note": 51, "velocity": 112, "channel": 0}, {"type": "note_on", "time": 175, "note": 49, "velocity": 112, "channel": 0}, {"type": "note_off", "time": 1549, "note": 49, "velocity": 112, "channel": 0}, {"type": "note_on", "time": 319, "note": 49, "velocity": 111, "channel": 0}, {"type": "note_off", "time": 1549, "note": 49, "velocity": 111, "channel": 0}, {"type": "note_on", "time": 6866, "note": 60, "velocity": 117, "channel": 0}, {"type": "note_off", "time": 1053, "note": 60, "velocity": 117, "channel": 0}, {"type": "note_on", "time": 415, "note": 63, "velocity": 122, "channel": 0}, {"type": "note_off", "time": 750, "note": 63, "velocity": 122, "channel": 0}, {"type": "note_on", "time": 159, "note": 58, "velocity": 105, "channel": 0}, {"type": "note_off", "time": 319, "note": 58, "velocity": 105, "channel": 0}, {"type": "note_on", "time": 223, "note": 56, "velocity": 101, "channel": 0}, {"type": "note_off", "time": 479, "note": 56, "velocity": 101, "channel": 0}, {"type": "note_on", "time": 1469, "note": 56, "velocity": 119, "channel": 0}, {"type": "note_off", "time": 2060, "note": 56, "velocity": 119, "channel": 0}, {"type": "note_on", "time": 574, "note": 56, "velocity": 120, "channel": 0}, {"type": "note_off", "time": 1708, "note": 56, "velocity": 120, "channel": 0}, {"type": "note_on", "time": 926, "note": 56, "velocity": 120, "channel": 0}, {"type": "note_off", "time": 2107, "note": 56, "velocity": 120, "channel": 0}, {"type": "note_on", "time": 2123, "note": 59, "velocity": 119, "channel": 0}, {"type": "note_off", "time": 335, "note": 59, "velocity": 119, "channel": 0}, {"type": "note_on", "time": 0, "note": 60, "velocity": 120, "channel": 0}, {"type": "note_off", "time": 542, "note": 60, "velocity": 120, "channel": 0}, {"type": "note_on", "time": 255, "note": 57, "velocity": 119, "channel": 0}, {"type": "note_off", "time": 1485, "note": 57, "velocity": 119, "channel": 0}, {"type": "note_on", "time": 2331, "note": 60, "velocity": 122, "channel": 0}, {"type": "note_off", "time": 638, "note": 60, "velocity": 122, "channel": 0}, {"type": "note_on", "time": 606, "note": 58, "velocity": 121, "channel": 0}, {"type": "note_off", "time": 1533, "note": 58, "velocity": 121, "channel": 0}, {"type": "note_on", "time": 699, "note": 46, "velocity": 110, "channel": 0}, {"type": "note_off", "time": 526, "note": 46, "velocity": 110, "channel": 0}, {"type": "note_on", "time": 82, "note": 51, "velocity": 116, "channel": 0}, {"type": "note_off", "time": 958, "note": 51, "velocity": 116, "channel": 0}, {"type": "note_on", "time": 271, "note": 55, "velocity": 123, "channel": 0}, {"type": "note_off", "time": 606, "note": 55, "velocity": 123, "channel": 0}, {"type": "note_on", "time": 175, "note": 56, "velocity": 121, "channel": 0}, {"type": "note_off", "time": 479, "note": 56, "velocity": 121, "channel": 0}, {"type": "note_on", "time": 143, "note": 55, "velocity": 115, "channel": 0}, {"type": "note_off", "time": 558, "note": 55, "velocity": 115, "channel": 0}, {"type": "note_on", "time": 159, "note": 56, "velocity": 121, "channel": 0}, {"type": "note_off", "time": 654, "note": 56, "velocity": 121, "channel": 0}, {"type": "note_on", "time": 191, "note": 55, "velocity": 119, "channel": 0}, {"type": "note_off", "time": 942, "note": 55, "velocity": 119, "channel": 0}, {"type": "note_on", "time": 255, "note": 56, "velocity": 103, "channel": 0}, {"type": "note_off", "time": 255, "note": 56, "velocity": 103, "channel": 0}, {"type": "note_on", "time": 79, "note": 55, "velocity": 119, "channel": 0}, {"type": "note_off", "time": 159, "note": 55, "velocity": 119, "channel": 0}, {"type": "note_on", "time": 15, "note": 54, "velocity": 114, "channel": 0}, {"type": "note_off", "time": 143, "note": 54, "velocity": 114, "channel": 0}, {"type": "note_on", "time": 31, "note": 53, "velocity": 120, "channel": 0}, {"type": "note_off", "time": 654, "note": 53, "velocity": 120, "channel": 0}, {"type": "note_on", "time": 447, "note": 52, "velocity": 114, "channel": 0}, {"type": "note_off", "time": 1006, "note": 52, "velocity": 114, "channel": 0}, {"type": "note_on", "time": 3114, "note": 55, "velocity": 114, "channel": 0}, {"type": "note_off", "time": 558, "note": 55, "velocity": 114, "channel": 0}, {"type": "note_on", "time": 159, "note": 56, "velocity": 119, "channel": 0}, {"type": "note_off", "time": 686, "note": 56, "velocity": 119, "channel": 0}, {"type": "note_on", "time": 79, "note": 55, "velocity": 116, "channel": 0}, {"type": "note_off", "time": 542, "note": 55, "velocity": 116, "channel": 0}, {"type": "note_on", "time": 686, "note": 53, "velocity": 116, "channel": 0}, {"type": "note_off", "time": 638, "note": 53, "velocity": 116, "channel": 0}, {"type": "note_on", "time": 271, "note": 52, "velocity": 114, "channel": 0}, {"type": "note_off", "time": 1117, "note": 52, "velocity": 114, "channel": 0}, {"type": "note_on", "time": 335, "note": 55, "velocity": 123, "channel": 0}, {"type": "note_off", "time": 606, "note": 55, "velocity": 123, "channel": 0}, {"type": "note_on", "time": 399, "note": 53, "velocity": 115, "channel": 0}, {"type": "note_off", "time": 1245, "note": 53, "velocity": 115, "channel": 0}, {"type": "note_on", "time": 622, "note": 55, "velocity": 123, "channel": 0}, {"type": "note_off", "time": 431, "note": 55, "velocity": 123, "channel": 0}, {"type": "note_on", "time": 367, "note": 56, "velocity": 124, "channel": 0}, {"type": "note_off", "time": 1229, "note": 56, "velocity": 124, "channel": 0}, {"type": "note_on", "time": 239, "note": 58, "velocity": 121, "channel": 0}, {"type": "note_off", "time": 558, "note": 58, "velocity": 121, "channel": 0}, {"type": "note_on", "time": 479, "note": 60, "velocity": 117, "channel": 0}, {"type": "note_off", "time": 1149, "note": 60, "velocity": 117, "channel": 0}, {"type": "note_on", "time": 207, "note": 63, "velocity": 122, "channel": 0}, {"type": "note_off", "time": 862, "note": 63, "velocity": 122, "channel": 0}, {"type": "note_on", "time": 127, "note": 60, "velocity": 116, "channel": 0}, {"type": "note_off", "time": 990, "note": 60, "velocity": 116, "channel": 0}, {"type": "note_on", "time": 670, "note": 61, "velocity": 121, "channel": 0}, {"type": "note_off", "time": 638, "note": 61, "velocity": 121, "channel": 0}, {"type": "note_on", "time": 175, "note": 62, "velocity": 125, "channel": 0}, {"type": "note_off", "time": 1580, "note": 62, "velocity": 125, "channel": 0}, {"type": "note_on", "time": 175, "note": 58, "velocity": 120, "channel": 0}, {"type": "note_off", "time": 750, "note": 58, "velocity": 120, "channel": 0}, {"type": "note_on", "time": 4311, "note": 58, "velocity": 119, "channel": 0}, {"type": "note_off", "time": 606, "note": 58, "velocity": 119, "channel": 0}, {"type": "note_on", "time": 303, "note": 61, "velocity": 124, "channel": 0}, {"type": "note_off", "time": 1852, "note": 61, "velocity": 124, "channel": 0}, {"type": "note_on", "time": 526, "note": 63, "velocity": 124, "channel": 0}, {"type": "note_off", "time": 2603, "note": 63, "velocity": 124, "channel": 0}, {"type": "note_on", "time": 15, "note": 61, "velocity": 126, "channel": 0}, {"type": "note_off", "time": 1389, "note": 61, "velocity": 126, "channel": 0}, {"type": "note_on", "time": 79, "note": 64, "velocity": 120, "channel": 0}, {"type": "note_off", "time": 383, "note": 64, "velocity": 120, "channel": 0}, {"type": "note_on", "time": 111, "note": 61, "velocity": 122, "channel": 0}, {"type": "note_off", "time": 495, "note": 61, "velocity": 122, "channel": 0}, {"type": "note_on", "time": 191, "note": 58, "velocity": 118, "channel": 0}, {"type": "note_off", "time": 1660, "note": 58, "velocity": 118, "channel": 0}, {"type": "note_on", "time": 2411, "note": 63, "velocity": 122, "channel": 0}, {"type": "note_off", "time": 3241, "note": 63, "velocity": 122, "channel": 0}, {"type": "note_on", "time": 79, "note": 61, "velocity": 122, "channel": 0}, {"type": "note_off", "time": 830, "note": 61, "velocity": 122, "channel": 0}, {"type": "note_on", "time": 63, "note": 58, "velocity": 114, "channel": 0}, {"type": "note_off", "time": 862, "note": 58, "velocity": 114, "channel": 0}, {"type": "note_on", "time": 1325, "note": 57, "velocity": 122, "channel": 0}, {"type": "note_off", "time": 638, "note": 57, "velocity": 122, "channel": 0}, {"type": "note_on", "time": 814, "note": 56, "velocity": 122, "channel": 0}, {"type": "note_off", "time": 590, "note": 56, "velocity": 122, "channel": 0}, {"type": "note_on", "time": 319, "note": 54, "velocity": 115, "channel": 0}, {"type": "note_off", "time": 670, "note": 54, "velocity": 115, "channel": 0}, {"type": "note_on", "time": 31, "note": 56, "velocity": 108, "channel": 0}, {"type": "note_off", "time": 207, "note": 56, "velocity": 108, "channel": 0}, {"type": "note_on", "time": 47, "note": 54, "velocity": 109, "channel": 0}, {"type": "note_off", "time": 191, "note": 54, "velocity": 109, "channel": 0}, {"type": "note_on", "time": 383, "note": 51, "velocity": 117, "channel": 0}, {"type": "note_off", "time": 622, "note": 51, "velocity": 117, "channel": 0}, {"type": "note_on", "time": 223, "note": 49, "velocity": 114, "channel": 0}, {"type": "note_off", "time": 1453, "note": 49, "velocity": 114, "channel": 0}, {"type": "note_on", "time": 463, "note": 49, "velocity": 114, "channel": 0}, {"type": "note_off", "time": 2666, "note": 49, "velocity": 114, "channel": 0}, {"type": "end_of_track", "time": 0}]]}