{"ticks_per_beat": 192, "tracks": [[{"type": "track_name", "name": "Melody", "time": 0}, {"type": "set_tempo", "tempo": 408163, "time": 0}, {"type": "key_signature", "key": "A", "time": 0}, {"type": "time_signature", "numerator": 4, "denominator": 4, "clocks_per_click": 24, "notated_32nd_notes_per_beat": 8, "time": 0}, {"type": "note_on", "time": 2334, "note": 66, "velocity": 117, "channel": 0}, {"type": "note_off", "time": 51, "note": 66, "velocity": 117, "channel": 0}, {"type": "note_on", "time": 147, "note": 64, "velocity": 121, "channel": 0}, {"type": "note_off", "time": 49, "note": 64, "velocity": 121, "channel": 0}, {"type": "note_on", "time": 340, "note": 61, "velocity": 118, "channel": 0}, {"type": "note_off", "time": 34, "note": 61, "velocity": 118, "channel": 0}, {"type": "note_on", "time": 15, "note": 59, "velocity": 103, "channel": 0}, {"type": "note_off", "time": 116, "note": 59, "velocity": 103, "channel": 0}, {"type": "note_on", "time": 15, "note": 57, "velocity": 108, "channel": 0}, {"type": "note_off", "time": 48, "note": 57, "velocity": 108, "channel": 0}, {"type": "note_on", "time": 12, "note": 56, "velocity": 104, "channel": 0}, {"type": "note_off", "time": 73, "note": 56, "velocity": 104, "channel": 0}, {"type": "note_on", "time": 106, "note": 54, "velocity": 112, "channel": 0}, {"type": "note_off", "time": 120, "note": 54, "velocity": 112, "channel": 0}, {"type": "note_on", "time": 30, "note": 56, "velocity": 105, "channel": 0}, {"type": "note_off", "time": 45, "note": 56, "velocity": 105, "channel": 0}, {"type": "note_on", "time": 6, "note": 57, "velocity": 117, "channel": 0}, {"type": "note_off", "time": 86, "note": 57, "velocity": 117, "channel": 0}, {"type": "note_on", "time": 49, "note": 59, "velocity": 116, "channel": 0}, {"type": "note_off", "time": 33, "note": 59, "velocity": 116, "channel": 0}, {"type": "note_on", "time": 25, "note": 56, "velocity": 108, "channel": 0}, {"type": "note_off", "time": 112, "note": 56, "velocity": 108, "channel": 0}, {"type": "note_on", "time": 28, "note": 54, "velocity": 117, "channel": 0}, {"type": "note_off", "time": 146, "note": 54, "velocity": 117, "channel": 0}, {"type": "note_on", "time": 21, "note": 54, "velocity": 110, "channel": 0}, {"type": "note_off", "time": 50, "note": 54, "velocity": 110, "channel": 0}, {"type": "note_on", "time": 175, "note": 52, "velocity": 117, "channel": 0}, {"type": "note_off", "time": 35, "note": 52, "velocity": 117, "channel": 0}, {"type": "note_on", "time": 21, "note": 51, "velocity": 111, "channel": 0}, {"type": "note_off", "time": 106, "note": 51, "velocity": 111, "channel": 0}, {"type": "note_on", "time": 15, "note": 51, "velocity": 105, "channel": 0}, {"type": "note_off", "time": 59, "note": 51, "velocity": 105, "channel": 0}, {"type": "note_on", "time": 31, "note": 54, "velocity": 100, "channel": 0}, {"type": "note_off", "time": 53, "note": 54, "velocity": 100, "channel": 0}, {"type": "note_on", "time": 11, "note": 55, "velocity": 106, "channel": 0}, {"type": "note_off", "time": 32, "note": 55, "velocity": 106, "channel": 0}, {"type": "note_on", "time": 3, "note": 56, "velocity": 114, "channel": 0}, {"type": "note_off", "time": 30, "note": 56, "velocity": 114, "channel": 0}, {"type": "note_on", "time": 15, "note": 57, "velocity": 119, "channel": 0}, {"type": "note_off", "time": 119, "note": 57, "velocity": 119, "channel": 0}, {"type": "note_on", "time": 32, "note": 60, "velocity": 117, "channel": 0}, {"type": "note_off", "time": 42, "note": 60, "velocity": 117, "channel": 0}, {"type": "note_on", "time": 12, "note": 61, "velocity": 119, "channel": 0}, {"type": "note_off", "time": 137, "note": 61, "velocity": 119, "channel": 0}, {"type": "note_on", "time": 22, "note": 59, "velocity": 89, "channel": 0}, {"type": "note_off", "time": 32, "note": 59, "velocity": 89, "channel": 0}, {"type": "note_on", "time": 9, "note": 61, "velocity": 120, "channel": 0}, {"type": "note_off", "time": 127, "note": 61, "velocity": 120, "channel": 0}, {"type": "note_on", "time": 11, "note": 64, "velocity": 121, "channel": 0}, {"type": "note_off", "time": 48, "note": 64, "velocity": 121, "channel": 0}, {"type": "note_on", "time": 150, "note": 63, "velocity": 113, "channel": 0}, {"type": "note_off", "time": 51, "note": 63, "velocity": 113, "channel": 0}, {"type": "note_on", "time": 11, "note": 64, "velocity": 123, "channel": 0}, {"type": "note_off", "time": 241, "note": 64, "velocity": 123, "channel": 0}, {"type": "note_on", "time": 71, "note": 64, "velocity": 125, "channel": 0}, {"type": "note_off", "time": 245, "note": 64, "velocity": 125, "channel": 0}, {"type": "note_on", "time": 6, "note": 61, "velocity": 121, "channel": 0}, {"type": "note_off", "time": 120, "note": 61, "velocity": 121, "channel": 0}, {"type": "note_on", "time": 6, "note": 60, "velocity": 101, "channel": 0}, {"type": "note_off", "time": 48, "note": 60, "velocity": 101, "channel": 0}, {"type": "note_on", "time": 5, "note": 61, "velocity": 115, "channel": 0}, {"type": "note_off", "time": 106, "note": 61, "velocity": 115, "channel": 0}, {"type": "note_on", "time": 12, "note": 61, "velocity": 116, "channel": 0}, {"type": "note_off", "time": 45, "note": 61, "velocity": 116, "channel": 0}, {"type": "note_on", "time": 546, "note": 64, "velocity": 125, "channel": 0}, {"type": "note_off", "time": 162, "note": 64, "velocity": 125, "channel": 0}, {"type": "note_on", "time": 15, "note": 64, "velocity": 116, "channel": 0}, {"type": "note_off", "time": 63, "note": 64, "velocity": 116, "channel": 0}, {"type": "note_on", "time": 10, "note": 62, "velocity": 122, "channel": 0}, {"type": "note_off", "time": 125, "note": 62, "velocity": 122, "channel": 0}, {"type": "note_on", "time": 23, "note": 60, "velocity": 96, "channel": 0}, {"type": "note_off", "time": 42, "note": 60, "velocity": 96, "channel": 0}, {"type": "note_on", "time": 0, "note": 62, "velocity": 124, "channel": 0}, {"type": "note_off", "time": 120, "note": 62, "velocity": 124, "channel": 0}, {"type": "note_on", "time": 10, "note": 61, "velocity": 123, "channel": 0}, {"type": "note_off", "time": 50, "note": 61, "velocity": 123, "channel": 0}, {"type": "note_on", "time": 24, "note": 60, "velocity": 115, "channel": 0}, {"type": "note_off", "time": 95, "note": 60, "velocity": 115, "channel": 0}, {"type": "note_on", "time": 26, "note": 57, "velocity": 100, "channel": 0}, {"type": "note_off", "time": 30, "note": 57, "velocity": 100, "channel": 0}, {"type": "note_on", "time": 20, "note": 60, "velocity": 113, "channel": 0}, {"type": "note_off", "time": 119, "note": 60, "velocity": 113, "channel": 0}, {"type": "note_on", "time": 20, "note": 60, "velocity": 109, "channel": 0}, {"type": "note_off", "time": 44, "note": 60, "velocity": 109, "channel": 0}, {"type": "note_on", "time": 22, "note": 58, "velocity": 110, "channel": 0}, {"type": "note_off", "time": 113, "note": 58, "velocity": 110, "channel": 0}, {"type": "note_on", "time": 16, "note": 56, "velocity": 100, "channel": 0}, {"type": "note_off", "time": 45, "note": 56, "velocity": 100, "channel": 0}, {"type": "note_on", "time": 13, "note": 58, "velocity": 112, "channel": 0}, {"type": "note_off", "time": 101, "note": 58, "velocity": 112, "channel": 0}, {"type": "note_on", "time": 10, "note": 58, "velocity": 116, "channel": 0}, {"type": "note_off", "time": 46, "note": 58, "velocity": 116, "channel": 0}, {"type": "note_on", "time": 11, "note": 56, "velocity": 115, "channel": 0}, {"type": "note_off", "time": 58, "note": 56, "velocity": 115, "channel": 0}, {"type": "note_on", "time": 312, "note": 55, "velocity": 108, "channel": 0}, {"type": "note_off", "time": 24, "note": 55, "velocity": 108, "channel": 0}, {"type": "note_on", "time": 22, "note": 62, "velocity": 123, "channel": 0}, {"type": "note_off", "time": 100, "note": 62, "velocity": 123, "channel": 0}, {"type": "note_on", "time": 20, "note": 61, "velocity": 123, "channel": 0}, {"type": "note_off", "time": 207, "note": 61, "velocity": 123, "channel": 0}, {"type": "note_on", "time": 32, "note": 59, "velocity": 113, "channel": 0}, {"type": "note_off", "time": 93, "note": 59, "velocity": 113, "channel": 0}, {"type": "note_on", "time": 34, "note": 57, "velocity": 109, "channel": 0}, {"type": "note_off", "time": 48, "note": 57, "velocity": 109, "channel": 0}, {"type": "note_on", "time": 7, "note": 56, "velocity": 108, "channel": 0}, {"type": "note_off", "time": 97, "note": 56, "velocity": 108, "channel": 0}, {"type": "note_on", "time": 54, "note": 54, "velocity": 109, "channel": 0}, {"type": "note_off", "time": 146, "note": 54, "velocity": 109, "channel": 0}, {"type": "note_on", "time": 12, "note": 54, "velocity": 110, "channel": 0}, {"type": "note_off", "time": 38, "note": 54, "velocity": 110, "channel": 0}, {"type": "note_on", "time": 785, "note": 66, "velocity": 126, "channel": 0}, {"type": "note_off", "time": 57, "note": 66, "velocity": 126, "channel": 0}, {"type": "note_on", "time": 11, "note": 66, "velocity": 117, "channel": 0}, {"type": "note_off", "time": 67, "note": 66, "velocity": 117, "channel": 0}, {"type": "note_on", "time": 11, "note": 64, "velocity": 118, "channel": 0}, {"type": "note_off", "time": 30, "note": 64, "velocity": 118, "channel": 0}, {"type": "note_on", "time": 24, "note": 66, "velocity": 124, "channel": 0}, {"type": "note_off", "time": 118, "note": 66, "velocity": 124, "channel": 0}, {"type": "note_on", "time": 17, "note": 66, "velocity": 122, "channel": 0}, {"type": "note_off", "time": 44, "note": 66, "velocity": 122, "channel": 0}, {"type": "note_on", "time": 546, "note": 69, "velocity": 117, "channel": 0}, {"type": "note_off", "time": 96, "note": 69, "velocity": 117, "channel": 0}, {"type": "note_on", "time": 84, "note": 69, "velocity": 118, "channel": 0}, {"type": "note_off", "time": 233, "note": 69, "velocity": 118, "channel": 0}, {"type": "note_on", "time": 18, "note": 66, "velocity": 119, "channel": 0}, {"type": "note_off", "time": 125, "note": 66, "velocity": 119, "channel": 0}, {"type": "note_on", "time": 19, "note": 64, "velocity": 108, "channel": 0}, {"type": "note_off", "time": 40, "note": 64, "velocity": 108, "channel": 0}, {"type": "note_on", "time": 11, "note": 66, "velocity": 112, "channel": 0}, {"type": "note_off", "time": 127, "note": 66, "velocity": 112, "channel": 0}, {"type": "note_on", "time": 13, "note": 66, "velocity": 108, "channel": 0}, {"type": "note_off", "time": 51, "note": 66, "velocity": 108, "channel": 0}, {"type": "note_on", "time": 883, "note": 68, "velocity": 127, "channel": 0}, {"type": "note_off", "time": 41, "note": 68, "velocity": 127, "channel": 0}, {"type": "note_on", "time": 8, "note": 69, "velocity": 126, "channel": 0}, {"type": "note_off", "time": 241, "note": 69, "velocity": 126, "channel": 0}, {"type": "note_on", "time": 36, "note": 66, "velocity": 121, "channel": 0}, {"type": "note_off", "time": 38, "note": 66, "velocity": 121, "channel": 0}, {"type": "note_on", "time": 18, "note": 64, "velocity": 117, "channel": 0}, {"type": "note_off", "time": 46, "note": 64, "velocity": 117, "channel": 0}, {"type": "note_on", "time": 11, "note": 66, "velocity": 125, "channel": 0}, {"type": "note_off", "time": 122, "note": 66, "velocity": 125, "channel": 0}, {"type": "note_on", "time": 8, "note": 66, "velocity": 121, "channel": 0}, {"type": "note_off", "time": 45, "note": 66, "velocity": 121, "channel": 0}, {"type": "note_on", "time": 197, "note": 66, "velocity": 122, "channel": 0}, {"type": "note_off", "time": 94, "note": 66, "velocity": 122, "channel": 0}, {"type": "note_on", "time": 5, "note": 65, "velocity": 113, "channel": 0}, {"type": "note_off", "time": 49, "note": 65, "velocity": 113, "channel": 0}, {"type": "note_on", "time": 378, "note": 69, "velocity": 126, "channel": 0}, {"type": "note_off", "time": 69, "note": 69, "velocity": 126, "channel": 0}, {"type": "note_on", "time": 7, "note": 68, "velocity": 113, "channel": 0}, {"type": "note_off", "time": 53, "note": 68, "velocity": 113, "channel": 0}, {"type": "note_on", "time": 70, "note": 69, "velocity": 121, "channel": 0}, {"type": "note_off", "time": 300, "note": 69, "velocity": 121, "channel": 0}, {"type": "note_on", "time": 19, "note": 66, "velocity": 116, "channel": 0}, {"type": "note_off", "time": 34, "note": 66, "velocity": 116, "channel": 0}, {"type": "note_on", "time": 22, "note": 64, "velocity": 116, "channel": 0}, {"type": "note_off", "time": 49, "note": 64, "velocity": 116, "channel": 0}, {"type": "note_on", "time": 19, "note": 66, "velocity": 116, "channel": 0}, {"type": "note_off", "time": 50, "note": 66, "velocity": 116, "channel": 0}, {"type": "note_on", "time": 7, "note": 66, "velocity": 123, "channel": 0}, {"type": "note_off", "time": 43, "note": 66, "velocity": 123, "channel": 0}, {"type": "note_on", "time": 16, "note": 64, "velocity": 116, "channel": 0}, {"type": "note_off", "time": 53, "note": 64, "velocity": 116, "channel": 0}, {"type": "note_on", "time": 13, "note": 66, "velocity": 120, "channel": 0}, {"type": "note_off", "time": 73, "note": 66, "velocity": 120, "channel": 0}, {"type": "note_on", "time": 224, "note": 64, "velocity": 125, "channel": 0}, {"type": "note_off", "time": 66, "note": 64, "velocity": 125, "channel": 0}, {"type": "note_on", "time": 17, "note": 61, "velocity": 113, "channel": 0}, {"type": "note_off", "time": 80, "note": 61, "velocity": 113, "channel": 0}, {"type": "note_on", "time": 192, "note": 62, "velocity": 120, "channel": 0}, {"type": "note_off", "time": 60, "note": 62, "velocity": 120, "channel": 0}, {"type": "note_on", "time": 14, "note": 59, "velocity": 111, "channel": 0}, {"type": "note_off", "time": 60, "note": 59, "velocity": 111, "channel": 0}, {"type": "note_on", "time": 226, "note": 60, "velocity": 107, "channel": 0}, {"type": "note_off", "time": 29, "note": 60, "velocity": 107, "channel": 0}, {"type": "note_on", "time": 7, "note": 61, "velocity": 119, "channel": 0}, {"type": "note_off", "time": 62, "note": 61, "velocity": 119, "channel": 0}, {"type": "note_on", "time": 11, "note": 57, "velocity": 112, "channel": 0}, {"type": "note_off", "time": 49, "note": 57, "velocity": 112, "channel": 0}, {"type": "note_on", "time": 216, "note": 58, "velocity": 110, "channel": 0}, {"type": "note_off", "time": 31, "note": 58, "velocity": 110, "channel": 0}, {"type": "note_on", "time": 11, "note": 59, "velocity": 121, "channel": 0}, {"type": "note_off", "time": 50, "note": 59, "velocity": 121, "channel": 0}, {"type": "note_on", "time": 9, "note": 54, "velocity": 114, "channel": 0}, {"type": "note_off", "time": 107, "note": 54, "velocity": 114, "channel": 0}, {"type": "note_on", "time": 197, "note": 57, "velocity": 120, "channel": 0}, {"type": "note_off", "time": 65, "note": 57, "velocity": 120, "channel": 0}, {"type": "note_on", "time": 15, "note": 55, "velocity": 111, "channel": 0}, {"type": "note_off", "time": 48, "note": 55, "velocity": 111, "channel": 0}, {"type": "note_on", "time": 287, "note": 63, "velocity": 124, "channel": 0}, {"type": "note_off", "time": 25, "note": 63, "velocity": 124, "channel": 0}, {"type": "note_on", "time": 8, "note": 59, "velocity": 112, "channel": 0}, {"type": "note_off", "time": 17, "note": 59, "velocity": 112, "channel": 0}, {"type": "note_on", "time": 8, "note": 56, "velocity": 118, "channel": 0}, {"type": "note_off", "time": 78, "note": 56, "velocity": 118, "channel": 0}, {"type": "note_on", "time": 216, "note": 63, "velocity": 119, "channel": 0}, {"type": "note_off", "time": 20, "note": 63, "velocity": 119, "channel": 0}, {"type": "note_on", "time": 12, "note": 61, "velocity": 121, "channel": 0}, {"type": "note_off", "time": 17, "note": 61, "velocity": 121, "channel": 0}, {"type": "note_on", "time": 4, "note": 57, "velocity": 119, "channel": 0}, {"type": "note_off", "time": 80, "note": 57, "velocity": 119, "channel": 0}, {"type": "note_on", "time": 242, "note": 61, "velocity": 123, "channel": 0}, {"type": "note_off", "time": 38, "note": 61, "velocity": 123, "channel": 0}, {"type": "note_on", "time": 5, "note": 62, "velocity": 122, "channel": 0}, {"type": "note_off", "time": 90, "note": 62, "velocity": 122, "channel": 0}, {"type": "note_on", "time": 15, "note": 60, "velocity": 114, "channel": 0}, {"type": "note_off", "time": 31, "note": 60, "velocity": 114, "channel": 0}, {"type": "note_on", "time": 24, "note": 57, "velocity": 110, "channel": 0}, {"type": "note_off", "time": 39, "note": 57, "velocity": 110, "channel": 0}, {"type": "note_on", "time": 29, "note": 56, "velocity": 110, "channel": 0}, {"type": "note_off", "time": 77, "note": 56, "velocity": 110, "channel": 0}, {"type": "note_on", "time": 24, "note": 54, "velocity": 114, "channel": 0}, {"type": "note_off", "time": 46, "note": 54, "velocity": 114, "channel": 0}, {"type": "note_on", "time": 142, "note": 56, "velocity": 122, "channel": 0}, {"type": "note_off", "time": 36, "note": 56, "velocity": 122, "channel": 0}, {"type": "note_on", "time": 12, "note": 57, "velocity": 118, "channel": 0}, {"type": "note_off", "time": 125, "note": 57, "velocity": 118, "channel": 0}, {"type": "note_on", "time": 22, "note": 60, "velocity": 115, "channel": 0}, {"type": "note_off", "time": 19, "note": 60, "velocity": 115, "channel": 0}, {"type": "note_on", "time": 10, "note": 61, "velocity": 122, "channel": 0}, {"type": "note_off", "time": 112, "note": 61, "velocity": 122, "channel": 0}, {"type": "note_on", "time": 34, "note": 59, "velocity": 113, "channel": 0}, {"type": "note_off", "time": 86, "note": 59, "velocity": 113, "channel": 0}, {"type": "note_on", "time": 19, "note": 62, "velocity": 116, "channel": 0}, {"type": "note_off", "time": 17, "note": 62, "velocity": 116, "channel": 0}, {"type": "note_on", "time": 11, "note": 59, "velocity": 106, "channel": 0}, {"type": "note_off", "time": 24, "note": 59, "velocity": 106, "channel": 0}, {"type": "note_on", "time": 19, "note": 57, "velocity": 112, "channel": 0}, {"type": "note_off", "time": 48, "note": 57, "velocity": 112, "channel": 0}, {"type": "note_on", "time": 33, "note": 56, "velocity": 114, "channel": 0}, {"type": "note_off", "time": 90, "note": 56, "velocity": 114, "channel": 0}, {"type": "note_on", "time": 34, "note": 54, "velocity": 109, "channel": 0}, {"type": "note_off", "time": 58, "note": 54, "velocity": 109, "channel": 0}, {"type": "note_on", "time": 20, "note": 57, "velocity": 95, "channel": 0}, {"type": "note_off", "time": 90, "note": 57, "velocity": 95, "channel": 0}, {"type": "note_on", "time": 11, "note": 57, "velocity": 98, "channel": 0}, {"type": "note_off", "time": 45, "note": 57, "velocity": 98, "channel": 0}, {"type": "end_of_track", "time": 0}]]}