{"ticks_per_beat": 192, "tracks": [[{"type": "track_name", "name": "Melody", "time": 0}, {"type": "set_tempo", "tempo": 231660, "time": 0}, {"type": "key_signature", "key": "F#", "time": 0}, {"type": "time_signature", "numerator": 4, "denominator": 4, "clocks_per_click": 24, "notated_32nd_notes_per_beat": 8, "time": 0}, {"type": "note_on", "time": 2687, "note": 81, "velocity": 98, "channel": 0}, {"type": "note_off", "time": 57, "note": 81, "velocity": 98, "channel": 0}, {"type": "note_on", "time": 18, "note": 78, "velocity": 92, "channel": 0}, {"type": "note_off", "time": 50, "note": 78, "velocity": 92, "channel": 0}, {"type": "note_on", "time": 10, "note": 81, "velocity": 110, "channel": 0}, {"type": "note_off", "time": 62, "note": 81, "velocity": 110, "channel": 0}, {"type": "note_on", "time": 9, "note": 78, "velocity": 114, "channel": 0}, {"type": "note_off", "time": 51, "note": 78, "velocity": 114, "channel": 0}, {"type": "note_on", "time": 7, "note": 82, "velocity": 115, "channel": 0}, {"type": "note_off", "time": 38, "note": 82, "velocity": 115, "channel": 0}, {"type": "note_on", "time": 7, "note": 84, "velocity": 100, "channel": 0}, {"type": "note_off", "time": 8, "note": 84, "velocity": 100, "channel": 0}, {"type": "note_on", "time": 6, "note": 85, "velocity": 124, "channel": 0}, {"type": "note_off", "time": 58, "note": 85, "velocity": 124, "channel": 0}, {"type": "note_on", "time": 10, "note": 87, "velocity": 102, "channel": 0}, {"type": "note_off", "time": 15, "note": 87, "velocity": 102, "channel": 0}, {"type": "note_on", "time": 4, "note": 89, "velocity": 111, "channel": 0}, {"type": "note_off", "time": 39, "note": 89, "velocity": 111, "channel": 0}, {"type": "note_on", "time": 19, "note": 86, "velocity": 111, "channel": 0}, {"type": "note_off", "time": 96, "note": 86, "velocity": 111, "channel": 0}, {"type": "note_on", "time": 134, "note": 90, "velocity": 115, "channel": 0}, {"type": "note_off", "time": 2333, "note": 90, "velocity": 115, "channel": 0}, {"type": "note_on", "time": 94, "note": 82, "velocity": 103, "channel": 0}, {"type": "note_off", "time": 50, "note": 82, "velocity": 103, "channel": 0}, {"type": "note_on", "time": 8, "note": 83, "velocity": 98, "channel": 0}, {"type": "note_off", "time": 69, "note": 83, "velocity": 98, "channel": 0}, {"type": "note_on", "time": 23, "note": 84, "velocity": 114, "channel": 0}, {"type": "note_off", "time": 60, "note": 84, "velocity": 114, "channel": 0}, {"type": "note_on", "time": 23, "note": 79, "velocity": 109, "channel": 0}, {"type": "note_off", "time": 42, "note": 79, "velocity": 109, "channel": 0}, {"type": "note_on", "time": 8, "note": 85, "velocity": 117, "channel": 0}, {"type": "note_off", "time": 86, "note": 85, "velocity": 117, "channel": 0}, {"type": "note_on", "time": 13, "note": 84, "velocity": 111, "channel": 0}, {"type": "note_off", "time": 30, "note": 84, "velocity": 111, "channel": 0}, {"type": "note_on", "time": 8, "note": 83, "velocity": 108, "channel": 0}, {"type": "note_off", "time": 33, "note": 83, "velocity": 108, "channel": 0}, {"type": "note_on", "time": 19, "note": 80, "velocity": 100, "channel": 0}, {"type": "note_off", "time": 43, "note": 80, "velocity": 100, "channel": 0}, {"type": "note_on", "time": 50, "note": 80, "velocity": 108, "channel": 0}, {"type": "note_off", "time": 40, "note": 80, "velocity": 108, "channel": 0}, {"type": "note_on", "time": 8, "note": 81, "velocity": 108, "channel": 0}, {"type": "note_off", "time": 46, "note": 81, "velocity": 108, "channel": 0}, {"type": "note_on", "time": 7, "note": 80, "velocity": 113, "channel": 0}, {"type": "note_off", "time": 61, "note": 80, "velocity": 113, "channel": 0}, {"type": "note_on", "time": 26, "note": 77, "velocity": 114, "channel": 0}, {"type": "note_off", "time": 33, "note": 77, "velocity": 114, "channel": 0}, {"type": "note_on", "time": 8, "note": 74, "velocity": 110, "channel": 0}, {"type": "note_off", "time": 26, "note": 74, "velocity": 110, "channel": 0}, {"type": "note_on", "time": 27, "note": 76, "velocity": 110, "channel": 0}, {"type": "note_off", "time": 27, "note": 76, "velocity": 110, "channel": 0}, {"type": "note_on", "time": 19, "note": 68, "velocity": 117, "channel": 0}, {"type": "note_off", "time": 37, "note": 68, "velocity": 117, "channel": 0}, {"type": "note_on", "time": 39, "note": 74, "velocity": 114, "channel": 0}, {"type": "note_off", "time": 32, "note": 74, "velocity": 114, "channel": 0}, {"type": "note_on", "time": 10, "note": 73, "velocity": 113, "channel": 0}, {"type": "note_off", "time": 32, "note": 73, "velocity": 113, "channel": 0}, {"type": "note_on", "time": 19, "note": 77, "velocity": 108, "channel": 0}, {"type": "note_off", "time": 30, "note": 77, "velocity": 108, "channel": 0}, {"type": "note_on", "time": 12, "note": 70, "velocity": 107, "channel": 0}, {"type": "note_off", "time": 50, "note": 70, "velocity": 107, "channel": 0}, {"type": "note_on", "time": 20, "note": 67, "velocity": 119, "channel": 0}, {"type": "note_off", "time": 63, "note": 67, "velocity": 119, "channel": 0}, {"type": "note_on", "time": 7, "note": 69, "velocity": 118, "channel": 0}, {"type": "note_off", "time": 68, "note": 69, "velocity": 118, "channel": 0}, {"type": "note_on", "time": 28, "note": 61, "velocity": 112, "channel": 0}, {"type": "note_off", "time": 54, "note": 61, "velocity": 112, "channel": 0}, {"type": "note_on", "time": 10, "note": 60, "velocity": 110, "channel": 0}, {"type": "note_off", "time": 57, "note": 60, "velocity": 110, "channel": 0}, {"type": "note_on", "time": 30, "note": 59, "velocity": 110, "channel": 0}, {"type": "note_off", "time": 923, "note": 59, "velocity": 110, "channel": 0}, {"type": "note_on", "time": 44, "note": 70, "velocity": 119, "channel": 0}, {"type": "note_off", "time": 76, "note": 70, "velocity": 119, "channel": 0}, {"type": "note_on", "time": 21, "note": 64, "velocity": 115, "channel": 0}, {"type": "note_off", "time": 91, "note": 64, "velocity": 115, "channel": 0}, {"type": "note_on", "time": 20, "note": 66, "velocity": 121, "channel": 0}, {"type": "note_off", "time": 71, "note": 66, "velocity": 121, "channel": 0}, {"type": "note_on", "time": 13, "note": 67, "velocity": 116, "channel": 0}, {"type": "note_off", "time": 69, "note": 67, "velocity": 116, "channel": 0}, {"type": "note_on", "time": 16, "note": 69, "velocity": 119, "channel": 0}, {"type": "note_off", "time": 64, "note": 69, "velocity": 119, "channel": 0}, {"type": "note_on", "time": 10, "note": 66, "velocity": 118, "channel": 0}, {"type": "note_off", "time": 74, "note": 66, "velocity": 118, "channel": 0}, {"type": "note_on", "time": 25, "note": 66, "velocity": 119, "channel": 0}, {"type": "note_off", "time": 77, "note": 66, "velocity": 119, "channel": 0}, {"type": "note_on", "time": 27, "note": 62, "velocity": 106, "channel": 0}, {"type": "note_off", "time": 81, "note": 62, "velocity": 106, "channel": 0}, {"type": "note_on", "time": 21, "note": 66, "velocity": 119, "channel": 0}, {"type": "note_off", "time": 54, "note": 66, "velocity": 119, "channel": 0}, {"type": "note_on", "time": 33, "note": 64, "velocity": 111, "channel": 0}, {"type": "note_off", "time": 94, "note": 64, "velocity": 111, "channel": 0}, {"type": "note_on", "time": 8, "note": 66, "velocity": 106, "channel": 0}, {"type": "note_off", "time": 59, "note": 66, "velocity": 106, "channel": 0}, {"type": "note_on", "time": 23, "note": 69, "velocity": 105, "channel": 0}, {"type": "note_off", "time": 96, "note": 69, "velocity": 105, "channel": 0}, {"type": "note_on", "time": 21, "note": 71, "velocity": 100, "channel": 0}, {"type": "note_off", "time": 57, "note": 71, "velocity": 100, "channel": 0}, {"type": "note_on", "time": 18, "note": 73, "velocity": 110, "channel": 0}, {"type": "note_off", "time": 167, "note": 73, "velocity": 110, "channel": 0}, {"type": "note_on", "time": 16, "note": 70, "velocity": 112, "channel": 0}, {"type": "note_off", "time": 177, "note": 70, "velocity": 112, "channel": 0}, {"type": "note_on", "time": 5571, "note": 70, "velocity": 111, "channel": 0}, {"type": "note_off", "time": 60, "note": 70, "velocity": 111, "channel": 0}, {"type": "note_on", "time": 38, "note": 69, "velocity": 96, "channel": 0}, {"type": "note_off", "time": 96, "note": 69, "velocity": 96, "channel": 0}, {"type": "note_on", "time": 15, "note": 77, "velocity": 124, "channel": 0}, {"type": "note_off", "time": 79, "note": 77, "velocity": 124, "channel": 0}, {"type": "note_on", "time": 11, "note": 76, "velocity": 122, "channel": 0}, {"type": "note_off", "time": 50, "note": 76, "velocity": 122, "channel": 0}, {"type": "note_on", "time": 27, "note": 75, "velocity": 114, "channel": 0}, {"type": "note_off", "time": 76, "note": 75, "velocity": 114, "channel": 0}, {"type": "note_on", "time": 20, "note": 77, "velocity": 115, "channel": 0}, {"type": "note_off", "time": 77, "note": 77, "velocity": 115, "channel": 0}, {"type": "note_on", "time": 21, "note": 77, "velocity": 127, "channel": 0}, {"type": "note_off", "time": 77, "note": 77, "velocity": 127, "channel": 0}, {"type": "note_on", "time": 13, "note": 79, "velocity": 120, "channel": 0}, {"type": "note_off", "time": 89, "note": 79, "velocity": 120, "channel": 0}, {"type": "note_on", "time": 3, "note": 81, "velocity": 112, "channel": 0}, {"type": "note_off", "time": 27, "note": 81, "velocity": 112, "channel": 0}, {"type": "note_on", "time": 38, "note": 70, "velocity": 102, "channel": 0}, {"type": "note_off", "time": 60, "note": 70, "velocity": 102, "channel": 0}, {"type": "note_on", "time": 20, "note": 77, "velocity": 124, "channel": 0}, {"type": "note_off", "time": 89, "note": 77, "velocity": 124, "channel": 0}, {"type": "note_on", "time": 16, "note": 79, "velocity": 121, "channel": 0}, {"type": "note_off", "time": 38, "note": 79, "velocity": 121, "channel": 0}, {"type": "note_on", "time": 16, "note": 81, "velocity": 121, "channel": 0}, {"type": "note_off", "time": 67, "note": 81, "velocity": 121, "channel": 0}, {"type": "note_on", "time": 16, "note": 78, "velocity": 118, "channel": 0}, {"type": "note_off", "time": 69, "note": 78, "velocity": 118, "channel": 0}, {"type": "note_on", "time": 16, "note": 77, "velocity": 113, "channel": 0}, {"type": "note_off", "time": 72, "note": 77, "velocity": 113, "channel": 0}, {"type": "note_on", "time": 21, "note": 75, "velocity": 112, "channel": 0}, {"type": "note_off", "time": 65, "note": 75, "velocity": 112, "channel": 0}, {"type": "note_on", "time": 28, "note": 74, "velocity": 113, "channel": 0}, {"type": "note_off", "time": 128, "note": 74, "velocity": 113, "channel": 0}, {"type": "note_on", "time": 64, "note": 68, "velocity": 119, "channel": 0}, {"type": "note_off", "time": 74, "note": 68, "velocity": 119, "channel": 0}, {"type": "note_on", "time": 15, "note": 66, "velocity": 115, "channel": 0}, {"type": "note_off", "time": 87, "note": 66, "velocity": 115, "channel": 0}, {"type": "note_on", "time": 8, "note": 62, "velocity": 103, "channel": 0}, {"type": "note_off", "time": 57, "note": 62, "velocity": 103, "channel": 0}, {"type": "note_on", "time": 10, "note": 69, "velocity": 114, "channel": 0}, {"type": "note_off", "time": 54, "note": 69, "velocity": 114, "channel": 0}, {"type": "note_on", "time": 32, "note": 74, "velocity": 107, "channel": 0}, {"type": "note_off", "time": 62, "note": 74, "velocity": 107, "channel": 0}, {"type": "note_on", "time": 13, "note": 73, "velocity": 111, "channel": 0}, {"type": "note_off", "time": 67, "note": 73, "velocity": 111, "channel": 0}, {"type": "note_on", "time": 25, "note": 70, "velocity": 117, "channel": 0}, {"type": "note_off", "time": 52, "note": 70, "velocity": 117, "channel": 0}, {"type": "note_on", "time": 18, "note": 67, "velocity": 115, "channel": 0}, {"type": "note_off", "time": 74, "note": 67, "velocity": 115, "channel": 0}, {"type": "note_on", "time": 1, "note": 69, "velocity": 115, "channel": 0}, {"type": "note_off", "time": 49, "note": 69, "velocity": 115, "channel": 0}, {"type": "note_on", "time": 27, "note": 66, "velocity": 112, "channel": 0}, {"type": "note_off", "time": 54, "note": 66, "velocity": 112, "channel": 0}, {"type": "note_on", "time": 20, "note": 61, "velocity": 111, "channel": 0}, {"type": "note_off", "time": 60, "note": 61, "velocity": 111, "channel": 0}, {"type": "note_on", "time": 20, "note": 66, "velocity": 118, "channel": 0}, {"type": "note_off", "time": 65, "note": 66, "velocity": 118, "channel": 0}, {"type": "note_on", "time": 28, "note": 63, "velocity": 112, "channel": 0}, {"type": "note_off", "time": 49, "note": 63, "velocity": 112, "channel": 0}, {"type": "note_on", "time": 20, "note": 66, "velocity": 102, "channel": 0}, {"type": "note_off", "time": 32, "note": 66, "velocity": 102, "channel": 0}, {"type": "note_on", "time": 20, "note": 68, "velocity": 119, "channel": 0}, {"type": "note_off", "time": 86, "note": 68, "velocity": 119, "channel": 0}, {"type": "note_on", "time": 8, "note": 69, "velocity": 114, "channel": 0}, {"type": "note_off", "time": 54, "note": 69, "velocity": 114, "channel": 0}, {"type": "note_on", "time": 33, "note": 75, "velocity": 115, "channel": 0}, {"type": "note_off", "time": 74, "note": 75, "velocity": 115, "channel": 0}, {"type": "note_on", "time": 16, "note": 73, "velocity": 110, "channel": 0}, {"type": "note_off", "time": 93, "note": 73, "velocity": 110, "channel": 0}, {"type": "note_on", "time": 1, "note": 69, "velocity": 116, "channel": 0}, {"type": "note_off", "time": 67, "note": 69, "velocity": 116, "channel": 0}, {"type": "note_on", "time": 0, "note": 66, "velocity": 114, "channel": 0}, {"type": "note_off", "time": 62, "note": 66, "velocity": 114, "channel": 0}, {"type": "note_on", "time": 13, "note": 70, "velocity": 113, "channel": 0}, {"type": "note_off", "time": 84, "note": 70, "velocity": 113, "channel": 0}, {"type": "note_on", "time": 8, "note": 72, "velocity": 103, "channel": 0}, {"type": "note_off", "time": 52, "note": 72, "velocity": 103, "channel": 0}, {"type": "note_on", "time": 6, "note": 74, "velocity": 107, "channel": 0}, {"type": "note_off", "time": 42, "note": 74, "velocity": 107, "channel": 0}, {"type": "note_on", "time": 20, "note": 79, "velocity": 119, "channel": 0}, {"type": "note_off", "time": 86, "note": 79, "velocity": 119, "channel": 0}, {"type": "note_on", "time": 25, "note": 72, "velocity": 102, "channel": 0}, {"type": "note_off", "time": 72, "note": 72, "velocity": 102, "channel": 0}, {"type": "note_on", "time": 18, "note": 77, "velocity": 123, "channel": 0}, {"type": "note_off", "time": 67, "note": 77, "velocity": 123, "channel": 0}, {"type": "note_on", "time": 16, "note": 79, "velocity": 123, "channel": 0}, {"type": "note_off", "time": 108, "note": 79, "velocity": 123, "channel": 0}, {"type": "note_on", "time": 20, "note": 82, "velocity": 116, "channel": 0}, {"type": "note_off", "time": 103, "note": 82, "velocity": 116, "channel": 0}, {"type": "note_on", "time": 43, "note": 84, "velocity": 114, "channel": 0}, {"type": "note_off", "time": 98, "note": 84, "velocity": 114, "channel": 0}, {"type": "note_on", "time": 13, "note": 85, "velocity": 102, "channel": 0}, {"type": "note_off", "time": 65, "note": 85, "velocity": 102, "channel": 0}, {"type": "note_on", "time": 91, "note": 82, "velocity": 116, "channel": 0}, {"type": "note_off", "time": 103, "note": 82, "velocity": 116, "channel": 0}, {"type": "note_on", "time": 23, "note": 84, "velocity": 107, "channel": 0}, {"type": "note_off", "time": 1036, "note": 84, "velocity": 107, "channel": 0}, {"type": "note_on", "time": 27, "note": 85, "velocity": 110, "channel": 0}, {"type": "note_off", "time": 62, "note": 85, "velocity": 110, "channel": 0}, {"type": "note_on", "time": 21, "note": 84, "velocity": 112, "channel": 0}, {"type": "note_off", "time": 43, "note": 84, "velocity": 112, "channel": 0}, {"type": "note_on", "time": 16, "note": 83, "velocity": 118, "channel": 0}, {"type": "note_off", "time": 57, "note": 83, "velocity": 118, "channel": 0}, {"type": "note_on", "time": 20, "note": 82, "velocity": 112, "channel": 0}, {"type": "note_off", "time": 443, "note": 82, "velocity": 112, "channel": 0}, {"type": "note_on", "time": 23, "note": 70, "velocity": 112, "channel": 0}, {"type": "note_off", "time": 35, "note": 70, "velocity": 112, "channel": 0}, {"type": "note_on", "time": 89, "note": 82, "velocity": 115, "channel": 0}, {"type": "note_off", "time": 121, "note": 82, "velocity": 115, "channel": 0}, {"type": "note_on", "time": 69, "note": 82, "velocity": 117, "channel": 0}, {"type": "note_off", "time": 126, "note": 82, "velocity": 117, "channel": 0}, {"type": "note_on", "time": 82, "note": 82, "velocity": 119, "channel": 0}, {"type": "note_off", "time": 101, "note": 82, "velocity": 119, "channel": 0}, {"type": "note_on", "time": 89, "note": 82, "velocity": 118, "channel": 0}, {"type": "note_off", "time": 113, "note": 82, "velocity": 118, "channel": 0}, {"type": "note_on", "time": 20, "note": 81, "velocity": 119, "channel": 0}, {"type": "note_off", "time": 74, "note": 81, "velocity": 119, "channel": 0}, {"type": "note_on", "time": 10, "note": 82, "velocity": 114, "channel": 0}, {"type": "note_off", "time": 91, "note": 82, "velocity": 114, "channel": 0}, {"type": "note_on", "time": 23, "note": 81, "velocity": 118, "channel": 0}, {"type": "note_off", "time": 77, "note": 81, "velocity": 118, "channel": 0}, {"type": "note_on", "time": 13, "note": 82, "velocity": 107, "channel": 0}, {"type": "note_off", "time": 111, "note": 82, "velocity": 107, "channel": 0}, {"type": "note_on", "time": 6, "note": 84, "velocity": 116, "channel": 0}, {"type": "note_off", "time": 49, "note": 84, "velocity": 116, "channel": 0}, {"type": "note_on", "time": 35, "note": 81, "velocity": 112, "channel": 0}, {"type": "note_off", "time": 345, "note": 81, "velocity": 112, "channel": 0}, {"type": "note_on", "time": 45, "note": 85, "velocity": 108, "channel": 0}, {"type": "note_off", "time": 47, "note": 85, "velocity": 108, "channel": 0}, {"type": "note_on", "time": 35, "note": 81, "velocity": 105, "channel": 0}, {"type": "note_off", "time": 49, "note": 81, "velocity": 105, "channel": 0}, {"type": "note_on", "time": 3, "note": 78, "velocity": 107, "channel": 0}, {"type": "note_off", "time": 52, "note": 78, "velocity": 107, "channel": 0}, {"type": "note_on", "time": 11, "note": 79, "velocity": 116, "channel": 0}, {"type": "note_off", "time": 120, "note": 79, "velocity": 116, "channel": 0}, {"type": "note_on", "time": 16, "note": 81, "velocity": 119, "channel": 0}, {"type": "note_off", "time": 62, "note": 81, "velocity": 119, "channel": 0}, {"type": "note_on", "time": 11, "note": 78, "velocity": 116, "channel": 0}, {"type": "note_off", "time": 60, "note": 78, "velocity": 116, "channel": 0}, {"type": "note_on", "time": 49, "note": 73, "velocity": 113, "channel": 0}, {"type": "note_off", "time": 69, "note": 73, "velocity": 113, "channel": 0}, {"type": "note_on", "time": 16, "note": 71, "velocity": 111, "channel": 0}, {"type": "note_off", "time": 89, "note": 71, "velocity": 111, "channel": 0}, {"type": "note_on", "time": 27, "note": 69, "velocity": 99, "channel": 0}, {"type": "note_off", "time": 54, "note": 69, "velocity": 99, "channel": 0}, {"type": "note_on", "time": 37, "note": 76, "velocity": 117, "channel": 0}, {"type": "note_off", "time": 109, "note": 76, "velocity": 117, "channel": 0}, {"type": "note_on", "time": 106, "note": 80, "velocity": 119, "channel": 0}, {"type": "note_off", "time": 99, "note": 80, "velocity": 119, "channel": 0}, {"type": "note_on", "time": 11, "note": 78, "velocity": 115, "channel": 0}, {"type": "note_off", "time": 221, "note": 78, "velocity": 115, "channel": 0}, {"type": "note_on", "time": 25, "note": 76, "velocity": 115, "channel": 0}, {"type": "note_off", "time": 74, "note": 76, "velocity": 115, "channel": 0}, {"type": "note_on", "time": 1, "note": 77, "velocity": 122, "channel": 0}, {"type": "note_off", "time": 96, "note": 77, "velocity": 122, "channel": 0}, {"type": "note_on", "time": 15, "note": 74, "velocity": 109, "channel": 0}, {"type": "note_off", "time": 72, "note": 74, "velocity": 109, "channel": 0}, {"type": "note_on", "time": 72, "note": 69, "velocity": 109, "channel": 0}, {"type": "note_off", "time": 55, "note": 69, "velocity": 109, "channel": 0}, {"type": "note_on", "time": 23, "note": 67, "velocity": 112, "channel": 0}, {"type": "note_off", "time": 116, "note": 67, "velocity": 112, "channel": 0}, {"type": "note_on", "time": 27, "note": 75, "velocity": 109, "channel": 0}, {"type": "note_off", "time": 45, "note": 75, "velocity": 109, "channel": 0}, {"type": "note_on", "time": 21, "note": 72, "velocity": 105, "channel": 0}, {"type": "note_off", "time": 74, "note": 72, "velocity": 105, "channel": 0}, {"type": "note_on", "time": 13, "note": 74, "velocity": 107, "channel": 0}, {"type": "note_off", "time": 71, "note": 74, "velocity": 107, "channel": 0}, {"type": "note_on", "time": 52, "note": 70, "velocity": 115, "channel": 0}, {"type": "note_off", "time": 65, "note": 70, "velocity": 115, "channel": 0}, {"type": "note_on", "time": 27, "note": 66, "velocity": 114, "channel": 0}, {"type": "note_off", "time": 55, "note": 66, "velocity": 114, "channel": 0}, {"type": "note_on", "time": 15, "note": 62, "velocity": 102, "channel": 0}, {"type": "note_off", "time": 25, "note": 62, "velocity": 102, "channel": 0}, {"type": "note_on", "time": 32, "note": 69, "velocity": 115, "channel": 0}, {"type": "note_off", "time": 57, "note": 69, "velocity": 115, "channel": 0}, {"type": "note_on", "time": 15, "note": 74, "velocity": 104, "channel": 0}, {"type": "note_off", "time": 43, "note": 74, "velocity": 104, "channel": 0}, {"type": "note_on", "time": 16, "note": 72, "velocity": 106, "channel": 0}, {"type": "note_off", "time": 40, "note": 72, "velocity": 106, "channel": 0}, {"type": "note_on", "time": 27, "note": 70, "velocity": 110, "channel": 0}, {"type": "note_off", "time": 49, "note": 70, "velocity": 110, "channel": 0}, {"type": "note_on", "time": 11, "note": 69, "velocity": 114, "channel": 0}, {"type": "note_off", "time": 43, "note": 69, "velocity": 114, "channel": 0}, {"type": "note_on", "time": 11, "note": 66, "velocity": 111, "channel": 0}, {"type": "note_off", "time": 36, "note": 66, "velocity": 111, "channel": 0}, {"type": "note_on", "time": 4, "note": 60, "velocity": 108, "channel": 0}, {"type": "note_off", "time": 38, "note": 60, "velocity": 108, "channel": 0}, {"type": "note_on", "time": 18, "note": 66, "velocity": 119, "channel": 0}, {"type": "note_off", "time": 51, "note": 66, "velocity": 119, "channel": 0}, {"type": "note_on", "time": 16, "note": 60, "velocity": 105, "channel": 0}, {"type": "note_off", "time": 54, "note": 60, "velocity": 105, "channel": 0}, {"type": "note_on", "time": 10, "note": 58, "velocity": 111, "channel": 0}, {"type": "note_off", "time": 62, "note": 58, "velocity": 111, "channel": 0}, {"type": "note_on", "time": 12, "note": 59, "velocity": 104, "channel": 0}, {"type": "note_off", "time": 42, "note": 59, "velocity": 104, "channel": 0}, {"type": "note_on", "time": 31, "note": 71, "velocity": 115, "channel": 0}, {"type": "note_off", "time": 31, "note": 71, "velocity": 115, "channel": 0}, {"type": "note_on", "time": 10, "note": 72, "velocity": 107, "channel": 0}, {"type": "note_off", "time": 28, "note": 72, "velocity": 107, "channel": 0}, {"type": "note_on", "time": 26, "note": 77, "velocity": 119, "channel": 0}, {"type": "note_off", "time": 56, "note": 77, "velocity": 119, "channel": 0}, {"type": "note_on", "time": 12, "note": 78, "velocity": 118, "channel": 0}, {"type": "note_off", "time": 49, "note": 78, "velocity": 118, "channel": 0}, {"type": "note_on", "time": 7, "note": 81, "velocity": 118, "channel": 0}, {"type": "note_off", "time": 50, "note": 81, "velocity": 118, "channel": 0}, {"type": "note_on", "time": 6, "note": 70, "velocity": 102, "channel": 0}, {"type": "note_off", "time": 33, "note": 70, "velocity": 102, "channel": 0}, {"type": "note_on", "time": 7, "note": 75, "velocity": 103, "channel": 0}, {"type": "note_off", "time": 28, "note": 75, "velocity": 103, "channel": 0}, {"type": "note_on", "time": 7, "note": 72, "velocity": 103, "channel": 0}, {"type": "note_off", "time": 42, "note": 72, "velocity": 103, "channel": 0}, {"type": "note_on", "time": 9, "note": 68, "velocity": 110, "channel": 0}, {"type": "note_off", "time": 13, "note": 68, "velocity": 110, "channel": 0}, {"type": "note_on", "time": 4, "note": 69, "velocity": 116, "channel": 0}, {"type": "note_off", "time": 34, "note": 69, "velocity": 116, "channel": 0}, {"type": "note_on", "time": 4, "note": 65, "velocity": 116, "channel": 0}, {"type": "note_off", "time": 49, "note": 65, "velocity": 116, "channel": 0}, {"type": "note_on", "time": 20, "note": 71, "velocity": 111, "channel": 0}, {"type": "note_off", "time": 63, "note": 71, "velocity": 111, "channel": 0}, {"type": "note_on", "time": 3, "note": 72, "velocity": 104, "channel": 0}, {"type": "note_off", "time": 33, "note": 72, "velocity": 104, "channel": 0}, {"type": "note_on", "time": 7, "note": 75, "velocity": 109, "channel": 0}, {"type": "note_off", "time": 39, "note": 75, "velocity": 109, "channel": 0}, {"type": "note_on", "time": 15, "note": 78, "velocity": 117, "channel": 0}, {"type": "note_off", "time": 28, "note": 78, "velocity": 117, "channel": 0}, {"type": "note_on", "time": 6, "note": 79, "velocity": 113, "channel": 0}, {"type": "note_off", "time": 28, "note": 79, "velocity": 113, "channel": 0}, {"type": "note_on", "time": 3, "note": 78, "velocity": 106, "channel": 0}, {"type": "note_off", "time": 19, "note": 78, "velocity": 106, "channel": 0}, {"type": "note_on", "time": 8, "note": 77, "velocity": 117, "channel": 0}, {"type": "note_off", "time": 42, "note": 77, "velocity": 117, "channel": 0}, {"type": "note_on", "time": 13, "note": 79, "velocity": 119, "channel": 0}, {"type": "note_off", "time": 27, "note": 79, "velocity": 119, "channel": 0}, {"type": "note_on", "time": 22, "note": 84, "velocity": 109, "channel": 0}, {"type": "note_off", "time": 36, "note": 84, "velocity": 109, "channel": 0}, {"type": "note_on", "time": 10, "note": 85, "velocity": 110, "channel": 0}, {"type": "note_off", "time": 39, "note": 85, "velocity": 110, "channel": 0}, {"type": "note_on", "time": 15, "note": 86, "velocity": 107, "channel": 0}, {"type": "note_off", "time": 49, "note": 86, "velocity": 107, "channel": 0}, {"type": "note_on", "time": 22, "note": 73, "velocity": 111, "channel": 0}, {"type": "note_off", "time": 50, "note": 73, "velocity": 111, "channel": 0}, {"type": "note_on", "time": 5763, "note": 72, "velocity": 112, "channel": 0}, {"type": "note_off", "time": 33, "note": 72, "velocity": 112, "channel": 0}, {"type": "note_on", "time": 10, "note": 74, "velocity": 116, "channel": 0}, {"type": "note_off", "time": 19, "note": 74, "velocity": 116, "channel": 0}, {"type": "note_on", "time": 7, "note": 75, "velocity": 120, "channel": 0}, {"type": "note_off", "time": 47, "note": 75, "velocity": 120, "channel": 0}, {"type": "note_on", "time": 5, "note": 76, "velocity": 122, "channel": 0}, {"type": "note_off", "time": 58, "note": 76, "velocity": 122, "channel": 0}, {"type": "note_on", "time": 9, "note": 75, "velocity": 114, "channel": 0}, {"type": "note_off", "time": 32, "note": 75, "velocity": 114, "channel": 0}, {"type": "note_on", "time": 4, "note": 74, "velocity": 113, "channel": 0}, {"type": "note_off", "time": 21, "note": 74, "velocity": 113, "channel": 0}, {"type": "note_on", "time": 12, "note": 72, "velocity": 109, "channel": 0}, {"type": "note_off", "time": 36, "note": 72, "velocity": 109, "channel": 0}, {"type": "note_on", "time": 9, "note": 70, "velocity": 116, "channel": 0}, {"type": "note_off", "time": 38, "note": 70, "velocity": 116, "channel": 0}, {"type": "note_on", "time": 13, "note": 73, "velocity": 111, "channel": 0}, {"type": "note_off", "time": 37, "note": 73, "velocity": 111, "channel": 0}, {"type": "note_on", "time": 10, "note": 75, "velocity": 114, "channel": 0}, {"type": "note_off", "time": 53, "note": 75, "velocity": 114, "channel": 0}, {"type": "note_on", "time": 5, "note": 76, "velocity": 119, "channel": 0}, {"type": "note_off", "time": 79, "note": 76, "velocity": 119, "channel": 0}, {"type": "note_on", "time": 14, "note": 74, "velocity": 113, "channel": 0}, {"type": "note_off", "time": 39, "note": 74, "velocity": 113, "channel": 0}, {"type": "note_on", "time": 2, "note": 71, "velocity": 106, "channel": 0}, {"type": "note_off", "time": 66, "note": 71, "velocity": 106, "channel": 0}, {"type": "note_on", "time": 10, "note": 70, "velocity": 111, "channel": 0}, {"type": "note_off", "time": 39, "note": 70, "velocity": 111, "channel": 0}, {"type": "note_on", "time": 16, "note": 73, "velocity": 117, "channel": 0}, {"type": "note_off", "time": 71, "note": 73, "velocity": 117, "channel": 0}, {"type": "note_on", "time": 12, "note": 76, "velocity": 121, "channel": 0}, {"type": "note_off", "time": 51, "note": 76, "velocity": 121, "channel": 0}, {"type": "note_on", "time": 7, "note": 75, "velocity": 120, "channel": 0}, {"type": "note_off", "time": 60, "note": 75, "velocity": 120, "channel": 0}, {"type": "note_on", "time": 13, "note": 74, "velocity": 113, "channel": 0}, {"type": "note_off", "time": 40, "note": 74, "velocity": 113, "channel": 0}, {"type": "note_on", "time": 14, "note": 73, "velocity": 109, "channel": 0}, {"type": "note_off", "time": 33, "note": 73, "velocity": 109, "channel": 0}, {"type": "note_on", "time": 18, "note": 70, "velocity": 120, "channel": 0}, {"type": "note_off", "time": 65, "note": 70, "velocity": 120, "channel": 0}, {"type": "note_on", "time": 10, "note": 61, "velocity": 112, "channel": 0}, {"type": "note_off", "time": 60, "note": 61, "velocity": 112, "channel": 0}, {"type": "note_on", "time": 5, "note": 62, "velocity": 109, "channel": 0}, {"type": "note_off", "time": 53, "note": 62, "velocity": 109, "channel": 0}, {"type": "note_on", "time": 3, "note": 63, "velocity": 111, "channel": 0}, {"type": "note_off", "time": 38, "note": 63, "velocity": 111, "channel": 0}, {"type": "note_on", "time": 7, "note": 64, "velocity": 113, "channel": 0}, {"type": "note_off", "time": 35, "note": 64, "velocity": 113, "channel": 0}, {"type": "note_on", "time": 18, "note": 62, "velocity": 110, "channel": 0}, {"type": "note_off", "time": 66, "note": 62, "velocity": 110, "channel": 0}, {"type": "note_on", "time": 5, "note": 70, "velocity": 121, "channel": 0}, {"type": "note_off", "time": 38, "note": 70, "velocity": 121, "channel": 0}, {"type": "note_on", "time": 13, "note": 60, "velocity": 109, "channel": 0}, {"type": "note_off", "time": 48, "note": 60, "velocity": 109, "channel": 0}, {"type": "note_on", "time": 5, "note": 61, "velocity": 110, "channel": 0}, {"type": "note_off", "time": 81, "note": 61, "velocity": 110, "channel": 0}, {"type": "note_on", "time": 21, "note": 64, "velocity": 119, "channel": 0}, {"type": "note_off", "time": 62, "note": 64, "velocity": 119, "channel": 0}, {"type": "note_on", "time": 9, "note": 63, "velocity": 110, "channel": 0}, {"type": "note_off", "time": 31, "note": 63, "velocity": 110, "channel": 0}, {"type": "note_on", "time": 37, "note": 61, "velocity": 111, "channel": 0}, {"type": "note_off", "time": 60, "note": 61, "velocity": 111, "channel": 0}, {"type": "note_on", "time": 5, "note": 60, "velocity": 111, "channel": 0}, {"type": "note_off", "time": 49, "note": 60, "velocity": 111, "channel": 0}, {"type": "note_on", "time": 10, "note": 65, "velocity": 115, "channel": 0}, {"type": "note_off", "time": 28, "note": 65, "velocity": 115, "channel": 0}, {"type": "note_on", "time": 9, "note": 70, "velocity": 111, "channel": 0}, {"type": "note_off", "time": 29, "note": 70, "velocity": 111, "channel": 0}, {"type": "note_on", "time": 15, "note": 73, "velocity": 109, "channel": 0}, {"type": "note_off", "time": 30, "note": 73, "velocity": 109, "channel": 0}, {"type": "note_on", "time": 13, "note": 75, "velocity": 115, "channel": 0}, {"type": "note_off", "time": 50, "note": 75, "velocity": 115, "channel": 0}, {"type": "note_on", "time": 7, "note": 76, "velocity": 117, "channel": 0}, {"type": "note_off", "time": 79, "note": 76, "velocity": 117, "channel": 0}, {"type": "note_on", "time": 11, "note": 74, "velocity": 113, "channel": 0}, {"type": "note_off", "time": 27, "note": 74, "velocity": 113, "channel": 0}, {"type": "note_on", "time": 10, "note": 72, "velocity": 104, "channel": 0}, {"type": "note_off", "time": 32, "note": 72, "velocity": 104, "channel": 0}, {"type": "note_on", "time": 2, "note": 73, "velocity": 108, "channel": 0}, {"type": "note_off", "time": 24, "note": 73, "velocity": 108, "channel": 0}, {"type": "note_on", "time": 12, "note": 69, "velocity": 113, "channel": 0}, {"type": "note_off", "time": 54, "note": 69, "velocity": 113, "channel": 0}, {"type": "note_on", "time": 13, "note": 67, "velocity": 117, "channel": 0}, {"type": "note_off", "time": 42, "note": 67, "velocity": 117, "channel": 0}, {"type": "note_on", "time": 52, "note": 72, "velocity": 101, "channel": 0}, {"type": "note_off", "time": 76, "note": 72, "velocity": 101, "channel": 0}, {"type": "note_on", "time": 7, "note": 74, "velocity": 106, "channel": 0}, {"type": "note_off", "time": 20, "note": 74, "velocity": 106, "channel": 0}, {"type": "note_on", "time": 5, "note": 73, "velocity": 112, "channel": 0}, {"type": "note_off", "time": 38, "note": 73, "velocity": 112, "channel": 0}, {"type": "note_on", "time": 7, "note": 69, "velocity": 117, "channel": 0}, {"type": "note_off", "time": 57, "note": 69, "velocity": 117, "channel": 0}, {"type": "note_on", "time": 8, "note": 70, "velocity": 115, "channel": 0}, {"type": "note_off", "time": 53, "note": 70, "velocity": 115, "channel": 0}, {"type": "note_on", "time": 9, "note": 72, "velocity": 102, "channel": 0}, {"type": "note_off", "time": 76, "note": 72, "velocity": 102, "channel": 0}, {"type": "note_on", "time": 6, "note": 73, "velocity": 111, "channel": 0}, {"type": "note_off", "time": 29, "note": 73, "velocity": 111, "channel": 0}, {"type": "note_on", "time": 5, "note": 74, "velocity": 114, "channel": 0}, {"type": "note_off", "time": 121, "note": 74, "velocity": 114, "channel": 0}, {"type": "note_on", "time": 32, "note": 69, "velocity": 118, "channel": 0}, {"type": "note_off", "time": 45, "note": 69, "velocity": 118, "channel": 0}, {"type": "note_on", "time": 3, "note": 70, "velocity": 116, "channel": 0}, {"type": "note_off", "time": 51, "note": 70, "velocity": 116, "channel": 0}, {"type": "note_on", "time": 10, "note": 73, "velocity": 113, "channel": 0}, {"type": "note_off", "time": 43, "note": 73, "velocity": 113, "channel": 0}, {"type": "note_on", "time": 1, "note": 74, "velocity": 113, "channel": 0}, {"type": "note_off", "time": 32, "note": 74, "velocity": 113, "channel": 0}, {"type": "note_on", "time": 10, "note": 77, "velocity": 122, "channel": 0}, {"type": "note_off", "time": 66, "note": 77, "velocity": 122, "channel": 0}, {"type": "note_on", "time": 14, "note": 75, "velocity": 118, "channel": 0}, {"type": "note_off", "time": 46, "note": 75, "velocity": 118, "channel": 0}, {"type": "note_on", "time": 5, "note": 76, "velocity": 122, "channel": 0}, {"type": "note_off", "time": 29, "note": 76, "velocity": 122, "channel": 0}, {"type": "note_on", "time": 21, "note": 74, "velocity": 112, "channel": 0}, {"type": "note_off", "time": 43, "note": 74, "velocity": 112, "channel": 0}, {"type": "note_on", "time": 5, "note": 72, "velocity": 103, "channel": 0}, {"type": "note_off", "time": 34, "note": 72, "velocity": 103, "channel": 0}, {"type": "note_on", "time": 11, "note": 70, "velocity": 106, "channel": 0}, {"type": "note_off", "time": 53, "note": 70, "velocity": 106, "channel": 0}, {"type": "note_on", "time": 12, "note": 68, "velocity": 112, "channel": 0}, {"type": "note_off", "time": 29, "note": 68, "velocity": 112, "channel": 0}, {"type": "note_on", "time": 20, "note": 72, "velocity": 103, "channel": 0}, {"type": "note_off", "time": 60, "note": 72, "velocity": 103, "channel": 0}, {"type": "note_on", "time": 8, "note": 73, "velocity": 112, "channel": 0}, {"type": "note_off", "time": 49, "note": 73, "velocity": 112, "channel": 0}, {"type": "note_on", "time": 3, "note": 75, "velocity": 118, "channel": 0}, {"type": "note_off", "time": 35, "note": 75, "velocity": 118, "channel": 0}, {"type": "note_on", "time": 14, "note": 74, "velocity": 112, "channel": 0}, {"type": "note_off", "time": 25, "note": 74, "velocity": 112, "channel": 0}, {"type": "note_on", "time": 30, "note": 76, "velocity": 114, "channel": 0}, {"type": "note_off", "time": 62, "note": 76, "velocity": 114, "channel": 0}, {"type": "note_on", "time": 7, "note": 70, "velocity": 99, "channel": 0}, {"type": "note_off", "time": 29, "note": 70, "velocity": 99, "channel": 0}, {"type": "note_on", "time": 7, "note": 68, "velocity": 112, "channel": 0}, {"type": "note_off", "time": 33, "note": 68, "velocity": 112, "channel": 0}, {"type": "note_on", "time": 3, "note": 69, "velocity": 113, "channel": 0}, {"type": "note_off", "time": 46, "note": 69, "velocity": 113, "channel": 0}, {"type": "note_on", "time": 5, "note": 70, "velocity": 116, "channel": 0}, {"type": "note_off", "time": 53, "note": 70, "velocity": 116, "channel": 0}, {"type": "note_on", "time": 10, "note": 71, "velocity": 116, "channel": 0}, {"type": "note_off", "time": 38, "note": 71, "velocity": 116, "channel": 0}, {"type": "note_on", "time": 10, "note": 72, "velocity": 101, "channel": 0}, {"type": "note_off", "time": 53, "note": 72, "velocity": 101, "channel": 0}, {"type": "note_on", "time": 9, "note": 73, "velocity": 112, "channel": 0}, {"type": "note_off", "time": 60, "note": 73, "velocity": 112, "channel": 0}, {"type": "note_on", "time": 5, "note": 72, "velocity": 102, "channel": 0}, {"type": "note_off", "time": 43, "note": 72, "velocity": 102, "channel": 0}, {"type": "note_on", "time": 19, "note": 70, "velocity": 104, "channel": 0}, {"type": "note_off", "time": 120, "note": 70, "velocity": 104, "channel": 0}, {"type": "note_on", "time": 20, "note": 67, "velocity": 115, "channel": 0}, {"type": "note_off", "time": 54, "note": 67, "velocity": 115, "channel": 0}, {"type": "note_on", "time": 10, "note": 68, "velocity": 121, "channel": 0}, {"type": "note_off", "time": 49, "note": 68, "velocity": 121, "channel": 0}, {"type": "note_on", "time": 14, "note": 69, "velocity": 112, "channel": 0}, {"type": "note_off", "time": 53, "note": 69, "velocity": 112, "channel": 0}, {"type": "note_on", "time": 7, "note": 70, "velocity": 113, "channel": 0}, {"type": "note_off", "time": 43, "note": 70, "velocity": 113, "channel": 0}, {"type": "note_on", "time": 5, "note": 71, "velocity": 114, "channel": 0}, {"type": "note_off", "time": 53, "note": 71, "velocity": 114, "channel": 0}, {"type": "note_on", "time": 16, "note": 68, "velocity": 112, "channel": 0}, {"type": "note_off", "time": 65, "note": 68, "velocity": 112, "channel": 0}, {"type": "note_on", "time": 12, "note": 66, "velocity": 114, "channel": 0}, {"type": "note_off", "time": 105, "note": 66, "velocity": 114, "channel": 0}, {"type": "note_on", "time": 20, "note": 65, "velocity": 117, "channel": 0}, {"type": "note_off", "time": 74, "note": 65, "velocity": 117, "channel": 0}, {"type": "note_on", "time": 4, "note": 66, "velocity": 117, "channel": 0}, {"type": "note_off", "time": 53, "note": 66, "velocity": 117, "channel": 0}, {"type": "note_on", "time": 5, "note": 67, "velocity": 117, "channel": 0}, {"type": "note_off", "time": 81, "note": 67, "velocity": 117, "channel": 0}, {"type": "note_on", "time": 11, "note": 66, "velocity": 119, "channel": 0}, {"type": "note_off", "time": 43, "note": 66, "velocity": 119, "channel": 0}, {"type": "note_on", "time": 9, "note": 64, "velocity": 110, "channel": 0}, {"type": "note_off", "time": 55, "note": 64, "velocity": 110, "channel": 0}, {"type": "note_on", "time": 13, "note": 65, "velocity": 121, "channel": 0}, {"type": "note_off", "time": 29, "note": 65, "velocity": 121, "channel": 0}, {"type": "note_on", "time": 15, "note": 62, "velocity": 107, "channel": 0}, {"type": "note_off", "time": 75, "note": 62, "velocity": 107, "channel": 0}, {"type": "note_on", "time": 21, "note": 60, "velocity": 108, "channel": 0}, {"type": "note_off", "time": 31, "note": 60, "velocity": 108, "channel": 0}, {"type": "note_on", "time": 14, "note": 61, "velocity": 107, "channel": 0}, {"type": "note_off", "time": 481, "note": 61, "velocity": 107, "channel": 0}, {"type": "note_on", "time": 36, "note": 62, "velocity": 110, "channel": 0}, {"type": "note_off", "time": 58, "note": 62, "velocity": 110, "channel": 0}, {"type": "note_on", "time": 36, "note": 66, "velocity": 117, "channel": 0}, {"type": "note_off", "time": 75, "note": 66, "velocity": 117, "channel": 0}, {"type": "note_on", "time": 18, "note": 64, "velocity": 110, "channel": 0}, {"type": "note_off", "time": 51, "note": 64, "velocity": 110, "channel": 0}, {"type": "note_on", "time": 16, "note": 63, "velocity": 108, "channel": 0}, {"type": "note_off", "time": 79, "note": 63, "velocity": 108, "channel": 0}, {"type": "note_on", "time": 19, "note": 65, "velocity": 115, "channel": 0}, {"type": "note_off", "time": 73, "note": 65, "velocity": 115, "channel": 0}, {"type": "note_on", "time": 9, "note": 64, "velocity": 109, "channel": 0}, {"type": "note_off", "time": 105, "note": 64, "velocity": 109, "channel": 0}, {"type": "note_on", "time": 13, "note": 62, "velocity": 101, "channel": 0}, {"type": "note_off", "time": 70, "note": 62, "velocity": 101, "channel": 0}, {"type": "note_on", "time": 6, "note": 63, "velocity": 107, "channel": 0}, {"type": "note_off", "time": 89, "note": 63, "velocity": 107, "channel": 0}, {"type": "note_on", "time": 7, "note": 62, "velocity": 105, "channel": 0}, {"type": "note_off", "time": 89, "note": 62, "velocity": 105, "channel": 0}, {"type": "note_on", "time": 18, "note": 61, "velocity": 105, "channel": 0}, {"type": "note_off", "time": 86, "note": 61, "velocity": 105, "channel": 0}, {"type": "note_on", "time": 21, "note": 65, "velocity": 118, "channel": 0}, {"type": "note_off", "time": 60, "note": 65, "velocity": 118, "channel": 0}, {"type": "note_on", "time": 18, "note": 62, "velocity": 103, "channel": 0}, {"type": "note_off", "time": 91, "note": 62, "velocity": 103, "channel": 0}, {"type": "note_on", "time": 27, "note": 65, "velocity": 102, "channel": 0}, {"type": "note_off", "time": 48, "note": 65, "velocity": 102, "channel": 0}, {"type": "note_on", "time": 16, "note": 69, "velocity": 109, "channel": 0}, {"type": "note_off", "time": 90, "note": 69, "velocity": 109, "channel": 0}, {"type": "note_on", "time": 31, "note": 73, "velocity": 111, "channel": 0}, {"type": "note_off", "time": 54, "note": 73, "velocity": 111, "channel": 0}, {"type": "note_on", "time": 6, "note": 76, "velocity": 112, "channel": 0}, {"type": "note_off", "time": 99, "note": 76, "velocity": 112, "channel": 0}, {"type": "note_on", "time": 18, "note": 70, "velocity": 108, "channel": 0}, {"type": "note_off", "time": 130, "note": 70, "velocity": 108, "channel": 0}, {"type": "note_on", "time": 3282, "note": 57, "velocity": 113, "channel": 0}, {"type": "note_off", "time": 72, "note": 57, "velocity": 113, "channel": 0}, {"type": "note_on", "time": 13, "note": 63, "velocity": 116, "channel": 0}, {"type": "note_off", "time": 73, "note": 63, "velocity": 116, "channel": 0}, {"type": "note_on", "time": 4, "note": 65, "velocity": 123, "channel": 0}, {"type": "note_off", "time": 86, "note": 65, "velocity": 123, "channel": 0}, {"type": "note_on", "time": 33, "note": 70, "velocity": 113, "channel": 0}, {"type": "note_off", "time": 55, "note": 70, "velocity": 113, "channel": 0}, {"type": "note_on", "time": 52, "note": 75, "velocity": 116, "channel": 0}, {"type": "note_off", "time": 48, "note": 75, "velocity": 116, "channel": 0}, {"type": "note_on", "time": 42, "note": 77, "velocity": 120, "channel": 0}, {"type": "note_off", "time": 74, "note": 77, "velocity": 120, "channel": 0}, {"type": "note_on", "time": 26, "note": 79, "velocity": 119, "channel": 0}, {"type": "note_off", "time": 78, "note": 79, "velocity": 119, "channel": 0}, {"type": "note_on", "time": 22, "note": 82, "velocity": 116, "channel": 0}, {"type": "note_off", "time": 80, "note": 82, "velocity": 116, "channel": 0}, {"type": "note_on", "time": 49, "note": 84, "velocity": 104, "channel": 0}, {"type": "note_off", "time": 45, "note": 84, "velocity": 104, "channel": 0}, {"type": "note_on", "time": 1000, "note": 82, "velocity": 117, "channel": 0}, {"type": "note_off", "time": 70, "note": 82, "velocity": 117, "channel": 0}, {"type": "note_on", "time": 2, "note": 84, "velocity": 111, "channel": 0}, {"type": "note_off", "time": 105, "note": 84, "velocity": 111, "channel": 0}, {"type": "note_on", "time": 10, "note": 83, "velocity": 111, "channel": 0}, {"type": "note_off", "time": 64, "note": 83, "velocity": 111, "channel": 0}, {"type": "note_on", "time": 2, "note": 84, "velocity": 108, "channel": 0}, {"type": "note_off", "time": 85, "note": 84, "velocity": 108, "channel": 0}, {"type": "note_on", "time": 15, "note": 82, "velocity": 114, "channel": 0}, {"type": "note_off", "time": 73, "note": 82, "velocity": 114, "channel": 0}, {"type": "note_on", "time": 12, "note": 79, "velocity": 116, "channel": 0}, {"type": "note_off", "time": 73, "note": 79, "velocity": 116, "channel": 0}, {"type": "note_on", "time": 15, "note": 77, "velocity": 122, "channel": 0}, {"type": "note_off", "time": 72, "note": 77, "velocity": 122, "channel": 0}, {"type": "note_on", "time": 19, "note": 72, "velocity": 108, "channel": 0}, {"type": "note_off", "time": 99, "note": 72, "velocity": 108, "channel": 0}, {"type": "note_on", "time": 92, "note": 75, "velocity": 107, "channel": 0}, {"type": "note_off", "time": 119, "note": 75, "velocity": 107, "channel": 0}, {"type": "note_on", "time": 14, "note": 78, "velocity": 114, "channel": 0}, {"type": "note_off", "time": 52, "note": 78, "velocity": 114, "channel": 0}, {"type": "note_on", "time": 10, "note": 79, "velocity": 119, "channel": 0}, {"type": "note_off", "time": 110, "note": 79, "velocity": 119, "channel": 0}, {"type": "note_on", "time": 21, "note": 75, "velocity": 101, "channel": 0}, {"type": "note_off", "time": 40, "note": 75, "velocity": 101, "channel": 0}, {"type": "note_on", "time": 13, "note": 77, "velocity": 121, "channel": 0}, {"type": "note_off", "time": 93, "note": 77, "velocity": 121, "channel": 0}, {"type": "note_on", "time": 30, "note": 75, "velocity": 108, "channel": 0}, {"type": "note_off", "time": 67, "note": 75, "velocity": 108, "channel": 0}, {"type": "note_on", "time": 26, "note": 72, "velocity": 111, "channel": 0}, {"type": "note_off", "time": 92, "note": 72, "velocity": 111, "channel": 0}, {"type": "note_on", "time": 21, "note": 70, "velocity": 99, "channel": 0}, {"type": "note_off", "time": 42, "note": 70, "velocity": 99, "channel": 0}, {"type": "note_on", "time": 21, "note": 75, "velocity": 111, "channel": 0}, {"type": "note_off", "time": 87, "note": 75, "velocity": 111, "channel": 0}, {"type": "note_on", "time": 26, "note": 70, "velocity": 116, "channel": 0}, {"type": "note_off", "time": 45, "note": 70, "velocity": 116, "channel": 0}, {"type": "note_on", "time": 19, "note": 65, "velocity": 110, "channel": 0}, {"type": "note_off", "time": 104, "note": 65, "velocity": 110, "channel": 0}, {"type": "note_on", "time": 14, "note": 63, "velocity": 108, "channel": 0}, {"type": "note_off", "time": 67, "note": 63, "velocity": 108, "channel": 0}, {"type": "note_on", "time": 10, "note": 68, "velocity": 113, "channel": 0}, {"type": "note_off", "time": 111, "note": 68, "velocity": 113, "channel": 0}, {"type": "note_on", "time": 21, "note": 70, "velocity": 108, "channel": 0}, {"type": "note_off", "time": 60, "note": 70, "velocity": 108, "channel": 0}, {"type": "note_on", "time": 9, "note": 71, "velocity": 108, "channel": 0}, {"type": "note_off", "time": 89, "note": 71, "velocity": 108, "channel": 0}, {"type": "note_on", "time": 21, "note": 73, "velocity": 112, "channel": 0}, {"type": "note_off", "time": 121, "note": 73, "velocity": 112, "channel": 0}, {"type": "note_on", "time": 42, "note": 70, "velocity": 106, "channel": 0}, {"type": "note_off", "time": 78, "note": 70, "velocity": 106, "channel": 0}, {"type": "note_on", "time": 39, "note": 66, "velocity": 112, "channel": 0}, {"type": "note_off", "time": 85, "note": 66, "velocity": 112, "channel": 0}, {"type": "note_on", "time": 20, "note": 61, "velocity": 101, "channel": 0}, {"type": "note_off", "time": 38, "note": 61, "velocity": 101, "channel": 0}, {"type": "note_on", "time": 21, "note": 65, "velocity": 116, "channel": 0}, {"type": "note_off", "time": 93, "note": 65, "velocity": 116, "channel": 0}, {"type": "note_on", "time": 9, "note": 64, "velocity": 111, "channel": 0}, {"type": "note_off", "time": 75, "note": 64, "velocity": 111, "channel": 0}, {"type": "note_on", "time": 19, "note": 63, "velocity": 106, "channel": 0}, {"type": "note_off", "time": 92, "note": 63, "velocity": 106, "channel": 0}, {"type": "note_on", "time": 10, "note": 66, "velocity": 112, "channel": 0}, {"type": "note_off", "time": 70, "note": 66, "velocity": 112, "channel": 0}, {"type": "note_on", "time": 15, "note": 62, "velocity": 102, "channel": 0}, {"type": "note_off", "time": 86, "note": 62, "velocity": 102, "channel": 0}, {"type": "note_on", "time": 30, "note": 65, "velocity": 99, "channel": 0}, {"type": "note_off", "time": 31, "note": 65, "velocity": 99, "channel": 0}, {"type": "note_on", "time": 14, "note": 68, "velocity": 112, "channel": 0}, {"type": "note_off", "time": 123, "note": 68, "velocity": 112, "channel": 0}, {"type": "note_on", "time": 9, "note": 69, "velocity": 94, "channel": 0}, {"type": "note_off", "time": 44, "note": 69, "velocity": 94, "channel": 0}, {"type": "note_on", "time": 28, "note": 71, "velocity": 9, "channel": 0}, {"type": "note_off", "time": 111, "note": 71, "velocity": 9, "channel": 0}, {"type": "note_on", "time": 98, "note": 69, "velocity": 109, "channel": 0}, {"type": "note_off", "time": 117, "note": 69, "velocity": 109, "channel": 0}, {"type": "note_on", "time": 85, "note": 70, "velocity": 110, "channel": 0}, {"type": "note_off", "time": 131, "note": 70, "velocity": 110, "channel": 0}, {"type": "note_on", "time": 67, "note": 68, "velocity": 112, "channel": 0}, {"type": "note_off", "time": 101, "note": 68, "velocity": 112, "channel": 0}, {"type": "note_on", "time": 4, "note": 69, "velocity": 110, "channel": 0}, {"type": "note_off", "time": 105, "note": 69, "velocity": 110, "channel": 0}, {"type": "note_on", "time": 66, "note": 66, "velocity": 114, "channel": 0}, {"type": "note_off", "time": 64, "note": 66, "velocity": 114, "channel": 0}, {"type": "note_on", "time": 10, "note": 61, "velocity": 105, "channel": 0}, {"type": "note_off", "time": 64, "note": 61, "velocity": 105, "channel": 0}, {"type": "note_on", "time": 43, "note": 66, "velocity": 111, "channel": 0}, {"type": "note_off", "time": 52, "note": 66, "velocity": 111, "channel": 0}, {"type": "note_on", "time": 66, "note": 64, "velocity": 103, "channel": 0}, {"type": "note_off", "time": 270, "note": 64, "velocity": 103, "channel": 0}, {"type": "note_on", "time": 75, "note": 64, "velocity": 106, "channel": 0}, {"type": "note_off", "time": 172, "note": 64, "velocity": 106, "channel": 0}, {"type": "note_on", "time": 5259, "note": 61, "velocity": 107, "channel": 0}, {"type": "note_off", "time": 80, "note": 61, "velocity": 107, "channel": 0}, {"type": "note_on", "time": 14, "note": 62, "velocity": 101, "channel": 0}, {"type": "note_off", "time": 78, "note": 62, "velocity": 101, "channel": 0}, {"type": "note_on", "time": 21, "note": 66, "velocity": 114, "channel": 0}, {"type": "note_off", "time": 108, "note": 66, "velocity": 114, "channel": 0}, {"type": "note_on", "time": 6, "note": 65, "velocity": 114, "channel": 0}, {"type": "note_off", "time": 82, "note": 65, "velocity": 114, "channel": 0}, {"type": "note_on", "time": 8, "note": 64, "velocity": 112, "channel": 0}, {"type": "note_off", "time": 89, "note": 64, "velocity": 112, "channel": 0}, {"type": "note_on", "time": 14, "note": 63, "velocity": 104, "channel": 0}, {"type": "note_off", "time": 84, "note": 63, "velocity": 104, "channel": 0}, {"type": "note_on", "time": 4, "note": 67, "velocity": 111, "channel": 0}, {"type": "note_off", "time": 62, "note": 67, "velocity": 111, "channel": 0}, {"type": "note_on", "time": 31, "note": 62, "velocity": 100, "channel": 0}, {"type": "note_off", "time": 89, "note": 62, "velocity": 100, "channel": 0}, {"type": "note_on", "time": 16, "note": 65, "velocity": 100, "channel": 0}, {"type": "note_off", "time": 32, "note": 65, "velocity": 100, "channel": 0}, {"type": "note_on", "time": 16, "note": 68, "velocity": 115, "channel": 0}, {"type": "note_off", "time": 127, "note": 68, "velocity": 115, "channel": 0}, {"type": "note_on", "time": 10, "note": 69, "velocity": 110, "channel": 0}, {"type": "note_off", "time": 362, "note": 69, "velocity": 110, "channel": 0}, {"type": "note_on", "time": 14, "note": 68, "velocity": 105, "channel": 0}, {"type": "note_off", "time": 67, "note": 68, "velocity": 105, "channel": 0}, {"type": "note_on", "time": 8, "note": 69, "velocity": 114, "channel": 0}, {"type": "note_off", "time": 99, "note": 69, "velocity": 114, "channel": 0}, {"type": "note_on", "time": 12, "note": 68, "velocity": 118, "channel": 0}, {"type": "note_off", "time": 82, "note": 68, "velocity": 118, "channel": 0}, {"type": "note_on", "time": 18, "note": 67, "velocity": 118, "channel": 0}, {"type": "note_off", "time": 46, "note": 67, "velocity": 118, "channel": 0}, {"type": "note_on", "time": 20, "note": 66, "velocity": 117, "channel": 0}, {"type": "note_off", "time": 92, "note": 66, "velocity": 117, "channel": 0}, {"type": "note_on", "time": 12, "note": 65, "velocity": 117, "channel": 0}, {"type": "note_off", "time": 97, "note": 65, "velocity": 117, "channel": 0}, {"type": "note_on", "time": 14, "note": 64, "velocity": 110, "channel": 0}, {"type": "note_off", "time": 70, "note": 64, "velocity": 110, "channel": 0}, {"type": "note_on", "time": 20, "note": 63, "velocity": 107, "channel": 0}, {"type": "note_off", "time": 78, "note": 63, "velocity": 107, "channel": 0}, {"type": "note_on", "time": 10, "note": 66, "velocity": 111, "channel": 0}, {"type": "note_off", "time": 89, "note": 66, "velocity": 111, "channel": 0}, {"type": "note_on", "time": 15, "note": 62, "velocity": 103, "channel": 0}, {"type": "note_off", "time": 90, "note": 62, "velocity": 103, "channel": 0}, {"type": "note_on", "time": 10, "note": 65, "velocity": 109, "channel": 0}, {"type": "note_off", "time": 64, "note": 65, "velocity": 109, "channel": 0}, {"type": "note_on", "time": 19, "note": 69, "velocity": 110, "channel": 0}, {"type": "note_off", "time": 111, "note": 69, "velocity": 110, "channel": 0}, {"type": "note_on", "time": 84, "note": 72, "velocity": 103, "channel": 0}, {"type": "note_off", "time": 117, "note": 72, "velocity": 103, "channel": 0}, {"type": "note_on", "time": 16, "note": 74, "velocity": 112, "channel": 0}, {"type": "note_off", "time": 45, "note": 74, "velocity": 112, "channel": 0}, {"type": "note_on", "time": 15, "note": 76, "velocity": 115, "channel": 0}, {"type": "note_off", "time": 131, "note": 76, "velocity": 115, "channel": 0}, {"type": "note_on", "time": 15, "note": 72, "velocity": 89, "channel": 0}, {"type": "note_off", "time": 44, "note": 72, "velocity": 89, "channel": 0}, {"type": "note_on", "time": 10, "note": 74, "velocity": 105, "channel": 0}, {"type": "note_off", "time": 109, "note": 74, "velocity": 105, "channel": 0}, {"type": "note_on", "time": 19, "note": 68, "velocity": 109, "channel": 0}, {"type": "note_off", "time": 66, "note": 68, "velocity": 109, "channel": 0}, {"type": "note_on", "time": 16, "note": 65, "velocity": 111, "channel": 0}, {"type": "note_off", "time": 121, "note": 65, "velocity": 111, "channel": 0}, {"type": "note_on", "time": 64, "note": 70, "velocity": 109, "channel": 0}, {"type": "note_off", "time": 137, "note": 70, "velocity": 109, "channel": 0}, {"type": "note_on", "time": 106, "note": 65, "velocity": 107, "channel": 0}, {"type": "note_off", "time": 73, "note": 65, "velocity": 107, "channel": 0}, {"type": "note_on", "time": 18, "note": 70, "velocity": 106, "channel": 0}, {"type": "note_off", "time": 52, "note": 70, "velocity": 106, "channel": 0}, {"type": "note_on", "time": 7, "note": 68, "velocity": 109, "channel": 0}, {"type": "note_off", "time": 68, "note": 68, "velocity": 109, "channel": 0}, {"type": "note_on", "time": 19, "note": 68, "velocity": 112, "channel": 0}, {"type": "note_off", "time": 79, "note": 68, "velocity": 112, "channel": 0}, {"type": "note_on", "time": 26, "note": 67, "velocity": 111, "channel": 0}, {"type": "note_off", "time": 73, "note": 67, "velocity": 111, "channel": 0}, {"type": "note_on", "time": 14, "note": 66, "velocity": 113, "channel": 0}, {"type": "note_off", "time": 98, "note": 66, "velocity": 113, "channel": 0}, {"type": "note_on", "time": 21, "note": 65, "velocity": 112, "channel": 0}, {"type": "note_off", "time": 75, "note": 65, "velocity": 112, "channel": 0}, {"type": "note_on", "time": 16, "note": 64, "velocity": 109, "channel": 0}, {"type": "note_off", "time": 45, "note": 64, "velocity": 109, "channel": 0}, {"type": "note_on", "time": 27, "note": 63, "velocity": 104, "channel": 0}, {"type": "note_off", "time": 68, "note": 63, "velocity": 104, "channel": 0}, {"type": "note_on", "time": 7, "note": 66, "velocity": 109, "channel": 0}, {"type": "note_off", "time": 67, "note": 66, "velocity": 109, "channel": 0}, {"type": "note_on", "time": 16, "note": 64, "velocity": 108, "channel": 0}, {"type": "note_off", "time": 104, "note": 64, "velocity": 108, "channel": 0}, {"type": "note_on", "time": 19, "note": 62, "velocity": 97, "channel": 0}, {"type": "note_off", "time": 68, "note": 62, "velocity": 97, "channel": 0}, {"type": "note_on", "time": 13, "note": 63, "velocity": 108, "channel": 0}, {"type": "note_off", "time": 97, "note": 63, "velocity": 108, "channel": 0}, {"type": "note_on", "time": 7, "note": 61, "velocity": 98, "channel": 0}, {"type": "note_off", "time": 36, "note": 61, "velocity": 98, "channel": 0}, {"type": "note_on", "time": 7, "note": 62, "velocity": 105, "channel": 0}, {"type": "note_off", "time": 137, "note": 62, "velocity": 105, "channel": 0}, {"type": "note_on", "time": 15, "note": 61, "velocity": 97, "channel": 0}, {"type": "note_off", "time": 51, "note": 61, "velocity": 97, "channel": 0}, {"type": "note_on", "time": 2, "note": 62, "velocity": 101, "channel": 0}, {"type": "note_off", "time": 140, "note": 62, "velocity": 101, "channel": 0}, {"type": "note_on", "time": 21, "note": 64, "velocity": 106, "channel": 0}, {"type": "note_off", "time": 147, "note": 64, "velocity": 106, "channel": 0}, {"type": "note_on", "time": 633, "note": 67, "velocity": 116, "channel": 0}, {"type": "note_off", "time": 89, "note": 67, "velocity": 116, "channel": 0}, {"type": "note_on", "time": 8, "note": 68, "velocity": 91, "channel": 0}, {"type": "note_off", "time": 216, "note": 68, "velocity": 91, "channel": 0}, {"type": "note_on", "time": 78, "note": 70, "velocity": 116, "channel": 0}, {"type": "note_off", "time": 80, "note": 70, "velocity": 116, "channel": 0}, {"type": "note_on", "time": 99, "note": 65, "velocity": 117, "channel": 0}, {"type": "note_off", "time": 110, "note": 65, "velocity": 117, "channel": 0}, {"type": "note_on", "time": 20, "note": 70, "velocity": 110, "channel": 0}, {"type": "note_off", "time": 70, "note": 70, "velocity": 110, "channel": 0}, {"type": "note_on", "time": 15, "note": 68, "velocity": 116, "channel": 0}, {"type": "note_off", "time": 72, "note": 68, "velocity": 116, "channel": 0}, {"type": "note_on", "time": 14, "note": 66, "velocity": 109, "channel": 0}, {"type": "note_off", "time": 50, "note": 66, "velocity": 109, "channel": 0}, {"type": "note_on", "time": 176, "note": 66, "velocity": 118, "channel": 0}, {"type": "note_off", "time": 90, "note": 66, "velocity": 118, "channel": 0}, {"type": "note_on", "time": 6, "note": 65, "velocity": 118, "channel": 0}, {"type": "note_off", "time": 31, "note": 65, "velocity": 118, "channel": 0}, {"type": "note_on", "time": 304, "note": 69, "velocity": 116, "channel": 0}, {"type": "note_off", "time": 110, "note": 69, "velocity": 116, "channel": 0}, {"type": "note_on", "time": 264, "note": 70, "velocity": 116, "channel": 0}, {"type": "note_off", "time": 66, "note": 70, "velocity": 116, "channel": 0}, {"type": "note_on", "time": 11, "note": 68, "velocity": 101, "channel": 0}, {"type": "note_off", "time": 55, "note": 68, "velocity": 101, "channel": 0}, {"type": "note_on", "time": 972, "note": 78, "velocity": 110, "channel": 0}, {"type": "note_off", "time": 157, "note": 78, "velocity": 110, "channel": 0}, {"type": "note_on", "time": 19, "note": 78, "velocity": 122, "channel": 0}, {"type": "note_off", "time": 90, "note": 78, "velocity": 122, "channel": 0}, {"type": "note_on", "time": 28, "note": 81, "velocity": 121, "channel": 0}, {"type": "note_off", "time": 73, "note": 81, "velocity": 121, "channel": 0}, {"type": "note_on", "time": 20, "note": 78, "velocity": 119, "channel": 0}, {"type": "note_off", "time": 60, "note": 78, "velocity": 119, "channel": 0}, {"type": "note_on", "time": 25, "note": 78, "velocity": 120, "channel": 0}, {"type": "note_off", "time": 75, "note": 78, "velocity": 120, "channel": 0}, {"type": "note_on", "time": 14, "note": 74, "velocity": 110, "channel": 0}, {"type": "note_off", "time": 86, "note": 74, "velocity": 110, "channel": 0}, {"type": "note_on", "time": 44, "note": 71, "velocity": 94, "channel": 0}, {"type": "note_off", "time": 43, "note": 71, "velocity": 94, "channel": 0}, {"type": "note_on", "time": 7, "note": 76, "velocity": 116, "channel": 0}, {"type": "note_off", "time": 101, "note": 76, "velocity": 116, "channel": 0}, {"type": "note_on", "time": 6, "note": 77, "velocity": 122, "channel": 0}, {"type": "note_off", "time": 57, "note": 77, "velocity": 122, "channel": 0}, {"type": "note_on", "time": 7, "note": 78, "velocity": 119, "channel": 0}, {"type": "note_off", "time": 103, "note": 78, "velocity": 119, "channel": 0}, {"type": "note_on", "time": 22, "note": 76, "velocity": 111, "channel": 0}, {"type": "note_off", "time": 246, "note": 76, "velocity": 111, "channel": 0}, {"type": "note_on", "time": 161, "note": 74, "velocity": 100, "channel": 0}, {"type": "note_off", "time": 44, "note": 74, "velocity": 100, "channel": 0}, {"type": "note_on", "time": 12, "note": 75, "velocity": 113, "channel": 0}, {"type": "note_off", "time": 79, "note": 75, "velocity": 113, "channel": 0}, {"type": "note_on", "time": 16, "note": 74, "velocity": 108, "channel": 0}, {"type": "note_off", "time": 74, "note": 74, "velocity": 108, "channel": 0}, {"type": "note_on", "time": 15, "note": 73, "velocity": 113, "channel": 0}, {"type": "note_off", "time": 91, "note": 73, "velocity": 113, "channel": 0}, {"type": "note_on", "time": 13, "note": 70, "velocity": 97, "channel": 0}, {"type": "note_off", "time": 51, "note": 70, "velocity": 97, "channel": 0}, {"type": "note_on", "time": 63, "note": 72, "velocity": 97, "channel": 0}, {"type": "note_off", "time": 102, "note": 72, "velocity": 97, "channel": 0}, {"type": "note_on", "time": 57, "note": 75, "velocity": 113, "channel": 0}, {"type": "note_off", "time": 109, "note": 75, "velocity": 113, "channel": 0}, {"type": "note_on", "time": 16, "note": 73, "velocity": 106, "channel": 0}, {"type": "note_off", "time": 54, "note": 73, "velocity": 106, "channel": 0}, {"type": "note_on", "time": 10, "note": 74, "velocity": 112, "channel": 0}, {"type": "note_off", "time": 86, "note": 74, "velocity": 112, "channel": 0}, {"type": "note_on", "time": 18, "note": 70, "velocity": 110, "channel": 0}, {"type": "note_off", "time": 68, "note": 70, "velocity": 110, "channel": 0}, {"type": "note_on", "time": 18, "note": 66, "velocity": 114, "channel": 0}, {"type": "note_off", "time": 121, "note": 66, "velocity": 114, "channel": 0}, {"type": "note_on", "time": 79, "note": 69, "velocity": 115, "channel": 0}, {"type": "note_off", "time": 72, "note": 69, "velocity": 115, "channel": 0}, {"type": "note_on", "time": 102, "note": 65, "velocity": 115, "channel": 0}, {"type": "note_off", "time": 95, "note": 65, "velocity": 115, "channel": 0}, {"type": "note_on", "time": 19, "note": 70, "velocity": 112, "channel": 0}, {"type": "note_off", "time": 64, "note": 70, "velocity": 112, "channel": 0}, {"type": "note_on", "time": 12, "note": 69, "velocity": 115, "channel": 0}, {"type": "note_off", "time": 70, "note": 69, "velocity": 115, "channel": 0}, {"type": "note_on", "time": 20, "note": 66, "velocity": 116, "channel": 0}, {"type": "note_off", "time": 56, "note": 66, "velocity": 116, "channel": 0}, {"type": "note_on", "time": 25, "note": 62, "velocity": 102, "channel": 0}, {"type": "note_off", "time": 74, "note": 62, "velocity": 102, "channel": 0}, {"type": "note_on", "time": 34, "note": 65, "velocity": 114, "channel": 0}, {"type": "note_off", "time": 43, "note": 65, "velocity": 114, "channel": 0}, {"type": "note_on", "time": 20, "note": 64, "velocity": 111, "channel": 0}, {"type": "note_off", "time": 89, "note": 64, "velocity": 111, "channel": 0}, {"type": "note_on", "time": 14, "note": 66, "velocity": 99, "channel": 0}, {"type": "note_off", "time": 49, "note": 66, "velocity": 99, "channel": 0}, {"type": "note_on", "time": 14, "note": 69, "velocity": 105, "channel": 0}, {"type": "note_off", "time": 122, "note": 69, "velocity": 105, "channel": 0}, {"type": "note_on", "time": 24, "note": 71, "velocity": 96, "channel": 0}, {"type": "note_off", "time": 33, "note": 71, "velocity": 96, "channel": 0}, {"type": "note_on", "time": 22, "note": 73, "velocity": 114, "channel": 0}, {"type": "note_off", "time": 114, "note": 73, "velocity": 114, "channel": 0}, {"type": "note_on", "time": 4, "note": 76, "velocity": 110, "channel": 0}, {"type": "note_off", "time": 62, "note": 76, "velocity": 110, "channel": 0}, {"type": "note_on", "time": 19, "note": 77, "velocity": 122, "channel": 0}, {"type": "note_off", "time": 133, "note": 77, "velocity": 122, "channel": 0}, {"type": "note_on", "time": 10, "note": 78, "velocity": 116, "channel": 0}, {"type": "note_off", "time": 210, "note": 78, "velocity": 116, "channel": 0}, {"type": "note_on", "time": 14, "note": 77, "velocity": 121, "channel": 0}, {"type": "note_off", "time": 96, "note": 77, "velocity": 121, "channel": 0}, {"type": "note_on", "time": 22, "note": 76, "velocity": 112, "channel": 0}, {"type": "note_off", "time": 58, "note": 76, "velocity": 112, "channel": 0}, {"type": "note_on", "time": 21, "note": 75, "velocity": 109, "channel": 0}, {"type": "note_off", "time": 173, "note": 75, "velocity": 109, "channel": 0}, {"type": "note_on", "time": 16, "note": 73, "velocity": 112, "channel": 0}, {"type": "note_off", "time": 73, "note": 73, "velocity": 112, "channel": 0}, {"type": "note_on", "time": 22, "note": 71, "velocity": 106, "channel": 0}, {"type": "note_off", "time": 78, "note": 71, "velocity": 106, "channel": 0}, {"type": "note_on", "time": 14, "note": 70, "velocity": 109, "channel": 0}, {"type": "note_off", "time": 158, "note": 70, "velocity": 109, "channel": 0}, {"type": "note_on", "time": 38, "note": 69, "velocity": 110, "channel": 0}, {"type": "note_off", "time": 62, "note": 69, "velocity": 110, "channel": 0}, {"type": "note_on", "time": 28, "note": 68, "velocity": 117, "channel": 0}, {"type": "note_off", "time": 76, "note": 68, "velocity": 117, "channel": 0}, {"type": "note_on", "time": 10, "note": 67, "velocity": 115, "channel": 0}, {"type": "note_off", "time": 134, "note": 67, "velocity": 115, "channel": 0}, {"type": "note_on", "time": 8, "note": 66, "velocity": 115, "channel": 0}, {"type": "note_off", "time": 85, "note": 66, "velocity": 115, "channel": 0}, {"type": "note_on", "time": 18, "note": 65, "velocity": 114, "channel": 0}, {"type": "note_off", "time": 43, "note": 65, "velocity": 114, "channel": 0}, {"type": "note_on", "time": 18, "note": 65, "velocity": 117, "channel": 0}, {"type": "note_off", "time": 60, "note": 65, "velocity": 117, "channel": 0}, {"type": "note_on", "time": 22, "note": 64, "velocity": 104, "channel": 0}, {"type": "note_off", "time": 338, "note": 64, "velocity": 104, "channel": 0}, {"type": "note_on", "time": 32, "note": 63, "velocity": 105, "channel": 0}, {"type": "note_off", "time": 171, "note": 63, "velocity": 105, "channel": 0}, {"type": "note_on", "time": 110, "note": 63, "velocity": 105, "channel": 0}, {"type": "note_off", "time": 26, "note": 63, "velocity": 105, "channel": 0}, {"type": "note_on", "time": 9, "note": 61, "velocity": 106, "channel": 0}, {"type": "note_off", "time": 34, "note": 61, "velocity": 106, "channel": 0}, {"type": "note_on", "time": 40, "note": 63, "velocity": 110, "channel": 0}, {"type": "note_off", "time": 169, "note": 63, "velocity": 110, "channel": 0}, {"type": "note_on", "time": 21, "note": 59, "velocity": 107, "channel": 0}, {"type": "note_off", "time": 93, "note": 59, "velocity": 107, "channel": 0}, {"type": "note_on", "time": 38, "note": 58, "velocity": 100, "channel": 0}, {"type": "note_off", "time": 149, "note": 58, "velocity": 100, "channel": 0}, {"type": "note_on", "time": 25, "note": 56, "velocity": 113, "channel": 0}, {"type": "note_off", "time": 119, "note": 56, "velocity": 113, "channel": 0}, {"type": "note_on", "time": 25, "note": 58, "velocity": 106, "channel": 0}, {"type": "note_off", "time": 193, "note": 58, "velocity": 106, "channel": 0}, {"type": "note_on", "time": 21, "note": 60, "velocity": 111, "channel": 0}, {"type": "note_off", "time": 157, "note": 60, "velocity": 111, "channel": 0}, {"type": "note_on", "time": 6, "note": 61, "velocity": 107, "channel": 0}, {"type": "note_off", "time": 209, "note": 61, "velocity": 107, "channel": 0}, {"type": "note_on", "time": 8651, "note": 60, "velocity": 104, "channel": 0}, {"type": "note_off", "time": 93, "note": 60, "velocity": 104, "channel": 0}, {"type": "note_on", "time": 156, "note": 62, "velocity": 105, "channel": 0}, {"type": "note_off", "time": 72, "note": 62, "velocity": 105, "channel": 0}, {"type": "note_on", "time": 27, "note": 62, "velocity": 103, "channel": 0}, {"type": "note_off", "time": 45, "note": 62, "velocity": 103, "channel": 0}, {"type": "note_on", "time": 12, "note": 63, "velocity": 110, "channel": 0}, {"type": "note_off", "time": 138, "note": 63, "velocity": 110, "channel": 0}, {"type": "note_on", "time": 84, "note": 65, "velocity": 112, "channel": 0}, {"type": "note_off", "time": 139, "note": 65, "velocity": 112, "channel": 0}, {"type": "note_on", "time": 56, "note": 65, "velocity": 116, "channel": 0}, {"type": "note_off", "time": 146, "note": 65, "velocity": 116, "channel": 0}, {"type": "note_on", "time": 89, "note": 65, "velocity": 115, "channel": 0}, {"type": "note_off", "time": 258, "note": 65, "velocity": 115, "channel": 0}, {"type": "note_on", "time": 62, "note": 65, "velocity": 113, "channel": 0}, {"type": "note_off", "time": 180, "note": 65, "velocity": 113, "channel": 0}, {"type": "note_on", "time": 9, "note": 64, "velocity": 120, "channel": 0}, {"type": "note_off", "time": 34, "note": 64, "velocity": 120, "channel": 0}, {"type": "note_on", "time": 9, "note": 65, "velocity": 113, "channel": 0}, {"type": "note_off", "time": 49, "note": 65, "velocity": 113, "channel": 0}, {"type": "note_on", "time": 19, "note": 66, "velocity": 105, "channel": 0}, {"type": "note_off", "time": 70, "note": 66, "velocity": 105, "channel": 0}, {"type": "note_on", "time": 14, "note": 65, "velocity": 116, "channel": 0}, {"type": "note_off", "time": 72, "note": 65, "velocity": 116, "channel": 0}, {"type": "note_on", "time": 21, "note": 62, "velocity": 100, "channel": 0}, {"type": "note_off", "time": 57, "note": 62, "velocity": 100, "channel": 0}, {"type": "note_on", "time": 9, "note": 65, "velocity": 113, "channel": 0}, {"type": "note_off", "time": 97, "note": 65, "velocity": 113, "channel": 0}, {"type": "note_on", "time": 3, "note": 67, "velocity": 109, "channel": 0}, {"type": "note_off", "time": 101, "note": 67, "velocity": 109, "channel": 0}, {"type": "note_on", "time": 20, "note": 69, "velocity": 109, "channel": 0}, {"type": "note_off", "time": 68, "note": 69, "velocity": 109, "channel": 0}, {"type": "note_on", "time": 27, "note": 68, "velocity": 110, "channel": 0}, {"type": "note_off", "time": 49, "note": 68, "velocity": 110, "channel": 0}, {"type": "note_on", "time": 21, "note": 67, "velocity": 107, "channel": 0}, {"type": "note_off", "time": 84, "note": 67, "velocity": 107, "channel": 0}, {"type": "note_on", "time": 12, "note": 66, "velocity": 110, "channel": 0}, {"type": "note_off", "time": 78, "note": 66, "velocity": 110, "channel": 0}, {"type": "note_on", "time": 16, "note": 65, "velocity": 112, "channel": 0}, {"type": "note_off", "time": 93, "note": 65, "velocity": 112, "channel": 0}, {"type": "note_on", "time": 16, "note": 64, "velocity": 102, "channel": 0}, {"type": "note_off", "time": 56, "note": 64, "velocity": 102, "channel": 0}, {"type": "note_on", "time": 18, "note": 63, "velocity": 103, "channel": 0}, {"type": "note_off", "time": 91, "note": 63, "velocity": 103, "channel": 0}, {"type": "note_on", "time": 9, "note": 67, "velocity": 106, "channel": 0}, {"type": "note_off", "time": 73, "note": 67, "velocity": 106, "channel": 0}, {"type": "note_on", "time": 24, "note": 64, "velocity": 104, "channel": 0}, {"type": "note_off", "time": 93, "note": 64, "velocity": 104, "channel": 0}, {"type": "note_on", "time": 9, "note": 65, "velocity": 100, "channel": 0}, {"type": "note_off", "time": 50, "note": 65, "velocity": 100, "channel": 0}, {"type": "note_on", "time": 12, "note": 67, "velocity": 104, "channel": 0}, {"type": "note_off", "time": 107, "note": 67, "velocity": 104, "channel": 0}, {"type": "note_on", "time": 20, "note": 69, "velocity": 98, "channel": 0}, {"type": "note_off", "time": 51, "note": 69, "velocity": 98, "channel": 0}, {"type": "note_on", "time": 10, "note": 72, "velocity": 103, "channel": 0}, {"type": "note_off", "time": 113, "note": 72, "velocity": 103, "channel": 0}, {"type": "note_on", "time": 18, "note": 74, "velocity": 111, "channel": 0}, {"type": "note_off", "time": 60, "note": 74, "velocity": 111, "channel": 0}, {"type": "note_on", "time": 4, "note": 75, "velocity": 111, "channel": 0}, {"type": "note_off", "time": 110, "note": 75, "velocity": 111, "channel": 0}, {"type": "note_on", "time": 21, "note": 73, "velocity": 103, "channel": 0}, {"type": "note_off", "time": 58, "note": 73, "velocity": 103, "channel": 0}, {"type": "note_on", "time": 10, "note": 74, "velocity": 105, "channel": 0}, {"type": "note_off", "time": 101, "note": 74, "velocity": 105, "channel": 0}, {"type": "note_on", "time": 24, "note": 70, "velocity": 106, "channel": 0}, {"type": "note_off", "time": 57, "note": 70, "velocity": 106, "channel": 0}, {"type": "note_on", "time": 24, "note": 66, "velocity": 107, "channel": 0}, {"type": "note_off", "time": 102, "note": 66, "velocity": 107, "channel": 0}, {"type": "note_on", "time": 13, "note": 62, "velocity": 89, "channel": 0}, {"type": "note_off", "time": 38, "note": 62, "velocity": 89, "channel": 0}, {"type": "note_on", "time": 27, "note": 69, "velocity": 105, "channel": 0}, {"type": "note_off", "time": 133, "note": 69, "velocity": 105, "channel": 0}, {"type": "note_on", "time": 68, "note": 65, "velocity": 106, "channel": 0}, {"type": "note_off", "time": 61, "note": 65, "velocity": 106, "channel": 0}, {"type": "note_on", "time": 14, "note": 69, "velocity": 105, "channel": 0}, {"type": "note_off", "time": 67, "note": 69, "velocity": 105, "channel": 0}, {"type": "note_on", "time": 16, "note": 68, "velocity": 106, "channel": 0}, {"type": "note_off", "time": 79, "note": 68, "velocity": 106, "channel": 0}, {"type": "note_on", "time": 20, "note": 67, "velocity": 103, "channel": 0}, {"type": "note_off", "time": 39, "note": 67, "velocity": 103, "channel": 0}, {"type": "note_on", "time": 13, "note": 66, "velocity": 103, "channel": 0}, {"type": "note_off", "time": 85, "note": 66, "velocity": 103, "channel": 0}, {"type": "note_on", "time": 12, "note": 62, "velocity": 93, "channel": 0}, {"type": "note_off", "time": 51, "note": 62, "velocity": 93, "channel": 0}, {"type": "note_on", "time": 14, "note": 65, "velocity": 104, "channel": 0}, {"type": "note_off", "time": 49, "note": 65, "velocity": 104, "channel": 0}, {"type": "note_on", "time": 16, "note": 64, "velocity": 104, "channel": 0}, {"type": "note_off", "time": 92, "note": 64, "velocity": 104, "channel": 0}, {"type": "note_on", "time": 12, "note": 66, "velocity": 105, "channel": 0}, {"type": "note_off", "time": 74, "note": 66, "velocity": 105, "channel": 0}, {"type": "note_on", "time": 7, "note": 67, "velocity": 102, "channel": 0}, {"type": "note_off", "time": 78, "note": 67, "velocity": 102, "channel": 0}, {"type": "note_on", "time": 15, "note": 69, "velocity": 88, "channel": 0}, {"type": "note_off", "time": 56, "note": 69, "velocity": 88, "channel": 0}, {"type": "note_on", "time": 30, "note": 73, "velocity": 110, "channel": 0}, {"type": "note_off", "time": 89, "note": 73, "velocity": 110, "channel": 0}, {"type": "note_on", "time": 26, "note": 72, "velocity": 99, "channel": 0}, {"type": "note_off", "time": 70, "note": 72, "velocity": 99, "channel": 0}, {"type": "note_on", "time": 9, "note": 70, "velocity": 99, "channel": 0}, {"type": "note_off", "time": 138, "note": 70, "velocity": 99, "channel": 0}, {"type": "note_on", "time": 424, "note": 77, "velocity": 120, "channel": 0}, {"type": "note_off", "time": 98, "note": 77, "velocity": 120, "channel": 0}, {"type": "note_on", "time": 34, "note": 74, "velocity": 106, "channel": 0}, {"type": "note_off", "time": 87, "note": 74, "velocity": 106, "channel": 0}, {"type": "note_on", "time": 543, "note": 75, "velocity": 121, "channel": 0}, {"type": "note_off", "time": 153, "note": 75, "velocity": 121, "channel": 0}, {"type": "note_on", "time": 21, "note": 72, "velocity": 101, "channel": 0}, {"type": "note_off", "time": 91, "note": 72, "velocity": 101, "channel": 0}, {"type": "note_on", "time": 448, "note": 76, "velocity": 119, "channel": 0}, {"type": "note_off", "time": 44, "note": 76, "velocity": 119, "channel": 0}, {"type": "note_on", "time": 22, "note": 79, "velocity": 121, "channel": 0}, {"type": "note_off", "time": 283, "note": 79, "velocity": 121, "channel": 0}, {"type": "note_on", "time": 13, "note": 76, "velocity": 118, "channel": 0}, {"type": "note_off", "time": 382, "note": 76, "velocity": 118, "channel": 0}, {"type": "note_on", "time": 71, "note": 74, "velocity": 107, "channel": 0}, {"type": "note_off", "time": 103, "note": 74, "velocity": 107, "channel": 0}, {"type": "note_on", "time": 36, "note": 70, "velocity": 118, "channel": 0}, {"type": "note_off", "time": 90, "note": 70, "velocity": 118, "channel": 0}, {"type": "note_on", "time": 471, "note": 78, "velocity": 121, "channel": 0}, {"type": "note_off", "time": 317, "note": 78, "velocity": 121, "channel": 0}, {"type": "note_on", "time": 13, "note": 75, "velocity": 113, "channel": 0}, {"type": "note_off", "time": 342, "note": 75, "velocity": 113, "channel": 0}, {"type": "note_on", "time": 259, "note": 66, "velocity": 121, "channel": 0}, {"type": "note_off", "time": 45, "note": 66, "velocity": 121, "channel": 0}, {"type": "note_on", "time": 1, "note": 68, "velocity": 111, "channel": 0}, {"type": "note_off", "time": 250, "note": 68, "velocity": 111, "channel": 0}, {"type": "note_on", "time": 29, "note": 66, "velocity": 115, "channel": 0}, {"type": "note_off", "time": 41, "note": 66, "velocity": 115, "channel": 0}, {"type": "note_on", "time": 12, "note": 65, "velocity": 117, "channel": 0}, {"type": "note_off", "time": 113, "note": 65, "velocity": 117, "channel": 0}, {"type": "note_on", "time": 55, "note": 81, "velocity": 119, "channel": 0}, {"type": "note_off", "time": 283, "note": 81, "velocity": 119, "channel": 0}, {"type": "note_on", "time": 16, "note": 80, "velocity": 119, "channel": 0}, {"type": "note_off", "time": 49, "note": 80, "velocity": 119, "channel": 0}, {"type": "note_on", "time": 7, "note": 79, "velocity": 119, "channel": 0}, {"type": "note_off", "time": 20, "note": 79, "velocity": 119, "channel": 0}, {"type": "note_on", "time": 8, "note": 78, "velocity": 117, "channel": 0}, {"type": "note_off", "time": 330, "note": 78, "velocity": 117, "channel": 0}, {"type": "note_on", "time": 14, "note": 79, "velocity": 121, "channel": 0}, {"type": "note_off", "time": 185, "note": 79, "velocity": 121, "channel": 0}, {"type": "note_on", "time": 14, "note": 76, "velocity": 117, "channel": 0}, {"type": "note_off", "time": 121, "note": 76, "velocity": 117, "channel": 0}, {"type": "note_on", "time": 7, "note": 79, "velocity": 117, "channel": 0}, {"type": "note_off", "time": 63, "note": 79, "velocity": 117, "channel": 0}, {"type": "note_on", "time": 5, "note": 78, "velocity": 115, "channel": 0}, {"type": "note_off", "time": 174, "note": 78, "velocity": 115, "channel": 0}, {"type": "note_on", "time": 5, "note": 75, "velocity": 110, "channel": 0}, {"type": "note_off", "time": 78, "note": 75, "velocity": 110, "channel": 0}, {"type": "note_on", "time": 20, "note": 78, "velocity": 114, "channel": 0}, {"type": "note_off", "time": 80, "note": 78, "velocity": 114, "channel": 0}, {"type": "note_on", "time": 10, "note": 77, "velocity": 118, "channel": 0}, {"type": "note_off", "time": 158, "note": 77, "velocity": 118, "channel": 0}, {"type": "note_on", "time": 6, "note": 74, "velocity": 104, "channel": 0}, {"type": "note_off", "time": 76, "note": 74, "velocity": 104, "channel": 0}, {"type": "note_on", "time": 43, "note": 77, "velocity": 122, "channel": 0}, {"type": "note_off", "time": 64, "note": 77, "velocity": 122, "channel": 0}, {"type": "note_on", "time": 7, "note": 76, "velocity": 117, "channel": 0}, {"type": "note_off", "time": 210, "note": 76, "velocity": 117, "channel": 0}, {"type": "note_on", "time": 86, "note": 73, "velocity": 102, "channel": 0}, {"type": "note_off", "time": 45, "note": 73, "velocity": 102, "channel": 0}, {"type": "note_on", "time": 129, "note": 75, "velocity": 113, "channel": 0}, {"type": "note_off", "time": 76, "note": 75, "velocity": 113, "channel": 0}, {"type": "note_on", "time": 87, "note": 75, "velocity": 114, "channel": 0}, {"type": "note_off", "time": 70, "note": 75, "velocity": 114, "channel": 0}, {"type": "note_on", "time": 54, "note": 75, "velocity": 114, "channel": 0}, {"type": "note_off", "time": 109, "note": 75, "velocity": 114, "channel": 0}, {"type": "note_on", "time": 31, "note": 75, "velocity": 113, "channel": 0}, {"type": "note_off", "time": 73, "note": 75, "velocity": 113, "channel": 0}, {"type": "note_on", "time": 40, "note": 75, "velocity": 113, "channel": 0}, {"type": "note_off", "time": 85, "note": 75, "velocity": 113, "channel": 0}, {"type": "note_on", "time": 38, "note": 75, "velocity": 113, "channel": 0}, {"type": "note_off", "time": 80, "note": 75, "velocity": 113, "channel": 0}, {"type": "note_on", "time": 19, "note": 73, "velocity": 110, "channel": 0}, {"type": "note_off", "time": 50, "note": 73, "velocity": 110, "channel": 0}, {"type": "note_on", "time": 6, "note": 75, "velocity": 108, "channel": 0}, {"type": "note_off", "time": 16, "note": 75, "velocity": 108, "channel": 0}, {"type": "note_on", "time": 12, "note": 78, "velocity": 122, "channel": 0}, {"type": "note_off", "time": 62, "note": 78, "velocity": 122, "channel": 0}, {"type": "note_on", "time": 14, "note": 76, "velocity": 118, "channel": 0}, {"type": "note_off", "time": 43, "note": 76, "velocity": 118, "channel": 0}, {"type": "note_on", "time": 15, "note": 74, "velocity": 108, "channel": 0}, {"type": "note_off", "time": 36, "note": 74, "velocity": 108, "channel": 0}, {"type": "note_on", "time": 15, "note": 70, "velocity": 105, "channel": 0}, {"type": "note_off", "time": 43, "note": 70, "velocity": 105, "channel": 0}, {"type": "note_on", "time": 19, "note": 68, "velocity": 117, "channel": 0}, {"type": "note_off", "time": 58, "note": 68, "velocity": 117, "channel": 0}, {"type": "note_on", "time": 4, "note": 70, "velocity": 105, "channel": 0}, {"type": "note_off", "time": 49, "note": 70, "velocity": 105, "channel": 0}, {"type": "note_on", "time": 6, "note": 72, "velocity": 108, "channel": 0}, {"type": "note_off", "time": 18, "note": 72, "velocity": 108, "channel": 0}, {"type": "note_on", "time": 9, "note": 73, "velocity": 112, "channel": 0}, {"type": "note_off", "time": 37, "note": 73, "velocity": 112, "channel": 0}, {"type": "note_on", "time": 8, "note": 75, "velocity": 109, "channel": 0}, {"type": "note_off", "time": 42, "note": 75, "velocity": 109, "channel": 0}, {"type": "note_on", "time": 16, "note": 73, "velocity": 112, "channel": 0}, {"type": "note_off", "time": 55, "note": 73, "velocity": 112, "channel": 0}, {"type": "note_on", "time": 67, "note": 70, "velocity": 115, "channel": 0}, {"type": "note_off", "time": 82, "note": 70, "velocity": 115, "channel": 0}, {"type": "note_on", "time": 7, "note": 62, "velocity": 106, "channel": 0}, {"type": "note_off", "time": 49, "note": 62, "velocity": 106, "channel": 0}, {"type": "note_on", "time": 10, "note": 66, "velocity": 111, "channel": 0}, {"type": "note_off", "time": 52, "note": 66, "velocity": 111, "channel": 0}, {"type": "note_on", "time": 10, "note": 69, "velocity": 113, "channel": 0}, {"type": "note_off", "time": 35, "note": 69, "velocity": 113, "channel": 0}, {"type": "note_on", "time": 12, "note": 74, "velocity": 106, "channel": 0}, {"type": "note_off", "time": 54, "note": 74, "velocity": 106, "channel": 0}, {"type": "note_on", "time": 6, "note": 73, "velocity": 112, "channel": 0}, {"type": "note_off", "time": 48, "note": 73, "velocity": 112, "channel": 0}, {"type": "note_on", "time": 7, "note": 70, "velocity": 113, "channel": 0}, {"type": "note_off", "time": 67, "note": 70, "velocity": 113, "channel": 0}, {"type": "note_on", "time": 6, "note": 67, "velocity": 115, "channel": 0}, {"type": "note_off", "time": 32, "note": 67, "velocity": 115, "channel": 0}, {"type": "note_on", "time": 5, "note": 69, "velocity": 118, "channel": 0}, {"type": "note_off", "time": 57, "note": 69, "velocity": 118, "channel": 0}, {"type": "note_on", "time": 7, "note": 61, "velocity": 107, "channel": 0}, {"type": "note_off", "time": 53, "note": 61, "velocity": 107, "channel": 0}, {"type": "note_on", "time": 0, "note": 65, "velocity": 106, "channel": 0}, {"type": "note_off", "time": 33, "note": 65, "velocity": 106, "channel": 0}, {"type": "note_on", "time": 16, "note": 60, "velocity": 107, "channel": 0}, {"type": "note_off", "time": 43, "note": 60, "velocity": 107, "channel": 0}, {"type": "note_on", "time": 7, "note": 58, "velocity": 103, "channel": 0}, {"type": "note_off", "time": 76, "note": 58, "velocity": 103, "channel": 0}, {"type": "note_on", "time": 65, "note": 70, "velocity": 115, "channel": 0}, {"type": "note_off", "time": 56, "note": 70, "velocity": 115, "channel": 0}, {"type": "note_on", "time": 15, "note": 64, "velocity": 109, "channel": 0}, {"type": "note_off", "time": 27, "note": 64, "velocity": 109, "channel": 0}, {"type": "note_on", "time": 1, "note": 65, "velocity": 119, "channel": 0}, {"type": "note_off", "time": 56, "note": 65, "velocity": 119, "channel": 0}, {"type": "note_on", "time": 0, "note": 66, "velocity": 119, "channel": 0}, {"type": "note_off", "time": 50, "note": 66, "velocity": 119, "channel": 0}, {"type": "note_on", "time": 8, "note": 69, "velocity": 115, "channel": 0}, {"type": "note_off", "time": 36, "note": 69, "velocity": 115, "channel": 0}, {"type": "note_on", "time": 6, "note": 70, "velocity": 109, "channel": 0}, {"type": "note_off", "time": 34, "note": 70, "velocity": 109, "channel": 0}, {"type": "note_on", "time": 10, "note": 75, "velocity": 109, "channel": 0}, {"type": "note_off", "time": 35, "note": 75, "velocity": 109, "channel": 0}, {"type": "note_on", "time": 4, "note": 72, "velocity": 101, "channel": 0}, {"type": "note_off", "time": 55, "note": 72, "velocity": 101, "channel": 0}, {"type": "note_on", "time": 17, "note": 70, "velocity": 107, "channel": 0}, {"type": "note_off", "time": 56, "note": 70, "velocity": 107, "channel": 0}, {"type": "note_on", "time": 9, "note": 67, "velocity": 115, "channel": 0}, {"type": "note_off", "time": 25, "note": 67, "velocity": 115, "channel": 0}, {"type": "note_on", "time": 6, "note": 68, "velocity": 118, "channel": 0}, {"type": "note_off", "time": 32, "note": 68, "velocity": 118, "channel": 0}, {"type": "note_on", "time": 5, "note": 70, "velocity": 108, "channel": 0}, {"type": "note_off", "time": 42, "note": 70, "velocity": 108, "channel": 0}, {"type": "note_on", "time": 30, "note": 72, "velocity": 102, "channel": 0}, {"type": "note_off", "time": 46, "note": 72, "velocity": 102, "channel": 0}, {"type": "note_on", "time": 8, "note": 75, "velocity": 112, "channel": 0}, {"type": "note_off", "time": 19, "note": 75, "velocity": 112, "channel": 0}, {"type": "note_on", "time": 15, "note": 79, "velocity": 115, "channel": 0}, {"type": "note_off", "time": 44, "note": 79, "velocity": 115, "channel": 0}, {"type": "note_on", "time": 5, "note": 82, "velocity": 105, "channel": 0}, {"type": "note_off", "time": 16, "note": 82, "velocity": 105, "channel": 0}, {"type": "note_on", "time": 5, "note": 84, "velocity": 112, "channel": 0}, {"type": "note_off", "time": 42, "note": 84, "velocity": 112, "channel": 0}, {"type": "note_on", "time": 16, "note": 87, "velocity": 100, "channel": 0}, {"type": "note_off", "time": 42, "note": 87, "velocity": 100, "channel": 0}, {"type": "note_on", "time": 7, "note": 85, "velocity": 118, "channel": 0}, {"type": "note_off", "time": 39, "note": 85, "velocity": 118, "channel": 0}, {"type": "note_on", "time": 7, "note": 83, "velocity": 117, "channel": 0}, {"type": "note_off", "time": 52, "note": 83, "velocity": 117, "channel": 0}, {"type": "note_on", "time": 5, "note": 82, "velocity": 120, "channel": 0}, {"type": "note_off", "time": 106, "note": 82, "velocity": 120, "channel": 0}, {"type": "note_on", "time": 16, "note": 73, "velocity": 109, "channel": 0}, {"type": "note_off", "time": 57, "note": 73, "velocity": 109, "channel": 0}, {"type": "note_on", "time": 20, "note": 82, "velocity": 112, "channel": 0}, {"type": "note_off", "time": 20, "note": 82, "velocity": 112, "channel": 0}, {"type": "note_on", "time": 2, "note": 83, "velocity": 109, "channel": 0}, {"type": "note_off", "time": 42, "note": 83, "velocity": 109, "channel": 0}, {"type": "note_on", "time": 30, "note": 74, "velocity": 106, "channel": 0}, {"type": "note_off", "time": 56, "note": 74, "velocity": 106, "channel": 0}, {"type": "note_on", "time": 10, "note": 73, "velocity": 109, "channel": 0}, {"type": "note_off", "time": 52, "note": 73, "velocity": 109, "channel": 0}, {"type": "note_on", "time": 10, "note": 74, "velocity": 110, "channel": 0}, {"type": "note_off", "time": 61, "note": 74, "velocity": 110, "channel": 0}, {"type": "note_on", "time": 29, "note": 83, "velocity": 110, "channel": 0}, {"type": "note_off", "time": 54, "note": 83, "velocity": 110, "channel": 0}, {"type": "note_on", "time": 7, "note": 77, "velocity": 108, "channel": 0}, {"type": "note_off", "time": 57, "note": 77, "velocity": 108, "channel": 0}, {"type": "note_on", "time": 27, "note": 72, "velocity": 106, "channel": 0}, {"type": "note_off", "time": 118, "note": 72, "velocity": 106, "channel": 0}, {"type": "note_on", "time": 6074, "note": 85, "velocity": 99, "channel": 0}, {"type": "note_off", "time": 43, "note": 85, "velocity": 99, "channel": 0}, {"type": "note_on", "time": 22, "note": 87, "velocity": 108, "channel": 0}, {"type": "note_off", "time": 120, "note": 87, "velocity": 108, "channel": 0}, {"type": "note_on", "time": 2, "note": 88, "velocity": 103, "channel": 0}, {"type": "note_off", "time": 218, "note": 88, "velocity": 103, "channel": 0}, {"type": "note_on", "time": 12, "note": 91, "velocity": 111, "channel": 0}, {"type": "note_off", "time": 165, "note": 91, "velocity": 111, "channel": 0}, {"type": "note_on", "time": 31, "note": 88, "velocity": 113, "channel": 0}, {"type": "note_off", "time": 75, "note": 88, "velocity": 113, "channel": 0}, {"type": "note_on", "time": 539, "note": 86, "velocity": 118, "channel": 0}, {"type": "note_off", "time": 31, "note": 86, "velocity": 118, "channel": 0}, {"type": "note_on", "time": 10, "note": 88, "velocity": 115, "channel": 0}, {"type": "note_off", "time": 135, "note": 88, "velocity": 115, "channel": 0}, {"type": "note_on", "time": 33, "note": 88, "velocity": 93, "channel": 0}, {"type": "note_off", "time": 287, "note": 88, "velocity": 93, "channel": 0}, {"type": "note_on", "time": 38, "note": 91, "velocity": 117, "channel": 0}, {"type": "note_off", "time": 82, "note": 91, "velocity": 117, "channel": 0}, {"type": "note_on", "time": 789, "note": 83, "velocity": 115, "channel": 0}, {"type": "note_off", "time": 104, "note": 83, "velocity": 115, "channel": 0}, {"type": "note_on", "time": 20, "note": 87, "velocity": 90, "channel": 0}, {"type": "note_off", "time": 59, "note": 87, "velocity": 90, "channel": 0}, {"type": "note_on", "time": 35, "note": 88, "velocity": 120, "channel": 0}, {"type": "note_off", "time": 652, "note": 88, "velocity": 120, "channel": 0}, {"type": "note_on", "time": 27, "note": 91, "velocity": 100, "channel": 0}, {"type": "note_off", "time": 44, "note": 91, "velocity": 100, "channel": 0}, {"type": "note_on", "time": 11, "note": 90, "velocity": 98, "channel": 0}, {"type": "note_off", "time": 31, "note": 90, "velocity": 98, "channel": 0}, {"type": "note_on", "time": 10, "note": 91, "velocity": 109, "channel": 0}, {"type": "note_off", "time": 49, "note": 91, "velocity": 109, "channel": 0}, {"type": "note_on", "time": 25, "note": 88, "velocity": 115, "channel": 0}, {"type": "note_off", "time": 87, "note": 88, "velocity": 115, "channel": 0}, {"type": "note_on", "time": 8, "note": 87, "velocity": 114, "channel": 0}, {"type": "note_off", "time": 50, "note": 87, "velocity": 114, "channel": 0}, {"type": "note_on", "time": 21, "note": 86, "velocity": 93, "channel": 0}, {"type": "note_off", "time": 38, "note": 86, "velocity": 93, "channel": 0}, {"type": "note_on", "time": 7, "note": 85, "velocity": 103, "channel": 0}, {"type": "note_off", "time": 129, "note": 85, "velocity": 103, "channel": 0}, {"type": "note_on", "time": 7, "note": 81, "velocity": 102, "channel": 0}, {"type": "note_off", "time": 26, "note": 81, "velocity": 102, "channel": 0}, {"type": "note_on", "time": 7, "note": 83, "velocity": 103, "channel": 0}, {"type": "note_off", "time": 48, "note": 83, "velocity": 103, "channel": 0}, {"type": "note_on", "time": 49, "note": 86, "velocity": 116, "channel": 0}, {"type": "note_off", "time": 71, "note": 86, "velocity": 116, "channel": 0}, {"type": "note_on", "time": 13, "note": 87, "velocity": 105, "channel": 0}, {"type": "note_off", "time": 26, "note": 87, "velocity": 105, "channel": 0}, {"type": "note_on", "time": 11, "note": 89, "velocity": 110, "channel": 0}, {"type": "note_off", "time": 27, "note": 89, "velocity": 110, "channel": 0}, {"type": "note_on", "time": 13, "note": 91, "velocity": 107, "channel": 0}, {"type": "note_off", "time": 49, "note": 91, "velocity": 107, "channel": 0}, {"type": "note_on", "time": 7, "note": 90, "velocity": 116, "channel": 0}, {"type": "note_off", "time": 63, "note": 90, "velocity": 116, "channel": 0}, {"type": "note_on", "time": 12, "note": 91, "velocity": 107, "channel": 0}, {"type": "note_off", "time": 54, "note": 91, "velocity": 107, "channel": 0}, {"type": "note_on", "time": 32, "note": 90, "velocity": 111, "channel": 0}, {"type": "note_off", "time": 1010, "note": 90, "velocity": 111, "channel": 0}, {"type": "note_on", "time": 24, "note": 89, "velocity": 116, "channel": 0}, {"type": "note_off", "time": 42, "note": 89, "velocity": 116, "channel": 0}, {"type": "note_on", "time": 8, "note": 88, "velocity": 108, "channel": 0}, {"type": "note_off", "time": 20, "note": 88, "velocity": 108, "channel": 0}, {"type": "note_on", "time": 40, "note": 84, "velocity": 100, "channel": 0}, {"type": "note_off", "time": 67, "note": 84, "velocity": 100, "channel": 0}, {"type": "note_on", "time": 25, "note": 85, "velocity": 112, "channel": 0}, {"type": "note_off", "time": 202, "note": 85, "velocity": 112, "channel": 0}, {"type": "note_on", "time": 1101, "note": 81, "velocity": 124, "channel": 0}, {"type": "note_off", "time": 109, "note": 81, "velocity": 124, "channel": 0}, {"type": "note_on", "time": 79, "note": 81, "velocity": 116, "channel": 0}, {"type": "note_off", "time": 98, "note": 81, "velocity": 116, "channel": 0}, {"type": "note_on", "time": 37, "note": 78, "velocity": 112, "channel": 0}, {"type": "note_off", "time": 54, "note": 78, "velocity": 112, "channel": 0}, {"type": "note_on", "time": 6, "note": 81, "velocity": 119, "channel": 0}, {"type": "note_off", "time": 84, "note": 81, "velocity": 119, "channel": 0}, {"type": "note_on", "time": 17, "note": 84, "velocity": 119, "channel": 0}, {"type": "note_off", "time": 70, "note": 84, "velocity": 119, "channel": 0}, {"type": "note_on", "time": 20, "note": 83, "velocity": 116, "channel": 0}, {"type": "note_off", "time": 79, "note": 83, "velocity": 116, "channel": 0}, {"type": "note_on", "time": 13, "note": 82, "velocity": 122, "channel": 0}, {"type": "note_off", "time": 92, "note": 82, "velocity": 122, "channel": 0}, {"type": "note_on", "time": 8, "note": 81, "velocity": 120, "channel": 0}, {"type": "note_off", "time": 70, "note": 81, "velocity": 120, "channel": 0}, {"type": "note_on", "time": 14, "note": 78, "velocity": 115, "channel": 0}, {"type": "note_off", "time": 70, "note": 78, "velocity": 115, "channel": 0}, {"type": "note_on", "time": 9, "note": 74, "velocity": 111, "channel": 0}, {"type": "note_off", "time": 87, "note": 74, "velocity": 111, "channel": 0}, {"type": "note_on", "time": 12, "note": 75, "velocity": 103, "channel": 0}, {"type": "note_off", "time": 25, "note": 75, "velocity": 103, "channel": 0}, {"type": "note_on", "time": 8, "note": 78, "velocity": 94, "channel": 0}, {"type": "note_off", "time": 18, "note": 78, "velocity": 94, "channel": 0}, {"type": "note_on", "time": 16, "note": 81, "velocity": 124, "channel": 0}, {"type": "note_off", "time": 96, "note": 81, "velocity": 124, "channel": 0}, {"type": "note_on", "time": 12, "note": 79, "velocity": 103, "channel": 0}, {"type": "note_off", "time": 40, "note": 79, "velocity": 103, "channel": 0}, {"type": "note_on", "time": 6, "note": 78, "velocity": 120, "channel": 0}, {"type": "note_off", "time": 99, "note": 78, "velocity": 120, "channel": 0}, {"type": "note_on", "time": 19, "note": 81, "velocity": 124, "channel": 0}, {"type": "note_off", "time": 81, "note": 81, "velocity": 124, "channel": 0}, {"type": "note_on", "time": 16, "note": 80, "velocity": 122, "channel": 0}, {"type": "note_off", "time": 62, "note": 80, "velocity": 122, "channel": 0}, {"type": "note_on", "time": 18, "note": 78, "velocity": 118, "channel": 0}, {"type": "note_off", "time": 63, "note": 78, "velocity": 118, "channel": 0}, {"type": "note_on", "time": 10, "note": 73, "velocity": 117, "channel": 0}, {"type": "note_off", "time": 110, "note": 73, "velocity": 117, "channel": 0}, {"type": "note_on", "time": 32, "note": 71, "velocity": 96, "channel": 0}, {"type": "note_off", "time": 54, "note": 71, "velocity": 96, "channel": 0}, {"type": "note_on", "time": 7, "note": 76, "velocity": 120, "channel": 0}, {"type": "note_off", "time": 95, "note": 76, "velocity": 120, "channel": 0}, {"type": "note_on", "time": 16, "note": 77, "velocity": 119, "channel": 0}, {"type": "note_off", "time": 50, "note": 77, "velocity": 119, "channel": 0}, {"type": "note_on", "time": 20, "note": 79, "velocity": 122, "channel": 0}, {"type": "note_off", "time": 89, "note": 79, "velocity": 122, "channel": 0}, {"type": "note_on", "time": 27, "note": 78, "velocity": 121, "channel": 0}, {"type": "note_off", "time": 61, "note": 78, "velocity": 121, "channel": 0}, {"type": "note_on", "time": 28, "note": 77, "velocity": 123, "channel": 0}, {"type": "note_off", "time": 78, "note": 77, "velocity": 123, "channel": 0}, {"type": "note_on", "time": 22, "note": 76, "velocity": 122, "channel": 0}, {"type": "note_off", "time": 66, "note": 76, "velocity": 122, "channel": 0}, {"type": "note_on", "time": 13, "note": 75, "velocity": 111, "channel": 0}, {"type": "note_off", "time": 55, "note": 75, "velocity": 111, "channel": 0}, {"type": "note_on", "time": 32, "note": 79, "velocity": 99, "channel": 0}, {"type": "note_off", "time": 67, "note": 79, "velocity": 99, "channel": 0}, {"type": "note_on", "time": 16, "note": 77, "velocity": 122, "channel": 0}, {"type": "note_off", "time": 66, "note": 77, "velocity": 122, "channel": 0}, {"type": "note_on", "time": 38, "note": 74, "velocity": 108, "channel": 0}, {"type": "note_off", "time": 60, "note": 74, "velocity": 108, "channel": 0}, {"type": "note_on", "time": 27, "note": 70, "velocity": 108, "channel": 0}, {"type": "note_off", "time": 103, "note": 70, "velocity": 108, "channel": 0}, {"type": "note_on", "time": 14, "note": 67, "velocity": 99, "channel": 0}, {"type": "note_off", "time": 40, "note": 67, "velocity": 99, "channel": 0}, {"type": "note_on", "time": 27, "note": 75, "velocity": 111, "channel": 0}, {"type": "note_off", "time": 92, "note": 75, "velocity": 111, "channel": 0}, {"type": "note_on", "time": 20, "note": 73, "velocity": 106, "channel": 0}, {"type": "note_off", "time": 50, "note": 73, "velocity": 106, "channel": 0}, {"type": "note_on", "time": 21, "note": 69, "velocity": 108, "channel": 0}, {"type": "note_off", "time": 87, "note": 69, "velocity": 108, "channel": 0}, {"type": "note_on", "time": 24, "note": 66, "velocity": 92, "channel": 0}, {"type": "note_off", "time": 32, "note": 66, "velocity": 92, "channel": 0}, {"type": "note_on", "time": 12, "note": 70, "velocity": 111, "channel": 0}, {"type": "note_off", "time": 78, "note": 70, "velocity": 111, "channel": 0}, {"type": "note_on", "time": 28, "note": 61, "velocity": 101, "channel": 0}, {"type": "note_off", "time": 61, "note": 61, "velocity": 101, "channel": 0}, {"type": "note_on", "time": 15, "note": 66, "velocity": 109, "channel": 0}, {"type": "note_off", "time": 108, "note": 66, "velocity": 109, "channel": 0}, {"type": "note_on", "time": 20, "note": 70, "velocity": 108, "channel": 0}, {"type": "note_off", "time": 73, "note": 70, "velocity": 108, "channel": 0}, {"type": "note_on", "time": 10, "note": 68, "velocity": 110, "channel": 0}, {"type": "note_off", "time": 80, "note": 68, "velocity": 110, "channel": 0}, {"type": "note_on", "time": 13, "note": 67, "velocity": 114, "channel": 0}, {"type": "note_off", "time": 72, "note": 67, "velocity": 114, "channel": 0}, {"type": "note_on", "time": 20, "note": 66, "velocity": 112, "channel": 0}, {"type": "note_off", "time": 123, "note": 66, "velocity": 112, "channel": 0}, {"type": "note_on", "time": 102, "note": 65, "velocity": 115, "channel": 0}, {"type": "note_off", "time": 98, "note": 65, "velocity": 115, "channel": 0}, {"type": "note_on", "time": 19, "note": 65, "velocity": 117, "channel": 0}, {"type": "note_off", "time": 92, "note": 65, "velocity": 117, "channel": 0}, {"type": "note_on", "time": 26, "note": 65, "velocity": 118, "channel": 0}, {"type": "note_off", "time": 99, "note": 65, "velocity": 118, "channel": 0}, {"type": "note_on", "time": 16, "note": 65, "velocity": 118, "channel": 0}, {"type": "note_off", "time": 95, "note": 65, "velocity": 118, "channel": 0}, {"type": "note_on", "time": 38, "note": 65, "velocity": 117, "channel": 0}, {"type": "note_off", "time": 101, "note": 65, "velocity": 117, "channel": 0}, {"type": "note_on", "time": 46, "note": 65, "velocity": 117, "channel": 0}, {"type": "note_off", "time": 87, "note": 65, "velocity": 117, "channel": 0}, {"type": "note_on", "time": 33, "note": 65, "velocity": 115, "channel": 0}, {"type": "note_off", "time": 111, "note": 65, "velocity": 115, "channel": 0}, {"type": "end_of_track", "time": 0}]]}