{"ticks_per_beat": 20160, "tracks": [[{"type": "track_name", "name": "Melody", "time": 0}, {"type": "set_tempo", "tempo": 909090, "time": 0}, {"type": "key_signature", "key": "Db", "time": 0}, {"type": "time_signature", "numerator": 4, "denominator": 4, "clocks_per_click": 24, "notated_32nd_notes_per_beat": 8, "time": 0}, {"type": "note_on", "time": 129867, "note": 46, "velocity": 93, "channel": 0}, {"type": "note_off", "time": 3100, "note": 46, "velocity": 93, "channel": 0}, {"type": "note_on", "time": 90, "note": 48, "velocity": 93, "channel": 0}, {"type": "note_off", "time": 3756, "note": 48, "velocity": 93, "channel": 0}, {"type": "note_on", "time": 271, "note": 49, "velocity": 95, "channel": 0}, {"type": "note_off", "time": 3869, "note": 49, "velocity": 95, "channel": 0}, {"type": "note_on", "time": 294, "note": 51, "velocity": 94, "channel": 0}, {"type": "note_off", "time": 3801, "note": 51, "velocity": 94, "channel": 0}, {"type": "note_on", "time": 429, "note": 53, "velocity": 98, "channel": 0}, {"type": "note_off", "time": 5068, "note": 53, "velocity": 98, "channel": 0}, {"type": "note_on", "time": 769, "note": 54, "velocity": 98, "channel": 0}, {"type": "note_off", "time": 5611, "note": 54, "velocity": 98, "channel": 0}, {"type": "note_on", "time": 1063, "note": 56, "velocity": 98, "channel": 0}, {"type": "note_off", "time": 4457, "note": 56, "velocity": 98, "channel": 0}, {"type": "note_on", "time": 588, "note": 58, "velocity": 96, "channel": 0}, {"type": "note_off", "time": 4525, "note": 58, "velocity": 96, "channel": 0}, {"type": "note_on", "time": 181, "note": 60, "velocity": 103, "channel": 0}, {"type": "note_off", "time": 3801, "note": 60, "velocity": 103, "channel": 0}, {"type": "note_on", "time": 181, "note": 61, "velocity": 106, "channel": 0}, {"type": "note_off", "time": 3982, "note": 61, "velocity": 106, "channel": 0}, {"type": "note_on", "time": 181, "note": 63, "velocity": 111, "channel": 0}, {"type": "note_off", "time": 4163, "note": 63, "velocity": 111, "channel": 0}, {"type": "note_on", "time": 181, "note": 65, "velocity": 105, "channel": 0}, {"type": "note_off", "time": 4706, "note": 65, "velocity": 105, "channel": 0}, {"type": "note_on", "time": 1267, "note": 68, "velocity": 110, "channel": 0}, {"type": "note_off", "time": 4525, "note": 68, "velocity": 110, "channel": 0}, {"type": "note_on", "time": 905, "note": 60, "velocity": 102, "channel": 0}, {"type": "note_off", "time": 4344, "note": 60, "velocity": 102, "channel": 0}, {"type": "note_on", "time": 905, "note": 70, "velocity": 106, "channel": 0}, {"type": "note_off", "time": 4706, "note": 70, "velocity": 106, "channel": 0}, {"type": "note_on", "time": 0, "note": 68, "velocity": 104, "channel": 0}, {"type": "note_off", "time": 3801, "note": 68, "velocity": 104, "channel": 0}, {"type": "note_on", "time": 1086, "note": 61, "velocity": 99, "channel": 0}, {"type": "note_off", "time": 3258, "note": 61, "velocity": 99, "channel": 0}, {"type": "note_on", "time": 362, "note": 66, "velocity": 104, "channel": 0}, {"type": "note_off", "time": 4344, "note": 66, "velocity": 104, "channel": 0}, {"type": "note_on", "time": 181, "note": 65, "velocity": 103, "channel": 0}, {"type": "note_off", "time": 3982, "note": 65, "velocity": 103, "channel": 0}, {"type": "note_on", "time": 362, "note": 61, "velocity": 93, "channel": 0}, {"type": "note_off", "time": 3620, "note": 61, "velocity": 93, "channel": 0}, {"type": "note_on", "time": 973, "note": 63, "velocity": 104, "channel": 0}, {"type": "note_off", "time": 4344, "note": 63, "velocity": 104, "channel": 0}, {"type": "note_on", "time": 1561, "note": 56, "velocity": 95, "channel": 0}, {"type": "note_off", "time": 4344, "note": 56, "velocity": 95, "channel": 0}, {"type": "note_on", "time": 2534, "note": 58, "velocity": 88, "channel": 0}, {"type": "note_off", "time": 12853, "note": 58, "velocity": 88, "channel": 0}, {"type": "note_on", "time": 16517, "note": 70, "velocity": 102, "channel": 0}, {"type": "note_off", "time": 2558, "note": 70, "velocity": 102, "channel": 0}, {"type": "note_on", "time": 128, "note": 71, "velocity": 112, "channel": 0}, {"type": "note_off", "time": 1753, "note": 71, "velocity": 112, "channel": 0}, {"type": "note_on", "time": 241, "note": 70, "velocity": 111, "channel": 0}, {"type": "note_off", "time": 2381, "note": 70, "velocity": 111, "channel": 0}, {"type": "note_on", "time": 132, "note": 66, "velocity": 101, "channel": 0}, {"type": "note_off", "time": 2715, "note": 66, "velocity": 101, "channel": 0}, {"type": "note_on", "time": 0, "note": 63, "velocity": 109, "channel": 0}, {"type": "note_off", "time": 2353, "note": 63, "velocity": 109, "channel": 0}, {"type": "note_on", "time": 221, "note": 59, "velocity": 98, "channel": 0}, {"type": "note_off", "time": 4103, "note": 59, "velocity": 98, "channel": 0}, {"type": "note_on", "time": 257, "note": 57, "velocity": 87, "channel": 0}, {"type": "note_off", "time": 1528, "note": 57, "velocity": 87, "channel": 0}, {"type": "note_on", "time": 2940, "note": 56, "velocity": 102, "channel": 0}, {"type": "note_off", "time": 3439, "note": 56, "velocity": 102, "channel": 0}, {"type": "note_on", "time": 587, "note": 58, "velocity": 99, "channel": 0}, {"type": "note_off", "time": 3298, "note": 58, "velocity": 99, "channel": 0}, {"type": "note_on", "time": 639, "note": 54, "velocity": 91, "channel": 0}, {"type": "note_off", "time": 2715, "note": 54, "velocity": 91, "channel": 0}, {"type": "note_on", "time": 4706, "note": 56, "velocity": 95, "channel": 0}, {"type": "note_off", "time": 6879, "note": 56, "velocity": 95, "channel": 0}, {"type": "note_on", "time": 1267, "note": 54, "velocity": 92, "channel": 0}, {"type": "note_off", "time": 2353, "note": 54, "velocity": 92, "channel": 0}, {"type": "note_on", "time": 543, "note": 53, "velocity": 90, "channel": 0}, {"type": "note_off", "time": 3258, "note": 53, "velocity": 90, "channel": 0}, {"type": "note_on", "time": 1677, "note": 49, "velocity": 90, "channel": 0}, {"type": "note_off", "time": 3443, "note": 49, "velocity": 90, "channel": 0}, {"type": "note_on", "time": 1866, "note": 51, "velocity": 94, "channel": 0}, {"type": "note_off", "time": 3089, "note": 51, "velocity": 94, "channel": 0}, {"type": "note_on", "time": 422, "note": 46, "velocity": 91, "channel": 0}, {"type": "note_off", "time": 5973, "note": 46, "velocity": 91, "channel": 0}, {"type": "note_on", "time": 362, "note": 51, "velocity": 92, "channel": 0}, {"type": "note_off", "time": 4706, "note": 51, "velocity": 92, "channel": 0}, {"type": "note_on", "time": 181, "note": 58, "velocity": 93, "channel": 0}, {"type": "note_off", "time": 5611, "note": 58, "velocity": 93, "channel": 0}, {"type": "note_on", "time": 543, "note": 63, "velocity": 107, "channel": 0}, {"type": "note_off", "time": 5249, "note": 63, "velocity": 107, "channel": 0}, {"type": "note_on", "time": 181, "note": 70, "velocity": 97, "channel": 0}, {"type": "note_off", "time": 8146, "note": 70, "velocity": 97, "channel": 0}, {"type": "note_on", "time": 362, "note": 68, "velocity": 82, "channel": 0}, {"type": "note_off", "time": 13758, "note": 68, "velocity": 82, "channel": 0}, {"type": "note_on", "time": 25162, "note": 72, "velocity": 102, "channel": 0}, {"type": "note_off", "time": 2172, "note": 72, "velocity": 102, "channel": 0}, {"type": "note_on", "time": 181, "note": 73, "velocity": 103, "channel": 0}, {"type": "note_off", "time": 3801, "note": 73, "velocity": 103, "channel": 0}, {"type": "note_on", "time": 808, "note": 72, "velocity": 101, "channel": 0}, {"type": "note_off", "time": 4706, "note": 72, "velocity": 101, "channel": 0}, {"type": "note_on", "time": 426, "note": 70, "velocity": 106, "channel": 0}, {"type": "note_off", "time": 4344, "note": 70, "velocity": 106, "channel": 0}, {"type": "note_on", "time": 466, "note": 68, "velocity": 107, "channel": 0}, {"type": "note_off", "time": 5599, "note": 68, "velocity": 107, "channel": 0}, {"type": "note_on", "time": 301, "note": 72, "velocity": 105, "channel": 0}, {"type": "note_off", "time": 4163, "note": 72, "velocity": 105, "channel": 0}, {"type": "note_on", "time": 181, "note": 68, "velocity": 107, "channel": 0}, {"type": "note_off", "time": 3982, "note": 68, "velocity": 107, "channel": 0}, {"type": "note_on", "time": 362, "note": 70, "velocity": 106, "channel": 0}, {"type": "note_off", "time": 3982, "note": 70, "velocity": 106, "channel": 0}, {"type": "note_on", "time": 543, "note": 66, "velocity": 108, "channel": 0}, {"type": "note_off", "time": 4344, "note": 66, "velocity": 108, "channel": 0}, {"type": "note_on", "time": 724, "note": 68, "velocity": 108, "channel": 0}, {"type": "note_off", "time": 4163, "note": 68, "velocity": 108, "channel": 0}, {"type": "note_on", "time": 905, "note": 65, "velocity": 102, "channel": 0}, {"type": "note_off", "time": 4525, "note": 65, "velocity": 102, "channel": 0}, {"type": "note_on", "time": 181, "note": 71, "velocity": 103, "channel": 0}, {"type": "note_off", "time": 3801, "note": 71, "velocity": 103, "channel": 0}, {"type": "note_on", "time": 543, "note": 64, "velocity": 110, "channel": 0}, {"type": "note_off", "time": 3620, "note": 64, "velocity": 110, "channel": 0}, {"type": "note_on", "time": 724, "note": 68, "velocity": 106, "channel": 0}, {"type": "note_off", "time": 3439, "note": 68, "velocity": 106, "channel": 0}, {"type": "note_on", "time": 724, "note": 61, "velocity": 100, "channel": 0}, {"type": "note_off", "time": 3258, "note": 61, "velocity": 100, "channel": 0}, {"type": "note_on", "time": 583, "note": 66, "velocity": 102, "channel": 0}, {"type": "note_off", "time": 3797, "note": 66, "velocity": 102, "channel": 0}, {"type": "note_on", "time": 241, "note": 59, "velocity": 92, "channel": 0}, {"type": "note_off", "time": 2353, "note": 59, "velocity": 92, "channel": 0}, {"type": "note_on", "time": 84, "note": 64, "velocity": 105, "channel": 0}, {"type": "note_off", "time": 3801, "note": 64, "velocity": 105, "channel": 0}, {"type": "note_on", "time": 0, "note": 58, "velocity": 94, "channel": 0}, {"type": "note_off", "time": 1629, "note": 58, "velocity": 94, "channel": 0}, {"type": "note_on", "time": 724, "note": 63, "velocity": 109, "channel": 0}, {"type": "note_off", "time": 3982, "note": 63, "velocity": 109, "channel": 0}, {"type": "note_on", "time": 362, "note": 65, "velocity": 107, "channel": 0}, {"type": "note_off", "time": 2534, "note": 65, "velocity": 107, "channel": 0}, {"type": "note_on", "time": 543, "note": 61, "velocity": 96, "channel": 0}, {"type": "note_off", "time": 3439, "note": 61, "velocity": 96, "channel": 0}, {"type": "note_on", "time": 543, "note": 58, "velocity": 96, "channel": 0}, {"type": "note_off", "time": 2172, "note": 58, "velocity": 96, "channel": 0}, {"type": "note_on", "time": 724, "note": 63, "velocity": 108, "channel": 0}, {"type": "note_off", "time": 3439, "note": 63, "velocity": 108, "channel": 0}, {"type": "note_on", "time": 0, "note": 60, "velocity": 96, "channel": 0}, {"type": "note_off", "time": 3077, "note": 60, "velocity": 96, "channel": 0}, {"type": "note_on", "time": 0, "note": 56, "velocity": 92, "channel": 0}, {"type": "note_off", "time": 4163, "note": 56, "velocity": 92, "channel": 0}, {"type": "note_on", "time": 3258, "note": 58, "velocity": 101, "channel": 0}, {"type": "note_off", "time": 3439, "note": 58, "velocity": 101, "channel": 0}, {"type": "note_on", "time": 362, "note": 55, "velocity": 98, "channel": 0}, {"type": "note_on", "time": 1810, "note": 56, "velocity": 94, "channel": 0}, {"type": "note_off", "time": 0, "note": 55, "velocity": 98, "channel": 0}, {"type": "note_off", "time": 1810, "note": 56, "velocity": 94, "channel": 0}, {"type": "note_on", "time": 349, "note": 53, "velocity": 93, "channel": 0}, {"type": "note_off", "time": 2534, "note": 53, "velocity": 93, "channel": 0}, {"type": "note_on", "time": 193, "note": 48, "velocity": 87, "channel": 0}, {"type": "note_off", "time": 2715, "note": 48, "velocity": 87, "channel": 0}, {"type": "note_on", "time": 362, "note": 51, "velocity": 100, "channel": 0}, {"type": "note_off", "time": 4525, "note": 51, "velocity": 100, "channel": 0}, {"type": "note_on", "time": 321, "note": 53, "velocity": 92, "channel": 0}, {"type": "note_off", "time": 12128, "note": 53, "velocity": 92, "channel": 0}, {"type": "note_on", "time": 14884, "note": 61, "velocity": 107, "channel": 0}, {"type": "note_off", "time": 2715, "note": 61, "velocity": 107, "channel": 0}, {"type": "note_on", "time": 1448, "note": 58, "velocity": 104, "channel": 0}, {"type": "note_off", "time": 2896, "note": 58, "velocity": 104, "channel": 0}, {"type": "note_on", "time": 699, "note": 54, "velocity": 104, "channel": 0}, {"type": "note_off", "time": 3266, "note": 54, "velocity": 104, "channel": 0}, {"type": "note_on", "time": 2107, "note": 71, "velocity": 108, "channel": 0}, {"type": "note_off", "time": 1593, "note": 71, "velocity": 108, "channel": 0}, {"type": "note_on", "time": 193, "note": 73, "velocity": 110, "channel": 0}, {"type": "note_off", "time": 4344, "note": 73, "velocity": 110, "channel": 0}, {"type": "note_on", "time": 904, "note": 71, "velocity": 108, "channel": 0}, {"type": "note_off", "time": 1581, "note": 71, "velocity": 108, "channel": 0}, {"type": "note_on", "time": 152, "note": 73, "velocity": 107, "channel": 0}, {"type": "note_off", "time": 7422, "note": 73, "velocity": 107, "channel": 0}, {"type": "note_on", "time": 279, "note": 70, "velocity": 99, "channel": 0}, {"type": "note_off", "time": 1629, "note": 70, "velocity": 99, "channel": 0}, {"type": "note_on", "time": 82, "note": 66, "velocity": 91, "channel": 0}, {"type": "note_off", "time": 4525, "note": 66, "velocity": 91, "channel": 0}, {"type": "note_on", "time": 333, "note": 75, "velocity": 100, "channel": 0}, {"type": "note_off", "time": 3314, "note": 75, "velocity": 100, "channel": 0}, {"type": "note_on", "time": 152, "note": 77, "velocity": 103, "channel": 0}, {"type": "note_off", "time": 7422, "note": 77, "velocity": 103, "channel": 0}, {"type": "note_on", "time": 181, "note": 73, "velocity": 105, "channel": 0}, {"type": "note_off", "time": 3801, "note": 73, "velocity": 105, "channel": 0}, {"type": "note_on", "time": 1991, "note": 61, "velocity": 101, "channel": 0}, {"type": "note_off", "time": 3077, "note": 61, "velocity": 101, "channel": 0}, {"type": "note_on", "time": 2738, "note": 65, "velocity": 102, "channel": 0}, {"type": "note_off", "time": 3801, "note": 65, "velocity": 102, "channel": 0}, {"type": "note_on", "time": 339, "note": 63, "velocity": 102, "channel": 0}, {"type": "note_off", "time": 3439, "note": 63, "velocity": 102, "channel": 0}, {"type": "note_on", "time": 1267, "note": 56, "velocity": 90, "channel": 0}, {"type": "note_off", "time": 3439, "note": 56, "velocity": 90, "channel": 0}, {"type": "note_on", "time": 2851, "note": 60, "velocity": 98, "channel": 0}, {"type": "note_off", "time": 3801, "note": 60, "velocity": 98, "channel": 0}, {"type": "note_on", "time": 2036, "note": 53, "velocity": 88, "channel": 0}, {"type": "note_off", "time": 3801, "note": 53, "velocity": 88, "channel": 0}, {"type": "note_on", "time": 3258, "note": 56, "velocity": 97, "channel": 0}, {"type": "note_off", "time": 5068, "note": 56, "velocity": 97, "channel": 0}, {"type": "note_on", "time": 1267, "note": 58, "velocity": 90, "channel": 0}, {"type": "note_off", "time": 4073, "note": 58, "velocity": 90, "channel": 0}, {"type": "note_on", "time": 1765, "note": 53, "velocity": 97, "channel": 0}, {"type": "note_off", "time": 3597, "note": 53, "velocity": 97, "channel": 0}, {"type": "note_on", "time": 520, "note": 46, "velocity": 91, "channel": 0}, {"type": "note_off", "time": 5249, "note": 46, "velocity": 91, "channel": 0}, {"type": "note_on", "time": 520, "note": 51, "velocity": 92, "channel": 0}, {"type": "note_off", "time": 3620, "note": 51, "velocity": 92, "channel": 0}, {"type": "note_on", "time": 2013, "note": 58, "velocity": 94, "channel": 0}, {"type": "note_off", "time": 3982, "note": 58, "velocity": 94, "channel": 0}, {"type": "note_on", "time": 362, "note": 56, "velocity": 99, "channel": 0}, {"type": "note_off", "time": 3801, "note": 56, "velocity": 99, "channel": 0}, {"type": "note_on", "time": 271, "note": 63, "velocity": 105, "channel": 0}, {"type": "note_off", "time": 3258, "note": 63, "velocity": 105, "channel": 0}, {"type": "note_on", "time": 271, "note": 61, "velocity": 95, "channel": 0}, {"type": "note_off", "time": 3439, "note": 61, "velocity": 95, "channel": 0}, {"type": "note_on", "time": 181, "note": 66, "velocity": 104, "channel": 0}, {"type": "note_off", "time": 2896, "note": 66, "velocity": 104, "channel": 0}, {"type": "note_on", "time": 1176, "note": 63, "velocity": 100, "channel": 0}, {"type": "note_off", "time": 2715, "note": 63, "velocity": 100, "channel": 0}, {"type": "note_on", "time": 950, "note": 68, "velocity": 99, "channel": 0}, {"type": "note_off", "time": 3258, "note": 68, "velocity": 99, "channel": 0}, {"type": "note_on", "time": 1380, "note": 66, "velocity": 91, "channel": 0}, {"type": "note_off", "time": 2896, "note": 66, "velocity": 91, "channel": 0}, {"type": "note_on", "time": 656, "note": 70, "velocity": 98, "channel": 0}, {"type": "note_off", "time": 3077, "note": 70, "velocity": 98, "channel": 0}, {"type": "note_on", "time": 701, "note": 67, "velocity": 95, "channel": 0}, {"type": "note_off", "time": 2692, "note": 67, "velocity": 95, "channel": 0}, {"type": "note_on", "time": 182, "note": 65, "velocity": 95, "channel": 0}, {"type": "note_off", "time": 1673, "note": 65, "velocity": 95, "channel": 0}, {"type": "note_on", "time": 0, "note": 66, "velocity": 96, "channel": 0}, {"type": "note_off", "time": 2188, "note": 66, "velocity": 96, "channel": 0}, {"type": "note_on", "time": 257, "note": 65, "velocity": 103, "channel": 0}, {"type": "note_off", "time": 1673, "note": 65, "velocity": 103, "channel": 0}, {"type": "note_on", "time": 514, "note": 63, "velocity": 95, "channel": 0}, {"type": "note_off", "time": 2188, "note": 63, "velocity": 95, "channel": 0}, {"type": "note_on", "time": 2703, "note": 65, "velocity": 98, "channel": 0}, {"type": "note_off", "time": 3347, "note": 65, "velocity": 98, "channel": 0}, {"type": "note_on", "time": 514, "note": 61, "velocity": 89, "channel": 0}, {"type": "note_off", "time": 3089, "note": 61, "velocity": 89, "channel": 0}, {"type": "note_on", "time": 708, "note": 58, "velocity": 94, "channel": 0}, {"type": "note_off", "time": 1544, "note": 58, "velocity": 94, "channel": 0}, {"type": "note_on", "time": 370, "note": 63, "velocity": 100, "channel": 0}, {"type": "note_off", "time": 3170, "note": 63, "velocity": 100, "channel": 0}, {"type": "note_on", "time": 128, "note": 60, "velocity": 92, "channel": 0}, {"type": "note_off", "time": 3218, "note": 60, "velocity": 92, "channel": 0}, {"type": "note_on", "time": 128, "note": 56, "velocity": 91, "channel": 0}, {"type": "note_off", "time": 3604, "note": 56, "velocity": 91, "channel": 0}, {"type": "note_on", "time": 2381, "note": 51, "velocity": 88, "channel": 0}, {"type": "note_off", "time": 2043, "note": 51, "velocity": 88, "channel": 0}, {"type": "note_on", "time": 917, "note": 58, "velocity": 87, "channel": 0}, {"type": "note_off", "time": 3668, "note": 58, "velocity": 87, "channel": 0}, {"type": "note_on", "time": 514, "note": 55, "velocity": 87, "channel": 0}, {"type": "note_off", "time": 2574, "note": 55, "velocity": 87, "channel": 0}, {"type": "note_on", "time": 386, "note": 48, "velocity": 95, "channel": 0}, {"type": "note_off", "time": 7691, "note": 48, "velocity": 95, "channel": 0}, {"type": "note_on", "time": 12834, "note": 52, "velocity": 104, "channel": 0}, {"type": "note_off", "time": 1267, "note": 52, "velocity": 104, "channel": 0}, {"type": "note_on", "time": 90, "note": 51, "velocity": 100, "channel": 0}, {"type": "note_off", "time": 1448, "note": 51, "velocity": 100, "channel": 0}, {"type": "note_on", "time": 90, "note": 50, "velocity": 101, "channel": 0}, {"type": "note_off", "time": 1810, "note": 50, "velocity": 101, "channel": 0}, {"type": "note_on", "time": 4018, "note": 59, "velocity": 100, "channel": 0}, {"type": "note_off", "time": 5210, "note": 59, "velocity": 100, "channel": 0}, {"type": "note_on", "time": 232, "note": 57, "velocity": 96, "channel": 0}, {"type": "note_off", "time": 1980, "note": 57, "velocity": 96, "channel": 0}, {"type": "note_on", "time": 576, "note": 56, "velocity": 92, "channel": 0}, {"type": "note_off", "time": 1786, "note": 56, "velocity": 92, "channel": 0}, {"type": "note_on", "time": 315, "note": 54, "velocity": 87, "channel": 0}, {"type": "note_off", "time": 1357, "note": 54, "velocity": 87, "channel": 0}, {"type": "note_on", "time": 90, "note": 53, "velocity": 92, "channel": 0}, {"type": "note_off", "time": 2443, "note": 53, "velocity": 92, "channel": 0}, {"type": "note_on", "time": 1787, "note": 60, "velocity": 88, "channel": 0}, {"type": "note_off", "time": 8666, "note": 60, "velocity": 88, "channel": 0}, {"type": "note_on", "time": 678, "note": 58, "velocity": 94, "channel": 0}, {"type": "note_off", "time": 2624, "note": 58, "velocity": 94, "channel": 0}, {"type": "note_on", "time": 497, "note": 56, "velocity": 89, "channel": 0}, {"type": "note_off", "time": 1878, "note": 56, "velocity": 89, "channel": 0}, {"type": "note_on", "time": 29, "note": 63, "velocity": 98, "channel": 0}, {"type": "note_off", "time": 8206, "note": 63, "velocity": 98, "channel": 0}, {"type": "note_on", "time": 386, "note": 62, "velocity": 93, "channel": 0}, {"type": "note_off", "time": 1416, "note": 62, "velocity": 93, "channel": 0}, {"type": "note_on", "time": 354, "note": 61, "velocity": 90, "channel": 0}, {"type": "note_off", "time": 2156, "note": 61, "velocity": 90, "channel": 0}, {"type": "note_on", "time": 281, "note": 59, "velocity": 84, "channel": 0}, {"type": "note_off", "time": 3530, "note": 59, "velocity": 84, "channel": 0}, {"type": "note_on", "time": 2447, "note": 65, "velocity": 102, "channel": 0}, {"type": "note_off", "time": 2075, "note": 65, "velocity": 102, "channel": 0}, {"type": "note_on", "time": 1088, "note": 70, "velocity": 103, "channel": 0}, {"type": "note_off", "time": 3982, "note": 70, "velocity": 103, "channel": 0}, {"type": "note_on", "time": 362, "note": 68, "velocity": 100, "channel": 0}, {"type": "note_off", "time": 2986, "note": 68, "velocity": 100, "channel": 0}, {"type": "note_on", "time": 271, "note": 66, "velocity": 98, "channel": 0}, {"type": "note_off", "time": 3077, "note": 66, "velocity": 98, "channel": 0}, {"type": "note_on", "time": 362, "note": 65, "velocity": 97, "channel": 0}, {"type": "note_off", "time": 3168, "note": 65, "velocity": 97, "channel": 0}, {"type": "note_on", "time": 271, "note": 60, "velocity": 91, "channel": 0}, {"type": "note_off", "time": 2534, "note": 60, "velocity": 91, "channel": 0}, {"type": "note_on", "time": 181, "note": 58, "velocity": 85, "channel": 0}, {"type": "note_off", "time": 2443, "note": 58, "velocity": 85, "channel": 0}, {"type": "note_on", "time": 2805, "note": 51, "velocity": 97, "channel": 0}, {"type": "note_off", "time": 2986, "note": 51, "velocity": 97, "channel": 0}, {"type": "note_on", "time": 1086, "note": 48, "velocity": 89, "channel": 0}, {"type": "note_off", "time": 7784, "note": 48, "velocity": 89, "channel": 0}, {"type": "note_on", "time": 19370, "note": 73, "velocity": 116, "channel": 0}, {"type": "note_off", "time": 2964, "note": 73, "velocity": 116, "channel": 0}, {"type": "note_on", "time": 314, "note": 75, "velocity": 114, "channel": 0}, {"type": "note_off", "time": 2590, "note": 75, "velocity": 114, "channel": 0}, {"type": "note_on", "time": 305, "note": 73, "velocity": 107, "channel": 0}, {"type": "note_off", "time": 933, "note": 73, "velocity": 107, "channel": 0}, {"type": "note_on", "time": 337, "note": 75, "velocity": 113, "channel": 0}, {"type": "note_off", "time": 3186, "note": 75, "velocity": 113, "channel": 0}, {"type": "note_on", "time": 611, "note": 73, "velocity": 108, "channel": 0}, {"type": "note_off", "time": 1142, "note": 73, "velocity": 108, "channel": 0}, {"type": "note_on", "time": 257, "note": 75, "velocity": 116, "channel": 0}, {"type": "note_off", "time": 2912, "note": 75, "velocity": 116, "channel": 0}, {"type": "note_on", "time": 1415, "note": 73, "velocity": 111, "channel": 0}, {"type": "note_off", "time": 3349, "note": 73, "velocity": 111, "channel": 0}, {"type": "note_on", "time": 1719, "note": 73, "velocity": 108, "channel": 0}, {"type": "note_off", "time": 3122, "note": 73, "velocity": 108, "channel": 0}, {"type": "note_on", "time": 1448, "note": 70, "velocity": 103, "channel": 0}, {"type": "note_off", "time": 2624, "note": 70, "velocity": 103, "channel": 0}, {"type": "note_on", "time": 1335, "note": 61, "velocity": 107, "channel": 0}, {"type": "note_off", "time": 3122, "note": 61, "velocity": 107, "channel": 0}, {"type": "note_on", "time": 2105, "note": 65, "velocity": 109, "channel": 0}, {"type": "note_off", "time": 4248, "note": 65, "velocity": 109, "channel": 0}, {"type": "note_on", "time": 1094, "note": 70, "velocity": 112, "channel": 0}, {"type": "note_off", "time": 1657, "note": 70, "velocity": 112, "channel": 0}, {"type": "note_on", "time": 144, "note": 72, "velocity": 108, "channel": 0}, {"type": "note_off", "time": 1963, "note": 72, "velocity": 108, "channel": 0}, {"type": "note_on", "time": 2204, "note": 70, "velocity": 110, "channel": 0}, {"type": "note_off", "time": 1222, "note": 70, "velocity": 110, "channel": 0}, {"type": "note_on", "time": 241, "note": 72, "velocity": 108, "channel": 0}, {"type": "note_off", "time": 3057, "note": 72, "velocity": 108, "channel": 0}, {"type": "note_on", "time": 1287, "note": 68, "velocity": 106, "channel": 0}, {"type": "note_off", "time": 3604, "note": 68, "velocity": 106, "channel": 0}, {"type": "note_on", "time": 708, "note": 68, "velocity": 106, "channel": 0}, {"type": "note_off", "time": 3025, "note": 68, "velocity": 106, "channel": 0}, {"type": "note_on", "time": 547, "note": 58, "velocity": 99, "channel": 0}, {"type": "note_off", "time": 1576, "note": 58, "velocity": 99, "channel": 0}, {"type": "note_on", "time": 64, "note": 59, "velocity": 101, "channel": 0}, {"type": "note_off", "time": 2494, "note": 59, "velocity": 101, "channel": 0}, {"type": "note_on", "time": 953, "note": 59, "velocity": 102, "channel": 0}, {"type": "note_off", "time": 4231, "note": 59, "velocity": 102, "channel": 0}, {"type": "note_on", "time": 339, "note": 69, "velocity": 109, "channel": 0}, {"type": "note_off", "time": 1538, "note": 69, "velocity": 109, "channel": 0}, {"type": "note_on", "time": 362, "note": 70, "velocity": 106, "channel": 0}, {"type": "note_off", "time": 3168, "note": 70, "velocity": 106, "channel": 0}, {"type": "note_on", "time": 638, "note": 69, "velocity": 110, "channel": 0}, {"type": "note_off", "time": 1705, "note": 69, "velocity": 110, "channel": 0}, {"type": "note_on", "time": 144, "note": 70, "velocity": 107, "channel": 0}, {"type": "note_off", "time": 3347, "note": 70, "velocity": 107, "channel": 0}, {"type": "note_on", "time": 257, "note": 61, "velocity": 100, "channel": 0}, {"type": "note_off", "time": 3604, "note": 61, "velocity": 100, "channel": 0}, {"type": "note_on", "time": 901, "note": 61, "velocity": 103, "channel": 0}, {"type": "note_off", "time": 3733, "note": 61, "velocity": 103, "channel": 0}, {"type": "note_on", "time": 0, "note": 56, "velocity": 93, "channel": 0}, {"type": "note_off", "time": 4376, "note": 56, "velocity": 93, "channel": 0}, {"type": "note_on", "time": 514, "note": 56, "velocity": 102, "channel": 0}, {"type": "note_off", "time": 3990, "note": 56, "velocity": 102, "channel": 0}, {"type": "note_on", "time": 531, "note": 61, "velocity": 97, "channel": 0}, {"type": "note_off", "time": 949, "note": 61, "velocity": 97, "channel": 0}, {"type": "note_on", "time": 150, "note": 62, "velocity": 101, "channel": 0}, {"type": "note_off", "time": 4151, "note": 62, "velocity": 101, "channel": 0}, {"type": "note_on", "time": 315, "note": 61, "velocity": 101, "channel": 0}, {"type": "note_off", "time": 788, "note": 61, "velocity": 101, "channel": 0}, {"type": "note_on", "time": 257, "note": 62, "velocity": 100, "channel": 0}, {"type": "note_off", "time": 4586, "note": 62, "velocity": 100, "channel": 0}, {"type": "note_on", "time": 498, "note": 56, "velocity": 98, "channel": 0}, {"type": "note_off", "time": 3861, "note": 56, "velocity": 98, "channel": 0}, {"type": "note_on", "time": 772, "note": 56, "velocity": 98, "channel": 0}, {"type": "note_off", "time": 4119, "note": 56, "velocity": 98, "channel": 0}, {"type": "note_on", "time": 64, "note": 59, "velocity": 98, "channel": 0}, {"type": "note_off", "time": 1737, "note": 59, "velocity": 98, "channel": 0}, {"type": "note_on", "time": 64, "note": 60, "velocity": 98, "channel": 0}, {"type": "note_off", "time": 7723, "note": 60, "velocity": 98, "channel": 0}, {"type": "note_on", "time": 1480, "note": 51, "velocity": 92, "channel": 0}, {"type": "note_off", "time": 2703, "note": 51, "velocity": 92, "channel": 0}, {"type": "note_on", "time": 2717, "note": 58, "velocity": 85, "channel": 0}, {"type": "note_off", "time": 14120, "note": 58, "velocity": 85, "channel": 0}, {"type": "note_on", "time": 21266, "note": 56, "velocity": 121, "channel": 0}, {"type": "note_off", "time": 5277, "note": 56, "velocity": 121, "channel": 0}, {"type": "note_on", "time": 64, "note": 61, "velocity": 102, "channel": 0}, {"type": "note_off", "time": 1174, "note": 61, "velocity": 102, "channel": 0}, {"type": "note_on", "time": 112, "note": 62, "velocity": 110, "channel": 0}, {"type": "note_off", "time": 5310, "note": 62, "velocity": 110, "channel": 0}, {"type": "note_on", "time": 289, "note": 61, "velocity": 99, "channel": 0}, {"type": "note_off", "time": 4376, "note": 61, "velocity": 99, "channel": 0}, {"type": "note_on", "time": 257, "note": 60, "velocity": 105, "channel": 0}, {"type": "note_off", "time": 5664, "note": 60, "velocity": 105, "channel": 0}, {"type": "note_on", "time": 0, "note": 59, "velocity": 100, "channel": 0}, {"type": "note_off", "time": 3733, "note": 59, "velocity": 100, "channel": 0}, {"type": "note_on", "time": 466, "note": 58, "velocity": 102, "channel": 0}, {"type": "note_off", "time": 4119, "note": 58, "velocity": 102, "channel": 0}, {"type": "note_on", "time": 836, "note": 56, "velocity": 104, "channel": 0}, {"type": "note_off", "time": 3347, "note": 56, "velocity": 104, "channel": 0}, {"type": "note_on", "time": 547, "note": 58, "velocity": 103, "channel": 0}, {"type": "note_off", "time": 2011, "note": 58, "velocity": 103, "channel": 0}, {"type": "note_on", "time": 257, "note": 59, "velocity": 99, "channel": 0}, {"type": "note_off", "time": 4441, "note": 59, "velocity": 99, "channel": 0}, {"type": "note_on", "time": 321, "note": 63, "velocity": 116, "channel": 0}, {"type": "note_off", "time": 3733, "note": 63, "velocity": 116, "channel": 0}, {"type": "note_on", "time": 230, "note": 66, "velocity": 112, "channel": 0}, {"type": "note_off", "time": 2262, "note": 66, "velocity": 112, "channel": 0}, {"type": "note_on", "time": 113, "note": 67, "velocity": 107, "channel": 0}, {"type": "note_off", "time": 2330, "note": 67, "velocity": 107, "channel": 0}, {"type": "note_on", "time": 362, "note": 69, "velocity": 108, "channel": 0}, {"type": "note_off", "time": 2262, "note": 69, "velocity": 108, "channel": 0}, {"type": "note_on", "time": 294, "note": 70, "velocity": 106, "channel": 0}, {"type": "note_off", "time": 1855, "note": 70, "velocity": 106, "channel": 0}, {"type": "note_on", "time": 148, "note": 74, "velocity": 101, "channel": 0}, {"type": "note_off", "time": 2389, "note": 74, "velocity": 101, "channel": 0}, {"type": "note_on", "time": 471, "note": 76, "velocity": 113, "channel": 0}, {"type": "note_off", "time": 2832, "note": 76, "velocity": 113, "channel": 0}, {"type": "note_on", "time": 381, "note": 77, "velocity": 110, "channel": 0}, {"type": "note_off", "time": 11042, "note": 77, "velocity": 110, "channel": 0}, {"type": "note_on", "time": 181, "note": 76, "velocity": 116, "channel": 0}, {"type": "note_off", "time": 2059, "note": 76, "velocity": 116, "channel": 0}, {"type": "note_on", "time": 113, "note": 77, "velocity": 107, "channel": 0}, {"type": "note_off", "time": 1176, "note": 77, "velocity": 107, "channel": 0}, {"type": "note_on", "time": 158, "note": 76, "velocity": 114, "channel": 0}, {"type": "note_off", "time": 2013, "note": 76, "velocity": 114, "channel": 0}, {"type": "note_on", "time": 792, "note": 74, "velocity": 98, "channel": 0}, {"type": "note_off", "time": 2896, "note": 74, "velocity": 98, "channel": 0}, {"type": "note_on", "time": 963, "note": 76, "velocity": 109, "channel": 0}, {"type": "note_off", "time": 3218, "note": 76, "velocity": 109, "channel": 0}, {"type": "note_on", "time": 514, "note": 77, "velocity": 96, "channel": 0}, {"type": "note_off", "time": 17378, "note": 77, "velocity": 96, "channel": 0}, {"type": "note_on", "time": 193, "note": 75, "velocity": 103, "channel": 0}, {"type": "note_off", "time": 2381, "note": 75, "velocity": 103, "channel": 0}, {"type": "note_on", "time": 1416, "note": 78, "velocity": 101, "channel": 0}, {"type": "note_off", "time": 17250, "note": 78, "velocity": 101, "channel": 0}, {"type": "note_on", "time": 257, "note": 75, "velocity": 95, "channel": 0}, {"type": "note_off", "time": 6050, "note": 75, "velocity": 95, "channel": 0}, {"type": "note_on", "time": 643, "note": 76, "velocity": 108, "channel": 0}, {"type": "note_off", "time": 3475, "note": 76, "velocity": 108, "channel": 0}, {"type": "note_on", "time": 315, "note": 77, "velocity": 97, "channel": 0}, {"type": "note_off", "time": 13215, "note": 77, "velocity": 97, "channel": 0}, {"type": "note_on", "time": 588, "note": 76, "velocity": 87, "channel": 0}, {"type": "note_off", "time": 2317, "note": 76, "velocity": 87, "channel": 0}, {"type": "note_on", "time": 942, "note": 71, "velocity": 76, "channel": 0}, {"type": "note_off", "time": 2317, "note": 71, "velocity": 76, "channel": 0}, {"type": "note_on", "time": 2298, "note": 75, "velocity": 93, "channel": 0}, {"type": "note_off", "time": 14346, "note": 75, "velocity": 93, "channel": 0}, {"type": "note_on", "time": 90, "note": 73, "velocity": 78, "channel": 0}, {"type": "note_off", "time": 2188, "note": 73, "velocity": 78, "channel": 0}, {"type": "note_on", "time": 843, "note": 72, "velocity": 86, "channel": 0}, {"type": "note_off", "time": 1930, "note": 72, "velocity": 86, "channel": 0}, {"type": "note_on", "time": 512, "note": 71, "velocity": 74, "channel": 0}, {"type": "note_off", "time": 4570, "note": 71, "velocity": 74, "channel": 0}, {"type": "note_on", "time": 24452, "note": 72, "velocity": 111, "channel": 0}, {"type": "note_off", "time": 1802, "note": 72, "velocity": 111, "channel": 0}, {"type": "note_on", "time": 604, "note": 73, "velocity": 112, "channel": 0}, {"type": "note_off", "time": 3218, "note": 73, "velocity": 112, "channel": 0}, {"type": "note_on", "time": 427, "note": 71, "velocity": 101, "channel": 0}, {"type": "note_off", "time": 1504, "note": 71, "velocity": 101, "channel": 0}, {"type": "note_on", "time": 188, "note": 70, "velocity": 106, "channel": 0}, {"type": "note_off", "time": 1692, "note": 70, "velocity": 106, "channel": 0}, {"type": "note_on", "time": 221, "note": 68, "velocity": 108, "channel": 0}, {"type": "note_off", "time": 1792, "note": 68, "velocity": 108, "channel": 0}, {"type": "note_on", "time": 262, "note": 66, "velocity": 105, "channel": 0}, {"type": "note_off", "time": 3475, "note": 66, "velocity": 105, "channel": 0}, {"type": "note_on", "time": 69, "note": 68, "velocity": 107, "channel": 0}, {"type": "note_off", "time": 2986, "note": 68, "velocity": 107, "channel": 0}, {"type": "note_on", "time": 418, "note": 65, "velocity": 103, "channel": 0}, {"type": "note_off", "time": 2445, "note": 65, "velocity": 103, "channel": 0}, {"type": "note_on", "time": 128, "note": 61, "velocity": 102, "channel": 0}, {"type": "note_off", "time": 2832, "note": 61, "velocity": 102, "channel": 0}, {"type": "note_on", "time": 0, "note": 59, "velocity": 100, "channel": 0}, {"type": "note_off", "time": 2188, "note": 59, "velocity": 100, "channel": 0}, {"type": "note_on", "time": 0, "note": 65, "velocity": 101, "channel": 0}, {"type": "note_off", "time": 2317, "note": 65, "velocity": 101, "channel": 0}, {"type": "note_on", "time": 0, "note": 60, "velocity": 95, "channel": 0}, {"type": "note_off", "time": 2188, "note": 60, "velocity": 95, "channel": 0}, {"type": "note_on", "time": 514, "note": 56, "velocity": 94, "channel": 0}, {"type": "note_off", "time": 2832, "note": 56, "velocity": 94, "channel": 0}, {"type": "note_on", "time": 241, "note": 51, "velocity": 92, "channel": 0}, {"type": "note_off", "time": 1593, "note": 51, "velocity": 92, "channel": 0}, {"type": "note_on", "time": 482, "note": 58, "velocity": 98, "channel": 0}, {"type": "note_off", "time": 3089, "note": 58, "velocity": 98, "channel": 0}, {"type": "note_on", "time": 257, "note": 56, "velocity": 94, "channel": 0}, {"type": "note_off", "time": 4376, "note": 56, "velocity": 94, "channel": 0}, {"type": "note_on", "time": 128, "note": 54, "velocity": 93, "channel": 0}, {"type": "note_off", "time": 1930, "note": 54, "velocity": 93, "channel": 0}, {"type": "note_on", "time": 128, "note": 53, "velocity": 94, "channel": 0}, {"type": "note_off", "time": 2445, "note": 53, "velocity": 94, "channel": 0}, {"type": "note_on", "time": 128, "note": 49, "velocity": 86, "channel": 0}, {"type": "note_off", "time": 2832, "note": 49, "velocity": 86, "channel": 0}, {"type": "note_on", "time": 514, "note": 51, "velocity": 95, "channel": 0}, {"type": "note_off", "time": 3475, "note": 51, "velocity": 95, "channel": 0}, {"type": "note_on", "time": 0, "note": 46, "velocity": 98, "channel": 0}, {"type": "note_off", "time": 4505, "note": 46, "velocity": 98, "channel": 0}, {"type": "note_on", "time": 772, "note": 51, "velocity": 94, "channel": 0}, {"type": "note_off", "time": 3218, "note": 51, "velocity": 94, "channel": 0}, {"type": "note_on", "time": 901, "note": 58, "velocity": 95, "channel": 0}, {"type": "note_off", "time": 3475, "note": 58, "velocity": 95, "channel": 0}, {"type": "note_on", "time": 1721, "note": 56, "velocity": 92, "channel": 0}, {"type": "note_off", "time": 4087, "note": 56, "velocity": 92, "channel": 0}, {"type": "note_on", "time": 273, "note": 63, "velocity": 99, "channel": 0}, {"type": "note_off", "time": 3395, "note": 63, "velocity": 99, "channel": 0}, {"type": "note_on", "time": 563, "note": 61, "velocity": 97, "channel": 0}, {"type": "note_off", "time": 3733, "note": 61, "velocity": 97, "channel": 0}, {"type": "note_on", "time": 1957, "note": 68, "velocity": 104, "channel": 0}, {"type": "note_off", "time": 2602, "note": 68, "velocity": 104, "channel": 0}, {"type": "note_on", "time": 332, "note": 66, "velocity": 101, "channel": 0}, {"type": "note_off", "time": 2317, "note": 66, "velocity": 101, "channel": 0}, {"type": "note_on", "time": 386, "note": 65, "velocity": 99, "channel": 0}, {"type": "note_off", "time": 2445, "note": 65, "velocity": 99, "channel": 0}, {"type": "note_on", "time": 4795, "note": 63, "velocity": 107, "channel": 0}, {"type": "note_off", "time": 2960, "note": 63, "velocity": 107, "channel": 0}, {"type": "note_on", "time": 868, "note": 60, "velocity": 97, "channel": 0}, {"type": "note_off", "time": 2960, "note": 60, "velocity": 97, "channel": 0}, {"type": "note_on", "time": 965, "note": 56, "velocity": 95, "channel": 0}, {"type": "note_off", "time": 2880, "note": 56, "velocity": 95, "channel": 0}, {"type": "note_on", "time": 1239, "note": 51, "velocity": 93, "channel": 0}, {"type": "note_off", "time": 2832, "note": 51, "velocity": 93, "channel": 0}, {"type": "note_on", "time": 1351, "note": 57, "velocity": 101, "channel": 0}, {"type": "note_off", "time": 1416, "note": 57, "velocity": 101, "channel": 0}, {"type": "note_on", "time": 386, "note": 58, "velocity": 95, "channel": 0}, {"type": "note_off", "time": 15447, "note": 58, "velocity": 95, "channel": 0}, {"type": "note_on", "time": 675, "note": 60, "velocity": 100, "channel": 0}, {"type": "note_off", "time": 3604, "note": 60, "velocity": 100, "channel": 0}, {"type": "note_on", "time": 97, "note": 56, "velocity": 9, "channel": 0}, {"type": "note_off", "time": 4505, "note": 56, "velocity": 9, "channel": 0}, {"type": "note_on", "time": 459, "note": 58, "velocity": 100, "channel": 0}, {"type": "note_off", "time": 4763, "note": 58, "velocity": 100, "channel": 0}, {"type": "note_on", "time": 418, "note": 60, "velocity": 100, "channel": 0}, {"type": "note_off", "time": 3347, "note": 60, "velocity": 100, "channel": 0}, {"type": "note_on", "time": 431, "note": 63, "velocity": 111, "channel": 0}, {"type": "note_off", "time": 4027, "note": 63, "velocity": 111, "channel": 0}, {"type": "note_on", "time": 384, "note": 63, "velocity": 100, "channel": 0}, {"type": "note_off", "time": 1380, "note": 63, "velocity": 100, "channel": 0}, {"type": "note_on", "time": 497, "note": 61, "velocity": 102, "channel": 0}, {"type": "note_off", "time": 3462, "note": 61, "velocity": 102, "channel": 0}, {"type": "note_on", "time": 384, "note": 63, "velocity": 106, "channel": 0}, {"type": "note_off", "time": 4276, "note": 63, "velocity": 106, "channel": 0}, {"type": "note_on", "time": 237, "note": 66, "velocity": 106, "channel": 0}, {"type": "note_off", "time": 4763, "note": 66, "velocity": 106, "channel": 0}, {"type": "note_on", "time": 128, "note": 68, "velocity": 109, "channel": 0}, {"type": "note_off", "time": 4119, "note": 68, "velocity": 109, "channel": 0}, {"type": "note_on", "time": 128, "note": 65, "velocity": 105, "channel": 0}, {"type": "note_off", "time": 3475, "note": 65, "velocity": 105, "channel": 0}, {"type": "note_on", "time": 1544, "note": 68, "velocity": 100, "channel": 0}, {"type": "note_off", "time": 3990, "note": 68, "velocity": 100, "channel": 0}, {"type": "note_on", "time": 128, "note": 70, "velocity": 105, "channel": 0}, {"type": "note_off", "time": 3990, "note": 70, "velocity": 105, "channel": 0}, {"type": "note_on", "time": 663, "note": 71, "velocity": 89, "channel": 0}, {"type": "note_off", "time": 7738, "note": 71, "velocity": 89, "channel": 0}, {"type": "note_on", "time": 11679, "note": 62, "velocity": 112, "channel": 0}, {"type": "note_off", "time": 1158, "note": 62, "velocity": 112, "channel": 0}, {"type": "note_on", "time": 514, "note": 62, "velocity": 114, "channel": 0}, {"type": "note_off", "time": 1287, "note": 62, "velocity": 114, "channel": 0}, {"type": "note_on", "time": 257, "note": 61, "velocity": 109, "channel": 0}, {"type": "note_off", "time": 3861, "note": 61, "velocity": 109, "channel": 0}, {"type": "note_on", "time": 128, "note": 62, "velocity": 114, "channel": 0}, {"type": "note_off", "time": 3861, "note": 62, "velocity": 114, "channel": 0}, {"type": "note_on", "time": 873, "note": 64, "velocity": 113, "channel": 0}, {"type": "note_off", "time": 3846, "note": 64, "velocity": 113, "channel": 0}, {"type": "note_on", "time": 384, "note": 66, "velocity": 112, "channel": 0}, {"type": "note_off", "time": 3990, "note": 66, "velocity": 112, "channel": 0}, {"type": "note_on", "time": 1074, "note": 69, "velocity": 115, "channel": 0}, {"type": "note_off", "time": 3990, "note": 69, "velocity": 115, "channel": 0}, {"type": "note_on", "time": 257, "note": 66, "velocity": 111, "channel": 0}, {"type": "note_off", "time": 4248, "note": 66, "velocity": 111, "channel": 0}, {"type": "note_on", "time": 536, "note": 71, "velocity": 110, "channel": 0}, {"type": "note_off", "time": 4842, "note": 71, "velocity": 110, "channel": 0}, {"type": "note_on", "time": 285, "note": 73, "velocity": 107, "channel": 0}, {"type": "note_off", "time": 14031, "note": 73, "velocity": 107, "channel": 0}, {"type": "note_on", "time": 386, "note": 71, "velocity": 106, "channel": 0}, {"type": "note_off", "time": 2960, "note": 71, "velocity": 106, "channel": 0}, {"type": "note_on", "time": 257, "note": 69, "velocity": 107, "channel": 0}, {"type": "note_off", "time": 3347, "note": 69, "velocity": 107, "channel": 0}, {"type": "note_on", "time": 386, "note": 66, "velocity": 103, "channel": 0}, {"type": "note_off", "time": 2960, "note": 66, "velocity": 103, "channel": 0}, {"type": "note_on", "time": 2059, "note": 71, "velocity": 106, "channel": 0}, {"type": "note_off", "time": 2703, "note": 71, "velocity": 106, "channel": 0}, {"type": "note_on", "time": 0, "note": 69, "velocity": 108, "channel": 0}, {"type": "note_off", "time": 2317, "note": 69, "velocity": 108, "channel": 0}, {"type": "note_on", "time": 386, "note": 66, "velocity": 105, "channel": 0}, {"type": "note_off", "time": 2317, "note": 66, "velocity": 105, "channel": 0}, {"type": "note_on", "time": 128, "note": 64, "velocity": 105, "channel": 0}, {"type": "note_off", "time": 1287, "note": 64, "velocity": 105, "channel": 0}, {"type": "note_on", "time": 257, "note": 61, "velocity": 109, "channel": 0}, {"type": "note_off", "time": 1544, "note": 61, "velocity": 109, "channel": 0}, {"type": "note_on", "time": 772, "note": 59, "velocity": 104, "channel": 0}, {"type": "note_off", "time": 1544, "note": 59, "velocity": 104, "channel": 0}, {"type": "note_on", "time": 257, "note": 66, "velocity": 109, "channel": 0}, {"type": "note_off", "time": 2832, "note": 66, "velocity": 109, "channel": 0}, {"type": "note_on", "time": 0, "note": 64, "velocity": 107, "channel": 0}, {"type": "note_off", "time": 1673, "note": 64, "velocity": 107, "channel": 0}, {"type": "note_on", "time": 128, "note": 61, "velocity": 100, "channel": 0}, {"type": "note_off", "time": 1544, "note": 61, "velocity": 100, "channel": 0}, {"type": "note_on", "time": 772, "note": 59, "velocity": 100, "channel": 0}, {"type": "note_off", "time": 2574, "note": 59, "velocity": 100, "channel": 0}, {"type": "note_on", "time": 386, "note": 54, "velocity": 99, "channel": 0}, {"type": "note_off", "time": 2960, "note": 54, "velocity": 99, "channel": 0}, {"type": "note_on", "time": 675, "note": 57, "velocity": 98, "channel": 0}, {"type": "note_off", "time": 2204, "note": 57, "velocity": 98, "channel": 0}, {"type": "note_on", "time": 370, "note": 59, "velocity": 98, "channel": 0}, {"type": "note_off", "time": 3057, "note": 59, "velocity": 98, "channel": 0}, {"type": "note_on", "time": 0, "note": 54, "velocity": 97, "channel": 0}, {"type": "note_off", "time": 2059, "note": 54, "velocity": 97, "channel": 0}, {"type": "note_on", "time": 514, "note": 57, "velocity": 89, "channel": 0}, {"type": "note_off", "time": 8496, "note": 57, "velocity": 89, "channel": 0}, {"type": "note_on", "time": 1029, "note": 50, "velocity": 100, "channel": 0}, {"type": "note_off", "time": 2574, "note": 50, "velocity": 100, "channel": 0}, {"type": "note_on", "time": 13709, "note": 50, "velocity": 97, "channel": 0}, {"type": "note_off", "time": 2124, "note": 50, "velocity": 97, "channel": 0}, {"type": "note_on", "time": 563, "note": 49, "velocity": 97, "channel": 0}, {"type": "note_off", "time": 1930, "note": 49, "velocity": 97, "channel": 0}, {"type": "note_on", "time": 80, "note": 50, "velocity": 96, "channel": 0}, {"type": "note_off", "time": 1351, "note": 50, "velocity": 96, "channel": 0}, {"type": "note_on", "time": 241, "note": 52, "velocity": 94, "channel": 0}, {"type": "note_off", "time": 1866, "note": 52, "velocity": 94, "channel": 0}, {"type": "note_on", "time": 273, "note": 59, "velocity": 104, "channel": 0}, {"type": "note_off", "time": 4119, "note": 59, "velocity": 104, "channel": 0}, {"type": "note_on", "time": 514, "note": 57, "velocity": 94, "channel": 0}, {"type": "note_off", "time": 6500, "note": 57, "velocity": 94, "channel": 0}, {"type": "note_on", "time": 0, "note": 53, "velocity": 99, "channel": 0}, {"type": "note_on", "time": 1609, "note": 54, "velocity": 101, "channel": 0}, {"type": "note_off", "time": 0, "note": 53, "velocity": 99, "channel": 0}, {"type": "note_off", "time": 1737, "note": 54, "velocity": 101, "channel": 0}, {"type": "note_on", "time": 128, "note": 57, "velocity": 101, "channel": 0}, {"type": "note_off", "time": 2059, "note": 57, "velocity": 101, "channel": 0}, {"type": "note_on", "time": 2703, "note": 53, "velocity": 106, "channel": 0}, {"type": "note_off", "time": 1629, "note": 53, "velocity": 106, "channel": 0}, {"type": "note_on", "time": 172, "note": 54, "velocity": 102, "channel": 0}, {"type": "note_off", "time": 3347, "note": 54, "velocity": 102, "channel": 0}, {"type": "note_on", "time": 772, "note": 57, "velocity": 97, "channel": 0}, {"type": "note_off", "time": 3861, "note": 57, "velocity": 97, "channel": 0}, {"type": "note_on", "time": 450, "note": 62, "velocity": 107, "channel": 0}, {"type": "note_off", "time": 3089, "note": 62, "velocity": 107, "channel": 0}, {"type": "note_on", "time": 615, "note": 64, "velocity": 111, "channel": 0}, {"type": "note_off", "time": 3892, "note": 64, "velocity": 111, "channel": 0}, {"type": "note_on", "time": 384, "note": 61, "velocity": 98, "channel": 0}, {"type": "note_off", "time": 2832, "note": 61, "velocity": 98, "channel": 0}, {"type": "note_on", "time": 856, "note": 56, "velocity": 93, "channel": 0}, {"type": "note_off", "time": 6698, "note": 56, "velocity": 93, "channel": 0}, {"type": "note_on", "time": 13814, "note": 73, "velocity": 111, "channel": 0}, {"type": "note_off", "time": 2188, "note": 73, "velocity": 111, "channel": 0}, {"type": "note_on", "time": 177, "note": 71, "velocity": 109, "channel": 0}, {"type": "note_off", "time": 2276, "note": 71, "velocity": 109, "channel": 0}, {"type": "note_on", "time": 1022, "note": 66, "velocity": 100, "channel": 0}, {"type": "note_off", "time": 1869, "note": 66, "velocity": 100, "channel": 0}, {"type": "note_on", "time": 102, "note": 64, "velocity": 102, "channel": 0}, {"type": "note_off", "time": 1039, "note": 64, "velocity": 102, "channel": 0}, {"type": "note_on", "time": 136, "note": 68, "velocity": 105, "channel": 0}, {"type": "note_off", "time": 2081, "note": 68, "velocity": 105, "channel": 0}, {"type": "note_on", "time": 181, "note": 69, "velocity": 102, "channel": 0}, {"type": "note_off", "time": 1629, "note": 69, "velocity": 102, "channel": 0}, {"type": "note_on", "time": 271, "note": 66, "velocity": 101, "channel": 0}, {"type": "note_off", "time": 1629, "note": 66, "velocity": 101, "channel": 0}, {"type": "note_on", "time": 90, "note": 67, "velocity": 109, "channel": 0}, {"type": "note_off", "time": 1086, "note": 67, "velocity": 109, "channel": 0}, {"type": "note_on", "time": 362, "note": 66, "velocity": 104, "channel": 0}, {"type": "note_off", "time": 2081, "note": 66, "velocity": 104, "channel": 0}, {"type": "note_on", "time": 392, "note": 64, "velocity": 110, "channel": 0}, {"type": "note_off", "time": 2323, "note": 64, "velocity": 110, "channel": 0}, {"type": "note_on", "time": 90, "note": 66, "velocity": 107, "channel": 0}, {"type": "note_off", "time": 1810, "note": 66, "velocity": 107, "channel": 0}, {"type": "note_on", "time": 520, "note": 65, "velocity": 104, "channel": 0}, {"type": "note_off", "time": 9622, "note": 65, "velocity": 104, "channel": 0}, {"type": "note_on", "time": 604, "note": 66, "velocity": 102, "channel": 0}, {"type": "note_off", "time": 1606, "note": 66, "velocity": 102, "channel": 0}, {"type": "note_on", "time": 153, "note": 67, "velocity": 110, "channel": 0}, {"type": "note_off", "time": 1834, "note": 67, "velocity": 110, "channel": 0}, {"type": "note_on", "time": 225, "note": 68, "velocity": 109, "channel": 0}, {"type": "note_off", "time": 3701, "note": 68, "velocity": 109, "channel": 0}, {"type": "note_on", "time": 305, "note": 71, "velocity": 107, "channel": 0}, {"type": "note_off", "time": 1576, "note": 71, "velocity": 107, "channel": 0}, {"type": "note_on", "time": 394, "note": 72, "velocity": 107, "channel": 0}, {"type": "note_off", "time": 2805, "note": 72, "velocity": 107, "channel": 0}, {"type": "note_on", "time": 181, "note": 74, "velocity": 110, "channel": 0}, {"type": "note_off", "time": 3349, "note": 74, "velocity": 110, "channel": 0}, {"type": "note_on", "time": 226, "note": 71, "velocity": 109, "channel": 0}, {"type": "note_off", "time": 1629, "note": 71, "velocity": 109, "channel": 0}, {"type": "note_on", "time": 344, "note": 70, "velocity": 109, "channel": 0}, {"type": "note_off", "time": 1045, "note": 70, "velocity": 109, "channel": 0}, {"type": "note_on", "time": 32, "note": 69, "velocity": 106, "channel": 0}, {"type": "note_off", "time": 2445, "note": 69, "velocity": 106, "channel": 0}, {"type": "note_on", "time": 158, "note": 68, "velocity": 98, "channel": 0}, {"type": "note_off", "time": 3077, "note": 68, "velocity": 98, "channel": 0}, {"type": "note_on", "time": 271, "note": 68, "velocity": 100, "channel": 0}, {"type": "note_off", "time": 2081, "note": 68, "velocity": 100, "channel": 0}, {"type": "note_on", "time": 0, "note": 65, "velocity": 110, "channel": 0}, {"type": "note_off", "time": 1900, "note": 65, "velocity": 110, "channel": 0}, {"type": "note_on", "time": 384, "note": 61, "velocity": 110, "channel": 0}, {"type": "note_off", "time": 2534, "note": 61, "velocity": 110, "channel": 0}, {"type": "note_on", "time": 174, "note": 59, "velocity": 99, "channel": 0}, {"type": "note_off", "time": 1438, "note": 59, "velocity": 99, "channel": 0}, {"type": "note_on", "time": 265, "note": 63, "velocity": 114, "channel": 0}, {"type": "note_off", "time": 2534, "note": 63, "velocity": 114, "channel": 0}, {"type": "note_on", "time": 181, "note": 60, "velocity": 102, "channel": 0}, {"type": "note_off", "time": 2081, "note": 60, "velocity": 102, "channel": 0}, {"type": "note_on", "time": 0, "note": 56, "velocity": 97, "channel": 0}, {"type": "note_off", "time": 2353, "note": 56, "velocity": 97, "channel": 0}, {"type": "note_on", "time": 1538, "note": 58, "velocity": 105, "channel": 0}, {"type": "note_off", "time": 1991, "note": 58, "velocity": 105, "channel": 0}, {"type": "note_on", "time": 2715, "note": 53, "velocity": 94, "channel": 0}, {"type": "note_off", "time": 2262, "note": 53, "velocity": 94, "channel": 0}, {"type": "note_on", "time": 1448, "note": 56, "velocity": 91, "channel": 0}, {"type": "note_off", "time": 9594, "note": 56, "velocity": 91, "channel": 0}, {"type": "note_on", "time": 8779, "note": 53, "velocity": 110, "channel": 0}, {"type": "note_off", "time": 2443, "note": 53, "velocity": 110, "channel": 0}, {"type": "note_on", "time": 5159, "note": 50, "velocity": 104, "channel": 0}, {"type": "note_off", "time": 2896, "note": 50, "velocity": 104, "channel": 0}, {"type": "note_on", "time": 543, "note": 50, "velocity": 101, "channel": 0}, {"type": "note_off", "time": 2715, "note": 50, "velocity": 101, "channel": 0}, {"type": "note_on", "time": 724, "note": 53, "velocity": 101, "channel": 0}, {"type": "note_off", "time": 3982, "note": 53, "velocity": 101, "channel": 0}, {"type": "note_on", "time": 814, "note": 57, "velocity": 100, "channel": 0}, {"type": "note_off", "time": 3439, "note": 57, "velocity": 100, "channel": 0}, {"type": "note_on", "time": 995, "note": 62, "velocity": 97, "channel": 0}, {"type": "note_off", "time": 2805, "note": 62, "velocity": 97, "channel": 0}, {"type": "note_on", "time": 1991, "note": 69, "velocity": 104, "channel": 0}, {"type": "note_off", "time": 8055, "note": 69, "velocity": 104, "channel": 0}, {"type": "note_on", "time": 452, "note": 65, "velocity": 97, "channel": 0}, {"type": "note_off", "time": 1810, "note": 65, "velocity": 97, "channel": 0}, {"type": "note_on", "time": 543, "note": 62, "velocity": 101, "channel": 0}, {"type": "note_off", "time": 1719, "note": 62, "velocity": 101, "channel": 0}, {"type": "note_on", "time": 4254, "note": 73, "velocity": 99, "channel": 0}, {"type": "note_off", "time": 1538, "note": 73, "velocity": 99, "channel": 0}, {"type": "note_on", "time": 452, "note": 74, "velocity": 105, "channel": 0}, {"type": "note_off", "time": 3711, "note": 74, "velocity": 105, "channel": 0}, {"type": "note_on", "time": 2805, "note": 72, "velocity": 92, "channel": 0}, {"type": "note_off", "time": 3982, "note": 72, "velocity": 92, "channel": 0}, {"type": "note_on", "time": 633, "note": 71, "velocity": 93, "channel": 0}, {"type": "note_off", "time": 2896, "note": 71, "velocity": 93, "channel": 0}, {"type": "note_on", "time": 32788, "note": 74, "velocity": 100, "channel": 0}, {"type": "note_off", "time": 2317, "note": 74, "velocity": 100, "channel": 0}, {"type": "note_on", "time": 1705, "note": 77, "velocity": 107, "channel": 0}, {"type": "note_off", "time": 3894, "note": 77, "velocity": 107, "channel": 0}, {"type": "note_on", "time": 207, "note": 76, "velocity": 118, "channel": 0}, {"type": "note_off", "time": 4525, "note": 76, "velocity": 118, "channel": 0}, {"type": "note_on", "time": 633, "note": 74, "velocity": 107, "channel": 0}, {"type": "note_off", "time": 4706, "note": 74, "velocity": 107, "channel": 0}, {"type": "note_on", "time": 452, "note": 72, "velocity": 107, "channel": 0}, {"type": "note_off", "time": 2715, "note": 72, "velocity": 107, "channel": 0}, {"type": "note_on", "time": 2353, "note": 71, "velocity": 110, "channel": 0}, {"type": "note_off", "time": 3620, "note": 71, "velocity": 110, "channel": 0}, {"type": "note_on", "time": 1357, "note": 62, "velocity": 112, "channel": 0}, {"type": "note_off", "time": 3982, "note": 62, "velocity": 112, "channel": 0}, {"type": "note_on", "time": 814, "note": 74, "velocity": 108, "channel": 0}, {"type": "note_off", "time": 4706, "note": 74, "velocity": 108, "channel": 0}, {"type": "note_on", "time": 814, "note": 72, "velocity": 111, "channel": 0}, {"type": "note_off", "time": 3982, "note": 72, "velocity": 111, "channel": 0}, {"type": "note_on", "time": 181, "note": 60, "velocity": 106, "channel": 0}, {"type": "note_off", "time": 4797, "note": 60, "velocity": 106, "channel": 0}, {"type": "note_on", "time": 814, "note": 70, "velocity": 108, "channel": 0}, {"type": "note_off", "time": 3620, "note": 70, "velocity": 108, "channel": 0}, {"type": "note_on", "time": 1900, "note": 69, "velocity": 113, "channel": 0}, {"type": "note_off", "time": 3982, "note": 69, "velocity": 113, "channel": 0}, {"type": "note_on", "time": 362, "note": 68, "velocity": 96, "channel": 0}, {"type": "note_off", "time": 3258, "note": 68, "velocity": 96, "channel": 0}, {"type": "note_on", "time": 1176, "note": 68, "velocity": 116, "channel": 0}, {"type": "note_off", "time": 4435, "note": 68, "velocity": 116, "channel": 0}, {"type": "note_on", "time": 452, "note": 70, "velocity": 111, "channel": 0}, {"type": "note_off", "time": 3711, "note": 70, "velocity": 111, "channel": 0}, {"type": "note_on", "time": 362, "note": 71, "velocity": 109, "channel": 0}, {"type": "note_off", "time": 3801, "note": 71, "velocity": 109, "channel": 0}, {"type": "note_on", "time": 1176, "note": 67, "velocity": 103, "channel": 0}, {"type": "note_off", "time": 3439, "note": 67, "velocity": 103, "channel": 0}, {"type": "note_on", "time": 2188, "note": 68, "velocity": 112, "channel": 0}, {"type": "note_off", "time": 4730, "note": 68, "velocity": 112, "channel": 0}, {"type": "note_on", "time": 412, "note": 69, "velocity": 107, "channel": 0}, {"type": "note_off", "time": 4706, "note": 69, "velocity": 107, "channel": 0}, {"type": "note_on", "time": 0, "note": 66, "velocity": 105, "channel": 0}, {"type": "note_off", "time": 3620, "note": 66, "velocity": 105, "channel": 0}, {"type": "note_on", "time": 1816, "note": 67, "velocity": 107, "channel": 0}, {"type": "note_off", "time": 3218, "note": 67, "velocity": 107, "channel": 0}, {"type": "note_on", "time": 486, "note": 62, "velocity": 106, "channel": 0}, {"type": "note_off", "time": 4616, "note": 62, "velocity": 106, "channel": 0}, {"type": "note_on", "time": 271, "note": 65, "velocity": 111, "channel": 0}, {"type": "note_off", "time": 5792, "note": 65, "velocity": 111, "channel": 0}, {"type": "note_on", "time": 271, "note": 63, "velocity": 115, "channel": 0}, {"type": "note_off", "time": 5430, "note": 63, "velocity": 115, "channel": 0}, {"type": "note_on", "time": 1506, "note": 64, "velocity": 110, "channel": 0}, {"type": "note_off", "time": 2928, "note": 64, "velocity": 110, "channel": 0}, {"type": "note_on", "time": 708, "note": 64, "velocity": 116, "channel": 0}, {"type": "note_off", "time": 2799, "note": 64, "velocity": 116, "channel": 0}, {"type": "note_on", "time": 2317, "note": 65, "velocity": 113, "channel": 0}, {"type": "note_off", "time": 3186, "note": 65, "velocity": 113, "channel": 0}, {"type": "note_on", "time": 1035, "note": 61, "velocity": 103, "channel": 0}, {"type": "note_off", "time": 4887, "note": 61, "velocity": 103, "channel": 0}, {"type": "note_on", "time": 995, "note": 63, "velocity": 110, "channel": 0}, {"type": "note_off", "time": 3892, "note": 63, "velocity": 110, "channel": 0}, {"type": "note_on", "time": 724, "note": 62, "velocity": 107, "channel": 0}, {"type": "note_off", "time": 3711, "note": 62, "velocity": 107, "channel": 0}, {"type": "note_on", "time": 1900, "note": 58, "velocity": 95, "channel": 0}, {"type": "note_off", "time": 2353, "note": 58, "velocity": 95, "channel": 0}, {"type": "note_on", "time": 1357, "note": 60, "velocity": 105, "channel": 0}, {"type": "note_off", "time": 3530, "note": 60, "velocity": 105, "channel": 0}, {"type": "note_on", "time": 1538, "note": 59, "velocity": 98, "channel": 0}, {"type": "note_off", "time": 5702, "note": 59, "velocity": 98, "channel": 0}, {"type": "note_on", "time": 585, "note": 51, "velocity": 90, "channel": 0}, {"type": "note_off", "time": 2986, "note": 51, "velocity": 90, "channel": 0}, {"type": "note_on", "time": 1615, "note": 52, "velocity": 91, "channel": 0}, {"type": "note_off", "time": 4248, "note": 52, "velocity": 91, "channel": 0}, {"type": "note_on", "time": 9481, "note": 58, "velocity": 102, "channel": 0}, {"type": "note_off", "time": 3801, "note": 58, "velocity": 102, "channel": 0}, {"type": "note_on", "time": 181, "note": 59, "velocity": 100, "channel": 0}, {"type": "note_off", "time": 4073, "note": 59, "velocity": 100, "channel": 0}, {"type": "note_on", "time": 0, "note": 52, "velocity": 95, "channel": 0}, {"type": "note_off", "time": 4435, "note": 52, "velocity": 95, "channel": 0}, {"type": "note_on", "time": 667, "note": 51, "velocity": 105, "channel": 0}, {"type": "note_off", "time": 4006, "note": 51, "velocity": 105, "channel": 0}, {"type": "note_on", "time": 1480, "note": 58, "velocity": 105, "channel": 0}, {"type": "note_off", "time": 1818, "note": 58, "velocity": 105, "channel": 0}, {"type": "note_on", "time": 263, "note": 60, "velocity": 107, "channel": 0}, {"type": "note_off", "time": 3711, "note": 60, "velocity": 107, "channel": 0}, {"type": "note_on", "time": 543, "note": 59, "velocity": 102, "channel": 0}, {"type": "note_off", "time": 3620, "note": 59, "velocity": 102, "channel": 0}, {"type": "note_on", "time": 181, "note": 51, "velocity": 95, "channel": 0}, {"type": "note_off", "time": 4887, "note": 51, "velocity": 95, "channel": 0}, {"type": "note_on", "time": 814, "note": 52, "velocity": 110, "channel": 0}, {"type": "note_off", "time": 3982, "note": 52, "velocity": 110, "channel": 0}, {"type": "note_on", "time": 995, "note": 58, "velocity": 99, "channel": 0}, {"type": "note_off", "time": 4344, "note": 58, "velocity": 99, "channel": 0}, {"type": "note_on", "time": 995, "note": 56, "velocity": 103, "channel": 0}, {"type": "note_off", "time": 3620, "note": 56, "velocity": 103, "channel": 0}, {"type": "note_on", "time": 181, "note": 57, "velocity": 98, "channel": 0}, {"type": "note_off", "time": 4073, "note": 57, "velocity": 98, "channel": 0}, {"type": "note_on", "time": 362, "note": 58, "velocity": 102, "channel": 0}, {"type": "note_off", "time": 2805, "note": 58, "velocity": 102, "channel": 0}, {"type": "note_on", "time": 633, "note": 59, "velocity": 102, "channel": 0}, {"type": "note_off", "time": 3530, "note": 59, "velocity": 102, "channel": 0}, {"type": "note_on", "time": 362, "note": 61, "velocity": 104, "channel": 0}, {"type": "note_off", "time": 3801, "note": 61, "velocity": 104, "channel": 0}, {"type": "note_on", "time": 181, "note": 63, "velocity": 111, "channel": 0}, {"type": "note_off", "time": 3711, "note": 63, "velocity": 111, "channel": 0}, {"type": "note_on", "time": 90, "note": 65, "velocity": 115, "channel": 0}, {"type": "note_off", "time": 3711, "note": 65, "velocity": 115, "channel": 0}, {"type": "note_on", "time": 271, "note": 60, "velocity": 101, "channel": 0}, {"type": "note_off", "time": 3258, "note": 60, "velocity": 101, "channel": 0}, {"type": "note_on", "time": 1884, "note": 56, "velocity": 99, "channel": 0}, {"type": "note_off", "time": 3636, "note": 56, "velocity": 99, "channel": 0}, {"type": "note_on", "time": 814, "note": 51, "velocity": 93, "channel": 0}, {"type": "note_off", "time": 2624, "note": 51, "velocity": 93, "channel": 0}, {"type": "note_on", "time": 271, "note": 48, "velocity": 96, "channel": 0}, {"type": "note_off", "time": 2896, "note": 48, "velocity": 96, "channel": 0}, {"type": "note_on", "time": 724, "note": 46, "velocity": 97, "channel": 0}, {"type": "note_off", "time": 3620, "note": 46, "velocity": 97, "channel": 0}, {"type": "note_on", "time": 343, "note": 51, "velocity": 100, "channel": 0}, {"type": "note_off", "time": 4956, "note": 51, "velocity": 100, "channel": 0}, {"type": "note_on", "time": 1397, "note": 59, "velocity": 113, "channel": 0}, {"type": "note_off", "time": 2081, "note": 59, "velocity": 113, "channel": 0}, {"type": "note_on", "time": 181, "note": 60, "velocity": 97, "channel": 0}, {"type": "note_off", "time": 3439, "note": 60, "velocity": 97, "channel": 0}, {"type": "note_on", "time": 724, "note": 58, "velocity": 99, "channel": 0}, {"type": "note_off", "time": 5159, "note": 58, "velocity": 99, "channel": 0}, {"type": "note_on", "time": 724, "note": 56, "velocity": 104, "channel": 0}, {"type": "note_off", "time": 4525, "note": 56, "velocity": 104, "channel": 0}, {"type": "note_on", "time": 362, "note": 63, "velocity": 110, "channel": 0}, {"type": "note_off", "time": 5159, "note": 63, "velocity": 110, "channel": 0}, {"type": "note_on", "time": 633, "note": 71, "velocity": 108, "channel": 0}, {"type": "note_off", "time": 5973, "note": 71, "velocity": 108, "channel": 0}, {"type": "note_on", "time": 814, "note": 68, "velocity": 99, "channel": 0}, {"type": "note_off", "time": 4344, "note": 68, "velocity": 99, "channel": 0}, {"type": "note_on", "time": 2081, "note": 70, "velocity": 98, "channel": 0}, {"type": "note_off", "time": 4141, "note": 70, "velocity": 98, "channel": 0}, {"type": "note_on", "time": 294, "note": 66, "velocity": 101, "channel": 0}, {"type": "note_off", "time": 5340, "note": 66, "velocity": 101, "channel": 0}, {"type": "note_on", "time": 543, "note": 65, "velocity": 95, "channel": 0}, {"type": "note_off", "time": 3801, "note": 65, "velocity": 95, "channel": 0}, {"type": "note_on", "time": 90, "note": 60, "velocity": 99, "channel": 0}, {"type": "note_off", "time": 3530, "note": 60, "velocity": 99, "channel": 0}, {"type": "note_on", "time": 2172, "note": 58, "velocity": 93, "channel": 0}, {"type": "note_off", "time": 3620, "note": 58, "velocity": 93, "channel": 0}, {"type": "note_on", "time": 1267, "note": 51, "velocity": 96, "channel": 0}, {"type": "note_off", "time": 3711, "note": 51, "velocity": 96, "channel": 0}, {"type": "note_on", "time": 181, "note": 46, "velocity": 99, "channel": 0}, {"type": "note_off", "time": 3892, "note": 46, "velocity": 99, "channel": 0}, {"type": "note_on", "time": 1176, "note": 45, "velocity": 108, "channel": 0}, {"type": "note_off", "time": 5702, "note": 45, "velocity": 108, "channel": 0}, {"type": "note_on", "time": 724, "note": 44, "velocity": 107, "channel": 0}, {"type": "note_off", "time": 4978, "note": 44, "velocity": 107, "channel": 0}, {"type": "note_on", "time": 452, "note": 58, "velocity": 98, "channel": 0}, {"type": "note_off", "time": 814, "note": 58, "velocity": 98, "channel": 0}, {"type": "note_on", "time": 181, "note": 59, "velocity": 98, "channel": 0}, {"type": "note_off", "time": 3258, "note": 59, "velocity": 98, "channel": 0}, {"type": "note_on", "time": 271, "note": 58, "velocity": 98, "channel": 0}, {"type": "note_off", "time": 4435, "note": 58, "velocity": 98, "channel": 0}, {"type": "note_on", "time": 814, "note": 59, "velocity": 104, "channel": 0}, {"type": "note_off", "time": 4435, "note": 59, "velocity": 104, "channel": 0}, {"type": "note_on", "time": 814, "note": 64, "velocity": 105, "channel": 0}, {"type": "note_off", "time": 4616, "note": 64, "velocity": 105, "channel": 0}, {"type": "note_on", "time": 497, "note": 67, "velocity": 115, "channel": 0}, {"type": "note_off", "time": 1221, "note": 67, "velocity": 115, "channel": 0}, {"type": "note_on", "time": 769, "note": 68, "velocity": 110, "channel": 0}, {"type": "note_off", "time": 2805, "note": 68, "velocity": 110, "channel": 0}, {"type": "note_on", "time": 316, "note": 69, "velocity": 113, "channel": 0}, {"type": "note_on", "time": 1267, "note": 70, "velocity": 116, "channel": 0}, {"type": "note_off", "time": 0, "note": 69, "velocity": 113, "channel": 0}, {"type": "note_off", "time": 1538, "note": 70, "velocity": 116, "channel": 0}, {"type": "note_on", "time": 181, "note": 69, "velocity": 116, "channel": 0}, {"type": "note_off", "time": 1629, "note": 69, "velocity": 116, "channel": 0}, {"type": "note_on", "time": 181, "note": 70, "velocity": 113, "channel": 0}, {"type": "note_off", "time": 1267, "note": 70, "velocity": 113, "channel": 0}, {"type": "note_on", "time": 226, "note": 71, "velocity": 110, "channel": 0}, {"type": "note_off", "time": 3801, "note": 71, "velocity": 110, "channel": 0}, {"type": "note_on", "time": 407, "note": 72, "velocity": 114, "channel": 0}, {"type": "note_off", "time": 2715, "note": 72, "velocity": 114, "channel": 0}, {"type": "note_on", "time": 543, "note": 73, "velocity": 118, "channel": 0}, {"type": "note_off", "time": 3439, "note": 73, "velocity": 118, "channel": 0}, {"type": "note_on", "time": 362, "note": 74, "velocity": 112, "channel": 0}, {"type": "note_off", "time": 3711, "note": 74, "velocity": 112, "channel": 0}, {"type": "note_on", "time": 724, "note": 75, "velocity": 87, "channel": 0}, {"type": "note_off", "time": 19370, "note": 75, "velocity": 87, "channel": 0}, {"type": "note_on", "time": 29439, "note": 60, "velocity": 112, "channel": 0}, {"type": "note_off", "time": 1810, "note": 60, "velocity": 112, "channel": 0}, {"type": "note_on", "time": 429, "note": 65, "velocity": 106, "channel": 0}, {"type": "note_off", "time": 2534, "note": 65, "velocity": 106, "channel": 0}, {"type": "note_on", "time": 633, "note": 65, "velocity": 119, "channel": 0}, {"type": "note_off", "time": 3349, "note": 65, "velocity": 119, "channel": 0}, {"type": "note_on", "time": 633, "note": 68, "velocity": 118, "channel": 0}, {"type": "note_off", "time": 4706, "note": 68, "velocity": 118, "channel": 0}, {"type": "note_on", "time": 724, "note": 72, "velocity": 111, "channel": 0}, {"type": "note_off", "time": 4525, "note": 72, "velocity": 111, "channel": 0}, {"type": "note_on", "time": 1651, "note": 72, "velocity": 114, "channel": 0}, {"type": "note_off", "time": 3824, "note": 72, "velocity": 114, "channel": 0}, {"type": "note_on", "time": 1697, "note": 72, "velocity": 114, "channel": 0}, {"type": "note_off", "time": 3665, "note": 72, "velocity": 114, "channel": 0}, {"type": "note_on", "time": 565, "note": 68, "velocity": 110, "channel": 0}, {"type": "note_off", "time": 3620, "note": 68, "velocity": 110, "channel": 0}, {"type": "note_on", "time": 181, "note": 63, "velocity": 112, "channel": 0}, {"type": "note_off", "time": 3620, "note": 63, "velocity": 112, "channel": 0}, {"type": "note_on", "time": 1357, "note": 71, "velocity": 107, "channel": 0}, {"type": "note_off", "time": 3349, "note": 71, "velocity": 107, "channel": 0}, {"type": "note_on", "time": 526, "note": 68, "velocity": 110, "channel": 0}, {"type": "note_off", "time": 2590, "note": 68, "velocity": 110, "channel": 0}, {"type": "note_on", "time": 593, "note": 63, "velocity": 114, "channel": 0}, {"type": "note_off", "time": 3711, "note": 63, "velocity": 114, "channel": 0}, {"type": "note_on", "time": 294, "note": 61, "velocity": 106, "channel": 0}, {"type": "note_off", "time": 3326, "note": 61, "velocity": 106, "channel": 0}, {"type": "note_on", "time": 1448, "note": 72, "velocity": 111, "channel": 0}, {"type": "note_off", "time": 3892, "note": 72, "velocity": 111, "channel": 0}, {"type": "note_on", "time": 362, "note": 68, "velocity": 108, "channel": 0}, {"type": "note_off", "time": 3077, "note": 68, "velocity": 108, "channel": 0}, {"type": "note_on", "time": 724, "note": 63, "velocity": 114, "channel": 0}, {"type": "note_off", "time": 3077, "note": 63, "velocity": 114, "channel": 0}, {"type": "note_on", "time": 1900, "note": 71, "velocity": 107, "channel": 0}, {"type": "note_off", "time": 3349, "note": 71, "velocity": 107, "channel": 0}, {"type": "note_on", "time": 0, "note": 70, "velocity": 108, "channel": 0}, {"type": "note_off", "time": 2896, "note": 70, "velocity": 108, "channel": 0}, {"type": "note_on", "time": 122, "note": 61, "velocity": 108, "channel": 0}, {"type": "note_off", "time": 2998, "note": 61, "velocity": 108, "channel": 0}, {"type": "note_on", "time": 3577, "note": 68, "velocity": 100, "channel": 0}, {"type": "note_off", "time": 10952, "note": 68, "velocity": 100, "channel": 0}, {"type": "note_on", "time": 15906, "note": 68, "velocity": 108, "channel": 0}, {"type": "note_off", "time": 1158, "note": 68, "velocity": 108, "channel": 0}, {"type": "note_on", "time": 80, "note": 70, "velocity": 112, "channel": 0}, {"type": "note_off", "time": 3089, "note": 70, "velocity": 112, "channel": 0}, {"type": "note_on", "time": 130, "note": 72, "velocity": 116, "channel": 0}, {"type": "note_off", "time": 2805, "note": 72, "velocity": 116, "channel": 0}, {"type": "note_on", "time": 90, "note": 68, "velocity": 102, "channel": 0}, {"type": "note_off", "time": 1991, "note": 68, "velocity": 102, "channel": 0}, {"type": "note_on", "time": 90, "note": 70, "velocity": 108, "channel": 0}, {"type": "note_off", "time": 1991, "note": 70, "velocity": 108, "channel": 0}, {"type": "note_on", "time": 181, "note": 68, "velocity": 113, "channel": 0}, {"type": "note_off", "time": 2805, "note": 68, "velocity": 113, "channel": 0}, {"type": "note_on", "time": 181, "note": 65, "velocity": 111, "channel": 0}, {"type": "note_off", "time": 2262, "note": 65, "velocity": 111, "channel": 0}, {"type": "note_on", "time": 543, "note": 61, "velocity": 91, "channel": 0}, {"type": "note_off", "time": 1991, "note": 61, "velocity": 91, "channel": 0}, {"type": "note_on", "time": 156, "note": 68, "velocity": 114, "channel": 0}, {"type": "note_off", "time": 2558, "note": 68, "velocity": 114, "channel": 0}, {"type": "note_on", "time": 225, "note": 65, "velocity": 106, "channel": 0}, {"type": "note_off", "time": 2443, "note": 65, "velocity": 106, "channel": 0}, {"type": "note_on", "time": 408, "note": 61, "velocity": 112, "channel": 0}, {"type": "note_off", "time": 1810, "note": 61, "velocity": 112, "channel": 0}, {"type": "note_on", "time": 84, "note": 58, "velocity": 102, "channel": 0}, {"type": "note_off", "time": 2262, "note": 58, "velocity": 102, "channel": 0}, {"type": "note_on", "time": 187, "note": 63, "velocity": 117, "channel": 0}, {"type": "note_off", "time": 2353, "note": 63, "velocity": 117, "channel": 0}, {"type": "note_on", "time": 271, "note": 60, "velocity": 103, "channel": 0}, {"type": "note_off", "time": 1810, "note": 60, "velocity": 103, "channel": 0}, {"type": "note_on", "time": 271, "note": 56, "velocity": 103, "channel": 0}, {"type": "note_off", "time": 2353, "note": 56, "velocity": 103, "channel": 0}, {"type": "note_on", "time": 80, "note": 53, "velocity": 96, "channel": 0}, {"type": "note_off", "time": 1719, "note": 53, "velocity": 96, "channel": 0}, {"type": "note_on", "time": 838, "note": 58, "velocity": 102, "channel": 0}, {"type": "note_off", "time": 2333, "note": 58, "velocity": 102, "channel": 0}, {"type": "note_on", "time": 164, "note": 64, "velocity": 109, "channel": 0}, {"type": "note_off", "time": 2896, "note": 64, "velocity": 109, "channel": 0}, {"type": "note_on", "time": 1199, "note": 75, "velocity": 102, "channel": 0}, {"type": "note_off", "time": 1086, "note": 75, "velocity": 102, "channel": 0}, {"type": "note_on", "time": 362, "note": 76, "velocity": 107, "channel": 0}, {"type": "note_off", "time": 1900, "note": 76, "velocity": 107, "channel": 0}, {"type": "note_on", "time": 362, "note": 68, "velocity": 102, "channel": 0}, {"type": "note_off", "time": 1719, "note": 68, "velocity": 102, "channel": 0}, {"type": "note_on", "time": 452, "note": 74, "velocity": 108, "channel": 0}, {"type": "note_off", "time": 2353, "note": 74, "velocity": 108, "channel": 0}, {"type": "note_on", "time": 181, "note": 73, "velocity": 108, "channel": 0}, {"type": "note_off", "time": 1538, "note": 73, "velocity": 108, "channel": 0}, {"type": "note_on", "time": 90, "note": 71, "velocity": 98, "channel": 0}, {"type": "note_off", "time": 995, "note": 71, "velocity": 98, "channel": 0}, {"type": "note_on", "time": 792, "note": 75, "velocity": 110, "channel": 0}, {"type": "note_off", "time": 2036, "note": 75, "velocity": 110, "channel": 0}, {"type": "note_on", "time": 67, "note": 77, "velocity": 108, "channel": 0}, {"type": "note_off", "time": 1991, "note": 77, "velocity": 108, "channel": 0}, {"type": "note_on", "time": 181, "note": 76, "velocity": 114, "channel": 0}, {"type": "note_off", "time": 2172, "note": 76, "velocity": 114, "channel": 0}, {"type": "note_on", "time": 113, "note": 77, "velocity": 105, "channel": 0}, {"type": "note_off", "time": 859, "note": 77, "velocity": 105, "channel": 0}, {"type": "note_on", "time": 859, "note": 61, "velocity": 96, "channel": 0}, {"type": "note_off", "time": 1765, "note": 61, "velocity": 96, "channel": 0}, {"type": "note_on", "time": 1422, "note": 78, "velocity": 95, "channel": 0}, {"type": "note_off", "time": 1094, "note": 78, "velocity": 95, "channel": 0}, {"type": "note_on", "time": 402, "note": 79, "velocity": 98, "channel": 0}, {"type": "note_off", "time": 2124, "note": 79, "velocity": 98, "channel": 0}, {"type": "note_on", "time": 1416, "note": 78, "velocity": 79, "channel": 0}, {"type": "note_off", "time": 1045, "note": 78, "velocity": 79, "channel": 0}, {"type": "note_on", "time": 120, "note": 79, "velocity": 118, "channel": 0}, {"type": "note_off", "time": 9594, "note": 79, "velocity": 118, "channel": 0}, {"type": "note_on", "time": 452, "note": 78, "velocity": 104, "channel": 0}, {"type": "note_off", "time": 2172, "note": 78, "velocity": 104, "channel": 0}, {"type": "note_on", "time": 452, "note": 76, "velocity": 106, "channel": 0}, {"type": "note_off", "time": 2353, "note": 76, "velocity": 106, "channel": 0}, {"type": "note_on", "time": 362, "note": 72, "velocity": 104, "channel": 0}, {"type": "note_off", "time": 1267, "note": 72, "velocity": 104, "channel": 0}, {"type": "note_on", "time": 153, "note": 65, "velocity": 109, "channel": 0}, {"type": "note_off", "time": 951, "note": 65, "velocity": 109, "channel": 0}, {"type": "note_on", "time": 177, "note": 61, "velocity": 113, "channel": 0}, {"type": "note_off", "time": 962, "note": 61, "velocity": 113, "channel": 0}, {"type": "note_on", "time": 108, "note": 57, "velocity": 121, "channel": 0}, {"type": "note_off", "time": 2986, "note": 57, "velocity": 121, "channel": 0}, {"type": "note_on", "time": 1199, "note": 63, "velocity": 112, "channel": 0}, {"type": "note_off", "time": 2081, "note": 63, "velocity": 112, "channel": 0}, {"type": "note_on", "time": 0, "note": 80, "velocity": 99, "channel": 0}, {"type": "note_off", "time": 950, "note": 80, "velocity": 99, "channel": 0}, {"type": "note_on", "time": 2359, "note": 82, "velocity": 103, "channel": 0}, {"type": "note_off", "time": 2413, "note": 82, "velocity": 103, "channel": 0}, {"type": "note_on", "time": 1641, "note": 82, "velocity": 109, "channel": 0}, {"type": "note_off", "time": 2124, "note": 82, "velocity": 109, "channel": 0}, {"type": "note_on", "time": 225, "note": 83, "velocity": 112, "channel": 0}, {"type": "note_off", "time": 2928, "note": 83, "velocity": 112, "channel": 0}, {"type": "note_on", "time": 549, "note": 83, "velocity": 103, "channel": 0}, {"type": "note_off", "time": 11223, "note": 83, "velocity": 103, "channel": 0}, {"type": "note_on", "time": 588, "note": 75, "velocity": 104, "channel": 0}, {"type": "note_off", "time": 1855, "note": 75, "velocity": 104, "channel": 0}, {"type": "note_on", "time": 3484, "note": 83, "velocity": 110, "channel": 0}, {"type": "note_off", "time": 1629, "note": 83, "velocity": 110, "channel": 0}, {"type": "note_on", "time": 678, "note": 85, "velocity": 98, "channel": 0}, {"type": "note_off", "time": 1086, "note": 85, "velocity": 98, "channel": 0}, {"type": "note_on", "time": 3892, "note": 87, "velocity": 106, "channel": 0}, {"type": "note_off", "time": 2443, "note": 87, "velocity": 106, "channel": 0}, {"type": "note_on", "time": 316, "note": 88, "velocity": 101, "channel": 0}, {"type": "note_off", "time": 2805, "note": 88, "velocity": 101, "channel": 0}, {"type": "note_on", "time": 1221, "note": 85, "velocity": 79, "channel": 0}, {"type": "note_off", "time": 1357, "note": 85, "velocity": 79, "channel": 0}, {"type": "note_on", "time": 0, "note": 87, "velocity": 113, "channel": 0}, {"type": "note_off", "time": 2715, "note": 87, "velocity": 113, "channel": 0}, {"type": "note_on", "time": 3284, "note": 84, "velocity": 93, "channel": 0}, {"type": "note_off", "time": 2606, "note": 84, "velocity": 93, "channel": 0}, {"type": "note_on", "time": 1158, "note": 78, "velocity": 110, "channel": 0}, {"type": "note_off", "time": 3258, "note": 78, "velocity": 110, "channel": 0}, {"type": "note_on", "time": 2502, "note": 75, "velocity": 109, "channel": 0}, {"type": "note_off", "time": 2799, "note": 75, "velocity": 109, "channel": 0}, {"type": "note_on", "time": 1315, "note": 77, "velocity": 109, "channel": 0}, {"type": "note_off", "time": 3711, "note": 77, "velocity": 109, "channel": 0}, {"type": "note_on", "time": 283, "note": 75, "velocity": 101, "channel": 0}, {"type": "note_off", "time": 3439, "note": 75, "velocity": 101, "channel": 0}, {"type": "note_on", "time": 983, "note": 73, "velocity": 104, "channel": 0}, {"type": "note_off", "time": 3801, "note": 73, "velocity": 104, "channel": 0}, {"type": "note_on", "time": 452, "note": 72, "velocity": 103, "channel": 0}, {"type": "note_off", "time": 2443, "note": 72, "velocity": 103, "channel": 0}, {"type": "note_on", "time": 2172, "note": 63, "velocity": 110, "channel": 0}, {"type": "note_off", "time": 2715, "note": 63, "velocity": 110, "channel": 0}, {"type": "note_on", "time": 1466, "note": 70, "velocity": 107, "channel": 0}, {"type": "note_off", "time": 2735, "note": 70, "velocity": 107, "channel": 0}, {"type": "note_on", "time": 386, "note": 68, "velocity": 112, "channel": 0}, {"type": "note_off", "time": 2349, "note": 68, "velocity": 112, "channel": 0}, {"type": "note_on", "time": 1158, "note": 68, "velocity": 108, "channel": 0}, {"type": "note_off", "time": 2349, "note": 68, "velocity": 108, "channel": 0}, {"type": "note_on", "time": 1158, "note": 67, "velocity": 106, "channel": 0}, {"type": "note_off", "time": 2317, "note": 67, "velocity": 106, "channel": 0}, {"type": "note_on", "time": 380, "note": 65, "velocity": 113, "channel": 0}, {"type": "note_off", "time": 3349, "note": 65, "velocity": 113, "channel": 0}, {"type": "note_on", "time": 995, "note": 60, "velocity": 100, "channel": 0}, {"type": "note_off", "time": 4254, "note": 60, "velocity": 100, "channel": 0}, {"type": "note_on", "time": 271, "note": 63, "velocity": 114, "channel": 0}, {"type": "note_off", "time": 3530, "note": 63, "velocity": 114, "channel": 0}, {"type": "note_on", "time": 724, "note": 61, "velocity": 108, "channel": 0}, {"type": "note_off", "time": 2715, "note": 61, "velocity": 108, "channel": 0}, {"type": "note_on", "time": 271, "note": 56, "velocity": 98, "channel": 0}, {"type": "note_off", "time": 3801, "note": 56, "velocity": 98, "channel": 0}, {"type": "note_on", "time": 0, "note": 60, "velocity": 98, "channel": 0}, {"type": "note_off", "time": 3349, "note": 60, "velocity": 98, "channel": 0}, {"type": "note_on", "time": 995, "note": 58, "velocity": 103, "channel": 0}, {"type": "note_off", "time": 3168, "note": 58, "velocity": 103, "channel": 0}, {"type": "note_on", "time": 1176, "note": 53, "velocity": 106, "channel": 0}, {"type": "note_off", "time": 2624, "note": 53, "velocity": 106, "channel": 0}, {"type": "note_on", "time": 736, "note": 58, "velocity": 95, "channel": 0}, {"type": "note_off", "time": 3057, "note": 58, "velocity": 95, "channel": 0}, {"type": "note_on", "time": 1184, "note": 51, "velocity": 95, "channel": 0}, {"type": "note_off", "time": 3530, "note": 51, "velocity": 95, "channel": 0}, {"type": "note_on", "time": 905, "note": 58, "velocity": 103, "channel": 0}, {"type": "note_off", "time": 3530, "note": 58, "velocity": 103, "channel": 0}, {"type": "note_on", "time": 452, "note": 56, "velocity": 102, "channel": 0}, {"type": "note_off", "time": 2805, "note": 56, "velocity": 102, "channel": 0}, {"type": "note_on", "time": 915, "note": 53, "velocity": 101, "channel": 0}, {"type": "note_off", "time": 2986, "note": 53, "velocity": 101, "channel": 0}, {"type": "note_on", "time": 623, "note": 49, "velocity": 101, "channel": 0}, {"type": "note_off", "time": 3077, "note": 49, "velocity": 101, "channel": 0}, {"type": "note_on", "time": 134, "note": 51, "velocity": 101, "channel": 0}, {"type": "note_off", "time": 2478, "note": 51, "velocity": 101, "channel": 0}, {"type": "note_on", "time": 283, "note": 60, "velocity": 98, "channel": 0}, {"type": "note_off", "time": 3258, "note": 60, "velocity": 98, "channel": 0}, {"type": "note_on", "time": 1086, "note": 58, "velocity": 104, "channel": 0}, {"type": "note_off", "time": 3982, "note": 58, "velocity": 104, "channel": 0}, {"type": "note_on", "time": 181, "note": 59, "velocity": 98, "channel": 0}, {"type": "note_off", "time": 3258, "note": 59, "velocity": 98, "channel": 0}, {"type": "note_on", "time": 814, "note": 60, "velocity": 95, "channel": 0}, {"type": "note_off", "time": 3801, "note": 60, "velocity": 95, "channel": 0}, {"type": "note_on", "time": 633, "note": 60, "velocity": 99, "channel": 0}, {"type": "note_off", "time": 3122, "note": 60, "velocity": 99, "channel": 0}, {"type": "note_on", "time": 316, "note": 58, "velocity": 101, "channel": 0}, {"type": "note_off", "time": 3620, "note": 58, "velocity": 101, "channel": 0}, {"type": "note_on", "time": 543, "note": 56, "velocity": 105, "channel": 0}, {"type": "note_off", "time": 3439, "note": 56, "velocity": 105, "channel": 0}, {"type": "note_on", "time": 90, "note": 54, "velocity": 102, "channel": 0}, {"type": "note_off", "time": 3077, "note": 54, "velocity": 102, "channel": 0}, {"type": "note_on", "time": 294, "note": 53, "velocity": 101, "channel": 0}, {"type": "note_off", "time": 2353, "note": 53, "velocity": 101, "channel": 0}, {"type": "note_on", "time": 1402, "note": 51, "velocity": 107, "channel": 0}, {"type": "note_off", "time": 2443, "note": 51, "velocity": 107, "channel": 0}, {"type": "note_on", "time": 1108, "note": 53, "velocity": 105, "channel": 0}, {"type": "note_off", "time": 2896, "note": 53, "velocity": 105, "channel": 0}, {"type": "note_on", "time": 1086, "note": 49, "velocity": 102, "channel": 0}, {"type": "note_off", "time": 3077, "note": 49, "velocity": 102, "channel": 0}, {"type": "note_on", "time": 724, "note": 48, "velocity": 27, "channel": 0}, {"type": "note_off", "time": 2443, "note": 48, "velocity": 27, "channel": 0}, {"type": "note_on", "time": 543, "note": 46, "velocity": 127, "channel": 0}, {"type": "note_off", "time": 5702, "note": 46, "velocity": 127, "channel": 0}, {"type": "note_on", "time": 271, "note": 51, "velocity": 108, "channel": 0}, {"type": "note_off", "time": 24981, "note": 51, "velocity": 108, "channel": 0}, {"type": "end_of_track", "time": 0}]]}