{"ticks_per_beat": 20160, "tracks": [[{"type": "track_name", "name": "Melody", "time": 0}, {"type": "set_tempo", "tempo": 983606, "time": 0}, {"type": "key_signature", "key": "Bb", "time": 0}, {"type": "time_signature", "numerator": 4, "denominator": 4, "clocks_per_click": 24, "notated_32nd_notes_per_beat": 8, "time": 0}, {"type": "note_on", "time": 177159, "note": 53, "velocity": 96, "channel": 0}, {"type": "note_off", "time": 2022, "note": 53, "velocity": 96, "channel": 0}, {"type": "note_on", "time": 237, "note": 55, "velocity": 107, "channel": 0}, {"type": "note_off", "time": 3569, "note": 55, "velocity": 107, "channel": 0}, {"type": "note_on", "time": 118, "note": 58, "velocity": 107, "channel": 0}, {"type": "note_off", "time": 4045, "note": 58, "velocity": 107, "channel": 0}, {"type": "note_on", "time": 356, "note": 60, "velocity": 118, "channel": 0}, {"type": "note_off", "time": 3450, "note": 60, "velocity": 118, "channel": 0}, {"type": "note_on", "time": 1115, "note": 60, "velocity": 121, "channel": 0}, {"type": "note_off", "time": 1840, "note": 60, "velocity": 121, "channel": 0}, {"type": "note_on", "time": 0, "note": 61, "velocity": 109, "channel": 0}, {"type": "note_off", "time": 3346, "note": 61, "velocity": 109, "channel": 0}, {"type": "note_on", "time": 0, "note": 58, "velocity": 103, "channel": 0}, {"type": "note_off", "time": 4015, "note": 58, "velocity": 103, "channel": 0}, {"type": "note_on", "time": 836, "note": 60, "velocity": 109, "channel": 0}, {"type": "note_off", "time": 4684, "note": 60, "velocity": 109, "channel": 0}, {"type": "note_on", "time": 699, "note": 58, "velocity": 78, "channel": 0}, {"type": "note_off", "time": 70576, "note": 58, "velocity": 78, "channel": 0}, {"type": "note_on", "time": 3130, "note": 65, "velocity": 114, "channel": 0}, {"type": "note_off", "time": 1070, "note": 65, "velocity": 114, "channel": 0}, {"type": "note_on", "time": 316, "note": 67, "velocity": 115, "channel": 0}, {"type": "note_off", "time": 4182, "note": 67, "velocity": 115, "channel": 0}, {"type": "note_on", "time": 585, "note": 70, "velocity": 86, "channel": 0}, {"type": "note_off", "time": 5772, "note": 70, "velocity": 86, "channel": 0}, {"type": "note_on", "time": 752, "note": 72, "velocity": 122, "channel": 0}, {"type": "note_off", "time": 3137, "note": 72, "velocity": 122, "channel": 0}, {"type": "note_on", "time": 250, "note": 73, "velocity": 121, "channel": 0}, {"type": "note_off", "time": 6232, "note": 73, "velocity": 121, "channel": 0}, {"type": "note_on", "time": 585, "note": 72, "velocity": 120, "channel": 0}, {"type": "note_off", "time": 3262, "note": 72, "velocity": 120, "channel": 0}, {"type": "note_on", "time": 292, "note": 70, "velocity": 109, "channel": 0}, {"type": "note_off", "time": 4057, "note": 70, "velocity": 109, "channel": 0}, {"type": "note_on", "time": 83, "note": 68, "velocity": 109, "channel": 0}, {"type": "note_off", "time": 3764, "note": 68, "velocity": 109, "channel": 0}, {"type": "note_on", "time": 460, "note": 65, "velocity": 107, "channel": 0}, {"type": "note_off", "time": 4015, "note": 65, "velocity": 107, "channel": 0}, {"type": "note_on", "time": 0, "note": 64, "velocity": 109, "channel": 0}, {"type": "note_off", "time": 4559, "note": 64, "velocity": 109, "channel": 0}, {"type": "note_on", "time": 334, "note": 63, "velocity": 112, "channel": 0}, {"type": "note_off", "time": 3429, "note": 63, "velocity": 112, "channel": 0}, {"type": "note_on", "time": 250, "note": 65, "velocity": 100, "channel": 0}, {"type": "note_off", "time": 3597, "note": 65, "velocity": 100, "channel": 0}, {"type": "note_on", "time": 209, "note": 61, "velocity": 101, "channel": 0}, {"type": "note_off", "time": 2049, "note": 61, "velocity": 101, "channel": 0}, {"type": "note_on", "time": 250, "note": 62, "velocity": 92, "channel": 0}, {"type": "note_off", "time": 2677, "note": 62, "velocity": 92, "channel": 0}, {"type": "note_on", "time": 543, "note": 61, "velocity": 89, "channel": 0}, {"type": "note_off", "time": 1338, "note": 61, "velocity": 89, "channel": 0}, {"type": "note_on", "time": 125, "note": 62, "velocity": 80, "channel": 0}, {"type": "note_off", "time": 15602, "note": 62, "velocity": 80, "channel": 0}, {"type": "note_on", "time": 711, "note": 61, "velocity": 90, "channel": 0}, {"type": "note_off", "time": 1589, "note": 61, "velocity": 90, "channel": 0}, {"type": "note_on", "time": 334, "note": 60, "velocity": 93, "channel": 0}, {"type": "note_off", "time": 1965, "note": 60, "velocity": 93, "channel": 0}, {"type": "note_on", "time": 5546, "note": 60, "velocity": 97, "channel": 0}, {"type": "note_off", "time": 2617, "note": 60, "velocity": 97, "channel": 0}, {"type": "note_on", "time": 594, "note": 58, "velocity": 77, "channel": 0}, {"type": "note_off", "time": 24271, "note": 58, "velocity": 77, "channel": 0}, {"type": "note_on", "time": 713, "note": 53, "velocity": 93, "channel": 0}, {"type": "note_off", "time": 2498, "note": 53, "velocity": 93, "channel": 0}, {"type": "note_on", "time": 832, "note": 55, "velocity": 86, "channel": 0}, {"type": "note_off", "time": 9280, "note": 55, "velocity": 86, "channel": 0}, {"type": "note_on", "time": 115, "note": 53, "velocity": 79, "channel": 0}, {"type": "note_off", "time": 31789, "note": 53, "velocity": 79, "channel": 0}, {"type": "note_on", "time": 87756, "note": 58, "velocity": 93, "channel": 0}, {"type": "note_off", "time": 1505, "note": 58, "velocity": 93, "channel": 0}, {"type": "note_on", "time": 167, "note": 59, "velocity": 99, "channel": 0}, {"type": "note_off", "time": 2258, "note": 59, "velocity": 99, "channel": 0}, {"type": "note_on", "time": 1087, "note": 56, "velocity": 85, "channel": 0}, {"type": "note_off", "time": 4015, "note": 56, "velocity": 85, "channel": 0}, {"type": "note_on", "time": 0, "note": 58, "velocity": 101, "channel": 0}, {"type": "note_off", "time": 6859, "note": 58, "velocity": 101, "channel": 0}, {"type": "note_on", "time": 1840, "note": 58, "velocity": 101, "channel": 0}, {"type": "note_off", "time": 3931, "note": 58, "velocity": 101, "channel": 0}, {"type": "note_on", "time": 3178, "note": 56, "velocity": 68, "channel": 0}, {"type": "note_off", "time": 4266, "note": 56, "velocity": 68, "channel": 0}, {"type": "note_on", "time": 418, "note": 63, "velocity": 118, "channel": 0}, {"type": "note_off", "time": 3178, "note": 63, "velocity": 118, "channel": 0}, {"type": "note_on", "time": 83, "note": 64, "velocity": 119, "channel": 0}, {"type": "note_off", "time": 5772, "note": 64, "velocity": 119, "channel": 0}, {"type": "note_on", "time": 83, "note": 61, "velocity": 87, "channel": 0}, {"type": "note_off", "time": 4433, "note": 61, "velocity": 87, "channel": 0}, {"type": "note_on", "time": 585, "note": 63, "velocity": 112, "channel": 0}, {"type": "note_off", "time": 3931, "note": 63, "velocity": 112, "channel": 0}, {"type": "note_on", "time": 501, "note": 61, "velocity": 97, "channel": 0}, {"type": "note_off", "time": 3095, "note": 61, "velocity": 97, "channel": 0}, {"type": "note_on", "time": 1171, "note": 58, "velocity": 93, "channel": 0}, {"type": "note_off", "time": 3931, "note": 58, "velocity": 93, "channel": 0}, {"type": "note_on", "time": 2268, "note": 62, "velocity": 91, "channel": 0}, {"type": "note_off", "time": 2498, "note": 62, "velocity": 91, "channel": 0}, {"type": "note_on", "time": 420, "note": 64, "velocity": 103, "channel": 0}, {"type": "note_off", "time": 2844, "note": 64, "velocity": 103, "channel": 0}, {"type": "note_on", "time": 0, "note": 61, "velocity": 87, "channel": 0}, {"type": "note_off", "time": 3764, "note": 61, "velocity": 87, "channel": 0}, {"type": "note_on", "time": 0, "note": 63, "velocity": 99, "channel": 0}, {"type": "note_off", "time": 3680, "note": 63, "velocity": 99, "channel": 0}, {"type": "note_on", "time": 250, "note": 61, "velocity": 90, "channel": 0}, {"type": "note_off", "time": 2593, "note": 61, "velocity": 90, "channel": 0}, {"type": "note_on", "time": 585, "note": 58, "velocity": 84, "channel": 0}, {"type": "note_off", "time": 4350, "note": 58, "velocity": 84, "channel": 0}, {"type": "note_on", "time": 1254, "note": 64, "velocity": 98, "channel": 0}, {"type": "note_off", "time": 4768, "note": 64, "velocity": 98, "channel": 0}, {"type": "note_on", "time": 250, "note": 61, "velocity": 82, "channel": 0}, {"type": "note_off", "time": 3680, "note": 61, "velocity": 82, "channel": 0}, {"type": "note_on", "time": 334, "note": 63, "velocity": 99, "channel": 0}, {"type": "note_off", "time": 4015, "note": 63, "velocity": 99, "channel": 0}, {"type": "note_on", "time": 0, "note": 61, "velocity": 88, "channel": 0}, {"type": "note_off", "time": 4015, "note": 61, "velocity": 88, "channel": 0}, {"type": "note_on", "time": 0, "note": 58, "velocity": 88, "channel": 0}, {"type": "note_off", "time": 3513, "note": 58, "velocity": 88, "channel": 0}, {"type": "note_on", "time": 3638, "note": 59, "velocity": 95, "channel": 0}, {"type": "note_off", "time": 2175, "note": 59, "velocity": 95, "channel": 0}, {"type": "note_on", "time": 293, "note": 61, "velocity": 91, "channel": 0}, {"type": "note_off", "time": 3178, "note": 61, "velocity": 91, "channel": 0}, {"type": "note_on", "time": 0, "note": 58, "velocity": 79, "channel": 0}, {"type": "note_off", "time": 17986, "note": 58, "velocity": 79, "channel": 0}, {"type": "note_on", "time": 33421, "note": 58, "velocity": 93, "channel": 0}, {"type": "note_off", "time": 1254, "note": 58, "velocity": 93, "channel": 0}, {"type": "note_on", "time": 627, "note": 58, "velocity": 106, "channel": 0}, {"type": "note_off", "time": 752, "note": 58, "velocity": 106, "channel": 0}, {"type": "note_on", "time": 418, "note": 58, "velocity": 106, "channel": 0}, {"type": "note_off", "time": 1505, "note": 58, "velocity": 106, "channel": 0}, {"type": "note_on", "time": 376, "note": 58, "velocity": 103, "channel": 0}, {"type": "note_off", "time": 2216, "note": 58, "velocity": 103, "channel": 0}, {"type": "note_on", "time": 250, "note": 58, "velocity": 105, "channel": 0}, {"type": "note_off", "time": 2216, "note": 58, "velocity": 105, "channel": 0}, {"type": "note_on", "time": 418, "note": 61, "velocity": 100, "channel": 0}, {"type": "note_off", "time": 1965, "note": 61, "velocity": 100, "channel": 0}, {"type": "note_on", "time": 126, "note": 62, "velocity": 114, "channel": 0}, {"type": "note_off", "time": 4223, "note": 62, "velocity": 114, "channel": 0}, {"type": "note_on", "time": 0, "note": 65, "velocity": 112, "channel": 0}, {"type": "note_off", "time": 3688, "note": 65, "velocity": 112, "channel": 0}, {"type": "note_on", "time": 892, "note": 67, "velocity": 109, "channel": 0}, {"type": "note_off", "time": 4402, "note": 67, "velocity": 109, "channel": 0}, {"type": "note_on", "time": 2022, "note": 70, "velocity": 112, "channel": 0}, {"type": "note_off", "time": 4759, "note": 70, "velocity": 112, "channel": 0}, {"type": "note_on", "time": 654, "note": 70, "velocity": 86, "channel": 0}, {"type": "note_off", "time": 45866, "note": 70, "velocity": 86, "channel": 0}, {"type": "note_on", "time": 0, "note": 66, "velocity": 98, "channel": 0}, {"type": "note_off", "time": 2379, "note": 66, "velocity": 98, "channel": 0}, {"type": "note_on", "time": 237, "note": 67, "velocity": 97, "channel": 0}, {"type": "note_off", "time": 7495, "note": 67, "velocity": 97, "channel": 0}, {"type": "note_on", "time": 475, "note": 65, "velocity": 85, "channel": 0}, {"type": "note_off", "time": 45093, "note": 65, "velocity": 85, "channel": 0}, {"type": "note_on", "time": 26532, "note": 65, "velocity": 108, "channel": 0}, {"type": "note_off", "time": 3238, "note": 65, "velocity": 108, "channel": 0}, {"type": "note_on", "time": 0, "note": 68, "velocity": 110, "channel": 0}, {"type": "note_off", "time": 3178, "note": 68, "velocity": 110, "channel": 0}, {"type": "note_on", "time": 418, "note": 70, "velocity": 108, "channel": 0}, {"type": "note_off", "time": 3262, "note": 70, "velocity": 108, "channel": 0}, {"type": "note_on", "time": 585, "note": 71, "velocity": 106, "channel": 0}, {"type": "note_off", "time": 3680, "note": 71, "velocity": 106, "channel": 0}, {"type": "note_on", "time": 585, "note": 73, "velocity": 93, "channel": 0}, {"type": "note_off", "time": 2593, "note": 73, "velocity": 93, "channel": 0}, {"type": "note_on", "time": 669, "note": 74, "velocity": 112, "channel": 0}, {"type": "note_off", "time": 1003, "note": 74, "velocity": 112, "channel": 0}, {"type": "note_on", "time": 250, "note": 75, "velocity": 108, "channel": 0}, {"type": "note_off", "time": 4768, "note": 75, "velocity": 108, "channel": 0}, {"type": "note_on", "time": 836, "note": 70, "velocity": 107, "channel": 0}, {"type": "note_off", "time": 1338, "note": 70, "velocity": 107, "channel": 0}, {"type": "note_on", "time": 334, "note": 71, "velocity": 110, "channel": 0}, {"type": "note_off", "time": 1505, "note": 71, "velocity": 110, "channel": 0}, {"type": "note_on", "time": 167, "note": 70, "velocity": 104, "channel": 0}, {"type": "note_off", "time": 752, "note": 70, "velocity": 104, "channel": 0}, {"type": "note_on", "time": 250, "note": 71, "velocity": 102, "channel": 0}, {"type": "note_off", "time": 1087, "note": 71, "velocity": 102, "channel": 0}, {"type": "note_on", "time": 585, "note": 70, "velocity": 101, "channel": 0}, {"type": "note_off", "time": 1338, "note": 70, "velocity": 101, "channel": 0}, {"type": "note_on", "time": 501, "note": 68, "velocity": 83, "channel": 0}, {"type": "note_off", "time": 3429, "note": 68, "velocity": 83, "channel": 0}, {"type": "note_on", "time": 1003, "note": 70, "velocity": 107, "channel": 0}, {"type": "note_off", "time": 3095, "note": 70, "velocity": 107, "channel": 0}, {"type": "note_on", "time": 0, "note": 68, "velocity": 102, "channel": 0}, {"type": "note_off", "time": 3258, "note": 68, "velocity": 102, "channel": 0}, {"type": "note_on", "time": 0, "note": 63, "velocity": 98, "channel": 0}, {"type": "note_off", "time": 1070, "note": 63, "velocity": 98, "channel": 0}, {"type": "note_on", "time": 416, "note": 65, "velocity": 105, "channel": 0}, {"type": "note_off", "time": 2320, "note": 65, "velocity": 105, "channel": 0}, {"type": "note_on", "time": 475, "note": 64, "velocity": 108, "channel": 0}, {"type": "note_off", "time": 1487, "note": 64, "velocity": 108, "channel": 0}, {"type": "note_on", "time": 297, "note": 65, "velocity": 95, "channel": 0}, {"type": "note_off", "time": 1368, "note": 65, "velocity": 95, "channel": 0}, {"type": "note_on", "time": 237, "note": 63, "velocity": 92, "channel": 0}, {"type": "note_off", "time": 1368, "note": 63, "velocity": 92, "channel": 0}, {"type": "note_on", "time": 3509, "note": 63, "velocity": 115, "channel": 0}, {"type": "note_off", "time": 10540, "note": 63, "velocity": 115, "channel": 0}, {"type": "note_on", "time": 585, "note": 61, "velocity": 97, "channel": 0}, {"type": "note_off", "time": 3764, "note": 61, "velocity": 97, "channel": 0}, {"type": "note_on", "time": 585, "note": 58, "velocity": 92, "channel": 0}, {"type": "note_off", "time": 13719, "note": 58, "velocity": 92, "channel": 0}, {"type": "note_on", "time": 920, "note": 56, "velocity": 89, "channel": 0}, {"type": "note_off", "time": 3680, "note": 56, "velocity": 89, "channel": 0}, {"type": "note_on", "time": 765, "note": 53, "velocity": 91, "channel": 0}, {"type": "note_off", "time": 9518, "note": 53, "velocity": 91, "channel": 0}, {"type": "note_on", "time": 21416, "note": 53, "velocity": 115, "channel": 0}, {"type": "note_off", "time": 3033, "note": 53, "velocity": 115, "channel": 0}, {"type": "note_on", "time": 713, "note": 52, "velocity": 99, "channel": 0}, {"type": "note_off", "time": 4283, "note": 52, "velocity": 99, "channel": 0}, {"type": "note_on", "time": 892, "note": 51, "velocity": 86, "channel": 0}, {"type": "note_off", "time": 18605, "note": 51, "velocity": 86, "channel": 0}, {"type": "note_on", "time": 19527, "note": 49, "velocity": 91, "channel": 0}, {"type": "note_off", "time": 15229, "note": 49, "velocity": 91, "channel": 0}, {"type": "note_on", "time": 832, "note": 50, "velocity": 81, "channel": 0}, {"type": "note_off", "time": 18679, "note": 50, "velocity": 81, "channel": 0}, {"type": "note_on", "time": 162319, "note": 55, "velocity": 105, "channel": 0}, {"type": "note_off", "time": 4182, "note": 55, "velocity": 105, "channel": 0}, {"type": "note_on", "time": 418, "note": 58, "velocity": 96, "channel": 0}, {"type": "note_off", "time": 4684, "note": 58, "velocity": 96, "channel": 0}, {"type": "note_on", "time": 501, "note": 60, "velocity": 114, "channel": 0}, {"type": "note_off", "time": 3513, "note": 60, "velocity": 114, "channel": 0}, {"type": "note_on", "time": 418, "note": 61, "velocity": 10, "channel": 0}, {"type": "note_off", "time": 3262, "note": 61, "velocity": 10, "channel": 0}, {"type": "note_on", "time": 836, "note": 58, "velocity": 93, "channel": 0}, {"type": "note_off", "time": 3848, "note": 58, "velocity": 93, "channel": 0}, {"type": "note_on", "time": 334, "note": 60, "velocity": 109, "channel": 0}, {"type": "note_off", "time": 4684, "note": 60, "velocity": 109, "channel": 0}, {"type": "note_on", "time": 1717, "note": 62, "velocity": 116, "channel": 0}, {"type": "note_off", "time": 1189, "note": 62, "velocity": 116, "channel": 0}, {"type": "note_on", "time": 594, "note": 64, "velocity": 116, "channel": 0}, {"type": "note_off", "time": 1844, "note": 64, "velocity": 116, "channel": 0}, {"type": "note_on", "time": 297, "note": 65, "velocity": 106, "channel": 0}, {"type": "note_off", "time": 2201, "note": 65, "velocity": 106, "channel": 0}, {"type": "note_on", "time": 654, "note": 61, "velocity": 85, "channel": 0}, {"type": "note_off", "time": 1665, "note": 61, "velocity": 85, "channel": 0}, {"type": "note_on", "time": 1308, "note": 63, "velocity": 123, "channel": 0}, {"type": "note_off", "time": 4164, "note": 63, "velocity": 123, "channel": 0}, {"type": "note_on", "time": 178, "note": 61, "velocity": 108, "channel": 0}, {"type": "note_off", "time": 3152, "note": 61, "velocity": 108, "channel": 0}, {"type": "note_on", "time": 594, "note": 58, "velocity": 103, "channel": 0}, {"type": "note_off", "time": 3331, "note": 58, "velocity": 103, "channel": 0}, {"type": "note_on", "time": 535, "note": 56, "velocity": 90, "channel": 0}, {"type": "note_off", "time": 2736, "note": 56, "velocity": 90, "channel": 0}, {"type": "note_on", "time": 773, "note": 58, "velocity": 105, "channel": 0}, {"type": "note_off", "time": 2498, "note": 58, "velocity": 105, "channel": 0}, {"type": "note_on", "time": 1606, "note": 56, "velocity": 105, "channel": 0}, {"type": "note_off", "time": 2439, "note": 56, "velocity": 105, "channel": 0}, {"type": "note_on", "time": 1427, "note": 53, "velocity": 97, "channel": 0}, {"type": "note_off", "time": 2320, "note": 53, "velocity": 97, "channel": 0}, {"type": "note_on", "time": 594, "note": 52, "velocity": 93, "channel": 0}, {"type": "note_off", "time": 3152, "note": 52, "velocity": 93, "channel": 0}, {"type": "note_on", "time": 1487, "note": 50, "velocity": 98, "channel": 0}, {"type": "note_off", "time": 3688, "note": 50, "velocity": 98, "channel": 0}, {"type": "note_on", "time": 3985, "note": 51, "velocity": 94, "channel": 0}, {"type": "note_off", "time": 5710, "note": 51, "velocity": 94, "channel": 0}, {"type": "note_on", "time": 1189, "note": 51, "velocity": 87, "channel": 0}, {"type": "note_off", "time": 20999, "note": 51, "velocity": 87, "channel": 0}, {"type": "note_on", "time": 60619, "note": 66, "velocity": 109, "channel": 0}, {"type": "note_off", "time": 1427, "note": 66, "velocity": 109, "channel": 0}, {"type": "note_on", "time": 59, "note": 65, "velocity": 117, "channel": 0}, {"type": "note_off", "time": 4223, "note": 65, "velocity": 117, "channel": 0}, {"type": "note_on", "time": 237, "note": 68, "velocity": 112, "channel": 0}, {"type": "note_off", "time": 42713, "note": 68, "velocity": 112, "channel": 0}, {"type": "note_on", "time": 1308, "note": 62, "velocity": 115, "channel": 0}, {"type": "note_off", "time": 2320, "note": 62, "velocity": 115, "channel": 0}, {"type": "note_on", "time": 0, "note": 64, "velocity": 110, "channel": 0}, {"type": "note_off", "time": 2260, "note": 64, "velocity": 110, "channel": 0}, {"type": "note_on", "time": 59, "note": 63, "velocity": 106, "channel": 0}, {"type": "note_off", "time": 3985, "note": 63, "velocity": 106, "channel": 0}, {"type": "note_on", "time": 832, "note": 61, "velocity": 101, "channel": 0}, {"type": "note_off", "time": 3450, "note": 61, "velocity": 101, "channel": 0}, {"type": "note_on", "time": 773, "note": 63, "velocity": 112, "channel": 0}, {"type": "note_off", "time": 6900, "note": 63, "velocity": 112, "channel": 0}, {"type": "note_on", "time": 773, "note": 65, "velocity": 107, "channel": 0}, {"type": "note_on", "time": 2974, "note": 61, "velocity": 98, "channel": 0}, {"type": "note_off", "time": 0, "note": 65, "velocity": 107, "channel": 0}, {"type": "note_off", "time": 2320, "note": 61, "velocity": 98, "channel": 0}, {"type": "note_on", "time": 178, "note": 62, "velocity": 99, "channel": 0}, {"type": "note_off", "time": 2439, "note": 62, "velocity": 99, "channel": 0}, {"type": "note_on", "time": 713, "note": 61, "velocity": 92, "channel": 0}, {"type": "note_off", "time": 1189, "note": 61, "velocity": 92, "channel": 0}, {"type": "note_on", "time": 356, "note": 62, "velocity": 98, "channel": 0}, {"type": "note_off", "time": 7198, "note": 62, "velocity": 98, "channel": 0}, {"type": "note_on", "time": 654, "note": 60, "velocity": 96, "channel": 0}, {"type": "note_off", "time": 2558, "note": 60, "velocity": 96, "channel": 0}, {"type": "note_on", "time": 3628, "note": 57, "velocity": 80, "channel": 0}, {"type": "note_off", "time": 951, "note": 57, "velocity": 80, "channel": 0}, {"type": "note_on", "time": 118, "note": 58, "velocity": 81, "channel": 0}, {"type": "note_off", "time": 832, "note": 58, "velocity": 81, "channel": 0}, {"type": "note_on", "time": 356, "note": 60, "velocity": 98, "channel": 0}, {"type": "note_off", "time": 3926, "note": 60, "velocity": 98, "channel": 0}, {"type": "note_on", "time": 59, "note": 58, "velocity": 90, "channel": 0}, {"type": "note_off", "time": 6127, "note": 58, "velocity": 90, "channel": 0}, {"type": "note_on", "time": 46223, "note": 75, "velocity": 112, "channel": 0}, {"type": "note_off", "time": 3033, "note": 75, "velocity": 112, "channel": 0}, {"type": "note_on", "time": 297, "note": 70, "velocity": 116, "channel": 0}, {"type": "note_off", "time": 1546, "note": 70, "velocity": 116, "channel": 0}, {"type": "note_on", "time": 0, "note": 71, "velocity": 124, "channel": 0}, {"type": "note_off", "time": 1546, "note": 71, "velocity": 124, "channel": 0}, {"type": "note_on", "time": 654, "note": 70, "velocity": 108, "channel": 0}, {"type": "note_off", "time": 713, "note": 70, "velocity": 108, "channel": 0}, {"type": "note_on", "time": 178, "note": 71, "velocity": 105, "channel": 0}, {"type": "note_off", "time": 3688, "note": 71, "velocity": 105, "channel": 0}, {"type": "note_on", "time": 475, "note": 68, "velocity": 110, "channel": 0}, {"type": "note_off", "time": 3331, "note": 68, "velocity": 110, "channel": 0}, {"type": "note_on", "time": 1784, "note": 70, "velocity": 116, "channel": 0}, {"type": "note_off", "time": 5413, "note": 70, "velocity": 116, "channel": 0}, {"type": "note_on", "time": 1070, "note": 70, "velocity": 112, "channel": 0}, {"type": "note_off", "time": 4640, "note": 70, "velocity": 112, "channel": 0}, {"type": "note_on", "time": 1011, "note": 70, "velocity": 105, "channel": 0}, {"type": "note_off", "time": 10351, "note": 70, "velocity": 105, "channel": 0}, {"type": "note_on", "time": 1011, "note": 68, "velocity": 108, "channel": 0}, {"type": "note_off", "time": 3033, "note": 68, "velocity": 108, "channel": 0}, {"type": "note_on", "time": 297, "note": 66, "velocity": 107, "channel": 0}, {"type": "note_off", "time": 2141, "note": 66, "velocity": 107, "channel": 0}, {"type": "note_on", "time": 59, "note": 67, "velocity": 109, "channel": 0}, {"type": "note_off", "time": 3450, "note": 67, "velocity": 109, "channel": 0}, {"type": "note_on", "time": 1427, "note": 70, "velocity": 109, "channel": 0}, {"type": "note_off", "time": 1963, "note": 70, "velocity": 109, "channel": 0}, {"type": "note_on", "time": 1011, "note": 60, "velocity": 98, "channel": 0}, {"type": "note_off", "time": 6662, "note": 60, "velocity": 98, "channel": 0}, {"type": "note_on", "time": 1844, "note": 63, "velocity": 111, "channel": 0}, {"type": "note_off", "time": 5889, "note": 63, "velocity": 111, "channel": 0}, {"type": "note_on", "time": 832, "note": 63, "velocity": 100, "channel": 0}, {"type": "note_off", "time": 11778, "note": 63, "velocity": 100, "channel": 0}, {"type": "note_on", "time": 13137, "note": 63, "velocity": 95, "channel": 0}, {"type": "note_off", "time": 1129, "note": 63, "velocity": 95, "channel": 0}, {"type": "note_on", "time": 627, "note": 63, "velocity": 118, "channel": 0}, {"type": "note_off", "time": 2593, "note": 63, "velocity": 118, "channel": 0}, {"type": "note_on", "time": 2133, "note": 67, "velocity": 108, "channel": 0}, {"type": "note_off", "time": 1045, "note": 67, "velocity": 108, "channel": 0}, {"type": "note_on", "time": 125, "note": 66, "velocity": 111, "channel": 0}, {"type": "note_off", "time": 878, "note": 66, "velocity": 111, "channel": 0}, {"type": "note_on", "time": 292, "note": 67, "velocity": 117, "channel": 0}, {"type": "note_off", "time": 2258, "note": 67, "velocity": 117, "channel": 0}, {"type": "note_on", "time": 501, "note": 70, "velocity": 113, "channel": 0}, {"type": "note_off", "time": 3931, "note": 70, "velocity": 113, "channel": 0}, {"type": "note_on", "time": 627, "note": 72, "velocity": 102, "channel": 0}, {"type": "note_off", "time": 4015, "note": 72, "velocity": 102, "channel": 0}, {"type": "note_on", "time": 585, "note": 71, "velocity": 112, "channel": 0}, {"type": "note_off", "time": 2007, "note": 71, "velocity": 112, "channel": 0}, {"type": "note_on", "time": 0, "note": 73, "velocity": 117, "channel": 0}, {"type": "note_off", "time": 6106, "note": 73, "velocity": 117, "channel": 0}, {"type": "note_on", "time": 292, "note": 70, "velocity": 106, "channel": 0}, {"type": "note_off", "time": 1463, "note": 70, "velocity": 106, "channel": 0}, {"type": "note_on", "time": 460, "note": 65, "velocity": 109, "channel": 0}, {"type": "note_off", "time": 1254, "note": 65, "velocity": 109, "channel": 0}, {"type": "note_on", "time": 878, "note": 64, "velocity": 117, "channel": 0}, {"type": "note_off", "time": 1003, "note": 64, "velocity": 117, "channel": 0}, {"type": "note_on", "time": 501, "note": 63, "velocity": 112, "channel": 0}, {"type": "note_off", "time": 2342, "note": 63, "velocity": 112, "channel": 0}, {"type": "note_on", "time": 3053, "note": 63, "velocity": 120, "channel": 0}, {"type": "note_off", "time": 16470, "note": 63, "velocity": 120, "channel": 0}, {"type": "note_on", "time": 93, "note": 61, "velocity": 106, "channel": 0}, {"type": "note_off", "time": 1296, "note": 61, "velocity": 106, "channel": 0}, {"type": "note_on", "time": 209, "note": 63, "velocity": 97, "channel": 0}, {"type": "note_off", "time": 752, "note": 63, "velocity": 97, "channel": 0}, {"type": "note_on", "time": 460, "note": 61, "velocity": 97, "channel": 0}, {"type": "note_off", "time": 1798, "note": 61, "velocity": 97, "channel": 0}, {"type": "note_on", "time": 1213, "note": 58, "velocity": 95, "channel": 0}, {"type": "note_off", "time": 4517, "note": 58, "velocity": 95, "channel": 0}, {"type": "note_on", "time": 920, "note": 56, "velocity": 96, "channel": 0}, {"type": "note_off", "time": 1924, "note": 56, "velocity": 96, "channel": 0}, {"type": "note_on", "time": 1087, "note": 58, "velocity": 104, "channel": 0}, {"type": "note_off", "time": 4350, "note": 58, "velocity": 104, "channel": 0}, {"type": "note_on", "time": 18530, "note": 61, "velocity": 109, "channel": 0}, {"type": "note_off", "time": 2133, "note": 61, "velocity": 109, "channel": 0}, {"type": "note_on", "time": 250, "note": 62, "velocity": 120, "channel": 0}, {"type": "note_off", "time": 3806, "note": 62, "velocity": 120, "channel": 0}, {"type": "note_on", "time": 0, "note": 65, "velocity": 111, "channel": 0}, {"type": "note_off", "time": 3220, "note": 65, "velocity": 111, "channel": 0}, {"type": "note_on", "time": 376, "note": 67, "velocity": 112, "channel": 0}, {"type": "note_off", "time": 4015, "note": 67, "velocity": 112, "channel": 0}, {"type": "note_on", "time": 382, "note": 65, "velocity": 88, "channel": 0}, {"type": "note_off", "time": 59307, "note": 65, "velocity": 88, "channel": 0}, {"type": "note_on", "time": 896, "note": 66, "velocity": 96, "channel": 0}, {"type": "note_off", "time": 1903, "note": 66, "velocity": 96, "channel": 0}, {"type": "note_on", "time": 713, "note": 67, "velocity": 95, "channel": 0}, {"type": "note_off", "time": 3688, "note": 67, "velocity": 95, "channel": 0}, {"type": "note_on", "time": 0, "note": 65, "velocity": 96, "channel": 0}, {"type": "note_off", "time": 4164, "note": 65, "velocity": 96, "channel": 0}, {"type": "note_on", "time": 513, "note": 63, "velocity": 98, "channel": 0}, {"type": "note_off", "time": 3931, "note": 63, "velocity": 98, "channel": 0}, {"type": "note_on", "time": 250, "note": 65, "velocity": 96, "channel": 0}, {"type": "note_off", "time": 2258, "note": 65, "velocity": 96, "channel": 0}, {"type": "note_on", "time": 418, "note": 62, "velocity": 79, "channel": 0}, {"type": "note_off", "time": 36474, "note": 62, "velocity": 79, "channel": 0}, {"type": "note_on", "time": 53624, "note": 58, "velocity": 91, "channel": 0}, {"type": "note_off", "time": 4559, "note": 58, "velocity": 91, "channel": 0}, {"type": "note_on", "time": 460, "note": 63, "velocity": 127, "channel": 0}, {"type": "note_off", "time": 2467, "note": 63, "velocity": 127, "channel": 0}, {"type": "note_on", "time": 41, "note": 64, "velocity": 113, "channel": 0}, {"type": "note_off", "time": 2133, "note": 64, "velocity": 113, "channel": 0}, {"type": "note_on", "time": 376, "note": 61, "velocity": 95, "channel": 0}, {"type": "note_off", "time": 3513, "note": 61, "velocity": 95, "channel": 0}, {"type": "note_on", "time": 543, "note": 63, "velocity": 122, "channel": 0}, {"type": "note_off", "time": 4559, "note": 63, "velocity": 122, "channel": 0}, {"type": "note_on", "time": 376, "note": 61, "velocity": 86, "channel": 0}, {"type": "note_off", "time": 4392, "note": 61, "velocity": 86, "channel": 0}, {"type": "note_on", "time": 0, "note": 56, "velocity": 95, "channel": 0}, {"type": "note_off", "time": 3178, "note": 56, "velocity": 95, "channel": 0}, {"type": "note_on", "time": 4779, "note": 58, "velocity": 100, "channel": 0}, {"type": "note_off", "time": 4878, "note": 58, "velocity": 100, "channel": 0}, {"type": "note_on", "time": 594, "note": 56, "velocity": 81, "channel": 0}, {"type": "note_off", "time": 10172, "note": 56, "velocity": 81, "channel": 0}, {"type": "note_on", "time": 20650, "note": 54, "velocity": 97, "channel": 0}, {"type": "note_off", "time": 1589, "note": 54, "velocity": 97, "channel": 0}, {"type": "note_on", "time": 250, "note": 55, "velocity": 98, "channel": 0}, {"type": "note_off", "time": 4099, "note": 55, "velocity": 98, "channel": 0}, {"type": "note_on", "time": 501, "note": 58, "velocity": 103, "channel": 0}, {"type": "note_off", "time": 4099, "note": 58, "velocity": 103, "channel": 0}, {"type": "note_on", "time": 669, "note": 60, "velocity": 105, "channel": 0}, {"type": "note_off", "time": 4601, "note": 60, "velocity": 105, "channel": 0}, {"type": "note_on", "time": 836, "note": 60, "velocity": 107, "channel": 0}, {"type": "note_off", "time": 2175, "note": 60, "velocity": 107, "channel": 0}, {"type": "note_on", "time": 83, "note": 61, "velocity": 106, "channel": 0}, {"type": "note_off", "time": 1924, "note": 61, "velocity": 106, "channel": 0}, {"type": "note_on", "time": 334, "note": 58, "velocity": 97, "channel": 0}, {"type": "note_off", "time": 5354, "note": 58, "velocity": 97, "channel": 0}, {"type": "note_on", "time": 1589, "note": 56, "velocity": 98, "channel": 0}, {"type": "note_off", "time": 3513, "note": 56, "velocity": 98, "channel": 0}, {"type": "note_on", "time": 1756, "note": 53, "velocity": 92, "channel": 0}, {"type": "note_off", "time": 5103, "note": 53, "velocity": 92, "channel": 0}, {"type": "note_on", "time": 1673, "note": 52, "velocity": 104, "channel": 0}, {"type": "note_off", "time": 5019, "note": 52, "velocity": 104, "channel": 0}, {"type": "note_on", "time": 1171, "note": 51, "velocity": 84, "channel": 0}, {"type": "note_off", "time": 18906, "note": 51, "velocity": 84, "channel": 0}, {"type": "note_on", "time": 7436, "note": 53, "velocity": 97, "channel": 0}, {"type": "note_off", "time": 4521, "note": 53, "velocity": 97, "channel": 0}, {"type": "note_on", "time": 1070, "note": 49, "velocity": 88, "channel": 0}, {"type": "note_off", "time": 5710, "note": 49, "velocity": 88, "channel": 0}, {"type": "note_on", "time": 594, "note": 50, "velocity": 82, "channel": 0}, {"type": "note_off", "time": 16300, "note": 50, "velocity": 82, "channel": 0}, {"type": "note_on", "time": 171091, "note": 72, "velocity": 112, "channel": 0}, {"type": "note_off", "time": 3569, "note": 72, "velocity": 112, "channel": 0}, {"type": "note_on", "time": 118, "note": 70, "velocity": 81, "channel": 0}, {"type": "note_off", "time": 2260, "note": 70, "velocity": 81, "channel": 0}, {"type": "note_on", "time": 0, "note": 72, "velocity": 119, "channel": 0}, {"type": "note_off", "time": 3569, "note": 72, "velocity": 119, "channel": 0}, {"type": "note_on", "time": 475, "note": 70, "velocity": 108, "channel": 0}, {"type": "note_off", "time": 3807, "note": 70, "velocity": 108, "channel": 0}, {"type": "note_on", "time": 475, "note": 68, "velocity": 113, "channel": 0}, {"type": "note_off", "time": 3688, "note": 68, "velocity": 113, "channel": 0}, {"type": "note_on", "time": 237, "note": 65, "velocity": 104, "channel": 0}, {"type": "note_off", "time": 3212, "note": 65, "velocity": 104, "channel": 0}, {"type": "note_on", "time": 408, "note": 68, "velocity": 116, "channel": 0}, {"type": "note_on", "time": 3874, "note": 65, "velocity": 100, "channel": 0}, {"type": "note_off", "time": 0, "note": 68, "velocity": 116, "channel": 0}, {"type": "note_off", "time": 4407, "note": 65, "velocity": 100, "channel": 0}, {"type": "note_on", "time": 0, "note": 63, "velocity": 105, "channel": 0}, {"type": "note_off", "time": 1171, "note": 63, "velocity": 105, "channel": 0}, {"type": "note_on", "time": 501, "note": 65, "velocity": 114, "channel": 0}, {"type": "note_on", "time": 1338, "note": 63, "velocity": 117, "channel": 0}, {"type": "note_off", "time": 0, "note": 65, "velocity": 114, "channel": 0}, {"type": "note_off", "time": 2426, "note": 63, "velocity": 117, "channel": 0}, {"type": "note_on", "time": 167, "note": 60, "velocity": 102, "channel": 0}, {"type": "note_off", "time": 3429, "note": 60, "velocity": 102, "channel": 0}, {"type": "note_on", "time": 334, "note": 63, "velocity": 120, "channel": 0}, {"type": "note_off", "time": 4099, "note": 63, "velocity": 120, "channel": 0}, {"type": "note_on", "time": 334, "note": 61, "velocity": 109, "channel": 0}, {"type": "note_on", "time": 1756, "note": 63, "velocity": 114, "channel": 0}, {"type": "note_off", "time": 0, "note": 61, "velocity": 109, "channel": 0}, {"type": "note_off", "time": 1338, "note": 63, "velocity": 114, "channel": 0}, {"type": "note_on", "time": 585, "note": 61, "velocity": 100, "channel": 0}, {"type": "note_off", "time": 2007, "note": 61, "velocity": 100, "channel": 0}, {"type": "note_on", "time": 0, "note": 58, "velocity": 96, "channel": 0}, {"type": "note_off", "time": 4517, "note": 58, "velocity": 96, "channel": 0}, {"type": "note_on", "time": 0, "note": 60, "velocity": 108, "channel": 0}, {"type": "note_off", "time": 1171, "note": 60, "velocity": 108, "channel": 0}, {"type": "note_on", "time": 0, "note": 62, "velocity": 101, "channel": 0}, {"type": "note_off", "time": 836, "note": 62, "velocity": 101, "channel": 0}, {"type": "note_on", "time": 501, "note": 61, "velocity": 100, "channel": 0}, {"type": "note_off", "time": 1338, "note": 61, "velocity": 100, "channel": 0}, {"type": "note_on", "time": 167, "note": 58, "velocity": 103, "channel": 0}, {"type": "note_off", "time": 3346, "note": 58, "velocity": 103, "channel": 0}, {"type": "note_on", "time": 585, "note": 56, "velocity": 100, "channel": 0}, {"type": "note_off", "time": 3011, "note": 56, "velocity": 100, "channel": 0}, {"type": "note_on", "time": 1171, "note": 53, "velocity": 100, "channel": 0}, {"type": "note_off", "time": 3848, "note": 53, "velocity": 100, "channel": 0}, {"type": "note_on", "time": 334, "note": 52, "velocity": 100, "channel": 0}, {"type": "note_off", "time": 4517, "note": 52, "velocity": 100, "channel": 0}, {"type": "note_on", "time": 418, "note": 53, "velocity": 96, "channel": 0}, {"type": "note_off", "time": 3262, "note": 53, "velocity": 96, "channel": 0}, {"type": "note_on", "time": 836, "note": 49, "velocity": 91, "channel": 0}, {"type": "note_off", "time": 2007, "note": 49, "velocity": 91, "channel": 0}, {"type": "note_on", "time": 418, "note": 50, "velocity": 89, "channel": 0}, {"type": "note_off", "time": 4182, "note": 50, "velocity": 89, "channel": 0}, {"type": "note_on", "time": 1422, "note": 46, "velocity": 87, "channel": 0}, {"type": "note_off", "time": 4684, "note": 46, "velocity": 87, "channel": 0}, {"type": "note_on", "time": 501, "note": 44, "velocity": 93, "channel": 0}, {"type": "note_off", "time": 6525, "note": 44, "velocity": 93, "channel": 0}, {"type": "note_on", "time": 0, "note": 51, "velocity": 92, "channel": 0}, {"type": "note_off", "time": 3931, "note": 51, "velocity": 92, "channel": 0}, {"type": "note_on", "time": 1254, "note": 60, "velocity": 89, "channel": 0}, {"type": "note_off", "time": 3680, "note": 60, "velocity": 89, "channel": 0}, {"type": "note_on", "time": 1003, "note": 55, "velocity": 88, "channel": 0}, {"type": "note_off", "time": 9118, "note": 55, "velocity": 88, "channel": 0}, {"type": "note_on", "time": 20746, "note": 44, "velocity": 98, "channel": 0}, {"type": "note_off", "time": 4099, "note": 44, "velocity": 98, "channel": 0}, {"type": "note_on", "time": 962, "note": 50, "velocity": 98, "channel": 0}, {"type": "note_off", "time": 2467, "note": 50, "velocity": 98, "channel": 0}, {"type": "note_on", "time": 962, "note": 53, "velocity": 100, "channel": 0}, {"type": "note_off", "time": 3346, "note": 53, "velocity": 100, "channel": 0}, {"type": "note_on", "time": 878, "note": 60, "velocity": 99, "channel": 0}, {"type": "note_off", "time": 3848, "note": 60, "velocity": 99, "channel": 0}, {"type": "note_on", "time": 250, "note": 55, "velocity": 93, "channel": 0}, {"type": "note_off", "time": 3053, "note": 55, "velocity": 93, "channel": 0}, {"type": "note_on", "time": 501, "note": 55, "velocity": 97, "channel": 0}, {"type": "note_off", "time": 962, "note": 55, "velocity": 97, "channel": 0}, {"type": "note_on", "time": 167, "note": 56, "velocity": 98, "channel": 0}, {"type": "note_off", "time": 3722, "note": 56, "velocity": 98, "channel": 0}, {"type": "note_on", "time": 501, "note": 60, "velocity": 105, "channel": 0}, {"type": "note_off", "time": 3471, "note": 60, "velocity": 105, "channel": 0}, {"type": "note_on", "time": 376, "note": 63, "velocity": 120, "channel": 0}, {"type": "note_off", "time": 3178, "note": 63, "velocity": 120, "channel": 0}, {"type": "note_on", "time": 292, "note": 65, "velocity": 116, "channel": 0}, {"type": "note_off", "time": 2593, "note": 65, "velocity": 116, "channel": 0}, {"type": "note_on", "time": 292, "note": 66, "velocity": 114, "channel": 0}, {"type": "note_off", "time": 1840, "note": 66, "velocity": 114, "channel": 0}, {"type": "note_on", "time": 125, "note": 67, "velocity": 117, "channel": 0}, {"type": "note_off", "time": 3429, "note": 67, "velocity": 117, "channel": 0}, {"type": "note_on", "time": 83, "note": 65, "velocity": 105, "channel": 0}, {"type": "note_off", "time": 836, "note": 65, "velocity": 105, "channel": 0}, {"type": "note_on", "time": 418, "note": 63, "velocity": 117, "channel": 0}, {"type": "note_off", "time": 1129, "note": 63, "velocity": 117, "channel": 0}, {"type": "note_on", "time": 376, "note": 62, "velocity": 115, "channel": 0}, {"type": "note_off", "time": 3555, "note": 62, "velocity": 115, "channel": 0}, {"type": "note_on", "time": 711, "note": 65, "velocity": 111, "channel": 0}, {"type": "note_off", "time": 3304, "note": 65, "velocity": 111, "channel": 0}, {"type": "note_on", "time": 1965, "note": 72, "velocity": 112, "channel": 0}, {"type": "note_off", "time": 2635, "note": 72, "velocity": 112, "channel": 0}, {"type": "note_on", "time": 1714, "note": 67, "velocity": 102, "channel": 0}, {"type": "note_off", "time": 2844, "note": 67, "velocity": 102, "channel": 0}, {"type": "note_on", "time": 334, "note": 70, "velocity": 106, "channel": 0}, {"type": "note_off", "time": 4726, "note": 70, "velocity": 106, "channel": 0}, {"type": "note_on", "time": 151, "note": 74, "velocity": 113, "channel": 0}, {"type": "note_off", "time": 2260, "note": 74, "velocity": 113, "channel": 0}, {"type": "note_on", "time": 118, "note": 75, "velocity": 107, "channel": 0}, {"type": "note_off", "time": 5532, "note": 75, "velocity": 107, "channel": 0}, {"type": "note_on", "time": 297, "note": 74, "velocity": 10, "channel": 0}, {"type": "note_off", "time": 8685, "note": 74, "velocity": 10, "channel": 0}, {"type": "note_on", "time": 6963, "note": 67, "velocity": 108, "channel": 0}, {"type": "note_off", "time": 1254, "note": 67, "velocity": 108, "channel": 0}, {"type": "note_on", "time": 334, "note": 67, "velocity": 111, "channel": 0}, {"type": "note_off", "time": 1087, "note": 67, "velocity": 111, "channel": 0}, {"type": "note_on", "time": 413, "note": 68, "velocity": 110, "channel": 0}, {"type": "note_off", "time": 2201, "note": 68, "velocity": 110, "channel": 0}, {"type": "note_on", "time": 313, "note": 70, "velocity": 107, "channel": 0}, {"type": "note_off", "time": 3806, "note": 70, "velocity": 107, "channel": 0}, {"type": "note_on", "time": 167, "note": 71, "velocity": 111, "channel": 0}, {"type": "note_off", "time": 3597, "note": 71, "velocity": 111, "channel": 0}, {"type": "note_on", "time": 83, "note": 74, "velocity": 97, "channel": 0}, {"type": "note_off", "time": 1924, "note": 74, "velocity": 97, "channel": 0}, {"type": "note_on", "time": 83, "note": 73, "velocity": 116, "channel": 0}, {"type": "note_off", "time": 1087, "note": 73, "velocity": 116, "channel": 0}, {"type": "note_on", "time": 250, "note": 74, "velocity": 103, "channel": 0}, {"type": "note_off", "time": 20161, "note": 74, "velocity": 103, "channel": 0}, {"type": "note_on", "time": 250, "note": 72, "velocity": 103, "channel": 0}, {"type": "note_off", "time": 1589, "note": 72, "velocity": 103, "channel": 0}, {"type": "note_on", "time": 292, "note": 71, "velocity": 105, "channel": 0}, {"type": "note_off", "time": 1338, "note": 71, "velocity": 105, "channel": 0}, {"type": "note_on", "time": 211, "note": 70, "velocity": 106, "channel": 0}, {"type": "note_off", "time": 951, "note": 70, "velocity": 106, "channel": 0}, {"type": "note_on", "time": 178, "note": 68, "velocity": 107, "channel": 0}, {"type": "note_off", "time": 1368, "note": 68, "velocity": 107, "channel": 0}, {"type": "note_on", "time": 385, "note": 67, "velocity": 103, "channel": 0}, {"type": "note_off", "time": 1924, "note": 67, "velocity": 103, "channel": 0}, {"type": "note_on", "time": 0, "note": 65, "velocity": 107, "channel": 0}, {"type": "note_off", "time": 1254, "note": 65, "velocity": 107, "channel": 0}, {"type": "note_on", "time": 460, "note": 64, "velocity": 114, "channel": 0}, {"type": "note_off", "time": 1296, "note": 64, "velocity": 114, "channel": 0}, {"type": "note_on", "time": 501, "note": 63, "velocity": 114, "channel": 0}, {"type": "note_off", "time": 1547, "note": 63, "velocity": 114, "channel": 0}, {"type": "note_on", "time": 460, "note": 62, "velocity": 109, "channel": 0}, {"type": "note_off", "time": 1171, "note": 62, "velocity": 109, "channel": 0}, {"type": "note_on", "time": 418, "note": 61, "velocity": 101, "channel": 0}, {"type": "note_off", "time": 1714, "note": 61, "velocity": 101, "channel": 0}, {"type": "note_on", "time": 376, "note": 58, "velocity": 96, "channel": 0}, {"type": "note_off", "time": 4433, "note": 58, "velocity": 96, "channel": 0}, {"type": "note_on", "time": 116, "note": 56, "velocity": 98, "channel": 0}, {"type": "note_off", "time": 1368, "note": 56, "velocity": 98, "channel": 0}, {"type": "note_on", "time": 146, "note": 58, "velocity": 98, "channel": 0}, {"type": "note_off", "time": 3639, "note": 58, "velocity": 98, "channel": 0}, {"type": "note_on", "time": 292, "note": 57, "velocity": 95, "channel": 0}, {"type": "note_off", "time": 2007, "note": 57, "velocity": 95, "channel": 0}, {"type": "note_on", "time": 460, "note": 53, "velocity": 96, "channel": 0}, {"type": "note_off", "time": 6734, "note": 53, "velocity": 96, "channel": 0}, {"type": "note_on", "time": 0, "note": 56, "velocity": 89, "channel": 0}, {"type": "note_off", "time": 3346, "note": 56, "velocity": 89, "channel": 0}, {"type": "note_on", "time": 1045, "note": 58, "velocity": 103, "channel": 0}, {"type": "note_off", "time": 2886, "note": 58, "velocity": 103, "channel": 0}, {"type": "note_on", "time": 794, "note": 56, "velocity": 100, "channel": 0}, {"type": "note_off", "time": 5019, "note": 56, "velocity": 100, "channel": 0}, {"type": "note_on", "time": 585, "note": 60, "velocity": 105, "channel": 0}, {"type": "note_off", "time": 2635, "note": 60, "velocity": 105, "channel": 0}, {"type": "note_on", "time": 1338, "note": 61, "velocity": 102, "channel": 0}, {"type": "note_off", "time": 3095, "note": 61, "velocity": 102, "channel": 0}, {"type": "note_on", "time": 836, "note": 63, "velocity": 116, "channel": 0}, {"type": "note_off", "time": 3262, "note": 63, "velocity": 116, "channel": 0}, {"type": "note_on", "time": 669, "note": 65, "velocity": 102, "channel": 0}, {"type": "note_off", "time": 4642, "note": 65, "velocity": 102, "channel": 0}, {"type": "note_on", "time": 3304, "note": 65, "velocity": 99, "channel": 0}, {"type": "note_off", "time": 15141, "note": 65, "velocity": 99, "channel": 0}, {"type": "note_on", "time": 292, "note": 63, "velocity": 107, "channel": 0}, {"type": "note_off", "time": 1129, "note": 63, "velocity": 107, "channel": 0}, {"type": "note_on", "time": 83, "note": 64, "velocity": 103, "channel": 0}, {"type": "note_off", "time": 878, "note": 64, "velocity": 103, "channel": 0}, {"type": "note_on", "time": 460, "note": 63, "velocity": 106, "channel": 0}, {"type": "note_off", "time": 1589, "note": 63, "velocity": 106, "channel": 0}, {"type": "note_on", "time": 376, "note": 61, "velocity": 100, "channel": 0}, {"type": "note_off", "time": 1798, "note": 61, "velocity": 100, "channel": 0}, {"type": "note_on", "time": 209, "note": 60, "velocity": 94, "channel": 0}, {"type": "note_off", "time": 2928, "note": 60, "velocity": 94, "channel": 0}, {"type": "note_on", "time": 0, "note": 63, "velocity": 108, "channel": 0}, {"type": "note_off", "time": 5437, "note": 63, "velocity": 108, "channel": 0}, {"type": "note_on", "time": 250, "note": 61, "velocity": 96, "channel": 0}, {"type": "note_off", "time": 3178, "note": 61, "velocity": 96, "channel": 0}, {"type": "note_on", "time": 627, "note": 58, "velocity": 86, "channel": 0}, {"type": "note_off", "time": 6399, "note": 58, "velocity": 86, "channel": 0}, {"type": "note_on", "time": 83, "note": 60, "velocity": 107, "channel": 0}, {"type": "note_on", "time": 1589, "note": 61, "velocity": 99, "channel": 0}, {"type": "note_off", "time": 0, "note": 60, "velocity": 107, "channel": 0}, {"type": "note_off", "time": 2927, "note": 61, "velocity": 99, "channel": 0}, {"type": "note_on", "time": 460, "note": 58, "velocity": 90, "channel": 0}, {"type": "note_off", "time": 11210, "note": 58, "velocity": 90, "channel": 0}, {"type": "note_on", "time": 19492, "note": 76, "velocity": 107, "channel": 0}, {"type": "note_on", "time": 1589, "note": 77, "velocity": 115, "channel": 0}, {"type": "note_off", "time": 0, "note": 76, "velocity": 107, "channel": 0}, {"type": "note_off", "time": 1422, "note": 77, "velocity": 115, "channel": 0}, {"type": "note_on", "time": 0, "note": 78, "velocity": 118, "channel": 0}, {"type": "note_off", "time": 836, "note": 78, "velocity": 118, "channel": 0}, {"type": "note_on", "time": 83, "note": 80, "velocity": 119, "channel": 0}, {"type": "note_off", "time": 5939, "note": 80, "velocity": 119, "channel": 0}, {"type": "note_on", "time": 6232, "note": 73, "velocity": 102, "channel": 0}, {"type": "note_off", "time": 878, "note": 73, "velocity": 102, "channel": 0}, {"type": "note_on", "time": 0, "note": 75, "velocity": 104, "channel": 0}, {"type": "note_off", "time": 376, "note": 75, "velocity": 104, "channel": 0}, {"type": "note_on", "time": 0, "note": 76, "velocity": 104, "channel": 0}, {"type": "note_off", "time": 334, "note": 76, "velocity": 104, "channel": 0}, {"type": "note_on", "time": 83, "note": 77, "velocity": 115, "channel": 0}, {"type": "note_off", "time": 3429, "note": 77, "velocity": 115, "channel": 0}, {"type": "note_on", "time": 250, "note": 76, "velocity": 101, "channel": 0}, {"type": "note_off", "time": 669, "note": 76, "velocity": 101, "channel": 0}, {"type": "note_on", "time": 125, "note": 75, "velocity": 79, "channel": 0}, {"type": "note_off", "time": 878, "note": 75, "velocity": 79, "channel": 0}, {"type": "note_on", "time": 3346, "note": 73, "velocity": 95, "channel": 0}, {"type": "note_off", "time": 1714, "note": 73, "velocity": 95, "channel": 0}, {"type": "note_on", "time": 0, "note": 75, "velocity": 102, "channel": 0}, {"type": "note_off", "time": 3597, "note": 75, "velocity": 102, "channel": 0}, {"type": "note_on", "time": 1840, "note": 71, "velocity": 106, "channel": 0}, {"type": "note_off", "time": 1547, "note": 71, "velocity": 106, "channel": 0}, {"type": "note_on", "time": 83, "note": 73, "velocity": 98, "channel": 0}, {"type": "note_off", "time": 2928, "note": 73, "velocity": 98, "channel": 0}, {"type": "note_on", "time": 1924, "note": 70, "velocity": 100, "channel": 0}, {"type": "note_off", "time": 2677, "note": 70, "velocity": 100, "channel": 0}, {"type": "note_on", "time": 209, "note": 69, "velocity": 104, "channel": 0}, {"type": "note_off", "time": 376, "note": 69, "velocity": 104, "channel": 0}, {"type": "note_on", "time": 250, "note": 68, "velocity": 98, "channel": 0}, {"type": "note_off", "time": 794, "note": 68, "velocity": 98, "channel": 0}, {"type": "note_on", "time": 20203, "note": 61, "velocity": 101, "channel": 0}, {"type": "note_off", "time": 1756, "note": 61, "velocity": 101, "channel": 0}, {"type": "note_on", "time": 0, "note": 62, "velocity": 121, "channel": 0}, {"type": "note_off", "time": 2760, "note": 62, "velocity": 121, "channel": 0}, {"type": "note_on", "time": 334, "note": 65, "velocity": 115, "channel": 0}, {"type": "note_off", "time": 2551, "note": 65, "velocity": 115, "channel": 0}, {"type": "note_on", "time": 543, "note": 67, "velocity": 112, "channel": 0}, {"type": "note_off", "time": 2802, "note": 67, "velocity": 112, "channel": 0}, {"type": "note_on", "time": 0, "note": 70, "velocity": 85, "channel": 0}, {"type": "note_off", "time": 1338, "note": 70, "velocity": 85, "channel": 0}, {"type": "note_on", "time": 1463, "note": 67, "velocity": 95, "channel": 0}, {"type": "note_off", "time": 1296, "note": 67, "velocity": 95, "channel": 0}, {"type": "note_on", "time": 167, "note": 70, "velocity": 109, "channel": 0}, {"type": "note_off", "time": 2300, "note": 70, "velocity": 109, "channel": 0}, {"type": "note_on", "time": 1380, "note": 74, "velocity": 102, "channel": 0}, {"type": "note_off", "time": 3220, "note": 74, "velocity": 102, "channel": 0}, {"type": "note_on", "time": 2007, "note": 67, "velocity": 110, "channel": 0}, {"type": "note_off", "time": 3722, "note": 67, "velocity": 110, "channel": 0}, {"type": "note_on", "time": 418, "note": 72, "velocity": 117, "channel": 0}, {"type": "note_off", "time": 2551, "note": 72, "velocity": 117, "channel": 0}, {"type": "note_on", "time": 585, "note": 72, "velocity": 101, "channel": 0}, {"type": "note_off", "time": 3178, "note": 72, "velocity": 101, "channel": 0}, {"type": "note_on", "time": 418, "note": 70, "velocity": 109, "channel": 0}, {"type": "note_off", "time": 3053, "note": 70, "velocity": 109, "channel": 0}, {"type": "note_on", "time": 167, "note": 68, "velocity": 110, "channel": 0}, {"type": "note_off", "time": 2886, "note": 68, "velocity": 110, "channel": 0}, {"type": "note_on", "time": 125, "note": 63, "velocity": 107, "channel": 0}, {"type": "note_off", "time": 1045, "note": 63, "velocity": 107, "channel": 0}, {"type": "note_on", "time": 83, "note": 60, "velocity": 109, "channel": 0}, {"type": "note_off", "time": 2551, "note": 60, "velocity": 109, "channel": 0}, {"type": "note_on", "time": 418, "note": 63, "velocity": 99, "channel": 0}, {"type": "note_off", "time": 2718, "note": 63, "velocity": 99, "channel": 0}, {"type": "note_on", "time": 669, "note": 67, "velocity": 109, "channel": 0}, {"type": "note_off", "time": 3137, "note": 67, "velocity": 109, "channel": 0}, {"type": "note_on", "time": 501, "note": 65, "velocity": 108, "channel": 0}, {"type": "note_off", "time": 3931, "note": 65, "velocity": 108, "channel": 0}, {"type": "note_on", "time": 125, "note": 63, "velocity": 90, "channel": 0}, {"type": "note_off", "time": 11126, "note": 63, "velocity": 90, "channel": 0}, {"type": "note_on", "time": 9202, "note": 61, "velocity": 94, "channel": 0}, {"type": "note_off", "time": 1673, "note": 61, "velocity": 94, "channel": 0}, {"type": "note_on", "time": 543, "note": 63, "velocity": 114, "channel": 0}, {"type": "note_off", "time": 2175, "note": 63, "velocity": 114, "channel": 0}, {"type": "note_on", "time": 41, "note": 67, "velocity": 115, "channel": 0}, {"type": "note_off", "time": 2677, "note": 67, "velocity": 115, "channel": 0}, {"type": "note_on", "time": 334, "note": 71, "velocity": 108, "channel": 0}, {"type": "note_off", "time": 1422, "note": 71, "velocity": 108, "channel": 0}, {"type": "note_on", "time": 41, "note": 75, "velocity": 108, "channel": 0}, {"type": "note_off", "time": 24762, "note": 75, "velocity": 108, "channel": 0}, {"type": "note_on", "time": 501, "note": 74, "velocity": 87, "channel": 0}, {"type": "note_off", "time": 5437, "note": 74, "velocity": 87, "channel": 0}, {"type": "note_on", "time": 6776, "note": 74, "velocity": 111, "channel": 0}, {"type": "note_off", "time": 1965, "note": 74, "velocity": 111, "channel": 0}, {"type": "note_on", "time": 292, "note": 75, "velocity": 112, "channel": 0}, {"type": "note_off", "time": 2133, "note": 75, "velocity": 112, "channel": 0}, {"type": "note_on", "time": 585, "note": 76, "velocity": 113, "channel": 0}, {"type": "note_off", "time": 836, "note": 76, "velocity": 113, "channel": 0}, {"type": "note_on", "time": 0, "note": 77, "velocity": 103, "channel": 0}, {"type": "note_off", "time": 2802, "note": 77, "velocity": 103, "channel": 0}, {"type": "note_on", "time": 2718, "note": 67, "velocity": 94, "channel": 0}, {"type": "note_off", "time": 2802, "note": 67, "velocity": 94, "channel": 0}, {"type": "note_on", "time": 292, "note": 75, "velocity": 96, "channel": 0}, {"type": "note_off", "time": 3137, "note": 75, "velocity": 96, "channel": 0}, {"type": "note_on", "time": 1882, "note": 63, "velocity": 91, "channel": 0}, {"type": "note_off", "time": 1505, "note": 63, "velocity": 91, "channel": 0}, {"type": "note_on", "time": 0, "note": 66, "velocity": 86, "channel": 0}, {"type": "note_off", "time": 878, "note": 66, "velocity": 86, "channel": 0}, {"type": "note_on", "time": 83, "note": 70, "velocity": 89, "channel": 0}, {"type": "note_off", "time": 1045, "note": 70, "velocity": 89, "channel": 0}, {"type": "note_on", "time": 83, "note": 71, "velocity": 104, "channel": 0}, {"type": "note_off", "time": 6065, "note": 71, "velocity": 104, "channel": 0}, {"type": "note_on", "time": 5395, "note": 67, "velocity": 94, "channel": 0}, {"type": "note_off", "time": 1547, "note": 67, "velocity": 94, "channel": 0}, {"type": "note_on", "time": 41, "note": 68, "velocity": 95, "channel": 0}, {"type": "note_off", "time": 1087, "note": 68, "velocity": 95, "channel": 0}, {"type": "note_on", "time": 501, "note": 71, "velocity": 100, "channel": 0}, {"type": "note_off", "time": 1003, "note": 71, "velocity": 100, "channel": 0}, {"type": "note_on", "time": 669, "note": 74, "velocity": 100, "channel": 0}, {"type": "note_off", "time": 1338, "note": 74, "velocity": 100, "channel": 0}, {"type": "note_on", "time": 292, "note": 72, "velocity": 106, "channel": 0}, {"type": "note_off", "time": 1338, "note": 72, "velocity": 106, "channel": 0}, {"type": "note_on", "time": 460, "note": 71, "velocity": 103, "channel": 0}, {"type": "note_off", "time": 1965, "note": 71, "velocity": 103, "channel": 0}, {"type": "note_on", "time": 41, "note": 68, "velocity": 99, "channel": 0}, {"type": "note_off", "time": 1924, "note": 68, "velocity": 99, "channel": 0}, {"type": "note_on", "time": 41, "note": 67, "velocity": 100, "channel": 0}, {"type": "note_off", "time": 1882, "note": 67, "velocity": 100, "channel": 0}, {"type": "note_on", "time": 250, "note": 66, "velocity": 101, "channel": 0}, {"type": "note_off", "time": 1171, "note": 66, "velocity": 101, "channel": 0}, {"type": "note_on", "time": 0, "note": 64, "velocity": 108, "channel": 0}, {"type": "note_off", "time": 1882, "note": 64, "velocity": 108, "channel": 0}, {"type": "note_on", "time": 460, "note": 63, "velocity": 107, "channel": 0}, {"type": "note_off", "time": 1589, "note": 63, "velocity": 107, "channel": 0}, {"type": "note_on", "time": 543, "note": 62, "velocity": 103, "channel": 0}, {"type": "note_on", "time": 1505, "note": 60, "velocity": 98, "channel": 0}, {"type": "note_off", "time": 0, "note": 62, "velocity": 103, "channel": 0}, {"type": "note_off", "time": 2593, "note": 60, "velocity": 98, "channel": 0}, {"type": "note_on", "time": 3137, "note": 62, "velocity": 110, "channel": 0}, {"type": "note_off", "time": 4266, "note": 62, "velocity": 110, "channel": 0}, {"type": "note_on", "time": 83, "note": 65, "velocity": 98, "channel": 0}, {"type": "note_off", "time": 4057, "note": 65, "velocity": 98, "channel": 0}, {"type": "note_on", "time": 794, "note": 62, "velocity": 106, "channel": 0}, {"type": "note_off", "time": 1380, "note": 62, "velocity": 106, "channel": 0}, {"type": "note_on", "time": 209, "note": 63, "velocity": 100, "channel": 0}, {"type": "note_off", "time": 1254, "note": 63, "velocity": 100, "channel": 0}, {"type": "note_on", "time": 460, "note": 62, "velocity": 98, "channel": 0}, {"type": "note_off", "time": 1965, "note": 62, "velocity": 98, "channel": 0}, {"type": "note_on", "time": 4057, "note": 60, "velocity": 103, "channel": 0}, {"type": "note_off", "time": 2844, "note": 60, "velocity": 103, "channel": 0}, {"type": "note_on", "time": 376, "note": 62, "velocity": 100, "channel": 0}, {"type": "note_off", "time": 4015, "note": 62, "velocity": 100, "channel": 0}, {"type": "note_on", "time": 125, "note": 58, "velocity": 100, "channel": 0}, {"type": "note_off", "time": 3346, "note": 58, "velocity": 100, "channel": 0}, {"type": "note_on", "time": 167, "note": 55, "velocity": 102, "channel": 0}, {"type": "note_off", "time": 3597, "note": 55, "velocity": 102, "channel": 0}, {"type": "note_on", "time": 1547, "note": 56, "velocity": 102, "channel": 0}, {"type": "note_off", "time": 2258, "note": 56, "velocity": 102, "channel": 0}, {"type": "note_on", "time": 41, "note": 58, "velocity": 100, "channel": 0}, {"type": "note_off", "time": 4350, "note": 58, "velocity": 100, "channel": 0}, {"type": "note_on", "time": 41, "note": 55, "velocity": 93, "channel": 0}, {"type": "note_off", "time": 1003, "note": 55, "velocity": 93, "channel": 0}, {"type": "note_on", "time": 0, "note": 58, "velocity": 87, "channel": 0}, {"type": "note_off", "time": 3429, "note": 58, "velocity": 87, "channel": 0}, {"type": "note_on", "time": 0, "note": 51, "velocity": 94, "channel": 0}, {"type": "note_off", "time": 4726, "note": 51, "velocity": 94, "channel": 0}, {"type": "note_on", "time": 334, "note": 53, "velocity": 97, "channel": 0}, {"type": "note_off", "time": 3137, "note": 53, "velocity": 97, "channel": 0}, {"type": "note_on", "time": 418, "note": 54, "velocity": 95, "channel": 0}, {"type": "note_off", "time": 1296, "note": 54, "velocity": 95, "channel": 0}, {"type": "note_on", "time": 167, "note": 55, "velocity": 91, "channel": 0}, {"type": "note_off", "time": 3304, "note": 55, "velocity": 91, "channel": 0}, {"type": "note_on", "time": 2384, "note": 50, "velocity": 95, "channel": 0}, {"type": "note_off", "time": 3931, "note": 50, "velocity": 95, "channel": 0}, {"type": "note_on", "time": 1797, "note": 53, "velocity": 83, "channel": 0}, {"type": "note_off", "time": 18203, "note": 53, "velocity": 83, "channel": 0}, {"type": "note_on", "time": 6517, "note": 53, "velocity": 108, "channel": 0}, {"type": "note_off", "time": 3513, "note": 53, "velocity": 108, "channel": 0}, {"type": "note_on", "time": 418, "note": 56, "velocity": 107, "channel": 0}, {"type": "note_off", "time": 2677, "note": 56, "velocity": 107, "channel": 0}, {"type": "note_on", "time": 836, "note": 58, "velocity": 107, "channel": 0}, {"type": "note_off", "time": 3262, "note": 58, "velocity": 107, "channel": 0}, {"type": "note_on", "time": 167, "note": 60, "velocity": 106, "channel": 0}, {"type": "note_off", "time": 3680, "note": 60, "velocity": 106, "channel": 0}, {"type": "note_on", "time": 83, "note": 63, "velocity": 120, "channel": 0}, {"type": "note_off", "time": 4015, "note": 63, "velocity": 120, "channel": 0}, {"type": "note_on", "time": 669, "note": 65, "velocity": 110, "channel": 0}, {"type": "note_off", "time": 4433, "note": 65, "velocity": 110, "channel": 0}, {"type": "note_on", "time": 539, "note": 66, "velocity": 107, "channel": 0}, {"type": "note_off", "time": 773, "note": 66, "velocity": 107, "channel": 0}, {"type": "note_on", "time": 237, "note": 67, "velocity": 112, "channel": 0}, {"type": "note_off", "time": 3271, "note": 67, "velocity": 112, "channel": 0}, {"type": "note_on", "time": 59, "note": 63, "velocity": 106, "channel": 0}, {"type": "note_off", "time": 1784, "note": 63, "velocity": 106, "channel": 0}, {"type": "note_on", "time": 237, "note": 60, "velocity": 101, "channel": 0}, {"type": "note_off", "time": 3688, "note": 60, "velocity": 101, "channel": 0}, {"type": "note_on", "time": 1963, "note": 67, "velocity": 101, "channel": 0}, {"type": "note_off", "time": 2796, "note": 67, "velocity": 101, "channel": 0}, {"type": "note_on", "time": 713, "note": 62, "velocity": 110, "channel": 0}, {"type": "note_off", "time": 2439, "note": 62, "velocity": 110, "channel": 0}, {"type": "note_on", "time": 1903, "note": 65, "velocity": 107, "channel": 0}, {"type": "note_off", "time": 2439, "note": 65, "velocity": 107, "channel": 0}, {"type": "note_on", "time": 297, "note": 61, "velocity": 100, "channel": 0}, {"type": "note_off", "time": 2320, "note": 61, "velocity": 100, "channel": 0}, {"type": "note_on", "time": 1844, "note": 65, "velocity": 102, "channel": 0}, {"type": "note_off", "time": 2736, "note": 65, "velocity": 102, "channel": 0}, {"type": "note_on", "time": 1130, "note": 60, "velocity": 101, "channel": 0}, {"type": "note_off", "time": 2201, "note": 60, "velocity": 101, "channel": 0}, {"type": "note_on", "time": 951, "note": 64, "velocity": 101, "channel": 0}, {"type": "note_off", "time": 2974, "note": 64, "velocity": 101, "channel": 0}, {"type": "note_on", "time": 1844, "note": 58, "velocity": 94, "channel": 0}, {"type": "note_off", "time": 2498, "note": 58, "velocity": 94, "channel": 0}, {"type": "note_on", "time": 297, "note": 63, "velocity": 99, "channel": 0}, {"type": "note_off", "time": 2558, "note": 63, "velocity": 99, "channel": 0}, {"type": "note_on", "time": 1189, "note": 58, "velocity": 92, "channel": 0}, {"type": "note_off", "time": 2439, "note": 58, "velocity": 92, "channel": 0}, {"type": "note_on", "time": 0, "note": 62, "velocity": 105, "channel": 0}, {"type": "note_off", "time": 2260, "note": 62, "velocity": 105, "channel": 0}, {"type": "note_on", "time": 297, "note": 58, "velocity": 86, "channel": 0}, {"type": "note_off", "time": 2141, "note": 58, "velocity": 86, "channel": 0}, {"type": "note_on", "time": 892, "note": 61, "velocity": 96, "channel": 0}, {"type": "note_off", "time": 2974, "note": 61, "velocity": 96, "channel": 0}, {"type": "note_on", "time": 1427, "note": 58, "velocity": 86, "channel": 0}, {"type": "note_off", "time": 1070, "note": 58, "velocity": 86, "channel": 0}, {"type": "note_on", "time": 0, "note": 59, "velocity": 88, "channel": 0}, {"type": "note_off", "time": 4818, "note": 59, "velocity": 88, "channel": 0}, {"type": "note_on", "time": 594, "note": 58, "velocity": 97, "channel": 0}, {"type": "note_off", "time": 3450, "note": 58, "velocity": 97, "channel": 0}, {"type": "note_on", "time": 915, "note": 53, "velocity": 92, "channel": 0}, {"type": "note_off", "time": 1631, "note": 53, "velocity": 92, "channel": 0}, {"type": "note_on", "time": 543, "note": 57, "velocity": 94, "channel": 0}, {"type": "note_off", "time": 1673, "note": 57, "velocity": 94, "channel": 0}, {"type": "note_on", "time": 585, "note": 54, "velocity": 90, "channel": 0}, {"type": "note_off", "time": 2718, "note": 54, "velocity": 90, "channel": 0}, {"type": "note_on", "time": 292, "note": 56, "velocity": 89, "channel": 0}, {"type": "note_off", "time": 2509, "note": 56, "velocity": 89, "channel": 0}, {"type": "note_on", "time": 836, "note": 55, "velocity": 88, "channel": 0}, {"type": "note_off", "time": 5354, "note": 55, "velocity": 88, "channel": 0}, {"type": "note_on", "time": 2049, "note": 53, "velocity": 103, "channel": 0}, {"type": "note_off", "time": 752, "note": 53, "velocity": 103, "channel": 0}, {"type": "note_on", "time": 0, "note": 54, "velocity": 95, "channel": 0}, {"type": "note_off", "time": 2133, "note": 54, "velocity": 95, "channel": 0}, {"type": "note_on", "time": 962, "note": 51, "velocity": 90, "channel": 0}, {"type": "note_off", "time": 1505, "note": 51, "velocity": 90, "channel": 0}, {"type": "note_on", "time": 292, "note": 53, "velocity": 95, "channel": 0}, {"type": "note_off", "time": 1798, "note": 53, "velocity": 95, "channel": 0}, {"type": "note_on", "time": 1254, "note": 51, "velocity": 87, "channel": 0}, {"type": "note_off", "time": 2049, "note": 51, "velocity": 87, "channel": 0}, {"type": "note_on", "time": 418, "note": 52, "velocity": 90, "channel": 0}, {"type": "note_off", "time": 6692, "note": 52, "velocity": 90, "channel": 0}, {"type": "note_on", "time": 543, "note": 50, "velocity": 90, "channel": 0}, {"type": "note_off", "time": 1422, "note": 50, "velocity": 90, "channel": 0}, {"type": "note_on", "time": 836, "note": 49, "velocity": 93, "channel": 0}, {"type": "note_off", "time": 3513, "note": 49, "velocity": 93, "channel": 0}, {"type": "note_on", "time": 4057, "note": 48, "velocity": 91, "channel": 0}, {"type": "note_off", "time": 1464, "note": 48, "velocity": 91, "channel": 0}, {"type": "note_on", "time": 376, "note": 50, "velocity": 92, "channel": 0}, {"type": "note_off", "time": 1254, "note": 50, "velocity": 92, "channel": 0}, {"type": "note_on", "time": 125, "note": 51, "velocity": 95, "channel": 0}, {"type": "note_off", "time": 962, "note": 51, "velocity": 95, "channel": 0}, {"type": "note_on", "time": 125, "note": 53, "velocity": 97, "channel": 0}, {"type": "note_off", "time": 1380, "note": 53, "velocity": 97, "channel": 0}, {"type": "note_on", "time": 627, "note": 50, "velocity": 98, "channel": 0}, {"type": "note_off", "time": 1087, "note": 50, "velocity": 98, "channel": 0}, {"type": "note_on", "time": 250, "note": 51, "velocity": 96, "channel": 0}, {"type": "note_off", "time": 1882, "note": 51, "velocity": 96, "channel": 0}, {"type": "note_on", "time": 334, "note": 52, "velocity": 91, "channel": 0}, {"type": "note_off", "time": 836, "note": 52, "velocity": 91, "channel": 0}, {"type": "note_on", "time": 125, "note": 54, "velocity": 95, "channel": 0}, {"type": "note_off", "time": 794, "note": 54, "velocity": 95, "channel": 0}, {"type": "note_on", "time": 83, "note": 55, "velocity": 92, "channel": 0}, {"type": "note_off", "time": 920, "note": 55, "velocity": 92, "channel": 0}, {"type": "note_on", "time": 167, "note": 53, "velocity": 92, "channel": 0}, {"type": "note_off", "time": 2091, "note": 53, "velocity": 92, "channel": 0}, {"type": "note_on", "time": 250, "note": 56, "velocity": 94, "channel": 0}, {"type": "note_off", "time": 2509, "note": 56, "velocity": 94, "channel": 0}, {"type": "note_on", "time": 209, "note": 58, "velocity": 104, "channel": 0}, {"type": "note_off", "time": 2677, "note": 58, "velocity": 104, "channel": 0}, {"type": "note_on", "time": 0, "note": 60, "velocity": 109, "channel": 0}, {"type": "note_on", "time": 501, "note": 61, "velocity": 107, "channel": 0}, {"type": "note_off", "time": 0, "note": 60, "velocity": 109, "channel": 0}, {"type": "note_off", "time": 2175, "note": 61, "velocity": 107, "channel": 0}, {"type": "note_on", "time": 543, "note": 63, "velocity": 113, "channel": 0}, {"type": "note_off", "time": 2384, "note": 63, "velocity": 113, "channel": 0}, {"type": "note_on", "time": 376, "note": 65, "velocity": 111, "channel": 0}, {"type": "note_off", "time": 2426, "note": 65, "velocity": 111, "channel": 0}, {"type": "note_on", "time": 292, "note": 61, "velocity": 108, "channel": 0}, {"type": "note_off", "time": 1631, "note": 61, "velocity": 108, "channel": 0}, {"type": "note_on", "time": 334, "note": 60, "velocity": 105, "channel": 0}, {"type": "note_off", "time": 1924, "note": 60, "velocity": 105, "channel": 0}, {"type": "note_on", "time": 134, "note": 58, "velocity": 101, "channel": 0}, {"type": "note_off", "time": 1784, "note": 58, "velocity": 101, "channel": 0}, {"type": "note_on", "time": 548, "note": 63, "velocity": 115, "channel": 0}, {"type": "note_off", "time": 2551, "note": 63, "velocity": 115, "channel": 0}, {"type": "note_on", "time": 250, "note": 62, "velocity": 110, "channel": 0}, {"type": "note_off", "time": 2384, "note": 62, "velocity": 110, "channel": 0}, {"type": "note_on", "time": 2216, "note": 68, "velocity": 105, "channel": 0}, {"type": "note_off", "time": 2635, "note": 68, "velocity": 105, "channel": 0}, {"type": "note_on", "time": 752, "note": 70, "velocity": 107, "channel": 0}, {"type": "note_off", "time": 2802, "note": 70, "velocity": 107, "channel": 0}, {"type": "note_on", "time": 543, "note": 72, "velocity": 108, "channel": 0}, {"type": "note_off", "time": 1924, "note": 72, "velocity": 108, "channel": 0}, {"type": "note_on", "time": 2091, "note": 68, "velocity": 103, "channel": 0}, {"type": "note_off", "time": 2133, "note": 68, "velocity": 103, "channel": 0}, {"type": "note_on", "time": 627, "note": 71, "velocity": 107, "channel": 0}, {"type": "note_off", "time": 2635, "note": 71, "velocity": 107, "channel": 0}, {"type": "note_on", "time": 794, "note": 65, "velocity": 100, "channel": 0}, {"type": "note_off", "time": 2258, "note": 65, "velocity": 100, "channel": 0}, {"type": "note_on", "time": 334, "note": 64, "velocity": 101, "channel": 0}, {"type": "note_off", "time": 2760, "note": 64, "velocity": 101, "channel": 0}, {"type": "note_on", "time": 167, "note": 63, "velocity": 95, "channel": 0}, {"type": "note_off", "time": 2928, "note": 63, "velocity": 95, "channel": 0}, {"type": "note_on", "time": 2300, "note": 67, "velocity": 99, "channel": 0}, {"type": "note_off", "time": 2467, "note": 67, "velocity": 99, "channel": 0}, {"type": "note_on", "time": 1003, "note": 65, "velocity": 93, "channel": 0}, {"type": "note_off", "time": 6023, "note": 65, "velocity": 93, "channel": 0}, {"type": "note_on", "time": 17986, "note": 65, "velocity": 104, "channel": 0}, {"type": "note_off", "time": 3639, "note": 65, "velocity": 104, "channel": 0}, {"type": "note_on", "time": 292, "note": 68, "velocity": 106, "channel": 0}, {"type": "note_off", "time": 4266, "note": 68, "velocity": 106, "channel": 0}, {"type": "note_on", "time": 711, "note": 70, "velocity": 114, "channel": 0}, {"type": "note_off", "time": 3764, "note": 70, "velocity": 114, "channel": 0}, {"type": "note_on", "time": 4036, "note": 70, "velocity": 98, "channel": 0}, {"type": "note_off", "time": 49019, "note": 70, "velocity": 98, "channel": 0}, {"type": "note_on", "time": 12238, "note": 65, "velocity": 117, "channel": 0}, {"type": "note_off", "time": 4015, "note": 65, "velocity": 117, "channel": 0}, {"type": "note_on", "time": 167, "note": 68, "velocity": 117, "channel": 0}, {"type": "note_off", "time": 4350, "note": 68, "velocity": 117, "channel": 0}, {"type": "note_on", "time": 669, "note": 70, "velocity": 117, "channel": 0}, {"type": "note_off", "time": 3178, "note": 70, "velocity": 117, "channel": 0}, {"type": "note_on", "time": 1422, "note": 70, "velocity": 112, "channel": 0}, {"type": "note_off", "time": 1422, "note": 70, "velocity": 112, "channel": 0}, {"type": "note_on", "time": 0, "note": 71, "velocity": 112, "channel": 0}, {"type": "note_off", "time": 3178, "note": 71, "velocity": 112, "channel": 0}, {"type": "note_on", "time": 167, "note": 75, "velocity": 107, "channel": 0}, {"type": "note_off", "time": 4182, "note": 75, "velocity": 107, "channel": 0}, {"type": "note_on", "time": 250, "note": 70, "velocity": 101, "channel": 0}, {"type": "note_off", "time": 1673, "note": 70, "velocity": 101, "channel": 0}, {"type": "note_on", "time": 0, "note": 71, "velocity": 113, "channel": 0}, {"type": "note_off", "time": 1254, "note": 71, "velocity": 113, "channel": 0}, {"type": "note_on", "time": 334, "note": 70, "velocity": 103, "channel": 0}, {"type": "note_off", "time": 752, "note": 70, "velocity": 103, "channel": 0}, {"type": "note_on", "time": 334, "note": 71, "velocity": 111, "channel": 0}, {"type": "note_off", "time": 1505, "note": 71, "velocity": 111, "channel": 0}, {"type": "note_on", "time": 585, "note": 68, "velocity": 108, "channel": 0}, {"type": "note_off", "time": 3597, "note": 68, "velocity": 108, "channel": 0}, {"type": "note_on", "time": 1589, "note": 70, "velocity": 103, "channel": 0}, {"type": "note_off", "time": 2593, "note": 70, "velocity": 103, "channel": 0}, {"type": "note_on", "time": 585, "note": 68, "velocity": 101, "channel": 0}, {"type": "note_off", "time": 2635, "note": 68, "velocity": 101, "channel": 0}, {"type": "note_on", "time": 2103, "note": 63, "velocity": 104, "channel": 0}, {"type": "note_off", "time": 1070, "note": 63, "velocity": 104, "channel": 0}, {"type": "note_on", "time": 339, "note": 65, "velocity": 105, "channel": 0}, {"type": "note_off", "time": 2007, "note": 65, "velocity": 105, "channel": 0}, {"type": "note_on", "time": 167, "note": 63, "velocity": 102, "channel": 0}, {"type": "note_off", "time": 1464, "note": 63, "velocity": 102, "channel": 0}, {"type": "note_on", "time": 2635, "note": 61, "velocity": 101, "channel": 0}, {"type": "note_off", "time": 1422, "note": 61, "velocity": 101, "channel": 0}, {"type": "note_on", "time": 250, "note": 63, "velocity": 114, "channel": 0}, {"type": "note_off", "time": 2509, "note": 63, "velocity": 114, "channel": 0}, {"type": "note_on", "time": 292, "note": 61, "velocity": 103, "channel": 0}, {"type": "note_off", "time": 3053, "note": 61, "velocity": 103, "channel": 0}, {"type": "note_on", "time": 23276, "note": 44, "velocity": 120, "channel": 0}, {"type": "note_off", "time": 4342, "note": 44, "velocity": 120, "channel": 0}, {"type": "note_on", "time": 0, "note": 58, "velocity": 111, "channel": 0}, {"type": "note_off", "time": 2379, "note": 58, "velocity": 111, "channel": 0}, {"type": "note_on", "time": 178, "note": 59, "velocity": 114, "channel": 0}, {"type": "note_off", "time": 773, "note": 59, "velocity": 114, "channel": 0}, {"type": "note_on", "time": 356, "note": 60, "velocity": 106, "channel": 0}, {"type": "note_off", "time": 19036, "note": 60, "velocity": 106, "channel": 0}, {"type": "note_on", "time": 832, "note": 44, "velocity": 122, "channel": 0}, {"type": "note_off", "time": 3033, "note": 44, "velocity": 122, "channel": 0}, {"type": "note_on", "time": 535, "note": 56, "velocity": 111, "channel": 0}, {"type": "note_off", "time": 5710, "note": 56, "velocity": 111, "channel": 0}, {"type": "note_on", "time": 713, "note": 58, "velocity": 104, "channel": 0}, {"type": "note_off", "time": 3212, "note": 58, "velocity": 104, "channel": 0}, {"type": "note_on", "time": 356, "note": 56, "velocity": 116, "channel": 0}, {"type": "note_off", "time": 4164, "note": 56, "velocity": 116, "channel": 0}, {"type": "note_on", "time": 297, "note": 58, "velocity": 96, "channel": 0}, {"type": "note_off", "time": 5473, "note": 58, "velocity": 96, "channel": 0}, {"type": "note_on", "time": 475, "note": 60, "velocity": 103, "channel": 0}, {"type": "note_off", "time": 2855, "note": 60, "velocity": 103, "channel": 0}, {"type": "note_on", "time": 237, "note": 61, "velocity": 105, "channel": 0}, {"type": "note_off", "time": 2320, "note": 61, "velocity": 105, "channel": 0}, {"type": "note_on", "time": 0, "note": 58, "velocity": 105, "channel": 0}, {"type": "note_off", "time": 3301, "note": 58, "velocity": 105, "channel": 0}, {"type": "note_on", "time": 0, "note": 63, "velocity": 115, "channel": 0}, {"type": "note_off", "time": 2551, "note": 63, "velocity": 115, "channel": 0}, {"type": "note_on", "time": 250, "note": 59, "velocity": 103, "channel": 0}, {"type": "note_off", "time": 2718, "note": 59, "velocity": 103, "channel": 0}, {"type": "note_on", "time": 209, "note": 64, "velocity": 110, "channel": 0}, {"type": "note_off", "time": 4057, "note": 64, "velocity": 110, "channel": 0}, {"type": "note_on", "time": 125, "note": 60, "velocity": 103, "channel": 0}, {"type": "note_on", "time": 2802, "note": 65, "velocity": 106, "channel": 0}, {"type": "note_off", "time": 0, "note": 60, "velocity": 103, "channel": 0}, {"type": "note_off", "time": 3137, "note": 65, "velocity": 106, "channel": 0}, {"type": "note_on", "time": 1213, "note": 60, "velocity": 103, "channel": 0}, {"type": "note_off", "time": 3262, "note": 60, "velocity": 103, "channel": 0}, {"type": "note_on", "time": 581, "note": 68, "velocity": 111, "channel": 0}, {"type": "note_off", "time": 2558, "note": 68, "velocity": 111, "channel": 0}, {"type": "note_on", "time": 415, "note": 60, "velocity": 102, "channel": 0}, {"type": "note_off", "time": 3262, "note": 60, "velocity": 102, "channel": 0}, {"type": "note_on", "time": 0, "note": 70, "velocity": 106, "channel": 0}, {"type": "note_off", "time": 3137, "note": 70, "velocity": 106, "channel": 0}, {"type": "note_on", "time": 167, "note": 67, "velocity": 99, "channel": 0}, {"type": "note_off", "time": 2802, "note": 67, "velocity": 99, "channel": 0}, {"type": "note_on", "time": 125, "note": 71, "velocity": 109, "channel": 0}, {"type": "note_off", "time": 2844, "note": 71, "velocity": 109, "channel": 0}, {"type": "note_on", "time": 292, "note": 67, "velocity": 99, "channel": 0}, {"type": "note_off", "time": 2635, "note": 67, "velocity": 99, "channel": 0}, {"type": "note_on", "time": 0, "note": 73, "velocity": 103, "channel": 0}, {"type": "note_off", "time": 1338, "note": 73, "velocity": 103, "channel": 0}, {"type": "note_on", "time": 209, "note": 72, "velocity": 108, "channel": 0}, {"type": "note_off", "time": 1087, "note": 72, "velocity": 108, "channel": 0}, {"type": "note_on", "time": 125, "note": 73, "velocity": 103, "channel": 0}, {"type": "note_off", "time": 962, "note": 73, "velocity": 103, "channel": 0}, {"type": "note_on", "time": 711, "note": 77, "velocity": 102, "channel": 0}, {"type": "note_off", "time": 1505, "note": 77, "velocity": 102, "channel": 0}, {"type": "note_on", "time": 460, "note": 73, "velocity": 94, "channel": 0}, {"type": "note_off", "time": 836, "note": 73, "velocity": 94, "channel": 0}, {"type": "note_on", "time": 0, "note": 75, "velocity": 104, "channel": 0}, {"type": "note_off", "time": 3011, "note": 75, "velocity": 104, "channel": 0}, {"type": "note_on", "time": 2743, "note": 76, "velocity": 105, "channel": 0}, {"type": "note_off", "time": 3220, "note": 76, "velocity": 105, "channel": 0}, {"type": "note_on", "time": 1105, "note": 78, "velocity": 88, "channel": 0}, {"type": "note_off", "time": 1631, "note": 78, "velocity": 88, "channel": 0}, {"type": "note_on", "time": 41, "note": 79, "velocity": 101, "channel": 0}, {"type": "note_off", "time": 1338, "note": 79, "velocity": 101, "channel": 0}, {"type": "note_on", "time": 250, "note": 77, "velocity": 104, "channel": 0}, {"type": "note_off", "time": 1464, "note": 77, "velocity": 104, "channel": 0}, {"type": "note_on", "time": 460, "note": 76, "velocity": 83, "channel": 0}, {"type": "note_off", "time": 1673, "note": 76, "velocity": 83, "channel": 0}, {"type": "note_on", "time": 292, "note": 79, "velocity": 114, "channel": 0}, {"type": "note_off", "time": 3262, "note": 79, "velocity": 114, "channel": 0}, {"type": "note_on", "time": 167, "note": 80, "velocity": 112, "channel": 0}, {"type": "note_off", "time": 1003, "note": 80, "velocity": 112, "channel": 0}, {"type": "note_on", "time": 334, "note": 79, "velocity": 99, "channel": 0}, {"type": "note_off", "time": 1714, "note": 79, "velocity": 99, "channel": 0}, {"type": "note_on", "time": 334, "note": 82, "velocity": 106, "channel": 0}, {"type": "note_off", "time": 3429, "note": 82, "velocity": 106, "channel": 0}, {"type": "note_on", "time": 711, "note": 85, "velocity": 98, "channel": 0}, {"type": "note_off", "time": 1714, "note": 85, "velocity": 98, "channel": 0}, {"type": "note_on", "time": 250, "note": 84, "velocity": 100, "channel": 0}, {"type": "note_off", "time": 2802, "note": 84, "velocity": 100, "channel": 0}, {"type": "note_on", "time": 250, "note": 87, "velocity": 87, "channel": 0}, {"type": "note_off", "time": 1171, "note": 87, "velocity": 87, "channel": 0}, {"type": "note_on", "time": 334, "note": 87, "velocity": 110, "channel": 0}, {"type": "note_off", "time": 3137, "note": 87, "velocity": 110, "channel": 0}, {"type": "note_on", "time": 501, "note": 88, "velocity": 83, "channel": 0}, {"type": "note_off", "time": 1505, "note": 88, "velocity": 83, "channel": 0}, {"type": "note_on", "time": 395, "note": 89, "velocity": 102, "channel": 0}, {"type": "note_off", "time": 5889, "note": 89, "velocity": 102, "channel": 0}, {"type": "note_on", "time": 356, "note": 88, "velocity": 106, "channel": 0}, {"type": "note_off", "time": 2379, "note": 88, "velocity": 106, "channel": 0}, {"type": "note_on", "time": 416, "note": 89, "velocity": 95, "channel": 0}, {"type": "note_off", "time": 64583, "note": 89, "velocity": 95, "channel": 0}, {"type": "note_on", "time": 1604, "note": 86, "velocity": 106, "channel": 0}, {"type": "note_off", "time": 1714, "note": 86, "velocity": 106, "channel": 0}, {"type": "note_on", "time": 125, "note": 87, "velocity": 108, "channel": 0}, {"type": "note_off", "time": 1756, "note": 87, "velocity": 108, "channel": 0}, {"type": "note_on", "time": 711, "note": 84, "velocity": 102, "channel": 0}, {"type": "note_off", "time": 2551, "note": 84, "velocity": 102, "channel": 0}, {"type": "note_on", "time": 3346, "note": 88, "velocity": 97, "channel": 0}, {"type": "note_off", "time": 2300, "note": 88, "velocity": 97, "channel": 0}, {"type": "note_on", "time": 1422, "note": 84, "velocity": 97, "channel": 0}, {"type": "note_off", "time": 2300, "note": 84, "velocity": 97, "channel": 0}, {"type": "note_on", "time": 392, "note": 85, "velocity": 98, "channel": 0}, {"type": "note_off", "time": 7674, "note": 85, "velocity": 98, "channel": 0}, {"type": "note_on", "time": 17239, "note": 74, "velocity": 116, "channel": 0}, {"type": "note_off", "time": 1631, "note": 74, "velocity": 116, "channel": 0}, {"type": "note_on", "time": 250, "note": 76, "velocity": 124, "channel": 0}, {"type": "note_off", "time": 1505, "note": 76, "velocity": 124, "channel": 0}, {"type": "note_on", "time": 376, "note": 77, "velocity": 112, "channel": 0}, {"type": "note_off", "time": 4057, "note": 77, "velocity": 112, "channel": 0}, {"type": "note_on", "time": 0, "note": 76, "velocity": 118, "channel": 0}, {"type": "note_off", "time": 1338, "note": 76, "velocity": 118, "channel": 0}, {"type": "note_on", "time": 543, "note": 74, "velocity": 89, "channel": 0}, {"type": "note_off", "time": 1171, "note": 74, "velocity": 89, "channel": 0}, {"type": "note_on", "time": 0, "note": 72, "velocity": 101, "channel": 0}, {"type": "note_on", "time": 418, "note": 70, "velocity": 97, "channel": 0}, {"type": "note_off", "time": 0, "note": 72, "velocity": 101, "channel": 0}, {"type": "note_off", "time": 2175, "note": 70, "velocity": 97, "channel": 0}, {"type": "note_on", "time": 83, "note": 72, "velocity": 88, "channel": 0}, {"type": "note_off", "time": 460, "note": 72, "velocity": 88, "channel": 0}, {"type": "note_on", "time": 0, "note": 73, "velocity": 106, "channel": 0}, {"type": "note_off", "time": 1213, "note": 73, "velocity": 106, "channel": 0}, {"type": "note_on", "time": 0, "note": 74, "velocity": 108, "channel": 0}, {"type": "note_on", "time": 501, "note": 75, "velocity": 113, "channel": 0}, {"type": "note_off", "time": 0, "note": 74, "velocity": 108, "channel": 0}, {"type": "note_off", "time": 5730, "note": 75, "velocity": 113, "channel": 0}, {"type": "note_on", "time": 125, "note": 72, "velocity": 103, "channel": 0}, {"type": "note_off", "time": 669, "note": 72, "velocity": 103, "channel": 0}, {"type": "note_on", "time": 167, "note": 71, "velocity": 106, "channel": 0}, {"type": "note_off", "time": 1171, "note": 71, "velocity": 106, "channel": 0}, {"type": "note_on", "time": 209, "note": 72, "velocity": 105, "channel": 0}, {"type": "note_off", "time": 1338, "note": 72, "velocity": 105, "channel": 0}, {"type": "note_on", "time": 125, "note": 73, "velocity": 97, "channel": 0}, {"type": "note_off", "time": 3471, "note": 73, "velocity": 97, "channel": 0}, {"type": "note_on", "time": 1547, "note": 63, "velocity": 10, "channel": 0}, {"type": "note_off", "time": 2509, "note": 63, "velocity": 10, "channel": 0}, {"type": "note_on", "time": 711, "note": 68, "velocity": 105, "channel": 0}, {"type": "note_off", "time": 1296, "note": 68, "velocity": 105, "channel": 0}, {"type": "note_on", "time": 190, "note": 69, "velocity": 111, "channel": 0}, {"type": "note_off", "time": 1673, "note": 69, "velocity": 111, "channel": 0}, {"type": "note_on", "time": 52, "note": 70, "velocity": 108, "channel": 0}, {"type": "note_off", "time": 4810, "note": 70, "velocity": 108, "channel": 0}, {"type": "note_on", "time": 217, "note": 67, "velocity": 94, "channel": 0}, {"type": "note_off", "time": 1756, "note": 67, "velocity": 94, "channel": 0}, {"type": "note_on", "time": 1187, "note": 66, "velocity": 101, "channel": 0}, {"type": "note_off", "time": 2201, "note": 66, "velocity": 101, "channel": 0}, {"type": "note_on", "time": 297, "note": 68, "velocity": 109, "channel": 0}, {"type": "note_off", "time": 13504, "note": 68, "velocity": 109, "channel": 0}, {"type": "note_on", "time": 754, "note": 66, "velocity": 110, "channel": 0}, {"type": "note_off", "time": 2216, "note": 66, "velocity": 110, "channel": 0}, {"type": "note_on", "time": 418, "note": 63, "velocity": 115, "channel": 0}, {"type": "note_off", "time": 2216, "note": 63, "velocity": 115, "channel": 0}, {"type": "note_on", "time": 501, "note": 61, "velocity": 106, "channel": 0}, {"type": "note_off", "time": 1129, "note": 61, "velocity": 106, "channel": 0}, {"type": "note_on", "time": 711, "note": 58, "velocity": 94, "channel": 0}, {"type": "note_off", "time": 4433, "note": 58, "velocity": 94, "channel": 0}, {"type": "note_on", "time": 14268, "note": 72, "velocity": 112, "channel": 0}, {"type": "note_off", "time": 2409, "note": 72, "velocity": 112, "channel": 0}, {"type": "note_on", "time": 59, "note": 70, "velocity": 118, "channel": 0}, {"type": "note_off", "time": 2498, "note": 70, "velocity": 118, "channel": 0}, {"type": "note_on", "time": 59, "note": 67, "velocity": 113, "channel": 0}, {"type": "note_off", "time": 1725, "note": 67, "velocity": 113, "channel": 0}, {"type": "note_on", "time": 0, "note": 65, "velocity": 109, "channel": 0}, {"type": "note_off", "time": 1784, "note": 65, "velocity": 109, "channel": 0}, {"type": "note_on", "time": 832, "note": 70, "velocity": 113, "channel": 0}, {"type": "note_off", "time": 2528, "note": 70, "velocity": 113, "channel": 0}, {"type": "note_on", "time": 297, "note": 67, "velocity": 114, "channel": 0}, {"type": "note_off", "time": 1903, "note": 67, "velocity": 114, "channel": 0}, {"type": "note_on", "time": 118, "note": 65, "velocity": 114, "channel": 0}, {"type": "note_off", "time": 1606, "note": 65, "velocity": 114, "channel": 0}, {"type": "note_on", "time": 0, "note": 63, "velocity": 115, "channel": 0}, {"type": "note_off", "time": 1516, "note": 63, "velocity": 115, "channel": 0}, {"type": "note_on", "time": 1695, "note": 70, "velocity": 108, "channel": 0}, {"type": "note_off", "time": 1844, "note": 70, "velocity": 108, "channel": 0}, {"type": "note_on", "time": 89, "note": 67, "velocity": 106, "channel": 0}, {"type": "note_off", "time": 2230, "note": 67, "velocity": 106, "channel": 0}, {"type": "note_on", "time": 237, "note": 65, "velocity": 109, "channel": 0}, {"type": "note_off", "time": 1249, "note": 65, "velocity": 109, "channel": 0}, {"type": "note_on", "time": 0, "note": 63, "velocity": 117, "channel": 0}, {"type": "note_off", "time": 1963, "note": 63, "velocity": 117, "channel": 0}, {"type": "note_on", "time": 3212, "note": 65, "velocity": 110, "channel": 0}, {"type": "note_off", "time": 2498, "note": 65, "velocity": 110, "channel": 0}, {"type": "note_on", "time": 0, "note": 63, "velocity": 113, "channel": 0}, {"type": "note_off", "time": 2052, "note": 63, "velocity": 113, "channel": 0}, {"type": "note_on", "time": 267, "note": 61, "velocity": 103, "channel": 0}, {"type": "note_off", "time": 2260, "note": 61, "velocity": 103, "channel": 0}, {"type": "note_on", "time": 89, "note": 58, "velocity": 92, "channel": 0}, {"type": "note_off", "time": 2082, "note": 58, "velocity": 92, "channel": 0}, {"type": "note_on", "time": 0, "note": 61, "velocity": 106, "channel": 0}, {"type": "note_off", "time": 2290, "note": 61, "velocity": 106, "channel": 0}, {"type": "note_on", "time": 29, "note": 62, "velocity": 111, "channel": 0}, {"type": "note_off", "time": 1516, "note": 62, "velocity": 111, "channel": 0}, {"type": "note_on", "time": 416, "note": 65, "velocity": 106, "channel": 0}, {"type": "note_off", "time": 3242, "note": 65, "velocity": 106, "channel": 0}, {"type": "note_on", "time": 267, "note": 62, "velocity": 110, "channel": 0}, {"type": "note_off", "time": 1279, "note": 62, "velocity": 110, "channel": 0}, {"type": "note_on", "time": 0, "note": 63, "velocity": 113, "channel": 0}, {"type": "note_off", "time": 594, "note": 63, "velocity": 113, "channel": 0}, {"type": "note_on", "time": 267, "note": 64, "velocity": 118, "channel": 0}, {"type": "note_off", "time": 832, "note": 64, "velocity": 118, "channel": 0}, {"type": "note_on", "time": 386, "note": 62, "velocity": 110, "channel": 0}, {"type": "note_off", "time": 1635, "note": 62, "velocity": 110, "channel": 0}, {"type": "note_on", "time": 237, "note": 61, "velocity": 104, "channel": 0}, {"type": "note_off", "time": 1100, "note": 61, "velocity": 104, "channel": 0}, {"type": "note_on", "time": 297, "note": 60, "velocity": 107, "channel": 0}, {"type": "note_off", "time": 2111, "note": 60, "velocity": 107, "channel": 0}, {"type": "note_on", "time": 3212, "note": 60, "velocity": 107, "channel": 0}, {"type": "note_off", "time": 1100, "note": 60, "velocity": 107, "channel": 0}, {"type": "note_on", "time": 148, "note": 63, "velocity": 114, "channel": 0}, {"type": "note_off", "time": 892, "note": 63, "velocity": 114, "channel": 0}, {"type": "note_on", "time": 148, "note": 60, "velocity": 105, "channel": 0}, {"type": "note_off", "time": 1546, "note": 60, "velocity": 105, "channel": 0}, {"type": "note_on", "time": 297, "note": 58, "velocity": 99, "channel": 0}, {"type": "note_off", "time": 2379, "note": 58, "velocity": 99, "channel": 0}, {"type": "note_on", "time": 594, "note": 55, "velocity": 103, "channel": 0}, {"type": "note_off", "time": 2052, "note": 55, "velocity": 103, "channel": 0}, {"type": "note_on", "time": 118, "note": 53, "velocity": 103, "channel": 0}, {"type": "note_off", "time": 2528, "note": 53, "velocity": 103, "channel": 0}, {"type": "note_on", "time": 951, "note": 58, "velocity": 104, "channel": 0}, {"type": "note_off", "time": 3063, "note": 58, "velocity": 104, "channel": 0}, {"type": "note_on", "time": 267, "note": 56, "velocity": 98, "channel": 0}, {"type": "note_off", "time": 2736, "note": 56, "velocity": 98, "channel": 0}, {"type": "note_on", "time": 178, "note": 53, "velocity": 97, "channel": 0}, {"type": "note_off", "time": 4878, "note": 53, "velocity": 97, "channel": 0}, {"type": "note_on", "time": 6157, "note": 48, "velocity": 97, "channel": 0}, {"type": "note_off", "time": 2260, "note": 48, "velocity": 97, "channel": 0}, {"type": "note_on", "time": 1070, "note": 51, "velocity": 96, "channel": 0}, {"type": "note_off", "time": 7614, "note": 51, "velocity": 96, "channel": 0}, {"type": "note_on", "time": 10261, "note": 48, "velocity": 107, "channel": 0}, {"type": "note_off", "time": 2349, "note": 48, "velocity": 107, "channel": 0}, {"type": "note_on", "time": 178, "note": 51, "velocity": 103, "channel": 0}, {"type": "note_off", "time": 2677, "note": 51, "velocity": 103, "channel": 0}, {"type": "note_on", "time": 743, "note": 53, "velocity": 103, "channel": 0}, {"type": "note_off", "time": 1695, "note": 53, "velocity": 103, "channel": 0}, {"type": "note_on", "time": 416, "note": 55, "velocity": 98, "channel": 0}, {"type": "note_off", "time": 3420, "note": 55, "velocity": 98, "channel": 0}, {"type": "note_on", "time": 2022, "note": 58, "velocity": 105, "channel": 0}, {"type": "note_off", "time": 2171, "note": 58, "velocity": 105, "channel": 0}, {"type": "note_on", "time": 1041, "note": 60, "velocity": 109, "channel": 0}, {"type": "note_off", "time": 1963, "note": 60, "velocity": 109, "channel": 0}, {"type": "note_on", "time": 1358, "note": 56, "velocity": 99, "channel": 0}, {"type": "note_off", "time": 3304, "note": 56, "velocity": 99, "channel": 0}, {"type": "note_on", "time": 1374, "note": 62, "velocity": 108, "channel": 0}, {"type": "note_off", "time": 1308, "note": 62, "velocity": 108, "channel": 0}, {"type": "note_on", "time": 0, "note": 63, "velocity": 108, "channel": 0}, {"type": "note_off", "time": 2230, "note": 63, "velocity": 108, "channel": 0}, {"type": "note_on", "time": 2321, "note": 53, "velocity": 102, "channel": 0}, {"type": "note_off", "time": 4350, "note": 53, "velocity": 102, "channel": 0}, {"type": "note_on", "time": 18153, "note": 53, "velocity": 106, "channel": 0}, {"type": "note_off", "time": 3011, "note": 53, "velocity": 106, "channel": 0}, {"type": "note_on", "time": 1087, "note": 52, "velocity": 107, "channel": 0}, {"type": "note_off", "time": 3095, "note": 52, "velocity": 107, "channel": 0}, {"type": "note_on", "time": 334, "note": 51, "velocity": 101, "channel": 0}, {"type": "note_off", "time": 3597, "note": 51, "velocity": 101, "channel": 0}, {"type": "note_on", "time": 2007, "note": 58, "velocity": 105, "channel": 0}, {"type": "note_off", "time": 2760, "note": 58, "velocity": 105, "channel": 0}, {"type": "note_on", "time": 669, "note": 55, "velocity": 96, "channel": 0}, {"type": "note_off", "time": 2007, "note": 55, "velocity": 96, "channel": 0}, {"type": "note_on", "time": 0, "note": 54, "velocity": 100, "channel": 0}, {"type": "note_off", "time": 1673, "note": 54, "velocity": 100, "channel": 0}, {"type": "note_on", "time": 11962, "note": 55, "velocity": 105, "channel": 0}, {"type": "note_off", "time": 2509, "note": 55, "velocity": 105, "channel": 0}, {"type": "note_on", "time": 752, "note": 58, "velocity": 108, "channel": 0}, {"type": "note_off", "time": 3178, "note": 58, "velocity": 108, "channel": 0}, {"type": "note_on", "time": 334, "note": 60, "velocity": 116, "channel": 0}, {"type": "note_off", "time": 2593, "note": 60, "velocity": 116, "channel": 0}, {"type": "note_on", "time": 669, "note": 61, "velocity": 116, "channel": 0}, {"type": "note_off", "time": 3011, "note": 61, "velocity": 116, "channel": 0}, {"type": "note_on", "time": 920, "note": 63, "velocity": 118, "channel": 0}, {"type": "note_off", "time": 3848, "note": 63, "velocity": 118, "channel": 0}, {"type": "note_on", "time": 920, "note": 64, "velocity": 126, "channel": 0}, {"type": "note_off", "time": 2258, "note": 64, "velocity": 126, "channel": 0}, {"type": "note_on", "time": 0, "note": 65, "velocity": 118, "channel": 0}, {"type": "note_off", "time": 3680, "note": 65, "velocity": 118, "channel": 0}, {"type": "note_on", "time": 1924, "note": 63, "velocity": 119, "channel": 0}, {"type": "note_off", "time": 3346, "note": 63, "velocity": 119, "channel": 0}, {"type": "note_on", "time": 1589, "note": 70, "velocity": 111, "channel": 0}, {"type": "note_off", "time": 2342, "note": 70, "velocity": 111, "channel": 0}, {"type": "note_on", "time": 1756, "note": 72, "velocity": 112, "channel": 0}, {"type": "note_off", "time": 3513, "note": 72, "velocity": 112, "channel": 0}, {"type": "note_on", "time": 418, "note": 67, "velocity": 99, "channel": 0}, {"type": "note_off", "time": 6357, "note": 67, "velocity": 99, "channel": 0}, {"type": "note_on", "time": 10206, "note": 68, "velocity": 116, "channel": 0}, {"type": "note_off", "time": 1673, "note": 68, "velocity": 116, "channel": 0}, {"type": "note_on", "time": 0, "note": 71, "velocity": 104, "channel": 0}, {"type": "note_off", "time": 1338, "note": 71, "velocity": 104, "channel": 0}, {"type": "note_on", "time": 334, "note": 71, "velocity": 106, "channel": 0}, {"type": "note_off", "time": 2258, "note": 71, "velocity": 106, "channel": 0}, {"type": "note_on", "time": 501, "note": 75, "velocity": 108, "channel": 0}, {"type": "note_on", "time": 3346, "note": 71, "velocity": 104, "channel": 0}, {"type": "note_off", "time": 0, "note": 75, "velocity": 108, "channel": 0}, {"type": "note_off", "time": 3011, "note": 71, "velocity": 104, "channel": 0}, {"type": "note_on", "time": 167, "note": 67, "velocity": 85, "channel": 0}, {"type": "note_off", "time": 2175, "note": 67, "velocity": 85, "channel": 0}, {"type": "note_on", "time": 585, "note": 70, "velocity": 92, "channel": 0}, {"type": "note_off", "time": 2927, "note": 70, "velocity": 92, "channel": 0}, {"type": "note_on", "time": 1292, "note": 72, "velocity": 111, "channel": 0}, {"type": "note_off", "time": 1903, "note": 72, "velocity": 111, "channel": 0}, {"type": "note_on", "time": 148, "note": 73, "velocity": 99, "channel": 0}, {"type": "note_off", "time": 743, "note": 73, "velocity": 99, "channel": 0}, {"type": "note_on", "time": 118, "note": 72, "velocity": 110, "channel": 0}, {"type": "note_off", "time": 2468, "note": 72, "velocity": 110, "channel": 0}, {"type": "note_on", "time": 356, "note": 70, "velocity": 108, "channel": 0}, {"type": "note_on", "time": 2677, "note": 68, "velocity": 106, "channel": 0}, {"type": "note_off", "time": 0, "note": 70, "velocity": 108, "channel": 0}, {"type": "note_off", "time": 2855, "note": 68, "velocity": 106, "channel": 0}, {"type": "note_on", "time": 475, "note": 65, "velocity": 104, "channel": 0}, {"type": "note_off", "time": 3152, "note": 65, "velocity": 104, "channel": 0}, {"type": "note_on", "time": 356, "note": 60, "velocity": 100, "channel": 0}, {"type": "note_off", "time": 1784, "note": 60, "velocity": 100, "channel": 0}, {"type": "note_on", "time": 59, "note": 63, "velocity": 116, "channel": 0}, {"type": "note_off", "time": 2974, "note": 63, "velocity": 116, "channel": 0}, {"type": "note_on", "time": 475, "note": 67, "velocity": 104, "channel": 0}, {"type": "note_off", "time": 2379, "note": 67, "velocity": 104, "channel": 0}, {"type": "note_on", "time": 743, "note": 62, "velocity": 109, "channel": 0}, {"type": "note_off", "time": 1338, "note": 62, "velocity": 109, "channel": 0}, {"type": "note_on", "time": 59, "note": 63, "velocity": 104, "channel": 0}, {"type": "note_off", "time": 565, "note": 63, "velocity": 104, "channel": 0}, {"type": "note_on", "time": 208, "note": 62, "velocity": 103, "channel": 0}, {"type": "note_off", "time": 1844, "note": 62, "velocity": 103, "channel": 0}, {"type": "note_on", "time": 624, "note": 58, "velocity": 95, "channel": 0}, {"type": "note_off", "time": 2498, "note": 58, "velocity": 95, "channel": 0}, {"type": "note_on", "time": 237, "note": 60, "velocity": 101, "channel": 0}, {"type": "note_off", "time": 2944, "note": 60, "velocity": 101, "channel": 0}, {"type": "note_on", "time": 180, "note": 62, "velocity": 105, "channel": 0}, {"type": "note_off", "time": 2718, "note": 62, "velocity": 105, "channel": 0}, {"type": "note_on", "time": 669, "note": 58, "velocity": 100, "channel": 0}, {"type": "note_off", "time": 3095, "note": 58, "velocity": 100, "channel": 0}, {"type": "note_on", "time": 2467, "note": 56, "velocity": 95, "channel": 0}, {"type": "note_off", "time": 3220, "note": 56, "velocity": 95, "channel": 0}, {"type": "note_on", "time": 962, "note": 60, "velocity": 103, "channel": 0}, {"type": "note_off", "time": 3220, "note": 60, "velocity": 103, "channel": 0}, {"type": "note_on", "time": 585, "note": 65, "velocity": 101, "channel": 0}, {"type": "note_off", "time": 2886, "note": 65, "velocity": 101, "channel": 0}, {"type": "note_on", "time": 8407, "note": 70, "velocity": 109, "channel": 0}, {"type": "note_off", "time": 3095, "note": 70, "velocity": 109, "channel": 0}, {"type": "note_on", "time": 334, "note": 68, "velocity": 103, "channel": 0}, {"type": "note_off", "time": 2802, "note": 68, "velocity": 103, "channel": 0}, {"type": "note_on", "time": 250, "note": 65, "velocity": 103, "channel": 0}, {"type": "note_off", "time": 3095, "note": 65, "velocity": 103, "channel": 0}, {"type": "note_on", "time": 167, "note": 64, "velocity": 101, "channel": 0}, {"type": "note_off", "time": 3137, "note": 64, "velocity": 101, "channel": 0}, {"type": "note_on", "time": 501, "note": 63, "velocity": 106, "channel": 0}, {"type": "note_off", "time": 3262, "note": 63, "velocity": 106, "channel": 0}, {"type": "note_on", "time": 4266, "note": 67, "velocity": 104, "channel": 0}, {"type": "note_off", "time": 2426, "note": 67, "velocity": 104, "channel": 0}, {"type": "note_on", "time": 460, "note": 66, "velocity": 105, "channel": 0}, {"type": "note_off", "time": 2509, "note": 66, "velocity": 105, "channel": 0}, {"type": "note_on", "time": 543, "note": 65, "velocity": 105, "channel": 0}, {"type": "note_off", "time": 3137, "note": 65, "velocity": 105, "channel": 0}, {"type": "note_on", "time": 376, "note": 64, "velocity": 101, "channel": 0}, {"type": "note_off", "time": 3262, "note": 64, "velocity": 101, "channel": 0}, {"type": "note_on", "time": 83, "note": 63, "velocity": 106, "channel": 0}, {"type": "note_off", "time": 3597, "note": 63, "velocity": 106, "channel": 0}, {"type": "note_on", "time": 3680, "note": 62, "velocity": 111, "channel": 0}, {"type": "note_off", "time": 2718, "note": 62, "velocity": 111, "channel": 0}, {"type": "note_on", "time": 627, "note": 67, "velocity": 106, "channel": 0}, {"type": "note_off", "time": 3178, "note": 67, "velocity": 106, "channel": 0}, {"type": "note_on", "time": 292, "note": 65, "velocity": 104, "channel": 0}, {"type": "note_off", "time": 3513, "note": 65, "velocity": 104, "channel": 0}, {"type": "note_on", "time": 125, "note": 62, "velocity": 107, "channel": 0}, {"type": "note_off", "time": 3053, "note": 62, "velocity": 107, "channel": 0}, {"type": "note_on", "time": 209, "note": 61, "velocity": 95, "channel": 0}, {"type": "note_off", "time": 2886, "note": 61, "velocity": 95, "channel": 0}, {"type": "note_on", "time": 3890, "note": 65, "velocity": 108, "channel": 0}, {"type": "note_off", "time": 3429, "note": 65, "velocity": 108, "channel": 0}, {"type": "note_on", "time": 334, "note": 64, "velocity": 109, "channel": 0}, {"type": "note_off", "time": 3513, "note": 64, "velocity": 109, "channel": 0}, {"type": "note_on", "time": 125, "note": 60, "velocity": 104, "channel": 0}, {"type": "note_off", "time": 2384, "note": 60, "velocity": 104, "channel": 0}, {"type": "note_on", "time": 3806, "note": 63, "velocity": 105, "channel": 0}, {"type": "note_off", "time": 3137, "note": 63, "velocity": 105, "channel": 0}, {"type": "note_on", "time": 376, "note": 61, "velocity": 94, "channel": 0}, {"type": "note_off", "time": 3346, "note": 61, "velocity": 94, "channel": 0}, {"type": "note_on", "time": 794, "note": 60, "velocity": 86, "channel": 0}, {"type": "note_off", "time": 4099, "note": 60, "velocity": 86, "channel": 0}, {"type": "note_on", "time": 794, "note": 58, "velocity": 108, "channel": 0}, {"type": "note_off", "time": 4099, "note": 58, "velocity": 108, "channel": 0}, {"type": "note_on", "time": 1338, "note": 56, "velocity": 94, "channel": 0}, {"type": "note_off", "time": 2300, "note": 56, "velocity": 94, "channel": 0}, {"type": "note_on", "time": 125, "note": 57, "velocity": 95, "channel": 0}, {"type": "note_off", "time": 6232, "note": 57, "velocity": 95, "channel": 0}, {"type": "note_on", "time": 19994, "note": 69, "velocity": 103, "channel": 0}, {"type": "note_off", "time": 6357, "note": 69, "velocity": 103, "channel": 0}, {"type": "note_on", "time": 543, "note": 86, "velocity": 120, "channel": 0}, {"type": "note_off", "time": 3848, "note": 86, "velocity": 120, "channel": 0}, {"type": "note_on", "time": 4391, "note": 91, "velocity": 109, "channel": 0}, {"type": "note_off", "time": 5312, "note": 91, "velocity": 109, "channel": 0}, {"type": "note_on", "time": 125, "note": 66, "velocity": 112, "channel": 0}, {"type": "note_off", "time": 2091, "note": 66, "velocity": 112, "channel": 0}, {"type": "note_on", "time": 0, "note": 67, "velocity": 106, "channel": 0}, {"type": "note_off", "time": 2133, "note": 67, "velocity": 106, "channel": 0}, {"type": "note_on", "time": 1045, "note": 70, "velocity": 94, "channel": 0}, {"type": "note_off", "time": 3220, "note": 70, "velocity": 94, "channel": 0}, {"type": "note_on", "time": 2133, "note": 63, "velocity": 98, "channel": 0}, {"type": "note_off", "time": 2718, "note": 63, "velocity": 98, "channel": 0}, {"type": "note_on", "time": 1505, "note": 59, "velocity": 97, "channel": 0}, {"type": "note_off", "time": 3220, "note": 59, "velocity": 97, "channel": 0}, {"type": "note_on", "time": 2886, "note": 64, "velocity": 113, "channel": 0}, {"type": "note_off", "time": 3262, "note": 64, "velocity": 113, "channel": 0}, {"type": "note_on", "time": 209, "note": 60, "velocity": 96, "channel": 0}, {"type": "note_off", "time": 2677, "note": 60, "velocity": 96, "channel": 0}, {"type": "note_on", "time": 167, "note": 70, "velocity": 94, "channel": 0}, {"type": "note_off", "time": 6357, "note": 70, "velocity": 94, "channel": 0}, {"type": "note_on", "time": 24888, "note": 64, "velocity": 121, "channel": 0}, {"type": "note_off", "time": 2718, "note": 64, "velocity": 121, "channel": 0}, {"type": "note_on", "time": 83, "note": 65, "velocity": 114, "channel": 0}, {"type": "note_off", "time": 3262, "note": 65, "velocity": 114, "channel": 0}, {"type": "note_on", "time": 209, "note": 70, "velocity": 106, "channel": 0}, {"type": "note_off", "time": 2635, "note": 70, "velocity": 106, "channel": 0}, {"type": "note_on", "time": 1254, "note": 75, "velocity": 112, "channel": 0}, {"type": "note_off", "time": 4057, "note": 75, "velocity": 112, "channel": 0}, {"type": "note_on", "time": 0, "note": 78, "velocity": 110, "channel": 0}, {"type": "note_off", "time": 2802, "note": 78, "velocity": 110, "channel": 0}, {"type": "note_on", "time": 250, "note": 80, "velocity": 107, "channel": 0}, {"type": "note_off", "time": 4559, "note": 80, "velocity": 107, "channel": 0}, {"type": "note_on", "time": 167, "note": 84, "velocity": 106, "channel": 0}, {"type": "note_off", "time": 2049, "note": 84, "velocity": 106, "channel": 0}, {"type": "note_on", "time": 0, "note": 83, "velocity": 92, "channel": 0}, {"type": "note_off", "time": 2175, "note": 83, "velocity": 92, "channel": 0}, {"type": "note_on", "time": 2049, "note": 87, "velocity": 97, "channel": 0}, {"type": "note_off", "time": 3597, "note": 87, "velocity": 97, "channel": 0}, {"type": "note_on", "time": 125, "note": 88, "velocity": 105, "channel": 0}, {"type": "note_off", "time": 3304, "note": 88, "velocity": 105, "channel": 0}, {"type": "note_on", "time": 0, "note": 89, "velocity": 105, "channel": 0}, {"type": "note_off", "time": 3388, "note": 89, "velocity": 105, "channel": 0}, {"type": "note_on", "time": 194, "note": 87, "velocity": 83, "channel": 0}, {"type": "note_off", "time": 24569, "note": 87, "velocity": 83, "channel": 0}, {"type": "note_on", "time": 475, "note": 77, "velocity": 104, "channel": 0}, {"type": "note_off", "time": 2914, "note": 77, "velocity": 104, "channel": 0}, {"type": "note_on", "time": 0, "note": 78, "velocity": 112, "channel": 0}, {"type": "note_off", "time": 1963, "note": 78, "velocity": 112, "channel": 0}, {"type": "note_on", "time": 0, "note": 80, "velocity": 113, "channel": 0}, {"type": "note_off", "time": 61571, "note": 80, "velocity": 113, "channel": 0}, {"type": "note_on", "time": 773, "note": 77, "velocity": 99, "channel": 0}, {"type": "note_off", "time": 1725, "note": 77, "velocity": 99, "channel": 0}, {"type": "note_on", "time": 297, "note": 79, "velocity": 111, "channel": 0}, {"type": "note_off", "time": 5829, "note": 79, "velocity": 111, "channel": 0}, {"type": "note_on", "time": 0, "note": 75, "velocity": 91, "channel": 0}, {"type": "note_off", "time": 1665, "note": 75, "velocity": 91, "channel": 0}, {"type": "note_on", "time": 0, "note": 77, "velocity": 98, "channel": 0}, {"type": "note_off", "time": 3985, "note": 77, "velocity": 98, "channel": 0}, {"type": "note_on", "time": 1189, "note": 77, "velocity": 96, "channel": 0}, {"type": "note_off", "time": 2558, "note": 77, "velocity": 96, "channel": 0}, {"type": "note_on", "time": 297, "note": 75, "velocity": 95, "channel": 0}, {"type": "note_off", "time": 4759, "note": 75, "velocity": 95, "channel": 0}, {"type": "note_on", "time": 475, "note": 77, "velocity": 90, "channel": 0}, {"type": "note_off", "time": 11838, "note": 77, "velocity": 90, "channel": 0}, {"type": "note_on", "time": 0, "note": 75, "velocity": 85, "channel": 0}, {"type": "note_off", "time": 3152, "note": 75, "velocity": 85, "channel": 0}, {"type": "note_on", "time": 1308, "note": 71, "velocity": 91, "channel": 0}, {"type": "note_off", "time": 1546, "note": 71, "velocity": 91, "channel": 0}, {"type": "note_on", "time": 59, "note": 73, "velocity": 80, "channel": 0}, {"type": "note_off", "time": 8031, "note": 73, "velocity": 80, "channel": 0}, {"type": "note_on", "time": 118, "note": 72, "velocity": 90, "channel": 0}, {"type": "note_off", "time": 4045, "note": 72, "velocity": 90, "channel": 0}, {"type": "note_on", "time": 178, "note": 70, "velocity": 82, "channel": 0}, {"type": "note_off", "time": 2141, "note": 70, "velocity": 82, "channel": 0}, {"type": "note_on", "time": 1844, "note": 72, "velocity": 81, "channel": 0}, {"type": "note_off", "time": 9994, "note": 72, "velocity": 81, "channel": 0}, {"type": "note_on", "time": 28911, "note": 67, "velocity": 113, "channel": 0}, {"type": "note_off", "time": 2439, "note": 67, "velocity": 113, "channel": 0}, {"type": "note_on", "time": 59, "note": 68, "velocity": 116, "channel": 0}, {"type": "note_off", "time": 2617, "note": 68, "velocity": 116, "channel": 0}, {"type": "note_on", "time": 0, "note": 70, "velocity": 112, "channel": 0}, {"type": "note_off", "time": 951, "note": 70, "velocity": 112, "channel": 0}, {"type": "note_on", "time": 0, "note": 71, "velocity": 110, "channel": 0}, {"type": "note_off", "time": 2439, "note": 71, "velocity": 110, "channel": 0}, {"type": "note_on", "time": 59, "note": 75, "velocity": 110, "channel": 0}, {"type": "note_off", "time": 2379, "note": 75, "velocity": 110, "channel": 0}, {"type": "note_on", "time": 237, "note": 74, "velocity": 105, "channel": 0}, {"type": "note_off", "time": 951, "note": 74, "velocity": 105, "channel": 0}, {"type": "note_on", "time": 297, "note": 71, "velocity": 110, "channel": 0}, {"type": "note_off", "time": 1556, "note": 71, "velocity": 110, "channel": 0}, {"type": "note_on", "time": 0, "note": 72, "velocity": 107, "channel": 0}, {"type": "note_off", "time": 962, "note": 72, "velocity": 107, "channel": 0}, {"type": "note_on", "time": 0, "note": 70, "velocity": 105, "channel": 0}, {"type": "note_on", "time": 1380, "note": 71, "velocity": 110, "channel": 0}, {"type": "note_off", "time": 0, "note": 70, "velocity": 105, "channel": 0}, {"type": "note_off", "time": 1965, "note": 71, "velocity": 110, "channel": 0}, {"type": "note_on", "time": 0, "note": 70, "velocity": 108, "channel": 0}, {"type": "note_off", "time": 1756, "note": 70, "velocity": 108, "channel": 0}, {"type": "note_on", "time": 0, "note": 68, "velocity": 107, "channel": 0}, {"type": "note_off", "time": 1547, "note": 68, "velocity": 107, "channel": 0}, {"type": "note_on", "time": 250, "note": 67, "velocity": 108, "channel": 0}, {"type": "note_off", "time": 1338, "note": 67, "velocity": 108, "channel": 0}, {"type": "note_on", "time": 0, "note": 66, "velocity": 105, "channel": 0}, {"type": "note_off", "time": 1714, "note": 66, "velocity": 105, "channel": 0}, {"type": "note_on", "time": 209, "note": 67, "velocity": 105, "channel": 0}, {"type": "note_off", "time": 1547, "note": 67, "velocity": 105, "channel": 0}, {"type": "note_on", "time": 0, "note": 64, "velocity": 109, "channel": 0}, {"type": "note_off", "time": 1756, "note": 64, "velocity": 109, "channel": 0}, {"type": "note_on", "time": 125, "note": 65, "velocity": 110, "channel": 0}, {"type": "note_off", "time": 3304, "note": 65, "velocity": 110, "channel": 0}, {"type": "note_on", "time": 41, "note": 63, "velocity": 115, "channel": 0}, {"type": "note_off", "time": 1673, "note": 63, "velocity": 115, "channel": 0}, {"type": "note_on", "time": 209, "note": 62, "velocity": 108, "channel": 0}, {"type": "note_off", "time": 1756, "note": 62, "velocity": 108, "channel": 0}, {"type": "note_on", "time": 250, "note": 61, "velocity": 108, "channel": 0}, {"type": "note_off", "time": 1798, "note": 61, "velocity": 108, "channel": 0}, {"type": "note_on", "time": 41, "note": 62, "velocity": 111, "channel": 0}, {"type": "note_off", "time": 2677, "note": 62, "velocity": 111, "channel": 0}, {"type": "note_on", "time": 0, "note": 61, "velocity": 104, "channel": 0}, {"type": "note_off", "time": 1422, "note": 61, "velocity": 104, "channel": 0}, {"type": "note_on", "time": 83, "note": 62, "velocity": 107, "channel": 0}, {"type": "note_off", "time": 1798, "note": 62, "velocity": 107, "channel": 0}, {"type": "note_on", "time": 209, "note": 61, "velocity": 108, "channel": 0}, {"type": "note_off", "time": 1798, "note": 61, "velocity": 108, "channel": 0}, {"type": "note_on", "time": 125, "note": 62, "velocity": 102, "channel": 0}, {"type": "note_off", "time": 1213, "note": 62, "velocity": 102, "channel": 0}, {"type": "note_on", "time": 135, "note": 60, "velocity": 95, "channel": 0}, {"type": "note_off", "time": 1635, "note": 60, "velocity": 95, "channel": 0}, {"type": "note_on", "time": 59, "note": 58, "velocity": 95, "channel": 0}, {"type": "note_off", "time": 1814, "note": 58, "velocity": 95, "channel": 0}, {"type": "note_on", "time": 237, "note": 59, "velocity": 93, "channel": 0}, {"type": "note_off", "time": 892, "note": 59, "velocity": 93, "channel": 0}, {"type": "note_on", "time": 416, "note": 58, "velocity": 99, "channel": 0}, {"type": "note_off", "time": 2111, "note": 58, "velocity": 99, "channel": 0}, {"type": "note_on", "time": 0, "note": 59, "velocity": 99, "channel": 0}, {"type": "note_off", "time": 1130, "note": 59, "velocity": 99, "channel": 0}, {"type": "note_on", "time": 0, "note": 58, "velocity": 98, "channel": 0}, {"type": "note_off", "time": 2409, "note": 58, "velocity": 98, "channel": 0}, {"type": "note_on", "time": 237, "note": 57, "velocity": 96, "channel": 0}, {"type": "note_off", "time": 1457, "note": 57, "velocity": 96, "channel": 0}, {"type": "note_on", "time": 148, "note": 56, "velocity": 98, "channel": 0}, {"type": "note_off", "time": 922, "note": 56, "velocity": 98, "channel": 0}, {"type": "note_on", "time": 416, "note": 55, "velocity": 96, "channel": 0}, {"type": "note_off", "time": 1665, "note": 55, "velocity": 96, "channel": 0}, {"type": "note_on", "time": 297, "note": 54, "velocity": 97, "channel": 0}, {"type": "note_off", "time": 1903, "note": 54, "velocity": 97, "channel": 0}, {"type": "note_on", "time": 297, "note": 53, "velocity": 96, "channel": 0}, {"type": "note_off", "time": 1814, "note": 53, "velocity": 96, "channel": 0}, {"type": "note_on", "time": 93, "note": 51, "velocity": 111, "channel": 0}, {"type": "note_off", "time": 857, "note": 51, "velocity": 111, "channel": 0}, {"type": "note_on", "time": 0, "note": 52, "velocity": 105, "channel": 0}, {"type": "note_off", "time": 397, "note": 52, "velocity": 105, "channel": 0}, {"type": "note_on", "time": 209, "note": 51, "velocity": 111, "channel": 0}, {"type": "note_off", "time": 773, "note": 51, "velocity": 111, "channel": 0}, {"type": "note_on", "time": 83, "note": 52, "velocity": 101, "channel": 0}, {"type": "note_off", "time": 522, "note": 52, "velocity": 101, "channel": 0}, {"type": "note_on", "time": 125, "note": 51, "velocity": 108, "channel": 0}, {"type": "note_off", "time": 982, "note": 51, "velocity": 108, "channel": 0}, {"type": "note_on", "time": 83, "note": 52, "velocity": 98, "channel": 0}, {"type": "note_off", "time": 522, "note": 52, "velocity": 98, "channel": 0}, {"type": "note_on", "time": 146, "note": 51, "velocity": 101, "channel": 0}, {"type": "note_off", "time": 732, "note": 51, "velocity": 101, "channel": 0}, {"type": "note_on", "time": 418, "note": 52, "velocity": 103, "channel": 0}, {"type": "note_off", "time": 899, "note": 52, "velocity": 103, "channel": 0}, {"type": "note_on", "time": 104, "note": 51, "velocity": 99, "channel": 0}, {"type": "note_off", "time": 962, "note": 51, "velocity": 99, "channel": 0}, {"type": "note_on", "time": 104, "note": 52, "velocity": 100, "channel": 0}, {"type": "note_off", "time": 669, "note": 52, "velocity": 100, "channel": 0}, {"type": "note_on", "time": 167, "note": 51, "velocity": 101, "channel": 0}, {"type": "note_off", "time": 899, "note": 51, "velocity": 101, "channel": 0}, {"type": "note_on", "time": 125, "note": 52, "velocity": 100, "channel": 0}, {"type": "note_off", "time": 899, "note": 52, "velocity": 100, "channel": 0}, {"type": "note_on", "time": 271, "note": 51, "velocity": 94, "channel": 0}, {"type": "note_off", "time": 1150, "note": 51, "velocity": 94, "channel": 0}, {"type": "note_on", "time": 125, "note": 52, "velocity": 99, "channel": 0}, {"type": "note_off", "time": 1066, "note": 52, "velocity": 99, "channel": 0}, {"type": "note_on", "time": 83, "note": 51, "velocity": 108, "channel": 0}, {"type": "note_off", "time": 857, "note": 51, "velocity": 108, "channel": 0}, {"type": "note_on", "time": 355, "note": 52, "velocity": 103, "channel": 0}, {"type": "note_off", "time": 1129, "note": 52, "velocity": 103, "channel": 0}, {"type": "note_on", "time": 83, "note": 51, "velocity": 100, "channel": 0}, {"type": "note_off", "time": 1066, "note": 51, "velocity": 100, "channel": 0}, {"type": "note_on", "time": 5813, "note": 53, "velocity": 96, "channel": 0}, {"type": "note_off", "time": 1189, "note": 53, "velocity": 96, "channel": 0}, {"type": "note_on", "time": 29, "note": 49, "velocity": 93, "channel": 0}, {"type": "note_off", "time": 1308, "note": 49, "velocity": 93, "channel": 0}, {"type": "note_on", "time": 148, "note": 53, "velocity": 98, "channel": 0}, {"type": "note_off", "time": 1189, "note": 53, "velocity": 98, "channel": 0}, {"type": "note_on", "time": 0, "note": 49, "velocity": 95, "channel": 0}, {"type": "note_off", "time": 1160, "note": 49, "velocity": 95, "channel": 0}, {"type": "note_on", "time": 0, "note": 53, "velocity": 99, "channel": 0}, {"type": "note_off", "time": 1368, "note": 53, "velocity": 99, "channel": 0}, {"type": "note_on", "time": 89, "note": 49, "velocity": 92, "channel": 0}, {"type": "note_off", "time": 1249, "note": 49, "velocity": 92, "channel": 0}, {"type": "note_on", "time": 59, "note": 53, "velocity": 98, "channel": 0}, {"type": "note_off", "time": 1368, "note": 53, "velocity": 98, "channel": 0}, {"type": "note_on", "time": 29, "note": 49, "velocity": 93, "channel": 0}, {"type": "note_off", "time": 892, "note": 49, "velocity": 93, "channel": 0}, {"type": "note_on", "time": 0, "note": 53, "velocity": 97, "channel": 0}, {"type": "note_off", "time": 1338, "note": 53, "velocity": 97, "channel": 0}, {"type": "note_on", "time": 118, "note": 49, "velocity": 95, "channel": 0}, {"type": "note_off", "time": 1070, "note": 49, "velocity": 95, "channel": 0}, {"type": "note_on", "time": 356, "note": 53, "velocity": 93, "channel": 0}, {"type": "note_off", "time": 1368, "note": 53, "velocity": 93, "channel": 0}, {"type": "note_on", "time": 0, "note": 49, "velocity": 93, "channel": 0}, {"type": "note_off", "time": 1160, "note": 49, "velocity": 93, "channel": 0}, {"type": "note_on", "time": 0, "note": 53, "velocity": 95, "channel": 0}, {"type": "note_off", "time": 1635, "note": 53, "velocity": 95, "channel": 0}, {"type": "note_on", "time": 0, "note": 49, "velocity": 95, "channel": 0}, {"type": "note_off", "time": 951, "note": 49, "velocity": 95, "channel": 0}, {"type": "note_on", "time": 0, "note": 53, "velocity": 94, "channel": 0}, {"type": "note_off", "time": 1665, "note": 53, "velocity": 94, "channel": 0}, {"type": "note_on", "time": 0, "note": 49, "velocity": 94, "channel": 0}, {"type": "note_off", "time": 1070, "note": 49, "velocity": 94, "channel": 0}, {"type": "note_on", "time": 0, "note": 53, "velocity": 97, "channel": 0}, {"type": "note_off", "time": 1457, "note": 53, "velocity": 97, "channel": 0}, {"type": "note_on", "time": 0, "note": 49, "velocity": 94, "channel": 0}, {"type": "note_off", "time": 1338, "note": 49, "velocity": 94, "channel": 0}, {"type": "note_on", "time": 29, "note": 53, "velocity": 95, "channel": 0}, {"type": "note_off", "time": 1516, "note": 53, "velocity": 95, "channel": 0}, {"type": "note_on", "time": 40958, "note": 46, "velocity": 116, "channel": 0}, {"type": "note_off", "time": 1464, "note": 46, "velocity": 116, "channel": 0}, {"type": "note_on", "time": 201, "note": 50, "velocity": 112, "channel": 0}, {"type": "note_off", "time": 1631, "note": 50, "velocity": 112, "channel": 0}, {"type": "note_on", "time": 93, "note": 53, "velocity": 112, "channel": 0}, {"type": "note_off", "time": 1010, "note": 53, "velocity": 112, "channel": 0}, {"type": "note_on", "time": 0, "note": 55, "velocity": 106, "channel": 0}, {"type": "note_off", "time": 1589, "note": 55, "velocity": 106, "channel": 0}, {"type": "note_on", "time": 41, "note": 58, "velocity": 102, "channel": 0}, {"type": "note_off", "time": 2426, "note": 58, "velocity": 102, "channel": 0}, {"type": "note_on", "time": 0, "note": 55, "velocity": 103, "channel": 0}, {"type": "note_off", "time": 1267, "note": 55, "velocity": 103, "channel": 0}, {"type": "note_on", "time": 0, "note": 57, "velocity": 102, "channel": 0}, {"type": "note_off", "time": 1070, "note": 57, "velocity": 102, "channel": 0}, {"type": "note_on", "time": 356, "note": 58, "velocity": 107, "channel": 0}, {"type": "note_off", "time": 1160, "note": 58, "velocity": 107, "channel": 0}, {"type": "note_on", "time": 0, "note": 60, "velocity": 105, "channel": 0}, {"type": "note_off", "time": 1427, "note": 60, "velocity": 105, "channel": 0}, {"type": "note_on", "time": 405, "note": 62, "velocity": 105, "channel": 0}, {"type": "note_off", "time": 1505, "note": 62, "velocity": 105, "channel": 0}, {"type": "note_on", "time": 22, "note": 65, "velocity": 111, "channel": 0}, {"type": "note_off", "time": 1398, "note": 65, "velocity": 111, "channel": 0}, {"type": "note_on", "time": 0, "note": 62, "velocity": 111, "channel": 0}, {"type": "note_on", "time": 1457, "note": 63, "velocity": 113, "channel": 0}, {"type": "note_off", "time": 0, "note": 62, "velocity": 111, "channel": 0}, {"type": "note_off", "time": 1398, "note": 63, "velocity": 113, "channel": 0}, {"type": "note_on", "time": 29, "note": 65, "velocity": 113, "channel": 0}, {"type": "note_off", "time": 1338, "note": 65, "velocity": 113, "channel": 0}, {"type": "note_on", "time": 0, "note": 67, "velocity": 107, "channel": 0}, {"type": "note_off", "time": 1130, "note": 67, "velocity": 107, "channel": 0}, {"type": "note_on", "time": 0, "note": 70, "velocity": 109, "channel": 0}, {"type": "note_off", "time": 2082, "note": 70, "velocity": 109, "channel": 0}, {"type": "note_on", "time": 0, "note": 67, "velocity": 112, "channel": 0}, {"type": "note_off", "time": 1635, "note": 67, "velocity": 112, "channel": 0}, {"type": "note_on", "time": 59, "note": 68, "velocity": 111, "channel": 0}, {"type": "note_off", "time": 1189, "note": 68, "velocity": 111, "channel": 0}, {"type": "note_on", "time": 0, "note": 71, "velocity": 108, "channel": 0}, {"type": "note_off", "time": 1635, "note": 71, "velocity": 108, "channel": 0}, {"type": "note_on", "time": 0, "note": 72, "velocity": 99, "channel": 0}, {"type": "note_off", "time": 1070, "note": 72, "velocity": 99, "channel": 0}, {"type": "note_on", "time": 356, "note": 75, "velocity": 113, "channel": 0}, {"type": "note_off", "time": 2439, "note": 75, "velocity": 113, "channel": 0}, {"type": "note_on", "time": 0, "note": 74, "velocity": 111, "channel": 0}, {"type": "note_off", "time": 892, "note": 74, "velocity": 111, "channel": 0}, {"type": "note_on", "time": 0, "note": 72, "velocity": 115, "channel": 0}, {"type": "note_off", "time": 1487, "note": 72, "velocity": 115, "channel": 0}, {"type": "note_on", "time": 148, "note": 71, "velocity": 116, "channel": 0}, {"type": "note_off", "time": 2409, "note": 71, "velocity": 116, "channel": 0}, {"type": "note_on", "time": 0, "note": 68, "velocity": 103, "channel": 0}, {"type": "note_off", "time": 1070, "note": 68, "velocity": 103, "channel": 0}, {"type": "note_on", "time": 29, "note": 67, "velocity": 106, "channel": 0}, {"type": "note_off", "time": 773, "note": 67, "velocity": 106, "channel": 0}, {"type": "note_on", "time": 148, "note": 66, "velocity": 103, "channel": 0}, {"type": "note_off", "time": 981, "note": 66, "velocity": 103, "channel": 0}, {"type": "note_on", "time": 59, "note": 64, "velocity": 105, "channel": 0}, {"type": "note_off", "time": 1219, "note": 64, "velocity": 105, "channel": 0}, {"type": "note_on", "time": 89, "note": 63, "velocity": 114, "channel": 0}, {"type": "note_off", "time": 1249, "note": 63, "velocity": 114, "channel": 0}, {"type": "note_on", "time": 178, "note": 62, "velocity": 114, "channel": 0}, {"type": "note_off", "time": 981, "note": 62, "velocity": 114, "channel": 0}, {"type": "note_on", "time": 118, "note": 61, "velocity": 103, "channel": 0}, {"type": "note_off", "time": 1398, "note": 61, "velocity": 103, "channel": 0}, {"type": "note_on", "time": 1933, "note": 75, "velocity": 101, "channel": 0}, {"type": "note_off", "time": 2974, "note": 75, "velocity": 101, "channel": 0}, {"type": "note_on", "time": 2052, "note": 67, "velocity": 102, "channel": 0}, {"type": "note_off", "time": 2706, "note": 67, "velocity": 102, "channel": 0}, {"type": "note_on", "time": 1695, "note": 72, "velocity": 99, "channel": 0}, {"type": "note_off", "time": 2201, "note": 72, "velocity": 99, "channel": 0}, {"type": "note_on", "time": 29, "note": 73, "velocity": 96, "channel": 0}, {"type": "note_off", "time": 2706, "note": 73, "velocity": 96, "channel": 0}, {"type": "note_on", "time": 29, "note": 72, "velocity": 86, "channel": 0}, {"type": "note_off", "time": 2617, "note": 72, "velocity": 86, "channel": 0}, {"type": "note_on", "time": 0, "note": 70, "velocity": 101, "channel": 0}, {"type": "note_off", "time": 3093, "note": 70, "velocity": 101, "channel": 0}, {"type": "note_on", "time": 1070, "note": 68, "velocity": 90, "channel": 0}, {"type": "note_off", "time": 11481, "note": 68, "velocity": 90, "channel": 0}, {"type": "note_on", "time": 5235, "note": 67, "velocity": 116, "channel": 0}, {"type": "note_off", "time": 2260, "note": 67, "velocity": 116, "channel": 0}, {"type": "note_on", "time": 1963, "note": 70, "velocity": 107, "channel": 0}, {"type": "note_off", "time": 2201, "note": 70, "velocity": 107, "channel": 0}, {"type": "note_on", "time": 1784, "note": 64, "velocity": 119, "channel": 0}, {"type": "note_off", "time": 2082, "note": 64, "velocity": 119, "channel": 0}, {"type": "note_on", "time": 1606, "note": 69, "velocity": 112, "channel": 0}, {"type": "note_off", "time": 2439, "note": 69, "velocity": 112, "channel": 0}, {"type": "note_on", "time": 1903, "note": 67, "velocity": 108, "channel": 0}, {"type": "note_off", "time": 2558, "note": 67, "velocity": 108, "channel": 0}, {"type": "note_on", "time": 2379, "note": 60, "velocity": 106, "channel": 0}, {"type": "note_off", "time": 2558, "note": 60, "velocity": 106, "channel": 0}, {"type": "note_on", "time": 1189, "note": 63, "velocity": 118, "channel": 0}, {"type": "note_off", "time": 2796, "note": 63, "velocity": 118, "channel": 0}, {"type": "note_on", "time": 1844, "note": 67, "velocity": 107, "channel": 0}, {"type": "note_off", "time": 2914, "note": 67, "velocity": 107, "channel": 0}, {"type": "note_on", "time": 951, "note": 62, "velocity": 116, "channel": 0}, {"type": "note_off", "time": 2379, "note": 62, "velocity": 116, "channel": 0}, {"type": "note_on", "time": 1070, "note": 58, "velocity": 94, "channel": 0}, {"type": "note_off", "time": 4402, "note": 58, "velocity": 94, "channel": 0}, {"type": "note_on", "time": 297, "note": 60, "velocity": 103, "channel": 0}, {"type": "note_off", "time": 3271, "note": 60, "velocity": 103, "channel": 0}, {"type": "note_on", "time": 654, "note": 62, "velocity": 109, "channel": 0}, {"type": "note_off", "time": 3271, "note": 62, "velocity": 109, "channel": 0}, {"type": "note_on", "time": 1011, "note": 59, "velocity": 101, "channel": 0}, {"type": "note_off", "time": 3688, "note": 59, "velocity": 101, "channel": 0}, {"type": "note_on", "time": 356, "note": 55, "velocity": 96, "channel": 0}, {"type": "note_off", "time": 4045, "note": 55, "velocity": 96, "channel": 0}, {"type": "note_on", "time": 178, "note": 57, "velocity": 95, "channel": 0}, {"type": "note_off", "time": 2379, "note": 57, "velocity": 95, "channel": 0}, {"type": "note_on", "time": 2914, "note": 60, "velocity": 110, "channel": 0}, {"type": "note_off", "time": 2558, "note": 60, "velocity": 110, "channel": 0}, {"type": "note_on", "time": 1487, "note": 61, "velocity": 110, "channel": 0}, {"type": "note_off", "time": 1665, "note": 61, "velocity": 110, "channel": 0}, {"type": "note_on", "time": 2082, "note": 63, "velocity": 113, "channel": 0}, {"type": "note_off", "time": 1844, "note": 63, "velocity": 113, "channel": 0}, {"type": "note_on", "time": 2677, "note": 65, "velocity": 109, "channel": 0}, {"type": "note_off", "time": 3093, "note": 65, "velocity": 109, "channel": 0}, {"type": "note_on", "time": 3350, "note": 65, "velocity": 102, "channel": 0}, {"type": "note_off", "time": 10457, "note": 65, "velocity": 102, "channel": 0}, {"type": "note_on", "time": 250, "note": 63, "velocity": 113, "channel": 0}, {"type": "note_off", "time": 2342, "note": 63, "velocity": 113, "channel": 0}, {"type": "note_on", "time": 0, "note": 65, "velocity": 101, "channel": 0}, {"type": "note_off", "time": 3095, "note": 65, "velocity": 101, "channel": 0}, {"type": "note_on", "time": 460, "note": 60, "velocity": 102, "channel": 0}, {"type": "note_off", "time": 1547, "note": 60, "velocity": 102, "channel": 0}, {"type": "note_on", "time": 167, "note": 62, "velocity": 100, "channel": 0}, {"type": "note_off", "time": 1589, "note": 62, "velocity": 100, "channel": 0}, {"type": "note_on", "time": 1784, "note": 58, "velocity": 89, "channel": 0}, {"type": "note_off", "time": 11659, "note": 58, "velocity": 89, "channel": 0}, {"type": "note_on", "time": 7257, "note": 58, "velocity": 97, "channel": 0}, {"type": "note_off", "time": 1070, "note": 58, "velocity": 97, "channel": 0}, {"type": "note_on", "time": 356, "note": 58, "velocity": 108, "channel": 0}, {"type": "note_off", "time": 1041, "note": 58, "velocity": 108, "channel": 0}, {"type": "note_on", "time": 148, "note": 58, "velocity": 109, "channel": 0}, {"type": "note_off", "time": 1576, "note": 58, "velocity": 109, "channel": 0}, {"type": "note_on", "time": 684, "note": 58, "velocity": 107, "channel": 0}, {"type": "note_off", "time": 1754, "note": 58, "velocity": 107, "channel": 0}, {"type": "note_on", "time": 271, "note": 58, "velocity": 102, "channel": 0}, {"type": "note_off", "time": 1219, "note": 58, "velocity": 102, "channel": 0}, {"type": "note_on", "time": 323, "note": 58, "velocity": 108, "channel": 0}, {"type": "note_off", "time": 832, "note": 58, "velocity": 108, "channel": 0}, {"type": "note_on", "time": 475, "note": 58, "velocity": 112, "channel": 0}, {"type": "note_off", "time": 773, "note": 58, "velocity": 112, "channel": 0}, {"type": "note_on", "time": 178, "note": 58, "velocity": 111, "channel": 0}, {"type": "note_off", "time": 1100, "note": 58, "velocity": 111, "channel": 0}, {"type": "note_on", "time": 565, "note": 58, "velocity": 103, "channel": 0}, {"type": "note_off", "time": 2290, "note": 58, "velocity": 103, "channel": 0}, {"type": "note_on", "time": 327, "note": 58, "velocity": 102, "channel": 0}, {"type": "note_off", "time": 1635, "note": 58, "velocity": 102, "channel": 0}, {"type": "note_on", "time": 1338, "note": 58, "velocity": 105, "channel": 0}, {"type": "note_off", "time": 1844, "note": 58, "velocity": 105, "channel": 0}, {"type": "note_on", "time": 0, "note": 58, "velocity": 117, "channel": 0}, {"type": "note_off", "time": 2022, "note": 58, "velocity": 117, "channel": 0}, {"type": "note_on", "time": 0, "note": 58, "velocity": 104, "channel": 0}, {"type": "note_off", "time": 2260, "note": 58, "velocity": 104, "channel": 0}, {"type": "note_on", "time": 356, "note": 58, "velocity": 114, "channel": 0}, {"type": "note_off", "time": 2944, "note": 58, "velocity": 114, "channel": 0}, {"type": "note_on", "time": 327, "note": 58, "velocity": 102, "channel": 0}, {"type": "note_off", "time": 3033, "note": 58, "velocity": 102, "channel": 0}, {"type": "note_on", "time": 118, "note": 58, "velocity": 106, "channel": 0}, {"type": "note_off", "time": 3896, "note": 58, "velocity": 106, "channel": 0}, {"type": "note_on", "time": 267, "note": 58, "velocity": 102, "channel": 0}, {"type": "note_off", "time": 1903, "note": 58, "velocity": 102, "channel": 0}, {"type": "note_on", "time": 0, "note": 58, "velocity": 102, "channel": 0}, {"type": "note_off", "time": 2260, "note": 58, "velocity": 102, "channel": 0}, {"type": "note_on", "time": 356, "note": 58, "velocity": 102, "channel": 0}, {"type": "note_off", "time": 5116, "note": 58, "velocity": 102, "channel": 0}, {"type": "note_on", "time": 832, "note": 58, "velocity": 10, "channel": 0}, {"type": "note_off", "time": 2082, "note": 58, "velocity": 10, "channel": 0}, {"type": "note_on", "time": 654, "note": 58, "velocity": 96, "channel": 0}, {"type": "note_off", "time": 7644, "note": 58, "velocity": 96, "channel": 0}, {"type": "note_on", "time": 446, "note": 58, "velocity": 102, "channel": 0}, {"type": "note_off", "time": 2409, "note": 58, "velocity": 102, "channel": 0}, {"type": "note_on", "time": 208, "note": 58, "velocity": 101, "channel": 0}, {"type": "note_off", "time": 386, "note": 58, "velocity": 101, "channel": 0}, {"type": "note_on", "time": 0, "note": 58, "velocity": 100, "channel": 0}, {"type": "note_off", "time": 1933, "note": 58, "velocity": 100, "channel": 0}, {"type": "note_on", "time": 59, "note": 62, "velocity": 111, "channel": 0}, {"type": "note_off", "time": 2171, "note": 62, "velocity": 111, "channel": 0}, {"type": "note_on", "time": 59, "note": 65, "velocity": 110, "channel": 0}, {"type": "note_off", "time": 1695, "note": 65, "velocity": 110, "channel": 0}, {"type": "note_on", "time": 0, "note": 64, "velocity": 116, "channel": 0}, {"type": "note_off", "time": 1487, "note": 64, "velocity": 116, "channel": 0}, {"type": "note_on", "time": 0, "note": 63, "velocity": 112, "channel": 0}, {"type": "note_off", "time": 2528, "note": 63, "velocity": 112, "channel": 0}, {"type": "note_on", "time": 327, "note": 58, "velocity": 95, "channel": 0}, {"type": "note_off", "time": 1903, "note": 58, "velocity": 95, "channel": 0}, {"type": "note_on", "time": 0, "note": 63, "velocity": 108, "channel": 0}, {"type": "note_off", "time": 1219, "note": 63, "velocity": 108, "channel": 0}, {"type": "note_on", "time": 208, "note": 63, "velocity": 114, "channel": 0}, {"type": "note_off", "time": 4104, "note": 63, "velocity": 114, "channel": 0}, {"type": "note_on", "time": 594, "note": 62, "velocity": 105, "channel": 0}, {"type": "note_off", "time": 684, "note": 62, "velocity": 105, "channel": 0}, {"type": "note_on", "time": 89, "note": 63, "velocity": 111, "channel": 0}, {"type": "note_off", "time": 1398, "note": 63, "velocity": 111, "channel": 0}, {"type": "note_on", "time": 118, "note": 62, "velocity": 107, "channel": 0}, {"type": "note_off", "time": 1160, "note": 62, "velocity": 107, "channel": 0}, {"type": "note_on", "time": 178, "note": 63, "velocity": 112, "channel": 0}, {"type": "note_off", "time": 1308, "note": 63, "velocity": 112, "channel": 0}, {"type": "note_on", "time": 89, "note": 62, "velocity": 106, "channel": 0}, {"type": "note_off", "time": 1160, "note": 62, "velocity": 106, "channel": 0}, {"type": "note_on", "time": 267, "note": 61, "velocity": 101, "channel": 0}, {"type": "note_off", "time": 1606, "note": 61, "velocity": 101, "channel": 0}, {"type": "note_on", "time": 327, "note": 60, "velocity": 101, "channel": 0}, {"type": "note_off", "time": 1576, "note": 60, "velocity": 101, "channel": 0}, {"type": "note_on", "time": 4461, "note": 60, "velocity": 91, "channel": 0}, {"type": "note_off", "time": 1338, "note": 60, "velocity": 91, "channel": 0}, {"type": "note_on", "time": 356, "note": 58, "velocity": 100, "channel": 0}, {"type": "note_on", "time": 1576, "note": 59, "velocity": 100, "channel": 0}, {"type": "note_off", "time": 0, "note": 58, "velocity": 100, "channel": 0}, {"type": "note_off", "time": 951, "note": 59, "velocity": 100, "channel": 0}, {"type": "note_on", "time": 0, "note": 58, "velocity": 96, "channel": 0}, {"type": "note_off", "time": 1963, "note": 58, "velocity": 96, "channel": 0}, {"type": "note_on", "time": 89, "note": 57, "velocity": 97, "channel": 0}, {"type": "note_off", "time": 1338, "note": 57, "velocity": 97, "channel": 0}, {"type": "note_on", "time": 3271, "note": 58, "velocity": 98, "channel": 0}, {"type": "note_off", "time": 1695, "note": 58, "velocity": 98, "channel": 0}, {"type": "note_on", "time": 684, "note": 54, "velocity": 96, "channel": 0}, {"type": "note_off", "time": 1665, "note": 54, "velocity": 96, "channel": 0}, {"type": "note_on", "time": 118, "note": 56, "velocity": 95, "channel": 0}, {"type": "note_off", "time": 1457, "note": 56, "velocity": 95, "channel": 0}, {"type": "note_on", "time": 1011, "note": 54, "velocity": 92, "channel": 0}, {"type": "note_off", "time": 1457, "note": 54, "velocity": 92, "channel": 0}, {"type": "note_on", "time": 118, "note": 53, "velocity": 101, "channel": 0}, {"type": "note_off", "time": 2468, "note": 53, "velocity": 101, "channel": 0}, {"type": "note_on", "time": 33254, "note": 50, "velocity": 99, "channel": 0}, {"type": "note_off", "time": 1725, "note": 50, "velocity": 99, "channel": 0}, {"type": "note_on", "time": 1606, "note": 51, "velocity": 94, "channel": 0}, {"type": "note_off", "time": 2201, "note": 51, "velocity": 94, "channel": 0}, {"type": "note_on", "time": 3033, "note": 53, "velocity": 102, "channel": 0}, {"type": "note_off", "time": 3539, "note": 53, "velocity": 102, "channel": 0}, {"type": "note_on", "time": 148, "note": 51, "velocity": 90, "channel": 0}, {"type": "note_off", "time": 2141, "note": 51, "velocity": 90, "channel": 0}, {"type": "note_on", "time": 394, "note": 58, "velocity": 99, "channel": 0}, {"type": "note_off", "time": 11879, "note": 58, "velocity": 99, "channel": 0}, {"type": "note_on", "time": 167, "note": 55, "velocity": 95, "channel": 0}, {"type": "note_off", "time": 962, "note": 55, "velocity": 95, "channel": 0}, {"type": "note_on", "time": 167, "note": 56, "velocity": 92, "channel": 0}, {"type": "note_off", "time": 9620, "note": 56, "velocity": 92, "channel": 0}, {"type": "note_on", "time": 0, "note": 52, "velocity": 91, "channel": 0}, {"type": "note_off", "time": 1213, "note": 52, "velocity": 91, "channel": 0}, {"type": "note_on", "time": 209, "note": 55, "velocity": 91, "channel": 0}, {"type": "note_off", "time": 6316, "note": 55, "velocity": 91, "channel": 0}, {"type": "note_on", "time": 543, "note": 53, "velocity": 101, "channel": 0}, {"type": "note_off", "time": 3304, "note": 53, "velocity": 101, "channel": 0}, {"type": "note_on", "time": 543, "note": 51, "velocity": 88, "channel": 0}, {"type": "note_off", "time": 3890, "note": 51, "velocity": 88, "channel": 0}, {"type": "note_on", "time": 1589, "note": 53, "velocity": 87, "channel": 0}, {"type": "note_off", "time": 31329, "note": 53, "velocity": 87, "channel": 0}, {"type": "note_on", "time": 52619, "note": 64, "velocity": 111, "channel": 0}, {"type": "note_off", "time": 5532, "note": 64, "velocity": 111, "channel": 0}, {"type": "note_on", "time": 0, "note": 59, "velocity": 93, "channel": 0}, {"type": "note_off", "time": 5651, "note": 59, "velocity": 93, "channel": 0}, {"type": "note_on", "time": 1725, "note": 56, "velocity": 89, "channel": 0}, {"type": "note_off", "time": 4580, "note": 56, "velocity": 89, "channel": 0}, {"type": "note_on", "time": 0, "note": 58, "velocity": 102, "channel": 0}, {"type": "note_off", "time": 3807, "note": 58, "velocity": 102, "channel": 0}, {"type": "note_on", "time": 3633, "note": 58, "velocity": 105, "channel": 0}, {"type": "note_off", "time": 2133, "note": 58, "velocity": 105, "channel": 0}, {"type": "note_on", "time": 209, "note": 59, "velocity": 85, "channel": 0}, {"type": "note_off", "time": 5103, "note": 59, "velocity": 85, "channel": 0}, {"type": "note_on", "time": 125, "note": 63, "velocity": 112, "channel": 0}, {"type": "note_off", "time": 4726, "note": 63, "velocity": 112, "channel": 0}, {"type": "note_on", "time": 1338, "note": 65, "velocity": 108, "channel": 0}, {"type": "note_off", "time": 4684, "note": 65, "velocity": 108, "channel": 0}, {"type": "note_on", "time": 1840, "note": 70, "velocity": 98, "channel": 0}, {"type": "note_off", "time": 5981, "note": 70, "velocity": 98, "channel": 0}, {"type": "note_on", "time": 1924, "note": 77, "velocity": 101, "channel": 0}, {"type": "note_off", "time": 3513, "note": 77, "velocity": 101, "channel": 0}, {"type": "note_on", "time": 16020, "note": 44, "velocity": 98, "channel": 0}, {"type": "note_off", "time": 3764, "note": 44, "velocity": 98, "channel": 0}, {"type": "note_on", "time": 627, "note": 51, "velocity": 89, "channel": 0}, {"type": "note_off", "time": 2844, "note": 51, "velocity": 89, "channel": 0}, {"type": "note_on", "time": 41, "note": 56, "velocity": 82, "channel": 0}, {"type": "note_off", "time": 4350, "note": 56, "velocity": 82, "channel": 0}, {"type": "note_on", "time": 8282, "note": 57, "velocity": 103, "channel": 0}, {"type": "note_off", "time": 1296, "note": 57, "velocity": 103, "channel": 0}, {"type": "note_on", "time": 0, "note": 58, "velocity": 90, "channel": 0}, {"type": "note_off", "time": 4852, "note": 58, "velocity": 90, "channel": 0}, {"type": "note_on", "time": 0, "note": 63, "velocity": 99, "channel": 0}, {"type": "note_off", "time": 5019, "note": 63, "velocity": 99, "channel": 0}, {"type": "note_on", "time": 1965, "note": 65, "velocity": 110, "channel": 0}, {"type": "note_off", "time": 3764, "note": 65, "velocity": 110, "channel": 0}, {"type": "note_on", "time": 0, "note": 66, "velocity": 110, "channel": 0}, {"type": "note_off", "time": 2509, "note": 66, "velocity": 110, "channel": 0}, {"type": "note_on", "time": 376, "note": 65, "velocity": 107, "channel": 0}, {"type": "note_off", "time": 2509, "note": 65, "velocity": 107, "channel": 0}, {"type": "note_on", "time": 4475, "note": 65, "velocity": 97, "channel": 0}, {"type": "note_off", "time": 6692, "note": 65, "velocity": 97, "channel": 0}, {"type": "note_on", "time": 83, "note": 61, "velocity": 100, "channel": 0}, {"type": "note_off", "time": 4224, "note": 61, "velocity": 100, "channel": 0}, {"type": "note_on", "time": 1380, "note": 58, "velocity": 97, "channel": 0}, {"type": "note_off", "time": 6065, "note": 58, "velocity": 97, "channel": 0}, {"type": "note_on", "time": 15560, "note": 64, "velocity": 113, "channel": 0}, {"type": "note_off", "time": 5228, "note": 64, "velocity": 113, "channel": 0}, {"type": "note_on", "time": 543, "note": 63, "velocity": 115, "channel": 0}, {"type": "note_off", "time": 3011, "note": 63, "velocity": 115, "channel": 0}, {"type": "note_on", "time": 543, "note": 61, "velocity": 92, "channel": 0}, {"type": "note_off", "time": 2886, "note": 61, "velocity": 92, "channel": 0}, {"type": "note_on", "time": 501, "note": 64, "velocity": 109, "channel": 0}, {"type": "note_off", "time": 4141, "note": 64, "velocity": 109, "channel": 0}, {"type": "note_on", "time": 0, "note": 61, "velocity": 92, "channel": 0}, {"type": "note_off", "time": 2384, "note": 61, "velocity": 92, "channel": 0}, {"type": "note_on", "time": 250, "note": 63, "velocity": 111, "channel": 0}, {"type": "note_off", "time": 3429, "note": 63, "velocity": 111, "channel": 0}, {"type": "note_on", "time": 543, "note": 61, "velocity": 79, "channel": 0}, {"type": "note_off", "time": 2969, "note": 61, "velocity": 79, "channel": 0}, {"type": "note_on", "time": 125, "note": 67, "velocity": 95, "channel": 0}, {"type": "note_off", "time": 4099, "note": 67, "velocity": 95, "channel": 0}, {"type": "note_on", "time": 83, "note": 73, "velocity": 99, "channel": 0}, {"type": "note_off", "time": 2467, "note": 73, "velocity": 99, "channel": 0}, {"type": "note_on", "time": 125, "note": 72, "velocity": 103, "channel": 0}, {"type": "note_off", "time": 3513, "note": 72, "velocity": 103, "channel": 0}, {"type": "note_on", "time": 0, "note": 70, "velocity": 103, "channel": 0}, {"type": "note_off", "time": 2342, "note": 70, "velocity": 103, "channel": 0}, {"type": "note_on", "time": 125, "note": 68, "velocity": 94, "channel": 0}, {"type": "note_off", "time": 4559, "note": 68, "velocity": 94, "channel": 0}, {"type": "note_on", "time": 1756, "note": 67, "velocity": 103, "channel": 0}, {"type": "note_off", "time": 3178, "note": 67, "velocity": 103, "channel": 0}, {"type": "note_on", "time": 209, "note": 65, "velocity": 100, "channel": 0}, {"type": "note_off", "time": 3555, "note": 65, "velocity": 100, "channel": 0}, {"type": "note_on", "time": 543, "note": 72, "velocity": 97, "channel": 0}, {"type": "note_off", "time": 2467, "note": 72, "velocity": 97, "channel": 0}, {"type": "note_on", "time": 0, "note": 70, "velocity": 93, "channel": 0}, {"type": "note_off", "time": 2844, "note": 70, "velocity": 93, "channel": 0}, {"type": "note_on", "time": 711, "note": 76, "velocity": 101, "channel": 0}, {"type": "note_off", "time": 3011, "note": 76, "velocity": 101, "channel": 0}, {"type": "note_on", "time": 1284, "note": 78, "velocity": 107, "channel": 0}, {"type": "note_off", "time": 1070, "note": 78, "velocity": 107, "channel": 0}, {"type": "note_on", "time": 1492, "note": 81, "velocity": 102, "channel": 0}, {"type": "note_off", "time": 3890, "note": 81, "velocity": 102, "channel": 0}, {"type": "note_on", "time": 878, "note": 84, "velocity": 90, "channel": 0}, {"type": "note_off", "time": 2091, "note": 84, "velocity": 90, "channel": 0}, {"type": "note_on", "time": 1505, "note": 84, "velocity": 99, "channel": 0}, {"type": "note_off", "time": 4350, "note": 84, "velocity": 99, "channel": 0}, {"type": "note_on", "time": 1045, "note": 75, "velocity": 107, "channel": 0}, {"type": "note_off", "time": 3890, "note": 75, "velocity": 107, "channel": 0}, {"type": "note_on", "time": 292, "note": 70, "velocity": 104, "channel": 0}, {"type": "note_off", "time": 2509, "note": 70, "velocity": 104, "channel": 0}, {"type": "note_on", "time": 167, "note": 67, "velocity": 102, "channel": 0}, {"type": "note_off", "time": 3053, "note": 67, "velocity": 102, "channel": 0}, {"type": "note_on", "time": 167, "note": 63, "velocity": 102, "channel": 0}, {"type": "note_off", "time": 2342, "note": 63, "velocity": 102, "channel": 0}, {"type": "note_on", "time": 627, "note": 70, "velocity": 95, "channel": 0}, {"type": "note_off", "time": 1756, "note": 70, "velocity": 95, "channel": 0}, {"type": "note_on", "time": 209, "note": 69, "velocity": 95, "channel": 0}, {"type": "note_off", "time": 1547, "note": 69, "velocity": 95, "channel": 0}, {"type": "note_on", "time": 376, "note": 70, "velocity": 84, "channel": 0}, {"type": "note_off", "time": 6985, "note": 70, "velocity": 84, "channel": 0}, {"type": "note_on", "time": 11461, "note": 79, "velocity": 109, "channel": 0}, {"type": "note_off", "time": 2049, "note": 79, "velocity": 109, "channel": 0}, {"type": "note_on", "time": 376, "note": 75, "velocity": 95, "channel": 0}, {"type": "note_off", "time": 1882, "note": 75, "velocity": 95, "channel": 0}, {"type": "note_on", "time": 125, "note": 71, "velocity": 98, "channel": 0}, {"type": "note_off", "time": 2091, "note": 71, "velocity": 98, "channel": 0}, {"type": "note_on", "time": 0, "note": 68, "velocity": 92, "channel": 0}, {"type": "note_off", "time": 1296, "note": 68, "velocity": 92, "channel": 0}, {"type": "note_on", "time": 125, "note": 66, "velocity": 101, "channel": 0}, {"type": "note_off", "time": 3011, "note": 66, "velocity": 101, "channel": 0}, {"type": "note_on", "time": 0, "note": 71, "velocity": 86, "channel": 0}, {"type": "note_off", "time": 1798, "note": 71, "velocity": 86, "channel": 0}, {"type": "note_on", "time": 878, "note": 75, "velocity": 108, "channel": 0}, {"type": "note_off", "time": 3806, "note": 75, "velocity": 108, "channel": 0}, {"type": "note_on", "time": 41, "note": 71, "velocity": 111, "channel": 0}, {"type": "note_off", "time": 3095, "note": 71, "velocity": 111, "channel": 0}, {"type": "note_on", "time": 1683, "note": 64, "velocity": 106, "channel": 0}, {"type": "note_off", "time": 684, "note": 64, "velocity": 106, "channel": 0}, {"type": "note_on", "time": 178, "note": 64, "velocity": 113, "channel": 0}, {"type": "note_off", "time": 594, "note": 64, "velocity": 113, "channel": 0}, {"type": "note_on", "time": 118, "note": 62, "velocity": 110, "channel": 0}, {"type": "note_off", "time": 713, "note": 62, "velocity": 110, "channel": 0}, {"type": "note_on", "time": 178, "note": 61, "velocity": 102, "channel": 0}, {"type": "note_off", "time": 773, "note": 61, "velocity": 102, "channel": 0}, {"type": "note_on", "time": 208, "note": 56, "velocity": 98, "channel": 0}, {"type": "note_off", "time": 2260, "note": 56, "velocity": 98, "channel": 0}, {"type": "note_on", "time": 3509, "note": 58, "velocity": 100, "channel": 0}, {"type": "note_off", "time": 2111, "note": 58, "velocity": 100, "channel": 0}, {"type": "note_on", "time": 1963, "note": 56, "velocity": 94, "channel": 0}, {"type": "note_off", "time": 3301, "note": 56, "velocity": 94, "channel": 0}, {"type": "note_on", "time": 981, "note": 53, "velocity": 97, "channel": 0}, {"type": "note_off", "time": 892, "note": 53, "velocity": 97, "channel": 0}, {"type": "note_on", "time": 118, "note": 55, "velocity": 78, "channel": 0}, {"type": "note_off", "time": 26710, "note": 55, "velocity": 78, "channel": 0}, {"type": "note_on", "time": 16511, "note": 54, "velocity": 105, "channel": 0}, {"type": "note_off", "time": 1673, "note": 54, "velocity": 105, "channel": 0}, {"type": "note_on", "time": 41, "note": 55, "velocity": 105, "channel": 0}, {"type": "note_off", "time": 2760, "note": 55, "velocity": 105, "channel": 0}, {"type": "note_on", "time": 0, "note": 58, "velocity": 104, "channel": 0}, {"type": "note_off", "time": 2928, "note": 58, "velocity": 104, "channel": 0}, {"type": "note_on", "time": 1714, "note": 60, "velocity": 116, "channel": 0}, {"type": "note_off", "time": 2969, "note": 60, "velocity": 116, "channel": 0}, {"type": "note_on", "time": 83, "note": 58, "velocity": 100, "channel": 0}, {"type": "note_off", "time": 3095, "note": 58, "velocity": 100, "channel": 0}, {"type": "note_on", "time": 125, "note": 62, "velocity": 118, "channel": 0}, {"type": "note_off", "time": 1673, "note": 62, "velocity": 118, "channel": 0}, {"type": "note_on", "time": 83, "note": 63, "velocity": 119, "channel": 0}, {"type": "note_off", "time": 17484, "note": 63, "velocity": 119, "channel": 0}, {"type": "note_on", "time": 41, "note": 61, "velocity": 100, "channel": 0}, {"type": "note_off", "time": 3848, "note": 61, "velocity": 100, "channel": 0}, {"type": "note_on", "time": 167, "note": 58, "velocity": 90, "channel": 0}, {"type": "note_off", "time": 4141, "note": 58, "velocity": 90, "channel": 0}, {"type": "note_on", "time": 1631, "note": 60, "velocity": 115, "channel": 0}, {"type": "note_off", "time": 1338, "note": 60, "velocity": 115, "channel": 0}, {"type": "note_on", "time": 167, "note": 61, "velocity": 108, "channel": 0}, {"type": "note_off", "time": 3304, "note": 61, "velocity": 108, "channel": 0}, {"type": "note_on", "time": 376, "note": 60, "velocity": 113, "channel": 0}, {"type": "note_off", "time": 1464, "note": 60, "velocity": 113, "channel": 0}, {"type": "note_on", "time": 83, "note": 61, "velocity": 115, "channel": 0}, {"type": "note_off", "time": 3806, "note": 61, "velocity": 115, "channel": 0}, {"type": "note_on", "time": 250, "note": 58, "velocity": 92, "channel": 0}, {"type": "note_off", "time": 8156, "note": 58, "velocity": 92, "channel": 0}, {"type": "note_on", "time": 42414, "note": 72, "velocity": 109, "channel": 0}, {"type": "note_off", "time": 2426, "note": 72, "velocity": 109, "channel": 0}, {"type": "note_on", "time": 2467, "note": 69, "velocity": 110, "channel": 0}, {"type": "note_off", "time": 3137, "note": 69, "velocity": 110, "channel": 0}, {"type": "note_on", "time": 1924, "note": 58, "velocity": 97, "channel": 0}, {"type": "note_off", "time": 3513, "note": 58, "velocity": 97, "channel": 0}, {"type": "note_on", "time": 1673, "note": 72, "velocity": 107, "channel": 0}, {"type": "note_off", "time": 3388, "note": 72, "velocity": 107, "channel": 0}, {"type": "note_on", "time": 669, "note": 69, "velocity": 112, "channel": 0}, {"type": "note_off", "time": 962, "note": 69, "velocity": 112, "channel": 0}, {"type": "note_on", "time": 167, "note": 71, "velocity": 105, "channel": 0}, {"type": "note_off", "time": 1505, "note": 71, "velocity": 105, "channel": 0}, {"type": "note_on", "time": 0, "note": 69, "velocity": 106, "channel": 0}, {"type": "note_off", "time": 1338, "note": 69, "velocity": 106, "channel": 0}, {"type": "note_on", "time": 209, "note": 65, "velocity": 106, "channel": 0}, {"type": "note_off", "time": 3931, "note": 65, "velocity": 106, "channel": 0}, {"type": "note_on", "time": 836, "note": 62, "velocity": 113, "channel": 0}, {"type": "note_off", "time": 3639, "note": 62, "velocity": 113, "channel": 0}, {"type": "note_on", "time": 1129, "note": 58, "velocity": 101, "channel": 0}, {"type": "note_off", "time": 5688, "note": 58, "velocity": 101, "channel": 0}, {"type": "note_on", "time": 376, "note": 57, "velocity": 102, "channel": 0}, {"type": "note_off", "time": 3304, "note": 57, "velocity": 102, "channel": 0}, {"type": "note_on", "time": 711, "note": 53, "velocity": 100, "channel": 0}, {"type": "note_off", "time": 3471, "note": 53, "velocity": 100, "channel": 0}, {"type": "note_on", "time": 2007, "note": 55, "velocity": 99, "channel": 0}, {"type": "note_off", "time": 3806, "note": 55, "velocity": 99, "channel": 0}, {"type": "note_on", "time": 460, "note": 56, "velocity": 103, "channel": 0}, {"type": "note_off", "time": 1924, "note": 56, "velocity": 103, "channel": 0}, {"type": "note_on", "time": 83, "note": 57, "velocity": 98, "channel": 0}, {"type": "note_off", "time": 8449, "note": 57, "velocity": 98, "channel": 0}, {"type": "note_on", "time": 125, "note": 52, "velocity": 106, "channel": 0}, {"type": "note_off", "time": 1171, "note": 52, "velocity": 106, "channel": 0}, {"type": "note_on", "time": 209, "note": 51, "velocity": 98, "channel": 0}, {"type": "note_off", "time": 5019, "note": 51, "velocity": 98, "channel": 0}, {"type": "note_on", "time": 1422, "note": 49, "velocity": 96, "channel": 0}, {"type": "note_off", "time": 836, "note": 49, "velocity": 96, "channel": 0}, {"type": "note_on", "time": 125, "note": 50, "velocity": 102, "channel": 0}, {"type": "note_off", "time": 3053, "note": 50, "velocity": 102, "channel": 0}, {"type": "note_on", "time": 167, "note": 51, "velocity": 94, "channel": 0}, {"type": "note_off", "time": 3053, "note": 51, "velocity": 94, "channel": 0}, {"type": "note_on", "time": 2049, "note": 53, "velocity": 106, "channel": 0}, {"type": "note_on", "time": 2551, "note": 54, "velocity": 99, "channel": 0}, {"type": "note_off", "time": 0, "note": 53, "velocity": 106, "channel": 0}, {"type": "note_off", "time": 1589, "note": 54, "velocity": 99, "channel": 0}, {"type": "note_on", "time": 250, "note": 55, "velocity": 98, "channel": 0}, {"type": "note_off", "time": 2467, "note": 55, "velocity": 98, "channel": 0}, {"type": "note_on", "time": 376, "note": 54, "velocity": 93, "channel": 0}, {"type": "note_off", "time": 794, "note": 54, "velocity": 93, "channel": 0}, {"type": "note_on", "time": 0, "note": 51, "velocity": 99, "channel": 0}, {"type": "note_off", "time": 2300, "note": 51, "velocity": 99, "channel": 0}, {"type": "note_on", "time": 209, "note": 50, "velocity": 91, "channel": 0}, {"type": "note_off", "time": 9955, "note": 50, "velocity": 91, "channel": 0}, {"type": "note_on", "time": 9453, "note": 50, "velocity": 97, "channel": 0}, {"type": "note_off", "time": 2049, "note": 50, "velocity": 97, "channel": 0}, {"type": "note_on", "time": 167, "note": 53, "velocity": 96, "channel": 0}, {"type": "note_off", "time": 878, "note": 53, "velocity": 96, "channel": 0}, {"type": "note_on", "time": 0, "note": 55, "velocity": 100, "channel": 0}, {"type": "note_off", "time": 1171, "note": 55, "velocity": 100, "channel": 0}, {"type": "note_on", "time": 1213, "note": 58, "velocity": 105, "channel": 0}, {"type": "note_off", "time": 2467, "note": 58, "velocity": 105, "channel": 0}, {"type": "note_on", "time": 292, "note": 59, "velocity": 102, "channel": 0}, {"type": "note_off", "time": 6232, "note": 59, "velocity": 102, "channel": 0}, {"type": "note_on", "time": 102, "note": 61, "velocity": 112, "channel": 0}, {"type": "note_off", "time": 1546, "note": 61, "velocity": 112, "channel": 0}, {"type": "note_on", "time": 1665, "note": 64, "velocity": 113, "channel": 0}, {"type": "note_off", "time": 2379, "note": 64, "velocity": 113, "channel": 0}, {"type": "note_on", "time": 2022, "note": 63, "velocity": 116, "channel": 0}, {"type": "note_off", "time": 2082, "note": 63, "velocity": 116, "channel": 0}, {"type": "note_on", "time": 1249, "note": 60, "velocity": 104, "channel": 0}, {"type": "note_off", "time": 1665, "note": 60, "velocity": 104, "channel": 0}, {"type": "note_on", "time": 4352, "note": 66, "velocity": 111, "channel": 0}, {"type": "note_off", "time": 2049, "note": 66, "velocity": 111, "channel": 0}, {"type": "note_on", "time": 669, "note": 66, "velocity": 111, "channel": 0}, {"type": "note_off", "time": 2384, "note": 66, "velocity": 111, "channel": 0}, {"type": "note_on", "time": 209, "note": 65, "velocity": 108, "channel": 0}, {"type": "note_off", "time": 2718, "note": 65, "velocity": 108, "channel": 0}, {"type": "note_on", "time": 418, "note": 64, "velocity": 115, "channel": 0}, {"type": "note_off", "time": 1840, "note": 64, "velocity": 115, "channel": 0}, {"type": "note_on", "time": 250, "note": 63, "velocity": 109, "channel": 0}, {"type": "note_off", "time": 2258, "note": 63, "velocity": 109, "channel": 0}, {"type": "note_on", "time": 501, "note": 62, "velocity": 111, "channel": 0}, {"type": "note_off", "time": 2467, "note": 62, "velocity": 111, "channel": 0}, {"type": "note_on", "time": 501, "note": 61, "velocity": 103, "channel": 0}, {"type": "note_off", "time": 2091, "note": 61, "velocity": 103, "channel": 0}, {"type": "note_on", "time": 209, "note": 60, "velocity": 90, "channel": 0}, {"type": "note_off", "time": 1714, "note": 60, "velocity": 90, "channel": 0}, {"type": "note_on", "time": 1673, "note": 65, "velocity": 108, "channel": 0}, {"type": "note_off", "time": 2677, "note": 65, "velocity": 108, "channel": 0}, {"type": "note_on", "time": 418, "note": 60, "velocity": 96, "channel": 0}, {"type": "note_off", "time": 1965, "note": 60, "velocity": 96, "channel": 0}, {"type": "note_on", "time": 5814, "note": 58, "velocity": 99, "channel": 0}, {"type": "note_off", "time": 3471, "note": 58, "velocity": 99, "channel": 0}, {"type": "note_on", "time": 418, "note": 56, "velocity": 93, "channel": 0}, {"type": "note_off", "time": 3680, "note": 56, "velocity": 93, "channel": 0}, {"type": "note_on", "time": 4559, "note": 55, "velocity": 100, "channel": 0}, {"type": "note_off", "time": 3304, "note": 55, "velocity": 100, "channel": 0}, {"type": "note_on", "time": 794, "note": 53, "velocity": 97, "channel": 0}, {"type": "note_off", "time": 3346, "note": 53, "velocity": 97, "channel": 0}, {"type": "note_on", "time": 13761, "note": 51, "velocity": 104, "channel": 0}, {"type": "note_off", "time": 1338, "note": 51, "velocity": 104, "channel": 0}, {"type": "note_on", "time": 41, "note": 56, "velocity": 97, "channel": 0}, {"type": "note_off", "time": 1087, "note": 56, "velocity": 97, "channel": 0}, {"type": "note_on", "time": 125, "note": 56, "velocity": 107, "channel": 0}, {"type": "note_off", "time": 2677, "note": 56, "velocity": 107, "channel": 0}, {"type": "note_on", "time": 1464, "note": 58, "velocity": 110, "channel": 0}, {"type": "note_off", "time": 3388, "note": 58, "velocity": 110, "channel": 0}, {"type": "note_on", "time": 794, "note": 60, "velocity": 110, "channel": 0}, {"type": "note_off", "time": 4266, "note": 60, "velocity": 110, "channel": 0}, {"type": "note_on", "time": 418, "note": 58, "velocity": 98, "channel": 0}, {"type": "note_off", "time": 4308, "note": 58, "velocity": 98, "channel": 0}, {"type": "note_on", "time": 167, "note": 60, "velocity": 114, "channel": 0}, {"type": "note_off", "time": 1589, "note": 60, "velocity": 114, "channel": 0}, {"type": "note_on", "time": 167, "note": 61, "velocity": 116, "channel": 0}, {"type": "note_off", "time": 5186, "note": 61, "velocity": 116, "channel": 0}, {"type": "note_on", "time": 4099, "note": 58, "velocity": 86, "channel": 0}, {"type": "note_off", "time": 920, "note": 58, "velocity": 86, "channel": 0}, {"type": "note_on", "time": 83, "note": 60, "velocity": 107, "channel": 0}, {"type": "note_off", "time": 3513, "note": 60, "velocity": 107, "channel": 0}, {"type": "note_on", "time": 250, "note": 58, "velocity": 93, "channel": 0}, {"type": "note_off", "time": 6525, "note": 58, "velocity": 93, "channel": 0}, {"type": "note_on", "time": 26142, "note": 76, "velocity": 116, "channel": 0}, {"type": "note_off", "time": 1464, "note": 76, "velocity": 116, "channel": 0}, {"type": "note_on", "time": 0, "note": 77, "velocity": 107, "channel": 0}, {"type": "note_off", "time": 2384, "note": 77, "velocity": 107, "channel": 0}, {"type": "note_on", "time": 0, "note": 80, "velocity": 103, "channel": 0}, {"type": "note_off", "time": 627, "note": 80, "velocity": 103, "channel": 0}, {"type": "note_on", "time": 2049, "note": 75, "velocity": 110, "channel": 0}, {"type": "note_off", "time": 1463, "note": 75, "velocity": 110, "channel": 0}, {"type": "note_on", "time": 0, "note": 76, "velocity": 119, "channel": 0}, {"type": "note_off", "time": 4141, "note": 76, "velocity": 119, "channel": 0}, {"type": "note_on", "time": 501, "note": 73, "velocity": 104, "channel": 0}, {"type": "note_off", "time": 1547, "note": 73, "velocity": 104, "channel": 0}, {"type": "note_on", "time": 167, "note": 76, "velocity": 100, "channel": 0}, {"type": "note_off", "time": 2091, "note": 76, "velocity": 100, "channel": 0}, {"type": "note_on", "time": 460, "note": 72, "velocity": 105, "channel": 0}, {"type": "note_off", "time": 1213, "note": 72, "velocity": 105, "channel": 0}, {"type": "note_on", "time": 167, "note": 73, "velocity": 112, "channel": 0}, {"type": "note_off", "time": 2258, "note": 73, "velocity": 112, "channel": 0}, {"type": "note_on", "time": 942, "note": 70, "velocity": 107, "channel": 0}, {"type": "note_off", "time": 1487, "note": 70, "velocity": 107, "channel": 0}, {"type": "note_on", "time": 1725, "note": 68, "velocity": 109, "channel": 0}, {"type": "note_off", "time": 1963, "note": 68, "velocity": 109, "channel": 0}, {"type": "note_on", "time": 1606, "note": 65, "velocity": 109, "channel": 0}, {"type": "note_off", "time": 2082, "note": 65, "velocity": 109, "channel": 0}, {"type": "note_on", "time": 1903, "note": 64, "velocity": 112, "channel": 0}, {"type": "note_off", "time": 2260, "note": 64, "velocity": 112, "channel": 0}, {"type": "note_on", "time": 1631, "note": 63, "velocity": 109, "channel": 0}, {"type": "note_off", "time": 2551, "note": 63, "velocity": 109, "channel": 0}, {"type": "note_on", "time": 1766, "note": 72, "velocity": 101, "channel": 0}, {"type": "note_off", "time": 1427, "note": 72, "velocity": 101, "channel": 0}, {"type": "note_on", "time": 2494, "note": 66, "velocity": 102, "channel": 0}, {"type": "note_off", "time": 1464, "note": 66, "velocity": 102, "channel": 0}, {"type": "note_on", "time": 167, "note": 67, "velocity": 97, "channel": 0}, {"type": "note_off", "time": 1798, "note": 67, "velocity": 97, "channel": 0}, {"type": "note_on", "time": 559, "note": 70, "velocity": 106, "channel": 0}, {"type": "note_off", "time": 1546, "note": 70, "velocity": 106, "channel": 0}, {"type": "note_on", "time": 1606, "note": 68, "velocity": 101, "channel": 0}, {"type": "note_off", "time": 1903, "note": 68, "velocity": 101, "channel": 0}, {"type": "note_on", "time": 2201, "note": 60, "velocity": 102, "channel": 0}, {"type": "note_off", "time": 1665, "note": 60, "velocity": 102, "channel": 0}, {"type": "note_on", "time": 1606, "note": 65, "velocity": 108, "channel": 0}, {"type": "note_off", "time": 2082, "note": 65, "velocity": 108, "channel": 0}, {"type": "note_on", "time": 2498, "note": 73, "velocity": 102, "channel": 0}, {"type": "note_off", "time": 1606, "note": 73, "velocity": 102, "channel": 0}, {"type": "note_on", "time": 1427, "note": 72, "velocity": 109, "channel": 0}, {"type": "note_off", "time": 2796, "note": 72, "velocity": 109, "channel": 0}, {"type": "note_on", "time": 1003, "note": 70, "velocity": 96, "channel": 0}, {"type": "note_off", "time": 2300, "note": 70, "velocity": 96, "channel": 0}, {"type": "note_on", "time": 627, "note": 71, "velocity": 108, "channel": 0}, {"type": "note_off", "time": 2844, "note": 71, "velocity": 108, "channel": 0}, {"type": "note_on", "time": 543, "note": 64, "velocity": 103, "channel": 0}, {"type": "note_off", "time": 3011, "note": 64, "velocity": 103, "channel": 0}, {"type": "note_on", "time": 334, "note": 68, "velocity": 90, "channel": 0}, {"type": "note_off", "time": 2802, "note": 68, "velocity": 90, "channel": 0}, {"type": "note_on", "time": 920, "note": 68, "velocity": 99, "channel": 0}, {"type": "note_off", "time": 1965, "note": 68, "velocity": 99, "channel": 0}, {"type": "note_on", "time": 501, "note": 67, "velocity": 92, "channel": 0}, {"type": "note_off", "time": 2928, "note": 67, "velocity": 92, "channel": 0}, {"type": "note_on", "time": 543, "note": 65, "velocity": 98, "channel": 0}, {"type": "note_off", "time": 1171, "note": 65, "velocity": 98, "channel": 0}, {"type": "note_on", "time": 0, "note": 66, "velocity": 103, "channel": 0}, {"type": "note_off", "time": 2467, "note": 66, "velocity": 103, "channel": 0}, {"type": "note_on", "time": 125, "note": 65, "velocity": 102, "channel": 0}, {"type": "note_off", "time": 2216, "note": 65, "velocity": 102, "channel": 0}, {"type": "note_on", "time": 125, "note": 64, "velocity": 112, "channel": 0}, {"type": "note_off", "time": 2467, "note": 64, "velocity": 112, "channel": 0}, {"type": "note_on", "time": 418, "note": 63, "velocity": 111, "channel": 0}, {"type": "note_off", "time": 2635, "note": 63, "velocity": 111, "channel": 0}, {"type": "note_on", "time": 460, "note": 61, "velocity": 100, "channel": 0}, {"type": "note_off", "time": 1965, "note": 61, "velocity": 100, "channel": 0}, {"type": "note_on", "time": 250, "note": 62, "velocity": 101, "channel": 0}, {"type": "note_off", "time": 3639, "note": 62, "velocity": 101, "channel": 0}, {"type": "note_on", "time": 292, "note": 65, "velocity": 101, "channel": 0}, {"type": "note_off", "time": 2718, "note": 65, "velocity": 101, "channel": 0}, {"type": "note_on", "time": 0, "note": 62, "velocity": 105, "channel": 0}, {"type": "note_on", "time": 1003, "note": 63, "velocity": 111, "channel": 0}, {"type": "note_off", "time": 0, "note": 62, "velocity": 105, "channel": 0}, {"type": "note_off", "time": 1547, "note": 63, "velocity": 111, "channel": 0}, {"type": "note_on", "time": 167, "note": 62, "velocity": 102, "channel": 0}, {"type": "note_off", "time": 1422, "note": 62, "velocity": 102, "channel": 0}, {"type": "note_on", "time": 250, "note": 58, "velocity": 94, "channel": 0}, {"type": "note_off", "time": 3262, "note": 58, "velocity": 94, "channel": 0}, {"type": "note_on", "time": 167, "note": 60, "velocity": 99, "channel": 0}, {"type": "note_off", "time": 3011, "note": 60, "velocity": 99, "channel": 0}, {"type": "note_on", "time": 41, "note": 62, "velocity": 103, "channel": 0}, {"type": "note_off", "time": 2133, "note": 62, "velocity": 103, "channel": 0}, {"type": "note_on", "time": 0, "note": 58, "velocity": 94, "channel": 0}, {"type": "note_off", "time": 4601, "note": 58, "velocity": 94, "channel": 0}, {"type": "note_on", "time": 6316, "note": 59, "velocity": 98, "channel": 0}, {"type": "note_off", "time": 1213, "note": 59, "velocity": 98, "channel": 0}, {"type": "note_on", "time": 962, "note": 68, "velocity": 98, "channel": 0}, {"type": "note_off", "time": 1965, "note": 68, "velocity": 98, "channel": 0}, {"type": "note_on", "time": 209, "note": 71, "velocity": 101, "channel": 0}, {"type": "note_off", "time": 794, "note": 71, "velocity": 101, "channel": 0}, {"type": "note_on", "time": 376, "note": 74, "velocity": 105, "channel": 0}, {"type": "note_off", "time": 2342, "note": 74, "velocity": 105, "channel": 0}, {"type": "note_on", "time": 543, "note": 71, "velocity": 103, "channel": 0}, {"type": "note_off", "time": 3555, "note": 71, "velocity": 103, "channel": 0}, {"type": "note_on", "time": 1045, "note": 59, "velocity": 93, "channel": 0}, {"type": "note_off", "time": 627, "note": 59, "velocity": 93, "channel": 0}, {"type": "note_on", "time": 250, "note": 66, "velocity": 87, "channel": 0}, {"type": "note_off", "time": 501, "note": 66, "velocity": 87, "channel": 0}, {"type": "note_on", "time": 460, "note": 68, "velocity": 93, "channel": 0}, {"type": "note_off", "time": 1045, "note": 68, "velocity": 93, "channel": 0}, {"type": "note_on", "time": 376, "note": 71, "velocity": 92, "channel": 0}, {"type": "note_off", "time": 1045, "note": 71, "velocity": 92, "channel": 0}, {"type": "note_on", "time": 209, "note": 72, "velocity": 93, "channel": 0}, {"type": "note_off", "time": 2007, "note": 72, "velocity": 93, "channel": 0}, {"type": "note_on", "time": 752, "note": 70, "velocity": 102, "channel": 0}, {"type": "note_off", "time": 1296, "note": 70, "velocity": 102, "channel": 0}, {"type": "note_on", "time": 501, "note": 70, "velocity": 100, "channel": 0}, {"type": "note_off", "time": 1924, "note": 70, "velocity": 100, "channel": 0}, {"type": "note_on", "time": 334, "note": 71, "velocity": 103, "channel": 0}, {"type": "note_off", "time": 1464, "note": 71, "velocity": 103, "channel": 0}, {"type": "note_on", "time": 41, "note": 72, "velocity": 100, "channel": 0}, {"type": "note_off", "time": 962, "note": 72, "velocity": 100, "channel": 0}, {"type": "note_on", "time": 167, "note": 72, "velocity": 97, "channel": 0}, {"type": "note_off", "time": 1129, "note": 72, "velocity": 97, "channel": 0}, {"type": "note_on", "time": 0, "note": 71, "velocity": 100, "channel": 0}, {"type": "note_off", "time": 1505, "note": 71, "velocity": 100, "channel": 0}, {"type": "note_on", "time": 0, "note": 69, "velocity": 97, "channel": 0}, {"type": "note_off", "time": 1505, "note": 69, "velocity": 97, "channel": 0}, {"type": "note_on", "time": 167, "note": 67, "velocity": 96, "channel": 0}, {"type": "note_off", "time": 878, "note": 67, "velocity": 96, "channel": 0}, {"type": "note_on", "time": 209, "note": 65, "velocity": 102, "channel": 0}, {"type": "note_off", "time": 1003, "note": 65, "velocity": 102, "channel": 0}, {"type": "note_on", "time": 376, "note": 63, "velocity": 107, "channel": 0}, {"type": "note_off", "time": 1924, "note": 63, "velocity": 107, "channel": 0}, {"type": "note_on", "time": 0, "note": 59, "velocity": 100, "channel": 0}, {"type": "note_off", "time": 1505, "note": 59, "velocity": 100, "channel": 0}, {"type": "note_on", "time": 209, "note": 57, "velocity": 101, "channel": 0}, {"type": "note_off", "time": 1045, "note": 57, "velocity": 101, "channel": 0}, {"type": "note_on", "time": 250, "note": 55, "velocity": 98, "channel": 0}, {"type": "note_off", "time": 1087, "note": 55, "velocity": 98, "channel": 0}, {"type": "note_on", "time": 209, "note": 53, "velocity": 100, "channel": 0}, {"type": "note_off", "time": 2091, "note": 53, "velocity": 100, "channel": 0}, {"type": "note_on", "time": 250, "note": 55, "velocity": 97, "channel": 0}, {"type": "note_off", "time": 962, "note": 55, "velocity": 97, "channel": 0}, {"type": "note_on", "time": 418, "note": 58, "velocity": 96, "channel": 0}, {"type": "note_off", "time": 1756, "note": 58, "velocity": 96, "channel": 0}, {"type": "note_on", "time": 41, "note": 60, "velocity": 101, "channel": 0}, {"type": "note_off", "time": 878, "note": 60, "velocity": 101, "channel": 0}, {"type": "note_on", "time": 585, "note": 67, "velocity": 97, "channel": 0}, {"type": "note_off", "time": 1254, "note": 67, "velocity": 97, "channel": 0}, {"type": "note_on", "time": 83, "note": 69, "velocity": 91, "channel": 0}, {"type": "note_off", "time": 1213, "note": 69, "velocity": 91, "channel": 0}, {"type": "note_on", "time": 83, "note": 73, "velocity": 107, "channel": 0}, {"type": "note_off", "time": 2258, "note": 73, "velocity": 107, "channel": 0}, {"type": "note_on", "time": 460, "note": 71, "velocity": 107, "channel": 0}, {"type": "note_off", "time": 11962, "note": 71, "velocity": 107, "channel": 0}, {"type": "note_on", "time": 66, "note": 72, "velocity": 107, "channel": 0}, {"type": "note_off", "time": 3212, "note": 72, "velocity": 107, "channel": 0}, {"type": "note_on", "time": 356, "note": 70, "velocity": 100, "channel": 0}, {"type": "note_off", "time": 2022, "note": 70, "velocity": 100, "channel": 0}, {"type": "note_on", "time": 535, "note": 67, "velocity": 98, "channel": 0}, {"type": "note_off", "time": 2974, "note": 67, "velocity": 98, "channel": 0}, {"type": "note_on", "time": 1706, "note": 70, "velocity": 95, "channel": 0}, {"type": "note_off", "time": 11126, "note": 70, "velocity": 95, "channel": 0}, {"type": "note_on", "time": 11293, "note": 67, "velocity": 106, "channel": 0}, {"type": "note_off", "time": 1589, "note": 67, "velocity": 106, "channel": 0}, {"type": "note_on", "time": 334, "note": 70, "velocity": 107, "channel": 0}, {"type": "note_off", "time": 3095, "note": 70, "velocity": 107, "channel": 0}, {"type": "note_on", "time": 0, "note": 71, "velocity": 112, "channel": 0}, {"type": "note_off", "time": 2760, "note": 71, "velocity": 112, "channel": 0}, {"type": "note_on", "time": 585, "note": 73, "velocity": 111, "channel": 0}, {"type": "note_off", "time": 2593, "note": 73, "velocity": 111, "channel": 0}, {"type": "note_on", "time": 167, "note": 71, "velocity": 110, "channel": 0}, {"type": "note_off", "time": 11377, "note": 71, "velocity": 110, "channel": 0}, {"type": "note_on", "time": 0, "note": 67, "velocity": 62, "channel": 0}, {"type": "note_on", "time": 2760, "note": 70, "velocity": 98, "channel": 0}, {"type": "note_off", "time": 0, "note": 67, "velocity": 62, "channel": 0}, {"type": "note_off", "time": 1422, "note": 70, "velocity": 98, "channel": 0}, {"type": "note_on", "time": 0, "note": 71, "velocity": 108, "channel": 0}, {"type": "note_off", "time": 1254, "note": 71, "velocity": 108, "channel": 0}, {"type": "note_on", "time": 334, "note": 72, "velocity": 111, "channel": 0}, {"type": "note_off", "time": 5856, "note": 72, "velocity": 111, "channel": 0}, {"type": "note_on", "time": 754, "note": 72, "velocity": 111, "channel": 0}, {"type": "note_off", "time": 2022, "note": 72, "velocity": 111, "channel": 0}, {"type": "note_on", "time": 654, "note": 73, "velocity": 113, "channel": 0}, {"type": "note_off", "time": 2796, "note": 73, "velocity": 113, "channel": 0}, {"type": "note_on", "time": 416, "note": 71, "velocity": 109, "channel": 0}, {"type": "note_off", "time": 1963, "note": 71, "velocity": 109, "channel": 0}, {"type": "note_on", "time": 297, "note": 72, "velocity": 110, "channel": 0}, {"type": "note_off", "time": 1070, "note": 72, "velocity": 110, "channel": 0}, {"type": "note_on", "time": 118, "note": 73, "velocity": 110, "channel": 0}, {"type": "note_off", "time": 18025, "note": 73, "velocity": 110, "channel": 0}, {"type": "note_on", "time": 297, "note": 70, "velocity": 105, "channel": 0}, {"type": "note_off", "time": 1903, "note": 70, "velocity": 105, "channel": 0}, {"type": "note_on", "time": 1070, "note": 66, "velocity": 107, "channel": 0}, {"type": "note_off", "time": 773, "note": 66, "velocity": 107, "channel": 0}, {"type": "note_on", "time": 178, "note": 65, "velocity": 111, "channel": 0}, {"type": "note_off", "time": 1665, "note": 65, "velocity": 111, "channel": 0}, {"type": "note_on", "time": 0, "note": 64, "velocity": 116, "channel": 0}, {"type": "note_off", "time": 1784, "note": 64, "velocity": 116, "channel": 0}, {"type": "note_on", "time": 237, "note": 63, "velocity": 112, "channel": 0}, {"type": "note_off", "time": 2111, "note": 63, "velocity": 112, "channel": 0}, {"type": "note_on", "time": 386, "note": 62, "velocity": 108, "channel": 0}, {"type": "note_off", "time": 10351, "note": 62, "velocity": 108, "channel": 0}, {"type": "note_on", "time": 89, "note": 61, "velocity": 102, "channel": 0}, {"type": "note_off", "time": 9220, "note": 61, "velocity": 102, "channel": 0}, {"type": "note_on", "time": 11154, "note": 61, "velocity": 114, "channel": 0}, {"type": "note_off", "time": 2617, "note": 61, "velocity": 114, "channel": 0}, {"type": "note_on", "time": 1041, "note": 62, "velocity": 122, "channel": 0}, {"type": "note_off", "time": 3896, "note": 62, "velocity": 122, "channel": 0}, {"type": "note_on", "time": 1130, "note": 65, "velocity": 114, "channel": 0}, {"type": "note_off", "time": 2082, "note": 65, "velocity": 114, "channel": 0}, {"type": "note_on", "time": 2558, "note": 72, "velocity": 103, "channel": 0}, {"type": "note_off", "time": 2082, "note": 72, "velocity": 103, "channel": 0}, {"type": "note_on", "time": 1963, "note": 65, "velocity": 114, "channel": 0}, {"type": "note_off", "time": 2320, "note": 65, "velocity": 114, "channel": 0}, {"type": "note_on", "time": 1308, "note": 70, "velocity": 109, "channel": 0}, {"type": "note_off", "time": 2379, "note": 70, "velocity": 109, "channel": 0}, {"type": "note_on", "time": 1011, "note": 68, "velocity": 109, "channel": 0}, {"type": "note_off", "time": 3569, "note": 68, "velocity": 109, "channel": 0}, {"type": "note_on", "time": 0, "note": 58, "velocity": 115, "channel": 0}, {"type": "note_off", "time": 3152, "note": 58, "velocity": 115, "channel": 0}, {"type": "note_on", "time": 832, "note": 63, "velocity": 119, "channel": 0}, {"type": "note_off", "time": 4461, "note": 63, "velocity": 119, "channel": 0}, {"type": "note_on", "time": 297, "note": 67, "velocity": 114, "channel": 0}, {"type": "note_off", "time": 3509, "note": 67, "velocity": 114, "channel": 0}, {"type": "note_on", "time": 773, "note": 65, "velocity": 114, "channel": 0}, {"type": "note_off", "time": 4818, "note": 65, "velocity": 114, "channel": 0}, {"type": "note_on", "time": 59, "note": 62, "velocity": 107, "channel": 0}, {"type": "note_off", "time": 773, "note": 62, "velocity": 107, "channel": 0}, {"type": "note_on", "time": 237, "note": 58, "velocity": 107, "channel": 0}, {"type": "note_off", "time": 3450, "note": 58, "velocity": 107, "channel": 0}, {"type": "note_on", "time": 475, "note": 63, "velocity": 115, "channel": 0}, {"type": "note_off", "time": 3866, "note": 63, "velocity": 115, "channel": 0}, {"type": "note_on", "time": 951, "note": 61, "velocity": 110, "channel": 0}, {"type": "note_off", "time": 3450, "note": 61, "velocity": 110, "channel": 0}, {"type": "note_on", "time": 1903, "note": 56, "velocity": 102, "channel": 0}, {"type": "note_off", "time": 3509, "note": 56, "velocity": 102, "channel": 0}, {"type": "note_on", "time": 237, "note": 60, "velocity": 107, "channel": 0}, {"type": "note_off", "time": 4164, "note": 60, "velocity": 107, "channel": 0}, {"type": "note_on", "time": 892, "note": 58, "velocity": 102, "channel": 0}, {"type": "note_off", "time": 4699, "note": 58, "velocity": 102, "channel": 0}, {"type": "note_on", "time": 0, "note": 53, "velocity": 100, "channel": 0}, {"type": "note_off", "time": 3569, "note": 53, "velocity": 100, "channel": 0}, {"type": "note_on", "time": 713, "note": 56, "velocity": 99, "channel": 0}, {"type": "note_off", "time": 1427, "note": 56, "velocity": 99, "channel": 0}, {"type": "note_on", "time": 59, "note": 58, "velocity": 104, "channel": 0}, {"type": "note_off", "time": 4937, "note": 58, "velocity": 104, "channel": 0}, {"type": "note_on", "time": 0, "note": 56, "velocity": 98, "channel": 0}, {"type": "note_off", "time": 3569, "note": 56, "velocity": 98, "channel": 0}, {"type": "note_on", "time": 178, "note": 48, "velocity": 93, "channel": 0}, {"type": "note_off", "time": 4045, "note": 48, "velocity": 93, "channel": 0}, {"type": "note_on", "time": 594, "note": 56, "velocity": 104, "channel": 0}, {"type": "note_off", "time": 892, "note": 56, "velocity": 104, "channel": 0}, {"type": "note_on", "time": 535, "note": 57, "velocity": 99, "channel": 0}, {"type": "note_off", "time": 4057, "note": 57, "velocity": 99, "channel": 0}, {"type": "note_on", "time": 118, "note": 53, "velocity": 95, "channel": 0}, {"type": "note_off", "time": 8031, "note": 53, "velocity": 95, "channel": 0}, {"type": "note_on", "time": 4852, "note": 51, "velocity": 102, "channel": 0}, {"type": "note_off", "time": 2342, "note": 51, "velocity": 102, "channel": 0}, {"type": "note_on", "time": 1835, "note": 63, "velocity": 98, "channel": 0}, {"type": "note_off", "time": 1784, "note": 63, "velocity": 98, "channel": 0}, {"type": "note_on", "time": 2026, "note": 59, "velocity": 93, "channel": 0}, {"type": "note_off", "time": 3848, "note": 59, "velocity": 93, "channel": 0}, {"type": "note_on", "time": 501, "note": 52, "velocity": 96, "channel": 0}, {"type": "note_off", "time": 3890, "note": 52, "velocity": 96, "channel": 0}, {"type": "note_on", "time": 1422, "note": 58, "velocity": 105, "channel": 0}, {"type": "note_off", "time": 3053, "note": 58, "velocity": 105, "channel": 0}, {"type": "note_on", "time": 376, "note": 56, "velocity": 94, "channel": 0}, {"type": "note_off", "time": 3555, "note": 56, "velocity": 94, "channel": 0}, {"type": "note_on", "time": 669, "note": 46, "velocity": 109, "channel": 0}, {"type": "note_off", "time": 4350, "note": 46, "velocity": 109, "channel": 0}, {"type": "note_on", "time": 334, "note": 48, "velocity": 90, "channel": 0}, {"type": "note_off", "time": 2258, "note": 48, "velocity": 90, "channel": 0}, {"type": "note_on", "time": 418, "note": 49, "velocity": 100, "channel": 0}, {"type": "note_off", "time": 5856, "note": 49, "velocity": 100, "channel": 0}, {"type": "note_on", "time": 2091, "note": 51, "velocity": 102, "channel": 0}, {"type": "note_off", "time": 4601, "note": 51, "velocity": 102, "channel": 0}, {"type": "note_on", "time": 1505, "note": 51, "velocity": 94, "channel": 0}, {"type": "note_off", "time": 3931, "note": 51, "velocity": 94, "channel": 0}, {"type": "note_on", "time": 1254, "note": 51, "velocity": 97, "channel": 0}, {"type": "note_off", "time": 4015, "note": 51, "velocity": 97, "channel": 0}, {"type": "note_on", "time": 83, "note": 48, "velocity": 89, "channel": 0}, {"type": "note_off", "time": 3178, "note": 48, "velocity": 89, "channel": 0}, {"type": "note_on", "time": 0, "note": 51, "velocity": 90, "channel": 0}, {"type": "note_off", "time": 50194, "note": 51, "velocity": 90, "channel": 0}, {"type": "note_on", "time": 9369, "note": 53, "velocity": 111, "channel": 0}, {"type": "note_off", "time": 2677, "note": 53, "velocity": 111, "channel": 0}, {"type": "note_on", "time": 0, "note": 55, "velocity": 101, "channel": 0}, {"type": "note_off", "time": 3597, "note": 55, "velocity": 101, "channel": 0}, {"type": "note_on", "time": 250, "note": 58, "velocity": 109, "channel": 0}, {"type": "note_off", "time": 4484, "note": 58, "velocity": 109, "channel": 0}, {"type": "note_on", "time": 0, "note": 60, "velocity": 107, "channel": 0}, {"type": "note_off", "time": 24747, "note": 60, "velocity": 107, "channel": 0}, {"type": "note_on", "time": 466, "note": 58, "velocity": 109, "channel": 0}, {"type": "note_off", "time": 4054, "note": 58, "velocity": 109, "channel": 0}, {"type": "note_on", "time": 0, "note": 55, "velocity": 95, "channel": 0}, {"type": "note_off", "time": 3926, "note": 55, "velocity": 95, "channel": 0}, {"type": "note_on", "time": 1388, "note": 52, "velocity": 106, "channel": 0}, {"type": "note_off", "time": 3764, "note": 52, "velocity": 106, "channel": 0}, {"type": "note_on", "time": 10908, "note": 52, "velocity": 102, "channel": 0}, {"type": "note_off", "time": 3639, "note": 52, "velocity": 102, "channel": 0}, {"type": "note_on", "time": 287, "note": 51, "velocity": 100, "channel": 0}, {"type": "note_off", "time": 4283, "note": 51, "velocity": 100, "channel": 0}, {"type": "note_on", "time": 34422, "note": 50, "velocity": 123, "channel": 0}, {"type": "note_off", "time": 1673, "note": 50, "velocity": 123, "channel": 0}, {"type": "note_on", "time": 501, "note": 52, "velocity": 117, "channel": 0}, {"type": "note_on", "time": 2384, "note": 50, "velocity": 110, "channel": 0}, {"type": "note_off", "time": 0, "note": 52, "velocity": 117, "channel": 0}, {"type": "note_off", "time": 1924, "note": 50, "velocity": 110, "channel": 0}, {"type": "note_on", "time": 41, "note": 51, "velocity": 102, "channel": 0}, {"type": "note_off", "time": 1840, "note": 51, "velocity": 102, "channel": 0}, {"type": "note_on", "time": 376, "note": 55, "velocity": 102, "channel": 0}, {"type": "note_off", "time": 1756, "note": 55, "velocity": 102, "channel": 0}, {"type": "note_on", "time": 41, "note": 58, "velocity": 114, "channel": 0}, {"type": "note_off", "time": 3137, "note": 58, "velocity": 114, "channel": 0}, {"type": "note_on", "time": 0, "note": 55, "velocity": 104, "channel": 0}, {"type": "note_off", "time": 1129, "note": 55, "velocity": 104, "channel": 0}, {"type": "note_on", "time": 209, "note": 56, "velocity": 111, "channel": 0}, {"type": "note_off", "time": 2049, "note": 56, "velocity": 111, "channel": 0}, {"type": "note_on", "time": 460, "note": 60, "velocity": 105, "channel": 0}, {"type": "note_off", "time": 1798, "note": 60, "velocity": 105, "channel": 0}, {"type": "note_on", "time": 585, "note": 63, "velocity": 108, "channel": 0}, {"type": "note_off", "time": 1756, "note": 63, "velocity": 108, "channel": 0}, {"type": "note_on", "time": 501, "note": 67, "velocity": 100, "channel": 0}, {"type": "note_off", "time": 1840, "note": 67, "velocity": 100, "channel": 0}, {"type": "note_on", "time": 83, "note": 70, "velocity": 112, "channel": 0}, {"type": "note_off", "time": 2342, "note": 70, "velocity": 112, "channel": 0}, {"type": "note_on", "time": 125, "note": 67, "velocity": 97, "channel": 0}, {"type": "note_off", "time": 1380, "note": 67, "velocity": 97, "channel": 0}, {"type": "note_on", "time": 125, "note": 68, "velocity": 105, "channel": 0}, {"type": "note_off", "time": 1589, "note": 68, "velocity": 105, "channel": 0}, {"type": "note_on", "time": 83, "note": 67, "velocity": 104, "channel": 0}, {"type": "note_off", "time": 1840, "note": 67, "velocity": 104, "channel": 0}, {"type": "note_on", "time": 167, "note": 65, "velocity": 108, "channel": 0}, {"type": "note_off", "time": 1296, "note": 65, "velocity": 108, "channel": 0}, {"type": "note_on", "time": 125, "note": 64, "velocity": 110, "channel": 0}, {"type": "note_off", "time": 1547, "note": 64, "velocity": 110, "channel": 0}, {"type": "note_on", "time": 334, "note": 63, "velocity": 107, "channel": 0}, {"type": "note_off", "time": 2216, "note": 63, "velocity": 107, "channel": 0}, {"type": "note_on", "time": 209, "note": 62, "velocity": 104, "channel": 0}, {"type": "note_off", "time": 1464, "note": 62, "velocity": 104, "channel": 0}, {"type": "note_on", "time": 250, "note": 60, "velocity": 100, "channel": 0}, {"type": "note_off", "time": 1756, "note": 60, "velocity": 100, "channel": 0}, {"type": "note_on", "time": 0, "note": 58, "velocity": 101, "channel": 0}, {"type": "note_off", "time": 1924, "note": 58, "velocity": 101, "channel": 0}, {"type": "note_on", "time": 125, "note": 55, "velocity": 110, "channel": 0}, {"type": "note_off", "time": 1924, "note": 55, "velocity": 110, "channel": 0}, {"type": "note_on", "time": 836, "note": 56, "velocity": 103, "channel": 0}, {"type": "note_off", "time": 2426, "note": 56, "velocity": 103, "channel": 0}, {"type": "note_on", "time": 376, "note": 54, "velocity": 96, "channel": 0}, {"type": "note_off", "time": 1254, "note": 54, "velocity": 96, "channel": 0}, {"type": "note_on", "time": 125, "note": 55, "velocity": 102, "channel": 0}, {"type": "note_off", "time": 1464, "note": 55, "velocity": 102, "channel": 0}, {"type": "note_on", "time": 376, "note": 53, "velocity": 98, "channel": 0}, {"type": "note_off", "time": 1129, "note": 53, "velocity": 98, "channel": 0}, {"type": "note_on", "time": 292, "note": 52, "velocity": 100, "channel": 0}, {"type": "note_off", "time": 1380, "note": 52, "velocity": 100, "channel": 0}, {"type": "note_on", "time": 167, "note": 51, "velocity": 97, "channel": 0}, {"type": "note_off", "time": 1798, "note": 51, "velocity": 97, "channel": 0}, {"type": "note_on", "time": 167, "note": 50, "velocity": 107, "channel": 0}, {"type": "note_off", "time": 1129, "note": 50, "velocity": 107, "channel": 0}, {"type": "note_on", "time": 0, "note": 51, "velocity": 104, "channel": 0}, {"type": "note_off", "time": 1463, "note": 51, "velocity": 104, "channel": 0}, {"type": "note_on", "time": 0, "note": 55, "velocity": 97, "channel": 0}, {"type": "note_off", "time": 1756, "note": 55, "velocity": 97, "channel": 0}, {"type": "note_on", "time": 669, "note": 58, "velocity": 105, "channel": 0}, {"type": "note_off", "time": 2467, "note": 58, "velocity": 105, "channel": 0}, {"type": "note_on", "time": 167, "note": 55, "velocity": 104, "channel": 0}, {"type": "note_off", "time": 1254, "note": 55, "velocity": 104, "channel": 0}, {"type": "note_on", "time": 41, "note": 56, "velocity": 101, "channel": 0}, {"type": "note_off", "time": 1965, "note": 56, "velocity": 101, "channel": 0}, {"type": "note_on", "time": 543, "note": 58, "velocity": 90, "channel": 0}, {"type": "note_off", "time": 752, "note": 58, "velocity": 90, "channel": 0}, {"type": "note_on", "time": 0, "note": 60, "velocity": 106, "channel": 0}, {"type": "note_off", "time": 1756, "note": 60, "velocity": 106, "channel": 0}, {"type": "note_on", "time": 250, "note": 62, "velocity": 83, "channel": 0}, {"type": "note_off", "time": 2175, "note": 62, "velocity": 83, "channel": 0}, {"type": "note_on", "time": 0, "note": 79, "velocity": 116, "channel": 0}, {"type": "note_off", "time": 3471, "note": 79, "velocity": 116, "channel": 0}, {"type": "note_on", "time": 1296, "note": 67, "velocity": 89, "channel": 0}, {"type": "note_off", "time": 4517, "note": 67, "velocity": 89, "channel": 0}, {"type": "note_on", "time": 10453, "note": 66, "velocity": 102, "channel": 0}, {"type": "note_off", "time": 743, "note": 66, "velocity": 102, "channel": 0}, {"type": "note_on", "time": 0, "note": 67, "velocity": 89, "channel": 0}, {"type": "note_off", "time": 1100, "note": 67, "velocity": 89, "channel": 0}, {"type": "note_on", "time": 535, "note": 72, "velocity": 82, "channel": 0}, {"type": "note_off", "time": 1505, "note": 72, "velocity": 82, "channel": 0}, {"type": "note_on", "time": 468, "note": 79, "velocity": 117, "channel": 0}, {"type": "note_off", "time": 1296, "note": 79, "velocity": 117, "channel": 0}, {"type": "note_on", "time": 0, "note": 80, "velocity": 93, "channel": 0}, {"type": "note_off", "time": 2635, "note": 80, "velocity": 93, "channel": 0}, {"type": "note_on", "time": 191, "note": 84, "velocity": 112, "channel": 0}, {"type": "note_off", "time": 4580, "note": 84, "velocity": 112, "channel": 0}, {"type": "note_on", "time": 356, "note": 75, "velocity": 109, "channel": 0}, {"type": "note_off", "time": 3390, "note": 75, "velocity": 109, "channel": 0}, {"type": "note_on", "time": 2796, "note": 70, "velocity": 94, "channel": 0}, {"type": "note_off", "time": 1754, "note": 70, "velocity": 94, "channel": 0}, {"type": "note_on", "time": 2082, "note": 63, "velocity": 110, "channel": 0}, {"type": "note_off", "time": 2379, "note": 63, "velocity": 110, "channel": 0}, {"type": "note_on", "time": 684, "note": 70, "velocity": 103, "channel": 0}, {"type": "note_off", "time": 2171, "note": 70, "velocity": 103, "channel": 0}, {"type": "note_on", "time": 2320, "note": 67, "velocity": 103, "channel": 0}, {"type": "note_off", "time": 2111, "note": 67, "velocity": 103, "channel": 0}, {"type": "note_on", "time": 1427, "note": 68, "velocity": 104, "channel": 0}, {"type": "note_off", "time": 2617, "note": 68, "velocity": 104, "channel": 0}, {"type": "note_on", "time": 1251, "note": 60, "velocity": 105, "channel": 0}, {"type": "note_off", "time": 2175, "note": 60, "velocity": 105, "channel": 0}, {"type": "note_on", "time": 1254, "note": 63, "velocity": 116, "channel": 0}, {"type": "note_off", "time": 3471, "note": 63, "velocity": 116, "channel": 0}, {"type": "note_on", "time": 209, "note": 66, "velocity": 106, "channel": 0}, {"type": "note_off", "time": 2300, "note": 66, "velocity": 106, "channel": 0}, {"type": "note_on", "time": 376, "note": 67, "velocity": 106, "channel": 0}, {"type": "note_off", "time": 2384, "note": 67, "velocity": 106, "channel": 0}, {"type": "note_on", "time": 543, "note": 63, "velocity": 109, "channel": 0}, {"type": "note_off", "time": 1631, "note": 63, "velocity": 109, "channel": 0}, {"type": "note_on", "time": 376, "note": 60, "velocity": 103, "channel": 0}, {"type": "note_off", "time": 3095, "note": 60, "velocity": 103, "channel": 0}, {"type": "note_on", "time": 83, "note": 64, "velocity": 85, "channel": 0}, {"type": "note_off", "time": 878, "note": 64, "velocity": 85, "channel": 0}, {"type": "note_on", "time": 460, "note": 65, "velocity": 102, "channel": 0}, {"type": "note_off", "time": 2091, "note": 65, "velocity": 102, "channel": 0}, {"type": "note_on", "time": 669, "note": 72, "velocity": 90, "channel": 0}, {"type": "note_off", "time": 2175, "note": 72, "velocity": 90, "channel": 0}, {"type": "note_on", "time": 334, "note": 73, "velocity": 93, "channel": 0}, {"type": "note_off", "time": 2635, "note": 73, "velocity": 93, "channel": 0}, {"type": "note_on", "time": 167, "note": 67, "velocity": 99, "channel": 0}, {"type": "note_off", "time": 1840, "note": 67, "velocity": 99, "channel": 0}, {"type": "note_on", "time": 1505, "note": 70, "velocity": 102, "channel": 0}, {"type": "note_off", "time": 2886, "note": 70, "velocity": 102, "channel": 0}, {"type": "note_on", "time": 1589, "note": 68, "velocity": 95, "channel": 0}, {"type": "note_off", "time": 2551, "note": 68, "velocity": 95, "channel": 0}, {"type": "note_on", "time": 752, "note": 60, "velocity": 100, "channel": 0}, {"type": "note_off", "time": 3680, "note": 60, "velocity": 100, "channel": 0}, {"type": "note_on", "time": 12925, "note": 57, "velocity": 96, "channel": 0}, {"type": "note_off", "time": 1254, "note": 57, "velocity": 96, "channel": 0}, {"type": "note_on", "time": 209, "note": 60, "velocity": 109, "channel": 0}, {"type": "note_off", "time": 1505, "note": 60, "velocity": 109, "channel": 0}, {"type": "note_on", "time": 0, "note": 59, "velocity": 104, "channel": 0}, {"type": "note_off", "time": 962, "note": 59, "velocity": 104, "channel": 0}, {"type": "note_on", "time": 167, "note": 58, "velocity": 95, "channel": 0}, {"type": "note_off", "time": 3346, "note": 58, "velocity": 95, "channel": 0}, {"type": "note_on", "time": 627, "note": 70, "velocity": 107, "channel": 0}, {"type": "note_off", "time": 3137, "note": 70, "velocity": 107, "channel": 0}, {"type": "note_on", "time": 1087, "note": 68, "velocity": 111, "channel": 0}, {"type": "note_off", "time": 3388, "note": 68, "velocity": 111, "channel": 0}, {"type": "note_on", "time": 543, "note": 58, "velocity": 113, "channel": 0}, {"type": "note_off", "time": 2342, "note": 58, "velocity": 113, "channel": 0}, {"type": "note_on", "time": 585, "note": 63, "velocity": 116, "channel": 0}, {"type": "note_off", "time": 3597, "note": 63, "velocity": 116, "channel": 0}, {"type": "note_on", "time": 334, "note": 65, "velocity": 113, "channel": 0}, {"type": "note_off", "time": 2007, "note": 65, "velocity": 113, "channel": 0}, {"type": "note_on", "time": 334, "note": 66, "velocity": 110, "channel": 0}, {"type": "note_off", "time": 1296, "note": 66, "velocity": 110, "channel": 0}, {"type": "note_on", "time": 167, "note": 67, "velocity": 112, "channel": 0}, {"type": "note_off", "time": 3848, "note": 67, "velocity": 112, "channel": 0}, {"type": "note_on", "time": 250, "note": 63, "velocity": 116, "channel": 0}, {"type": "note_off", "time": 1296, "note": 63, "velocity": 116, "channel": 0}, {"type": "note_on", "time": 0, "note": 62, "velocity": 112, "channel": 0}, {"type": "note_off", "time": 3429, "note": 62, "velocity": 112, "channel": 0}, {"type": "note_on", "time": 1756, "note": 65, "velocity": 114, "channel": 0}, {"type": "note_off", "time": 3806, "note": 65, "velocity": 114, "channel": 0}, {"type": "note_on", "time": 1338, "note": 65, "velocity": 114, "channel": 0}, {"type": "note_off", "time": 4977, "note": 65, "velocity": 114, "channel": 0}, {"type": "note_on", "time": 250, "note": 63, "velocity": 90, "channel": 0}, {"type": "note_off", "time": 3304, "note": 63, "velocity": 90, "channel": 0}, {"type": "note_on", "time": 41, "note": 65, "velocity": 110, "channel": 0}, {"type": "note_off", "time": 13343, "note": 65, "velocity": 110, "channel": 0}, {"type": "note_on", "time": 8240, "note": 68, "velocity": 112, "channel": 0}, {"type": "note_off", "time": 3471, "note": 68, "velocity": 112, "channel": 0}, {"type": "note_on", "time": 1338, "note": 65, "velocity": 106, "channel": 0}, {"type": "note_off", "time": 4852, "note": 65, "velocity": 106, "channel": 0}, {"type": "note_on", "time": 585, "note": 64, "velocity": 115, "channel": 0}, {"type": "note_off", "time": 4392, "note": 64, "velocity": 115, "channel": 0}, {"type": "note_on", "time": 1171, "note": 63, "velocity": 120, "channel": 0}, {"type": "note_off", "time": 4559, "note": 63, "velocity": 120, "channel": 0}, {"type": "note_on", "time": 1380, "note": 60, "velocity": 114, "channel": 0}, {"type": "note_off", "time": 1798, "note": 60, "velocity": 114, "channel": 0}, {"type": "note_on", "time": 0, "note": 61, "velocity": 101, "channel": 0}, {"type": "note_off", "time": 3137, "note": 61, "velocity": 101, "channel": 0}, {"type": "note_on", "time": 1045, "note": 58, "velocity": 108, "channel": 0}, {"type": "note_off", "time": 3973, "note": 58, "velocity": 108, "channel": 0}, {"type": "note_on", "time": 418, "note": 56, "velocity": 100, "channel": 0}, {"type": "note_off", "time": 2635, "note": 56, "velocity": 100, "channel": 0}, {"type": "note_on", "time": 962, "note": 58, "velocity": 101, "channel": 0}, {"type": "note_off", "time": 9871, "note": 58, "velocity": 101, "channel": 0}, {"type": "note_on", "time": 3848, "note": 58, "velocity": 114, "channel": 0}, {"type": "note_off", "time": 7278, "note": 58, "velocity": 114, "channel": 0}, {"type": "note_on", "time": 83, "note": 56, "velocity": 106, "channel": 0}, {"type": "note_off", "time": 20914, "note": 56, "velocity": 106, "channel": 0}, {"type": "note_on", "time": 1003, "note": 55, "velocity": 93, "channel": 0}, {"type": "note_off", "time": 18069, "note": 55, "velocity": 93, "channel": 0}, {"type": "note_on", "time": 920, "note": 53, "velocity": 98, "channel": 0}, {"type": "note_off", "time": 1505, "note": 53, "velocity": 98, "channel": 0}, {"type": "note_on", "time": 752, "note": 54, "velocity": 91, "channel": 0}, {"type": "note_off", "time": 17066, "note": 54, "velocity": 91, "channel": 0}, {"type": "note_on", "time": 836, "note": 53, "velocity": 95, "channel": 0}, {"type": "note_off", "time": 6525, "note": 53, "velocity": 95, "channel": 0}, {"type": "note_on", "time": 14344, "note": 52, "velocity": 97, "channel": 0}, {"type": "note_off", "time": 19393, "note": 52, "velocity": 97, "channel": 0}, {"type": "note_on", "time": 0, "note": 51, "velocity": 88, "channel": 0}, {"type": "note_off", "time": 14515, "note": 51, "velocity": 88, "channel": 0}, {"type": "note_on", "time": 11184, "note": 49, "velocity": 98, "channel": 0}, {"type": "note_off", "time": 4402, "note": 49, "velocity": 98, "channel": 0}, {"type": "note_on", "time": 356, "note": 50, "velocity": 92, "channel": 0}, {"type": "note_off", "time": 2736, "note": 50, "velocity": 92, "channel": 0}, {"type": "note_on", "time": 2379, "note": 58, "velocity": 83, "channel": 0}, {"type": "note_off", "time": 38549, "note": 58, "velocity": 83, "channel": 0}, {"type": "end_of_track", "time": 0}]]}