{"ticks_per_beat": 192, "tracks": [[{"type": "track_name", "name": "Melody", "time": 0}, {"type": "set_tempo", "tempo": 384615, "time": 0}, {"type": "key_signature", "key": "F", "time": 0}, {"type": "time_signature", "numerator": 4, "denominator": 4, "clocks_per_click": 24, "notated_32nd_notes_per_beat": 8, "time": 0}, {"type": "note_on", "time": 3840, "note": 62, "velocity": 115, "channel": 0}, {"type": "note_off", "time": 40, "note": 62, "velocity": 115, "channel": 0}, {"type": "note_on", "time": 12, "note": 65, "velocity": 113, "channel": 0}, {"type": "note_off", "time": 43, "note": 65, "velocity": 113, "channel": 0}, {"type": "note_on", "time": 3, "note": 66, "velocity": 110, "channel": 0}, {"type": "note_off", "time": 28, "note": 66, "velocity": 110, "channel": 0}, {"type": "note_on", "time": 15, "note": 69, "velocity": 110, "channel": 0}, {"type": "note_off", "time": 32, "note": 69, "velocity": 110, "channel": 0}, {"type": "note_on", "time": 13, "note": 70, "velocity": 106, "channel": 0}, {"type": "note_off", "time": 40, "note": 70, "velocity": 106, "channel": 0}, {"type": "note_on", "time": 10, "note": 72, "velocity": 108, "channel": 0}, {"type": "note_off", "time": 206, "note": 72, "velocity": 108, "channel": 0}, {"type": "note_on", "time": 282, "note": 69, "velocity": 97, "channel": 0}, {"type": "note_off", "time": 35, "note": 69, "velocity": 97, "channel": 0}, {"type": "note_on", "time": 67, "note": 70, "velocity": 115, "channel": 0}, {"type": "note_off", "time": 77, "note": 70, "velocity": 115, "channel": 0}, {"type": "note_on", "time": 10, "note": 72, "velocity": 119, "channel": 0}, {"type": "note_off", "time": 80, "note": 72, "velocity": 119, "channel": 0}, {"type": "note_on", "time": 209, "note": 69, "velocity": 117, "channel": 0}, {"type": "note_off", "time": 211, "note": 69, "velocity": 117, "channel": 0}, {"type": "note_on", "time": 3, "note": 68, "velocity": 99, "channel": 0}, {"type": "note_off", "time": 62, "note": 68, "velocity": 99, "channel": 0}, {"type": "note_on", "time": 43, "note": 67, "velocity": 118, "channel": 0}, {"type": "note_off", "time": 89, "note": 67, "velocity": 118, "channel": 0}, {"type": "note_on", "time": 74, "note": 65, "velocity": 120, "channel": 0}, {"type": "note_off", "time": 48, "note": 65, "velocity": 120, "channel": 0}, {"type": "note_on", "time": 15, "note": 64, "velocity": 116, "channel": 0}, {"type": "note_off", "time": 46, "note": 64, "velocity": 116, "channel": 0}, {"type": "note_on", "time": 12, "note": 60, "velocity": 111, "channel": 0}, {"type": "note_off", "time": 134, "note": 60, "velocity": 111, "channel": 0}, {"type": "note_on", "time": 13, "note": 62, "velocity": 114, "channel": 0}, {"type": "note_off", "time": 114, "note": 62, "velocity": 114, "channel": 0}, {"type": "note_on", "time": 9, "note": 64, "velocity": 115, "channel": 0}, {"type": "note_off", "time": 94, "note": 64, "velocity": 115, "channel": 0}, {"type": "note_on", "time": 19, "note": 76, "velocity": 118, "channel": 0}, {"type": "note_off", "time": 134, "note": 76, "velocity": 118, "channel": 0}, {"type": "note_on", "time": 52, "note": 69, "velocity": 113, "channel": 0}, {"type": "note_off", "time": 86, "note": 69, "velocity": 113, "channel": 0}, {"type": "note_on", "time": 18, "note": 64, "velocity": 107, "channel": 0}, {"type": "note_off", "time": 65, "note": 64, "velocity": 107, "channel": 0}, {"type": "note_on", "time": 21, "note": 67, "velocity": 114, "channel": 0}, {"type": "note_off", "time": 106, "note": 67, "velocity": 114, "channel": 0}, {"type": "note_on", "time": 5, "note": 68, "velocity": 114, "channel": 0}, {"type": "note_off", "time": 72, "note": 68, "velocity": 114, "channel": 0}, {"type": "note_on", "time": 24, "note": 70, "velocity": 100, "channel": 0}, {"type": "note_off", "time": 194, "note": 70, "velocity": 100, "channel": 0}, {"type": "note_on", "time": 112, "note": 60, "velocity": 108, "channel": 0}, {"type": "note_off", "time": 65, "note": 60, "velocity": 108, "channel": 0}, {"type": "note_on", "time": 6, "note": 63, "velocity": 111, "channel": 0}, {"type": "note_off", "time": 37, "note": 63, "velocity": 111, "channel": 0}, {"type": "note_on", "time": 7, "note": 64, "velocity": 112, "channel": 0}, {"type": "note_off", "time": 122, "note": 64, "velocity": 112, "channel": 0}, {"type": "note_on", "time": 46, "note": 60, "velocity": 103, "channel": 0}, {"type": "note_off", "time": 36, "note": 60, "velocity": 103, "channel": 0}, {"type": "note_on", "time": 12, "note": 62, "velocity": 107, "channel": 0}, {"type": "note_off", "time": 100, "note": 62, "velocity": 107, "channel": 0}, {"type": "note_on", "time": 14, "note": 64, "velocity": 109, "channel": 0}, {"type": "note_off", "time": 104, "note": 64, "velocity": 109, "channel": 0}, {"type": "note_on", "time": 14, "note": 72, "velocity": 116, "channel": 0}, {"type": "note_off", "time": 83, "note": 72, "velocity": 116, "channel": 0}, {"type": "note_on", "time": 17, "note": 69, "velocity": 111, "channel": 0}, {"type": "note_off", "time": 131, "note": 69, "velocity": 111, "channel": 0}, {"type": "note_on", "time": 9, "note": 79, "velocity": 114, "channel": 0}, {"type": "note_off", "time": 124, "note": 79, "velocity": 114, "channel": 0}, {"type": "note_on", "time": 19, "note": 77, "velocity": 117, "channel": 0}, {"type": "note_off", "time": 114, "note": 77, "velocity": 117, "channel": 0}, {"type": "note_on", "time": 7, "note": 76, "velocity": 113, "channel": 0}, {"type": "note_off", "time": 127, "note": 76, "velocity": 113, "channel": 0}, {"type": "note_on", "time": 22, "note": 72, "velocity": 109, "channel": 0}, {"type": "note_off", "time": 123, "note": 72, "velocity": 109, "channel": 0}, {"type": "note_on", "time": 5, "note": 74, "velocity": 114, "channel": 0}, {"type": "note_off", "time": 89, "note": 74, "velocity": 114, "channel": 0}, {"type": "note_on", "time": 27, "note": 67, "velocity": 109, "channel": 0}, {"type": "note_off", "time": 128, "note": 67, "velocity": 109, "channel": 0}, {"type": "note_on", "time": 9, "note": 72, "velocity": 104, "channel": 0}, {"type": "note_off", "time": 45, "note": 72, "velocity": 104, "channel": 0}, {"type": "note_on", "time": 73, "note": 69, "velocity": 104, "channel": 0}, {"type": "note_off", "time": 94, "note": 69, "velocity": 104, "channel": 0}, {"type": "note_on", "time": 6, "note": 65, "velocity": 107, "channel": 0}, {"type": "note_off", "time": 253, "note": 65, "velocity": 107, "channel": 0}, {"type": "note_on", "time": 4, "note": 64, "velocity": 102, "channel": 0}, {"type": "note_off", "time": 31, "note": 64, "velocity": 102, "channel": 0}, {"type": "note_on", "time": 6, "note": 65, "velocity": 107, "channel": 0}, {"type": "note_off", "time": 33, "note": 65, "velocity": 107, "channel": 0}, {"type": "note_on", "time": 10, "note": 67, "velocity": 104, "channel": 0}, {"type": "note_off", "time": 66, "note": 67, "velocity": 104, "channel": 0}, {"type": "note_on", "time": 31, "note": 69, "velocity": 103, "channel": 0}, {"type": "note_off", "time": 186, "note": 69, "velocity": 103, "channel": 0}, {"type": "note_on", "time": 29, "note": 60, "velocity": 110, "channel": 0}, {"type": "note_off", "time": 50, "note": 60, "velocity": 110, "channel": 0}, {"type": "note_on", "time": 10, "note": 62, "velocity": 105, "channel": 0}, {"type": "note_off", "time": 38, "note": 62, "velocity": 105, "channel": 0}, {"type": "note_on", "time": 14, "note": 64, "velocity": 108, "channel": 0}, {"type": "note_off", "time": 30, "note": 64, "velocity": 108, "channel": 0}, {"type": "note_on", "time": 22, "note": 67, "velocity": 105, "channel": 0}, {"type": "note_off", "time": 49, "note": 67, "velocity": 105, "channel": 0}, {"type": "note_on", "time": 10, "note": 68, "velocity": 102, "channel": 0}, {"type": "note_off", "time": 46, "note": 68, "velocity": 102, "channel": 0}, {"type": "note_on", "time": 14, "note": 67, "velocity": 105, "channel": 0}, {"type": "note_off", "time": 42, "note": 67, "velocity": 105, "channel": 0}, {"type": "note_on", "time": 6, "note": 65, "velocity": 106, "channel": 0}, {"type": "note_off", "time": 32, "note": 65, "velocity": 106, "channel": 0}, {"type": "note_on", "time": 9, "note": 61, "velocity": 102, "channel": 0}, {"type": "note_off", "time": 193, "note": 61, "velocity": 102, "channel": 0}, {"type": "note_on", "time": 245, "note": 63, "velocity": 117, "channel": 0}, {"type": "note_off", "time": 32, "note": 63, "velocity": 117, "channel": 0}, {"type": "note_on", "time": 8, "note": 61, "velocity": 110, "channel": 0}, {"type": "note_off", "time": 23, "note": 61, "velocity": 110, "channel": 0}, {"type": "note_on", "time": 9, "note": 60, "velocity": 111, "channel": 0}, {"type": "note_off", "time": 46, "note": 60, "velocity": 111, "channel": 0}, {"type": "note_on", "time": 16, "note": 58, "velocity": 104, "channel": 0}, {"type": "note_off", "time": 76, "note": 58, "velocity": 104, "channel": 0}, {"type": "note_on", "time": 165, "note": 60, "velocity": 103, "channel": 0}, {"type": "note_off", "time": 85, "note": 60, "velocity": 103, "channel": 0}, {"type": "note_on", "time": 15, "note": 62, "velocity": 105, "channel": 0}, {"type": "note_off", "time": 76, "note": 62, "velocity": 105, "channel": 0}, {"type": "note_on", "time": 17, "note": 64, "velocity": 111, "channel": 0}, {"type": "note_off", "time": 186, "note": 64, "velocity": 111, "channel": 0}, {"type": "note_on", "time": 7, "note": 65, "velocity": 112, "channel": 0}, {"type": "note_off", "time": 103, "note": 65, "velocity": 112, "channel": 0}, {"type": "note_on", "time": 16, "note": 67, "velocity": 116, "channel": 0}, {"type": "note_off", "time": 137, "note": 67, "velocity": 116, "channel": 0}, {"type": "note_on", "time": 15, "note": 69, "velocity": 113, "channel": 0}, {"type": "note_off", "time": 148, "note": 69, "velocity": 113, "channel": 0}, {"type": "note_on", "time": 12, "note": 71, "velocity": 108, "channel": 0}, {"type": "note_off", "time": 92, "note": 71, "velocity": 108, "channel": 0}, {"type": "note_on", "time": 12, "note": 72, "velocity": 113, "channel": 0}, {"type": "note_off", "time": 126, "note": 72, "velocity": 113, "channel": 0}, {"type": "note_on", "time": 11, "note": 74, "velocity": 114, "channel": 0}, {"type": "note_off", "time": 130, "note": 74, "velocity": 114, "channel": 0}, {"type": "note_on", "time": 7, "note": 76, "velocity": 114, "channel": 0}, {"type": "note_off", "time": 115, "note": 76, "velocity": 114, "channel": 0}, {"type": "note_on", "time": 27, "note": 79, "velocity": 108, "channel": 0}, {"type": "note_off", "time": 106, "note": 79, "velocity": 108, "channel": 0}, {"type": "note_on", "time": 16, "note": 74, "velocity": 101, "channel": 0}, {"type": "note_off", "time": 326, "note": 74, "velocity": 101, "channel": 0}, {"type": "note_on", "time": 385, "note": 80, "velocity": 118, "channel": 0}, {"type": "note_off", "time": 88, "note": 80, "velocity": 118, "channel": 0}, {"type": "note_on", "time": 16, "note": 75, "velocity": 108, "channel": 0}, {"type": "note_off", "time": 299, "note": 75, "velocity": 108, "channel": 0}, {"type": "note_on", "time": 323, "note": 83, "velocity": 102, "channel": 0}, {"type": "note_off", "time": 88, "note": 83, "velocity": 102, "channel": 0}, {"type": "note_on", "time": 18, "note": 78, "velocity": 113, "channel": 0}, {"type": "note_off", "time": 400, "note": 78, "velocity": 113, "channel": 0}, {"type": "note_on", "time": 279, "note": 84, "velocity": 107, "channel": 0}, {"type": "note_off", "time": 151, "note": 84, "velocity": 107, "channel": 0}, {"type": "note_on", "time": 7, "note": 86, "velocity": 99, "channel": 0}, {"type": "note_off", "time": 169, "note": 86, "velocity": 99, "channel": 0}, {"type": "note_on", "time": 390, "note": 68, "velocity": 107, "channel": 0}, {"type": "note_off", "time": 143, "note": 68, "velocity": 107, "channel": 0}, {"type": "note_on", "time": 4, "note": 67, "velocity": 101, "channel": 0}, {"type": "note_off", "time": 21, "note": 67, "velocity": 101, "channel": 0}, {"type": "note_on", "time": 21, "note": 78, "velocity": 112, "channel": 0}, {"type": "note_off", "time": 187, "note": 78, "velocity": 112, "channel": 0}, {"type": "note_on", "time": 16, "note": 76, "velocity": 116, "channel": 0}, {"type": "note_off", "time": 174, "note": 76, "velocity": 116, "channel": 0}, {"type": "note_on", "time": 48, "note": 68, "velocity": 102, "channel": 0}, {"type": "note_off", "time": 144, "note": 68, "velocity": 102, "channel": 0}, {"type": "note_on", "time": 24, "note": 66, "velocity": 104, "channel": 0}, {"type": "note_off", "time": 93, "note": 66, "velocity": 104, "channel": 0}, {"type": "note_on", "time": 21, "note": 64, "velocity": 111, "channel": 0}, {"type": "note_off", "time": 102, "note": 64, "velocity": 111, "channel": 0}, {"type": "note_on", "time": 3, "note": 65, "velocity": 112, "channel": 0}, {"type": "note_off", "time": 90, "note": 65, "velocity": 112, "channel": 0}, {"type": "note_on", "time": 14, "note": 69, "velocity": 105, "channel": 0}, {"type": "note_off", "time": 92, "note": 69, "velocity": 105, "channel": 0}, {"type": "note_on", "time": 11, "note": 68, "velocity": 111, "channel": 0}, {"type": "note_off", "time": 102, "note": 68, "velocity": 111, "channel": 0}, {"type": "note_on", "time": 10, "note": 72, "velocity": 107, "channel": 0}, {"type": "note_off", "time": 96, "note": 72, "velocity": 107, "channel": 0}, {"type": "note_on", "time": 5, "note": 71, "velocity": 100, "channel": 0}, {"type": "note_off", "time": 164, "note": 71, "velocity": 100, "channel": 0}, {"type": "note_on", "time": 27, "note": 68, "velocity": 97, "channel": 0}, {"type": "note_off", "time": 120, "note": 68, "velocity": 97, "channel": 0}, {"type": "note_on", "time": 11, "note": 64, "velocity": 105, "channel": 0}, {"type": "note_off", "time": 53, "note": 64, "velocity": 105, "channel": 0}, {"type": "note_on", "time": 27, "note": 65, "velocity": 108, "channel": 0}, {"type": "note_off", "time": 145, "note": 65, "velocity": 108, "channel": 0}, {"type": "note_on", "time": 25, "note": 70, "velocity": 96, "channel": 0}, {"type": "note_off", "time": 321, "note": 70, "velocity": 96, "channel": 0}, {"type": "note_on", "time": 25, "note": 67, "velocity": 115, "channel": 0}, {"type": "note_off", "time": 135, "note": 67, "velocity": 115, "channel": 0}, {"type": "note_on", "time": 14, "note": 63, "velocity": 109, "channel": 0}, {"type": "note_off", "time": 103, "note": 63, "velocity": 109, "channel": 0}, {"type": "note_on", "time": 14, "note": 60, "velocity": 108, "channel": 0}, {"type": "note_off", "time": 51, "note": 60, "velocity": 108, "channel": 0}, {"type": "note_on", "time": 13, "note": 63, "velocity": 114, "channel": 0}, {"type": "note_off", "time": 25, "note": 63, "velocity": 114, "channel": 0}, {"type": "note_on", "time": 11, "note": 65, "velocity": 113, "channel": 0}, {"type": "note_off", "time": 126, "note": 65, "velocity": 113, "channel": 0}, {"type": "note_on", "time": 25, "note": 72, "velocity": 96, "channel": 0}, {"type": "note_off", "time": 182, "note": 72, "velocity": 96, "channel": 0}, {"type": "note_on", "time": 560, "note": 75, "velocity": 122, "channel": 0}, {"type": "note_off", "time": 68, "note": 75, "velocity": 122, "channel": 0}, {"type": "note_on", "time": 32, "note": 79, "velocity": 126, "channel": 0}, {"type": "note_off", "time": 69, "note": 79, "velocity": 126, "channel": 0}, {"type": "note_on", "time": 3, "note": 77, "velocity": 124, "channel": 0}, {"type": "note_off", "time": 58, "note": 77, "velocity": 124, "channel": 0}, {"type": "note_on", "time": 8, "note": 72, "velocity": 116, "channel": 0}, {"type": "note_off", "time": 57, "note": 72, "velocity": 116, "channel": 0}, {"type": "note_on", "time": 20, "note": 75, "velocity": 121, "channel": 0}, {"type": "note_off", "time": 61, "note": 75, "velocity": 121, "channel": 0}, {"type": "note_on", "time": 26, "note": 70, "velocity": 105, "channel": 0}, {"type": "note_off", "time": 49, "note": 70, "velocity": 105, "channel": 0}, {"type": "note_on", "time": 16, "note": 65, "velocity": 114, "channel": 0}, {"type": "note_off", "time": 63, "note": 65, "velocity": 114, "channel": 0}, {"type": "note_on", "time": 7, "note": 63, "velocity": 109, "channel": 0}, {"type": "note_off", "time": 47, "note": 63, "velocity": 109, "channel": 0}, {"type": "note_on", "time": 16, "note": 60, "velocity": 107, "channel": 0}, {"type": "note_off", "time": 61, "note": 60, "velocity": 107, "channel": 0}, {"type": "note_on", "time": 5, "note": 61, "velocity": 110, "channel": 0}, {"type": "note_off", "time": 60, "note": 61, "velocity": 110, "channel": 0}, {"type": "note_on", "time": 13, "note": 62, "velocity": 112, "channel": 0}, {"type": "note_off", "time": 79, "note": 62, "velocity": 112, "channel": 0}, {"type": "note_on", "time": 17, "note": 65, "velocity": 110, "channel": 0}, {"type": "note_off", "time": 64, "note": 65, "velocity": 110, "channel": 0}, {"type": "note_on", "time": 2, "note": 66, "velocity": 112, "channel": 0}, {"type": "note_off", "time": 46, "note": 66, "velocity": 112, "channel": 0}, {"type": "note_on", "time": 9, "note": 69, "velocity": 111, "channel": 0}, {"type": "note_off", "time": 59, "note": 69, "velocity": 111, "channel": 0}, {"type": "note_on", "time": 13, "note": 70, "velocity": 108, "channel": 0}, {"type": "note_off", "time": 58, "note": 70, "velocity": 108, "channel": 0}, {"type": "note_on", "time": 6, "note": 71, "velocity": 113, "channel": 0}, {"type": "note_off", "time": 48, "note": 71, "velocity": 113, "channel": 0}, {"type": "note_on", "time": 11, "note": 74, "velocity": 119, "channel": 0}, {"type": "note_off", "time": 52, "note": 74, "velocity": 119, "channel": 0}, {"type": "note_on", "time": 12, "note": 76, "velocity": 127, "channel": 0}, {"type": "note_off", "time": 78, "note": 76, "velocity": 127, "channel": 0}, {"type": "note_on", "time": 3, "note": 74, "velocity": 112, "channel": 0}, {"type": "note_off", "time": 49, "note": 74, "velocity": 112, "channel": 0}, {"type": "note_on", "time": 3, "note": 75, "velocity": 109, "channel": 0}, {"type": "note_off", "time": 53, "note": 75, "velocity": 109, "channel": 0}, {"type": "note_on", "time": 3, "note": 77, "velocity": 108, "channel": 0}, {"type": "note_off", "time": 51, "note": 77, "velocity": 108, "channel": 0}, {"type": "note_on", "time": 8, "note": 76, "velocity": 109, "channel": 0}, {"type": "note_off", "time": 45, "note": 76, "velocity": 109, "channel": 0}, {"type": "note_on", "time": 6, "note": 74, "velocity": 105, "channel": 0}, {"type": "note_off", "time": 36, "note": 74, "velocity": 105, "channel": 0}, {"type": "note_on", "time": 5, "note": 72, "velocity": 99, "channel": 0}, {"type": "note_off", "time": 77, "note": 72, "velocity": 99, "channel": 0}, {"type": "note_on", "time": 10, "note": 70, "velocity": 77, "channel": 0}, {"type": "note_off", "time": 25, "note": 70, "velocity": 77, "channel": 0}, {"type": "note_on", "time": 211, "note": 70, "velocity": 91, "channel": 0}, {"type": "note_off", "time": 47, "note": 70, "velocity": 91, "channel": 0}, {"type": "note_on", "time": 85, "note": 67, "velocity": 78, "channel": 0}, {"type": "note_off", "time": 40, "note": 67, "velocity": 78, "channel": 0}, {"type": "note_on", "time": 57, "note": 67, "velocity": 98, "channel": 0}, {"type": "note_off", "time": 28, "note": 67, "velocity": 98, "channel": 0}, {"type": "note_on", "time": 74, "note": 69, "velocity": 102, "channel": 0}, {"type": "note_off", "time": 48, "note": 69, "velocity": 102, "channel": 0}, {"type": "note_on", "time": 7, "note": 70, "velocity": 97, "channel": 0}, {"type": "note_off", "time": 35, "note": 70, "velocity": 97, "channel": 0}, {"type": "note_on", "time": 106, "note": 70, "velocity": 94, "channel": 0}, {"type": "note_off", "time": 40, "note": 70, "velocity": 94, "channel": 0}, {"type": "note_on", "time": 130, "note": 70, "velocity": 99, "channel": 0}, {"type": "note_off", "time": 38, "note": 70, "velocity": 99, "channel": 0}, {"type": "note_on", "time": 185, "note": 70, "velocity": 101, "channel": 0}, {"type": "note_off", "time": 27, "note": 70, "velocity": 101, "channel": 0}, {"type": "note_on", "time": 63, "note": 70, "velocity": 100, "channel": 0}, {"type": "note_off", "time": 28, "note": 70, "velocity": 100, "channel": 0}, {"type": "note_on", "time": 64, "note": 70, "velocity": 101, "channel": 0}, {"type": "note_off", "time": 37, "note": 70, "velocity": 101, "channel": 0}, {"type": "note_on", "time": 8, "note": 71, "velocity": 103, "channel": 0}, {"type": "note_off", "time": 36, "note": 71, "velocity": 103, "channel": 0}, {"type": "note_on", "time": 10, "note": 73, "velocity": 108, "channel": 0}, {"type": "note_off", "time": 45, "note": 73, "velocity": 108, "channel": 0}, {"type": "note_on", "time": 8, "note": 75, "velocity": 105, "channel": 0}, {"type": "note_off", "time": 32, "note": 75, "velocity": 105, "channel": 0}, {"type": "note_on", "time": 4, "note": 77, "velocity": 117, "channel": 0}, {"type": "note_off", "time": 38, "note": 77, "velocity": 117, "channel": 0}, {"type": "note_on", "time": 9, "note": 75, "velocity": 100, "channel": 0}, {"type": "note_off", "time": 27, "note": 75, "velocity": 100, "channel": 0}, {"type": "note_on", "time": 14, "note": 73, "velocity": 104, "channel": 0}, {"type": "note_off", "time": 50, "note": 73, "velocity": 104, "channel": 0}, {"type": "note_on", "time": 9, "note": 71, "velocity": 102, "channel": 0}, {"type": "note_off", "time": 18, "note": 71, "velocity": 102, "channel": 0}, {"type": "note_on", "time": 9, "note": 70, "velocity": 95, "channel": 0}, {"type": "note_off", "time": 138, "note": 70, "velocity": 95, "channel": 0}, {"type": "note_on", "time": 42, "note": 70, "velocity": 98, "channel": 0}, {"type": "note_off", "time": 45, "note": 70, "velocity": 98, "channel": 0}, {"type": "note_on", "time": 249, "note": 70, "velocity": 104, "channel": 0}, {"type": "note_off", "time": 23, "note": 70, "velocity": 104, "channel": 0}, {"type": "note_on", "time": 81, "note": 70, "velocity": 103, "channel": 0}, {"type": "note_off", "time": 31, "note": 70, "velocity": 103, "channel": 0}, {"type": "note_on", "time": 159, "note": 70, "velocity": 107, "channel": 0}, {"type": "note_off", "time": 51, "note": 70, "velocity": 107, "channel": 0}, {"type": "note_on", "time": 9, "note": 71, "velocity": 101, "channel": 0}, {"type": "note_off", "time": 26, "note": 71, "velocity": 101, "channel": 0}, {"type": "note_on", "time": 12, "note": 73, "velocity": 113, "channel": 0}, {"type": "note_off", "time": 30, "note": 73, "velocity": 113, "channel": 0}, {"type": "note_on", "time": 16, "note": 75, "velocity": 102, "channel": 0}, {"type": "note_off", "time": 32, "note": 75, "velocity": 102, "channel": 0}, {"type": "note_on", "time": 4, "note": 77, "velocity": 125, "channel": 0}, {"type": "note_off", "time": 41, "note": 77, "velocity": 125, "channel": 0}, {"type": "note_on", "time": 2, "note": 75, "velocity": 114, "channel": 0}, {"type": "note_off", "time": 30, "note": 75, "velocity": 114, "channel": 0}, {"type": "note_on", "time": 13, "note": 73, "velocity": 113, "channel": 0}, {"type": "note_off", "time": 36, "note": 73, "velocity": 113, "channel": 0}, {"type": "note_on", "time": 22, "note": 71, "velocity": 105, "channel": 0}, {"type": "note_off", "time": 26, "note": 71, "velocity": 105, "channel": 0}, {"type": "note_on", "time": 16, "note": 70, "velocity": 100, "channel": 0}, {"type": "note_off", "time": 140, "note": 70, "velocity": 100, "channel": 0}, {"type": "note_on", "time": 301, "note": 61, "velocity": 116, "channel": 0}, {"type": "note_off", "time": 43, "note": 61, "velocity": 116, "channel": 0}, {"type": "note_on", "time": 20, "note": 63, "velocity": 110, "channel": 0}, {"type": "note_off", "time": 27, "note": 63, "velocity": 110, "channel": 0}, {"type": "note_on", "time": 16, "note": 66, "velocity": 110, "channel": 0}, {"type": "note_off", "time": 30, "note": 66, "velocity": 110, "channel": 0}, {"type": "note_on", "time": 6, "note": 64, "velocity": 107, "channel": 0}, {"type": "note_off", "time": 29, "note": 64, "velocity": 107, "channel": 0}, {"type": "note_on", "time": 18, "note": 66, "velocity": 104, "channel": 0}, {"type": "note_off", "time": 31, "note": 66, "velocity": 104, "channel": 0}, {"type": "note_on", "time": 13, "note": 68, "velocity": 105, "channel": 0}, {"type": "note_off", "time": 35, "note": 68, "velocity": 105, "channel": 0}, {"type": "note_on", "time": 15, "note": 71, "velocity": 104, "channel": 0}, {"type": "note_off", "time": 23, "note": 71, "velocity": 104, "channel": 0}, {"type": "note_on", "time": 10, "note": 73, "velocity": 116, "channel": 0}, {"type": "note_off", "time": 28, "note": 73, "velocity": 116, "channel": 0}, {"type": "note_on", "time": 15, "note": 76, "velocity": 113, "channel": 0}, {"type": "note_off", "time": 41, "note": 76, "velocity": 113, "channel": 0}, {"type": "note_on", "time": 3, "note": 77, "velocity": 122, "channel": 0}, {"type": "note_off", "time": 48, "note": 77, "velocity": 122, "channel": 0}, {"type": "note_on", "time": 3, "note": 76, "velocity": 111, "channel": 0}, {"type": "note_off", "time": 32, "note": 76, "velocity": 111, "channel": 0}, {"type": "note_on", "time": 5, "note": 77, "velocity": 119, "channel": 0}, {"type": "note_off", "time": 39, "note": 77, "velocity": 119, "channel": 0}, {"type": "note_on", "time": 12, "note": 76, "velocity": 119, "channel": 0}, {"type": "note_off", "time": 32, "note": 76, "velocity": 119, "channel": 0}, {"type": "note_on", "time": 10, "note": 75, "velocity": 116, "channel": 0}, {"type": "note_off", "time": 34, "note": 75, "velocity": 116, "channel": 0}, {"type": "note_on", "time": 13, "note": 73, "velocity": 117, "channel": 0}, {"type": "note_off", "time": 33, "note": 73, "velocity": 117, "channel": 0}, {"type": "note_on", "time": 13, "note": 70, "velocity": 102, "channel": 0}, {"type": "note_off", "time": 149, "note": 70, "velocity": 102, "channel": 0}, {"type": "note_on", "time": 315, "note": 70, "velocity": 106, "channel": 0}, {"type": "note_off", "time": 35, "note": 70, "velocity": 106, "channel": 0}, {"type": "note_on", "time": 11, "note": 71, "velocity": 101, "channel": 0}, {"type": "note_off", "time": 26, "note": 71, "velocity": 101, "channel": 0}, {"type": "note_on", "time": 15, "note": 72, "velocity": 116, "channel": 0}, {"type": "note_off", "time": 34, "note": 72, "velocity": 116, "channel": 0}, {"type": "note_on", "time": 15, "note": 74, "velocity": 106, "channel": 0}, {"type": "note_off", "time": 25, "note": 74, "velocity": 106, "channel": 0}, {"type": "note_on", "time": 7, "note": 76, "velocity": 120, "channel": 0}, {"type": "note_off", "time": 51, "note": 76, "velocity": 120, "channel": 0}, {"type": "note_on", "time": 14, "note": 72, "velocity": 101, "channel": 0}, {"type": "note_off", "time": 24, "note": 72, "velocity": 101, "channel": 0}, {"type": "note_on", "time": 9, "note": 75, "velocity": 120, "channel": 0}, {"type": "note_off", "time": 44, "note": 75, "velocity": 120, "channel": 0}, {"type": "note_on", "time": 17, "note": 72, "velocity": 114, "channel": 0}, {"type": "note_off", "time": 29, "note": 72, "velocity": 114, "channel": 0}, {"type": "note_on", "time": 2, "note": 73, "velocity": 106, "channel": 0}, {"type": "note_off", "time": 47, "note": 73, "velocity": 106, "channel": 0}, {"type": "note_on", "time": 9, "note": 75, "velocity": 116, "channel": 0}, {"type": "note_off", "time": 33, "note": 75, "velocity": 116, "channel": 0}, {"type": "note_on", "time": 8, "note": 76, "velocity": 118, "channel": 0}, {"type": "note_off", "time": 69, "note": 76, "velocity": 118, "channel": 0}, {"type": "note_on", "time": 127, "note": 78, "velocity": 117, "channel": 0}, {"type": "note_off", "time": 42, "note": 78, "velocity": 117, "channel": 0}, {"type": "note_on", "time": 9, "note": 72, "velocity": 98, "channel": 0}, {"type": "note_off", "time": 21, "note": 72, "velocity": 98, "channel": 0}, {"type": "note_on", "time": 9, "note": 77, "velocity": 111, "channel": 0}, {"type": "note_off", "time": 32, "note": 77, "velocity": 111, "channel": 0}, {"type": "note_on", "time": 11, "note": 78, "velocity": 115, "channel": 0}, {"type": "note_off", "time": 45, "note": 78, "velocity": 115, "channel": 0}, {"type": "note_on", "time": 6, "note": 80, "velocity": 117, "channel": 0}, {"type": "note_off", "time": 19, "note": 80, "velocity": 117, "channel": 0}, {"type": "note_on", "time": 11, "note": 78, "velocity": 113, "channel": 0}, {"type": "note_off", "time": 43, "note": 78, "velocity": 113, "channel": 0}, {"type": "note_on", "time": 9, "note": 77, "velocity": 113, "channel": 0}, {"type": "note_off", "time": 30, "note": 77, "velocity": 113, "channel": 0}, {"type": "note_on", "time": 14, "note": 73, "velocity": 105, "channel": 0}, {"type": "note_off", "time": 26, "note": 73, "velocity": 105, "channel": 0}, {"type": "note_on", "time": 6, "note": 76, "velocity": 115, "channel": 0}, {"type": "note_off", "time": 45, "note": 76, "velocity": 115, "channel": 0}, {"type": "note_on", "time": 2, "note": 73, "velocity": 104, "channel": 0}, {"type": "note_off", "time": 28, "note": 73, "velocity": 104, "channel": 0}, {"type": "note_on", "time": 7, "note": 75, "velocity": 115, "channel": 0}, {"type": "note_off", "time": 59, "note": 75, "velocity": 115, "channel": 0}, {"type": "note_on", "time": 53, "note": 74, "velocity": 113, "channel": 0}, {"type": "note_off", "time": 28, "note": 74, "velocity": 113, "channel": 0}, {"type": "note_on", "time": 6, "note": 70, "velocity": 102, "channel": 0}, {"type": "note_off", "time": 37, "note": 70, "velocity": 102, "channel": 0}, {"type": "note_on", "time": 15, "note": 66, "velocity": 102, "channel": 0}, {"type": "note_off", "time": 32, "note": 66, "velocity": 102, "channel": 0}, {"type": "note_on", "time": 70, "note": 66, "velocity": 107, "channel": 0}, {"type": "note_off", "time": 52, "note": 66, "velocity": 107, "channel": 0}, {"type": "note_on", "time": 5, "note": 67, "velocity": 107, "channel": 0}, {"type": "note_off", "time": 221, "note": 67, "velocity": 107, "channel": 0}, {"type": "note_on", "time": 15, "note": 66, "velocity": 93, "channel": 0}, {"type": "note_off", "time": 106, "note": 66, "velocity": 93, "channel": 0}, {"type": "note_on", "time": 4, "note": 64, "velocity": 92, "channel": 0}, {"type": "note_off", "time": 33, "note": 64, "velocity": 92, "channel": 0}, {"type": "note_on", "time": 5, "note": 62, "velocity": 92, "channel": 0}, {"type": "note_off", "time": 37, "note": 62, "velocity": 92, "channel": 0}, {"type": "note_on", "time": 1, "note": 59, "velocity": 99, "channel": 0}, {"type": "note_off", "time": 59, "note": 59, "velocity": 99, "channel": 0}, {"type": "note_on", "time": 735, "note": 59, "velocity": 112, "channel": 0}, {"type": "note_off", "time": 46, "note": 59, "velocity": 112, "channel": 0}, {"type": "note_on", "time": 12, "note": 64, "velocity": 115, "channel": 0}, {"type": "note_off", "time": 59, "note": 64, "velocity": 115, "channel": 0}, {"type": "note_on", "time": 15, "note": 69, "velocity": 116, "channel": 0}, {"type": "note_off", "time": 52, "note": 69, "velocity": 116, "channel": 0}, {"type": "note_on", "time": 16, "note": 71, "velocity": 115, "channel": 0}, {"type": "note_off", "time": 59, "note": 71, "velocity": 115, "channel": 0}, {"type": "note_on", "time": 4, "note": 72, "velocity": 117, "channel": 0}, {"type": "note_off", "time": 61, "note": 72, "velocity": 117, "channel": 0}, {"type": "note_on", "time": 19, "note": 76, "velocity": 122, "channel": 0}, {"type": "note_off", "time": 53, "note": 76, "velocity": 122, "channel": 0}, {"type": "note_on", "time": 13, "note": 81, "velocity": 121, "channel": 0}, {"type": "note_off", "time": 59, "note": 81, "velocity": 121, "channel": 0}, {"type": "note_on", "time": 19, "note": 83, "velocity": 118, "channel": 0}, {"type": "note_off", "time": 66, "note": 83, "velocity": 118, "channel": 0}, {"type": "note_on", "time": 5, "note": 77, "velocity": 113, "channel": 0}, {"type": "note_off", "time": 53, "note": 77, "velocity": 113, "channel": 0}, {"type": "note_on", "time": 4, "note": 81, "velocity": 120, "channel": 0}, {"type": "note_off", "time": 61, "note": 81, "velocity": 120, "channel": 0}, {"type": "note_on", "time": 16, "note": 76, "velocity": 119, "channel": 0}, {"type": "note_off", "time": 37, "note": 76, "velocity": 119, "channel": 0}, {"type": "note_on", "time": 3, "note": 77, "velocity": 126, "channel": 0}, {"type": "note_off", "time": 58, "note": 77, "velocity": 126, "channel": 0}, {"type": "note_on", "time": 14, "note": 72, "velocity": 110, "channel": 0}, {"type": "note_off", "time": 42, "note": 72, "velocity": 110, "channel": 0}, {"type": "note_on", "time": 5, "note": 76, "velocity": 126, "channel": 0}, {"type": "note_off", "time": 50, "note": 76, "velocity": 126, "channel": 0}, {"type": "note_on", "time": 11, "note": 71, "velocity": 107, "channel": 0}, {"type": "note_off", "time": 43, "note": 71, "velocity": 107, "channel": 0}, {"type": "note_on", "time": 12, "note": 65, "velocity": 117, "channel": 0}, {"type": "note_off", "time": 52, "note": 65, "velocity": 117, "channel": 0}, {"type": "note_on", "time": 12, "note": 64, "velocity": 113, "channel": 0}, {"type": "note_off", "time": 31, "note": 64, "velocity": 113, "channel": 0}, {"type": "note_on", "time": 31, "note": 68, "velocity": 115, "channel": 0}, {"type": "note_off", "time": 55, "note": 68, "velocity": 115, "channel": 0}, {"type": "note_on", "time": 4, "note": 71, "velocity": 103, "channel": 0}, {"type": "note_off", "time": 43, "note": 71, "velocity": 103, "channel": 0}, {"type": "note_on", "time": 7, "note": 75, "velocity": 123, "channel": 0}, {"type": "note_off", "time": 76, "note": 75, "velocity": 123, "channel": 0}, {"type": "note_on", "time": 9, "note": 80, "velocity": 119, "channel": 0}, {"type": "note_off", "time": 84, "note": 80, "velocity": 119, "channel": 0}, {"type": "note_on", "time": 8, "note": 77, "velocity": 118, "channel": 0}, {"type": "note_off", "time": 58, "note": 77, "velocity": 118, "channel": 0}, {"type": "note_on", "time": 18, "note": 72, "velocity": 109, "channel": 0}, {"type": "note_off", "time": 33, "note": 72, "velocity": 109, "channel": 0}, {"type": "note_on", "time": 12, "note": 75, "velocity": 119, "channel": 0}, {"type": "note_off", "time": 63, "note": 75, "velocity": 119, "channel": 0}, {"type": "note_on", "time": 6, "note": 71, "velocity": 107, "channel": 0}, {"type": "note_off", "time": 29, "note": 71, "velocity": 107, "channel": 0}, {"type": "note_on", "time": 19, "note": 65, "velocity": 110, "channel": 0}, {"type": "note_off", "time": 29, "note": 65, "velocity": 110, "channel": 0}, {"type": "note_on", "time": 13, "note": 63, "velocity": 108, "channel": 0}, {"type": "note_off", "time": 32, "note": 63, "velocity": 108, "channel": 0}, {"type": "note_on", "time": 9, "note": 66, "velocity": 108, "channel": 0}, {"type": "note_off", "time": 24, "note": 66, "velocity": 108, "channel": 0}, {"type": "note_on", "time": 7, "note": 68, "velocity": 116, "channel": 0}, {"type": "note_off", "time": 25, "note": 68, "velocity": 116, "channel": 0}, {"type": "note_on", "time": 12, "note": 70, "velocity": 109, "channel": 0}, {"type": "note_off", "time": 37, "note": 70, "velocity": 109, "channel": 0}, {"type": "note_on", "time": 3, "note": 71, "velocity": 110, "channel": 0}, {"type": "note_off", "time": 42, "note": 71, "velocity": 110, "channel": 0}, {"type": "note_on", "time": 9, "note": 72, "velocity": 117, "channel": 0}, {"type": "note_off", "time": 80, "note": 72, "velocity": 117, "channel": 0}, {"type": "note_on", "time": 6, "note": 73, "velocity": 116, "channel": 0}, {"type": "note_off", "time": 131, "note": 73, "velocity": 116, "channel": 0}, {"type": "note_on", "time": 9, "note": 72, "velocity": 112, "channel": 0}, {"type": "note_off", "time": 124, "note": 72, "velocity": 112, "channel": 0}, {"type": "note_on", "time": 31, "note": 69, "velocity": 111, "channel": 0}, {"type": "note_off", "time": 125, "note": 69, "velocity": 111, "channel": 0}, {"type": "note_on", "time": 11, "note": 68, "velocity": 112, "channel": 0}, {"type": "note_off", "time": 88, "note": 68, "velocity": 112, "channel": 0}, {"type": "note_on", "time": 8, "note": 69, "velocity": 109, "channel": 0}, {"type": "note_off", "time": 80, "note": 69, "velocity": 109, "channel": 0}, {"type": "note_on", "time": 7, "note": 68, "velocity": 113, "channel": 0}, {"type": "note_off", "time": 92, "note": 68, "velocity": 113, "channel": 0}, {"type": "note_on", "time": 22, "note": 72, "velocity": 119, "channel": 0}, {"type": "note_off", "time": 111, "note": 72, "velocity": 119, "channel": 0}, {"type": "note_on", "time": 15, "note": 73, "velocity": 117, "channel": 0}, {"type": "note_off", "time": 114, "note": 73, "velocity": 117, "channel": 0}, {"type": "note_on", "time": 16, "note": 72, "velocity": 9, "channel": 0}, {"type": "note_off", "time": 94, "note": 72, "velocity": 9, "channel": 0}, {"type": "note_on", "time": 22, "note": 69, "velocity": 110, "channel": 0}, {"type": "note_off", "time": 92, "note": 69, "velocity": 110, "channel": 0}, {"type": "note_on", "time": 16, "note": 76, "velocity": 122, "channel": 0}, {"type": "note_off", "time": 93, "note": 76, "velocity": 122, "channel": 0}, {"type": "note_on", "time": 11, "note": 78, "velocity": 117, "channel": 0}, {"type": "note_off", "time": 142, "note": 78, "velocity": 117, "channel": 0}, {"type": "note_on", "time": 8, "note": 76, "velocity": 118, "channel": 0}, {"type": "note_off", "time": 118, "note": 76, "velocity": 118, "channel": 0}, {"type": "note_on", "time": 21, "note": 69, "velocity": 112, "channel": 0}, {"type": "note_off", "time": 91, "note": 69, "velocity": 112, "channel": 0}, {"type": "note_on", "time": 34, "note": 78, "velocity": 111, "channel": 0}, {"type": "note_off", "time": 47, "note": 78, "velocity": 111, "channel": 0}, {"type": "note_on", "time": 4, "note": 80, "velocity": 111, "channel": 0}, {"type": "note_off", "time": 41, "note": 80, "velocity": 111, "channel": 0}, {"type": "note_on", "time": 60, "note": 79, "velocity": 111, "channel": 0}, {"type": "note_off", "time": 168, "note": 79, "velocity": 111, "channel": 0}, {"type": "note_on", "time": 18, "note": 76, "velocity": 113, "channel": 0}, {"type": "note_off", "time": 38, "note": 76, "velocity": 113, "channel": 0}, {"type": "note_on", "time": 8, "note": 71, "velocity": 105, "channel": 0}, {"type": "note_off", "time": 38, "note": 71, "velocity": 105, "channel": 0}, {"type": "note_on", "time": 3, "note": 68, "velocity": 108, "channel": 0}, {"type": "note_off", "time": 21, "note": 68, "velocity": 108, "channel": 0}, {"type": "note_on", "time": 3, "note": 67, "velocity": 108, "channel": 0}, {"type": "note_off", "time": 27, "note": 67, "velocity": 108, "channel": 0}, {"type": "note_on", "time": 3, "note": 66, "velocity": 104, "channel": 0}, {"type": "note_off", "time": 15, "note": 66, "velocity": 104, "channel": 0}, {"type": "note_on", "time": 2, "note": 64, "velocity": 103, "channel": 0}, {"type": "note_off", "time": 24, "note": 64, "velocity": 103, "channel": 0}, {"type": "note_on", "time": 3, "note": 63, "velocity": 108, "channel": 0}, {"type": "note_off", "time": 52, "note": 63, "velocity": 108, "channel": 0}, {"type": "note_on", "time": 695, "note": 65, "velocity": 113, "channel": 0}, {"type": "note_off", "time": 44, "note": 65, "velocity": 113, "channel": 0}, {"type": "note_on", "time": 9, "note": 70, "velocity": 96, "channel": 0}, {"type": "note_off", "time": 26, "note": 70, "velocity": 96, "channel": 0}, {"type": "note_on", "time": 9, "note": 72, "velocity": 116, "channel": 0}, {"type": "note_off", "time": 57, "note": 72, "velocity": 116, "channel": 0}, {"type": "note_on", "time": 36, "note": 75, "velocity": 119, "channel": 0}, {"type": "note_off", "time": 63, "note": 75, "velocity": 119, "channel": 0}, {"type": "note_on", "time": 133, "note": 65, "velocity": 110, "channel": 0}, {"type": "note_off", "time": 52, "note": 65, "velocity": 110, "channel": 0}, {"type": "note_on", "time": 355, "note": 65, "velocity": 118, "channel": 0}, {"type": "note_off", "time": 34, "note": 65, "velocity": 118, "channel": 0}, {"type": "note_on", "time": 11, "note": 71, "velocity": 98, "channel": 0}, {"type": "note_off", "time": 17, "note": 71, "velocity": 98, "channel": 0}, {"type": "note_on", "time": 7, "note": 72, "velocity": 117, "channel": 0}, {"type": "note_off", "time": 47, "note": 72, "velocity": 117, "channel": 0}, {"type": "note_on", "time": 53, "note": 75, "velocity": 116, "channel": 0}, {"type": "note_off", "time": 48, "note": 75, "velocity": 116, "channel": 0}, {"type": "note_on", "time": 6, "note": 82, "velocity": 108, "channel": 0}, {"type": "note_off", "time": 106, "note": 82, "velocity": 108, "channel": 0}, {"type": "note_on", "time": 16, "note": 77, "velocity": 115, "channel": 0}, {"type": "note_off", "time": 57, "note": 77, "velocity": 115, "channel": 0}, {"type": "note_on", "time": 328, "note": 65, "velocity": 117, "channel": 0}, {"type": "note_off", "time": 53, "note": 65, "velocity": 117, "channel": 0}, {"type": "note_on", "time": 7, "note": 70, "velocity": 105, "channel": 0}, {"type": "note_off", "time": 11, "note": 70, "velocity": 105, "channel": 0}, {"type": "note_on", "time": 4, "note": 72, "velocity": 116, "channel": 0}, {"type": "note_off", "time": 52, "note": 72, "velocity": 116, "channel": 0}, {"type": "note_on", "time": 41, "note": 75, "velocity": 116, "channel": 0}, {"type": "note_off", "time": 55, "note": 75, "velocity": 116, "channel": 0}, {"type": "note_on", "time": 416, "note": 65, "velocity": 117, "channel": 0}, {"type": "note_off", "time": 46, "note": 65, "velocity": 117, "channel": 0}, {"type": "note_on", "time": 7, "note": 66, "velocity": 110, "channel": 0}, {"type": "note_off", "time": 25, "note": 66, "velocity": 110, "channel": 0}, {"type": "note_on", "time": 9, "note": 70, "velocity": 106, "channel": 0}, {"type": "note_off", "time": 42, "note": 70, "velocity": 106, "channel": 0}, {"type": "note_on", "time": 5, "note": 71, "velocity": 101, "channel": 0}, {"type": "note_off", "time": 22, "note": 71, "velocity": 101, "channel": 0}, {"type": "note_on", "time": 9, "note": 74, "velocity": 121, "channel": 0}, {"type": "note_off", "time": 42, "note": 74, "velocity": 121, "channel": 0}, {"type": "note_on", "time": 16, "note": 77, "velocity": 123, "channel": 0}, {"type": "note_off", "time": 37, "note": 77, "velocity": 123, "channel": 0}, {"type": "note_on", "time": 2, "note": 78, "velocity": 122, "channel": 0}, {"type": "note_off", "time": 48, "note": 78, "velocity": 122, "channel": 0}, {"type": "note_on", "time": 102, "note": 81, "velocity": 108, "channel": 0}, {"type": "note_off", "time": 59, "note": 81, "velocity": 108, "channel": 0}, {"type": "note_on", "time": 352, "note": 77, "velocity": 123, "channel": 0}, {"type": "note_off", "time": 51, "note": 77, "velocity": 123, "channel": 0}, {"type": "note_on", "time": 1, "note": 79, "velocity": 110, "channel": 0}, {"type": "note_off", "time": 29, "note": 79, "velocity": 110, "channel": 0}, {"type": "note_on", "time": 6, "note": 81, "velocity": 117, "channel": 0}, {"type": "note_off", "time": 41, "note": 81, "velocity": 117, "channel": 0}, {"type": "note_on", "time": 15, "note": 77, "velocity": 104, "channel": 0}, {"type": "note_off", "time": 30, "note": 77, "velocity": 104, "channel": 0}, {"type": "note_on", "time": 5, "note": 82, "velocity": 117, "channel": 0}, {"type": "note_off", "time": 50, "note": 82, "velocity": 117, "channel": 0}, {"type": "note_on", "time": 12, "note": 77, "velocity": 102, "channel": 0}, {"type": "note_off", "time": 24, "note": 77, "velocity": 102, "channel": 0}, {"type": "note_on", "time": 9, "note": 81, "velocity": 112, "channel": 0}, {"type": "note_off", "time": 47, "note": 81, "velocity": 112, "channel": 0}, {"type": "note_on", "time": 5, "note": 77, "velocity": 104, "channel": 0}, {"type": "note_off", "time": 14, "note": 77, "velocity": 104, "channel": 0}, {"type": "note_on", "time": 11, "note": 81, "velocity": 109, "channel": 0}, {"type": "note_off", "time": 66, "note": 81, "velocity": 109, "channel": 0}, {"type": "note_on", "time": 7, "note": 74, "velocity": 106, "channel": 0}, {"type": "note_off", "time": 48, "note": 74, "velocity": 106, "channel": 0}, {"type": "note_on", "time": 14, "note": 76, "velocity": 115, "channel": 0}, {"type": "note_off", "time": 38, "note": 76, "velocity": 115, "channel": 0}, {"type": "note_on", "time": 17, "note": 80, "velocity": 120, "channel": 0}, {"type": "note_off", "time": 29, "note": 80, "velocity": 120, "channel": 0}, {"type": "note_on", "time": 7, "note": 74, "velocity": 110, "channel": 0}, {"type": "note_off", "time": 29, "note": 74, "velocity": 110, "channel": 0}, {"type": "note_on", "time": 10, "note": 77, "velocity": 117, "channel": 0}, {"type": "note_off", "time": 38, "note": 77, "velocity": 117, "channel": 0}, {"type": "note_on", "time": 17, "note": 81, "velocity": 116, "channel": 0}, {"type": "note_off", "time": 32, "note": 81, "velocity": 116, "channel": 0}, {"type": "note_on", "time": 4, "note": 80, "velocity": 120, "channel": 0}, {"type": "note_off", "time": 40, "note": 80, "velocity": 120, "channel": 0}, {"type": "note_on", "time": 10, "note": 78, "velocity": 117, "channel": 0}, {"type": "note_off", "time": 28, "note": 78, "velocity": 117, "channel": 0}, {"type": "note_on", "time": 13, "note": 73, "velocity": 112, "channel": 0}, {"type": "note_off", "time": 48, "note": 73, "velocity": 112, "channel": 0}, {"type": "note_on", "time": 8, "note": 71, "velocity": 100, "channel": 0}, {"type": "note_off", "time": 27, "note": 71, "velocity": 100, "channel": 0}, {"type": "note_on", "time": 7, "note": 76, "velocity": 122, "channel": 0}, {"type": "note_off", "time": 55, "note": 76, "velocity": 122, "channel": 0}, {"type": "note_on", "time": 3, "note": 77, "velocity": 118, "channel": 0}, {"type": "note_off", "time": 24, "note": 77, "velocity": 118, "channel": 0}, {"type": "note_on", "time": 11, "note": 79, "velocity": 121, "channel": 0}, {"type": "note_off", "time": 47, "note": 79, "velocity": 121, "channel": 0}, {"type": "note_on", "time": 14, "note": 78, "velocity": 122, "channel": 0}, {"type": "note_off", "time": 32, "note": 78, "velocity": 122, "channel": 0}, {"type": "note_on", "time": 4, "note": 77, "velocity": 125, "channel": 0}, {"type": "note_off", "time": 38, "note": 77, "velocity": 125, "channel": 0}, {"type": "note_on", "time": 14, "note": 76, "velocity": 122, "channel": 0}, {"type": "note_off", "time": 41, "note": 76, "velocity": 122, "channel": 0}, {"type": "note_on", "time": 1, "note": 75, "velocity": 121, "channel": 0}, {"type": "note_off", "time": 26, "note": 75, "velocity": 121, "channel": 0}, {"type": "note_on", "time": 12, "note": 74, "velocity": 118, "channel": 0}, {"type": "note_off", "time": 30, "note": 74, "velocity": 118, "channel": 0}, {"type": "note_on", "time": 4, "note": 73, "velocity": 118, "channel": 0}, {"type": "note_off", "time": 35, "note": 73, "velocity": 118, "channel": 0}, {"type": "note_on", "time": 14, "note": 74, "velocity": 113, "channel": 0}, {"type": "note_off", "time": 41, "note": 74, "velocity": 113, "channel": 0}, {"type": "note_on", "time": 3, "note": 76, "velocity": 118, "channel": 0}, {"type": "note_off", "time": 53, "note": 76, "velocity": 118, "channel": 0}, {"type": "note_on", "time": 10, "note": 73, "velocity": 111, "channel": 0}, {"type": "note_off", "time": 36, "note": 73, "velocity": 111, "channel": 0}, {"type": "note_on", "time": 6, "note": 74, "velocity": 118, "channel": 0}, {"type": "note_off", "time": 26, "note": 74, "velocity": 118, "channel": 0}, {"type": "note_on", "time": 4, "note": 70, "velocity": 104, "channel": 0}, {"type": "note_off", "time": 23, "note": 70, "velocity": 104, "channel": 0}, {"type": "note_on", "time": 8, "note": 65, "velocity": 112, "channel": 0}, {"type": "note_off", "time": 58, "note": 65, "velocity": 112, "channel": 0}, {"type": "note_on", "time": 12, "note": 62, "velocity": 111, "channel": 0}, {"type": "note_off", "time": 30, "note": 62, "velocity": 111, "channel": 0}, {"type": "note_on", "time": 9, "note": 69, "velocity": 112, "channel": 0}, {"type": "note_off", "time": 33, "note": 69, "velocity": 112, "channel": 0}, {"type": "note_on", "time": 18, "note": 73, "velocity": 115, "channel": 0}, {"type": "note_off", "time": 35, "note": 73, "velocity": 115, "channel": 0}, {"type": "note_on", "time": 12, "note": 72, "velocity": 110, "channel": 0}, {"type": "note_off", "time": 30, "note": 72, "velocity": 110, "channel": 0}, {"type": "note_on", "time": 6, "note": 70, "velocity": 106, "channel": 0}, {"type": "note_off", "time": 39, "note": 70, "velocity": 106, "channel": 0}, {"type": "note_on", "time": 10, "note": 69, "velocity": 110, "channel": 0}, {"type": "note_off", "time": 39, "note": 69, "velocity": 110, "channel": 0}, {"type": "note_on", "time": 15, "note": 66, "velocity": 116, "channel": 0}, {"type": "note_off", "time": 30, "note": 66, "velocity": 116, "channel": 0}, {"type": "note_on", "time": 6, "note": 65, "velocity": 116, "channel": 0}, {"type": "note_off", "time": 25, "note": 65, "velocity": 116, "channel": 0}, {"type": "note_on", "time": 17, "note": 64, "velocity": 115, "channel": 0}, {"type": "note_off", "time": 30, "note": 64, "velocity": 115, "channel": 0}, {"type": "note_on", "time": 11, "note": 63, "velocity": 114, "channel": 0}, {"type": "note_off", "time": 30, "note": 63, "velocity": 114, "channel": 0}, {"type": "note_on", "time": 14, "note": 62, "velocity": 113, "channel": 0}, {"type": "note_off", "time": 45, "note": 62, "velocity": 113, "channel": 0}, {"type": "note_on", "time": 11, "note": 61, "velocity": 111, "channel": 0}, {"type": "note_off", "time": 46, "note": 61, "velocity": 111, "channel": 0}, {"type": "note_on", "time": 15, "note": 66, "velocity": 116, "channel": 0}, {"type": "note_off", "time": 23, "note": 66, "velocity": 116, "channel": 0}, {"type": "note_on", "time": 7, "note": 63, "velocity": 112, "channel": 0}, {"type": "note_off", "time": 39, "note": 63, "velocity": 112, "channel": 0}, {"type": "note_on", "time": 10, "note": 65, "velocity": 115, "channel": 0}, {"type": "note_off", "time": 34, "note": 65, "velocity": 115, "channel": 0}, {"type": "note_on", "time": 20, "note": 68, "velocity": 111, "channel": 0}, {"type": "note_off", "time": 38, "note": 68, "velocity": 111, "channel": 0}, {"type": "note_on", "time": 14, "note": 70, "velocity": 100, "channel": 0}, {"type": "note_off", "time": 21, "note": 70, "velocity": 100, "channel": 0}, {"type": "note_on", "time": 10, "note": 72, "velocity": 108, "channel": 0}, {"type": "note_off", "time": 28, "note": 72, "velocity": 108, "channel": 0}, {"type": "note_on", "time": 11, "note": 75, "velocity": 113, "channel": 0}, {"type": "note_off", "time": 29, "note": 75, "velocity": 113, "channel": 0}, {"type": "note_on", "time": 10, "note": 78, "velocity": 116, "channel": 0}, {"type": "note_off", "time": 44, "note": 78, "velocity": 116, "channel": 0}, {"type": "note_on", "time": 4, "note": 79, "velocity": 95, "channel": 0}, {"type": "note_off", "time": 32, "note": 79, "velocity": 95, "channel": 0}, {"type": "note_on", "time": 7, "note": 77, "velocity": 119, "channel": 0}, {"type": "note_off", "time": 42, "note": 77, "velocity": 119, "channel": 0}, {"type": "note_on", "time": 7, "note": 76, "velocity": 121, "channel": 0}, {"type": "note_off", "time": 31, "note": 76, "velocity": 121, "channel": 0}, {"type": "note_on", "time": 7, "note": 75, "velocity": 118, "channel": 0}, {"type": "note_off", "time": 46, "note": 75, "velocity": 118, "channel": 0}, {"type": "note_on", "time": 25, "note": 73, "velocity": 117, "channel": 0}, {"type": "note_off", "time": 19, "note": 73, "velocity": 117, "channel": 0}, {"type": "note_on", "time": 16, "note": 72, "velocity": 116, "channel": 0}, {"type": "note_off", "time": 53, "note": 72, "velocity": 116, "channel": 0}, {"type": "note_on", "time": 5, "note": 69, "velocity": 109, "channel": 0}, {"type": "note_off", "time": 27, "note": 69, "velocity": 109, "channel": 0}, {"type": "note_on", "time": 9, "note": 65, "velocity": 120, "channel": 0}, {"type": "note_off", "time": 34, "note": 65, "velocity": 120, "channel": 0}, {"type": "note_on", "time": 12, "note": 60, "velocity": 100, "channel": 0}, {"type": "note_off", "time": 37, "note": 60, "velocity": 100, "channel": 0}, {"type": "note_on", "time": 9, "note": 69, "velocity": 118, "channel": 0}, {"type": "note_off", "time": 25, "note": 69, "velocity": 118, "channel": 0}, {"type": "note_on", "time": 5, "note": 65, "velocity": 112, "channel": 0}, {"type": "note_off", "time": 17, "note": 65, "velocity": 112, "channel": 0}, {"type": "note_on", "time": 1, "note": 60, "velocity": 111, "channel": 0}, {"type": "note_off", "time": 30, "note": 60, "velocity": 111, "channel": 0}, {"type": "note_on", "time": 16, "note": 65, "velocity": 115, "channel": 0}, {"type": "note_off", "time": 26, "note": 65, "velocity": 115, "channel": 0}, {"type": "note_on", "time": 9, "note": 69, "velocity": 115, "channel": 0}, {"type": "note_off", "time": 34, "note": 69, "velocity": 115, "channel": 0}, {"type": "note_on", "time": 6, "note": 68, "velocity": 115, "channel": 0}, {"type": "note_off", "time": 29, "note": 68, "velocity": 115, "channel": 0}, {"type": "note_on", "time": 16, "note": 67, "velocity": 118, "channel": 0}, {"type": "note_off", "time": 16, "note": 67, "velocity": 118, "channel": 0}, {"type": "note_on", "time": 2, "note": 70, "velocity": 106, "channel": 0}, {"type": "note_off", "time": 24, "note": 70, "velocity": 106, "channel": 0}, {"type": "note_on", "time": 3, "note": 71, "velocity": 110, "channel": 0}, {"type": "note_off", "time": 36, "note": 71, "velocity": 110, "channel": 0}, {"type": "note_on", "time": 11, "note": 73, "velocity": 111, "channel": 0}, {"type": "note_off", "time": 22, "note": 73, "velocity": 111, "channel": 0}, {"type": "note_on", "time": 14, "note": 75, "velocity": 121, "channel": 0}, {"type": "note_off", "time": 45, "note": 75, "velocity": 121, "channel": 0}, {"type": "note_on", "time": 3, "note": 78, "velocity": 119, "channel": 0}, {"type": "note_off", "time": 31, "note": 78, "velocity": 119, "channel": 0}, {"type": "note_on", "time": 8, "note": 77, "velocity": 125, "channel": 0}, {"type": "note_off", "time": 55, "note": 77, "velocity": 125, "channel": 0}, {"type": "note_on", "time": 9, "note": 75, "velocity": 120, "channel": 0}, {"type": "note_off", "time": 30, "note": 75, "velocity": 120, "channel": 0}, {"type": "note_on", "time": 9, "note": 74, "velocity": 117, "channel": 0}, {"type": "note_off", "time": 30, "note": 74, "velocity": 117, "channel": 0}, {"type": "note_on", "time": 23, "note": 70, "velocity": 110, "channel": 0}, {"type": "note_off", "time": 23, "note": 70, "velocity": 110, "channel": 0}, {"type": "note_on", "time": 6, "note": 67, "velocity": 117, "channel": 0}, {"type": "note_off", "time": 65, "note": 67, "velocity": 117, "channel": 0}, {"type": "note_on", "time": 4, "note": 76, "velocity": 118, "channel": 0}, {"type": "note_off", "time": 59, "note": 76, "velocity": 118, "channel": 0}, {"type": "note_on", "time": 10, "note": 72, "velocity": 112, "channel": 0}, {"type": "note_off", "time": 26, "note": 72, "velocity": 112, "channel": 0}, {"type": "note_on", "time": 23, "note": 68, "velocity": 110, "channel": 0}, {"type": "note_off", "time": 34, "note": 68, "velocity": 110, "channel": 0}, {"type": "note_on", "time": 5, "note": 65, "velocity": 98, "channel": 0}, {"type": "note_off", "time": 29, "note": 65, "velocity": 98, "channel": 0}, {"type": "note_on", "time": 22, "note": 75, "velocity": 121, "channel": 0}, {"type": "note_off", "time": 42, "note": 75, "velocity": 121, "channel": 0}, {"type": "note_on", "time": 39, "note": 65, "velocity": 115, "channel": 0}, {"type": "note_off", "time": 43, "note": 65, "velocity": 115, "channel": 0}, {"type": "note_on", "time": 9, "note": 62, "velocity": 107, "channel": 0}, {"type": "note_off", "time": 24, "note": 62, "velocity": 107, "channel": 0}, {"type": "note_on", "time": 18, "note": 70, "velocity": 104, "channel": 0}, {"type": "note_off", "time": 168, "note": 70, "velocity": 104, "channel": 0}, {"type": "note_on", "time": 31, "note": 74, "velocity": 119, "channel": 0}, {"type": "note_off", "time": 29, "note": 74, "velocity": 119, "channel": 0}, {"type": "note_on", "time": 7, "note": 72, "velocity": 116, "channel": 0}, {"type": "note_off", "time": 25, "note": 72, "velocity": 116, "channel": 0}, {"type": "note_on", "time": 12, "note": 70, "velocity": 105, "channel": 0}, {"type": "note_off", "time": 40, "note": 70, "velocity": 105, "channel": 0}, {"type": "note_on", "time": 11, "note": 67, "velocity": 113, "channel": 0}, {"type": "note_off", "time": 24, "note": 67, "velocity": 113, "channel": 0}, {"type": "note_on", "time": 7, "note": 69, "velocity": 115, "channel": 0}, {"type": "note_off", "time": 23, "note": 69, "velocity": 115, "channel": 0}, {"type": "note_on", "time": 9, "note": 66, "velocity": 112, "channel": 0}, {"type": "note_off", "time": 27, "note": 66, "velocity": 112, "channel": 0}, {"type": "note_on", "time": 11, "note": 62, "velocity": 117, "channel": 0}, {"type": "note_off", "time": 32, "note": 62, "velocity": 117, "channel": 0}, {"type": "note_on", "time": 23, "note": 66, "velocity": 113, "channel": 0}, {"type": "note_off", "time": 51, "note": 66, "velocity": 113, "channel": 0}, {"type": "note_on", "time": 7, "note": 62, "velocity": 114, "channel": 0}, {"type": "note_off", "time": 31, "note": 62, "velocity": 114, "channel": 0}, {"type": "note_on", "time": 150, "note": 64, "velocity": 114, "channel": 0}, {"type": "note_off", "time": 30, "note": 64, "velocity": 114, "channel": 0}, {"type": "note_on", "time": 8, "note": 61, "velocity": 120, "channel": 0}, {"type": "note_off", "time": 20, "note": 61, "velocity": 120, "channel": 0}, {"type": "note_on", "time": 2, "note": 63, "velocity": 116, "channel": 0}, {"type": "note_off", "time": 44, "note": 63, "velocity": 116, "channel": 0}, {"type": "note_on", "time": 14, "note": 64, "velocity": 116, "channel": 0}, {"type": "note_off", "time": 48, "note": 64, "velocity": 116, "channel": 0}, {"type": "note_on", "time": 8, "note": 63, "velocity": 118, "channel": 0}, {"type": "note_off", "time": 45, "note": 63, "velocity": 118, "channel": 0}, {"type": "note_on", "time": 7, "note": 65, "velocity": 120, "channel": 0}, {"type": "note_off", "time": 33, "note": 65, "velocity": 120, "channel": 0}, {"type": "note_on", "time": 8, "note": 67, "velocity": 115, "channel": 0}, {"type": "note_off", "time": 41, "note": 67, "velocity": 115, "channel": 0}, {"type": "note_on", "time": 14, "note": 70, "velocity": 113, "channel": 0}, {"type": "note_off", "time": 25, "note": 70, "velocity": 113, "channel": 0}, {"type": "note_on", "time": 1, "note": 65, "velocity": 119, "channel": 0}, {"type": "note_off", "time": 72, "note": 65, "velocity": 119, "channel": 0}, {"type": "note_on", "time": 207, "note": 60, "velocity": 118, "channel": 0}, {"type": "note_off", "time": 44, "note": 60, "velocity": 118, "channel": 0}, {"type": "note_on", "time": 2, "note": 63, "velocity": 121, "channel": 0}, {"type": "note_off", "time": 23, "note": 63, "velocity": 121, "channel": 0}, {"type": "note_on", "time": 6, "note": 65, "velocity": 124, "channel": 0}, {"type": "note_off", "time": 32, "note": 65, "velocity": 124, "channel": 0}, {"type": "note_on", "time": 15, "note": 56, "velocity": 118, "channel": 0}, {"type": "note_off", "time": 121, "note": 56, "velocity": 118, "channel": 0}, {"type": "note_on", "time": 9, "note": 58, "velocity": 116, "channel": 0}, {"type": "note_off", "time": 38, "note": 58, "velocity": 116, "channel": 0}, {"type": "note_on", "time": 8, "note": 57, "velocity": 111, "channel": 0}, {"type": "note_off", "time": 131, "note": 57, "velocity": 111, "channel": 0}, {"type": "note_on", "time": 8, "note": 60, "velocity": 121, "channel": 0}, {"type": "note_off", "time": 59, "note": 60, "velocity": 121, "channel": 0}, {"type": "note_on", "time": 15, "note": 62, "velocity": 124, "channel": 0}, {"type": "note_off", "time": 74, "note": 62, "velocity": 124, "channel": 0}, {"type": "note_on", "time": 9, "note": 64, "velocity": 125, "channel": 0}, {"type": "note_off", "time": 65, "note": 64, "velocity": 125, "channel": 0}, {"type": "note_on", "time": 17, "note": 67, "velocity": 120, "channel": 0}, {"type": "note_off", "time": 84, "note": 67, "velocity": 120, "channel": 0}, {"type": "note_on", "time": 5, "note": 64, "velocity": 120, "channel": 0}, {"type": "note_off", "time": 61, "note": 64, "velocity": 120, "channel": 0}, {"type": "note_on", "time": 11, "note": 65, "velocity": 121, "channel": 0}, {"type": "note_off", "time": 72, "note": 65, "velocity": 121, "channel": 0}, {"type": "note_on", "time": 17, "note": 72, "velocity": 119, "channel": 0}, {"type": "note_off", "time": 59, "note": 72, "velocity": 119, "channel": 0}, {"type": "note_on", "time": 29, "note": 71, "velocity": 107, "channel": 0}, {"type": "note_off", "time": 205, "note": 71, "velocity": 107, "channel": 0}, {"type": "note_on", "time": 1, "note": 69, "velocity": 108, "channel": 0}, {"type": "note_off", "time": 24, "note": 69, "velocity": 108, "channel": 0}, {"type": "note_on", "time": 1, "note": 67, "velocity": 107, "channel": 0}, {"type": "note_off", "time": 31, "note": 67, "velocity": 107, "channel": 0}, {"type": "note_on", "time": 2, "note": 64, "velocity": 115, "channel": 0}, {"type": "note_off", "time": 30, "note": 64, "velocity": 115, "channel": 0}, {"type": "note_on", "time": 4, "note": 62, "velocity": 112, "channel": 0}, {"type": "note_off", "time": 18, "note": 62, "velocity": 112, "channel": 0}, {"type": "note_on", "time": 1, "note": 60, "velocity": 116, "channel": 0}, {"type": "note_off", "time": 36, "note": 60, "velocity": 116, "channel": 0}, {"type": "note_on", "time": 2, "note": 59, "velocity": 110, "channel": 0}, {"type": "note_off", "time": 60, "note": 59, "velocity": 110, "channel": 0}, {"type": "note_on", "time": 845, "note": 71, "velocity": 107, "channel": 0}, {"type": "note_off", "time": 46, "note": 71, "velocity": 107, "channel": 0}, {"type": "note_on", "time": 7, "note": 71, "velocity": 114, "channel": 0}, {"type": "note_off", "time": 42, "note": 71, "velocity": 114, "channel": 0}, {"type": "note_on", "time": 15, "note": 71, "velocity": 113, "channel": 0}, {"type": "note_off", "time": 52, "note": 71, "velocity": 113, "channel": 0}, {"type": "note_on", "time": 12, "note": 71, "velocity": 116, "channel": 0}, {"type": "note_off", "time": 48, "note": 71, "velocity": 116, "channel": 0}, {"type": "note_on", "time": 9, "note": 71, "velocity": 117, "channel": 0}, {"type": "note_off", "time": 54, "note": 71, "velocity": 117, "channel": 0}, {"type": "note_on", "time": 11, "note": 71, "velocity": 115, "channel": 0}, {"type": "note_off", "time": 54, "note": 71, "velocity": 115, "channel": 0}, {"type": "note_on", "time": 8, "note": 71, "velocity": 113, "channel": 0}, {"type": "note_off", "time": 48, "note": 71, "velocity": 113, "channel": 0}, {"type": "note_on", "time": 21, "note": 71, "velocity": 111, "channel": 0}, {"type": "note_off", "time": 63, "note": 71, "velocity": 111, "channel": 0}, {"type": "note_on", "time": 6, "note": 71, "velocity": 113, "channel": 0}, {"type": "note_off", "time": 54, "note": 71, "velocity": 113, "channel": 0}, {"type": "note_on", "time": 6, "note": 71, "velocity": 112, "channel": 0}, {"type": "note_off", "time": 48, "note": 71, "velocity": 112, "channel": 0}, {"type": "note_on", "time": 8, "note": 71, "velocity": 109, "channel": 0}, {"type": "note_off", "time": 51, "note": 71, "velocity": 109, "channel": 0}, {"type": "note_on", "time": 18, "note": 71, "velocity": 116, "channel": 0}, {"type": "note_off", "time": 51, "note": 71, "velocity": 116, "channel": 0}, {"type": "note_on", "time": 13, "note": 71, "velocity": 111, "channel": 0}, {"type": "note_off", "time": 58, "note": 71, "velocity": 111, "channel": 0}, {"type": "note_on", "time": 6, "note": 71, "velocity": 114, "channel": 0}, {"type": "note_off", "time": 52, "note": 71, "velocity": 114, "channel": 0}, {"type": "note_on", "time": 16, "note": 71, "velocity": 113, "channel": 0}, {"type": "note_off", "time": 53, "note": 71, "velocity": 113, "channel": 0}, {"type": "note_on", "time": 6, "note": 71, "velocity": 116, "channel": 0}, {"type": "note_off", "time": 52, "note": 71, "velocity": 116, "channel": 0}, {"type": "note_on", "time": 15, "note": 71, "velocity": 116, "channel": 0}, {"type": "note_off", "time": 54, "note": 71, "velocity": 116, "channel": 0}, {"type": "note_on", "time": 19, "note": 71, "velocity": 110, "channel": 0}, {"type": "note_off", "time": 110, "note": 71, "velocity": 110, "channel": 0}, {"type": "note_on", "time": 11, "note": 78, "velocity": 118, "channel": 0}, {"type": "note_off", "time": 57, "note": 78, "velocity": 118, "channel": 0}, {"type": "note_on", "time": 44, "note": 71, "velocity": 111, "channel": 0}, {"type": "note_off", "time": 59, "note": 71, "velocity": 111, "channel": 0}, {"type": "note_on", "time": 43, "note": 76, "velocity": 122, "channel": 0}, {"type": "note_off", "time": 61, "note": 76, "velocity": 122, "channel": 0}, {"type": "note_on", "time": 61, "note": 71, "velocity": 112, "channel": 0}, {"type": "note_off", "time": 54, "note": 71, "velocity": 112, "channel": 0}, {"type": "note_on", "time": 64, "note": 78, "velocity": 113, "channel": 0}, {"type": "note_off", "time": 51, "note": 78, "velocity": 113, "channel": 0}, {"type": "note_on", "time": 35, "note": 71, "velocity": 109, "channel": 0}, {"type": "note_off", "time": 60, "note": 71, "velocity": 109, "channel": 0}, {"type": "note_on", "time": 15, "note": 78, "velocity": 116, "channel": 0}, {"type": "note_off", "time": 47, "note": 78, "velocity": 116, "channel": 0}, {"type": "note_on", "time": 28, "note": 71, "velocity": 105, "channel": 0}, {"type": "note_off", "time": 42, "note": 71, "velocity": 105, "channel": 0}, {"type": "note_on", "time": 18, "note": 76, "velocity": 122, "channel": 0}, {"type": "note_off", "time": 55, "note": 76, "velocity": 122, "channel": 0}, {"type": "note_on", "time": 21, "note": 78, "velocity": 116, "channel": 0}, {"type": "note_off", "time": 57, "note": 78, "velocity": 116, "channel": 0}, {"type": "note_on", "time": 11, "note": 74, "velocity": 113, "channel": 0}, {"type": "note_off", "time": 39, "note": 74, "velocity": 113, "channel": 0}, {"type": "note_on", "time": 9, "note": 71, "velocity": 113, "channel": 0}, {"type": "note_off", "time": 55, "note": 71, "velocity": 113, "channel": 0}, {"type": "note_on", "time": 21, "note": 66, "velocity": 116, "channel": 0}, {"type": "note_off", "time": 46, "note": 66, "velocity": 116, "channel": 0}, {"type": "note_on", "time": 13, "note": 64, "velocity": 118, "channel": 0}, {"type": "note_off", "time": 47, "note": 64, "velocity": 118, "channel": 0}, {"type": "note_on", "time": 29, "note": 71, "velocity": 114, "channel": 0}, {"type": "note_off", "time": 43, "note": 71, "velocity": 114, "channel": 0}, {"type": "note_on", "time": 0, "note": 66, "velocity": 119, "channel": 0}, {"type": "note_off", "time": 44, "note": 66, "velocity": 119, "channel": 0}, {"type": "note_on", "time": 8, "note": 62, "velocity": 122, "channel": 0}, {"type": "note_off", "time": 82, "note": 62, "velocity": 122, "channel": 0}, {"type": "note_on", "time": 9, "note": 59, "velocity": 117, "channel": 0}, {"type": "note_off", "time": 75, "note": 59, "velocity": 117, "channel": 0}, {"type": "note_on", "time": 19, "note": 71, "velocity": 113, "channel": 0}, {"type": "note_off", "time": 51, "note": 71, "velocity": 113, "channel": 0}, {"type": "note_on", "time": 19, "note": 64, "velocity": 121, "channel": 0}, {"type": "note_off", "time": 65, "note": 64, "velocity": 121, "channel": 0}, {"type": "note_on", "time": 10, "note": 66, "velocity": 116, "channel": 0}, {"type": "note_off", "time": 59, "note": 66, "velocity": 116, "channel": 0}, {"type": "note_on", "time": 23, "note": 76, "velocity": 120, "channel": 0}, {"type": "note_off", "time": 57, "note": 76, "velocity": 120, "channel": 0}, {"type": "note_on", "time": 31, "note": 71, "velocity": 114, "channel": 0}, {"type": "note_off", "time": 67, "note": 71, "velocity": 114, "channel": 0}, {"type": "note_on", "time": 44, "note": 78, "velocity": 120, "channel": 0}, {"type": "note_off", "time": 57, "note": 78, "velocity": 120, "channel": 0}, {"type": "note_on", "time": 11, "note": 82, "velocity": 100, "channel": 0}, {"type": "note_off", "time": 171, "note": 82, "velocity": 100, "channel": 0}, {"type": "note_on", "time": 226, "note": 82, "velocity": 118, "channel": 0}, {"type": "note_off", "time": 40, "note": 82, "velocity": 118, "channel": 0}, {"type": "note_on", "time": 3, "note": 81, "velocity": 123, "channel": 0}, {"type": "note_off", "time": 41, "note": 81, "velocity": 123, "channel": 0}, {"type": "note_on", "time": 4, "note": 81, "velocity": 118, "channel": 0}, {"type": "note_off", "time": 37, "note": 81, "velocity": 118, "channel": 0}, {"type": "note_on", "time": 3, "note": 77, "velocity": 124, "channel": 0}, {"type": "note_off", "time": 53, "note": 77, "velocity": 124, "channel": 0}, {"type": "note_on", "time": 7, "note": 74, "velocity": 119, "channel": 0}, {"type": "note_off", "time": 35, "note": 74, "velocity": 119, "channel": 0}, {"type": "note_on", "time": 8, "note": 77, "velocity": 123, "channel": 0}, {"type": "note_off", "time": 34, "note": 77, "velocity": 123, "channel": 0}, {"type": "note_on", "time": 7, "note": 81, "velocity": 116, "channel": 0}, {"type": "note_off", "time": 52, "note": 81, "velocity": 116, "channel": 0}, {"type": "note_on", "time": 4, "note": 79, "velocity": 108, "channel": 0}, {"type": "note_off", "time": 38, "note": 79, "velocity": 108, "channel": 0}, {"type": "note_on", "time": 29, "note": 83, "velocity": 96, "channel": 0}, {"type": "note_off", "time": 43, "note": 83, "velocity": 96, "channel": 0}, {"type": "note_on", "time": 10, "note": 88, "velocity": 87, "channel": 0}, {"type": "note_off", "time": 54, "note": 88, "velocity": 87, "channel": 0}, {"type": "note_on", "time": 16, "note": 84, "velocity": 85, "channel": 0}, {"type": "note_off", "time": 28, "note": 84, "velocity": 85, "channel": 0}, {"type": "note_on", "time": 36, "note": 87, "velocity": 90, "channel": 0}, {"type": "note_off", "time": 71, "note": 87, "velocity": 90, "channel": 0}, {"type": "note_on", "time": 90, "note": 84, "velocity": 99, "channel": 0}, {"type": "note_off", "time": 26, "note": 84, "velocity": 99, "channel": 0}, {"type": "note_on", "time": 10, "note": 88, "velocity": 90, "channel": 0}, {"type": "note_off", "time": 136, "note": 88, "velocity": 90, "channel": 0}, {"type": "note_on", "time": 2, "note": 84, "velocity": 105, "channel": 0}, {"type": "note_off", "time": 195, "note": 84, "velocity": 105, "channel": 0}, {"type": "note_on", "time": 16, "note": 82, "velocity": 113, "channel": 0}, {"type": "note_off", "time": 170, "note": 82, "velocity": 113, "channel": 0}, {"type": "note_on", "time": 11, "note": 77, "velocity": 119, "channel": 0}, {"type": "note_off", "time": 184, "note": 77, "velocity": 119, "channel": 0}, {"type": "note_on", "time": 13, "note": 72, "velocity": 113, "channel": 0}, {"type": "note_off", "time": 26, "note": 72, "velocity": 113, "channel": 0}, {"type": "note_on", "time": 7, "note": 75, "velocity": 119, "channel": 0}, {"type": "note_off", "time": 124, "note": 75, "velocity": 119, "channel": 0}, {"type": "note_on", "time": 31, "note": 70, "velocity": 109, "channel": 0}, {"type": "note_off", "time": 119, "note": 70, "velocity": 109, "channel": 0}, {"type": "note_on", "time": 21, "note": 70, "velocity": 105, "channel": 0}, {"type": "note_off", "time": 26, "note": 70, "velocity": 105, "channel": 0}, {"type": "note_on", "time": 5, "note": 63, "velocity": 117, "channel": 0}, {"type": "note_off", "time": 18, "note": 63, "velocity": 117, "channel": 0}, {"type": "note_on", "time": 2, "note": 70, "velocity": 114, "channel": 0}, {"type": "note_off", "time": 40, "note": 70, "velocity": 114, "channel": 0}, {"type": "note_on", "time": 7, "note": 63, "velocity": 120, "channel": 0}, {"type": "note_off", "time": 26, "note": 63, "velocity": 120, "channel": 0}, {"type": "note_on", "time": 5, "note": 65, "velocity": 121, "channel": 0}, {"type": "note_off", "time": 47, "note": 65, "velocity": 121, "channel": 0}, {"type": "note_on", "time": 7, "note": 70, "velocity": 112, "channel": 0}, {"type": "note_off", "time": 31, "note": 70, "velocity": 112, "channel": 0}, {"type": "note_on", "time": 10, "note": 68, "velocity": 117, "channel": 0}, {"type": "note_off", "time": 34, "note": 68, "velocity": 117, "channel": 0}, {"type": "note_on", "time": 14, "note": 70, "velocity": 114, "channel": 0}, {"type": "note_off", "time": 31, "note": 70, "velocity": 114, "channel": 0}, {"type": "note_on", "time": 6, "note": 72, "velocity": 118, "channel": 0}, {"type": "note_off", "time": 49, "note": 72, "velocity": 118, "channel": 0}, {"type": "note_on", "time": 6, "note": 75, "velocity": 114, "channel": 0}, {"type": "note_off", "time": 28, "note": 75, "velocity": 114, "channel": 0}, {"type": "note_on", "time": 1, "note": 79, "velocity": 116, "channel": 0}, {"type": "note_off", "time": 12, "note": 79, "velocity": 116, "channel": 0}, {"type": "note_on", "time": 1, "note": 81, "velocity": 90, "channel": 0}, {"type": "note_off", "time": 72, "note": 81, "velocity": 90, "channel": 0}, {"type": "note_on", "time": 3, "note": 86, "velocity": 104, "channel": 0}, {"type": "note_off", "time": 86, "note": 86, "velocity": 104, "channel": 0}, {"type": "note_on", "time": 0, "note": 83, "velocity": 109, "channel": 0}, {"type": "note_off", "time": 15, "note": 83, "velocity": 109, "channel": 0}, {"type": "note_on", "time": 4, "note": 81, "velocity": 115, "channel": 0}, {"type": "note_off", "time": 134, "note": 81, "velocity": 115, "channel": 0}, {"type": "note_on", "time": 5, "note": 78, "velocity": 119, "channel": 0}, {"type": "note_off", "time": 39, "note": 78, "velocity": 119, "channel": 0}, {"type": "note_on", "time": 3, "note": 77, "velocity": 119, "channel": 0}, {"type": "note_off", "time": 33, "note": 77, "velocity": 119, "channel": 0}, {"type": "note_on", "time": 6, "note": 76, "velocity": 123, "channel": 0}, {"type": "note_off", "time": 36, "note": 76, "velocity": 123, "channel": 0}, {"type": "note_on", "time": 5, "note": 75, "velocity": 120, "channel": 0}, {"type": "note_off", "time": 34, "note": 75, "velocity": 120, "channel": 0}, {"type": "note_on", "time": 13, "note": 73, "velocity": 117, "channel": 0}, {"type": "note_off", "time": 41, "note": 73, "velocity": 117, "channel": 0}, {"type": "note_on", "time": 4, "note": 74, "velocity": 119, "channel": 0}, {"type": "note_off", "time": 44, "note": 74, "velocity": 119, "channel": 0}, {"type": "note_on", "time": 7, "note": 77, "velocity": 126, "channel": 0}, {"type": "note_off", "time": 47, "note": 77, "velocity": 126, "channel": 0}, {"type": "note_on", "time": 8, "note": 78, "velocity": 120, "channel": 0}, {"type": "note_off", "time": 53, "note": 78, "velocity": 120, "channel": 0}, {"type": "note_on", "time": 7, "note": 77, "velocity": 123, "channel": 0}, {"type": "note_off", "time": 65, "note": 77, "velocity": 123, "channel": 0}, {"type": "note_on", "time": 20, "note": 74, "velocity": 118, "channel": 0}, {"type": "note_off", "time": 55, "note": 74, "velocity": 118, "channel": 0}, {"type": "note_on", "time": 8, "note": 73, "velocity": 117, "channel": 0}, {"type": "note_off", "time": 40, "note": 73, "velocity": 117, "channel": 0}, {"type": "note_on", "time": 31, "note": 70, "velocity": 113, "channel": 0}, {"type": "note_off", "time": 47, "note": 70, "velocity": 113, "channel": 0}, {"type": "note_on", "time": 5, "note": 69, "velocity": 112, "channel": 0}, {"type": "note_off", "time": 60, "note": 69, "velocity": 112, "channel": 0}, {"type": "note_on", "time": 8, "note": 66, "velocity": 116, "channel": 0}, {"type": "note_off", "time": 34, "note": 66, "velocity": 116, "channel": 0}, {"type": "note_on", "time": 5, "note": 65, "velocity": 119, "channel": 0}, {"type": "note_off", "time": 57, "note": 65, "velocity": 119, "channel": 0}, {"type": "note_on", "time": 5, "note": 64, "velocity": 119, "channel": 0}, {"type": "note_off", "time": 39, "note": 64, "velocity": 119, "channel": 0}, {"type": "note_on", "time": 2, "note": 63, "velocity": 114, "channel": 0}, {"type": "note_off", "time": 24, "note": 63, "velocity": 114, "channel": 0}, {"type": "note_on", "time": 33, "note": 61, "velocity": 113, "channel": 0}, {"type": "note_off", "time": 30, "note": 61, "velocity": 113, "channel": 0}, {"type": "note_on", "time": 2, "note": 62, "velocity": 109, "channel": 0}, {"type": "note_off", "time": 31, "note": 62, "velocity": 109, "channel": 0}, {"type": "note_on", "time": 131, "note": 62, "velocity": 95, "channel": 0}, {"type": "note_off", "time": 535, "note": 62, "velocity": 95, "channel": 0}, {"type": "note_on", "time": 7, "note": 60, "velocity": 100, "channel": 0}, {"type": "note_off", "time": 67, "note": 60, "velocity": 100, "channel": 0}, {"type": "end_of_track", "time": 0}]]}