{"ticks_per_beat": 27720, "tracks": [[{"type": "note_on", "time": 0, "note": 50, "velocity": 99, "channel": 0}, {"type": "note_off", "time": 7434, "note": 50, "velocity": 99, "channel": 0}, {"type": "note_on", "time": 708, "note": 50, "velocity": 100, "channel": 0}, {"type": "note_off", "time": 6018, "note": 50, "velocity": 100, "channel": 0}, {"type": "note_on", "time": 1081, "note": 50, "velocity": 106, "channel": 0}, {"type": "note_off", "time": 4602, "note": 50, "velocity": 106, "channel": 0}, {"type": "note_on", "time": 511, "note": 52, "velocity": 109, "channel": 0}, {"type": "note_off", "time": 4956, "note": 52, "velocity": 109, "channel": 0}, {"type": "note_on", "time": 354, "note": 54, "velocity": 110, "channel": 0}, {"type": "note_off", "time": 5841, "note": 54, "velocity": 110, "channel": 0}, {"type": "note_on", "time": 287, "note": 57, "velocity": 109, "channel": 0}, {"type": "note_off", "time": 5662, "note": 57, "velocity": 109, "channel": 0}, {"type": "note_on", "time": 684, "note": 57, "velocity": 106, "channel": 0}, {"type": "note_off", "time": 1057, "note": 57, "velocity": 106, "channel": 0}, {"type": "note_on", "time": 272, "note": 54, "velocity": 108, "channel": 0}, {"type": "note_off", "time": 4248, "note": 54, "velocity": 108, "channel": 0}, {"type": "note_on", "time": 708, "note": 55, "velocity": 106, "channel": 0}, {"type": "note_off", "time": 6549, "note": 55, "velocity": 106, "channel": 0}, {"type": "note_on", "time": 708, "note": 57, "velocity": 114, "channel": 0}, {"type": "note_off", "time": 5310, "note": 57, "velocity": 114, "channel": 0}, {"type": "note_on", "time": 708, "note": 59, "velocity": 109, "channel": 0}, {"type": "note_off", "time": 5133, "note": 59, "velocity": 109, "channel": 0}, {"type": "note_on", "time": 531, "note": 61, "velocity": 115, "channel": 0}, {"type": "note_off", "time": 6726, "note": 61, "velocity": 115, "channel": 0}, {"type": "note_on", "time": 708, "note": 62, "velocity": 115, "channel": 0}, {"type": "note_off", "time": 7965, "note": 62, "velocity": 115, "channel": 0}, {"type": "note_on", "time": 354, "note": 64, "velocity": 118, "channel": 0}, {"type": "note_off", "time": 5841, "note": 64, "velocity": 118, "channel": 0}, {"type": "note_on", "time": 177, "note": 66, "velocity": 114, "channel": 0}, {"type": "note_off", "time": 5841, "note": 66, "velocity": 114, "channel": 0}, {"type": "note_on", "time": 177, "note": 69, "velocity": 114, "channel": 0}, {"type": "note_off", "time": 5310, "note": 69, "velocity": 114, "channel": 0}, {"type": "note_on", "time": 354, "note": 66, "velocity": 111, "channel": 0}, {"type": "note_off", "time": 6903, "note": 66, "velocity": 111, "channel": 0}, {"type": "note_on", "time": 177, "note": 71, "velocity": 107, "channel": 0}, {"type": "note_off", "time": 5841, "note": 71, "velocity": 107, "channel": 0}, {"type": "note_on", "time": 177, "note": 69, "velocity": 110, "channel": 0}, {"type": "note_off", "time": 3717, "note": 69, "velocity": 110, "channel": 0}, {"type": "note_on", "time": 531, "note": 66, "velocity": 109, "channel": 0}, {"type": "note_off", "time": 4425, "note": 66, "velocity": 109, "channel": 0}, {"type": "note_on", "time": 354, "note": 64, "velocity": 115, "channel": 0}, {"type": "note_off", "time": 4248, "note": 64, "velocity": 115, "channel": 0}, {"type": "note_on", "time": 1416, "note": 66, "velocity": 106, "channel": 0}, {"type": "note_off", "time": 4779, "note": 66, "velocity": 106, "channel": 0}, {"type": "note_on", "time": 354, "note": 61, "velocity": 104, "channel": 0}, {"type": "note_on", "time": 3540, "note": 59, "velocity": 100, "channel": 0}, {"type": "note_off", "time": 0, "note": 61, "velocity": 104, "channel": 0}, {"type": "note_off", "time": 3894, "note": 59, "velocity": 100, "channel": 0}, {"type": "note_on", "time": 177, "note": 64, "velocity": 110, "channel": 0}, {"type": "note_off", "time": 4248, "note": 64, "velocity": 110, "channel": 0}, {"type": "note_on", "time": 354, "note": 61, "velocity": 106, "channel": 0}, {"type": "note_off", "time": 3363, "note": 61, "velocity": 106, "channel": 0}, {"type": "note_on", "time": 265, "note": 56, "velocity": 102, "channel": 0}, {"type": "note_off", "time": 1393, "note": 56, "velocity": 102, "channel": 0}, {"type": "note_on", "time": 88, "note": 57, "velocity": 103, "channel": 0}, {"type": "note_off", "time": 1991, "note": 57, "velocity": 103, "channel": 0}, {"type": "note_on", "time": 331, "note": 54, "velocity": 102, "channel": 0}, {"type": "note_off", "time": 3894, "note": 54, "velocity": 102, "channel": 0}, {"type": "note_on", "time": 2093, "note": 59, "velocity": 102, "channel": 0}, {"type": "note_off", "time": 8463, "note": 59, "velocity": 102, "channel": 0}, {"type": "note_on", "time": 871, "note": 55, "velocity": 102, "channel": 0}, {"type": "note_off", "time": 5664, "note": 55, "velocity": 102, "channel": 0}, {"type": "note_on", "time": 558, "note": 56, "velocity": 95, "channel": 0}, {"type": "note_off", "time": 4853, "note": 56, "velocity": 95, "channel": 0}, {"type": "note_on", "time": 746, "note": 57, "velocity": 110, "channel": 0}, {"type": "note_off", "time": 8712, "note": 57, "velocity": 110, "channel": 0}, {"type": "note_on", "time": 27802, "note": 55, "velocity": 111, "channel": 0}, {"type": "note_off", "time": 2175, "note": 55, "velocity": 111, "channel": 0}, {"type": "note_on", "time": 258, "note": 57, "velocity": 109, "channel": 0}, {"type": "note_off", "time": 2007, "note": 57, "velocity": 109, "channel": 0}, {"type": "note_on", "time": 399, "note": 55, "velocity": 106, "channel": 0}, {"type": "note_off", "time": 3363, "note": 55, "velocity": 106, "channel": 0}, {"type": "note_on", "time": 995, "note": 54, "velocity": 107, "channel": 0}, {"type": "note_off", "time": 4071, "note": 54, "velocity": 107, "channel": 0}, {"type": "note_on", "time": 442, "note": 57, "velocity": 101, "channel": 0}, {"type": "note_off", "time": 2655, "note": 57, "velocity": 101, "channel": 0}, {"type": "note_on", "time": 154, "note": 59, "velocity": 97, "channel": 0}, {"type": "note_on", "time": 1416, "note": 62, "velocity": 98, "channel": 0}, {"type": "note_off", "time": 0, "note": 59, "velocity": 97, "channel": 0}, {"type": "note_off", "time": 1947, "note": 62, "velocity": 98, "channel": 0}, {"type": "note_on", "time": 154, "note": 64, "velocity": 110, "channel": 0}, {"type": "note_off", "time": 5133, "note": 64, "velocity": 110, "channel": 0}, {"type": "note_on", "time": 464, "note": 61, "velocity": 96, "channel": 0}, {"type": "note_off", "time": 1681, "note": 61, "velocity": 96, "channel": 0}, {"type": "note_on", "time": 531, "note": 62, "velocity": 110, "channel": 0}, {"type": "note_off", "time": 3894, "note": 62, "velocity": 110, "channel": 0}, {"type": "note_on", "time": 177, "note": 59, "velocity": 97, "channel": 0}, {"type": "note_off", "time": 2832, "note": 59, "velocity": 97, "channel": 0}, {"type": "note_on", "time": 354, "note": 61, "velocity": 103, "channel": 0}, {"type": "note_off", "time": 4248, "note": 61, "velocity": 103, "channel": 0}, {"type": "note_on", "time": 2832, "note": 57, "velocity": 88, "channel": 0}, {"type": "note_off", "time": 3540, "note": 57, "velocity": 88, "channel": 0}, {"type": "note_on", "time": 531, "note": 59, "velocity": 108, "channel": 0}, {"type": "note_off", "time": 4602, "note": 59, "velocity": 108, "channel": 0}, {"type": "note_on", "time": 0, "note": 55, "velocity": 106, "channel": 0}, {"type": "note_off", "time": 3009, "note": 55, "velocity": 106, "channel": 0}, {"type": "note_on", "time": 1062, "note": 57, "velocity": 107, "channel": 0}, {"type": "note_off", "time": 4602, "note": 57, "velocity": 107, "channel": 0}, {"type": "note_on", "time": 6018, "note": 54, "velocity": 100, "channel": 0}, {"type": "note_off", "time": 3717, "note": 54, "velocity": 100, "channel": 0}, {"type": "note_on", "time": 16749, "note": 55, "velocity": 112, "channel": 0}, {"type": "note_off", "time": 3186, "note": 55, "velocity": 112, "channel": 0}, {"type": "note_on", "time": 66, "note": 54, "velocity": 109, "channel": 0}, {"type": "note_off", "time": 1305, "note": 54, "velocity": 109, "channel": 0}, {"type": "note_on", "time": 154, "note": 52, "velocity": 108, "channel": 0}, {"type": "note_off", "time": 2256, "note": 52, "velocity": 108, "channel": 0}, {"type": "note_on", "time": 331, "note": 51, "velocity": 102, "channel": 0}, {"type": "note_off", "time": 2101, "note": 51, "velocity": 102, "channel": 0}, {"type": "note_on", "time": 752, "note": 50, "velocity": 102, "channel": 0}, {"type": "note_off", "time": 3540, "note": 50, "velocity": 102, "channel": 0}, {"type": "note_on", "time": 1062, "note": 49, "velocity": 102, "channel": 0}, {"type": "note_off", "time": 3894, "note": 49, "velocity": 102, "channel": 0}, {"type": "note_on", "time": 177, "note": 52, "velocity": 104, "channel": 0}, {"type": "note_off", "time": 5487, "note": 52, "velocity": 104, "channel": 0}, {"type": "note_on", "time": 1937, "note": 50, "velocity": 93, "channel": 0}, {"type": "note_off", "time": 6903, "note": 50, "velocity": 93, "channel": 0}, {"type": "note_on", "time": 2928, "note": 50, "velocity": 87, "channel": 0}, {"type": "note_off", "time": 4013, "note": 50, "velocity": 87, "channel": 0}, {"type": "note_on", "time": 1586, "note": 50, "velocity": 93, "channel": 0}, {"type": "note_off", "time": 4169, "note": 50, "velocity": 93, "channel": 0}, {"type": "note_on", "time": 232, "note": 52, "velocity": 98, "channel": 0}, {"type": "note_off", "time": 3009, "note": 52, "velocity": 98, "channel": 0}, {"type": "note_on", "time": 177, "note": 50, "velocity": 105, "channel": 0}, {"type": "note_off", "time": 1770, "note": 50, "velocity": 105, "channel": 0}, {"type": "note_on", "time": 354, "note": 49, "velocity": 104, "channel": 0}, {"type": "note_off", "time": 3363, "note": 49, "velocity": 104, "channel": 0}, {"type": "note_on", "time": 4071, "note": 50, "velocity": 106, "channel": 0}, {"type": "note_off", "time": 4071, "note": 50, "velocity": 106, "channel": 0}, {"type": "note_on", "time": 885, "note": 52, "velocity": 111, "channel": 0}, {"type": "note_off", "time": 5133, "note": 52, "velocity": 111, "channel": 0}, {"type": "note_on", "time": 708, "note": 55, "velocity": 107, "channel": 0}, {"type": "note_off", "time": 6195, "note": 55, "velocity": 107, "channel": 0}, {"type": "note_on", "time": 0, "note": 50, "velocity": 103, "channel": 0}, {"type": "note_off", "time": 4779, "note": 50, "velocity": 103, "channel": 0}, {"type": "note_on", "time": 177, "note": 55, "velocity": 111, "channel": 0}, {"type": "note_off", "time": 4779, "note": 55, "velocity": 111, "channel": 0}, {"type": "note_on", "time": 531, "note": 59, "velocity": 107, "channel": 0}, {"type": "note_off", "time": 5133, "note": 59, "velocity": 107, "channel": 0}, {"type": "note_on", "time": 177, "note": 62, "velocity": 116, "channel": 0}, {"type": "note_off", "time": 4425, "note": 62, "velocity": 116, "channel": 0}, {"type": "note_on", "time": 708, "note": 67, "velocity": 111, "channel": 0}, {"type": "note_off", "time": 4425, "note": 67, "velocity": 111, "channel": 0}, {"type": "note_on", "time": 708, "note": 62, "velocity": 115, "channel": 0}, {"type": "note_on", "time": 3540, "note": 67, "velocity": 108, "channel": 0}, {"type": "note_off", "time": 0, "note": 62, "velocity": 115, "channel": 0}, {"type": "note_off", "time": 5841, "note": 67, "velocity": 108, "channel": 0}, {"type": "note_on", "time": 531, "note": 71, "velocity": 110, "channel": 0}, {"type": "note_off", "time": 5133, "note": 71, "velocity": 110, "channel": 0}, {"type": "note_on", "time": 708, "note": 74, "velocity": 106, "channel": 0}, {"type": "note_off", "time": 5310, "note": 74, "velocity": 106, "channel": 0}, {"type": "note_on", "time": 0, "note": 67, "velocity": 105, "channel": 0}, {"type": "note_off", "time": 5841, "note": 67, "velocity": 105, "channel": 0}, {"type": "note_on", "time": 0, "note": 72, "velocity": 108, "channel": 0}, {"type": "note_off", "time": 4956, "note": 72, "velocity": 108, "channel": 0}, {"type": "note_on", "time": 193, "note": 69, "velocity": 107, "channel": 0}, {"type": "note_off", "time": 4604, "note": 69, "velocity": 107, "channel": 0}, {"type": "note_on", "time": 1431, "note": 69, "velocity": 96, "channel": 0}, {"type": "note_off", "time": 1493, "note": 69, "velocity": 96, "channel": 0}, {"type": "note_on", "time": 64, "note": 65, "velocity": 112, "channel": 0}, {"type": "note_off", "time": 5133, "note": 65, "velocity": 112, "channel": 0}, {"type": "note_on", "time": 354, "note": 62, "velocity": 103, "channel": 0}, {"type": "note_off", "time": 5133, "note": 62, "velocity": 103, "channel": 0}, {"type": "note_on", "time": 531, "note": 57, "velocity": 98, "channel": 0}, {"type": "note_off", "time": 5133, "note": 57, "velocity": 98, "channel": 0}, {"type": "note_on", "time": 2474, "note": 48, "velocity": 105, "channel": 0}, {"type": "note_off", "time": 2271, "note": 48, "velocity": 105, "channel": 0}, {"type": "note_on", "time": 280, "note": 50, "velocity": 101, "channel": 0}, {"type": "note_off", "time": 4698, "note": 50, "velocity": 101, "channel": 0}, {"type": "note_on", "time": 3905, "note": 53, "velocity": 105, "channel": 0}, {"type": "note_off", "time": 5487, "note": 53, "velocity": 105, "channel": 0}, {"type": "note_on", "time": 2301, "note": 55, "velocity": 92, "channel": 0}, {"type": "note_off", "time": 19116, "note": 55, "velocity": 92, "channel": 0}, {"type": "note_on", "time": 23364, "note": 55, "velocity": 108, "channel": 0}, {"type": "note_off", "time": 2826, "note": 55, "velocity": 108, "channel": 0}, {"type": "note_on", "time": 0, "note": 59, "velocity": 109, "channel": 0}, {"type": "note_off", "time": 4573, "note": 59, "velocity": 109, "channel": 0}, {"type": "note_on", "time": 591, "note": 64, "velocity": 127, "channel": 0}, {"type": "note_off", "time": 5911, "note": 64, "velocity": 127, "channel": 0}, {"type": "note_on", "time": 2800, "note": 64, "velocity": 122, "channel": 0}, {"type": "note_off", "time": 5973, "note": 64, "velocity": 122, "channel": 0}, {"type": "note_on", "time": 2489, "note": 64, "velocity": 121, "channel": 0}, {"type": "note_off", "time": 5849, "note": 64, "velocity": 121, "channel": 0}, {"type": "note_on", "time": 2240, "note": 64, "velocity": 117, "channel": 0}, {"type": "note_off", "time": 4853, "note": 64, "velocity": 117, "channel": 0}, {"type": "note_on", "time": 1991, "note": 64, "velocity": 112, "channel": 0}, {"type": "note_off", "time": 5133, "note": 64, "velocity": 112, "channel": 0}, {"type": "note_on", "time": 1369, "note": 64, "velocity": 114, "channel": 0}, {"type": "note_off", "time": 4262, "note": 64, "velocity": 114, "channel": 0}, {"type": "note_on", "time": 1172, "note": 57, "velocity": 103, "channel": 0}, {"type": "note_off", "time": 3186, "note": 57, "velocity": 103, "channel": 0}, {"type": "note_on", "time": 0, "note": 59, "velocity": 101, "channel": 0}, {"type": "note_off", "time": 5664, "note": 59, "velocity": 101, "channel": 0}, {"type": "note_on", "time": 840, "note": 62, "velocity": 110, "channel": 0}, {"type": "note_off", "time": 5973, "note": 62, "velocity": 110, "channel": 0}, {"type": "note_on", "time": 1548, "note": 62, "velocity": 112, "channel": 0}, {"type": "note_off", "time": 5310, "note": 62, "velocity": 112, "channel": 0}, {"type": "note_on", "time": 2699, "note": 62, "velocity": 108, "channel": 0}, {"type": "note_off", "time": 6726, "note": 62, "velocity": 108, "channel": 0}, {"type": "note_on", "time": 796, "note": 64, "velocity": 100, "channel": 0}, {"type": "note_off", "time": 3009, "note": 64, "velocity": 100, "channel": 0}, {"type": "note_on", "time": 973, "note": 62, "velocity": 104, "channel": 0}, {"type": "track_name", "name": "Melody", "time": 555}, {"type": "set_tempo", "tempo": 909090, "time": 0}, {"type": "key_signature", "key": "Db", "time": 0}, {"type": "time_signature", "numerator": 4, "denominator": 4, "clocks_per_click": 24, "notated_32nd_notes_per_beat": 8, "time": 0}, {"type": "note_off", "time": 2364, "note": 62, "velocity": 104, "channel": 0}, {"type": "note_on", "time": 622, "note": 59, "velocity": 92, "channel": 0}, {"type": "note_off", "time": 16552, "note": 59, "velocity": 92, "channel": 0}, {"type": "note_on", "time": 22828, "note": 57, "velocity": 111, "channel": 0}, {"type": "note_off", "time": 5310, "note": 57, "velocity": 111, "channel": 0}, {"type": "note_on", "time": 0, "note": 58, "velocity": 108, "channel": 0}, {"type": "note_off", "time": 5310, "note": 58, "velocity": 108, "channel": 0}, {"type": "note_on", "time": 708, "note": 59, "velocity": 107, "channel": 0}, {"type": "note_off", "time": 6195, "note": 59, "velocity": 107, "channel": 0}, {"type": "note_on", "time": 708, "note": 60, "velocity": 110, "channel": 0}, {"type": "note_off", "time": 6726, "note": 60, "velocity": 110, "channel": 0}, {"type": "note_on", "time": 2079, "note": 60, "velocity": 107, "channel": 0}, {"type": "note_off", "time": 4956, "note": 60, "velocity": 107, "channel": 0}, {"type": "note_on", "time": 309, "note": 61, "velocity": 116, "channel": 0}, {"type": "note_off", "time": 4734, "note": 61, "velocity": 116, "channel": 0}, {"type": "note_on", "time": 309, "note": 62, "velocity": 112, "channel": 0}, {"type": "note_off", "time": 6195, "note": 62, "velocity": 112, "channel": 0}, {"type": "note_on", "time": 1593, "note": 62, "velocity": 113, "channel": 0}, {"type": "note_off", "time": 3363, "note": 62, "velocity": 113, "channel": 0}, {"type": "note_on", "time": 708, "note": 61, "velocity": 111, "channel": 0}, {"type": "note_off", "time": 2832, "note": 61, "velocity": 111, "channel": 0}, {"type": "note_on", "time": 486, "note": 60, "velocity": 105, "channel": 0}, {"type": "note_off", "time": 2079, "note": 60, "velocity": 105, "channel": 0}, {"type": "note_on", "time": 575, "note": 59, "velocity": 112, "channel": 0}, {"type": "note_off", "time": 5752, "note": 59, "velocity": 112, "channel": 0}, {"type": "note_on", "time": 663, "note": 55, "velocity": 107, "channel": 0}, {"type": "note_off", "time": 4779, "note": 55, "velocity": 107, "channel": 0}, {"type": "note_on", "time": 1062, "note": 50, "velocity": 93, "channel": 0}, {"type": "note_off", "time": 11859, "note": 50, "velocity": 93, "channel": 0}, {"type": "note_on", "time": 2124, "note": 47, "velocity": 110, "channel": 0}, {"type": "note_off", "time": 3363, "note": 47, "velocity": 110, "channel": 0}, {"type": "note_on", "time": 2301, "note": 50, "velocity": 105, "channel": 0}, {"type": "note_off", "time": 4425, "note": 50, "velocity": 105, "channel": 0}, {"type": "note_on", "time": 1593, "note": 55, "velocity": 100, "channel": 0}, {"type": "note_off", "time": 4779, "note": 55, "velocity": 100, "channel": 0}, {"type": "note_on", "time": 885, "note": 59, "velocity": 95, "channel": 0}, {"type": "note_off", "time": 8319, "note": 59, "velocity": 95, "channel": 0}, {"type": "note_on", "time": 14691, "note": 50, "velocity": 104, "channel": 0}, {"type": "note_off", "time": 4248, "note": 50, "velocity": 104, "channel": 0}, {"type": "note_on", "time": 1593, "note": 55, "velocity": 109, "channel": 0}, {"type": "note_off", "time": 4602, "note": 55, "velocity": 109, "channel": 0}, {"type": "note_on", "time": 354, "note": 59, "velocity": 108, "channel": 0}, {"type": "note_off", "time": 4248, "note": 59, "velocity": 108, "channel": 0}, {"type": "note_on", "time": 177, "note": 61, "velocity": 109, "channel": 0}, {"type": "note_off", "time": 3894, "note": 61, "velocity": 109, "channel": 0}, {"type": "note_on", "time": 0, "note": 67, "velocity": 110, "channel": 0}, {"type": "note_off", "time": 4071, "note": 67, "velocity": 110, "channel": 0}, {"type": "note_on", "time": 531, "note": 71, "velocity": 111, "channel": 0}, {"type": "note_off", "time": 5487, "note": 71, "velocity": 111, "channel": 0}, {"type": "note_on", "time": 1239, "note": 72, "velocity": 122, "channel": 0}, {"type": "note_off", "time": 2124, "note": 72, "velocity": 122, "channel": 0}, {"type": "note_on", "time": 885, "note": 73, "velocity": 114, "channel": 0}, {"type": "note_off", "time": 3540, "note": 73, "velocity": 114, "channel": 0}, {"type": "note_on", "time": 354, "note": 72, "velocity": 120, "channel": 0}, {"type": "note_off", "time": 4071, "note": 72, "velocity": 120, "channel": 0}, {"type": "note_on", "time": 354, "note": 71, "velocity": 112, "channel": 0}, {"type": "note_off", "time": 3894, "note": 71, "velocity": 112, "channel": 0}, {"type": "note_on", "time": 354, "note": 70, "velocity": 108, "channel": 0}, {"type": "note_off", "time": 4779, "note": 70, "velocity": 108, "channel": 0}, {"type": "note_on", "time": 1017, "note": 66, "velocity": 110, "channel": 0}, {"type": "note_off", "time": 1814, "note": 66, "velocity": 110, "channel": 0}, {"type": "note_on", "time": 796, "note": 67, "velocity": 99, "channel": 0}, {"type": "note_on", "time": 2566, "note": 64, "velocity": 107, "channel": 0}, {"type": "note_off", "time": 0, "note": 67, "velocity": 99, "channel": 0}, {"type": "note_off", "time": 4602, "note": 64, "velocity": 107, "channel": 0}, {"type": "note_on", "time": 531, "note": 66, "velocity": 106, "channel": 0}, {"type": "note_off", "time": 4425, "note": 66, "velocity": 106, "channel": 0}, {"type": "note_on", "time": 708, "note": 64, "velocity": 108, "channel": 0}, {"type": "note_off", "time": 3363, "note": 64, "velocity": 108, "channel": 0}, {"type": "note_on", "time": 1062, "note": 63, "velocity": 109, "channel": 0}, {"type": "note_off", "time": 3009, "note": 63, "velocity": 109, "channel": 0}, {"type": "note_on", "time": 177, "note": 62, "velocity": 108, "channel": 0}, {"type": "note_off", "time": 2832, "note": 62, "velocity": 108, "channel": 0}, {"type": "note_on", "time": 1239, "note": 65, "velocity": 114, "channel": 0}, {"type": "note_off", "time": 4779, "note": 65, "velocity": 114, "channel": 0}, {"type": "note_on", "time": 177, "note": 62, "velocity": 107, "channel": 0}, {"type": "note_off", "time": 2832, "note": 62, "velocity": 107, "channel": 0}, {"type": "note_on", "time": 885, "note": 61, "velocity": 102, "channel": 0}, {"type": "note_off", "time": 3540, "note": 61, "velocity": 102, "channel": 0}, {"type": "note_on", "time": 354, "note": 60, "velocity": 103, "channel": 0}, {"type": "note_off", "time": 3363, "note": 60, "velocity": 103, "channel": 0}, {"type": "note_on", "time": 531, "note": 58, "velocity": 100, "channel": 0}, {"type": "note_off", "time": 4425, "note": 58, "velocity": 100, "channel": 0}, {"type": "note_on", "time": 2124, "note": 53, "velocity": 96, "channel": 0}, {"type": "note_off", "time": 5133, "note": 53, "velocity": 96, "channel": 0}, {"type": "note_on", "time": 354, "note": 46, "velocity": 98, "channel": 0}, {"type": "note_off", "time": 9558, "note": 46, "velocity": 98, "channel": 0}, {"type": "note_on", "time": 1062, "note": 51, "velocity": 86, "channel": 0}, {"type": "note_off", "time": 15930, "note": 51, "velocity": 86, "channel": 0}, {"type": "note_on", "time": 885, "note": 51, "velocity": 74, "channel": 0}, {"type": "note_off", "time": 14691, "note": 51, "velocity": 74, "channel": 0}, {"type": "end_of_track", "time": 0}]]}