{"ticks_per_beat": 192, "tracks": [[{"type": "track_name", "name": "Melody", "time": 0}, {"type": "set_tempo", "tempo": 220588, "time": 0}, {"type": "key_signature", "key": "Eb", "time": 0}, {"type": "time_signature", "numerator": 4, "denominator": 4, "clocks_per_click": 24, "notated_32nd_notes_per_beat": 8, "time": 0}, {"type": "note_on", "time": 2874, "note": 68, "velocity": 109, "channel": 0}, {"type": "note_off", "time": 160, "note": 68, "velocity": 109, "channel": 0}, {"type": "note_on", "time": 0, "note": 66, "velocity": 102, "channel": 0}, {"type": "note_off", "time": 42, "note": 66, "velocity": 102, "channel": 0}, {"type": "note_on", "time": 12, "note": 64, "velocity": 109, "channel": 0}, {"type": "note_off", "time": 32, "note": 64, "velocity": 109, "channel": 0}, {"type": "note_on", "time": 15, "note": 63, "velocity": 113, "channel": 0}, {"type": "note_off", "time": 222, "note": 63, "velocity": 113, "channel": 0}, {"type": "note_on", "time": 12, "note": 61, "velocity": 91, "channel": 0}, {"type": "note_off", "time": 65, "note": 61, "velocity": 91, "channel": 0}, {"type": "note_on", "time": 10, "note": 58, "velocity": 90, "channel": 0}, {"type": "note_off", "time": 75, "note": 58, "velocity": 90, "channel": 0}, {"type": "note_on", "time": 15, "note": 56, "velocity": 94, "channel": 0}, {"type": "note_off", "time": 63, "note": 56, "velocity": 94, "channel": 0}, {"type": "note_on", "time": 15, "note": 55, "velocity": 96, "channel": 0}, {"type": "note_off", "time": 58, "note": 55, "velocity": 96, "channel": 0}, {"type": "note_on", "time": 22, "note": 58, "velocity": 94, "channel": 0}, {"type": "note_off", "time": 272, "note": 58, "velocity": 94, "channel": 0}, {"type": "note_on", "time": 36, "note": 63, "velocity": 102, "channel": 0}, {"type": "note_off", "time": 232, "note": 63, "velocity": 102, "channel": 0}, {"type": "note_on", "time": 303, "note": 65, "velocity": 95, "channel": 0}, {"type": "note_off", "time": 232, "note": 65, "velocity": 95, "channel": 0}, {"type": "note_on", "time": 33, "note": 62, "velocity": 97, "channel": 0}, {"type": "note_off", "time": 367, "note": 62, "velocity": 97, "channel": 0}, {"type": "note_on", "time": 94, "note": 58, "velocity": 93, "channel": 0}, {"type": "note_off", "time": 267, "note": 58, "velocity": 93, "channel": 0}, {"type": "note_on", "time": 42, "note": 67, "velocity": 86, "channel": 0}, {"type": "note_off", "time": 730, "note": 67, "velocity": 86, "channel": 0}, {"type": "note_on", "time": 525, "note": 56, "velocity": 98, "channel": 0}, {"type": "note_off", "time": 260, "note": 56, "velocity": 98, "channel": 0}, {"type": "note_on", "time": 65, "note": 65, "velocity": 96, "channel": 0}, {"type": "note_off", "time": 305, "note": 65, "velocity": 96, "channel": 0}, {"type": "note_on", "time": 1313, "note": 55, "velocity": 102, "channel": 0}, {"type": "note_off", "time": 151, "note": 55, "velocity": 102, "channel": 0}, {"type": "note_on", "time": 12, "note": 60, "velocity": 97, "channel": 0}, {"type": "note_off", "time": 70, "note": 60, "velocity": 97, "channel": 0}, {"type": "note_on", "time": 96, "note": 51, "velocity": 94, "channel": 0}, {"type": "note_off", "time": 267, "note": 51, "velocity": 94, "channel": 0}, {"type": "note_on", "time": 17, "note": 49, "velocity": 93, "channel": 0}, {"type": "note_off", "time": 60, "note": 49, "velocity": 93, "channel": 0}, {"type": "note_on", "time": 20, "note": 50, "velocity": 97, "channel": 0}, {"type": "note_off", "time": 108, "note": 50, "velocity": 97, "channel": 0}, {"type": "note_on", "time": 76, "note": 58, "velocity": 97, "channel": 0}, {"type": "note_off", "time": 282, "note": 58, "velocity": 97, "channel": 0}, {"type": "note_on", "time": 386, "note": 56, "velocity": 106, "channel": 0}, {"type": "note_off", "time": 111, "note": 56, "velocity": 106, "channel": 0}, {"type": "note_on", "time": 17, "note": 60, "velocity": 99, "channel": 0}, {"type": "note_off", "time": 101, "note": 60, "velocity": 99, "channel": 0}, {"type": "note_on", "time": 20, "note": 63, "velocity": 105, "channel": 0}, {"type": "note_off", "time": 391, "note": 63, "velocity": 105, "channel": 0}, {"type": "note_on", "time": 810, "note": 54, "velocity": 98, "channel": 0}, {"type": "note_off", "time": 207, "note": 54, "velocity": 98, "channel": 0}, {"type": "note_on", "time": 12, "note": 61, "velocity": 106, "channel": 0}, {"type": "note_off", "time": 169, "note": 61, "velocity": 106, "channel": 0}, {"type": "note_on", "time": 10, "note": 64, "velocity": 105, "channel": 0}, {"type": "note_off", "time": 483, "note": 64, "velocity": 105, "channel": 0}, {"type": "note_on", "time": 393, "note": 55, "velocity": 97, "channel": 0}, {"type": "note_off", "time": 234, "note": 55, "velocity": 97, "channel": 0}, {"type": "note_on", "time": 12, "note": 56, "velocity": 98, "channel": 0}, {"type": "note_off", "time": 207, "note": 56, "velocity": 98, "channel": 0}, {"type": "note_on", "time": 15, "note": 60, "velocity": 102, "channel": 0}, {"type": "note_off", "time": 176, "note": 60, "velocity": 102, "channel": 0}, {"type": "note_on", "time": 15, "note": 63, "velocity": 116, "channel": 0}, {"type": "note_off", "time": 189, "note": 63, "velocity": 116, "channel": 0}, {"type": "note_on", "time": 84, "note": 65, "velocity": 108, "channel": 0}, {"type": "note_off", "time": 53, "note": 65, "velocity": 108, "channel": 0}, {"type": "note_on", "time": 23, "note": 67, "velocity": 105, "channel": 0}, {"type": "note_off", "time": 131, "note": 67, "velocity": 105, "channel": 0}, {"type": "note_on", "time": 23, "note": 61, "velocity": 94, "channel": 0}, {"type": "note_off", "time": 65, "note": 61, "velocity": 94, "channel": 0}, {"type": "note_on", "time": 15, "note": 66, "velocity": 101, "channel": 0}, {"type": "note_off", "time": 163, "note": 66, "velocity": 101, "channel": 0}, {"type": "note_on", "time": 28, "note": 62, "velocity": 106, "channel": 0}, {"type": "note_off", "time": 144, "note": 62, "velocity": 106, "channel": 0}, {"type": "note_on", "time": 79, "note": 63, "velocity": 93, "channel": 0}, {"type": "note_off", "time": 328, "note": 63, "velocity": 93, "channel": 0}, {"type": "note_on", "time": 425, "note": 60, "velocity": 104, "channel": 0}, {"type": "note_off", "time": 35, "note": 60, "velocity": 104, "channel": 0}, {"type": "note_on", "time": 15, "note": 61, "velocity": 102, "channel": 0}, {"type": "note_off", "time": 232, "note": 61, "velocity": 102, "channel": 0}, {"type": "note_on", "time": 10, "note": 56, "velocity": 101, "channel": 0}, {"type": "note_on", "time": 65, "note": 54, "velocity": 96, "channel": 0}, {"type": "note_off", "time": 0, "note": 56, "velocity": 101, "channel": 0}, {"type": "note_off", "time": 133, "note": 54, "velocity": 96, "channel": 0}, {"type": "note_on", "time": 48, "note": 49, "velocity": 98, "channel": 0}, {"type": "note_off", "time": 207, "note": 49, "velocity": 98, "channel": 0}, {"type": "note_on", "time": 11, "note": 48, "velocity": 90, "channel": 0}, {"type": "note_off", "time": 182, "note": 48, "velocity": 90, "channel": 0}, {"type": "note_on", "time": 37, "note": 53, "velocity": 100, "channel": 0}, {"type": "note_off", "time": 209, "note": 53, "velocity": 100, "channel": 0}, {"type": "note_on", "time": 27, "note": 58, "velocity": 103, "channel": 0}, {"type": "note_off", "time": 159, "note": 58, "velocity": 103, "channel": 0}, {"type": "note_on", "time": 88, "note": 60, "velocity": 97, "channel": 0}, {"type": "note_off", "time": 159, "note": 60, "velocity": 97, "channel": 0}, {"type": "note_on", "time": 25, "note": 65, "velocity": 103, "channel": 0}, {"type": "note_off", "time": 184, "note": 65, "velocity": 103, "channel": 0}, {"type": "note_on", "time": 42, "note": 70, "velocity": 101, "channel": 0}, {"type": "note_off", "time": 212, "note": 70, "velocity": 101, "channel": 0}, {"type": "note_on", "time": 35, "note": 65, "velocity": 95, "channel": 0}, {"type": "note_off", "time": 237, "note": 65, "velocity": 95, "channel": 0}, {"type": "note_on", "time": 17, "note": 67, "velocity": 97, "channel": 0}, {"type": "note_off", "time": 181, "note": 67, "velocity": 97, "channel": 0}, {"type": "note_on", "time": 64, "note": 60, "velocity": 93, "channel": 0}, {"type": "note_off", "time": 191, "note": 60, "velocity": 93, "channel": 0}, {"type": "note_on", "time": 21, "note": 65, "velocity": 84, "channel": 0}, {"type": "note_off", "time": 369, "note": 65, "velocity": 84, "channel": 0}, {"type": "note_on", "time": 606, "note": 48, "velocity": 100, "channel": 0}, {"type": "note_off", "time": 59, "note": 48, "velocity": 100, "channel": 0}, {"type": "note_on", "time": 17, "note": 52, "velocity": 100, "channel": 0}, {"type": "note_off", "time": 48, "note": 52, "velocity": 100, "channel": 0}, {"type": "note_on", "time": 13, "note": 58, "velocity": 107, "channel": 0}, {"type": "note_off", "time": 60, "note": 58, "velocity": 107, "channel": 0}, {"type": "note_on", "time": 12, "note": 60, "velocity": 105, "channel": 0}, {"type": "note_off", "time": 61, "note": 60, "velocity": 105, "channel": 0}, {"type": "note_on", "time": 15, "note": 65, "velocity": 104, "channel": 0}, {"type": "note_off", "time": 27, "note": 65, "velocity": 104, "channel": 0}, {"type": "note_on", "time": 8, "note": 70, "velocity": 107, "channel": 0}, {"type": "note_off", "time": 53, "note": 70, "velocity": 107, "channel": 0}, {"type": "note_on", "time": 7, "note": 65, "velocity": 106, "channel": 0}, {"type": "note_off", "time": 56, "note": 65, "velocity": 106, "channel": 0}, {"type": "note_on", "time": 15, "note": 62, "velocity": 103, "channel": 0}, {"type": "note_off", "time": 20, "note": 62, "velocity": 103, "channel": 0}, {"type": "note_on", "time": 10, "note": 60, "velocity": 102, "channel": 0}, {"type": "note_off", "time": 40, "note": 60, "velocity": 102, "channel": 0}, {"type": "note_on", "time": 12, "note": 62, "velocity": 90, "channel": 0}, {"type": "note_off", "time": 32, "note": 62, "velocity": 90, "channel": 0}, {"type": "note_on", "time": 6, "note": 60, "velocity": 100, "channel": 0}, {"type": "note_off", "time": 55, "note": 60, "velocity": 100, "channel": 0}, {"type": "note_on", "time": 6, "note": 58, "velocity": 105, "channel": 0}, {"type": "note_off", "time": 63, "note": 58, "velocity": 105, "channel": 0}, {"type": "note_on", "time": 21, "note": 53, "velocity": 100, "channel": 0}, {"type": "note_off", "time": 58, "note": 53, "velocity": 100, "channel": 0}, {"type": "note_on", "time": 30, "note": 48, "velocity": 98, "channel": 0}, {"type": "note_off", "time": 229, "note": 48, "velocity": 98, "channel": 0}, {"type": "note_on", "time": 26, "note": 53, "velocity": 99, "channel": 0}, {"type": "note_off", "time": 289, "note": 53, "velocity": 99, "channel": 0}, {"type": "note_on", "time": 24, "note": 58, "velocity": 98, "channel": 0}, {"type": "note_off", "time": 40, "note": 58, "velocity": 98, "channel": 0}, {"type": "note_on", "time": 24, "note": 50, "velocity": 108, "channel": 0}, {"type": "note_off", "time": 53, "note": 50, "velocity": 108, "channel": 0}, {"type": "note_on", "time": 14, "note": 42, "velocity": 114, "channel": 0}, {"type": "note_off", "time": 45, "note": 42, "velocity": 114, "channel": 0}, {"type": "note_on", "time": 5, "note": 46, "velocity": 107, "channel": 0}, {"type": "note_off", "time": 42, "note": 46, "velocity": 107, "channel": 0}, {"type": "note_on", "time": 32, "note": 53, "velocity": 103, "channel": 0}, {"type": "note_off", "time": 45, "note": 53, "velocity": 103, "channel": 0}, {"type": "note_on", "time": 7, "note": 58, "velocity": 105, "channel": 0}, {"type": "note_off", "time": 47, "note": 58, "velocity": 105, "channel": 0}, {"type": "note_on", "time": 17, "note": 59, "velocity": 104, "channel": 0}, {"type": "note_off", "time": 44, "note": 59, "velocity": 104, "channel": 0}, {"type": "note_on", "time": 28, "note": 65, "velocity": 93, "channel": 0}, {"type": "note_off", "time": 55, "note": 65, "velocity": 93, "channel": 0}, {"type": "note_on", "time": 12, "note": 67, "velocity": 100, "channel": 0}, {"type": "note_off", "time": 39, "note": 67, "velocity": 100, "channel": 0}, {"type": "note_on", "time": 7, "note": 70, "velocity": 107, "channel": 0}, {"type": "note_off", "time": 164, "note": 70, "velocity": 107, "channel": 0}, {"type": "note_on", "time": 42, "note": 68, "velocity": 107, "channel": 0}, {"type": "note_off", "time": 126, "note": 68, "velocity": 107, "channel": 0}, {"type": "note_on", "time": 2, "note": 67, "velocity": 96, "channel": 0}, {"type": "note_off", "time": 50, "note": 67, "velocity": 96, "channel": 0}, {"type": "note_on", "time": 32, "note": 60, "velocity": 103, "channel": 0}, {"type": "note_off", "time": 35, "note": 60, "velocity": 103, "channel": 0}, {"type": "note_on", "time": 15, "note": 63, "velocity": 104, "channel": 0}, {"type": "note_off", "time": 51, "note": 63, "velocity": 104, "channel": 0}, {"type": "note_on", "time": 10, "note": 67, "velocity": 101, "channel": 0}, {"type": "note_off", "time": 47, "note": 67, "velocity": 101, "channel": 0}, {"type": "note_on", "time": 14, "note": 63, "velocity": 108, "channel": 0}, {"type": "note_off", "time": 31, "note": 63, "velocity": 108, "channel": 0}, {"type": "note_on", "time": 21, "note": 65, "velocity": 99, "channel": 0}, {"type": "note_off", "time": 55, "note": 65, "velocity": 99, "channel": 0}, {"type": "note_on", "time": 10, "note": 60, "velocity": 99, "channel": 0}, {"type": "note_off", "time": 44, "note": 60, "velocity": 99, "channel": 0}, {"type": "note_on", "time": 21, "note": 58, "velocity": 99, "channel": 0}, {"type": "note_off", "time": 42, "note": 58, "velocity": 99, "channel": 0}, {"type": "note_on", "time": 39, "note": 55, "velocity": 97, "channel": 0}, {"type": "note_off", "time": 65, "note": 55, "velocity": 97, "channel": 0}, {"type": "note_on", "time": 18, "note": 51, "velocity": 102, "channel": 0}, {"type": "note_off", "time": 37, "note": 51, "velocity": 102, "channel": 0}, {"type": "note_on", "time": 25, "note": 48, "velocity": 102, "channel": 0}, {"type": "note_off", "time": 55, "note": 48, "velocity": 102, "channel": 0}, {"type": "note_on", "time": 5, "note": 51, "velocity": 102, "channel": 0}, {"type": "note_off", "time": 60, "note": 51, "velocity": 102, "channel": 0}, {"type": "note_on", "time": 30, "note": 58, "velocity": 103, "channel": 0}, {"type": "note_off", "time": 56, "note": 58, "velocity": 103, "channel": 0}, {"type": "note_on", "time": 23, "note": 55, "velocity": 101, "channel": 0}, {"type": "note_off", "time": 55, "note": 55, "velocity": 101, "channel": 0}, {"type": "note_on", "time": 8, "note": 56, "velocity": 103, "channel": 0}, {"type": "note_off", "time": 76, "note": 56, "velocity": 103, "channel": 0}, {"type": "note_on", "time": 14, "note": 58, "velocity": 102, "channel": 0}, {"type": "note_off", "time": 49, "note": 58, "velocity": 102, "channel": 0}, {"type": "note_on", "time": 14, "note": 60, "velocity": 90, "channel": 0}, {"type": "note_off", "time": 31, "note": 60, "velocity": 90, "channel": 0}, {"type": "note_on", "time": 15, "note": 63, "velocity": 102, "channel": 0}, {"type": "note_off", "time": 83, "note": 63, "velocity": 102, "channel": 0}, {"type": "note_on", "time": 7, "note": 67, "velocity": 106, "channel": 0}, {"type": "note_off", "time": 70, "note": 67, "velocity": 106, "channel": 0}, {"type": "note_on", "time": 5, "note": 63, "velocity": 111, "channel": 0}, {"type": "note_off", "time": 60, "note": 63, "velocity": 111, "channel": 0}, {"type": "note_on", "time": 12, "note": 65, "velocity": 100, "channel": 0}, {"type": "note_off", "time": 33, "note": 65, "velocity": 100, "channel": 0}, {"type": "note_on", "time": 22, "note": 67, "velocity": 103, "channel": 0}, {"type": "note_off", "time": 53, "note": 67, "velocity": 103, "channel": 0}, {"type": "note_on", "time": 15, "note": 68, "velocity": 108, "channel": 0}, {"type": "note_off", "time": 37, "note": 68, "velocity": 108, "channel": 0}, {"type": "note_on", "time": 21, "note": 70, "velocity": 108, "channel": 0}, {"type": "note_off", "time": 93, "note": 70, "velocity": 108, "channel": 0}, {"type": "note_on", "time": 2, "note": 72, "velocity": 104, "channel": 0}, {"type": "note_off", "time": 42, "note": 72, "velocity": 104, "channel": 0}, {"type": "note_on", "time": 19, "note": 74, "velocity": 95, "channel": 0}, {"type": "note_off", "time": 300, "note": 74, "velocity": 95, "channel": 0}, {"type": "note_on", "time": 703, "note": 55, "velocity": 107, "channel": 0}, {"type": "note_off", "time": 71, "note": 55, "velocity": 107, "channel": 0}, {"type": "note_on", "time": 14, "note": 56, "velocity": 104, "channel": 0}, {"type": "note_off", "time": 28, "note": 56, "velocity": 104, "channel": 0}, {"type": "note_on", "time": 17, "note": 58, "velocity": 108, "channel": 0}, {"type": "note_off", "time": 42, "note": 58, "velocity": 108, "channel": 0}, {"type": "note_on", "time": 24, "note": 61, "velocity": 107, "channel": 0}, {"type": "note_off", "time": 39, "note": 61, "velocity": 107, "channel": 0}, {"type": "note_on", "time": 21, "note": 63, "velocity": 107, "channel": 0}, {"type": "note_off", "time": 23, "note": 63, "velocity": 107, "channel": 0}, {"type": "note_on", "time": 8, "note": 64, "velocity": 117, "channel": 0}, {"type": "note_off", "time": 55, "note": 64, "velocity": 117, "channel": 0}, {"type": "note_on", "time": 14, "note": 69, "velocity": 111, "channel": 0}, {"type": "note_off", "time": 56, "note": 69, "velocity": 111, "channel": 0}, {"type": "note_on", "time": 17, "note": 71, "velocity": 112, "channel": 0}, {"type": "note_off", "time": 55, "note": 71, "velocity": 112, "channel": 0}, {"type": "note_on", "time": 12, "note": 73, "velocity": 87, "channel": 0}, {"type": "note_off", "time": 365, "note": 73, "velocity": 87, "channel": 0}, {"type": "note_on", "time": 534, "note": 66, "velocity": 102, "channel": 0}, {"type": "note_off", "time": 62, "note": 66, "velocity": 102, "channel": 0}, {"type": "note_on", "time": 5, "note": 70, "velocity": 106, "channel": 0}, {"type": "note_off", "time": 72, "note": 70, "velocity": 106, "channel": 0}, {"type": "note_on", "time": 3, "note": 68, "velocity": 108, "channel": 0}, {"type": "note_off", "time": 156, "note": 68, "velocity": 108, "channel": 0}, {"type": "note_on", "time": 30, "note": 60, "velocity": 103, "channel": 0}, {"type": "note_off", "time": 58, "note": 60, "velocity": 103, "channel": 0}, {"type": "note_on", "time": 5, "note": 63, "velocity": 109, "channel": 0}, {"type": "note_off", "time": 60, "note": 63, "velocity": 109, "channel": 0}, {"type": "note_on", "time": 7, "note": 67, "velocity": 102, "channel": 0}, {"type": "note_off", "time": 49, "note": 67, "velocity": 102, "channel": 0}, {"type": "note_on", "time": 15, "note": 65, "velocity": 103, "channel": 0}, {"type": "note_off", "time": 172, "note": 65, "velocity": 103, "channel": 0}, {"type": "note_on", "time": 12, "note": 66, "velocity": 94, "channel": 0}, {"type": "note_off", "time": 260, "note": 66, "velocity": 94, "channel": 0}, {"type": "note_on", "time": 0, "note": 64, "velocity": 102, "channel": 0}, {"type": "note_off", "time": 49, "note": 64, "velocity": 102, "channel": 0}, {"type": "note_on", "time": 10, "note": 62, "velocity": 106, "channel": 0}, {"type": "note_off", "time": 49, "note": 62, "velocity": 106, "channel": 0}, {"type": "note_on", "time": 10, "note": 61, "velocity": 100, "channel": 0}, {"type": "note_off", "time": 53, "note": 61, "velocity": 100, "channel": 0}, {"type": "note_on", "time": 10, "note": 59, "velocity": 97, "channel": 0}, {"type": "note_off", "time": 60, "note": 59, "velocity": 97, "channel": 0}, {"type": "note_on", "time": 6, "note": 57, "velocity": 97, "channel": 0}, {"type": "note_off", "time": 74, "note": 57, "velocity": 97, "channel": 0}, {"type": "note_on", "time": 14, "note": 58, "velocity": 89, "channel": 0}, {"type": "note_off", "time": 477, "note": 58, "velocity": 89, "channel": 0}, {"type": "note_on", "time": 2147, "note": 67, "velocity": 118, "channel": 0}, {"type": "note_off", "time": 110, "note": 67, "velocity": 118, "channel": 0}, {"type": "note_on", "time": 127, "note": 67, "velocity": 114, "channel": 0}, {"type": "note_off", "time": 202, "note": 67, "velocity": 114, "channel": 0}, {"type": "note_on", "time": 10, "note": 66, "velocity": 115, "channel": 0}, {"type": "note_off", "time": 117, "note": 66, "velocity": 115, "channel": 0}, {"type": "note_on", "time": 26, "note": 65, "velocity": 88, "channel": 0}, {"type": "note_off", "time": 248, "note": 65, "velocity": 88, "channel": 0}, {"type": "note_on", "time": 1595, "note": 61, "velocity": 105, "channel": 0}, {"type": "note_off", "time": 72, "note": 61, "velocity": 105, "channel": 0}, {"type": "note_on", "time": 5, "note": 63, "velocity": 111, "channel": 0}, {"type": "note_off", "time": 87, "note": 63, "velocity": 111, "channel": 0}, {"type": "note_on", "time": 3, "note": 65, "velocity": 110, "channel": 0}, {"type": "note_off", "time": 95, "note": 65, "velocity": 110, "channel": 0}, {"type": "note_on", "time": 8, "note": 61, "velocity": 93, "channel": 0}, {"type": "note_off", "time": 46, "note": 61, "velocity": 93, "channel": 0}, {"type": "note_on", "time": 30, "note": 63, "velocity": 118, "channel": 0}, {"type": "note_off", "time": 113, "note": 63, "velocity": 118, "channel": 0}, {"type": "note_on", "time": 10, "note": 61, "velocity": 104, "channel": 0}, {"type": "note_off", "time": 44, "note": 61, "velocity": 104, "channel": 0}, {"type": "note_on", "time": 15, "note": 58, "velocity": 106, "channel": 0}, {"type": "note_off", "time": 113, "note": 58, "velocity": 106, "channel": 0}, {"type": "note_on", "time": 10, "note": 54, "velocity": 104, "channel": 0}, {"type": "note_off", "time": 71, "note": 54, "velocity": 104, "channel": 0}, {"type": "note_on", "time": 10, "note": 53, "velocity": 103, "channel": 0}, {"type": "note_off", "time": 46, "note": 53, "velocity": 103, "channel": 0}, {"type": "note_on", "time": 5, "note": 52, "velocity": 106, "channel": 0}, {"type": "note_off", "time": 71, "note": 52, "velocity": 106, "channel": 0}, {"type": "note_on", "time": 5, "note": 51, "velocity": 103, "channel": 0}, {"type": "note_off", "time": 135, "note": 51, "velocity": 103, "channel": 0}, {"type": "note_on", "time": 7, "note": 53, "velocity": 105, "channel": 0}, {"type": "note_off", "time": 78, "note": 53, "velocity": 105, "channel": 0}, {"type": "note_on", "time": 15, "note": 55, "velocity": 105, "channel": 0}, {"type": "note_off", "time": 69, "note": 55, "velocity": 105, "channel": 0}, {"type": "note_on", "time": 9, "note": 58, "velocity": 100, "channel": 0}, {"type": "note_off", "time": 83, "note": 58, "velocity": 100, "channel": 0}, {"type": "note_on", "time": 25, "note": 63, "velocity": 105, "channel": 0}, {"type": "note_off", "time": 103, "note": 63, "velocity": 105, "channel": 0}, {"type": "note_on", "time": 73, "note": 67, "velocity": 109, "channel": 0}, {"type": "note_off", "time": 87, "note": 67, "velocity": 109, "channel": 0}, {"type": "note_on", "time": 37, "note": 63, "velocity": 98, "channel": 0}, {"type": "note_off", "time": 53, "note": 63, "velocity": 98, "channel": 0}, {"type": "note_on", "time": 8, "note": 65, "velocity": 109, "channel": 0}, {"type": "note_off", "time": 77, "note": 65, "velocity": 109, "channel": 0}, {"type": "note_on", "time": 25, "note": 63, "velocity": 111, "channel": 0}, {"type": "note_off", "time": 74, "note": 63, "velocity": 111, "channel": 0}, {"type": "note_on", "time": 21, "note": 59, "velocity": 103, "channel": 0}, {"type": "note_off", "time": 79, "note": 59, "velocity": 103, "channel": 0}, {"type": "note_on", "time": 85, "note": 55, "velocity": 104, "channel": 0}, {"type": "note_off", "time": 37, "note": 55, "velocity": 104, "channel": 0}, {"type": "note_on", "time": 6, "note": 61, "velocity": 106, "channel": 0}, {"type": "note_off", "time": 94, "note": 61, "velocity": 106, "channel": 0}, {"type": "note_on", "time": 9, "note": 63, "velocity": 103, "channel": 0}, {"type": "note_off", "time": 46, "note": 63, "velocity": 103, "channel": 0}, {"type": "note_on", "time": 2, "note": 65, "velocity": 108, "channel": 0}, {"type": "note_off", "time": 122, "note": 65, "velocity": 108, "channel": 0}, {"type": "note_on", "time": 96, "note": 63, "velocity": 114, "channel": 0}, {"type": "note_off", "time": 128, "note": 63, "velocity": 114, "channel": 0}, {"type": "note_on", "time": 26, "note": 58, "velocity": 98, "channel": 0}, {"type": "note_off", "time": 55, "note": 58, "velocity": 98, "channel": 0}, {"type": "note_on", "time": 15, "note": 54, "velocity": 97, "channel": 0}, {"type": "note_off", "time": 85, "note": 54, "velocity": 97, "channel": 0}, {"type": "note_on", "time": 21, "note": 51, "velocity": 96, "channel": 0}, {"type": "note_off", "time": 42, "note": 51, "velocity": 96, "channel": 0}, {"type": "note_on", "time": 26, "note": 55, "velocity": 108, "channel": 0}, {"type": "note_off", "time": 122, "note": 55, "velocity": 108, "channel": 0}, {"type": "note_on", "time": 10, "note": 58, "velocity": 109, "channel": 0}, {"type": "note_off", "time": 44, "note": 58, "velocity": 109, "channel": 0}, {"type": "note_on", "time": 11, "note": 62, "velocity": 111, "channel": 0}, {"type": "note_off", "time": 75, "note": 62, "velocity": 111, "channel": 0}, {"type": "note_on", "time": 19, "note": 65, "velocity": 115, "channel": 0}, {"type": "note_off", "time": 90, "note": 65, "velocity": 115, "channel": 0}, {"type": "note_on", "time": 7, "note": 63, "velocity": 119, "channel": 0}, {"type": "note_off", "time": 94, "note": 63, "velocity": 119, "channel": 0}, {"type": "note_on", "time": 9, "note": 65, "velocity": 113, "channel": 0}, {"type": "note_off", "time": 40, "note": 65, "velocity": 113, "channel": 0}, {"type": "note_on", "time": 22, "note": 67, "velocity": 98, "channel": 0}, {"type": "note_off", "time": 99, "note": 67, "velocity": 98, "channel": 0}, {"type": "note_on", "time": 5, "note": 70, "velocity": 97, "channel": 0}, {"type": "note_off", "time": 53, "note": 70, "velocity": 97, "channel": 0}, {"type": "note_on", "time": 40, "note": 72, "velocity": 118, "channel": 0}, {"type": "note_off", "time": 99, "note": 72, "velocity": 118, "channel": 0}, {"type": "note_on", "time": 10, "note": 74, "velocity": 111, "channel": 0}, {"type": "note_off", "time": 200, "note": 74, "velocity": 111, "channel": 0}, {"type": "note_on", "time": 7, "note": 70, "velocity": 113, "channel": 0}, {"type": "note_off", "time": 85, "note": 70, "velocity": 113, "channel": 0}, {"type": "note_on", "time": 5, "note": 69, "velocity": 108, "channel": 0}, {"type": "note_off", "time": 46, "note": 69, "velocity": 108, "channel": 0}, {"type": "note_on", "time": 12, "note": 70, "velocity": 106, "channel": 0}, {"type": "note_off", "time": 88, "note": 70, "velocity": 106, "channel": 0}, {"type": "note_on", "time": 21, "note": 63, "velocity": 113, "channel": 0}, {"type": "note_off", "time": 79, "note": 63, "velocity": 113, "channel": 0}, {"type": "note_on", "time": 16, "note": 62, "velocity": 115, "channel": 0}, {"type": "note_off", "time": 109, "note": 62, "velocity": 115, "channel": 0}, {"type": "note_on", "time": 15, "note": 61, "velocity": 95, "channel": 0}, {"type": "note_off", "time": 289, "note": 61, "velocity": 95, "channel": 0}, {"type": "note_on", "time": 23, "note": 68, "velocity": 108, "channel": 0}, {"type": "note_off", "time": 122, "note": 68, "velocity": 108, "channel": 0}, {"type": "note_on", "time": 0, "note": 64, "velocity": 109, "channel": 0}, {"type": "note_off", "time": 95, "note": 64, "velocity": 109, "channel": 0}, {"type": "note_on", "time": 14, "note": 61, "velocity": 100, "channel": 0}, {"type": "note_off", "time": 63, "note": 61, "velocity": 100, "channel": 0}, {"type": "note_on", "time": 5, "note": 59, "velocity": 96, "channel": 0}, {"type": "note_off", "time": 63, "note": 59, "velocity": 96, "channel": 0}, {"type": "note_on", "time": 30, "note": 57, "velocity": 103, "channel": 0}, {"type": "note_off", "time": 220, "note": 57, "velocity": 103, "channel": 0}, {"type": "note_on", "time": 778, "note": 57, "velocity": 107, "channel": 0}, {"type": "note_off", "time": 74, "note": 57, "velocity": 107, "channel": 0}, {"type": "note_on", "time": 8, "note": 59, "velocity": 103, "channel": 0}, {"type": "note_off", "time": 56, "note": 59, "velocity": 103, "channel": 0}, {"type": "note_on", "time": 8, "note": 61, "velocity": 107, "channel": 0}, {"type": "note_off", "time": 81, "note": 61, "velocity": 107, "channel": 0}, {"type": "note_on", "time": 30, "note": 64, "velocity": 117, "channel": 0}, {"type": "note_off", "time": 55, "note": 64, "velocity": 117, "channel": 0}, {"type": "note_on", "time": 8, "note": 69, "velocity": 111, "channel": 0}, {"type": "note_off", "time": 110, "note": 69, "velocity": 111, "channel": 0}, {"type": "note_on", "time": 10, "note": 66, "velocity": 110, "channel": 0}, {"type": "note_off", "time": 76, "note": 66, "velocity": 110, "channel": 0}, {"type": "note_on", "time": 14, "note": 64, "velocity": 116, "channel": 0}, {"type": "note_off", "time": 65, "note": 64, "velocity": 116, "channel": 0}, {"type": "note_on", "time": 7, "note": 61, "velocity": 108, "channel": 0}, {"type": "note_off", "time": 68, "note": 61, "velocity": 108, "channel": 0}, {"type": "note_on", "time": 12, "note": 59, "velocity": 104, "channel": 0}, {"type": "note_off", "time": 51, "note": 59, "velocity": 104, "channel": 0}, {"type": "note_on", "time": 13, "note": 57, "velocity": 106, "channel": 0}, {"type": "note_off", "time": 75, "note": 57, "velocity": 106, "channel": 0}, {"type": "note_on", "time": 10, "note": 54, "velocity": 101, "channel": 0}, {"type": "note_off", "time": 35, "note": 54, "velocity": 101, "channel": 0}, {"type": "note_on", "time": 5, "note": 53, "velocity": 109, "channel": 0}, {"type": "note_off", "time": 53, "note": 53, "velocity": 109, "channel": 0}, {"type": "note_on", "time": 10, "note": 49, "velocity": 107, "channel": 0}, {"type": "note_off", "time": 78, "note": 49, "velocity": 107, "channel": 0}, {"type": "note_on", "time": 7, "note": 48, "velocity": 105, "channel": 0}, {"type": "note_off", "time": 30, "note": 48, "velocity": 105, "channel": 0}, {"type": "note_on", "time": 12, "note": 47, "velocity": 105, "channel": 0}, {"type": "note_off", "time": 39, "note": 47, "velocity": 105, "channel": 0}, {"type": "note_on", "time": 0, "note": 46, "velocity": 110, "channel": 0}, {"type": "note_off", "time": 63, "note": 46, "velocity": 110, "channel": 0}, {"type": "note_on", "time": 11, "note": 45, "velocity": 110, "channel": 0}, {"type": "note_off", "time": 141, "note": 45, "velocity": 110, "channel": 0}, {"type": "note_on", "time": 12, "note": 46, "velocity": 100, "channel": 0}, {"type": "note_off", "time": 339, "note": 46, "velocity": 100, "channel": 0}, {"type": "note_on", "time": 1090, "note": 46, "velocity": 122, "channel": 0}, {"type": "note_off", "time": 87, "note": 46, "velocity": 122, "channel": 0}, {"type": "note_on", "time": 12, "note": 45, "velocity": 120, "channel": 0}, {"type": "note_off", "time": 97, "note": 45, "velocity": 120, "channel": 0}, {"type": "note_on", "time": 11, "note": 48, "velocity": 116, "channel": 0}, {"type": "note_off", "time": 89, "note": 48, "velocity": 116, "channel": 0}, {"type": "note_on", "time": 11, "note": 49, "velocity": 112, "channel": 0}, {"type": "note_off", "time": 58, "note": 49, "velocity": 112, "channel": 0}, {"type": "note_on", "time": 2, "note": 52, "velocity": 111, "channel": 0}, {"type": "note_off", "time": 37, "note": 52, "velocity": 111, "channel": 0}, {"type": "note_on", "time": 22, "note": 57, "velocity": 107, "channel": 0}, {"type": "note_off", "time": 50, "note": 57, "velocity": 107, "channel": 0}, {"type": "note_on", "time": 8, "note": 58, "velocity": 106, "channel": 0}, {"type": "note_off", "time": 37, "note": 58, "velocity": 106, "channel": 0}, {"type": "note_on", "time": 13, "note": 61, "velocity": 112, "channel": 0}, {"type": "note_off", "time": 45, "note": 61, "velocity": 112, "channel": 0}, {"type": "note_on", "time": 7, "note": 63, "velocity": 112, "channel": 0}, {"type": "note_off", "time": 21, "note": 63, "velocity": 112, "channel": 0}, {"type": "note_on", "time": 3, "note": 64, "velocity": 116, "channel": 0}, {"type": "note_off", "time": 51, "note": 64, "velocity": 116, "channel": 0}, {"type": "note_on", "time": 13, "note": 69, "velocity": 115, "channel": 0}, {"type": "note_off", "time": 40, "note": 69, "velocity": 115, "channel": 0}, {"type": "note_on", "time": 8, "note": 71, "velocity": 115, "channel": 0}, {"type": "note_off", "time": 31, "note": 71, "velocity": 115, "channel": 0}, {"type": "note_on", "time": 10, "note": 73, "velocity": 117, "channel": 0}, {"type": "note_off", "time": 169, "note": 73, "velocity": 117, "channel": 0}, {"type": "note_on", "time": 35, "note": 69, "velocity": 104, "channel": 0}, {"type": "note_off", "time": 19, "note": 69, "velocity": 104, "channel": 0}, {"type": "note_on", "time": 10, "note": 64, "velocity": 106, "channel": 0}, {"type": "note_off", "time": 41, "note": 64, "velocity": 106, "channel": 0}, {"type": "note_on", "time": 22, "note": 61, "velocity": 111, "channel": 0}, {"type": "note_off", "time": 69, "note": 61, "velocity": 111, "channel": 0}, {"type": "note_on", "time": 10, "note": 59, "velocity": 108, "channel": 0}, {"type": "note_off", "time": 31, "note": 59, "velocity": 108, "channel": 0}, {"type": "note_on", "time": 7, "note": 57, "velocity": 103, "channel": 0}, {"type": "note_off", "time": 17, "note": 57, "velocity": 103, "channel": 0}, {"type": "note_on", "time": 14, "note": 51, "velocity": 107, "channel": 0}, {"type": "note_on", "time": 26, "note": 49, "velocity": 109, "channel": 0}, {"type": "note_off", "time": 0, "note": 51, "velocity": 107, "channel": 0}, {"type": "note_off", "time": 42, "note": 49, "velocity": 109, "channel": 0}, {"type": "note_on", "time": 8, "note": 47, "velocity": 114, "channel": 0}, {"type": "note_off", "time": 87, "note": 47, "velocity": 114, "channel": 0}, {"type": "note_on", "time": 10, "note": 46, "velocity": 107, "channel": 0}, {"type": "note_off", "time": 66, "note": 46, "velocity": 107, "channel": 0}, {"type": "note_on", "time": 6, "note": 45, "velocity": 109, "channel": 0}, {"type": "note_off", "time": 373, "note": 45, "velocity": 109, "channel": 0}, {"type": "note_on", "time": 21, "note": 46, "velocity": 101, "channel": 0}, {"type": "note_off", "time": 42, "note": 46, "velocity": 101, "channel": 0}, {"type": "note_on", "time": 10, "note": 48, "velocity": 101, "channel": 0}, {"type": "note_off", "time": 56, "note": 48, "velocity": 101, "channel": 0}, {"type": "note_on", "time": 0, "note": 49, "velocity": 105, "channel": 0}, {"type": "note_off", "time": 35, "note": 49, "velocity": 105, "channel": 0}, {"type": "note_on", "time": 0, "note": 51, "velocity": 108, "channel": 0}, {"type": "note_off", "time": 31, "note": 51, "velocity": 108, "channel": 0}, {"type": "note_on", "time": 0, "note": 55, "velocity": 107, "channel": 0}, {"type": "note_off", "time": 44, "note": 55, "velocity": 107, "channel": 0}, {"type": "note_on", "time": 5, "note": 58, "velocity": 108, "channel": 0}, {"type": "note_off", "time": 36, "note": 58, "velocity": 108, "channel": 0}, {"type": "note_on", "time": 13, "note": 61, "velocity": 112, "channel": 0}, {"type": "note_off", "time": 61, "note": 61, "velocity": 112, "channel": 0}, {"type": "note_on", "time": 17, "note": 66, "velocity": 103, "channel": 0}, {"type": "note_off", "time": 36, "note": 66, "velocity": 103, "channel": 0}, {"type": "note_on", "time": 5, "note": 69, "velocity": 113, "channel": 0}, {"type": "note_off", "time": 40, "note": 69, "velocity": 113, "channel": 0}, {"type": "note_on", "time": 10, "note": 71, "velocity": 117, "channel": 0}, {"type": "note_off", "time": 56, "note": 71, "velocity": 117, "channel": 0}, {"type": "note_on", "time": 13, "note": 73, "velocity": 117, "channel": 0}, {"type": "note_off", "time": 213, "note": 73, "velocity": 117, "channel": 0}, {"type": "note_on", "time": 32, "note": 69, "velocity": 100, "channel": 0}, {"type": "note_off", "time": 36, "note": 69, "velocity": 100, "channel": 0}, {"type": "note_on", "time": 16, "note": 64, "velocity": 97, "channel": 0}, {"type": "note_off", "time": 22, "note": 64, "velocity": 97, "channel": 0}, {"type": "note_on", "time": 16, "note": 61, "velocity": 102, "channel": 0}, {"type": "note_off", "time": 89, "note": 61, "velocity": 102, "channel": 0}, {"type": "note_on", "time": 10, "note": 59, "velocity": 100, "channel": 0}, {"type": "note_off", "time": 17, "note": 59, "velocity": 100, "channel": 0}, {"type": "note_on", "time": 13, "note": 57, "velocity": 111, "channel": 0}, {"type": "note_off", "time": 25, "note": 57, "velocity": 111, "channel": 0}, {"type": "note_on", "time": 15, "note": 51, "velocity": 104, "channel": 0}, {"type": "note_off", "time": 66, "note": 51, "velocity": 104, "channel": 0}, {"type": "note_on", "time": 13, "note": 49, "velocity": 106, "channel": 0}, {"type": "note_off", "time": 49, "note": 49, "velocity": 106, "channel": 0}, {"type": "note_on", "time": 12, "note": 48, "velocity": 104, "channel": 0}, {"type": "note_off", "time": 54, "note": 48, "velocity": 104, "channel": 0}, {"type": "note_on", "time": 12, "note": 46, "velocity": 107, "channel": 0}, {"type": "note_off", "time": 106, "note": 46, "velocity": 107, "channel": 0}, {"type": "note_on", "time": 0, "note": 47, "velocity": 105, "channel": 0}, {"type": "note_off", "time": 275, "note": 47, "velocity": 105, "channel": 0}, {"type": "note_on", "time": 7, "note": 48, "velocity": 110, "channel": 0}, {"type": "note_off", "time": 88, "note": 48, "velocity": 110, "channel": 0}, {"type": "note_on", "time": 1, "note": 49, "velocity": 110, "channel": 0}, {"type": "note_off", "time": 71, "note": 49, "velocity": 110, "channel": 0}, {"type": "note_on", "time": 15, "note": 55, "velocity": 102, "channel": 0}, {"type": "note_off", "time": 38, "note": 55, "velocity": 102, "channel": 0}, {"type": "note_on", "time": 22, "note": 59, "velocity": 104, "channel": 0}, {"type": "note_off", "time": 42, "note": 59, "velocity": 104, "channel": 0}, {"type": "note_on", "time": 20, "note": 62, "velocity": 109, "channel": 0}, {"type": "note_off", "time": 56, "note": 62, "velocity": 109, "channel": 0}, {"type": "note_on", "time": 7, "note": 67, "velocity": 99, "channel": 0}, {"type": "note_on", "time": 28, "note": 70, "velocity": 105, "channel": 0}, {"type": "note_off", "time": 0, "note": 67, "velocity": 99, "channel": 0}, {"type": "note_off", "time": 37, "note": 70, "velocity": 105, "channel": 0}, {"type": "note_on", "time": 17, "note": 73, "velocity": 110, "channel": 0}, {"type": "note_off", "time": 37, "note": 73, "velocity": 110, "channel": 0}, {"type": "note_on", "time": 8, "note": 74, "velocity": 118, "channel": 0}, {"type": "note_off", "time": 248, "note": 74, "velocity": 118, "channel": 0}, {"type": "note_on", "time": 12, "note": 73, "velocity": 113, "channel": 0}, {"type": "note_off", "time": 28, "note": 73, "velocity": 113, "channel": 0}, {"type": "note_on", "time": 0, "note": 71, "velocity": 115, "channel": 0}, {"type": "note_off", "time": 30, "note": 71, "velocity": 115, "channel": 0}, {"type": "note_on", "time": 5, "note": 65, "velocity": 105, "channel": 0}, {"type": "note_off", "time": 28, "note": 65, "velocity": 105, "channel": 0}, {"type": "note_on", "time": 0, "note": 64, "velocity": 105, "channel": 0}, {"type": "note_off", "time": 37, "note": 64, "velocity": 105, "channel": 0}, {"type": "note_on", "time": 0, "note": 62, "velocity": 110, "channel": 0}, {"type": "note_off", "time": 66, "note": 62, "velocity": 110, "channel": 0}, {"type": "note_on", "time": 20, "note": 59, "velocity": 106, "channel": 0}, {"type": "note_off", "time": 41, "note": 59, "velocity": 106, "channel": 0}, {"type": "note_on", "time": 7, "note": 57, "velocity": 106, "channel": 0}, {"type": "note_off", "time": 25, "note": 57, "velocity": 106, "channel": 0}, {"type": "note_on", "time": 6, "note": 53, "velocity": 104, "channel": 0}, {"type": "note_off", "time": 42, "note": 53, "velocity": 104, "channel": 0}, {"type": "note_on", "time": 0, "note": 50, "velocity": 98, "channel": 0}, {"type": "note_off", "time": 66, "note": 50, "velocity": 98, "channel": 0}, {"type": "note_on", "time": 11, "note": 51, "velocity": 100, "channel": 0}, {"type": "note_off", "time": 56, "note": 51, "velocity": 100, "channel": 0}, {"type": "note_on", "time": 3, "note": 58, "velocity": 92, "channel": 0}, {"type": "note_off", "time": 278, "note": 58, "velocity": 92, "channel": 0}, {"type": "note_on", "time": 1179, "note": 67, "velocity": 119, "channel": 0}, {"type": "note_off", "time": 94, "note": 67, "velocity": 119, "channel": 0}, {"type": "note_on", "time": 10, "note": 70, "velocity": 117, "channel": 0}, {"type": "note_off", "time": 159, "note": 70, "velocity": 117, "channel": 0}, {"type": "note_on", "time": 7, "note": 68, "velocity": 114, "channel": 0}, {"type": "note_off", "time": 97, "note": 68, "velocity": 114, "channel": 0}, {"type": "note_on", "time": 18, "note": 67, "velocity": 114, "channel": 0}, {"type": "note_off", "time": 106, "note": 67, "velocity": 114, "channel": 0}, {"type": "note_on", "time": 17, "note": 79, "velocity": 110, "channel": 0}, {"type": "note_off", "time": 285, "note": 79, "velocity": 110, "channel": 0}, {"type": "note_on", "time": 37, "note": 78, "velocity": 95, "channel": 0}, {"type": "note_off", "time": 254, "note": 78, "velocity": 95, "channel": 0}, {"type": "note_on", "time": 30, "note": 77, "velocity": 96, "channel": 0}, {"type": "note_off", "time": 435, "note": 77, "velocity": 96, "channel": 0}, {"type": "note_on", "time": 244, "note": 70, "velocity": 116, "channel": 0}, {"type": "note_off", "time": 120, "note": 70, "velocity": 116, "channel": 0}, {"type": "note_on", "time": 22, "note": 69, "velocity": 110, "channel": 0}, {"type": "note_off", "time": 79, "note": 69, "velocity": 110, "channel": 0}, {"type": "note_on", "time": 14, "note": 68, "velocity": 111, "channel": 0}, {"type": "note_off", "time": 122, "note": 68, "velocity": 111, "channel": 0}, {"type": "note_on", "time": 18, "note": 67, "velocity": 113, "channel": 0}, {"type": "note_off", "time": 123, "note": 67, "velocity": 113, "channel": 0}, {"type": "note_on", "time": 22, "note": 78, "velocity": 115, "channel": 0}, {"type": "note_off", "time": 59, "note": 78, "velocity": 115, "channel": 0}, {"type": "note_on", "time": 6, "note": 79, "velocity": 112, "channel": 0}, {"type": "note_off", "time": 135, "note": 79, "velocity": 112, "channel": 0}, {"type": "note_on", "time": 14, "note": 77, "velocity": 99, "channel": 0}, {"type": "note_off", "time": 79, "note": 77, "velocity": 99, "channel": 0}, {"type": "note_on", "time": 44, "note": 70, "velocity": 102, "channel": 0}, {"type": "note_off", "time": 56, "note": 70, "velocity": 102, "channel": 0}, {"type": "note_on", "time": 23, "note": 77, "velocity": 94, "channel": 0}, {"type": "note_off", "time": 519, "note": 77, "velocity": 94, "channel": 0}, {"type": "note_on", "time": 221, "note": 63, "velocity": 95, "channel": 0}, {"type": "note_off", "time": 104, "note": 63, "velocity": 95, "channel": 0}, {"type": "note_on", "time": 24, "note": 67, "velocity": 111, "channel": 0}, {"type": "note_off", "time": 106, "note": 67, "velocity": 111, "channel": 0}, {"type": "note_on", "time": 10, "note": 68, "velocity": 116, "channel": 0}, {"type": "note_off", "time": 119, "note": 68, "velocity": 116, "channel": 0}, {"type": "note_on", "time": 7, "note": 70, "velocity": 116, "channel": 0}, {"type": "note_off", "time": 115, "note": 70, "velocity": 116, "channel": 0}, {"type": "note_on", "time": 40, "note": 71, "velocity": 117, "channel": 0}, {"type": "note_off", "time": 69, "note": 71, "velocity": 117, "channel": 0}, {"type": "note_on", "time": 15, "note": 73, "velocity": 114, "channel": 0}, {"type": "note_off", "time": 133, "note": 73, "velocity": 114, "channel": 0}, {"type": "note_on", "time": 8, "note": 71, "velocity": 102, "channel": 0}, {"type": "note_off", "time": 33, "note": 71, "velocity": 102, "channel": 0}, {"type": "note_on", "time": 14, "note": 69, "velocity": 114, "channel": 0}, {"type": "note_off", "time": 95, "note": 69, "velocity": 114, "channel": 0}, {"type": "note_on", "time": 1, "note": 66, "velocity": 106, "channel": 0}, {"type": "note_off", "time": 58, "note": 66, "velocity": 106, "channel": 0}, {"type": "note_on", "time": 14, "note": 64, "velocity": 106, "channel": 0}, {"type": "note_off", "time": 26, "note": 64, "velocity": 106, "channel": 0}, {"type": "note_on", "time": 5, "note": 61, "velocity": 106, "channel": 0}, {"type": "note_off", "time": 91, "note": 61, "velocity": 106, "channel": 0}, {"type": "note_on", "time": 20, "note": 59, "velocity": 100, "channel": 0}, {"type": "note_off", "time": 84, "note": 59, "velocity": 100, "channel": 0}, {"type": "note_on", "time": 12, "note": 64, "velocity": 114, "channel": 0}, {"type": "note_off", "time": 153, "note": 64, "velocity": 114, "channel": 0}, {"type": "note_on", "time": 11, "note": 66, "velocity": 10, "channel": 0}, {"type": "note_off", "time": 165, "note": 66, "velocity": 10, "channel": 0}, {"type": "note_on", "time": 14, "note": 64, "velocity": 109, "channel": 0}, {"type": "note_off", "time": 126, "note": 64, "velocity": 109, "channel": 0}, {"type": "note_on", "time": 19, "note": 61, "velocity": 107, "channel": 0}, {"type": "note_off", "time": 81, "note": 61, "velocity": 107, "channel": 0}, {"type": "note_on", "time": 14, "note": 59, "velocity": 100, "channel": 0}, {"type": "note_off", "time": 74, "note": 59, "velocity": 100, "channel": 0}, {"type": "note_on", "time": 19, "note": 57, "velocity": 101, "channel": 0}, {"type": "note_off", "time": 63, "note": 57, "velocity": 101, "channel": 0}, {"type": "note_on", "time": 10, "note": 54, "velocity": 99, "channel": 0}, {"type": "note_off", "time": 51, "note": 54, "velocity": 99, "channel": 0}, {"type": "note_on", "time": 21, "note": 52, "velocity": 101, "channel": 0}, {"type": "note_off", "time": 106, "note": 52, "velocity": 101, "channel": 0}, {"type": "note_on", "time": 21, "note": 58, "velocity": 101, "channel": 0}, {"type": "note_off", "time": 175, "note": 58, "velocity": 101, "channel": 0}, {"type": "note_on", "time": 703, "note": 68, "velocity": 114, "channel": 0}, {"type": "note_off", "time": 76, "note": 68, "velocity": 114, "channel": 0}, {"type": "note_on", "time": 7, "note": 69, "velocity": 110, "channel": 0}, {"type": "note_off", "time": 55, "note": 69, "velocity": 110, "channel": 0}, {"type": "note_on", "time": 14, "note": 70, "velocity": 114, "channel": 0}, {"type": "note_off", "time": 88, "note": 70, "velocity": 114, "channel": 0}, {"type": "note_on", "time": 76, "note": 70, "velocity": 104, "channel": 0}, {"type": "note_off", "time": 90, "note": 70, "velocity": 104, "channel": 0}, {"type": "note_on", "time": 126, "note": 58, "velocity": 104, "channel": 0}, {"type": "note_off", "time": 44, "note": 58, "velocity": 104, "channel": 0}, {"type": "note_on", "time": 7, "note": 58, "velocity": 101, "channel": 0}, {"type": "note_off", "time": 31, "note": 58, "velocity": 101, "channel": 0}, {"type": "note_on", "time": 5, "note": 63, "velocity": 107, "channel": 0}, {"type": "note_off", "time": 55, "note": 63, "velocity": 107, "channel": 0}, {"type": "note_on", "time": 3, "note": 65, "velocity": 102, "channel": 0}, {"type": "note_off", "time": 69, "note": 65, "velocity": 102, "channel": 0}, {"type": "note_on", "time": 3, "note": 67, "velocity": 106, "channel": 0}, {"type": "note_off", "time": 87, "note": 67, "velocity": 106, "channel": 0}, {"type": "note_on", "time": 55, "note": 67, "velocity": 107, "channel": 0}, {"type": "note_off", "time": 88, "note": 67, "velocity": 107, "channel": 0}, {"type": "note_on", "time": 73, "note": 67, "velocity": 108, "channel": 0}, {"type": "note_off", "time": 98, "note": 67, "velocity": 108, "channel": 0}, {"type": "note_on", "time": 60, "note": 58, "velocity": 101, "channel": 0}, {"type": "note_off", "time": 83, "note": 58, "velocity": 101, "channel": 0}, {"type": "note_on", "time": 8, "note": 60, "velocity": 102, "channel": 0}, {"type": "note_off", "time": 42, "note": 60, "velocity": 102, "channel": 0}, {"type": "note_on", "time": 8, "note": 62, "velocity": 110, "channel": 0}, {"type": "note_off", "time": 40, "note": 62, "velocity": 110, "channel": 0}, {"type": "note_on", "time": 14, "note": 63, "velocity": 114, "channel": 0}, {"type": "note_off", "time": 111, "note": 63, "velocity": 114, "channel": 0}, {"type": "note_on", "time": 74, "note": 63, "velocity": 116, "channel": 0}, {"type": "note_off", "time": 65, "note": 63, "velocity": 116, "channel": 0}, {"type": "note_on", "time": 51, "note": 63, "velocity": 115, "channel": 0}, {"type": "note_off", "time": 104, "note": 63, "velocity": 115, "channel": 0}, {"type": "note_on", "time": 37, "note": 63, "velocity": 111, "channel": 0}, {"type": "note_off", "time": 104, "note": 63, "velocity": 111, "channel": 0}, {"type": "note_on", "time": 30, "note": 63, "velocity": 116, "channel": 0}, {"type": "note_off", "time": 111, "note": 63, "velocity": 116, "channel": 0}, {"type": "note_on", "time": 33, "note": 63, "velocity": 117, "channel": 0}, {"type": "note_off", "time": 163, "note": 63, "velocity": 117, "channel": 0}, {"type": "note_on", "time": 12, "note": 65, "velocity": 104, "channel": 0}, {"type": "note_off", "time": 103, "note": 65, "velocity": 104, "channel": 0}, {"type": "note_on", "time": 10, "note": 67, "velocity": 107, "channel": 0}, {"type": "note_off", "time": 110, "note": 67, "velocity": 107, "channel": 0}, {"type": "note_on", "time": 5, "note": 65, "velocity": 107, "channel": 0}, {"type": "note_off", "time": 158, "note": 65, "velocity": 107, "channel": 0}, {"type": "note_on", "time": 3, "note": 63, "velocity": 116, "channel": 0}, {"type": "note_off", "time": 133, "note": 63, "velocity": 116, "channel": 0}, {"type": "note_on", "time": 92, "note": 74, "velocity": 107, "channel": 0}, {"type": "note_off", "time": 142, "note": 74, "velocity": 107, "channel": 0}, {"type": "note_on", "time": 5, "note": 75, "velocity": 90, "channel": 0}, {"type": "note_off", "time": 487, "note": 75, "velocity": 90, "channel": 0}, {"type": "note_on", "time": 316, "note": 63, "velocity": 117, "channel": 0}, {"type": "note_off", "time": 72, "note": 63, "velocity": 117, "channel": 0}, {"type": "note_on", "time": 5, "note": 65, "velocity": 103, "channel": 0}, {"type": "note_off", "time": 37, "note": 65, "velocity": 103, "channel": 0}, {"type": "note_on", "time": 1, "note": 67, "velocity": 104, "channel": 0}, {"type": "note_off", "time": 101, "note": 67, "velocity": 104, "channel": 0}, {"type": "note_on", "time": 12, "note": 63, "velocity": 115, "channel": 0}, {"type": "note_off", "time": 92, "note": 63, "velocity": 115, "channel": 0}, {"type": "note_on", "time": 1, "note": 65, "velocity": 105, "channel": 0}, {"type": "note_off", "time": 33, "note": 65, "velocity": 105, "channel": 0}, {"type": "note_on", "time": 15, "note": 66, "velocity": 101, "channel": 0}, {"type": "note_off", "time": 287, "note": 66, "velocity": 101, "channel": 0}, {"type": "note_on", "time": 1, "note": 68, "velocity": 104, "channel": 0}, {"type": "note_off", "time": 63, "note": 68, "velocity": 104, "channel": 0}, {"type": "note_on", "time": 7, "note": 69, "velocity": 95, "channel": 0}, {"type": "note_off", "time": 19, "note": 69, "velocity": 95, "channel": 0}, {"type": "note_on", "time": 10, "note": 71, "velocity": 110, "channel": 0}, {"type": "note_off", "time": 74, "note": 71, "velocity": 110, "channel": 0}, {"type": "note_on", "time": 10, "note": 66, "velocity": 100, "channel": 0}, {"type": "note_off", "time": 56, "note": 66, "velocity": 100, "channel": 0}, {"type": "note_on", "time": 5, "note": 61, "velocity": 101, "channel": 0}, {"type": "note_off", "time": 72, "note": 61, "velocity": 101, "channel": 0}, {"type": "note_on", "time": 5, "note": 64, "velocity": 104, "channel": 0}, {"type": "note_off", "time": 74, "note": 64, "velocity": 104, "channel": 0}, {"type": "note_on", "time": 12, "note": 59, "velocity": 103, "channel": 0}, {"type": "note_off", "time": 65, "note": 59, "velocity": 103, "channel": 0}, {"type": "note_on", "time": 12, "note": 54, "velocity": 102, "channel": 0}, {"type": "note_off", "time": 47, "note": 54, "velocity": 102, "channel": 0}, {"type": "note_on", "time": 3, "note": 52, "velocity": 101, "channel": 0}, {"type": "note_off", "time": 53, "note": 52, "velocity": 101, "channel": 0}, {"type": "note_on", "time": 14, "note": 56, "velocity": 102, "channel": 0}, {"type": "note_off", "time": 56, "note": 56, "velocity": 102, "channel": 0}, {"type": "note_on", "time": 7, "note": 58, "velocity": 102, "channel": 0}, {"type": "note_off", "time": 46, "note": 58, "velocity": 102, "channel": 0}, {"type": "note_on", "time": 657, "note": 66, "velocity": 118, "channel": 0}, {"type": "note_off", "time": 104, "note": 66, "velocity": 118, "channel": 0}, {"type": "note_on", "time": 9, "note": 68, "velocity": 113, "channel": 0}, {"type": "note_off", "time": 174, "note": 68, "velocity": 113, "channel": 0}, {"type": "note_on", "time": 15, "note": 67, "velocity": 108, "channel": 0}, {"type": "note_off", "time": 152, "note": 67, "velocity": 108, "channel": 0}, {"type": "note_on", "time": 12, "note": 63, "velocity": 116, "channel": 0}, {"type": "note_off", "time": 141, "note": 63, "velocity": 116, "channel": 0}, {"type": "note_on", "time": 15, "note": 65, "velocity": 106, "channel": 0}, {"type": "note_off", "time": 115, "note": 65, "velocity": 106, "channel": 0}, {"type": "note_on", "time": 7, "note": 67, "velocity": 107, "channel": 0}, {"type": "note_off", "time": 165, "note": 67, "velocity": 107, "channel": 0}, {"type": "note_on", "time": 22, "note": 66, "velocity": 104, "channel": 0}, {"type": "note_off", "time": 186, "note": 66, "velocity": 104, "channel": 0}, {"type": "note_on", "time": 13, "note": 64, "velocity": 108, "channel": 0}, {"type": "note_off", "time": 49, "note": 64, "velocity": 108, "channel": 0}, {"type": "note_on", "time": 5, "note": 62, "velocity": 111, "channel": 0}, {"type": "note_off", "time": 55, "note": 62, "velocity": 111, "channel": 0}, {"type": "note_on", "time": 14, "note": 61, "velocity": 102, "channel": 0}, {"type": "note_off", "time": 53, "note": 61, "velocity": 102, "channel": 0}, {"type": "note_on", "time": 23, "note": 59, "velocity": 101, "channel": 0}, {"type": "note_off", "time": 175, "note": 59, "velocity": 101, "channel": 0}, {"type": "note_on", "time": 19, "note": 64, "velocity": 108, "channel": 0}, {"type": "note_off", "time": 122, "note": 64, "velocity": 108, "channel": 0}, {"type": "note_on", "time": 8, "note": 61, "velocity": 106, "channel": 0}, {"type": "note_off", "time": 95, "note": 61, "velocity": 106, "channel": 0}, {"type": "note_on", "time": 12, "note": 57, "velocity": 101, "channel": 0}, {"type": "note_off", "time": 51, "note": 57, "velocity": 101, "channel": 0}, {"type": "note_on", "time": 17, "note": 54, "velocity": 100, "channel": 0}, {"type": "note_off", "time": 48, "note": 54, "velocity": 100, "channel": 0}, {"type": "note_on", "time": 10, "note": 52, "velocity": 101, "channel": 0}, {"type": "note_off", "time": 63, "note": 52, "velocity": 101, "channel": 0}, {"type": "note_on", "time": 17, "note": 59, "velocity": 101, "channel": 0}, {"type": "note_off", "time": 72, "note": 59, "velocity": 101, "channel": 0}, {"type": "note_on", "time": 7, "note": 54, "velocity": 102, "channel": 0}, {"type": "note_off", "time": 51, "note": 54, "velocity": 102, "channel": 0}, {"type": "note_on", "time": 19, "note": 49, "velocity": 105, "channel": 0}, {"type": "note_off", "time": 65, "note": 49, "velocity": 105, "channel": 0}, {"type": "note_on", "time": 8, "note": 52, "velocity": 106, "channel": 0}, {"type": "note_off", "time": 72, "note": 52, "velocity": 106, "channel": 0}, {"type": "note_on", "time": 3, "note": 50, "velocity": 104, "channel": 0}, {"type": "note_off", "time": 72, "note": 50, "velocity": 104, "channel": 0}, {"type": "note_on", "time": 42, "note": 47, "velocity": 113, "channel": 0}, {"type": "note_off", "time": 99, "note": 47, "velocity": 113, "channel": 0}, {"type": "note_on", "time": 5, "note": 59, "velocity": 110, "channel": 0}, {"type": "note_off", "time": 60, "note": 59, "velocity": 110, "channel": 0}, {"type": "note_on", "time": 28, "note": 52, "velocity": 108, "channel": 0}, {"type": "note_off", "time": 56, "note": 52, "velocity": 108, "channel": 0}, {"type": "note_on", "time": 20, "note": 55, "velocity": 102, "channel": 0}, {"type": "note_off", "time": 42, "note": 55, "velocity": 102, "channel": 0}, {"type": "note_on", "time": 12, "note": 57, "velocity": 107, "channel": 0}, {"type": "note_off", "time": 50, "note": 57, "velocity": 107, "channel": 0}, {"type": "note_on", "time": 13, "note": 58, "velocity": 105, "channel": 0}, {"type": "note_off", "time": 55, "note": 58, "velocity": 105, "channel": 0}, {"type": "note_on", "time": 4, "note": 61, "velocity": 102, "channel": 0}, {"type": "note_off", "time": 39, "note": 61, "velocity": 102, "channel": 0}, {"type": "note_on", "time": 25, "note": 64, "velocity": 107, "channel": 0}, {"type": "note_off", "time": 74, "note": 64, "velocity": 107, "channel": 0}, {"type": "note_on", "time": 7, "note": 69, "velocity": 98, "channel": 0}, {"type": "note_off", "time": 28, "note": 69, "velocity": 98, "channel": 0}, {"type": "note_on", "time": 3, "note": 70, "velocity": 104, "channel": 0}, {"type": "note_off", "time": 27, "note": 70, "velocity": 104, "channel": 0}, {"type": "note_on", "time": 9, "note": 71, "velocity": 107, "channel": 0}, {"type": "note_off", "time": 38, "note": 71, "velocity": 107, "channel": 0}, {"type": "note_on", "time": 12, "note": 73, "velocity": 111, "channel": 0}, {"type": "note_off", "time": 79, "note": 73, "velocity": 111, "channel": 0}, {"type": "note_on", "time": 12, "note": 67, "velocity": 95, "channel": 0}, {"type": "note_off", "time": 34, "note": 67, "velocity": 95, "channel": 0}, {"type": "note_on", "time": 39, "note": 64, "velocity": 110, "channel": 0}, {"type": "note_off", "time": 76, "note": 64, "velocity": 110, "channel": 0}, {"type": "note_on", "time": 12, "note": 63, "velocity": 112, "channel": 0}, {"type": "note_off", "time": 64, "note": 63, "velocity": 112, "channel": 0}, {"type": "note_on", "time": 3, "note": 59, "velocity": 103, "channel": 0}, {"type": "note_off", "time": 64, "note": 59, "velocity": 103, "channel": 0}, {"type": "note_on", "time": 7, "note": 54, "velocity": 100, "channel": 0}, {"type": "note_off", "time": 33, "note": 54, "velocity": 100, "channel": 0}, {"type": "note_on", "time": 1, "note": 51, "velocity": 102, "channel": 0}, {"type": "note_off", "time": 75, "note": 51, "velocity": 102, "channel": 0}, {"type": "note_on", "time": 6, "note": 56, "velocity": 112, "channel": 0}, {"type": "note_off", "time": 27, "note": 56, "velocity": 112, "channel": 0}, {"type": "note_on", "time": 11, "note": 57, "velocity": 111, "channel": 0}, {"type": "note_off", "time": 22, "note": 57, "velocity": 111, "channel": 0}, {"type": "note_on", "time": 16, "note": 58, "velocity": 106, "channel": 0}, {"type": "note_off", "time": 71, "note": 58, "velocity": 106, "channel": 0}, {"type": "note_on", "time": 16, "note": 63, "velocity": 112, "channel": 0}, {"type": "note_off", "time": 50, "note": 63, "velocity": 112, "channel": 0}, {"type": "note_on", "time": 13, "note": 60, "velocity": 99, "channel": 0}, {"type": "note_off", "time": 41, "note": 60, "velocity": 99, "channel": 0}, {"type": "note_on", "time": 11, "note": 58, "velocity": 105, "channel": 0}, {"type": "note_off", "time": 58, "note": 58, "velocity": 105, "channel": 0}, {"type": "note_on", "time": 9, "note": 55, "velocity": 103, "channel": 0}, {"type": "note_off", "time": 78, "note": 55, "velocity": 103, "channel": 0}, {"type": "note_on", "time": 21, "note": 51, "velocity": 103, "channel": 0}, {"type": "note_off", "time": 55, "note": 51, "velocity": 103, "channel": 0}, {"type": "note_on", "time": 12, "note": 53, "velocity": 104, "channel": 0}, {"type": "note_off", "time": 65, "note": 53, "velocity": 104, "channel": 0}, {"type": "note_on", "time": 6, "note": 52, "velocity": 100, "channel": 0}, {"type": "note_off", "time": 46, "note": 52, "velocity": 100, "channel": 0}, {"type": "note_on", "time": 1, "note": 51, "velocity": 100, "channel": 0}, {"type": "note_off", "time": 62, "note": 51, "velocity": 100, "channel": 0}, {"type": "note_on", "time": 24, "note": 46, "velocity": 111, "channel": 0}, {"type": "note_off", "time": 206, "note": 46, "velocity": 111, "channel": 0}, {"type": "note_on", "time": 2504, "note": 63, "velocity": 127, "channel": 0}, {"type": "note_off", "time": 103, "note": 63, "velocity": 127, "channel": 0}, {"type": "note_on", "time": 10, "note": 65, "velocity": 112, "channel": 0}, {"type": "note_off", "time": 40, "note": 65, "velocity": 112, "channel": 0}, {"type": "note_on", "time": 15, "note": 67, "velocity": 113, "channel": 0}, {"type": "note_off", "time": 113, "note": 67, "velocity": 113, "channel": 0}, {"type": "note_on", "time": 5, "note": 65, "velocity": 101, "channel": 0}, {"type": "note_off", "time": 351, "note": 65, "velocity": 101, "channel": 0}, {"type": "note_on", "time": 862, "note": 62, "velocity": 115, "channel": 0}, {"type": "note_off", "time": 81, "note": 62, "velocity": 115, "channel": 0}, {"type": "note_on", "time": 7, "note": 63, "velocity": 112, "channel": 0}, {"type": "note_off", "time": 20, "note": 63, "velocity": 112, "channel": 0}, {"type": "note_on", "time": 12, "note": 65, "velocity": 108, "channel": 0}, {"type": "note_off", "time": 30, "note": 65, "velocity": 108, "channel": 0}, {"type": "note_on", "time": 21, "note": 67, "velocity": 113, "channel": 0}, {"type": "note_off", "time": 101, "note": 67, "velocity": 113, "channel": 0}, {"type": "note_on", "time": 18, "note": 65, "velocity": 97, "channel": 0}, {"type": "note_off", "time": 305, "note": 65, "velocity": 97, "channel": 0}, {"type": "note_on", "time": 546, "note": 61, "velocity": 111, "channel": 0}, {"type": "note_off", "time": 69, "note": 61, "velocity": 111, "channel": 0}, {"type": "note_on", "time": 12, "note": 63, "velocity": 111, "channel": 0}, {"type": "note_off", "time": 58, "note": 63, "velocity": 111, "channel": 0}, {"type": "note_on", "time": 5, "note": 65, "velocity": 110, "channel": 0}, {"type": "note_off", "time": 147, "note": 65, "velocity": 110, "channel": 0}, {"type": "note_on", "time": 7, "note": 63, "velocity": 99, "channel": 0}, {"type": "note_off", "time": 380, "note": 63, "velocity": 99, "channel": 0}, {"type": "note_on", "time": 470, "note": 66, "velocity": 110, "channel": 0}, {"type": "note_off", "time": 74, "note": 66, "velocity": 110, "channel": 0}, {"type": "note_on", "time": 3, "note": 68, "velocity": 113, "channel": 0}, {"type": "note_off", "time": 72, "note": 68, "velocity": 113, "channel": 0}, {"type": "note_on", "time": 11, "note": 70, "velocity": 110, "channel": 0}, {"type": "note_off", "time": 89, "note": 70, "velocity": 110, "channel": 0}, {"type": "note_on", "time": 88, "note": 63, "velocity": 114, "channel": 0}, {"type": "note_off", "time": 113, "note": 63, "velocity": 114, "channel": 0}, {"type": "note_on", "time": 14, "note": 66, "velocity": 108, "channel": 0}, {"type": "note_off", "time": 90, "note": 66, "velocity": 108, "channel": 0}, {"type": "note_on", "time": 2, "note": 68, "velocity": 104, "channel": 0}, {"type": "note_off", "time": 68, "note": 68, "velocity": 104, "channel": 0}, {"type": "note_on", "time": 323, "note": 59, "velocity": 101, "channel": 0}, {"type": "note_off", "time": 72, "note": 59, "velocity": 101, "channel": 0}, {"type": "note_on", "time": 10, "note": 61, "velocity": 101, "channel": 0}, {"type": "note_off", "time": 55, "note": 61, "velocity": 101, "channel": 0}, {"type": "note_on", "time": 12, "note": 63, "velocity": 114, "channel": 0}, {"type": "note_off", "time": 74, "note": 63, "velocity": 114, "channel": 0}, {"type": "note_on", "time": 319, "note": 67, "velocity": 112, "channel": 0}, {"type": "note_off", "time": 106, "note": 67, "velocity": 112, "channel": 0}, {"type": "note_on", "time": 7, "note": 70, "velocity": 110, "channel": 0}, {"type": "note_off", "time": 67, "note": 70, "velocity": 110, "channel": 0}, {"type": "note_on", "time": 306, "note": 57, "velocity": 105, "channel": 0}, {"type": "note_off", "time": 70, "note": 57, "velocity": 105, "channel": 0}, {"type": "note_on", "time": 13, "note": 63, "velocity": 116, "channel": 0}, {"type": "note_off", "time": 81, "note": 63, "velocity": 116, "channel": 0}, {"type": "note_on", "time": 3, "note": 65, "velocity": 108, "channel": 0}, {"type": "note_off", "time": 58, "note": 65, "velocity": 108, "channel": 0}, {"type": "note_on", "time": 618, "note": 67, "velocity": 102, "channel": 0}, {"type": "note_off", "time": 85, "note": 67, "velocity": 102, "channel": 0}, {"type": "note_on", "time": 17, "note": 70, "velocity": 112, "channel": 0}, {"type": "note_off", "time": 63, "note": 70, "velocity": 112, "channel": 0}, {"type": "note_on", "time": 145, "note": 74, "velocity": 114, "channel": 0}, {"type": "note_off", "time": 213, "note": 74, "velocity": 114, "channel": 0}, {"type": "note_on", "time": 6, "note": 73, "velocity": 115, "channel": 0}, {"type": "note_off", "time": 255, "note": 73, "velocity": 115, "channel": 0}, {"type": "note_on", "time": 13, "note": 72, "velocity": 115, "channel": 0}, {"type": "note_off", "time": 193, "note": 72, "velocity": 115, "channel": 0}, {"type": "note_on", "time": 5, "note": 71, "velocity": 112, "channel": 0}, {"type": "note_off", "time": 291, "note": 71, "velocity": 112, "channel": 0}, {"type": "note_on", "time": 14, "note": 68, "velocity": 112, "channel": 0}, {"type": "note_off", "time": 207, "note": 68, "velocity": 112, "channel": 0}, {"type": "note_on", "time": 14, "note": 66, "velocity": 113, "channel": 0}, {"type": "note_off", "time": 184, "note": 66, "velocity": 113, "channel": 0}, {"type": "note_on", "time": 5, "note": 64, "velocity": 114, "channel": 0}, {"type": "note_off", "time": 268, "note": 64, "velocity": 114, "channel": 0}, {"type": "note_on", "time": 8, "note": 62, "velocity": 114, "channel": 0}, {"type": "note_off", "time": 193, "note": 62, "velocity": 114, "channel": 0}, {"type": "note_on", "time": 19, "note": 61, "velocity": 113, "channel": 0}, {"type": "note_off", "time": 202, "note": 61, "velocity": 113, "channel": 0}, {"type": "note_on", "time": 8, "note": 59, "velocity": 100, "channel": 0}, {"type": "note_off", "time": 277, "note": 59, "velocity": 100, "channel": 0}, {"type": "note_on", "time": 14, "note": 56, "velocity": 107, "channel": 0}, {"type": "note_off", "time": 200, "note": 56, "velocity": 107, "channel": 0}, {"type": "note_on", "time": 15, "note": 54, "velocity": 99, "channel": 0}, {"type": "note_off", "time": 285, "note": 54, "velocity": 99, "channel": 0}, {"type": "note_on", "time": 76, "note": 49, "velocity": 99, "channel": 0}, {"type": "note_off", "time": 401, "note": 49, "velocity": 99, "channel": 0}, {"type": "note_on", "time": 1064, "note": 48, "velocity": 113, "channel": 0}, {"type": "note_off", "time": 90, "note": 48, "velocity": 113, "channel": 0}, {"type": "note_on", "time": 12, "note": 54, "velocity": 116, "channel": 0}, {"type": "note_off", "time": 83, "note": 54, "velocity": 116, "channel": 0}, {"type": "note_on", "time": 12, "note": 58, "velocity": 109, "channel": 0}, {"type": "note_off", "time": 47, "note": 58, "velocity": 109, "channel": 0}, {"type": "note_on", "time": 3, "note": 61, "velocity": 111, "channel": 0}, {"type": "note_off", "time": 74, "note": 61, "velocity": 111, "channel": 0}, {"type": "note_on", "time": 17, "note": 66, "velocity": 107, "channel": 0}, {"type": "note_off", "time": 58, "note": 66, "velocity": 107, "channel": 0}, {"type": "note_on", "time": 10, "note": 70, "velocity": 115, "channel": 0}, {"type": "note_off", "time": 99, "note": 70, "velocity": 115, "channel": 0}, {"type": "note_on", "time": 8, "note": 66, "velocity": 102, "channel": 0}, {"type": "note_off", "time": 71, "note": 66, "velocity": 102, "channel": 0}, {"type": "note_on", "time": 3, "note": 61, "velocity": 113, "channel": 0}, {"type": "note_off", "time": 113, "note": 61, "velocity": 113, "channel": 0}, {"type": "note_on", "time": 15, "note": 58, "velocity": 105, "channel": 0}, {"type": "note_off", "time": 67, "note": 58, "velocity": 105, "channel": 0}, {"type": "note_on", "time": 8, "note": 51, "velocity": 99, "channel": 0}, {"type": "note_off", "time": 399, "note": 51, "velocity": 99, "channel": 0}, {"type": "note_on", "time": 323, "note": 65, "velocity": 102, "channel": 0}, {"type": "note_off", "time": 94, "note": 65, "velocity": 102, "channel": 0}, {"type": "note_on", "time": 12, "note": 70, "velocity": 112, "channel": 0}, {"type": "note_off", "time": 74, "note": 70, "velocity": 112, "channel": 0}, {"type": "note_on", "time": 8, "note": 72, "velocity": 101, "channel": 0}, {"type": "note_off", "time": 72, "note": 72, "velocity": 101, "channel": 0}, {"type": "note_on", "time": 12, "note": 63, "velocity": 112, "channel": 0}, {"type": "note_off", "time": 63, "note": 63, "velocity": 112, "channel": 0}, {"type": "note_on", "time": 14, "note": 65, "velocity": 102, "channel": 0}, {"type": "note_off", "time": 56, "note": 65, "velocity": 102, "channel": 0}, {"type": "note_on", "time": 7, "note": 60, "velocity": 95, "channel": 0}, {"type": "note_off", "time": 87, "note": 60, "velocity": 95, "channel": 0}, {"type": "note_on", "time": 5, "note": 63, "velocity": 110, "channel": 0}, {"type": "note_off", "time": 76, "note": 63, "velocity": 110, "channel": 0}, {"type": "note_on", "time": 15, "note": 58, "velocity": 103, "channel": 0}, {"type": "note_off", "time": 110, "note": 58, "velocity": 103, "channel": 0}, {"type": "note_on", "time": 8, "note": 53, "velocity": 100, "channel": 0}, {"type": "note_off", "time": 60, "note": 53, "velocity": 100, "channel": 0}, {"type": "note_on", "time": 12, "note": 48, "velocity": 94, "channel": 0}, {"type": "note_off", "time": 293, "note": 48, "velocity": 94, "channel": 0}, {"type": "note_on", "time": 559, "note": 60, "velocity": 113, "channel": 0}, {"type": "note_off", "time": 78, "note": 60, "velocity": 113, "channel": 0}, {"type": "note_on", "time": 14, "note": 65, "velocity": 105, "channel": 0}, {"type": "note_off", "time": 63, "note": 65, "velocity": 105, "channel": 0}, {"type": "note_on", "time": 0, "note": 70, "velocity": 105, "channel": 0}, {"type": "note_off", "time": 90, "note": 70, "velocity": 105, "channel": 0}, {"type": "note_on", "time": 1, "note": 72, "velocity": 108, "channel": 0}, {"type": "note_off", "time": 69, "note": 72, "velocity": 108, "channel": 0}, {"type": "note_on", "time": 10, "note": 60, "velocity": 106, "channel": 0}, {"type": "note_off", "time": 83, "note": 60, "velocity": 106, "channel": 0}, {"type": "note_on", "time": 1, "note": 58, "velocity": 107, "channel": 0}, {"type": "note_off", "time": 87, "note": 58, "velocity": 107, "channel": 0}, {"type": "note_on", "time": 10, "note": 53, "velocity": 106, "channel": 0}, {"type": "note_off", "time": 71, "note": 53, "velocity": 106, "channel": 0}, {"type": "note_on", "time": 12, "note": 48, "velocity": 101, "channel": 0}, {"type": "note_off", "time": 81, "note": 48, "velocity": 101, "channel": 0}, {"type": "note_on", "time": 0, "note": 53, "velocity": 104, "channel": 0}, {"type": "note_off", "time": 85, "note": 53, "velocity": 104, "channel": 0}, {"type": "note_on", "time": 11, "note": 46, "velocity": 105, "channel": 0}, {"type": "note_off", "time": 171, "note": 46, "velocity": 105, "channel": 0}, {"type": "note_on", "time": 14, "note": 47, "velocity": 109, "channel": 0}, {"type": "note_off", "time": 182, "note": 47, "velocity": 109, "channel": 0}, {"type": "note_on", "time": 37, "note": 47, "velocity": 107, "channel": 0}, {"type": "note_off", "time": 74, "note": 47, "velocity": 107, "channel": 0}, {"type": "note_on", "time": 9, "note": 59, "velocity": 109, "channel": 0}, {"type": "note_off", "time": 84, "note": 59, "velocity": 109, "channel": 0}, {"type": "note_on", "time": 16, "note": 52, "velocity": 111, "channel": 0}, {"type": "note_off", "time": 141, "note": 52, "velocity": 111, "channel": 0}, {"type": "note_on", "time": 254, "note": 64, "velocity": 113, "channel": 0}, {"type": "note_off", "time": 104, "note": 64, "velocity": 113, "channel": 0}, {"type": "note_on", "time": 7, "note": 66, "velocity": 98, "channel": 0}, {"type": "note_off", "time": 28, "note": 66, "velocity": 98, "channel": 0}, {"type": "note_on", "time": 7, "note": 69, "velocity": 109, "channel": 0}, {"type": "note_off", "time": 127, "note": 69, "velocity": 109, "channel": 0}, {"type": "note_on", "time": 10, "note": 71, "velocity": 112, "channel": 0}, {"type": "note_off", "time": 62, "note": 71, "velocity": 112, "channel": 0}, {"type": "note_on", "time": 10, "note": 73, "velocity": 109, "channel": 0}, {"type": "note_off", "time": 87, "note": 73, "velocity": 109, "channel": 0}, {"type": "note_on", "time": 37, "note": 61, "velocity": 108, "channel": 0}, {"type": "note_off", "time": 55, "note": 61, "velocity": 108, "channel": 0}, {"type": "note_on", "time": 1, "note": 59, "velocity": 105, "channel": 0}, {"type": "note_off", "time": 124, "note": 59, "velocity": 105, "channel": 0}, {"type": "note_on", "time": 55, "note": 64, "velocity": 111, "channel": 0}, {"type": "note_off", "time": 122, "note": 64, "velocity": 111, "channel": 0}, {"type": "note_on", "time": 3, "note": 59, "velocity": 106, "channel": 0}, {"type": "note_off", "time": 78, "note": 59, "velocity": 106, "channel": 0}, {"type": "note_on", "time": 5, "note": 54, "velocity": 103, "channel": 0}, {"type": "note_off", "time": 101, "note": 54, "velocity": 103, "channel": 0}, {"type": "note_on", "time": 13, "note": 53, "velocity": 100, "channel": 0}, {"type": "note_off", "time": 44, "note": 53, "velocity": 100, "channel": 0}, {"type": "note_on", "time": 20, "note": 56, "velocity": 105, "channel": 0}, {"type": "note_off", "time": 104, "note": 56, "velocity": 105, "channel": 0}, {"type": "note_on", "time": 95, "note": 68, "velocity": 110, "channel": 0}, {"type": "note_off", "time": 92, "note": 68, "velocity": 110, "channel": 0}, {"type": "note_on", "time": 101, "note": 67, "velocity": 105, "channel": 0}, {"type": "note_off", "time": 149, "note": 67, "velocity": 105, "channel": 0}, {"type": "note_on", "time": 222, "note": 65, "velocity": 107, "channel": 0}, {"type": "note_off", "time": 90, "note": 65, "velocity": 107, "channel": 0}, {"type": "note_on", "time": 6, "note": 63, "velocity": 112, "channel": 0}, {"type": "note_off", "time": 188, "note": 63, "velocity": 112, "channel": 0}, {"type": "note_on", "time": 4, "note": 65, "velocity": 99, "channel": 0}, {"type": "note_off", "time": 97, "note": 65, "velocity": 99, "channel": 0}, {"type": "note_on", "time": 12, "note": 67, "velocity": 102, "channel": 0}, {"type": "note_off", "time": 140, "note": 67, "velocity": 102, "channel": 0}, {"type": "note_on", "time": 1727, "note": 68, "velocity": 121, "channel": 0}, {"type": "note_off", "time": 80, "note": 68, "velocity": 121, "channel": 0}, {"type": "note_on", "time": 17, "note": 68, "velocity": 119, "channel": 0}, {"type": "note_off", "time": 85, "note": 68, "velocity": 119, "channel": 0}, {"type": "note_on", "time": 15, "note": 67, "velocity": 111, "channel": 0}, {"type": "note_off", "time": 63, "note": 67, "velocity": 111, "channel": 0}, {"type": "note_on", "time": 28, "note": 67, "velocity": 107, "channel": 0}, {"type": "note_off", "time": 69, "note": 67, "velocity": 107, "channel": 0}, {"type": "note_on", "time": 17, "note": 65, "velocity": 112, "channel": 0}, {"type": "note_off", "time": 74, "note": 65, "velocity": 112, "channel": 0}, {"type": "note_on", "time": 10, "note": 65, "velocity": 110, "channel": 0}, {"type": "note_off", "time": 74, "note": 65, "velocity": 110, "channel": 0}, {"type": "note_on", "time": 21, "note": 63, "velocity": 124, "channel": 0}, {"type": "note_off", "time": 94, "note": 63, "velocity": 124, "channel": 0}, {"type": "note_on", "time": 27, "note": 63, "velocity": 121, "channel": 0}, {"type": "note_off", "time": 69, "note": 63, "velocity": 121, "channel": 0}, {"type": "note_on", "time": 26, "note": 62, "velocity": 115, "channel": 0}, {"type": "note_off", "time": 79, "note": 62, "velocity": 115, "channel": 0}, {"type": "note_on", "time": 16, "note": 62, "velocity": 113, "channel": 0}, {"type": "note_off", "time": 63, "note": 62, "velocity": 113, "channel": 0}, {"type": "note_on", "time": 7, "note": 61, "velocity": 106, "channel": 0}, {"type": "note_off", "time": 98, "note": 61, "velocity": 106, "channel": 0}, {"type": "note_on", "time": 18, "note": 61, "velocity": 107, "channel": 0}, {"type": "note_off", "time": 86, "note": 61, "velocity": 107, "channel": 0}, {"type": "note_on", "time": 0, "note": 59, "velocity": 102, "channel": 0}, {"type": "note_off", "time": 76, "note": 59, "velocity": 102, "channel": 0}, {"type": "note_on", "time": 11, "note": 59, "velocity": 103, "channel": 0}, {"type": "note_off", "time": 59, "note": 59, "velocity": 103, "channel": 0}, {"type": "note_on", "time": 14, "note": 58, "velocity": 106, "channel": 0}, {"type": "note_off", "time": 88, "note": 58, "velocity": 106, "channel": 0}, {"type": "note_on", "time": 15, "note": 58, "velocity": 103, "channel": 0}, {"type": "note_off", "time": 77, "note": 58, "velocity": 103, "channel": 0}, {"type": "note_on", "time": 27, "note": 56, "velocity": 107, "channel": 0}, {"type": "note_off", "time": 53, "note": 56, "velocity": 107, "channel": 0}, {"type": "note_on", "time": 7, "note": 57, "velocity": 109, "channel": 0}, {"type": "note_off", "time": 92, "note": 57, "velocity": 109, "channel": 0}, {"type": "note_on", "time": 15, "note": 58, "velocity": 106, "channel": 0}, {"type": "note_off", "time": 140, "note": 58, "velocity": 106, "channel": 0}, {"type": "note_on", "time": 6, "note": 60, "velocity": 98, "channel": 0}, {"type": "note_off", "time": 73, "note": 60, "velocity": 98, "channel": 0}, {"type": "note_on", "time": 1081, "note": 63, "velocity": 123, "channel": 0}, {"type": "note_off", "time": 116, "note": 63, "velocity": 123, "channel": 0}, {"type": "note_on", "time": 42, "note": 67, "velocity": 112, "channel": 0}, {"type": "note_off", "time": 108, "note": 67, "velocity": 112, "channel": 0}, {"type": "note_on", "time": 13, "note": 70, "velocity": 103, "channel": 0}, {"type": "note_off", "time": 53, "note": 70, "velocity": 103, "channel": 0}, {"type": "note_on", "time": 37, "note": 54, "velocity": 106, "channel": 0}, {"type": "note_off", "time": 164, "note": 54, "velocity": 106, "channel": 0}, {"type": "note_on", "time": 17, "note": 57, "velocity": 102, "channel": 0}, {"type": "note_off", "time": 46, "note": 57, "velocity": 102, "channel": 0}, {"type": "note_on", "time": 13, "note": 61, "velocity": 109, "channel": 0}, {"type": "note_off", "time": 84, "note": 61, "velocity": 109, "channel": 0}, {"type": "note_on", "time": 16, "note": 64, "velocity": 104, "channel": 0}, {"type": "note_off", "time": 53, "note": 64, "velocity": 104, "channel": 0}, {"type": "note_on", "time": 1, "note": 60, "velocity": 104, "channel": 0}, {"type": "note_off", "time": 103, "note": 60, "velocity": 104, "channel": 0}, {"type": "note_on", "time": 5, "note": 62, "velocity": 103, "channel": 0}, {"type": "note_off", "time": 65, "note": 62, "velocity": 103, "channel": 0}, {"type": "note_on", "time": 7, "note": 64, "velocity": 110, "channel": 0}, {"type": "note_off", "time": 88, "note": 64, "velocity": 110, "channel": 0}, {"type": "note_on", "time": 12, "note": 67, "velocity": 109, "channel": 0}, {"type": "note_off", "time": 71, "note": 67, "velocity": 109, "channel": 0}, {"type": "note_on", "time": 2, "note": 65, "velocity": 100, "channel": 0}, {"type": "note_off", "time": 92, "note": 65, "velocity": 100, "channel": 0}, {"type": "note_on", "time": 12, "note": 67, "velocity": 108, "channel": 0}, {"type": "note_off", "time": 74, "note": 67, "velocity": 108, "channel": 0}, {"type": "note_on", "time": 3, "note": 69, "velocity": 109, "channel": 0}, {"type": "note_off", "time": 111, "note": 69, "velocity": 109, "channel": 0}, {"type": "note_on", "time": 65, "note": 70, "velocity": 109, "channel": 0}, {"type": "note_off", "time": 85, "note": 70, "velocity": 109, "channel": 0}, {"type": "note_on", "time": 5, "note": 66, "velocity": 107, "channel": 0}, {"type": "note_off", "time": 78, "note": 66, "velocity": 107, "channel": 0}, {"type": "note_on", "time": 0, "note": 61, "velocity": 106, "channel": 0}, {"type": "note_off", "time": 109, "note": 61, "velocity": 106, "channel": 0}, {"type": "note_on", "time": 96, "note": 64, "velocity": 114, "channel": 0}, {"type": "note_off", "time": 97, "note": 64, "velocity": 114, "channel": 0}, {"type": "note_on", "time": 21, "note": 59, "velocity": 110, "channel": 0}, {"type": "note_off", "time": 61, "note": 59, "velocity": 110, "channel": 0}, {"type": "note_on", "time": 18, "note": 54, "velocity": 107, "channel": 0}, {"type": "note_off", "time": 137, "note": 54, "velocity": 107, "channel": 0}, {"type": "note_on", "time": 70, "note": 57, "velocity": 115, "channel": 0}, {"type": "note_off", "time": 66, "note": 57, "velocity": 115, "channel": 0}, {"type": "note_on", "time": 24, "note": 62, "velocity": 113, "channel": 0}, {"type": "note_off", "time": 82, "note": 62, "velocity": 113, "channel": 0}, {"type": "note_on", "time": 29, "note": 59, "velocity": 113, "channel": 0}, {"type": "note_off", "time": 84, "note": 59, "velocity": 113, "channel": 0}, {"type": "note_on", "time": 26, "note": 55, "velocity": 99, "channel": 0}, {"type": "note_off", "time": 39, "note": 55, "velocity": 99, "channel": 0}, {"type": "note_on", "time": 12, "note": 57, "velocity": 110, "channel": 0}, {"type": "note_off", "time": 87, "note": 57, "velocity": 110, "channel": 0}, {"type": "note_on", "time": 10, "note": 54, "velocity": 110, "channel": 0}, {"type": "note_off", "time": 69, "note": 54, "velocity": 110, "channel": 0}, {"type": "note_on", "time": 24, "note": 49, "velocity": 112, "channel": 0}, {"type": "note_off", "time": 107, "note": 49, "velocity": 112, "channel": 0}, {"type": "note_on", "time": 24, "note": 54, "velocity": 112, "channel": 0}, {"type": "note_off", "time": 72, "note": 54, "velocity": 112, "channel": 0}, {"type": "note_on", "time": 18, "note": 52, "velocity": 111, "channel": 0}, {"type": "note_off", "time": 101, "note": 52, "velocity": 111, "channel": 0}, {"type": "note_on", "time": 6, "note": 54, "velocity": 113, "channel": 0}, {"type": "note_off", "time": 53, "note": 54, "velocity": 113, "channel": 0}, {"type": "note_on", "time": 2, "note": 56, "velocity": 110, "channel": 0}, {"type": "note_off", "time": 78, "note": 56, "velocity": 110, "channel": 0}, {"type": "note_on", "time": 16, "note": 58, "velocity": 107, "channel": 0}, {"type": "note_off", "time": 85, "note": 58, "velocity": 107, "channel": 0}, {"type": "note_on", "time": 5, "note": 64, "velocity": 112, "channel": 0}, {"type": "note_off", "time": 95, "note": 64, "velocity": 112, "channel": 0}, {"type": "note_on", "time": 6, "note": 66, "velocity": 101, "channel": 0}, {"type": "note_off", "time": 60, "note": 66, "velocity": 101, "channel": 0}, {"type": "note_on", "time": 6, "note": 68, "velocity": 109, "channel": 0}, {"type": "note_off", "time": 101, "note": 68, "velocity": 109, "channel": 0}, {"type": "note_on", "time": 17, "note": 72, "velocity": 100, "channel": 0}, {"type": "note_off", "time": 37, "note": 72, "velocity": 100, "channel": 0}, {"type": "note_on", "time": 40, "note": 75, "velocity": 117, "channel": 0}, {"type": "note_off", "time": 101, "note": 75, "velocity": 117, "channel": 0}, {"type": "note_on", "time": 21, "note": 72, "velocity": 101, "channel": 0}, {"type": "note_off", "time": 30, "note": 72, "velocity": 101, "channel": 0}, {"type": "note_on", "time": 15, "note": 75, "velocity": 118, "channel": 0}, {"type": "note_off", "time": 106, "note": 75, "velocity": 118, "channel": 0}, {"type": "note_on", "time": 15, "note": 71, "velocity": 109, "channel": 0}, {"type": "note_off", "time": 68, "note": 71, "velocity": 109, "channel": 0}, {"type": "note_on", "time": 7, "note": 70, "velocity": 114, "channel": 0}, {"type": "note_off", "time": 80, "note": 70, "velocity": 114, "channel": 0}, {"type": "note_on", "time": 30, "note": 66, "velocity": 106, "channel": 0}, {"type": "note_off", "time": 69, "note": 66, "velocity": 106, "channel": 0}, {"type": "note_on", "time": 18, "note": 65, "velocity": 104, "channel": 0}, {"type": "note_off", "time": 73, "note": 65, "velocity": 104, "channel": 0}, {"type": "note_on", "time": 15, "note": 64, "velocity": 113, "channel": 0}, {"type": "note_off", "time": 75, "note": 64, "velocity": 113, "channel": 0}, {"type": "note_on", "time": 6, "note": 63, "velocity": 119, "channel": 0}, {"type": "note_off", "time": 90, "note": 63, "velocity": 119, "channel": 0}, {"type": "note_on", "time": 13, "note": 67, "velocity": 109, "channel": 0}, {"type": "note_off", "time": 58, "note": 67, "velocity": 109, "channel": 0}, {"type": "note_on", "time": 20, "note": 62, "velocity": 108, "channel": 0}, {"type": "note_off", "time": 83, "note": 62, "velocity": 108, "channel": 0}, {"type": "note_on", "time": 26, "note": 70, "velocity": 106, "channel": 0}, {"type": "note_off", "time": 69, "note": 70, "velocity": 106, "channel": 0}, {"type": "note_on", "time": 16, "note": 68, "velocity": 112, "channel": 0}, {"type": "note_off", "time": 79, "note": 68, "velocity": 112, "channel": 0}, {"type": "note_on", "time": 19, "note": 66, "velocity": 108, "channel": 0}, {"type": "note_off", "time": 85, "note": 66, "velocity": 108, "channel": 0}, {"type": "note_on", "time": 1, "note": 63, "velocity": 107, "channel": 0}, {"type": "note_off", "time": 76, "note": 63, "velocity": 107, "channel": 0}, {"type": "note_on", "time": 114, "note": 64, "velocity": 116, "channel": 0}, {"type": "note_off", "time": 84, "note": 64, "velocity": 116, "channel": 0}, {"type": "note_on", "time": 16, "note": 61, "velocity": 112, "channel": 0}, {"type": "note_off", "time": 55, "note": 61, "velocity": 112, "channel": 0}, {"type": "note_on", "time": 11, "note": 57, "velocity": 104, "channel": 0}, {"type": "note_off", "time": 79, "note": 57, "velocity": 104, "channel": 0}, {"type": "note_on", "time": 16, "note": 52, "velocity": 106, "channel": 0}, {"type": "note_off", "time": 83, "note": 52, "velocity": 106, "channel": 0}, {"type": "note_on", "time": 21, "note": 59, "velocity": 108, "channel": 0}, {"type": "note_off", "time": 69, "note": 59, "velocity": 108, "channel": 0}, {"type": "note_on", "time": 22, "note": 54, "velocity": 107, "channel": 0}, {"type": "note_off", "time": 85, "note": 54, "velocity": 107, "channel": 0}, {"type": "note_on", "time": 17, "note": 48, "velocity": 104, "channel": 0}, {"type": "note_off", "time": 275, "note": 48, "velocity": 104, "channel": 0}, {"type": "note_on", "time": 1024, "note": 68, "velocity": 114, "channel": 0}, {"type": "note_off", "time": 159, "note": 68, "velocity": 114, "channel": 0}, {"type": "note_on", "time": 8, "note": 67, "velocity": 113, "channel": 0}, {"type": "note_off", "time": 92, "note": 67, "velocity": 113, "channel": 0}, {"type": "note_on", "time": 62, "note": 79, "velocity": 114, "channel": 0}, {"type": "note_off", "time": 65, "note": 79, "velocity": 114, "channel": 0}, {"type": "note_on", "time": 10, "note": 80, "velocity": 107, "channel": 0}, {"type": "note_off", "time": 295, "note": 80, "velocity": 107, "channel": 0}, {"type": "note_on", "time": 22, "note": 79, "velocity": 98, "channel": 0}, {"type": "note_off", "time": 375, "note": 79, "velocity": 98, "channel": 0}, {"type": "note_on", "time": 893, "note": 62, "velocity": 114, "channel": 0}, {"type": "note_off", "time": 60, "note": 62, "velocity": 114, "channel": 0}, {"type": "note_on", "time": 18, "note": 64, "velocity": 111, "channel": 0}, {"type": "note_off", "time": 60, "note": 64, "velocity": 111, "channel": 0}, {"type": "note_on", "time": 16, "note": 69, "velocity": 109, "channel": 0}, {"type": "note_off", "time": 48, "note": 69, "velocity": 109, "channel": 0}, {"type": "note_on", "time": 17, "note": 73, "velocity": 112, "channel": 0}, {"type": "note_off", "time": 117, "note": 73, "velocity": 112, "channel": 0}, {"type": "note_on", "time": 18, "note": 73, "velocity": 112, "channel": 0}, {"type": "note_off", "time": 144, "note": 73, "velocity": 112, "channel": 0}, {"type": "note_on", "time": 35, "note": 74, "velocity": 109, "channel": 0}, {"type": "note_off", "time": 47, "note": 74, "velocity": 109, "channel": 0}, {"type": "note_on", "time": 1, "note": 61, "velocity": 109, "channel": 0}, {"type": "note_off", "time": 186, "note": 61, "velocity": 109, "channel": 0}, {"type": "note_on", "time": 15, "note": 58, "velocity": 111, "channel": 0}, {"type": "note_off", "time": 24, "note": 58, "velocity": 111, "channel": 0}, {"type": "note_on", "time": 4, "note": 56, "velocity": 111, "channel": 0}, {"type": "note_off", "time": 24, "note": 56, "velocity": 111, "channel": 0}, {"type": "note_on", "time": 3, "note": 53, "velocity": 110, "channel": 0}, {"type": "note_off", "time": 35, "note": 53, "velocity": 110, "channel": 0}, {"type": "note_on", "time": 14, "note": 50, "velocity": 113, "channel": 0}, {"type": "note_off", "time": 50, "note": 50, "velocity": 113, "channel": 0}, {"type": "note_on", "time": 5, "note": 49, "velocity": 114, "channel": 0}, {"type": "note_off", "time": 223, "note": 49, "velocity": 114, "channel": 0}, {"type": "note_on", "time": 5, "note": 48, "velocity": 109, "channel": 0}, {"type": "note_off", "time": 56, "note": 48, "velocity": 109, "channel": 0}, {"type": "note_on", "time": 6, "note": 47, "velocity": 109, "channel": 0}, {"type": "note_off", "time": 55, "note": 47, "velocity": 109, "channel": 0}, {"type": "note_on", "time": 18, "note": 46, "velocity": 104, "channel": 0}, {"type": "note_off", "time": 348, "note": 46, "velocity": 104, "channel": 0}, {"type": "note_on", "time": 1119, "note": 62, "velocity": 119, "channel": 0}, {"type": "note_off", "time": 62, "note": 62, "velocity": 119, "channel": 0}, {"type": "note_on", "time": 8, "note": 63, "velocity": 123, "channel": 0}, {"type": "note_off", "time": 534, "note": 63, "velocity": 123, "channel": 0}, {"type": "note_on", "time": 15, "note": 62, "velocity": 124, "channel": 0}, {"type": "note_off", "time": 143, "note": 62, "velocity": 124, "channel": 0}, {"type": "note_on", "time": 23, "note": 61, "velocity": 105, "channel": 0}, {"type": "note_off", "time": 172, "note": 61, "velocity": 105, "channel": 0}, {"type": "note_on", "time": 21, "note": 59, "velocity": 102, "channel": 0}, {"type": "note_off", "time": 161, "note": 59, "velocity": 102, "channel": 0}, {"type": "note_on", "time": 19, "note": 58, "velocity": 101, "channel": 0}, {"type": "note_off", "time": 172, "note": 58, "velocity": 101, "channel": 0}, {"type": "note_on", "time": 21, "note": 54, "velocity": 95, "channel": 0}, {"type": "note_off", "time": 154, "note": 54, "velocity": 95, "channel": 0}, {"type": "note_on", "time": 7, "note": 52, "velocity": 94, "channel": 0}, {"type": "note_off", "time": 341, "note": 52, "velocity": 94, "channel": 0}, {"type": "note_on", "time": 1195, "note": 60, "velocity": 121, "channel": 0}, {"type": "note_off", "time": 69, "note": 60, "velocity": 121, "channel": 0}, {"type": "note_on", "time": 7, "note": 61, "velocity": 114, "channel": 0}, {"type": "note_off", "time": 504, "note": 61, "velocity": 114, "channel": 0}, {"type": "note_on", "time": 17, "note": 60, "velocity": 115, "channel": 0}, {"type": "note_off", "time": 175, "note": 60, "velocity": 115, "channel": 0}, {"type": "note_on", "time": 7, "note": 59, "velocity": 107, "channel": 0}, {"type": "note_off", "time": 172, "note": 59, "velocity": 107, "channel": 0}, {"type": "note_on", "time": 1, "note": 56, "velocity": 109, "channel": 0}, {"type": "note_off", "time": 165, "note": 56, "velocity": 109, "channel": 0}, {"type": "note_on", "time": 7, "note": 52, "velocity": 107, "channel": 0}, {"type": "note_off", "time": 216, "note": 52, "velocity": 107, "channel": 0}, {"type": "note_on", "time": 10, "note": 51, "velocity": 110, "channel": 0}, {"type": "note_off", "time": 174, "note": 51, "velocity": 110, "channel": 0}, {"type": "note_on", "time": 8, "note": 50, "velocity": 96, "channel": 0}, {"type": "note_off", "time": 312, "note": 50, "velocity": 96, "channel": 0}, {"type": "note_on", "time": 1147, "note": 70, "velocity": 115, "channel": 0}, {"type": "note_off", "time": 122, "note": 70, "velocity": 115, "channel": 0}, {"type": "note_on", "time": 220, "note": 68, "velocity": 118, "channel": 0}, {"type": "note_off", "time": 120, "note": 68, "velocity": 118, "channel": 0}, {"type": "note_on", "time": 248, "note": 67, "velocity": 117, "channel": 0}, {"type": "note_off", "time": 106, "note": 67, "velocity": 117, "channel": 0}, {"type": "note_on", "time": 214, "note": 63, "velocity": 123, "channel": 0}, {"type": "note_off", "time": 92, "note": 63, "velocity": 123, "channel": 0}, {"type": "note_on", "time": 10, "note": 65, "velocity": 114, "channel": 0}, {"type": "note_off", "time": 124, "note": 65, "velocity": 114, "channel": 0}, {"type": "note_on", "time": 10, "note": 67, "velocity": 117, "channel": 0}, {"type": "note_off", "time": 120, "note": 67, "velocity": 117, "channel": 0}, {"type": "note_on", "time": 67, "note": 73, "velocity": 114, "channel": 0}, {"type": "note_off", "time": 136, "note": 73, "velocity": 114, "channel": 0}, {"type": "note_on", "time": 17, "note": 73, "velocity": 114, "channel": 0}, {"type": "note_off", "time": 181, "note": 73, "velocity": 114, "channel": 0}, {"type": "note_on", "time": 23, "note": 74, "velocity": 118, "channel": 0}, {"type": "note_off", "time": 223, "note": 74, "velocity": 118, "channel": 0}, {"type": "note_on", "time": 8, "note": 64, "velocity": 117, "channel": 0}, {"type": "note_off", "time": 138, "note": 64, "velocity": 117, "channel": 0}, {"type": "note_on", "time": 12, "note": 59, "velocity": 103, "channel": 0}, {"type": "note_off", "time": 159, "note": 59, "velocity": 103, "channel": 0}, {"type": "note_on", "time": 3, "note": 54, "velocity": 109, "channel": 0}, {"type": "note_off", "time": 186, "note": 54, "velocity": 109, "channel": 0}, {"type": "note_on", "time": 24, "note": 52, "velocity": 111, "channel": 0}, {"type": "note_off", "time": 124, "note": 52, "velocity": 111, "channel": 0}, {"type": "note_on", "time": 37, "note": 49, "velocity": 109, "channel": 0}, {"type": "note_off", "time": 138, "note": 49, "velocity": 109, "channel": 0}, {"type": "note_on", "time": 24, "note": 56, "velocity": 95, "channel": 0}, {"type": "note_off", "time": 364, "note": 56, "velocity": 95, "channel": 0}, {"type": "note_on", "time": 214, "note": 55, "velocity": 112, "channel": 0}, {"type": "note_off", "time": 58, "note": 55, "velocity": 112, "channel": 0}, {"type": "note_on", "time": 5, "note": 58, "velocity": 106, "channel": 0}, {"type": "note_off", "time": 58, "note": 58, "velocity": 106, "channel": 0}, {"type": "note_on", "time": 8, "note": 60, "velocity": 102, "channel": 0}, {"type": "note_off", "time": 46, "note": 60, "velocity": 102, "channel": 0}, {"type": "note_on", "time": 5, "note": 63, "velocity": 107, "channel": 0}, {"type": "note_off", "time": 72, "note": 63, "velocity": 107, "channel": 0}, {"type": "note_on", "time": 17, "note": 67, "velocity": 115, "channel": 0}, {"type": "note_off", "time": 74, "note": 67, "velocity": 115, "channel": 0}, {"type": "note_on", "time": 3, "note": 63, "velocity": 112, "channel": 0}, {"type": "note_off", "time": 44, "note": 63, "velocity": 112, "channel": 0}, {"type": "note_on", "time": 5, "note": 65, "velocity": 113, "channel": 0}, {"type": "note_off", "time": 165, "note": 65, "velocity": 113, "channel": 0}, {"type": "note_on", "time": 8, "note": 66, "velocity": 107, "channel": 0}, {"type": "note_off", "time": 161, "note": 66, "velocity": 107, "channel": 0}, {"type": "note_on", "time": 5, "note": 62, "velocity": 102, "channel": 0}, {"type": "note_off", "time": 60, "note": 62, "velocity": 102, "channel": 0}, {"type": "note_on", "time": 5, "note": 59, "velocity": 98, "channel": 0}, {"type": "note_off", "time": 124, "note": 59, "velocity": 98, "channel": 0}, {"type": "note_on", "time": 10, "note": 55, "velocity": 114, "channel": 0}, {"type": "note_off", "time": 42, "note": 55, "velocity": 114, "channel": 0}, {"type": "note_on", "time": 12, "note": 58, "velocity": 107, "channel": 0}, {"type": "note_off", "time": 65, "note": 58, "velocity": 107, "channel": 0}, {"type": "note_on", "time": 261, "note": 67, "velocity": 115, "channel": 0}, {"type": "note_off", "time": 76, "note": 67, "velocity": 115, "channel": 0}, {"type": "note_on", "time": 303, "note": 65, "velocity": 110, "channel": 0}, {"type": "note_off", "time": 83, "note": 65, "velocity": 110, "channel": 0}, {"type": "note_on", "time": 270, "note": 63, "velocity": 126, "channel": 0}, {"type": "note_off", "time": 110, "note": 63, "velocity": 126, "channel": 0}, {"type": "note_on", "time": 264, "note": 63, "velocity": 120, "channel": 0}, {"type": "note_off", "time": 68, "note": 63, "velocity": 120, "channel": 0}, {"type": "note_on", "time": 30, "note": 63, "velocity": 124, "channel": 0}, {"type": "note_off", "time": 64, "note": 63, "velocity": 124, "channel": 0}, {"type": "note_on", "time": 12, "note": 63, "velocity": 123, "channel": 0}, {"type": "note_off", "time": 82, "note": 63, "velocity": 123, "channel": 0}, {"type": "note_on", "time": 24, "note": 63, "velocity": 121, "channel": 0}, {"type": "note_off", "time": 80, "note": 63, "velocity": 121, "channel": 0}, {"type": "note_on", "time": 21, "note": 63, "velocity": 117, "channel": 0}, {"type": "note_off", "time": 85, "note": 63, "velocity": 117, "channel": 0}, {"type": "note_on", "time": 77, "note": 63, "velocity": 118, "channel": 0}, {"type": "note_off", "time": 113, "note": 63, "velocity": 118, "channel": 0}, {"type": "note_on", "time": 74, "note": 63, "velocity": 116, "channel": 0}, {"type": "note_off", "time": 124, "note": 63, "velocity": 116, "channel": 0}, {"type": "note_on", "time": 10, "note": 65, "velocity": 105, "channel": 0}, {"type": "note_off", "time": 34, "note": 65, "velocity": 105, "channel": 0}, {"type": "note_on", "time": 12, "note": 67, "velocity": 96, "channel": 0}, {"type": "note_off", "time": 135, "note": 67, "velocity": 96, "channel": 0}, {"type": "note_on", "time": 8, "note": 65, "velocity": 95, "channel": 0}, {"type": "note_off", "time": 257, "note": 65, "velocity": 95, "channel": 0}, {"type": "end_of_track", "time": 0}]]}