{"ticks_per_beat": 27720, "tracks": [[{"type": "track_name", "name": "Melody", "time": 0}, {"type": "set_tempo", "tempo": 500000, "time": 0}, {"type": "key_signature", "key": "Bb", "time": 0}, {"type": "time_signature", "numerator": 4, "denominator": 4, "clocks_per_click": 24, "notated_32nd_notes_per_beat": 8, "time": 0}, {"type": "note_on", "time": 5237180, "note": 65, "velocity": 95, "channel": 0}, {"type": "note_off", "time": 5149, "note": 65, "velocity": 95, "channel": 0}, {"type": "note_on", "time": 5310, "note": 69, "velocity": 107, "channel": 0}, {"type": "note_off", "time": 29608, "note": 69, "velocity": 107, "channel": 0}, {"type": "note_on", "time": 1448, "note": 72, "velocity": 104, "channel": 0}, {"type": "note_off", "time": 8367, "note": 72, "velocity": 104, "channel": 0}, {"type": "note_on", "time": 15930, "note": 72, "velocity": 87, "channel": 0}, {"type": "note_off", "time": 13194, "note": 72, "velocity": 87, "channel": 0}, {"type": "note_on", "time": 141822, "note": 60, "velocity": 101, "channel": 0}, {"type": "note_off", "time": 3298, "note": 60, "velocity": 101, "channel": 0}, {"type": "note_on", "time": 830, "note": 62, "velocity": 98, "channel": 0}, {"type": "note_off", "time": 2658, "note": 62, "velocity": 98, "channel": 0}, {"type": "note_on", "time": 622, "note": 66, "velocity": 107, "channel": 0}, {"type": "note_off", "time": 2093, "note": 66, "velocity": 107, "channel": 0}, {"type": "note_on", "time": 282, "note": 71, "velocity": 106, "channel": 0}, {"type": "note_off", "time": 2376, "note": 71, "velocity": 106, "channel": 0}, {"type": "note_on", "time": 735, "note": 75, "velocity": 116, "channel": 0}, {"type": "note_off", "time": 2941, "note": 75, "velocity": 116, "channel": 0}, {"type": "note_on", "time": 961, "note": 77, "velocity": 117, "channel": 0}, {"type": "note_off", "time": 1923, "note": 77, "velocity": 117, "channel": 0}, {"type": "note_on", "time": 452, "note": 80, "velocity": 123, "channel": 0}, {"type": "note_off", "time": 1414, "note": 80, "velocity": 123, "channel": 0}, {"type": "note_on", "time": 622, "note": 82, "velocity": 125, "channel": 0}, {"type": "note_off", "time": 1414, "note": 82, "velocity": 125, "channel": 0}, {"type": "note_on", "time": 1074, "note": 80, "velocity": 89, "channel": 0}, {"type": "note_off", "time": 1357, "note": 80, "velocity": 89, "channel": 0}, {"type": "note_on", "time": 792, "note": 77, "velocity": 120, "channel": 0}, {"type": "note_off", "time": 4016, "note": 77, "velocity": 120, "channel": 0}, {"type": "note_on", "time": 961, "note": 75, "velocity": 113, "channel": 0}, {"type": "note_off", "time": 3394, "note": 75, "velocity": 113, "channel": 0}, {"type": "note_on", "time": 1074, "note": 72, "velocity": 102, "channel": 0}, {"type": "note_off", "time": 3111, "note": 72, "velocity": 102, "channel": 0}, {"type": "note_on", "time": 509, "note": 70, "velocity": 101, "channel": 0}, {"type": "note_off", "time": 3224, "note": 70, "velocity": 101, "channel": 0}, {"type": "note_on", "time": 905, "note": 65, "velocity": 108, "channel": 0}, {"type": "note_off", "time": 2828, "note": 65, "velocity": 108, "channel": 0}, {"type": "note_on", "time": 622, "note": 63, "velocity": 107, "channel": 0}, {"type": "note_off", "time": 3677, "note": 63, "velocity": 107, "channel": 0}, {"type": "note_on", "time": 735, "note": 60, "velocity": 101, "channel": 0}, {"type": "note_off", "time": 3450, "note": 60, "velocity": 101, "channel": 0}, {"type": "note_on", "time": 1187, "note": 58, "velocity": 92, "channel": 0}, {"type": "note_off", "time": 14652, "note": 58, "velocity": 92, "channel": 0}, {"type": "note_on", "time": 1810, "note": 60, "velocity": 96, "channel": 0}, {"type": "note_off", "time": 21214, "note": 60, "velocity": 96, "channel": 0}, {"type": "note_on", "time": 1414, "note": 65, "velocity": 103, "channel": 0}, {"type": "note_off", "time": 9051, "note": 65, "velocity": 103, "channel": 0}, {"type": "note_on", "time": 1074, "note": 72, "velocity": 103, "channel": 0}, {"type": "note_off", "time": 3677, "note": 72, "velocity": 103, "channel": 0}, {"type": "note_on", "time": 4129, "note": 70, "velocity": 109, "channel": 0}, {"type": "note_off", "time": 10691, "note": 70, "velocity": 109, "channel": 0}, {"type": "note_on", "time": 1244, "note": 65, "velocity": 103, "channel": 0}, {"type": "note_off", "time": 30096, "note": 65, "velocity": 103, "channel": 0}, {"type": "note_on", "time": 79584, "note": 79, "velocity": 93, "channel": 0}, {"type": "note_off", "time": 1770, "note": 79, "velocity": 93, "channel": 0}, {"type": "note_on", "time": 402, "note": 80, "velocity": 124, "channel": 0}, {"type": "note_off", "time": 1528, "note": 80, "velocity": 124, "channel": 0}, {"type": "note_on", "time": 362, "note": 79, "velocity": 125, "channel": 0}, {"type": "note_off", "time": 2453, "note": 79, "velocity": 125, "channel": 0}, {"type": "note_on", "time": 281, "note": 78, "velocity": 124, "channel": 0}, {"type": "note_off", "time": 3218, "note": 78, "velocity": 124, "channel": 0}, {"type": "note_on", "time": 160, "note": 77, "velocity": 125, "channel": 0}, {"type": "note_off", "time": 1729, "note": 77, "velocity": 125, "channel": 0}, {"type": "note_on", "time": 563, "note": 76, "velocity": 123, "channel": 0}, {"type": "note_off", "time": 2695, "note": 76, "velocity": 123, "channel": 0}, {"type": "note_on", "time": 160, "note": 77, "velocity": 123, "channel": 0}, {"type": "note_off", "time": 2011, "note": 77, "velocity": 123, "channel": 0}, {"type": "note_on", "time": 120, "note": 75, "velocity": 115, "channel": 0}, {"type": "note_off", "time": 3660, "note": 75, "velocity": 115, "channel": 0}, {"type": "note_on", "time": 482, "note": 73, "velocity": 104, "channel": 0}, {"type": "note_off", "time": 3097, "note": 73, "velocity": 104, "channel": 0}, {"type": "note_on", "time": 201, "note": 74, "velocity": 105, "channel": 0}, {"type": "note_off", "time": 4183, "note": 74, "velocity": 105, "channel": 0}, {"type": "note_on", "time": 1126, "note": 71, "velocity": 105, "channel": 0}, {"type": "note_off", "time": 3298, "note": 71, "velocity": 105, "channel": 0}, {"type": "note_on", "time": 764, "note": 66, "velocity": 109, "channel": 0}, {"type": "note_off", "time": 4022, "note": 66, "velocity": 109, "channel": 0}, {"type": "note_on", "time": 563, "note": 62, "velocity": 104, "channel": 0}, {"type": "note_off", "time": 4183, "note": 62, "velocity": 104, "channel": 0}, {"type": "note_on", "time": 764, "note": 60, "velocity": 95, "channel": 0}, {"type": "note_off", "time": 5390, "note": 60, "velocity": 95, "channel": 0}, {"type": "note_on", "time": 1206, "note": 62, "velocity": 89, "channel": 0}, {"type": "note_off", "time": 5149, "note": 62, "velocity": 89, "channel": 0}, {"type": "note_on", "time": 1206, "note": 67, "velocity": 97, "channel": 0}, {"type": "note_off", "time": 6597, "note": 67, "velocity": 97, "channel": 0}, {"type": "note_on", "time": 281, "note": 63, "velocity": 98, "channel": 0}, {"type": "note_off", "time": 2534, "note": 63, "velocity": 98, "channel": 0}, {"type": "note_on", "time": 482, "note": 65, "velocity": 81, "channel": 0}, {"type": "note_off", "time": 4746, "note": 65, "velocity": 81, "channel": 0}, {"type": "note_on", "time": 25682, "note": 60, "velocity": 89, "channel": 0}, {"type": "note_off", "time": 3507, "note": 60, "velocity": 89, "channel": 0}, {"type": "note_on", "time": 1074, "note": 63, "velocity": 93, "channel": 0}, {"type": "note_off", "time": 3846, "note": 63, "velocity": 93, "channel": 0}, {"type": "note_on", "time": 396, "note": 65, "velocity": 103, "channel": 0}, {"type": "note_off", "time": 5261, "note": 65, "velocity": 103, "channel": 0}, {"type": "note_on", "time": 678, "note": 66, "velocity": 102, "channel": 0}, {"type": "note_off", "time": 2319, "note": 66, "velocity": 102, "channel": 0}, {"type": "note_on", "time": 396, "note": 68, "velocity": 108, "channel": 0}, {"type": "note_off", "time": 4582, "note": 68, "velocity": 108, "channel": 0}, {"type": "note_on", "time": 226, "note": 70, "velocity": 108, "channel": 0}, {"type": "note_off", "time": 3733, "note": 70, "velocity": 108, "channel": 0}, {"type": "note_on", "time": 282, "note": 72, "velocity": 100, "channel": 0}, {"type": "note_off", "time": 4242, "note": 72, "velocity": 100, "channel": 0}, {"type": "note_on", "time": 1188, "note": 75, "velocity": 105, "channel": 0}, {"type": "note_off", "time": 4356, "note": 75, "velocity": 105, "channel": 0}, {"type": "note_on", "time": 452, "note": 77, "velocity": 121, "channel": 0}, {"type": "note_off", "time": 5148, "note": 77, "velocity": 121, "channel": 0}, {"type": "note_on", "time": 452, "note": 78, "velocity": 118, "channel": 0}, {"type": "note_off", "time": 3337, "note": 78, "velocity": 118, "channel": 0}, {"type": "note_on", "time": 848, "note": 80, "velocity": 120, "channel": 0}, {"type": "note_off", "time": 4638, "note": 80, "velocity": 120, "channel": 0}, {"type": "note_on", "time": 1244, "note": 75, "velocity": 112, "channel": 0}, {"type": "note_off", "time": 3224, "note": 75, "velocity": 112, "channel": 0}, {"type": "note_on", "time": 339, "note": 77, "velocity": 122, "channel": 0}, {"type": "note_off", "time": 4525, "note": 77, "velocity": 122, "channel": 0}, {"type": "note_on", "time": 961, "note": 73, "velocity": 103, "channel": 0}, {"type": "note_off", "time": 2319, "note": 73, "velocity": 103, "channel": 0}, {"type": "note_on", "time": 282, "note": 75, "velocity": 112, "channel": 0}, {"type": "note_off", "time": 5148, "note": 75, "velocity": 112, "channel": 0}, {"type": "note_on", "time": 848, "note": 70, "velocity": 100, "channel": 0}, {"type": "note_off", "time": 3054, "note": 70, "velocity": 100, "channel": 0}, {"type": "note_on", "time": 339, "note": 72, "velocity": 98, "channel": 0}, {"type": "note_off", "time": 4921, "note": 72, "velocity": 98, "channel": 0}, {"type": "note_on", "time": 678, "note": 70, "velocity": 102, "channel": 0}, {"type": "note_off", "time": 4582, "note": 70, "velocity": 102, "channel": 0}, {"type": "note_on", "time": 509, "note": 65, "velocity": 106, "channel": 0}, {"type": "note_off", "time": 4073, "note": 65, "velocity": 106, "channel": 0}, {"type": "note_on", "time": 509, "note": 63, "velocity": 102, "channel": 0}, {"type": "note_off", "time": 4412, "note": 63, "velocity": 102, "channel": 0}, {"type": "note_on", "time": 1018, "note": 60, "velocity": 88, "channel": 0}, {"type": "note_off", "time": 2376, "note": 60, "velocity": 88, "channel": 0}, {"type": "note_on", "time": 565, "note": 63, "velocity": 104, "channel": 0}, {"type": "note_off", "time": 5374, "note": 63, "velocity": 104, "channel": 0}, {"type": "note_on", "time": 113, "note": 60, "velocity": 87, "channel": 0}, {"type": "note_off", "time": 2036, "note": 60, "velocity": 87, "channel": 0}, {"type": "note_on", "time": 735, "note": 63, "velocity": 104, "channel": 0}, {"type": "note_off", "time": 4752, "note": 63, "velocity": 104, "channel": 0}, {"type": "note_on", "time": 452, "note": 65, "velocity": 107, "channel": 0}, {"type": "note_off", "time": 3790, "note": 65, "velocity": 107, "channel": 0}, {"type": "note_on", "time": 678, "note": 68, "velocity": 106, "channel": 0}, {"type": "note_off", "time": 4073, "note": 68, "velocity": 106, "channel": 0}, {"type": "note_on", "time": 396, "note": 67, "velocity": 109, "channel": 0}, {"type": "note_off", "time": 2149, "note": 67, "velocity": 109, "channel": 0}, {"type": "note_on", "time": 226, "note": 70, "velocity": 110, "channel": 0}, {"type": "note_off", "time": 3394, "note": 70, "velocity": 110, "channel": 0}, {"type": "note_on", "time": 452, "note": 75, "velocity": 111, "channel": 0}, {"type": "note_off", "time": 3281, "note": 75, "velocity": 111, "channel": 0}, {"type": "note_on", "time": 339, "note": 77, "velocity": 114, "channel": 0}, {"type": "note_off", "time": 2998, "note": 77, "velocity": 114, "channel": 0}, {"type": "note_on", "time": 622, "note": 79, "velocity": 111, "channel": 0}, {"type": "note_off", "time": 2206, "note": 79, "velocity": 111, "channel": 0}, {"type": "note_on", "time": 113, "note": 80, "velocity": 121, "channel": 0}, {"type": "note_off", "time": 3394, "note": 80, "velocity": 121, "channel": 0}, {"type": "note_on", "time": 565, "note": 81, "velocity": 123, "channel": 0}, {"type": "note_off", "time": 2262, "note": 81, "velocity": 123, "channel": 0}, {"type": "note_on", "time": 509, "note": 82, "velocity": 105, "channel": 0}, {"type": "note_off", "time": 3224, "note": 82, "velocity": 105, "channel": 0}, {"type": "note_on", "time": 622, "note": 77, "velocity": 117, "channel": 0}, {"type": "note_off", "time": 3846, "note": 77, "velocity": 117, "channel": 0}, {"type": "note_on", "time": 396, "note": 72, "velocity": 97, "channel": 0}, {"type": "note_off", "time": 2941, "note": 72, "velocity": 97, "channel": 0}, {"type": "note_on", "time": 452, "note": 75, "velocity": 116, "channel": 0}, {"type": "note_off", "time": 3959, "note": 75, "velocity": 116, "channel": 0}, {"type": "note_on", "time": 622, "note": 70, "velocity": 108, "channel": 0}, {"type": "note_off", "time": 2941, "note": 70, "velocity": 108, "channel": 0}, {"type": "note_on", "time": 452, "note": 72, "velocity": 97, "channel": 0}, {"type": "note_off", "time": 2489, "note": 72, "velocity": 97, "channel": 0}, {"type": "note_on", "time": 1244, "note": 68, "velocity": 108, "channel": 0}, {"type": "note_off", "time": 5770, "note": 68, "velocity": 108, "channel": 0}, {"type": "note_on", "time": 226, "note": 69, "velocity": 112, "channel": 0}, {"type": "note_off", "time": 3111, "note": 69, "velocity": 112, "channel": 0}, {"type": "note_on", "time": 848, "note": 63, "velocity": 109, "channel": 0}, {"type": "note_off", "time": 2828, "note": 63, "velocity": 109, "channel": 0}, {"type": "note_on", "time": 226, "note": 65, "velocity": 118, "channel": 0}, {"type": "note_off", "time": 3903, "note": 65, "velocity": 118, "channel": 0}, {"type": "note_on", "time": 339, "note": 60, "velocity": 103, "channel": 0}, {"type": "note_off", "time": 3394, "note": 60, "velocity": 103, "channel": 0}, {"type": "note_on", "time": 905, "note": 63, "velocity": 112, "channel": 0}, {"type": "note_off", "time": 4525, "note": 63, "velocity": 112, "channel": 0}, {"type": "note_on", "time": 735, "note": 58, "velocity": 104, "channel": 0}, {"type": "note_off", "time": 4808, "note": 58, "velocity": 104, "channel": 0}, {"type": "note_on", "time": 1244, "note": 56, "velocity": 99, "channel": 0}, {"type": "note_off", "time": 6788, "note": 56, "velocity": 99, "channel": 0}, {"type": "note_on", "time": 51480, "note": 77, "velocity": 122, "channel": 0}, {"type": "note_off", "time": 5940, "note": 77, "velocity": 122, "channel": 0}, {"type": "note_on", "time": 735, "note": 79, "velocity": 77, "channel": 0}, {"type": "note_off", "time": 1640, "note": 79, "velocity": 77, "channel": 0}, {"type": "note_on", "time": 848, "note": 82, "velocity": 121, "channel": 0}, {"type": "note_off", "time": 5996, "note": 82, "velocity": 121, "channel": 0}, {"type": "note_on", "time": 2149, "note": 84, "velocity": 118, "channel": 0}, {"type": "note_off", "time": 6392, "note": 84, "velocity": 118, "channel": 0}, {"type": "note_on", "time": 905, "note": 86, "velocity": 115, "channel": 0}, {"type": "note_off", "time": 6562, "note": 86, "velocity": 115, "channel": 0}, {"type": "note_on", "time": 961, "note": 82, "velocity": 119, "channel": 0}, {"type": "note_off", "time": 8881, "note": 82, "velocity": 119, "channel": 0}, {"type": "note_on", "time": 1357, "note": 84, "velocity": 106, "channel": 0}, {"type": "note_off", "time": 34621, "note": 84, "velocity": 106, "channel": 0}, {"type": "note_on", "time": 133405, "note": 80, "velocity": 123, "channel": 0}, {"type": "note_off", "time": 6114, "note": 80, "velocity": 123, "channel": 0}, {"type": "note_on", "time": 1528, "note": 82, "velocity": 114, "channel": 0}, {"type": "note_off", "time": 4827, "note": 82, "velocity": 114, "channel": 0}, {"type": "note_on", "time": 402, "note": 84, "velocity": 122, "channel": 0}, {"type": "note_off", "time": 7562, "note": 84, "velocity": 122, "channel": 0}, {"type": "note_on", "time": 804, "note": 85, "velocity": 111, "channel": 0}, {"type": "note_off", "time": 5873, "note": 85, "velocity": 111, "channel": 0}, {"type": "note_on", "time": 482, "note": 84, "velocity": 117, "channel": 0}, {"type": "note_off", "time": 4988, "note": 84, "velocity": 117, "channel": 0}, {"type": "note_on", "time": 724, "note": 82, "velocity": 124, "channel": 0}, {"type": "note_off", "time": 10378, "note": 82, "velocity": 124, "channel": 0}, {"type": "note_on", "time": 25183, "note": 75, "velocity": 117, "channel": 0}, {"type": "note_off", "time": 6195, "note": 75, "velocity": 117, "channel": 0}, {"type": "note_on", "time": 2896, "note": 80, "velocity": 123, "channel": 0}, {"type": "note_off", "time": 6999, "note": 80, "velocity": 123, "channel": 0}, {"type": "note_on", "time": 563, "note": 82, "velocity": 124, "channel": 0}, {"type": "note_off", "time": 6275, "note": 82, "velocity": 124, "channel": 0}, {"type": "note_on", "time": 1045, "note": 84, "velocity": 119, "channel": 0}, {"type": "note_off", "time": 8367, "note": 84, "velocity": 119, "channel": 0}, {"type": "note_on", "time": 885, "note": 82, "velocity": 123, "channel": 0}, {"type": "note_off", "time": 7723, "note": 82, "velocity": 123, "channel": 0}, {"type": "note_on", "time": 5712, "note": 80, "velocity": 118, "channel": 0}, {"type": "note_off", "time": 6114, "note": 80, "velocity": 118, "channel": 0}, {"type": "note_on", "time": 6838, "note": 77, "velocity": 127, "channel": 0}, {"type": "note_off", "time": 6114, "note": 77, "velocity": 127, "channel": 0}, {"type": "note_on", "time": 2333, "note": 75, "velocity": 115, "channel": 0}, {"type": "note_off", "time": 7482, "note": 75, "velocity": 115, "channel": 0}, {"type": "note_on", "time": 724, "note": 75, "velocity": 112, "channel": 0}, {"type": "note_off", "time": 5873, "note": 75, "velocity": 112, "channel": 0}, {"type": "note_on", "time": 2655, "note": 80, "velocity": 120, "channel": 0}, {"type": "note_off", "time": 7804, "note": 80, "velocity": 120, "channel": 0}, {"type": "note_on", "time": 1850, "note": 77, "velocity": 114, "channel": 0}, {"type": "note_off", "time": 24298, "note": 77, "velocity": 114, "channel": 0}, {"type": "note_on", "time": 195993, "note": 75, "velocity": 107, "channel": 0}, {"type": "note_off", "time": 11022, "note": 75, "velocity": 107, "channel": 0}, {"type": "note_on", "time": 2494, "note": 80, "velocity": 125, "channel": 0}, {"type": "note_off", "time": 9333, "note": 80, "velocity": 125, "channel": 0}, {"type": "note_on", "time": 1045, "note": 77, "velocity": 126, "channel": 0}, {"type": "note_off", "time": 7080, "note": 77, "velocity": 126, "channel": 0}, {"type": "note_on", "time": 2413, "note": 72, "velocity": 109, "channel": 0}, {"type": "note_off", "time": 7643, "note": 72, "velocity": 109, "channel": 0}, {"type": "note_on", "time": 1045, "note": 75, "velocity": 120, "channel": 0}, {"type": "note_off", "time": 6838, "note": 75, "velocity": 120, "channel": 0}, {"type": "note_on", "time": 1287, "note": 70, "velocity": 10, "channel": 0}, {"type": "note_off", "time": 7241, "note": 70, "velocity": 10, "channel": 0}, {"type": "note_on", "time": 885, "note": 65, "velocity": 110, "channel": 0}, {"type": "note_off", "time": 5471, "note": 65, "velocity": 110, "channel": 0}, {"type": "note_on", "time": 1206, "note": 63, "velocity": 108, "channel": 0}, {"type": "note_off", "time": 7965, "note": 63, "velocity": 108, "channel": 0}, {"type": "note_on", "time": 1287, "note": 60, "velocity": 96, "channel": 0}, {"type": "note_off", "time": 4264, "note": 60, "velocity": 96, "channel": 0}, {"type": "note_on", "time": 1609, "note": 68, "velocity": 115, "channel": 0}, {"type": "note_off", "time": 6275, "note": 68, "velocity": 115, "channel": 0}, {"type": "note_on", "time": 1367, "note": 65, "velocity": 117, "channel": 0}, {"type": "note_off", "time": 4746, "note": 65, "velocity": 117, "channel": 0}, {"type": "note_on", "time": 1448, "note": 63, "velocity": 109, "channel": 0}, {"type": "note_off", "time": 7241, "note": 63, "velocity": 109, "channel": 0}, {"type": "note_on", "time": 643, "note": 60, "velocity": 98, "channel": 0}, {"type": "note_off", "time": 5471, "note": 60, "velocity": 98, "channel": 0}, {"type": "note_on", "time": 1689, "note": 58, "velocity": 100, "channel": 0}, {"type": "note_off", "time": 28401, "note": 58, "velocity": 100, "channel": 0}, {"type": "note_on", "time": 40389, "note": 58, "velocity": 90, "channel": 0}, {"type": "note_off", "time": 6275, "note": 58, "velocity": 90, "channel": 0}, {"type": "note_on", "time": 241, "note": 60, "velocity": 83, "channel": 0}, {"type": "note_off", "time": 4586, "note": 60, "velocity": 83, "channel": 0}, {"type": "note_on", "time": 1287, "note": 63, "velocity": 98, "channel": 0}, {"type": "note_off", "time": 7402, "note": 63, "velocity": 98, "channel": 0}, {"type": "note_on", "time": 402, "note": 65, "velocity": 98, "channel": 0}, {"type": "note_off", "time": 5953, "note": 65, "velocity": 98, "channel": 0}, {"type": "note_on", "time": 1448, "note": 67, "velocity": 97, "channel": 0}, {"type": "note_off", "time": 4666, "note": 67, "velocity": 97, "channel": 0}, {"type": "note_on", "time": 2333, "note": 63, "velocity": 96, "channel": 0}, {"type": "note_off", "time": 4666, "note": 63, "velocity": 96, "channel": 0}, {"type": "note_on", "time": 482, "note": 65, "velocity": 100, "channel": 0}, {"type": "note_off", "time": 6919, "note": 65, "velocity": 100, "channel": 0}, {"type": "note_on", "time": 8769, "note": 65, "velocity": 102, "channel": 0}, {"type": "note_off", "time": 3781, "note": 65, "velocity": 102, "channel": 0}, {"type": "note_on", "time": 1126, "note": 65, "velocity": 88, "channel": 0}, {"type": "note_off", "time": 3298, "note": 65, "velocity": 88, "channel": 0}, {"type": "note_on", "time": 5792, "note": 72, "velocity": 80, "channel": 0}, {"type": "note_off", "time": 4505, "note": 72, "velocity": 80, "channel": 0}, {"type": "note_on", "time": 6114, "note": 72, "velocity": 87, "channel": 0}, {"type": "note_off", "time": 4103, "note": 72, "velocity": 87, "channel": 0}, {"type": "note_on", "time": 10378, "note": 77, "velocity": 108, "channel": 0}, {"type": "note_off", "time": 5149, "note": 77, "velocity": 108, "channel": 0}, {"type": "note_on", "time": 7643, "note": 77, "velocity": 116, "channel": 0}, {"type": "note_off", "time": 6436, "note": 77, "velocity": 116, "channel": 0}, {"type": "note_on", "time": 1367, "note": 72, "velocity": 90, "channel": 0}, {"type": "note_off", "time": 7402, "note": 72, "velocity": 90, "channel": 0}, {"type": "note_on", "time": 6999, "note": 72, "velocity": 99, "channel": 0}, {"type": "note_off", "time": 3942, "note": 72, "velocity": 99, "channel": 0}, {"type": "note_on", "time": 1770, "note": 65, "velocity": 99, "channel": 0}, {"type": "note_off", "time": 7241, "note": 65, "velocity": 99, "channel": 0}, {"type": "note_on", "time": 45216, "note": 60, "velocity": 92, "channel": 0}, {"type": "note_off", "time": 5229, "note": 60, "velocity": 92, "channel": 0}, {"type": "note_on", "time": 563, "note": 63, "velocity": 95, "channel": 0}, {"type": "note_off", "time": 4505, "note": 63, "velocity": 95, "channel": 0}, {"type": "note_on", "time": 1367, "note": 65, "velocity": 107, "channel": 0}, {"type": "note_off", "time": 5792, "note": 65, "velocity": 107, "channel": 0}, {"type": "note_on", "time": 1850, "note": 68, "velocity": 105, "channel": 0}, {"type": "note_off", "time": 7321, "note": 68, "velocity": 105, "channel": 0}, {"type": "note_on", "time": 16332, "note": 70, "velocity": 105, "channel": 0}, {"type": "note_off", "time": 5229, "note": 70, "velocity": 105, "channel": 0}, {"type": "note_on", "time": 20677, "note": 72, "velocity": 102, "channel": 0}, {"type": "note_off", "time": 6517, "note": 72, "velocity": 102, "channel": 0}, {"type": "note_on", "time": 20114, "note": 73, "velocity": 107, "channel": 0}, {"type": "note_off", "time": 7965, "note": 73, "velocity": 107, "channel": 0}, {"type": "note_on", "time": 28401, "note": 75, "velocity": 111, "channel": 0}, {"type": "note_off", "time": 6999, "note": 75, "velocity": 111, "channel": 0}, {"type": "note_on", "time": 7080, "note": 77, "velocity": 118, "channel": 0}, {"type": "note_off", "time": 8608, "note": 77, "velocity": 118, "channel": 0}, {"type": "note_on", "time": 34274, "note": 80, "velocity": 116, "channel": 0}, {"type": "note_off", "time": 7402, "note": 80, "velocity": 116, "channel": 0}, {"type": "note_on", "time": 4988, "note": 82, "velocity": 122, "channel": 0}, {"type": "note_off", "time": 7482, "note": 82, "velocity": 122, "channel": 0}, {"type": "note_on", "time": 6597, "note": 84, "velocity": 118, "channel": 0}, {"type": "note_off", "time": 7643, "note": 84, "velocity": 118, "channel": 0}, {"type": "note_on", "time": 6356, "note": 82, "velocity": 98, "channel": 0}, {"type": "note_off", "time": 3459, "note": 82, "velocity": 98, "channel": 0}, {"type": "note_on", "time": 643, "note": 84, "velocity": 118, "channel": 0}, {"type": "note_off", "time": 6517, "note": 84, "velocity": 118, "channel": 0}, {"type": "note_on", "time": 885, "note": 83, "velocity": 116, "channel": 0}, {"type": "note_off", "time": 3379, "note": 83, "velocity": 116, "channel": 0}, {"type": "note_on", "time": 1609, "note": 82, "velocity": 117, "channel": 0}, {"type": "note_off", "time": 30493, "note": 82, "velocity": 117, "channel": 0}, {"type": "note_on", "time": 563, "note": 70, "velocity": 112, "channel": 0}, {"type": "note_off", "time": 3379, "note": 70, "velocity": 112, "channel": 0}, {"type": "note_on", "time": 8769, "note": 82, "velocity": 117, "channel": 0}, {"type": "note_off", "time": 6999, "note": 82, "velocity": 117, "channel": 0}, {"type": "note_on", "time": 1609, "note": 83, "velocity": 114, "channel": 0}, {"type": "note_off", "time": 6356, "note": 83, "velocity": 114, "channel": 0}, {"type": "note_on", "time": 804, "note": 82, "velocity": 110, "channel": 0}, {"type": "note_off", "time": 2252, "note": 82, "velocity": 110, "channel": 0}, {"type": "note_on", "time": 2167, "note": 84, "velocity": 109, "channel": 0}, {"type": "note_off", "time": 106288, "note": 84, "velocity": 109, "channel": 0}, {"type": "note_on", "time": 563, "note": 72, "velocity": 91, "channel": 0}, {"type": "note_off", "time": 3701, "note": 72, "velocity": 91, "channel": 0}, {"type": "note_on", "time": 5149, "note": 82, "velocity": 118, "channel": 0}, {"type": "note_off", "time": 6758, "note": 82, "velocity": 118, "channel": 0}, {"type": "note_on", "time": 724, "note": 84, "velocity": 115, "channel": 0}, {"type": "note_off", "time": 6436, "note": 84, "velocity": 115, "channel": 0}, {"type": "note_on", "time": 402, "note": 83, "velocity": 113, "channel": 0}, {"type": "note_off", "time": 5310, "note": 83, "velocity": 113, "channel": 0}, {"type": "note_on", "time": 1689, "note": 82, "velocity": 115, "channel": 0}, {"type": "note_off", "time": 6999, "note": 82, "velocity": 115, "channel": 0}, {"type": "note_on", "time": 2413, "note": 80, "velocity": 117, "channel": 0}, {"type": "note_off", "time": 4907, "note": 80, "velocity": 117, "channel": 0}, {"type": "note_on", "time": 1930, "note": 77, "velocity": 114, "channel": 0}, {"type": "note_off", "time": 5310, "note": 77, "velocity": 114, "channel": 0}, {"type": "note_on", "time": 1609, "note": 75, "velocity": 109, "channel": 0}, {"type": "note_off", "time": 7884, "note": 75, "velocity": 109, "channel": 0}, {"type": "note_on", "time": 885, "note": 72, "velocity": 84, "channel": 0}, {"type": "note_off", "time": 5390, "note": 72, "velocity": 84, "channel": 0}, {"type": "note_on", "time": 563, "note": 74, "velocity": 108, "channel": 0}, {"type": "note_off", "time": 5953, "note": 74, "velocity": 108, "channel": 0}, {"type": "note_on", "time": 1045, "note": 71, "velocity": 99, "channel": 0}, {"type": "note_off", "time": 4586, "note": 71, "velocity": 99, "channel": 0}, {"type": "note_on", "time": 1206, "note": 67, "velocity": 106, "channel": 0}, {"type": "note_off", "time": 7562, "note": 67, "velocity": 106, "channel": 0}, {"type": "note_on", "time": 1689, "note": 62, "velocity": 89, "channel": 0}, {"type": "note_off", "time": 4103, "note": 62, "velocity": 89, "channel": 0}, {"type": "note_on", "time": 643, "note": 65, "velocity": 105, "channel": 0}, {"type": "note_off", "time": 8448, "note": 65, "velocity": 105, "channel": 0}, {"type": "note_on", "time": 1770, "note": 60, "velocity": 84, "channel": 0}, {"type": "note_off", "time": 3057, "note": 60, "velocity": 84, "channel": 0}, {"type": "note_on", "time": 1126, "note": 65, "velocity": 99, "channel": 0}, {"type": "note_off", "time": 5632, "note": 65, "velocity": 99, "channel": 0}, {"type": "note_on", "time": 1689, "note": 67, "velocity": 105, "channel": 0}, {"type": "note_off", "time": 5632, "note": 67, "velocity": 105, "channel": 0}, {"type": "note_on", "time": 1045, "note": 68, "velocity": 102, "channel": 0}, {"type": "note_off", "time": 4988, "note": 68, "velocity": 102, "channel": 0}, {"type": "note_on", "time": 1930, "note": 70, "velocity": 104, "channel": 0}, {"type": "note_off", "time": 6195, "note": 70, "velocity": 104, "channel": 0}, {"type": "note_on", "time": 1045, "note": 72, "velocity": 98, "channel": 0}, {"type": "note_off", "time": 4425, "note": 72, "velocity": 98, "channel": 0}, {"type": "note_on", "time": 965, "note": 75, "velocity": 109, "channel": 0}, {"type": "note_off", "time": 7884, "note": 75, "velocity": 109, "channel": 0}, {"type": "note_on", "time": 563, "note": 72, "velocity": 97, "channel": 0}, {"type": "note_off", "time": 5873, "note": 72, "velocity": 97, "channel": 0}, {"type": "note_on", "time": 402, "note": 73, "velocity": 95, "channel": 0}, {"type": "note_off", "time": 3701, "note": 73, "velocity": 95, "channel": 0}, {"type": "note_on", "time": 885, "note": 74, "velocity": 104, "channel": 0}, {"type": "note_off", "time": 1850, "note": 74, "velocity": 104, "channel": 0}, {"type": "note_on", "time": 241, "note": 75, "velocity": 108, "channel": 0}, {"type": "note_off", "time": 6597, "note": 75, "velocity": 108, "channel": 0}, {"type": "note_on", "time": 885, "note": 73, "velocity": 98, "channel": 0}, {"type": "note_off", "time": 6275, "note": 73, "velocity": 98, "channel": 0}, {"type": "note_on", "time": 885, "note": 72, "velocity": 97, "channel": 0}, {"type": "note_off", "time": 6195, "note": 72, "velocity": 97, "channel": 0}, {"type": "note_on", "time": 0, "note": 73, "velocity": 98, "channel": 0}, {"type": "note_off", "time": 6436, "note": 73, "velocity": 98, "channel": 0}, {"type": "note_on", "time": 1528, "note": 77, "velocity": 112, "channel": 0}, {"type": "note_off", "time": 8287, "note": 77, "velocity": 112, "channel": 0}, {"type": "note_on", "time": 804, "note": 80, "velocity": 114, "channel": 0}, {"type": "note_off", "time": 5873, "note": 80, "velocity": 114, "channel": 0}, {"type": "note_on", "time": 885, "note": 82, "velocity": 116, "channel": 0}, {"type": "note_off", "time": 8367, "note": 82, "velocity": 116, "channel": 0}, {"type": "note_on", "time": 804, "note": 80, "velocity": 104, "channel": 0}, {"type": "note_off", "time": 3701, "note": 80, "velocity": 104, "channel": 0}, {"type": "note_on", "time": 482, "note": 82, "velocity": 113, "channel": 0}, {"type": "note_off", "time": 6677, "note": 82, "velocity": 113, "channel": 0}, {"type": "note_on", "time": 1287, "note": 80, "velocity": 111, "channel": 0}, {"type": "note_off", "time": 4907, "note": 80, "velocity": 111, "channel": 0}, {"type": "note_on", "time": 1126, "note": 77, "velocity": 110, "channel": 0}, {"type": "note_off", "time": 5953, "note": 77, "velocity": 110, "channel": 0}, {"type": "note_on", "time": 1689, "note": 75, "velocity": 112, "channel": 0}, {"type": "note_off", "time": 6436, "note": 75, "velocity": 112, "channel": 0}, {"type": "note_on", "time": 1126, "note": 72, "velocity": 97, "channel": 0}, {"type": "note_off", "time": 5471, "note": 72, "velocity": 97, "channel": 0}, {"type": "note_on", "time": 965, "note": 70, "velocity": 93, "channel": 0}, {"type": "note_off", "time": 4586, "note": 70, "velocity": 93, "channel": 0}, {"type": "note_on", "time": 885, "note": 72, "velocity": 100, "channel": 0}, {"type": "note_off", "time": 5953, "note": 72, "velocity": 100, "channel": 0}, {"type": "note_on", "time": 1206, "note": 70, "velocity": 92, "channel": 0}, {"type": "note_off", "time": 6195, "note": 70, "velocity": 92, "channel": 0}, {"type": "note_on", "time": 643, "note": 72, "velocity": 100, "channel": 0}, {"type": "note_off", "time": 6275, "note": 72, "velocity": 100, "channel": 0}, {"type": "note_on", "time": 1448, "note": 70, "velocity": 101, "channel": 0}, {"type": "note_off", "time": 5873, "note": 70, "velocity": 101, "channel": 0}, {"type": "note_on", "time": 241, "note": 68, "velocity": 107, "channel": 0}, {"type": "note_off", "time": 6758, "note": 68, "velocity": 107, "channel": 0}, {"type": "note_on", "time": 1930, "note": 68, "velocity": 107, "channel": 0}, {"type": "note_off", "time": 5310, "note": 68, "velocity": 107, "channel": 0}, {"type": "note_on", "time": 482, "note": 65, "velocity": 106, "channel": 0}, {"type": "note_off", "time": 6517, "note": 65, "velocity": 106, "channel": 0}, {"type": "note_on", "time": 2172, "note": 63, "velocity": 102, "channel": 0}, {"type": "note_off", "time": 5068, "note": 63, "velocity": 102, "channel": 0}, {"type": "note_on", "time": 563, "note": 60, "velocity": 92, "channel": 0}, {"type": "note_off", "time": 6919, "note": 60, "velocity": 92, "channel": 0}, {"type": "note_on", "time": 1689, "note": 62, "velocity": 96, "channel": 0}, {"type": "note_off", "time": 4264, "note": 62, "velocity": 96, "channel": 0}, {"type": "note_on", "time": 1448, "note": 65, "velocity": 94, "channel": 0}, {"type": "note_off", "time": 6517, "note": 65, "velocity": 94, "channel": 0}, {"type": "note_on", "time": 1689, "note": 70, "velocity": 94, "channel": 0}, {"type": "note_off", "time": 5632, "note": 70, "velocity": 94, "channel": 0}, {"type": "note_on", "time": 1448, "note": 72, "velocity": 94, "channel": 0}, {"type": "note_off", "time": 6999, "note": 72, "velocity": 94, "channel": 0}, {"type": "note_on", "time": 7080, "note": 77, "velocity": 105, "channel": 0}, {"type": "note_off", "time": 5310, "note": 77, "velocity": 105, "channel": 0}, {"type": "note_on", "time": 8448, "note": 71, "velocity": 90, "channel": 0}, {"type": "note_off", "time": 2816, "note": 71, "velocity": 90, "channel": 0}, {"type": "note_on", "time": 402, "note": 73, "velocity": 95, "channel": 0}, {"type": "note_off", "time": 2252, "note": 73, "velocity": 95, "channel": 0}, {"type": "note_on", "time": 160, "note": 74, "velocity": 100, "channel": 0}, {"type": "note_off", "time": 17781, "note": 74, "velocity": 100, "channel": 0}, {"type": "note_on", "time": 1340, "note": 65, "velocity": 85, "channel": 0}, {"type": "note_off", "time": 28059, "note": 65, "velocity": 85, "channel": 0}, {"type": "note_on", "time": 116989, "note": 79, "velocity": 107, "channel": 0}, {"type": "note_off", "time": 3507, "note": 79, "velocity": 107, "channel": 0}, {"type": "note_on", "time": 1357, "note": 77, "velocity": 120, "channel": 0}, {"type": "note_off", "time": 7467, "note": 77, "velocity": 120, "channel": 0}, {"type": "note_on", "time": 7014, "note": 80, "velocity": 119, "channel": 0}, {"type": "note_off", "time": 8825, "note": 80, "velocity": 119, "channel": 0}, {"type": "note_on", "time": 21383, "note": 80, "velocity": 121, "channel": 0}, {"type": "note_off", "time": 6222, "note": 80, "velocity": 121, "channel": 0}, {"type": "note_on", "time": 11993, "note": 77, "velocity": 118, "channel": 0}, {"type": "note_off", "time": 6336, "note": 77, "velocity": 118, "channel": 0}, {"type": "note_on", "time": 1810, "note": 72, "velocity": 99, "channel": 0}, {"type": "note_off", "time": 7467, "note": 72, "velocity": 99, "channel": 0}, {"type": "note_on", "time": 27606, "note": 72, "velocity": 100, "channel": 0}, {"type": "note_off", "time": 5091, "note": 72, "velocity": 100, "channel": 0}, {"type": "note_on", "time": 1697, "note": 77, "velocity": 118, "channel": 0}, {"type": "note_off", "time": 9617, "note": 77, "velocity": 118, "channel": 0}, {"type": "note_on", "time": 3394, "note": 80, "velocity": 115, "channel": 0}, {"type": "note_off", "time": 8598, "note": 80, "velocity": 115, "channel": 0}, {"type": "note_on", "time": 27833, "note": 80, "velocity": 121, "channel": 0}, {"type": "note_off", "time": 5883, "note": 80, "velocity": 121, "channel": 0}, {"type": "note_on", "time": 7014, "note": 80, "velocity": 120, "channel": 0}, {"type": "note_off", "time": 5996, "note": 80, "velocity": 120, "channel": 0}, {"type": "note_on", "time": 2489, "note": 77, "velocity": 116, "channel": 0}, {"type": "note_off", "time": 5770, "note": 77, "velocity": 116, "channel": 0}, {"type": "note_on", "time": 1131, "note": 77, "velocity": 115, "channel": 0}, {"type": "note_off", "time": 5770, "note": 77, "velocity": 115, "channel": 0}, {"type": "note_on", "time": 1131, "note": 72, "velocity": 92, "channel": 0}, {"type": "note_off", "time": 5770, "note": 72, "velocity": 92, "channel": 0}, {"type": "note_on", "time": 18329, "note": 70, "velocity": 111, "channel": 0}, {"type": "note_off", "time": 5657, "note": 70, "velocity": 111, "channel": 0}, {"type": "note_on", "time": 2245, "note": 77, "velocity": 80, "channel": 0}, {"type": "note_off", "time": 4103, "note": 77, "velocity": 80, "channel": 0}, {"type": "note_on", "time": 1126, "note": 77, "velocity": 82, "channel": 0}, {"type": "note_off", "time": 3701, "note": 77, "velocity": 82, "channel": 0}, {"type": "note_on", "time": 9574, "note": 82, "velocity": 119, "channel": 0}, {"type": "note_off", "time": 6919, "note": 82, "velocity": 119, "channel": 0}, {"type": "note_on", "time": 36929, "note": 82, "velocity": 125, "channel": 0}, {"type": "note_off", "time": 7804, "note": 82, "velocity": 125, "channel": 0}, {"type": "note_on", "time": 912, "note": 70, "velocity": 116, "channel": 0}, {"type": "note_off", "time": 4638, "note": 70, "velocity": 116, "channel": 0}, {"type": "note_on", "time": 905, "note": 58, "velocity": 98, "channel": 0}, {"type": "note_off", "time": 9277, "note": 58, "velocity": 98, "channel": 0}, {"type": "note_on", "time": 55309, "note": 56, "velocity": 108, "channel": 0}, {"type": "note_off", "time": 4264, "note": 56, "velocity": 108, "channel": 0}, {"type": "note_on", "time": 1126, "note": 68, "velocity": 100, "channel": 0}, {"type": "note_off", "time": 1640, "note": 68, "velocity": 100, "channel": 0}, {"type": "note_on", "time": 773, "note": 65, "velocity": 108, "channel": 0}, {"type": "note_off", "time": 1866, "note": 65, "velocity": 108, "channel": 0}, {"type": "note_on", "time": 1190, "note": 63, "velocity": 109, "channel": 0}, {"type": "note_off", "time": 4505, "note": 63, "velocity": 109, "channel": 0}, {"type": "note_on", "time": 829, "note": 65, "velocity": 101, "channel": 0}, {"type": "note_off", "time": 2545, "note": 65, "velocity": 101, "channel": 0}, {"type": "note_on", "time": 678, "note": 67, "velocity": 96, "channel": 0}, {"type": "note_off", "time": 2885, "note": 67, "velocity": 96, "channel": 0}, {"type": "note_on", "time": 382, "note": 70, "velocity": 111, "channel": 0}, {"type": "note_off", "time": 3218, "note": 70, "velocity": 111, "channel": 0}, {"type": "note_on", "time": 1850, "note": 59, "velocity": 101, "channel": 0}, {"type": "note_off", "time": 3861, "note": 59, "velocity": 101, "channel": 0}, {"type": "note_on", "time": 926, "note": 62, "velocity": 104, "channel": 0}, {"type": "note_off", "time": 3960, "note": 62, "velocity": 104, "channel": 0}, {"type": "note_on", "time": 745, "note": 63, "velocity": 100, "channel": 0}, {"type": "note_off", "time": 1850, "note": 63, "velocity": 100, "channel": 0}, {"type": "note_on", "time": 643, "note": 62, "velocity": 104, "channel": 0}, {"type": "note_off", "time": 2011, "note": 62, "velocity": 104, "channel": 0}, {"type": "note_on", "time": 462, "note": 67, "velocity": 99, "channel": 0}, {"type": "note_off", "time": 1753, "note": 67, "velocity": 99, "channel": 0}, {"type": "note_on", "time": 1074, "note": 71, "velocity": 101, "channel": 0}, {"type": "note_off", "time": 2489, "note": 71, "velocity": 101, "channel": 0}, {"type": "note_on", "time": 509, "note": 74, "velocity": 105, "channel": 0}, {"type": "note_off", "time": 2376, "note": 74, "velocity": 105, "channel": 0}, {"type": "note_on", "time": 226, "note": 77, "velocity": 110, "channel": 0}, {"type": "note_off", "time": 2036, "note": 77, "velocity": 110, "channel": 0}, {"type": "note_on", "time": 226, "note": 79, "velocity": 111, "channel": 0}, {"type": "note_off", "time": 2489, "note": 79, "velocity": 111, "channel": 0}, {"type": "note_on", "time": 509, "note": 83, "velocity": 105, "channel": 0}, {"type": "note_off", "time": 3394, "note": 83, "velocity": 105, "channel": 0}, {"type": "note_on", "time": 1521, "note": 87, "velocity": 98, "channel": 0}, {"type": "note_off", "time": 5792, "note": 87, "velocity": 98, "channel": 0}, {"type": "note_on", "time": 832, "note": 86, "velocity": 81, "channel": 0}, {"type": "note_off", "time": 1923, "note": 86, "velocity": 81, "channel": 0}, {"type": "note_on", "time": 565, "note": 83, "velocity": 93, "channel": 0}, {"type": "note_off", "time": 1979, "note": 83, "velocity": 93, "channel": 0}, {"type": "note_on", "time": 282, "note": 82, "velocity": 104, "channel": 0}, {"type": "note_off", "time": 2658, "note": 82, "velocity": 104, "channel": 0}, {"type": "note_on", "time": 1018, "note": 78, "velocity": 102, "channel": 0}, {"type": "note_off", "time": 1584, "note": 78, "velocity": 102, "channel": 0}, {"type": "note_on", "time": 509, "note": 77, "velocity": 109, "channel": 0}, {"type": "note_off", "time": 1414, "note": 77, "velocity": 109, "channel": 0}, {"type": "note_on", "time": 565, "note": 75, "velocity": 105, "channel": 0}, {"type": "note_off", "time": 1188, "note": 75, "velocity": 105, "channel": 0}, {"type": "note_on", "time": 282, "note": 74, "velocity": 103, "channel": 0}, {"type": "note_off", "time": 2545, "note": 74, "velocity": 103, "channel": 0}, {"type": "note_on", "time": 509, "note": 70, "velocity": 94, "channel": 0}, {"type": "note_off", "time": 2093, "note": 70, "velocity": 94, "channel": 0}, {"type": "note_on", "time": 848, "note": 66, "velocity": 98, "channel": 0}, {"type": "note_off", "time": 1357, "note": 66, "velocity": 98, "channel": 0}, {"type": "note_on", "time": 1253, "note": 65, "velocity": 85, "channel": 0}, {"type": "note_off", "time": 5310, "note": 65, "velocity": 85, "channel": 0}, {"type": "note_on", "time": 1299, "note": 59, "velocity": 89, "channel": 0}, {"type": "note_off", "time": 3507, "note": 59, "velocity": 89, "channel": 0}, {"type": "note_on", "time": 0, "note": 61, "velocity": 98, "channel": 0}, {"type": "note_off", "time": 3846, "note": 61, "velocity": 98, "channel": 0}, {"type": "note_on", "time": 226, "note": 59, "velocity": 93, "channel": 0}, {"type": "note_off", "time": 2828, "note": 59, "velocity": 93, "channel": 0}, {"type": "note_on", "time": 622, "note": 61, "velocity": 95, "channel": 0}, {"type": "note_off", "time": 2262, "note": 61, "velocity": 95, "channel": 0}, {"type": "note_on", "time": 452, "note": 59, "velocity": 96, "channel": 0}, {"type": "note_off", "time": 3620, "note": 59, "velocity": 96, "channel": 0}, {"type": "note_on", "time": 622, "note": 61, "velocity": 101, "channel": 0}, {"type": "note_off", "time": 2715, "note": 61, "velocity": 101, "channel": 0}, {"type": "note_on", "time": 848, "note": 59, "velocity": 100, "channel": 0}, {"type": "note_off", "time": 3054, "note": 59, "velocity": 100, "channel": 0}, {"type": "note_on", "time": 452, "note": 60, "velocity": 104, "channel": 0}, {"type": "note_off", "time": 2262, "note": 60, "velocity": 104, "channel": 0}, {"type": "note_on", "time": 848, "note": 59, "velocity": 98, "channel": 0}, {"type": "note_off", "time": 2941, "note": 59, "velocity": 98, "channel": 0}, {"type": "note_on", "time": 509, "note": 61, "velocity": 103, "channel": 0}, {"type": "note_off", "time": 3733, "note": 61, "velocity": 103, "channel": 0}, {"type": "note_on", "time": 339, "note": 59, "velocity": 100, "channel": 0}, {"type": "note_off", "time": 3224, "note": 59, "velocity": 100, "channel": 0}, {"type": "note_on", "time": 282, "note": 60, "velocity": 104, "channel": 0}, {"type": "note_off", "time": 2941, "note": 60, "velocity": 104, "channel": 0}, {"type": "note_on", "time": 678, "note": 61, "velocity": 102, "channel": 0}, {"type": "note_off", "time": 3394, "note": 61, "velocity": 102, "channel": 0}, {"type": "note_on", "time": 2123, "note": 60, "velocity": 96, "channel": 0}, {"type": "note_off", "time": 15850, "note": 60, "velocity": 96, "channel": 0}, {"type": "note_on", "time": 39163, "note": 63, "velocity": 94, "channel": 0}, {"type": "note_off", "time": 4865, "note": 63, "velocity": 94, "channel": 0}, {"type": "note_on", "time": 678, "note": 65, "velocity": 104, "channel": 0}, {"type": "note_off", "time": 4186, "note": 65, "velocity": 104, "channel": 0}, {"type": "note_on", "time": 1923, "note": 68, "velocity": 108, "channel": 0}, {"type": "note_off", "time": 5261, "note": 68, "velocity": 108, "channel": 0}, {"type": "note_on", "time": 1244, "note": 70, "velocity": 105, "channel": 0}, {"type": "note_off", "time": 6336, "note": 70, "velocity": 105, "channel": 0}, {"type": "note_on", "time": 848, "note": 75, "velocity": 113, "channel": 0}, {"type": "note_off", "time": 5826, "note": 75, "velocity": 113, "channel": 0}, {"type": "note_on", "time": 848, "note": 77, "velocity": 109, "channel": 0}, {"type": "note_off", "time": 5091, "note": 77, "velocity": 109, "channel": 0}, {"type": "note_on", "time": 509, "note": 80, "velocity": 112, "channel": 0}, {"type": "note_off", "time": 9843, "note": 80, "velocity": 112, "channel": 0}, {"type": "note_on", "time": 1866, "note": 75, "velocity": 104, "channel": 0}, {"type": "note_off", "time": 3111, "note": 75, "velocity": 104, "channel": 0}, {"type": "note_on", "time": 1753, "note": 77, "velocity": 119, "channel": 0}, {"type": "note_off", "time": 7693, "note": 77, "velocity": 119, "channel": 0}, {"type": "note_on", "time": 452, "note": 72, "velocity": 92, "channel": 0}, {"type": "note_off", "time": 5430, "note": 72, "velocity": 92, "channel": 0}, {"type": "note_on", "time": 339, "note": 75, "velocity": 110, "channel": 0}, {"type": "note_off", "time": 6845, "note": 75, "velocity": 110, "channel": 0}, {"type": "note_on", "time": 905, "note": 70, "velocity": 105, "channel": 0}, {"type": "note_off", "time": 6449, "note": 70, "velocity": 105, "channel": 0}, {"type": "note_on", "time": 1923, "note": 65, "velocity": 109, "channel": 0}, {"type": "note_off", "time": 6618, "note": 65, "velocity": 109, "channel": 0}, {"type": "note_on", "time": 1131, "note": 65, "velocity": 109, "channel": 0}, {"type": "note_off", "time": 5487, "note": 65, "velocity": 109, "channel": 0}, {"type": "note_on", "time": 1018, "note": 65, "velocity": 107, "channel": 0}, {"type": "note_off", "time": 5148, "note": 65, "velocity": 107, "channel": 0}, {"type": "note_on", "time": 2149, "note": 65, "velocity": 109, "channel": 0}, {"type": "note_off", "time": 5148, "note": 65, "velocity": 109, "channel": 0}, {"type": "note_on", "time": 1923, "note": 65, "velocity": 113, "channel": 0}, {"type": "note_off", "time": 3564, "note": 65, "velocity": 113, "channel": 0}, {"type": "note_on", "time": 622, "note": 64, "velocity": 105, "channel": 0}, {"type": "note_off", "time": 3167, "note": 64, "velocity": 105, "channel": 0}, {"type": "note_on", "time": 565, "note": 65, "velocity": 107, "channel": 0}, {"type": "note_off", "time": 5713, "note": 65, "velocity": 107, "channel": 0}, {"type": "note_on", "time": 1584, "note": 63, "velocity": 104, "channel": 0}, {"type": "note_off", "time": 6222, "note": 63, "velocity": 104, "channel": 0}, {"type": "note_on", "time": 1301, "note": 65, "velocity": 96, "channel": 0}, {"type": "note_off", "time": 21666, "note": 65, "velocity": 96, "channel": 0}, {"type": "note_on", "time": 89269, "note": 80, "velocity": 119, "channel": 0}, {"type": "note_off", "time": 6732, "note": 80, "velocity": 119, "channel": 0}, {"type": "note_on", "time": 1753, "note": 77, "velocity": 123, "channel": 0}, {"type": "note_off", "time": 5826, "note": 77, "velocity": 123, "channel": 0}, {"type": "note_on", "time": 735, "note": 75, "velocity": 114, "channel": 0}, {"type": "note_off", "time": 7637, "note": 75, "velocity": 114, "channel": 0}, {"type": "note_on", "time": 735, "note": 73, "velocity": 96, "channel": 0}, {"type": "note_off", "time": 5034, "note": 73, "velocity": 96, "channel": 0}, {"type": "note_on", "time": 1188, "note": 74, "velocity": 107, "channel": 0}, {"type": "note_off", "time": 6336, "note": 74, "velocity": 107, "channel": 0}, {"type": "note_on", "time": 1131, "note": 71, "velocity": 99, "channel": 0}, {"type": "note_off", "time": 4582, "note": 71, "velocity": 99, "channel": 0}, {"type": "note_on", "time": 1470, "note": 67, "velocity": 105, "channel": 0}, {"type": "note_off", "time": 5940, "note": 67, "velocity": 105, "channel": 0}, {"type": "note_on", "time": 539, "note": 66, "velocity": 101, "channel": 0}, {"type": "note_off", "time": 1689, "note": 66, "velocity": 101, "channel": 0}, {"type": "note_on", "time": 1448, "note": 62, "velocity": 96, "channel": 0}, {"type": "note_off", "time": 3942, "note": 62, "velocity": 96, "channel": 0}, {"type": "note_on", "time": 2735, "note": 63, "velocity": 96, "channel": 0}, {"type": "note_off", "time": 4827, "note": 63, "velocity": 96, "channel": 0}, {"type": "note_on", "time": 724, "note": 65, "velocity": 104, "channel": 0}, {"type": "note_off", "time": 18666, "note": 65, "velocity": 104, "channel": 0}, {"type": "note_on", "time": 885, "note": 66, "velocity": 99, "channel": 0}, {"type": "note_off", "time": 13838, "note": 66, "velocity": 99, "channel": 0}, {"type": "note_on", "time": 4103, "note": 63, "velocity": 95, "channel": 0}, {"type": "note_off", "time": 22930, "note": 63, "velocity": 95, "channel": 0}, {"type": "end_of_track", "time": 0}]]}