{"ticks_per_beat": 504, "tracks": [[{"type": "track_name", "name": "Melody", "time": 0}, {"type": "set_tempo", "tempo": 937500, "time": 0}, {"type": "key_signature", "key": "Bb", "time": 0}, {"type": "time_signature", "numerator": 4, "denominator": 4, "clocks_per_click": 24, "notated_32nd_notes_per_beat": 8, "time": 0}, {"type": "note_on", "time": 4619, "note": 75, "velocity": 127, "channel": 0}, {"type": "note_off", "time": 93, "note": 75, "velocity": 127, "channel": 0}, {"type": "note_on", "time": 0, "note": 76, "velocity": 114, "channel": 0}, {"type": "note_off", "time": 714, "note": 76, "velocity": 114, "channel": 0}, {"type": "note_on", "time": 18, "note": 70, "velocity": 109, "channel": 0}, {"type": "note_off", "time": 89, "note": 70, "velocity": 109, "channel": 0}, {"type": "note_on", "time": 8, "note": 67, "velocity": 114, "channel": 0}, {"type": "note_off", "time": 74, "note": 67, "velocity": 114, "channel": 0}, {"type": "note_on", "time": 4, "note": 69, "velocity": 117, "channel": 0}, {"type": "note_off", "time": 61, "note": 69, "velocity": 117, "channel": 0}, {"type": "note_on", "time": 0, "note": 71, "velocity": 120, "channel": 0}, {"type": "note_off", "time": 70, "note": 71, "velocity": 120, "channel": 0}, {"type": "note_on", "time": 6, "note": 67, "velocity": 115, "channel": 0}, {"type": "note_off", "time": 162, "note": 67, "velocity": 115, "channel": 0}, {"type": "note_on", "time": 4, "note": 63, "velocity": 118, "channel": 0}, {"type": "note_off", "time": 98, "note": 63, "velocity": 118, "channel": 0}, {"type": "note_on", "time": 0, "note": 65, "velocity": 115, "channel": 0}, {"type": "note_off", "time": 89, "note": 65, "velocity": 115, "channel": 0}, {"type": "note_on", "time": 21, "note": 65, "velocity": 116, "channel": 0}, {"type": "note_off", "time": 17, "note": 65, "velocity": 116, "channel": 0}, {"type": "note_on", "time": 0, "note": 66, "velocity": 115, "channel": 0}, {"type": "note_off", "time": 70, "note": 66, "velocity": 115, "channel": 0}, {"type": "note_on", "time": 0, "note": 65, "velocity": 117, "channel": 0}, {"type": "note_off", "time": 61, "note": 65, "velocity": 117, "channel": 0}, {"type": "note_on", "time": 0, "note": 63, "velocity": 112, "channel": 0}, {"type": "note_off", "time": 103, "note": 63, "velocity": 112, "channel": 0}, {"type": "note_on", "time": 24, "note": 65, "velocity": 110, "channel": 0}, {"type": "note_off", "time": 320, "note": 65, "velocity": 110, "channel": 0}, {"type": "note_on", "time": 15, "note": 63, "velocity": 119, "channel": 0}, {"type": "note_off", "time": 54, "note": 63, "velocity": 119, "channel": 0}, {"type": "note_on", "time": 13, "note": 61, "velocity": 109, "channel": 0}, {"type": "note_off", "time": 78, "note": 61, "velocity": 109, "channel": 0}, {"type": "note_on", "time": 24, "note": 62, "velocity": 101, "channel": 0}, {"type": "note_off", "time": 133, "note": 62, "velocity": 101, "channel": 0}, {"type": "note_on", "time": 6, "note": 63, "velocity": 110, "channel": 0}, {"type": "note_off", "time": 98, "note": 63, "velocity": 110, "channel": 0}, {"type": "note_on", "time": 17, "note": 65, "velocity": 106, "channel": 0}, {"type": "note_off", "time": 96, "note": 65, "velocity": 106, "channel": 0}, {"type": "note_on", "time": 26, "note": 66, "velocity": 110, "channel": 0}, {"type": "note_off", "time": 39, "note": 66, "velocity": 110, "channel": 0}, {"type": "note_on", "time": 0, "note": 67, "velocity": 112, "channel": 0}, {"type": "note_off", "time": 94, "note": 67, "velocity": 112, "channel": 0}, {"type": "note_on", "time": 15, "note": 63, "velocity": 117, "channel": 0}, {"type": "note_off", "time": 92, "note": 63, "velocity": 117, "channel": 0}, {"type": "note_on", "time": 39, "note": 65, "velocity": 109, "channel": 0}, {"type": "note_off", "time": 89, "note": 65, "velocity": 109, "channel": 0}, {"type": "note_on", "time": 15, "note": 61, "velocity": 102, "channel": 0}, {"type": "note_off", "time": 94, "note": 61, "velocity": 102, "channel": 0}, {"type": "note_on", "time": 8, "note": 58, "velocity": 96, "channel": 0}, {"type": "note_off", "time": 83, "note": 58, "velocity": 96, "channel": 0}, {"type": "note_on", "time": 39, "note": 61, "velocity": 100, "channel": 0}, {"type": "note_off", "time": 81, "note": 61, "velocity": 100, "channel": 0}, {"type": "note_on", "time": 28, "note": 58, "velocity": 98, "channel": 0}, {"type": "note_off", "time": 94, "note": 58, "velocity": 98, "channel": 0}, {"type": "note_on", "time": 6, "note": 60, "velocity": 101, "channel": 0}, {"type": "note_off", "time": 72, "note": 60, "velocity": 101, "channel": 0}, {"type": "note_on", "time": 10, "note": 58, "velocity": 98, "channel": 0}, {"type": "note_off", "time": 125, "note": 58, "velocity": 98, "channel": 0}, {"type": "note_on", "time": 26, "note": 53, "velocity": 88, "channel": 0}, {"type": "note_off", "time": 197, "note": 53, "velocity": 88, "channel": 0}, {"type": "note_on", "time": 577, "note": 58, "velocity": 101, "channel": 0}, {"type": "note_off", "time": 44, "note": 58, "velocity": 101, "channel": 0}, {"type": "note_on", "time": 0, "note": 55, "velocity": 102, "channel": 0}, {"type": "note_on", "time": 17, "note": 52, "velocity": 102, "channel": 0}, {"type": "note_off", "time": 0, "note": 55, "velocity": 102, "channel": 0}, {"type": "note_off", "time": 23, "note": 52, "velocity": 102, "channel": 0}, {"type": "note_on", "time": 9, "note": 51, "velocity": 101, "channel": 0}, {"type": "note_off", "time": 80, "note": 51, "velocity": 101, "channel": 0}, {"type": "note_on", "time": 14, "note": 50, "velocity": 100, "channel": 0}, {"type": "note_off", "time": 87, "note": 50, "velocity": 100, "channel": 0}, {"type": "note_on", "time": 21, "note": 53, "velocity": 96, "channel": 0}, {"type": "note_off", "time": 93, "note": 53, "velocity": 96, "channel": 0}, {"type": "note_on", "time": 21, "note": 58, "velocity": 100, "channel": 0}, {"type": "note_off", "time": 92, "note": 58, "velocity": 100, "channel": 0}, {"type": "note_on", "time": 4, "note": 57, "velocity": 89, "channel": 0}, {"type": "note_off", "time": 37, "note": 57, "velocity": 89, "channel": 0}, {"type": "note_on", "time": 1, "note": 58, "velocity": 85, "channel": 0}, {"type": "note_off", "time": 1426, "note": 58, "velocity": 85, "channel": 0}, {"type": "note_on", "time": 42, "note": 54, "velocity": 95, "channel": 0}, {"type": "note_off", "time": 57, "note": 54, "velocity": 95, "channel": 0}, {"type": "note_on", "time": 0, "note": 55, "velocity": 98, "channel": 0}, {"type": "note_off", "time": 76, "note": 55, "velocity": 98, "channel": 0}, {"type": "note_on", "time": 17, "note": 53, "velocity": 84, "channel": 0}, {"type": "note_off", "time": 807, "note": 53, "velocity": 84, "channel": 0}, {"type": "note_on", "time": 936, "note": 74, "velocity": 113, "channel": 0}, {"type": "note_off", "time": 92, "note": 74, "velocity": 113, "channel": 0}, {"type": "note_on", "time": 10, "note": 75, "velocity": 108, "channel": 0}, {"type": "note_off", "time": 983, "note": 75, "velocity": 108, "channel": 0}, {"type": "note_on", "time": 37, "note": 69, "velocity": 113, "channel": 0}, {"type": "note_off", "time": 41, "note": 69, "velocity": 113, "channel": 0}, {"type": "note_on", "time": 6, "note": 71, "velocity": 114, "channel": 0}, {"type": "note_off", "time": 78, "note": 71, "velocity": 114, "channel": 0}, {"type": "note_on", "time": 41, "note": 63, "velocity": 110, "channel": 0}, {"type": "note_off", "time": 89, "note": 63, "velocity": 110, "channel": 0}, {"type": "note_on", "time": 4, "note": 65, "velocity": 106, "channel": 0}, {"type": "note_off", "time": 94, "note": 65, "velocity": 106, "channel": 0}, {"type": "note_on", "time": 8, "note": 66, "velocity": 102, "channel": 0}, {"type": "note_on", "time": 74, "note": 65, "velocity": 106, "channel": 0}, {"type": "note_off", "time": 0, "note": 66, "velocity": 102, "channel": 0}, {"type": "note_off", "time": 70, "note": 65, "velocity": 106, "channel": 0}, {"type": "note_on", "time": 15, "note": 63, "velocity": 105, "channel": 0}, {"type": "note_off", "time": 65, "note": 63, "velocity": 105, "channel": 0}, {"type": "note_on", "time": 46, "note": 65, "velocity": 98, "channel": 0}, {"type": "note_off", "time": 254, "note": 65, "velocity": 98, "channel": 0}, {"type": "note_on", "time": 10, "note": 63, "velocity": 113, "channel": 0}, {"type": "note_off", "time": 76, "note": 63, "velocity": 113, "channel": 0}, {"type": "note_on", "time": 10, "note": 60, "velocity": 101, "channel": 0}, {"type": "note_off", "time": 59, "note": 60, "velocity": 101, "channel": 0}, {"type": "note_on", "time": 10, "note": 62, "velocity": 101, "channel": 0}, {"type": "note_off", "time": 43, "note": 62, "velocity": 101, "channel": 0}, {"type": "note_on", "time": 10, "note": 58, "velocity": 97, "channel": 0}, {"type": "note_off", "time": 100, "note": 58, "velocity": 97, "channel": 0}, {"type": "note_on", "time": 19, "note": 58, "velocity": 95, "channel": 0}, {"type": "note_off", "time": 96, "note": 58, "velocity": 95, "channel": 0}, {"type": "note_on", "time": 28, "note": 56, "velocity": 86, "channel": 0}, {"type": "note_off", "time": 85, "note": 56, "velocity": 86, "channel": 0}, {"type": "note_on", "time": 15, "note": 58, "velocity": 91, "channel": 0}, {"type": "note_off", "time": 315, "note": 58, "velocity": 91, "channel": 0}, {"type": "note_on", "time": 0, "note": 56, "velocity": 89, "channel": 0}, {"type": "note_off", "time": 63, "note": 56, "velocity": 89, "channel": 0}, {"type": "note_on", "time": 1, "note": 51, "velocity": 96, "channel": 0}, {"type": "note_off", "time": 49, "note": 51, "velocity": 96, "channel": 0}, {"type": "note_on", "time": 0, "note": 52, "velocity": 97, "channel": 0}, {"type": "note_off", "time": 34, "note": 52, "velocity": 97, "channel": 0}, {"type": "note_on", "time": 1040, "note": 48, "velocity": 103, "channel": 0}, {"type": "note_off", "time": 82, "note": 48, "velocity": 103, "channel": 0}, {"type": "note_on", "time": 24, "note": 51, "velocity": 93, "channel": 0}, {"type": "note_off", "time": 108, "note": 51, "velocity": 93, "channel": 0}, {"type": "note_on", "time": 12, "note": 52, "velocity": 103, "channel": 0}, {"type": "note_off", "time": 106, "note": 52, "velocity": 103, "channel": 0}, {"type": "note_on", "time": 41, "note": 53, "velocity": 103, "channel": 0}, {"type": "note_off", "time": 125, "note": 53, "velocity": 103, "channel": 0}, {"type": "note_on", "time": 66, "note": 58, "velocity": 107, "channel": 0}, {"type": "note_off", "time": 151, "note": 58, "velocity": 107, "channel": 0}, {"type": "note_on", "time": 6, "note": 56, "velocity": 99, "channel": 0}, {"type": "note_off", "time": 76, "note": 56, "velocity": 99, "channel": 0}, {"type": "note_on", "time": 15, "note": 58, "velocity": 106, "channel": 0}, {"type": "note_off", "time": 152, "note": 58, "velocity": 106, "channel": 0}, {"type": "note_on", "time": 3, "note": 62, "velocity": 122, "channel": 0}, {"type": "note_off", "time": 42, "note": 62, "velocity": 122, "channel": 0}, {"type": "note_on", "time": 4, "note": 63, "velocity": 116, "channel": 0}, {"type": "note_off", "time": 106, "note": 63, "velocity": 116, "channel": 0}, {"type": "note_on", "time": 274, "note": 52, "velocity": 107, "channel": 0}, {"type": "note_off", "time": 102, "note": 52, "velocity": 107, "channel": 0}, {"type": "note_on", "time": 29, "note": 53, "velocity": 102, "channel": 0}, {"type": "note_off", "time": 123, "note": 53, "velocity": 102, "channel": 0}, {"type": "note_on", "time": 7, "note": 52, "velocity": 100, "channel": 0}, {"type": "note_off", "time": 124, "note": 52, "velocity": 100, "channel": 0}, {"type": "note_on", "time": 1, "note": 53, "velocity": 99, "channel": 0}, {"type": "note_off", "time": 102, "note": 53, "velocity": 99, "channel": 0}, {"type": "note_on", "time": 26, "note": 65, "velocity": 93, "channel": 0}, {"type": "note_off", "time": 223, "note": 65, "velocity": 93, "channel": 0}, {"type": "note_on", "time": 209, "note": 51, "velocity": 98, "channel": 0}, {"type": "note_off", "time": 138, "note": 51, "velocity": 98, "channel": 0}, {"type": "note_on", "time": 14, "note": 52, "velocity": 98, "channel": 0}, {"type": "note_off", "time": 120, "note": 52, "velocity": 98, "channel": 0}, {"type": "note_on", "time": 4, "note": 51, "velocity": 89, "channel": 0}, {"type": "note_off", "time": 62, "note": 51, "velocity": 89, "channel": 0}, {"type": "note_on", "time": 32, "note": 50, "velocity": 85, "channel": 0}, {"type": "note_on", "time": 18, "note": 53, "velocity": 104, "channel": 0}, {"type": "note_off", "time": 0, "note": 50, "velocity": 85, "channel": 0}, {"type": "note_off", "time": 104, "note": 53, "velocity": 104, "channel": 0}, {"type": "note_on", "time": 65, "note": 67, "velocity": 113, "channel": 0}, {"type": "note_off", "time": 123, "note": 67, "velocity": 113, "channel": 0}, {"type": "note_on", "time": 9, "note": 63, "velocity": 114, "channel": 0}, {"type": "note_off", "time": 115, "note": 63, "velocity": 114, "channel": 0}, {"type": "note_on", "time": 17, "note": 65, "velocity": 101, "channel": 0}, {"type": "note_off", "time": 131, "note": 65, "velocity": 101, "channel": 0}, {"type": "note_on", "time": 16, "note": 68, "velocity": 106, "channel": 0}, {"type": "note_off", "time": 232, "note": 68, "velocity": 106, "channel": 0}, {"type": "note_on", "time": 272, "note": 67, "velocity": 109, "channel": 0}, {"type": "note_off", "time": 140, "note": 67, "velocity": 109, "channel": 0}, {"type": "note_on", "time": 24, "note": 70, "velocity": 108, "channel": 0}, {"type": "note_off", "time": 107, "note": 70, "velocity": 108, "channel": 0}, {"type": "note_on", "time": 0, "note": 72, "velocity": 110, "channel": 0}, {"type": "note_off", "time": 30, "note": 72, "velocity": 110, "channel": 0}, {"type": "note_on", "time": 0, "note": 73, "velocity": 109, "channel": 0}, {"type": "note_off", "time": 30, "note": 73, "velocity": 109, "channel": 0}, {"type": "note_on", "time": 2, "note": 72, "velocity": 111, "channel": 0}, {"type": "note_off", "time": 85, "note": 72, "velocity": 111, "channel": 0}, {"type": "note_on", "time": 18, "note": 70, "velocity": 100, "channel": 0}, {"type": "note_off", "time": 880, "note": 70, "velocity": 100, "channel": 0}, {"type": "note_on", "time": 20, "note": 66, "velocity": 114, "channel": 0}, {"type": "note_off", "time": 40, "note": 66, "velocity": 114, "channel": 0}, {"type": "note_on", "time": 15, "note": 67, "velocity": 106, "channel": 0}, {"type": "note_off", "time": 104, "note": 67, "velocity": 106, "channel": 0}, {"type": "note_on", "time": 12, "note": 65, "velocity": 90, "channel": 0}, {"type": "note_off", "time": 786, "note": 65, "velocity": 90, "channel": 0}, {"type": "note_on", "time": 28, "note": 63, "velocity": 109, "channel": 0}, {"type": "note_off", "time": 93, "note": 63, "velocity": 109, "channel": 0}, {"type": "note_on", "time": 7, "note": 61, "velocity": 96, "channel": 0}, {"type": "note_off", "time": 65, "note": 61, "velocity": 96, "channel": 0}, {"type": "note_on", "time": 23, "note": 58, "velocity": 90, "channel": 0}, {"type": "note_off", "time": 49, "note": 58, "velocity": 90, "channel": 0}, {"type": "note_on", "time": 510, "note": 63, "velocity": 125, "channel": 0}, {"type": "note_off", "time": 106, "note": 63, "velocity": 125, "channel": 0}, {"type": "note_on", "time": 3, "note": 61, "velocity": 92, "channel": 0}, {"type": "note_off", "time": 39, "note": 61, "velocity": 92, "channel": 0}, {"type": "note_on", "time": 1, "note": 63, "velocity": 126, "channel": 0}, {"type": "note_off", "time": 99, "note": 63, "velocity": 126, "channel": 0}, {"type": "note_on", "time": 21, "note": 61, "velocity": 89, "channel": 0}, {"type": "note_off", "time": 40, "note": 61, "velocity": 89, "channel": 0}, {"type": "note_on", "time": 4, "note": 63, "velocity": 124, "channel": 0}, {"type": "note_off", "time": 101, "note": 63, "velocity": 124, "channel": 0}, {"type": "note_on", "time": 15, "note": 61, "velocity": 89, "channel": 0}, {"type": "note_off", "time": 54, "note": 61, "velocity": 89, "channel": 0}, {"type": "note_on", "time": 10, "note": 63, "velocity": 122, "channel": 0}, {"type": "note_off", "time": 93, "note": 63, "velocity": 122, "channel": 0}, {"type": "note_on", "time": 3, "note": 61, "velocity": 97, "channel": 0}, {"type": "note_off", "time": 54, "note": 61, "velocity": 97, "channel": 0}, {"type": "note_on", "time": 4, "note": 63, "velocity": 120, "channel": 0}, {"type": "note_off", "time": 121, "note": 63, "velocity": 120, "channel": 0}, {"type": "note_on", "time": 6, "note": 61, "velocity": 98, "channel": 0}, {"type": "note_off", "time": 71, "note": 61, "velocity": 98, "channel": 0}, {"type": "note_on", "time": 9, "note": 63, "velocity": 122, "channel": 0}, {"type": "note_on", "time": 29, "note": 64, "velocity": 118, "channel": 0}, {"type": "note_off", "time": 0, "note": 63, "velocity": 122, "channel": 0}, {"type": "note_off", "time": 71, "note": 64, "velocity": 118, "channel": 0}, {"type": "note_on", "time": 3, "note": 61, "velocity": 93, "channel": 0}, {"type": "note_off", "time": 43, "note": 61, "velocity": 93, "channel": 0}, {"type": "note_on", "time": 32, "note": 63, "velocity": 116, "channel": 0}, {"type": "note_off", "time": 84, "note": 63, "velocity": 116, "channel": 0}, {"type": "note_on", "time": 10, "note": 61, "velocity": 105, "channel": 0}, {"type": "note_off", "time": 65, "note": 61, "velocity": 105, "channel": 0}, {"type": "note_on", "time": 14, "note": 58, "velocity": 98, "channel": 0}, {"type": "note_off", "time": 68, "note": 58, "velocity": 98, "channel": 0}, {"type": "note_on", "time": 10, "note": 56, "velocity": 95, "channel": 0}, {"type": "note_off", "time": 39, "note": 56, "velocity": 95, "channel": 0}, {"type": "note_on", "time": 52, "note": 60, "velocity": 100, "channel": 0}, {"type": "note_off", "time": 30, "note": 60, "velocity": 100, "channel": 0}, {"type": "note_on", "time": 4, "note": 61, "velocity": 106, "channel": 0}, {"type": "note_off", "time": 70, "note": 61, "velocity": 106, "channel": 0}, {"type": "note_on", "time": 21, "note": 58, "velocity": 84, "channel": 0}, {"type": "note_off", "time": 498, "note": 58, "velocity": 84, "channel": 0}, {"type": "note_on", "time": 0, "note": 54, "velocity": 104, "channel": 0}, {"type": "note_on", "time": 48, "note": 55, "velocity": 109, "channel": 0}, {"type": "note_off", "time": 0, "note": 54, "velocity": 104, "channel": 0}, {"type": "note_off", "time": 52, "note": 55, "velocity": 109, "channel": 0}, {"type": "note_on", "time": 4, "note": 56, "velocity": 99, "channel": 0}, {"type": "note_off", "time": 509, "note": 56, "velocity": 99, "channel": 0}, {"type": "note_on", "time": 21, "note": 55, "velocity": 92, "channel": 0}, {"type": "note_off", "time": 500, "note": 55, "velocity": 92, "channel": 0}, {"type": "note_on", "time": 52, "note": 52, "velocity": 92, "channel": 0}, {"type": "note_off", "time": 43, "note": 52, "velocity": 92, "channel": 0}, {"type": "note_on", "time": 4, "note": 54, "velocity": 92, "channel": 0}, {"type": "note_off", "time": 579, "note": 54, "velocity": 92, "channel": 0}, {"type": "note_on", "time": 43, "note": 53, "velocity": 91, "channel": 0}, {"type": "note_off", "time": 285, "note": 53, "velocity": 91, "channel": 0}, {"type": "end_of_track", "time": 0}]]}