{"ticks_per_beat": 192, "tracks": [[{"type": "track_name", "name": "Melody", "time": 0}, {"type": "set_tempo", "tempo": 287081, "time": 0}, {"type": "key_signature", "key": "Bb", "time": 0}, {"type": "time_signature", "numerator": 4, "denominator": 4, "clocks_per_click": 24, "notated_32nd_notes_per_beat": 8, "time": 0}, {"type": "note_on", "time": 3223, "note": 56, "velocity": 101, "channel": 0}, {"type": "note_off", "time": 69, "note": 56, "velocity": 101, "channel": 0}, {"type": "note_on", "time": 13, "note": 61, "velocity": 105, "channel": 0}, {"type": "note_off", "time": 78, "note": 61, "velocity": 105, "channel": 0}, {"type": "note_on", "time": 12, "note": 61, "velocity": 109, "channel": 0}, {"type": "note_off", "time": 71, "note": 61, "velocity": 109, "channel": 0}, {"type": "note_on", "time": 21, "note": 66, "velocity": 111, "channel": 0}, {"type": "note_off", "time": 96, "note": 66, "velocity": 111, "channel": 0}, {"type": "note_on", "time": 16, "note": 66, "velocity": 114, "channel": 0}, {"type": "note_off", "time": 67, "note": 66, "velocity": 114, "channel": 0}, {"type": "note_on", "time": 5, "note": 64, "velocity": 108, "channel": 0}, {"type": "note_off", "time": 157, "note": 64, "velocity": 108, "channel": 0}, {"type": "note_on", "time": 27, "note": 56, "velocity": 95, "channel": 0}, {"type": "note_off", "time": 192, "note": 56, "velocity": 95, "channel": 0}, {"type": "note_on", "time": 557, "note": 55, "velocity": 104, "channel": 0}, {"type": "note_off", "time": 85, "note": 55, "velocity": 104, "channel": 0}, {"type": "note_on", "time": 17, "note": 56, "velocity": 98, "channel": 0}, {"type": "note_off", "time": 91, "note": 56, "velocity": 98, "channel": 0}, {"type": "note_on", "time": 11, "note": 59, "velocity": 89, "channel": 0}, {"type": "note_off", "time": 64, "note": 59, "velocity": 89, "channel": 0}, {"type": "note_on", "time": 27, "note": 61, "velocity": 109, "channel": 0}, {"type": "note_off", "time": 95, "note": 61, "velocity": 109, "channel": 0}, {"type": "note_on", "time": 12, "note": 64, "velocity": 95, "channel": 0}, {"type": "note_off", "time": 55, "note": 64, "velocity": 95, "channel": 0}, {"type": "note_on", "time": 2, "note": 66, "velocity": 118, "channel": 0}, {"type": "note_off", "time": 118, "note": 66, "velocity": 118, "channel": 0}, {"type": "note_on", "time": 6, "note": 64, "velocity": 113, "channel": 0}, {"type": "note_off", "time": 64, "note": 64, "velocity": 113, "channel": 0}, {"type": "note_on", "time": 12, "note": 63, "velocity": 116, "channel": 0}, {"type": "note_off", "time": 128, "note": 63, "velocity": 116, "channel": 0}, {"type": "note_on", "time": 18, "note": 58, "velocity": 96, "channel": 0}, {"type": "note_off", "time": 165, "note": 58, "velocity": 96, "channel": 0}, {"type": "note_on", "time": 1211, "note": 56, "velocity": 108, "channel": 0}, {"type": "note_off", "time": 47, "note": 56, "velocity": 108, "channel": 0}, {"type": "note_on", "time": 6, "note": 57, "velocity": 106, "channel": 0}, {"type": "note_off", "time": 48, "note": 57, "velocity": 106, "channel": 0}, {"type": "note_on", "time": 0, "note": 58, "velocity": 105, "channel": 0}, {"type": "note_off", "time": 29, "note": 58, "velocity": 105, "channel": 0}, {"type": "note_on", "time": 32, "note": 61, "velocity": 96, "channel": 0}, {"type": "note_off", "time": 25, "note": 61, "velocity": 96, "channel": 0}, {"type": "note_on", "time": 3, "note": 64, "velocity": 105, "channel": 0}, {"type": "note_off", "time": 28, "note": 64, "velocity": 105, "channel": 0}, {"type": "note_on", "time": 2, "note": 65, "velocity": 101, "channel": 0}, {"type": "note_off", "time": 26, "note": 65, "velocity": 101, "channel": 0}, {"type": "note_on", "time": 6, "note": 64, "velocity": 101, "channel": 0}, {"type": "note_off", "time": 80, "note": 64, "velocity": 101, "channel": 0}, {"type": "note_on", "time": 72, "note": 69, "velocity": 113, "channel": 0}, {"type": "note_off", "time": 38, "note": 69, "velocity": 113, "channel": 0}, {"type": "note_on", "time": 18, "note": 63, "velocity": 107, "channel": 0}, {"type": "note_off", "time": 20, "note": 63, "velocity": 107, "channel": 0}, {"type": "note_on", "time": 14, "note": 61, "velocity": 109, "channel": 0}, {"type": "note_off", "time": 40, "note": 61, "velocity": 109, "channel": 0}, {"type": "note_on", "time": 9, "note": 58, "velocity": 101, "channel": 0}, {"type": "note_off", "time": 31, "note": 58, "velocity": 101, "channel": 0}, {"type": "note_on", "time": 5, "note": 64, "velocity": 109, "channel": 0}, {"type": "note_off", "time": 37, "note": 64, "velocity": 109, "channel": 0}, {"type": "note_on", "time": 5, "note": 65, "velocity": 108, "channel": 0}, {"type": "note_off", "time": 38, "note": 65, "velocity": 108, "channel": 0}, {"type": "note_on", "time": 7, "note": 66, "velocity": 109, "channel": 0}, {"type": "note_off", "time": 41, "note": 66, "velocity": 109, "channel": 0}, {"type": "note_on", "time": 8, "note": 63, "velocity": 114, "channel": 0}, {"type": "note_off", "time": 95, "note": 63, "velocity": 114, "channel": 0}, {"type": "note_on", "time": 4, "note": 59, "velocity": 95, "channel": 0}, {"type": "note_off", "time": 60, "note": 59, "velocity": 95, "channel": 0}, {"type": "note_on", "time": 88, "note": 54, "velocity": 98, "channel": 0}, {"type": "note_off", "time": 29, "note": 54, "velocity": 98, "channel": 0}, {"type": "note_on", "time": 6, "note": 56, "velocity": 104, "channel": 0}, {"type": "note_off", "time": 47, "note": 56, "velocity": 104, "channel": 0}, {"type": "note_on", "time": 6, "note": 58, "velocity": 106, "channel": 0}, {"type": "note_off", "time": 18, "note": 58, "velocity": 106, "channel": 0}, {"type": "note_on", "time": 6, "note": 59, "velocity": 105, "channel": 0}, {"type": "note_off", "time": 26, "note": 59, "velocity": 105, "channel": 0}, {"type": "note_on", "time": 9, "note": 60, "velocity": 104, "channel": 0}, {"type": "note_off", "time": 27, "note": 60, "velocity": 104, "channel": 0}, {"type": "note_on", "time": 4, "note": 61, "velocity": 107, "channel": 0}, {"type": "note_off", "time": 47, "note": 61, "velocity": 107, "channel": 0}, {"type": "note_on", "time": 17, "note": 58, "velocity": 98, "channel": 0}, {"type": "note_off", "time": 53, "note": 58, "velocity": 98, "channel": 0}, {"type": "note_on", "time": 10, "note": 54, "velocity": 94, "channel": 0}, {"type": "note_off", "time": 32, "note": 54, "velocity": 94, "channel": 0}, {"type": "note_on", "time": 11, "note": 52, "velocity": 90, "channel": 0}, {"type": "note_off", "time": 20, "note": 52, "velocity": 90, "channel": 0}, {"type": "note_on", "time": 8, "note": 49, "velocity": 89, "channel": 0}, {"type": "note_off", "time": 25, "note": 49, "velocity": 89, "channel": 0}, {"type": "note_on", "time": 7, "note": 52, "velocity": 97, "channel": 0}, {"type": "note_off", "time": 124, "note": 52, "velocity": 97, "channel": 0}, {"type": "note_on", "time": 2174, "note": 69, "velocity": 116, "channel": 0}, {"type": "note_off", "time": 77, "note": 69, "velocity": 116, "channel": 0}, {"type": "note_on", "time": 6, "note": 70, "velocity": 112, "channel": 0}, {"type": "note_off", "time": 111, "note": 70, "velocity": 112, "channel": 0}, {"type": "note_on", "time": 9, "note": 72, "velocity": 112, "channel": 0}, {"type": "note_off", "time": 81, "note": 72, "velocity": 112, "channel": 0}, {"type": "note_on", "time": 16, "note": 70, "velocity": 112, "channel": 0}, {"type": "note_off", "time": 83, "note": 70, "velocity": 112, "channel": 0}, {"type": "note_on", "time": 26, "note": 69, "velocity": 115, "channel": 0}, {"type": "note_off", "time": 73, "note": 69, "velocity": 115, "channel": 0}, {"type": "note_on", "time": 20, "note": 67, "velocity": 106, "channel": 0}, {"type": "note_off", "time": 87, "note": 67, "velocity": 106, "channel": 0}, {"type": "note_on", "time": 95, "note": 66, "velocity": 116, "channel": 0}, {"type": "note_off", "time": 106, "note": 66, "velocity": 116, "channel": 0}, {"type": "note_on", "time": 19, "note": 64, "velocity": 114, "channel": 0}, {"type": "note_off", "time": 49, "note": 64, "velocity": 114, "channel": 0}, {"type": "note_on", "time": 17, "note": 63, "velocity": 110, "channel": 0}, {"type": "note_off", "time": 135, "note": 63, "velocity": 110, "channel": 0}, {"type": "note_on", "time": 77, "note": 64, "velocity": 110, "channel": 0}, {"type": "note_off", "time": 92, "note": 64, "velocity": 110, "channel": 0}, {"type": "note_on", "time": 17, "note": 62, "velocity": 112, "channel": 0}, {"type": "note_off", "time": 150, "note": 62, "velocity": 112, "channel": 0}, {"type": "note_on", "time": 110, "note": 61, "velocity": 102, "channel": 0}, {"type": "note_off", "time": 103, "note": 61, "velocity": 102, "channel": 0}, {"type": "note_on", "time": 16, "note": 60, "velocity": 99, "channel": 0}, {"type": "note_off", "time": 84, "note": 60, "velocity": 99, "channel": 0}, {"type": "note_on", "time": 144, "note": 59, "velocity": 97, "channel": 0}, {"type": "note_off", "time": 65, "note": 59, "velocity": 97, "channel": 0}, {"type": "note_on", "time": 4, "note": 58, "velocity": 96, "channel": 0}, {"type": "note_off", "time": 129, "note": 58, "velocity": 96, "channel": 0}, {"type": "note_on", "time": 120, "note": 56, "velocity": 97, "channel": 0}, {"type": "note_off", "time": 79, "note": 56, "velocity": 97, "channel": 0}, {"type": "note_on", "time": 2, "note": 55, "velocity": 98, "channel": 0}, {"type": "note_off", "time": 81, "note": 55, "velocity": 98, "channel": 0}, {"type": "note_on", "time": 128, "note": 56, "velocity": 99, "channel": 0}, {"type": "note_off", "time": 105, "note": 56, "velocity": 99, "channel": 0}, {"type": "note_on", "time": 31, "note": 55, "velocity": 91, "channel": 0}, {"type": "note_off", "time": 116, "note": 55, "velocity": 91, "channel": 0}, {"type": "note_on", "time": 3420, "note": 50, "velocity": 99, "channel": 0}, {"type": "note_off", "time": 85, "note": 50, "velocity": 99, "channel": 0}, {"type": "note_on", "time": 7, "note": 54, "velocity": 100, "channel": 0}, {"type": "note_off", "time": 64, "note": 54, "velocity": 100, "channel": 0}, {"type": "note_on", "time": 16, "note": 60, "velocity": 115, "channel": 0}, {"type": "note_off", "time": 87, "note": 60, "velocity": 115, "channel": 0}, {"type": "note_on", "time": 22, "note": 62, "velocity": 98, "channel": 0}, {"type": "note_off", "time": 454, "note": 62, "velocity": 98, "channel": 0}, {"type": "note_on", "time": 621, "note": 50, "velocity": 101, "channel": 0}, {"type": "note_off", "time": 69, "note": 50, "velocity": 101, "channel": 0}, {"type": "note_on", "time": 10, "note": 51, "velocity": 107, "channel": 0}, {"type": "note_off", "time": 65, "note": 51, "velocity": 107, "channel": 0}, {"type": "note_on", "time": 10, "note": 53, "velocity": 107, "channel": 0}, {"type": "note_off", "time": 143, "note": 53, "velocity": 107, "channel": 0}, {"type": "note_on", "time": 20, "note": 57, "velocity": 114, "channel": 0}, {"type": "note_off", "time": 124, "note": 57, "velocity": 114, "channel": 0}, {"type": "note_on", "time": 15, "note": 58, "velocity": 106, "channel": 0}, {"type": "note_off", "time": 71, "note": 58, "velocity": 106, "channel": 0}, {"type": "note_on", "time": 3, "note": 60, "velocity": 117, "channel": 0}, {"type": "note_off", "time": 95, "note": 60, "velocity": 117, "channel": 0}, {"type": "note_on", "time": 10, "note": 62, "velocity": 108, "channel": 0}, {"type": "note_off", "time": 66, "note": 62, "velocity": 108, "channel": 0}, {"type": "note_on", "time": 4, "note": 63, "velocity": 120, "channel": 0}, {"type": "note_off", "time": 103, "note": 63, "velocity": 120, "channel": 0}, {"type": "note_on", "time": 18, "note": 65, "velocity": 110, "channel": 0}, {"type": "note_off", "time": 64, "note": 65, "velocity": 110, "channel": 0}, {"type": "note_on", "time": 2, "note": 66, "velocity": 103, "channel": 0}, {"type": "note_off", "time": 267, "note": 66, "velocity": 103, "channel": 0}, {"type": "note_on", "time": 306, "note": 54, "velocity": 103, "channel": 0}, {"type": "note_off", "time": 102, "note": 54, "velocity": 103, "channel": 0}, {"type": "note_on", "time": 7, "note": 57, "velocity": 104, "channel": 0}, {"type": "note_off", "time": 83, "note": 57, "velocity": 104, "channel": 0}, {"type": "note_on", "time": 11, "note": 58, "velocity": 108, "channel": 0}, {"type": "note_off", "time": 100, "note": 58, "velocity": 108, "channel": 0}, {"type": "note_on", "time": 5, "note": 60, "velocity": 109, "channel": 0}, {"type": "note_off", "time": 62, "note": 60, "velocity": 109, "channel": 0}, {"type": "note_on", "time": 1, "note": 62, "velocity": 115, "channel": 0}, {"type": "note_off", "time": 108, "note": 62, "velocity": 115, "channel": 0}, {"type": "note_on", "time": 1, "note": 63, "velocity": 118, "channel": 0}, {"type": "note_off", "time": 73, "note": 63, "velocity": 118, "channel": 0}, {"type": "note_on", "time": 4, "note": 65, "velocity": 116, "channel": 0}, {"type": "note_off", "time": 105, "note": 65, "velocity": 116, "channel": 0}, {"type": "note_on", "time": 8, "note": 66, "velocity": 113, "channel": 0}, {"type": "note_off", "time": 56, "note": 66, "velocity": 113, "channel": 0}, {"type": "note_on", "time": 4, "note": 67, "velocity": 113, "channel": 0}, {"type": "note_off", "time": 113, "note": 67, "velocity": 113, "channel": 0}, {"type": "note_on", "time": 8, "note": 68, "velocity": 101, "channel": 0}, {"type": "note_off", "time": 313, "note": 68, "velocity": 101, "channel": 0}, {"type": "note_on", "time": 732, "note": 56, "velocity": 106, "channel": 0}, {"type": "note_off", "time": 126, "note": 56, "velocity": 106, "channel": 0}, {"type": "note_on", "time": 1, "note": 58, "velocity": 104, "channel": 0}, {"type": "note_off", "time": 53, "note": 58, "velocity": 104, "channel": 0}, {"type": "note_on", "time": 8, "note": 59, "velocity": 105, "channel": 0}, {"type": "note_off", "time": 75, "note": 59, "velocity": 105, "channel": 0}, {"type": "note_on", "time": 5, "note": 63, "velocity": 110, "channel": 0}, {"type": "note_off", "time": 75, "note": 63, "velocity": 110, "channel": 0}, {"type": "note_on", "time": 0, "note": 66, "velocity": 113, "channel": 0}, {"type": "note_off", "time": 108, "note": 66, "velocity": 113, "channel": 0}, {"type": "note_on", "time": 3, "note": 68, "velocity": 114, "channel": 0}, {"type": "note_off", "time": 67, "note": 68, "velocity": 114, "channel": 0}, {"type": "note_on", "time": 3, "note": 70, "velocity": 105, "channel": 0}, {"type": "note_off", "time": 386, "note": 70, "velocity": 105, "channel": 0}, {"type": "note_on", "time": 123, "note": 57, "velocity": 107, "channel": 0}, {"type": "note_off", "time": 99, "note": 57, "velocity": 107, "channel": 0}, {"type": "note_on", "time": 6, "note": 58, "velocity": 104, "channel": 0}, {"type": "note_off", "time": 57, "note": 58, "velocity": 104, "channel": 0}, {"type": "note_on", "time": 10, "note": 60, "velocity": 110, "channel": 0}, {"type": "note_off", "time": 83, "note": 60, "velocity": 110, "channel": 0}, {"type": "note_on", "time": 17, "note": 62, "velocity": 116, "channel": 0}, {"type": "note_off", "time": 68, "note": 62, "velocity": 116, "channel": 0}, {"type": "note_on", "time": 23, "note": 65, "velocity": 116, "channel": 0}, {"type": "note_off", "time": 96, "note": 65, "velocity": 116, "channel": 0}, {"type": "note_on", "time": 16, "note": 67, "velocity": 110, "channel": 0}, {"type": "note_off", "time": 139, "note": 67, "velocity": 110, "channel": 0}, {"type": "note_on", "time": 35, "note": 69, "velocity": 115, "channel": 0}, {"type": "note_off", "time": 118, "note": 69, "velocity": 115, "channel": 0}, {"type": "note_on", "time": 9, "note": 71, "velocity": 115, "channel": 0}, {"type": "note_off", "time": 34, "note": 71, "velocity": 115, "channel": 0}, {"type": "note_on", "time": 10, "note": 72, "velocity": 116, "channel": 0}, {"type": "note_off", "time": 212, "note": 72, "velocity": 116, "channel": 0}, {"type": "note_on", "time": 27, "note": 73, "velocity": 111, "channel": 0}, {"type": "note_off", "time": 88, "note": 73, "velocity": 111, "channel": 0}, {"type": "note_on", "time": 6, "note": 70, "velocity": 111, "channel": 0}, {"type": "note_off", "time": 146, "note": 70, "velocity": 111, "channel": 0}, {"type": "note_on", "time": 7, "note": 66, "velocity": 111, "channel": 0}, {"type": "note_off", "time": 137, "note": 66, "velocity": 111, "channel": 0}, {"type": "note_on", "time": 21, "note": 65, "velocity": 85, "channel": 0}, {"type": "note_off", "time": 417, "note": 65, "velocity": 85, "channel": 0}, {"type": "note_on", "time": 1387, "note": 68, "velocity": 115, "channel": 0}, {"type": "note_off", "time": 30, "note": 68, "velocity": 115, "channel": 0}, {"type": "note_on", "time": 14, "note": 69, "velocity": 116, "channel": 0}, {"type": "note_off", "time": 53, "note": 69, "velocity": 116, "channel": 0}, {"type": "note_on", "time": 51, "note": 68, "velocity": 120, "channel": 0}, {"type": "note_off", "time": 84, "note": 68, "velocity": 120, "channel": 0}, {"type": "note_on", "time": 19, "note": 67, "velocity": 116, "channel": 0}, {"type": "note_off", "time": 79, "note": 67, "velocity": 116, "channel": 0}, {"type": "note_on", "time": 21, "note": 79, "velocity": 115, "channel": 0}, {"type": "note_off", "time": 42, "note": 79, "velocity": 115, "channel": 0}, {"type": "note_on", "time": 5, "note": 80, "velocity": 114, "channel": 0}, {"type": "note_off", "time": 43, "note": 80, "velocity": 114, "channel": 0}, {"type": "note_on", "time": 17, "note": 81, "velocity": 88, "channel": 0}, {"type": "note_off", "time": 132, "note": 81, "velocity": 88, "channel": 0}, {"type": "note_on", "time": 5, "note": 80, "velocity": 91, "channel": 0}, {"type": "note_off", "time": 297, "note": 80, "velocity": 91, "channel": 0}, {"type": "note_on", "time": 672, "note": 68, "velocity": 117, "channel": 0}, {"type": "note_off", "time": 75, "note": 68, "velocity": 117, "channel": 0}, {"type": "note_on", "time": 5, "note": 67, "velocity": 113, "channel": 0}, {"type": "note_off", "time": 63, "note": 67, "velocity": 113, "channel": 0}, {"type": "note_on", "time": 19, "note": 66, "velocity": 115, "channel": 0}, {"type": "note_off", "time": 132, "note": 66, "velocity": 115, "channel": 0}, {"type": "note_on", "time": 17, "note": 75, "velocity": 108, "channel": 0}, {"type": "note_off", "time": 60, "note": 75, "velocity": 108, "channel": 0}, {"type": "note_on", "time": 25, "note": 79, "velocity": 91, "channel": 0}, {"type": "note_off", "time": 146, "note": 79, "velocity": 91, "channel": 0}, {"type": "note_on", "time": 36, "note": 76, "velocity": 93, "channel": 0}, {"type": "note_off", "time": 346, "note": 76, "velocity": 93, "channel": 0}, {"type": "note_on", "time": 745, "note": 58, "velocity": 112, "channel": 0}, {"type": "note_off", "time": 94, "note": 58, "velocity": 112, "channel": 0}, {"type": "note_on", "time": 33, "note": 74, "velocity": 108, "channel": 0}, {"type": "note_off", "time": 75, "note": 74, "velocity": 108, "channel": 0}, {"type": "note_on", "time": 11, "note": 73, "velocity": 83, "channel": 0}, {"type": "note_off", "time": 102, "note": 73, "velocity": 83, "channel": 0}, {"type": "note_on", "time": 304, "note": 63, "velocity": 104, "channel": 0}, {"type": "note_off", "time": 55, "note": 63, "velocity": 104, "channel": 0}, {"type": "note_on", "time": 7, "note": 65, "velocity": 98, "channel": 0}, {"type": "note_off", "time": 52, "note": 65, "velocity": 98, "channel": 0}, {"type": "note_on", "time": 6, "note": 72, "velocity": 107, "channel": 0}, {"type": "note_off", "time": 41, "note": 72, "velocity": 107, "channel": 0}, {"type": "note_on", "time": 9, "note": 67, "velocity": 105, "channel": 0}, {"type": "note_off", "time": 42, "note": 67, "velocity": 105, "channel": 0}, {"type": "note_on", "time": 4, "note": 69, "velocity": 94, "channel": 0}, {"type": "note_off", "time": 33, "note": 69, "velocity": 94, "channel": 0}, {"type": "note_on", "time": 8, "note": 70, "velocity": 102, "channel": 0}, {"type": "note_off", "time": 149, "note": 70, "velocity": 102, "channel": 0}, {"type": "note_on", "time": 12, "note": 65, "velocity": 87, "channel": 0}, {"type": "note_off", "time": 118, "note": 65, "velocity": 87, "channel": 0}, {"type": "note_on", "time": 520, "note": 44, "velocity": 119, "channel": 0}, {"type": "note_off", "time": 56, "note": 44, "velocity": 119, "channel": 0}, {"type": "note_on", "time": 12, "note": 51, "velocity": 102, "channel": 0}, {"type": "note_off", "time": 34, "note": 51, "velocity": 102, "channel": 0}, {"type": "note_on", "time": 15, "note": 52, "velocity": 105, "channel": 0}, {"type": "note_off", "time": 73, "note": 52, "velocity": 105, "channel": 0}, {"type": "note_on", "time": 6, "note": 53, "velocity": 94, "channel": 0}, {"type": "note_off", "time": 30, "note": 53, "velocity": 94, "channel": 0}, {"type": "note_on", "time": 11, "note": 57, "velocity": 99, "channel": 0}, {"type": "note_off", "time": 49, "note": 57, "velocity": 99, "channel": 0}, {"type": "note_on", "time": 8, "note": 58, "velocity": 98, "channel": 0}, {"type": "note_off", "time": 32, "note": 58, "velocity": 98, "channel": 0}, {"type": "note_on", "time": 25, "note": 64, "velocity": 99, "channel": 0}, {"type": "note_off", "time": 45, "note": 64, "velocity": 99, "channel": 0}, {"type": "note_on", "time": 8, "note": 69, "velocity": 95, "channel": 0}, {"type": "note_off", "time": 31, "note": 69, "velocity": 95, "channel": 0}, {"type": "note_on", "time": 10, "note": 64, "velocity": 104, "channel": 0}, {"type": "note_off", "time": 44, "note": 64, "velocity": 104, "channel": 0}, {"type": "note_on", "time": 32, "note": 69, "velocity": 97, "channel": 0}, {"type": "note_off", "time": 38, "note": 69, "velocity": 97, "channel": 0}, {"type": "note_on", "time": 10, "note": 72, "velocity": 105, "channel": 0}, {"type": "note_off", "time": 24, "note": 72, "velocity": 105, "channel": 0}, {"type": "note_on", "time": 6, "note": 73, "velocity": 112, "channel": 0}, {"type": "note_off", "time": 122, "note": 73, "velocity": 112, "channel": 0}, {"type": "note_on", "time": 8, "note": 72, "velocity": 95, "channel": 0}, {"type": "note_off", "time": 30, "note": 72, "velocity": 95, "channel": 0}, {"type": "note_on", "time": 8, "note": 69, "velocity": 111, "channel": 0}, {"type": "note_off", "time": 42, "note": 69, "velocity": 111, "channel": 0}, {"type": "note_on", "time": 11, "note": 66, "velocity": 105, "channel": 0}, {"type": "note_off", "time": 36, "note": 66, "velocity": 105, "channel": 0}, {"type": "note_on", "time": 18, "note": 61, "velocity": 103, "channel": 0}, {"type": "note_off", "time": 34, "note": 61, "velocity": 103, "channel": 0}, {"type": "note_on", "time": 5, "note": 59, "velocity": 99, "channel": 0}, {"type": "note_off", "time": 30, "note": 59, "velocity": 99, "channel": 0}, {"type": "note_on", "time": 16, "note": 57, "velocity": 95, "channel": 0}, {"type": "note_off", "time": 22, "note": 57, "velocity": 95, "channel": 0}, {"type": "note_on", "time": 8, "note": 50, "velocity": 104, "channel": 0}, {"type": "note_off", "time": 23, "note": 50, "velocity": 104, "channel": 0}, {"type": "note_on", "time": 10, "note": 48, "velocity": 100, "channel": 0}, {"type": "note_off", "time": 77, "note": 48, "velocity": 100, "channel": 0}, {"type": "note_on", "time": 36, "note": 50, "velocity": 94, "channel": 0}, {"type": "note_off", "time": 23, "note": 50, "velocity": 94, "channel": 0}, {"type": "note_on", "time": 14, "note": 55, "velocity": 98, "channel": 0}, {"type": "note_off", "time": 41, "note": 55, "velocity": 98, "channel": 0}, {"type": "note_on", "time": 6, "note": 56, "velocity": 104, "channel": 0}, {"type": "note_off", "time": 27, "note": 56, "velocity": 104, "channel": 0}, {"type": "note_on", "time": 6, "note": 57, "velocity": 101, "channel": 0}, {"type": "note_off", "time": 40, "note": 57, "velocity": 101, "channel": 0}, {"type": "note_on", "time": 33, "note": 62, "velocity": 105, "channel": 0}, {"type": "note_off", "time": 50, "note": 62, "velocity": 105, "channel": 0}, {"type": "note_on", "time": 9, "note": 65, "velocity": 90, "channel": 0}, {"type": "note_off", "time": 22, "note": 65, "velocity": 90, "channel": 0}, {"type": "note_on", "time": 15, "note": 67, "velocity": 89, "channel": 0}, {"type": "note_off", "time": 26, "note": 67, "velocity": 89, "channel": 0}, {"type": "note_on", "time": 12, "note": 69, "velocity": 91, "channel": 0}, {"type": "note_off", "time": 32, "note": 69, "velocity": 91, "channel": 0}, {"type": "note_on", "time": 10, "note": 70, "velocity": 101, "channel": 0}, {"type": "note_off", "time": 38, "note": 70, "velocity": 101, "channel": 0}, {"type": "note_on", "time": 2, "note": 72, "velocity": 106, "channel": 0}, {"type": "note_off", "time": 16, "note": 72, "velocity": 106, "channel": 0}, {"type": "note_on", "time": 6, "note": 74, "velocity": 112, "channel": 0}, {"type": "note_off", "time": 56, "note": 74, "velocity": 112, "channel": 0}, {"type": "note_on", "time": 11, "note": 72, "velocity": 106, "channel": 0}, {"type": "note_off", "time": 40, "note": 72, "velocity": 106, "channel": 0}, {"type": "note_on", "time": 5, "note": 71, "velocity": 108, "channel": 0}, {"type": "note_off", "time": 33, "note": 71, "velocity": 108, "channel": 0}, {"type": "note_on", "time": 15, "note": 70, "velocity": 103, "channel": 0}, {"type": "note_off", "time": 79, "note": 70, "velocity": 103, "channel": 0}, {"type": "note_on", "time": 6, "note": 69, "velocity": 98, "channel": 0}, {"type": "note_off", "time": 24, "note": 69, "velocity": 98, "channel": 0}, {"type": "note_on", "time": 8, "note": 66, "velocity": 103, "channel": 0}, {"type": "note_off", "time": 155, "note": 66, "velocity": 103, "channel": 0}, {"type": "note_on", "time": 11, "note": 65, "velocity": 105, "channel": 0}, {"type": "note_off", "time": 32, "note": 65, "velocity": 105, "channel": 0}, {"type": "note_on", "time": 6, "note": 62, "velocity": 108, "channel": 0}, {"type": "note_off", "time": 33, "note": 62, "velocity": 108, "channel": 0}, {"type": "note_on", "time": 14, "note": 61, "velocity": 98, "channel": 0}, {"type": "note_off", "time": 85, "note": 61, "velocity": 98, "channel": 0}, {"type": "note_on", "time": 43, "note": 57, "velocity": 98, "channel": 0}, {"type": "note_off", "time": 41, "note": 57, "velocity": 98, "channel": 0}, {"type": "note_on", "time": 17, "note": 54, "velocity": 99, "channel": 0}, {"type": "note_off", "time": 29, "note": 54, "velocity": 99, "channel": 0}, {"type": "note_on", "time": 23, "note": 54, "velocity": 91, "channel": 0}, {"type": "note_off", "time": 39, "note": 54, "velocity": 91, "channel": 0}, {"type": "note_on", "time": 19, "note": 53, "velocity": 106, "channel": 0}, {"type": "note_off", "time": 54, "note": 53, "velocity": 106, "channel": 0}, {"type": "note_on", "time": 1551, "note": 60, "velocity": 115, "channel": 0}, {"type": "note_off", "time": 63, "note": 60, "velocity": 115, "channel": 0}, {"type": "note_on", "time": 2, "note": 62, "velocity": 112, "channel": 0}, {"type": "note_off", "time": 54, "note": 62, "velocity": 112, "channel": 0}, {"type": "note_on", "time": 4, "note": 65, "velocity": 99, "channel": 0}, {"type": "note_off", "time": 31, "note": 65, "velocity": 99, "channel": 0}, {"type": "note_on", "time": 8, "note": 69, "velocity": 109, "channel": 0}, {"type": "note_off", "time": 56, "note": 69, "velocity": 109, "channel": 0}, {"type": "note_on", "time": 4, "note": 70, "velocity": 113, "channel": 0}, {"type": "note_off", "time": 55, "note": 70, "velocity": 113, "channel": 0}, {"type": "note_on", "time": 4, "note": 65, "velocity": 103, "channel": 0}, {"type": "note_off", "time": 27, "note": 65, "velocity": 103, "channel": 0}, {"type": "note_on", "time": 8, "note": 62, "velocity": 113, "channel": 0}, {"type": "note_off", "time": 52, "note": 62, "velocity": 113, "channel": 0}, {"type": "note_on", "time": 13, "note": 58, "velocity": 104, "channel": 0}, {"type": "note_off", "time": 32, "note": 58, "velocity": 104, "channel": 0}, {"type": "note_on", "time": 10, "note": 63, "velocity": 112, "channel": 0}, {"type": "note_off", "time": 62, "note": 63, "velocity": 112, "channel": 0}, {"type": "note_on", "time": 6, "note": 65, "velocity": 104, "channel": 0}, {"type": "note_off", "time": 21, "note": 65, "velocity": 104, "channel": 0}, {"type": "note_on", "time": 6, "note": 67, "velocity": 105, "channel": 0}, {"type": "note_off", "time": 59, "note": 67, "velocity": 105, "channel": 0}, {"type": "note_on", "time": 14, "note": 63, "velocity": 106, "channel": 0}, {"type": "note_off", "time": 49, "note": 63, "velocity": 106, "channel": 0}, {"type": "note_on", "time": 5, "note": 65, "velocity": 102, "channel": 0}, {"type": "note_off", "time": 46, "note": 65, "velocity": 102, "channel": 0}, {"type": "note_on", "time": 16, "note": 60, "velocity": 99, "channel": 0}, {"type": "note_off", "time": 63, "note": 60, "velocity": 99, "channel": 0}, {"type": "note_on", "time": 7, "note": 62, "velocity": 104, "channel": 0}, {"type": "note_off", "time": 56, "note": 62, "velocity": 104, "channel": 0}, {"type": "note_on", "time": 6, "note": 64, "velocity": 102, "channel": 0}, {"type": "note_off", "time": 63, "note": 64, "velocity": 102, "channel": 0}, {"type": "note_on", "time": 15, "note": 67, "velocity": 88, "channel": 0}, {"type": "note_off", "time": 20, "note": 67, "velocity": 88, "channel": 0}, {"type": "note_on", "time": 4, "note": 69, "velocity": 107, "channel": 0}, {"type": "note_off", "time": 63, "note": 69, "velocity": 107, "channel": 0}, {"type": "note_on", "time": 14, "note": 62, "velocity": 112, "channel": 0}, {"type": "note_off", "time": 66, "note": 62, "velocity": 112, "channel": 0}, {"type": "note_on", "time": 8, "note": 58, "velocity": 98, "channel": 0}, {"type": "note_off", "time": 49, "note": 58, "velocity": 98, "channel": 0}, {"type": "note_on", "time": 15, "note": 62, "velocity": 108, "channel": 0}, {"type": "note_off", "time": 46, "note": 62, "velocity": 108, "channel": 0}, {"type": "note_on", "time": 2, "note": 63, "velocity": 107, "channel": 0}, {"type": "note_off", "time": 62, "note": 63, "velocity": 107, "channel": 0}, {"type": "note_on", "time": 6, "note": 61, "velocity": 99, "channel": 0}, {"type": "note_off", "time": 15, "note": 61, "velocity": 99, "channel": 0}, {"type": "note_on", "time": 5, "note": 62, "velocity": 110, "channel": 0}, {"type": "note_off", "time": 67, "note": 62, "velocity": 110, "channel": 0}, {"type": "note_on", "time": 6, "note": 59, "velocity": 97, "channel": 0}, {"type": "note_off", "time": 45, "note": 59, "velocity": 97, "channel": 0}, {"type": "note_on", "time": 30, "note": 53, "velocity": 97, "channel": 0}, {"type": "note_off", "time": 51, "note": 53, "velocity": 97, "channel": 0}, {"type": "note_on", "time": 36, "note": 57, "velocity": 105, "channel": 0}, {"type": "note_off", "time": 64, "note": 57, "velocity": 105, "channel": 0}, {"type": "note_on", "time": 29, "note": 52, "velocity": 97, "channel": 0}, {"type": "note_off", "time": 50, "note": 52, "velocity": 97, "channel": 0}, {"type": "note_on", "time": 31, "note": 56, "velocity": 104, "channel": 0}, {"type": "note_off", "time": 70, "note": 56, "velocity": 104, "channel": 0}, {"type": "note_on", "time": 7, "note": 58, "velocity": 94, "channel": 0}, {"type": "note_off", "time": 41, "note": 58, "velocity": 94, "channel": 0}, {"type": "note_on", "time": 49, "note": 63, "velocity": 92, "channel": 0}, {"type": "note_off", "time": 40, "note": 63, "velocity": 92, "channel": 0}, {"type": "note_on", "time": 55, "note": 70, "velocity": 110, "channel": 0}, {"type": "note_off", "time": 67, "note": 70, "velocity": 110, "channel": 0}, {"type": "note_on", "time": 0, "note": 68, "velocity": 110, "channel": 0}, {"type": "note_off", "time": 45, "note": 68, "velocity": 110, "channel": 0}, {"type": "note_on", "time": 44, "note": 67, "velocity": 93, "channel": 0}, {"type": "note_off", "time": 46, "note": 67, "velocity": 93, "channel": 0}, {"type": "note_on", "time": 47, "note": 60, "velocity": 106, "channel": 0}, {"type": "note_off", "time": 27, "note": 60, "velocity": 106, "channel": 0}, {"type": "note_on", "time": 15, "note": 63, "velocity": 118, "channel": 0}, {"type": "note_off", "time": 41, "note": 63, "velocity": 118, "channel": 0}, {"type": "note_on", "time": 6, "note": 67, "velocity": 104, "channel": 0}, {"type": "note_off", "time": 37, "note": 67, "velocity": 104, "channel": 0}, {"type": "note_on", "time": 3, "note": 66, "velocity": 102, "channel": 0}, {"type": "note_off", "time": 35, "note": 66, "velocity": 102, "channel": 0}, {"type": "note_on", "time": 10, "note": 64, "velocity": 112, "channel": 0}, {"type": "note_off", "time": 48, "note": 64, "velocity": 112, "channel": 0}, {"type": "note_on", "time": 11, "note": 62, "velocity": 112, "channel": 0}, {"type": "note_off", "time": 55, "note": 62, "velocity": 112, "channel": 0}, {"type": "note_on", "time": 15, "note": 59, "velocity": 99, "channel": 0}, {"type": "note_off", "time": 51, "note": 59, "velocity": 99, "channel": 0}, {"type": "note_on", "time": 98, "note": 62, "velocity": 110, "channel": 0}, {"type": "note_off", "time": 58, "note": 62, "velocity": 110, "channel": 0}, {"type": "note_on", "time": 17, "note": 63, "velocity": 99, "channel": 0}, {"type": "note_off", "time": 50, "note": 63, "velocity": 99, "channel": 0}, {"type": "note_on", "time": 0, "note": 60, "velocity": 107, "channel": 0}, {"type": "note_off", "time": 34, "note": 60, "velocity": 107, "channel": 0}, {"type": "note_on", "time": 1, "note": 62, "velocity": 111, "channel": 0}, {"type": "note_off", "time": 29, "note": 62, "velocity": 111, "channel": 0}, {"type": "note_on", "time": 11, "note": 59, "velocity": 98, "channel": 0}, {"type": "note_off", "time": 58, "note": 59, "velocity": 98, "channel": 0}, {"type": "note_on", "time": 9, "note": 50, "velocity": 99, "channel": 0}, {"type": "note_off", "time": 38, "note": 50, "velocity": 99, "channel": 0}, {"type": "note_on", "time": 5, "note": 48, "velocity": 100, "channel": 0}, {"type": "note_off", "time": 36, "note": 48, "velocity": 100, "channel": 0}, {"type": "note_on", "time": 7, "note": 69, "velocity": 104, "channel": 0}, {"type": "note_off", "time": 58, "note": 69, "velocity": 104, "channel": 0}, {"type": "note_on", "time": 9, "note": 54, "velocity": 108, "channel": 0}, {"type": "note_off", "time": 39, "note": 54, "velocity": 108, "channel": 0}, {"type": "note_on", "time": 7, "note": 55, "velocity": 104, "channel": 0}, {"type": "note_off", "time": 45, "note": 55, "velocity": 104, "channel": 0}, {"type": "note_on", "time": 10, "note": 57, "velocity": 106, "channel": 0}, {"type": "note_off", "time": 20, "note": 57, "velocity": 106, "channel": 0}, {"type": "note_on", "time": 12, "note": 58, "velocity": 105, "channel": 0}, {"type": "note_off", "time": 30, "note": 58, "velocity": 105, "channel": 0}, {"type": "note_on", "time": 9, "note": 60, "velocity": 105, "channel": 0}, {"type": "note_off", "time": 24, "note": 60, "velocity": 105, "channel": 0}, {"type": "note_on", "time": 7, "note": 62, "velocity": 108, "channel": 0}, {"type": "note_off", "time": 49, "note": 62, "velocity": 108, "channel": 0}, {"type": "note_on", "time": 6, "note": 63, "velocity": 116, "channel": 0}, {"type": "note_off", "time": 50, "note": 63, "velocity": 116, "channel": 0}, {"type": "note_on", "time": 8, "note": 60, "velocity": 100, "channel": 0}, {"type": "note_off", "time": 27, "note": 60, "velocity": 100, "channel": 0}, {"type": "note_on", "time": 11, "note": 65, "velocity": 101, "channel": 0}, {"type": "note_off", "time": 40, "note": 65, "velocity": 101, "channel": 0}, {"type": "note_on", "time": 6, "note": 67, "velocity": 102, "channel": 0}, {"type": "note_off", "time": 51, "note": 67, "velocity": 102, "channel": 0}, {"type": "note_on", "time": 8, "note": 68, "velocity": 97, "channel": 0}, {"type": "note_off", "time": 73, "note": 68, "velocity": 97, "channel": 0}, {"type": "note_on", "time": 12, "note": 70, "velocity": 86, "channel": 0}, {"type": "note_off", "time": 28, "note": 70, "velocity": 86, "channel": 0}, {"type": "note_on", "time": 17, "note": 74, "velocity": 102, "channel": 0}, {"type": "note_off", "time": 36, "note": 74, "velocity": 102, "channel": 0}, {"type": "note_on", "time": 4, "note": 73, "velocity": 102, "channel": 0}, {"type": "note_off", "time": 23, "note": 73, "velocity": 102, "channel": 0}, {"type": "note_on", "time": 6, "note": 72, "velocity": 100, "channel": 0}, {"type": "note_off", "time": 53, "note": 72, "velocity": 100, "channel": 0}, {"type": "note_on", "time": 236, "note": 59, "velocity": 101, "channel": 0}, {"type": "note_off", "time": 52, "note": 59, "velocity": 101, "channel": 0}, {"type": "note_on", "time": 16, "note": 66, "velocity": 108, "channel": 0}, {"type": "note_off", "time": 63, "note": 66, "velocity": 108, "channel": 0}, {"type": "note_on", "time": 48, "note": 55, "velocity": 94, "channel": 0}, {"type": "note_off", "time": 61, "note": 55, "velocity": 94, "channel": 0}, {"type": "note_on", "time": 21, "note": 61, "velocity": 108, "channel": 0}, {"type": "note_off", "time": 46, "note": 61, "velocity": 108, "channel": 0}, {"type": "note_on", "time": 14, "note": 58, "velocity": 104, "channel": 0}, {"type": "note_off", "time": 41, "note": 58, "velocity": 104, "channel": 0}, {"type": "note_on", "time": 5, "note": 57, "velocity": 107, "channel": 0}, {"type": "note_off", "time": 23, "note": 57, "velocity": 107, "channel": 0}, {"type": "note_on", "time": 5, "note": 55, "velocity": 95, "channel": 0}, {"type": "note_off", "time": 19, "note": 55, "velocity": 95, "channel": 0}, {"type": "note_on", "time": 16, "note": 51, "velocity": 94, "channel": 0}, {"type": "note_off", "time": 25, "note": 51, "velocity": 94, "channel": 0}, {"type": "note_on", "time": 9, "note": 49, "velocity": 87, "channel": 0}, {"type": "note_off", "time": 81, "note": 49, "velocity": 87, "channel": 0}, {"type": "note_on", "time": 1796, "note": 50, "velocity": 112, "channel": 0}, {"type": "note_off", "time": 99, "note": 50, "velocity": 112, "channel": 0}, {"type": "note_on", "time": 14, "note": 54, "velocity": 106, "channel": 0}, {"type": "note_off", "time": 47, "note": 54, "velocity": 106, "channel": 0}, {"type": "note_on", "time": 13, "note": 57, "velocity": 115, "channel": 0}, {"type": "note_off", "time": 95, "note": 57, "velocity": 115, "channel": 0}, {"type": "note_on", "time": 10, "note": 60, "velocity": 118, "channel": 0}, {"type": "note_off", "time": 52, "note": 60, "velocity": 118, "channel": 0}, {"type": "note_on", "time": 32, "note": 58, "velocity": 116, "channel": 0}, {"type": "note_off", "time": 70, "note": 58, "velocity": 116, "channel": 0}, {"type": "note_on", "time": 32, "note": 62, "velocity": 121, "channel": 0}, {"type": "note_off", "time": 59, "note": 62, "velocity": 121, "channel": 0}, {"type": "note_on", "time": 21, "note": 66, "velocity": 117, "channel": 0}, {"type": "note_off", "time": 81, "note": 66, "velocity": 117, "channel": 0}, {"type": "note_on", "time": 33, "note": 69, "velocity": 119, "channel": 0}, {"type": "note_off", "time": 64, "note": 69, "velocity": 119, "channel": 0}, {"type": "note_on", "time": 14, "note": 67, "velocity": 111, "channel": 0}, {"type": "note_off", "time": 72, "note": 67, "velocity": 111, "channel": 0}, {"type": "note_on", "time": 5, "note": 68, "velocity": 115, "channel": 0}, {"type": "note_off", "time": 126, "note": 68, "velocity": 115, "channel": 0}, {"type": "note_on", "time": 32, "note": 66, "velocity": 102, "channel": 0}, {"type": "note_off", "time": 55, "note": 66, "velocity": 102, "channel": 0}, {"type": "note_on", "time": 12, "note": 60, "velocity": 103, "channel": 0}, {"type": "note_off", "time": 41, "note": 60, "velocity": 103, "channel": 0}, {"type": "note_on", "time": 33, "note": 63, "velocity": 124, "channel": 0}, {"type": "note_off", "time": 74, "note": 63, "velocity": 124, "channel": 0}, {"type": "note_on", "time": 13, "note": 58, "velocity": 114, "channel": 0}, {"type": "note_off", "time": 60, "note": 58, "velocity": 114, "channel": 0}, {"type": "note_on", "time": 23, "note": 54, "velocity": 113, "channel": 0}, {"type": "note_off", "time": 84, "note": 54, "velocity": 113, "channel": 0}, {"type": "note_on", "time": 94, "note": 56, "velocity": 114, "channel": 0}, {"type": "note_off", "time": 112, "note": 56, "velocity": 114, "channel": 0}, {"type": "note_on", "time": 10, "note": 58, "velocity": 113, "channel": 0}, {"type": "note_off", "time": 47, "note": 58, "velocity": 113, "channel": 0}, {"type": "note_on", "time": 19, "note": 60, "velocity": 117, "channel": 0}, {"type": "note_off", "time": 60, "note": 60, "velocity": 117, "channel": 0}, {"type": "note_on", "time": 17, "note": 63, "velocity": 122, "channel": 0}, {"type": "note_off", "time": 83, "note": 63, "velocity": 122, "channel": 0}, {"type": "note_on", "time": 19, "note": 58, "velocity": 117, "channel": 0}, {"type": "note_off", "time": 51, "note": 58, "velocity": 117, "channel": 0}, {"type": "note_on", "time": 53, "note": 46, "velocity": 121, "channel": 0}, {"type": "note_off", "time": 60, "note": 46, "velocity": 121, "channel": 0}, {"type": "note_on", "time": 7, "note": 44, "velocity": 127, "channel": 0}, {"type": "note_off", "time": 65, "note": 44, "velocity": 127, "channel": 0}, {"type": "note_on", "time": 6, "note": 45, "velocity": 116, "channel": 0}, {"type": "note_off", "time": 43, "note": 45, "velocity": 116, "channel": 0}, {"type": "note_on", "time": 6, "note": 44, "velocity": 126, "channel": 0}, {"type": "note_off", "time": 33, "note": 44, "velocity": 126, "channel": 0}, {"type": "note_on", "time": 11, "note": 45, "velocity": 116, "channel": 0}, {"type": "note_off", "time": 33, "note": 45, "velocity": 116, "channel": 0}, {"type": "note_on", "time": 6, "note": 44, "velocity": 124, "channel": 0}, {"type": "note_off", "time": 38, "note": 44, "velocity": 124, "channel": 0}, {"type": "note_on", "time": 3, "note": 45, "velocity": 118, "channel": 0}, {"type": "note_off", "time": 33, "note": 45, "velocity": 118, "channel": 0}, {"type": "note_on", "time": 4, "note": 44, "velocity": 119, "channel": 0}, {"type": "note_off", "time": 41, "note": 44, "velocity": 119, "channel": 0}, {"type": "note_on", "time": 5, "note": 45, "velocity": 126, "channel": 0}, {"type": "note_off", "time": 42, "note": 45, "velocity": 126, "channel": 0}, {"type": "note_on", "time": 2, "note": 44, "velocity": 126, "channel": 0}, {"type": "note_off", "time": 32, "note": 44, "velocity": 126, "channel": 0}, {"type": "note_on", "time": 9, "note": 45, "velocity": 116, "channel": 0}, {"type": "note_off", "time": 41, "note": 45, "velocity": 116, "channel": 0}, {"type": "note_on", "time": 15, "note": 44, "velocity": 121, "channel": 0}, {"type": "note_off", "time": 38, "note": 44, "velocity": 121, "channel": 0}, {"type": "note_on", "time": 8, "note": 46, "velocity": 118, "channel": 0}, {"type": "note_off", "time": 19, "note": 46, "velocity": 118, "channel": 0}, {"type": "note_on", "time": 8, "note": 48, "velocity": 110, "channel": 0}, {"type": "note_off", "time": 37, "note": 48, "velocity": 110, "channel": 0}, {"type": "note_on", "time": 12, "note": 56, "velocity": 113, "channel": 0}, {"type": "note_off", "time": 42, "note": 56, "velocity": 113, "channel": 0}, {"type": "note_on", "time": 5, "note": 55, "velocity": 109, "channel": 0}, {"type": "note_off", "time": 29, "note": 55, "velocity": 109, "channel": 0}, {"type": "note_on", "time": 5, "note": 56, "velocity": 111, "channel": 0}, {"type": "note_off", "time": 25, "note": 56, "velocity": 111, "channel": 0}, {"type": "note_on", "time": 13, "note": 55, "velocity": 107, "channel": 0}, {"type": "note_off", "time": 72, "note": 55, "velocity": 107, "channel": 0}, {"type": "note_on", "time": 7, "note": 56, "velocity": 109, "channel": 0}, {"type": "note_off", "time": 38, "note": 56, "velocity": 109, "channel": 0}, {"type": "note_on", "time": 5, "note": 55, "velocity": 107, "channel": 0}, {"type": "note_off", "time": 32, "note": 55, "velocity": 107, "channel": 0}, {"type": "note_on", "time": 3, "note": 56, "velocity": 106, "channel": 0}, {"type": "note_off", "time": 47, "note": 56, "velocity": 106, "channel": 0}, {"type": "note_on", "time": 42, "note": 63, "velocity": 118, "channel": 0}, {"type": "note_off", "time": 47, "note": 63, "velocity": 118, "channel": 0}, {"type": "note_on", "time": 15, "note": 62, "velocity": 108, "channel": 0}, {"type": "note_off", "time": 52, "note": 62, "velocity": 108, "channel": 0}, {"type": "note_on", "time": 6, "note": 63, "velocity": 102, "channel": 0}, {"type": "note_off", "time": 30, "note": 63, "velocity": 102, "channel": 0}, {"type": "note_on", "time": 5, "note": 62, "velocity": 111, "channel": 0}, {"type": "note_off", "time": 33, "note": 62, "velocity": 111, "channel": 0}, {"type": "note_on", "time": 2, "note": 63, "velocity": 96, "channel": 0}, {"type": "note_off", "time": 25, "note": 63, "velocity": 96, "channel": 0}, {"type": "note_on", "time": 5, "note": 62, "velocity": 109, "channel": 0}, {"type": "note_off", "time": 33, "note": 62, "velocity": 109, "channel": 0}, {"type": "note_on", "time": 3, "note": 63, "velocity": 85, "channel": 0}, {"type": "note_off", "time": 32, "note": 63, "velocity": 85, "channel": 0}, {"type": "note_on", "time": 34, "note": 65, "velocity": 106, "channel": 0}, {"type": "note_off", "time": 31, "note": 65, "velocity": 106, "channel": 0}, {"type": "note_on", "time": 9, "note": 69, "velocity": 111, "channel": 0}, {"type": "note_off", "time": 33, "note": 69, "velocity": 111, "channel": 0}, {"type": "note_on", "time": 7, "note": 68, "velocity": 105, "channel": 0}, {"type": "note_off", "time": 23, "note": 68, "velocity": 105, "channel": 0}, {"type": "note_on", "time": 12, "note": 69, "velocity": 107, "channel": 0}, {"type": "note_off", "time": 30, "note": 69, "velocity": 107, "channel": 0}, {"type": "note_on", "time": 11, "note": 68, "velocity": 105, "channel": 0}, {"type": "note_off", "time": 40, "note": 68, "velocity": 105, "channel": 0}, {"type": "note_on", "time": 0, "note": 69, "velocity": 103, "channel": 0}, {"type": "note_off", "time": 35, "note": 69, "velocity": 103, "channel": 0}, {"type": "note_on", "time": 11, "note": 68, "velocity": 105, "channel": 0}, {"type": "note_off", "time": 31, "note": 68, "velocity": 105, "channel": 0}, {"type": "note_on", "time": 5, "note": 67, "velocity": 106, "channel": 0}, {"type": "note_off", "time": 30, "note": 67, "velocity": 106, "channel": 0}, {"type": "note_on", "time": 8, "note": 68, "velocity": 99, "channel": 0}, {"type": "note_off", "time": 28, "note": 68, "velocity": 99, "channel": 0}, {"type": "note_on", "time": 12, "note": 67, "velocity": 100, "channel": 0}, {"type": "note_off", "time": 29, "note": 67, "velocity": 100, "channel": 0}, {"type": "note_on", "time": 14, "note": 63, "velocity": 109, "channel": 0}, {"type": "note_off", "time": 35, "note": 63, "velocity": 109, "channel": 0}, {"type": "note_on", "time": 6, "note": 65, "velocity": 108, "channel": 0}, {"type": "note_off", "time": 22, "note": 65, "velocity": 108, "channel": 0}, {"type": "note_on", "time": 10, "note": 63, "velocity": 119, "channel": 0}, {"type": "note_off", "time": 33, "note": 63, "velocity": 119, "channel": 0}, {"type": "note_on", "time": 4, "note": 65, "velocity": 106, "channel": 0}, {"type": "note_off", "time": 30, "note": 65, "velocity": 106, "channel": 0}, {"type": "note_on", "time": 7, "note": 63, "velocity": 109, "channel": 0}, {"type": "note_off", "time": 40, "note": 63, "velocity": 109, "channel": 0}, {"type": "note_on", "time": 582, "note": 62, "velocity": 109, "channel": 0}, {"type": "note_off", "time": 34, "note": 62, "velocity": 109, "channel": 0}, {"type": "note_on", "time": 0, "note": 59, "velocity": 107, "channel": 0}, {"type": "note_off", "time": 38, "note": 59, "velocity": 107, "channel": 0}, {"type": "note_on", "time": 15, "note": 62, "velocity": 103, "channel": 0}, {"type": "note_off", "time": 37, "note": 62, "velocity": 103, "channel": 0}, {"type": "note_on", "time": 10, "note": 59, "velocity": 107, "channel": 0}, {"type": "note_off", "time": 42, "note": 59, "velocity": 107, "channel": 0}, {"type": "note_on", "time": 9, "note": 68, "velocity": 103, "channel": 0}, {"type": "note_off", "time": 157, "note": 68, "velocity": 103, "channel": 0}, {"type": "note_on", "time": 19, "note": 64, "velocity": 98, "channel": 0}, {"type": "note_off", "time": 67, "note": 64, "velocity": 98, "channel": 0}, {"type": "note_on", "time": 90, "note": 73, "velocity": 115, "channel": 0}, {"type": "note_off", "time": 99, "note": 73, "velocity": 115, "channel": 0}, {"type": "note_on", "time": 7, "note": 71, "velocity": 113, "channel": 0}, {"type": "note_off", "time": 34, "note": 71, "velocity": 113, "channel": 0}, {"type": "note_on", "time": 11, "note": 73, "velocity": 112, "channel": 0}, {"type": "note_off", "time": 27, "note": 73, "velocity": 112, "channel": 0}, {"type": "note_on", "time": 61, "note": 61, "velocity": 107, "channel": 0}, {"type": "note_off", "time": 38, "note": 61, "velocity": 107, "channel": 0}, {"type": "note_on", "time": 10, "note": 62, "velocity": 96, "channel": 0}, {"type": "note_off", "time": 33, "note": 62, "velocity": 96, "channel": 0}, {"type": "note_on", "time": 4, "note": 61, "velocity": 103, "channel": 0}, {"type": "note_off", "time": 23, "note": 61, "velocity": 103, "channel": 0}, {"type": "note_on", "time": 10, "note": 62, "velocity": 98, "channel": 0}, {"type": "note_off", "time": 26, "note": 62, "velocity": 98, "channel": 0}, {"type": "note_on", "time": 9, "note": 61, "velocity": 96, "channel": 0}, {"type": "note_off", "time": 39, "note": 61, "velocity": 96, "channel": 0}, {"type": "note_on", "time": 542, "note": 69, "velocity": 123, "channel": 0}, {"type": "note_off", "time": 78, "note": 69, "velocity": 123, "channel": 0}, {"type": "note_on", "time": 18, "note": 70, "velocity": 107, "channel": 0}, {"type": "note_off", "time": 40, "note": 70, "velocity": 107, "channel": 0}, {"type": "note_on", "time": 7, "note": 72, "velocity": 117, "channel": 0}, {"type": "note_off", "time": 113, "note": 72, "velocity": 117, "channel": 0}, {"type": "note_on", "time": 16, "note": 70, "velocity": 117, "channel": 0}, {"type": "note_off", "time": 92, "note": 70, "velocity": 117, "channel": 0}, {"type": "note_on", "time": 37, "note": 69, "velocity": 118, "channel": 0}, {"type": "note_off", "time": 68, "note": 69, "velocity": 118, "channel": 0}, {"type": "note_on", "time": 14, "note": 67, "velocity": 110, "channel": 0}, {"type": "note_off", "time": 55, "note": 67, "velocity": 110, "channel": 0}, {"type": "note_on", "time": 27, "note": 62, "velocity": 113, "channel": 0}, {"type": "note_off", "time": 37, "note": 62, "velocity": 113, "channel": 0}, {"type": "note_on", "time": 12, "note": 64, "velocity": 113, "channel": 0}, {"type": "note_off", "time": 42, "note": 64, "velocity": 113, "channel": 0}, {"type": "note_on", "time": 7, "note": 65, "velocity": 118, "channel": 0}, {"type": "note_off", "time": 46, "note": 65, "velocity": 118, "channel": 0}, {"type": "note_on", "time": 9, "note": 64, "velocity": 118, "channel": 0}, {"type": "note_off", "time": 67, "note": 64, "velocity": 118, "channel": 0}, {"type": "note_on", "time": 5, "note": 63, "velocity": 116, "channel": 0}, {"type": "note_off", "time": 60, "note": 63, "velocity": 116, "channel": 0}, {"type": "note_on", "time": 7, "note": 57, "velocity": 107, "channel": 0}, {"type": "note_off", "time": 36, "note": 57, "velocity": 107, "channel": 0}, {"type": "note_on", "time": 17, "note": 62, "velocity": 111, "channel": 0}, {"type": "note_off", "time": 68, "note": 62, "velocity": 111, "channel": 0}, {"type": "note_on", "time": 15, "note": 64, "velocity": 100, "channel": 0}, {"type": "note_off", "time": 69, "note": 64, "velocity": 100, "channel": 0}, {"type": "note_on", "time": 17, "note": 69, "velocity": 105, "channel": 0}, {"type": "note_off", "time": 60, "note": 69, "velocity": 105, "channel": 0}, {"type": "note_on", "time": 35, "note": 65, "velocity": 110, "channel": 0}, {"type": "note_off", "time": 60, "note": 65, "velocity": 110, "channel": 0}, {"type": "note_on", "time": 12, "note": 62, "velocity": 111, "channel": 0}, {"type": "note_off", "time": 39, "note": 62, "velocity": 111, "channel": 0}, {"type": "note_on", "time": 24, "note": 58, "velocity": 108, "channel": 0}, {"type": "note_off", "time": 66, "note": 58, "velocity": 108, "channel": 0}, {"type": "note_on", "time": 10, "note": 59, "velocity": 101, "channel": 0}, {"type": "note_off", "time": 52, "note": 59, "velocity": 101, "channel": 0}, {"type": "note_on", "time": 16, "note": 68, "velocity": 111, "channel": 0}, {"type": "note_off", "time": 57, "note": 68, "velocity": 111, "channel": 0}, {"type": "note_on", "time": 25, "note": 66, "velocity": 110, "channel": 0}, {"type": "note_off", "time": 52, "note": 66, "velocity": 110, "channel": 0}, {"type": "note_on", "time": 18, "note": 61, "velocity": 108, "channel": 0}, {"type": "note_off", "time": 41, "note": 61, "velocity": 108, "channel": 0}, {"type": "note_on", "time": 12, "note": 58, "velocity": 111, "channel": 0}, {"type": "note_off", "time": 39, "note": 58, "velocity": 111, "channel": 0}, {"type": "note_on", "time": 14, "note": 62, "velocity": 118, "channel": 0}, {"type": "note_off", "time": 18, "note": 62, "velocity": 118, "channel": 0}, {"type": "note_on", "time": 4, "note": 63, "velocity": 115, "channel": 0}, {"type": "note_off", "time": 39, "note": 63, "velocity": 115, "channel": 0}, {"type": "note_on", "time": 16, "note": 59, "velocity": 108, "channel": 0}, {"type": "note_off", "time": 23, "note": 59, "velocity": 108, "channel": 0}, {"type": "note_on", "time": 26, "note": 55, "velocity": 108, "channel": 0}, {"type": "note_off", "time": 37, "note": 55, "velocity": 108, "channel": 0}, {"type": "note_on", "time": 5, "note": 51, "velocity": 106, "channel": 0}, {"type": "note_off", "time": 41, "note": 51, "velocity": 106, "channel": 0}, {"type": "note_on", "time": 17, "note": 56, "velocity": 105, "channel": 0}, {"type": "note_off", "time": 35, "note": 56, "velocity": 105, "channel": 0}, {"type": "note_on", "time": 15, "note": 58, "velocity": 107, "channel": 0}, {"type": "note_off", "time": 63, "note": 58, "velocity": 107, "channel": 0}, {"type": "note_on", "time": 9, "note": 61, "velocity": 103, "channel": 0}, {"type": "note_off", "time": 26, "note": 61, "velocity": 103, "channel": 0}, {"type": "note_on", "time": 2, "note": 62, "velocity": 113, "channel": 0}, {"type": "note_off", "time": 38, "note": 62, "velocity": 113, "channel": 0}, {"type": "note_on", "time": 7, "note": 65, "velocity": 108, "channel": 0}, {"type": "note_off", "time": 39, "note": 65, "velocity": 108, "channel": 0}, {"type": "note_on", "time": 19, "note": 62, "velocity": 114, "channel": 0}, {"type": "note_off", "time": 49, "note": 62, "velocity": 114, "channel": 0}, {"type": "note_on", "time": 6, "note": 63, "velocity": 110, "channel": 0}, {"type": "note_off", "time": 45, "note": 63, "velocity": 110, "channel": 0}, {"type": "note_on", "time": 7, "note": 65, "velocity": 95, "channel": 0}, {"type": "note_off", "time": 21, "note": 65, "velocity": 95, "channel": 0}, {"type": "note_on", "time": 7, "note": 67, "velocity": 95, "channel": 0}, {"type": "note_off", "time": 40, "note": 67, "velocity": 95, "channel": 0}, {"type": "note_on", "time": 11, "note": 70, "velocity": 98, "channel": 0}, {"type": "note_off", "time": 52, "note": 70, "velocity": 98, "channel": 0}, {"type": "note_on", "time": 9, "note": 74, "velocity": 113, "channel": 0}, {"type": "note_off", "time": 39, "note": 74, "velocity": 113, "channel": 0}, {"type": "note_on", "time": 21, "note": 74, "velocity": 114, "channel": 0}, {"type": "note_off", "time": 64, "note": 74, "velocity": 114, "channel": 0}, {"type": "note_on", "time": 25, "note": 74, "velocity": 115, "channel": 0}, {"type": "note_off", "time": 61, "note": 74, "velocity": 115, "channel": 0}, {"type": "note_on", "time": 14, "note": 72, "velocity": 98, "channel": 0}, {"type": "note_off", "time": 20, "note": 72, "velocity": 98, "channel": 0}, {"type": "note_on", "time": 12, "note": 70, "velocity": 110, "channel": 0}, {"type": "note_off", "time": 48, "note": 70, "velocity": 110, "channel": 0}, {"type": "note_on", "time": 20, "note": 70, "velocity": 115, "channel": 0}, {"type": "note_off", "time": 62, "note": 70, "velocity": 115, "channel": 0}, {"type": "note_on", "time": 22, "note": 67, "velocity": 99, "channel": 0}, {"type": "note_off", "time": 21, "note": 67, "velocity": 99, "channel": 0}, {"type": "note_on", "time": 8, "note": 63, "velocity": 117, "channel": 0}, {"type": "note_off", "time": 31, "note": 63, "velocity": 117, "channel": 0}, {"type": "note_on", "time": 5, "note": 62, "velocity": 117, "channel": 0}, {"type": "note_off", "time": 12, "note": 62, "velocity": 117, "channel": 0}, {"type": "note_on", "time": 10, "note": 60, "velocity": 105, "channel": 0}, {"type": "note_off", "time": 53, "note": 60, "velocity": 105, "channel": 0}, {"type": "note_on", "time": 20, "note": 60, "velocity": 107, "channel": 0}, {"type": "note_off", "time": 60, "note": 60, "velocity": 107, "channel": 0}, {"type": "note_on", "time": 20, "note": 58, "velocity": 112, "channel": 0}, {"type": "note_off", "time": 81, "note": 58, "velocity": 112, "channel": 0}, {"type": "note_on", "time": 29, "note": 58, "velocity": 95, "channel": 0}, {"type": "note_off", "time": 66, "note": 58, "velocity": 95, "channel": 0}, {"type": "note_on", "time": 20, "note": 55, "velocity": 111, "channel": 0}, {"type": "note_off", "time": 46, "note": 55, "velocity": 111, "channel": 0}, {"type": "note_on", "time": 17, "note": 55, "velocity": 100, "channel": 0}, {"type": "note_off", "time": 80, "note": 55, "velocity": 100, "channel": 0}, {"type": "note_on", "time": 36, "note": 54, "velocity": 92, "channel": 0}, {"type": "note_off", "time": 96, "note": 54, "velocity": 92, "channel": 0}, {"type": "note_on", "time": 21, "note": 54, "velocity": 96, "channel": 0}, {"type": "note_off", "time": 77, "note": 54, "velocity": 96, "channel": 0}, {"type": "note_on", "time": 13, "note": 53, "velocity": 98, "channel": 0}, {"type": "note_off", "time": 99, "note": 53, "velocity": 98, "channel": 0}, {"type": "note_on", "time": 106, "note": 52, "velocity": 90, "channel": 0}, {"type": "note_off", "time": 483, "note": 52, "velocity": 90, "channel": 0}, {"type": "end_of_track", "time": 0}]]}