{"ticks_per_beat": 840, "tracks": [[{"type": "track_name", "name": "Melody", "time": 0}, {"type": "set_tempo", "tempo": 454545, "time": 0}, {"type": "key_signature", "key": "Db", "time": 0}, {"type": "time_signature", "numerator": 4, "denominator": 4, "clocks_per_click": 24, "notated_32nd_notes_per_beat": 8, "time": 0}, {"type": "note_on", "time": 8925, "note": 51, "velocity": 104, "channel": 0}, {"type": "note_off", "time": 452, "note": 51, "velocity": 104, "channel": 0}, {"type": "note_on", "time": 67, "note": 53, "velocity": 99, "channel": 0}, {"type": "note_off", "time": 501, "note": 53, "velocity": 99, "channel": 0}, {"type": "note_on", "time": 79, "note": 54, "velocity": 106, "channel": 0}, {"type": "note_off", "time": 456, "note": 54, "velocity": 106, "channel": 0}, {"type": "note_on", "time": 64, "note": 56, "velocity": 106, "channel": 0}, {"type": "note_off", "time": 456, "note": 56, "velocity": 106, "channel": 0}, {"type": "note_on", "time": 71, "note": 58, "velocity": 103, "channel": 0}, {"type": "note_off", "time": 478, "note": 58, "velocity": 103, "channel": 0}, {"type": "note_on", "time": 60, "note": 60, "velocity": 111, "channel": 0}, {"type": "note_off", "time": 399, "note": 60, "velocity": 111, "channel": 0}, {"type": "note_on", "time": 82, "note": 61, "velocity": 120, "channel": 0}, {"type": "note_off", "time": 463, "note": 61, "velocity": 120, "channel": 0}, {"type": "note_on", "time": 109, "note": 63, "velocity": 120, "channel": 0}, {"type": "note_off", "time": 516, "note": 63, "velocity": 120, "channel": 0}, {"type": "note_on", "time": 52, "note": 65, "velocity": 117, "channel": 0}, {"type": "note_off", "time": 414, "note": 65, "velocity": 117, "channel": 0}, {"type": "note_on", "time": 22, "note": 60, "velocity": 111, "channel": 0}, {"type": "note_off", "time": 107, "note": 60, "velocity": 111, "channel": 0}, {"type": "note_on", "time": 26, "note": 62, "velocity": 109, "channel": 0}, {"type": "note_off", "time": 81, "note": 62, "velocity": 109, "channel": 0}, {"type": "note_on", "time": 20, "note": 60, "velocity": 111, "channel": 0}, {"type": "note_off", "time": 182, "note": 60, "velocity": 111, "channel": 0}, {"type": "note_on", "time": 45, "note": 58, "velocity": 98, "channel": 0}, {"type": "note_off", "time": 218, "note": 58, "velocity": 98, "channel": 0}, {"type": "note_on", "time": 143, "note": 63, "velocity": 120, "channel": 0}, {"type": "note_off", "time": 301, "note": 63, "velocity": 120, "channel": 0}, {"type": "note_on", "time": 39, "note": 65, "velocity": 110, "channel": 0}, {"type": "note_off", "time": 107, "note": 65, "velocity": 110, "channel": 0}, {"type": "note_on", "time": 22, "note": 63, "velocity": 122, "channel": 0}, {"type": "note_off", "time": 77, "note": 63, "velocity": 122, "channel": 0}, {"type": "note_on", "time": 5, "note": 60, "velocity": 111, "channel": 0}, {"type": "note_off", "time": 241, "note": 60, "velocity": 111, "channel": 0}, {"type": "note_on", "time": 18, "note": 58, "velocity": 98, "channel": 0}, {"type": "note_off", "time": 311, "note": 58, "velocity": 98, "channel": 0}, {"type": "note_on", "time": 15, "note": 54, "velocity": 110, "channel": 0}, {"type": "note_off", "time": 172, "note": 54, "velocity": 110, "channel": 0}, {"type": "note_on", "time": 13, "note": 55, "velocity": 111, "channel": 0}, {"type": "note_off", "time": 67, "note": 55, "velocity": 111, "channel": 0}, {"type": "note_on", "time": 40, "note": 53, "velocity": 108, "channel": 0}, {"type": "note_off", "time": 174, "note": 53, "velocity": 108, "channel": 0}, {"type": "note_on", "time": 63, "note": 48, "velocity": 98, "channel": 0}, {"type": "note_off", "time": 341, "note": 48, "velocity": 98, "channel": 0}, {"type": "note_on", "time": 42, "note": 46, "velocity": 107, "channel": 0}, {"type": "note_off", "time": 303, "note": 46, "velocity": 107, "channel": 0}, {"type": "note_on", "time": 98, "note": 51, "velocity": 103, "channel": 0}, {"type": "note_off", "time": 339, "note": 51, "velocity": 103, "channel": 0}, {"type": "note_on", "time": 72, "note": 51, "velocity": 100, "channel": 0}, {"type": "note_off", "time": 268, "note": 51, "velocity": 100, "channel": 0}, {"type": "note_on", "time": 1350, "note": 70, "velocity": 112, "channel": 0}, {"type": "note_off", "time": 303, "note": 70, "velocity": 112, "channel": 0}, {"type": "note_on", "time": 22, "note": 72, "velocity": 122, "channel": 0}, {"type": "note_off", "time": 250, "note": 72, "velocity": 122, "channel": 0}, {"type": "note_on", "time": 35, "note": 68, "velocity": 114, "channel": 0}, {"type": "note_off", "time": 194, "note": 68, "velocity": 114, "channel": 0}, {"type": "note_on", "time": 52, "note": 70, "velocity": 114, "channel": 0}, {"type": "note_off", "time": 275, "note": 70, "velocity": 114, "channel": 0}, {"type": "note_on", "time": 90, "note": 63, "velocity": 117, "channel": 0}, {"type": "note_off", "time": 293, "note": 63, "velocity": 117, "channel": 0}, {"type": "note_on", "time": 18, "note": 65, "velocity": 115, "channel": 0}, {"type": "note_off", "time": 272, "note": 65, "velocity": 115, "channel": 0}, {"type": "note_on", "time": 24, "note": 61, "velocity": 118, "channel": 0}, {"type": "note_off", "time": 285, "note": 61, "velocity": 118, "channel": 0}, {"type": "note_on", "time": 68, "note": 63, "velocity": 113, "channel": 0}, {"type": "note_off", "time": 252, "note": 63, "velocity": 113, "channel": 0}, {"type": "note_on", "time": 13, "note": 58, "velocity": 101, "channel": 0}, {"type": "note_off", "time": 262, "note": 58, "velocity": 101, "channel": 0}, {"type": "note_on", "time": 96, "note": 60, "velocity": 103, "channel": 0}, {"type": "note_off", "time": 229, "note": 60, "velocity": 103, "channel": 0}, {"type": "note_on", "time": 123, "note": 53, "velocity": 97, "channel": 0}, {"type": "note_off", "time": 240, "note": 53, "velocity": 97, "channel": 0}, {"type": "note_on", "time": 22, "note": 58, "velocity": 96, "channel": 0}, {"type": "note_off", "time": 331, "note": 58, "velocity": 96, "channel": 0}, {"type": "note_on", "time": 22, "note": 56, "velocity": 94, "channel": 0}, {"type": "note_off", "time": 299, "note": 56, "velocity": 94, "channel": 0}, {"type": "note_on", "time": 46, "note": 48, "velocity": 98, "channel": 0}, {"type": "note_off", "time": 882, "note": 48, "velocity": 98, "channel": 0}, {"type": "note_on", "time": 690, "note": 51, "velocity": 104, "channel": 0}, {"type": "note_off", "time": 116, "note": 51, "velocity": 104, "channel": 0}, {"type": "note_on", "time": 25, "note": 48, "velocity": 103, "channel": 0}, {"type": "note_off", "time": 71, "note": 48, "velocity": 103, "channel": 0}, {"type": "note_on", "time": 38, "note": 46, "velocity": 103, "channel": 0}, {"type": "note_off", "time": 343, "note": 46, "velocity": 103, "channel": 0}, {"type": "note_on", "time": 84, "note": 51, "velocity": 110, "channel": 0}, {"type": "note_off", "time": 278, "note": 51, "velocity": 110, "channel": 0}, {"type": "note_on", "time": 148, "note": 58, "velocity": 106, "channel": 0}, {"type": "note_off", "time": 245, "note": 58, "velocity": 106, "channel": 0}, {"type": "note_on", "time": 13, "note": 56, "velocity": 98, "channel": 0}, {"type": "note_off", "time": 191, "note": 56, "velocity": 98, "channel": 0}, {"type": "note_on", "time": 359, "note": 60, "velocity": 111, "channel": 0}, {"type": "note_off", "time": 282, "note": 60, "velocity": 111, "channel": 0}, {"type": "note_on", "time": 158, "note": 65, "velocity": 116, "channel": 0}, {"type": "note_off", "time": 274, "note": 65, "velocity": 116, "channel": 0}, {"type": "note_on", "time": 38, "note": 60, "velocity": 110, "channel": 0}, {"type": "note_off", "time": 152, "note": 60, "velocity": 110, "channel": 0}, {"type": "note_on", "time": 19, "note": 63, "velocity": 106, "channel": 0}, {"type": "note_off", "time": 66, "note": 63, "velocity": 106, "channel": 0}, {"type": "note_on", "time": 23, "note": 60, "velocity": 110, "channel": 0}, {"type": "note_off", "time": 216, "note": 60, "velocity": 110, "channel": 0}, {"type": "note_on", "time": 17, "note": 58, "velocity": 97, "channel": 0}, {"type": "note_off", "time": 224, "note": 58, "velocity": 97, "channel": 0}, {"type": "note_on", "time": 191, "note": 63, "velocity": 119, "channel": 0}, {"type": "note_off", "time": 229, "note": 63, "velocity": 119, "channel": 0}, {"type": "note_on", "time": 231, "note": 72, "velocity": 117, "channel": 0}, {"type": "note_off", "time": 277, "note": 72, "velocity": 117, "channel": 0}, {"type": "note_on", "time": 196, "note": 70, "velocity": 109, "channel": 0}, {"type": "note_off", "time": 318, "note": 70, "velocity": 109, "channel": 0}, {"type": "note_on", "time": 141, "note": 72, "velocity": 107, "channel": 0}, {"type": "note_off", "time": 758, "note": 72, "velocity": 107, "channel": 0}, {"type": "note_on", "time": 19, "note": 70, "velocity": 103, "channel": 0}, {"type": "note_off", "time": 244, "note": 70, "velocity": 103, "channel": 0}, {"type": "note_on", "time": 22, "note": 65, "velocity": 105, "channel": 0}, {"type": "note_off", "time": 301, "note": 65, "velocity": 105, "channel": 0}, {"type": "note_on", "time": 5, "note": 60, "velocity": 98, "channel": 0}, {"type": "note_off", "time": 309, "note": 60, "velocity": 98, "channel": 0}, {"type": "note_on", "time": 10, "note": 58, "velocity": 87, "channel": 0}, {"type": "note_off", "time": 598, "note": 58, "velocity": 87, "channel": 0}, {"type": "note_on", "time": 3541, "note": 72, "velocity": 119, "channel": 0}, {"type": "note_off", "time": 166, "note": 72, "velocity": 119, "channel": 0}, {"type": "note_on", "time": 32, "note": 73, "velocity": 114, "channel": 0}, {"type": "note_off", "time": 213, "note": 73, "velocity": 114, "channel": 0}, {"type": "note_on", "time": 29, "note": 72, "velocity": 117, "channel": 0}, {"type": "note_off", "time": 210, "note": 72, "velocity": 117, "channel": 0}, {"type": "note_on", "time": 34, "note": 70, "velocity": 114, "channel": 0}, {"type": "note_on", "time": 168, "note": 68, "velocity": 113, "channel": 0}, {"type": "note_off", "time": 0, "note": 70, "velocity": 114, "channel": 0}, {"type": "note_off", "time": 273, "note": 68, "velocity": 113, "channel": 0}, {"type": "note_on", "time": 25, "note": 66, "velocity": 111, "channel": 0}, {"type": "note_off", "time": 170, "note": 66, "velocity": 111, "channel": 0}, {"type": "note_on", "time": 18, "note": 65, "velocity": 112, "channel": 0}, {"type": "note_off", "time": 158, "note": 65, "velocity": 112, "channel": 0}, {"type": "note_on", "time": 25, "note": 64, "velocity": 114, "channel": 0}, {"type": "note_off", "time": 151, "note": 64, "velocity": 114, "channel": 0}, {"type": "note_on", "time": 34, "note": 63, "velocity": 111, "channel": 0}, {"type": "note_off", "time": 244, "note": 63, "velocity": 111, "channel": 0}, {"type": "note_on", "time": 24, "note": 65, "velocity": 107, "channel": 0}, {"type": "note_off", "time": 99, "note": 65, "velocity": 107, "channel": 0}, {"type": "note_on", "time": 12, "note": 64, "velocity": 115, "channel": 0}, {"type": "note_off", "time": 170, "note": 64, "velocity": 115, "channel": 0}, {"type": "note_on", "time": 21, "note": 63, "velocity": 113, "channel": 0}, {"type": "note_off", "time": 152, "note": 63, "velocity": 113, "channel": 0}, {"type": "note_on", "time": 24, "note": 62, "velocity": 121, "channel": 0}, {"type": "note_off", "time": 163, "note": 62, "velocity": 121, "channel": 0}, {"type": "note_on", "time": 37, "note": 61, "velocity": 116, "channel": 0}, {"type": "note_off", "time": 187, "note": 61, "velocity": 116, "channel": 0}, {"type": "note_on", "time": 22, "note": 60, "velocity": 106, "channel": 0}, {"type": "note_off", "time": 183, "note": 60, "velocity": 106, "channel": 0}, {"type": "note_on", "time": 29, "note": 58, "velocity": 95, "channel": 0}, {"type": "note_off", "time": 371, "note": 58, "velocity": 95, "channel": 0}, {"type": "note_on", "time": 47, "note": 56, "velocity": 102, "channel": 0}, {"type": "note_off", "time": 192, "note": 56, "velocity": 102, "channel": 0}, {"type": "note_on", "time": 71, "note": 53, "velocity": 95, "channel": 0}, {"type": "note_off", "time": 152, "note": 53, "velocity": 95, "channel": 0}, {"type": "note_on", "time": 20, "note": 51, "velocity": 95, "channel": 0}, {"type": "note_off", "time": 79, "note": 51, "velocity": 95, "channel": 0}, {"type": "note_on", "time": 32, "note": 54, "velocity": 98, "channel": 0}, {"type": "note_off", "time": 360, "note": 54, "velocity": 98, "channel": 0}, {"type": "note_on", "time": 35, "note": 51, "velocity": 93, "channel": 0}, {"type": "note_off", "time": 247, "note": 51, "velocity": 93, "channel": 0}, {"type": "note_on", "time": 40, "note": 53, "velocity": 100, "channel": 0}, {"type": "note_off", "time": 284, "note": 53, "velocity": 100, "channel": 0}, {"type": "note_on", "time": 20, "note": 51, "velocity": 107, "channel": 0}, {"type": "note_off", "time": 161, "note": 51, "velocity": 107, "channel": 0}, {"type": "note_on", "time": 17, "note": 48, "velocity": 102, "channel": 0}, {"type": "note_off", "time": 195, "note": 48, "velocity": 102, "channel": 0}, {"type": "note_on", "time": 31, "note": 46, "velocity": 86, "channel": 0}, {"type": "note_off", "time": 118, "note": 46, "velocity": 86, "channel": 0}, {"type": "note_on", "time": 97, "note": 51, "velocity": 105, "channel": 0}, {"type": "note_off", "time": 180, "note": 51, "velocity": 105, "channel": 0}, {"type": "note_on", "time": 37, "note": 54, "velocity": 107, "channel": 0}, {"type": "note_off", "time": 360, "note": 54, "velocity": 107, "channel": 0}, {"type": "note_on", "time": 24, "note": 56, "velocity": 89, "channel": 0}, {"type": "note_off", "time": 94, "note": 56, "velocity": 89, "channel": 0}, {"type": "note_on", "time": 22, "note": 58, "velocity": 101, "channel": 0}, {"type": "note_off", "time": 268, "note": 58, "velocity": 101, "channel": 0}, {"type": "note_on", "time": 23, "note": 55, "velocity": 113, "channel": 0}, {"type": "note_off", "time": 150, "note": 55, "velocity": 113, "channel": 0}, {"type": "note_on", "time": 11, "note": 56, "velocity": 99, "channel": 0}, {"type": "note_off", "time": 134, "note": 56, "velocity": 99, "channel": 0}, {"type": "note_on", "time": 23, "note": 58, "velocity": 96, "channel": 0}, {"type": "note_off", "time": 177, "note": 58, "velocity": 96, "channel": 0}, {"type": "note_on", "time": 26, "note": 61, "velocity": 105, "channel": 0}, {"type": "note_off", "time": 185, "note": 61, "velocity": 105, "channel": 0}, {"type": "note_on", "time": 16, "note": 63, "velocity": 106, "channel": 0}, {"type": "note_off", "time": 71, "note": 63, "velocity": 106, "channel": 0}, {"type": "note_on", "time": 28, "note": 65, "velocity": 117, "channel": 0}, {"type": "note_off", "time": 267, "note": 65, "velocity": 117, "channel": 0}, {"type": "note_on", "time": 57, "note": 61, "velocity": 118, "channel": 0}, {"type": "note_off", "time": 233, "note": 61, "velocity": 118, "channel": 0}, {"type": "note_on", "time": 27, "note": 60, "velocity": 105, "channel": 0}, {"type": "note_off", "time": 215, "note": 60, "velocity": 105, "channel": 0}, {"type": "note_on", "time": 263, "note": 63, "velocity": 111, "channel": 0}, {"type": "note_off", "time": 225, "note": 63, "velocity": 111, "channel": 0}, {"type": "note_on", "time": 127, "note": 71, "velocity": 106, "channel": 0}, {"type": "note_off", "time": 237, "note": 71, "velocity": 106, "channel": 0}, {"type": "note_on", "time": 102, "note": 69, "velocity": 102, "channel": 0}, {"type": "note_off", "time": 102, "note": 69, "velocity": 102, "channel": 0}, {"type": "note_on", "time": 26, "note": 69, "velocity": 101, "channel": 0}, {"type": "note_off", "time": 107, "note": 69, "velocity": 101, "channel": 0}, {"type": "note_on", "time": 3, "note": 67, "velocity": 103, "channel": 0}, {"type": "note_off", "time": 41, "note": 67, "velocity": 103, "channel": 0}, {"type": "note_on", "time": 15, "note": 63, "velocity": 110, "channel": 0}, {"type": "note_off", "time": 216, "note": 63, "velocity": 110, "channel": 0}, {"type": "note_on", "time": 105, "note": 56, "velocity": 88, "channel": 0}, {"type": "note_off", "time": 130, "note": 56, "velocity": 88, "channel": 0}, {"type": "note_on", "time": 87, "note": 57, "velocity": 94, "channel": 0}, {"type": "note_off", "time": 750, "note": 57, "velocity": 94, "channel": 0}, {"type": "note_on", "time": 1927, "note": 64, "velocity": 127, "channel": 0}, {"type": "note_off", "time": 258, "note": 64, "velocity": 127, "channel": 0}, {"type": "note_on", "time": 33, "note": 63, "velocity": 116, "channel": 0}, {"type": "note_off", "time": 223, "note": 63, "velocity": 116, "channel": 0}, {"type": "note_on", "time": 18, "note": 61, "velocity": 116, "channel": 0}, {"type": "note_off", "time": 299, "note": 61, "velocity": 116, "channel": 0}, {"type": "note_on", "time": 111, "note": 70, "velocity": 114, "channel": 0}, {"type": "note_off", "time": 324, "note": 70, "velocity": 114, "channel": 0}, {"type": "note_on", "time": 84, "note": 73, "velocity": 108, "channel": 0}, {"type": "note_off", "time": 254, "note": 73, "velocity": 108, "channel": 0}, {"type": "note_on", "time": 80, "note": 70, "velocity": 115, "channel": 0}, {"type": "note_off", "time": 83, "note": 70, "velocity": 115, "channel": 0}, {"type": "note_on", "time": 21, "note": 71, "velocity": 113, "channel": 0}, {"type": "note_off", "time": 93, "note": 71, "velocity": 113, "channel": 0}, {"type": "note_on", "time": 28, "note": 71, "velocity": 99, "channel": 0}, {"type": "note_off", "time": 91, "note": 71, "velocity": 99, "channel": 0}, {"type": "note_on", "time": 18, "note": 65, "velocity": 113, "channel": 0}, {"type": "note_off", "time": 143, "note": 65, "velocity": 113, "channel": 0}, {"type": "note_on", "time": 32, "note": 61, "velocity": 112, "channel": 0}, {"type": "note_off", "time": 257, "note": 61, "velocity": 112, "channel": 0}, {"type": "note_on", "time": 128, "note": 68, "velocity": 106, "channel": 0}, {"type": "note_off", "time": 233, "note": 68, "velocity": 106, "channel": 0}, {"type": "note_on", "time": 41, "note": 63, "velocity": 115, "channel": 0}, {"type": "note_off", "time": 189, "note": 63, "velocity": 115, "channel": 0}, {"type": "note_on", "time": 13, "note": 61, "velocity": 111, "channel": 0}, {"type": "note_off", "time": 189, "note": 61, "velocity": 111, "channel": 0}, {"type": "note_on", "time": 77, "note": 56, "velocity": 93, "channel": 0}, {"type": "note_off", "time": 147, "note": 56, "velocity": 93, "channel": 0}, {"type": "note_on", "time": 88, "note": 51, "velocity": 89, "channel": 0}, {"type": "note_off", "time": 148, "note": 51, "velocity": 89, "channel": 0}, {"type": "note_on", "time": 116, "note": 58, "velocity": 96, "channel": 0}, {"type": "note_off", "time": 378, "note": 58, "velocity": 96, "channel": 0}, {"type": "note_on", "time": 72, "note": 56, "velocity": 97, "channel": 0}, {"type": "note_off", "time": 313, "note": 56, "velocity": 97, "channel": 0}, {"type": "note_on", "time": 50, "note": 56, "velocity": 113, "channel": 0}, {"type": "note_off", "time": 206, "note": 56, "velocity": 113, "channel": 0}, {"type": "note_on", "time": 1606, "note": 76, "velocity": 122, "channel": 0}, {"type": "note_off", "time": 383, "note": 76, "velocity": 122, "channel": 0}, {"type": "note_on", "time": 25, "note": 75, "velocity": 104, "channel": 0}, {"type": "note_off", "time": 256, "note": 75, "velocity": 104, "channel": 0}, {"type": "note_on", "time": 190, "note": 73, "velocity": 112, "channel": 0}, {"type": "note_off", "time": 309, "note": 73, "velocity": 112, "channel": 0}, {"type": "note_on", "time": 91, "note": 70, "velocity": 109, "channel": 0}, {"type": "note_off", "time": 280, "note": 70, "velocity": 109, "channel": 0}, {"type": "note_on", "time": 103, "note": 67, "velocity": 116, "channel": 0}, {"type": "note_off", "time": 132, "note": 67, "velocity": 116, "channel": 0}, {"type": "note_on", "time": 22, "note": 69, "velocity": 99, "channel": 0}, {"type": "note_off", "time": 91, "note": 69, "velocity": 99, "channel": 0}, {"type": "note_on", "time": 21, "note": 71, "velocity": 99, "channel": 0}, {"type": "note_off", "time": 170, "note": 71, "velocity": 99, "channel": 0}, {"type": "note_on", "time": 10, "note": 64, "velocity": 115, "channel": 0}, {"type": "note_off", "time": 262, "note": 64, "velocity": 115, "channel": 0}, {"type": "note_on", "time": 194, "note": 65, "velocity": 118, "channel": 0}, {"type": "note_off", "time": 179, "note": 65, "velocity": 118, "channel": 0}, {"type": "note_on", "time": 32, "note": 64, "velocity": 112, "channel": 0}, {"type": "note_off", "time": 141, "note": 64, "velocity": 112, "channel": 0}, {"type": "note_on", "time": 39, "note": 64, "velocity": 101, "channel": 0}, {"type": "note_off", "time": 132, "note": 64, "velocity": 101, "channel": 0}, {"type": "note_on", "time": 81, "note": 61, "velocity": 113, "channel": 0}, {"type": "note_off", "time": 248, "note": 61, "velocity": 113, "channel": 0}, {"type": "note_on", "time": 193, "note": 63, "velocity": 112, "channel": 0}, {"type": "note_off", "time": 351, "note": 63, "velocity": 112, "channel": 0}, {"type": "note_on", "time": 69, "note": 61, "velocity": 116, "channel": 0}, {"type": "note_off", "time": 261, "note": 61, "velocity": 116, "channel": 0}, {"type": "note_on", "time": 120, "note": 58, "velocity": 97, "channel": 0}, {"type": "note_off", "time": 236, "note": 58, "velocity": 97, "channel": 0}, {"type": "note_on", "time": 81, "note": 53, "velocity": 95, "channel": 0}, {"type": "note_off", "time": 209, "note": 53, "velocity": 95, "channel": 0}, {"type": "note_on", "time": 55, "note": 50, "velocity": 105, "channel": 0}, {"type": "note_off", "time": 154, "note": 50, "velocity": 105, "channel": 0}, {"type": "note_on", "time": 33, "note": 48, "velocity": 104, "channel": 0}, {"type": "note_off", "time": 198, "note": 48, "velocity": 104, "channel": 0}, {"type": "note_on", "time": 52, "note": 46, "velocity": 99, "channel": 0}, {"type": "note_off", "time": 199, "note": 46, "velocity": 99, "channel": 0}, {"type": "note_on", "time": 156, "note": 51, "velocity": 100, "channel": 0}, {"type": "note_off", "time": 314, "note": 51, "velocity": 100, "channel": 0}, {"type": "note_on", "time": 145, "note": 53, "velocity": 96, "channel": 0}, {"type": "note_off", "time": 343, "note": 53, "velocity": 96, "channel": 0}, {"type": "note_on", "time": 1208, "note": 55, "velocity": 101, "channel": 0}, {"type": "note_off", "time": 135, "note": 55, "velocity": 101, "channel": 0}, {"type": "note_on", "time": 14, "note": 58, "velocity": 106, "channel": 0}, {"type": "note_off", "time": 138, "note": 58, "velocity": 106, "channel": 0}, {"type": "note_on", "time": 30, "note": 62, "velocity": 101, "channel": 0}, {"type": "note_off", "time": 130, "note": 62, "velocity": 101, "channel": 0}, {"type": "note_on", "time": 15, "note": 67, "velocity": 102, "channel": 0}, {"type": "note_off", "time": 83, "note": 67, "velocity": 102, "channel": 0}, {"type": "note_on", "time": 126, "note": 70, "velocity": 118, "channel": 0}, {"type": "note_off", "time": 329, "note": 70, "velocity": 118, "channel": 0}, {"type": "note_on", "time": 93, "note": 74, "velocity": 104, "channel": 0}, {"type": "note_off", "time": 375, "note": 74, "velocity": 104, "channel": 0}, {"type": "note_on", "time": 53, "note": 70, "velocity": 99, "channel": 0}, {"type": "note_off", "time": 799, "note": 70, "velocity": 99, "channel": 0}, {"type": "note_on", "time": 790, "note": 73, "velocity": 108, "channel": 0}, {"type": "note_off", "time": 311, "note": 73, "velocity": 108, "channel": 0}, {"type": "note_on", "time": 111, "note": 71, "velocity": 110, "channel": 0}, {"type": "note_off", "time": 94, "note": 71, "velocity": 110, "channel": 0}, {"type": "note_on", "time": 7, "note": 73, "velocity": 112, "channel": 0}, {"type": "note_off", "time": 182, "note": 73, "velocity": 112, "channel": 0}, {"type": "note_on", "time": 18, "note": 71, "velocity": 113, "channel": 0}, {"type": "note_off", "time": 509, "note": 71, "velocity": 113, "channel": 0}, {"type": "note_on", "time": 37, "note": 69, "velocity": 106, "channel": 0}, {"type": "note_off", "time": 69, "note": 69, "velocity": 106, "channel": 0}, {"type": "note_on", "time": 32, "note": 71, "velocity": 115, "channel": 0}, {"type": "note_off", "time": 108, "note": 71, "velocity": 115, "channel": 0}, {"type": "note_on", "time": 20, "note": 69, "velocity": 107, "channel": 0}, {"type": "note_off", "time": 104, "note": 69, "velocity": 107, "channel": 0}, {"type": "note_on", "time": 24, "note": 66, "velocity": 109, "channel": 0}, {"type": "note_off", "time": 134, "note": 66, "velocity": 109, "channel": 0}, {"type": "note_on", "time": 25, "note": 64, "velocity": 117, "channel": 0}, {"type": "note_off", "time": 217, "note": 64, "velocity": 117, "channel": 0}, {"type": "note_on", "time": 34, "note": 59, "velocity": 96, "channel": 0}, {"type": "note_off", "time": 198, "note": 59, "velocity": 96, "channel": 0}, {"type": "note_on", "time": 54, "note": 54, "velocity": 88, "channel": 0}, {"type": "note_off", "time": 194, "note": 54, "velocity": 88, "channel": 0}, {"type": "note_on", "time": 978, "note": 53, "velocity": 95, "channel": 0}, {"type": "note_off", "time": 94, "note": 53, "velocity": 95, "channel": 0}, {"type": "note_on", "time": 27, "note": 53, "velocity": 105, "channel": 0}, {"type": "note_off", "time": 80, "note": 53, "velocity": 105, "channel": 0}, {"type": "note_on", "time": 12, "note": 56, "velocity": 107, "channel": 0}, {"type": "note_off", "time": 157, "note": 56, "velocity": 107, "channel": 0}, {"type": "note_on", "time": 14, "note": 58, "velocity": 91, "channel": 0}, {"type": "note_off", "time": 108, "note": 58, "velocity": 91, "channel": 0}, {"type": "note_on", "time": 10, "note": 63, "velocity": 100, "channel": 0}, {"type": "note_off", "time": 124, "note": 63, "velocity": 100, "channel": 0}, {"type": "note_on", "time": 44, "note": 70, "velocity": 115, "channel": 0}, {"type": "note_off", "time": 245, "note": 70, "velocity": 115, "channel": 0}, {"type": "note_on", "time": 10, "note": 75, "velocity": 106, "channel": 0}, {"type": "note_off", "time": 162, "note": 75, "velocity": 106, "channel": 0}, {"type": "note_on", "time": 15, "note": 74, "velocity": 104, "channel": 0}, {"type": "note_off", "time": 234, "note": 74, "velocity": 104, "channel": 0}, {"type": "note_on", "time": 5, "note": 72, "velocity": 110, "channel": 0}, {"type": "note_off", "time": 257, "note": 72, "velocity": 110, "channel": 0}, {"type": "note_on", "time": 12, "note": 70, "velocity": 108, "channel": 0}, {"type": "note_off", "time": 183, "note": 70, "velocity": 108, "channel": 0}, {"type": "note_on", "time": 26, "note": 68, "velocity": 102, "channel": 0}, {"type": "note_off", "time": 130, "note": 68, "velocity": 102, "channel": 0}, {"type": "note_on", "time": 35, "note": 67, "velocity": 104, "channel": 0}, {"type": "note_off", "time": 176, "note": 67, "velocity": 104, "channel": 0}, {"type": "note_on", "time": 20, "note": 65, "velocity": 106, "channel": 0}, {"type": "note_off", "time": 94, "note": 65, "velocity": 106, "channel": 0}, {"type": "note_on", "time": 14, "note": 63, "velocity": 110, "channel": 0}, {"type": "note_off", "time": 106, "note": 63, "velocity": 110, "channel": 0}, {"type": "note_on", "time": 30, "note": 62, "velocity": 123, "channel": 0}, {"type": "note_off", "time": 206, "note": 62, "velocity": 123, "channel": 0}, {"type": "note_on", "time": 10, "note": 60, "velocity": 111, "channel": 0}, {"type": "note_off", "time": 209, "note": 60, "velocity": 111, "channel": 0}, {"type": "note_on", "time": 11, "note": 59, "velocity": 84, "channel": 0}, {"type": "note_off", "time": 260, "note": 59, "velocity": 84, "channel": 0}, {"type": "note_on", "time": 211, "note": 57, "velocity": 102, "channel": 0}, {"type": "note_off", "time": 107, "note": 57, "velocity": 102, "channel": 0}, {"type": "note_on", "time": 16, "note": 59, "velocity": 98, "channel": 0}, {"type": "note_off", "time": 124, "note": 59, "velocity": 98, "channel": 0}, {"type": "note_on", "time": 32, "note": 52, "velocity": 96, "channel": 0}, {"type": "note_off", "time": 193, "note": 52, "velocity": 96, "channel": 0}, {"type": "note_on", "time": 15, "note": 56, "velocity": 91, "channel": 0}, {"type": "note_off", "time": 115, "note": 56, "velocity": 91, "channel": 0}, {"type": "note_on", "time": 21, "note": 57, "velocity": 92, "channel": 0}, {"type": "note_off", "time": 145, "note": 57, "velocity": 92, "channel": 0}, {"type": "note_on", "time": 15, "note": 59, "velocity": 99, "channel": 0}, {"type": "note_off", "time": 141, "note": 59, "velocity": 99, "channel": 0}, {"type": "note_on", "time": 24, "note": 64, "velocity": 123, "channel": 0}, {"type": "note_off", "time": 384, "note": 64, "velocity": 123, "channel": 0}, {"type": "note_on", "time": 80, "note": 62, "velocity": 118, "channel": 0}, {"type": "note_off", "time": 106, "note": 62, "velocity": 118, "channel": 0}, {"type": "note_on", "time": 14, "note": 60, "velocity": 106, "channel": 0}, {"type": "note_off", "time": 114, "note": 60, "velocity": 106, "channel": 0}, {"type": "note_on", "time": 37, "note": 59, "velocity": 99, "channel": 0}, {"type": "note_off", "time": 116, "note": 59, "velocity": 99, "channel": 0}, {"type": "note_on", "time": 48, "note": 57, "velocity": 99, "channel": 0}, {"type": "note_off", "time": 339, "note": 57, "velocity": 99, "channel": 0}, {"type": "note_on", "time": 49, "note": 57, "velocity": 102, "channel": 0}, {"type": "note_off", "time": 301, "note": 57, "velocity": 102, "channel": 0}, {"type": "note_on", "time": 950, "note": 52, "velocity": 95, "channel": 0}, {"type": "note_off", "time": 100, "note": 52, "velocity": 95, "channel": 0}, {"type": "note_on", "time": 21, "note": 53, "velocity": 105, "channel": 0}, {"type": "note_off", "time": 81, "note": 53, "velocity": 105, "channel": 0}, {"type": "note_on", "time": 0, "note": 52, "velocity": 107, "channel": 0}, {"type": "note_off", "time": 79, "note": 52, "velocity": 107, "channel": 0}, {"type": "note_on", "time": 0, "note": 50, "velocity": 102, "channel": 0}, {"type": "note_off", "time": 192, "note": 50, "velocity": 102, "channel": 0}, {"type": "note_on", "time": 21, "note": 51, "velocity": 90, "channel": 0}, {"type": "note_off", "time": 136, "note": 51, "velocity": 90, "channel": 0}, {"type": "note_on", "time": 34, "note": 53, "velocity": 91, "channel": 0}, {"type": "note_off", "time": 71, "note": 53, "velocity": 91, "channel": 0}, {"type": "note_on", "time": 24, "note": 54, "velocity": 79, "channel": 0}, {"type": "note_off", "time": 57, "note": 54, "velocity": 79, "channel": 0}, {"type": "note_on", "time": 41, "note": 58, "velocity": 106, "channel": 0}, {"type": "note_off", "time": 360, "note": 58, "velocity": 106, "channel": 0}, {"type": "note_on", "time": 35, "note": 56, "velocity": 108, "channel": 0}, {"type": "note_off", "time": 274, "note": 56, "velocity": 108, "channel": 0}, {"type": "note_on", "time": 153, "note": 63, "velocity": 120, "channel": 0}, {"type": "note_off", "time": 375, "note": 63, "velocity": 120, "channel": 0}, {"type": "note_on", "time": 67, "note": 61, "velocity": 116, "channel": 0}, {"type": "note_off", "time": 389, "note": 61, "velocity": 116, "channel": 0}, {"type": "note_on", "time": 920, "note": 72, "velocity": 114, "channel": 0}, {"type": "note_off", "time": 215, "note": 72, "velocity": 114, "channel": 0}, {"type": "note_on", "time": 21, "note": 68, "velocity": 109, "channel": 0}, {"type": "note_off", "time": 189, "note": 68, "velocity": 109, "channel": 0}, {"type": "note_on", "time": 19, "note": 67, "velocity": 102, "channel": 0}, {"type": "note_off", "time": 222, "note": 67, "velocity": 102, "channel": 0}, {"type": "note_on", "time": 295, "note": 70, "velocity": 109, "channel": 0}, {"type": "note_off", "time": 245, "note": 70, "velocity": 109, "channel": 0}, {"type": "note_on", "time": 92, "note": 66, "velocity": 106, "channel": 0}, {"type": "note_off", "time": 263, "note": 66, "velocity": 106, "channel": 0}, {"type": "note_on", "time": 10, "note": 65, "velocity": 111, "channel": 0}, {"type": "note_off", "time": 236, "note": 65, "velocity": 111, "channel": 0}, {"type": "note_on", "time": 40, "note": 64, "velocity": 111, "channel": 0}, {"type": "note_off", "time": 232, "note": 64, "velocity": 111, "channel": 0}, {"type": "note_on", "time": 65, "note": 63, "velocity": 116, "channel": 0}, {"type": "note_off", "time": 226, "note": 63, "velocity": 116, "channel": 0}, {"type": "note_on", "time": 148, "note": 65, "velocity": 107, "channel": 0}, {"type": "note_off", "time": 189, "note": 65, "velocity": 107, "channel": 0}, {"type": "note_on", "time": 72, "note": 61, "velocity": 107, "channel": 0}, {"type": "note_off", "time": 75, "note": 61, "velocity": 107, "channel": 0}, {"type": "note_on", "time": 12, "note": 63, "velocity": 112, "channel": 0}, {"type": "note_off", "time": 83, "note": 63, "velocity": 112, "channel": 0}, {"type": "note_on", "time": 6, "note": 60, "velocity": 112, "channel": 0}, {"type": "note_off", "time": 156, "note": 60, "velocity": 112, "channel": 0}, {"type": "note_on", "time": 15, "note": 58, "velocity": 97, "channel": 0}, {"type": "note_off", "time": 158, "note": 58, "velocity": 97, "channel": 0}, {"type": "note_on", "time": 227, "note": 63, "velocity": 109, "channel": 0}, {"type": "note_off", "time": 309, "note": 63, "velocity": 109, "channel": 0}, {"type": "note_on", "time": 18, "note": 61, "velocity": 114, "channel": 0}, {"type": "note_off", "time": 267, "note": 61, "velocity": 114, "channel": 0}, {"type": "note_on", "time": 164, "note": 56, "velocity": 100, "channel": 0}, {"type": "note_off", "time": 266, "note": 56, "velocity": 100, "channel": 0}, {"type": "note_on", "time": 46, "note": 51, "velocity": 103, "channel": 0}, {"type": "note_off", "time": 299, "note": 51, "velocity": 103, "channel": 0}, {"type": "note_on", "time": 53, "note": 45, "velocity": 92, "channel": 0}, {"type": "note_off", "time": 267, "note": 45, "velocity": 92, "channel": 0}, {"type": "note_on", "time": 106, "note": 58, "velocity": 98, "channel": 0}, {"type": "note_off", "time": 302, "note": 58, "velocity": 98, "channel": 0}, {"type": "note_on", "time": 86, "note": 56, "velocity": 90, "channel": 0}, {"type": "note_off", "time": 247, "note": 56, "velocity": 90, "channel": 0}, {"type": "note_on", "time": 184, "note": 46, "velocity": 87, "channel": 0}, {"type": "note_off", "time": 780, "note": 46, "velocity": 87, "channel": 0}, {"type": "note_on", "time": 921, "note": 50, "velocity": 108, "channel": 0}, {"type": "note_off", "time": 147, "note": 50, "velocity": 108, "channel": 0}, {"type": "note_on", "time": 13, "note": 48, "velocity": 98, "channel": 0}, {"type": "note_off", "time": 109, "note": 48, "velocity": 98, "channel": 0}, {"type": "note_on", "time": 37, "note": 44, "velocity": 96, "channel": 0}, {"type": "note_off", "time": 119, "note": 44, "velocity": 96, "channel": 0}, {"type": "note_on", "time": 32, "note": 46, "velocity": 94, "channel": 0}, {"type": "note_off", "time": 205, "note": 46, "velocity": 94, "channel": 0}, {"type": "note_on", "time": 168, "note": 48, "velocity": 99, "channel": 0}, {"type": "note_off", "time": 360, "note": 48, "velocity": 99, "channel": 0}, {"type": "note_on", "time": 84, "note": 49, "velocity": 101, "channel": 0}, {"type": "note_off", "time": 383, "note": 49, "velocity": 101, "channel": 0}, {"type": "note_on", "time": 143, "note": 51, "velocity": 102, "channel": 0}, {"type": "note_off", "time": 454, "note": 51, "velocity": 102, "channel": 0}, {"type": "note_on", "time": 85, "note": 53, "velocity": 100, "channel": 0}, {"type": "note_off", "time": 484, "note": 53, "velocity": 100, "channel": 0}, {"type": "note_on", "time": 17, "note": 54, "velocity": 102, "channel": 0}, {"type": "note_off", "time": 163, "note": 54, "velocity": 102, "channel": 0}, {"type": "note_on", "time": 13, "note": 53, "velocity": 103, "channel": 0}, {"type": "note_off", "time": 305, "note": 53, "velocity": 103, "channel": 0}, {"type": "note_on", "time": 108, "note": 51, "velocity": 98, "channel": 0}, {"type": "note_off", "time": 307, "note": 51, "velocity": 98, "channel": 0}, {"type": "note_on", "time": 198, "note": 58, "velocity": 100, "channel": 0}, {"type": "note_off", "time": 524, "note": 58, "velocity": 100, "channel": 0}, {"type": "note_on", "time": 38, "note": 56, "velocity": 107, "channel": 0}, {"type": "note_off", "time": 498, "note": 56, "velocity": 107, "channel": 0}, {"type": "note_on", "time": 111, "note": 57, "velocity": 97, "channel": 0}, {"type": "note_off", "time": 402, "note": 57, "velocity": 97, "channel": 0}, {"type": "note_on", "time": 163, "note": 52, "velocity": 92, "channel": 0}, {"type": "note_off", "time": 614, "note": 52, "velocity": 92, "channel": 0}, {"type": "note_on", "time": 1047, "note": 52, "velocity": 104, "channel": 0}, {"type": "note_off", "time": 391, "note": 52, "velocity": 104, "channel": 0}, {"type": "note_on", "time": 10, "note": 51, "velocity": 104, "channel": 0}, {"type": "note_off", "time": 594, "note": 51, "velocity": 104, "channel": 0}, {"type": "note_on", "time": 119, "note": 51, "velocity": 102, "channel": 0}, {"type": "note_off", "time": 260, "note": 51, "velocity": 102, "channel": 0}, {"type": "note_on", "time": 703, "note": 48, "velocity": 100, "channel": 0}, {"type": "note_off", "time": 300, "note": 48, "velocity": 100, "channel": 0}, {"type": "note_on", "time": 25, "note": 51, "velocity": 103, "channel": 0}, {"type": "note_off", "time": 378, "note": 51, "velocity": 103, "channel": 0}, {"type": "note_on", "time": 123, "note": 53, "velocity": 102, "channel": 0}, {"type": "note_off", "time": 236, "note": 53, "velocity": 102, "channel": 0}, {"type": "note_on", "time": 140, "note": 56, "velocity": 102, "channel": 0}, {"type": "note_off", "time": 331, "note": 56, "velocity": 102, "channel": 0}, {"type": "note_on", "time": 96, "note": 60, "velocity": 110, "channel": 0}, {"type": "note_off", "time": 457, "note": 60, "velocity": 110, "channel": 0}, {"type": "note_on", "time": 136, "note": 60, "velocity": 109, "channel": 0}, {"type": "note_off", "time": 375, "note": 60, "velocity": 109, "channel": 0}, {"type": "note_on", "time": 38, "note": 57, "velocity": 95, "channel": 0}, {"type": "note_off", "time": 541, "note": 57, "velocity": 95, "channel": 0}, {"type": "note_on", "time": 197, "note": 58, "velocity": 101, "channel": 0}, {"type": "note_off", "time": 347, "note": 58, "velocity": 101, "channel": 0}, {"type": "note_on", "time": 154, "note": 61, "velocity": 121, "channel": 0}, {"type": "note_off", "time": 276, "note": 61, "velocity": 121, "channel": 0}, {"type": "note_on", "time": 209, "note": 65, "velocity": 110, "channel": 0}, {"type": "note_off", "time": 358, "note": 65, "velocity": 110, "channel": 0}, {"type": "note_on", "time": 79, "note": 67, "velocity": 100, "channel": 0}, {"type": "note_off", "time": 147, "note": 67, "velocity": 100, "channel": 0}, {"type": "note_on", "time": 21, "note": 68, "velocity": 92, "channel": 0}, {"type": "note_off", "time": 245, "note": 68, "velocity": 92, "channel": 0}, {"type": "note_on", "time": 317, "note": 70, "velocity": 102, "channel": 0}, {"type": "note_off", "time": 356, "note": 70, "velocity": 102, "channel": 0}, {"type": "note_on", "time": 191, "note": 72, "velocity": 89, "channel": 0}, {"type": "note_off", "time": 324, "note": 72, "velocity": 89, "channel": 0}, {"type": "note_on", "time": 117, "note": 73, "velocity": 84, "channel": 0}, {"type": "note_off", "time": 324, "note": 73, "velocity": 84, "channel": 0}, {"type": "note_on", "time": 173, "note": 72, "velocity": 96, "channel": 0}, {"type": "note_off", "time": 309, "note": 72, "velocity": 96, "channel": 0}, {"type": "note_on", "time": 41, "note": 70, "velocity": 99, "channel": 0}, {"type": "note_off", "time": 230, "note": 70, "velocity": 99, "channel": 0}, {"type": "note_on", "time": 190, "note": 66, "velocity": 91, "channel": 0}, {"type": "note_off", "time": 317, "note": 66, "velocity": 91, "channel": 0}, {"type": "note_on", "time": 18, "note": 65, "velocity": 93, "channel": 0}, {"type": "note_off", "time": 339, "note": 65, "velocity": 93, "channel": 0}, {"type": "note_on", "time": 64, "note": 63, "velocity": 100, "channel": 0}, {"type": "note_off", "time": 425, "note": 63, "velocity": 100, "channel": 0}, {"type": "note_on", "time": 922, "note": 75, "velocity": 96, "channel": 0}, {"type": "note_off", "time": 193, "note": 75, "velocity": 96, "channel": 0}, {"type": "note_on", "time": 54, "note": 83, "velocity": 76, "channel": 0}, {"type": "note_off", "time": 146, "note": 83, "velocity": 76, "channel": 0}, {"type": "note_on", "time": 299, "note": 75, "velocity": 95, "channel": 0}, {"type": "note_off", "time": 303, "note": 75, "velocity": 95, "channel": 0}, {"type": "note_on", "time": 155, "note": 73, "velocity": 98, "channel": 0}, {"type": "note_off", "time": 292, "note": 73, "velocity": 98, "channel": 0}, {"type": "note_on", "time": 120, "note": 70, "velocity": 99, "channel": 0}, {"type": "note_off", "time": 344, "note": 70, "velocity": 99, "channel": 0}, {"type": "note_on", "time": 163, "note": 67, "velocity": 96, "channel": 0}, {"type": "note_off", "time": 172, "note": 67, "velocity": 96, "channel": 0}, {"type": "note_on", "time": 5, "note": 63, "velocity": 107, "channel": 0}, {"type": "note_off", "time": 316, "note": 63, "velocity": 107, "channel": 0}, {"type": "note_on", "time": 295, "note": 70, "velocity": 102, "channel": 0}, {"type": "note_off", "time": 305, "note": 70, "velocity": 102, "channel": 0}, {"type": "note_on", "time": 30, "note": 68, "velocity": 97, "channel": 0}, {"type": "note_off", "time": 267, "note": 68, "velocity": 97, "channel": 0}, {"type": "note_on", "time": 96, "note": 65, "velocity": 101, "channel": 0}, {"type": "note_off", "time": 228, "note": 65, "velocity": 101, "channel": 0}, {"type": "note_on", "time": 123, "note": 64, "velocity": 109, "channel": 0}, {"type": "note_off", "time": 286, "note": 64, "velocity": 109, "channel": 0}, {"type": "note_on", "time": 182, "note": 68, "velocity": 95, "channel": 0}, {"type": "note_off", "time": 222, "note": 68, "velocity": 95, "channel": 0}, {"type": "note_on", "time": 83, "note": 64, "velocity": 102, "channel": 0}, {"type": "note_off", "time": 306, "note": 64, "velocity": 102, "channel": 0}, {"type": "note_on", "time": 11, "note": 61, "velocity": 98, "channel": 0}, {"type": "note_off", "time": 342, "note": 61, "velocity": 98, "channel": 0}, {"type": "note_on", "time": 41, "note": 60, "velocity": 98, "channel": 0}, {"type": "note_off", "time": 321, "note": 60, "velocity": 98, "channel": 0}, {"type": "note_on", "time": 181, "note": 63, "velocity": 108, "channel": 0}, {"type": "note_off", "time": 232, "note": 63, "velocity": 108, "channel": 0}, {"type": "note_on", "time": 124, "note": 63, "velocity": 106, "channel": 0}, {"type": "note_off", "time": 123, "note": 63, "velocity": 106, "channel": 0}, {"type": "note_on", "time": 8, "note": 61, "velocity": 94, "channel": 0}, {"type": "note_off", "time": 188, "note": 61, "velocity": 94, "channel": 0}, {"type": "note_on", "time": 10, "note": 56, "velocity": 9, "channel": 0}, {"type": "note_off", "time": 305, "note": 56, "velocity": 9, "channel": 0}, {"type": "note_on", "time": 116, "note": 51, "velocity": 113, "channel": 0}, {"type": "note_off", "time": 322, "note": 51, "velocity": 113, "channel": 0}, {"type": "note_on", "time": 164, "note": 58, "velocity": 104, "channel": 0}, {"type": "note_off", "time": 660, "note": 58, "velocity": 104, "channel": 0}, {"type": "end_of_track", "time": 0}]]}