{"ticks_per_beat": 192, "tracks": [[{"type": "note_on", "time": 0, "note": 67, "velocity": 70, "channel": 0}, {"type": "note_off", "time": 176, "note": 67, "velocity": 70, "channel": 0}, {"type": "note_on", "time": 33, "note": 67, "velocity": 67, "channel": 0}, {"type": "note_off", "time": 372, "note": 67, "velocity": 67, "channel": 0}, {"type": "note_on", "time": 639, "note": 67, "velocity": 95, "channel": 0}, {"type": "note_off", "time": 105, "note": 67, "velocity": 95, "channel": 0}, {"type": "note_on", "time": 4, "note": 65, "velocity": 97, "channel": 0}, {"type": "note_off", "time": 81, "note": 65, "velocity": 97, "channel": 0}, {"type": "note_on", "time": 2, "note": 63, "velocity": 94, "channel": 0}, {"type": "track_name", "name": "Melody", "time": 33}, {"type": "set_tempo", "tempo": 233463, "time": 0}, {"type": "key_signature", "key": "Eb", "time": 0}, {"type": "time_signature", "numerator": 4, "denominator": 4, "clocks_per_click": 24, "notated_32nd_notes_per_beat": 8, "time": 0}, {"type": "note_off", "time": 118, "note": 63, "velocity": 94, "channel": 0}, {"type": "note_on", "time": 8, "note": 61, "velocity": 89, "channel": 0}, {"type": "note_off", "time": 417, "note": 61, "velocity": 89, "channel": 0}, {"type": "note_on", "time": 29, "note": 63, "velocity": 97, "channel": 0}, {"type": "note_off", "time": 386, "note": 63, "velocity": 97, "channel": 0}, {"type": "note_on", "time": 15, "note": 66, "velocity": 101, "channel": 0}, {"type": "note_off", "time": 346, "note": 66, "velocity": 101, "channel": 0}, {"type": "note_on", "time": 1, "note": 68, "velocity": 106, "channel": 0}, {"type": "note_off", "time": 267, "note": 68, "velocity": 106, "channel": 0}, {"type": "note_on", "time": 14, "note": 70, "velocity": 100, "channel": 0}, {"type": "note_off", "time": 56, "note": 70, "velocity": 100, "channel": 0}, {"type": "note_on", "time": 130, "note": 72, "velocity": 98, "channel": 0}, {"type": "note_off", "time": 71, "note": 72, "velocity": 98, "channel": 0}, {"type": "note_on", "time": 343, "note": 70, "velocity": 94, "channel": 0}, {"type": "note_off", "time": 71, "note": 70, "velocity": 94, "channel": 0}, {"type": "note_on", "time": 453, "note": 60, "velocity": 90, "channel": 0}, {"type": "note_off", "time": 45, "note": 60, "velocity": 90, "channel": 0}, {"type": "note_on", "time": 10, "note": 63, "velocity": 88, "channel": 0}, {"type": "note_off", "time": 114, "note": 63, "velocity": 88, "channel": 0}, {"type": "note_on", "time": 2, "note": 65, "velocity": 87, "channel": 0}, {"type": "note_off", "time": 78, "note": 65, "velocity": 87, "channel": 0}, {"type": "note_on", "time": 15, "note": 70, "velocity": 89, "channel": 0}, {"type": "note_off", "time": 157, "note": 70, "velocity": 89, "channel": 0}, {"type": "note_on", "time": 4, "note": 68, "velocity": 96, "channel": 0}, {"type": "note_off", "time": 130, "note": 68, "velocity": 96, "channel": 0}, {"type": "note_on", "time": 13, "note": 67, "velocity": 91, "channel": 0}, {"type": "note_off", "time": 176, "note": 67, "velocity": 91, "channel": 0}, {"type": "note_on", "time": 1610, "note": 60, "velocity": 98, "channel": 0}, {"type": "note_off", "time": 48, "note": 60, "velocity": 98, "channel": 0}, {"type": "note_on", "time": 9, "note": 63, "velocity": 94, "channel": 0}, {"type": "note_off", "time": 85, "note": 63, "velocity": 94, "channel": 0}, {"type": "note_on", "time": 32, "note": 65, "velocity": 107, "channel": 0}, {"type": "note_off", "time": 73, "note": 65, "velocity": 107, "channel": 0}, {"type": "note_on", "time": 16, "note": 67, "velocity": 111, "channel": 0}, {"type": "note_off", "time": 97, "note": 67, "velocity": 111, "channel": 0}, {"type": "note_on", "time": 10, "note": 70, "velocity": 108, "channel": 0}, {"type": "note_off", "time": 87, "note": 70, "velocity": 108, "channel": 0}, {"type": "note_on", "time": 13, "note": 72, "velocity": 99, "channel": 0}, {"type": "note_off", "time": 87, "note": 72, "velocity": 99, "channel": 0}, {"type": "note_on", "time": 6, "note": 75, "velocity": 109, "channel": 0}, {"type": "note_off", "time": 67, "note": 75, "velocity": 109, "channel": 0}, {"type": "note_on", "time": 9, "note": 79, "velocity": 119, "channel": 0}, {"type": "note_off", "time": 130, "note": 79, "velocity": 119, "channel": 0}, {"type": "note_on", "time": 5, "note": 75, "velocity": 112, "channel": 0}, {"type": "note_off", "time": 46, "note": 75, "velocity": 112, "channel": 0}, {"type": "note_on", "time": 4, "note": 77, "velocity": 120, "channel": 0}, {"type": "note_off", "time": 130, "note": 77, "velocity": 120, "channel": 0}, {"type": "note_on", "time": 6, "note": 72, "velocity": 97, "channel": 0}, {"type": "note_off", "time": 46, "note": 72, "velocity": 97, "channel": 0}, {"type": "note_on", "time": 6, "note": 75, "velocity": 116, "channel": 0}, {"type": "note_off", "time": 120, "note": 75, "velocity": 116, "channel": 0}, {"type": "note_on", "time": 10, "note": 70, "velocity": 104, "channel": 0}, {"type": "note_off", "time": 70, "note": 70, "velocity": 104, "channel": 0}, {"type": "note_on", "time": 0, "note": 67, "velocity": 103, "channel": 0}, {"type": "note_off", "time": 31, "note": 67, "velocity": 103, "channel": 0}, {"type": "note_on", "time": 4, "note": 68, "velocity": 105, "channel": 0}, {"type": "note_off", "time": 118, "note": 68, "velocity": 105, "channel": 0}, {"type": "note_on", "time": 0, "note": 65, "velocity": 105, "channel": 0}, {"type": "note_off", "time": 83, "note": 65, "velocity": 105, "channel": 0}, {"type": "note_on", "time": 3, "note": 63, "velocity": 101, "channel": 0}, {"type": "note_off", "time": 85, "note": 63, "velocity": 101, "channel": 0}, {"type": "note_on", "time": 3, "note": 65, "velocity": 102, "channel": 0}, {"type": "note_off", "time": 101, "note": 65, "velocity": 102, "channel": 0}, {"type": "note_on", "time": 2, "note": 67, "velocity": 99, "channel": 0}, {"type": "note_off", "time": 95, "note": 67, "velocity": 99, "channel": 0}, {"type": "note_on", "time": 16, "note": 63, "velocity": 94, "channel": 0}, {"type": "note_off", "time": 33, "note": 63, "velocity": 94, "channel": 0}, {"type": "note_on", "time": 3, "note": 65, "velocity": 91, "channel": 0}, {"type": "note_off", "time": 260, "note": 65, "velocity": 91, "channel": 0}, {"type": "note_on", "time": 996, "note": 61, "velocity": 94, "channel": 0}, {"type": "note_off", "time": 53, "note": 61, "velocity": 94, "channel": 0}, {"type": "note_on", "time": 10, "note": 63, "velocity": 97, "channel": 0}, {"type": "note_off", "time": 102, "note": 63, "velocity": 97, "channel": 0}, {"type": "note_on", "time": 6, "note": 64, "velocity": 97, "channel": 0}, {"type": "note_off", "time": 73, "note": 64, "velocity": 97, "channel": 0}, {"type": "note_on", "time": 8, "note": 66, "velocity": 105, "channel": 0}, {"type": "note_off", "time": 93, "note": 66, "velocity": 105, "channel": 0}, {"type": "note_on", "time": 16, "note": 68, "velocity": 105, "channel": 0}, {"type": "note_off", "time": 83, "note": 68, "velocity": 105, "channel": 0}, {"type": "note_on", "time": 15, "note": 69, "velocity": 107, "channel": 0}, {"type": "note_off", "time": 87, "note": 69, "velocity": 107, "channel": 0}, {"type": "note_on", "time": 6, "note": 71, "velocity": 98, "channel": 0}, {"type": "note_off", "time": 73, "note": 71, "velocity": 98, "channel": 0}, {"type": "note_on", "time": 10, "note": 73, "velocity": 108, "channel": 0}, {"type": "note_off", "time": 73, "note": 73, "velocity": 108, "channel": 0}, {"type": "note_on", "time": 6, "note": 75, "velocity": 112, "channel": 0}, {"type": "note_off", "time": 99, "note": 75, "velocity": 112, "channel": 0}, {"type": "note_on", "time": 3, "note": 78, "velocity": 119, "channel": 0}, {"type": "note_off", "time": 125, "note": 78, "velocity": 119, "channel": 0}, {"type": "note_on", "time": 11, "note": 77, "velocity": 116, "channel": 0}, {"type": "note_off", "time": 60, "note": 77, "velocity": 116, "channel": 0}, {"type": "note_on", "time": 3, "note": 76, "velocity": 117, "channel": 0}, {"type": "note_off", "time": 75, "note": 76, "velocity": 117, "channel": 0}, {"type": "note_on", "time": 7, "note": 77, "velocity": 112, "channel": 0}, {"type": "note_off", "time": 26, "note": 77, "velocity": 112, "channel": 0}, {"type": "note_on", "time": 2, "note": 75, "velocity": 117, "channel": 0}, {"type": "note_off", "time": 97, "note": 75, "velocity": 117, "channel": 0}, {"type": "note_on", "time": 1, "note": 71, "velocity": 98, "channel": 0}, {"type": "note_off", "time": 78, "note": 71, "velocity": 98, "channel": 0}, {"type": "note_on", "time": 4, "note": 70, "velocity": 102, "channel": 0}, {"type": "note_off", "time": 121, "note": 70, "velocity": 102, "channel": 0}, {"type": "note_on", "time": 9, "note": 68, "velocity": 104, "channel": 0}, {"type": "note_off", "time": 71, "note": 68, "velocity": 104, "channel": 0}, {"type": "note_on", "time": 4, "note": 67, "velocity": 105, "channel": 0}, {"type": "note_off", "time": 107, "note": 67, "velocity": 105, "channel": 0}, {"type": "note_on", "time": 0, "note": 63, "velocity": 104, "channel": 0}, {"type": "note_off", "time": 102, "note": 63, "velocity": 104, "channel": 0}, {"type": "note_on", "time": 130, "note": 69, "velocity": 96, "channel": 0}, {"type": "note_off", "time": 41, "note": 69, "velocity": 96, "channel": 0}, {"type": "note_on", "time": 44, "note": 62, "velocity": 102, "channel": 0}, {"type": "note_off", "time": 121, "note": 62, "velocity": 102, "channel": 0}, {"type": "note_on", "time": 241, "note": 60, "velocity": 92, "channel": 0}, {"type": "note_off", "time": 110, "note": 60, "velocity": 92, "channel": 0}, {"type": "note_on", "time": 4, "note": 62, "velocity": 98, "channel": 0}, {"type": "note_off", "time": 66, "note": 62, "velocity": 98, "channel": 0}, {"type": "note_on", "time": 7, "note": 64, "velocity": 99, "channel": 0}, {"type": "note_off", "time": 122, "note": 64, "velocity": 99, "channel": 0}, {"type": "note_on", "time": 1, "note": 60, "velocity": 86, "channel": 0}, {"type": "note_off", "time": 68, "note": 60, "velocity": 86, "channel": 0}, {"type": "note_on", "time": 295, "note": 58, "velocity": 89, "channel": 0}, {"type": "note_off", "time": 69, "note": 58, "velocity": 89, "channel": 0}, {"type": "note_on", "time": 3, "note": 56, "velocity": 95, "channel": 0}, {"type": "note_off", "time": 119, "note": 56, "velocity": 95, "channel": 0}, {"type": "note_on", "time": 20, "note": 58, "velocity": 83, "channel": 0}, {"type": "note_off", "time": 84, "note": 58, "velocity": 83, "channel": 0}, {"type": "note_on", "time": 13, "note": 60, "velocity": 80, "channel": 0}, {"type": "note_off", "time": 57, "note": 60, "velocity": 80, "channel": 0}, {"type": "note_on", "time": 5, "note": 63, "velocity": 85, "channel": 0}, {"type": "note_off", "time": 64, "note": 63, "velocity": 85, "channel": 0}, {"type": "note_on", "time": 3, "note": 67, "velocity": 92, "channel": 0}, {"type": "note_off", "time": 54, "note": 67, "velocity": 92, "channel": 0}, {"type": "note_on", "time": 0, "note": 70, "velocity": 105, "channel": 0}, {"type": "note_off", "time": 103, "note": 70, "velocity": 105, "channel": 0}, {"type": "note_on", "time": 4, "note": 63, "velocity": 99, "channel": 0}, {"type": "note_off", "time": 64, "note": 63, "velocity": 99, "channel": 0}, {"type": "note_on", "time": 0, "note": 65, "velocity": 103, "channel": 0}, {"type": "note_off", "time": 105, "note": 65, "velocity": 103, "channel": 0}, {"type": "note_on", "time": 3, "note": 67, "velocity": 108, "channel": 0}, {"type": "note_off", "time": 90, "note": 67, "velocity": 108, "channel": 0}, {"type": "note_on", "time": 2, "note": 68, "velocity": 107, "channel": 0}, {"type": "note_off", "time": 79, "note": 68, "velocity": 107, "channel": 0}, {"type": "note_on", "time": 11, "note": 70, "velocity": 104, "channel": 0}, {"type": "note_off", "time": 73, "note": 70, "velocity": 104, "channel": 0}, {"type": "note_on", "time": 9, "note": 71, "velocity": 97, "channel": 0}, {"type": "note_off", "time": 101, "note": 71, "velocity": 97, "channel": 0}, {"type": "note_on", "time": 9, "note": 73, "velocity": 106, "channel": 0}, {"type": "note_off", "time": 81, "note": 73, "velocity": 106, "channel": 0}, {"type": "note_on", "time": 21, "note": 70, "velocity": 102, "channel": 0}, {"type": "note_off", "time": 96, "note": 70, "velocity": 102, "channel": 0}, {"type": "note_on", "time": 7, "note": 68, "velocity": 106, "channel": 0}, {"type": "note_off", "time": 65, "note": 68, "velocity": 106, "channel": 0}, {"type": "note_on", "time": 8, "note": 67, "velocity": 104, "channel": 0}, {"type": "note_off", "time": 81, "note": 67, "velocity": 104, "channel": 0}, {"type": "note_on", "time": 4, "note": 65, "velocity": 105, "channel": 0}, {"type": "note_off", "time": 103, "note": 65, "velocity": 105, "channel": 0}, {"type": "note_on", "time": 2, "note": 63, "velocity": 102, "channel": 0}, {"type": "note_off", "time": 90, "note": 63, "velocity": 102, "channel": 0}, {"type": "note_on", "time": 286, "note": 73, "velocity": 105, "channel": 0}, {"type": "note_off", "time": 107, "note": 73, "velocity": 105, "channel": 0}, {"type": "note_on", "time": 9, "note": 77, "velocity": 110, "channel": 0}, {"type": "note_off", "time": 66, "note": 77, "velocity": 110, "channel": 0}, {"type": "note_on", "time": 5, "note": 74, "velocity": 111, "channel": 0}, {"type": "note_off", "time": 85, "note": 74, "velocity": 111, "channel": 0}, {"type": "note_on", "time": 4, "note": 75, "velocity": 108, "channel": 0}, {"type": "note_off", "time": 274, "note": 75, "velocity": 108, "channel": 0}, {"type": "note_on", "time": 130, "note": 72, "velocity": 94, "channel": 0}, {"type": "note_off", "time": 51, "note": 72, "velocity": 94, "channel": 0}, {"type": "note_on", "time": 4, "note": 64, "velocity": 108, "channel": 0}, {"type": "note_off", "time": 33, "note": 64, "velocity": 108, "channel": 0}, {"type": "note_on", "time": 7, "note": 67, "velocity": 102, "channel": 0}, {"type": "note_off", "time": 56, "note": 67, "velocity": 102, "channel": 0}, {"type": "note_on", "time": 20, "note": 64, "velocity": 101, "channel": 0}, {"type": "note_off", "time": 71, "note": 64, "velocity": 101, "channel": 0}, {"type": "note_on", "time": 15, "note": 62, "velocity": 95, "channel": 0}, {"type": "note_off", "time": 81, "note": 62, "velocity": 95, "channel": 0}, {"type": "note_on", "time": 8, "note": 63, "velocity": 98, "channel": 0}, {"type": "note_off", "time": 100, "note": 63, "velocity": 98, "channel": 0}, {"type": "note_on", "time": 4, "note": 66, "velocity": 98, "channel": 0}, {"type": "note_off", "time": 113, "note": 66, "velocity": 98, "channel": 0}, {"type": "note_on", "time": 315, "note": 73, "velocity": 103, "channel": 0}, {"type": "note_off", "time": 109, "note": 73, "velocity": 103, "channel": 0}, {"type": "note_on", "time": 11, "note": 69, "velocity": 99, "channel": 0}, {"type": "note_off", "time": 76, "note": 69, "velocity": 99, "channel": 0}, {"type": "note_on", "time": 4, "note": 65, "velocity": 102, "channel": 0}, {"type": "note_off", "time": 93, "note": 65, "velocity": 102, "channel": 0}, {"type": "note_on", "time": 26, "note": 61, "velocity": 93, "channel": 0}, {"type": "note_off", "time": 35, "note": 61, "velocity": 93, "channel": 0}, {"type": "note_on", "time": 40, "note": 64, "velocity": 99, "channel": 0}, {"type": "note_off", "time": 88, "note": 64, "velocity": 99, "channel": 0}, {"type": "note_on", "time": 1, "note": 66, "velocity": 101, "channel": 0}, {"type": "note_off", "time": 81, "note": 66, "velocity": 101, "channel": 0}, {"type": "note_on", "time": 1, "note": 68, "velocity": 101, "channel": 0}, {"type": "note_off", "time": 84, "note": 68, "velocity": 101, "channel": 0}, {"type": "note_on", "time": 17, "note": 71, "velocity": 93, "channel": 0}, {"type": "note_off", "time": 63, "note": 71, "velocity": 93, "channel": 0}, {"type": "note_on", "time": 5, "note": 76, "velocity": 111, "channel": 0}, {"type": "note_off", "time": 101, "note": 76, "velocity": 111, "channel": 0}, {"type": "note_on", "time": 17, "note": 73, "velocity": 101, "channel": 0}, {"type": "note_off", "time": 70, "note": 73, "velocity": 101, "channel": 0}, {"type": "note_on", "time": 7, "note": 71, "velocity": 94, "channel": 0}, {"type": "note_off", "time": 106, "note": 71, "velocity": 94, "channel": 0}, {"type": "note_on", "time": 4, "note": 69, "velocity": 100, "channel": 0}, {"type": "note_off", "time": 76, "note": 69, "velocity": 100, "channel": 0}, {"type": "note_on", "time": 4, "note": 70, "velocity": 100, "channel": 0}, {"type": "note_off", "time": 109, "note": 70, "velocity": 100, "channel": 0}, {"type": "note_on", "time": 8, "note": 67, "velocity": 98, "channel": 0}, {"type": "note_off", "time": 77, "note": 67, "velocity": 98, "channel": 0}, {"type": "note_on", "time": 8, "note": 62, "velocity": 95, "channel": 0}, {"type": "note_off", "time": 115, "note": 62, "velocity": 95, "channel": 0}, {"type": "note_on", "time": 188, "note": 65, "velocity": 90, "channel": 0}, {"type": "note_off", "time": 245, "note": 65, "velocity": 90, "channel": 0}, {"type": "note_on", "time": 4, "note": 62, "velocity": 91, "channel": 0}, {"type": "note_off", "time": 45, "note": 62, "velocity": 91, "channel": 0}, {"type": "note_on", "time": 9, "note": 63, "velocity": 92, "channel": 0}, {"type": "note_off", "time": 132, "note": 63, "velocity": 92, "channel": 0}, {"type": "note_on", "time": 10, "note": 61, "velocity": 88, "channel": 0}, {"type": "note_off", "time": 93, "note": 61, "velocity": 88, "channel": 0}, {"type": "note_on", "time": 896, "note": 69, "velocity": 108, "channel": 0}, {"type": "note_off", "time": 32, "note": 69, "velocity": 108, "channel": 0}, {"type": "note_on", "time": 3, "note": 71, "velocity": 107, "channel": 0}, {"type": "note_off", "time": 76, "note": 71, "velocity": 107, "channel": 0}, {"type": "note_on", "time": 645, "note": 71, "velocity": 106, "channel": 0}, {"type": "note_off", "time": 114, "note": 71, "velocity": 106, "channel": 0}, {"type": "note_on", "time": 3, "note": 70, "velocity": 103, "channel": 0}, {"type": "note_off", "time": 78, "note": 70, "velocity": 103, "channel": 0}, {"type": "note_on", "time": 8, "note": 68, "velocity": 102, "channel": 0}, {"type": "note_off", "time": 105, "note": 68, "velocity": 102, "channel": 0}, {"type": "note_on", "time": 5, "note": 67, "velocity": 107, "channel": 0}, {"type": "note_off", "time": 96, "note": 67, "velocity": 107, "channel": 0}, {"type": "note_on", "time": 4, "note": 66, "velocity": 101, "channel": 0}, {"type": "note_off", "time": 76, "note": 66, "velocity": 101, "channel": 0}, {"type": "note_on", "time": 2, "note": 69, "velocity": 103, "channel": 0}, {"type": "note_off", "time": 81, "note": 69, "velocity": 103, "channel": 0}, {"type": "note_on", "time": 21, "note": 73, "velocity": 104, "channel": 0}, {"type": "note_off", "time": 93, "note": 73, "velocity": 104, "channel": 0}, {"type": "note_on", "time": 1, "note": 76, "velocity": 104, "channel": 0}, {"type": "note_off", "time": 85, "note": 76, "velocity": 104, "channel": 0}, {"type": "note_on", "time": 1, "note": 78, "velocity": 114, "channel": 0}, {"type": "note_off", "time": 94, "note": 78, "velocity": 114, "channel": 0}, {"type": "note_on", "time": 60, "note": 67, "velocity": 102, "channel": 0}, {"type": "note_off", "time": 157, "note": 67, "velocity": 102, "channel": 0}, {"type": "note_on", "time": 4, "note": 70, "velocity": 97, "channel": 0}, {"type": "note_off", "time": 189, "note": 70, "velocity": 97, "channel": 0}, {"type": "note_on", "time": 4, "note": 74, "velocity": 119, "channel": 0}, {"type": "note_off", "time": 162, "note": 74, "velocity": 119, "channel": 0}, {"type": "note_on", "time": 3, "note": 77, "velocity": 108, "channel": 0}, {"type": "note_off", "time": 202, "note": 77, "velocity": 108, "channel": 0}, {"type": "note_on", "time": 3, "note": 75, "velocity": 114, "channel": 0}, {"type": "note_off", "time": 125, "note": 75, "velocity": 114, "channel": 0}, {"type": "note_on", "time": 48, "note": 69, "velocity": 85, "channel": 0}, {"type": "note_off", "time": 223, "note": 69, "velocity": 85, "channel": 0}, {"type": "note_on", "time": 1035, "note": 81, "velocity": 123, "channel": 0}, {"type": "note_off", "time": 110, "note": 81, "velocity": 123, "channel": 0}, {"type": "note_on", "time": 0, "note": 79, "velocity": 122, "channel": 0}, {"type": "note_off", "time": 103, "note": 79, "velocity": 122, "channel": 0}, {"type": "note_on", "time": 1, "note": 77, "velocity": 124, "channel": 0}, {"type": "note_off", "time": 77, "note": 77, "velocity": 124, "channel": 0}, {"type": "note_on", "time": 4, "note": 76, "velocity": 124, "channel": 0}, {"type": "note_off", "time": 97, "note": 76, "velocity": 124, "channel": 0}, {"type": "note_on", "time": 3, "note": 75, "velocity": 118, "channel": 0}, {"type": "note_off", "time": 90, "note": 75, "velocity": 118, "channel": 0}, {"type": "note_on", "time": 1, "note": 77, "velocity": 121, "channel": 0}, {"type": "note_off", "time": 87, "note": 77, "velocity": 121, "channel": 0}, {"type": "note_on", "time": 0, "note": 78, "velocity": 124, "channel": 0}, {"type": "note_off", "time": 130, "note": 78, "velocity": 124, "channel": 0}, {"type": "note_on", "time": 2, "note": 73, "velocity": 109, "channel": 0}, {"type": "note_on", "time": 60, "note": 75, "velocity": 116, "channel": 0}, {"type": "note_off", "time": 0, "note": 73, "velocity": 109, "channel": 0}, {"type": "note_off", "time": 101, "note": 75, "velocity": 116, "channel": 0}, {"type": "note_on", "time": 5, "note": 70, "velocity": 102, "channel": 0}, {"type": "note_off", "time": 71, "note": 70, "velocity": 102, "channel": 0}, {"type": "note_on", "time": 1, "note": 66, "velocity": 108, "channel": 0}, {"type": "note_off", "time": 116, "note": 66, "velocity": 108, "channel": 0}, {"type": "note_on", "time": 3, "note": 63, "velocity": 105, "channel": 0}, {"type": "note_off", "time": 70, "note": 63, "velocity": 105, "channel": 0}, {"type": "note_on", "time": 5, "note": 64, "velocity": 101, "channel": 0}, {"type": "note_off", "time": 116, "note": 64, "velocity": 101, "channel": 0}, {"type": "note_on", "time": 3, "note": 67, "velocity": 103, "channel": 0}, {"type": "note_off", "time": 73, "note": 67, "velocity": 103, "channel": 0}, {"type": "note_on", "time": 3, "note": 69, "velocity": 99, "channel": 0}, {"type": "note_off", "time": 68, "note": 69, "velocity": 99, "channel": 0}, {"type": "note_on", "time": 22, "note": 74, "velocity": 110, "channel": 0}, {"type": "note_off", "time": 90, "note": 74, "velocity": 110, "channel": 0}, {"type": "note_on", "time": 0, "note": 72, "velocity": 102, "channel": 0}, {"type": "note_off", "time": 72, "note": 72, "velocity": 102, "channel": 0}, {"type": "note_on", "time": 10, "note": 74, "velocity": 115, "channel": 0}, {"type": "note_off", "time": 93, "note": 74, "velocity": 115, "channel": 0}, {"type": "note_on", "time": 5, "note": 76, "velocity": 117, "channel": 0}, {"type": "note_off", "time": 107, "note": 76, "velocity": 117, "channel": 0}, {"type": "note_on", "time": 2, "note": 79, "velocity": 114, "channel": 0}, {"type": "note_off", "time": 99, "note": 79, "velocity": 114, "channel": 0}, {"type": "note_on", "time": 3, "note": 75, "velocity": 117, "channel": 0}, {"type": "note_off", "time": 103, "note": 75, "velocity": 117, "channel": 0}, {"type": "note_on", "time": 3, "note": 72, "velocity": 103, "channel": 0}, {"type": "note_off", "time": 69, "note": 72, "velocity": 103, "channel": 0}, {"type": "note_on", "time": 5, "note": 67, "velocity": 103, "channel": 0}, {"type": "note_off", "time": 114, "note": 67, "velocity": 103, "channel": 0}, {"type": "note_on", "time": 2, "note": 65, "velocity": 100, "channel": 0}, {"type": "note_off", "time": 58, "note": 65, "velocity": 100, "channel": 0}, {"type": "note_on", "time": 4, "note": 70, "velocity": 102, "channel": 0}, {"type": "note_off", "time": 110, "note": 70, "velocity": 102, "channel": 0}, {"type": "note_on", "time": 3, "note": 67, "velocity": 104, "channel": 0}, {"type": "note_off", "time": 81, "note": 67, "velocity": 104, "channel": 0}, {"type": "note_on", "time": 3, "note": 68, "velocity": 99, "channel": 0}, {"type": "note_off", "time": 83, "note": 68, "velocity": 99, "channel": 0}, {"type": "note_on", "time": 21, "note": 77, "velocity": 119, "channel": 0}, {"type": "note_off", "time": 51, "note": 77, "velocity": 119, "channel": 0}, {"type": "note_on", "time": 9, "note": 78, "velocity": 107, "channel": 0}, {"type": "note_off", "time": 245, "note": 78, "velocity": 107, "channel": 0}, {"type": "note_on", "time": 0, "note": 74, "velocity": 113, "channel": 0}, {"type": "note_off", "time": 113, "note": 74, "velocity": 113, "channel": 0}, {"type": "note_on", "time": 3, "note": 71, "velocity": 92, "channel": 0}, {"type": "note_off", "time": 87, "note": 71, "velocity": 92, "channel": 0}, {"type": "note_on", "time": 14, "note": 70, "velocity": 97, "channel": 0}, {"type": "note_off", "time": 87, "note": 70, "velocity": 97, "channel": 0}, {"type": "note_on", "time": 4, "note": 68, "velocity": 102, "channel": 0}, {"type": "note_off", "time": 75, "note": 68, "velocity": 102, "channel": 0}, {"type": "note_on", "time": 4, "note": 67, "velocity": 102, "channel": 0}, {"type": "note_off", "time": 77, "note": 67, "velocity": 102, "channel": 0}, {"type": "note_on", "time": 1, "note": 65, "velocity": 103, "channel": 0}, {"type": "note_off", "time": 99, "note": 65, "velocity": 103, "channel": 0}, {"type": "note_on", "time": 0, "note": 63, "velocity": 101, "channel": 0}, {"type": "note_off", "time": 94, "note": 63, "velocity": 101, "channel": 0}, {"type": "note_on", "time": 5, "note": 65, "velocity": 102, "channel": 0}, {"type": "note_off", "time": 93, "note": 65, "velocity": 102, "channel": 0}, {"type": "note_on", "time": 7, "note": 67, "velocity": 100, "channel": 0}, {"type": "note_off", "time": 100, "note": 67, "velocity": 100, "channel": 0}, {"type": "note_on", "time": 121, "note": 66, "velocity": 100, "channel": 0}, {"type": "note_off", "time": 85, "note": 66, "velocity": 100, "channel": 0}, {"type": "note_on", "time": 9, "note": 67, "velocity": 100, "channel": 0}, {"type": "note_off", "time": 87, "note": 67, "velocity": 100, "channel": 0}, {"type": "note_on", "time": 0, "note": 69, "velocity": 100, "channel": 0}, {"type": "note_off", "time": 83, "note": 69, "velocity": 100, "channel": 0}, {"type": "note_on", "time": 107, "note": 67, "velocity": 100, "channel": 0}, {"type": "note_off", "time": 109, "note": 67, "velocity": 100, "channel": 0}, {"type": "note_on", "time": 2, "note": 69, "velocity": 98, "channel": 0}, {"type": "note_off", "time": 64, "note": 69, "velocity": 98, "channel": 0}, {"type": "note_on", "time": 0, "note": 70, "velocity": 99, "channel": 0}, {"type": "note_off", "time": 79, "note": 70, "velocity": 99, "channel": 0}, {"type": "note_on", "time": 133, "note": 64, "velocity": 97, "channel": 0}, {"type": "note_off", "time": 95, "note": 64, "velocity": 97, "channel": 0}, {"type": "note_on", "time": 13, "note": 65, "velocity": 101, "channel": 0}, {"type": "note_off", "time": 127, "note": 65, "velocity": 101, "channel": 0}, {"type": "note_on", "time": 71, "note": 72, "velocity": 100, "channel": 0}, {"type": "note_off", "time": 125, "note": 72, "velocity": 100, "channel": 0}, {"type": "note_on", "time": 79, "note": 67, "velocity": 88, "channel": 0}, {"type": "note_off", "time": 200, "note": 67, "velocity": 88, "channel": 0}, {"type": "note_on", "time": 10, "note": 65, "velocity": 91, "channel": 0}, {"type": "note_off", "time": 171, "note": 65, "velocity": 91, "channel": 0}, {"type": "note_on", "time": 11, "note": 67, "velocity": 96, "channel": 0}, {"type": "note_off", "time": 176, "note": 67, "velocity": 96, "channel": 0}, {"type": "note_on", "time": 24, "note": 71, "velocity": 79, "channel": 0}, {"type": "note_off", "time": 153, "note": 71, "velocity": 79, "channel": 0}, {"type": "note_on", "time": 1022, "note": 81, "velocity": 125, "channel": 0}, {"type": "note_off", "time": 115, "note": 81, "velocity": 125, "channel": 0}, {"type": "note_on", "time": 2, "note": 78, "velocity": 126, "channel": 0}, {"type": "note_off", "time": 78, "note": 78, "velocity": 126, "channel": 0}, {"type": "note_on", "time": 2, "note": 77, "velocity": 126, "channel": 0}, {"type": "note_off", "time": 90, "note": 77, "velocity": 126, "channel": 0}, {"type": "note_on", "time": 5, "note": 76, "velocity": 121, "channel": 0}, {"type": "note_off", "time": 91, "note": 76, "velocity": 121, "channel": 0}, {"type": "note_on", "time": 10, "note": 75, "velocity": 118, "channel": 0}, {"type": "note_off", "time": 94, "note": 75, "velocity": 118, "channel": 0}, {"type": "note_on", "time": 2, "note": 77, "velocity": 121, "channel": 0}, {"type": "note_off", "time": 84, "note": 77, "velocity": 121, "channel": 0}, {"type": "note_on", "time": 0, "note": 79, "velocity": 121, "channel": 0}, {"type": "note_off", "time": 126, "note": 79, "velocity": 121, "channel": 0}, {"type": "note_on", "time": 3, "note": 75, "velocity": 120, "channel": 0}, {"type": "note_on", "time": 57, "note": 77, "velocity": 121, "channel": 0}, {"type": "note_off", "time": 0, "note": 75, "velocity": 120, "channel": 0}, {"type": "note_off", "time": 108, "note": 77, "velocity": 121, "channel": 0}, {"type": "note_on", "time": 3, "note": 75, "velocity": 118, "channel": 0}, {"type": "note_off", "time": 85, "note": 75, "velocity": 118, "channel": 0}, {"type": "note_on", "time": 3, "note": 71, "velocity": 103, "channel": 0}, {"type": "note_off", "time": 109, "note": 71, "velocity": 103, "channel": 0}, {"type": "note_on", "time": 5, "note": 69, "velocity": 106, "channel": 0}, {"type": "note_off", "time": 66, "note": 69, "velocity": 106, "channel": 0}, {"type": "note_on", "time": 8, "note": 70, "velocity": 107, "channel": 0}, {"type": "note_off", "time": 96, "note": 70, "velocity": 107, "channel": 0}, {"type": "note_on", "time": 31, "note": 65, "velocity": 105, "channel": 0}, {"type": "note_off", "time": 131, "note": 65, "velocity": 105, "channel": 0}, {"type": "note_on", "time": 14, "note": 70, "velocity": 91, "channel": 0}, {"type": "note_off", "time": 31, "note": 70, "velocity": 91, "channel": 0}, {"type": "note_on", "time": 4, "note": 73, "velocity": 85, "channel": 0}, {"type": "note_off", "time": 33, "note": 73, "velocity": 85, "channel": 0}, {"type": "note_on", "time": 1, "note": 76, "velocity": 92, "channel": 0}, {"type": "note_off", "time": 44, "note": 76, "velocity": 92, "channel": 0}, {"type": "note_on", "time": 13, "note": 80, "velocity": 120, "channel": 0}, {"type": "note_off", "time": 114, "note": 80, "velocity": 120, "channel": 0}, {"type": "note_on", "time": 4, "note": 78, "velocity": 118, "channel": 0}, {"type": "note_off", "time": 71, "note": 78, "velocity": 118, "channel": 0}, {"type": "note_on", "time": 3, "note": 77, "velocity": 120, "channel": 0}, {"type": "note_off", "time": 110, "note": 77, "velocity": 120, "channel": 0}, {"type": "note_on", "time": 4, "note": 75, "velocity": 116, "channel": 0}, {"type": "note_off", "time": 70, "note": 75, "velocity": 116, "channel": 0}, {"type": "note_on", "time": 5, "note": 76, "velocity": 116, "channel": 0}, {"type": "note_off", "time": 108, "note": 76, "velocity": 116, "channel": 0}, {"type": "note_on", "time": 4, "note": 79, "velocity": 111, "channel": 0}, {"type": "note_off", "time": 84, "note": 79, "velocity": 111, "channel": 0}, {"type": "note_on", "time": 2, "note": 75, "velocity": 114, "channel": 0}, {"type": "note_off", "time": 108, "note": 75, "velocity": 114, "channel": 0}, {"type": "note_on", "time": 11, "note": 76, "velocity": 114, "channel": 0}, {"type": "note_off", "time": 94, "note": 76, "velocity": 114, "channel": 0}, {"type": "note_on", "time": 11, "note": 72, "velocity": 98, "channel": 0}, {"type": "note_off", "time": 89, "note": 72, "velocity": 98, "channel": 0}, {"type": "note_on", "time": 7, "note": 71, "velocity": 98, "channel": 0}, {"type": "note_off", "time": 46, "note": 71, "velocity": 98, "channel": 0}, {"type": "note_on", "time": 21, "note": 67, "velocity": 101, "channel": 0}, {"type": "note_off", "time": 120, "note": 67, "velocity": 101, "channel": 0}, {"type": "note_on", "time": 42, "note": 62, "velocity": 100, "channel": 0}, {"type": "note_off", "time": 35, "note": 62, "velocity": 100, "channel": 0}, {"type": "note_on", "time": 4, "note": 63, "velocity": 103, "channel": 0}, {"type": "note_off", "time": 83, "note": 63, "velocity": 103, "channel": 0}, {"type": "note_on", "time": 7, "note": 65, "velocity": 104, "channel": 0}, {"type": "note_off", "time": 138, "note": 65, "velocity": 104, "channel": 0}, {"type": "note_on", "time": 9, "note": 67, "velocity": 97, "channel": 0}, {"type": "note_off", "time": 81, "note": 67, "velocity": 97, "channel": 0}, {"type": "note_on", "time": 4, "note": 70, "velocity": 100, "channel": 0}, {"type": "note_off", "time": 46, "note": 70, "velocity": 100, "channel": 0}, {"type": "note_on", "time": 1, "note": 73, "velocity": 109, "channel": 0}, {"type": "note_off", "time": 125, "note": 73, "velocity": 109, "channel": 0}, {"type": "note_on", "time": 5, "note": 78, "velocity": 115, "channel": 0}, {"type": "note_off", "time": 76, "note": 78, "velocity": 115, "channel": 0}, {"type": "note_on", "time": 1, "note": 75, "velocity": 112, "channel": 0}, {"type": "note_off", "time": 131, "note": 75, "velocity": 112, "channel": 0}, {"type": "note_on", "time": 4, "note": 73, "velocity": 106, "channel": 0}, {"type": "note_off", "time": 95, "note": 73, "velocity": 106, "channel": 0}, {"type": "note_on", "time": 0, "note": 74, "velocity": 104, "channel": 0}, {"type": "note_off", "time": 281, "note": 74, "velocity": 104, "channel": 0}, {"type": "note_on", "time": 19, "note": 69, "velocity": 97, "channel": 0}, {"type": "note_off", "time": 101, "note": 69, "velocity": 97, "channel": 0}, {"type": "note_on", "time": 4, "note": 62, "velocity": 104, "channel": 0}, {"type": "note_off", "time": 121, "note": 62, "velocity": 104, "channel": 0}, {"type": "note_on", "time": 8, "note": 60, "velocity": 93, "channel": 0}, {"type": "note_off", "time": 110, "note": 60, "velocity": 93, "channel": 0}, {"type": "note_on", "time": 9, "note": 58, "velocity": 88, "channel": 0}, {"type": "note_off", "time": 262, "note": 58, "velocity": 88, "channel": 0}, {"type": "note_on", "time": 8, "note": 58, "velocity": 92, "channel": 0}, {"type": "note_off", "time": 69, "note": 58, "velocity": 92, "channel": 0}, {"type": "note_on", "time": 3, "note": 60, "velocity": 94, "channel": 0}, {"type": "note_off", "time": 100, "note": 60, "velocity": 94, "channel": 0}, {"type": "note_on", "time": 8, "note": 62, "velocity": 101, "channel": 0}, {"type": "note_off", "time": 173, "note": 62, "velocity": 101, "channel": 0}, {"type": "note_on", "time": 17, "note": 63, "velocity": 104, "channel": 0}, {"type": "note_off", "time": 128, "note": 63, "velocity": 104, "channel": 0}, {"type": "note_on", "time": 4, "note": 65, "velocity": 108, "channel": 0}, {"type": "note_off", "time": 207, "note": 65, "velocity": 108, "channel": 0}, {"type": "note_on", "time": 3, "note": 66, "velocity": 106, "channel": 0}, {"type": "note_off", "time": 176, "note": 66, "velocity": 106, "channel": 0}, {"type": "note_on", "time": 1, "note": 68, "velocity": 104, "channel": 0}, {"type": "note_off", "time": 190, "note": 68, "velocity": 104, "channel": 0}, {"type": "note_on", "time": 5, "note": 70, "velocity": 103, "channel": 0}, {"type": "note_off", "time": 101, "note": 70, "velocity": 103, "channel": 0}, {"type": "note_on", "time": 60, "note": 72, "velocity": 98, "channel": 0}, {"type": "note_off", "time": 72, "note": 72, "velocity": 98, "channel": 0}, {"type": "note_on", "time": 4, "note": 74, "velocity": 108, "channel": 0}, {"type": "note_off", "time": 167, "note": 74, "velocity": 108, "channel": 0}, {"type": "note_on", "time": 4, "note": 70, "velocity": 92, "channel": 0}, {"type": "note_off", "time": 281, "note": 70, "velocity": 92, "channel": 0}, {"type": "note_on", "time": 1568, "note": 72, "velocity": 109, "channel": 0}, {"type": "note_off", "time": 77, "note": 72, "velocity": 109, "channel": 0}, {"type": "note_on", "time": 1, "note": 75, "velocity": 113, "channel": 0}, {"type": "note_off", "time": 102, "note": 75, "velocity": 113, "channel": 0}, {"type": "note_on", "time": 5, "note": 77, "velocity": 117, "channel": 0}, {"type": "note_off", "time": 95, "note": 77, "velocity": 117, "channel": 0}, {"type": "note_on", "time": 2, "note": 79, "velocity": 121, "channel": 0}, {"type": "note_off", "time": 132, "note": 79, "velocity": 121, "channel": 0}, {"type": "note_on", "time": 3, "note": 75, "velocity": 111, "channel": 0}, {"type": "note_off", "time": 45, "note": 75, "velocity": 111, "channel": 0}, {"type": "note_on", "time": 1, "note": 77, "velocity": 127, "channel": 0}, {"type": "note_off", "time": 113, "note": 77, "velocity": 127, "channel": 0}, {"type": "note_on", "time": 10, "note": 78, "velocity": 122, "channel": 0}, {"type": "note_off", "time": 73, "note": 78, "velocity": 122, "channel": 0}, {"type": "note_on", "time": 5, "note": 74, "velocity": 119, "channel": 0}, {"type": "note_off", "time": 109, "note": 74, "velocity": 119, "channel": 0}, {"type": "note_on", "time": 7, "note": 71, "velocity": 105, "channel": 0}, {"type": "note_off", "time": 83, "note": 71, "velocity": 105, "channel": 0}, {"type": "note_on", "time": 4, "note": 70, "velocity": 107, "channel": 0}, {"type": "note_off", "time": 114, "note": 70, "velocity": 107, "channel": 0}, {"type": "note_on", "time": 4, "note": 68, "velocity": 110, "channel": 0}, {"type": "note_off", "time": 79, "note": 68, "velocity": 110, "channel": 0}, {"type": "note_on", "time": 3, "note": 67, "velocity": 109, "channel": 0}, {"type": "note_off", "time": 119, "note": 67, "velocity": 109, "channel": 0}, {"type": "note_on", "time": 0, "note": 70, "velocity": 103, "channel": 0}, {"type": "note_off", "time": 77, "note": 70, "velocity": 103, "channel": 0}, {"type": "note_on", "time": 1, "note": 74, "velocity": 114, "channel": 0}, {"type": "note_off", "time": 87, "note": 74, "velocity": 114, "channel": 0}, {"type": "note_on", "time": 1, "note": 77, "velocity": 120, "channel": 0}, {"type": "note_off", "time": 97, "note": 77, "velocity": 120, "channel": 0}, {"type": "note_on", "time": 1, "note": 75, "velocity": 113, "channel": 0}, {"type": "note_on", "time": 89, "note": 77, "velocity": 120, "channel": 0}, {"type": "note_off", "time": 0, "note": 75, "velocity": 113, "channel": 0}, {"type": "note_off", "time": 105, "note": 77, "velocity": 120, "channel": 0}, {"type": "note_on", "time": 7, "note": 79, "velocity": 103, "channel": 0}, {"type": "note_off", "time": 149, "note": 79, "velocity": 103, "channel": 0}, {"type": "note_on", "time": 115, "note": 84, "velocity": 96, "channel": 0}, {"type": "note_off", "time": 40, "note": 84, "velocity": 96, "channel": 0}, {"type": "note_on", "time": 1, "note": 86, "velocity": 81, "channel": 0}, {"type": "note_off", "time": 28, "note": 86, "velocity": 81, "channel": 0}, {"type": "note_on", "time": 4, "note": 88, "velocity": 78, "channel": 0}, {"type": "note_off", "time": 26, "note": 88, "velocity": 78, "channel": 0}, {"type": "note_on", "time": 51, "note": 84, "velocity": 92, "channel": 0}, {"type": "note_off", "time": 79, "note": 84, "velocity": 92, "channel": 0}, {"type": "note_on", "time": 8, "note": 83, "velocity": 98, "channel": 0}, {"type": "note_off", "time": 343, "note": 83, "velocity": 98, "channel": 0}, {"type": "note_on", "time": 32, "note": 73, "velocity": 106, "channel": 0}, {"type": "note_off", "time": 57, "note": 73, "velocity": 106, "channel": 0}, {"type": "note_on", "time": 4, "note": 72, "velocity": 97, "channel": 0}, {"type": "note_off", "time": 90, "note": 72, "velocity": 97, "channel": 0}, {"type": "note_on", "time": 406, "note": 79, "velocity": 89, "channel": 0}, {"type": "note_off", "time": 150, "note": 79, "velocity": 89, "channel": 0}, {"type": "note_on", "time": 2, "note": 82, "velocity": 103, "channel": 0}, {"type": "note_off", "time": 96, "note": 82, "velocity": 103, "channel": 0}, {"type": "note_on", "time": 1, "note": 85, "velocity": 112, "channel": 0}, {"type": "note_off", "time": 142, "note": 85, "velocity": 112, "channel": 0}, {"type": "note_on", "time": 4, "note": 84, "velocity": 112, "channel": 0}, {"type": "note_off", "time": 84, "note": 84, "velocity": 112, "channel": 0}, {"type": "note_on", "time": 4, "note": 83, "velocity": 109, "channel": 0}, {"type": "note_off", "time": 58, "note": 83, "velocity": 109, "channel": 0}, {"type": "note_on", "time": 3, "note": 82, "velocity": 112, "channel": 0}, {"type": "note_off", "time": 365, "note": 82, "velocity": 112, "channel": 0}, {"type": "note_on", "time": 47, "note": 79, "velocity": 114, "channel": 0}, {"type": "note_off", "time": 181, "note": 79, "velocity": 114, "channel": 0}, {"type": "note_on", "time": 5, "note": 78, "velocity": 110, "channel": 0}, {"type": "note_off", "time": 54, "note": 78, "velocity": 110, "channel": 0}, {"type": "note_on", "time": 2, "note": 79, "velocity": 119, "channel": 0}, {"type": "note_off", "time": 105, "note": 79, "velocity": 119, "channel": 0}, {"type": "note_on", "time": 5, "note": 82, "velocity": 114, "channel": 0}, {"type": "note_off", "time": 84, "note": 82, "velocity": 114, "channel": 0}, {"type": "note_on", "time": 9, "note": 81, "velocity": 115, "channel": 0}, {"type": "note_off", "time": 101, "note": 81, "velocity": 115, "channel": 0}, {"type": "note_on", "time": 1, "note": 78, "velocity": 110, "channel": 0}, {"type": "note_on", "time": 76, "note": 73, "velocity": 113, "channel": 0}, {"type": "note_off", "time": 0, "note": 78, "velocity": 110, "channel": 0}, {"type": "note_off", "time": 139, "note": 73, "velocity": 113, "channel": 0}, {"type": "note_on", "time": 3, "note": 71, "velocity": 98, "channel": 0}, {"type": "note_off", "time": 29, "note": 71, "velocity": 98, "channel": 0}, {"type": "note_on", "time": 2, "note": 75, "velocity": 113, "channel": 0}, {"type": "note_off", "time": 133, "note": 75, "velocity": 113, "channel": 0}, {"type": "note_on", "time": 0, "note": 77, "velocity": 116, "channel": 0}, {"type": "note_off", "time": 54, "note": 77, "velocity": 116, "channel": 0}, {"type": "note_on", "time": 3, "note": 78, "velocity": 114, "channel": 0}, {"type": "note_off", "time": 127, "note": 78, "velocity": 114, "channel": 0}, {"type": "note_on", "time": 2, "note": 73, "velocity": 97, "channel": 0}, {"type": "note_off", "time": 72, "note": 73, "velocity": 97, "channel": 0}, {"type": "note_on", "time": 5, "note": 75, "velocity": 113, "channel": 0}, {"type": "note_off", "time": 134, "note": 75, "velocity": 113, "channel": 0}, {"type": "note_on", "time": 1, "note": 76, "velocity": 117, "channel": 0}, {"type": "note_off", "time": 83, "note": 76, "velocity": 117, "channel": 0}, {"type": "note_on", "time": 17, "note": 73, "velocity": 106, "channel": 0}, {"type": "note_off", "time": 89, "note": 73, "velocity": 106, "channel": 0}, {"type": "note_on", "time": 9, "note": 72, "velocity": 99, "channel": 0}, {"type": "note_off", "time": 65, "note": 72, "velocity": 99, "channel": 0}, {"type": "note_on", "time": 4, "note": 70, "velocity": 102, "channel": 0}, {"type": "note_off", "time": 99, "note": 70, "velocity": 102, "channel": 0}, {"type": "note_on", "time": 2, "note": 68, "velocity": 102, "channel": 0}, {"type": "note_off", "time": 78, "note": 68, "velocity": 102, "channel": 0}, {"type": "note_on", "time": 174, "note": 60, "velocity": 93, "channel": 0}, {"type": "note_off", "time": 157, "note": 60, "velocity": 93, "channel": 0}, {"type": "note_on", "time": 5, "note": 67, "velocity": 100, "channel": 0}, {"type": "note_off", "time": 168, "note": 67, "velocity": 100, "channel": 0}, {"type": "note_on", "time": 5, "note": 65, "velocity": 103, "channel": 0}, {"type": "note_off", "time": 198, "note": 65, "velocity": 103, "channel": 0}, {"type": "note_on", "time": 4, "note": 74, "velocity": 108, "channel": 0}, {"type": "note_off", "time": 202, "note": 74, "velocity": 108, "channel": 0}, {"type": "note_on", "time": 3, "note": 71, "velocity": 90, "channel": 0}, {"type": "note_off", "time": 190, "note": 71, "velocity": 90, "channel": 0}, {"type": "note_on", "time": 11, "note": 70, "velocity": 102, "channel": 0}, {"type": "note_off", "time": 171, "note": 70, "velocity": 102, "channel": 0}, {"type": "note_on", "time": 2, "note": 68, "velocity": 103, "channel": 0}, {"type": "note_off", "time": 207, "note": 68, "velocity": 103, "channel": 0}, {"type": "note_on", "time": 5, "note": 63, "velocity": 100, "channel": 0}, {"type": "note_off", "time": 199, "note": 63, "velocity": 100, "channel": 0}, {"type": "note_on", "time": 1, "note": 65, "velocity": 93, "channel": 0}, {"type": "note_off", "time": 311, "note": 65, "velocity": 93, "channel": 0}, {"type": "note_on", "time": 2063, "note": 70, "velocity": 113, "channel": 0}, {"type": "note_off", "time": 100, "note": 70, "velocity": 113, "channel": 0}, {"type": "note_on", "time": 57, "note": 68, "velocity": 114, "channel": 0}, {"type": "note_off", "time": 99, "note": 68, "velocity": 114, "channel": 0}, {"type": "note_on", "time": 3, "note": 67, "velocity": 112, "channel": 0}, {"type": "note_off", "time": 79, "note": 67, "velocity": 112, "channel": 0}, {"type": "note_on", "time": 2, "note": 65, "velocity": 110, "channel": 0}, {"type": "note_off", "time": 114, "note": 65, "velocity": 110, "channel": 0}, {"type": "note_on", "time": 3, "note": 63, "velocity": 107, "channel": 0}, {"type": "note_off", "time": 140, "note": 63, "velocity": 107, "channel": 0}, {"type": "note_on", "time": 7, "note": 62, "velocity": 9, "channel": 0}, {"type": "note_off", "time": 157, "note": 62, "velocity": 9, "channel": 0}, {"type": "note_on", "time": 8, "note": 59, "velocity": 103, "channel": 0}, {"type": "note_off", "time": 199, "note": 59, "velocity": 103, "channel": 0}, {"type": "note_on", "time": 4, "note": 58, "velocity": 93, "channel": 0}, {"type": "note_off", "time": 150, "note": 58, "velocity": 93, "channel": 0}, {"type": "note_on", "time": 996, "note": 60, "velocity": 98, "channel": 0}, {"type": "note_off", "time": 69, "note": 60, "velocity": 98, "channel": 0}, {"type": "note_on", "time": 10, "note": 67, "velocity": 106, "channel": 0}, {"type": "note_off", "time": 50, "note": 67, "velocity": 106, "channel": 0}, {"type": "note_on", "time": 1, "note": 64, "velocity": 108, "channel": 0}, {"type": "note_off", "time": 27, "note": 64, "velocity": 108, "channel": 0}, {"type": "note_on", "time": 7, "note": 65, "velocity": 104, "channel": 0}, {"type": "note_off", "time": 35, "note": 65, "velocity": 104, "channel": 0}, {"type": "note_on", "time": 4, "note": 67, "velocity": 109, "channel": 0}, {"type": "note_off", "time": 45, "note": 67, "velocity": 109, "channel": 0}, {"type": "note_on", "time": 5, "note": 71, "velocity": 103, "channel": 0}, {"type": "note_off", "time": 42, "note": 71, "velocity": 103, "channel": 0}, {"type": "note_on", "time": 2, "note": 72, "velocity": 108, "channel": 0}, {"type": "note_off", "time": 63, "note": 72, "velocity": 108, "channel": 0}, {"type": "note_on", "time": 8, "note": 76, "velocity": 107, "channel": 0}, {"type": "note_off", "time": 38, "note": 76, "velocity": 107, "channel": 0}, {"type": "note_on", "time": 2, "note": 79, "velocity": 114, "channel": 0}, {"type": "note_off", "time": 58, "note": 79, "velocity": 114, "channel": 0}, {"type": "note_on", "time": 0, "note": 76, "velocity": 121, "channel": 0}, {"type": "note_off", "time": 46, "note": 76, "velocity": 121, "channel": 0}, {"type": "note_on", "time": 5, "note": 77, "velocity": 118, "channel": 0}, {"type": "note_off", "time": 77, "note": 77, "velocity": 118, "channel": 0}, {"type": "note_on", "time": 2, "note": 78, "velocity": 115, "channel": 0}, {"type": "note_off", "time": 40, "note": 78, "velocity": 115, "channel": 0}, {"type": "note_on", "time": 1, "note": 74, "velocity": 115, "channel": 0}, {"type": "note_off", "time": 63, "note": 74, "velocity": 115, "channel": 0}, {"type": "note_on", "time": 4, "note": 71, "velocity": 93, "channel": 0}, {"type": "note_off", "time": 56, "note": 71, "velocity": 93, "channel": 0}, {"type": "note_on", "time": 3, "note": 69, "velocity": 101, "channel": 0}, {"type": "note_off", "time": 51, "note": 69, "velocity": 101, "channel": 0}, {"type": "note_on", "time": 4, "note": 70, "velocity": 99, "channel": 0}, {"type": "note_off", "time": 63, "note": 70, "velocity": 99, "channel": 0}, {"type": "note_on", "time": 5, "note": 68, "velocity": 83, "channel": 0}, {"type": "note_off", "time": 85, "note": 68, "velocity": 83, "channel": 0}, {"type": "note_on", "time": 424, "note": 61, "velocity": 108, "channel": 0}, {"type": "note_off", "time": 134, "note": 61, "velocity": 108, "channel": 0}, {"type": "note_on", "time": 5, "note": 63, "velocity": 106, "channel": 0}, {"type": "note_off", "time": 56, "note": 63, "velocity": 106, "channel": 0}, {"type": "note_on", "time": 4, "note": 65, "velocity": 108, "channel": 0}, {"type": "note_off", "time": 124, "note": 65, "velocity": 108, "channel": 0}, {"type": "note_on", "time": 2, "note": 67, "velocity": 95, "channel": 0}, {"type": "note_off", "time": 268, "note": 67, "velocity": 95, "channel": 0}, {"type": "note_on", "time": 193, "note": 59, "velocity": 97, "channel": 0}, {"type": "note_off", "time": 158, "note": 59, "velocity": 97, "channel": 0}, {"type": "note_on", "time": 1, "note": 60, "velocity": 95, "channel": 0}, {"type": "note_off", "time": 59, "note": 60, "velocity": 95, "channel": 0}, {"type": "note_on", "time": 4, "note": 61, "velocity": 99, "channel": 0}, {"type": "note_off", "time": 109, "note": 61, "velocity": 99, "channel": 0}, {"type": "note_on", "time": 5, "note": 63, "velocity": 96, "channel": 0}, {"type": "note_off", "time": 207, "note": 63, "velocity": 96, "channel": 0}, {"type": "note_on", "time": 488, "note": 64, "velocity": 86, "channel": 0}, {"type": "note_off", "time": 93, "note": 64, "velocity": 86, "channel": 0}, {"type": "note_on", "time": 4, "note": 65, "velocity": 107, "channel": 0}, {"type": "note_off", "time": 76, "note": 65, "velocity": 107, "channel": 0}, {"type": "note_on", "time": 5, "note": 63, "velocity": 103, "channel": 0}, {"type": "note_off", "time": 89, "note": 63, "velocity": 103, "channel": 0}, {"type": "note_on", "time": 0, "note": 65, "velocity": 108, "channel": 0}, {"type": "note_off", "time": 69, "note": 65, "velocity": 108, "channel": 0}, {"type": "note_on", "time": 29, "note": 68, "velocity": 104, "channel": 0}, {"type": "note_off", "time": 90, "note": 68, "velocity": 104, "channel": 0}, {"type": "note_on", "time": 7, "note": 71, "velocity": 90, "channel": 0}, {"type": "note_off", "time": 59, "note": 71, "velocity": 90, "channel": 0}, {"type": "note_on", "time": 0, "note": 75, "velocity": 118, "channel": 0}, {"type": "note_off", "time": 114, "note": 75, "velocity": 118, "channel": 0}, {"type": "note_on", "time": 1, "note": 73, "velocity": 99, "channel": 0}, {"type": "note_off", "time": 28, "note": 73, "velocity": 99, "channel": 0}, {"type": "note_on", "time": 3, "note": 75, "velocity": 107, "channel": 0}, {"type": "note_off", "time": 169, "note": 75, "velocity": 107, "channel": 0}, {"type": "note_on", "time": 5, "note": 73, "velocity": 103, "channel": 0}, {"type": "note_off", "time": 59, "note": 73, "velocity": 103, "channel": 0}, {"type": "note_on", "time": 5, "note": 74, "velocity": 112, "channel": 0}, {"type": "note_off", "time": 124, "note": 74, "velocity": 112, "channel": 0}, {"type": "note_on", "time": 3, "note": 71, "velocity": 96, "channel": 0}, {"type": "note_off", "time": 52, "note": 71, "velocity": 96, "channel": 0}, {"type": "note_on", "time": 8, "note": 70, "velocity": 101, "channel": 0}, {"type": "note_off", "time": 130, "note": 70, "velocity": 101, "channel": 0}, {"type": "note_on", "time": 7, "note": 68, "velocity": 103, "channel": 0}, {"type": "note_off", "time": 82, "note": 68, "velocity": 103, "channel": 0}, {"type": "note_on", "time": 5, "note": 67, "velocity": 105, "channel": 0}, {"type": "note_off", "time": 101, "note": 67, "velocity": 105, "channel": 0}, {"type": "note_on", "time": 3, "note": 75, "velocity": 109, "channel": 0}, {"type": "note_off", "time": 102, "note": 75, "velocity": 109, "channel": 0}, {"type": "note_on", "time": 115, "note": 74, "velocity": 102, "channel": 0}, {"type": "note_off", "time": 110, "note": 74, "velocity": 102, "channel": 0}, {"type": "note_on", "time": 346, "note": 64, "velocity": 109, "channel": 0}, {"type": "note_off", "time": 87, "note": 64, "velocity": 109, "channel": 0}, {"type": "note_on", "time": 3, "note": 65, "velocity": 107, "channel": 0}, {"type": "note_off", "time": 66, "note": 65, "velocity": 107, "channel": 0}, {"type": "note_on", "time": 3, "note": 63, "velocity": 100, "channel": 0}, {"type": "note_off", "time": 113, "note": 63, "velocity": 100, "channel": 0}, {"type": "note_on", "time": 13, "note": 64, "velocity": 101, "channel": 0}, {"type": "note_off", "time": 105, "note": 64, "velocity": 101, "channel": 0}, {"type": "note_on", "time": 103, "note": 72, "velocity": 103, "channel": 0}, {"type": "note_off", "time": 50, "note": 72, "velocity": 103, "channel": 0}, {"type": "note_on", "time": 130, "note": 67, "velocity": 93, "channel": 0}, {"type": "note_off", "time": 305, "note": 67, "velocity": 93, "channel": 0}, {"type": "note_on", "time": 639, "note": 74, "velocity": 117, "channel": 0}, {"type": "note_off", "time": 85, "note": 74, "velocity": 117, "channel": 0}, {"type": "note_on", "time": 0, "note": 77, "velocity": 124, "channel": 0}, {"type": "note_off", "time": 107, "note": 77, "velocity": 124, "channel": 0}, {"type": "note_on", "time": 1, "note": 78, "velocity": 120, "channel": 0}, {"type": "note_off", "time": 84, "note": 78, "velocity": 120, "channel": 0}, {"type": "note_on", "time": 0, "note": 74, "velocity": 116, "channel": 0}, {"type": "note_off", "time": 115, "note": 74, "velocity": 116, "channel": 0}, {"type": "note_on", "time": 5, "note": 71, "velocity": 108, "channel": 0}, {"type": "note_off", "time": 81, "note": 71, "velocity": 108, "channel": 0}, {"type": "note_on", "time": 3, "note": 70, "velocity": 110, "channel": 0}, {"type": "note_off", "time": 93, "note": 70, "velocity": 110, "channel": 0}, {"type": "note_on", "time": 4, "note": 68, "velocity": 109, "channel": 0}, {"type": "note_off", "time": 76, "note": 68, "velocity": 109, "channel": 0}, {"type": "note_on", "time": 7, "note": 67, "velocity": 110, "channel": 0}, {"type": "note_off", "time": 91, "note": 67, "velocity": 110, "channel": 0}, {"type": "note_on", "time": 31, "note": 70, "velocity": 100, "channel": 0}, {"type": "note_on", "time": 59, "note": 75, "velocity": 113, "channel": 0}, {"type": "note_off", "time": 0, "note": 70, "velocity": 100, "channel": 0}, {"type": "note_off", "time": 114, "note": 75, "velocity": 113, "channel": 0}, {"type": "note_on", "time": 1, "note": 77, "velocity": 106, "channel": 0}, {"type": "note_off", "time": 73, "note": 77, "velocity": 106, "channel": 0}, {"type": "note_on", "time": 0, "note": 80, "velocity": 118, "channel": 0}, {"type": "note_off", "time": 102, "note": 80, "velocity": 118, "channel": 0}, {"type": "note_on", "time": 31, "note": 77, "velocity": 113, "channel": 0}, {"type": "note_off", "time": 52, "note": 77, "velocity": 113, "channel": 0}, {"type": "note_on", "time": 4, "note": 73, "velocity": 111, "channel": 0}, {"type": "note_off", "time": 126, "note": 73, "velocity": 111, "channel": 0}, {"type": "note_on", "time": 0, "note": 71, "velocity": 88, "channel": 0}, {"type": "note_off", "time": 39, "note": 71, "velocity": 88, "channel": 0}, {"type": "note_on", "time": 1, "note": 76, "velocity": 118, "channel": 0}, {"type": "note_off", "time": 127, "note": 76, "velocity": 118, "channel": 0}, {"type": "note_on", "time": 7, "note": 72, "velocity": 101, "channel": 0}, {"type": "note_off", "time": 75, "note": 72, "velocity": 101, "channel": 0}, {"type": "note_on", "time": 8, "note": 67, "velocity": 107, "channel": 0}, {"type": "note_off", "time": 97, "note": 67, "velocity": 107, "channel": 0}, {"type": "note_on", "time": 2, "note": 64, "velocity": 102, "channel": 0}, {"type": "note_off", "time": 81, "note": 64, "velocity": 102, "channel": 0}, {"type": "note_on", "time": 10, "note": 70, "velocity": 94, "channel": 0}, {"type": "note_off", "time": 112, "note": 70, "velocity": 94, "channel": 0}, {"type": "note_on", "time": 3, "note": 61, "velocity": 100, "channel": 0}, {"type": "note_off", "time": 69, "note": 61, "velocity": 100, "channel": 0}, {"type": "note_on", "time": 2, "note": 63, "velocity": 105, "channel": 0}, {"type": "note_off", "time": 103, "note": 63, "velocity": 105, "channel": 0}, {"type": "note_on", "time": 3, "note": 66, "velocity": 109, "channel": 0}, {"type": "note_off", "time": 94, "note": 66, "velocity": 109, "channel": 0}, {"type": "note_on", "time": 1, "note": 65, "velocity": 110, "channel": 0}, {"type": "note_off", "time": 88, "note": 65, "velocity": 110, "channel": 0}, {"type": "note_on", "time": 5, "note": 63, "velocity": 104, "channel": 0}, {"type": "note_off", "time": 82, "note": 63, "velocity": 104, "channel": 0}, {"type": "note_on", "time": 8, "note": 64, "velocity": 102, "channel": 0}, {"type": "note_off", "time": 102, "note": 64, "velocity": 102, "channel": 0}, {"type": "note_on", "time": 16, "note": 69, "velocity": 103, "channel": 0}, {"type": "note_off", "time": 78, "note": 69, "velocity": 103, "channel": 0}, {"type": "note_on", "time": 7, "note": 76, "velocity": 112, "channel": 0}, {"type": "note_off", "time": 101, "note": 76, "velocity": 112, "channel": 0}, {"type": "note_on", "time": 13, "note": 81, "velocity": 106, "channel": 0}, {"type": "note_off", "time": 79, "note": 81, "velocity": 106, "channel": 0}, {"type": "note_on", "time": 2, "note": 76, "velocity": 110, "channel": 0}, {"type": "note_off", "time": 100, "note": 76, "velocity": 110, "channel": 0}, {"type": "note_on", "time": 7, "note": 81, "velocity": 105, "channel": 0}, {"type": "note_off", "time": 79, "note": 81, "velocity": 105, "channel": 0}, {"type": "note_on", "time": 3, "note": 77, "velocity": 111, "channel": 0}, {"type": "note_off", "time": 115, "note": 77, "velocity": 111, "channel": 0}, {"type": "note_on", "time": 5, "note": 75, "velocity": 109, "channel": 0}, {"type": "note_off", "time": 91, "note": 75, "velocity": 109, "channel": 0}, {"type": "note_on", "time": 8, "note": 70, "velocity": 90, "channel": 0}, {"type": "note_off", "time": 94, "note": 70, "velocity": 90, "channel": 0}, {"type": "note_on", "time": 4, "note": 67, "velocity": 101, "channel": 0}, {"type": "note_off", "time": 91, "note": 67, "velocity": 101, "channel": 0}, {"type": "note_on", "time": 2, "note": 74, "velocity": 109, "channel": 0}, {"type": "note_off", "time": 94, "note": 74, "velocity": 109, "channel": 0}, {"type": "note_on", "time": 4, "note": 71, "velocity": 92, "channel": 0}, {"type": "note_off", "time": 54, "note": 71, "velocity": 92, "channel": 0}, {"type": "note_on", "time": 11, "note": 74, "velocity": 113, "channel": 0}, {"type": "note_off", "time": 124, "note": 74, "velocity": 113, "channel": 0}, {"type": "note_on", "time": 4, "note": 71, "velocity": 94, "channel": 0}, {"type": "note_off", "time": 63, "note": 71, "velocity": 94, "channel": 0}, {"type": "note_on", "time": 15, "note": 70, "velocity": 99, "channel": 0}, {"type": "note_off", "time": 64, "note": 70, "velocity": 99, "channel": 0}, {"type": "note_on", "time": 48, "note": 71, "velocity": 88, "channel": 0}, {"type": "note_off", "time": 78, "note": 71, "velocity": 88, "channel": 0}, {"type": "note_on", "time": 9, "note": 74, "velocity": 109, "channel": 0}, {"type": "note_off", "time": 94, "note": 74, "velocity": 109, "channel": 0}, {"type": "note_on", "time": 0, "note": 77, "velocity": 108, "channel": 0}, {"type": "note_off", "time": 75, "note": 77, "velocity": 108, "channel": 0}, {"type": "note_on", "time": 5, "note": 79, "velocity": 109, "channel": 0}, {"type": "note_off", "time": 116, "note": 79, "velocity": 109, "channel": 0}, {"type": "note_on", "time": 3, "note": 82, "velocity": 105, "channel": 0}, {"type": "note_off", "time": 69, "note": 82, "velocity": 105, "channel": 0}, {"type": "note_on", "time": 0, "note": 77, "velocity": 114, "channel": 0}, {"type": "note_off", "time": 130, "note": 77, "velocity": 114, "channel": 0}, {"type": "note_on", "time": 3, "note": 74, "velocity": 106, "channel": 0}, {"type": "note_off", "time": 46, "note": 74, "velocity": 106, "channel": 0}, {"type": "note_on", "time": 19, "note": 75, "velocity": 113, "channel": 0}, {"type": "note_off", "time": 90, "note": 75, "velocity": 113, "channel": 0}, {"type": "note_on", "time": 14, "note": 81, "velocity": 104, "channel": 0}, {"type": "note_off", "time": 71, "note": 81, "velocity": 104, "channel": 0}, {"type": "note_on", "time": 2, "note": 73, "velocity": 99, "channel": 0}, {"type": "note_off", "time": 94, "note": 73, "velocity": 99, "channel": 0}, {"type": "note_on", "time": 2, "note": 77, "velocity": 112, "channel": 0}, {"type": "note_off", "time": 89, "note": 77, "velocity": 112, "channel": 0}, {"type": "note_on", "time": 3, "note": 72, "velocity": 100, "channel": 0}, {"type": "note_off", "time": 88, "note": 72, "velocity": 100, "channel": 0}, {"type": "note_on", "time": 31, "note": 71, "velocity": 94, "channel": 0}, {"type": "note_off", "time": 66, "note": 71, "velocity": 94, "channel": 0}, {"type": "note_on", "time": 2, "note": 65, "velocity": 97, "channel": 0}, {"type": "note_off", "time": 112, "note": 65, "velocity": 97, "channel": 0}, {"type": "note_on", "time": 22, "note": 60, "velocity": 92, "channel": 0}, {"type": "note_off", "time": 45, "note": 60, "velocity": 92, "channel": 0}, {"type": "note_on", "time": 9, "note": 63, "velocity": 101, "channel": 0}, {"type": "note_on", "time": 113, "note": 65, "velocity": 105, "channel": 0}, {"type": "note_off", "time": 0, "note": 63, "velocity": 101, "channel": 0}, {"type": "note_off", "time": 82, "note": 65, "velocity": 105, "channel": 0}, {"type": "note_on", "time": 3, "note": 66, "velocity": 103, "channel": 0}, {"type": "note_off", "time": 103, "note": 66, "velocity": 103, "channel": 0}, {"type": "note_on", "time": 3, "note": 68, "velocity": 97, "channel": 0}, {"type": "note_off", "time": 76, "note": 68, "velocity": 97, "channel": 0}, {"type": "note_on", "time": 0, "note": 70, "velocity": 105, "channel": 0}, {"type": "note_off", "time": 124, "note": 70, "velocity": 105, "channel": 0}, {"type": "note_on", "time": 3, "note": 75, "velocity": 106, "channel": 0}, {"type": "note_off", "time": 45, "note": 75, "velocity": 106, "channel": 0}, {"type": "note_on", "time": 2, "note": 77, "velocity": 116, "channel": 0}, {"type": "note_off", "time": 125, "note": 77, "velocity": 116, "channel": 0}, {"type": "note_on", "time": 0, "note": 78, "velocity": 113, "channel": 0}, {"type": "note_off", "time": 85, "note": 78, "velocity": 113, "channel": 0}, {"type": "note_on", "time": 1, "note": 80, "velocity": 105, "channel": 0}, {"type": "note_off", "time": 195, "note": 80, "velocity": 105, "channel": 0}, {"type": "note_on", "time": 7, "note": 75, "velocity": 113, "channel": 0}, {"type": "note_off", "time": 126, "note": 75, "velocity": 113, "channel": 0}, {"type": "note_on", "time": 4, "note": 71, "velocity": 92, "channel": 0}, {"type": "note_off", "time": 171, "note": 71, "velocity": 92, "channel": 0}, {"type": "note_on", "time": 1, "note": 70, "velocity": 98, "channel": 0}, {"type": "note_off", "time": 156, "note": 70, "velocity": 98, "channel": 0}, {"type": "note_on", "time": 9, "note": 68, "velocity": 98, "channel": 0}, {"type": "note_off", "time": 113, "note": 68, "velocity": 98, "channel": 0}, {"type": "note_on", "time": 7, "note": 69, "velocity": 99, "channel": 0}, {"type": "note_off", "time": 145, "note": 69, "velocity": 99, "channel": 0}, {"type": "note_on", "time": 2, "note": 66, "velocity": 93, "channel": 0}, {"type": "note_off", "time": 119, "note": 66, "velocity": 93, "channel": 0}, {"type": "note_on", "time": 1, "note": 62, "velocity": 95, "channel": 0}, {"type": "note_off", "time": 78, "note": 62, "velocity": 95, "channel": 0}, {"type": "note_on", "time": 1247, "note": 74, "velocity": 116, "channel": 0}, {"type": "note_off", "time": 69, "note": 74, "velocity": 116, "channel": 0}, {"type": "note_on", "time": 0, "note": 76, "velocity": 115, "channel": 0}, {"type": "note_off", "time": 54, "note": 76, "velocity": 115, "channel": 0}, {"type": "note_on", "time": 3, "note": 79, "velocity": 113, "channel": 0}, {"type": "note_off", "time": 56, "note": 79, "velocity": 113, "channel": 0}, {"type": "note_on", "time": 1, "note": 81, "velocity": 114, "channel": 0}, {"type": "note_off", "time": 58, "note": 81, "velocity": 114, "channel": 0}, {"type": "note_on", "time": 4, "note": 73, "velocity": 103, "channel": 0}, {"type": "note_off", "time": 40, "note": 73, "velocity": 103, "channel": 0}, {"type": "note_on", "time": 19, "note": 68, "velocity": 102, "channel": 0}, {"type": "note_on", "time": 31, "note": 73, "velocity": 109, "channel": 0}, {"type": "note_off", "time": 0, "note": 68, "velocity": 102, "channel": 0}, {"type": "note_off", "time": 62, "note": 73, "velocity": 109, "channel": 0}, {"type": "note_on", "time": 2, "note": 72, "velocity": 102, "channel": 0}, {"type": "note_off", "time": 26, "note": 72, "velocity": 102, "channel": 0}, {"type": "note_on", "time": 0, "note": 75, "velocity": 100, "channel": 0}, {"type": "note_on", "time": 32, "note": 68, "velocity": 106, "channel": 0}, {"type": "note_off", "time": 0, "note": 75, "velocity": 100, "channel": 0}, {"type": "note_off", "time": 65, "note": 68, "velocity": 106, "channel": 0}, {"type": "note_on", "time": 0, "note": 72, "velocity": 99, "channel": 0}, {"type": "note_off", "time": 56, "note": 72, "velocity": 99, "channel": 0}, {"type": "note_on", "time": 0, "note": 74, "velocity": 102, "channel": 0}, {"type": "note_off", "time": 29, "note": 74, "velocity": 102, "channel": 0}, {"type": "note_on", "time": 0, "note": 80, "velocity": 109, "channel": 0}, {"type": "note_off", "time": 87, "note": 80, "velocity": 109, "channel": 0}, {"type": "note_on", "time": 5, "note": 77, "velocity": 111, "channel": 0}, {"type": "note_off", "time": 71, "note": 77, "velocity": 111, "channel": 0}, {"type": "note_on", "time": 3, "note": 78, "velocity": 113, "channel": 0}, {"type": "note_off", "time": 41, "note": 78, "velocity": 113, "channel": 0}, {"type": "note_on", "time": 1, "note": 79, "velocity": 115, "channel": 0}, {"type": "note_off", "time": 66, "note": 79, "velocity": 115, "channel": 0}, {"type": "note_on", "time": 5, "note": 78, "velocity": 115, "channel": 0}, {"type": "note_off", "time": 28, "note": 78, "velocity": 115, "channel": 0}, {"type": "note_on", "time": 7, "note": 76, "velocity": 114, "channel": 0}, {"type": "note_off", "time": 35, "note": 76, "velocity": 114, "channel": 0}, {"type": "note_on", "time": 2, "note": 74, "velocity": 109, "channel": 0}, {"type": "note_off", "time": 27, "note": 74, "velocity": 109, "channel": 0}, {"type": "note_on", "time": 4, "note": 73, "velocity": 109, "channel": 0}, {"type": "note_off", "time": 65, "note": 73, "velocity": 109, "channel": 0}, {"type": "note_on", "time": 14, "note": 71, "velocity": 99, "channel": 0}, {"type": "note_off", "time": 56, "note": 71, "velocity": 99, "channel": 0}, {"type": "note_on", "time": 3, "note": 67, "velocity": 107, "channel": 0}, {"type": "note_off", "time": 45, "note": 67, "velocity": 107, "channel": 0}, {"type": "note_on", "time": 15, "note": 65, "velocity": 106, "channel": 0}, {"type": "note_off", "time": 33, "note": 65, "velocity": 106, "channel": 0}, {"type": "note_on", "time": 10, "note": 61, "velocity": 101, "channel": 0}, {"type": "note_off", "time": 46, "note": 61, "velocity": 101, "channel": 0}, {"type": "note_on", "time": 13, "note": 60, "velocity": 101, "channel": 0}, {"type": "note_off", "time": 45, "note": 60, "velocity": 101, "channel": 0}, {"type": "note_on", "time": 11, "note": 59, "velocity": 99, "channel": 0}, {"type": "note_off", "time": 188, "note": 59, "velocity": 99, "channel": 0}, {"type": "note_on", "time": 4, "note": 63, "velocity": 100, "channel": 0}, {"type": "note_off", "time": 53, "note": 63, "velocity": 100, "channel": 0}, {"type": "note_on", "time": 5, "note": 66, "velocity": 97, "channel": 0}, {"type": "note_off", "time": 71, "note": 66, "velocity": 97, "channel": 0}, {"type": "note_on", "time": 8, "note": 70, "velocity": 100, "channel": 0}, {"type": "note_off", "time": 41, "note": 70, "velocity": 100, "channel": 0}, {"type": "note_on", "time": 0, "note": 75, "velocity": 114, "channel": 0}, {"type": "note_off", "time": 47, "note": 75, "velocity": 114, "channel": 0}, {"type": "note_on", "time": 5, "note": 77, "velocity": 113, "channel": 0}, {"type": "note_off", "time": 17, "note": 77, "velocity": 113, "channel": 0}, {"type": "note_on", "time": 0, "note": 79, "velocity": 107, "channel": 0}, {"type": "note_off", "time": 22, "note": 79, "velocity": 107, "channel": 0}, {"type": "note_on", "time": 5, "note": 82, "velocity": 103, "channel": 0}, {"type": "note_off", "time": 110, "note": 82, "velocity": 103, "channel": 0}, {"type": "note_on", "time": 2, "note": 75, "velocity": 106, "channel": 0}, {"type": "note_off", "time": 39, "note": 75, "velocity": 106, "channel": 0}, {"type": "note_on", "time": 14, "note": 72, "velocity": 96, "channel": 0}, {"type": "note_off", "time": 27, "note": 72, "velocity": 96, "channel": 0}, {"type": "note_on", "time": 5, "note": 70, "velocity": 89, "channel": 0}, {"type": "note_off", "time": 39, "note": 70, "velocity": 89, "channel": 0}, {"type": "note_on", "time": 174, "note": 71, "velocity": 85, "channel": 0}, {"type": "note_off", "time": 51, "note": 71, "velocity": 85, "channel": 0}, {"type": "note_on", "time": 1, "note": 72, "velocity": 97, "channel": 0}, {"type": "note_off", "time": 77, "note": 72, "velocity": 97, "channel": 0}, {"type": "note_on", "time": 2, "note": 76, "velocity": 97, "channel": 0}, {"type": "note_off", "time": 107, "note": 76, "velocity": 97, "channel": 0}, {"type": "note_on", "time": 41, "note": 79, "velocity": 85, "channel": 0}, {"type": "note_off", "time": 29, "note": 79, "velocity": 85, "channel": 0}, {"type": "note_on", "time": 1, "note": 83, "velocity": 82, "channel": 0}, {"type": "note_off", "time": 29, "note": 83, "velocity": 82, "channel": 0}, {"type": "note_on", "time": 4, "note": 79, "velocity": 105, "channel": 0}, {"type": "note_off", "time": 53, "note": 79, "velocity": 105, "channel": 0}, {"type": "note_on", "time": 1, "note": 82, "velocity": 98, "channel": 0}, {"type": "note_off", "time": 51, "note": 82, "velocity": 98, "channel": 0}, {"type": "note_on", "time": 3, "note": 81, "velocity": 103, "channel": 0}, {"type": "note_off", "time": 39, "note": 81, "velocity": 103, "channel": 0}, {"type": "note_on", "time": 1, "note": 79, "velocity": 107, "channel": 0}, {"type": "note_off", "time": 32, "note": 79, "velocity": 107, "channel": 0}, {"type": "note_on", "time": 2, "note": 77, "velocity": 105, "channel": 0}, {"type": "note_off", "time": 41, "note": 77, "velocity": 105, "channel": 0}, {"type": "note_on", "time": 0, "note": 73, "velocity": 106, "channel": 0}, {"type": "note_off", "time": 48, "note": 73, "velocity": 106, "channel": 0}, {"type": "note_on", "time": 5, "note": 72, "velocity": 99, "channel": 0}, {"type": "note_off", "time": 57, "note": 72, "velocity": 99, "channel": 0}, {"type": "note_on", "time": 3, "note": 67, "velocity": 98, "channel": 0}, {"type": "note_off", "time": 51, "note": 67, "velocity": 98, "channel": 0}, {"type": "note_on", "time": 337, "note": 80, "velocity": 104, "channel": 0}, {"type": "note_off", "time": 108, "note": 80, "velocity": 104, "channel": 0}, {"type": "note_on", "time": 227, "note": 78, "velocity": 106, "channel": 0}, {"type": "note_off", "time": 90, "note": 78, "velocity": 106, "channel": 0}, {"type": "note_on", "time": 323, "note": 76, "velocity": 118, "channel": 0}, {"type": "note_off", "time": 121, "note": 76, "velocity": 118, "channel": 0}, {"type": "note_on", "time": 4, "note": 74, "velocity": 111, "channel": 0}, {"type": "note_off", "time": 88, "note": 74, "velocity": 111, "channel": 0}, {"type": "note_on", "time": 7, "note": 71, "velocity": 95, "channel": 0}, {"type": "note_off", "time": 174, "note": 71, "velocity": 95, "channel": 0}, {"type": "note_on", "time": 8, "note": 70, "velocity": 97, "channel": 0}, {"type": "note_off", "time": 140, "note": 70, "velocity": 97, "channel": 0}, {"type": "note_on", "time": 5, "note": 67, "velocity": 96, "channel": 0}, {"type": "note_off", "time": 75, "note": 67, "velocity": 96, "channel": 0}, {"type": "note_on", "time": 1425, "note": 79, "velocity": 100, "channel": 0}, {"type": "note_off", "time": 65, "note": 79, "velocity": 100, "channel": 0}, {"type": "note_on", "time": 1, "note": 77, "velocity": 118, "channel": 0}, {"type": "note_off", "time": 108, "note": 77, "velocity": 118, "channel": 0}, {"type": "note_on", "time": 1, "note": 79, "velocity": 123, "channel": 0}, {"type": "note_off", "time": 102, "note": 79, "velocity": 123, "channel": 0}, {"type": "note_on", "time": 3, "note": 80, "velocity": 122, "channel": 0}, {"type": "note_off", "time": 94, "note": 80, "velocity": 122, "channel": 0}, {"type": "note_on", "time": 8, "note": 81, "velocity": 120, "channel": 0}, {"type": "note_off", "time": 88, "note": 81, "velocity": 120, "channel": 0}, {"type": "note_on", "time": 8, "note": 82, "velocity": 125, "channel": 0}, {"type": "note_off", "time": 95, "note": 82, "velocity": 125, "channel": 0}, {"type": "note_on", "time": 3, "note": 79, "velocity": 122, "channel": 0}, {"type": "note_off", "time": 82, "note": 79, "velocity": 122, "channel": 0}, {"type": "note_on", "time": 7, "note": 80, "velocity": 123, "channel": 0}, {"type": "note_off", "time": 88, "note": 80, "velocity": 123, "channel": 0}, {"type": "note_on", "time": 1, "note": 82, "velocity": 116, "channel": 0}, {"type": "note_off", "time": 94, "note": 82, "velocity": 116, "channel": 0}, {"type": "note_on", "time": 2, "note": 78, "velocity": 122, "channel": 0}, {"type": "note_off", "time": 96, "note": 78, "velocity": 122, "channel": 0}, {"type": "note_on", "time": 4, "note": 74, "velocity": 113, "channel": 0}, {"type": "note_off", "time": 84, "note": 74, "velocity": 113, "channel": 0}, {"type": "note_on", "time": 5, "note": 71, "velocity": 100, "channel": 0}, {"type": "note_off", "time": 85, "note": 71, "velocity": 100, "channel": 0}, {"type": "note_on", "time": 1, "note": 69, "velocity": 105, "channel": 0}, {"type": "note_off", "time": 73, "note": 69, "velocity": 105, "channel": 0}, {"type": "note_on", "time": 0, "note": 70, "velocity": 104, "channel": 0}, {"type": "note_off", "time": 112, "note": 70, "velocity": 104, "channel": 0}, {"type": "note_on", "time": 0, "note": 67, "velocity": 105, "channel": 0}, {"type": "note_off", "time": 88, "note": 67, "velocity": 105, "channel": 0}, {"type": "note_on", "time": 3, "note": 68, "velocity": 102, "channel": 0}, {"type": "note_off", "time": 116, "note": 68, "velocity": 102, "channel": 0}, {"type": "note_on", "time": 3, "note": 70, "velocity": 102, "channel": 0}, {"type": "note_off", "time": 73, "note": 70, "velocity": 102, "channel": 0}, {"type": "note_on", "time": 0, "note": 71, "velocity": 96, "channel": 0}, {"type": "note_off", "time": 114, "note": 71, "velocity": 96, "channel": 0}, {"type": "note_on", "time": 5, "note": 73, "velocity": 94, "channel": 0}, {"type": "note_on", "time": 39, "note": 75, "velocity": 114, "channel": 0}, {"type": "note_off", "time": 0, "note": 73, "velocity": 94, "channel": 0}, {"type": "note_off", "time": 131, "note": 75, "velocity": 114, "channel": 0}, {"type": "note_on", "time": 0, "note": 78, "velocity": 120, "channel": 0}, {"type": "note_off", "time": 112, "note": 78, "velocity": 120, "channel": 0}, {"type": "note_on", "time": 3, "note": 77, "velocity": 120, "channel": 0}, {"type": "note_off", "time": 85, "note": 77, "velocity": 120, "channel": 0}, {"type": "note_on", "time": 0, "note": 75, "velocity": 106, "channel": 0}, {"type": "note_off", "time": 77, "note": 75, "velocity": 106, "channel": 0}, {"type": "note_on", "time": 11, "note": 76, "velocity": 119, "channel": 0}, {"type": "note_off", "time": 109, "note": 76, "velocity": 119, "channel": 0}, {"type": "note_on", "time": 0, "note": 81, "velocity": 110, "channel": 0}, {"type": "note_off", "time": 87, "note": 81, "velocity": 110, "channel": 0}, {"type": "note_on", "time": 0, "note": 75, "velocity": 111, "channel": 0}, {"type": "note_off", "time": 110, "note": 75, "velocity": 111, "channel": 0}, {"type": "note_on", "time": 9, "note": 81, "velocity": 107, "channel": 0}, {"type": "note_off", "time": 91, "note": 81, "velocity": 107, "channel": 0}, {"type": "note_on", "time": 5, "note": 73, "velocity": 108, "channel": 0}, {"type": "note_off", "time": 88, "note": 73, "velocity": 108, "channel": 0}, {"type": "note_on", "time": 0, "note": 75, "velocity": 107, "channel": 0}, {"type": "note_off", "time": 80, "note": 75, "velocity": 107, "channel": 0}, {"type": "note_on", "time": 1, "note": 71, "velocity": 96, "channel": 0}, {"type": "note_off", "time": 107, "note": 71, "velocity": 96, "channel": 0}, {"type": "note_on", "time": 4, "note": 69, "velocity": 101, "channel": 0}, {"type": "note_off", "time": 75, "note": 69, "velocity": 101, "channel": 0}, {"type": "note_on", "time": 5, "note": 70, "velocity": 102, "channel": 0}, {"type": "note_off", "time": 93, "note": 70, "velocity": 102, "channel": 0}, {"type": "note_on", "time": 317, "note": 73, "velocity": 116, "channel": 0}, {"type": "note_off", "time": 89, "note": 73, "velocity": 116, "channel": 0}, {"type": "note_on", "time": 13, "note": 77, "velocity": 118, "channel": 0}, {"type": "note_off", "time": 87, "note": 77, "velocity": 118, "channel": 0}, {"type": "note_on", "time": 4, "note": 80, "velocity": 116, "channel": 0}, {"type": "note_off", "time": 109, "note": 80, "velocity": 116, "channel": 0}, {"type": "note_on", "time": 2, "note": 78, "velocity": 106, "channel": 0}, {"type": "note_off", "time": 66, "note": 78, "velocity": 106, "channel": 0}, {"type": "note_on", "time": 8, "note": 79, "velocity": 110, "channel": 0}, {"type": "note_off", "time": 300, "note": 79, "velocity": 110, "channel": 0}, {"type": "note_on", "time": 3, "note": 77, "velocity": 116, "channel": 0}, {"type": "note_off", "time": 100, "note": 77, "velocity": 116, "channel": 0}, {"type": "note_on", "time": 7, "note": 76, "velocity": 114, "channel": 0}, {"type": "note_off", "time": 91, "note": 76, "velocity": 114, "channel": 0}, {"type": "note_on", "time": 3, "note": 68, "velocity": 106, "channel": 0}, {"type": "note_off", "time": 119, "note": 68, "velocity": 106, "channel": 0}, {"type": "note_on", "time": 4, "note": 67, "velocity": 105, "channel": 0}, {"type": "note_off", "time": 97, "note": 67, "velocity": 105, "channel": 0}, {"type": "note_on", "time": 4, "note": 65, "velocity": 108, "channel": 0}, {"type": "note_off", "time": 44, "note": 65, "velocity": 108, "channel": 0}, {"type": "note_on", "time": 22, "note": 70, "velocity": 105, "channel": 0}, {"type": "note_off", "time": 93, "note": 70, "velocity": 105, "channel": 0}, {"type": "note_on", "time": 0, "note": 67, "velocity": 107, "channel": 0}, {"type": "note_off", "time": 75, "note": 67, "velocity": 107, "channel": 0}, {"type": "note_on", "time": 5, "note": 68, "velocity": 104, "channel": 0}, {"type": "note_off", "time": 93, "note": 68, "velocity": 104, "channel": 0}, {"type": "note_on", "time": 3, "note": 67, "velocity": 103, "channel": 0}, {"type": "note_off", "time": 90, "note": 67, "velocity": 103, "channel": 0}, {"type": "note_on", "time": 7, "note": 63, "velocity": 105, "channel": 0}, {"type": "note_off", "time": 94, "note": 63, "velocity": 105, "channel": 0}, {"type": "note_on", "time": 14, "note": 66, "velocity": 107, "channel": 0}, {"type": "note_off", "time": 76, "note": 66, "velocity": 107, "channel": 0}, {"type": "note_on", "time": 7, "note": 61, "velocity": 98, "channel": 0}, {"type": "note_off", "time": 83, "note": 61, "velocity": 98, "channel": 0}, {"type": "note_on", "time": 3, "note": 63, "velocity": 103, "channel": 0}, {"type": "note_off", "time": 107, "note": 63, "velocity": 103, "channel": 0}, {"type": "note_on", "time": 8, "note": 62, "velocity": 103, "channel": 0}, {"type": "note_off", "time": 85, "note": 62, "velocity": 103, "channel": 0}, {"type": "note_on", "time": 416, "note": 59, "velocity": 106, "channel": 0}, {"type": "note_off", "time": 41, "note": 59, "velocity": 106, "channel": 0}, {"type": "note_on", "time": 3, "note": 61, "velocity": 109, "channel": 0}, {"type": "note_off", "time": 39, "note": 61, "velocity": 109, "channel": 0}, {"type": "note_on", "time": 5, "note": 64, "velocity": 102, "channel": 0}, {"type": "note_off", "time": 27, "note": 64, "velocity": 102, "channel": 0}, {"type": "note_on", "time": 2, "note": 68, "velocity": 108, "channel": 0}, {"type": "note_off", "time": 64, "note": 68, "velocity": 108, "channel": 0}, {"type": "note_on", "time": 0, "note": 67, "velocity": 111, "channel": 0}, {"type": "note_off", "time": 63, "note": 67, "velocity": 111, "channel": 0}, {"type": "note_on", "time": 2, "note": 65, "velocity": 111, "channel": 0}, {"type": "note_off", "time": 87, "note": 65, "velocity": 111, "channel": 0}, {"type": "note_on", "time": 258, "note": 75, "velocity": 116, "channel": 0}, {"type": "note_off", "time": 97, "note": 75, "velocity": 116, "channel": 0}, {"type": "note_on", "time": 412, "note": 77, "velocity": 123, "channel": 0}, {"type": "note_off", "time": 110, "note": 77, "velocity": 123, "channel": 0}, {"type": "note_on", "time": 2, "note": 76, "velocity": 123, "channel": 0}, {"type": "note_off", "time": 83, "note": 76, "velocity": 123, "channel": 0}, {"type": "note_on", "time": 1, "note": 75, "velocity": 116, "channel": 0}, {"type": "note_off", "time": 94, "note": 75, "velocity": 116, "channel": 0}, {"type": "note_on", "time": 3, "note": 74, "velocity": 115, "channel": 0}, {"type": "note_off", "time": 96, "note": 74, "velocity": 115, "channel": 0}, {"type": "note_on", "time": 0, "note": 71, "velocity": 103, "channel": 0}, {"type": "note_off", "time": 65, "note": 71, "velocity": 103, "channel": 0}, {"type": "note_on", "time": 4, "note": 70, "velocity": 105, "channel": 0}, {"type": "note_off", "time": 105, "note": 70, "velocity": 105, "channel": 0}, {"type": "note_on", "time": 29, "note": 68, "velocity": 109, "channel": 0}, {"type": "note_off", "time": 56, "note": 68, "velocity": 109, "channel": 0}, {"type": "note_on", "time": 8, "note": 67, "velocity": 108, "channel": 0}, {"type": "note_off", "time": 95, "note": 67, "velocity": 108, "channel": 0}, {"type": "note_on", "time": 7, "note": 74, "velocity": 110, "channel": 0}, {"type": "note_off", "time": 217, "note": 74, "velocity": 110, "channel": 0}, {"type": "note_on", "time": 3, "note": 72, "velocity": 107, "channel": 0}, {"type": "note_off", "time": 145, "note": 72, "velocity": 107, "channel": 0}, {"type": "note_on", "time": 46, "note": 70, "velocity": 102, "channel": 0}, {"type": "note_off", "time": 150, "note": 70, "velocity": 102, "channel": 0}, {"type": "note_on", "time": 21, "note": 72, "velocity": 105, "channel": 0}, {"type": "note_off", "time": 158, "note": 72, "velocity": 105, "channel": 0}, {"type": "note_on", "time": 11, "note": 73, "velocity": 111, "channel": 0}, {"type": "note_off", "time": 194, "note": 73, "velocity": 111, "channel": 0}, {"type": "note_on", "time": 7, "note": 75, "velocity": 113, "channel": 0}, {"type": "note_off", "time": 163, "note": 75, "velocity": 113, "channel": 0}, {"type": "note_on", "time": 23, "note": 84, "velocity": 105, "channel": 0}, {"type": "note_off", "time": 124, "note": 84, "velocity": 105, "channel": 0}, {"type": "note_on", "time": 6, "note": 83, "velocity": 105, "channel": 0}, {"type": "note_off", "time": 53, "note": 83, "velocity": 105, "channel": 0}, {"type": "note_on", "time": 5, "note": 82, "velocity": 97, "channel": 0}, {"type": "note_off", "time": 279, "note": 82, "velocity": 97, "channel": 0}, {"type": "note_on", "time": 652, "note": 79, "velocity": 116, "channel": 0}, {"type": "note_off", "time": 88, "note": 79, "velocity": 116, "channel": 0}, {"type": "note_on", "time": 2, "note": 80, "velocity": 111, "channel": 0}, {"type": "note_off", "time": 94, "note": 80, "velocity": 111, "channel": 0}, {"type": "note_on", "time": 2, "note": 82, "velocity": 98, "channel": 0}, {"type": "note_off", "time": 83, "note": 82, "velocity": 98, "channel": 0}, {"type": "note_on", "time": 3, "note": 83, "velocity": 110, "channel": 0}, {"type": "note_off", "time": 108, "note": 83, "velocity": 110, "channel": 0}, {"type": "note_on", "time": 0, "note": 83, "velocity": 106, "channel": 0}, {"type": "note_off", "time": 73, "note": 83, "velocity": 106, "channel": 0}, {"type": "note_on", "time": 0, "note": 82, "velocity": 112, "channel": 0}, {"type": "note_off", "time": 115, "note": 82, "velocity": 112, "channel": 0}, {"type": "note_on", "time": 9, "note": 80, "velocity": 109, "channel": 0}, {"type": "note_off", "time": 112, "note": 80, "velocity": 109, "channel": 0}, {"type": "note_on", "time": 2, "note": 79, "velocity": 98, "channel": 0}, {"type": "note_off", "time": 199, "note": 79, "velocity": 98, "channel": 0}, {"type": "note_on", "time": 636, "note": 73, "velocity": 116, "channel": 0}, {"type": "note_off", "time": 71, "note": 73, "velocity": 116, "channel": 0}, {"type": "note_on", "time": 3, "note": 77, "velocity": 118, "channel": 0}, {"type": "note_off", "time": 108, "note": 77, "velocity": 118, "channel": 0}, {"type": "note_on", "time": 0, "note": 79, "velocity": 121, "channel": 0}, {"type": "note_off", "time": 79, "note": 79, "velocity": 121, "channel": 0}, {"type": "note_on", "time": 5, "note": 80, "velocity": 121, "channel": 0}, {"type": "note_off", "time": 69, "note": 80, "velocity": 121, "channel": 0}, {"type": "note_on", "time": 5, "note": 79, "velocity": 120, "channel": 0}, {"type": "note_off", "time": 94, "note": 79, "velocity": 120, "channel": 0}, {"type": "note_on", "time": 2, "note": 77, "velocity": 121, "channel": 0}, {"type": "note_off", "time": 96, "note": 77, "velocity": 121, "channel": 0}, {"type": "note_on", "time": 8, "note": 75, "velocity": 109, "channel": 0}, {"type": "note_off", "time": 66, "note": 75, "velocity": 109, "channel": 0}, {"type": "note_on", "time": 7, "note": 76, "velocity": 116, "channel": 0}, {"type": "note_off", "time": 107, "note": 76, "velocity": 116, "channel": 0}, {"type": "note_on", "time": 0, "note": 75, "velocity": 115, "channel": 0}, {"type": "note_off", "time": 95, "note": 75, "velocity": 115, "channel": 0}, {"type": "note_on", "time": 175, "note": 82, "velocity": 115, "channel": 0}, {"type": "note_off", "time": 130, "note": 82, "velocity": 115, "channel": 0}, {"type": "note_on", "time": 284, "note": 75, "velocity": 115, "channel": 0}, {"type": "note_off", "time": 108, "note": 75, "velocity": 115, "channel": 0}, {"type": "note_on", "time": 1, "note": 77, "velocity": 118, "channel": 0}, {"type": "note_off", "time": 81, "note": 77, "velocity": 118, "channel": 0}, {"type": "note_on", "time": 0, "note": 79, "velocity": 115, "channel": 0}, {"type": "note_off", "time": 100, "note": 79, "velocity": 115, "channel": 0}, {"type": "note_on", "time": 0, "note": 80, "velocity": 117, "channel": 0}, {"type": "note_off", "time": 145, "note": 80, "velocity": 117, "channel": 0}, {"type": "note_on", "time": 0, "note": 78, "velocity": 118, "channel": 0}, {"type": "note_off", "time": 112, "note": 78, "velocity": 118, "channel": 0}, {"type": "note_on", "time": 7, "note": 77, "velocity": 105, "channel": 0}, {"type": "note_off", "time": 108, "note": 77, "velocity": 105, "channel": 0}, {"type": "note_on", "time": 2, "note": 74, "velocity": 101, "channel": 0}, {"type": "note_off", "time": 53, "note": 74, "velocity": 101, "channel": 0}, {"type": "note_on", "time": 7, "note": 79, "velocity": 114, "channel": 0}, {"type": "note_off", "time": 106, "note": 79, "velocity": 114, "channel": 0}, {"type": "note_on", "time": 310, "note": 76, "velocity": 120, "channel": 0}, {"type": "note_off", "time": 102, "note": 76, "velocity": 120, "channel": 0}, {"type": "note_on", "time": 0, "note": 73, "velocity": 111, "channel": 0}, {"type": "note_off", "time": 70, "note": 73, "velocity": 111, "channel": 0}, {"type": "note_on", "time": 11, "note": 69, "velocity": 103, "channel": 0}, {"type": "note_off", "time": 101, "note": 69, "velocity": 103, "channel": 0}, {"type": "note_on", "time": 7, "note": 63, "velocity": 103, "channel": 0}, {"type": "note_off", "time": 79, "note": 63, "velocity": 103, "channel": 0}, {"type": "note_on", "time": 3, "note": 70, "velocity": 94, "channel": 0}, {"type": "note_off", "time": 113, "note": 70, "velocity": 94, "channel": 0}, {"type": "note_on", "time": 14, "note": 61, "velocity": 92, "channel": 0}, {"type": "note_off", "time": 50, "note": 61, "velocity": 92, "channel": 0}, {"type": "note_on", "time": 1, "note": 63, "velocity": 99, "channel": 0}, {"type": "note_off", "time": 113, "note": 63, "velocity": 99, "channel": 0}, {"type": "note_on", "time": 4, "note": 66, "velocity": 111, "channel": 0}, {"type": "note_off", "time": 70, "note": 66, "velocity": 111, "channel": 0}, {"type": "note_on", "time": 3, "note": 65, "velocity": 112, "channel": 0}, {"type": "note_off", "time": 112, "note": 65, "velocity": 112, "channel": 0}, {"type": "note_on", "time": 4, "note": 63, "velocity": 106, "channel": 0}, {"type": "note_off", "time": 85, "note": 63, "velocity": 106, "channel": 0}, {"type": "note_on", "time": 7, "note": 64, "velocity": 106, "channel": 0}, {"type": "note_off", "time": 101, "note": 64, "velocity": 106, "channel": 0}, {"type": "note_on", "time": 3, "note": 61, "velocity": 102, "channel": 0}, {"type": "note_off", "time": 81, "note": 61, "velocity": 102, "channel": 0}, {"type": "note_on", "time": 20, "note": 60, "velocity": 97, "channel": 0}, {"type": "note_off", "time": 89, "note": 60, "velocity": 97, "channel": 0}, {"type": "note_on", "time": 5, "note": 58, "velocity": 96, "channel": 0}, {"type": "note_off", "time": 93, "note": 58, "velocity": 96, "channel": 0}, {"type": "note_on", "time": 46, "note": 59, "velocity": 95, "channel": 0}, {"type": "note_off", "time": 48, "note": 59, "velocity": 95, "channel": 0}, {"type": "note_on", "time": 7, "note": 63, "velocity": 99, "channel": 0}, {"type": "note_off", "time": 51, "note": 63, "velocity": 99, "channel": 0}, {"type": "note_on", "time": 0, "note": 67, "velocity": 104, "channel": 0}, {"type": "note_off", "time": 77, "note": 67, "velocity": 104, "channel": 0}, {"type": "note_on", "time": 11, "note": 64, "velocity": 108, "channel": 0}, {"type": "note_off", "time": 52, "note": 64, "velocity": 108, "channel": 0}, {"type": "note_on", "time": 2, "note": 65, "velocity": 105, "channel": 0}, {"type": "note_off", "time": 58, "note": 65, "velocity": 105, "channel": 0}, {"type": "note_on", "time": 8, "note": 68, "velocity": 102, "channel": 0}, {"type": "note_off", "time": 58, "note": 68, "velocity": 102, "channel": 0}, {"type": "note_on", "time": 2, "note": 69, "velocity": 96, "channel": 0}, {"type": "note_off", "time": 78, "note": 69, "velocity": 96, "channel": 0}, {"type": "note_on", "time": 3, "note": 72, "velocity": 97, "channel": 0}, {"type": "note_off", "time": 44, "note": 72, "velocity": 97, "channel": 0}, {"type": "note_on", "time": 1, "note": 76, "velocity": 110, "channel": 0}, {"type": "note_on", "time": 58, "note": 79, "velocity": 112, "channel": 0}, {"type": "note_off", "time": 0, "note": 76, "velocity": 110, "channel": 0}, {"type": "note_off", "time": 77, "note": 79, "velocity": 112, "channel": 0}, {"type": "note_on", "time": 2, "note": 76, "velocity": 116, "channel": 0}, {"type": "note_off", "time": 31, "note": 76, "velocity": 116, "channel": 0}, {"type": "note_on", "time": 2, "note": 77, "velocity": 115, "channel": 0}, {"type": "note_off", "time": 75, "note": 77, "velocity": 115, "channel": 0}, {"type": "note_on", "time": 0, "note": 78, "velocity": 115, "channel": 0}, {"type": "note_off", "time": 78, "note": 78, "velocity": 115, "channel": 0}, {"type": "note_on", "time": 8, "note": 74, "velocity": 109, "channel": 0}, {"type": "note_off", "time": 94, "note": 74, "velocity": 109, "channel": 0}, {"type": "note_on", "time": 4, "note": 70, "velocity": 93, "channel": 0}, {"type": "note_off", "time": 45, "note": 70, "velocity": 93, "channel": 0}, {"type": "note_on", "time": 9, "note": 69, "velocity": 103, "channel": 0}, {"type": "note_off", "time": 40, "note": 69, "velocity": 103, "channel": 0}, {"type": "note_on", "time": 10, "note": 70, "velocity": 98, "channel": 0}, {"type": "note_off", "time": 65, "note": 70, "velocity": 98, "channel": 0}, {"type": "note_on", "time": 1, "note": 68, "velocity": 101, "channel": 0}, {"type": "note_off", "time": 47, "note": 68, "velocity": 101, "channel": 0}, {"type": "note_on", "time": 0, "note": 67, "velocity": 101, "channel": 0}, {"type": "note_off", "time": 91, "note": 67, "velocity": 101, "channel": 0}, {"type": "note_on", "time": 3, "note": 63, "velocity": 103, "channel": 0}, {"type": "note_off", "time": 200, "note": 63, "velocity": 103, "channel": 0}, {"type": "note_on", "time": 12, "note": 65, "velocity": 105, "channel": 0}, {"type": "note_off", "time": 100, "note": 65, "velocity": 105, "channel": 0}, {"type": "note_on", "time": 20, "note": 61, "velocity": 95, "channel": 0}, {"type": "note_off", "time": 165, "note": 61, "velocity": 95, "channel": 0}, {"type": "note_on", "time": 967, "note": 70, "velocity": 107, "channel": 0}, {"type": "note_off", "time": 81, "note": 70, "velocity": 107, "channel": 0}, {"type": "note_on", "time": 7, "note": 72, "velocity": 107, "channel": 0}, {"type": "note_off", "time": 85, "note": 72, "velocity": 107, "channel": 0}, {"type": "note_on", "time": 4, "note": 74, "velocity": 113, "channel": 0}, {"type": "note_off", "time": 96, "note": 74, "velocity": 113, "channel": 0}, {"type": "note_on", "time": 4, "note": 75, "velocity": 119, "channel": 0}, {"type": "note_off", "time": 70, "note": 75, "velocity": 119, "channel": 0}, {"type": "note_on", "time": 3, "note": 77, "velocity": 115, "channel": 0}, {"type": "note_off", "time": 96, "note": 77, "velocity": 115, "channel": 0}, {"type": "note_on", "time": 10, "note": 79, "velocity": 120, "channel": 0}, {"type": "note_off", "time": 108, "note": 79, "velocity": 120, "channel": 0}, {"type": "note_on", "time": 0, "note": 75, "velocity": 116, "channel": 0}, {"type": "note_off", "time": 94, "note": 75, "velocity": 116, "channel": 0}, {"type": "note_on", "time": 29, "note": 71, "velocity": 95, "channel": 0}, {"type": "note_off", "time": 87, "note": 71, "velocity": 95, "channel": 0}, {"type": "note_on", "time": 11, "note": 67, "velocity": 103, "channel": 0}, {"type": "note_off", "time": 88, "note": 67, "velocity": 103, "channel": 0}, {"type": "note_on", "time": 0, "note": 73, "velocity": 114, "channel": 0}, {"type": "note_off", "time": 109, "note": 73, "velocity": 114, "channel": 0}, {"type": "note_on", "time": 4, "note": 74, "velocity": 115, "channel": 0}, {"type": "note_off", "time": 66, "note": 74, "velocity": 115, "channel": 0}, {"type": "note_on", "time": 2, "note": 75, "velocity": 117, "channel": 0}, {"type": "note_off", "time": 96, "note": 75, "velocity": 117, "channel": 0}, {"type": "note_on", "time": 1, "note": 76, "velocity": 110, "channel": 0}, {"type": "note_off", "time": 72, "note": 76, "velocity": 110, "channel": 0}, {"type": "note_on", "time": 4, "note": 77, "velocity": 118, "channel": 0}, {"type": "note_off", "time": 101, "note": 77, "velocity": 118, "channel": 0}, {"type": "note_on", "time": 3, "note": 74, "velocity": 119, "channel": 0}, {"type": "note_off", "time": 66, "note": 74, "velocity": 119, "channel": 0}, {"type": "note_on", "time": 5, "note": 71, "velocity": 89, "channel": 0}, {"type": "note_off", "time": 102, "note": 71, "velocity": 89, "channel": 0}, {"type": "note_on", "time": 3, "note": 69, "velocity": 104, "channel": 0}, {"type": "note_on", "time": 79, "note": 70, "velocity": 100, "channel": 0}, {"type": "note_off", "time": 0, "note": 69, "velocity": 104, "channel": 0}, {"type": "note_off", "time": 101, "note": 70, "velocity": 100, "channel": 0}, {"type": "note_on", "time": 33, "note": 67, "velocity": 105, "channel": 0}, {"type": "note_off", "time": 71, "note": 67, "velocity": 105, "channel": 0}, {"type": "note_on", "time": 0, "note": 69, "velocity": 97, "channel": 0}, {"type": "note_off", "time": 66, "note": 69, "velocity": 97, "channel": 0}, {"type": "note_on", "time": 4, "note": 71, "velocity": 91, "channel": 0}, {"type": "note_off", "time": 46, "note": 71, "velocity": 91, "channel": 0}, {"type": "note_on", "time": 3, "note": 74, "velocity": 106, "channel": 0}, {"type": "note_off", "time": 48, "note": 74, "velocity": 106, "channel": 0}, {"type": "note_on", "time": 33, "note": 78, "velocity": 108, "channel": 0}, {"type": "note_off", "time": 59, "note": 78, "velocity": 108, "channel": 0}, {"type": "note_on", "time": 3, "note": 67, "velocity": 104, "channel": 0}, {"type": "note_off", "time": 94, "note": 67, "velocity": 104, "channel": 0}, {"type": "note_on", "time": 249, "note": 72, "velocity": 109, "channel": 0}, {"type": "note_off", "time": 93, "note": 72, "velocity": 109, "channel": 0}, {"type": "note_on", "time": 3, "note": 74, "velocity": 109, "channel": 0}, {"type": "note_off", "time": 54, "note": 74, "velocity": 109, "channel": 0}, {"type": "note_on", "time": 4, "note": 75, "velocity": 119, "channel": 0}, {"type": "note_off", "time": 84, "note": 75, "velocity": 119, "channel": 0}, {"type": "note_on", "time": 7, "note": 74, "velocity": 110, "channel": 0}, {"type": "note_off", "time": 63, "note": 74, "velocity": 110, "channel": 0}, {"type": "note_on", "time": 2, "note": 76, "velocity": 118, "channel": 0}, {"type": "note_off", "time": 70, "note": 76, "velocity": 118, "channel": 0}, {"type": "note_on", "time": 473, "note": 69, "velocity": 105, "channel": 0}, {"type": "note_off", "time": 28, "note": 69, "velocity": 105, "channel": 0}, {"type": "note_on", "time": 5, "note": 70, "velocity": 96, "channel": 0}, {"type": "note_off", "time": 107, "note": 70, "velocity": 96, "channel": 0}, {"type": "note_on", "time": 75, "note": 77, "velocity": 116, "channel": 0}, {"type": "note_off", "time": 137, "note": 77, "velocity": 116, "channel": 0}, {"type": "note_on", "time": 260, "note": 75, "velocity": 116, "channel": 0}, {"type": "note_off", "time": 122, "note": 75, "velocity": 116, "channel": 0}, {"type": "note_on", "time": 211, "note": 73, "velocity": 116, "channel": 0}, {"type": "note_off", "time": 63, "note": 73, "velocity": 116, "channel": 0}, {"type": "note_on", "time": 1, "note": 74, "velocity": 119, "channel": 0}, {"type": "note_off", "time": 120, "note": 74, "velocity": 119, "channel": 0}, {"type": "note_on", "time": 3, "note": 71, "velocity": 103, "channel": 0}, {"type": "note_off", "time": 60, "note": 71, "velocity": 103, "channel": 0}, {"type": "note_on", "time": 3, "note": 70, "velocity": 104, "channel": 0}, {"type": "note_off", "time": 118, "note": 70, "velocity": 104, "channel": 0}, {"type": "note_on", "time": 10, "note": 68, "velocity": 106, "channel": 0}, {"type": "note_off", "time": 72, "note": 68, "velocity": 106, "channel": 0}, {"type": "note_on", "time": 9, "note": 67, "velocity": 109, "channel": 0}, {"type": "note_off", "time": 112, "note": 67, "velocity": 109, "channel": 0}, {"type": "note_on", "time": 258, "note": 73, "velocity": 104, "channel": 0}, {"type": "note_off", "time": 350, "note": 73, "velocity": 104, "channel": 0}, {"type": "note_on", "time": 65, "note": 65, "velocity": 97, "channel": 0}, {"type": "note_off", "time": 266, "note": 65, "velocity": 97, "channel": 0}, {"type": "note_on", "time": 16, "note": 75, "velocity": 95, "channel": 0}, {"type": "note_off", "time": 337, "note": 75, "velocity": 95, "channel": 0}, {"type": "note_on", "time": 270, "note": 73, "velocity": 112, "channel": 0}, {"type": "note_off", "time": 115, "note": 73, "velocity": 112, "channel": 0}, {"type": "note_on", "time": 9, "note": 75, "velocity": 118, "channel": 0}, {"type": "note_off", "time": 113, "note": 75, "velocity": 118, "channel": 0}, {"type": "note_on", "time": 9, "note": 78, "velocity": 120, "channel": 0}, {"type": "note_off", "time": 139, "note": 78, "velocity": 120, "channel": 0}, {"type": "note_on", "time": 7, "note": 73, "velocity": 109, "channel": 0}, {"type": "note_off", "time": 45, "note": 73, "velocity": 109, "channel": 0}, {"type": "note_on", "time": 3, "note": 75, "velocity": 112, "channel": 0}, {"type": "note_off", "time": 156, "note": 75, "velocity": 112, "channel": 0}, {"type": "note_on", "time": 7, "note": 74, "velocity": 106, "channel": 0}, {"type": "note_off", "time": 264, "note": 74, "velocity": 106, "channel": 0}, {"type": "note_on", "time": 48, "note": 71, "velocity": 93, "channel": 0}, {"type": "note_off", "time": 65, "note": 71, "velocity": 93, "channel": 0}, {"type": "note_on", "time": 15, "note": 70, "velocity": 98, "channel": 0}, {"type": "note_off", "time": 100, "note": 70, "velocity": 98, "channel": 0}, {"type": "note_on", "time": 11, "note": 68, "velocity": 105, "channel": 0}, {"type": "note_off", "time": 70, "note": 68, "velocity": 105, "channel": 0}, {"type": "note_on", "time": 10, "note": 67, "velocity": 107, "channel": 0}, {"type": "note_off", "time": 91, "note": 67, "velocity": 107, "channel": 0}, {"type": "note_on", "time": 1, "note": 65, "velocity": 104, "channel": 0}, {"type": "note_off", "time": 88, "note": 65, "velocity": 104, "channel": 0}, {"type": "note_on", "time": 3, "note": 62, "velocity": 100, "channel": 0}, {"type": "note_off", "time": 88, "note": 62, "velocity": 100, "channel": 0}, {"type": "note_on", "time": 0, "note": 67, "velocity": 96, "channel": 0}, {"type": "note_off", "time": 102, "note": 67, "velocity": 96, "channel": 0}, {"type": "note_on", "time": 0, "note": 60, "velocity": 9, "channel": 0}, {"type": "note_off", "time": 186, "note": 60, "velocity": 9, "channel": 0}, {"type": "note_on", "time": 1281, "note": 60, "velocity": 108, "channel": 0}, {"type": "note_off", "time": 42, "note": 60, "velocity": 108, "channel": 0}, {"type": "note_on", "time": 5, "note": 65, "velocity": 111, "channel": 0}, {"type": "note_off", "time": 56, "note": 65, "velocity": 111, "channel": 0}, {"type": "note_on", "time": 3, "note": 70, "velocity": 107, "channel": 0}, {"type": "note_off", "time": 45, "note": 70, "velocity": 107, "channel": 0}, {"type": "note_on", "time": 2, "note": 72, "velocity": 114, "channel": 0}, {"type": "note_off", "time": 38, "note": 72, "velocity": 114, "channel": 0}, {"type": "note_on", "time": 3, "note": 77, "velocity": 123, "channel": 0}, {"type": "note_off", "time": 47, "note": 77, "velocity": 123, "channel": 0}, {"type": "note_on", "time": 7, "note": 82, "velocity": 122, "channel": 0}, {"type": "note_off", "time": 50, "note": 82, "velocity": 122, "channel": 0}, {"type": "note_on", "time": 2, "note": 77, "velocity": 122, "channel": 0}, {"type": "note_off", "time": 56, "note": 77, "velocity": 122, "channel": 0}, {"type": "note_on", "time": 2, "note": 72, "velocity": 105, "channel": 0}, {"type": "note_off", "time": 63, "note": 72, "velocity": 105, "channel": 0}, {"type": "note_on", "time": 5, "note": 69, "velocity": 96, "channel": 0}, {"type": "note_off", "time": 54, "note": 69, "velocity": 96, "channel": 0}, {"type": "note_on", "time": 243, "note": 61, "velocity": 109, "channel": 0}, {"type": "note_off", "time": 29, "note": 61, "velocity": 109, "channel": 0}, {"type": "note_on", "time": 0, "note": 64, "velocity": 110, "channel": 0}, {"type": "note_on", "time": 42, "note": 70, "velocity": 92, "channel": 0}, {"type": "note_off", "time": 0, "note": 64, "velocity": 110, "channel": 0}, {"type": "note_off", "time": 35, "note": 70, "velocity": 92, "channel": 0}, {"type": "note_on", "time": 5, "note": 73, "velocity": 113, "channel": 0}, {"type": "note_off", "time": 47, "note": 73, "velocity": 113, "channel": 0}, {"type": "note_on", "time": 0, "note": 78, "velocity": 121, "channel": 0}, {"type": "note_off", "time": 66, "note": 78, "velocity": 121, "channel": 0}, {"type": "note_on", "time": 1, "note": 83, "velocity": 115, "channel": 0}, {"type": "note_off", "time": 54, "note": 83, "velocity": 115, "channel": 0}, {"type": "note_on", "time": 4, "note": 78, "velocity": 122, "channel": 0}, {"type": "note_off", "time": 52, "note": 78, "velocity": 122, "channel": 0}, {"type": "note_on", "time": 1, "note": 73, "velocity": 110, "channel": 0}, {"type": "note_off", "time": 58, "note": 73, "velocity": 110, "channel": 0}, {"type": "note_on", "time": 14, "note": 70, "velocity": 97, "channel": 0}, {"type": "note_off", "time": 62, "note": 70, "velocity": 97, "channel": 0}, {"type": "note_on", "time": 15, "note": 61, "velocity": 101, "channel": 0}, {"type": "note_off", "time": 63, "note": 61, "velocity": 101, "channel": 0}, {"type": "note_on", "time": 161, "note": 62, "velocity": 106, "channel": 0}, {"type": "note_off", "time": 45, "note": 62, "velocity": 106, "channel": 0}, {"type": "note_on", "time": 5, "note": 67, "velocity": 104, "channel": 0}, {"type": "note_off", "time": 46, "note": 67, "velocity": 104, "channel": 0}, {"type": "note_on", "time": 25, "note": 70, "velocity": 106, "channel": 0}, {"type": "note_off", "time": 62, "note": 70, "velocity": 106, "channel": 0}, {"type": "note_on", "time": 77, "note": 61, "velocity": 100, "channel": 0}, {"type": "note_off", "time": 78, "note": 61, "velocity": 100, "channel": 0}, {"type": "note_on", "time": 1, "note": 67, "velocity": 107, "channel": 0}, {"type": "note_off", "time": 36, "note": 67, "velocity": 107, "channel": 0}, {"type": "note_on", "time": 8, "note": 68, "velocity": 111, "channel": 0}, {"type": "note_off", "time": 40, "note": 68, "velocity": 111, "channel": 0}, {"type": "note_on", "time": 1, "note": 71, "velocity": 109, "channel": 0}, {"type": "note_off", "time": 46, "note": 71, "velocity": 109, "channel": 0}, {"type": "note_on", "time": 6, "note": 73, "velocity": 111, "channel": 0}, {"type": "note_off", "time": 21, "note": 73, "velocity": 111, "channel": 0}, {"type": "note_on", "time": 1, "note": 77, "velocity": 115, "channel": 0}, {"type": "note_off", "time": 18, "note": 77, "velocity": 115, "channel": 0}, {"type": "note_on", "time": 13, "note": 83, "velocity": 103, "channel": 0}, {"type": "note_off", "time": 48, "note": 83, "velocity": 103, "channel": 0}, {"type": "note_on", "time": 115, "note": 59, "velocity": 93, "channel": 0}, {"type": "note_off", "time": 70, "note": 59, "velocity": 93, "channel": 0}, {"type": "note_on", "time": 6, "note": 63, "velocity": 100, "channel": 0}, {"type": "note_off", "time": 43, "note": 63, "velocity": 100, "channel": 0}, {"type": "note_on", "time": 3, "note": 67, "velocity": 107, "channel": 0}, {"type": "note_off", "time": 50, "note": 67, "velocity": 107, "channel": 0}, {"type": "note_on", "time": 15, "note": 72, "velocity": 109, "channel": 0}, {"type": "note_off", "time": 26, "note": 72, "velocity": 109, "channel": 0}, {"type": "note_on", "time": 0, "note": 76, "velocity": 110, "channel": 0}, {"type": "note_off", "time": 52, "note": 76, "velocity": 110, "channel": 0}, {"type": "note_on", "time": 6, "note": 82, "velocity": 83, "channel": 0}, {"type": "note_off", "time": 33, "note": 82, "velocity": 83, "channel": 0}, {"type": "note_on", "time": 46, "note": 60, "velocity": 105, "channel": 0}, {"type": "note_off", "time": 97, "note": 60, "velocity": 105, "channel": 0}, {"type": "note_on", "time": 52, "note": 63, "velocity": 108, "channel": 0}, {"type": "note_off", "time": 63, "note": 63, "velocity": 108, "channel": 0}, {"type": "note_on", "time": 28, "note": 71, "velocity": 93, "channel": 0}, {"type": "note_off", "time": 48, "note": 71, "velocity": 93, "channel": 0}, {"type": "note_on", "time": 960, "note": 80, "velocity": 123, "channel": 0}, {"type": "note_off", "time": 104, "note": 80, "velocity": 123, "channel": 0}, {"type": "note_on", "time": 3, "note": 81, "velocity": 121, "channel": 0}, {"type": "note_off", "time": 65, "note": 81, "velocity": 121, "channel": 0}, {"type": "note_on", "time": 1, "note": 82, "velocity": 115, "channel": 0}, {"type": "note_off", "time": 40, "note": 82, "velocity": 115, "channel": 0}, {"type": "note_on", "time": 13, "note": 83, "velocity": 114, "channel": 0}, {"type": "note_off", "time": 63, "note": 83, "velocity": 114, "channel": 0}, {"type": "note_on", "time": 6, "note": 84, "velocity": 118, "channel": 0}, {"type": "note_off", "time": 68, "note": 84, "velocity": 118, "channel": 0}, {"type": "note_on", "time": 0, "note": 82, "velocity": 109, "channel": 0}, {"type": "note_off", "time": 182, "note": 82, "velocity": 109, "channel": 0}, {"type": "note_on", "time": 261, "note": 79, "velocity": 124, "channel": 0}, {"type": "note_off", "time": 77, "note": 79, "velocity": 124, "channel": 0}, {"type": "note_on", "time": 5, "note": 81, "velocity": 118, "channel": 0}, {"type": "note_off", "time": 53, "note": 81, "velocity": 118, "channel": 0}, {"type": "note_on", "time": 0, "note": 83, "velocity": 113, "channel": 0}, {"type": "note_off", "time": 152, "note": 83, "velocity": 113, "channel": 0}, {"type": "note_on", "time": 275, "note": 79, "velocity": 121, "channel": 0}, {"type": "note_off", "time": 112, "note": 79, "velocity": 121, "channel": 0}, {"type": "note_on", "time": 5, "note": 81, "velocity": 116, "channel": 0}, {"type": "note_off", "time": 67, "note": 81, "velocity": 116, "channel": 0}, {"type": "note_on", "time": 6, "note": 82, "velocity": 121, "channel": 0}, {"type": "note_off", "time": 110, "note": 82, "velocity": 121, "channel": 0}, {"type": "note_on", "time": 10, "note": 84, "velocity": 113, "channel": 0}, {"type": "note_off", "time": 70, "note": 84, "velocity": 113, "channel": 0}, {"type": "note_on", "time": 1, "note": 81, "velocity": 115, "channel": 0}, {"type": "note_off", "time": 100, "note": 81, "velocity": 115, "channel": 0}, {"type": "note_on", "time": 6, "note": 77, "velocity": 120, "channel": 0}, {"type": "note_off", "time": 72, "note": 77, "velocity": 120, "channel": 0}, {"type": "note_on", "time": 0, "note": 73, "velocity": 119, "channel": 0}, {"type": "note_off", "time": 122, "note": 73, "velocity": 119, "channel": 0}, {"type": "note_on", "time": 8, "note": 71, "velocity": 99, "channel": 0}, {"type": "note_off", "time": 57, "note": 71, "velocity": 99, "channel": 0}, {"type": "note_on", "time": 8, "note": 75, "velocity": 119, "channel": 0}, {"type": "note_off", "time": 119, "note": 75, "velocity": 119, "channel": 0}, {"type": "note_on", "time": 5, "note": 77, "velocity": 126, "channel": 0}, {"type": "note_off", "time": 78, "note": 77, "velocity": 126, "channel": 0}, {"type": "note_on", "time": 3, "note": 78, "velocity": 121, "channel": 0}, {"type": "note_off", "time": 117, "note": 78, "velocity": 121, "channel": 0}, {"type": "note_on", "time": 10, "note": 79, "velocity": 115, "channel": 0}, {"type": "note_off", "time": 57, "note": 79, "velocity": 115, "channel": 0}, {"type": "note_on", "time": 0, "note": 82, "velocity": 121, "channel": 0}, {"type": "note_off", "time": 112, "note": 82, "velocity": 121, "channel": 0}, {"type": "note_on", "time": 11, "note": 78, "velocity": 118, "channel": 0}, {"type": "note_off", "time": 72, "note": 78, "velocity": 118, "channel": 0}, {"type": "note_on", "time": 1, "note": 73, "velocity": 116, "channel": 0}, {"type": "note_off", "time": 124, "note": 73, "velocity": 116, "channel": 0}, {"type": "note_on", "time": 6, "note": 71, "velocity": 99, "channel": 0}, {"type": "note_off", "time": 43, "note": 71, "velocity": 99, "channel": 0}, {"type": "note_on", "time": 5, "note": 75, "velocity": 117, "channel": 0}, {"type": "note_off", "time": 167, "note": 75, "velocity": 117, "channel": 0}, {"type": "note_on", "time": 1, "note": 80, "velocity": 118, "channel": 0}, {"type": "note_off", "time": 149, "note": 80, "velocity": 118, "channel": 0}, {"type": "note_on", "time": 55, "note": 77, "velocity": 124, "channel": 0}, {"type": "note_off", "time": 117, "note": 77, "velocity": 124, "channel": 0}, {"type": "note_on", "time": 6, "note": 73, "velocity": 112, "channel": 0}, {"type": "note_off", "time": 90, "note": 73, "velocity": 112, "channel": 0}, {"type": "note_on", "time": 3, "note": 70, "velocity": 107, "channel": 0}, {"type": "note_off", "time": 120, "note": 70, "velocity": 107, "channel": 0}, {"type": "note_on", "time": 3, "note": 67, "velocity": 105, "channel": 0}, {"type": "note_off", "time": 38, "note": 67, "velocity": 105, "channel": 0}, {"type": "note_on", "time": 5, "note": 76, "velocity": 124, "channel": 0}, {"type": "note_off", "time": 122, "note": 76, "velocity": 124, "channel": 0}, {"type": "note_on", "time": 8, "note": 81, "velocity": 117, "channel": 0}, {"type": "note_off", "time": 72, "note": 81, "velocity": 117, "channel": 0}, {"type": "note_on", "time": 10, "note": 80, "velocity": 98, "channel": 0}, {"type": "note_off", "time": 57, "note": 80, "velocity": 98, "channel": 0}, {"type": "note_on", "time": 6, "note": 73, "velocity": 105, "channel": 0}, {"type": "note_off", "time": 53, "note": 73, "velocity": 105, "channel": 0}, {"type": "note_on", "time": 5, "note": 76, "velocity": 120, "channel": 0}, {"type": "note_off", "time": 75, "note": 76, "velocity": 120, "channel": 0}, {"type": "note_on", "time": 3, "note": 71, "velocity": 96, "channel": 0}, {"type": "note_off", "time": 85, "note": 71, "velocity": 96, "channel": 0}, {"type": "note_on", "time": 3, "note": 69, "velocity": 106, "channel": 0}, {"type": "note_off", "time": 72, "note": 69, "velocity": 106, "channel": 0}, {"type": "note_on", "time": 0, "note": 67, "velocity": 104, "channel": 0}, {"type": "note_off", "time": 55, "note": 67, "velocity": 104, "channel": 0}, {"type": "note_on", "time": 10, "note": 62, "velocity": 90, "channel": 0}, {"type": "note_off", "time": 130, "note": 62, "velocity": 90, "channel": 0}, {"type": "note_on", "time": 0, "note": 67, "velocity": 106, "channel": 0}, {"type": "note_off", "time": 151, "note": 67, "velocity": 106, "channel": 0}, {"type": "note_on", "time": 11, "note": 70, "velocity": 102, "channel": 0}, {"type": "note_off", "time": 72, "note": 70, "velocity": 102, "channel": 0}, {"type": "note_on", "time": 0, "note": 74, "velocity": 116, "channel": 0}, {"type": "note_off", "time": 85, "note": 74, "velocity": 116, "channel": 0}, {"type": "note_on", "time": 6, "note": 77, "velocity": 117, "channel": 0}, {"type": "note_off", "time": 134, "note": 77, "velocity": 117, "channel": 0}, {"type": "note_on", "time": 8, "note": 67, "velocity": 106, "channel": 0}, {"type": "note_off", "time": 122, "note": 67, "velocity": 106, "channel": 0}, {"type": "note_on", "time": 57, "note": 62, "velocity": 106, "channel": 0}, {"type": "note_off", "time": 92, "note": 62, "velocity": 106, "channel": 0}, {"type": "note_on", "time": 6, "note": 64, "velocity": 105, "channel": 0}, {"type": "note_off", "time": 182, "note": 64, "velocity": 105, "channel": 0}, {"type": "note_on", "time": 1, "note": 69, "velocity": 105, "channel": 0}, {"type": "note_off", "time": 174, "note": 69, "velocity": 105, "channel": 0}, {"type": "note_on", "time": 6, "note": 76, "velocity": 118, "channel": 0}, {"type": "note_off", "time": 179, "note": 76, "velocity": 118, "channel": 0}, {"type": "note_on", "time": 0, "note": 79, "velocity": 114, "channel": 0}, {"type": "note_off", "time": 157, "note": 79, "velocity": 114, "channel": 0}, {"type": "note_on", "time": 1, "note": 77, "velocity": 107, "channel": 0}, {"type": "note_off", "time": 300, "note": 77, "velocity": 107, "channel": 0}, {"type": "note_on", "time": 75, "note": 76, "velocity": 118, "channel": 0}, {"type": "note_off", "time": 68, "note": 76, "velocity": 118, "channel": 0}, {"type": "note_on", "time": 11, "note": 71, "velocity": 94, "channel": 0}, {"type": "note_off", "time": 100, "note": 71, "velocity": 94, "channel": 0}, {"type": "note_on", "time": 1, "note": 67, "velocity": 106, "channel": 0}, {"type": "note_off", "time": 92, "note": 67, "velocity": 106, "channel": 0}, {"type": "note_on", "time": 0, "note": 64, "velocity": 104, "channel": 0}, {"type": "note_off", "time": 114, "note": 64, "velocity": 104, "channel": 0}, {"type": "note_on", "time": 6, "note": 63, "velocity": 99, "channel": 0}, {"type": "note_off", "time": 379, "note": 63, "velocity": 99, "channel": 0}, {"type": "note_on", "time": 1148, "note": 60, "velocity": 110, "channel": 0}, {"type": "note_off", "time": 73, "note": 60, "velocity": 110, "channel": 0}, {"type": "note_on", "time": 1, "note": 63, "velocity": 111, "channel": 0}, {"type": "note_off", "time": 67, "note": 63, "velocity": 111, "channel": 0}, {"type": "note_on", "time": 5, "note": 65, "velocity": 115, "channel": 0}, {"type": "note_off", "time": 97, "note": 65, "velocity": 115, "channel": 0}, {"type": "note_on", "time": 5, "note": 67, "velocity": 120, "channel": 0}, {"type": "note_off", "time": 114, "note": 67, "velocity": 120, "channel": 0}, {"type": "note_on", "time": 10, "note": 63, "velocity": 115, "channel": 0}, {"type": "note_off", "time": 41, "note": 63, "velocity": 115, "channel": 0}, {"type": "note_on", "time": 6, "note": 65, "velocity": 103, "channel": 0}, {"type": "note_off", "time": 238, "note": 65, "velocity": 103, "channel": 0}, {"type": "note_on", "time": 456, "note": 60, "velocity": 111, "channel": 0}, {"type": "note_off", "time": 83, "note": 60, "velocity": 111, "channel": 0}, {"type": "note_on", "time": 97, "note": 61, "velocity": 104, "channel": 0}, {"type": "note_off", "time": 88, "note": 61, "velocity": 104, "channel": 0}, {"type": "note_on", "time": 77, "note": 60, "velocity": 105, "channel": 0}, {"type": "note_off", "time": 75, "note": 60, "velocity": 105, "channel": 0}, {"type": "note_on", "time": 14, "note": 58, "velocity": 102, "channel": 0}, {"type": "note_off", "time": 85, "note": 58, "velocity": 102, "channel": 0}, {"type": "note_on", "time": 19, "note": 58, "velocity": 103, "channel": 0}, {"type": "note_off", "time": 81, "note": 58, "velocity": 103, "channel": 0}, {"type": "note_on", "time": 9, "note": 58, "velocity": 107, "channel": 0}, {"type": "note_off", "time": 90, "note": 58, "velocity": 107, "channel": 0}, {"type": "note_on", "time": 14, "note": 58, "velocity": 107, "channel": 0}, {"type": "note_off", "time": 76, "note": 58, "velocity": 107, "channel": 0}, {"type": "note_on", "time": 19, "note": 58, "velocity": 106, "channel": 0}, {"type": "note_off", "time": 105, "note": 58, "velocity": 106, "channel": 0}, {"type": "note_on", "time": 1167, "note": 59, "velocity": 102, "channel": 0}, {"type": "note_off", "time": 67, "note": 59, "velocity": 102, "channel": 0}, {"type": "note_on", "time": 1, "note": 63, "velocity": 105, "channel": 0}, {"type": "note_off", "time": 93, "note": 63, "velocity": 105, "channel": 0}, {"type": "note_on", "time": 1, "note": 65, "velocity": 117, "channel": 0}, {"type": "note_off", "time": 90, "note": 65, "velocity": 117, "channel": 0}, {"type": "note_on", "time": 16, "note": 67, "velocity": 115, "channel": 0}, {"type": "note_off", "time": 93, "note": 67, "velocity": 115, "channel": 0}, {"type": "note_on", "time": 8, "note": 68, "velocity": 110, "channel": 0}, {"type": "note_off", "time": 68, "note": 68, "velocity": 110, "channel": 0}, {"type": "note_on", "time": 5, "note": 70, "velocity": 113, "channel": 0}, {"type": "note_off", "time": 87, "note": 70, "velocity": 113, "channel": 0}, {"type": "note_on", "time": 114, "note": 59, "velocity": 108, "channel": 0}, {"type": "note_off", "time": 159, "note": 59, "velocity": 108, "channel": 0}, {"type": "note_on", "time": 1, "note": 62, "velocity": 106, "channel": 0}, {"type": "note_off", "time": 162, "note": 62, "velocity": 106, "channel": 0}, {"type": "note_on", "time": 8, "note": 65, "velocity": 121, "channel": 0}, {"type": "note_off", "time": 177, "note": 65, "velocity": 121, "channel": 0}, {"type": "note_on", "time": 5, "note": 68, "velocity": 115, "channel": 0}, {"type": "note_off", "time": 193, "note": 68, "velocity": 115, "channel": 0}, {"type": "note_on", "time": 2, "note": 70, "velocity": 105, "channel": 0}, {"type": "note_off", "time": 169, "note": 70, "velocity": 105, "channel": 0}, {"type": "note_on", "time": 27, "note": 75, "velocity": 121, "channel": 0}, {"type": "note_off", "time": 161, "note": 75, "velocity": 121, "channel": 0}, {"type": "note_on", "time": 3, "note": 78, "velocity": 119, "channel": 0}, {"type": "note_off", "time": 199, "note": 78, "velocity": 119, "channel": 0}, {"type": "note_on", "time": 3, "note": 77, "velocity": 116, "channel": 0}, {"type": "note_off", "time": 167, "note": 77, "velocity": 116, "channel": 0}, {"type": "note_on", "time": 5, "note": 74, "velocity": 109, "channel": 0}, {"type": "note_off", "time": 182, "note": 74, "velocity": 109, "channel": 0}, {"type": "note_on", "time": 1, "note": 71, "velocity": 100, "channel": 0}, {"type": "note_off", "time": 184, "note": 71, "velocity": 100, "channel": 0}, {"type": "note_on", "time": 6, "note": 67, "velocity": 107, "channel": 0}, {"type": "note_off", "time": 194, "note": 67, "velocity": 107, "channel": 0}, {"type": "note_on", "time": 13, "note": 68, "velocity": 108, "channel": 0}, {"type": "note_off", "time": 154, "note": 68, "velocity": 108, "channel": 0}, {"type": "note_on", "time": 30, "note": 65, "velocity": 102, "channel": 0}, {"type": "note_off", "time": 57, "note": 65, "velocity": 102, "channel": 0}, {"type": "note_on", "time": 0, "note": 70, "velocity": 107, "channel": 0}, {"type": "note_off", "time": 115, "note": 70, "velocity": 107, "channel": 0}, {"type": "note_on", "time": 15, "note": 65, "velocity": 106, "channel": 0}, {"type": "note_off", "time": 93, "note": 65, "velocity": 106, "channel": 0}, {"type": "note_on", "time": 10, "note": 66, "velocity": 102, "channel": 0}, {"type": "note_off", "time": 88, "note": 66, "velocity": 102, "channel": 0}, {"type": "note_on", "time": 20, "note": 70, "velocity": 103, "channel": 0}, {"type": "note_off", "time": 73, "note": 70, "velocity": 103, "channel": 0}, {"type": "note_on", "time": 5, "note": 73, "velocity": 106, "channel": 0}, {"type": "note_off", "time": 93, "note": 73, "velocity": 106, "channel": 0}, {"type": "note_on", "time": 5, "note": 77, "velocity": 113, "channel": 0}, {"type": "note_off", "time": 80, "note": 77, "velocity": 113, "channel": 0}, {"type": "note_on", "time": 5, "note": 80, "velocity": 119, "channel": 0}, {"type": "note_off", "time": 112, "note": 80, "velocity": 119, "channel": 0}, {"type": "note_on", "time": 15, "note": 77, "velocity": 103, "channel": 0}, {"type": "note_off", "time": 55, "note": 77, "velocity": 103, "channel": 0}, {"type": "note_on", "time": 0, "note": 79, "velocity": 116, "channel": 0}, {"type": "note_off", "time": 112, "note": 79, "velocity": 116, "channel": 0}, {"type": "note_on", "time": 5, "note": 77, "velocity": 112, "channel": 0}, {"type": "note_off", "time": 68, "note": 77, "velocity": 112, "channel": 0}, {"type": "note_on", "time": 3, "note": 74, "velocity": 108, "channel": 0}, {"type": "note_off", "time": 105, "note": 74, "velocity": 108, "channel": 0}, {"type": "note_on", "time": 3, "note": 71, "velocity": 93, "channel": 0}, {"type": "note_off", "time": 127, "note": 71, "velocity": 93, "channel": 0}, {"type": "note_on", "time": 310, "note": 70, "velocity": 109, "channel": 0}, {"type": "note_off", "time": 80, "note": 70, "velocity": 109, "channel": 0}, {"type": "note_on", "time": 305, "note": 78, "velocity": 118, "channel": 0}, {"type": "note_off", "time": 122, "note": 78, "velocity": 118, "channel": 0}, {"type": "note_on", "time": 3, "note": 73, "velocity": 110, "channel": 0}, {"type": "note_off", "time": 73, "note": 73, "velocity": 110, "channel": 0}, {"type": "note_on", "time": 3, "note": 75, "velocity": 112, "channel": 0}, {"type": "note_off", "time": 68, "note": 75, "velocity": 112, "channel": 0}, {"type": "note_on", "time": 174, "note": 74, "velocity": 100, "channel": 0}, {"type": "note_off", "time": 129, "note": 74, "velocity": 100, "channel": 0}, {"type": "note_on", "time": 208, "note": 69, "velocity": 108, "channel": 0}, {"type": "note_off", "time": 129, "note": 69, "velocity": 108, "channel": 0}, {"type": "note_on", "time": 8, "note": 62, "velocity": 94, "channel": 0}, {"type": "note_off", "time": 75, "note": 62, "velocity": 94, "channel": 0}, {"type": "note_on", "time": 8, "note": 63, "velocity": 103, "channel": 0}, {"type": "note_off", "time": 120, "note": 63, "velocity": 103, "channel": 0}, {"type": "note_on", "time": 8, "note": 74, "velocity": 111, "channel": 0}, {"type": "note_off", "time": 99, "note": 74, "velocity": 111, "channel": 0}, {"type": "note_on", "time": 318, "note": 72, "velocity": 92, "channel": 0}, {"type": "note_off", "time": 124, "note": 72, "velocity": 92, "channel": 0}, {"type": "note_on", "time": 201, "note": 75, "velocity": 95, "channel": 0}, {"type": "note_off", "time": 119, "note": 75, "velocity": 95, "channel": 0}, {"type": "note_on", "time": 258, "note": 74, "velocity": 109, "channel": 0}, {"type": "note_off", "time": 95, "note": 74, "velocity": 109, "channel": 0}, {"type": "note_on", "time": 92, "note": 71, "velocity": 106, "channel": 0}, {"type": "note_off", "time": 62, "note": 71, "velocity": 106, "channel": 0}, {"type": "note_on", "time": 114, "note": 69, "velocity": 105, "channel": 0}, {"type": "note_off", "time": 77, "note": 69, "velocity": 105, "channel": 0}, {"type": "note_on", "time": 8, "note": 70, "velocity": 111, "channel": 0}, {"type": "note_off", "time": 73, "note": 70, "velocity": 111, "channel": 0}, {"type": "note_on", "time": 13, "note": 70, "velocity": 111, "channel": 0}, {"type": "note_off", "time": 72, "note": 70, "velocity": 111, "channel": 0}, {"type": "note_on", "time": 20, "note": 70, "velocity": 113, "channel": 0}, {"type": "note_off", "time": 85, "note": 70, "velocity": 113, "channel": 0}, {"type": "note_on", "time": 15, "note": 70, "velocity": 113, "channel": 0}, {"type": "note_off", "time": 82, "note": 70, "velocity": 113, "channel": 0}, {"type": "note_on", "time": 10, "note": 70, "velocity": 108, "channel": 0}, {"type": "note_off", "time": 82, "note": 70, "velocity": 108, "channel": 0}, {"type": "note_on", "time": 359, "note": 61, "velocity": 114, "channel": 0}, {"type": "note_off", "time": 43, "note": 61, "velocity": 114, "channel": 0}, {"type": "note_on", "time": 1, "note": 62, "velocity": 111, "channel": 0}, {"type": "note_off", "time": 63, "note": 62, "velocity": 111, "channel": 0}, {"type": "note_on", "time": 5, "note": 64, "velocity": 110, "channel": 0}, {"type": "note_off", "time": 18, "note": 64, "velocity": 110, "channel": 0}, {"type": "note_on", "time": 6, "note": 66, "velocity": 111, "channel": 0}, {"type": "note_off", "time": 40, "note": 66, "velocity": 111, "channel": 0}, {"type": "note_on", "time": 5, "note": 67, "velocity": 109, "channel": 0}, {"type": "note_off", "time": 33, "note": 67, "velocity": 109, "channel": 0}, {"type": "note_on", "time": 5, "note": 70, "velocity": 110, "channel": 0}, {"type": "note_off", "time": 33, "note": 70, "velocity": 110, "channel": 0}, {"type": "note_on", "time": 8, "note": 72, "velocity": 107, "channel": 0}, {"type": "note_off", "time": 33, "note": 72, "velocity": 107, "channel": 0}, {"type": "note_on", "time": 5, "note": 73, "velocity": 114, "channel": 0}, {"type": "note_off", "time": 26, "note": 73, "velocity": 114, "channel": 0}, {"type": "note_on", "time": 3, "note": 76, "velocity": 124, "channel": 0}, {"type": "note_off", "time": 68, "note": 76, "velocity": 124, "channel": 0}, {"type": "note_on", "time": 8, "note": 78, "velocity": 112, "channel": 0}, {"type": "note_off", "time": 13, "note": 78, "velocity": 112, "channel": 0}, {"type": "note_on", "time": 3, "note": 82, "velocity": 113, "channel": 0}, {"type": "note_off", "time": 50, "note": 82, "velocity": 113, "channel": 0}, {"type": "note_on", "time": 0, "note": 84, "velocity": 109, "channel": 0}, {"type": "note_off", "time": 85, "note": 84, "velocity": 109, "channel": 0}, {"type": "note_on", "time": 1, "note": 82, "velocity": 112, "channel": 0}, {"type": "note_on", "time": 73, "note": 79, "velocity": 107, "channel": 0}, {"type": "note_off", "time": 0, "note": 82, "velocity": 112, "channel": 0}, {"type": "note_off", "time": 33, "note": 79, "velocity": 107, "channel": 0}, {"type": "note_on", "time": 1, "note": 73, "velocity": 105, "channel": 0}, {"type": "note_off", "time": 38, "note": 73, "velocity": 105, "channel": 0}, {"type": "note_on", "time": 25, "note": 72, "velocity": 89, "channel": 0}, {"type": "note_off", "time": 48, "note": 72, "velocity": 89, "channel": 0}, {"type": "note_on", "time": 773, "note": 80, "velocity": 123, "channel": 0}, {"type": "note_off", "time": 105, "note": 80, "velocity": 123, "channel": 0}, {"type": "note_on", "time": 73, "note": 84, "velocity": 117, "channel": 0}, {"type": "note_off", "time": 87, "note": 84, "velocity": 117, "channel": 0}, {"type": "note_on", "time": 1, "note": 82, "velocity": 123, "channel": 0}, {"type": "note_off", "time": 95, "note": 82, "velocity": 123, "channel": 0}, {"type": "note_on", "time": 1, "note": 78, "velocity": 126, "channel": 0}, {"type": "note_off", "time": 90, "note": 78, "velocity": 126, "channel": 0}, {"type": "note_on", "time": 11, "note": 77, "velocity": 126, "channel": 0}, {"type": "note_off", "time": 70, "note": 77, "velocity": 126, "channel": 0}, {"type": "note_on", "time": 5, "note": 76, "velocity": 123, "channel": 0}, {"type": "note_off", "time": 80, "note": 76, "velocity": 123, "channel": 0}, {"type": "note_on", "time": 1, "note": 75, "velocity": 123, "channel": 0}, {"type": "note_on", "time": 109, "note": 77, "velocity": 125, "channel": 0}, {"type": "note_off", "time": 0, "note": 75, "velocity": 123, "channel": 0}, {"type": "note_off", "time": 87, "note": 77, "velocity": 125, "channel": 0}, {"type": "note_on", "time": 5, "note": 79, "velocity": 123, "channel": 0}, {"type": "note_off", "time": 93, "note": 79, "velocity": 123, "channel": 0}, {"type": "note_on", "time": 11, "note": 81, "velocity": 120, "channel": 0}, {"type": "note_off", "time": 82, "note": 81, "velocity": 120, "channel": 0}, {"type": "note_on", "time": 6, "note": 74, "velocity": 117, "channel": 0}, {"type": "note_off", "time": 110, "note": 74, "velocity": 117, "channel": 0}, {"type": "note_on", "time": 0, "note": 76, "velocity": 120, "channel": 0}, {"type": "note_off", "time": 92, "note": 76, "velocity": 120, "channel": 0}, {"type": "note_on", "time": 8, "note": 78, "velocity": 99, "channel": 0}, {"type": "note_off", "time": 85, "note": 78, "velocity": 99, "channel": 0}, {"type": "note_on", "time": 3, "note": 79, "velocity": 118, "channel": 0}, {"type": "note_off", "time": 93, "note": 79, "velocity": 118, "channel": 0}, {"type": "note_on", "time": 1, "note": 81, "velocity": 113, "channel": 0}, {"type": "note_off", "time": 90, "note": 81, "velocity": 113, "channel": 0}, {"type": "note_on", "time": 10, "note": 78, "velocity": 119, "channel": 0}, {"type": "note_off", "time": 62, "note": 78, "velocity": 119, "channel": 0}, {"type": "note_on", "time": 0, "note": 73, "velocity": 115, "channel": 0}, {"type": "note_off", "time": 117, "note": 73, "velocity": 115, "channel": 0}, {"type": "note_on", "time": 3, "note": 71, "velocity": 98, "channel": 0}, {"type": "note_off", "time": 40, "note": 71, "velocity": 98, "channel": 0}, {"type": "note_on", "time": 1, "note": 76, "velocity": 120, "channel": 0}, {"type": "note_off", "time": 122, "note": 76, "velocity": 120, "channel": 0}, {"type": "note_on", "time": 0, "note": 73, "velocity": 109, "channel": 0}, {"type": "note_off", "time": 50, "note": 73, "velocity": 109, "channel": 0}, {"type": "note_on", "time": 6, "note": 75, "velocity": 118, "channel": 0}, {"type": "note_off", "time": 114, "note": 75, "velocity": 118, "channel": 0}, {"type": "note_on", "time": 1, "note": 73, "velocity": 110, "channel": 0}, {"type": "note_off", "time": 82, "note": 73, "velocity": 110, "channel": 0}, {"type": "note_on", "time": 16, "note": 72, "velocity": 106, "channel": 0}, {"type": "note_off", "time": 53, "note": 72, "velocity": 106, "channel": 0}, {"type": "note_on", "time": 63, "note": 68, "velocity": 98, "channel": 0}, {"type": "note_off", "time": 78, "note": 68, "velocity": 98, "channel": 0}, {"type": "note_on", "time": 11, "note": 67, "velocity": 105, "channel": 0}, {"type": "note_off", "time": 132, "note": 67, "velocity": 105, "channel": 0}, {"type": "note_on", "time": 0, "note": 64, "velocity": 115, "channel": 0}, {"type": "note_off", "time": 50, "note": 64, "velocity": 115, "channel": 0}, {"type": "note_on", "time": 0, "note": 70, "velocity": 110, "channel": 0}, {"type": "note_off", "time": 100, "note": 70, "velocity": 110, "channel": 0}, {"type": "note_on", "time": 1, "note": 67, "velocity": 111, "channel": 0}, {"type": "note_off", "time": 67, "note": 67, "velocity": 111, "channel": 0}, {"type": "note_on", "time": 3, "note": 68, "velocity": 113, "channel": 0}, {"type": "note_off", "time": 97, "note": 68, "velocity": 113, "channel": 0}, {"type": "note_on", "time": 15, "note": 68, "velocity": 114, "channel": 0}, {"type": "note_off", "time": 99, "note": 68, "velocity": 114, "channel": 0}, {"type": "note_on", "time": 10, "note": 67, "velocity": 117, "channel": 0}, {"type": "note_off", "time": 88, "note": 67, "velocity": 117, "channel": 0}, {"type": "note_on", "time": 6, "note": 66, "velocity": 114, "channel": 0}, {"type": "note_off", "time": 72, "note": 66, "velocity": 114, "channel": 0}, {"type": "note_on", "time": 3, "note": 65, "velocity": 118, "channel": 0}, {"type": "note_off", "time": 93, "note": 65, "velocity": 118, "channel": 0}, {"type": "note_on", "time": 15, "note": 64, "velocity": 111, "channel": 0}, {"type": "note_off", "time": 70, "note": 64, "velocity": 111, "channel": 0}, {"type": "note_on", "time": 16, "note": 63, "velocity": 112, "channel": 0}, {"type": "note_off", "time": 92, "note": 63, "velocity": 112, "channel": 0}, {"type": "note_on", "time": 5, "note": 66, "velocity": 110, "channel": 0}, {"type": "note_off", "time": 90, "note": 66, "velocity": 110, "channel": 0}, {"type": "note_on", "time": 5, "note": 69, "velocity": 107, "channel": 0}, {"type": "note_off", "time": 85, "note": 69, "velocity": 107, "channel": 0}, {"type": "note_on", "time": 23, "note": 66, "velocity": 104, "channel": 0}, {"type": "note_off", "time": 55, "note": 66, "velocity": 104, "channel": 0}, {"type": "note_on", "time": 8, "note": 70, "velocity": 105, "channel": 0}, {"type": "note_off", "time": 109, "note": 70, "velocity": 105, "channel": 0}, {"type": "note_on", "time": 13, "note": 66, "velocity": 106, "channel": 0}, {"type": "note_off", "time": 85, "note": 66, "velocity": 106, "channel": 0}, {"type": "note_on", "time": 13, "note": 67, "velocity": 107, "channel": 0}, {"type": "note_off", "time": 53, "note": 67, "velocity": 107, "channel": 0}, {"type": "note_on", "time": 0, "note": 70, "velocity": 99, "channel": 0}, {"type": "note_off", "time": 55, "note": 70, "velocity": 99, "channel": 0}, {"type": "note_on", "time": 1, "note": 74, "velocity": 101, "channel": 0}, {"type": "note_off", "time": 41, "note": 74, "velocity": 101, "channel": 0}, {"type": "note_on", "time": 8, "note": 77, "velocity": 125, "channel": 0}, {"type": "note_off", "time": 78, "note": 77, "velocity": 125, "channel": 0}, {"type": "note_on", "time": 8, "note": 73, "velocity": 109, "channel": 0}, {"type": "note_off", "time": 85, "note": 73, "velocity": 109, "channel": 0}, {"type": "note_on", "time": 1, "note": 69, "velocity": 105, "channel": 0}, {"type": "note_off", "time": 92, "note": 69, "velocity": 105, "channel": 0}, {"type": "note_on", "time": 21, "note": 65, "velocity": 108, "channel": 0}, {"type": "note_off", "time": 70, "note": 65, "velocity": 108, "channel": 0}, {"type": "note_on", "time": 0, "note": 70, "velocity": 98, "channel": 0}, {"type": "note_off", "time": 107, "note": 70, "velocity": 98, "channel": 0}, {"type": "note_on", "time": 25, "note": 61, "velocity": 103, "channel": 0}, {"type": "note_off", "time": 60, "note": 61, "velocity": 103, "channel": 0}, {"type": "note_on", "time": 1, "note": 63, "velocity": 108, "channel": 0}, {"type": "note_off", "time": 102, "note": 63, "velocity": 108, "channel": 0}, {"type": "note_on", "time": 60, "note": 66, "velocity": 113, "channel": 0}, {"type": "note_off", "time": 40, "note": 66, "velocity": 113, "channel": 0}, {"type": "note_on", "time": 11, "note": 65, "velocity": 115, "channel": 0}, {"type": "note_off", "time": 93, "note": 65, "velocity": 115, "channel": 0}, {"type": "note_on", "time": 3, "note": 63, "velocity": 110, "channel": 0}, {"type": "note_off", "time": 67, "note": 63, "velocity": 110, "channel": 0}, {"type": "note_on", "time": 11, "note": 64, "velocity": 107, "channel": 0}, {"type": "note_off", "time": 109, "note": 64, "velocity": 107, "channel": 0}, {"type": "note_on", "time": 6, "note": 61, "velocity": 108, "channel": 0}, {"type": "note_off", "time": 85, "note": 61, "velocity": 108, "channel": 0}, {"type": "note_on", "time": 5, "note": 60, "velocity": 103, "channel": 0}, {"type": "note_off", "time": 83, "note": 60, "velocity": 103, "channel": 0}, {"type": "note_on", "time": 5, "note": 58, "velocity": 101, "channel": 0}, {"type": "note_off", "time": 82, "note": 58, "velocity": 101, "channel": 0}, {"type": "note_on", "time": 10, "note": 56, "velocity": 93, "channel": 0}, {"type": "note_off", "time": 125, "note": 56, "velocity": 93, "channel": 0}, {"type": "note_on", "time": 1, "note": 60, "velocity": 87, "channel": 0}, {"type": "note_off", "time": 41, "note": 60, "velocity": 87, "channel": 0}, {"type": "note_on", "time": 33, "note": 67, "velocity": 112, "channel": 0}, {"type": "note_off", "time": 102, "note": 67, "velocity": 112, "channel": 0}, {"type": "note_on", "time": 13, "note": 64, "velocity": 107, "channel": 0}, {"type": "note_off", "time": 55, "note": 64, "velocity": 107, "channel": 0}, {"type": "note_on", "time": 8, "note": 65, "velocity": 109, "channel": 0}, {"type": "note_off", "time": 83, "note": 65, "velocity": 109, "channel": 0}, {"type": "note_on", "time": 5, "note": 67, "velocity": 110, "channel": 0}, {"type": "note_off", "time": 120, "note": 67, "velocity": 110, "channel": 0}, {"type": "note_on", "time": 1, "note": 68, "velocity": 112, "channel": 0}, {"type": "note_off", "time": 78, "note": 68, "velocity": 112, "channel": 0}, {"type": "note_on", "time": 8, "note": 70, "velocity": 101, "channel": 0}, {"type": "note_off", "time": 82, "note": 70, "velocity": 101, "channel": 0}, {"type": "note_on", "time": 1, "note": 72, "velocity": 108, "channel": 0}, {"type": "note_off", "time": 109, "note": 72, "velocity": 108, "channel": 0}, {"type": "note_on", "time": 1, "note": 74, "velocity": 107, "channel": 0}, {"type": "note_off", "time": 55, "note": 74, "velocity": 107, "channel": 0}, {"type": "note_on", "time": 3, "note": 77, "velocity": 124, "channel": 0}, {"type": "note_off", "time": 119, "note": 77, "velocity": 124, "channel": 0}, {"type": "note_on", "time": 0, "note": 74, "velocity": 111, "channel": 0}, {"type": "note_off", "time": 53, "note": 74, "velocity": 111, "channel": 0}, {"type": "note_on", "time": 5, "note": 76, "velocity": 112, "channel": 0}, {"type": "note_off", "time": 36, "note": 76, "velocity": 112, "channel": 0}, {"type": "note_on", "time": 1, "note": 71, "velocity": 100, "channel": 0}, {"type": "note_off", "time": 129, "note": 71, "velocity": 100, "channel": 0}, {"type": "note_on", "time": 2, "note": 70, "velocity": 98, "channel": 0}, {"type": "note_off", "time": 270, "note": 70, "velocity": 98, "channel": 0}, {"type": "end_of_track", "time": 0}]]}