{"ticks_per_beat": 192, "tracks": [[{"type": "track_name", "name": "Melody", "time": 0}, {"type": "set_tempo", "tempo": 645161, "time": 0}, {"type": "key_signature", "key": "C", "time": 0}, {"type": "time_signature", "numerator": 4, "denominator": 4, "clocks_per_click": 24, "notated_32nd_notes_per_beat": 8, "time": 0}, {"type": "note_on", "time": 1129, "note": 60, "velocity": 112, "channel": 0}, {"type": "note_off", "time": 44, "note": 60, "velocity": 112, "channel": 0}, {"type": "note_on", "time": 32, "note": 52, "velocity": 106, "channel": 0}, {"type": "note_off", "time": 46, "note": 52, "velocity": 106, "channel": 0}, {"type": "note_on", "time": 4, "note": 55, "velocity": 105, "channel": 0}, {"type": "note_off", "time": 43, "note": 55, "velocity": 105, "channel": 0}, {"type": "note_on", "time": 9, "note": 59, "velocity": 103, "channel": 0}, {"type": "note_off", "time": 35, "note": 59, "velocity": 103, "channel": 0}, {"type": "note_on", "time": 15, "note": 62, "velocity": 114, "channel": 0}, {"type": "note_off", "time": 40, "note": 62, "velocity": 114, "channel": 0}, {"type": "note_on", "time": 3, "note": 60, "velocity": 110, "channel": 0}, {"type": "note_off", "time": 38, "note": 60, "velocity": 110, "channel": 0}, {"type": "note_on", "time": 2, "note": 59, "velocity": 102, "channel": 0}, {"type": "note_off", "time": 42, "note": 59, "velocity": 102, "channel": 0}, {"type": "note_on", "time": 6, "note": 57, "velocity": 97, "channel": 0}, {"type": "note_off", "time": 41, "note": 57, "velocity": 97, "channel": 0}, {"type": "note_on", "time": 2, "note": 52, "velocity": 97, "channel": 0}, {"type": "note_off", "time": 35, "note": 52, "velocity": 97, "channel": 0}, {"type": "note_on", "time": 0, "note": 53, "velocity": 110, "channel": 0}, {"type": "note_off", "time": 67, "note": 53, "velocity": 110, "channel": 0}, {"type": "note_on", "time": 0, "note": 55, "velocity": 98, "channel": 0}, {"type": "note_off", "time": 108, "note": 55, "velocity": 98, "channel": 0}, {"type": "note_on", "time": 19, "note": 52, "velocity": 103, "channel": 0}, {"type": "note_off", "time": 46, "note": 52, "velocity": 103, "channel": 0}, {"type": "note_on", "time": 5, "note": 55, "velocity": 112, "channel": 0}, {"type": "note_off", "time": 37, "note": 55, "velocity": 112, "channel": 0}, {"type": "note_on", "time": 8, "note": 54, "velocity": 105, "channel": 0}, {"type": "note_off", "time": 44, "note": 54, "velocity": 105, "channel": 0}, {"type": "note_on", "time": 11, "note": 50, "velocity": 99, "channel": 0}, {"type": "note_off", "time": 37, "note": 50, "velocity": 99, "channel": 0}, {"type": "note_on", "time": 2, "note": 52, "velocity": 102, "channel": 0}, {"type": "note_off", "time": 40, "note": 52, "velocity": 102, "channel": 0}, {"type": "note_on", "time": 9, "note": 54, "velocity": 106, "channel": 0}, {"type": "note_off", "time": 37, "note": 54, "velocity": 106, "channel": 0}, {"type": "note_on", "time": 6, "note": 55, "velocity": 108, "channel": 0}, {"type": "note_off", "time": 53, "note": 55, "velocity": 108, "channel": 0}, {"type": "note_on", "time": 0, "note": 57, "velocity": 107, "channel": 0}, {"type": "note_off", "time": 37, "note": 57, "velocity": 107, "channel": 0}, {"type": "note_on", "time": 3, "note": 59, "velocity": 105, "channel": 0}, {"type": "note_off", "time": 37, "note": 59, "velocity": 105, "channel": 0}, {"type": "note_on", "time": 10, "note": 60, "velocity": 115, "channel": 0}, {"type": "note_off", "time": 38, "note": 60, "velocity": 115, "channel": 0}, {"type": "note_on", "time": 6, "note": 62, "velocity": 117, "channel": 0}, {"type": "note_off", "time": 58, "note": 62, "velocity": 117, "channel": 0}, {"type": "note_on", "time": 10, "note": 57, "velocity": 93, "channel": 0}, {"type": "note_off", "time": 102, "note": 57, "velocity": 93, "channel": 0}, {"type": "note_on", "time": 218, "note": 57, "velocity": 112, "channel": 0}, {"type": "note_off", "time": 41, "note": 57, "velocity": 112, "channel": 0}, {"type": "note_on", "time": 13, "note": 50, "velocity": 106, "channel": 0}, {"type": "note_off", "time": 38, "note": 50, "velocity": 106, "channel": 0}, {"type": "note_on", "time": 3, "note": 52, "velocity": 108, "channel": 0}, {"type": "note_off", "time": 48, "note": 52, "velocity": 108, "channel": 0}, {"type": "note_on", "time": 3, "note": 53, "velocity": 108, "channel": 0}, {"type": "note_off", "time": 50, "note": 53, "velocity": 108, "channel": 0}, {"type": "note_on", "time": 9, "note": 55, "velocity": 111, "channel": 0}, {"type": "note_off", "time": 63, "note": 55, "velocity": 111, "channel": 0}, {"type": "note_on", "time": 10, "note": 57, "velocity": 114, "channel": 0}, {"type": "note_off", "time": 47, "note": 57, "velocity": 114, "channel": 0}, {"type": "note_on", "time": 7, "note": 51, "velocity": 112, "channel": 0}, {"type": "note_off", "time": 79, "note": 51, "velocity": 112, "channel": 0}, {"type": "note_on", "time": 6, "note": 48, "velocity": 95, "channel": 0}, {"type": "note_off", "time": 41, "note": 48, "velocity": 95, "channel": 0}, {"type": "note_on", "time": 8, "note": 49, "velocity": 102, "channel": 0}, {"type": "note_off", "time": 41, "note": 49, "velocity": 102, "channel": 0}, {"type": "note_on", "time": 2, "note": 51, "velocity": 115, "channel": 0}, {"type": "note_off", "time": 43, "note": 51, "velocity": 115, "channel": 0}, {"type": "note_on", "time": 3, "note": 53, "velocity": 116, "channel": 0}, {"type": "note_off", "time": 57, "note": 53, "velocity": 116, "channel": 0}, {"type": "note_on", "time": 4, "note": 56, "velocity": 103, "channel": 0}, {"type": "note_off", "time": 103, "note": 56, "velocity": 103, "channel": 0}, {"type": "note_on", "time": 12, "note": 52, "velocity": 108, "channel": 0}, {"type": "note_off", "time": 58, "note": 52, "velocity": 108, "channel": 0}, {"type": "note_on", "time": 3, "note": 55, "velocity": 108, "channel": 0}, {"type": "note_off", "time": 39, "note": 55, "velocity": 108, "channel": 0}, {"type": "note_on", "time": 4, "note": 59, "velocity": 110, "channel": 0}, {"type": "note_off", "time": 45, "note": 59, "velocity": 110, "channel": 0}, {"type": "note_on", "time": 6, "note": 62, "velocity": 121, "channel": 0}, {"type": "note_off", "time": 48, "note": 62, "velocity": 121, "channel": 0}, {"type": "note_on", "time": 6, "note": 61, "velocity": 120, "channel": 0}, {"type": "note_off", "time": 43, "note": 61, "velocity": 120, "channel": 0}, {"type": "note_on", "time": 0, "note": 58, "velocity": 107, "channel": 0}, {"type": "note_off", "time": 40, "note": 58, "velocity": 107, "channel": 0}, {"type": "note_on", "time": 12, "note": 53, "velocity": 112, "channel": 0}, {"type": "note_off", "time": 62, "note": 53, "velocity": 112, "channel": 0}, {"type": "note_on", "time": 25, "note": 60, "velocity": 116, "channel": 0}, {"type": "note_off", "time": 45, "note": 60, "velocity": 116, "channel": 0}, {"type": "note_on", "time": 11, "note": 57, "velocity": 109, "channel": 0}, {"type": "note_off", "time": 35, "note": 57, "velocity": 109, "channel": 0}, {"type": "note_on", "time": 6, "note": 53, "velocity": 113, "channel": 0}, {"type": "note_off", "time": 43, "note": 53, "velocity": 113, "channel": 0}, {"type": "note_on", "time": 0, "note": 50, "velocity": 111, "channel": 0}, {"type": "note_off", "time": 39, "note": 50, "velocity": 111, "channel": 0}, {"type": "note_on", "time": 2, "note": 47, "velocity": 97, "channel": 0}, {"type": "note_off", "time": 49, "note": 47, "velocity": 97, "channel": 0}, {"type": "note_on", "time": 6, "note": 50, "velocity": 90, "channel": 0}, {"type": "note_off", "time": 38, "note": 50, "velocity": 90, "channel": 0}, {"type": "note_on", "time": 14, "note": 53, "velocity": 115, "channel": 0}, {"type": "note_off", "time": 57, "note": 53, "velocity": 115, "channel": 0}, {"type": "note_on", "time": 1, "note": 56, "velocity": 109, "channel": 0}, {"type": "note_off", "time": 38, "note": 56, "velocity": 109, "channel": 0}, {"type": "note_on", "time": 6, "note": 55, "velocity": 114, "channel": 0}, {"type": "note_off", "time": 36, "note": 55, "velocity": 114, "channel": 0}, {"type": "note_on", "time": 4, "note": 52, "velocity": 107, "channel": 0}, {"type": "note_off", "time": 53, "note": 52, "velocity": 107, "channel": 0}, {"type": "note_on", "time": 1, "note": 55, "velocity": 114, "channel": 0}, {"type": "note_off", "time": 44, "note": 55, "velocity": 114, "channel": 0}, {"type": "note_on", "time": 6, "note": 59, "velocity": 112, "channel": 0}, {"type": "note_off", "time": 34, "note": 59, "velocity": 112, "channel": 0}, {"type": "note_on", "time": 6, "note": 62, "velocity": 124, "channel": 0}, {"type": "note_off", "time": 64, "note": 62, "velocity": 124, "channel": 0}, {"type": "note_on", "time": 6, "note": 60, "velocity": 105, "channel": 0}, {"type": "note_off", "time": 124, "note": 60, "velocity": 105, "channel": 0}, {"type": "note_on", "time": 155, "note": 63, "velocity": 122, "channel": 0}, {"type": "note_off", "time": 74, "note": 63, "velocity": 122, "channel": 0}, {"type": "note_on", "time": 5, "note": 60, "velocity": 122, "channel": 0}, {"type": "note_off", "time": 41, "note": 60, "velocity": 122, "channel": 0}, {"type": "note_on", "time": 7, "note": 55, "velocity": 111, "channel": 0}, {"type": "note_off", "time": 46, "note": 55, "velocity": 111, "channel": 0}, {"type": "note_on", "time": 3, "note": 51, "velocity": 108, "channel": 0}, {"type": "note_off", "time": 34, "note": 51, "velocity": 108, "channel": 0}, {"type": "note_on", "time": 2, "note": 54, "velocity": 103, "channel": 0}, {"type": "note_off", "time": 93, "note": 54, "velocity": 103, "channel": 0}, {"type": "note_on", "time": 3, "note": 50, "velocity": 105, "channel": 0}, {"type": "note_off", "time": 43, "note": 50, "velocity": 105, "channel": 0}, {"type": "note_on", "time": 6, "note": 54, "velocity": 108, "channel": 0}, {"type": "note_off", "time": 49, "note": 54, "velocity": 108, "channel": 0}, {"type": "note_on", "time": 15, "note": 57, "velocity": 118, "channel": 0}, {"type": "note_off", "time": 43, "note": 57, "velocity": 118, "channel": 0}, {"type": "note_on", "time": 25, "note": 58, "velocity": 116, "channel": 0}, {"type": "note_off", "time": 46, "note": 58, "velocity": 116, "channel": 0}, {"type": "note_on", "time": 3, "note": 55, "velocity": 118, "channel": 0}, {"type": "note_off", "time": 44, "note": 55, "velocity": 118, "channel": 0}, {"type": "note_on", "time": 8, "note": 51, "velocity": 113, "channel": 0}, {"type": "note_off", "time": 50, "note": 51, "velocity": 113, "channel": 0}, {"type": "note_on", "time": 2, "note": 49, "velocity": 90, "channel": 0}, {"type": "note_off", "time": 39, "note": 49, "velocity": 90, "channel": 0}, {"type": "note_on", "time": 5, "note": 50, "velocity": 105, "channel": 0}, {"type": "note_off", "time": 50, "note": 50, "velocity": 105, "channel": 0}, {"type": "note_on", "time": 6, "note": 52, "velocity": 110, "channel": 0}, {"type": "note_off", "time": 41, "note": 52, "velocity": 110, "channel": 0}, {"type": "note_on", "time": 6, "note": 54, "velocity": 109, "channel": 0}, {"type": "note_off", "time": 47, "note": 54, "velocity": 109, "channel": 0}, {"type": "note_on", "time": 4, "note": 55, "velocity": 115, "channel": 0}, {"type": "note_off", "time": 44, "note": 55, "velocity": 115, "channel": 0}, {"type": "note_on", "time": 6, "note": 57, "velocity": 118, "channel": 0}, {"type": "note_off", "time": 50, "note": 57, "velocity": 118, "channel": 0}, {"type": "note_on", "time": 2, "note": 54, "velocity": 104, "channel": 0}, {"type": "note_off", "time": 20, "note": 54, "velocity": 104, "channel": 0}, {"type": "note_on", "time": 4, "note": 55, "velocity": 105, "channel": 0}, {"type": "note_off", "time": 81, "note": 55, "velocity": 105, "channel": 0}, {"type": "note_on", "time": 12, "note": 53, "velocity": 99, "channel": 0}, {"type": "note_off", "time": 56, "note": 53, "velocity": 99, "channel": 0}, {"type": "note_on", "time": 4, "note": 55, "velocity": 115, "channel": 0}, {"type": "note_off", "time": 46, "note": 55, "velocity": 115, "channel": 0}, {"type": "note_on", "time": 1, "note": 59, "velocity": 113, "channel": 0}, {"type": "note_off", "time": 38, "note": 59, "velocity": 113, "channel": 0}, {"type": "note_on", "time": 5, "note": 62, "velocity": 124, "channel": 0}, {"type": "note_off", "time": 43, "note": 62, "velocity": 124, "channel": 0}, {"type": "note_on", "time": 8, "note": 60, "velocity": 124, "channel": 0}, {"type": "note_off", "time": 47, "note": 60, "velocity": 124, "channel": 0}, {"type": "note_on", "time": 6, "note": 61, "velocity": 123, "channel": 0}, {"type": "note_off", "time": 40, "note": 61, "velocity": 123, "channel": 0}, {"type": "note_on", "time": 6, "note": 63, "velocity": 127, "channel": 0}, {"type": "note_off", "time": 37, "note": 63, "velocity": 127, "channel": 0}, {"type": "note_on", "time": 6, "note": 65, "velocity": 121, "channel": 0}, {"type": "note_off", "time": 41, "note": 65, "velocity": 121, "channel": 0}, {"type": "note_on", "time": 4, "note": 66, "velocity": 121, "channel": 0}, {"type": "note_off", "time": 57, "note": 66, "velocity": 121, "channel": 0}, {"type": "note_on", "time": 3, "note": 68, "velocity": 119, "channel": 0}, {"type": "note_off", "time": 92, "note": 68, "velocity": 119, "channel": 0}, {"type": "note_on", "time": 175, "note": 67, "velocity": 122, "channel": 0}, {"type": "note_off", "time": 22, "note": 67, "velocity": 122, "channel": 0}, {"type": "note_on", "time": 3, "note": 66, "velocity": 121, "channel": 0}, {"type": "note_off", "time": 24, "note": 66, "velocity": 121, "channel": 0}, {"type": "note_on", "time": 2, "note": 64, "velocity": 126, "channel": 0}, {"type": "note_off", "time": 52, "note": 64, "velocity": 126, "channel": 0}, {"type": "note_on", "time": 3, "note": 62, "velocity": 126, "channel": 0}, {"type": "note_off", "time": 42, "note": 62, "velocity": 126, "channel": 0}, {"type": "note_on", "time": 1, "note": 60, "velocity": 122, "channel": 0}, {"type": "note_off", "time": 51, "note": 60, "velocity": 122, "channel": 0}, {"type": "note_on", "time": 3, "note": 59, "velocity": 111, "channel": 0}, {"type": "note_off", "time": 40, "note": 59, "velocity": 111, "channel": 0}, {"type": "note_on", "time": 9, "note": 57, "velocity": 114, "channel": 0}, {"type": "note_off", "time": 41, "note": 57, "velocity": 114, "channel": 0}, {"type": "note_on", "time": 3, "note": 55, "velocity": 111, "channel": 0}, {"type": "note_off", "time": 49, "note": 55, "velocity": 111, "channel": 0}, {"type": "note_on", "time": 6, "note": 53, "velocity": 117, "channel": 0}, {"type": "note_off", "time": 49, "note": 53, "velocity": 117, "channel": 0}, {"type": "note_on", "time": 6, "note": 52, "velocity": 104, "channel": 0}, {"type": "note_off", "time": 21, "note": 52, "velocity": 104, "channel": 0}, {"type": "note_on", "time": 8, "note": 55, "velocity": 114, "channel": 0}, {"type": "note_off", "time": 61, "note": 55, "velocity": 114, "channel": 0}, {"type": "note_on", "time": 1, "note": 50, "velocity": 103, "channel": 0}, {"type": "note_off", "time": 38, "note": 50, "velocity": 103, "channel": 0}, {"type": "note_on", "time": 2, "note": 51, "velocity": 116, "channel": 0}, {"type": "note_off", "time": 52, "note": 51, "velocity": 116, "channel": 0}, {"type": "note_on", "time": 6, "note": 54, "velocity": 112, "channel": 0}, {"type": "note_off", "time": 38, "note": 54, "velocity": 112, "channel": 0}, {"type": "note_on", "time": 6, "note": 57, "velocity": 116, "channel": 0}, {"type": "note_off", "time": 43, "note": 57, "velocity": 116, "channel": 0}, {"type": "note_on", "time": 1, "note": 62, "velocity": 123, "channel": 0}, {"type": "note_off", "time": 46, "note": 62, "velocity": 123, "channel": 0}, {"type": "note_on", "time": 3, "note": 60, "velocity": 121, "channel": 0}, {"type": "note_off", "time": 52, "note": 60, "velocity": 121, "channel": 0}, {"type": "note_on", "time": 4, "note": 55, "velocity": 102, "channel": 0}, {"type": "note_off", "time": 37, "note": 55, "velocity": 102, "channel": 0}, {"type": "note_on", "time": 8, "note": 57, "velocity": 110, "channel": 0}, {"type": "note_off", "time": 42, "note": 57, "velocity": 110, "channel": 0}, {"type": "note_on", "time": 4, "note": 58, "velocity": 110, "channel": 0}, {"type": "note_off", "time": 44, "note": 58, "velocity": 110, "channel": 0}, {"type": "note_on", "time": 5, "note": 60, "velocity": 121, "channel": 0}, {"type": "note_off", "time": 42, "note": 60, "velocity": 121, "channel": 0}, {"type": "note_on", "time": 5, "note": 62, "velocity": 123, "channel": 0}, {"type": "note_off", "time": 45, "note": 62, "velocity": 123, "channel": 0}, {"type": "note_on", "time": 4, "note": 58, "velocity": 113, "channel": 0}, {"type": "note_off", "time": 42, "note": 58, "velocity": 113, "channel": 0}, {"type": "note_on", "time": 2, "note": 55, "velocity": 110, "channel": 0}, {"type": "note_off", "time": 49, "note": 55, "velocity": 110, "channel": 0}, {"type": "note_on", "time": 4, "note": 53, "velocity": 105, "channel": 0}, {"type": "note_off", "time": 80, "note": 53, "velocity": 105, "channel": 0}, {"type": "note_on", "time": 14, "note": 50, "velocity": 105, "channel": 0}, {"type": "note_off", "time": 41, "note": 50, "velocity": 105, "channel": 0}, {"type": "note_on", "time": 0, "note": 53, "velocity": 117, "channel": 0}, {"type": "note_off", "time": 40, "note": 53, "velocity": 117, "channel": 0}, {"type": "note_on", "time": 3, "note": 52, "velocity": 106, "channel": 0}, {"type": "note_off", "time": 47, "note": 52, "velocity": 106, "channel": 0}, {"type": "note_on", "time": 5, "note": 61, "velocity": 122, "channel": 0}, {"type": "note_off", "time": 39, "note": 61, "velocity": 122, "channel": 0}, {"type": "note_on", "time": 2, "note": 60, "velocity": 118, "channel": 0}, {"type": "note_off", "time": 49, "note": 60, "velocity": 118, "channel": 0}, {"type": "note_on", "time": 9, "note": 58, "velocity": 108, "channel": 0}, {"type": "note_off", "time": 42, "note": 58, "velocity": 108, "channel": 0}, {"type": "note_on", "time": 5, "note": 57, "velocity": 99, "channel": 0}, {"type": "note_off", "time": 95, "note": 57, "velocity": 99, "channel": 0}, {"type": "note_on", "time": 185, "note": 57, "velocity": 117, "channel": 0}, {"type": "note_off", "time": 49, "note": 57, "velocity": 117, "channel": 0}, {"type": "note_on", "time": 6, "note": 58, "velocity": 117, "channel": 0}, {"type": "note_off", "time": 33, "note": 58, "velocity": 117, "channel": 0}, {"type": "note_on", "time": 4, "note": 60, "velocity": 120, "channel": 0}, {"type": "note_off", "time": 49, "note": 60, "velocity": 120, "channel": 0}, {"type": "note_on", "time": 6, "note": 62, "velocity": 124, "channel": 0}, {"type": "note_off", "time": 38, "note": 62, "velocity": 124, "channel": 0}, {"type": "note_on", "time": 1, "note": 64, "velocity": 123, "channel": 0}, {"type": "note_off", "time": 53, "note": 64, "velocity": 123, "channel": 0}, {"type": "note_on", "time": 4, "note": 65, "velocity": 123, "channel": 0}, {"type": "note_off", "time": 35, "note": 65, "velocity": 123, "channel": 0}, {"type": "note_on", "time": 6, "note": 67, "velocity": 122, "channel": 0}, {"type": "note_off", "time": 53, "note": 67, "velocity": 122, "channel": 0}, {"type": "note_on", "time": 1, "note": 64, "velocity": 117, "channel": 0}, {"type": "note_off", "time": 34, "note": 64, "velocity": 117, "channel": 0}, {"type": "note_on", "time": 4, "note": 65, "velocity": 120, "channel": 0}, {"type": "note_off", "time": 49, "note": 65, "velocity": 120, "channel": 0}, {"type": "note_on", "time": 7, "note": 67, "velocity": 120, "channel": 0}, {"type": "note_off", "time": 45, "note": 67, "velocity": 120, "channel": 0}, {"type": "note_on", "time": 36, "note": 67, "velocity": 121, "channel": 0}, {"type": "note_off", "time": 24, "note": 67, "velocity": 121, "channel": 0}, {"type": "note_on", "time": 1, "note": 69, "velocity": 119, "channel": 0}, {"type": "note_off", "time": 97, "note": 69, "velocity": 119, "channel": 0}, {"type": "note_on", "time": 0, "note": 67, "velocity": 119, "channel": 0}, {"type": "note_off", "time": 27, "note": 67, "velocity": 119, "channel": 0}, {"type": "note_on", "time": 1, "note": 66, "velocity": 115, "channel": 0}, {"type": "note_off", "time": 18, "note": 66, "velocity": 115, "channel": 0}, {"type": "note_on", "time": 4, "note": 64, "velocity": 110, "channel": 0}, {"type": "note_off", "time": 117, "note": 64, "velocity": 110, "channel": 0}, {"type": "note_on", "time": 136, "note": 57, "velocity": 111, "channel": 0}, {"type": "note_off", "time": 37, "note": 57, "velocity": 111, "channel": 0}, {"type": "note_on", "time": 3, "note": 60, "velocity": 116, "channel": 0}, {"type": "note_off", "time": 45, "note": 60, "velocity": 116, "channel": 0}, {"type": "note_on", "time": 4, "note": 64, "velocity": 124, "channel": 0}, {"type": "note_off", "time": 51, "note": 64, "velocity": 124, "channel": 0}, {"type": "note_on", "time": 5, "note": 67, "velocity": 115, "channel": 0}, {"type": "note_off", "time": 46, "note": 67, "velocity": 115, "channel": 0}, {"type": "note_on", "time": 3, "note": 71, "velocity": 118, "channel": 0}, {"type": "note_off", "time": 64, "note": 71, "velocity": 118, "channel": 0}, {"type": "note_on", "time": 4, "note": 69, "velocity": 109, "channel": 0}, {"type": "note_off", "time": 108, "note": 69, "velocity": 109, "channel": 0}, {"type": "note_on", "time": 10, "note": 62, "velocity": 118, "channel": 0}, {"type": "note_off", "time": 42, "note": 62, "velocity": 118, "channel": 0}, {"type": "note_on", "time": 7, "note": 64, "velocity": 117, "channel": 0}, {"type": "note_off", "time": 41, "note": 64, "velocity": 117, "channel": 0}, {"type": "note_on", "time": 3, "note": 65, "velocity": 121, "channel": 0}, {"type": "note_off", "time": 45, "note": 65, "velocity": 121, "channel": 0}, {"type": "note_on", "time": 7, "note": 67, "velocity": 118, "channel": 0}, {"type": "note_off", "time": 39, "note": 67, "velocity": 118, "channel": 0}, {"type": "note_on", "time": 3, "note": 69, "velocity": 117, "channel": 0}, {"type": "note_off", "time": 41, "note": 69, "velocity": 117, "channel": 0}, {"type": "note_on", "time": 3, "note": 64, "velocity": 121, "channel": 0}, {"type": "note_off", "time": 46, "note": 64, "velocity": 121, "channel": 0}, {"type": "note_on", "time": 21, "note": 68, "velocity": 117, "channel": 0}, {"type": "note_off", "time": 26, "note": 68, "velocity": 117, "channel": 0}, {"type": "note_on", "time": 2, "note": 67, "velocity": 119, "channel": 0}, {"type": "note_off", "time": 17, "note": 67, "velocity": 119, "channel": 0}, {"type": "note_on", "time": 3, "note": 65, "velocity": 119, "channel": 0}, {"type": "note_off", "time": 35, "note": 65, "velocity": 119, "channel": 0}, {"type": "note_on", "time": 3, "note": 63, "velocity": 124, "channel": 0}, {"type": "note_off", "time": 51, "note": 63, "velocity": 124, "channel": 0}, {"type": "note_on", "time": 4, "note": 61, "velocity": 122, "channel": 0}, {"type": "note_off", "time": 39, "note": 61, "velocity": 122, "channel": 0}, {"type": "note_on", "time": 4, "note": 60, "velocity": 118, "channel": 0}, {"type": "note_off", "time": 26, "note": 60, "velocity": 118, "channel": 0}, {"type": "note_on", "time": 1, "note": 61, "velocity": 115, "channel": 0}, {"type": "note_off", "time": 18, "note": 61, "velocity": 115, "channel": 0}, {"type": "note_on", "time": 6, "note": 58, "velocity": 109, "channel": 0}, {"type": "note_off", "time": 38, "note": 58, "velocity": 109, "channel": 0}, {"type": "note_on", "time": 3, "note": 56, "velocity": 107, "channel": 0}, {"type": "note_off", "time": 53, "note": 56, "velocity": 107, "channel": 0}, {"type": "note_on", "time": 3, "note": 54, "velocity": 105, "channel": 0}, {"type": "note_off", "time": 34, "note": 54, "velocity": 105, "channel": 0}, {"type": "note_on", "time": 5, "note": 55, "velocity": 101, "channel": 0}, {"type": "note_off", "time": 54, "note": 55, "velocity": 101, "channel": 0}, {"type": "note_on", "time": 307, "note": 66, "velocity": 121, "channel": 0}, {"type": "note_off", "time": 26, "note": 66, "velocity": 121, "channel": 0}, {"type": "note_on", "time": 2, "note": 67, "velocity": 113, "channel": 0}, {"type": "note_off", "time": 58, "note": 67, "velocity": 113, "channel": 0}, {"type": "note_on", "time": 20, "note": 67, "velocity": 115, "channel": 0}, {"type": "note_off", "time": 61, "note": 67, "velocity": 115, "channel": 0}, {"type": "note_on", "time": 10, "note": 67, "velocity": 115, "channel": 0}, {"type": "note_off", "time": 58, "note": 67, "velocity": 115, "channel": 0}, {"type": "note_on", "time": 17, "note": 60, "velocity": 88, "channel": 0}, {"type": "note_off", "time": 18, "note": 60, "velocity": 88, "channel": 0}, {"type": "note_on", "time": 2, "note": 72, "velocity": 115, "channel": 0}, {"type": "note_off", "time": 439, "note": 72, "velocity": 115, "channel": 0}, {"type": "note_on", "time": 12, "note": 67, "velocity": 117, "channel": 0}, {"type": "note_off", "time": 72, "note": 67, "velocity": 117, "channel": 0}, {"type": "note_on", "time": 38, "note": 71, "velocity": 115, "channel": 0}, {"type": "note_off", "time": 244, "note": 71, "velocity": 115, "channel": 0}, {"type": "note_on", "time": 21, "note": 67, "velocity": 114, "channel": 0}, {"type": "note_off", "time": 43, "note": 67, "velocity": 114, "channel": 0}, {"type": "note_on", "time": 18, "note": 71, "velocity": 111, "channel": 0}, {"type": "note_off", "time": 15, "note": 71, "velocity": 111, "channel": 0}, {"type": "note_on", "time": 2, "note": 69, "velocity": 117, "channel": 0}, {"type": "note_off", "time": 24, "note": 69, "velocity": 117, "channel": 0}, {"type": "note_on", "time": 3, "note": 65, "velocity": 117, "channel": 0}, {"type": "note_off", "time": 46, "note": 65, "velocity": 117, "channel": 0}, {"type": "note_on", "time": 3, "note": 62, "velocity": 123, "channel": 0}, {"type": "note_off", "time": 46, "note": 62, "velocity": 123, "channel": 0}, {"type": "note_on", "time": 3, "note": 60, "velocity": 105, "channel": 0}, {"type": "note_off", "time": 35, "note": 60, "velocity": 105, "channel": 0}, {"type": "note_on", "time": 3, "note": 67, "velocity": 119, "channel": 0}, {"type": "note_off", "time": 65, "note": 67, "velocity": 119, "channel": 0}, {"type": "note_on", "time": 2, "note": 65, "velocity": 115, "channel": 0}, {"type": "note_off", "time": 116, "note": 65, "velocity": 115, "channel": 0}, {"type": "note_on", "time": 205, "note": 63, "velocity": 119, "channel": 0}, {"type": "note_off", "time": 55, "note": 63, "velocity": 119, "channel": 0}, {"type": "note_on", "time": 32, "note": 67, "velocity": 120, "channel": 0}, {"type": "note_off", "time": 61, "note": 67, "velocity": 120, "channel": 0}, {"type": "note_on", "time": 12, "note": 72, "velocity": 117, "channel": 0}, {"type": "note_off", "time": 56, "note": 72, "velocity": 117, "channel": 0}, {"type": "note_on", "time": 30, "note": 72, "velocity": 116, "channel": 0}, {"type": "note_off", "time": 58, "note": 72, "velocity": 116, "channel": 0}, {"type": "note_on", "time": 19, "note": 72, "velocity": 116, "channel": 0}, {"type": "note_off", "time": 54, "note": 72, "velocity": 116, "channel": 0}, {"type": "note_on", "time": 15, "note": 69, "velocity": 119, "channel": 0}, {"type": "note_off", "time": 32, "note": 69, "velocity": 119, "channel": 0}, {"type": "note_on", "time": 0, "note": 70, "velocity": 112, "channel": 0}, {"type": "note_off", "time": 35, "note": 70, "velocity": 112, "channel": 0}, {"type": "note_on", "time": 4, "note": 67, "velocity": 113, "channel": 0}, {"type": "note_off", "time": 112, "note": 67, "velocity": 113, "channel": 0}, {"type": "note_on", "time": 315, "note": 67, "velocity": 96, "channel": 0}, {"type": "note_off", "time": 27, "note": 67, "velocity": 96, "channel": 0}, {"type": "note_on", "time": 24, "note": 70, "velocity": 118, "channel": 0}, {"type": "note_off", "time": 40, "note": 70, "velocity": 118, "channel": 0}, {"type": "note_on", "time": 10, "note": 70, "velocity": 116, "channel": 0}, {"type": "note_off", "time": 34, "note": 70, "velocity": 116, "channel": 0}, {"type": "note_on", "time": 9, "note": 69, "velocity": 121, "channel": 0}, {"type": "note_off", "time": 50, "note": 69, "velocity": 121, "channel": 0}, {"type": "note_on", "time": 5, "note": 70, "velocity": 99, "channel": 0}, {"type": "note_off", "time": 37, "note": 70, "velocity": 99, "channel": 0}, {"type": "note_on", "time": 21, "note": 72, "velocity": 114, "channel": 0}, {"type": "note_off", "time": 56, "note": 72, "velocity": 114, "channel": 0}, {"type": "note_on", "time": 13, "note": 67, "velocity": 113, "channel": 0}, {"type": "note_off", "time": 41, "note": 67, "velocity": 113, "channel": 0}, {"type": "note_on", "time": 26, "note": 69, "velocity": 119, "channel": 0}, {"type": "note_off", "time": 16, "note": 69, "velocity": 119, "channel": 0}, {"type": "note_on", "time": 2, "note": 70, "velocity": 112, "channel": 0}, {"type": "note_off", "time": 38, "note": 70, "velocity": 112, "channel": 0}, {"type": "note_on", "time": 43, "note": 67, "velocity": 112, "channel": 0}, {"type": "note_off", "time": 70, "note": 67, "velocity": 112, "channel": 0}, {"type": "note_on", "time": 228, "note": 69, "velocity": 113, "channel": 0}, {"type": "note_off", "time": 52, "note": 69, "velocity": 113, "channel": 0}, {"type": "note_on", "time": 1, "note": 70, "velocity": 114, "channel": 0}, {"type": "note_off", "time": 15, "note": 70, "velocity": 114, "channel": 0}, {"type": "note_on", "time": 1, "note": 69, "velocity": 112, "channel": 0}, {"type": "note_off", "time": 23, "note": 69, "velocity": 112, "channel": 0}, {"type": "note_on", "time": 1, "note": 66, "velocity": 111, "channel": 0}, {"type": "note_off", "time": 53, "note": 66, "velocity": 111, "channel": 0}, {"type": "note_on", "time": 1, "note": 67, "velocity": 114, "channel": 0}, {"type": "note_off", "time": 38, "note": 67, "velocity": 114, "channel": 0}, {"type": "note_on", "time": 3, "note": 69, "velocity": 112, "channel": 0}, {"type": "note_off", "time": 50, "note": 69, "velocity": 112, "channel": 0}, {"type": "note_on", "time": 3, "note": 66, "velocity": 116, "channel": 0}, {"type": "note_off", "time": 41, "note": 66, "velocity": 116, "channel": 0}, {"type": "note_on", "time": 0, "note": 62, "velocity": 94, "channel": 0}, {"type": "note_off", "time": 51, "note": 62, "velocity": 94, "channel": 0}, {"type": "note_on", "time": 4, "note": 64, "velocity": 114, "channel": 0}, {"type": "note_off", "time": 42, "note": 64, "velocity": 114, "channel": 0}, {"type": "note_on", "time": 0, "note": 66, "velocity": 115, "channel": 0}, {"type": "note_off", "time": 54, "note": 66, "velocity": 115, "channel": 0}, {"type": "note_on", "time": 2, "note": 62, "velocity": 108, "channel": 0}, {"type": "note_off", "time": 79, "note": 62, "velocity": 108, "channel": 0}, {"type": "note_on", "time": 230, "note": 62, "velocity": 114, "channel": 0}, {"type": "note_off", "time": 39, "note": 62, "velocity": 114, "channel": 0}, {"type": "note_on", "time": 1, "note": 64, "velocity": 118, "channel": 0}, {"type": "note_off", "time": 28, "note": 64, "velocity": 118, "channel": 0}, {"type": "note_on", "time": 4, "note": 65, "velocity": 103, "channel": 0}, {"type": "note_off", "time": 26, "note": 65, "velocity": 103, "channel": 0}, {"type": "note_on", "time": 6, "note": 69, "velocity": 116, "channel": 0}, {"type": "note_off", "time": 29, "note": 69, "velocity": 116, "channel": 0}, {"type": "note_on", "time": 3, "note": 64, "velocity": 114, "channel": 0}, {"type": "note_off", "time": 40, "note": 64, "velocity": 114, "channel": 0}, {"type": "note_on", "time": 3, "note": 62, "velocity": 102, "channel": 0}, {"type": "note_off", "time": 27, "note": 62, "velocity": 102, "channel": 0}, {"type": "note_on", "time": 6, "note": 68, "velocity": 113, "channel": 0}, {"type": "note_off", "time": 30, "note": 68, "velocity": 113, "channel": 0}, {"type": "note_on", "time": 0, "note": 64, "velocity": 118, "channel": 0}, {"type": "note_off", "time": 17, "note": 64, "velocity": 118, "channel": 0}, {"type": "note_on", "time": 4, "note": 62, "velocity": 114, "channel": 0}, {"type": "note_off", "time": 20, "note": 62, "velocity": 114, "channel": 0}, {"type": "note_on", "time": 3, "note": 60, "velocity": 94, "channel": 0}, {"type": "note_off", "time": 16, "note": 60, "velocity": 94, "channel": 0}, {"type": "note_on", "time": 6, "note": 67, "velocity": 115, "channel": 0}, {"type": "note_off", "time": 28, "note": 67, "velocity": 115, "channel": 0}, {"type": "note_on", "time": 0, "note": 64, "velocity": 109, "channel": 0}, {"type": "note_off", "time": 35, "note": 64, "velocity": 109, "channel": 0}, {"type": "note_on", "time": 2, "note": 65, "velocity": 106, "channel": 0}, {"type": "note_off", "time": 15, "note": 65, "velocity": 106, "channel": 0}, {"type": "note_on", "time": 2, "note": 67, "velocity": 112, "channel": 0}, {"type": "note_off", "time": 11, "note": 67, "velocity": 112, "channel": 0}, {"type": "note_on", "time": 0, "note": 64, "velocity": 120, "channel": 0}, {"type": "note_off", "time": 38, "note": 64, "velocity": 120, "channel": 0}, {"type": "note_on", "time": 142, "note": 62, "velocity": 114, "channel": 0}, {"type": "note_off", "time": 37, "note": 62, "velocity": 114, "channel": 0}, {"type": "note_on", "time": 6, "note": 60, "velocity": 116, "channel": 0}, {"type": "note_off", "time": 40, "note": 60, "velocity": 116, "channel": 0}, {"type": "note_on", "time": 8, "note": 59, "velocity": 105, "channel": 0}, {"type": "note_off", "time": 41, "note": 59, "velocity": 105, "channel": 0}, {"type": "note_on", "time": 9, "note": 57, "velocity": 108, "channel": 0}, {"type": "note_off", "time": 44, "note": 57, "velocity": 108, "channel": 0}, {"type": "note_on", "time": 7, "note": 55, "velocity": 95, "channel": 0}, {"type": "note_off", "time": 31, "note": 55, "velocity": 95, "channel": 0}, {"type": "note_on", "time": 19, "note": 67, "velocity": 116, "channel": 0}, {"type": "note_off", "time": 41, "note": 67, "velocity": 116, "channel": 0}, {"type": "note_on", "time": 4, "note": 65, "velocity": 119, "channel": 0}, {"type": "note_off", "time": 37, "note": 65, "velocity": 119, "channel": 0}, {"type": "note_on", "time": 3, "note": 63, "velocity": 121, "channel": 0}, {"type": "note_off", "time": 49, "note": 63, "velocity": 121, "channel": 0}, {"type": "note_on", "time": 6, "note": 64, "velocity": 122, "channel": 0}, {"type": "note_off", "time": 47, "note": 64, "velocity": 122, "channel": 0}, {"type": "note_on", "time": 4, "note": 65, "velocity": 117, "channel": 0}, {"type": "note_off", "time": 41, "note": 65, "velocity": 117, "channel": 0}, {"type": "note_on", "time": 5, "note": 61, "velocity": 116, "channel": 0}, {"type": "note_off", "time": 51, "note": 61, "velocity": 116, "channel": 0}, {"type": "note_on", "time": 3, "note": 58, "velocity": 103, "channel": 0}, {"type": "note_off", "time": 21, "note": 58, "velocity": 103, "channel": 0}, {"type": "note_on", "time": 12, "note": 63, "velocity": 122, "channel": 0}, {"type": "note_off", "time": 57, "note": 63, "velocity": 122, "channel": 0}, {"type": "note_on", "time": 5, "note": 60, "velocity": 109, "channel": 0}, {"type": "note_off", "time": 25, "note": 60, "velocity": 109, "channel": 0}, {"type": "note_on", "time": 2, "note": 61, "velocity": 116, "channel": 0}, {"type": "note_off", "time": 56, "note": 61, "velocity": 116, "channel": 0}, {"type": "note_on", "time": 2, "note": 63, "velocity": 121, "channel": 0}, {"type": "note_off", "time": 47, "note": 63, "velocity": 121, "channel": 0}, {"type": "note_on", "time": 5, "note": 62, "velocity": 121, "channel": 0}, {"type": "note_off", "time": 50, "note": 62, "velocity": 121, "channel": 0}, {"type": "note_on", "time": 4, "note": 57, "velocity": 106, "channel": 0}, {"type": "note_off", "time": 41, "note": 57, "velocity": 106, "channel": 0}, {"type": "note_on", "time": 4, "note": 53, "velocity": 103, "channel": 0}, {"type": "note_off", "time": 71, "note": 53, "velocity": 103, "channel": 0}, {"type": "note_on", "time": 17, "note": 62, "velocity": 119, "channel": 0}, {"type": "note_off", "time": 60, "note": 62, "velocity": 119, "channel": 0}, {"type": "note_on", "time": 4, "note": 59, "velocity": 97, "channel": 0}, {"type": "note_off", "time": 24, "note": 59, "velocity": 97, "channel": 0}, {"type": "note_on", "time": 7, "note": 60, "velocity": 112, "channel": 0}, {"type": "note_off", "time": 51, "note": 60, "velocity": 112, "channel": 0}, {"type": "note_on", "time": 3, "note": 62, "velocity": 121, "channel": 0}, {"type": "note_off", "time": 44, "note": 62, "velocity": 121, "channel": 0}, {"type": "note_on", "time": 2, "note": 55, "velocity": 104, "channel": 0}, {"type": "note_off", "time": 62, "note": 55, "velocity": 104, "channel": 0}, {"type": "note_on", "time": 4, "note": 52, "velocity": 96, "channel": 0}, {"type": "note_off", "time": 117, "note": 52, "velocity": 96, "channel": 0}, {"type": "note_on", "time": 528, "note": 57, "velocity": 104, "channel": 0}, {"type": "note_off", "time": 28, "note": 57, "velocity": 104, "channel": 0}, {"type": "note_on", "time": 12, "note": 60, "velocity": 122, "channel": 0}, {"type": "note_off", "time": 43, "note": 60, "velocity": 122, "channel": 0}, {"type": "note_on", "time": 6, "note": 64, "velocity": 117, "channel": 0}, {"type": "note_off", "time": 55, "note": 64, "velocity": 117, "channel": 0}, {"type": "note_on", "time": 6, "note": 67, "velocity": 121, "channel": 0}, {"type": "note_off", "time": 62, "note": 67, "velocity": 121, "channel": 0}, {"type": "note_on", "time": 5, "note": 71, "velocity": 106, "channel": 0}, {"type": "note_off", "time": 52, "note": 71, "velocity": 106, "channel": 0}, {"type": "note_on", "time": 6, "note": 68, "velocity": 121, "channel": 0}, {"type": "note_off", "time": 104, "note": 68, "velocity": 121, "channel": 0}, {"type": "note_on", "time": 178, "note": 67, "velocity": 112, "channel": 0}, {"type": "note_off", "time": 19, "note": 67, "velocity": 112, "channel": 0}, {"type": "note_on", "time": 3, "note": 66, "velocity": 116, "channel": 0}, {"type": "note_off", "time": 21, "note": 66, "velocity": 116, "channel": 0}, {"type": "note_on", "time": 5, "note": 65, "velocity": 120, "channel": 0}, {"type": "note_off", "time": 63, "note": 65, "velocity": 120, "channel": 0}, {"type": "note_on", "time": 2, "note": 64, "velocity": 121, "channel": 0}, {"type": "note_off", "time": 30, "note": 64, "velocity": 121, "channel": 0}, {"type": "note_on", "time": 4, "note": 62, "velocity": 124, "channel": 0}, {"type": "note_off", "time": 50, "note": 62, "velocity": 124, "channel": 0}, {"type": "note_on", "time": 3, "note": 60, "velocity": 120, "channel": 0}, {"type": "note_off", "time": 50, "note": 60, "velocity": 120, "channel": 0}, {"type": "note_on", "time": 2, "note": 59, "velocity": 108, "channel": 0}, {"type": "note_off", "time": 44, "note": 59, "velocity": 108, "channel": 0}, {"type": "note_on", "time": 5, "note": 57, "velocity": 113, "channel": 0}, {"type": "note_off", "time": 41, "note": 57, "velocity": 113, "channel": 0}, {"type": "note_on", "time": 4, "note": 55, "velocity": 109, "channel": 0}, {"type": "note_off", "time": 49, "note": 55, "velocity": 109, "channel": 0}, {"type": "note_on", "time": 8, "note": 53, "velocity": 113, "channel": 0}, {"type": "note_off", "time": 47, "note": 53, "velocity": 113, "channel": 0}, {"type": "note_on", "time": 1, "note": 52, "velocity": 107, "channel": 0}, {"type": "note_off", "time": 39, "note": 52, "velocity": 107, "channel": 0}, {"type": "note_on", "time": 5, "note": 50, "velocity": 112, "channel": 0}, {"type": "note_off", "time": 56, "note": 50, "velocity": 112, "channel": 0}, {"type": "note_on", "time": 4, "note": 47, "velocity": 98, "channel": 0}, {"type": "note_off", "time": 30, "note": 47, "velocity": 98, "channel": 0}, {"type": "note_on", "time": 9, "note": 49, "velocity": 101, "channel": 0}, {"type": "note_off", "time": 43, "note": 49, "velocity": 101, "channel": 0}, {"type": "note_on", "time": 4, "note": 53, "velocity": 115, "channel": 0}, {"type": "note_off", "time": 54, "note": 53, "velocity": 115, "channel": 0}, {"type": "note_on", "time": 4, "note": 56, "velocity": 99, "channel": 0}, {"type": "note_off", "time": 26, "note": 56, "velocity": 99, "channel": 0}, {"type": "note_on", "time": 6, "note": 63, "velocity": 122, "channel": 0}, {"type": "note_off", "time": 51, "note": 63, "velocity": 122, "channel": 0}, {"type": "note_on", "time": 3, "note": 61, "velocity": 120, "channel": 0}, {"type": "note_off", "time": 36, "note": 61, "velocity": 120, "channel": 0}, {"type": "note_on", "time": 9, "note": 60, "velocity": 125, "channel": 0}, {"type": "note_off", "time": 55, "note": 60, "velocity": 125, "channel": 0}, {"type": "note_on", "time": 4, "note": 55, "velocity": 99, "channel": 0}, {"type": "note_off", "time": 32, "note": 55, "velocity": 99, "channel": 0}, {"type": "note_on", "time": 4, "note": 57, "velocity": 106, "channel": 0}, {"type": "note_off", "time": 55, "note": 57, "velocity": 106, "channel": 0}, {"type": "note_on", "time": 4, "note": 58, "velocity": 106, "channel": 0}, {"type": "note_off", "time": 77, "note": 58, "velocity": 106, "channel": 0}, {"type": "note_on", "time": 498, "note": 67, "velocity": 123, "channel": 0}, {"type": "note_off", "time": 67, "note": 67, "velocity": 123, "channel": 0}, {"type": "note_on", "time": 28, "note": 69, "velocity": 126, "channel": 0}, {"type": "note_off", "time": 64, "note": 69, "velocity": 126, "channel": 0}, {"type": "note_on", "time": 29, "note": 70, "velocity": 118, "channel": 0}, {"type": "note_off", "time": 60, "note": 70, "velocity": 118, "channel": 0}, {"type": "note_on", "time": 24, "note": 72, "velocity": 111, "channel": 0}, {"type": "note_off", "time": 69, "note": 72, "velocity": 111, "channel": 0}, {"type": "note_on", "time": 9, "note": 73, "velocity": 123, "channel": 0}, {"type": "note_off", "time": 74, "note": 73, "velocity": 123, "channel": 0}, {"type": "note_on", "time": 4, "note": 70, "velocity": 118, "channel": 0}, {"type": "note_off", "time": 13, "note": 70, "velocity": 118, "channel": 0}, {"type": "note_on", "time": 2, "note": 67, "velocity": 116, "channel": 0}, {"type": "note_off", "time": 16, "note": 67, "velocity": 116, "channel": 0}, {"type": "note_on", "time": 4, "note": 61, "velocity": 109, "channel": 0}, {"type": "note_off", "time": 40, "note": 61, "velocity": 109, "channel": 0}, {"type": "note_on", "time": 24, "note": 72, "velocity": 114, "channel": 0}, {"type": "note_off", "time": 140, "note": 72, "velocity": 114, "channel": 0}, {"type": "note_on", "time": 41, "note": 70, "velocity": 118, "channel": 0}, {"type": "note_off", "time": 49, "note": 70, "velocity": 118, "channel": 0}, {"type": "note_on", "time": 43, "note": 67, "velocity": 123, "channel": 0}, {"type": "note_off", "time": 28, "note": 67, "velocity": 123, "channel": 0}, {"type": "note_on", "time": 1, "note": 69, "velocity": 121, "channel": 0}, {"type": "note_off", "time": 188, "note": 69, "velocity": 121, "channel": 0}, {"type": "note_on", "time": 7, "note": 72, "velocity": 115, "channel": 0}, {"type": "note_off", "time": 58, "note": 72, "velocity": 115, "channel": 0}, {"type": "note_on", "time": 2, "note": 67, "velocity": 100, "channel": 0}, {"type": "note_off", "time": 135, "note": 67, "velocity": 100, "channel": 0}, {"type": "note_on", "time": 219, "note": 67, "velocity": 119, "channel": 0}, {"type": "note_off", "time": 23, "note": 67, "velocity": 119, "channel": 0}, {"type": "note_on", "time": 6, "note": 66, "velocity": 115, "channel": 0}, {"type": "note_off", "time": 25, "note": 66, "velocity": 115, "channel": 0}, {"type": "note_on", "time": 3, "note": 64, "velocity": 122, "channel": 0}, {"type": "note_off", "time": 49, "note": 64, "velocity": 122, "channel": 0}, {"type": "note_on", "time": 1, "note": 62, "velocity": 122, "channel": 0}, {"type": "note_off", "time": 64, "note": 62, "velocity": 122, "channel": 0}, {"type": "note_on", "time": 167, "note": 59, "velocity": 110, "channel": 0}, {"type": "note_off", "time": 38, "note": 59, "velocity": 110, "channel": 0}, {"type": "note_on", "time": 4, "note": 64, "velocity": 120, "channel": 0}, {"type": "note_off", "time": 41, "note": 64, "velocity": 120, "channel": 0}, {"type": "note_on", "time": 4, "note": 67, "velocity": 121, "channel": 0}, {"type": "note_off", "time": 48, "note": 67, "velocity": 121, "channel": 0}, {"type": "note_on", "time": 3, "note": 71, "velocity": 116, "channel": 0}, {"type": "note_off", "time": 36, "note": 71, "velocity": 116, "channel": 0}, {"type": "note_on", "time": 6, "note": 69, "velocity": 119, "channel": 0}, {"type": "note_off", "time": 45, "note": 69, "velocity": 119, "channel": 0}, {"type": "note_on", "time": 11, "note": 59, "velocity": 99, "channel": 0}, {"type": "note_off", "time": 29, "note": 59, "velocity": 99, "channel": 0}, {"type": "note_on", "time": 8, "note": 60, "velocity": 117, "channel": 0}, {"type": "note_off", "time": 52, "note": 60, "velocity": 117, "channel": 0}, {"type": "note_on", "time": 4, "note": 64, "velocity": 118, "channel": 0}, {"type": "note_off", "time": 35, "note": 64, "velocity": 118, "channel": 0}, {"type": "note_on", "time": 6, "note": 67, "velocity": 120, "channel": 0}, {"type": "note_off", "time": 41, "note": 67, "velocity": 120, "channel": 0}, {"type": "note_on", "time": 7, "note": 71, "velocity": 112, "channel": 0}, {"type": "note_off", "time": 45, "note": 71, "velocity": 112, "channel": 0}, {"type": "note_on", "time": 4, "note": 69, "velocity": 116, "channel": 0}, {"type": "note_off", "time": 40, "note": 69, "velocity": 116, "channel": 0}, {"type": "note_on", "time": 6, "note": 54, "velocity": 106, "channel": 0}, {"type": "note_off", "time": 19, "note": 54, "velocity": 106, "channel": 0}, {"type": "note_on", "time": 1, "note": 59, "velocity": 100, "channel": 0}, {"type": "note_off", "time": 25, "note": 59, "velocity": 100, "channel": 0}, {"type": "note_on", "time": 1, "note": 62, "velocity": 121, "channel": 0}, {"type": "note_off", "time": 33, "note": 62, "velocity": 121, "channel": 0}, {"type": "note_on", "time": 10, "note": 65, "velocity": 115, "channel": 0}, {"type": "note_off", "time": 14, "note": 65, "velocity": 115, "channel": 0}, {"type": "note_on", "time": 3, "note": 69, "velocity": 115, "channel": 0}, {"type": "note_off", "time": 13, "note": 69, "velocity": 115, "channel": 0}, {"type": "note_on", "time": 3, "note": 72, "velocity": 118, "channel": 0}, {"type": "note_off", "time": 26, "note": 72, "velocity": 118, "channel": 0}, {"type": "note_on", "time": 4, "note": 69, "velocity": 116, "channel": 0}, {"type": "note_off", "time": 38, "note": 69, "velocity": 116, "channel": 0}, {"type": "note_on", "time": 273, "note": 68, "velocity": 119, "channel": 0}, {"type": "note_off", "time": 47, "note": 68, "velocity": 119, "channel": 0}, {"type": "note_on", "time": 6, "note": 73, "velocity": 123, "channel": 0}, {"type": "note_off", "time": 54, "note": 73, "velocity": 123, "channel": 0}, {"type": "note_on", "time": 3, "note": 72, "velocity": 119, "channel": 0}, {"type": "note_off", "time": 40, "note": 72, "velocity": 119, "channel": 0}, {"type": "note_on", "time": 6, "note": 70, "velocity": 118, "channel": 0}, {"type": "note_off", "time": 46, "note": 70, "velocity": 118, "channel": 0}, {"type": "note_on", "time": 5, "note": 68, "velocity": 120, "channel": 0}, {"type": "note_off", "time": 39, "note": 68, "velocity": 120, "channel": 0}, {"type": "note_on", "time": 4, "note": 67, "velocity": 119, "channel": 0}, {"type": "note_off", "time": 50, "note": 67, "velocity": 119, "channel": 0}, {"type": "note_on", "time": 3, "note": 65, "velocity": 119, "channel": 0}, {"type": "note_off", "time": 46, "note": 65, "velocity": 119, "channel": 0}, {"type": "note_on", "time": 3, "note": 64, "velocity": 96, "channel": 0}, {"type": "note_off", "time": 30, "note": 64, "velocity": 96, "channel": 0}, {"type": "note_on", "time": 3, "note": 65, "velocity": 94, "channel": 0}, {"type": "note_off", "time": 13, "note": 65, "velocity": 94, "channel": 0}, {"type": "note_on", "time": 1, "note": 66, "velocity": 110, "channel": 0}, {"type": "note_off", "time": 23, "note": 66, "velocity": 110, "channel": 0}, {"type": "note_on", "time": 2, "note": 67, "velocity": 117, "channel": 0}, {"type": "note_off", "time": 66, "note": 67, "velocity": 117, "channel": 0}, {"type": "note_on", "time": 2, "note": 62, "velocity": 116, "channel": 0}, {"type": "note_off", "time": 51, "note": 62, "velocity": 116, "channel": 0}, {"type": "note_on", "time": 178, "note": 60, "velocity": 119, "channel": 0}, {"type": "note_off", "time": 53, "note": 60, "velocity": 119, "channel": 0}, {"type": "note_on", "time": 4, "note": 62, "velocity": 125, "channel": 0}, {"type": "note_off", "time": 45, "note": 62, "velocity": 125, "channel": 0}, {"type": "note_on", "time": 3, "note": 64, "velocity": 117, "channel": 0}, {"type": "note_off", "time": 45, "note": 64, "velocity": 117, "channel": 0}, {"type": "note_on", "time": 3, "note": 65, "velocity": 119, "channel": 0}, {"type": "note_off", "time": 40, "note": 65, "velocity": 119, "channel": 0}, {"type": "note_on", "time": 1, "note": 67, "velocity": 119, "channel": 0}, {"type": "note_off", "time": 50, "note": 67, "velocity": 119, "channel": 0}, {"type": "note_on", "time": 2, "note": 64, "velocity": 118, "channel": 0}, {"type": "note_off", "time": 37, "note": 64, "velocity": 118, "channel": 0}, {"type": "note_on", "time": 5, "note": 64, "velocity": 116, "channel": 0}, {"type": "note_off", "time": 38, "note": 64, "velocity": 116, "channel": 0}, {"type": "note_on", "time": 1, "note": 66, "velocity": 117, "channel": 0}, {"type": "note_off", "time": 201, "note": 66, "velocity": 117, "channel": 0}, {"type": "note_on", "time": 14, "note": 69, "velocity": 119, "channel": 0}, {"type": "note_off", "time": 47, "note": 69, "velocity": 119, "channel": 0}, {"type": "note_on", "time": 9, "note": 66, "velocity": 119, "channel": 0}, {"type": "note_off", "time": 40, "note": 66, "velocity": 119, "channel": 0}, {"type": "note_on", "time": 4, "note": 69, "velocity": 109, "channel": 0}, {"type": "note_off", "time": 37, "note": 69, "velocity": 109, "channel": 0}, {"type": "note_on", "time": 3, "note": 64, "velocity": 105, "channel": 0}, {"type": "note_off", "time": 137, "note": 64, "velocity": 105, "channel": 0}, {"type": "note_on", "time": 150, "note": 62, "velocity": 123, "channel": 0}, {"type": "note_off", "time": 44, "note": 62, "velocity": 123, "channel": 0}, {"type": "note_on", "time": 4, "note": 64, "velocity": 118, "channel": 0}, {"type": "note_off", "time": 43, "note": 64, "velocity": 118, "channel": 0}, {"type": "note_on", "time": 17, "note": 65, "velocity": 118, "channel": 0}, {"type": "note_off", "time": 40, "note": 65, "velocity": 118, "channel": 0}, {"type": "note_on", "time": 2, "note": 67, "velocity": 120, "channel": 0}, {"type": "note_off", "time": 37, "note": 67, "velocity": 120, "channel": 0}, {"type": "note_on", "time": 5, "note": 65, "velocity": 117, "channel": 0}, {"type": "note_off", "time": 26, "note": 65, "velocity": 117, "channel": 0}, {"type": "note_on", "time": 1, "note": 67, "velocity": 120, "channel": 0}, {"type": "note_off", "time": 44, "note": 67, "velocity": 120, "channel": 0}, {"type": "note_on", "time": 6, "note": 64, "velocity": 117, "channel": 0}, {"type": "note_off", "time": 100, "note": 64, "velocity": 117, "channel": 0}, {"type": "note_on", "time": 100, "note": 62, "velocity": 122, "channel": 0}, {"type": "note_off", "time": 21, "note": 62, "velocity": 122, "channel": 0}, {"type": "note_on", "time": 1, "note": 64, "velocity": 119, "channel": 0}, {"type": "note_off", "time": 38, "note": 64, "velocity": 119, "channel": 0}, {"type": "note_on", "time": 1, "note": 62, "velocity": 120, "channel": 0}, {"type": "note_off", "time": 17, "note": 62, "velocity": 120, "channel": 0}, {"type": "note_on", "time": 1, "note": 64, "velocity": 117, "channel": 0}, {"type": "note_off", "time": 56, "note": 64, "velocity": 117, "channel": 0}, {"type": "note_on", "time": 2, "note": 60, "velocity": 112, "channel": 0}, {"type": "note_off", "time": 79, "note": 60, "velocity": 112, "channel": 0}, {"type": "note_on", "time": 108, "note": 59, "velocity": 104, "channel": 0}, {"type": "note_off", "time": 140, "note": 59, "velocity": 104, "channel": 0}, {"type": "note_on", "time": 6, "note": 60, "velocity": 120, "channel": 0}, {"type": "note_off", "time": 51, "note": 60, "velocity": 120, "channel": 0}, {"type": "note_on", "time": 27, "note": 55, "velocity": 107, "channel": 0}, {"type": "note_off", "time": 76, "note": 55, "velocity": 107, "channel": 0}, {"type": "note_on", "time": 280, "note": 53, "velocity": 119, "channel": 0}, {"type": "note_off", "time": 38, "note": 53, "velocity": 119, "channel": 0}, {"type": "note_on", "time": 9, "note": 51, "velocity": 106, "channel": 0}, {"type": "note_off", "time": 38, "note": 51, "velocity": 106, "channel": 0}, {"type": "note_on", "time": 6, "note": 52, "velocity": 103, "channel": 0}, {"type": "note_off", "time": 31, "note": 52, "velocity": 103, "channel": 0}, {"type": "note_on", "time": 4, "note": 55, "velocity": 112, "channel": 0}, {"type": "note_off", "time": 53, "note": 55, "velocity": 112, "channel": 0}, {"type": "note_on", "time": 47, "note": 60, "velocity": 116, "channel": 0}, {"type": "note_off", "time": 72, "note": 60, "velocity": 116, "channel": 0}, {"type": "end_of_track", "time": 0}]]}