{"ticks_per_beat": 2520, "tracks": [[{"type": "note_on", "time": 0, "note": 67, "velocity": 119, "channel": 0}, {"type": "note_off", "time": 611, "note": 67, "velocity": 119, "channel": 0}, {"type": "note_on", "time": 55, "note": 69, "velocity": 112, "channel": 0}, {"type": "note_off", "time": 1834, "note": 69, "velocity": 112, "channel": 0}, {"type": "note_on", "time": 6073, "note": 68, "velocity": 116, "channel": 0}, {"type": "note_off", "time": 833, "note": 68, "velocity": 116, "channel": 0}, {"type": "note_on", "time": 291, "note": 65, "velocity": 113, "channel": 0}, {"type": "note_off", "time": 708, "note": 65, "velocity": 113, "channel": 0}, {"type": "note_on", "time": 764, "note": 71, "velocity": 117, "channel": 0}, {"type": "note_off", "time": 1070, "note": 71, "velocity": 117, "channel": 0}, {"type": "note_on", "time": 305, "note": 70, "velocity": 115, "channel": 0}, {"type": "note_off", "time": 972, "note": 70, "velocity": 115, "channel": 0}, {"type": "note_on", "time": 236, "note": 68, "velocity": 112, "channel": 0}, {"type": "note_off", "time": 1028, "note": 68, "velocity": 112, "channel": 0}, {"type": "note_on", "time": 152, "note": 65, "velocity": 107, "channel": 0}, {"type": "note_off", "time": 5308, "note": 65, "velocity": 107, "channel": 0}, {"type": "note_on", "time": 66, "note": 68, "velocity": 116, "channel": 0}, {"type": "note_off", "time": 1231, "note": 68, "velocity": 116, "channel": 0}, {"type": "note_on", "time": 68, "note": 69, "velocity": 112, "channel": 0}, {"type": "note_off", "time": 928, "note": 69, "velocity": 112, "channel": 0}, {"type": "note_on", "time": 12923, "note": 67, "velocity": 106, "channel": 0}, {"type": "note_off", "time": 667, "note": 67, "velocity": 106, "channel": 0}, {"type": "note_on", "time": 125, "note": 69, "velocity": 108, "channel": 0}, {"type": "note_off", "time": 639, "note": 69, "velocity": 108, "channel": 0}, {"type": "note_on", "time": 27, "note": 70, "velocity": 108, "channel": 0}, {"type": "note_off", "time": 528, "note": 70, "velocity": 108, "channel": 0}, {"type": "note_on", "time": 125, "note": 71, "velocity": 113, "channel": 0}, {"type": "note_off", "time": 472, "note": 71, "velocity": 113, "channel": 0}, {"type": "note_on", "time": 409, "note": 72, "velocity": 113, "channel": 0}, {"type": "note_off", "time": 644, "note": 72, "velocity": 113, "channel": 0}, {"type": "note_on", "time": 390, "note": 72, "velocity": 110, "channel": 0}, {"type": "note_off", "time": 654, "note": 72, "velocity": 110, "channel": 0}, {"type": "note_on", "time": 234, "note": 70, "velocity": 120, "channel": 0}, {"type": "note_off", "time": 541, "note": 70, "velocity": 120, "channel": 0}, {"type": "note_on", "time": 555, "note": 70, "velocity": 118, "channel": 0}, {"type": "note_off", "time": 583, "note": 70, "velocity": 118, "channel": 0}, {"type": "note_on", "time": 138, "note": 67, "velocity": 119, "channel": 0}, {"type": "note_off", "time": 1070, "note": 67, "velocity": 119, "channel": 0}, {"type": "note_on", "time": 2444, "note": 69, "velocity": 121, "channel": 0}, {"type": "note_off", "time": 591, "note": 69, "velocity": 121, "channel": 0}, {"type": "note_on", "time": 87, "note": 68, "velocity": 117, "channel": 0}, {"type": "note_off", "time": 503, "note": 68, "velocity": 117, "channel": 0}, {"type": "note_on", "time": 131, "note": 67, "velocity": 115, "channel": 0}, {"type": "note_off", "time": 591, "note": 67, "velocity": 115, "channel": 0}, {"type": "note_on", "time": 102, "note": 66, "velocity": 114, "channel": 0}, {"type": "note_off", "time": 469, "note": 66, "velocity": 114, "channel": 0}, {"type": "note_on", "time": 92, "note": 65, "velocity": 113, "channel": 0}, {"type": "note_off", "time": 528, "note": 65, "velocity": 113, "channel": 0}, {"type": "note_on", "time": 33, "note": 62, "velocity": 114, "channel": 0}, {"type": "note_off", "time": 653, "note": 62, "velocity": 114, "channel": 0}, {"type": "note_on", "time": 52, "note": 69, "velocity": 109, "channel": 0}, {"type": "note_off", "time": 680, "note": 69, "velocity": 109, "channel": 0}, {"type": "note_on", "time": 631, "note": 57, "velocity": 105, "channel": 0}, {"type": "note_off", "time": 644, "note": 57, "velocity": 105, "channel": 0}, {"type": "note_on", "time": 97, "note": 55, "velocity": 98, "channel": 0}, {"type": "note_off", "time": 517, "note": 55, "velocity": 98, "channel": 0}, {"type": "note_on", "time": 302, "note": 53, "velocity": 100, "channel": 0}, {"type": "note_off", "time": 381, "note": 53, "velocity": 100, "channel": 0}, {"type": "note_on", "time": 29, "note": 54, "velocity": 103, "channel": 0}, {"type": "note_on", "time": 293, "note": 60, "velocity": 108, "channel": 0}, {"type": "note_off", "time": 0, "note": 54, "velocity": 103, "channel": 0}, {"type": "note_off", "time": 732, "note": 60, "velocity": 108, "channel": 0}, {"type": "note_on", "time": 342, "note": 57, "velocity": 85, "channel": 0}, {"type": "note_off", "time": 342, "note": 57, "velocity": 85, "channel": 0}, {"type": "note_on", "time": 107, "note": 58, "velocity": 92, "channel": 0}, {"type": "note_off", "time": 351, "note": 58, "velocity": 92, "channel": 0}, {"type": "note_on", "time": 117, "note": 60, "velocity": 91, "channel": 0}, {"type": "track_name", "name": "Melody", "time": 119}, {"type": "set_tempo", "tempo": 526315, "time": 0}, {"type": "key_signature", "key": "Bb", "time": 0}, {"type": "time_signature", "numerator": 4, "denominator": 4, "clocks_per_click": 24, "notated_32nd_notes_per_beat": 8, "time": 0}, {"type": "note_off", "time": 261, "note": 60, "velocity": 91, "channel": 0}, {"type": "note_on", "time": 371, "note": 69, "velocity": 117, "channel": 0}, {"type": "note_on", "time": 547, "note": 68, "velocity": 114, "channel": 0}, {"type": "note_off", "time": 0, "note": 69, "velocity": 117, "channel": 0}, {"type": "note_off", "time": 488, "note": 68, "velocity": 114, "channel": 0}, {"type": "note_on", "time": 97, "note": 67, "velocity": 113, "channel": 0}, {"type": "note_off", "time": 781, "note": 67, "velocity": 113, "channel": 0}, {"type": "note_on", "time": 29, "note": 66, "velocity": 114, "channel": 0}, {"type": "note_off", "time": 508, "note": 66, "velocity": 114, "channel": 0}, {"type": "note_on", "time": 48, "note": 65, "velocity": 114, "channel": 0}, {"type": "note_off", "time": 488, "note": 65, "velocity": 114, "channel": 0}, {"type": "note_on", "time": 68, "note": 62, "velocity": 114, "channel": 0}, {"type": "note_off", "time": 596, "note": 62, "velocity": 114, "channel": 0}, {"type": "note_on", "time": 19, "note": 58, "velocity": 102, "channel": 0}, {"type": "note_off", "time": 361, "note": 58, "velocity": 102, "channel": 0}, {"type": "note_on", "time": 58, "note": 55, "velocity": 94, "channel": 0}, {"type": "note_off", "time": 459, "note": 55, "velocity": 94, "channel": 0}, {"type": "note_on", "time": 58, "note": 57, "velocity": 96, "channel": 0}, {"type": "note_off", "time": 1690, "note": 57, "velocity": 96, "channel": 0}, {"type": "note_on", "time": 390, "note": 60, "velocity": 94, "channel": 0}, {"type": "note_off", "time": 293, "note": 60, "velocity": 94, "channel": 0}, {"type": "note_on", "time": 19, "note": 64, "velocity": 91, "channel": 0}, {"type": "note_off", "time": 234, "note": 64, "velocity": 91, "channel": 0}, {"type": "note_on", "time": 146, "note": 67, "velocity": 112, "channel": 0}, {"type": "note_off", "time": 771, "note": 67, "velocity": 112, "channel": 0}, {"type": "note_on", "time": 19, "note": 65, "velocity": 106, "channel": 0}, {"type": "note_off", "time": 684, "note": 65, "velocity": 106, "channel": 0}, {"type": "note_on", "time": 39, "note": 64, "velocity": 100, "channel": 0}, {"type": "note_off", "time": 644, "note": 64, "velocity": 100, "channel": 0}, {"type": "note_on", "time": 341, "note": 69, "velocity": 119, "channel": 0}, {"type": "note_off", "time": 898, "note": 69, "velocity": 119, "channel": 0}, {"type": "note_on", "time": 0, "note": 72, "velocity": 102, "channel": 0}, {"type": "note_off", "time": 2022, "note": 72, "velocity": 102, "channel": 0}, {"type": "note_on", "time": 4123, "note": 63, "velocity": 93, "channel": 0}, {"type": "note_off", "time": 293, "note": 63, "velocity": 93, "channel": 0}, {"type": "note_on", "time": 48, "note": 70, "velocity": 96, "channel": 0}, {"type": "note_off", "time": 214, "note": 70, "velocity": 96, "channel": 0}, {"type": "note_on", "time": 29, "note": 72, "velocity": 115, "channel": 0}, {"type": "note_off", "time": 830, "note": 72, "velocity": 115, "channel": 0}, {"type": "note_on", "time": 351, "note": 69, "velocity": 120, "channel": 0}, {"type": "note_on", "time": 801, "note": 67, "velocity": 116, "channel": 0}, {"type": "note_off", "time": 0, "note": 69, "velocity": 120, "channel": 0}, {"type": "note_off", "time": 2648, "note": 67, "velocity": 116, "channel": 0}, {"type": "note_on", "time": 58, "note": 65, "velocity": 99, "channel": 0}, {"type": "note_off", "time": 478, "note": 65, "velocity": 99, "channel": 0}, {"type": "note_on", "time": 58, "note": 69, "velocity": 119, "channel": 0}, {"type": "note_off", "time": 791, "note": 69, "velocity": 119, "channel": 0}, {"type": "note_on", "time": 0, "note": 62, "velocity": 101, "channel": 0}, {"type": "note_off", "time": 2589, "note": 62, "velocity": 101, "channel": 0}, {"type": "note_on", "time": 2511, "note": 67, "velocity": 117, "channel": 0}, {"type": "note_off", "time": 566, "note": 67, "velocity": 117, "channel": 0}, {"type": "note_on", "time": 68, "note": 66, "velocity": 115, "channel": 0}, {"type": "note_off", "time": 576, "note": 66, "velocity": 115, "channel": 0}, {"type": "note_on", "time": 87, "note": 65, "velocity": 115, "channel": 0}, {"type": "note_on", "time": 586, "note": 62, "velocity": 115, "channel": 0}, {"type": "note_off", "time": 0, "note": 65, "velocity": 115, "channel": 0}, {"type": "note_off", "time": 508, "note": 62, "velocity": 115, "channel": 0}, {"type": "note_on", "time": 0, "note": 58, "velocity": 102, "channel": 0}, {"type": "note_off", "time": 547, "note": 58, "velocity": 102, "channel": 0}, {"type": "note_on", "time": 175, "note": 55, "velocity": 106, "channel": 0}, {"type": "note_off", "time": 566, "note": 55, "velocity": 106, "channel": 0}, {"type": "note_on", "time": 19, "note": 53, "velocity": 106, "channel": 0}, {"type": "note_off", "time": 684, "note": 53, "velocity": 106, "channel": 0}, {"type": "note_on", "time": 117, "note": 51, "velocity": 97, "channel": 0}, {"type": "note_off", "time": 322, "note": 51, "velocity": 97, "channel": 0}, {"type": "note_on", "time": 97, "note": 52, "velocity": 87, "channel": 0}, {"type": "note_off", "time": 381, "note": 52, "velocity": 87, "channel": 0}, {"type": "note_on", "time": 78, "note": 55, "velocity": 90, "channel": 0}, {"type": "note_off", "time": 302, "note": 55, "velocity": 90, "channel": 0}, {"type": "note_on", "time": 97, "note": 58, "velocity": 94, "channel": 0}, {"type": "note_off", "time": 390, "note": 58, "velocity": 94, "channel": 0}, {"type": "note_on", "time": 156, "note": 63, "velocity": 122, "channel": 0}, {"type": "note_on", "time": 820, "note": 61, "velocity": 101, "channel": 0}, {"type": "note_off", "time": 0, "note": 63, "velocity": 122, "channel": 0}, {"type": "note_off", "time": 469, "note": 61, "velocity": 101, "channel": 0}, {"type": "note_on", "time": 0, "note": 63, "velocity": 119, "channel": 0}, {"type": "note_off", "time": 771, "note": 63, "velocity": 119, "channel": 0}, {"type": "note_on", "time": 29, "note": 61, "velocity": 102, "channel": 0}, {"type": "note_off", "time": 449, "note": 61, "velocity": 102, "channel": 0}, {"type": "note_on", "time": 0, "note": 63, "velocity": 121, "channel": 0}, {"type": "note_off", "time": 693, "note": 63, "velocity": 121, "channel": 0}, {"type": "note_on", "time": 107, "note": 61, "velocity": 112, "channel": 0}, {"type": "note_off", "time": 547, "note": 61, "velocity": 112, "channel": 0}, {"type": "note_on", "time": 9, "note": 60, "velocity": 105, "channel": 0}, {"type": "note_off", "time": 547, "note": 60, "velocity": 105, "channel": 0}, {"type": "note_on", "time": 117, "note": 58, "velocity": 102, "channel": 0}, {"type": "note_off", "time": 596, "note": 58, "velocity": 102, "channel": 0}, {"type": "note_on", "time": 19, "note": 57, "velocity": 103, "channel": 0}, {"type": "note_off", "time": 1710, "note": 57, "velocity": 103, "channel": 0}, {"type": "note_on", "time": 254, "note": 60, "velocity": 96, "channel": 0}, {"type": "note_off", "time": 332, "note": 60, "velocity": 96, "channel": 0}, {"type": "note_on", "time": 39, "note": 64, "velocity": 96, "channel": 0}, {"type": "note_off", "time": 273, "note": 64, "velocity": 96, "channel": 0}, {"type": "note_on", "time": 0, "note": 67, "velocity": 115, "channel": 0}, {"type": "note_off", "time": 762, "note": 67, "velocity": 115, "channel": 0}, {"type": "note_on", "time": 58, "note": 65, "velocity": 109, "channel": 0}, {"type": "note_off", "time": 615, "note": 65, "velocity": 109, "channel": 0}, {"type": "note_on", "time": 78, "note": 64, "velocity": 100, "channel": 0}, {"type": "note_off", "time": 498, "note": 64, "velocity": 100, "channel": 0}, {"type": "note_on", "time": 0, "note": 65, "velocity": 98, "channel": 0}, {"type": "note_off", "time": 312, "note": 65, "velocity": 98, "channel": 0}, {"type": "note_on", "time": 48, "note": 69, "velocity": 115, "channel": 0}, {"type": "note_on", "time": 908, "note": 72, "velocity": 102, "channel": 0}, {"type": "note_off", "time": 0, "note": 69, "velocity": 115, "channel": 0}, {"type": "note_off", "time": 2286, "note": 72, "velocity": 102, "channel": 0}, {"type": "note_on", "time": 3615, "note": 60, "velocity": 89, "channel": 0}, {"type": "note_off", "time": 224, "note": 60, "velocity": 89, "channel": 0}, {"type": "note_on", "time": 0, "note": 62, "velocity": 97, "channel": 0}, {"type": "note_off", "time": 166, "note": 62, "velocity": 97, "channel": 0}, {"type": "note_on", "time": 58, "note": 67, "velocity": 102, "channel": 0}, {"type": "note_off", "time": 293, "note": 67, "velocity": 102, "channel": 0}, {"type": "note_on", "time": 0, "note": 70, "velocity": 113, "channel": 0}, {"type": "note_off", "time": 410, "note": 70, "velocity": 113, "channel": 0}, {"type": "note_on", "time": 58, "note": 69, "velocity": 118, "channel": 0}, {"type": "note_off", "time": 684, "note": 69, "velocity": 118, "channel": 0}, {"type": "note_on", "time": 39, "note": 67, "velocity": 116, "channel": 0}, {"type": "note_off", "time": 654, "note": 67, "velocity": 116, "channel": 0}, {"type": "note_on", "time": 48, "note": 65, "velocity": 115, "channel": 0}, {"type": "note_off", "time": 576, "note": 65, "velocity": 115, "channel": 0}, {"type": "note_on", "time": 0, "note": 62, "velocity": 109, "channel": 0}, {"type": "note_off", "time": 429, "note": 62, "velocity": 109, "channel": 0}, {"type": "note_on", "time": 9, "note": 63, "velocity": 120, "channel": 0}, {"type": "note_off", "time": 762, "note": 63, "velocity": 120, "channel": 0}, {"type": "note_on", "time": 166, "note": 55, "velocity": 98, "channel": 0}, {"type": "note_off", "time": 410, "note": 55, "velocity": 98, "channel": 0}, {"type": "note_on", "time": 87, "note": 56, "velocity": 96, "channel": 0}, {"type": "note_off", "time": 410, "note": 56, "velocity": 96, "channel": 0}, {"type": "note_on", "time": 214, "note": 60, "velocity": 91, "channel": 0}, {"type": "note_off", "time": 410, "note": 60, "velocity": 91, "channel": 0}, {"type": "note_on", "time": 0, "note": 62, "velocity": 109, "channel": 0}, {"type": "note_off", "time": 1993, "note": 62, "velocity": 109, "channel": 0}, {"type": "note_on", "time": 0, "note": 57, "velocity": 95, "channel": 0}, {"type": "note_off", "time": 469, "note": 57, "velocity": 95, "channel": 0}, {"type": "note_on", "time": 9, "note": 60, "velocity": 106, "channel": 0}, {"type": "note_off", "time": 977, "note": 60, "velocity": 106, "channel": 0}, {"type": "note_on", "time": 0, "note": 57, "velocity": 96, "channel": 0}, {"type": "note_off", "time": 410, "note": 57, "velocity": 96, "channel": 0}, {"type": "note_on", "time": 58, "note": 58, "velocity": 91, "channel": 0}, {"type": "note_on", "time": 322, "note": 62, "velocity": 90, "channel": 0}, {"type": "note_off", "time": 0, "note": 58, "velocity": 91, "channel": 0}, {"type": "note_off", "time": 390, "note": 62, "velocity": 90, "channel": 0}, {"type": "note_on", "time": 9, "note": 65, "velocity": 98, "channel": 0}, {"type": "note_off", "time": 429, "note": 65, "velocity": 98, "channel": 0}, {"type": "note_on", "time": 146, "note": 69, "velocity": 116, "channel": 0}, {"type": "note_off", "time": 674, "note": 69, "velocity": 116, "channel": 0}, {"type": "note_on", "time": 0, "note": 68, "velocity": 114, "channel": 0}, {"type": "note_off", "time": 537, "note": 68, "velocity": 114, "channel": 0}, {"type": "note_on", "time": 19, "note": 67, "velocity": 113, "channel": 0}, {"type": "note_off", "time": 684, "note": 67, "velocity": 113, "channel": 0}, {"type": "note_on", "time": 58, "note": 66, "velocity": 113, "channel": 0}, {"type": "note_off", "time": 605, "note": 66, "velocity": 113, "channel": 0}, {"type": "note_on", "time": 29, "note": 65, "velocity": 111, "channel": 0}, {"type": "note_on", "time": 556, "note": 62, "velocity": 112, "channel": 0}, {"type": "note_off", "time": 0, "note": 65, "velocity": 111, "channel": 0}, {"type": "note_off", "time": 674, "note": 62, "velocity": 112, "channel": 0}, {"type": "note_on", "time": 9, "note": 58, "velocity": 91, "channel": 0}, {"type": "note_off", "time": 635, "note": 58, "velocity": 91, "channel": 0}, {"type": "note_on", "time": 214, "note": 56, "velocity": 93, "channel": 0}, {"type": "note_off", "time": 351, "note": 56, "velocity": 93, "channel": 0}, {"type": "note_on", "time": 97, "note": 61, "velocity": 105, "channel": 0}, {"type": "note_off", "time": 674, "note": 61, "velocity": 105, "channel": 0}, {"type": "note_on", "time": 87, "note": 62, "velocity": 99, "channel": 0}, {"type": "note_off", "time": 459, "note": 62, "velocity": 99, "channel": 0}, {"type": "note_on", "time": 97, "note": 63, "velocity": 95, "channel": 0}, {"type": "note_off", "time": 469, "note": 63, "velocity": 95, "channel": 0}, {"type": "note_on", "time": 117, "note": 64, "velocity": 102, "channel": 0}, {"type": "note_off", "time": 410, "note": 64, "velocity": 102, "channel": 0}, {"type": "note_on", "time": 185, "note": 65, "velocity": 114, "channel": 0}, {"type": "note_off", "time": 654, "note": 65, "velocity": 114, "channel": 0}, {"type": "note_on", "time": 0, "note": 61, "velocity": 107, "channel": 0}, {"type": "note_off", "time": 566, "note": 61, "velocity": 107, "channel": 0}, {"type": "note_on", "time": 58, "note": 60, "velocity": 102, "channel": 0}, {"type": "note_off", "time": 596, "note": 60, "velocity": 102, "channel": 0}, {"type": "note_on", "time": 97, "note": 58, "velocity": 100, "channel": 0}, {"type": "note_off", "time": 488, "note": 58, "velocity": 100, "channel": 0}, {"type": "note_on", "time": 273, "note": 56, "velocity": 90, "channel": 0}, {"type": "note_off", "time": 2071, "note": 56, "velocity": 90, "channel": 0}, {"type": "note_on", "time": 2931, "note": 63, "velocity": 118, "channel": 0}, {"type": "note_off", "time": 732, "note": 63, "velocity": 118, "channel": 0}, {"type": "note_on", "time": 48, "note": 61, "velocity": 102, "channel": 0}, {"type": "note_off", "time": 361, "note": 61, "velocity": 102, "channel": 0}, {"type": "note_on", "time": 48, "note": 63, "velocity": 118, "channel": 0}, {"type": "note_off", "time": 820, "note": 63, "velocity": 118, "channel": 0}, {"type": "note_on", "time": 68, "note": 61, "velocity": 109, "channel": 0}, {"type": "note_off", "time": 566, "note": 61, "velocity": 109, "channel": 0}, {"type": "note_on", "time": 117, "note": 60, "velocity": 107, "channel": 0}, {"type": "note_off", "time": 781, "note": 60, "velocity": 107, "channel": 0}, {"type": "note_on", "time": 68, "note": 57, "velocity": 96, "channel": 0}, {"type": "note_off", "time": 684, "note": 57, "velocity": 96, "channel": 0}, {"type": "note_on", "time": 87, "note": 58, "velocity": 89, "channel": 0}, {"type": "note_off", "time": 244, "note": 58, "velocity": 89, "channel": 0}, {"type": "note_on", "time": 175, "note": 60, "velocity": 97, "channel": 0}, {"type": "note_off", "time": 381, "note": 60, "velocity": 97, "channel": 0}, {"type": "note_on", "time": 224, "note": 67, "velocity": 115, "channel": 0}, {"type": "note_off", "time": 635, "note": 67, "velocity": 115, "channel": 0}, {"type": "note_on", "time": 0, "note": 65, "velocity": 110, "channel": 0}, {"type": "note_off", "time": 576, "note": 65, "velocity": 110, "channel": 0}, {"type": "note_on", "time": 127, "note": 64, "velocity": 105, "channel": 0}, {"type": "note_off", "time": 566, "note": 64, "velocity": 105, "channel": 0}, {"type": "note_on", "time": 117, "note": 62, "velocity": 102, "channel": 0}, {"type": "note_off", "time": 371, "note": 62, "velocity": 102, "channel": 0}, {"type": "note_on", "time": 107, "note": 64, "velocity": 115, "channel": 0}, {"type": "note_off", "time": 879, "note": 64, "velocity": 115, "channel": 0}, {"type": "note_on", "time": 0, "note": 60, "velocity": 95, "channel": 0}, {"type": "note_off", "time": 1973, "note": 60, "velocity": 95, "channel": 0}, {"type": "note_on", "time": 2569, "note": 57, "velocity": 98, "channel": 0}, {"type": "note_off", "time": 723, "note": 57, "velocity": 98, "channel": 0}, {"type": "note_on", "time": 107, "note": 60, "velocity": 90, "channel": 0}, {"type": "note_off", "time": 635, "note": 60, "velocity": 90, "channel": 0}, {"type": "note_on", "time": 97, "note": 64, "velocity": 100, "channel": 0}, {"type": "note_off", "time": 361, "note": 64, "velocity": 100, "channel": 0}, {"type": "note_on", "time": 127, "note": 67, "velocity": 113, "channel": 0}, {"type": "note_off", "time": 2247, "note": 67, "velocity": 113, "channel": 0}, {"type": "note_on", "time": 342, "note": 65, "velocity": 116, "channel": 0}, {"type": "note_off", "time": 586, "note": 65, "velocity": 116, "channel": 0}, {"type": "note_on", "time": 68, "note": 66, "velocity": 112, "channel": 0}, {"type": "note_off", "time": 258, "note": 66, "velocity": 112, "channel": 0}, {"type": "note_on", "time": 63, "note": 63, "velocity": 117, "channel": 0}, {"type": "note_off", "time": 703, "note": 63, "velocity": 117, "channel": 0}, {"type": "note_on", "time": 107, "note": 59, "velocity": 104, "channel": 0}, {"type": "note_off", "time": 537, "note": 59, "velocity": 104, "channel": 0}, {"type": "note_on", "time": 68, "note": 58, "velocity": 99, "channel": 0}, {"type": "note_off", "time": 596, "note": 58, "velocity": 99, "channel": 0}, {"type": "note_on", "time": 78, "note": 56, "velocity": 101, "channel": 0}, {"type": "note_off", "time": 801, "note": 56, "velocity": 101, "channel": 0}, {"type": "note_on", "time": 1094, "note": 64, "velocity": 121, "channel": 0}, {"type": "note_off", "time": 517, "note": 64, "velocity": 121, "channel": 0}, {"type": "note_on", "time": 29, "note": 65, "velocity": 114, "channel": 0}, {"type": "note_off", "time": 547, "note": 65, "velocity": 114, "channel": 0}, {"type": "note_on", "time": 117, "note": 62, "velocity": 114, "channel": 0}, {"type": "note_off", "time": 498, "note": 62, "velocity": 114, "channel": 0}, {"type": "note_on", "time": 127, "note": 58, "velocity": 101, "channel": 0}, {"type": "note_off", "time": 420, "note": 58, "velocity": 101, "channel": 0}, {"type": "note_on", "time": 195, "note": 57, "velocity": 100, "channel": 0}, {"type": "note_off", "time": 596, "note": 57, "velocity": 100, "channel": 0}, {"type": "note_on", "time": 107, "note": 55, "velocity": 94, "channel": 0}, {"type": "note_off", "time": 517, "note": 55, "velocity": 94, "channel": 0}, {"type": "note_on", "time": 58, "note": 60, "velocity": 107, "channel": 0}, {"type": "note_on", "time": 850, "note": 57, "velocity": 97, "channel": 0}, {"type": "note_off", "time": 0, "note": 60, "velocity": 107, "channel": 0}, {"type": "note_off", "time": 508, "note": 57, "velocity": 97, "channel": 0}, {"type": "note_on", "time": 68, "note": 58, "velocity": 96, "channel": 0}, {"type": "note_off", "time": 469, "note": 58, "velocity": 96, "channel": 0}, {"type": "note_on", "time": 9, "note": 60, "velocity": 106, "channel": 0}, {"type": "note_off", "time": 703, "note": 60, "velocity": 106, "channel": 0}, {"type": "note_on", "time": 19, "note": 62, "velocity": 102, "channel": 0}, {"type": "note_off", "time": 576, "note": 62, "velocity": 102, "channel": 0}, {"type": "note_on", "time": 97, "note": 64, "velocity": 104, "channel": 0}, {"type": "note_off", "time": 469, "note": 64, "velocity": 104, "channel": 0}, {"type": "note_on", "time": 29, "note": 65, "velocity": 114, "channel": 0}, {"type": "note_off", "time": 615, "note": 65, "velocity": 114, "channel": 0}, {"type": "note_on", "time": 107, "note": 62, "velocity": 107, "channel": 0}, {"type": "note_off", "time": 556, "note": 62, "velocity": 107, "channel": 0}, {"type": "note_on", "time": 39, "note": 58, "velocity": 95, "channel": 0}, {"type": "note_off", "time": 556, "note": 58, "velocity": 95, "channel": 0}, {"type": "note_on", "time": 117, "note": 55, "velocity": 91, "channel": 0}, {"type": "note_off", "time": 478, "note": 55, "velocity": 91, "channel": 0}, {"type": "note_on", "time": 127, "note": 57, "velocity": 104, "channel": 0}, {"type": "note_off", "time": 488, "note": 57, "velocity": 104, "channel": 0}, {"type": "note_on", "time": 146, "note": 55, "velocity": 97, "channel": 0}, {"type": "note_off", "time": 635, "note": 55, "velocity": 97, "channel": 0}, {"type": "note_on", "time": 0, "note": 54, "velocity": 88, "channel": 0}, {"type": "note_on", "time": 283, "note": 55, "velocity": 96, "channel": 0}, {"type": "note_off", "time": 0, "note": 54, "velocity": 88, "channel": 0}, {"type": "note_off", "time": 498, "note": 55, "velocity": 96, "channel": 0}, {"type": "note_on", "time": 156, "note": 60, "velocity": 108, "channel": 0}, {"type": "note_off", "time": 820, "note": 60, "velocity": 108, "channel": 0}, {"type": "note_on", "time": 263, "note": 57, "velocity": 93, "channel": 0}, {"type": "note_off", "time": 410, "note": 57, "velocity": 93, "channel": 0}, {"type": "note_on", "time": 244, "note": 58, "velocity": 87, "channel": 0}, {"type": "note_off", "time": 273, "note": 58, "velocity": 87, "channel": 0}, {"type": "note_on", "time": 107, "note": 62, "velocity": 90, "channel": 0}, {"type": "note_off", "time": 214, "note": 62, "velocity": 90, "channel": 0}, {"type": "note_on", "time": 0, "note": 65, "velocity": 91, "channel": 0}, {"type": "note_off", "time": 205, "note": 65, "velocity": 91, "channel": 0}, {"type": "note_on", "time": 146, "note": 69, "velocity": 120, "channel": 0}, {"type": "note_off", "time": 732, "note": 69, "velocity": 120, "channel": 0}, {"type": "note_on", "time": 351, "note": 69, "velocity": 119, "channel": 0}, {"type": "note_off", "time": 811, "note": 69, "velocity": 119, "channel": 0}, {"type": "note_on", "time": 39, "note": 65, "velocity": 109, "channel": 0}, {"type": "note_off", "time": 713, "note": 65, "velocity": 109, "channel": 0}, {"type": "note_on", "time": 322, "note": 65, "velocity": 114, "channel": 0}, {"type": "note_off", "time": 693, "note": 65, "velocity": 114, "channel": 0}, {"type": "note_on", "time": 58, "note": 62, "velocity": 112, "channel": 0}, {"type": "note_off", "time": 1065, "note": 62, "velocity": 112, "channel": 0}, {"type": "note_on", "time": 420, "note": 67, "velocity": 115, "channel": 0}, {"type": "note_off", "time": 781, "note": 67, "velocity": 115, "channel": 0}, {"type": "note_on", "time": 342, "note": 67, "velocity": 115, "channel": 0}, {"type": "note_off", "time": 752, "note": 67, "velocity": 115, "channel": 0}, {"type": "note_on", "time": 58, "note": 64, "velocity": 106, "channel": 0}, {"type": "note_off", "time": 811, "note": 64, "velocity": 106, "channel": 0}, {"type": "note_on", "time": 234, "note": 64, "velocity": 112, "channel": 0}, {"type": "note_off", "time": 732, "note": 64, "velocity": 112, "channel": 0}, {"type": "note_on", "time": 58, "note": 60, "velocity": 101, "channel": 0}, {"type": "note_off", "time": 752, "note": 60, "velocity": 101, "channel": 0}, {"type": "note_on", "time": 439, "note": 64, "velocity": 110, "channel": 0}, {"type": "note_off", "time": 283, "note": 64, "velocity": 110, "channel": 0}, {"type": "note_on", "time": 58, "note": 65, "velocity": 108, "channel": 0}, {"type": "note_off", "time": 508, "note": 65, "velocity": 108, "channel": 0}, {"type": "note_on", "time": 390, "note": 65, "velocity": 112, "channel": 0}, {"type": "note_off", "time": 732, "note": 65, "velocity": 112, "channel": 0}, {"type": "note_on", "time": 19, "note": 62, "velocity": 112, "channel": 0}, {"type": "note_off", "time": 723, "note": 62, "velocity": 112, "channel": 0}, {"type": "note_on", "time": 175, "note": 62, "velocity": 102, "channel": 0}, {"type": "note_off", "time": 771, "note": 62, "velocity": 102, "channel": 0}, {"type": "note_on", "time": 87, "note": 58, "velocity": 92, "channel": 0}, {"type": "note_off", "time": 625, "note": 58, "velocity": 92, "channel": 0}, {"type": "note_on", "time": 517, "note": 64, "velocity": 111, "channel": 0}, {"type": "note_off", "time": 752, "note": 64, "velocity": 111, "channel": 0}, {"type": "note_on", "time": 39, "note": 60, "velocity": 90, "channel": 0}, {"type": "note_off", "time": 332, "note": 60, "velocity": 90, "channel": 0}, {"type": "note_on", "time": 97, "note": 62, "velocity": 111, "channel": 0}, {"type": "note_off", "time": 762, "note": 62, "velocity": 111, "channel": 0}, {"type": "note_on", "time": 0, "note": 58, "velocity": 91, "channel": 0}, {"type": "note_off", "time": 420, "note": 58, "velocity": 91, "channel": 0}, {"type": "note_on", "time": 127, "note": 60, "velocity": 104, "channel": 0}, {"type": "note_off", "time": 703, "note": 60, "velocity": 104, "channel": 0}, {"type": "note_on", "time": 19, "note": 57, "velocity": 93, "channel": 0}, {"type": "note_off", "time": 371, "note": 57, "velocity": 93, "channel": 0}, {"type": "note_on", "time": 19, "note": 58, "velocity": 100, "channel": 0}, {"type": "note_off", "time": 498, "note": 58, "velocity": 100, "channel": 0}, {"type": "note_on", "time": 205, "note": 55, "velocity": 91, "channel": 0}, {"type": "note_off", "time": 429, "note": 55, "velocity": 91, "channel": 0}, {"type": "note_on", "time": 87, "note": 57, "velocity": 106, "channel": 0}, {"type": "note_off", "time": 576, "note": 57, "velocity": 106, "channel": 0}, {"type": "note_on", "time": 224, "note": 55, "velocity": 102, "channel": 0}, {"type": "note_off", "time": 498, "note": 55, "velocity": 102, "channel": 0}, {"type": "note_on", "time": 117, "note": 54, "velocity": 107, "channel": 0}, {"type": "note_off", "time": 488, "note": 54, "velocity": 107, "channel": 0}, {"type": "note_on", "time": 107, "note": 57, "velocity": 111, "channel": 0}, {"type": "note_off", "time": 381, "note": 57, "velocity": 111, "channel": 0}, {"type": "note_on", "time": 146, "note": 55, "velocity": 108, "channel": 0}, {"type": "note_off", "time": 478, "note": 55, "velocity": 108, "channel": 0}, {"type": "note_on", "time": 205, "note": 51, "velocity": 97, "channel": 0}, {"type": "note_off", "time": 429, "note": 51, "velocity": 97, "channel": 0}, {"type": "note_on", "time": 156, "note": 53, "velocity": 109, "channel": 0}, {"type": "note_off", "time": 644, "note": 53, "velocity": 109, "channel": 0}, {"type": "note_on", "time": 195, "note": 50, "velocity": 104, "channel": 0}, {"type": "note_off", "time": 361, "note": 50, "velocity": 104, "channel": 0}, {"type": "note_on", "time": 29, "note": 52, "velocity": 108, "channel": 0}, {"type": "note_off", "time": 1670, "note": 52, "velocity": 108, "channel": 0}, {"type": "note_on", "time": 0, "note": 55, "velocity": 95, "channel": 0}, {"type": "note_off", "time": 273, "note": 55, "velocity": 95, "channel": 0}, {"type": "note_on", "time": 9, "note": 58, "velocity": 104, "channel": 0}, {"type": "note_off", "time": 302, "note": 58, "velocity": 104, "channel": 0}, {"type": "note_on", "time": 19, "note": 62, "velocity": 115, "channel": 0}, {"type": "note_off", "time": 488, "note": 62, "velocity": 115, "channel": 0}, {"type": "note_on", "time": 87, "note": 60, "velocity": 110, "channel": 0}, {"type": "note_off", "time": 840, "note": 60, "velocity": 110, "channel": 0}, {"type": "note_on", "time": 87, "note": 57, "velocity": 99, "channel": 0}, {"type": "note_off", "time": 2628, "note": 57, "velocity": 99, "channel": 0}, {"type": "note_on", "time": 7484, "note": 68, "velocity": 118, "channel": 0}, {"type": "note_off", "time": 928, "note": 68, "velocity": 118, "channel": 0}, {"type": "note_on", "time": 322, "note": 65, "velocity": 92, "channel": 0}, {"type": "note_off", "time": 1299, "note": 65, "velocity": 92, "channel": 0}, {"type": "note_on", "time": 0, "note": 70, "velocity": 114, "channel": 0}, {"type": "note_off", "time": 371, "note": 70, "velocity": 114, "channel": 0}, {"type": "note_on", "time": 58, "note": 71, "velocity": 120, "channel": 0}, {"type": "note_off", "time": 273, "note": 71, "velocity": 120, "channel": 0}, {"type": "note_on", "time": 29, "note": 73, "velocity": 114, "channel": 0}, {"type": "note_off", "time": 312, "note": 73, "velocity": 114, "channel": 0}, {"type": "note_on", "time": 127, "note": 71, "velocity": 112, "channel": 0}, {"type": "note_off", "time": 322, "note": 71, "velocity": 112, "channel": 0}, {"type": "note_on", "time": 166, "note": 68, "velocity": 115, "channel": 0}, {"type": "note_off", "time": 1192, "note": 68, "velocity": 115, "channel": 0}, {"type": "note_on", "time": 361, "note": 65, "velocity": 110, "channel": 0}, {"type": "note_off", "time": 732, "note": 65, "velocity": 110, "channel": 0}, {"type": "note_on", "time": 596, "note": 65, "velocity": 114, "channel": 0}, {"type": "note_off", "time": 1153, "note": 65, "velocity": 114, "channel": 0}, {"type": "note_on", "time": 175, "note": 65, "velocity": 114, "channel": 0}, {"type": "note_off", "time": 3087, "note": 65, "velocity": 114, "channel": 0}, {"type": "note_on", "time": 273, "note": 68, "velocity": 119, "channel": 0}, {"type": "note_off", "time": 1201, "note": 68, "velocity": 119, "channel": 0}, {"type": "note_on", "time": 4866, "note": 68, "velocity": 119, "channel": 0}, {"type": "note_off", "time": 869, "note": 68, "velocity": 119, "channel": 0}, {"type": "note_on", "time": 273, "note": 65, "velocity": 113, "channel": 0}, {"type": "note_off", "time": 859, "note": 65, "velocity": 113, "channel": 0}, {"type": "note_on", "time": 190, "note": 70, "velocity": 109, "channel": 0}, {"type": "note_off", "time": 542, "note": 70, "velocity": 109, "channel": 0}, {"type": "note_on", "time": 29, "note": 72, "velocity": 112, "channel": 0}, {"type": "note_off", "time": 439, "note": 72, "velocity": 112, "channel": 0}, {"type": "note_on", "time": 48, "note": 70, "velocity": 115, "channel": 0}, {"type": "note_off", "time": 879, "note": 70, "velocity": 115, "channel": 0}, {"type": "note_on", "time": 136, "note": 68, "velocity": 115, "channel": 0}, {"type": "note_off", "time": 1035, "note": 68, "velocity": 115, "channel": 0}, {"type": "note_on", "time": 117, "note": 65, "velocity": 111, "channel": 0}, {"type": "note_off", "time": 859, "note": 65, "velocity": 111, "channel": 0}, {"type": "note_on", "time": 322, "note": 68, "velocity": 115, "channel": 0}, {"type": "note_off", "time": 977, "note": 68, "velocity": 115, "channel": 0}, {"type": "note_on", "time": 175, "note": 65, "velocity": 115, "channel": 0}, {"type": "note_off", "time": 1045, "note": 65, "velocity": 115, "channel": 0}, {"type": "note_on", "time": 175, "note": 65, "velocity": 106, "channel": 0}, {"type": "note_off", "time": 3029, "note": 65, "velocity": 106, "channel": 0}, {"type": "note_on", "time": 342, "note": 68, "velocity": 114, "channel": 0}, {"type": "note_off", "time": 801, "note": 68, "velocity": 114, "channel": 0}, {"type": "note_on", "time": 68, "note": 65, "velocity": 95, "channel": 0}, {"type": "note_off", "time": 811, "note": 65, "velocity": 95, "channel": 0}, {"type": "note_on", "time": 146, "note": 68, "velocity": 115, "channel": 0}, {"type": "note_off", "time": 771, "note": 68, "velocity": 115, "channel": 0}, {"type": "note_on", "time": 39, "note": 65, "velocity": 115, "channel": 0}, {"type": "note_on", "time": 791, "note": 58, "velocity": 86, "channel": 0}, {"type": "note_off", "time": 0, "note": 65, "velocity": 115, "channel": 0}, {"type": "note_off", "time": 2374, "note": 58, "velocity": 86, "channel": 0}, {"type": "note_on", "time": 2501, "note": 67, "velocity": 118, "channel": 0}, {"type": "note_off", "time": 361, "note": 67, "velocity": 118, "channel": 0}, {"type": "note_on", "time": 19, "note": 68, "velocity": 118, "channel": 0}, {"type": "note_off", "time": 1734, "note": 68, "velocity": 118, "channel": 0}, {"type": "note_on", "time": 366, "note": 65, "velocity": 115, "channel": 0}, {"type": "note_off", "time": 859, "note": 65, "velocity": 115, "channel": 0}, {"type": "note_on", "time": 459, "note": 70, "velocity": 119, "channel": 0}, {"type": "note_off", "time": 664, "note": 70, "velocity": 119, "channel": 0}, {"type": "note_on", "time": 39, "note": 71, "velocity": 111, "channel": 0}, {"type": "note_off", "time": 527, "note": 71, "velocity": 111, "channel": 0}, {"type": "note_on", "time": 29, "note": 70, "velocity": 115, "channel": 0}, {"type": "note_off", "time": 381, "note": 70, "velocity": 115, "channel": 0}, {"type": "note_on", "time": 39, "note": 68, "velocity": 115, "channel": 0}, {"type": "note_off", "time": 811, "note": 68, "velocity": 115, "channel": 0}, {"type": "note_on", "time": 381, "note": 65, "velocity": 115, "channel": 0}, {"type": "note_off", "time": 840, "note": 65, "velocity": 115, "channel": 0}, {"type": "note_on", "time": 410, "note": 59, "velocity": 93, "channel": 0}, {"type": "note_off", "time": 459, "note": 59, "velocity": 93, "channel": 0}, {"type": "note_on", "time": 381, "note": 65, "velocity": 114, "channel": 0}, {"type": "note_off", "time": 2511, "note": 65, "velocity": 114, "channel": 0}, {"type": "note_on", "time": 102, "note": 68, "velocity": 116, "channel": 0}, {"type": "note_off", "time": 1153, "note": 68, "velocity": 116, "channel": 0}, {"type": "note_on", "time": 356, "note": 60, "velocity": 99, "channel": 0}, {"type": "note_off", "time": 263, "note": 60, "velocity": 99, "channel": 0}, {"type": "note_on", "time": 87, "note": 62, "velocity": 97, "channel": 0}, {"type": "note_off", "time": 469, "note": 62, "velocity": 97, "channel": 0}, {"type": "note_on", "time": 0, "note": 65, "velocity": 112, "channel": 0}, {"type": "note_off", "time": 1397, "note": 65, "velocity": 112, "channel": 0}, {"type": "note_on", "time": 39, "note": 68, "velocity": 116, "channel": 0}, {"type": "note_off", "time": 1270, "note": 68, "velocity": 116, "channel": 0}, {"type": "note_on", "time": 6048, "note": 68, "velocity": 117, "channel": 0}, {"type": "note_off", "time": 2130, "note": 68, "velocity": 117, "channel": 0}, {"type": "note_on", "time": 820, "note": 65, "velocity": 97, "channel": 0}, {"type": "note_off", "time": 410, "note": 65, "velocity": 97, "channel": 0}, {"type": "note_on", "time": 175, "note": 69, "velocity": 114, "channel": 0}, {"type": "note_off", "time": 448, "note": 69, "velocity": 114, "channel": 0}, {"type": "note_on", "time": 50, "note": 71, "velocity": 9, "channel": 0}, {"type": "note_off", "time": 1123, "note": 71, "velocity": 9, "channel": 0}, {"type": "note_on", "time": 39, "note": 70, "velocity": 115, "channel": 0}, {"type": "note_off", "time": 8530, "note": 70, "velocity": 115, "channel": 0}, {"type": "note_on", "time": 214, "note": 68, "velocity": 115, "channel": 0}, {"type": "note_off", "time": 1211, "note": 68, "velocity": 115, "channel": 0}, {"type": "note_on", "time": 361, "note": 65, "velocity": 112, "channel": 0}, {"type": "note_off", "time": 713, "note": 65, "velocity": 112, "channel": 0}, {"type": "note_on", "time": 781, "note": 71, "velocity": 115, "channel": 0}, {"type": "note_off", "time": 664, "note": 71, "velocity": 115, "channel": 0}, {"type": "note_on", "time": 0, "note": 70, "velocity": 113, "channel": 0}, {"type": "note_off", "time": 703, "note": 70, "velocity": 113, "channel": 0}, {"type": "note_on", "time": 0, "note": 68, "velocity": 111, "channel": 0}, {"type": "note_off", "time": 596, "note": 68, "velocity": 111, "channel": 0}, {"type": "note_on", "time": 57, "note": 65, "velocity": 111, "channel": 0}, {"type": "note_off", "time": 1118, "note": 65, "velocity": 111, "channel": 0}, {"type": "note_on", "time": 563, "note": 68, "velocity": 115, "channel": 0}, {"type": "note_off", "time": 1397, "note": 68, "velocity": 115, "channel": 0}, {"type": "note_on", "time": 850, "note": 70, "velocity": 113, "channel": 0}, {"type": "note_off", "time": 1270, "note": 70, "velocity": 113, "channel": 0}, {"type": "note_on", "time": 166, "note": 65, "velocity": 111, "channel": 0}, {"type": "note_off", "time": 1162, "note": 65, "velocity": 111, "channel": 0}, {"type": "note_on", "time": 293, "note": 68, "velocity": 114, "channel": 0}, {"type": "note_off", "time": 2921, "note": 68, "velocity": 114, "channel": 0}, {"type": "note_on", "time": 332, "note": 70, "velocity": 113, "channel": 0}, {"type": "note_off", "time": 1348, "note": 70, "velocity": 113, "channel": 0}, {"type": "note_on", "time": 185, "note": 65, "velocity": 109, "channel": 0}, {"type": "note_off", "time": 771, "note": 65, "velocity": 109, "channel": 0}, {"type": "note_on", "time": 576, "note": 68, "velocity": 113, "channel": 0}, {"type": "note_off", "time": 1319, "note": 68, "velocity": 113, "channel": 0}, {"type": "note_on", "time": 312, "note": 65, "velocity": 108, "channel": 0}, {"type": "note_off", "time": 1035, "note": 65, "velocity": 108, "channel": 0}, {"type": "note_on", "time": 5129, "note": 68, "velocity": 115, "channel": 0}, {"type": "note_off", "time": 1026, "note": 68, "velocity": 115, "channel": 0}, {"type": "note_on", "time": 58, "note": 65, "velocity": 111, "channel": 0}, {"type": "note_off", "time": 547, "note": 65, "velocity": 111, "channel": 0}, {"type": "note_on", "time": 576, "note": 70, "velocity": 117, "channel": 0}, {"type": "note_off", "time": 986, "note": 70, "velocity": 117, "channel": 0}, {"type": "note_on", "time": 136, "note": 68, "velocity": 118, "channel": 0}, {"type": "note_off", "time": 1465, "note": 68, "velocity": 118, "channel": 0}, {"type": "note_on", "time": 469, "note": 68, "velocity": 113, "channel": 0}, {"type": "note_off", "time": 928, "note": 68, "velocity": 113, "channel": 0}, {"type": "note_on", "time": 195, "note": 65, "velocity": 99, "channel": 0}, {"type": "note_off", "time": 439, "note": 65, "velocity": 99, "channel": 0}, {"type": "note_on", "time": 146, "note": 68, "velocity": 115, "channel": 0}, {"type": "note_off", "time": 3498, "note": 68, "velocity": 115, "channel": 0}, {"type": "note_on", "time": 9380, "note": 68, "velocity": 108, "channel": 0}, {"type": "note_off", "time": 879, "note": 68, "velocity": 108, "channel": 0}, {"type": "note_on", "time": 175, "note": 65, "velocity": 108, "channel": 0}, {"type": "note_off", "time": 664, "note": 65, "velocity": 108, "channel": 0}, {"type": "note_on", "time": 498, "note": 70, "velocity": 115, "channel": 0}, {"type": "note_off", "time": 1260, "note": 70, "velocity": 115, "channel": 0}, {"type": "note_on", "time": 103, "note": 68, "velocity": 118, "channel": 0}, {"type": "note_off", "time": 1167, "note": 68, "velocity": 118, "channel": 0}, {"type": "note_on", "time": 918, "note": 68, "velocity": 114, "channel": 0}, {"type": "note_off", "time": 801, "note": 68, "velocity": 114, "channel": 0}, {"type": "note_on", "time": 683, "note": 68, "velocity": 111, "channel": 0}, {"type": "note_off", "time": 732, "note": 68, "velocity": 111, "channel": 0}, {"type": "note_on", "time": 622, "note": 67, "velocity": 114, "channel": 0}, {"type": "note_off", "time": 361, "note": 67, "velocity": 114, "channel": 0}, {"type": "note_on", "time": 48, "note": 68, "velocity": 111, "channel": 0}, {"type": "note_off", "time": 1751, "note": 68, "velocity": 111, "channel": 0}, {"type": "note_on", "time": 167, "note": 65, "velocity": 110, "channel": 0}, {"type": "note_off", "time": 742, "note": 65, "velocity": 110, "channel": 0}, {"type": "note_on", "time": 78, "note": 63, "velocity": 100, "channel": 0}, {"type": "note_off", "time": 498, "note": 63, "velocity": 100, "channel": 0}, {"type": "note_on", "time": 257, "note": 65, "velocity": 111, "channel": 0}, {"type": "note_off", "time": 1959, "note": 65, "velocity": 111, "channel": 0}, {"type": "note_on", "time": 5394, "note": 68, "velocity": 113, "channel": 0}, {"type": "note_off", "time": 1035, "note": 68, "velocity": 113, "channel": 0}, {"type": "note_on", "time": 97, "note": 65, "velocity": 116, "channel": 0}, {"type": "note_off", "time": 1035, "note": 65, "velocity": 116, "channel": 0}, {"type": "note_on", "time": 0, "note": 67, "velocity": 109, "channel": 0}, {"type": "note_off", "time": 244, "note": 67, "velocity": 109, "channel": 0}, {"type": "note_on", "time": 29, "note": 70, "velocity": 105, "channel": 0}, {"type": "note_off", "time": 596, "note": 70, "velocity": 105, "channel": 0}, {"type": "note_on", "time": 64, "note": 76, "velocity": 112, "channel": 0}, {"type": "note_off", "time": 288, "note": 76, "velocity": 112, "channel": 0}, {"type": "note_on", "time": 52, "note": 77, "velocity": 117, "channel": 0}, {"type": "note_off", "time": 6823, "note": 77, "velocity": 117, "channel": 0}, {"type": "note_on", "time": 422, "note": 69, "velocity": 115, "channel": 0}, {"type": "note_off", "time": 410, "note": 69, "velocity": 115, "channel": 0}, {"type": "note_on", "time": 29, "note": 70, "velocity": 111, "channel": 0}, {"type": "note_off", "time": 610, "note": 70, "velocity": 111, "channel": 0}, {"type": "note_on", "time": 219, "note": 68, "velocity": 114, "channel": 0}, {"type": "note_off", "time": 840, "note": 68, "velocity": 114, "channel": 0}, {"type": "note_on", "time": 78, "note": 65, "velocity": 98, "channel": 0}, {"type": "note_off", "time": 644, "note": 65, "velocity": 98, "channel": 0}, {"type": "note_on", "time": 190, "note": 68, "velocity": 112, "channel": 0}, {"type": "note_off", "time": 1570, "note": 68, "velocity": 112, "channel": 0}, {"type": "note_on", "time": 3964, "note": 75, "velocity": 117, "channel": 0}, {"type": "note_off", "time": 399, "note": 75, "velocity": 117, "channel": 0}, {"type": "note_on", "time": 27, "note": 77, "velocity": 115, "channel": 0}, {"type": "note_off", "time": 1195, "note": 77, "velocity": 115, "channel": 0}, {"type": "note_on", "time": 352, "note": 70, "velocity": 112, "channel": 0}, {"type": "note_off", "time": 420, "note": 70, "velocity": 112, "channel": 0}, {"type": "note_on", "time": 0, "note": 71, "velocity": 112, "channel": 0}, {"type": "note_off", "time": 762, "note": 71, "velocity": 112, "channel": 0}, {"type": "note_on", "time": 97, "note": 70, "velocity": 116, "channel": 0}, {"type": "note_off", "time": 4328, "note": 70, "velocity": 116, "channel": 0}, {"type": "note_on", "time": 87, "note": 68, "velocity": 116, "channel": 0}, {"type": "note_off", "time": 859, "note": 68, "velocity": 116, "channel": 0}, {"type": "note_on", "time": 214, "note": 65, "velocity": 117, "channel": 0}, {"type": "note_off", "time": 3292, "note": 65, "velocity": 117, "channel": 0}, {"type": "note_on", "time": 889, "note": 68, "velocity": 116, "channel": 0}, {"type": "note_off", "time": 439, "note": 68, "velocity": 116, "channel": 0}, {"type": "note_on", "time": 29, "note": 69, "velocity": 117, "channel": 0}, {"type": "note_off", "time": 859, "note": 69, "velocity": 117, "channel": 0}, {"type": "note_on", "time": 107, "note": 67, "velocity": 113, "channel": 0}, {"type": "note_off", "time": 498, "note": 67, "velocity": 113, "channel": 0}, {"type": "note_on", "time": 146, "note": 62, "velocity": 103, "channel": 0}, {"type": "note_off", "time": 332, "note": 62, "velocity": 103, "channel": 0}, {"type": "note_on", "time": 127, "note": 60, "velocity": 93, "channel": 0}, {"type": "note_off", "time": 566, "note": 60, "velocity": 93, "channel": 0}, {"type": "note_on", "time": 4612, "note": 60, "velocity": 103, "channel": 0}, {"type": "note_off", "time": 390, "note": 60, "velocity": 103, "channel": 0}, {"type": "note_on", "time": 205, "note": 69, "velocity": 119, "channel": 0}, {"type": "note_off", "time": 576, "note": 69, "velocity": 119, "channel": 0}, {"type": "note_on", "time": 0, "note": 70, "velocity": 115, "channel": 0}, {"type": "note_off", "time": 439, "note": 70, "velocity": 115, "channel": 0}, {"type": "note_on", "time": 48, "note": 69, "velocity": 119, "channel": 0}, {"type": "note_off", "time": 723, "note": 69, "velocity": 119, "channel": 0}, {"type": "note_on", "time": 136, "note": 67, "velocity": 118, "channel": 0}, {"type": "note_off", "time": 684, "note": 67, "velocity": 118, "channel": 0}, {"type": "note_on", "time": 9, "note": 66, "velocity": 118, "channel": 0}, {"type": "note_off", "time": 576, "note": 66, "velocity": 118, "channel": 0}, {"type": "note_on", "time": 214, "note": 57, "velocity": 102, "channel": 0}, {"type": "note_off", "time": 400, "note": 57, "velocity": 102, "channel": 0}, {"type": "note_on", "time": 39, "note": 60, "velocity": 111, "channel": 0}, {"type": "note_off", "time": 547, "note": 60, "velocity": 111, "channel": 0}, {"type": "note_on", "time": 205, "note": 63, "velocity": 126, "channel": 0}, {"type": "note_off", "time": 566, "note": 63, "velocity": 126, "channel": 0}, {"type": "note_on", "time": 29, "note": 62, "velocity": 118, "channel": 0}, {"type": "note_off", "time": 654, "note": 62, "velocity": 118, "channel": 0}, {"type": "note_on", "time": 68, "note": 60, "velocity": 116, "channel": 0}, {"type": "note_off", "time": 625, "note": 60, "velocity": 116, "channel": 0}, {"type": "note_on", "time": 48, "note": 59, "velocity": 113, "channel": 0}, {"type": "note_off", "time": 420, "note": 59, "velocity": 113, "channel": 0}, {"type": "note_on", "time": 48, "note": 57, "velocity": 107, "channel": 0}, {"type": "note_off", "time": 576, "note": 57, "velocity": 107, "channel": 0}, {"type": "note_on", "time": 97, "note": 58, "velocity": 109, "channel": 0}, {"type": "note_off", "time": 771, "note": 58, "velocity": 109, "channel": 0}, {"type": "note_on", "time": 244, "note": 65, "velocity": 122, "channel": 0}, {"type": "note_off", "time": 811, "note": 65, "velocity": 122, "channel": 0}, {"type": "note_on", "time": 195, "note": 64, "velocity": 115, "channel": 0}, {"type": "note_off", "time": 508, "note": 64, "velocity": 115, "channel": 0}, {"type": "note_on", "time": 244, "note": 65, "velocity": 119, "channel": 0}, {"type": "note_off", "time": 547, "note": 65, "velocity": 119, "channel": 0}, {"type": "note_on", "time": 537, "note": 70, "velocity": 117, "channel": 0}, {"type": "note_off", "time": 713, "note": 70, "velocity": 117, "channel": 0}, {"type": "note_on", "time": 78, "note": 69, "velocity": 108, "channel": 0}, {"type": "note_off", "time": 615, "note": 69, "velocity": 108, "channel": 0}, {"type": "note_on", "time": 9, "note": 70, "velocity": 118, "channel": 0}, {"type": "note_off", "time": 1016, "note": 70, "velocity": 118, "channel": 0}, {"type": "note_on", "time": 0, "note": 65, "velocity": 118, "channel": 0}, {"type": "note_off", "time": 771, "note": 65, "velocity": 118, "channel": 0}, {"type": "note_on", "time": 78, "note": 64, "velocity": 111, "channel": 0}, {"type": "note_off", "time": 498, "note": 64, "velocity": 111, "channel": 0}, {"type": "note_on", "time": 48, "note": 65, "velocity": 119, "channel": 0}, {"type": "note_off", "time": 986, "note": 65, "velocity": 119, "channel": 0}, {"type": "note_on", "time": 117, "note": 62, "velocity": 119, "channel": 0}, {"type": "note_off", "time": 869, "note": 62, "velocity": 119, "channel": 0}, {"type": "note_on", "time": 9, "note": 61, "velocity": 110, "channel": 0}, {"type": "note_off", "time": 605, "note": 61, "velocity": 110, "channel": 0}, {"type": "note_on", "time": 0, "note": 62, "velocity": 119, "channel": 0}, {"type": "note_off", "time": 938, "note": 62, "velocity": 119, "channel": 0}, {"type": "note_on", "time": 449, "note": 69, "velocity": 117, "channel": 0}, {"type": "note_off", "time": 596, "note": 69, "velocity": 117, "channel": 0}, {"type": "note_on", "time": 87, "note": 68, "velocity": 99, "channel": 0}, {"type": "note_off", "time": 517, "note": 68, "velocity": 99, "channel": 0}, {"type": "note_on", "time": 78, "note": 69, "velocity": 118, "channel": 0}, {"type": "note_off", "time": 889, "note": 69, "velocity": 118, "channel": 0}, {"type": "note_on", "time": 87, "note": 65, "velocity": 119, "channel": 0}, {"type": "note_off", "time": 859, "note": 65, "velocity": 119, "channel": 0}, {"type": "note_on", "time": 0, "note": 64, "velocity": 114, "channel": 0}, {"type": "note_off", "time": 498, "note": 64, "velocity": 114, "channel": 0}, {"type": "note_on", "time": 107, "note": 65, "velocity": 120, "channel": 0}, {"type": "note_off", "time": 742, "note": 65, "velocity": 120, "channel": 0}, {"type": "note_on", "time": 469, "note": 67, "velocity": 119, "channel": 0}, {"type": "note_off", "time": 762, "note": 67, "velocity": 119, "channel": 0}, {"type": "note_on", "time": 0, "note": 66, "velocity": 110, "channel": 0}, {"type": "note_off", "time": 508, "note": 66, "velocity": 110, "channel": 0}, {"type": "note_on", "time": 0, "note": 67, "velocity": 118, "channel": 0}, {"type": "note_off", "time": 732, "note": 67, "velocity": 118, "channel": 0}, {"type": "note_on", "time": 9, "note": 64, "velocity": 121, "channel": 0}, {"type": "note_off", "time": 576, "note": 64, "velocity": 121, "channel": 0}, {"type": "note_on", "time": 107, "note": 62, "velocity": 106, "channel": 0}, {"type": "note_off", "time": 527, "note": 62, "velocity": 106, "channel": 0}, {"type": "note_on", "time": 87, "note": 60, "velocity": 101, "channel": 0}, {"type": "note_off", "time": 429, "note": 60, "velocity": 101, "channel": 0}, {"type": "note_on", "time": 97, "note": 65, "velocity": 120, "channel": 0}, {"type": "note_off", "time": 742, "note": 65, "velocity": 120, "channel": 0}, {"type": "note_on", "time": 29, "note": 62, "velocity": 119, "channel": 0}, {"type": "note_off", "time": 605, "note": 62, "velocity": 119, "channel": 0}, {"type": "note_on", "time": 68, "note": 58, "velocity": 103, "channel": 0}, {"type": "note_off", "time": 420, "note": 58, "velocity": 103, "channel": 0}, {"type": "note_on", "time": 214, "note": 55, "velocity": 112, "channel": 0}, {"type": "note_off", "time": 381, "note": 55, "velocity": 112, "channel": 0}, {"type": "note_on", "time": 146, "note": 57, "velocity": 108, "channel": 0}, {"type": "note_off", "time": 654, "note": 57, "velocity": 108, "channel": 0}, {"type": "note_on", "time": 78, "note": 60, "velocity": 101, "channel": 0}, {"type": "note_off", "time": 3146, "note": 60, "velocity": 101, "channel": 0}, {"type": "note_on", "time": 1719, "note": 60, "velocity": 116, "channel": 0}, {"type": "note_off", "time": 752, "note": 60, "velocity": 116, "channel": 0}, {"type": "note_on", "time": 39, "note": 59, "velocity": 101, "channel": 0}, {"type": "note_off", "time": 381, "note": 59, "velocity": 101, "channel": 0}, {"type": "note_on", "time": 107, "note": 58, "velocity": 101, "channel": 0}, {"type": "note_off", "time": 742, "note": 58, "velocity": 101, "channel": 0}, {"type": "note_on", "time": 107, "note": 65, "velocity": 117, "channel": 0}, {"type": "note_off", "time": 615, "note": 65, "velocity": 117, "channel": 0}, {"type": "note_on", "time": 48, "note": 62, "velocity": 117, "channel": 0}, {"type": "note_off", "time": 586, "note": 62, "velocity": 117, "channel": 0}, {"type": "note_on", "time": 9, "note": 58, "velocity": 107, "channel": 0}, {"type": "note_off", "time": 420, "note": 58, "velocity": 107, "channel": 0}, {"type": "note_on", "time": 214, "note": 57, "velocity": 110, "channel": 0}, {"type": "note_off", "time": 781, "note": 57, "velocity": 110, "channel": 0}, {"type": "note_on", "time": 58, "note": 55, "velocity": 105, "channel": 0}, {"type": "note_off", "time": 2218, "note": 55, "velocity": 105, "channel": 0}, {"type": "note_on", "time": 3380, "note": 60, "velocity": 118, "channel": 0}, {"type": "note_off", "time": 908, "note": 60, "velocity": 118, "channel": 0}, {"type": "note_on", "time": 390, "note": 64, "velocity": 123, "channel": 0}, {"type": "note_off", "time": 674, "note": 64, "velocity": 123, "channel": 0}, {"type": "note_on", "time": 78, "note": 65, "velocity": 121, "channel": 0}, {"type": "note_off", "time": 625, "note": 65, "velocity": 121, "channel": 0}, {"type": "note_on", "time": 175, "note": 60, "velocity": 100, "channel": 0}, {"type": "note_off", "time": 732, "note": 60, "velocity": 100, "channel": 0}, {"type": "note_on", "time": 78, "note": 64, "velocity": 125, "channel": 0}, {"type": "note_off", "time": 1465, "note": 64, "velocity": 125, "channel": 0}, {"type": "note_on", "time": 68, "note": 65, "velocity": 123, "channel": 0}, {"type": "note_off", "time": 1377, "note": 65, "velocity": 123, "channel": 0}, {"type": "note_on", "time": 3351, "note": 60, "velocity": 112, "channel": 0}, {"type": "note_off", "time": 693, "note": 60, "velocity": 112, "channel": 0}, {"type": "note_on", "time": 605, "note": 64, "velocity": 119, "channel": 0}, {"type": "note_off", "time": 830, "note": 64, "velocity": 119, "channel": 0}, {"type": "note_on", "time": 0, "note": 65, "velocity": 108, "channel": 0}, {"type": "note_off", "time": 762, "note": 65, "velocity": 108, "channel": 0}, {"type": "note_on", "time": 78, "note": 60, "velocity": 93, "channel": 0}, {"type": "note_off", "time": 635, "note": 60, "velocity": 93, "channel": 0}, {"type": "note_on", "time": 107, "note": 64, "velocity": 124, "channel": 0}, {"type": "note_off", "time": 1485, "note": 64, "velocity": 124, "channel": 0}, {"type": "note_on", "time": 19, "note": 65, "velocity": 107, "channel": 0}, {"type": "note_off", "time": 3146, "note": 65, "velocity": 107, "channel": 0}, {"type": "note_on", "time": 1612, "note": 60, "velocity": 116, "channel": 0}, {"type": "note_off", "time": 801, "note": 60, "velocity": 116, "channel": 0}, {"type": "note_on", "time": 498, "note": 64, "velocity": 124, "channel": 0}, {"type": "note_off", "time": 850, "note": 64, "velocity": 124, "channel": 0}, {"type": "note_on", "time": 97, "note": 65, "velocity": 121, "channel": 0}, {"type": "note_off", "time": 703, "note": 65, "velocity": 121, "channel": 0}, {"type": "note_on", "time": 87, "note": 60, "velocity": 100, "channel": 0}, {"type": "note_off", "time": 801, "note": 60, "velocity": 100, "channel": 0}, {"type": "note_on", "time": 48, "note": 64, "velocity": 122, "channel": 0}, {"type": "note_off", "time": 1260, "note": 64, "velocity": 122, "channel": 0}, {"type": "note_on", "time": 136, "note": 64, "velocity": 121, "channel": 0}, {"type": "note_off", "time": 615, "note": 64, "velocity": 121, "channel": 0}, {"type": "note_on", "time": 78, "note": 65, "velocity": 119, "channel": 0}, {"type": "note_off", "time": 3752, "note": 65, "velocity": 119, "channel": 0}, {"type": "note_on", "time": 0, "note": 63, "velocity": 123, "channel": 0}, {"type": "note_off", "time": 263, "note": 63, "velocity": 123, "channel": 0}, {"type": "note_on", "time": 97, "note": 62, "velocity": 123, "channel": 0}, {"type": "note_off", "time": 293, "note": 62, "velocity": 123, "channel": 0}, {"type": "note_on", "time": 87, "note": 60, "velocity": 114, "channel": 0}, {"type": "note_off", "time": 429, "note": 60, "velocity": 114, "channel": 0}, {"type": "note_on", "time": 195, "note": 59, "velocity": 101, "channel": 0}, {"type": "note_off", "time": 1221, "note": 59, "velocity": 101, "channel": 0}, {"type": "note_on", "time": 234, "note": 59, "velocity": 113, "channel": 0}, {"type": "note_off", "time": 2560, "note": 59, "velocity": 113, "channel": 0}, {"type": "note_on", "time": 7465, "note": 65, "velocity": 116, "channel": 0}, {"type": "note_off", "time": 791, "note": 65, "velocity": 116, "channel": 0}, {"type": "note_on", "time": 781, "note": 68, "velocity": 117, "channel": 0}, {"type": "note_off", "time": 1094, "note": 68, "velocity": 117, "channel": 0}, {"type": "note_on", "time": 58, "note": 67, "velocity": 119, "channel": 0}, {"type": "note_off", "time": 986, "note": 67, "velocity": 119, "channel": 0}, {"type": "note_on", "time": 0, "note": 65, "velocity": 101, "channel": 0}, {"type": "note_off", "time": 840, "note": 65, "velocity": 101, "channel": 0}, {"type": "note_on", "time": 39, "note": 68, "velocity": 118, "channel": 0}, {"type": "note_off", "time": 1338, "note": 68, "velocity": 118, "channel": 0}, {"type": "note_on", "time": 4270, "note": 65, "velocity": 118, "channel": 0}, {"type": "note_off", "time": 908, "note": 65, "velocity": 118, "channel": 0}, {"type": "note_on", "time": 302, "note": 68, "velocity": 116, "channel": 0}, {"type": "note_off", "time": 967, "note": 68, "velocity": 116, "channel": 0}, {"type": "note_on", "time": 29, "note": 67, "velocity": 118, "channel": 0}, {"type": "note_off", "time": 684, "note": 67, "velocity": 118, "channel": 0}, {"type": "note_on", "time": 117, "note": 65, "velocity": 102, "channel": 0}, {"type": "note_off", "time": 898, "note": 65, "velocity": 102, "channel": 0}, {"type": "note_on", "time": 97, "note": 68, "velocity": 118, "channel": 0}, {"type": "note_off", "time": 938, "note": 68, "velocity": 118, "channel": 0}, {"type": "note_on", "time": 234, "note": 59, "velocity": 106, "channel": 0}, {"type": "note_off", "time": 1153, "note": 59, "velocity": 106, "channel": 0}, {"type": "note_on", "time": 4817, "note": 68, "velocity": 118, "channel": 0}, {"type": "note_off", "time": 537, "note": 68, "velocity": 118, "channel": 0}, {"type": "note_on", "time": 9, "note": 69, "velocity": 120, "channel": 0}, {"type": "note_off", "time": 1934, "note": 69, "velocity": 120, "channel": 0}, {"type": "note_on", "time": 136, "note": 64, "velocity": 118, "channel": 0}, {"type": "note_off", "time": 332, "note": 64, "velocity": 118, "channel": 0}, {"type": "note_on", "time": 19, "note": 65, "velocity": 117, "channel": 0}, {"type": "note_off", "time": 1993, "note": 65, "velocity": 117, "channel": 0}, {"type": "note_on", "time": 224, "note": 59, "velocity": 107, "channel": 0}, {"type": "note_off", "time": 312, "note": 59, "velocity": 107, "channel": 0}, {"type": "note_on", "time": 58, "note": 60, "velocity": 105, "channel": 0}, {"type": "note_off", "time": 1744, "note": 60, "velocity": 105, "channel": 0}, {"type": "note_on", "time": 229, "note": 55, "velocity": 114, "channel": 0}, {"type": "note_off", "time": 459, "note": 55, "velocity": 114, "channel": 0}, {"type": "note_on", "time": 117, "note": 57, "velocity": 101, "channel": 0}, {"type": "note_off", "time": 1876, "note": 57, "velocity": 101, "channel": 0}, {"type": "note_on", "time": 156, "note": 57, "velocity": 110, "channel": 0}, {"type": "note_off", "time": 556, "note": 57, "velocity": 110, "channel": 0}, {"type": "note_on", "time": 195, "note": 58, "velocity": 107, "channel": 0}, {"type": "note_off", "time": 449, "note": 58, "velocity": 107, "channel": 0}, {"type": "note_on", "time": 214, "note": 57, "velocity": 104, "channel": 0}, {"type": "note_off", "time": 556, "note": 57, "velocity": 104, "channel": 0}, {"type": "note_on", "time": 87, "note": 55, "velocity": 106, "channel": 0}, {"type": "note_off", "time": 566, "note": 55, "velocity": 106, "channel": 0}, {"type": "note_on", "time": 234, "note": 54, "velocity": 107, "channel": 0}, {"type": "note_off", "time": 566, "note": 54, "velocity": 107, "channel": 0}, {"type": "note_on", "time": 87, "note": 57, "velocity": 105, "channel": 0}, {"type": "note_off", "time": 498, "note": 57, "velocity": 105, "channel": 0}, {"type": "note_on", "time": 78, "note": 60, "velocity": 113, "channel": 0}, {"type": "note_off", "time": 596, "note": 60, "velocity": 113, "channel": 0}, {"type": "note_on", "time": 87, "note": 62, "velocity": 120, "channel": 0}, {"type": "note_off", "time": 596, "note": 62, "velocity": 120, "channel": 0}, {"type": "note_on", "time": 107, "note": 63, "velocity": 125, "channel": 0}, {"type": "note_off", "time": 654, "note": 63, "velocity": 125, "channel": 0}, {"type": "note_on", "time": 29, "note": 62, "velocity": 122, "channel": 0}, {"type": "note_off", "time": 605, "note": 62, "velocity": 122, "channel": 0}, {"type": "note_on", "time": 58, "note": 56, "velocity": 104, "channel": 0}, {"type": "note_off", "time": 684, "note": 56, "velocity": 104, "channel": 0}, {"type": "note_on", "time": 19, "note": 54, "velocity": 104, "channel": 0}, {"type": "note_off", "time": 244, "note": 54, "velocity": 104, "channel": 0}, {"type": "note_on", "time": 439, "note": 55, "velocity": 110, "channel": 0}, {"type": "note_off", "time": 644, "note": 55, "velocity": 110, "channel": 0}, {"type": "note_on", "time": 640, "note": 55, "velocity": 102, "channel": 0}, {"type": "note_off", "time": 278, "note": 55, "velocity": 102, "channel": 0}, {"type": "note_on", "time": 48, "note": 58, "velocity": 95, "channel": 0}, {"type": "note_off", "time": 273, "note": 58, "velocity": 95, "channel": 0}, {"type": "note_on", "time": 58, "note": 62, "velocity": 113, "channel": 0}, {"type": "note_off", "time": 439, "note": 62, "velocity": 113, "channel": 0}, {"type": "note_on", "time": 166, "note": 69, "velocity": 119, "channel": 0}, {"type": "note_off", "time": 3869, "note": 69, "velocity": 119, "channel": 0}, {"type": "note_on", "time": 29, "note": 67, "velocity": 115, "channel": 0}, {"type": "note_off", "time": 459, "note": 67, "velocity": 115, "channel": 0}, {"type": "note_on", "time": 0, "note": 65, "velocity": 115, "channel": 0}, {"type": "note_off", "time": 195, "note": 65, "velocity": 115, "channel": 0}, {"type": "note_on", "time": 68, "note": 64, "velocity": 117, "channel": 0}, {"type": "note_off", "time": 664, "note": 64, "velocity": 117, "channel": 0}, {"type": "note_on", "time": 117, "note": 62, "velocity": 119, "channel": 0}, {"type": "note_off", "time": 527, "note": 62, "velocity": 119, "channel": 0}, {"type": "note_on", "time": 127, "note": 60, "velocity": 110, "channel": 0}, {"type": "note_off", "time": 615, "note": 60, "velocity": 110, "channel": 0}, {"type": "note_on", "time": 78, "note": 59, "velocity": 110, "channel": 0}, {"type": "note_off", "time": 556, "note": 59, "velocity": 110, "channel": 0}, {"type": "note_on", "time": 97, "note": 58, "velocity": 104, "channel": 0}, {"type": "note_off", "time": 400, "note": 58, "velocity": 104, "channel": 0}, {"type": "note_on", "time": 107, "note": 62, "velocity": 114, "channel": 0}, {"type": "note_off", "time": 596, "note": 62, "velocity": 114, "channel": 0}, {"type": "note_on", "time": 107, "note": 65, "velocity": 109, "channel": 0}, {"type": "note_off", "time": 488, "note": 65, "velocity": 109, "channel": 0}, {"type": "note_on", "time": 0, "note": 69, "velocity": 100, "channel": 0}, {"type": "note_off", "time": 556, "note": 69, "velocity": 100, "channel": 0}, {"type": "note_on", "time": 19, "note": 72, "velocity": 112, "channel": 0}, {"type": "note_off", "time": 674, "note": 72, "velocity": 112, "channel": 0}, {"type": "note_on", "time": 87, "note": 69, "velocity": 94, "channel": 0}, {"type": "note_off", "time": 537, "note": 69, "velocity": 94, "channel": 0}, {"type": "note_on", "time": 78, "note": 70, "velocity": 113, "channel": 0}, {"type": "note_off", "time": 664, "note": 70, "velocity": 113, "channel": 0}, {"type": "note_on", "time": 0, "note": 67, "velocity": 100, "channel": 0}, {"type": "note_off", "time": 674, "note": 67, "velocity": 100, "channel": 0}, {"type": "note_on", "time": 39, "note": 69, "velocity": 119, "channel": 0}, {"type": "note_off", "time": 625, "note": 69, "velocity": 119, "channel": 0}, {"type": "note_on", "time": 78, "note": 67, "velocity": 113, "channel": 0}, {"type": "note_off", "time": 674, "note": 67, "velocity": 113, "channel": 0}, {"type": "note_on", "time": 58, "note": 66, "velocity": 109, "channel": 0}, {"type": "note_off", "time": 537, "note": 66, "velocity": 109, "channel": 0}, {"type": "note_on", "time": 87, "note": 69, "velocity": 117, "channel": 0}, {"type": "note_off", "time": 576, "note": 69, "velocity": 117, "channel": 0}, {"type": "note_on", "time": 136, "note": 67, "velocity": 115, "channel": 0}, {"type": "note_off", "time": 537, "note": 67, "velocity": 115, "channel": 0}, {"type": "note_on", "time": 302, "note": 62, "velocity": 104, "channel": 0}, {"type": "note_off", "time": 488, "note": 62, "velocity": 104, "channel": 0}, {"type": "note_on", "time": 58, "note": 65, "velocity": 114, "channel": 0}, {"type": "note_off", "time": 644, "note": 65, "velocity": 114, "channel": 0}, {"type": "note_on", "time": 78, "note": 62, "velocity": 98, "channel": 0}, {"type": "note_off", "time": 420, "note": 62, "velocity": 98, "channel": 0}, {"type": "note_on", "time": 48, "note": 64, "velocity": 118, "channel": 0}, {"type": "note_off", "time": 586, "note": 64, "velocity": 118, "channel": 0}, {"type": "note_on", "time": 87, "note": 62, "velocity": 114, "channel": 0}, {"type": "note_off", "time": 742, "note": 62, "velocity": 114, "channel": 0}, {"type": "note_on", "time": 48, "note": 61, "velocity": 104, "channel": 0}, {"type": "note_off", "time": 459, "note": 61, "velocity": 104, "channel": 0}, {"type": "note_on", "time": 39, "note": 62, "velocity": 108, "channel": 0}, {"type": "note_off", "time": 547, "note": 62, "velocity": 108, "channel": 0}, {"type": "note_on", "time": 68, "note": 65, "velocity": 118, "channel": 0}, {"type": "note_on", "time": 683, "note": 62, "velocity": 112, "channel": 0}, {"type": "note_off", "time": 0, "note": 65, "velocity": 118, "channel": 0}, {"type": "note_off", "time": 664, "note": 62, "velocity": 112, "channel": 0}, {"type": "note_on", "time": 29, "note": 58, "velocity": 102, "channel": 0}, {"type": "note_off", "time": 488, "note": 58, "velocity": 102, "channel": 0}, {"type": "note_on", "time": 117, "note": 55, "velocity": 104, "channel": 0}, {"type": "note_off", "time": 508, "note": 55, "velocity": 104, "channel": 0}, {"type": "note_on", "time": 136, "note": 57, "velocity": 106, "channel": 0}, {"type": "note_off", "time": 596, "note": 57, "velocity": 106, "channel": 0}, {"type": "note_on", "time": 166, "note": 55, "velocity": 101, "channel": 0}, {"type": "note_off", "time": 664, "note": 55, "velocity": 101, "channel": 0}, {"type": "note_on", "time": 48, "note": 54, "velocity": 110, "channel": 0}, {"type": "note_off", "time": 439, "note": 54, "velocity": 110, "channel": 0}, {"type": "note_on", "time": 68, "note": 55, "velocity": 104, "channel": 0}, {"type": "note_off", "time": 410, "note": 55, "velocity": 104, "channel": 0}, {"type": "note_on", "time": 0, "note": 60, "velocity": 113, "channel": 0}, {"type": "note_off", "time": 781, "note": 60, "velocity": 113, "channel": 0}, {"type": "note_on", "time": 48, "note": 57, "velocity": 97, "channel": 0}, {"type": "note_off", "time": 576, "note": 57, "velocity": 97, "channel": 0}, {"type": "note_on", "time": 48, "note": 58, "velocity": 100, "channel": 0}, {"type": "note_off", "time": 224, "note": 58, "velocity": 100, "channel": 0}, {"type": "note_on", "time": 78, "note": 62, "velocity": 113, "channel": 0}, {"type": "note_off", "time": 508, "note": 62, "velocity": 113, "channel": 0}, {"type": "note_on", "time": 342, "note": 69, "velocity": 115, "channel": 0}, {"type": "note_off", "time": 664, "note": 69, "velocity": 115, "channel": 0}, {"type": "note_on", "time": 0, "note": 70, "velocity": 114, "channel": 0}, {"type": "note_off", "time": 586, "note": 70, "velocity": 114, "channel": 0}, {"type": "note_on", "time": 0, "note": 69, "velocity": 115, "channel": 0}, {"type": "note_off", "time": 713, "note": 69, "velocity": 115, "channel": 0}, {"type": "note_on", "time": 0, "note": 67, "velocity": 115, "channel": 0}, {"type": "note_off", "time": 684, "note": 67, "velocity": 115, "channel": 0}, {"type": "note_on", "time": 68, "note": 65, "velocity": 116, "channel": 0}, {"type": "note_off", "time": 527, "note": 65, "velocity": 116, "channel": 0}, {"type": "note_on", "time": 0, "note": 62, "velocity": 115, "channel": 0}, {"type": "note_off", "time": 684, "note": 62, "velocity": 115, "channel": 0}, {"type": "note_on", "time": 0, "note": 58, "velocity": 105, "channel": 0}, {"type": "note_off", "time": 517, "note": 58, "velocity": 105, "channel": 0}, {"type": "note_on", "time": 497, "note": 57, "velocity": 95, "channel": 0}, {"type": "note_off", "time": 1952, "note": 57, "velocity": 95, "channel": 0}, {"type": "note_on", "time": 2855, "note": 55, "velocity": 112, "channel": 0}, {"type": "note_off", "time": 576, "note": 55, "velocity": 112, "channel": 0}, {"type": "note_on", "time": 156, "note": 53, "velocity": 108, "channel": 0}, {"type": "note_off", "time": 576, "note": 53, "velocity": 108, "channel": 0}, {"type": "note_on", "time": 48, "note": 52, "velocity": 98, "channel": 0}, {"type": "note_off", "time": 254, "note": 52, "velocity": 98, "channel": 0}, {"type": "note_on", "time": 19, "note": 53, "velocity": 106, "channel": 0}, {"type": "note_off", "time": 713, "note": 53, "velocity": 106, "channel": 0}, {"type": "note_on", "time": 195, "note": 58, "velocity": 22, "channel": 0}, {"type": "note_off", "time": 576, "note": 58, "velocity": 22, "channel": 0}, {"type": "note_on", "time": 19, "note": 57, "velocity": 108, "channel": 0}, {"type": "note_off", "time": 762, "note": 57, "velocity": 108, "channel": 0}, {"type": "note_on", "time": 48, "note": 56, "velocity": 101, "channel": 0}, {"type": "note_off", "time": 381, "note": 56, "velocity": 101, "channel": 0}, {"type": "note_on", "time": 58, "note": 57, "velocity": 101, "channel": 0}, {"type": "note_on", "time": 723, "note": 62, "velocity": 124, "channel": 0}, {"type": "note_off", "time": 0, "note": 57, "velocity": 101, "channel": 0}, {"type": "note_off", "time": 791, "note": 62, "velocity": 124, "channel": 0}, {"type": "note_on", "time": 0, "note": 60, "velocity": 113, "channel": 0}, {"type": "note_off", "time": 498, "note": 60, "velocity": 113, "channel": 0}, {"type": "note_on", "time": 19, "note": 59, "velocity": 105, "channel": 0}, {"type": "note_off", "time": 488, "note": 59, "velocity": 105, "channel": 0}, {"type": "note_on", "time": 48, "note": 60, "velocity": 106, "channel": 0}, {"type": "note_off", "time": 693, "note": 60, "velocity": 106, "channel": 0}, {"type": "note_on", "time": 205, "note": 67, "velocity": 119, "channel": 0}, {"type": "note_off", "time": 605, "note": 67, "velocity": 119, "channel": 0}, {"type": "note_on", "time": 9, "note": 65, "velocity": 120, "channel": 0}, {"type": "note_off", "time": 361, "note": 65, "velocity": 120, "channel": 0}, {"type": "note_on", "time": 97, "note": 64, "velocity": 118, "channel": 0}, {"type": "note_off", "time": 449, "note": 64, "velocity": 118, "channel": 0}, {"type": "note_on", "time": 78, "note": 65, "velocity": 91, "channel": 0}, {"type": "note_off", "time": 586, "note": 65, "velocity": 91, "channel": 0}, {"type": "note_on", "time": 224, "note": 69, "velocity": 121, "channel": 0}, {"type": "note_off", "time": 732, "note": 69, "velocity": 121, "channel": 0}, {"type": "note_on", "time": 34, "note": 70, "velocity": 112, "channel": 0}, {"type": "note_off", "time": 561, "note": 70, "velocity": 112, "channel": 0}, {"type": "note_on", "time": 48, "note": 72, "velocity": 115, "channel": 0}, {"type": "note_off", "time": 351, "note": 72, "velocity": 115, "channel": 0}, {"type": "note_on", "time": 591, "note": 67, "velocity": 92, "channel": 0}, {"type": "note_off", "time": 234, "note": 67, "velocity": 92, "channel": 0}, {"type": "note_on", "time": 102, "note": 70, "velocity": 116, "channel": 0}, {"type": "note_off", "time": 771, "note": 70, "velocity": 116, "channel": 0}, {"type": "note_on", "time": 1407, "note": 65, "velocity": 105, "channel": 0}, {"type": "note_off", "time": 400, "note": 65, "velocity": 105, "channel": 0}, {"type": "note_on", "time": 0, "note": 69, "velocity": 118, "channel": 0}, {"type": "note_off", "time": 566, "note": 69, "velocity": 118, "channel": 0}, {"type": "note_on", "time": 0, "note": 68, "velocity": 117, "channel": 0}, {"type": "note_off", "time": 556, "note": 68, "velocity": 117, "channel": 0}, {"type": "note_on", "time": 39, "note": 67, "velocity": 117, "channel": 0}, {"type": "note_off", "time": 693, "note": 67, "velocity": 117, "channel": 0}, {"type": "note_on", "time": 9, "note": 66, "velocity": 116, "channel": 0}, {"type": "note_off", "time": 420, "note": 66, "velocity": 116, "channel": 0}, {"type": "note_on", "time": 107, "note": 65, "velocity": 119, "channel": 0}, {"type": "note_off", "time": 664, "note": 65, "velocity": 119, "channel": 0}, {"type": "note_on", "time": 87, "note": 62, "velocity": 119, "channel": 0}, {"type": "note_on", "time": 596, "note": 58, "velocity": 109, "channel": 0}, {"type": "note_off", "time": 0, "note": 62, "velocity": 119, "channel": 0}, {"type": "note_off", "time": 527, "note": 58, "velocity": 109, "channel": 0}, {"type": "note_on", "time": 637, "note": 56, "velocity": 108, "channel": 0}, {"type": "note_off", "time": 548, "note": 56, "velocity": 108, "channel": 0}, {"type": "note_on", "time": 34, "note": 57, "velocity": 108, "channel": 0}, {"type": "note_off", "time": 750, "note": 57, "velocity": 108, "channel": 0}, {"type": "note_on", "time": 270, "note": 60, "velocity": 99, "channel": 0}, {"type": "note_off", "time": 277, "note": 60, "velocity": 99, "channel": 0}, {"type": "note_on", "time": 88, "note": 64, "velocity": 104, "channel": 0}, {"type": "note_off", "time": 410, "note": 64, "velocity": 104, "channel": 0}, {"type": "note_on", "time": 97, "note": 67, "velocity": 119, "channel": 0}, {"type": "note_off", "time": 664, "note": 67, "velocity": 119, "channel": 0}, {"type": "note_on", "time": 0, "note": 65, "velocity": 114, "channel": 0}, {"type": "note_off", "time": 635, "note": 65, "velocity": 114, "channel": 0}, {"type": "note_on", "time": 48, "note": 64, "velocity": 110, "channel": 0}, {"type": "note_off", "time": 508, "note": 64, "velocity": 110, "channel": 0}, {"type": "note_on", "time": 48, "note": 65, "velocity": 95, "channel": 0}, {"type": "note_off", "time": 175, "note": 65, "velocity": 95, "channel": 0}, {"type": "note_on", "time": 205, "note": 69, "velocity": 118, "channel": 0}, {"type": "note_off", "time": 879, "note": 69, "velocity": 118, "channel": 0}, {"type": "note_on", "time": 0, "note": 72, "velocity": 109, "channel": 0}, {"type": "note_off", "time": 1719, "note": 72, "velocity": 109, "channel": 0}, {"type": "note_on", "time": 1504, "note": 60, "velocity": 97, "channel": 0}, {"type": "note_off", "time": 625, "note": 60, "velocity": 97, "channel": 0}, {"type": "note_on", "time": 39, "note": 62, "velocity": 87, "channel": 0}, {"type": "note_off", "time": 263, "note": 62, "velocity": 87, "channel": 0}, {"type": "note_on", "time": 175, "note": 67, "velocity": 94, "channel": 0}, {"type": "note_off", "time": 283, "note": 67, "velocity": 94, "channel": 0}, {"type": "note_on", "time": 68, "note": 70, "velocity": 113, "channel": 0}, {"type": "note_off", "time": 644, "note": 70, "velocity": 113, "channel": 0}, {"type": "note_on", "time": 239, "note": 67, "velocity": 96, "channel": 0}, {"type": "note_off", "time": 351, "note": 67, "velocity": 96, "channel": 0}, {"type": "note_on", "time": 14, "note": 69, "velocity": 117, "channel": 0}, {"type": "note_off", "time": 586, "note": 69, "velocity": 117, "channel": 0}, {"type": "note_on", "time": 68, "note": 66, "velocity": 101, "channel": 0}, {"type": "note_off", "time": 371, "note": 66, "velocity": 101, "channel": 0}, {"type": "note_on", "time": 214, "note": 67, "velocity": 114, "channel": 0}, {"type": "note_off", "time": 684, "note": 67, "velocity": 114, "channel": 0}, {"type": "note_on", "time": 0, "note": 63, "velocity": 123, "channel": 0}, {"type": "note_off", "time": 723, "note": 63, "velocity": 123, "channel": 0}, {"type": "note_on", "time": 0, "note": 62, "velocity": 118, "channel": 0}, {"type": "note_off", "time": 312, "note": 62, "velocity": 118, "channel": 0}, {"type": "note_on", "time": 68, "note": 60, "velocity": 113, "channel": 0}, {"type": "note_off", "time": 654, "note": 60, "velocity": 113, "channel": 0}, {"type": "note_on", "time": 107, "note": 58, "velocity": 110, "channel": 0}, {"type": "note_off", "time": 420, "note": 58, "velocity": 110, "channel": 0}, {"type": "note_on", "time": 146, "note": 55, "velocity": 101, "channel": 0}, {"type": "note_off", "time": 586, "note": 55, "velocity": 101, "channel": 0}, {"type": "note_on", "time": 48, "note": 57, "velocity": 107, "channel": 0}, {"type": "note_off", "time": 459, "note": 57, "velocity": 107, "channel": 0}, {"type": "note_on", "time": 732, "note": 63, "velocity": 121, "channel": 0}, {"type": "note_off", "time": 586, "note": 63, "velocity": 121, "channel": 0}, {"type": "note_on", "time": 107, "note": 66, "velocity": 115, "channel": 0}, {"type": "note_off", "time": 654, "note": 66, "velocity": 115, "channel": 0}, {"type": "note_on", "time": 97, "note": 65, "velocity": 116, "channel": 0}, {"type": "note_off", "time": 332, "note": 65, "velocity": 116, "channel": 0}, {"type": "note_on", "time": 68, "note": 63, "velocity": 123, "channel": 0}, {"type": "note_off", "time": 615, "note": 63, "velocity": 123, "channel": 0}, {"type": "note_on", "time": 29, "note": 62, "velocity": 120, "channel": 0}, {"type": "note_off", "time": 693, "note": 62, "velocity": 120, "channel": 0}, {"type": "note_on", "time": 205, "note": 53, "velocity": 103, "channel": 0}, {"type": "note_off", "time": 693, "note": 53, "velocity": 103, "channel": 0}, {"type": "note_on", "time": 351, "note": 57, "velocity": 104, "channel": 0}, {"type": "note_off", "time": 332, "note": 57, "velocity": 104, "channel": 0}, {"type": "note_on", "time": 195, "note": 60, "velocity": 118, "channel": 0}, {"type": "note_off", "time": 713, "note": 60, "velocity": 118, "channel": 0}, {"type": "note_on", "time": 0, "note": 57, "velocity": 102, "channel": 0}, {"type": "note_off", "time": 429, "note": 57, "velocity": 102, "channel": 0}, {"type": "note_on", "time": 127, "note": 58, "velocity": 103, "channel": 0}, {"type": "note_off", "time": 566, "note": 58, "velocity": 103, "channel": 0}, {"type": "note_on", "time": 146, "note": 60, "velocity": 106, "channel": 0}, {"type": "note_off", "time": 420, "note": 60, "velocity": 106, "channel": 0}, {"type": "note_on", "time": 78, "note": 62, "velocity": 122, "channel": 0}, {"type": "note_off", "time": 693, "note": 62, "velocity": 122, "channel": 0}, {"type": "note_on", "time": 48, "note": 65, "velocity": 102, "channel": 0}, {"type": "note_off", "time": 429, "note": 65, "velocity": 102, "channel": 0}, {"type": "note_on", "time": 68, "note": 67, "velocity": 116, "channel": 0}, {"type": "note_off", "time": 859, "note": 67, "velocity": 116, "channel": 0}, {"type": "note_on", "time": 19, "note": 65, "velocity": 110, "channel": 0}, {"type": "note_off", "time": 488, "note": 65, "velocity": 110, "channel": 0}, {"type": "note_on", "time": 29, "note": 67, "velocity": 120, "channel": 0}, {"type": "note_off", "time": 332, "note": 67, "velocity": 120, "channel": 0}, {"type": "note_on", "time": 58, "note": 68, "velocity": 114, "channel": 0}, {"type": "note_on", "time": 605, "note": 67, "velocity": 117, "channel": 0}, {"type": "note_off", "time": 0, "note": 68, "velocity": 114, "channel": 0}, {"type": "note_off", "time": 635, "note": 67, "velocity": 117, "channel": 0}, {"type": "note_on", "time": 19, "note": 66, "velocity": 117, "channel": 0}, {"type": "note_off", "time": 615, "note": 66, "velocity": 117, "channel": 0}, {"type": "note_on", "time": 87, "note": 65, "velocity": 118, "channel": 0}, {"type": "note_off", "time": 576, "note": 65, "velocity": 118, "channel": 0}, {"type": "note_on", "time": 58, "note": 62, "velocity": 119, "channel": 0}, {"type": "note_off", "time": 576, "note": 62, "velocity": 119, "channel": 0}, {"type": "note_on", "time": 58, "note": 58, "velocity": 104, "channel": 0}, {"type": "note_off", "time": 576, "note": 58, "velocity": 104, "channel": 0}, {"type": "note_on", "time": 136, "note": 55, "velocity": 104, "channel": 0}, {"type": "note_off", "time": 429, "note": 55, "velocity": 104, "channel": 0}, {"type": "note_on", "time": 117, "note": 61, "velocity": 113, "channel": 0}, {"type": "note_off", "time": 713, "note": 61, "velocity": 113, "channel": 0}, {"type": "note_on", "time": 68, "note": 62, "velocity": 110, "channel": 0}, {"type": "note_off", "time": 488, "note": 62, "velocity": 110, "channel": 0}, {"type": "note_on", "time": 39, "note": 63, "velocity": 112, "channel": 0}, {"type": "note_off", "time": 547, "note": 63, "velocity": 112, "channel": 0}, {"type": "note_on", "time": 107, "note": 64, "velocity": 109, "channel": 0}, {"type": "note_off", "time": 410, "note": 64, "velocity": 109, "channel": 0}, {"type": "note_on", "time": 136, "note": 65, "velocity": 118, "channel": 0}, {"type": "note_off", "time": 664, "note": 65, "velocity": 118, "channel": 0}, {"type": "note_on", "time": 58, "note": 61, "velocity": 114, "channel": 0}, {"type": "note_off", "time": 791, "note": 61, "velocity": 114, "channel": 0}, {"type": "note_on", "time": 62, "note": 60, "velocity": 107, "channel": 0}, {"type": "note_off", "time": 323, "note": 60, "velocity": 107, "channel": 0}, {"type": "note_on", "time": 100, "note": 58, "velocity": 106, "channel": 0}, {"type": "note_off", "time": 406, "note": 58, "velocity": 106, "channel": 0}, {"type": "note_on", "time": 240, "note": 56, "velocity": 103, "channel": 0}, {"type": "note_off", "time": 1817, "note": 56, "velocity": 103, "channel": 0}, {"type": "note_on", "time": 185, "note": 53, "velocity": 106, "channel": 0}, {"type": "note_off", "time": 596, "note": 53, "velocity": 106, "channel": 0}, {"type": "note_on", "time": 39, "note": 55, "velocity": 109, "channel": 0}, {"type": "note_off", "time": 635, "note": 55, "velocity": 109, "channel": 0}, {"type": "note_on", "time": 175, "note": 52, "velocity": 98, "channel": 0}, {"type": "note_off", "time": 547, "note": 52, "velocity": 98, "channel": 0}, {"type": "note_on", "time": 273, "note": 53, "velocity": 96, "channel": 0}, {"type": "note_off", "time": 556, "note": 53, "velocity": 96, "channel": 0}, {"type": "note_on", "time": 166, "note": 57, "velocity": 103, "channel": 0}, {"type": "note_off", "time": 703, "note": 57, "velocity": 103, "channel": 0}, {"type": "note_on", "time": 107, "note": 60, "velocity": 96, "channel": 0}, {"type": "note_off", "time": 410, "note": 60, "velocity": 96, "channel": 0}, {"type": "note_on", "time": 68, "note": 62, "velocity": 121, "channel": 0}, {"type": "note_off", "time": 635, "note": 62, "velocity": 121, "channel": 0}, {"type": "note_on", "time": 97, "note": 60, "velocity": 100, "channel": 0}, {"type": "note_off", "time": 439, "note": 60, "velocity": 100, "channel": 0}, {"type": "note_on", "time": 127, "note": 64, "velocity": 117, "channel": 0}, {"type": "note_off", "time": 1084, "note": 64, "velocity": 117, "channel": 0}, {"type": "note_on", "time": 0, "note": 63, "velocity": 122, "channel": 0}, {"type": "note_off", "time": 703, "note": 63, "velocity": 122, "channel": 0}, {"type": "note_on", "time": 97, "note": 62, "velocity": 118, "channel": 0}, {"type": "note_off", "time": 478, "note": 62, "velocity": 118, "channel": 0}, {"type": "note_on", "time": 29, "note": 61, "velocity": 113, "channel": 0}, {"type": "note_off", "time": 469, "note": 61, "velocity": 113, "channel": 0}, {"type": "note_on", "time": 58, "note": 60, "velocity": 113, "channel": 0}, {"type": "note_off", "time": 1270, "note": 60, "velocity": 113, "channel": 0}, {"type": "note_on", "time": 3459, "note": 64, "velocity": 121, "channel": 0}, {"type": "note_off", "time": 488, "note": 64, "velocity": 121, "channel": 0}, {"type": "note_on", "time": 68, "note": 65, "velocity": 115, "channel": 0}, {"type": "note_off", "time": 258, "note": 65, "velocity": 115, "channel": 0}, {"type": "note_on", "time": 117, "note": 64, "velocity": 123, "channel": 0}, {"type": "note_off", "time": 366, "note": 64, "velocity": 123, "channel": 0}, {"type": "note_on", "time": 92, "note": 62, "velocity": 125, "channel": 0}, {"type": "note_off", "time": 561, "note": 62, "velocity": 125, "channel": 0}, {"type": "note_on", "time": 0, "note": 60, "velocity": 116, "channel": 0}, {"type": "note_off", "time": 615, "note": 60, "velocity": 116, "channel": 0}, {"type": "note_on", "time": 78, "note": 59, "velocity": 109, "channel": 0}, {"type": "note_off", "time": 537, "note": 59, "velocity": 109, "channel": 0}, {"type": "note_on", "time": 29, "note": 60, "velocity": 112, "channel": 0}, {"type": "note_off", "time": 576, "note": 60, "velocity": 112, "channel": 0}, {"type": "note_on", "time": 87, "note": 62, "velocity": 115, "channel": 0}, {"type": "note_off", "time": 605, "note": 62, "velocity": 115, "channel": 0}, {"type": "note_on", "time": 39, "note": 64, "velocity": 111, "channel": 0}, {"type": "note_off", "time": 478, "note": 64, "velocity": 111, "channel": 0}, {"type": "note_on", "time": 146, "note": 66, "velocity": 118, "channel": 0}, {"type": "note_off", "time": 732, "note": 66, "velocity": 118, "channel": 0}, {"type": "note_on", "time": 48, "note": 67, "velocity": 115, "channel": 0}, {"type": "note_off", "time": 1543, "note": 67, "velocity": 115, "channel": 0}, {"type": "note_on", "time": 107, "note": 62, "velocity": 121, "channel": 0}, {"type": "note_off", "time": 771, "note": 62, "velocity": 121, "channel": 0}, {"type": "note_on", "time": 1954, "note": 69, "velocity": 126, "channel": 0}, {"type": "note_off", "time": 596, "note": 69, "velocity": 126, "channel": 0}, {"type": "note_on", "time": 19, "note": 67, "velocity": 119, "channel": 0}, {"type": "note_off", "time": 478, "note": 67, "velocity": 119, "channel": 0}, {"type": "note_on", "time": 224, "note": 64, "velocity": 122, "channel": 0}, {"type": "note_off", "time": 684, "note": 64, "velocity": 122, "channel": 0}, {"type": "note_on", "time": 58, "note": 62, "velocity": 122, "channel": 0}, {"type": "note_off", "time": 508, "note": 62, "velocity": 122, "channel": 0}, {"type": "note_on", "time": 115, "note": 60, "velocity": 114, "channel": 0}, {"type": "note_off", "time": 437, "note": 60, "velocity": 114, "channel": 0}, {"type": "note_on", "time": 86, "note": 59, "velocity": 107, "channel": 0}, {"type": "note_off", "time": 462, "note": 59, "velocity": 107, "channel": 0}, {"type": "note_on", "time": 109, "note": 58, "velocity": 110, "channel": 0}, {"type": "note_off", "time": 556, "note": 58, "velocity": 110, "channel": 0}, {"type": "note_on", "time": 48, "note": 57, "velocity": 104, "channel": 0}, {"type": "note_off", "time": 596, "note": 57, "velocity": 104, "channel": 0}, {"type": "note_on", "time": 48, "note": 55, "velocity": 110, "channel": 0}, {"type": "note_off", "time": 517, "note": 55, "velocity": 110, "channel": 0}, {"type": "note_on", "time": 68, "note": 53, "velocity": 107, "channel": 0}, {"type": "note_off", "time": 439, "note": 53, "velocity": 107, "channel": 0}, {"type": "note_on", "time": 68, "note": 52, "velocity": 106, "channel": 0}, {"type": "note_off", "time": 390, "note": 52, "velocity": 106, "channel": 0}, {"type": "note_on", "time": 224, "note": 55, "velocity": 99, "channel": 0}, {"type": "note_off", "time": 361, "note": 55, "velocity": 99, "channel": 0}, {"type": "note_on", "time": 107, "note": 58, "velocity": 106, "channel": 0}, {"type": "note_off", "time": 703, "note": 58, "velocity": 106, "channel": 0}, {"type": "note_on", "time": 58, "note": 61, "velocity": 112, "channel": 0}, {"type": "note_off", "time": 879, "note": 61, "velocity": 112, "channel": 0}, {"type": "note_on", "time": 58, "note": 58, "velocity": 96, "channel": 0}, {"type": "note_off", "time": 390, "note": 58, "velocity": 96, "channel": 0}, {"type": "note_on", "time": 19, "note": 59, "velocity": 100, "channel": 0}, {"type": "note_off", "time": 439, "note": 59, "velocity": 100, "channel": 0}, {"type": "note_on", "time": 39, "note": 60, "velocity": 113, "channel": 0}, {"type": "note_off", "time": 781, "note": 60, "velocity": 113, "channel": 0}, {"type": "note_on", "time": 19, "note": 57, "velocity": 100, "channel": 0}, {"type": "note_off", "time": 498, "note": 57, "velocity": 100, "channel": 0}, {"type": "note_on", "time": 107, "note": 58, "velocity": 108, "channel": 0}, {"type": "note_off", "time": 576, "note": 58, "velocity": 108, "channel": 0}, {"type": "note_on", "time": 68, "note": 55, "velocity": 95, "channel": 0}, {"type": "note_off", "time": 351, "note": 55, "velocity": 95, "channel": 0}, {"type": "note_on", "time": 214, "note": 57, "velocity": 104, "channel": 0}, {"type": "note_off", "time": 1661, "note": 57, "velocity": 104, "channel": 0}, {"type": "note_on", "time": 166, "note": 53, "velocity": 102, "channel": 0}, {"type": "note_off", "time": 508, "note": 53, "velocity": 102, "channel": 0}, {"type": "note_on", "time": 127, "note": 55, "velocity": 113, "channel": 0}, {"type": "note_off", "time": 664, "note": 55, "velocity": 113, "channel": 0}, {"type": "note_on", "time": 39, "note": 53, "velocity": 109, "channel": 0}, {"type": "note_off", "time": 586, "note": 53, "velocity": 109, "channel": 0}, {"type": "note_on", "time": 0, "note": 52, "velocity": 104, "channel": 0}, {"type": "note_off", "time": 547, "note": 52, "velocity": 104, "channel": 0}, {"type": "note_on", "time": 19, "note": 53, "velocity": 100, "channel": 0}, {"type": "note_off", "time": 498, "note": 53, "velocity": 100, "channel": 0}, {"type": "note_on", "time": 127, "note": 57, "velocity": 110, "channel": 0}, {"type": "note_off", "time": 644, "note": 57, "velocity": 110, "channel": 0}, {"type": "note_on", "time": 39, "note": 60, "velocity": 102, "channel": 0}, {"type": "note_off", "time": 351, "note": 60, "velocity": 102, "channel": 0}, {"type": "note_on", "time": 146, "note": 62, "velocity": 118, "channel": 0}, {"type": "note_off", "time": 732, "note": 62, "velocity": 118, "channel": 0}, {"type": "note_on", "time": 68, "note": 60, "velocity": 100, "channel": 0}, {"type": "note_off", "time": 390, "note": 60, "velocity": 100, "channel": 0}, {"type": "note_on", "time": 283, "note": 65, "velocity": 115, "channel": 0}, {"type": "note_off", "time": 596, "note": 65, "velocity": 115, "channel": 0}, {"type": "note_on", "time": 48, "note": 63, "velocity": 119, "channel": 0}, {"type": "note_off", "time": 1582, "note": 63, "velocity": 119, "channel": 0}, {"type": "note_on", "time": 175, "note": 60, "velocity": 108, "channel": 0}, {"type": "note_off", "time": 498, "note": 60, "velocity": 108, "channel": 0}, {"type": "note_on", "time": 156, "note": 62, "velocity": 119, "channel": 0}, {"type": "note_off", "time": 566, "note": 62, "velocity": 119, "channel": 0}, {"type": "note_on", "time": 68, "note": 60, "velocity": 113, "channel": 0}, {"type": "note_off", "time": 684, "note": 60, "velocity": 113, "channel": 0}, {"type": "note_on", "time": 87, "note": 59, "velocity": 108, "channel": 0}, {"type": "note_off", "time": 400, "note": 59, "velocity": 108, "channel": 0}, {"type": "note_on", "time": 87, "note": 58, "velocity": 104, "channel": 0}, {"type": "note_off", "time": 478, "note": 58, "velocity": 104, "channel": 0}, {"type": "note_on", "time": 107, "note": 62, "velocity": 114, "channel": 0}, {"type": "note_off", "time": 596, "note": 62, "velocity": 114, "channel": 0}, {"type": "note_on", "time": 48, "note": 65, "velocity": 107, "channel": 0}, {"type": "note_off", "time": 488, "note": 65, "velocity": 107, "channel": 0}, {"type": "note_on", "time": 87, "note": 69, "velocity": 103, "channel": 0}, {"type": "note_off", "time": 449, "note": 69, "velocity": 103, "channel": 0}, {"type": "note_on", "time": 107, "note": 72, "velocity": 115, "channel": 0}, {"type": "note_off", "time": 820, "note": 72, "velocity": 115, "channel": 0}, {"type": "note_on", "time": 9, "note": 69, "velocity": 115, "channel": 0}, {"type": "note_off", "time": 918, "note": 69, "velocity": 115, "channel": 0}, {"type": "note_on", "time": 908, "note": 69, "velocity": 120, "channel": 0}, {"type": "note_off", "time": 1123, "note": 69, "velocity": 120, "channel": 0}, {"type": "note_on", "time": 10211, "note": 60, "velocity": 95, "channel": 0}, {"type": "note_off", "time": 254, "note": 60, "velocity": 95, "channel": 0}, {"type": "note_on", "time": 29, "note": 62, "velocity": 103, "channel": 0}, {"type": "note_off", "time": 195, "note": 62, "velocity": 103, "channel": 0}, {"type": "note_on", "time": 0, "note": 65, "velocity": 105, "channel": 0}, {"type": "note_on", "time": 273, "note": 69, "velocity": 100, "channel": 0}, {"type": "note_off", "time": 0, "note": 65, "velocity": 105, "channel": 0}, {"type": "note_off", "time": 586, "note": 69, "velocity": 100, "channel": 0}, {"type": "note_on", "time": 29, "note": 72, "velocity": 118, "channel": 0}, {"type": "note_off", "time": 732, "note": 72, "velocity": 118, "channel": 0}, {"type": "note_on", "time": 405, "note": 72, "velocity": 114, "channel": 0}, {"type": "note_off", "time": 752, "note": 72, "velocity": 114, "channel": 0}, {"type": "note_on", "time": 122, "note": 75, "velocity": 116, "channel": 0}, {"type": "note_off", "time": 659, "note": 75, "velocity": 116, "channel": 0}, {"type": "note_on", "time": 34, "note": 77, "velocity": 118, "channel": 0}, {"type": "note_off", "time": 654, "note": 77, "velocity": 118, "channel": 0}, {"type": "note_on", "time": 400, "note": 69, "velocity": 119, "channel": 0}, {"type": "note_off", "time": 566, "note": 69, "velocity": 119, "channel": 0}, {"type": "note_on", "time": 356, "note": 69, "velocity": 120, "channel": 0}, {"type": "note_off", "time": 771, "note": 69, "velocity": 120, "channel": 0}, {"type": "note_on", "time": 34, "note": 72, "velocity": 112, "channel": 0}, {"type": "note_off", "time": 605, "note": 72, "velocity": 112, "channel": 0}, {"type": "note_on", "time": 146, "note": 60, "velocity": 100, "channel": 0}, {"type": "note_off", "time": 547, "note": 60, "velocity": 100, "channel": 0}, {"type": "note_on", "time": 302, "note": 60, "velocity": 105, "channel": 0}, {"type": "note_off", "time": 635, "note": 60, "velocity": 105, "channel": 0}, {"type": "note_on", "time": 146, "note": 69, "velocity": 123, "channel": 0}, {"type": "note_off", "time": 703, "note": 69, "velocity": 123, "channel": 0}, {"type": "note_on", "time": 9, "note": 70, "velocity": 117, "channel": 0}, {"type": "note_on", "time": 439, "note": 71, "velocity": 114, "channel": 0}, {"type": "note_off", "time": 0, "note": 70, "velocity": 117, "channel": 0}, {"type": "note_off", "time": 127, "note": 71, "velocity": 114, "channel": 0}, {"type": "note_on", "time": 19, "note": 72, "velocity": 114, "channel": 0}, {"type": "note_off", "time": 351, "note": 72, "velocity": 114, "channel": 0}, {"type": "note_on", "time": 19, "note": 71, "velocity": 112, "channel": 0}, {"type": "note_off", "time": 166, "note": 71, "velocity": 112, "channel": 0}, {"type": "note_on", "time": 0, "note": 70, "velocity": 116, "channel": 0}, {"type": "note_off", "time": 576, "note": 70, "velocity": 116, "channel": 0}, {"type": "note_on", "time": 29, "note": 69, "velocity": 120, "channel": 0}, {"type": "note_off", "time": 732, "note": 69, "velocity": 120, "channel": 0}, {"type": "note_on", "time": 19, "note": 67, "velocity": 116, "channel": 0}, {"type": "note_off", "time": 605, "note": 67, "velocity": 116, "channel": 0}, {"type": "note_on", "time": 39, "note": 65, "velocity": 118, "channel": 0}, {"type": "note_off", "time": 625, "note": 65, "velocity": 118, "channel": 0}, {"type": "note_on", "time": 78, "note": 64, "velocity": 112, "channel": 0}, {"type": "note_off", "time": 576, "note": 64, "velocity": 112, "channel": 0}, {"type": "note_on", "time": 127, "note": 67, "velocity": 119, "channel": 0}, {"type": "note_off", "time": 556, "note": 67, "velocity": 119, "channel": 0}, {"type": "note_on", "time": 0, "note": 65, "velocity": 117, "channel": 0}, {"type": "note_off", "time": 615, "note": 65, "velocity": 117, "channel": 0}, {"type": "note_on", "time": 58, "note": 64, "velocity": 114, "channel": 0}, {"type": "note_off", "time": 576, "note": 64, "velocity": 114, "channel": 0}, {"type": "note_on", "time": 58, "note": 62, "velocity": 111, "channel": 0}, {"type": "note_off", "time": 517, "note": 62, "velocity": 111, "channel": 0}, {"type": "note_on", "time": 68, "note": 65, "velocity": 119, "channel": 0}, {"type": "note_off", "time": 674, "note": 65, "velocity": 119, "channel": 0}, {"type": "note_on", "time": 39, "note": 62, "velocity": 117, "channel": 0}, {"type": "note_off", "time": 654, "note": 62, "velocity": 117, "channel": 0}, {"type": "note_on", "time": 29, "note": 58, "velocity": 107, "channel": 0}, {"type": "note_off", "time": 605, "note": 58, "velocity": 107, "channel": 0}, {"type": "note_on", "time": 58, "note": 55, "velocity": 102, "channel": 0}, {"type": "note_off", "time": 410, "note": 55, "velocity": 102, "channel": 0}, {"type": "note_on", "time": 19, "note": 57, "velocity": 96, "channel": 0}, {"type": "note_off", "time": 2042, "note": 57, "velocity": 96, "channel": 0}, {"type": "note_on", "time": 429, "note": 60, "velocity": 116, "channel": 0}, {"type": "note_off", "time": 801, "note": 60, "velocity": 116, "channel": 0}, {"type": "note_on", "time": 5608, "note": 60, "velocity": 115, "channel": 0}, {"type": "note_off", "time": 1153, "note": 60, "velocity": 115, "channel": 0}, {"type": "note_on", "time": 58, "note": 63, "velocity": 125, "channel": 0}, {"type": "note_off", "time": 459, "note": 63, "velocity": 125, "channel": 0}, {"type": "note_on", "time": 0, "note": 67, "velocity": 117, "channel": 0}, {"type": "note_off", "time": 351, "note": 67, "velocity": 117, "channel": 0}, {"type": "note_on", "time": 0, "note": 70, "velocity": 107, "channel": 0}, {"type": "note_off", "time": 361, "note": 70, "velocity": 107, "channel": 0}, {"type": "note_on", "time": 0, "note": 77, "velocity": 115, "channel": 0}, {"type": "note_off", "time": 869, "note": 77, "velocity": 115, "channel": 0}, {"type": "note_on", "time": 117, "note": 76, "velocity": 124, "channel": 0}, {"type": "note_off", "time": 371, "note": 76, "velocity": 124, "channel": 0}, {"type": "note_on", "time": 107, "note": 77, "velocity": 106, "channel": 0}, {"type": "note_off", "time": 1465, "note": 77, "velocity": 106, "channel": 0}, {"type": "note_on", "time": 68, "note": 74, "velocity": 117, "channel": 0}, {"type": "note_off", "time": 2286, "note": 74, "velocity": 117, "channel": 0}, {"type": "note_on", "time": 3312, "note": 53, "velocity": 110, "channel": 0}, {"type": "note_off", "time": 967, "note": 53, "velocity": 110, "channel": 0}, {"type": "note_on", "time": 117, "note": 56, "velocity": 108, "channel": 0}, {"type": "note_off", "time": 302, "note": 56, "velocity": 108, "channel": 0}, {"type": "note_on", "time": 78, "note": 60, "velocity": 111, "channel": 0}, {"type": "note_off", "time": 244, "note": 60, "velocity": 111, "channel": 0}, {"type": "note_on", "time": 117, "note": 62, "velocity": 117, "channel": 0}, {"type": "note_off", "time": 410, "note": 62, "velocity": 117, "channel": 0}, {"type": "note_on", "time": 9, "note": 67, "velocity": 116, "channel": 0}, {"type": "note_off", "time": 410, "note": 67, "velocity": 116, "channel": 0}, {"type": "note_on", "time": 21, "note": 70, "velocity": 110, "channel": 0}, {"type": "note_off", "time": 246, "note": 70, "velocity": 110, "channel": 0}, {"type": "note_on", "time": 132, "note": 74, "velocity": 117, "channel": 0}, {"type": "note_off", "time": 996, "note": 74, "velocity": 117, "channel": 0}, {"type": "note_on", "time": 19, "note": 70, "velocity": 115, "channel": 0}, {"type": "note_off", "time": 2149, "note": 70, "velocity": 115, "channel": 0}, {"type": "note_on", "time": 3174, "note": 66, "velocity": 119, "channel": 0}, {"type": "note_off", "time": 451, "note": 66, "velocity": 119, "channel": 0}, {"type": "note_on", "time": 97, "note": 68, "velocity": 118, "channel": 0}, {"type": "note_off", "time": 4196, "note": 68, "velocity": 118, "channel": 0}, {"type": "note_on", "time": 33, "note": 67, "velocity": 119, "channel": 0}, {"type": "note_off", "time": 302, "note": 67, "velocity": 119, "channel": 0}, {"type": "note_on", "time": 87, "note": 66, "velocity": 119, "channel": 0}, {"type": "note_off", "time": 263, "note": 66, "velocity": 119, "channel": 0}, {"type": "note_on", "time": 97, "note": 65, "velocity": 120, "channel": 0}, {"type": "note_on", "time": 293, "note": 63, "velocity": 125, "channel": 0}, {"type": "note_off", "time": 0, "note": 65, "velocity": 120, "channel": 0}, {"type": "note_off", "time": 224, "note": 63, "velocity": 125, "channel": 0}, {"type": "note_on", "time": 58, "note": 62, "velocity": 125, "channel": 0}, {"type": "note_off", "time": 332, "note": 62, "velocity": 125, "channel": 0}, {"type": "note_on", "time": 78, "note": 60, "velocity": 112, "channel": 0}, {"type": "note_off", "time": 312, "note": 60, "velocity": 112, "channel": 0}, {"type": "note_on", "time": 48, "note": 59, "velocity": 107, "channel": 0}, {"type": "note_off", "time": 527, "note": 59, "velocity": 107, "channel": 0}, {"type": "note_on", "time": 48, "note": 62, "velocity": 115, "channel": 0}, {"type": "note_off", "time": 371, "note": 62, "velocity": 115, "channel": 0}, {"type": "note_on", "time": 29, "note": 65, "velocity": 116, "channel": 0}, {"type": "note_off", "time": 351, "note": 65, "velocity": 116, "channel": 0}, {"type": "note_on", "time": 0, "note": 68, "velocity": 118, "channel": 0}, {"type": "note_off", "time": 508, "note": 68, "velocity": 118, "channel": 0}, {"type": "note_on", "time": 0, "note": 67, "velocity": 119, "channel": 0}, {"type": "note_off", "time": 4221, "note": 67, "velocity": 119, "channel": 0}, {"type": "note_on", "time": 117, "note": 65, "velocity": 119, "channel": 0}, {"type": "note_off", "time": 1065, "note": 65, "velocity": 119, "channel": 0}, {"type": "note_on", "time": 97, "note": 64, "velocity": 122, "channel": 0}, {"type": "note_off", "time": 879, "note": 64, "velocity": 122, "channel": 0}, {"type": "note_on", "time": 48, "note": 60, "velocity": 115, "channel": 0}, {"type": "note_off", "time": 928, "note": 60, "velocity": 115, "channel": 0}, {"type": "note_on", "time": 4123, "note": 57, "velocity": 111, "channel": 0}, {"type": "note_off", "time": 801, "note": 57, "velocity": 111, "channel": 0}, {"type": "note_on", "time": 39, "note": 58, "velocity": 108, "channel": 0}, {"type": "note_off", "time": 283, "note": 58, "velocity": 108, "channel": 0}, {"type": "note_on", "time": 78, "note": 60, "velocity": 112, "channel": 0}, {"type": "note_off", "time": 332, "note": 60, "velocity": 112, "channel": 0}, {"type": "note_on", "time": 0, "note": 62, "velocity": 115, "channel": 0}, {"type": "note_off", "time": 136, "note": 62, "velocity": 115, "channel": 0}, {"type": "note_on", "time": 107, "note": 64, "velocity": 123, "channel": 0}, {"type": "note_off", "time": 175, "note": 64, "velocity": 123, "channel": 0}, {"type": "note_on", "time": 175, "note": 67, "velocity": 119, "channel": 0}, {"type": "note_on", "time": 390, "note": 69, "velocity": 120, "channel": 0}, {"type": "note_off", "time": 0, "note": 67, "velocity": 119, "channel": 0}, {"type": "note_off", "time": 351, "note": 69, "velocity": 120, "channel": 0}, {"type": "note_on", "time": 19, "note": 67, "velocity": 118, "channel": 0}, {"type": "note_off", "time": 175, "note": 67, "velocity": 118, "channel": 0}, {"type": "note_on", "time": 0, "note": 70, "velocity": 119, "channel": 0}, {"type": "note_off", "time": 205, "note": 70, "velocity": 119, "channel": 0}, {"type": "note_on", "time": 9, "note": 71, "velocity": 120, "channel": 0}, {"type": "note_off", "time": 547, "note": 71, "velocity": 120, "channel": 0}, {"type": "note_on", "time": 68, "note": 72, "velocity": 116, "channel": 0}, {"type": "note_off", "time": 4006, "note": 72, "velocity": 116, "channel": 0}, {"type": "note_on", "time": 185, "note": 72, "velocity": 115, "channel": 0}, {"type": "note_off", "time": 302, "note": 72, "velocity": 115, "channel": 0}, {"type": "note_on", "time": 19, "note": 73, "velocity": 115, "channel": 0}, {"type": "note_off", "time": 1358, "note": 73, "velocity": 115, "channel": 0}, {"type": "note_on", "time": 29, "note": 71, "velocity": 113, "channel": 0}, {"type": "note_off", "time": 234, "note": 71, "velocity": 113, "channel": 0}, {"type": "note_on", "time": 58, "note": 70, "velocity": 117, "channel": 0}, {"type": "note_off", "time": 449, "note": 70, "velocity": 117, "channel": 0}, {"type": "note_on", "time": 97, "note": 68, "velocity": 118, "channel": 0}, {"type": "note_off", "time": 537, "note": 68, "velocity": 118, "channel": 0}, {"type": "note_on", "time": 39, "note": 66, "velocity": 117, "channel": 0}, {"type": "note_off", "time": 312, "note": 66, "velocity": 117, "channel": 0}, {"type": "note_on", "time": 77, "note": 65, "velocity": 119, "channel": 0}, {"type": "note_off", "time": 334, "note": 65, "velocity": 119, "channel": 0}, {"type": "note_on", "time": 47, "note": 63, "velocity": 125, "channel": 0}, {"type": "note_off", "time": 422, "note": 63, "velocity": 125, "channel": 0}, {"type": "note_on", "time": 36, "note": 61, "velocity": 117, "channel": 0}, {"type": "note_off", "time": 400, "note": 61, "velocity": 117, "channel": 0}, {"type": "note_on", "time": 0, "note": 59, "velocity": 111, "channel": 0}, {"type": "note_off", "time": 625, "note": 59, "velocity": 111, "channel": 0}, {"type": "note_on", "time": 78, "note": 58, "velocity": 109, "channel": 0}, {"type": "note_off", "time": 2061, "note": 58, "velocity": 109, "channel": 0}, {"type": "note_on", "time": 107, "note": 61, "velocity": 107, "channel": 0}, {"type": "note_off", "time": 278, "note": 61, "velocity": 107, "channel": 0}, {"type": "note_on", "time": 53, "note": 63, "velocity": 118, "channel": 0}, {"type": "note_off", "time": 322, "note": 63, "velocity": 118, "channel": 0}, {"type": "note_on", "time": 136, "note": 68, "velocity": 119, "channel": 0}, {"type": "note_off", "time": 322, "note": 68, "velocity": 119, "channel": 0}, {"type": "note_on", "time": 68, "note": 73, "velocity": 112, "channel": 0}, {"type": "note_off", "time": 469, "note": 73, "velocity": 112, "channel": 0}, {"type": "note_on", "time": 9, "note": 70, "velocity": 117, "channel": 0}, {"type": "note_off", "time": 1231, "note": 70, "velocity": 117, "channel": 0}, {"type": "note_on", "time": 2766, "note": 70, "velocity": 117, "channel": 0}, {"type": "note_off", "time": 448, "note": 70, "velocity": 117, "channel": 0}, {"type": "note_on", "time": 41, "note": 72, "velocity": 116, "channel": 0}, {"type": "note_off", "time": 9866, "note": 72, "velocity": 116, "channel": 0}, {"type": "note_on", "time": 644, "note": 69, "velocity": 123, "channel": 0}, {"type": "note_on", "time": 889, "note": 67, "velocity": 118, "channel": 0}, {"type": "note_off", "time": 0, "note": 69, "velocity": 123, "channel": 0}, {"type": "note_off", "time": 664, "note": 67, "velocity": 118, "channel": 0}, {"type": "note_on", "time": 181, "note": 65, "velocity": 107, "channel": 0}, {"type": "note_off", "time": 368, "note": 65, "velocity": 107, "channel": 0}, {"type": "note_on", "time": 104, "note": 67, "velocity": 118, "channel": 0}, {"type": "note_off", "time": 1807, "note": 67, "velocity": 118, "channel": 0}, {"type": "note_on", "time": 3243, "note": 71, "velocity": 111, "channel": 0}, {"type": "note_off", "time": 389, "note": 71, "velocity": 111, "channel": 0}, {"type": "note_on", "time": 80, "note": 74, "velocity": 112, "channel": 0}, {"type": "note_off", "time": 1504, "note": 74, "velocity": 112, "channel": 0}, {"type": "note_on", "time": 410, "note": 69, "velocity": 123, "channel": 0}, {"type": "note_off", "time": 762, "note": 69, "velocity": 123, "channel": 0}, {"type": "note_on", "time": 9, "note": 67, "velocity": 119, "channel": 0}, {"type": "note_off", "time": 703, "note": 67, "velocity": 119, "channel": 0}, {"type": "note_on", "time": 87, "note": 65, "velocity": 104, "channel": 0}, {"type": "note_off", "time": 322, "note": 65, "velocity": 104, "channel": 0}, {"type": "note_on", "time": 312, "note": 67, "velocity": 119, "channel": 0}, {"type": "note_off", "time": 4436, "note": 67, "velocity": 119, "channel": 0}, {"type": "note_on", "time": 1807, "note": 66, "velocity": 118, "channel": 0}, {"type": "note_off", "time": 293, "note": 66, "velocity": 118, "channel": 0}, {"type": "note_on", "time": 9, "note": 67, "velocity": 119, "channel": 0}, {"type": "note_off", "time": 2110, "note": 67, "velocity": 119, "channel": 0}, {"type": "note_on", "time": 19, "note": 65, "velocity": 108, "channel": 0}, {"type": "note_off", "time": 713, "note": 65, "velocity": 108, "channel": 0}, {"type": "note_on", "time": 56, "note": 67, "velocity": 106, "channel": 0}, {"type": "note_off", "time": 155, "note": 67, "velocity": 106, "channel": 0}, {"type": "note_on", "time": 47, "note": 69, "velocity": 107, "channel": 0}, {"type": "note_off", "time": 162, "note": 69, "velocity": 107, "channel": 0}, {"type": "note_on", "time": 19, "note": 72, "velocity": 114, "channel": 0}, {"type": "note_off", "time": 200, "note": 72, "velocity": 114, "channel": 0}, {"type": "note_on", "time": 41, "note": 74, "velocity": 114, "channel": 0}, {"type": "note_off", "time": 1157, "note": 74, "velocity": 114, "channel": 0}, {"type": "note_on", "time": 0, "note": 72, "velocity": 114, "channel": 0}, {"type": "note_off", "time": 1056, "note": 72, "velocity": 114, "channel": 0}, {"type": "note_on", "time": 319, "note": 66, "velocity": 120, "channel": 0}, {"type": "note_off", "time": 250, "note": 66, "velocity": 120, "channel": 0}, {"type": "note_on", "time": 34, "note": 67, "velocity": 117, "channel": 0}, {"type": "note_off", "time": 993, "note": 67, "velocity": 117, "channel": 0}, {"type": "note_on", "time": 27, "note": 66, "velocity": 117, "channel": 0}, {"type": "note_off", "time": 403, "note": 66, "velocity": 117, "channel": 0}, {"type": "note_on", "time": 111, "note": 67, "velocity": 120, "channel": 0}, {"type": "note_off", "time": 4447, "note": 67, "velocity": 120, "channel": 0}, {"type": "note_on", "time": 118, "note": 65, "velocity": 101, "channel": 0}, {"type": "note_off", "time": 562, "note": 65, "velocity": 101, "channel": 0}, {"type": "note_on", "time": 284, "note": 67, "velocity": 119, "channel": 0}, {"type": "note_off", "time": 1480, "note": 67, "velocity": 119, "channel": 0}, {"type": "note_on", "time": 13, "note": 65, "velocity": 118, "channel": 0}, {"type": "note_off", "time": 945, "note": 65, "velocity": 118, "channel": 0}, {"type": "note_on", "time": 20, "note": 62, "velocity": 117, "channel": 0}, {"type": "note_off", "time": 632, "note": 62, "velocity": 117, "channel": 0}, {"type": "note_on", "time": 48, "note": 63, "velocity": 119, "channel": 0}, {"type": "note_off", "time": 819, "note": 63, "velocity": 119, "channel": 0}, {"type": "note_on", "time": 13, "note": 62, "velocity": 106, "channel": 0}, {"type": "note_off", "time": 257, "note": 62, "velocity": 106, "channel": 0}, {"type": "note_on", "time": 62, "note": 63, "velocity": 121, "channel": 0}, {"type": "note_off", "time": 2543, "note": 63, "velocity": 121, "channel": 0}, {"type": "note_on", "time": 152, "note": 60, "velocity": 114, "channel": 0}, {"type": "note_off", "time": 1028, "note": 60, "velocity": 114, "channel": 0}, {"type": "note_on", "time": 48, "note": 60, "velocity": 108, "channel": 0}, {"type": "note_off", "time": 1876, "note": 60, "velocity": 108, "channel": 0}, {"type": "note_on", "time": 55, "note": 60, "velocity": 107, "channel": 0}, {"type": "note_off", "time": 2147, "note": 60, "velocity": 107, "channel": 0}, {"type": "note_on", "time": 2973, "note": 60, "velocity": 110, "channel": 0}, {"type": "note_off", "time": 806, "note": 60, "velocity": 110, "channel": 0}, {"type": "note_on", "time": 55, "note": 62, "velocity": 110, "channel": 0}, {"type": "note_off", "time": 646, "note": 62, "velocity": 110, "channel": 0}, {"type": "note_on", "time": 34, "note": 63, "velocity": 112, "channel": 0}, {"type": "note_off", "time": 187, "note": 63, "velocity": 112, "channel": 0}, {"type": "note_on", "time": 90, "note": 65, "velocity": 107, "channel": 0}, {"type": "note_off", "time": 326, "note": 65, "velocity": 107, "channel": 0}, {"type": "note_on", "time": 305, "note": 67, "velocity": 112, "channel": 0}, {"type": "note_off", "time": 979, "note": 67, "velocity": 112, "channel": 0}, {"type": "note_on", "time": 62, "note": 67, "velocity": 118, "channel": 0}, {"type": "note_off", "time": 701, "note": 67, "velocity": 118, "channel": 0}, {"type": "note_on", "time": 125, "note": 66, "velocity": 115, "channel": 0}, {"type": "note_off", "time": 729, "note": 66, "velocity": 115, "channel": 0}, {"type": "note_on", "time": 236, "note": 66, "velocity": 115, "channel": 0}, {"type": "note_off", "time": 861, "note": 66, "velocity": 115, "channel": 0}, {"type": "note_on", "time": 118, "note": 73, "velocity": 114, "channel": 0}, {"type": "note_off", "time": 2668, "note": 73, "velocity": 114, "channel": 0}, {"type": "note_on", "time": 312, "note": 71, "velocity": 114, "channel": 0}, {"type": "note_off", "time": 687, "note": 71, "velocity": 114, "channel": 0}, {"type": "note_on", "time": 62, "note": 72, "velocity": 110, "channel": 0}, {"type": "note_off", "time": 764, "note": 72, "velocity": 110, "channel": 0}, {"type": "note_on", "time": 674, "note": 70, "velocity": 113, "channel": 0}, {"type": "note_off", "time": 653, "note": 70, "velocity": 113, "channel": 0}, {"type": "note_on", "time": 145, "note": 67, "velocity": 102, "channel": 0}, {"type": "note_off", "time": 444, "note": 67, "velocity": 102, "channel": 0}, {"type": "note_on", "time": 27, "note": 68, "velocity": 116, "channel": 0}, {"type": "note_off", "time": 778, "note": 68, "velocity": 116, "channel": 0}, {"type": "note_on", "time": 257, "note": 65, "velocity": 114, "channel": 0}, {"type": "note_off", "time": 674, "note": 65, "velocity": 114, "channel": 0}, {"type": "note_on", "time": 41, "note": 68, "velocity": 116, "channel": 0}, {"type": "note_off", "time": 590, "note": 68, "velocity": 116, "channel": 0}, {"type": "note_on", "time": 83, "note": 67, "velocity": 118, "channel": 0}, {"type": "note_off", "time": 687, "note": 67, "velocity": 118, "channel": 0}, {"type": "note_on", "time": 0, "note": 65, "velocity": 119, "channel": 0}, {"type": "note_off", "time": 521, "note": 65, "velocity": 119, "channel": 0}, {"type": "note_on", "time": 55, "note": 63, "velocity": 83, "channel": 0}, {"type": "note_off", "time": 576, "note": 63, "velocity": 83, "channel": 0}, {"type": "note_on", "time": 0, "note": 62, "velocity": 121, "channel": 0}, {"type": "note_off", "time": 597, "note": 62, "velocity": 121, "channel": 0}, {"type": "note_on", "time": 83, "note": 60, "velocity": 114, "channel": 0}, {"type": "note_off", "time": 687, "note": 60, "velocity": 114, "channel": 0}, {"type": "note_on", "time": 0, "note": 58, "velocity": 104, "channel": 0}, {"type": "note_off", "time": 660, "note": 58, "velocity": 104, "channel": 0}, {"type": "note_on", "time": 0, "note": 59, "velocity": 104, "channel": 0}, {"type": "note_off", "time": 465, "note": 59, "velocity": 104, "channel": 0}, {"type": "note_on", "time": 180, "note": 60, "velocity": 117, "channel": 0}, {"type": "note_off", "time": 555, "note": 60, "velocity": 117, "channel": 0}, {"type": "note_on", "time": 104, "note": 56, "velocity": 110, "channel": 0}, {"type": "note_off", "time": 493, "note": 56, "velocity": 110, "channel": 0}, {"type": "note_on", "time": 55, "note": 55, "velocity": 110, "channel": 0}, {"type": "note_off", "time": 472, "note": 55, "velocity": 110, "channel": 0}, {"type": "note_on", "time": 125, "note": 53, "velocity": 113, "channel": 0}, {"type": "note_off", "time": 597, "note": 53, "velocity": 113, "channel": 0}, {"type": "note_on", "time": 118, "note": 51, "velocity": 103, "channel": 0}, {"type": "note_off", "time": 465, "note": 51, "velocity": 103, "channel": 0}, {"type": "note_on", "time": 0, "note": 58, "velocity": 109, "channel": 0}, {"type": "note_off", "time": 819, "note": 58, "velocity": 109, "channel": 0}, {"type": "note_on", "time": 27, "note": 55, "velocity": 101, "channel": 0}, {"type": "note_off", "time": 409, "note": 55, "velocity": 101, "channel": 0}, {"type": "note_on", "time": 6, "note": 56, "velocity": 111, "channel": 0}, {"type": "note_off", "time": 555, "note": 56, "velocity": 111, "channel": 0}, {"type": "note_on", "time": 0, "note": 53, "velocity": 103, "channel": 0}, {"type": "note_off", "time": 569, "note": 53, "velocity": 103, "channel": 0}, {"type": "note_on", "time": 48, "note": 55, "velocity": 114, "channel": 0}, {"type": "note_off", "time": 701, "note": 55, "velocity": 114, "channel": 0}, {"type": "note_on", "time": 41, "note": 53, "velocity": 115, "channel": 0}, {"type": "note_off", "time": 597, "note": 53, "velocity": 115, "channel": 0}, {"type": "note_on", "time": 13, "note": 52, "velocity": 107, "channel": 0}, {"type": "note_off", "time": 500, "note": 52, "velocity": 107, "channel": 0}, {"type": "note_on", "time": 0, "note": 53, "velocity": 97, "channel": 0}, {"type": "note_off", "time": 375, "note": 53, "velocity": 97, "channel": 0}, {"type": "note_on", "time": 180, "note": 57, "velocity": 111, "channel": 0}, {"type": "note_off", "time": 812, "note": 57, "velocity": 111, "channel": 0}, {"type": "note_on", "time": 0, "note": 60, "velocity": 103, "channel": 0}, {"type": "note_off", "time": 409, "note": 60, "velocity": 103, "channel": 0}, {"type": "note_on", "time": 118, "note": 62, "velocity": 121, "channel": 0}, {"type": "note_off", "time": 743, "note": 62, "velocity": 121, "channel": 0}, {"type": "note_on", "time": 41, "note": 60, "velocity": 104, "channel": 0}, {"type": "note_off", "time": 382, "note": 60, "velocity": 104, "channel": 0}, {"type": "note_on", "time": 48, "note": 63, "velocity": 121, "channel": 0}, {"type": "note_off", "time": 1236, "note": 63, "velocity": 121, "channel": 0}, {"type": "note_on", "time": 34, "note": 62, "velocity": 116, "channel": 0}, {"type": "note_off", "time": 667, "note": 62, "velocity": 116, "channel": 0}, {"type": "note_on", "time": 62, "note": 61, "velocity": 115, "channel": 0}, {"type": "note_off", "time": 597, "note": 61, "velocity": 115, "channel": 0}, {"type": "note_on", "time": 62, "note": 60, "velocity": 117, "channel": 0}, {"type": "note_off", "time": 694, "note": 60, "velocity": 117, "channel": 0}, {"type": "note_on", "time": 20, "note": 58, "velocity": 110, "channel": 0}, {"type": "note_off", "time": 576, "note": 58, "velocity": 110, "channel": 0}, {"type": "note_on", "time": 48, "note": 57, "velocity": 107, "channel": 0}, {"type": "note_off", "time": 646, "note": 57, "velocity": 107, "channel": 0}, {"type": "note_on", "time": 90, "note": 55, "velocity": 111, "channel": 0}, {"type": "note_off", "time": 604, "note": 55, "velocity": 111, "channel": 0}, {"type": "note_on", "time": 55, "note": 53, "velocity": 108, "channel": 0}, {"type": "note_off", "time": 625, "note": 53, "velocity": 108, "channel": 0}, {"type": "note_on", "time": 62, "note": 52, "velocity": 100, "channel": 0}, {"type": "note_off", "time": 305, "note": 52, "velocity": 100, "channel": 0}, {"type": "note_on", "time": 27, "note": 55, "velocity": 111, "channel": 0}, {"type": "note_off", "time": 903, "note": 55, "velocity": 111, "channel": 0}, {"type": "note_on", "time": 138, "note": 52, "velocity": 98, "channel": 0}, {"type": "note_off", "time": 270, "note": 52, "velocity": 98, "channel": 0}, {"type": "note_on", "time": 6, "note": 53, "velocity": 111, "channel": 0}, {"type": "note_off", "time": 528, "note": 53, "velocity": 111, "channel": 0}, {"type": "note_on", "time": 48, "note": 55, "velocity": 110, "channel": 0}, {"type": "note_off", "time": 771, "note": 55, "velocity": 110, "channel": 0}, {"type": "note_on", "time": 55, "note": 57, "velocity": 99, "channel": 0}, {"type": "note_off", "time": 486, "note": 57, "velocity": 99, "channel": 0}, {"type": "note_on", "time": 639, "note": 60, "velocity": 113, "channel": 0}, {"type": "note_off", "time": 771, "note": 60, "velocity": 113, "channel": 0}, {"type": "note_on", "time": 111, "note": 65, "velocity": 118, "channel": 0}, {"type": "note_off", "time": 771, "note": 65, "velocity": 118, "channel": 0}, {"type": "note_on", "time": 9623, "note": 69, "velocity": 116, "channel": 0}, {"type": "note_off", "time": 646, "note": 69, "velocity": 116, "channel": 0}, {"type": "note_on", "time": 76, "note": 70, "velocity": 115, "channel": 0}, {"type": "note_off", "time": 604, "note": 70, "velocity": 115, "channel": 0}, {"type": "note_on", "time": 132, "note": 65, "velocity": 116, "channel": 0}, {"type": "note_off", "time": 639, "note": 65, "velocity": 116, "channel": 0}, {"type": "note_on", "time": 0, "note": 61, "velocity": 118, "channel": 0}, {"type": "note_off", "time": 500, "note": 61, "velocity": 118, "channel": 0}, {"type": "note_on", "time": 13, "note": 60, "velocity": 112, "channel": 0}, {"type": "note_off", "time": 708, "note": 60, "velocity": 112, "channel": 0}, {"type": "note_on", "time": 48, "note": 58, "velocity": 97, "channel": 0}, {"type": "note_off", "time": 514, "note": 58, "velocity": 97, "channel": 0}, {"type": "note_on", "time": 83, "note": 63, "velocity": 126, "channel": 0}, {"type": "note_off", "time": 715, "note": 63, "velocity": 126, "channel": 0}, {"type": "note_on", "time": 6, "note": 60, "velocity": 108, "channel": 0}, {"type": "note_off", "time": 361, "note": 60, "velocity": 108, "channel": 0}, {"type": "note_on", "time": 62, "note": 61, "velocity": 110, "channel": 0}, {"type": "note_off", "time": 514, "note": 61, "velocity": 110, "channel": 0}, {"type": "note_on", "time": 34, "note": 65, "velocity": 102, "channel": 0}, {"type": "note_off", "time": 264, "note": 65, "velocity": 102, "channel": 0}, {"type": "note_on", "time": 83, "note": 68, "velocity": 99, "channel": 0}, {"type": "note_off", "time": 208, "note": 68, "velocity": 99, "channel": 0}, {"type": "note_on", "time": 34, "note": 72, "velocity": 114, "channel": 0}, {"type": "note_off", "time": 333, "note": 72, "velocity": 114, "channel": 0}, {"type": "note_on", "time": 41, "note": 71, "velocity": 117, "channel": 0}, {"type": "note_off", "time": 201, "note": 71, "velocity": 117, "channel": 0}, {"type": "note_on", "time": 83, "note": 70, "velocity": 115, "channel": 0}, {"type": "note_off", "time": 979, "note": 70, "velocity": 115, "channel": 0}, {"type": "note_on", "time": 5802, "note": 73, "velocity": 121, "channel": 0}, {"type": "note_off", "time": 508, "note": 73, "velocity": 121, "channel": 0}, {"type": "note_on", "time": 63, "note": 75, "velocity": 122, "channel": 0}, {"type": "note_off", "time": 552, "note": 75, "velocity": 122, "channel": 0}, {"type": "note_on", "time": 182, "note": 73, "velocity": 114, "channel": 0}, {"type": "note_off", "time": 646, "note": 73, "velocity": 114, "channel": 0}, {"type": "note_on", "time": 100, "note": 69, "velocity": 94, "channel": 0}, {"type": "note_off", "time": 104, "note": 69, "velocity": 94, "channel": 0}, {"type": "note_on", "time": 31, "note": 68, "velocity": 116, "channel": 0}, {"type": "note_off", "time": 694, "note": 68, "velocity": 116, "channel": 0}, {"type": "note_on", "time": 0, "note": 65, "velocity": 117, "channel": 0}, {"type": "note_off", "time": 145, "note": 65, "velocity": 117, "channel": 0}, {"type": "note_on", "time": 13, "note": 64, "velocity": 123, "channel": 0}, {"type": "note_off", "time": 368, "note": 64, "velocity": 123, "channel": 0}, {"type": "note_on", "time": 79, "note": 64, "velocity": 122, "channel": 0}, {"type": "note_off", "time": 215, "note": 64, "velocity": 122, "channel": 0}, {"type": "note_on", "time": 0, "note": 63, "velocity": 122, "channel": 0}, {"type": "note_off", "time": 541, "note": 63, "velocity": 122, "channel": 0}, {"type": "note_on", "time": 2400, "note": 60, "velocity": 98, "channel": 0}, {"type": "note_off", "time": 500, "note": 60, "velocity": 98, "channel": 0}, {"type": "note_on", "time": 750, "note": 72, "velocity": 117, "channel": 0}, {"type": "note_off", "time": 521, "note": 72, "velocity": 117, "channel": 0}, {"type": "note_on", "time": 368, "note": 69, "velocity": 120, "channel": 0}, {"type": "note_off", "time": 687, "note": 69, "velocity": 120, "channel": 0}, {"type": "note_on", "time": 951, "note": 70, "velocity": 120, "channel": 0}, {"type": "note_on", "time": 792, "note": 67, "velocity": 116, "channel": 0}, {"type": "note_off", "time": 0, "note": 70, "velocity": 120, "channel": 0}, {"type": "note_off", "time": 799, "note": 67, "velocity": 116, "channel": 0}, {"type": "note_on", "time": 701, "note": 69, "velocity": 123, "channel": 0}, {"type": "note_off", "time": 764, "note": 69, "velocity": 123, "channel": 0}, {"type": "note_on", "time": 76, "note": 65, "velocity": 120, "channel": 0}, {"type": "note_off", "time": 722, "note": 65, "velocity": 120, "channel": 0}, {"type": "note_on", "time": 3175, "note": 69, "velocity": 126, "channel": 0}, {"type": "note_on", "time": 639, "note": 68, "velocity": 120, "channel": 0}, {"type": "note_off", "time": 0, "note": 69, "velocity": 126, "channel": 0}, {"type": "note_off", "time": 507, "note": 68, "velocity": 120, "channel": 0}, {"type": "note_on", "time": 41, "note": 67, "velocity": 120, "channel": 0}, {"type": "note_off", "time": 778, "note": 67, "velocity": 120, "channel": 0}, {"type": "note_on", "time": 13, "note": 66, "velocity": 120, "channel": 0}, {"type": "note_off", "time": 500, "note": 66, "velocity": 120, "channel": 0}, {"type": "note_on", "time": 20, "note": 65, "velocity": 119, "channel": 0}, {"type": "note_off", "time": 660, "note": 65, "velocity": 119, "channel": 0}, {"type": "note_on", "time": 55, "note": 62, "velocity": 120, "channel": 0}, {"type": "note_off", "time": 625, "note": 62, "velocity": 120, "channel": 0}, {"type": "note_on", "time": 83, "note": 58, "velocity": 110, "channel": 0}, {"type": "note_off", "time": 458, "note": 58, "velocity": 110, "channel": 0}, {"type": "note_on", "time": 118, "note": 55, "velocity": 106, "channel": 0}, {"type": "note_off", "time": 479, "note": 55, "velocity": 106, "channel": 0}, {"type": "note_on", "time": 90, "note": 57, "velocity": 108, "channel": 0}, {"type": "note_off", "time": 1396, "note": 57, "velocity": 108, "channel": 0}, {"type": "note_on", "time": 173, "note": 60, "velocity": 103, "channel": 0}, {"type": "note_off", "time": 215, "note": 60, "velocity": 103, "channel": 0}, {"type": "note_on", "time": 295, "note": 64, "velocity": 99, "channel": 0}, {"type": "note_off", "time": 298, "note": 64, "velocity": 99, "channel": 0}, {"type": "note_on", "time": 177, "note": 67, "velocity": 121, "channel": 0}, {"type": "note_off", "time": 889, "note": 67, "velocity": 121, "channel": 0}, {"type": "note_on", "time": 69, "note": 67, "velocity": 121, "channel": 0}, {"type": "note_off", "time": 1118, "note": 67, "velocity": 121, "channel": 0}, {"type": "note_on", "time": 111, "note": 65, "velocity": 105, "channel": 0}, {"type": "note_off", "time": 444, "note": 65, "velocity": 105, "channel": 0}, {"type": "note_on", "time": 215, "note": 67, "velocity": 118, "channel": 0}, {"type": "note_off", "time": 993, "note": 67, "velocity": 118, "channel": 0}, {"type": "note_on", "time": 27, "note": 67, "velocity": 122, "channel": 0}, {"type": "note_off", "time": 812, "note": 67, "velocity": 122, "channel": 0}, {"type": "note_on", "time": 69, "note": 65, "velocity": 108, "channel": 0}, {"type": "note_off", "time": 493, "note": 65, "velocity": 108, "channel": 0}, {"type": "note_on", "time": 125, "note": 67, "velocity": 120, "channel": 0}, {"type": "note_off", "time": 1535, "note": 67, "velocity": 120, "channel": 0}, {"type": "note_on", "time": 145, "note": 65, "velocity": 114, "channel": 0}, {"type": "note_off", "time": 333, "note": 65, "velocity": 114, "channel": 0}, {"type": "note_on", "time": 472, "note": 67, "velocity": 120, "channel": 0}, {"type": "note_off", "time": 896, "note": 67, "velocity": 120, "channel": 0}, {"type": "note_on", "time": 41, "note": 70, "velocity": 119, "channel": 0}, {"type": "note_off", "time": 1070, "note": 70, "velocity": 119, "channel": 0}, {"type": "note_on", "time": 486, "note": 65, "velocity": 121, "channel": 0}, {"type": "note_off", "time": 896, "note": 65, "velocity": 121, "channel": 0}, {"type": "note_on", "time": 104, "note": 65, "velocity": 117, "channel": 0}, {"type": "note_off", "time": 868, "note": 65, "velocity": 117, "channel": 0}, {"type": "note_on", "time": 27, "note": 63, "velocity": 113, "channel": 0}, {"type": "note_off", "time": 569, "note": 63, "velocity": 113, "channel": 0}, {"type": "note_on", "time": 41, "note": 65, "velocity": 120, "channel": 0}, {"type": "note_off", "time": 840, "note": 65, "velocity": 120, "channel": 0}, {"type": "note_on", "time": 104, "note": 65, "velocity": 120, "channel": 0}, {"type": "note_off", "time": 778, "note": 65, "velocity": 120, "channel": 0}, {"type": "note_on", "time": 125, "note": 63, "velocity": 115, "channel": 0}, {"type": "note_off", "time": 493, "note": 63, "velocity": 115, "channel": 0}, {"type": "note_on", "time": 111, "note": 65, "velocity": 120, "channel": 0}, {"type": "note_off", "time": 1549, "note": 65, "velocity": 120, "channel": 0}, {"type": "note_on", "time": 62, "note": 63, "velocity": 118, "channel": 0}, {"type": "note_off", "time": 528, "note": 63, "velocity": 118, "channel": 0}, {"type": "note_on", "time": 312, "note": 68, "velocity": 118, "channel": 0}, {"type": "note_off", "time": 653, "note": 68, "velocity": 118, "channel": 0}, {"type": "note_on", "time": 27, "note": 66, "velocity": 120, "channel": 0}, {"type": "note_off", "time": 555, "note": 66, "velocity": 120, "channel": 0}, {"type": "note_on", "time": 41, "note": 65, "velocity": 120, "channel": 0}, {"type": "note_off", "time": 576, "note": 65, "velocity": 120, "channel": 0}, {"type": "note_on", "time": 34, "note": 63, "velocity": 127, "channel": 0}, {"type": "note_off", "time": 618, "note": 63, "velocity": 127, "channel": 0}, {"type": "note_on", "time": 0, "note": 61, "velocity": 118, "channel": 0}, {"type": "note_off", "time": 687, "note": 61, "velocity": 118, "channel": 0}, {"type": "note_on", "time": 41, "note": 59, "velocity": 112, "channel": 0}, {"type": "note_off", "time": 396, "note": 59, "velocity": 112, "channel": 0}, {"type": "note_on", "time": 20, "note": 58, "velocity": 113, "channel": 0}, {"type": "note_off", "time": 535, "note": 58, "velocity": 113, "channel": 0}, {"type": "note_on", "time": 270, "note": 56, "velocity": 114, "channel": 0}, {"type": "note_off", "time": 514, "note": 56, "velocity": 114, "channel": 0}, {"type": "note_on", "time": 41, "note": 55, "velocity": 113, "channel": 0}, {"type": "note_off", "time": 569, "note": 55, "velocity": 113, "channel": 0}, {"type": "note_on", "time": 48, "note": 53, "velocity": 114, "channel": 0}, {"type": "note_off", "time": 535, "note": 53, "velocity": 114, "channel": 0}, {"type": "note_on", "time": 90, "note": 52, "velocity": 101, "channel": 0}, {"type": "note_off", "time": 403, "note": 52, "velocity": 101, "channel": 0}, {"type": "note_on", "time": 125, "note": 55, "velocity": 106, "channel": 0}, {"type": "note_off", "time": 152, "note": 55, "velocity": 106, "channel": 0}, {"type": "note_on", "time": 166, "note": 58, "velocity": 102, "channel": 0}, {"type": "note_off", "time": 166, "note": 58, "velocity": 102, "channel": 0}, {"type": "note_on", "time": 90, "note": 61, "velocity": 120, "channel": 0}, {"type": "note_off", "time": 743, "note": 61, "velocity": 120, "channel": 0}, {"type": "note_on", "time": 0, "note": 58, "velocity": 104, "channel": 0}, {"type": "note_off", "time": 500, "note": 58, "velocity": 104, "channel": 0}, {"type": "note_on", "time": 20, "note": 59, "velocity": 106, "channel": 0}, {"type": "note_off", "time": 423, "note": 59, "velocity": 106, "channel": 0}, {"type": "note_on", "time": 0, "note": 60, "velocity": 114, "channel": 0}, {"type": "note_off", "time": 1924, "note": 60, "velocity": 114, "channel": 0}, {"type": "note_on", "time": 83, "note": 58, "velocity": 113, "channel": 0}, {"type": "note_off", "time": 680, "note": 58, "velocity": 113, "channel": 0}, {"type": "note_on", "time": 69, "note": 55, "velocity": 105, "channel": 0}, {"type": "note_off", "time": 465, "note": 55, "velocity": 105, "channel": 0}, {"type": "note_on", "time": 262, "note": 57, "velocity": 111, "channel": 0}, {"type": "note_off", "time": 854, "note": 57, "velocity": 111, "channel": 0}, {"type": "note_on", "time": 126, "note": 60, "velocity": 98, "channel": 0}, {"type": "note_off", "time": 458, "note": 60, "velocity": 98, "channel": 0}, {"type": "note_on", "time": 184, "note": 60, "velocity": 97, "channel": 0}, {"type": "note_off", "time": 403, "note": 60, "velocity": 97, "channel": 0}, {"type": "note_on", "time": 448, "note": 67, "velocity": 117, "channel": 0}, {"type": "note_off", "time": 639, "note": 67, "velocity": 117, "channel": 0}, {"type": "note_on", "time": 20, "note": 63, "velocity": 109, "channel": 0}, {"type": "note_off", "time": 333, "note": 63, "velocity": 109, "channel": 0}, {"type": "note_on", "time": 90, "note": 65, "velocity": 119, "channel": 0}, {"type": "note_off", "time": 701, "note": 65, "velocity": 119, "channel": 0}, {"type": "note_on", "time": 48, "note": 62, "velocity": 112, "channel": 0}, {"type": "note_off", "time": 465, "note": 62, "velocity": 112, "channel": 0}, {"type": "note_on", "time": 20, "note": 63, "velocity": 118, "channel": 0}, {"type": "note_off", "time": 924, "note": 63, "velocity": 118, "channel": 0}, {"type": "note_on", "time": 173, "note": 55, "velocity": 105, "channel": 0}, {"type": "note_off", "time": 396, "note": 55, "velocity": 105, "channel": 0}, {"type": "note_on", "time": 20, "note": 56, "velocity": 103, "channel": 0}, {"type": "note_off", "time": 347, "note": 56, "velocity": 103, "channel": 0}, {"type": "note_on", "time": 76, "note": 57, "velocity": 105, "channel": 0}, {"type": "note_off", "time": 437, "note": 57, "velocity": 105, "channel": 0}, {"type": "note_on", "time": 173, "note": 62, "velocity": 117, "channel": 0}, {"type": "note_off", "time": 1876, "note": 62, "velocity": 117, "channel": 0}, {"type": "note_on", "time": 132, "note": 57, "velocity": 100, "channel": 0}, {"type": "note_off", "time": 437, "note": 57, "velocity": 100, "channel": 0}, {"type": "note_on", "time": 180, "note": 60, "velocity": 118, "channel": 0}, {"type": "note_off", "time": 667, "note": 60, "velocity": 118, "channel": 0}, {"type": "note_on", "time": 90, "note": 57, "velocity": 103, "channel": 0}, {"type": "note_off", "time": 507, "note": 57, "velocity": 103, "channel": 0}, {"type": "note_on", "time": 97, "note": 58, "velocity": 94, "channel": 0}, {"type": "note_off", "time": 500, "note": 58, "velocity": 94, "channel": 0}, {"type": "note_on", "time": 76, "note": 60, "velocity": 114, "channel": 0}, {"type": "note_off", "time": 722, "note": 60, "velocity": 114, "channel": 0}, {"type": "note_on", "time": 0, "note": 57, "velocity": 107, "channel": 0}, {"type": "note_off", "time": 555, "note": 57, "velocity": 107, "channel": 0}, {"type": "note_on", "time": 0, "note": 55, "velocity": 107, "channel": 0}, {"type": "note_off", "time": 625, "note": 55, "velocity": 107, "channel": 0}, {"type": "note_on", "time": 97, "note": 53, "velocity": 108, "channel": 0}, {"type": "note_off", "time": 625, "note": 53, "velocity": 108, "channel": 0}, {"type": "note_on", "time": 111, "note": 50, "velocity": 95, "channel": 0}, {"type": "note_off", "time": 521, "note": 50, "velocity": 95, "channel": 0}, {"type": "note_on", "time": 83, "note": 51, "velocity": 104, "channel": 0}, {"type": "note_off", "time": 479, "note": 51, "velocity": 104, "channel": 0}, {"type": "note_on", "time": 194, "note": 53, "velocity": 114, "channel": 0}, {"type": "note_off", "time": 465, "note": 53, "velocity": 114, "channel": 0}, {"type": "note_on", "time": 41, "note": 50, "velocity": 108, "channel": 0}, {"type": "note_off", "time": 500, "note": 50, "velocity": 108, "channel": 0}, {"type": "note_on", "time": 118, "note": 48, "velocity": 110, "channel": 0}, {"type": "note_off", "time": 590, "note": 48, "velocity": 110, "channel": 0}, {"type": "note_on", "time": 76, "note": 46, "velocity": 109, "channel": 0}, {"type": "note_off", "time": 708, "note": 46, "velocity": 109, "channel": 0}, {"type": "note_on", "time": 180, "note": 58, "velocity": 110, "channel": 0}, {"type": "note_off", "time": 931, "note": 58, "velocity": 110, "channel": 0}, {"type": "note_on", "time": 5454, "note": 49, "velocity": 111, "channel": 0}, {"type": "note_off", "time": 604, "note": 49, "velocity": 111, "channel": 0}, {"type": "note_on", "time": 201, "note": 58, "velocity": 97, "channel": 0}, {"type": "note_off", "time": 493, "note": 58, "velocity": 97, "channel": 0}, {"type": "note_on", "time": 76, "note": 61, "velocity": 110, "channel": 0}, {"type": "note_off", "time": 750, "note": 61, "velocity": 110, "channel": 0}, {"type": "note_on", "time": 48, "note": 70, "velocity": 109, "channel": 0}, {"type": "note_off", "time": 771, "note": 70, "velocity": 109, "channel": 0}, {"type": "note_on", "time": 548, "note": 72, "velocity": 111, "channel": 0}, {"type": "note_off", "time": 416, "note": 72, "velocity": 111, "channel": 0}, {"type": "note_on", "time": 34, "note": 73, "velocity": 113, "channel": 0}, {"type": "note_off", "time": 562, "note": 73, "velocity": 113, "channel": 0}, {"type": "note_on", "time": 90, "note": 72, "velocity": 111, "channel": 0}, {"type": "note_off", "time": 750, "note": 72, "velocity": 111, "channel": 0}, {"type": "note_on", "time": 145, "note": 70, "velocity": 113, "channel": 0}, {"type": "note_off", "time": 806, "note": 70, "velocity": 113, "channel": 0}, {"type": "note_on", "time": 13, "note": 69, "velocity": 117, "channel": 0}, {"type": "note_off", "time": 3370, "note": 69, "velocity": 117, "channel": 0}, {"type": "note_on", "time": 0, "note": 60, "velocity": 107, "channel": 0}, {"type": "note_off", "time": 806, "note": 60, "velocity": 107, "channel": 0}, {"type": "note_on", "time": 97, "note": 58, "velocity": 104, "channel": 0}, {"type": "note_off", "time": 806, "note": 58, "velocity": 104, "channel": 0}, {"type": "note_on", "time": 69, "note": 57, "velocity": 106, "channel": 0}, {"type": "note_off", "time": 1181, "note": 57, "velocity": 106, "channel": 0}, {"type": "note_on", "time": 5086, "note": 69, "velocity": 114, "channel": 0}, {"type": "note_off", "time": 611, "note": 69, "velocity": 114, "channel": 0}, {"type": "note_on", "time": 62, "note": 70, "velocity": 114, "channel": 0}, {"type": "note_off", "time": 625, "note": 70, "velocity": 114, "channel": 0}, {"type": "note_on", "time": 6, "note": 69, "velocity": 115, "channel": 0}, {"type": "note_off", "time": 694, "note": 69, "velocity": 115, "channel": 0}, {"type": "note_on", "time": 27, "note": 67, "velocity": 116, "channel": 0}, {"type": "note_off", "time": 708, "note": 67, "velocity": 116, "channel": 0}, {"type": "note_on", "time": 41, "note": 66, "velocity": 115, "channel": 0}, {"type": "note_off", "time": 757, "note": 66, "velocity": 115, "channel": 0}, {"type": "note_on", "time": 69, "note": 67, "velocity": 105, "channel": 0}, {"type": "note_off", "time": 180, "note": 67, "velocity": 105, "channel": 0}, {"type": "note_on", "time": 83, "note": 70, "velocity": 110, "channel": 0}, {"type": "note_off", "time": 479, "note": 70, "velocity": 110, "channel": 0}, {"type": "note_on", "time": 55, "note": 76, "velocity": 120, "channel": 0}, {"type": "note_off", "time": 340, "note": 76, "velocity": 120, "channel": 0}, {"type": "note_on", "time": 27, "note": 77, "velocity": 116, "channel": 0}, {"type": "note_off", "time": 1417, "note": 77, "velocity": 116, "channel": 0}, {"type": "note_on", "time": 132, "note": 75, "velocity": 121, "channel": 0}, {"type": "note_off", "time": 951, "note": 75, "velocity": 121, "channel": 0}, {"type": "note_on", "time": 138, "note": 74, "velocity": 115, "channel": 0}, {"type": "note_off", "time": 1459, "note": 74, "velocity": 115, "channel": 0}, {"type": "note_on", "time": 104, "note": 72, "velocity": 108, "channel": 0}, {"type": "note_off", "time": 604, "note": 72, "velocity": 108, "channel": 0}, {"type": "note_on", "time": 48, "note": 71, "velocity": 111, "channel": 0}, {"type": "note_off", "time": 653, "note": 71, "velocity": 111, "channel": 0}, {"type": "note_on", "time": 83, "note": 70, "velocity": 114, "channel": 0}, {"type": "note_off", "time": 1209, "note": 70, "velocity": 114, "channel": 0}, {"type": "note_on", "time": 159, "note": 71, "velocity": 112, "channel": 0}, {"type": "note_off", "time": 375, "note": 71, "velocity": 112, "channel": 0}, {"type": "note_on", "time": 20, "note": 72, "velocity": 114, "channel": 0}, {"type": "note_off", "time": 1820, "note": 72, "velocity": 114, "channel": 0}, {"type": "note_on", "time": 34, "note": 71, "velocity": 117, "channel": 0}, {"type": "note_off", "time": 486, "note": 71, "velocity": 117, "channel": 0}, {"type": "note_on", "time": 34, "note": 70, "velocity": 116, "channel": 0}, {"type": "note_off", "time": 680, "note": 70, "velocity": 116, "channel": 0}, {"type": "note_on", "time": 27, "note": 69, "velocity": 120, "channel": 0}, {"type": "note_off", "time": 1632, "note": 69, "velocity": 120, "channel": 0}, {"type": "note_on", "time": 382, "note": 69, "velocity": 119, "channel": 0}, {"type": "note_off", "time": 264, "note": 69, "velocity": 119, "channel": 0}, {"type": "note_on", "time": 27, "note": 70, "velocity": 117, "channel": 0}, {"type": "note_off", "time": 1216, "note": 70, "velocity": 117, "channel": 0}, {"type": "note_on", "time": 62, "note": 69, "velocity": 115, "channel": 0}, {"type": "note_off", "time": 674, "note": 69, "velocity": 115, "channel": 0}, {"type": "note_on", "time": 41, "note": 68, "velocity": 120, "channel": 0}, {"type": "note_off", "time": 618, "note": 68, "velocity": 120, "channel": 0}, {"type": "note_on", "time": 69, "note": 67, "velocity": 120, "channel": 0}, {"type": "note_off", "time": 1361, "note": 67, "velocity": 120, "channel": 0}, {"type": "note_on", "time": 104, "note": 68, "velocity": 119, "channel": 0}, {"type": "note_off", "time": 347, "note": 68, "velocity": 119, "channel": 0}, {"type": "note_on", "time": 76, "note": 69, "velocity": 118, "channel": 0}, {"type": "note_off", "time": 4391, "note": 69, "velocity": 118, "channel": 0}, {"type": "note_on", "time": 583, "note": 65, "velocity": 116, "channel": 0}, {"type": "note_off", "time": 812, "note": 65, "velocity": 116, "channel": 0}, {"type": "note_on", "time": 257, "note": 60, "velocity": 114, "channel": 0}, {"type": "note_off", "time": 1341, "note": 60, "velocity": 114, "channel": 0}, {"type": "note_on", "time": 333, "note": 60, "velocity": 108, "channel": 0}, {"type": "note_off", "time": 2293, "note": 60, "velocity": 108, "channel": 0}, {"type": "note_on", "time": 17802, "note": 69, "velocity": 122, "channel": 0}, {"type": "note_off", "time": 1598, "note": 69, "velocity": 122, "channel": 0}, {"type": "note_on", "time": 687, "note": 70, "velocity": 117, "channel": 0}, {"type": "note_off", "time": 1202, "note": 70, "velocity": 117, "channel": 0}, {"type": "note_on", "time": 444, "note": 69, "velocity": 125, "channel": 0}, {"type": "note_off", "time": 2404, "note": 69, "velocity": 125, "channel": 0}, {"type": "note_on", "time": 736, "note": 65, "velocity": 119, "channel": 0}, {"type": "note_off", "time": 1174, "note": 65, "velocity": 119, "channel": 0}, {"type": "note_on", "time": 368, "note": 60, "velocity": 110, "channel": 0}, {"type": "note_off", "time": 1299, "note": 60, "velocity": 110, "channel": 0}, {"type": "note_on", "time": 354, "note": 60, "velocity": 116, "channel": 0}, {"type": "note_off", "time": 1751, "note": 60, "velocity": 116, "channel": 0}, {"type": "note_on", "time": 8296, "note": 65, "velocity": 117, "channel": 0}, {"type": "note_off", "time": 1236, "note": 65, "velocity": 117, "channel": 0}, {"type": "note_on", "time": 1153, "note": 60, "velocity": 113, "channel": 0}, {"type": "note_off", "time": 1243, "note": 60, "velocity": 113, "channel": 0}, {"type": "note_on", "time": 48, "note": 65, "velocity": 120, "channel": 0}, {"type": "note_off", "time": 1111, "note": 65, "velocity": 120, "channel": 0}, {"type": "note_on", "time": 896, "note": 72, "velocity": 117, "channel": 0}, {"type": "note_off", "time": 743, "note": 72, "velocity": 117, "channel": 0}, {"type": "note_on", "time": 0, "note": 74, "velocity": 118, "channel": 0}, {"type": "note_off", "time": 1424, "note": 74, "velocity": 118, "channel": 0}, {"type": "note_on", "time": 261, "note": 72, "velocity": 116, "channel": 0}, {"type": "note_off", "time": 3547, "note": 72, "velocity": 116, "channel": 0}, {"type": "note_on", "time": 6621, "note": 60, "velocity": 116, "channel": 0}, {"type": "note_off", "time": 646, "note": 60, "velocity": 116, "channel": 0}, {"type": "note_on", "time": 194, "note": 62, "velocity": 102, "channel": 0}, {"type": "note_off", "time": 514, "note": 62, "velocity": 102, "channel": 0}, {"type": "note_on", "time": 76, "note": 64, "velocity": 107, "channel": 0}, {"type": "note_off", "time": 528, "note": 64, "velocity": 107, "channel": 0}, {"type": "note_on", "time": 13, "note": 65, "velocity": 109, "channel": 0}, {"type": "note_off", "time": 243, "note": 65, "velocity": 109, "channel": 0}, {"type": "note_on", "time": 0, "note": 67, "velocity": 104, "channel": 0}, {"type": "note_off", "time": 437, "note": 67, "velocity": 104, "channel": 0}, {"type": "note_on", "time": 69, "note": 68, "velocity": 116, "channel": 0}, {"type": "note_off", "time": 757, "note": 68, "velocity": 116, "channel": 0}, {"type": "note_on", "time": 451, "note": 60, "velocity": 105, "channel": 0}, {"type": "note_off", "time": 569, "note": 60, "velocity": 105, "channel": 0}, {"type": "note_on", "time": 62, "note": 62, "velocity": 114, "channel": 0}, {"type": "note_off", "time": 514, "note": 62, "velocity": 114, "channel": 0}, {"type": "note_on", "time": 55, "note": 64, "velocity": 116, "channel": 0}, {"type": "note_off", "time": 535, "note": 64, "velocity": 116, "channel": 0}, {"type": "note_on", "time": 55, "note": 65, "velocity": 113, "channel": 0}, {"type": "note_off", "time": 465, "note": 65, "velocity": 113, "channel": 0}, {"type": "note_on", "time": 6, "note": 67, "velocity": 108, "channel": 0}, {"type": "note_off", "time": 277, "note": 67, "velocity": 108, "channel": 0}, {"type": "note_on", "time": 27, "note": 68, "velocity": 118, "channel": 0}, {"type": "note_off", "time": 819, "note": 68, "velocity": 118, "channel": 0}, {"type": "note_on", "time": 597, "note": 60, "velocity": 111, "channel": 0}, {"type": "note_off", "time": 243, "note": 60, "velocity": 111, "channel": 0}, {"type": "note_on", "time": 41, "note": 61, "velocity": 107, "channel": 0}, {"type": "note_off", "time": 215, "note": 61, "velocity": 107, "channel": 0}, {"type": "note_on", "time": 55, "note": 62, "velocity": 106, "channel": 0}, {"type": "note_off", "time": 437, "note": 62, "velocity": 106, "channel": 0}, {"type": "note_on", "time": 27, "note": 64, "velocity": 111, "channel": 0}, {"type": "note_off", "time": 569, "note": 64, "velocity": 111, "channel": 0}, {"type": "note_on", "time": 55, "note": 65, "velocity": 105, "channel": 0}, {"type": "note_off", "time": 472, "note": 65, "velocity": 105, "channel": 0}, {"type": "note_on", "time": 264, "note": 70, "velocity": 117, "channel": 0}, {"type": "note_off", "time": 736, "note": 70, "velocity": 117, "channel": 0}, {"type": "note_on", "time": 403, "note": 70, "velocity": 119, "channel": 0}, {"type": "note_off", "time": 778, "note": 70, "velocity": 119, "channel": 0}, {"type": "note_on", "time": 34, "note": 68, "velocity": 118, "channel": 0}, {"type": "note_off", "time": 750, "note": 68, "velocity": 118, "channel": 0}, {"type": "note_on", "time": 416, "note": 68, "velocity": 119, "channel": 0}, {"type": "note_off", "time": 778, "note": 68, "velocity": 119, "channel": 0}, {"type": "note_on", "time": 90, "note": 60, "velocity": 115, "channel": 0}, {"type": "note_off", "time": 806, "note": 60, "velocity": 115, "channel": 0}, {"type": "note_on", "time": 382, "note": 67, "velocity": 116, "channel": 0}, {"type": "note_off", "time": 326, "note": 67, "velocity": 116, "channel": 0}, {"type": "note_on", "time": 6, "note": 68, "velocity": 119, "channel": 0}, {"type": "note_off", "time": 201, "note": 68, "velocity": 119, "channel": 0}, {"type": "note_on", "time": 20, "note": 67, "velocity": 120, "channel": 0}, {"type": "note_off", "time": 298, "note": 67, "velocity": 120, "channel": 0}, {"type": "note_on", "time": 48, "note": 65, "velocity": 120, "channel": 0}, {"type": "note_off", "time": 340, "note": 65, "velocity": 120, "channel": 0}, {"type": "note_on", "time": 104, "note": 64, "velocity": 123, "channel": 0}, {"type": "note_off", "time": 597, "note": 64, "velocity": 123, "channel": 0}, {"type": "note_on", "time": 55, "note": 62, "velocity": 121, "channel": 0}, {"type": "note_off", "time": 604, "note": 62, "velocity": 121, "channel": 0}, {"type": "note_on", "time": 0, "note": 60, "velocity": 115, "channel": 0}, {"type": "note_off", "time": 639, "note": 60, "velocity": 115, "channel": 0}, {"type": "note_on", "time": 27, "note": 59, "velocity": 109, "channel": 0}, {"type": "note_off", "time": 458, "note": 59, "velocity": 109, "channel": 0}, {"type": "note_on", "time": 104, "note": 58, "velocity": 107, "channel": 0}, {"type": "note_off", "time": 708, "note": 58, "velocity": 107, "channel": 0}, {"type": "note_on", "time": 2897, "note": 57, "velocity": 112, "channel": 0}, {"type": "note_off", "time": 535, "note": 57, "velocity": 112, "channel": 0}, {"type": "note_on", "time": 83, "note": 55, "velocity": 109, "channel": 0}, {"type": "note_off", "time": 833, "note": 55, "velocity": 109, "channel": 0}, {"type": "note_on", "time": 3314, "note": 62, "velocity": 123, "channel": 0}, {"type": "note_off", "time": 750, "note": 62, "velocity": 123, "channel": 0}, {"type": "note_on", "time": 180, "note": 60, "velocity": 112, "channel": 0}, {"type": "note_off", "time": 1049, "note": 60, "velocity": 112, "channel": 0}, {"type": "note_on", "time": 535, "note": 69, "velocity": 124, "channel": 0}, {"type": "note_off", "time": 826, "note": 69, "velocity": 124, "channel": 0}, {"type": "note_on", "time": 138, "note": 67, "velocity": 118, "channel": 0}, {"type": "note_off", "time": 1028, "note": 67, "velocity": 118, "channel": 0}, {"type": "note_on", "time": 0, "note": 71, "velocity": 111, "channel": 0}, {"type": "note_off", "time": 368, "note": 71, "velocity": 111, "channel": 0}, {"type": "note_on", "time": 38, "note": 73, "velocity": 119, "channel": 0}, {"type": "note_off", "time": 156, "note": 73, "velocity": 119, "channel": 0}, {"type": "note_on", "time": 48, "note": 74, "velocity": 118, "channel": 0}, {"type": "note_off", "time": 840, "note": 74, "velocity": 118, "channel": 0}, {"type": "note_on", "time": 132, "note": 72, "velocity": 116, "channel": 0}, {"type": "note_off", "time": 1459, "note": 72, "velocity": 116, "channel": 0}, {"type": "note_on", "time": 4898, "note": 71, "velocity": 116, "channel": 0}, {"type": "note_off", "time": 486, "note": 71, "velocity": 116, "channel": 0}, {"type": "note_on", "time": 55, "note": 72, "velocity": 113, "channel": 0}, {"type": "note_off", "time": 1236, "note": 72, "velocity": 113, "channel": 0}, {"type": "note_on", "time": 951, "note": 71, "velocity": 114, "channel": 0}, {"type": "note_off", "time": 576, "note": 71, "velocity": 114, "channel": 0}, {"type": "note_on", "time": 27, "note": 72, "velocity": 114, "channel": 0}, {"type": "note_off", "time": 1396, "note": 72, "velocity": 114, "channel": 0}, {"type": "note_on", "time": 541, "note": 70, "velocity": 121, "channel": 0}, {"type": "note_off", "time": 535, "note": 70, "velocity": 121, "channel": 0}, {"type": "note_on", "time": 41, "note": 71, "velocity": 118, "channel": 0}, {"type": "note_off", "time": 389, "note": 71, "velocity": 118, "channel": 0}, {"type": "note_on", "time": 48, "note": 70, "velocity": 119, "channel": 0}, {"type": "note_off", "time": 507, "note": 70, "velocity": 119, "channel": 0}, {"type": "note_on", "time": 118, "note": 68, "velocity": 119, "channel": 0}, {"type": "note_off", "time": 917, "note": 68, "velocity": 119, "channel": 0}, {"type": "note_on", "time": 145, "note": 65, "velocity": 121, "channel": 0}, {"type": "note_off", "time": 1424, "note": 65, "velocity": 121, "channel": 0}, {"type": "note_on", "time": 145, "note": 63, "velocity": 115, "channel": 0}, {"type": "note_off", "time": 854, "note": 63, "velocity": 115, "channel": 0}, {"type": "note_on", "time": 194, "note": 65, "velocity": 9, "channel": 0}, {"type": "note_off", "time": 1903, "note": 65, "velocity": 9, "channel": 0}, {"type": "note_on", "time": 125, "note": 63, "velocity": 92, "channel": 0}, {"type": "note_off", "time": 298, "note": 63, "velocity": 92, "channel": 0}, {"type": "note_on", "time": 62, "note": 65, "velocity": 120, "channel": 0}, {"type": "note_off", "time": 1688, "note": 65, "velocity": 120, "channel": 0}, {"type": "note_on", "time": 138, "note": 65, "velocity": 119, "channel": 0}, {"type": "note_off", "time": 1410, "note": 65, "velocity": 119, "channel": 0}, {"type": "note_on", "time": 187, "note": 63, "velocity": 94, "channel": 0}, {"type": "note_off", "time": 409, "note": 63, "velocity": 94, "channel": 0}, {"type": "note_on", "time": 90, "note": 65, "velocity": 120, "channel": 0}, {"type": "note_off", "time": 1000, "note": 65, "velocity": 120, "channel": 0}, {"type": "note_on", "time": 176, "note": 68, "velocity": 119, "channel": 0}, {"type": "note_off", "time": 1229, "note": 68, "velocity": 119, "channel": 0}, {"type": "note_on", "time": 456, "note": 60, "velocity": 96, "channel": 0}, {"type": "note_off", "time": 597, "note": 60, "velocity": 96, "channel": 0}, {"type": "note_on", "time": 180, "note": 65, "velocity": 118, "channel": 0}, {"type": "note_off", "time": 2216, "note": 65, "velocity": 118, "channel": 0}, {"type": "note_on", "time": 333, "note": 65, "velocity": 119, "channel": 0}, {"type": "note_off", "time": 1764, "note": 65, "velocity": 119, "channel": 0}, {"type": "note_on", "time": 736, "note": 68, "velocity": 122, "channel": 0}, {"type": "note_off", "time": 951, "note": 68, "velocity": 122, "channel": 0}, {"type": "note_on", "time": 13, "note": 70, "velocity": 112, "channel": 0}, {"type": "note_off", "time": 222, "note": 70, "velocity": 112, "channel": 0}, {"type": "note_on", "time": 48, "note": 68, "velocity": 119, "channel": 0}, {"type": "note_off", "time": 535, "note": 68, "velocity": 119, "channel": 0}, {"type": "note_on", "time": 6, "note": 65, "velocity": 118, "channel": 0}, {"type": "note_off", "time": 993, "note": 65, "velocity": 118, "channel": 0}, {"type": "note_on", "time": 104, "note": 63, "velocity": 126, "channel": 0}, {"type": "note_off", "time": 1285, "note": 63, "velocity": 126, "channel": 0}, {"type": "note_on", "time": 20, "note": 60, "velocity": 117, "channel": 0}, {"type": "note_off", "time": 986, "note": 60, "velocity": 117, "channel": 0}, {"type": "note_on", "time": 138, "note": 59, "velocity": 109, "channel": 0}, {"type": "note_off", "time": 1751, "note": 59, "velocity": 109, "channel": 0}, {"type": "note_on", "time": 403, "note": 59, "velocity": 109, "channel": 0}, {"type": "note_off", "time": 1361, "note": 59, "velocity": 109, "channel": 0}, {"type": "note_on", "time": 34, "note": 58, "velocity": 111, "channel": 0}, {"type": "note_off", "time": 1077, "note": 58, "velocity": 111, "channel": 0}, {"type": "note_on", "time": 83, "note": 59, "velocity": 106, "channel": 0}, {"type": "note_off", "time": 298, "note": 59, "velocity": 106, "channel": 0}, {"type": "note_on", "time": 132, "note": 58, "velocity": 108, "channel": 0}, {"type": "note_off", "time": 812, "note": 58, "velocity": 108, "channel": 0}, {"type": "note_on", "time": 187, "note": 56, "velocity": 112, "channel": 0}, {"type": "note_off", "time": 924, "note": 56, "velocity": 112, "channel": 0}, {"type": "note_on", "time": 138, "note": 53, "velocity": 110, "channel": 0}, {"type": "note_off", "time": 1799, "note": 53, "velocity": 110, "channel": 0}, {"type": "note_on", "time": 90, "note": 51, "velocity": 101, "channel": 0}, {"type": "note_off", "time": 618, "note": 51, "velocity": 101, "channel": 0}, {"type": "note_on", "time": 83, "note": 53, "velocity": 104, "channel": 0}, {"type": "note_off", "time": 2515, "note": 53, "velocity": 104, "channel": 0}, {"type": "end_of_track", "time": 0}]]}