{"ticks_per_beat": 192, "tracks": [[{"type": "track_name", "name": "Melody", "time": 0}, {"type": "set_tempo", "tempo": 245901, "time": 0}, {"type": "key_signature", "key": "Bb", "time": 0}, {"type": "time_signature", "numerator": 4, "denominator": 4, "clocks_per_click": 24, "notated_32nd_notes_per_beat": 8, "time": 0}, {"type": "note_on", "time": 4317, "note": 53, "velocity": 107, "channel": 0}, {"type": "note_off", "time": 167, "note": 53, "velocity": 107, "channel": 0}, {"type": "note_on", "time": 13, "note": 53, "velocity": 110, "channel": 0}, {"type": "note_off", "time": 72, "note": 53, "velocity": 110, "channel": 0}, {"type": "note_on", "time": 84, "note": 65, "velocity": 108, "channel": 0}, {"type": "note_off", "time": 140, "note": 65, "velocity": 108, "channel": 0}, {"type": "note_on", "time": 111, "note": 62, "velocity": 110, "channel": 0}, {"type": "note_off", "time": 154, "note": 62, "velocity": 110, "channel": 0}, {"type": "note_on", "time": 27, "note": 58, "velocity": 90, "channel": 0}, {"type": "note_off", "time": 497, "note": 58, "velocity": 90, "channel": 0}, {"type": "note_on", "time": 395, "note": 55, "velocity": 100, "channel": 0}, {"type": "note_off", "time": 117, "note": 55, "velocity": 100, "channel": 0}, {"type": "note_on", "time": 105, "note": 65, "velocity": 108, "channel": 0}, {"type": "note_off", "time": 114, "note": 65, "velocity": 108, "channel": 0}, {"type": "note_on", "time": 15, "note": 67, "velocity": 107, "channel": 0}, {"type": "note_off", "time": 162, "note": 67, "velocity": 107, "channel": 0}, {"type": "note_on", "time": 124, "note": 63, "velocity": 98, "channel": 0}, {"type": "note_off", "time": 133, "note": 63, "velocity": 98, "channel": 0}, {"type": "note_on", "time": 15, "note": 60, "velocity": 100, "channel": 0}, {"type": "note_off", "time": 398, "note": 60, "velocity": 100, "channel": 0}, {"type": "note_on", "time": 57, "note": 58, "velocity": 103, "channel": 0}, {"type": "note_off", "time": 143, "note": 58, "velocity": 103, "channel": 0}, {"type": "note_on", "time": 15, "note": 53, "velocity": 98, "channel": 0}, {"type": "note_off", "time": 124, "note": 53, "velocity": 98, "channel": 0}, {"type": "note_on", "time": 41, "note": 65, "velocity": 107, "channel": 0}, {"type": "note_off", "time": 124, "note": 65, "velocity": 107, "channel": 0}, {"type": "note_on", "time": 47, "note": 62, "velocity": 115, "channel": 0}, {"type": "note_off", "time": 111, "note": 62, "velocity": 115, "channel": 0}, {"type": "note_on", "time": 76, "note": 61, "velocity": 114, "channel": 0}, {"type": "note_off", "time": 101, "note": 61, "velocity": 114, "channel": 0}, {"type": "note_on", "time": 12, "note": 60, "velocity": 108, "channel": 0}, {"type": "note_off", "time": 66, "note": 60, "velocity": 108, "channel": 0}, {"type": "note_on", "time": 11, "note": 61, "velocity": 101, "channel": 0}, {"type": "note_off", "time": 82, "note": 61, "velocity": 101, "channel": 0}, {"type": "note_on", "time": 14, "note": 58, "velocity": 98, "channel": 0}, {"type": "note_off", "time": 111, "note": 58, "velocity": 98, "channel": 0}, {"type": "note_on", "time": 6, "note": 61, "velocity": 111, "channel": 0}, {"type": "note_off", "time": 114, "note": 61, "velocity": 111, "channel": 0}, {"type": "note_on", "time": 9, "note": 60, "velocity": 107, "channel": 0}, {"type": "note_off", "time": 65, "note": 60, "velocity": 107, "channel": 0}, {"type": "note_on", "time": 0, "note": 61, "velocity": 106, "channel": 0}, {"type": "note_off", "time": 92, "note": 61, "velocity": 106, "channel": 0}, {"type": "note_on", "time": 7, "note": 58, "velocity": 108, "channel": 0}, {"type": "note_off", "time": 70, "note": 58, "velocity": 108, "channel": 0}, {"type": "note_on", "time": 12, "note": 61, "velocity": 108, "channel": 0}, {"type": "note_off", "time": 105, "note": 61, "velocity": 108, "channel": 0}, {"type": "note_on", "time": 11, "note": 60, "velocity": 106, "channel": 0}, {"type": "note_off", "time": 66, "note": 60, "velocity": 106, "channel": 0}, {"type": "note_on", "time": 11, "note": 61, "velocity": 101, "channel": 0}, {"type": "note_off", "time": 90, "note": 61, "velocity": 101, "channel": 0}, {"type": "note_on", "time": 4, "note": 58, "velocity": 102, "channel": 0}, {"type": "note_off", "time": 111, "note": 58, "velocity": 102, "channel": 0}, {"type": "note_on", "time": 19, "note": 65, "velocity": 100, "channel": 0}, {"type": "note_off", "time": 215, "note": 65, "velocity": 100, "channel": 0}, {"type": "note_on", "time": 43, "note": 58, "velocity": 109, "channel": 0}, {"type": "note_off", "time": 111, "note": 58, "velocity": 109, "channel": 0}, {"type": "note_on", "time": 9, "note": 61, "velocity": 115, "channel": 0}, {"type": "note_off", "time": 114, "note": 61, "velocity": 115, "channel": 0}, {"type": "note_on", "time": 7, "note": 60, "velocity": 111, "channel": 0}, {"type": "note_off", "time": 55, "note": 60, "velocity": 111, "channel": 0}, {"type": "note_on", "time": 12, "note": 61, "velocity": 108, "channel": 0}, {"type": "note_off", "time": 68, "note": 61, "velocity": 108, "channel": 0}, {"type": "note_on", "time": 4, "note": 58, "velocity": 105, "channel": 0}, {"type": "note_off", "time": 114, "note": 58, "velocity": 105, "channel": 0}, {"type": "note_on", "time": 6, "note": 61, "velocity": 104, "channel": 0}, {"type": "note_off", "time": 124, "note": 61, "velocity": 104, "channel": 0}, {"type": "note_on", "time": 22, "note": 62, "velocity": 110, "channel": 0}, {"type": "note_off", "time": 235, "note": 62, "velocity": 110, "channel": 0}, {"type": "note_on", "time": 825, "note": 65, "velocity": 116, "channel": 0}, {"type": "note_off", "time": 121, "note": 65, "velocity": 116, "channel": 0}, {"type": "note_on", "time": 31, "note": 62, "velocity": 118, "channel": 0}, {"type": "note_off", "time": 105, "note": 62, "velocity": 118, "channel": 0}, {"type": "note_on", "time": 38, "note": 60, "velocity": 115, "channel": 0}, {"type": "note_off", "time": 89, "note": 60, "velocity": 115, "channel": 0}, {"type": "note_on", "time": 19, "note": 58, "velocity": 112, "channel": 0}, {"type": "note_off", "time": 111, "note": 58, "velocity": 112, "channel": 0}, {"type": "note_on", "time": 41, "note": 60, "velocity": 113, "channel": 0}, {"type": "note_off", "time": 89, "note": 60, "velocity": 113, "channel": 0}, {"type": "note_on", "time": 38, "note": 62, "velocity": 116, "channel": 0}, {"type": "note_off", "time": 130, "note": 62, "velocity": 116, "channel": 0}, {"type": "note_on", "time": 38, "note": 65, "velocity": 113, "channel": 0}, {"type": "note_off", "time": 168, "note": 65, "velocity": 113, "channel": 0}, {"type": "note_on", "time": 6, "note": 67, "velocity": 125, "channel": 0}, {"type": "note_off", "time": 140, "note": 67, "velocity": 125, "channel": 0}, {"type": "note_on", "time": 71, "note": 68, "velocity": 125, "channel": 0}, {"type": "note_off", "time": 152, "note": 68, "velocity": 125, "channel": 0}, {"type": "note_on", "time": 11, "note": 69, "velocity": 118, "channel": 0}, {"type": "note_off", "time": 114, "note": 69, "velocity": 118, "channel": 0}, {"type": "note_on", "time": 6, "note": 67, "velocity": 121, "channel": 0}, {"type": "note_off", "time": 149, "note": 67, "velocity": 121, "channel": 0}, {"type": "note_on", "time": 6, "note": 65, "velocity": 115, "channel": 0}, {"type": "note_off", "time": 114, "note": 65, "velocity": 115, "channel": 0}, {"type": "note_on", "time": 38, "note": 62, "velocity": 116, "channel": 0}, {"type": "note_off", "time": 70, "note": 62, "velocity": 116, "channel": 0}, {"type": "note_on", "time": 31, "note": 60, "velocity": 110, "channel": 0}, {"type": "note_off", "time": 140, "note": 60, "velocity": 110, "channel": 0}, {"type": "note_on", "time": 63, "note": 60, "velocity": 115, "channel": 0}, {"type": "note_off", "time": 89, "note": 60, "velocity": 115, "channel": 0}, {"type": "note_on", "time": 65, "note": 60, "velocity": 105, "channel": 0}, {"type": "note_off", "time": 158, "note": 60, "velocity": 105, "channel": 0}, {"type": "note_on", "time": 28, "note": 58, "velocity": 104, "channel": 0}, {"type": "note_off", "time": 127, "note": 58, "velocity": 104, "channel": 0}, {"type": "note_on", "time": 94, "note": 58, "velocity": 105, "channel": 0}, {"type": "note_off", "time": 262, "note": 58, "velocity": 105, "channel": 0}, {"type": "note_on", "time": 6, "note": 57, "velocity": 96, "channel": 0}, {"type": "note_off", "time": 71, "note": 57, "velocity": 96, "channel": 0}, {"type": "note_on", "time": 24, "note": 55, "velocity": 100, "channel": 0}, {"type": "note_off", "time": 194, "note": 55, "velocity": 100, "channel": 0}, {"type": "note_on", "time": 20, "note": 58, "velocity": 101, "channel": 0}, {"type": "note_off", "time": 122, "note": 58, "velocity": 101, "channel": 0}, {"type": "note_on", "time": 40, "note": 60, "velocity": 111, "channel": 0}, {"type": "note_off", "time": 108, "note": 60, "velocity": 111, "channel": 0}, {"type": "note_on", "time": 14, "note": 62, "velocity": 105, "channel": 0}, {"type": "note_off", "time": 226, "note": 62, "velocity": 105, "channel": 0}, {"type": "note_on", "time": 31, "note": 62, "velocity": 106, "channel": 0}, {"type": "note_off", "time": 175, "note": 62, "velocity": 106, "channel": 0}, {"type": "note_on", "time": 15, "note": 58, "velocity": 102, "channel": 0}, {"type": "note_off", "time": 159, "note": 58, "velocity": 102, "channel": 0}, {"type": "note_on", "time": 30, "note": 61, "velocity": 103, "channel": 0}, {"type": "note_off", "time": 143, "note": 61, "velocity": 103, "channel": 0}, {"type": "note_on", "time": 52, "note": 58, "velocity": 92, "channel": 0}, {"type": "note_off", "time": 519, "note": 58, "velocity": 92, "channel": 0}, {"type": "note_on", "time": 822, "note": 50, "velocity": 108, "channel": 0}, {"type": "note_off", "time": 152, "note": 50, "velocity": 108, "channel": 0}, {"type": "note_on", "time": 54, "note": 54, "velocity": 110, "channel": 0}, {"type": "note_off", "time": 168, "note": 54, "velocity": 110, "channel": 0}, {"type": "note_on", "time": 41, "note": 55, "velocity": 112, "channel": 0}, {"type": "note_off", "time": 152, "note": 55, "velocity": 112, "channel": 0}, {"type": "note_on", "time": 58, "note": 63, "velocity": 116, "channel": 0}, {"type": "note_off", "time": 127, "note": 63, "velocity": 116, "channel": 0}, {"type": "note_on", "time": 20, "note": 64, "velocity": 105, "channel": 0}, {"type": "note_off", "time": 172, "note": 64, "velocity": 105, "channel": 0}, {"type": "note_on", "time": 9, "note": 62, "velocity": 113, "channel": 0}, {"type": "note_off", "time": 178, "note": 62, "velocity": 113, "channel": 0}, {"type": "note_on", "time": 28, "note": 57, "velocity": 108, "channel": 0}, {"type": "note_off", "time": 149, "note": 57, "velocity": 108, "channel": 0}, {"type": "note_on", "time": 54, "note": 52, "velocity": 110, "channel": 0}, {"type": "note_off", "time": 143, "note": 52, "velocity": 110, "channel": 0}, {"type": "note_on", "time": 54, "note": 45, "velocity": 113, "channel": 0}, {"type": "note_off", "time": 143, "note": 45, "velocity": 113, "channel": 0}, {"type": "note_on", "time": 121, "note": 57, "velocity": 103, "channel": 0}, {"type": "note_off", "time": 156, "note": 57, "velocity": 103, "channel": 0}, {"type": "note_on", "time": 38, "note": 52, "velocity": 105, "channel": 0}, {"type": "note_off", "time": 210, "note": 52, "velocity": 105, "channel": 0}, {"type": "note_on", "time": 57, "note": 50, "velocity": 104, "channel": 0}, {"type": "note_off", "time": 203, "note": 50, "velocity": 104, "channel": 0}, {"type": "note_on", "time": 17, "note": 62, "velocity": 103, "channel": 0}, {"type": "note_off", "time": 208, "note": 62, "velocity": 103, "channel": 0}, {"type": "note_on", "time": 12, "note": 64, "velocity": 96, "channel": 0}, {"type": "note_off", "time": 146, "note": 64, "velocity": 96, "channel": 0}, {"type": "note_on", "time": 0, "note": 62, "velocity": 110, "channel": 0}, {"type": "note_off", "time": 172, "note": 62, "velocity": 110, "channel": 0}, {"type": "note_on", "time": 41, "note": 62, "velocity": 111, "channel": 0}, {"type": "note_off", "time": 146, "note": 62, "velocity": 111, "channel": 0}, {"type": "note_on", "time": 31, "note": 60, "velocity": 105, "channel": 0}, {"type": "note_off", "time": 143, "note": 60, "velocity": 105, "channel": 0}, {"type": "note_on", "time": 47, "note": 60, "velocity": 104, "channel": 0}, {"type": "note_off", "time": 159, "note": 60, "velocity": 104, "channel": 0}, {"type": "note_on", "time": 25, "note": 60, "velocity": 103, "channel": 0}, {"type": "note_off", "time": 162, "note": 60, "velocity": 103, "channel": 0}, {"type": "note_on", "time": 35, "note": 60, "velocity": 105, "channel": 0}, {"type": "note_off", "time": 117, "note": 60, "velocity": 105, "channel": 0}, {"type": "note_on", "time": 19, "note": 60, "velocity": 100, "channel": 0}, {"type": "note_off", "time": 162, "note": 60, "velocity": 100, "channel": 0}, {"type": "note_on", "time": 46, "note": 60, "velocity": 96, "channel": 0}, {"type": "note_off", "time": 387, "note": 60, "velocity": 96, "channel": 0}, {"type": "note_on", "time": 404, "note": 65, "velocity": 117, "channel": 0}, {"type": "note_off", "time": 127, "note": 65, "velocity": 117, "channel": 0}, {"type": "note_on", "time": 86, "note": 65, "velocity": 117, "channel": 0}, {"type": "note_off", "time": 114, "note": 65, "velocity": 117, "channel": 0}, {"type": "note_on", "time": 63, "note": 65, "velocity": 118, "channel": 0}, {"type": "note_off", "time": 101, "note": 65, "velocity": 118, "channel": 0}, {"type": "note_on", "time": 15, "note": 65, "velocity": 117, "channel": 0}, {"type": "note_off", "time": 82, "note": 65, "velocity": 117, "channel": 0}, {"type": "note_on", "time": 25, "note": 61, "velocity": 86, "channel": 0}, {"type": "note_off", "time": 78, "note": 61, "velocity": 86, "channel": 0}, {"type": "note_on", "time": 11, "note": 62, "velocity": 93, "channel": 0}, {"type": "note_off", "time": 60, "note": 62, "velocity": 93, "channel": 0}, {"type": "note_on", "time": 0, "note": 65, "velocity": 113, "channel": 0}, {"type": "note_off", "time": 92, "note": 65, "velocity": 113, "channel": 0}, {"type": "note_on", "time": 35, "note": 65, "velocity": 116, "channel": 0}, {"type": "note_off", "time": 82, "note": 65, "velocity": 116, "channel": 0}, {"type": "note_on", "time": 36, "note": 61, "velocity": 94, "channel": 0}, {"type": "note_off", "time": 74, "note": 61, "velocity": 94, "channel": 0}, {"type": "note_on", "time": 3, "note": 62, "velocity": 113, "channel": 0}, {"type": "note_off", "time": 66, "note": 62, "velocity": 113, "channel": 0}, {"type": "note_on", "time": 6, "note": 65, "velocity": 105, "channel": 0}, {"type": "note_off", "time": 82, "note": 65, "velocity": 105, "channel": 0}, {"type": "note_on", "time": 38, "note": 65, "velocity": 111, "channel": 0}, {"type": "note_off", "time": 79, "note": 65, "velocity": 111, "channel": 0}, {"type": "note_on", "time": 31, "note": 65, "velocity": 108, "channel": 0}, {"type": "note_off", "time": 50, "note": 65, "velocity": 108, "channel": 0}, {"type": "note_on", "time": 41, "note": 62, "velocity": 102, "channel": 0}, {"type": "note_off", "time": 159, "note": 62, "velocity": 102, "channel": 0}, {"type": "note_on", "time": 12, "note": 65, "velocity": 106, "channel": 0}, {"type": "note_off", "time": 92, "note": 65, "velocity": 106, "channel": 0}, {"type": "note_on", "time": 127, "note": 62, "velocity": 103, "channel": 0}, {"type": "note_off", "time": 54, "note": 62, "velocity": 103, "channel": 0}, {"type": "note_on", "time": 15, "note": 65, "velocity": 107, "channel": 0}, {"type": "note_off", "time": 92, "note": 65, "velocity": 107, "channel": 0}, {"type": "note_on", "time": 82, "note": 65, "velocity": 115, "channel": 0}, {"type": "note_off", "time": 70, "note": 65, "velocity": 115, "channel": 0}, {"type": "note_on", "time": 114, "note": 62, "velocity": 107, "channel": 0}, {"type": "note_off", "time": 89, "note": 62, "velocity": 107, "channel": 0}, {"type": "note_on", "time": 9, "note": 65, "velocity": 109, "channel": 0}, {"type": "note_off", "time": 95, "note": 65, "velocity": 109, "channel": 0}, {"type": "note_on", "time": 114, "note": 62, "velocity": 97, "channel": 0}, {"type": "note_off", "time": 70, "note": 62, "velocity": 97, "channel": 0}, {"type": "note_on", "time": 9, "note": 65, "velocity": 109, "channel": 0}, {"type": "note_off", "time": 105, "note": 65, "velocity": 109, "channel": 0}, {"type": "note_on", "time": 73, "note": 67, "velocity": 116, "channel": 0}, {"type": "note_off", "time": 117, "note": 67, "velocity": 116, "channel": 0}, {"type": "note_on", "time": 89, "note": 69, "velocity": 114, "channel": 0}, {"type": "note_off", "time": 286, "note": 69, "velocity": 114, "channel": 0}, {"type": "note_on", "time": 25, "note": 67, "velocity": 104, "channel": 0}, {"type": "note_off", "time": 191, "note": 67, "velocity": 104, "channel": 0}, {"type": "note_on", "time": 15, "note": 65, "velocity": 114, "channel": 0}, {"type": "note_off", "time": 101, "note": 65, "velocity": 114, "channel": 0}, {"type": "note_on", "time": 54, "note": 62, "velocity": 111, "channel": 0}, {"type": "note_off", "time": 82, "note": 62, "velocity": 111, "channel": 0}, {"type": "note_on", "time": 22, "note": 61, "velocity": 109, "channel": 0}, {"type": "note_off", "time": 200, "note": 61, "velocity": 109, "channel": 0}, {"type": "note_on", "time": 6, "note": 58, "velocity": 107, "channel": 0}, {"type": "note_off", "time": 82, "note": 58, "velocity": 107, "channel": 0}, {"type": "note_on", "time": 35, "note": 60, "velocity": 92, "channel": 0}, {"type": "note_off", "time": 47, "note": 60, "velocity": 92, "channel": 0}, {"type": "note_on", "time": 22, "note": 61, "velocity": 108, "channel": 0}, {"type": "note_off", "time": 98, "note": 61, "velocity": 108, "channel": 0}, {"type": "note_on", "time": 62, "note": 58, "velocity": 106, "channel": 0}, {"type": "note_off", "time": 95, "note": 58, "velocity": 106, "channel": 0}, {"type": "note_on", "time": 81, "note": 58, "velocity": 92, "channel": 0}, {"type": "note_off", "time": 353, "note": 58, "velocity": 92, "channel": 0}, {"type": "note_on", "time": 928, "note": 65, "velocity": 112, "channel": 0}, {"type": "note_off", "time": 219, "note": 65, "velocity": 112, "channel": 0}, {"type": "note_on", "time": 6, "note": 68, "velocity": 125, "channel": 0}, {"type": "note_off", "time": 369, "note": 68, "velocity": 125, "channel": 0}, {"type": "note_on", "time": 9, "note": 67, "velocity": 121, "channel": 0}, {"type": "note_off", "time": 326, "note": 67, "velocity": 121, "channel": 0}, {"type": "note_on", "time": 111, "note": 65, "velocity": 115, "channel": 0}, {"type": "note_off", "time": 369, "note": 65, "velocity": 115, "channel": 0}, {"type": "note_on", "time": 10, "note": 62, "velocity": 102, "channel": 0}, {"type": "note_off", "time": 181, "note": 62, "velocity": 102, "channel": 0}, {"type": "note_on", "time": 72, "note": 58, "velocity": 114, "channel": 0}, {"type": "note_off", "time": 126, "note": 58, "velocity": 114, "channel": 0}, {"type": "note_on", "time": 82, "note": 62, "velocity": 114, "channel": 0}, {"type": "note_off", "time": 391, "note": 62, "velocity": 114, "channel": 0}, {"type": "note_on", "time": 10, "note": 60, "velocity": 110, "channel": 0}, {"type": "note_off", "time": 149, "note": 60, "velocity": 110, "channel": 0}, {"type": "note_on", "time": 158, "note": 58, "velocity": 108, "channel": 0}, {"type": "note_off", "time": 176, "note": 58, "velocity": 108, "channel": 0}, {"type": "note_on", "time": 49, "note": 57, "velocity": 109, "channel": 0}, {"type": "note_off", "time": 158, "note": 57, "velocity": 109, "channel": 0}, {"type": "note_on", "time": 231, "note": 53, "velocity": 105, "channel": 0}, {"type": "note_off", "time": 135, "note": 53, "velocity": 105, "channel": 0}, {"type": "note_on", "time": 58, "note": 56, "velocity": 115, "channel": 0}, {"type": "note_off", "time": 67, "note": 56, "velocity": 115, "channel": 0}, {"type": "note_on", "time": 22, "note": 57, "velocity": 112, "channel": 0}, {"type": "note_off", "time": 95, "note": 57, "velocity": 112, "channel": 0}, {"type": "note_on", "time": 95, "note": 53, "velocity": 109, "channel": 0}, {"type": "note_off", "time": 104, "note": 53, "velocity": 109, "channel": 0}, {"type": "note_on", "time": 77, "note": 68, "velocity": 127, "channel": 0}, {"type": "note_off", "time": 108, "note": 68, "velocity": 127, "channel": 0}, {"type": "note_on", "time": 22, "note": 67, "velocity": 124, "channel": 0}, {"type": "note_off", "time": 154, "note": 67, "velocity": 124, "channel": 0}, {"type": "note_on", "time": 4, "note": 65, "velocity": 115, "channel": 0}, {"type": "note_off", "time": 126, "note": 65, "velocity": 115, "channel": 0}, {"type": "note_on", "time": 53, "note": 58, "velocity": 110, "channel": 0}, {"type": "note_off", "time": 90, "note": 58, "velocity": 110, "channel": 0}, {"type": "note_on", "time": 50, "note": 61, "velocity": 113, "channel": 0}, {"type": "note_off", "time": 108, "note": 61, "velocity": 113, "channel": 0}, {"type": "note_on", "time": 45, "note": 62, "velocity": 97, "channel": 0}, {"type": "note_off", "time": 1119, "note": 62, "velocity": 97, "channel": 0}, {"type": "note_on", "time": 1776, "note": 73, "velocity": 95, "channel": 0}, {"type": "note_off", "time": 63, "note": 73, "velocity": 95, "channel": 0}, {"type": "note_on", "time": 22, "note": 74, "velocity": 124, "channel": 0}, {"type": "note_off", "time": 185, "note": 74, "velocity": 124, "channel": 0}, {"type": "note_on", "time": 357, "note": 65, "velocity": 98, "channel": 0}, {"type": "note_off", "time": 108, "note": 65, "velocity": 98, "channel": 0}, {"type": "note_on", "time": 12, "note": 67, "velocity": 112, "channel": 0}, {"type": "note_off", "time": 89, "note": 67, "velocity": 112, "channel": 0}, {"type": "note_on", "time": 12, "note": 70, "velocity": 118, "channel": 0}, {"type": "note_off", "time": 111, "note": 70, "velocity": 118, "channel": 0}, {"type": "note_on", "time": 73, "note": 70, "velocity": 118, "channel": 0}, {"type": "note_off", "time": 121, "note": 70, "velocity": 118, "channel": 0}, {"type": "note_on", "time": 60, "note": 69, "velocity": 104, "channel": 0}, {"type": "note_off", "time": 57, "note": 69, "velocity": 104, "channel": 0}, {"type": "note_on", "time": 19, "note": 70, "velocity": 107, "channel": 0}, {"type": "note_off", "time": 105, "note": 70, "velocity": 107, "channel": 0}, {"type": "note_on", "time": 22, "note": 65, "velocity": 116, "channel": 0}, {"type": "note_off", "time": 98, "note": 65, "velocity": 116, "channel": 0}, {"type": "note_on", "time": 95, "note": 65, "velocity": 117, "channel": 0}, {"type": "note_off", "time": 127, "note": 65, "velocity": 117, "channel": 0}, {"type": "note_on", "time": 70, "note": 65, "velocity": 105, "channel": 0}, {"type": "note_off", "time": 133, "note": 65, "velocity": 105, "channel": 0}, {"type": "note_on", "time": 57, "note": 65, "velocity": 114, "channel": 0}, {"type": "note_off", "time": 79, "note": 65, "velocity": 114, "channel": 0}, {"type": "note_on", "time": 31, "note": 62, "velocity": 113, "channel": 0}, {"type": "note_off", "time": 76, "note": 62, "velocity": 113, "channel": 0}, {"type": "note_on", "time": 22, "note": 60, "velocity": 105, "channel": 0}, {"type": "note_off", "time": 95, "note": 60, "velocity": 105, "channel": 0}, {"type": "note_on", "time": 22, "note": 58, "velocity": 95, "channel": 0}, {"type": "note_off", "time": 70, "note": 58, "velocity": 95, "channel": 0}, {"type": "note_on", "time": 6, "note": 60, "velocity": 100, "channel": 0}, {"type": "note_off", "time": 86, "note": 60, "velocity": 100, "channel": 0}, {"type": "note_on", "time": 12, "note": 62, "velocity": 108, "channel": 0}, {"type": "note_off", "time": 73, "note": 62, "velocity": 108, "channel": 0}, {"type": "note_on", "time": 25, "note": 63, "velocity": 97, "channel": 0}, {"type": "note_off", "time": 79, "note": 63, "velocity": 97, "channel": 0}, {"type": "note_on", "time": 3, "note": 65, "velocity": 98, "channel": 0}, {"type": "note_off", "time": 73, "note": 65, "velocity": 98, "channel": 0}, {"type": "note_on", "time": 38, "note": 65, "velocity": 109, "channel": 0}, {"type": "note_off", "time": 89, "note": 65, "velocity": 109, "channel": 0}, {"type": "note_on", "time": 6, "note": 62, "velocity": 105, "channel": 0}, {"type": "note_off", "time": 82, "note": 62, "velocity": 105, "channel": 0}, {"type": "note_on", "time": 9, "note": 60, "velocity": 96, "channel": 0}, {"type": "note_off", "time": 92, "note": 60, "velocity": 96, "channel": 0}, {"type": "note_on", "time": 22, "note": 58, "velocity": 103, "channel": 0}, {"type": "note_off", "time": 121, "note": 58, "velocity": 103, "channel": 0}, {"type": "note_on", "time": 175, "note": 56, "velocity": 98, "channel": 0}, {"type": "note_off", "time": 89, "note": 56, "velocity": 98, "channel": 0}, {"type": "note_on", "time": 63, "note": 58, "velocity": 105, "channel": 0}, {"type": "note_off", "time": 105, "note": 58, "velocity": 105, "channel": 0}, {"type": "note_on", "time": 19, "note": 62, "velocity": 116, "channel": 0}, {"type": "note_off", "time": 95, "note": 62, "velocity": 116, "channel": 0}, {"type": "note_on", "time": 63, "note": 62, "velocity": 106, "channel": 0}, {"type": "note_off", "time": 73, "note": 62, "velocity": 106, "channel": 0}, {"type": "note_on", "time": 3, "note": 65, "velocity": 115, "channel": 0}, {"type": "note_off", "time": 133, "note": 65, "velocity": 115, "channel": 0}, {"type": "note_on", "time": 63, "note": 62, "velocity": 114, "channel": 0}, {"type": "note_off", "time": 121, "note": 62, "velocity": 114, "channel": 0}, {"type": "note_on", "time": 60, "note": 61, "velocity": 109, "channel": 0}, {"type": "note_off", "time": 117, "note": 61, "velocity": 109, "channel": 0}, {"type": "note_on", "time": 25, "note": 58, "velocity": 105, "channel": 0}, {"type": "note_off", "time": 152, "note": 58, "velocity": 105, "channel": 0}, {"type": "note_on", "time": 50, "note": 58, "velocity": 106, "channel": 0}, {"type": "note_off", "time": 50, "note": 58, "velocity": 106, "channel": 0}, {"type": "note_on", "time": 9, "note": 61, "velocity": 109, "channel": 0}, {"type": "note_off", "time": 105, "note": 61, "velocity": 109, "channel": 0}, {"type": "note_on", "time": 31, "note": 62, "velocity": 109, "channel": 0}, {"type": "note_off", "time": 251, "note": 62, "velocity": 109, "channel": 0}, {"type": "note_on", "time": 12, "note": 65, "velocity": 110, "channel": 0}, {"type": "note_off", "time": 121, "note": 65, "velocity": 110, "channel": 0}, {"type": "note_on", "time": 3, "note": 67, "velocity": 123, "channel": 0}, {"type": "note_off", "time": 101, "note": 67, "velocity": 123, "channel": 0}, {"type": "note_on", "time": 70, "note": 58, "velocity": 104, "channel": 0}, {"type": "note_off", "time": 121, "note": 58, "velocity": 104, "channel": 0}, {"type": "note_on", "time": 92, "note": 58, "velocity": 91, "channel": 0}, {"type": "note_off", "time": 423, "note": 58, "velocity": 91, "channel": 0}, {"type": "note_on", "time": 637, "note": 64, "velocity": 105, "channel": 0}, {"type": "note_off", "time": 66, "note": 64, "velocity": 105, "channel": 0}, {"type": "note_on", "time": 3, "note": 65, "velocity": 106, "channel": 0}, {"type": "note_off", "time": 50, "note": 65, "velocity": 106, "channel": 0}, {"type": "note_on", "time": 0, "note": 68, "velocity": 112, "channel": 0}, {"type": "note_off", "time": 47, "note": 68, "velocity": 112, "channel": 0}, {"type": "note_on", "time": 11, "note": 70, "velocity": 106, "channel": 0}, {"type": "note_off", "time": 140, "note": 70, "velocity": 106, "channel": 0}, {"type": "note_on", "time": 4, "note": 74, "velocity": 115, "channel": 0}, {"type": "note_off", "time": 108, "note": 74, "velocity": 115, "channel": 0}, {"type": "note_on", "time": 28, "note": 75, "velocity": 93, "channel": 0}, {"type": "note_off", "time": 95, "note": 75, "velocity": 93, "channel": 0}, {"type": "note_on", "time": 25, "note": 73, "velocity": 102, "channel": 0}, {"type": "note_off", "time": 137, "note": 73, "velocity": 102, "channel": 0}, {"type": "note_on", "time": 19, "note": 74, "velocity": 113, "channel": 0}, {"type": "note_off", "time": 105, "note": 74, "velocity": 113, "channel": 0}, {"type": "note_on", "time": 25, "note": 75, "velocity": 101, "channel": 0}, {"type": "note_off", "time": 86, "note": 75, "velocity": 101, "channel": 0}, {"type": "note_on", "time": 19, "note": 74, "velocity": 112, "channel": 0}, {"type": "note_off", "time": 165, "note": 74, "velocity": 112, "channel": 0}, {"type": "note_on", "time": 22, "note": 75, "velocity": 102, "channel": 0}, {"type": "note_off", "time": 239, "note": 75, "velocity": 102, "channel": 0}, {"type": "note_on", "time": 15, "note": 76, "velocity": 111, "channel": 0}, {"type": "note_off", "time": 318, "note": 76, "velocity": 111, "channel": 0}, {"type": "note_on", "time": 15, "note": 77, "velocity": 118, "channel": 0}, {"type": "note_off", "time": 876, "note": 77, "velocity": 118, "channel": 0}, {"type": "note_on", "time": 73, "note": 79, "velocity": 112, "channel": 0}, {"type": "note_off", "time": 175, "note": 79, "velocity": 112, "channel": 0}, {"type": "note_on", "time": 414, "note": 62, "velocity": 116, "channel": 0}, {"type": "note_off", "time": 124, "note": 62, "velocity": 116, "channel": 0}, {"type": "note_on", "time": 28, "note": 65, "velocity": 117, "channel": 0}, {"type": "note_off", "time": 86, "note": 65, "velocity": 117, "channel": 0}, {"type": "note_on", "time": 41, "note": 65, "velocity": 114, "channel": 0}, {"type": "note_off", "time": 124, "note": 65, "velocity": 114, "channel": 0}, {"type": "note_on", "time": 41, "note": 65, "velocity": 113, "channel": 0}, {"type": "note_off", "time": 54, "note": 65, "velocity": 113, "channel": 0}, {"type": "note_on", "time": 15, "note": 65, "velocity": 112, "channel": 0}, {"type": "note_off", "time": 117, "note": 65, "velocity": 112, "channel": 0}, {"type": "note_on", "time": 82, "note": 62, "velocity": 101, "channel": 0}, {"type": "note_off", "time": 133, "note": 62, "velocity": 101, "channel": 0}, {"type": "note_on", "time": 63, "note": 60, "velocity": 110, "channel": 0}, {"type": "note_off", "time": 105, "note": 60, "velocity": 110, "channel": 0}, {"type": "note_on", "time": 31, "note": 60, "velocity": 108, "channel": 0}, {"type": "note_off", "time": 133, "note": 60, "velocity": 108, "channel": 0}, {"type": "note_on", "time": 19, "note": 57, "velocity": 103, "channel": 0}, {"type": "note_off", "time": 50, "note": 57, "velocity": 103, "channel": 0}, {"type": "note_on", "time": 25, "note": 59, "velocity": 104, "channel": 0}, {"type": "note_off", "time": 66, "note": 59, "velocity": 104, "channel": 0}, {"type": "note_on", "time": 19, "note": 60, "velocity": 96, "channel": 0}, {"type": "note_off", "time": 76, "note": 60, "velocity": 96, "channel": 0}, {"type": "note_on", "time": 19, "note": 57, "velocity": 108, "channel": 0}, {"type": "note_off", "time": 130, "note": 57, "velocity": 108, "channel": 0}, {"type": "note_on", "time": 73, "note": 57, "velocity": 114, "channel": 0}, {"type": "note_off", "time": 89, "note": 57, "velocity": 114, "channel": 0}, {"type": "note_on", "time": 31, "note": 57, "velocity": 112, "channel": 0}, {"type": "note_off", "time": 105, "note": 57, "velocity": 112, "channel": 0}, {"type": "note_on", "time": 41, "note": 57, "velocity": 114, "channel": 0}, {"type": "note_off", "time": 127, "note": 57, "velocity": 114, "channel": 0}, {"type": "note_on", "time": 41, "note": 56, "velocity": 9, "channel": 0}, {"type": "note_off", "time": 105, "note": 56, "velocity": 9, "channel": 0}, {"type": "note_on", "time": 15, "note": 53, "velocity": 104, "channel": 0}, {"type": "note_off", "time": 108, "note": 53, "velocity": 104, "channel": 0}, {"type": "note_on", "time": 50, "note": 65, "velocity": 102, "channel": 0}, {"type": "note_off", "time": 105, "note": 65, "velocity": 102, "channel": 0}, {"type": "note_on", "time": 92, "note": 58, "velocity": 85, "channel": 0}, {"type": "note_off", "time": 427, "note": 58, "velocity": 85, "channel": 0}, {"type": "note_on", "time": 567, "note": 67, "velocity": 112, "channel": 0}, {"type": "note_off", "time": 86, "note": 67, "velocity": 112, "channel": 0}, {"type": "note_on", "time": 38, "note": 67, "velocity": 123, "channel": 0}, {"type": "note_off", "time": 108, "note": 67, "velocity": 123, "channel": 0}, {"type": "note_on", "time": 95, "note": 65, "velocity": 97, "channel": 0}, {"type": "note_off", "time": 47, "note": 65, "velocity": 97, "channel": 0}, {"type": "note_on", "time": 28, "note": 67, "velocity": 116, "channel": 0}, {"type": "note_off", "time": 101, "note": 67, "velocity": 116, "channel": 0}, {"type": "note_on", "time": 76, "note": 69, "velocity": 114, "channel": 0}, {"type": "note_off", "time": 95, "note": 69, "velocity": 114, "channel": 0}, {"type": "note_on", "time": 105, "note": 70, "velocity": 115, "channel": 0}, {"type": "note_off", "time": 158, "note": 70, "velocity": 115, "channel": 0}, {"type": "note_on", "time": 64, "note": 67, "velocity": 112, "channel": 0}, {"type": "note_off", "time": 79, "note": 67, "velocity": 112, "channel": 0}, {"type": "note_on", "time": 105, "note": 69, "velocity": 113, "channel": 0}, {"type": "note_off", "time": 121, "note": 69, "velocity": 113, "channel": 0}, {"type": "note_on", "time": 25, "note": 67, "velocity": 113, "channel": 0}, {"type": "note_off", "time": 98, "note": 67, "velocity": 113, "channel": 0}, {"type": "note_on", "time": 79, "note": 67, "velocity": 111, "channel": 0}, {"type": "note_off", "time": 189, "note": 67, "velocity": 111, "channel": 0}, {"type": "note_on", "time": 167, "note": 65, "velocity": 103, "channel": 0}, {"type": "note_off", "time": 89, "note": 65, "velocity": 103, "channel": 0}, {"type": "note_on", "time": 38, "note": 65, "velocity": 104, "channel": 0}, {"type": "note_off", "time": 124, "note": 65, "velocity": 104, "channel": 0}, {"type": "note_on", "time": 3, "note": 62, "velocity": 105, "channel": 0}, {"type": "note_off", "time": 127, "note": 62, "velocity": 105, "channel": 0}, {"type": "note_on", "time": 50, "note": 60, "velocity": 106, "channel": 0}, {"type": "note_off", "time": 105, "note": 60, "velocity": 106, "channel": 0}, {"type": "note_on", "time": 35, "note": 58, "velocity": 98, "channel": 0}, {"type": "note_off", "time": 92, "note": 58, "velocity": 98, "channel": 0}, {"type": "note_on", "time": 47, "note": 60, "velocity": 99, "channel": 0}, {"type": "note_off", "time": 76, "note": 60, "velocity": 99, "channel": 0}, {"type": "note_on", "time": 9, "note": 62, "velocity": 105, "channel": 0}, {"type": "note_off", "time": 92, "note": 62, "velocity": 105, "channel": 0}, {"type": "note_on", "time": 66, "note": 65, "velocity": 104, "channel": 0}, {"type": "note_off", "time": 245, "note": 65, "velocity": 104, "channel": 0}, {"type": "note_on", "time": 73, "note": 58, "velocity": 108, "channel": 0}, {"type": "note_off", "time": 105, "note": 58, "velocity": 108, "channel": 0}, {"type": "note_on", "time": 35, "note": 60, "velocity": 105, "channel": 0}, {"type": "note_off", "time": 66, "note": 60, "velocity": 105, "channel": 0}, {"type": "note_on", "time": 31, "note": 62, "velocity": 109, "channel": 0}, {"type": "note_off", "time": 92, "note": 62, "velocity": 109, "channel": 0}, {"type": "note_on", "time": 114, "note": 65, "velocity": 108, "channel": 0}, {"type": "note_off", "time": 137, "note": 65, "velocity": 108, "channel": 0}, {"type": "note_on", "time": 31, "note": 67, "velocity": 109, "channel": 0}, {"type": "note_off", "time": 133, "note": 67, "velocity": 109, "channel": 0}, {"type": "note_on", "time": 9, "note": 58, "velocity": 103, "channel": 0}, {"type": "note_off", "time": 178, "note": 58, "velocity": 103, "channel": 0}, {"type": "note_on", "time": 15, "note": 60, "velocity": 108, "channel": 0}, {"type": "note_off", "time": 76, "note": 60, "velocity": 108, "channel": 0}, {"type": "note_on", "time": 50, "note": 62, "velocity": 109, "channel": 0}, {"type": "note_on", "time": 70, "note": 65, "velocity": 103, "channel": 0}, {"type": "note_off", "time": 0, "note": 62, "velocity": 109, "channel": 0}, {"type": "note_off", "time": 101, "note": 65, "velocity": 103, "channel": 0}, {"type": "note_on", "time": 41, "note": 58, "velocity": 101, "channel": 0}, {"type": "note_off", "time": 108, "note": 58, "velocity": 101, "channel": 0}, {"type": "note_on", "time": 41, "note": 58, "velocity": 91, "channel": 0}, {"type": "note_off", "time": 589, "note": 58, "velocity": 91, "channel": 0}, {"type": "end_of_track", "time": 0}]]}