{"ticks_per_beat": 192, "tracks": [[{"type": "track_name", "name": "Melody", "time": 0}, {"type": "set_tempo", "tempo": 259740, "time": 0}, {"type": "key_signature", "key": "Eb", "time": 0}, {"type": "time_signature", "numerator": 4, "denominator": 4, "clocks_per_click": 24, "notated_32nd_notes_per_beat": 8, "time": 0}, {"type": "note_on", "time": 4076, "note": 67, "velocity": 107, "channel": 0}, {"type": "note_off", "time": 116, "note": 67, "velocity": 107, "channel": 0}, {"type": "note_on", "time": 78, "note": 67, "velocity": 111, "channel": 0}, {"type": "note_off", "time": 116, "note": 67, "velocity": 111, "channel": 0}, {"type": "note_on", "time": 30, "note": 67, "velocity": 88, "channel": 0}, {"type": "note_off", "time": 111, "note": 67, "velocity": 88, "channel": 0}, {"type": "note_on", "time": 13, "note": 68, "velocity": 118, "channel": 0}, {"type": "note_off", "time": 102, "note": 68, "velocity": 118, "channel": 0}, {"type": "note_on", "time": 25, "note": 67, "velocity": 119, "channel": 0}, {"type": "note_off", "time": 343, "note": 67, "velocity": 119, "channel": 0}, {"type": "note_on", "time": 42, "note": 65, "velocity": 102, "channel": 0}, {"type": "note_off", "time": 107, "note": 65, "velocity": 102, "channel": 0}, {"type": "note_on", "time": 24, "note": 64, "velocity": 104, "channel": 0}, {"type": "note_off", "time": 58, "note": 64, "velocity": 104, "channel": 0}, {"type": "note_on", "time": 24, "note": 63, "velocity": 100, "channel": 0}, {"type": "note_off", "time": 336, "note": 63, "velocity": 100, "channel": 0}, {"type": "note_on", "time": 52, "note": 60, "velocity": 106, "channel": 0}, {"type": "note_off", "time": 76, "note": 60, "velocity": 106, "channel": 0}, {"type": "note_on", "time": 55, "note": 60, "velocity": 103, "channel": 0}, {"type": "note_off", "time": 202, "note": 60, "velocity": 103, "channel": 0}, {"type": "note_on", "time": 42, "note": 55, "velocity": 103, "channel": 0}, {"type": "note_off", "time": 128, "note": 55, "velocity": 103, "channel": 0}, {"type": "note_on", "time": 34, "note": 55, "velocity": 108, "channel": 0}, {"type": "note_off", "time": 143, "note": 55, "velocity": 108, "channel": 0}, {"type": "note_on", "time": 22, "note": 55, "velocity": 110, "channel": 0}, {"type": "note_off", "time": 69, "note": 55, "velocity": 110, "channel": 0}, {"type": "note_on", "time": 9, "note": 56, "velocity": 103, "channel": 0}, {"type": "note_off", "time": 141, "note": 56, "velocity": 103, "channel": 0}, {"type": "note_on", "time": 28, "note": 55, "velocity": 102, "channel": 0}, {"type": "note_off", "time": 108, "note": 55, "velocity": 102, "channel": 0}, {"type": "note_on", "time": 104, "note": 60, "velocity": 104, "channel": 0}, {"type": "note_off", "time": 273, "note": 60, "velocity": 104, "channel": 0}, {"type": "note_on", "time": 12, "note": 62, "velocity": 100, "channel": 0}, {"type": "note_off", "time": 67, "note": 62, "velocity": 100, "channel": 0}, {"type": "note_on", "time": 15, "note": 60, "velocity": 106, "channel": 0}, {"type": "note_off", "time": 111, "note": 60, "velocity": 106, "channel": 0}, {"type": "note_on", "time": 57, "note": 54, "velocity": 95, "channel": 0}, {"type": "note_off", "time": 49, "note": 54, "velocity": 95, "channel": 0}, {"type": "note_on", "time": 10, "note": 55, "velocity": 102, "channel": 0}, {"type": "note_off", "time": 117, "note": 55, "velocity": 102, "channel": 0}, {"type": "note_on", "time": 43, "note": 60, "velocity": 105, "channel": 0}, {"type": "note_off", "time": 67, "note": 60, "velocity": 105, "channel": 0}, {"type": "note_on", "time": 58, "note": 60, "velocity": 109, "channel": 0}, {"type": "note_off", "time": 132, "note": 60, "velocity": 109, "channel": 0}, {"type": "note_on", "time": 60, "note": 60, "velocity": 95, "channel": 0}, {"type": "note_off", "time": 161, "note": 60, "velocity": 95, "channel": 0}, {"type": "note_on", "time": 1089, "note": 67, "velocity": 127, "channel": 0}, {"type": "note_off", "time": 311, "note": 67, "velocity": 127, "channel": 0}, {"type": "note_on", "time": 36, "note": 68, "velocity": 121, "channel": 0}, {"type": "note_off", "time": 386, "note": 68, "velocity": 121, "channel": 0}, {"type": "note_on", "time": 41, "note": 67, "velocity": 123, "channel": 0}, {"type": "note_off", "time": 39, "note": 67, "velocity": 123, "channel": 0}, {"type": "note_on", "time": 0, "note": 66, "velocity": 109, "channel": 0}, {"type": "note_off", "time": 76, "note": 66, "velocity": 109, "channel": 0}, {"type": "note_on", "time": 61, "note": 60, "velocity": 109, "channel": 0}, {"type": "note_off", "time": 110, "note": 60, "velocity": 109, "channel": 0}, {"type": "note_on", "time": 89, "note": 60, "velocity": 112, "channel": 0}, {"type": "note_off", "time": 107, "note": 60, "velocity": 112, "channel": 0}, {"type": "note_on", "time": 98, "note": 60, "velocity": 109, "channel": 0}, {"type": "note_off", "time": 129, "note": 60, "velocity": 109, "channel": 0}, {"type": "note_on", "time": 60, "note": 63, "velocity": 108, "channel": 0}, {"type": "note_off", "time": 123, "note": 63, "velocity": 108, "channel": 0}, {"type": "note_on", "time": 18, "note": 64, "velocity": 102, "channel": 0}, {"type": "note_off", "time": 236, "note": 64, "velocity": 102, "channel": 0}, {"type": "note_on", "time": 10, "note": 60, "velocity": 104, "channel": 0}, {"type": "note_off", "time": 144, "note": 60, "velocity": 104, "channel": 0}, {"type": "note_on", "time": 39, "note": 63, "velocity": 101, "channel": 0}, {"type": "note_off", "time": 161, "note": 63, "velocity": 101, "channel": 0}, {"type": "note_on", "time": 21, "note": 60, "velocity": 105, "channel": 0}, {"type": "note_off", "time": 64, "note": 60, "velocity": 105, "channel": 0}, {"type": "note_on", "time": 126, "note": 55, "velocity": 99, "channel": 0}, {"type": "note_off", "time": 144, "note": 55, "velocity": 99, "channel": 0}, {"type": "note_on", "time": 48, "note": 56, "velocity": 101, "channel": 0}, {"type": "note_off", "time": 187, "note": 56, "velocity": 101, "channel": 0}, {"type": "note_on", "time": 42, "note": 55, "velocity": 100, "channel": 0}, {"type": "note_off", "time": 138, "note": 55, "velocity": 100, "channel": 0}, {"type": "note_on", "time": 39, "note": 60, "velocity": 109, "channel": 0}, {"type": "note_off", "time": 76, "note": 60, "velocity": 109, "channel": 0}, {"type": "note_on", "time": 27, "note": 60, "velocity": 111, "channel": 0}, {"type": "note_off", "time": 61, "note": 60, "velocity": 111, "channel": 0}, {"type": "note_on", "time": 9, "note": 60, "velocity": 104, "channel": 0}, {"type": "note_off", "time": 81, "note": 60, "velocity": 104, "channel": 0}, {"type": "note_on", "time": 27, "note": 60, "velocity": 98, "channel": 0}, {"type": "note_off", "time": 87, "note": 60, "velocity": 98, "channel": 0}, {"type": "note_on", "time": 36, "note": 61, "velocity": 107, "channel": 0}, {"type": "note_off", "time": 25, "note": 61, "velocity": 107, "channel": 0}, {"type": "note_on", "time": 7, "note": 62, "velocity": 106, "channel": 0}, {"type": "note_off", "time": 60, "note": 62, "velocity": 106, "channel": 0}, {"type": "note_on", "time": 36, "note": 60, "velocity": 107, "channel": 0}, {"type": "note_off", "time": 96, "note": 60, "velocity": 107, "channel": 0}, {"type": "note_on", "time": 58, "note": 60, "velocity": 98, "channel": 0}, {"type": "note_off", "time": 78, "note": 60, "velocity": 98, "channel": 0}, {"type": "note_on", "time": 43, "note": 55, "velocity": 100, "channel": 0}, {"type": "note_off", "time": 90, "note": 55, "velocity": 100, "channel": 0}, {"type": "note_on", "time": 33, "note": 55, "velocity": 115, "channel": 0}, {"type": "note_off", "time": 96, "note": 55, "velocity": 115, "channel": 0}, {"type": "note_on", "time": 27, "note": 55, "velocity": 107, "channel": 0}, {"type": "note_off", "time": 98, "note": 55, "velocity": 107, "channel": 0}, {"type": "note_on", "time": 19, "note": 56, "velocity": 111, "channel": 0}, {"type": "note_off", "time": 99, "note": 56, "velocity": 111, "channel": 0}, {"type": "note_on", "time": 21, "note": 55, "velocity": 107, "channel": 0}, {"type": "note_off", "time": 129, "note": 55, "velocity": 107, "channel": 0}, {"type": "note_on", "time": 78, "note": 60, "velocity": 93, "channel": 0}, {"type": "note_off", "time": 576, "note": 60, "velocity": 93, "channel": 0}, {"type": "note_on", "time": 638, "note": 68, "velocity": 125, "channel": 0}, {"type": "note_off", "time": 122, "note": 68, "velocity": 125, "channel": 0}, {"type": "note_on", "time": 12, "note": 69, "velocity": 121, "channel": 0}, {"type": "note_off", "time": 205, "note": 69, "velocity": 121, "channel": 0}, {"type": "note_on", "time": 60, "note": 67, "velocity": 120, "channel": 0}, {"type": "note_off", "time": 102, "note": 67, "velocity": 120, "channel": 0}, {"type": "note_on", "time": 47, "note": 67, "velocity": 109, "channel": 0}, {"type": "note_off", "time": 143, "note": 67, "velocity": 109, "channel": 0}, {"type": "note_on", "time": 98, "note": 60, "velocity": 105, "channel": 0}, {"type": "note_off", "time": 210, "note": 60, "velocity": 105, "channel": 0}, {"type": "note_on", "time": 128, "note": 67, "velocity": 125, "channel": 0}, {"type": "note_off", "time": 113, "note": 67, "velocity": 125, "channel": 0}, {"type": "note_on", "time": 27, "note": 67, "velocity": 123, "channel": 0}, {"type": "note_off", "time": 87, "note": 67, "velocity": 123, "channel": 0}, {"type": "note_on", "time": 66, "note": 67, "velocity": 101, "channel": 0}, {"type": "note_off", "time": 92, "note": 67, "velocity": 101, "channel": 0}, {"type": "note_on", "time": 25, "note": 69, "velocity": 108, "channel": 0}, {"type": "note_off", "time": 154, "note": 69, "velocity": 108, "channel": 0}, {"type": "note_on", "time": 21, "note": 67, "velocity": 118, "channel": 0}, {"type": "note_off", "time": 130, "note": 67, "velocity": 118, "channel": 0}, {"type": "note_on", "time": 34, "note": 67, "velocity": 106, "channel": 0}, {"type": "note_off", "time": 180, "note": 67, "velocity": 106, "channel": 0}, {"type": "note_on", "time": 55, "note": 60, "velocity": 104, "channel": 0}, {"type": "note_off", "time": 133, "note": 60, "velocity": 104, "channel": 0}, {"type": "note_on", "time": 66, "note": 63, "velocity": 96, "channel": 0}, {"type": "note_off", "time": 341, "note": 63, "velocity": 96, "channel": 0}, {"type": "note_on", "time": 34, "note": 60, "velocity": 107, "channel": 0}, {"type": "note_off", "time": 115, "note": 60, "velocity": 107, "channel": 0}, {"type": "note_on", "time": 36, "note": 60, "velocity": 110, "channel": 0}, {"type": "note_off", "time": 107, "note": 60, "velocity": 110, "channel": 0}, {"type": "note_on", "time": 47, "note": 63, "velocity": 89, "channel": 0}, {"type": "note_off", "time": 411, "note": 63, "velocity": 89, "channel": 0}, {"type": "note_on", "time": 439, "note": 53, "velocity": 106, "channel": 0}, {"type": "note_off", "time": 109, "note": 53, "velocity": 106, "channel": 0}, {"type": "note_on", "time": 27, "note": 58, "velocity": 109, "channel": 0}, {"type": "note_off", "time": 120, "note": 58, "velocity": 109, "channel": 0}, {"type": "note_on", "time": 62, "note": 53, "velocity": 98, "channel": 0}, {"type": "note_off", "time": 51, "note": 53, "velocity": 98, "channel": 0}, {"type": "note_on", "time": 17, "note": 58, "velocity": 107, "channel": 0}, {"type": "note_off", "time": 122, "note": 58, "velocity": 107, "channel": 0}, {"type": "note_on", "time": 68, "note": 62, "velocity": 96, "channel": 0}, {"type": "note_off", "time": 135, "note": 62, "velocity": 96, "channel": 0}, {"type": "note_on", "time": 68, "note": 65, "velocity": 108, "channel": 0}, {"type": "note_off", "time": 107, "note": 65, "velocity": 108, "channel": 0}, {"type": "note_on", "time": 68, "note": 65, "velocity": 110, "channel": 0}, {"type": "note_off", "time": 102, "note": 65, "velocity": 110, "channel": 0}, {"type": "note_on", "time": 21, "note": 64, "velocity": 106, "channel": 0}, {"type": "note_off", "time": 57, "note": 64, "velocity": 106, "channel": 0}, {"type": "note_on", "time": 32, "note": 63, "velocity": 89, "channel": 0}, {"type": "note_off", "time": 128, "note": 63, "velocity": 89, "channel": 0}, {"type": "note_on", "time": 48, "note": 55, "velocity": 107, "channel": 0}, {"type": "note_off", "time": 109, "note": 55, "velocity": 107, "channel": 0}, {"type": "note_on", "time": 71, "note": 55, "velocity": 103, "channel": 0}, {"type": "note_off", "time": 343, "note": 55, "velocity": 103, "channel": 0}, {"type": "note_on", "time": 54, "note": 56, "velocity": 120, "channel": 0}, {"type": "note_off", "time": 115, "note": 56, "velocity": 120, "channel": 0}, {"type": "note_on", "time": 41, "note": 55, "velocity": 110, "channel": 0}, {"type": "note_off", "time": 118, "note": 55, "velocity": 110, "channel": 0}, {"type": "note_on", "time": 60, "note": 60, "velocity": 106, "channel": 0}, {"type": "note_off", "time": 695, "note": 60, "velocity": 106, "channel": 0}, {"type": "note_on", "time": 337, "note": 65, "velocity": 98, "channel": 0}, {"type": "note_off", "time": 45, "note": 65, "velocity": 98, "channel": 0}, {"type": "note_on", "time": 19, "note": 68, "velocity": 114, "channel": 0}, {"type": "note_off", "time": 51, "note": 68, "velocity": 114, "channel": 0}, {"type": "note_on", "time": 17, "note": 71, "velocity": 122, "channel": 0}, {"type": "note_off", "time": 47, "note": 71, "velocity": 122, "channel": 0}, {"type": "note_on", "time": 15, "note": 72, "velocity": 93, "channel": 0}, {"type": "note_off", "time": 109, "note": 72, "velocity": 93, "channel": 0}, {"type": "note_on", "time": 94, "note": 60, "velocity": 111, "channel": 0}, {"type": "note_off", "time": 72, "note": 60, "velocity": 111, "channel": 0}, {"type": "note_on", "time": 100, "note": 60, "velocity": 108, "channel": 0}, {"type": "note_off", "time": 242, "note": 60, "velocity": 108, "channel": 0}, {"type": "note_on", "time": 25, "note": 61, "velocity": 97, "channel": 0}, {"type": "note_off", "time": 70, "note": 61, "velocity": 97, "channel": 0}, {"type": "note_on", "time": 36, "note": 60, "velocity": 88, "channel": 0}, {"type": "note_off", "time": 135, "note": 60, "velocity": 88, "channel": 0}, {"type": "note_on", "time": 68, "note": 55, "velocity": 111, "channel": 0}, {"type": "note_off", "time": 227, "note": 55, "velocity": 111, "channel": 0}, {"type": "note_on", "time": 21, "note": 55, "velocity": 96, "channel": 0}, {"type": "note_off", "time": 148, "note": 55, "velocity": 96, "channel": 0}, {"type": "note_on", "time": 10, "note": 56, "velocity": 113, "channel": 0}, {"type": "note_off", "time": 150, "note": 56, "velocity": 113, "channel": 0}, {"type": "note_on", "time": 23, "note": 55, "velocity": 114, "channel": 0}, {"type": "note_off", "time": 266, "note": 55, "velocity": 114, "channel": 0}, {"type": "note_on", "time": 16, "note": 56, "velocity": 105, "channel": 0}, {"type": "note_off", "time": 60, "note": 56, "velocity": 105, "channel": 0}, {"type": "note_on", "time": 55, "note": 63, "velocity": 109, "channel": 0}, {"type": "note_off", "time": 324, "note": 63, "velocity": 109, "channel": 0}, {"type": "note_on", "time": 22, "note": 62, "velocity": 108, "channel": 0}, {"type": "note_off", "time": 95, "note": 62, "velocity": 108, "channel": 0}, {"type": "note_on", "time": 19, "note": 60, "velocity": 105, "channel": 0}, {"type": "note_off", "time": 107, "note": 60, "velocity": 105, "channel": 0}, {"type": "note_on", "time": 39, "note": 55, "velocity": 100, "channel": 0}, {"type": "note_off", "time": 499, "note": 55, "velocity": 100, "channel": 0}, {"type": "note_on", "time": 394, "note": 56, "velocity": 122, "channel": 0}, {"type": "note_off", "time": 109, "note": 56, "velocity": 122, "channel": 0}, {"type": "note_on", "time": 34, "note": 55, "velocity": 107, "channel": 0}, {"type": "note_off", "time": 113, "note": 55, "velocity": 107, "channel": 0}, {"type": "note_on", "time": 60, "note": 62, "velocity": 109, "channel": 0}, {"type": "note_off", "time": 68, "note": 62, "velocity": 109, "channel": 0}, {"type": "note_on", "time": 15, "note": 63, "velocity": 106, "channel": 0}, {"type": "note_off", "time": 371, "note": 63, "velocity": 106, "channel": 0}, {"type": "note_on", "time": 32, "note": 60, "velocity": 110, "channel": 0}, {"type": "note_off", "time": 90, "note": 60, "velocity": 110, "channel": 0}, {"type": "note_on", "time": 53, "note": 60, "velocity": 110, "channel": 0}, {"type": "note_off", "time": 75, "note": 60, "velocity": 110, "channel": 0}, {"type": "note_on", "time": 42, "note": 60, "velocity": 106, "channel": 0}, {"type": "note_off", "time": 105, "note": 60, "velocity": 106, "channel": 0}, {"type": "note_on", "time": 19, "note": 60, "velocity": 106, "channel": 0}, {"type": "note_off", "time": 109, "note": 60, "velocity": 106, "channel": 0}, {"type": "note_on", "time": 36, "note": 55, "velocity": 105, "channel": 0}, {"type": "note_off", "time": 111, "note": 55, "velocity": 105, "channel": 0}, {"type": "note_on", "time": 38, "note": 55, "velocity": 96, "channel": 0}, {"type": "note_off", "time": 343, "note": 55, "velocity": 96, "channel": 0}, {"type": "end_of_track", "time": 0}]]}