{"ticks_per_beat": 192, "tracks": [[{"type": "track_name", "name": "Melody", "time": 0}, {"type": "set_tempo", "tempo": 206185, "time": 0}, {"type": "key_signature", "key": "Ab", "time": 0}, {"type": "time_signature", "numerator": 4, "denominator": 4, "clocks_per_click": 24, "notated_32nd_notes_per_beat": 8, "time": 0}, {"type": "note_on", "time": 2756, "note": 72, "velocity": 112, "channel": 0}, {"type": "note_off", "time": 51, "note": 72, "velocity": 112, "channel": 0}, {"type": "note_on", "time": 4, "note": 74, "velocity": 107, "channel": 0}, {"type": "note_off", "time": 78, "note": 74, "velocity": 107, "channel": 0}, {"type": "note_on", "time": 7, "note": 72, "velocity": 105, "channel": 0}, {"type": "note_off", "time": 62, "note": 72, "velocity": 105, "channel": 0}, {"type": "note_on", "time": 8, "note": 70, "velocity": 105, "channel": 0}, {"type": "note_off", "time": 70, "note": 70, "velocity": 105, "channel": 0}, {"type": "note_on", "time": 127, "note": 68, "velocity": 107, "channel": 0}, {"type": "note_off", "time": 91, "note": 68, "velocity": 107, "channel": 0}, {"type": "note_on", "time": 34, "note": 72, "velocity": 111, "channel": 0}, {"type": "note_off", "time": 60, "note": 72, "velocity": 111, "channel": 0}, {"type": "note_on", "time": 134, "note": 68, "velocity": 102, "channel": 0}, {"type": "note_off", "time": 60, "note": 68, "velocity": 102, "channel": 0}, {"type": "note_on", "time": 127, "note": 72, "velocity": 115, "channel": 0}, {"type": "note_off", "time": 68, "note": 72, "velocity": 115, "channel": 0}, {"type": "note_on", "time": 567, "note": 72, "velocity": 106, "channel": 0}, {"type": "note_off", "time": 43, "note": 72, "velocity": 106, "channel": 0}, {"type": "note_on", "time": 10, "note": 74, "velocity": 108, "channel": 0}, {"type": "note_off", "time": 65, "note": 74, "velocity": 108, "channel": 0}, {"type": "note_on", "time": 6, "note": 72, "velocity": 105, "channel": 0}, {"type": "note_off", "time": 41, "note": 72, "velocity": 105, "channel": 0}, {"type": "note_on", "time": 5, "note": 74, "velocity": 99, "channel": 0}, {"type": "note_off", "time": 45, "note": 74, "velocity": 99, "channel": 0}, {"type": "note_on", "time": 7, "note": 70, "velocity": 98, "channel": 0}, {"type": "note_off", "time": 72, "note": 70, "velocity": 98, "channel": 0}, {"type": "note_on", "time": 27, "note": 67, "velocity": 85, "channel": 0}, {"type": "note_off", "time": 62, "note": 67, "velocity": 85, "channel": 0}, {"type": "note_on", "time": 16, "note": 68, "velocity": 99, "channel": 0}, {"type": "note_off", "time": 110, "note": 68, "velocity": 99, "channel": 0}, {"type": "note_on", "time": 28, "note": 72, "velocity": 113, "channel": 0}, {"type": "note_off", "time": 72, "note": 72, "velocity": 113, "channel": 0}, {"type": "note_on", "time": 120, "note": 70, "velocity": 102, "channel": 0}, {"type": "note_off", "time": 54, "note": 70, "velocity": 102, "channel": 0}, {"type": "note_on", "time": 127, "note": 66, "velocity": 105, "channel": 0}, {"type": "note_off", "time": 105, "note": 66, "velocity": 105, "channel": 0}, {"type": "note_on", "time": 741, "note": 70, "velocity": 116, "channel": 0}, {"type": "note_off", "time": 83, "note": 70, "velocity": 116, "channel": 0}, {"type": "note_on", "time": 18, "note": 68, "velocity": 109, "channel": 0}, {"type": "note_off", "time": 45, "note": 68, "velocity": 109, "channel": 0}, {"type": "note_on", "time": 24, "note": 67, "velocity": 101, "channel": 0}, {"type": "note_off", "time": 67, "note": 67, "velocity": 101, "channel": 0}, {"type": "note_on", "time": 31, "note": 65, "velocity": 111, "channel": 0}, {"type": "note_off", "time": 89, "note": 65, "velocity": 111, "channel": 0}, {"type": "note_on", "time": 33, "note": 64, "velocity": 90, "channel": 0}, {"type": "note_off", "time": 77, "note": 64, "velocity": 90, "channel": 0}, {"type": "note_on", "time": 17, "note": 67, "velocity": 87, "channel": 0}, {"type": "note_off", "time": 43, "note": 67, "velocity": 87, "channel": 0}, {"type": "note_on", "time": 20, "note": 70, "velocity": 117, "channel": 0}, {"type": "note_off", "time": 81, "note": 70, "velocity": 117, "channel": 0}, {"type": "note_on", "time": 41, "note": 73, "velocity": 116, "channel": 0}, {"type": "note_off", "time": 75, "note": 73, "velocity": 116, "channel": 0}, {"type": "note_on", "time": 15, "note": 72, "velocity": 112, "channel": 0}, {"type": "note_off", "time": 64, "note": 72, "velocity": 112, "channel": 0}, {"type": "note_on", "time": 12, "note": 70, "velocity": 118, "channel": 0}, {"type": "note_off", "time": 85, "note": 70, "velocity": 118, "channel": 0}, {"type": "note_on", "time": 13, "note": 67, "velocity": 95, "channel": 0}, {"type": "note_off", "time": 102, "note": 67, "velocity": 95, "channel": 0}, {"type": "note_on", "time": 15, "note": 68, "velocity": 90, "channel": 0}, {"type": "note_off", "time": 48, "note": 68, "velocity": 90, "channel": 0}, {"type": "note_on", "time": 14, "note": 70, "velocity": 112, "channel": 0}, {"type": "note_off", "time": 110, "note": 70, "velocity": 112, "channel": 0}, {"type": "note_on", "time": 15, "note": 67, "velocity": 91, "channel": 0}, {"type": "note_off", "time": 72, "note": 67, "velocity": 91, "channel": 0}, {"type": "note_on", "time": 12, "note": 68, "velocity": 104, "channel": 0}, {"type": "note_off", "time": 68, "note": 68, "velocity": 104, "channel": 0}, {"type": "note_on", "time": 122, "note": 65, "velocity": 106, "channel": 0}, {"type": "note_off", "time": 62, "note": 65, "velocity": 106, "channel": 0}, {"type": "note_on", "time": 37, "note": 68, "velocity": 108, "channel": 0}, {"type": "note_off", "time": 67, "note": 68, "velocity": 108, "channel": 0}, {"type": "note_on", "time": 21, "note": 67, "velocity": 103, "channel": 0}, {"type": "note_off", "time": 59, "note": 67, "velocity": 103, "channel": 0}, {"type": "note_on", "time": 68, "note": 65, "velocity": 114, "channel": 0}, {"type": "note_off", "time": 56, "note": 65, "velocity": 114, "channel": 0}, {"type": "note_on", "time": 8, "note": 64, "velocity": 89, "channel": 0}, {"type": "note_off", "time": 86, "note": 64, "velocity": 89, "channel": 0}, {"type": "note_on", "time": 7, "note": 60, "velocity": 87, "channel": 0}, {"type": "note_off", "time": 87, "note": 60, "velocity": 87, "channel": 0}, {"type": "note_on", "time": 10, "note": 65, "velocity": 112, "channel": 0}, {"type": "note_off", "time": 94, "note": 65, "velocity": 112, "channel": 0}, {"type": "note_on", "time": 959, "note": 80, "velocity": 119, "channel": 0}, {"type": "note_off", "time": 373, "note": 80, "velocity": 119, "channel": 0}, {"type": "note_on", "time": 12, "note": 77, "velocity": 118, "channel": 0}, {"type": "note_off", "time": 68, "note": 77, "velocity": 118, "channel": 0}, {"type": "note_on", "time": 6, "note": 76, "velocity": 118, "channel": 0}, {"type": "note_off", "time": 80, "note": 76, "velocity": 118, "channel": 0}, {"type": "note_on", "time": 8, "note": 77, "velocity": 103, "channel": 0}, {"type": "note_off", "time": 43, "note": 77, "velocity": 103, "channel": 0}, {"type": "note_on", "time": 12, "note": 81, "velocity": 117, "channel": 0}, {"type": "note_off", "time": 46, "note": 81, "velocity": 117, "channel": 0}, {"type": "note_on", "time": 32, "note": 85, "velocity": 124, "channel": 0}, {"type": "note_off", "time": 71, "note": 85, "velocity": 124, "channel": 0}, {"type": "note_on", "time": 7, "note": 84, "velocity": 120, "channel": 0}, {"type": "note_off", "time": 72, "note": 84, "velocity": 120, "channel": 0}, {"type": "note_on", "time": 7, "note": 82, "velocity": 119, "channel": 0}, {"type": "note_off", "time": 38, "note": 82, "velocity": 119, "channel": 0}, {"type": "note_on", "time": 11, "note": 80, "velocity": 119, "channel": 0}, {"type": "note_off", "time": 70, "note": 80, "velocity": 119, "channel": 0}, {"type": "note_on", "time": 5, "note": 79, "velocity": 111, "channel": 0}, {"type": "note_off", "time": 46, "note": 79, "velocity": 111, "channel": 0}, {"type": "note_on", "time": 5, "note": 80, "velocity": 113, "channel": 0}, {"type": "note_off", "time": 53, "note": 80, "velocity": 113, "channel": 0}, {"type": "note_on", "time": 6, "note": 82, "velocity": 118, "channel": 0}, {"type": "note_off", "time": 90, "note": 82, "velocity": 118, "channel": 0}, {"type": "note_on", "time": 9, "note": 80, "velocity": 119, "channel": 0}, {"type": "note_off", "time": 75, "note": 80, "velocity": 119, "channel": 0}, {"type": "note_on", "time": 5, "note": 79, "velocity": 111, "channel": 0}, {"type": "note_off", "time": 77, "note": 79, "velocity": 111, "channel": 0}, {"type": "note_on", "time": 9, "note": 77, "velocity": 119, "channel": 0}, {"type": "note_off", "time": 82, "note": 77, "velocity": 119, "channel": 0}, {"type": "note_on", "time": 5, "note": 76, "velocity": 111, "channel": 0}, {"type": "note_off", "time": 63, "note": 76, "velocity": 111, "channel": 0}, {"type": "note_on", "time": 3, "note": 73, "velocity": 88, "channel": 0}, {"type": "note_off", "time": 37, "note": 73, "velocity": 88, "channel": 0}, {"type": "note_on", "time": 71, "note": 70, "velocity": 115, "channel": 0}, {"type": "note_off", "time": 96, "note": 70, "velocity": 115, "channel": 0}, {"type": "note_on", "time": 6, "note": 73, "velocity": 112, "channel": 0}, {"type": "note_off", "time": 69, "note": 73, "velocity": 112, "channel": 0}, {"type": "note_on", "time": 13, "note": 72, "velocity": 107, "channel": 0}, {"type": "note_off", "time": 88, "note": 72, "velocity": 107, "channel": 0}, {"type": "note_on", "time": 5, "note": 70, "velocity": 116, "channel": 0}, {"type": "note_off", "time": 78, "note": 70, "velocity": 116, "channel": 0}, {"type": "note_on", "time": 4, "note": 67, "velocity": 95, "channel": 0}, {"type": "note_off", "time": 55, "note": 67, "velocity": 95, "channel": 0}, {"type": "note_on", "time": 63, "note": 68, "velocity": 84, "channel": 0}, {"type": "note_off", "time": 64, "note": 68, "velocity": 84, "channel": 0}, {"type": "note_on", "time": 19, "note": 70, "velocity": 113, "channel": 0}, {"type": "note_off", "time": 100, "note": 70, "velocity": 113, "channel": 0}, {"type": "note_on", "time": 6, "note": 68, "velocity": 110, "channel": 0}, {"type": "note_off", "time": 79, "note": 68, "velocity": 110, "channel": 0}, {"type": "note_on", "time": 13, "note": 67, "velocity": 102, "channel": 0}, {"type": "note_off", "time": 62, "note": 67, "velocity": 102, "channel": 0}, {"type": "note_on", "time": 21, "note": 65, "velocity": 109, "channel": 0}, {"type": "note_off", "time": 85, "note": 65, "velocity": 109, "channel": 0}, {"type": "note_on", "time": 13, "note": 64, "velocity": 97, "channel": 0}, {"type": "note_off", "time": 70, "note": 64, "velocity": 97, "channel": 0}, {"type": "note_on", "time": 49, "note": 67, "velocity": 93, "channel": 0}, {"type": "note_off", "time": 48, "note": 67, "velocity": 93, "channel": 0}, {"type": "note_on", "time": 6, "note": 70, "velocity": 113, "channel": 0}, {"type": "note_off", "time": 97, "note": 70, "velocity": 113, "channel": 0}, {"type": "note_on", "time": 13, "note": 73, "velocity": 109, "channel": 0}, {"type": "note_off", "time": 94, "note": 73, "velocity": 109, "channel": 0}, {"type": "note_on", "time": 6, "note": 72, "velocity": 101, "channel": 0}, {"type": "note_off", "time": 87, "note": 72, "velocity": 101, "channel": 0}, {"type": "note_on", "time": 8, "note": 70, "velocity": 110, "channel": 0}, {"type": "note_off", "time": 78, "note": 70, "velocity": 110, "channel": 0}, {"type": "note_on", "time": 22, "note": 68, "velocity": 91, "channel": 0}, {"type": "note_off", "time": 56, "note": 68, "velocity": 91, "channel": 0}, {"type": "note_on", "time": 8, "note": 67, "velocity": 80, "channel": 0}, {"type": "note_off", "time": 53, "note": 67, "velocity": 80, "channel": 0}, {"type": "note_on", "time": 13, "note": 68, "velocity": 87, "channel": 0}, {"type": "note_off", "time": 45, "note": 68, "velocity": 87, "channel": 0}, {"type": "note_on", "time": 18, "note": 70, "velocity": 106, "channel": 0}, {"type": "note_off", "time": 81, "note": 70, "velocity": 106, "channel": 0}, {"type": "note_on", "time": 19, "note": 67, "velocity": 100, "channel": 0}, {"type": "note_off", "time": 54, "note": 67, "velocity": 100, "channel": 0}, {"type": "note_on", "time": 20, "note": 68, "velocity": 110, "channel": 0}, {"type": "note_off", "time": 72, "note": 68, "velocity": 110, "channel": 0}, {"type": "note_on", "time": 61, "note": 65, "velocity": 83, "channel": 0}, {"type": "note_off", "time": 64, "note": 65, "velocity": 83, "channel": 0}, {"type": "note_on", "time": 1, "note": 66, "velocity": 100, "channel": 0}, {"type": "note_off", "time": 84, "note": 66, "velocity": 100, "channel": 0}, {"type": "note_on", "time": 17, "note": 68, "velocity": 110, "channel": 0}, {"type": "note_off", "time": 82, "note": 68, "velocity": 110, "channel": 0}, {"type": "note_on", "time": 9, "note": 67, "velocity": 102, "channel": 0}, {"type": "note_off", "time": 66, "note": 67, "velocity": 102, "channel": 0}, {"type": "note_on", "time": 9, "note": 65, "velocity": 114, "channel": 0}, {"type": "note_off", "time": 71, "note": 65, "velocity": 114, "channel": 0}, {"type": "note_on", "time": 9, "note": 64, "velocity": 104, "channel": 0}, {"type": "note_off", "time": 48, "note": 64, "velocity": 104, "channel": 0}, {"type": "note_on", "time": 134, "note": 65, "velocity": 101, "channel": 0}, {"type": "note_off", "time": 96, "note": 65, "velocity": 101, "channel": 0}, {"type": "note_on", "time": 40, "note": 60, "velocity": 99, "channel": 0}, {"type": "note_off", "time": 53, "note": 60, "velocity": 99, "channel": 0}, {"type": "note_on", "time": 988, "note": 75, "velocity": 96, "channel": 0}, {"type": "note_off", "time": 140, "note": 75, "velocity": 96, "channel": 0}, {"type": "note_on", "time": 53, "note": 87, "velocity": 124, "channel": 0}, {"type": "note_off", "time": 462, "note": 87, "velocity": 124, "channel": 0}, {"type": "note_on", "time": 3, "note": 85, "velocity": 116, "channel": 0}, {"type": "note_off", "time": 50, "note": 85, "velocity": 116, "channel": 0}, {"type": "note_on", "time": 7, "note": 86, "velocity": 122, "channel": 0}, {"type": "note_off", "time": 123, "note": 86, "velocity": 122, "channel": 0}, {"type": "note_on", "time": 13, "note": 84, "velocity": 118, "channel": 0}, {"type": "note_off", "time": 123, "note": 84, "velocity": 118, "channel": 0}, {"type": "note_on", "time": 36, "note": 81, "velocity": 114, "channel": 0}, {"type": "note_off", "time": 81, "note": 81, "velocity": 114, "channel": 0}, {"type": "note_on", "time": 8, "note": 80, "velocity": 113, "channel": 0}, {"type": "note_off", "time": 136, "note": 80, "velocity": 113, "channel": 0}, {"type": "note_on", "time": 0, "note": 76, "velocity": 85, "channel": 0}, {"type": "note_off", "time": 45, "note": 76, "velocity": 85, "channel": 0}, {"type": "note_on", "time": 23, "note": 78, "velocity": 119, "channel": 0}, {"type": "note_off", "time": 71, "note": 78, "velocity": 119, "channel": 0}, {"type": "note_on", "time": 7, "note": 80, "velocity": 118, "channel": 0}, {"type": "note_off", "time": 87, "note": 80, "velocity": 118, "channel": 0}, {"type": "note_on", "time": 13, "note": 79, "velocity": 117, "channel": 0}, {"type": "note_off", "time": 64, "note": 79, "velocity": 117, "channel": 0}, {"type": "note_on", "time": 18, "note": 77, "velocity": 121, "channel": 0}, {"type": "note_off", "time": 74, "note": 77, "velocity": 121, "channel": 0}, {"type": "note_on", "time": 15, "note": 76, "velocity": 118, "channel": 0}, {"type": "note_off", "time": 81, "note": 76, "velocity": 118, "channel": 0}, {"type": "note_on", "time": 89, "note": 75, "velocity": 118, "channel": 0}, {"type": "note_off", "time": 111, "note": 75, "velocity": 118, "channel": 0}, {"type": "note_on", "time": 4, "note": 74, "velocity": 112, "channel": 0}, {"type": "note_off", "time": 71, "note": 74, "velocity": 112, "channel": 0}, {"type": "note_on", "time": 2, "note": 71, "velocity": 105, "channel": 0}, {"type": "note_off", "time": 87, "note": 71, "velocity": 105, "channel": 0}, {"type": "note_on", "time": 19, "note": 70, "velocity": 116, "channel": 0}, {"type": "note_off", "time": 85, "note": 70, "velocity": 116, "channel": 0}, {"type": "note_on", "time": 5, "note": 68, "velocity": 105, "channel": 0}, {"type": "note_off", "time": 103, "note": 68, "velocity": 105, "channel": 0}, {"type": "note_on", "time": 21, "note": 66, "velocity": 103, "channel": 0}, {"type": "note_off", "time": 54, "note": 66, "velocity": 103, "channel": 0}, {"type": "note_on", "time": 12, "note": 67, "velocity": 97, "channel": 0}, {"type": "note_off", "time": 72, "note": 67, "velocity": 97, "channel": 0}, {"type": "note_on", "time": 25, "note": 70, "velocity": 92, "channel": 0}, {"type": "note_off", "time": 264, "note": 70, "velocity": 92, "channel": 0}, {"type": "note_on", "time": 550, "note": 85, "velocity": 123, "channel": 0}, {"type": "note_off", "time": 351, "note": 85, "velocity": 123, "channel": 0}, {"type": "note_on", "time": 16, "note": 83, "velocity": 121, "channel": 0}, {"type": "note_off", "time": 41, "note": 83, "velocity": 121, "channel": 0}, {"type": "note_on", "time": 4, "note": 84, "velocity": 122, "channel": 0}, {"type": "note_off", "time": 115, "note": 84, "velocity": 122, "channel": 0}, {"type": "note_on", "time": 14, "note": 82, "velocity": 118, "channel": 0}, {"type": "note_off", "time": 73, "note": 82, "velocity": 118, "channel": 0}, {"type": "note_on", "time": 4, "note": 80, "velocity": 118, "channel": 0}, {"type": "note_off", "time": 100, "note": 80, "velocity": 118, "channel": 0}, {"type": "note_on", "time": 22, "note": 79, "velocity": 108, "channel": 0}, {"type": "note_off", "time": 57, "note": 79, "velocity": 108, "channel": 0}, {"type": "note_on", "time": 9, "note": 78, "velocity": 113, "channel": 0}, {"type": "note_off", "time": 83, "note": 78, "velocity": 113, "channel": 0}, {"type": "note_on", "time": 31, "note": 77, "velocity": 73, "channel": 0}, {"type": "note_off", "time": 64, "note": 77, "velocity": 73, "channel": 0}, {"type": "note_on", "time": 15, "note": 78, "velocity": 115, "channel": 0}, {"type": "note_off", "time": 79, "note": 78, "velocity": 115, "channel": 0}, {"type": "note_on", "time": 46, "note": 78, "velocity": 114, "channel": 0}, {"type": "note_off", "time": 66, "note": 78, "velocity": 114, "channel": 0}, {"type": "note_on", "time": 9, "note": 77, "velocity": 116, "channel": 0}, {"type": "note_off", "time": 102, "note": 77, "velocity": 116, "channel": 0}, {"type": "note_on", "time": 6, "note": 75, "velocity": 114, "channel": 0}, {"type": "note_off", "time": 71, "note": 75, "velocity": 114, "channel": 0}, {"type": "note_on", "time": 4, "note": 74, "velocity": 115, "channel": 0}, {"type": "note_off", "time": 117, "note": 74, "velocity": 115, "channel": 0}, {"type": "note_on", "time": 19, "note": 72, "velocity": 93, "channel": 0}, {"type": "note_off", "time": 47, "note": 72, "velocity": 93, "channel": 0}, {"type": "note_on", "time": 11, "note": 73, "velocity": 109, "channel": 0}, {"type": "note_off", "time": 140, "note": 73, "velocity": 109, "channel": 0}, {"type": "note_on", "time": 4, "note": 68, "velocity": 89, "channel": 0}, {"type": "note_off", "time": 49, "note": 68, "velocity": 89, "channel": 0}, {"type": "note_on", "time": 246, "note": 76, "velocity": 115, "channel": 0}, {"type": "note_off", "time": 58, "note": 76, "velocity": 115, "channel": 0}, {"type": "note_on", "time": 3, "note": 77, "velocity": 114, "channel": 0}, {"type": "note_off", "time": 53, "note": 77, "velocity": 114, "channel": 0}, {"type": "note_on", "time": 20, "note": 77, "velocity": 119, "channel": 0}, {"type": "note_off", "time": 287, "note": 77, "velocity": 119, "channel": 0}, {"type": "note_on", "time": 15, "note": 75, "velocity": 116, "channel": 0}, {"type": "note_off", "time": 41, "note": 75, "velocity": 116, "channel": 0}, {"type": "note_on", "time": 6, "note": 76, "velocity": 117, "channel": 0}, {"type": "note_off", "time": 87, "note": 76, "velocity": 117, "channel": 0}, {"type": "note_on", "time": 47, "note": 67, "velocity": 90, "channel": 0}, {"type": "note_off", "time": 35, "note": 67, "velocity": 90, "channel": 0}, {"type": "note_on", "time": 7, "note": 70, "velocity": 109, "channel": 0}, {"type": "note_off", "time": 106, "note": 70, "velocity": 109, "channel": 0}, {"type": "note_on", "time": 10, "note": 73, "velocity": 114, "channel": 0}, {"type": "note_off", "time": 79, "note": 73, "velocity": 114, "channel": 0}, {"type": "note_on", "time": 6, "note": 72, "velocity": 113, "channel": 0}, {"type": "note_off", "time": 68, "note": 72, "velocity": 113, "channel": 0}, {"type": "note_on", "time": 19, "note": 70, "velocity": 115, "channel": 0}, {"type": "note_off", "time": 83, "note": 70, "velocity": 115, "channel": 0}, {"type": "note_on", "time": 20, "note": 68, "velocity": 111, "channel": 0}, {"type": "note_off", "time": 55, "note": 68, "velocity": 111, "channel": 0}, {"type": "note_on", "time": 57, "note": 60, "velocity": 95, "channel": 0}, {"type": "note_off", "time": 76, "note": 60, "velocity": 95, "channel": 0}, {"type": "note_on", "time": 13, "note": 65, "velocity": 111, "channel": 0}, {"type": "note_off", "time": 70, "note": 65, "velocity": 111, "channel": 0}, {"type": "note_on", "time": 19, "note": 68, "velocity": 112, "channel": 0}, {"type": "note_off", "time": 74, "note": 68, "velocity": 112, "channel": 0}, {"type": "note_on", "time": 12, "note": 67, "velocity": 102, "channel": 0}, {"type": "note_off", "time": 73, "note": 67, "velocity": 102, "channel": 0}, {"type": "note_on", "time": 18, "note": 65, "velocity": 109, "channel": 0}, {"type": "note_off", "time": 100, "note": 65, "velocity": 109, "channel": 0}, {"type": "note_on", "time": 9, "note": 64, "velocity": 96, "channel": 0}, {"type": "note_off", "time": 68, "note": 64, "velocity": 96, "channel": 0}, {"type": "note_on", "time": 7, "note": 62, "velocity": 82, "channel": 0}, {"type": "note_off", "time": 68, "note": 62, "velocity": 82, "channel": 0}, {"type": "note_on", "time": 32, "note": 65, "velocity": 110, "channel": 0}, {"type": "note_off", "time": 104, "note": 65, "velocity": 110, "channel": 0}, {"type": "note_on", "time": 31, "note": 63, "velocity": 90, "channel": 0}, {"type": "note_off", "time": 49, "note": 63, "velocity": 90, "channel": 0}, {"type": "note_on", "time": 9, "note": 64, "velocity": 88, "channel": 0}, {"type": "note_off", "time": 93, "note": 64, "velocity": 88, "channel": 0}, {"type": "note_on", "time": 12, "note": 65, "velocity": 104, "channel": 0}, {"type": "note_off", "time": 103, "note": 65, "velocity": 104, "channel": 0}, {"type": "note_on", "time": 15, "note": 67, "velocity": 96, "channel": 0}, {"type": "note_off", "time": 89, "note": 67, "velocity": 96, "channel": 0}, {"type": "note_on", "time": 14, "note": 68, "velocity": 90, "channel": 0}, {"type": "note_off", "time": 45, "note": 68, "velocity": 90, "channel": 0}, {"type": "note_on", "time": 33, "note": 70, "velocity": 113, "channel": 0}, {"type": "note_off", "time": 91, "note": 70, "velocity": 113, "channel": 0}, {"type": "note_on", "time": 16, "note": 67, "velocity": 104, "channel": 0}, {"type": "note_off", "time": 61, "note": 67, "velocity": 104, "channel": 0}, {"type": "note_on", "time": 7, "note": 68, "velocity": 103, "channel": 0}, {"type": "note_off", "time": 89, "note": 68, "velocity": 103, "channel": 0}, {"type": "note_on", "time": 9, "note": 70, "velocity": 114, "channel": 0}, {"type": "note_off", "time": 87, "note": 70, "velocity": 114, "channel": 0}, {"type": "note_on", "time": 13, "note": 72, "velocity": 109, "channel": 0}, {"type": "note_off", "time": 71, "note": 72, "velocity": 109, "channel": 0}, {"type": "note_on", "time": 14, "note": 73, "velocity": 104, "channel": 0}, {"type": "note_off", "time": 63, "note": 73, "velocity": 104, "channel": 0}, {"type": "note_on", "time": 11, "note": 74, "velocity": 116, "channel": 0}, {"type": "note_off", "time": 87, "note": 74, "velocity": 116, "channel": 0}, {"type": "note_on", "time": 8, "note": 75, "velocity": 117, "channel": 0}, {"type": "note_off", "time": 88, "note": 75, "velocity": 117, "channel": 0}, {"type": "note_on", "time": 3, "note": 76, "velocity": 118, "channel": 0}, {"type": "note_off", "time": 61, "note": 76, "velocity": 118, "channel": 0}, {"type": "note_on", "time": 15, "note": 77, "velocity": 118, "channel": 0}, {"type": "note_off", "time": 79, "note": 77, "velocity": 118, "channel": 0}, {"type": "note_on", "time": 13, "note": 78, "velocity": 119, "channel": 0}, {"type": "note_off", "time": 121, "note": 78, "velocity": 119, "channel": 0}, {"type": "note_on", "time": 36, "note": 77, "velocity": 122, "channel": 0}, {"type": "note_off", "time": 140, "note": 77, "velocity": 122, "channel": 0}, {"type": "note_on", "time": 5, "note": 75, "velocity": 111, "channel": 0}, {"type": "note_on", "time": 45, "note": 76, "velocity": 115, "channel": 0}, {"type": "note_off", "time": 0, "note": 75, "velocity": 111, "channel": 0}, {"type": "note_off", "time": 49, "note": 76, "velocity": 115, "channel": 0}, {"type": "note_on", "time": 7, "note": 77, "velocity": 113, "channel": 0}, {"type": "note_off", "time": 111, "note": 77, "velocity": 113, "channel": 0}, {"type": "note_on", "time": 13, "note": 73, "velocity": 112, "channel": 0}, {"type": "note_off", "time": 53, "note": 73, "velocity": 112, "channel": 0}, {"type": "note_on", "time": 1, "note": 74, "velocity": 117, "channel": 0}, {"type": "note_off", "time": 85, "note": 74, "velocity": 117, "channel": 0}, {"type": "note_on", "time": 45, "note": 71, "velocity": 97, "channel": 0}, {"type": "note_off", "time": 49, "note": 71, "velocity": 97, "channel": 0}, {"type": "note_on", "time": 10, "note": 72, "velocity": 115, "channel": 0}, {"type": "note_off", "time": 117, "note": 72, "velocity": 115, "channel": 0}, {"type": "note_on", "time": 5, "note": 70, "velocity": 102, "channel": 0}, {"type": "note_off", "time": 95, "note": 70, "velocity": 102, "channel": 0}, {"type": "note_on", "time": 13, "note": 67, "velocity": 84, "channel": 0}, {"type": "note_off", "time": 57, "note": 67, "velocity": 84, "channel": 0}, {"type": "note_on", "time": 19, "note": 68, "velocity": 83, "channel": 0}, {"type": "note_off", "time": 71, "note": 68, "velocity": 83, "channel": 0}, {"type": "note_on", "time": 26, "note": 70, "velocity": 106, "channel": 0}, {"type": "note_off", "time": 106, "note": 70, "velocity": 106, "channel": 0}, {"type": "note_on", "time": 7, "note": 68, "velocity": 102, "channel": 0}, {"type": "note_off", "time": 87, "note": 68, "velocity": 102, "channel": 0}, {"type": "note_on", "time": 9, "note": 67, "velocity": 101, "channel": 0}, {"type": "note_off", "time": 72, "note": 67, "velocity": 101, "channel": 0}, {"type": "note_on", "time": 11, "note": 65, "velocity": 106, "channel": 0}, {"type": "note_off", "time": 89, "note": 65, "velocity": 106, "channel": 0}, {"type": "note_on", "time": 19, "note": 64, "velocity": 91, "channel": 0}, {"type": "note_off", "time": 72, "note": 64, "velocity": 91, "channel": 0}, {"type": "note_on", "time": 43, "note": 67, "velocity": 89, "channel": 0}, {"type": "note_off", "time": 33, "note": 67, "velocity": 89, "channel": 0}, {"type": "note_on", "time": 12, "note": 70, "velocity": 99, "channel": 0}, {"type": "note_off", "time": 97, "note": 70, "velocity": 99, "channel": 0}, {"type": "note_on", "time": 23, "note": 75, "velocity": 108, "channel": 0}, {"type": "note_off", "time": 38, "note": 75, "velocity": 108, "channel": 0}, {"type": "note_on", "time": 1, "note": 73, "velocity": 99, "channel": 0}, {"type": "note_off", "time": 199, "note": 73, "velocity": 99, "channel": 0}, {"type": "note_on", "time": 3, "note": 72, "velocity": 98, "channel": 0}, {"type": "note_off", "time": 142, "note": 72, "velocity": 98, "channel": 0}, {"type": "note_on", "time": 68, "note": 70, "velocity": 109, "channel": 0}, {"type": "note_off", "time": 101, "note": 70, "velocity": 109, "channel": 0}, {"type": "note_on", "time": 12, "note": 68, "velocity": 95, "channel": 0}, {"type": "note_off", "time": 124, "note": 68, "velocity": 95, "channel": 0}, {"type": "note_on", "time": 1307, "note": 84, "velocity": 119, "channel": 0}, {"type": "note_off", "time": 95, "note": 84, "velocity": 119, "channel": 0}, {"type": "note_on", "time": 103, "note": 80, "velocity": 110, "channel": 0}, {"type": "note_off", "time": 57, "note": 80, "velocity": 110, "channel": 0}, {"type": "note_on", "time": 37, "note": 84, "velocity": 119, "channel": 0}, {"type": "note_off", "time": 79, "note": 84, "velocity": 119, "channel": 0}, {"type": "note_on", "time": 18, "note": 82, "velocity": 118, "channel": 0}, {"type": "note_off", "time": 100, "note": 82, "velocity": 118, "channel": 0}, {"type": "note_on", "time": 8, "note": 80, "velocity": 117, "channel": 0}, {"type": "note_off", "time": 84, "note": 80, "velocity": 117, "channel": 0}, {"type": "note_on", "time": 4, "note": 79, "velocity": 117, "channel": 0}, {"type": "note_off", "time": 97, "note": 79, "velocity": 117, "channel": 0}, {"type": "note_on", "time": 82, "note": 80, "velocity": 107, "channel": 0}, {"type": "note_off", "time": 140, "note": 80, "velocity": 107, "channel": 0}, {"type": "note_on", "time": 13, "note": 75, "velocity": 97, "channel": 0}, {"type": "note_off", "time": 54, "note": 75, "velocity": 97, "channel": 0}, {"type": "note_on", "time": 1, "note": 78, "velocity": 119, "channel": 0}, {"type": "note_off", "time": 86, "note": 78, "velocity": 119, "channel": 0}, {"type": "note_on", "time": 9, "note": 80, "velocity": 118, "channel": 0}, {"type": "note_off", "time": 82, "note": 80, "velocity": 118, "channel": 0}, {"type": "note_on", "time": 5, "note": 79, "velocity": 113, "channel": 0}, {"type": "note_off", "time": 78, "note": 79, "velocity": 113, "channel": 0}, {"type": "note_on", "time": 7, "note": 77, "velocity": 121, "channel": 0}, {"type": "note_off", "time": 87, "note": 77, "velocity": 121, "channel": 0}, {"type": "note_on", "time": 3, "note": 76, "velocity": 115, "channel": 0}, {"type": "note_off", "time": 93, "note": 76, "velocity": 115, "channel": 0}, {"type": "note_on", "time": 39, "note": 76, "velocity": 96, "channel": 0}, {"type": "note_off", "time": 49, "note": 76, "velocity": 96, "channel": 0}, {"type": "note_on", "time": 11, "note": 77, "velocity": 121, "channel": 0}, {"type": "note_off", "time": 79, "note": 77, "velocity": 121, "channel": 0}, {"type": "note_on", "time": 47, "note": 72, "velocity": 97, "channel": 0}, {"type": "note_off", "time": 56, "note": 72, "velocity": 97, "channel": 0}, {"type": "note_on", "time": 18, "note": 68, "velocity": 85, "channel": 0}, {"type": "note_off", "time": 67, "note": 68, "velocity": 85, "channel": 0}, {"type": "note_on", "time": 111, "note": 73, "velocity": 118, "channel": 0}, {"type": "note_off", "time": 81, "note": 73, "velocity": 118, "channel": 0}, {"type": "note_on", "time": 24, "note": 72, "velocity": 115, "channel": 0}, {"type": "note_off", "time": 84, "note": 72, "velocity": 115, "channel": 0}, {"type": "note_on", "time": 6, "note": 70, "velocity": 108, "channel": 0}, {"type": "note_off", "time": 76, "note": 70, "velocity": 108, "channel": 0}, {"type": "note_on", "time": 15, "note": 68, "velocity": 113, "channel": 0}, {"type": "note_off", "time": 77, "note": 68, "velocity": 113, "channel": 0}, {"type": "note_on", "time": 14, "note": 67, "velocity": 110, "channel": 0}, {"type": "note_off", "time": 59, "note": 67, "velocity": 110, "channel": 0}, {"type": "note_on", "time": 26, "note": 65, "velocity": 113, "channel": 0}, {"type": "note_off", "time": 85, "note": 65, "velocity": 113, "channel": 0}, {"type": "note_on", "time": 9, "note": 64, "velocity": 113, "channel": 0}, {"type": "note_off", "time": 44, "note": 64, "velocity": 113, "channel": 0}, {"type": "note_on", "time": 88, "note": 55, "velocity": 96, "channel": 0}, {"type": "note_off", "time": 58, "note": 55, "velocity": 96, "channel": 0}, {"type": "note_on", "time": 17, "note": 58, "velocity": 102, "channel": 0}, {"type": "note_off", "time": 81, "note": 58, "velocity": 102, "channel": 0}, {"type": "note_on", "time": 26, "note": 60, "velocity": 103, "channel": 0}, {"type": "note_off", "time": 74, "note": 60, "velocity": 103, "channel": 0}, {"type": "note_on", "time": 15, "note": 59, "velocity": 90, "channel": 0}, {"type": "note_off", "time": 60, "note": 59, "velocity": 90, "channel": 0}, {"type": "note_on", "time": 15, "note": 58, "velocity": 107, "channel": 0}, {"type": "note_off", "time": 81, "note": 58, "velocity": 107, "channel": 0}, {"type": "note_on", "time": 21, "note": 56, "velocity": 106, "channel": 0}, {"type": "note_off", "time": 61, "note": 56, "velocity": 106, "channel": 0}, {"type": "note_on", "time": 33, "note": 60, "velocity": 91, "channel": 0}, {"type": "note_off", "time": 58, "note": 60, "velocity": 91, "channel": 0}, {"type": "note_on", "time": 22, "note": 65, "velocity": 114, "channel": 0}, {"type": "note_off", "time": 100, "note": 65, "velocity": 114, "channel": 0}, {"type": "note_on", "time": 30, "note": 68, "velocity": 116, "channel": 0}, {"type": "note_off", "time": 76, "note": 68, "velocity": 116, "channel": 0}, {"type": "note_on", "time": 7, "note": 67, "velocity": 105, "channel": 0}, {"type": "note_off", "time": 62, "note": 67, "velocity": 105, "channel": 0}, {"type": "note_on", "time": 28, "note": 65, "velocity": 114, "channel": 0}, {"type": "note_off", "time": 83, "note": 65, "velocity": 114, "channel": 0}, {"type": "note_on", "time": 7, "note": 64, "velocity": 96, "channel": 0}, {"type": "note_off", "time": 77, "note": 64, "velocity": 96, "channel": 0}, {"type": "note_on", "time": 17, "note": 63, "velocity": 88, "channel": 0}, {"type": "note_off", "time": 76, "note": 63, "velocity": 88, "channel": 0}, {"type": "note_on", "time": 22, "note": 70, "velocity": 116, "channel": 0}, {"type": "note_off", "time": 81, "note": 70, "velocity": 116, "channel": 0}, {"type": "note_on", "time": 40, "note": 67, "velocity": 105, "channel": 0}, {"type": "note_off", "time": 49, "note": 67, "velocity": 105, "channel": 0}, {"type": "note_on", "time": 17, "note": 68, "velocity": 104, "channel": 0}, {"type": "note_off", "time": 87, "note": 68, "velocity": 104, "channel": 0}, {"type": "note_on", "time": 34, "note": 70, "velocity": 116, "channel": 0}, {"type": "note_off", "time": 66, "note": 70, "velocity": 116, "channel": 0}, {"type": "note_on", "time": 17, "note": 72, "velocity": 94, "channel": 0}, {"type": "note_off", "time": 85, "note": 72, "velocity": 94, "channel": 0}, {"type": "note_on", "time": 12, "note": 73, "velocity": 95, "channel": 0}, {"type": "note_off", "time": 57, "note": 73, "velocity": 95, "channel": 0}, {"type": "note_on", "time": 1, "note": 74, "velocity": 112, "channel": 0}, {"type": "note_off", "time": 110, "note": 74, "velocity": 112, "channel": 0}, {"type": "note_on", "time": 32, "note": 75, "velocity": 118, "channel": 0}, {"type": "note_off", "time": 96, "note": 75, "velocity": 118, "channel": 0}, {"type": "note_on", "time": 7, "note": 76, "velocity": 116, "channel": 0}, {"type": "note_off", "time": 74, "note": 76, "velocity": 116, "channel": 0}, {"type": "note_on", "time": 15, "note": 77, "velocity": 120, "channel": 0}, {"type": "note_off", "time": 64, "note": 77, "velocity": 120, "channel": 0}, {"type": "note_on", "time": 19, "note": 78, "velocity": 114, "channel": 0}, {"type": "note_off", "time": 70, "note": 78, "velocity": 114, "channel": 0}, {"type": "note_on", "time": 30, "note": 76, "velocity": 97, "channel": 0}, {"type": "note_off", "time": 68, "note": 76, "velocity": 97, "channel": 0}, {"type": "note_on", "time": 10, "note": 77, "velocity": 120, "channel": 0}, {"type": "note_off", "time": 105, "note": 77, "velocity": 120, "channel": 0}, {"type": "note_on", "time": 907, "note": 74, "velocity": 114, "channel": 0}, {"type": "note_off", "time": 82, "note": 74, "velocity": 114, "channel": 0}, {"type": "note_on", "time": 58, "note": 87, "velocity": 83, "channel": 0}, {"type": "note_off", "time": 57, "note": 87, "velocity": 83, "channel": 0}, {"type": "note_on", "time": 41, "note": 88, "velocity": 113, "channel": 0}, {"type": "note_off", "time": 87, "note": 88, "velocity": 113, "channel": 0}, {"type": "note_on", "time": 7, "note": 89, "velocity": 118, "channel": 0}, {"type": "note_off", "time": 406, "note": 89, "velocity": 118, "channel": 0}, {"type": "note_on", "time": 20, "note": 82, "velocity": 83, "channel": 0}, {"type": "note_off", "time": 68, "note": 82, "velocity": 83, "channel": 0}, {"type": "note_on", "time": 695, "note": 73, "velocity": 102, "channel": 0}, {"type": "note_off", "time": 41, "note": 73, "velocity": 102, "channel": 0}, {"type": "note_on", "time": 20, "note": 74, "velocity": 110, "channel": 0}, {"type": "note_off", "time": 55, "note": 74, "velocity": 110, "channel": 0}, {"type": "note_on", "time": 23, "note": 80, "velocity": 101, "channel": 0}, {"type": "note_off", "time": 29, "note": 80, "velocity": 101, "channel": 0}, {"type": "note_on", "time": 36, "note": 85, "velocity": 107, "channel": 0}, {"type": "note_off", "time": 108, "note": 85, "velocity": 107, "channel": 0}, {"type": "note_on", "time": 12, "note": 87, "velocity": 118, "channel": 0}, {"type": "note_off", "time": 74, "note": 87, "velocity": 118, "channel": 0}, {"type": "note_on", "time": 16, "note": 85, "velocity": 121, "channel": 0}, {"type": "note_off", "time": 51, "note": 85, "velocity": 121, "channel": 0}, {"type": "note_on", "time": 11, "note": 84, "velocity": 121, "channel": 0}, {"type": "note_off", "time": 58, "note": 84, "velocity": 121, "channel": 0}, {"type": "note_on", "time": 14, "note": 85, "velocity": 120, "channel": 0}, {"type": "note_off", "time": 52, "note": 85, "velocity": 120, "channel": 0}, {"type": "note_on", "time": 1, "note": 84, "velocity": 120, "channel": 0}, {"type": "note_off", "time": 91, "note": 84, "velocity": 120, "channel": 0}, {"type": "note_on", "time": 46, "note": 78, "velocity": 108, "channel": 0}, {"type": "note_off", "time": 60, "note": 78, "velocity": 108, "channel": 0}, {"type": "note_on", "time": 532, "note": 85, "velocity": 114, "channel": 0}, {"type": "note_off", "time": 199, "note": 85, "velocity": 114, "channel": 0}, {"type": "note_on", "time": 28, "note": 80, "velocity": 99, "channel": 0}, {"type": "note_off", "time": 131, "note": 80, "velocity": 99, "channel": 0}, {"type": "note_on", "time": 7, "note": 83, "velocity": 124, "channel": 0}, {"type": "note_off", "time": 133, "note": 83, "velocity": 124, "channel": 0}, {"type": "note_on", "time": 16, "note": 80, "velocity": 114, "channel": 0}, {"type": "note_off", "time": 48, "note": 80, "velocity": 114, "channel": 0}, {"type": "note_on", "time": 10, "note": 79, "velocity": 115, "channel": 0}, {"type": "note_off", "time": 123, "note": 79, "velocity": 115, "channel": 0}, {"type": "note_on", "time": 22, "note": 76, "velocity": 120, "channel": 0}, {"type": "note_off", "time": 171, "note": 76, "velocity": 120, "channel": 0}, {"type": "note_on", "time": 16, "note": 71, "velocity": 94, "channel": 0}, {"type": "note_off", "time": 56, "note": 71, "velocity": 94, "channel": 0}, {"type": "note_on", "time": 19, "note": 70, "velocity": 114, "channel": 0}, {"type": "note_off", "time": 79, "note": 70, "velocity": 114, "channel": 0}, {"type": "note_on", "time": 23, "note": 70, "velocity": 110, "channel": 0}, {"type": "note_off", "time": 61, "note": 70, "velocity": 110, "channel": 0}, {"type": "note_on", "time": 13, "note": 72, "velocity": 112, "channel": 0}, {"type": "note_off", "time": 84, "note": 72, "velocity": 112, "channel": 0}, {"type": "note_on", "time": 14, "note": 70, "velocity": 116, "channel": 0}, {"type": "note_off", "time": 76, "note": 70, "velocity": 116, "channel": 0}, {"type": "note_on", "time": 27, "note": 68, "velocity": 94, "channel": 0}, {"type": "note_off", "time": 71, "note": 68, "velocity": 94, "channel": 0}, {"type": "note_on", "time": 10, "note": 69, "velocity": 91, "channel": 0}, {"type": "note_off", "time": 57, "note": 69, "velocity": 91, "channel": 0}, {"type": "note_on", "time": 30, "note": 70, "velocity": 116, "channel": 0}, {"type": "note_off", "time": 87, "note": 70, "velocity": 116, "channel": 0}, {"type": "note_on", "time": 8, "note": 67, "velocity": 113, "channel": 0}, {"type": "note_off", "time": 68, "note": 67, "velocity": 113, "channel": 0}, {"type": "note_on", "time": 19, "note": 68, "velocity": 111, "channel": 0}, {"type": "note_off", "time": 66, "note": 68, "velocity": 111, "channel": 0}, {"type": "note_on", "time": 11, "note": 65, "velocity": 108, "channel": 0}, {"type": "note_off", "time": 265, "note": 65, "velocity": 108, "channel": 0}, {"type": "note_on", "time": 8, "note": 67, "velocity": 113, "channel": 0}, {"type": "note_off", "time": 127, "note": 67, "velocity": 113, "channel": 0}, {"type": "note_on", "time": 25, "note": 65, "velocity": 104, "channel": 0}, {"type": "note_off", "time": 263, "note": 65, "velocity": 104, "channel": 0}, {"type": "note_on", "time": 751, "note": 84, "velocity": 122, "channel": 0}, {"type": "note_off", "time": 58, "note": 84, "velocity": 122, "channel": 0}, {"type": "note_on", "time": 11, "note": 86, "velocity": 114, "channel": 0}, {"type": "note_off", "time": 37, "note": 86, "velocity": 114, "channel": 0}, {"type": "note_on", "time": 113, "note": 90, "velocity": 127, "channel": 0}, {"type": "note_off", "time": 88, "note": 90, "velocity": 127, "channel": 0}, {"type": "note_on", "time": 6, "note": 89, "velocity": 122, "channel": 0}, {"type": "note_off", "time": 174, "note": 89, "velocity": 122, "channel": 0}, {"type": "note_on", "time": 109, "note": 88, "velocity": 125, "channel": 0}, {"type": "note_off", "time": 102, "note": 88, "velocity": 125, "channel": 0}, {"type": "note_on", "time": 35, "note": 84, "velocity": 122, "channel": 0}, {"type": "note_off", "time": 57, "note": 84, "velocity": 122, "channel": 0}, {"type": "note_on", "time": 95, "note": 87, "velocity": 121, "channel": 0}, {"type": "note_off", "time": 125, "note": 87, "velocity": 121, "channel": 0}, {"type": "note_on", "time": 58, "note": 86, "velocity": 120, "channel": 0}, {"type": "note_off", "time": 117, "note": 86, "velocity": 120, "channel": 0}, {"type": "note_on", "time": 80, "note": 77, "velocity": 83, "channel": 0}, {"type": "note_off", "time": 43, "note": 77, "velocity": 83, "channel": 0}, {"type": "note_on", "time": 52, "note": 81, "velocity": 116, "channel": 0}, {"type": "note_off", "time": 64, "note": 81, "velocity": 116, "channel": 0}, {"type": "note_on", "time": 27, "note": 86, "velocity": 119, "channel": 0}, {"type": "note_off", "time": 57, "note": 86, "velocity": 119, "channel": 0}, {"type": "note_on", "time": 3, "note": 84, "velocity": 121, "channel": 0}, {"type": "note_off", "time": 58, "note": 84, "velocity": 121, "channel": 0}, {"type": "note_on", "time": 15, "note": 82, "velocity": 107, "channel": 0}, {"type": "note_off", "time": 51, "note": 82, "velocity": 107, "channel": 0}, {"type": "note_on", "time": 24, "note": 80, "velocity": 118, "channel": 0}, {"type": "note_off", "time": 66, "note": 80, "velocity": 118, "channel": 0}, {"type": "note_on", "time": 9, "note": 79, "velocity": 119, "channel": 0}, {"type": "note_off", "time": 73, "note": 79, "velocity": 119, "channel": 0}, {"type": "note_on", "time": 13, "note": 77, "velocity": 117, "channel": 0}, {"type": "note_off", "time": 86, "note": 77, "velocity": 117, "channel": 0}, {"type": "note_on", "time": 15, "note": 77, "velocity": 113, "channel": 0}, {"type": "note_off", "time": 67, "note": 77, "velocity": 113, "channel": 0}, {"type": "note_on", "time": 5, "note": 75, "velocity": 95, "channel": 0}, {"type": "note_off", "time": 55, "note": 75, "velocity": 95, "channel": 0}, {"type": "note_on", "time": 59, "note": 77, "velocity": 118, "channel": 0}, {"type": "note_off", "time": 91, "note": 77, "velocity": 118, "channel": 0}, {"type": "note_on", "time": 28, "note": 74, "velocity": 96, "channel": 0}, {"type": "note_off", "time": 36, "note": 74, "velocity": 96, "channel": 0}, {"type": "note_on", "time": 19, "note": 76, "velocity": 105, "channel": 0}, {"type": "note_off", "time": 85, "note": 76, "velocity": 105, "channel": 0}, {"type": "note_on", "time": 38, "note": 83, "velocity": 119, "channel": 0}, {"type": "note_off", "time": 167, "note": 83, "velocity": 119, "channel": 0}, {"type": "note_on", "time": 508, "note": 83, "velocity": 113, "channel": 0}, {"type": "note_off", "time": 136, "note": 83, "velocity": 113, "channel": 0}, {"type": "note_on", "time": 49, "note": 87, "velocity": 120, "channel": 0}, {"type": "note_off", "time": 334, "note": 87, "velocity": 120, "channel": 0}, {"type": "note_on", "time": 4, "note": 86, "velocity": 111, "channel": 0}, {"type": "note_off", "time": 250, "note": 86, "velocity": 111, "channel": 0}, {"type": "note_on", "time": 4, "note": 82, "velocity": 119, "channel": 0}, {"type": "note_off", "time": 338, "note": 82, "velocity": 119, "channel": 0}, {"type": "note_on", "time": 11, "note": 85, "velocity": 119, "channel": 0}, {"type": "note_off", "time": 385, "note": 85, "velocity": 119, "channel": 0}, {"type": "note_on", "time": 13, "note": 78, "velocity": 116, "channel": 0}, {"type": "note_off", "time": 353, "note": 78, "velocity": 116, "channel": 0}, {"type": "note_on", "time": 15, "note": 79, "velocity": 108, "channel": 0}, {"type": "note_off", "time": 62, "note": 79, "velocity": 108, "channel": 0}, {"type": "note_on", "time": 8, "note": 77, "velocity": 117, "channel": 0}, {"type": "note_off", "time": 63, "note": 77, "velocity": 117, "channel": 0}, {"type": "note_on", "time": 25, "note": 72, "velocity": 91, "channel": 0}, {"type": "note_off", "time": 56, "note": 72, "velocity": 91, "channel": 0}, {"type": "note_on", "time": 22, "note": 75, "velocity": 117, "channel": 0}, {"type": "note_off", "time": 114, "note": 75, "velocity": 117, "channel": 0}, {"type": "note_on", "time": 21, "note": 73, "velocity": 101, "channel": 0}, {"type": "note_off", "time": 76, "note": 73, "velocity": 101, "channel": 0}, {"type": "note_on", "time": 12, "note": 72, "velocity": 106, "channel": 0}, {"type": "note_off", "time": 56, "note": 72, "velocity": 106, "channel": 0}, {"type": "note_on", "time": 11, "note": 70, "velocity": 110, "channel": 0}, {"type": "note_off", "time": 66, "note": 70, "velocity": 110, "channel": 0}, {"type": "note_on", "time": 14, "note": 68, "velocity": 107, "channel": 0}, {"type": "note_off", "time": 85, "note": 68, "velocity": 107, "channel": 0}, {"type": "note_on", "time": 79, "note": 70, "velocity": 109, "channel": 0}, {"type": "note_off", "time": 92, "note": 70, "velocity": 109, "channel": 0}, {"type": "note_on", "time": 29, "note": 68, "velocity": 110, "channel": 0}, {"type": "note_off", "time": 59, "note": 68, "velocity": 110, "channel": 0}, {"type": "note_on", "time": 16, "note": 67, "velocity": 99, "channel": 0}, {"type": "note_off", "time": 66, "note": 67, "velocity": 99, "channel": 0}, {"type": "note_on", "time": 35, "note": 65, "velocity": 114, "channel": 0}, {"type": "note_off", "time": 68, "note": 65, "velocity": 114, "channel": 0}, {"type": "note_on", "time": 8, "note": 64, "velocity": 110, "channel": 0}, {"type": "note_off", "time": 50, "note": 64, "velocity": 110, "channel": 0}, {"type": "note_on", "time": 153, "note": 57, "velocity": 106, "channel": 0}, {"type": "note_off", "time": 57, "note": 57, "velocity": 106, "channel": 0}, {"type": "note_on", "time": 7, "note": 58, "velocity": 106, "channel": 0}, {"type": "note_off", "time": 59, "note": 58, "velocity": 106, "channel": 0}, {"type": "note_on", "time": 6, "note": 60, "velocity": 105, "channel": 0}, {"type": "note_off", "time": 60, "note": 60, "velocity": 105, "channel": 0}, {"type": "note_on", "time": 18, "note": 60, "velocity": 108, "channel": 0}, {"type": "note_off", "time": 581, "note": 60, "velocity": 108, "channel": 0}, {"type": "note_on", "time": 109, "note": 65, "velocity": 116, "channel": 0}, {"type": "note_off", "time": 124, "note": 65, "velocity": 116, "channel": 0}, {"type": "note_on", "time": 12, "note": 67, "velocity": 110, "channel": 0}, {"type": "note_off", "time": 75, "note": 67, "velocity": 110, "channel": 0}, {"type": "note_on", "time": 8, "note": 68, "velocity": 99, "channel": 0}, {"type": "note_off", "time": 61, "note": 68, "velocity": 99, "channel": 0}, {"type": "note_on", "time": 33, "note": 70, "velocity": 114, "channel": 0}, {"type": "note_off", "time": 106, "note": 70, "velocity": 114, "channel": 0}, {"type": "note_on", "time": 9, "note": 67, "velocity": 109, "channel": 0}, {"type": "note_off", "time": 55, "note": 67, "velocity": 109, "channel": 0}, {"type": "note_on", "time": 9, "note": 68, "velocity": 107, "channel": 0}, {"type": "note_off", "time": 79, "note": 68, "velocity": 107, "channel": 0}, {"type": "note_on", "time": 15, "note": 70, "velocity": 113, "channel": 0}, {"type": "note_off", "time": 76, "note": 70, "velocity": 113, "channel": 0}, {"type": "note_on", "time": 20, "note": 72, "velocity": 110, "channel": 0}, {"type": "note_off", "time": 66, "note": 72, "velocity": 110, "channel": 0}, {"type": "note_on", "time": 24, "note": 73, "velocity": 100, "channel": 0}, {"type": "note_off", "time": 52, "note": 73, "velocity": 100, "channel": 0}, {"type": "note_on", "time": 17, "note": 74, "velocity": 115, "channel": 0}, {"type": "note_off", "time": 89, "note": 74, "velocity": 115, "channel": 0}, {"type": "note_on", "time": 17, "note": 75, "velocity": 123, "channel": 0}, {"type": "note_off", "time": 96, "note": 75, "velocity": 123, "channel": 0}, {"type": "note_on", "time": 1, "note": 78, "velocity": 111, "channel": 0}, {"type": "note_off", "time": 64, "note": 78, "velocity": 111, "channel": 0}, {"type": "note_on", "time": 6, "note": 77, "velocity": 121, "channel": 0}, {"type": "note_off", "time": 89, "note": 77, "velocity": 121, "channel": 0}, {"type": "note_on", "time": 26, "note": 78, "velocity": 119, "channel": 0}, {"type": "note_off", "time": 83, "note": 78, "velocity": 119, "channel": 0}, {"type": "note_on", "time": 6, "note": 76, "velocity": 97, "channel": 0}, {"type": "note_off", "time": 57, "note": 76, "velocity": 97, "channel": 0}, {"type": "note_on", "time": 11, "note": 77, "velocity": 117, "channel": 0}, {"type": "note_off", "time": 155, "note": 77, "velocity": 117, "channel": 0}, {"type": "note_on", "time": 1043, "note": 84, "velocity": 116, "channel": 0}, {"type": "note_off", "time": 128, "note": 84, "velocity": 116, "channel": 0}, {"type": "note_on", "time": 72, "note": 84, "velocity": 120, "channel": 0}, {"type": "note_off", "time": 316, "note": 84, "velocity": 120, "channel": 0}, {"type": "note_on", "time": 78, "note": 84, "velocity": 117, "channel": 0}, {"type": "note_off", "time": 91, "note": 84, "velocity": 117, "channel": 0}, {"type": "note_on", "time": 71, "note": 84, "velocity": 119, "channel": 0}, {"type": "note_off", "time": 243, "note": 84, "velocity": 119, "channel": 0}, {"type": "note_on", "time": 68, "note": 84, "velocity": 115, "channel": 0}, {"type": "note_off", "time": 135, "note": 84, "velocity": 115, "channel": 0}, {"type": "note_on", "time": 66, "note": 84, "velocity": 117, "channel": 0}, {"type": "note_off", "time": 179, "note": 84, "velocity": 117, "channel": 0}, {"type": "note_on", "time": 851, "note": 83, "velocity": 124, "channel": 0}, {"type": "note_off", "time": 79, "note": 83, "velocity": 124, "channel": 0}, {"type": "note_on", "time": 38, "note": 84, "velocity": 120, "channel": 0}, {"type": "note_off", "time": 67, "note": 84, "velocity": 120, "channel": 0}, {"type": "note_on", "time": 51, "note": 83, "velocity": 118, "channel": 0}, {"type": "note_off", "time": 62, "note": 83, "velocity": 118, "channel": 0}, {"type": "note_on", "time": 10, "note": 83, "velocity": 111, "channel": 0}, {"type": "note_off", "time": 73, "note": 83, "velocity": 111, "channel": 0}, {"type": "note_on", "time": 12, "note": 84, "velocity": 117, "channel": 0}, {"type": "note_off", "time": 76, "note": 84, "velocity": 117, "channel": 0}, {"type": "note_on", "time": 36, "note": 84, "velocity": 119, "channel": 0}, {"type": "note_off", "time": 60, "note": 84, "velocity": 119, "channel": 0}, {"type": "note_on", "time": 9, "note": 85, "velocity": 116, "channel": 0}, {"type": "note_off", "time": 89, "note": 85, "velocity": 116, "channel": 0}, {"type": "note_on", "time": 11, "note": 84, "velocity": 118, "channel": 0}, {"type": "note_off", "time": 96, "note": 84, "velocity": 118, "channel": 0}, {"type": "note_on", "time": 22, "note": 83, "velocity": 119, "channel": 0}, {"type": "note_off", "time": 48, "note": 83, "velocity": 119, "channel": 0}, {"type": "note_on", "time": 4, "note": 84, "velocity": 117, "channel": 0}, {"type": "note_off", "time": 54, "note": 84, "velocity": 117, "channel": 0}, {"type": "note_on", "time": 33, "note": 85, "velocity": 102, "channel": 0}, {"type": "note_off", "time": 43, "note": 85, "velocity": 102, "channel": 0}, {"type": "note_on", "time": 16, "note": 84, "velocity": 118, "channel": 0}, {"type": "note_off", "time": 68, "note": 84, "velocity": 118, "channel": 0}, {"type": "note_on", "time": 18, "note": 84, "velocity": 120, "channel": 0}, {"type": "note_off", "time": 71, "note": 84, "velocity": 120, "channel": 0}, {"type": "note_on", "time": 15, "note": 83, "velocity": 119, "channel": 0}, {"type": "note_off", "time": 68, "note": 83, "velocity": 119, "channel": 0}, {"type": "note_on", "time": 34, "note": 84, "velocity": 120, "channel": 0}, {"type": "note_off", "time": 73, "note": 84, "velocity": 120, "channel": 0}, {"type": "note_on", "time": 5, "note": 83, "velocity": 116, "channel": 0}, {"type": "note_off", "time": 61, "note": 83, "velocity": 116, "channel": 0}, {"type": "note_on", "time": 9, "note": 82, "velocity": 118, "channel": 0}, {"type": "note_off", "time": 57, "note": 82, "velocity": 118, "channel": 0}, {"type": "note_on", "time": 8, "note": 83, "velocity": 101, "channel": 0}, {"type": "note_off", "time": 59, "note": 83, "velocity": 101, "channel": 0}, {"type": "note_on", "time": 11, "note": 85, "velocity": 104, "channel": 0}, {"type": "note_off", "time": 212, "note": 85, "velocity": 104, "channel": 0}, {"type": "note_on", "time": 36, "note": 79, "velocity": 113, "channel": 0}, {"type": "note_off", "time": 79, "note": 79, "velocity": 113, "channel": 0}, {"type": "note_on", "time": 7, "note": 80, "velocity": 114, "channel": 0}, {"type": "note_off", "time": 61, "note": 80, "velocity": 114, "channel": 0}, {"type": "note_on", "time": 10, "note": 82, "velocity": 118, "channel": 0}, {"type": "note_off", "time": 100, "note": 82, "velocity": 118, "channel": 0}, {"type": "note_on", "time": 11, "note": 80, "velocity": 116, "channel": 0}, {"type": "note_off", "time": 75, "note": 80, "velocity": 116, "channel": 0}, {"type": "note_on", "time": 36, "note": 79, "velocity": 105, "channel": 0}, {"type": "note_off", "time": 45, "note": 79, "velocity": 105, "channel": 0}, {"type": "note_on", "time": 3, "note": 77, "velocity": 120, "channel": 0}, {"type": "note_off", "time": 70, "note": 77, "velocity": 120, "channel": 0}, {"type": "note_on", "time": 13, "note": 76, "velocity": 110, "channel": 0}, {"type": "note_off", "time": 77, "note": 76, "velocity": 110, "channel": 0}, {"type": "note_on", "time": 102, "note": 70, "velocity": 116, "channel": 0}, {"type": "note_off", "time": 78, "note": 70, "velocity": 116, "channel": 0}, {"type": "note_on", "time": 16, "note": 73, "velocity": 113, "channel": 0}, {"type": "note_off", "time": 68, "note": 73, "velocity": 113, "channel": 0}, {"type": "note_on", "time": 6, "note": 72, "velocity": 109, "channel": 0}, {"type": "note_off", "time": 67, "note": 72, "velocity": 109, "channel": 0}, {"type": "note_on", "time": 38, "note": 70, "velocity": 108, "channel": 0}, {"type": "note_off", "time": 71, "note": 70, "velocity": 108, "channel": 0}, {"type": "note_on", "time": 4, "note": 67, "velocity": 106, "channel": 0}, {"type": "note_off", "time": 85, "note": 67, "velocity": 106, "channel": 0}, {"type": "note_on", "time": 6, "note": 68, "velocity": 89, "channel": 0}, {"type": "note_off", "time": 87, "note": 68, "velocity": 89, "channel": 0}, {"type": "note_on", "time": 26, "note": 70, "velocity": 113, "channel": 0}, {"type": "note_off", "time": 87, "note": 70, "velocity": 113, "channel": 0}, {"type": "note_on", "time": 37, "note": 67, "velocity": 104, "channel": 0}, {"type": "note_off", "time": 43, "note": 67, "velocity": 104, "channel": 0}, {"type": "note_on", "time": 18, "note": 68, "velocity": 95, "channel": 0}, {"type": "note_off", "time": 212, "note": 68, "velocity": 95, "channel": 0}, {"type": "note_on", "time": 12, "note": 59, "velocity": 109, "channel": 0}, {"type": "note_off", "time": 70, "note": 59, "velocity": 109, "channel": 0}, {"type": "note_on", "time": 24, "note": 68, "velocity": 113, "channel": 0}, {"type": "note_off", "time": 62, "note": 68, "velocity": 113, "channel": 0}, {"type": "note_on", "time": 10, "note": 67, "velocity": 109, "channel": 0}, {"type": "note_off", "time": 39, "note": 67, "velocity": 109, "channel": 0}, {"type": "note_on", "time": 12, "note": 64, "velocity": 103, "channel": 0}, {"type": "note_off", "time": 50, "note": 64, "velocity": 103, "channel": 0}, {"type": "note_on", "time": 17, "note": 65, "velocity": 101, "channel": 0}, {"type": "note_off", "time": 71, "note": 65, "velocity": 101, "channel": 0}, {"type": "note_on", "time": 18, "note": 64, "velocity": 82, "channel": 0}, {"type": "note_off", "time": 157, "note": 64, "velocity": 82, "channel": 0}, {"type": "note_on", "time": 19, "note": 65, "velocity": 115, "channel": 0}, {"type": "note_off", "time": 108, "note": 65, "velocity": 115, "channel": 0}, {"type": "note_on", "time": 42, "note": 62, "velocity": 93, "channel": 0}, {"type": "note_off", "time": 58, "note": 62, "velocity": 93, "channel": 0}, {"type": "note_on", "time": 12, "note": 63, "velocity": 97, "channel": 0}, {"type": "note_off", "time": 79, "note": 63, "velocity": 97, "channel": 0}, {"type": "note_on", "time": 30, "note": 65, "velocity": 19, "channel": 0}, {"type": "note_off", "time": 68, "note": 65, "velocity": 19, "channel": 0}, {"type": "note_on", "time": 43, "note": 67, "velocity": 105, "channel": 0}, {"type": "note_off", "time": 70, "note": 67, "velocity": 105, "channel": 0}, {"type": "note_on", "time": 6, "note": 68, "velocity": 99, "channel": 0}, {"type": "note_off", "time": 66, "note": 68, "velocity": 99, "channel": 0}, {"type": "note_on", "time": 9, "note": 70, "velocity": 117, "channel": 0}, {"type": "note_off", "time": 103, "note": 70, "velocity": 117, "channel": 0}, {"type": "note_on", "time": 11, "note": 68, "velocity": 111, "channel": 0}, {"type": "note_off", "time": 70, "note": 68, "velocity": 111, "channel": 0}, {"type": "note_on", "time": 7, "note": 73, "velocity": 112, "channel": 0}, {"type": "note_off", "time": 86, "note": 73, "velocity": 112, "channel": 0}, {"type": "note_on", "time": 10, "note": 74, "velocity": 115, "channel": 0}, {"type": "note_off", "time": 80, "note": 74, "velocity": 115, "channel": 0}, {"type": "note_on", "time": 7, "note": 75, "velocity": 123, "channel": 0}, {"type": "note_off", "time": 97, "note": 75, "velocity": 123, "channel": 0}, {"type": "note_on", "time": 14, "note": 76, "velocity": 121, "channel": 0}, {"type": "note_off", "time": 61, "note": 76, "velocity": 121, "channel": 0}, {"type": "note_on", "time": 10, "note": 77, "velocity": 125, "channel": 0}, {"type": "note_off", "time": 68, "note": 77, "velocity": 125, "channel": 0}, {"type": "note_on", "time": 13, "note": 75, "velocity": 123, "channel": 0}, {"type": "note_off", "time": 85, "note": 75, "velocity": 123, "channel": 0}, {"type": "note_on", "time": 7, "note": 76, "velocity": 123, "channel": 0}, {"type": "note_off", "time": 61, "note": 76, "velocity": 123, "channel": 0}, {"type": "note_on", "time": 14, "note": 77, "velocity": 122, "channel": 0}, {"type": "note_off", "time": 184, "note": 77, "velocity": 122, "channel": 0}, {"type": "note_on", "time": 965, "note": 72, "velocity": 105, "channel": 0}, {"type": "note_off", "time": 157, "note": 72, "velocity": 105, "channel": 0}, {"type": "note_on", "time": 33, "note": 86, "velocity": 125, "channel": 0}, {"type": "note_off", "time": 139, "note": 86, "velocity": 125, "channel": 0}, {"type": "note_on", "time": 13, "note": 84, "velocity": 117, "channel": 0}, {"type": "note_off", "time": 162, "note": 84, "velocity": 117, "channel": 0}, {"type": "note_on", "time": 349, "note": 82, "velocity": 122, "channel": 0}, {"type": "note_off", "time": 94, "note": 82, "velocity": 122, "channel": 0}, {"type": "note_on", "time": 16, "note": 77, "velocity": 101, "channel": 0}, {"type": "note_off", "time": 85, "note": 77, "velocity": 101, "channel": 0}, {"type": "note_on", "time": 20, "note": 80, "velocity": 110, "channel": 0}, {"type": "note_off", "time": 64, "note": 80, "velocity": 110, "channel": 0}, {"type": "note_on", "time": 10, "note": 82, "velocity": 119, "channel": 0}, {"type": "note_off", "time": 45, "note": 82, "velocity": 119, "channel": 0}, {"type": "note_on", "time": 7, "note": 80, "velocity": 114, "channel": 0}, {"type": "note_off", "time": 84, "note": 80, "velocity": 114, "channel": 0}, {"type": "note_on", "time": 17, "note": 78, "velocity": 107, "channel": 0}, {"type": "note_off", "time": 104, "note": 78, "velocity": 107, "channel": 0}, {"type": "note_on", "time": 1, "note": 77, "velocity": 114, "channel": 0}, {"type": "note_off", "time": 47, "note": 77, "velocity": 114, "channel": 0}, {"type": "note_on", "time": 1, "note": 76, "velocity": 117, "channel": 0}, {"type": "note_off", "time": 347, "note": 76, "velocity": 117, "channel": 0}, {"type": "note_on", "time": 2, "note": 73, "velocity": 113, "channel": 0}, {"type": "note_off", "time": 91, "note": 73, "velocity": 113, "channel": 0}, {"type": "note_on", "time": 25, "note": 72, "velocity": 117, "channel": 0}, {"type": "note_off", "time": 106, "note": 72, "velocity": 117, "channel": 0}, {"type": "note_on", "time": 467, "note": 67, "velocity": 106, "channel": 0}, {"type": "note_off", "time": 36, "note": 67, "velocity": 106, "channel": 0}, {"type": "note_on", "time": 78, "note": 69, "velocity": 96, "channel": 0}, {"type": "note_off", "time": 30, "note": 69, "velocity": 96, "channel": 0}, {"type": "note_on", "time": 35, "note": 70, "velocity": 112, "channel": 0}, {"type": "note_off", "time": 85, "note": 70, "velocity": 112, "channel": 0}, {"type": "note_on", "time": 15, "note": 68, "velocity": 110, "channel": 0}, {"type": "note_off", "time": 47, "note": 68, "velocity": 110, "channel": 0}, {"type": "note_on", "time": 18, "note": 67, "velocity": 110, "channel": 0}, {"type": "note_off", "time": 68, "note": 67, "velocity": 110, "channel": 0}, {"type": "note_on", "time": 5, "note": 65, "velocity": 118, "channel": 0}, {"type": "note_off", "time": 101, "note": 65, "velocity": 118, "channel": 0}, {"type": "note_on", "time": 13, "note": 64, "velocity": 99, "channel": 0}, {"type": "note_off", "time": 91, "note": 64, "velocity": 99, "channel": 0}, {"type": "note_on", "time": 17, "note": 67, "velocity": 99, "channel": 0}, {"type": "note_off", "time": 51, "note": 67, "velocity": 99, "channel": 0}, {"type": "note_on", "time": 17, "note": 70, "velocity": 112, "channel": 0}, {"type": "note_off", "time": 93, "note": 70, "velocity": 112, "channel": 0}, {"type": "note_on", "time": 11, "note": 73, "velocity": 117, "channel": 0}, {"type": "note_off", "time": 70, "note": 73, "velocity": 117, "channel": 0}, {"type": "note_on", "time": 10, "note": 72, "velocity": 114, "channel": 0}, {"type": "note_off", "time": 91, "note": 72, "velocity": 114, "channel": 0}, {"type": "note_on", "time": 23, "note": 70, "velocity": 117, "channel": 0}, {"type": "note_off", "time": 92, "note": 70, "velocity": 117, "channel": 0}, {"type": "note_on", "time": 13, "note": 68, "velocity": 92, "channel": 0}, {"type": "note_off", "time": 58, "note": 68, "velocity": 92, "channel": 0}, {"type": "note_on", "time": 141, "note": 70, "velocity": 117, "channel": 0}, {"type": "note_off", "time": 73, "note": 70, "velocity": 117, "channel": 0}, {"type": "note_on", "time": 8, "note": 68, "velocity": 109, "channel": 0}, {"type": "note_off", "time": 70, "note": 68, "velocity": 109, "channel": 0}, {"type": "note_on", "time": 6, "note": 67, "velocity": 111, "channel": 0}, {"type": "note_off", "time": 77, "note": 67, "velocity": 111, "channel": 0}, {"type": "note_on", "time": 23, "note": 65, "velocity": 113, "channel": 0}, {"type": "note_off", "time": 74, "note": 65, "velocity": 113, "channel": 0}, {"type": "note_on", "time": 26, "note": 64, "velocity": 115, "channel": 0}, {"type": "note_off", "time": 72, "note": 64, "velocity": 115, "channel": 0}, {"type": "note_on", "time": 4, "note": 61, "velocity": 101, "channel": 0}, {"type": "note_off", "time": 48, "note": 61, "velocity": 101, "channel": 0}, {"type": "note_on", "time": 8, "note": 57, "velocity": 92, "channel": 0}, {"type": "note_off", "time": 34, "note": 57, "velocity": 92, "channel": 0}, {"type": "note_on", "time": 9, "note": 58, "velocity": 99, "channel": 0}, {"type": "note_off", "time": 115, "note": 58, "velocity": 99, "channel": 0}, {"type": "note_on", "time": 19, "note": 61, "velocity": 110, "channel": 0}, {"type": "note_off", "time": 58, "note": 61, "velocity": 110, "channel": 0}, {"type": "note_on", "time": 30, "note": 60, "velocity": 109, "channel": 0}, {"type": "note_off", "time": 66, "note": 60, "velocity": 109, "channel": 0}, {"type": "note_on", "time": 39, "note": 58, "velocity": 111, "channel": 0}, {"type": "note_off", "time": 76, "note": 58, "velocity": 111, "channel": 0}, {"type": "note_on", "time": 5, "note": 56, "velocity": 99, "channel": 0}, {"type": "note_off", "time": 162, "note": 56, "velocity": 99, "channel": 0}, {"type": "note_on", "time": 12, "note": 58, "velocity": 110, "channel": 0}, {"type": "note_off", "time": 129, "note": 58, "velocity": 110, "channel": 0}, {"type": "note_on", "time": 46, "note": 56, "velocity": 104, "channel": 0}, {"type": "note_off", "time": 203, "note": 56, "velocity": 104, "channel": 0}, {"type": "note_on", "time": 726, "note": 65, "velocity": 107, "channel": 0}, {"type": "note_off", "time": 60, "note": 65, "velocity": 107, "channel": 0}, {"type": "note_on", "time": 12, "note": 64, "velocity": 112, "channel": 0}, {"type": "note_off", "time": 66, "note": 64, "velocity": 112, "channel": 0}, {"type": "note_on", "time": 4, "note": 62, "velocity": 113, "channel": 0}, {"type": "note_off", "time": 60, "note": 62, "velocity": 113, "channel": 0}, {"type": "note_on", "time": 1, "note": 65, "velocity": 114, "channel": 0}, {"type": "note_off", "time": 62, "note": 65, "velocity": 114, "channel": 0}, {"type": "note_on", "time": 5, "note": 67, "velocity": 115, "channel": 0}, {"type": "note_off", "time": 67, "note": 67, "velocity": 115, "channel": 0}, {"type": "note_on", "time": 10, "note": 70, "velocity": 115, "channel": 0}, {"type": "note_off", "time": 76, "note": 70, "velocity": 115, "channel": 0}, {"type": "note_on", "time": 6, "note": 72, "velocity": 115, "channel": 0}, {"type": "note_off", "time": 55, "note": 72, "velocity": 115, "channel": 0}, {"type": "note_on", "time": 9, "note": 73, "velocity": 113, "channel": 0}, {"type": "note_off", "time": 48, "note": 73, "velocity": 113, "channel": 0}, {"type": "note_on", "time": 8, "note": 75, "velocity": 121, "channel": 0}, {"type": "note_off", "time": 94, "note": 75, "velocity": 121, "channel": 0}, {"type": "note_on", "time": 9, "note": 76, "velocity": 118, "channel": 0}, {"type": "note_off", "time": 38, "note": 76, "velocity": 118, "channel": 0}, {"type": "note_on", "time": 6, "note": 77, "velocity": 124, "channel": 0}, {"type": "note_off", "time": 80, "note": 77, "velocity": 124, "channel": 0}, {"type": "note_on", "time": 4, "note": 75, "velocity": 124, "channel": 0}, {"type": "note_off", "time": 129, "note": 75, "velocity": 124, "channel": 0}, {"type": "note_on", "time": 10, "note": 73, "velocity": 110, "channel": 0}, {"type": "note_off", "time": 55, "note": 73, "velocity": 110, "channel": 0}, {"type": "note_on", "time": 5, "note": 74, "velocity": 121, "channel": 0}, {"type": "note_off", "time": 125, "note": 74, "velocity": 121, "channel": 0}, {"type": "note_on", "time": 4, "note": 70, "velocity": 111, "channel": 0}, {"type": "note_off", "time": 29, "note": 70, "velocity": 111, "channel": 0}, {"type": "note_on", "time": 8, "note": 67, "velocity": 102, "channel": 0}, {"type": "note_off", "time": 121, "note": 67, "velocity": 102, "channel": 0}, {"type": "note_on", "time": 22, "note": 68, "velocity": 85, "channel": 0}, {"type": "note_off", "time": 84, "note": 68, "velocity": 85, "channel": 0}, {"type": "note_on", "time": 6, "note": 72, "velocity": 117, "channel": 0}, {"type": "note_off", "time": 76, "note": 72, "velocity": 117, "channel": 0}, {"type": "note_on", "time": 30, "note": 68, "velocity": 114, "channel": 0}, {"type": "note_off", "time": 64, "note": 68, "velocity": 114, "channel": 0}, {"type": "note_on", "time": 11, "note": 67, "velocity": 115, "channel": 0}, {"type": "note_off", "time": 98, "note": 67, "velocity": 115, "channel": 0}, {"type": "note_on", "time": 20, "note": 65, "velocity": 119, "channel": 0}, {"type": "note_off", "time": 95, "note": 65, "velocity": 119, "channel": 0}, {"type": "note_on", "time": 29, "note": 63, "velocity": 100, "channel": 0}, {"type": "note_off", "time": 94, "note": 63, "velocity": 100, "channel": 0}, {"type": "note_on", "time": 99, "note": 65, "velocity": 121, "channel": 0}, {"type": "note_off", "time": 65, "note": 65, "velocity": 121, "channel": 0}, {"type": "note_on", "time": 44, "note": 62, "velocity": 98, "channel": 0}, {"type": "note_off", "time": 50, "note": 62, "velocity": 98, "channel": 0}, {"type": "note_on", "time": 4, "note": 63, "velocity": 100, "channel": 0}, {"type": "note_off", "time": 83, "note": 63, "velocity": 100, "channel": 0}, {"type": "note_on", "time": 24, "note": 65, "velocity": 111, "channel": 0}, {"type": "note_off", "time": 374, "note": 65, "velocity": 111, "channel": 0}, {"type": "note_on", "time": 64, "note": 62, "velocity": 108, "channel": 0}, {"type": "note_off", "time": 44, "note": 62, "velocity": 108, "channel": 0}, {"type": "note_on", "time": 15, "note": 63, "velocity": 116, "channel": 0}, {"type": "note_off", "time": 72, "note": 63, "velocity": 116, "channel": 0}, {"type": "note_on", "time": 15, "note": 65, "velocity": 119, "channel": 0}, {"type": "note_off", "time": 81, "note": 65, "velocity": 119, "channel": 0}, {"type": "note_on", "time": 7, "note": 66, "velocity": 117, "channel": 0}, {"type": "note_off", "time": 95, "note": 66, "velocity": 117, "channel": 0}, {"type": "note_on", "time": 43, "note": 68, "velocity": 109, "channel": 0}, {"type": "note_off", "time": 30, "note": 68, "velocity": 109, "channel": 0}, {"type": "note_on", "time": 15, "note": 70, "velocity": 117, "channel": 0}, {"type": "note_off", "time": 100, "note": 70, "velocity": 117, "channel": 0}, {"type": "note_on", "time": 12, "note": 68, "velocity": 106, "channel": 0}, {"type": "note_off", "time": 45, "note": 68, "velocity": 106, "channel": 0}, {"type": "note_on", "time": 19, "note": 68, "velocity": 113, "channel": 0}, {"type": "note_off", "time": 38, "note": 68, "velocity": 113, "channel": 0}, {"type": "note_on", "time": 15, "note": 70, "velocity": 112, "channel": 0}, {"type": "note_off", "time": 65, "note": 70, "velocity": 112, "channel": 0}, {"type": "note_on", "time": 6, "note": 68, "velocity": 112, "channel": 0}, {"type": "note_off", "time": 30, "note": 68, "velocity": 112, "channel": 0}, {"type": "note_on", "time": 10, "note": 67, "velocity": 105, "channel": 0}, {"type": "note_off", "time": 24, "note": 67, "velocity": 105, "channel": 0}, {"type": "note_on", "time": 4, "note": 65, "velocity": 109, "channel": 0}, {"type": "note_off", "time": 63, "note": 65, "velocity": 109, "channel": 0}, {"type": "note_on", "time": 10, "note": 66, "velocity": 113, "channel": 0}, {"type": "note_off", "time": 108, "note": 66, "velocity": 113, "channel": 0}, {"type": "note_on", "time": 4, "note": 70, "velocity": 103, "channel": 0}, {"type": "note_off", "time": 62, "note": 70, "velocity": 103, "channel": 0}, {"type": "note_on", "time": 30, "note": 73, "velocity": 85, "channel": 0}, {"type": "note_off", "time": 64, "note": 73, "velocity": 85, "channel": 0}, {"type": "note_on", "time": 124, "note": 80, "velocity": 118, "channel": 0}, {"type": "note_off", "time": 513, "note": 80, "velocity": 118, "channel": 0}, {"type": "note_on", "time": 57, "note": 79, "velocity": 118, "channel": 0}, {"type": "note_off", "time": 46, "note": 79, "velocity": 118, "channel": 0}, {"type": "note_on", "time": 2, "note": 78, "velocity": 109, "channel": 0}, {"type": "note_off", "time": 38, "note": 78, "velocity": 109, "channel": 0}, {"type": "note_on", "time": 78, "note": 77, "velocity": 119, "channel": 0}, {"type": "note_off", "time": 89, "note": 77, "velocity": 119, "channel": 0}, {"type": "note_on", "time": 31, "note": 73, "velocity": 115, "channel": 0}, {"type": "note_off", "time": 58, "note": 73, "velocity": 115, "channel": 0}, {"type": "note_on", "time": 1208, "note": 80, "velocity": 107, "channel": 0}, {"type": "note_off", "time": 123, "note": 80, "velocity": 107, "channel": 0}, {"type": "note_on", "time": 58, "note": 84, "velocity": 110, "channel": 0}, {"type": "note_off", "time": 144, "note": 84, "velocity": 110, "channel": 0}, {"type": "note_on", "time": 69, "note": 80, "velocity": 103, "channel": 0}, {"type": "note_off", "time": 98, "note": 80, "velocity": 103, "channel": 0}, {"type": "note_on", "time": 122, "note": 84, "velocity": 119, "channel": 0}, {"type": "note_off", "time": 95, "note": 84, "velocity": 119, "channel": 0}, {"type": "note_on", "time": 10, "note": 80, "velocity": 109, "channel": 0}, {"type": "note_off", "time": 53, "note": 80, "velocity": 109, "channel": 0}, {"type": "note_on", "time": 120, "note": 85, "velocity": 124, "channel": 0}, {"type": "note_off", "time": 161, "note": 85, "velocity": 124, "channel": 0}, {"type": "note_on", "time": 19, "note": 83, "velocity": 123, "channel": 0}, {"type": "note_off", "time": 66, "note": 83, "velocity": 123, "channel": 0}, {"type": "note_on", "time": 15, "note": 84, "velocity": 117, "channel": 0}, {"type": "note_off", "time": 72, "note": 84, "velocity": 117, "channel": 0}, {"type": "note_on", "time": 32, "note": 82, "velocity": 118, "channel": 0}, {"type": "note_off", "time": 81, "note": 82, "velocity": 118, "channel": 0}, {"type": "note_on", "time": 30, "note": 80, "velocity": 116, "channel": 0}, {"type": "note_off", "time": 87, "note": 80, "velocity": 116, "channel": 0}, {"type": "note_on", "time": 72, "note": 82, "velocity": 114, "channel": 0}, {"type": "note_off", "time": 79, "note": 82, "velocity": 114, "channel": 0}, {"type": "note_on", "time": 32, "note": 80, "velocity": 113, "channel": 0}, {"type": "note_off", "time": 85, "note": 80, "velocity": 113, "channel": 0}, {"type": "note_on", "time": 41, "note": 79, "velocity": 108, "channel": 0}, {"type": "note_off", "time": 49, "note": 79, "velocity": 108, "channel": 0}, {"type": "note_on", "time": 28, "note": 77, "velocity": 106, "channel": 0}, {"type": "note_off", "time": 110, "note": 77, "velocity": 106, "channel": 0}, {"type": "note_on", "time": 66, "note": 78, "velocity": 114, "channel": 0}, {"type": "note_off", "time": 39, "note": 78, "velocity": 114, "channel": 0}, {"type": "note_on", "time": 19, "note": 82, "velocity": 108, "channel": 0}, {"type": "note_off", "time": 36, "note": 82, "velocity": 108, "channel": 0}, {"type": "note_on", "time": 30, "note": 84, "velocity": 120, "channel": 0}, {"type": "note_off", "time": 89, "note": 84, "velocity": 120, "channel": 0}, {"type": "note_on", "time": 20, "note": 82, "velocity": 117, "channel": 0}, {"type": "note_off", "time": 41, "note": 82, "velocity": 117, "channel": 0}, {"type": "note_on", "time": 7, "note": 81, "velocity": 117, "channel": 0}, {"type": "note_off", "time": 34, "note": 81, "velocity": 117, "channel": 0}, {"type": "note_on", "time": 13, "note": 80, "velocity": 117, "channel": 0}, {"type": "note_off", "time": 110, "note": 80, "velocity": 117, "channel": 0}, {"type": "note_on", "time": 1, "note": 81, "velocity": 119, "channel": 0}, {"type": "note_off", "time": 62, "note": 81, "velocity": 119, "channel": 0}, {"type": "note_on", "time": 24, "note": 82, "velocity": 120, "channel": 0}, {"type": "note_off", "time": 85, "note": 82, "velocity": 120, "channel": 0}, {"type": "note_on", "time": 17, "note": 80, "velocity": 116, "channel": 0}, {"type": "note_off", "time": 62, "note": 80, "velocity": 116, "channel": 0}, {"type": "note_on", "time": 22, "note": 79, "velocity": 113, "channel": 0}, {"type": "note_off", "time": 66, "note": 79, "velocity": 113, "channel": 0}, {"type": "note_on", "time": 22, "note": 77, "velocity": 119, "channel": 0}, {"type": "note_off", "time": 74, "note": 77, "velocity": 119, "channel": 0}, {"type": "note_on", "time": 19, "note": 76, "velocity": 119, "channel": 0}, {"type": "note_off", "time": 79, "note": 76, "velocity": 119, "channel": 0}, {"type": "note_on", "time": 92, "note": 70, "velocity": 111, "channel": 0}, {"type": "note_off", "time": 83, "note": 70, "velocity": 111, "channel": 0}, {"type": "note_on", "time": 23, "note": 73, "velocity": 112, "channel": 0}, {"type": "note_off", "time": 51, "note": 73, "velocity": 112, "channel": 0}, {"type": "note_on", "time": 39, "note": 72, "velocity": 111, "channel": 0}, {"type": "note_off", "time": 76, "note": 72, "velocity": 111, "channel": 0}, {"type": "note_on", "time": 11, "note": 70, "velocity": 113, "channel": 0}, {"type": "note_off", "time": 55, "note": 70, "velocity": 113, "channel": 0}, {"type": "note_on", "time": 19, "note": 68, "velocity": 111, "channel": 0}, {"type": "note_off", "time": 93, "note": 68, "velocity": 111, "channel": 0}, {"type": "note_on", "time": 22, "note": 67, "velocity": 100, "channel": 0}, {"type": "note_off", "time": 53, "note": 67, "velocity": 100, "channel": 0}, {"type": "note_on", "time": 34, "note": 70, "velocity": 113, "channel": 0}, {"type": "note_off", "time": 87, "note": 70, "velocity": 113, "channel": 0}, {"type": "note_on", "time": 17, "note": 68, "velocity": 113, "channel": 0}, {"type": "note_off", "time": 55, "note": 68, "velocity": 113, "channel": 0}, {"type": "note_on", "time": 36, "note": 67, "velocity": 112, "channel": 0}, {"type": "note_off", "time": 55, "note": 67, "velocity": 112, "channel": 0}, {"type": "note_on", "time": 32, "note": 65, "velocity": 114, "channel": 0}, {"type": "note_off", "time": 85, "note": 65, "velocity": 114, "channel": 0}, {"type": "note_on", "time": 24, "note": 64, "velocity": 98, "channel": 0}, {"type": "note_off", "time": 72, "note": 64, "velocity": 98, "channel": 0}, {"type": "note_on", "time": 21, "note": 67, "velocity": 103, "channel": 0}, {"type": "note_off", "time": 45, "note": 67, "velocity": 103, "channel": 0}, {"type": "note_on", "time": 39, "note": 70, "velocity": 105, "channel": 0}, {"type": "note_off", "time": 60, "note": 70, "velocity": 105, "channel": 0}, {"type": "note_on", "time": 45, "note": 73, "velocity": 112, "channel": 0}, {"type": "note_off", "time": 58, "note": 73, "velocity": 112, "channel": 0}, {"type": "note_on", "time": 9, "note": 72, "velocity": 111, "channel": 0}, {"type": "note_off", "time": 93, "note": 72, "velocity": 111, "channel": 0}, {"type": "note_on", "time": 24, "note": 70, "velocity": 106, "channel": 0}, {"type": "note_off", "time": 110, "note": 70, "velocity": 106, "channel": 0}, {"type": "note_on", "time": 15, "note": 68, "velocity": 108, "channel": 0}, {"type": "note_off", "time": 34, "note": 68, "velocity": 108, "channel": 0}, {"type": "note_on", "time": 28, "note": 67, "velocity": 102, "channel": 0}, {"type": "note_off", "time": 77, "note": 67, "velocity": 102, "channel": 0}, {"type": "note_on", "time": 39, "note": 70, "velocity": 110, "channel": 0}, {"type": "note_off", "time": 68, "note": 70, "velocity": 110, "channel": 0}, {"type": "note_on", "time": 19, "note": 68, "velocity": 109, "channel": 0}, {"type": "note_off", "time": 53, "note": 68, "velocity": 109, "channel": 0}, {"type": "note_on", "time": 13, "note": 67, "velocity": 108, "channel": 0}, {"type": "note_off", "time": 96, "note": 67, "velocity": 108, "channel": 0}, {"type": "note_on", "time": 19, "note": 65, "velocity": 111, "channel": 0}, {"type": "note_off", "time": 64, "note": 65, "velocity": 111, "channel": 0}, {"type": "note_on", "time": 15, "note": 64, "velocity": 108, "channel": 0}, {"type": "note_off", "time": 58, "note": 64, "velocity": 108, "channel": 0}, {"type": "note_on", "time": 55, "note": 56, "velocity": 111, "channel": 0}, {"type": "note_off", "time": 43, "note": 56, "velocity": 111, "channel": 0}, {"type": "note_on", "time": 1, "note": 57, "velocity": 99, "channel": 0}, {"type": "note_off", "time": 38, "note": 57, "velocity": 99, "channel": 0}, {"type": "note_on", "time": 5, "note": 58, "velocity": 103, "channel": 0}, {"type": "note_off", "time": 73, "note": 58, "velocity": 103, "channel": 0}, {"type": "note_on", "time": 61, "note": 61, "velocity": 105, "channel": 0}, {"type": "note_off", "time": 50, "note": 61, "velocity": 105, "channel": 0}, {"type": "note_on", "time": 1, "note": 60, "velocity": 97, "channel": 0}, {"type": "note_off", "time": 58, "note": 60, "velocity": 97, "channel": 0}, {"type": "note_on", "time": 57, "note": 58, "velocity": 103, "channel": 0}, {"type": "note_off", "time": 73, "note": 58, "velocity": 103, "channel": 0}, {"type": "note_on", "time": 6, "note": 56, "velocity": 106, "channel": 0}, {"type": "note_off", "time": 95, "note": 56, "velocity": 106, "channel": 0}, {"type": "note_on", "time": 10, "note": 55, "velocity": 95, "channel": 0}, {"type": "note_off", "time": 70, "note": 55, "velocity": 95, "channel": 0}, {"type": "note_on", "time": 39, "note": 58, "velocity": 102, "channel": 0}, {"type": "note_off", "time": 84, "note": 58, "velocity": 102, "channel": 0}, {"type": "note_on", "time": 2, "note": 56, "velocity": 95, "channel": 0}, {"type": "note_off", "time": 72, "note": 56, "velocity": 95, "channel": 0}, {"type": "note_on", "time": 13, "note": 53, "velocity": 115, "channel": 0}, {"type": "note_off", "time": 81, "note": 53, "velocity": 115, "channel": 0}, {"type": "end_of_track", "time": 0}]]}