{"ticks_per_beat": 192, "tracks": [[{"type": "track_name", "name": "Melody", "time": 0}, {"type": "set_tempo", "tempo": 526315, "time": 0}, {"type": "key_signature", "key": "F", "time": 0}, {"type": "time_signature", "numerator": 4, "denominator": 4, "clocks_per_click": 24, "notated_32nd_notes_per_beat": 8, "time": 0}, {"type": "note_on", "time": 2751, "note": 72, "velocity": 113, "channel": 0}, {"type": "note_off", "time": 36, "note": 72, "velocity": 113, "channel": 0}, {"type": "note_on", "time": 27, "note": 77, "velocity": 107, "channel": 0}, {"type": "note_off", "time": 50, "note": 77, "velocity": 107, "channel": 0}, {"type": "note_on", "time": 7, "note": 81, "velocity": 112, "channel": 0}, {"type": "note_off", "time": 46, "note": 81, "velocity": 112, "channel": 0}, {"type": "note_on", "time": 19, "note": 82, "velocity": 109, "channel": 0}, {"type": "note_off", "time": 61, "note": 82, "velocity": 109, "channel": 0}, {"type": "note_on", "time": 5, "note": 82, "velocity": 110, "channel": 0}, {"type": "note_off", "time": 51, "note": 82, "velocity": 110, "channel": 0}, {"type": "note_on", "time": 3, "note": 81, "velocity": 110, "channel": 0}, {"type": "note_off", "time": 80, "note": 81, "velocity": 110, "channel": 0}, {"type": "note_on", "time": 5, "note": 82, "velocity": 112, "channel": 0}, {"type": "note_off", "time": 48, "note": 82, "velocity": 112, "channel": 0}, {"type": "note_on", "time": 5, "note": 82, "velocity": 108, "channel": 0}, {"type": "note_off", "time": 50, "note": 82, "velocity": 108, "channel": 0}, {"type": "note_on", "time": 6, "note": 81, "velocity": 107, "channel": 0}, {"type": "note_off", "time": 76, "note": 81, "velocity": 107, "channel": 0}, {"type": "note_on", "time": 3, "note": 77, "velocity": 108, "channel": 0}, {"type": "note_off", "time": 67, "note": 77, "velocity": 108, "channel": 0}, {"type": "note_on", "time": 196, "note": 72, "velocity": 104, "channel": 0}, {"type": "note_off", "time": 41, "note": 72, "velocity": 104, "channel": 0}, {"type": "note_on", "time": 1, "note": 77, "velocity": 110, "channel": 0}, {"type": "note_off", "time": 48, "note": 77, "velocity": 110, "channel": 0}, {"type": "note_on", "time": 6, "note": 81, "velocity": 104, "channel": 0}, {"type": "note_off", "time": 26, "note": 81, "velocity": 104, "channel": 0}, {"type": "note_on", "time": 21, "note": 82, "velocity": 111, "channel": 0}, {"type": "note_off", "time": 56, "note": 82, "velocity": 111, "channel": 0}, {"type": "note_on", "time": 7, "note": 82, "velocity": 106, "channel": 0}, {"type": "note_off", "time": 47, "note": 82, "velocity": 106, "channel": 0}, {"type": "note_on", "time": 11, "note": 81, "velocity": 114, "channel": 0}, {"type": "note_off", "time": 48, "note": 81, "velocity": 114, "channel": 0}, {"type": "note_on", "time": 4, "note": 82, "velocity": 108, "channel": 0}, {"type": "note_off", "time": 76, "note": 82, "velocity": 108, "channel": 0}, {"type": "note_on", "time": 5, "note": 82, "velocity": 107, "channel": 0}, {"type": "note_off", "time": 59, "note": 82, "velocity": 107, "channel": 0}, {"type": "note_on", "time": 2, "note": 81, "velocity": 112, "channel": 0}, {"type": "note_off", "time": 58, "note": 81, "velocity": 112, "channel": 0}, {"type": "note_on", "time": 13, "note": 77, "velocity": 113, "channel": 0}, {"type": "note_off", "time": 47, "note": 77, "velocity": 113, "channel": 0}, {"type": "note_on", "time": 227, "note": 72, "velocity": 105, "channel": 0}, {"type": "note_off", "time": 35, "note": 72, "velocity": 105, "channel": 0}, {"type": "note_on", "time": 0, "note": 77, "velocity": 113, "channel": 0}, {"type": "note_off", "time": 55, "note": 77, "velocity": 113, "channel": 0}, {"type": "note_on", "time": 10, "note": 81, "velocity": 107, "channel": 0}, {"type": "note_off", "time": 37, "note": 81, "velocity": 107, "channel": 0}, {"type": "note_on", "time": 1, "note": 82, "velocity": 111, "channel": 0}, {"type": "note_off", "time": 62, "note": 82, "velocity": 111, "channel": 0}, {"type": "note_on", "time": 5, "note": 82, "velocity": 109, "channel": 0}, {"type": "note_off", "time": 58, "note": 82, "velocity": 109, "channel": 0}, {"type": "note_on", "time": 4, "note": 81, "velocity": 114, "channel": 0}, {"type": "note_off", "time": 61, "note": 81, "velocity": 114, "channel": 0}, {"type": "note_on", "time": 2, "note": 82, "velocity": 111, "channel": 0}, {"type": "note_off", "time": 71, "note": 82, "velocity": 111, "channel": 0}, {"type": "note_on", "time": 8, "note": 82, "velocity": 111, "channel": 0}, {"type": "note_off", "time": 55, "note": 82, "velocity": 111, "channel": 0}, {"type": "note_on", "time": 1, "note": 81, "velocity": 115, "channel": 0}, {"type": "note_off", "time": 50, "note": 81, "velocity": 115, "channel": 0}, {"type": "note_on", "time": 7, "note": 82, "velocity": 110, "channel": 0}, {"type": "note_off", "time": 61, "note": 82, "velocity": 110, "channel": 0}, {"type": "note_on", "time": 8, "note": 82, "velocity": 106, "channel": 0}, {"type": "note_off", "time": 55, "note": 82, "velocity": 106, "channel": 0}, {"type": "note_on", "time": 17, "note": 81, "velocity": 118, "channel": 0}, {"type": "note_off", "time": 50, "note": 81, "velocity": 118, "channel": 0}, {"type": "note_on", "time": 11, "note": 82, "velocity": 105, "channel": 0}, {"type": "note_off", "time": 58, "note": 82, "velocity": 105, "channel": 0}, {"type": "note_on", "time": 7, "note": 82, "velocity": 106, "channel": 0}, {"type": "note_off", "time": 55, "note": 82, "velocity": 106, "channel": 0}, {"type": "note_on", "time": 7, "note": 81, "velocity": 114, "channel": 0}, {"type": "note_off", "time": 62, "note": 81, "velocity": 114, "channel": 0}, {"type": "note_on", "time": 4, "note": 82, "velocity": 105, "channel": 0}, {"type": "note_off", "time": 61, "note": 82, "velocity": 105, "channel": 0}, {"type": "note_on", "time": 0, "note": 84, "velocity": 109, "channel": 0}, {"type": "note_off", "time": 31, "note": 84, "velocity": 109, "channel": 0}, {"type": "note_on", "time": 0, "note": 80, "velocity": 102, "channel": 0}, {"type": "note_off", "time": 31, "note": 80, "velocity": 102, "channel": 0}, {"type": "note_on", "time": 1, "note": 84, "velocity": 103, "channel": 0}, {"type": "note_off", "time": 26, "note": 84, "velocity": 103, "channel": 0}, {"type": "note_on", "time": 1, "note": 80, "velocity": 106, "channel": 0}, {"type": "note_off", "time": 29, "note": 80, "velocity": 106, "channel": 0}, {"type": "note_on", "time": 11, "note": 84, "velocity": 99, "channel": 0}, {"type": "note_on", "time": 26, "note": 80, "velocity": 101, "channel": 0}, {"type": "note_off", "time": 0, "note": 84, "velocity": 99, "channel": 0}, {"type": "note_off", "time": 34, "note": 80, "velocity": 101, "channel": 0}, {"type": "note_on", "time": 2, "note": 84, "velocity": 111, "channel": 0}, {"type": "note_off", "time": 38, "note": 84, "velocity": 111, "channel": 0}, {"type": "note_on", "time": 8, "note": 80, "velocity": 96, "channel": 0}, {"type": "note_on", "time": 32, "note": 84, "velocity": 106, "channel": 0}, {"type": "note_off", "time": 0, "note": 80, "velocity": 96, "channel": 0}, {"type": "note_off", "time": 41, "note": 84, "velocity": 106, "channel": 0}, {"type": "note_on", "time": 2, "note": 80, "velocity": 99, "channel": 0}, {"type": "note_off", "time": 28, "note": 80, "velocity": 99, "channel": 0}, {"type": "note_on", "time": 9, "note": 84, "velocity": 104, "channel": 0}, {"type": "note_off", "time": 37, "note": 84, "velocity": 104, "channel": 0}, {"type": "note_on", "time": 0, "note": 80, "velocity": 96, "channel": 0}, {"type": "note_off", "time": 34, "note": 80, "velocity": 96, "channel": 0}, {"type": "note_on", "time": 11, "note": 84, "velocity": 98, "channel": 0}, {"type": "note_off", "time": 23, "note": 84, "velocity": 98, "channel": 0}, {"type": "note_on", "time": 0, "note": 79, "velocity": 86, "channel": 0}, {"type": "note_off", "time": 46, "note": 79, "velocity": 86, "channel": 0}, {"type": "note_on", "time": 20, "note": 77, "velocity": 102, "channel": 0}, {"type": "note_off", "time": 131, "note": 77, "velocity": 102, "channel": 0}, {"type": "note_on", "time": 56, "note": 77, "velocity": 107, "channel": 0}, {"type": "note_off", "time": 72, "note": 77, "velocity": 107, "channel": 0}, {"type": "note_on", "time": 305, "note": 77, "velocity": 119, "channel": 0}, {"type": "note_on", "time": 159, "note": 80, "velocity": 107, "channel": 0}, {"type": "note_off", "time": 0, "note": 77, "velocity": 119, "channel": 0}, {"type": "note_off", "time": 117, "note": 80, "velocity": 107, "channel": 0}, {"type": "note_on", "time": 61, "note": 79, "velocity": 91, "channel": 0}, {"type": "note_off", "time": 17, "note": 79, "velocity": 91, "channel": 0}, {"type": "note_on", "time": 86, "note": 80, "velocity": 107, "channel": 0}, {"type": "note_off", "time": 104, "note": 80, "velocity": 107, "channel": 0}, {"type": "note_on", "time": 50, "note": 82, "velocity": 113, "channel": 0}, {"type": "note_off", "time": 147, "note": 82, "velocity": 113, "channel": 0}, {"type": "note_on", "time": 5, "note": 80, "velocity": 114, "channel": 0}, {"type": "note_off", "time": 29, "note": 80, "velocity": 114, "channel": 0}, {"type": "note_on", "time": 1, "note": 79, "velocity": 108, "channel": 0}, {"type": "note_off", "time": 22, "note": 79, "velocity": 108, "channel": 0}, {"type": "note_on", "time": 1, "note": 80, "velocity": 103, "channel": 0}, {"type": "note_off", "time": 101, "note": 80, "velocity": 103, "channel": 0}, {"type": "note_on", "time": 29, "note": 77, "velocity": 108, "channel": 0}, {"type": "note_off", "time": 74, "note": 77, "velocity": 108, "channel": 0}, {"type": "note_on", "time": 330, "note": 83, "velocity": 107, "channel": 0}, {"type": "note_off", "time": 172, "note": 83, "velocity": 107, "channel": 0}, {"type": "note_on", "time": 28, "note": 82, "velocity": 107, "channel": 0}, {"type": "note_off", "time": 101, "note": 82, "velocity": 107, "channel": 0}, {"type": "note_on", "time": 4, "note": 80, "velocity": 108, "channel": 0}, {"type": "note_off", "time": 87, "note": 80, "velocity": 108, "channel": 0}, {"type": "note_on", "time": 2, "note": 77, "velocity": 102, "channel": 0}, {"type": "note_off", "time": 34, "note": 77, "velocity": 102, "channel": 0}, {"type": "note_on", "time": 46, "note": 75, "velocity": 106, "channel": 0}, {"type": "note_off", "time": 59, "note": 75, "velocity": 106, "channel": 0}, {"type": "note_on", "time": 20, "note": 71, "velocity": 107, "channel": 0}, {"type": "note_off", "time": 77, "note": 71, "velocity": 107, "channel": 0}, {"type": "note_on", "time": 7, "note": 70, "velocity": 96, "channel": 0}, {"type": "note_off", "time": 50, "note": 70, "velocity": 96, "channel": 0}, {"type": "note_on", "time": 14, "note": 76, "velocity": 97, "channel": 0}, {"type": "note_off", "time": 37, "note": 76, "velocity": 97, "channel": 0}, {"type": "note_on", "time": 8, "note": 70, "velocity": 84, "channel": 0}, {"type": "note_off", "time": 31, "note": 70, "velocity": 84, "channel": 0}, {"type": "note_on", "time": 2, "note": 76, "velocity": 94, "channel": 0}, {"type": "note_off", "time": 37, "note": 76, "velocity": 94, "channel": 0}, {"type": "note_on", "time": 2, "note": 70, "velocity": 89, "channel": 0}, {"type": "note_off", "time": 25, "note": 70, "velocity": 89, "channel": 0}, {"type": "note_on", "time": 0, "note": 75, "velocity": 95, "channel": 0}, {"type": "note_off", "time": 29, "note": 75, "velocity": 95, "channel": 0}, {"type": "note_on", "time": 7, "note": 70, "velocity": 95, "channel": 0}, {"type": "note_off", "time": 34, "note": 70, "velocity": 95, "channel": 0}, {"type": "note_on", "time": 0, "note": 75, "velocity": 95, "channel": 0}, {"type": "note_off", "time": 47, "note": 75, "velocity": 95, "channel": 0}, {"type": "note_on", "time": 4, "note": 71, "velocity": 97, "channel": 0}, {"type": "note_off", "time": 22, "note": 71, "velocity": 97, "channel": 0}, {"type": "note_on", "time": 0, "note": 74, "velocity": 103, "channel": 0}, {"type": "note_off", "time": 31, "note": 74, "velocity": 103, "channel": 0}, {"type": "note_on", "time": 8, "note": 70, "velocity": 111, "channel": 0}, {"type": "note_off", "time": 96, "note": 70, "velocity": 111, "channel": 0}, {"type": "note_on", "time": 2, "note": 67, "velocity": 114, "channel": 0}, {"type": "note_off", "time": 65, "note": 67, "velocity": 114, "channel": 0}, {"type": "note_on", "time": 13, "note": 65, "velocity": 102, "channel": 0}, {"type": "note_off", "time": 72, "note": 65, "velocity": 102, "channel": 0}, {"type": "note_on", "time": 105, "note": 62, "velocity": 100, "channel": 0}, {"type": "note_off", "time": 53, "note": 62, "velocity": 100, "channel": 0}, {"type": "note_on", "time": 5, "note": 65, "velocity": 96, "channel": 0}, {"type": "note_off", "time": 101, "note": 65, "velocity": 96, "channel": 0}, {"type": "note_on", "time": 7, "note": 62, "velocity": 97, "channel": 0}, {"type": "note_off", "time": 35, "note": 62, "velocity": 97, "channel": 0}, {"type": "note_on", "time": 1, "note": 65, "velocity": 101, "channel": 0}, {"type": "note_off", "time": 35, "note": 65, "velocity": 101, "channel": 0}, {"type": "note_on", "time": 0, "note": 67, "velocity": 99, "channel": 0}, {"type": "note_off", "time": 46, "note": 67, "velocity": 99, "channel": 0}, {"type": "note_on", "time": 0, "note": 68, "velocity": 98, "channel": 0}, {"type": "note_off", "time": 58, "note": 68, "velocity": 98, "channel": 0}, {"type": "note_on", "time": 1, "note": 70, "velocity": 93, "channel": 0}, {"type": "note_off", "time": 175, "note": 70, "velocity": 93, "channel": 0}, {"type": "note_on", "time": 461, "note": 65, "velocity": 106, "channel": 0}, {"type": "note_off", "time": 49, "note": 65, "velocity": 106, "channel": 0}, {"type": "note_on", "time": 0, "note": 69, "velocity": 117, "channel": 0}, {"type": "note_off", "time": 41, "note": 69, "velocity": 117, "channel": 0}, {"type": "note_on", "time": 2, "note": 70, "velocity": 114, "channel": 0}, {"type": "note_off", "time": 58, "note": 70, "velocity": 114, "channel": 0}, {"type": "note_on", "time": 1, "note": 69, "velocity": 110, "channel": 0}, {"type": "note_off", "time": 34, "note": 69, "velocity": 110, "channel": 0}, {"type": "note_on", "time": 0, "note": 68, "velocity": 113, "channel": 0}, {"type": "note_off", "time": 80, "note": 68, "velocity": 113, "channel": 0}, {"type": "note_on", "time": 7, "note": 67, "velocity": 93, "channel": 0}, {"type": "note_off", "time": 22, "note": 67, "velocity": 93, "channel": 0}, {"type": "note_on", "time": 0, "note": 65, "velocity": 111, "channel": 0}, {"type": "note_off", "time": 40, "note": 65, "velocity": 111, "channel": 0}, {"type": "note_on", "time": 23, "note": 62, "velocity": 102, "channel": 0}, {"type": "note_off", "time": 61, "note": 62, "velocity": 102, "channel": 0}, {"type": "note_on", "time": 125, "note": 65, "velocity": 97, "channel": 0}, {"type": "note_off", "time": 370, "note": 65, "velocity": 97, "channel": 0}, {"type": "note_on", "time": 1118, "note": 86, "velocity": 113, "channel": 0}, {"type": "note_off", "time": 28, "note": 86, "velocity": 113, "channel": 0}, {"type": "note_on", "time": 20, "note": 89, "velocity": 115, "channel": 0}, {"type": "note_off", "time": 681, "note": 89, "velocity": 115, "channel": 0}, {"type": "note_on", "time": 59, "note": 87, "velocity": 113, "channel": 0}, {"type": "note_off", "time": 41, "note": 87, "velocity": 113, "channel": 0}, {"type": "note_on", "time": 13, "note": 89, "velocity": 117, "channel": 0}, {"type": "note_off", "time": 48, "note": 89, "velocity": 117, "channel": 0}, {"type": "note_on", "time": 636, "note": 84, "velocity": 102, "channel": 0}, {"type": "note_off", "time": 134, "note": 84, "velocity": 102, "channel": 0}, {"type": "note_on", "time": 0, "note": 89, "velocity": 122, "channel": 0}, {"type": "note_off", "time": 114, "note": 89, "velocity": 122, "channel": 0}, {"type": "note_on", "time": 6, "note": 87, "velocity": 124, "channel": 0}, {"type": "note_off", "time": 87, "note": 87, "velocity": 124, "channel": 0}, {"type": "note_on", "time": 0, "note": 81, "velocity": 106, "channel": 0}, {"type": "note_off", "time": 74, "note": 81, "velocity": 106, "channel": 0}, {"type": "note_on", "time": 1, "note": 87, "velocity": 127, "channel": 0}, {"type": "note_off", "time": 77, "note": 87, "velocity": 127, "channel": 0}, {"type": "note_on", "time": 35, "note": 85, "velocity": 101, "channel": 0}, {"type": "note_off", "time": 119, "note": 85, "velocity": 101, "channel": 0}, {"type": "note_on", "time": 4, "note": 82, "velocity": 116, "channel": 0}, {"type": "note_off", "time": 38, "note": 82, "velocity": 116, "channel": 0}, {"type": "note_on", "time": 4, "note": 81, "velocity": 121, "channel": 0}, {"type": "note_off", "time": 32, "note": 81, "velocity": 121, "channel": 0}, {"type": "note_on", "time": 1, "note": 80, "velocity": 103, "channel": 0}, {"type": "note_off", "time": 61, "note": 80, "velocity": 103, "channel": 0}, {"type": "note_on", "time": 2, "note": 79, "velocity": 109, "channel": 0}, {"type": "note_off", "time": 38, "note": 79, "velocity": 109, "channel": 0}, {"type": "note_on", "time": 1, "note": 78, "velocity": 110, "channel": 0}, {"type": "note_off", "time": 35, "note": 78, "velocity": 110, "channel": 0}, {"type": "note_on", "time": 13, "note": 77, "velocity": 117, "channel": 0}, {"type": "note_off", "time": 38, "note": 77, "velocity": 117, "channel": 0}, {"type": "note_on", "time": 0, "note": 76, "velocity": 116, "channel": 0}, {"type": "note_off", "time": 41, "note": 76, "velocity": 116, "channel": 0}, {"type": "note_on", "time": 1, "note": 75, "velocity": 109, "channel": 0}, {"type": "note_off", "time": 46, "note": 75, "velocity": 109, "channel": 0}, {"type": "note_on", "time": 14, "note": 74, "velocity": 111, "channel": 0}, {"type": "note_off", "time": 43, "note": 74, "velocity": 111, "channel": 0}, {"type": "note_on", "time": 5, "note": 73, "velocity": 112, "channel": 0}, {"type": "note_off", "time": 37, "note": 73, "velocity": 112, "channel": 0}, {"type": "note_on", "time": 14, "note": 72, "velocity": 107, "channel": 0}, {"type": "note_off", "time": 26, "note": 72, "velocity": 107, "channel": 0}, {"type": "note_on", "time": 0, "note": 70, "velocity": 111, "channel": 0}, {"type": "note_off", "time": 41, "note": 70, "velocity": 111, "channel": 0}, {"type": "note_on", "time": 1, "note": 70, "velocity": 113, "channel": 0}, {"type": "note_off", "time": 53, "note": 70, "velocity": 113, "channel": 0}, {"type": "note_on", "time": 1, "note": 67, "velocity": 111, "channel": 0}, {"type": "note_off", "time": 40, "note": 67, "velocity": 111, "channel": 0}, {"type": "note_on", "time": 1, "note": 69, "velocity": 109, "channel": 0}, {"type": "note_off", "time": 39, "note": 69, "velocity": 109, "channel": 0}, {"type": "note_on", "time": 12, "note": 72, "velocity": 103, "channel": 0}, {"type": "note_off", "time": 37, "note": 72, "velocity": 103, "channel": 0}, {"type": "note_on", "time": 6, "note": 66, "velocity": 106, "channel": 0}, {"type": "note_off", "time": 52, "note": 66, "velocity": 106, "channel": 0}, {"type": "note_on", "time": 2, "note": 64, "velocity": 101, "channel": 0}, {"type": "note_off", "time": 34, "note": 64, "velocity": 101, "channel": 0}, {"type": "note_on", "time": 1, "note": 65, "velocity": 102, "channel": 0}, {"type": "note_off", "time": 37, "note": 65, "velocity": 102, "channel": 0}, {"type": "note_on", "time": 2, "note": 63, "velocity": 105, "channel": 0}, {"type": "note_off", "time": 44, "note": 63, "velocity": 105, "channel": 0}, {"type": "note_on", "time": 3, "note": 62, "velocity": 103, "channel": 0}, {"type": "note_off", "time": 38, "note": 62, "velocity": 103, "channel": 0}, {"type": "note_on", "time": 7, "note": 66, "velocity": 107, "channel": 0}, {"type": "note_off", "time": 46, "note": 66, "velocity": 107, "channel": 0}, {"type": "note_on", "time": 2, "note": 68, "velocity": 109, "channel": 0}, {"type": "note_off", "time": 32, "note": 68, "velocity": 109, "channel": 0}, {"type": "note_on", "time": 5, "note": 70, "velocity": 108, "channel": 0}, {"type": "note_off", "time": 44, "note": 70, "velocity": 108, "channel": 0}, {"type": "note_on", "time": 1, "note": 71, "velocity": 110, "channel": 0}, {"type": "note_off", "time": 45, "note": 71, "velocity": 110, "channel": 0}, {"type": "note_on", "time": 82, "note": 74, "velocity": 100, "channel": 0}, {"type": "note_off", "time": 42, "note": 74, "velocity": 100, "channel": 0}, {"type": "note_on", "time": 1, "note": 71, "velocity": 94, "channel": 0}, {"type": "note_off", "time": 14, "note": 71, "velocity": 94, "channel": 0}, {"type": "note_on", "time": 2, "note": 73, "velocity": 113, "channel": 0}, {"type": "note_off", "time": 52, "note": 73, "velocity": 113, "channel": 0}, {"type": "note_on", "time": 5, "note": 71, "velocity": 111, "channel": 0}, {"type": "note_off", "time": 44, "note": 71, "velocity": 111, "channel": 0}, {"type": "note_on", "time": 12, "note": 67, "velocity": 102, "channel": 0}, {"type": "note_off", "time": 40, "note": 67, "velocity": 102, "channel": 0}, {"type": "note_on", "time": 0, "note": 68, "velocity": 108, "channel": 0}, {"type": "note_off", "time": 84, "note": 68, "velocity": 108, "channel": 0}, {"type": "note_on", "time": 0, "note": 65, "velocity": 100, "channel": 0}, {"type": "note_off", "time": 41, "note": 65, "velocity": 100, "channel": 0}, {"type": "note_on", "time": 2, "note": 71, "velocity": 100, "channel": 0}, {"type": "note_off", "time": 35, "note": 71, "velocity": 100, "channel": 0}, {"type": "note_on", "time": 4, "note": 67, "velocity": 105, "channel": 0}, {"type": "note_off", "time": 49, "note": 67, "velocity": 105, "channel": 0}, {"type": "note_on", "time": 0, "note": 65, "velocity": 110, "channel": 0}, {"type": "note_off", "time": 76, "note": 65, "velocity": 110, "channel": 0}, {"type": "note_on", "time": 249, "note": 66, "velocity": 105, "channel": 0}, {"type": "note_off", "time": 44, "note": 66, "velocity": 105, "channel": 0}, {"type": "note_on", "time": 27, "note": 68, "velocity": 102, "channel": 0}, {"type": "note_off", "time": 91, "note": 68, "velocity": 102, "channel": 0}, {"type": "note_on", "time": 29, "note": 70, "velocity": 115, "channel": 0}, {"type": "note_off", "time": 37, "note": 70, "velocity": 115, "channel": 0}, {"type": "note_on", "time": 18, "note": 71, "velocity": 106, "channel": 0}, {"type": "note_off", "time": 75, "note": 71, "velocity": 106, "channel": 0}, {"type": "note_on", "time": 41, "note": 72, "velocity": 108, "channel": 0}, {"type": "note_off", "time": 82, "note": 72, "velocity": 108, "channel": 0}, {"type": "note_on", "time": 3, "note": 77, "velocity": 108, "channel": 0}, {"type": "note_off", "time": 85, "note": 77, "velocity": 108, "channel": 0}, {"type": "note_on", "time": 21, "note": 71, "velocity": 110, "channel": 0}, {"type": "note_off", "time": 54, "note": 71, "velocity": 110, "channel": 0}, {"type": "note_on", "time": 16, "note": 70, "velocity": 105, "channel": 0}, {"type": "note_off", "time": 105, "note": 70, "velocity": 105, "channel": 0}, {"type": "note_on", "time": 20, "note": 69, "velocity": 104, "channel": 0}, {"type": "note_off", "time": 131, "note": 69, "velocity": 104, "channel": 0}, {"type": "end_of_track", "time": 0}]]}