{"ticks_per_beat": 192, "tracks": [[{"type": "track_name", "name": "Melody", "time": 0}, {"type": "set_tempo", "tempo": 350877, "time": 0}, {"type": "key_signature", "key": "C", "time": 0}, {"type": "time_signature", "numerator": 4, "denominator": 4, "clocks_per_click": 24, "notated_32nd_notes_per_beat": 8, "time": 0}, {"type": "note_on", "time": 2219, "note": 75, "velocity": 118, "channel": 0}, {"type": "note_off", "time": 174, "note": 75, "velocity": 118, "channel": 0}, {"type": "note_on", "time": 82, "note": 74, "velocity": 114, "channel": 0}, {"type": "note_off", "time": 384, "note": 74, "velocity": 114, "channel": 0}, {"type": "note_on", "time": 16, "note": 75, "velocity": 119, "channel": 0}, {"type": "note_off", "time": 119, "note": 75, "velocity": 119, "channel": 0}, {"type": "note_on", "time": 21, "note": 72, "velocity": 97, "channel": 0}, {"type": "note_off", "time": 40, "note": 72, "velocity": 97, "channel": 0}, {"type": "note_on", "time": 2, "note": 74, "velocity": 110, "channel": 0}, {"type": "note_off", "time": 132, "note": 74, "velocity": 110, "channel": 0}, {"type": "note_on", "time": 10, "note": 72, "velocity": 111, "channel": 0}, {"type": "note_off", "time": 60, "note": 72, "velocity": 111, "channel": 0}, {"type": "note_on", "time": 7, "note": 70, "velocity": 88, "channel": 0}, {"type": "note_off", "time": 127, "note": 70, "velocity": 88, "channel": 0}, {"type": "note_on", "time": 6, "note": 69, "velocity": 107, "channel": 0}, {"type": "note_off", "time": 36, "note": 69, "velocity": 107, "channel": 0}, {"type": "note_on", "time": 8, "note": 67, "velocity": 94, "channel": 0}, {"type": "note_off", "time": 126, "note": 67, "velocity": 94, "channel": 0}, {"type": "note_on", "time": 10, "note": 65, "velocity": 110, "channel": 0}, {"type": "note_off", "time": 55, "note": 65, "velocity": 110, "channel": 0}, {"type": "note_on", "time": 22, "note": 64, "velocity": 111, "channel": 0}, {"type": "note_off", "time": 125, "note": 64, "velocity": 111, "channel": 0}, {"type": "note_on", "time": 75, "note": 65, "velocity": 109, "channel": 0}, {"type": "note_off", "time": 141, "note": 65, "velocity": 109, "channel": 0}, {"type": "note_on", "time": 11, "note": 65, "velocity": 107, "channel": 0}, {"type": "note_off", "time": 141, "note": 65, "velocity": 107, "channel": 0}, {"type": "note_on", "time": 15, "note": 68, "velocity": 105, "channel": 0}, {"type": "note_off", "time": 236, "note": 68, "velocity": 105, "channel": 0}, {"type": "note_on", "time": 10, "note": 72, "velocity": 122, "channel": 0}, {"type": "note_off", "time": 104, "note": 72, "velocity": 122, "channel": 0}, {"type": "note_on", "time": 94, "note": 70, "velocity": 104, "channel": 0}, {"type": "note_off", "time": 116, "note": 70, "velocity": 104, "channel": 0}, {"type": "note_on", "time": 9, "note": 68, "velocity": 88, "channel": 0}, {"type": "note_off", "time": 207, "note": 68, "velocity": 88, "channel": 0}, {"type": "note_on", "time": 610, "note": 71, "velocity": 113, "channel": 0}, {"type": "note_off", "time": 34, "note": 71, "velocity": 113, "channel": 0}, {"type": "note_on", "time": 16, "note": 74, "velocity": 108, "channel": 0}, {"type": "note_off", "time": 37, "note": 74, "velocity": 108, "channel": 0}, {"type": "note_on", "time": 11, "note": 77, "velocity": 111, "channel": 0}, {"type": "note_off", "time": 25, "note": 77, "velocity": 111, "channel": 0}, {"type": "note_on", "time": 4, "note": 80, "velocity": 119, "channel": 0}, {"type": "note_off", "time": 69, "note": 80, "velocity": 119, "channel": 0}, {"type": "note_on", "time": 19, "note": 77, "velocity": 106, "channel": 0}, {"type": "note_off", "time": 33, "note": 77, "velocity": 106, "channel": 0}, {"type": "note_on", "time": 18, "note": 75, "velocity": 116, "channel": 0}, {"type": "note_off", "time": 35, "note": 75, "velocity": 116, "channel": 0}, {"type": "note_on", "time": 3, "note": 74, "velocity": 115, "channel": 0}, {"type": "note_off", "time": 36, "note": 74, "velocity": 115, "channel": 0}, {"type": "note_on", "time": 6, "note": 77, "velocity": 108, "channel": 0}, {"type": "note_off", "time": 27, "note": 77, "velocity": 108, "channel": 0}, {"type": "note_on", "time": 7, "note": 75, "velocity": 116, "channel": 0}, {"type": "note_off", "time": 44, "note": 75, "velocity": 116, "channel": 0}, {"type": "note_on", "time": 4, "note": 74, "velocity": 112, "channel": 0}, {"type": "note_off", "time": 43, "note": 74, "velocity": 112, "channel": 0}, {"type": "note_on", "time": 6, "note": 72, "velocity": 113, "channel": 0}, {"type": "note_off", "time": 43, "note": 72, "velocity": 113, "channel": 0}, {"type": "note_on", "time": 4, "note": 71, "velocity": 107, "channel": 0}, {"type": "note_off", "time": 27, "note": 71, "velocity": 107, "channel": 0}, {"type": "note_on", "time": 14, "note": 67, "velocity": 90, "channel": 0}, {"type": "note_off", "time": 41, "note": 67, "velocity": 90, "channel": 0}, {"type": "note_on", "time": 12, "note": 66, "velocity": 106, "channel": 0}, {"type": "note_off", "time": 38, "note": 66, "velocity": 106, "channel": 0}, {"type": "note_on", "time": 3, "note": 68, "velocity": 110, "channel": 0}, {"type": "note_off", "time": 37, "note": 68, "velocity": 110, "channel": 0}, {"type": "note_on", "time": 4, "note": 67, "velocity": 102, "channel": 0}, {"type": "note_off", "time": 35, "note": 67, "velocity": 102, "channel": 0}, {"type": "note_on", "time": 24, "note": 65, "velocity": 112, "channel": 0}, {"type": "note_off", "time": 47, "note": 65, "velocity": 112, "channel": 0}, {"type": "note_on", "time": 7, "note": 63, "velocity": 108, "channel": 0}, {"type": "note_off", "time": 64, "note": 63, "velocity": 108, "channel": 0}, {"type": "note_on", "time": 7, "note": 65, "velocity": 126, "channel": 0}, {"type": "note_off", "time": 76, "note": 65, "velocity": 126, "channel": 0}, {"type": "note_on", "time": 4, "note": 63, "velocity": 99, "channel": 0}, {"type": "note_off", "time": 31, "note": 63, "velocity": 99, "channel": 0}, {"type": "note_on", "time": 5, "note": 64, "velocity": 106, "channel": 0}, {"type": "note_off", "time": 50, "note": 64, "velocity": 106, "channel": 0}, {"type": "note_on", "time": 11, "note": 68, "velocity": 113, "channel": 0}, {"type": "note_off", "time": 33, "note": 68, "velocity": 113, "channel": 0}, {"type": "note_on", "time": 5, "note": 71, "velocity": 112, "channel": 0}, {"type": "note_off", "time": 20, "note": 71, "velocity": 112, "channel": 0}, {"type": "note_on", "time": 7, "note": 74, "velocity": 121, "channel": 0}, {"type": "note_off", "time": 81, "note": 74, "velocity": 121, "channel": 0}, {"type": "note_on", "time": 41, "note": 72, "velocity": 118, "channel": 0}, {"type": "note_off", "time": 44, "note": 72, "velocity": 118, "channel": 0}, {"type": "note_on", "time": 8, "note": 69, "velocity": 104, "channel": 0}, {"type": "note_off", "time": 44, "note": 69, "velocity": 104, "channel": 0}, {"type": "note_on", "time": 1080, "note": 79, "velocity": 121, "channel": 0}, {"type": "note_off", "time": 119, "note": 79, "velocity": 121, "channel": 0}, {"type": "note_on", "time": 13, "note": 81, "velocity": 111, "channel": 0}, {"type": "note_off", "time": 38, "note": 81, "velocity": 111, "channel": 0}, {"type": "note_on", "time": 14, "note": 84, "velocity": 118, "channel": 0}, {"type": "note_off", "time": 129, "note": 84, "velocity": 118, "channel": 0}, {"type": "note_on", "time": 8, "note": 88, "velocity": 110, "channel": 0}, {"type": "note_off", "time": 375, "note": 88, "velocity": 110, "channel": 0}, {"type": "note_on", "time": 29, "note": 86, "velocity": 127, "channel": 0}, {"type": "note_off", "time": 60, "note": 86, "velocity": 127, "channel": 0}, {"type": "note_on", "time": 25, "note": 84, "velocity": 116, "channel": 0}, {"type": "note_off", "time": 110, "note": 84, "velocity": 116, "channel": 0}, {"type": "note_on", "time": 13, "note": 83, "velocity": 123, "channel": 0}, {"type": "note_off", "time": 83, "note": 83, "velocity": 123, "channel": 0}, {"type": "note_on", "time": 13, "note": 82, "velocity": 112, "channel": 0}, {"type": "note_off", "time": 96, "note": 82, "velocity": 112, "channel": 0}, {"type": "note_on", "time": 15, "note": 81, "velocity": 117, "channel": 0}, {"type": "note_off", "time": 72, "note": 81, "velocity": 117, "channel": 0}, {"type": "note_on", "time": 11, "note": 80, "velocity": 115, "channel": 0}, {"type": "note_off", "time": 95, "note": 80, "velocity": 115, "channel": 0}, {"type": "note_on", "time": 8, "note": 79, "velocity": 116, "channel": 0}, {"type": "note_off", "time": 70, "note": 79, "velocity": 116, "channel": 0}, {"type": "note_on", "time": 3, "note": 77, "velocity": 121, "channel": 0}, {"type": "note_off", "time": 83, "note": 77, "velocity": 121, "channel": 0}, {"type": "note_on", "time": 19, "note": 75, "velocity": 120, "channel": 0}, {"type": "note_off", "time": 51, "note": 75, "velocity": 120, "channel": 0}, {"type": "note_on", "time": 27, "note": 77, "velocity": 109, "channel": 0}, {"type": "note_off", "time": 71, "note": 77, "velocity": 109, "channel": 0}, {"type": "note_on", "time": 39, "note": 85, "velocity": 124, "channel": 0}, {"type": "note_off", "time": 83, "note": 85, "velocity": 124, "channel": 0}, {"type": "note_on", "time": 9, "note": 84, "velocity": 121, "channel": 0}, {"type": "note_off", "time": 81, "note": 84, "velocity": 121, "channel": 0}, {"type": "note_on", "time": 37, "note": 77, "velocity": 79, "channel": 0}, {"type": "note_off", "time": 31, "note": 77, "velocity": 79, "channel": 0}, {"type": "note_on", "time": 13, "note": 82, "velocity": 122, "channel": 0}, {"type": "note_off", "time": 105, "note": 82, "velocity": 122, "channel": 0}, {"type": "note_on", "time": 10, "note": 81, "velocity": 116, "channel": 0}, {"type": "note_off", "time": 70, "note": 81, "velocity": 116, "channel": 0}, {"type": "note_on", "time": 11, "note": 80, "velocity": 122, "channel": 0}, {"type": "note_off", "time": 93, "note": 80, "velocity": 122, "channel": 0}, {"type": "note_on", "time": 10, "note": 77, "velocity": 117, "channel": 0}, {"type": "note_off", "time": 61, "note": 77, "velocity": 117, "channel": 0}, {"type": "note_on", "time": 11, "note": 76, "velocity": 108, "channel": 0}, {"type": "note_off", "time": 168, "note": 76, "velocity": 108, "channel": 0}, {"type": "note_on", "time": 24, "note": 79, "velocity": 119, "channel": 0}, {"type": "note_off", "time": 96, "note": 79, "velocity": 119, "channel": 0}, {"type": "note_on", "time": 34, "note": 76, "velocity": 111, "channel": 0}, {"type": "note_off", "time": 45, "note": 76, "velocity": 111, "channel": 0}, {"type": "note_on", "time": 15, "note": 77, "velocity": 108, "channel": 0}, {"type": "note_off", "time": 99, "note": 77, "velocity": 108, "channel": 0}, {"type": "note_on", "time": 12, "note": 74, "velocity": 120, "channel": 0}, {"type": "note_off", "time": 78, "note": 74, "velocity": 120, "channel": 0}, {"type": "note_on", "time": 2, "note": 76, "velocity": 119, "channel": 0}, {"type": "note_off", "time": 34, "note": 76, "velocity": 119, "channel": 0}, {"type": "note_on", "time": 3, "note": 77, "velocity": 102, "channel": 0}, {"type": "note_off", "time": 31, "note": 77, "velocity": 102, "channel": 0}, {"type": "note_on", "time": 9, "note": 75, "velocity": 111, "channel": 0}, {"type": "note_off", "time": 39, "note": 75, "velocity": 111, "channel": 0}, {"type": "note_on", "time": 6, "note": 73, "velocity": 119, "channel": 0}, {"type": "note_off", "time": 48, "note": 73, "velocity": 119, "channel": 0}, {"type": "note_on", "time": 7, "note": 74, "velocity": 118, "channel": 0}, {"type": "note_off", "time": 113, "note": 74, "velocity": 118, "channel": 0}, {"type": "note_on", "time": 7, "note": 72, "velocity": 120, "channel": 0}, {"type": "note_off", "time": 46, "note": 72, "velocity": 120, "channel": 0}, {"type": "note_on", "time": 14, "note": 71, "velocity": 107, "channel": 0}, {"type": "note_off", "time": 101, "note": 71, "velocity": 107, "channel": 0}, {"type": "note_on", "time": 22, "note": 69, "velocity": 112, "channel": 0}, {"type": "note_off", "time": 55, "note": 69, "velocity": 112, "channel": 0}, {"type": "note_on", "time": 25, "note": 68, "velocity": 107, "channel": 0}, {"type": "note_off", "time": 72, "note": 68, "velocity": 107, "channel": 0}, {"type": "note_on", "time": 150, "note": 65, "velocity": 109, "channel": 0}, {"type": "note_off", "time": 96, "note": 65, "velocity": 109, "channel": 0}, {"type": "note_on", "time": 7, "note": 68, "velocity": 108, "channel": 0}, {"type": "note_off", "time": 58, "note": 68, "velocity": 108, "channel": 0}, {"type": "note_on", "time": 11, "note": 70, "velocity": 113, "channel": 0}, {"type": "note_off", "time": 85, "note": 70, "velocity": 113, "channel": 0}, {"type": "note_on", "time": 12, "note": 65, "velocity": 109, "channel": 0}, {"type": "note_off", "time": 78, "note": 65, "velocity": 109, "channel": 0}, {"type": "note_on", "time": 6, "note": 63, "velocity": 108, "channel": 0}, {"type": "note_off", "time": 102, "note": 63, "velocity": 108, "channel": 0}, {"type": "note_on", "time": 73, "note": 65, "velocity": 111, "channel": 0}, {"type": "note_off", "time": 117, "note": 65, "velocity": 111, "channel": 0}, {"type": "note_on", "time": 58, "note": 65, "velocity": 108, "channel": 0}, {"type": "note_off", "time": 139, "note": 65, "velocity": 108, "channel": 0}, {"type": "note_on", "time": 19, "note": 61, "velocity": 99, "channel": 0}, {"type": "note_off", "time": 163, "note": 61, "velocity": 99, "channel": 0}, {"type": "note_on", "time": 91, "note": 68, "velocity": 112, "channel": 0}, {"type": "note_off", "time": 125, "note": 68, "velocity": 112, "channel": 0}, {"type": "note_on", "time": 43, "note": 67, "velocity": 100, "channel": 0}, {"type": "note_off", "time": 147, "note": 67, "velocity": 100, "channel": 0}, {"type": "note_on", "time": 13, "note": 64, "velocity": 93, "channel": 0}, {"type": "note_off", "time": 210, "note": 64, "velocity": 93, "channel": 0}, {"type": "note_on", "time": 1207, "note": 88, "velocity": 125, "channel": 0}, {"type": "note_off", "time": 68, "note": 88, "velocity": 125, "channel": 0}, {"type": "note_on", "time": 17, "note": 86, "velocity": 113, "channel": 0}, {"type": "note_off", "time": 54, "note": 86, "velocity": 113, "channel": 0}, {"type": "note_on", "time": 49, "note": 83, "velocity": 119, "channel": 0}, {"type": "note_off", "time": 40, "note": 83, "velocity": 119, "channel": 0}, {"type": "note_on", "time": 9, "note": 86, "velocity": 122, "channel": 0}, {"type": "note_off", "time": 77, "note": 86, "velocity": 122, "channel": 0}, {"type": "note_on", "time": 22, "note": 82, "velocity": 112, "channel": 0}, {"type": "note_off", "time": 34, "note": 82, "velocity": 112, "channel": 0}, {"type": "note_on", "time": 5, "note": 81, "velocity": 117, "channel": 0}, {"type": "note_off", "time": 40, "note": 81, "velocity": 117, "channel": 0}, {"type": "note_on", "time": 14, "note": 79, "velocity": 111, "channel": 0}, {"type": "note_off", "time": 29, "note": 79, "velocity": 111, "channel": 0}, {"type": "note_on", "time": 6, "note": 79, "velocity": 114, "channel": 0}, {"type": "note_off", "time": 18, "note": 79, "velocity": 114, "channel": 0}, {"type": "note_on", "time": 1, "note": 77, "velocity": 114, "channel": 0}, {"type": "note_off", "time": 22, "note": 77, "velocity": 114, "channel": 0}, {"type": "note_on", "time": 8, "note": 76, "velocity": 116, "channel": 0}, {"type": "note_off", "time": 40, "note": 76, "velocity": 116, "channel": 0}, {"type": "note_on", "time": 3, "note": 75, "velocity": 120, "channel": 0}, {"type": "note_off", "time": 46, "note": 75, "velocity": 120, "channel": 0}, {"type": "note_on", "time": 15, "note": 71, "velocity": 90, "channel": 0}, {"type": "note_off", "time": 37, "note": 71, "velocity": 90, "channel": 0}, {"type": "note_on", "time": 8, "note": 74, "velocity": 115, "channel": 0}, {"type": "note_off", "time": 22, "note": 74, "velocity": 115, "channel": 0}, {"type": "note_on", "time": 8, "note": 74, "velocity": 123, "channel": 0}, {"type": "note_off", "time": 52, "note": 74, "velocity": 123, "channel": 0}, {"type": "note_on", "time": 10, "note": 72, "velocity": 111, "channel": 0}, {"type": "note_off", "time": 32, "note": 72, "velocity": 111, "channel": 0}, {"type": "note_on", "time": 13, "note": 70, "velocity": 117, "channel": 0}, {"type": "note_off", "time": 36, "note": 70, "velocity": 117, "channel": 0}, {"type": "note_on", "time": 5, "note": 69, "velocity": 110, "channel": 0}, {"type": "note_off", "time": 46, "note": 69, "velocity": 110, "channel": 0}, {"type": "note_on", "time": 7, "note": 66, "velocity": 98, "channel": 0}, {"type": "note_off", "time": 37, "note": 66, "velocity": 98, "channel": 0}, {"type": "note_on", "time": 5, "note": 65, "velocity": 110, "channel": 0}, {"type": "note_off", "time": 38, "note": 65, "velocity": 110, "channel": 0}, {"type": "note_on", "time": 4, "note": 63, "velocity": 103, "channel": 0}, {"type": "note_off", "time": 42, "note": 63, "velocity": 103, "channel": 0}, {"type": "note_on", "time": 4, "note": 64, "velocity": 99, "channel": 0}, {"type": "note_off", "time": 28, "note": 64, "velocity": 99, "channel": 0}, {"type": "note_on", "time": 6, "note": 65, "velocity": 108, "channel": 0}, {"type": "note_off", "time": 63, "note": 65, "velocity": 108, "channel": 0}, {"type": "note_on", "time": 7, "note": 67, "velocity": 105, "channel": 0}, {"type": "note_off", "time": 36, "note": 67, "velocity": 105, "channel": 0}, {"type": "note_on", "time": 2, "note": 69, "velocity": 90, "channel": 0}, {"type": "note_off", "time": 36, "note": 69, "velocity": 90, "channel": 0}, {"type": "note_on", "time": 7, "note": 70, "velocity": 115, "channel": 0}, {"type": "note_off", "time": 45, "note": 70, "velocity": 115, "channel": 0}, {"type": "note_on", "time": 6, "note": 72, "velocity": 117, "channel": 0}, {"type": "note_off", "time": 34, "note": 72, "velocity": 117, "channel": 0}, {"type": "note_on", "time": 4, "note": 73, "velocity": 114, "channel": 0}, {"type": "note_off", "time": 35, "note": 73, "velocity": 114, "channel": 0}, {"type": "note_on", "time": 9, "note": 74, "velocity": 118, "channel": 0}, {"type": "note_off", "time": 37, "note": 74, "velocity": 118, "channel": 0}, {"type": "note_on", "time": 4, "note": 75, "velocity": 121, "channel": 0}, {"type": "note_off", "time": 46, "note": 75, "velocity": 121, "channel": 0}, {"type": "note_on", "time": 5, "note": 76, "velocity": 114, "channel": 0}, {"type": "note_off", "time": 35, "note": 76, "velocity": 114, "channel": 0}, {"type": "note_on", "time": 2, "note": 77, "velocity": 117, "channel": 0}, {"type": "note_off", "time": 40, "note": 77, "velocity": 117, "channel": 0}, {"type": "note_on", "time": 7, "note": 74, "velocity": 114, "channel": 0}, {"type": "note_off", "time": 31, "note": 74, "velocity": 114, "channel": 0}, {"type": "note_on", "time": 6, "note": 75, "velocity": 116, "channel": 0}, {"type": "note_off", "time": 24, "note": 75, "velocity": 116, "channel": 0}, {"type": "note_on", "time": 8, "note": 77, "velocity": 106, "channel": 0}, {"type": "note_off", "time": 22, "note": 77, "velocity": 106, "channel": 0}, {"type": "note_on", "time": 4, "note": 75, "velocity": 104, "channel": 0}, {"type": "note_off", "time": 30, "note": 75, "velocity": 104, "channel": 0}, {"type": "note_on", "time": 4, "note": 73, "velocity": 109, "channel": 0}, {"type": "note_off", "time": 22, "note": 73, "velocity": 109, "channel": 0}, {"type": "note_on", "time": 5, "note": 74, "velocity": 113, "channel": 0}, {"type": "note_off", "time": 42, "note": 74, "velocity": 113, "channel": 0}, {"type": "note_on", "time": 18, "note": 70, "velocity": 99, "channel": 0}, {"type": "note_off", "time": 81, "note": 70, "velocity": 99, "channel": 0}, {"type": "note_on", "time": 11, "note": 70, "velocity": 114, "channel": 0}, {"type": "note_off", "time": 40, "note": 70, "velocity": 114, "channel": 0}, {"type": "note_on", "time": 1, "note": 69, "velocity": 108, "channel": 0}, {"type": "note_off", "time": 55, "note": 69, "velocity": 108, "channel": 0}, {"type": "note_on", "time": 21, "note": 65, "velocity": 108, "channel": 0}, {"type": "note_off", "time": 64, "note": 65, "velocity": 108, "channel": 0}, {"type": "note_on", "time": 23, "note": 63, "velocity": 103, "channel": 0}, {"type": "note_off", "time": 50, "note": 63, "velocity": 103, "channel": 0}, {"type": "note_on", "time": 11, "note": 65, "velocity": 103, "channel": 0}, {"type": "note_off", "time": 52, "note": 65, "velocity": 103, "channel": 0}, {"type": "note_on", "time": 79, "note": 70, "velocity": 112, "channel": 0}, {"type": "note_off", "time": 60, "note": 70, "velocity": 112, "channel": 0}, {"type": "note_on", "time": 6, "note": 72, "velocity": 107, "channel": 0}, {"type": "note_off", "time": 18, "note": 72, "velocity": 107, "channel": 0}, {"type": "note_on", "time": 7, "note": 73, "velocity": 112, "channel": 0}, {"type": "note_off", "time": 30, "note": 73, "velocity": 112, "channel": 0}, {"type": "note_on", "time": 7, "note": 74, "velocity": 109, "channel": 0}, {"type": "note_off", "time": 30, "note": 74, "velocity": 109, "channel": 0}, {"type": "note_on", "time": 7, "note": 75, "velocity": 117, "channel": 0}, {"type": "note_off", "time": 57, "note": 75, "velocity": 117, "channel": 0}, {"type": "note_on", "time": 6, "note": 76, "velocity": 108, "channel": 0}, {"type": "note_off", "time": 37, "note": 76, "velocity": 108, "channel": 0}, {"type": "note_on", "time": 7, "note": 77, "velocity": 116, "channel": 0}, {"type": "note_off", "time": 32, "note": 77, "velocity": 116, "channel": 0}, {"type": "note_on", "time": 8, "note": 74, "velocity": 113, "channel": 0}, {"type": "note_off", "time": 27, "note": 74, "velocity": 113, "channel": 0}, {"type": "note_on", "time": 3, "note": 75, "velocity": 116, "channel": 0}, {"type": "note_off", "time": 24, "note": 75, "velocity": 116, "channel": 0}, {"type": "note_on", "time": 9, "note": 77, "velocity": 106, "channel": 0}, {"type": "note_off", "time": 25, "note": 77, "velocity": 106, "channel": 0}, {"type": "note_on", "time": 6, "note": 75, "velocity": 116, "channel": 0}, {"type": "note_off", "time": 50, "note": 75, "velocity": 116, "channel": 0}, {"type": "note_on", "time": 8, "note": 74, "velocity": 115, "channel": 0}, {"type": "note_off", "time": 48, "note": 74, "velocity": 115, "channel": 0}, {"type": "note_on", "time": 16, "note": 70, "velocity": 94, "channel": 0}, {"type": "note_off", "time": 27, "note": 70, "velocity": 94, "channel": 0}, {"type": "note_on", "time": 22, "note": 72, "velocity": 113, "channel": 0}, {"type": "note_off", "time": 30, "note": 72, "velocity": 113, "channel": 0}, {"type": "note_on", "time": 2, "note": 70, "velocity": 114, "channel": 0}, {"type": "note_off", "time": 60, "note": 70, "velocity": 114, "channel": 0}, {"type": "note_on", "time": 8, "note": 67, "velocity": 116, "channel": 0}, {"type": "note_off", "time": 33, "note": 67, "velocity": 116, "channel": 0}, {"type": "note_on", "time": 43, "note": 70, "velocity": 111, "channel": 0}, {"type": "note_off", "time": 293, "note": 70, "velocity": 111, "channel": 0}, {"type": "note_on", "time": 12, "note": 66, "velocity": 103, "channel": 0}, {"type": "note_off", "time": 48, "note": 66, "velocity": 103, "channel": 0}, {"type": "note_on", "time": 6, "note": 68, "velocity": 95, "channel": 0}, {"type": "note_off", "time": 26, "note": 68, "velocity": 95, "channel": 0}, {"type": "note_on", "time": 6, "note": 70, "velocity": 97, "channel": 0}, {"type": "note_off", "time": 44, "note": 70, "velocity": 97, "channel": 0}, {"type": "note_on", "time": 5, "note": 68, "velocity": 105, "channel": 0}, {"type": "note_off", "time": 43, "note": 68, "velocity": 105, "channel": 0}, {"type": "note_on", "time": 9, "note": 65, "velocity": 107, "channel": 0}, {"type": "note_off", "time": 78, "note": 65, "velocity": 107, "channel": 0}, {"type": "note_on", "time": 3, "note": 66, "velocity": 101, "channel": 0}, {"type": "note_off", "time": 35, "note": 66, "velocity": 101, "channel": 0}, {"type": "note_on", "time": 20, "note": 70, "velocity": 91, "channel": 0}, {"type": "note_off", "time": 43, "note": 70, "velocity": 91, "channel": 0}, {"type": "note_on", "time": 93, "note": 77, "velocity": 120, "channel": 0}, {"type": "note_off", "time": 107, "note": 77, "velocity": 120, "channel": 0}, {"type": "note_on", "time": 3, "note": 80, "velocity": 116, "channel": 0}, {"type": "note_off", "time": 78, "note": 80, "velocity": 116, "channel": 0}, {"type": "note_on", "time": 8, "note": 78, "velocity": 110, "channel": 0}, {"type": "note_off", "time": 123, "note": 78, "velocity": 110, "channel": 0}, {"type": "note_on", "time": 71, "note": 78, "velocity": 110, "channel": 0}, {"type": "note_off", "time": 101, "note": 78, "velocity": 110, "channel": 0}, {"type": "note_on", "time": 7, "note": 79, "velocity": 111, "channel": 0}, {"type": "note_off", "time": 51, "note": 79, "velocity": 111, "channel": 0}, {"type": "note_on", "time": 9, "note": 76, "velocity": 111, "channel": 0}, {"type": "note_off", "time": 125, "note": 76, "velocity": 111, "channel": 0}, {"type": "note_on", "time": 80, "note": 76, "velocity": 104, "channel": 0}, {"type": "note_off", "time": 32, "note": 76, "velocity": 104, "channel": 0}, {"type": "note_on", "time": 3, "note": 77, "velocity": 105, "channel": 0}, {"type": "note_off", "time": 26, "note": 77, "velocity": 105, "channel": 0}, {"type": "note_on", "time": 5, "note": 76, "velocity": 106, "channel": 0}, {"type": "note_off", "time": 42, "note": 76, "velocity": 106, "channel": 0}, {"type": "note_on", "time": 6, "note": 74, "velocity": 118, "channel": 0}, {"type": "note_off", "time": 65, "note": 74, "velocity": 118, "channel": 0}, {"type": "note_on", "time": 6, "note": 73, "velocity": 112, "channel": 0}, {"type": "note_off", "time": 105, "note": 73, "velocity": 112, "channel": 0}, {"type": "note_on", "time": 1, "note": 76, "velocity": 114, "channel": 0}, {"type": "note_off", "time": 68, "note": 76, "velocity": 114, "channel": 0}, {"type": "note_on", "time": 5, "note": 74, "velocity": 112, "channel": 0}, {"type": "note_off", "time": 114, "note": 74, "velocity": 112, "channel": 0}, {"type": "note_on", "time": 67, "note": 72, "velocity": 101, "channel": 0}, {"type": "note_off", "time": 100, "note": 72, "velocity": 101, "channel": 0}, {"type": "note_on", "time": 12, "note": 74, "velocity": 104, "channel": 0}, {"type": "note_off", "time": 77, "note": 74, "velocity": 104, "channel": 0}, {"type": "note_on", "time": 12, "note": 71, "velocity": 91, "channel": 0}, {"type": "note_off", "time": 96, "note": 71, "velocity": 91, "channel": 0}, {"type": "note_on", "time": 9, "note": 67, "velocity": 100, "channel": 0}, {"type": "note_off", "time": 81, "note": 67, "velocity": 100, "channel": 0}, {"type": "note_on", "time": 584, "note": 84, "velocity": 118, "channel": 0}, {"type": "note_off", "time": 117, "note": 84, "velocity": 118, "channel": 0}, {"type": "note_on", "time": 66, "note": 84, "velocity": 121, "channel": 0}, {"type": "note_off", "time": 144, "note": 84, "velocity": 121, "channel": 0}, {"type": "note_on", "time": 3, "note": 84, "velocity": 119, "channel": 0}, {"type": "note_off", "time": 52, "note": 84, "velocity": 119, "channel": 0}, {"type": "note_on", "time": 10, "note": 82, "velocity": 114, "channel": 0}, {"type": "note_off", "time": 114, "note": 82, "velocity": 114, "channel": 0}, {"type": "note_on", "time": 396, "note": 84, "velocity": 112, "channel": 0}, {"type": "note_off", "time": 37, "note": 84, "velocity": 112, "channel": 0}, {"type": "note_on", "time": 6, "note": 84, "velocity": 118, "channel": 0}, {"type": "note_off", "time": 30, "note": 84, "velocity": 118, "channel": 0}, {"type": "note_on", "time": 8, "note": 82, "velocity": 109, "channel": 0}, {"type": "note_off", "time": 112, "note": 82, "velocity": 109, "channel": 0}, {"type": "note_on", "time": 9, "note": 84, "velocity": 112, "channel": 0}, {"type": "note_off", "time": 48, "note": 84, "velocity": 112, "channel": 0}, {"type": "note_on", "time": 11, "note": 82, "velocity": 112, "channel": 0}, {"type": "note_off", "time": 109, "note": 82, "velocity": 112, "channel": 0}, {"type": "note_on", "time": 23, "note": 84, "velocity": 108, "channel": 0}, {"type": "note_off", "time": 72, "note": 84, "velocity": 108, "channel": 0}, {"type": "note_on", "time": 11, "note": 80, "velocity": 112, "channel": 0}, {"type": "note_off", "time": 46, "note": 80, "velocity": 112, "channel": 0}, {"type": "note_on", "time": 5, "note": 78, "velocity": 114, "channel": 0}, {"type": "note_off", "time": 169, "note": 78, "velocity": 114, "channel": 0}, {"type": "note_on", "time": 64, "note": 84, "velocity": 117, "channel": 0}, {"type": "note_off", "time": 59, "note": 84, "velocity": 117, "channel": 0}, {"type": "note_on", "time": 10, "note": 82, "velocity": 119, "channel": 0}, {"type": "note_off", "time": 99, "note": 82, "velocity": 119, "channel": 0}, {"type": "note_on", "time": 37, "note": 77, "velocity": 69, "channel": 0}, {"type": "note_off", "time": 22, "note": 77, "velocity": 69, "channel": 0}, {"type": "note_on", "time": 29, "note": 80, "velocity": 110, "channel": 0}, {"type": "note_off", "time": 122, "note": 80, "velocity": 110, "channel": 0}, {"type": "note_on", "time": 57, "note": 78, "velocity": 108, "channel": 0}, {"type": "note_off", "time": 100, "note": 78, "velocity": 108, "channel": 0}, {"type": "note_on", "time": 26, "note": 80, "velocity": 102, "channel": 0}, {"type": "note_off", "time": 69, "note": 80, "velocity": 102, "channel": 0}, {"type": "note_on", "time": 8, "note": 79, "velocity": 113, "channel": 0}, {"type": "note_off", "time": 89, "note": 79, "velocity": 113, "channel": 0}, {"type": "note_on", "time": 20, "note": 77, "velocity": 115, "channel": 0}, {"type": "note_off", "time": 58, "note": 77, "velocity": 115, "channel": 0}, {"type": "note_on", "time": 5, "note": 75, "velocity": 117, "channel": 0}, {"type": "note_off", "time": 113, "note": 75, "velocity": 117, "channel": 0}, {"type": "note_on", "time": 14, "note": 73, "velocity": 97, "channel": 0}, {"type": "note_off", "time": 52, "note": 73, "velocity": 97, "channel": 0}, {"type": "note_on", "time": 7, "note": 74, "velocity": 113, "channel": 0}, {"type": "note_off", "time": 128, "note": 74, "velocity": 113, "channel": 0}, {"type": "note_on", "time": 5, "note": 72, "velocity": 104, "channel": 0}, {"type": "note_off", "time": 61, "note": 72, "velocity": 104, "channel": 0}, {"type": "note_on", "time": 9, "note": 71, "velocity": 105, "channel": 0}, {"type": "note_off", "time": 110, "note": 71, "velocity": 105, "channel": 0}, {"type": "note_on", "time": 11, "note": 69, "velocity": 107, "channel": 0}, {"type": "note_off", "time": 44, "note": 69, "velocity": 107, "channel": 0}, {"type": "note_on", "time": 15, "note": 68, "velocity": 107, "channel": 0}, {"type": "note_off", "time": 127, "note": 68, "velocity": 107, "channel": 0}, {"type": "note_on", "time": 15, "note": 65, "velocity": 84, "channel": 0}, {"type": "note_off", "time": 35, "note": 65, "velocity": 84, "channel": 0}, {"type": "note_on", "time": 158, "note": 69, "velocity": 108, "channel": 0}, {"type": "note_off", "time": 54, "note": 69, "velocity": 108, "channel": 0}, {"type": "note_on", "time": 10, "note": 70, "velocity": 99, "channel": 0}, {"type": "note_off", "time": 156, "note": 70, "velocity": 99, "channel": 0}, {"type": "note_on", "time": 16, "note": 69, "velocity": 99, "channel": 0}, {"type": "note_off", "time": 160, "note": 69, "velocity": 99, "channel": 0}, {"type": "note_on", "time": 78, "note": 69, "velocity": 100, "channel": 0}, {"type": "note_off", "time": 31, "note": 69, "velocity": 100, "channel": 0}, {"type": "note_on", "time": 3, "note": 67, "velocity": 105, "channel": 0}, {"type": "note_off", "time": 40, "note": 67, "velocity": 105, "channel": 0}, {"type": "note_on", "time": 15, "note": 65, "velocity": 111, "channel": 0}, {"type": "note_off", "time": 74, "note": 65, "velocity": 111, "channel": 0}, {"type": "note_on", "time": 8, "note": 64, "velocity": 101, "channel": 0}, {"type": "note_off", "time": 91, "note": 64, "velocity": 101, "channel": 0}, {"type": "note_on", "time": 6, "note": 63, "velocity": 108, "channel": 0}, {"type": "note_off", "time": 96, "note": 63, "velocity": 108, "channel": 0}, {"type": "note_on", "time": 8, "note": 61, "velocity": 99, "channel": 0}, {"type": "note_off", "time": 82, "note": 61, "velocity": 99, "channel": 0}, {"type": "note_on", "time": 17, "note": 68, "velocity": 105, "channel": 0}, {"type": "note_off", "time": 53, "note": 68, "velocity": 105, "channel": 0}, {"type": "note_on", "time": 11, "note": 70, "velocity": 111, "channel": 0}, {"type": "note_off", "time": 120, "note": 70, "velocity": 111, "channel": 0}, {"type": "note_on", "time": 9, "note": 68, "velocity": 90, "channel": 0}, {"type": "note_off", "time": 40, "note": 68, "velocity": 90, "channel": 0}, {"type": "note_on", "time": 4, "note": 71, "velocity": 111, "channel": 0}, {"type": "note_off", "time": 124, "note": 71, "velocity": 111, "channel": 0}, {"type": "note_on", "time": 11, "note": 67, "velocity": 107, "channel": 0}, {"type": "note_off", "time": 57, "note": 67, "velocity": 107, "channel": 0}, {"type": "note_on", "time": 17, "note": 64, "velocity": 99, "channel": 0}, {"type": "note_off", "time": 113, "note": 64, "velocity": 99, "channel": 0}, {"type": "note_on", "time": 61, "note": 69, "velocity": 91, "channel": 0}, {"type": "note_off", "time": 187, "note": 69, "velocity": 91, "channel": 0}, {"type": "end_of_track", "time": 0}]]}