{"ticks_per_beat": 192, "tracks": [[{"type": "track_name", "name": "Melody", "time": 0}, {"type": "set_tempo", "tempo": 331491, "time": 0}, {"type": "key_signature", "key": "Db", "time": 0}, {"type": "time_signature", "numerator": 4, "denominator": 4, "clocks_per_click": 24, "notated_32nd_notes_per_beat": 8, "time": 0}, {"type": "note_on", "time": 2607, "note": 68, "velocity": 108, "channel": 0}, {"type": "note_off", "time": 67, "note": 68, "velocity": 108, "channel": 0}, {"type": "note_on", "time": 22, "note": 70, "velocity": 110, "channel": 0}, {"type": "note_off", "time": 44, "note": 70, "velocity": 110, "channel": 0}, {"type": "note_on", "time": 30, "note": 76, "velocity": 104, "channel": 0}, {"type": "note_off", "time": 105, "note": 76, "velocity": 104, "channel": 0}, {"type": "note_on", "time": 6, "note": 75, "velocity": 115, "channel": 0}, {"type": "note_off", "time": 55, "note": 75, "velocity": 115, "channel": 0}, {"type": "note_on", "time": 11, "note": 76, "velocity": 122, "channel": 0}, {"type": "note_off", "time": 105, "note": 76, "velocity": 122, "channel": 0}, {"type": "note_on", "time": 15, "note": 77, "velocity": 121, "channel": 0}, {"type": "note_off", "time": 50, "note": 77, "velocity": 121, "channel": 0}, {"type": "note_on", "time": 23, "note": 78, "velocity": 118, "channel": 0}, {"type": "note_off", "time": 100, "note": 78, "velocity": 118, "channel": 0}, {"type": "note_on", "time": 72, "note": 77, "velocity": 115, "channel": 0}, {"type": "note_off", "time": 141, "note": 77, "velocity": 115, "channel": 0}, {"type": "note_on", "time": 116, "note": 72, "velocity": 96, "channel": 0}, {"type": "note_off", "time": 65, "note": 72, "velocity": 96, "channel": 0}, {"type": "note_on", "time": 21, "note": 77, "velocity": 116, "channel": 0}, {"type": "note_off", "time": 68, "note": 77, "velocity": 116, "channel": 0}, {"type": "note_on", "time": 29, "note": 75, "velocity": 110, "channel": 0}, {"type": "note_off", "time": 121, "note": 75, "velocity": 110, "channel": 0}, {"type": "note_on", "time": 31, "note": 73, "velocity": 116, "channel": 0}, {"type": "note_off", "time": 127, "note": 73, "velocity": 116, "channel": 0}, {"type": "note_on", "time": 62, "note": 72, "velocity": 100, "channel": 0}, {"type": "note_off", "time": 95, "note": 72, "velocity": 100, "channel": 0}, {"type": "note_on", "time": 31, "note": 70, "velocity": 111, "channel": 0}, {"type": "note_off", "time": 60, "note": 70, "velocity": 111, "channel": 0}, {"type": "note_on", "time": 4, "note": 68, "velocity": 104, "channel": 0}, {"type": "note_off", "time": 39, "note": 68, "velocity": 104, "channel": 0}, {"type": "note_on", "time": 7, "note": 70, "velocity": 103, "channel": 0}, {"type": "note_off", "time": 23, "note": 70, "velocity": 103, "channel": 0}, {"type": "note_on", "time": 10, "note": 68, "velocity": 108, "channel": 0}, {"type": "note_off", "time": 30, "note": 68, "velocity": 108, "channel": 0}, {"type": "note_on", "time": 15, "note": 67, "velocity": 110, "channel": 0}, {"type": "note_off", "time": 50, "note": 67, "velocity": 110, "channel": 0}, {"type": "note_on", "time": 53, "note": 65, "velocity": 110, "channel": 0}, {"type": "note_off", "time": 70, "note": 65, "velocity": 110, "channel": 0}, {"type": "note_on", "time": 24, "note": 63, "velocity": 94, "channel": 0}, {"type": "note_off", "time": 33, "note": 63, "velocity": 94, "channel": 0}, {"type": "note_on", "time": 39, "note": 64, "velocity": 95, "channel": 0}, {"type": "note_off", "time": 48, "note": 64, "velocity": 95, "channel": 0}, {"type": "note_on", "time": 7, "note": 67, "velocity": 93, "channel": 0}, {"type": "note_off", "time": 34, "note": 67, "velocity": 93, "channel": 0}, {"type": "note_on", "time": 15, "note": 70, "velocity": 108, "channel": 0}, {"type": "note_off", "time": 61, "note": 70, "velocity": 108, "channel": 0}, {"type": "note_on", "time": 29, "note": 73, "velocity": 115, "channel": 0}, {"type": "note_off", "time": 112, "note": 73, "velocity": 115, "channel": 0}, {"type": "note_on", "time": 11, "note": 72, "velocity": 110, "channel": 0}, {"type": "note_off", "time": 44, "note": 72, "velocity": 110, "channel": 0}, {"type": "note_on", "time": 23, "note": 68, "velocity": 95, "channel": 0}, {"type": "note_off", "time": 24, "note": 68, "velocity": 95, "channel": 0}, {"type": "note_on", "time": 5, "note": 67, "velocity": 101, "channel": 0}, {"type": "note_off", "time": 69, "note": 67, "velocity": 101, "channel": 0}, {"type": "note_on", "time": 1, "note": 66, "velocity": 101, "channel": 0}, {"type": "note_off", "time": 70, "note": 66, "velocity": 101, "channel": 0}, {"type": "note_on", "time": 28, "note": 70, "velocity": 108, "channel": 0}, {"type": "note_off", "time": 95, "note": 70, "velocity": 108, "channel": 0}, {"type": "note_on", "time": 101, "note": 68, "velocity": 102, "channel": 0}, {"type": "note_off", "time": 86, "note": 68, "velocity": 102, "channel": 0}, {"type": "note_on", "time": 9, "note": 70, "velocity": 115, "channel": 0}, {"type": "note_off", "time": 33, "note": 70, "velocity": 115, "channel": 0}, {"type": "note_on", "time": 21, "note": 68, "velocity": 102, "channel": 0}, {"type": "note_off", "time": 48, "note": 68, "velocity": 102, "channel": 0}, {"type": "note_on", "time": 9, "note": 70, "velocity": 99, "channel": 0}, {"type": "note_off", "time": 27, "note": 70, "velocity": 99, "channel": 0}, {"type": "note_on", "time": 21, "note": 68, "velocity": 102, "channel": 0}, {"type": "note_off", "time": 65, "note": 68, "velocity": 102, "channel": 0}, {"type": "note_on", "time": 42, "note": 65, "velocity": 101, "channel": 0}, {"type": "note_off", "time": 75, "note": 65, "velocity": 101, "channel": 0}, {"type": "note_on", "time": 9, "note": 66, "velocity": 98, "channel": 0}, {"type": "note_off", "time": 68, "note": 66, "velocity": 98, "channel": 0}, {"type": "note_on", "time": 34, "note": 68, "velocity": 97, "channel": 0}, {"type": "note_off", "time": 167, "note": 68, "velocity": 97, "channel": 0}, {"type": "note_on", "time": 1002, "note": 77, "velocity": 120, "channel": 0}, {"type": "note_off", "time": 23, "note": 77, "velocity": 120, "channel": 0}, {"type": "note_on", "time": 10, "note": 76, "velocity": 122, "channel": 0}, {"type": "note_off", "time": 27, "note": 76, "velocity": 122, "channel": 0}, {"type": "note_on", "time": 18, "note": 80, "velocity": 121, "channel": 0}, {"type": "note_off", "time": 29, "note": 80, "velocity": 121, "channel": 0}, {"type": "note_on", "time": 18, "note": 84, "velocity": 120, "channel": 0}, {"type": "note_off", "time": 51, "note": 84, "velocity": 120, "channel": 0}, {"type": "note_on", "time": 6, "note": 83, "velocity": 111, "channel": 0}, {"type": "note_off", "time": 25, "note": 83, "velocity": 111, "channel": 0}, {"type": "note_on", "time": 5, "note": 82, "velocity": 108, "channel": 0}, {"type": "note_off", "time": 34, "note": 82, "velocity": 108, "channel": 0}, {"type": "note_on", "time": 13, "note": 81, "velocity": 119, "channel": 0}, {"type": "note_off", "time": 40, "note": 81, "velocity": 119, "channel": 0}, {"type": "note_on", "time": 12, "note": 80, "velocity": 117, "channel": 0}, {"type": "note_off", "time": 46, "note": 80, "velocity": 117, "channel": 0}, {"type": "note_on", "time": 13, "note": 77, "velocity": 116, "channel": 0}, {"type": "note_off", "time": 45, "note": 77, "velocity": 116, "channel": 0}, {"type": "note_on", "time": 7, "note": 78, "velocity": 120, "channel": 0}, {"type": "note_off", "time": 38, "note": 78, "velocity": 120, "channel": 0}, {"type": "note_on", "time": 11, "note": 79, "velocity": 110, "channel": 0}, {"type": "note_off", "time": 37, "note": 79, "velocity": 110, "channel": 0}, {"type": "note_on", "time": 6, "note": 78, "velocity": 105, "channel": 0}, {"type": "note_off", "time": 18, "note": 78, "velocity": 105, "channel": 0}, {"type": "note_on", "time": 4, "note": 77, "velocity": 109, "channel": 0}, {"type": "note_off", "time": 35, "note": 77, "velocity": 109, "channel": 0}, {"type": "note_on", "time": 12, "note": 75, "velocity": 108, "channel": 0}, {"type": "note_off", "time": 33, "note": 75, "velocity": 108, "channel": 0}, {"type": "note_on", "time": 18, "note": 73, "velocity": 106, "channel": 0}, {"type": "note_off", "time": 37, "note": 73, "velocity": 106, "channel": 0}, {"type": "note_on", "time": 11, "note": 77, "velocity": 115, "channel": 0}, {"type": "note_off", "time": 40, "note": 77, "velocity": 115, "channel": 0}, {"type": "note_on", "time": 11, "note": 73, "velocity": 108, "channel": 0}, {"type": "note_off", "time": 33, "note": 73, "velocity": 108, "channel": 0}, {"type": "note_on", "time": 3, "note": 74, "velocity": 108, "channel": 0}, {"type": "note_off", "time": 24, "note": 74, "velocity": 108, "channel": 0}, {"type": "note_on", "time": 10, "note": 77, "velocity": 115, "channel": 0}, {"type": "note_off", "time": 31, "note": 77, "velocity": 115, "channel": 0}, {"type": "note_on", "time": 1, "note": 76, "velocity": 107, "channel": 0}, {"type": "note_off", "time": 19, "note": 76, "velocity": 107, "channel": 0}, {"type": "note_on", "time": 8, "note": 74, "velocity": 110, "channel": 0}, {"type": "note_off", "time": 36, "note": 74, "velocity": 110, "channel": 0}, {"type": "note_on", "time": 8, "note": 73, "velocity": 102, "channel": 0}, {"type": "note_off", "time": 46, "note": 73, "velocity": 102, "channel": 0}, {"type": "note_on", "time": 7, "note": 72, "velocity": 104, "channel": 0}, {"type": "note_off", "time": 36, "note": 72, "velocity": 104, "channel": 0}, {"type": "note_on", "time": 9, "note": 70, "velocity": 105, "channel": 0}, {"type": "note_off", "time": 31, "note": 70, "velocity": 105, "channel": 0}, {"type": "note_on", "time": 7, "note": 68, "velocity": 99, "channel": 0}, {"type": "note_off", "time": 47, "note": 68, "velocity": 99, "channel": 0}, {"type": "note_on", "time": 27, "note": 69, "velocity": 92, "channel": 0}, {"type": "note_off", "time": 21, "note": 69, "velocity": 92, "channel": 0}, {"type": "note_on", "time": 0, "note": 70, "velocity": 106, "channel": 0}, {"type": "note_off", "time": 34, "note": 70, "velocity": 106, "channel": 0}, {"type": "note_on", "time": 7, "note": 68, "velocity": 106, "channel": 0}, {"type": "note_off", "time": 26, "note": 68, "velocity": 106, "channel": 0}, {"type": "note_on", "time": 5, "note": 67, "velocity": 98, "channel": 0}, {"type": "note_off", "time": 18, "note": 67, "velocity": 98, "channel": 0}, {"type": "note_on", "time": 4, "note": 68, "velocity": 100, "channel": 0}, {"type": "note_off", "time": 40, "note": 68, "velocity": 100, "channel": 0}, {"type": "note_on", "time": 15, "note": 65, "velocity": 102, "channel": 0}, {"type": "note_off", "time": 28, "note": 65, "velocity": 102, "channel": 0}, {"type": "note_on", "time": 5, "note": 64, "velocity": 93, "channel": 0}, {"type": "note_off", "time": 27, "note": 64, "velocity": 93, "channel": 0}, {"type": "note_on", "time": 0, "note": 63, "velocity": 90, "channel": 0}, {"type": "note_off", "time": 41, "note": 63, "velocity": 90, "channel": 0}, {"type": "note_on", "time": 6, "note": 65, "velocity": 110, "channel": 0}, {"type": "note_off", "time": 59, "note": 65, "velocity": 110, "channel": 0}, {"type": "note_on", "time": 22, "note": 62, "velocity": 112, "channel": 0}, {"type": "note_off", "time": 30, "note": 62, "velocity": 112, "channel": 0}, {"type": "note_on", "time": 6, "note": 63, "velocity": 99, "channel": 0}, {"type": "note_off", "time": 24, "note": 63, "velocity": 99, "channel": 0}, {"type": "note_on", "time": 8, "note": 65, "velocity": 104, "channel": 0}, {"type": "note_off", "time": 42, "note": 65, "velocity": 104, "channel": 0}, {"type": "note_on", "time": 4, "note": 67, "velocity": 102, "channel": 0}, {"type": "note_off", "time": 47, "note": 67, "velocity": 102, "channel": 0}, {"type": "note_on", "time": 9, "note": 68, "velocity": 106, "channel": 0}, {"type": "note_off", "time": 32, "note": 68, "velocity": 106, "channel": 0}, {"type": "note_on", "time": 11, "note": 70, "velocity": 105, "channel": 0}, {"type": "note_off", "time": 36, "note": 70, "velocity": 105, "channel": 0}, {"type": "note_on", "time": 16, "note": 68, "velocity": 112, "channel": 0}, {"type": "note_off", "time": 23, "note": 68, "velocity": 112, "channel": 0}, {"type": "note_on", "time": 5, "note": 67, "velocity": 104, "channel": 0}, {"type": "note_off", "time": 31, "note": 67, "velocity": 104, "channel": 0}, {"type": "note_on", "time": 10, "note": 69, "velocity": 107, "channel": 0}, {"type": "note_off", "time": 26, "note": 69, "velocity": 107, "channel": 0}, {"type": "note_on", "time": 7, "note": 70, "velocity": 107, "channel": 0}, {"type": "note_off", "time": 42, "note": 70, "velocity": 107, "channel": 0}, {"type": "note_on", "time": 10, "note": 74, "velocity": 93, "channel": 0}, {"type": "note_off", "time": 27, "note": 74, "velocity": 93, "channel": 0}, {"type": "note_on", "time": 8, "note": 77, "velocity": 118, "channel": 0}, {"type": "note_off", "time": 357, "note": 77, "velocity": 118, "channel": 0}, {"type": "note_on", "time": 5, "note": 72, "velocity": 111, "channel": 0}, {"type": "note_off", "time": 69, "note": 72, "velocity": 111, "channel": 0}, {"type": "note_on", "time": 5, "note": 73, "velocity": 109, "channel": 0}, {"type": "note_off", "time": 72, "note": 73, "velocity": 109, "channel": 0}, {"type": "note_on", "time": 17, "note": 74, "velocity": 121, "channel": 0}, {"type": "note_off", "time": 76, "note": 74, "velocity": 121, "channel": 0}, {"type": "note_on", "time": 47, "note": 77, "velocity": 107, "channel": 0}, {"type": "note_off", "time": 26, "note": 77, "velocity": 107, "channel": 0}, {"type": "note_on", "time": 2, "note": 78, "velocity": 104, "channel": 0}, {"type": "note_off", "time": 20, "note": 78, "velocity": 104, "channel": 0}, {"type": "note_on", "time": 3, "note": 77, "velocity": 105, "channel": 0}, {"type": "note_off", "time": 16, "note": 77, "velocity": 105, "channel": 0}, {"type": "note_on", "time": 10, "note": 73, "velocity": 118, "channel": 0}, {"type": "note_off", "time": 76, "note": 73, "velocity": 118, "channel": 0}, {"type": "note_on", "time": 26, "note": 72, "velocity": 106, "channel": 0}, {"type": "note_off", "time": 99, "note": 72, "velocity": 106, "channel": 0}, {"type": "note_on", "time": 9, "note": 70, "velocity": 109, "channel": 0}, {"type": "note_off", "time": 63, "note": 70, "velocity": 109, "channel": 0}, {"type": "note_on", "time": 18, "note": 68, "velocity": 110, "channel": 0}, {"type": "note_off", "time": 23, "note": 68, "velocity": 110, "channel": 0}, {"type": "note_on", "time": 6, "note": 69, "velocity": 93, "channel": 0}, {"type": "note_off", "time": 15, "note": 69, "velocity": 93, "channel": 0}, {"type": "note_on", "time": 8, "note": 68, "velocity": 92, "channel": 0}, {"type": "note_off", "time": 22, "note": 68, "velocity": 92, "channel": 0}, {"type": "note_on", "time": 10, "note": 67, "velocity": 101, "channel": 0}, {"type": "note_off", "time": 52, "note": 67, "velocity": 101, "channel": 0}, {"type": "note_on", "time": 47, "note": 66, "velocity": 101, "channel": 0}, {"type": "note_off", "time": 93, "note": 66, "velocity": 101, "channel": 0}, {"type": "note_on", "time": 15, "note": 70, "velocity": 107, "channel": 0}, {"type": "note_off", "time": 64, "note": 70, "velocity": 107, "channel": 0}, {"type": "note_on", "time": 28, "note": 65, "velocity": 98, "channel": 0}, {"type": "note_off", "time": 107, "note": 65, "velocity": 98, "channel": 0}, {"type": "note_on", "time": 36, "note": 62, "velocity": 102, "channel": 0}, {"type": "note_off", "time": 60, "note": 62, "velocity": 102, "channel": 0}, {"type": "note_on", "time": 6, "note": 63, "velocity": 93, "channel": 0}, {"type": "note_off", "time": 63, "note": 63, "velocity": 93, "channel": 0}, {"type": "note_on", "time": 9, "note": 65, "velocity": 87, "channel": 0}, {"type": "note_off", "time": 293, "note": 65, "velocity": 87, "channel": 0}, {"type": "note_on", "time": 906, "note": 80, "velocity": 122, "channel": 0}, {"type": "note_off", "time": 90, "note": 80, "velocity": 122, "channel": 0}, {"type": "note_on", "time": 21, "note": 82, "velocity": 112, "channel": 0}, {"type": "note_off", "time": 39, "note": 82, "velocity": 112, "channel": 0}, {"type": "note_on", "time": 24, "note": 84, "velocity": 115, "channel": 0}, {"type": "note_off", "time": 100, "note": 84, "velocity": 115, "channel": 0}, {"type": "note_on", "time": 59, "note": 87, "velocity": 119, "channel": 0}, {"type": "note_off", "time": 136, "note": 87, "velocity": 119, "channel": 0}, {"type": "note_on", "time": 25, "note": 84, "velocity": 113, "channel": 0}, {"type": "note_off", "time": 90, "note": 84, "velocity": 113, "channel": 0}, {"type": "note_on", "time": 80, "note": 87, "velocity": 120, "channel": 0}, {"type": "note_off", "time": 82, "note": 87, "velocity": 120, "channel": 0}, {"type": "note_on", "time": 5, "note": 86, "velocity": 118, "channel": 0}, {"type": "note_off", "time": 86, "note": 86, "velocity": 118, "channel": 0}, {"type": "note_on", "time": 30, "note": 83, "velocity": 116, "channel": 0}, {"type": "note_off", "time": 98, "note": 83, "velocity": 116, "channel": 0}, {"type": "note_on", "time": 68, "note": 85, "velocity": 119, "channel": 0}, {"type": "note_off", "time": 179, "note": 85, "velocity": 119, "channel": 0}, {"type": "note_on", "time": 5, "note": 86, "velocity": 101, "channel": 0}, {"type": "note_off", "time": 59, "note": 86, "velocity": 101, "channel": 0}, {"type": "note_on", "time": 47, "note": 83, "velocity": 110, "channel": 0}, {"type": "note_off", "time": 67, "note": 83, "velocity": 110, "channel": 0}, {"type": "note_on", "time": 13, "note": 85, "velocity": 123, "channel": 0}, {"type": "note_off", "time": 80, "note": 85, "velocity": 123, "channel": 0}, {"type": "note_on", "time": 10, "note": 84, "velocity": 112, "channel": 0}, {"type": "note_off", "time": 96, "note": 84, "velocity": 112, "channel": 0}, {"type": "note_on", "time": 4, "note": 83, "velocity": 121, "channel": 0}, {"type": "note_off", "time": 63, "note": 83, "velocity": 121, "channel": 0}, {"type": "note_on", "time": 21, "note": 81, "velocity": 112, "channel": 0}, {"type": "note_off", "time": 95, "note": 81, "velocity": 112, "channel": 0}, {"type": "note_on", "time": 13, "note": 79, "velocity": 113, "channel": 0}, {"type": "note_off", "time": 74, "note": 79, "velocity": 113, "channel": 0}, {"type": "note_on", "time": 6, "note": 78, "velocity": 111, "channel": 0}, {"type": "note_off", "time": 98, "note": 78, "velocity": 111, "channel": 0}, {"type": "note_on", "time": 111, "note": 72, "velocity": 95, "channel": 0}, {"type": "note_off", "time": 91, "note": 72, "velocity": 95, "channel": 0}, {"type": "note_on", "time": 12, "note": 78, "velocity": 112, "channel": 0}, {"type": "note_off", "time": 256, "note": 78, "velocity": 112, "channel": 0}, {"type": "note_on", "time": 19, "note": 78, "velocity": 118, "channel": 0}, {"type": "note_off", "time": 101, "note": 78, "velocity": 118, "channel": 0}, {"type": "note_on", "time": 21, "note": 78, "velocity": 102, "channel": 0}, {"type": "note_off", "time": 47, "note": 78, "velocity": 102, "channel": 0}, {"type": "note_on", "time": 26, "note": 77, "velocity": 115, "channel": 0}, {"type": "note_off", "time": 76, "note": 77, "velocity": 115, "channel": 0}, {"type": "note_on", "time": 40, "note": 68, "velocity": 95, "channel": 0}, {"type": "note_off", "time": 34, "note": 68, "velocity": 95, "channel": 0}, {"type": "note_on", "time": 44, "note": 72, "velocity": 90, "channel": 0}, {"type": "note_off", "time": 79, "note": 72, "velocity": 90, "channel": 0}, {"type": "note_on", "time": 9, "note": 75, "velocity": 113, "channel": 0}, {"type": "note_off", "time": 61, "note": 75, "velocity": 113, "channel": 0}, {"type": "note_on", "time": 19, "note": 74, "velocity": 108, "channel": 0}, {"type": "note_off", "time": 142, "note": 74, "velocity": 108, "channel": 0}, {"type": "note_on", "time": 21, "note": 73, "velocity": 107, "channel": 0}, {"type": "note_off", "time": 110, "note": 73, "velocity": 107, "channel": 0}, {"type": "note_on", "time": 26, "note": 80, "velocity": 116, "channel": 0}, {"type": "note_off", "time": 125, "note": 80, "velocity": 116, "channel": 0}, {"type": "note_on", "time": 714, "note": 84, "velocity": 114, "channel": 0}, {"type": "note_off", "time": 67, "note": 84, "velocity": 114, "channel": 0}, {"type": "note_on", "time": 12, "note": 83, "velocity": 112, "channel": 0}, {"type": "note_off", "time": 30, "note": 83, "velocity": 112, "channel": 0}, {"type": "note_on", "time": 5, "note": 82, "velocity": 94, "channel": 0}, {"type": "note_off", "time": 28, "note": 82, "velocity": 94, "channel": 0}, {"type": "note_on", "time": 28, "note": 81, "velocity": 114, "channel": 0}, {"type": "note_off", "time": 46, "note": 81, "velocity": 114, "channel": 0}, {"type": "note_on", "time": 9, "note": 80, "velocity": 120, "channel": 0}, {"type": "note_off", "time": 26, "note": 80, "velocity": 120, "channel": 0}, {"type": "note_on", "time": 10, "note": 79, "velocity": 110, "channel": 0}, {"type": "note_off", "time": 39, "note": 79, "velocity": 110, "channel": 0}, {"type": "note_on", "time": 17, "note": 77, "velocity": 115, "channel": 0}, {"type": "note_off", "time": 39, "note": 77, "velocity": 115, "channel": 0}, {"type": "note_on", "time": 12, "note": 76, "velocity": 108, "channel": 0}, {"type": "note_off", "time": 42, "note": 76, "velocity": 108, "channel": 0}, {"type": "note_on", "time": 24, "note": 69, "velocity": 88, "channel": 0}, {"type": "note_off", "time": 36, "note": 69, "velocity": 88, "channel": 0}, {"type": "note_on", "time": 4, "note": 70, "velocity": 103, "channel": 0}, {"type": "note_off", "time": 32, "note": 70, "velocity": 103, "channel": 0}, {"type": "note_on", "time": 3, "note": 74, "velocity": 117, "channel": 0}, {"type": "note_off", "time": 36, "note": 74, "velocity": 117, "channel": 0}, {"type": "note_on", "time": 2, "note": 73, "velocity": 102, "channel": 0}, {"type": "note_off", "time": 29, "note": 73, "velocity": 102, "channel": 0}, {"type": "note_on", "time": 6, "note": 69, "velocity": 96, "channel": 0}, {"type": "note_off", "time": 31, "note": 69, "velocity": 96, "channel": 0}, {"type": "note_on", "time": 25, "note": 72, "velocity": 110, "channel": 0}, {"type": "note_off", "time": 62, "note": 72, "velocity": 110, "channel": 0}, {"type": "note_on", "time": 12, "note": 69, "velocity": 99, "channel": 0}, {"type": "note_off", "time": 32, "note": 69, "velocity": 99, "channel": 0}, {"type": "note_on", "time": 17, "note": 70, "velocity": 101, "channel": 0}, {"type": "note_off", "time": 61, "note": 70, "velocity": 101, "channel": 0}, {"type": "note_on", "time": 42, "note": 70, "velocity": 107, "channel": 0}, {"type": "note_off", "time": 41, "note": 70, "velocity": 107, "channel": 0}, {"type": "note_on", "time": 17, "note": 69, "velocity": 110, "channel": 0}, {"type": "note_off", "time": 44, "note": 69, "velocity": 110, "channel": 0}, {"type": "note_on", "time": 9, "note": 68, "velocity": 106, "channel": 0}, {"type": "note_off", "time": 26, "note": 68, "velocity": 106, "channel": 0}, {"type": "note_on", "time": 3, "note": 67, "velocity": 103, "channel": 0}, {"type": "note_off", "time": 20, "note": 67, "velocity": 103, "channel": 0}, {"type": "note_on", "time": 11, "note": 66, "velocity": 103, "channel": 0}, {"type": "note_off", "time": 34, "note": 66, "velocity": 103, "channel": 0}, {"type": "note_on", "time": 3, "note": 65, "velocity": 111, "channel": 0}, {"type": "note_off", "time": 26, "note": 65, "velocity": 111, "channel": 0}, {"type": "note_on", "time": 9, "note": 64, "velocity": 100, "channel": 0}, {"type": "note_off", "time": 36, "note": 64, "velocity": 100, "channel": 0}, {"type": "note_on", "time": 18, "note": 66, "velocity": 94, "channel": 0}, {"type": "note_off", "time": 29, "note": 66, "velocity": 94, "channel": 0}, {"type": "note_on", "time": 8, "note": 70, "velocity": 104, "channel": 0}, {"type": "note_off", "time": 34, "note": 70, "velocity": 104, "channel": 0}, {"type": "note_on", "time": 14, "note": 73, "velocity": 112, "channel": 0}, {"type": "note_off", "time": 240, "note": 73, "velocity": 112, "channel": 0}, {"type": "note_on", "time": 15, "note": 72, "velocity": 114, "channel": 0}, {"type": "note_off", "time": 27, "note": 72, "velocity": 114, "channel": 0}, {"type": "note_on", "time": 3, "note": 73, "velocity": 112, "channel": 0}, {"type": "note_off", "time": 41, "note": 73, "velocity": 112, "channel": 0}, {"type": "note_on", "time": 7, "note": 72, "velocity": 115, "channel": 0}, {"type": "note_off", "time": 30, "note": 72, "velocity": 115, "channel": 0}, {"type": "note_on", "time": 13, "note": 68, "velocity": 107, "channel": 0}, {"type": "note_off", "time": 39, "note": 68, "velocity": 107, "channel": 0}, {"type": "note_on", "time": 36, "note": 70, "velocity": 109, "channel": 0}, {"type": "note_off", "time": 89, "note": 70, "velocity": 109, "channel": 0}, {"type": "note_on", "time": 26, "note": 65, "velocity": 89, "channel": 0}, {"type": "note_off", "time": 40, "note": 65, "velocity": 89, "channel": 0}, {"type": "note_on", "time": 17, "note": 68, "velocity": 106, "channel": 0}, {"type": "note_off", "time": 33, "note": 68, "velocity": 106, "channel": 0}, {"type": "note_on", "time": 4, "note": 70, "velocity": 108, "channel": 0}, {"type": "note_off", "time": 20, "note": 70, "velocity": 108, "channel": 0}, {"type": "note_on", "time": 10, "note": 68, "velocity": 110, "channel": 0}, {"type": "note_off", "time": 42, "note": 68, "velocity": 110, "channel": 0}, {"type": "note_on", "time": 19, "note": 65, "velocity": 112, "channel": 0}, {"type": "note_off", "time": 53, "note": 65, "velocity": 112, "channel": 0}, {"type": "note_on", "time": 26, "note": 60, "velocity": 94, "channel": 0}, {"type": "note_off", "time": 91, "note": 60, "velocity": 94, "channel": 0}, {"type": "note_on", "time": 31, "note": 56, "velocity": 105, "channel": 0}, {"type": "note_off", "time": 75, "note": 56, "velocity": 105, "channel": 0}, {"type": "note_on", "time": 15, "note": 63, "velocity": 107, "channel": 0}, {"type": "note_off", "time": 93, "note": 63, "velocity": 107, "channel": 0}, {"type": "note_on", "time": 13, "note": 60, "velocity": 88, "channel": 0}, {"type": "note_off", "time": 38, "note": 60, "velocity": 88, "channel": 0}, {"type": "note_on", "time": 5, "note": 61, "velocity": 93, "channel": 0}, {"type": "note_off", "time": 59, "note": 61, "velocity": 93, "channel": 0}, {"type": "note_on", "time": 2, "note": 64, "velocity": 89, "channel": 0}, {"type": "note_off", "time": 24, "note": 64, "velocity": 89, "channel": 0}, {"type": "note_on", "time": 5, "note": 65, "velocity": 101, "channel": 0}, {"type": "note_off", "time": 32, "note": 65, "velocity": 101, "channel": 0}, {"type": "note_on", "time": 14, "note": 68, "velocity": 110, "channel": 0}, {"type": "note_off", "time": 52, "note": 68, "velocity": 110, "channel": 0}, {"type": "note_on", "time": 21, "note": 70, "velocity": 111, "channel": 0}, {"type": "note_off", "time": 154, "note": 70, "velocity": 111, "channel": 0}, {"type": "note_on", "time": 53, "note": 70, "velocity": 105, "channel": 0}, {"type": "note_off", "time": 104, "note": 70, "velocity": 105, "channel": 0}, {"type": "note_on", "time": 4, "note": 71, "velocity": 108, "channel": 0}, {"type": "note_off", "time": 243, "note": 71, "velocity": 108, "channel": 0}, {"type": "note_on", "time": 35, "note": 68, "velocity": 110, "channel": 0}, {"type": "note_off", "time": 94, "note": 68, "velocity": 110, "channel": 0}, {"type": "note_on", "time": 18, "note": 65, "velocity": 89, "channel": 0}, {"type": "note_off", "time": 38, "note": 65, "velocity": 89, "channel": 0}, {"type": "note_on", "time": 12, "note": 70, "velocity": 96, "channel": 0}, {"type": "note_off", "time": 189, "note": 70, "velocity": 96, "channel": 0}, {"type": "note_on", "time": 712, "note": 69, "velocity": 114, "channel": 0}, {"type": "note_off", "time": 57, "note": 69, "velocity": 114, "channel": 0}, {"type": "note_on", "time": 8, "note": 70, "velocity": 107, "channel": 0}, {"type": "note_off", "time": 31, "note": 70, "velocity": 107, "channel": 0}, {"type": "note_on", "time": 22, "note": 73, "velocity": 97, "channel": 0}, {"type": "note_off", "time": 35, "note": 73, "velocity": 97, "channel": 0}, {"type": "note_on", "time": 17, "note": 77, "velocity": 111, "channel": 0}, {"type": "note_off", "time": 43, "note": 77, "velocity": 111, "channel": 0}, {"type": "note_on", "time": 34, "note": 84, "velocity": 119, "channel": 0}, {"type": "note_off", "time": 121, "note": 84, "velocity": 119, "channel": 0}, {"type": "note_on", "time": 11, "note": 83, "velocity": 106, "channel": 0}, {"type": "note_off", "time": 55, "note": 83, "velocity": 106, "channel": 0}, {"type": "note_on", "time": 11, "note": 81, "velocity": 117, "channel": 0}, {"type": "note_off", "time": 111, "note": 81, "velocity": 117, "channel": 0}, {"type": "note_on", "time": 15, "note": 77, "velocity": 110, "channel": 0}, {"type": "note_off", "time": 55, "note": 77, "velocity": 110, "channel": 0}, {"type": "note_on", "time": 13, "note": 73, "velocity": 113, "channel": 0}, {"type": "note_off", "time": 111, "note": 73, "velocity": 113, "channel": 0}, {"type": "note_on", "time": 12, "note": 71, "velocity": 90, "channel": 0}, {"type": "note_off", "time": 34, "note": 71, "velocity": 90, "channel": 0}, {"type": "note_on", "time": 29, "note": 80, "velocity": 122, "channel": 0}, {"type": "note_off", "time": 100, "note": 80, "velocity": 122, "channel": 0}, {"type": "note_on", "time": 9, "note": 82, "velocity": 113, "channel": 0}, {"type": "note_off", "time": 70, "note": 82, "velocity": 113, "channel": 0}, {"type": "note_on", "time": 20, "note": 79, "velocity": 113, "channel": 0}, {"type": "note_off", "time": 85, "note": 79, "velocity": 113, "channel": 0}, {"type": "note_on", "time": 9, "note": 77, "velocity": 113, "channel": 0}, {"type": "note_off", "time": 63, "note": 77, "velocity": 113, "channel": 0}, {"type": "note_on", "time": 10, "note": 75, "velocity": 110, "channel": 0}, {"type": "note_off", "time": 94, "note": 75, "velocity": 110, "channel": 0}, {"type": "note_on", "time": 10, "note": 74, "velocity": 114, "channel": 0}, {"type": "note_off", "time": 78, "note": 74, "velocity": 114, "channel": 0}, {"type": "note_on", "time": 6, "note": 73, "velocity": 107, "channel": 0}, {"type": "note_off", "time": 106, "note": 73, "velocity": 107, "channel": 0}, {"type": "note_on", "time": 100, "note": 72, "velocity": 97, "channel": 0}, {"type": "note_off", "time": 85, "note": 72, "velocity": 97, "channel": 0}, {"type": "note_on", "time": 16, "note": 72, "velocity": 104, "channel": 0}, {"type": "note_off", "time": 255, "note": 72, "velocity": 104, "channel": 0}, {"type": "note_on", "time": 46, "note": 70, "velocity": 108, "channel": 0}, {"type": "note_off", "time": 93, "note": 70, "velocity": 108, "channel": 0}, {"type": "note_on", "time": 13, "note": 65, "velocity": 90, "channel": 0}, {"type": "note_off", "time": 47, "note": 65, "velocity": 90, "channel": 0}, {"type": "note_on", "time": 17, "note": 68, "velocity": 104, "channel": 0}, {"type": "note_off", "time": 29, "note": 68, "velocity": 104, "channel": 0}, {"type": "note_on", "time": 15, "note": 70, "velocity": 102, "channel": 0}, {"type": "note_off", "time": 15, "note": 70, "velocity": 102, "channel": 0}, {"type": "note_on", "time": 15, "note": 68, "velocity": 103, "channel": 0}, {"type": "note_off", "time": 33, "note": 68, "velocity": 103, "channel": 0}, {"type": "note_on", "time": 12, "note": 65, "velocity": 102, "channel": 0}, {"type": "note_off", "time": 39, "note": 65, "velocity": 102, "channel": 0}, {"type": "note_on", "time": 142, "note": 73, "velocity": 99, "channel": 0}, {"type": "note_off", "time": 49, "note": 73, "velocity": 99, "channel": 0}, {"type": "note_on", "time": 14, "note": 77, "velocity": 115, "channel": 0}, {"type": "note_off", "time": 114, "note": 77, "velocity": 115, "channel": 0}, {"type": "note_on", "time": 22, "note": 80, "velocity": 120, "channel": 0}, {"type": "note_off", "time": 147, "note": 80, "velocity": 120, "channel": 0}, {"type": "note_on", "time": 492, "note": 80, "velocity": 118, "channel": 0}, {"type": "note_off", "time": 110, "note": 80, "velocity": 118, "channel": 0}, {"type": "note_on", "time": 76, "note": 80, "velocity": 117, "channel": 0}, {"type": "note_off", "time": 93, "note": 80, "velocity": 117, "channel": 0}, {"type": "note_on", "time": 94, "note": 85, "velocity": 122, "channel": 0}, {"type": "note_off", "time": 277, "note": 85, "velocity": 122, "channel": 0}, {"type": "note_on", "time": 34, "note": 82, "velocity": 110, "channel": 0}, {"type": "note_off", "time": 110, "note": 82, "velocity": 110, "channel": 0}, {"type": "note_on", "time": 76, "note": 78, "velocity": 111, "channel": 0}, {"type": "note_off", "time": 89, "note": 78, "velocity": 111, "channel": 0}, {"type": "note_on", "time": 17, "note": 75, "velocity": 107, "channel": 0}, {"type": "note_off", "time": 73, "note": 75, "velocity": 107, "channel": 0}, {"type": "note_on", "time": 102, "note": 80, "velocity": 118, "channel": 0}, {"type": "note_off", "time": 104, "note": 80, "velocity": 118, "channel": 0}, {"type": "note_on", "time": 7, "note": 79, "velocity": 112, "channel": 0}, {"type": "note_off", "time": 48, "note": 79, "velocity": 112, "channel": 0}, {"type": "note_on", "time": 23, "note": 78, "velocity": 113, "channel": 0}, {"type": "note_off", "time": 114, "note": 78, "velocity": 113, "channel": 0}, {"type": "note_on", "time": 20, "note": 73, "velocity": 81, "channel": 0}, {"type": "note_off", "time": 31, "note": 73, "velocity": 81, "channel": 0}, {"type": "note_on", "time": 18, "note": 77, "velocity": 114, "channel": 0}, {"type": "note_off", "time": 114, "note": 77, "velocity": 114, "channel": 0}, {"type": "note_on", "time": 93, "note": 72, "velocity": 93, "channel": 0}, {"type": "note_off", "time": 111, "note": 72, "velocity": 93, "channel": 0}, {"type": "note_on", "time": 9, "note": 73, "velocity": 92, "channel": 0}, {"type": "note_off", "time": 241, "note": 73, "velocity": 92, "channel": 0}, {"type": "note_on", "time": 581, "note": 80, "velocity": 120, "channel": 0}, {"type": "note_off", "time": 107, "note": 80, "velocity": 120, "channel": 0}, {"type": "note_on", "time": 63, "note": 85, "velocity": 122, "channel": 0}, {"type": "note_off", "time": 100, "note": 85, "velocity": 122, "channel": 0}, {"type": "note_on", "time": 59, "note": 89, "velocity": 113, "channel": 0}, {"type": "note_off", "time": 335, "note": 89, "velocity": 113, "channel": 0}, {"type": "note_on", "time": 24, "note": 83, "velocity": 90, "channel": 0}, {"type": "note_off", "time": 36, "note": 83, "velocity": 90, "channel": 0}, {"type": "note_on", "time": 34, "note": 87, "velocity": 105, "channel": 0}, {"type": "note_off", "time": 112, "note": 87, "velocity": 105, "channel": 0}, {"type": "note_on", "time": 24, "note": 85, "velocity": 116, "channel": 0}, {"type": "note_off", "time": 91, "note": 85, "velocity": 116, "channel": 0}, {"type": "note_on", "time": 161, "note": 84, "velocity": 107, "channel": 0}, {"type": "note_off", "time": 33, "note": 84, "velocity": 107, "channel": 0}, {"type": "note_on", "time": 5, "note": 85, "velocity": 117, "channel": 0}, {"type": "note_off", "time": 42, "note": 85, "velocity": 117, "channel": 0}, {"type": "note_on", "time": 4, "note": 84, "velocity": 111, "channel": 0}, {"type": "note_off", "time": 33, "note": 84, "velocity": 111, "channel": 0}, {"type": "note_on", "time": 3, "note": 83, "velocity": 117, "channel": 0}, {"type": "note_off", "time": 89, "note": 83, "velocity": 117, "channel": 0}, {"type": "note_on", "time": 2, "note": 82, "velocity": 110, "channel": 0}, {"type": "note_off", "time": 79, "note": 82, "velocity": 110, "channel": 0}, {"type": "note_on", "time": 19, "note": 81, "velocity": 119, "channel": 0}, {"type": "note_off", "time": 69, "note": 81, "velocity": 119, "channel": 0}, {"type": "note_on", "time": 4, "note": 80, "velocity": 118, "channel": 0}, {"type": "note_off", "time": 100, "note": 80, "velocity": 118, "channel": 0}, {"type": "note_on", "time": 5, "note": 79, "velocity": 108, "channel": 0}, {"type": "note_off", "time": 57, "note": 79, "velocity": 108, "channel": 0}, {"type": "note_on", "time": 17, "note": 78, "velocity": 113, "channel": 0}, {"type": "note_off", "time": 112, "note": 78, "velocity": 113, "channel": 0}, {"type": "note_on", "time": 15, "note": 77, "velocity": 113, "channel": 0}, {"type": "note_off", "time": 63, "note": 77, "velocity": 113, "channel": 0}, {"type": "note_on", "time": 19, "note": 76, "velocity": 99, "channel": 0}, {"type": "note_off", "time": 21, "note": 76, "velocity": 99, "channel": 0}, {"type": "note_on", "time": 4, "note": 77, "velocity": 112, "channel": 0}, {"type": "note_off", "time": 27, "note": 77, "velocity": 112, "channel": 0}, {"type": "note_on", "time": 5, "note": 76, "velocity": 103, "channel": 0}, {"type": "note_off", "time": 22, "note": 76, "velocity": 103, "channel": 0}, {"type": "note_on", "time": 3, "note": 74, "velocity": 112, "channel": 0}, {"type": "note_off", "time": 82, "note": 74, "velocity": 112, "channel": 0}, {"type": "note_on", "time": 23, "note": 72, "velocity": 111, "channel": 0}, {"type": "note_off", "time": 107, "note": 72, "velocity": 111, "channel": 0}, {"type": "note_on", "time": 3, "note": 71, "velocity": 105, "channel": 0}, {"type": "note_off", "time": 65, "note": 71, "velocity": 105, "channel": 0}, {"type": "note_on", "time": 11, "note": 69, "velocity": 107, "channel": 0}, {"type": "note_off", "time": 30, "note": 69, "velocity": 107, "channel": 0}, {"type": "note_on", "time": 1, "note": 70, "velocity": 109, "channel": 0}, {"type": "note_off", "time": 63, "note": 70, "velocity": 109, "channel": 0}, {"type": "note_on", "time": 30, "note": 62, "velocity": 90, "channel": 0}, {"type": "note_off", "time": 30, "note": 62, "velocity": 90, "channel": 0}, {"type": "note_on", "time": 46, "note": 65, "velocity": 95, "channel": 0}, {"type": "note_off", "time": 97, "note": 65, "velocity": 95, "channel": 0}, {"type": "note_on", "time": 8, "note": 69, "velocity": 115, "channel": 0}, {"type": "note_off", "time": 83, "note": 69, "velocity": 115, "channel": 0}, {"type": "note_on", "time": 6, "note": 68, "velocity": 102, "channel": 0}, {"type": "note_off", "time": 81, "note": 68, "velocity": 102, "channel": 0}, {"type": "note_on", "time": 23, "note": 67, "velocity": 111, "channel": 0}, {"type": "note_off", "time": 55, "note": 67, "velocity": 111, "channel": 0}, {"type": "note_on", "time": 10, "note": 65, "velocity": 104, "channel": 0}, {"type": "note_off", "time": 99, "note": 65, "velocity": 104, "channel": 0}, {"type": "note_on", "time": 116, "note": 64, "velocity": 93, "channel": 0}, {"type": "note_off", "time": 37, "note": 64, "velocity": 93, "channel": 0}, {"type": "note_on", "time": 10, "note": 67, "velocity": 95, "channel": 0}, {"type": "note_off", "time": 36, "note": 67, "velocity": 95, "channel": 0}, {"type": "note_on", "time": 6, "note": 70, "velocity": 110, "channel": 0}, {"type": "note_off", "time": 51, "note": 70, "velocity": 110, "channel": 0}, {"type": "note_on", "time": 21, "note": 73, "velocity": 113, "channel": 0}, {"type": "note_off", "time": 46, "note": 73, "velocity": 113, "channel": 0}, {"type": "note_on", "time": 10, "note": 72, "velocity": 106, "channel": 0}, {"type": "note_off", "time": 42, "note": 72, "velocity": 106, "channel": 0}, {"type": "note_on", "time": 17, "note": 70, "velocity": 108, "channel": 0}, {"type": "note_off", "time": 61, "note": 70, "velocity": 108, "channel": 0}, {"type": "note_on", "time": 15, "note": 68, "velocity": 107, "channel": 0}, {"type": "note_off", "time": 101, "note": 68, "velocity": 107, "channel": 0}, {"type": "note_on", "time": 9, "note": 70, "velocity": 111, "channel": 0}, {"type": "note_off", "time": 78, "note": 70, "velocity": 111, "channel": 0}, {"type": "note_on", "time": 54, "note": 65, "velocity": 82, "channel": 0}, {"type": "note_off", "time": 49, "note": 65, "velocity": 82, "channel": 0}, {"type": "note_on", "time": 7, "note": 66, "velocity": 90, "channel": 0}, {"type": "note_off", "time": 62, "note": 66, "velocity": 90, "channel": 0}, {"type": "note_on", "time": 21, "note": 68, "velocity": 99, "channel": 0}, {"type": "note_off", "time": 174, "note": 68, "velocity": 99, "channel": 0}, {"type": "note_on", "time": 956, "note": 73, "velocity": 115, "channel": 0}, {"type": "note_off", "time": 28, "note": 73, "velocity": 115, "channel": 0}, {"type": "note_on", "time": 3, "note": 74, "velocity": 112, "channel": 0}, {"type": "note_off", "time": 36, "note": 74, "velocity": 112, "channel": 0}, {"type": "note_on", "time": 5, "note": 73, "velocity": 110, "channel": 0}, {"type": "note_off", "time": 37, "note": 73, "velocity": 110, "channel": 0}, {"type": "note_on", "time": 6, "note": 74, "velocity": 110, "channel": 0}, {"type": "note_off", "time": 38, "note": 74, "velocity": 110, "channel": 0}, {"type": "note_on", "time": 15, "note": 77, "velocity": 108, "channel": 0}, {"type": "note_off", "time": 42, "note": 77, "velocity": 108, "channel": 0}, {"type": "note_on", "time": 19, "note": 73, "velocity": 103, "channel": 0}, {"type": "note_off", "time": 25, "note": 73, "velocity": 103, "channel": 0}, {"type": "note_on", "time": 19, "note": 77, "velocity": 106, "channel": 0}, {"type": "note_off", "time": 20, "note": 77, "velocity": 106, "channel": 0}, {"type": "note_on", "time": 15, "note": 77, "velocity": 116, "channel": 0}, {"type": "note_off", "time": 35, "note": 77, "velocity": 116, "channel": 0}, {"type": "note_on", "time": 21, "note": 73, "velocity": 112, "channel": 0}, {"type": "note_off", "time": 38, "note": 73, "velocity": 112, "channel": 0}, {"type": "note_on", "time": 1, "note": 74, "velocity": 109, "channel": 0}, {"type": "note_off", "time": 21, "note": 74, "velocity": 109, "channel": 0}, {"type": "note_on", "time": 3, "note": 73, "velocity": 106, "channel": 0}, {"type": "note_off", "time": 21, "note": 73, "velocity": 106, "channel": 0}, {"type": "note_on", "time": 10, "note": 71, "velocity": 102, "channel": 0}, {"type": "note_off", "time": 48, "note": 71, "velocity": 102, "channel": 0}, {"type": "note_on", "time": 2, "note": 72, "velocity": 102, "channel": 0}, {"type": "note_off", "time": 31, "note": 72, "velocity": 102, "channel": 0}, {"type": "note_on", "time": 5, "note": 75, "velocity": 105, "channel": 0}, {"type": "note_off", "time": 42, "note": 75, "velocity": 105, "channel": 0}, {"type": "note_on", "time": 17, "note": 71, "velocity": 109, "channel": 0}, {"type": "note_off", "time": 41, "note": 71, "velocity": 109, "channel": 0}, {"type": "note_on", "time": 5, "note": 72, "velocity": 107, "channel": 0}, {"type": "note_off", "time": 30, "note": 72, "velocity": 107, "channel": 0}, {"type": "note_on", "time": 5, "note": 75, "velocity": 110, "channel": 0}, {"type": "note_off", "time": 42, "note": 75, "velocity": 110, "channel": 0}, {"type": "note_on", "time": 15, "note": 72, "velocity": 99, "channel": 0}, {"type": "note_off", "time": 27, "note": 72, "velocity": 99, "channel": 0}, {"type": "note_on", "time": 14, "note": 70, "velocity": 98, "channel": 0}, {"type": "note_off", "time": 34, "note": 70, "velocity": 98, "channel": 0}, {"type": "note_on", "time": 6, "note": 69, "velocity": 103, "channel": 0}, {"type": "note_off", "time": 46, "note": 69, "velocity": 103, "channel": 0}, {"type": "note_on", "time": 8, "note": 70, "velocity": 95, "channel": 0}, {"type": "note_off", "time": 36, "note": 70, "velocity": 95, "channel": 0}, {"type": "note_on", "time": 4, "note": 74, "velocity": 108, "channel": 0}, {"type": "note_off", "time": 44, "note": 74, "velocity": 108, "channel": 0}, {"type": "note_on", "time": 23, "note": 69, "velocity": 98, "channel": 0}, {"type": "note_off", "time": 32, "note": 69, "velocity": 98, "channel": 0}, {"type": "note_on", "time": 4, "note": 70, "velocity": 102, "channel": 0}, {"type": "note_off", "time": 23, "note": 70, "velocity": 102, "channel": 0}, {"type": "note_on", "time": 10, "note": 74, "velocity": 104, "channel": 0}, {"type": "note_off", "time": 34, "note": 74, "velocity": 104, "channel": 0}, {"type": "note_on", "time": 5, "note": 70, "velocity": 99, "channel": 0}, {"type": "note_off", "time": 31, "note": 70, "velocity": 99, "channel": 0}, {"type": "note_on", "time": 5, "note": 69, "velocity": 100, "channel": 0}, {"type": "note_off", "time": 13, "note": 69, "velocity": 100, "channel": 0}, {"type": "note_on", "time": 15, "note": 68, "velocity": 101, "channel": 0}, {"type": "note_off", "time": 42, "note": 68, "velocity": 101, "channel": 0}, {"type": "note_on", "time": 6, "note": 67, "velocity": 100, "channel": 0}, {"type": "note_off", "time": 43, "note": 67, "velocity": 100, "channel": 0}, {"type": "note_on", "time": 28, "note": 72, "velocity": 102, "channel": 0}, {"type": "note_off", "time": 63, "note": 72, "velocity": 102, "channel": 0}, {"type": "note_on", "time": 9, "note": 68, "velocity": 99, "channel": 0}, {"type": "note_off", "time": 33, "note": 68, "velocity": 99, "channel": 0}, {"type": "note_on", "time": 4, "note": 69, "velocity": 94, "channel": 0}, {"type": "note_off", "time": 21, "note": 69, "velocity": 94, "channel": 0}, {"type": "note_on", "time": 7, "note": 72, "velocity": 106, "channel": 0}, {"type": "note_off", "time": 53, "note": 72, "velocity": 106, "channel": 0}, {"type": "note_on", "time": 33, "note": 68, "velocity": 99, "channel": 0}, {"type": "note_off", "time": 61, "note": 68, "velocity": 99, "channel": 0}, {"type": "note_on", "time": 15, "note": 70, "velocity": 105, "channel": 0}, {"type": "note_off", "time": 37, "note": 70, "velocity": 105, "channel": 0}, {"type": "note_on", "time": 20, "note": 72, "velocity": 109, "channel": 0}, {"type": "note_off", "time": 35, "note": 72, "velocity": 109, "channel": 0}, {"type": "note_on", "time": 5, "note": 73, "velocity": 110, "channel": 0}, {"type": "note_off", "time": 26, "note": 73, "velocity": 110, "channel": 0}, {"type": "note_on", "time": 5, "note": 74, "velocity": 111, "channel": 0}, {"type": "note_off", "time": 32, "note": 74, "velocity": 111, "channel": 0}, {"type": "note_on", "time": 12, "note": 75, "velocity": 111, "channel": 0}, {"type": "note_off", "time": 41, "note": 75, "velocity": 111, "channel": 0}, {"type": "note_on", "time": 8, "note": 76, "velocity": 117, "channel": 0}, {"type": "note_off", "time": 47, "note": 76, "velocity": 117, "channel": 0}, {"type": "note_on", "time": 10, "note": 77, "velocity": 113, "channel": 0}, {"type": "note_off", "time": 88, "note": 77, "velocity": 113, "channel": 0}, {"type": "note_on", "time": 12, "note": 73, "velocity": 112, "channel": 0}, {"type": "note_off", "time": 56, "note": 73, "velocity": 112, "channel": 0}, {"type": "note_on", "time": 31, "note": 72, "velocity": 101, "channel": 0}, {"type": "note_off", "time": 106, "note": 72, "velocity": 101, "channel": 0}, {"type": "note_on", "time": 70, "note": 75, "velocity": 107, "channel": 0}, {"type": "note_off", "time": 38, "note": 75, "velocity": 107, "channel": 0}, {"type": "note_on", "time": 5, "note": 77, "velocity": 105, "channel": 0}, {"type": "note_off", "time": 45, "note": 77, "velocity": 105, "channel": 0}, {"type": "note_on", "time": 10, "note": 75, "velocity": 83, "channel": 0}, {"type": "note_off", "time": 28, "note": 75, "velocity": 83, "channel": 0}, {"type": "note_on", "time": 8, "note": 73, "velocity": 107, "channel": 0}, {"type": "note_off", "time": 51, "note": 73, "velocity": 107, "channel": 0}, {"type": "note_on", "time": 37, "note": 70, "velocity": 107, "channel": 0}, {"type": "note_off", "time": 66, "note": 70, "velocity": 107, "channel": 0}, {"type": "note_on", "time": 99, "note": 72, "velocity": 110, "channel": 0}, {"type": "note_off", "time": 34, "note": 72, "velocity": 110, "channel": 0}, {"type": "note_on", "time": 5, "note": 73, "velocity": 110, "channel": 0}, {"type": "note_off", "time": 33, "note": 73, "velocity": 110, "channel": 0}, {"type": "note_on", "time": 6, "note": 72, "velocity": 109, "channel": 0}, {"type": "note_off", "time": 25, "note": 72, "velocity": 109, "channel": 0}, {"type": "note_on", "time": 12, "note": 71, "velocity": 107, "channel": 0}, {"type": "note_off", "time": 77, "note": 71, "velocity": 107, "channel": 0}, {"type": "note_on", "time": 10, "note": 70, "velocity": 107, "channel": 0}, {"type": "note_off", "time": 104, "note": 70, "velocity": 107, "channel": 0}, {"type": "note_on", "time": 5, "note": 69, "velocity": 110, "channel": 0}, {"type": "note_off", "time": 58, "note": 69, "velocity": 110, "channel": 0}, {"type": "note_on", "time": 17, "note": 68, "velocity": 101, "channel": 0}, {"type": "note_off", "time": 81, "note": 68, "velocity": 101, "channel": 0}, {"type": "note_on", "time": 17, "note": 67, "velocity": 9, "channel": 0}, {"type": "note_off", "time": 58, "note": 67, "velocity": 9, "channel": 0}, {"type": "note_on", "time": 40, "note": 66, "velocity": 94, "channel": 0}, {"type": "note_off", "time": 72, "note": 66, "velocity": 94, "channel": 0}, {"type": "note_on", "time": 35, "note": 70, "velocity": 116, "channel": 0}, {"type": "note_off", "time": 58, "note": 70, "velocity": 116, "channel": 0}, {"type": "note_on", "time": 20, "note": 65, "velocity": 106, "channel": 0}, {"type": "note_off", "time": 151, "note": 65, "velocity": 106, "channel": 0}, {"type": "note_on", "time": 15, "note": 63, "velocity": 102, "channel": 0}, {"type": "note_off", "time": 111, "note": 63, "velocity": 102, "channel": 0}, {"type": "note_on", "time": 11, "note": 68, "velocity": 95, "channel": 0}, {"type": "note_off", "time": 295, "note": 68, "velocity": 95, "channel": 0}, {"type": "note_on", "time": 573, "note": 80, "velocity": 122, "channel": 0}, {"type": "note_off", "time": 102, "note": 80, "velocity": 122, "channel": 0}, {"type": "note_on", "time": 81, "note": 82, "velocity": 114, "channel": 0}, {"type": "note_off", "time": 138, "note": 82, "velocity": 114, "channel": 0}, {"type": "note_on", "time": 74, "note": 84, "velocity": 119, "channel": 0}, {"type": "note_off", "time": 110, "note": 84, "velocity": 119, "channel": 0}, {"type": "note_on", "time": 31, "note": 85, "velocity": 123, "channel": 0}, {"type": "note_off", "time": 115, "note": 85, "velocity": 123, "channel": 0}, {"type": "note_on", "time": 53, "note": 87, "velocity": 111, "channel": 0}, {"type": "note_off", "time": 96, "note": 87, "velocity": 111, "channel": 0}, {"type": "note_on", "time": 67, "note": 84, "velocity": 113, "channel": 0}, {"type": "note_off", "time": 86, "note": 84, "velocity": 113, "channel": 0}, {"type": "note_on", "time": 65, "note": 78, "velocity": 97, "channel": 0}, {"type": "note_off", "time": 65, "note": 78, "velocity": 97, "channel": 0}, {"type": "note_on", "time": 41, "note": 86, "velocity": 121, "channel": 0}, {"type": "note_off", "time": 115, "note": 86, "velocity": 121, "channel": 0}, {"type": "note_on", "time": 15, "note": 83, "velocity": 120, "channel": 0}, {"type": "note_off", "time": 125, "note": 83, "velocity": 120, "channel": 0}, {"type": "note_on", "time": 422, "note": 85, "velocity": 124, "channel": 0}, {"type": "note_off", "time": 34, "note": 85, "velocity": 124, "channel": 0}, {"type": "note_on", "time": 8, "note": 86, "velocity": 123, "channel": 0}, {"type": "note_off", "time": 63, "note": 86, "velocity": 123, "channel": 0}, {"type": "note_on", "time": 7, "note": 85, "velocity": 127, "channel": 0}, {"type": "note_off", "time": 139, "note": 85, "velocity": 127, "channel": 0}, {"type": "note_on", "time": 30, "note": 83, "velocity": 118, "channel": 0}, {"type": "note_off", "time": 81, "note": 83, "velocity": 118, "channel": 0}, {"type": "note_on", "time": 15, "note": 85, "velocity": 123, "channel": 0}, {"type": "note_off", "time": 80, "note": 85, "velocity": 123, "channel": 0}, {"type": "note_on", "time": 4, "note": 84, "velocity": 113, "channel": 0}, {"type": "note_off", "time": 78, "note": 84, "velocity": 113, "channel": 0}, {"type": "note_on", "time": 29, "note": 82, "velocity": 116, "channel": 0}, {"type": "note_off", "time": 60, "note": 82, "velocity": 116, "channel": 0}, {"type": "note_on", "time": 15, "note": 80, "velocity": 123, "channel": 0}, {"type": "note_off", "time": 102, "note": 80, "velocity": 123, "channel": 0}, {"type": "note_on", "time": 7, "note": 79, "velocity": 115, "channel": 0}, {"type": "note_off", "time": 70, "note": 79, "velocity": 115, "channel": 0}, {"type": "note_on", "time": 7, "note": 78, "velocity": 118, "channel": 0}, {"type": "note_off", "time": 102, "note": 78, "velocity": 118, "channel": 0}, {"type": "note_on", "time": 79, "note": 73, "velocity": 109, "channel": 0}, {"type": "note_off", "time": 108, "note": 73, "velocity": 109, "channel": 0}, {"type": "note_on", "time": 28, "note": 77, "velocity": 115, "channel": 0}, {"type": "note_off", "time": 368, "note": 77, "velocity": 115, "channel": 0}, {"type": "note_on", "time": 5, "note": 78, "velocity": 115, "channel": 0}, {"type": "note_off", "time": 70, "note": 78, "velocity": 115, "channel": 0}, {"type": "note_on", "time": 12, "note": 77, "velocity": 115, "channel": 0}, {"type": "note_off", "time": 94, "note": 77, "velocity": 115, "channel": 0}, {"type": "note_on", "time": 35, "note": 68, "velocity": 84, "channel": 0}, {"type": "note_off", "time": 49, "note": 68, "velocity": 84, "channel": 0}, {"type": "note_on", "time": 25, "note": 72, "velocity": 91, "channel": 0}, {"type": "note_off", "time": 94, "note": 72, "velocity": 91, "channel": 0}, {"type": "note_on", "time": 7, "note": 75, "velocity": 114, "channel": 0}, {"type": "note_off", "time": 59, "note": 75, "velocity": 114, "channel": 0}, {"type": "note_on", "time": 18, "note": 74, "velocity": 109, "channel": 0}, {"type": "note_off", "time": 123, "note": 74, "velocity": 109, "channel": 0}, {"type": "note_on", "time": 20, "note": 72, "velocity": 86, "channel": 0}, {"type": "note_off", "time": 35, "note": 72, "velocity": 86, "channel": 0}, {"type": "note_on", "time": 7, "note": 73, "velocity": 119, "channel": 0}, {"type": "note_off", "time": 98, "note": 73, "velocity": 119, "channel": 0}, {"type": "note_on", "time": 42, "note": 80, "velocity": 119, "channel": 0}, {"type": "note_off", "time": 110, "note": 80, "velocity": 119, "channel": 0}, {"type": "note_on", "time": 522, "note": 67, "velocity": 104, "channel": 0}, {"type": "note_off", "time": 46, "note": 67, "velocity": 104, "channel": 0}, {"type": "note_on", "time": 34, "note": 74, "velocity": 112, "channel": 0}, {"type": "note_off", "time": 37, "note": 74, "velocity": 112, "channel": 0}, {"type": "note_on", "time": 30, "note": 79, "velocity": 115, "channel": 0}, {"type": "note_off", "time": 73, "note": 79, "velocity": 115, "channel": 0}, {"type": "note_on", "time": 47, "note": 78, "velocity": 114, "channel": 0}, {"type": "note_off", "time": 79, "note": 78, "velocity": 114, "channel": 0}, {"type": "note_on", "time": 42, "note": 74, "velocity": 113, "channel": 0}, {"type": "note_off", "time": 72, "note": 74, "velocity": 113, "channel": 0}, {"type": "note_on", "time": 15, "note": 77, "velocity": 112, "channel": 0}, {"type": "note_off", "time": 68, "note": 77, "velocity": 112, "channel": 0}, {"type": "note_on", "time": 88, "note": 80, "velocity": 89, "channel": 0}, {"type": "note_off", "time": 34, "note": 80, "velocity": 89, "channel": 0}, {"type": "note_on", "time": 1, "note": 83, "velocity": 111, "channel": 0}, {"type": "note_off", "time": 46, "note": 83, "velocity": 111, "channel": 0}, {"type": "note_on", "time": 11, "note": 85, "velocity": 123, "channel": 0}, {"type": "note_off", "time": 70, "note": 85, "velocity": 123, "channel": 0}, {"type": "note_on", "time": 26, "note": 84, "velocity": 114, "channel": 0}, {"type": "note_off", "time": 45, "note": 84, "velocity": 114, "channel": 0}, {"type": "note_on", "time": 5, "note": 82, "velocity": 110, "channel": 0}, {"type": "note_off", "time": 52, "note": 82, "velocity": 110, "channel": 0}, {"type": "note_on", "time": 8, "note": 80, "velocity": 122, "channel": 0}, {"type": "note_off", "time": 47, "note": 80, "velocity": 122, "channel": 0}, {"type": "note_on", "time": 8, "note": 79, "velocity": 108, "channel": 0}, {"type": "note_off", "time": 26, "note": 79, "velocity": 108, "channel": 0}, {"type": "note_on", "time": 3, "note": 80, "velocity": 114, "channel": 0}, {"type": "note_off", "time": 52, "note": 80, "velocity": 114, "channel": 0}, {"type": "note_on", "time": 15, "note": 82, "velocity": 114, "channel": 0}, {"type": "note_off", "time": 134, "note": 82, "velocity": 114, "channel": 0}, {"type": "note_on", "time": 29, "note": 77, "velocity": 117, "channel": 0}, {"type": "note_off", "time": 63, "note": 77, "velocity": 117, "channel": 0}, {"type": "note_on", "time": 5, "note": 80, "velocity": 109, "channel": 0}, {"type": "note_off", "time": 51, "note": 80, "velocity": 109, "channel": 0}, {"type": "note_on", "time": 5, "note": 82, "velocity": 100, "channel": 0}, {"type": "note_off", "time": 23, "note": 82, "velocity": 100, "channel": 0}, {"type": "note_on", "time": 10, "note": 80, "velocity": 100, "channel": 0}, {"type": "note_off", "time": 30, "note": 80, "velocity": 100, "channel": 0}, {"type": "note_on", "time": 2, "note": 77, "velocity": 117, "channel": 0}, {"type": "note_off", "time": 63, "note": 77, "velocity": 117, "channel": 0}, {"type": "note_on", "time": 22, "note": 78, "velocity": 119, "channel": 0}, {"type": "note_off", "time": 86, "note": 78, "velocity": 119, "channel": 0}, {"type": "note_on", "time": 13, "note": 76, "velocity": 112, "channel": 0}, {"type": "note_off", "time": 65, "note": 76, "velocity": 112, "channel": 0}, {"type": "note_on", "time": 7, "note": 77, "velocity": 116, "channel": 0}, {"type": "note_off", "time": 102, "note": 77, "velocity": 116, "channel": 0}, {"type": "note_on", "time": 25, "note": 68, "velocity": 81, "channel": 0}, {"type": "note_off", "time": 50, "note": 68, "velocity": 81, "channel": 0}, {"type": "note_on", "time": 3, "note": 72, "velocity": 91, "channel": 0}, {"type": "note_off", "time": 113, "note": 72, "velocity": 91, "channel": 0}, {"type": "note_on", "time": 7, "note": 75, "velocity": 118, "channel": 0}, {"type": "note_off", "time": 74, "note": 75, "velocity": 118, "channel": 0}, {"type": "note_on", "time": 17, "note": 74, "velocity": 115, "channel": 0}, {"type": "note_off", "time": 106, "note": 74, "velocity": 115, "channel": 0}, {"type": "note_on", "time": 11, "note": 72, "velocity": 113, "channel": 0}, {"type": "note_off", "time": 63, "note": 72, "velocity": 113, "channel": 0}, {"type": "note_on", "time": 1, "note": 73, "velocity": 113, "channel": 0}, {"type": "note_off", "time": 99, "note": 73, "velocity": 113, "channel": 0}, {"type": "note_on", "time": 9, "note": 71, "velocity": 84, "channel": 0}, {"type": "note_off", "time": 71, "note": 71, "velocity": 84, "channel": 0}, {"type": "note_on", "time": 7, "note": 72, "velocity": 109, "channel": 0}, {"type": "note_off", "time": 50, "note": 72, "velocity": 109, "channel": 0}, {"type": "note_on", "time": 7, "note": 74, "velocity": 107, "channel": 0}, {"type": "note_off", "time": 33, "note": 74, "velocity": 107, "channel": 0}, {"type": "note_on", "time": 0, "note": 72, "velocity": 113, "channel": 0}, {"type": "note_off", "time": 31, "note": 72, "velocity": 113, "channel": 0}, {"type": "note_on", "time": 9, "note": 71, "velocity": 115, "channel": 0}, {"type": "note_off", "time": 72, "note": 71, "velocity": 115, "channel": 0}, {"type": "note_on", "time": 4, "note": 70, "velocity": 111, "channel": 0}, {"type": "note_off", "time": 97, "note": 70, "velocity": 111, "channel": 0}, {"type": "note_on", "time": 11, "note": 69, "velocity": 116, "channel": 0}, {"type": "note_off", "time": 68, "note": 69, "velocity": 116, "channel": 0}, {"type": "note_on", "time": 16, "note": 68, "velocity": 117, "channel": 0}, {"type": "note_off", "time": 94, "note": 68, "velocity": 117, "channel": 0}, {"type": "note_on", "time": 29, "note": 63, "velocity": 91, "channel": 0}, {"type": "note_off", "time": 52, "note": 63, "velocity": 91, "channel": 0}, {"type": "note_on", "time": 22, "note": 65, "velocity": 105, "channel": 0}, {"type": "note_off", "time": 91, "note": 65, "velocity": 105, "channel": 0}, {"type": "note_on", "time": 16, "note": 68, "velocity": 117, "channel": 0}, {"type": "note_off", "time": 68, "note": 68, "velocity": 117, "channel": 0}, {"type": "note_on", "time": 57, "note": 65, "velocity": 93, "channel": 0}, {"type": "note_off", "time": 33, "note": 65, "velocity": 93, "channel": 0}, {"type": "note_on", "time": 12, "note": 68, "velocity": 101, "channel": 0}, {"type": "note_off", "time": 40, "note": 68, "velocity": 101, "channel": 0}, {"type": "note_on", "time": 6, "note": 72, "velocity": 114, "channel": 0}, {"type": "note_off", "time": 42, "note": 72, "velocity": 114, "channel": 0}, {"type": "note_on", "time": 31, "note": 76, "velocity": 116, "channel": 0}, {"type": "note_off", "time": 97, "note": 76, "velocity": 116, "channel": 0}, {"type": "note_on", "time": 10, "note": 74, "velocity": 116, "channel": 0}, {"type": "note_off", "time": 85, "note": 74, "velocity": 116, "channel": 0}, {"type": "note_on", "time": 8, "note": 75, "velocity": 114, "channel": 0}, {"type": "note_off", "time": 84, "note": 75, "velocity": 114, "channel": 0}, {"type": "note_on", "time": 17, "note": 72, "velocity": 116, "channel": 0}, {"type": "note_off", "time": 61, "note": 72, "velocity": 116, "channel": 0}, {"type": "note_on", "time": 23, "note": 68, "velocity": 108, "channel": 0}, {"type": "note_off", "time": 95, "note": 68, "velocity": 108, "channel": 0}, {"type": "note_on", "time": 8, "note": 65, "velocity": 95, "channel": 0}, {"type": "note_off", "time": 43, "note": 65, "velocity": 95, "channel": 0}, {"type": "note_on", "time": 26, "note": 73, "velocity": 109, "channel": 0}, {"type": "note_off", "time": 37, "note": 73, "velocity": 109, "channel": 0}, {"type": "note_on", "time": 3, "note": 74, "velocity": 109, "channel": 0}, {"type": "note_off", "time": 36, "note": 74, "velocity": 109, "channel": 0}, {"type": "note_on", "time": 5, "note": 73, "velocity": 105, "channel": 0}, {"type": "note_off", "time": 31, "note": 73, "velocity": 105, "channel": 0}, {"type": "note_on", "time": 4, "note": 71, "velocity": 104, "channel": 0}, {"type": "note_off", "time": 46, "note": 71, "velocity": 104, "channel": 0}, {"type": "note_on", "time": 48, "note": 68, "velocity": 101, "channel": 0}, {"type": "note_off", "time": 77, "note": 68, "velocity": 101, "channel": 0}, {"type": "note_on", "time": 34, "note": 65, "velocity": 91, "channel": 0}, {"type": "note_off", "time": 35, "note": 65, "velocity": 91, "channel": 0}, {"type": "note_on", "time": 30, "note": 70, "velocity": 107, "channel": 0}, {"type": "note_off", "time": 112, "note": 70, "velocity": 107, "channel": 0}, {"type": "note_on", "time": 8, "note": 68, "velocity": 105, "channel": 0}, {"type": "note_off", "time": 71, "note": 68, "velocity": 105, "channel": 0}, {"type": "note_on", "time": 5, "note": 67, "velocity": 94, "channel": 0}, {"type": "note_off", "time": 45, "note": 67, "velocity": 94, "channel": 0}, {"type": "note_on", "time": 3, "note": 68, "velocity": 77, "channel": 0}, {"type": "note_off", "time": 46, "note": 68, "velocity": 77, "channel": 0}, {"type": "note_on", "time": 8, "note": 72, "velocity": 114, "channel": 0}, {"type": "note_off", "time": 53, "note": 72, "velocity": 114, "channel": 0}, {"type": "note_on", "time": 33, "note": 77, "velocity": 119, "channel": 0}, {"type": "note_off", "time": 89, "note": 77, "velocity": 119, "channel": 0}, {"type": "note_on", "time": 12, "note": 76, "velocity": 91, "channel": 0}, {"type": "note_off", "time": 58, "note": 76, "velocity": 91, "channel": 0}, {"type": "note_on", "time": 59, "note": 75, "velocity": 81, "channel": 0}, {"type": "note_off", "time": 45, "note": 75, "velocity": 81, "channel": 0}, {"type": "note_on", "time": 17, "note": 80, "velocity": 97, "channel": 0}, {"type": "note_off", "time": 57, "note": 80, "velocity": 97, "channel": 0}, {"type": "note_on", "time": 36, "note": 84, "velocity": 119, "channel": 0}, {"type": "note_off", "time": 119, "note": 84, "velocity": 119, "channel": 0}, {"type": "note_on", "time": 15, "note": 81, "velocity": 105, "channel": 0}, {"type": "note_off", "time": 165, "note": 81, "velocity": 105, "channel": 0}, {"type": "note_on", "time": 1053, "note": 83, "velocity": 90, "channel": 0}, {"type": "note_off", "time": 72, "note": 83, "velocity": 90, "channel": 0}, {"type": "note_on", "time": 6, "note": 90, "velocity": 120, "channel": 0}, {"type": "note_off", "time": 458, "note": 90, "velocity": 120, "channel": 0}, {"type": "note_on", "time": 14, "note": 85, "velocity": 119, "channel": 0}, {"type": "note_off", "time": 72, "note": 85, "velocity": 119, "channel": 0}, {"type": "note_on", "time": 40, "note": 82, "velocity": 109, "channel": 0}, {"type": "note_off", "time": 52, "note": 82, "velocity": 109, "channel": 0}, {"type": "note_on", "time": 26, "note": 80, "velocity": 115, "channel": 0}, {"type": "note_off", "time": 95, "note": 80, "velocity": 115, "channel": 0}, {"type": "note_on", "time": 5, "note": 79, "velocity": 109, "channel": 0}, {"type": "note_off", "time": 57, "note": 79, "velocity": 109, "channel": 0}, {"type": "note_on", "time": 13, "note": 78, "velocity": 114, "channel": 0}, {"type": "note_off", "time": 100, "note": 78, "velocity": 114, "channel": 0}, {"type": "note_on", "time": 20, "note": 77, "velocity": 110, "channel": 0}, {"type": "note_off", "time": 63, "note": 77, "velocity": 110, "channel": 0}, {"type": "note_on", "time": 34, "note": 75, "velocity": 104, "channel": 0}, {"type": "note_off", "time": 73, "note": 75, "velocity": 104, "channel": 0}, {"type": "note_on", "time": 18, "note": 73, "velocity": 108, "channel": 0}, {"type": "note_off", "time": 60, "note": 73, "velocity": 108, "channel": 0}, {"type": "note_on", "time": 34, "note": 72, "velocity": 100, "channel": 0}, {"type": "note_off", "time": 70, "note": 72, "velocity": 100, "channel": 0}, {"type": "note_on", "time": 23, "note": 70, "velocity": 102, "channel": 0}, {"type": "note_off", "time": 54, "note": 70, "velocity": 102, "channel": 0}, {"type": "note_on", "time": 23, "note": 68, "velocity": 103, "channel": 0}, {"type": "note_off", "time": 32, "note": 68, "velocity": 103, "channel": 0}, {"type": "note_on", "time": 10, "note": 70, "velocity": 100, "channel": 0}, {"type": "note_off", "time": 15, "note": 70, "velocity": 100, "channel": 0}, {"type": "note_on", "time": 10, "note": 68, "velocity": 99, "channel": 0}, {"type": "note_off", "time": 36, "note": 68, "velocity": 99, "channel": 0}, {"type": "note_on", "time": 1, "note": 67, "velocity": 103, "channel": 0}, {"type": "note_off", "time": 54, "note": 67, "velocity": 103, "channel": 0}, {"type": "note_on", "time": 8, "note": 66, "velocity": 110, "channel": 0}, {"type": "note_off", "time": 126, "note": 66, "velocity": 110, "channel": 0}, {"type": "note_on", "time": 97, "note": 68, "velocity": 105, "channel": 0}, {"type": "note_off", "time": 75, "note": 68, "velocity": 105, "channel": 0}, {"type": "note_on", "time": 10, "note": 66, "velocity": 99, "channel": 0}, {"type": "note_off", "time": 20, "note": 66, "velocity": 99, "channel": 0}, {"type": "note_on", "time": 4, "note": 65, "velocity": 98, "channel": 0}, {"type": "note_off", "time": 40, "note": 65, "velocity": 98, "channel": 0}, {"type": "note_on", "time": 19, "note": 63, "velocity": 99, "channel": 0}, {"type": "note_off", "time": 110, "note": 63, "velocity": 99, "channel": 0}, {"type": "note_on", "time": 16, "note": 65, "velocity": 106, "channel": 0}, {"type": "note_off", "time": 74, "note": 65, "velocity": 106, "channel": 0}, {"type": "note_on", "time": 18, "note": 66, "velocity": 100, "channel": 0}, {"type": "note_off", "time": 78, "note": 66, "velocity": 100, "channel": 0}, {"type": "end_of_track", "time": 0}]]}