{"ticks_per_beat": 192, "tracks": [[{"type": "track_name", "name": "Melody", "time": 0}, {"type": "set_tempo", "tempo": 292682, "time": 0}, {"type": "key_signature", "key": "Bb", "time": 0}, {"type": "time_signature", "numerator": 4, "denominator": 4, "clocks_per_click": 24, "notated_32nd_notes_per_beat": 8, "time": 0}, {"type": "note_on", "time": 3525, "note": 78, "velocity": 118, "channel": 0}, {"type": "note_off", "time": 29, "note": 78, "velocity": 118, "channel": 0}, {"type": "note_on", "time": 9, "note": 81, "velocity": 118, "channel": 0}, {"type": "note_off", "time": 25, "note": 81, "velocity": 118, "channel": 0}, {"type": "note_on", "time": 6, "note": 83, "velocity": 116, "channel": 0}, {"type": "note_off", "time": 16, "note": 83, "velocity": 116, "channel": 0}, {"type": "note_on", "time": 6, "note": 84, "velocity": 109, "channel": 0}, {"type": "note_off", "time": 20, "note": 84, "velocity": 109, "channel": 0}, {"type": "note_on", "time": 5, "note": 85, "velocity": 118, "channel": 0}, {"type": "note_off", "time": 18, "note": 85, "velocity": 118, "channel": 0}, {"type": "note_on", "time": 8, "note": 86, "velocity": 120, "channel": 0}, {"type": "note_off", "time": 22, "note": 86, "velocity": 120, "channel": 0}, {"type": "note_on", "time": 2, "note": 87, "velocity": 113, "channel": 0}, {"type": "note_off", "time": 54, "note": 87, "velocity": 113, "channel": 0}, {"type": "note_on", "time": 4, "note": 88, "velocity": 121, "channel": 0}, {"type": "note_off", "time": 52, "note": 88, "velocity": 121, "channel": 0}, {"type": "note_on", "time": 10, "note": 89, "velocity": 108, "channel": 0}, {"type": "note_off", "time": 30, "note": 89, "velocity": 108, "channel": 0}, {"type": "note_on", "time": 5, "note": 89, "velocity": 106, "channel": 0}, {"type": "note_off", "time": 58, "note": 89, "velocity": 106, "channel": 0}, {"type": "note_on", "time": 5, "note": 90, "velocity": 106, "channel": 0}, {"type": "note_off", "time": 119, "note": 90, "velocity": 106, "channel": 0}, {"type": "note_on", "time": 943, "note": 87, "velocity": 121, "channel": 0}, {"type": "note_off", "time": 123, "note": 87, "velocity": 121, "channel": 0}, {"type": "note_on", "time": 28, "note": 86, "velocity": 110, "channel": 0}, {"type": "note_off", "time": 36, "note": 86, "velocity": 110, "channel": 0}, {"type": "note_on", "time": 11, "note": 86, "velocity": 101, "channel": 0}, {"type": "note_off", "time": 86, "note": 86, "velocity": 101, "channel": 0}, {"type": "note_on", "time": 37, "note": 84, "velocity": 104, "channel": 0}, {"type": "note_off", "time": 249, "note": 84, "velocity": 104, "channel": 0}, {"type": "note_on", "time": 14, "note": 82, "velocity": 109, "channel": 0}, {"type": "note_off", "time": 88, "note": 82, "velocity": 109, "channel": 0}, {"type": "note_on", "time": 16, "note": 81, "velocity": 114, "channel": 0}, {"type": "note_off", "time": 72, "note": 81, "velocity": 114, "channel": 0}, {"type": "note_on", "time": 12, "note": 80, "velocity": 101, "channel": 0}, {"type": "note_off", "time": 103, "note": 80, "velocity": 101, "channel": 0}, {"type": "note_on", "time": 94, "note": 78, "velocity": 100, "channel": 0}, {"type": "note_off", "time": 113, "note": 78, "velocity": 100, "channel": 0}, {"type": "note_on", "time": 1, "note": 80, "velocity": 102, "channel": 0}, {"type": "note_off", "time": 68, "note": 80, "velocity": 102, "channel": 0}, {"type": "note_on", "time": 4, "note": 79, "velocity": 113, "channel": 0}, {"type": "note_off", "time": 111, "note": 79, "velocity": 113, "channel": 0}, {"type": "note_on", "time": 4, "note": 77, "velocity": 118, "channel": 0}, {"type": "note_off", "time": 67, "note": 77, "velocity": 118, "channel": 0}, {"type": "note_on", "time": 6, "note": 75, "velocity": 112, "channel": 0}, {"type": "note_off", "time": 155, "note": 75, "velocity": 112, "channel": 0}, {"type": "note_on", "time": 24, "note": 74, "velocity": 111, "channel": 0}, {"type": "note_off", "time": 129, "note": 74, "velocity": 111, "channel": 0}, {"type": "note_on", "time": 7, "note": 75, "velocity": 100, "channel": 0}, {"type": "note_off", "time": 26, "note": 75, "velocity": 100, "channel": 0}, {"type": "note_on", "time": 9, "note": 74, "velocity": 93, "channel": 0}, {"type": "note_off", "time": 20, "note": 74, "velocity": 93, "channel": 0}, {"type": "note_on", "time": 15, "note": 71, "velocity": 101, "channel": 0}, {"type": "note_off", "time": 114, "note": 71, "velocity": 101, "channel": 0}, {"type": "note_on", "time": 17, "note": 69, "velocity": 86, "channel": 0}, {"type": "note_off", "time": 38, "note": 69, "velocity": 86, "channel": 0}, {"type": "note_on", "time": 7, "note": 70, "velocity": 102, "channel": 0}, {"type": "note_off", "time": 113, "note": 70, "velocity": 102, "channel": 0}, {"type": "note_on", "time": 15, "note": 68, "velocity": 104, "channel": 0}, {"type": "note_off", "time": 72, "note": 68, "velocity": 104, "channel": 0}, {"type": "note_on", "time": 6, "note": 67, "velocity": 90, "channel": 0}, {"type": "note_off", "time": 59, "note": 67, "velocity": 90, "channel": 0}, {"type": "note_on", "time": 79, "note": 73, "velocity": 96, "channel": 0}, {"type": "note_off", "time": 16, "note": 73, "velocity": 96, "channel": 0}, {"type": "note_on", "time": 3, "note": 75, "velocity": 98, "channel": 0}, {"type": "note_off", "time": 26, "note": 75, "velocity": 98, "channel": 0}, {"type": "note_on", "time": 11, "note": 77, "velocity": 120, "channel": 0}, {"type": "note_off", "time": 97, "note": 77, "velocity": 120, "channel": 0}, {"type": "note_on", "time": 26, "note": 75, "velocity": 104, "channel": 0}, {"type": "note_off", "time": 58, "note": 75, "velocity": 104, "channel": 0}, {"type": "note_on", "time": 22, "note": 73, "velocity": 91, "channel": 0}, {"type": "note_off", "time": 85, "note": 73, "velocity": 91, "channel": 0}, {"type": "note_on", "time": 9, "note": 74, "velocity": 116, "channel": 0}, {"type": "note_off", "time": 80, "note": 74, "velocity": 116, "channel": 0}, {"type": "note_on", "time": 8, "note": 75, "velocity": 109, "channel": 0}, {"type": "note_off", "time": 101, "note": 75, "velocity": 109, "channel": 0}, {"type": "note_on", "time": 7, "note": 73, "velocity": 104, "channel": 0}, {"type": "note_off", "time": 57, "note": 73, "velocity": 104, "channel": 0}, {"type": "note_on", "time": 18, "note": 70, "velocity": 94, "channel": 0}, {"type": "note_off", "time": 118, "note": 70, "velocity": 94, "channel": 0}, {"type": "note_on", "time": 61, "note": 72, "velocity": 98, "channel": 0}, {"type": "note_off", "time": 162, "note": 72, "velocity": 98, "channel": 0}, {"type": "note_on", "time": 50, "note": 70, "velocity": 102, "channel": 0}, {"type": "note_off", "time": 139, "note": 70, "velocity": 102, "channel": 0}, {"type": "note_on", "time": 25, "note": 68, "velocity": 92, "channel": 0}, {"type": "note_off", "time": 185, "note": 68, "velocity": 92, "channel": 0}, {"type": "note_on", "time": 25, "note": 67, "velocity": 97, "channel": 0}, {"type": "note_off", "time": 119, "note": 67, "velocity": 97, "channel": 0}, {"type": "note_on", "time": 9, "note": 65, "velocity": 94, "channel": 0}, {"type": "note_off", "time": 46, "note": 65, "velocity": 94, "channel": 0}, {"type": "note_on", "time": 18, "note": 63, "velocity": 91, "channel": 0}, {"type": "note_off", "time": 146, "note": 63, "velocity": 91, "channel": 0}, {"type": "note_on", "time": 68, "note": 62, "velocity": 84, "channel": 0}, {"type": "note_off", "time": 103, "note": 62, "velocity": 84, "channel": 0}, {"type": "note_on", "time": 10, "note": 65, "velocity": 78, "channel": 0}, {"type": "note_off", "time": 240, "note": 65, "velocity": 78, "channel": 0}, {"type": "note_on", "time": 436, "note": 61, "velocity": 102, "channel": 0}, {"type": "note_off", "time": 63, "note": 61, "velocity": 102, "channel": 0}, {"type": "note_on", "time": 19, "note": 65, "velocity": 96, "channel": 0}, {"type": "note_off", "time": 54, "note": 65, "velocity": 96, "channel": 0}, {"type": "note_on", "time": 6, "note": 69, "velocity": 108, "channel": 0}, {"type": "note_off", "time": 119, "note": 69, "velocity": 108, "channel": 0}, {"type": "note_on", "time": 72, "note": 67, "velocity": 103, "channel": 0}, {"type": "note_off", "time": 119, "note": 67, "velocity": 103, "channel": 0}, {"type": "note_on", "time": 5, "note": 71, "velocity": 102, "channel": 0}, {"type": "note_off", "time": 59, "note": 71, "velocity": 102, "channel": 0}, {"type": "note_on", "time": 132, "note": 69, "velocity": 102, "channel": 0}, {"type": "note_off", "time": 65, "note": 69, "velocity": 102, "channel": 0}, {"type": "note_on", "time": 30, "note": 73, "velocity": 106, "channel": 0}, {"type": "note_off", "time": 158, "note": 73, "velocity": 106, "channel": 0}, {"type": "note_on", "time": 6, "note": 71, "velocity": 99, "channel": 0}, {"type": "note_off", "time": 135, "note": 71, "velocity": 99, "channel": 0}, {"type": "note_on", "time": 2, "note": 75, "velocity": 106, "channel": 0}, {"type": "note_off", "time": 92, "note": 75, "velocity": 106, "channel": 0}, {"type": "note_on", "time": 189, "note": 77, "velocity": 119, "channel": 0}, {"type": "note_off", "time": 108, "note": 77, "velocity": 119, "channel": 0}, {"type": "note_on", "time": 63, "note": 74, "velocity": 109, "channel": 0}, {"type": "note_off", "time": 105, "note": 74, "velocity": 109, "channel": 0}, {"type": "note_on", "time": 12, "note": 77, "velocity": 120, "channel": 0}, {"type": "note_off", "time": 60, "note": 77, "velocity": 120, "channel": 0}, {"type": "note_on", "time": 22, "note": 73, "velocity": 102, "channel": 0}, {"type": "note_off", "time": 40, "note": 73, "velocity": 102, "channel": 0}, {"type": "note_on", "time": 11, "note": 74, "velocity": 102, "channel": 0}, {"type": "note_off", "time": 48, "note": 74, "velocity": 102, "channel": 0}, {"type": "note_on", "time": 5, "note": 73, "velocity": 95, "channel": 0}, {"type": "note_off", "time": 42, "note": 73, "velocity": 95, "channel": 0}, {"type": "note_on", "time": 8, "note": 72, "velocity": 93, "channel": 0}, {"type": "note_off", "time": 141, "note": 72, "velocity": 93, "channel": 0}, {"type": "note_on", "time": 14, "note": 70, "velocity": 91, "channel": 0}, {"type": "note_off", "time": 234, "note": 70, "velocity": 91, "channel": 0}, {"type": "note_on", "time": 811, "note": 80, "velocity": 110, "channel": 0}, {"type": "note_off", "time": 64, "note": 80, "velocity": 110, "channel": 0}, {"type": "note_on", "time": 110, "note": 82, "velocity": 105, "channel": 0}, {"type": "note_off", "time": 119, "note": 82, "velocity": 105, "channel": 0}, {"type": "note_on", "time": 66, "note": 82, "velocity": 111, "channel": 0}, {"type": "note_off", "time": 114, "note": 82, "velocity": 111, "channel": 0}, {"type": "note_on", "time": 99, "note": 84, "velocity": 115, "channel": 0}, {"type": "note_off", "time": 269, "note": 84, "velocity": 115, "channel": 0}, {"type": "note_on", "time": 32, "note": 79, "velocity": 114, "channel": 0}, {"type": "note_off", "time": 68, "note": 79, "velocity": 114, "channel": 0}, {"type": "note_on", "time": 135, "note": 79, "velocity": 112, "channel": 0}, {"type": "note_off", "time": 59, "note": 79, "velocity": 112, "channel": 0}, {"type": "note_on", "time": 114, "note": 79, "velocity": 94, "channel": 0}, {"type": "note_off", "time": 68, "note": 79, "velocity": 94, "channel": 0}, {"type": "note_on", "time": 7, "note": 82, "velocity": 104, "channel": 0}, {"type": "note_off", "time": 289, "note": 82, "velocity": 104, "channel": 0}, {"type": "note_on", "time": 57, "note": 80, "velocity": 102, "channel": 0}, {"type": "note_off", "time": 72, "note": 80, "velocity": 102, "channel": 0}, {"type": "note_on", "time": 97, "note": 72, "velocity": 97, "channel": 0}, {"type": "note_off", "time": 65, "note": 72, "velocity": 97, "channel": 0}, {"type": "note_on", "time": 20, "note": 75, "velocity": 104, "channel": 0}, {"type": "note_off", "time": 95, "note": 75, "velocity": 104, "channel": 0}, {"type": "note_on", "time": 17, "note": 79, "velocity": 107, "channel": 0}, {"type": "note_off", "time": 76, "note": 79, "velocity": 107, "channel": 0}, {"type": "note_on", "time": 20, "note": 77, "velocity": 106, "channel": 0}, {"type": "note_off", "time": 74, "note": 77, "velocity": 106, "channel": 0}, {"type": "note_on", "time": 6, "note": 75, "velocity": 109, "channel": 0}, {"type": "note_off", "time": 83, "note": 75, "velocity": 109, "channel": 0}, {"type": "note_on", "time": 13, "note": 73, "velocity": 92, "channel": 0}, {"type": "note_off", "time": 75, "note": 73, "velocity": 92, "channel": 0}, {"type": "note_on", "time": 15, "note": 74, "velocity": 103, "channel": 0}, {"type": "note_off", "time": 64, "note": 74, "velocity": 103, "channel": 0}, {"type": "note_on", "time": 18, "note": 75, "velocity": 107, "channel": 0}, {"type": "note_off", "time": 129, "note": 75, "velocity": 107, "channel": 0}, {"type": "note_on", "time": 54, "note": 74, "velocity": 102, "channel": 0}, {"type": "note_off", "time": 112, "note": 74, "velocity": 102, "channel": 0}, {"type": "note_on", "time": 12, "note": 70, "velocity": 106, "channel": 0}, {"type": "note_off", "time": 76, "note": 70, "velocity": 106, "channel": 0}, {"type": "note_on", "time": 1, "note": 68, "velocity": 102, "channel": 0}, {"type": "note_off", "time": 53, "note": 68, "velocity": 102, "channel": 0}, {"type": "note_on", "time": 3, "note": 70, "velocity": 99, "channel": 0}, {"type": "note_off", "time": 42, "note": 70, "velocity": 99, "channel": 0}, {"type": "note_on", "time": 8, "note": 68, "velocity": 95, "channel": 0}, {"type": "note_off", "time": 47, "note": 68, "velocity": 95, "channel": 0}, {"type": "note_on", "time": 34, "note": 65, "velocity": 93, "channel": 0}, {"type": "note_off", "time": 98, "note": 65, "velocity": 93, "channel": 0}, {"type": "note_on", "time": 18, "note": 67, "velocity": 90, "channel": 0}, {"type": "note_off", "time": 273, "note": 67, "velocity": 90, "channel": 0}, {"type": "note_on", "time": 24, "note": 61, "velocity": 93, "channel": 0}, {"type": "note_off", "time": 77, "note": 61, "velocity": 93, "channel": 0}, {"type": "note_on", "time": 20, "note": 72, "velocity": 97, "channel": 0}, {"type": "note_off", "time": 74, "note": 72, "velocity": 97, "channel": 0}, {"type": "note_on", "time": 14, "note": 70, "velocity": 99, "channel": 0}, {"type": "note_off", "time": 163, "note": 70, "velocity": 99, "channel": 0}, {"type": "note_on", "time": 921, "note": 65, "velocity": 101, "channel": 0}, {"type": "note_off", "time": 63, "note": 65, "velocity": 101, "channel": 0}, {"type": "note_on", "time": 129, "note": 65, "velocity": 87, "channel": 0}, {"type": "note_off", "time": 54, "note": 65, "velocity": 87, "channel": 0}, {"type": "note_on", "time": 7, "note": 67, "velocity": 93, "channel": 0}, {"type": "note_off", "time": 55, "note": 67, "velocity": 93, "channel": 0}, {"type": "note_on", "time": 11, "note": 68, "velocity": 99, "channel": 0}, {"type": "note_off", "time": 62, "note": 68, "velocity": 99, "channel": 0}, {"type": "note_on", "time": 4, "note": 70, "velocity": 107, "channel": 0}, {"type": "note_off", "time": 55, "note": 70, "velocity": 107, "channel": 0}, {"type": "note_on", "time": 11, "note": 72, "velocity": 105, "channel": 0}, {"type": "note_off", "time": 69, "note": 72, "velocity": 105, "channel": 0}, {"type": "note_on", "time": 5, "note": 73, "velocity": 106, "channel": 0}, {"type": "note_off", "time": 32, "note": 73, "velocity": 106, "channel": 0}, {"type": "note_on", "time": 10, "note": 74, "velocity": 110, "channel": 0}, {"type": "note_off", "time": 49, "note": 74, "velocity": 110, "channel": 0}, {"type": "note_on", "time": 10, "note": 75, "velocity": 112, "channel": 0}, {"type": "note_off", "time": 54, "note": 75, "velocity": 112, "channel": 0}, {"type": "note_on", "time": 8, "note": 76, "velocity": 119, "channel": 0}, {"type": "note_off", "time": 52, "note": 76, "velocity": 119, "channel": 0}, {"type": "note_on", "time": 11, "note": 77, "velocity": 123, "channel": 0}, {"type": "note_off", "time": 52, "note": 77, "velocity": 123, "channel": 0}, {"type": "note_on", "time": 8, "note": 78, "velocity": 115, "channel": 0}, {"type": "note_off", "time": 35, "note": 78, "velocity": 115, "channel": 0}, {"type": "note_on", "time": 9, "note": 79, "velocity": 110, "channel": 0}, {"type": "note_off", "time": 32, "note": 79, "velocity": 110, "channel": 0}, {"type": "note_on", "time": 6, "note": 78, "velocity": 111, "channel": 0}, {"type": "note_off", "time": 52, "note": 78, "velocity": 111, "channel": 0}, {"type": "note_on", "time": 12, "note": 76, "velocity": 115, "channel": 0}, {"type": "note_off", "time": 62, "note": 76, "velocity": 115, "channel": 0}, {"type": "note_on", "time": 2, "note": 77, "velocity": 118, "channel": 0}, {"type": "note_off", "time": 116, "note": 77, "velocity": 118, "channel": 0}, {"type": "note_on", "time": 9, "note": 74, "velocity": 116, "channel": 0}, {"type": "note_off", "time": 56, "note": 74, "velocity": 116, "channel": 0}, {"type": "note_on", "time": 9, "note": 76, "velocity": 104, "channel": 0}, {"type": "note_off", "time": 36, "note": 76, "velocity": 104, "channel": 0}, {"type": "note_on", "time": 4, "note": 77, "velocity": 110, "channel": 0}, {"type": "note_off", "time": 32, "note": 77, "velocity": 110, "channel": 0}, {"type": "note_on", "time": 10, "note": 75, "velocity": 104, "channel": 0}, {"type": "note_off", "time": 46, "note": 75, "velocity": 104, "channel": 0}, {"type": "note_on", "time": 8, "note": 73, "velocity": 104, "channel": 0}, {"type": "note_off", "time": 58, "note": 73, "velocity": 104, "channel": 0}, {"type": "note_on", "time": 4, "note": 74, "velocity": 109, "channel": 0}, {"type": "note_off", "time": 123, "note": 74, "velocity": 109, "channel": 0}, {"type": "note_on", "time": 24, "note": 71, "velocity": 91, "channel": 0}, {"type": "note_off", "time": 46, "note": 71, "velocity": 91, "channel": 0}, {"type": "note_on", "time": 14, "note": 72, "velocity": 101, "channel": 0}, {"type": "note_off", "time": 93, "note": 72, "velocity": 101, "channel": 0}, {"type": "note_on", "time": 6, "note": 70, "velocity": 102, "channel": 0}, {"type": "note_off", "time": 85, "note": 70, "velocity": 102, "channel": 0}, {"type": "note_on", "time": 8, "note": 69, "velocity": 102, "channel": 0}, {"type": "note_off", "time": 36, "note": 69, "velocity": 102, "channel": 0}, {"type": "note_on", "time": 3, "note": 70, "velocity": 99, "channel": 0}, {"type": "note_off", "time": 30, "note": 70, "velocity": 99, "channel": 0}, {"type": "note_on", "time": 12, "note": 69, "velocity": 100, "channel": 0}, {"type": "note_off", "time": 32, "note": 69, "velocity": 100, "channel": 0}, {"type": "note_on", "time": 9, "note": 67, "velocity": 99, "channel": 0}, {"type": "note_off", "time": 56, "note": 67, "velocity": 99, "channel": 0}, {"type": "note_on", "time": 31, "note": 65, "velocity": 99, "channel": 0}, {"type": "note_off", "time": 114, "note": 65, "velocity": 99, "channel": 0}, {"type": "note_on", "time": 32, "note": 62, "velocity": 97, "channel": 0}, {"type": "note_off", "time": 30, "note": 62, "velocity": 97, "channel": 0}, {"type": "note_on", "time": 5, "note": 63, "velocity": 85, "channel": 0}, {"type": "note_off", "time": 38, "note": 63, "velocity": 85, "channel": 0}, {"type": "note_on", "time": 17, "note": 67, "velocity": 92, "channel": 0}, {"type": "note_off", "time": 34, "note": 67, "velocity": 92, "channel": 0}, {"type": "note_on", "time": 7, "note": 70, "velocity": 110, "channel": 0}, {"type": "note_off", "time": 66, "note": 70, "velocity": 110, "channel": 0}, {"type": "note_on", "time": 20, "note": 74, "velocity": 111, "channel": 0}, {"type": "note_off", "time": 87, "note": 74, "velocity": 111, "channel": 0}, {"type": "note_on", "time": 21, "note": 77, "velocity": 115, "channel": 0}, {"type": "note_off", "time": 74, "note": 77, "velocity": 115, "channel": 0}, {"type": "note_on", "time": 15, "note": 75, "velocity": 109, "channel": 0}, {"type": "note_off", "time": 87, "note": 75, "velocity": 109, "channel": 0}, {"type": "note_on", "time": 57, "note": 69, "velocity": 95, "channel": 0}, {"type": "note_off", "time": 41, "note": 69, "velocity": 95, "channel": 0}, {"type": "note_on", "time": 11, "note": 70, "velocity": 100, "channel": 0}, {"type": "note_off", "time": 81, "note": 70, "velocity": 100, "channel": 0}, {"type": "note_on", "time": 7, "note": 74, "velocity": 108, "channel": 0}, {"type": "note_off", "time": 80, "note": 74, "velocity": 108, "channel": 0}, {"type": "note_on", "time": 6, "note": 73, "velocity": 107, "channel": 0}, {"type": "note_off", "time": 89, "note": 73, "velocity": 107, "channel": 0}, {"type": "note_on", "time": 21, "note": 71, "velocity": 95, "channel": 0}, {"type": "note_off", "time": 53, "note": 71, "velocity": 95, "channel": 0}, {"type": "note_on", "time": 37, "note": 72, "velocity": 100, "channel": 0}, {"type": "note_off", "time": 104, "note": 72, "velocity": 100, "channel": 0}, {"type": "note_on", "time": 68, "note": 70, "velocity": 99, "channel": 0}, {"type": "note_off", "time": 97, "note": 70, "velocity": 99, "channel": 0}, {"type": "note_on", "time": 27, "note": 77, "velocity": 115, "channel": 0}, {"type": "note_off", "time": 99, "note": 77, "velocity": 115, "channel": 0}, {"type": "note_on", "time": 1138, "note": 83, "velocity": 111, "channel": 0}, {"type": "note_off", "time": 17, "note": 83, "velocity": 111, "channel": 0}, {"type": "note_on", "time": 1, "note": 82, "velocity": 107, "channel": 0}, {"type": "note_off", "time": 36, "note": 82, "velocity": 107, "channel": 0}, {"type": "note_on", "time": 7, "note": 83, "velocity": 102, "channel": 0}, {"type": "note_off", "time": 26, "note": 83, "velocity": 102, "channel": 0}, {"type": "note_on", "time": 17, "note": 82, "velocity": 103, "channel": 0}, {"type": "note_off", "time": 25, "note": 82, "velocity": 103, "channel": 0}, {"type": "note_on", "time": 27, "note": 82, "velocity": 116, "channel": 0}, {"type": "note_off", "time": 74, "note": 82, "velocity": 116, "channel": 0}, {"type": "note_on", "time": 24, "note": 81, "velocity": 84, "channel": 0}, {"type": "note_off", "time": 44, "note": 81, "velocity": 84, "channel": 0}, {"type": "note_on", "time": 12, "note": 82, "velocity": 99, "channel": 0}, {"type": "note_off", "time": 44, "note": 82, "velocity": 99, "channel": 0}, {"type": "note_on", "time": 11, "note": 81, "velocity": 96, "channel": 0}, {"type": "note_off", "time": 38, "note": 81, "velocity": 96, "channel": 0}, {"type": "note_on", "time": 16, "note": 82, "velocity": 101, "channel": 0}, {"type": "note_off", "time": 89, "note": 82, "velocity": 101, "channel": 0}, {"type": "note_on", "time": 32, "note": 81, "velocity": 100, "channel": 0}, {"type": "note_off", "time": 29, "note": 81, "velocity": 100, "channel": 0}, {"type": "note_on", "time": 10, "note": 82, "velocity": 107, "channel": 0}, {"type": "note_off", "time": 25, "note": 82, "velocity": 107, "channel": 0}, {"type": "note_on", "time": 24, "note": 81, "velocity": 100, "channel": 0}, {"type": "note_off", "time": 40, "note": 81, "velocity": 100, "channel": 0}, {"type": "note_on", "time": 15, "note": 82, "velocity": 101, "channel": 0}, {"type": "note_off", "time": 43, "note": 82, "velocity": 101, "channel": 0}, {"type": "note_on", "time": 15, "note": 82, "velocity": 106, "channel": 0}, {"type": "note_off", "time": 60, "note": 82, "velocity": 106, "channel": 0}, {"type": "note_on", "time": 12, "note": 85, "velocity": 127, "channel": 0}, {"type": "note_off", "time": 58, "note": 85, "velocity": 127, "channel": 0}, {"type": "note_on", "time": 10, "note": 86, "velocity": 105, "channel": 0}, {"type": "note_off", "time": 76, "note": 86, "velocity": 105, "channel": 0}, {"type": "note_on", "time": 542, "note": 82, "velocity": 112, "channel": 0}, {"type": "note_off", "time": 44, "note": 82, "velocity": 112, "channel": 0}, {"type": "note_on", "time": 9, "note": 83, "velocity": 99, "channel": 0}, {"type": "note_off", "time": 37, "note": 83, "velocity": 99, "channel": 0}, {"type": "note_on", "time": 15, "note": 82, "velocity": 101, "channel": 0}, {"type": "note_off", "time": 45, "note": 82, "velocity": 101, "channel": 0}, {"type": "note_on", "time": 24, "note": 82, "velocity": 108, "channel": 0}, {"type": "note_off", "time": 56, "note": 82, "velocity": 108, "channel": 0}, {"type": "note_on", "time": 23, "note": 83, "velocity": 95, "channel": 0}, {"type": "note_off", "time": 38, "note": 83, "velocity": 95, "channel": 0}, {"type": "note_on", "time": 37, "note": 82, "velocity": 99, "channel": 0}, {"type": "note_off", "time": 42, "note": 82, "velocity": 99, "channel": 0}, {"type": "note_on", "time": 19, "note": 83, "velocity": 88, "channel": 0}, {"type": "note_off", "time": 34, "note": 83, "velocity": 88, "channel": 0}, {"type": "note_on", "time": 10, "note": 82, "velocity": 89, "channel": 0}, {"type": "note_off", "time": 22, "note": 82, "velocity": 89, "channel": 0}, {"type": "note_on", "time": 17, "note": 83, "velocity": 112, "channel": 0}, {"type": "note_off", "time": 64, "note": 83, "velocity": 112, "channel": 0}, {"type": "note_on", "time": 11, "note": 82, "velocity": 97, "channel": 0}, {"type": "note_off", "time": 32, "note": 82, "velocity": 97, "channel": 0}, {"type": "note_on", "time": 19, "note": 83, "velocity": 108, "channel": 0}, {"type": "note_off", "time": 30, "note": 83, "velocity": 108, "channel": 0}, {"type": "note_on", "time": 9, "note": 82, "velocity": 96, "channel": 0}, {"type": "note_on", "time": 30, "note": 83, "velocity": 102, "channel": 0}, {"type": "note_off", "time": 0, "note": 82, "velocity": 96, "channel": 0}, {"type": "note_off", "time": 28, "note": 83, "velocity": 102, "channel": 0}, {"type": "note_on", "time": 15, "note": 82, "velocity": 95, "channel": 0}, {"type": "note_off", "time": 17, "note": 82, "velocity": 95, "channel": 0}, {"type": "note_on", "time": 5, "note": 83, "velocity": 115, "channel": 0}, {"type": "note_off", "time": 89, "note": 83, "velocity": 115, "channel": 0}, {"type": "note_on", "time": 13, "note": 84, "velocity": 112, "channel": 0}, {"type": "note_off", "time": 30, "note": 84, "velocity": 112, "channel": 0}, {"type": "note_on", "time": 10, "note": 85, "velocity": 118, "channel": 0}, {"type": "note_off", "time": 50, "note": 85, "velocity": 118, "channel": 0}, {"type": "note_on", "time": 19, "note": 86, "velocity": 117, "channel": 0}, {"type": "note_off", "time": 29, "note": 86, "velocity": 117, "channel": 0}, {"type": "note_on", "time": 7, "note": 87, "velocity": 110, "channel": 0}, {"type": "note_off", "time": 39, "note": 87, "velocity": 110, "channel": 0}, {"type": "note_on", "time": 3, "note": 88, "velocity": 111, "channel": 0}, {"type": "note_off", "time": 41, "note": 88, "velocity": 111, "channel": 0}, {"type": "note_on", "time": 9, "note": 89, "velocity": 119, "channel": 0}, {"type": "note_off", "time": 576, "note": 89, "velocity": 119, "channel": 0}, {"type": "note_on", "time": 38, "note": 87, "velocity": 102, "channel": 0}, {"type": "note_off", "time": 154, "note": 87, "velocity": 102, "channel": 0}, {"type": "note_on", "time": 38, "note": 85, "velocity": 115, "channel": 0}, {"type": "note_off", "time": 123, "note": 85, "velocity": 115, "channel": 0}, {"type": "note_on", "time": 6, "note": 82, "velocity": 100, "channel": 0}, {"type": "note_off", "time": 73, "note": 82, "velocity": 100, "channel": 0}, {"type": "note_on", "time": 92, "note": 89, "velocity": 116, "channel": 0}, {"type": "note_off", "time": 96, "note": 89, "velocity": 116, "channel": 0}, {"type": "note_on", "time": 890, "note": 87, "velocity": 107, "channel": 0}, {"type": "note_off", "time": 70, "note": 87, "velocity": 107, "channel": 0}, {"type": "note_on", "time": 13, "note": 86, "velocity": 112, "channel": 0}, {"type": "note_off", "time": 62, "note": 86, "velocity": 112, "channel": 0}, {"type": "note_on", "time": 71, "note": 84, "velocity": 111, "channel": 0}, {"type": "note_off", "time": 87, "note": 84, "velocity": 111, "channel": 0}, {"type": "note_on", "time": 72, "note": 83, "velocity": 111, "channel": 0}, {"type": "note_off", "time": 93, "note": 83, "velocity": 111, "channel": 0}, {"type": "note_on", "time": 95, "note": 70, "velocity": 68, "channel": 0}, {"type": "note_off", "time": 63, "note": 70, "velocity": 68, "channel": 0}, {"type": "note_on", "time": 21, "note": 77, "velocity": 97, "channel": 0}, {"type": "note_off", "time": 101, "note": 77, "velocity": 97, "channel": 0}, {"type": "note_on", "time": 8, "note": 80, "velocity": 103, "channel": 0}, {"type": "note_off", "time": 85, "note": 80, "velocity": 103, "channel": 0}, {"type": "note_on", "time": 8, "note": 79, "velocity": 110, "channel": 0}, {"type": "note_off", "time": 95, "note": 79, "velocity": 110, "channel": 0}, {"type": "note_on", "time": 12, "note": 77, "velocity": 114, "channel": 0}, {"type": "note_off", "time": 65, "note": 77, "velocity": 114, "channel": 0}, {"type": "note_on", "time": 8, "note": 75, "velocity": 102, "channel": 0}, {"type": "note_off", "time": 173, "note": 75, "velocity": 102, "channel": 0}, {"type": "note_on", "time": 4, "note": 77, "velocity": 107, "channel": 0}, {"type": "note_off", "time": 180, "note": 77, "velocity": 107, "channel": 0}, {"type": "note_on", "time": 22, "note": 75, "velocity": 97, "channel": 0}, {"type": "note_off", "time": 180, "note": 75, "velocity": 97, "channel": 0}, {"type": "note_on", "time": 67, "note": 72, "velocity": 83, "channel": 0}, {"type": "note_off", "time": 74, "note": 72, "velocity": 83, "channel": 0}, {"type": "note_on", "time": 17, "note": 75, "velocity": 103, "channel": 0}, {"type": "note_off", "time": 65, "note": 75, "velocity": 103, "channel": 0}, {"type": "note_on", "time": 10, "note": 74, "velocity": 98, "channel": 0}, {"type": "note_off", "time": 107, "note": 74, "velocity": 98, "channel": 0}, {"type": "note_on", "time": 8, "note": 72, "velocity": 105, "channel": 0}, {"type": "note_off", "time": 81, "note": 72, "velocity": 105, "channel": 0}, {"type": "note_on", "time": 12, "note": 71, "velocity": 101, "channel": 0}, {"type": "note_off", "time": 107, "note": 71, "velocity": 101, "channel": 0}, {"type": "note_on", "time": 6, "note": 70, "velocity": 106, "channel": 0}, {"type": "note_off", "time": 53, "note": 70, "velocity": 106, "channel": 0}, {"type": "note_on", "time": 14, "note": 69, "velocity": 93, "channel": 0}, {"type": "note_off", "time": 102, "note": 69, "velocity": 93, "channel": 0}, {"type": "note_on", "time": 14, "note": 67, "velocity": 97, "channel": 0}, {"type": "note_off", "time": 48, "note": 67, "velocity": 97, "channel": 0}, {"type": "note_on", "time": 28, "note": 65, "velocity": 99, "channel": 0}, {"type": "note_off", "time": 118, "note": 65, "velocity": 99, "channel": 0}, {"type": "note_on", "time": 15, "note": 63, "velocity": 92, "channel": 0}, {"type": "note_off", "time": 41, "note": 63, "velocity": 92, "channel": 0}, {"type": "note_on", "time": 3, "note": 64, "velocity": 87, "channel": 0}, {"type": "note_off", "time": 76, "note": 64, "velocity": 87, "channel": 0}, {"type": "note_on", "time": 7, "note": 68, "velocity": 84, "channel": 0}, {"type": "note_off", "time": 34, "note": 68, "velocity": 84, "channel": 0}, {"type": "note_on", "time": 6, "note": 71, "velocity": 107, "channel": 0}, {"type": "note_off", "time": 62, "note": 71, "velocity": 107, "channel": 0}, {"type": "note_on", "time": 5, "note": 74, "velocity": 115, "channel": 0}, {"type": "note_off", "time": 108, "note": 74, "velocity": 115, "channel": 0}, {"type": "note_on", "time": 6, "note": 77, "velocity": 118, "channel": 0}, {"type": "note_off", "time": 70, "note": 77, "velocity": 118, "channel": 0}, {"type": "note_on", "time": 4, "note": 75, "velocity": 108, "channel": 0}, {"type": "note_off", "time": 156, "note": 75, "velocity": 108, "channel": 0}, {"type": "note_on", "time": 12, "note": 74, "velocity": 108, "channel": 0}, {"type": "note_off", "time": 125, "note": 74, "velocity": 108, "channel": 0}, {"type": "note_on", "time": 32, "note": 70, "velocity": 107, "channel": 0}, {"type": "note_off", "time": 103, "note": 70, "velocity": 107, "channel": 0}, {"type": "note_on", "time": 6, "note": 69, "velocity": 86, "channel": 0}, {"type": "note_off", "time": 64, "note": 69, "velocity": 86, "channel": 0}, {"type": "note_on", "time": 829, "note": 84, "velocity": 114, "channel": 0}, {"type": "note_off", "time": 87, "note": 84, "velocity": 114, "channel": 0}, {"type": "note_on", "time": 100, "note": 87, "velocity": 109, "channel": 0}, {"type": "note_off", "time": 310, "note": 87, "velocity": 109, "channel": 0}, {"type": "note_on", "time": 55, "note": 85, "velocity": 102, "channel": 0}, {"type": "note_off", "time": 41, "note": 85, "velocity": 102, "channel": 0}, {"type": "note_on", "time": 1, "note": 86, "velocity": 112, "channel": 0}, {"type": "note_off", "time": 123, "note": 86, "velocity": 112, "channel": 0}, {"type": "note_on", "time": 13, "note": 82, "velocity": 108, "channel": 0}, {"type": "note_off", "time": 72, "note": 82, "velocity": 108, "channel": 0}, {"type": "note_on", "time": 571, "note": 87, "velocity": 112, "channel": 0}, {"type": "note_off", "time": 99, "note": 87, "velocity": 112, "channel": 0}, {"type": "note_on", "time": 8, "note": 86, "velocity": 101, "channel": 0}, {"type": "note_off", "time": 62, "note": 86, "velocity": 101, "channel": 0}, {"type": "note_on", "time": 14, "note": 86, "velocity": 118, "channel": 0}, {"type": "note_off", "time": 64, "note": 86, "velocity": 118, "channel": 0}, {"type": "note_on", "time": 0, "note": 85, "velocity": 83, "channel": 0}, {"type": "note_off", "time": 39, "note": 85, "velocity": 83, "channel": 0}, {"type": "note_on", "time": 8, "note": 84, "velocity": 109, "channel": 0}, {"type": "note_off", "time": 78, "note": 84, "velocity": 109, "channel": 0}, {"type": "note_on", "time": 12, "note": 82, "velocity": 106, "channel": 0}, {"type": "note_off", "time": 111, "note": 82, "velocity": 106, "channel": 0}, {"type": "note_on", "time": 6, "note": 81, "velocity": 111, "channel": 0}, {"type": "note_off", "time": 68, "note": 81, "velocity": 111, "channel": 0}, {"type": "note_on", "time": 4, "note": 80, "velocity": 107, "channel": 0}, {"type": "note_off", "time": 112, "note": 80, "velocity": 107, "channel": 0}, {"type": "note_on", "time": 72, "note": 77, "velocity": 93, "channel": 0}, {"type": "note_off", "time": 91, "note": 77, "velocity": 93, "channel": 0}, {"type": "note_on", "time": 10, "note": 80, "velocity": 98, "channel": 0}, {"type": "note_off", "time": 74, "note": 80, "velocity": 98, "channel": 0}, {"type": "note_on", "time": 11, "note": 79, "velocity": 108, "channel": 0}, {"type": "note_off", "time": 104, "note": 79, "velocity": 108, "channel": 0}, {"type": "note_on", "time": 10, "note": 77, "velocity": 118, "channel": 0}, {"type": "note_off", "time": 64, "note": 77, "velocity": 118, "channel": 0}, {"type": "note_on", "time": 10, "note": 75, "velocity": 111, "channel": 0}, {"type": "note_off", "time": 153, "note": 75, "velocity": 111, "channel": 0}, {"type": "note_on", "time": 23, "note": 74, "velocity": 105, "channel": 0}, {"type": "note_off", "time": 145, "note": 74, "velocity": 105, "channel": 0}, {"type": "note_on", "time": 12, "note": 73, "velocity": 92, "channel": 0}, {"type": "note_off", "time": 110, "note": 73, "velocity": 92, "channel": 0}, {"type": "note_on", "time": 24, "note": 70, "velocity": 99, "channel": 0}, {"type": "note_off", "time": 111, "note": 70, "velocity": 99, "channel": 0}, {"type": "note_on", "time": 13, "note": 68, "velocity": 101, "channel": 0}, {"type": "note_off", "time": 141, "note": 68, "velocity": 101, "channel": 0}, {"type": "note_on", "time": 44, "note": 68, "velocity": 101, "channel": 0}, {"type": "note_off", "time": 75, "note": 68, "velocity": 101, "channel": 0}, {"type": "note_on", "time": 7, "note": 70, "velocity": 106, "channel": 0}, {"type": "note_off", "time": 80, "note": 70, "velocity": 106, "channel": 0}, {"type": "note_on", "time": 11, "note": 73, "velocity": 99, "channel": 0}, {"type": "note_off", "time": 102, "note": 73, "velocity": 99, "channel": 0}, {"type": "note_on", "time": 10, "note": 77, "velocity": 100, "channel": 0}, {"type": "note_off", "time": 260, "note": 77, "velocity": 100, "channel": 0}, {"type": "note_on", "time": 900, "note": 77, "velocity": 114, "channel": 0}, {"type": "note_off", "time": 53, "note": 77, "velocity": 114, "channel": 0}, {"type": "note_on", "time": 9, "note": 80, "velocity": 108, "channel": 0}, {"type": "note_off", "time": 55, "note": 80, "velocity": 108, "channel": 0}, {"type": "note_on", "time": 9, "note": 80, "velocity": 107, "channel": 0}, {"type": "note_off", "time": 37, "note": 80, "velocity": 107, "channel": 0}, {"type": "note_on", "time": 19, "note": 77, "velocity": 118, "channel": 0}, {"type": "note_off", "time": 52, "note": 77, "velocity": 118, "channel": 0}, {"type": "note_on", "time": 8, "note": 79, "velocity": 110, "channel": 0}, {"type": "note_off", "time": 26, "note": 79, "velocity": 110, "channel": 0}, {"type": "note_on", "time": 11, "note": 80, "velocity": 104, "channel": 0}, {"type": "note_off", "time": 37, "note": 80, "velocity": 104, "channel": 0}, {"type": "note_on", "time": 15, "note": 80, "velocity": 102, "channel": 0}, {"type": "note_off", "time": 24, "note": 80, "velocity": 102, "channel": 0}, {"type": "note_on", "time": 17, "note": 77, "velocity": 117, "channel": 0}, {"type": "note_off", "time": 43, "note": 77, "velocity": 117, "channel": 0}, {"type": "note_on", "time": 6, "note": 78, "velocity": 117, "channel": 0}, {"type": "note_off", "time": 19, "note": 78, "velocity": 117, "channel": 0}, {"type": "note_on", "time": 11, "note": 80, "velocity": 107, "channel": 0}, {"type": "note_off", "time": 19, "note": 80, "velocity": 107, "channel": 0}, {"type": "note_on", "time": 5, "note": 81, "velocity": 82, "channel": 0}, {"type": "note_off", "time": 58, "note": 81, "velocity": 82, "channel": 0}, {"type": "note_on", "time": 13, "note": 80, "velocity": 100, "channel": 0}, {"type": "note_off", "time": 20, "note": 80, "velocity": 100, "channel": 0}, {"type": "note_on", "time": 18, "note": 77, "velocity": 111, "channel": 0}, {"type": "note_off", "time": 54, "note": 77, "velocity": 111, "channel": 0}, {"type": "note_on", "time": 14, "note": 80, "velocity": 104, "channel": 0}, {"type": "note_off", "time": 25, "note": 80, "velocity": 104, "channel": 0}, {"type": "note_on", "time": 27, "note": 80, "velocity": 99, "channel": 0}, {"type": "note_off", "time": 57, "note": 80, "velocity": 99, "channel": 0}, {"type": "note_on", "time": 0, "note": 77, "velocity": 112, "channel": 0}, {"type": "note_off", "time": 37, "note": 77, "velocity": 112, "channel": 0}, {"type": "note_on", "time": 10, "note": 79, "velocity": 103, "channel": 0}, {"type": "note_off", "time": 24, "note": 79, "velocity": 103, "channel": 0}, {"type": "note_on", "time": 14, "note": 80, "velocity": 97, "channel": 0}, {"type": "note_off", "time": 34, "note": 80, "velocity": 97, "channel": 0}, {"type": "note_on", "time": 16, "note": 80, "velocity": 100, "channel": 0}, {"type": "note_off", "time": 52, "note": 80, "velocity": 100, "channel": 0}, {"type": "note_on", "time": 9, "note": 77, "velocity": 106, "channel": 0}, {"type": "note_off", "time": 56, "note": 77, "velocity": 106, "channel": 0}, {"type": "note_on", "time": 15, "note": 80, "velocity": 102, "channel": 0}, {"type": "note_off", "time": 32, "note": 80, "velocity": 102, "channel": 0}, {"type": "note_on", "time": 6, "note": 81, "velocity": 107, "channel": 0}, {"type": "note_off", "time": 22, "note": 81, "velocity": 107, "channel": 0}, {"type": "note_on", "time": 10, "note": 80, "velocity": 82, "channel": 0}, {"type": "note_off", "time": 26, "note": 80, "velocity": 82, "channel": 0}, {"type": "note_on", "time": 22, "note": 77, "velocity": 110, "channel": 0}, {"type": "note_off", "time": 61, "note": 77, "velocity": 110, "channel": 0}, {"type": "note_on", "time": 12, "note": 80, "velocity": 103, "channel": 0}, {"type": "note_off", "time": 38, "note": 80, "velocity": 103, "channel": 0}, {"type": "note_on", "time": 9, "note": 80, "velocity": 107, "channel": 0}, {"type": "note_off", "time": 55, "note": 80, "velocity": 107, "channel": 0}, {"type": "note_on", "time": 15, "note": 77, "velocity": 102, "channel": 0}, {"type": "note_off", "time": 50, "note": 77, "velocity": 102, "channel": 0}, {"type": "note_on", "time": 10, "note": 80, "velocity": 100, "channel": 0}, {"type": "note_off", "time": 34, "note": 80, "velocity": 100, "channel": 0}, {"type": "note_on", "time": 10, "note": 81, "velocity": 101, "channel": 0}, {"type": "note_off", "time": 29, "note": 81, "velocity": 101, "channel": 0}, {"type": "note_on", "time": 17, "note": 80, "velocity": 92, "channel": 0}, {"type": "note_off", "time": 22, "note": 80, "velocity": 92, "channel": 0}, {"type": "note_on", "time": 6, "note": 77, "velocity": 100, "channel": 0}, {"type": "note_off", "time": 65, "note": 77, "velocity": 100, "channel": 0}, {"type": "note_on", "time": 29, "note": 80, "velocity": 102, "channel": 0}, {"type": "note_off", "time": 38, "note": 80, "velocity": 102, "channel": 0}, {"type": "note_on", "time": 15, "note": 81, "velocity": 91, "channel": 0}, {"type": "note_off", "time": 26, "note": 81, "velocity": 91, "channel": 0}, {"type": "note_on", "time": 17, "note": 80, "velocity": 100, "channel": 0}, {"type": "note_off", "time": 25, "note": 80, "velocity": 100, "channel": 0}, {"type": "note_on", "time": 13, "note": 79, "velocity": 102, "channel": 0}, {"type": "note_off", "time": 53, "note": 79, "velocity": 102, "channel": 0}, {"type": "note_on", "time": 29, "note": 77, "velocity": 116, "channel": 0}, {"type": "note_off", "time": 97, "note": 77, "velocity": 116, "channel": 0}, {"type": "note_on", "time": 11, "note": 76, "velocity": 102, "channel": 0}, {"type": "note_off", "time": 80, "note": 76, "velocity": 102, "channel": 0}, {"type": "note_on", "time": 6, "note": 75, "velocity": 105, "channel": 0}, {"type": "note_off", "time": 80, "note": 75, "velocity": 105, "channel": 0}, {"type": "note_on", "time": 8, "note": 74, "velocity": 106, "channel": 0}, {"type": "note_off", "time": 71, "note": 74, "velocity": 106, "channel": 0}, {"type": "note_on", "time": 16, "note": 72, "velocity": 100, "channel": 0}, {"type": "note_off", "time": 30, "note": 72, "velocity": 100, "channel": 0}, {"type": "note_on", "time": 11, "note": 74, "velocity": 104, "channel": 0}, {"type": "note_off", "time": 29, "note": 74, "velocity": 104, "channel": 0}, {"type": "note_on", "time": 10, "note": 72, "velocity": 99, "channel": 0}, {"type": "note_off", "time": 33, "note": 72, "velocity": 99, "channel": 0}, {"type": "note_on", "time": 10, "note": 70, "velocity": 105, "channel": 0}, {"type": "note_off", "time": 56, "note": 70, "velocity": 105, "channel": 0}, {"type": "note_on", "time": 8, "note": 69, "velocity": 95, "channel": 0}, {"type": "note_off", "time": 89, "note": 69, "velocity": 95, "channel": 0}, {"type": "note_on", "time": 25, "note": 67, "velocity": 90, "channel": 0}, {"type": "note_off", "time": 81, "note": 67, "velocity": 90, "channel": 0}, {"type": "note_on", "time": 8, "note": 65, "velocity": 98, "channel": 0}, {"type": "note_off", "time": 85, "note": 65, "velocity": 98, "channel": 0}, {"type": "note_on", "time": 120, "note": 67, "velocity": 87, "channel": 0}, {"type": "note_off", "time": 42, "note": 67, "velocity": 87, "channel": 0}, {"type": "note_on", "time": 20, "note": 70, "velocity": 103, "channel": 0}, {"type": "note_off", "time": 80, "note": 70, "velocity": 103, "channel": 0}, {"type": "note_on", "time": 19, "note": 75, "velocity": 98, "channel": 0}, {"type": "note_off", "time": 119, "note": 75, "velocity": 98, "channel": 0}, {"type": "note_on", "time": 3, "note": 73, "velocity": 95, "channel": 0}, {"type": "note_off", "time": 48, "note": 73, "velocity": 95, "channel": 0}, {"type": "note_on", "time": 16, "note": 74, "velocity": 107, "channel": 0}, {"type": "note_off", "time": 103, "note": 74, "velocity": 107, "channel": 0}, {"type": "note_on", "time": 13, "note": 75, "velocity": 106, "channel": 0}, {"type": "note_off", "time": 52, "note": 75, "velocity": 106, "channel": 0}, {"type": "note_on", "time": 12, "note": 76, "velocity": 105, "channel": 0}, {"type": "note_off", "time": 101, "note": 76, "velocity": 105, "channel": 0}, {"type": "note_on", "time": 4, "note": 78, "velocity": 117, "channel": 0}, {"type": "note_off", "time": 72, "note": 78, "velocity": 117, "channel": 0}, {"type": "note_on", "time": 8, "note": 79, "velocity": 103, "channel": 0}, {"type": "note_off", "time": 37, "note": 79, "velocity": 103, "channel": 0}, {"type": "note_on", "time": 10, "note": 80, "velocity": 34, "channel": 0}, {"type": "note_off", "time": 32, "note": 80, "velocity": 34, "channel": 0}, {"type": "note_on", "time": 10, "note": 78, "velocity": 118, "channel": 0}, {"type": "note_off", "time": 32, "note": 78, "velocity": 118, "channel": 0}, {"type": "note_on", "time": 9, "note": 76, "velocity": 112, "channel": 0}, {"type": "note_off", "time": 62, "note": 76, "velocity": 112, "channel": 0}, {"type": "note_on", "time": 4, "note": 77, "velocity": 120, "channel": 0}, {"type": "note_off", "time": 121, "note": 77, "velocity": 120, "channel": 0}, {"type": "note_on", "time": 10, "note": 74, "velocity": 119, "channel": 0}, {"type": "note_off", "time": 48, "note": 74, "velocity": 119, "channel": 0}, {"type": "note_on", "time": 5, "note": 75, "velocity": 104, "channel": 0}, {"type": "note_off", "time": 26, "note": 75, "velocity": 104, "channel": 0}, {"type": "note_on", "time": 16, "note": 77, "velocity": 110, "channel": 0}, {"type": "note_off", "time": 26, "note": 77, "velocity": 110, "channel": 0}, {"type": "note_on", "time": 12, "note": 75, "velocity": 105, "channel": 0}, {"type": "note_off", "time": 44, "note": 75, "velocity": 105, "channel": 0}, {"type": "note_on", "time": 14, "note": 73, "velocity": 107, "channel": 0}, {"type": "note_off", "time": 42, "note": 73, "velocity": 107, "channel": 0}, {"type": "note_on", "time": 8, "note": 74, "velocity": 110, "channel": 0}, {"type": "note_off", "time": 125, "note": 74, "velocity": 110, "channel": 0}, {"type": "note_on", "time": 10, "note": 69, "velocity": 95, "channel": 0}, {"type": "note_off", "time": 48, "note": 69, "velocity": 95, "channel": 0}, {"type": "note_on", "time": 22, "note": 72, "velocity": 109, "channel": 0}, {"type": "note_off", "time": 99, "note": 72, "velocity": 109, "channel": 0}, {"type": "note_on", "time": 16, "note": 70, "velocity": 108, "channel": 0}, {"type": "note_off", "time": 56, "note": 70, "velocity": 108, "channel": 0}, {"type": "note_on", "time": 9, "note": 69, "velocity": 106, "channel": 0}, {"type": "note_off", "time": 123, "note": 69, "velocity": 106, "channel": 0}, {"type": "note_on", "time": 59, "note": 70, "velocity": 113, "channel": 0}, {"type": "note_off", "time": 76, "note": 70, "velocity": 113, "channel": 0}, {"type": "end_of_track", "time": 0}]]}