{"ticks_per_beat": 840, "tracks": [[{"type": "track_name", "name": "Melody", "time": 0}, {"type": "set_tempo", "tempo": 600000, "time": 0}, {"type": "key_signature", "key": "Db", "time": 0}, {"type": "time_signature", "numerator": 4, "denominator": 4, "clocks_per_click": 24, "notated_32nd_notes_per_beat": 8, "time": 0}, {"type": "note_on", "time": 7771, "note": 56, "velocity": 126, "channel": 0}, {"type": "note_off", "time": 178, "note": 56, "velocity": 126, "channel": 0}, {"type": "note_on", "time": 65, "note": 61, "velocity": 124, "channel": 0}, {"type": "note_off", "time": 219, "note": 61, "velocity": 124, "channel": 0}, {"type": "note_on", "time": 46, "note": 64, "velocity": 112, "channel": 0}, {"type": "note_off", "time": 91, "note": 64, "velocity": 112, "channel": 0}, {"type": "note_on", "time": 26, "note": 65, "velocity": 119, "channel": 0}, {"type": "note_off", "time": 158, "note": 65, "velocity": 119, "channel": 0}, {"type": "note_on", "time": 83, "note": 68, "velocity": 121, "channel": 0}, {"type": "note_off", "time": 195, "note": 68, "velocity": 121, "channel": 0}, {"type": "note_on", "time": 48, "note": 61, "velocity": 117, "channel": 0}, {"type": "note_off", "time": 268, "note": 61, "velocity": 117, "channel": 0}, {"type": "note_on", "time": 243, "note": 61, "velocity": 121, "channel": 0}, {"type": "note_off", "time": 300, "note": 61, "velocity": 121, "channel": 0}, {"type": "note_on", "time": 26, "note": 61, "velocity": 106, "channel": 0}, {"type": "note_off", "time": 217, "note": 61, "velocity": 106, "channel": 0}, {"type": "note_on", "time": 10, "note": 65, "velocity": 97, "channel": 0}, {"type": "note_off", "time": 1105, "note": 65, "velocity": 97, "channel": 0}, {"type": "note_on", "time": 111, "note": 68, "velocity": 103, "channel": 0}, {"type": "note_off", "time": 227, "note": 68, "velocity": 103, "channel": 0}, {"type": "note_on", "time": 48, "note": 65, "velocity": 104, "channel": 0}, {"type": "note_off", "time": 170, "note": 65, "velocity": 104, "channel": 0}, {"type": "note_on", "time": 105, "note": 61, "velocity": 114, "channel": 0}, {"type": "note_off", "time": 268, "note": 61, "velocity": 114, "channel": 0}, {"type": "note_on", "time": 48, "note": 59, "velocity": 107, "channel": 0}, {"type": "note_off", "time": 227, "note": 59, "velocity": 107, "channel": 0}, {"type": "note_on", "time": 130, "note": 58, "velocity": 106, "channel": 0}, {"type": "note_off", "time": 260, "note": 58, "velocity": 106, "channel": 0}, {"type": "note_on", "time": 130, "note": 58, "velocity": 109, "channel": 0}, {"type": "note_off", "time": 325, "note": 58, "velocity": 109, "channel": 0}, {"type": "note_on", "time": 130, "note": 61, "velocity": 104, "channel": 0}, {"type": "note_off", "time": 284, "note": 61, "velocity": 104, "channel": 0}, {"type": "note_on", "time": 15, "note": 64, "velocity": 100, "channel": 0}, {"type": "note_off", "time": 1032, "note": 64, "velocity": 100, "channel": 0}, {"type": "note_on", "time": 113, "note": 68, "velocity": 114, "channel": 0}, {"type": "note_off", "time": 243, "note": 68, "velocity": 114, "channel": 0}, {"type": "note_on", "time": 81, "note": 64, "velocity": 112, "channel": 0}, {"type": "note_off", "time": 195, "note": 64, "velocity": 112, "channel": 0}, {"type": "note_on", "time": 73, "note": 61, "velocity": 115, "channel": 0}, {"type": "note_on", "time": 227, "note": 58, "velocity": 108, "channel": 0}, {"type": "note_off", "time": 0, "note": 61, "velocity": 115, "channel": 0}, {"type": "note_off", "time": 260, "note": 58, "velocity": 108, "channel": 0}, {"type": "note_on", "time": 170, "note": 63, "velocity": 113, "channel": 0}, {"type": "note_off", "time": 203, "note": 63, "velocity": 113, "channel": 0}, {"type": "note_on", "time": 211, "note": 63, "velocity": 119, "channel": 0}, {"type": "note_off", "time": 276, "note": 63, "velocity": 119, "channel": 0}, {"type": "note_on", "time": 48, "note": 58, "velocity": 93, "channel": 0}, {"type": "note_off", "time": 853, "note": 58, "velocity": 93, "channel": 0}, {"type": "note_on", "time": 967, "note": 56, "velocity": 119, "channel": 0}, {"type": "note_off", "time": 284, "note": 56, "velocity": 119, "channel": 0}, {"type": "note_on", "time": 121, "note": 54, "velocity": 113, "channel": 0}, {"type": "note_off", "time": 219, "note": 54, "velocity": 113, "channel": 0}, {"type": "note_on", "time": 73, "note": 53, "velocity": 108, "channel": 0}, {"type": "note_off", "time": 162, "note": 53, "velocity": 108, "channel": 0}, {"type": "note_on", "time": 130, "note": 53, "velocity": 110, "channel": 0}, {"type": "note_off", "time": 203, "note": 53, "velocity": 110, "channel": 0}, {"type": "note_on", "time": 23, "note": 61, "velocity": 102, "channel": 0}, {"type": "note_off", "time": 252, "note": 61, "velocity": 102, "channel": 0}, {"type": "note_on", "time": 32, "note": 63, "velocity": 104, "channel": 0}, {"type": "note_off", "time": 390, "note": 63, "velocity": 104, "channel": 0}, {"type": "note_on", "time": 0, "note": 59, "velocity": 110, "channel": 0}, {"type": "note_off", "time": 243, "note": 59, "velocity": 110, "channel": 0}, {"type": "note_on", "time": 0, "note": 56, "velocity": 99, "channel": 0}, {"type": "note_off", "time": 138, "note": 56, "velocity": 99, "channel": 0}, {"type": "note_on", "time": 0, "note": 58, "velocity": 109, "channel": 0}, {"type": "note_off", "time": 130, "note": 58, "velocity": 109, "channel": 0}, {"type": "note_on", "time": 56, "note": 56, "velocity": 103, "channel": 0}, {"type": "note_off", "time": 162, "note": 56, "velocity": 103, "channel": 0}, {"type": "note_on", "time": 24, "note": 51, "velocity": 103, "channel": 0}, {"type": "note_off", "time": 130, "note": 51, "velocity": 103, "channel": 0}, {"type": "note_on", "time": 24, "note": 54, "velocity": 102, "channel": 0}, {"type": "note_off", "time": 170, "note": 54, "velocity": 102, "channel": 0}, {"type": "note_on", "time": 32, "note": 53, "velocity": 81, "channel": 0}, {"type": "note_off", "time": 715, "note": 53, "velocity": 81, "channel": 0}, {"type": "note_on", "time": 723, "note": 52, "velocity": 113, "channel": 0}, {"type": "note_off", "time": 162, "note": 52, "velocity": 113, "channel": 0}, {"type": "note_on", "time": 32, "note": 54, "velocity": 106, "channel": 0}, {"type": "note_off", "time": 154, "note": 54, "velocity": 106, "channel": 0}, {"type": "note_on", "time": 16, "note": 56, "velocity": 118, "channel": 0}, {"type": "note_off", "time": 211, "note": 56, "velocity": 118, "channel": 0}, {"type": "note_on", "time": 40, "note": 58, "velocity": 115, "channel": 0}, {"type": "note_off", "time": 154, "note": 58, "velocity": 115, "channel": 0}, {"type": "note_on", "time": 8, "note": 61, "velocity": 120, "channel": 0}, {"type": "note_off", "time": 195, "note": 61, "velocity": 120, "channel": 0}, {"type": "note_on", "time": 32, "note": 63, "velocity": 127, "channel": 0}, {"type": "note_off", "time": 154, "note": 63, "velocity": 127, "channel": 0}, {"type": "note_on", "time": 65, "note": 64, "velocity": 116, "channel": 0}, {"type": "note_off", "time": 178, "note": 64, "velocity": 116, "channel": 0}, {"type": "note_on", "time": 65, "note": 66, "velocity": 98, "channel": 0}, {"type": "note_off", "time": 113, "note": 66, "velocity": 98, "channel": 0}, {"type": "note_on", "time": 24, "note": 68, "velocity": 118, "channel": 0}, {"type": "note_off", "time": 170, "note": 68, "velocity": 118, "channel": 0}, {"type": "note_on", "time": 73, "note": 63, "velocity": 123, "channel": 0}, {"type": "note_off", "time": 219, "note": 63, "velocity": 123, "channel": 0}, {"type": "note_on", "time": 16, "note": 61, "velocity": 115, "channel": 0}, {"type": "note_off", "time": 170, "note": 61, "velocity": 115, "channel": 0}, {"type": "note_on", "time": 32, "note": 58, "velocity": 109, "channel": 0}, {"type": "note_off", "time": 195, "note": 58, "velocity": 109, "channel": 0}, {"type": "note_on", "time": 30, "note": 62, "velocity": 104, "channel": 0}, {"type": "note_off", "time": 170, "note": 62, "velocity": 104, "channel": 0}, {"type": "note_on", "time": 18, "note": 63, "velocity": 112, "channel": 0}, {"type": "note_off", "time": 566, "note": 63, "velocity": 112, "channel": 0}, {"type": "note_on", "time": 48, "note": 61, "velocity": 108, "channel": 0}, {"type": "note_off", "time": 127, "note": 61, "velocity": 108, "channel": 0}, {"type": "note_on", "time": 12, "note": 63, "velocity": 108, "channel": 0}, {"type": "note_off", "time": 89, "note": 63, "velocity": 108, "channel": 0}, {"type": "note_on", "time": 42, "note": 62, "velocity": 114, "channel": 0}, {"type": "note_off", "time": 115, "note": 62, "velocity": 114, "channel": 0}, {"type": "note_on", "time": 20, "note": 61, "velocity": 116, "channel": 0}, {"type": "note_off", "time": 195, "note": 61, "velocity": 116, "channel": 0}, {"type": "note_on", "time": 0, "note": 58, "velocity": 108, "channel": 0}, {"type": "note_off", "time": 186, "note": 58, "velocity": 108, "channel": 0}, {"type": "note_on", "time": 24, "note": 56, "velocity": 108, "channel": 0}, {"type": "note_off", "time": 178, "note": 56, "velocity": 108, "channel": 0}, {"type": "note_on", "time": 48, "note": 54, "velocity": 107, "channel": 0}, {"type": "note_off", "time": 195, "note": 54, "velocity": 107, "channel": 0}, {"type": "note_on", "time": 8, "note": 56, "velocity": 108, "channel": 0}, {"type": "note_off", "time": 211, "note": 56, "velocity": 108, "channel": 0}, {"type": "note_on", "time": 211, "note": 51, "velocity": 103, "channel": 0}, {"type": "note_off", "time": 276, "note": 51, "velocity": 103, "channel": 0}, {"type": "note_on", "time": 130, "note": 58, "velocity": 103, "channel": 0}, {"type": "note_off", "time": 398, "note": 58, "velocity": 103, "channel": 0}, {"type": "note_on", "time": 89, "note": 57, "velocity": 115, "channel": 0}, {"type": "note_off", "time": 170, "note": 57, "velocity": 115, "channel": 0}, {"type": "note_on", "time": 146, "note": 56, "velocity": 96, "channel": 0}, {"type": "note_off", "time": 601, "note": 56, "velocity": 96, "channel": 0}, {"type": "note_on", "time": 617, "note": 53, "velocity": 116, "channel": 0}, {"type": "note_off", "time": 235, "note": 53, "velocity": 116, "channel": 0}, {"type": "note_on", "time": 56, "note": 49, "velocity": 115, "channel": 0}, {"type": "note_off", "time": 203, "note": 49, "velocity": 115, "channel": 0}, {"type": "note_on", "time": 56, "note": 48, "velocity": 113, "channel": 0}, {"type": "note_off", "time": 251, "note": 48, "velocity": 113, "channel": 0}, {"type": "note_on", "time": 40, "note": 52, "velocity": 107, "channel": 0}, {"type": "note_off", "time": 211, "note": 52, "velocity": 107, "channel": 0}, {"type": "note_on", "time": 8, "note": 56, "velocity": 121, "channel": 0}, {"type": "note_off", "time": 300, "note": 56, "velocity": 121, "channel": 0}, {"type": "note_on", "time": 74, "note": 58, "velocity": 108, "channel": 0}, {"type": "note_off", "time": 114, "note": 58, "velocity": 108, "channel": 0}, {"type": "note_on", "time": 6, "note": 60, "velocity": 101, "channel": 0}, {"type": "note_off", "time": 203, "note": 60, "velocity": 101, "channel": 0}, {"type": "note_on", "time": 40, "note": 58, "velocity": 111, "channel": 0}, {"type": "note_off", "time": 227, "note": 58, "velocity": 111, "channel": 0}, {"type": "note_on", "time": 40, "note": 53, "velocity": 110, "channel": 0}, {"type": "note_off", "time": 227, "note": 53, "velocity": 110, "channel": 0}, {"type": "note_on", "time": 8, "note": 56, "velocity": 111, "channel": 0}, {"type": "note_off", "time": 89, "note": 56, "velocity": 111, "channel": 0}, {"type": "note_on", "time": 24, "note": 58, "velocity": 109, "channel": 0}, {"type": "note_off", "time": 113, "note": 58, "velocity": 109, "channel": 0}, {"type": "note_on", "time": 24, "note": 53, "velocity": 91, "channel": 0}, {"type": "note_off", "time": 97, "note": 53, "velocity": 91, "channel": 0}, {"type": "note_on", "time": 56, "note": 56, "velocity": 99, "channel": 0}, {"type": "note_off", "time": 284, "note": 56, "velocity": 99, "channel": 0}, {"type": "note_on", "time": 625, "note": 51, "velocity": 115, "channel": 0}, {"type": "note_off", "time": 365, "note": 51, "velocity": 115, "channel": 0}, {"type": "note_on", "time": 16, "note": 50, "velocity": 104, "channel": 0}, {"type": "note_off", "time": 219, "note": 50, "velocity": 104, "channel": 0}, {"type": "note_on", "time": 48, "note": 53, "velocity": 109, "channel": 0}, {"type": "note_off", "time": 178, "note": 53, "velocity": 109, "channel": 0}, {"type": "note_on", "time": 81, "note": 56, "velocity": 118, "channel": 0}, {"type": "note_off", "time": 276, "note": 56, "velocity": 118, "channel": 0}, {"type": "note_on", "time": 56, "note": 58, "velocity": 106, "channel": 0}, {"type": "note_off", "time": 121, "note": 58, "velocity": 106, "channel": 0}, {"type": "note_on", "time": 65, "note": 59, "velocity": 105, "channel": 0}, {"type": "note_off", "time": 284, "note": 59, "velocity": 105, "channel": 0}, {"type": "note_on", "time": 24, "note": 57, "velocity": 109, "channel": 0}, {"type": "note_off", "time": 203, "note": 57, "velocity": 109, "channel": 0}, {"type": "note_on", "time": 48, "note": 58, "velocity": 108, "channel": 0}, {"type": "note_off", "time": 251, "note": 58, "velocity": 108, "channel": 0}, {"type": "note_on", "time": 48, "note": 63, "velocity": 102, "channel": 0}, {"type": "note_off", "time": 577, "note": 63, "velocity": 102, "channel": 0}, {"type": "note_on", "time": 495, "note": 58, "velocity": 123, "channel": 0}, {"type": "note_off", "time": 235, "note": 58, "velocity": 123, "channel": 0}, {"type": "note_on", "time": 40, "note": 62, "velocity": 117, "channel": 0}, {"type": "note_off", "time": 243, "note": 62, "velocity": 117, "channel": 0}, {"type": "note_on", "time": 73, "note": 66, "velocity": 94, "channel": 0}, {"type": "note_off", "time": 243, "note": 66, "velocity": 94, "channel": 0}, {"type": "note_on", "time": 40, "note": 70, "velocity": 105, "channel": 0}, {"type": "note_off", "time": 195, "note": 70, "velocity": 105, "channel": 0}, {"type": "note_on", "time": 81, "note": 67, "velocity": 96, "channel": 0}, {"type": "note_off", "time": 97, "note": 67, "velocity": 96, "channel": 0}, {"type": "note_on", "time": 16, "note": 66, "velocity": 97, "channel": 0}, {"type": "note_off", "time": 195, "note": 66, "velocity": 97, "channel": 0}, {"type": "note_on", "time": 0, "note": 62, "velocity": 113, "channel": 0}, {"type": "note_off", "time": 276, "note": 62, "velocity": 113, "channel": 0}, {"type": "note_on", "time": 0, "note": 58, "velocity": 110, "channel": 0}, {"type": "note_on", "time": 251, "note": 61, "velocity": 118, "channel": 0}, {"type": "note_off", "time": 0, "note": 58, "velocity": 110, "channel": 0}, {"type": "note_off", "time": 284, "note": 61, "velocity": 118, "channel": 0}, {"type": "note_on", "time": 89, "note": 66, "velocity": 95, "channel": 0}, {"type": "note_off", "time": 276, "note": 66, "velocity": 95, "channel": 0}, {"type": "note_on", "time": 24, "note": 70, "velocity": 105, "channel": 0}, {"type": "note_off", "time": 211, "note": 70, "velocity": 105, "channel": 0}, {"type": "note_on", "time": 16, "note": 66, "velocity": 103, "channel": 0}, {"type": "note_off", "time": 56, "note": 66, "velocity": 103, "channel": 0}, {"type": "note_on", "time": 16, "note": 67, "velocity": 104, "channel": 0}, {"type": "note_off", "time": 67, "note": 67, "velocity": 104, "channel": 0}, {"type": "note_on", "time": 19, "note": 66, "velocity": 89, "channel": 0}, {"type": "note_off", "time": 96, "note": 66, "velocity": 89, "channel": 0}, {"type": "note_on", "time": 36, "note": 61, "velocity": 116, "channel": 0}, {"type": "note_off", "time": 186, "note": 61, "velocity": 116, "channel": 0}, {"type": "note_on", "time": 24, "note": 58, "velocity": 111, "channel": 0}, {"type": "note_off", "time": 162, "note": 58, "velocity": 111, "channel": 0}, {"type": "note_on", "time": 16, "note": 54, "velocity": 94, "channel": 0}, {"type": "note_off", "time": 138, "note": 54, "velocity": 94, "channel": 0}, {"type": "note_on", "time": 105, "note": 60, "velocity": 117, "channel": 0}, {"type": "note_off", "time": 203, "note": 60, "velocity": 117, "channel": 0}, {"type": "note_on", "time": 105, "note": 58, "velocity": 99, "channel": 0}, {"type": "note_off", "time": 219, "note": 58, "velocity": 99, "channel": 0}, {"type": "note_on", "time": 174, "note": 66, "velocity": 102, "channel": 0}, {"type": "note_off", "time": 162, "note": 66, "velocity": 102, "channel": 0}, {"type": "note_on", "time": 60, "note": 60, "velocity": 117, "channel": 0}, {"type": "note_off", "time": 170, "note": 60, "velocity": 117, "channel": 0}, {"type": "note_on", "time": 8, "note": 58, "velocity": 108, "channel": 0}, {"type": "note_off", "time": 146, "note": 58, "velocity": 108, "channel": 0}, {"type": "note_on", "time": 32, "note": 54, "velocity": 102, "channel": 0}, {"type": "note_off", "time": 170, "note": 54, "velocity": 102, "channel": 0}, {"type": "note_on", "time": 117, "note": 52, "velocity": 86, "channel": 0}, {"type": "note_off", "time": 577, "note": 52, "velocity": 86, "channel": 0}, {"type": "note_on", "time": 654, "note": 58, "velocity": 121, "channel": 0}, {"type": "note_off", "time": 203, "note": 58, "velocity": 121, "channel": 0}, {"type": "note_on", "time": 8, "note": 53, "velocity": 113, "channel": 0}, {"type": "note_off", "time": 260, "note": 53, "velocity": 113, "channel": 0}, {"type": "note_on", "time": 56, "note": 54, "velocity": 109, "channel": 0}, {"type": "note_off", "time": 268, "note": 54, "velocity": 109, "channel": 0}, {"type": "note_on", "time": 8, "note": 61, "velocity": 121, "channel": 0}, {"type": "note_off", "time": 227, "note": 61, "velocity": 121, "channel": 0}, {"type": "note_on", "time": 32, "note": 63, "velocity": 123, "channel": 0}, {"type": "note_off", "time": 276, "note": 63, "velocity": 123, "channel": 0}, {"type": "note_on", "time": 8, "note": 55, "velocity": 94, "channel": 0}, {"type": "note_off", "time": 235, "note": 55, "velocity": 94, "channel": 0}, {"type": "note_on", "time": 56, "note": 61, "velocity": 115, "channel": 0}, {"type": "note_off", "time": 203, "note": 61, "velocity": 115, "channel": 0}, {"type": "note_on", "time": 73, "note": 63, "velocity": 119, "channel": 0}, {"type": "note_off", "time": 227, "note": 63, "velocity": 119, "channel": 0}, {"type": "note_on", "time": 32, "note": 56, "velocity": 97, "channel": 0}, {"type": "note_off", "time": 446, "note": 56, "velocity": 97, "channel": 0}, {"type": "note_on", "time": 0, "note": 49, "velocity": 96, "channel": 0}, {"type": "note_off", "time": 373, "note": 49, "velocity": 96, "channel": 0}, {"type": "note_on", "time": 89, "note": 53, "velocity": 96, "channel": 0}, {"type": "note_off", "time": 119, "note": 53, "velocity": 96, "channel": 0}, {"type": "note_on", "time": 22, "note": 54, "velocity": 91, "channel": 0}, {"type": "note_off", "time": 406, "note": 54, "velocity": 91, "channel": 0}, {"type": "note_on", "time": 117, "note": 53, "velocity": 80, "channel": 0}, {"type": "note_off", "time": 3372, "note": 53, "velocity": 80, "channel": 0}, {"type": "end_of_track", "time": 0}]]}