{"ticks_per_beat": 192, "tracks": [[{"type": "track_name", "name": "Melody", "time": 0}, {"type": "set_tempo", "tempo": 606060, "time": 0}, {"type": "key_signature", "key": "Db", "time": 0}, {"type": "time_signature", "numerator": 4, "denominator": 4, "clocks_per_click": 24, "notated_32nd_notes_per_beat": 8, "time": 0}, {"type": "note_on", "time": 1770, "note": 56, "velocity": 110, "channel": 0}, {"type": "note_off", "time": 108, "note": 56, "velocity": 110, "channel": 0}, {"type": "note_on", "time": 9, "note": 58, "velocity": 111, "channel": 0}, {"type": "note_off", "time": 391, "note": 58, "velocity": 111, "channel": 0}, {"type": "note_on", "time": 38, "note": 56, "velocity": 111, "channel": 0}, {"type": "note_off", "time": 58, "note": 56, "velocity": 111, "channel": 0}, {"type": "note_on", "time": 0, "note": 54, "velocity": 104, "channel": 0}, {"type": "note_off", "time": 49, "note": 54, "velocity": 104, "channel": 0}, {"type": "note_on", "time": 12, "note": 53, "velocity": 104, "channel": 0}, {"type": "note_off", "time": 38, "note": 53, "velocity": 104, "channel": 0}, {"type": "note_on", "time": 12, "note": 51, "velocity": 102, "channel": 0}, {"type": "note_off", "time": 38, "note": 51, "velocity": 102, "channel": 0}, {"type": "note_on", "time": 25, "note": 49, "velocity": 102, "channel": 0}, {"type": "note_off", "time": 62, "note": 49, "velocity": 102, "channel": 0}, {"type": "note_on", "time": 23, "note": 47, "velocity": 97, "channel": 0}, {"type": "note_off", "time": 161, "note": 47, "velocity": 97, "channel": 0}, {"type": "note_on", "time": 71, "note": 46, "velocity": 102, "channel": 0}, {"type": "note_off", "time": 49, "note": 46, "velocity": 102, "channel": 0}, {"type": "note_on", "time": 27, "note": 49, "velocity": 101, "channel": 0}, {"type": "note_off", "time": 57, "note": 49, "velocity": 101, "channel": 0}, {"type": "note_on", "time": 14, "note": 51, "velocity": 104, "channel": 0}, {"type": "note_off", "time": 62, "note": 51, "velocity": 104, "channel": 0}, {"type": "note_on", "time": 3, "note": 54, "velocity": 99, "channel": 0}, {"type": "note_off", "time": 49, "note": 54, "velocity": 99, "channel": 0}, {"type": "note_on", "time": 0, "note": 58, "velocity": 111, "channel": 0}, {"type": "note_off", "time": 66, "note": 58, "velocity": 111, "channel": 0}, {"type": "note_on", "time": 16, "note": 52, "velocity": 86, "channel": 0}, {"type": "note_off", "time": 211, "note": 52, "velocity": 86, "channel": 0}, {"type": "note_on", "time": 58, "note": 58, "velocity": 113, "channel": 0}, {"type": "note_off", "time": 45, "note": 58, "velocity": 113, "channel": 0}, {"type": "note_on", "time": 5, "note": 57, "velocity": 108, "channel": 0}, {"type": "note_off", "time": 62, "note": 57, "velocity": 108, "channel": 0}, {"type": "note_on", "time": 9, "note": 56, "velocity": 108, "channel": 0}, {"type": "note_off", "time": 58, "note": 56, "velocity": 108, "channel": 0}, {"type": "note_on", "time": 0, "note": 49, "velocity": 103, "channel": 0}, {"type": "note_off", "time": 60, "note": 49, "velocity": 103, "channel": 0}, {"type": "note_on", "time": 23, "note": 53, "velocity": 82, "channel": 0}, {"type": "note_off", "time": 141, "note": 53, "velocity": 82, "channel": 0}, {"type": "note_on", "time": 191, "note": 56, "velocity": 127, "channel": 0}, {"type": "note_off", "time": 86, "note": 56, "velocity": 127, "channel": 0}, {"type": "note_on", "time": 3, "note": 61, "velocity": 124, "channel": 0}, {"type": "note_off", "time": 75, "note": 61, "velocity": 124, "channel": 0}, {"type": "note_on", "time": 4, "note": 63, "velocity": 108, "channel": 0}, {"type": "note_off", "time": 33, "note": 63, "velocity": 108, "channel": 0}, {"type": "note_on", "time": 7, "note": 65, "velocity": 101, "channel": 0}, {"type": "note_off", "time": 54, "note": 65, "velocity": 101, "channel": 0}, {"type": "note_on", "time": 20, "note": 59, "velocity": 88, "channel": 0}, {"type": "note_off", "time": 277, "note": 59, "velocity": 88, "channel": 0}, {"type": "note_on", "time": 22, "note": 56, "velocity": 104, "channel": 0}, {"type": "note_off", "time": 69, "note": 56, "velocity": 104, "channel": 0}, {"type": "note_on", "time": 14, "note": 57, "velocity": 104, "channel": 0}, {"type": "note_off", "time": 79, "note": 57, "velocity": 104, "channel": 0}, {"type": "note_on", "time": 38, "note": 50, "velocity": 91, "channel": 0}, {"type": "note_off", "time": 218, "note": 50, "velocity": 91, "channel": 0}, {"type": "note_on", "time": 25, "note": 49, "velocity": 99, "channel": 0}, {"type": "note_off", "time": 125, "note": 49, "velocity": 99, "channel": 0}, {"type": "note_on", "time": 11, "note": 58, "velocity": 84, "channel": 0}, {"type": "note_off", "time": 215, "note": 58, "velocity": 84, "channel": 0}, {"type": "note_on", "time": 157, "note": 51, "velocity": 104, "channel": 0}, {"type": "note_off", "time": 53, "note": 51, "velocity": 104, "channel": 0}, {"type": "note_on", "time": 5, "note": 54, "velocity": 104, "channel": 0}, {"type": "note_off", "time": 137, "note": 54, "velocity": 104, "channel": 0}, {"type": "note_on", "time": 11, "note": 49, "velocity": 107, "channel": 0}, {"type": "note_off", "time": 51, "note": 49, "velocity": 107, "channel": 0}, {"type": "note_on", "time": 23, "note": 51, "velocity": 106, "channel": 0}, {"type": "note_off", "time": 53, "note": 51, "velocity": 106, "channel": 0}, {"type": "note_on", "time": 0, "note": 54, "velocity": 110, "channel": 0}, {"type": "note_off", "time": 62, "note": 54, "velocity": 110, "channel": 0}, {"type": "note_on", "time": 12, "note": 49, "velocity": 99, "channel": 0}, {"type": "note_off", "time": 47, "note": 49, "velocity": 99, "channel": 0}, {"type": "note_on", "time": 12, "note": 51, "velocity": 93, "channel": 0}, {"type": "note_off", "time": 147, "note": 51, "velocity": 93, "channel": 0}, {"type": "note_on", "time": 34, "note": 55, "velocity": 104, "channel": 0}, {"type": "note_off", "time": 44, "note": 55, "velocity": 104, "channel": 0}, {"type": "note_on", "time": 25, "note": 49, "velocity": 96, "channel": 0}, {"type": "note_off", "time": 42, "note": 49, "velocity": 96, "channel": 0}, {"type": "note_on", "time": 18, "note": 52, "velocity": 81, "channel": 0}, {"type": "note_off", "time": 128, "note": 52, "velocity": 81, "channel": 0}, {"type": "note_on", "time": 33, "note": 55, "velocity": 103, "channel": 0}, {"type": "note_off", "time": 55, "note": 55, "velocity": 103, "channel": 0}, {"type": "note_on", "time": 9, "note": 49, "velocity": 107, "channel": 0}, {"type": "note_off", "time": 68, "note": 49, "velocity": 107, "channel": 0}, {"type": "note_on", "time": 2, "note": 51, "velocity": 106, "channel": 0}, {"type": "note_off", "time": 37, "note": 51, "velocity": 106, "channel": 0}, {"type": "note_on", "time": 2, "note": 52, "velocity": 102, "channel": 0}, {"type": "note_off", "time": 42, "note": 52, "velocity": 102, "channel": 0}, {"type": "note_on", "time": 3, "note": 53, "velocity": 97, "channel": 0}, {"type": "note_off", "time": 55, "note": 53, "velocity": 97, "channel": 0}, {"type": "note_on", "time": 7, "note": 56, "velocity": 94, "channel": 0}, {"type": "note_off", "time": 68, "note": 56, "velocity": 94, "channel": 0}, {"type": "note_on", "time": 0, "note": 49, "velocity": 100, "channel": 0}, {"type": "note_off", "time": 55, "note": 49, "velocity": 100, "channel": 0}, {"type": "note_on", "time": 23, "note": 53, "velocity": 88, "channel": 0}, {"type": "note_off", "time": 205, "note": 53, "velocity": 88, "channel": 0}, {"type": "note_on", "time": 328, "note": 54, "velocity": 111, "channel": 0}, {"type": "note_off", "time": 60, "note": 54, "velocity": 111, "channel": 0}, {"type": "note_on", "time": 5, "note": 56, "velocity": 112, "channel": 0}, {"type": "note_off", "time": 123, "note": 56, "velocity": 112, "channel": 0}, {"type": "note_on", "time": 11, "note": 61, "velocity": 124, "channel": 0}, {"type": "note_off", "time": 66, "note": 61, "velocity": 124, "channel": 0}, {"type": "note_on", "time": 55, "note": 54, "velocity": 102, "channel": 0}, {"type": "note_off", "time": 40, "note": 54, "velocity": 102, "channel": 0}, {"type": "note_on", "time": 5, "note": 55, "velocity": 101, "channel": 0}, {"type": "note_off", "time": 101, "note": 55, "velocity": 101, "channel": 0}, {"type": "note_on", "time": 20, "note": 61, "velocity": 119, "channel": 0}, {"type": "note_off", "time": 75, "note": 61, "velocity": 119, "channel": 0}, {"type": "note_on", "time": 34, "note": 54, "velocity": 93, "channel": 0}, {"type": "note_off", "time": 307, "note": 54, "velocity": 93, "channel": 0}, {"type": "note_on", "time": 81, "note": 50, "velocity": 95, "channel": 0}, {"type": "note_off", "time": 53, "note": 50, "velocity": 95, "channel": 0}, {"type": "note_on", "time": 20, "note": 53, "velocity": 107, "channel": 0}, {"type": "note_off", "time": 25, "note": 53, "velocity": 107, "channel": 0}, {"type": "note_on", "time": 20, "note": 51, "velocity": 104, "channel": 0}, {"type": "note_off", "time": 38, "note": 51, "velocity": 104, "channel": 0}, {"type": "note_on", "time": 1, "note": 58, "velocity": 94, "channel": 0}, {"type": "note_off", "time": 251, "note": 58, "velocity": 94, "channel": 0}, {"type": "note_on", "time": 154, "note": 50, "velocity": 121, "channel": 0}, {"type": "note_off", "time": 44, "note": 50, "velocity": 121, "channel": 0}, {"type": "note_on", "time": 18, "note": 51, "velocity": 110, "channel": 0}, {"type": "note_off", "time": 99, "note": 51, "velocity": 110, "channel": 0}, {"type": "note_on", "time": 27, "note": 49, "velocity": 107, "channel": 0}, {"type": "note_off", "time": 53, "note": 49, "velocity": 107, "channel": 0}, {"type": "note_on", "time": 14, "note": 50, "velocity": 111, "channel": 0}, {"type": "note_off", "time": 57, "note": 50, "velocity": 111, "channel": 0}, {"type": "note_on", "time": 1, "note": 57, "velocity": 104, "channel": 0}, {"type": "note_off", "time": 215, "note": 57, "velocity": 104, "channel": 0}, {"type": "note_on", "time": 211, "note": 49, "velocity": 101, "channel": 0}, {"type": "note_off", "time": 178, "note": 49, "velocity": 101, "channel": 0}, {"type": "note_on", "time": 18, "note": 53, "velocity": 111, "channel": 0}, {"type": "note_off", "time": 64, "note": 53, "velocity": 111, "channel": 0}, {"type": "note_on", "time": 23, "note": 54, "velocity": 117, "channel": 0}, {"type": "note_off", "time": 47, "note": 54, "velocity": 117, "channel": 0}, {"type": "note_on", "time": 7, "note": 49, "velocity": 107, "channel": 0}, {"type": "note_off", "time": 47, "note": 49, "velocity": 107, "channel": 0}, {"type": "note_on", "time": 16, "note": 54, "velocity": 110, "channel": 0}, {"type": "note_off", "time": 62, "note": 54, "velocity": 110, "channel": 0}, {"type": "note_on", "time": 12, "note": 55, "velocity": 104, "channel": 0}, {"type": "note_off", "time": 34, "note": 55, "velocity": 104, "channel": 0}, {"type": "note_on", "time": 27, "note": 49, "velocity": 105, "channel": 0}, {"type": "note_off", "time": 58, "note": 49, "velocity": 105, "channel": 0}, {"type": "note_on", "time": 14, "note": 54, "velocity": 101, "channel": 0}, {"type": "note_off", "time": 27, "note": 54, "velocity": 101, "channel": 0}, {"type": "note_on", "time": 9, "note": 56, "velocity": 90, "channel": 0}, {"type": "note_off", "time": 527, "note": 56, "velocity": 90, "channel": 0}, {"type": "end_of_track", "time": 0}]]}