{"ticks_per_beat": 192, "tracks": [[{"type": "track_name", "name": "Melody", "time": 0}, {"type": "set_tempo", "tempo": 208333, "time": 0}, {"type": "key_signature", "key": "Ab", "time": 0}, {"type": "time_signature", "numerator": 4, "denominator": 4, "clocks_per_click": 24, "notated_32nd_notes_per_beat": 8, "time": 0}, {"type": "note_on", "time": 5098, "note": 55, "velocity": 117, "channel": 0}, {"type": "note_off", "time": 94, "note": 55, "velocity": 117, "channel": 0}, {"type": "note_on", "time": 11, "note": 56, "velocity": 112, "channel": 0}, {"type": "note_off", "time": 84, "note": 56, "velocity": 112, "channel": 0}, {"type": "note_on", "time": 19, "note": 58, "velocity": 115, "channel": 0}, {"type": "note_off", "time": 107, "note": 58, "velocity": 115, "channel": 0}, {"type": "note_on", "time": 6, "note": 59, "velocity": 111, "channel": 0}, {"type": "note_off", "time": 43, "note": 59, "velocity": 111, "channel": 0}, {"type": "note_on", "time": 10, "note": 60, "velocity": 117, "channel": 0}, {"type": "note_off", "time": 359, "note": 60, "velocity": 117, "channel": 0}, {"type": "note_on", "time": 18, "note": 56, "velocity": 115, "channel": 0}, {"type": "note_off", "time": 108, "note": 56, "velocity": 115, "channel": 0}, {"type": "note_on", "time": 72, "note": 55, "velocity": 110, "channel": 0}, {"type": "note_off", "time": 205, "note": 55, "velocity": 110, "channel": 0}, {"type": "note_on", "time": 7, "note": 52, "velocity": 118, "channel": 0}, {"type": "note_off", "time": 96, "note": 52, "velocity": 118, "channel": 0}, {"type": "note_on", "time": 8, "note": 53, "velocity": 113, "channel": 0}, {"type": "note_off", "time": 73, "note": 53, "velocity": 113, "channel": 0}, {"type": "note_on", "time": 2, "note": 59, "velocity": 113, "channel": 0}, {"type": "note_off", "time": 77, "note": 59, "velocity": 113, "channel": 0}, {"type": "note_on", "time": 727, "note": 60, "velocity": 121, "channel": 0}, {"type": "note_off", "time": 109, "note": 60, "velocity": 121, "channel": 0}, {"type": "note_on", "time": 12, "note": 64, "velocity": 121, "channel": 0}, {"type": "note_off", "time": 37, "note": 64, "velocity": 121, "channel": 0}, {"type": "note_on", "time": 40, "note": 68, "velocity": 124, "channel": 0}, {"type": "note_off", "time": 88, "note": 68, "velocity": 124, "channel": 0}, {"type": "note_on", "time": 29, "note": 72, "velocity": 122, "channel": 0}, {"type": "note_off", "time": 164, "note": 72, "velocity": 122, "channel": 0}, {"type": "note_on", "time": 18, "note": 71, "velocity": 126, "channel": 0}, {"type": "note_off", "time": 157, "note": 71, "velocity": 126, "channel": 0}, {"type": "note_on", "time": 12, "note": 65, "velocity": 115, "channel": 0}, {"type": "note_off", "time": 620, "note": 65, "velocity": 115, "channel": 0}, {"type": "note_on", "time": 66, "note": 68, "velocity": 121, "channel": 0}, {"type": "note_off", "time": 64, "note": 68, "velocity": 121, "channel": 0}, {"type": "note_on", "time": 10, "note": 71, "velocity": 114, "channel": 0}, {"type": "note_off", "time": 34, "note": 71, "velocity": 114, "channel": 0}, {"type": "note_on", "time": 4, "note": 68, "velocity": 117, "channel": 0}, {"type": "note_off", "time": 78, "note": 68, "velocity": 117, "channel": 0}, {"type": "note_on", "time": 2, "note": 67, "velocity": 122, "channel": 0}, {"type": "note_off", "time": 86, "note": 67, "velocity": 122, "channel": 0}, {"type": "note_on", "time": 4, "note": 65, "velocity": 121, "channel": 0}, {"type": "note_off", "time": 97, "note": 65, "velocity": 121, "channel": 0}, {"type": "note_on", "time": 4, "note": 64, "velocity": 119, "channel": 0}, {"type": "note_off", "time": 102, "note": 64, "velocity": 119, "channel": 0}, {"type": "note_on", "time": 6, "note": 65, "velocity": 114, "channel": 0}, {"type": "note_off", "time": 57, "note": 65, "velocity": 114, "channel": 0}, {"type": "note_on", "time": 5, "note": 67, "velocity": 114, "channel": 0}, {"type": "note_off", "time": 109, "note": 67, "velocity": 114, "channel": 0}, {"type": "note_on", "time": 15, "note": 64, "velocity": 111, "channel": 0}, {"type": "note_off", "time": 61, "note": 64, "velocity": 111, "channel": 0}, {"type": "note_on", "time": 5, "note": 65, "velocity": 114, "channel": 0}, {"type": "note_off", "time": 87, "note": 65, "velocity": 114, "channel": 0}, {"type": "note_on", "time": 5, "note": 61, "velocity": 122, "channel": 0}, {"type": "note_off", "time": 106, "note": 61, "velocity": 122, "channel": 0}, {"type": "note_on", "time": 5, "note": 60, "velocity": 121, "channel": 0}, {"type": "note_off", "time": 106, "note": 60, "velocity": 121, "channel": 0}, {"type": "note_on", "time": 5, "note": 58, "velocity": 113, "channel": 0}, {"type": "note_off", "time": 61, "note": 58, "velocity": 113, "channel": 0}, {"type": "note_on", "time": 34, "note": 56, "velocity": 109, "channel": 0}, {"type": "note_off", "time": 88, "note": 56, "velocity": 109, "channel": 0}, {"type": "note_on", "time": 3, "note": 55, "velocity": 109, "channel": 0}, {"type": "note_off", "time": 73, "note": 55, "velocity": 109, "channel": 0}, {"type": "note_on", "time": 10, "note": 53, "velocity": 107, "channel": 0}, {"type": "note_off", "time": 93, "note": 53, "velocity": 107, "channel": 0}, {"type": "note_on", "time": 95, "note": 55, "velocity": 110, "channel": 0}, {"type": "note_off", "time": 107, "note": 55, "velocity": 110, "channel": 0}, {"type": "note_on", "time": 9, "note": 53, "velocity": 110, "channel": 0}, {"type": "note_off", "time": 62, "note": 53, "velocity": 110, "channel": 0}, {"type": "note_on", "time": 9, "note": 52, "velocity": 113, "channel": 0}, {"type": "note_off", "time": 108, "note": 52, "velocity": 113, "channel": 0}, {"type": "note_on", "time": 7, "note": 50, "velocity": 108, "channel": 0}, {"type": "note_off", "time": 76, "note": 50, "velocity": 108, "channel": 0}, {"type": "note_on", "time": 8, "note": 49, "velocity": 105, "channel": 0}, {"type": "note_off", "time": 125, "note": 49, "velocity": 105, "channel": 0}, {"type": "note_on", "time": 80, "note": 55, "velocity": 110, "channel": 0}, {"type": "note_off", "time": 62, "note": 55, "velocity": 110, "channel": 0}, {"type": "note_on", "time": 18, "note": 52, "velocity": 108, "channel": 0}, {"type": "note_off", "time": 70, "note": 52, "velocity": 108, "channel": 0}, {"type": "note_on", "time": 10, "note": 53, "velocity": 108, "channel": 0}, {"type": "note_off", "time": 67, "note": 53, "velocity": 108, "channel": 0}, {"type": "note_on", "time": 17, "note": 60, "velocity": 123, "channel": 0}, {"type": "note_off", "time": 112, "note": 60, "velocity": 123, "channel": 0}, {"type": "note_on", "time": 608, "note": 61, "velocity": 127, "channel": 0}, {"type": "note_off", "time": 106, "note": 61, "velocity": 127, "channel": 0}, {"type": "note_on", "time": 5, "note": 62, "velocity": 113, "channel": 0}, {"type": "note_off", "time": 931, "note": 62, "velocity": 113, "channel": 0}, {"type": "note_on", "time": 5, "note": 65, "velocity": 116, "channel": 0}, {"type": "note_off", "time": 76, "note": 65, "velocity": 116, "channel": 0}, {"type": "note_on", "time": 9, "note": 68, "velocity": 119, "channel": 0}, {"type": "note_off", "time": 84, "note": 68, "velocity": 119, "channel": 0}, {"type": "note_on", "time": 22, "note": 60, "velocity": 111, "channel": 0}, {"type": "note_off", "time": 82, "note": 60, "velocity": 111, "channel": 0}, {"type": "note_on", "time": 22, "note": 61, "velocity": 122, "channel": 0}, {"type": "note_off", "time": 101, "note": 61, "velocity": 122, "channel": 0}, {"type": "note_on", "time": 22, "note": 64, "velocity": 116, "channel": 0}, {"type": "note_off", "time": 58, "note": 64, "velocity": 116, "channel": 0}, {"type": "note_on", "time": 6, "note": 67, "velocity": 113, "channel": 0}, {"type": "note_off", "time": 62, "note": 67, "velocity": 113, "channel": 0}, {"type": "note_on", "time": 27, "note": 70, "velocity": 107, "channel": 0}, {"type": "note_off", "time": 50, "note": 70, "velocity": 107, "channel": 0}, {"type": "note_on", "time": 42, "note": 61, "velocity": 119, "channel": 0}, {"type": "note_off", "time": 102, "note": 61, "velocity": 119, "channel": 0}, {"type": "note_on", "time": 8, "note": 62, "velocity": 111, "channel": 0}, {"type": "note_off", "time": 60, "note": 62, "velocity": 111, "channel": 0}, {"type": "note_on", "time": 4, "note": 67, "velocity": 112, "channel": 0}, {"type": "note_off", "time": 72, "note": 67, "velocity": 112, "channel": 0}, {"type": "note_on", "time": 7, "note": 66, "velocity": 115, "channel": 0}, {"type": "note_off", "time": 55, "note": 66, "velocity": 115, "channel": 0}, {"type": "note_on", "time": 5, "note": 65, "velocity": 121, "channel": 0}, {"type": "note_off", "time": 47, "note": 65, "velocity": 121, "channel": 0}, {"type": "note_on", "time": 6, "note": 64, "velocity": 115, "channel": 0}, {"type": "note_off", "time": 120, "note": 64, "velocity": 115, "channel": 0}, {"type": "note_on", "time": 8, "note": 65, "velocity": 112, "channel": 0}, {"type": "note_off", "time": 53, "note": 65, "velocity": 112, "channel": 0}, {"type": "note_on", "time": 5, "note": 67, "velocity": 111, "channel": 0}, {"type": "note_off", "time": 117, "note": 67, "velocity": 111, "channel": 0}, {"type": "note_on", "time": 6, "note": 64, "velocity": 118, "channel": 0}, {"type": "note_off", "time": 59, "note": 64, "velocity": 118, "channel": 0}, {"type": "note_on", "time": 6, "note": 65, "velocity": 112, "channel": 0}, {"type": "note_off", "time": 70, "note": 65, "velocity": 112, "channel": 0}, {"type": "note_on", "time": 7, "note": 60, "velocity": 123, "channel": 0}, {"type": "note_off", "time": 133, "note": 60, "velocity": 123, "channel": 0}, {"type": "note_on", "time": 538, "note": 60, "velocity": 119, "channel": 0}, {"type": "note_off", "time": 102, "note": 60, "velocity": 119, "channel": 0}, {"type": "note_on", "time": 4, "note": 62, "velocity": 107, "channel": 0}, {"type": "note_off", "time": 465, "note": 62, "velocity": 107, "channel": 0}, {"type": "note_on", "time": 12, "note": 61, "velocity": 115, "channel": 0}, {"type": "note_off", "time": 143, "note": 61, "velocity": 115, "channel": 0}, {"type": "note_on", "time": 8, "note": 61, "velocity": 122, "channel": 0}, {"type": "note_off", "time": 99, "note": 61, "velocity": 122, "channel": 0}, {"type": "note_on", "time": 22, "note": 60, "velocity": 125, "channel": 0}, {"type": "note_off", "time": 138, "note": 60, "velocity": 125, "channel": 0}, {"type": "note_on", "time": 10, "note": 56, "velocity": 113, "channel": 0}, {"type": "note_off", "time": 166, "note": 56, "velocity": 113, "channel": 0}, {"type": "note_on", "time": 29, "note": 53, "velocity": 107, "channel": 0}, {"type": "note_off", "time": 70, "note": 53, "velocity": 107, "channel": 0}, {"type": "note_on", "time": 11, "note": 55, "velocity": 99, "channel": 0}, {"type": "note_off", "time": 231, "note": 55, "velocity": 99, "channel": 0}, {"type": "note_on", "time": 63, "note": 53, "velocity": 108, "channel": 0}, {"type": "note_off", "time": 112, "note": 53, "velocity": 108, "channel": 0}, {"type": "note_on", "time": 439, "note": 61, "velocity": 124, "channel": 0}, {"type": "note_off", "time": 95, "note": 61, "velocity": 124, "channel": 0}, {"type": "note_on", "time": 5, "note": 62, "velocity": 118, "channel": 0}, {"type": "note_off", "time": 45, "note": 62, "velocity": 118, "channel": 0}, {"type": "note_on", "time": 27, "note": 67, "velocity": 119, "channel": 0}, {"type": "note_off", "time": 82, "note": 67, "velocity": 119, "channel": 0}, {"type": "note_on", "time": 7, "note": 66, "velocity": 118, "channel": 0}, {"type": "note_off", "time": 44, "note": 66, "velocity": 118, "channel": 0}, {"type": "note_on", "time": 17, "note": 65, "velocity": 120, "channel": 0}, {"type": "note_off", "time": 51, "note": 65, "velocity": 120, "channel": 0}, {"type": "note_on", "time": 10, "note": 64, "velocity": 120, "channel": 0}, {"type": "note_off", "time": 106, "note": 64, "velocity": 120, "channel": 0}, {"type": "note_on", "time": 8, "note": 65, "velocity": 113, "channel": 0}, {"type": "note_off", "time": 90, "note": 65, "velocity": 113, "channel": 0}, {"type": "note_on", "time": 5, "note": 66, "velocity": 119, "channel": 0}, {"type": "note_off", "time": 80, "note": 66, "velocity": 119, "channel": 0}, {"type": "note_on", "time": 3, "note": 67, "velocity": 118, "channel": 0}, {"type": "note_off", "time": 71, "note": 67, "velocity": 118, "channel": 0}, {"type": "note_on", "time": 0, "note": 68, "velocity": 121, "channel": 0}, {"type": "note_off", "time": 97, "note": 68, "velocity": 121, "channel": 0}, {"type": "note_on", "time": 16, "note": 64, "velocity": 115, "channel": 0}, {"type": "note_off", "time": 77, "note": 64, "velocity": 115, "channel": 0}, {"type": "note_on", "time": 21, "note": 67, "velocity": 117, "channel": 0}, {"type": "note_off", "time": 74, "note": 67, "velocity": 117, "channel": 0}, {"type": "note_on", "time": 19, "note": 65, "velocity": 114, "channel": 0}, {"type": "note_off", "time": 67, "note": 65, "velocity": 114, "channel": 0}, {"type": "note_on", "time": 7, "note": 63, "velocity": 121, "channel": 0}, {"type": "note_off", "time": 104, "note": 63, "velocity": 121, "channel": 0}, {"type": "note_on", "time": 16, "note": 62, "velocity": 114, "channel": 0}, {"type": "note_off", "time": 64, "note": 62, "velocity": 114, "channel": 0}, {"type": "note_on", "time": 17, "note": 60, "velocity": 122, "channel": 0}, {"type": "note_off", "time": 103, "note": 60, "velocity": 122, "channel": 0}, {"type": "note_on", "time": 11, "note": 56, "velocity": 113, "channel": 0}, {"type": "note_off", "time": 82, "note": 56, "velocity": 113, "channel": 0}, {"type": "note_on", "time": 6, "note": 53, "velocity": 106, "channel": 0}, {"type": "note_off", "time": 68, "note": 53, "velocity": 106, "channel": 0}, {"type": "note_on", "time": 3, "note": 54, "velocity": 108, "channel": 0}, {"type": "note_off", "time": 56, "note": 54, "velocity": 108, "channel": 0}, {"type": "note_on", "time": 8, "note": 55, "velocity": 106, "channel": 0}, {"type": "note_off", "time": 129, "note": 55, "velocity": 106, "channel": 0}, {"type": "note_on", "time": 11, "note": 58, "velocity": 107, "channel": 0}, {"type": "note_off", "time": 56, "note": 58, "velocity": 107, "channel": 0}, {"type": "note_on", "time": 4, "note": 61, "velocity": 122, "channel": 0}, {"type": "note_off", "time": 109, "note": 61, "velocity": 122, "channel": 0}, {"type": "note_on", "time": 18, "note": 62, "velocity": 113, "channel": 0}, {"type": "note_off", "time": 64, "note": 62, "velocity": 113, "channel": 0}, {"type": "note_on", "time": 2, "note": 65, "velocity": 113, "channel": 0}, {"type": "note_off", "time": 90, "note": 65, "velocity": 113, "channel": 0}, {"type": "note_on", "time": 4, "note": 62, "velocity": 117, "channel": 0}, {"type": "note_off", "time": 97, "note": 62, "velocity": 117, "channel": 0}, {"type": "note_on", "time": 4, "note": 63, "velocity": 117, "channel": 0}, {"type": "note_off", "time": 56, "note": 63, "velocity": 117, "channel": 0}, {"type": "note_on", "time": 21, "note": 65, "velocity": 111, "channel": 0}, {"type": "note_off", "time": 123, "note": 65, "velocity": 111, "channel": 0}, {"type": "note_on", "time": 5, "note": 66, "velocity": 103, "channel": 0}, {"type": "note_off", "time": 50, "note": 66, "velocity": 103, "channel": 0}, {"type": "note_on", "time": 6, "note": 67, "velocity": 111, "channel": 0}, {"type": "note_off", "time": 79, "note": 67, "velocity": 111, "channel": 0}, {"type": "note_on", "time": 10, "note": 72, "velocity": 118, "channel": 0}, {"type": "note_off", "time": 126, "note": 72, "velocity": 118, "channel": 0}, {"type": "note_on", "time": 1, "note": 70, "velocity": 114, "channel": 0}, {"type": "note_off", "time": 44, "note": 70, "velocity": 114, "channel": 0}, {"type": "note_on", "time": 6, "note": 67, "velocity": 115, "channel": 0}, {"type": "note_off", "time": 112, "note": 67, "velocity": 115, "channel": 0}, {"type": "note_on", "time": 289, "note": 61, "velocity": 126, "channel": 0}, {"type": "note_off", "time": 108, "note": 61, "velocity": 126, "channel": 0}, {"type": "note_on", "time": 10, "note": 62, "velocity": 116, "channel": 0}, {"type": "note_off", "time": 70, "note": 62, "velocity": 116, "channel": 0}, {"type": "note_on", "time": 20, "note": 63, "velocity": 121, "channel": 0}, {"type": "note_off", "time": 115, "note": 63, "velocity": 121, "channel": 0}, {"type": "note_on", "time": 17, "note": 65, "velocity": 114, "channel": 0}, {"type": "note_off", "time": 103, "note": 65, "velocity": 114, "channel": 0}, {"type": "note_on", "time": 5, "note": 66, "velocity": 113, "channel": 0}, {"type": "note_off", "time": 59, "note": 66, "velocity": 113, "channel": 0}, {"type": "note_on", "time": 10, "note": 67, "velocity": 109, "channel": 0}, {"type": "note_off", "time": 49, "note": 67, "velocity": 109, "channel": 0}, {"type": "note_on", "time": 3, "note": 66, "velocity": 113, "channel": 0}, {"type": "note_off", "time": 45, "note": 66, "velocity": 113, "channel": 0}, {"type": "note_on", "time": 21, "note": 65, "velocity": 114, "channel": 0}, {"type": "note_off", "time": 72, "note": 65, "velocity": 114, "channel": 0}, {"type": "note_on", "time": 6, "note": 63, "velocity": 117, "channel": 0}, {"type": "note_off", "time": 83, "note": 63, "velocity": 117, "channel": 0}, {"type": "note_on", "time": 6, "note": 60, "velocity": 120, "channel": 0}, {"type": "note_off", "time": 112, "note": 60, "velocity": 120, "channel": 0}, {"type": "note_on", "time": 6, "note": 58, "velocity": 109, "channel": 0}, {"type": "note_off", "time": 59, "note": 58, "velocity": 109, "channel": 0}, {"type": "note_on", "time": 7, "note": 56, "velocity": 113, "channel": 0}, {"type": "note_off", "time": 110, "note": 56, "velocity": 113, "channel": 0}, {"type": "note_on", "time": 9, "note": 54, "velocity": 107, "channel": 0}, {"type": "note_off", "time": 53, "note": 54, "velocity": 107, "channel": 0}, {"type": "note_on", "time": 5, "note": 53, "velocity": 107, "channel": 0}, {"type": "note_off", "time": 122, "note": 53, "velocity": 107, "channel": 0}, {"type": "note_on", "time": 69, "note": 61, "velocity": 125, "channel": 0}, {"type": "note_off", "time": 152, "note": 61, "velocity": 125, "channel": 0}, {"type": "note_on", "time": 16, "note": 64, "velocity": 115, "channel": 0}, {"type": "note_off", "time": 48, "note": 64, "velocity": 115, "channel": 0}, {"type": "note_on", "time": 9, "note": 65, "velocity": 113, "channel": 0}, {"type": "note_off", "time": 106, "note": 65, "velocity": 113, "channel": 0}, {"type": "note_on", "time": 0, "note": 68, "velocity": 115, "channel": 0}, {"type": "note_off", "time": 91, "note": 68, "velocity": 115, "channel": 0}, {"type": "note_on", "time": 3, "note": 66, "velocity": 107, "channel": 0}, {"type": "note_off", "time": 69, "note": 66, "velocity": 107, "channel": 0}, {"type": "note_on", "time": 5, "note": 65, "velocity": 117, "channel": 0}, {"type": "note_off", "time": 93, "note": 65, "velocity": 117, "channel": 0}, {"type": "note_on", "time": 4, "note": 64, "velocity": 122, "channel": 0}, {"type": "note_off", "time": 104, "note": 64, "velocity": 122, "channel": 0}, {"type": "note_on", "time": 33, "note": 58, "velocity": 108, "channel": 0}, {"type": "note_off", "time": 54, "note": 58, "velocity": 108, "channel": 0}, {"type": "note_on", "time": 1, "note": 60, "velocity": 118, "channel": 0}, {"type": "note_off", "time": 116, "note": 60, "velocity": 118, "channel": 0}, {"type": "note_on", "time": 4, "note": 62, "velocity": 111, "channel": 0}, {"type": "note_off", "time": 99, "note": 62, "velocity": 111, "channel": 0}, {"type": "note_on", "time": 7, "note": 64, "velocity": 115, "channel": 0}, {"type": "note_off", "time": 90, "note": 64, "velocity": 115, "channel": 0}, {"type": "note_on", "time": 10, "note": 67, "velocity": 107, "channel": 0}, {"type": "note_off", "time": 69, "note": 67, "velocity": 107, "channel": 0}, {"type": "note_on", "time": 8, "note": 65, "velocity": 104, "channel": 0}, {"type": "note_off", "time": 66, "note": 65, "velocity": 104, "channel": 0}, {"type": "note_on", "time": 2, "note": 64, "velocity": 106, "channel": 0}, {"type": "note_off", "time": 91, "note": 64, "velocity": 106, "channel": 0}, {"type": "note_on", "time": 10, "note": 67, "velocity": 110, "channel": 0}, {"type": "note_off", "time": 102, "note": 67, "velocity": 110, "channel": 0}, {"type": "note_on", "time": 5, "note": 64, "velocity": 111, "channel": 0}, {"type": "note_off", "time": 85, "note": 64, "velocity": 111, "channel": 0}, {"type": "note_on", "time": 9, "note": 65, "velocity": 110, "channel": 0}, {"type": "note_off", "time": 70, "note": 65, "velocity": 110, "channel": 0}, {"type": "note_on", "time": 8, "note": 61, "velocity": 119, "channel": 0}, {"type": "note_off", "time": 113, "note": 61, "velocity": 119, "channel": 0}, {"type": "note_on", "time": 5, "note": 60, "velocity": 115, "channel": 0}, {"type": "note_off", "time": 62, "note": 60, "velocity": 115, "channel": 0}, {"type": "note_on", "time": 517, "note": 63, "velocity": 119, "channel": 0}, {"type": "note_off", "time": 215, "note": 63, "velocity": 119, "channel": 0}, {"type": "note_on", "time": 0, "note": 65, "velocity": 119, "channel": 0}, {"type": "note_off", "time": 418, "note": 65, "velocity": 119, "channel": 0}, {"type": "note_on", "time": 71, "note": 66, "velocity": 120, "channel": 0}, {"type": "note_off", "time": 82, "note": 66, "velocity": 120, "channel": 0}, {"type": "note_on", "time": 6, "note": 67, "velocity": 114, "channel": 0}, {"type": "note_off", "time": 69, "note": 67, "velocity": 114, "channel": 0}, {"type": "note_on", "time": 8, "note": 72, "velocity": 112, "channel": 0}, {"type": "note_off", "time": 62, "note": 72, "velocity": 112, "channel": 0}, {"type": "note_on", "time": 11, "note": 65, "velocity": 107, "channel": 0}, {"type": "note_off", "time": 552, "note": 65, "velocity": 107, "channel": 0}, {"type": "note_on", "time": 18, "note": 63, "velocity": 116, "channel": 0}, {"type": "note_off", "time": 80, "note": 63, "velocity": 116, "channel": 0}, {"type": "note_on", "time": 2, "note": 64, "velocity": 111, "channel": 0}, {"type": "note_off", "time": 45, "note": 64, "velocity": 111, "channel": 0}, {"type": "note_on", "time": 19, "note": 72, "velocity": 110, "channel": 0}, {"type": "note_off", "time": 82, "note": 72, "velocity": 110, "channel": 0}, {"type": "note_on", "time": 26, "note": 66, "velocity": 101, "channel": 0}, {"type": "note_off", "time": 452, "note": 66, "velocity": 101, "channel": 0}, {"type": "note_on", "time": 42, "note": 64, "velocity": 116, "channel": 0}, {"type": "note_off", "time": 62, "note": 64, "velocity": 116, "channel": 0}, {"type": "note_on", "time": 3, "note": 65, "velocity": 111, "channel": 0}, {"type": "note_off", "time": 67, "note": 65, "velocity": 111, "channel": 0}, {"type": "note_on", "time": 8, "note": 60, "velocity": 118, "channel": 0}, {"type": "note_off", "time": 109, "note": 60, "velocity": 118, "channel": 0}, {"type": "note_on", "time": 544, "note": 62, "velocity": 115, "channel": 0}, {"type": "note_off", "time": 180, "note": 62, "velocity": 115, "channel": 0}, {"type": "note_on", "time": 5, "note": 64, "velocity": 116, "channel": 0}, {"type": "note_off", "time": 577, "note": 64, "velocity": 116, "channel": 0}, {"type": "note_on", "time": 8, "note": 61, "velocity": 120, "channel": 0}, {"type": "note_off", "time": 73, "note": 61, "velocity": 120, "channel": 0}, {"type": "note_on", "time": 18, "note": 61, "velocity": 119, "channel": 0}, {"type": "note_off", "time": 88, "note": 61, "velocity": 119, "channel": 0}, {"type": "note_on", "time": 14, "note": 60, "velocity": 108, "channel": 0}, {"type": "note_off", "time": 522, "note": 60, "velocity": 108, "channel": 0}, {"type": "note_on", "time": 46, "note": 58, "velocity": 116, "channel": 0}, {"type": "note_off", "time": 98, "note": 58, "velocity": 116, "channel": 0}, {"type": "note_on", "time": 16, "note": 56, "velocity": 113, "channel": 0}, {"type": "note_off", "time": 79, "note": 56, "velocity": 113, "channel": 0}, {"type": "note_on", "time": 10, "note": 55, "velocity": 102, "channel": 0}, {"type": "note_off", "time": 54, "note": 55, "velocity": 102, "channel": 0}, {"type": "note_on", "time": 8, "note": 53, "velocity": 110, "channel": 0}, {"type": "note_off", "time": 87, "note": 53, "velocity": 110, "channel": 0}, {"type": "note_on", "time": 19, "note": 52, "velocity": 112, "channel": 0}, {"type": "note_off", "time": 100, "note": 52, "velocity": 112, "channel": 0}, {"type": "note_on", "time": 10, "note": 53, "velocity": 110, "channel": 0}, {"type": "note_off", "time": 34, "note": 53, "velocity": 110, "channel": 0}, {"type": "note_on", "time": 21, "note": 55, "velocity": 112, "channel": 0}, {"type": "note_off", "time": 74, "note": 55, "velocity": 112, "channel": 0}, {"type": "note_on", "time": 46, "note": 52, "velocity": 113, "channel": 0}, {"type": "note_off", "time": 73, "note": 52, "velocity": 113, "channel": 0}, {"type": "note_on", "time": 13, "note": 53, "velocity": 112, "channel": 0}, {"type": "note_off", "time": 59, "note": 53, "velocity": 112, "channel": 0}, {"type": "note_on", "time": 13, "note": 56, "velocity": 106, "channel": 0}, {"type": "note_off", "time": 72, "note": 56, "velocity": 106, "channel": 0}, {"type": "note_on", "time": 4, "note": 60, "velocity": 117, "channel": 0}, {"type": "note_off", "time": 127, "note": 60, "velocity": 117, "channel": 0}, {"type": "note_on", "time": 9, "note": 65, "velocity": 107, "channel": 0}, {"type": "note_off", "time": 55, "note": 65, "velocity": 107, "channel": 0}, {"type": "note_on", "time": 7, "note": 68, "velocity": 107, "channel": 0}, {"type": "note_off", "time": 85, "note": 68, "velocity": 107, "channel": 0}, {"type": "note_on", "time": 10, "note": 72, "velocity": 117, "channel": 0}, {"type": "note_off", "time": 155, "note": 72, "velocity": 117, "channel": 0}, {"type": "note_on", "time": 480, "note": 72, "velocity": 122, "channel": 0}, {"type": "note_off", "time": 608, "note": 72, "velocity": 122, "channel": 0}, {"type": "note_on", "time": 25, "note": 75, "velocity": 106, "channel": 0}, {"type": "note_off", "time": 51, "note": 75, "velocity": 106, "channel": 0}, {"type": "note_on", "time": 3, "note": 73, "velocity": 106, "channel": 0}, {"type": "note_off", "time": 56, "note": 73, "velocity": 106, "channel": 0}, {"type": "note_on", "time": 16, "note": 77, "velocity": 111, "channel": 0}, {"type": "note_off", "time": 564, "note": 77, "velocity": 111, "channel": 0}, {"type": "note_on", "time": 36, "note": 73, "velocity": 112, "channel": 0}, {"type": "note_off", "time": 325, "note": 73, "velocity": 112, "channel": 0}, {"type": "note_on", "time": 15, "note": 71, "velocity": 117, "channel": 0}, {"type": "note_off", "time": 54, "note": 71, "velocity": 117, "channel": 0}, {"type": "note_on", "time": 5, "note": 72, "velocity": 116, "channel": 0}, {"type": "note_off", "time": 74, "note": 72, "velocity": 116, "channel": 0}, {"type": "note_on", "time": 8, "note": 71, "velocity": 113, "channel": 0}, {"type": "note_off", "time": 69, "note": 71, "velocity": 113, "channel": 0}, {"type": "note_on", "time": 5, "note": 70, "velocity": 112, "channel": 0}, {"type": "note_off", "time": 58, "note": 70, "velocity": 112, "channel": 0}, {"type": "note_on", "time": 54, "note": 68, "velocity": 107, "channel": 0}, {"type": "note_off", "time": 71, "note": 68, "velocity": 107, "channel": 0}, {"type": "note_on", "time": 5, "note": 67, "velocity": 105, "channel": 0}, {"type": "note_off", "time": 78, "note": 67, "velocity": 105, "channel": 0}, {"type": "note_on", "time": 8, "note": 65, "velocity": 105, "channel": 0}, {"type": "note_off", "time": 72, "note": 65, "velocity": 105, "channel": 0}, {"type": "note_on", "time": 40, "note": 67, "velocity": 104, "channel": 0}, {"type": "note_off", "time": 93, "note": 67, "velocity": 104, "channel": 0}, {"type": "note_on", "time": 4, "note": 65, "velocity": 112, "channel": 0}, {"type": "note_off", "time": 89, "note": 65, "velocity": 112, "channel": 0}, {"type": "note_on", "time": 6, "note": 64, "velocity": 116, "channel": 0}, {"type": "note_off", "time": 112, "note": 64, "velocity": 116, "channel": 0}, {"type": "note_on", "time": 5, "note": 62, "velocity": 109, "channel": 0}, {"type": "note_off", "time": 84, "note": 62, "velocity": 109, "channel": 0}, {"type": "note_on", "time": 9, "note": 61, "velocity": 110, "channel": 0}, {"type": "note_off", "time": 102, "note": 61, "velocity": 110, "channel": 0}, {"type": "note_on", "time": 16, "note": 60, "velocity": 112, "channel": 0}, {"type": "note_off", "time": 74, "note": 60, "velocity": 112, "channel": 0}, {"type": "note_on", "time": 5, "note": 58, "velocity": 110, "channel": 0}, {"type": "note_off", "time": 74, "note": 58, "velocity": 110, "channel": 0}, {"type": "note_on", "time": 23, "note": 56, "velocity": 105, "channel": 0}, {"type": "note_off", "time": 85, "note": 56, "velocity": 105, "channel": 0}, {"type": "note_on", "time": 8, "note": 55, "velocity": 106, "channel": 0}, {"type": "note_off", "time": 75, "note": 55, "velocity": 106, "channel": 0}, {"type": "note_on", "time": 8, "note": 53, "velocity": 107, "channel": 0}, {"type": "note_off", "time": 80, "note": 53, "velocity": 107, "channel": 0}, {"type": "note_on", "time": 1, "note": 52, "velocity": 108, "channel": 0}, {"type": "note_off", "time": 93, "note": 52, "velocity": 108, "channel": 0}, {"type": "note_on", "time": 27, "note": 53, "velocity": 101, "channel": 0}, {"type": "note_off", "time": 54, "note": 53, "velocity": 101, "channel": 0}, {"type": "note_on", "time": 11, "note": 55, "velocity": 105, "channel": 0}, {"type": "note_off", "time": 107, "note": 55, "velocity": 105, "channel": 0}, {"type": "note_on", "time": 10, "note": 52, "velocity": 109, "channel": 0}, {"type": "note_off", "time": 67, "note": 52, "velocity": 109, "channel": 0}, {"type": "note_on", "time": 7, "note": 53, "velocity": 103, "channel": 0}, {"type": "note_off", "time": 62, "note": 53, "velocity": 103, "channel": 0}, {"type": "note_on", "time": 13, "note": 60, "velocity": 116, "channel": 0}, {"type": "note_off", "time": 106, "note": 60, "velocity": 116, "channel": 0}, {"type": "note_on", "time": 316, "note": 53, "velocity": 112, "channel": 0}, {"type": "note_off", "time": 44, "note": 53, "velocity": 112, "channel": 0}, {"type": "note_on", "time": 4, "note": 54, "velocity": 115, "channel": 0}, {"type": "note_off", "time": 85, "note": 54, "velocity": 115, "channel": 0}, {"type": "note_on", "time": 19, "note": 58, "velocity": 112, "channel": 0}, {"type": "note_off", "time": 78, "note": 58, "velocity": 112, "channel": 0}, {"type": "note_on", "time": 10, "note": 61, "velocity": 115, "channel": 0}, {"type": "note_off", "time": 81, "note": 61, "velocity": 115, "channel": 0}, {"type": "note_on", "time": 58, "note": 64, "velocity": 102, "channel": 0}, {"type": "note_off", "time": 57, "note": 64, "velocity": 102, "channel": 0}, {"type": "note_on", "time": 6, "note": 68, "velocity": 104, "channel": 0}, {"type": "note_off", "time": 94, "note": 68, "velocity": 104, "channel": 0}, {"type": "note_on", "time": 14, "note": 66, "velocity": 101, "channel": 0}, {"type": "note_off", "time": 50, "note": 66, "velocity": 101, "channel": 0}, {"type": "note_on", "time": 8, "note": 65, "velocity": 112, "channel": 0}, {"type": "note_off", "time": 124, "note": 65, "velocity": 112, "channel": 0}, {"type": "note_on", "time": 23, "note": 58, "velocity": 101, "channel": 0}, {"type": "note_off", "time": 58, "note": 58, "velocity": 101, "channel": 0}, {"type": "note_on", "time": 12, "note": 60, "velocity": 113, "channel": 0}, {"type": "note_off", "time": 103, "note": 60, "velocity": 113, "channel": 0}, {"type": "note_on", "time": 8, "note": 62, "velocity": 108, "channel": 0}, {"type": "note_off", "time": 62, "note": 62, "velocity": 108, "channel": 0}, {"type": "note_on", "time": 6, "note": 67, "velocity": 112, "channel": 0}, {"type": "note_off", "time": 57, "note": 67, "velocity": 112, "channel": 0}, {"type": "note_on", "time": 5, "note": 66, "velocity": 108, "channel": 0}, {"type": "note_off", "time": 37, "note": 66, "velocity": 108, "channel": 0}, {"type": "note_on", "time": 9, "note": 65, "velocity": 111, "channel": 0}, {"type": "note_off", "time": 60, "note": 65, "velocity": 111, "channel": 0}, {"type": "note_on", "time": 9, "note": 64, "velocity": 120, "channel": 0}, {"type": "note_off", "time": 112, "note": 64, "velocity": 120, "channel": 0}, {"type": "note_on", "time": 14, "note": 62, "velocity": 111, "channel": 0}, {"type": "note_off", "time": 58, "note": 62, "velocity": 111, "channel": 0}, {"type": "note_on", "time": 8, "note": 61, "velocity": 113, "channel": 0}, {"type": "note_off", "time": 125, "note": 61, "velocity": 113, "channel": 0}, {"type": "note_on", "time": 7, "note": 60, "velocity": 115, "channel": 0}, {"type": "note_off", "time": 74, "note": 60, "velocity": 115, "channel": 0}, {"type": "note_on", "time": 10, "note": 58, "velocity": 107, "channel": 0}, {"type": "note_off", "time": 80, "note": 58, "velocity": 107, "channel": 0}, {"type": "note_on", "time": 14, "note": 56, "velocity": 100, "channel": 0}, {"type": "note_off", "time": 63, "note": 56, "velocity": 100, "channel": 0}, {"type": "note_on", "time": 17, "note": 55, "velocity": 108, "channel": 0}, {"type": "note_off", "time": 80, "note": 55, "velocity": 108, "channel": 0}, {"type": "note_on", "time": 12, "note": 53, "velocity": 105, "channel": 0}, {"type": "note_off", "time": 61, "note": 53, "velocity": 105, "channel": 0}, {"type": "note_on", "time": 16, "note": 52, "velocity": 106, "channel": 0}, {"type": "note_off", "time": 131, "note": 52, "velocity": 106, "channel": 0}, {"type": "note_on", "time": 51, "note": 55, "velocity": 103, "channel": 0}, {"type": "note_off", "time": 123, "note": 55, "velocity": 103, "channel": 0}, {"type": "note_on", "time": 7, "note": 52, "velocity": 109, "channel": 0}, {"type": "note_off", "time": 68, "note": 52, "velocity": 109, "channel": 0}, {"type": "note_on", "time": 10, "note": 53, "velocity": 105, "channel": 0}, {"type": "note_off", "time": 47, "note": 53, "velocity": 105, "channel": 0}, {"type": "note_on", "time": 11, "note": 60, "velocity": 117, "channel": 0}, {"type": "note_off", "time": 92, "note": 60, "velocity": 117, "channel": 0}, {"type": "note_on", "time": 256, "note": 54, "velocity": 114, "channel": 0}, {"type": "note_off", "time": 90, "note": 54, "velocity": 114, "channel": 0}, {"type": "note_on", "time": 14, "note": 56, "velocity": 107, "channel": 0}, {"type": "note_off", "time": 66, "note": 56, "velocity": 107, "channel": 0}, {"type": "note_on", "time": 8, "note": 60, "velocity": 120, "channel": 0}, {"type": "note_off", "time": 98, "note": 60, "velocity": 120, "channel": 0}, {"type": "note_on", "time": 9, "note": 63, "velocity": 113, "channel": 0}, {"type": "note_off", "time": 74, "note": 63, "velocity": 113, "channel": 0}, {"type": "note_on", "time": 35, "note": 58, "velocity": 105, "channel": 0}, {"type": "note_off", "time": 88, "note": 58, "velocity": 105, "channel": 0}, {"type": "note_on", "time": 18, "note": 59, "velocity": 103, "channel": 0}, {"type": "note_off", "time": 50, "note": 59, "velocity": 103, "channel": 0}, {"type": "note_on", "time": 12, "note": 61, "velocity": 119, "channel": 0}, {"type": "note_off", "time": 104, "note": 61, "velocity": 119, "channel": 0}, {"type": "note_on", "time": 14, "note": 62, "velocity": 109, "channel": 0}, {"type": "note_off", "time": 68, "note": 62, "velocity": 109, "channel": 0}, {"type": "note_on", "time": 24, "note": 67, "velocity": 111, "channel": 0}, {"type": "note_off", "time": 80, "note": 67, "velocity": 111, "channel": 0}, {"type": "note_on", "time": 115, "note": 60, "velocity": 114, "channel": 0}, {"type": "note_off", "time": 113, "note": 60, "velocity": 114, "channel": 0}, {"type": "note_on", "time": 4, "note": 62, "velocity": 108, "channel": 0}, {"type": "note_off", "time": 50, "note": 62, "velocity": 108, "channel": 0}, {"type": "note_on", "time": 9, "note": 63, "velocity": 113, "channel": 0}, {"type": "note_off", "time": 107, "note": 63, "velocity": 113, "channel": 0}, {"type": "note_on", "time": 10, "note": 64, "velocity": 112, "channel": 0}, {"type": "note_off", "time": 56, "note": 64, "velocity": 112, "channel": 0}, {"type": "note_on", "time": 11, "note": 67, "velocity": 114, "channel": 0}, {"type": "note_off", "time": 85, "note": 67, "velocity": 114, "channel": 0}, {"type": "note_on", "time": 5, "note": 65, "velocity": 112, "channel": 0}, {"type": "note_off", "time": 67, "note": 65, "velocity": 112, "channel": 0}, {"type": "note_on", "time": 16, "note": 64, "velocity": 119, "channel": 0}, {"type": "note_off", "time": 114, "note": 64, "velocity": 119, "channel": 0}, {"type": "note_on", "time": 9, "note": 65, "velocity": 112, "channel": 0}, {"type": "note_off", "time": 78, "note": 65, "velocity": 112, "channel": 0}, {"type": "note_on", "time": 446, "note": 60, "velocity": 115, "channel": 0}, {"type": "note_off", "time": 116, "note": 60, "velocity": 115, "channel": 0}, {"type": "note_on", "time": 7, "note": 61, "velocity": 114, "channel": 0}, {"type": "note_off", "time": 419, "note": 61, "velocity": 114, "channel": 0}, {"type": "note_on", "time": 45, "note": 59, "velocity": 104, "channel": 0}, {"type": "note_off", "time": 31, "note": 59, "velocity": 104, "channel": 0}, {"type": "note_on", "time": 9, "note": 60, "velocity": 122, "channel": 0}, {"type": "note_off", "time": 142, "note": 60, "velocity": 122, "channel": 0}, {"type": "note_on", "time": 14, "note": 53, "velocity": 101, "channel": 0}, {"type": "note_off", "time": 80, "note": 53, "velocity": 101, "channel": 0}, {"type": "note_on", "time": 160, "note": 52, "velocity": 110, "channel": 0}, {"type": "note_off", "time": 61, "note": 52, "velocity": 110, "channel": 0}, {"type": "note_on", "time": 16, "note": 54, "velocity": 111, "channel": 0}, {"type": "note_off", "time": 237, "note": 54, "velocity": 111, "channel": 0}, {"type": "note_on", "time": 6, "note": 52, "velocity": 110, "channel": 0}, {"type": "note_off", "time": 79, "note": 52, "velocity": 110, "channel": 0}, {"type": "note_on", "time": 9, "note": 53, "velocity": 108, "channel": 0}, {"type": "note_off", "time": 77, "note": 53, "velocity": 108, "channel": 0}, {"type": "note_on", "time": 22, "note": 60, "velocity": 121, "channel": 0}, {"type": "note_off", "time": 105, "note": 60, "velocity": 121, "channel": 0}, {"type": "note_on", "time": 333, "note": 56, "velocity": 118, "channel": 0}, {"type": "note_off", "time": 113, "note": 56, "velocity": 118, "channel": 0}, {"type": "note_on", "time": 5, "note": 57, "velocity": 112, "channel": 0}, {"type": "note_off", "time": 52, "note": 57, "velocity": 112, "channel": 0}, {"type": "note_on", "time": 7, "note": 61, "velocity": 115, "channel": 0}, {"type": "note_off", "time": 136, "note": 61, "velocity": 115, "channel": 0}, {"type": "note_on", "time": 12, "note": 62, "velocity": 111, "channel": 0}, {"type": "note_off", "time": 52, "note": 62, "velocity": 111, "channel": 0}, {"type": "note_on", "time": 6, "note": 67, "velocity": 113, "channel": 0}, {"type": "note_off", "time": 90, "note": 67, "velocity": 113, "channel": 0}, {"type": "note_on", "time": 12, "note": 64, "velocity": 111, "channel": 0}, {"type": "note_off", "time": 42, "note": 64, "velocity": 111, "channel": 0}, {"type": "note_on", "time": 5, "note": 62, "velocity": 121, "channel": 0}, {"type": "note_off", "time": 34, "note": 62, "velocity": 121, "channel": 0}, {"type": "note_on", "time": 3, "note": 63, "velocity": 121, "channel": 0}, {"type": "note_off", "time": 197, "note": 63, "velocity": 121, "channel": 0}, {"type": "note_on", "time": 5, "note": 61, "velocity": 116, "channel": 0}, {"type": "note_off", "time": 111, "note": 61, "velocity": 116, "channel": 0}, {"type": "note_on", "time": 5, "note": 62, "velocity": 113, "channel": 0}, {"type": "note_off", "time": 45, "note": 62, "velocity": 113, "channel": 0}, {"type": "note_on", "time": 5, "note": 65, "velocity": 114, "channel": 0}, {"type": "note_off", "time": 111, "note": 65, "velocity": 114, "channel": 0}, {"type": "note_on", "time": 7, "note": 60, "velocity": 117, "channel": 0}, {"type": "note_off", "time": 91, "note": 60, "velocity": 117, "channel": 0}, {"type": "note_on", "time": 6, "note": 56, "velocity": 108, "channel": 0}, {"type": "note_off", "time": 87, "note": 56, "velocity": 108, "channel": 0}, {"type": "note_on", "time": 8, "note": 53, "velocity": 104, "channel": 0}, {"type": "note_off", "time": 73, "note": 53, "velocity": 104, "channel": 0}, {"type": "note_on", "time": 8, "note": 55, "velocity": 106, "channel": 0}, {"type": "note_off", "time": 71, "note": 55, "velocity": 106, "channel": 0}, {"type": "note_on", "time": 343, "note": 63, "velocity": 122, "channel": 0}, {"type": "note_off", "time": 252, "note": 63, "velocity": 122, "channel": 0}, {"type": "note_on", "time": 35, "note": 67, "velocity": 104, "channel": 0}, {"type": "note_off", "time": 47, "note": 67, "velocity": 104, "channel": 0}, {"type": "note_on", "time": 32, "note": 72, "velocity": 119, "channel": 0}, {"type": "note_off", "time": 111, "note": 72, "velocity": 119, "channel": 0}, {"type": "note_on", "time": 6, "note": 71, "velocity": 122, "channel": 0}, {"type": "note_off", "time": 101, "note": 71, "velocity": 122, "channel": 0}, {"type": "note_on", "time": 8, "note": 70, "velocity": 110, "channel": 0}, {"type": "note_off", "time": 359, "note": 70, "velocity": 110, "channel": 0}, {"type": "note_on", "time": 19, "note": 67, "velocity": 111, "channel": 0}, {"type": "note_off", "time": 109, "note": 67, "velocity": 111, "channel": 0}, {"type": "note_on", "time": 68, "note": 66, "velocity": 106, "channel": 0}, {"type": "note_off", "time": 92, "note": 66, "velocity": 106, "channel": 0}, {"type": "note_on", "time": 302, "note": 61, "velocity": 118, "channel": 0}, {"type": "note_off", "time": 101, "note": 61, "velocity": 118, "channel": 0}, {"type": "note_on", "time": 9, "note": 62, "velocity": 114, "channel": 0}, {"type": "note_off", "time": 67, "note": 62, "velocity": 114, "channel": 0}, {"type": "note_on", "time": 21, "note": 63, "velocity": 118, "channel": 0}, {"type": "note_off", "time": 108, "note": 63, "velocity": 118, "channel": 0}, {"type": "note_on", "time": 29, "note": 65, "velocity": 112, "channel": 0}, {"type": "note_off", "time": 66, "note": 65, "velocity": 112, "channel": 0}, {"type": "note_on", "time": 14, "note": 66, "velocity": 115, "channel": 0}, {"type": "note_off", "time": 78, "note": 66, "velocity": 115, "channel": 0}, {"type": "note_on", "time": 9, "note": 65, "velocity": 116, "channel": 0}, {"type": "note_off", "time": 64, "note": 65, "velocity": 116, "channel": 0}, {"type": "note_on", "time": 15, "note": 64, "velocity": 115, "channel": 0}, {"type": "note_off", "time": 130, "note": 64, "velocity": 115, "channel": 0}, {"type": "note_on", "time": 11, "note": 55, "velocity": 105, "channel": 0}, {"type": "note_off", "time": 46, "note": 55, "velocity": 105, "channel": 0}, {"type": "note_on", "time": 8, "note": 54, "velocity": 106, "channel": 0}, {"type": "note_off", "time": 86, "note": 54, "velocity": 106, "channel": 0}, {"type": "note_on", "time": 22, "note": 63, "velocity": 114, "channel": 0}, {"type": "note_off", "time": 67, "note": 63, "velocity": 114, "channel": 0}, {"type": "note_on", "time": 8, "note": 60, "velocity": 116, "channel": 0}, {"type": "note_off", "time": 116, "note": 60, "velocity": 116, "channel": 0}, {"type": "note_on", "time": 10, "note": 58, "velocity": 104, "channel": 0}, {"type": "note_off", "time": 69, "note": 58, "velocity": 104, "channel": 0}, {"type": "note_on", "time": 9, "note": 54, "velocity": 101, "channel": 0}, {"type": "note_off", "time": 79, "note": 54, "velocity": 101, "channel": 0}, {"type": "note_on", "time": 11, "note": 52, "velocity": 106, "channel": 0}, {"type": "note_off", "time": 66, "note": 52, "velocity": 106, "channel": 0}, {"type": "note_on", "time": 15, "note": 53, "velocity": 102, "channel": 0}, {"type": "note_off", "time": 90, "note": 53, "velocity": 102, "channel": 0}, {"type": "note_on", "time": 21, "note": 56, "velocity": 107, "channel": 0}, {"type": "note_off", "time": 60, "note": 56, "velocity": 107, "channel": 0}, {"type": "note_on", "time": 12, "note": 61, "velocity": 115, "channel": 0}, {"type": "note_off", "time": 146, "note": 61, "velocity": 115, "channel": 0}, {"type": "note_on", "time": 3, "note": 64, "velocity": 113, "channel": 0}, {"type": "note_off", "time": 79, "note": 64, "velocity": 113, "channel": 0}, {"type": "note_on", "time": 8, "note": 65, "velocity": 107, "channel": 0}, {"type": "note_off", "time": 66, "note": 65, "velocity": 107, "channel": 0}, {"type": "note_on", "time": 2, "note": 68, "velocity": 112, "channel": 0}, {"type": "note_off", "time": 90, "note": 68, "velocity": 112, "channel": 0}, {"type": "note_on", "time": 12, "note": 67, "velocity": 112, "channel": 0}, {"type": "note_off", "time": 77, "note": 67, "velocity": 112, "channel": 0}, {"type": "note_on", "time": 4, "note": 66, "velocity": 106, "channel": 0}, {"type": "note_off", "time": 36, "note": 66, "velocity": 106, "channel": 0}, {"type": "note_on", "time": 5, "note": 65, "velocity": 112, "channel": 0}, {"type": "note_off", "time": 60, "note": 65, "velocity": 112, "channel": 0}, {"type": "note_on", "time": 7, "note": 64, "velocity": 116, "channel": 0}, {"type": "note_off", "time": 104, "note": 64, "velocity": 116, "channel": 0}, {"type": "note_on", "time": 10, "note": 61, "velocity": 118, "channel": 0}, {"type": "note_off", "time": 61, "note": 61, "velocity": 118, "channel": 0}, {"type": "note_on", "time": 20, "note": 58, "velocity": 108, "channel": 0}, {"type": "note_off", "time": 96, "note": 58, "velocity": 108, "channel": 0}, {"type": "note_on", "time": 7, "note": 59, "velocity": 98, "channel": 0}, {"type": "note_off", "time": 63, "note": 59, "velocity": 98, "channel": 0}, {"type": "note_on", "time": 6, "note": 60, "velocity": 118, "channel": 0}, {"type": "note_off", "time": 102, "note": 60, "velocity": 118, "channel": 0}, {"type": "note_on", "time": 14, "note": 58, "velocity": 105, "channel": 0}, {"type": "note_off", "time": 63, "note": 58, "velocity": 105, "channel": 0}, {"type": "note_on", "time": 11, "note": 56, "velocity": 112, "channel": 0}, {"type": "note_off", "time": 103, "note": 56, "velocity": 112, "channel": 0}, {"type": "note_on", "time": 11, "note": 55, "velocity": 105, "channel": 0}, {"type": "note_off", "time": 48, "note": 55, "velocity": 105, "channel": 0}, {"type": "note_on", "time": 12, "note": 53, "velocity": 115, "channel": 0}, {"type": "note_off", "time": 120, "note": 53, "velocity": 115, "channel": 0}, {"type": "note_on", "time": 74, "note": 55, "velocity": 110, "channel": 0}, {"type": "note_off", "time": 112, "note": 55, "velocity": 110, "channel": 0}, {"type": "note_on", "time": 12, "note": 52, "velocity": 104, "channel": 0}, {"type": "note_off", "time": 70, "note": 52, "velocity": 104, "channel": 0}, {"type": "note_on", "time": 11, "note": 53, "velocity": 111, "channel": 0}, {"type": "note_off", "time": 91, "note": 53, "velocity": 111, "channel": 0}, {"type": "note_on", "time": 2, "note": 60, "velocity": 103, "channel": 0}, {"type": "note_off", "time": 84, "note": 60, "velocity": 103, "channel": 0}, {"type": "note_on", "time": 437, "note": 60, "velocity": 126, "channel": 0}, {"type": "note_off", "time": 205, "note": 60, "velocity": 126, "channel": 0}, {"type": "note_on", "time": 13, "note": 61, "velocity": 118, "channel": 0}, {"type": "note_off", "time": 106, "note": 61, "velocity": 118, "channel": 0}, {"type": "note_on", "time": 14, "note": 62, "velocity": 114, "channel": 0}, {"type": "note_off", "time": 74, "note": 62, "velocity": 114, "channel": 0}, {"type": "note_on", "time": 17, "note": 67, "velocity": 103, "channel": 0}, {"type": "note_off", "time": 86, "note": 67, "velocity": 103, "channel": 0}, {"type": "note_on", "time": 56, "note": 60, "velocity": 101, "channel": 0}, {"type": "note_off", "time": 680, "note": 60, "velocity": 101, "channel": 0}, {"type": "note_on", "time": 58, "note": 57, "velocity": 111, "channel": 0}, {"type": "note_off", "time": 69, "note": 57, "velocity": 111, "channel": 0}, {"type": "note_on", "time": 5, "note": 58, "velocity": 104, "channel": 0}, {"type": "note_off", "time": 64, "note": 58, "velocity": 104, "channel": 0}, {"type": "note_on", "time": 15, "note": 60, "velocity": 121, "channel": 0}, {"type": "note_off", "time": 101, "note": 60, "velocity": 121, "channel": 0}, {"type": "note_on", "time": 14, "note": 61, "velocity": 114, "channel": 0}, {"type": "note_off", "time": 63, "note": 61, "velocity": 114, "channel": 0}, {"type": "note_on", "time": 33, "note": 53, "velocity": 97, "channel": 0}, {"type": "note_off", "time": 501, "note": 53, "velocity": 97, "channel": 0}, {"type": "note_on", "time": 14, "note": 58, "velocity": 90, "channel": 0}, {"type": "note_off", "time": 78, "note": 58, "velocity": 90, "channel": 0}, {"type": "note_on", "time": 13, "note": 60, "velocity": 121, "channel": 0}, {"type": "note_off", "time": 117, "note": 60, "velocity": 121, "channel": 0}, {"type": "note_on", "time": 490, "note": 61, "velocity": 120, "channel": 0}, {"type": "note_off", "time": 108, "note": 61, "velocity": 120, "channel": 0}, {"type": "note_on", "time": 0, "note": 62, "velocity": 106, "channel": 0}, {"type": "note_off", "time": 528, "note": 62, "velocity": 106, "channel": 0}, {"type": "note_on", "time": 8, "note": 60, "velocity": 115, "channel": 0}, {"type": "note_off", "time": 92, "note": 60, "velocity": 115, "channel": 0}, {"type": "note_on", "time": 16, "note": 64, "velocity": 101, "channel": 0}, {"type": "note_off", "time": 40, "note": 64, "velocity": 101, "channel": 0}, {"type": "note_on", "time": 9, "note": 68, "velocity": 90, "channel": 0}, {"type": "note_off", "time": 52, "note": 68, "velocity": 90, "channel": 0}, {"type": "note_on", "time": 28, "note": 74, "velocity": 112, "channel": 0}, {"type": "note_off", "time": 98, "note": 74, "velocity": 112, "channel": 0}, {"type": "note_on", "time": 12, "note": 73, "velocity": 110, "channel": 0}, {"type": "note_off", "time": 43, "note": 73, "velocity": 110, "channel": 0}, {"type": "note_on", "time": 5, "note": 72, "velocity": 116, "channel": 0}, {"type": "note_off", "time": 107, "note": 72, "velocity": 116, "channel": 0}, {"type": "note_on", "time": 37, "note": 67, "velocity": 108, "channel": 0}, {"type": "note_off", "time": 147, "note": 67, "velocity": 108, "channel": 0}, {"type": "note_on", "time": 15, "note": 66, "velocity": 104, "channel": 0}, {"type": "note_off", "time": 74, "note": 66, "velocity": 104, "channel": 0}, {"type": "note_on", "time": 23, "note": 65, "velocity": 110, "channel": 0}, {"type": "note_off", "time": 61, "note": 65, "velocity": 110, "channel": 0}, {"type": "note_on", "time": 12, "note": 62, "velocity": 116, "channel": 0}, {"type": "note_off", "time": 99, "note": 62, "velocity": 116, "channel": 0}, {"type": "note_on", "time": 80, "note": 61, "velocity": 118, "channel": 0}, {"type": "note_off", "time": 56, "note": 61, "velocity": 118, "channel": 0}, {"type": "note_on", "time": 16, "note": 60, "velocity": 118, "channel": 0}, {"type": "note_off", "time": 105, "note": 60, "velocity": 118, "channel": 0}, {"type": "note_on", "time": 11, "note": 55, "velocity": 108, "channel": 0}, {"type": "note_off", "time": 84, "note": 55, "velocity": 108, "channel": 0}, {"type": "note_on", "time": 7, "note": 54, "velocity": 112, "channel": 0}, {"type": "note_off", "time": 49, "note": 54, "velocity": 112, "channel": 0}, {"type": "note_on", "time": 10, "note": 53, "velocity": 111, "channel": 0}, {"type": "note_off", "time": 79, "note": 53, "velocity": 111, "channel": 0}, {"type": "end_of_track", "time": 0}]]}