{"ticks_per_beat": 192, "tracks": [[{"type": "note_on", "time": 0, "note": 55, "velocity": 87, "channel": 0}, {"type": "note_off", "time": 75, "note": 55, "velocity": 87, "channel": 0}, {"type": "note_on", "time": 8, "note": 54, "velocity": 91, "channel": 0}, {"type": "note_off", "time": 37, "note": 54, "velocity": 91, "channel": 0}, {"type": "note_on", "time": 13, "note": 55, "velocity": 93, "channel": 0}, {"type": "note_off", "time": 71, "note": 55, "velocity": 93, "channel": 0}, {"type": "note_on", "time": 2, "note": 58, "velocity": 96, "channel": 0}, {"type": "note_off", "time": 55, "note": 58, "velocity": 96, "channel": 0}, {"type": "note_on", "time": 8, "note": 62, "velocity": 107, "channel": 0}, {"type": "note_off", "time": 55, "note": 62, "velocity": 107, "channel": 0}, {"type": "note_on", "time": 11, "note": 65, "velocity": 107, "channel": 0}, {"type": "note_off", "time": 53, "note": 65, "velocity": 107, "channel": 0}, {"type": "note_on", "time": 4, "note": 63, "velocity": 112, "channel": 0}, {"type": "note_off", "time": 51, "note": 63, "velocity": 112, "channel": 0}, {"type": "note_on", "time": 15, "note": 62, "velocity": 115, "channel": 0}, {"type": "note_off", "time": 60, "note": 62, "velocity": 115, "channel": 0}, {"type": "note_on", "time": 2, "note": 60, "velocity": 111, "channel": 0}, {"type": "note_off", "time": 46, "note": 60, "velocity": 111, "channel": 0}, {"type": "note_on", "time": 15, "note": 58, "velocity": 109, "channel": 0}, {"type": "note_off", "time": 64, "note": 58, "velocity": 109, "channel": 0}, {"type": "note_on", "time": 4, "note": 55, "velocity": 101, "channel": 0}, {"type": "note_off", "time": 271, "note": 55, "velocity": 101, "channel": 0}, {"type": "note_on", "time": 15, "note": 58, "velocity": 108, "channel": 0}, {"type": "note_off", "time": 66, "note": 58, "velocity": 108, "channel": 0}, {"type": "note_on", "time": 37, "note": 62, "velocity": 116, "channel": 0}, {"type": "note_off", "time": 73, "note": 62, "velocity": 116, "channel": 0}, {"type": "note_on", "time": 11, "note": 65, "velocity": 99, "channel": 0}, {"type": "note_off", "time": 51, "note": 65, "velocity": 99, "channel": 0}, {"type": "note_on", "time": 6, "note": 62, "velocity": 106, "channel": 0}, {"type": "note_off", "time": 129, "note": 62, "velocity": 106, "channel": 0}, {"type": "note_on", "time": 0, "note": 58, "velocity": 101, "channel": 0}, {"type": "note_off", "time": 225, "note": 58, "velocity": 101, "channel": 0}, {"type": "track_name", "name": "Melody", "time": 225}, {"type": "set_tempo", "tempo": 500000, "time": 0}, {"type": "key_signature", "key": "Bb", "time": 0}, {"type": "time_signature", "numerator": 4, "denominator": 4, "clocks_per_click": 24, "notated_32nd_notes_per_beat": 8, "time": 0}, {"type": "note_on", "time": 6, "note": 63, "velocity": 117, "channel": 0}, {"type": "note_off", "time": 49, "note": 63, "velocity": 117, "channel": 0}, {"type": "note_on", "time": 14, "note": 65, "velocity": 117, "channel": 0}, {"type": "note_off", "time": 269, "note": 65, "velocity": 117, "channel": 0}, {"type": "note_on", "time": 16, "note": 66, "velocity": 119, "channel": 0}, {"type": "note_off", "time": 44, "note": 66, "velocity": 119, "channel": 0}, {"type": "note_on", "time": 4, "note": 67, "velocity": 109, "channel": 0}, {"type": "note_off", "time": 55, "note": 67, "velocity": 109, "channel": 0}, {"type": "note_on", "time": 8, "note": 63, "velocity": 115, "channel": 0}, {"type": "note_off", "time": 53, "note": 63, "velocity": 115, "channel": 0}, {"type": "note_on", "time": 8, "note": 62, "velocity": 115, "channel": 0}, {"type": "note_off", "time": 51, "note": 62, "velocity": 115, "channel": 0}, {"type": "note_on", "time": 8, "note": 60, "velocity": 104, "channel": 0}, {"type": "note_off", "time": 69, "note": 60, "velocity": 104, "channel": 0}, {"type": "note_on", "time": 6, "note": 58, "velocity": 107, "channel": 0}, {"type": "note_off", "time": 53, "note": 58, "velocity": 107, "channel": 0}, {"type": "note_on", "time": 0, "note": 55, "velocity": 106, "channel": 0}, {"type": "note_off", "time": 60, "note": 55, "velocity": 106, "channel": 0}, {"type": "note_on", "time": 11, "note": 57, "velocity": 99, "channel": 0}, {"type": "note_off", "time": 100, "note": 57, "velocity": 99, "channel": 0}, {"type": "note_on", "time": 15, "note": 65, "velocity": 95, "channel": 0}, {"type": "note_off", "time": 42, "note": 65, "velocity": 95, "channel": 0}, {"type": "note_on", "time": 32, "note": 61, "velocity": 90, "channel": 0}, {"type": "note_off", "time": 161, "note": 61, "velocity": 90, "channel": 0}, {"type": "note_on", "time": 15, "note": 60, "velocity": 88, "channel": 0}, {"type": "note_off", "time": 332, "note": 60, "velocity": 88, "channel": 0}, {"type": "note_on", "time": 11, "note": 58, "velocity": 94, "channel": 0}, {"type": "note_off", "time": 75, "note": 58, "velocity": 94, "channel": 0}, {"type": "note_on", "time": 32, "note": 65, "velocity": 93, "channel": 0}, {"type": "note_off", "time": 235, "note": 65, "velocity": 93, "channel": 0}, {"type": "note_on", "time": 314, "note": 72, "velocity": 119, "channel": 0}, {"type": "note_off", "time": 80, "note": 72, "velocity": 119, "channel": 0}, {"type": "note_on", "time": 6, "note": 69, "velocity": 118, "channel": 0}, {"type": "note_off", "time": 66, "note": 69, "velocity": 118, "channel": 0}, {"type": "note_on", "time": 6, "note": 70, "velocity": 115, "channel": 0}, {"type": "note_off", "time": 98, "note": 70, "velocity": 115, "channel": 0}, {"type": "note_on", "time": 4, "note": 69, "velocity": 120, "channel": 0}, {"type": "note_off", "time": 44, "note": 69, "velocity": 120, "channel": 0}, {"type": "note_on", "time": 0, "note": 67, "velocity": 119, "channel": 0}, {"type": "note_off", "time": 60, "note": 67, "velocity": 119, "channel": 0}, {"type": "note_on", "time": 2, "note": 65, "velocity": 122, "channel": 0}, {"type": "note_off", "time": 53, "note": 65, "velocity": 122, "channel": 0}, {"type": "note_on", "time": 11, "note": 63, "velocity": 121, "channel": 0}, {"type": "note_off", "time": 60, "note": 63, "velocity": 121, "channel": 0}, {"type": "note_on", "time": 2, "note": 62, "velocity": 120, "channel": 0}, {"type": "note_off", "time": 51, "note": 62, "velocity": 120, "channel": 0}, {"type": "note_on", "time": 4, "note": 60, "velocity": 112, "channel": 0}, {"type": "note_off", "time": 49, "note": 60, "velocity": 112, "channel": 0}, {"type": "note_on", "time": 4, "note": 58, "velocity": 103, "channel": 0}, {"type": "note_off", "time": 73, "note": 58, "velocity": 103, "channel": 0}, {"type": "note_on", "time": 5, "note": 57, "velocity": 107, "channel": 0}, {"type": "note_off", "time": 79, "note": 57, "velocity": 107, "channel": 0}, {"type": "note_on", "time": 11, "note": 64, "velocity": 110, "channel": 0}, {"type": "note_off", "time": 193, "note": 64, "velocity": 110, "channel": 0}, {"type": "note_on", "time": 8, "note": 56, "velocity": 110, "channel": 0}, {"type": "note_off", "time": 129, "note": 56, "velocity": 110, "channel": 0}, {"type": "note_on", "time": 26, "note": 64, "velocity": 101, "channel": 0}, {"type": "note_off", "time": 111, "note": 64, "velocity": 101, "channel": 0}, {"type": "note_on", "time": 11, "note": 55, "velocity": 111, "channel": 0}, {"type": "note_off", "time": 113, "note": 55, "velocity": 111, "channel": 0}, {"type": "note_on", "time": 8, "note": 64, "velocity": 110, "channel": 0}, {"type": "note_off", "time": 75, "note": 64, "velocity": 110, "channel": 0}, {"type": "note_on", "time": 49, "note": 54, "velocity": 97, "channel": 0}, {"type": "note_off", "time": 122, "note": 54, "velocity": 97, "channel": 0}, {"type": "note_on", "time": 236, "note": 63, "velocity": 115, "channel": 0}, {"type": "note_off", "time": 50, "note": 63, "velocity": 115, "channel": 0}, {"type": "note_on", "time": 4, "note": 63, "velocity": 113, "channel": 0}, {"type": "note_off", "time": 95, "note": 63, "velocity": 113, "channel": 0}, {"type": "note_on", "time": 1, "note": 61, "velocity": 100, "channel": 0}, {"type": "note_off", "time": 51, "note": 61, "velocity": 100, "channel": 0}, {"type": "note_on", "time": 8, "note": 62, "velocity": 93, "channel": 0}, {"type": "note_off", "time": 307, "note": 62, "velocity": 93, "channel": 0}, {"type": "note_on", "time": 193, "note": 49, "velocity": 111, "channel": 0}, {"type": "note_off", "time": 89, "note": 49, "velocity": 111, "channel": 0}, {"type": "note_on", "time": 6, "note": 51, "velocity": 105, "channel": 0}, {"type": "note_off", "time": 93, "note": 51, "velocity": 105, "channel": 0}, {"type": "note_on", "time": 11, "note": 48, "velocity": 99, "channel": 0}, {"type": "note_off", "time": 51, "note": 48, "velocity": 99, "channel": 0}, {"type": "note_on", "time": 4, "note": 50, "velocity": 102, "channel": 0}, {"type": "note_off", "time": 309, "note": 50, "velocity": 102, "channel": 0}, {"type": "note_on", "time": 22, "note": 57, "velocity": 106, "channel": 0}, {"type": "note_off", "time": 57, "note": 57, "velocity": 106, "channel": 0}, {"type": "note_on", "time": 8, "note": 54, "velocity": 100, "channel": 0}, {"type": "note_off", "time": 55, "note": 54, "velocity": 100, "channel": 0}, {"type": "note_on", "time": 2, "note": 55, "velocity": 105, "channel": 0}, {"type": "note_off", "time": 55, "note": 55, "velocity": 105, "channel": 0}, {"type": "note_on", "time": 4, "note": 58, "velocity": 100, "channel": 0}, {"type": "note_off", "time": 51, "note": 58, "velocity": 100, "channel": 0}, {"type": "note_on", "time": 0, "note": 62, "velocity": 99, "channel": 0}, {"type": "note_off", "time": 78, "note": 62, "velocity": 99, "channel": 0}, {"type": "note_on", "time": 0, "note": 67, "velocity": 92, "channel": 0}, {"type": "note_off", "time": 53, "note": 67, "velocity": 92, "channel": 0}, {"type": "note_on", "time": 4, "note": 64, "velocity": 87, "channel": 0}, {"type": "note_off", "time": 50, "note": 64, "velocity": 87, "channel": 0}, {"type": "note_on", "time": 2, "note": 65, "velocity": 82, "channel": 0}, {"type": "note_off", "time": 216, "note": 65, "velocity": 82, "channel": 0}, {"type": "note_on", "time": 213, "note": 63, "velocity": 94, "channel": 0}, {"type": "note_off", "time": 26, "note": 63, "velocity": 94, "channel": 0}, {"type": "note_on", "time": 2, "note": 64, "velocity": 114, "channel": 0}, {"type": "note_off", "time": 33, "note": 64, "velocity": 114, "channel": 0}, {"type": "note_on", "time": 2, "note": 65, "velocity": 111, "channel": 0}, {"type": "note_off", "time": 60, "note": 65, "velocity": 111, "channel": 0}, {"type": "note_on", "time": 8, "note": 61, "velocity": 115, "channel": 0}, {"type": "note_off", "time": 69, "note": 61, "velocity": 115, "channel": 0}, {"type": "note_on", "time": 2, "note": 65, "velocity": 117, "channel": 0}, {"type": "note_off", "time": 73, "note": 65, "velocity": 117, "channel": 0}, {"type": "note_on", "time": 0, "note": 60, "velocity": 110, "channel": 0}, {"type": "note_off", "time": 118, "note": 60, "velocity": 110, "channel": 0}, {"type": "note_on", "time": 0, "note": 65, "velocity": 122, "channel": 0}, {"type": "note_off", "time": 149, "note": 65, "velocity": 122, "channel": 0}, {"type": "note_on", "time": 6, "note": 56, "velocity": 103, "channel": 0}, {"type": "note_off", "time": 156, "note": 56, "velocity": 103, "channel": 0}, {"type": "note_on", "time": 0, "note": 58, "velocity": 102, "channel": 0}, {"type": "note_off", "time": 261, "note": 58, "velocity": 102, "channel": 0}, {"type": "note_on", "time": 14, "note": 56, "velocity": 98, "channel": 0}, {"type": "note_off", "time": 73, "note": 56, "velocity": 98, "channel": 0}, {"type": "note_on", "time": 17, "note": 55, "velocity": 95, "channel": 0}, {"type": "note_off", "time": 238, "note": 55, "velocity": 95, "channel": 0}, {"type": "note_on", "time": 278, "note": 58, "velocity": 111, "channel": 0}, {"type": "note_off", "time": 147, "note": 58, "velocity": 111, "channel": 0}, {"type": "note_on", "time": 2, "note": 62, "velocity": 120, "channel": 0}, {"type": "note_off", "time": 95, "note": 62, "velocity": 120, "channel": 0}, {"type": "note_on", "time": 26, "note": 64, "velocity": 113, "channel": 0}, {"type": "note_off", "time": 49, "note": 64, "velocity": 113, "channel": 0}, {"type": "note_on", "time": 2, "note": 65, "velocity": 113, "channel": 0}, {"type": "note_off", "time": 62, "note": 65, "velocity": 113, "channel": 0}, {"type": "note_on", "time": 2, "note": 63, "velocity": 115, "channel": 0}, {"type": "note_off", "time": 57, "note": 63, "velocity": 115, "channel": 0}, {"type": "note_on", "time": 20, "note": 67, "velocity": 86, "channel": 0}, {"type": "note_off", "time": 75, "note": 67, "velocity": 86, "channel": 0}, {"type": "note_on", "time": 11, "note": 70, "velocity": 96, "channel": 0}, {"type": "note_off", "time": 57, "note": 70, "velocity": 96, "channel": 0}, {"type": "note_on", "time": 2, "note": 69, "velocity": 93, "channel": 0}, {"type": "note_off", "time": 53, "note": 69, "velocity": 93, "channel": 0}, {"type": "note_on", "time": 24, "note": 72, "velocity": 84, "channel": 0}, {"type": "note_off", "time": 82, "note": 72, "velocity": 84, "channel": 0}, {"type": "note_on", "time": 6, "note": 67, "velocity": 92, "channel": 0}, {"type": "note_off", "time": 55, "note": 67, "velocity": 92, "channel": 0}, {"type": "note_on", "time": 17, "note": 63, "velocity": 94, "channel": 0}, {"type": "note_off", "time": 271, "note": 63, "velocity": 94, "channel": 0}, {"type": "note_on", "time": 176, "note": 60, "velocity": 112, "channel": 0}, {"type": "note_off", "time": 49, "note": 60, "velocity": 112, "channel": 0}, {"type": "note_on", "time": 0, "note": 62, "velocity": 114, "channel": 0}, {"type": "note_off", "time": 35, "note": 62, "velocity": 114, "channel": 0}, {"type": "note_on", "time": 0, "note": 65, "velocity": 114, "channel": 0}, {"type": "note_off", "time": 33, "note": 65, "velocity": 114, "channel": 0}, {"type": "note_on", "time": 4, "note": 62, "velocity": 105, "channel": 0}, {"type": "note_off", "time": 44, "note": 62, "velocity": 105, "channel": 0}, {"type": "note_on", "time": 8, "note": 63, "velocity": 108, "channel": 0}, {"type": "note_off", "time": 37, "note": 63, "velocity": 108, "channel": 0}, {"type": "note_on", "time": 2, "note": 65, "velocity": 105, "channel": 0}, {"type": "note_off", "time": 40, "note": 65, "velocity": 105, "channel": 0}, {"type": "note_on", "time": 13, "note": 67, "velocity": 113, "channel": 0}, {"type": "note_off", "time": 234, "note": 67, "velocity": 113, "channel": 0}, {"type": "note_on", "time": 0, "note": 66, "velocity": 102, "channel": 0}, {"type": "note_off", "time": 28, "note": 66, "velocity": 102, "channel": 0}, {"type": "note_on", "time": 8, "note": 67, "velocity": 99, "channel": 0}, {"type": "note_off", "time": 22, "note": 67, "velocity": 99, "channel": 0}, {"type": "note_on", "time": 0, "note": 66, "velocity": 92, "channel": 0}, {"type": "note_off", "time": 26, "note": 66, "velocity": 92, "channel": 0}, {"type": "note_on", "time": 0, "note": 65, "velocity": 97, "channel": 0}, {"type": "note_off", "time": 62, "note": 65, "velocity": 97, "channel": 0}, {"type": "note_on", "time": 0, "note": 62, "velocity": 111, "channel": 0}, {"type": "note_off", "time": 169, "note": 62, "velocity": 111, "channel": 0}, {"type": "note_on", "time": 0, "note": 60, "velocity": 103, "channel": 0}, {"type": "note_off", "time": 49, "note": 60, "velocity": 103, "channel": 0}, {"type": "note_on", "time": 7, "note": 58, "velocity": 97, "channel": 0}, {"type": "note_off", "time": 35, "note": 58, "velocity": 97, "channel": 0}, {"type": "note_on", "time": 0, "note": 59, "velocity": 96, "channel": 0}, {"type": "note_off", "time": 44, "note": 59, "velocity": 96, "channel": 0}, {"type": "note_on", "time": 1, "note": 64, "velocity": 110, "channel": 0}, {"type": "note_off", "time": 39, "note": 64, "velocity": 110, "channel": 0}, {"type": "note_on", "time": 0, "note": 65, "velocity": 105, "channel": 0}, {"type": "note_off", "time": 14, "note": 65, "velocity": 105, "channel": 0}, {"type": "note_on", "time": 1, "note": 64, "velocity": 111, "channel": 0}, {"type": "note_off", "time": 42, "note": 64, "velocity": 111, "channel": 0}, {"type": "note_on", "time": 6, "note": 62, "velocity": 110, "channel": 0}, {"type": "note_off", "time": 48, "note": 62, "velocity": 110, "channel": 0}, {"type": "note_on", "time": 1, "note": 59, "velocity": 97, "channel": 0}, {"type": "note_off", "time": 32, "note": 59, "velocity": 97, "channel": 0}, {"type": "note_on", "time": 0, "note": 56, "velocity": 95, "channel": 0}, {"type": "note_off", "time": 40, "note": 56, "velocity": 95, "channel": 0}, {"type": "note_on", "time": 20, "note": 53, "velocity": 100, "channel": 0}, {"type": "note_off", "time": 37, "note": 53, "velocity": 100, "channel": 0}, {"type": "note_on", "time": 7, "note": 52, "velocity": 94, "channel": 0}, {"type": "note_off", "time": 169, "note": 52, "velocity": 94, "channel": 0}, {"type": "note_on", "time": 253, "note": 74, "velocity": 114, "channel": 0}, {"type": "note_off", "time": 29, "note": 74, "velocity": 114, "channel": 0}, {"type": "note_on", "time": 6, "note": 72, "velocity": 124, "channel": 0}, {"type": "note_off", "time": 32, "note": 72, "velocity": 124, "channel": 0}, {"type": "note_on", "time": 3, "note": 71, "velocity": 119, "channel": 0}, {"type": "note_off", "time": 21, "note": 71, "velocity": 119, "channel": 0}, {"type": "note_on", "time": 3, "note": 70, "velocity": 119, "channel": 0}, {"type": "note_off", "time": 37, "note": 70, "velocity": 119, "channel": 0}, {"type": "note_on", "time": 10, "note": 67, "velocity": 121, "channel": 0}, {"type": "note_off", "time": 37, "note": 67, "velocity": 121, "channel": 0}, {"type": "note_on", "time": 4, "note": 66, "velocity": 120, "channel": 0}, {"type": "note_off", "time": 32, "note": 66, "velocity": 120, "channel": 0}, {"type": "note_on", "time": 3, "note": 62, "velocity": 109, "channel": 0}, {"type": "note_off", "time": 45, "note": 62, "velocity": 109, "channel": 0}, {"type": "note_on", "time": 1, "note": 58, "velocity": 107, "channel": 0}, {"type": "note_off", "time": 54, "note": 58, "velocity": 107, "channel": 0}, {"type": "note_on", "time": 3, "note": 54, "velocity": 104, "channel": 0}, {"type": "note_off", "time": 62, "note": 54, "velocity": 104, "channel": 0}, {"type": "note_on", "time": 17, "note": 52, "velocity": 91, "channel": 0}, {"type": "note_off", "time": 47, "note": 52, "velocity": 91, "channel": 0}, {"type": "note_on", "time": 0, "note": 53, "velocity": 108, "channel": 0}, {"type": "note_off", "time": 40, "note": 53, "velocity": 108, "channel": 0}, {"type": "note_on", "time": 4, "note": 57, "velocity": 100, "channel": 0}, {"type": "note_off", "time": 21, "note": 57, "velocity": 100, "channel": 0}, {"type": "note_on", "time": 25, "note": 61, "velocity": 108, "channel": 0}, {"type": "note_off", "time": 37, "note": 61, "velocity": 108, "channel": 0}, {"type": "note_on", "time": 4, "note": 62, "velocity": 108, "channel": 0}, {"type": "note_off", "time": 53, "note": 62, "velocity": 108, "channel": 0}, {"type": "note_on", "time": 17, "note": 65, "velocity": 112, "channel": 0}, {"type": "note_off", "time": 47, "note": 65, "velocity": 112, "channel": 0}, {"type": "note_on", "time": 4, "note": 64, "velocity": 120, "channel": 0}, {"type": "note_off", "time": 32, "note": 64, "velocity": 120, "channel": 0}, {"type": "note_on", "time": 0, "note": 65, "velocity": 118, "channel": 0}, {"type": "note_off", "time": 26, "note": 65, "velocity": 118, "channel": 0}, {"type": "note_on", "time": 1, "note": 64, "velocity": 115, "channel": 0}, {"type": "note_off", "time": 48, "note": 64, "velocity": 115, "channel": 0}, {"type": "note_on", "time": 4, "note": 61, "velocity": 109, "channel": 0}, {"type": "note_off", "time": 39, "note": 61, "velocity": 109, "channel": 0}, {"type": "note_on", "time": 7, "note": 60, "velocity": 104, "channel": 0}, {"type": "note_off", "time": 31, "note": 60, "velocity": 104, "channel": 0}, {"type": "note_on", "time": 1, "note": 58, "velocity": 107, "channel": 0}, {"type": "note_off", "time": 32, "note": 58, "velocity": 107, "channel": 0}, {"type": "note_on", "time": 0, "note": 56, "velocity": 102, "channel": 0}, {"type": "note_off", "time": 29, "note": 56, "velocity": 102, "channel": 0}, {"type": "note_on", "time": 6, "note": 55, "velocity": 96, "channel": 0}, {"type": "note_off", "time": 45, "note": 55, "velocity": 96, "channel": 0}, {"type": "note_on", "time": 23, "note": 51, "velocity": 97, "channel": 0}, {"type": "note_off", "time": 57, "note": 51, "velocity": 97, "channel": 0}, {"type": "note_on", "time": 1, "note": 52, "velocity": 103, "channel": 0}, {"type": "note_off", "time": 40, "note": 52, "velocity": 103, "channel": 0}, {"type": "note_on", "time": 3, "note": 55, "velocity": 99, "channel": 0}, {"type": "note_off", "time": 40, "note": 55, "velocity": 99, "channel": 0}, {"type": "note_on", "time": 1, "note": 52, "velocity": 101, "channel": 0}, {"type": "note_off", "time": 36, "note": 52, "velocity": 101, "channel": 0}, {"type": "note_on", "time": 3, "note": 54, "velocity": 97, "channel": 0}, {"type": "note_off", "time": 57, "note": 54, "velocity": 97, "channel": 0}, {"type": "note_on", "time": 3, "note": 55, "velocity": 95, "channel": 0}, {"type": "note_off", "time": 34, "note": 55, "velocity": 95, "channel": 0}, {"type": "note_on", "time": 3, "note": 56, "velocity": 87, "channel": 0}, {"type": "note_off", "time": 39, "note": 56, "velocity": 87, "channel": 0}, {"type": "note_on", "time": 3, "note": 57, "velocity": 90, "channel": 0}, {"type": "note_off", "time": 36, "note": 57, "velocity": 90, "channel": 0}, {"type": "note_on", "time": 0, "note": 60, "velocity": 97, "channel": 0}, {"type": "note_off", "time": 28, "note": 60, "velocity": 97, "channel": 0}, {"type": "note_on", "time": 0, "note": 62, "velocity": 102, "channel": 0}, {"type": "note_off", "time": 29, "note": 62, "velocity": 102, "channel": 0}, {"type": "note_on", "time": 1, "note": 63, "velocity": 101, "channel": 0}, {"type": "note_off", "time": 29, "note": 63, "velocity": 101, "channel": 0}, {"type": "note_on", "time": 3, "note": 65, "velocity": 114, "channel": 0}, {"type": "note_off", "time": 61, "note": 65, "velocity": 114, "channel": 0}, {"type": "note_on", "time": 7, "note": 64, "velocity": 113, "channel": 0}, {"type": "note_off", "time": 40, "note": 64, "velocity": 113, "channel": 0}, {"type": "note_on", "time": 0, "note": 65, "velocity": 110, "channel": 0}, {"type": "note_off", "time": 57, "note": 65, "velocity": 110, "channel": 0}, {"type": "note_on", "time": 7, "note": 67, "velocity": 100, "channel": 0}, {"type": "note_off", "time": 67, "note": 67, "velocity": 100, "channel": 0}, {"type": "note_on", "time": 4, "note": 68, "velocity": 97, "channel": 0}, {"type": "note_off", "time": 70, "note": 68, "velocity": 97, "channel": 0}, {"type": "note_on", "time": 264, "note": 69, "velocity": 115, "channel": 0}, {"type": "note_off", "time": 103, "note": 69, "velocity": 115, "channel": 0}, {"type": "note_on", "time": 4, "note": 72, "velocity": 126, "channel": 0}, {"type": "note_off", "time": 57, "note": 72, "velocity": 126, "channel": 0}, {"type": "note_on", "time": 14, "note": 67, "velocity": 117, "channel": 0}, {"type": "note_off", "time": 114, "note": 67, "velocity": 117, "channel": 0}, {"type": "note_on", "time": 4, "note": 63, "velocity": 118, "channel": 0}, {"type": "note_off", "time": 78, "note": 63, "velocity": 118, "channel": 0}, {"type": "note_on", "time": 4, "note": 60, "velocity": 106, "channel": 0}, {"type": "note_off", "time": 83, "note": 60, "velocity": 106, "channel": 0}, {"type": "note_on", "time": 1, "note": 61, "velocity": 101, "channel": 0}, {"type": "note_off", "time": 51, "note": 61, "velocity": 101, "channel": 0}, {"type": "note_on", "time": 20, "note": 62, "velocity": 111, "channel": 0}, {"type": "note_off", "time": 89, "note": 62, "velocity": 111, "channel": 0}, {"type": "note_on", "time": 10, "note": 65, "velocity": 100, "channel": 0}, {"type": "note_off", "time": 56, "note": 65, "velocity": 100, "channel": 0}, {"type": "note_on", "time": 1, "note": 69, "velocity": 101, "channel": 0}, {"type": "note_off", "time": 68, "note": 69, "velocity": 101, "channel": 0}, {"type": "note_on", "time": 10, "note": 72, "velocity": 100, "channel": 0}, {"type": "note_off", "time": 72, "note": 72, "velocity": 100, "channel": 0}, {"type": "note_on", "time": 86, "note": 69, "velocity": 99, "channel": 0}, {"type": "note_off", "time": 42, "note": 69, "velocity": 99, "channel": 0}, {"type": "note_on", "time": 0, "note": 70, "velocity": 98, "channel": 0}, {"type": "note_off", "time": 108, "note": 70, "velocity": 98, "channel": 0}, {"type": "note_on", "time": 1, "note": 67, "velocity": 102, "channel": 0}, {"type": "note_off", "time": 72, "note": 67, "velocity": 102, "channel": 0}, {"type": "note_on", "time": 10, "note": 63, "velocity": 115, "channel": 0}, {"type": "note_off", "time": 100, "note": 63, "velocity": 115, "channel": 0}, {"type": "note_on", "time": 3, "note": 60, "velocity": 98, "channel": 0}, {"type": "note_off", "time": 79, "note": 60, "velocity": 98, "channel": 0}, {"type": "note_on", "time": 7, "note": 62, "velocity": 110, "channel": 0}, {"type": "note_off", "time": 117, "note": 62, "velocity": 110, "channel": 0}, {"type": "note_on", "time": 3, "note": 65, "velocity": 92, "channel": 0}, {"type": "note_off", "time": 247, "note": 65, "velocity": 92, "channel": 0}, {"type": "note_on", "time": 235, "note": 62, "velocity": 118, "channel": 0}, {"type": "note_off", "time": 108, "note": 62, "velocity": 118, "channel": 0}, {"type": "note_on", "time": 12, "note": 62, "velocity": 120, "channel": 0}, {"type": "note_off", "time": 109, "note": 62, "velocity": 120, "channel": 0}, {"type": "note_on", "time": 18, "note": 63, "velocity": 110, "channel": 0}, {"type": "note_off", "time": 21, "note": 63, "velocity": 110, "channel": 0}, {"type": "note_on", "time": 3, "note": 64, "velocity": 113, "channel": 0}, {"type": "note_off", "time": 84, "note": 64, "velocity": 113, "channel": 0}, {"type": "note_on", "time": 6, "note": 66, "velocity": 115, "channel": 0}, {"type": "note_off", "time": 122, "note": 66, "velocity": 115, "channel": 0}, {"type": "note_on", "time": 18, "note": 64, "velocity": 114, "channel": 0}, {"type": "note_off", "time": 42, "note": 64, "velocity": 114, "channel": 0}, {"type": "note_on", "time": 0, "note": 66, "velocity": 104, "channel": 0}, {"type": "note_off", "time": 23, "note": 66, "velocity": 104, "channel": 0}, {"type": "note_on", "time": 3, "note": 64, "velocity": 103, "channel": 0}, {"type": "note_off", "time": 327, "note": 64, "velocity": 103, "channel": 0}, {"type": "note_on", "time": 153, "note": 57, "velocity": 113, "channel": 0}, {"type": "note_off", "time": 45, "note": 57, "velocity": 113, "channel": 0}, {"type": "note_on", "time": 4, "note": 59, "velocity": 108, "channel": 0}, {"type": "note_off", "time": 173, "note": 59, "velocity": 108, "channel": 0}, {"type": "note_on", "time": 9, "note": 57, "velocity": 111, "channel": 0}, {"type": "note_off", "time": 29, "note": 57, "velocity": 111, "channel": 0}, {"type": "note_on", "time": 0, "note": 59, "velocity": 93, "channel": 0}, {"type": "note_off", "time": 32, "note": 59, "velocity": 93, "channel": 0}, {"type": "note_on", "time": 1, "note": 57, "velocity": 91, "channel": 0}, {"type": "note_off", "time": 305, "note": 57, "velocity": 91, "channel": 0}, {"type": "note_on", "time": 170, "note": 55, "velocity": 107, "channel": 0}, {"type": "note_off", "time": 211, "note": 55, "velocity": 107, "channel": 0}, {"type": "note_on", "time": 1, "note": 57, "velocity": 106, "channel": 0}, {"type": "note_off", "time": 48, "note": 57, "velocity": 106, "channel": 0}, {"type": "note_on", "time": 4, "note": 58, "velocity": 106, "channel": 0}, {"type": "note_off", "time": 59, "note": 58, "velocity": 106, "channel": 0}, {"type": "note_on", "time": 4, "note": 60, "velocity": 97, "channel": 0}, {"type": "note_off", "time": 45, "note": 60, "velocity": 97, "channel": 0}, {"type": "note_on", "time": 0, "note": 62, "velocity": 104, "channel": 0}, {"type": "note_off", "time": 87, "note": 62, "velocity": 104, "channel": 0}, {"type": "note_on", "time": 3, "note": 63, "velocity": 107, "channel": 0}, {"type": "note_off", "time": 97, "note": 63, "velocity": 107, "channel": 0}, {"type": "note_on", "time": 1, "note": 61, "velocity": 98, "channel": 0}, {"type": "note_off", "time": 37, "note": 61, "velocity": 98, "channel": 0}, {"type": "note_on", "time": 0, "note": 62, "velocity": 100, "channel": 0}, {"type": "note_off", "time": 145, "note": 62, "velocity": 100, "channel": 0}, {"type": "note_on", "time": 29, "note": 55, "velocity": 85, "channel": 0}, {"type": "note_off", "time": 263, "note": 55, "velocity": 85, "channel": 0}, {"type": "note_on", "time": 198, "note": 56, "velocity": 101, "channel": 0}, {"type": "note_off", "time": 163, "note": 56, "velocity": 101, "channel": 0}, {"type": "note_on", "time": 6, "note": 58, "velocity": 98, "channel": 0}, {"type": "note_off", "time": 270, "note": 58, "velocity": 98, "channel": 0}, {"type": "note_on", "time": 55, "note": 65, "velocity": 117, "channel": 0}, {"type": "note_off", "time": 102, "note": 65, "velocity": 117, "channel": 0}, {"type": "note_on", "time": 8, "note": 61, "velocity": 111, "channel": 0}, {"type": "note_off", "time": 89, "note": 61, "velocity": 111, "channel": 0}, {"type": "note_on", "time": 15, "note": 57, "velocity": 109, "channel": 0}, {"type": "note_off", "time": 80, "note": 57, "velocity": 109, "channel": 0}, {"type": "note_on", "time": 0, "note": 53, "velocity": 103, "channel": 0}, {"type": "note_off", "time": 106, "note": 53, "velocity": 103, "channel": 0}, {"type": "note_on", "time": 20, "note": 60, "velocity": 90, "channel": 0}, {"type": "note_off", "time": 89, "note": 60, "velocity": 90, "channel": 0}, {"type": "note_on", "time": 4, "note": 57, "velocity": 104, "channel": 0}, {"type": "note_off", "time": 98, "note": 57, "velocity": 104, "channel": 0}, {"type": "note_on", "time": 0, "note": 53, "velocity": 101, "channel": 0}, {"type": "note_off", "time": 89, "note": 53, "velocity": 101, "channel": 0}, {"type": "note_on", "time": 16, "note": 57, "velocity": 98, "channel": 0}, {"type": "note_off", "time": 42, "note": 57, "velocity": 98, "channel": 0}, {"type": "note_on", "time": 7, "note": 59, "velocity": 103, "channel": 0}, {"type": "note_off", "time": 57, "note": 59, "velocity": 103, "channel": 0}, {"type": "note_on", "time": 4, "note": 58, "velocity": 103, "channel": 0}, {"type": "note_off", "time": 176, "note": 58, "velocity": 103, "channel": 0}, {"type": "note_on", "time": 283, "note": 51, "velocity": 70, "channel": 0}, {"type": "note_off", "time": 26, "note": 51, "velocity": 70, "channel": 0}, {"type": "note_on", "time": 6, "note": 54, "velocity": 110, "channel": 0}, {"type": "note_off", "time": 109, "note": 54, "velocity": 110, "channel": 0}, {"type": "note_on", "time": 8, "note": 55, "velocity": 111, "channel": 0}, {"type": "note_off", "time": 46, "note": 55, "velocity": 111, "channel": 0}, {"type": "note_on", "time": 0, "note": 58, "velocity": 109, "channel": 0}, {"type": "note_off", "time": 57, "note": 58, "velocity": 109, "channel": 0}, {"type": "note_on", "time": 0, "note": 62, "velocity": 101, "channel": 0}, {"type": "note_off", "time": 51, "note": 62, "velocity": 101, "channel": 0}, {"type": "note_on", "time": 2, "note": 65, "velocity": 89, "channel": 0}, {"type": "note_off", "time": 86, "note": 65, "velocity": 89, "channel": 0}, {"type": "note_on", "time": 6, "note": 63, "velocity": 106, "channel": 0}, {"type": "note_off", "time": 80, "note": 63, "velocity": 106, "channel": 0}, {"type": "note_on", "time": 53, "note": 55, "velocity": 98, "channel": 0}, {"type": "note_off", "time": 60, "note": 55, "velocity": 98, "channel": 0}, {"type": "note_on", "time": 6, "note": 58, "velocity": 109, "channel": 0}, {"type": "note_off", "time": 75, "note": 58, "velocity": 109, "channel": 0}, {"type": "note_on", "time": 4, "note": 62, "velocity": 112, "channel": 0}, {"type": "note_off", "time": 100, "note": 62, "velocity": 112, "channel": 0}, {"type": "note_on", "time": 8, "note": 60, "velocity": 108, "channel": 0}, {"type": "note_off", "time": 57, "note": 60, "velocity": 108, "channel": 0}, {"type": "note_on", "time": 28, "note": 54, "velocity": 9, "channel": 0}, {"type": "note_off", "time": 479, "note": 54, "velocity": 9, "channel": 0}, {"type": "note_on", "time": 216, "note": 53, "velocity": 123, "channel": 0}, {"type": "note_off", "time": 84, "note": 53, "velocity": 123, "channel": 0}, {"type": "note_on", "time": 8, "note": 49, "velocity": 124, "channel": 0}, {"type": "note_off", "time": 82, "note": 49, "velocity": 124, "channel": 0}, {"type": "note_on", "time": 2, "note": 50, "velocity": 127, "channel": 0}, {"type": "note_off", "time": 78, "note": 50, "velocity": 127, "channel": 0}, {"type": "note_on", "time": 24, "note": 53, "velocity": 122, "channel": 0}, {"type": "note_off", "time": 69, "note": 53, "velocity": 122, "channel": 0}, {"type": "note_on", "time": 13, "note": 57, "velocity": 120, "channel": 0}, {"type": "note_off", "time": 84, "note": 57, "velocity": 120, "channel": 0}, {"type": "note_on", "time": 2, "note": 60, "velocity": 96, "channel": 0}, {"type": "note_off", "time": 98, "note": 60, "velocity": 96, "channel": 0}, {"type": "note_on", "time": 31, "note": 58, "velocity": 110, "channel": 0}, {"type": "note_off", "time": 60, "note": 58, "velocity": 110, "channel": 0}, {"type": "note_on", "time": 17, "note": 57, "velocity": 92, "channel": 0}, {"type": "note_off", "time": 361, "note": 57, "velocity": 92, "channel": 0}, {"type": "note_on", "time": 111, "note": 54, "velocity": 120, "channel": 0}, {"type": "note_off", "time": 44, "note": 54, "velocity": 120, "channel": 0}, {"type": "note_on", "time": 0, "note": 55, "velocity": 120, "channel": 0}, {"type": "note_off", "time": 46, "note": 55, "velocity": 120, "channel": 0}, {"type": "note_on", "time": 13, "note": 56, "velocity": 117, "channel": 0}, {"type": "note_off", "time": 115, "note": 56, "velocity": 117, "channel": 0}, {"type": "note_on", "time": 0, "note": 54, "velocity": 119, "channel": 0}, {"type": "note_off", "time": 42, "note": 54, "velocity": 119, "channel": 0}, {"type": "note_on", "time": 8, "note": 55, "velocity": 118, "channel": 0}, {"type": "note_off", "time": 75, "note": 55, "velocity": 118, "channel": 0}, {"type": "note_on", "time": 0, "note": 58, "velocity": 115, "channel": 0}, {"type": "note_off", "time": 35, "note": 58, "velocity": 115, "channel": 0}, {"type": "note_on", "time": 6, "note": 62, "velocity": 125, "channel": 0}, {"type": "note_off", "time": 80, "note": 62, "velocity": 125, "channel": 0}, {"type": "note_on", "time": 14, "note": 63, "velocity": 116, "channel": 0}, {"type": "note_off", "time": 81, "note": 63, "velocity": 116, "channel": 0}, {"type": "note_on", "time": 12, "note": 65, "velocity": 103, "channel": 0}, {"type": "note_off", "time": 368, "note": 65, "velocity": 103, "channel": 0}, {"type": "note_on", "time": 2, "note": 63, "velocity": 113, "channel": 0}, {"type": "note_off", "time": 82, "note": 63, "velocity": 113, "channel": 0}, {"type": "note_on", "time": 6, "note": 62, "velocity": 116, "channel": 0}, {"type": "note_off", "time": 78, "note": 62, "velocity": 116, "channel": 0}, {"type": "note_on", "time": 42, "note": 51, "velocity": 104, "channel": 0}, {"type": "note_off", "time": 220, "note": 51, "velocity": 104, "channel": 0}, {"type": "note_on", "time": 323, "note": 54, "velocity": 117, "channel": 0}, {"type": "note_off", "time": 73, "note": 54, "velocity": 117, "channel": 0}, {"type": "note_on", "time": 0, "note": 52, "velocity": 107, "channel": 0}, {"type": "note_off", "time": 66, "note": 52, "velocity": 107, "channel": 0}, {"type": "note_on", "time": 8, "note": 53, "velocity": 106, "channel": 0}, {"type": "note_off", "time": 60, "note": 53, "velocity": 106, "channel": 0}, {"type": "note_on", "time": 6, "note": 57, "velocity": 110, "channel": 0}, {"type": "note_off", "time": 62, "note": 57, "velocity": 110, "channel": 0}, {"type": "note_on", "time": 0, "note": 60, "velocity": 115, "channel": 0}, {"type": "note_off", "time": 111, "note": 60, "velocity": 115, "channel": 0}, {"type": "note_on", "time": 15, "note": 65, "velocity": 122, "channel": 0}, {"type": "note_off", "time": 98, "note": 65, "velocity": 122, "channel": 0}, {"type": "note_on", "time": 20, "note": 59, "velocity": 96, "channel": 0}, {"type": "note_off", "time": 247, "note": 59, "velocity": 96, "channel": 0}, {"type": "note_on", "time": 6, "note": 55, "velocity": 111, "channel": 0}, {"type": "note_off", "time": 37, "note": 55, "velocity": 111, "channel": 0}, {"type": "note_on", "time": 7, "note": 58, "velocity": 109, "channel": 0}, {"type": "note_off", "time": 144, "note": 58, "velocity": 109, "channel": 0}, {"type": "note_on", "time": 1, "note": 54, "velocity": 109, "channel": 0}, {"type": "note_off", "time": 44, "note": 54, "velocity": 109, "channel": 0}, {"type": "note_on", "time": 6, "note": 55, "velocity": 107, "channel": 0}, {"type": "note_off", "time": 48, "note": 55, "velocity": 107, "channel": 0}, {"type": "note_on", "time": 1, "note": 58, "velocity": 107, "channel": 0}, {"type": "note_off", "time": 32, "note": 58, "velocity": 107, "channel": 0}, {"type": "note_on", "time": 7, "note": 62, "velocity": 108, "channel": 0}, {"type": "note_off", "time": 28, "note": 62, "velocity": 108, "channel": 0}, {"type": "note_on", "time": 0, "note": 65, "velocity": 108, "channel": 0}, {"type": "note_off", "time": 28, "note": 65, "velocity": 108, "channel": 0}, {"type": "note_on", "time": 3, "note": 62, "velocity": 96, "channel": 0}, {"type": "note_off", "time": 37, "note": 62, "velocity": 96, "channel": 0}, {"type": "note_on", "time": 4, "note": 63, "velocity": 105, "channel": 0}, {"type": "note_off", "time": 147, "note": 63, "velocity": 105, "channel": 0}, {"type": "note_on", "time": 9, "note": 60, "velocity": 104, "channel": 0}, {"type": "note_off", "time": 50, "note": 60, "velocity": 104, "channel": 0}, {"type": "note_on", "time": 3, "note": 61, "velocity": 113, "channel": 0}, {"type": "note_off", "time": 57, "note": 61, "velocity": 113, "channel": 0}, {"type": "note_on", "time": 6, "note": 57, "velocity": 106, "channel": 0}, {"type": "note_off", "time": 39, "note": 57, "velocity": 106, "channel": 0}, {"type": "note_on", "time": 4, "note": 55, "velocity": 108, "channel": 0}, {"type": "note_off", "time": 40, "note": 55, "velocity": 108, "channel": 0}, {"type": "note_on", "time": 10, "note": 51, "velocity": 101, "channel": 0}, {"type": "note_off", "time": 43, "note": 51, "velocity": 101, "channel": 0}, {"type": "note_on", "time": 3, "note": 50, "velocity": 102, "channel": 0}, {"type": "note_off", "time": 181, "note": 50, "velocity": 102, "channel": 0}, {"type": "end_of_track", "time": 0}]]}