{"ticks_per_beat": 192, "tracks": [[{"type": "track_name", "name": "Melody", "time": 0}, {"type": "set_tempo", "tempo": 301507, "time": 0}, {"type": "key_signature", "key": "D", "time": 0}, {"type": "time_signature", "numerator": 4, "denominator": 4, "clocks_per_click": 24, "notated_32nd_notes_per_beat": 8, "time": 0}, {"type": "note_on", "time": 2715, "note": 80, "velocity": 109, "channel": 0}, {"type": "note_off", "time": 107, "note": 80, "velocity": 109, "channel": 0}, {"type": "note_on", "time": 6, "note": 78, "velocity": 93, "channel": 0}, {"type": "note_off", "time": 12, "note": 78, "velocity": 93, "channel": 0}, {"type": "note_on", "time": 7, "note": 76, "velocity": 97, "channel": 0}, {"type": "note_off", "time": 57, "note": 76, "velocity": 97, "channel": 0}, {"type": "note_on", "time": 3, "note": 73, "velocity": 103, "channel": 0}, {"type": "note_off", "time": 86, "note": 73, "velocity": 103, "channel": 0}, {"type": "note_on", "time": 24, "note": 69, "velocity": 102, "channel": 0}, {"type": "note_off", "time": 64, "note": 69, "velocity": 102, "channel": 0}, {"type": "note_on", "time": 15, "note": 66, "velocity": 98, "channel": 0}, {"type": "note_off", "time": 248, "note": 66, "velocity": 98, "channel": 0}, {"type": "note_on", "time": 573, "note": 64, "velocity": 107, "channel": 0}, {"type": "note_off", "time": 43, "note": 64, "velocity": 107, "channel": 0}, {"type": "note_on", "time": 10, "note": 62, "velocity": 91, "channel": 0}, {"type": "note_off", "time": 109, "note": 62, "velocity": 91, "channel": 0}, {"type": "note_on", "time": 15, "note": 64, "velocity": 108, "channel": 0}, {"type": "note_off", "time": 57, "note": 64, "velocity": 108, "channel": 0}, {"type": "note_on", "time": 8, "note": 66, "velocity": 103, "channel": 0}, {"type": "note_off", "time": 97, "note": 66, "velocity": 103, "channel": 0}, {"type": "note_on", "time": 14, "note": 69, "velocity": 93, "channel": 0}, {"type": "note_off", "time": 69, "note": 69, "velocity": 93, "channel": 0}, {"type": "note_on", "time": 3, "note": 73, "velocity": 115, "channel": 0}, {"type": "note_off", "time": 92, "note": 73, "velocity": 115, "channel": 0}, {"type": "note_on", "time": 15, "note": 76, "velocity": 118, "channel": 0}, {"type": "note_off", "time": 85, "note": 76, "velocity": 118, "channel": 0}, {"type": "note_on", "time": 14, "note": 74, "velocity": 105, "channel": 0}, {"type": "note_off", "time": 289, "note": 74, "velocity": 105, "channel": 0}, {"type": "note_on", "time": 12, "note": 75, "velocity": 105, "channel": 0}, {"type": "note_off", "time": 85, "note": 75, "velocity": 105, "channel": 0}, {"type": "note_on", "time": 15, "note": 70, "velocity": 101, "channel": 0}, {"type": "note_off", "time": 244, "note": 70, "velocity": 101, "channel": 0}, {"type": "note_on", "time": 41, "note": 63, "velocity": 107, "channel": 0}, {"type": "note_off", "time": 327, "note": 63, "velocity": 107, "channel": 0}, {"type": "note_on", "time": 23, "note": 65, "velocity": 109, "channel": 0}, {"type": "note_off", "time": 68, "note": 65, "velocity": 109, "channel": 0}, {"type": "note_on", "time": 9, "note": 67, "velocity": 105, "channel": 0}, {"type": "note_off", "time": 77, "note": 67, "velocity": 105, "channel": 0}, {"type": "note_on", "time": 47, "note": 69, "velocity": 89, "channel": 0}, {"type": "note_off", "time": 41, "note": 69, "velocity": 89, "channel": 0}, {"type": "note_on", "time": 11, "note": 70, "velocity": 112, "channel": 0}, {"type": "note_off", "time": 88, "note": 70, "velocity": 112, "channel": 0}, {"type": "note_on", "time": 25, "note": 73, "velocity": 86, "channel": 0}, {"type": "note_off", "time": 43, "note": 73, "velocity": 86, "channel": 0}, {"type": "note_on", "time": 10, "note": 74, "velocity": 96, "channel": 0}, {"type": "note_off", "time": 20, "note": 74, "velocity": 96, "channel": 0}, {"type": "note_on", "time": 11, "note": 75, "velocity": 98, "channel": 0}, {"type": "note_off", "time": 90, "note": 75, "velocity": 98, "channel": 0}, {"type": "note_on", "time": 8, "note": 76, "velocity": 119, "channel": 0}, {"type": "note_off", "time": 75, "note": 76, "velocity": 119, "channel": 0}, {"type": "note_on", "time": 10, "note": 75, "velocity": 113, "channel": 0}, {"type": "note_off", "time": 81, "note": 75, "velocity": 113, "channel": 0}, {"type": "note_on", "time": 31, "note": 73, "velocity": 75, "channel": 0}, {"type": "note_off", "time": 36, "note": 73, "velocity": 75, "channel": 0}, {"type": "note_on", "time": 9, "note": 74, "velocity": 108, "channel": 0}, {"type": "note_off", "time": 83, "note": 74, "velocity": 108, "channel": 0}, {"type": "note_on", "time": 13, "note": 73, "velocity": 103, "channel": 0}, {"type": "note_off", "time": 72, "note": 73, "velocity": 103, "channel": 0}, {"type": "note_on", "time": 11, "note": 72, "velocity": 101, "channel": 0}, {"type": "note_off", "time": 92, "note": 72, "velocity": 101, "channel": 0}, {"type": "note_on", "time": 24, "note": 70, "velocity": 104, "channel": 0}, {"type": "note_off", "time": 75, "note": 70, "velocity": 104, "channel": 0}, {"type": "note_on", "time": 82, "note": 70, "velocity": 104, "channel": 0}, {"type": "note_off", "time": 54, "note": 70, "velocity": 104, "channel": 0}, {"type": "note_on", "time": 0, "note": 69, "velocity": 101, "channel": 0}, {"type": "note_off", "time": 46, "note": 69, "velocity": 101, "channel": 0}, {"type": "note_on", "time": 3, "note": 67, "velocity": 101, "channel": 0}, {"type": "note_off", "time": 66, "note": 67, "velocity": 101, "channel": 0}, {"type": "note_on", "time": 12, "note": 65, "velocity": 97, "channel": 0}, {"type": "note_off", "time": 106, "note": 65, "velocity": 97, "channel": 0}, {"type": "note_on", "time": 672, "note": 58, "velocity": 94, "channel": 0}, {"type": "note_off", "time": 50, "note": 58, "velocity": 94, "channel": 0}, {"type": "note_on", "time": 9, "note": 60, "velocity": 90, "channel": 0}, {"type": "note_off", "time": 244, "note": 60, "velocity": 90, "channel": 0}, {"type": "note_on", "time": 2, "note": 62, "velocity": 102, "channel": 0}, {"type": "note_off", "time": 106, "note": 62, "velocity": 102, "channel": 0}, {"type": "note_on", "time": 12, "note": 63, "velocity": 106, "channel": 0}, {"type": "note_off", "time": 222, "note": 63, "velocity": 106, "channel": 0}, {"type": "note_on", "time": 7, "note": 65, "velocity": 111, "channel": 0}, {"type": "note_off", "time": 69, "note": 65, "velocity": 111, "channel": 0}, {"type": "note_on", "time": 8, "note": 67, "velocity": 108, "channel": 0}, {"type": "note_off", "time": 77, "note": 67, "velocity": 108, "channel": 0}, {"type": "note_on", "time": 5, "note": 69, "velocity": 111, "channel": 0}, {"type": "note_off", "time": 38, "note": 69, "velocity": 111, "channel": 0}, {"type": "note_on", "time": 2, "note": 70, "velocity": 116, "channel": 0}, {"type": "note_off", "time": 53, "note": 70, "velocity": 116, "channel": 0}, {"type": "note_on", "time": 1, "note": 72, "velocity": 117, "channel": 0}, {"type": "note_off", "time": 57, "note": 72, "velocity": 117, "channel": 0}, {"type": "note_on", "time": 6, "note": 74, "velocity": 116, "channel": 0}, {"type": "note_off", "time": 201, "note": 74, "velocity": 116, "channel": 0}, {"type": "note_on", "time": 0, "note": 75, "velocity": 111, "channel": 0}, {"type": "note_off", "time": 279, "note": 75, "velocity": 111, "channel": 0}, {"type": "note_on", "time": 5, "note": 74, "velocity": 109, "channel": 0}, {"type": "note_off", "time": 85, "note": 74, "velocity": 109, "channel": 0}, {"type": "note_on", "time": 12, "note": 72, "velocity": 98, "channel": 0}, {"type": "note_off", "time": 107, "note": 72, "velocity": 98, "channel": 0}, {"type": "note_on", "time": 430, "note": 69, "velocity": 108, "channel": 0}, {"type": "note_off", "time": 71, "note": 69, "velocity": 108, "channel": 0}, {"type": "note_on", "time": 5, "note": 67, "velocity": 105, "channel": 0}, {"type": "note_off", "time": 98, "note": 67, "velocity": 105, "channel": 0}, {"type": "note_on", "time": 14, "note": 65, "velocity": 87, "channel": 0}, {"type": "note_off", "time": 43, "note": 65, "velocity": 87, "channel": 0}, {"type": "note_on", "time": 3, "note": 66, "velocity": 99, "channel": 0}, {"type": "note_off", "time": 98, "note": 66, "velocity": 99, "channel": 0}, {"type": "note_on", "time": 40, "note": 77, "velocity": 119, "channel": 0}, {"type": "note_off", "time": 46, "note": 77, "velocity": 119, "channel": 0}, {"type": "note_on", "time": 3, "note": 75, "velocity": 113, "channel": 0}, {"type": "note_off", "time": 121, "note": 75, "velocity": 113, "channel": 0}, {"type": "note_on", "time": 75, "note": 74, "velocity": 107, "channel": 0}, {"type": "note_off", "time": 101, "note": 74, "velocity": 107, "channel": 0}, {"type": "note_on", "time": 22, "note": 65, "velocity": 90, "channel": 0}, {"type": "note_off", "time": 36, "note": 65, "velocity": 90, "channel": 0}, {"type": "note_on", "time": 15, "note": 73, "velocity": 107, "channel": 0}, {"type": "note_off", "time": 90, "note": 73, "velocity": 107, "channel": 0}, {"type": "note_on", "time": 23, "note": 68, "velocity": 104, "channel": 0}, {"type": "note_off", "time": 52, "note": 68, "velocity": 104, "channel": 0}, {"type": "note_on", "time": 8, "note": 65, "velocity": 96, "channel": 0}, {"type": "note_off", "time": 99, "note": 65, "velocity": 96, "channel": 0}, {"type": "note_on", "time": 30, "note": 58, "velocity": 94, "channel": 0}, {"type": "note_off", "time": 36, "note": 58, "velocity": 94, "channel": 0}, {"type": "note_on", "time": 11, "note": 62, "velocity": 106, "channel": 0}, {"type": "note_off", "time": 97, "note": 62, "velocity": 106, "channel": 0}, {"type": "note_on", "time": 10, "note": 65, "velocity": 102, "channel": 0}, {"type": "note_off", "time": 42, "note": 65, "velocity": 102, "channel": 0}, {"type": "note_on", "time": 55, "note": 61, "velocity": 97, "channel": 0}, {"type": "note_off", "time": 92, "note": 61, "velocity": 97, "channel": 0}, {"type": "note_on", "time": 5, "note": 58, "velocity": 81, "channel": 0}, {"type": "note_off", "time": 36, "note": 58, "velocity": 81, "channel": 0}, {"type": "note_on", "time": 28, "note": 60, "velocity": 94, "channel": 0}, {"type": "note_off", "time": 122, "note": 60, "velocity": 94, "channel": 0}, {"type": "note_on", "time": 2, "note": 57, "velocity": 91, "channel": 0}, {"type": "note_off", "time": 39, "note": 57, "velocity": 91, "channel": 0}, {"type": "note_on", "time": 9, "note": 59, "velocity": 97, "channel": 0}, {"type": "note_off", "time": 120, "note": 59, "velocity": 97, "channel": 0}, {"type": "note_on", "time": 5, "note": 64, "velocity": 97, "channel": 0}, {"type": "note_off", "time": 67, "note": 64, "velocity": 97, "channel": 0}, {"type": "note_on", "time": 4, "note": 69, "velocity": 104, "channel": 0}, {"type": "note_off", "time": 25, "note": 69, "velocity": 104, "channel": 0}, {"type": "note_on", "time": 5, "note": 70, "velocity": 111, "channel": 0}, {"type": "note_off", "time": 35, "note": 70, "velocity": 111, "channel": 0}, {"type": "note_on", "time": 1, "note": 69, "velocity": 99, "channel": 0}, {"type": "note_off", "time": 39, "note": 69, "velocity": 99, "channel": 0}, {"type": "note_on", "time": 11, "note": 67, "velocity": 95, "channel": 0}, {"type": "note_off", "time": 50, "note": 67, "velocity": 95, "channel": 0}, {"type": "note_on", "time": 12, "note": 70, "velocity": 108, "channel": 0}, {"type": "note_off", "time": 129, "note": 70, "velocity": 108, "channel": 0}, {"type": "note_on", "time": 89, "note": 67, "velocity": 97, "channel": 0}, {"type": "note_off", "time": 88, "note": 67, "velocity": 97, "channel": 0}, {"type": "note_on", "time": 22, "note": 63, "velocity": 87, "channel": 0}, {"type": "note_off", "time": 241, "note": 63, "velocity": 87, "channel": 0}, {"type": "note_on", "time": 9, "note": 62, "velocity": 89, "channel": 0}, {"type": "note_off", "time": 179, "note": 62, "velocity": 89, "channel": 0}, {"type": "note_on", "time": 16, "note": 61, "velocity": 99, "channel": 0}, {"type": "note_off", "time": 95, "note": 61, "velocity": 99, "channel": 0}, {"type": "note_on", "time": 99, "note": 60, "velocity": 86, "channel": 0}, {"type": "note_off", "time": 167, "note": 60, "velocity": 86, "channel": 0}, {"type": "note_on", "time": 1689, "note": 64, "velocity": 108, "channel": 0}, {"type": "note_off", "time": 60, "note": 64, "velocity": 108, "channel": 0}, {"type": "note_on", "time": 13, "note": 67, "velocity": 110, "channel": 0}, {"type": "note_off", "time": 97, "note": 67, "velocity": 110, "channel": 0}, {"type": "note_on", "time": 10, "note": 71, "velocity": 118, "channel": 0}, {"type": "note_off", "time": 61, "note": 71, "velocity": 118, "channel": 0}, {"type": "note_on", "time": 15, "note": 74, "velocity": 119, "channel": 0}, {"type": "note_off", "time": 92, "note": 74, "velocity": 119, "channel": 0}, {"type": "note_on", "time": 85, "note": 78, "velocity": 121, "channel": 0}, {"type": "note_off", "time": 206, "note": 78, "velocity": 121, "channel": 0}, {"type": "note_on", "time": 17, "note": 74, "velocity": 119, "channel": 0}, {"type": "note_off", "time": 160, "note": 74, "velocity": 119, "channel": 0}, {"type": "note_on", "time": 16, "note": 71, "velocity": 109, "channel": 0}, {"type": "note_off", "time": 101, "note": 71, "velocity": 109, "channel": 0}, {"type": "note_on", "time": 13, "note": 73, "velocity": 105, "channel": 0}, {"type": "note_off", "time": 290, "note": 73, "velocity": 105, "channel": 0}, {"type": "note_on", "time": 794, "note": 64, "velocity": 98, "channel": 0}, {"type": "note_off", "time": 83, "note": 64, "velocity": 98, "channel": 0}, {"type": "note_on", "time": 20, "note": 62, "velocity": 97, "channel": 0}, {"type": "note_off", "time": 72, "note": 62, "velocity": 97, "channel": 0}, {"type": "note_on", "time": 4, "note": 63, "velocity": 97, "channel": 0}, {"type": "note_off", "time": 78, "note": 63, "velocity": 97, "channel": 0}, {"type": "note_on", "time": 12, "note": 65, "velocity": 113, "channel": 0}, {"type": "note_off", "time": 76, "note": 65, "velocity": 113, "channel": 0}, {"type": "note_on", "time": 2, "note": 67, "velocity": 105, "channel": 0}, {"type": "note_off", "time": 104, "note": 67, "velocity": 105, "channel": 0}, {"type": "note_on", "time": 7, "note": 70, "velocity": 91, "channel": 0}, {"type": "note_off", "time": 48, "note": 70, "velocity": 91, "channel": 0}, {"type": "note_on", "time": 5, "note": 74, "velocity": 121, "channel": 0}, {"type": "note_off", "time": 109, "note": 74, "velocity": 121, "channel": 0}, {"type": "note_on", "time": 12, "note": 77, "velocity": 111, "channel": 0}, {"type": "note_off", "time": 50, "note": 77, "velocity": 111, "channel": 0}, {"type": "note_on", "time": 1, "note": 81, "velocity": 119, "channel": 0}, {"type": "note_off", "time": 202, "note": 81, "velocity": 119, "channel": 0}, {"type": "note_on", "time": 11, "note": 77, "velocity": 103, "channel": 0}, {"type": "note_off", "time": 120, "note": 77, "velocity": 103, "channel": 0}, {"type": "note_on", "time": 4, "note": 74, "velocity": 105, "channel": 0}, {"type": "note_off", "time": 53, "note": 74, "velocity": 105, "channel": 0}, {"type": "note_on", "time": 12, "note": 70, "velocity": 93, "channel": 0}, {"type": "note_off", "time": 121, "note": 70, "velocity": 93, "channel": 0}, {"type": "note_on", "time": 5, "note": 68, "velocity": 94, "channel": 0}, {"type": "note_off", "time": 42, "note": 68, "velocity": 94, "channel": 0}, {"type": "note_on", "time": 11, "note": 67, "velocity": 103, "channel": 0}, {"type": "note_off", "time": 115, "note": 67, "velocity": 103, "channel": 0}, {"type": "note_on", "time": 18, "note": 70, "velocity": 104, "channel": 0}, {"type": "note_off", "time": 52, "note": 70, "velocity": 104, "channel": 0}, {"type": "note_on", "time": 11, "note": 67, "velocity": 84, "channel": 0}, {"type": "note_off", "time": 124, "note": 67, "velocity": 84, "channel": 0}, {"type": "note_on", "time": 66, "note": 69, "velocity": 107, "channel": 0}, {"type": "note_off", "time": 102, "note": 69, "velocity": 107, "channel": 0}, {"type": "note_on", "time": 10, "note": 67, "velocity": 96, "channel": 0}, {"type": "note_off", "time": 81, "note": 67, "velocity": 96, "channel": 0}, {"type": "note_on", "time": 7, "note": 65, "velocity": 96, "channel": 0}, {"type": "note_off", "time": 86, "note": 65, "velocity": 96, "channel": 0}, {"type": "note_on", "time": 14, "note": 64, "velocity": 110, "channel": 0}, {"type": "note_off", "time": 72, "note": 64, "velocity": 110, "channel": 0}, {"type": "note_on", "time": 8, "note": 63, "velocity": 96, "channel": 0}, {"type": "note_off", "time": 90, "note": 63, "velocity": 96, "channel": 0}, {"type": "note_on", "time": 7, "note": 65, "velocity": 115, "channel": 0}, {"type": "note_off", "time": 52, "note": 65, "velocity": 115, "channel": 0}, {"type": "note_on", "time": 6, "note": 62, "velocity": 101, "channel": 0}, {"type": "note_off", "time": 100, "note": 62, "velocity": 101, "channel": 0}, {"type": "note_on", "time": 94, "note": 60, "velocity": 85, "channel": 0}, {"type": "note_off", "time": 190, "note": 60, "velocity": 85, "channel": 0}, {"type": "note_on", "time": 355, "note": 58, "velocity": 112, "channel": 0}, {"type": "note_off", "time": 51, "note": 58, "velocity": 112, "channel": 0}, {"type": "note_on", "time": 5, "note": 56, "velocity": 109, "channel": 0}, {"type": "note_off", "time": 163, "note": 56, "velocity": 109, "channel": 0}, {"type": "note_on", "time": 64, "note": 70, "velocity": 118, "channel": 0}, {"type": "note_off", "time": 118, "note": 70, "velocity": 118, "channel": 0}, {"type": "note_on", "time": 25, "note": 67, "velocity": 102, "channel": 0}, {"type": "note_off", "time": 35, "note": 67, "velocity": 102, "channel": 0}, {"type": "note_on", "time": 5, "note": 68, "velocity": 101, "channel": 0}, {"type": "note_off", "time": 119, "note": 68, "velocity": 101, "channel": 0}, {"type": "note_on", "time": 4, "note": 70, "velocity": 94, "channel": 0}, {"type": "note_off", "time": 56, "note": 70, "velocity": 94, "channel": 0}, {"type": "note_on", "time": 5, "note": 71, "velocity": 110, "channel": 0}, {"type": "note_off", "time": 89, "note": 71, "velocity": 110, "channel": 0}, {"type": "note_on", "time": 29, "note": 74, "velocity": 108, "channel": 0}, {"type": "note_off", "time": 55, "note": 74, "velocity": 108, "channel": 0}, {"type": "note_on", "time": 13, "note": 71, "velocity": 100, "channel": 0}, {"type": "note_off", "time": 72, "note": 71, "velocity": 100, "channel": 0}, {"type": "note_on", "time": 37, "note": 65, "velocity": 104, "channel": 0}, {"type": "note_off", "time": 61, "note": 65, "velocity": 104, "channel": 0}, {"type": "note_on", "time": 9, "note": 67, "velocity": 98, "channel": 0}, {"type": "note_off", "time": 85, "note": 67, "velocity": 98, "channel": 0}, {"type": "note_on", "time": 33, "note": 63, "velocity": 94, "channel": 0}, {"type": "note_off", "time": 56, "note": 63, "velocity": 94, "channel": 0}, {"type": "note_on", "time": 10, "note": 62, "velocity": 94, "channel": 0}, {"type": "note_off", "time": 95, "note": 62, "velocity": 94, "channel": 0}, {"type": "note_on", "time": 83, "note": 63, "velocity": 88, "channel": 0}, {"type": "note_off", "time": 107, "note": 63, "velocity": 88, "channel": 0}, {"type": "note_on", "time": 111, "note": 60, "velocity": 88, "channel": 0}, {"type": "note_off", "time": 108, "note": 60, "velocity": 88, "channel": 0}, {"type": "note_on", "time": 7, "note": 62, "velocity": 95, "channel": 0}, {"type": "note_off", "time": 114, "note": 62, "velocity": 95, "channel": 0}, {"type": "note_on", "time": 11, "note": 63, "velocity": 85, "channel": 0}, {"type": "note_off", "time": 181, "note": 63, "velocity": 85, "channel": 0}, {"type": "note_on", "time": 500, "note": 69, "velocity": 91, "channel": 0}, {"type": "note_off", "time": 37, "note": 69, "velocity": 91, "channel": 0}, {"type": "note_on", "time": 18, "note": 71, "velocity": 108, "channel": 0}, {"type": "note_off", "time": 123, "note": 71, "velocity": 108, "channel": 0}, {"type": "note_on", "time": 5, "note": 68, "velocity": 95, "channel": 0}, {"type": "note_off", "time": 67, "note": 68, "velocity": 95, "channel": 0}, {"type": "note_on", "time": 3, "note": 70, "velocity": 105, "channel": 0}, {"type": "note_off", "time": 118, "note": 70, "velocity": 105, "channel": 0}, {"type": "note_on", "time": 4, "note": 72, "velocity": 110, "channel": 0}, {"type": "note_off", "time": 57, "note": 72, "velocity": 110, "channel": 0}, {"type": "note_on", "time": 13, "note": 73, "velocity": 108, "channel": 0}, {"type": "note_off", "time": 255, "note": 73, "velocity": 108, "channel": 0}, {"type": "note_on", "time": 41, "note": 69, "velocity": 103, "channel": 0}, {"type": "note_off", "time": 50, "note": 69, "velocity": 103, "channel": 0}, {"type": "note_on", "time": 13, "note": 67, "velocity": 101, "channel": 0}, {"type": "note_off", "time": 119, "note": 67, "velocity": 101, "channel": 0}, {"type": "note_on", "time": 11, "note": 69, "velocity": 102, "channel": 0}, {"type": "note_off", "time": 67, "note": 69, "velocity": 102, "channel": 0}, {"type": "note_on", "time": 11, "note": 66, "velocity": 95, "channel": 0}, {"type": "note_off", "time": 99, "note": 66, "velocity": 95, "channel": 0}, {"type": "note_on", "time": 474, "note": 76, "velocity": 116, "channel": 0}, {"type": "note_off", "time": 25, "note": 76, "velocity": 116, "channel": 0}, {"type": "note_on", "time": 7, "note": 77, "velocity": 127, "channel": 0}, {"type": "note_off", "time": 129, "note": 77, "velocity": 127, "channel": 0}, {"type": "note_on", "time": 46, "note": 73, "velocity": 107, "channel": 0}, {"type": "note_off", "time": 42, "note": 73, "velocity": 107, "channel": 0}, {"type": "note_on", "time": 6, "note": 74, "velocity": 111, "channel": 0}, {"type": "note_off", "time": 68, "note": 74, "velocity": 111, "channel": 0}, {"type": "note_on", "time": 2, "note": 77, "velocity": 121, "channel": 0}, {"type": "note_off", "time": 74, "note": 77, "velocity": 121, "channel": 0}, {"type": "note_on", "time": 15, "note": 76, "velocity": 118, "channel": 0}, {"type": "note_off", "time": 91, "note": 76, "velocity": 118, "channel": 0}, {"type": "note_on", "time": 37, "note": 67, "velocity": 90, "channel": 0}, {"type": "note_off", "time": 39, "note": 67, "velocity": 90, "channel": 0}, {"type": "note_on", "time": 22, "note": 70, "velocity": 109, "channel": 0}, {"type": "note_off", "time": 91, "note": 70, "velocity": 109, "channel": 0}, {"type": "note_on", "time": 15, "note": 74, "velocity": 123, "channel": 0}, {"type": "note_off", "time": 79, "note": 74, "velocity": 123, "channel": 0}, {"type": "note_on", "time": 1, "note": 73, "velocity": 117, "channel": 0}, {"type": "note_off", "time": 105, "note": 73, "velocity": 117, "channel": 0}, {"type": "note_on", "time": 49, "note": 62, "velocity": 98, "channel": 0}, {"type": "note_off", "time": 46, "note": 62, "velocity": 98, "channel": 0}, {"type": "note_on", "time": 11, "note": 66, "velocity": 98, "channel": 0}, {"type": "note_off", "time": 42, "note": 66, "velocity": 98, "channel": 0}, {"type": "note_on", "time": 3, "note": 67, "velocity": 91, "channel": 0}, {"type": "note_off", "time": 55, "note": 67, "velocity": 91, "channel": 0}, {"type": "note_on", "time": 12, "note": 72, "velocity": 108, "channel": 0}, {"type": "note_off", "time": 75, "note": 72, "velocity": 108, "channel": 0}, {"type": "note_on", "time": 8, "note": 71, "velocity": 108, "channel": 0}, {"type": "note_off", "time": 107, "note": 71, "velocity": 108, "channel": 0}, {"type": "note_on", "time": 34, "note": 62, "velocity": 82, "channel": 0}, {"type": "note_off", "time": 38, "note": 62, "velocity": 82, "channel": 0}, {"type": "note_on", "time": 32, "note": 65, "velocity": 88, "channel": 0}, {"type": "note_off", "time": 81, "note": 65, "velocity": 88, "channel": 0}, {"type": "note_on", "time": 15, "note": 70, "velocity": 114, "channel": 0}, {"type": "note_off", "time": 75, "note": 70, "velocity": 114, "channel": 0}, {"type": "note_on", "time": 5, "note": 69, "velocity": 106, "channel": 0}, {"type": "note_off", "time": 94, "note": 69, "velocity": 106, "channel": 0}, {"type": "note_on", "time": 13, "note": 65, "velocity": 98, "channel": 0}, {"type": "note_off", "time": 63, "note": 65, "velocity": 98, "channel": 0}, {"type": "note_on", "time": 7, "note": 68, "velocity": 112, "channel": 0}, {"type": "note_off", "time": 120, "note": 68, "velocity": 112, "channel": 0}, {"type": "note_on", "time": 6, "note": 65, "velocity": 100, "channel": 0}, {"type": "note_off", "time": 57, "note": 65, "velocity": 100, "channel": 0}, {"type": "note_on", "time": 11, "note": 67, "velocity": 111, "channel": 0}, {"type": "note_off", "time": 111, "note": 67, "velocity": 111, "channel": 0}, {"type": "note_on", "time": 5, "note": 65, "velocity": 95, "channel": 0}, {"type": "note_off", "time": 56, "note": 65, "velocity": 95, "channel": 0}, {"type": "note_on", "time": 12, "note": 66, "velocity": 109, "channel": 0}, {"type": "note_off", "time": 132, "note": 66, "velocity": 109, "channel": 0}, {"type": "note_on", "time": 22, "note": 64, "velocity": 83, "channel": 0}, {"type": "note_off", "time": 39, "note": 64, "velocity": 83, "channel": 0}, {"type": "note_on", "time": 11, "note": 65, "velocity": 109, "channel": 0}, {"type": "note_off", "time": 105, "note": 65, "velocity": 109, "channel": 0}, {"type": "note_on", "time": 28, "note": 57, "velocity": 94, "channel": 0}, {"type": "note_off", "time": 50, "note": 57, "velocity": 94, "channel": 0}, {"type": "note_on", "time": 9, "note": 61, "velocity": 86, "channel": 0}, {"type": "note_off", "time": 61, "note": 61, "velocity": 86, "channel": 0}, {"type": "note_on", "time": 6, "note": 64, "velocity": 93, "channel": 0}, {"type": "note_off", "time": 75, "note": 64, "velocity": 93, "channel": 0}, {"type": "note_on", "time": 6, "note": 65, "velocity": 104, "channel": 0}, {"type": "note_off", "time": 60, "note": 65, "velocity": 104, "channel": 0}, {"type": "note_on", "time": 9, "note": 64, "velocity": 100, "channel": 0}, {"type": "note_off", "time": 98, "note": 64, "velocity": 100, "channel": 0}, {"type": "note_on", "time": 20, "note": 58, "velocity": 95, "channel": 0}, {"type": "note_off", "time": 53, "note": 58, "velocity": 95, "channel": 0}, {"type": "note_on", "time": 14, "note": 63, "velocity": 104, "channel": 0}, {"type": "note_off", "time": 92, "note": 63, "velocity": 104, "channel": 0}, {"type": "note_on", "time": 33, "note": 58, "velocity": 85, "channel": 0}, {"type": "note_off", "time": 51, "note": 58, "velocity": 85, "channel": 0}, {"type": "note_on", "time": 10, "note": 61, "velocity": 94, "channel": 0}, {"type": "note_off", "time": 103, "note": 61, "velocity": 94, "channel": 0}, {"type": "note_on", "time": 26, "note": 58, "velocity": 91, "channel": 0}, {"type": "note_off", "time": 51, "note": 58, "velocity": 91, "channel": 0}, {"type": "note_on", "time": 6, "note": 60, "velocity": 91, "channel": 0}, {"type": "note_off", "time": 112, "note": 60, "velocity": 91, "channel": 0}, {"type": "note_on", "time": 40, "note": 58, "velocity": 86, "channel": 0}, {"type": "note_off", "time": 39, "note": 58, "velocity": 86, "channel": 0}, {"type": "note_on", "time": 26, "note": 59, "velocity": 85, "channel": 0}, {"type": "note_off", "time": 223, "note": 59, "velocity": 85, "channel": 0}, {"type": "end_of_track", "time": 0}]]}