{"ticks_per_beat": 192, "tracks": [[{"type": "track_name", "name": "Melody", "time": 0}, {"type": "set_tempo", "tempo": 394736, "time": 0}, {"type": "key_signature", "key": "G", "time": 0}, {"type": "time_signature", "numerator": 4, "denominator": 4, "clocks_per_click": 24, "notated_32nd_notes_per_beat": 8, "time": 0}, {"type": "note_on", "time": 978, "note": 79, "velocity": 127, "channel": 0}, {"type": "note_off", "time": 29, "note": 79, "velocity": 127, "channel": 0}, {"type": "note_on", "time": 5, "note": 80, "velocity": 124, "channel": 0}, {"type": "note_off", "time": 28, "note": 80, "velocity": 124, "channel": 0}, {"type": "note_on", "time": 4, "note": 79, "velocity": 122, "channel": 0}, {"type": "note_off", "time": 109, "note": 79, "velocity": 122, "channel": 0}, {"type": "note_on", "time": 8, "note": 77, "velocity": 118, "channel": 0}, {"type": "note_off", "time": 59, "note": 77, "velocity": 118, "channel": 0}, {"type": "note_on", "time": 9, "note": 76, "velocity": 110, "channel": 0}, {"type": "note_off", "time": 55, "note": 76, "velocity": 110, "channel": 0}, {"type": "note_on", "time": 6, "note": 77, "velocity": 115, "channel": 0}, {"type": "note_off", "time": 23, "note": 77, "velocity": 115, "channel": 0}, {"type": "note_on", "time": 9, "note": 76, "velocity": 108, "channel": 0}, {"type": "note_off", "time": 26, "note": 76, "velocity": 108, "channel": 0}, {"type": "note_on", "time": 1, "note": 74, "velocity": 118, "channel": 0}, {"type": "note_off", "time": 61, "note": 74, "velocity": 118, "channel": 0}, {"type": "note_on", "time": 4, "note": 75, "velocity": 126, "channel": 0}, {"type": "note_off", "time": 89, "note": 75, "velocity": 126, "channel": 0}, {"type": "note_on", "time": 25, "note": 66, "velocity": 105, "channel": 0}, {"type": "note_off", "time": 46, "note": 66, "velocity": 105, "channel": 0}, {"type": "note_on", "time": 12, "note": 63, "velocity": 106, "channel": 0}, {"type": "note_off", "time": 27, "note": 63, "velocity": 106, "channel": 0}, {"type": "note_on", "time": 6, "note": 68, "velocity": 102, "channel": 0}, {"type": "note_off", "time": 28, "note": 68, "velocity": 102, "channel": 0}, {"type": "note_on", "time": 6, "note": 72, "velocity": 96, "channel": 0}, {"type": "note_off", "time": 35, "note": 72, "velocity": 96, "channel": 0}, {"type": "note_on", "time": 14, "note": 77, "velocity": 118, "channel": 0}, {"type": "note_off", "time": 92, "note": 77, "velocity": 118, "channel": 0}, {"type": "note_on", "time": 10, "note": 75, "velocity": 123, "channel": 0}, {"type": "note_off", "time": 106, "note": 75, "velocity": 123, "channel": 0}, {"type": "note_on", "time": 10, "note": 73, "velocity": 117, "channel": 0}, {"type": "note_off", "time": 67, "note": 73, "velocity": 117, "channel": 0}, {"type": "note_on", "time": 3, "note": 74, "velocity": 116, "channel": 0}, {"type": "note_off", "time": 103, "note": 74, "velocity": 116, "channel": 0}, {"type": "note_on", "time": 4, "note": 73, "velocity": 119, "channel": 0}, {"type": "note_off", "time": 82, "note": 73, "velocity": 119, "channel": 0}, {"type": "note_on", "time": 8, "note": 72, "velocity": 118, "channel": 0}, {"type": "note_off", "time": 61, "note": 72, "velocity": 118, "channel": 0}, {"type": "note_on", "time": 7, "note": 66, "velocity": 112, "channel": 0}, {"type": "note_off", "time": 45, "note": 66, "velocity": 112, "channel": 0}, {"type": "note_on", "time": 2, "note": 63, "velocity": 115, "channel": 0}, {"type": "note_off", "time": 31, "note": 63, "velocity": 115, "channel": 0}, {"type": "note_on", "time": 5, "note": 61, "velocity": 108, "channel": 0}, {"type": "note_off", "time": 155, "note": 61, "velocity": 108, "channel": 0}, {"type": "note_on", "time": 49, "note": 60, "velocity": 103, "channel": 0}, {"type": "note_off", "time": 190, "note": 60, "velocity": 103, "channel": 0}, {"type": "note_on", "time": 21, "note": 61, "velocity": 104, "channel": 0}, {"type": "note_off", "time": 182, "note": 61, "velocity": 104, "channel": 0}, {"type": "note_on", "time": 13, "note": 60, "velocity": 84, "channel": 0}, {"type": "note_off", "time": 32, "note": 60, "velocity": 84, "channel": 0}, {"type": "note_on", "time": 12, "note": 62, "velocity": 107, "channel": 0}, {"type": "note_off", "time": 134, "note": 62, "velocity": 107, "channel": 0}, {"type": "note_on", "time": 12, "note": 63, "velocity": 106, "channel": 0}, {"type": "note_off", "time": 170, "note": 63, "velocity": 106, "channel": 0}, {"type": "note_on", "time": 412, "note": 62, "velocity": 82, "channel": 0}, {"type": "note_off", "time": 28, "note": 62, "velocity": 82, "channel": 0}, {"type": "note_on", "time": 9, "note": 64, "velocity": 104, "channel": 0}, {"type": "note_off", "time": 121, "note": 64, "velocity": 104, "channel": 0}, {"type": "note_on", "time": 7, "note": 65, "velocity": 112, "channel": 0}, {"type": "note_off", "time": 56, "note": 65, "velocity": 112, "channel": 0}, {"type": "note_on", "time": 5, "note": 67, "velocity": 109, "channel": 0}, {"type": "note_off", "time": 106, "note": 67, "velocity": 109, "channel": 0}, {"type": "note_on", "time": 11, "note": 69, "velocity": 115, "channel": 0}, {"type": "note_off", "time": 54, "note": 69, "velocity": 115, "channel": 0}, {"type": "note_on", "time": 9, "note": 70, "velocity": 112, "channel": 0}, {"type": "note_off", "time": 150, "note": 70, "velocity": 112, "channel": 0}, {"type": "note_on", "time": 20, "note": 70, "velocity": 96, "channel": 0}, {"type": "note_off", "time": 29, "note": 70, "velocity": 96, "channel": 0}, {"type": "note_on", "time": 14, "note": 72, "velocity": 107, "channel": 0}, {"type": "note_off", "time": 132, "note": 72, "velocity": 107, "channel": 0}, {"type": "note_on", "time": 8, "note": 70, "velocity": 102, "channel": 0}, {"type": "note_off", "time": 36, "note": 70, "velocity": 102, "channel": 0}, {"type": "note_on", "time": 8, "note": 73, "velocity": 102, "channel": 0}, {"type": "note_off", "time": 131, "note": 73, "velocity": 102, "channel": 0}, {"type": "note_on", "time": 18, "note": 75, "velocity": 107, "channel": 0}, {"type": "note_off", "time": 163, "note": 75, "velocity": 107, "channel": 0}, {"type": "note_on", "time": 389, "note": 70, "velocity": 104, "channel": 0}, {"type": "note_off", "time": 34, "note": 70, "velocity": 104, "channel": 0}, {"type": "note_on", "time": 17, "note": 76, "velocity": 118, "channel": 0}, {"type": "note_off", "time": 148, "note": 76, "velocity": 118, "channel": 0}, {"type": "note_on", "time": 46, "note": 78, "velocity": 115, "channel": 0}, {"type": "note_off", "time": 140, "note": 78, "velocity": 115, "channel": 0}, {"type": "note_on", "time": 7, "note": 74, "velocity": 111, "channel": 0}, {"type": "note_off", "time": 106, "note": 74, "velocity": 111, "channel": 0}, {"type": "note_on", "time": 87, "note": 71, "velocity": 105, "channel": 0}, {"type": "note_off", "time": 130, "note": 71, "velocity": 105, "channel": 0}, {"type": "note_on", "time": 62, "note": 67, "velocity": 106, "channel": 0}, {"type": "note_off", "time": 62, "note": 67, "velocity": 106, "channel": 0}, {"type": "note_on", "time": 18, "note": 64, "velocity": 104, "channel": 0}, {"type": "note_off", "time": 92, "note": 64, "velocity": 104, "channel": 0}, {"type": "note_on", "time": 28, "note": 57, "velocity": 97, "channel": 0}, {"type": "note_off", "time": 42, "note": 57, "velocity": 97, "channel": 0}, {"type": "note_on", "time": 22, "note": 62, "velocity": 97, "channel": 0}, {"type": "note_off", "time": 109, "note": 62, "velocity": 97, "channel": 0}, {"type": "note_on", "time": 16, "note": 64, "velocity": 93, "channel": 0}, {"type": "note_off", "time": 149, "note": 64, "velocity": 93, "channel": 0}, {"type": "note_on", "time": 14, "note": 65, "velocity": 104, "channel": 0}, {"type": "note_off", "time": 31, "note": 65, "velocity": 104, "channel": 0}, {"type": "note_on", "time": 15, "note": 63, "velocity": 101, "channel": 0}, {"type": "note_off", "time": 30, "note": 63, "velocity": 101, "channel": 0}, {"type": "note_on", "time": 9, "note": 62, "velocity": 85, "channel": 0}, {"type": "note_off", "time": 125, "note": 62, "velocity": 85, "channel": 0}, {"type": "note_on", "time": 14, "note": 64, "velocity": 103, "channel": 0}, {"type": "note_off", "time": 56, "note": 64, "velocity": 103, "channel": 0}, {"type": "note_on", "time": 11, "note": 67, "velocity": 101, "channel": 0}, {"type": "note_off", "time": 110, "note": 67, "velocity": 101, "channel": 0}, {"type": "note_on", "time": 9, "note": 69, "velocity": 108, "channel": 0}, {"type": "note_off", "time": 52, "note": 69, "velocity": 108, "channel": 0}, {"type": "note_on", "time": 16, "note": 71, "velocity": 111, "channel": 0}, {"type": "note_off", "time": 83, "note": 71, "velocity": 111, "channel": 0}, {"type": "note_on", "time": 38, "note": 78, "velocity": 122, "channel": 0}, {"type": "note_off", "time": 120, "note": 78, "velocity": 122, "channel": 0}, {"type": "note_on", "time": 81, "note": 71, "velocity": 112, "channel": 0}, {"type": "note_off", "time": 114, "note": 71, "velocity": 112, "channel": 0}, {"type": "note_on", "time": 82, "note": 69, "velocity": 111, "channel": 0}, {"type": "note_off", "time": 93, "note": 69, "velocity": 111, "channel": 0}, {"type": "note_on", "time": 5, "note": 70, "velocity": 110, "channel": 0}, {"type": "note_off", "time": 81, "note": 70, "velocity": 110, "channel": 0}, {"type": "note_on", "time": 82, "note": 78, "velocity": 120, "channel": 0}, {"type": "note_off", "time": 132, "note": 78, "velocity": 120, "channel": 0}, {"type": "note_on", "time": 74, "note": 69, "velocity": 113, "channel": 0}, {"type": "note_off", "time": 120, "note": 69, "velocity": 113, "channel": 0}, {"type": "note_on", "time": 18, "note": 65, "velocity": 103, "channel": 0}, {"type": "note_off", "time": 40, "note": 65, "velocity": 103, "channel": 0}, {"type": "note_on", "time": 21, "note": 68, "velocity": 113, "channel": 0}, {"type": "note_off", "time": 98, "note": 68, "velocity": 113, "channel": 0}, {"type": "note_on", "time": 98, "note": 76, "velocity": 119, "channel": 0}, {"type": "note_off", "time": 39, "note": 76, "velocity": 119, "channel": 0}, {"type": "note_on", "time": 9, "note": 77, "velocity": 122, "channel": 0}, {"type": "note_off", "time": 119, "note": 77, "velocity": 122, "channel": 0}, {"type": "note_on", "time": 5, "note": 76, "velocity": 118, "channel": 0}, {"type": "note_off", "time": 104, "note": 76, "velocity": 118, "channel": 0}, {"type": "note_on", "time": 20, "note": 74, "velocity": 109, "channel": 0}, {"type": "note_off", "time": 81, "note": 74, "velocity": 109, "channel": 0}, {"type": "note_on", "time": 333, "note": 65, "velocity": 107, "channel": 0}, {"type": "note_off", "time": 29, "note": 65, "velocity": 107, "channel": 0}, {"type": "note_on", "time": 61, "note": 71, "velocity": 119, "channel": 0}, {"type": "note_off", "time": 55, "note": 71, "velocity": 119, "channel": 0}, {"type": "note_on", "time": 8, "note": 72, "velocity": 116, "channel": 0}, {"type": "note_off", "time": 93, "note": 72, "velocity": 116, "channel": 0}, {"type": "note_on", "time": 18, "note": 71, "velocity": 113, "channel": 0}, {"type": "note_off", "time": 99, "note": 71, "velocity": 113, "channel": 0}, {"type": "note_on", "time": 28, "note": 68, "velocity": 103, "channel": 0}, {"type": "note_off", "time": 170, "note": 68, "velocity": 103, "channel": 0}, {"type": "note_on", "time": 163, "note": 64, "velocity": 112, "channel": 0}, {"type": "note_off", "time": 29, "note": 64, "velocity": 112, "channel": 0}, {"type": "note_on", "time": 5, "note": 65, "velocity": 109, "channel": 0}, {"type": "note_off", "time": 36, "note": 65, "velocity": 109, "channel": 0}, {"type": "note_on", "time": 52, "note": 64, "velocity": 111, "channel": 0}, {"type": "note_off", "time": 98, "note": 64, "velocity": 111, "channel": 0}, {"type": "note_on", "time": 10, "note": 59, "velocity": 92, "channel": 0}, {"type": "note_off", "time": 36, "note": 59, "velocity": 92, "channel": 0}, {"type": "note_on", "time": 1, "note": 62, "velocity": 93, "channel": 0}, {"type": "note_off", "time": 125, "note": 62, "velocity": 93, "channel": 0}, {"type": "note_on", "time": 5, "note": 56, "velocity": 92, "channel": 0}, {"type": "note_off", "time": 46, "note": 56, "velocity": 92, "channel": 0}, {"type": "note_on", "time": 14, "note": 60, "velocity": 92, "channel": 0}, {"type": "note_off", "time": 78, "note": 60, "velocity": 92, "channel": 0}, {"type": "note_on", "time": 8, "note": 62, "velocity": 96, "channel": 0}, {"type": "note_off", "time": 35, "note": 62, "velocity": 96, "channel": 0}, {"type": "note_on", "time": 5, "note": 64, "velocity": 102, "channel": 0}, {"type": "note_off", "time": 64, "note": 64, "velocity": 102, "channel": 0}, {"type": "note_on", "time": 3, "note": 69, "velocity": 114, "channel": 0}, {"type": "note_off", "time": 139, "note": 69, "velocity": 114, "channel": 0}, {"type": "note_on", "time": 12, "note": 67, "velocity": 98, "channel": 0}, {"type": "note_off", "time": 76, "note": 67, "velocity": 98, "channel": 0}, {"type": "note_on", "time": 10, "note": 68, "velocity": 100, "channel": 0}, {"type": "note_off", "time": 100, "note": 68, "velocity": 100, "channel": 0}, {"type": "note_on", "time": 12, "note": 71, "velocity": 109, "channel": 0}, {"type": "note_off", "time": 55, "note": 71, "velocity": 109, "channel": 0}, {"type": "note_on", "time": 9, "note": 68, "velocity": 96, "channel": 0}, {"type": "note_off", "time": 93, "note": 68, "velocity": 96, "channel": 0}, {"type": "note_on", "time": 25, "note": 69, "velocity": 96, "channel": 0}, {"type": "note_off", "time": 55, "note": 69, "velocity": 96, "channel": 0}, {"type": "note_on", "time": 20, "note": 76, "velocity": 125, "channel": 0}, {"type": "note_off", "time": 102, "note": 76, "velocity": 125, "channel": 0}, {"type": "note_on", "time": 26, "note": 71, "velocity": 106, "channel": 0}, {"type": "note_off", "time": 50, "note": 71, "velocity": 106, "channel": 0}, {"type": "note_on", "time": 14, "note": 74, "velocity": 117, "channel": 0}, {"type": "note_off", "time": 114, "note": 74, "velocity": 117, "channel": 0}, {"type": "note_on", "time": 8, "note": 73, "velocity": 104, "channel": 0}, {"type": "note_off", "time": 90, "note": 73, "velocity": 104, "channel": 0}, {"type": "note_on", "time": 10, "note": 72, "velocity": 104, "channel": 0}, {"type": "note_off", "time": 25, "note": 72, "velocity": 104, "channel": 0}, {"type": "note_on", "time": 4, "note": 73, "velocity": 94, "channel": 0}, {"type": "note_off", "time": 38, "note": 73, "velocity": 94, "channel": 0}, {"type": "note_on", "time": 0, "note": 70, "velocity": 95, "channel": 0}, {"type": "note_off", "time": 18, "note": 70, "velocity": 95, "channel": 0}, {"type": "note_on", "time": 1, "note": 67, "velocity": 104, "channel": 0}, {"type": "note_off", "time": 70, "note": 67, "velocity": 104, "channel": 0}, {"type": "note_on", "time": 13, "note": 64, "velocity": 104, "channel": 0}, {"type": "note_off", "time": 93, "note": 64, "velocity": 104, "channel": 0}, {"type": "note_on", "time": 27, "note": 61, "velocity": 100, "channel": 0}, {"type": "note_off", "time": 42, "note": 61, "velocity": 100, "channel": 0}, {"type": "note_on", "time": 0, "note": 63, "velocity": 89, "channel": 0}, {"type": "note_off", "time": 158, "note": 63, "velocity": 89, "channel": 0}, {"type": "note_on", "time": 719, "note": 65, "velocity": 117, "channel": 0}, {"type": "note_off", "time": 81, "note": 65, "velocity": 117, "channel": 0}, {"type": "note_on", "time": 9, "note": 63, "velocity": 101, "channel": 0}, {"type": "note_off", "time": 95, "note": 63, "velocity": 101, "channel": 0}, {"type": "note_on", "time": 8, "note": 65, "velocity": 116, "channel": 0}, {"type": "note_off", "time": 70, "note": 65, "velocity": 116, "channel": 0}, {"type": "note_on", "time": 8, "note": 67, "velocity": 108, "channel": 0}, {"type": "note_off", "time": 93, "note": 67, "velocity": 108, "channel": 0}, {"type": "note_on", "time": 5, "note": 68, "velocity": 107, "channel": 0}, {"type": "note_off", "time": 36, "note": 68, "velocity": 107, "channel": 0}, {"type": "note_on", "time": 4, "note": 70, "velocity": 116, "channel": 0}, {"type": "note_off", "time": 50, "note": 70, "velocity": 116, "channel": 0}, {"type": "note_on", "time": 4, "note": 72, "velocity": 113, "channel": 0}, {"type": "note_off", "time": 42, "note": 72, "velocity": 113, "channel": 0}, {"type": "note_on", "time": 2, "note": 74, "velocity": 114, "channel": 0}, {"type": "note_off", "time": 47, "note": 74, "velocity": 114, "channel": 0}, {"type": "note_on", "time": 3, "note": 75, "velocity": 115, "channel": 0}, {"type": "note_off", "time": 39, "note": 75, "velocity": 115, "channel": 0}, {"type": "note_on", "time": 3, "note": 77, "velocity": 121, "channel": 0}, {"type": "note_off", "time": 47, "note": 77, "velocity": 121, "channel": 0}, {"type": "note_on", "time": 3, "note": 78, "velocity": 124, "channel": 0}, {"type": "note_off", "time": 73, "note": 78, "velocity": 124, "channel": 0}, {"type": "note_on", "time": 39, "note": 74, "velocity": 110, "channel": 0}, {"type": "note_off", "time": 64, "note": 74, "velocity": 110, "channel": 0}, {"type": "note_on", "time": 15, "note": 71, "velocity": 102, "channel": 0}, {"type": "note_off", "time": 104, "note": 71, "velocity": 102, "channel": 0}, {"type": "note_on", "time": 8, "note": 69, "velocity": 105, "channel": 0}, {"type": "note_off", "time": 58, "note": 69, "velocity": 105, "channel": 0}, {"type": "note_on", "time": 10, "note": 68, "velocity": 94, "channel": 0}, {"type": "note_off", "time": 79, "note": 68, "velocity": 94, "channel": 0}, {"type": "note_on", "time": 17, "note": 75, "velocity": 101, "channel": 0}, {"type": "note_off", "time": 29, "note": 75, "velocity": 101, "channel": 0}, {"type": "note_on", "time": 12, "note": 77, "velocity": 124, "channel": 0}, {"type": "note_off", "time": 54, "note": 77, "velocity": 124, "channel": 0}, {"type": "note_on", "time": 2, "note": 76, "velocity": 119, "channel": 0}, {"type": "note_off", "time": 102, "note": 76, "velocity": 119, "channel": 0}, {"type": "note_on", "time": 10, "note": 77, "velocity": 115, "channel": 0}, {"type": "note_off", "time": 74, "note": 77, "velocity": 115, "channel": 0}, {"type": "note_on", "time": 16, "note": 75, "velocity": 116, "channel": 0}, {"type": "note_off", "time": 85, "note": 75, "velocity": 116, "channel": 0}, {"type": "note_on", "time": 15, "note": 71, "velocity": 103, "channel": 0}, {"type": "note_off", "time": 46, "note": 71, "velocity": 103, "channel": 0}, {"type": "note_on", "time": 19, "note": 74, "velocity": 108, "channel": 0}, {"type": "note_off", "time": 92, "note": 74, "velocity": 108, "channel": 0}, {"type": "note_on", "time": 17, "note": 73, "velocity": 106, "channel": 0}, {"type": "note_off", "time": 66, "note": 73, "velocity": 106, "channel": 0}, {"type": "note_on", "time": 14, "note": 72, "velocity": 104, "channel": 0}, {"type": "note_off", "time": 85, "note": 72, "velocity": 104, "channel": 0}, {"type": "note_on", "time": 15, "note": 55, "velocity": 107, "channel": 0}, {"type": "note_off", "time": 200, "note": 55, "velocity": 107, "channel": 0}, {"type": "note_on", "time": 10, "note": 61, "velocity": 115, "channel": 0}, {"type": "note_off", "time": 45, "note": 61, "velocity": 115, "channel": 0}, {"type": "note_on", "time": 0, "note": 64, "velocity": 123, "channel": 0}, {"type": "note_off", "time": 43, "note": 64, "velocity": 123, "channel": 0}, {"type": "note_on", "time": 9, "note": 61, "velocity": 109, "channel": 0}, {"type": "note_off", "time": 92, "note": 61, "velocity": 109, "channel": 0}, {"type": "note_on", "time": 21, "note": 70, "velocity": 116, "channel": 0}, {"type": "note_off", "time": 58, "note": 70, "velocity": 116, "channel": 0}, {"type": "note_on", "time": 7, "note": 69, "velocity": 113, "channel": 0}, {"type": "note_off", "time": 76, "note": 69, "velocity": 113, "channel": 0}, {"type": "note_on", "time": 13, "note": 74, "velocity": 116, "channel": 0}, {"type": "note_off", "time": 64, "note": 74, "velocity": 116, "channel": 0}, {"type": "note_on", "time": 6, "note": 73, "velocity": 112, "channel": 0}, {"type": "note_off", "time": 97, "note": 73, "velocity": 112, "channel": 0}, {"type": "note_on", "time": 18, "note": 69, "velocity": 111, "channel": 0}, {"type": "note_off", "time": 64, "note": 69, "velocity": 111, "channel": 0}, {"type": "note_on", "time": 32, "note": 65, "velocity": 105, "channel": 0}, {"type": "note_off", "time": 41, "note": 65, "velocity": 105, "channel": 0}, {"type": "note_on", "time": 10, "note": 62, "velocity": 101, "channel": 0}, {"type": "note_off", "time": 53, "note": 62, "velocity": 101, "channel": 0}, {"type": "note_on", "time": 14, "note": 58, "velocity": 106, "channel": 0}, {"type": "note_off", "time": 53, "note": 58, "velocity": 106, "channel": 0}, {"type": "note_on", "time": 22, "note": 66, "velocity": 103, "channel": 0}, {"type": "note_off", "time": 271, "note": 66, "velocity": 103, "channel": 0}, {"type": "note_on", "time": 29, "note": 69, "velocity": 102, "channel": 0}, {"type": "note_off", "time": 111, "note": 69, "velocity": 102, "channel": 0}, {"type": "note_on", "time": 248, "note": 58, "velocity": 109, "channel": 0}, {"type": "note_off", "time": 52, "note": 58, "velocity": 109, "channel": 0}, {"type": "note_on", "time": 6, "note": 60, "velocity": 104, "channel": 0}, {"type": "note_off", "time": 46, "note": 60, "velocity": 104, "channel": 0}, {"type": "note_on", "time": 5, "note": 63, "velocity": 99, "channel": 0}, {"type": "note_off", "time": 35, "note": 63, "velocity": 99, "channel": 0}, {"type": "note_on", "time": 8, "note": 68, "velocity": 100, "channel": 0}, {"type": "note_off", "time": 28, "note": 68, "velocity": 100, "channel": 0}, {"type": "note_on", "time": 6, "note": 72, "velocity": 113, "channel": 0}, {"type": "note_off", "time": 86, "note": 72, "velocity": 113, "channel": 0}, {"type": "note_on", "time": 42, "note": 79, "velocity": 119, "channel": 0}, {"type": "note_off", "time": 134, "note": 79, "velocity": 119, "channel": 0}, {"type": "note_on", "time": 19, "note": 74, "velocity": 105, "channel": 0}, {"type": "note_off", "time": 40, "note": 74, "velocity": 105, "channel": 0}, {"type": "note_on", "time": 19, "note": 77, "velocity": 118, "channel": 0}, {"type": "note_off", "time": 172, "note": 77, "velocity": 118, "channel": 0}, {"type": "note_on", "time": 72, "note": 73, "velocity": 112, "channel": 0}, {"type": "note_off", "time": 64, "note": 73, "velocity": 112, "channel": 0}, {"type": "note_on", "time": 11, "note": 75, "velocity": 116, "channel": 0}, {"type": "note_off", "time": 64, "note": 75, "velocity": 116, "channel": 0}, {"type": "note_on", "time": 21, "note": 72, "velocity": 94, "channel": 0}, {"type": "note_off", "time": 39, "note": 72, "velocity": 94, "channel": 0}, {"type": "note_on", "time": 10, "note": 73, "velocity": 110, "channel": 0}, {"type": "note_off", "time": 127, "note": 73, "velocity": 110, "channel": 0}, {"type": "note_on", "time": 17, "note": 70, "velocity": 106, "channel": 0}, {"type": "note_off", "time": 30, "note": 70, "velocity": 106, "channel": 0}, {"type": "note_on", "time": 19, "note": 72, "velocity": 108, "channel": 0}, {"type": "note_off", "time": 42, "note": 72, "velocity": 108, "channel": 0}, {"type": "note_on", "time": 14, "note": 68, "velocity": 97, "channel": 0}, {"type": "note_off", "time": 30, "note": 68, "velocity": 97, "channel": 0}, {"type": "note_on", "time": 4, "note": 70, "velocity": 112, "channel": 0}, {"type": "note_off", "time": 90, "note": 70, "velocity": 112, "channel": 0}, {"type": "note_on", "time": 8, "note": 66, "velocity": 91, "channel": 0}, {"type": "note_off", "time": 30, "note": 66, "velocity": 91, "channel": 0}, {"type": "note_on", "time": 7, "note": 69, "velocity": 112, "channel": 0}, {"type": "note_off", "time": 98, "note": 69, "velocity": 112, "channel": 0}, {"type": "note_on", "time": 22, "note": 67, "velocity": 113, "channel": 0}, {"type": "note_off", "time": 76, "note": 67, "velocity": 113, "channel": 0}, {"type": "note_on", "time": 15, "note": 64, "velocity": 85, "channel": 0}, {"type": "note_off", "time": 24, "note": 64, "velocity": 85, "channel": 0}, {"type": "note_on", "time": 8, "note": 66, "velocity": 106, "channel": 0}, {"type": "note_off", "time": 172, "note": 66, "velocity": 106, "channel": 0}, {"type": "note_on", "time": 29, "note": 64, "velocity": 99, "channel": 0}, {"type": "note_off", "time": 63, "note": 64, "velocity": 99, "channel": 0}, {"type": "note_on", "time": 5, "note": 62, "velocity": 99, "channel": 0}, {"type": "note_off", "time": 64, "note": 62, "velocity": 99, "channel": 0}, {"type": "note_on", "time": 270, "note": 76, "velocity": 123, "channel": 0}, {"type": "note_off", "time": 82, "note": 76, "velocity": 123, "channel": 0}, {"type": "note_on", "time": 102, "note": 74, "velocity": 119, "channel": 0}, {"type": "note_off", "time": 77, "note": 74, "velocity": 119, "channel": 0}, {"type": "note_on", "time": 112, "note": 62, "velocity": 100, "channel": 0}, {"type": "note_off", "time": 55, "note": 62, "velocity": 100, "channel": 0}, {"type": "note_on", "time": 143, "note": 64, "velocity": 111, "channel": 0}, {"type": "note_off", "time": 65, "note": 64, "velocity": 111, "channel": 0}, {"type": "note_on", "time": 107, "note": 68, "velocity": 106, "channel": 0}, {"type": "note_off", "time": 53, "note": 68, "velocity": 106, "channel": 0}, {"type": "note_on", "time": 125, "note": 78, "velocity": 121, "channel": 0}, {"type": "note_off", "time": 86, "note": 78, "velocity": 121, "channel": 0}, {"type": "note_on", "time": 103, "note": 79, "velocity": 112, "channel": 0}, {"type": "note_off", "time": 25, "note": 79, "velocity": 112, "channel": 0}, {"type": "note_on", "time": 0, "note": 80, "velocity": 121, "channel": 0}, {"type": "note_off", "time": 51, "note": 80, "velocity": 121, "channel": 0}, {"type": "note_on", "time": 112, "note": 77, "velocity": 116, "channel": 0}, {"type": "note_off", "time": 68, "note": 77, "velocity": 116, "channel": 0}, {"type": "note_on", "time": 118, "note": 68, "velocity": 94, "channel": 0}, {"type": "note_off", "time": 51, "note": 68, "velocity": 94, "channel": 0}, {"type": "note_on", "time": 27, "note": 76, "velocity": 107, "channel": 0}, {"type": "note_off", "time": 78, "note": 76, "velocity": 107, "channel": 0}, {"type": "note_on", "time": 32, "note": 65, "velocity": 96, "channel": 0}, {"type": "note_off", "time": 46, "note": 65, "velocity": 96, "channel": 0}, {"type": "note_on", "time": 41, "note": 68, "velocity": 107, "channel": 0}, {"type": "note_off", "time": 81, "note": 68, "velocity": 107, "channel": 0}, {"type": "note_on", "time": 16, "note": 70, "velocity": 99, "channel": 0}, {"type": "note_off", "time": 84, "note": 70, "velocity": 99, "channel": 0}, {"type": "note_on", "time": 16, "note": 65, "velocity": 106, "channel": 0}, {"type": "note_off", "time": 61, "note": 65, "velocity": 106, "channel": 0}, {"type": "note_on", "time": 51, "note": 58, "velocity": 99, "channel": 0}, {"type": "note_off", "time": 60, "note": 58, "velocity": 99, "channel": 0}, {"type": "note_on", "time": 6, "note": 61, "velocity": 98, "channel": 0}, {"type": "note_off", "time": 57, "note": 61, "velocity": 98, "channel": 0}, {"type": "note_on", "time": 7, "note": 64, "velocity": 99, "channel": 0}, {"type": "note_off", "time": 46, "note": 64, "velocity": 99, "channel": 0}, {"type": "note_on", "time": 11, "note": 70, "velocity": 99, "channel": 0}, {"type": "note_off", "time": 63, "note": 70, "velocity": 99, "channel": 0}, {"type": "note_on", "time": 9, "note": 69, "velocity": 96, "channel": 0}, {"type": "note_off", "time": 94, "note": 69, "velocity": 96, "channel": 0}, {"type": "note_on", "time": 30, "note": 57, "velocity": 101, "channel": 0}, {"type": "note_off", "time": 52, "note": 57, "velocity": 101, "channel": 0}, {"type": "note_on", "time": 10, "note": 55, "velocity": 87, "channel": 0}, {"type": "note_off", "time": 50, "note": 55, "velocity": 87, "channel": 0}, {"type": "note_on", "time": 7, "note": 57, "velocity": 92, "channel": 0}, {"type": "note_off", "time": 78, "note": 57, "velocity": 92, "channel": 0}, {"type": "note_on", "time": 29, "note": 60, "velocity": 92, "channel": 0}, {"type": "note_off", "time": 42, "note": 60, "velocity": 92, "channel": 0}, {"type": "note_on", "time": 10, "note": 64, "velocity": 99, "channel": 0}, {"type": "note_off", "time": 57, "note": 64, "velocity": 99, "channel": 0}, {"type": "note_on", "time": 4, "note": 67, "velocity": 106, "channel": 0}, {"type": "note_off", "time": 54, "note": 67, "velocity": 106, "channel": 0}, {"type": "note_on", "time": 3, "note": 71, "velocity": 109, "channel": 0}, {"type": "note_off", "time": 113, "note": 71, "velocity": 109, "channel": 0}, {"type": "note_on", "time": 9, "note": 74, "velocity": 108, "channel": 0}, {"type": "note_off", "time": 76, "note": 74, "velocity": 108, "channel": 0}, {"type": "note_on", "time": 8, "note": 72, "velocity": 103, "channel": 0}, {"type": "note_off", "time": 181, "note": 72, "velocity": 103, "channel": 0}, {"type": "note_on", "time": 319, "note": 68, "velocity": 120, "channel": 0}, {"type": "note_off", "time": 65, "note": 68, "velocity": 120, "channel": 0}, {"type": "note_on", "time": 6, "note": 71, "velocity": 117, "channel": 0}, {"type": "note_off", "time": 119, "note": 71, "velocity": 117, "channel": 0}, {"type": "note_on", "time": 28, "note": 68, "velocity": 102, "channel": 0}, {"type": "note_off", "time": 61, "note": 68, "velocity": 102, "channel": 0}, {"type": "note_on", "time": 13, "note": 72, "velocity": 106, "channel": 0}, {"type": "note_off", "time": 75, "note": 72, "velocity": 106, "channel": 0}, {"type": "note_on", "time": 1, "note": 69, "velocity": 106, "channel": 0}, {"type": "note_off", "time": 35, "note": 69, "velocity": 106, "channel": 0}, {"type": "note_on", "time": 8, "note": 71, "velocity": 109, "channel": 0}, {"type": "note_off", "time": 67, "note": 71, "velocity": 109, "channel": 0}, {"type": "note_on", "time": 6, "note": 72, "velocity": 105, "channel": 0}, {"type": "note_off", "time": 92, "note": 72, "velocity": 105, "channel": 0}, {"type": "note_on", "time": 6, "note": 74, "velocity": 121, "channel": 0}, {"type": "note_off", "time": 76, "note": 74, "velocity": 121, "channel": 0}, {"type": "note_on", "time": 5, "note": 76, "velocity": 119, "channel": 0}, {"type": "note_off", "time": 127, "note": 76, "velocity": 119, "channel": 0}, {"type": "note_on", "time": 19, "note": 76, "velocity": 124, "channel": 0}, {"type": "note_off", "time": 60, "note": 76, "velocity": 124, "channel": 0}, {"type": "note_on", "time": 5, "note": 77, "velocity": 119, "channel": 0}, {"type": "note_off", "time": 110, "note": 77, "velocity": 119, "channel": 0}, {"type": "note_on", "time": 11, "note": 75, "velocity": 113, "channel": 0}, {"type": "note_off", "time": 201, "note": 75, "velocity": 113, "channel": 0}, {"type": "note_on", "time": 367, "note": 76, "velocity": 124, "channel": 0}, {"type": "note_off", "time": 51, "note": 76, "velocity": 124, "channel": 0}, {"type": "note_on", "time": 7, "note": 77, "velocity": 125, "channel": 0}, {"type": "note_off", "time": 45, "note": 77, "velocity": 125, "channel": 0}, {"type": "note_on", "time": 62, "note": 76, "velocity": 123, "channel": 0}, {"type": "note_off", "time": 53, "note": 76, "velocity": 123, "channel": 0}, {"type": "note_on", "time": 4, "note": 77, "velocity": 120, "channel": 0}, {"type": "note_off", "time": 48, "note": 77, "velocity": 120, "channel": 0}, {"type": "note_on", "time": 40, "note": 80, "velocity": 113, "channel": 0}, {"type": "note_off", "time": 119, "note": 80, "velocity": 113, "channel": 0}, {"type": "note_on", "time": 5, "note": 78, "velocity": 114, "channel": 0}, {"type": "note_off", "time": 326, "note": 78, "velocity": 114, "channel": 0}, {"type": "note_on", "time": 9, "note": 81, "velocity": 115, "channel": 0}, {"type": "note_off", "time": 58, "note": 81, "velocity": 115, "channel": 0}, {"type": "note_on", "time": 27, "note": 77, "velocity": 114, "channel": 0}, {"type": "note_off", "time": 101, "note": 77, "velocity": 114, "channel": 0}, {"type": "note_on", "time": 28, "note": 74, "velocity": 98, "channel": 0}, {"type": "note_off", "time": 40, "note": 74, "velocity": 98, "channel": 0}, {"type": "note_on", "time": 16, "note": 76, "velocity": 117, "channel": 0}, {"type": "note_off", "time": 115, "note": 76, "velocity": 117, "channel": 0}, {"type": "note_on", "time": 12, "note": 81, "velocity": 110, "channel": 0}, {"type": "note_off", "time": 80, "note": 81, "velocity": 110, "channel": 0}, {"type": "note_on", "time": 290, "note": 70, "velocity": 110, "channel": 0}, {"type": "note_off", "time": 32, "note": 70, "velocity": 110, "channel": 0}, {"type": "note_on", "time": 15, "note": 77, "velocity": 118, "channel": 0}, {"type": "note_off", "time": 87, "note": 77, "velocity": 118, "channel": 0}, {"type": "note_on", "time": 23, "note": 75, "velocity": 97, "channel": 0}, {"type": "note_off", "time": 19, "note": 75, "velocity": 97, "channel": 0}, {"type": "note_on", "time": 59, "note": 74, "velocity": 112, "channel": 0}, {"type": "note_off", "time": 105, "note": 74, "velocity": 112, "channel": 0}, {"type": "note_on", "time": 28, "note": 79, "velocity": 124, "channel": 0}, {"type": "note_off", "time": 82, "note": 79, "velocity": 124, "channel": 0}, {"type": "note_on", "time": 174, "note": 74, "velocity": 113, "channel": 0}, {"type": "note_off", "time": 148, "note": 74, "velocity": 113, "channel": 0}, {"type": "note_on", "time": 7, "note": 69, "velocity": 82, "channel": 0}, {"type": "note_off", "time": 28, "note": 69, "velocity": 82, "channel": 0}, {"type": "note_on", "time": 10, "note": 73, "velocity": 111, "channel": 0}, {"type": "note_off", "time": 115, "note": 73, "velocity": 111, "channel": 0}, {"type": "note_on", "time": 8, "note": 67, "velocity": 81, "channel": 0}, {"type": "note_off", "time": 40, "note": 67, "velocity": 81, "channel": 0}, {"type": "note_on", "time": 16, "note": 72, "velocity": 99, "channel": 0}, {"type": "note_off", "time": 95, "note": 72, "velocity": 99, "channel": 0}, {"type": "note_on", "time": 43, "note": 77, "velocity": 108, "channel": 0}, {"type": "note_off", "time": 69, "note": 77, "velocity": 108, "channel": 0}, {"type": "note_on", "time": 144, "note": 65, "velocity": 104, "channel": 0}, {"type": "note_off", "time": 31, "note": 65, "velocity": 104, "channel": 0}, {"type": "note_on", "time": 25, "note": 73, "velocity": 100, "channel": 0}, {"type": "note_off", "time": 115, "note": 73, "velocity": 100, "channel": 0}, {"type": "note_on", "time": 19, "note": 64, "velocity": 81, "channel": 0}, {"type": "note_off", "time": 19, "note": 64, "velocity": 81, "channel": 0}, {"type": "note_on", "time": 16, "note": 71, "velocity": 100, "channel": 0}, {"type": "note_off", "time": 115, "note": 71, "velocity": 100, "channel": 0}, {"type": "note_on", "time": 35, "note": 59, "velocity": 78, "channel": 0}, {"type": "note_off", "time": 25, "note": 59, "velocity": 78, "channel": 0}, {"type": "note_on", "time": 3, "note": 70, "velocity": 88, "channel": 0}, {"type": "note_off", "time": 140, "note": 70, "velocity": 88, "channel": 0}, {"type": "note_on", "time": 4, "note": 69, "velocity": 90, "channel": 0}, {"type": "note_off", "time": 75, "note": 69, "velocity": 90, "channel": 0}, {"type": "end_of_track", "time": 0}]]}