{"ticks_per_beat": 192, "tracks": [[{"type": "track_name", "name": "Melody", "time": 0}, {"type": "set_tempo", "tempo": 410958, "time": 0}, {"type": "key_signature", "key": "F", "time": 0}, {"type": "time_signature", "numerator": 4, "denominator": 4, "clocks_per_click": 24, "notated_32nd_notes_per_beat": 8, "time": 0}, {"type": "note_on", "time": 1451, "note": 75, "velocity": 107, "channel": 0}, {"type": "note_off", "time": 85, "note": 75, "velocity": 107, "channel": 0}, {"type": "note_on", "time": 99, "note": 72, "velocity": 96, "channel": 0}, {"type": "note_off", "time": 484, "note": 72, "velocity": 96, "channel": 0}, {"type": "note_on", "time": 110, "note": 71, "velocity": 93, "channel": 0}, {"type": "note_off", "time": 57, "note": 71, "velocity": 93, "channel": 0}, {"type": "note_on", "time": 144, "note": 67, "velocity": 90, "channel": 0}, {"type": "note_off", "time": 493, "note": 67, "velocity": 90, "channel": 0}, {"type": "note_on", "time": 80, "note": 64, "velocity": 99, "channel": 0}, {"type": "note_off", "time": 49, "note": 64, "velocity": 99, "channel": 0}, {"type": "note_on", "time": 152, "note": 60, "velocity": 81, "channel": 0}, {"type": "note_off", "time": 398, "note": 60, "velocity": 81, "channel": 0}, {"type": "note_on", "time": 539, "note": 81, "velocity": 114, "channel": 0}, {"type": "note_off", "time": 73, "note": 81, "velocity": 114, "channel": 0}, {"type": "note_on", "time": 129, "note": 77, "velocity": 110, "channel": 0}, {"type": "note_off", "time": 508, "note": 77, "velocity": 110, "channel": 0}, {"type": "note_on", "time": 63, "note": 76, "velocity": 111, "channel": 0}, {"type": "note_off", "time": 39, "note": 76, "velocity": 111, "channel": 0}, {"type": "note_on", "time": 145, "note": 72, "velocity": 101, "channel": 0}, {"type": "note_off", "time": 195, "note": 72, "velocity": 101, "channel": 0}, {"type": "note_on", "time": 14, "note": 68, "velocity": 103, "channel": 0}, {"type": "note_off", "time": 48, "note": 68, "velocity": 103, "channel": 0}, {"type": "note_on", "time": 101, "note": 64, "velocity": 103, "channel": 0}, {"type": "note_off", "time": 221, "note": 64, "velocity": 103, "channel": 0}, {"type": "note_on", "time": 23, "note": 60, "velocity": 93, "channel": 0}, {"type": "note_off", "time": 92, "note": 60, "velocity": 93, "channel": 0}, {"type": "note_on", "time": 45, "note": 62, "velocity": 90, "channel": 0}, {"type": "note_off", "time": 385, "note": 62, "velocity": 90, "channel": 0}, {"type": "note_on", "time": 935, "note": 72, "velocity": 104, "channel": 0}, {"type": "note_off", "time": 44, "note": 72, "velocity": 104, "channel": 0}, {"type": "note_on", "time": 124, "note": 69, "velocity": 102, "channel": 0}, {"type": "note_off", "time": 178, "note": 69, "velocity": 102, "channel": 0}, {"type": "note_on", "time": 27, "note": 65, "velocity": 99, "channel": 0}, {"type": "note_off", "time": 51, "note": 65, "velocity": 99, "channel": 0}, {"type": "note_on", "time": 131, "note": 61, "velocity": 94, "channel": 0}, {"type": "note_off", "time": 120, "note": 61, "velocity": 94, "channel": 0}, {"type": "note_on", "time": 63, "note": 75, "velocity": 108, "channel": 0}, {"type": "note_off", "time": 40, "note": 75, "velocity": 108, "channel": 0}, {"type": "note_on", "time": 108, "note": 72, "velocity": 94, "channel": 0}, {"type": "note_off", "time": 135, "note": 72, "velocity": 94, "channel": 0}, {"type": "note_on", "time": 62, "note": 79, "velocity": 108, "channel": 0}, {"type": "note_off", "time": 37, "note": 79, "velocity": 108, "channel": 0}, {"type": "note_on", "time": 132, "note": 76, "velocity": 107, "channel": 0}, {"type": "note_off", "time": 221, "note": 76, "velocity": 107, "channel": 0}, {"type": "note_on", "time": 51, "note": 71, "velocity": 98, "channel": 0}, {"type": "note_off", "time": 51, "note": 71, "velocity": 98, "channel": 0}, {"type": "note_on", "time": 128, "note": 69, "velocity": 98, "channel": 0}, {"type": "note_off", "time": 154, "note": 69, "velocity": 98, "channel": 0}, {"type": "note_on", "time": 17, "note": 67, "velocity": 99, "channel": 0}, {"type": "note_off", "time": 111, "note": 67, "velocity": 99, "channel": 0}, {"type": "note_on", "time": 48, "note": 64, "velocity": 85, "channel": 0}, {"type": "note_off", "time": 249, "note": 64, "velocity": 85, "channel": 0}, {"type": "note_on", "time": 726, "note": 78, "velocity": 122, "channel": 0}, {"type": "note_off", "time": 82, "note": 78, "velocity": 122, "channel": 0}, {"type": "note_on", "time": 65, "note": 75, "velocity": 113, "channel": 0}, {"type": "note_off", "time": 227, "note": 75, "velocity": 113, "channel": 0}, {"type": "note_on", "time": 33, "note": 71, "velocity": 99, "channel": 0}, {"type": "note_off", "time": 103, "note": 71, "velocity": 99, "channel": 0}, {"type": "note_on", "time": 43, "note": 73, "velocity": 96, "channel": 0}, {"type": "note_off", "time": 546, "note": 73, "velocity": 96, "channel": 0}, {"type": "note_on", "time": 65, "note": 68, "velocity": 97, "channel": 0}, {"type": "note_off", "time": 538, "note": 68, "velocity": 97, "channel": 0}, {"type": "note_on", "time": 69, "note": 64, "velocity": 100, "channel": 0}, {"type": "note_off", "time": 269, "note": 64, "velocity": 100, "channel": 0}, {"type": "note_on", "time": 28, "note": 63, "velocity": 98, "channel": 0}, {"type": "note_off", "time": 381, "note": 63, "velocity": 98, "channel": 0}, {"type": "note_on", "time": 54, "note": 64, "velocity": 105, "channel": 0}, {"type": "note_off", "time": 88, "note": 64, "velocity": 105, "channel": 0}, {"type": "note_on", "time": 11, "note": 67, "velocity": 106, "channel": 0}, {"type": "note_off", "time": 70, "note": 67, "velocity": 106, "channel": 0}, {"type": "note_on", "time": 16, "note": 69, "velocity": 103, "channel": 0}, {"type": "note_off", "time": 94, "note": 69, "velocity": 103, "channel": 0}, {"type": "note_on", "time": 9, "note": 72, "velocity": 106, "channel": 0}, {"type": "note_off", "time": 28, "note": 72, "velocity": 106, "channel": 0}, {"type": "note_on", "time": 13, "note": 70, "velocity": 100, "channel": 0}, {"type": "note_off", "time": 557, "note": 70, "velocity": 100, "channel": 0}, {"type": "note_on", "time": 36, "note": 67, "velocity": 98, "channel": 0}, {"type": "note_off", "time": 47, "note": 67, "velocity": 98, "channel": 0}, {"type": "note_on", "time": 73, "note": 77, "velocity": 114, "channel": 0}, {"type": "note_off", "time": 58, "note": 77, "velocity": 114, "channel": 0}, {"type": "note_on", "time": 104, "note": 74, "velocity": 105, "channel": 0}, {"type": "note_off", "time": 195, "note": 74, "velocity": 105, "channel": 0}, {"type": "note_on", "time": 53, "note": 67, "velocity": 84, "channel": 0}, {"type": "note_off", "time": 55, "note": 67, "velocity": 84, "channel": 0}, {"type": "note_on", "time": 122, "note": 70, "velocity": 98, "channel": 0}, {"type": "note_off", "time": 114, "note": 70, "velocity": 98, "channel": 0}, {"type": "note_on", "time": 89, "note": 64, "velocity": 96, "channel": 0}, {"type": "note_off", "time": 145, "note": 64, "velocity": 96, "channel": 0}, {"type": "note_on", "time": 64, "note": 75, "velocity": 111, "channel": 0}, {"type": "note_off", "time": 92, "note": 75, "velocity": 111, "channel": 0}, {"type": "note_on", "time": 29, "note": 69, "velocity": 80, "channel": 0}, {"type": "note_off", "time": 32, "note": 69, "velocity": 80, "channel": 0}, {"type": "note_on", "time": 28, "note": 73, "velocity": 101, "channel": 0}, {"type": "note_off", "time": 110, "note": 73, "velocity": 101, "channel": 0}, {"type": "note_on", "time": 25, "note": 72, "velocity": 88, "channel": 0}, {"type": "note_off", "time": 189, "note": 72, "velocity": 88, "channel": 0}, {"type": "note_on", "time": 530, "note": 68, "velocity": 109, "channel": 0}, {"type": "note_off", "time": 65, "note": 68, "velocity": 109, "channel": 0}, {"type": "note_on", "time": 12, "note": 69, "velocity": 101, "channel": 0}, {"type": "note_off", "time": 51, "note": 69, "velocity": 101, "channel": 0}, {"type": "note_on", "time": 6, "note": 73, "velocity": 89, "channel": 0}, {"type": "note_off", "time": 34, "note": 73, "velocity": 89, "channel": 0}, {"type": "note_on", "time": 6, "note": 74, "velocity": 122, "channel": 0}, {"type": "note_off", "time": 84, "note": 74, "velocity": 122, "channel": 0}, {"type": "note_on", "time": 44, "note": 74, "velocity": 112, "channel": 0}, {"type": "note_off", "time": 86, "note": 74, "velocity": 112, "channel": 0}, {"type": "note_on", "time": 8, "note": 75, "velocity": 105, "channel": 0}, {"type": "note_off", "time": 148, "note": 75, "velocity": 105, "channel": 0}, {"type": "note_on", "time": 21, "note": 77, "velocity": 106, "channel": 0}, {"type": "note_off", "time": 69, "note": 77, "velocity": 106, "channel": 0}, {"type": "note_on", "time": 10, "note": 74, "velocity": 106, "channel": 0}, {"type": "note_off", "time": 119, "note": 74, "velocity": 106, "channel": 0}, {"type": "note_on", "time": 74, "note": 72, "velocity": 97, "channel": 0}, {"type": "note_off", "time": 69, "note": 72, "velocity": 97, "channel": 0}, {"type": "note_on", "time": 54, "note": 69, "velocity": 96, "channel": 0}, {"type": "note_off", "time": 93, "note": 69, "velocity": 96, "channel": 0}, {"type": "note_on", "time": 81, "note": 64, "velocity": 96, "channel": 0}, {"type": "note_off", "time": 23, "note": 64, "velocity": 96, "channel": 0}, {"type": "note_on", "time": 39, "note": 67, "velocity": 101, "channel": 0}, {"type": "note_off", "time": 81, "note": 67, "velocity": 101, "channel": 0}, {"type": "note_on", "time": 11, "note": 64, "velocity": 99, "channel": 0}, {"type": "note_off", "time": 61, "note": 64, "velocity": 99, "channel": 0}, {"type": "note_on", "time": 26, "note": 66, "velocity": 98, "channel": 0}, {"type": "note_off", "time": 83, "note": 66, "velocity": 98, "channel": 0}, {"type": "note_on", "time": 22, "note": 63, "velocity": 104, "channel": 0}, {"type": "note_off", "time": 81, "note": 63, "velocity": 104, "channel": 0}, {"type": "note_on", "time": 8, "note": 62, "velocity": 96, "channel": 0}, {"type": "note_off", "time": 110, "note": 62, "velocity": 96, "channel": 0}, {"type": "note_on", "time": 10, "note": 60, "velocity": 93, "channel": 0}, {"type": "note_off", "time": 79, "note": 60, "velocity": 93, "channel": 0}, {"type": "note_on", "time": 13, "note": 61, "velocity": 95, "channel": 0}, {"type": "note_off", "time": 284, "note": 61, "velocity": 95, "channel": 0}, {"type": "note_on", "time": 729, "note": 60, "velocity": 92, "channel": 0}, {"type": "note_off", "time": 106, "note": 60, "velocity": 92, "channel": 0}, {"type": "note_on", "time": 44, "note": 60, "velocity": 99, "channel": 0}, {"type": "note_off", "time": 18, "note": 60, "velocity": 99, "channel": 0}, {"type": "note_on", "time": 6, "note": 61, "velocity": 93, "channel": 0}, {"type": "note_off", "time": 105, "note": 61, "velocity": 93, "channel": 0}, {"type": "note_on", "time": 2, "note": 60, "velocity": 84, "channel": 0}, {"type": "note_off", "time": 20, "note": 60, "velocity": 84, "channel": 0}, {"type": "note_on", "time": 41, "note": 60, "velocity": 88, "channel": 0}, {"type": "note_off", "time": 91, "note": 60, "velocity": 88, "channel": 0}, {"type": "note_on", "time": 37, "note": 60, "velocity": 96, "channel": 0}, {"type": "note_off", "time": 18, "note": 60, "velocity": 96, "channel": 0}, {"type": "note_on", "time": 1, "note": 61, "velocity": 92, "channel": 0}, {"type": "note_off", "time": 122, "note": 61, "velocity": 92, "channel": 0}, {"type": "note_on", "time": 1, "note": 60, "velocity": 80, "channel": 0}, {"type": "note_off", "time": 19, "note": 60, "velocity": 80, "channel": 0}, {"type": "note_on", "time": 58, "note": 60, "velocity": 90, "channel": 0}, {"type": "note_off", "time": 77, "note": 60, "velocity": 90, "channel": 0}, {"type": "note_on", "time": 44, "note": 60, "velocity": 95, "channel": 0}, {"type": "note_off", "time": 23, "note": 60, "velocity": 95, "channel": 0}, {"type": "note_on", "time": 0, "note": 61, "velocity": 92, "channel": 0}, {"type": "note_off", "time": 141, "note": 61, "velocity": 92, "channel": 0}, {"type": "note_on", "time": 2, "note": 60, "velocity": 84, "channel": 0}, {"type": "note_off", "time": 21, "note": 60, "velocity": 84, "channel": 0}, {"type": "note_on", "time": 76, "note": 60, "velocity": 89, "channel": 0}, {"type": "note_off", "time": 71, "note": 60, "velocity": 89, "channel": 0}, {"type": "note_on", "time": 26, "note": 61, "velocity": 92, "channel": 0}, {"type": "note_off", "time": 105, "note": 61, "velocity": 92, "channel": 0}, {"type": "note_on", "time": 23, "note": 63, "velocity": 100, "channel": 0}, {"type": "note_off", "time": 47, "note": 63, "velocity": 100, "channel": 0}, {"type": "note_on", "time": 10, "note": 65, "velocity": 97, "channel": 0}, {"type": "note_off", "time": 112, "note": 65, "velocity": 97, "channel": 0}, {"type": "note_on", "time": 35, "note": 63, "velocity": 98, "channel": 0}, {"type": "note_off", "time": 76, "note": 63, "velocity": 98, "channel": 0}, {"type": "note_on", "time": 98, "note": 61, "velocity": 92, "channel": 0}, {"type": "note_off", "time": 72, "note": 61, "velocity": 92, "channel": 0}, {"type": "note_on", "time": 122, "note": 60, "velocity": 88, "channel": 0}, {"type": "note_off", "time": 74, "note": 60, "velocity": 88, "channel": 0}, {"type": "note_on", "time": 32, "note": 59, "velocity": 81, "channel": 0}, {"type": "note_off", "time": 283, "note": 59, "velocity": 81, "channel": 0}, {"type": "note_on", "time": 602, "note": 71, "velocity": 117, "channel": 0}, {"type": "note_off", "time": 87, "note": 71, "velocity": 117, "channel": 0}, {"type": "note_on", "time": 104, "note": 68, "velocity": 113, "channel": 0}, {"type": "note_off", "time": 79, "note": 68, "velocity": 113, "channel": 0}, {"type": "note_on", "time": 82, "note": 76, "velocity": 115, "channel": 0}, {"type": "note_off", "time": 37, "note": 76, "velocity": 115, "channel": 0}, {"type": "note_on", "time": 4, "note": 77, "velocity": 121, "channel": 0}, {"type": "note_off", "time": 81, "note": 77, "velocity": 121, "channel": 0}, {"type": "note_on", "time": 81, "note": 76, "velocity": 121, "channel": 0}, {"type": "note_off", "time": 87, "note": 76, "velocity": 121, "channel": 0}, {"type": "note_on", "time": 94, "note": 72, "velocity": 109, "channel": 0}, {"type": "note_off", "time": 43, "note": 72, "velocity": 109, "channel": 0}, {"type": "note_on", "time": 49, "note": 69, "velocity": 111, "channel": 0}, {"type": "note_off", "time": 80, "note": 69, "velocity": 111, "channel": 0}, {"type": "note_on", "time": 37, "note": 67, "velocity": 97, "channel": 0}, {"type": "note_off", "time": 51, "note": 67, "velocity": 97, "channel": 0}, {"type": "note_on", "time": 8, "note": 68, "velocity": 96, "channel": 0}, {"type": "note_off", "time": 227, "note": 68, "velocity": 96, "channel": 0}, {"type": "note_on", "time": 660, "note": 69, "velocity": 110, "channel": 0}, {"type": "note_off", "time": 59, "note": 69, "velocity": 110, "channel": 0}, {"type": "note_on", "time": 23, "note": 72, "velocity": 100, "channel": 0}, {"type": "note_off", "time": 87, "note": 72, "velocity": 100, "channel": 0}, {"type": "note_on", "time": 20, "note": 77, "velocity": 95, "channel": 0}, {"type": "note_off", "time": 20, "note": 77, "velocity": 95, "channel": 0}, {"type": "note_on", "time": 1, "note": 74, "velocity": 118, "channel": 0}, {"type": "note_off", "time": 52, "note": 74, "velocity": 118, "channel": 0}, {"type": "note_on", "time": 47, "note": 76, "velocity": 126, "channel": 0}, {"type": "note_off", "time": 38, "note": 76, "velocity": 126, "channel": 0}, {"type": "note_on", "time": 7, "note": 77, "velocity": 125, "channel": 0}, {"type": "note_off", "time": 199, "note": 77, "velocity": 125, "channel": 0}, {"type": "note_on", "time": 16, "note": 74, "velocity": 111, "channel": 0}, {"type": "note_off", "time": 45, "note": 74, "velocity": 111, "channel": 0}, {"type": "note_on", "time": 12, "note": 77, "velocity": 100, "channel": 0}, {"type": "note_off", "time": 159, "note": 77, "velocity": 100, "channel": 0}, {"type": "note_on", "time": 20, "note": 77, "velocity": 121, "channel": 0}, {"type": "note_off", "time": 141, "note": 77, "velocity": 121, "channel": 0}, {"type": "note_on", "time": 513, "note": 72, "velocity": 103, "channel": 0}, {"type": "note_off", "time": 98, "note": 72, "velocity": 103, "channel": 0}, {"type": "note_on", "time": 26, "note": 77, "velocity": 108, "channel": 0}, {"type": "note_off", "time": 57, "note": 77, "velocity": 108, "channel": 0}, {"type": "note_on", "time": 15, "note": 77, "velocity": 124, "channel": 0}, {"type": "note_off", "time": 114, "note": 77, "velocity": 124, "channel": 0}, {"type": "note_on", "time": 15, "note": 79, "velocity": 120, "channel": 0}, {"type": "note_off", "time": 992, "note": 79, "velocity": 120, "channel": 0}, {"type": "note_on", "time": 37, "note": 75, "velocity": 111, "channel": 0}, {"type": "note_off", "time": 105, "note": 75, "velocity": 111, "channel": 0}, {"type": "note_on", "time": 22, "note": 72, "velocity": 110, "channel": 0}, {"type": "note_off", "time": 53, "note": 72, "velocity": 110, "channel": 0}, {"type": "note_on", "time": 19, "note": 69, "velocity": 109, "channel": 0}, {"type": "note_off", "time": 78, "note": 69, "velocity": 109, "channel": 0}, {"type": "note_on", "time": 35, "note": 65, "velocity": 111, "channel": 0}, {"type": "note_off", "time": 45, "note": 65, "velocity": 111, "channel": 0}, {"type": "note_on", "time": 18, "note": 61, "velocity": 102, "channel": 0}, {"type": "note_off", "time": 111, "note": 61, "velocity": 102, "channel": 0}, {"type": "note_on", "time": 30, "note": 57, "velocity": 91, "channel": 0}, {"type": "note_off", "time": 36, "note": 57, "velocity": 91, "channel": 0}, {"type": "note_on", "time": 15, "note": 60, "velocity": 86, "channel": 0}, {"type": "note_off", "time": 187, "note": 60, "velocity": 86, "channel": 0}, {"type": "note_on", "time": 36, "note": 64, "velocity": 102, "channel": 0}, {"type": "note_off", "time": 51, "note": 64, "velocity": 102, "channel": 0}, {"type": "note_on", "time": 23, "note": 67, "velocity": 92, "channel": 0}, {"type": "note_off", "time": 33, "note": 67, "velocity": 92, "channel": 0}, {"type": "note_on", "time": 9, "note": 71, "velocity": 120, "channel": 0}, {"type": "note_off", "time": 59, "note": 71, "velocity": 120, "channel": 0}, {"type": "note_on", "time": 6, "note": 74, "velocity": 121, "channel": 0}, {"type": "note_off", "time": 115, "note": 74, "velocity": 121, "channel": 0}, {"type": "note_on", "time": 9, "note": 71, "velocity": 105, "channel": 0}, {"type": "note_off", "time": 35, "note": 71, "velocity": 105, "channel": 0}, {"type": "note_on", "time": 3, "note": 72, "velocity": 118, "channel": 0}, {"type": "note_off", "time": 113, "note": 72, "velocity": 118, "channel": 0}, {"type": "note_on", "time": 11, "note": 74, "velocity": 99, "channel": 0}, {"type": "note_off", "time": 20, "note": 74, "velocity": 99, "channel": 0}, {"type": "note_on", "time": 2, "note": 72, "velocity": 113, "channel": 0}, {"type": "note_off", "time": 39, "note": 72, "velocity": 113, "channel": 0}, {"type": "note_on", "time": 6, "note": 71, "velocity": 105, "channel": 0}, {"type": "note_off", "time": 113, "note": 71, "velocity": 105, "channel": 0}, {"type": "note_on", "time": 20, "note": 69, "velocity": 108, "channel": 0}, {"type": "note_off", "time": 75, "note": 69, "velocity": 108, "channel": 0}, {"type": "note_on", "time": 93, "note": 67, "velocity": 109, "channel": 0}, {"type": "note_off", "time": 146, "note": 67, "velocity": 109, "channel": 0}, {"type": "note_on", "time": 31, "note": 64, "velocity": 10, "channel": 0}, {"type": "note_off", "time": 81, "note": 64, "velocity": 10, "channel": 0}, {"type": "note_on", "time": 7, "note": 62, "velocity": 101, "channel": 0}, {"type": "note_off", "time": 87, "note": 62, "velocity": 101, "channel": 0}, {"type": "note_on", "time": 36, "note": 57, "velocity": 108, "channel": 0}, {"type": "note_off", "time": 43, "note": 57, "velocity": 108, "channel": 0}, {"type": "note_on", "time": 12, "note": 61, "velocity": 89, "channel": 0}, {"type": "note_off", "time": 159, "note": 61, "velocity": 89, "channel": 0}, {"type": "note_on", "time": 492, "note": 76, "velocity": 120, "channel": 0}, {"type": "note_off", "time": 36, "note": 76, "velocity": 120, "channel": 0}, {"type": "note_on", "time": 3, "note": 77, "velocity": 96, "channel": 0}, {"type": "note_off", "time": 70, "note": 77, "velocity": 96, "channel": 0}, {"type": "note_on", "time": 48, "note": 75, "velocity": 104, "channel": 0}, {"type": "note_off", "time": 16, "note": 75, "velocity": 104, "channel": 0}, {"type": "note_on", "time": 3, "note": 73, "velocity": 108, "channel": 0}, {"type": "note_off", "time": 176, "note": 73, "velocity": 108, "channel": 0}, {"type": "note_on", "time": 61, "note": 78, "velocity": 121, "channel": 0}, {"type": "note_off", "time": 71, "note": 78, "velocity": 121, "channel": 0}, {"type": "note_on", "time": 37, "note": 75, "velocity": 103, "channel": 0}, {"type": "note_off", "time": 78, "note": 75, "velocity": 103, "channel": 0}, {"type": "note_on", "time": 20, "note": 73, "velocity": 103, "channel": 0}, {"type": "note_off", "time": 61, "note": 73, "velocity": 103, "channel": 0}, {"type": "note_on", "time": 25, "note": 72, "velocity": 93, "channel": 0}, {"type": "note_off", "time": 72, "note": 72, "velocity": 93, "channel": 0}, {"type": "note_on", "time": 13, "note": 70, "velocity": 104, "channel": 0}, {"type": "note_off", "time": 71, "note": 70, "velocity": 104, "channel": 0}, {"type": "note_on", "time": 3, "note": 69, "velocity": 102, "channel": 0}, {"type": "note_off", "time": 69, "note": 69, "velocity": 102, "channel": 0}, {"type": "note_on", "time": 27, "note": 64, "velocity": 103, "channel": 0}, {"type": "note_off", "time": 45, "note": 64, "velocity": 103, "channel": 0}, {"type": "note_on", "time": 31, "note": 60, "velocity": 92, "channel": 0}, {"type": "note_off", "time": 77, "note": 60, "velocity": 92, "channel": 0}, {"type": "note_on", "time": 15, "note": 58, "velocity": 96, "channel": 0}, {"type": "note_off", "time": 63, "note": 58, "velocity": 96, "channel": 0}, {"type": "note_on", "time": 20, "note": 57, "velocity": 83, "channel": 0}, {"type": "note_off", "time": 278, "note": 57, "velocity": 83, "channel": 0}, {"type": "note_on", "time": 420, "note": 60, "velocity": 95, "channel": 0}, {"type": "note_off", "time": 33, "note": 60, "velocity": 95, "channel": 0}, {"type": "note_on", "time": 15, "note": 62, "velocity": 95, "channel": 0}, {"type": "note_off", "time": 38, "note": 62, "velocity": 95, "channel": 0}, {"type": "note_on", "time": 10, "note": 64, "velocity": 100, "channel": 0}, {"type": "note_off", "time": 27, "note": 64, "velocity": 100, "channel": 0}, {"type": "note_on", "time": 9, "note": 65, "velocity": 107, "channel": 0}, {"type": "note_off", "time": 34, "note": 65, "velocity": 107, "channel": 0}, {"type": "note_on", "time": 2, "note": 67, "velocity": 117, "channel": 0}, {"type": "note_off", "time": 42, "note": 67, "velocity": 117, "channel": 0}, {"type": "note_on", "time": 2, "note": 69, "velocity": 117, "channel": 0}, {"type": "note_off", "time": 37, "note": 69, "velocity": 117, "channel": 0}, {"type": "note_on", "time": 2, "note": 70, "velocity": 120, "channel": 0}, {"type": "note_off", "time": 66, "note": 70, "velocity": 120, "channel": 0}, {"type": "note_on", "time": 7, "note": 72, "velocity": 119, "channel": 0}, {"type": "note_off", "time": 81, "note": 72, "velocity": 119, "channel": 0}, {"type": "note_on", "time": 29, "note": 73, "velocity": 121, "channel": 0}, {"type": "note_off", "time": 98, "note": 73, "velocity": 121, "channel": 0}, {"type": "note_on", "time": 9, "note": 75, "velocity": 124, "channel": 0}, {"type": "note_off", "time": 98, "note": 75, "velocity": 124, "channel": 0}, {"type": "note_on", "time": 21, "note": 73, "velocity": 119, "channel": 0}, {"type": "note_off", "time": 69, "note": 73, "velocity": 119, "channel": 0}, {"type": "note_on", "time": 29, "note": 75, "velocity": 121, "channel": 0}, {"type": "note_off", "time": 148, "note": 75, "velocity": 121, "channel": 0}, {"type": "note_on", "time": 208, "note": 73, "velocity": 120, "channel": 0}, {"type": "note_off", "time": 70, "note": 73, "velocity": 120, "channel": 0}, {"type": "note_on", "time": 54, "note": 75, "velocity": 125, "channel": 0}, {"type": "note_off", "time": 69, "note": 75, "velocity": 125, "channel": 0}, {"type": "note_on", "time": 14, "note": 77, "velocity": 120, "channel": 0}, {"type": "note_off", "time": 20, "note": 77, "velocity": 120, "channel": 0}, {"type": "note_on", "time": 11, "note": 78, "velocity": 116, "channel": 0}, {"type": "note_off", "time": 24, "note": 78, "velocity": 116, "channel": 0}, {"type": "note_on", "time": 1, "note": 75, "velocity": 116, "channel": 0}, {"type": "note_off", "time": 20, "note": 75, "velocity": 116, "channel": 0}, {"type": "note_on", "time": 8, "note": 73, "velocity": 120, "channel": 0}, {"type": "note_off", "time": 94, "note": 73, "velocity": 120, "channel": 0}, {"type": "note_on", "time": 36, "note": 75, "velocity": 124, "channel": 0}, {"type": "note_off", "time": 74, "note": 75, "velocity": 124, "channel": 0}, {"type": "note_on", "time": 11, "note": 77, "velocity": 113, "channel": 0}, {"type": "note_off", "time": 21, "note": 77, "velocity": 113, "channel": 0}, {"type": "note_on", "time": 5, "note": 78, "velocity": 111, "channel": 0}, {"type": "note_off", "time": 20, "note": 78, "velocity": 111, "channel": 0}, {"type": "note_on", "time": 5, "note": 75, "velocity": 110, "channel": 0}, {"type": "note_off", "time": 17, "note": 75, "velocity": 110, "channel": 0}, {"type": "note_on", "time": 10, "note": 73, "velocity": 120, "channel": 0}, {"type": "note_off", "time": 55, "note": 73, "velocity": 120, "channel": 0}, {"type": "note_on", "time": 23, "note": 72, "velocity": 110, "channel": 0}, {"type": "note_off", "time": 75, "note": 72, "velocity": 110, "channel": 0}, {"type": "note_on", "time": 28, "note": 70, "velocity": 116, "channel": 0}, {"type": "note_off", "time": 55, "note": 70, "velocity": 116, "channel": 0}, {"type": "note_on", "time": 45, "note": 71, "velocity": 119, "channel": 0}, {"type": "note_off", "time": 43, "note": 71, "velocity": 119, "channel": 0}, {"type": "note_on", "time": 8, "note": 72, "velocity": 117, "channel": 0}, {"type": "note_off", "time": 143, "note": 72, "velocity": 117, "channel": 0}, {"type": "note_on", "time": 10, "note": 71, "velocity": 115, "channel": 0}, {"type": "note_off", "time": 87, "note": 71, "velocity": 115, "channel": 0}, {"type": "note_on", "time": 18, "note": 72, "velocity": 115, "channel": 0}, {"type": "note_off", "time": 213, "note": 72, "velocity": 115, "channel": 0}, {"type": "note_on", "time": 311, "note": 72, "velocity": 118, "channel": 0}, {"type": "note_off", "time": 65, "note": 72, "velocity": 118, "channel": 0}, {"type": "note_on", "time": 23, "note": 74, "velocity": 119, "channel": 0}, {"type": "note_off", "time": 80, "note": 74, "velocity": 119, "channel": 0}, {"type": "note_on", "time": 19, "note": 76, "velocity": 126, "channel": 0}, {"type": "note_off", "time": 58, "note": 76, "velocity": 126, "channel": 0}, {"type": "note_on", "time": 24, "note": 77, "velocity": 124, "channel": 0}, {"type": "note_off", "time": 102, "note": 77, "velocity": 124, "channel": 0}, {"type": "note_on", "time": 9, "note": 78, "velocity": 126, "channel": 0}, {"type": "note_off", "time": 60, "note": 78, "velocity": 126, "channel": 0}, {"type": "note_on", "time": 10, "note": 79, "velocity": 124, "channel": 0}, {"type": "note_off", "time": 94, "note": 79, "velocity": 124, "channel": 0}, {"type": "note_on", "time": 22, "note": 82, "velocity": 124, "channel": 0}, {"type": "note_off", "time": 100, "note": 82, "velocity": 124, "channel": 0}, {"type": "note_on", "time": 40, "note": 81, "velocity": 122, "channel": 0}, {"type": "note_off", "time": 101, "note": 81, "velocity": 122, "channel": 0}, {"type": "note_on", "time": 15, "note": 79, "velocity": 100, "channel": 0}, {"type": "note_off", "time": 15, "note": 79, "velocity": 100, "channel": 0}, {"type": "note_on", "time": 4, "note": 77, "velocity": 115, "channel": 0}, {"type": "note_off", "time": 56, "note": 77, "velocity": 115, "channel": 0}, {"type": "note_on", "time": 7, "note": 80, "velocity": 119, "channel": 0}, {"type": "note_off", "time": 81, "note": 80, "velocity": 119, "channel": 0}, {"type": "note_on", "time": 11, "note": 77, "velocity": 119, "channel": 0}, {"type": "note_off", "time": 61, "note": 77, "velocity": 119, "channel": 0}, {"type": "note_on", "time": 7, "note": 76, "velocity": 120, "channel": 0}, {"type": "note_off", "time": 81, "note": 76, "velocity": 120, "channel": 0}, {"type": "note_on", "time": 20, "note": 73, "velocity": 116, "channel": 0}, {"type": "note_off", "time": 79, "note": 73, "velocity": 116, "channel": 0}, {"type": "note_on", "time": 108, "note": 65, "velocity": 116, "channel": 0}, {"type": "note_off", "time": 53, "note": 65, "velocity": 116, "channel": 0}, {"type": "note_on", "time": 58, "note": 71, "velocity": 117, "channel": 0}, {"type": "note_off", "time": 81, "note": 71, "velocity": 117, "channel": 0}, {"type": "note_on", "time": 9, "note": 73, "velocity": 116, "channel": 0}, {"type": "note_off", "time": 74, "note": 73, "velocity": 116, "channel": 0}, {"type": "note_on", "time": 10, "note": 74, "velocity": 121, "channel": 0}, {"type": "note_off", "time": 87, "note": 74, "velocity": 121, "channel": 0}, {"type": "note_on", "time": 14, "note": 70, "velocity": 107, "channel": 0}, {"type": "note_off", "time": 80, "note": 70, "velocity": 107, "channel": 0}, {"type": "note_on", "time": 11, "note": 69, "velocity": 108, "channel": 0}, {"type": "note_off", "time": 81, "note": 69, "velocity": 108, "channel": 0}, {"type": "note_on", "time": 27, "note": 67, "velocity": 107, "channel": 0}, {"type": "note_off", "time": 63, "note": 67, "velocity": 107, "channel": 0}, {"type": "note_on", "time": 9, "note": 68, "velocity": 105, "channel": 0}, {"type": "note_off", "time": 83, "note": 68, "velocity": 105, "channel": 0}, {"type": "note_on", "time": 9, "note": 65, "velocity": 106, "channel": 0}, {"type": "note_off", "time": 40, "note": 65, "velocity": 106, "channel": 0}, {"type": "note_on", "time": 3, "note": 64, "velocity": 109, "channel": 0}, {"type": "note_off", "time": 43, "note": 64, "velocity": 109, "channel": 0}, {"type": "note_on", "time": 3, "note": 62, "velocity": 103, "channel": 0}, {"type": "note_off", "time": 105, "note": 62, "velocity": 103, "channel": 0}, {"type": "note_on", "time": 10, "note": 64, "velocity": 104, "channel": 0}, {"type": "note_off", "time": 42, "note": 64, "velocity": 104, "channel": 0}, {"type": "note_on", "time": 20, "note": 61, "velocity": 101, "channel": 0}, {"type": "note_off", "time": 99, "note": 61, "velocity": 101, "channel": 0}, {"type": "note_on", "time": 28, "note": 58, "velocity": 93, "channel": 0}, {"type": "note_off", "time": 30, "note": 58, "velocity": 93, "channel": 0}, {"type": "note_on", "time": 13, "note": 59, "velocity": 99, "channel": 0}, {"type": "note_off", "time": 121, "note": 59, "velocity": 99, "channel": 0}, {"type": "note_on", "time": 7, "note": 57, "velocity": 85, "channel": 0}, {"type": "note_off", "time": 220, "note": 57, "velocity": 85, "channel": 0}, {"type": "note_on", "time": 406, "note": 76, "velocity": 122, "channel": 0}, {"type": "note_off", "time": 20, "note": 76, "velocity": 122, "channel": 0}, {"type": "note_on", "time": 3, "note": 77, "velocity": 124, "channel": 0}, {"type": "note_off", "time": 76, "note": 77, "velocity": 124, "channel": 0}, {"type": "note_on", "time": 95, "note": 77, "velocity": 122, "channel": 0}, {"type": "note_off", "time": 141, "note": 77, "velocity": 122, "channel": 0}, {"type": "note_on", "time": 18, "note": 77, "velocity": 119, "channel": 0}, {"type": "note_off", "time": 209, "note": 77, "velocity": 119, "channel": 0}, {"type": "note_on", "time": 12, "note": 82, "velocity": 106, "channel": 0}, {"type": "note_off", "time": 22, "note": 82, "velocity": 106, "channel": 0}, {"type": "note_on", "time": 1, "note": 77, "velocity": 100, "channel": 0}, {"type": "note_off", "time": 15, "note": 77, "velocity": 100, "channel": 0}, {"type": "note_on", "time": 5, "note": 75, "velocity": 102, "channel": 0}, {"type": "note_off", "time": 11, "note": 75, "velocity": 102, "channel": 0}, {"type": "note_on", "time": 0, "note": 74, "velocity": 113, "channel": 0}, {"type": "note_off", "time": 102, "note": 74, "velocity": 113, "channel": 0}, {"type": "note_on", "time": 8, "note": 77, "velocity": 111, "channel": 0}, {"type": "note_off", "time": 41, "note": 77, "velocity": 111, "channel": 0}, {"type": "note_on", "time": 41, "note": 81, "velocity": 122, "channel": 0}, {"type": "note_off", "time": 111, "note": 81, "velocity": 122, "channel": 0}, {"type": "note_on", "time": 25, "note": 81, "velocity": 124, "channel": 0}, {"type": "note_off", "time": 131, "note": 81, "velocity": 124, "channel": 0}, {"type": "note_on", "time": 639, "note": 81, "velocity": 123, "channel": 0}, {"type": "note_off", "time": 60, "note": 81, "velocity": 123, "channel": 0}, {"type": "note_on", "time": 65, "note": 82, "velocity": 125, "channel": 0}, {"type": "note_off", "time": 47, "note": 82, "velocity": 125, "channel": 0}, {"type": "note_on", "time": 14, "note": 83, "velocity": 127, "channel": 0}, {"type": "note_off", "time": 54, "note": 83, "velocity": 127, "channel": 0}, {"type": "note_on", "time": 14, "note": 84, "velocity": 119, "channel": 0}, {"type": "note_off", "time": 403, "note": 84, "velocity": 119, "channel": 0}, {"type": "note_on", "time": 80, "note": 85, "velocity": 122, "channel": 0}, {"type": "note_off", "time": 69, "note": 85, "velocity": 122, "channel": 0}, {"type": "note_on", "time": 9, "note": 84, "velocity": 120, "channel": 0}, {"type": "note_off", "time": 86, "note": 84, "velocity": 120, "channel": 0}, {"type": "note_on", "time": 17, "note": 82, "velocity": 116, "channel": 0}, {"type": "note_off", "time": 72, "note": 82, "velocity": 116, "channel": 0}, {"type": "note_on", "time": 15, "note": 81, "velocity": 114, "channel": 0}, {"type": "note_off", "time": 82, "note": 81, "velocity": 114, "channel": 0}, {"type": "note_on", "time": 20, "note": 77, "velocity": 112, "channel": 0}, {"type": "note_off", "time": 49, "note": 77, "velocity": 112, "channel": 0}, {"type": "note_on", "time": 36, "note": 72, "velocity": 106, "channel": 0}, {"type": "note_off", "time": 81, "note": 72, "velocity": 106, "channel": 0}, {"type": "note_on", "time": 11, "note": 70, "velocity": 111, "channel": 0}, {"type": "note_off", "time": 69, "note": 70, "velocity": 111, "channel": 0}, {"type": "note_on", "time": 17, "note": 69, "velocity": 104, "channel": 0}, {"type": "note_off", "time": 87, "note": 69, "velocity": 104, "channel": 0}, {"type": "note_on", "time": 20, "note": 65, "velocity": 115, "channel": 0}, {"type": "note_off", "time": 58, "note": 65, "velocity": 115, "channel": 0}, {"type": "note_on", "time": 24, "note": 60, "velocity": 97, "channel": 0}, {"type": "note_off", "time": 77, "note": 60, "velocity": 97, "channel": 0}, {"type": "note_on", "time": 15, "note": 58, "velocity": 106, "channel": 0}, {"type": "note_off", "time": 57, "note": 58, "velocity": 106, "channel": 0}, {"type": "note_on", "time": 11, "note": 57, "velocity": 90, "channel": 0}, {"type": "note_off", "time": 198, "note": 57, "velocity": 90, "channel": 0}, {"type": "note_on", "time": 175, "note": 69, "velocity": 120, "channel": 0}, {"type": "note_off", "time": 129, "note": 69, "velocity": 120, "channel": 0}, {"type": "note_on", "time": 20, "note": 64, "velocity": 106, "channel": 0}, {"type": "note_off", "time": 34, "note": 64, "velocity": 106, "channel": 0}, {"type": "note_on", "time": 11, "note": 67, "velocity": 113, "channel": 0}, {"type": "note_off", "time": 119, "note": 67, "velocity": 113, "channel": 0}, {"type": "note_on", "time": 8, "note": 64, "velocity": 102, "channel": 0}, {"type": "note_off", "time": 53, "note": 64, "velocity": 102, "channel": 0}, {"type": "note_on", "time": 9, "note": 66, "velocity": 102, "channel": 0}, {"type": "note_off", "time": 323, "note": 66, "velocity": 102, "channel": 0}, {"type": "note_on", "time": 68, "note": 63, "velocity": 111, "channel": 0}, {"type": "note_off", "time": 91, "note": 63, "velocity": 111, "channel": 0}, {"type": "note_on", "time": 5, "note": 61, "velocity": 96, "channel": 0}, {"type": "note_off", "time": 23, "note": 61, "velocity": 96, "channel": 0}, {"type": "note_on", "time": 21, "note": 58, "velocity": 96, "channel": 0}, {"type": "note_off", "time": 26, "note": 58, "velocity": 96, "channel": 0}, {"type": "note_on", "time": 19, "note": 62, "velocity": 106, "channel": 0}, {"type": "note_off", "time": 107, "note": 62, "velocity": 106, "channel": 0}, {"type": "note_on", "time": 28, "note": 58, "velocity": 97, "channel": 0}, {"type": "note_off", "time": 31, "note": 58, "velocity": 97, "channel": 0}, {"type": "note_on", "time": 16, "note": 61, "velocity": 83, "channel": 0}, {"type": "note_off", "time": 310, "note": 61, "velocity": 83, "channel": 0}, {"type": "note_on", "time": 368, "note": 70, "velocity": 117, "channel": 0}, {"type": "note_off", "time": 76, "note": 70, "velocity": 117, "channel": 0}, {"type": "note_on", "time": 18, "note": 68, "velocity": 107, "channel": 0}, {"type": "note_off", "time": 85, "note": 68, "velocity": 107, "channel": 0}, {"type": "note_on", "time": 19, "note": 65, "velocity": 107, "channel": 0}, {"type": "note_off", "time": 49, "note": 65, "velocity": 107, "channel": 0}, {"type": "note_on", "time": 5, "note": 61, "velocity": 94, "channel": 0}, {"type": "note_off", "time": 124, "note": 61, "velocity": 94, "channel": 0}, {"type": "note_on", "time": 16, "note": 58, "velocity": 99, "channel": 0}, {"type": "note_off", "time": 20, "note": 58, "velocity": 99, "channel": 0}, {"type": "note_on", "time": 31, "note": 60, "velocity": 96, "channel": 0}, {"type": "note_off", "time": 75, "note": 60, "velocity": 96, "channel": 0}, {"type": "note_on", "time": 42, "note": 62, "velocity": 109, "channel": 0}, {"type": "note_off", "time": 44, "note": 62, "velocity": 109, "channel": 0}, {"type": "note_on", "time": 1, "note": 64, "velocity": 106, "channel": 0}, {"type": "note_off", "time": 48, "note": 64, "velocity": 106, "channel": 0}, {"type": "note_on", "time": 8, "note": 65, "velocity": 104, "channel": 0}, {"type": "note_off", "time": 37, "note": 65, "velocity": 104, "channel": 0}, {"type": "note_on", "time": 87, "note": 67, "velocity": 109, "channel": 0}, {"type": "note_off", "time": 47, "note": 67, "velocity": 109, "channel": 0}, {"type": "note_on", "time": 13, "note": 69, "velocity": 111, "channel": 0}, {"type": "note_off", "time": 68, "note": 69, "velocity": 111, "channel": 0}, {"type": "note_on", "time": 68, "note": 70, "velocity": 118, "channel": 0}, {"type": "note_off", "time": 39, "note": 70, "velocity": 118, "channel": 0}, {"type": "note_on", "time": 19, "note": 72, "velocity": 115, "channel": 0}, {"type": "note_off", "time": 61, "note": 72, "velocity": 115, "channel": 0}, {"type": "note_on", "time": 73, "note": 73, "velocity": 119, "channel": 0}, {"type": "note_off", "time": 47, "note": 73, "velocity": 119, "channel": 0}, {"type": "note_on", "time": 11, "note": 75, "velocity": 122, "channel": 0}, {"type": "note_off", "time": 41, "note": 75, "velocity": 122, "channel": 0}, {"type": "note_on", "time": 16, "note": 77, "velocity": 119, "channel": 0}, {"type": "note_off", "time": 412, "note": 77, "velocity": 119, "channel": 0}, {"type": "note_on", "time": 22, "note": 75, "velocity": 115, "channel": 0}, {"type": "note_off", "time": 37, "note": 75, "velocity": 115, "channel": 0}, {"type": "note_on", "time": 90, "note": 72, "velocity": 106, "channel": 0}, {"type": "note_off", "time": 103, "note": 72, "velocity": 106, "channel": 0}, {"type": "note_on", "time": 38, "note": 69, "velocity": 103, "channel": 0}, {"type": "note_off", "time": 32, "note": 69, "velocity": 103, "channel": 0}, {"type": "note_on", "time": 69, "note": 65, "velocity": 110, "channel": 0}, {"type": "note_off", "time": 93, "note": 65, "velocity": 110, "channel": 0}, {"type": "note_on", "time": 47, "note": 61, "velocity": 104, "channel": 0}, {"type": "note_off", "time": 40, "note": 61, "velocity": 104, "channel": 0}, {"type": "note_on", "time": 88, "note": 58, "velocity": 94, "channel": 0}, {"type": "note_off", "time": 146, "note": 58, "velocity": 94, "channel": 0}, {"type": "note_on", "time": 224, "note": 79, "velocity": 120, "channel": 0}, {"type": "note_off", "time": 41, "note": 79, "velocity": 120, "channel": 0}, {"type": "note_on", "time": 71, "note": 76, "velocity": 120, "channel": 0}, {"type": "note_off", "time": 144, "note": 76, "velocity": 120, "channel": 0}, {"type": "note_on", "time": 27, "note": 72, "velocity": 112, "channel": 0}, {"type": "note_off", "time": 32, "note": 72, "velocity": 112, "channel": 0}, {"type": "note_on", "time": 67, "note": 68, "velocity": 110, "channel": 0}, {"type": "note_off", "time": 177, "note": 68, "velocity": 110, "channel": 0}, {"type": "note_on", "time": 24, "note": 68, "velocity": 110, "channel": 0}, {"type": "note_off", "time": 186, "note": 68, "velocity": 110, "channel": 0}, {"type": "note_on", "time": 502, "note": 70, "velocity": 117, "channel": 0}, {"type": "note_off", "time": 25, "note": 70, "velocity": 117, "channel": 0}, {"type": "note_on", "time": 5, "note": 68, "velocity": 114, "channel": 0}, {"type": "note_off", "time": 20, "note": 68, "velocity": 114, "channel": 0}, {"type": "note_on", "time": 4, "note": 67, "velocity": 102, "channel": 0}, {"type": "note_off", "time": 107, "note": 67, "velocity": 102, "channel": 0}, {"type": "note_on", "time": 38, "note": 69, "velocity": 104, "channel": 0}, {"type": "note_off", "time": 54, "note": 69, "velocity": 104, "channel": 0}, {"type": "note_on", "time": 8, "note": 70, "velocity": 103, "channel": 0}, {"type": "note_off", "time": 82, "note": 70, "velocity": 103, "channel": 0}, {"type": "note_on", "time": 36, "note": 72, "velocity": 94, "channel": 0}, {"type": "note_off", "time": 60, "note": 72, "velocity": 94, "channel": 0}, {"type": "note_on", "time": 24, "note": 74, "velocity": 101, "channel": 0}, {"type": "note_off", "time": 72, "note": 74, "velocity": 101, "channel": 0}, {"type": "note_on", "time": 30, "note": 77, "velocity": 122, "channel": 0}, {"type": "note_off", "time": 72, "note": 77, "velocity": 122, "channel": 0}, {"type": "note_on", "time": 45, "note": 80, "velocity": 124, "channel": 0}, {"type": "note_off", "time": 26, "note": 80, "velocity": 124, "channel": 0}, {"type": "note_on", "time": 6, "note": 79, "velocity": 123, "channel": 0}, {"type": "note_off", "time": 58, "note": 79, "velocity": 123, "channel": 0}, {"type": "note_on", "time": 2, "note": 80, "velocity": 123, "channel": 0}, {"type": "note_off", "time": 29, "note": 80, "velocity": 123, "channel": 0}, {"type": "note_on", "time": 56, "note": 80, "velocity": 125, "channel": 0}, {"type": "note_off", "time": 38, "note": 80, "velocity": 125, "channel": 0}, {"type": "note_on", "time": 1, "note": 79, "velocity": 114, "channel": 0}, {"type": "note_off", "time": 104, "note": 79, "velocity": 114, "channel": 0}, {"type": "note_on", "time": 2, "note": 80, "velocity": 114, "channel": 0}, {"type": "note_off", "time": 33, "note": 80, "velocity": 114, "channel": 0}, {"type": "note_on", "time": 26, "note": 77, "velocity": 112, "channel": 0}, {"type": "note_off", "time": 104, "note": 77, "velocity": 112, "channel": 0}, {"type": "note_on", "time": 28, "note": 79, "velocity": 122, "channel": 0}, {"type": "note_off", "time": 110, "note": 79, "velocity": 122, "channel": 0}, {"type": "note_on", "time": 67, "note": 77, "velocity": 119, "channel": 0}, {"type": "note_off", "time": 951, "note": 77, "velocity": 119, "channel": 0}, {"type": "note_on", "time": 30, "note": 77, "velocity": 113, "channel": 0}, {"type": "note_off", "time": 20, "note": 77, "velocity": 113, "channel": 0}, {"type": "note_on", "time": 4, "note": 76, "velocity": 115, "channel": 0}, {"type": "note_off", "time": 39, "note": 76, "velocity": 115, "channel": 0}, {"type": "note_on", "time": 12, "note": 75, "velocity": 109, "channel": 0}, {"type": "note_off", "time": 72, "note": 75, "velocity": 109, "channel": 0}, {"type": "note_on", "time": 32, "note": 74, "velocity": 103, "channel": 0}, {"type": "note_off", "time": 52, "note": 74, "velocity": 103, "channel": 0}, {"type": "note_on", "time": 45, "note": 73, "velocity": 97, "channel": 0}, {"type": "note_off", "time": 62, "note": 73, "velocity": 97, "channel": 0}, {"type": "note_on", "time": 41, "note": 71, "velocity": 98, "channel": 0}, {"type": "note_off", "time": 58, "note": 71, "velocity": 98, "channel": 0}, {"type": "note_on", "time": 7, "note": 72, "velocity": 93, "channel": 0}, {"type": "note_off", "time": 35, "note": 72, "velocity": 93, "channel": 0}, {"type": "note_on", "time": 55, "note": 71, "velocity": 99, "channel": 0}, {"type": "note_off", "time": 60, "note": 71, "velocity": 99, "channel": 0}, {"type": "note_on", "time": 8, "note": 72, "velocity": 94, "channel": 0}, {"type": "note_off", "time": 34, "note": 72, "velocity": 94, "channel": 0}, {"type": "note_on", "time": 31, "note": 71, "velocity": 101, "channel": 0}, {"type": "note_off", "time": 64, "note": 71, "velocity": 101, "channel": 0}, {"type": "note_on", "time": 5, "note": 72, "velocity": 92, "channel": 0}, {"type": "note_off", "time": 39, "note": 72, "velocity": 92, "channel": 0}, {"type": "note_on", "time": 33, "note": 71, "velocity": 97, "channel": 0}, {"type": "note_off", "time": 41, "note": 71, "velocity": 97, "channel": 0}, {"type": "note_on", "time": 3, "note": 72, "velocity": 94, "channel": 0}, {"type": "note_off", "time": 71, "note": 72, "velocity": 94, "channel": 0}, {"type": "note_on", "time": 22, "note": 71, "velocity": 93, "channel": 0}, {"type": "note_off", "time": 31, "note": 71, "velocity": 93, "channel": 0}, {"type": "note_on", "time": 10, "note": 72, "velocity": 108, "channel": 0}, {"type": "note_off", "time": 81, "note": 72, "velocity": 108, "channel": 0}, {"type": "note_on", "time": 18, "note": 71, "velocity": 108, "channel": 0}, {"type": "note_off", "time": 25, "note": 71, "velocity": 108, "channel": 0}, {"type": "note_on", "time": 9, "note": 72, "velocity": 95, "channel": 0}, {"type": "note_off", "time": 252, "note": 72, "velocity": 95, "channel": 0}, {"type": "note_on", "time": 2, "note": 70, "velocity": 91, "channel": 0}, {"type": "note_off", "time": 35, "note": 70, "velocity": 91, "channel": 0}, {"type": "note_on", "time": 3, "note": 67, "velocity": 85, "channel": 0}, {"type": "note_off", "time": 26, "note": 67, "velocity": 85, "channel": 0}, {"type": "note_on", "time": 41, "note": 61, "velocity": 70, "channel": 0}, {"type": "note_off", "time": 309, "note": 61, "velocity": 70, "channel": 0}, {"type": "end_of_track", "time": 0}]]}