{"ticks_per_beat": 20160, "tracks": [[{"type": "note_on", "time": 0, "note": 69, "velocity": 112, "channel": 0}, {"type": "note_off", "time": 1720, "note": 69, "velocity": 112, "channel": 0}, {"type": "note_on", "time": 0, "note": 67, "velocity": 106, "channel": 0}, {"type": "note_off", "time": 1105, "note": 67, "velocity": 106, "channel": 0}, {"type": "note_on", "time": 368, "note": 68, "velocity": 110, "channel": 0}, {"type": "note_off", "time": 1228, "note": 68, "velocity": 110, "channel": 0}, {"type": "note_on", "time": 122, "note": 69, "velocity": 103, "channel": 0}, {"type": "note_off", "time": 2088, "note": 69, "velocity": 103, "channel": 0}, {"type": "note_on", "time": 122, "note": 70, "velocity": 92, "channel": 0}, {"type": "note_off", "time": 2088, "note": 70, "velocity": 92, "channel": 0}, {"type": "note_on", "time": 614, "note": 71, "velocity": 78, "channel": 0}, {"type": "note_off", "time": 1966, "note": 71, "velocity": 78, "channel": 0}, {"type": "note_on", "time": 1843, "note": 75, "velocity": 109, "channel": 0}, {"type": "note_off", "time": 3194, "note": 75, "velocity": 109, "channel": 0}, {"type": "note_on", "time": 245, "note": 76, "velocity": 108, "channel": 0}, {"type": "note_off", "time": 15728, "note": 76, "velocity": 108, "channel": 0}, {"type": "note_on", "time": 1720, "note": 74, "velocity": 106, "channel": 0}, {"type": "note_off", "time": 1597, "note": 74, "velocity": 106, "channel": 0}, {"type": "note_on", "time": 122, "note": 76, "velocity": 104, "channel": 0}, {"type": "note_off", "time": 2334, "note": 76, "velocity": 104, "channel": 0}, {"type": "note_on", "time": 614, "note": 74, "velocity": 105, "channel": 0}, {"type": "note_off", "time": 1966, "note": 74, "velocity": 105, "channel": 0}, {"type": "note_on", "time": 368, "note": 72, "velocity": 105, "channel": 0}, {"type": "note_off", "time": 2580, "note": 72, "velocity": 105, "channel": 0}, {"type": "note_on", "time": 0, "note": 71, "velocity": 100, "channel": 0}, {"type": "note_on", "time": 1267, "note": 69, "velocity": 97, "channel": 0}, {"type": "note_off", "time": 0, "note": 71, "velocity": 100, "channel": 0}, {"type": "note_off", "time": 1597, "note": 69, "velocity": 97, "channel": 0}, {"type": "note_on", "time": 821, "note": 67, "velocity": 109, "channel": 0}, {"type": "note_off", "time": 2949, "note": 67, "velocity": 109, "channel": 0}, {"type": "note_on", "time": 122, "note": 66, "velocity": 113, "channel": 0}, {"type": "note_off", "time": 1720, "note": 66, "velocity": 113, "channel": 0}, {"type": "note_on", "time": 737, "note": 64, "velocity": 94, "channel": 0}, {"type": "note_off", "time": 2826, "note": 64, "velocity": 94, "channel": 0}, {"type": "note_on", "time": 2703, "note": 62, "velocity": 100, "channel": 0}, {"type": "note_off", "time": 2088, "note": 62, "velocity": 100, "channel": 0}, {"type": "note_on", "time": 0, "note": 59, "velocity": 97, "channel": 0}, {"type": "note_off", "time": 1843, "note": 59, "velocity": 97, "channel": 0}, {"type": "note_on", "time": 245, "note": 61, "velocity": 95, "channel": 0}, {"type": "note_off", "time": 2580, "note": 61, "velocity": 95, "channel": 0}, {"type": "note_on", "time": 245, "note": 59, "velocity": 91, "channel": 0}, {"type": "note_off", "time": 1720, "note": 59, "velocity": 91, "channel": 0}, {"type": "note_on", "time": 4423, "note": 55, "velocity": 101, "channel": 0}, {"type": "note_off", "time": 2826, "note": 55, "velocity": 101, "channel": 0}, {"type": "note_on", "time": 0, "note": 56, "velocity": 94, "channel": 0}, {"type": "note_off", "time": 6266, "note": 56, "velocity": 94, "channel": 0}, {"type": "note_on", "time": 1474, "note": 63, "velocity": 111, "channel": 0}, {"type": "note_off", "time": 1474, "note": 63, "velocity": 111, "channel": 0}, {"type": "note_on", "time": 614, "note": 67, "velocity": 119, "channel": 0}, {"type": "note_off", "time": 1228, "note": 67, "velocity": 119, "channel": 0}, {"type": "note_on", "time": 245, "note": 68, "velocity": 116, "channel": 0}, {"type": "note_off", "time": 7987, "note": 68, "velocity": 116, "channel": 0}, {"type": "note_on", "time": 491, "note": 71, "velocity": 114, "channel": 0}, {"type": "note_off", "time": 4300, "note": 71, "velocity": 114, "channel": 0}, {"type": "note_on", "time": 1228, "note": 69, "velocity": 102, "channel": 0}, {"type": "note_off", "time": 3932, "note": 69, "velocity": 102, "channel": 0}, {"type": "note_on", "time": 737, "note": 61, "velocity": 101, "channel": 0}, {"type": "note_off", "time": 1228, "note": 61, "velocity": 101, "channel": 0}, {"type": "note_on", "time": 860, "note": 62, "velocity": 97, "channel": 0}, {"type": "note_off", "time": 4669, "note": 62, "velocity": 97, "channel": 0}, {"type": "note_on", "time": 0, "note": 66, "velocity": 92, "channel": 0}, {"type": "note_off", "time": 31211, "note": 66, "velocity": 92, "channel": 0}, {"type": "note_on", "time": 13148, "note": 72, "velocity": 118, "channel": 0}, {"type": "note_off", "time": 2457, "note": 72, "velocity": 118, "channel": 0}, {"type": "note_on", "time": 0, "note": 75, "velocity": 117, "channel": 0}, {"type": "note_off", "time": 2826, "note": 75, "velocity": 117, "channel": 0}, {"type": "note_on", "time": 0, "note": 74, "velocity": 109, "channel": 0}, {"type": "note_off", "time": 1966, "note": 74, "velocity": 109, "channel": 0}, {"type": "note_on", "time": 0, "note": 72, "velocity": 119, "channel": 0}, {"type": "note_off", "time": 2211, "note": 72, "velocity": 119, "channel": 0}, {"type": "note_on", "time": 245, "note": 70, "velocity": 112, "channel": 0}, {"type": "note_off", "time": 1843, "note": 70, "velocity": 112, "channel": 0}, {"type": "note_on", "time": 245, "note": 68, "velocity": 114, "channel": 0}, {"type": "note_off", "time": 2457, "note": 68, "velocity": 114, "channel": 0}, {"type": "note_on", "time": 245, "note": 65, "velocity": 113, "channel": 0}, {"type": "note_off", "time": 2457, "note": 65, "velocity": 113, "channel": 0}, {"type": "note_on", "time": 274, "note": 60, "velocity": 96, "channel": 0}, {"type": "note_off", "time": 6220, "note": 60, "velocity": 96, "channel": 0}, {"type": "note_on", "time": 345, "note": 63, "velocity": 105, "channel": 0}, {"type": "note_off", "time": 3110, "note": 63, "velocity": 105, "channel": 0}, {"type": "note_on", "time": 370, "note": 60, "velocity": 102, "channel": 0}, {"type": "note_off", "time": 1474, "note": 60, "velocity": 102, "channel": 0}, {"type": "note_on", "time": 614, "note": 61, "velocity": 103, "channel": 0}, {"type": "note_off", "time": 3071, "note": 61, "velocity": 103, "channel": 0}, {"type": "note_on", "time": 3809, "note": 60, "velocity": 102, "channel": 0}, {"type": "note_off", "time": 1474, "note": 60, "velocity": 102, "channel": 0}, {"type": "note_on", "time": 0, "note": 63, "velocity": 111, "channel": 0}, {"type": "note_off", "time": 2211, "note": 63, "velocity": 111, "channel": 0}, {"type": "note_on", "time": 614, "note": 64, "velocity": 113, "channel": 0}, {"type": "note_off", "time": 12533, "note": 64, "velocity": 113, "channel": 0}, {"type": "note_on", "time": 0, "note": 60, "velocity": 96, "channel": 0}, {"type": "note_off", "time": 1966, "note": 60, "velocity": 96, "channel": 0}, {"type": "note_on", "time": 122, "note": 61, "velocity": 99, "channel": 0}, {"type": "note_off", "time": 1720, "note": 61, "velocity": 99, "channel": 0}, {"type": "note_on", "time": 368, "note": 63, "velocity": 93, "channel": 0}, {"type": "note_off", "time": 2580, "note": 63, "velocity": 93, "channel": 0}, {"type": "note_on", "time": 122, "note": 60, "velocity": 98, "channel": 0}, {"type": "note_off", "time": 1843, "note": 60, "velocity": 98, "channel": 0}, {"type": "note_on", "time": 245, "note": 61, "velocity": 99, "channel": 0}, {"type": "note_off", "time": 1105, "note": 61, "velocity": 99, "channel": 0}, {"type": "note_on", "time": 122, "note": 63, "velocity": 98, "channel": 0}, {"type": "note_off", "time": 2211, "note": 63, "velocity": 98, "channel": 0}, {"type": "note_on", "time": 552, "note": 66, "velocity": 103, "channel": 0}, {"type": "note_off", "time": 5222, "note": 66, "velocity": 103, "channel": 0}, {"type": "note_on", "time": 0, "note": 75, "velocity": 123, "channel": 0}, {"type": "note_on", "time": 4792, "note": 72, "velocity": 114, "channel": 0}, {"type": "note_off", "time": 0, "note": 75, "velocity": 123, "channel": 0}, {"type": "note_off", "time": 2088, "note": 72, "velocity": 114, "channel": 0}, {"type": "note_on", "time": 491, "note": 73, "velocity": 108, "channel": 0}, {"type": "note_off", "time": 2088, "note": 73, "velocity": 108, "channel": 0}, {"type": "note_on", "time": 0, "note": 75, "velocity": 107, "channel": 0}, {"type": "note_off", "time": 3317, "note": 75, "velocity": 107, "channel": 0}, {"type": "note_on", "time": 0, "note": 73, "velocity": 111, "channel": 0}, {"type": "note_off", "time": 1597, "note": 73, "velocity": 111, "channel": 0}, {"type": "note_on", "time": 0, "note": 72, "velocity": 109, "channel": 0}, {"type": "note_off", "time": 983, "note": 72, "velocity": 109, "channel": 0}, {"type": "note_on", "time": 0, "note": 70, "velocity": 112, "channel": 0}, {"type": "note_off", "time": 2088, "note": 70, "velocity": 112, "channel": 0}, {"type": "note_on", "time": 0, "note": 68, "velocity": 114, "channel": 0}, {"type": "note_off", "time": 3317, "note": 68, "velocity": 114, "channel": 0}, {"type": "note_on", "time": 190, "note": 65, "velocity": 103, "channel": 0}, {"type": "note_off", "time": 2390, "note": 65, "velocity": 103, "channel": 0}, {"type": "note_on", "time": 0, "note": 60, "velocity": 89, "channel": 0}, {"type": "note_off", "time": 1597, "note": 60, "velocity": 89, "channel": 0}, {"type": "note_on", "time": 245, "note": 61, "velocity": 95, "channel": 0}, {"type": "note_off", "time": 2211, "note": 61, "velocity": 95, "channel": 0}, {"type": "note_on", "time": 245, "note": 63, "velocity": 102, "channel": 0}, {"type": "note_off", "time": 3072, "note": 63, "velocity": 102, "channel": 0}, {"type": "note_on", "time": 0, "note": 60, "velocity": 95, "channel": 0}, {"type": "note_off", "time": 2088, "note": 60, "velocity": 95, "channel": 0}, {"type": "note_on", "time": 0, "note": 61, "velocity": 93, "channel": 0}, {"type": "note_off", "time": 2703, "note": 61, "velocity": 93, "channel": 0}, {"type": "note_on", "time": 983, "note": 52, "velocity": 93, "channel": 0}, {"type": "note_off", "time": 1720, "note": 52, "velocity": 93, "channel": 0}, {"type": "note_on", "time": 614, "note": 51, "velocity": 90, "channel": 0}, {"type": "note_off", "time": 6758, "note": 51, "velocity": 90, "channel": 0}, {"type": "note_on", "time": 5652, "note": 52, "velocity": 91, "channel": 0}, {"type": "note_off", "time": 13025, "note": 52, "velocity": 91, "channel": 0}, {"type": "note_on", "time": 26296, "note": 58, "velocity": 98, "channel": 0}, {"type": "note_off", "time": 3194, "note": 58, "velocity": 98, "channel": 0}, {"type": "note_on", "time": 245, "note": 59, "velocity": 90, "channel": 0}, {"type": "note_off", "time": 1966, "note": 59, "velocity": 90, "channel": 0}, {"type": "note_on", "time": 122, "note": 61, "velocity": 100, "channel": 0}, {"type": "note_off", "time": 3072, "note": 61, "velocity": 100, "channel": 0}, {"type": "note_on", "time": 0, "note": 59, "velocity": 87, "channel": 0}, {"type": "note_off", "time": 2088, "note": 59, "velocity": 87, "channel": 0}, {"type": "note_on", "time": 614, "note": 60, "velocity": 79, "channel": 0}, {"type": "note_on", "time": 1720, "note": 63, "velocity": 72, "channel": 0}, {"type": "note_off", "time": 0, "note": 60, "velocity": 79, "channel": 0}, {"type": "note_off", "time": 2703, "note": 63, "velocity": 72, "channel": 0}, {"type": "note_on", "time": 0, "note": 66, "velocity": 120, "channel": 0}, {"type": "note_off", "time": 3563, "note": 66, "velocity": 120, "channel": 0}, {"type": "note_on", "time": 245, "note": 63, "velocity": 102, "channel": 0}, {"type": "note_off", "time": 2211, "note": 63, "velocity": 102, "channel": 0}, {"type": "note_on", "time": 737, "note": 64, "velocity": 97, "channel": 0}, {"type": "note_on", "time": 2334, "note": 66, "velocity": 98, "channel": 0}, {"type": "note_off", "time": 0, "note": 64, "velocity": 97, "channel": 0}, {"type": "note_on", "time": 2088, "note": 70, "velocity": 107, "channel": 0}, {"type": "note_off", "time": 0, "note": 66, "velocity": 98, "channel": 0}, {"type": "note_off", "time": 1228, "note": 70, "velocity": 107, "channel": 0}, {"type": "note_on", "time": 368, "note": 71, "velocity": 115, "channel": 0}, {"type": "note_off", "time": 10199, "note": 71, "velocity": 115, "channel": 0}, {"type": "note_on", "time": 491, "note": 69, "velocity": 97, "channel": 0}, {"type": "note_on", "time": 1843, "note": 67, "velocity": 99, "channel": 0}, {"type": "note_off", "time": 0, "note": 69, "velocity": 97, "channel": 0}, {"type": "note_on", "time": 2334, "note": 68, "velocity": 99, "channel": 0}, {"type": "note_off", "time": 0, "note": 67, "velocity": 99, "channel": 0}, {"type": "note_off", "time": 1720, "note": 68, "velocity": 99, "channel": 0}, {"type": "note_on", "time": 0, "note": 71, "velocity": 89, "channel": 0}, {"type": "note_off", "time": 1351, "note": 71, "velocity": 89, "channel": 0}, {"type": "note_on", "time": 368, "note": 74, "velocity": 92, "channel": 0}, {"type": "note_off", "time": 1351, "note": 74, "velocity": 92, "channel": 0}, {"type": "note_on", "time": 491, "note": 76, "velocity": 116, "channel": 0}, {"type": "note_off", "time": 2457, "note": 76, "velocity": 116, "channel": 0}, {"type": "note_on", "time": 0, "note": 77, "velocity": 115, "channel": 0}, {"type": "note_off", "time": 7987, "note": 77, "velocity": 115, "channel": 0}, {"type": "note_on", "time": 245, "note": 76, "velocity": 117, "channel": 0}, {"type": "note_off", "time": 983, "note": 76, "velocity": 117, "channel": 0}, {"type": "note_on", "time": 1351, "note": 75, "velocity": 108, "channel": 0}, {"type": "note_off", "time": 1966, "note": 75, "velocity": 108, "channel": 0}, {"type": "note_on", "time": 368, "note": 74, "velocity": 111, "channel": 0}, {"type": "note_on", "time": 1228, "note": 72, "velocity": 116, "channel": 0}, {"type": "note_off", "time": 0, "note": 74, "velocity": 111, "channel": 0}, {"type": "note_off", "time": 1474, "note": 72, "velocity": 116, "channel": 0}, {"type": "note_on", "time": 491, "note": 71, "velocity": 114, "channel": 0}, {"type": "note_off", "time": 2457, "note": 71, "velocity": 114, "channel": 0}, {"type": "note_on", "time": 0, "note": 69, "velocity": 102, "channel": 0}, {"type": "note_off", "time": 1966, "note": 69, "velocity": 102, "channel": 0}, {"type": "note_on", "time": 710, "note": 67, "velocity": 106, "channel": 0}, {"type": "note_off", "time": 1123, "note": 67, "velocity": 106, "channel": 0}, {"type": "note_on", "time": 255, "note": 68, "velocity": 108, "channel": 0}, {"type": "note_off", "time": 2580, "note": 68, "velocity": 108, "channel": 0}, {"type": "note_on", "time": 21995, "note": 70, "velocity": 113, "channel": 0}, {"type": "note_on", "time": 2457, "note": 66, "velocity": 109, "channel": 0}, {"type": "note_off", "time": 0, "note": 70, "velocity": 113, "channel": 0}, {"type": "note_on", "time": 2580, "note": 63, "velocity": 103, "channel": 0}, {"type": "note_off", "time": 0, "note": 66, "velocity": 109, "channel": 0}, {"type": "note_off", "time": 2703, "note": 63, "velocity": 103, "channel": 0}, {"type": "note_on", "time": 0, "note": 58, "velocity": 98, "channel": 0}, {"type": "note_on", "time": 2088, "note": 61, "velocity": 106, "channel": 0}, {"type": "note_off", "time": 0, "note": 58, "velocity": 98, "channel": 0}, {"type": "note_off", "time": 2949, "note": 61, "velocity": 106, "channel": 0}, {"type": "note_on", "time": 0, "note": 63, "velocity": 98, "channel": 0}, {"type": "note_off", "time": 1843, "note": 63, "velocity": 98, "channel": 0}, {"type": "note_on", "time": 0, "note": 58, "velocity": 96, "channel": 0}, {"type": "note_off", "time": 2580, "note": 58, "velocity": 96, "channel": 0}, {"type": "note_on", "time": 245, "note": 57, "velocity": 102, "channel": 0}, {"type": "note_off", "time": 2088, "note": 57, "velocity": 102, "channel": 0}, {"type": "note_on", "time": 368, "note": 56, "velocity": 98, "channel": 0}, {"type": "note_off", "time": 7618, "note": 56, "velocity": 98, "channel": 0}, {"type": "track_name", "name": "Melody", "time": 10984}, {"type": "set_tempo", "tempo": 952380, "time": 0}, {"type": "key_signature", "key": "C", "time": 0}, {"type": "time_signature", "numerator": 4, "denominator": 4, "clocks_per_click": 24, "notated_32nd_notes_per_beat": 8, "time": 0}, {"type": "note_on", "time": 16663, "note": 60, "velocity": 86, "channel": 0}, {"type": "note_off", "time": 2334, "note": 60, "velocity": 86, "channel": 0}, {"type": "note_on", "time": 368, "note": 61, "velocity": 104, "channel": 0}, {"type": "note_on", "time": 737, "note": 62, "velocity": 105, "channel": 0}, {"type": "note_off", "time": 0, "note": 61, "velocity": 104, "channel": 0}, {"type": "note_off", "time": 737, "note": 62, "velocity": 105, "channel": 0}, {"type": "note_on", "time": 0, "note": 63, "velocity": 110, "channel": 0}, {"type": "note_on", "time": 1597, "note": 65, "velocity": 106, "channel": 0}, {"type": "note_off", "time": 0, "note": 63, "velocity": 110, "channel": 0}, {"type": "note_off", "time": 1228, "note": 65, "velocity": 106, "channel": 0}, {"type": "note_on", "time": 245, "note": 67, "velocity": 108, "channel": 0}, {"type": "note_on", "time": 1720, "note": 68, "velocity": 100, "channel": 0}, {"type": "note_off", "time": 0, "note": 67, "velocity": 108, "channel": 0}, {"type": "note_off", "time": 1474, "note": 68, "velocity": 100, "channel": 0}, {"type": "note_on", "time": 0, "note": 70, "velocity": 90, "channel": 0}, {"type": "note_off", "time": 860, "note": 70, "velocity": 90, "channel": 0}, {"type": "note_on", "time": 737, "note": 73, "velocity": 89, "channel": 0}, {"type": "note_off", "time": 614, "note": 73, "velocity": 89, "channel": 0}, {"type": "note_on", "time": 614, "note": 76, "velocity": 115, "channel": 0}, {"type": "note_off", "time": 2949, "note": 76, "velocity": 115, "channel": 0}, {"type": "note_on", "time": 0, "note": 79, "velocity": 110, "channel": 0}, {"type": "note_off", "time": 2457, "note": 79, "velocity": 110, "channel": 0}, {"type": "note_on", "time": 245, "note": 78, "velocity": 102, "channel": 0}, {"type": "note_on", "time": 1843, "note": 75, "velocity": 76, "channel": 0}, {"type": "note_off", "time": 0, "note": 78, "velocity": 102, "channel": 0}, {"type": "note_off", "time": 1966, "note": 75, "velocity": 76, "channel": 0}, {"type": "note_on", "time": 122, "note": 76, "velocity": 110, "channel": 0}, {"type": "note_off", "time": 3194, "note": 76, "velocity": 110, "channel": 0}, {"type": "note_on", "time": 491, "note": 74, "velocity": 105, "channel": 0}, {"type": "note_off", "time": 1720, "note": 74, "velocity": 105, "channel": 0}, {"type": "note_on", "time": 0, "note": 73, "velocity": 105, "channel": 0}, {"type": "note_off", "time": 3932, "note": 73, "velocity": 105, "channel": 0}, {"type": "note_on", "time": 10321, "note": 73, "velocity": 93, "channel": 0}, {"type": "note_off", "time": 2088, "note": 73, "velocity": 93, "channel": 0}, {"type": "note_on", "time": 238, "note": 74, "velocity": 113, "channel": 0}, {"type": "note_off", "time": 1468, "note": 74, "velocity": 113, "channel": 0}, {"type": "note_on", "time": 13, "note": 75, "velocity": 112, "channel": 0}, {"type": "note_off", "time": 2703, "note": 75, "velocity": 112, "channel": 0}, {"type": "note_on", "time": 245, "note": 79, "velocity": 120, "channel": 0}, {"type": "note_off", "time": 3072, "note": 79, "velocity": 120, "channel": 0}, {"type": "note_on", "time": 122, "note": 80, "velocity": 111, "channel": 0}, {"type": "note_off", "time": 4177, "note": 80, "velocity": 111, "channel": 0}, {"type": "note_on", "time": 122, "note": 78, "velocity": 109, "channel": 0}, {"type": "note_off", "time": 2703, "note": 78, "velocity": 109, "channel": 0}, {"type": "note_on", "time": 491, "note": 75, "velocity": 110, "channel": 0}, {"type": "note_off", "time": 2703, "note": 75, "velocity": 110, "channel": 0}, {"type": "note_on", "time": 245, "note": 72, "velocity": 109, "channel": 0}, {"type": "note_off", "time": 2088, "note": 72, "velocity": 109, "channel": 0}, {"type": "note_on", "time": 0, "note": 73, "velocity": 100, "channel": 0}, {"type": "note_off", "time": 1351, "note": 73, "velocity": 100, "channel": 0}, {"type": "note_on", "time": 614, "note": 74, "velocity": 106, "channel": 0}, {"type": "note_off", "time": 2949, "note": 74, "velocity": 106, "channel": 0}, {"type": "note_on", "time": 614, "note": 70, "velocity": 114, "channel": 0}, {"type": "note_off", "time": 2334, "note": 70, "velocity": 114, "channel": 0}, {"type": "note_on", "time": 245, "note": 66, "velocity": 119, "channel": 0}, {"type": "note_off", "time": 1966, "note": 66, "velocity": 119, "channel": 0}, {"type": "note_on", "time": 368, "note": 63, "velocity": 106, "channel": 0}, {"type": "note_on", "time": 2334, "note": 58, "velocity": 102, "channel": 0}, {"type": "note_off", "time": 0, "note": 63, "velocity": 106, "channel": 0}, {"type": "note_off", "time": 2457, "note": 58, "velocity": 102, "channel": 0}, {"type": "note_on", "time": 737, "note": 54, "velocity": 92, "channel": 0}, {"type": "note_off", "time": 1597, "note": 54, "velocity": 92, "channel": 0}, {"type": "note_on", "time": 0, "note": 61, "velocity": 116, "channel": 0}, {"type": "note_on", "time": 4177, "note": 58, "velocity": 98, "channel": 0}, {"type": "note_off", "time": 0, "note": 61, "velocity": 116, "channel": 0}, {"type": "note_off", "time": 1843, "note": 58, "velocity": 98, "channel": 0}, {"type": "note_on", "time": 737, "note": 60, "velocity": 108, "channel": 0}, {"type": "note_off", "time": 983, "note": 60, "velocity": 108, "channel": 0}, {"type": "note_on", "time": 1228, "note": 63, "velocity": 94, "channel": 0}, {"type": "note_off", "time": 1351, "note": 63, "velocity": 94, "channel": 0}, {"type": "note_on", "time": 0, "note": 67, "velocity": 88, "channel": 0}, {"type": "note_on", "time": 1474, "note": 69, "velocity": 106, "channel": 0}, {"type": "note_off", "time": 0, "note": 67, "velocity": 88, "channel": 0}, {"type": "note_off", "time": 1720, "note": 69, "velocity": 106, "channel": 0}, {"type": "note_on", "time": 614, "note": 70, "velocity": 108, "channel": 0}, {"type": "note_off", "time": 14376, "note": 70, "velocity": 108, "channel": 0}, {"type": "note_on", "time": 614, "note": 69, "velocity": 108, "channel": 0}, {"type": "note_off", "time": 1474, "note": 69, "velocity": 108, "channel": 0}, {"type": "note_on", "time": 122, "note": 70, "velocity": 113, "channel": 0}, {"type": "note_off", "time": 1105, "note": 70, "velocity": 113, "channel": 0}, {"type": "note_on", "time": 368, "note": 69, "velocity": 110, "channel": 0}, {"type": "note_off", "time": 1597, "note": 69, "velocity": 110, "channel": 0}, {"type": "note_on", "time": 0, "note": 67, "velocity": 113, "channel": 0}, {"type": "note_off", "time": 2580, "note": 67, "velocity": 113, "channel": 0}, {"type": "note_on", "time": 245, "note": 68, "velocity": 114, "channel": 0}, {"type": "note_off", "time": 2334, "note": 68, "velocity": 114, "channel": 0}, {"type": "note_on", "time": 614, "note": 70, "velocity": 105, "channel": 0}, {"type": "note_off", "time": 1597, "note": 70, "velocity": 105, "channel": 0}, {"type": "note_on", "time": 245, "note": 71, "velocity": 101, "channel": 0}, {"type": "note_off", "time": 1351, "note": 71, "velocity": 101, "channel": 0}, {"type": "note_on", "time": 0, "note": 73, "velocity": 92, "channel": 0}, {"type": "note_off", "time": 1474, "note": 73, "velocity": 92, "channel": 0}, {"type": "note_on", "time": 814, "note": 74, "velocity": 103, "channel": 0}, {"type": "note_off", "time": 890, "note": 74, "velocity": 103, "channel": 0}, {"type": "note_on", "time": 15, "note": 75, "velocity": 114, "channel": 0}, {"type": "note_off", "time": 2580, "note": 75, "velocity": 114, "channel": 0}, {"type": "note_on", "time": 122, "note": 78, "velocity": 117, "channel": 0}, {"type": "note_off", "time": 7127, "note": 78, "velocity": 117, "channel": 0}, {"type": "note_on", "time": 245, "note": 77, "velocity": 110, "channel": 0}, {"type": "note_off", "time": 1474, "note": 77, "velocity": 110, "channel": 0}, {"type": "note_on", "time": 368, "note": 76, "velocity": 110, "channel": 0}, {"type": "note_off", "time": 1228, "note": 76, "velocity": 110, "channel": 0}, {"type": "note_on", "time": 146, "note": 75, "velocity": 109, "channel": 0}, {"type": "note_off", "time": 1209, "note": 75, "velocity": 109, "channel": 0}, {"type": "note_on", "time": 129, "note": 74, "velocity": 104, "channel": 0}, {"type": "note_off", "time": 1771, "note": 74, "velocity": 104, "channel": 0}, {"type": "note_on", "time": 60, "note": 72, "velocity": 98, "channel": 0}, {"type": "note_off", "time": 983, "note": 72, "velocity": 98, "channel": 0}, {"type": "note_on", "time": 614, "note": 68, "velocity": 112, "channel": 0}, {"type": "note_off", "time": 2088, "note": 68, "velocity": 112, "channel": 0}, {"type": "note_on", "time": 37232, "note": 72, "velocity": 120, "channel": 0}, {"type": "note_off", "time": 3194, "note": 72, "velocity": 120, "channel": 0}, {"type": "note_on", "time": 245, "note": 76, "velocity": 114, "channel": 0}, {"type": "note_off", "time": 1966, "note": 76, "velocity": 114, "channel": 0}, {"type": "note_on", "time": 528, "note": 74, "velocity": 110, "channel": 0}, {"type": "note_off", "time": 1425, "note": 74, "velocity": 110, "channel": 0}, {"type": "note_on", "time": 11, "note": 72, "velocity": 119, "channel": 0}, {"type": "note_off", "time": 2457, "note": 72, "velocity": 119, "channel": 0}, {"type": "note_on", "time": 122, "note": 71, "velocity": 111, "channel": 0}, {"type": "note_off", "time": 2457, "note": 71, "velocity": 111, "channel": 0}, {"type": "note_on", "time": 491, "note": 69, "velocity": 110, "channel": 0}, {"type": "note_on", "time": 2457, "note": 67, "velocity": 112, "channel": 0}, {"type": "note_off", "time": 0, "note": 69, "velocity": 110, "channel": 0}, {"type": "note_off", "time": 1966, "note": 67, "velocity": 112, "channel": 0}, {"type": "note_on", "time": 0, "note": 65, "velocity": 104, "channel": 0}, {"type": "note_off", "time": 2334, "note": 65, "velocity": 104, "channel": 0}, {"type": "note_on", "time": 737, "note": 66, "velocity": 110, "channel": 0}, {"type": "note_off", "time": 1843, "note": 66, "velocity": 110, "channel": 0}, {"type": "note_on", "time": 0, "note": 68, "velocity": 101, "channel": 0}, {"type": "note_off", "time": 2703, "note": 68, "velocity": 101, "channel": 0}, {"type": "note_on", "time": 614, "note": 72, "velocity": 106, "channel": 0}, {"type": "note_off", "time": 1105, "note": 72, "velocity": 106, "channel": 0}, {"type": "note_on", "time": 0, "note": 75, "velocity": 111, "channel": 0}, {"type": "note_on", "time": 3686, "note": 72, "velocity": 106, "channel": 0}, {"type": "note_off", "time": 0, "note": 75, "velocity": 111, "channel": 0}, {"type": "note_off", "time": 1843, "note": 72, "velocity": 106, "channel": 0}, {"type": "note_on", "time": 0, "note": 73, "velocity": 95, "channel": 0}, {"type": "note_off", "time": 1720, "note": 73, "velocity": 95, "channel": 0}, {"type": "note_on", "time": 860, "note": 74, "velocity": 115, "channel": 0}, {"type": "note_off", "time": 7864, "note": 74, "velocity": 115, "channel": 0}, {"type": "note_on", "time": 491, "note": 76, "velocity": 104, "channel": 0}, {"type": "note_off", "time": 1351, "note": 76, "velocity": 104, "channel": 0}, {"type": "note_on", "time": 160, "note": 75, "velocity": 107, "channel": 0}, {"type": "note_off", "time": 1468, "note": 75, "velocity": 107, "channel": 0}, {"type": "note_on", "time": 129, "note": 73, "velocity": 106, "channel": 0}, {"type": "note_off", "time": 777, "note": 73, "velocity": 106, "channel": 0}, {"type": "note_on", "time": 167, "note": 70, "velocity": 106, "channel": 0}, {"type": "note_off", "time": 3072, "note": 70, "velocity": 106, "channel": 0}, {"type": "note_on", "time": 368, "note": 69, "velocity": 107, "channel": 0}, {"type": "note_off", "time": 2580, "note": 69, "velocity": 107, "channel": 0}, {"type": "note_on", "time": 0, "note": 67, "velocity": 110, "channel": 0}, {"type": "note_off", "time": 2703, "note": 67, "velocity": 110, "channel": 0}, {"type": "note_on", "time": 0, "note": 66, "velocity": 113, "channel": 0}, {"type": "note_on", "time": 1843, "note": 63, "velocity": 99, "channel": 0}, {"type": "note_off", "time": 0, "note": 66, "velocity": 113, "channel": 0}, {"type": "note_off", "time": 2088, "note": 63, "velocity": 99, "channel": 0}, {"type": "note_on", "time": 368, "note": 60, "velocity": 95, "channel": 0}, {"type": "note_off", "time": 1720, "note": 60, "velocity": 95, "channel": 0}, {"type": "note_on", "time": 122, "note": 62, "velocity": 102, "channel": 0}, {"type": "note_on", "time": 2703, "note": 57, "velocity": 89, "channel": 0}, {"type": "note_off", "time": 0, "note": 62, "velocity": 102, "channel": 0}, {"type": "note_off", "time": 1843, "note": 57, "velocity": 89, "channel": 0}, {"type": "note_on", "time": 368, "note": 58, "velocity": 103, "channel": 0}, {"type": "note_off", "time": 1474, "note": 58, "velocity": 103, "channel": 0}, {"type": "note_on", "time": 860, "note": 62, "velocity": 102, "channel": 0}, {"type": "note_off", "time": 2826, "note": 62, "velocity": 102, "channel": 0}, {"type": "note_on", "time": 160, "note": 58, "velocity": 101, "channel": 0}, {"type": "note_on", "time": 1560, "note": 59, "velocity": 92, "channel": 0}, {"type": "note_off", "time": 0, "note": 58, "velocity": 101, "channel": 0}, {"type": "note_off", "time": 1474, "note": 59, "velocity": 92, "channel": 0}, {"type": "note_on", "time": 368, "note": 60, "velocity": 99, "channel": 0}, {"type": "note_off", "time": 3072, "note": 60, "velocity": 99, "channel": 0}, {"type": "note_on", "time": 614, "note": 58, "velocity": 108, "channel": 0}, {"type": "note_off", "time": 2088, "note": 58, "velocity": 108, "channel": 0}, {"type": "note_on", "time": 737, "note": 57, "velocity": 100, "channel": 0}, {"type": "note_off", "time": 2088, "note": 57, "velocity": 100, "channel": 0}, {"type": "note_on", "time": 245, "note": 55, "velocity": 96, "channel": 0}, {"type": "note_off", "time": 1474, "note": 55, "velocity": 96, "channel": 0}, {"type": "note_on", "time": 0, "note": 53, "velocity": 90, "channel": 0}, {"type": "note_off", "time": 2826, "note": 53, "velocity": 90, "channel": 0}, {"type": "note_on", "time": 0, "note": 52, "velocity": 93, "channel": 0}, {"type": "note_off", "time": 1228, "note": 52, "velocity": 93, "channel": 0}, {"type": "note_on", "time": 614, "note": 53, "velocity": 88, "channel": 0}, {"type": "note_off", "time": 614, "note": 53, "velocity": 88, "channel": 0}, {"type": "note_on", "time": 128, "note": 55, "velocity": 86, "channel": 0}, {"type": "note_off", "time": 907, "note": 55, "velocity": 86, "channel": 0}, {"type": "note_on", "time": 70, "note": 58, "velocity": 90, "channel": 0}, {"type": "note_off", "time": 1351, "note": 58, "velocity": 90, "channel": 0}, {"type": "note_on", "time": 614, "note": 61, "velocity": 101, "channel": 0}, {"type": "note_off", "time": 1843, "note": 61, "velocity": 101, "channel": 0}, {"type": "note_on", "time": 737, "note": 58, "velocity": 88, "channel": 0}, {"type": "note_off", "time": 1843, "note": 58, "velocity": 88, "channel": 0}, {"type": "note_on", "time": 0, "note": 59, "velocity": 93, "channel": 0}, {"type": "note_off", "time": 1105, "note": 59, "velocity": 93, "channel": 0}, {"type": "note_on", "time": 0, "note": 60, "velocity": 91, "channel": 0}, {"type": "note_off", "time": 3686, "note": 60, "velocity": 91, "channel": 0}, {"type": "note_on", "time": 6881, "note": 57, "velocity": 96, "channel": 0}, {"type": "note_on", "time": 2703, "note": 53, "velocity": 92, "channel": 0}, {"type": "note_off", "time": 0, "note": 57, "velocity": 96, "channel": 0}, {"type": "note_off", "time": 1351, "note": 53, "velocity": 92, "channel": 0}, {"type": "note_on", "time": 122, "note": 54, "velocity": 89, "channel": 0}, {"type": "note_off", "time": 614, "note": 54, "velocity": 89, "channel": 0}, {"type": "note_on", "time": 860, "note": 57, "velocity": 90, "channel": 0}, {"type": "note_off", "time": 2826, "note": 57, "velocity": 90, "channel": 0}, {"type": "note_on", "time": 0, "note": 60, "velocity": 93, "channel": 0}, {"type": "note_off", "time": 983, "note": 60, "velocity": 93, "channel": 0}, {"type": "note_on", "time": 737, "note": 63, "velocity": 91, "channel": 0}, {"type": "note_off", "time": 1351, "note": 63, "velocity": 91, "channel": 0}, {"type": "note_on", "time": 245, "note": 67, "velocity": 98, "channel": 0}, {"type": "note_off", "time": 1966, "note": 67, "velocity": 98, "channel": 0}, {"type": "note_on", "time": 122, "note": 68, "velocity": 101, "channel": 0}, {"type": "note_off", "time": 1105, "note": 68, "velocity": 101, "channel": 0}, {"type": "note_on", "time": 122, "note": 74, "velocity": 91, "channel": 0}, {"type": "note_off", "time": 1597, "note": 74, "velocity": 91, "channel": 0}, {"type": "note_on", "time": 0, "note": 76, "velocity": 99, "channel": 0}, {"type": "note_on", "time": 860, "note": 78, "velocity": 109, "channel": 0}, {"type": "note_off", "time": 0, "note": 76, "velocity": 99, "channel": 0}, {"type": "note_off", "time": 1720, "note": 78, "velocity": 109, "channel": 0}, {"type": "note_on", "time": 0, "note": 79, "velocity": 120, "channel": 0}, {"type": "note_on", "time": 3071, "note": 77, "velocity": 112, "channel": 0}, {"type": "note_off", "time": 0, "note": 79, "velocity": 120, "channel": 0}, {"type": "note_off", "time": 2334, "note": 77, "velocity": 112, "channel": 0}, {"type": "note_on", "time": 0, "note": 74, "velocity": 109, "channel": 0}, {"type": "note_off", "time": 2703, "note": 74, "velocity": 109, "channel": 0}, {"type": "note_on", "time": 0, "note": 75, "velocity": 114, "channel": 0}, {"type": "note_off", "time": 3440, "note": 75, "velocity": 114, "channel": 0}, {"type": "note_on", "time": 491, "note": 76, "velocity": 97, "channel": 0}, {"type": "note_off", "time": 368, "note": 76, "velocity": 97, "channel": 0}, {"type": "note_on", "time": 0, "note": 75, "velocity": 115, "channel": 0}, {"type": "note_on", "time": 2088, "note": 76, "velocity": 118, "channel": 0}, {"type": "note_off", "time": 0, "note": 75, "velocity": 115, "channel": 0}, {"type": "note_off", "time": 11304, "note": 76, "velocity": 118, "channel": 0}, {"type": "note_on", "time": 0, "note": 75, "velocity": 114, "channel": 0}, {"type": "note_off", "time": 1105, "note": 75, "velocity": 114, "channel": 0}, {"type": "note_on", "time": 0, "note": 74, "velocity": 111, "channel": 0}, {"type": "note_off", "time": 1228, "note": 74, "velocity": 111, "channel": 0}, {"type": "note_on", "time": 122, "note": 72, "velocity": 108, "channel": 0}, {"type": "note_off", "time": 614, "note": 72, "velocity": 108, "channel": 0}, {"type": "note_on", "time": 368, "note": 70, "velocity": 97, "channel": 0}, {"type": "note_off", "time": 1105, "note": 70, "velocity": 97, "channel": 0}, {"type": "note_on", "time": 122, "note": 67, "velocity": 107, "channel": 0}, {"type": "note_off", "time": 860, "note": 67, "velocity": 107, "channel": 0}, {"type": "note_on", "time": 0, "note": 64, "velocity": 101, "channel": 0}, {"type": "note_off", "time": 860, "note": 64, "velocity": 101, "channel": 0}, {"type": "note_on", "time": 0, "note": 62, "velocity": 96, "channel": 0}, {"type": "note_off", "time": 983, "note": 62, "velocity": 96, "channel": 0}, {"type": "note_on", "time": 0, "note": 60, "velocity": 92, "channel": 0}, {"type": "note_off", "time": 1720, "note": 60, "velocity": 92, "channel": 0}, {"type": "note_on", "time": 368, "note": 58, "velocity": 86, "channel": 0}, {"type": "note_off", "time": 2088, "note": 58, "velocity": 86, "channel": 0}, {"type": "note_on", "time": 13516, "note": 63, "velocity": 104, "channel": 0}, {"type": "note_off", "time": 2334, "note": 63, "velocity": 104, "channel": 0}, {"type": "note_on", "time": 860, "note": 64, "velocity": 93, "channel": 0}, {"type": "note_off", "time": 14376, "note": 64, "velocity": 93, "channel": 0}, {"type": "note_on", "time": 22364, "note": 72, "velocity": 123, "channel": 0}, {"type": "note_off", "time": 3440, "note": 72, "velocity": 123, "channel": 0}, {"type": "note_on", "time": 737, "note": 75, "velocity": 125, "channel": 0}, {"type": "note_off", "time": 7127, "note": 75, "velocity": 125, "channel": 0}, {"type": "note_on", "time": 122, "note": 76, "velocity": 109, "channel": 0}, {"type": "note_off", "time": 1720, "note": 76, "velocity": 109, "channel": 0}, {"type": "note_on", "time": 122, "note": 75, "velocity": 120, "channel": 0}, {"type": "note_off", "time": 1966, "note": 75, "velocity": 120, "channel": 0}, {"type": "note_on", "time": 860, "note": 74, "velocity": 116, "channel": 0}, {"type": "note_off", "time": 737, "note": 74, "velocity": 116, "channel": 0}, {"type": "note_on", "time": 491, "note": 72, "velocity": 118, "channel": 0}, {"type": "note_off", "time": 737, "note": 72, "velocity": 118, "channel": 0}, {"type": "note_on", "time": 368, "note": 70, "velocity": 121, "channel": 0}, {"type": "note_off", "time": 1228, "note": 70, "velocity": 121, "channel": 0}, {"type": "note_on", "time": 491, "note": 68, "velocity": 119, "channel": 0}, {"type": "note_on", "time": 2334, "note": 67, "velocity": 117, "channel": 0}, {"type": "note_off", "time": 0, "note": 68, "velocity": 119, "channel": 0}, {"type": "note_off", "time": 2580, "note": 67, "velocity": 117, "channel": 0}, {"type": "note_on", "time": 0, "note": 65, "velocity": 107, "channel": 0}, {"type": "note_off", "time": 2580, "note": 65, "velocity": 107, "channel": 0}, {"type": "note_on", "time": 491, "note": 63, "velocity": 102, "channel": 0}, {"type": "note_off", "time": 1843, "note": 63, "velocity": 102, "channel": 0}, {"type": "note_on", "time": 122, "note": 60, "velocity": 94, "channel": 0}, {"type": "note_on", "time": 2088, "note": 62, "velocity": 107, "channel": 0}, {"type": "note_off", "time": 0, "note": 60, "velocity": 94, "channel": 0}, {"type": "note_off", "time": 3440, "note": 62, "velocity": 107, "channel": 0}, {"type": "note_on", "time": 122, "note": 60, "velocity": 104, "channel": 0}, {"type": "note_on", "time": 2088, "note": 58, "velocity": 105, "channel": 0}, {"type": "note_off", "time": 0, "note": 60, "velocity": 104, "channel": 0}, {"type": "note_off", "time": 2580, "note": 58, "velocity": 105, "channel": 0}, {"type": "note_on", "time": 0, "note": 57, "velocity": 105, "channel": 0}, {"type": "note_on", "time": 2334, "note": 56, "velocity": 99, "channel": 0}, {"type": "note_off", "time": 0, "note": 57, "velocity": 105, "channel": 0}, {"type": "note_off", "time": 1720, "note": 56, "velocity": 99, "channel": 0}, {"type": "note_on", "time": 0, "note": 60, "velocity": 94, "channel": 0}, {"type": "note_off", "time": 983, "note": 60, "velocity": 94, "channel": 0}, {"type": "note_on", "time": 737, "note": 64, "velocity": 95, "channel": 0}, {"type": "note_off", "time": 860, "note": 64, "velocity": 95, "channel": 0}, {"type": "note_on", "time": 614, "note": 65, "velocity": 104, "channel": 0}, {"type": "note_off", "time": 3317, "note": 65, "velocity": 104, "channel": 0}, {"type": "note_on", "time": 122, "note": 70, "velocity": 112, "channel": 0}, {"type": "note_on", "time": 2580, "note": 68, "velocity": 122, "channel": 0}, {"type": "note_off", "time": 0, "note": 70, "velocity": 112, "channel": 0}, {"type": "note_off", "time": 2211, "note": 68, "velocity": 122, "channel": 0}, {"type": "note_on", "time": 491, "note": 67, "velocity": 113, "channel": 0}, {"type": "note_off", "time": 2457, "note": 67, "velocity": 113, "channel": 0}, {"type": "note_on", "time": 122, "note": 65, "velocity": 114, "channel": 0}, {"type": "note_off", "time": 1966, "note": 65, "velocity": 114, "channel": 0}, {"type": "note_on", "time": 737, "note": 63, "velocity": 106, "channel": 0}, {"type": "note_off", "time": 1966, "note": 63, "velocity": 106, "channel": 0}, {"type": "note_on", "time": 0, "note": 60, "velocity": 90, "channel": 0}, {"type": "note_off", "time": 1966, "note": 60, "velocity": 90, "channel": 0}, {"type": "note_on", "time": 368, "note": 61, "velocity": 119, "channel": 0}, {"type": "note_off", "time": 2211, "note": 61, "velocity": 119, "channel": 0}, {"type": "note_on", "time": 491, "note": 62, "velocity": 116, "channel": 0}, {"type": "note_off", "time": 2826, "note": 62, "velocity": 116, "channel": 0}, {"type": "note_on", "time": 122, "note": 60, "velocity": 107, "channel": 0}, {"type": "note_off", "time": 1720, "note": 60, "velocity": 107, "channel": 0}, {"type": "note_on", "time": 122, "note": 58, "velocity": 103, "channel": 0}, {"type": "note_off", "time": 2949, "note": 58, "velocity": 103, "channel": 0}, {"type": "note_on", "time": 122, "note": 57, "velocity": 105, "channel": 0}, {"type": "note_off", "time": 2457, "note": 57, "velocity": 105, "channel": 0}, {"type": "note_on", "time": 0, "note": 56, "velocity": 101, "channel": 0}, {"type": "note_off", "time": 2457, "note": 56, "velocity": 101, "channel": 0}, {"type": "note_on", "time": 491, "note": 60, "velocity": 97, "channel": 0}, {"type": "note_off", "time": 2826, "note": 60, "velocity": 97, "channel": 0}, {"type": "note_on", "time": 0, "note": 55, "velocity": 96, "channel": 0}, {"type": "note_on", "time": 2088, "note": 53, "velocity": 104, "channel": 0}, {"type": "note_off", "time": 0, "note": 55, "velocity": 96, "channel": 0}, {"type": "note_off", "time": 2580, "note": 53, "velocity": 104, "channel": 0}, {"type": "note_on", "time": 0, "note": 51, "velocity": 96, "channel": 0}, {"type": "note_off", "time": 2088, "note": 51, "velocity": 96, "channel": 0}, {"type": "note_on", "time": 122, "note": 50, "velocity": 99, "channel": 0}, {"type": "note_off", "time": 2211, "note": 50, "velocity": 99, "channel": 0}, {"type": "note_on", "time": 0, "note": 53, "velocity": 96, "channel": 0}, {"type": "note_off", "time": 1843, "note": 53, "velocity": 96, "channel": 0}, {"type": "note_on", "time": 737, "note": 56, "velocity": 97, "channel": 0}, {"type": "note_on", "time": 1228, "note": 59, "velocity": 96, "channel": 0}, {"type": "note_off", "time": 0, "note": 56, "velocity": 97, "channel": 0}, {"type": "note_off", "time": 2088, "note": 59, "velocity": 96, "channel": 0}, {"type": "note_on", "time": 0, "note": 58, "velocity": 102, "channel": 0}, {"type": "note_off", "time": 2211, "note": 58, "velocity": 102, "channel": 0}, {"type": "note_on", "time": 0, "note": 57, "velocity": 104, "channel": 0}, {"type": "note_off", "time": 1597, "note": 57, "velocity": 104, "channel": 0}, {"type": "note_on", "time": 122, "note": 55, "velocity": 100, "channel": 0}, {"type": "note_off", "time": 2457, "note": 55, "velocity": 100, "channel": 0}, {"type": "note_on", "time": 0, "note": 56, "velocity": 106, "channel": 0}, {"type": "note_on", "time": 1474, "note": 60, "velocity": 101, "channel": 0}, {"type": "note_off", "time": 0, "note": 56, "velocity": 106, "channel": 0}, {"type": "note_off", "time": 983, "note": 60, "velocity": 101, "channel": 0}, {"type": "note_on", "time": 0, "note": 64, "velocity": 98, "channel": 0}, {"type": "note_off", "time": 1474, "note": 64, "velocity": 98, "channel": 0}, {"type": "note_on", "time": 122, "note": 67, "velocity": 114, "channel": 0}, {"type": "note_off", "time": 2949, "note": 67, "velocity": 114, "channel": 0}, {"type": "note_on", "time": 0, "note": 64, "velocity": 101, "channel": 0}, {"type": "note_off", "time": 1597, "note": 64, "velocity": 101, "channel": 0}, {"type": "note_on", "time": 0, "note": 65, "velocity": 102, "channel": 0}, {"type": "note_off", "time": 1228, "note": 65, "velocity": 102, "channel": 0}, {"type": "note_on", "time": 122, "note": 66, "velocity": 102, "channel": 0}, {"type": "note_off", "time": 1351, "note": 66, "velocity": 102, "channel": 0}, {"type": "note_on", "time": 0, "note": 68, "velocity": 97, "channel": 0}, {"type": "note_off", "time": 1474, "note": 68, "velocity": 97, "channel": 0}, {"type": "note_on", "time": 245, "note": 70, "velocity": 90, "channel": 0}, {"type": "note_off", "time": 983, "note": 70, "velocity": 90, "channel": 0}, {"type": "note_on", "time": 491, "note": 74, "velocity": 115, "channel": 0}, {"type": "note_off", "time": 2703, "note": 74, "velocity": 115, "channel": 0}, {"type": "note_on", "time": 164, "note": 76, "velocity": 112, "channel": 0}, {"type": "note_off", "time": 6177, "note": 76, "velocity": 112, "channel": 0}, {"type": "note_on", "time": 47, "note": 74, "velocity": 97, "channel": 0}, {"type": "note_off", "time": 1351, "note": 74, "velocity": 97, "channel": 0}, {"type": "note_on", "time": 0, "note": 72, "velocity": 107, "channel": 0}, {"type": "note_off", "time": 1474, "note": 72, "velocity": 107, "channel": 0}, {"type": "note_on", "time": 0, "note": 70, "velocity": 104, "channel": 0}, {"type": "note_off", "time": 1597, "note": 70, "velocity": 104, "channel": 0}, {"type": "note_on", "time": 0, "note": 68, "velocity": 116, "channel": 0}, {"type": "note_on", "time": 3071, "note": 67, "velocity": 111, "channel": 0}, {"type": "note_off", "time": 0, "note": 68, "velocity": 116, "channel": 0}, {"type": "note_off", "time": 2334, "note": 67, "velocity": 111, "channel": 0}, {"type": "note_on", "time": 122, "note": 65, "velocity": 113, "channel": 0}, {"type": "note_on", "time": 2211, "note": 63, "velocity": 102, "channel": 0}, {"type": "note_off", "time": 0, "note": 65, "velocity": 113, "channel": 0}, {"type": "note_off", "time": 3317, "note": 63, "velocity": 102, "channel": 0}, {"type": "note_on", "time": 737, "note": 62, "velocity": 110, "channel": 0}, {"type": "note_off", "time": 3440, "note": 62, "velocity": 110, "channel": 0}, {"type": "note_on", "time": 0, "note": 60, "velocity": 104, "channel": 0}, {"type": "note_off", "time": 2580, "note": 60, "velocity": 104, "channel": 0}, {"type": "note_on", "time": 0, "note": 58, "velocity": 99, "channel": 0}, {"type": "note_off", "time": 3072, "note": 58, "velocity": 99, "channel": 0}, {"type": "note_on", "time": 245, "note": 56, "velocity": 89, "channel": 0}, {"type": "note_off", "time": 3317, "note": 56, "velocity": 89, "channel": 0}, {"type": "note_on", "time": 23101, "note": 58, "velocity": 111, "channel": 0}, {"type": "note_off", "time": 2703, "note": 58, "velocity": 111, "channel": 0}, {"type": "note_on", "time": 491, "note": 61, "velocity": 108, "channel": 0}, {"type": "note_off", "time": 1966, "note": 61, "velocity": 108, "channel": 0}, {"type": "note_on", "time": 122, "note": 60, "velocity": 106, "channel": 0}, {"type": "note_off", "time": 2334, "note": 60, "velocity": 106, "channel": 0}, {"type": "note_on", "time": 491, "note": 58, "velocity": 110, "channel": 0}, {"type": "note_off", "time": 2703, "note": 58, "velocity": 110, "channel": 0}, {"type": "note_on", "time": 0, "note": 56, "velocity": 107, "channel": 0}, {"type": "note_off", "time": 2088, "note": 56, "velocity": 107, "channel": 0}, {"type": "note_on", "time": 0, "note": 55, "velocity": 103, "channel": 0}, {"type": "note_off", "time": 1597, "note": 55, "velocity": 103, "channel": 0}, {"type": "note_on", "time": 0, "note": 53, "velocity": 99, "channel": 0}, {"type": "note_off", "time": 4177, "note": 53, "velocity": 99, "channel": 0}, {"type": "note_on", "time": 0, "note": 55, "velocity": 105, "channel": 0}, {"type": "note_off", "time": 1105, "note": 55, "velocity": 105, "channel": 0}, {"type": "note_on", "time": 0, "note": 57, "velocity": 101, "channel": 0}, {"type": "note_off", "time": 1351, "note": 57, "velocity": 101, "channel": 0}, {"type": "note_on", "time": 122, "note": 61, "velocity": 109, "channel": 0}, {"type": "note_off", "time": 2088, "note": 61, "velocity": 109, "channel": 0}, {"type": "note_on", "time": 983, "note": 58, "velocity": 102, "channel": 0}, {"type": "note_off", "time": 2580, "note": 58, "velocity": 102, "channel": 0}, {"type": "note_on", "time": 0, "note": 60, "velocity": 91, "channel": 0}, {"type": "note_off", "time": 1474, "note": 60, "velocity": 91, "channel": 0}, {"type": "note_on", "time": 0, "note": 62, "velocity": 116, "channel": 0}, {"type": "note_off", "time": 2949, "note": 62, "velocity": 116, "channel": 0}, {"type": "note_on", "time": 245, "note": 63, "velocity": 120, "channel": 0}, {"type": "note_off", "time": 16957, "note": 63, "velocity": 120, "channel": 0}, {"type": "note_on", "time": 0, "note": 61, "velocity": 104, "channel": 0}, {"type": "note_off", "time": 1474, "note": 61, "velocity": 104, "channel": 0}, {"type": "note_on", "time": 245, "note": 60, "velocity": 103, "channel": 0}, {"type": "note_off", "time": 1105, "note": 60, "velocity": 103, "channel": 0}, {"type": "note_on", "time": 245, "note": 58, "velocity": 108, "channel": 0}, {"type": "note_on", "time": 1105, "note": 63, "velocity": 114, "channel": 0}, {"type": "note_off", "time": 0, "note": 58, "velocity": 108, "channel": 0}, {"type": "note_off", "time": 2457, "note": 63, "velocity": 114, "channel": 0}, {"type": "note_on", "time": 0, "note": 61, "velocity": 107, "channel": 0}, {"type": "note_on", "time": 1474, "note": 60, "velocity": 106, "channel": 0}, {"type": "note_off", "time": 0, "note": 61, "velocity": 107, "channel": 0}, {"type": "note_on", "time": 1228, "note": 58, "velocity": 107, "channel": 0}, {"type": "note_off", "time": 0, "note": 60, "velocity": 106, "channel": 0}, {"type": "note_off", "time": 1966, "note": 58, "velocity": 107, "channel": 0}, {"type": "note_on", "time": 0, "note": 63, "velocity": 109, "channel": 0}, {"type": "note_off", "time": 9830, "note": 63, "velocity": 109, "channel": 0}, {"type": "note_on", "time": 0, "note": 61, "velocity": 102, "channel": 0}, {"type": "note_off", "time": 860, "note": 61, "velocity": 102, "channel": 0}, {"type": "note_on", "time": 245, "note": 60, "velocity": 98, "channel": 0}, {"type": "note_on", "time": 1843, "note": 58, "velocity": 104, "channel": 0}, {"type": "note_off", "time": 0, "note": 60, "velocity": 98, "channel": 0}, {"type": "note_off", "time": 2211, "note": 58, "velocity": 104, "channel": 0}, {"type": "note_on", "time": 0, "note": 57, "velocity": 104, "channel": 0}, {"type": "note_off", "time": 1351, "note": 57, "velocity": 104, "channel": 0}, {"type": "note_on", "time": 92, "note": 60, "velocity": 100, "channel": 0}, {"type": "note_off", "time": 907, "note": 60, "velocity": 100, "channel": 0}, {"type": "note_on", "time": 43, "note": 62, "velocity": 100, "channel": 0}, {"type": "note_off", "time": 923, "note": 62, "velocity": 100, "channel": 0}, {"type": "note_on", "time": 0, "note": 67, "velocity": 112, "channel": 0}, {"type": "note_on", "time": 2088, "note": 64, "velocity": 111, "channel": 0}, {"type": "note_off", "time": 0, "note": 67, "velocity": 112, "channel": 0}, {"type": "note_off", "time": 2211, "note": 64, "velocity": 111, "channel": 0}, {"type": "note_on", "time": 122, "note": 65, "velocity": 112, "channel": 0}, {"type": "note_on", "time": 1228, "note": 67, "velocity": 114, "channel": 0}, {"type": "note_off", "time": 0, "note": 65, "velocity": 112, "channel": 0}, {"type": "note_off", "time": 2088, "note": 67, "velocity": 114, "channel": 0}, {"type": "note_on", "time": 0, "note": 69, "velocity": 101, "channel": 0}, {"type": "note_off", "time": 2211, "note": 69, "velocity": 101, "channel": 0}, {"type": "note_on", "time": 0, "note": 71, "velocity": 97, "channel": 0}, {"type": "note_off", "time": 1597, "note": 71, "velocity": 97, "channel": 0}, {"type": "note_on", "time": 245, "note": 73, "velocity": 108, "channel": 0}, {"type": "note_off", "time": 737, "note": 73, "velocity": 108, "channel": 0}, {"type": "note_on", "time": 0, "note": 75, "velocity": 127, "channel": 0}, {"type": "note_off", "time": 5038, "note": 75, "velocity": 127, "channel": 0}, {"type": "note_on", "time": 122, "note": 74, "velocity": 122, "channel": 0}, {"type": "note_off", "time": 2088, "note": 74, "velocity": 122, "channel": 0}, {"type": "note_on", "time": 122, "note": 72, "velocity": 120, "channel": 0}, {"type": "note_on", "time": 1966, "note": 70, "velocity": 111, "channel": 0}, {"type": "note_off", "time": 0, "note": 72, "velocity": 120, "channel": 0}, {"type": "note_off", "time": 3563, "note": 70, "velocity": 111, "channel": 0}, {"type": "note_on", "time": 0, "note": 69, "velocity": 108, "channel": 0}, {"type": "note_off", "time": 2211, "note": 69, "velocity": 108, "channel": 0}, {"type": "note_on", "time": 368, "note": 67, "velocity": 116, "channel": 0}, {"type": "note_on", "time": 1966, "note": 66, "velocity": 91, "channel": 0}, {"type": "note_off", "time": 0, "note": 67, "velocity": 116, "channel": 0}, {"type": "note_off", "time": 1839, "note": 66, "velocity": 91, "channel": 0}, {"type": "note_on", "time": 0, "note": 69, "velocity": 98, "channel": 0}, {"type": "note_off", "time": 2334, "note": 69, "velocity": 98, "channel": 0}, {"type": "note_on", "time": 126, "note": 72, "velocity": 105, "channel": 0}, {"type": "note_off", "time": 1843, "note": 72, "velocity": 105, "channel": 0}, {"type": "note_on", "time": 368, "note": 75, "velocity": 124, "channel": 0}, {"type": "note_on", "time": 3071, "note": 72, "velocity": 109, "channel": 0}, {"type": "note_off", "time": 0, "note": 75, "velocity": 124, "channel": 0}, {"type": "note_off", "time": 3071, "note": 72, "velocity": 109, "channel": 0}, {"type": "note_on", "time": 0, "note": 73, "velocity": 92, "channel": 0}, {"type": "note_off", "time": 1228, "note": 73, "velocity": 92, "channel": 0}, {"type": "note_on", "time": 491, "note": 74, "velocity": 114, "channel": 0}, {"type": "note_off", "time": 9707, "note": 74, "velocity": 114, "channel": 0}, {"type": "note_on", "time": 11182, "note": 74, "velocity": 109, "channel": 0}, {"type": "note_off", "time": 1843, "note": 74, "velocity": 109, "channel": 0}, {"type": "note_on", "time": 368, "note": 76, "velocity": 125, "channel": 0}, {"type": "note_off", "time": 3072, "note": 76, "velocity": 125, "channel": 0}, {"type": "note_on", "time": 212, "note": 79, "velocity": 118, "channel": 0}, {"type": "note_off", "time": 2203, "note": 79, "velocity": 118, "channel": 0}, {"type": "note_on", "time": 42, "note": 78, "velocity": 119, "channel": 0}, {"type": "note_off", "time": 3440, "note": 78, "velocity": 119, "channel": 0}, {"type": "note_on", "time": 245, "note": 77, "velocity": 111, "channel": 0}, {"type": "note_on", "time": 2826, "note": 75, "velocity": 116, "channel": 0}, {"type": "note_off", "time": 0, "note": 77, "velocity": 111, "channel": 0}, {"type": "note_off", "time": 2826, "note": 75, "velocity": 116, "channel": 0}, {"type": "note_on", "time": 0, "note": 72, "velocity": 110, "channel": 0}, {"type": "note_on", "time": 3233, "note": 76, "velocity": 117, "channel": 0}, {"type": "note_off", "time": 0, "note": 72, "velocity": 110, "channel": 0}, {"type": "note_off", "time": 2419, "note": 76, "velocity": 117, "channel": 0}, {"type": "note_on", "time": 86, "note": 75, "velocity": 108, "channel": 0}, {"type": "note_off", "time": 1728, "note": 75, "velocity": 108, "channel": 0}, {"type": "note_on", "time": 28, "note": 74, "velocity": 109, "channel": 0}, {"type": "note_off", "time": 1228, "note": 74, "velocity": 109, "channel": 0}, {"type": "note_on", "time": 245, "note": 72, "velocity": 117, "channel": 0}, {"type": "note_off", "time": 2211, "note": 72, "velocity": 117, "channel": 0}, {"type": "note_on", "time": 0, "note": 70, "velocity": 117, "channel": 0}, {"type": "note_off", "time": 2088, "note": 70, "velocity": 117, "channel": 0}, {"type": "note_on", "time": 0, "note": 68, "velocity": 123, "channel": 0}, {"type": "note_off", "time": 1720, "note": 68, "velocity": 123, "channel": 0}, {"type": "note_on", "time": 860, "note": 67, "velocity": 116, "channel": 0}, {"type": "note_off", "time": 1843, "note": 67, "velocity": 116, "channel": 0}, {"type": "note_on", "time": 614, "note": 65, "velocity": 116, "channel": 0}, {"type": "note_off", "time": 1720, "note": 65, "velocity": 116, "channel": 0}, {"type": "note_on", "time": 0, "note": 63, "velocity": 115, "channel": 0}, {"type": "note_off", "time": 2949, "note": 63, "velocity": 115, "channel": 0}, {"type": "note_on", "time": 0, "note": 64, "velocity": 109, "channel": 0}, {"type": "note_off", "time": 2334, "note": 64, "velocity": 109, "channel": 0}, {"type": "note_on", "time": 0, "note": 67, "velocity": 116, "channel": 0}, {"type": "note_on", "time": 1843, "note": 70, "velocity": 118, "channel": 0}, {"type": "note_off", "time": 0, "note": 67, "velocity": 116, "channel": 0}, {"type": "note_off", "time": 2580, "note": 70, "velocity": 118, "channel": 0}, {"type": "note_on", "time": 122, "note": 73, "velocity": 126, "channel": 0}, {"type": "note_off", "time": 2457, "note": 73, "velocity": 126, "channel": 0}, {"type": "note_on", "time": 491, "note": 70, "velocity": 115, "channel": 0}, {"type": "note_off", "time": 1843, "note": 70, "velocity": 115, "channel": 0}, {"type": "note_on", "time": 122, "note": 71, "velocity": 106, "channel": 0}, {"type": "note_off", "time": 1228, "note": 71, "velocity": 106, "channel": 0}, {"type": "note_on", "time": 860, "note": 72, "velocity": 119, "channel": 0}, {"type": "note_off", "time": 3440, "note": 72, "velocity": 119, "channel": 0}, {"type": "note_on", "time": 122, "note": 70, "velocity": 119, "channel": 0}, {"type": "note_off", "time": 2334, "note": 70, "velocity": 119, "channel": 0}, {"type": "note_on", "time": 0, "note": 68, "velocity": 116, "channel": 0}, {"type": "note_off", "time": 3317, "note": 68, "velocity": 116, "channel": 0}, {"type": "note_on", "time": 0, "note": 72, "velocity": 113, "channel": 0}, {"type": "note_off", "time": 1474, "note": 72, "velocity": 113, "channel": 0}, {"type": "note_on", "time": 0, "note": 67, "velocity": 112, "channel": 0}, {"type": "note_on", "time": 2334, "note": 66, "velocity": 126, "channel": 0}, {"type": "note_off", "time": 0, "note": 67, "velocity": 112, "channel": 0}, {"type": "note_off", "time": 3194, "note": 66, "velocity": 126, "channel": 0}, {"type": "note_on", "time": 0, "note": 65, "velocity": 115, "channel": 0}, {"type": "note_off", "time": 2826, "note": 65, "velocity": 115, "channel": 0}, {"type": "note_on", "time": 0, "note": 63, "velocity": 109, "channel": 0}, {"type": "note_off", "time": 2211, "note": 63, "velocity": 109, "channel": 0}, {"type": "note_on", "time": 0, "note": 60, "velocity": 98, "channel": 0}, {"type": "note_off", "time": 2334, "note": 60, "velocity": 98, "channel": 0}, {"type": "note_on", "time": 122, "note": 61, "velocity": 96, "channel": 0}, {"type": "note_off", "time": 1720, "note": 61, "velocity": 96, "channel": 0}, {"type": "note_on", "time": 245, "note": 62, "velocity": 104, "channel": 0}, {"type": "note_off", "time": 2088, "note": 62, "velocity": 104, "channel": 0}, {"type": "note_on", "time": 806, "note": 64, "velocity": 90, "channel": 0}, {"type": "note_off", "time": 45446, "note": 64, "velocity": 90, "channel": 0}, {"type": "end_of_track", "time": 0}]]}