{"ticks_per_beat": 840, "tracks": [[{"type": "track_name", "name": "Melody", "time": 0}, {"type": "set_tempo", "tempo": 465116, "time": 0}, {"type": "key_signature", "key": "G", "time": 0}, {"type": "time_signature", "numerator": 4, "denominator": 4, "clocks_per_click": 24, "notated_32nd_notes_per_beat": 8, "time": 0}, {"type": "note_on", "time": 5137, "note": 61, "velocity": 105, "channel": 0}, {"type": "note_off", "time": 146, "note": 61, "velocity": 105, "channel": 0}, {"type": "note_on", "time": 20, "note": 62, "velocity": 111, "channel": 0}, {"type": "note_off", "time": 146, "note": 62, "velocity": 111, "channel": 0}, {"type": "note_on", "time": 0, "note": 65, "velocity": 118, "channel": 0}, {"type": "note_off", "time": 440, "note": 65, "velocity": 118, "channel": 0}, {"type": "note_on", "time": 125, "note": 73, "velocity": 125, "channel": 0}, {"type": "note_off", "time": 366, "note": 73, "velocity": 125, "channel": 0}, {"type": "note_on", "time": 272, "note": 73, "velocity": 119, "channel": 0}, {"type": "note_off", "time": 356, "note": 73, "velocity": 119, "channel": 0}, {"type": "note_on", "time": 251, "note": 72, "velocity": 111, "channel": 0}, {"type": "note_off", "time": 199, "note": 72, "velocity": 111, "channel": 0}, {"type": "note_on", "time": 41, "note": 73, "velocity": 114, "channel": 0}, {"type": "note_off", "time": 356, "note": 73, "velocity": 114, "channel": 0}, {"type": "note_on", "time": 178, "note": 69, "velocity": 109, "channel": 0}, {"type": "note_off", "time": 524, "note": 69, "velocity": 109, "channel": 0}, {"type": "note_on", "time": 167, "note": 74, "velocity": 110, "channel": 0}, {"type": "note_off", "time": 283, "note": 74, "velocity": 110, "channel": 0}, {"type": "note_on", "time": 10, "note": 76, "velocity": 120, "channel": 0}, {"type": "note_off", "time": 618, "note": 76, "velocity": 120, "channel": 0}, {"type": "note_on", "time": 20, "note": 74, "velocity": 117, "channel": 0}, {"type": "note_off", "time": 576, "note": 74, "velocity": 117, "channel": 0}, {"type": "note_on", "time": 345, "note": 69, "velocity": 91, "channel": 0}, {"type": "note_off", "time": 691, "note": 69, "velocity": 91, "channel": 0}, {"type": "note_on", "time": 83, "note": 71, "velocity": 115, "channel": 0}, {"type": "note_off", "time": 178, "note": 71, "velocity": 115, "channel": 0}, {"type": "note_on", "time": 41, "note": 72, "velocity": 99, "channel": 0}, {"type": "note_off", "time": 2128, "note": 72, "velocity": 99, "channel": 0}, {"type": "note_on", "time": 5, "note": 74, "velocity": 89, "channel": 0}, {"type": "note_off", "time": 57, "note": 74, "velocity": 89, "channel": 0}, {"type": "note_on", "time": 15, "note": 73, "velocity": 94, "channel": 0}, {"type": "note_off", "time": 36, "note": 73, "velocity": 94, "channel": 0}, {"type": "note_on", "time": 15, "note": 70, "velocity": 102, "channel": 0}, {"type": "note_off", "time": 36, "note": 70, "velocity": 102, "channel": 0}, {"type": "note_on", "time": 20, "note": 71, "velocity": 104, "channel": 0}, {"type": "note_off", "time": 304, "note": 71, "velocity": 104, "channel": 0}, {"type": "note_on", "time": 345, "note": 62, "velocity": 84, "channel": 0}, {"type": "note_off", "time": 712, "note": 62, "velocity": 84, "channel": 0}, {"type": "note_on", "time": 901, "note": 62, "velocity": 91, "channel": 0}, {"type": "note_off", "time": 1048, "note": 62, "velocity": 91, "channel": 0}, {"type": "note_on", "time": 3113, "note": 80, "velocity": 79, "channel": 0}, {"type": "note_off", "time": 157, "note": 80, "velocity": 79, "channel": 0}, {"type": "note_on", "time": 0, "note": 81, "velocity": 119, "channel": 0}, {"type": "note_off", "time": 398, "note": 81, "velocity": 119, "channel": 0}, {"type": "note_on", "time": 324, "note": 80, "velocity": 106, "channel": 0}, {"type": "note_off", "time": 125, "note": 80, "velocity": 106, "channel": 0}, {"type": "note_on", "time": 94, "note": 81, "velocity": 104, "channel": 0}, {"type": "note_off", "time": 2599, "note": 81, "velocity": 104, "channel": 0}, {"type": "note_on", "time": 73, "note": 77, "velocity": 106, "channel": 0}, {"type": "note_off", "time": 1373, "note": 77, "velocity": 106, "channel": 0}, {"type": "note_on", "time": 104, "note": 75, "velocity": 98, "channel": 0}, {"type": "note_off", "time": 157, "note": 75, "velocity": 98, "channel": 0}, {"type": "note_on", "time": 157, "note": 77, "velocity": 106, "channel": 0}, {"type": "note_off", "time": 314, "note": 77, "velocity": 106, "channel": 0}, {"type": "note_on", "time": 73, "note": 75, "velocity": 101, "channel": 0}, {"type": "note_off", "time": 73, "note": 75, "velocity": 101, "channel": 0}, {"type": "note_on", "time": 62, "note": 77, "velocity": 112, "channel": 0}, {"type": "note_off", "time": 283, "note": 77, "velocity": 112, "channel": 0}, {"type": "note_on", "time": 3302, "note": 71, "velocity": 98, "channel": 0}, {"type": "note_off", "time": 188, "note": 71, "velocity": 98, "channel": 0}, {"type": "note_on", "time": 0, "note": 72, "velocity": 96, "channel": 0}, {"type": "note_off", "time": 94, "note": 72, "velocity": 96, "channel": 0}, {"type": "note_on", "time": 41, "note": 74, "velocity": 110, "channel": 0}, {"type": "note_off", "time": 125, "note": 74, "velocity": 110, "channel": 0}, {"type": "note_on", "time": 20, "note": 76, "velocity": 116, "channel": 0}, {"type": "note_on", "time": 262, "note": 74, "velocity": 114, "channel": 0}, {"type": "note_off", "time": 0, "note": 76, "velocity": 116, "channel": 0}, {"type": "note_off", "time": 188, "note": 74, "velocity": 114, "channel": 0}, {"type": "note_on", "time": 0, "note": 72, "velocity": 109, "channel": 0}, {"type": "note_off", "time": 104, "note": 72, "velocity": 109, "channel": 0}, {"type": "note_on", "time": 0, "note": 71, "velocity": 102, "channel": 0}, {"type": "note_off", "time": 136, "note": 71, "velocity": 102, "channel": 0}, {"type": "note_on", "time": 83, "note": 69, "velocity": 106, "channel": 0}, {"type": "note_off", "time": 146, "note": 69, "velocity": 106, "channel": 0}, {"type": "note_on", "time": 26, "note": 67, "velocity": 103, "channel": 0}, {"type": "note_off", "time": 230, "note": 67, "velocity": 103, "channel": 0}, {"type": "note_on", "time": 5, "note": 65, "velocity": 98, "channel": 0}, {"type": "note_off", "time": 167, "note": 65, "velocity": 98, "channel": 0}, {"type": "note_on", "time": 62, "note": 64, "velocity": 99, "channel": 0}, {"type": "note_off", "time": 146, "note": 64, "velocity": 99, "channel": 0}, {"type": "note_on", "time": 10, "note": 67, "velocity": 101, "channel": 0}, {"type": "note_off", "time": 115, "note": 67, "velocity": 101, "channel": 0}, {"type": "note_on", "time": 62, "note": 70, "velocity": 104, "channel": 0}, {"type": "note_off", "time": 188, "note": 70, "velocity": 104, "channel": 0}, {"type": "note_on", "time": 41, "note": 72, "velocity": 108, "channel": 0}, {"type": "note_off", "time": 230, "note": 72, "velocity": 108, "channel": 0}, {"type": "note_on", "time": 52, "note": 69, "velocity": 89, "channel": 0}, {"type": "note_off", "time": 293, "note": 69, "velocity": 89, "channel": 0}, {"type": "note_on", "time": 0, "note": 75, "velocity": 113, "channel": 0}, {"type": "note_off", "time": 356, "note": 75, "velocity": 113, "channel": 0}, {"type": "note_on", "time": 0, "note": 73, "velocity": 115, "channel": 0}, {"type": "note_off", "time": 68, "note": 73, "velocity": 115, "channel": 0}, {"type": "note_on", "time": 31, "note": 72, "velocity": 107, "channel": 0}, {"type": "note_off", "time": 89, "note": 72, "velocity": 107, "channel": 0}, {"type": "note_on", "time": 15, "note": 71, "velocity": 107, "channel": 0}, {"type": "note_off", "time": 99, "note": 71, "velocity": 107, "channel": 0}, {"type": "note_on", "time": 36, "note": 71, "velocity": 113, "channel": 0}, {"type": "note_off", "time": 57, "note": 71, "velocity": 113, "channel": 0}, {"type": "note_on", "time": 5, "note": 69, "velocity": 107, "channel": 0}, {"type": "note_off", "time": 99, "note": 69, "velocity": 107, "channel": 0}, {"type": "note_on", "time": 41, "note": 67, "velocity": 102, "channel": 0}, {"type": "note_off", "time": 141, "note": 67, "velocity": 102, "channel": 0}, {"type": "note_on", "time": 41, "note": 67, "velocity": 112, "channel": 0}, {"type": "note_off", "time": 73, "note": 67, "velocity": 112, "channel": 0}, {"type": "note_on", "time": 36, "note": 65, "velocity": 98, "channel": 0}, {"type": "note_off", "time": 104, "note": 65, "velocity": 98, "channel": 0}, {"type": "note_on", "time": 41, "note": 64, "velocity": 95, "channel": 0}, {"type": "note_off", "time": 157, "note": 64, "velocity": 95, "channel": 0}, {"type": "note_on", "time": 0, "note": 62, "velocity": 95, "channel": 0}, {"type": "note_off", "time": 125, "note": 62, "velocity": 95, "channel": 0}, {"type": "note_on", "time": 62, "note": 63, "velocity": 99, "channel": 0}, {"type": "note_off", "time": 272, "note": 63, "velocity": 99, "channel": 0}, {"type": "note_on", "time": 52, "note": 46, "velocity": 113, "channel": 0}, {"type": "note_off", "time": 220, "note": 46, "velocity": 113, "channel": 0}, {"type": "note_on", "time": 52, "note": 61, "velocity": 108, "channel": 0}, {"type": "note_off", "time": 251, "note": 61, "velocity": 108, "channel": 0}, {"type": "note_on", "time": 0, "note": 58, "velocity": 91, "channel": 0}, {"type": "note_off", "time": 230, "note": 58, "velocity": 91, "channel": 0}, {"type": "note_on", "time": 230, "note": 60, "velocity": 102, "channel": 0}, {"type": "note_on", "time": 178, "note": 58, "velocity": 102, "channel": 0}, {"type": "note_off", "time": 0, "note": 60, "velocity": 102, "channel": 0}, {"type": "note_off", "time": 230, "note": 58, "velocity": 102, "channel": 0}, {"type": "note_on", "time": 10, "note": 57, "velocity": 101, "channel": 0}, {"type": "note_off", "time": 125, "note": 57, "velocity": 101, "channel": 0}, {"type": "note_on", "time": 0, "note": 55, "velocity": 105, "channel": 0}, {"type": "note_off", "time": 199, "note": 55, "velocity": 105, "channel": 0}, {"type": "note_on", "time": 20, "note": 53, "velocity": 102, "channel": 0}, {"type": "note_off", "time": 220, "note": 53, "velocity": 102, "channel": 0}, {"type": "note_on", "time": 0, "note": 57, "velocity": 96, "channel": 0}, {"type": "note_off", "time": 157, "note": 57, "velocity": 96, "channel": 0}, {"type": "note_on", "time": 52, "note": 60, "velocity": 93, "channel": 0}, {"type": "note_off", "time": 94, "note": 60, "velocity": 93, "channel": 0}, {"type": "note_on", "time": 20, "note": 63, "velocity": 102, "channel": 0}, {"type": "note_off", "time": 230, "note": 63, "velocity": 102, "channel": 0}, {"type": "note_on", "time": 0, "note": 59, "velocity": 92, "channel": 0}, {"type": "note_off", "time": 199, "note": 59, "velocity": 92, "channel": 0}, {"type": "note_on", "time": 0, "note": 61, "velocity": 94, "channel": 0}, {"type": "note_off", "time": 188, "note": 61, "velocity": 94, "channel": 0}, {"type": "note_on", "time": 62, "note": 62, "velocity": 106, "channel": 0}, {"type": "note_off", "time": 199, "note": 62, "velocity": 106, "channel": 0}, {"type": "note_on", "time": 52, "note": 60, "velocity": 99, "channel": 0}, {"type": "note_off", "time": 104, "note": 60, "velocity": 99, "channel": 0}, {"type": "note_on", "time": 0, "note": 58, "velocity": 99, "channel": 0}, {"type": "note_off", "time": 157, "note": 58, "velocity": 99, "channel": 0}, {"type": "note_on", "time": 10, "note": 59, "velocity": 94, "channel": 0}, {"type": "note_off", "time": 83, "note": 59, "velocity": 94, "channel": 0}, {"type": "note_on", "time": 31, "note": 62, "velocity": 96, "channel": 0}, {"type": "note_off", "time": 89, "note": 62, "velocity": 96, "channel": 0}, {"type": "note_on", "time": 26, "note": 65, "velocity": 92, "channel": 0}, {"type": "note_off", "time": 125, "note": 65, "velocity": 92, "channel": 0}, {"type": "note_on", "time": 52, "note": 69, "velocity": 111, "channel": 0}, {"type": "note_on", "time": 167, "note": 65, "velocity": 105, "channel": 0}, {"type": "note_off", "time": 0, "note": 69, "velocity": 111, "channel": 0}, {"type": "note_off", "time": 199, "note": 65, "velocity": 105, "channel": 0}, {"type": "note_on", "time": 41, "note": 67, "velocity": 97, "channel": 0}, {"type": "note_on", "time": 230, "note": 69, "velocity": 88, "channel": 0}, {"type": "note_off", "time": 0, "note": 67, "velocity": 97, "channel": 0}, {"type": "note_off", "time": 157, "note": 69, "velocity": 88, "channel": 0}, {"type": "note_on", "time": 57, "note": 70, "velocity": 78, "channel": 0}, {"type": "note_off", "time": 110, "note": 70, "velocity": 78, "channel": 0}, {"type": "note_on", "time": 94, "note": 74, "velocity": 95, "channel": 0}, {"type": "note_off", "time": 146, "note": 74, "velocity": 95, "channel": 0}, {"type": "note_on", "time": 41, "note": 79, "velocity": 108, "channel": 0}, {"type": "note_off", "time": 199, "note": 79, "velocity": 108, "channel": 0}, {"type": "note_on", "time": 31, "note": 77, "velocity": 104, "channel": 0}, {"type": "note_off", "time": 324, "note": 77, "velocity": 104, "channel": 0}, {"type": "note_on", "time": 2086, "note": 86, "velocity": 108, "channel": 0}, {"type": "note_off", "time": 387, "note": 86, "velocity": 108, "channel": 0}, {"type": "note_on", "time": 2096, "note": 80, "velocity": 118, "channel": 0}, {"type": "note_off", "time": 104, "note": 80, "velocity": 118, "channel": 0}, {"type": "note_on", "time": 20, "note": 81, "velocity": 113, "channel": 0}, {"type": "note_off", "time": 482, "note": 81, "velocity": 113, "channel": 0}, {"type": "note_on", "time": 1090, "note": 57, "velocity": 103, "channel": 0}, {"type": "note_off", "time": 492, "note": 57, "velocity": 103, "channel": 0}, {"type": "note_on", "time": 1006, "note": 74, "velocity": 109, "channel": 0}, {"type": "note_off", "time": 157, "note": 74, "velocity": 109, "channel": 0}, {"type": "note_on", "time": 10, "note": 76, "velocity": 112, "channel": 0}, {"type": "note_off", "time": 387, "note": 76, "velocity": 112, "channel": 0}, {"type": "note_on", "time": 345, "note": 69, "velocity": 107, "channel": 0}, {"type": "note_off", "time": 230, "note": 69, "velocity": 107, "channel": 0}, {"type": "note_on", "time": 0, "note": 74, "velocity": 116, "channel": 0}, {"type": "note_off", "time": 754, "note": 74, "velocity": 116, "channel": 0}, {"type": "note_on", "time": 104, "note": 69, "velocity": 101, "channel": 0}, {"type": "note_off", "time": 723, "note": 69, "velocity": 101, "channel": 0}, {"type": "note_on", "time": 62, "note": 72, "velocity": 111, "channel": 0}, {"type": "note_off", "time": 2453, "note": 72, "velocity": 111, "channel": 0}, {"type": "note_on", "time": 104, "note": 73, "velocity": 114, "channel": 0}, {"type": "note_off", "time": 744, "note": 73, "velocity": 114, "channel": 0}, {"type": "note_on", "time": 681, "note": 71, "velocity": 109, "channel": 0}, {"type": "note_off", "time": 377, "note": 71, "velocity": 109, "channel": 0}, {"type": "note_on", "time": 62, "note": 73, "velocity": 111, "channel": 0}, {"type": "note_off", "time": 524, "note": 73, "velocity": 111, "channel": 0}, {"type": "note_on", "time": 1530, "note": 71, "velocity": 101, "channel": 0}, {"type": "note_off", "time": 251, "note": 71, "velocity": 101, "channel": 0}, {"type": "note_on", "time": 0, "note": 74, "velocity": 101, "channel": 0}, {"type": "note_off", "time": 2421, "note": 74, "velocity": 101, "channel": 0}, {"type": "note_on", "time": 83, "note": 75, "velocity": 114, "channel": 0}, {"type": "note_off", "time": 314, "note": 75, "velocity": 114, "channel": 0}, {"type": "note_on", "time": 26, "note": 73, "velocity": 111, "channel": 0}, {"type": "note_off", "time": 52, "note": 73, "velocity": 111, "channel": 0}, {"type": "note_on", "time": 5, "note": 72, "velocity": 113, "channel": 0}, {"type": "note_off", "time": 41, "note": 72, "velocity": 113, "channel": 0}, {"type": "note_on", "time": 20, "note": 70, "velocity": 103, "channel": 0}, {"type": "note_off", "time": 199, "note": 70, "velocity": 103, "channel": 0}, {"type": "note_on", "time": 10, "note": 69, "velocity": 105, "channel": 0}, {"type": "note_off", "time": 199, "note": 69, "velocity": 105, "channel": 0}, {"type": "note_on", "time": 10, "note": 67, "velocity": 105, "channel": 0}, {"type": "note_off", "time": 230, "note": 67, "velocity": 105, "channel": 0}, {"type": "note_on", "time": 20, "note": 65, "velocity": 99, "channel": 0}, {"type": "note_off", "time": 157, "note": 65, "velocity": 99, "channel": 0}, {"type": "note_on", "time": 41, "note": 63, "velocity": 94, "channel": 0}, {"type": "note_off", "time": 146, "note": 63, "velocity": 94, "channel": 0}, {"type": "note_on", "time": 20, "note": 62, "velocity": 91, "channel": 0}, {"type": "note_off", "time": 73, "note": 62, "velocity": 91, "channel": 0}, {"type": "note_on", "time": 31, "note": 61, "velocity": 96, "channel": 0}, {"type": "note_off", "time": 314, "note": 61, "velocity": 96, "channel": 0}, {"type": "note_on", "time": 20, "note": 62, "velocity": 105, "channel": 0}, {"type": "note_off", "time": 230, "note": 62, "velocity": 105, "channel": 0}, {"type": "note_on", "time": 15, "note": 60, "velocity": 97, "channel": 0}, {"type": "note_off", "time": 94, "note": 60, "velocity": 97, "channel": 0}, {"type": "note_on", "time": 15, "note": 59, "velocity": 88, "channel": 0}, {"type": "note_off", "time": 246, "note": 59, "velocity": 88, "channel": 0}, {"type": "note_on", "time": 157, "note": 62, "velocity": 96, "channel": 0}, {"type": "note_off", "time": 110, "note": 62, "velocity": 96, "channel": 0}, {"type": "note_on", "time": 10, "note": 69, "velocity": 108, "channel": 0}, {"type": "note_off", "time": 199, "note": 69, "velocity": 108, "channel": 0}, {"type": "note_on", "time": 0, "note": 65, "velocity": 101, "channel": 0}, {"type": "note_off", "time": 167, "note": 65, "velocity": 101, "channel": 0}, {"type": "note_on", "time": 47, "note": 67, "velocity": 100, "channel": 0}, {"type": "note_off", "time": 68, "note": 67, "velocity": 100, "channel": 0}, {"type": "note_on", "time": 15, "note": 67, "velocity": 100, "channel": 0}, {"type": "note_off", "time": 110, "note": 67, "velocity": 100, "channel": 0}, {"type": "note_on", "time": 20, "note": 69, "velocity": 100, "channel": 0}, {"type": "note_off", "time": 89, "note": 69, "velocity": 100, "channel": 0}, {"type": "note_on", "time": 26, "note": 69, "velocity": 95, "channel": 0}, {"type": "note_off", "time": 125, "note": 69, "velocity": 95, "channel": 0}, {"type": "note_on", "time": 15, "note": 70, "velocity": 95, "channel": 0}, {"type": "note_off", "time": 57, "note": 70, "velocity": 95, "channel": 0}, {"type": "note_on", "time": 20, "note": 70, "velocity": 91, "channel": 0}, {"type": "note_off", "time": 89, "note": 70, "velocity": 91, "channel": 0}, {"type": "note_on", "time": 36, "note": 72, "velocity": 95, "channel": 0}, {"type": "note_off", "time": 104, "note": 72, "velocity": 95, "channel": 0}, {"type": "note_on", "time": 31, "note": 74, "velocity": 111, "channel": 0}, {"type": "note_off", "time": 209, "note": 74, "velocity": 111, "channel": 0}, {"type": "note_on", "time": 41, "note": 72, "velocity": 111, "channel": 0}, {"type": "note_off", "time": 209, "note": 72, "velocity": 111, "channel": 0}, {"type": "note_on", "time": 20, "note": 71, "velocity": 104, "channel": 0}, {"type": "note_off", "time": 178, "note": 71, "velocity": 104, "channel": 0}, {"type": "note_on", "time": 0, "note": 69, "velocity": 101, "channel": 0}, {"type": "note_off", "time": 220, "note": 69, "velocity": 101, "channel": 0}, {"type": "note_on", "time": 10, "note": 68, "velocity": 106, "channel": 0}, {"type": "note_off", "time": 230, "note": 68, "velocity": 106, "channel": 0}, {"type": "note_on", "time": 31, "note": 76, "velocity": 101, "channel": 0}, {"type": "note_off", "time": 172, "note": 76, "velocity": 101, "channel": 0}, {"type": "note_on", "time": 0, "note": 77, "velocity": 108, "channel": 0}, {"type": "note_off", "time": 199, "note": 77, "velocity": 108, "channel": 0}, {"type": "note_on", "time": 5, "note": 79, "velocity": 102, "channel": 0}, {"type": "note_off", "time": 115, "note": 79, "velocity": 102, "channel": 0}, {"type": "note_on", "time": 0, "note": 81, "velocity": 115, "channel": 0}, {"type": "note_off", "time": 230, "note": 81, "velocity": 115, "channel": 0}, {"type": "note_on", "time": 4371, "note": 70, "velocity": 99, "channel": 0}, {"type": "note_off", "time": 157, "note": 70, "velocity": 99, "channel": 0}, {"type": "note_on", "time": 78, "note": 72, "velocity": 108, "channel": 0}, {"type": "note_off", "time": 125, "note": 72, "velocity": 108, "channel": 0}, {"type": "note_on", "time": 83, "note": 74, "velocity": 106, "channel": 0}, {"type": "note_off", "time": 78, "note": 74, "velocity": 106, "channel": 0}, {"type": "note_on", "time": 0, "note": 76, "velocity": 113, "channel": 0}, {"type": "note_off", "time": 157, "note": 76, "velocity": 113, "channel": 0}, {"type": "note_on", "time": 110, "note": 74, "velocity": 115, "channel": 0}, {"type": "note_off", "time": 68, "note": 74, "velocity": 115, "channel": 0}, {"type": "note_on", "time": 10, "note": 70, "velocity": 108, "channel": 0}, {"type": "note_off", "time": 115, "note": 70, "velocity": 108, "channel": 0}, {"type": "note_on", "time": 31, "note": 71, "velocity": 110, "channel": 0}, {"type": "note_off", "time": 209, "note": 71, "velocity": 110, "channel": 0}, {"type": "note_on", "time": 0, "note": 69, "velocity": 105, "channel": 0}, {"type": "note_off", "time": 178, "note": 69, "velocity": 105, "channel": 0}, {"type": "note_on", "time": 0, "note": 67, "velocity": 107, "channel": 0}, {"type": "note_off", "time": 220, "note": 67, "velocity": 107, "channel": 0}, {"type": "note_on", "time": 0, "note": 65, "velocity": 109, "channel": 0}, {"type": "note_off", "time": 199, "note": 65, "velocity": 109, "channel": 0}, {"type": "note_on", "time": 0, "note": 63, "velocity": 100, "channel": 0}, {"type": "note_off", "time": 157, "note": 63, "velocity": 100, "channel": 0}, {"type": "note_on", "time": 41, "note": 59, "velocity": 90, "channel": 0}, {"type": "note_off", "time": 209, "note": 59, "velocity": 90, "channel": 0}, {"type": "note_on", "time": 31, "note": 62, "velocity": 110, "channel": 0}, {"type": "note_off", "time": 251, "note": 62, "velocity": 110, "channel": 0}, {"type": "note_on", "time": 41, "note": 58, "velocity": 114, "channel": 0}, {"type": "note_off", "time": 115, "note": 58, "velocity": 114, "channel": 0}, {"type": "note_on", "time": 10, "note": 60, "velocity": 99, "channel": 0}, {"type": "note_off", "time": 209, "note": 60, "velocity": 99, "channel": 0}, {"type": "note_on", "time": 0, "note": 62, "velocity": 101, "channel": 0}, {"type": "note_off", "time": 136, "note": 62, "velocity": 101, "channel": 0}, {"type": "note_on", "time": 0, "note": 60, "velocity": 102, "channel": 0}, {"type": "note_on", "time": 104, "note": 58, "velocity": 103, "channel": 0}, {"type": "note_off", "time": 0, "note": 60, "velocity": 102, "channel": 0}, {"type": "note_off", "time": 199, "note": 58, "velocity": 103, "channel": 0}, {"type": "note_on", "time": 41, "note": 57, "velocity": 112, "channel": 0}, {"type": "note_off", "time": 178, "note": 57, "velocity": 112, "channel": 0}, {"type": "note_on", "time": 0, "note": 55, "velocity": 102, "channel": 0}, {"type": "note_off", "time": 188, "note": 55, "velocity": 102, "channel": 0}, {"type": "note_on", "time": 52, "note": 53, "velocity": 99, "channel": 0}, {"type": "note_off", "time": 230, "note": 53, "velocity": 99, "channel": 0}, {"type": "note_on", "time": 0, "note": 57, "velocity": 101, "channel": 0}, {"type": "note_off", "time": 52, "note": 57, "velocity": 101, "channel": 0}, {"type": "note_on", "time": 0, "note": 60, "velocity": 101, "channel": 0}, {"type": "note_off", "time": 178, "note": 60, "velocity": 101, "channel": 0}, {"type": "note_on", "time": 20, "note": 63, "velocity": 105, "channel": 0}, {"type": "note_off", "time": 209, "note": 63, "velocity": 105, "channel": 0}, {"type": "note_on", "time": 0, "note": 60, "velocity": 100, "channel": 0}, {"type": "note_off", "time": 115, "note": 60, "velocity": 100, "channel": 0}, {"type": "note_on", "time": 73, "note": 61, "velocity": 95, "channel": 0}, {"type": "note_off", "time": 125, "note": 61, "velocity": 95, "channel": 0}, {"type": "note_on", "time": 31, "note": 62, "velocity": 112, "channel": 0}, {"type": "note_off", "time": 230, "note": 62, "velocity": 112, "channel": 0}, {"type": "note_on", "time": 36, "note": 62, "velocity": 105, "channel": 0}, {"type": "note_off", "time": 57, "note": 62, "velocity": 105, "channel": 0}, {"type": "note_on", "time": 15, "note": 60, "velocity": 104, "channel": 0}, {"type": "note_off", "time": 78, "note": 60, "velocity": 104, "channel": 0}, {"type": "note_on", "time": 36, "note": 58, "velocity": 98, "channel": 0}, {"type": "note_off", "time": 141, "note": 58, "velocity": 98, "channel": 0}, {"type": "note_on", "time": 20, "note": 63, "velocity": 87, "channel": 0}, {"type": "note_off", "time": 157, "note": 63, "velocity": 87, "channel": 0}, {"type": "note_on", "time": 20, "note": 70, "velocity": 92, "channel": 0}, {"type": "note_off", "time": 251, "note": 70, "velocity": 92, "channel": 0}, {"type": "note_on", "time": 0, "note": 67, "velocity": 103, "channel": 0}, {"type": "note_off", "time": 188, "note": 67, "velocity": 103, "channel": 0}, {"type": "note_on", "time": 10, "note": 68, "velocity": 112, "channel": 0}, {"type": "note_off", "time": 157, "note": 68, "velocity": 112, "channel": 0}, {"type": "note_on", "time": 52, "note": 69, "velocity": 105, "channel": 0}, {"type": "note_off", "time": 209, "note": 69, "velocity": 105, "channel": 0}, {"type": "note_on", "time": 1111, "note": 68, "velocity": 117, "channel": 0}, {"type": "note_off", "time": 251, "note": 68, "velocity": 117, "channel": 0}, {"type": "note_on", "time": 10, "note": 70, "velocity": 113, "channel": 0}, {"type": "note_off", "time": 230, "note": 70, "velocity": 113, "channel": 0}, {"type": "note_on", "time": 20, "note": 75, "velocity": 116, "channel": 0}, {"type": "note_off", "time": 241, "note": 75, "velocity": 116, "channel": 0}, {"type": "note_on", "time": 0, "note": 72, "velocity": 105, "channel": 0}, {"type": "note_off", "time": 146, "note": 72, "velocity": 105, "channel": 0}, {"type": "note_on", "time": 0, "note": 74, "velocity": 116, "channel": 0}, {"type": "note_off", "time": 251, "note": 74, "velocity": 116, "channel": 0}, {"type": "note_on", "time": 0, "note": 72, "velocity": 116, "channel": 0}, {"type": "note_off", "time": 178, "note": 72, "velocity": 116, "channel": 0}, {"type": "note_on", "time": 20, "note": 71, "velocity": 111, "channel": 0}, {"type": "note_off", "time": 146, "note": 71, "velocity": 111, "channel": 0}, {"type": "note_on", "time": 52, "note": 68, "velocity": 113, "channel": 0}, {"type": "note_off", "time": 157, "note": 68, "velocity": 113, "channel": 0}, {"type": "note_on", "time": 73, "note": 69, "velocity": 111, "channel": 0}, {"type": "note_off", "time": 146, "note": 69, "velocity": 111, "channel": 0}, {"type": "note_on", "time": 20, "note": 71, "velocity": 104, "channel": 0}, {"type": "note_off", "time": 83, "note": 71, "velocity": 104, "channel": 0}, {"type": "note_on", "time": 0, "note": 74, "velocity": 99, "channel": 0}, {"type": "note_off", "time": 62, "note": 74, "velocity": 99, "channel": 0}, {"type": "note_on", "time": 0, "note": 76, "velocity": 104, "channel": 0}, {"type": "note_off", "time": 62, "note": 76, "velocity": 104, "channel": 0}, {"type": "note_on", "time": 0, "note": 80, "velocity": 112, "channel": 0}, {"type": "note_off", "time": 2788, "note": 80, "velocity": 112, "channel": 0}, {"type": "note_on", "time": 104, "note": 80, "velocity": 104, "channel": 0}, {"type": "note_off", "time": 115, "note": 80, "velocity": 104, "channel": 0}, {"type": "note_on", "time": 0, "note": 75, "velocity": 100, "channel": 0}, {"type": "note_off", "time": 199, "note": 75, "velocity": 100, "channel": 0}, {"type": "note_on", "time": 52, "note": 72, "velocity": 105, "channel": 0}, {"type": "note_off", "time": 283, "note": 72, "velocity": 105, "channel": 0}, {"type": "note_on", "time": 31, "note": 68, "velocity": 109, "channel": 0}, {"type": "note_off", "time": 314, "note": 68, "velocity": 109, "channel": 0}, {"type": "note_on", "time": 0, "note": 72, "velocity": 104, "channel": 0}, {"type": "note_off", "time": 188, "note": 72, "velocity": 104, "channel": 0}, {"type": "note_on", "time": 0, "note": 75, "velocity": 96, "channel": 0}, {"type": "note_off", "time": 220, "note": 75, "velocity": 96, "channel": 0}, {"type": "note_on", "time": 136, "note": 80, "velocity": 107, "channel": 0}, {"type": "note_off", "time": 356, "note": 80, "velocity": 107, "channel": 0}, {"type": "note_on", "time": 167, "note": 75, "velocity": 105, "channel": 0}, {"type": "note_off", "time": 304, "note": 75, "velocity": 105, "channel": 0}, {"type": "note_on", "time": 62, "note": 72, "velocity": 112, "channel": 0}, {"type": "note_off", "time": 419, "note": 72, "velocity": 112, "channel": 0}, {"type": "note_on", "time": 461, "note": 72, "velocity": 115, "channel": 0}, {"type": "note_off", "time": 167, "note": 72, "velocity": 115, "channel": 0}, {"type": "note_on", "time": 20, "note": 73, "velocity": 100, "channel": 0}, {"type": "note_off", "time": 377, "note": 73, "velocity": 100, "channel": 0}, {"type": "note_on", "time": 314, "note": 79, "velocity": 112, "channel": 0}, {"type": "note_off", "time": 178, "note": 79, "velocity": 112, "channel": 0}, {"type": "note_on", "time": 31, "note": 80, "velocity": 106, "channel": 0}, {"type": "note_off", "time": 178, "note": 80, "velocity": 106, "channel": 0}, {"type": "note_on", "time": 10, "note": 84, "velocity": 108, "channel": 0}, {"type": "note_off", "time": 974, "note": 84, "velocity": 108, "channel": 0}, {"type": "note_on", "time": 230, "note": 80, "velocity": 113, "channel": 0}, {"type": "note_off", "time": 482, "note": 80, "velocity": 113, "channel": 0}, {"type": "note_on", "time": 859, "note": 68, "velocity": 111, "channel": 0}, {"type": "note_off", "time": 220, "note": 68, "velocity": 111, "channel": 0}, {"type": "note_on", "time": 0, "note": 72, "velocity": 111, "channel": 0}, {"type": "note_off", "time": 241, "note": 72, "velocity": 111, "channel": 0}, {"type": "note_on", "time": 10, "note": 76, "velocity": 99, "channel": 0}, {"type": "note_off", "time": 241, "note": 76, "velocity": 99, "channel": 0}, {"type": "note_on", "time": 52, "note": 80, "velocity": 113, "channel": 0}, {"type": "note_off", "time": 167, "note": 80, "velocity": 113, "channel": 0}, {"type": "note_on", "time": 125, "note": 84, "velocity": 106, "channel": 0}, {"type": "note_off", "time": 597, "note": 84, "velocity": 106, "channel": 0}, {"type": "note_on", "time": 419, "note": 77, "velocity": 109, "channel": 0}, {"type": "note_off", "time": 324, "note": 77, "velocity": 109, "channel": 0}, {"type": "note_on", "time": 230, "note": 87, "velocity": 109, "channel": 0}, {"type": "note_off", "time": 786, "note": 87, "velocity": 109, "channel": 0}, {"type": "note_on", "time": 73, "note": 84, "velocity": 106, "channel": 0}, {"type": "note_off", "time": 691, "note": 84, "velocity": 106, "channel": 0}, {"type": "note_on", "time": 199, "note": 85, "velocity": 113, "channel": 0}, {"type": "note_off", "time": 545, "note": 85, "velocity": 113, "channel": 0}, {"type": "note_on", "time": 157, "note": 77, "velocity": 91, "channel": 0}, {"type": "note_off", "time": 513, "note": 77, "velocity": 91, "channel": 0}, {"type": "note_on", "time": 2096, "note": 80, "velocity": 119, "channel": 0}, {"type": "note_off", "time": 199, "note": 80, "velocity": 119, "channel": 0}, {"type": "note_on", "time": 10, "note": 81, "velocity": 122, "channel": 0}, {"type": "note_off", "time": 209, "note": 81, "velocity": 122, "channel": 0}, {"type": "note_on", "time": 0, "note": 80, "velocity": 119, "channel": 0}, {"type": "note_off", "time": 178, "note": 80, "velocity": 119, "channel": 0}, {"type": "note_on", "time": 52, "note": 77, "velocity": 110, "channel": 0}, {"type": "note_off", "time": 199, "note": 77, "velocity": 110, "channel": 0}, {"type": "note_on", "time": 52, "note": 73, "velocity": 104, "channel": 0}, {"type": "note_off", "time": 272, "note": 73, "velocity": 104, "channel": 0}, {"type": "note_on", "time": 15, "note": 69, "velocity": 102, "channel": 0}, {"type": "note_off", "time": 319, "note": 69, "velocity": 102, "channel": 0}, {"type": "note_on", "time": 1520, "note": 75, "velocity": 87, "channel": 0}, {"type": "note_off", "time": 104, "note": 75, "velocity": 87, "channel": 0}, {"type": "note_on", "time": 10, "note": 74, "velocity": 102, "channel": 0}, {"type": "note_off", "time": 104, "note": 74, "velocity": 102, "channel": 0}, {"type": "note_on", "time": 10, "note": 72, "velocity": 107, "channel": 0}, {"type": "note_off", "time": 115, "note": 72, "velocity": 107, "channel": 0}, {"type": "note_on", "time": 20, "note": 69, "velocity": 101, "channel": 0}, {"type": "note_off", "time": 251, "note": 69, "velocity": 101, "channel": 0}, {"type": "note_on", "time": 0, "note": 71, "velocity": 103, "channel": 0}, {"type": "note_off", "time": 136, "note": 71, "velocity": 103, "channel": 0}, {"type": "note_on", "time": 31, "note": 72, "velocity": 100, "channel": 0}, {"type": "note_off", "time": 125, "note": 72, "velocity": 100, "channel": 0}, {"type": "note_on", "time": 73, "note": 73, "velocity": 95, "channel": 0}, {"type": "note_off", "time": 115, "note": 73, "velocity": 95, "channel": 0}, {"type": "note_on", "time": 94, "note": 76, "velocity": 111, "channel": 0}, {"type": "note_off", "time": 209, "note": 76, "velocity": 111, "channel": 0}, {"type": "note_on", "time": 10, "note": 74, "velocity": 114, "channel": 0}, {"type": "note_on", "time": 217, "note": 72, "velocity": 116, "channel": 0}, {"type": "note_off", "time": 0, "note": 74, "velocity": 114, "channel": 0}, {"type": "note_off", "time": 125, "note": 72, "velocity": 116, "channel": 0}, {"type": "note_on", "time": 22, "note": 71, "velocity": 111, "channel": 0}, {"type": "note_off", "time": 169, "note": 71, "velocity": 111, "channel": 0}, {"type": "note_on", "time": 22, "note": 69, "velocity": 104, "channel": 0}, {"type": "note_off", "time": 206, "note": 69, "velocity": 104, "channel": 0}, {"type": "note_on", "time": 0, "note": 67, "velocity": 101, "channel": 0}, {"type": "note_off", "time": 191, "note": 67, "velocity": 101, "channel": 0}, {"type": "note_on", "time": 29, "note": 65, "velocity": 106, "channel": 0}, {"type": "note_off", "time": 221, "note": 65, "velocity": 106, "channel": 0}, {"type": "note_on", "time": 0, "note": 64, "velocity": 105, "channel": 0}, {"type": "note_off", "time": 471, "note": 64, "velocity": 105, "channel": 0}, {"type": "note_on", "time": 36, "note": 62, "velocity": 97, "channel": 0}, {"type": "note_off", "time": 154, "note": 62, "velocity": 97, "channel": 0}, {"type": "note_on", "time": 14, "note": 63, "velocity": 104, "channel": 0}, {"type": "note_off", "time": 316, "note": 63, "velocity": 104, "channel": 0}, {"type": "note_on", "time": 7, "note": 60, "velocity": 104, "channel": 0}, {"type": "note_off", "time": 110, "note": 60, "velocity": 104, "channel": 0}, {"type": "note_on", "time": 44, "note": 61, "velocity": 101, "channel": 0}, {"type": "note_off", "time": 206, "note": 61, "velocity": 101, "channel": 0}, {"type": "note_on", "time": 14, "note": 57, "velocity": 97, "channel": 0}, {"type": "note_off", "time": 117, "note": 57, "velocity": 97, "channel": 0}, {"type": "note_on", "time": 14, "note": 59, "velocity": 91, "channel": 0}, {"type": "note_off", "time": 132, "note": 59, "velocity": 91, "channel": 0}, {"type": "note_on", "time": 88, "note": 62, "velocity": 101, "channel": 0}, {"type": "note_off", "time": 243, "note": 62, "velocity": 101, "channel": 0}, {"type": "note_on", "time": 81, "note": 57, "velocity": 108, "channel": 0}, {"type": "note_off", "time": 88, "note": 57, "velocity": 108, "channel": 0}, {"type": "note_on", "time": 0, "note": 59, "velocity": 98, "channel": 0}, {"type": "note_off", "time": 140, "note": 59, "velocity": 98, "channel": 0}, {"type": "note_on", "time": 110, "note": 62, "velocity": 104, "channel": 0}, {"type": "note_off", "time": 372, "note": 62, "velocity": 104, "channel": 0}, {"type": "note_on", "time": 419, "note": 72, "velocity": 102, "channel": 0}, {"type": "note_off", "time": 220, "note": 72, "velocity": 102, "channel": 0}, {"type": "note_on", "time": 0, "note": 74, "velocity": 117, "channel": 0}, {"type": "note_off", "time": 324, "note": 74, "velocity": 117, "channel": 0}, {"type": "note_on", "time": 146, "note": 67, "velocity": 100, "channel": 0}, {"type": "note_on", "time": 398, "note": 71, "velocity": 93, "channel": 0}, {"type": "note_off", "time": 0, "note": 67, "velocity": 100, "channel": 0}, {"type": "note_off", "time": 188, "note": 71, "velocity": 93, "channel": 0}, {"type": "note_on", "time": 15, "note": 72, "velocity": 119, "channel": 0}, {"type": "note_off", "time": 154, "note": 72, "velocity": 119, "channel": 0}, {"type": "note_on", "time": 58, "note": 74, "velocity": 122, "channel": 0}, {"type": "note_off", "time": 265, "note": 74, "velocity": 122, "channel": 0}, {"type": "note_on", "time": 81, "note": 67, "velocity": 104, "channel": 0}, {"type": "note_off", "time": 314, "note": 67, "velocity": 104, "channel": 0}, {"type": "note_on", "time": 0, "note": 71, "velocity": 98, "channel": 0}, {"type": "note_off", "time": 199, "note": 71, "velocity": 98, "channel": 0}, {"type": "note_on", "time": 125, "note": 73, "velocity": 120, "channel": 0}, {"type": "note_off", "time": 251, "note": 73, "velocity": 120, "channel": 0}, {"type": "note_on", "time": 31, "note": 74, "velocity": 120, "channel": 0}, {"type": "note_off", "time": 220, "note": 74, "velocity": 120, "channel": 0}, {"type": "note_on", "time": 62, "note": 67, "velocity": 95, "channel": 0}, {"type": "note_off", "time": 377, "note": 67, "velocity": 95, "channel": 0}, {"type": "note_on", "time": 125, "note": 73, "velocity": 110, "channel": 0}, {"type": "note_off", "time": 209, "note": 73, "velocity": 110, "channel": 0}, {"type": "note_on", "time": 125, "note": 74, "velocity": 119, "channel": 0}, {"type": "note_off", "time": 1090, "note": 74, "velocity": 119, "channel": 0}, {"type": "note_on", "time": 57, "note": 76, "velocity": 99, "channel": 0}, {"type": "note_off", "time": 162, "note": 76, "velocity": 99, "channel": 0}, {"type": "note_on", "time": 21, "note": 73, "velocity": 95, "channel": 0}, {"type": "note_off", "time": 115, "note": 73, "velocity": 95, "channel": 0}, {"type": "note_on", "time": 10, "note": 72, "velocity": 107, "channel": 0}, {"type": "note_off", "time": 104, "note": 72, "velocity": 107, "channel": 0}, {"type": "note_on", "time": 12, "note": 70, "velocity": 109, "channel": 0}, {"type": "note_off", "time": 250, "note": 70, "velocity": 109, "channel": 0}, {"type": "note_on", "time": 14, "note": 67, "velocity": 103, "channel": 0}, {"type": "note_off", "time": 206, "note": 67, "velocity": 103, "channel": 0}, {"type": "note_on", "time": 29, "note": 65, "velocity": 100, "channel": 0}, {"type": "note_off", "time": 176, "note": 65, "velocity": 100, "channel": 0}, {"type": "note_on", "time": 0, "note": 62, "velocity": 95, "channel": 0}, {"type": "note_off", "time": 427, "note": 62, "velocity": 95, "channel": 0}, {"type": "note_on", "time": 1459, "note": 72, "velocity": 119, "channel": 0}, {"type": "note_off", "time": 309, "note": 72, "velocity": 119, "channel": 0}, {"type": "note_on", "time": 0, "note": 75, "velocity": 107, "channel": 0}, {"type": "note_off", "time": 191, "note": 75, "velocity": 107, "channel": 0}, {"type": "note_on", "time": 24, "note": 72, "velocity": 119, "channel": 0}, {"type": "note_off", "time": 94, "note": 72, "velocity": 119, "channel": 0}, {"type": "note_on", "time": 13, "note": 70, "velocity": 114, "channel": 0}, {"type": "note_off", "time": 221, "note": 70, "velocity": 114, "channel": 0}, {"type": "note_on", "time": 0, "note": 67, "velocity": 104, "channel": 0}, {"type": "note_off", "time": 206, "note": 67, "velocity": 104, "channel": 0}, {"type": "note_on", "time": 29, "note": 65, "velocity": 93, "channel": 0}, {"type": "note_off", "time": 265, "note": 65, "velocity": 93, "channel": 0}, {"type": "note_on", "time": 29, "note": 72, "velocity": 114, "channel": 0}, {"type": "note_off", "time": 280, "note": 72, "velocity": 114, "channel": 0}, {"type": "note_on", "time": 44, "note": 75, "velocity": 101, "channel": 0}, {"type": "note_on", "time": 162, "note": 73, "velocity": 112, "channel": 0}, {"type": "note_off", "time": 0, "note": 75, "velocity": 101, "channel": 0}, {"type": "note_off", "time": 88, "note": 73, "velocity": 112, "channel": 0}, {"type": "note_on", "time": 58, "note": 70, "velocity": 109, "channel": 0}, {"type": "note_off", "time": 206, "note": 70, "velocity": 109, "channel": 0}, {"type": "note_on", "time": 0, "note": 67, "velocity": 100, "channel": 0}, {"type": "note_off", "time": 339, "note": 67, "velocity": 100, "channel": 0}, {"type": "note_on", "time": 162, "note": 72, "velocity": 115, "channel": 0}, {"type": "note_off", "time": 176, "note": 72, "velocity": 115, "channel": 0}, {"type": "note_on", "time": 103, "note": 74, "velocity": 108, "channel": 0}, {"type": "note_off", "time": 2521, "note": 74, "velocity": 108, "channel": 0}, {"type": "note_on", "time": 1739, "note": 72, "velocity": 91, "channel": 0}, {"type": "note_off", "time": 191, "note": 72, "velocity": 91, "channel": 0}, {"type": "note_on", "time": 88, "note": 74, "velocity": 115, "channel": 0}, {"type": "note_off", "time": 353, "note": 74, "velocity": 115, "channel": 0}, {"type": "note_on", "time": 309, "note": 79, "velocity": 109, "channel": 0}, {"type": "note_off", "time": 368, "note": 79, "velocity": 109, "channel": 0}, {"type": "note_on", "time": 29, "note": 77, "velocity": 107, "channel": 0}, {"type": "note_off", "time": 3670, "note": 77, "velocity": 107, "channel": 0}, {"type": "note_on", "time": 250, "note": 75, "velocity": 119, "channel": 0}, {"type": "note_off", "time": 250, "note": 75, "velocity": 119, "channel": 0}, {"type": "note_on", "time": 0, "note": 76, "velocity": 99, "channel": 0}, {"type": "note_off", "time": 176, "note": 76, "velocity": 99, "channel": 0}, {"type": "note_on", "time": 0, "note": 80, "velocity": 116, "channel": 0}, {"type": "note_off", "time": 309, "note": 80, "velocity": 116, "channel": 0}, {"type": "note_on", "time": 1680, "note": 79, "velocity": 123, "channel": 0}, {"type": "note_off", "time": 176, "note": 79, "velocity": 123, "channel": 0}, {"type": "note_on", "time": 0, "note": 80, "velocity": 126, "channel": 0}, {"type": "note_off", "time": 228, "note": 80, "velocity": 126, "channel": 0}, {"type": "note_on", "time": 0, "note": 79, "velocity": 120, "channel": 0}, {"type": "note_off", "time": 117, "note": 79, "velocity": 120, "channel": 0}, {"type": "note_on", "time": 0, "note": 78, "velocity": 107, "channel": 0}, {"type": "note_off", "time": 132, "note": 78, "velocity": 107, "channel": 0}, {"type": "note_on", "time": 0, "note": 77, "velocity": 115, "channel": 0}, {"type": "note_off", "time": 125, "note": 77, "velocity": 115, "channel": 0}, {"type": "note_on", "time": 0, "note": 76, "velocity": 119, "channel": 0}, {"type": "note_off", "time": 81, "note": 76, "velocity": 119, "channel": 0}, {"type": "note_on", "time": 0, "note": 75, "velocity": 114, "channel": 0}, {"type": "note_off", "time": 191, "note": 75, "velocity": 114, "channel": 0}, {"type": "note_on", "time": 7, "note": 73, "velocity": 102, "channel": 0}, {"type": "note_off", "time": 154, "note": 73, "velocity": 102, "channel": 0}, {"type": "note_on", "time": 44, "note": 76, "velocity": 114, "channel": 0}, {"type": "note_off", "time": 221, "note": 76, "velocity": 114, "channel": 0}, {"type": "note_on", "time": 7, "note": 74, "velocity": 114, "channel": 0}, {"type": "note_off", "time": 176, "note": 74, "velocity": 114, "channel": 0}, {"type": "note_on", "time": 0, "note": 73, "velocity": 114, "channel": 0}, {"type": "note_off", "time": 147, "note": 73, "velocity": 114, "channel": 0}, {"type": "note_on", "time": 14, "note": 72, "velocity": 106, "channel": 0}, {"type": "note_off", "time": 206, "note": 72, "velocity": 106, "channel": 0}, {"type": "note_on", "time": 0, "note": 67, "velocity": 100, "channel": 0}, {"type": "note_off", "time": 125, "note": 67, "velocity": 100, "channel": 0}, {"type": "note_on", "time": 29, "note": 68, "velocity": 104, "channel": 0}, {"type": "note_off", "time": 206, "note": 68, "velocity": 104, "channel": 0}, {"type": "note_on", "time": 14, "note": 69, "velocity": 105, "channel": 0}, {"type": "note_off", "time": 258, "note": 69, "velocity": 105, "channel": 0}, {"type": "note_on", "time": 44, "note": 65, "velocity": 103, "channel": 0}, {"type": "note_off", "time": 199, "note": 65, "velocity": 103, "channel": 0}, {"type": "note_on", "time": 7, "note": 61, "velocity": 109, "channel": 0}, {"type": "note_off", "time": 51, "note": 61, "velocity": 109, "channel": 0}, {"type": "note_on", "time": 0, "note": 59, "velocity": 107, "channel": 0}, {"type": "note_off", "time": 147, "note": 59, "velocity": 107, "channel": 0}, {"type": "note_on", "time": 29, "note": 60, "velocity": 102, "channel": 0}, {"type": "note_off", "time": 250, "note": 60, "velocity": 102, "channel": 0}, {"type": "note_on", "time": 7, "note": 57, "velocity": 99, "channel": 0}, {"type": "note_off", "time": 110, "note": 57, "velocity": 99, "channel": 0}, {"type": "note_on", "time": 44, "note": 59, "velocity": 97, "channel": 0}, {"type": "note_off", "time": 235, "note": 59, "velocity": 97, "channel": 0}, {"type": "note_on", "time": 14, "note": 57, "velocity": 95, "channel": 0}, {"type": "note_off", "time": 449, "note": 57, "velocity": 95, "channel": 0}, {"type": "note_on", "time": 1798, "note": 58, "velocity": 117, "channel": 0}, {"type": "note_off", "time": 265, "note": 58, "velocity": 117, "channel": 0}, {"type": "note_on", "time": 14, "note": 57, "velocity": 106, "channel": 0}, {"type": "note_off", "time": 162, "note": 57, "velocity": 106, "channel": 0}, {"type": "note_on", "time": 73, "note": 58, "velocity": 104, "channel": 0}, {"type": "note_off", "time": 154, "note": 58, "velocity": 104, "channel": 0}, {"type": "note_on", "time": 7, "note": 59, "velocity": 101, "channel": 0}, {"type": "note_off", "time": 81, "note": 59, "velocity": 101, "channel": 0}, {"type": "note_on", "time": 95, "note": 62, "velocity": 102, "channel": 0}, {"type": "note_off", "time": 339, "note": 62, "velocity": 102, "channel": 0}, {"type": "note_on", "time": 7, "note": 64, "velocity": 110, "channel": 0}, {"type": "note_off", "time": 235, "note": 64, "velocity": 110, "channel": 0}, {"type": "note_on", "time": 7, "note": 62, "velocity": 111, "channel": 0}, {"type": "note_off", "time": 147, "note": 62, "velocity": 111, "channel": 0}, {"type": "note_on", "time": 29, "note": 60, "velocity": 106, "channel": 0}, {"type": "note_off", "time": 162, "note": 60, "velocity": 106, "channel": 0}, {"type": "note_on", "time": 0, "note": 59, "velocity": 108, "channel": 0}, {"type": "note_off", "time": 176, "note": 59, "velocity": 108, "channel": 0}, {"type": "note_on", "time": 44, "note": 57, "velocity": 110, "channel": 0}, {"type": "note_off", "time": 176, "note": 57, "velocity": 110, "channel": 0}, {"type": "note_on", "time": 32, "note": 55, "velocity": 108, "channel": 0}, {"type": "note_off", "time": 115, "note": 55, "velocity": 108, "channel": 0}, {"type": "note_on", "time": 20, "note": 53, "velocity": 108, "channel": 0}, {"type": "note_off", "time": 178, "note": 53, "velocity": 108, "channel": 0}, {"type": "note_on", "time": 58, "note": 58, "velocity": 102, "channel": 0}, {"type": "note_off", "time": 184, "note": 58, "velocity": 102, "channel": 0}, {"type": "note_on", "time": 44, "note": 60, "velocity": 99, "channel": 0}, {"type": "note_off", "time": 176, "note": 60, "velocity": 99, "channel": 0}, {"type": "note_on", "time": 58, "note": 63, "velocity": 105, "channel": 0}, {"type": "note_off", "time": 228, "note": 63, "velocity": 105, "channel": 0}, {"type": "note_on", "time": 66, "note": 60, "velocity": 105, "channel": 0}, {"type": "note_off", "time": 88, "note": 60, "velocity": 105, "channel": 0}, {"type": "note_on", "time": 7, "note": 61, "velocity": 108, "channel": 0}, {"type": "note_off", "time": 110, "note": 61, "velocity": 108, "channel": 0}, {"type": "note_on", "time": 36, "note": 62, "velocity": 111, "channel": 0}, {"type": "note_off", "time": 294, "note": 62, "velocity": 111, "channel": 0}, {"type": "note_on", "time": 0, "note": 60, "velocity": 107, "channel": 0}, {"type": "note_off", "time": 117, "note": 60, "velocity": 107, "channel": 0}, {"type": "note_on", "time": 22, "note": 58, "velocity": 103, "channel": 0}, {"type": "note_off", "time": 117, "note": 58, "velocity": 103, "channel": 0}, {"type": "note_on", "time": 0, "note": 55, "velocity": 104, "channel": 0}, {"type": "note_off", "time": 95, "note": 55, "velocity": 104, "channel": 0}, {"type": "note_on", "time": 51, "note": 60, "velocity": 96, "channel": 0}, {"type": "note_off", "time": 103, "note": 60, "velocity": 96, "channel": 0}, {"type": "note_on", "time": 29, "note": 66, "velocity": 100, "channel": 0}, {"type": "note_off", "time": 81, "note": 66, "velocity": 100, "channel": 0}, {"type": "note_on", "time": 7, "note": 69, "velocity": 104, "channel": 0}, {"type": "note_off", "time": 1002, "note": 69, "velocity": 104, "channel": 0}, {"type": "note_on", "time": 2462, "note": 72, "velocity": 124, "channel": 0}, {"type": "note_off", "time": 398, "note": 72, "velocity": 124, "channel": 0}, {"type": "note_on", "time": 4562, "note": 72, "velocity": 120, "channel": 0}, {"type": "note_off", "time": 368, "note": 72, "velocity": 120, "channel": 0}, {"type": "note_on", "time": 331, "note": 84, "velocity": 106, "channel": 0}, {"type": "note_off", "time": 442, "note": 84, "velocity": 106, "channel": 0}, {"type": "note_on", "time": 471, "note": 84, "velocity": 115, "channel": 0}, {"type": "note_off", "time": 560, "note": 84, "velocity": 115, "channel": 0}, {"type": "note_on", "time": 294, "note": 80, "velocity": 123, "channel": 0}, {"type": "note_off", "time": 147, "note": 80, "velocity": 123, "channel": 0}, {"type": "note_on", "time": 58, "note": 81, "velocity": 119, "channel": 0}, {"type": "note_off", "time": 486, "note": 81, "velocity": 119, "channel": 0}, {"type": "note_on", "time": 235, "note": 77, "velocity": 106, "channel": 0}, {"type": "note_off", "time": 486, "note": 77, "velocity": 106, "channel": 0}, {"type": "note_on", "time": 44, "note": 74, "velocity": 109, "channel": 0}, {"type": "note_off", "time": 206, "note": 74, "velocity": 109, "channel": 0}, {"type": "note_on", "time": 147, "note": 76, "velocity": 109, "channel": 0}, {"type": "note_off", "time": 648, "note": 76, "velocity": 109, "channel": 0}, {"type": "note_on", "time": 35, "note": 74, "velocity": 119, "channel": 0}, {"type": "note_off", "time": 560, "note": 74, "velocity": 119, "channel": 0}, {"type": "note_on", "time": 8, "note": 75, "velocity": 114, "channel": 0}, {"type": "note_off", "time": 1724, "note": 75, "velocity": 114, "channel": 0}, {"type": "note_on", "time": 2056, "note": 75, "velocity": 119, "channel": 0}, {"type": "note_off", "time": 199, "note": 75, "velocity": 119, "channel": 0}, {"type": "note_on", "time": 29, "note": 77, "velocity": 102, "channel": 0}, {"type": "note_off", "time": 132, "note": 77, "velocity": 102, "channel": 0}, {"type": "note_on", "time": 36, "note": 75, "velocity": 111, "channel": 0}, {"type": "note_off", "time": 176, "note": 75, "velocity": 111, "channel": 0}, {"type": "note_on", "time": 7, "note": 74, "velocity": 110, "channel": 0}, {"type": "note_off", "time": 213, "note": 74, "velocity": 110, "channel": 0}, {"type": "note_on", "time": 0, "note": 72, "velocity": 107, "channel": 0}, {"type": "note_off", "time": 213, "note": 72, "velocity": 107, "channel": 0}, {"type": "note_on", "time": 22, "note": 70, "velocity": 109, "channel": 0}, {"type": "note_off", "time": 235, "note": 70, "velocity": 109, "channel": 0}, {"type": "note_on", "time": 0, "note": 69, "velocity": 103, "channel": 0}, {"type": "note_off", "time": 169, "note": 69, "velocity": 103, "channel": 0}, {"type": "note_on", "time": 0, "note": 67, "velocity": 104, "channel": 0}, {"type": "note_off", "time": 199, "note": 67, "velocity": 104, "channel": 0}, {"type": "note_on", "time": 7, "note": 65, "velocity": 103, "channel": 0}, {"type": "note_off", "time": 211, "note": 65, "velocity": 103, "channel": 0}, {"type": "note_on", "time": 0, "note": 63, "velocity": 101, "channel": 0}, {"type": "note_off", "time": 221, "note": 63, "velocity": 101, "channel": 0}, {"type": "note_on", "time": 35, "note": 60, "velocity": 96, "channel": 0}, {"type": "note_off", "time": 146, "note": 60, "velocity": 96, "channel": 0}, {"type": "note_on", "time": 15, "note": 61, "velocity": 104, "channel": 0}, {"type": "note_off", "time": 120, "note": 61, "velocity": 104, "channel": 0}, {"type": "note_on", "time": 68, "note": 62, "velocity": 107, "channel": 0}, {"type": "note_off", "time": 272, "note": 62, "velocity": 107, "channel": 0}, {"type": "note_on", "time": 20, "note": 60, "velocity": 109, "channel": 0}, {"type": "note_off", "time": 83, "note": 60, "velocity": 109, "channel": 0}, {"type": "note_on", "time": 20, "note": 58, "velocity": 101, "channel": 0}, {"type": "note_off", "time": 130, "note": 58, "velocity": 101, "channel": 0}, {"type": "note_on", "time": 0, "note": 63, "velocity": 97, "channel": 0}, {"type": "note_off", "time": 73, "note": 63, "velocity": 97, "channel": 0}, {"type": "note_on", "time": 0, "note": 65, "velocity": 93, "channel": 0}, {"type": "note_off", "time": 29, "note": 65, "velocity": 93, "channel": 0}, {"type": "note_on", "time": 44, "note": 66, "velocity": 92, "channel": 0}, {"type": "note_off", "time": 81, "note": 66, "velocity": 92, "channel": 0}, {"type": "note_on", "time": 29, "note": 69, "velocity": 112, "channel": 0}, {"type": "note_off", "time": 287, "note": 69, "velocity": 112, "channel": 0}, {"type": "note_on", "time": 14, "note": 65, "velocity": 109, "channel": 0}, {"type": "note_off", "time": 132, "note": 65, "velocity": 109, "channel": 0}, {"type": "note_on", "time": 0, "note": 67, "velocity": 109, "channel": 0}, {"type": "note_off", "time": 184, "note": 67, "velocity": 109, "channel": 0}, {"type": "note_on", "time": 66, "note": 69, "velocity": 107, "channel": 0}, {"type": "note_off", "time": 213, "note": 69, "velocity": 107, "channel": 0}, {"type": "note_on", "time": 44, "note": 71, "velocity": 109, "channel": 0}, {"type": "note_on", "time": 191, "note": 72, "velocity": 103, "channel": 0}, {"type": "note_off", "time": 0, "note": 71, "velocity": 109, "channel": 0}, {"type": "note_off", "time": 140, "note": 72, "velocity": 103, "channel": 0}, {"type": "note_on", "time": 51, "note": 74, "velocity": 111, "channel": 0}, {"type": "note_off", "time": 184, "note": 74, "velocity": 111, "channel": 0}, {"type": "note_on", "time": 14, "note": 72, "velocity": 116, "channel": 0}, {"type": "note_off", "time": 243, "note": 72, "velocity": 116, "channel": 0}, {"type": "note_on", "time": 44, "note": 71, "velocity": 102, "channel": 0}, {"type": "note_off", "time": 176, "note": 71, "velocity": 102, "channel": 0}, {"type": "note_on", "time": 29, "note": 68, "velocity": 108, "channel": 0}, {"type": "note_off", "time": 199, "note": 68, "velocity": 108, "channel": 0}, {"type": "note_on", "time": 0, "note": 69, "velocity": 101, "channel": 0}, {"type": "note_off", "time": 221, "note": 69, "velocity": 101, "channel": 0}, {"type": "note_on", "time": 0, "note": 65, "velocity": 106, "channel": 0}, {"type": "note_off", "time": 147, "note": 65, "velocity": 106, "channel": 0}, {"type": "note_on", "time": 22, "note": 61, "velocity": 99, "channel": 0}, {"type": "note_off", "time": 147, "note": 61, "velocity": 99, "channel": 0}, {"type": "note_on", "time": 0, "note": 57, "velocity": 96, "channel": 0}, {"type": "note_off", "time": 235, "note": 57, "velocity": 96, "channel": 0}, {"type": "note_on", "time": 125, "note": 60, "velocity": 107, "channel": 0}, {"type": "note_off", "time": 184, "note": 60, "velocity": 107, "channel": 0}, {"type": "note_on", "time": 0, "note": 57, "velocity": 96, "channel": 0}, {"type": "note_off", "time": 169, "note": 57, "velocity": 96, "channel": 0}, {"type": "note_on", "time": 36, "note": 59, "velocity": 110, "channel": 0}, {"type": "note_off", "time": 280, "note": 59, "velocity": 110, "channel": 0}, {"type": "note_on", "time": 1614, "note": 58, "velocity": 106, "channel": 0}, {"type": "note_off", "time": 110, "note": 58, "velocity": 106, "channel": 0}, {"type": "note_on", "time": 66, "note": 60, "velocity": 105, "channel": 0}, {"type": "note_off", "time": 162, "note": 60, "velocity": 105, "channel": 0}, {"type": "note_on", "time": 29, "note": 62, "velocity": 104, "channel": 0}, {"type": "note_off", "time": 228, "note": 62, "velocity": 104, "channel": 0}, {"type": "note_on", "time": 14, "note": 61, "velocity": 108, "channel": 0}, {"type": "note_off", "time": 73, "note": 61, "velocity": 108, "channel": 0}, {"type": "note_on", "time": 14, "note": 59, "velocity": 103, "channel": 0}, {"type": "note_off", "time": 81, "note": 59, "velocity": 103, "channel": 0}, {"type": "note_on", "time": 22, "note": 58, "velocity": 98, "channel": 0}, {"type": "note_off", "time": 66, "note": 58, "velocity": 98, "channel": 0}, {"type": "note_on", "time": 0, "note": 62, "velocity": 100, "channel": 0}, {"type": "note_off", "time": 206, "note": 62, "velocity": 100, "channel": 0}, {"type": "note_on", "time": 0, "note": 67, "velocity": 100, "channel": 0}, {"type": "note_off", "time": 110, "note": 67, "velocity": 100, "channel": 0}, {"type": "note_on", "time": 22, "note": 71, "velocity": 116, "channel": 0}, {"type": "note_off", "time": 221, "note": 71, "velocity": 116, "channel": 0}, {"type": "note_on", "time": 457, "note": 58, "velocity": 112, "channel": 0}, {"type": "note_off", "time": 110, "note": 58, "velocity": 112, "channel": 0}, {"type": "note_on", "time": 14, "note": 59, "velocity": 104, "channel": 0}, {"type": "note_off", "time": 154, "note": 59, "velocity": 104, "channel": 0}, {"type": "note_on", "time": 7, "note": 61, "velocity": 107, "channel": 0}, {"type": "note_off", "time": 66, "note": 61, "velocity": 107, "channel": 0}, {"type": "note_on", "time": 44, "note": 63, "velocity": 109, "channel": 0}, {"type": "note_on", "time": 125, "note": 62, "velocity": 107, "channel": 0}, {"type": "note_off", "time": 0, "note": 63, "velocity": 109, "channel": 0}, {"type": "note_off", "time": 95, "note": 62, "velocity": 107, "channel": 0}, {"type": "note_on", "time": 7, "note": 60, "velocity": 105, "channel": 0}, {"type": "note_off", "time": 103, "note": 60, "velocity": 105, "channel": 0}, {"type": "note_on", "time": 0, "note": 59, "velocity": 102, "channel": 0}, {"type": "note_off", "time": 235, "note": 59, "velocity": 102, "channel": 0}, {"type": "note_on", "time": 51, "note": 76, "velocity": 117, "channel": 0}, {"type": "note_off", "time": 228, "note": 76, "velocity": 117, "channel": 0}, {"type": "note_on", "time": 0, "note": 75, "velocity": 116, "channel": 0}, {"type": "note_off", "time": 154, "note": 75, "velocity": 116, "channel": 0}, {"type": "note_on", "time": 22, "note": 72, "velocity": 108, "channel": 0}, {"type": "note_off", "time": 280, "note": 72, "velocity": 108, "channel": 0}, {"type": "note_on", "time": 14, "note": 59, "velocity": 124, "channel": 0}, {"type": "note_off", "time": 140, "note": 59, "velocity": 124, "channel": 0}, {"type": "note_on", "time": 36, "note": 60, "velocity": 103, "channel": 0}, {"type": "note_off", "time": 117, "note": 60, "velocity": 103, "channel": 0}, {"type": "note_on", "time": 51, "note": 62, "velocity": 102, "channel": 0}, {"type": "note_off", "time": 206, "note": 62, "velocity": 102, "channel": 0}, {"type": "note_on", "time": 0, "note": 60, "velocity": 99, "channel": 0}, {"type": "note_off", "time": 117, "note": 60, "velocity": 99, "channel": 0}, {"type": "note_on", "time": 36, "note": 59, "velocity": 101, "channel": 0}, {"type": "note_off", "time": 169, "note": 59, "velocity": 101, "channel": 0}, {"type": "note_on", "time": 250, "note": 76, "velocity": 113, "channel": 0}, {"type": "note_off", "time": 147, "note": 76, "velocity": 113, "channel": 0}, {"type": "note_on", "time": 22, "note": 75, "velocity": 113, "channel": 0}, {"type": "note_off", "time": 132, "note": 75, "velocity": 113, "channel": 0}, {"type": "note_on", "time": 29, "note": 72, "velocity": 113, "channel": 0}, {"type": "note_off", "time": 206, "note": 72, "velocity": 113, "channel": 0}, {"type": "note_on", "time": 294, "note": 59, "velocity": 104, "channel": 0}, {"type": "note_off", "time": 154, "note": 59, "velocity": 104, "channel": 0}, {"type": "note_on", "time": 36, "note": 61, "velocity": 97, "channel": 0}, {"type": "note_off", "time": 81, "note": 61, "velocity": 97, "channel": 0}, {"type": "note_on", "time": 66, "note": 62, "velocity": 99, "channel": 0}, {"type": "note_off", "time": 88, "note": 62, "velocity": 99, "channel": 0}, {"type": "note_on", "time": 44, "note": 60, "velocity": 102, "channel": 0}, {"type": "note_off", "time": 66, "note": 60, "velocity": 102, "channel": 0}, {"type": "note_on", "time": 29, "note": 59, "velocity": 106, "channel": 0}, {"type": "note_off", "time": 235, "note": 59, "velocity": 106, "channel": 0}, {"type": "note_on", "time": 228, "note": 76, "velocity": 116, "channel": 0}, {"type": "note_off", "time": 176, "note": 76, "velocity": 116, "channel": 0}, {"type": "note_on", "time": 44, "note": 75, "velocity": 118, "channel": 0}, {"type": "note_off", "time": 81, "note": 75, "velocity": 118, "channel": 0}, {"type": "note_on", "time": 29, "note": 74, "velocity": 111, "channel": 0}, {"type": "note_off", "time": 140, "note": 74, "velocity": 111, "channel": 0}, {"type": "note_on", "time": 110, "note": 59, "velocity": 97, "channel": 0}, {"type": "note_off", "time": 162, "note": 59, "velocity": 97, "channel": 0}, {"type": "note_on", "time": 36, "note": 60, "velocity": 100, "channel": 0}, {"type": "note_off", "time": 88, "note": 60, "velocity": 100, "channel": 0}, {"type": "note_on", "time": 51, "note": 61, "velocity": 101, "channel": 0}, {"type": "note_off", "time": 81, "note": 61, "velocity": 101, "channel": 0}, {"type": "note_on", "time": 44, "note": 62, "velocity": 101, "channel": 0}, {"type": "note_off", "time": 154, "note": 62, "velocity": 101, "channel": 0}, {"type": "note_on", "time": 81, "note": 59, "velocity": 106, "channel": 0}, {"type": "note_off", "time": 51, "note": 59, "velocity": 106, "channel": 0}, {"type": "note_on", "time": 58, "note": 60, "velocity": 103, "channel": 0}, {"type": "note_off", "time": 66, "note": 60, "velocity": 103, "channel": 0}, {"type": "note_on", "time": 44, "note": 62, "velocity": 108, "channel": 0}, {"type": "note_off", "time": 73, "note": 62, "velocity": 108, "channel": 0}, {"type": "note_on", "time": 7, "note": 60, "velocity": 104, "channel": 0}, {"type": "note_off", "time": 44, "note": 60, "velocity": 104, "channel": 0}, {"type": "note_on", "time": 51, "note": 59, "velocity": 98, "channel": 0}, {"type": "note_off", "time": 154, "note": 59, "velocity": 98, "channel": 0}, {"type": "note_on", "time": 36, "note": 64, "velocity": 88, "channel": 0}, {"type": "note_off", "time": 140, "note": 64, "velocity": 88, "channel": 0}, {"type": "note_on", "time": 86, "note": 71, "velocity": 108, "channel": 0}, {"type": "note_off", "time": 294, "note": 71, "velocity": 108, "channel": 0}, {"type": "note_on", "time": 1345, "note": 50, "velocity": 117, "channel": 0}, {"type": "note_off", "time": 287, "note": 50, "velocity": 117, "channel": 0}, {"type": "note_on", "time": 26, "note": 62, "velocity": 104, "channel": 0}, {"type": "note_off", "time": 464, "note": 62, "velocity": 104, "channel": 0}, {"type": "note_on", "time": 73, "note": 69, "velocity": 108, "channel": 0}, {"type": "note_off", "time": 339, "note": 69, "velocity": 108, "channel": 0}, {"type": "note_on", "time": 14, "note": 74, "velocity": 118, "channel": 0}, {"type": "note_off", "time": 513, "note": 74, "velocity": 118, "channel": 0}, {"type": "note_on", "time": 188, "note": 86, "velocity": 88, "channel": 0}, {"type": "note_off", "time": 629, "note": 86, "velocity": 88, "channel": 0}, {"type": "note_on", "time": 387, "note": 81, "velocity": 113, "channel": 0}, {"type": "note_off", "time": 587, "note": 81, "velocity": 113, "channel": 0}, {"type": "note_on", "time": 209, "note": 77, "velocity": 114, "channel": 0}, {"type": "note_off", "time": 503, "note": 77, "velocity": 114, "channel": 0}, {"type": "note_on", "time": 94, "note": 53, "velocity": 109, "channel": 0}, {"type": "note_off", "time": 429, "note": 53, "velocity": 109, "channel": 0}, {"type": "note_on", "time": 450, "note": 69, "velocity": 110, "channel": 0}, {"type": "note_off", "time": 461, "note": 69, "velocity": 110, "channel": 0}, {"type": "note_on", "time": 356, "note": 76, "velocity": 117, "channel": 0}, {"type": "note_off", "time": 366, "note": 76, "velocity": 117, "channel": 0}, {"type": "note_on", "time": 419, "note": 79, "velocity": 109, "channel": 0}, {"type": "note_off", "time": 408, "note": 79, "velocity": 109, "channel": 0}, {"type": "note_on", "time": 0, "note": 77, "velocity": 113, "channel": 0}, {"type": "note_off", "time": 335, "note": 77, "velocity": 113, "channel": 0}, {"type": "note_on", "time": 209, "note": 74, "velocity": 81, "channel": 0}, {"type": "note_off", "time": 188, "note": 74, "velocity": 81, "channel": 0}, {"type": "note_on", "time": 20, "note": 76, "velocity": 112, "channel": 0}, {"type": "note_off", "time": 398, "note": 76, "velocity": 112, "channel": 0}, {"type": "note_on", "time": 94, "note": 53, "velocity": 107, "channel": 0}, {"type": "note_off", "time": 398, "note": 53, "velocity": 107, "channel": 0}, {"type": "note_on", "time": 366, "note": 55, "velocity": 112, "channel": 0}, {"type": "note_off", "time": 503, "note": 55, "velocity": 112, "channel": 0}, {"type": "note_on", "time": 1352, "note": 55, "velocity": 108, "channel": 0}, {"type": "note_off", "time": 331, "note": 55, "velocity": 108, "channel": 0}, {"type": "note_on", "time": 161, "note": 62, "velocity": 96, "channel": 0}, {"type": "note_off", "time": 209, "note": 62, "velocity": 96, "channel": 0}, {"type": "note_on", "time": 83, "note": 65, "velocity": 95, "channel": 0}, {"type": "note_off", "time": 230, "note": 65, "velocity": 95, "channel": 0}, {"type": "note_on", "time": 104, "note": 67, "velocity": 113, "channel": 0}, {"type": "note_off", "time": 304, "note": 67, "velocity": 113, "channel": 0}, {"type": "note_on", "time": 272, "note": 67, "velocity": 104, "channel": 0}, {"type": "note_off", "time": 2274, "note": 67, "velocity": 104, "channel": 0}, {"type": "note_on", "time": 62, "note": 68, "velocity": 108, "channel": 0}, {"type": "note_off", "time": 136, "note": 68, "velocity": 108, "channel": 0}, {"type": "note_on", "time": 20, "note": 69, "velocity": 94, "channel": 0}, {"type": "note_off", "time": 115, "note": 69, "velocity": 94, "channel": 0}, {"type": "note_on", "time": 10, "note": 70, "velocity": 109, "channel": 0}, {"type": "note_off", "time": 1404, "note": 70, "velocity": 109, "channel": 0}, {"type": "note_on", "time": 125, "note": 70, "velocity": 106, "channel": 0}, {"type": "note_off", "time": 146, "note": 70, "velocity": 106, "channel": 0}, {"type": "note_on", "time": 31, "note": 72, "velocity": 112, "channel": 0}, {"type": "note_on", "time": 104, "note": 74, "velocity": 102, "channel": 0}, {"type": "note_off", "time": 0, "note": 72, "velocity": 112, "channel": 0}, {"type": "note_off", "time": 167, "note": 74, "velocity": 102, "channel": 0}, {"type": "note_on", "time": 0, "note": 71, "velocity": 109, "channel": 0}, {"type": "note_off", "time": 94, "note": 71, "velocity": 109, "channel": 0}, {"type": "note_on", "time": 10, "note": 70, "velocity": 106, "channel": 0}, {"type": "note_off", "time": 209, "note": 70, "velocity": 106, "channel": 0}, {"type": "note_on", "time": 0, "note": 67, "velocity": 106, "channel": 0}, {"type": "note_off", "time": 264, "note": 67, "velocity": 106, "channel": 0}, {"type": "note_on", "time": 0, "note": 65, "velocity": 113, "channel": 0}, {"type": "note_off", "time": 125, "note": 65, "velocity": 113, "channel": 0}, {"type": "note_on", "time": 14, "note": 63, "velocity": 107, "channel": 0}, {"type": "note_off", "time": 147, "note": 63, "velocity": 107, "channel": 0}, {"type": "note_on", "time": 29, "note": 60, "velocity": 95, "channel": 0}, {"type": "note_off", "time": 184, "note": 60, "velocity": 95, "channel": 0}, {"type": "note_on", "time": 51, "note": 61, "velocity": 100, "channel": 0}, {"type": "note_off", "time": 199, "note": 61, "velocity": 100, "channel": 0}, {"type": "note_on", "time": 103, "note": 62, "velocity": 103, "channel": 0}, {"type": "note_off", "time": 221, "note": 62, "velocity": 103, "channel": 0}, {"type": "note_on", "time": 44, "note": 61, "velocity": 102, "channel": 0}, {"type": "note_off", "time": 191, "note": 61, "velocity": 102, "channel": 0}, {"type": "note_on", "time": 14, "note": 60, "velocity": 102, "channel": 0}, {"type": "note_off", "time": 169, "note": 60, "velocity": 102, "channel": 0}, {"type": "note_on", "time": 14, "note": 58, "velocity": 95, "channel": 0}, {"type": "note_off", "time": 176, "note": 58, "velocity": 95, "channel": 0}, {"type": "note_on", "time": 1430, "note": 62, "velocity": 99, "channel": 0}, {"type": "note_off", "time": 132, "note": 62, "velocity": 99, "channel": 0}, {"type": "note_on", "time": 0, "note": 60, "velocity": 106, "channel": 0}, {"type": "note_off", "time": 176, "note": 60, "velocity": 106, "channel": 0}, {"type": "note_on", "time": 22, "note": 57, "velocity": 103, "channel": 0}, {"type": "note_off", "time": 117, "note": 57, "velocity": 103, "channel": 0}, {"type": "note_on", "time": 29, "note": 58, "velocity": 107, "channel": 0}, {"type": "note_off", "time": 154, "note": 58, "velocity": 107, "channel": 0}, {"type": "note_on", "time": 7, "note": 59, "velocity": 98, "channel": 0}, {"type": "note_off", "time": 132, "note": 59, "velocity": 98, "channel": 0}, {"type": "note_on", "time": 154, "note": 62, "velocity": 107, "channel": 0}, {"type": "note_off", "time": 375, "note": 62, "velocity": 107, "channel": 0}, {"type": "note_on", "time": 3531, "note": 67, "velocity": 109, "channel": 0}, {"type": "note_off", "time": 377, "note": 67, "velocity": 109, "channel": 0}, {"type": "note_on", "time": 62, "note": 71, "velocity": 108, "channel": 0}, {"type": "note_off", "time": 283, "note": 71, "velocity": 108, "channel": 0}, {"type": "note_on", "time": 0, "note": 73, "velocity": 120, "channel": 0}, {"type": "note_off", "time": 241, "note": 73, "velocity": 120, "channel": 0}, {"type": "note_on", "time": 10, "note": 75, "velocity": 115, "channel": 0}, {"type": "note_off", "time": 209, "note": 75, "velocity": 115, "channel": 0}, {"type": "note_on", "time": 20, "note": 73, "velocity": 118, "channel": 0}, {"type": "note_off", "time": 94, "note": 73, "velocity": 118, "channel": 0}, {"type": "note_on", "time": 5, "note": 72, "velocity": 118, "channel": 0}, {"type": "note_off", "time": 78, "note": 72, "velocity": 118, "channel": 0}, {"type": "note_on", "time": 0, "note": 70, "velocity": 111, "channel": 0}, {"type": "note_off", "time": 230, "note": 70, "velocity": 111, "channel": 0}, {"type": "note_on", "time": 0, "note": 67, "velocity": 104, "channel": 0}, {"type": "note_off", "time": 356, "note": 67, "velocity": 104, "channel": 0}, {"type": "note_on", "time": 41, "note": 65, "velocity": 104, "channel": 0}, {"type": "note_off", "time": 618, "note": 65, "velocity": 104, "channel": 0}, {"type": "note_on", "time": 1740, "note": 67, "velocity": 108, "channel": 0}, {"type": "note_off", "time": 345, "note": 67, "velocity": 108, "channel": 0}, {"type": "note_on", "time": 0, "note": 70, "velocity": 109, "channel": 0}, {"type": "note_off", "time": 293, "note": 70, "velocity": 109, "channel": 0}, {"type": "note_on", "time": 41, "note": 72, "velocity": 117, "channel": 0}, {"type": "note_off", "time": 345, "note": 72, "velocity": 117, "channel": 0}, {"type": "note_on", "time": 2065, "note": 64, "velocity": 89, "channel": 0}, {"type": "note_off", "time": 136, "note": 64, "velocity": 89, "channel": 0}, {"type": "note_on", "time": 83, "note": 67, "velocity": 109, "channel": 0}, {"type": "note_on", "time": 230, "note": 70, "velocity": 105, "channel": 0}, {"type": "note_off", "time": 0, "note": 67, "velocity": 109, "channel": 0}, {"type": "note_off", "time": 283, "note": 70, "velocity": 105, "channel": 0}, {"type": "note_on", "time": 104, "note": 70, "velocity": 109, "channel": 0}, {"type": "note_off", "time": 272, "note": 70, "velocity": 109, "channel": 0}, {"type": "note_on", "time": 157, "note": 70, "velocity": 111, "channel": 0}, {"type": "note_off", "time": 241, "note": 70, "velocity": 111, "channel": 0}, {"type": "note_on", "time": 31, "note": 67, "velocity": 100, "channel": 0}, {"type": "note_off", "time": 220, "note": 67, "velocity": 100, "channel": 0}, {"type": "note_on", "time": 115, "note": 71, "velocity": 114, "channel": 0}, {"type": "note_off", "time": 83, "note": 71, "velocity": 114, "channel": 0}, {"type": "note_on", "time": 0, "note": 72, "velocity": 120, "channel": 0}, {"type": "note_off", "time": 178, "note": 72, "velocity": 120, "channel": 0}, {"type": "note_on", "time": 73, "note": 72, "velocity": 117, "channel": 0}, {"type": "note_off", "time": 283, "note": 72, "velocity": 117, "channel": 0}, {"type": "note_on", "time": 94, "note": 67, "velocity": 102, "channel": 0}, {"type": "note_off", "time": 209, "note": 67, "velocity": 102, "channel": 0}, {"type": "note_on", "time": 83, "note": 70, "velocity": 108, "channel": 0}, {"type": "note_off", "time": 199, "note": 70, "velocity": 108, "channel": 0}, {"type": "note_on", "time": 62, "note": 70, "velocity": 114, "channel": 0}, {"type": "note_off", "time": 251, "note": 70, "velocity": 114, "channel": 0}, {"type": "note_on", "time": 125, "note": 70, "velocity": 115, "channel": 0}, {"type": "note_off", "time": 345, "note": 70, "velocity": 115, "channel": 0}, {"type": "note_on", "time": 20, "note": 67, "velocity": 108, "channel": 0}, {"type": "note_off", "time": 230, "note": 67, "velocity": 108, "channel": 0}, {"type": "note_on", "time": 62, "note": 71, "velocity": 112, "channel": 0}, {"type": "note_off", "time": 52, "note": 71, "velocity": 112, "channel": 0}, {"type": "note_on", "time": 0, "note": 72, "velocity": 120, "channel": 0}, {"type": "note_off", "time": 251, "note": 72, "velocity": 120, "channel": 0}, {"type": "note_on", "time": 73, "note": 72, "velocity": 117, "channel": 0}, {"type": "note_off", "time": 230, "note": 72, "velocity": 117, "channel": 0}, {"type": "note_on", "time": 20, "note": 67, "velocity": 98, "channel": 0}, {"type": "note_off", "time": 293, "note": 67, "velocity": 98, "channel": 0}, {"type": "note_on", "time": 0, "note": 70, "velocity": 102, "channel": 0}, {"type": "note_off", "time": 251, "note": 70, "velocity": 102, "channel": 0}, {"type": "note_on", "time": 83, "note": 70, "velocity": 116, "channel": 0}, {"type": "note_off", "time": 220, "note": 70, "velocity": 116, "channel": 0}, {"type": "note_on", "time": 104, "note": 70, "velocity": 9, "channel": 0}, {"type": "note_off", "time": 356, "note": 70, "velocity": 9, "channel": 0}, {"type": "note_on", "time": 10, "note": 67, "velocity": 94, "channel": 0}, {"type": "note_on", "time": 209, "note": 71, "velocity": 112, "channel": 0}, {"type": "note_off", "time": 0, "note": 67, "velocity": 94, "channel": 0}, {"type": "note_off", "time": 136, "note": 71, "velocity": 112, "channel": 0}, {"type": "note_on", "time": 20, "note": 72, "velocity": 116, "channel": 0}, {"type": "note_off", "time": 220, "note": 72, "velocity": 116, "channel": 0}, {"type": "note_on", "time": 94, "note": 72, "velocity": 118, "channel": 0}, {"type": "note_off", "time": 272, "note": 72, "velocity": 118, "channel": 0}, {"type": "note_on", "time": 0, "note": 67, "velocity": 102, "channel": 0}, {"type": "note_off", "time": 251, "note": 67, "velocity": 102, "channel": 0}, {"type": "note_on", "time": 31, "note": 70, "velocity": 107, "channel": 0}, {"type": "note_off", "time": 104, "note": 70, "velocity": 107, "channel": 0}, {"type": "note_on", "time": 0, "note": 71, "velocity": 105, "channel": 0}, {"type": "note_off", "time": 94, "note": 71, "velocity": 105, "channel": 0}, {"type": "note_on", "time": 94, "note": 72, "velocity": 125, "channel": 0}, {"type": "note_off", "time": 251, "note": 72, "velocity": 125, "channel": 0}, {"type": "note_on", "time": 31, "note": 72, "velocity": 119, "channel": 0}, {"type": "note_off", "time": 272, "note": 72, "velocity": 119, "channel": 0}, {"type": "note_on", "time": 52, "note": 67, "velocity": 92, "channel": 0}, {"type": "note_off", "time": 272, "note": 67, "velocity": 92, "channel": 0}, {"type": "note_on", "time": 10, "note": 70, "velocity": 112, "channel": 0}, {"type": "note_off", "time": 304, "note": 70, "velocity": 112, "channel": 0}, {"type": "note_on", "time": 31, "note": 72, "velocity": 119, "channel": 0}, {"type": "note_off", "time": 775, "note": 72, "velocity": 119, "channel": 0}, {"type": "note_on", "time": 1083, "note": 70, "velocity": 116, "channel": 0}, {"type": "note_off", "time": 162, "note": 70, "velocity": 116, "channel": 0}, {"type": "note_on", "time": 51, "note": 72, "velocity": 118, "channel": 0}, {"type": "note_off", "time": 147, "note": 72, "velocity": 118, "channel": 0}, {"type": "note_on", "time": 0, "note": 74, "velocity": 121, "channel": 0}, {"type": "note_off", "time": 184, "note": 74, "velocity": 121, "channel": 0}, {"type": "note_on", "time": 73, "note": 72, "velocity": 127, "channel": 0}, {"type": "note_off", "time": 176, "note": 72, "velocity": 127, "channel": 0}, {"type": "note_on", "time": 22, "note": 71, "velocity": 114, "channel": 0}, {"type": "note_off", "time": 154, "note": 71, "velocity": 114, "channel": 0}, {"type": "note_on", "time": 0, "note": 67, "velocity": 111, "channel": 0}, {"type": "note_off", "time": 140, "note": 67, "velocity": 111, "channel": 0}, {"type": "note_on", "time": 0, "note": 68, "velocity": 116, "channel": 0}, {"type": "note_off", "time": 147, "note": 68, "velocity": 116, "channel": 0}, {"type": "note_on", "time": 22, "note": 69, "velocity": 118, "channel": 0}, {"type": "note_off", "time": 162, "note": 69, "velocity": 118, "channel": 0}, {"type": "note_on", "time": 117, "note": 65, "velocity": 119, "channel": 0}, {"type": "note_off", "time": 169, "note": 65, "velocity": 119, "channel": 0}, {"type": "note_on", "time": 0, "note": 62, "velocity": 102, "channel": 0}, {"type": "note_off", "time": 191, "note": 62, "velocity": 102, "channel": 0}, {"type": "note_on", "time": 4467, "note": 78, "velocity": 88, "channel": 0}, {"type": "note_off", "time": 146, "note": 78, "velocity": 88, "channel": 0}, {"type": "note_on", "time": 31, "note": 79, "velocity": 117, "channel": 0}, {"type": "note_off", "time": 241, "note": 79, "velocity": 117, "channel": 0}, {"type": "note_on", "time": 41, "note": 77, "velocity": 126, "channel": 0}, {"type": "note_off", "time": 314, "note": 77, "velocity": 126, "channel": 0}, {"type": "note_on", "time": 83, "note": 71, "velocity": 96, "channel": 0}, {"type": "note_off", "time": 230, "note": 71, "velocity": 96, "channel": 0}, {"type": "note_on", "time": 73, "note": 75, "velocity": 120, "channel": 0}, {"type": "note_off", "time": 230, "note": 75, "velocity": 120, "channel": 0}, {"type": "note_on", "time": 0, "note": 76, "velocity": 119, "channel": 0}, {"type": "note_off", "time": 304, "note": 76, "velocity": 119, "channel": 0}, {"type": "note_on", "time": 0, "note": 74, "velocity": 119, "channel": 0}, {"type": "note_off", "time": 314, "note": 74, "velocity": 119, "channel": 0}, {"type": "note_on", "time": 52, "note": 69, "velocity": 113, "channel": 0}, {"type": "note_off", "time": 304, "note": 69, "velocity": 113, "channel": 0}, {"type": "note_on", "time": 20, "note": 68, "velocity": 96, "channel": 0}, {"type": "note_off", "time": 167, "note": 68, "velocity": 96, "channel": 0}, {"type": "note_on", "time": 157, "note": 62, "velocity": 100, "channel": 0}, {"type": "note_off", "time": 2589, "note": 62, "velocity": 100, "channel": 0}, {"type": "note_on", "time": 94, "note": 64, "velocity": 111, "channel": 0}, {"type": "note_off", "time": 335, "note": 64, "velocity": 111, "channel": 0}, {"type": "note_on", "time": 188, "note": 62, "velocity": 101, "channel": 0}, {"type": "note_off", "time": 146, "note": 62, "velocity": 101, "channel": 0}, {"type": "note_on", "time": 115, "note": 67, "velocity": 110, "channel": 0}, {"type": "note_off", "time": 912, "note": 67, "velocity": 110, "channel": 0}, {"type": "note_on", "time": 31, "note": 66, "velocity": 103, "channel": 0}, {"type": "note_off", "time": 146, "note": 66, "velocity": 103, "channel": 0}, {"type": "note_on", "time": 3145, "note": 75, "velocity": 113, "channel": 0}, {"type": "note_off", "time": 251, "note": 75, "velocity": 113, "channel": 0}, {"type": "note_on", "time": 41, "note": 77, "velocity": 116, "channel": 0}, {"type": "note_off", "time": 209, "note": 77, "velocity": 116, "channel": 0}, {"type": "note_on", "time": 20, "note": 75, "velocity": 120, "channel": 0}, {"type": "note_off", "time": 199, "note": 75, "velocity": 120, "channel": 0}, {"type": "note_on", "time": 20, "note": 74, "velocity": 120, "channel": 0}, {"type": "note_off", "time": 230, "note": 74, "velocity": 120, "channel": 0}, {"type": "note_on", "time": 0, "note": 72, "velocity": 119, "channel": 0}, {"type": "note_off", "time": 220, "note": 72, "velocity": 119, "channel": 0}, {"type": "note_on", "time": 0, "note": 70, "velocity": 116, "channel": 0}, {"type": "note_off", "time": 188, "note": 70, "velocity": 116, "channel": 0}, {"type": "note_on", "time": 0, "note": 69, "velocity": 114, "channel": 0}, {"type": "note_off", "time": 167, "note": 69, "velocity": 114, "channel": 0}, {"type": "note_on", "time": 10, "note": 67, "velocity": 109, "channel": 0}, {"type": "note_off", "time": 188, "note": 67, "velocity": 109, "channel": 0}, {"type": "note_on", "time": 0, "note": 65, "velocity": 107, "channel": 0}, {"type": "note_off", "time": 241, "note": 65, "velocity": 107, "channel": 0}, {"type": "note_on", "time": 20, "note": 63, "velocity": 100, "channel": 0}, {"type": "note_off", "time": 241, "note": 63, "velocity": 100, "channel": 0}, {"type": "note_on", "time": 18, "note": 60, "velocity": 104, "channel": 0}, {"type": "note_off", "time": 103, "note": 60, "velocity": 104, "channel": 0}, {"type": "note_on", "time": 22, "note": 61, "velocity": 110, "channel": 0}, {"type": "note_off", "time": 88, "note": 61, "velocity": 110, "channel": 0}, {"type": "note_on", "time": 66, "note": 62, "velocity": 114, "channel": 0}, {"type": "note_off", "time": 243, "note": 62, "velocity": 114, "channel": 0}, {"type": "note_on", "time": 14, "note": 60, "velocity": 99, "channel": 0}, {"type": "note_off", "time": 140, "note": 60, "velocity": 99, "channel": 0}, {"type": "note_on", "time": 37, "note": 58, "velocity": 105, "channel": 0}, {"type": "note_off", "time": 117, "note": 58, "velocity": 105, "channel": 0}, {"type": "note_on", "time": 51, "note": 61, "velocity": 114, "channel": 0}, {"type": "note_off", "time": 88, "note": 61, "velocity": 114, "channel": 0}, {"type": "note_on", "time": 14, "note": 65, "velocity": 104, "channel": 0}, {"type": "note_off", "time": 132, "note": 65, "velocity": 104, "channel": 0}, {"type": "note_on", "time": 29, "note": 69, "velocity": 117, "channel": 0}, {"type": "note_off", "time": 184, "note": 69, "velocity": 117, "channel": 0}, {"type": "note_on", "time": 29, "note": 65, "velocity": 113, "channel": 0}, {"type": "note_off", "time": 140, "note": 65, "velocity": 113, "channel": 0}, {"type": "note_on", "time": 40, "note": 67, "velocity": 111, "channel": 0}, {"type": "note_off", "time": 110, "note": 67, "velocity": 111, "channel": 0}, {"type": "note_on", "time": 31, "note": 67, "velocity": 111, "channel": 0}, {"type": "note_off", "time": 94, "note": 67, "velocity": 111, "channel": 0}, {"type": "note_on", "time": 0, "note": 69, "velocity": 113, "channel": 0}, {"type": "note_off", "time": 117, "note": 69, "velocity": 113, "channel": 0}, {"type": "note_on", "time": 28, "note": 69, "velocity": 92, "channel": 0}, {"type": "note_off", "time": 754, "note": 69, "velocity": 92, "channel": 0}, {"type": "note_on", "time": 16, "note": 77, "velocity": 122, "channel": 0}, {"type": "note_off", "time": 501, "note": 77, "velocity": 122, "channel": 0}, {"type": "note_on", "time": 121, "note": 64, "velocity": 99, "channel": 0}, {"type": "note_off", "time": 68, "note": 64, "velocity": 99, "channel": 0}, {"type": "note_on", "time": 15, "note": 62, "velocity": 99, "channel": 0}, {"type": "note_off", "time": 83, "note": 62, "velocity": 99, "channel": 0}, {"type": "note_on", "time": 26, "note": 65, "velocity": 98, "channel": 0}, {"type": "note_off", "time": 5184, "note": 65, "velocity": 98, "channel": 0}, {"type": "end_of_track", "time": 0}]]}